
<svg width="448" height="254" viewBox="0 0 448 254" fill="none" xmlns="http://www.w3.org/2000/svg">
<path d="M307.495 16.4962V188.5H6.5V16.4962C6.5 12.5941 9.59981 9.5 13.5052 9.5H300.495C304.315 9.5 307.358 12.4541 307.495 16.23V16.4962Z" fill="#AAAAAA" stroke="#333333"/>
<path d="M12.5 182.5V15.5H301.5V182.5H12.5Z" fill="white" stroke="#333333"/>
<g clip-path="url(#clip0_9083_121562)">
<rect width="288" height="74" transform="translate(13 16)" fill="#F6F8FA"/>
<rect x="23.5" y="26.5" width="23" height="23" rx="3.5" stroke="#D0D7DE"/>
<path d="M30.2002 34.3343C30.2002 34.1926 30.2565 34.0567 30.3567 33.9565C30.4569 33.8562 30.5928 33.7999 30.7346 33.7999H39.6408C39.7825 33.7999 39.9185 33.8562 40.0187 33.9565C40.1189 34.0567 40.1752 34.1926 40.1752 34.3343C40.1752 34.476 40.1189 34.612 40.0187 34.7122C39.9185 34.8124 39.7825 34.8687 39.6408 34.8687H30.7346C30.5928 34.8687 30.4569 34.8124 30.3567 34.7122C30.2565 34.612 30.2002 34.476 30.2002 34.3343ZM30.2002 37.8968C30.2002 37.7551 30.2565 37.6192 30.3567 37.519C30.4569 37.4187 30.5928 37.3624 30.7346 37.3624H39.6408C39.7825 37.3624 39.9185 37.4187 40.0187 37.519C40.1189 37.6192 40.1752 37.7551 40.1752 37.8968C40.1752 38.0385 40.1189 38.1745 40.0187 38.2747C39.9185 38.3749 39.7825 38.4312 39.6408 38.4312H30.7346C30.5928 38.4312 30.4569 38.3749 30.3567 38.2747C30.2565 38.1745 30.2002 38.0385 30.2002 37.8968ZM30.7346 40.9249H39.6408C39.7825 40.9249 39.9185 40.9812 40.0187 41.0815C40.1189 41.1817 40.1752 41.3176 40.1752 41.4593C40.1752 41.601 40.1189 41.737 40.0187 41.8372C39.9185 41.9374 39.7825 41.9937 39.6408 41.9937H30.7346C30.5928 41.9937 30.4569 41.9374 30.3567 41.8372C30.2565 41.737 30.2002 41.601 30.2002 41.4593C30.2002 41.3176 30.2565 41.1817 30.3567 41.0815C30.4569 40.9812 30.5928 40.9249 30.7346 40.9249Z" fill="#636C76"/>
<path fill-rule="evenodd" clip-rule="evenodd" d="M70 49C76.0751 49 81 44.0751 81 38C81 31.9249 76.0751 27 70 27C63.9249 27 59 31.9249 59 38C59 44.0751 63.9249 49 70 49ZM72.7852 44.2566C72.7725 45.0622 72.7798 46.1574 72.7852 46.963C72.1159 47.3293 70.4622 47.3704 70.0151 47.3704C70.0151 47.3704 68.8015 47.38 67.3926 46.963C67.4235 46.2544 67.4532 45.3976 67.4532 44.7742C67.2835 44.7742 67.118 44.7778 66.9556 44.7812C66.6105 44.7886 66.2791 44.7956 65.9499 44.768C64.958 44.6804 64.1946 44.2328 63.8013 43.2289C63.5511 42.5886 63.1724 42.0459 62.5901 41.6653C62.4953 41.6042 62.431 41.4912 62.3667 41.3783C62.337 41.326 62.3072 41.2737 62.2744 41.2266C62.3381 41.2088 62.4016 41.191 62.4651 41.1731C62.5853 41.1392 62.7055 41.1054 62.8264 41.0726C62.8396 41.0705 62.8539 41.075 62.8683 41.0796C62.8758 41.0819 62.8832 41.0843 62.8906 41.0858C63.5777 41.2128 64.0388 41.6516 64.3981 42.2387C65.0701 43.3397 66.0796 43.6858 67.2538 43.2151C67.3465 43.1788 67.4598 43.1062 67.4956 43.0198C67.6311 42.6872 67.755 42.3504 67.8833 42.0016C67.9275 41.8812 67.9723 41.7593 68.0183 41.6357L68.0161 41.6353L68.0162 41.6349C67.9289 41.6192 67.8419 41.6048 67.7548 41.5903C67.6342 41.5703 67.5136 41.5502 67.3926 41.527C66.1953 41.2923 65.1168 40.8404 64.3048 39.8364C63.2608 38.5439 62.6998 35.1697 64.2491 33.3839C64.3188 33.3044 64.3485 33.1317 64.32 33.024C64.1206 32.2836 64.14 31.5469 64.3351 30.8108C64.4902 30.2268 64.5411 30.1968 65.1258 30.3145C65.882 30.4684 66.5376 30.854 67.1932 31.2508C67.338 31.3385 67.5507 31.3904 67.7089 31.3516C69.1055 31.0174 70.5142 30.9222 71.9139 31.2483C72.5495 31.3985 73.0476 31.3178 73.5826 30.9466C74.1376 30.5636 74.7672 30.3145 75.4543 30.275C75.65 30.2619 75.7554 30.3251 75.819 30.5298C76.0759 31.3497 76.1402 32.169 75.9196 33.0078C75.8911 33.1117 75.8942 33.2738 75.9542 33.3451C76.783 34.3597 77.0054 35.5414 76.926 36.8296C76.7709 39.3601 75.5555 40.8848 73.2154 41.44C72.972 41.4978 72.7249 41.5407 72.462 41.5864C72.3433 41.607 72.2213 41.6282 72.0951 41.6516C72.7779 42.4158 72.7985 43.3303 72.7852 44.2566ZM68.0561 41.644C68.0561 41.6441 68.0558 41.6439 68.0551 41.6432L68.0561 41.644Z" fill="#1F2328"/>
<path d="M96.3508 40.7338C95.3369 40.7338 94.5242 40.4023 93.9125 39.7392C93.3042 39.0762 93 38.2136 93 37.1514C93 36.0101 93.3108 35.0996 93.9325 34.4201C94.5541 33.7406 95.4001 33.4008 96.4705 33.4008C97.4578 33.4008 98.2523 33.7307 98.854 34.3904C99.459 35.0501 99.7615 35.9127 99.7615 36.9782C99.7615 38.1361 99.4524 39.0515 98.8341 39.7244C98.2157 40.3973 97.388 40.7338 96.3508 40.7338ZM96.4107 34.1529C95.6594 34.1529 95.0494 34.4217 94.5807 34.9594C94.112 35.4971 93.8776 36.203 93.8776 37.0772C93.8776 37.9513 94.1053 38.6556 94.5607 39.19C95.0195 39.7211 95.6162 39.9866 96.3508 39.9866C97.1354 39.9866 97.7537 39.7326 98.2058 39.2246C98.6579 38.7166 98.8839 38.0058 98.8839 37.092C98.8839 36.1552 98.6645 35.4311 98.2257 34.9198C97.7869 34.4085 97.1819 34.1529 96.4107 34.1529Z" fill="#1F2328"/>
<path d="M106.932 40.615H105.905L102.225 34.9594C102.132 34.8176 102.055 34.6691 101.995 34.5141H101.965C101.992 34.6658 102.005 34.9908 102.005 35.4889V40.615H101.168V33.5195H102.255L105.835 39.0861C105.985 39.317 106.081 39.4753 106.124 39.5611H106.144C106.111 39.3566 106.094 39.0086 106.094 38.5171V33.5195H106.932V40.615Z" fill="#1F2328"/>
<path d="M112.517 40.615H108.807V33.5195H109.645V39.8629H112.517V40.615Z" fill="#1F2328"/>
<path d="M117.663 33.5195L115.304 37.9926V40.615H114.466V38.0124L112.168 33.5195H113.12L114.721 36.7259C114.741 36.7655 114.799 36.9106 114.895 37.1613H114.91C114.943 37.0492 115.007 36.904 115.1 36.7259L116.775 33.5195H117.663Z" fill="#1F2328"/>
<path d="M121.143 40.7338C120.129 40.7338 119.316 40.4023 118.705 39.7392C118.096 39.0762 117.792 38.2136 117.792 37.1514C117.792 36.0101 118.103 35.0996 118.725 34.4201C119.346 33.7406 120.192 33.4008 121.263 33.4008C122.25 33.4008 123.045 33.7307 123.646 34.3904C124.251 35.0501 124.554 35.9127 124.554 36.9782C124.554 38.1361 124.245 39.0515 123.626 39.7244C123.008 40.3973 122.18 40.7338 121.143 40.7338ZM121.203 34.1529C120.452 34.1529 119.842 34.4217 119.373 34.9594C118.904 35.4971 118.67 36.203 118.67 37.0772C118.67 37.9513 118.898 38.6556 119.353 39.19C119.812 39.7211 120.408 39.9866 121.143 39.9866C121.928 39.9866 122.546 39.7326 122.998 39.2246C123.45 38.7166 123.676 38.0058 123.676 37.092C123.676 36.1552 123.457 35.4311 123.018 34.9198C122.579 34.4085 121.974 34.1529 121.203 34.1529Z" fill="#1F2328"/>
<path d="M129.59 34.2716H126.798V36.7259H129.381V37.473H126.798V40.615H125.96V33.5195H129.59V34.2716Z" fill="#1F2328"/>
<path d="M134.576 34.2716H131.784V36.7259H134.367V37.473H131.784V40.615H130.946V33.5195H134.576V34.2716Z" fill="#1F2328"/>
<path d="M136.77 40.615H135.933V33.5195H136.77V40.615Z" fill="#1F2328"/>
<path d="M143.522 40.3182C142.993 40.5953 142.335 40.7338 141.547 40.7338C140.53 40.7338 139.716 40.4089 139.104 39.759C138.492 39.1092 138.186 38.2565 138.186 37.2009C138.186 36.0661 138.531 35.1491 139.219 34.4498C139.907 33.7505 140.779 33.4008 141.837 33.4008C142.515 33.4008 143.076 33.4981 143.522 33.6927V34.5784C143.01 34.2947 142.445 34.1529 141.827 34.1529C141.005 34.1529 140.339 34.425 139.827 34.9693C139.318 35.5136 139.064 36.241 139.064 37.1514C139.064 38.0157 139.302 38.7051 139.777 39.2197C140.256 39.731 140.882 39.9866 141.657 39.9866C142.375 39.9866 142.997 39.8283 143.522 39.5116V40.3182Z" fill="#1F2328"/>
<path d="M148.768 40.615H144.978V33.5195H148.608V34.2716H145.816V36.6319H148.399V37.379H145.816V39.8629H148.768V40.615Z" fill="#1F2328"/>
<path d="M157.498 33.5195L154.068 41.7927H153.305L156.725 33.5195H157.498Z" fill="#1F2328"/>
<path d="M164.188 40.7338C163.401 40.7338 162.771 40.4979 162.299 40.0262C161.83 39.5512 161.596 38.9228 161.596 38.141C161.596 37.29 161.84 36.6253 162.329 36.147C162.821 35.6686 163.482 35.4295 164.313 35.4295C165.111 35.4295 165.733 35.662 166.178 36.1272C166.624 36.5923 166.846 37.2372 166.846 38.0619C166.846 38.87 166.605 39.5182 166.123 40.0064C165.645 40.4913 165 40.7338 164.188 40.7338ZM164.243 36.3449C163.791 36.3449 163.434 36.5016 163.171 36.8149C162.909 37.1283 162.777 37.5604 162.777 38.1113C162.777 38.6424 162.91 39.0614 163.176 39.3681C163.442 39.6716 163.798 39.8234 164.243 39.8234C164.699 39.8234 165.048 39.6733 165.29 39.3731C165.536 39.0729 165.659 38.6457 165.659 38.0915C165.659 37.5341 165.536 37.1036 165.29 36.8001C165.048 36.4966 164.699 36.3449 164.243 36.3449Z" fill="#1F2328"/>
<path d="M172.576 40.615H171.419V37.76C171.419 36.8133 171.081 36.3399 170.406 36.3399C170.054 36.3399 169.763 36.4719 169.534 36.7358C169.305 36.9964 169.19 37.3262 169.19 37.7254V40.615H168.028V35.5482H169.19V36.3894H169.21C169.592 35.7495 170.144 35.4295 170.865 35.4295C171.42 35.4295 171.844 35.6093 172.137 35.9688C172.429 36.3251 172.576 36.8413 172.576 37.5176V40.615Z" fill="#1F2328"/>
<path d="M175.154 40.615H173.992V33.1138H175.154V40.615Z" fill="#1F2328"/>
<path d="M181.087 35.5482L178.784 41.4265C178.305 42.4755 177.633 43 176.769 43C176.526 43 176.324 42.9786 176.161 42.9357V41.9807C176.344 42.0401 176.51 42.0698 176.659 42.0698C177.092 42.0698 177.414 41.8587 177.627 41.4364L177.971 40.6051L175.941 35.5482H177.223L178.44 39.2296C178.453 39.2758 178.483 39.3978 178.529 39.5957H178.554C178.571 39.5199 178.601 39.4011 178.644 39.2395L179.92 35.5482H181.087Z" fill="#1F2328"/>
<path d="M184.044 40.7338C183.256 40.7338 182.626 40.4979 182.154 40.0262C181.686 39.5512 181.451 38.9228 181.451 38.141C181.451 37.29 181.696 36.6253 182.184 36.147C182.676 35.6686 183.338 35.4295 184.169 35.4295C184.967 35.4295 185.588 35.662 186.034 36.1272C186.479 36.5923 186.702 37.2372 186.702 38.0619C186.702 38.87 186.461 39.5182 185.979 40.0064C185.5 40.4913 184.855 40.7338 184.044 40.7338ZM184.099 36.3449C183.647 36.3449 183.29 36.5016 183.027 36.8149C182.764 37.1283 182.633 37.5604 182.633 38.1113C182.633 38.6424 182.766 39.0614 183.032 39.3681C183.298 39.6716 183.654 39.8234 184.099 39.8234C184.554 39.8234 184.904 39.6733 185.146 39.3731C185.392 39.0729 185.515 38.6457 185.515 38.0915C185.515 37.5341 185.392 37.1036 185.146 36.8001C184.904 36.4966 184.554 36.3449 184.099 36.3449Z" fill="#1F2328"/>
<path d="M190.601 34.049C190.445 33.9599 190.267 33.9154 190.068 33.9154C189.506 33.9154 189.225 34.2304 189.225 34.8605V35.5482H190.412V36.4488H189.23V40.615H188.073V36.4488H187.201V35.5482H188.073V34.7269C188.073 34.1925 188.249 33.7719 188.602 33.4651C188.954 33.155 189.395 33 189.923 33C190.209 33 190.435 33.0313 190.601 33.094V34.049Z" fill="#1F2328"/>
<path d="M194.122 34.049C193.965 33.9599 193.788 33.9154 193.588 33.9154C193.026 33.9154 192.745 34.2304 192.745 34.8605V35.5482H193.932V36.4488H192.75V40.615H191.594V36.4488H190.721V35.5482H191.594V34.7269C191.594 34.1925 191.77 33.7719 192.122 33.4651C192.475 33.155 192.915 33 193.444 33C193.729 33 193.955 33.0313 194.122 33.094V34.049Z" fill="#1F2328"/>
<path d="M195.338 34.4844C195.149 34.4844 194.986 34.4234 194.85 34.3013C194.717 34.1793 194.65 34.0242 194.65 33.8362C194.65 33.6482 194.717 33.4915 194.85 33.3662C194.986 33.2408 195.149 33.1781 195.338 33.1781C195.534 33.1781 195.701 33.2408 195.837 33.3662C195.973 33.4915 196.041 33.6482 196.041 33.8362C196.041 34.0143 195.973 34.1677 195.837 34.2964C195.701 34.4217 195.534 34.4844 195.338 34.4844ZM195.912 40.615H194.755V35.5482H195.912V40.615Z" fill="#1F2328"/>
<path d="M201.083 40.3825C200.674 40.6167 200.19 40.7338 199.632 40.7338C198.874 40.7338 198.262 40.4996 197.797 40.0312C197.331 39.5595 197.099 38.9492 197.099 38.2004C197.099 37.3658 197.348 36.6962 197.846 36.1915C198.348 35.6835 199.018 35.4295 199.856 35.4295C200.321 35.4295 200.732 35.5103 201.088 35.6719V36.7407C200.732 36.4768 200.353 36.3449 199.951 36.3449C199.462 36.3449 199.062 36.5098 198.749 36.8397C198.437 37.1663 198.28 37.5951 198.28 38.1262C198.28 38.6507 198.427 39.0647 198.719 39.3681C199.015 39.6716 199.411 39.8234 199.906 39.8234C200.321 39.8234 200.714 39.6766 201.083 39.383V40.3825Z" fill="#1F2328"/>
<path d="M206.558 38.3934H203.077C203.09 38.8618 203.235 39.223 203.511 39.477C203.79 39.731 204.173 39.858 204.658 39.858C205.203 39.858 205.703 39.6964 206.159 39.3731V40.2984C205.693 40.5887 205.078 40.7338 204.314 40.7338C203.563 40.7338 202.972 40.5045 202.544 40.046C202.118 39.5842 201.905 38.936 201.905 38.1014C201.905 37.313 202.14 36.6714 202.608 36.1766C203.081 35.6785 203.666 35.4295 204.364 35.4295C205.062 35.4295 205.602 35.6522 205.984 36.0975C206.367 36.5428 206.558 37.1613 206.558 37.953V38.3934ZM205.441 37.5819C205.437 37.1696 205.339 36.8496 205.147 36.622C204.954 36.3911 204.688 36.2756 204.349 36.2756C204.016 36.2756 203.734 36.396 203.501 36.6368C203.272 36.8776 203.13 37.1926 203.077 37.5819H205.441Z" fill="#1F2328"/>
<path d="M210.347 38.2697H207.625V37.4236H210.347V38.2697Z" fill="#1F2328"/>
<path d="M215.423 40.3825C215.015 40.6167 214.531 40.7338 213.972 40.7338C213.214 40.7338 212.603 40.4996 212.137 40.0312C211.672 39.5595 211.439 38.9492 211.439 38.2004C211.439 37.3658 211.689 36.6962 212.187 36.1915C212.689 35.6835 213.359 35.4295 214.197 35.4295C214.662 35.4295 215.073 35.5103 215.428 35.6719V36.7407C215.073 36.4768 214.694 36.3449 214.292 36.3449C213.803 36.3449 213.402 36.5098 213.09 36.8397C212.777 37.1663 212.621 37.5951 212.621 38.1262C212.621 38.6507 212.767 39.0647 213.06 39.3681C213.356 39.6716 213.751 39.8234 214.247 39.8234C214.662 39.8234 215.054 39.6766 215.423 39.383V40.3825Z" fill="#1F2328"/>
<path d="M221.113 40.615H219.956V37.8441C219.956 36.8413 219.619 36.3399 218.944 36.3399C218.605 36.3399 218.319 36.4851 218.086 36.7754C217.853 37.0656 217.737 37.4367 217.737 37.8887V40.615H216.575V33.1138H217.737V36.3894H217.757C218.143 35.7495 218.695 35.4295 219.413 35.4295C220.546 35.4295 221.113 36.1173 221.113 37.4928V40.615Z" fill="#1F2328"/>
<path d="M226.438 40.615H225.316V39.8234H225.296C224.944 40.4303 224.427 40.7338 223.746 40.7338C223.244 40.7338 222.85 40.5985 222.564 40.3281C222.281 40.0576 222.14 39.6997 222.14 39.2543C222.14 38.2977 222.695 37.7402 223.806 37.5819L225.321 37.3691C225.321 36.6467 224.976 36.2855 224.284 36.2855C223.676 36.2855 223.127 36.4933 222.639 36.909V35.9045C223.177 35.5878 223.799 35.4295 224.504 35.4295C225.793 35.4295 226.438 36.0595 226.438 37.3196V40.615ZM225.321 38.1262L224.249 38.2746C223.917 38.3175 223.666 38.3983 223.496 38.5171C223.33 38.6325 223.247 38.837 223.247 39.1306C223.247 39.345 223.324 39.5215 223.476 39.6601C223.633 39.7953 223.84 39.8629 224.1 39.8629C224.452 39.8629 224.743 39.7409 224.972 39.4968C225.205 39.2494 225.321 38.9393 225.321 38.5666V38.1262Z" fill="#1F2328"/>
<path d="M235.489 40.615H234.332V37.854C234.332 37.3229 234.255 36.9386 234.102 36.7011C233.953 36.4636 233.699 36.3449 233.339 36.3449C233.037 36.3449 232.779 36.495 232.567 36.7952C232.357 37.0953 232.252 37.4549 232.252 37.8738V40.615H231.091V37.76C231.091 36.8166 230.755 36.3449 230.083 36.3449C229.771 36.3449 229.513 36.4867 229.31 36.7704C229.111 37.0541 229.011 37.4219 229.011 37.8738V40.615H227.854V35.5482H229.011V36.3498H229.031C229.4 35.7363 229.937 35.4295 230.642 35.4295C230.994 35.4295 231.302 35.5268 231.564 35.7214C231.83 35.9127 232.011 36.1651 232.108 36.4785C232.487 35.7792 233.052 35.4295 233.803 35.4295C234.927 35.4295 235.489 36.1173 235.489 37.4928V40.615Z" fill="#1F2328"/>
<path d="M237.483 34.4844C237.294 34.4844 237.131 34.4234 236.994 34.3013C236.862 34.1793 236.795 34.0242 236.795 33.8362C236.795 33.6482 236.862 33.4915 236.994 33.3662C237.131 33.2408 237.294 33.1781 237.483 33.1781C237.679 33.1781 237.845 33.2408 237.982 33.3662C238.118 33.4915 238.186 33.6482 238.186 33.8362C238.186 34.0143 238.118 34.1677 237.982 34.2964C237.845 34.4217 237.679 34.4844 237.483 34.4844ZM238.057 40.615H236.9V35.5482H238.057V40.615Z" fill="#1F2328"/>
<path d="M240.734 40.615H239.572V33.1138H240.734V40.615Z" fill="#1F2328"/>
<path d="M244.509 40.7338C243.721 40.7338 243.091 40.4979 242.619 40.0262C242.15 39.5512 241.916 38.9228 241.916 38.141C241.916 37.29 242.16 36.6253 242.649 36.147C243.141 35.6686 243.803 35.4295 244.634 35.4295C245.431 35.4295 246.053 35.662 246.499 36.1272C246.944 36.5923 247.167 37.2372 247.167 38.0619C247.167 38.87 246.926 39.5182 246.444 40.0064C245.965 40.4913 245.32 40.7338 244.509 40.7338ZM244.564 36.3449C244.112 36.3449 243.754 36.5016 243.492 36.8149C243.229 37.1283 243.098 37.5604 243.098 38.1113C243.098 38.6424 243.231 39.0614 243.497 39.3681C243.763 39.6716 244.118 39.8234 244.564 39.8234C245.019 39.8234 245.368 39.6733 245.611 39.3731C245.857 39.0729 245.98 38.6457 245.98 38.0915C245.98 37.5341 245.857 37.1036 245.611 36.8001C245.368 36.4966 245.019 36.3449 244.564 36.3449Z" fill="#1F2328"/>
<path d="M35.0496 69.0125L37.7058 71.6687C37.7936 71.7566 37.8429 71.8758 37.8429 72C37.8429 72.1242 37.7936 72.2433 37.7058 72.3312L35.0496 74.9875C34.9923 75.0492 34.9194 75.0943 34.8386 75.1181C34.7579 75.1418 34.6722 75.1433 34.5906 75.1225C34.509 75.1016 34.4346 75.0592 34.3751 74.9995C34.3156 74.9399 34.2734 74.8654 34.2527 74.7837C34.2318 74.7023 34.2333 74.6166 34.2569 74.5359C34.2806 74.4552 34.3255 74.3823 34.3871 74.325L36.7121 72L34.3871 69.675C34.3254 69.6177 34.2803 69.5448 34.2565 69.464C34.2328 69.3833 34.2312 69.2976 34.2521 69.216C34.2729 69.1344 34.3154 69.06 34.375 69.0005C34.4347 68.941 34.5092 68.8988 34.5908 68.8781C34.6723 68.8572 34.7579 68.8587 34.8387 68.8823C34.9194 68.906 34.9922 68.9509 35.0496 69.0125ZM30.9496 69.0125C31.0385 68.9297 31.156 68.8847 31.2775 68.8868C31.3989 68.8889 31.5148 68.938 31.6008 69.0237C31.6866 69.1097 31.7357 69.2256 31.7378 69.3471C31.7399 69.4685 31.6948 69.5861 31.6121 69.675L29.2871 72L31.6121 74.325C31.6738 74.3823 31.7189 74.4552 31.7427 74.5359C31.7664 74.6167 31.7679 74.7024 31.7471 74.784C31.7262 74.8656 31.6838 74.94 31.6241 74.9995C31.5645 75.0589 31.49 75.1012 31.4083 75.1219C31.3269 75.1428 31.2412 75.1413 31.1605 75.1176C31.0798 75.094 31.0069 75.049 30.9496 74.9875L28.2933 72.3312C28.2056 72.2433 28.1562 72.1242 28.1562 72C28.1562 71.8758 28.2056 71.7566 28.2933 71.6687L30.9496 69.0125Z" fill="#636C76"/>
<rect x="43" y="71" width="28" height="2" rx="1" fill="#1F2328"/>
<g opacity="0.4">
<g clip-path="url(#clip1_9083_121562)">
<path d="M92 72.9375C92.2486 72.9375 92.4871 72.8387 92.6629 72.6629C92.8387 72.4871 92.9375 72.2486 92.9375 72C92.9375 71.7513 92.8387 71.5129 92.6629 71.337C92.4871 71.1612 92.2486 71.0625 92 71.0625C91.7514 71.0625 91.5129 71.1612 91.3371 71.337C91.1613 71.5129 91.0625 71.7513 91.0625 72C91.0625 72.2486 91.1613 72.4871 91.3371 72.6629C91.5129 72.8387 91.7514 72.9375 92 72.9375Z" fill="#636C76"/>
<path d="M92 67C93.3261 67 94.5979 67.5268 95.5355 68.4645C96.4732 69.4021 97 70.6739 97 72C97 73.3261 96.4732 74.5979 95.5355 75.5355C94.5979 76.4732 93.3261 77 92 77C90.6739 77 89.4021 76.4732 88.4645 75.5355C87.5268 74.5979 87 73.3261 87 72C87 70.6739 87.5268 69.4021 88.4645 68.4645C89.4021 67.5268 90.6739 67 92 67ZM87.9375 72C87.9375 73.0774 88.3655 74.1108 89.1274 74.8726C89.8892 75.6345 90.9226 76.0625 92 76.0625C93.0774 76.0625 94.1108 75.6345 94.8726 74.8726C95.6345 74.1108 96.0625 73.0774 96.0625 72C96.0625 70.9226 95.6345 69.8892 94.8726 69.1274C94.1108 68.3655 93.0774 67.9375 92 67.9375C90.9226 67.9375 89.8892 68.3655 89.1274 69.1274C88.3655 69.8892 87.9375 70.9226 87.9375 72Z" fill="#636C76"/>
</g>
<rect x="102" y="71" width="28" height="2" rx="1" fill="#636C76"/>
</g>
<g opacity="0.4">
<g clip-path="url(#clip2_9083_121562)">
<path d="M146.937 69.0312C146.937 68.7734 147.008 68.5206 147.142 68.3004C147.276 68.0802 147.468 67.9011 147.697 67.7826C147.926 67.6641 148.183 67.6109 148.44 67.6287C148.698 67.6465 148.945 67.7347 149.155 67.8835C149.366 68.0324 149.531 68.2363 149.634 68.4728C149.736 68.7094 149.772 68.9696 149.736 69.2249C149.701 69.4803 149.596 69.7209 149.433 69.9207C149.27 70.1204 149.055 70.2715 148.812 70.3574V73.6424C149.125 73.753 149.389 73.9707 149.557 74.2569C149.725 74.5432 149.786 74.8796 149.73 75.2067C149.674 75.5338 149.504 75.8306 149.25 76.0445C148.997 76.2585 148.675 76.3758 148.343 76.3758C148.012 76.3758 147.69 76.2585 147.437 76.0445C147.183 75.8306 147.013 75.5338 146.957 75.2067C146.901 74.8796 146.962 74.5432 147.13 74.2569C147.298 73.9707 147.562 73.753 147.875 73.6424V70.3574C147.6 70.2605 147.363 70.0809 147.195 69.8433C147.027 69.6058 146.937 69.3221 146.937 69.0312ZM150.485 68.9206L151.983 67.4231C152.005 67.4011 152.032 67.3862 152.063 67.3802C152.093 67.3741 152.125 67.3772 152.153 67.3891C152.182 67.4009 152.206 67.421 152.223 67.4467C152.241 67.4725 152.25 67.5027 152.25 67.5337V68.5624H152.875C153.289 68.5624 153.686 68.7271 153.98 69.0201C154.273 69.3131 154.437 69.7105 154.437 70.1249V73.6424C154.75 73.753 155.014 73.9707 155.182 74.2569C155.35 74.5432 155.411 74.8796 155.355 75.2067C155.299 75.5338 155.129 75.8306 154.875 76.0445C154.622 76.2585 154.3 76.3758 153.968 76.3758C153.637 76.3758 153.315 76.2585 153.062 76.0445C152.808 75.8306 152.638 75.5338 152.582 75.2067C152.526 74.8796 152.587 74.5432 152.755 74.2569C152.923 73.9707 153.187 73.753 153.5 73.6424V70.1249C153.5 69.9592 153.434 69.8002 153.317 69.683C153.199 69.5658 153.04 69.4999 152.875 69.4999H152.25V70.5287C152.25 70.5596 152.241 70.5899 152.223 70.6156C152.206 70.6414 152.182 70.6615 152.153 70.6733C152.125 70.6852 152.093 70.6882 152.063 70.6822C152.032 70.6761 152.005 70.6612 151.983 70.6393L150.485 69.1418C150.471 69.1273 150.459 69.11 150.451 69.0911C150.443 69.0721 150.439 69.0517 150.439 69.0312C150.439 69.0106 150.443 68.9903 150.451 68.9713C150.459 68.9523 150.471 68.9351 150.485 68.9206ZM148.343 68.5624C148.219 68.5624 148.1 68.6118 148.012 68.6997C147.924 68.7876 147.875 68.9069 147.875 69.0312C147.875 69.1555 147.924 69.2747 148.012 69.3626C148.1 69.4505 148.219 69.4999 148.343 69.4999C148.468 69.4999 148.587 69.4505 148.675 69.3626C148.763 69.2747 148.812 69.1555 148.812 69.0312C148.812 68.9069 148.763 68.7876 148.675 68.6997C148.587 68.6118 148.468 68.5624 148.343 68.5624ZM148.343 74.4999C148.219 74.4999 148.1 74.5493 148.012 74.6372C147.924 74.7251 147.875 74.8444 147.875 74.9687C147.875 75.093 147.924 75.2122 148.012 75.3001C148.1 75.388 148.219 75.4374 148.343 75.4374C148.468 75.4374 148.587 75.388 148.675 75.3001C148.763 75.2122 148.812 75.093 148.812 74.9687C148.812 74.8444 148.763 74.7251 148.675 74.6372C148.587 74.5493 148.468 74.4999 148.343 74.4999ZM153.5 74.9687C153.5 75.093 153.549 75.2122 153.637 75.3001C153.725 75.388 153.844 75.4374 153.968 75.4374C154.093 75.4374 154.212 75.388 154.3 75.3001C154.388 75.2122 154.437 75.093 154.437 74.9687C154.437 74.8444 154.388 74.7251 154.3 74.6372C154.212 74.5493 154.093 74.4999 153.968 74.4999C153.844 74.4999 153.725 74.5493 153.637 74.6372C153.549 74.7251 153.5 74.8444 153.5 74.9687Z" fill="#636C76"/>
</g>
<rect x="161" y="71" width="28" height="2" rx="1" fill="#636C76"/>
</g>
<g opacity="0.4">
<g clip-path="url(#clip3_9083_121562)">
<path d="M210 67C211.326 67 212.598 67.5268 213.536 68.4645C214.473 69.4021 215 70.6739 215 72C215 73.3261 214.473 74.5979 213.536 75.5355C212.598 76.4732 211.326 77 210 77C208.674 77 207.402 76.4732 206.464 75.5355C205.527 74.5979 205 73.3261 205 72C205 70.6739 205.527 69.4021 206.464 68.4645C207.402 67.5268 208.674 67 210 67ZM205.938 72C205.938 73.0774 206.366 74.1108 207.127 74.8726C207.889 75.6345 208.923 76.0625 210 76.0625C211.077 76.0625 212.111 75.6345 212.873 74.8726C213.634 74.1108 214.062 73.0774 214.062 72C214.062 70.9226 213.634 69.8892 212.873 69.1274C212.111 68.3655 211.077 67.9375 210 67.9375C208.923 67.9375 207.889 68.3655 207.127 69.1274C206.366 69.8892 205.938 70.9226 205.938 72ZM208.987 70.2669L211.652 71.8663C211.675 71.8802 211.694 71.8998 211.707 71.9232C211.72 71.9466 211.727 71.9731 211.727 72C211.727 72.0269 211.72 72.0534 211.707 72.0768C211.694 72.1002 211.675 72.1198 211.652 72.1337L208.987 73.7331C208.963 73.7474 208.936 73.7551 208.908 73.7555C208.881 73.7559 208.854 73.7489 208.829 73.7353C208.805 73.7217 208.785 73.702 208.771 73.6781C208.757 73.6542 208.75 73.627 208.75 73.5994V70.4012C208.75 70.3735 208.757 70.3463 208.771 70.3223C208.785 70.2983 208.805 70.2785 208.829 70.2648C208.853 70.2511 208.881 70.2441 208.908 70.2445C208.936 70.2448 208.963 70.2526 208.987 70.2669Z" fill="#636C76"/>
</g>
<rect x="220" y="71" width="28" height="2" rx="1" fill="#636C76"/>
</g>
<g opacity="0.4">
<g clip-path="url(#clip4_9083_121562)">
<path d="M264 68.0937C264 67.9694 264.049 67.8502 264.137 67.7623C264.225 67.6743 264.344 67.625 264.469 67.625H267.127C267.894 67.625 268.575 67.9937 269.002 68.5631C269.22 68.2714 269.503 68.0347 269.829 67.8718C270.155 67.7089 270.514 67.6244 270.879 67.625H273.532C273.656 67.625 273.775 67.6743 273.863 67.7623C273.951 67.8502 274.001 67.9694 274.001 68.0937V74.6562C274.001 74.7805 273.951 74.8998 273.863 74.9877C273.775 75.0756 273.656 75.125 273.532 75.125H270.715C270.53 75.125 270.347 75.1613 270.177 75.232C270.006 75.3027 269.851 75.4063 269.721 75.5368L269.332 75.925C269.244 76.0127 269.125 76.062 269.001 76.062C268.876 76.062 268.757 76.0127 268.669 75.925L268.281 75.5368C268.15 75.4063 267.995 75.3027 267.824 75.232C267.654 75.1613 267.471 75.125 267.286 75.125H264.469C264.344 75.125 264.225 75.0756 264.137 74.9877C264.049 74.8998 264 74.7805 264 74.6562V68.0937ZM268.532 74.5462L268.534 71.3756L268.533 69.9675C268.533 69.5947 268.384 69.2373 268.121 68.9739C267.857 68.7104 267.5 68.5625 267.127 68.5625H264.938V74.1875H267.286C267.727 74.1874 268.158 74.3118 268.532 74.5462ZM269.472 69.9687L269.469 74.545C269.843 74.3113 270.274 74.1874 270.714 74.1875H273.062V68.5625H270.878C270.505 68.5625 270.147 68.7106 269.884 68.9743C269.62 69.2381 269.472 69.5957 269.472 69.9687Z" fill="#636C76"/>
</g>
<rect x="279" y="71" width="28" height="2" rx="1" fill="#636C76"/>
</g>
<rect x="23" y="88" width="53" height="2" fill="#FD8C73"/>
</g>
<mask id="path-19-inside-1_9083_121562" fill="white">
<path d="M14 108H302V162.652H14V108Z"/>
</mask>
<path d="M302 162.19H14V163.115H302V162.19Z" fill="#D0D7DE" mask="url(#path-19-inside-1_9083_121562)"/>
<rect x="23.751" y="108.5" width="37" height="37" rx="1.5" stroke="#DEDEDF"/>
<path fill-rule="evenodd" clip-rule="evenodd" d="M40.9676 136.511L32.3045 132.496C31.5665 132.146 31.5665 131.604 32.3045 131.286L35.3205 129.884L40.9355 132.496C41.6734 132.847 42.8606 132.847 43.5665 132.496L49.1815 129.884L52.1975 131.286C52.9355 131.636 52.9355 132.178 52.1975 132.496L43.5344 136.511C42.8606 136.83 41.6734 136.83 40.9676 136.511Z" fill="#FF6F3D"/>
<path fill-rule="evenodd" clip-rule="evenodd" d="M40.9395 131.543L32.3028 127.524C31.567 127.173 31.567 126.631 32.3028 126.312L35.2456 124.94L40.9395 127.588C41.6752 127.939 42.8587 127.939 43.5625 127.588L49.2563 124.94L52.1992 126.312C52.9349 126.663 52.9349 127.205 52.1992 127.524L43.5625 131.543C42.8268 131.894 41.6432 131.894 40.9395 131.543Z" fill="#95C038"/>
<path fill-rule="evenodd" clip-rule="evenodd" d="M40.9395 126.627L32.3028 122.665C31.567 122.32 31.567 121.785 32.3028 121.471L40.9395 117.509C41.6752 117.164 42.8587 117.164 43.5625 117.509L52.1992 121.471C52.9349 121.817 52.9349 122.351 52.1992 122.665L43.5625 126.627C42.8268 126.941 41.6432 126.941 40.9395 126.627Z" fill="#5DC0E8"/>
<path d="M78.0083 131.921C76.5628 131.921 75.407 131.496 74.5409 130.647C73.681 129.792 73.251 128.661 73.251 127.254C73.251 125.722 73.6993 124.525 74.5958 123.665C75.4985 122.804 76.7122 122.373 78.237 122.373C79.7008 122.373 80.8413 122.792 81.6586 123.629C82.4759 124.466 82.8845 125.627 82.8845 127.111C82.8845 128.566 82.4423 129.733 81.558 130.612C80.6797 131.484 79.4965 131.921 78.0083 131.921ZM78.1089 124.021C77.2794 124.021 76.6238 124.303 76.142 124.867C75.6601 125.431 75.4192 126.209 75.4192 127.2C75.4192 128.156 75.6632 128.91 76.1511 129.463C76.639 130.009 77.2916 130.282 78.1089 130.282C78.9445 130.282 79.5849 130.012 80.0301 129.472C80.4815 128.931 80.7071 128.162 80.7071 127.165C80.7071 126.161 80.4815 125.386 80.0301 124.84C79.5849 124.294 78.9445 124.021 78.1089 124.021Z" fill="#1F2328"/>
<path d="M93.3963 131.707H91.2738V126.568C91.2738 124.864 90.6548 124.012 89.4166 124.012C88.7701 124.012 88.2365 124.249 87.8156 124.724C87.3948 125.193 87.1844 125.787 87.1844 126.506V131.707H85.0527V122.587H87.1844V124.101H87.221C87.9224 122.949 88.9348 122.373 90.2583 122.373C91.2769 122.373 92.0545 122.697 92.5912 123.344C93.1279 123.985 93.3963 124.914 93.3963 126.132V131.707Z" fill="#1F2328"/>
<path d="M98.1262 131.707H95.9945V118.205H98.1262V131.707Z" fill="#1F2328"/>
<path d="M109.013 122.587L104.786 133.168C103.908 135.056 102.676 136 101.09 136C100.645 136 100.273 135.961 99.9742 135.884V134.165C100.31 134.272 100.615 134.326 100.889 134.326C101.682 134.326 102.274 133.946 102.664 133.186L103.295 131.689L99.5716 122.587H101.923L104.155 129.213C104.18 129.296 104.234 129.516 104.32 129.872H104.366C104.396 129.736 104.451 129.522 104.53 129.231L106.872 122.587H109.013Z" fill="#1F2328"/>
<path d="M114.438 131.921C112.993 131.921 111.837 131.496 110.971 130.647C110.111 129.792 109.681 128.661 109.681 127.254C109.681 125.722 110.129 124.525 111.026 123.665C111.928 122.804 113.142 122.373 114.667 122.373C116.131 122.373 117.271 122.792 118.089 123.629C118.906 124.466 119.314 125.627 119.314 127.111C119.314 128.566 118.872 129.733 117.988 130.612C117.11 131.484 115.926 131.921 114.438 131.921ZM114.539 124.021C113.709 124.021 113.054 124.303 112.572 124.867C112.09 125.431 111.849 126.209 111.849 127.2C111.849 128.156 112.093 128.91 112.581 129.463C113.069 130.009 113.722 130.282 114.539 130.282C115.374 130.282 116.015 130.012 116.46 129.472C116.911 128.931 117.137 128.162 117.137 127.165C117.137 126.161 116.911 125.386 116.46 124.84C116.015 124.294 115.374 124.021 114.539 124.021Z" fill="#1F2328"/>
<path d="M126.469 119.888C126.182 119.728 125.856 119.648 125.49 119.648C124.459 119.648 123.944 120.215 123.944 121.349V122.587H126.121V124.208H123.953V131.707H121.83V124.208H120.229V122.587H121.83V121.108C121.83 120.146 122.154 119.389 122.8 118.837C123.447 118.279 124.255 118 125.224 118C125.749 118 126.164 118.056 126.469 118.169V119.888Z" fill="#1F2328"/>
<path d="M132.928 119.888C132.641 119.728 132.315 119.648 131.949 119.648C130.918 119.648 130.403 120.215 130.403 121.349V122.587H132.58V124.208H130.412V131.707H128.289V124.208H126.688V122.587H128.289V121.108C128.289 120.146 128.613 119.389 129.259 118.837C129.906 118.279 130.714 118 131.683 118C132.208 118 132.623 118.056 132.928 118.169V119.888Z" fill="#1F2328"/>
<path d="M135.16 120.672C134.812 120.672 134.513 120.562 134.263 120.342C134.019 120.123 133.897 119.844 133.897 119.505C133.897 119.167 134.019 118.885 134.263 118.659C134.513 118.433 134.812 118.321 135.16 118.321C135.52 118.321 135.825 118.433 136.075 118.659C136.325 118.885 136.45 119.167 136.45 119.505C136.45 119.826 136.325 120.102 136.075 120.333C135.825 120.559 135.52 120.672 135.16 120.672ZM136.212 131.707H134.09V122.587H136.212V131.707Z" fill="#1F2328"/>
<path d="M145.699 131.288C144.949 131.71 144.062 131.921 143.037 131.921C141.646 131.921 140.524 131.499 139.67 130.656C138.816 129.807 138.389 128.709 138.389 127.361C138.389 125.858 138.847 124.653 139.762 123.745C140.683 122.83 141.912 122.373 143.449 122.373C144.302 122.373 145.056 122.519 145.708 122.81V124.733C145.056 124.258 144.36 124.021 143.622 124.021C142.726 124.021 141.991 124.318 141.418 124.911C140.844 125.499 140.558 126.271 140.558 127.227C140.558 128.171 140.826 128.916 141.363 129.463C141.906 130.009 142.631 130.282 143.54 130.282C144.302 130.282 145.022 130.018 145.699 129.489V131.288Z" fill="#1F2328"/>
<path d="M155.744 127.708H149.359C149.383 128.551 149.648 129.201 150.155 129.659C150.667 130.116 151.368 130.344 152.259 130.344C153.259 130.344 154.177 130.053 155.012 129.472V131.137C154.159 131.66 153.03 131.921 151.627 131.921C150.249 131.921 149.166 131.508 148.38 130.683C147.599 129.852 147.209 128.685 147.209 127.183C147.209 125.763 147.639 124.609 148.499 123.718C149.365 122.821 150.438 122.373 151.719 122.373C153 122.373 153.991 122.774 154.692 123.575C155.394 124.377 155.744 125.49 155.744 126.915V127.708ZM153.695 126.247C153.689 125.505 153.509 124.929 153.155 124.52C152.802 124.104 152.314 123.896 151.692 123.896C151.082 123.896 150.563 124.113 150.136 124.546C149.715 124.98 149.456 125.547 149.359 126.247H153.695Z" fill="#1F2328"/>
<path d="M162.697 127.485H157.702V125.962H162.697V127.485Z" fill="#1F2328"/>
<path d="M172.011 131.288C171.26 131.71 170.373 131.921 169.348 131.921C167.958 131.921 166.836 131.499 165.982 130.656C165.128 129.807 164.701 128.709 164.701 127.361C164.701 125.858 165.158 124.653 166.073 123.745C166.994 122.83 168.223 122.373 169.76 122.373C170.614 122.373 171.367 122.519 172.02 122.81V124.733C171.367 124.258 170.672 124.021 169.934 124.021C169.037 124.021 168.302 124.318 167.729 124.911C167.156 125.499 166.869 126.271 166.869 127.227C166.869 128.171 167.137 128.916 167.674 129.463C168.217 130.009 168.943 130.282 169.852 130.282C170.614 130.282 171.334 130.018 172.011 129.489V131.288Z" fill="#1F2328"/>
<path d="M182.449 131.707H180.327V126.719C180.327 124.914 179.708 124.012 178.47 124.012C177.848 124.012 177.323 124.273 176.896 124.796C176.469 125.318 176.256 125.986 176.256 126.8V131.707H174.124V118.205H176.256V124.101H176.292C177 122.949 178.012 122.373 179.33 122.373C181.409 122.373 182.449 123.611 182.449 126.087V131.707Z" fill="#1F2328"/>
<path d="M192.22 131.707H190.162V130.282H190.125C189.479 131.375 188.53 131.921 187.28 131.921C186.359 131.921 185.636 131.677 185.112 131.19C184.593 130.704 184.334 130.059 184.334 129.258C184.334 127.536 185.352 126.532 187.39 126.247L190.171 125.864C190.171 124.564 189.536 123.914 188.268 123.914C187.152 123.914 186.145 124.288 185.249 125.036V123.228C186.237 122.658 187.377 122.373 188.67 122.373C191.037 122.373 192.22 123.507 192.22 125.775V131.707ZM190.171 127.227L188.204 127.494C187.594 127.571 187.133 127.717 186.822 127.931C186.517 128.139 186.365 128.507 186.365 129.035C186.365 129.421 186.505 129.739 186.786 129.988C187.072 130.232 187.454 130.353 187.929 130.353C188.576 130.353 189.11 130.134 189.53 129.694C189.957 129.249 190.171 128.691 190.171 128.02V127.227Z" fill="#1F2328"/>
<path d="M208.825 131.707H206.702V126.737C206.702 125.781 206.562 125.09 206.282 124.662C206.007 124.235 205.54 124.021 204.882 124.021C204.327 124.021 203.854 124.291 203.464 124.831C203.079 125.372 202.887 126.019 202.887 126.773V131.707H200.756V126.568C200.756 124.87 200.14 124.021 198.908 124.021C198.334 124.021 197.862 124.276 197.49 124.787C197.124 125.297 196.941 125.959 196.941 126.773V131.707H194.818V122.587H196.941V124.03H196.977C197.654 122.925 198.639 122.373 199.932 122.373C200.579 122.373 201.143 122.548 201.625 122.899C202.113 123.243 202.445 123.697 202.622 124.261C203.317 123.002 204.354 122.373 205.733 122.373C207.794 122.373 208.825 123.611 208.825 126.087V131.707Z" fill="#1F2328"/>
<path d="M212.484 120.672C212.137 120.672 211.838 120.562 211.588 120.342C211.344 120.123 211.222 119.844 211.222 119.505C211.222 119.167 211.344 118.885 211.588 118.659C211.838 118.433 212.137 118.321 212.484 118.321C212.844 118.321 213.149 118.433 213.399 118.659C213.649 118.885 213.774 119.167 213.774 119.505C213.774 119.826 213.649 120.102 213.399 120.333C213.149 120.559 212.844 120.672 212.484 120.672ZM213.536 131.707H211.414V122.587H213.536V131.707Z" fill="#1F2328"/>
<path d="M218.449 131.707H216.318V118.205H218.449V131.707Z" fill="#1F2328"/>
<path d="M225.375 131.921C223.929 131.921 222.773 131.496 221.907 130.647C221.047 129.792 220.617 128.661 220.617 127.254C220.617 125.722 221.066 124.525 221.962 123.665C222.865 122.804 224.079 122.373 225.603 122.373C227.067 122.373 228.208 122.792 229.025 123.629C229.842 124.466 230.251 125.627 230.251 127.111C230.251 128.566 229.809 129.733 228.924 130.612C228.046 131.484 226.863 131.921 225.375 131.921ZM225.475 124.021C224.646 124.021 223.99 124.303 223.508 124.867C223.027 125.431 222.786 126.209 222.786 127.2C222.786 128.156 223.03 128.91 223.518 129.463C224.006 130.009 224.658 130.282 225.475 130.282C226.311 130.282 226.951 130.012 227.397 129.472C227.848 128.931 228.074 128.162 228.074 127.165C228.074 126.161 227.848 125.386 227.397 124.84C226.951 124.294 226.311 124.021 225.475 124.021Z" fill="#1F2328"/>
<rect x="242.751" y="120.5" width="31" height="13" rx="6.5" stroke="#D0D7DE"/>
<rect opacity="0.2" x="248.251" y="126" width="20" height="2" rx="1" fill="#636C76"/>
<path d="M194 248.5H194.561L194.497 247.943L190.831 215.943L190.78 215.5H190.334H122.4H121.964L121.905 215.932L117.505 247.932L117.427 248.5H118H194Z" fill="#CCCCCC" stroke="#333333"/>
<path d="M6.5 208.442V188.5H307.5V208.442C307.5 212.382 304.396 215.5 300.495 215.5H13.5054C9.59909 215.5 6.5 212.383 6.5 208.442Z" fill="#E2E2E2" stroke="#333333"/>
<path d="M107.333 251.5L117.106 248.5H194.894L204.667 251.5H107.333Z" fill="#E2E2E2" stroke="#333333"/>
<path d="M207.281 252.5L206.909 253.5H104.986L104.677 252.5H207.281Z" fill="#AAAAAA" stroke="#333333"/>
<path d="M162.5 201.497C162.5 204.26 160.259 206.5 157.5 206.5C154.741 206.5 152.5 204.26 152.5 201.497C152.5 198.74 154.74 196.5 157.5 196.5C160.26 196.5 162.5 198.735 162.5 201.497Z" fill="#AAAAAA" stroke="#333333"/>
<path d="M372.5 253C414.197 253 448 250.761 448 248C448 245.239 414.197 243 372.5 243C330.803 243 297 245.239 297 248C297 250.761 330.803 253 372.5 253Z" fill="#EFEFEF"/>
<path fill-rule="evenodd" clip-rule="evenodd" d="M388.649 23.6391C388.687 21.8245 388.62 20.3076 388.471 19.0451C388.284 17.5042 387.962 16.3185 387.539 15.4208C387.227 14.7584 386.756 14.1199 386.185 13.6063C385.642 13.1118 384.998 12.7182 384.306 12.507C383.442 12.2429 382.601 12.2958 381.785 12.5454C381.021 12.7758 380.291 13.179 379.575 13.6495C379.22 13.8799 378.912 14.1007 378.619 14.3119C377.404 15.1808 376.433 15.8768 374.69 15.4064C374.57 15.3728 374.454 15.3152 374.358 15.2336C374.219 15.1136 374.109 14.9504 374.051 14.7584C373.989 14.5519 373.984 14.3119 374.056 14.0431C374.128 13.7647 374.291 13.4622 374.555 13.1502L374.589 13.1022C374.685 12.9678 374.805 12.8334 374.944 12.699C376.116 11.5565 378.456 10.6732 381.117 10.4908C383.797 10.3084 386.775 10.8604 389.177 12.5982C389.638 12.9294 390.075 13.3038 390.488 13.7311C391.464 14.7344 392.213 16.1313 392.602 18.0322C392.938 19.6788 393.005 21.6997 392.717 24.1671C392.583 23.9223 392.419 23.7063 392.227 23.5239C391.857 23.1782 391.387 22.967 390.83 22.9382C390.21 22.9046 389.475 23.111 388.649 23.6391Z" fill="#666666" stroke="#666666" stroke-width="0.216" stroke-miterlimit="22.9256"/>
<path d="M377.14 45.8586L376.39 45.8543L376.39 45.8004L376.398 45.747L377.099 41.0864L377.24 40.1536L378.117 40.5006C378.22 40.5416 378.331 40.5797 378.463 40.6245L378.469 40.6266C378.469 40.6266 378.471 40.627 378.473 40.6277C378.504 40.636 378.702 40.6896 379.048 40.7262C379.424 40.766 379.957 40.7835 380.608 40.7048C381.905 40.5482 383.692 40.0078 385.664 38.4646L385.665 38.4641C386.274 37.9881 386.909 37.4113 387.557 36.7135L388.759 35.4203L388.856 37.1832L389.327 45.803L389.353 46.2755L388.937 46.5022C388.717 46.6226 388.488 46.7426 388.249 46.8539C388.248 46.8543 388.248 46.8546 388.247 46.8549L387.93 46.1751C385.944 47.115 383.686 47.6166 381.673 47.5728L377.14 45.8586ZM377.14 45.8586C376.39 45.8543 376.39 45.8547 376.39 45.8551L376.39 45.856L376.39 45.8576L376.39 45.8609L376.39 45.8676L376.39 45.8818C376.39 45.8916 376.391 45.9021 376.392 45.9133C376.393 45.9353 376.396 45.9613 376.401 45.9904C376.411 46.0452 376.432 46.1282 376.481 46.2192C376.511 46.2742 376.552 46.3334 376.608 46.3891C377.76 47.7268 379.672 48.282 381.657 48.3226L377.14 45.8586Z" fill="#FEFEFE" stroke="#333333" stroke-width="1.5"/>
<path fill-rule="evenodd" clip-rule="evenodd" d="M372.947 14.3839C372.082 15.3536 371.376 16.5969 370.843 18.0226C369.685 21.1333 369.344 25.1368 369.978 28.9627C370.617 32.8222 372.25 36.5281 375.022 39.0051C376.098 39.9652 377.347 40.7429 378.773 41.2757C378.984 41.3573 382.131 42.2406 385.868 39.0291C387.712 37.4402 389.744 34.8336 391.68 30.5949L390.354 29.99C388.519 34.0127 386.627 36.4561 384.922 37.9203C381.795 40.6085 379.436 39.9652 379.282 39.9076C378.033 39.4468 376.943 38.7651 376.002 37.9203C373.494 35.6785 372.015 32.2846 371.424 28.7275C370.828 25.1416 371.14 21.4069 372.212 18.5315C372.682 17.2737 373.292 16.1841 374.037 15.3536L372.947 14.3839Z" fill="#333333"/>
<path fill-rule="evenodd" clip-rule="evenodd" d="M388.616 24.6759C388.707 22.3909 388.649 20.538 388.467 19.045C388.279 17.5041 387.958 16.3184 387.535 15.4207C387.223 14.7583 386.752 14.1198 386.18 13.6062C385.637 13.1118 384.994 12.7181 384.302 12.5069C383.437 12.2429 382.597 12.2957 381.78 12.5453C381.016 12.7757 380.286 13.179 379.571 13.6494C379.215 13.8798 378.908 14.1006 378.615 14.3119C377.399 15.1807 376.429 15.8768 374.686 15.4063C374.565 15.3727 374.45 15.3151 374.354 15.2335C374.215 15.1135 374.104 14.9503 374.047 14.7583C373.984 14.5519 373.979 14.3119 374.051 14.043C374.124 13.7646 374.287 13.4622 374.551 13.1502L374.585 13.1022C374.681 12.9677 374.801 12.8333 374.94 12.6989C376.112 11.5564 378.451 10.6732 381.113 10.4907C383.793 10.3083 386.771 10.8604 389.173 12.5981C389.634 12.9293 390.071 13.3038 390.484 13.731C391.459 14.7343 392.209 16.1312 392.598 18.0322C392.958 19.8035 393.006 22.0021 392.646 24.7239L392.593 25.1367C392.41 26.5625 392.295 27.4505 391.416 28.6698C391.291 28.8427 391.147 29.0299 390.979 29.2315C390.835 29.4091 390.667 29.6011 390.475 29.8027L390.643 30.4076L391.541 30.7964C391.728 30.5948 391.916 30.3836 392.098 30.158C392.266 29.9563 392.43 29.7451 392.593 29.5195C393.683 28.0026 393.818 26.9753 394.034 25.324L394.087 24.9111C394.471 22.0213 394.413 19.6595 394.019 17.7393C393.573 15.5408 392.684 13.9038 391.522 12.7133C391.051 12.2285 390.547 11.8013 390.018 11.4172C387.309 9.45386 383.985 8.83461 381.002 9.03622C378 9.23784 375.31 10.2891 373.907 11.6524C373.725 11.8301 373.562 12.0173 373.417 12.2093C373.004 12.6941 372.75 13.1886 372.625 13.6638C372.481 14.2062 372.5 14.7247 372.639 15.1807C372.783 15.6512 373.052 16.0496 373.398 16.3424C373.662 16.5632 373.97 16.7265 374.296 16.8177C376.708 17.4657 377.923 16.592 379.455 15.4976C379.748 15.2911 380.051 15.0703 380.358 14.8687C380.968 14.4655 381.583 14.1246 382.193 13.9374C382.751 13.7694 383.308 13.731 383.865 13.899C384.336 14.043 384.787 14.3215 385.181 14.6815C385.609 15.0703 385.964 15.5504 386.199 16.04C386.56 16.7985 386.833 17.8353 387.002 19.2131C387.16 20.5332 387.223 22.1461 387.16 24.1095L387.53 24.6279L388.616 24.6759Z" fill="#333333"/>
<path fill-rule="evenodd" clip-rule="evenodd" d="M388.293 25.1272C389.316 24.2247 390.152 23.8743 390.786 23.9031C391.103 23.9175 391.362 24.0375 391.569 24.2247C391.79 24.4311 391.948 24.724 392.044 25.0744C392.299 25.9865 392.107 27.2394 391.386 28.3675C391.204 28.6555 390.896 28.9771 390.522 29.2363C390.339 29.3611 390.142 29.4667 389.94 29.5436C389.177 29.8268 389.556 30.6668 390.017 30.542C390.397 30.4364 390.757 30.2588 391.074 30.0428C391.559 29.7116 391.963 29.2795 392.208 28.8955C393.082 27.5274 393.303 25.9769 392.986 24.82C392.842 24.2967 392.587 23.8455 392.232 23.5191C391.862 23.1734 391.391 22.9622 390.834 22.9334C389.955 22.8902 388.85 23.3222 387.582 24.4551C387.13 24.8632 387.678 25.6696 388.293 25.1272Z" fill="#333333"/>
<path fill-rule="evenodd" clip-rule="evenodd" d="M390.046 25.6072C390.19 25.5784 390.315 25.5784 390.421 25.6024C390.541 25.6312 390.637 25.6984 390.695 25.7896C390.762 25.9 390.8 26.0488 390.8 26.2216C390.8 26.5817 390.651 27.0425 390.344 27.5177C390.238 27.681 390.065 27.8682 389.849 28.0122C389.768 28.0698 389.676 28.1226 389.58 28.161C389.066 28.3818 389.234 28.7994 389.648 28.6554C389.816 28.5978 389.979 28.5114 390.123 28.4154C390.392 28.233 390.618 27.993 390.752 27.7818C391.108 27.2249 391.285 26.6729 391.285 26.2216C391.285 25.9528 391.223 25.7128 391.103 25.5256C390.973 25.324 390.781 25.1848 390.527 25.1271C390.378 25.0935 390.205 25.0887 390.008 25.1175C389.369 25.2232 389.441 25.7272 390.046 25.6072Z" fill="#333333"/>
<path fill-rule="evenodd" clip-rule="evenodd" d="M388.737 47.3997C388.396 49.2334 387.748 51.8017 386.6 52.4305C385.822 52.8625 384.63 52.1761 382.81 49.1614C384.635 49.0702 386.585 48.5326 388.32 47.6253C388.459 47.5533 388.598 47.4765 388.737 47.3997ZM380.192 48.955C379.318 50.0015 378.535 50.712 377.853 51.1776C376.839 51.8641 376.143 51.9697 375.754 51.8353C375.422 51.7152 375.254 51.1536 375.192 50.4479C375.076 49.2046 375.312 47.6541 375.499 46.79C375.859 46.742 376.234 46.694 376.613 46.6556L376.806 46.9244C377.613 47.9757 378.804 48.6382 380.192 48.955Z" fill="#CCCCCC"/>
<path fill-rule="evenodd" clip-rule="evenodd" d="M379.277 28.9867C376.89 29.9324 376.049 28.8235 376.083 27.7914C376.121 26.3993 377.428 26.6777 377.164 24.4215C378.297 26.0104 375.742 27.7722 377.269 28.6026C377.596 28.7803 378.115 28.9627 379.277 28.9867Z" fill="#333333"/>
<path fill-rule="evenodd" clip-rule="evenodd" d="M378 32.3422C380.791 34.5936 381.804 30.5996 382.294 29.9852C382.155 34.944 378.351 34.5984 378 32.3422Z" fill="#333333"/>
<path fill-rule="evenodd" clip-rule="evenodd" d="M380.181 23.6006C381.665 20.0915 385.604 22.0933 385.618 23.9703C385.431 23.7639 384.605 23.2694 384.134 23.2118C383.971 25.3 381.473 25.7368 380.8 23.5094C380.536 23.495 380.378 23.4806 380.181 23.6006Z" fill="#333333"/>
<path fill-rule="evenodd" clip-rule="evenodd" d="M371.688 23.4518C373.037 19.8899 377.053 21.7429 377.139 23.6198C376.943 23.423 376.102 22.9574 375.626 22.919C375.545 25.012 373.061 25.54 372.307 23.3414C372.038 23.3318 371.88 23.327 371.688 23.4518Z" fill="#333333"/>
<mask id="path-45-outside-2_9083_121562" maskUnits="userSpaceOnUse" x="331.605" y="43.7385" width="87" height="69" fill="black">
<rect fill="white" x="331.605" y="43.7385" width="87" height="69"/>
<path fill-rule="evenodd" clip-rule="evenodd" d="M405.975 55.9025C409.84 60.3339 419.355 82.4182 416.019 94.7617C413.622 99.4669 392.892 88.3451 389.735 86.9111C390.753 86.155 391.252 85.4028 391.497 84.2296C395.546 85.469 403.213 86.9609 407.152 87.1434C408.783 87.2182 407.805 85.7484 406.695 85.6505C405.561 84.2451 401.074 76.2774 399.97 73.2751C400.018 70.9853 400.134 68.6667 400.311 66.3145C400.398 65.1864 398.947 64.9512 398.856 66.1801C398.616 69.3388 398.491 72.4686 398.486 75.5841C398.481 78.5939 398.592 81.5606 398.808 84.4936C398.808 84.4936 390.094 82.2985 388.336 81.7752C384.575 80.6556 382.83 76.8018 382.83 76.8018C382.83 76.8018 381.407 51.2761 381.407 50.1064C381.407 50.1064 383.555 53.4329 387.286 53.1917C389.767 52.504 389.807 48.6923 390.119 46.7385C395.777 48.9247 401.917 51.2499 405.975 55.9025ZM373.806 46.7385C371.596 47.1321 369.79 47.6746 368.282 48.289C366.135 49.1675 364.588 50.2044 363.339 51.2029C362.465 51.8989 359.905 54.928 357.171 58.1587C353.838 62.0998 350.25 66.3433 348.905 67.2794L348.391 67.6394L347.958 67.1834C343.976 62.983 341.541 56.8049 339.456 51.5101C338.942 50.2092 338.452 48.9563 337.986 47.8618C337.261 47.9098 336.286 48.0586 335.349 48.2746C334.696 48.4282 334.071 48.6107 333.605 48.8123C336.713 61.2549 339.653 67.9514 341.925 71.5565C344.101 75.0128 345.484 75.4641 345.816 75.5265C348.784 76.0977 352.536 74.7488 356.134 72.5454C360.265 70.0108 364.146 66.3721 366.437 63.1751C367.302 61.9702 368.508 62.7814 367.691 63.9287C366.855 65.1 365.818 66.3337 364.636 67.553L364.588 68.4651L364.54 69.5836C364.391 74.0143 364.425 82.9767 364.891 91.4446C365.208 97.2051 365.717 102.73 366.495 106.412C371.596 109.292 377.36 110.565 383.062 110.809C390.238 111.117 397.333 109.806 402.939 108.04C402.276 105.62 401.69 103.23 401.176 100.853C400.638 98.362 400.182 95.8706 399.807 93.384C396.593 92.1071 392.413 89.5831 389.103 87.9698C385.793 86.3564 375.518 82.6676 374.135 76.8018L378.915 49.4962L373.806 46.7385Z"/>
</mask>
<path fill-rule="evenodd" clip-rule="evenodd" d="M405.975 55.9025C409.84 60.3339 419.355 82.4182 416.019 94.7617C413.622 99.4669 392.892 88.3451 389.735 86.9111C390.753 86.155 391.252 85.4028 391.497 84.2296C395.546 85.469 403.213 86.9609 407.152 87.1434C408.783 87.2182 407.805 85.7484 406.695 85.6505C405.561 84.2451 401.074 76.2774 399.97 73.2751C400.018 70.9853 400.134 68.6667 400.311 66.3145C400.398 65.1864 398.947 64.9512 398.856 66.1801C398.616 69.3388 398.491 72.4686 398.486 75.5841C398.481 78.5939 398.592 81.5606 398.808 84.4936C398.808 84.4936 390.094 82.2985 388.336 81.7752C384.575 80.6556 382.83 76.8018 382.83 76.8018C382.83 76.8018 381.407 51.2761 381.407 50.1064C381.407 50.1064 383.555 53.4329 387.286 53.1917C389.767 52.504 389.807 48.6923 390.119 46.7385C395.777 48.9247 401.917 51.2499 405.975 55.9025ZM373.806 46.7385C371.596 47.1321 369.79 47.6746 368.282 48.289C366.135 49.1675 364.588 50.2044 363.339 51.2029C362.465 51.8989 359.905 54.928 357.171 58.1587C353.838 62.0998 350.25 66.3433 348.905 67.2794L348.391 67.6394L347.958 67.1834C343.976 62.983 341.541 56.8049 339.456 51.5101C338.942 50.2092 338.452 48.9563 337.986 47.8618C337.261 47.9098 336.286 48.0586 335.349 48.2746C334.696 48.4282 334.071 48.6107 333.605 48.8123C336.713 61.2549 339.653 67.9514 341.925 71.5565C344.101 75.0128 345.484 75.4641 345.816 75.5265C348.784 76.0977 352.536 74.7488 356.134 72.5454C360.265 70.0108 364.146 66.3721 366.437 63.1751C367.302 61.9702 368.508 62.7814 367.691 63.9287C366.855 65.1 365.818 66.3337 364.636 67.553L364.588 68.4651L364.54 69.5836C364.391 74.0143 364.425 82.9767 364.891 91.4446C365.208 97.2051 365.717 102.73 366.495 106.412C371.596 109.292 377.36 110.565 383.062 110.809C390.238 111.117 397.333 109.806 402.939 108.04C402.276 105.62 401.69 103.23 401.176 100.853C400.638 98.362 400.182 95.8706 399.807 93.384C396.593 92.1071 392.413 89.5831 389.103 87.9698C385.793 86.3564 375.518 82.6676 374.135 76.8018L378.915 49.4962L373.806 46.7385Z" fill="#EFEFEF"/>
<path d="M405.975 55.9025L407.105 54.9165L405.975 55.9025ZM416.019 94.7617L417.355 95.4425L417.426 95.3036L417.467 95.1531L416.019 94.7617ZM389.735 86.9111L388.841 85.7073L386.799 87.2248L389.115 88.2768L389.735 86.9111ZM391.497 84.2296L391.936 82.7953L390.364 82.3141L390.029 83.9233L391.497 84.2296ZM407.152 87.1434L407.082 88.6418L407.083 88.6419L407.152 87.1434ZM406.695 85.6505L405.528 86.5927L405.928 87.0887L406.563 87.1447L406.695 85.6505ZM399.97 73.2751L398.471 73.2436L398.465 73.5267L398.562 73.7924L399.97 73.2751ZM400.311 66.3145L398.816 66.1999L398.816 66.2015L400.311 66.3145ZM398.856 66.1801L400.352 66.2938L400.352 66.2912L398.856 66.1801ZM398.486 75.5841L399.986 75.5865V75.5864L398.486 75.5841ZM398.808 84.4936L398.441 85.9482L400.457 86.4558L400.304 84.3834L398.808 84.4936ZM388.336 81.7752L388.764 80.3375L388.336 81.7752ZM382.83 76.8018L381.333 76.8853L381.348 77.165L381.464 77.4203L382.83 76.8018ZM381.407 50.1064L382.667 49.2926C382.306 48.734 381.62 48.4796 380.982 48.6676C380.345 48.8557 379.907 49.4414 379.907 50.1064H381.407ZM387.286 53.1917L387.383 54.6885L387.537 54.6785L387.686 54.6372L387.286 53.1917ZM390.119 46.7385L390.66 45.3393L388.93 44.6712L388.638 46.5018L390.119 46.7385ZM373.806 46.7385L374.518 45.4185L374.058 45.17L373.543 45.2618L373.806 46.7385ZM368.282 48.289L367.716 46.8999L367.714 46.9007L368.282 48.289ZM363.339 51.2029L364.273 52.3764L364.276 52.3745L363.339 51.2029ZM357.171 58.1587L356.026 57.1898L356.026 57.1899L357.171 58.1587ZM348.905 67.2794L348.048 66.0482L348.044 66.0508L348.905 67.2794ZM348.391 67.6394L347.302 68.6714L348.192 69.6101L349.251 68.868L348.391 67.6394ZM347.958 67.1834L349.047 66.1514L349.047 66.1514L347.958 67.1834ZM339.456 51.5101L340.852 50.9606L340.851 50.9589L339.456 51.5101ZM337.986 47.8618L339.366 47.2743L338.949 46.2948L337.887 46.3651L337.986 47.8618ZM335.349 48.2746L335.012 46.813L335.006 46.8145L335.349 48.2746ZM333.605 48.8123L333.01 47.4356L331.842 47.941L332.15 49.1758L333.605 48.8123ZM341.925 71.5565L343.194 70.7574L343.194 70.7568L341.925 71.5565ZM345.816 75.5265L346.099 74.0535L346.093 74.0524L345.816 75.5265ZM356.134 72.5454L356.917 73.8246L356.918 73.824L356.134 72.5454ZM366.437 63.1751L365.219 62.3005L365.218 62.3013L366.437 63.1751ZM367.691 63.9287L368.912 64.8L368.913 64.7985L367.691 63.9287ZM364.636 67.553L363.559 66.5091L363.168 66.9128L363.138 67.4741L364.636 67.553ZM364.588 68.4651L363.09 68.3862L363.09 68.3935L363.089 68.4007L364.588 68.4651ZM364.54 69.5836L363.041 69.5192L363.041 69.5332L364.54 69.5836ZM364.891 91.4446L363.393 91.527V91.527L364.891 91.4446ZM366.495 106.412L365.027 106.722L365.167 107.385L365.757 107.718L366.495 106.412ZM383.062 110.809L382.998 112.308L382.998 112.308L383.062 110.809ZM402.939 108.04L403.39 109.47L404.767 109.036L404.386 107.643L402.939 108.04ZM401.176 100.853L399.71 101.17L399.71 101.17L401.176 100.853ZM399.807 93.384L401.29 93.1605L401.162 92.3082L400.361 91.99L399.807 93.384ZM378.915 49.4962L380.393 49.7549L380.579 48.6898L379.628 48.1762L378.915 49.4962ZM374.135 76.8018L372.658 76.5432L372.605 76.8463L372.675 77.1458L374.135 76.8018ZM401.47 73.3065C401.517 71.0458 401.631 68.7545 401.807 66.4275L398.816 66.2015C398.636 68.5789 398.519 70.9248 398.471 73.2436L401.47 73.3065ZM401.807 66.4291C401.906 65.1354 401.061 64.0308 399.84 63.8754C399.251 63.8006 398.621 63.9666 398.129 64.4106C397.636 64.8553 397.405 65.4639 397.36 66.069L400.352 66.2912C400.352 66.2818 400.337 66.459 400.139 66.6375C399.942 66.8152 399.686 66.88 399.461 66.8514C399.244 66.8238 399.064 66.7131 398.948 66.5642C398.823 66.4035 398.812 66.2523 398.816 66.1999L401.807 66.4291ZM397.36 66.0664C397.117 69.2606 396.991 72.4277 396.986 75.5818L399.986 75.5864C399.991 72.5096 400.114 69.4169 400.352 66.2938L397.36 66.0664ZM396.986 75.5817C396.981 78.6299 397.093 81.6341 397.312 84.6039L400.304 84.3834C400.09 81.487 399.981 78.5579 399.986 75.5865L396.986 75.5817ZM398.808 84.4936C399.174 83.0391 399.174 83.0391 399.174 83.039C399.174 83.039 399.174 83.039 399.174 83.039C399.174 83.0389 399.173 83.0388 399.173 83.0387C399.172 83.0384 399.17 83.038 399.168 83.0375C399.164 83.0365 399.158 83.0349 399.149 83.0328C399.133 83.0287 399.108 83.0225 399.076 83.0144C399.012 82.9982 398.918 82.9744 398.797 82.9439C398.556 82.883 398.209 82.7953 397.787 82.6884C396.944 82.4746 395.801 82.1842 394.604 81.8775C392.19 81.2593 389.608 80.5887 388.764 80.3375L387.908 83.2129C388.823 83.485 391.477 84.1736 393.859 84.7837C395.06 85.0912 396.205 85.3823 397.05 85.5965C397.473 85.7036 397.821 85.7915 398.063 85.8526C398.184 85.8832 398.278 85.907 398.343 85.9233C398.375 85.9314 398.4 85.9376 398.416 85.9418C398.424 85.9439 398.431 85.9455 398.435 85.9466C398.437 85.9471 398.439 85.9475 398.44 85.9478C398.44 85.9479 398.441 85.948 398.441 85.9481C398.441 85.9481 398.441 85.9481 398.441 85.9481C398.441 85.9482 398.441 85.9482 398.808 84.4936ZM381.407 50.1064C380.147 50.9202 380.147 50.9207 380.147 50.9213C380.147 50.9215 380.148 50.922 380.148 50.9224C380.149 50.9232 380.149 50.924 380.15 50.9249C380.151 50.9267 380.152 50.9286 380.154 50.9308C380.156 50.9352 380.16 50.9403 380.164 50.9463C380.172 50.9582 380.182 50.9733 380.194 50.9913C380.219 51.0273 380.252 51.0752 380.295 51.1331C380.379 51.2488 380.499 51.4056 380.654 51.5892C380.962 51.9543 381.416 52.4363 382.011 52.9115C383.196 53.8583 385.024 54.841 387.383 54.6885L387.189 51.6948C385.816 51.7836 384.705 51.2237 383.883 50.5675C383.475 50.2413 383.159 49.9067 382.948 49.6556C382.843 49.5311 382.766 49.43 382.718 49.3647C382.694 49.3321 382.678 49.3087 382.669 49.2961C382.665 49.2898 382.663 49.2862 382.662 49.2856C382.662 49.2853 382.662 49.2857 382.663 49.2868C382.663 49.2874 382.664 49.2882 382.665 49.2891C382.665 49.2896 382.665 49.2902 382.666 49.2907C382.666 49.291 382.666 49.2915 382.666 49.2916C382.666 49.2921 382.667 49.2926 381.407 50.1064ZM387.686 54.6372C389.722 54.0731 390.565 52.2559 390.96 50.8442C391.347 49.4612 391.48 47.7302 391.6 46.9752L388.638 46.5018C388.446 47.7006 388.402 48.8524 388.071 50.0356C387.748 51.19 387.331 51.6225 386.885 51.7461L387.686 54.6372ZM373.543 45.2618C371.236 45.6726 369.328 46.2431 367.716 46.8999L368.848 49.6782C370.252 49.1061 371.956 48.5916 374.069 48.2153L373.543 45.2618ZM367.714 46.9007C365.407 47.8447 363.737 48.9639 362.402 50.0313L364.276 52.3745C365.438 51.4449 366.863 50.4904 368.85 49.6773L367.714 46.9007ZM362.405 50.0294C361.837 50.4812 360.879 51.535 359.823 52.7431C358.722 54.0024 357.39 55.5778 356.026 57.1898L358.316 59.1275C359.686 57.5088 361 55.9544 362.082 54.7175C363.208 53.4293 363.967 52.6206 364.273 52.3764L362.405 50.0294ZM356.026 57.1899C354.356 59.1645 352.638 61.1959 351.17 62.8505C350.436 63.6779 349.775 64.399 349.222 64.9652C348.646 65.5545 348.256 65.9031 348.048 66.0482L349.761 68.5106C350.225 68.1876 350.788 67.6548 351.368 67.062C351.97 66.4461 352.666 65.6845 353.414 64.8413C354.91 63.1548 356.653 61.0939 358.317 59.1274L356.026 57.1899ZM348.044 66.0508L347.53 66.4109L349.251 68.868L349.765 68.508L348.044 66.0508ZM349.479 66.6075L349.047 66.1514L346.87 68.2153L347.302 68.6714L349.479 66.6075ZM349.047 66.1514C345.303 62.2022 342.963 56.3225 340.852 50.9606L338.06 52.0596C340.119 57.2874 342.649 63.7638 346.87 68.2154L349.047 66.1514ZM340.851 50.9589C340.341 49.6683 339.842 48.3917 339.366 47.2743L336.606 48.4493C337.062 49.5209 337.543 50.7501 338.061 52.0613L340.851 50.9589ZM337.887 46.3651C337.067 46.4194 336.011 46.5827 335.012 46.813L335.686 49.7363C336.561 49.5346 337.455 49.4002 338.085 49.3585L337.887 46.3651ZM335.006 46.8145C334.321 46.9756 333.596 47.1819 333.01 47.4356L334.201 50.1889C334.547 50.0394 335.071 49.8809 335.692 49.7348L335.006 46.8145ZM332.15 49.1758C335.276 61.6886 338.263 68.5589 340.656 72.3563L343.194 70.7568C341.043 67.344 338.151 60.8212 335.061 48.4488L332.15 49.1758ZM340.656 72.3557C342.924 75.9594 344.607 76.8252 345.538 77.0006L346.093 74.0524C346.362 74.1029 345.278 74.0663 343.194 70.7574L340.656 72.3557ZM345.532 76.9994C349.08 77.6821 353.251 76.0701 356.917 73.8246L355.35 71.2663C351.821 73.4275 348.489 74.5134 346.099 74.0535L345.532 76.9994ZM356.918 73.824C361.206 71.1929 365.24 67.4206 367.656 64.0488L365.218 62.3013C363.052 65.3236 359.323 68.8288 355.349 71.2669L356.918 73.824ZM367.656 64.0496C367.734 63.9405 367.735 63.996 367.596 64.0433C367.451 64.0925 367.173 64.1159 366.889 63.9353C366.597 63.7496 366.475 63.4576 366.463 63.2377C366.452 63.0356 366.53 62.9732 366.469 63.0589L368.913 64.7985C369.26 64.3106 369.493 63.7166 369.459 63.0773C369.424 62.4203 369.099 61.7856 368.5 61.4043C367.227 60.5942 365.88 61.379 365.219 62.3005L367.656 64.0496ZM366.47 63.0574C365.684 64.1593 364.696 65.3357 363.559 66.5091L365.713 68.5969C366.939 67.3317 368.027 66.0408 368.912 64.8L366.47 63.0574ZM363.138 67.4741L363.09 68.3862L366.086 68.544L366.134 67.6319L363.138 67.4741ZM363.089 68.4007L363.041 69.5192L366.038 69.648L366.087 68.5295L363.089 68.4007ZM363.041 69.5332C362.89 74.0117 362.925 83.0185 363.393 91.527L366.388 91.3622C365.925 82.9349 365.892 74.017 366.039 69.634L363.041 69.5332ZM363.393 91.527C363.71 97.2954 364.224 102.919 365.027 106.722L367.962 106.102C367.21 102.541 366.705 97.1147 366.388 91.3622L363.393 91.527ZM365.757 107.718C371.115 110.743 377.125 112.056 382.998 112.308L383.126 109.311C377.596 109.073 372.077 107.842 367.232 105.106L365.757 107.718ZM382.998 112.308C390.385 112.624 397.656 111.277 403.39 109.47L402.488 106.609C397.01 108.335 390.092 109.609 383.126 109.311L382.998 112.308ZM404.386 107.643C403.73 105.249 403.15 102.885 402.642 100.536L399.71 101.17C400.23 103.574 400.822 105.991 401.492 108.436L404.386 107.643ZM402.642 100.537C402.111 98.076 401.66 95.6156 401.29 93.1605L398.324 93.6075C398.703 96.1255 399.165 98.648 399.71 101.17L402.642 100.537ZM400.361 91.99C398.841 91.386 397.06 90.4728 395.197 89.4795C393.367 88.5034 391.448 87.444 389.76 86.6214L388.446 89.3181C390.068 90.1089 391.895 91.1181 393.785 92.1266C395.644 93.1178 397.559 94.105 399.253 94.7779L400.361 91.99ZM388.764 80.3375C387.273 79.8938 386.13 78.8889 385.332 77.9166C384.938 77.4375 384.647 76.9881 384.455 76.6623C384.36 76.5001 384.291 76.3707 384.248 76.2863C384.227 76.2442 384.212 76.2135 384.203 76.1957C384.199 76.1869 384.196 76.1813 384.195 76.1791C384.195 76.1781 384.195 76.1779 384.195 76.1786C384.195 76.1789 384.195 76.1795 384.196 76.1803C384.196 76.1807 384.196 76.1811 384.196 76.1816C384.196 76.1819 384.197 76.1823 384.197 76.1824C384.197 76.1829 384.197 76.1833 382.83 76.8018C381.464 77.4203 381.464 77.4207 381.464 77.4212C381.464 77.4214 381.465 77.4219 381.465 77.4223C381.465 77.4231 381.466 77.4239 381.466 77.4247C381.467 77.4265 381.468 77.4284 381.469 77.4306C381.471 77.435 381.473 77.4404 381.476 77.4466C381.482 77.4591 381.489 77.4753 381.499 77.4949C381.518 77.5342 381.544 77.5874 381.577 77.6528C381.644 77.7836 381.741 77.964 381.868 78.1806C382.121 78.6124 382.501 79.1964 383.014 79.8207C384.028 81.0552 385.638 82.5371 387.908 83.2129L388.764 80.3375ZM382.83 76.8018C384.328 76.7183 384.328 76.7182 384.328 76.718C384.328 76.7178 384.328 76.7175 384.328 76.7171C384.328 76.7163 384.328 76.7152 384.328 76.7136C384.328 76.7105 384.327 76.7059 384.327 76.6998C384.326 76.6875 384.325 76.6692 384.324 76.6451C384.321 76.5967 384.317 76.525 384.312 76.4314C384.302 76.2442 384.286 75.9695 384.267 75.6194C384.228 74.9193 384.172 73.9177 384.106 72.7122C383.972 70.3011 383.794 67.0743 383.616 63.811C383.438 60.5475 383.261 57.2486 383.127 54.6928C383.06 53.4147 383.005 52.3241 382.966 51.5173C382.947 51.1136 382.932 50.7832 382.921 50.5368C382.916 50.4134 382.912 50.3134 382.91 50.237C382.909 50.1988 382.908 50.1683 382.907 50.1447C382.907 50.1329 382.907 50.1238 382.907 50.1169C382.907 50.1135 382.907 50.1109 382.907 50.109C382.907 50.1071 382.907 50.1063 382.907 50.1064H379.907C379.907 50.7455 380.267 57.492 380.621 63.9744C380.799 67.2388 380.977 70.4665 381.11 72.878C381.177 74.0838 381.233 75.0856 381.272 75.786C381.291 76.1361 381.306 76.411 381.317 76.5982C381.322 76.6919 381.326 76.7637 381.329 76.812C381.33 76.8362 381.331 76.8545 381.332 76.8668C381.332 76.8729 381.332 76.8776 381.333 76.8807C381.333 76.8822 381.333 76.8834 381.333 76.8842C381.333 76.8845 381.333 76.8848 381.333 76.885C381.333 76.8852 381.333 76.8853 382.83 76.8018ZM389.578 48.1377C395.323 50.3574 401.076 52.5676 404.844 56.8884L407.105 54.9165C402.758 49.9322 396.231 47.4919 390.66 45.3393L389.578 48.1377ZM404.844 56.8884C405.67 57.8351 406.918 59.8914 408.291 62.7563C409.645 65.5814 411.067 69.0796 412.269 72.8235C414.701 80.3998 416.118 88.6457 414.571 94.3703L417.467 95.1531C419.256 88.5341 417.584 79.5662 415.125 71.9067C413.882 68.0326 412.409 64.4074 410.996 61.4596C409.603 58.5516 408.212 56.1856 407.105 54.9165L404.844 56.8884ZM407.862 84.7084C407.395 84.1292 406.055 81.9141 404.635 79.3376C403.229 76.7871 401.885 74.1377 401.378 72.7577L398.562 73.7924C399.158 75.4148 400.61 78.2504 402.007 80.7857C403.39 83.295 404.861 85.7664 405.528 86.5927L407.862 84.7084ZM407.083 88.6419C407.601 88.6656 408.431 88.6101 409.02 87.9796C409.74 87.2092 409.528 86.2759 409.301 85.8081C409.069 85.328 408.686 84.9514 408.305 84.6933C407.911 84.4271 407.402 84.2071 406.827 84.1563L406.563 87.1447C406.543 87.1429 406.572 87.1432 406.623 87.1779C406.686 87.2206 406.654 87.225 406.601 87.1152C406.572 87.0555 406.51 86.9029 406.517 86.679C406.526 86.4266 406.624 86.1503 406.828 85.9313C407.015 85.7321 407.205 85.6696 407.267 85.6535C407.328 85.6374 407.325 85.6498 407.22 85.645L407.083 88.6419ZM391.058 85.6639C395.196 86.9306 402.99 88.4521 407.082 88.6418L407.221 85.6451C403.436 85.4696 395.895 84.0073 391.936 82.7953L391.058 85.6639ZM390.63 88.1149C391.236 87.6644 391.754 87.166 392.159 86.5517C392.566 85.933 392.813 85.2661 392.965 84.5359L390.029 83.9233C389.936 84.3662 389.811 84.6621 389.653 84.9018C389.492 85.1459 389.252 85.4017 388.841 85.7073L390.63 88.1149ZM414.682 94.0808C414.672 94.1005 414.602 94.2618 414.067 94.3575C413.514 94.4563 412.693 94.4328 411.601 94.2437C409.433 93.8683 406.638 92.9236 403.724 91.7476C397.863 89.3825 392.082 86.3295 390.356 85.5454L389.115 88.2768C390.546 88.9267 396.708 92.1517 402.601 94.5296C405.563 95.7251 408.597 96.7683 411.089 97.1997C412.326 97.4139 413.543 97.4986 414.595 97.3107C415.664 97.1196 416.766 96.5991 417.355 95.4425L414.682 94.0808ZM379.628 48.1762L374.518 45.4185L373.093 48.0585L378.203 50.8162L379.628 48.1762ZM389.76 86.6214C387.935 85.7319 384.758 84.5125 381.657 82.6877C380.137 81.7932 378.735 80.8041 377.646 79.7279C376.554 78.6479 375.854 77.5551 375.595 76.4577L372.675 77.1458C373.108 78.9814 374.21 80.5493 375.537 81.8611C376.868 83.1768 378.5 84.3105 380.135 85.2732C383.346 87.1626 386.961 88.5943 388.446 89.3181L389.76 86.6214ZM375.613 77.0604L380.393 49.7549L377.438 49.2376L372.658 76.5432L375.613 77.0604Z" fill="#333333" mask="url(#path-45-outside-2_9083_121562)"/>
<path fill-rule="evenodd" clip-rule="evenodd" d="M398.856 66.1801C398.616 69.3388 398.491 72.4686 398.486 75.5841C398.482 78.93 398.616 82.2182 398.885 85.4681L400.345 85.3481C400.076 82.0982 399.942 78.8483 399.947 75.5841C399.951 72.5502 400.072 69.4684 400.317 66.3193C400.398 65.1912 398.948 64.9512 398.856 66.1801ZM399.759 93.0431L401.205 92.8319C401.589 95.4049 402.055 97.9779 402.613 100.561C403.17 103.153 403.813 105.745 404.539 108.337L404.726 109.009L404.063 109.225C398.222 111.145 390.671 112.605 383.005 112.278C376.976 112.019 370.881 110.651 365.487 107.526L365.213 107.367L365.141 107.051C364.3 103.282 363.757 97.5219 363.431 91.5262C362.965 83.0247 362.926 74.0143 363.08 69.5452L363.128 68.4027L363.19 67.2026L364.651 67.2938L364.588 68.4699L364.54 69.5884C364.391 74.0191 364.425 82.9815 364.891 91.4494C365.208 97.2099 365.717 102.735 366.495 106.417C371.597 109.297 377.361 110.569 383.062 110.814C390.239 111.121 397.334 109.811 402.939 108.044C402.276 105.625 401.69 103.234 401.176 100.858C400.624 98.2515 400.148 95.6497 399.759 93.0431Z" fill="#333333"/>
<path fill-rule="evenodd" clip-rule="evenodd" d="M412.974 236.57C411.83 237.861 410.38 239.249 408.891 240.67C406.479 242.974 403.972 245.369 402.718 247.419C401.777 248.96 401.604 250.294 402.939 251.173C403.751 251.274 406.652 250.05 410.015 248.35C413.776 246.449 418.012 243.953 420.611 241.98C420.63 241.961 420.683 241.923 420.702 241.913C420.755 241.875 420.842 241.817 420.942 241.731C421.48 241.265 422.331 240.002 419.698 236.945L420.808 235.994C424.305 240.06 422.792 242.062 421.889 242.839C421.759 242.95 421.629 243.041 421.543 243.103L421.476 243.151C418.795 245.182 414.487 247.726 410.673 249.651C406.902 251.557 403.515 252.872 402.449 252.56L402.358 252.536L402.276 252.483C399.903 251.039 400.052 248.984 401.474 246.661C402.829 244.448 405.403 241.985 407.887 239.614C409.357 238.207 410.793 236.839 411.883 235.605L412.974 236.57Z" fill="#333333"/>
<path fill-rule="evenodd" clip-rule="evenodd" d="M372.028 235.615C370.554 236.22 368.757 236.839 366.922 237.468C363.233 238.73 359.386 240.05 357.176 241.663C355.216 243.099 354.457 244.74 355.908 246.713L355.966 246.79L356.043 246.853C356.922 247.558 361.278 247.674 366.192 247.371C370.948 247.078 376.308 246.435 379.479 245.595L379.556 245.576C380.29 245.413 383.254 244.736 381.837 239.522C381.784 239.33 381.4 238.486 381.045 237.689C380.752 237.041 380.473 236.421 380.439 236.325L379.051 236.781C379.099 236.93 379.397 237.593 379.714 238.289C380.05 239.038 380.411 239.83 380.43 239.902C381.448 243.656 379.676 244.054 379.239 244.15L379.133 244.174C376.054 244.99 370.794 245.619 366.111 245.907C361.658 246.181 357.801 246.176 357.027 245.749C356.312 244.678 356.835 243.718 358.05 242.83C360.073 241.351 363.815 240.07 367.408 238.836C369.233 238.212 371.025 237.597 372.595 236.949L372.028 235.615Z" fill="#333333"/>
<path fill-rule="evenodd" clip-rule="evenodd" d="M408.891 240.67C406.479 242.974 403.972 245.369 402.718 247.419C401.777 248.96 401.604 250.294 402.939 251.173C403.751 251.274 406.652 250.05 410.015 248.35C413.776 246.449 418.012 243.953 420.611 241.98C420.63 241.961 420.683 241.923 420.702 241.913C420.755 241.875 420.842 241.817 420.942 241.731C421.235 241.481 421.615 241.001 421.49 240.132C421.399 239.47 421.01 238.577 420.063 237.386C419.079 237.813 417.835 237.996 416.59 237.962C415.14 237.924 413.651 237.597 412.565 237.026C411.662 238.01 410.601 239.038 409.501 240.094C409.294 240.286 409.092 240.478 408.891 240.67Z" fill="#FEFEFE"/>
<path fill-rule="evenodd" clip-rule="evenodd" d="M380.421 239.906C380.445 239.993 380.469 240.079 380.488 240.166C381.357 243.68 379.657 244.064 379.229 244.16L379.124 244.184C376.045 245 370.785 245.628 366.101 245.916C361.649 246.19 357.791 246.185 357.018 245.758C356.302 244.688 356.826 243.728 358.041 242.839C359.271 241.937 361.144 241.111 363.229 240.324C364.569 239.82 365.991 239.33 367.398 238.85C369.032 238.289 370.636 237.741 372.082 237.165C372.98 237.756 374.368 238.365 375.963 238.471C377.068 238.543 378.273 238.375 379.479 237.794C379.551 237.953 379.628 238.125 379.705 238.293C380.041 239.042 380.397 239.834 380.421 239.906Z" fill="#FEFEFE"/>
<path fill-rule="evenodd" clip-rule="evenodd" d="M401.162 110.099C404.548 121.173 408.333 141.177 411.648 163.796C416.427 187.092 419.506 213.331 419.463 235.562C418.584 236.047 417.301 236.33 416.024 236.359C414.756 236.388 413.526 236.176 412.743 235.682C411.643 231.496 407.209 213.519 401.253 192.666C396.229 175.067 389.624 155.952 386.156 142.545L384.767 137.48C384.681 150.072 383.836 163.297 383.288 171.875C383.125 174.458 382.985 176.618 382.899 178.265C382.894 178.375 382.899 178.797 382.908 179.503C382.99 185.614 383.355 213.629 379.018 236.388C377.999 236.921 376.976 237.074 376.044 237.017C374.776 236.935 373.667 236.46 372.941 235.989C372.86 229.408 372.639 219.951 372.019 209.87C371.385 199.564 370.323 188.571 368.556 179.253C368.412 178.495 365.75 163.239 365.597 142.602C365.52 132.291 366.072 120.636 367.878 108.774C372.648 111.016 377.85 112.048 383 112.273C389.456 112.552 395.825 111.563 401.162 110.099Z" fill="#404040" stroke="#404040" stroke-width="0.216" stroke-miterlimit="22.9256"/>
<path fill-rule="evenodd" clip-rule="evenodd" d="M384.772 137.336C384.691 149.971 383.84 163.263 383.293 171.875C383.13 174.458 382.99 176.618 382.904 178.265C382.899 178.375 382.904 178.797 382.913 179.503C382.995 185.614 383.36 213.629 379.023 236.388C378.004 236.921 376.981 237.074 376.049 237.017C374.781 236.935 373.672 236.46 372.946 235.989C372.865 229.408 372.644 219.951 372.024 209.87C371.39 199.564 370.328 188.571 368.561 179.253C368.416 178.495 365.755 163.239 365.602 142.602C365.525 132.003 366.106 119.993 368.037 107.795L366.596 107.569C364.655 119.844 364.069 131.941 364.146 142.602C364.3 163.378 366.98 178.749 367.124 179.513C368.882 188.763 369.934 199.693 370.568 209.947C371.203 220.234 371.419 229.821 371.496 236.378L371.5 236.738L371.789 236.954C372.658 237.602 374.181 238.351 375.963 238.466C377.245 238.548 378.658 238.308 380.055 237.482L380.339 237.314L380.401 236.993C384.83 214.042 384.455 185.648 384.378 179.479C384.369 178.826 384.364 178.428 384.369 178.332C384.451 176.776 384.59 174.583 384.758 171.962C385.238 164.463 385.944 153.427 386.17 142.338L384.772 137.336Z" fill="#333333"/>
<path fill-rule="evenodd" clip-rule="evenodd" d="M376.366 123.367C377.298 124.203 378.35 124.947 379.517 125.494C380.723 126.055 382.058 126.415 383.509 126.459L384.1 126.478L384.167 127.059C386.059 143.284 391.185 159.365 397.237 178.341C402.406 194.552 408.247 212.875 413.334 235.212C414.237 235.62 415.217 235.72 416.172 235.653C417.085 235.586 417.983 235.36 418.771 235.087C418.603 228.467 418.223 218.453 417.368 207.816C416.763 200.265 415.923 192.421 414.751 185.302C414.587 184.318 414.429 183.382 414.265 182.489C414.102 181.586 413.929 180.698 413.756 179.829C413.617 179.148 413.434 178.289 413.252 177.453C412.772 175.231 412.33 173.195 412.08 170.661C411.912 168.947 411.724 167.18 411.523 165.38C411.316 163.532 411.1 161.761 410.884 160.057C409.683 150.71 408.146 141.638 406.412 133.299C404.61 124.649 402.593 116.805 400.513 110.296L401.805 109.888C403.9 116.455 405.931 124.342 407.737 133.026C409.481 141.378 411.023 150.489 412.229 159.889C412.464 161.722 412.68 163.508 412.877 165.231C413.069 166.945 413.257 168.712 413.434 170.531C413.67 172.951 414.107 174.967 414.582 177.16C414.731 177.852 414.885 178.567 415.087 179.561C415.265 180.439 415.437 181.337 415.601 182.244C415.774 183.209 415.942 184.15 416.091 185.076C417.268 192.258 418.118 200.135 418.723 207.705C419.597 218.583 420.635 229.326 420.798 235.985L420.808 236.465L420.356 236.637C418.175 237.463 413.588 237.977 411.941 235.908L411.873 235.6C406.777 213.159 401.123 195.004 395.94 178.745C389.936 159.908 384.839 143.918 382.879 127.774C381.453 127.659 380.142 127.275 378.936 126.713C377.61 126.094 376.424 125.254 375.391 124.313C374.473 123.478 375.449 122.542 376.366 123.367Z" fill="#333333"/>
<path fill-rule="evenodd" clip-rule="evenodd" d="M380.18 23.6007C381.665 20.0916 385.603 22.0934 385.618 23.9703C385.43 23.7639 384.604 23.2694 384.134 23.2118C383.97 25.3 381.472 25.7369 380.8 23.5095C380.531 23.4951 380.377 23.4807 380.18 23.6007ZM379.282 39.9076C379.436 39.9652 381.794 40.6085 384.921 37.9203C386.554 36.5185 388.356 34.224 390.109 30.5132C390.08 30.5228 390.047 30.5324 390.018 30.5421C389.557 30.6669 389.177 29.8316 389.941 29.5436C390.143 29.4668 390.344 29.3612 390.522 29.2363C390.902 28.9771 391.204 28.6555 391.387 28.3675C392.107 27.2394 392.295 25.9865 392.045 25.0744C391.949 24.724 391.785 24.4263 391.569 24.2247C391.368 24.0327 391.103 23.9175 390.786 23.9031C390.152 23.8743 389.312 24.2199 388.293 25.1272C387.727 25.6312 387.222 24.9832 387.496 24.5608L387.179 24.1143C387.241 22.151 387.179 20.538 387.02 19.2179C386.852 17.8402 386.578 16.8033 386.218 16.0449C385.988 15.5552 385.632 15.0752 385.2 14.6863C384.806 14.3263 384.354 14.0479 383.884 13.9039C383.327 13.7311 382.765 13.7743 382.212 13.9423C381.602 14.1295 380.987 14.4703 380.377 14.8736C380.07 15.0752 379.767 15.2912 379.474 15.5024C377.947 16.5969 376.731 17.4658 374.315 16.8225C373.989 16.7361 373.681 16.5729 373.417 16.3473C373.388 16.3233 373.359 16.2993 373.335 16.2753C372.898 16.9377 372.523 17.701 372.206 18.5411C371.135 21.4213 370.823 25.1512 371.419 28.7371C372.01 32.2942 373.489 35.6881 375.996 37.9299C376.943 38.7651 378.033 39.4468 379.282 39.9076ZM390.047 25.6072C389.441 25.7273 389.374 25.2232 390.008 25.1176C390.2 25.0888 390.373 25.0888 390.527 25.1272C390.782 25.1848 390.974 25.324 391.103 25.5256C391.223 25.7129 391.286 25.9529 391.286 26.2217C391.286 26.6681 391.113 27.225 390.753 27.7818C390.618 27.993 390.392 28.2331 390.123 28.4155C389.979 28.5163 389.821 28.5979 389.648 28.6555C389.235 28.7995 389.067 28.3819 389.581 28.1611C389.672 28.1226 389.763 28.0698 389.85 28.0122C390.066 27.8682 390.239 27.681 390.344 27.5178C390.652 27.0378 390.801 26.5817 390.801 26.2217C390.801 26.0441 390.767 25.8953 390.695 25.7897C390.633 25.6937 390.541 25.6312 390.421 25.6024C390.316 25.5784 390.191 25.5784 390.047 25.6072ZM371.688 23.4519C373.037 19.89 377.053 21.7429 377.14 23.6199C376.943 23.4231 376.102 22.9574 375.627 22.919C375.545 25.012 373.061 25.54 372.307 23.3415C372.038 23.3319 371.88 23.3271 371.688 23.4519ZM377.999 32.3422C380.79 34.5936 381.804 30.5997 382.294 29.9852C382.154 34.944 378.35 34.5984 377.999 32.3422ZM377.269 28.6027C377.596 28.7803 378.12 28.9627 379.277 28.9867C376.89 29.9324 376.049 28.8235 376.083 27.7914C376.121 26.3993 377.428 26.6777 377.164 24.4215C378.297 26.0057 375.737 27.7722 377.269 28.6027Z" fill="#FEFEFE"/>
<path fill-rule="evenodd" clip-rule="evenodd" d="M382.219 88.5683L290.021 72.8086C286.716 72.2421 284.497 69.1075 285.059 65.8048L290.089 38.2781C290.656 34.9754 293.792 32.7576 297.097 33.3193L389.295 49.079C392.6 49.6454 394.819 52.7801 394.257 56.0827L389.232 83.6095C388.66 86.9121 385.523 89.1347 382.219 88.5683Z" fill="#397CA8"/>
<path fill-rule="evenodd" clip-rule="evenodd" d="M363.509 64.6271L375.509 61.3533C376.508 61.07 376.652 60.3548 375.792 59.7883L365.364 52.9526C364.85 52.6117 364.076 52.3717 363.322 52.2949C362.823 52.2469 362.333 52.2709 361.934 52.3813L360.867 52.6741L349.935 55.6552C348.936 55.9384 348.792 56.6537 349.647 57.2201L354.325 60.2876L355.555 61.094L360.075 64.0559C360.795 64.6271 362.366 64.9104 363.509 64.6271Z" fill="white"/>
<path fill-rule="evenodd" clip-rule="evenodd" d="M367.813 64.5792L365.729 65.136L363.365 65.7649C362.366 66.0481 360.796 65.7649 359.936 65.1936L354.911 61.8525L353.686 61.0365L353.081 60.6332L348.936 61.7709C347.937 62.0542 347.793 62.7694 348.648 63.3359L350.583 64.6032L351.818 65.4096L359.081 70.1668C359.403 70.3781 359.801 70.5557 360.248 70.6709C360.896 70.8437 361.631 70.9013 362.342 70.7909C362.448 70.7765 362.549 70.7573 362.65 70.7333L362.948 70.6517L364.427 70.2484L374.649 67.4594C375.648 67.1762 375.792 66.4609 374.937 65.8945L371.363 63.6143L367.813 64.5792Z" fill="white" fill-opacity="0.75"/>
<path fill-rule="evenodd" clip-rule="evenodd" d="M370.081 69.7492L364.389 71.2949L362.919 71.6934L362.222 71.8806C361.857 71.9862 361.415 72.015 360.959 71.9766C360.339 71.9286 359.696 71.7654 359.182 71.5253C359.042 71.4581 358.913 71.3861 358.793 71.3093L352.077 66.8978L349.844 67.5122L347.932 68.0403C347.86 68.0595 347.793 68.0835 347.725 68.1075C347.692 68.1219 347.658 68.1363 347.624 68.1507C346.909 68.4819 346.885 69.1011 347.644 69.6052L347.725 69.658L354.911 74.3672L356.28 75.2649L358.077 76.441C358.937 77.0122 360.363 77.2954 361.362 77.0122L362.866 76.6042L364.326 76.2057L369.672 74.7464L373.366 73.7383C373.813 73.6135 374.087 73.3975 374.178 73.1527C374.293 72.8455 374.125 72.4854 373.65 72.1734L370.081 69.7492Z" fill="white" fill-opacity="0.5"/>
<path d="M333.876 63.1996C333.876 63.1996 334.152 63.1229 334.301 62.7223C334.306 62.6979 334.31 62.6735 334.314 62.6492L334.327 62.576C334.371 62.1821 334.046 61.6475 333.671 61.1042C333.228 60.4988 332.814 60.1743 332.814 60.1743C332.814 60.1743 332.767 59.1114 332.051 57.5289C331.362 55.9507 329.999 54.1785 329.032 54.4597C328.065 54.7409 328.637 56.0975 328.623 56.4718C328.631 56.8747 328.899 57.5751 328.773 57.5527C328.625 57.5015 327.31 53.6787 322.312 53.8007C321.019 53.8484 319.862 54.1716 318.882 54.6764L317.441 62.8089C317.798 62.5705 317.951 62.4466 317.951 62.4466C317.951 62.4466 318.022 63.966 318.516 64.7312C319.009 65.4961 319.676 66.0159 319.991 65.569C320.302 65.1468 319.944 63.0249 319.944 63.0249C319.944 63.0249 321.05 64.4754 321.379 64.8349C321.708 65.1941 322.38 65.6895 322.7 65.0681C322.994 64.4422 322.637 63.3498 322.236 63.1033C321.86 62.8609 321.605 62.816 321.605 62.816C321.605 62.816 321.407 62.4546 321.298 62.3346C321.163 62.2102 321.137 62.206 321.137 62.206C321.137 62.206 321.387 62.1245 322.094 62.2745C322.827 62.4289 323.407 62.5565 323.407 62.5565C323.407 62.5565 323.903 63.5982 324.258 63.9621C324.583 64.346 325.44 65.2757 325.739 65.6548C326.014 66.0297 326.191 66.2118 326.366 65.9661C326.515 65.7162 326.462 64.9788 326.095 64.3868C325.699 63.8147 325.238 63.4571 325.103 63.1823C325.003 62.8632 324.94 62.6261 324.94 62.6261C324.94 62.6261 325.764 63.4493 325.953 63.7091C326.173 63.9486 327.673 65.2429 327.922 65.4625C328.167 65.7069 328.315 65.6074 328.315 65.6074C328.315 65.6074 328.493 65.7893 328.586 65.7055C328.68 65.6215 328.999 65.0001 328.535 64.5165C328.049 64.0038 327.754 63.7507 327.813 63.711C327.847 63.667 328.376 63.936 328.478 63.8032C328.55 63.6906 328.508 63.4824 328.441 63.4202C328.403 63.3378 328.632 63.2277 328.632 63.2277C328.632 63.2277 328.835 63.2636 329.66 63.4847C330.486 63.7059 332.715 63.3965 333.173 63.3265C333.63 63.2565 333.876 63.1996 333.876 63.1996ZM316.018 70.8436C317.965 70.0577 318.533 67.2953 317.663 66.5892C317.413 66.3695 317.156 66.1986 316.864 66.0713L316.639 67.3377C316.707 67.3996 316.77 67.4865 316.799 67.617C316.9 67.9361 316.759 68.2877 316.759 68.2877C316.759 68.2877 316.816 67.8207 316.681 67.5459C316.66 67.517 316.639 67.4881 316.618 67.4593L316.018 70.8436ZM318.882 54.6764C318.453 54.8773 318.067 55.1352 317.706 55.398L316.279 63.4571C316.559 63.356 316.813 63.2501 317.051 63.0913C317.2 62.9922 317.323 62.8882 317.442 62.8089L318.882 54.6764ZM314.929 71.078C315.323 71.0725 315.705 70.989 316.018 70.8436L316.618 67.4593C316.5 67.2377 316.395 67.0933 316.395 67.0933C316.395 67.0933 316.513 67.1645 316.639 67.3377L316.864 66.0713C316.551 65.9158 316.203 65.8043 315.861 65.8191L315.485 67.9374C315.57 67.9021 315.702 67.9002 315.62 68.0618C315.578 68.1548 315.501 68.141 315.451 68.1324L315.231 69.374C315.282 69.383 315.358 69.3964 315.413 69.381C315.413 69.381 315.353 69.4208 315.217 69.4468L314.929 71.078ZM317.706 55.398C315.609 56.8857 314.438 58.9137 314.174 59.3693C313.761 60.0747 311.474 62.483 311.037 64.0631C310.621 65.672 309.893 69.6363 313.659 70.8537C314.103 71.0076 314.535 71.0836 314.929 71.0777L315.218 69.4466C314.845 69.481 314.041 69.4395 313.324 68.3087C312.363 66.783 313.326 64.7435 314.396 64.1788C315.092 63.7996 315.724 63.6349 316.279 63.4568L317.706 55.398ZM315.861 65.8188L315.485 67.9371C315.401 67.9724 315.35 67.9634 315.312 67.8814C315.235 68.0186 315.324 68.1094 315.451 68.1318L315.231 69.3735C314.405 69.3028 313.408 68.4238 313.878 67.4018C314.423 66.2431 315.128 65.8151 315.861 65.8188Z" fill="white"/>
<path d="M325.08 42.526L326.705 42.753C327.577 42.8748 328.664 43.6683 328.407 44.7208L326.811 51.266C326.611 52.0867 326.16 52.46 325.474 52.3391L323.345 51.9635C322.478 51.8104 322.206 51.2194 322.292 50.3791L322.966 43.7608C323.052 42.9203 323.842 42.3531 325.08 42.526Z" fill="white"/>
<path d="M311.438 44.8657L312.892 44.0189C313.672 43.5644 315.09 43.5277 315.616 44.5596L318.885 50.9766C319.295 51.7812 319.195 52.3763 318.564 52.7129L316.605 53.7577C315.807 54.1832 315.18 53.8683 314.665 53.1203L310.609 47.2298C310.094 46.482 310.331 45.5107 311.438 44.8657Z" fill="white"/>
<path d="M303.307 55.614L303.864 54.1323C304.164 53.3371 305.183 52.4804 306.192 52.9421L312.467 55.8127C313.254 56.1725 313.539 56.675 313.278 57.2952L312.469 59.2198C312.14 60.004 311.489 60.1356 310.659 59.8795L304.124 57.8613C303.295 57.605 302.883 56.7425 303.307 55.614Z" fill="white"/>
<path d="M302.401 66.727L301.948 65.5463C301.705 64.9125 301.861 63.8975 302.711 63.7019L307.996 62.4845C308.659 62.332 309.097 62.5062 309.27 63.0136L309.807 64.5877C310.026 65.229 309.706 65.6205 309.073 65.8576L304.084 67.7255C303.451 67.9625 302.746 67.6263 302.401 66.727Z" fill="white"/>
<path d="M391.308 84.4153C391.327 84.8791 391.093 85.4845 390.526 86.1897C389.971 86.8803 389.163 87.5828 388.214 88.2198C386.298 89.5061 383.971 90.4178 382.304 90.4875C380.838 90.5487 379.706 89.6587 378.878 88.2504C378.049 86.8395 377.623 85.0472 377.566 83.6959C377.528 82.7784 378.277 81.9765 379.935 81.3507C381.525 80.7504 383.61 80.4603 385.425 80.3845C387.065 80.316 388.536 80.9478 389.613 81.8236C390.724 82.7269 391.281 83.7726 391.308 84.4153Z" fill="white" stroke="#333333" stroke-width="1.5"/>
<path d="M336.946 39.3041C336.84 40.3948 335.916 41.524 334.404 42.3682C332.919 43.1974 331.04 43.6442 329.361 43.4804C325.888 43.1417 323.775 40.9215 324 38.6067C324.09 37.6927 324.942 37.0023 326.671 36.6122C328.329 36.2381 330.434 36.2397 332.243 36.4161C334.02 36.5894 335.265 37.0214 336.022 37.562C336.751 38.0821 337.008 38.6758 336.946 39.3041Z" fill="white" stroke="#333333" stroke-width="1.5"/>
<defs>
<clipPath id="clip0_9083_121562">
<rect width="288" height="74" fill="white" transform="translate(13 16)"/>
</clipPath>
<clipPath id="clip1_9083_121562">
<rect width="10" height="10" fill="white" transform="translate(87 67)"/>
</clipPath>
<clipPath id="clip2_9083_121562">
<rect width="10" height="10" fill="white" transform="translate(146 67)"/>
</clipPath>
<clipPath id="clip3_9083_121562">
<rect width="10" height="10" fill="white" transform="translate(205 67)"/>
</clipPath>
<clipPath id="clip4_9083_121562">
<rect width="10" height="10" fill="white" transform="translate(264 67)"/>
</clipPath>
</defs>
</svg>
