<svg width="232" height="56" viewBox="0 0 232 56" fill="none" xmlns="http://www.w3.org/2000/svg">
<path d="M59.8911 8.83752V32.7956H75.3693V29.156H64.6157V8.83752H59.8911Z" fill="#18A303"/>
<path d="M78.2247 32.7956H82.9492V15.5514H78.2247V32.7956ZM80.5869 14.0673C82.0677 14.0673 83.3018 12.8659 83.3018 11.3464C83.3018 9.86229 82.0677 8.62549 80.5869 8.62549C79.0708 8.62549 77.8721 9.86229 77.8721 11.3464C77.8721 12.8659 79.0708 14.0673 80.5869 14.0673Z" fill="#18A303"/>
<path d="M91.1769 17.5649H91.1064V7.35266H86.3818V32.7949H91.0006L91.1064 30.7808H91.1769C92.6577 32.4416 94.1386 33.1482 96.5714 33.1482C101.155 33.1482 104.187 29.0139 104.187 23.8547C104.187 18.8724 101.472 15.1974 96.7829 15.1974C94.2796 15.1974 92.7988 15.9394 91.1769 17.5649ZM91.1064 23.7841C91.1064 20.8158 92.4462 18.837 94.9847 18.837C97.8054 18.837 99.2157 20.8512 99.2157 24.1374C99.2157 27.3884 97.8406 29.5087 95.0553 29.5087C92.6225 29.5087 91.1064 27.6004 91.1064 24.5615V23.7841Z" fill="#18A303"/>
<path d="M116.864 15.198C114.607 15.3393 112.457 16.7175 111.469 18.6256H111.399L111.293 15.5514H106.674V32.7955H111.399V26.2936C111.399 22.8306 112.034 21.5939 113.127 20.8165C114.078 20.1451 115.207 19.8624 116.758 19.7918L116.864 15.198Z" fill="#18A303"/>
<path d="M134.247 23.1487C134.247 18.873 131.638 15.198 127.125 15.198C121.696 15.198 118.205 18.9437 118.205 24.6328C118.205 30.1806 121.801 33.1489 127.125 33.1489C129.629 33.1489 131.391 32.7602 133.049 32.0181L132.555 28.4845C131.004 29.1205 129.417 29.5093 127.725 29.5093C124.869 29.5093 123.035 28.2018 122.859 25.5163H134.036C134.177 24.8802 134.247 23.8908 134.247 23.1487ZM126.632 18.8377C128.677 18.8377 129.629 20.4985 129.699 22.2653H123.035C123.388 20.2864 124.763 18.8377 126.632 18.8377Z" fill="#18A303"/>
<path d="M148.59 8.48413C142.244 8.48413 137.025 13.1133 137.025 20.8166C137.025 28.52 142.244 33.149 148.59 33.149C154.936 33.149 160.155 28.52 160.155 20.8166C160.155 13.1133 154.936 8.48413 148.59 8.48413ZM148.59 10.8871C153.315 10.8871 156.911 14.4207 156.911 20.8166C156.911 27.2124 153.315 30.7461 148.59 30.7461C143.865 30.7461 140.269 27.2124 140.269 20.8166C140.269 14.4207 143.865 10.8871 148.59 10.8871Z" fill="black"/>
<path d="M164.67 14.5973V15.6927H161.885V17.9543H164.67V32.7956H167.632V17.9543H172.004V15.6927H167.632V14.1379C167.632 11.0637 168.936 9.26152 171.299 9.26152C172.392 9.26152 173.097 9.43819 173.767 9.68554L174.049 7.49474C173.414 7.24739 172.215 7 171.263 7C167.068 7 164.67 9.72089 164.67 14.5973Z" fill="black"/>
<path d="M174.516 14.5973V15.6927H171.731V17.9543H174.516V32.7956H177.478V17.9543H181.85V15.6927H177.478V14.1379C177.478 11.0637 178.782 9.26152 181.145 9.26152C182.238 9.26152 182.943 9.43819 183.613 9.68554L183.895 7.49474C183.26 7.24739 182.061 7 181.109 7C176.914 7 174.516 9.72089 174.516 14.5973Z" fill="black"/>
<path d="M185.28 32.7956H188.242V15.6927H185.28V32.7956ZM186.761 13.1839C187.784 13.1839 188.595 12.3711 188.595 11.3464C188.595 10.3216 187.784 9.50885 186.761 9.50885C185.739 9.50885 184.928 10.3216 184.928 11.3464C184.928 12.3711 185.739 13.1839 186.761 13.1839Z" fill="black"/>
<path d="M194.4 24.1735C194.4 19.8625 196.974 17.6009 200.323 17.6009C202.086 17.6009 203.638 18.0249 204.907 18.6257L205.189 16.3641C204.131 15.8341 202.439 15.3394 200.57 15.3394C195.282 15.3394 191.297 18.555 191.297 24.5622C191.297 30.216 194.894 33.1489 199.653 33.1489C201.769 33.1489 203.285 32.9016 205.013 32.1595L204.731 29.898C203.25 30.5694 201.663 30.8874 200.182 30.8874C196.762 30.8874 194.4 28.7319 194.4 24.1735Z" fill="black"/>
<path d="M221.894 24.9156C221.965 24.2795 222 23.7495 222 23.2194C222 18.8377 219.708 15.3394 215.301 15.3394C210.541 15.3394 207.051 19.297 207.051 24.5622C207.051 30.3573 210.541 33.1489 215.301 33.1489C217.417 33.1489 219.003 32.8309 220.66 32.1595L220.378 29.898C219.074 30.534 217.205 30.8874 215.724 30.8874C212.304 30.8874 210.083 28.8026 210.012 24.9156H221.894ZM215.054 17.6009C217.663 17.6009 219.074 19.7565 219.074 22.5834H210.153C210.577 19.5798 212.234 17.6009 215.054 17.6009Z" fill="black"/>
<path d="M66.9642 38.7368H59.8909V39.7512H62.8094V48.8508H64.017V39.7512H66.9642V38.7368Z" fill="black"/>
<path d="M69.2948 42.8242V38.1103H68.0872V48.8508H69.2948V44.8828C69.2948 43.3911 70.1718 42.496 71.25 42.496C72.3714 42.496 72.6446 43.1524 72.6446 44.5397V48.8508H73.8522V44.1519C73.8522 42.3916 73.0759 41.4816 71.5951 41.4816C70.56 41.4816 69.8124 42.0784 69.3236 42.8242H69.2948" fill="black"/>
<path d="M81.5267 45.5242C81.5555 45.2557 81.5698 45.0319 81.5698 44.8082C81.5698 42.9584 80.6353 41.4816 78.8383 41.4816C76.8974 41.4816 75.4741 43.1524 75.4741 45.3751C75.4741 47.8215 76.8974 49 78.8383 49C79.7009 49 80.3478 48.8658 81.0235 48.5823L80.9085 47.6276C80.3766 47.8961 79.6146 48.0453 79.0108 48.0453C77.6162 48.0453 76.7105 47.1651 76.6818 45.5242H81.5267H81.5267ZM78.7376 42.4363C79.8015 42.4363 80.3766 43.3463 80.3766 44.5397H76.7393C76.9118 43.2717 77.5875 42.4363 78.7376 42.4363Z" fill="black"/>
<path d="M86.5354 38.87V48.7603C87.2399 48.8648 88.275 48.9244 89.0513 48.9244C91.9985 48.9244 94.7733 47.1493 94.7733 43.4796C94.7733 40.2574 92.6455 38.6612 89.0801 38.6612C88.2894 38.6612 87.3692 38.7209 86.5354 38.87ZM87.743 39.7651C88.1887 39.6905 88.6775 39.6756 89.2095 39.6756C91.9554 39.6756 93.4506 41.1972 93.4506 43.6287C93.4506 46.5078 91.5241 47.9101 89.1951 47.9101C88.7494 47.9101 88.2462 47.8951 87.743 47.8503V39.7651Z" fill="black"/>
<path d="M99.2658 41.4816C97.1668 41.4816 95.916 43.1225 95.916 45.2408C95.916 47.359 97.1668 49 99.2658 49C101.365 49 102.616 47.359 102.616 45.2408C102.616 43.1225 101.365 41.4816 99.2658 41.4816ZM99.2658 48.0453C97.8137 48.0453 97.1812 46.7474 97.1812 45.2408C97.1812 43.7341 97.8137 42.4363 99.2658 42.4363C100.718 42.4363 101.35 43.7341 101.35 45.2408C101.35 46.7474 100.718 48.0453 99.2658 48.0453Z" fill="black"/>
<path d="M105.072 45.211C105.072 43.3911 106.121 42.4363 107.487 42.4363C108.206 42.4363 108.839 42.6154 109.356 42.869L109.471 41.9142C109.04 41.6904 108.35 41.4816 107.588 41.4816C105.431 41.4816 103.807 42.8391 103.807 45.3751C103.807 47.7618 105.273 49 107.214 49C108.077 49 108.695 48.8956 109.399 48.5823L109.284 47.6276C108.68 47.911 108.033 48.0453 107.43 48.0453C106.035 48.0453 105.072 47.1353 105.072 45.211Z" fill="black"/>
<path d="M115.478 47.6573L115.521 48.8508H116.686V41.6307H115.478V45.5988C115.478 47.0905 114.601 47.9855 113.523 47.9855C112.402 47.9855 112.129 47.3291 112.129 45.9418V41.6307H110.921V46.3298C110.921 48.09 111.697 48.9999 113.178 48.9999C114.213 48.9999 114.961 48.4032 115.45 47.6573H115.478" fill="black"/>
<path d="M127.365 44.3905V48.8508H128.573V44.0027C128.573 42.3916 127.854 41.4816 126.474 41.4816C125.482 41.4816 124.691 42.138 124.231 43.1076H124.188C123.915 42.0933 123.34 41.4816 122.233 41.4816C121.241 41.4816 120.608 42.0336 120.119 42.8242H120.091L120.048 41.6308H118.883V48.8508H120.091V45.1811C120.091 43.5551 120.781 42.496 121.859 42.496C122.765 42.496 123.124 43.1524 123.124 44.3905V48.8508H124.332V45.1811C124.332 43.5253 125.022 42.496 126.1 42.496C127.006 42.496 127.365 43.1524 127.365 44.3905" fill="black"/>
<path d="M136.226 45.5242C136.255 45.2557 136.269 45.0319 136.269 44.8082C136.269 42.9584 135.335 41.4816 133.538 41.4816C131.597 41.4816 130.173 43.1524 130.173 45.3751C130.173 47.8215 131.597 49 133.538 49C134.4 49 135.047 48.8658 135.723 48.5823L135.608 47.6276C135.076 47.8961 134.314 48.0453 133.71 48.0453C132.315 48.0453 131.41 47.1651 131.381 45.5242H136.226ZM133.437 42.4363C134.501 42.4363 135.076 43.3463 135.076 44.5397H131.438C131.611 43.2717 132.287 42.4363 133.437 42.4363Z" fill="black"/>
<path d="M139.185 42.8242L139.142 41.6308H137.977V48.8508H139.185V44.8828C139.185 43.3911 140.062 42.496 141.14 42.496C142.261 42.496 142.534 43.1523 142.534 44.5397V48.8508H143.742V44.1518C143.742 42.3916 142.966 41.4816 141.485 41.4816C140.45 41.4816 139.702 42.0784 139.213 42.8242H139.185" fill="black"/>
<path d="M149.131 41.6308H147.463V40.0347H146.256V41.6308H145.149V42.5855H146.256V47.0757C146.256 48.3884 146.946 49 148.067 49C148.657 49 149.045 48.9403 149.347 48.8061L149.217 47.8961C148.973 48.0005 148.714 48.0453 148.441 48.0453C147.737 48.0453 147.463 47.6276 147.463 46.7624V42.5855H149.131V41.6308Z" fill="black"/>
<path d="M155.359 48.8508V44.2861H158.852V43.2717H155.359V39.7512H159.341V38.7368H154.151V48.8508H155.359Z" fill="black"/>
<path d="M163.709 41.4816C161.61 41.4816 160.359 43.1225 160.359 45.2408C160.359 47.359 161.61 49 163.709 49C165.808 49 167.058 47.359 167.058 45.2408C167.058 43.1225 165.808 41.4816 163.709 41.4816ZM163.709 48.0453C162.257 48.0453 161.624 46.7474 161.624 45.2408C161.624 43.7341 162.257 42.4363 163.709 42.4363C165.161 42.4363 165.793 43.7341 165.793 45.2408C165.793 46.7474 165.161 48.0453 163.709 48.0453Z" fill="black"/>
<path d="M173.238 47.6573L173.281 48.8508H174.445V41.6307H173.238V45.5988C173.238 47.0905 172.361 47.9855 171.282 47.9855C170.161 47.9855 169.888 47.3291 169.888 45.9418V41.6307H168.68V46.3298C168.68 48.09 169.457 48.9999 170.937 48.9999C171.972 48.9999 172.72 48.4032 173.209 47.6573H173.238" fill="black"/>
<path d="M177.85 42.8242L177.807 41.6308H176.643V48.8508H177.85V44.8828C177.85 43.3911 178.727 42.496 179.805 42.496C180.927 42.496 181.2 43.1523 181.2 44.5397V48.8508H182.408V44.1518C182.408 42.3916 181.631 41.4816 180.15 41.4816C179.115 41.4816 178.368 42.0784 177.879 42.8242H177.85" fill="black"/>
<path d="M189.407 42.7496C188.889 41.8695 188.142 41.4816 187.164 41.4816C185.295 41.4816 184.03 43.0927 184.03 45.3751C184.03 47.553 185.166 49 187.078 49C188.084 49 188.86 48.5226 189.407 47.7321H189.435L189.479 48.8508H190.643V38.1103H189.435V42.7496H189.407ZM189.435 45.6735C189.435 46.9265 188.688 48.0453 187.451 48.0453C186.057 48.0453 185.295 46.9116 185.295 45.2558C185.295 43.5551 186.028 42.4363 187.423 42.4363C188.53 42.4363 189.435 43.4209 189.435 44.8082V45.6735Z" fill="black"/>
<path d="M195.261 41.4816C194.556 41.4816 193.852 41.601 193.104 41.8993L193.219 42.854C193.924 42.5706 194.499 42.4363 195.088 42.4363C196.152 42.4363 196.598 43.0778 196.598 44.0922V44.301C196.267 44.2413 195.951 44.2115 195.448 44.2115C193.679 44.2115 192.342 45.1215 192.342 46.7027C192.342 48.1795 193.392 49 194.513 49C195.433 49 196.195 48.5077 196.569 47.732H196.598L196.641 48.8508H197.805V43.9579C197.805 42.3319 196.871 41.4816 195.261 41.4816H195.261ZM196.598 45.748C196.598 47.18 195.893 48.0453 194.873 48.0453C194.139 48.0453 193.636 47.4933 193.636 46.6132C193.636 45.6585 194.226 45.0319 195.635 45.0319C195.994 45.0319 196.31 45.0767 196.598 45.1215V45.748Z" fill="black"/>
<path d="M203.184 41.6308H201.516V40.0347H200.309V41.6308H199.202V42.5855H200.309V47.0757C200.309 48.3884 200.999 49 202.12 49C202.71 49 203.098 48.9403 203.4 48.8061L203.27 47.8961C203.026 48.0005 202.767 48.0453 202.494 48.0453C201.789 48.0453 201.516 47.6276 201.516 46.7624V42.5855H203.184V41.6308Z" fill="black"/>
<path d="M204.947 48.8508H206.154V41.6308H204.947V48.8508ZM205.551 40.5716C205.968 40.5716 206.298 40.2286 206.298 39.796C206.298 39.3634 205.968 39.0203 205.551 39.0203C205.134 39.0203 204.803 39.3634 204.803 39.796C204.803 40.2286 205.134 40.5716 205.551 40.5716Z" fill="black"/>
<path d="M211.191 41.4816C209.092 41.4816 207.841 43.1225 207.841 45.2408C207.841 47.359 209.092 49 211.191 49C213.29 49 214.541 47.359 214.541 45.2408C214.541 43.1225 213.29 41.4816 211.191 41.4816ZM211.191 48.0453C209.739 48.0453 209.106 46.7474 209.106 45.2408C209.106 43.7341 209.739 42.4363 211.191 42.4363C212.643 42.4363 213.276 43.7341 213.276 45.2408C213.276 46.7474 212.643 48.0453 211.191 48.0453Z" fill="black"/>
<path d="M217.443 42.8242L217.399 41.6308H216.235V48.8508H217.443V44.8828C217.443 43.3911 218.319 42.496 219.398 42.496C220.519 42.496 220.792 43.1523 220.792 44.5397V48.8508H222V44.1518C222 42.3916 221.224 41.4816 219.743 41.4816C218.708 41.4816 217.96 42.0784 217.471 42.8242H217.443" fill="black"/>
<path fill-rule="evenodd" clip-rule="evenodd" d="M34.2769 8.28471C33.8823 8.2748 33.4935 8.52109 33.3392 8.87878C33.185 9.23647 33.275 9.68299 33.5564 9.95555L42.0259 18.4358C42.2991 18.7089 42.7439 18.7995 43.1046 18.6554C43.4654 18.5113 43.7203 18.1412 43.723 17.758V9.26202C43.7241 8.7501 43.2504 8.28383 42.7304 8.28471H34.2769Z" fill="black"/>
<path fill-rule="evenodd" clip-rule="evenodd" d="M10.9885 8.28442C10.4676 8.29173 9.99909 8.76726 10 9.28722V47.993C9.99896 48.5129 10.4676 48.9882 10.9885 48.9957H42.7182C43.2445 48.9957 43.7238 48.5183 43.723 47.993V23.068C43.7245 22.8049 43.6171 22.5429 43.4313 22.3563L29.7055 8.59178C29.5213 8.40049 29.2583 8.28709 28.9925 8.28442H10.9885Z" fill="white"/>
<path fill-rule="evenodd" clip-rule="evenodd" d="M10.9885 8.28442C10.7247 8.28824 10.4731 8.39567 10.2881 8.58337C10.103 8.77107 9.99954 9.0239 10 9.28722V47.993C9.99956 48.2563 10.103 48.5092 10.2881 48.6969C10.4731 48.8845 10.7247 48.9919 10.9885 48.9957H42.7182C42.8502 48.996 42.981 48.9702 43.103 48.9199C43.225 48.8695 43.3358 48.7957 43.4291 48.7025C43.5225 48.6094 43.5965 48.4988 43.6469 48.377C43.6973 48.2553 43.7232 48.1248 43.723 47.993V23.068C43.7237 22.936 43.6984 22.8052 43.6483 22.6831C43.5983 22.5609 43.5245 22.4499 43.4313 22.3563L29.7055 8.59178C29.6131 8.49582 29.5024 8.41919 29.38 8.36642C29.2576 8.31366 29.1258 8.28577 28.9925 8.28442H10.9885ZM11.9932 10.2901H28.5711L41.7135 23.4724V46.9902H11.9932V10.2901Z" fill="black"/>
</svg>
