<svg width="160" height="56" viewBox="0 0 160 56" fill="none" xmlns="http://www.w3.org/2000/svg">
<path d="M34.3523 6C34.298 6 11.0438 14.8284 11.0121 14.862C11 14.8727 10.997 20.8256 11.003 28.0894L11.0151 41.2953L13.9141 40.1479C15.5086 39.5168 17.2873 38.8124 17.8641 38.5817L18.915 38.1646V27.414C18.915 19.999 18.9301 16.6543 18.9663 16.6329C19.0539 16.5779 34.301 12.9017 34.3402 12.9246C34.3885 12.9552 34.3885 44.5147 34.3402 44.5437C34.3206 44.556 29.119 43.8424 22.7803 42.9593C16.4432 42.0746 11.2416 41.3565 11.2235 41.3626C11.2038 41.3702 16.3677 43.3137 22.6988 45.6851C29.0284 48.0549 34.2617 49.9969 34.3282 50C34.3946 50.0015 37.3359 49.1963 40.8631 48.2093L47.2772 46.4139L47.2651 28.0833L47.253 9.75261L40.8268 7.87631C37.2936 6.84495 34.3795 6 34.3523 6ZM96.15 12.9231C94.9889 12.9231 94.2626 13.0789 93.3914 13.5129C92.0491 14.1821 90.9952 15.4411 90.5196 16.94C90.2402 17.8262 90.2221 18.0172 90.198 20.2893L90.1753 22.3795H86.9939V24.922H90.1828V41.2526H93.1302V24.922H100.426V41.2526H103.373V24.922H107.77V22.3795H103.373V20.7538C103.376 18.4817 103.463 17.811 103.864 16.9599C104.222 16.2051 104.891 15.6856 105.741 15.5038C106.485 15.3464 107.592 15.4763 108.255 15.7987L108.497 15.9163V13.1996L108.217 13.1232C107.696 12.975 107.215 12.9231 106.393 12.9246C105.232 12.9246 104.506 13.0774 103.635 13.5129C102.292 14.1821 101.238 15.4411 100.763 16.94C100.483 17.8262 100.465 18.0172 100.441 20.2893L100.419 22.3795H93.1302V20.7538C93.1332 18.4817 93.2193 17.811 93.6209 16.9599C93.9788 16.2051 94.6477 15.6856 95.4977 15.5038C96.2421 15.3464 97.3489 15.4763 98.0117 15.7987L98.2533 15.9163V13.1996L97.974 13.1232C97.4531 12.975 96.9714 12.9231 96.15 12.9246V12.9231ZM112.022 13.6871C111.297 13.71 110.686 14.0965 110.361 14.7536C109.984 15.5175 110.124 16.4618 110.7 17.0271C110.963 17.2776 111.287 17.4527 111.639 17.5344C113.23 17.8507 114.468 16.4037 113.908 14.8865C113.685 14.2845 113.008 13.7711 112.339 13.6993C112.234 13.6871 112.126 13.684 112.022 13.6871ZM73.2054 14.3746C72.0167 14.361 70.8306 14.4908 69.6722 14.7612C67.8759 15.1797 66.2024 16.0209 64.7876 17.2166C62.5786 19.0944 61.0914 22.0464 60.5931 25.5576C60.3198 27.495 60.3741 29.9428 60.7335 31.7457C61.3133 34.6488 62.7613 37.2555 64.7167 38.9148C66.0216 40.0074 67.5431 40.8036 69.1785 41.2495C69.9358 41.4402 70.7067 41.571 71.4841 41.6407C72.2088 41.7002 73.7188 41.6636 74.4737 41.5688C78.0371 41.1212 80.9392 39.3426 82.8024 36.4609C83.297 35.6463 83.7213 34.79 84.0707 33.9017C84.4937 32.6873 84.7883 31.4309 84.9495 30.1536C85.0205 29.6219 85.0371 29.1544 85.0371 27.7578C85.0371 25.8907 84.9993 25.4231 84.7396 24.1672C83.7114 19.1754 80.4303 15.6642 75.8568 14.6573C74.9846 14.4733 74.0963 14.3791 73.2054 14.3762V14.3746ZM72.7962 17.1463C73.5345 17.1402 74.2895 17.2074 74.9871 17.3495C78.324 18.0233 80.7006 20.5979 81.5341 24.4391C82.0414 26.7861 82.0142 29.764 81.4646 31.9306C80.4303 35.9995 77.7683 38.4137 73.8275 38.8552C73.2356 38.9225 71.9476 38.9087 71.3875 38.8323C67.0419 38.2257 64.1233 34.6947 63.6552 29.4752C63.5797 28.6333 63.6205 26.7005 63.7277 25.9976C64.0478 23.9242 64.6789 22.2756 65.7343 20.7538C66.1375 20.1731 67.128 19.1708 67.7153 18.7506C68.6217 18.1159 69.6348 17.6535 70.705 17.3862C71.3361 17.2334 72.0579 17.1524 72.7962 17.1463ZM126.43 21.9517C126.12 21.9471 125.808 21.9578 125.494 21.9807C123.501 22.1243 122.078 22.5858 120.666 23.5453C118.432 25.0656 117.031 27.5515 116.68 30.6242C116.572 31.5807 116.606 33.4662 116.748 34.2607C117.115 36.3051 118.001 38.0393 119.336 39.3304C120.78 40.7254 122.412 41.4283 124.754 41.6636C125.122 41.7002 126.591 41.6422 127.088 41.5704C128.106 41.4364 129.093 41.1273 130.008 40.6567L130.576 40.3648V37.4908L130.097 37.8071C129.279 38.3546 128.369 38.7465 127.411 38.9637C126.767 39.1043 125.583 39.1364 124.879 39.0309C123.57 38.8354 122.534 38.3357 121.643 37.4663C120.432 36.2868 119.806 34.7955 119.655 32.7297C119.536 31.1178 119.844 29.327 120.446 28.1154C120.911 27.1833 121.838 26.0878 122.605 25.5713C123.729 24.812 124.926 24.4911 126.421 24.5476C127.738 24.5823 129.022 24.9789 130.134 25.6951C130.354 25.8341 130.544 25.9487 130.556 25.9487C130.567 25.9487 130.576 25.2581 130.576 24.4147V22.8791L130.177 22.708C129.063 22.2252 127.772 21.9669 126.43 21.9517ZM141.164 21.9517C139.227 21.9685 137.362 22.6911 135.909 23.9869C134.259 25.4338 133.076 27.8953 132.802 30.4577C132.726 31.1712 132.738 32.9543 132.826 33.7229C133.107 36.1645 133.919 38.0393 135.31 39.445C136.057 40.2276 136.979 40.8184 137.997 41.1685C138.766 41.439 139.306 41.5475 140.458 41.6636C140.848 41.7033 142.512 41.6422 143.095 41.5673C144.753 41.3534 146.235 40.837 147.354 40.0791L147.68 39.8591V37.0538L147.064 37.474C145.464 38.568 143.768 39.1012 141.89 39.1012C140.113 39.1012 138.704 38.597 137.662 37.5886C136.545 36.5068 135.98 35.095 135.817 32.9773L135.784 32.5494H149L148.97 31.1437C148.955 30.3431 148.909 29.4752 148.864 29.1269C148.586 26.8915 147.86 25.2413 146.596 23.967C145.373 22.734 144.004 22.1396 142.017 21.9807C141.73 21.9578 141.444 21.9486 141.164 21.9517ZM110.573 22.3795V41.2526H113.52V22.3795H112.046H110.573ZM141.236 24.5385C141.334 24.5385 141.432 24.5415 141.533 24.5461C142.757 24.598 143.604 24.9281 144.357 25.6462C145.292 26.5385 145.781 27.77 145.92 29.5791L145.953 30.0069H135.838L135.87 29.8236C136.116 28.3797 136.72 27.1008 137.6 26.1596C138.634 25.0518 139.774 24.5415 141.236 24.54V24.5385Z" fill="#E15E26"/>
</svg>
