<svg width="174" height="56" viewBox="0 0 174 56" fill="none" xmlns="http://www.w3.org/2000/svg">
<g clip-path="url(#clip0_803_1954)">
<path d="M168.33 11.958V50.4781L162.981 55.6677V17.9987L168.33 11.9578" fill="#E79224"/>
<path d="M163.066 17.999H127.644V55.7141H163.066V17.999Z" fill="url(#paint0_linear_803_1954)"/>
<path d="M133.192 11.9852L127.644 18.0007H163.066L168.329 11.9598L133.192 11.9852" fill="#FEF26F"/>
<path d="M89.3212 13.6369L124.165 8.82084L121.249 17.1281L88.24 22.3333L88.3805 16.3952L89.3212 13.6369Z" fill="#91C9ED"/>
<path d="M121.249 17.126L126.076 50.9147L91.7194 55.7148L87.0801 23.0492L89.0862 21.4905L121.25 17.1269" fill="url(#paint1_linear_803_1954)"/>
<path d="M124.166 8.81995L124.192 9.02394L128.711 43.6221L126.077 50.9155L121.25 17.1267" fill="#0B9AD6"/>
<path d="M59.9118 10.64L90.8877 24.64L77.371 56L46.395 41.44L59.9118 10.64Z" fill="url(#paint2_linear_803_1954)"/>
<path d="M56.6895 -0.000141144L59.8915 10.7542L90.738 24.5936L88.1448 14.3175L56.6895 -0.000141144Z" fill="#98D0A0"/>
<path d="M56.6895 -0.0001297L44.2742 29.2983L45.9728 42.1735L59.8916 10.7542L56.6895 -0.0001297Z" fill="#68BF6B"/>
<path d="M39.4802 17.0785L44.5645 50.3276L10.4746 55.6425L4.99927 22.3297L39.4796 17.0802" fill="url(#paint3_linear_803_1954)"/>
<path d="M5 22.3275L7.39399 10.4565L41.8141 4.97055L39.4812 17.078L5 22.3275Z" fill="#EF463D"/>
<path d="M41.8143 4.97035L46.861 38.5401L44.5657 50.326L39.4814 17.0778L41.8143 4.97035Z" fill="#761116"/>
<path d="M115.405 23.6019C115.25 22.5526 114.89 21.7519 114.306 21.2275C113.841 20.8085 113.257 20.5969 112.591 20.5979C112.421 20.5979 112.247 20.6115 112.065 20.6379C111.173 20.7653 110.49 21.1762 110.071 21.8544C109.767 22.3444 109.619 22.9356 109.619 23.6155C109.619 23.8759 109.641 24.1503 109.684 24.4381L110.937 33.2299L101.058 34.6754L99.8049 25.8819C99.6534 24.8597 99.298 24.0672 98.7218 23.5285C98.2565 23.0917 97.6763 22.8684 97.022 22.87C96.8676 22.87 96.709 22.8823 96.5471 22.9059C95.6172 23.0391 94.9091 23.4423 94.4791 24.1104C94.1672 24.5917 94.0168 25.1857 94.0168 25.8764C94.0168 26.1416 94.0395 26.4219 94.0825 26.7176L97.4626 49.5827C97.6177 50.634 97.9876 51.4329 98.5954 51.9492C99.0695 52.3526 99.6638 52.5555 100.345 52.5542C100.531 52.5542 100.724 52.5397 100.924 52.5103C101.774 52.3879 102.431 51.9788 102.827 51.3015C103.111 50.82 103.249 50.2416 103.249 49.5796C103.249 49.3146 103.227 49.0369 103.184 48.7461L101.803 39.7123L111.681 38.2688L113.063 47.3023C113.215 48.3398 113.581 49.1341 114.181 49.6572C114.657 50.0736 115.245 50.283 115.913 50.2819C116.084 50.2819 116.26 50.269 116.441 50.2425C117.329 50.1139 118.01 49.7092 118.416 49.0365C118.709 48.5565 118.85 47.9746 118.85 47.3038C118.85 47.0384 118.829 46.7592 118.786 46.4659L115.405 23.6019ZM75.2291 36.249C74.0667 38.9712 72.5324 40.8387 70.6339 41.8734C69.6165 42.4277 68.5739 42.7019 67.4954 42.7023C66.5583 42.7023 65.5923 42.4941 64.5947 42.0743C62.4359 41.1592 61.0911 39.6884 60.5089 37.614C60.3143 36.918 60.2164 36.1865 60.2164 35.4177C60.2164 33.8952 60.6007 32.2248 61.3759 30.4075C62.5645 27.6209 64.116 25.7198 66.016 24.6787C67.0306 24.1227 68.074 23.8465 69.1561 23.8465C70.1036 23.8465 71.0826 24.0573 72.0967 24.4853C74.2419 25.3927 75.5732 26.8668 76.1448 28.9506C76.3306 29.6319 76.4241 30.3489 76.4241 31.1039C76.4241 32.6587 76.029 34.3742 75.2291 36.249ZM78.6083 22.5629C77.3963 21.292 75.9242 20.2924 74.1978 19.5644C72.4841 18.8405 70.7515 18.4795 69.0054 18.4795L68.9249 18.4799C67.1519 18.4913 65.3997 18.8837 63.6726 19.6541V19.6534C61.8647 20.4358 60.2892 21.5306 58.9525 22.9367C57.6157 24.3418 56.527 26.0321 55.6865 28.001C54.8575 29.9471 54.3973 31.8938 54.3119 33.841C54.302 34.0612 54.2974 34.2817 54.2974 34.5012C54.2974 36.2196 54.5936 37.9031 55.1857 39.548C55.814 41.2844 56.7403 42.7876 57.9618 44.0546C59.1828 45.3216 60.6849 46.3299 62.4623 47.0777V47.0772C64.1623 47.7954 65.8885 48.1547 67.637 48.1538H67.6818C69.4453 48.1457 71.1942 47.7699 72.9233 47.0314L72.9249 47.0307L72.926 47.0301C74.7449 46.2231 76.3312 45.1136 77.684 43.7093C79.036 42.3037 80.1291 40.6183 80.9648 38.6606C81.8002 36.7031 82.2553 34.7541 82.3301 32.8155C82.3371 32.6286 82.3407 32.4422 82.3407 32.2562C82.3407 30.513 82.0309 28.8049 81.411 27.1339C80.755 25.3585 79.8196 23.8334 78.6083 22.5629ZM35.8179 45.0331C35.5492 44.714 35.1874 44.4782 34.7466 44.3248C34.2933 44.1676 33.7455 44.0919 33.1003 44.0919C32.4923 44.0919 31.7974 44.1592 31.0134 44.2928L22.0156 45.8219C22.1107 45.1325 22.4551 44.2263 23.0622 43.1221C23.7403 41.885 24.7398 40.3991 26.0604 38.6693L26.061 38.6684C26.5142 38.0663 26.8605 37.6064 27.0999 37.2887C27.2717 37.0771 27.5111 36.7658 27.8212 36.3543C29.8795 33.6695 31.1534 31.4834 31.6419 29.7677C31.9214 28.7948 32.0914 27.8146 32.153 26.8273C32.1698 26.557 32.1775 26.2888 32.1775 26.0225C32.1775 25.3151 32.1192 24.6184 32.0014 23.9329C31.8942 23.3082 31.7396 22.7886 31.5322 22.3716C31.3248 21.9555 31.0617 21.639 30.7367 21.4394C30.3703 21.2176 29.8548 21.1235 29.1804 21.1224C28.6236 21.1224 27.9558 21.1895 27.1742 21.322L16.7761 23.0911C15.5169 23.3056 14.587 23.6741 13.9938 24.2295C13.5224 24.6693 13.2788 25.239 13.2813 25.8928C13.2813 26.0635 13.2969 26.2401 13.3287 26.4228C13.475 27.3013 13.9354 27.9455 14.6777 28.2732C15.1158 28.4698 15.6453 28.5636 16.2632 28.5636C16.6841 28.5636 17.1465 28.52 17.6516 28.4345L26.3547 26.9751C26.3694 27.128 26.3796 27.2807 26.3796 27.432C26.3796 27.9727 26.2854 28.5007 26.0968 29.0206C25.8384 29.7367 25.193 30.7607 24.1643 32.0623C23.8729 32.4176 23.4264 32.9713 22.8248 33.7214C20.4778 36.5484 18.7968 38.9587 17.7796 40.9635C17.7796 40.9644 17.7796 40.9644 17.7789 40.9653C17.7789 40.9653 17.7789 40.9661 17.7787 40.9661C17.0567 42.3461 16.5555 43.7054 16.2806 45.0434C16.1204 45.8239 16.0395 46.5732 16.0395 47.2922C16.0395 47.807 16.0809 48.3054 16.1641 48.7877C16.2832 49.4798 16.4551 50.0508 16.6865 50.5031C16.9179 50.9534 17.2131 51.2901 17.5775 51.4892C17.9168 51.6722 18.4154 51.7448 19.1017 51.7468C19.9728 51.7468 21.1456 51.6191 22.63 51.3673L32.0648 49.7632C33.7356 49.4774 34.8975 49.0812 35.5728 48.5298C36.1124 48.0891 36.3919 47.4841 36.389 46.7715C36.389 46.5912 36.3723 46.4049 36.3385 46.2112C36.2593 45.7486 36.0866 45.3518 35.8179 45.0331ZM27.8215 36.3536L27.8221 36.3532C27.8214 36.3536 27.8214 36.3541 27.8212 36.3543H27.8206L27.8215 36.3536ZM150.38 43.9962C149.023 45.6271 147.195 46.4365 144.836 46.4391C142.461 46.4365 140.625 45.6297 139.261 44.0072C137.9 42.3834 137.211 40.1508 137.21 37.2852C137.211 34.365 137.897 32.0991 139.251 30.4626C140.607 28.8266 142.448 28.0144 144.836 28.0113C147.195 28.0144 149.022 28.826 150.38 30.4626C151.734 32.0991 152.421 34.365 152.421 37.2852C152.421 40.1374 151.736 42.3676 150.38 43.9962ZM157.66 31.5679C156.959 29.8166 155.921 28.2465 154.549 26.8611C153.235 25.5294 151.759 24.5243 150.129 23.8498C148.497 23.1749 146.733 22.8379 144.838 22.8384C142.931 22.8379 141.149 23.1747 139.505 23.8494C137.861 24.5241 136.386 25.5298 135.085 26.8617C133.715 28.2333 132.681 29.7979 131.995 31.5486C131.309 33.301 130.965 35.2119 130.965 37.2795C130.965 39.3204 131.31 41.225 132.006 42.9886C132.699 44.7526 133.727 46.3363 135.085 47.7346C136.358 49.0424 137.818 50.0319 139.455 50.6994C141.092 51.3662 142.889 51.7 144.838 51.7C146.718 51.7 148.48 51.3662 150.117 50.6994C151.754 50.0323 153.234 49.0435 154.548 47.7364C155.921 46.3367 156.959 44.7578 157.66 42.9993C158.361 41.2425 158.712 39.334 158.712 37.2795C158.712 35.2251 158.361 33.3198 157.66 31.5679Z" fill="white"/>
</g>
<defs>
<linearGradient id="paint0_linear_803_1954" x1="145.356" y1="18.5211" x2="145.356" y2="54.5603" gradientUnits="userSpaceOnUse">
<stop stop-color="#FFE500"/>
<stop offset="1" stop-color="#FCB822"/>
</linearGradient>
<linearGradient id="paint1_linear_803_1954" x1="88.8403" y1="22.3334" x2="124.216" y2="50.9053" gradientUnits="userSpaceOnUse">
<stop stop-color="#168CCC"/>
<stop offset="1" stop-color="#00649E"/>
</linearGradient>
<linearGradient id="paint2_linear_803_1954" x1="68.3549" y1="23.3256" x2="68.3549" y2="54.8989" gradientUnits="userSpaceOnUse">
<stop stop-color="#25A149"/>
<stop offset="1" stop-color="#008A52"/>
</linearGradient>
<linearGradient id="paint3_linear_803_1954" x1="22.2921" y1="20.2349" x2="27.6927" y2="53.0246" gradientUnits="userSpaceOnUse">
<stop stop-color="#D92231"/>
<stop offset="1" stop-color="#BA2234"/>
</linearGradient>
<clipPath id="clip0_803_1954">
<rect width="174" height="56" fill="white"/>
</clipPath>
</defs>
</svg>
