<svg width="222" height="71" viewBox="0 0 222 71" fill="none" xmlns="http://www.w3.org/2000/svg">
<path d="M38.2028 19.1562H31.122V25.596H38.2028V19.1562Z" fill="#099CEC"/>
<path d="M38.2028 26.8928H31.122V33.2581H38.2028V26.8928Z" fill="#099CEC"/>
<path d="M29.84 19.1562H22.7592V25.596H29.84V19.1562Z" fill="#099CEC"/>
<path d="M46.5806 26.8779H39.4999V33.2431H46.5806V26.8779Z" fill="#099CEC"/>
<path d="M38.2028 11.375H31.122V17.8744H38.2028V11.375Z" fill="#099CEC"/>
<path d="M21.4627 19.1562H14.382V25.596H21.4627V19.1562Z" fill="#099CEC"/>
<path d="M29.84 26.8779H22.7592V33.2431H29.84V26.8779Z" fill="#099CEC"/>
<path d="M67.8525 29.8745C66.3022 28.8311 62.7544 28.4584 60.0264 28.9801C59.6687 26.4162 58.2376 24.1652 55.6289 22.1528L54.1233 21.1541L53.1246 22.6596C51.1569 25.641 50.6202 30.5454 52.7221 33.7801C51.7829 34.287 49.9643 34.9727 47.5345 34.928H0.980463C0.0413325 40.369 1.60655 47.4348 5.69102 52.2944C9.65624 56.9901 15.619 59.3752 23.4152 59.3752C40.2749 59.3752 52.7668 51.6087 58.5954 37.4919C60.891 37.5367 65.8401 37.5068 68.3742 32.6472C68.5382 32.3789 69.0749 31.2311 69.2836 30.8137L67.8525 29.8745Z" fill="#099CEC"/>
<path d="M13.1149 26.8779H13.1H6.03412V33.2431H13.1149V26.8779Z" fill="#099CEC"/>
<path d="M21.4627 26.8779H14.382V33.2431H21.4627V26.8779Z" fill="#099CEC"/>
<path d="M138.247 54.477C137.983 54.2134 137.718 53.9498 137.277 53.6861C137.189 53.6861 137.013 53.5104 136.748 53.4225C136.483 53.2468 136.219 53.1589 136.042 52.9831C135.866 52.8952 135.69 52.6316 135.425 52.368C135.161 52.1044 134.984 51.7528 134.808 51.4892C134.631 51.1377 134.543 50.7862 134.367 50.2589C134.191 49.7317 134.102 49.1165 134.102 48.5014C133.838 48.765 133.661 49.2923 133.661 49.9953C133.661 50.6983 133.75 51.4892 134.102 52.2801C134.455 53.071 134.984 53.5983 135.69 53.774C136.395 54.0377 136.924 54.2134 137.277 54.477C137.718 54.7407 137.983 55.0043 138.071 55.3558C138.159 55.7073 137.983 56.0588 137.454 56.4103C136.924 56.7618 136.131 57.2012 135.072 57.5527C133.573 58.08 132.427 58.5194 131.809 58.8709C131.192 59.2224 130.222 59.9254 128.987 60.9799C128.194 61.6829 127.223 62.0345 126.342 62.1223C125.372 62.2102 124.666 61.8587 124.049 61.0678C123.431 60.3648 123.255 59.3103 123.52 57.9042C123.872 55.2679 123.872 53.2468 123.52 51.7529C123.167 50.6105 123.079 49.5559 123.343 48.6772C123.52 47.7984 123.784 47.2711 124.225 47.1833C124.578 47.0075 125.019 47.359 125.548 48.1499C125.548 48.2378 125.724 48.5014 125.812 48.765C125.989 49.0287 126.077 49.2923 126.165 49.3802C126.253 49.4681 126.43 49.6438 126.606 49.9074C126.783 50.0832 127.047 50.2589 127.312 50.3468C127.576 50.4347 127.929 50.5226 128.282 50.5226C128.987 50.5226 129.605 50.4347 130.222 50.0832C130.751 49.7317 131.192 49.3802 131.457 49.0287C131.721 48.6772 131.986 48.2378 132.339 47.8863C132.603 47.5348 132.868 47.359 133.044 47.2711C133.309 47.2711 133.485 47.0075 133.661 46.5681C133.838 46.1287 134.014 45.6015 134.014 44.8106C134.102 44.1076 134.014 43.1409 133.838 42.1743C133.485 40.3288 132.868 38.3956 131.986 36.1986C131.016 34.0017 130.046 32.332 128.899 31.1018C126.871 28.9048 125.46 26.62 124.754 24.2474C124.049 21.7868 123.696 19.502 123.784 17.5687C123.872 16.1627 123.608 14.5809 122.902 12.9112C122.02 11.2416 121.05 10.0113 119.816 9.13254C119.022 8.60528 118.14 8.16589 116.993 7.81438C115.935 7.46288 114.877 7.375 113.73 7.375C112.408 7.375 111.261 7.55075 110.467 8.07802C108.792 8.95678 107.734 10.0992 107.116 11.3295C106.587 12.6476 106.322 14.2294 106.322 16.0748C106.411 20.205 106.587 23.4565 106.852 25.8292C106.587 26.8837 105.264 28.9927 102.971 31.9805C102.53 32.4199 102.178 32.9472 101.737 33.6502C101.384 34.3532 101.031 34.9684 100.767 35.5835C100.502 36.1108 100.237 36.9895 99.8846 38.0441C99.5319 39.0986 99.1791 39.8895 99.0909 40.3288C98.9145 40.6804 98.7382 41.1197 98.3854 41.647C98.0326 42.1743 97.8563 42.6137 97.5917 43.1409C97.4153 43.5803 97.3271 44.1954 97.2389 44.8106C97.2389 45.25 97.2389 45.6893 97.3271 46.0409C97.4153 46.5681 97.5917 46.7439 97.7681 46.4802C98.7382 45.7772 99.8846 46.2166 101.296 47.7105C102.266 48.765 104.03 51.3135 106.587 55.2679C106.763 55.6194 107.028 55.9709 107.204 56.4103C107.381 56.8497 107.645 57.377 107.822 58.08C107.998 58.783 108.086 59.3981 108.086 59.9254C108.086 60.4527 107.822 60.9799 107.381 61.4193C106.94 61.8587 106.234 62.2102 105.352 62.2981C104.911 62.386 104.294 62.2981 103.589 62.2102C102.883 62.0345 102.089 61.8587 101.031 61.5072C99.9728 61.1557 99.1791 60.9799 98.7382 60.8042C98.0326 60.6284 96.9744 60.4527 95.6515 60.189C94.3287 59.9254 93.4468 59.7497 93.0058 59.5739C92.3003 59.3981 91.9475 59.1345 91.8594 58.783C91.8594 58.3436 91.9475 57.8164 92.3885 57.1133C92.7413 56.4103 92.9176 55.8831 92.9176 55.6194C92.9176 55.3558 92.9176 55.18 92.9176 54.9164C92.9176 54.6528 92.8294 54.477 92.7413 54.3892C92.6531 54.3013 92.5649 54.0377 92.4767 53.8619C92.3885 53.5983 92.3003 53.4225 92.2121 53.3346C91.8594 52.4559 91.7712 51.8407 92.0357 51.5771C92.2121 51.3135 92.6531 51.2256 93.3586 51.2256C94.4169 51.3135 95.2988 51.1377 95.9161 50.7862C97.0626 50.0832 97.3271 49.0287 96.8862 47.4469C96.8862 48.1499 96.798 48.6772 96.5334 49.0287C96.2688 49.3802 95.8279 49.7317 95.2106 50.1711C94.8578 50.3468 94.2405 50.5226 93.3586 50.5226C92.4767 50.5226 91.8594 50.6983 91.5948 50.962C91.4184 51.1377 91.242 51.4013 91.242 51.8407C91.242 52.1922 91.242 52.6316 91.4184 52.9831C91.5066 53.3346 91.5948 53.774 91.7712 54.3013C91.8594 54.6528 91.8594 55.0922 91.8594 55.3558C91.8594 55.6194 91.683 56.1467 91.3302 57.0255C90.9775 57.9042 90.8893 58.6073 91.1538 59.1345C91.242 59.3981 91.4184 59.5739 91.683 59.7496C91.8594 60.0133 92.2121 60.1012 92.6531 60.2769C93.094 60.3648 93.535 60.5405 93.8877 60.5405C94.2405 60.6284 94.7696 60.7163 95.4751 60.8042C96.1807 60.8921 96.7098 60.9799 97.0626 61.0678C98.3854 61.3314 99.8846 61.7708 101.648 62.386C103.324 63.0011 104.559 63.3526 105.088 63.3526C105.705 63.3526 106.234 63.2647 106.763 63.0011C107.293 62.7375 107.734 62.4738 108.086 62.1223C108.439 61.7708 109.056 61.5072 109.762 61.1557C110.467 60.8921 111.349 60.7163 112.231 60.7163C112.672 60.7163 113.289 60.6284 114.083 60.6284C114.877 60.6284 115.494 60.5405 115.847 60.5405C117.611 60.5405 119.022 60.5405 119.904 60.5405C120.521 60.5405 121.05 60.6284 121.403 60.8042C121.756 60.9799 122.02 61.1557 122.108 61.4193C122.197 61.6829 122.373 61.9466 122.638 62.2102C122.902 62.4738 123.167 62.7375 123.52 62.9132C124.313 63.2647 125.283 63.4405 126.342 63.3526C127.4 63.2647 128.105 63.089 128.458 62.7375C129.075 62.2102 129.869 61.5072 130.839 60.7163C131.809 59.9254 132.691 59.3981 133.485 58.9588C133.661 58.8709 133.926 58.6951 134.367 58.5194C134.72 58.3436 135.072 58.1679 135.337 57.9921C135.602 57.8164 135.954 57.6406 136.307 57.4649C136.66 57.2891 137.013 57.0255 137.277 56.8497C137.542 56.674 137.718 56.4982 137.983 56.2346C138.247 55.9709 138.424 55.7952 138.512 55.5316C138.6 55.7073 138.6 55.4437 138.6 55.18C138.6 55.0043 138.424 54.7407 138.247 54.477ZM121.403 24.1595C121.491 24.1595 121.491 24.0716 121.491 24.0716L121.579 24.1595C121.668 24.2474 121.668 24.3352 121.756 24.3352C121.844 24.4231 121.844 24.511 121.932 24.5989C122.02 24.6868 122.108 24.7746 122.197 24.8625C122.285 24.9504 122.461 25.0383 122.638 25.0383C122.814 25.0383 122.99 25.1261 123.079 25.214C123.167 25.3019 123.255 25.3898 123.255 25.5655C123.255 25.8292 123.255 26.0049 123.167 26.1807C123.079 26.3564 122.902 26.4443 122.726 26.4443C122.373 26.3564 121.932 26.0049 121.491 25.4776C121.227 24.9504 121.138 24.511 121.403 24.1595ZM117.523 11.9446C117.611 11.7688 117.699 11.681 117.699 11.5931C117.699 11.5052 117.787 11.3295 117.699 11.2416C117.611 11.1537 117.699 10.978 117.699 10.8022C117.787 10.6264 117.875 10.6264 118.052 10.5386C118.228 10.5386 118.493 10.7143 118.845 10.978C118.934 10.978 119.022 11.0658 119.11 11.1537C119.286 11.2416 119.375 11.3295 119.375 11.3295C119.463 11.4173 119.463 11.4173 119.463 11.5052C119.463 11.5931 119.286 11.681 119.198 11.7688C119.022 11.7688 118.934 11.8567 118.757 11.8567C118.581 11.8567 118.493 11.8567 118.493 11.8567C118.316 11.9446 118.14 12.0325 118.052 12.1204C117.875 12.2082 117.787 12.384 117.699 12.384C117.611 12.4719 117.523 12.4719 117.434 12.384C117.346 12.2961 117.346 12.2082 117.346 12.1204C117.434 12.2082 117.434 12.1204 117.523 11.9446ZM102.442 35.4077C102.619 35.232 102.707 35.1441 102.795 34.9684C102.883 34.8805 102.883 34.7047 102.971 34.529C103.059 34.3532 103.059 34.1775 103.148 34.1775C103.148 34.0896 103.236 34.0896 103.324 34.0896C103.324 34.0896 103.412 34.0896 103.412 34.1775C103.412 34.2653 103.412 34.2653 103.412 34.2653V34.4411C103.412 34.529 103.412 34.529 103.324 34.6168C103.324 34.6168 103.324 34.7047 103.236 34.7926C103.236 34.8805 103.236 34.9684 103.148 34.9684C103.059 35.1441 102.971 35.4077 102.795 35.4956C102.619 35.6714 102.53 35.7592 102.442 35.6714C102.266 35.7592 102.266 35.6714 102.442 35.4077ZM122.638 52.4559C122.814 53.5104 122.902 54.3013 122.814 54.7407C122.814 55.4437 122.638 56.3224 122.373 57.5527C122.108 58.783 122.02 59.5739 121.932 59.9254C121.491 59.9254 121.227 59.7497 121.138 59.3981C121.05 59.1345 121.138 58.6951 121.315 58.2557C121.756 56.8497 122.02 55.8831 122.02 55.3558C122.02 54.3892 121.932 53.8619 121.668 53.6861C121.403 53.5104 121.05 53.8619 120.609 54.6528C119.727 56.1467 117.875 57.0255 115.053 57.377C112.584 57.7285 110.82 57.377 109.85 56.2346C109.674 56.0588 109.409 56.0588 109.233 56.1467C109.056 56.2346 108.88 56.3225 108.792 56.4103C108.792 56.4103 108.792 56.4982 108.88 56.5861C108.968 56.674 109.056 56.7618 109.145 56.9376C109.321 57.1133 109.409 57.2891 109.497 57.4649C110.291 58.8709 110.203 59.8375 109.321 60.3648C109.321 59.3981 109.233 58.6951 109.145 58.1679C108.968 57.6406 108.704 57.1133 108.263 56.4982C107.822 55.8831 107.557 55.4437 107.381 55.0922C107.998 55.0043 108.439 54.8285 108.792 54.3892C109.145 53.9498 109.233 53.5104 109.233 53.071C109.233 52.6316 109.056 52.1922 108.704 51.8407C108.527 51.665 107.557 50.8741 105.793 49.468C104.03 48.062 102.971 47.0954 102.53 46.656C102.442 46.5681 102.178 46.3924 101.737 46.0409C101.296 45.6893 101.031 45.4257 100.943 45.1621C99.9728 43.053 99.8846 41.2955 100.59 39.9773L100.678 39.8016C100.767 39.8016 100.767 39.9773 100.678 40.3288C100.59 40.944 100.502 41.4712 100.59 42.0864C100.678 43.4045 101.031 44.3712 101.737 45.0742C102.178 45.5136 102.442 45.5136 102.619 44.9863C102.707 44.8106 102.795 44.1954 102.795 43.1409C102.795 42.0864 102.795 41.3834 102.883 40.944C103.059 39.7137 103.589 38.3077 104.382 36.5501C105.176 34.7926 105.882 33.826 106.322 33.7381C105.97 33.1229 105.793 32.5078 105.97 31.7169C106.146 31.0139 106.322 30.3988 106.587 29.8715C106.852 29.3442 107.204 28.817 107.469 28.114C107.822 27.4109 107.91 26.8837 107.91 26.3564C107.91 26.1807 107.91 26.0928 107.91 26.0049C107.998 25.8292 108.263 26.0049 108.704 26.7079C109.586 28.0261 110.203 28.7291 110.644 28.9927C111.085 29.2564 111.614 29.2564 112.143 28.9927C112.672 28.7291 113.378 28.2897 114.26 27.6746C115.053 27.0594 115.759 26.62 116.376 26.2685C116.464 26.2685 116.553 26.1807 116.641 26.0928C116.817 26.0049 116.905 26.0049 116.993 25.917C117.082 25.917 117.17 25.8292 117.258 25.7413C117.346 25.6534 117.434 25.6534 117.523 25.5655C117.611 25.5655 117.611 25.4776 117.699 25.3898C117.787 25.3019 117.787 25.3019 117.787 25.214C117.787 25.1261 117.787 25.1261 117.787 25.0383C117.787 24.8625 117.699 24.7746 117.523 24.6868C117.346 24.6868 117.17 24.6868 116.993 24.7746C116.729 24.8625 116.464 25.0383 116.2 25.1261C115.935 25.3019 115.582 25.4776 115.23 25.6534C114.877 25.8292 114.524 26.0049 114.171 26.1807C113.819 26.3564 113.466 26.5322 113.025 26.62C112.672 26.7079 112.231 26.7958 111.878 26.8837C110.997 26.8837 110.291 26.7079 109.762 26.1807C109.409 25.8292 109.233 25.6534 109.233 25.5655C109.233 25.4776 109.321 25.4776 109.497 25.4776C110.644 25.6534 111.438 25.6534 111.967 25.5655C112.496 25.4776 113.201 25.214 114.171 24.8625C114.348 24.7746 114.877 24.5989 115.582 24.2474C116.376 23.8959 116.905 23.7201 117.346 23.5444C117.611 23.4565 117.787 23.3686 117.875 23.2807C117.964 23.105 117.964 23.0171 117.964 22.9292C117.964 22.8413 117.875 22.7535 117.787 22.6656C117.523 22.5777 117.346 22.6656 117.17 22.9292C117.082 23.105 116.817 23.2807 116.553 23.4565C116.2 23.6322 115.935 23.808 115.671 23.8959C115.406 23.9837 115.053 24.0716 114.612 24.2474C114.171 24.3352 113.907 24.4231 113.907 24.511C112.76 24.8625 111.702 25.0383 110.732 24.9504C110.291 24.9504 109.938 24.8625 109.586 24.7746C109.321 24.6868 109.145 24.511 108.968 24.3352C108.88 24.1595 108.704 23.9837 108.439 23.7201C108.174 23.4565 107.91 23.2807 107.645 23.105C107.469 23.0171 107.381 22.8413 107.381 22.5777C107.469 22.3141 107.557 22.0504 107.822 21.6989C107.822 21.6989 108.086 21.5232 108.439 21.3474C108.88 21.0838 109.145 20.8202 109.321 20.6444C109.497 20.3808 109.85 20.0293 110.291 19.7656C110.291 19.6778 110.291 19.4141 110.379 19.0626C110.379 18.7111 110.291 18.2717 110.115 17.8324C109.938 17.393 109.586 17.2172 109.233 17.2172C108.704 17.2172 108.351 17.3051 108.174 17.6566C107.998 18.0081 107.91 18.3596 107.91 18.799C107.91 19.2384 107.998 19.5899 108.174 19.8535C108.351 20.1172 108.527 20.2929 108.704 20.2929C108.968 20.2929 108.968 20.3808 108.88 20.5565C108.792 20.8202 108.615 20.908 108.351 20.9959C108.174 20.9959 108.086 20.908 107.822 20.5565C107.645 20.205 107.469 19.8535 107.381 19.4141C107.293 18.9748 107.293 18.5354 107.293 18.2717C107.293 17.6566 107.469 17.0415 107.822 16.4263C108.086 15.8112 108.527 15.5476 109.145 15.5476C109.762 15.5476 110.203 15.8991 110.556 16.6021C110.908 17.3051 111.085 18.2717 111.085 19.4141C111.173 19.5899 111.349 19.5899 111.614 19.5899C111.878 19.5899 112.231 19.502 112.672 19.5899C113.113 19.5899 113.378 19.7656 113.554 19.9414C113.554 19.9414 113.554 19.7656 113.554 19.502C113.201 16.8657 114.083 15.4597 116.376 15.2839C116.729 15.3718 116.993 15.4597 117.258 15.5476C117.523 15.6354 117.699 15.8112 117.964 15.9869C118.228 16.1627 118.405 16.5142 118.581 16.9536C118.757 17.393 118.934 17.9202 119.022 18.5354V19.6778C119.022 20.3808 118.845 20.7323 118.581 20.8202C118.14 20.9959 117.787 20.9959 117.611 20.8202C117.434 20.6444 117.434 20.3808 117.699 20.0293C117.875 19.502 117.875 18.8869 117.611 18.1839C117.346 17.4808 116.817 17.2172 116.023 17.2172C115.494 17.2172 115.141 17.4808 114.877 18.096C114.612 18.6232 114.524 19.1505 114.612 19.6778C114.701 20.205 114.789 20.4687 114.965 20.4687C115.053 20.4687 115.494 20.6444 116.112 20.9959C116.729 21.3474 117.17 21.5232 117.523 21.5232C118.316 21.6989 118.757 21.9626 118.934 22.3141C119.022 22.6656 119.022 23.1928 118.757 23.8959C118.581 24.5989 118.493 25.1261 118.581 25.5655C118.669 26.0049 118.845 26.4443 119.022 26.7958C119.286 27.1473 119.463 27.4988 119.727 27.8503C119.992 28.2018 120.256 28.7291 120.609 29.6079C120.962 30.4866 121.315 31.5412 121.579 32.8593C121.579 32.8593 121.668 32.9472 121.844 33.1229C122.02 33.2108 122.108 33.3866 122.285 33.5623C122.461 33.7381 122.549 34.0017 122.814 34.3532C122.99 34.7047 123.167 35.1441 123.431 35.7592C123.608 36.3744 123.872 37.0774 124.049 37.9562C124.313 38.9228 124.401 40.0652 124.401 41.2955C124.401 42.6137 124.49 43.4045 124.666 43.9318C124.842 44.3712 125.195 44.6348 125.901 44.5469C126.694 44.5469 127.224 44.1076 127.488 43.2288C128.194 40.7682 127.576 37.8683 125.812 34.529C125.107 33.2108 124.49 32.332 124.049 31.8927C124.754 32.332 125.548 33.1229 126.342 34.2653C127.135 35.4077 127.576 36.4623 127.841 37.5168C127.841 37.6047 127.929 37.8683 128.017 38.3077C128.105 38.7471 128.194 39.0107 128.194 39.0986C128.194 39.1865 128.282 39.3622 128.282 39.7137C128.37 40.0652 128.37 40.3288 128.37 40.4167C128.37 40.5046 128.37 40.7682 128.37 41.0319C128.37 41.2955 128.37 41.5591 128.37 41.7349C128.37 41.9106 128.282 42.0864 128.282 42.4379C128.282 42.7015 128.194 42.9652 128.105 43.2288C128.017 43.4924 127.929 43.7561 127.841 44.1076C128.987 44.6348 129.605 45.0742 129.605 45.4257C129.164 45.0742 128.546 44.8106 127.753 44.7227C126.959 44.6348 126.165 44.7227 125.46 45.0742C124.754 45.4257 124.401 45.953 124.401 46.7439C123.608 46.7439 123.079 46.9196 122.814 47.2711C122.373 47.7984 122.108 48.5893 122.108 49.468C122.461 50.3468 122.461 51.4013 122.638 52.4559ZM109.762 18.4475C109.674 18.4475 109.674 18.3596 109.586 18.2717C109.586 18.096 109.674 18.0081 109.85 18.096C109.938 18.096 110.115 18.2717 110.203 18.5354C110.379 18.799 110.379 19.0626 110.379 19.4141C110.379 19.502 110.379 19.502 110.291 19.502C110.026 19.502 109.938 19.3263 110.026 18.8869C110.026 18.6232 109.938 18.4475 109.762 18.4475ZM117.875 18.8869L117.787 18.9748C117.611 19.0626 117.523 19.0626 117.523 19.0626C117.434 18.5354 117.258 18.1839 116.993 18.096L116.905 18.0081C116.729 17.9202 116.817 17.8324 117.082 17.7445C117.17 17.7445 117.258 17.7445 117.346 17.8324C117.434 17.9202 117.611 18.0081 117.699 18.1839C117.787 18.4475 117.875 18.7111 117.875 18.8869Z" fill="#333333"/>
<path d="M110.558 20.7321C110.558 20.82 110.646 20.9078 110.734 20.9078C110.822 20.9078 110.91 20.82 110.999 20.6442C111.087 20.4684 111.263 20.2927 111.439 20.2927H111.087C110.822 20.2927 110.558 20.4684 110.558 20.7321Z" fill="#333333"/>
<path d="M113.291 20.381C113.468 20.2931 113.644 20.381 113.82 20.5568C113.997 20.7325 114.085 20.8204 114.173 20.7325C114.261 20.6446 114.35 20.5568 114.261 20.4689C114.173 20.1174 113.82 20.1174 113.291 20.381Z" fill="#333333"/>
<path d="M182.333 11.0271L159 13.6197V34.1801H182.333V11.0271Z" fill="#EF5634"/>
<path d="M182.333 36.5923H159V57.1527L182.333 59.7453V36.5923Z" fill="#25A7EC"/>
<path d="M184.667 60.0046L215 63.3749V36.5923H184.667V60.0046Z" fill="#FDBA37"/>
<path d="M184.667 10.7454L215 7.375V34.1576H184.667V10.7454Z" fill="#90C300"/>
</svg>
