<svg width="70" height="48" viewBox="0 0 70 48" fill="none" xmlns="http://www.w3.org/2000/svg">
<path d="M31.4969 27.931H20.2539V21.8276C23.1267 20.9586 26.6608 20.7517 31.4969 21C33.7703 21.1241 35.155 22.4069 35.2997 24.4552C35.4237 26.4 33.6256 27.931 31.4969 27.931ZM38.2344 16.3448C39.9291 14.5241 41.3345 12.5793 41.3345 9.53793C41.3345 4.67586 37.0771 0 30.6289 0H12.8757V6.84827V14.8345C15.1284 13.6138 17.5878 12.7655 20.2539 12.269V7.13793H30.5462C32.3856 7.13793 33.8736 8.68965 33.8736 10.5931C33.8736 12.4966 32.3856 14.0483 30.5462 14.0483H26.2681C18.9312 14.0483 12.5037 16.2 7.1302 22.531V9.74483H0V35.0483H7.1302C9.2796 31.6138 11.057 28.9448 12.8757 26.8759V35.0483H31.4969C37.7797 35.0483 42.8432 30.6621 42.8432 24.4552C42.8432 20.5655 40.9832 17.9793 38.2344 16.3448Z" fill="#0A2D6E"/>
<path d="M7.1302 0H0V7.13793H7.1302V0Z" fill="#5AC3CD"/>
<path d="M12.8757 26.8758V28.2827C16.8852 23.9793 20.1713 24.4552 20.254 24.4758V21.8483C17.3192 22.7379 15.0871 24.331 12.8757 26.8758Z" fill="#051937"/>
<path d="M53.2802 27.931V0H45.902V35.0483H70V27.931H53.2802Z" fill="#0A2D6E"/>
<path d="M2.52141 43.0552V47.9172H1.55004V43.0552H0V42.1862H4.05078V43.0552H2.52141Z" fill="#0A2D6E"/>
<path d="M5.82816 45C5.82816 46.1793 6.05549 47.1724 7.29553 47.1724C8.53556 47.1724 8.7629 46.1793 8.7629 45C8.7629 43.8207 8.53556 42.9103 7.29553 42.9103C6.05549 42.9103 5.82816 43.8207 5.82816 45ZM4.81546 45C4.81546 43.3862 5.31147 42.1035 7.3162 42.1035C9.30025 42.1035 9.81693 43.4069 9.81693 45C9.81693 46.6345 9.32092 48 7.3162 48C5.31147 48 4.81546 46.6345 4.81546 45Z" fill="#0A2D6E"/>
<path d="M10.7882 45C10.7882 43.3862 11.2843 42.1035 13.289 42.1035C13.9503 42.1035 14.529 42.1862 15.273 42.4138L15.0457 43.2414C14.157 43.0345 13.8057 42.9931 13.351 42.9931C12.1523 42.9931 11.8009 43.8414 11.8009 45.0207C11.8009 46.2828 12.1523 47.131 13.351 47.131C13.723 47.131 14.0123 47.0483 14.281 46.9035V45.7655H13.289V44.8966H15.2524V47.5862C14.6117 47.8345 14.0537 48 13.2683 48C11.2843 48 10.7882 46.6552 10.7882 45Z" fill="#0A2D6E"/>
<path d="M20.2745 43.0552H17.5051V44.5035H19.9025V45.3931H17.5051V47.0483H20.3159V47.9172H16.5131V42.1862H20.2745V43.0552Z" fill="#0A2D6E"/>
<path d="M23.7673 43.0552V47.9172H22.796V43.0552H21.2459V42.1862H25.3174V43.0552H23.7673Z" fill="#0A2D6E"/>
<path d="M26.3094 47.9172V42.1862H27.2808V44.5035H29.7195V42.1862H30.6909V47.9172H29.7195V45.3931H27.2808V47.9172H26.3094Z" fill="#0A2D6E"/>
<path d="M35.7544 43.0552H32.9643V44.5035H35.3617V45.3931H32.9643V47.0483H35.7957V47.9172H31.9929V42.1862H35.7544V43.0552Z" fill="#0A2D6E"/>
<path d="M37.8624 44.9173H39.1438C39.7018 44.9173 40.1151 44.6483 40.1151 43.9862C40.1151 43.3655 39.7431 43.0759 39.1851 43.0759H37.8624V44.9173ZM40.1565 47.9172L38.8751 45.7862H37.8417V47.9172H36.8704V42.1862H39.2678C40.4251 42.1862 41.0865 42.9104 41.0865 43.9862C41.0865 44.7724 40.6938 45.4345 39.8878 45.6207L41.2931 47.9172H40.1565Z" fill="#0A2D6E"/>
</svg>
