<svg width="113" height="34" viewBox="0 0 113 34" fill="none" xmlns="http://www.w3.org/2000/svg">
<g clip-path="url(#clip0)">
<path d="M19.8725 13.2881H13.6146C11.3907 13.2881 10.1218 13.6262 10.1218 16.7002V19.7786C10.1218 21.8731 10.7294 23.1758 12.9099 23.1758H14.6841C16.6397 23.1758 17.0984 22.4138 17.0984 20.782V17.7646C17.0984 16.7157 17.9424 15.8564 18.9761 15.8564H22.7851C23.8169 15.8564 24.6628 16.7157 24.6628 17.7646V20.5743C24.6628 23.168 26.6504 22.9668 28.3626 22.9668H32.9083C34.3911 22.9668 35.6044 24.1993 35.6044 25.7051V31.2623C35.6044 32.7681 34.3911 34.0013 32.9083 34.0013H27.4394C25.9566 34.0013 24.744 32.7688 24.744 31.2623V26.7092C24.744 24.7017 24.3166 23.5412 21.8307 23.5412H20.3587C18.6049 23.5412 17.446 24.0319 17.446 26.2023V29.0445C17.446 30.1115 16.588 30.9813 15.5389 30.9813H11.6718C10.6221 30.9813 9.7647 30.1109 9.7647 29.0445V26.3944C9.7647 23.9007 8.48438 23.2497 6.09623 23.2497H2.51145C1.13082 23.2484 0 22.1003 0 20.6957V15.5169C0 14.1143 1.13082 12.9642 2.51145 12.9642H6.38309C9.27276 12.9642 9.89248 11.9212 9.89248 9.42232V3.14922C9.89248 1.78556 10.9907 0.669189 12.3337 0.669189H19.8725C21.2148 0.669189 22.313 1.78556 22.313 3.14922V10.808C22.313 12.1717 21.2148 13.2881 19.8725 13.2881Z" fill="#00ADEE"/>
<path d="M110.828 30.2855H110.418V32.5416H110.837V31.3149C110.837 30.8735 110.952 30.7749 111.014 30.7126C111.191 30.5334 111.421 30.5451 111.421 30.5451C111.775 30.5451 111.931 30.7476 111.931 31.1208V32.541H112.35V30.9813C112.35 30.2589 111.665 30.218 111.509 30.218C111.288 30.218 110.978 30.3348 110.837 30.6172H110.828V30.2855H110.828ZM108.162 31.1974C108.162 30.8294 108.37 30.5276 108.719 30.5276C109.128 30.5276 109.296 30.8197 109.286 31.1974H108.162ZM109.728 31.494V31.2831C109.728 30.6581 109.415 30.2323 108.751 30.218C108.049 30.218 107.721 30.771 107.721 31.4311C107.721 32.0964 108.003 32.6085 108.716 32.6085C109.247 32.6085 109.636 32.3521 109.703 31.8393H109.26C109.213 32.1678 109.049 32.2982 108.721 32.2982C108.291 32.2982 108.132 31.8887 108.163 31.4934H109.728V31.494ZM106.636 30.6224C106.636 30.6542 106.577 30.5244 106.569 30.5146C106.432 30.3089 106.192 30.2186 105.975 30.2186C105.303 30.2186 104.944 30.7301 104.944 31.3824C104.944 32.0165 105.215 32.502 105.892 32.502C106.166 32.502 106.489 32.3891 106.621 32.1204H106.636C106.621 32.6273 106.621 33.1316 106.025 33.1316C105.728 33.1316 105.524 33.0141 105.506 32.713H105.066C105.07 33.2348 105.41 33.4405 105.888 33.4405C106.701 33.4405 107.056 33.1043 107.056 32.2768V30.6905C107.056 30.5549 107.069 30.4205 107.082 30.2861H106.648L106.636 30.6224ZM105.387 31.359C105.387 31.004 105.519 30.5276 106.011 30.5276C106.467 30.5276 106.637 30.9229 106.637 31.359C106.637 31.7952 106.467 32.1911 106.011 32.1911C105.519 32.1918 105.387 31.7141 105.387 31.359ZM102.76 30.2855H102.349V32.5416H102.768V31.3149C102.768 30.8735 102.883 30.7749 102.945 30.7126C103.122 30.5334 103.352 30.5451 103.352 30.5451C103.708 30.5451 103.861 30.7476 103.861 31.1208V32.541H104.281V30.9813C104.281 30.2589 103.596 30.218 103.442 30.218C103.22 30.218 102.911 30.3348 102.768 30.6172H102.759V30.2855H102.76ZM101.068 29.7598H101.568V29.2976H101.068V29.7598ZM101.528 30.2855H101.108V32.5423H101.528V30.2855ZM99.2186 30.2725V30.5912L99.5994 30.586V32.0198C99.5994 32.3216 99.6205 32.3307 99.6965 32.4384C99.7674 32.5371 99.8773 32.5728 99.9438 32.587C100.045 32.6046 100.125 32.6098 100.227 32.6098C100.325 32.6098 100.417 32.587 100.514 32.5818V32.2547C100.447 32.2722 100.359 32.2813 100.293 32.2813C100.143 32.2813 100.018 32.2054 100.018 32.0431V30.5867L100.532 30.5919V30.2732L100.018 30.2868V29.6715L99.5988 29.8065V30.2868L99.2186 30.2725ZM97.523 30.2725V30.5912L97.9051 30.586V32.0198C97.9051 32.3216 97.9262 32.3307 98.0009 32.4384C98.0706 32.5371 98.1817 32.5728 98.2495 32.587C98.3504 32.6046 98.4303 32.6098 98.5312 32.6098C98.6283 32.6098 98.7222 32.587 98.8181 32.5818V32.2547C98.7516 32.2722 98.6635 32.2813 98.597 32.2813C98.4475 32.2813 98.3236 32.2054 98.3236 32.0431V30.5867L98.8366 30.5919V30.2732L98.3236 30.2868V29.6715L97.9045 29.8065V30.2868L97.523 30.2725ZM95.3968 31.4129C95.3968 30.932 95.5604 30.5276 96.0606 30.5276C96.5596 30.5276 96.7244 30.932 96.7244 31.4129C96.7244 31.8939 96.5596 32.2989 96.0606 32.2989C95.5604 32.2995 95.3968 31.8945 95.3968 31.4129ZM96.0606 30.2186C95.3291 30.2186 94.9541 30.7132 94.9541 31.4136C94.9541 32.1152 95.3298 32.6098 96.0606 32.6098C96.7909 32.6098 97.1659 32.1152 97.1659 31.4136C97.1659 30.7126 96.7909 30.2186 96.0606 30.2186ZM95.8383 29.297H95.4365V29.7546H95.8383V29.297ZM96.6708 29.297H96.2676V29.7546H96.6708V29.297ZM94.2373 30.1057C94.2098 29.4813 93.6131 29.2295 93.0732 29.2295C92.5289 29.2295 92.06 29.4275 91.7827 29.9207C91.6191 30.2135 91.508 30.5821 91.508 30.919C91.508 31.3772 91.6313 31.9211 91.9846 32.2366C92.334 32.5494 92.7007 32.6085 93.1524 32.6085C93.5153 32.6085 93.884 32.5312 94.2494 32.4196V30.8151H93.0828V31.2013H93.8079V32.1191C93.6048 32.1866 93.3876 32.2216 93.1703 32.2216C92.2554 32.2041 92.0076 31.7504 91.9711 30.9183C91.9539 30.3108 92.2369 29.6144 93.0208 29.6144C93.3614 29.6144 93.6936 29.7176 93.7734 30.1044H94.2373V30.1057ZM87.6242 32.5416V31.0767H89.1415V32.5416H89.583V29.297H89.1415V30.6899H87.6242V29.297H87.1814V32.5416H87.6242ZM84.7978 32.2047L84.7888 32.182H84.7978C84.9473 32.4962 85.2392 32.6091 85.5625 32.6091C86.2225 32.6091 86.487 31.9938 86.487 31.4129C86.487 30.8015 86.1777 30.218 85.4878 30.218C85.206 30.218 84.9249 30.3212 84.7978 30.5906H84.7888V29.2963H84.3684V32.1814C84.3684 32.2716 84.3557 32.4066 84.3473 32.541H84.7805L84.7978 32.2047ZM86.0455 31.4129C86.0455 31.8354 85.8909 32.2989 85.4181 32.2989C84.9089 32.2989 84.7895 31.8354 84.7895 31.4129C84.7895 31.004 84.9402 30.5276 85.4181 30.5276C85.9222 30.5276 86.0455 30.9904 86.0455 31.4129ZM80.5741 30.2855H80.162V32.5416H80.5824V31.3817C80.5824 31.3279 80.5652 31.0313 80.6124 30.9144C80.7408 30.6126 80.9894 30.5458 81.1625 30.5458C81.5644 30.5458 81.6532 30.8158 81.6532 31.2065V32.5423H82.0723V31.3817C82.0723 31.3279 82.0595 31.1033 82.1183 30.8969C82.1969 30.6178 82.4799 30.5458 82.6089 30.5458C83.1009 30.5458 83.1443 30.8969 83.1443 31.2065V32.5423H83.5634V30.9514C83.5634 30.5464 83.2504 30.2193 82.7374 30.2193C82.4103 30.2193 82.1573 30.3627 81.9975 30.6412C81.8825 30.3621 81.6372 30.2193 81.2149 30.2193C80.9887 30.2193 80.7147 30.327 80.5824 30.61H80.5735V30.2855H80.5741ZM77.7566 30.6224C77.7566 30.6542 77.6991 30.5244 77.6902 30.5146C77.5515 30.3089 77.3132 30.2186 77.096 30.2186C76.4233 30.2186 76.0668 30.7301 76.0668 31.3824C76.0668 32.0165 76.3364 32.502 77.0123 32.502C77.287 32.502 77.6103 32.3891 77.7426 32.1204H77.756C77.7426 32.6273 77.7426 33.1316 77.1446 33.1316C76.8488 33.1316 76.6443 33.0141 76.6277 32.713H76.185C76.1901 33.2348 76.5293 33.4405 77.0085 33.4405C77.8218 33.4405 78.1764 33.1043 78.1764 32.2768V30.6905C78.1764 30.5549 78.1891 30.4205 78.2026 30.2861H77.7694L77.7566 30.6224ZM76.5082 31.359C76.5082 31.004 76.6405 30.5276 77.1324 30.5276C77.588 30.5276 77.7566 30.9229 77.7566 31.359C77.7566 31.7952 77.588 32.1911 77.1324 32.1911C76.6405 32.1918 76.5082 31.7141 76.5082 31.359ZM73.8818 30.2855H73.4716V32.5416H73.8907V31.3149C73.8907 30.8735 74.0057 30.7749 74.0677 30.7126C74.2447 30.5334 74.4747 30.5451 74.4747 30.5451C74.8293 30.5451 74.9851 30.7476 74.9851 31.1208V32.541H75.4043V30.9813C75.4043 30.2589 74.7194 30.218 74.5635 30.218C74.3424 30.218 74.0319 30.3348 73.8907 30.6172H73.8818V30.2855ZM72.2322 31.4454C72.2322 31.4986 72.2271 31.764 72.1472 31.975C72.0597 32.208 71.824 32.2989 71.6521 32.2989C71.2502 32.2989 71.1602 32.012 71.1602 31.62V30.2849H70.741V31.7945C70.741 32.2489 71.0055 32.6085 71.4713 32.6085C71.7805 32.6085 72.0642 32.491 72.2322 32.208H72.2424V32.541H72.6519V30.2849H72.2328V31.4454H72.2322ZM68.857 30.2725V30.5912L69.2377 30.586V32.0198C69.2377 32.3216 69.2601 32.3307 69.3349 32.4384C69.4045 32.5371 69.5157 32.5728 69.5821 32.587C69.6831 32.6046 69.7629 32.6098 69.8651 32.6098C69.9622 32.6098 70.0549 32.587 70.152 32.5818V32.2547C70.0868 32.2722 69.9974 32.2813 69.9309 32.2813C69.7802 32.2813 69.6575 32.2054 69.6575 32.0431V30.5867L70.1692 30.5919V30.2732L69.6575 30.2868V29.6715L69.2371 29.8065V30.2868L68.857 30.2725ZM67.8686 29.7598H68.3676V29.2976H67.8686V29.7598ZM68.328 30.2855H67.9089V32.5423H68.328V30.2855ZM65.6549 31.1974C65.6549 30.8294 65.8632 30.5276 66.2126 30.5276C66.6209 30.5276 66.7876 30.8197 66.7793 31.1974H65.6549ZM67.2208 31.494V31.2831C67.2208 30.6581 66.9077 30.2323 66.2439 30.218C65.5399 30.218 65.2147 30.771 65.2147 31.4311C65.2147 32.0964 65.4964 32.6085 66.2094 32.6085C66.7397 32.6085 67.1301 32.3521 67.1952 31.8393H66.7538C66.7065 32.1678 66.5417 32.2982 66.2133 32.2982C65.7839 32.2982 65.6242 31.8887 65.6555 31.4934H67.2208V31.494ZM62.9856 32.2047L62.978 32.182H62.9856C63.1364 32.4962 63.4284 32.6091 63.7517 32.6091C64.4103 32.6091 64.6761 31.9938 64.6761 31.4129C64.6761 30.8015 64.3669 30.218 63.6756 30.218C63.3926 30.218 63.114 30.3212 62.9856 30.5906H62.978V29.2963H62.5576V32.1814C62.5576 32.2716 62.5442 32.4066 62.5352 32.541H62.9684L62.9856 32.2047ZM64.234 31.4129C64.234 31.8354 64.0794 32.2989 63.6053 32.2989C63.0974 32.2989 62.9792 31.8354 62.9792 31.4129C62.9792 31.004 63.1287 30.5276 63.6053 30.5276C64.1101 30.5276 64.234 30.9904 64.234 31.4129ZM61.2089 31.4226C61.2089 30.9462 61.3022 30.6581 61.8344 30.6405C61.8906 30.6405 61.9577 30.6405 62.0152 30.6632V30.2589C61.9666 30.2589 61.9219 30.2537 61.8689 30.2537C61.5628 30.2537 61.2798 30.4108 61.2185 30.7204H61.2083V30.2855H60.7898V32.5416H61.2089V31.4226ZM59.1939 31.1487C58.6674 31.1487 58.1148 31.3324 58.1148 31.9672C58.1148 32.4073 58.5039 32.6091 58.8885 32.6091C59.1945 32.6091 59.4424 32.4871 59.5797 32.2047H59.5887C59.5925 32.3086 59.6015 32.4073 59.6098 32.5105C59.6149 32.5643 59.6896 32.5416 59.7305 32.5416H60.011C59.9982 32.3534 59.995 32.1645 59.995 32.0659V30.9871C59.995 30.3575 59.5446 30.2186 59.0878 30.2186C58.6495 30.2186 58.2694 30.3939 58.247 30.8878H58.6898C58.6949 30.6542 58.8929 30.5276 59.1051 30.5276C59.5516 30.5276 59.574 30.7574 59.574 31.1487H59.1939ZM59.5746 31.4441C59.5836 31.8633 59.4909 32.2989 58.9945 32.2989C58.7473 32.2989 58.5575 32.1593 58.5575 31.8796C58.5575 31.5525 58.8981 31.4577 59.1542 31.4434H59.5746V31.4441ZM56.9182 31.4226C56.9182 30.9462 57.0114 30.6581 57.5417 30.6405C57.6005 30.6405 57.665 30.6405 57.7225 30.6632V30.2589C57.6752 30.2589 57.6299 30.2537 57.5775 30.2537C57.2715 30.2537 56.9897 30.4108 56.9271 30.7204H56.9182V30.2855H56.4984V32.5416H56.9182V31.4226ZM54.2361 31.1974C54.2361 30.8294 54.4438 30.5276 54.7939 30.5276C55.2008 30.5276 55.3689 30.8197 55.3606 31.1974H54.2361ZM55.802 31.494V31.2831C55.802 30.6581 55.4883 30.2323 54.8245 30.218C54.1211 30.218 53.7946 30.771 53.7946 31.4311C53.7946 32.0964 54.077 32.6085 54.7894 32.6085C55.3203 32.6085 55.71 32.3521 55.7758 31.8393H55.3344C55.2858 32.1678 55.121 32.2982 54.7939 32.2982C54.3645 32.2982 54.2048 31.8887 54.2361 31.4934H55.802V31.494ZM52.5111 32.5416L53.4842 30.2855H53.0242L52.3342 32.0749L51.6269 30.2855H51.1625L52.092 32.5416H52.5111ZM49.1896 30.2855H48.7781V32.5416H49.1979V31.3149C49.1979 30.8735 49.3129 30.7749 49.3755 30.7126C49.5518 30.5334 49.7818 30.5451 49.7818 30.5451C50.1358 30.5451 50.291 30.7476 50.291 31.1208V32.541H50.7108V30.9813C50.7108 30.2589 50.0252 30.218 49.8706 30.218C49.6489 30.218 49.3391 30.3348 49.1979 30.6172H49.1896V30.2855ZM46.5222 31.1974C46.5222 30.8294 46.7305 30.5276 47.08 30.5276C47.4876 30.5276 47.6556 30.8197 47.6467 31.1974H46.5222ZM48.0888 31.494V31.2831C48.0888 30.6581 47.7757 30.2323 47.1119 30.218C46.4079 30.218 46.0808 30.771 46.0808 31.4311C46.0808 32.0964 46.3644 32.6085 47.0755 32.6085C47.6071 32.6085 47.9961 32.3521 48.0619 31.8393H47.6205C47.5713 32.1678 47.4077 32.2982 47.08 32.2982C46.6507 32.2982 46.4916 31.8887 46.5222 31.4934H48.0888V31.494ZM44.3775 30.2725V30.5912L44.7583 30.586V32.0198C44.7583 32.3216 44.78 32.3307 44.8554 32.4384C44.9263 32.5371 45.0368 32.5728 45.1026 32.587C45.2042 32.6046 45.2841 32.6098 45.3857 32.6098C45.4828 32.6098 45.576 32.587 45.6738 32.5818V32.2547C45.6067 32.2722 45.5185 32.2813 45.4521 32.2813C45.302 32.2813 45.178 32.2054 45.178 32.0431V30.5867L45.691 30.5919V30.2732L45.178 30.2868V29.6715L44.7583 29.8065V30.2868L44.3775 30.2725ZM43.0972 31.1487C42.5701 31.1487 42.0181 31.3324 42.0181 31.9672C42.0181 32.4073 42.4065 32.6091 42.7918 32.6091C43.0972 32.6091 43.3451 32.4871 43.4824 32.2047H43.4914C43.4952 32.3086 43.5042 32.4073 43.5131 32.5105C43.5182 32.5643 43.5923 32.5416 43.6326 32.5416H43.9156C43.9022 32.3534 43.8977 32.1645 43.8977 32.0659V30.9871C43.8977 30.3575 43.4467 30.2186 42.9905 30.2186C42.5529 30.2186 42.1727 30.3939 42.1504 30.8878H42.5925C42.5969 30.6542 42.7969 30.5276 43.0084 30.5276C43.4556 30.5276 43.478 30.7574 43.478 31.1487H43.0972ZM43.478 31.4441C43.4863 31.8633 43.3936 32.2989 42.8978 32.2989C42.65 32.2989 42.4596 32.1593 42.4596 31.8796C42.4596 31.5525 42.8014 31.4577 43.0569 31.4434H43.478V31.4441ZM38.9131 32.5416H39.975C40.2714 32.5319 40.5851 32.5105 40.8413 32.3443C41.3064 32.0425 41.5185 31.5349 41.5185 30.9196C41.5185 30.3037 41.3064 29.7955 40.8413 29.495C40.5851 29.3288 40.2714 29.3061 39.975 29.297H38.9131V32.5416ZM39.3546 29.6825H40.0012C40.4477 29.6825 40.6867 29.8669 40.8106 30.0512C41.001 30.3296 41.054 30.6178 41.054 30.919C41.054 31.2201 41.001 31.5077 40.8106 31.7861C40.6867 31.9704 40.4477 32.1554 40.0012 32.1554H39.3546V29.6825Z" fill="#455760"/>
<path d="M111.433 26.0296C111.433 25.6616 111.64 25.3598 111.991 25.3598C112.399 25.3598 112.566 25.6518 112.558 26.0296H111.433ZM113 26.3256V26.1146C113 25.4909 112.687 25.0632 112.023 25.0502C111.319 25.0502 110.993 25.6025 110.993 26.2633C110.993 26.9279 111.276 27.44 111.987 27.44C112.519 27.44 112.908 27.1843 112.973 26.6709H112.533C112.484 26.9999 112.321 27.1297 111.992 27.1297C111.562 27.1297 111.403 26.7202 111.435 26.3249H113V26.3256ZM108.826 27.3725V26.2126C108.826 26.0874 108.799 25.9257 108.896 25.6914C108.976 25.5026 109.233 25.3721 109.401 25.3773C109.795 25.3864 109.897 25.6421 109.897 26.038V27.3731H110.316V25.8453C110.316 25.4409 110.135 25.0508 109.556 25.0508C109.233 25.0508 108.995 25.1676 108.835 25.4182H108.825V24.1292H108.406V27.3731H108.826V27.3725ZM107.761 25.8401C107.739 25.35 107.385 25.0495 106.917 25.0495C106.213 25.0495 105.886 25.6019 105.886 26.2626C105.886 26.9272 106.168 27.4393 106.881 27.4393C107.373 27.4393 107.745 27.1291 107.779 26.6215H107.36C107.338 26.9454 107.164 27.1291 106.886 27.1291C106.483 27.1291 106.328 26.7741 106.328 26.2438C106.328 25.7135 106.483 25.3585 106.886 25.3585C107.187 25.3585 107.319 25.5564 107.343 25.8388L107.761 25.8401ZM104.774 24.59H105.273V24.1285H104.774V24.59ZM105.234 25.117H104.815V27.3725H105.234V25.117ZM103.99 24.1285H103.571V27.3725H103.99V24.1285ZM101.682 25.1034V25.4214L102.063 25.4175V26.8513C102.063 27.1531 102.084 27.1622 102.159 27.2699C102.231 27.3686 102.341 27.4043 102.407 27.4179C102.508 27.4361 102.588 27.4406 102.69 27.4406C102.787 27.4406 102.88 27.4179 102.978 27.4134V27.0862C102.911 27.1038 102.823 27.1135 102.756 27.1135C102.607 27.1135 102.481 27.0363 102.481 26.8747V25.4182L102.994 25.4221V25.104L102.481 25.1177V24.5024L102.062 24.638V25.1177L101.682 25.1034ZM100.83 27.3725V25.413H101.344V25.117H100.83V24.7568C100.817 24.5095 100.954 24.4459 101.194 24.4459C101.264 24.4459 101.335 24.4556 101.406 24.4595V24.1058C101.304 24.0883 101.207 24.061 101.105 24.061C100.791 24.061 100.424 24.1915 100.41 24.6854V25.1177H99.977V25.4136H100.41V27.3731H100.83V27.3725ZM98.6807 25.9796C98.153 25.9796 97.6016 26.1633 97.6016 26.7981C97.6016 27.2381 97.9894 27.44 98.3753 27.44C98.6813 27.44 98.9292 27.3186 99.0666 27.0356H99.0743C99.0794 27.1395 99.0877 27.2381 99.0966 27.3407C99.1004 27.3952 99.1752 27.3725 99.2167 27.3725H99.4985C99.4857 27.1849 99.4812 26.996 99.4812 26.8974V25.818C99.4812 25.1891 99.0308 25.0502 98.574 25.0502C98.1357 25.0502 97.7569 25.2248 97.7345 25.7193H98.176C98.1811 25.4857 98.3791 25.3591 98.5913 25.3591C99.0391 25.3591 99.0615 25.5889 99.0615 25.9796H98.6807ZM99.0615 26.2762C99.0691 26.6942 98.9765 27.1297 98.4814 27.1297C98.2328 27.1297 98.0431 26.9902 98.0431 26.7111C98.0431 26.3833 98.3836 26.2892 98.6398 26.2756H99.0615V26.2762ZM95.4454 27.3725V26.2126C95.4454 26.0874 95.4192 25.9257 95.5163 25.6914C95.5962 25.5026 95.8517 25.3721 96.0204 25.3773C96.4133 25.3864 96.5155 25.6421 96.5155 26.038V27.3731H96.9359V25.8453C96.9359 25.4409 96.7538 25.0508 96.175 25.0508C95.8517 25.0508 95.6121 25.1676 95.4537 25.4182H95.4448V24.1292H95.0244V27.3731H95.4454V27.3725ZM94.381 25.8401C94.3574 25.35 94.0054 25.0495 93.5351 25.0495C92.8311 25.0495 92.5059 25.6019 92.5059 26.2626C92.5059 26.9272 92.7876 27.4393 93.5006 27.4393C93.9913 27.4393 94.3631 27.1291 94.3976 26.6215H93.9798C93.9562 26.9454 93.7837 27.1291 93.5045 27.1291C93.1026 27.1291 92.9467 26.7741 92.9467 26.2438C92.9467 25.7135 93.1026 25.3585 93.5045 25.3585C93.8054 25.3585 93.9389 25.5564 93.9613 25.8388L94.381 25.8401ZM90.2347 25.7323C90.2347 26.6131 91.5846 26.2353 91.5846 26.7397C91.5846 27.0324 91.3316 27.131 91.0831 27.131C90.8275 27.131 90.6416 26.9824 90.6314 26.7046H90.1912C90.1861 27.2258 90.5758 27.4413 91.0397 27.4413C91.4952 27.4413 92.0267 27.2706 92.0267 26.7182C92.0267 26.21 91.5923 26.1652 91.2166 26.0393C91.0569 25.9894 90.6774 25.9718 90.6774 25.7206C90.6774 25.4682 90.8582 25.3604 91.0831 25.3604C91.3265 25.3604 91.5437 25.4545 91.5258 25.7421H91.9673C91.9986 25.23 91.5258 25.0515 91.1061 25.0515C90.7036 25.0502 90.2347 25.2605 90.2347 25.7323ZM88.0286 25.117H87.6191V27.3725H88.0382V26.1458C88.0382 25.7057 88.1532 25.6058 88.2139 25.5435C88.3908 25.3643 88.6221 25.3766 88.6221 25.3766C88.9767 25.3766 89.1313 25.5791 89.1313 25.9524V27.3725H89.5504V25.8135C89.5504 25.0904 88.8655 25.0502 88.7109 25.0502C88.4899 25.0502 88.1794 25.167 88.0382 25.4493H88.028V25.117H88.0286ZM85.3632 26.0296C85.3632 25.6616 85.5702 25.3598 85.9209 25.3598C86.3279 25.3598 86.4959 25.6518 86.4863 26.0296H85.3632ZM86.9291 26.3256V26.1146C86.9291 25.4909 86.6147 25.0632 85.9509 25.0502C85.2482 25.0502 84.9217 25.6025 84.9217 26.2633C84.9217 26.9279 85.2035 27.44 85.9164 27.44C86.448 27.44 86.8371 27.1843 86.9035 26.6709H86.462C86.4135 26.9999 86.2487 27.1297 85.9216 27.1297C85.4922 27.1297 85.3325 26.7202 85.3638 26.3249H86.9291V26.3256ZM82.6217 25.7323C82.6217 26.6131 83.9717 26.2353 83.9717 26.7397C83.9717 27.0324 83.7193 27.131 83.4714 27.131C83.2146 27.131 83.0287 26.9824 83.0197 26.7046H82.5783C82.5732 27.2258 82.9629 27.4413 83.428 27.4413C83.8835 27.4413 84.4138 27.2706 84.4138 26.7182C84.4138 26.21 83.9806 26.1652 83.6037 26.0393C83.4452 25.9894 83.0645 25.9718 83.0645 25.7206C83.0645 25.4682 83.2453 25.3604 83.4714 25.3604C83.7148 25.3604 83.9321 25.4545 83.9142 25.7421H84.3556C84.387 25.23 83.9142 25.0515 83.4932 25.0515C83.0907 25.0502 82.6217 25.2605 82.6217 25.7323ZM80.2866 25.7323C80.2866 26.6131 81.6353 26.2353 81.6353 26.7397C81.6353 27.0324 81.3829 27.131 81.135 27.131C80.8782 27.131 80.6923 26.9824 80.6833 26.7046H80.2432C80.238 27.2258 80.6265 27.4413 81.0916 27.4413C81.5484 27.4413 82.0787 27.2706 82.0787 26.7182C82.0787 26.21 81.6442 26.1652 81.2673 26.0393C81.1088 25.9894 80.7281 25.9718 80.7281 25.7206C80.7281 25.4682 80.9101 25.3604 81.135 25.3604C81.3784 25.3604 81.5957 25.4545 81.5778 25.7421H82.0193C82.0506 25.23 81.5778 25.0515 81.1568 25.0515C80.7549 25.0502 80.2866 25.2605 80.2866 25.7323ZM79.1277 24.59H79.6266V24.1285H79.1277V24.59ZM79.587 25.117H79.1679V27.3725H79.587V25.117ZM78.1943 25.117L77.6403 26.8967H77.6327L77.1324 25.117H76.5881L76.0355 26.9324H76.0272L75.4905 25.117H75.035L75.7697 27.3725H76.2604L76.8366 25.5181H76.8443L77.3624 27.3725H77.8403L78.6229 25.117H78.1943ZM72.0622 26.2535C72.0622 25.7778 72.1555 25.4889 72.6864 25.4721C72.7439 25.4721 72.8097 25.4721 72.8685 25.4935V25.0898C72.8187 25.0898 72.7752 25.0859 72.7216 25.0859C72.4168 25.0859 72.1338 25.2423 72.0725 25.5519H72.0622V25.117H71.6431V27.3725H72.0622V26.2535ZM70.3967 26.2762C70.3967 26.3301 70.3941 26.5956 70.3143 26.8065C70.2242 27.0395 69.9897 27.1297 69.8179 27.1297C69.4147 27.1297 69.3272 26.8429 69.3272 26.4515V25.1164H68.9068V26.6267C68.9068 27.0798 69.1713 27.4393 69.6358 27.4393C69.9463 27.4393 70.2299 27.3225 70.3967 27.0395H70.4056V27.3718H70.8177V25.1164H70.3973V26.2762H70.3967ZM69.6402 24.1285H69.2384V24.5861H69.6402V24.1285ZM70.4727 24.1285H70.0696V24.5861H70.4727V24.1285ZM67.8673 27.3725V25.413H68.3791V25.117H67.8673V24.7568C67.8539 24.5095 67.9906 24.4459 68.2289 24.4459C68.2986 24.4459 68.3714 24.4556 68.4411 24.4595V24.1058C68.3401 24.0883 68.2417 24.061 68.1401 24.061C67.8271 24.061 67.4604 24.1915 67.4463 24.6854V25.1177H67.0132V25.4136H67.4463V27.3731H67.8673V27.3725ZM63.475 25.1034V25.4214L63.8558 25.4175V26.8513C63.8558 27.1531 63.8769 27.1622 63.9529 27.2699C64.0225 27.3686 64.1337 27.4043 64.2001 27.4179C64.3011 27.4361 64.381 27.4406 64.4832 27.4406C64.5803 27.4406 64.6729 27.4179 64.77 27.4134V27.0862C64.7036 27.1038 64.6167 27.1135 64.549 27.1135C64.3995 27.1135 64.2743 27.0363 64.2743 26.8747V25.4182L64.7873 25.4221V25.104L64.2743 25.1177V24.5024L63.8551 24.638V25.1177L63.475 25.1034ZM62.624 27.3725V25.413H63.137V25.117H62.624V24.7568C62.6106 24.5095 62.7473 24.4459 62.9869 24.4459C63.0565 24.4459 63.1281 24.4556 63.199 24.4595V24.1058C63.0981 24.0883 62.9997 24.061 62.8968 24.061C62.5838 24.061 62.2171 24.1915 62.203 24.6854V25.1177H61.7698V25.4136H62.203V27.3731H62.624V27.3725ZM60.4729 25.9796C59.9477 25.9796 59.3945 26.1633 59.3945 26.7981C59.3945 27.2381 59.7823 27.44 60.1682 27.44C60.4729 27.44 60.7208 27.3186 60.8581 27.0356H60.8671C60.8722 27.1395 60.8805 27.2381 60.8907 27.3407C60.8933 27.3952 60.9693 27.3725 61.0083 27.3725H61.2926C61.2792 27.1849 61.2741 26.996 61.2741 26.8974V25.818C61.2741 25.1891 60.8236 25.0502 60.3668 25.0502C59.9286 25.0502 59.5497 25.2248 59.5274 25.7193H59.9688C59.9727 25.4857 60.1733 25.3591 60.3854 25.3591C60.832 25.3591 60.8543 25.5889 60.8543 25.9796H60.4729ZM60.8543 26.2762C60.8633 26.6942 60.7693 27.1297 60.2742 27.1297C60.027 27.1297 59.8359 26.9902 59.8359 26.7111C59.8359 26.3833 60.1765 26.2892 60.4339 26.2756H60.8543V26.2762ZM57.2382 27.3725V26.2126C57.2382 26.0874 57.212 25.9257 57.3092 25.6914C57.3877 25.5026 57.6446 25.3721 57.8132 25.3773C58.2074 25.3864 58.3096 25.6421 58.3096 26.038V27.3731H58.7288V25.8453C58.7288 25.4409 58.5479 25.0508 57.9678 25.0508C57.6446 25.0508 57.4063 25.1676 57.2465 25.4182H57.2376V24.1292H56.8185V27.3731H57.2382V27.3725ZM56.1726 25.8401C56.1515 25.35 55.7975 25.0495 55.3286 25.0495C54.6246 25.0495 54.2975 25.6019 54.2975 26.2626C54.2975 26.9272 54.5811 27.4393 55.2928 27.4393C55.7841 27.4393 56.1553 27.1291 56.1905 26.6215H55.7707C55.7484 26.9454 55.5759 27.1291 55.2979 27.1291C54.8942 27.1291 54.7402 26.7741 54.7402 26.2438C54.7402 25.7135 54.8942 25.3585 55.2979 25.3585C55.5982 25.3585 55.7311 25.5564 55.7535 25.8388L56.1726 25.8401ZM52.0288 25.7323C52.0288 26.6131 53.3775 26.2353 53.3775 26.7397C53.3775 27.0324 53.1251 27.131 52.8779 27.131C52.6204 27.131 52.4345 26.9824 52.4262 26.7046H51.9834C51.9789 27.2258 52.3687 27.4413 52.8325 27.4413C53.2887 27.4413 53.8189 27.2706 53.8189 26.7182C53.8189 26.21 53.3864 26.1652 53.0107 26.0393C52.851 25.9894 52.4696 25.9718 52.4696 25.7206C52.4696 25.4682 52.651 25.3604 52.8779 25.3604C53.1206 25.3604 53.3372 25.4545 53.32 25.7421H53.7614C53.7927 25.23 53.32 25.0515 52.8989 25.0515C52.4958 25.0502 52.0288 25.2605 52.0288 25.7323ZM51.3209 24.1285H50.9011V27.3725H51.3209V24.1285ZM50.077 24.1285H49.6579V27.3725H50.077V24.1285ZM47.3949 26.0296C47.3949 25.6616 47.6019 25.3598 47.9527 25.3598C48.359 25.3598 48.5271 25.6518 48.5181 26.0296H47.3949ZM48.9602 26.3256V26.1146C48.9602 25.4909 48.6472 25.0632 47.9827 25.0502C47.2793 25.0502 46.9522 25.6025 46.9522 26.2633C46.9522 26.9279 47.2359 27.44 47.9476 27.44C48.4785 27.44 48.8676 27.1843 48.9347 26.6709H48.4913C48.4434 27.0006 48.2785 27.1304 47.9527 27.1304C47.5227 27.1304 47.363 26.7208 47.3949 26.3256H48.9602ZM44.6541 25.7323C44.6541 26.6131 46.0028 26.2353 46.0028 26.7397C46.0028 27.0324 45.7505 27.131 45.5032 27.131C45.2457 27.131 45.0598 26.9824 45.0522 26.7046H44.6094C44.6049 27.2258 44.994 27.4413 45.4585 27.4413C45.9147 27.4413 46.4449 27.2706 46.4449 26.7182C46.4449 26.21 46.0124 26.1652 45.6361 26.0393C45.477 25.9894 45.0956 25.9718 45.0956 25.7206C45.0956 25.4682 45.2771 25.3604 45.5032 25.3604C45.746 25.3604 45.9632 25.4545 45.9453 25.7421H46.3874C46.4181 25.23 45.9453 25.0515 45.5249 25.0515C45.1212 25.0502 44.6541 25.2605 44.6541 25.7323ZM42.5222 26.0296C42.5222 25.6616 42.7298 25.3598 43.0799 25.3598C43.4869 25.3598 43.6549 25.6518 43.646 26.0296H42.5222ZM44.0868 26.3256V26.1146C44.0868 25.4909 43.7738 25.0632 43.11 25.0502C42.4059 25.0502 42.0794 25.6025 42.0794 26.2633C42.0794 26.9279 42.3625 27.44 43.0742 27.44C43.6057 27.44 43.9942 27.1843 44.0606 26.6709H43.6185C43.5706 27.0006 43.4064 27.1304 43.0799 27.1304C42.65 27.1304 42.4909 26.7208 42.5222 26.3256H44.0868ZM41.3671 24.9372C41.3403 24.3122 40.7435 24.0604 40.2043 24.0604C39.6593 24.0604 39.1904 24.2577 38.9119 24.7516C38.7483 25.0443 38.6384 25.413 38.6384 25.7505C38.6384 26.2081 38.7617 26.752 39.1157 27.0674C39.4651 27.3809 39.8331 27.4393 40.2842 27.4393C40.6464 27.4393 41.0138 27.3627 41.3805 27.2505V25.6467H40.2126V26.0322H40.9384V26.9506C40.7352 27.0181 40.518 27.0531 40.3014 27.0531C39.3853 27.035 39.1374 26.58 39.1022 25.7499C39.0844 25.1423 39.3674 24.4453 40.1513 24.4453C40.4918 24.4453 40.8234 24.5485 40.9033 24.9359H41.3671V24.9372Z" fill="#455760"/>
<path d="M104.424 10.2784V12.3885H109.883C109.794 13.3231 109.675 13.6846 109.408 14.2876C108.398 16.4574 106.055 17.7841 103.147 17.7841C98.4303 17.7841 95.2857 14.7101 95.2857 10.098C95.2857 5.5163 98.5472 2.2613 103.058 2.2613C104.157 2.2613 105.254 2.5021 106.321 2.98435C107.716 3.61782 108.369 4.12993 109.824 5.63703L111.307 4.10007C109.643 2.32166 108.843 1.71869 107.123 0.965142C105.756 0.362172 104.334 0.061011 102.85 0.061011C97.4196 0.061011 93.1173 4.46159 93.1173 10.0376C93.1173 15.9161 97.2413 19.985 103.205 19.985C105.848 19.985 107.983 19.2016 109.615 17.6036C110.414 16.8202 111.068 15.8252 111.483 14.8309C112.048 13.4743 112.195 12.6299 112.225 10.2791H104.424V10.2784ZM76.4265 0.632827V19.4119H81.6187C86.3669 19.4119 90.4008 15.071 90.4008 10.037C90.4008 4.5213 86.4263 0.632827 80.8476 0.632827H76.4265ZM78.5029 2.7429H80.2834C82.9552 2.7429 84.7946 3.40558 86.2768 4.88283C87.582 6.20884 88.2657 7.9879 88.2657 9.97725C88.2657 14.1967 85.1498 17.2713 80.8476 17.2713H78.4741V2.7429H78.5029ZM60.3956 0L54.4911 14.468L49.0918 0.632827H46.9842L54.4617 19.9545L60.425 5.21449L66.4484 19.9545L73.7183 0.602321H71.6419L66.3583 14.3175L60.3956 0ZM38.0724 10.2784V12.3885H43.5316C43.4422 13.3231 43.324 13.6846 43.0569 14.2876C42.0482 16.4574 39.7041 17.7841 36.7965 17.7841C32.0784 17.7841 28.9331 14.7101 28.9331 10.098C28.9331 5.5163 32.1978 2.2613 36.7071 2.2613C37.8053 2.2613 38.9029 2.5021 39.9711 2.98435C41.3652 3.61782 42.0188 4.12993 43.4716 5.63703L44.9551 4.10007C43.2946 2.32166 42.4935 1.71869 40.7723 0.965142C39.4076 0.362172 37.9829 0.061011 36.4994 0.061011C31.0702 0.061011 26.768 4.46159 26.768 10.0376C26.768 15.9161 30.892 19.985 36.8559 19.985C39.4965 19.985 41.6322 19.2016 43.2646 17.6036C44.0657 16.8202 44.718 15.8252 45.134 14.8309C45.6975 13.4743 45.8463 12.6299 45.8757 10.2791H38.0724V10.2784Z" fill="#455760"/>
</g>
<defs>
<clipPath id="clip0">
<rect width="113" height="34" fill="white"/>
</clipPath>
</defs>
</svg>
