<svg width="1425" height="32" viewBox="0 0 1425 32" fill="none" xmlns="http://www.w3.org/2000/svg">
<path d="M9.85539 27.5H5.5V23.1446L17.9375 10.7071L22.2929 15.0625L9.85539 27.5Z" fill="#FF6F3D" stroke="#333333"/>
<path d="M19.8574 8.2L24.6574 13L27.8574 9.8V8.2L24.6574 5H23.0574L19.8574 8.2Z" fill="#333333"/>
<path fill-rule="evenodd" clip-rule="evenodd" d="M20 13.7189L8.86108 24.8523C8.66342 25.0499 8.34372 25.0491 8.14702 24.8506C7.95032 24.6521 7.95109 24.331 8.14875 24.1334L19.2877 13L20 13.7189Z" fill="white"/>
<path fill-rule="evenodd" clip-rule="evenodd" d="M14 27.5C14 27.2239 14.2309 27 14.5158 27H27.4842C27.7691 27 28 27.2239 28 27.5C28 27.7761 27.7691 28 27.4842 28H14.5158C14.2309 28 14 27.7761 14 27.5Z" fill="#333333"/>
<path fill-rule="evenodd" clip-rule="evenodd" d="M51.6629 14.6558L52.0056 14L52.4735 14.5632L56.1333 18.9675L55.3797 19.6156L52.6529 16.334C52.9683 22.8485 58.0959 28.002 64.3418 28.002C69.1496 28.002 73.2917 24.9519 75.0914 20.5731L76 20.957C74.0591 25.6795 69.5763 29 64.3418 29C57.6497 29 52.1912 23.5784 51.6906 16.7261L49.8677 20.2144L49 19.7515L51.6629 14.6558Z" fill="#FF6F3D"/>
<path fill-rule="evenodd" clip-rule="evenodd" d="M76.3371 17.3442L75.9944 18L75.5265 17.4368L71.8667 13.0325L72.6203 12.3844L75.3471 15.666C75.0317 9.15149 69.9041 3.99804 63.6582 3.99804C58.8504 3.99804 54.7083 7.04805 52.9086 11.4269L52 11.043C53.9409 6.32047 58.4237 3 63.6582 3C70.3503 3 75.8088 8.42165 76.3094 15.2739L78.1323 11.7856L79 12.2485L76.3371 17.3442Z" fill="#333333"/>
<path d="M99 5C98.4477 5 98 5.44771 98 6V25C98 25.5523 98.4477 26 99 26H124C124.552 26 125 25.5523 125 25V6C125 5.44772 124.552 5 124 5H99Z" fill="url(#paint0_linear_22_792)"/>
<path fill-rule="evenodd" clip-rule="evenodd" d="M99 6V25H124V6L99 6ZM98 6C98 5.44771 98.4477 5 99 5H124C124.552 5 125 5.44772 125 6V25C125 25.5523 124.552 26 124 26H99C98.4477 26 98 25.5523 98 25V6Z" fill="#333333"/>
<path d="M105.757 12.7071L106.464 12L110 15.5355L106.464 19.0711L105.757 18.364L108.121 16H102V15L108.05 15L105.757 12.7071Z" fill="white"/>
<path d="M117.243 12.7071L116.536 12L113 15.5355L116.536 19.0711L117.243 18.364L114.879 16H121V15L114.95 15L117.243 12.7071Z" fill="white"/>
<path d="M111 21V10H112V21H111Z" fill="white"/>
<path d="M147 5C146.448 5 146 5.44771 146 6V25C146 25.5523 146.448 26 147 26H172C172.552 26 173 25.5523 173 25V6C173 5.44772 172.552 5 172 5H147Z" fill="url(#paint1_linear_22_792)"/>
<path fill-rule="evenodd" clip-rule="evenodd" d="M147 6V25H172V6L147 6ZM146 6C146 5.44771 146.448 5 147 5H172C172.552 5 173 5.44772 173 6V25C173 25.5523 172.552 26 172 26H147C146.448 26 146 25.5523 146 25V6Z" fill="#333333"/>
<path d="M154.243 12.7071L153.536 12L150 15.5355L153.536 19.0711L154.243 18.364L151.879 16H158V15L151.95 15L154.243 12.7071Z" fill="white"/>
<path d="M164.757 12.7071L165.464 12L169 15.5355L165.464 19.0711L164.757 18.364L167.121 16H161V15L167.05 15L164.757 12.7071Z" fill="white"/>
<path d="M159 21V10H160V21H159Z" fill="white"/>
<path d="M195.333 2C194.597 2 194 2.59695 194 3.33333V3.33333V28C194 29.1046 194.895 30 196 30H220C221.105 30 222 29.1046 222 28V4C222 2.89543 221.105 2 220 2H195.333Z" fill="url(#paint2_linear_22_792)"/>
<path fill-rule="evenodd" clip-rule="evenodd" d="M195 3.33333V28C195 28.5523 195.448 29 196 29H220C220.552 29 221 28.5523 221 28V4C221 3.44772 220.552 3 220 3H195.333C195.149 3 195 3.14924 195 3.33333ZM194 3.33333C194 2.59695 194.597 2 195.333 2H220C221.105 2 222 2.89543 222 4V28C222 29.1046 221.105 30 220 30H196C194.895 30 194 29.1046 194 28V3.33333Z" fill="#333333"/>
<path d="M201.757 12.7071L202.464 12L206 15.5355L202.464 19.0711L201.757 18.364L204.121 16H198V15L204.05 15L201.757 12.7071Z" fill="white"/>
<path d="M214.243 12.7071L213.536 12L210 15.5355L213.536 19.0711L214.243 18.364L211.879 16H218V15L211.95 15L214.243 12.7071Z" fill="white"/>
<path d="M205.171 21.7782L204.464 21.0711L208 17.5355L211.535 21.0711L210.828 21.7782L208.464 19.4142L208.464 25.5355L207.464 25.5355L207.464 19.4853L205.171 21.7782Z" fill="white"/>
<path d="M205.171 9.29288L204.464 9.99998L208 13.5355L211.535 9.99998L210.828 9.29288L208.464 11.6568L208.464 5.53552L207.464 5.53552L207.464 11.5858L205.171 9.29288Z" fill="white"/>
<path fill-rule="evenodd" clip-rule="evenodd" d="M245 10C244.448 10 244 10.4477 244 11V28C244 28.5523 244.448 29 245 29H258C258.552 29 259 28.5523 259 28V11C259 10.4477 258.552 10 258 10H245Z" fill="#FF6F3D"/>
<path fill-rule="evenodd" clip-rule="evenodd" d="M245 11V28H258V11L245 11ZM244 11C244 10.4477 244.448 10 245 10H258C258.552 10 259 10.4477 259 11V28C259 28.5523 258.552 29 258 29H245C244.448 29 244 28.5523 244 28V11Z" fill="#333333"/>
<path fill-rule="evenodd" clip-rule="evenodd" d="M256 14H247V15H256V14ZM256 17H247V18H256V17ZM247 20H256V21H247V20ZM256 23H247V24H256V23Z" fill="white"/>
<path fill-rule="evenodd" clip-rule="evenodd" d="M267 4H254V9H253V4C253 3.44772 253.448 3 254 3H267C267.552 3 268 3.44772 268 4V21C268 21.5523 267.552 22 267 22H261V21H267V4ZM261 17H265V16H261V17ZM261 14H265V13H261V14ZM261 11H265V10H261V11ZM256 7H265V8H256V7Z" fill="#333333"/>
<path fill-rule="evenodd" clip-rule="evenodd" d="M310.294 10.3535L307.647 7.70721L308.354 7L312.208 10.8531L308.354 14.7072L307.647 14L310.293 11.3535H310C308.161 11.3535 306.341 11.7156 304.642 12.4192C302.944 13.1228 301.401 14.154 300.101 15.454C298.8 16.754 297.769 18.2974 297.066 19.9959C296.362 21.6945 296 23.515 296 25.3535H295C295 23.3837 295.388 21.4331 296.142 19.6133C296.896 17.7934 298.001 16.1398 299.393 14.7469C300.786 13.354 302.44 12.2491 304.26 11.4953C306.08 10.7415 308.03 10.3535 310 10.3535H310.294Z" fill="white"/>
<path fill-rule="evenodd" clip-rule="evenodd" d="M308.354 7L307.647 7.7072L310.294 10.3535H310C309.639 10.3535 309.278 10.3666 308.918 10.3926C307.319 10.5082 305.746 10.8798 304.26 11.4953C302.44 12.2491 300.786 13.354 299.393 14.7469C298.001 16.1398 296.896 17.7934 296.142 19.6133C295.516 21.1245 295.142 22.7258 295.033 24.3535C295.011 24.6859 295 25.0194 295 25.3535H296C296 23.515 296.362 21.6945 297.066 19.9959C297.11 19.8898 297.155 19.7842 297.201 19.6793C297.899 18.1054 298.882 16.6728 300.1 15.454C301.401 14.154 302.944 13.1228 304.642 12.4192C305.98 11.8653 307.392 11.5231 308.83 11.4025C309.218 11.3699 309.609 11.3535 310 11.3535H310.293L307.647 14L308.354 14.7072L312.207 10.8535L308.354 7ZM307.668 12.5644L306.232 14L308.354 16.1214L313.622 10.853L308.353 5.58578L306.232 7.7074L308.004 9.4785C306.589 9.65646 305.2 10.0233 303.877 10.5714C301.936 11.3755 300.172 12.5541 298.686 14.0398C297.201 15.5255 296.022 17.2894 295.218 19.2306C294.414 21.1718 294 23.2524 294 25.3535V26.3535H297V25.3535C297 23.6463 297.336 21.9559 297.99 20.3786C298.643 18.8014 299.6 17.3683 300.808 16.1611C302.015 14.954 303.448 13.9964 305.025 13.3431C305.878 12.9898 306.764 12.7292 307.668 12.5644Z" fill="#FF6F3D"/>
<path fill-rule="evenodd" clip-rule="evenodd" d="M337 7C336.448 7 336 7.44772 336 8V25C336 25.5523 336.448 26 337 26H350C350.552 26 351 25.5523 351 25V8C351 7.44772 350.552 7 350 7H337Z" fill="#D9F4FF"/>
<path fill-rule="evenodd" clip-rule="evenodd" d="M337 8V25H350V8L337 8ZM336 8C336 7.44772 336.448 7 337 7H350C350.552 7 351 7.44772 351 8V25C351 25.5523 350.552 26 350 26H337C336.448 26 336 25.5523 336 25V8Z" fill="#333333"/>
<path fill-rule="evenodd" clip-rule="evenodd" d="M348 11H339V12H348V11ZM348 14H339V15H348V14ZM339 17H348V18H339V17ZM348 20H339V21H348V20Z" fill="#333333"/>
<path fill-rule="evenodd" clip-rule="evenodd" d="M355 3H342V6H341V3C341 2.44772 341.448 2 342 2H355C355.552 2 356 2.44772 356 3V13.9538C355.559 14.1598 355.348 14.3033 355 14.5787V3Z" fill="#333333"/>
<path fill-rule="evenodd" clip-rule="evenodd" d="M360.5 30C364.634 30 368 26.6335 368 22.5C368 18.3665 364.634 15 360.5 15C356.367 15 353 18.3665 353 22.5C352.989 26.6335 356.367 30 360.5 30Z" fill="url(#paint3_linear_22_792)"/>
<path fill-rule="evenodd" clip-rule="evenodd" d="M354.071 22.5V22.5028C354.062 26.0399 356.956 28.9286 360.5 28.9286C364.042 28.9286 366.929 26.0418 366.929 22.5C366.929 18.9582 364.042 16.0714 360.5 16.0714C356.958 16.0714 354.071 18.9582 354.071 22.5ZM353 22.5C353 18.3665 356.367 15 360.5 15C364.634 15 368 18.3665 368 22.5C368 26.6335 364.634 30 360.5 30C356.367 30 352.989 26.6335 353 22.5Z" fill="#333333"/>
<path fill-rule="evenodd" clip-rule="evenodd" d="M358.526 19.112L360.505 21.091L362.485 19.1114C362.562 19.0347 362.692 19.0347 362.768 19.1114L363.922 20.2655C363.999 20.3422 363.972 20.4451 363.896 20.5218L361.916 22.5015L363.89 24.4755C363.966 24.5522 363.977 24.6794 363.901 24.7561L362.76 25.8968C362.683 25.9735 362.549 25.9692 362.473 25.8925L360.499 23.9186L358.522 25.8955C358.445 25.9722 358.336 25.9931 358.26 25.9164L357.106 24.7624C357.029 24.6857 357.029 24.5559 357.105 24.4792L359.082 22.5022L357.103 20.5231C357.027 20.4464 357.027 20.3166 357.103 20.2399L358.244 19.0992C358.332 19.0225 358.449 19.0353 358.526 19.112Z" fill="white"/>
<path fill-rule="evenodd" clip-rule="evenodd" d="M387 3.5C387 2.67157 387.672 2 388.5 2L405.5 2.00003C406.328 2.00003 407 2.6716 407 3.50003V12.6352C407 12.9114 406.776 13.1352 406.5 13.1352C406.224 13.1352 406 12.9114 406 12.6352V3.50003C406 3.22388 405.776 3.00003 405.5 3.00003L388.5 3C388.224 3 388 3.22386 388 3.5V26.4974C388 26.7735 388.224 26.9974 388.5 26.9974H397C397.276 26.9974 397.5 27.2212 397.5 27.4974C397.5 27.7735 397.276 27.9974 397 27.9974H388.5C387.672 27.9974 387 27.3258 387 26.4974V3.5Z" fill="#333333"/>
<path fill-rule="evenodd" clip-rule="evenodd" d="M408.031 2.5C408.031 2.22386 408.255 2 408.531 2H409.5C410.329 2 411 2.67157 411 3.5V13.7024C411 13.9786 410.776 14.2024 410.5 14.2024C410.224 14.2024 410 13.9786 410 13.7024V3.5C410 3.22386 409.776 3 409.5 3H408.531C408.255 3 408.031 2.77614 408.031 2.5Z" fill="#333333"/>
<path d="M399 12.4973C399 12.2212 399.224 11.9973 399.5 11.9973H403.5C403.776 11.9973 404 12.2212 404 12.4973V12.4973C404 12.7735 403.776 12.9973 403.5 12.9973H399.5C399.224 12.9973 399 12.7735 399 12.4973V12.4973Z" fill="#333333"/>
<path d="M392 5.49731C392 5.22117 392.224 4.99731 392.5 4.99731H401.5C401.776 4.99731 402 5.22117 402 5.49731V5.49731C402 5.77346 401.776 5.99731 401.5 5.99731H392.5C392.224 5.99731 392 5.77346 392 5.49731V5.49731Z" fill="#FF6F3D"/>
<path fill-rule="evenodd" clip-rule="evenodd" d="M391 10.5174C391 10.3786 390.983 9.97696 390.983 9.97696C390.983 9.97696 391.384 9.99391 391.522 9.99391H395.478C395.616 9.99391 395.749 10.0491 395.847 10.1472C395.945 10.2454 396 10.3786 396 10.5174V13.994C396 14.1328 396 14.994 396 14.994C396 14.994 395.616 14.9939 395.478 14.9939H391.522C391.384 14.9939 391 14.994 391 14.994C391 14.994 391 14.6092 391 14.4704V10.5174Z" fill="#D9F4FF"/>
<path fill-rule="evenodd" clip-rule="evenodd" d="M396.822 9.1205C397.039 9.29055 397.078 9.60478 396.908 9.82235L393.874 13.7036C393.76 13.8546 393.574 13.9844 393.331 13.9881C393.102 13.9916 392.92 13.882 392.797 13.7661L391.803 12.8691C391.598 12.6842 391.582 12.368 391.767 12.163C391.952 11.9579 392.268 11.9417 392.473 12.1267L393.273 12.8486L396.12 9.20656C396.29 8.98898 396.604 8.95046 396.822 9.1205Z" fill="#333333"/>
<path fill-rule="evenodd" clip-rule="evenodd" d="M391.198 8.99731H394.088C394.364 8.99731 394.588 9.22117 394.588 9.49731C394.588 9.77346 394.364 9.99731 394.088 9.99731H391.206C391.178 9.99863 391.151 10.0054 391.125 10.0172C391.098 10.0297 391.074 10.0475 391.055 10.0695C391.035 10.0916 391.02 10.1173 391.011 10.1453C391.002 10.1732 390.998 10.2027 391.001 10.2319C391.002 10.2469 391.003 10.2619 391.003 10.2769V14.7419C391.002 14.7763 391.009 14.8105 391.022 14.8424C391.035 14.8744 391.054 14.9034 391.079 14.9279C391.103 14.9523 391.132 14.9717 391.164 14.9847C391.197 14.9978 391.231 15.0043 391.266 15.0038L391.273 15.0037L395.755 15.0037C395.83 15.002 395.903 14.9709 395.956 14.9171C395.968 14.9049 396 14.8638 396 14.7135V12.4713C396 12.1952 396.224 11.9713 396.5 11.9713C396.776 11.9713 397 12.1952 397 12.4713V14.7134C397 14.7134 397 14.7134 397 14.7134C397 14.9786 396.947 15.3364 396.667 15.6199C396.429 15.8613 396.105 15.9991 395.766 16.0037L395.759 16.0038L391.276 16.0037C391.109 16.0055 390.943 15.9742 390.789 15.9115C390.633 15.8483 390.491 15.7544 390.372 15.6355C390.253 15.5166 390.159 15.375 390.095 15.219C390.033 15.0643 390.001 14.8987 390.003 14.7317V10.2965C389.992 10.1392 390.012 9.9813 390.061 9.83149C390.114 9.67359 390.198 9.52811 390.308 9.40401C390.419 9.27992 390.554 9.17984 390.705 9.10993C390.855 9.04003 391.019 9.00176 391.185 8.99748L391.198 8.99731Z" fill="#333333"/>
<path fill-rule="evenodd" clip-rule="evenodd" d="M391 19.5174C391 19.3786 390.983 18.977 390.983 18.977C390.983 18.977 391.384 18.9939 391.522 18.9939H395.478C395.616 18.9939 395.749 19.0491 395.847 19.1472C395.945 19.2454 396 19.3786 396 19.5174V22.994C396 23.1328 396 23.994 396 23.994C396 23.994 395.616 23.9939 395.478 23.9939H391.522C391.384 23.9939 391 23.994 391 23.994C391 23.994 391 23.6092 391 23.4704V19.5174Z" fill="#D9F4FF"/>
<path fill-rule="evenodd" clip-rule="evenodd" d="M396.822 18.1205C397.039 18.2906 397.078 18.6048 396.908 18.8224L393.874 22.7036C393.76 22.8546 393.574 22.9844 393.331 22.9881C393.102 22.9916 392.92 22.882 392.797 22.7661L391.803 21.8691C391.598 21.6842 391.582 21.368 391.767 21.163C391.952 20.9579 392.268 20.9417 392.473 21.1267L393.273 21.8486L396.12 18.2066C396.29 17.989 396.604 17.9505 396.822 18.1205Z" fill="#333333"/>
<path fill-rule="evenodd" clip-rule="evenodd" d="M391.198 17.9973H394.088C394.364 17.9973 394.588 18.2212 394.588 18.4973C394.588 18.7735 394.364 18.9973 394.088 18.9973H391.206C391.178 18.9986 391.151 19.0054 391.125 19.0172C391.098 19.0297 391.074 19.0475 391.055 19.0695C391.035 19.0916 391.02 19.1173 391.011 19.1453C391.002 19.1732 390.998 19.2027 391.001 19.2319C391.002 19.2469 391.003 19.2619 391.003 19.2769V23.7419C391.002 23.7763 391.009 23.8105 391.022 23.8424C391.035 23.8744 391.054 23.9034 391.079 23.9279C391.103 23.9523 391.132 23.9717 391.164 23.9847C391.197 23.9978 391.231 24.0043 391.266 24.0038L391.273 24.0037L395.755 24.0037C395.83 24.002 395.903 23.9709 395.956 23.9171C395.968 23.9049 396 23.8638 396 23.7135V21.4713C396 21.1952 396.224 20.9713 396.5 20.9713C396.776 20.9713 397 21.1952 397 21.4713V23.7134C397 23.7134 397 23.7134 397 23.7134C397 23.9786 396.947 24.3364 396.667 24.6199C396.429 24.8613 396.105 24.9991 395.766 25.0037L395.759 25.0038L391.276 25.0037C391.109 25.0055 390.943 24.9742 390.789 24.9115C390.633 24.8483 390.491 24.7544 390.372 24.6355C390.253 24.5166 390.159 24.375 390.095 24.219C390.033 24.0643 390.001 23.8987 390.003 23.7317V19.2965C389.992 19.1392 390.012 18.9813 390.061 18.8315C390.114 18.6736 390.198 18.5281 390.308 18.404C390.419 18.2799 390.554 18.1798 390.705 18.1099C390.855 18.04 391.019 18.0018 391.185 17.9975L391.198 17.9973Z" fill="#333333"/>
<path fill-rule="evenodd" clip-rule="evenodd" d="M413.498 25.5589C413.543 25.5197 414.158 25.2419 414.509 25.1196C414.608 25.0982 414.698 25.0441 414.762 24.966C414.827 24.8879 414.864 24.7904 414.866 24.6893L414.886 22.1854C414.88 22.0875 414.844 21.994 414.782 21.918C414.719 21.8419 414.635 21.7873 414.54 21.7617L413.871 21.6117C413.727 21.5806 413.593 21.5135 413.483 21.4167C413.372 21.3199 413.288 21.1966 413.239 21.0585C413.179 20.9265 413.153 20.7813 413.166 20.6368C413.179 20.4923 413.228 20.3534 413.31 20.2335L413.686 19.6679C413.738 19.5797 413.759 19.4765 413.744 19.3753C413.73 19.2741 413.681 19.1809 413.606 19.111L411.849 17.3557C411.781 17.2829 411.689 17.2358 411.59 17.2225C411.491 17.2091 411.39 17.2303 411.305 17.2824L410.711 17.6521C410.595 17.7385 410.459 17.7946 410.315 17.8152C410.172 17.8358 410.026 17.8204 409.89 17.7703C409.756 17.7177 409.636 17.6337 409.541 17.5254C409.445 17.4172 409.378 17.2877 409.343 17.148L409.247 16.4798C409.226 16.3809 409.172 16.2921 409.093 16.2278C409.015 16.1635 408.917 16.1273 408.815 16.1251L406.318 16.1058C406.195 16.0947 406.073 16.1318 405.977 16.2094C405.882 16.2869 405.82 16.3986 405.807 16.5205L405.655 17.1865C405.625 17.3273 405.56 17.4584 405.466 17.5679C405.372 17.6774 405.252 17.7618 405.117 17.8134C404.981 17.8738 404.832 17.8993 404.684 17.8876C404.536 17.8758 404.393 17.8271 404.269 17.746L403.701 17.373C403.615 17.3255 403.516 17.3074 403.418 17.3215C403.32 17.3356 403.23 17.381 403.16 17.4509L401.375 19.2047C401.304 19.2777 401.258 19.3718 401.245 19.4728C401.233 19.5738 401.253 19.6762 401.304 19.7645L401.696 20.3712C401.782 20.4866 401.838 20.6218 401.859 20.7645C401.88 20.9072 401.864 21.0527 401.813 21.1879C401.759 21.3245 401.672 21.4459 401.559 21.5413C401.447 21.6368 401.313 21.7034 401.169 21.7354L400.497 21.8321C400.398 21.8536 400.308 21.9077 400.244 21.9858C400.179 22.0639 400.142 22.1613 400.14 22.2625L400.12 24.7663C400.108 24.8762 400.135 24.9867 400.197 25.0783C400.259 25.1699 400.352 25.2367 400.458 25.267L401.127 25.417C401.271 25.4481 401.405 25.5152 401.515 25.612C401.626 25.7088 401.71 25.8321 401.759 25.9702C401.82 26.1022 401.845 26.2474 401.832 26.3919C401.82 26.5364 401.77 26.6753 401.688 26.7952L401.312 27.3608C401.266 27.4506 401.249 27.5524 401.263 27.6521C401.278 27.7518 401.323 27.8446 401.392 27.9177L403.152 29.6916C403.222 29.7608 403.314 29.804 403.413 29.8139C403.511 29.8239 403.61 29.8 403.693 29.7463L404.396 29.3419C404.515 29.2599 404.65 29.2065 404.793 29.186C404.935 29.1654 405.081 29.1784 405.217 29.2237C405.352 29.2763 405.472 29.3603 405.567 29.4686C405.662 29.5769 405.729 29.7063 405.764 29.846L405.86 30.5142C405.881 30.6131 405.936 30.7019 406.014 30.7662C406.092 30.8306 406.19 30.8667 406.292 30.8689L408.789 30.8882C408.891 30.8859 408.99 30.8507 409.07 30.7879C409.15 30.7251 409.208 30.6381 409.234 30.54L409.386 29.874C409.416 29.7332 409.481 29.602 409.575 29.4925C409.669 29.383 409.789 29.2986 409.924 29.247C410.06 29.1866 410.208 29.1611 410.357 29.1729C410.505 29.1847 410.647 29.2334 410.772 29.3145L411.339 29.6874C411.426 29.7349 411.525 29.753 411.623 29.739C411.721 29.7249 411.811 29.6794 411.88 29.6095L413.665 27.8557C413.737 27.7827 413.782 27.6886 413.795 27.5876C413.808 27.4867 413.788 27.3843 413.737 27.296L413.369 26.7237C413.282 26.6083 413.226 26.4731 413.206 26.3304C413.185 26.1877 413.201 26.0422 413.251 25.907C413.305 25.773 413.389 25.6537 413.498 25.5589ZM409.739 22.0903C410.027 22.5282 410.178 23.0415 410.172 23.5652C410.171 23.9119 410.101 24.2549 409.966 24.5746C409.831 24.8943 409.633 25.1843 409.385 25.4279C409.137 25.6715 408.843 25.8638 408.52 25.9938C408.197 26.1238 407.851 26.1889 407.503 26.1853C406.977 26.1836 406.463 26.0264 406.027 25.7337C405.591 25.4411 405.252 25.026 405.054 24.5412C404.856 24.0565 404.806 23.5238 404.913 23.0107C405.019 22.4976 405.276 22.0273 405.651 21.6593C406.026 21.2913 406.502 21.0422 407.019 20.9436C407.536 20.8451 408.07 20.9014 408.554 21.1056C409.039 21.3097 409.451 21.6524 409.739 22.0903Z" fill="#333333"/>
<path fill-rule="evenodd" clip-rule="evenodd" d="M436 4.5C436 3.67157 436.672 3 437.5 3L454.5 3.00003C455.328 3.00003 456 3.6716 456 4.50003V27.4974C456 28.3258 455.328 28.9974 454.5 28.9974H437.5C436.672 28.9974 436 28.3258 436 27.4974V4.5ZM437.5 4C437.224 4 437 4.22386 437 4.5V27.4974C437 27.7735 437.224 27.9974 437.5 27.9974H454.5C454.776 27.9974 455 27.7735 455 27.4974V4.50003C455 4.22388 454.776 4.00003 454.5 4.00003L437.5 4Z" fill="#333333"/>
<path fill-rule="evenodd" clip-rule="evenodd" d="M457 3.5C457 3.22386 457.224 3 457.5 3H458.5C459.328 3 460 3.67157 460 4.5V27.5C460 28.3284 459.328 29 458.5 29H457.523C457.246 29 457.023 28.7761 457.023 28.5C457.023 28.2239 457.246 28 457.523 28H458.5C458.776 28 459 27.7761 459 27.5V4.5C459 4.22386 458.776 4 458.5 4H457.5C457.224 4 457 3.77614 457 3.5Z" fill="#333333"/>
<path d="M448 10.4973C448 10.2212 448.223 9.99731 448.498 9.99731H452.502C452.777 9.99731 453 10.2212 453 10.4973V10.4973C453 10.7735 452.777 10.9973 452.502 10.9973H448.498C448.223 10.9973 448 10.7735 448 10.4973V10.4973Z" fill="#333333"/>
<path d="M448 25.4973C448 25.2212 448.223 24.9973 448.498 24.9973H452.502C452.777 24.9973 453 25.2212 453 25.4973V25.4973C453 25.7735 452.777 25.9973 452.502 25.9973H448.498C448.223 25.9973 448 25.7735 448 25.4973V25.4973Z" fill="#333333"/>
<path d="M443 7.49731C443 7.22117 443.232 6.99731 443.519 6.99731H452.481C452.768 6.99731 453 7.22117 453 7.49731V7.49731C453 7.77346 452.768 7.99731 452.481 7.99731H443.519C443.232 7.99731 443 7.77346 443 7.49731V7.49731Z" fill="#FF6F3D"/>
<path fill-rule="evenodd" clip-rule="evenodd" d="M439 13.4973C439 13.2212 439.224 12.9973 439.5 12.9973H448.5H452.5C452.535 12.9973 452.568 13.0008 452.601 13.0075C452.829 13.0541 453 13.2557 453 13.4973V16.4973V19.4949L453 19.4973L453 19.4997V22.4973C453 22.7735 452.776 22.9973 452.5 22.9973H448.5H439.5C439.224 22.9973 439 22.7735 439 22.4973L439 16.4973V13.4973ZM440 21.9973H448V19.9973H440.019C440.012 19.9973 440.006 19.9972 440 19.997V21.9973ZM449 21.9973H452V19.9973H449V21.9973ZM452 16.9973V18.9973H449V16.9973H452ZM448 16.9973V18.9973H440.019C440.012 18.9973 440.006 18.9974 440 18.9977V16.9973H448ZM452 13.9973H449V15.9973H452V13.9973ZM448 13.9973V15.9973H440V13.9973H448Z" fill="#FF6F3D"/>
<path fill-rule="evenodd" clip-rule="evenodd" d="M825 5.5C825 4.67157 825.672 4 826.5 4L840.5 4.00003C841.328 4.00003 842 4.6716 842 5.50003V25.4974C842 26.3258 841.328 26.9974 840.5 26.9974H826.5C825.672 26.9974 825 26.3258 825 25.4974V5.5ZM826.5 5C826.224 5 826 5.22386 826 5.5V25.4974C826 25.7735 826.224 25.9974 826.5 25.9974H840.5C840.776 25.9974 841 25.7735 841 25.4974V5.50003C841 5.22388 840.776 5.00003 840.5 5.00003L826.5 5Z" fill="#333333"/>
<path fill-rule="evenodd" clip-rule="evenodd" d="M843.042 4.5C843.042 4.22386 843.266 4 843.542 4H844.5C845.328 4 846 4.67157 846 5.5V25.4973C846 26.3258 845.34 26.9973 844.511 26.9973H843.5C843.224 26.9973 843 26.7735 843 26.4973C843 26.2212 843.224 25.9973 843.5 25.9973H844.511C844.788 25.9973 845 25.7735 845 25.4973V5.5C845 5.22386 844.776 5 844.5 5H843.542C843.266 5 843.042 4.77614 843.042 4.5Z" fill="#333333"/>
<path d="M818 13.4722V11.0591C818 10.5068 818.448 10.0591 819 10.0591H822C822.552 10.0591 823 10.5068 823 11.0591V13.4722L823 24.0797L820.568 26.9973L818 23.9973V13.4722Z" fill="#FF6F3D"/>
<path fill-rule="evenodd" clip-rule="evenodd" d="M819 11.0591V23.6277L820.558 25.4476L822 23.7175L822 11.0591L819 11.0591ZM823 24.0797L823 11.0591C823 10.5068 822.552 10.0591 822 10.0591H819C818.448 10.0591 818 10.5068 818 11.0591V23.9973L820.568 26.9973L823 24.0797Z" fill="#333333"/>
<path d="M829 8H838V9H829V8Z" fill="#FF6F3D"/>
<path d="M829 15.9973H838V16.9973H829V15.9973Z" fill="#333333"/>
<path d="M829 12.9973H838V13.9973H829V12.9973Z" fill="#333333"/>
<path d="M829 21.9973H838V22.9973H829V21.9973Z" fill="#333333"/>
<path d="M829 18.9973H838V19.9973H829V18.9973Z" fill="#333333"/>
<path d="M820 12.9973H821V22.9973H820V12.9973Z" fill="white"/>
<path fill-rule="evenodd" clip-rule="evenodd" d="M533.5 21L536.5 24L539.5 21H550C551.105 21 552 20.1046 552 19V7C552 5.89543 551.105 5 550 5H532C530.895 5 530 5.89543 530 7V19C530 20.1046 530.895 21 532 21H533.5Z" fill="#D9F4FF"/>
<path fill-rule="evenodd" clip-rule="evenodd" d="M550 19.5C550.276 19.5 550.5 19.2761 550.5 19H551V7C551 6.44772 550.552 6 550 6H532C531.448 6 531 6.44772 531 7V19C531 19.5523 531.448 20 532 20H533.914L536.5 22.5858L539.086 20H550V19.5ZM536.5 24L533.5 21H532C530.895 21 530 20.1046 530 19V7C530 5.89543 530.895 5 532 5H550C551.105 5 552 5.89543 552 7V19C552 20.1046 551.105 21 550 21H539.5L536.5 24Z" fill="#333333"/>
<path d="M535 9H547V10H535V9Z" fill="#333333"/>
<path d="M535 12H547V13H535V12Z" fill="#333333"/>
<path d="M541 15H535V16H541V15Z" fill="#333333"/>
<path fill-rule="evenodd" clip-rule="evenodd" d="M551.016 28.0583C554.874 28.0583 558.016 24.9163 558.016 21.0584C558.016 17.2004 554.874 14.0583 551.016 14.0583C547.158 14.0583 544.016 17.2004 544.016 21.0584C544.006 24.9163 547.158 28.0583 551.016 28.0583Z" fill="url(#paint4_linear_22_792)"/>
<path fill-rule="evenodd" clip-rule="evenodd" d="M545.016 21.0584V21.0609C545.008 24.3622 547.708 27.0583 551.016 27.0583C554.322 27.0583 557.016 24.364 557.016 21.0584C557.016 17.7527 554.322 15.0583 551.016 15.0583C547.71 15.0583 545.016 17.7527 545.016 21.0584ZM544.016 21.0584C544.016 17.2004 547.158 14.0583 551.016 14.0583C554.874 14.0583 558.016 17.2004 558.016 21.0584C558.016 24.9163 554.874 28.0583 551.016 28.0583C547.158 28.0583 544.006 24.9163 544.016 21.0584Z" fill="#333333"/>
<path fill-rule="evenodd" clip-rule="evenodd" d="M549.038 17.6684L551.018 19.6489L552.998 17.6692C553.075 17.5925 553.204 17.5926 553.281 17.6694L554.436 18.8243C554.513 18.901 554.486 19.004 554.409 19.0807L552.43 21.0604L554.405 23.0358C554.482 23.1126 554.493 23.2398 554.416 23.3165L553.275 24.4572C553.199 24.5339 553.065 24.5296 552.988 24.4528L551.013 22.4775L549.036 24.4544C548.959 24.5311 548.85 24.552 548.773 24.4752L547.618 23.3203C547.542 23.2435 547.542 23.1137 547.618 23.037L549.595 21.06L547.615 19.0795C547.538 19.0027 547.538 18.8729 547.614 18.7962L548.755 17.6555C548.844 17.5788 548.961 17.5916 549.038 17.6684Z" fill="white"/>
<path fill-rule="evenodd" clip-rule="evenodd" d="M592.648 15.5C592.648 15.2239 592.872 15 593.148 15H596.662C596.938 15 597.162 15.2239 597.162 15.5C597.162 15.7761 596.938 16 596.662 16H593.148C592.872 16 592.648 15.7761 592.648 15.5Z" fill="#333333"/>
<path fill-rule="evenodd" clip-rule="evenodd" d="M595.594 19.2296C594.609 20.0993 593.315 20.627 591.898 20.627C588.812 20.627 586.31 18.1253 586.31 15.0394C586.31 11.9534 588.812 9.45175 591.898 9.45175C594.984 9.45175 597.486 11.9534 597.486 15.0394C597.486 16.4567 596.958 17.7507 596.088 18.7358L595.594 19.2296Z" fill="#F5F5F5"/>
<path fill-rule="evenodd" clip-rule="evenodd" d="M595.594 19.2296L596.088 18.7358C596.958 17.7507 597.486 16.4567 597.486 15.0394C597.486 11.9534 594.984 9.45175 591.898 9.45175C588.812 9.45175 586.31 11.9534 586.31 15.0394C586.31 18.1253 588.812 20.627 591.898 20.627C593.315 20.627 594.609 20.0993 595.594 19.2296ZM595.358 18.0517L594.91 18.4995C594.104 19.2024 593.052 19.627 591.898 19.627C589.364 19.627 587.31 17.573 587.31 15.0394C587.31 12.5057 589.364 10.4518 591.898 10.4518C594.432 10.4518 596.486 12.5057 596.486 15.0394C596.486 16.1931 596.061 17.2452 595.358 18.0517Z" fill="#D9F4FF"/>
<path fill-rule="evenodd" clip-rule="evenodd" d="M598.178 18.1378L604.711 24.8447C605.654 25.7934 605.652 27.3269 604.706 28.2734C603.758 29.2217 602.22 29.2217 601.272 28.2734L601.271 28.2725L594.573 21.5567L595.717 20.9123L595.727 20.9065C595.737 20.9004 595.755 20.8896 595.78 20.8745C595.828 20.8441 595.902 20.7966 595.991 20.7334C596.172 20.6056 596.409 20.4212 596.637 20.1932C596.875 19.9543 597.091 19.6941 597.25 19.4884C597.329 19.3869 597.391 19.3017 597.433 19.2431C597.454 19.2139 597.469 19.1915 597.479 19.1773L597.49 19.1622L597.491 19.1603C597.491 19.1601 597.491 19.1601 597.491 19.1603L598.178 18.1378ZM597.701 20.5152C598.071 20.0894 598.321 19.718 598.321 19.718L603.999 25.5466C604.557 26.1043 604.557 27.0086 603.999 27.5663C603.441 28.1241 602.537 28.1241 601.979 27.5663L596.21 21.7822C596.21 21.7822 596.59 21.5684 597.031 21.1893C597.134 21.1016 597.239 21.0051 597.344 20.9003C597.471 20.7727 597.592 20.6415 597.701 20.5152Z" fill="#333333"/>
<path fill-rule="evenodd" clip-rule="evenodd" d="M597.632 21.184C597.827 20.9888 598.144 20.9888 598.339 21.184L603.317 26.1619C603.512 26.3571 603.512 26.6737 603.317 26.869C603.122 27.0642 602.805 27.0642 602.61 26.869L599.646 23.905L597.632 21.8911C597.437 21.6959 597.437 21.3793 597.632 21.184Z" fill="#FF6F3D"/>
<path fill-rule="evenodd" clip-rule="evenodd" d="M604.024 25.4547C604.61 26.0405 604.61 26.9903 604.024 27.5761C603.438 28.1618 602.489 28.1619 601.903 27.5761L598.939 24.6122L596.925 22.5983C596.339 22.0125 596.339 21.0627 596.925 20.4769C597.511 19.8912 598.46 19.8911 599.046 20.4769C599.046 20.4769 599.046 20.4769 599.046 20.4769L604.024 25.4547ZM603.233 26.0778L600.353 23.198L598.339 21.1842C598.339 21.1841 598.339 21.1842 598.339 21.1842L599.046 20.4769M599.646 23.9051L602.61 26.869C602.805 27.0642 603.122 27.0642 603.317 26.869C603.512 26.6737 603.512 26.3571 603.317 26.1619L603.233 26.0778" fill="#F9F9F9"/>
<path fill-rule="evenodd" clip-rule="evenodd" d="M595.726 19.3348L595.703 19.3554C594.683 20.2556 593.341 20.803 591.874 20.803C588.678 20.803 586.086 18.2118 586.086 15.0154C586.086 11.819 588.678 9.22775 591.874 9.22775C595.07 9.22775 597.662 11.819 597.662 15.0154C597.662 16.4827 597.114 17.8247 596.214 18.8444L596.194 18.8677L595.726 19.3348ZM595.041 18.6058L595.464 18.1826C596.21 17.3386 596.662 16.2298 596.662 15.0154C596.662 12.3712 594.518 10.2278 591.874 10.2278C589.23 10.2278 587.086 12.3712 587.086 15.0154C587.086 17.6595 589.23 19.803 591.874 19.803C593.088 19.803 594.197 19.3509 595.041 18.6058Z" fill="#FF6F3D"/>
<path fill-rule="evenodd" clip-rule="evenodd" d="M597.166 21.0148L597.873 20.3077C599.119 18.8973 599.874 17.0446 599.874 15.0154C599.874 10.5971 596.292 7.01538 591.874 7.01538C587.456 7.01538 583.874 10.5971 583.874 15.0154C583.874 19.4337 587.456 23.0154 591.874 23.0154C593.903 23.0154 595.756 22.2599 597.166 21.0148ZM591.874 22.0154C593.639 22.0154 595.25 21.3631 596.482 20.285L597.144 19.6233C598.222 18.3915 598.874 16.7808 598.874 15.0154C598.874 11.1494 595.74 8.01538 591.874 8.01538C588.008 8.01538 584.874 11.1494 584.874 15.0154C584.874 18.8814 588.008 22.0154 591.874 22.0154Z" fill="#333333"/>
<path fill-rule="evenodd" clip-rule="evenodd" d="M579.468 16.5624L577.966 19.3018L577.089 18.8208L579.435 14.545L580.311 15.0259L580.07 15.4653H580.416C580.416 21.1227 585.002 25.709 590.659 25.709V26.709C584.82 26.709 580.02 22.2573 579.468 16.5624Z" fill="#FF6F3D"/>
<path fill-rule="evenodd" clip-rule="evenodd" d="M603.516 13.4236L605.123 10.4938L606 10.9747L603.517 15.5L602.688 15.0448H602.611C602.611 8.43545 597.66 3.66924 591.663 3.66924C587.189 3.66924 583.345 6.37267 581.678 10.2373L580.759 9.8411C582.579 5.62315 586.776 2.66924 591.663 2.66924C597.719 2.66924 602.771 7.12079 603.516 13.4236Z" fill="#333333"/>
<path d="M628 14C628 13.4477 628.448 13 629 13H637.366H640.774H644.183H647.591H650C650.552 13 651 13.4477 651 14V17C651 17.5523 650.552 18 650 18H646.791H642.582H638.373H634.164H629C628.448 18 628 17.5523 628 17V14Z" fill="#D9F4FF"/>
<path fill-rule="evenodd" clip-rule="evenodd" d="M652 14V17C652 18.1046 651.105 19 650 19H629C627.895 19 627 18.1046 627 17V14C627 12.8954 627.895 12 629 12H650C651.105 12 652 12.8954 652 14ZM629 13C628.448 13 628 13.4477 628 14V17C628 17.5523 628.448 18 629 18H650C650.552 18 651 17.5523 651 17V14C651 13.4477 650.552 13 650 13H629Z" fill="#333333"/>
<path d="M628 5C628 4.44772 628.448 4 629 4H650C650.552 4 651 4.44772 651 5V8C651 8.55228 650.552 9 650 9H629C628.448 9 628 8.55228 628 8V5Z" fill="#D9F4FF"/>
<path fill-rule="evenodd" clip-rule="evenodd" d="M629 3H650C651.105 3 652 3.89543 652 5V8C652 9.10457 651.105 10 650 10H629C627.895 10 627 9.10457 627 8V5C627 3.89543 627.895 3 629 3ZM629 4C628.448 4 628 4.44772 628 5V8C628 8.55228 628.448 9 629 9H650C650.552 9 651 8.55228 651 8V5C651 4.44772 650.552 4 650 4H629Z" fill="#333333"/>
<path fill-rule="evenodd" clip-rule="evenodd" d="M629.5 6.5C629.5 6.22386 629.724 6 630 6H648.911C649.187 6 649.411 6.22386 649.411 6.5C649.411 6.77614 649.187 7 648.911 7H630C629.724 7 629.5 6.77614 629.5 6.5Z" fill="#333333"/>
<path fill-rule="evenodd" clip-rule="evenodd" d="M640.648 15.5C640.648 15.2239 640.872 15 641.148 15H644.662C644.938 15 645.162 15.2239 645.162 15.5C645.162 15.7761 644.938 16 644.662 16H641.148C640.872 16 640.648 15.7761 640.648 15.5Z" fill="#333333"/>
<path fill-rule="evenodd" clip-rule="evenodd" d="M645.332 22.0414C643.918 23.2902 642.059 24.0479 640.024 24.0479C635.592 24.0479 632 20.4555 632 16.024C632 11.5925 635.592 8 640.024 8C644.455 8 648.048 11.5925 648.048 16.024C648.048 18.0593 647.29 19.9176 646.041 21.3321L645.332 22.0414Z" fill="#D9D9D9"/>
<path fill-rule="evenodd" clip-rule="evenodd" d="M645.332 22.0414L646.041 21.3321C647.29 19.9176 648.048 18.0593 648.048 16.024C648.048 11.5925 644.455 8 640.024 8C635.592 8 632 11.5925 632 16.024C632 20.4555 635.592 24.0479 640.024 24.0479C642.059 24.0479 643.918 23.2902 645.332 22.0414ZM640.024 23.0479C641.795 23.0479 643.412 22.3934 644.648 21.3115L645.312 20.6477C646.393 19.4117 647.048 17.7955 647.048 16.024C647.048 12.1447 643.903 9 640.024 9C636.145 9 633 12.1447 633 16.024C633 19.9032 636.145 23.0479 640.024 23.0479Z" fill="#D9F4FF"/>
<path fill-rule="evenodd" clip-rule="evenodd" d="M641.377 14.3537L652.832 25.8241C653.78 26.7724 653.78 28.3098 652.832 29.258C651.884 30.2063 650.346 30.2063 649.398 29.2581L637.943 17.7872C636.995 16.8389 636.995 15.3013 637.943 14.3532C638.891 13.405 640.429 13.4054 641.377 14.3537ZM638.65 17.0801L650.105 28.551C650.663 29.1087 651.567 29.1087 652.125 28.5509C652.683 27.9932 652.683 27.0889 652.125 26.5312L640.669 15.0603C640.112 14.5026 639.207 14.5026 638.65 15.0603C638.092 15.6181 638.092 16.5223 638.65 17.0801Z" fill="#333333"/>
<path fill-rule="evenodd" clip-rule="evenodd" d="M644.808 21.2187C645.003 21.0234 645.32 21.0234 645.515 21.2186L651.443 27.1465C651.638 27.3417 651.638 27.6583 651.443 27.8536C651.248 28.0488 650.931 28.0488 650.736 27.8536L644.808 21.9258C644.613 21.7305 644.613 21.4139 644.808 21.2187Z" fill="#FF6F3D"/>
<path fill-rule="evenodd" clip-rule="evenodd" d="M646.222 20.5115C645.636 19.9258 644.687 19.9258 644.101 20.5116ZM645.515 21.2188L651.443 27.1465C651.638 27.3417 651.638 27.6583 651.443 27.8536C651.248 28.0488 650.931 28.0488 650.736 27.8536L644.808 21.9259C644.808 21.9258 644.808 21.9258 644.808 21.9258C644.613 21.7305 644.613 21.4139 644.808 21.2187C645.003 21.0234 645.32 21.0234 645.515 21.2186C645.515 21.2187 645.515 21.2187 645.515 21.2188ZM646.222 20.5115L652.15 26.4394C652.736 27.0251 652.736 27.9749 652.15 28.5607C651.564 29.1465 650.615 29.1465 650.029 28.5607L644.101 22.6329C643.515 22.0471 643.515 21.0973 644.101 20.5116" fill="#F9F9F9"/>
<path fill-rule="evenodd" clip-rule="evenodd" d="M645.292 21.9994C643.882 23.2445 642.029 24 640 24C635.582 24 632 20.4183 632 16C632 11.5817 635.582 8 640 8C644.418 8 648 11.5817 648 16C648 18.0292 647.244 19.882 645.999 21.2923L645.292 21.9994Z" fill="#FF6F3D"/>
<path fill-rule="evenodd" clip-rule="evenodd" d="M645.977 22.7285L645.954 22.7491C644.368 24.1493 642.282 25 640 25C635.029 25 631 20.9706 631 16C631 11.0294 635.029 7 640 7C644.971 7 649 11.0294 649 16C649 18.2822 648.149 20.3681 646.749 21.9541L646.729 21.9774L645.977 22.7285ZM645.292 21.9994L645.999 21.2923C647.244 19.882 648 18.0292 648 16C648 11.5817 644.418 8 640 8C635.582 8 632 11.5817 632 16C632 20.4183 635.582 24 640 24C642.029 24 643.882 23.2445 645.292 21.9994Z" fill="#F9F9F9"/>
<path fill-rule="evenodd" clip-rule="evenodd" d="M645.292 21.9994L645.999 21.2923C647.244 19.882 648 18.0292 648 16C648 11.5817 644.418 8 640 8C635.582 8 632 11.5817 632 16C632 20.4183 635.582 24 640 24C642.029 24 643.882 23.2445 645.292 21.9994ZM640 23C641.765 23 643.376 22.3477 644.608 21.2696L645.27 20.6079C646.348 19.3761 647 17.7654 647 16C647 12.134 643.866 9 640 9C636.134 9 633 12.134 633 16C633 19.866 636.134 23 640 23Z" fill="#333333"/>
<path fill-rule="evenodd" clip-rule="evenodd" d="M646.729 21.9774L645.977 22.7285L645.954 22.7491C644.368 24.1493 642.282 25 640 25C635.029 25 631 20.9706 631 16C631 11.0294 635.029 7 640 7C644.971 7 649 11.0294 649 16C649 18.2822 648.149 20.3681 646.749 21.9541L646.729 21.9774ZM645.267 22.0221C643.859 23.2537 642.017 24 640 24C635.582 24 632 20.4183 632 16C632 11.5817 635.582 8 640 8C644.418 8 648 11.5817 648 16C648 18.0168 647.254 19.8594 646.022 21.2665C646.015 21.2751 646.007 21.2837 645.999 21.2923L645.292 21.9994C645.284 22.007 645.275 22.0145 645.267 22.0221ZM644.608 21.2696L645.27 20.6079C645.399 20.4605 645.521 20.3077 645.638 20.1499C646.494 18.9885 647 17.5542 647 16C647 12.134 643.866 9 640 9C636.134 9 633 12.134 633 16C633 19.866 636.134 23 640 23C641.765 23 643.376 22.3477 644.608 21.2696ZM643.925 20.5381C642.872 21.4502 641.503 22 640 22C636.686 22 634 19.3137 634 16C634 12.6863 636.686 10 640 10C643.314 10 646 12.6863 646 16C646 17.5026 645.45 18.872 644.538 19.9252L643.925 20.5381Z" fill="#F9F9F9"/>
<path fill-rule="evenodd" clip-rule="evenodd" d="M643.296 19.7379C642.415 20.516 641.257 20.9882 639.988 20.9882C637.227 20.9882 634.988 18.7496 634.988 15.9882C634.988 13.2268 637.227 10.9882 639.988 10.9882C642.75 10.9882 644.988 13.2268 644.988 15.9882C644.988 17.2565 644.516 18.4144 643.738 19.2959L643.296 19.7379Z" fill="#F5F5F5"/>
<path fill-rule="evenodd" clip-rule="evenodd" d="M643.067 13.1228C643.292 13.2837 643.343 13.5961 643.182 13.8205L639.282 19.2609L636.539 16.1892C636.355 15.9832 636.373 15.6671 636.579 15.4832C636.785 15.2993 637.101 15.3172 637.285 15.5232L639.196 17.6638L642.369 13.2378C642.53 13.0134 642.843 12.9619 643.067 13.1228Z" fill="#333333"/>
<g clip-path="url(#clip0_22_792)">
<path d="M673.07 22.8696C673.253 23.067 673.56 23.0837 673.764 22.9073L684.043 14.0037C684.156 13.9058 684.219 13.7623 684.215 13.6127C684.211 13.4631 684.14 13.3231 684.022 13.2312L683.974 13.1935L683.974 13.1934L683.966 13.1875L673.522 5.38745C673.409 5.30259 673.264 5.26997 673.125 5.29772C672.986 5.32548 672.865 5.41099 672.793 5.53298C672.6 5.8577 672.5 6.22917 672.5 6.61805V21.407C672.5 21.969 672.714 22.4862 673.07 22.8696Z" fill="#FEFEFE" stroke="#333333" stroke-linejoin="round"/>
<path d="M699.477 5.18996L689.343 12.7424L689.341 12.744L688.703 13.214C688.578 13.3063 688.503 13.4516 688.5 13.6072C688.497 13.7628 688.567 13.9108 688.689 14.0077L688.787 14.086L699.135 23.0674L699.135 23.0675L699.143 23.0739L699.211 23.1304C699.382 23.2732 699.627 23.2853 699.812 23.1601C700.47 22.7131 700.5 21.9395 700.5 21.4071V6.61818C700.5 6.54734 700.502 6.47992 700.505 6.40462C700.506 6.38094 700.507 6.35649 700.508 6.3309C700.511 6.23081 700.513 6.11526 700.506 5.99858C700.49 5.75955 700.43 5.4728 700.211 5.21765C700.121 5.11279 699.992 5.04976 699.854 5.04348C699.716 5.03721 699.582 5.08827 699.483 5.18454L699.477 5.18996Z" fill="#FEFEFE" stroke="#333333" stroke-linejoin="round"/>
<path d="M699.797 22.3009L690.05 13.5781C689.855 13.4033 689.558 13.409 689.369 13.5912L688.201 14.7213C687.224 15.6659 685.671 15.6572 684.705 14.7017L683.586 13.5951C683.399 13.4108 683.102 13.4018 682.905 13.5745L673.117 22.1442C673.015 22.2332 672.954 22.3596 672.947 22.4946C672.94 22.6295 672.988 22.7616 673.08 22.8606C673.429 23.2369 673.912 23.5014 674.5 23.5014H698.736C699.144 23.5014 699.52 23.3729 699.836 23.1638C699.973 23.0734 700.056 22.9219 700.06 22.7582C700.064 22.5945 699.987 22.4393 699.855 22.3428L699.797 22.3009Z" fill="#EFEFEF" stroke="#333333" stroke-linejoin="round"/>
<path d="M672.919 6.19204L683.368 14.1986L683.412 14.2341L683.412 14.2342L683.421 14.2407L684.825 15.3159C684.825 15.3161 684.826 15.3163 684.826 15.3165C685.274 15.6621 685.851 15.8074 686.403 15.7944C686.956 15.7814 687.531 15.6084 687.986 15.258C687.986 15.258 687.986 15.258 687.986 15.2579L689.321 14.2325L689.324 14.2305L689.961 13.7476L689.963 13.746L700.126 5.95931C700.143 5.94597 700.159 5.93149 700.175 5.91598L700.204 5.88689C700.389 5.70247 700.4 5.40729 700.231 5.20886C699.864 4.77835 699.331 4.5 698.726 4.5H674.522C673.768 4.5 673.125 4.93644 672.785 5.55385C672.665 5.7704 672.722 6.04165 672.919 6.19204Z" fill="#D9F4FF" stroke="#333333" stroke-linejoin="round"/>
<path d="M690.5 20.0013V20C690.5 16.4182 693.418 13.5 697 13.5C700.582 13.5 703.5 16.4182 703.5 20C703.5 23.5818 700.582 26.5 697 26.5C693.417 26.5 690.491 23.5809 690.5 20.0013Z" fill="url(#paint5_linear_22_792)" stroke="#333333"/>
<path fill-rule="evenodd" clip-rule="evenodd" d="M693.209 19H696.01L696.01 16.2002C696.01 16.0918 696.102 16 696.21 16H697.843C697.952 16 698.006 16.0918 698.006 16.2002V19H700.799C700.908 19 701.006 19.0821 701.006 19.1906V20.8038C701.006 20.9122 700.908 21.004 700.799 21.004H698.006V23.7998C698.006 23.9082 697.944 24 697.835 24H696.202C696.093 24 696.001 23.9082 696.001 23.7998L696.001 21.004H693.2C693.092 21.004 693 20.9122 693 20.8038L693 19.1906C693.008 19.0738 693.1 19 693.209 19Z" fill="white"/>
</g>
<path d="M729 3H725.4H723V5.4V9H725V5H729V3Z" fill="#444444"/>
<path d="M743 3H746.6H749V5.4V9H747V5H743V3Z" fill="#444444"/>
<path d="M729 29H725.4H723V26.6V23H725V27H729V29Z" fill="#444444"/>
<path d="M743 29H746.6H749V26.6V23H747V27H743V29Z" fill="#444444"/>
<path d="M724 15.5C724 14.6486 724.118 13.9189 724.353 13.3108C724.588 12.8243 724.824 12.4595 725.176 12.0946C725.529 11.7297 725.882 11.4865 726.235 11.3649C726.706 11.1216 727.412 11 728 11C729.294 11 730.235 11.3649 730.941 12.2162C731.647 13.0676 732 14.1622 732 15.5C732 16.9595 731.647 18.0541 730.941 18.7838C730.235 19.6351 729.176 20 728 20C726.706 20 725.765 19.6351 725.059 18.7838C724.353 18.0541 724 16.9595 724 15.5ZM725.765 15.5C725.765 16.473 726 17.2027 726.471 17.6892C726.941 18.1757 727.412 18.4189 728.118 18.4189C728.824 18.4189 729.294 18.1757 729.765 17.6892C730.235 17.2027 730.471 16.473 730.471 15.3784C730.471 14.4054 730.235 13.6757 729.882 13.1892C729.412 12.7027 728.941 12.4595 728.235 12.4595C727.529 12.4595 726.941 12.7027 726.588 13.1892C725.882 13.7973 725.765 14.527 725.765 15.5Z" fill="#444444"/>
<path d="M738.419 16.76L740 17.24C739.774 18.2 739.323 18.92 738.758 19.28C738.194 19.76 737.516 20 736.613 20C735.484 20 734.694 19.64 734.016 18.8C733.339 17.96 733 17 733 15.56C733 14.12 733.339 13.04 734.016 12.2C734.694 11.36 735.597 11 736.726 11C737.742 11 738.532 11.36 739.097 11.96C739.435 12.32 739.774 12.8 739.887 13.52L738.306 13.88C738.194 13.4 737.968 13.04 737.742 12.8C737.403 12.56 737.065 12.44 736.613 12.44C736.048 12.44 735.484 12.68 735.145 13.16C734.806 13.64 734.581 14.36 734.581 15.44C734.581 16.52 734.806 17.24 735.145 17.72C735.484 18.2 735.935 18.44 736.613 18.44C737.391 18.44 738.298 17.5335 738.419 16.76Z" fill="#444444"/>
<path d="M741 20V11H744.281C745.156 11 745.703 11.125 746.141 11.25C746.469 11.375 746.797 11.75 747.016 12.125C747.234 12.5 747.344 13 747.344 13.5C747.344 14.125 747.125 14.75 746.797 15.125C746.469 15.5 745.922 15.875 745.266 16C745.594 16.25 745.922 16.5 746.141 16.75C746.359 17 746.688 17.5 747.016 18.25L748 20H746.141L745.047 18C744.609 17.25 744.391 16.875 744.172 16.625C744.062 16.5 743.844 16.375 743.734 16.25C743.516 16.125 743.297 16.125 742.969 16.125H742.641V19.875H741V20ZM742.531 14.75H743.734C744.5 14.75 744.937 14.75 745.156 14.625C745.375 14.5 745.484 14.375 745.594 14.25C745.703 14.125 745.703 13.875 745.703 13.625C745.703 13.375 745.594 13.125 745.484 12.875C745.375 12.75 745.156 12.625 744.938 12.5C744.828 12.5 744.391 12.5 743.734 12.5H742.531V14.75Z" fill="#444444"/>
<path fill-rule="evenodd" clip-rule="evenodd" d="M792.232 8.36364L787.75 3.79991V8.36364H792.232ZM775.25 30H792.75C793.44 30 794 29.4302 794 28.7273V8.89082C794 8.55327 793.868 8.22955 793.634 7.99086L788.116 2.37277C787.882 2.13409 787.564 2 787.232 2H775.25C774.56 2 774 2.56982 774 3.27273V28.7273C774 29.4302 774.56 30 775.25 30Z" fill="url(#paint6_linear_22_792)"/>
<path fill-rule="evenodd" clip-rule="evenodd" d="M793 9H787V3H775.25C775.129 3 775 3.10504 775 3.27273V28.7273C775 28.895 775.129 29 775.25 29H792.75C792.871 29 793 28.895 793 28.7273V9ZM794 28.7273C794 29.4302 793.44 30 792.75 30H775.25C774.56 30 774 29.4302 774 28.7273V3.27273C774 2.56982 774.56 2 775.25 2H787.232C787.287 2 787.341 2.00363 787.394 2.01076C787.666 2.04695 787.92 2.17336 788.116 2.37277L793.634 7.99086C793.83 8.19028 793.954 8.44905 793.989 8.72566C793.996 8.78013 794 8.83528 794 8.89082V28.7273ZM788 4L792 8H788V4Z" fill="#333333"/>
<path opacity="0.5" d="M787.163 24L786.263 20.9183H781.737L780.837 24H778L782.382 11H785.601L790 24H787.163ZM785.635 18.6158L784.735 15.6049C784.678 15.4042 784.602 15.1474 784.505 14.8345C784.415 14.5157 784.321 14.1939 784.225 13.8692C784.134 13.5386 784.061 13.2523 784.004 13.0102C783.948 13.2523 783.868 13.5534 783.766 13.9135C783.67 14.2677 783.577 14.6042 783.486 14.923C783.396 15.2418 783.331 15.4691 783.291 15.6049L782.399 18.6158H785.635Z" fill="white"/>
<path d="M488.5 7.47439H489.75M498.5 7.47439H497.25M493.506 7.47439V5.67151M493.506 7.47439H497.25M493.506 7.47439H489.75M497.25 7.47439C495.341 11.1573 493.571 12.6986 490.31 15.3698M489.75 7.47439C491.547 11.195 493.406 12.7873 497.165 15.3698" stroke="#333333" stroke-linecap="round"/>
<rect x="483.5" y="3.5" width="20" height="14" rx="1.5" stroke="#333333"/>
<rect x="488.5" y="14.5" width="20" height="14" rx="1.5" fill="white"/>
<rect x="492" y="18" width="13" height="1" fill="#FF6F3D"/>
<rect x="492" y="21" width="13" height="1" fill="#FF6F3D"/>
<rect x="492" y="24" width="13" height="1" fill="#FF6F3D"/>
<rect x="488.5" y="14.5" width="20" height="14" rx="1.5" stroke="#FF6F3D"/>
<g clip-path="url(#clip1_22_792)">
<path fill-rule="evenodd" clip-rule="evenodd" d="M867.683 15.06L868.032 14.403L868.507 14.9672L872.225 19.3802L871.459 20.0296L868.689 16.7416C869.01 23.2688 874.219 28.4324 880.564 28.4324C885.448 28.4324 889.656 25.3764 891.484 20.989L892.407 21.3736C890.435 26.1054 885.881 29.4324 880.564 29.4324C873.765 29.4324 868.22 24.0001 867.712 17.1344L865.86 20.6295L864.978 20.1658L867.683 15.06Z" fill="#FF6F3D"/>
<path fill-rule="evenodd" clip-rule="evenodd" d="M893.337 17.2534L892.989 17.9105L892.514 17.3462L888.796 12.9332L889.562 12.2839L892.332 15.5719C892.011 9.04465 886.802 3.88108 880.457 3.88108C875.573 3.88108 871.365 6.93708 869.537 11.3245L868.614 10.9399C870.586 6.20807 875.14 2.88108 880.457 2.88108C887.255 2.88108 892.801 8.31337 893.309 15.1791L895.161 11.684L896.042 12.1477L893.337 17.2534Z" fill="#333333"/>
<path d="M875.615 13.2891C876.352 13.2891 876.89 13.4479 877.228 13.7656C877.567 14.0807 877.736 14.5156 877.736 15.0703C877.736 15.3203 877.698 15.5599 877.623 15.7891C877.547 16.0156 877.424 16.2174 877.252 16.3945C877.082 16.5716 876.856 16.7122 876.572 16.8164C876.288 16.918 875.938 16.9688 875.521 16.9688H875.002V19H873.791V13.2891H875.615ZM875.552 14.2812H875.002V15.9766H875.4C875.627 15.9766 875.823 15.9466 875.99 15.8867C876.157 15.8268 876.286 15.7331 876.377 15.6055C876.468 15.4779 876.513 15.3138 876.513 15.1133C876.513 14.832 876.435 14.6237 876.279 14.4883C876.123 14.3503 875.881 14.2812 875.552 14.2812ZM883.312 16.0898C883.312 16.7331 883.189 17.2708 882.941 17.7031C882.697 18.1328 882.341 18.457 881.875 18.6758C881.409 18.8919 880.848 19 880.191 19H878.574V13.2891H880.367C880.966 13.2891 881.486 13.3958 881.926 13.6094C882.366 13.8203 882.707 14.1341 882.949 14.5508C883.191 14.9648 883.312 15.4779 883.312 16.0898ZM882.055 16.1211C882.055 15.6992 881.992 15.3529 881.867 15.082C881.745 14.8086 881.562 14.6068 881.32 14.4766C881.081 14.3464 880.784 14.2812 880.43 14.2812H879.785V18H880.305C880.896 18 881.335 17.8424 881.621 17.5273C881.91 17.2122 882.055 16.7435 882.055 16.1211ZM885.448 19H884.256V13.2891H887.53V14.2812H885.448V15.7539H887.385V16.7422H885.448V19Z" fill="#FF6F3D"/>
</g>
<g clip-path="url(#clip2_22_792)">
<path fill-rule="evenodd" clip-rule="evenodd" d="M915.683 15.06L916.032 14.403L916.507 14.9672L920.225 19.3802L919.459 20.0296L916.689 16.7416C917.01 23.2688 922.219 28.4324 928.564 28.4324C933.448 28.4324 937.656 25.3764 939.484 20.989L940.407 21.3736C938.435 26.1054 933.881 29.4324 928.564 29.4324C921.765 29.4324 916.22 24.0001 915.712 17.1344L913.86 20.6295L912.978 20.1658L915.683 15.06Z" fill="#FF6F3D"/>
<path fill-rule="evenodd" clip-rule="evenodd" d="M941.337 17.2534L940.989 17.9105L940.514 17.3462L936.796 12.9332L937.562 12.2839L940.332 15.5719C940.011 9.04465 934.802 3.88108 928.457 3.88108C923.573 3.88108 919.365 6.93708 917.537 11.3245L916.614 10.9399C918.586 6.20807 923.14 2.88108 928.457 2.88108C935.255 2.88108 940.801 8.31337 941.309 15.1791L943.161 11.684L944.042 12.1477L941.337 17.2534Z" fill="#333333"/>
<path d="M922.619 13.2891C923.356 13.2891 923.894 13.4479 924.232 13.7656C924.571 14.0807 924.74 14.5156 924.74 15.0703C924.74 15.3203 924.702 15.5599 924.627 15.7891C924.551 16.0156 924.427 16.2174 924.256 16.3945C924.086 16.5716 923.86 16.7122 923.576 16.8164C923.292 16.918 922.942 16.9688 922.525 16.9688H922.006V19H920.795V13.2891H922.619ZM922.556 14.2812H922.006V15.9766H922.404C922.631 15.9766 922.827 15.9466 922.994 15.8867C923.161 15.8268 923.289 15.7331 923.381 15.6055C923.472 15.4779 923.517 15.3138 923.517 15.1133C923.517 14.832 923.439 14.6237 923.283 14.4883C923.127 14.3503 922.885 14.2812 922.556 14.2812ZM930.645 19H929.105L926.621 14.6797H926.586C926.596 14.8594 926.605 15.0404 926.613 15.2227C926.621 15.4049 926.629 15.5872 926.637 15.7695C926.645 15.9492 926.652 16.1302 926.66 16.3125V19H925.578V13.2891H927.105L929.586 17.5664H929.613C929.608 17.3893 929.602 17.2135 929.594 17.0391C929.586 16.8646 929.578 16.6901 929.57 16.5156C929.565 16.3411 929.56 16.1667 929.555 15.9922V13.2891H930.645V19ZM934.014 15.793H936.28V18.7539C935.98 18.8529 935.669 18.9323 935.346 18.9922C935.023 19.0495 934.657 19.0781 934.248 19.0781C933.681 19.0781 933.199 18.9661 932.803 18.7422C932.407 18.5182 932.106 18.1875 931.901 17.75C931.695 17.3125 931.592 16.7747 931.592 16.1367C931.592 15.5378 931.707 15.0195 931.936 14.582C932.168 14.1445 932.505 13.806 932.948 13.5664C933.393 13.3268 933.936 13.207 934.576 13.207C934.878 13.207 935.177 13.2396 935.471 13.3047C935.765 13.3698 936.032 13.4544 936.272 13.5586L935.869 14.5273C935.695 14.4388 935.496 14.3646 935.272 14.3047C935.048 14.2448 934.813 14.2148 934.569 14.2148C934.217 14.2148 933.911 14.2956 933.651 14.457C933.393 14.6185 933.192 14.8451 933.049 15.1367C932.908 15.4258 932.838 15.7669 932.838 16.1602C932.838 16.5326 932.889 16.8633 932.99 17.1523C933.092 17.4388 933.252 17.6641 933.471 17.8281C933.69 17.9896 933.975 18.0703 934.326 18.0703C934.498 18.0703 934.643 18.0625 934.76 18.0469C934.88 18.0286 934.992 18.0104 935.096 17.9922V16.8008H934.014V15.793Z" fill="#FF6F3D"/>
</g>
<g clip-path="url(#clip3_22_792)">
<path fill-rule="evenodd" clip-rule="evenodd" d="M963.683 15.06L964.032 14.403L964.507 14.9672L968.225 19.3802L967.459 20.0296L964.689 16.7416C965.01 23.2688 970.219 28.4324 976.564 28.4324C981.448 28.4324 985.656 25.3764 987.484 20.989L988.407 21.3736C986.435 26.1054 981.881 29.4324 976.564 29.4324C969.765 29.4324 964.22 24.0001 963.712 17.1344L961.86 20.6295L960.978 20.1658L963.683 15.06Z" fill="#FF6F3D"/>
<path fill-rule="evenodd" clip-rule="evenodd" d="M989.337 17.2534L988.989 17.9105L988.514 17.3462L984.796 12.9332L985.562 12.2839L988.332 15.5719C988.011 9.04465 982.802 3.88108 976.457 3.88108C971.573 3.88108 967.365 6.93708 965.537 11.3245L964.614 10.9399C966.586 6.20807 971.14 2.88108 976.457 2.88108C983.255 2.88108 988.801 8.31337 989.309 15.1791L991.161 11.684L992.042 12.1477L989.337 17.2534Z" fill="#333333"/>
<path d="M972.761 19H971.705V16.8433H969.726V19H968.667V14.0029H969.726V15.9614H971.705V14.0029H972.761V19ZM975.604 19H974.544V14.8848H973.187V14.0029H976.961V14.8848H975.604V19ZM979.495 19L978.292 15.0796H978.262C978.266 15.173 978.273 15.3143 978.282 15.5034C978.293 15.6903 978.304 15.8896 978.313 16.1016C978.322 16.3135 978.326 16.5049 978.326 16.6758V19H977.38V14.0029H978.822L980.005 17.8242H980.025L981.28 14.0029H982.722V19H981.734V16.6348C981.734 16.4775 981.736 16.2964 981.741 16.0913C981.748 15.8862 981.756 15.6914 981.765 15.5068C981.774 15.32 981.781 15.1799 981.785 15.0864H981.755L980.466 19H979.495ZM983.633 19V14.0029H984.693V18.125H986.72V19H983.633Z" fill="#FF6F3D"/>
</g>
<g clip-path="url(#clip4_22_792)">
<path fill-rule="evenodd" clip-rule="evenodd" d="M1011.68 15.06L1012.03 14.403L1012.51 14.9672L1016.22 19.3802L1015.46 20.0296L1012.69 16.7416C1013.01 23.2688 1018.22 28.4324 1024.56 28.4324C1029.45 28.4324 1033.66 25.3764 1035.48 20.989L1036.41 21.3736C1034.44 26.1054 1029.88 29.4324 1024.56 29.4324C1017.77 29.4324 1012.22 24.0001 1011.71 17.1344L1009.86 20.6295L1008.98 20.1658L1011.68 15.06Z" fill="#FF6F3D"/>
<path fill-rule="evenodd" clip-rule="evenodd" d="M1037.34 17.2534L1036.99 17.9105L1036.51 17.3462L1032.8 12.9332L1033.56 12.2839L1036.33 15.5719C1036.01 9.04465 1030.8 3.88108 1024.46 3.88108C1019.57 3.88108 1015.37 6.93708 1013.54 11.3245L1012.61 10.9399C1014.59 6.20807 1019.14 2.88108 1024.46 2.88108C1031.26 2.88108 1036.8 8.31337 1037.31 15.1791L1039.16 11.684L1040.04 12.1477L1037.34 17.2534Z" fill="#333333"/>
<path d="M1020.34 14.6104C1020.11 14.6104 1019.9 14.6559 1019.72 14.7471C1019.54 14.8356 1019.39 14.9645 1019.27 15.1338C1019.15 15.3031 1019.06 15.5075 1019 15.7471C1018.93 15.9867 1018.9 16.2562 1018.9 16.5557C1018.9 16.9593 1018.95 17.3044 1019.05 17.5908C1019.15 17.8747 1019.31 18.0921 1019.52 18.2432C1019.73 18.3916 1020 18.4658 1020.34 18.4658C1020.57 18.4658 1020.8 18.4398 1021.03 18.3877C1021.27 18.3356 1021.52 18.2614 1021.79 18.165V19.1807C1021.54 19.2848 1021.29 19.359 1021.05 19.4033C1020.8 19.4502 1020.53 19.4736 1020.22 19.4736C1019.64 19.4736 1019.15 19.3525 1018.77 19.1104C1018.39 18.8656 1018.11 18.5244 1017.93 18.0869C1017.75 17.6468 1017.66 17.1338 1017.66 16.5479C1017.66 16.1156 1017.72 15.7197 1017.83 15.3604C1017.95 15.001 1018.12 14.6898 1018.35 14.4268C1018.58 14.1637 1018.86 13.9606 1019.19 13.8174C1019.52 13.6742 1019.9 13.6025 1020.34 13.6025C1020.62 13.6025 1020.9 13.639 1021.19 13.7119C1021.48 13.7822 1021.75 13.8799 1022.01 14.0049L1021.62 14.9893C1021.4 14.8877 1021.19 14.7992 1020.97 14.7236C1020.76 14.6481 1020.55 14.6104 1020.34 14.6104ZM1027.25 13.6846L1025.31 19.3955H1023.99L1022.05 13.6846H1023.28L1024.35 17.083C1024.37 17.1403 1024.4 17.2484 1024.44 17.4072C1024.48 17.5635 1024.52 17.7301 1024.57 17.9072C1024.61 18.0817 1024.64 18.2262 1024.66 18.3408C1024.67 18.2262 1024.7 18.0817 1024.74 17.9072C1024.78 17.7327 1024.82 17.5674 1024.86 17.4111C1024.9 17.2523 1024.93 17.1429 1024.95 17.083L1026.03 13.6846H1027.25ZM1031.11 17.8096C1031.11 18.1481 1031.03 18.4424 1030.86 18.6924C1030.7 18.9424 1030.46 19.1351 1030.14 19.2705C1029.83 19.4059 1029.45 19.4736 1029 19.4736C1028.8 19.4736 1028.61 19.4606 1028.42 19.4346C1028.23 19.4085 1028.05 19.3708 1027.88 19.3213C1027.7 19.2692 1027.54 19.2054 1027.38 19.1299V18.0049C1027.66 18.1247 1027.94 18.2327 1028.23 18.3291C1028.52 18.4255 1028.81 18.4736 1029.1 18.4736C1029.29 18.4736 1029.45 18.4476 1029.57 18.3955C1029.69 18.3434 1029.78 18.2718 1029.84 18.1807C1029.89 18.0895 1029.92 17.9854 1029.92 17.8682C1029.92 17.7249 1029.87 17.6025 1029.78 17.501C1029.68 17.3994 1029.55 17.3044 1029.38 17.2158C1029.21 17.1273 1029.02 17.0322 1028.81 16.9307C1028.68 16.8682 1028.53 16.7926 1028.38 16.7041C1028.22 16.613 1028.07 16.5023 1027.93 16.3721C1027.79 16.2419 1027.67 16.0843 1027.58 15.8994C1027.5 15.7119 1027.45 15.488 1027.45 15.2275C1027.45 14.8864 1027.53 14.5947 1027.69 14.3525C1027.84 14.1104 1028.06 13.9255 1028.35 13.7979C1028.64 13.6676 1028.99 13.6025 1029.38 13.6025C1029.68 13.6025 1029.96 13.6377 1030.23 13.708C1030.5 13.7757 1030.79 13.8747 1031.08 14.0049L1030.69 14.9463C1030.43 14.8395 1030.19 14.7575 1029.98 14.7002C1029.77 14.6403 1029.56 14.6104 1029.35 14.6104C1029.19 14.6104 1029.07 14.6351 1028.96 14.6846C1028.85 14.7314 1028.77 14.7992 1028.72 14.8877C1028.66 14.9736 1028.63 15.0739 1028.63 15.1885C1028.63 15.3239 1028.67 15.4385 1028.75 15.5322C1028.83 15.6234 1028.95 15.7119 1029.11 15.7979C1029.27 15.8838 1029.47 15.984 1029.71 16.0986C1030 16.2367 1030.25 16.3812 1030.46 16.5322C1030.67 16.6807 1030.83 16.8564 1030.94 17.0596C1031.05 17.2601 1031.11 17.5101 1031.11 17.8096Z" fill="#FF6F3D"/>
</g>
<path fill-rule="evenodd" clip-rule="evenodd" d="M1222.5 10H1207.5V9H1222.5V10ZM1216.17 7H1207.5V6H1216.17V7Z" fill="#333333"/>
<rect x="1208" y="13.5" width="18" height="12" stroke="#8BB825"/>
<path d="M1208.19 17.5L1225.5 17.5" stroke="#8BB825" stroke-linecap="round"/>
<path d="M1208.36 21.5H1225.5" stroke="#8BB825" stroke-linecap="round"/>
<path d="M1214 25.5V13.5" stroke="#8BB825" stroke-linecap="round"/>
<path d="M1220 25.5V13.5" stroke="#8BB825" stroke-linecap="round"/>
<path d="M1203 7.5V2.5H1208" stroke="#FF6F3D" stroke-linecap="round"/>
<path d="M1230 7.5V2.5H1225" stroke="#FF6F3D" stroke-linecap="round"/>
<path d="M1203 24.5V29.5H1208" stroke="#FF6F3D" stroke-linecap="round"/>
<path d="M1230 24.5V29.5H1225" stroke="#FF6F3D" stroke-linecap="round"/>
<path d="M1059 7.5V2.5H1064" stroke="#FF6F3D" stroke-linecap="round"/>
<path d="M1087 7.5V2.5H1082" stroke="#FF6F3D" stroke-linecap="round"/>
<path d="M1059 24.5V29.5H1064" stroke="#FF6F3D" stroke-linecap="round"/>
<path d="M1087 24.5V29.5H1082" stroke="#FF6F3D" stroke-linecap="round"/>
<rect x="1064" y="18.5" width="4" height="6" fill="#D9F4FF" stroke="#333333"/>
<rect x="1071" y="13.5" width="4" height="11" fill="#D9F4FF" stroke="#333333"/>
<rect x="1078" y="9.5" width="4" height="15" fill="#D9F4FF" stroke="#333333"/>
<path d="M1172.61 11.7575L1177.22 4.26025L1180.06 5.72146L1175.59 13.3124C1175.59 13.3124 1176.99 13.9416 1176.99 15.6266C1176.99 17.3116 1175.59 18.9254 1175.59 18.9254C1174.7 22.8511 1174 24.9373 1171.65 28.0373C1169.6 27.0973 1167.92 26.2455 1166.39 25.3437C1165.08 24.5658 1163.88 23.7507 1162.66 22.8096C1161.43 21.8658 1160.18 20.7953 1158.75 19.5085C1162.66 18.6246 1164.45 17.4109 1167.43 14.8432C1167.43 14.8432 1168.45 12.3981 1169.59 11.7575C1170.72 11.1168 1172.61 11.7575 1172.61 11.7575Z" fill="#F2F2F2"/>
<path d="M1172.61 11.7575L1177.22 4.26025L1180.06 5.72146L1175.59 13.3124M1172.61 11.7575L1175.59 13.3124M1172.61 11.7575C1172.61 11.7575 1170.72 11.1168 1169.59 11.7575C1168.45 12.3981 1167.43 14.8432 1167.43 14.8432M1175.59 13.3124C1175.59 13.3124 1176.99 13.9416 1176.99 15.6266C1176.99 17.3116 1175.59 18.9254 1175.59 18.9254M1167.43 14.8432C1164.45 17.4109 1162.66 18.6246 1158.75 19.5085C1160.18 20.7953 1161.43 21.8658 1162.66 22.8096M1167.43 14.8432L1175.59 18.9254M1175.59 18.9254C1174.7 22.8511 1174 24.9373 1171.65 28.0373C1169.6 27.0973 1167.92 26.2455 1166.39 25.3437M1162.66 22.8096L1166.01 20.936M1162.66 22.8096C1163.88 23.7507 1165.08 24.5658 1166.39 25.3437M1166.39 25.3437L1169.1 22.8096" stroke="#333333" stroke-linecap="round"/>
<path d="M1172.61 11.7575L1175.59 13.3124C1175.59 13.3124 1176.99 13.9416 1176.99 15.6266C1176.99 17.3117 1175.59 18.9254 1175.59 18.9254L1167.43 14.8432C1167.43 14.8432 1168.45 12.3981 1169.59 11.7575C1170.72 11.1169 1172.61 11.7575 1172.61 11.7575Z" fill="url(#paint7_linear_22_792)" stroke="#333333" stroke-linecap="round"/>
<path d="M1177.22 4.2602L1172.61 11.7574L1175.42 13.5004L1179.97 5.86243C1180.74 4.40124 1178.45 2.7769 1177.22 4.2602Z" fill="#333333" stroke="#333333" stroke-linecap="round"/>
<path d="M1171.05 4.54999L1156.05 4.49994V27.55H1163.19M1176.05 27.4999H1180.05V12.6813" stroke="#333333" stroke-linecap="round"/>
<path d="M1170 7.5H1164H1159V11.5M1165.07 11.5H1161.5H1159M1159 11.5V15.4706H1160.76" stroke="#8BB825"/>
<path fill-rule="evenodd" clip-rule="evenodd" d="M1109 4C1108.72 4 1108.5 4.22386 1108.5 4.5V8.5V12.5V16.5V19.5C1108.5 19.7761 1108.72 20 1109 20C1109.28 20 1109.5 19.7761 1109.5 19.5L1109.5 17H1113C1113.28 17 1113.5 16.7761 1113.5 16.5C1113.5 16.2239 1113.28 16 1113 16H1109.5L1109.5 13H1115.5V13.5C1115.5 13.7761 1115.72 14 1116 14C1116.28 14 1116.5 13.7761 1116.5 13.5V13H1120C1120.28 13 1120.5 12.7761 1120.5 12.5C1120.5 12.2239 1120.28 12 1120 12H1116.5L1116.5 9H1122.5V9.5C1122.5 9.77614 1122.72 10 1123 10C1123.28 10 1123.5 9.77614 1123.5 9.5V9H1129.5V14.58C1129.5 14.8561 1129.72 15.08 1130 15.08C1130.28 15.08 1130.5 14.8561 1130.5 14.58V4.5C1130.5 4.22386 1130.28 4 1130 4C1129.97 4 1129.95 4.00219 1129.92 4.00642C1129.89 4.00219 1129.87 4 1129.84 4H1123H1116H1109ZM1122.5 5H1116.5V8H1122.5V5ZM1123.5 8V5H1129.5V8H1123.5ZM1115.5 12L1115.5 9H1109.5L1109.5 12H1115.5ZM1115.5 8V5H1109.5L1109.5 8H1115.5Z" fill="#FF6F3D"/>
<rect x="1126.5" y="12" width="4" height="1" rx="0.5" fill="#FF6F3D"/>
<path d="M1118.5 16.5H1124V12.5815L1130 18.4908L1124 24.8203V20.4861H1116.05V16.5L1110 22.5115L1116.05 28.611V24.5H1121.5" stroke="#333333" stroke-linecap="round"/>
<rect x="1256.5" y="17.5" width="4" height="7" fill="#D9F4FF" stroke="#333333"/>
<path d="M1266 12.5H1263.5V24.4975H1267.5V20.0023" stroke="#333333" stroke-linecap="round"/>
<path d="M1274.5 16.9862V24.4976H1270.5V20.8917" stroke="#333333" stroke-linecap="round"/>
<path d="M1251.5 2.99997L1251.45 17.4947V29.4924H1279" stroke="#808080" stroke-linecap="round"/>
<path d="M1275.38 6.50642L1277.1 4.79125C1277.29 4.59599 1277.61 4.59599 1277.81 4.79125L1279.93 6.91257C1280.12 7.10783 1280.12 7.42442 1279.93 7.61968L1278.21 9.33484L1269.4 18.1493L1266.38 18.4287L1266.63 15.2598L1275.38 6.50642Z" fill="#FF6F3D" stroke="#333333"/>
<path d="M1326 7.00003V29C1326 29.2761 1325.78 29.5 1325.5 29.5H1303.5C1303.22 29.5 1303 29.2761 1303 29V7C1303 6.72386 1303.22 6.5 1303.5 6.5L1314.5 6.50002L1325.5 6.50003C1325.78 6.50003 1326 6.72389 1326 7.00003Z" stroke="#333333"/>
<path d="M1321.5 25.5H1299.5C1299.22 25.5 1299 25.2761 1299 25V3C1299 2.72386 1299.22 2.5 1299.5 2.5L1321.5 2.50003C1321.78 2.50003 1322 2.72389 1322 3.00003V25C1322 25.2761 1321.78 25.5 1321.5 25.5Z" stroke="#333333"/>
<path fill-rule="evenodd" clip-rule="evenodd" d="M1302.5 6L1303 6L1312.5 6.00001L1322 6.00003C1322.27 6.00003 1322.5 6.22388 1322.5 6.50003V25.5001V26.0001H1322H1303H1302.5V25.5001V6.5V6ZM1303.5 7V25.0001H1321.5V7.00003L1312.5 7.00001L1303.5 7Z" fill="#FF6F3D"/>
<path d="M1319.5 25L1309.65 14L1303.5 18.7106" stroke="#FF6F3D"/>
<circle cx="1316.5" cy="12" r="2" fill="#FF6F3D"/>
<g clip-path="url(#clip5_22_792)">
<path d="M1360.15 13.5H1363.66" stroke="#333333" stroke-linecap="round"/>
<path d="M1362.25 16.8648C1361.36 17.6509 1360.18 18.127 1358.9 18.127C1356.09 18.127 1353.81 15.8492 1353.81 13.0394C1353.81 10.2295 1356.09 7.95175 1358.9 7.95175C1361.71 7.95175 1363.99 10.2295 1363.99 13.0394C1363.99 14.3247 1363.51 15.4977 1362.72 16.3935L1362.25 16.8648Z" fill="#F5F5F5" stroke="#D9F4FF"/>
<path d="M1365.68 17.3691L1365.25 16.9279L1364.91 17.439C1364.91 17.439 1364.91 17.439 1364.91 17.439L1364.91 17.4391L1364.91 17.4392L1364.91 17.4392L1364.91 17.4397L1364.9 17.4437L1364.89 17.4616C1364.88 17.4778 1364.86 17.5023 1364.84 17.5337C1364.79 17.5966 1364.73 17.687 1364.65 17.7942C1364.48 18.01 1364.25 18.2879 1363.99 18.5467C1363.74 18.8002 1363.48 19.0026 1363.28 19.1419C1363.18 19.2112 1363.1 19.2639 1363.04 19.2987C1363.02 19.316 1363 19.3288 1362.98 19.3369L1362.97 19.3454L1362.96 19.3469L1362.96 19.3469C1362.96 19.347 1362.96 19.347 1362.96 19.347L1362.39 19.6695L1362.86 20.1353L1368.63 25.9194L1368.63 25.9199C1369.38 26.6729 1370.6 26.6729 1371.35 25.9199C1372.1 25.1677 1372.11 23.9487 1371.35 23.1955L1365.68 17.3691Z" stroke="#333333" stroke-linecap="round"/>
<path d="M1364.28 20.2447L1364.28 20.2447L1366.29 22.2586L1366.29 22.2586L1369.26 25.2225C1369.65 25.613 1370.28 25.613 1370.67 25.2225C1371.06 24.832 1371.06 24.1988 1370.67 23.8083L1370.32 24.1619L1370.67 23.8083L1365.69 18.8305C1365.69 18.8305 1365.69 18.8305 1365.69 18.8305C1365.3 18.44 1364.67 18.44 1364.28 18.8305C1363.89 19.221 1363.89 19.8542 1364.28 20.2447Z" fill="#FF6F3D" stroke="#F9F9F9" stroke-linecap="round"/>
<path d="M1362.37 16.9806L1362.38 16.9703L1362.39 16.9593L1362.82 16.5361L1362.83 16.5251L1362.84 16.5135C1363.66 15.5816 1364.16 14.3563 1364.16 13.0154C1364.16 10.0951 1361.79 7.72775 1358.87 7.72775C1355.95 7.72775 1353.59 10.0951 1353.59 13.0154C1353.59 15.9357 1355.95 18.303 1358.87 18.303C1360.21 18.303 1361.44 17.8033 1362.37 16.9806Z" stroke="#FF6F3D"/>
<path fill-rule="evenodd" clip-rule="evenodd" d="M1364.17 19.0148L1364.87 18.3077C1366.12 16.8973 1366.87 15.0446 1366.87 13.0154C1366.87 8.5971 1363.29 5.01538 1358.87 5.01538C1354.46 5.01538 1350.87 8.5971 1350.87 13.0154C1350.87 17.4337 1354.46 21.0154 1358.87 21.0154C1360.9 21.0154 1362.76 20.2599 1364.17 19.0148ZM1358.87 20.0154C1360.64 20.0154 1362.25 19.3631 1363.48 18.285L1364.14 17.6233C1365.22 16.3915 1365.87 14.7808 1365.87 13.0154C1365.87 9.14939 1362.74 6.01538 1358.87 6.01538C1355.01 6.01538 1351.87 9.14939 1351.87 13.0154C1351.87 16.8814 1355.01 20.0154 1358.87 20.0154Z" fill="#333333"/>
</g>
<rect x="1395" y="23" width="28" height="1" fill="#444444"/>
<path opacity="0.5" d="M1395 14C1395 13.4477 1395.45 13 1396 13H1422C1422.55 13 1423 13.4477 1423 14V23H1395V14Z" fill="#9ADAF3"/>
<path fill-rule="evenodd" clip-rule="evenodd" d="M1405.39 13.4L1405.51 13.0385C1405.99 12.0746 1406.59 10.6288 1406.47 9.66491C1406.47 9.18296 1406.11 8.8215 1405.03 8.8215C1404.55 8.8215 1404.07 9.06248 1403.71 9.30345C1403.34 9.54442 1403.1 9.78539 1402.86 10.1469C1402.74 10.5083 1402.62 10.8698 1402.62 11.3517C1402.62 11.8337 1402.86 12.3156 1403.1 12.7976C1403.22 12.9181 1403.47 13.2795 1403.83 13.641C1404.55 14.4844 1405.51 15.6893 1406.11 16.7736C1406.59 16.4122 1406.96 16.0507 1407.2 15.8098C1407.56 15.4483 1407.8 15.2073 1408.16 15.4483C1408.64 15.6893 1408.64 16.4122 1408.64 17.2556C1408.64 17.7375 1408.52 18.2195 1408.64 18.2195C1408.64 18.2195 1408.76 17.858 1409.24 16.6532C1409.24 16.5327 1409.24 16.2917 1409.24 16.1712C1409.36 15.9302 1409.48 15.6893 1409.6 15.4483C1410.2 14.6049 1410.69 14.6049 1410.69 15.5688C1411.05 14.9663 1411.53 14.2434 1411.65 13.882C1412.13 10.2673 1412.97 6.65273 1414.06 6.05029C1414.66 5.80932 1415.02 5.92981 1415.26 6.29127C1415.86 7.37566 1413.45 12.6771 1412.97 13.7615L1412.73 14.1229C1412.61 14.8459 1412.49 15.5688 1412.49 16.2917C1412.61 16.1712 1412.73 16.0507 1412.97 16.0507C1413.33 15.8097 1413.69 15.6893 1414.06 15.5688C1414.9 15.2073 1415.74 14.8459 1416.34 14.1229C1416.22 15.0868 1415.98 15.8097 1414.54 16.5327C1414.18 16.6532 1413.81 16.8941 1413.57 17.0146C1413.09 17.2556 1412.73 17.7375 1412.49 18.2195V18.34L1412.37 19.1834C1412.13 20.8702 1412.13 22.0751 1411.53 22.0751C1411.17 22.0751 1410.93 21.4726 1410.93 20.1473C1410.93 19.5448 1411.05 18.8219 1411.41 18.099L1411.65 16.4122C1411.17 17.0146 1410.69 17.4966 1410.2 17.3761C1409.36 18.8219 1408.76 19.1834 1408.4 19.0629C1407.92 18.8219 1407.8 17.9785 1407.8 17.1351C1407.8 17.0146 1407.8 16.8941 1407.8 16.7736C1407.56 17.0146 1407.2 17.3761 1406.71 17.6171C1407.08 18.581 1406.96 19.4244 1406.35 20.0268C1405.51 20.8702 1404.31 20.8702 1403.47 20.6292C1402.98 20.5087 1402.62 20.1473 1402.38 19.7858C1402.14 19.4244 1402.02 18.9424 1402.26 18.4605C1402.5 17.9785 1403.34 17.4966 1404.67 17.2556C1404.91 17.2556 1405.03 17.1351 1405.27 17.1351C1404.67 16.1712 1403.83 14.9663 1403.1 14.2434C1402.74 13.7615 1402.5 13.4 1402.38 13.2795C1402.02 12.5566 1401.78 11.9542 1401.66 11.3517C1401.66 10.7493 1401.78 10.1469 1402.02 9.54442C1402.26 9.06247 1402.74 8.58052 1403.22 8.33955C1403.71 7.97809 1404.31 7.8576 1405.03 7.73711C1406.83 7.61663 1407.56 8.33955 1407.68 9.54442C1407.68 10.9903 1406.96 13.159 1405.39 13.4ZM1405.51 19.4244C1405.75 19.1834 1405.75 18.7014 1405.63 18.2195C1405.39 18.34 1405.03 18.34 1404.79 18.4605C1403.71 18.5809 1403.22 18.9424 1403.1 19.1834C1403.1 19.3039 1403.1 19.3039 1403.1 19.4244C1403.22 19.5448 1403.47 19.6653 1403.71 19.7858C1404.31 19.9063 1405.03 19.9063 1405.51 19.4244ZM1413.69 9.90588C1414.06 8.8215 1414.42 7.8576 1414.54 7.25516C1414.18 7.73711 1413.94 8.70101 1413.69 9.90588Z" fill="#333333"/>
<defs>
<linearGradient id="paint0_linear_22_792" x1="98.0001" y1="4.17969" x2="118.164" y2="31.1172" gradientUnits="userSpaceOnUse">
<stop stop-color="#FF8E3D"/>
<stop offset="1" stop-color="#FF6F3D"/>
</linearGradient>
<linearGradient id="paint1_linear_22_792" x1="146" y1="4.17969" x2="166.164" y2="31.1172" gradientUnits="userSpaceOnUse">
<stop stop-color="#FF8E3D"/>
<stop offset="1" stop-color="#FF6F3D"/>
</linearGradient>
<linearGradient id="paint2_linear_22_792" x1="194" y1="0.90625" x2="222" y2="30" gradientUnits="userSpaceOnUse">
<stop stop-color="#FF8E3D"/>
<stop offset="1" stop-color="#FF6F3D"/>
</linearGradient>
<linearGradient id="paint3_linear_22_792" x1="353" y1="14.4141" x2="368" y2="30" gradientUnits="userSpaceOnUse">
<stop stop-color="#FF8E3D"/>
<stop offset="1" stop-color="#FF6F3D"/>
</linearGradient>
<linearGradient id="paint4_linear_22_792" x1="544.016" y1="13.5115" x2="558.016" y2="28.0584" gradientUnits="userSpaceOnUse">
<stop stop-color="#FF8E3D"/>
<stop offset="1" stop-color="#FF6F3D"/>
</linearGradient>
<linearGradient id="paint5_linear_22_792" x1="690" y1="12.4531" x2="704" y2="27" gradientUnits="userSpaceOnUse">
<stop stop-color="#FF8E3D"/>
<stop offset="1" stop-color="#FF6F3D"/>
</linearGradient>
<linearGradient id="paint6_linear_22_792" x1="774" y1="0.90625" x2="800.82" y2="20.8114" gradientUnits="userSpaceOnUse">
<stop stop-color="#FF8E3D"/>
<stop offset="1" stop-color="#FF6F3D"/>
</linearGradient>
<linearGradient id="paint7_linear_22_792" x1="1167.43" y1="11.1817" x2="1174.59" y2="20.7261" gradientUnits="userSpaceOnUse">
<stop stop-color="#FF8E3D"/>
<stop offset="1" stop-color="#FF6F3D"/>
</linearGradient>
<clipPath id="clip0_22_792">
<rect width="32" height="32" fill="white" transform="translate(672)"/>
</clipPath>
<clipPath id="clip1_22_792">
<rect width="32" height="32" fill="white" transform="translate(864)"/>
</clipPath>
<clipPath id="clip2_22_792">
<rect width="32" height="32" fill="white" transform="translate(912)"/>
</clipPath>
<clipPath id="clip3_22_792">
<rect width="32" height="32" fill="white" transform="translate(960)"/>
</clipPath>
<clipPath id="clip4_22_792">
<rect width="32" height="32" fill="white" transform="translate(1008)"/>
</clipPath>
<clipPath id="clip5_22_792">
<rect width="32" height="32" fill="white" transform="translate(1345)"/>
</clipPath>
</defs>
</svg>
