<svg width="201" height="33" viewBox="0 0 201 33" fill="none" xmlns="http://www.w3.org/2000/svg">
<g clip-path="url(#clip0_47_1628)">
<path d="M8.58923 28.9999C7.58065 28.9999 7.08923 28.4149 7.08923 27.4999V3.49992C7.08923 1.99465 8.58644 2.01833 8.58644 2.01833" stroke="#333333" stroke-linecap="round" stroke-linejoin="round"/>
<path d="M5.58923 28.9999C4.58065 28.9999 4.08923 28.4149 4.08923 27.4999V3.49992C4.08923 1.99465 5.58644 2.01833 5.58644 2.01833" stroke="#333333" stroke-linecap="round" stroke-linejoin="round"/>
<path d="M2.58923 28.9999C1.58065 28.9999 1.08923 28.4149 1.08923 27.4999V3.49992C1.08923 1.99465 2.58644 2.01833 2.58644 2.01833" stroke="#333333" stroke-linecap="round" stroke-linejoin="round"/>
<path d="M29.0892 13.9661V8.66995C29.0892 8.28413 28.9337 8.17532 28.6567 7.90251L23.3008 2.42608C23.0239 2.15327 22.9595 2 22.5678 2H11.5659C10.7504 2 10.0892 2.65131 10.0892 3.45474V27.5453C10.0892 28.3487 10.7504 29 11.5659 29H14.103" stroke="#333333" stroke-linecap="round"/>
<path d="M22.9428 2.14645C22.7998 2.00345 22.5847 1.96067 22.3979 2.03806C22.2111 2.11545 22.0892 2.29777 22.0892 2.5V7.75C22.0892 8.17742 22.1949 8.60234 22.6064 8.83251C22.7783 8.92861 22.9635 8.96473 23.1223 8.98166C23.2822 8.99871 23.4586 9 23.6282 9H28.5892C28.7915 9 28.9738 8.87818 29.0512 8.69134C29.1286 8.5045 29.0858 8.28945 28.9428 8.14645L22.9428 2.14645Z" fill="url(#paint0_linear_47_1628)" stroke="#333333" stroke-linecap="round" stroke-linejoin="round"/>
<circle cx="23.5892" cy="23.509" r="8.5" fill="url(#paint1_linear_47_1628)" stroke="#333333"/>
<path d="M22.9052 25.3596L22.5932 23.6676C22.9932 23.5636 23.3372 23.4476 23.6252 23.3196C23.9212 23.1916 24.1652 23.0516 24.3572 22.8996C24.5492 22.7396 24.6892 22.5676 24.7772 22.3836C24.8732 22.1916 24.9212 21.9836 24.9212 21.7596C24.9212 21.5196 24.8692 21.3116 24.7652 21.1356C24.6692 20.9516 24.5252 20.8076 24.3332 20.7036C24.1412 20.5996 23.9012 20.5476 23.6132 20.5476C23.3492 20.5476 23.1012 20.5956 22.8692 20.6916C22.6372 20.7876 22.4212 20.9276 22.2212 21.1116C22.0292 21.2956 21.8492 21.5156 21.6812 21.7716L20.8532 21.0516C21.0852 20.6996 21.3452 20.3996 21.6332 20.1516C21.9292 19.9036 22.2492 19.7156 22.5932 19.5876C22.9452 19.4516 23.3172 19.3836 23.7092 19.3836C24.2292 19.3836 24.6772 19.4836 25.0532 19.6836C25.4292 19.8756 25.7212 20.1436 25.9292 20.4876C26.1372 20.8316 26.2412 21.2236 26.2412 21.6636C26.2412 22.0476 26.1452 22.4116 25.9532 22.7556C25.7612 23.0996 25.4972 23.4036 25.1612 23.6676C24.8332 23.9236 24.4572 24.1276 24.0332 24.2796L23.8292 25.3596H22.9052ZM22.4852 27.1236C22.4852 26.8596 22.5612 26.6436 22.7132 26.4756C22.8652 26.3076 23.0652 26.2236 23.3132 26.2236C23.5772 26.2236 23.7812 26.3036 23.9252 26.4636C24.0692 26.6156 24.1412 26.8356 24.1412 27.1236C24.1412 27.3876 24.0652 27.6036 23.9132 27.7716C23.7612 27.9396 23.5612 28.0236 23.3132 28.0236C23.0492 28.0236 22.8452 27.9476 22.7012 27.7956C22.5572 27.6356 22.4852 27.4116 22.4852 27.1236Z" fill="white"/>
</g>
<g clip-path="url(#clip1_47_1628)">
<path d="M61.8679 17.0801L58.2526 18.7844C57.368 19.2105 57.368 19.869 58.2526 20.2563L68.6368 25.1369" stroke="#333333" stroke-linecap="round"/>
<path d="M82.1 12.5408L78.5724 10.8733M61.7783 10.8733L58.2507 12.5408C57.3688 12.9674 57.3688 13.6267 58.2507 14.0145L68.6033 18.9007" stroke="#333333" stroke-linecap="round"/>
<path fill-rule="evenodd" clip-rule="evenodd" d="M71.7474 12.8271L82.0999 8.01118C82.9818 7.59075 82.9818 6.94098 82.0999 6.55876L71.7474 1.74282C70.8655 1.32238 69.4468 1.32238 68.6032 1.74282L58.2507 6.55876C57.3688 6.9792 57.3688 7.62897 58.2507 8.01118L68.6032 12.8271C69.4851 13.2093 70.9038 13.2093 71.7474 12.8271Z" stroke="#333333"/>
<circle cx="79.5892" cy="23.509" r="8.5" fill="url(#paint2_linear_47_1628)" stroke="#333333"/>
<path d="M78.9052 25.3596L78.5932 23.6676C78.9932 23.5636 79.3372 23.4476 79.6252 23.3196C79.9212 23.1916 80.1652 23.0516 80.3572 22.8996C80.5492 22.7396 80.6892 22.5676 80.7772 22.3836C80.8732 22.1916 80.9212 21.9836 80.9212 21.7596C80.9212 21.5196 80.8692 21.3116 80.7652 21.1356C80.6692 20.9516 80.5252 20.8076 80.3332 20.7036C80.1412 20.5996 79.9012 20.5476 79.6132 20.5476C79.3492 20.5476 79.1012 20.5956 78.8692 20.6916C78.6372 20.7876 78.4212 20.9276 78.2212 21.1116C78.0292 21.2956 77.8492 21.5156 77.6812 21.7716L76.8532 21.0516C77.0852 20.6996 77.3452 20.3996 77.6332 20.1516C77.9292 19.9036 78.2492 19.7156 78.5932 19.5876C78.9452 19.4516 79.3172 19.3836 79.7092 19.3836C80.2292 19.3836 80.6772 19.4836 81.0532 19.6836C81.4292 19.8756 81.7212 20.1436 81.9292 20.4876C82.1372 20.8316 82.2412 21.2236 82.2412 21.6636C82.2412 22.0476 82.1452 22.4116 81.9532 22.7556C81.7612 23.0996 81.4972 23.4036 81.1612 23.6676C80.8332 23.9236 80.4572 24.1276 80.0332 24.2796L79.8292 25.3596H78.9052ZM78.4852 27.1236C78.4852 26.8596 78.5612 26.6436 78.7132 26.4756C78.8652 26.3076 79.0652 26.2236 79.3132 26.2236C79.5772 26.2236 79.7812 26.3036 79.9252 26.4636C80.0692 26.6156 80.1412 26.8356 80.1412 27.1236C80.1412 27.3876 80.0652 27.6036 79.9132 27.7716C79.7612 27.9396 79.5612 28.0236 79.3132 28.0236C79.0492 28.0236 78.8452 27.9476 78.7012 27.7956C78.5572 27.6356 78.4852 27.4116 78.4852 27.1236Z" fill="white"/>
</g>
<g clip-path="url(#clip2_47_1628)">
<path d="M123.556 21.6277C122.287 20.3282 121.509 18.5474 121.521 16.5873C121.546 12.6391 124.767 9.45876 128.716 9.48379C131.06 9.49864 133.133 10.64 134.426 12.3912" stroke="#333333" stroke-linecap="round"/>
<path d="M143.337 16.6081V13.5181C143.337 13.0942 143.045 12.7309 142.631 12.6401L141.271 12.3449C140.683 12.2162 140.216 11.7823 139.987 11.2272C139.757 10.6722 139.782 10.0338 140.108 9.52672L140.862 8.35353C141.092 7.99779 141.041 7.53103 140.744 7.23332L137.146 3.63302C136.848 3.33278 136.381 3.28232 136.026 3.51192L134.852 4.26629C134.345 4.59175 133.707 4.61446 133.152 4.38487C132.597 4.15528 132.163 3.686 132.037 3.09815L131.742 1.73573C131.651 1.32449 131.287 1.0293 130.864 1.0293L125.772 1.0293C125.351 1.0293 124.985 1.32196 124.894 1.73573L124.597 3.09815C124.468 3.686 124.034 4.15528 123.479 4.38487C122.924 4.61446 122.285 4.59175 121.778 4.26629L120.608 3.51192C120.254 3.28485 119.788 3.33531 119.487 3.63302L115.885 7.23332C115.587 7.53103 115.534 7.99779 115.769 8.35353L116.52 9.52672C116.846 10.0338 116.869 10.6722 116.639 11.2272C116.409 11.7848 115.94 12.2162 115.352 12.3449L113.99 12.6401C113.576 12.7309 113.281 13.0942 113.281 13.5181L113.276 18.6095C113.276 19.0333 113.569 19.3992 113.982 19.4875L115.345 19.7827C115.933 19.9113 116.399 20.3453 116.629 20.9003C116.859 21.4554 116.833 22.0937 116.508 22.6008L115.753 23.774C115.524 24.1298 115.574 24.5965 115.872 24.8942L119.47 28.4945C119.768 28.7922 120.234 28.8452 120.59 28.6156L121.763 27.8613C122.27 27.5358 122.909 27.5131 123.464 27.7427C124.019 27.9748 124.453 28.4416 124.579 29.0294L124.874 30.3918C124.965 30.8031 125.328 31.0983 125.752 31.0983" stroke="#333333" stroke-linecap="round"/>
<circle cx="134.589" cy="23.509" r="8.5" fill="url(#paint3_linear_47_1628)" stroke="#333333"/>
<path d="M133.905 25.3596L133.593 23.6676C133.993 23.5636 134.337 23.4476 134.625 23.3196C134.921 23.1916 135.165 23.0516 135.357 22.8996C135.549 22.7396 135.689 22.5676 135.777 22.3836C135.873 22.1916 135.921 21.9836 135.921 21.7596C135.921 21.5196 135.869 21.3116 135.765 21.1356C135.669 20.9516 135.525 20.8076 135.333 20.7036C135.141 20.5996 134.901 20.5476 134.613 20.5476C134.349 20.5476 134.101 20.5956 133.869 20.6916C133.637 20.7876 133.421 20.9276 133.221 21.1116C133.029 21.2956 132.849 21.5156 132.681 21.7716L131.853 21.0516C132.085 20.6996 132.345 20.3996 132.633 20.1516C132.929 19.9036 133.249 19.7156 133.593 19.5876C133.945 19.4516 134.317 19.3836 134.709 19.3836C135.229 19.3836 135.677 19.4836 136.053 19.6836C136.429 19.8756 136.721 20.1436 136.929 20.4876C137.137 20.8316 137.241 21.2236 137.241 21.6636C137.241 22.0476 137.145 22.4116 136.953 22.7556C136.761 23.0996 136.497 23.4036 136.161 23.6676C135.833 23.9236 135.457 24.1276 135.033 24.2796L134.829 25.3596H133.905ZM133.485 27.1236C133.485 26.8596 133.561 26.6436 133.713 26.4756C133.865 26.3076 134.065 26.2236 134.313 26.2236C134.577 26.2236 134.781 26.3036 134.925 26.4636C135.069 26.6156 135.141 26.8356 135.141 27.1236C135.141 27.3876 135.065 27.6036 134.913 27.7716C134.761 27.9396 134.561 28.0236 134.313 28.0236C134.049 28.0236 133.845 27.9476 133.701 27.7956C133.557 27.6356 133.485 27.4116 133.485 27.1236Z" fill="white"/>
</g>
<g clip-path="url(#clip3_47_1628)">
<path d="M180.993 22.4994L178.262 24.9803C177.619 25.5638 176.589 25.1079 176.589 24.2401L176.589 19.4998L171.044 19.4998C170.241 19.4998 169.589 18.8386 169.589 18.023L169.589 2.97647C169.589 2.1609 170.241 1.49976 171.044 1.49976L196.134 1.49976C196.938 1.49976 197.589 2.1609 197.589 2.97647L197.589 13.7381" stroke="#333333" stroke-linecap="round"/>
<circle cx="191.589" cy="23.509" r="8.5" fill="url(#paint4_linear_47_1628)" stroke="#333333"/>
<path d="M190.905 25.3596L190.593 23.6676C190.993 23.5636 191.337 23.4476 191.625 23.3196C191.921 23.1916 192.165 23.0516 192.357 22.8996C192.549 22.7396 192.689 22.5676 192.777 22.3836C192.873 22.1916 192.921 21.9836 192.921 21.7596C192.921 21.5196 192.869 21.3116 192.765 21.1356C192.669 20.9516 192.525 20.8076 192.333 20.7036C192.141 20.5996 191.901 20.5476 191.613 20.5476C191.349 20.5476 191.101 20.5956 190.869 20.6916C190.637 20.7876 190.421 20.9276 190.221 21.1116C190.029 21.2956 189.849 21.5156 189.681 21.7716L188.853 21.0516C189.085 20.6996 189.345 20.3996 189.633 20.1516C189.929 19.9036 190.249 19.7156 190.593 19.5876C190.945 19.4516 191.317 19.3836 191.709 19.3836C192.229 19.3836 192.677 19.4836 193.053 19.6836C193.429 19.8756 193.721 20.1436 193.929 20.4876C194.137 20.8316 194.241 21.2236 194.241 21.6636C194.241 22.0476 194.145 22.4116 193.953 22.7556C193.761 23.0996 193.497 23.4036 193.161 23.6676C192.833 23.9236 192.457 24.1276 192.033 24.2796L191.829 25.3596H190.905ZM190.485 27.1236C190.485 26.8596 190.561 26.6436 190.713 26.4756C190.865 26.3076 191.065 26.2236 191.313 26.2236C191.577 26.2236 191.781 26.3036 191.925 26.4636C192.069 26.6156 192.141 26.8356 192.141 27.1236C192.141 27.3876 192.065 27.6036 191.913 27.7716C191.761 27.9396 191.561 28.0236 191.313 28.0236C191.049 28.0236 190.845 27.9476 190.701 27.7956C190.557 27.6356 190.485 27.4116 190.485 27.1236Z" fill="white"/>
<circle cx="177.089" cy="10" r="1.5" fill="#333333"/>
<circle cx="183.089" cy="10" r="1.5" fill="#333333"/>
<circle cx="189.089" cy="10" r="1.5" fill="#333333"/>
</g>
<defs>
<linearGradient id="paint0_linear_47_1628" x1="22.5892" y1="2.26562" x2="28.5892" y2="8.5" gradientUnits="userSpaceOnUse">
<stop stop-color="#FFC671"/>
<stop offset="0.59375" stop-color="#FF7541"/>
<stop offset="1" stop-color="#FF6F3D"/>
</linearGradient>
<linearGradient id="paint1_linear_47_1628" x1="14.5893" y1="13.8059" x2="32.5893" y2="32.509" gradientUnits="userSpaceOnUse">
<stop stop-color="#FF8E3D"/>
<stop offset="1" stop-color="#FF6F3D"/>
</linearGradient>
<linearGradient id="paint2_linear_47_1628" x1="70.5893" y1="13.8059" x2="88.5893" y2="32.509" gradientUnits="userSpaceOnUse">
<stop stop-color="#FF8E3D"/>
<stop offset="1" stop-color="#FF6F3D"/>
</linearGradient>
<linearGradient id="paint3_linear_47_1628" x1="125.589" y1="13.8059" x2="143.589" y2="32.509" gradientUnits="userSpaceOnUse">
<stop stop-color="#FF8E3D"/>
<stop offset="1" stop-color="#FF6F3D"/>
</linearGradient>
<linearGradient id="paint4_linear_47_1628" x1="182.589" y1="13.8059" x2="200.589" y2="32.509" gradientUnits="userSpaceOnUse">
<stop stop-color="#FF8E3D"/>
<stop offset="1" stop-color="#FF6F3D"/>
</linearGradient>
<clipPath id="clip0_47_1628">
<rect width="32" height="32" fill="white" transform="translate(0.589233 0.5)"/>
</clipPath>
<clipPath id="clip1_47_1628">
<rect width="32" height="32" fill="white" transform="translate(56.5892 0.5)"/>
</clipPath>
<clipPath id="clip2_47_1628">
<rect width="32" height="32" fill="white" transform="translate(112.589 0.5)"/>
</clipPath>
<clipPath id="clip3_47_1628">
<rect width="32" height="32" fill="white" transform="translate(168.589 0.5)"/>
</clipPath>
</defs>
</svg>
