<svg width="2580" height="960" viewBox="0 0 2580 960" fill="none" xmlns="http://www.w3.org/2000/svg">
<g clip-path="url(#clip0_807_2178)">
<rect width="2580" height="960" fill="#F5F5F5"/>
<path opacity="0.5" fill-rule="evenodd" clip-rule="evenodd" d="M2113.36 118.575L2457.38 614.559C2486.42 657.281 2469.04 687.371 2418.55 681.819L1817.01 631.88C1765.49 628.098 1700.7 590.692 1673.42 548.981L1329.4 52.9971C1300.37 10.2746 1317.74 -19.8157 1368.23 -14.2636L1969.78 35.6757C2020.27 41.2277 2085.06 78.6336 2113.36 118.575Z" fill="white"/>
<path opacity="0.2" fill-rule="evenodd" clip-rule="evenodd" d="M1150.29 -285.1L2002.43 -130.944C2075.22 -117.057 2088.12 -68.9084 2031.27 -23.3182L1370.37 536.252C1314.28 584.675 1210.61 612.453 1140.62 597.815L288.484 443.659C215.693 429.772 202.791 381.623 259.646 336.033L920.537 -223.537C977.392 -269.128 1081.06 -296.906 1150.29 -285.1Z" fill="#D6D6D6"/>
<path opacity="0.5" fill-rule="evenodd" clip-rule="evenodd" d="M756.578 469.928L398.486 892.859C367.499 928.757 336.687 920.501 329.612 874.405L230.961 329.09C222.074 282.507 239.851 216.165 270.358 182.06L628.449 -240.872C659.437 -276.77 690.249 -268.514 697.323 -222.417L795.975 322.898C803.049 368.995 785.273 435.338 756.578 469.928Z" fill="white"/>
</g>
<defs>
<clipPath id="clip0_807_2178">
<rect width="2580" height="960" fill="white"/>
</clipPath>
</defs>
</svg>
