<svg width="444" height="444" viewBox="0 0 444 444" fill="none" xmlns="http://www.w3.org/2000/svg">
<g filter="url(#filter0_d)">
<path fill-rule="evenodd" clip-rule="evenodd" d="M187 182H259V254H187V182Z" fill="#CC2229"/>
<path fill-rule="evenodd" clip-rule="evenodd" d="M210.815 226.188H220.36C225.846 226.188 227.278 230.161 227.278 233.301C227.278 237.523 225.521 240.643 220.09 240.643H216.961V247.759H210.815V226.188ZM216.907 235.994H217.383C219.42 235.994 221.427 236.111 221.427 233.473C221.427 230.956 219.563 230.955 217.383 230.955H216.907V235.994ZM228.632 226.188H237.741C243.734 226.188 247.377 230.897 247.377 236.947C247.377 242.997 243.706 247.759 237.741 247.759H228.632V226.188ZM234.813 242.828H235.481C238.82 242.828 241.321 240.862 241.321 236.947C241.321 233.657 239.134 231.307 235.538 231.307H234.813V242.828H234.813ZM205.96 232.158C204.785 231.398 202.884 230.948 201.985 230.948C200.885 230.948 199.475 231.257 199.475 232.456C199.475 233.711 200.868 233.95 202.134 234.288C202.134 234.288 203.689 234.628 204.352 234.845C207.212 235.783 209.348 236.791 209.348 240.595C209.348 242.736 208.797 244.816 206.964 246.271C205.16 247.697 202.746 248.414 200.423 248.414C197.52 248.414 194.638 247.71 192.206 245.725L194.891 241.216C196.389 242.443 198.161 243.56 200.209 243.56C201.615 243.56 202.995 243.138 202.995 241.626C202.995 240.057 200.762 239.97 199.476 239.642C196.698 238.931 193.241 237.998 193.241 232.975C193.241 228.609 196.572 225.755 201.187 225.755C203.51 225.755 206.47 226.822 208.518 227.907L205.96 232.158Z" fill="white"/>
</g>
<circle cx="222" cy="222" r="99.5" stroke="#EBEBEB"/>
<circle cx="222" cy="222" r="88.5" stroke="#EBEBEB"/>
<circle cx="222" cy="222" r="221.5" stroke="#EBEBEB"/>
<circle cx="222" cy="222" r="178.5" stroke="#EBEBEB"/>
<defs>
<filter id="filter0_d" x="71" y="152" width="292" height="214" filterUnits="userSpaceOnUse" color-interpolation-filters="sRGB">
<feFlood flood-opacity="0" result="BackgroundImageFix"/>
<feColorMatrix in="SourceAlpha" type="matrix" values="0 0 0 0 0 0 0 0 0 0 0 0 0 0 0 0 0 0 127 0"/>
<feOffset dy="20"/>
<feGaussianBlur stdDeviation="25"/>
<feColorMatrix type="matrix" values="0 0 0 0 0.333333 0 0 0 0 0.333333 0 0 0 0 0.333333 0 0 0 0.15 0"/>
<feBlend mode="normal" in2="BackgroundImageFix" result="effect1_dropShadow"/>
<feBlend mode="normal" in="SourceGraphic" in2="effect1_dropShadow" result="shape"/>
</filter>
</defs>
</svg>
