<svg width="172" height="246" viewBox="0 0 172 246" fill="none" xmlns="http://www.w3.org/2000/svg">
<path d="M152.353 128C153.765 128 155.02 128.869 156.118 130.606C157.216 132.186 157.843 133.766 158 135.345C158 136.609 157.529 137.636 156.588 138.426C146.392 146.008 139.098 152.643 134.706 158.329C130.314 164.016 128.118 170.493 128.118 177.759C128.118 182.024 129.294 185.499 131.647 188.185C134 190.712 137.843 193.003 143.176 195.056C153.059 199.163 158 207.141 158 218.988C158 226.57 155.49 232.968 150.471 238.181C145.451 243.394 138.157 246 128.588 246C118.078 246 109.686 242.13 103.412 234.39C97.1373 226.649 94 216.934 94 205.245C94 191.818 97.2941 179.339 103.882 167.807C110.471 156.276 119.412 146.798 130.706 139.373C142 131.791 149.216 128 152.353 128ZM72.3529 128C73.7647 128 75.0196 128.869 76.1177 130.606C77.2157 132.186 77.8431 133.766 78 135.345C78 136.609 77.5294 137.636 76.5882 138.426C66.3922 146.008 59.098 152.643 54.7059 158.329C50.3137 164.016 48.1176 170.493 48.1176 177.759C48.1176 182.024 49.2941 185.499 51.6471 188.185C54 190.712 57.8431 193.003 63.1765 195.056C73.0588 199.163 78 207.141 78 218.988C78 226.57 75.4902 232.968 70.4706 238.181C65.451 243.394 58.1569 246 48.5882 246C38.0784 246 29.6863 242.13 23.4118 234.39C17.1373 226.649 14 216.934 14 205.245C14 191.818 17.2941 179.339 23.8824 167.807C30.4706 156.276 39.4118 146.798 50.7059 139.373C62 131.791 69.2157 128 72.3529 128Z" fill="white"/>
<g filter="url(#filter0_d)">
<path fill-rule="evenodd" clip-rule="evenodd" d="M50 30H122V102H50V30Z" fill="#CC2229"/>
<path fill-rule="evenodd" clip-rule="evenodd" d="M73.8149 74.1882H83.3597C88.8461 74.1882 90.2778 78.1614 90.2778 81.3005C90.2778 85.5225 88.5211 88.6434 83.09 88.6434H79.961V95.7595H73.8149V74.1882V74.1882ZM79.9068 83.9941H80.383C82.4195 83.9941 84.4272 84.1113 84.4272 81.4727C84.4272 78.9559 82.563 78.9552 80.383 78.9552H79.9068V83.9941ZM91.6315 74.1882H100.741C106.734 74.1882 110.377 78.8965 110.377 84.9469C110.377 90.9974 106.706 95.7595 100.741 95.7595H91.6315V74.1882V74.1882ZM97.813 90.8278H98.4805C101.82 90.8278 104.321 88.8623 104.321 84.9469C104.321 81.6565 102.134 79.3066 98.5384 79.3066H97.8134V90.8278H97.813ZM68.9598 80.1579C67.7847 79.3978 65.8838 78.9484 64.985 78.9484C63.885 78.9484 62.4753 79.257 62.4753 80.4556C62.4753 81.711 63.8682 81.9497 65.1345 82.2881C65.1345 82.2881 66.6887 82.6281 67.3521 82.8455C70.2122 83.783 72.3477 84.7912 72.3477 88.5952C72.3477 90.7355 71.7975 92.8157 69.9638 94.271C68.1604 95.6971 65.7459 96.4143 63.423 96.4143C60.5195 96.4143 57.6377 95.7102 55.2061 93.7252L57.891 89.216C59.3888 90.443 61.1612 91.5599 63.2093 91.5599C64.6153 91.5599 65.9951 91.1382 65.9951 89.6258C65.9951 88.0566 63.7625 87.9703 62.4757 87.6419C59.6977 86.9315 56.2407 85.9984 56.2407 80.9752C56.2407 76.609 59.5722 73.7549 64.1872 73.7549C66.5102 73.7549 69.4696 74.8221 71.5177 75.9072L68.9598 80.1579V80.1579Z" fill="white"/>
</g>
<defs>
<filter id="filter0_d" x="0" y="0" width="172" height="172" filterUnits="userSpaceOnUse" color-interpolation-filters="sRGB">
<feFlood flood-opacity="0" result="BackgroundImageFix"/>
<feColorMatrix in="SourceAlpha" type="matrix" values="0 0 0 0 0 0 0 0 0 0 0 0 0 0 0 0 0 0 127 0"/>
<feOffset dy="20"/>
<feGaussianBlur stdDeviation="25"/>
<feColorMatrix type="matrix" values="0 0 0 0 0.333333 0 0 0 0 0.333333 0 0 0 0 0.333333 0 0 0 0.15 0"/>
<feBlend mode="normal" in2="BackgroundImageFix" result="effect1_dropShadow"/>
<feBlend mode="normal" in="SourceGraphic" in2="effect1_dropShadow" result="shape"/>
</filter>
</defs>
</svg>
