<svg width="1427" height="822" viewBox="0 0 1427 822" fill="none" xmlns="http://www.w3.org/2000/svg">
<path fill-rule="evenodd" clip-rule="evenodd" d="M1117.21 772C1224.26 772 1311 674.943 1311 555.322C1311 435.547 1224.26 338.645 1117.21 338.645C1102.31 338.645 1087.87 340.499 1074.08 344.054C1071.54 344.672 1069.16 345.29 1066.62 346.063C1064.09 346.836 1061.71 347.609 1059.17 348.536C1059.17 347.763 1059.17 346.99 1059.17 346.218C1059.17 343.745 1059.33 341.427 1059.33 338.954V338.645C1059.33 335.554 1059.33 332.617 1059.17 329.526C1053.94 37.5834 601.979 -5.22674 544.573 274.043C539.974 272.343 535.216 270.798 530.3 269.561C518.882 266.625 507.147 265.079 494.937 265.079C441.653 265.079 394.554 294.907 366.326 340.499C350.627 335.863 333.976 333.545 317.007 333.545C208.854 333.39 121 431.683 121 552.695C121 673.707 208.854 772 317.007 772H624.657H1117.21Z" fill="url(#paint0_linear)"/>
<path fill-rule="evenodd" clip-rule="evenodd" d="M1143.38 311.153L1143.37 311.157C1140.34 311.893 1137.53 312.623 1134.54 313.534C1131.52 314.453 1128.7 315.367 1125.7 316.462L1123.02 317.443V311.806C1123.02 310.286 1123.07 308.818 1123.11 307.388C1123.16 305.948 1123.21 304.545 1123.21 303.102V302.732C1123.21 299.021 1123.21 295.553 1123.02 291.908L1123.02 291.875L1123.02 291.841C1119.9 118.219 983.909 18.5335 839.734 3.88291C695.544 -10.7692 544.043 59.7065 509.89 225.726L509.421 228.005L507.238 227.199C501.774 225.18 496.139 223.352 490.329 221.892L490.319 221.89C476.786 218.412 462.881 216.582 448.41 216.582C385.299 216.582 329.422 251.882 295.886 306.007L295.082 307.304L293.62 306.872C274.987 301.374 255.211 298.621 235.044 298.621H235.041C106.66 298.437 2 415.103 2 559.218C2 703.331 106.66 820 235.044 820H1194.62C1321.67 820 1425 704.812 1425 562.366C1425 419.736 1321.67 304.732 1194.62 304.732C1176.91 304.732 1159.77 306.933 1143.39 311.15L1143.38 311.153ZM506.032 224.632C501.109 222.867 496.037 221.265 490.816 219.953C477.125 216.434 463.052 214.582 448.41 214.582C384.514 214.582 328.035 250.323 294.186 304.954C275.359 299.398 255.392 296.621 235.044 296.621C105.352 296.435 0 414.215 0 559.218C0 704.22 105.352 822 235.044 822H1194.62C1322.98 822 1427 705.702 1427 562.366C1427 418.845 1322.98 302.732 1194.62 302.732C1176.74 302.732 1159.44 304.954 1142.89 309.213C1139.85 309.954 1137 310.695 1133.96 311.621C1131.59 312.341 1129.33 313.062 1127.02 313.87C1126.36 314.1 1125.69 314.337 1125.02 314.584V311.806C1125.02 310.324 1125.06 308.889 1125.11 307.454C1125.16 306.019 1125.21 304.584 1125.21 303.102V302.732C1125.21 299.028 1125.21 295.509 1125.02 291.806C1118.75 -57.3241 578.911 -109.109 508.345 223.344C508.205 224.002 508.067 224.662 507.931 225.323C507.301 225.09 506.667 224.859 506.032 224.632Z" fill="white"/>
<defs>
<linearGradient id="paint0_linear" x1="525.452" y1="365.072" x2="524.395" y2="765.85" gradientUnits="userSpaceOnUse">
<stop stop-color="white"/>
<stop offset="1" stop-color="white" stop-opacity="0"/>
</linearGradient>
</defs>
</svg>
