<svg width="64" height="64" viewBox="0 0 64 64" fill="none" xmlns="http://www.w3.org/2000/svg">
<path d="M58 11.5H6C4.62386 11.5 3.5 12.6239 3.5 14V50C3.5 51.3761 4.62386 52.5 6 52.5H58C59.3761 52.5 60.5 51.3761 60.5 50V14C60.5 12.6239 59.3761 11.5 58 11.5Z" fill="url(#paint0_linear_896_5834)" stroke="#333333"/>
<path d="M9 18.8C10 18.8 10.9 17.9 10.9 16.9C10.9 15.8 10 15 8.9 15C7.9 15 7 15.9 7 16.9C7 17.9 7.9 18.7 9 18.8Z" fill="white"/>
<path d="M14.8 18.8C15.8 18.8 16.7 17.9 16.7 16.9C16.7 15.8 15.8 15 14.7 15C13.7 15 12.9 15.8 12.9 16.9C12.9 18 13.7 18.8 14.8 18.8Z" fill="white"/>
<path d="M22.4 16.8C22.4 17.9 21.6 18.7 20.5 18.7C19.5 18.7 18.6 18 18.6 16.9C18.6 15.8 19.4 15 20.5 15C21.6 15 22.4 15.7 22.4 16.8Z" fill="white"/>
<path d="M22.6 36.7999L27.3 38.8999V41.1999L20.7 37.6999V35.8999L27.3 32.3999V34.6999L22.6 36.7999Z" fill="white"/>
<path d="M29.9 44H28.4L32.9 29H34.4L29.9 44Z" fill="white"/>
<path d="M40.7 36.8L35.8 34.6V32.3L42.6 35.8V37.6L35.8 41.1V39L40.7 36.8Z" fill="white"/>
<defs>
<linearGradient id="paint0_linear_896_5834" x1="59.6461" y1="50.5898" x2="4.3531" y2="13.4101" gradientUnits="userSpaceOnUse">
<stop stop-color="#FF6F3D"/>
<stop offset="1" stop-color="#FF8E3D"/>
</linearGradient>
</defs>
</svg>
