<svg width="64" height="64" viewBox="0 0 64 64" fill="none" xmlns="http://www.w3.org/2000/svg">
<path d="M24.944 35.5428L25.1118 35.3767L25.0902 35.1416C25.0411 34.6069 24.9442 33.4037 24.9925 32.171C25.0167 31.5544 25.0769 30.9438 25.1927 30.4127C25.3104 29.8725 25.4759 29.4617 25.6796 29.2052L25.6842 29.1994L25.6886 29.1935C26.4211 28.213 27.759 27.6803 29.0342 27.404C30.2864 27.1326 31.3626 27.1326 31.4501 27.1326H31.4503H31.4505C31.5381 27.1326 32.6143 27.1326 33.8665 27.404C35.1413 27.6803 36.4789 28.2128 37.2115 29.1928C37.4238 29.4795 37.5904 29.9102 37.7078 30.4533C37.8238 30.9899 37.8839 31.598 37.9081 32.2081C37.9565 33.428 37.8596 34.6062 37.8104 35.1416L37.7888 35.3767L37.9567 35.5428C38.1012 35.6858 38.198 35.9142 38.2517 36.2012C38.3043 36.4823 38.3053 36.7596 38.3053 36.9573C38.3053 37.9781 37.9948 38.5888 37.6566 38.9519C37.3086 39.3257 36.896 39.4754 36.6481 39.5105L36.298 39.5599L36.228 39.9065C36.1437 40.3232 35.976 40.6604 35.7749 41.0583C35.5907 41.4226 35.1242 42.2295 34.3843 42.9386C33.6466 43.6456 32.6708 44.2254 31.4503 44.2254C30.3871 44.2254 29.4099 43.6541 28.6199 42.9308C27.8327 42.2102 27.2978 41.3986 27.1258 41.0583C26.9381 40.687 26.7552 40.2306 26.6673 39.883L26.5966 39.603L26.3186 39.5244C26.0095 39.437 25.5858 39.2725 25.2395 38.9102C24.9044 38.5598 24.5954 37.9759 24.5954 36.9573C24.5954 36.8121 24.596 36.5314 24.6495 36.2349C24.7055 35.9247 24.8055 35.6798 24.944 35.5428ZM31.2453 48.918L31.4503 49.0102L31.6554 48.918L37.0025 46.5134L39.0537 46.6979C41.5101 46.9702 43.4792 48.9455 43.573 51.3231V51.3233V51.3239V51.3245V51.325V51.3256V51.3262V51.3268V51.3274V51.3279V51.3285V51.3291V51.3297V51.3302V51.3308V51.3314V51.332V51.3325V51.3331V51.3337V51.3343V51.3348V51.3354V51.336V51.3366V51.3371V51.3377V51.3383V51.3389V51.3394V51.34V51.3406V51.3412V51.3418V51.3423V51.3429V51.3435V51.3441V51.3446V51.3452V51.3458V51.3464V51.3469V51.3475V51.3481V51.3487V51.3492V51.3498V51.3504V51.351V51.3515V51.3521V51.3527V51.3533V51.3539V51.3544V51.355V51.3556V51.3562V51.3567V51.3573V51.3579V51.3585V51.359V51.3596V51.3602V51.3608V51.3613V51.3619V51.3625V51.3631V51.3636V51.3642V51.3648V51.3654V51.366V51.3665V51.3671V51.3677V51.3683V51.3688V51.3694V51.37V51.3706V51.3711V51.3717V51.3723V51.3729V51.3734V51.374V51.3746V51.3752V51.3757V51.3763V51.3769V51.3775V51.3781V51.3786V51.3792V51.3798V51.3804V51.3809V51.3815V51.3821V51.3827V51.3832V51.3838V51.3844V51.385V51.3855V51.3861V51.3867V51.3873V51.3878V51.3884V51.389V51.3896V51.3902V51.3907V51.3913V51.3919V51.3925V51.393V51.3936V51.3942V51.3948V51.3953V51.3959V51.3965V51.3971V51.3976V51.3982V51.3988V51.3994V51.3999V51.4005V51.4011V51.4017V51.4023V51.4028V51.4034V51.404V51.4046V51.4051V51.4057V51.4063V51.4069V51.4074V51.408V51.4086V51.4092V51.4097V51.4103V51.4109V51.4115V51.412V51.4126V51.4132V51.4138V51.4143V51.4149V51.4155V51.4161V51.4167V51.4172V51.4178V51.4184V51.419V51.4195V51.4201V51.4207V51.4213V51.4218V51.4224V51.423V51.4236V51.4241V51.4247V51.4253V51.4259V51.4264V51.427V51.4276V51.4282V51.4288V51.4293V51.4299V51.4305V51.4311V51.4316V51.4322V51.4328V51.4334V51.4339V51.4345V51.4351V51.4357V51.4362V51.4368V51.4374V51.438V51.4385V51.4391V51.4397V51.4403V51.4409V51.4414V51.442V51.4426V51.4432V51.4437V51.4443V51.4449V51.4455V51.446V51.4466V51.4472V51.4478V51.4483V51.4489V51.4495V51.4501V51.4506V51.4512V51.4518V51.4524V51.453V51.4535V51.4541V51.4547V51.4553V51.4558V51.4564V51.457V51.4576V51.4581V51.4587V51.4593V51.4599V51.4604V51.461V51.4616V51.4622V51.4627V51.4633V51.4639V51.4645V51.465V51.4656V51.4662V51.4668V51.4674V51.4679V51.4685V51.4691V51.4697V51.4702V51.4708V51.4714V51.472V51.4725V51.4731V51.4737V51.4743V51.4748V51.4754V51.476V51.4766V51.4771V51.4777V51.4783V51.4789V51.4795V51.48V51.4806V51.4812V51.4818V51.4823V51.4829V51.4835V51.4841V51.4846V51.4852V51.4858V51.4864V51.4869V51.4875V51.4881V51.4887V51.4892V51.4898V51.4904V51.491V51.4916V51.4921V51.4927V51.4933V51.4939V51.4944V51.495V51.4956V51.4962V51.4967V51.4973V51.4979V51.4985V51.499V51.4996V51.5002V51.5008V51.5013V51.5019V51.5025V51.5031V51.5037V51.5042V51.5048V51.5054V51.506V51.5065V51.5071V51.5077V51.5083V51.5088V51.5094V51.51V51.5106V51.5111V51.5117V51.5123V51.5129V51.5134V51.514V51.5146V51.5152V51.5158V51.5163V51.5169V51.5175V51.5181V51.5186V51.5192V51.5198V51.5204V51.5209V51.5215V51.5221V51.5227V51.5232V51.5238V51.5244V51.525V51.5255V51.5261V51.5267V51.5273V51.5279V51.5284V51.529V51.5296V51.5302V51.5307V51.5313V51.5319V51.5325V51.533V51.5336V51.5342V51.5348V51.5353V51.5359V51.5365V51.5371V51.5376V51.5382V51.5388V51.5394V51.5399V51.5405V51.5411V51.5417V51.5423V51.5428V51.5434V51.544V51.5446V51.5451V51.5457V51.5463V51.5469V51.5474V51.548V51.5486V51.5492V51.5497V51.5503V51.5509V51.5515V51.552V51.5526V51.5532V51.5538V51.5544V51.5549V51.5555V51.5561V51.5567V51.5572V51.5578V51.5584V51.559V51.5595V51.5601V51.5607V51.5613V51.5618V51.5624V51.563V51.5636V51.5641V51.5647V51.5653V51.5659V51.5665V51.567V51.5676V51.5682V51.5688V51.5693V51.5699V51.5705V51.5711V51.5716V51.5722V51.5728V51.5734V51.5739V51.5745V51.5751V51.5757V51.5762V51.5768V51.5774V51.578V51.5786V51.5791V51.5797V51.5803V51.5809V51.5814V51.582V51.5826V51.5832V51.5837V51.5843V51.5849V51.5855V51.586V51.5866V51.5872V51.5878V51.5883V51.5889V51.5895V51.5901V51.5907V51.5912V51.5918V51.5924V51.593V51.5935V51.5941V51.5947V51.5953V51.5958V51.5964V51.597V51.5976V51.5981V51.5987V51.5993V51.5999V51.6004V51.601V51.6016V51.6022V51.6028V51.6033V51.6039V51.6045V51.6051V51.6056V51.6062V51.6068V51.6074V51.6079V51.6085V54.8534C43.573 56.3422 42.4105 57.5 40.8925 57.5H37.8114H25.1887H22.1075C20.5896 57.5 19.427 56.3422 19.427 54.8534V51.6085V51.6079V51.6074V51.6068V51.6062V51.6056V51.6051V51.6045V51.6039V51.6033V51.6028V51.6022V51.6016V51.601V51.6004V51.5999V51.5993V51.5987V51.5981V51.5976V51.597V51.5964V51.5958V51.5953V51.5947V51.5941V51.5935V51.593V51.5924V51.5918V51.5912V51.5907V51.5901V51.5895V51.5889V51.5883V51.5878V51.5872V51.5866V51.586V51.5855V51.5849V51.5843V51.5837V51.5832V51.5826V51.582V51.5814V51.5809V51.5803V51.5797V51.5791V51.5786V51.578V51.5774V51.5768V51.5762V51.5757V51.5751V51.5745V51.5739V51.5734V51.5728V51.5722V51.5716V51.5711V51.5705V51.5699V51.5693V51.5688V51.5682V51.5676V51.567V51.5665V51.5659V51.5653V51.5647V51.5641V51.5636V51.563V51.5624V51.5618V51.5613V51.5607V51.5601V51.5595V51.559V51.5584V51.5578V51.5572V51.5567V51.5561V51.5555V51.5549V51.5544V51.5538V51.5532V51.5526V51.552V51.5515V51.5509V51.5503V51.5497V51.5492V51.5486V51.548V51.5474V51.5469V51.5463V51.5457V51.5451V51.5446V51.544V51.5434V51.5428V51.5423V51.5417V51.5411V51.5405V51.5399V51.5394V51.5388V51.5382V51.5376V51.5371V51.5365V51.5359V51.5353V51.5348V51.5342V51.5336V51.533V51.5325V51.5319V51.5313V51.5307V51.5302V51.5296V51.529V51.5284V51.5279V51.5273V51.5267V51.5261V51.5255V51.525V51.5244V51.5238V51.5232V51.5227V51.5221V51.5215V51.5209V51.5204V51.5198V51.5192V51.5186V51.5181V51.5175V51.5169V51.5163V51.5158V51.5152V51.5146V51.514V51.5134V51.5129V51.5123V51.5117V51.5111V51.5106V51.51V51.5094V51.5088V51.5083V51.5077V51.5071V51.5065V51.506V51.5054V51.5048V51.5042V51.5037V51.5031V51.5025V51.5019V51.5013V51.5008V51.5002V51.4996V51.499V51.4985V51.4979V51.4973V51.4967V51.4962V51.4956V51.495V51.4944V51.4939V51.4933V51.4927V51.4921V51.4916V51.491V51.4904V51.4898V51.4892V51.4887V51.4881V51.4875V51.4869V51.4864V51.4858V51.4852V51.4846V51.4841V51.4835V51.4829V51.4823V51.4818V51.4812V51.4806V51.48V51.4795V51.4789V51.4783V51.4777V51.4771V51.4766V51.476V51.4754V51.4748V51.4743V51.4737V51.4731V51.4725V51.472V51.4714V51.4708V51.4702V51.4697V51.4691V51.4685V51.4679V51.4674V51.4668V51.4662V51.4656V51.465V51.4645V51.4639V51.4633V51.4627V51.4622V51.4616V51.461V51.4604V51.4599V51.4593V51.4587V51.4581V51.4576V51.457V51.4564V51.4558V51.4553V51.4547V51.4541V51.4535V51.453V51.4524V51.4518V51.4512V51.4506V51.4501V51.4495V51.4489V51.4483V51.4478V51.4472V51.4466V51.446V51.4455V51.4449V51.4443V51.4437V51.4432V51.4426V51.442V51.4414V51.4409V51.4403V51.4397V51.4391V51.4385V51.438V51.4374V51.4368V51.4362V51.4357V51.4351V51.4345V51.4339V51.4334V51.4328V51.4322V51.4316V51.4311V51.4305V51.4299V51.4293V51.4288V51.4282V51.4276V51.427V51.4264V51.4259V51.4253V51.4247V51.4241V51.4236V51.423V51.4224V51.4218V51.4213V51.4207V51.4201V51.4195V51.419V51.4184V51.4178V51.4172V51.4167V51.4161V51.4155V51.4149V51.4143V51.4138V51.4132V51.4126V51.412V51.4115V51.4109V51.4103V51.4097V51.4092V51.4086V51.408V51.4074V51.4069V51.4063V51.4057V51.4051V51.4046V51.404V51.4034V51.4028V51.4023V51.4017V51.4011V51.4005V51.3999V51.3994V51.3988V51.3982V51.3976V51.3971V51.3965V51.3959V51.3953V51.3948V51.3942V51.3936V51.393V51.3925V51.3919V51.3913V51.3907V51.3902V51.3896V51.389V51.3884V51.3878V51.3873V51.3867V51.3861V51.3855V51.385V51.3844V51.3838V51.3832V51.3827V51.3821V51.3815V51.3809V51.3804V51.3798V51.3792V51.3786V51.3781V51.3775V51.3769V51.3763V51.3757V51.3752V51.3746V51.374V51.3734V51.3729V51.3723V51.3717V51.3711V51.3706V51.37V51.3694V51.3688V51.3683V51.3677V51.3671V51.3665V51.366V51.3654V51.3648V51.3642V51.3636V51.3631V51.3625V51.3619V51.3613V51.3608V51.3602V51.3596V51.359V51.3585V51.3579V51.3573V51.3567V51.3562V51.3556V51.355V51.3544V51.3539V51.3533V51.3527V51.3521V51.3515V51.351V51.3504V51.3498V51.3492V51.3487V51.3481V51.3475V51.3469V51.3464V51.3458V51.3452V51.3446V51.3441V51.3435V51.3429V51.3423V51.3418V51.3412V51.3406V51.34V51.3394V51.3389V51.3383V51.3377V51.3371V51.3366V51.336V51.3354V51.3348V51.3343V51.3337V51.3331V51.3325V51.332V51.3314V51.3308V51.3302V51.3297V51.3291V51.3285V51.3279V51.3274V51.3268V51.3262V51.3256V51.325V51.3245V51.3239V51.3233V51.3228C19.5212 48.8376 21.4976 46.8775 23.9331 46.699L23.9331 46.6991L23.9435 46.6981L25.8992 46.5139L31.2453 48.918Z" fill="url(#paint0_linear_920_9963)" stroke="#333333"/>
<path d="M14.8528 24.954L14.8513 24.952L12.3665 21.7071L12.2164 21.5111H11.9696H11.3732C9.84561 21.5111 8.4939 20.2456 8.4939 18.6679V10.2115C8.4939 8.71323 9.76536 7.36827 11.3732 7.36827H16.2285C16.1786 7.64157 16.141 7.92693 16.141 8.2449V16.7996C16.141 19.0616 17.3269 20.7751 19.1341 21.8565L16.3767 25.0106C16.1516 25.2282 15.8797 25.346 15.647 25.346H15.5476C15.3243 25.346 15.0677 25.2375 14.8528 24.954ZM49.8377 21.5111H49.5847L49.4349 21.715L47.0539 24.954C47.0532 24.9549 47.0525 24.9558 47.0518 24.9567C46.8373 25.2382 46.5816 25.346 46.359 25.346H46.2596C46.0297 25.346 45.7616 25.231 45.538 25.0184L43.0067 21.8232C44.64 20.6301 45.7657 19.085 45.7657 16.7996V8.2449C45.7657 7.92693 45.7281 7.64157 45.6782 7.36827H50.5335C52.1508 7.36827 53.4128 8.62442 53.4128 10.2115V18.6679C53.4128 20.2456 52.0611 21.5111 50.5335 21.5111H49.8377ZM42.9767 8.34323V8.84323H43.076V16.7996C43.076 18.3867 41.8141 19.6429 40.1967 19.6429H35.0284H34.7993L34.6497 19.8164L31.7813 23.1434C31.5563 23.3603 31.285 23.4777 31.0527 23.4777H31.0521H31.0516H31.051H31.0504H31.0498H31.0493H31.0487H31.0481H31.0476H31.047H31.0465H31.0459H31.0453H31.0448H31.0442H31.0437H31.0431H31.0426H31.0421H31.0415H31.041H31.0405H31.0399H31.0394H31.0389H31.0383H31.0378H31.0373H31.0368H31.0363H31.0357H31.0352H31.0347H31.0342H31.0337H31.0332H31.0327H31.0322H31.0317H31.0312H31.0307H31.0302H31.0297H31.0292H31.0288H31.0283H31.0278H31.0273H31.0268H31.0264H31.0259H31.0254H31.0249H31.0245H31.024H31.0235H31.0231H31.0226H31.0222H31.0217H31.0213H31.0208H31.0204H31.0199H31.0195H31.019H31.0186H31.0181H31.0177H31.0173H31.0168H31.0164H31.016H31.0156H31.0151H31.0147H31.0143H31.0139H31.0134H31.013H31.0126H31.0122H31.0118H31.0114H31.011H31.0106H31.0102H31.0098H31.0094H31.009H31.0086H31.0082H31.0078H31.0074H31.007H31.0066H31.0063H31.0059H31.0055H31.0051H31.0047H31.0044H31.004H31.0036H31.0033H31.0029H31.0025H31.0022H31.0018H31.0014H31.0011H31.0007H31.0004H31H30.9997H30.9993H30.999H30.9986H30.9983H30.9979H30.9976H30.9973H30.9969H30.9966H30.9963H30.9959H30.9956H30.9953H30.9949H30.9946H30.9943H30.994H30.9936H30.9933H30.993H30.9927H30.9924H30.9921H30.9918H30.9915H30.9911H30.9908H30.9905H30.9902H30.9899H30.9896H30.9893H30.989H30.9888H30.9885H30.9882H30.9879H30.9876H30.9873H30.987H30.9867H30.9865H30.9862H30.9859H30.9856H30.9854H30.9851H30.9848H30.9845H30.9843H30.984H30.9837H30.9835H30.9832H30.983H30.9827H30.9824H30.9822H30.9819H30.9817H30.9814H30.9812H30.9809H30.9807H30.9804H30.9802H30.9799H30.9797H30.9795H30.9792H30.979H30.9788H30.9785H30.9783H30.9781H30.9778H30.9776H30.9774H30.9771H30.9769H30.9767H30.9765H30.9763H30.976H30.9758H30.9756H30.9754H30.9752H30.975H30.9748H30.9745H30.9743H30.9741H30.9739H30.9737H30.9735H30.9733H30.9731H30.9729H30.9727H30.9725H30.9723H30.9721H30.972H30.9718H30.9716H30.9714H30.9712H30.971H30.9708H30.9707H30.9705H30.9703H30.9701H30.9699H30.9698H30.9696H30.9694H30.9692H30.9691H30.9689H30.9687H30.9686H30.9684H30.9682H30.9681H30.9679H30.9677H30.9676H30.9674H30.9673H30.9671H30.967H30.9668H30.9666H30.9665H30.9663H30.9662H30.966H30.9659H30.9658H30.9656H30.9655H30.9653H30.9652H30.965H30.9649H30.9648H30.9646H30.9645H30.9644H30.9642H30.9641H30.964H30.9638H30.9637H30.9636H30.9634H30.9633H30.9632H30.9631H30.9629H30.9628H30.9627H30.9626H30.9625H30.9623H30.9622H30.9621H30.962H30.9619H30.9618H30.9617H30.9615H30.9614H30.9613H30.9612H30.9611H30.961H30.9609H30.9608H30.9607H30.9606H30.9605H30.9604H30.9603H30.9602H30.9601H30.96H30.9599H30.9598H30.9597H30.9596H30.9595H30.9594H30.9593H30.9593H30.9592H30.9591H30.959H30.9589H30.9588H30.9587H30.9587H30.9586H30.9585H30.9584H30.9583H30.9583H30.9582H30.9581H30.958H30.9579H30.9579H30.9578H30.9577H30.9576H30.9576H30.9575H30.9574H30.9574H30.9573H30.9572H30.9572H30.9571H30.957H30.957H30.9569H30.9568H30.9568H30.9567H30.9567H30.9566H30.9565H30.9565H30.9564H30.9564H30.9563H30.9563H30.9562H30.9561H30.9561H30.956H30.956H30.9559H30.9559H30.9558H30.9558H30.9557H30.9557H30.9556H30.9556H30.9555H30.9555H30.9555H30.9554H30.9554H30.9553H30.9553H30.9552H30.9552H30.9552H30.9551H30.9551H30.955H30.955H30.955H30.9549H30.9549H30.9548H30.9548H30.9548H30.9547H30.9547H30.9547H30.9546H30.9546H30.9546H30.9545H30.9545H30.9545H30.9545H30.9544H30.9544H30.9544H30.9543H30.9543H30.9543H30.9543H30.9542H30.9542H30.9542H30.9542H30.9541H30.9541H30.9541H30.9541H30.954H30.954H30.954H30.954H30.954H30.9539H30.9539H30.9539H30.9539H30.9539H30.9539H30.9538H30.9538H30.9538H30.9538H30.9538H30.9538H30.9537H30.9537H30.9537H30.9537H30.9536H30.9536H30.9536H30.9536H30.9535H30.9535H30.9535H30.9535H30.9535H30.9535H30.9534H30.9534H30.9534H30.9534H30.9534H30.9534H30.9533C30.8762 23.4777 30.7667 23.4477 30.6246 23.3634C30.4935 23.2856 30.3604 23.1767 30.2354 23.0555L27.7722 19.8389L27.6221 19.6429H27.3752H21.8093C20.1919 19.6429 18.93 18.3867 18.93 16.7996V8.34323C18.93 6.75614 20.1919 5.5 21.8093 5.5H40.0973C41.7147 5.5 42.9767 6.75614 42.9767 8.34323Z" fill="#9ADAF3" stroke="#333333"/>
<path d="M13.1501 43.423L13.0874 43.1748L12.8493 43.0806C12.6092 42.9856 12.277 42.8461 11.9975 42.5506C11.7311 42.2688 11.4757 41.8045 11.4757 40.9889C11.4757 40.8947 11.4762 40.6875 11.5172 40.4647C11.5607 40.2278 11.6357 40.056 11.7249 39.9678L11.8948 39.7997L11.8707 39.562C11.8211 39.0714 11.7249 38.0907 11.7489 37.0923C11.7609 36.5931 11.8028 36.103 11.8909 35.6756C11.9806 35.2408 12.1098 34.9125 12.2687 34.7029L12.2687 34.7029L12.2712 34.6995C12.8539 33.9172 13.9414 33.4824 14.9948 33.2548C16.0236 33.0325 16.9012 33.0325 16.939 33.0325H16.9392H16.9394C17.0269 33.0325 17.9039 33.0325 18.9197 33.2545C19.9569 33.4812 21.0229 33.915 21.6072 34.6995L21.6297 34.7297L21.6412 34.7411C21.642 34.7431 21.643 34.7454 21.644 34.748C21.6466 34.7544 21.65 34.7634 21.6543 34.7744C21.6595 34.7879 21.6658 34.8045 21.6734 34.8236C21.4087 35.7197 21.4088 36.5749 21.4088 36.9488V36.9574C21.4088 38.4559 21.7958 39.6903 22.4027 40.6462V40.6464V40.6473V40.6481V40.649V40.6499V40.6507V40.6516V40.6524V40.6533V40.6541V40.655V40.6558V40.6567V40.6575V40.6584V40.6592V40.6601V40.6609V40.6617V40.6626V40.6634V40.6643V40.6651V40.6659V40.6667V40.6676V40.6684V40.6692V40.67V40.6709V40.6717V40.6725V40.6733V40.6741V40.675V40.6758V40.6766V40.6774V40.6782V40.679V40.6798V40.6806V40.6814V40.6822V40.683V40.6838V40.6846V40.6854V40.6862V40.687V40.6878V40.6886V40.6894V40.6902V40.691V40.6917V40.6925V40.6933V40.6941V40.6949V40.6956V40.6964V40.6972V40.698V40.6987V40.6995V40.7003V40.7011V40.7018V40.7026V40.7034V40.7041V40.7049V40.7056V40.7064V40.7072V40.7079V40.7087V40.7094V40.7102V40.7109V40.7117V40.7124V40.7132V40.7139V40.7147V40.7154V40.7162V40.7169V40.7177V40.7184V40.7191V40.7199V40.7206V40.7214V40.7221V40.7228V40.7236V40.7243V40.725V40.7257V40.7265V40.7272V40.7279V40.7286V40.7294V40.7301V40.7308V40.7315V40.7323V40.733V40.7337V40.7344V40.7351V40.7358V40.7365V40.7373V40.738V40.7387V40.7394V40.7401V40.7408V40.7415V40.7422V40.7429V40.7436V40.7443V40.745V40.7457V40.7464V40.7471V40.7478V40.7485V40.7492V40.7499V40.7506V40.7512V40.7519V40.7526V40.7533V40.754V40.7547V40.7554V40.756V40.7567V40.7574V40.7581V40.7588V40.7594V40.7601V40.7608V40.7615V40.7622V40.7628V40.7635V40.7642V40.7648V40.7655V40.7662V40.7668V40.7675V40.7682V40.7688V40.7695V40.7702V40.7708V40.7715V40.7722V40.7728V40.7735V40.7741V40.7748V40.7755V40.7761V40.7768V40.7774V40.7781V40.7787V40.7794V40.78V40.7807V40.7813V40.782V40.7826V40.7833V40.7839V40.7846V40.7852V40.7858V40.7865V40.7871V40.7878V40.7884V40.7891V40.7897V40.7903V40.791V40.7916V40.7922V40.7929V40.7935V40.7941V40.7948V40.7954V40.796V40.7967V40.7973V40.7979V40.7986V40.7992V40.7998V40.8005V40.8011V40.8017V40.8023V40.803V40.8036V40.8042V40.8048V40.8054V40.8061V40.8067V40.8073V40.8079V40.8085V40.8092V40.8098V40.8104V40.811V40.8116V40.8122V40.8129V40.8135V40.8141V40.8147V40.8153V40.8159V40.8165V40.8172V40.8178V40.8184V40.819V40.8196V40.8202V40.8208V40.8214V40.822V40.8226V40.8232V40.8238V40.8244V40.825V40.8256V40.8262V40.8269V40.8275V40.8281V40.8287V40.8293V40.8299V40.8305V40.8311V40.8317V40.8323V40.8329V40.8334V40.834V40.8346V40.8352V40.8358V40.8364V40.837V40.8376V40.8382V40.8388V40.8394V40.84V40.8406V40.8412V40.8418V40.8424V40.843V40.8435V40.8441V40.8447V40.8453V40.8459V40.8465V40.8471V40.8477V40.8483V40.8488V40.8494V40.85V40.8506V40.8512V40.8518V40.8524V40.853V40.8535V40.8541V40.8547V40.8553V40.8559V40.8565V40.857V40.8576V40.8582V40.8588V40.8594V40.86V40.8605V40.8611V40.8617V40.8623V40.8629V40.8634V40.864V40.8646V40.8652V40.8658V40.8663V40.8669V40.8675V40.8681V40.8687V40.8692V40.8698V40.8704V40.871V40.8716V40.8721V40.8727V40.8733V40.8739V40.8745V40.875V40.8756V40.8762V40.8768V40.8773V40.8779V40.8785V40.8791V40.8797V40.8802V40.8808V40.8814V40.882V40.8825V40.8831V40.8837V40.8843V40.8848V40.8854V40.886V40.8866V40.8871V40.8877V40.8883V40.8889V40.8894V40.89V40.8906C22.4027 41.7215 22.1623 42.2126 21.907 42.5014C21.6442 42.7985 21.3304 42.9211 21.1317 42.9538L20.8352 43.0027L20.7392 43.2875C20.6976 43.411 20.6325 43.5622 20.5554 43.7401L20.5505 43.7515C20.5042 43.8583 20.4535 43.9755 20.4081 44.0906C19.2682 44.7813 18.3106 45.7241 17.612 46.7622C17.3877 46.8325 17.1893 46.8804 16.9392 46.8804C16.0647 46.8804 15.2844 46.4466 14.6642 45.8898C14.0407 45.3301 13.6391 44.6993 13.5217 44.4284L13.5158 44.4148L13.5092 44.4016C13.3302 44.0475 13.2425 43.7884 13.1501 43.423Z" fill="url(#paint1_linear_920_9963)" stroke="#333333"/>
<path d="M41.9736 43.423L41.9063 43.1567L41.6454 43.0707C41.3769 42.9821 41.0515 42.8437 40.7896 42.557C40.5379 42.2812 40.2992 41.8173 40.2992 40.9889C40.2992 40.8966 40.2994 40.6576 40.343 40.3774C40.3877 40.0895 40.4718 39.8039 40.6114 39.5967L40.2389 39.3457H40.2529L40.643 39.5428C40.9955 38.8454 41.0943 37.962 41.0943 37.0557L41.0943 37.0422C41.0944 36.6728 41.0945 35.9785 40.8221 35.2532C40.9039 34.9614 40.9699 34.8309 41.0454 34.7563L41.0722 34.7297L41.0947 34.6995C41.6773 33.9172 42.7649 33.4824 43.8183 33.2548C44.8471 33.0325 45.7247 33.0325 45.7625 33.0325H45.7627H45.7629C45.8504 33.0325 46.7274 33.0325 47.7431 33.2545C48.7777 33.4807 49.8408 33.9127 50.4261 34.6934C50.5917 34.9327 50.7213 35.2847 50.8104 35.7284C50.8991 36.1697 50.941 36.6671 50.953 37.1661C50.977 38.164 50.8807 39.1204 50.8317 39.5565L50.8047 39.7973L50.977 39.9678C51.0739 40.0637 51.1449 40.221 51.1855 40.432C51.2252 40.6383 51.2262 40.841 51.2262 40.9889C51.2262 41.8198 50.9858 42.3109 50.7304 42.5997C50.4677 42.8968 50.1539 43.0194 49.9552 43.0522L49.632 43.1055L49.5518 43.423C49.4594 43.7884 49.3717 44.0475 49.1927 44.4016C49.0643 44.6556 48.6748 45.293 48.0678 45.8595C47.4613 46.4256 46.6829 46.8804 45.7627 46.8804C45.3796 46.8804 45.0118 46.8133 44.7151 46.6922C44.0793 45.7022 43.179 44.9188 42.2985 44.3328C42.1421 44.0129 42.0599 43.7643 41.9736 43.423Z" fill="url(#paint2_linear_920_9963)" stroke="#333333"/>
<path d="M45.6013 56.6151C46.0073 55.7406 46.2627 54.7621 46.2627 53.7718V50.6253V50.6247V50.6241V50.6236V50.623V50.6224V50.6219V50.6213V50.6207V50.6202V50.6196V50.6191V50.6185V50.618V50.6174V50.6169V50.6163V50.6158V50.6153V50.6147V50.6142V50.6137V50.6131V50.6126V50.6121V50.6115V50.611V50.6105V50.61V50.6095V50.609V50.6084V50.6079V50.6074V50.6069V50.6064V50.6059V50.6054V50.6049V50.6044V50.6039V50.6034V50.6029V50.6025V50.602V50.6015V50.601V50.6005V50.6V50.5996V50.5991V50.5986V50.5981V50.5977V50.5972V50.5967V50.5963V50.5958V50.5954V50.5949V50.5944V50.594V50.5935V50.5931V50.5926V50.5922V50.5917V50.5913V50.5908V50.5904V50.59V50.5895V50.5891V50.5886V50.5882V50.5878V50.5873V50.5869V50.5865V50.5861V50.5856V50.5852V50.5848V50.5844V50.5839V50.5835V50.5831V50.5827V50.5823V50.5819V50.5815V50.5811V50.5806V50.5802V50.5798V50.5794V50.579V50.5786V50.5782V50.5778V50.5774V50.577V50.5767V50.5763V50.5759V50.5755V50.5751V50.5747V50.5743V50.5739V50.5736V50.5732V50.5728V50.5724V50.572V50.5717V50.5713V50.5709V50.5705V50.5702V50.5698V50.5694V50.5691V50.5687V50.5683V50.568V50.5676V50.5672V50.5669V50.5665V50.5662V50.5658V50.5655V50.5651V50.5647V50.5644V50.564V50.5637V50.5633V50.563V50.5626V50.5623V50.562V50.5616V50.5613V50.5609V50.5606V50.5602V50.5599V50.5596V50.5592V50.5589V50.5585V50.5582V50.5579V50.5575V50.5572V50.5569V50.5565V50.5562V50.5559V50.5556V50.5552V50.5549V50.5546V50.5543V50.5539V50.5536V50.5533V50.553V50.5526V50.5523V50.552V50.5517V50.5514V50.5511V50.5507V50.5504V50.5501V50.5498V50.5495V50.5492V50.5489V50.5485V50.5482V50.5479V50.5476V50.5473V50.547V50.5467V50.5464V50.5461V50.5458V50.5455V50.5451V50.5448V50.5445V50.5442V50.5439V50.5436V50.5433V50.543V50.5427V50.5424V50.5421V50.5418V50.5415V50.5412V50.5409V50.5406V50.5403V50.54V50.5397V50.5394V50.5391V50.5389V50.5386V50.5383V50.538V50.5377V50.5374V50.5371V50.5368V50.5365V50.5362V50.5359V50.5356V50.5353V50.535V50.5347V50.5345V50.5342V50.5339V50.5336V50.5333V50.533V50.5327V50.5324V50.5321V50.5318V50.5316V50.5313V50.531V50.5307V50.5304V50.5301V50.5298V50.5295V50.5292V50.529V50.5287V50.5284V50.5281V50.5278V50.5275V50.5272V50.5269V50.5267V50.5264V50.5261V50.5258V50.5255V50.5252V50.5249V50.5246V50.5243V50.5241V50.5238V50.5235V50.5232V50.5229V50.5226V50.5223V50.522V50.5217V50.5215V50.5212V50.5209V50.5206V50.5203V50.52V50.5197V50.5194V50.5191V50.5188V50.5185V50.5183V50.518V50.5177V50.5174V50.5171V50.5168V50.5165V50.5162V50.5159V50.5156V50.5153V50.515V50.5147V50.5144V50.5141V50.5138V50.5135V50.5132V50.5129V50.5127V50.5124V50.5121V50.5118V50.5115V50.5112V50.5109V50.5105V50.5102V50.5099V50.5096V50.5093V50.509V50.5087V50.5084V50.5081V50.5078V50.5075V50.5072V50.5069V50.5066V50.5063V50.506V50.5057V50.5053V50.505V50.5047V50.5044V50.5041V50.5038V50.5035V50.5031V50.5028V50.5025V50.5022V50.5019V50.5016V50.5012V50.5009V50.5006V50.5003V50.4999V50.4996V50.4993V50.499V50.4986V50.4983V50.498V50.4977V50.4973V50.497V50.4967V50.4963V50.496V50.4957V50.4953V50.495V50.4947V50.4943V50.494V50.4936V50.4933V50.493V50.4926V50.4923V50.4919V50.4916V50.4912V50.4909V50.4905V50.4902V50.4898V50.4895V50.4891V50.4888V50.4884V50.4881V50.4877V50.4874V50.487V50.4866V50.4863V50.4859V50.4855V50.4852V50.4848V50.4844V50.4841V50.4837V50.4833V50.483V50.4826V50.4822V50.4818V50.4815V50.4811V50.4807V50.4803V50.4799V50.4796V50.4792V50.4788V50.4784V50.478V50.4776V50.4772V50.4768V50.4764V50.476V50.4756V50.4752V50.4748V50.4744V50.474V50.4736V50.4732V50.4728V50.4724V50.472V50.4716V50.4712V50.4708V50.4704V50.4699V50.4695V50.4691V50.4687V50.4682V50.4678V50.4674V50.467V50.4665V50.4661V50.4657V50.4652V50.4648V50.4644V50.4639V50.4635V50.463V50.4626V50.4622V50.4617V50.4613V50.4608V50.4604V50.4599V50.4594V50.459V50.4585V50.4581V50.4576V50.4571V50.4567V50.4562V50.4557V50.4553V50.4548V50.4543V50.4538V50.4534V50.4529V50.4524V50.4519V50.4514V50.4509V50.4504V50.4499V50.4495V50.449V50.4485V50.448V50.4475V50.447V50.4464V50.4459V50.4454V50.4449V50.4444V50.4439V50.4434V50.4429V50.4423V50.4418V50.4413V50.4408V50.4402V50.4397V50.4392V50.4386V50.4381V50.4375V50.437V50.4365V50.4359V50.4354V50.4348V50.4343V50.4337V50.4331V50.4326V50.432V50.4315V50.4309V50.4303V50.4298V50.4292V50.4286V50.428V50.4275V50.4269V50.4263V50.4257V50.4252V50.4246V50.424V50.4234V50.4228V50.4223V50.4217V50.4211V50.4205V50.42V50.4194V50.4188V50.4182V50.4177V50.4171V50.4165V50.4159V50.4154V50.4148V50.4142V50.4136V50.4131V50.4125V50.4119V50.4113V50.4107V50.4102V50.4096V50.409V50.4084V50.4079V50.4073V50.4067V50.4061V50.4056V50.405V50.4044V50.4038V50.4033V50.4027V50.4021V50.4015V50.401V50.4004V50.3998V50.3992V50.3986V50.3981V50.3975V50.3969V50.3963V50.3958V50.3952V50.3946V50.394V50.3935V50.3929V50.3923V50.3917V50.3912V50.3906V50.39V50.3894V50.3889V50.3883V50.3877V50.3871V50.3865V50.386V50.3854V50.3848V50.3842V50.3837V50.3831V50.3825V50.3819V50.3814V50.3808V50.3802V50.3796V50.3791V50.3785V50.3779V50.3773V50.3768V50.3762V50.3756V50.375V50.3744V50.3739V50.3733V50.3727V50.3721V50.3716V50.371V50.3704V50.3698V50.3693V50.3687V50.3681V50.3675V50.367V50.3664V50.3658V50.3652V50.3647V50.3641V50.3635V50.3629V50.3624V50.3618V50.3612V50.3606V50.36V50.3595V50.3589V50.3583V50.3577V50.3572V50.3566V50.356V50.3554V50.3549V50.3543V50.3537V50.3531V50.3526V50.352V50.3514V50.3508V50.3503V50.3497V50.3491V50.3485V50.3479V50.3474V50.3468V50.3462V50.3456V50.3451V50.3445V50.3439V50.3433V50.3428V50.3422V50.3416V50.341V50.3405V50.3399V50.3393V50.3387V50.3382V50.3376V50.337V50.3364V50.3358V50.3353V50.3347V50.3341V50.3335V50.333V50.3324V50.3318V50.3312V50.3307V50.3301V50.3295V50.3289V50.3284V50.3278V50.3272V50.3266V50.3261V50.3255V50.3249V50.3243V50.3237V50.3232V50.3226V50.322V50.3214V50.3209V50.3203V50.3197V50.3191V50.3186V50.318V50.3174V50.3168V50.3163V50.3157V50.3151V50.3145V50.314V50.3134V50.3128V50.3122V50.3116V50.3111V50.3105V50.3099V50.3093V50.3088V50.3082V50.3076V50.307V50.3065V50.3059V50.3053V50.3047V50.3042V50.3036V50.303V50.3024V50.3019V50.3013V50.3007V50.3001V50.2996V50.299V50.2984V50.2978V50.2972V50.2967V50.2961V50.2955V50.2949V50.2944V50.2938V50.2932V50.2926V50.2921V50.2915V50.2909V50.2903V50.2898V50.2892V50.2886V50.288V50.2875V50.2869V50.2863V50.2857V50.2851V50.2846V50.284V50.2834V50.2828V50.2823V50.2817V50.2811V50.2805V50.28V50.2794V50.2788V50.2782V50.2777V50.2771V50.2765V50.2759V50.2754V50.2748V50.2742V50.2736V50.273V50.2725V50.2719V50.2713V50.2707V50.2702V50.2696V50.269V50.2684V50.2679V50.2673V50.2667V50.2661V50.2656V50.265V50.2644V50.2638V50.2633V50.2627V50.2621V50.2615V50.2609V50.2604V50.2598V50.2592V50.2586V50.2581V50.2575V50.2569V50.2563V50.2558V50.2552V50.2546V50.254V50.2535V50.2529V50.2523V50.2517V50.2512V50.2506V50.25V50.2494V50.2488V50.2483V50.2477V50.2471V50.2465V50.246V50.2454V50.2448V50.2442V50.2437V50.2431V50.2425V50.2419V50.2414V50.2408V50.2402V50.2396V50.2391V50.2385V50.2379V50.2373V50.2367V50.2362V50.2356V50.235V50.2344V50.2339V50.2333V50.2327V50.2321V50.2316V50.231V50.2304V50.2298V50.2293V50.2287V50.2281V50.2275V50.227V50.2264V50.2258V50.2252V50.2247V50.2241V50.2235V50.2229V50.2223V50.2218V50.2212V50.2206V50.22V50.2195V50.2189V50.2183V50.2177V50.2172V50.2166V50.216V50.2154V50.2149V50.2143V50.2137V50.2131V50.2126V50.212V50.2114V50.2108V50.2102V50.2097V50.2091V50.2085V50.2079V50.2074V50.2068V50.2062V50.2056V50.2051V50.2045V50.2039V50.2033V50.2028V50.2022V50.2016V50.201V50.2005V50.1999V50.1993V50.1987V50.1981V50.1976V50.197V50.1964V50.1958V50.1953V50.1947V50.1941V50.1935V50.193V50.1924V50.1918V50.1912V50.1907V50.1901V50.1895V50.1889V50.1884V50.1878V50.1872V50.1866V50.186V50.1855V50.1849V50.1843V50.1837V50.1832V50.1826V50.182V50.1814V50.1809V50.1803V50.1797V50.1791V50.1786V50.178V50.1774V50.1768V50.1763V50.1757V50.1751V50.1745V50.1739V50.1734V50.1728V50.1722V50.1716V50.1711V50.1705V50.1699V50.1693V50.1688V50.1682V50.1676V50.167V50.1665V50.1659V50.1653V50.1647V50.1642V50.1636V50.163V50.1624V50.1618V50.1613V50.1607V50.1601V50.1595V50.159V50.1584V50.1578V50.1572V50.1567V50.1561V50.1555V50.1549V50.1544V50.1538V50.1532V50.1526V50.1521V50.1515V50.1509V50.1503V50.1498V50.1492V50.1486V50.148V50.1474V50.1469V50.1463V50.1457V50.1451V50.1446V50.144V50.1434V50.1428V50.1423V50.1417V50.1411V50.1405V50.14V50.1394V50.1388V50.1382V50.1377V50.1371V50.1365V50.1359V50.1353V50.1348V50.1342V50.1336C46.2627 49.9437 46.2318 49.7608 46.2085 49.6223C46.2077 49.6175 46.2069 49.6128 46.2061 49.6081C46.2056 49.6055 46.2052 49.603 46.2048 49.6005L50.3264 47.7882L51.8878 47.8791C53.8349 48.0579 55.4074 49.6325 55.5 51.5221V51.5223V51.5229V51.5235V51.5241V51.5246V51.5252V51.5258V51.5264V51.527V51.5275V51.5281V51.5287V51.5293V51.5298V51.5304V51.531V51.5316V51.5321V51.5327V51.5333V51.5339V51.5344V51.535V51.5356V51.5362V51.5367V51.5373V51.5379V51.5385V51.5391V51.5396V51.5402V51.5408V51.5414V51.5419V51.5425V51.5431V51.5437V51.5442V51.5448V51.5454V51.546V51.5465V51.5471V51.5477V51.5483V51.5488V51.5494V51.55V51.5506V51.5511V51.5517V51.5523V51.5529V51.5535V51.554V51.5546V51.5552V51.5558V51.5563V51.5569V51.5575V51.5581V51.5586V51.5592V51.5598V51.5604V51.5609V51.5615V51.5621V51.5627V51.5632V51.5638V51.5644V51.565V51.5656V51.5661V51.5667V51.5673V51.5679V51.5684V51.569V51.5696V51.5702V51.5707V51.5713V51.5719V51.5725V51.573V51.5736V51.5742V51.5748V51.5753V51.5759V51.5765V51.5771V51.5777V51.5782V51.5788V51.5794V51.58V51.5805V51.5811V51.5817V51.5823V51.5828V51.5834V51.584V51.5846V51.5851V51.5857V51.5863V51.5869V51.5874V51.588V51.5886V51.5892V51.5898V51.5903V51.5909V51.5915V51.5921V51.5926V51.5932V51.5938V51.5944V51.5949V51.5955V51.5961V51.5967V51.5972V51.5978V51.5984V51.599V51.5995V51.6001V51.6007V51.6013V51.6019V51.6024V51.603V51.6036V51.6042V51.6047V51.6053V51.6059V51.6065V51.607V51.6076V51.6082V51.6088V51.6093V51.6099V51.6105V51.6111V51.6116V51.6122V51.6128V51.6134V51.614V51.6145V51.6151V51.6157V51.6163V51.6168V51.6174V51.618V51.6186V51.6191V51.6197V51.6203V51.6209V51.6214V51.622V51.6226V51.6232V51.6237V51.6243V51.6249V51.6255V51.626V51.6266V51.6272V51.6278V51.6284V51.6289V51.6295V51.6301V51.6307V51.6312V51.6318V51.6324V51.633V51.6335V51.6341V51.6347V51.6353V51.6358V51.6364V51.637V51.6376V51.6381V51.6387V51.6393V51.6399V51.6405V51.641V51.6416V51.6422V51.6428V51.6433V51.6439V51.6445V51.6451V51.6456V51.6462V51.6468V51.6474V51.6479V51.6485V51.6491V51.6497V51.6502V51.6508V51.6514V51.652V51.6526V51.6531V51.6537V51.6543V51.6549V51.6554V51.656V51.6566V51.6572V51.6577V51.6583V51.6589V51.6595V51.66V51.6606V51.6612V51.6618V51.6623V51.6629V51.6635V51.6641V51.6647V51.6652V51.6658V51.6664V51.667V51.6675V51.6681V51.6687V51.6693V51.6698V51.6704V51.671V51.6716V51.6721V51.6727V51.6733V51.6739V51.6744V51.675V51.6756V51.6762V51.6768V51.6773V51.6779V51.6785V51.6791V51.6796V51.6802V51.6808V51.6814V51.6819V51.6825V51.6831V51.6837V51.6842V51.6848V51.6854V51.686V51.6865V51.6871V51.6877V51.6883V51.6889V51.6894V51.69V51.6906V51.6912V51.6917V51.6923V51.6929V51.6935V51.694V51.6946V51.6952V51.6958V51.6963V51.6969V51.6975V51.6981V51.6986V51.6992V51.6998V51.7004V51.7009V51.7015V51.7021V51.7027V51.7033V51.7038V51.7044V51.705V51.7056V51.7061V51.7067V51.7073V51.7079V51.7084V51.709V51.7096V51.7102V51.7107V51.7113V51.7119V51.7125V51.713V51.7136V51.7142V51.7148V51.7154V51.7159V51.7165V51.7171V51.7177V51.7182V51.7188V51.7194V51.72V51.7205V51.7211V51.7217V51.7223V51.7228V51.7234V51.724V51.7246V51.7251V51.7257V51.7263V51.7269V51.7275V51.728V51.7286V51.7292V51.7298V51.7303V51.7309V51.7315V51.7321V51.7326V51.7332V51.7338V51.7344V51.7349V51.7355V51.7361V51.7367V51.7372V51.7378V51.7384V51.739V51.7396V51.7401V51.7407V51.7413V51.7419V51.7424V51.743V51.7436V51.7442V51.7447V51.7453V51.7459V51.7465V51.747V51.7476V51.7482V51.7488V51.7493V51.7499V51.7505V51.7511V51.7517V51.7522V51.7528V51.7534V51.754V51.7545V51.7551V51.7557V51.7563V51.7568V51.7574V51.758V51.7586V51.7591V51.7597V51.7603V51.7609V51.7614V51.762V51.7626V51.7632V51.7638V51.7643V51.7649V51.7655V51.7661V51.7666V51.7672V51.7678V51.7684V51.7689V51.7695V51.7701V51.7707V51.7712V51.7718V51.7724V51.773V51.7735V51.7741V51.7747V51.7753V51.7758V51.7764V51.777V51.7776V51.7782V51.7787V51.7793V51.7799V51.7805V51.781V51.7816V51.7822V51.7828V51.7833V51.7839V51.7845V51.7851V51.7856V51.7862V51.7868V51.7874V51.7879V51.7885V51.7891V51.7897V51.7903V51.7908V51.7914V51.792V51.7926V51.7931V51.7937V51.7943V51.7949V51.7954V51.796V51.7966V51.7972V51.7977V51.7983V51.7989V51.7995V51.8V51.8006V51.8012V51.8018V51.8024V51.8029V51.8035V51.8041V51.8047V51.8052V54.5585C55.5 55.6665 54.6231 56.6151 53.4159 56.6151H50.9311H45.6013Z" fill="url(#paint3_linear_920_9963)" stroke="#333333"/>
<path d="M11.1198 47.9767L11.1199 47.9769L11.1329 47.9753L12.6883 47.7943L16.5037 49.4622C16.5012 49.4775 16.4985 49.4934 16.4958 49.5097L16.4934 49.524C16.47 49.6625 16.4391 49.8454 16.4391 50.0353V50.0359V50.0364V50.037V50.0376V50.0382V50.0387V50.0393V50.0399V50.0405V50.0411V50.0416V50.0422V50.0428V50.0434V50.0439V50.0445V50.0451V50.0457V50.0462V50.0468V50.0474V50.048V50.0485V50.0491V50.0497V50.0503V50.0509V50.0514V50.052V50.0526V50.0532V50.0538V50.0543V50.0549V50.0555V50.0561V50.0566V50.0572V50.0578V50.0584V50.059V50.0595V50.0601V50.0607V50.0613V50.0619V50.0624V50.063V50.0636V50.0642V50.0648V50.0654V50.0659V50.0665V50.0671V50.0677V50.0683V50.0688V50.0694V50.07V50.0706V50.0712V50.0718V50.0724V50.0729V50.0735V50.0741V50.0747V50.0753V50.0759V50.0765V50.077V50.0776V50.0782V50.0788V50.0794V50.08V50.0806V50.0812V50.0818V50.0823V50.0829V50.0835V50.0841V50.0847V50.0853V50.0859V50.0865V50.0871V50.0877V50.0883V50.0889V50.0895V50.0901V50.0907V50.0912V50.0918V50.0924V50.093V50.0936V50.0942V50.0948V50.0954V50.096V50.0966V50.0972V50.0978V50.0984V50.099V50.0996V50.1002V50.1008V50.1015V50.1021V50.1027V50.1033V50.1039V50.1045V50.1051V50.1057V50.1063V50.1069V50.1075V50.1081V50.1087V50.1093V50.11V50.1106V50.1112V50.1118V50.1124V50.113V50.1136V50.1143V50.1149V50.1155V50.1161V50.1167V50.1173V50.118V50.1186V50.1192V50.1198V50.1204V50.1211V50.1217V50.1223V50.1229V50.1236V50.1242V50.1248V50.1254V50.1261V50.1267V50.1273V50.128V50.1286V50.1292V50.1298V50.1305V50.1311V50.1317V50.1324V50.133V50.1336V50.1343V50.1349V50.1356V50.1362V50.1368V50.1375V50.1381V50.1388V50.1394V50.14V50.1407V50.1413V50.142V50.1426V50.1433V50.1439V50.1446V50.1452V50.1459V50.1465V50.1472V50.1478V50.1485V50.1491V50.1498V50.1504V50.1511V50.1518V50.1524V50.1531V50.1537V50.1544V50.1551V50.1557V50.1564V50.157V50.1577V50.1584V50.159V50.1597V50.1604V50.1611V50.1617V50.1624V50.1631V50.1637V50.1644V50.1651V50.1658V50.1664V50.1671V50.1678V50.1685V50.1692V50.1698V50.1705V50.1712V50.1719V50.1726V50.1733V50.174V50.1746V50.1753V50.176V50.1767V50.1774V50.1781V50.1788V50.1795V50.1802V50.1809V50.1816V50.1823V50.183V50.1837V50.1844V50.1851V50.1858V50.1865V50.1872V50.1879V50.1886V50.1893V50.1901V50.1908V50.1915V50.1922V50.1929V50.1936V50.1944V50.1951V50.1958V50.1965V50.1972V50.198V50.1987V50.1994V50.2001V50.2009V50.2016V50.2023V50.2031V50.2038V50.2045V50.2053V50.206V50.2067V50.2075V50.2082V50.209V50.2097V50.2105V50.2112V50.2119V50.2127V50.2134V50.2142V50.2149V50.2157V50.2165V50.2172V50.218V50.2187V50.2195V50.2202V50.221V50.2218V50.2225V50.2233V50.2241V50.2248V50.2256V50.2264V50.2271V50.2279V50.2287V50.2295V50.2302V50.231V50.2318V50.2326V50.2334V50.2341V50.2349V50.2357V50.2365V50.2373V50.2381V50.2389V50.2397V50.2405V50.2413V50.2421V50.2429V50.2437V50.2445V50.2453V50.2461V50.2469V50.2477V50.2485V50.2493V50.2501V50.2509V50.2517V50.2526V50.2534V50.2542V50.255V50.2558V50.2567V50.2575V50.2583V50.2591V50.26V50.2608V50.2616V50.2625V50.2633V50.2641V50.265V50.2658V50.2667V50.2675V50.2684V50.2692V50.27V50.2709V50.2717V50.2726V50.2735V50.2743V50.2752V50.276V50.2769V50.2777V50.2786V50.2795V50.2803V50.2812V50.2821V50.2829V50.2838V50.2847V50.2856V50.2865V50.2873V50.2882V50.2891V50.29V50.2909V50.2918V50.2926V50.2935V50.2944V50.2953V50.2962V50.2971V50.298V50.2989V50.2998V50.3007V50.3016V50.3025V50.3034V50.3044V50.3053V50.3062V50.3071V50.308V50.3089V50.3099V50.3108V50.3117V50.3126V50.3136V50.3145V50.3154V50.3164V50.3173V50.3182V50.3192V50.3201V50.3211V50.322V50.3229V50.3239V50.3248V50.3258V50.3268V50.3277V50.3287V50.3296V50.3306V50.3316V50.3325V50.3335V50.3345V50.3354V50.3364V50.3374V50.3383V50.3393V50.3403V50.3413V50.3423V50.3433V50.3442V50.3452V50.3462V50.3472V50.3482V50.3492V50.3502V50.3512V50.3522V50.3532V50.3542V50.3552V50.3562V50.3572V50.3583V50.3593V50.3603V50.3613V50.3623V50.3634V50.3644V50.3654V50.3664V50.3675V50.3685V50.3695V50.3706V50.3716V50.3727V50.3737V50.3748V50.3758V50.3769V50.3779V50.379V50.38V50.3811V50.3821V50.3832V50.3843V50.3853V50.3864V50.3875V50.3885V50.3896V50.3907V50.3918V50.3929V50.3939V50.395V50.3961V50.3972V50.3983V50.3994V50.4005V50.4016V50.4027V50.4038V50.4049V50.406V50.4071V50.4082V50.4093V50.4105V50.4116V50.4127V50.4138V50.4149V50.4161V50.4172V50.4183V50.4195V50.4206V50.4217V50.4229V50.424V50.4252V50.4263V50.4275V50.4286V50.5269V53.7718C16.4391 54.7392 16.6266 55.7211 17.0597 56.6151H12.069H9.58418C8.45105 56.6151 7.5 55.7398 7.5 54.5585V51.9036V51.903V51.9024V51.9018V51.9013V51.9007V51.9001V51.8995V51.899V51.8984V51.8978V51.8972V51.8966V51.8961V51.8955V51.8949V51.8943V51.8938V51.8932V51.8926V51.892V51.8915V51.8909V51.8903V51.8897V51.8892V51.8886V51.888V51.8874V51.8869V51.8863V51.8857V51.8851V51.8845V51.884V51.8834V51.8828V51.8822V51.8817V51.8811V51.8805V51.8799V51.8794V51.8788V51.8782V51.8776V51.8771V51.8765V51.8759V51.8753V51.8748V51.8742V51.8736V51.873V51.8724V51.8719V51.8713V51.8707V51.8701V51.8696V51.869V51.8684V51.8678V51.8673V51.8667V51.8661V51.8655V51.865V51.8644V51.8638V51.8632V51.8627V51.8621V51.8615V51.8609V51.8604V51.8598V51.8592V51.8586V51.858V51.8575V51.8569V51.8563V51.8557V51.8552V51.8546V51.854V51.8534V51.8529V51.8523V51.8517V51.8511V51.8506V51.85V51.8494V51.8488V51.8483V51.8477V51.8471V51.8465V51.8459V51.8454V51.8448V51.8442V51.8436V51.8431V51.8425V51.8419V51.8413V51.8408V51.8402V51.8396V51.839V51.8385V51.8379V51.8373V51.8367V51.8362V51.8356V51.835V51.8344V51.8338V51.8333V51.8327V51.8321V51.8315V51.831V51.8304V51.8298V51.8292V51.8287V51.8281V51.8275V51.8269V51.8264V51.8258V51.8252V51.8246V51.8241V51.8235V51.8229V51.8223V51.8217V51.8212V51.8206V51.82V51.8194V51.8189V51.8183V51.8177V51.8171V51.8166V51.816V51.8154V51.8148V51.8143V51.8137V51.8131V51.8125V51.812V51.8114V51.8108V51.8102V51.8096V51.8091V51.8085V51.8079V51.8073V51.8068V51.8062V51.8056V51.805V51.8045V51.8039V51.8033V51.8027V51.8022V51.8016V51.801V51.8004V51.7999V51.7993V51.7987V51.7981V51.7975V51.797V51.7964V51.7958V51.7952V51.7947V51.7941V51.7935V51.7929V51.7924V51.7918V51.7912V51.7906V51.7901V51.7895V51.7889V51.7883V51.7878V51.7872V51.7866V51.786V51.7855V51.7849V51.7843V51.7837V51.7831V51.7826V51.782V51.7814V51.7808V51.7803V51.7797V51.7791V51.7785V51.778V51.7774V51.7768V51.7762V51.7757V51.7751V51.7745V51.7739V51.7734V51.7728V51.7722V51.7716V51.771V51.7705V51.7699V51.7693V51.7687V51.7682V51.7676V51.767V51.7664V51.7659V51.7653V51.7647V51.7641V51.7636V51.763V51.7624V51.7618V51.7613V51.7607V51.7601V51.7595V51.7589V51.7584V51.7578V51.7572V51.7566V51.7561V51.7555V51.7549V51.7543V51.7538V51.7532V51.7526V51.752V51.7515V51.7509V51.7503V51.7497V51.7492V51.7486V51.748V51.7474V51.7468V51.7463V51.7457V51.7451V51.7445V51.744V51.7434V51.7428V51.7422V51.7417V51.7411V51.7405V51.7399V51.7394V51.7388V51.7382V51.7376V51.7371V51.7365V51.7359V51.7353V51.7347V51.7342V51.7336V51.733V51.7324V51.7319V51.7313V51.7307V51.7301V51.7296V51.729V51.7284V51.7278V51.7273V51.7267V51.7261V51.7255V51.725V51.7244V51.7238V51.7232V51.7227V51.7221V51.7215V51.7209V51.7203V51.7198V51.7192V51.7186V51.718V51.7175V51.7169V51.7163V51.7157V51.7152V51.7146V51.714V51.7134V51.7129V51.7123V51.7117V51.7111V51.7106V51.71V51.7094V51.7088V51.7082V51.7077V51.7071V51.7065V51.7059V51.7054V51.7048V51.7042V51.7036V51.7031V51.7025V51.7019V51.7013V51.7008V51.7002V51.6996V51.699V51.6985V51.6979V51.6973V51.6967V51.6961V51.6956V51.695V51.6944V51.6938V51.6933V51.6927V51.6921V51.6915V51.691V51.6904V51.6898V51.6892V51.6887V51.6881V51.6875V51.6869V51.6864V51.6858V51.6852V51.6846V51.684V51.6835V51.6829V51.6823V51.6817V51.6812V51.6806V51.68V51.6794V51.6789V51.6783V51.6777V51.6771V51.6766V51.676V51.6754V51.6748V51.6743V51.6737V51.6731V51.6725V51.6719V51.6714V51.6708V51.6702V51.6696V51.6691V51.6685V51.6679V51.6673V51.6668V51.6662V51.6656V51.665V51.6645V51.6639V51.6633V51.6627V51.6622V51.6616V51.661V51.6604V51.6598V51.6593V51.6587V51.6581V51.6575V51.657V51.6564V51.6558V51.6552V51.6547V51.6541V51.6535V51.6529V51.6524V51.6518V51.6512V51.6506V51.6501V51.6495V51.6489V51.6483V51.6478V51.6472V51.6466V51.646V51.6454V51.6449V51.6443V51.6437V51.6431V51.6426V51.642V51.6414V51.6408V51.6403V51.6397V51.6391V51.6385V51.638V51.6374V51.6368V51.6362V51.6357V51.6351V51.6345V51.6339V51.6333V51.6328V51.6322V51.6316V51.631V51.6305V51.6299V51.6293V51.6287V51.6282V51.6276V51.627V51.6264V51.6259V51.6253V51.6247V51.6241V51.6236V51.623V51.6224V51.6218V51.6212V51.6207V51.6204C7.59279 49.7283 9.16926 48.1521 11.1198 47.9767Z" fill="url(#paint4_linear_920_9963)" stroke="#333333"/>
<defs>
<linearGradient id="paint0_linear_920_9963" x1="18.89" y1="42.2767" x2="44.0442" y2="42.2767" gradientUnits="userSpaceOnUse">
<stop stop-color="#FF6F3D"/>
<stop offset="1" stop-color="#FF8E3D"/>
</linearGradient>
<linearGradient id="paint1_linear_920_9963" x1="10.9861" y1="39.978" x2="22.9856" y2="39.978" gradientUnits="userSpaceOnUse">
<stop stop-color="#FF6F3D"/>
<stop offset="1" stop-color="#FF8E3D"/>
</linearGradient>
<linearGradient id="paint2_linear_920_9963" x1="39.8321" y1="39.978" x2="51.8314" y2="39.978" gradientUnits="userSpaceOnUse">
<stop stop-color="#FF6F3D"/>
<stop offset="1" stop-color="#FF8E3D"/>
</linearGradient>
<linearGradient id="paint3_linear_920_9963" x1="44.7183" y1="52.1596" x2="56.0176" y2="52.1596" gradientUnits="userSpaceOnUse">
<stop stop-color="#FF6F3D"/>
<stop offset="1" stop-color="#FF8E3D"/>
</linearGradient>
<linearGradient id="paint4_linear_920_9963" x1="6.90061" y1="52.1595" x2="17.9181" y2="52.1595" gradientUnits="userSpaceOnUse">
<stop stop-color="#FF6F3D"/>
<stop offset="1" stop-color="#FF8E3D"/>
</linearGradient>
</defs>
</svg>
