<svg width="64" height="64" viewBox="0 0 64 64" fill="none" xmlns="http://www.w3.org/2000/svg">
<path d="M11.2776 42.5868C7.36464 35.2857 6.04561 26.1378 6.63356 13.8468C12.3129 14.0967 17.014 13.3436 21.1248 11.4945C25.1893 9.66622 28.6413 6.7824 31.8794 2.8067C35.1452 6.96492 38.2625 9.71199 42.0643 11.4201C45.9077 13.1469 50.4024 13.7897 56.3648 13.8217C56.9558 26.1291 55.6392 35.4424 51.8153 42.829C47.9777 50.2421 41.5809 55.7786 31.8889 60.4442C21.8005 55.4655 15.2103 49.9246 11.2776 42.5868Z" fill="url(#paint0_linear_920_5677)" stroke="#333333"/>
<path d="M15.179 40.9814C11.834 35.2637 10.4208 28.0871 10.5034 17.9715C15.2508 17.9302 19.2164 17.286 22.6978 15.8021C26.1511 14.3302 29.0975 12.0452 31.8496 8.75989C34.8847 12.0052 37.8193 14.2898 41.108 15.7716C44.4186 17.2632 48.0548 17.9266 52.4596 17.9713C52.7641 27.6637 51.3525 34.9966 48.0327 40.9005C44.6947 46.8365 39.3954 51.3853 31.8312 55.4317C23.9013 51.0731 18.544 46.7331 15.179 40.9814Z" fill="url(#paint1_linear_920_5677)" stroke="#333333"/>
<path fill-rule="evenodd" clip-rule="evenodd" d="M37.5358 26.2949C38.0948 26.7473 38.1731 27.5573 37.7107 28.1041L30.4658 36.6705C30.2259 36.9541 29.8732 37.1235 29.4971 37.1357C29.121 37.1479 28.7576 37.0017 28.499 36.7342L24.3591 32.451C23.8607 31.9353 23.884 31.1221 24.4112 30.6345C24.9383 30.147 25.7698 30.1698 26.2682 30.6854L29.388 33.9132L35.6863 26.4659C36.1488 25.9191 36.9768 25.8426 37.5358 26.2949Z" fill="white"/>
<defs>
<linearGradient id="paint0_linear_920_5677" x1="6.0001" y1="-0.304688" x2="64.7046" y2="52.4221" gradientUnits="userSpaceOnUse">
<stop stop-color="#FF8E3D"/>
<stop offset="1" stop-color="#FF6F3D"/>
</linearGradient>
<linearGradient id="paint1_linear_920_5677" x1="10.0001" y1="6.125" x2="57.9122" y2="50.7229" gradientUnits="userSpaceOnUse">
<stop stop-color="#FFC671"/>
<stop offset="0.59375" stop-color="#FF7541"/>
<stop offset="1" stop-color="#FF6F3D"/>
</linearGradient>
</defs>
</svg>
