<svg width="150" height="150" viewBox="0 0 150 150" fill="none" xmlns="http://www.w3.org/2000/svg">
<path fill-rule="evenodd" clip-rule="evenodd" d="M47 53.0001V32.0001H41.8861C38.8426 32.0001 37 34.1177 37 37.3693V53.0001H47Z" fill="#D9F4FF"/>
<path d="M47 7.00018H91.5L101 17.5002V52.0002H47V7.00018Z" fill="white"/>
<path d="M90.5 6.50012L101 17.5001H90.5V6.50012Z" fill="url(#paint0_linear_33_73211)"/>
<path fill-rule="evenodd" clip-rule="evenodd" d="M47 6.00012H90.9081L101 17.3068V46.7858H100.018V17.6934L90.4737 7.00012H47.9818V53.0001H65.885V54.0001H47V6.00012Z" fill="#333333"/>
<path fill-rule="evenodd" clip-rule="evenodd" d="M90.3197 6.03366C90.5124 5.95917 90.731 6.01084 90.87 6.16368L100.87 17.1637C101.003 17.3101 101.037 17.5213 100.957 17.7023C100.877 17.8833 100.698 18 100.5 18H90.5C90.2239 18 90 17.7761 90 17.5V6.50002C90 6.29345 90.127 6.10815 90.3197 6.03366ZM91 7.79332V17H99.3697L91 7.79332Z" fill="#333333"/>
<path fill-rule="evenodd" clip-rule="evenodd" d="M38.7098 33.395C39.783 32.4518 41.2517 32.0001 42.8626 32.0001H48.0006V54.0001H37V37.5456C37 35.752 37.6275 34.3463 38.7098 33.395ZM39.3701 34.1461C38.532 34.8827 38.0001 35.9997 38.0001 37.5456V53.0001H47.0005V33.0001H42.8626C41.43 33.0001 40.2173 33.4014 39.3701 34.1461Z" fill="#333333"/>
<path fill-rule="evenodd" clip-rule="evenodd" d="M101 32.0001V46.0001H111V36.5605C111 33.2337 109.012 32.0001 106.114 32.0001H101Z" fill="#D9F4FF"/>
<path fill-rule="evenodd" clip-rule="evenodd" d="M100 32.0001H105.614C107.122 32.0001 108.48 32.3194 109.466 33.1504C110.468 33.9952 111 35.2944 111 37.0605V47.0001H100V32.0001ZM101 33.0001V46.0001H110V37.0605C110 35.4998 109.538 34.5188 108.822 33.915C108.089 33.2976 107.004 33.0001 105.614 33.0001H101Z" fill="#333333"/>
<path fill-rule="evenodd" clip-rule="evenodd" d="M72.5 46.467L67.3544 52.1906H37.5845C35.1257 52.1906 32.7483 53.9138 33.0215 55.7025L38.2123 85.6978C38.4855 87.4865 40.2613 89 42.7201 89H108.562C111.02 89 112.933 87.4865 113.069 85.6978L116.972 47.6965C117.195 46.573 116.08 45.0001 114.073 45.0001H76C74.662 45.0001 73.4562 45.5038 72.5 46.467Z" fill="url(#paint1_linear_33_73211)"/>
<path fill-rule="evenodd" clip-rule="evenodd" d="M67.9298 53.0177H37.7076C36.7023 53.0177 35.5844 53.7193 34.8893 54.2555C34.1768 54.8052 33.9517 55.3777 34.0094 55.7901L39.1999 86.4654L39.2014 86.4749C39.3897 87.7358 40.6726 88.9999 42.7202 88.9999H108.562C110.676 88.9999 111.987 87.6944 112.072 86.5482L112.073 86.5354L115.981 47.6122L115.99 47.5672C116.072 47.1435 115.566 45.9999 114.073 45.9999H76C74.9464 45.9999 74.0035 46.3953 73.234 47.1799L67.9298 53.0177ZM72.5 46.5002L67.4774 52.0177H37.7076C35.2488 52.0177 32.7483 54.1162 33.0215 55.9456L38.2123 86.6226C38.4855 88.452 40.2613 89.9999 42.7202 89.9999H108.562C111.02 89.9999 112.933 88.452 113.069 86.6226L116.972 47.7577C117.195 46.6086 116.08 44.9999 114.073 44.9999H76C74.662 44.9999 73.4562 45.5151 72.5 46.5002Z" fill="#333333"/>
<path d="M73 12.9523H54V31.0475H73V12.9523Z" fill="white"/>
<path fill-rule="evenodd" clip-rule="evenodd" d="M54 31.0476L60.5 24.8571L64 28.1905L69.2927 21.5238L73 27.0376V31.0476" fill="#E0E0E0"/>
<path fill-rule="evenodd" clip-rule="evenodd" d="M53 12.9524C53 12.4264 53.4477 12 54 12H73C73.5523 12 74 12.4264 74 12.9524V31.0476C74 31.5736 73.5523 32 73 32H54C53.4477 32 53 31.5736 53 31.0476V12.9524ZM73 13.0312V31.0476H54V12.9896L73 13.0312Z" fill="#333333"/>
<path fill-rule="evenodd" clip-rule="evenodd" d="M54.0096 30.995H73V27.0375L69.3252 21.5238L64.1951 28.78L60.3456 25.2282L54.0096 30.995ZM64.0329 27.3043L61.0415 24.5442C60.6545 24.1872 60.0401 24.1863 59.652 24.5422L53.3064 30.3616C52.9085 30.7264 52.8966 31.3293 53.2797 31.7082C53.6627 32.0871 54.2958 32.0985 54.6936 31.7336L54.9224 31.5238H72.1338C72.3067 31.8085 72.6299 32 73 32C73.5523 32 74 31.5736 74 31.0476V27.0375C74 26.8568 73.946 26.6798 73.8443 26.5272L70.1695 21.0134C69.9886 20.742 69.6762 20.5758 69.3387 20.5715C69.0012 20.5672 68.6842 20.7252 68.4957 20.9919L64.0329 27.3043Z" fill="#333333"/>
<path fill-rule="evenodd" clip-rule="evenodd" d="M53 37.5067C53 37.2448 53.2239 37.0325 53.5 37.0325H95.5C95.7761 37.0325 96 37.2448 96 37.5067C96 37.7685 95.7761 37.9808 95.5 37.9808H53.5C53.2239 37.9808 53 37.7685 53 37.5067Z" fill="#333333"/>
<path fill-rule="evenodd" clip-rule="evenodd" d="M78.5 16.4999C78.5 16.2237 78.7239 15.9999 79 15.9999H85C85.2761 15.9999 85.5 16.2237 85.5 16.4999C85.5 16.776 85.2761 16.9999 85 16.9999H79C78.7239 16.9999 78.5 16.776 78.5 16.4999Z" fill="#333333"/>
<path fill-rule="evenodd" clip-rule="evenodd" d="M78.5 21.5C78.5 21.2239 78.7239 21 79 21H95C95.2761 21 95.5 21.2239 95.5 21.5C95.5 21.7761 95.2761 22 95 22H87H79C78.7239 22 78.5 21.7761 78.5 21.5Z" fill="#333333"/>
<path fill-rule="evenodd" clip-rule="evenodd" d="M78.5 26.4999C78.5 26.2238 78.7239 25.9999 79 25.9999H95C95.2761 25.9999 95.5 26.2238 95.5 26.4999C95.5 26.7761 95.2761 26.9999 95 26.9999H79C78.7239 26.9999 78.5 26.7761 78.5 26.4999Z" fill="#333333"/>
<path fill-rule="evenodd" clip-rule="evenodd" d="M53.2188 42.5035C53.2188 42.2274 53.4426 42.0035 53.7188 42.0035H65.7188C65.9949 42.0035 66.2188 42.2274 66.2188 42.5035C66.2188 42.7797 65.9949 43.0035 65.7188 43.0035H53.7188C53.4426 43.0035 53.2188 42.7797 53.2188 42.5035Z" fill="#333333"/>
<path d="M61 17.5569C61 18.6615 60.1046 19.5569 59 19.5569C57.8954 19.5569 57 18.6615 57 17.5569C57 16.4523 57.8954 15.5569 59 15.5569C60.1046 15.5569 61 16.4523 61 17.5569Z" fill="url(#paint2_linear_33_73211)"/>
<path fill-rule="evenodd" clip-rule="evenodd" d="M22.7759 118.108C22.9101 118.198 23.0444 118.287 23.0891 118.332C24.521 119.271 29.8905 122.806 36.0655 126.923C37.9701 124.541 40.475 123.449 43.4039 125.402C45.0595 126.565 44.9457 128.892 43.5138 130.324C45.8167 128.105 48.8432 125.062 52.2636 127.37C53.7817 128.433 54.3782 129.992 53.248 131.8C54.9484 130.055 58.2149 129.876 60.139 131.308C64.3299 134.356 61.4112 137.427 58.9308 140.034C60.4074 138.96 62.6447 138.87 64.1213 139.899C66.1845 141.275 66.2858 143.552 64.6135 145.224C67.3304 146.583 70.6121 148.983 73.7417 148.983C75.4821 149.242 77.3295 147.952 77.3295 145.358C78.6718 146.209 81.5828 147.705 83.4001 147.372C86.0849 146.88 87.2103 144.866 87.3446 142.942C87.4341 142.002 86.8076 140.713 85.7342 139.676C87.703 141.152 89.78 142.9 91.7297 143.032C95.6086 143.294 97.4124 141.063 97.7257 138.512C97.929 136.857 97.1439 136.776 95.1751 133.822C96.2042 134.762 98.5839 136.857 100.366 136.857C104.202 136.857 106.138 134.261 105.959 131.577C105.825 129.429 99.1128 121.732 95.4884 117.571C92.9891 115.072 83.4233 105.433 79.8277 105.221C76.5613 105.221 68.6859 104.505 67.0303 104.237C65.33 108.174 61.0791 114.126 58.1706 117.347C55.1279 120.748 50.2948 121.598 47.0283 117.347C47.0283 115.781 54.4561 99.4489 54.9931 99.1357C55.3511 97.838 71.3702 85.8013 73.3838 85.6671C77.7689 85.6671 82.6462 86.204 87.7473 86.8752C90.5709 84.0516 90.714 78.8702 87.2103 76.4046C80.0509 75.4032 71.8176 74.2654 64.1213 74.2654C58.9529 74.5846 42.4195 82.0873 36.513 87.5016C37.9896 95.8692 26.6378 113.635 22.7759 118.108Z" fill="#FEFEFE"/>
<path fill-rule="evenodd" clip-rule="evenodd" d="M21.3022 118.309L22.0308 117.465C23.8982 115.302 27.661 109.811 30.7726 103.812C32.3254 100.818 33.6998 97.7283 34.5937 94.8892C35.4958 92.0244 35.8712 89.5288 35.5436 87.6727L35.4498 87.1409L35.8479 86.776C38.9169 83.9628 44.6412 80.6821 50.1754 78.0819C52.958 76.7746 55.7249 75.6242 58.1313 74.7782C60.5095 73.9421 62.6223 73.3717 64.0607 73.2829L64.091 73.281H64.1214C71.8977 73.281 80.1988 74.4299 87.3468 75.4297L87.5824 75.4627L87.7769 75.5996C91.8793 78.4865 91.6091 84.4057 88.4434 87.5713L88.1002 87.9146L87.6189 87.8513C82.5497 87.1843 77.7526 86.6574 73.4554 86.6516C73.4312 86.6586 73.3608 86.6791 73.2309 86.7337C73.0453 86.8117 72.802 86.9315 72.5017 87.0953C71.9027 87.4221 71.1347 87.8927 70.2489 88.4703C68.4805 89.6235 66.2952 91.1688 64.1539 92.756C62.0129 94.3429 59.9289 95.962 58.3629 97.2605C57.5782 97.9111 56.935 98.4718 56.4825 98.9027C56.2549 99.1195 56.0896 99.2903 55.9822 99.4148C55.9523 99.4495 55.9303 99.4767 55.9147 99.4969L55.8355 99.784L55.6541 99.8898C55.5857 100.002 55.4896 100.173 55.3664 100.405C55.1205 100.869 54.7926 101.525 54.4088 102.321C53.6423 103.909 52.6677 106.02 51.7086 108.172C50.7492 110.325 49.8094 112.511 49.111 114.252C48.7612 115.123 48.4762 115.873 48.2801 116.447C48.1923 116.703 48.1256 116.915 48.0793 117.082C49.4739 118.72 51.0876 119.316 52.6311 119.234C54.3147 119.144 56.0524 118.239 57.4371 116.691L57.44 116.688C60.3072 113.512 64.4839 107.651 66.1267 103.846L66.4308 103.142L67.188 103.265C68.7937 103.525 76.6163 104.237 79.8278 104.237H79.8567L79.8856 104.238C80.5183 104.276 81.194 104.509 81.8513 104.82C82.5225 105.137 83.2459 105.57 83.9908 106.073C85.4807 107.078 87.1264 108.41 88.7161 109.796C91.7712 112.459 94.6941 115.384 96.0262 116.717C96.0818 116.772 96.1346 116.825 96.1845 116.875L96.2085 116.899L96.29 116.993C98.0964 119.067 100.663 122.014 102.804 124.718C103.886 126.084 104.873 127.405 105.602 128.532C105.967 129.095 106.278 129.627 106.507 130.103C106.723 130.555 106.912 131.049 106.941 131.513C107.048 133.111 106.524 134.707 105.38 135.904C104.228 137.108 102.515 137.841 100.366 137.841C99.8065 137.841 99.2376 137.696 98.6924 137.475C98.759 137.847 98.7527 138.226 98.7028 138.632C98.5232 140.095 97.9067 141.535 96.7091 142.571C95.5007 143.617 93.8082 144.159 91.6634 144.014C90.4876 143.934 89.3555 143.398 88.3375 142.768C88.3373 142.853 88.3335 142.938 88.3258 143.023C88.1639 145.283 86.7975 147.75 83.5777 148.34C82.382 148.56 80.9787 148.175 79.8285 147.726C79.2176 147.487 78.626 147.209 78.0986 146.933C77.8575 147.76 77.424 148.451 76.8485 148.971C75.9667 149.768 74.805 150.114 73.6714 149.967C71.8972 149.949 70.152 149.272 68.5853 148.495C67.7835 148.097 66.9996 147.657 66.2628 147.242L66.1663 147.188C65.4574 146.789 64.7979 146.417 64.1734 146.105L62.9518 145.494L63.9175 144.528C64.5891 143.857 64.8347 143.14 64.7869 142.527C64.7398 141.924 64.397 141.266 63.5753 140.719L63.5669 140.713L63.5585 140.707C62.4522 139.936 60.6737 139.983 59.5098 140.83L58.2177 139.355C58.8436 138.697 59.4595 138.049 59.9842 137.387C60.5107 136.724 60.9016 136.1 61.1075 135.511C61.3065 134.943 61.326 134.43 61.1426 133.929C60.9532 133.411 60.5059 132.792 59.56 132.104L59.5513 132.098C58.8112 131.547 57.7571 131.274 56.6746 131.345C55.5926 131.417 54.5989 131.825 53.9532 132.487L52.4133 131.279C52.8642 130.557 52.9123 129.993 52.7972 129.557C52.6766 129.1 52.3334 128.623 51.7061 128.182C51.0014 127.708 50.3606 127.534 49.7716 127.53C49.1694 127.527 48.5544 127.702 47.9164 128.026C46.6422 128.675 45.4559 129.819 44.3036 130.93C44.2681 130.964 44.2325 130.998 44.197 131.033L42.8178 129.628C43.9439 128.502 43.8543 126.93 42.8471 126.214C41.5817 125.373 40.5143 125.246 39.6033 125.488C38.6497 125.741 37.7119 126.44 36.8344 127.538L36.2707 128.243L35.5195 127.742C29.3469 123.627 23.9793 120.093 22.5491 119.155L22.4646 119.099L22.4249 119.06C22.4188 119.055 22.4111 119.05 22.4016 119.043C22.3567 119.012 22.2997 118.974 22.2299 118.927L21.3022 118.309ZM43.404 125.402C44.291 126.025 44.6701 126.982 44.6108 127.957C44.5594 128.801 44.1787 129.659 43.5139 130.324C43.5633 130.276 43.6131 130.228 43.6631 130.18C44.2452 129.618 44.8719 129.014 45.538 128.462C47.4852 126.849 49.7697 125.687 52.2637 127.37C53.2952 128.093 53.9013 129.044 53.8292 130.147C53.7952 130.667 53.6104 131.221 53.2481 131.8C53.6618 131.376 54.1682 131.044 54.7254 130.805C56.4584 130.064 58.6831 130.225 60.139 131.308C63.4368 133.707 62.3324 136.119 60.5033 138.309C60.0079 138.902 59.4594 139.478 58.9308 140.034C59.5349 139.594 60.2663 139.32 61.0209 139.219C62.1107 139.074 63.2489 139.291 64.1214 139.899C65.8766 141.07 66.2119 142.892 65.2434 144.44C65.0735 144.711 64.8633 144.975 64.6136 145.224C64.909 145.372 65.2111 145.532 65.5189 145.7C65.8854 145.9 66.2599 146.111 66.6411 146.326C68.885 147.59 71.3575 148.983 73.7418 148.983C75.2204 149.203 76.7762 148.305 77.2108 146.44C77.2877 146.109 77.3295 145.749 77.3295 145.358C77.5948 145.526 77.9214 145.72 78.2886 145.919C79.7797 146.729 81.942 147.639 83.4002 147.372C86.0849 146.88 87.2104 144.866 87.3446 142.942C87.371 142.665 87.3351 142.357 87.2438 142.035C87.0256 141.264 86.491 140.407 85.7343 139.676C85.9519 139.839 86.1708 140.005 86.3907 140.173C86.9481 140.597 87.5119 141.025 88.0769 141.418C89.3063 142.271 90.5417 142.951 91.7298 143.032C95.6087 143.294 97.4125 141.063 97.7257 138.512C97.8204 137.741 97.7007 137.312 97.347 136.775C97.1877 136.533 96.9809 136.269 96.7249 135.943C96.3286 135.437 95.8142 134.781 95.1752 133.823C95.788 134.382 96.8799 135.351 98.0392 136.044C98.8266 136.514 99.6451 136.857 100.366 136.857C104.202 136.857 106.138 134.261 105.959 131.577C105.825 129.439 99.1788 121.808 95.5422 117.633L95.4884 117.571C95.4391 117.522 95.3871 117.47 95.3323 117.415C92.614 114.695 83.3524 105.428 79.8278 105.221C76.5613 105.221 68.686 104.505 67.0304 104.237C65.3301 108.174 61.0792 114.126 58.1707 117.347C55.1279 120.748 50.2948 121.598 47.0284 117.347C47.0284 115.781 54.4562 99.4489 54.9932 99.1357C55.3512 97.8381 71.3703 85.8013 73.3838 85.6671C77.769 85.6671 82.6463 86.2041 87.7474 86.8753C90.5709 84.0517 90.7141 78.8702 87.2104 76.4047C80.051 75.4033 71.8177 74.2654 64.1214 74.2654C58.9529 74.5847 42.4196 82.0874 36.5131 87.5017C37.9162 95.453 27.7355 111.891 23.4054 117.345C23.1787 117.63 22.9681 117.886 22.776 118.108C22.9102 118.198 23.0444 118.287 23.0892 118.332C23.224 118.42 23.3937 118.532 23.5956 118.664C25.5392 119.942 30.4719 123.194 36.0656 126.923C37.9702 124.541 40.475 123.449 43.404 125.402Z" fill="#333333"/>
<path fill-rule="evenodd" clip-rule="evenodd" d="M127.688 116.444C122.453 110.269 117.531 101.275 115.294 92.9521C114.98 91.7887 114.399 89.7752 114.309 88.4775C105.36 88.4328 97.0548 86.6967 88.1951 85.5333C83.094 84.8621 76.9908 84.4504 72.6057 84.4504C68.999 84.4504 55.2172 95.8697 54.2151 97.919C53.7405 98.8229 46.8496 114.574 46.2502 116.131C48.3263 120.48 54.8415 120.292 57.8842 116.891C60.7927 113.67 64.7304 107.539 66.4755 103.602C68.1311 103.87 76.0064 104.362 79.2729 104.362C80.0336 104.407 90.8675 112.888 94.2181 115.907C96.5621 118.019 100.5 121.957 101.976 123.926C102.614 124.776 104.93 127.371 105.422 127.863C108.986 131.427 119.455 126.243 126.256 122.261C126.301 122.261 130.149 119.487 130.149 119.487C130.373 119.308 127.688 116.444 127.688 116.444Z" fill="#EFEFEF"/>
<path fill-rule="evenodd" clip-rule="evenodd" d="M115.294 92.9522C117.531 101.275 122.453 110.269 127.688 116.444C127.688 116.444 130.373 119.308 130.149 119.487C130.149 119.487 126.301 122.261 126.256 122.261C119.455 126.243 108.986 131.427 105.422 127.863C104.93 127.371 102.614 124.776 101.976 123.926C100.5 121.957 96.5622 118.019 94.2182 115.907C90.8675 112.888 80.0337 104.407 79.273 104.362C76.0065 104.362 68.1312 103.87 66.4756 103.602C64.7305 107.539 60.7928 113.67 57.8843 116.891C54.8416 120.292 48.3264 120.48 46.2503 116.131C46.8497 114.574 53.7406 98.823 54.2152 97.919C55.2173 95.8697 68.9991 84.4504 72.6058 84.4504C76.9909 84.4504 83.0941 84.8622 88.1952 85.5334C90.5739 85.8457 92.9127 86.1994 95.2347 86.5505C101.561 87.5071 107.763 88.4448 114.309 88.4776C114.389 89.6327 114.859 91.3552 115.182 92.5403C115.222 92.6865 115.259 92.8244 115.294 92.9522ZM88.3233 84.5573C83.1843 83.8812 77.0381 83.466 72.6058 83.466C71.943 83.466 71.1781 83.7149 70.4271 84.043C69.6479 84.3834 68.7684 84.8616 67.8405 85.4254C65.9825 86.5541 63.8584 88.0696 61.8314 89.6376C59.8023 91.2072 57.8522 92.8439 56.3408 94.2228C55.5859 94.9115 54.9319 95.5437 54.4292 96.0762C53.9628 96.5704 53.5391 97.068 53.3368 97.4744C53.0541 98.0239 51.2059 102.206 49.3777 106.385C47.5276 110.615 45.6417 114.972 45.3316 115.777L45.1794 116.172L45.3619 116.555C46.5969 119.142 49.1356 120.321 51.6738 120.401C54.1959 120.481 56.878 119.491 58.6165 117.549C61.4367 114.425 65.1631 108.69 67.0686 104.669C69.6315 104.948 76.0619 105.331 79.0872 105.346C79.1746 105.394 79.299 105.469 79.4628 105.575C79.8168 105.803 80.2991 106.138 80.8816 106.559C82.0434 107.398 83.5636 108.549 85.1705 109.797C88.3906 112.298 91.9125 115.154 93.5592 116.638C95.895 118.743 99.7727 122.628 101.189 124.516C101.861 125.412 104.209 128.042 104.726 128.559C105.888 129.721 107.531 130.086 109.254 130.035C110.984 129.984 112.946 129.512 114.946 128.823C118.941 127.446 123.313 125.124 126.726 123.127C126.753 123.112 126.775 123.099 126.785 123.093C126.809 123.078 126.833 123.062 126.852 123.05C126.891 123.024 126.941 122.99 126.997 122.951C127.111 122.872 127.268 122.761 127.453 122.631C127.822 122.369 128.309 122.021 128.793 121.674C129.278 121.327 129.761 120.979 130.122 120.719L130.724 120.286L130.745 120.271L130.764 120.255C131.273 119.849 131.132 119.263 131.116 119.194C131.078 119.036 131.011 118.905 130.972 118.834C130.885 118.674 130.764 118.501 130.647 118.345C130.404 118.022 130.07 117.625 129.745 117.252C129.416 116.874 129.082 116.504 128.831 116.23C128.705 116.092 128.599 115.978 128.525 115.898L128.438 115.805L128.424 115.789C123.282 109.718 118.439 100.862 116.244 92.6966C116.209 92.5648 116.171 92.4249 116.131 92.2795C115.803 91.0735 115.364 89.4582 115.291 88.4098L115.228 87.4977L114.314 87.4932C107.845 87.4608 101.746 86.5387 95.4439 85.5858C93.1082 85.2327 90.7443 84.8752 88.3233 84.5573Z" fill="#333333"/>
<path fill-rule="evenodd" clip-rule="evenodd" d="M114.382 92.1882C116.977 101.764 123.062 112.1 129.058 118.186C129.193 118.32 129.327 118.454 129.461 118.544C131.743 120.647 132.996 120.423 135.547 119.125L143.064 115.277C145.301 114.159 145.883 113.308 143.332 110.4C138.545 104.359 131.788 93.2174 128.074 83.418C126.329 78.8091 125.613 79.7935 123.241 80.9122L116.082 84.3129C114.158 85.1631 113.353 85.7 113.353 87.2214C113.353 87.3556 113.353 87.4899 113.397 87.6688C113.487 89.0112 114.068 91.0248 114.382 92.1882Z" fill="url(#paint3_linear_33_73211)"/>
<path fill-rule="evenodd" clip-rule="evenodd" d="M127.329 80.6578C127.708 81.2416 128.095 82.0843 128.534 83.2448C132.227 92.9872 138.952 104.079 143.711 110.086C144.354 110.82 144.822 111.449 145.116 112.002C145.411 112.556 145.555 113.08 145.481 113.583C145.404 114.096 145.114 114.497 144.729 114.827C144.352 115.15 143.851 115.435 143.286 115.718C143.286 115.718 143.285 115.718 143.284 115.719L135.771 119.565L135.77 119.565C134.499 120.212 133.441 120.654 132.379 120.603C131.299 120.55 130.315 119.995 129.154 118.931C128.991 118.816 128.84 118.665 128.726 118.55L128.71 118.535L128.708 118.532C122.651 112.385 116.524 101.974 113.907 92.3181C113.874 92.1968 113.838 92.0639 113.799 91.9229C113.482 90.7599 113.001 88.9961 112.909 87.7444C112.86 87.5281 112.86 87.3585 112.86 87.2294L112.86 87.2225C112.86 86.3556 113.098 85.7044 113.652 85.1641C114.166 84.6636 114.927 84.2863 115.877 83.8665L123.03 80.4687L123.031 80.4681C123.246 80.3668 123.462 80.2587 123.671 80.154C123.993 79.993 124.299 79.8397 124.563 79.7302C125.017 79.5416 125.513 79.4038 126.023 79.5437C126.538 79.685 126.951 80.0756 127.329 80.6578ZM123.452 81.3582C123.723 81.2302 123.957 81.1128 124.167 81.0069C124.454 80.8629 124.698 80.7398 124.94 80.6394C125.342 80.4728 125.579 80.4428 125.763 80.4931C125.941 80.5419 126.182 80.6995 126.503 81.194C126.823 81.6869 127.181 82.4494 127.614 83.5934C131.347 93.4446 138.131 104.63 142.947 110.707L142.954 110.716L142.962 110.726C143.59 111.441 144.003 112.007 144.247 112.464C144.49 112.922 144.538 113.226 144.507 113.439C144.477 113.641 144.362 113.845 144.088 114.08C143.807 114.321 143.397 114.562 142.844 114.838L142.84 114.84L135.323 118.688C135.323 118.688 135.324 118.688 135.323 118.688C134.044 119.339 133.199 119.657 132.427 119.619C131.681 119.583 130.904 119.205 129.795 118.183L129.766 118.157L129.734 118.135C129.649 118.078 129.551 117.984 129.408 117.84C123.473 111.816 117.43 101.556 114.857 92.0609C114.823 91.9357 114.787 91.8021 114.749 91.6619C114.423 90.4658 113.965 88.7832 113.888 87.6372L113.885 87.5933L113.875 87.5506C113.846 87.4345 113.845 87.3523 113.845 87.2225C113.845 86.5681 114.01 86.1901 114.339 85.869C114.708 85.5093 115.309 85.1936 116.281 84.7642L123.452 81.3582C123.452 81.3581 123.452 81.3583 123.452 81.3582Z" fill="#333333"/>
<path fill-rule="evenodd" clip-rule="evenodd" d="M21.9261 85.3538C18.2122 95.1532 11.5002 106.25 6.66766 112.336C4.11713 115.244 4.69883 116.05 6.93614 117.213L14.4535 121.061C17.1383 122.448 18.3911 122.627 20.9417 120.121C25.7743 115.119 35.6184 98.8758 36.6476 89.1572C36.6476 87.6358 35.8421 87.0989 33.9181 86.2487L26.7587 82.848C24.3871 81.6846 23.6712 80.7449 21.9261 85.3538Z" fill="#D9F4FF"/>
<path fill-rule="evenodd" clip-rule="evenodd" d="M26.9725 82.4048L34.123 85.8012C35.0726 86.221 35.8342 86.5983 36.3477 87.0988C36.9021 87.6391 37.1396 88.2903 37.1396 89.1572V89.1832L37.1369 89.2091C36.6116 94.1692 33.8531 100.731 30.6536 106.642C27.4508 112.56 23.7567 117.916 21.2955 120.464L21.2866 120.473C19.9925 121.744 18.9384 122.429 17.7959 122.541C16.6679 122.652 15.5647 122.189 14.2284 121.499C14.2281 121.499 14.2277 121.499 14.2274 121.499L6.71168 117.651L6.70889 117.65C6.14512 117.357 5.64537 117.066 5.26967 116.742C4.88712 116.411 4.59596 116.013 4.5195 115.502C4.44449 115 4.59003 114.48 4.8849 113.929C5.17892 113.38 5.64653 112.754 6.28945 112.02C11.0927 105.969 17.7732 94.9223 21.4657 85.1794C21.905 84.0191 22.2916 83.1742 22.6701 82.5875C23.0472 82.003 23.4588 81.6079 23.9736 81.4626C24.4853 81.3182 24.9823 81.4551 25.4389 81.6468C25.7216 81.7655 26.0449 81.932 26.3855 82.1073C26.5771 82.2059 26.7741 82.3074 26.9725 82.4048ZM23.4973 83.1211C23.1767 83.6181 22.8194 84.384 22.3862 85.5281C18.6528 95.379 11.9143 106.52 7.05294 112.642L7.04548 112.651L7.03756 112.66C6.40933 113.377 5.99585 113.94 5.75273 114.394C5.50925 114.848 5.46183 115.147 5.49308 115.356C5.5229 115.555 5.63725 115.758 5.91331 115.997C6.19592 116.241 6.60732 116.487 7.16133 116.775C7.16191 116.776 7.16248 116.776 7.16305 116.776L14.6776 120.623L14.6793 120.624C16.0273 121.32 16.8926 121.641 17.6996 121.561C18.4914 121.484 19.338 121.006 20.5919 119.775C22.9634 117.318 26.6051 112.054 29.7879 106.173C32.97 100.294 35.6441 93.8876 36.1551 89.1318C36.1509 88.493 35.9857 88.1206 35.6606 87.8038C35.2915 87.444 34.6906 87.1283 33.719 86.6989L33.7066 86.6935L26.5417 83.29C26.2946 83.1687 26.0774 83.0566 25.8798 82.9546C25.5708 82.795 25.3098 82.6603 25.0578 82.5544C24.6586 82.3868 24.4228 82.3587 24.241 82.41C24.0622 82.4605 23.8194 82.6219 23.4973 83.1211Z" fill="#333333"/>
<path fill-rule="evenodd" clip-rule="evenodd" d="M77.3672 146.566L68.0146 139.183C67.6331 138.694 68.5562 138.302 68.9992 138.69L78.2231 145.95L77.3672 146.566Z" fill="#333333"/>
<path fill-rule="evenodd" clip-rule="evenodd" d="M87.2945 142.144L76.7147 133.93C76.3535 133.426 76.9399 132.871 77.3666 133.277L88.175 141.564L87.2945 142.144Z" fill="#333333"/>
<path fill-rule="evenodd" clip-rule="evenodd" d="M97.6896 136.968L86.0425 127.507C85.7002 126.99 86.3068 126.457 86.7181 126.879L98.591 136.422L97.6896 136.968Z" fill="#333333"/>
<path fill-rule="evenodd" clip-rule="evenodd" d="M60.4766 131.6L59.9844 131.242C58.0156 129.81 55.0176 130.079 53.3172 131.869L50.4535 134.822C48.7531 136.612 48.9768 139.207 50.9457 140.639L51.4379 140.997C53.4067 142.429 56.4047 142.16 58.1051 140.37L60.9688 137.417C62.6692 135.627 62.4454 132.987 60.4766 131.6Z" fill="#FEFEFE"/>
<path fill-rule="evenodd" clip-rule="evenodd" d="M52.9621 131.528C54.8321 129.561 58.1051 129.267 60.2738 130.844L59.9843 131.242L60.2738 130.844L60.7631 131.2C62.9862 132.769 63.2221 135.76 61.3256 137.756L61.3221 137.76L61.3221 137.76L58.4601 140.711C56.59 142.678 53.3171 142.972 51.1483 141.395L50.6561 141.037C48.4418 139.426 48.1957 136.484 50.0966 134.483L50.1 134.479L50.1 134.479L52.9621 131.528ZM59.6948 131.64C57.9266 130.354 55.205 130.596 53.674 132.208L53.6705 132.211L53.6705 132.211L50.8086 135.163C49.3106 136.741 49.5124 138.988 51.2351 140.241L51.7273 140.599L51.4891 140.926L51.7273 140.599C53.4955 141.885 56.2172 141.643 57.7481 140.031L57.7516 140.028L57.7516 140.028L60.6136 137.076C62.1151 135.494 61.9041 133.208 60.193 132.002L60.187 131.998L60.187 131.998L59.6948 131.64Z" fill="#333333"/>
<path fill-rule="evenodd" clip-rule="evenodd" d="M52.5626 127.457L52.1152 127.144C50.3253 125.936 47.551 126.204 45.9402 127.725L43.5239 130.142C41.913 131.663 42.092 133.9 43.8819 135.108L44.3293 135.422C46.1192 136.63 48.8934 136.361 50.5043 134.795L52.9653 132.424C54.5314 130.902 54.3525 128.665 52.5626 127.457Z" fill="#FEFEFE"/>
<path fill-rule="evenodd" clip-rule="evenodd" d="M45.6023 127.368C47.3725 125.696 50.4006 125.393 52.3906 126.736L52.3975 126.741L52.8416 127.051C53.849 127.733 54.4276 128.724 54.5131 129.783C54.5987 130.843 54.1873 131.923 53.3083 132.777L53.3069 132.778L50.8474 135.148C50.8472 135.149 50.8469 135.149 50.8467 135.149C49.0753 136.871 46.0443 137.173 44.054 135.83L44.0471 135.825L43.603 135.514C42.5958 134.833 42.0159 133.841 41.9368 132.779C41.8578 131.719 42.2819 130.64 43.1807 129.789L45.5972 127.373L45.6023 127.368ZM46.2832 128.079L43.867 130.495L43.8619 130.5C43.1535 131.169 42.8635 131.968 42.9185 132.706C42.9735 133.444 43.3768 134.174 44.1573 134.701L44.1642 134.705L44.6081 135.016C46.1974 136.086 48.7119 135.852 50.1612 134.442L50.1628 134.441L52.6224 132.071C52.6222 132.071 52.6226 132.071 52.6224 132.071C53.3092 131.403 53.5917 130.604 53.5319 129.863C53.4721 129.122 53.0675 128.392 52.2873 127.865L52.2804 127.86L51.8365 127.55C50.2483 126.48 47.7344 126.713 46.2832 128.079Z" fill="#333333"/>
<path fill-rule="evenodd" clip-rule="evenodd" d="M43.1627 125.428L42.76 125.16C41.1044 123.996 38.5986 124.22 37.1667 125.696L36.4955 126.368C35.0636 127.8 35.2426 129.947 36.8982 131.111L37.3009 131.379C38.9566 132.543 41.4623 132.319 42.8942 130.842L43.5654 130.171C44.9973 128.694 44.8183 126.547 43.1627 125.428Z" fill="#FEFEFE"/>
<path fill-rule="evenodd" clip-rule="evenodd" d="M43.0379 124.753L43.4383 125.02C45.3637 126.321 45.5502 128.831 43.9188 130.514L43.9135 130.519L43.2449 131.188C41.6453 132.834 38.8753 133.083 37.0231 131.786L36.6152 131.514C34.7076 130.173 34.5011 127.666 36.1475 126.02L36.8161 125.351C38.4157 123.704 41.1857 123.456 43.0379 124.753ZM42.477 125.562C41.0191 124.538 38.7832 124.737 37.5201 126.039L37.5148 126.045L36.8436 126.716C35.6277 127.932 35.7773 129.718 37.1765 130.705L37.5841 130.976C39.042 132.001 41.2778 131.802 42.5409 130.5L42.5462 130.494L43.2146 129.826C44.4438 128.556 44.2721 126.773 42.8884 125.837L42.477 125.562Z" fill="#333333"/>
<path fill-rule="evenodd" clip-rule="evenodd" d="M63.9402 140.181L63.5375 139.912C61.8819 138.749 59.3313 139.017 57.8547 140.449L57.1835 141.12C55.7516 142.597 55.8859 144.7 57.5862 145.864L57.9889 146.132C59.6446 147.295 62.1951 147.027 63.6717 145.595L64.3429 144.924C65.7748 143.492 65.5958 141.344 63.9402 140.181Z" fill="#FEFEFE"/>
<path fill-rule="evenodd" clip-rule="evenodd" d="M63.8152 139.505L64.2231 139.777C66.1306 141.117 66.3372 143.624 64.6907 145.271L64.0142 145.947C62.381 147.531 59.5728 147.841 57.7109 146.537L57.3081 146.269C56.3436 145.609 55.7989 144.661 55.7194 143.647C55.6401 142.636 56.0261 141.606 56.83 140.777L56.8352 140.771L57.5118 140.095C59.145 138.511 61.9532 138.201 63.8152 139.505ZM58.1998 140.799L57.5341 141.465C56.908 142.112 56.6459 142.87 56.7008 143.57C56.7554 144.266 57.1273 144.951 57.8616 145.455L58.2718 145.728C59.7202 146.746 62.0072 146.52 63.3262 145.243L63.9947 144.575C65.2106 143.359 65.061 141.573 63.6618 140.586L63.2542 140.314C61.8058 139.296 59.5188 139.523 58.1998 140.799Z" fill="#333333"/>
<path fill-rule="evenodd" clip-rule="evenodd" d="M16.9144 112.658C18.5724 112.658 19.8677 114.005 19.8677 115.611C19.8677 117.269 18.5206 118.564 16.9144 118.564C15.2565 118.564 13.9612 117.217 13.9612 115.611C13.9612 114.005 15.2565 112.658 16.9144 112.658Z" fill="#333333"/>
<path fill-rule="evenodd" clip-rule="evenodd" d="M134.04 107.594C135.471 107.594 136.59 108.758 136.59 110.145C136.59 111.577 135.427 112.696 134.04 112.696C132.608 112.696 131.489 111.532 131.489 110.145C131.489 108.758 132.608 107.594 134.04 107.594Z" fill="#333333"/>
<defs>
<linearGradient id="paint0_linear_33_73211" x1="90.5" y1="6.07043" x2="101.508" y2="16.9882" gradientUnits="userSpaceOnUse">
<stop stop-color="#FFC671"/>
<stop offset="0.59375" stop-color="#FF7541"/>
<stop offset="1" stop-color="#FF6F3D"/>
</linearGradient>
<linearGradient id="paint1_linear_33_73211" x1="33.1246" y1="53.5388" x2="73.0577" y2="116.775" gradientUnits="userSpaceOnUse">
<stop stop-color="#FFC671"/>
<stop offset="0.652615" stop-color="#FF8657"/>
</linearGradient>
<linearGradient id="paint2_linear_33_73211" x1="59" y1="15.5569" x2="59" y2="19.5569" gradientUnits="userSpaceOnUse">
<stop stop-color="#FF8E3D"/>
<stop offset="1" stop-color="#FF6F3D"/>
</linearGradient>
<linearGradient id="paint3_linear_33_73211" x1="113.353" y1="78.4098" x2="152.735" y2="110.684" gradientUnits="userSpaceOnUse">
<stop stop-color="#FF8E3D"/>
<stop offset="1" stop-color="#FF6F3D"/>
</linearGradient>
</defs>
</svg>
