
<svg width="170" height="51" viewBox="0 0 170 51" fill="none" xmlns="http://www.w3.org/2000/svg">
<path fill-rule="evenodd" clip-rule="evenodd" d="M117.417 21.2076V34.562C117.417 36.4995 118.301 37.4682 120.071 37.572C120.377 37.572 120.717 37.5374 121.058 37.4682C121.398 37.399 121.704 37.3298 121.942 37.226L121.636 35.3578C121.33 35.427 121.126 35.4616 120.956 35.4616C120.581 35.4616 120.343 35.3578 120.173 35.1502C120.003 34.9426 119.935 34.5966 119.935 34.1123V21L117.417 21.2076ZM92.2013 33.8699C92.7798 35.0462 93.6305 35.9112 94.7194 36.5339C95.8424 37.1567 97.1355 37.468 98.7008 37.468C99.6196 37.468 100.538 37.3642 101.491 37.1566C102.444 36.9491 103.329 36.6377 104.179 36.2225V29.8221H98.2584V31.8287H101.695V34.9078C101.253 35.0808 100.811 35.2192 100.3 35.2884C99.7897 35.3922 99.3133 35.4268 98.8029 35.4268C97.714 35.4268 96.7952 35.1846 96.0806 34.7003C95.366 34.1813 94.8555 33.524 94.5152 32.6936C94.175 31.8633 94.0048 30.8946 94.0048 29.8221C94.0048 28.6112 94.209 27.5387 94.6514 26.6737C95.0597 25.8088 95.6722 25.1515 96.4549 24.7017C97.2376 24.2519 98.1563 24.0098 99.1772 24.0098C100.402 24.0098 101.695 24.3211 103.057 24.9785L103.703 22.9718C103.022 22.6259 102.308 22.3837 101.525 22.1761C100.743 22.0031 99.9258 21.8993 99.0751 21.8993C97.6119 21.8993 96.2847 22.2107 95.1278 22.7989C93.9368 23.387 93.018 24.2865 92.3374 25.4628C91.6568 26.6391 91.3165 28.0922 91.3165 29.7875C91.3165 31.3443 91.6228 32.7282 92.2013 33.8699ZM57.0835 33.2125H63.0726L64.5698 37.2603H67.3262L61.3371 22.0722H58.853L53 37.2603H55.6202L57.0835 33.2125ZM62.2899 31.1367H57.8321L59.4315 26.7428L60.044 24.7708C60.2482 25.4973 60.4864 26.1893 60.6905 26.7774L62.2899 31.1367ZM68.3202 26.1618V26.1619V26.1619V26.1619V26.162V26.162V26.162V26.162V26.162C68.3516 27.0839 68.3809 27.944 68.3809 28.7147H68.3469V41.9654L70.8991 41.7578V37.018C71.6477 37.2602 72.3963 37.3985 73.145 37.3985C74.1999 37.3985 75.1186 37.1564 75.9013 36.672C76.718 36.2222 77.3305 35.4957 77.7729 34.5616C78.2153 33.6275 78.4535 32.4858 78.4535 31.1711C78.4535 29.9256 78.2493 28.8877 77.875 28.0573C77.5007 27.227 76.9902 26.6388 76.3437 26.2583C75.6971 25.8777 75.0166 25.7047 74.2679 25.7047C72.9748 25.7047 71.8519 26.2583 70.865 27.3654C70.831 26.881 70.797 26.4313 70.6949 25.9469H68.3129L68.3202 26.1618ZM75.8673 31.3786C75.8673 32.7625 75.595 33.8004 75.0846 34.4924C74.5402 35.2189 73.7915 35.5649 72.8387 35.5649C72.5324 35.5649 72.1922 35.5303 71.8519 35.4611C71.5116 35.3919 71.2053 35.2881 70.9671 35.1497V29.0952C71.3414 28.6801 71.7498 28.3687 72.1581 28.1265C72.5665 27.8843 73.0089 27.7805 73.5193 27.7805C74.2339 27.7805 74.7784 28.0919 75.2207 28.6455C75.6631 29.199 75.8673 30.0986 75.8673 31.3786ZM79.9849 28.7147C79.9849 27.9439 79.9556 27.0837 79.9242 26.1618L79.9169 25.9469H82.2989C82.401 26.4313 82.435 26.881 82.469 27.3654C83.4559 26.2583 84.5788 25.7047 85.8719 25.7047C86.6206 25.7047 87.3012 25.8777 87.9477 26.2583C88.5943 26.6388 89.1047 27.227 89.479 28.0573C89.8533 28.8877 90.0575 29.9256 90.0575 31.1711C90.0575 32.4858 89.8193 33.6275 89.3769 34.5616C88.9345 35.4957 88.322 36.2222 87.5053 36.672C86.7227 37.1564 85.8039 37.3985 84.749 37.3985C84.0003 37.3985 83.2517 37.2602 82.5031 37.018V41.7578L79.9509 41.9654V28.7147H79.9849ZM86.6886 34.4924C87.1991 33.8004 87.4713 32.7625 87.4713 31.3786C87.4713 30.0986 87.2671 29.199 86.8247 28.6455C86.3824 28.0919 85.8379 27.7805 85.1233 27.7805C84.6129 27.7805 84.1705 27.8843 83.7621 28.1265C83.3538 28.3687 82.9454 28.6801 82.5711 29.0952V35.1497C82.8093 35.2881 83.1156 35.3919 83.4559 35.4611C83.7962 35.5303 84.1365 35.5649 84.4427 35.5649C85.3955 35.5649 86.1782 35.2189 86.6886 34.4924ZM113.129 37.2601C113.027 36.8103 112.993 36.3259 112.959 35.7724C112.551 36.2567 112.074 36.6373 111.428 36.9833C110.815 37.3293 110.101 37.4676 109.284 37.4676C108.637 37.4676 108.059 37.3293 107.548 37.0871C107.038 36.8449 106.596 36.4643 106.289 35.9454C105.983 35.4264 105.813 34.8037 105.813 34.0771C105.813 32.97 106.187 32.1051 106.97 31.4477C107.753 30.7904 109.046 30.479 110.849 30.479C111.53 30.479 112.21 30.5136 112.857 30.6174V30.4098C112.857 29.4065 112.653 28.7146 112.244 28.2994C111.836 27.8842 111.224 27.6767 110.441 27.6767C109.896 27.6767 109.318 27.7459 108.705 27.9188C108.093 28.0918 107.548 28.2648 107.072 28.507L106.664 26.6388C107.106 26.4312 107.719 26.2236 108.467 26.0506C109.216 25.8776 109.999 25.7738 110.815 25.7738C111.768 25.7738 112.585 25.9122 113.265 26.2236C113.946 26.535 114.456 27.0193 114.831 27.7459C115.205 28.4724 115.409 29.4411 115.409 30.652V35.1496C115.409 35.5042 115.427 35.97 115.45 36.5607C115.459 36.7769 115.468 37.0098 115.477 37.2601H113.129ZM111.632 35.1496C112.176 34.9075 112.585 34.5615 112.925 34.1809V32.0705C112.244 32.0013 111.666 31.9667 111.224 31.9667C110.169 31.9667 109.454 32.1397 109.046 32.4857C108.637 32.8316 108.433 33.2814 108.433 33.8695C108.433 34.4231 108.569 34.8383 108.876 35.115C109.182 35.3918 109.556 35.5302 110.067 35.5302C110.577 35.5648 111.087 35.4264 111.632 35.1496ZM123.746 34.562V21.2076L126.264 21V34.1123C126.264 34.5966 126.332 34.9426 126.502 35.1502C126.672 35.3578 126.911 35.4616 127.285 35.4616C127.455 35.4616 127.659 35.427 127.965 35.3578L128.272 37.226C128.034 37.3298 127.727 37.399 127.387 37.4682C127.047 37.5374 126.706 37.572 126.4 37.572C124.631 37.4682 123.746 36.4995 123.746 34.562ZM131.403 31.9322H138.651V31.2403C138.651 30.2369 138.481 29.3028 138.14 28.4725C137.8 27.6422 137.29 26.9502 136.575 26.4659C135.894 25.9469 135.01 25.7047 133.955 25.7047C132.934 25.7047 132.049 25.9469 131.266 26.4313C130.484 26.9156 129.905 27.6076 129.463 28.5071C129.021 29.4066 128.816 30.4791 128.816 31.7246C128.816 32.9355 129.021 33.9388 129.429 34.8038C129.837 35.6687 130.45 36.326 131.266 36.7758C132.083 37.2256 133.07 37.4677 134.261 37.4677C135.792 37.4677 137.188 37.1564 138.447 36.5336L137.902 34.7692C137.392 34.9767 136.881 35.1497 136.337 35.2881C135.792 35.4265 135.248 35.4957 134.737 35.4957C132.628 35.4957 131.505 34.2848 131.403 31.9322ZM136.199 30.2715C136.161 29.3889 135.923 28.7089 135.52 28.2649C135.112 27.8151 134.601 27.573 133.921 27.573C133.274 27.573 132.73 27.8151 132.321 28.2649C131.879 28.7147 131.607 29.4066 131.471 30.2715H136.199ZM140.591 28.7838C140.591 28.3382 140.573 27.7331 140.551 26.956L140.551 26.9529C140.542 26.6448 140.532 26.3097 140.523 25.9468H142.905C142.939 26.2582 142.973 26.6387 143.007 27.0885C143.014 27.1898 143.022 27.2859 143.029 27.3771C143.054 27.6906 143.075 27.9466 143.075 28.161C143.381 27.6767 143.653 27.2615 143.959 26.9155C144.232 26.5696 144.572 26.2928 144.946 26.0852C145.321 25.8776 145.763 25.7738 146.239 25.7738C146.648 25.7738 146.954 25.8084 147.26 25.9122L146.954 28.161C146.716 28.0918 146.444 28.0572 146.137 28.0572C145.525 28.0572 145.014 28.1956 144.572 28.507C144.13 28.8184 143.653 29.3373 143.143 30.0293V37.2947H140.625V28.7838H140.591ZM147.77 41.654C148.009 41.7578 148.315 41.827 148.689 41.8962C149.063 41.9654 149.472 42 149.88 42C150.765 42 151.48 41.827 152.092 41.5156C152.671 41.1697 153.215 40.6853 153.657 40.028C154.1 39.3706 154.542 38.4711 154.916 37.3986L159 25.947H156.448L154.372 32.382C154.1 33.2123 153.896 34.0081 153.691 34.8384C153.589 34.2849 153.385 33.4199 153.045 32.3474L150.969 25.9815H148.247L152.33 37.364L152.16 37.7792C151.616 39.2668 150.765 39.9934 149.642 39.9934C149.431 39.9934 149.219 39.9661 148.984 39.9358C148.954 39.932 148.924 39.9281 148.893 39.9242C148.712 39.9011 148.561 39.8627 148.43 39.8294C148.364 39.8127 148.303 39.7973 148.247 39.7858L147.77 41.654Z" fill="white"/>
<path d="M60.2128 13.1861C60.2128 13.9623 60.0649 14.6406 59.7693 15.2209C59.4736 15.7976 59.0548 16.2383 58.5127 16.543C57.9707 16.8477 57.3383 17 56.6156 17C55.9093 17 55.2831 16.8477 54.737 16.543C54.1908 16.2347 53.7658 15.7976 53.462 15.2318C53.1622 14.6623 53.0082 14.004 53 13.2568V12.6855C53 11.9238 53.1499 11.251 53.4496 10.667C53.7494 10.0831 54.1724 9.63692 54.7185 9.32862C55.2687 9.01668 55.897 8.86072 56.6033 8.86072C57.3219 8.86072 57.9543 9.01487 58.5004 9.32318C59.0507 9.62786 59.4736 10.0722 59.7693 10.6561C60.0649 11.2365 60.2128 11.9129 60.2128 12.6855V13.1861ZM59.0363 12.6746C59.0363 11.7352 58.8228 11.0152 58.3957 10.5147C57.9686 10.0105 57.3712 9.75843 56.6033 9.75843C55.8559 9.75843 55.2667 10.0105 54.8355 10.5147C54.4085 11.0152 54.1888 11.7116 54.1765 12.6039V13.1861C54.1765 14.0965 54.392 14.8128 54.8232 15.3351C55.2585 15.8538 55.8559 16.1132 56.6156 16.1132C57.3794 16.1132 57.9707 15.8683 58.3895 15.3787C58.8084 14.8854 59.024 14.1799 59.0363 13.2622V12.6746Z" fill="white"/>
<path d="M68.0107 9.82916H65.128V16.8912H63.9516V9.82916H61.0751V8.96953H68.0107V9.82916Z" fill="white"/>
<path d="M71.6694 13.333H70.5792V16.8912H69.3965V8.96953H70.5792V12.4625H71.5031L74.6383 8.96953H76.1104L72.6857 12.8107L76.3629 16.8912H74.9154L71.6694 13.333Z" fill="white"/>
<path d="M78.6296 13.79V16.8912H77.447V8.96953H80.7546C81.736 8.96953 82.5039 9.19079 83.0583 9.6333C83.6167 10.0758 83.896 10.6616 83.896 11.3906C83.896 12.1596 83.6229 12.7526 83.0767 13.1697C82.5347 13.5832 81.7566 13.79 80.7423 13.79H78.6296ZM78.6296 12.9358H80.7546C81.387 12.9358 81.8715 12.8052 82.2083 12.5441C82.545 12.2793 82.7133 11.8984 82.7133 11.4015C82.7133 10.93 82.545 10.5528 82.2083 10.2699C81.8715 9.98694 81.4096 9.84004 80.8224 9.82916H78.6296V12.9358Z" fill="white"/>
<path d="M92.3036 13.1861C92.3036 13.9623 92.1558 14.6406 91.8602 15.2209C91.5645 15.7976 91.1457 16.2383 90.6036 16.543C90.0616 16.8477 89.4292 17 88.7065 17C88.0002 17 87.374 16.8477 86.8279 16.543C86.2817 16.2347 85.8567 15.7976 85.5529 15.2318C85.2531 14.6623 85.0991 14.004 85.0909 13.2568V12.6855C85.0909 11.9238 85.2408 11.251 85.5405 10.667C85.8403 10.0831 86.2632 9.63692 86.8094 9.32862C87.3596 9.01668 87.9879 8.86072 88.6942 8.86072C89.4128 8.86072 90.0452 9.01487 90.5913 9.32318C91.1416 9.62786 91.5645 10.0722 91.8602 10.6561C92.1558 11.2365 92.3036 11.9129 92.3036 12.6855V13.1861ZM91.1272 12.6746C91.1272 11.7352 90.9137 11.0152 90.4866 10.5147C90.0595 10.0105 89.4621 9.75843 88.6942 9.75843C87.9468 9.75843 87.3576 10.0105 86.9264 10.5147C86.4994 11.0152 86.2797 11.7116 86.2674 12.6039V13.1861C86.2674 14.0965 86.4829 14.8128 86.9141 15.3351C87.3494 15.8538 87.9468 16.1132 88.7065 16.1132C89.4703 16.1132 90.0616 15.8683 90.4804 15.3787C90.8993 14.8854 91.1149 14.1799 91.1272 13.2622V12.6746Z" fill="white"/>
<path d="M99.732 8.96953H100.915V16.8912H99.732V10.7867L95.3156 16.8912H94.1269V8.96953H95.3156V15.074L99.732 8.96953ZM99.3994 7C99.3994 7.43888 99.229 7.79253 98.8881 8.06094C98.5514 8.32572 98.1079 8.45811 97.5577 8.45811C97.0074 8.45811 96.5619 8.3239 96.2211 8.0555C95.8803 7.78709 95.7098 7.43526 95.7098 7H96.6399C96.6399 7.2539 96.7179 7.45339 96.874 7.59848C97.03 7.73993 97.2579 7.81066 97.5577 7.81066C97.8451 7.81066 98.0689 7.73993 98.2291 7.59848C98.3933 7.45702 98.4754 7.25753 98.4754 7H99.3994Z" fill="white"/>
<path d="M109.267 9.82916H106.384V16.8912H105.208V9.82916H102.331V8.96953H109.267V9.82916Z" fill="white"/>
<path d="M115.667 13.2296H111.78V16.037H116.295V16.8912H110.597V8.96953H116.233V9.82916H111.78V12.3754H115.667V13.2296Z" fill="white"/>
<path d="M120.896 16.8912V8.96953H123.828C124.801 8.96953 125.532 9.14726 126.021 9.50272C126.513 9.85818 126.76 10.3841 126.76 11.0805C126.76 11.4505 126.641 11.7787 126.403 12.0653C126.164 12.3482 125.84 12.5676 125.429 12.7236C125.914 12.8433 126.296 13.0718 126.575 13.4091C126.858 13.7428 127 14.1418 127 14.6061C127 15.317 126.739 15.8756 126.218 16.2818C125.696 16.6881 124.959 16.8912 124.006 16.8912H120.896ZM122.079 13.1861V16.037H124.031C124.581 16.037 125.015 15.9119 125.331 15.6616C125.651 15.4077 125.811 15.0595 125.811 14.617C125.811 13.663 125.224 13.1861 124.05 13.1861H122.079ZM122.079 12.3482H123.865C124.382 12.3482 124.795 12.234 125.103 12.0054C125.415 11.7769 125.571 11.4668 125.571 11.0751C125.571 10.6398 125.427 10.3243 125.14 10.1284C124.852 9.92891 124.415 9.82916 123.828 9.82916H122.079V12.3482Z" fill="white"/>
<path fill-rule="evenodd" clip-rule="evenodd" d="M59.8672 15.271C59.5621 15.866 59.1283 16.323 58.5667 16.6388C58.0057 16.9541 57.3541 17.1099 56.6156 17.1099C55.8931 17.1099 55.248 16.9539 54.6834 16.6389C54.1187 16.3201 53.6785 15.8674 53.3651 15.2837C53.056 14.6965 52.8984 14.0197 52.89 13.2579L52.89 13.2567L52.89 12.6854C52.89 11.9091 53.0429 11.2185 53.3518 10.6167C53.6609 10.0146 54.0986 9.55216 54.6644 9.23277C55.233 8.91043 55.8803 8.75061 56.6033 8.75061C57.3379 8.75061 57.9893 8.9083 58.5541 9.22706C59.1242 9.54284 59.5623 10.0037 59.8674 10.6063C60.1722 11.2047 60.3228 11.8988 60.3228 12.6854V13.186C60.3228 13.9762 60.1721 14.6725 59.8672 15.271ZM59.7693 10.656C59.4736 10.0721 59.0507 9.62775 58.5004 9.32307C57.9543 9.01476 57.3219 8.86061 56.6033 8.86061C55.897 8.86061 55.2688 9.01658 54.7185 9.32851C54.1724 9.63682 53.7494 10.083 53.4497 10.6669C53.1499 11.2509 53 11.9237 53 12.6854V13.2567C53.0082 14.0039 53.1622 14.6622 53.462 15.2317C53.7659 15.7975 54.1909 16.2346 54.737 16.5429C55.2831 16.8476 55.9093 16.9999 56.6156 16.9999C57.3383 16.9999 57.9707 16.8476 58.5128 16.5429C59.0548 16.2382 59.4736 15.7975 59.7693 15.2208C60.0649 14.6404 60.2128 13.9622 60.2128 13.186V12.6854C60.2128 11.9128 60.0649 11.2364 59.7693 10.656ZM58.3118 10.5857C57.9091 10.1103 57.3447 9.86833 56.6033 9.86833C55.8836 9.86833 55.3266 10.1096 54.9192 10.586C54.514 11.061 54.2987 11.7292 54.2865 12.6046V13.186C54.2865 14.0794 54.4979 14.768 54.9078 15.2647C55.3194 15.755 55.8842 16.0031 56.6156 16.0031C57.3537 16.0031 57.9118 15.7678 58.3058 15.3073C58.7022 14.8403 58.9141 14.1636 58.9263 13.2614V12.6745C58.9263 11.7503 58.7159 11.0593 58.3118 10.5857ZM59.0363 13.2621C59.024 14.1798 58.8084 14.8853 58.3896 15.3786C57.9707 15.8682 57.3794 16.1131 56.6156 16.1131C55.856 16.1131 55.2585 15.8537 54.8232 15.335C54.3921 14.8127 54.1765 14.0964 54.1765 13.186V12.6038C54.1888 11.7115 54.4085 11.0151 54.8355 10.5146C55.2667 10.0104 55.856 9.75833 56.6033 9.75833C57.3712 9.75833 57.9687 10.0104 58.3957 10.5146C58.8228 11.0151 59.0363 11.7351 59.0363 12.6745V13.2621ZM68.1207 9.93905H65.238V17.0011H63.8416V9.93905H60.9651V8.85942H68.1207V9.93905ZM63.9516 9.82905V16.8911H65.128V9.82905H68.0107V8.96942H61.0751V9.82905H63.9516ZM74.9155 16.8911L71.6694 13.3329H70.5792V16.8911H69.3966V8.96942H70.5792V12.4624H71.5031L74.6383 8.96942H76.1104L72.6857 12.8106L76.3629 16.8911H74.9155ZM72.8334 12.8102L76.6101 17.0011H74.8669L71.6209 13.4429H70.6892V17.0011H69.2866V8.85942H70.6892V12.3524H71.454L74.5892 8.85942H76.3558L72.8334 12.8102ZM78.7396 17.0011H77.337V8.85942H80.7546C81.7515 8.85942 82.5466 9.0841 83.1268 9.5471C83.7121 10.011 84.006 10.6289 84.006 11.3905C84.006 12.1891 83.7204 12.8165 83.1435 13.2571C82.575 13.6908 81.7695 13.8999 80.7423 13.8999H78.7396V17.0011ZM78.6296 13.7899H80.7423C81.7566 13.7899 82.5347 13.5831 83.0768 13.1696C83.6229 12.7525 83.896 12.1595 83.896 11.3905C83.896 10.6615 83.6167 10.0757 83.0583 9.63319C82.5039 9.19068 81.7361 8.96942 80.7546 8.96942H77.447V16.8911H78.6296V13.7899ZM91.9581 15.271C91.653 15.866 91.2192 16.323 90.6576 16.6388C90.0966 16.9541 89.445 17.1099 88.7065 17.1099C87.984 17.1099 87.3388 16.9539 86.7743 16.6389C86.2096 16.3201 85.7694 15.8674 85.456 15.2837C85.1469 14.6965 84.9893 14.0197 84.9809 13.2579L84.9809 13.2567L84.9809 12.6854C84.9809 11.9091 85.1338 11.2185 85.4427 10.6167C85.7518 10.0145 86.1896 9.55211 86.7553 9.23272C87.3239 8.91042 87.9712 8.75061 88.6942 8.75061C89.4288 8.75061 90.0802 8.9083 90.645 9.22706C91.2152 9.54285 91.6532 10.0037 91.9583 10.6064C92.2631 11.2047 92.4137 11.8988 92.4137 12.6854V13.186C92.4137 13.9762 92.263 14.6725 91.9581 15.271ZM91.8602 10.656C91.5645 10.0721 91.1416 9.62775 90.5913 9.32307C90.0452 9.01476 89.4128 8.86061 88.6942 8.86061C87.9879 8.86061 87.3597 9.01658 86.8094 9.32851C86.2633 9.63682 85.8403 10.083 85.5406 10.6669C85.2408 11.2509 85.0909 11.9237 85.0909 12.6854V13.2567C85.0991 14.0039 85.2531 14.6622 85.5529 15.2317C85.8567 15.7975 86.2817 16.2346 86.8279 16.5429C87.374 16.8476 88.0002 16.9999 88.7065 16.9999C89.4292 16.9999 90.0616 16.8476 90.6037 16.5429C91.1457 16.2382 91.5645 15.7975 91.8602 15.2208C92.1558 14.6404 92.3037 13.9622 92.3037 13.186V12.6854C92.3037 11.9128 92.1558 11.2364 91.8602 10.656ZM90.4027 10.5857C90 10.1103 89.4356 9.86833 88.6942 9.86833C87.9745 9.86833 87.4176 10.1096 87.0101 10.586C86.6049 11.0609 86.3896 11.7291 86.3774 12.6045V13.186C86.3774 14.0794 86.5888 14.7679 86.9986 15.2646C87.4103 15.755 87.9751 16.0031 88.7065 16.0031C89.4446 16.0031 90.0026 15.7678 90.3966 15.3074C90.7931 14.8405 91.005 14.1637 91.0172 13.2615V12.6745C91.0172 11.7503 90.8068 11.0593 90.4027 10.5857ZM91.1272 13.2621C91.1149 14.1798 90.8993 14.8853 90.4805 15.3786C90.0616 15.8682 89.4703 16.1131 88.7065 16.1131C87.9469 16.1131 87.3494 15.8537 86.9141 15.335C86.483 14.8127 86.2674 14.0964 86.2674 13.186V12.6038C86.2797 11.7115 86.4994 11.0151 86.9264 10.5146C87.3576 10.0104 87.9469 9.75833 88.6942 9.75833C89.4621 9.75833 90.0596 10.0104 90.4866 10.5146C90.9137 11.0151 91.1272 11.7351 91.1272 12.6745V13.2621ZM99.6758 8.85942H101.025V17.0011H99.622V11.1263L95.3718 17.0011H94.0169V8.85942H95.4257V14.7342L99.6758 8.85942ZM95.3157 15.0739V8.96942H94.1269V16.8911H95.3157L99.732 10.7866V16.8911H100.915V8.96942H99.732L95.3157 15.0739ZM99.5094 6.88989V6.99989C99.5094 7.47203 99.3239 7.8577 98.9562 8.14725C98.5952 8.43115 98.1255 8.568 97.5577 8.568C96.9895 8.568 96.518 8.42919 96.153 8.14181C95.7856 7.85246 95.5999 7.46873 95.5999 6.99989V6.88989H96.7499V6.99989C96.7499 7.22929 96.8193 7.39707 96.9484 7.51735C97.0771 7.63369 97.2741 7.70056 97.5577 7.70056C97.8277 7.70056 98.0223 7.63428 98.1563 7.51593L98.1573 7.51501C98.2927 7.39842 98.3655 7.23202 98.3655 6.99989V6.88989H99.5094ZM96.874 7.59837C96.718 7.45328 96.6399 7.25379 96.6399 6.99989H95.7099C95.7099 7.03717 95.7111 7.07384 95.7136 7.10989C95.7403 7.4948 95.9095 7.80997 96.2211 8.05539C96.5619 8.3238 97.0075 8.458 97.5577 8.458C98.108 8.458 98.5514 8.32561 98.8882 8.06083C99.2 7.81522 99.3692 7.49824 99.3957 7.10989C99.3982 7.07384 99.3994 7.03717 99.3994 6.99989H98.4755C98.4755 7.25742 98.3933 7.45691 98.2291 7.59837C98.0689 7.73983 97.8451 7.81056 97.5577 7.81056C97.2579 7.81056 97.03 7.73983 96.874 7.59837ZM109.377 9.93905H106.494V17.0011H105.098V9.93905H102.221V8.85942H109.377V9.93905ZM105.208 9.82905V16.8911H106.384V9.82905H109.267V8.96942H102.331V9.82905H105.208ZM115.777 13.3395H111.89V15.9269H116.405V17.0011H110.487V8.85942H116.343V9.93905H111.89V12.2653H115.777V13.3395ZM111.78 12.3753V9.82905H116.233V8.96942H110.597V16.8911H116.295V16.0369H111.78V13.2295H115.667V12.3753H111.78ZM120.786 17.0011V8.85942H123.828C124.811 8.85942 125.569 9.03836 126.085 9.4134C126.611 9.79278 126.87 10.3546 126.87 11.0804C126.87 11.4763 126.742 11.8294 126.487 12.1355C126.292 12.3668 126.044 12.5567 125.746 12.7053C126.117 12.8418 126.422 13.0523 126.659 13.3384C126.96 13.6931 127.11 14.1176 127.11 14.606C127.11 15.3479 126.836 15.9397 126.285 16.3685C125.738 16.7952 124.973 17.0011 124.007 17.0011H120.786ZM121.006 16.8911H124.007C124.959 16.8911 125.696 16.688 126.218 16.2817C126.739 15.8755 127 15.3169 127 14.606C127 14.1417 126.858 13.7427 126.575 13.409C126.33 13.1128 126.006 12.9006 125.602 12.7722M125.429 12.7235C125.486 12.7019 125.542 12.679 125.595 12.6549C125.928 12.5054 126.197 12.3088 126.403 12.0652C126.641 11.7786 126.76 11.4504 126.76 11.0804C126.76 10.384 126.513 9.85807 126.021 9.50261C125.532 9.14715 124.801 8.96942 123.828 8.96942H120.896V16.8911H121.006M125.038 11.9166C125.321 11.7091 125.461 11.4322 125.461 11.075C125.461 10.6658 125.328 10.3894 125.078 10.2192C124.818 10.0385 124.406 9.93905 123.828 9.93905H122.189V12.2381H123.865C124.367 12.2381 124.755 12.1268 125.038 11.9166ZM122.079 12.3481V9.82905H123.828C124.415 9.82905 124.852 9.9288 125.14 10.1283C125.427 10.3242 125.571 10.6397 125.571 11.075C125.571 11.4667 125.415 11.7768 125.103 12.0053C124.795 12.2338 124.382 12.3481 123.865 12.3481H122.079ZM78.7396 12.8257H80.7546C81.3737 12.8257 81.8305 12.6976 82.1406 12.4573C82.4461 12.2168 82.6034 11.8705 82.6034 11.4014C82.6034 10.9597 82.4474 10.6143 82.1375 10.354C81.8259 10.0921 81.3914 9.94978 80.8214 9.93905H78.7396V12.8257ZM78.6296 12.9357V9.82905H80.8224C81.4096 9.83994 81.8716 9.98683 82.2083 10.2698C82.545 10.5527 82.7134 10.9299 82.7134 11.4014C82.7134 11.8983 82.545 12.2792 82.2083 12.544C81.8716 12.8051 81.387 12.9357 80.7546 12.9357H78.6296ZM122.079 16.0369V13.186H124.05C125.224 13.186 125.811 13.6629 125.811 14.6169C125.811 15.0594 125.651 15.4076 125.331 15.6615C125.015 15.9118 124.581 16.0369 124.031 16.0369H122.079ZM125.263 15.5752C125.554 15.3441 125.701 15.0289 125.701 14.6169C125.701 14.1636 125.563 13.8414 125.301 13.6291C125.036 13.4132 124.625 13.296 124.05 13.296H122.189V15.9269H124.031C124.566 15.9269 124.972 15.8054 125.263 15.5752Z" fill="white"/>
<path d="M34.3502 9.3501H20.2266C15.2074 9.3501 11.1384 13.419 11.1384 18.4383V32.5619C11.1384 37.5812 15.2074 41.6501 20.2266 41.6501H34.3502C39.3695 41.6501 43.4384 37.5812 43.4384 32.5619V18.4383C43.4384 13.419 39.3695 9.3501 34.3502 9.3501Z" fill="#C8102E"/>
<path d="M17.5338 25.5H18.3906V29.7262H17.5338V28.0092H15.5992V29.7262H14.7424V25.5H15.5992V27.2H17.5338V25.5ZM22.3618 27.9174C22.3618 28.5974 22.0218 28.9714 21.403 28.9714C20.7842 28.9714 20.4374 28.5974 20.4374 27.88V25.5H19.5806V27.914C19.5806 29.1006 20.2402 29.7806 21.3894 29.7806C22.5386 29.7806 23.2186 29.1006 23.2186 27.8766V25.5H22.3618V27.9174ZM32.2626 28.4036L31.3038 25.5H30.6L29.648 28.407L28.713 25.5H27.8018L29.274 29.7262H29.9846L30.94 26.9518L31.8988 29.7262H32.6162L34.0884 25.5H33.1976L32.2626 28.4036ZM35.6218 27.9038H37.1824V27.1388H35.6218V26.2752H37.8862V25.5H34.7786V29.716H37.9678V28.9544H35.6218V27.9038ZM38.9878 29.716H39.8344V25.5H38.9878V29.716ZM24.9118 28.8422L24.5276 29.7194H23.6538L25.5 25.5H26.2548L28.1078 29.7194H27.2238L26.86 28.8456L24.9118 28.8422ZM25.2314 28.0806H26.52L25.874 26.571L25.2314 28.0806Z" fill="white"/>
<path d="M27.2885 20.1247C25.8631 20.1238 24.4964 19.5571 23.4885 18.5493C22.4806 17.5414 21.914 16.1746 21.9131 14.7493H22.6713C22.6713 15.9738 23.1577 17.1482 24.0236 18.0141C24.8895 18.88 26.0639 19.3665 27.2885 19.3665C28.513 19.3665 29.6874 18.88 30.5533 18.0141C31.4192 17.1482 31.9057 15.9738 31.9057 14.7493H32.6639C32.663 16.1746 32.0964 17.5414 31.0885 18.5493C30.0806 19.5571 28.7139 20.1238 27.2885 20.1247Z" fill="white"/>
</svg>
