<svg width="126" height="32" viewBox="0 0 126 32" fill="none" xmlns="http://www.w3.org/2000/svg">
<path d="M19 14.5939C19.0138 13.581 19.2972 12.5879 19.824 11.7069C20.3508 10.8259 21.1038 10.0857 22.0129 9.55523C21.4354 8.77231 20.6734 8.128 19.7877 7.67347C18.9019 7.21894 17.9166 6.96671 16.9102 6.93682C14.7633 6.72293 12.682 8.15621 11.5879 8.15621C10.4727 8.15621 8.78831 6.95806 6.97446 6.99348C5.80121 7.02946 4.65779 7.3533 3.6556 7.93343C2.65341 8.51357 1.82664 9.33022 1.25583 10.3038C-1.21679 14.3672 0.627562 20.339 2.99612 23.6236C4.18117 25.2319 5.56614 27.0285 7.37835 26.9648C9.15171 26.895 9.81402 25.8915 11.9546 25.8915C14.0753 25.8915 14.6967 26.9648 16.5457 26.9243C18.4486 26.895 19.6475 25.3088 20.791 23.6852C21.6424 22.5392 22.2976 21.2726 22.7323 19.9324C21.6268 19.4886 20.6833 18.7457 20.0196 17.7963C19.3559 16.847 19.0013 15.7332 19 14.5939Z" fill="white"/>
<path d="M15.5077 4.77685C16.5452 3.59462 17.0563 2.07507 16.9326 0.540886C15.3474 0.698912 13.8832 1.418 12.8317 2.55487C12.3175 3.11026 11.9238 3.75638 11.6729 4.45631C11.422 5.15623 11.3189 5.89623 11.3694 6.634C12.1623 6.64175 12.9467 6.47864 13.6635 6.15695C14.3803 5.83526 15.0108 5.36338 15.5077 4.77685Z" fill="white"/>
<path d="M40.9633 23.9335H34.978L33.5406 28.1962H31.0055L36.6747 12.4253H39.3086L44.9778 28.1962H42.3994L40.9633 23.9335ZM35.5979 21.9665H40.3422L38.0034 15.0485H37.938L35.5979 21.9665Z" fill="white"/>
<path d="M57.2213 22.4477C57.2213 26.0208 55.3172 28.3165 52.4437 28.3165C51.7158 28.3547 50.9919 28.1863 50.3549 27.8305C49.7178 27.4748 49.1934 26.946 48.8417 26.3048H48.7873V32H46.4374V16.698H48.712V18.6104H48.7552C49.1231 17.9723 49.6564 17.4463 50.2983 17.0883C50.9402 16.7304 51.6667 16.5539 52.4005 16.5777C55.306 16.5777 57.2213 18.8845 57.2213 22.4477ZM54.806 22.4477C54.806 20.1198 53.6082 18.5893 51.7806 18.5893C49.9851 18.5893 48.7774 20.152 48.7774 22.4477C48.7774 24.7645 49.9851 26.316 51.7806 26.316C53.6082 26.316 54.806 24.7967 54.806 22.4477Z" fill="white"/>
<path d="M69.8217 22.4477C69.8217 26.0208 67.9175 28.3165 65.0441 28.3165C64.3162 28.3547 63.5922 28.1863 62.9552 27.8305C62.3182 27.4748 61.7937 26.946 61.442 26.3048H61.3876V32H59.0377V16.698H61.3123V18.6104H61.3555C61.7234 17.9723 62.2567 17.4463 62.8986 17.0883C63.5405 16.7304 64.267 16.5539 65.0008 16.5777C67.9064 16.5777 69.8217 18.8845 69.8217 22.4477ZM67.4063 22.4477C67.4063 20.1198 66.2085 18.5893 64.3809 18.5893C62.5855 18.5893 61.3778 20.152 61.3778 22.4477C61.3778 24.7645 62.5855 26.316 64.3809 26.316C66.2085 26.316 67.4063 24.7967 67.4063 22.4477H67.4063Z" fill="white"/>
<path d="M78.1495 23.802C78.3237 25.3659 79.8364 26.3928 81.9035 26.3928C83.8842 26.3928 85.3092 25.3659 85.3092 23.9557C85.3092 22.7316 84.4497 21.9987 82.4147 21.4964L80.3797 21.004C77.4963 20.3045 76.1577 18.9502 76.1577 16.7525C76.1577 14.0314 78.5188 12.1624 81.8714 12.1624C85.1894 12.1624 87.464 14.0314 87.5406 16.7525H85.1684C85.0264 15.1786 83.731 14.2286 81.838 14.2286C79.945 14.2286 78.6496 15.1898 78.6496 16.5888C78.6496 17.7037 79.477 18.3598 81.5009 18.8621L83.2309 19.2887C86.4526 20.0539 87.7912 21.3537 87.7912 23.6605C87.7912 26.611 85.4512 28.459 81.7293 28.459C78.2471 28.459 75.8959 26.6544 75.744 23.8019L78.1495 23.802Z" fill="white"/>
<path d="M92.8627 13.9771V16.6982H95.0397V18.5672H92.8627V24.906C92.8627 25.8908 93.2986 26.3497 94.2556 26.3497C94.5141 26.3451 94.7721 26.3269 95.0286 26.2951V28.1529C94.5983 28.2337 94.161 28.2702 93.7234 28.2621C91.4056 28.2621 90.5017 27.3877 90.5017 25.1578V18.5672H88.8371V16.6982H90.5016V13.9771H92.8627Z" fill="white"/>
<path d="M96.3006 22.4476C96.3006 18.8299 98.4221 16.5565 101.73 16.5565C105.049 16.5565 107.161 18.8298 107.161 22.4476C107.161 26.0753 105.061 28.3387 101.73 28.3387C98.401 28.3387 96.3006 26.0753 96.3006 22.4476ZM104.767 22.4476C104.767 19.9659 103.634 18.5012 101.73 18.5012C99.8261 18.5012 98.695 19.9771 98.695 22.4476C98.695 24.9392 99.8261 26.3928 101.73 26.3928C103.634 26.3928 104.767 24.9392 104.767 22.4476H104.767Z" fill="white"/>
<path d="M109.099 16.6982H111.34V18.6552H111.394C111.546 18.044 111.902 17.5038 112.404 17.1255C112.905 16.7472 113.521 16.5538 114.148 16.5779C114.419 16.5769 114.689 16.6064 114.953 16.6659V18.8735C114.611 18.7686 114.254 18.7204 113.897 18.7309C113.556 18.717 113.215 18.7775 112.899 18.9081C112.584 19.0388 112.3 19.2366 112.067 19.4879C111.834 19.7392 111.659 20.0381 111.552 20.3641C111.445 20.6901 111.41 21.0354 111.448 21.3763V28.1964H109.099L109.099 16.6982Z" fill="white"/>
<path d="M125.787 24.8189C125.471 26.9062 123.447 28.3387 120.858 28.3387C117.528 28.3387 115.46 26.0976 115.46 22.5022C115.46 18.8956 117.539 16.5565 120.759 16.5565C123.927 16.5565 125.918 18.7418 125.918 22.2281V23.0367H117.833V23.1793C117.795 23.6025 117.848 24.0288 117.987 24.4299C118.127 24.831 118.349 25.1978 118.641 25.5058C118.932 25.8139 119.285 26.0561 119.677 26.2165C120.068 26.3769 120.49 26.4518 120.912 26.4362C121.468 26.4884 122.025 26.3593 122.501 26.0679C122.978 25.7765 123.348 25.3385 123.556 24.8189L125.787 24.8189ZM117.844 21.3872H123.567C123.588 21.0067 123.531 20.626 123.399 20.2688C123.266 19.9117 123.062 19.5859 122.798 19.3119C122.534 19.0378 122.217 18.8215 121.866 18.6765C121.515 18.5314 121.139 18.4608 120.759 18.4689C120.377 18.4666 119.997 18.5405 119.643 18.6862C119.289 18.8319 118.967 19.0467 118.696 19.318C118.425 19.5893 118.21 19.9118 118.064 20.267C117.918 20.6221 117.843 21.0029 117.844 21.3872V21.3872Z" fill="white"/>
<path d="M33.7283 3.37648H34.7323C34.9051 3.398 35.0805 3.38349 35.2475 3.33386C35.4144 3.28422 35.5693 3.20054 35.7023 3.08809C35.8353 2.97564 35.9435 2.83686 36.0202 2.68049C36.0969 2.52413 36.1404 2.35356 36.1479 2.17956C36.1479 1.48709 35.6269 1.03978 34.7433 1.03978C34.5663 1.01504 34.386 1.02603 34.2133 1.07209C34.0405 1.11816 33.8788 1.19837 33.7375 1.308C33.5963 1.41762 33.4784 1.55443 33.391 1.71035C33.3035 1.86627 33.2481 2.03814 33.2281 2.21581H32.1258C32.1448 1.89329 32.2299 1.57813 32.376 1.28995C32.522 1.00177 32.7259 0.746744 32.9747 0.540744C33.2236 0.334745 33.5123 0.182183 33.8227 0.0925617C34.133 0.00293991 34.4586 -0.0218237 34.779 0.0198108C36.2573 0.0198108 37.2982 0.847451 37.2982 2.03885C37.3017 2.43797 37.1681 2.82622 36.9199 3.13876C36.6716 3.45131 36.3237 3.66925 35.9341 3.75621V3.84468C36.396 3.86517 36.8309 4.06766 37.1438 4.40789C37.4568 4.74813 37.6223 5.19843 37.6042 5.66034C37.57 5.99242 37.4699 6.31432 37.3097 6.6072C37.1495 6.90008 36.9324 7.15803 36.6713 7.36593C36.4101 7.57384 36.11 7.72751 35.7887 7.81795C35.4673 7.90839 35.1312 7.93376 34.7999 7.8926C34.4679 7.93786 34.1302 7.91581 33.807 7.82778C33.4837 7.73974 33.1814 7.58752 32.9183 7.38019C32.6551 7.17285 32.4363 6.91465 32.2751 6.62097C32.1138 6.32729 32.0133 6.00414 31.9796 5.6708H33.0991C33.1667 6.38908 33.8266 6.85241 34.7999 6.85241C35.7731 6.85241 36.4085 6.33198 36.4085 5.59834C36.4085 4.85426 35.81 4.39588 34.7642 4.39588H33.7283V3.37648Z" fill="white"/>
<path d="M38.876 6.10829C38.876 5.08832 39.6366 4.50031 40.9835 4.41675L42.5184 4.32827V3.83918C42.5184 3.24071 42.1239 2.90278 41.3583 2.90278C40.734 2.90278 40.3027 3.13197 40.1774 3.53258H39.0947C39.209 2.55931 40.1257 1.93504 41.4111 1.93504C42.8317 1.93504 43.633 2.64225 43.633 3.83918V7.71075H42.5552V6.91444H42.4668C42.2872 7.20008 42.035 7.43294 41.736 7.58924C41.4369 7.74555 41.1018 7.81969 40.7648 7.80411C40.5269 7.82885 40.2865 7.80347 40.059 7.72961C39.8315 7.65574 39.6221 7.53503 39.4441 7.37526C39.2662 7.21548 39.1237 7.02019 39.0258 6.80197C38.928 6.58375 38.8769 6.34745 38.876 6.10829ZM42.5184 5.62411V5.15039L41.1346 5.23886C40.3543 5.29109 40.0003 5.55652 40.0003 6.05606C40.0003 6.56604 40.4427 6.86281 41.0511 6.86281C41.2293 6.88086 41.4094 6.86287 41.5805 6.80991C41.7517 6.75695 41.9104 6.6701 42.0473 6.55453C42.1842 6.43896 42.2965 6.29703 42.3774 6.13719C42.4583 5.97735 42.5063 5.80286 42.5184 5.62411Z" fill="white"/>
<path d="M46.6007 2.98574V7.71076H45.4824V2.04442H49.2133V2.98568L46.6007 2.98574Z" fill="white"/>
<path d="M55.9906 4.87507C55.9906 6.67537 55.08 7.8041 53.6496 7.8041C53.2985 7.82808 52.9478 7.75124 52.6389 7.58262C52.33 7.41401 52.0756 7.16063 51.9059 6.85233H51.8174V9.59457H50.6991V2.04436H51.7756V2.9808H51.8592C52.032 2.66173 52.2896 2.39664 52.6036 2.2148C52.9177 2.03296 53.2758 1.94146 53.6386 1.95039C55.08 1.95035 55.9906 3.07415 55.9906 4.87507ZM54.8404 4.87507C54.8404 3.67815 54.2739 2.95496 53.3264 2.95496C52.3852 2.95496 51.7965 3.6935 51.7965 4.87999C51.7965 6.06095 52.3851 6.80011 53.3215 6.80011C54.2739 6.8001 54.8404 6.0769 54.8404 4.87507Z" fill="white"/>
<path d="M57.48 9.74025V8.77743C57.601 8.7928 57.7229 8.79978 57.8449 8.79832C58.0831 8.81596 58.3195 8.74501 58.5087 8.59906C58.6978 8.45312 58.8264 8.24247 58.8698 8.00753L58.9533 7.73165L56.9023 2.04442H58.1202L59.5408 6.54517H59.6293L61.0449 2.04442H62.2308L60.1184 7.94487C59.6342 9.32366 59.0984 9.76606 57.9433 9.76606C57.8499 9.76605 57.5844 9.75561 57.48 9.74025Z" fill="white"/>
<path d="M63.1021 6.1026H64.2154C64.3248 6.60217 64.793 6.86265 65.448 6.86265C66.1927 6.86265 66.6498 6.53454 66.6498 6.02458C66.6498 5.47834 66.2394 5.21783 65.448 5.21783H64.6V4.34901H65.4332C66.1091 4.34901 66.4532 4.08911 66.4532 3.61538C66.4532 3.1994 66.1202 2.88175 65.4332 2.88175C64.8077 2.88175 64.3506 3.14719 64.278 3.59451H63.2004C63.2809 3.08051 63.56 2.61867 63.9776 2.30831C64.3951 1.99796 64.9178 1.86387 65.4332 1.93491C66.7801 1.93491 67.5506 2.54382 67.5506 3.50111C67.5569 3.76769 67.4715 4.02834 67.3086 4.2395C67.1458 4.45066 66.9154 4.59951 66.656 4.66117V4.74965C66.9648 4.78949 67.2483 4.94132 67.4526 5.17634C67.657 5.41136 67.7679 5.7132 67.7644 6.0246C67.7644 7.10176 66.8477 7.81445 65.448 7.81445C64.2105 7.81442 63.2053 7.2473 63.1021 6.1026Z" fill="white"/>
<path d="M69.3749 7.71076V2.04442H70.4833V5.94181H70.5718L73.1832 2.04443H74.2916V7.71077H73.1832V3.79252H73.0996L70.4833 7.71078L69.3749 7.71076Z" fill="white"/>
<path d="M80.3978 2.98568H78.6135V7.7107H77.494V2.98568H75.7096V2.04442H80.3978V2.98568Z" fill="white"/>
<path d="M86.4218 6.18091C86.2694 6.69875 85.94 7.1466 85.491 7.44624C85.042 7.74587 84.5019 7.87824 83.9653 7.82022C83.592 7.83008 83.221 7.75858 82.8781 7.61068C82.5352 7.46279 82.2285 7.24204 81.9795 6.96377C81.7305 6.68549 81.545 6.35636 81.4359 5.9992C81.3268 5.64205 81.2967 5.26543 81.3478 4.8955C81.2981 4.52442 81.3287 4.147 81.4375 3.78878C81.5463 3.43055 81.7308 3.0999 81.9786 2.81919C82.2263 2.53848 82.5315 2.31428 82.8734 2.16175C83.2153 2.00923 83.586 1.93195 83.9604 1.93514C85.537 1.93514 86.4894 3.0123 86.4894 4.79163V5.18185H82.4882V5.24452C82.4705 5.4525 82.4965 5.66189 82.5645 5.85923C82.6325 6.05657 82.7411 6.2375 82.8832 6.39038C83.0253 6.54326 83.1979 6.66472 83.3897 6.74694C83.5816 6.82916 83.7885 6.87034 83.9972 6.86781C84.2645 6.89978 84.5353 6.85153 84.7752 6.72921C85.015 6.60689 85.213 6.41603 85.3441 6.18087L86.4218 6.18091ZM82.4881 4.3548H85.349C85.3631 4.16473 85.3373 3.97379 85.2733 3.79427C85.2092 3.61475 85.1084 3.4506 84.9771 3.31237C84.8459 3.17413 84.6872 3.06488 84.5113 2.99161C84.3353 2.91834 84.146 2.88268 83.9554 2.88692C83.762 2.88428 83.5699 2.92046 83.3907 2.9933C83.2114 3.06615 83.0486 3.17418 82.9118 3.31103C82.7751 3.44787 82.6671 3.61074 82.5943 3.79002C82.5216 3.9693 82.4855 4.16134 82.4882 4.3548H82.4881Z" fill="white"/>
<path d="M91.1628 2.04442H93.7177C94.8261 2.04442 95.4762 2.60601 95.4762 3.48525C95.4779 3.76424 95.3838 4.03536 95.2095 4.25324C95.0352 4.47112 94.7914 4.62254 94.5189 4.68217V4.77065C94.8498 4.79155 95.1601 4.93876 95.3856 5.18186C95.6111 5.42497 95.7346 5.74539 95.7306 6.07694C95.7306 7.06557 94.9871 7.71073 93.7435 7.71073H91.1628V2.04442ZM92.2713 2.90279V4.37004H93.3797C94.0556 4.37004 94.3788 4.11014 94.3788 3.63088C94.3788 3.1891 94.0974 2.90278 93.5039 2.90278L92.2713 2.90279ZM92.2713 5.19219V6.8524H93.5973C94.2584 6.8524 94.6124 6.56055 94.6124 6.02476C94.6124 5.45764 94.2117 5.1922 93.4572 5.1922L92.2713 5.19219Z" fill="white"/>
</svg>
