<svg width="540" height="342" viewBox="0 0 540 342" fill="none" xmlns="http://www.w3.org/2000/svg">
<path d="M111.138 123.267C117.597 123.267 124.043 123.905 130.373 125.175C135.146 101.541 150.578 81.3808 172.245 70.4686C193.908 59.5564 219.421 59.0987 241.472 69.2238C261.427 14.6927 322.164 -13.4627 377.132 6.33416C432.099 26.131 460.48 86.3899 440.525 140.917C488.675 142.427 526.71 181.965 525.99 229.75C525.266 277.54 486.049 315.923 437.873 316H111.138C57.4937 316 14 272.856 14 219.634C14 166.411 57.4937 123.267 111.138 123.267Z" fill="url(#paint0_linear_2990_19539)"/>
<path d="M184.15 215C182.96 215 182.034 214.61 181.373 213.829C180.711 213.049 180.381 212.041 180.381 210.805C180.381 209.894 180.778 208.496 181.571 206.61C182.497 204.333 182.96 201.829 182.96 199.098C182.96 198.512 182.893 198.122 182.761 197.927C182.695 197.732 182.497 197.634 182.166 197.634C181.835 197.634 181.373 197.829 180.778 198.22C178.463 199.65 176.612 201.244 175.224 203C174.232 204.301 173.306 205.276 172.447 205.927C171.653 206.512 170.728 206.805 169.67 206.805C168.546 206.805 167.653 206.447 166.992 205.732C166.331 204.951 166 204.106 166 203.195C166 201.764 166.595 200.724 167.785 200.073C168.975 199.358 170.595 198.87 172.645 198.61C175.091 198.285 177.538 197.439 179.984 196.073C180.116 196.008 180.315 195.878 180.579 195.683C180.844 195.488 180.976 195.26 180.976 195C180.976 194.74 180.844 194.512 180.579 194.317C180.315 194.122 180.116 193.992 179.984 193.927C177.538 192.561 175.091 191.715 172.645 191.39C170.595 191.13 168.975 190.675 167.785 190.024C166.595 189.309 166 188.236 166 186.805C166 185.894 166.331 185.081 166.992 184.366C167.653 183.585 168.546 183.195 169.67 183.195C170.728 183.195 171.653 183.52 172.447 184.171C173.306 184.756 174.232 185.699 175.224 187C176.612 188.756 178.463 190.35 180.778 191.78C181.373 192.171 181.835 192.366 182.166 192.366C182.497 192.366 182.695 192.268 182.761 192.073C182.893 191.878 182.96 191.488 182.96 190.902C182.96 188.171 182.497 185.667 181.571 183.39C180.778 181.504 180.381 180.106 180.381 179.195C180.381 177.959 180.711 176.951 181.373 176.171C182.034 175.39 182.96 175 184.15 175C185.34 175 186.265 175.39 186.927 176.171C187.588 176.951 187.918 177.959 187.918 179.195C187.918 180.106 187.522 181.504 186.728 183.39C185.803 185.667 185.34 188.171 185.34 190.902C185.34 191.488 185.373 191.878 185.439 192.073C185.571 192.268 185.803 192.366 186.133 192.366C186.464 192.366 186.927 192.171 187.522 191.78C189.836 190.35 191.687 188.756 193.076 187C194.067 185.699 194.993 184.756 195.853 184.171C196.712 183.52 197.638 183.195 198.63 183.195C199.754 183.195 200.646 183.585 201.307 184.366C201.969 185.081 202.299 185.894 202.299 186.805C202.299 188.236 201.704 189.309 200.514 190.024C199.324 190.675 197.704 191.13 195.654 191.39C193.208 191.715 190.762 192.561 188.315 193.927C188.183 193.992 187.985 194.122 187.72 194.317C187.456 194.512 187.323 194.74 187.323 195C187.323 195.26 187.456 195.488 187.72 195.683C187.985 195.878 188.183 196.008 188.315 196.073C190.762 197.439 193.208 198.285 195.654 198.61C197.704 198.87 199.324 199.358 200.514 200.073C201.704 200.724 202.299 201.764 202.299 203.195C202.299 204.106 201.969 204.951 201.307 205.732C200.646 206.447 199.754 206.805 198.63 206.805C197.638 206.805 196.712 206.512 195.853 205.927C194.993 205.276 194.067 204.301 193.076 203C191.687 201.244 189.836 199.65 187.522 198.22C186.927 197.829 186.464 197.634 186.133 197.634C185.803 197.634 185.571 197.732 185.439 197.927C185.373 198.122 185.34 198.512 185.34 199.098C185.34 201.829 185.803 204.333 186.728 206.61C187.522 208.496 187.918 209.894 187.918 210.805C187.918 212.041 187.588 213.049 186.927 213.829C186.265 214.61 185.34 215 184.15 215Z" fill="url(#paint1_linear_2990_19539)"/>
<path d="M243.85 215C242.66 215 241.735 214.61 241.073 213.829C240.412 213.049 240.082 212.041 240.082 210.805C240.082 209.894 240.478 208.496 241.272 206.61C242.197 204.333 242.66 201.829 242.66 199.098C242.66 198.512 242.594 198.122 242.462 197.927C242.396 197.732 242.197 197.634 241.867 197.634C241.536 197.634 241.073 197.829 240.478 198.22C238.164 199.65 236.313 201.244 234.924 203C233.933 204.301 233.007 205.276 232.147 205.927C231.354 206.512 230.428 206.805 229.37 206.805C228.246 206.805 227.354 206.447 226.693 205.732C226.031 204.951 225.701 204.106 225.701 203.195C225.701 201.764 226.296 200.724 227.486 200.073C228.676 199.358 230.296 198.87 232.346 198.61C234.792 198.285 237.238 197.439 239.685 196.073C239.817 196.008 240.015 195.878 240.28 195.683C240.544 195.488 240.677 195.26 240.677 195C240.677 194.74 240.544 194.512 240.28 194.317C240.015 194.122 239.817 193.992 239.685 193.927C237.238 192.561 234.792 191.715 232.346 191.39C230.296 191.13 228.676 190.675 227.486 190.024C226.296 189.309 225.701 188.236 225.701 186.805C225.701 185.894 226.031 185.081 226.693 184.366C227.354 183.585 228.246 183.195 229.37 183.195C230.428 183.195 231.354 183.52 232.147 184.171C233.007 184.756 233.933 185.699 234.924 187C236.313 188.756 238.164 190.35 240.478 191.78C241.073 192.171 241.536 192.366 241.867 192.366C242.197 192.366 242.396 192.268 242.462 192.073C242.594 191.878 242.66 191.488 242.66 190.902C242.66 188.171 242.197 185.667 241.272 183.39C240.478 181.504 240.082 180.106 240.082 179.195C240.082 177.959 240.412 176.951 241.073 176.171C241.735 175.39 242.66 175 243.85 175C245.041 175 245.966 175.39 246.627 176.171C247.289 176.951 247.619 177.959 247.619 179.195C247.619 180.106 247.222 181.504 246.429 183.39C245.503 185.667 245.041 188.171 245.041 190.902C245.041 191.488 245.074 191.878 245.14 192.073C245.272 192.268 245.503 192.366 245.834 192.366C246.165 192.366 246.627 192.171 247.222 191.78C249.537 190.35 251.388 188.756 252.776 187C253.768 185.699 254.694 184.756 255.553 184.171C256.413 183.52 257.339 183.195 258.33 183.195C259.454 183.195 260.347 183.585 261.008 184.366C261.669 185.081 262 185.894 262 186.805C262 188.236 261.405 189.309 260.215 190.024C259.025 190.675 257.405 191.13 255.355 191.39C252.909 191.715 250.462 192.561 248.016 193.927C247.884 193.992 247.685 194.122 247.421 194.317C247.156 194.512 247.024 194.74 247.024 195C247.024 195.26 247.156 195.488 247.421 195.683C247.685 195.878 247.884 196.008 248.016 196.073C250.462 197.439 252.909 198.285 255.355 198.61C257.405 198.87 259.025 199.358 260.215 200.073C261.405 200.724 262 201.764 262 203.195C262 204.106 261.669 204.951 261.008 205.732C260.347 206.447 259.454 206.805 258.33 206.805C257.339 206.805 256.413 206.512 255.553 205.927C254.694 205.276 253.768 204.301 252.776 203C251.388 201.244 249.537 199.65 247.222 198.22C246.627 197.829 246.165 197.634 245.834 197.634C245.503 197.634 245.272 197.732 245.14 197.927C245.074 198.122 245.041 198.512 245.041 199.098C245.041 201.829 245.503 204.333 246.429 206.61C247.222 208.496 247.619 209.894 247.619 210.805C247.619 212.041 247.289 213.049 246.627 213.829C245.966 214.61 245.041 215 243.85 215Z" fill="url(#paint2_linear_2990_19539)"/>
<path d="M382.807 147.5C383.929 147.5 385.011 147.92 385.84 148.677L424.034 183.538L424.204 183.702C425.032 184.542 425.5 185.677 425.5 186.862V336C425.5 338.485 423.485 340.5 421 340.5H287C284.515 340.5 282.5 338.485 282.5 336V152C282.5 149.515 284.515 147.5 287 147.5H382.807Z" fill="url(#paint3_linear_2990_19539)" stroke="#808080" stroke-width="3"/>
<path fill-rule="evenodd" clip-rule="evenodd" d="M357.5 192H311.5C310.672 192 310 192.672 310 193.5C310 194.328 310.672 195 311.5 195H357.5C358.328 195 359 194.328 359 193.5C359 192.672 358.328 192 357.5 192ZM397.5 210H311.5C310.672 210 310 210.672 310 211.5C310 212.328 310.672 213 311.5 213H397.5C398.328 213 399 212.328 399 211.5C399 210.672 398.328 210 397.5 210ZM311.5 228H385.502C386.33 228 387.002 228.672 387.002 229.5C387.002 230.328 386.33 231 385.502 231H311.5C310.672 231 310 230.328 310 229.5C310 228.672 310.672 228 311.5 228ZM397.5 246H311.5C310.672 246 310 246.672 310 247.5C310 248.328 310.672 249 311.5 249H397.5C398.328 249 399 248.328 399 247.5C399 246.672 398.328 246 397.5 246ZM311.5 283H397.5C398.328 283 399 283.672 399 284.5C399 285.328 398.328 286 397.5 286H311.5C310.672 286 310 285.328 310 284.5C310 283.672 310.672 283 311.5 283ZM385.502 264H311.5C310.672 264 310 264.672 310 265.5C310 266.328 310.672 267 311.5 267H385.502C386.33 267 387.002 266.328 387.002 265.5C387.002 264.672 386.33 264 385.502 264ZM311.5 301H374.5C375.328 301 376 301.672 376 302.5C376 303.328 375.328 304 374.5 304H311.5C310.672 304 310 303.328 310 302.5C310 301.672 310.672 301 311.5 301Z" fill="url(#paint4_linear_2990_19539)"/>
<path d="M426.894 313.5H446.5C448.157 313.5 449.5 312.157 449.5 310.5V126.5C449.5 124.843 448.157 123.5 446.5 123.5L327.5 123.5C325.843 123.5 324.5 124.843 324.5 126.5V146.514" stroke="#808080" stroke-width="3"/>
<path d="M385 149L425 185H385V149Z" fill="#808080"/>
<path fill-rule="evenodd" clip-rule="evenodd" d="M450.025 220C450.025 220 463.013 230.552 478.024 233.993C480.966 234.667 483.985 235.068 487 235.063C486.155 238.17 485.486 241.129 484.927 243.953C484.132 247.971 483.56 251.715 483.024 255.219C480.192 273.757 478.385 285.591 449.898 296C421.984 286.407 419.665 273.139 417.199 255.901C416.671 252.207 416.109 248.273 415.24 244.058C414.658 241.231 413.939 238.278 413 235.186C415.971 235.181 419 234.74 421.984 234.01C439.722 230.364 450.025 220 450.025 220Z" fill="url(#paint5_linear_2990_19539)"/>
<path fill-rule="evenodd" clip-rule="evenodd" d="M462.828 249.132C463.803 250.179 463.776 251.849 462.768 252.862L448.764 266.931C447.78 267.92 446.218 267.92 445.234 266.931L437.232 258.891C436.224 257.879 436.197 256.209 437.172 255.161C438.147 254.114 439.754 254.086 440.762 255.099L446.999 261.365L459.238 249.069C460.246 248.056 461.853 248.084 462.828 249.132Z" fill="white"/>
<path d="M188.656 11L188.957 11.0078C192.039 11.1694 194.436 13.8015 194.437 16.9541L194.437 59.0605C194.437 62.2993 191.906 64.9904 188.697 65.0137L188.698 65.0146L160.019 65.3643L160.013 65.3643C159.903 65.365 159.869 65.3903 159.857 65.3994C159.834 65.4171 159.774 65.474 159.706 65.6309C159.558 65.9732 159.475 66.5418 159.466 67.332C159.457 68.0995 159.516 68.9497 159.574 69.8076C159.623 70.5328 159.673 71.2849 159.661 71.9297L159.652 72.1992C159.539 74.4921 158.653 76.3504 156.921 76.8652C155.235 77.3664 153.451 76.3727 152.03 74.6514L144.343 66.8994L144.309 66.8643L144.277 66.8271C143.595 65.9906 142.62 65.4968 141.589 65.4434L141.383 65.4385L110.247 65.6064C107.009 65.6239 104.437 62.9187 104.437 59.6523L104.437 17.6025C104.437 14.3509 106.986 11.6542 110.208 11.6494L110.208 11.6484L188.648 11L188.656 11Z" stroke="#AAAAAA" stroke-width="2"/>
<path fill-rule="evenodd" clip-rule="evenodd" d="M124.273 32C123.57 32 123 32.8954 123 34C123 35.1046 123.57 36 124.273 36L172.727 36C173.43 36 174 35.1046 174 34C174 32.8954 173.43 32 172.727 32L124.273 32ZM124.385 41C123.62 41 123 41.6716 123 42.5C123 43.3284 123.62 44 124.385 44L153.615 44C154.38 44 155 43.3284 155 42.5C155 41.6716 154.38 41 153.615 41L124.385 41Z" fill="url(#paint6_linear_2990_19539)"/>
<path d="M59.1934 75L58.8936 75.0078C55.8197 75.1694 53.4367 77.8061 53.4365 80.9541L53.4365 123.061C53.4365 126.295 55.9518 128.99 59.1523 129.014L59.1514 129.015L87.6885 129.364L87.6943 129.364C87.8022 129.365 87.8339 129.39 87.8447 129.398C87.8676 129.416 87.9268 129.472 87.9941 129.629C88.1416 129.972 88.2241 130.541 88.2334 131.332C88.2424 132.1 88.1835 132.951 88.126 133.809C88.0774 134.534 88.0277 135.285 88.0391 135.93L88.0479 136.198C88.1607 138.488 89.041 140.349 90.7686 140.865C92.4534 141.368 94.2327 140.369 95.6455 138.646L103.292 130.897L103.326 130.863L103.356 130.825C104.035 129.989 105.005 129.497 106.027 129.443L106.232 129.438L137.214 129.606C140.443 129.624 143 126.914 143 123.652L143 81.6025C143 78.3557 140.465 75.6541 137.252 75.6494L137.252 75.6484L59.2012 75L59.1934 75Z" stroke="#AAAAAA" stroke-width="2"/>
<path fill-rule="evenodd" clip-rule="evenodd" d="M74.273 95C73.57 95 73 95.8954 73 97C73 98.1046 73.57 99 74.273 99L122.727 99C123.43 99 124 98.1046 124 97C124 95.8954 123.43 95 122.727 95L74.273 95ZM74.385 105C73.6201 105 73 105.672 73 106.5C73 107.328 73.6201 108 74.385 108L103.615 108C104.38 108 105 107.328 105 106.5C105 105.672 104.38 105 103.615 105L74.385 105Z" fill="url(#paint7_linear_2990_19539)"/>
<defs>
<linearGradient id="paint0_linear_2990_19539" x1="270" y1="0" x2="270" y2="316" gradientUnits="userSpaceOnUse">
<stop stop-color="#4B4B4B"/>
<stop offset="1" stop-color="#353535"/>
</linearGradient>
<linearGradient id="paint1_linear_2990_19539" x1="166" y1="173.437" x2="193.657" y2="242.406" gradientUnits="userSpaceOnUse">
<stop stop-color="#FFC671"/>
<stop offset="0.59375" stop-color="#FF7541"/>
<stop offset="1" stop-color="#FF6F3D"/>
</linearGradient>
<linearGradient id="paint2_linear_2990_19539" x1="166" y1="173.437" x2="193.657" y2="242.406" gradientUnits="userSpaceOnUse">
<stop stop-color="#FFC671"/>
<stop offset="0.59375" stop-color="#FF7541"/>
<stop offset="1" stop-color="#FF6F3D"/>
</linearGradient>
<linearGradient id="paint3_linear_2990_19539" x1="354" y1="149" x2="354" y2="339" gradientUnits="userSpaceOnUse">
<stop stop-color="#444444"/>
<stop offset="1" stop-color="#444444" stop-opacity="0"/>
</linearGradient>
<linearGradient id="paint4_linear_2990_19539" x1="310" y1="187.625" x2="420.057" y2="278.497" gradientUnits="userSpaceOnUse">
<stop stop-color="#FFC671"/>
<stop offset="0.59375" stop-color="#FF7541"/>
<stop offset="1" stop-color="#FF6F3D"/>
</linearGradient>
<linearGradient id="paint5_linear_2990_19539" x1="450" y1="220" x2="450" y2="296" gradientUnits="userSpaceOnUse">
<stop stop-color="#FF6F3D"/>
<stop offset="1" stop-color="#FF8E3D"/>
</linearGradient>
<linearGradient id="paint6_linear_2990_19539" x1="123" y1="31.5312" x2="128.174" y2="54.3773" gradientUnits="userSpaceOnUse">
<stop stop-color="#FFC671"/>
<stop offset="0.59375" stop-color="#FF7541"/>
<stop offset="1" stop-color="#FF6F3D"/>
</linearGradient>
<linearGradient id="paint7_linear_2990_19539" x1="73.0001" y1="94.4922" x2="79.0207" y2="119.034" gradientUnits="userSpaceOnUse">
<stop stop-color="#FFC671"/>
<stop offset="0.59375" stop-color="#FF7541"/>
<stop offset="1" stop-color="#FF6F3D"/>
</linearGradient>
</defs>
</svg>
