<svg width="64" height="332" viewBox="0 0 64 332" fill="none" xmlns="http://www.w3.org/2000/svg">
<g clip-path="url(#clip0_998_459)">
<path d="M32 0.5C49.3955 0.500002 63.5 14.6045 63.5 32L63.4893 32.8125C63.0495 49.8328 49.1146 63.5 32 63.5C14.6045 63.5 0.5 49.3955 0.5 32C0.500002 14.6045 14.6045 0.5 32 0.5Z" fill="#FEFEFE" stroke="#333333"/>
<path fill-rule="evenodd" clip-rule="evenodd" d="M32 59C17.0894 59 5 46.9106 5 32C5 17.0894 17.0894 5 32 5C46.9106 5 59 17.0894 59 32C59 46.9106 46.9106 59 32 59Z" fill="url(#paint0_linear_998_459)"/>
<path fill-rule="evenodd" clip-rule="evenodd" d="M32 34C30.8934 34 30 33.1066 30 32C30 30.8934 30.8934 30 32 30C33.1066 30 34 30.8934 34 32C33.9898 33.1066 33.0964 34 32 34Z" fill="white"/>
<path fill-rule="evenodd" clip-rule="evenodd" d="M33 20.0286L33 31.5L44.7143 43.8C45.3319 44.4176 44.7143 45.1714 44.1572 44.5749L31 31.1143V20.0286C31 18.6571 33 18.6571 33 20.0286Z" fill="white"/>
<path d="M32.0011 51.8896C32.2366 51.8898 32.4279 52.0809 32.4279 52.3164V54.5742C32.4277 54.8096 32.2365 55.0008 32.0011 55.001C31.7656 55.001 31.5745 54.8097 31.5743 54.5742V52.3164C31.5743 52.0808 31.7655 51.8896 32.0011 51.8896ZM21.4738 49.3809C21.5916 49.1771 21.8528 49.107 22.0568 49.2246C22.2607 49.3424 22.3306 49.6036 22.213 49.8076L21.0841 51.7637C20.9662 51.9673 20.705 52.0375 20.5011 51.9199C20.2972 51.8022 20.2274 51.5409 20.3448 51.3369L21.4738 49.3809ZM41.9454 49.2246C42.1494 49.1072 42.4107 49.177 42.5284 49.3809L43.6573 51.3359C43.7748 51.5398 43.7047 51.801 43.5011 51.9189C43.2971 52.0367 43.036 51.9666 42.9181 51.7627L41.7892 49.8076C41.6714 49.6036 41.7414 49.3424 41.9454 49.2246ZM14.1925 41.7891C14.3965 41.6713 14.6577 41.7413 14.7755 41.9453C14.8932 42.1493 14.8232 42.4105 14.6193 42.5283L12.6642 43.6572C12.4602 43.775 12.199 43.7049 12.0812 43.501C11.9634 43.2969 12.0334 43.0358 12.2374 42.918L14.1925 41.7891ZM49.2238 41.9453C49.3416 41.7413 49.6027 41.6713 49.8068 41.7891L51.7618 42.918C51.9659 43.0358 52.0359 43.2969 51.9181 43.501C51.8002 43.7047 51.539 43.775 51.3351 43.6572L49.38 42.5283C49.1761 42.4105 49.1062 42.1493 49.2238 41.9453ZM11.6847 31.5732C11.9201 31.5735 12.1114 31.7646 12.1115 32C12.1113 32.2354 11.9201 32.4265 11.6847 32.4268H9.42688C9.19148 32.4265 9.00023 32.2354 9.00012 32C9.0002 31.7646 9.19146 31.5735 9.42688 31.5732H11.6847ZM54.5743 31.5732C54.8097 31.5735 55.001 31.7646 55.0011 32C55.001 32.2355 54.8098 32.4265 54.5743 32.4268H52.3165C52.081 32.4267 51.8898 32.2356 51.8898 32C51.8898 31.7645 52.081 31.5733 52.3165 31.5732H54.5743ZM12.0802 20.5C12.1981 20.2962 12.4592 20.2261 12.6632 20.3438L14.6183 21.4727C14.8222 21.5905 14.8922 21.8517 14.7745 22.0557C14.6567 22.2597 14.3956 22.3296 14.1915 22.2119L12.2365 21.083C12.0324 20.9652 11.9624 20.7041 12.0802 20.5ZM51.3361 20.3447C51.5401 20.2269 51.8012 20.2969 51.9191 20.501C52.0368 20.705 51.9668 20.9662 51.7628 21.084L49.8077 22.2129C49.6038 22.3304 49.3426 22.2604 49.2247 22.0566C49.107 21.8527 49.1771 21.5915 49.381 21.4736L51.3361 20.3447ZM42.9191 12.2383C43.0368 12.0343 43.298 11.9644 43.5021 12.082C43.7058 12.2 43.7761 12.4611 43.6583 12.665L42.5294 14.6201C42.4116 14.824 42.1504 14.8939 41.9464 14.7764C41.7425 14.6585 41.6725 14.3973 41.7902 14.1934L42.9191 12.2383ZM20.5001 12.0811C20.7041 11.9633 20.9652 12.0334 21.0831 12.2373L22.212 14.1924C22.3298 14.3964 22.2598 14.6576 22.0558 14.7754C21.8517 14.8931 21.5906 14.8232 21.4728 14.6191L20.3439 12.6641C20.2263 12.4601 20.2962 12.1989 20.5001 12.0811ZM32.0011 9C32.2366 9.00016 32.4279 9.19121 32.4279 9.42676V11.6846C32.4278 11.9201 32.2366 12.1112 32.0011 12.1113C31.7655 12.1113 31.5744 11.9202 31.5743 11.6846V9.42676C31.5743 9.19112 31.7655 9 32.0011 9Z" fill="white"/>
</g>
<path d="M11 79.2572C11 77.4583 12.4551 76 14.25 76H46.75C48.5449 76 50 77.4583 50 79.2572V126.743C50 128.542 48.5449 130 46.75 130H14.25C12.4551 130 11 128.542 11 126.743V79.2572Z" fill="#EFEFEF"/>
<path fill-rule="evenodd" clip-rule="evenodd" d="M16 75.0283H14.25C11.9007 75.0283 10 76.9354 10 79.2833V126.745C10 129.093 11.9007 131 14.25 131H46.75C49.0993 131 51 129.093 51 126.745V79.2833C51 76.9354 49.0993 75.0283 46.75 75.0283H45V76.0278H46.75C48.5449 76.0278 50 77.4854 50 79.2833V126.745C50 128.543 48.5449 130.001 46.75 130.001H14.25C12.4551 130.001 11 128.543 11 126.745V79.2833C11 77.4854 12.4551 76.0278 14.25 76.0278H16.0112L16 75.0283Z" fill="#333333"/>
<path fill-rule="evenodd" clip-rule="evenodd" d="M33.502 73C33.502 71.5059 32.0491 70 30.4447 70C28.8403 70 27.502 71.5059 27.502 73H19.4525C18.6503 73 18 73.5625 18 74.3096V76.6473C18 77.3944 18.6503 78 19.4525 78L41.5475 78C42.3497 78 43 77.3943 43 76.6473V74.2999C43 73.5528 42.3042 73 41.502 73H33.502Z" fill="url(#paint1_linear_998_459)"/>
<path fill-rule="evenodd" clip-rule="evenodd" d="M41 73C41.5299 73 42.002 73.5 41.9994 74V77C41.9994 77.5 41.5769 78 41 78L20 78C19.4667 78 19.0006 77.5904 19.0006 77V74C19.0006 73.4512 19.4086 73 20.002 73H28.002C28.002 70.8694 29.2684 70.0241 30.444 70.0241C31.8967 70.0241 33 71.1188 33 73H41ZM34.002 72H41C41.9994 72 43 73 43 74V77C43 78 41.9994 79 41 79H20.002C19.0006 79 18 78 18 77V74C18 73 19.0006 72 20.002 72H27.002C27.002 70.6557 28.5159 69 30.444 69C32.3433 69 34.002 70.531 34.002 72Z" fill="#333333"/>
<path d="M16.0117 83.8675C16.0117 83.143 16.6114 82.5557 17.3512 82.5557H43.6932C44.433 82.5557 45.0327 83.143 45.0327 83.8675V117.466C45.0327 117.815 44.8912 118.149 44.6395 118.395L38.9758 123.93C38.7247 124.176 38.3844 124.314 38.0296 124.314H17.3512C16.6114 124.314 16.0117 123.726 16.0117 123.002V83.8675Z" fill="white"/>
<path fill-rule="evenodd" clip-rule="evenodd" d="M17.3415 82.085H43.6835C44.9612 82.085 46.023 83.0767 46.023 84.3307V117.322C46.023 117.923 45.7721 118.496 45.3307 118.917L39.6671 124.307C39.2273 124.726 38.6346 124.958 38.0198 124.958H17.3415C16.0637 124.958 15.002 123.967 15.002 122.713L15.002 84.3307C15.002 83.0767 16.0637 82.085 17.3415 82.085ZM17.3415 83.0532C16.6017 83.0532 16.002 83.6252 16.002 84.3307V122.713C16.002 123.418 16.6017 123.99 17.3415 123.99H38.0198C38.3746 123.99 38.7149 123.856 38.966 123.617L44.6297 118.226C44.8815 117.986 45.023 117.661 45.023 117.322V84.3307C45.023 83.6252 44.4232 83.0532 43.6835 83.0532H17.3415Z" fill="#333333"/>
<path fill-rule="evenodd" clip-rule="evenodd" d="M23 86.5C23 86.2239 23.1486 86 23.3319 86H37.6681C37.8514 86 38 86.2239 38 86.5C38 86.7761 37.8514 87 37.6681 87H23.3319C23.1486 87 23 86.7761 23 86.5Z" fill="#333333"/>
<path d="M20 92.6314C20 92.2827 20.279 92 20.6231 92H23H25.3769C25.721 92 26 92.2827 26 92.6314V95V97.3686C26 97.7173 25.721 98 25.3769 98H20.6231C20.279 98 20 97.7173 20 97.3686V92.6314Z" fill="url(#paint2_linear_998_459)"/>
<path d="M20 92.6314C20 92.2827 20.279 92 20.6231 92H23H25.3769C25.721 92 26 92.2827 26 92.6314V95V97.3686C26 97.7173 25.721 98 25.3769 98H20.6231C20.279 98 20 97.7173 20 97.3686V92.6314Z" fill="#BDECFF"/>
<path fill-rule="evenodd" clip-rule="evenodd" d="M26 96.2027V97.3654C26 97.7139 25.721 97.9965 25.3769 97.9965H20.6231C20.279 97.9965 20 97.7139 20 97.3654V92.6306C20 92.2821 20.279 91.9995 20.6231 91.9995H22.5989L23.5989 91H20.6231C19.7142 91 19 91.7426 19 92.6306V97.3654C19 98.2534 19.7142 98.996 20.6231 98.996H25.3769C26.2858 98.996 27 98.2534 27 97.3654V95.2032L26 96.2027Z" fill="#333333"/>
<path fill-rule="evenodd" clip-rule="evenodd" d="M30 93.5002C30 93.2239 30.1501 93 30.3352 93H40.6648C40.8499 93 41 93.2239 41 93.5002C41 93.7764 40.8499 94.0003 40.6648 94.0003H30.3352C30.1501 94.0003 30 93.7764 30 93.5002Z" fill="#333333"/>
<path fill-rule="evenodd" clip-rule="evenodd" d="M30 95.4999C30 95.2237 30.1462 94.9998 30.3266 94.9998H35.6734C35.8538 94.9998 36 95.2237 36 95.4999C36 95.7762 35.8538 96.0001 35.6734 96.0001H30.3266C30.1462 96.0001 30 95.7762 30 95.4999Z" fill="#333333"/>
<path fill-rule="evenodd" clip-rule="evenodd" d="M26.7267 92.3536C26.9215 92.5494 26.9207 92.866 26.7249 93.0607L23.6617 96.1064C23.2684 96.4974 22.6322 96.4937 22.2434 96.0983L21.0869 94.9218C20.8933 94.7248 20.8961 94.4082 21.0932 94.2147V94.2147C21.2901 94.0213 21.6064 94.0241 21.7999 94.2209L22.9566 95.3976L26.02 92.3518C26.2157 92.1572 26.532 92.158 26.7267 92.3536V92.3536Z" fill="#333333"/>
<path d="M20 102.631C20 102.283 20.279 102 20.6231 102H23H25.3769C25.721 102 26 102.283 26 102.631V105V107.369C26 107.717 25.721 108 25.3769 108H20.6231C20.279 108 20 107.717 20 107.369V102.631Z" fill="url(#paint3_linear_998_459)"/>
<path d="M20 102.631C20 102.283 20.279 102 20.6231 102H23H25.3769C25.721 102 26 102.283 26 102.631V105V107.369C26 107.717 25.721 108 25.3769 108H20.6231C20.279 108 20 107.717 20 107.369V102.631Z" fill="#BDECFF"/>
<path fill-rule="evenodd" clip-rule="evenodd" d="M26 106.203V107.365C26 107.714 25.721 107.996 25.3769 107.996H20.6231C20.279 107.996 20 107.714 20 107.365V102.631C20 102.282 20.279 101.999 20.6231 101.999H22.5989L23.5989 101H20.6231C19.7142 101 19 101.743 19 102.631V107.365C19 108.253 19.7142 108.996 20.6231 108.996H25.3769C26.2858 108.996 27 108.253 27 107.365V105.203L26 106.203Z" fill="#333333"/>
<path fill-rule="evenodd" clip-rule="evenodd" d="M30 103.5C30 103.224 30.1501 103 30.3352 103H40.6648C40.8499 103 41 103.224 41 103.5C41 103.776 40.8499 104 40.6648 104H30.3352C30.1501 104 30 103.776 30 103.5Z" fill="#333333"/>
<path fill-rule="evenodd" clip-rule="evenodd" d="M30 105.5C30 105.224 30.1462 105 30.3266 105H35.6734C35.8538 105 36 105.224 36 105.5C36 105.776 35.8538 106 35.6734 106H30.3266C30.1462 106 30 105.776 30 105.5Z" fill="#333333"/>
<path fill-rule="evenodd" clip-rule="evenodd" d="M26.7267 102.354C26.9215 102.549 26.9207 102.866 26.7249 103.061L23.6617 106.106C23.2684 106.497 22.6322 106.494 22.2434 106.098L21.0869 104.922C20.8933 104.725 20.8961 104.408 21.0932 104.215V104.215C21.2901 104.021 21.6064 104.024 21.7999 104.221L22.9566 105.398L26.02 102.352C26.2157 102.157 26.532 102.158 26.7267 102.354V102.354Z" fill="#333333"/>
<path d="M20 112.631C20 112.283 20.279 112 20.6231 112H23H25.3769C25.721 112 26 112.283 26 112.631V115V117.369C26 117.717 25.721 118 25.3769 118H20.6231C20.279 118 20 117.717 20 117.369V112.631Z" fill="url(#paint4_linear_998_459)"/>
<path d="M20 112.631C20 112.283 20.279 112 20.6231 112H23H25.3769C25.721 112 26 112.283 26 112.631V115V117.369C26 117.717 25.721 118 25.3769 118H20.6231C20.279 118 20 117.717 20 117.369V112.631Z" fill="#BDECFF"/>
<path fill-rule="evenodd" clip-rule="evenodd" d="M26 116.203V117.365C26 117.714 25.721 117.996 25.3769 117.996H20.6231C20.279 117.996 20 117.714 20 117.365V112.631C20 112.282 20.279 111.999 20.6231 111.999H22.5989L23.5989 111H20.6231C19.7142 111 19 111.743 19 112.631V117.365C19 118.253 19.7142 118.996 20.6231 118.996H25.3769C26.2858 118.996 27 118.253 27 117.365V115.203L26 116.203Z" fill="#333333"/>
<path fill-rule="evenodd" clip-rule="evenodd" d="M30 113.5C30 113.224 30.1501 113 30.3352 113H40.6648C40.8499 113 41 113.224 41 113.5C41 113.776 40.8499 114 40.6648 114H30.3352C30.1501 114 30 113.776 30 113.5Z" fill="#333333"/>
<path fill-rule="evenodd" clip-rule="evenodd" d="M30 115.5C30 115.224 30.1462 115 30.3266 115H35.6734C35.8538 115 36 115.224 36 115.5C36 115.776 35.8538 116 35.6734 116H30.3266C30.1462 116 30 115.776 30 115.5Z" fill="#333333"/>
<path fill-rule="evenodd" clip-rule="evenodd" d="M26.7267 112.354C26.9215 112.549 26.9207 112.866 26.7249 113.061L23.6617 116.106C23.2684 116.497 22.6322 116.494 22.2434 116.098L21.0869 114.922C20.8933 114.725 20.8961 114.408 21.0932 114.215V114.215C21.2901 114.021 21.6064 114.024 21.7999 114.221L22.9566 115.398L26.02 112.352C26.2157 112.157 26.532 112.158 26.7267 112.354V112.354Z" fill="#333333"/>
<path fill-rule="evenodd" clip-rule="evenodd" d="M39.2405 117.965C39.0551 117.965 39.0298 117.864 39.0298 118.038V124.826H38.0195V118.038C38.0195 117.517 38.6844 117.009 39.2405 117.009H45.5922L45.0325 117.965H39.2405Z" fill="#333333"/>
<path d="M34 167.5H59C60.3807 167.5 61.5 168.619 61.5 170V183C61.5 184.381 60.3807 185.5 59 185.5H52.2314L52.25 186.018L52.4229 190.84C52.4381 191.267 51.9442 191.515 51.6104 191.248L44.5625 185.609L44.4258 185.5H34C32.6193 185.5 31.5 184.381 31.5 183V170C31.5 168.619 32.6193 167.5 34 167.5Z" fill="#D9F4FF" stroke="#333333"/>
<path d="M27 149.5H5C3.61929 149.5 2.5 150.619 2.5 152V163C2.5 164.381 3.61929 165.5 5 165.5H13.7686L13.75 166.018L13.5771 170.84C13.5619 171.267 14.0558 171.515 14.3896 171.248L21.4375 165.609L21.5742 165.5H27C28.3807 165.5 29.5 164.381 29.5 163V152C29.5 150.619 28.3807 149.5 27 149.5Z" fill="url(#paint5_linear_998_459)" stroke="#333333"/>
<path d="M25.1207 149.786C25.1207 155.427 29.6191 160 35.1681 160C40.7172 160 45.2156 155.427 45.2156 149.786C45.2156 144.146 40.7172 139.573 35.1681 139.573C29.6191 139.573 25.1207 144.146 25.1207 149.786Z" fill="white"/>
<path d="M34.7677 139C39.5506 139.001 45.43 142.587 45.549 149.387C45.6038 152.513 44.7567 155.358 42.4867 157.227C42.3383 157.1 41.6006 156.949 41.4236 156.855L38.3753 155.23C37.9755 155.016 37.7265 154.607 37.7265 154.161V152.941C37.7265 152.941 38.6213 151.895 38.9625 150.441C39.2454 150.262 39.4351 149.953 39.4351 149.601V148.265C39.4351 147.971 39.3013 147.708 39.0935 147.524V145.593C39.0935 145.593 39.4995 142.587 35.3347 142.587C31.17 142.587 31.5759 145.593 31.5759 145.593V147.524C31.3677 147.708 31.2344 147.971 31.2344 148.265V149.601C31.2344 150.05 31.5428 150.428 31.9614 150.554C32.1947 151.263 32.5312 151.938 32.9761 152.553C33.0883 152.707 33.1932 152.838 33.2849 152.941V154.192C33.2849 154.653 33.0185 155.075 32.5968 155.28L29.206 156.707C29.0101 156.803 28.12 157.198 27.9569 157.333C25.913 155.256 24.5515 153.097 24.5515 149.885C24.5515 143.44 30.0685 138.999 34.7677 139Z" fill="url(#paint6_linear_998_459)"/>
<path d="M35.1677 139.073C29.335 139.073 24.6208 143.878 24.6208 149.787C24.621 155.696 29.3351 160.499 35.1677 160.5C41.0005 160.5 45.7154 155.696 45.7156 149.787C45.7156 143.877 41.0006 139.073 35.1677 139.073Z" stroke="#333333"/>
<path d="M15.5692 186.71C15.5692 192.351 20.0676 196.924 25.6166 196.924C31.1657 196.924 35.6641 192.351 35.6641 186.71C35.6641 181.069 31.1657 176.497 25.6166 176.497C20.0676 176.497 15.5692 181.069 15.5692 186.71Z" fill="white"/>
<path d="M25.2162 175.924C29.9991 175.925 35.8784 179.511 35.9975 186.311C36.0523 189.437 35.2051 192.282 32.9352 194.15C32.7868 194.024 32.049 193.873 31.8721 193.778L28.8238 192.153C28.424 191.94 28.175 191.531 28.175 191.085V189.864C28.175 189.864 29.0698 188.818 29.4109 187.365C29.6939 187.186 29.8836 186.877 29.8836 186.525V185.189C29.8836 184.895 29.7498 184.632 29.542 184.448V182.517C29.542 182.517 29.948 179.511 25.7832 179.511C21.6185 179.511 22.0244 182.517 22.0244 182.517V184.448C21.8162 184.632 21.6828 184.895 21.6828 185.189V186.525C21.6828 186.974 21.9913 187.352 22.4099 187.478C22.6432 188.187 22.9797 188.862 23.4246 189.476C23.5368 189.631 23.6417 189.762 23.7334 189.864V191.116C23.7334 191.577 23.467 191.999 23.0453 192.204L19.6545 193.631C19.4586 193.727 18.5685 194.122 18.4054 194.257C16.3614 192.18 15 190.021 15 186.809C15 180.364 20.517 175.922 25.2162 175.924Z" fill="#9ADAF3"/>
<path d="M25.6162 175.997C19.7835 175.997 15.0693 180.801 15.0693 186.71C15.0695 192.619 19.7836 197.423 25.6162 197.423C31.449 197.423 36.1639 192.619 36.1641 186.71C36.1641 180.801 31.4491 175.997 25.6162 175.997Z" stroke="#333333"/>
<rect x="38" y="174" width="16" height="1" rx="0.5" fill="#333333"/>
<path d="M38 177.5C38 177.224 38.2239 177 38.5 177H49.5C49.7761 177 50 177.224 50 177.5V177.5C50 177.776 49.7761 178 49.5 178H38.5C38.2239 178 38 177.776 38 177.5V177.5Z" fill="#333333"/>
<circle cx="11" cy="158" r="1" fill="white"/>
<circle cx="15" cy="158" r="1" fill="white"/>
<circle cx="19" cy="158" r="1" fill="white"/>
<rect x="5.5" y="211.5" width="53" height="36" rx="1.5" stroke="#333333"/>
<path fill-rule="evenodd" clip-rule="evenodd" d="M54.8952 215H10.3478C9.59526 215 9 215.603 9 216.328V242.672C9 243.397 9.59526 244 10.3478 244H53.6522C54.4047 244 55 243.397 55 242.672C55 234.447 54.7792 223.225 54.8952 215ZM55.9326 215.558C55.9326 223.704 56 234.524 56 242.672C56 243.958 54.9488 245 53.6522 245H10.3478C9.05116 245 8 243.958 8 242.672V216.328C8 215.042 9.05116 214 10.3478 214H54.4569C55.489 214 55.9326 214.764 55.9326 215.558Z" fill="#333333"/>
<path fill-rule="evenodd" clip-rule="evenodd" d="M30.8997 238.779L23.4744 235.064C22.8419 234.74 22.8419 234.239 23.4744 233.944L26.0595 232.647L30.8722 235.064C31.5048 235.389 32.5223 235.389 33.1273 235.064L37.9401 232.647L40.5252 233.944C41.1577 234.268 41.1577 234.769 40.5252 235.064L33.0998 238.779C32.5223 239.073 31.5048 239.073 30.8997 238.779Z" fill="url(#paint7_linear_998_459)"/>
<path fill-rule="evenodd" clip-rule="evenodd" d="M30.8757 233.992L23.473 230.273C22.8423 229.948 22.8423 229.447 23.473 229.151L25.9954 227.882L30.8757 230.273C31.5063 230.598 32.5207 230.598 33.1239 230.273L38.0042 227.882L40.5266 229.151C41.1572 229.476 41.1572 229.978 40.5266 230.273L33.1239 233.992C32.4933 234.316 31.4789 234.316 30.8757 233.992Z" fill="url(#paint8_linear_998_459)"/>
<path fill-rule="evenodd" clip-rule="evenodd" d="M30.8757 229.263L23.473 225.772C22.8423 225.467 22.8423 224.996 23.473 224.719L30.8757 221.229C31.5063 220.924 32.5207 220.924 33.1239 221.229L40.5267 224.719C41.1573 225.024 41.1573 225.495 40.5267 225.772L33.1239 229.263C32.4933 229.54 31.4789 229.54 30.8757 229.263Z" fill="url(#paint9_linear_998_459)"/>
<rect x="16.5" y="254.5" width="31" height="3" rx="1.5" stroke="#333333"/>
<rect x="23" y="250" width="1" height="4" fill="#333333"/>
<path d="M40 250H41V254H40V250Z" fill="#333333"/>
<path d="M13.8223 284.822C23.5854 275.059 39.4146 275.059 49.1777 284.822C58.9408 294.585 58.9408 310.415 49.1777 320.178C39.4146 329.941 23.5854 329.941 13.8223 320.178C4.05916 310.415 4.05916 294.585 13.8223 284.822ZM40.6924 293.308C35.6156 288.231 27.3844 288.231 22.3076 293.308C17.2308 298.384 17.2308 306.616 22.3076 311.692C27.3844 316.769 35.6156 316.769 40.6924 311.692C45.7692 306.616 45.7692 298.384 40.6924 293.308Z" fill="url(#paint10_linear_998_459)" stroke="#333333"/>
<path fill-rule="evenodd" clip-rule="evenodd" d="M16.8262 322.124C15.9023 321.431 15.0162 320.664 14.1759 319.824C13.3356 318.984 12.5691 318.098 11.8765 317.174L19.8031 309.247C20.3812 310.248 21.0981 311.19 21.9541 312.046C22.81 312.902 23.7523 313.619 24.7529 314.197L16.8262 322.124ZM48.8241 319.824C47.9839 320.664 47.0977 321.431 46.1738 322.124L38.2471 314.197C39.2477 313.619 40.19 312.902 41.046 312.046C41.9019 311.19 42.6189 310.248 43.1969 309.247L51.1236 317.174C50.4309 318.098 49.6644 318.984 48.8241 319.824ZM48.8241 285.176C49.6644 286.016 50.4309 286.902 51.1236 287.826L43.1969 295.753C42.6189 294.752 41.9019 293.81 41.046 292.954C40.19 292.098 39.2477 291.381 38.2471 290.803L46.1738 282.876C47.0977 283.569 47.9839 284.336 48.8241 285.176ZM14.1759 285.176C15.0162 284.336 15.9023 283.569 16.8262 282.876L24.7529 290.803C23.7523 291.381 22.81 292.098 21.9541 292.954C21.0981 293.81 20.3812 294.752 19.8031 295.753L11.8765 287.826C12.5691 286.902 13.3356 286.016 14.1759 285.176Z" fill="white"/>
<path fill-rule="evenodd" clip-rule="evenodd" d="M16.9201 323.444L16.2263 322.924C15.2646 322.203 14.3426 321.405 13.4687 320.531C12.5949 319.657 11.7973 318.735 11.0763 317.774L10.5562 317.08L20.0173 307.619L20.669 308.747C21.2037 309.673 21.8675 310.545 22.6611 311.339C23.4548 312.132 24.3274 312.796 25.2531 313.331L26.3812 313.983L16.9201 323.444ZM46.0798 323.444L36.6187 313.983L37.7469 313.331C38.6725 312.796 39.5451 312.132 40.3388 311.339C41.1325 310.545 41.7962 309.673 42.3309 308.747L42.9827 307.619L52.4438 317.08L51.9236 317.774C51.2026 318.735 50.4051 319.657 49.5312 320.531C48.6573 321.405 47.7353 322.203 46.7736 322.924L46.0798 323.444ZM52.4438 287.92L42.9827 297.381L42.3309 296.253C41.7962 295.327 41.1325 294.455 40.3388 293.661C39.5451 292.867 38.6725 292.204 37.7469 291.669L36.6187 291.017L46.0798 281.556L46.7736 282.076C47.7353 282.797 48.6573 283.595 49.5312 284.469C50.4051 285.343 51.2026 286.265 51.9236 287.226L52.4438 287.92ZM16.9201 281.556L26.3812 291.017L25.2531 291.669C24.3274 292.204 23.4548 292.867 22.6611 293.661C21.8675 294.455 21.2037 295.327 20.669 296.253L20.0173 297.381L10.5562 287.92L11.0763 287.226C11.7973 286.265 12.5949 285.343 13.4687 284.469C14.3426 283.595 15.2646 282.797 16.2263 282.076L16.9201 281.556ZM16.8262 322.124C15.9022 321.431 15.0161 320.664 14.1759 319.824C13.3356 318.984 12.5691 318.098 11.8764 317.174L19.8031 309.247C19.9732 309.542 20.1554 309.831 20.3496 310.115C20.8152 310.795 21.35 311.442 21.954 312.046C22.558 312.65 23.205 313.185 23.8852 313.65C24.1689 313.845 24.4583 314.027 24.7528 314.197L16.8262 322.124ZM39.1148 313.65C39.7949 313.185 40.4419 312.65 41.0459 312.046C41.6499 311.442 42.1847 310.795 42.6503 310.115C42.8445 309.831 43.0267 309.542 43.1968 309.247L51.1235 317.174C50.4308 318.098 49.6644 318.984 48.8241 319.824C47.9838 320.664 47.0977 321.431 46.1738 322.124L38.2471 314.197C38.5416 314.027 38.8311 313.845 39.1148 313.65ZM46.1738 282.876C47.0977 283.569 47.9838 284.336 48.8241 285.176C49.6644 286.016 50.4308 286.902 51.1235 287.826L43.1968 295.753C43.0267 295.458 42.8445 295.169 42.6503 294.885C42.1847 294.205 41.6499 293.558 41.0459 292.954C40.4419 292.35 39.7949 291.815 39.1148 291.35C38.8311 291.155 38.5416 290.973 38.2471 290.803L46.1738 282.876ZM23.8852 291.35C23.205 291.815 22.558 292.35 21.954 292.954C21.35 293.558 20.8152 294.205 20.3496 294.885C20.1554 295.169 19.9732 295.458 19.8031 295.753L11.8764 287.826C12.5691 286.902 13.3356 286.016 14.1759 285.176C15.0161 284.336 15.9022 283.569 16.8262 282.876L24.7528 290.803C24.4583 290.973 24.1689 291.155 23.8852 291.35Z" fill="#333333"/>
<path fill-rule="evenodd" clip-rule="evenodd" d="M43.056 326.58C53.1095 329.083 59.6978 319.897 55.9169 312.248L56.8133 311.805C60.991 320.257 53.6519 330.249 42.8145 327.551L43.056 326.58ZM9.347 279.245C12.2854 276.378 16.8363 275.119 21.76 276.669L21.4597 277.623C16.8698 276.178 12.7073 277.363 10.0454 279.961C7.38395 282.558 6.1856 286.602 7.59802 290.97L6.64653 291.278C5.11955 286.556 6.40822 282.113 9.347 279.245ZM9.47129 323.903C11.9369 326.536 16.0723 327.731 20.8795 325.992L21.2197 326.932C16.0788 328.792 11.5097 327.543 8.74133 324.586C5.97674 321.634 5.07607 317.049 7.1167 312.388L8.03274 312.789C6.13917 317.114 7.0019 321.265 9.47129 323.903ZM41.7963 276.668C52.1079 273.563 59.9515 282.318 57.3403 290.772L56.3848 290.477C58.7477 282.827 51.6692 274.74 42.0846 277.625L41.7963 276.668Z" fill="#333333"/>
<defs>
<linearGradient id="paint0_linear_998_459" x1="4.17899" y1="1.35421" x2="36.1894" y2="36.6128" gradientUnits="userSpaceOnUse">
<stop stop-color="#FFC671"/>
<stop offset="1" stop-color="#FF6F3D"/>
</linearGradient>
<linearGradient id="paint1_linear_998_459" x1="18" y1="69.6875" x2="22.504" y2="84.3122" gradientUnits="userSpaceOnUse">
<stop stop-color="#FFC671"/>
<stop offset="0.59375" stop-color="#FF7541"/>
<stop offset="1" stop-color="#FF6F3D"/>
</linearGradient>
<linearGradient id="paint2_linear_998_459" x1="20" y1="91.7656" x2="26" y2="98" gradientUnits="userSpaceOnUse">
<stop stop-color="#FFC671"/>
<stop offset="0.59375" stop-color="#FF7541"/>
<stop offset="1" stop-color="#FF6F3D"/>
</linearGradient>
<linearGradient id="paint3_linear_998_459" x1="20" y1="101.766" x2="26" y2="108" gradientUnits="userSpaceOnUse">
<stop stop-color="#FFC671"/>
<stop offset="0.59375" stop-color="#FF7541"/>
<stop offset="1" stop-color="#FF6F3D"/>
</linearGradient>
<linearGradient id="paint4_linear_998_459" x1="20" y1="111.766" x2="26" y2="118" gradientUnits="userSpaceOnUse">
<stop stop-color="#FFC671"/>
<stop offset="0.59375" stop-color="#FF7541"/>
<stop offset="1" stop-color="#FF6F3D"/>
</linearGradient>
<linearGradient id="paint5_linear_998_459" x1="29.9999" y1="148.062" x2="6.42042" y2="176.647" gradientUnits="userSpaceOnUse">
<stop stop-color="#FF8E3D"/>
<stop offset="1" stop-color="#FF6F3D"/>
</linearGradient>
<linearGradient id="paint6_linear_998_459" x1="35.0515" y1="139" x2="35.0515" y2="157.333" gradientUnits="userSpaceOnUse">
<stop stop-color="#FF8E3D"/>
<stop offset="1" stop-color="#FF6F3D"/>
</linearGradient>
<linearGradient id="paint7_linear_998_459" x1="23" y1="232.399" x2="26.8722" y2="243.798" gradientUnits="userSpaceOnUse">
<stop stop-color="#FFC671"/>
<stop offset="0.59375" stop-color="#FF7541"/>
<stop offset="1" stop-color="#FF6F3D"/>
</linearGradient>
<linearGradient id="paint8_linear_998_459" x1="23" y1="227.634" x2="26.8722" y2="239.034" gradientUnits="userSpaceOnUse">
<stop stop-color="#FFC671"/>
<stop offset="0.59375" stop-color="#FF7541"/>
<stop offset="1" stop-color="#FF6F3D"/>
</linearGradient>
<linearGradient id="paint9_linear_998_459" x1="23" y1="220.669" x2="29.3713" y2="234.737" gradientUnits="userSpaceOnUse">
<stop stop-color="#FFC671"/>
<stop offset="0.59375" stop-color="#FF7541"/>
<stop offset="1" stop-color="#FF6F3D"/>
</linearGradient>
<linearGradient id="paint10_linear_998_459" x1="7.00009" y1="276.086" x2="56.0001" y2="327" gradientUnits="userSpaceOnUse">
<stop stop-color="#FFC671"/>
<stop offset="0.59375" stop-color="#FF7541"/>
<stop offset="1" stop-color="#FF6F3D"/>
</linearGradient>
<clipPath id="clip0_998_459">
<rect width="64" height="64" fill="white"/>
</clipPath>
</defs>
</svg>
