<svg width="635" height="480" viewBox="0 0 635 480" fill="none" xmlns="http://www.w3.org/2000/svg">
<g clip-path="url(#clip0_4428_9610)">
<path d="M317.716 478.5C492.79 478.5 634.716 473.799 634.716 468C634.716 462.201 492.79 457.5 317.716 457.5C142.642 457.5 0.71582 462.201 0.71582 468C0.71582 473.799 142.642 478.5 317.716 478.5Z" fill="black" fill-opacity="0.06"/>
<path d="M535.088 482.841C590.111 482.841 634.716 477.168 634.716 470.17C634.716 463.173 590.111 457.5 535.088 457.5C480.066 457.5 435.461 463.173 435.461 470.17C435.461 477.168 480.066 482.841 535.088 482.841Z" fill="black" fill-opacity="0.06"/>
<path d="M385.716 464H218.716L234.753 404H369.678L385.716 464Z" fill="#E2E2E2"/>
<path fill-rule="evenodd" clip-rule="evenodd" d="M385.716 464L369.678 404H234.753L218.716 464H385.716ZM384.413 463L368.91 405H235.521L220.018 463H384.413Z" fill="#444444"/>
<path d="M417.716 466H170.716L172.104 462.835C175.691 454.51 183.905 449 192.928 449H395.619C404.643 449 412.741 454.393 416.443 462.835L417.716 466Z" fill="#EFEFEF"/>
<path fill-rule="evenodd" clip-rule="evenodd" d="M172.104 462.835L170.716 466H417.716L416.443 462.835C412.741 454.393 404.643 449 395.619 449H192.928C183.905 449 175.691 454.51 172.104 462.835ZM415.521 463.222C411.971 455.141 404.228 450 395.619 450H192.928C184.313 450 176.455 455.264 173.023 463.23L173.02 463.236L172.246 465H416.236L415.521 463.222Z" fill="#333333"/>
<path d="M553.583 412.5H48.9109C41.861 412.5 37.2162 406.664 37.2162 399.466L37.2158 53.0955C37.2158 45.9674 43.672 39.5 50.787 39.5H554.521C561.535 39.5 566.216 46.1168 566.216 53.4739V399.844C566.216 407.085 560.701 412.5 553.583 412.5Z" fill="#F9F9F9" stroke="#333333"/>
<path d="M35.3305 343.5H566.215L566.1 399.573V399.574C566.1 406.753 560.311 412.5 553.063 412.5H48.253C41.1203 412.5 35.2158 406.638 35.2158 399.574L35.3305 343.5Z" fill="#EFEFEF" stroke="#333333"/>
<path d="M52.2158 329.5V53.5H551.216V329.5H52.2158Z" fill="white" stroke="#E2E2E2"/>
<rect x="99.2158" y="246.5" width="76" height="57" rx="2.5" fill="#F9F9F9" stroke="#CCCCCC"/>
<path d="M257.907 303.5H191.525C191.521 303.5 191.509 303.5 191.484 303.483C191.456 303.465 191.416 303.428 191.373 303.361C191.286 303.225 191.216 303.005 191.216 302.733V247.267C191.216 246.995 191.286 246.775 191.373 246.639C191.416 246.572 191.456 246.535 191.484 246.517C191.509 246.5 191.521 246.5 191.525 246.5H257.907C257.91 246.5 257.923 246.5 257.948 246.517C257.975 246.535 258.016 246.572 258.058 246.639C258.145 246.775 258.216 246.995 258.216 247.267V302.663C258.216 302.978 258.142 303.217 258.054 303.36C258.011 303.43 257.971 303.467 257.945 303.484C257.921 303.5 257.91 303.5 257.907 303.5Z" fill="#F3FFFE" stroke="#9ADAF3"/>
<path d="M213.871 274.152L220.095 282.665C220.457 283.16 221.175 283.216 221.608 282.782C229.199 275.166 238.716 265.312 238.716 265.312" stroke="#9ADAF3" stroke-width="2" stroke-linecap="round"/>
<path d="M42.3446 463.761C42.9362 464.413 43.4841 465.006 43.9014 465.454H30.3184C30.3484 465.315 30.3812 465.153 30.4156 464.967C30.5546 464.216 30.7195 463.081 30.8292 461.524C31.0485 458.41 31.0469 453.608 30.176 446.815L30.176 446.815C29.8745 444.483 29.5009 441.879 29.098 439.071C27.1753 425.668 24.588 407.632 26.016 392.591C27.389 378.401 25.3798 360.854 23.7732 348.295C27.6886 348.242 31.6043 348.215 35.5218 348.187L35.5227 348.187C39.4482 348.159 43.3756 348.132 47.3034 348.079C46.7301 359.026 46.0415 370.27 44.9124 376.029C42.7121 386.916 36.9317 431.421 36.5803 437.132C36.3465 440.003 36.4353 445.001 36.7974 449.549C36.9787 451.826 37.2296 454.005 37.5462 455.757C37.7043 456.633 37.8805 457.412 38.0757 458.048C38.2652 458.666 38.4875 459.201 38.762 459.552C39.5895 460.673 41.0771 462.364 42.3446 463.761Z" fill="white" stroke="#333333"/>
<path d="M69.2414 463.872C69.8078 464.109 70.3687 464.338 70.9098 464.555L69.2946 464.304L69.2694 464.3L69.2439 464.299L58.1456 463.721L58.0623 463.716L57.9822 463.739L53.1378 465.123C53.1547 465.039 53.1723 464.948 53.1903 464.851C53.3293 464.1 53.4942 462.965 53.6038 461.408C53.8231 458.294 53.8215 453.492 52.9507 446.7L52.9506 446.699C52.4644 442.939 51.703 438.901 50.8771 434.521C48.7358 423.166 46.1612 409.512 46.8272 392.447L46.8273 392.443C47.2516 379.182 44.8645 363.12 43.0407 350.849C42.8996 349.9 42.7618 348.973 42.629 348.071C46.5974 348.071 50.573 348.066 54.5496 347.956L54.5504 347.956C58.3103 347.845 62.1776 347.841 65.9552 347.84C66.0074 349.928 66.0866 352.047 66.1657 354.165C66.2728 357.035 66.3799 359.904 66.4203 362.694C66.4924 367.689 66.3466 372.326 65.6062 376.029L65.6054 376.033C63.518 386.934 59.7007 431.48 59.2397 437.127C59.0054 439.997 59.0941 444.998 59.4564 449.548C59.6377 451.826 59.8887 454.004 60.2052 455.757C60.3634 456.633 60.5396 457.412 60.7347 458.048C60.9243 458.666 61.1467 459.201 61.4214 459.552C61.6773 459.896 62.1049 460.244 62.6051 460.582C63.1194 460.929 63.7535 461.294 64.4568 461.664C65.8642 462.403 67.5807 463.176 69.2414 463.872Z" fill="white" stroke="#333333"/>
<path d="M65.1994 461.834C65.3155 461.761 65.4128 461.698 65.4898 461.647C65.5677 461.67 65.6657 461.7 65.7843 461.737C66.1377 461.846 66.6735 462.015 67.4009 462.253C68.8557 462.728 71.0767 463.478 74.1361 464.575L74.1657 464.586L74.1963 464.593C74.3495 464.627 74.5831 464.747 74.8525 464.959C75.1125 465.162 75.3648 465.418 75.5559 465.667C75.6788 465.826 75.7589 465.96 75.8059 466.06C73.4659 466.377 68.3615 466.377 65.4222 466.264C63.4094 466.186 61.3603 466.186 59.5091 466.186C58.5897 466.186 57.7192 466.186 56.9262 466.177C55.7211 466.162 54.6989 466.126 53.9331 466.039C53.5495 465.995 53.2478 465.941 53.0273 465.876C52.9177 465.844 52.8382 465.812 52.7833 465.783C52.7352 465.758 52.7175 465.742 52.7153 465.74L52.7109 465.735C52.5907 465.602 52.4927 465.274 52.5085 464.692C52.5235 464.145 52.6344 463.496 52.7829 462.86C52.912 462.306 53.0658 461.778 53.1985 461.357C53.4512 461.648 53.7879 461.986 54.2152 462.318C55.3235 463.176 57.0325 463.978 59.4278 463.794C61.1874 463.672 62.7529 463.097 63.8708 462.561C64.4318 462.292 64.885 462.029 65.1994 461.834Z" fill="#446995" stroke="#333333"/>
<path d="M41.0071 461.816C41.0906 461.757 41.163 461.704 41.2237 461.658C41.2855 461.678 41.3588 461.703 41.4437 461.732C41.7618 461.841 42.2426 462.01 42.8896 462.247C44.1837 462.722 46.1428 463.471 48.7958 464.567L48.822 464.577L48.8493 464.585C48.9359 464.61 49.1179 464.717 49.3557 464.934C49.5789 465.138 49.8035 465.395 49.9773 465.646C50.0954 465.817 50.1738 465.961 50.2191 466.07C48.2117 466.376 43.7281 466.376 41.147 466.264C39.3643 466.186 37.5438 466.186 35.9017 466.186C35.0877 466.186 34.3175 466.186 33.6175 466.177C32.5498 466.162 31.6497 466.126 30.9796 466.04C30.6438 465.997 30.3853 465.943 30.2007 465.881C30.0311 465.825 29.9747 465.778 29.9654 465.77C29.9637 465.769 29.9635 465.768 29.9645 465.77L29.9598 465.763L29.9549 465.757C29.9078 465.698 29.8529 465.586 29.8141 465.391C29.776 465.201 29.7595 464.964 29.7646 464.688C29.7746 464.135 29.8695 463.482 29.997 462.844C30.0975 462.341 30.2161 461.859 30.3229 461.46C30.5336 461.721 30.8007 462.013 31.1288 462.299C32.1201 463.164 33.6652 463.98 35.8479 463.793C37.4443 463.67 38.8429 463.089 39.8329 462.549C40.3303 462.278 40.7302 462.014 41.0071 461.816ZM50.2669 466.234C50.2668 466.234 50.2668 466.233 50.2668 466.231C50.267 466.233 50.267 466.234 50.2669 466.234Z" fill="#446995" stroke="#333333"/>
<mask id="path-17-inside-1_4428_9610" fill="white">
<path fill-rule="evenodd" clip-rule="evenodd" d="M76.7936 183.956C76.1294 185.966 75.3658 188.277 73.8892 189.304L74.9296 190.229L77.3574 193.235C77.3574 193.235 78.7271 191.573 80.2668 189.817C80.2957 189.803 80.325 189.789 80.3545 189.775C80.8624 189.537 81.4436 189.263 81.8667 189.021C82.0661 188.907 82.3007 188.765 82.553 188.613C83.3246 188.145 84.2627 187.577 84.8725 187.403C86.0286 187.056 89.3812 184.859 89.728 184.281C90.0749 183.703 89.2656 182.547 87.8783 183.01C87.2808 183.159 85.9113 183.598 85.0167 183.89C84.9858 183.608 84.9553 183.299 84.9875 182.945C85.0933 182.364 85.4654 182.096 85.8158 181.845C86.2311 181.546 86.6158 181.27 86.4904 180.518C86.4543 180.301 86.4182 180.042 86.3794 179.764C86.17 178.262 85.8835 176.208 85.1031 177.281C84.5862 178.093 82.7017 178.811 80.9857 179.465C80.015 179.834 79.0982 180.184 78.5135 180.518C77.7938 180.929 77.3255 182.346 76.7936 183.956Z"/>
</mask>
<path fill-rule="evenodd" clip-rule="evenodd" d="M76.7936 183.956C76.1294 185.966 75.3658 188.277 73.8892 189.304L74.9296 190.229L77.3574 193.235C77.3574 193.235 78.7271 191.573 80.2668 189.817C80.2957 189.803 80.325 189.789 80.3545 189.775C80.8624 189.537 81.4436 189.263 81.8667 189.021C82.0661 188.907 82.3007 188.765 82.553 188.613C83.3246 188.145 84.2627 187.577 84.8725 187.403C86.0286 187.056 89.3812 184.859 89.728 184.281C90.0749 183.703 89.2656 182.547 87.8783 183.01C87.2808 183.159 85.9113 183.598 85.0167 183.89C84.9858 183.608 84.9553 183.299 84.9875 182.945C85.0933 182.364 85.4654 182.096 85.8158 181.845C86.2311 181.546 86.6158 181.27 86.4904 180.518C86.4543 180.301 86.4182 180.042 86.3794 179.764C86.17 178.262 85.8835 176.208 85.1031 177.281C84.5862 178.093 82.7017 178.811 80.9857 179.465C80.015 179.834 79.0982 180.184 78.5135 180.518C77.7938 180.929 77.3255 182.346 76.7936 183.956Z" fill="white"/>
<path d="M73.8892 189.304L73.3181 188.483L72.276 189.208L73.2248 190.051L73.8892 189.304ZM76.7936 183.956L75.8441 183.642L76.7936 183.956ZM74.9296 190.229L75.7076 189.6L75.6557 189.536L75.594 189.481L74.9296 190.229ZM77.3574 193.235L76.5795 193.863L77.3494 194.816L78.1289 193.871L77.3574 193.235ZM80.2668 189.817L79.8409 188.912L79.6522 189.001L79.5147 189.158L80.2668 189.817ZM80.3545 189.775L79.9289 188.871L79.9288 188.871L80.3545 189.775ZM81.8667 189.021L82.3628 189.89H82.3628L81.8667 189.021ZM82.553 188.613L83.0711 189.468L82.553 188.613ZM84.8725 187.403L85.1473 188.364L85.1599 188.361L84.8725 187.403ZM89.728 184.281L88.8705 183.767L88.8705 183.767L89.728 184.281ZM87.8783 183.01L88.1208 183.98L88.1581 183.97L88.1945 183.958L87.8783 183.01ZM85.0167 183.89L84.0226 183.999L84.1567 185.222L85.3269 184.841L85.0167 183.89ZM84.9875 182.945L84.0036 182.767L83.9956 182.81L83.9916 182.855L84.9875 182.945ZM85.8158 181.845L85.2325 181.032L85.8158 181.845ZM86.4904 180.518L85.504 180.682V180.682L86.4904 180.518ZM86.3794 179.764L85.389 179.902V179.902L86.3794 179.764ZM85.1031 177.281L84.2944 176.692L84.2761 176.718L84.2594 176.744L85.1031 177.281ZM80.9857 179.465L80.6297 178.53V178.53L80.9857 179.465ZM78.5135 180.518L78.0173 179.649L78.5135 180.518ZM74.4602 190.125C75.4086 189.465 76.0612 188.447 76.5479 187.43C77.0389 186.405 77.4151 185.262 77.7431 184.269L75.8441 183.642C75.5079 184.659 75.1702 185.677 74.7441 186.566C74.3139 187.465 73.8464 188.115 73.3181 188.483L74.4602 190.125ZM75.594 189.481L74.5535 188.557L73.2248 190.051L74.2652 190.976L75.594 189.481ZM78.1353 192.606L75.7076 189.6L74.1517 190.857L76.5795 193.863L78.1353 192.606ZM79.5147 189.158C78.7393 190.042 78.0075 190.902 77.47 191.54C77.2011 191.859 76.9804 192.123 76.8269 192.308C76.7501 192.4 76.69 192.473 76.6491 192.522C76.6286 192.547 76.6129 192.566 76.6023 192.579C76.597 192.585 76.5929 192.59 76.5902 192.593C76.5888 192.595 76.5877 192.596 76.587 192.597C76.5867 192.597 76.5864 192.598 76.5862 192.598C76.5861 192.598 76.586 192.598 76.586 192.598C76.5859 192.598 76.5859 192.598 76.5859 192.598C76.5859 192.598 76.5859 192.598 77.3574 193.235C78.1289 193.871 78.1289 193.871 78.1289 193.871C78.1289 193.871 78.1289 193.871 78.129 193.871C78.129 193.871 78.129 193.871 78.1291 193.871C78.1292 193.87 78.1295 193.87 78.1298 193.87C78.1304 193.869 78.1313 193.868 78.1326 193.866C78.1351 193.863 78.1389 193.859 78.144 193.853C78.1542 193.84 78.1694 193.822 78.1894 193.798C78.2294 193.749 78.2884 193.678 78.3641 193.587C78.5155 193.405 78.7335 193.144 78.9995 192.829C79.5318 192.197 80.2546 191.348 81.0188 190.476L79.5147 189.158ZM79.9288 188.871C79.8994 188.884 79.87 188.898 79.8409 188.912L80.6926 190.722C80.7215 190.708 80.7506 190.694 80.7802 190.68L79.9288 188.871ZM81.3706 188.153C80.9894 188.371 80.4488 188.626 79.9289 188.871L80.7802 190.68C81.2759 190.447 81.8977 190.155 82.3628 189.89L81.3706 188.153ZM82.035 187.757C81.7792 187.912 81.5566 188.047 81.3706 188.153L82.3628 189.89C82.5756 189.768 82.8221 189.619 83.0711 189.468L82.035 187.757ZM84.5978 186.441C84.1792 186.561 83.71 186.793 83.2944 187.02C82.864 187.255 82.417 187.526 82.035 187.757L83.0711 189.468C83.4607 189.232 83.8685 188.985 84.2525 188.776C84.6513 188.558 84.956 188.419 85.1472 188.364L84.5978 186.441ZM88.8705 183.767C88.9084 183.704 88.9146 183.718 88.793 183.829C88.6944 183.919 88.5546 184.034 88.3766 184.171C88.0222 184.443 87.5575 184.767 87.06 185.09C86.5632 185.411 86.0465 185.723 85.5904 185.973C85.1143 186.233 84.7664 186.391 84.5852 186.445L85.1599 188.361C85.5567 188.242 86.0613 187.995 86.5499 187.727C87.0584 187.449 87.6183 187.111 88.1475 186.768C88.676 186.426 89.1867 186.07 89.5946 185.757C89.7978 185.601 89.9858 185.448 90.1415 185.306C90.2741 185.185 90.461 185.003 90.5855 184.796L88.8705 183.767ZM88.1945 183.958C88.3918 183.893 88.5268 183.897 88.6078 183.913C88.6912 183.93 88.746 183.963 88.7792 183.994C88.8171 184.028 88.8193 184.05 88.8143 184.032C88.81 184.016 88.7876 183.905 88.8705 183.767L90.5855 184.796C91.0991 183.94 90.6538 182.997 90.1277 182.517C89.5115 181.954 88.5783 181.722 87.5621 182.061L88.1945 183.958ZM85.3269 184.841C86.2358 184.544 87.5657 184.119 88.1208 183.98L87.6358 182.04C86.9959 182.199 85.5868 182.652 84.7064 182.939L85.3269 184.841ZM83.9916 182.855C83.9497 183.316 83.9911 183.712 84.0226 183.999L86.0107 183.781C85.9805 183.505 85.961 183.282 85.9834 183.036L83.9916 182.855ZM85.2325 181.032C84.8886 181.279 84.1881 181.752 84.0036 182.767L85.9714 183.124C85.9889 183.028 86.0195 182.979 86.0616 182.931C86.1242 182.859 86.2101 182.793 86.3991 182.657L85.2325 181.032ZM85.504 180.682C85.5201 180.779 85.513 180.819 85.5126 180.821C85.5124 180.822 85.513 180.818 85.5156 180.812C85.5182 180.806 85.5207 180.801 85.5215 180.8C85.5222 180.799 85.5105 180.817 85.4618 180.859C85.4084 180.905 85.3432 180.953 85.2325 181.032L86.3991 182.657C86.5753 182.53 86.9383 182.284 87.1902 181.903C87.4837 181.459 87.5741 180.937 87.4768 180.353L85.504 180.682ZM85.389 179.902C85.4272 180.176 85.4653 180.45 85.504 180.682L87.4768 180.353C87.4433 180.153 87.4092 179.908 87.3698 179.626L85.389 179.902ZM85.9118 177.869C85.9693 177.79 85.9508 177.844 85.8386 177.903C85.6783 177.987 85.4251 178.026 85.1798 177.911C85.0827 177.866 85.0207 177.811 84.9889 177.779C84.9724 177.762 84.9612 177.748 84.9547 177.74C84.9482 177.731 84.9451 177.726 84.945 177.726C84.9448 177.726 84.9468 177.729 84.9505 177.736C84.9543 177.744 84.9593 177.754 84.9655 177.768C84.978 177.796 84.993 177.833 85.0099 177.882C85.1662 178.336 85.2787 179.111 85.389 179.902L87.3698 179.626C87.2708 178.915 87.1353 177.912 86.9009 177.231C86.8393 177.052 86.7574 176.854 86.6444 176.672C86.5399 176.503 86.3481 176.249 86.0248 176.098C85.6397 175.919 85.2345 175.961 84.9083 176.132C84.6302 176.279 84.432 176.503 84.2944 176.692L85.9118 177.869ZM81.3417 180.399C82.1891 180.076 83.1326 179.718 83.9294 179.332C84.3295 179.139 84.7181 178.927 85.0533 178.694C85.3784 178.468 85.7153 178.181 85.9468 177.818L84.2594 176.744C84.2325 176.786 84.14 176.893 83.9127 177.051C83.6956 177.202 83.4089 177.362 83.0588 177.532C82.3551 177.872 81.4983 178.199 80.6297 178.53L81.3417 180.399ZM79.0096 181.386C79.5104 181.1 80.3385 180.781 81.3417 180.399L80.6297 178.53C79.6916 178.887 78.6861 179.267 78.0173 179.649L79.0096 181.386ZM77.7431 184.269C78.0142 183.449 78.2473 182.747 78.4948 182.198C78.763 181.603 78.9516 181.419 79.0096 181.386L78.0173 179.649C77.3557 180.028 76.9503 180.758 76.6714 181.376C76.372 182.041 76.1049 182.853 75.8441 183.642L77.7431 184.269Z" fill="#333333" mask="url(#path-17-inside-1_4428_9610)"/>
<path d="M47.9926 208.611C50.5359 207.339 53.4262 205.373 59.9002 200.171C63.3685 197.397 72.1547 190.807 73.8888 189.304C75.1605 190.46 75.2761 189.304 76.4321 190.344C77.1258 191.038 77.935 191.732 78.6287 192.425C75.5073 196.703 63.0216 211.616 55.3915 217.975C49.8423 222.599 43.7151 221.327 39.322 221.674C34.9289 222.021 24.5242 221.096 24.5242 221.096L30.0733 209.189C29.8421 208.611 43.0214 211.038 47.9926 208.611Z" fill="white"/>
<path d="M49.1488 207.801L49.3203 208.271L49.4073 208.239L49.4772 208.178L49.1488 207.801ZM49.1488 207.801L49.4772 208.178L49.4774 208.178L49.4783 208.177L49.482 208.174L49.4972 208.161L49.5579 208.108C49.6115 208.062 49.6914 207.993 49.7956 207.904C50.004 207.725 50.3099 207.465 50.6988 207.138C51.4766 206.485 52.5861 205.566 53.9118 204.507C56.565 202.387 60.0767 199.711 63.5255 197.469L63.5255 197.469L63.5344 197.463C66.2588 195.608 69.0104 193.609 71.0797 192.076C72.1146 191.308 72.9795 190.657 73.5859 190.197C73.8405 190.004 74.0495 189.845 74.2064 189.725C74.2663 189.784 74.334 189.852 74.4083 189.929C74.7167 190.249 75.1366 190.728 75.5747 191.354C76.4266 192.571 77.3397 194.333 77.6447 196.565C77.6313 196.583 77.6168 196.602 77.6013 196.623C77.4929 196.767 77.3326 196.979 77.1254 197.251C76.7109 197.795 76.1084 198.579 75.3576 199.538C73.8557 201.456 71.7609 204.074 69.389 206.871C64.6294 212.484 58.8066 218.757 54.4264 221.601C52.3826 222.924 50.1764 225.422 47.9268 228.28C46.796 229.716 45.6429 231.259 44.4841 232.809L44.4464 232.86C43.2986 234.396 42.1452 235.939 40.9951 237.406C38.6621 240.382 36.3756 242.999 34.2271 244.573C32.0727 246.151 30.2219 246.573 28.6107 245.532L28.6093 245.531C23.4406 242.216 20.2948 236.149 19.5724 230.398C18.8463 224.618 20.5775 219.397 24.8422 217.507C26.7908 216.647 32.899 214.342 38.5426 212.244C41.3598 211.196 44.0542 210.203 46.0445 209.472C47.0396 209.106 47.8586 208.806 48.4288 208.597L49.0884 208.356L49.2612 208.292L49.3054 208.276L49.3166 208.272L49.3194 208.271L49.3201 208.271C49.3202 208.271 49.3203 208.271 49.1488 207.801Z" fill="#FF6F3D" stroke="#333333"/>
<path d="M64.2935 187.685C64.0622 188.61 63.831 195.431 62.0969 197.165C60.3628 198.784 56.6634 194.622 55.9697 196.241C55.2761 197.975 58.3974 208.726 58.3974 208.726L39.7846 210.46V195.084C39.7846 195.084 38.1661 188.957 40.0158 180.749C41.7499 172.541 56.4321 166.529 56.4321 166.529C57.1258 166.067 57.8194 162.83 59.0911 163.986C61.0564 165.72 62.0969 172.194 62.7906 175.431C63.5998 178.552 64.5247 186.761 64.2935 187.685Z" fill="white"/>
<path d="M22.0816 294.518C22.1134 294.486 22.1419 294.458 22.167 294.434L73.9007 295.808C77.9444 305.51 78.0065 319.945 77.1905 332.843C76.8684 337.935 76.4114 342.767 76.0154 346.952C75.9059 348.11 75.801 349.219 75.705 350.27C75.4837 352.691 75.3088 354.812 75.233 356.521C75.1683 357.981 75.1731 359.184 75.298 360.026C71.6031 362.046 66.8118 363.283 61.5627 363.947C56.1721 364.628 50.3324 364.701 44.7671 364.413C39.2029 364.125 33.9234 363.477 29.6567 362.722C25.6151 362.007 22.5263 361.203 20.9584 360.534C20.7097 356.661 19.9901 350.599 19.2061 343.992C18.9932 342.199 18.7756 340.366 18.5614 338.525C17.5344 329.702 16.585 320.715 16.585 315.086C16.585 306.938 18.0479 301.721 19.488 298.558C20.2083 296.977 20.9243 295.905 21.4523 295.236C21.7164 294.901 21.9338 294.666 22.0816 294.518Z" fill="#333333" stroke="#333333"/>
<path d="M19.1656 297.676C19.1396 297.661 19.115 297.646 19.0917 297.632C19.1303 297.487 19.1798 297.3 19.2388 297.073C19.3929 296.482 19.6121 295.625 19.8729 294.559C20.3944 292.428 21.0825 289.462 21.749 286.122C23.0789 279.458 24.3341 271.253 23.9833 265.229C23.9178 264.106 23.8433 262.893 23.7642 261.607C23.4236 256.066 23.0001 249.177 22.8713 242.373C22.7123 233.975 23.0047 225.774 24.4296 220.416C24.8814 218.722 26.0516 215.806 27.1234 213.286C27.6567 212.032 28.1613 210.886 28.5326 210.053C28.7182 209.637 28.8704 209.299 28.9762 209.065C28.9884 209.039 28.9999 209.013 29.0108 208.989L54.666 208.535L54.7092 208.564C54.8223 208.64 54.9889 208.753 55.2018 208.898C55.6278 209.189 56.2392 209.611 56.98 210.135C58.4621 211.183 60.4598 212.637 62.5248 214.263C64.5913 215.891 66.7173 217.684 68.4595 219.41C70.2156 221.15 71.5271 222.769 72.0357 224.051C72.7191 225.858 72.8755 228.243 72.693 230.976C72.511 233.703 71.9961 236.726 71.376 239.783C71.0258 241.509 70.6474 243.223 70.2776 244.897C69.9886 246.206 69.7048 247.491 69.4438 248.74C68.8548 251.558 68.3915 254.151 68.3028 256.22L68.3027 256.224C68.1265 261.274 69.8502 270.384 71.8867 278.53C72.9078 282.614 74.013 286.478 75.0094 289.498C75.5074 291.007 75.9801 292.311 76.4032 293.33C76.7178 294.087 77.0181 294.719 77.2948 295.16C77.2819 295.173 77.2684 295.187 77.2545 295.201C77.0437 295.412 76.7133 295.721 76.2453 296.094C75.3095 296.841 73.8224 297.85 71.6405 298.866C67.2779 300.898 60.125 302.967 49.0309 303.025C37.9766 303.082 30.3953 301.672 25.5907 300.256C23.1883 299.548 21.4792 298.839 20.3764 298.31C19.825 298.046 19.425 297.827 19.1656 297.676Z" fill="#FF6F3D" stroke="#333333"/>
<path d="M144.226 211.669L144.261 211.696L144.302 211.717C146.824 212.98 147.693 214.323 147.877 215.39C148.063 216.473 147.574 217.433 147.049 217.987C146.649 218.387 146.352 218.745 146.098 219.05C146.044 219.116 145.991 219.179 145.94 219.24C145.648 219.587 145.397 219.859 145.044 220.111L145.019 220.129L144.997 220.15C144.345 220.748 143.315 221.419 142.275 222.04C141.76 222.347 141.251 222.638 140.796 222.896C140.74 222.928 140.684 222.959 140.629 222.99C140.26 223.2 139.929 223.387 139.674 223.539C138.165 224.18 137.087 224.763 136.21 225.237C135.317 225.72 134.669 226.069 133.974 226.283L133.957 226.288L133.941 226.294C132.537 226.834 131.006 226.952 129.093 226.727C128.759 226.688 128.359 226.743 127.949 226.839C127.529 226.937 127.053 227.088 126.552 227.27C125.55 227.636 124.41 228.142 123.342 228.651C122.272 229.16 121.265 229.676 120.526 230.065C120.245 230.213 120.002 230.342 119.81 230.446L117.189 223.894C117.393 223.799 117.66 223.675 117.973 223.529C118.703 223.19 119.68 222.734 120.663 222.271C121.646 221.808 122.638 221.338 123.4 220.968C123.78 220.783 124.106 220.622 124.345 220.5C124.464 220.438 124.565 220.385 124.642 220.341C124.681 220.32 124.718 220.299 124.75 220.278L124.751 220.277C124.771 220.265 124.829 220.228 124.879 220.178C125.26 219.797 125.663 219.268 125.974 218.709C126.195 218.311 126.387 217.866 126.476 217.426C126.651 217.423 126.873 217.419 127.127 217.414C127.783 217.402 128.662 217.384 129.552 217.362C130.441 217.34 131.344 217.315 132.047 217.288C132.398 217.274 132.702 217.26 132.931 217.245C133.045 217.238 133.145 217.23 133.224 217.222C133.281 217.216 133.386 217.205 133.47 217.177L133.479 217.175L133.487 217.171C134.391 216.832 135.528 216.491 136.335 216.26C136.836 216.126 137.425 215.83 138.019 215.479C138.623 215.122 139.268 214.687 139.886 214.25C140.374 213.906 140.851 213.557 141.281 213.242C141.397 213.157 141.509 213.075 141.618 212.996C142.138 212.616 142.552 212.32 142.817 212.161C143.41 211.805 143.721 211.646 143.924 211.596C144.009 211.574 144.049 211.579 144.072 211.585C144.098 211.591 144.144 211.608 144.226 211.669Z" stroke="#333333"/>
<path d="M93.0797 229.42C93.1882 229.908 93.1882 229.908 93.1883 229.908L93.1886 229.908L93.1898 229.908L93.1944 229.907L93.2125 229.903L93.284 229.887L93.5622 229.825C93.8056 229.77 94.1622 229.69 94.615 229.588C95.5206 229.384 96.811 229.091 98.3508 228.737C101.429 228.028 105.506 227.074 109.497 226.091C112.771 225.331 116.238 224.048 118.877 222.96C120.2 222.415 121.318 221.918 122.107 221.556C122.378 221.432 122.609 221.324 122.797 221.235C122.809 221.288 122.82 221.343 122.833 221.401C122.935 221.887 123.062 222.588 123.161 223.437C123.354 225.092 123.439 227.298 123.03 229.588C123.012 229.601 122.993 229.614 122.972 229.628C122.823 229.731 122.602 229.882 122.317 230.074C121.748 230.458 120.924 231.007 119.906 231.666C117.868 232.985 115.055 234.743 111.952 236.499C108.847 238.257 105.461 240.009 102.274 241.32C99.073 242.637 96.128 243.487 93.889 243.487C89.2463 243.487 80.9825 242.596 73.2684 241.454C69.416 240.884 65.7109 240.254 62.6759 239.643C59.6246 239.03 57.2943 238.445 56.1611 237.975C53.8321 237.01 51.5695 235.615 50.175 233.468C48.7945 231.343 48.2159 228.406 49.3985 224.238C49.9874 222.163 50.8389 220.735 51.8174 219.77C52.7934 218.808 53.9194 218.282 55.0994 218.046C57.484 217.569 60.089 218.276 62.0339 219.02L62.042 219.023L62.0503 219.026C63.9066 219.662 67.6826 221.318 71.6054 223.039C71.904 223.17 72.2035 223.301 72.5031 223.433C76.7057 225.275 80.9329 227.113 82.8769 227.702C84.8092 228.287 87.3437 228.84 89.3841 229.246C90.4066 229.449 91.3093 229.615 91.9565 229.731C92.2801 229.79 92.54 229.835 92.7191 229.866C92.8087 229.881 92.8781 229.893 92.9252 229.901L92.9789 229.91L92.9927 229.912L92.9962 229.913L92.9972 229.913L92.9974 229.913C92.9975 229.913 92.9975 229.913 93.0797 229.42ZM93.0797 229.42L93.1882 229.908L93.0934 229.929L92.9975 229.913L93.0797 229.42Z" fill="#FF6F3D" stroke="#333333"/>
<path d="M25.9117 180.518C25.6805 170.691 29.4955 162.83 39.5534 161.558C42.906 159.824 46.6055 159.015 49.6113 159.015C58.6287 159.015 61.4033 163.524 62.097 167.223C62.2126 167.57 63.8311 171.847 60.1316 175.084C60.1316 175.084 61.7501 199.362 63.253 202.483C65.2184 206.414 69.149 215.2 60.1316 224.68C41.6343 244.333 20.4781 232.657 15.9694 226.299C2.21204 206.761 26.2585 200.634 25.9117 180.518Z" fill="#333333"/>
<path d="M478.519 77.7024L476.998 76.2011C477.837 74.8713 477.68 73.1126 476.526 71.9973C475.214 70.6676 473.011 70.6676 471.699 71.9973C470.388 73.3271 470.388 75.4718 471.699 76.8016C472.854 77.9598 474.637 78.0885 475.949 77.2735L477.47 78.7748C477.732 79.0751 478.204 79.0751 478.519 78.7748C478.781 78.4316 478.781 77.9598 478.519 77.7024ZM472.591 75.9437C471.699 75.0858 471.699 73.6702 472.591 72.8123C473.483 71.9544 474.847 71.9544 475.739 72.8123C476.631 73.6702 476.631 75.0858 475.739 75.9437C474.847 76.8016 473.431 76.8016 472.591 75.9437Z" fill="#808080"/>
<path d="M507.211 75.0024C507.211 77.2233 505.434 79 503.214 79C500.993 79 499.216 77.2233 499.216 75.0024C499.216 72.7814 500.993 71.0047 503.214 71.0047C505.434 70.8936 507.211 72.7814 507.211 75.0024Z" fill="#E2E2E2"/>
<path d="M521.211 75.0023C521.211 77.2233 519.434 79 517.214 79C514.993 79 513.216 77.2233 513.216 75.0023C513.216 72.7814 514.993 71.0046 517.214 71.0046C519.434 71.0046 521.211 72.7814 521.211 75.0023Z" fill="#E2E2E2"/>
<path d="M535.211 75.0023C535.211 77.2233 533.434 79 531.214 79C528.993 79 527.216 77.2233 527.216 75.0023C527.216 72.7814 528.993 71.0046 531.214 71.0046C533.434 71.0046 535.211 72.7814 535.211 75.0023Z" fill="#E2E2E2"/>
<path d="M260.479 120.5H117.953C117.365 120.5 116.716 119.866 116.716 118.816V23.1845C116.716 22.134 117.365 21.5 117.953 21.5H260.479C261.067 21.5 261.716 22.134 261.716 23.1845V118.694C261.716 119.885 261.052 120.5 260.479 120.5Z" fill="#F9FEEF" stroke="#8BB825"/>
<rect x="137.408" y="82.2048" width="9" height="23.1322" stroke="#50ADD2"/>
<rect x="175.408" y="90.0122" width="9" height="15.3248" stroke="#50ADD2"/>
<rect x="213.408" y="75.1069" width="9" height="30.23" stroke="#50ADD2"/>
<rect x="156.408" y="63.7507" width="9" height="41.5863" stroke="url(#paint0_linear_4428_9610)"/>
<rect x="194.408" y="62.3311" width="9" height="43.0058" stroke="url(#paint1_linear_4428_9610)"/>
<rect x="232.408" y="43.877" width="9" height="61.4599" stroke="url(#paint2_linear_4428_9610)"/>
<rect x="307.216" y="170.5" width="137" height="95" fill="#F2F2F2" stroke="#CCCCCC"/>
<path d="M528.842 265.494C528.84 265.496 528.838 265.498 528.836 265.5H460.594C460.592 265.498 460.589 265.495 460.587 265.493C460.545 265.449 460.485 265.358 460.423 265.204C460.302 264.898 460.216 264.439 460.216 263.903V172.097C460.216 171.561 460.302 171.102 460.423 170.796C460.485 170.642 460.545 170.551 460.587 170.507C460.589 170.505 460.592 170.502 460.594 170.5H528.838C528.84 170.502 528.842 170.505 528.845 170.507C528.886 170.551 528.947 170.642 529.008 170.796C529.13 171.102 529.216 171.561 529.216 172.097V263.787C529.216 264.386 529.128 264.875 529.006 265.195C528.944 265.357 528.883 265.45 528.842 265.494Z" fill="#F9FEEF" stroke="#8BB825"/>
<path fill-rule="evenodd" clip-rule="evenodd" d="M306.716 287.633V284.53C306.716 283.084 307.73 282 308.948 282H311.431V283H308.948C308.381 283 307.716 283.533 307.716 284.53V287.633H306.716ZM316.398 282V283H321.365V282H316.398ZM326.331 282V283H331.298V282H326.331ZM336.265 282V283H341.232V282H336.265ZM346.198 282V283H351.165V282H346.198ZM356.132 282V283H361.099V282H356.132ZM366.065 282V283H371.032V282H366.065ZM375.999 282V283H380.965V282H375.999ZM385.932 282V283H390.899V282H385.932ZM395.866 282V283H400.832V282H395.866ZM405.799 282V283H410.766V282H405.799ZM415.732 282V283H420.699V282H415.732ZM425.666 282V283H430.633V282H425.666ZM435.599 282V283H440.566V282H435.599ZM445.533 282V283H450.5V282H445.533ZM455.466 282V283H460.433V282H455.466ZM465.4 282V283H470.366V282H465.4ZM475.333 282V283H480.3V282H475.333ZM485.267 282V283H490.233V282H485.267ZM495.2 282V283H500.167V282H495.2ZM505.134 282V283H510.1V282H505.134ZM515.067 282V283H520.034V282H515.067ZM525 282V283H527.484C527.995 283 528.716 283.589 528.716 284.651V287.738H529.716V284.651C529.716 283.205 528.701 282 527.484 282H525ZM529.716 293.913H528.716V300.087H529.716V293.913ZM529.716 306.262H528.716V309.349C528.716 310.411 527.995 311 527.484 311H525V312H527.484C528.701 312 529.716 310.795 529.716 309.349V306.262ZM520.034 312V311H515.067V312H520.034ZM510.1 312V311H505.134V312H510.1ZM500.167 312V311H495.2V312H500.167ZM490.233 312V311H485.267V312H490.233ZM480.3 312V311H475.333V312H480.3ZM470.366 312V311H465.4V312H470.366ZM460.433 312V311H455.466V312H460.433ZM450.5 312V311H445.533V312H450.5ZM440.566 312V311H435.599V312H440.566ZM430.633 312V311H425.666V312H430.633ZM420.699 312V311H415.733V312H420.699ZM410.766 312V311H405.799V312H410.766ZM400.832 312V311H395.866V312H400.832ZM390.899 312V311H385.932V312H390.899ZM380.965 312V311H375.999V312H380.965ZM371.032 312V311H366.065V312H371.032ZM361.098 312V311H356.132V312H361.098ZM351.165 312V311H346.198V312H351.165ZM341.232 312V311H336.265V312H341.232ZM331.298 312V311H326.331V312H331.298ZM321.365 312V311H316.398V312H321.365ZM311.431 312V311H308.948C308.437 311 307.716 310.411 307.716 309.349V306.247H306.716V309.349C306.716 310.795 307.73 312 308.948 312H311.431ZM306.716 300.042H307.716V293.837H306.716V300.042Z" fill="#666666"/>
<rect x="306.716" y="100" width="236" height="9" rx="1" fill="#EFEFEF"/>
<rect x="306.754" y="123" width="196" height="4" rx="1" fill="#CCCCCC"/>
<rect x="306.716" y="150.971" width="83.2516" height="3" rx="1" fill="#FF6F3D"/>
<rect x="306.754" y="136" width="223" height="4" rx="1" fill="#CCCCCC"/>
<rect x="67.7158" y="66.5" width="418" height="17" rx="2.5" stroke="#CCCCCC"/>
<rect x="67.7158" y="2" width="217" height="214" rx="4" fill="#D9F4FF" stroke="#9ADAF3" stroke-width="2"/>
<rect x="98.6289" y="146" width="65.4348" height="6" rx="1" fill="#A7CCDB"/>
<rect x="98.6289" y="178" width="48.6087" height="3" rx="1" fill="#FF6F3D"/>
<rect x="98.6289" y="165" width="129.935" height="3" rx="1" fill="#A7CCDB"/>
<rect x="98.7158" y="33" width="155" height="90" rx="3" fill="white"/>
<path d="M115.668 108.219L165.774 70.612C166.992 69.6973 168.703 69.8415 169.751 70.9472L190.089 92.3966M200.325 103.862L190.089 92.3966M190.089 92.3966L206.854 79.2849C208.009 78.3821 209.646 78.4454 210.728 79.4346L237.429 103.862" stroke="#A7CCDB" stroke-width="2"/>
<circle cx="123.716" cy="58" r="9" stroke="#FF6F3D" stroke-width="2"/>
<path d="M519.529 412.095C519.529 433.016 502.681 449.97 481.905 449.97C461.129 449.97 444.281 433.016 444.281 412.095C444.281 391.175 461.129 374.221 481.905 374.221C502.681 374.221 519.529 391.175 519.529 412.095Z" fill="url(#paint3_linear_4428_9610)" stroke="#333333"/>
<path opacity="0.1" d="M461.108 391.161C469.299 382.737 482.452 379.924 493.369 384.236C511.4 391.058 518.574 413.381 507.854 429.55C499.874 441.928 483.483 446.763 470.16 440.636C450.818 431.998 446.152 406.078 461.108 391.161ZM461.108 391.161C452.813 399.311 450.374 412.646 455.239 423.216C463.342 441.481 487.507 445.862 501.425 431.737C515.472 417.728 511.113 393.389 492.96 385.24C482.458 380.35 469.211 382.806 461.114 391.154L461.108 391.161Z" fill="#333333"/>
<path d="M541.716 449H444.716V471H541.716V449Z" fill="url(#paint4_linear_4428_9610)"/>
<path d="M445.216 470.5V449.5H541.216V470.5H445.216Z" fill="url(#paint5_linear_4428_9610)" stroke="#333333"/>
<g opacity="0.1">
<path d="M537.246 469.052C536.782 463.316 536.782 457.512 537.246 451.777C537.711 457.512 537.711 463.316 537.246 469.052Z" fill="#333333"/>
<path d="M530.018 469.052C529.553 463.316 529.553 457.512 530.018 451.777C530.482 457.512 530.482 463.316 530.018 469.052Z" fill="#333333"/>
<path d="M526.485 469.052C526.021 463.316 526.021 457.512 526.485 451.777C526.95 457.512 526.95 463.316 526.485 469.052Z" fill="#333333"/>
<path d="M507.102 469.052C506.638 463.316 506.638 457.512 507.102 451.777C507.567 457.512 507.567 463.316 507.102 469.052Z" fill="#333333"/>
<path d="M501.855 469.052C501.39 463.316 501.39 457.512 501.855 451.777C502.32 457.512 502.32 463.316 501.855 469.052Z" fill="#333333"/>
<path d="M480.169 469.052C479.705 463.316 479.705 457.512 480.169 451.777C480.634 457.512 480.634 463.316 480.169 469.052Z" fill="#333333"/>
<path d="M475.161 469.052C474.697 463.316 474.697 457.512 475.161 451.777C475.626 457.512 475.626 463.316 475.161 469.052Z" fill="#333333"/>
<path d="M465.958 469.052C465.494 463.316 465.494 457.512 465.958 451.777C466.423 457.512 466.423 463.316 465.958 469.052Z" fill="#333333"/>
<path d="M484.358 469.052C483.893 463.316 483.893 457.512 484.358 451.777C484.822 457.512 484.822 463.316 484.358 469.052Z" fill="#333333"/>
<path d="M520.077 469.052C519.612 463.316 519.612 457.512 520.077 451.777C520.541 457.512 520.541 463.316 520.077 469.052Z" fill="#333333"/>
<path d="M494.955 469.052C494.49 463.316 494.49 457.512 494.955 451.777C495.419 457.512 495.419 463.316 494.955 469.052Z" fill="#333333"/>
<path d="M491.34 469.052C490.876 463.316 490.876 457.512 491.34 451.777C491.805 457.512 491.805 463.316 491.34 469.052Z" fill="#333333"/>
<path d="M453.968 469.052C453.503 463.316 453.503 457.512 453.968 451.777C454.432 457.512 454.432 463.316 453.968 469.052Z" fill="#333333"/>
<path d="M448.55 469.052C448.085 463.316 448.085 457.512 448.55 451.777C449.014 457.512 449.014 463.316 448.55 469.052Z" fill="#333333"/>
<path d="M461.688 469.052C461.224 463.316 461.224 457.512 461.688 451.777C462.153 457.512 462.153 463.316 461.688 469.052Z" fill="#333333"/>
<path d="M511.29 469.052C510.826 463.316 510.826 457.512 511.29 451.777C511.755 457.512 511.755 463.316 511.29 469.052Z" fill="#333333"/>
</g>
<path opacity="0.2" d="M541.775 449V453.587L537.416 453.725L530.187 453.952L526.655 454.068L520.246 454.268L511.46 454.55L507.272 454.681L502.025 454.846L495.124 455.066L491.51 455.183L484.527 455.403L483.38 455.444L480.339 455.54L475.331 455.698L466.128 455.987L461.858 456.125L454.137 456.372L448.72 456.544L444.716 456.668V449H541.775Z" fill="white"/>
<path d="M501.216 471.5V450.5H597.216V471.5H501.216Z" fill="url(#paint6_linear_4428_9610)" stroke="#333333"/>
<g opacity="0.1">
<path d="M504.52 452.086C504.984 457.821 504.984 463.626 504.52 469.361C504.055 463.626 504.055 457.821 504.52 452.086Z" fill="#333333"/>
<path d="M511.748 452.086C512.213 457.821 512.213 463.626 511.748 469.361C511.284 463.626 511.284 457.821 511.748 452.086Z" fill="#333333"/>
<path d="M515.28 452.086C515.745 457.821 515.745 463.626 515.28 469.361C514.816 463.626 514.816 457.821 515.28 452.086Z" fill="#333333"/>
<path d="M534.664 452.086C535.128 457.821 535.128 463.626 534.664 469.361C534.199 463.626 534.199 457.821 534.664 452.086Z" fill="#333333"/>
<path d="M539.911 452.086C540.375 457.821 540.375 463.626 539.911 469.361C539.446 463.626 539.446 457.821 539.911 452.086Z" fill="#333333"/>
<path d="M561.596 452.086C562.061 457.821 562.061 463.626 561.596 469.361C561.132 463.626 561.132 457.821 561.596 452.086Z" fill="#333333"/>
<path d="M566.604 452.086C567.069 457.821 567.069 463.626 566.604 469.361C566.14 463.626 566.14 457.821 566.604 452.086Z" fill="#333333"/>
<path d="M575.807 452.086C576.272 457.821 576.272 463.626 575.807 469.361C575.343 463.626 575.343 457.821 575.807 452.086Z" fill="#333333"/>
<path d="M557.408 452.086C557.873 457.821 557.873 463.626 557.408 469.361C556.943 463.626 556.943 457.821 557.408 452.086Z" fill="#333333"/>
<path d="M521.689 452.086C522.154 457.821 522.154 463.626 521.689 469.361C521.224 463.626 521.224 457.821 521.689 452.086Z" fill="#333333"/>
<path d="M546.811 452.086C547.276 457.821 547.276 463.626 546.811 469.361C546.347 463.626 546.347 457.821 546.811 452.086Z" fill="#333333"/>
<path d="M550.425 452.086C550.89 457.821 550.89 463.626 550.425 469.361C549.961 463.626 549.961 457.821 550.425 452.086Z" fill="#333333"/>
<path d="M587.798 452.086C588.263 457.821 588.263 463.626 587.798 469.361C587.333 463.626 587.333 457.821 587.798 452.086Z" fill="#333333"/>
<path d="M593.216 452.086C593.68 457.821 593.68 463.626 593.216 469.361C592.751 463.626 592.751 457.821 593.216 452.086Z" fill="#333333"/>
<path d="M580.077 452.086C580.542 457.821 580.542 463.626 580.077 469.361C579.613 463.626 579.613 457.821 580.077 452.086Z" fill="#333333"/>
<path d="M530.475 452.086C530.94 457.821 530.94 463.626 530.475 469.361C530.011 463.626 530.011 457.821 530.475 452.086Z" fill="#333333"/>
</g>
<path opacity="0.2" d="M597.716 450V454.187L500.716 457V450H597.716Z" fill="white"/>
<path d="M495.216 449.5V428.5H591.216V449.5H495.216Z" fill="url(#paint7_linear_4428_9610)" stroke="#333333"/>
<g opacity="0.1">
<path d="M498.856 430.499C499.32 436.234 499.32 442.038 498.856 447.774C498.391 442.038 498.391 436.234 498.856 430.499Z" fill="#333333"/>
<path d="M506.084 430.499C506.549 436.234 506.549 442.038 506.084 447.774C505.62 442.038 505.62 436.234 506.084 430.499Z" fill="#333333"/>
<path d="M509.616 430.499C510.081 436.234 510.081 442.038 509.616 447.774C509.152 442.038 509.152 436.234 509.616 430.499Z" fill="#333333"/>
<path d="M529 430.499C529.464 436.234 529.464 442.038 529 447.774C528.535 442.038 528.535 436.234 529 430.499Z" fill="#333333"/>
<path d="M534.247 430.499C534.711 436.234 534.711 442.038 534.247 447.774C533.782 442.038 533.782 436.234 534.247 430.499Z" fill="#333333"/>
<path d="M555.932 430.499C556.397 436.234 556.397 442.038 555.932 447.774C555.468 442.038 555.468 436.234 555.932 430.499Z" fill="#333333"/>
<path d="M560.94 430.499C561.405 436.234 561.405 442.038 560.94 447.774C560.476 442.038 560.476 436.234 560.94 430.499Z" fill="#333333"/>
<path d="M570.143 430.499C570.608 436.234 570.608 442.038 570.143 447.774C569.679 442.038 569.679 436.234 570.143 430.499Z" fill="#333333"/>
<path d="M551.744 430.499C552.209 436.234 552.209 442.038 551.744 447.774C551.28 442.038 551.28 436.234 551.744 430.499Z" fill="#333333"/>
<path d="M516.025 430.499C516.49 436.234 516.49 442.038 516.025 447.774C515.56 442.038 515.56 436.234 516.025 430.499Z" fill="#333333"/>
<path d="M541.147 430.499C541.612 436.234 541.612 442.038 541.147 447.774C540.683 442.038 540.683 436.234 541.147 430.499Z" fill="#333333"/>
<path d="M544.762 430.499C545.226 436.234 545.226 442.038 544.762 447.774C544.297 442.038 544.297 436.234 544.762 430.499Z" fill="#333333"/>
<path d="M582.134 430.499C582.599 436.234 582.599 442.038 582.134 447.774C581.669 442.038 581.669 436.234 582.134 430.499Z" fill="#333333"/>
<path d="M587.552 430.499C588.017 436.234 588.017 442.038 587.552 447.774C587.087 442.038 587.087 436.234 587.552 430.499Z" fill="#333333"/>
<path d="M574.414 430.499C574.878 436.234 574.878 442.038 574.414 447.774C573.949 442.038 573.949 436.234 574.414 430.499Z" fill="#333333"/>
<path d="M524.811 430.499C525.276 436.234 525.276 442.038 524.811 447.774C524.347 442.038 524.347 436.234 524.811 430.499Z" fill="#333333"/>
</g>
<path opacity="0.2" d="M591.716 428V432.781L494.716 436V428H591.716Z" fill="white"/>
<path d="M502.216 427.5V406.5H598.216V427.5H502.216Z" fill="url(#paint8_linear_4428_9610)" stroke="#333333"/>
<g opacity="0.1">
<path d="M594.48 426.358C594.015 420.623 594.015 414.819 594.48 409.083C594.944 414.819 594.944 420.623 594.48 426.358Z" fill="#333333"/>
<path d="M587.251 426.358C586.787 420.623 586.787 414.819 587.251 409.083C587.716 414.819 587.716 420.623 587.251 426.358Z" fill="#333333"/>
<path d="M583.719 426.358C583.254 420.623 583.254 414.819 583.719 409.083C584.184 414.819 584.184 420.623 583.719 426.358Z" fill="#333333"/>
<path d="M564.336 426.358C563.871 420.623 563.871 414.819 564.336 409.083C564.801 414.819 564.801 420.623 564.336 426.358Z" fill="#333333"/>
<path d="M559.089 426.358C558.624 420.623 558.624 414.819 559.089 409.083C559.553 414.819 559.553 420.623 559.089 426.358Z" fill="#333333"/>
<path d="M537.41 426.358C536.945 420.623 536.945 414.819 537.41 409.083C537.875 414.819 537.875 420.623 537.41 426.358Z" fill="#333333"/>
<path d="M532.395 426.358C531.931 420.623 531.931 414.819 532.395 409.083C532.86 414.819 532.86 420.623 532.395 426.358Z" fill="#333333"/>
<path d="M523.199 426.358C522.734 420.623 522.734 414.819 523.199 409.083C523.664 414.819 523.664 420.623 523.199 426.358Z" fill="#333333"/>
<path d="M541.598 426.358C541.134 420.623 541.134 414.819 541.598 409.083C542.063 414.819 542.063 420.623 541.598 426.358Z" fill="#333333"/>
<path d="M577.317 426.358C576.853 420.623 576.853 414.819 577.317 409.083C577.782 414.819 577.782 420.623 577.317 426.358Z" fill="#333333"/>
<path d="M552.195 426.358C551.73 420.623 551.73 414.819 552.195 409.083C552.66 414.819 552.66 420.623 552.195 426.358Z" fill="#333333"/>
<path d="M548.581 426.358C548.116 420.623 548.116 414.819 548.581 409.083C549.045 414.819 549.045 420.623 548.581 426.358Z" fill="#333333"/>
<path d="M511.208 426.358C510.744 420.623 510.744 414.819 511.208 409.083C511.673 414.819 511.673 420.623 511.208 426.358Z" fill="#333333"/>
<path d="M505.784 426.358C505.319 420.623 505.319 414.819 505.784 409.083C506.248 414.819 506.248 420.623 505.784 426.358Z" fill="#333333"/>
<path d="M518.929 426.358C518.464 420.623 518.464 414.819 518.929 409.083C519.393 414.819 519.393 420.623 518.929 426.358Z" fill="#333333"/>
<path d="M568.524 426.358C568.06 420.623 568.06 414.819 568.524 409.083C568.989 414.819 568.989 420.623 568.524 426.358Z" fill="#333333"/>
</g>
<path opacity="0.2" d="M598.716 406V410.786L501.716 414V406H598.716Z" fill="white"/>
<path d="M586.848 404.42C601.736 406.112 614.423 427.314 612.558 447.492C611.656 458.365 606.532 466.562 599.584 469.581C596.707 470.833 593.516 471.198 590.182 470.496C574.475 467.443 562.648 443.785 566.228 424.11C564.35 434.762 567.328 447.932 573.799 456.769C580.938 466.748 590.36 469.781 597.807 466.542C602.808 464.369 606.915 459.362 608.841 451.728C613.767 432.816 602.344 408.65 586.91 405.603C583.815 404.936 580.788 405.273 578.048 406.47C573.197 408.581 569.221 413.354 567.24 419.901C569.337 412.92 573.566 407.811 578.738 405.562C581.266 404.462 584.013 404.042 586.855 404.42H586.848Z" fill="url(#paint9_linear_4428_9610)"/>
<path d="M600.061 477.912L596.029 479.037L591.561 479.943C576.498 482.975 561.024 470.835 554.219 450.176C546.902 427.984 554.05 403.806 568.685 397.438L580.622 395.438C565.987 401.806 556.447 425.591 563.764 447.783C570.576 468.442 586.842 481.1 600.061 477.912Z" fill="url(#paint10_linear_4428_9610)"/>
<path fill-rule="evenodd" clip-rule="evenodd" d="M555.169 449.864C561.902 470.304 577.027 481.848 591.363 478.963L591.507 478.934C587.187 478.022 582.864 475.81 578.878 472.566C572.143 467.083 566.273 458.586 562.814 448.096C559.083 436.779 559.649 425.059 563.016 415.349C565.641 407.779 569.997 401.357 575.424 397.322L568.973 398.403C562.081 401.455 556.822 408.75 554.183 418.143C551.535 427.564 551.572 438.954 555.169 449.864ZM568.685 397.438C554.05 403.806 546.902 427.984 554.219 450.176C561.024 470.835 576.498 482.975 591.561 479.943L596.029 479.037L600.061 477.912C598.702 478.24 597.31 478.4 595.901 478.401C595.884 478.401 595.868 478.401 595.852 478.401C595.374 478.4 594.895 478.381 594.413 478.345C582.508 477.431 569.63 465.574 563.764 447.783C556.931 427.061 564.797 404.95 577.784 396.927C578.705 396.358 579.653 395.859 580.622 395.438L568.685 397.438Z" fill="#333333"/>
<path d="M601.543 476.77L601.543 476.771C594.428 479.866 586.508 478.319 579.419 473.209C572.328 468.098 566.106 459.44 562.474 448.429C558.843 437.416 558.512 426.201 560.891 416.968C563.272 407.727 568.347 400.53 575.478 397.427C582.594 394.331 590.508 395.856 597.59 400.943C604.675 406.033 610.891 414.669 614.522 425.683C618.15 436.693 618.487 447.931 616.115 457.188C613.741 466.452 608.673 473.671 601.543 476.77Z" fill="url(#paint11_linear_4428_9610)" stroke="#333333"/>
<path opacity="0.1" d="M601.15 476.535L591.606 478.929C577.634 482.436 561.742 469.892 554.937 449.233C547.619 427.04 553.557 403.892 568.191 397.524L577.185 396.062C562.55 402.431 557.164 424.647 564.481 446.84C571.293 467.499 587.178 480.036 601.15 476.535Z" fill="#333333"/>
<path opacity="0.1" d="M575.484 397.845C581.858 394.111 589.982 395.816 595.755 399.922C594.594 399.379 593.316 398.78 592.12 398.299C586.825 396.181 580.84 395.644 575.477 397.852L575.484 397.845Z" fill="#333333"/>
<path opacity="0.1" d="M596.473 409.575C582.449 399.222 567.579 407.45 566.344 426.349C565.577 436.447 569.116 447.587 575.098 455.715C577.577 459.078 580.473 461.926 583.66 463.968C598.673 473.808 613.125 462.726 612.659 442.842C612.86 453.569 608.159 462.621 600.849 465.122C592.777 468.066 583.611 463.207 577.199 454.502C572.893 448.656 569.825 441.074 569.17 432.956C567.394 412.717 581.525 400.927 596.254 410.545C599.217 412.428 601.966 415.119 604.33 418.329C608.541 424.048 611.539 431.397 612.381 438.686C611.494 430.937 608.321 423.098 603.835 417C601.66 414.045 599.173 411.505 596.487 409.575L596.473 409.575Z" fill="#333333"/>
<path d="M458.303 400.083L465.114 401.355L466.639 408.629L468.164 401.355L474.975 400.075L468.194 398.402L466.639 391.529L465.092 398.402L458.303 400.083Z" fill="white"/>
<path d="M457.944 407.842C458.946 407.842 458.954 409.424 457.944 409.424C456.935 409.424 456.935 407.842 457.944 407.842Z" fill="white"/>
<path d="M538.992 322.835L538.992 322.835C548.748 321.635 558.806 323.634 567.173 327.837C575.545 332.042 582.182 338.431 585.16 345.976C588.131 353.502 586.906 360.766 582.541 366.456C578.166 372.159 570.603 376.319 560.845 377.519C551.089 378.719 541.031 376.721 532.664 372.517C524.292 368.312 517.655 361.923 514.677 354.378C511.706 346.852 512.931 339.586 517.296 333.895C521.671 328.192 529.234 324.032 538.992 322.835Z" fill="url(#paint12_linear_4428_9610)" stroke="#333333"/>
<path d="M531.201 331.285C516.269 338.309 515.939 355.333 530.613 365.829C538.404 371.53 549.055 374.01 558.42 372.865C562.296 372.388 565.953 371.291 569.095 369.54C584.076 361.402 581.908 343.318 565.641 333.808C574.393 338.983 579.495 347.581 578.086 355.18C576.677 363.661 568.458 369.203 558.426 370.434C551.689 371.261 544.131 370.146 537.271 366.668C520.103 358.119 517.213 339.963 531.881 331.959C534.79 330.324 538.251 329.277 541.95 328.824C548.54 328.015 555.878 329.075 562.156 331.977C555.486 328.885 547.671 327.734 540.646 328.591C537.24 329.007 534.025 329.901 531.208 331.273L531.201 331.285Z" fill="url(#paint13_linear_4428_9610)"/>
<path d="M531.201 331.285C516.269 338.309 515.939 355.333 530.613 365.829C538.404 371.53 549.055 374.01 558.42 372.865C562.296 372.388 565.953 371.291 569.095 369.54C584.076 361.402 581.908 343.318 565.641 333.808C574.393 338.983 579.495 347.581 578.086 355.18C576.677 363.661 568.458 369.203 558.426 370.434C551.689 371.261 544.131 370.146 537.271 366.668C520.103 358.119 517.213 339.963 531.881 331.959C534.79 330.324 538.251 329.277 541.95 328.824C548.54 328.015 555.878 329.075 562.156 331.977C555.486 328.885 547.671 327.734 540.646 328.591C537.24 329.007 534.025 329.901 531.208 331.273L531.201 331.285Z" fill="#333333" fill-opacity="0.1"/>
<path d="M513.185 341.125L512.091 344.75L511.309 348.812C510.354 352.879 510.549 357.315 512.331 361.828C518.401 377.204 539.304 387.707 559.026 385.282C572.96 383.573 582.575 375.863 584.878 366.065L586.81 358.531C584.507 368.329 574.84 375.557 560.906 377.272C541.185 379.691 520.473 369.183 514.403 353.812C512.621 349.299 512.331 345.062 513.185 341.125Z" fill="url(#paint14_linear_4428_9610)"/>
<path fill-rule="evenodd" clip-rule="evenodd" d="M584.203 364.673C579.981 371.28 571.731 375.94 560.906 377.272C541.185 379.691 520.473 369.183 514.403 353.812C513.418 351.317 512.888 348.905 512.757 346.583C512.725 346.031 512.716 345.484 512.729 344.943C512.73 344.919 512.73 344.896 512.731 344.873C512.765 343.595 512.92 342.346 513.185 341.125L512.091 344.75L511.309 348.812C510.354 352.879 510.549 357.315 512.331 361.828C518.401 377.204 539.304 387.707 559.026 385.282C572.96 383.573 582.575 375.863 584.878 366.065L586.614 359.293C586.684 359.041 586.749 358.787 586.81 358.531L586.614 359.293C586.085 361.196 585.274 362.997 584.203 364.673ZM583.473 367.377C578.747 373.124 570.856 377.055 561.028 378.264C550.959 379.499 540.651 377.435 532.084 373.106C523.524 368.78 516.62 362.149 513.473 354.18C512.87 352.654 512.431 351.154 512.143 349.682C511.398 353.378 511.649 357.378 513.261 361.461C516.183 368.862 522.715 375.171 531.008 379.337C539.293 383.499 549.252 385.476 558.904 384.289C571.796 382.708 580.686 375.928 583.473 367.377Z" fill="#333333"/>
<path d="M561.639 355.147L567.875 356.3L569.27 362.86L570.658 356.3L576.893 355.147L570.685 353.631L569.27 347.433L567.847 353.631L561.639 355.147Z" fill="white"/>
<path d="M558.391 341.76C559.691 341.76 559.691 343.774 558.391 343.774C557.092 343.774 557.086 341.76 558.391 341.76Z" fill="white"/>
<path fill-rule="evenodd" clip-rule="evenodd" d="M593.853 223.177C595.136 222.667 596.59 223.293 597.1 224.575L605.42 245.481C605.931 246.763 605.305 248.217 604.022 248.728C602.739 249.238 601.285 248.612 600.775 247.33L594.645 231.928C583.06 256.947 569.745 272.852 555.344 283.835C539.967 295.561 523.505 301.549 507.134 307.117C505.961 307.516 504.789 307.913 503.618 308.309C488.367 313.471 473.269 318.581 458.672 327.864C443.026 337.815 427.878 352.626 414.07 377.612C385.915 428.558 358.514 453.426 332.618 465.452C308.553 476.627 286.056 476.555 266.376 476.492C264.917 476.487 263.473 476.482 262.046 476.482C260.665 476.482 259.546 475.363 259.546 473.982C259.546 472.602 260.665 471.482 262.046 471.482C263.446 471.482 264.856 471.486 266.274 471.49C286.029 471.547 307.491 471.608 330.512 460.917C355.139 449.481 381.86 425.559 409.694 375.193C423.88 349.523 439.592 334.073 455.989 323.645C471.117 314.024 486.76 308.732 501.929 303.602C503.13 303.195 504.329 302.79 505.524 302.384C521.879 296.821 537.644 291.045 552.312 279.859C565.92 269.481 578.716 254.336 589.982 230.099L574.797 236.143C573.514 236.653 572.06 236.027 571.55 234.745C571.039 233.462 571.665 232.008 572.948 231.497L593.853 223.177Z" fill="url(#paint15_linear_4428_9610)"/>
<path d="M589.271 429.041L594.371 429.981L595.501 435.351L596.641 429.981L601.741 429.031L596.661 427.791L595.501 422.721L594.341 427.791L589.271 429.041Z" fill="white"/>
</g>
<defs>
<linearGradient id="paint0_linear_4428_9610" x1="155.908" y1="61.5872" x2="175.536" y2="66.3762" gradientUnits="userSpaceOnUse">
<stop stop-color="#FF8E3D"/>
<stop offset="1" stop-color="#FF6F3D"/>
</linearGradient>
<linearGradient id="paint1_linear_4428_9610" x1="193.908" y1="60.1121" x2="213.606" y2="64.7632" gradientUnits="userSpaceOnUse">
<stop stop-color="#FF8E3D"/>
<stop offset="1" stop-color="#FF6F3D"/>
</linearGradient>
<linearGradient id="paint2_linear_4428_9610" x1="231.908" y1="40.9371" x2="252.144" y2="44.3036" gradientUnits="userSpaceOnUse">
<stop stop-color="#FF8E3D"/>
<stop offset="1" stop-color="#FF6F3D"/>
</linearGradient>
<linearGradient id="paint3_linear_4428_9610" x1="443.781" y1="370.723" x2="520.548" y2="449.967" gradientUnits="userSpaceOnUse">
<stop stop-color="#FFC671"/>
<stop offset="0.59375" stop-color="#FF7541"/>
<stop offset="1" stop-color="#FF6F3D"/>
</linearGradient>
<linearGradient id="paint4_linear_4428_9610" x1="444.716" y1="448.141" x2="453.89" y2="490.17" gradientUnits="userSpaceOnUse">
<stop stop-color="#FFC671"/>
<stop offset="0.59375" stop-color="#FF7541"/>
<stop offset="1" stop-color="#FF6F3D"/>
</linearGradient>
<linearGradient id="paint5_linear_4428_9610" x1="444.716" y1="448.141" x2="453.89" y2="490.17" gradientUnits="userSpaceOnUse">
<stop stop-color="#FFC671"/>
<stop offset="0.59375" stop-color="#FF7541"/>
<stop offset="1" stop-color="#FF6F3D"/>
</linearGradient>
<linearGradient id="paint6_linear_4428_9610" x1="500.716" y1="449.141" x2="509.89" y2="491.17" gradientUnits="userSpaceOnUse">
<stop stop-color="#FFC671"/>
<stop offset="0.59375" stop-color="#FF7541"/>
<stop offset="1" stop-color="#FF6F3D"/>
</linearGradient>
<linearGradient id="paint7_linear_4428_9610" x1="494.716" y1="427.141" x2="503.89" y2="469.17" gradientUnits="userSpaceOnUse">
<stop stop-color="#FFC671"/>
<stop offset="0.59375" stop-color="#FF7541"/>
<stop offset="1" stop-color="#FF6F3D"/>
</linearGradient>
<linearGradient id="paint8_linear_4428_9610" x1="501.716" y1="405.141" x2="510.89" y2="447.17" gradientUnits="userSpaceOnUse">
<stop stop-color="#FFC671"/>
<stop offset="0.59375" stop-color="#FF7541"/>
<stop offset="1" stop-color="#FF6F3D"/>
</linearGradient>
<linearGradient id="paint9_linear_4428_9610" x1="565.585" y1="401.684" x2="629.19" y2="448.502" gradientUnits="userSpaceOnUse">
<stop stop-color="#FFC671"/>
<stop offset="0.59375" stop-color="#FF7541"/>
<stop offset="1" stop-color="#FF6F3D"/>
</linearGradient>
<linearGradient id="paint10_linear_4428_9610" x1="551.318" y1="392.118" x2="626.112" y2="436.7" gradientUnits="userSpaceOnUse">
<stop stop-color="#FFC671"/>
<stop offset="0.59375" stop-color="#FF7541"/>
<stop offset="1" stop-color="#FF6F3D"/>
</linearGradient>
<linearGradient id="paint11_linear_4428_9610" x1="558.871" y1="392.066" x2="638.721" y2="450.922" gradientUnits="userSpaceOnUse">
<stop stop-color="#FFC671"/>
<stop offset="0.59375" stop-color="#FF7541"/>
<stop offset="1" stop-color="#FF6F3D"/>
</linearGradient>
<linearGradient id="paint12_linear_4428_9610" x1="512.549" y1="319.789" x2="566.187" y2="393.681" gradientUnits="userSpaceOnUse">
<stop stop-color="#FFC671"/>
<stop offset="0.59375" stop-color="#FF7541"/>
<stop offset="1" stop-color="#FF6F3D"/>
</linearGradient>
<linearGradient id="paint13_linear_4428_9610" x1="519.802" y1="326.565" x2="562.461" y2="385.285" gradientUnits="userSpaceOnUse">
<stop stop-color="#FFC671"/>
<stop offset="0.59375" stop-color="#FF7541"/>
<stop offset="1" stop-color="#FF6F3D"/>
</linearGradient>
<linearGradient id="paint14_linear_4428_9610" x1="510.743" y1="339.387" x2="548.824" y2="407.018" gradientUnits="userSpaceOnUse">
<stop stop-color="#FFC671"/>
<stop offset="0.59375" stop-color="#FF7541"/>
<stop offset="1" stop-color="#FF6F3D"/>
</linearGradient>
<linearGradient id="paint15_linear_4428_9610" x1="424.216" y1="296" x2="605.598" y2="405" gradientUnits="userSpaceOnUse">
<stop stop-color="#FFC671"/>
<stop offset="0.481926" stop-color="#FF7541"/>
<stop offset="1" stop-color="#FF6F3D"/>
</linearGradient>
<clipPath id="clip0_4428_9610">
<rect width="634" height="480" fill="white" transform="translate(0.71582)"/>
</clipPath>
</defs>
</svg>
