<svg width="448" height="254" viewBox="0 0 448 254" fill="none" xmlns="http://www.w3.org/2000/svg">
<path d="M222.431 253.553C332.682 253.553 422.058 251.414 422.058 248.776C422.058 246.138 332.682 244 222.431 244C112.179 244 22.8027 246.138 22.8027 248.776C22.8027 251.414 112.179 253.553 222.431 253.553Z" fill="#EFEFEF"/>
<path d="M307.495 16.4962V188.5H6.5V16.4962C6.5 12.5941 9.59981 9.5 13.5052 9.5H300.495C304.315 9.5 307.358 12.4541 307.495 16.23V16.4962Z" fill="#AAAAAA" stroke="#333333"/>
<path d="M12.5 182.5V15.5H301.5V182.5H12.5Z" fill="white" stroke="#333333"/>
<path d="M194 248.5H194.561L194.497 247.943L190.831 215.943L190.78 215.5H190.334H122.4H121.964L121.905 215.932L117.505 247.932L117.427 248.5H118H194Z" fill="#CCCCCC" stroke="#333333"/>
<path d="M6.5 208.442V188.5H307.5V208.442C307.5 212.382 304.396 215.5 300.495 215.5H13.5054C9.59909 215.5 6.5 212.383 6.5 208.442Z" fill="#E2E2E2" stroke="#333333"/>
<path d="M107.333 251.5L117.106 248.5H194.894L204.667 251.5H107.333Z" fill="#E2E2E2" stroke="#333333"/>
<path d="M207.281 252.5L206.909 253.5H104.986L104.677 252.5H207.281Z" fill="#AAAAAA" stroke="#333333"/>
<path d="M162.5 201.497C162.5 204.26 160.259 206.5 157.5 206.5C154.741 206.5 152.5 204.26 152.5 201.497C152.5 198.74 154.74 196.5 157.5 196.5C160.26 196.5 162.5 198.735 162.5 201.497Z" fill="#AAAAAA" stroke="#333333"/>
<path d="M58 46C58 54.8366 50.8366 62 42 62C33.1634 62 26 54.8366 26 46C26 37.1634 33.1634 30 42 30C50.8366 30 58 37.1634 58 46Z" fill="#077838"/>
<path d="M50.9842 43.4564C50.9842 47.8851 48.1247 50.914 44.036 50.914C42.0923 50.914 40.4903 50.1136 39.8906 49.1134L39.9189 50.142V56.4847H35.7451V40.0846C35.7451 39.8564 35.6884 39.7984 35.4304 39.7984H34V36.3132H37.4889C39.0896 36.3132 39.4907 37.6846 39.6042 38.2853C40.2337 37.2283 41.8911 36 44.2359 36C48.2679 35.9987 50.9842 38.998 50.9842 43.4564ZM46.724 43.4847C46.724 41.1131 45.1801 39.4852 43.2351 39.4852C41.6344 39.4852 39.8325 40.5421 39.8325 43.5144C39.8325 45.4568 40.9186 47.4855 43.1783 47.4855C44.837 47.4842 46.724 46.2843 46.724 43.4847Z" fill="white"/>
<path d="M67.1378 39.4091H70.5511L74.1562 48.2045H74.3097L77.9148 39.4091H81.3281V52.5H78.6435V43.9794H78.5348L75.147 52.4361H73.3189L69.9311 43.9474H69.8224V52.5H67.1378V39.4091ZM85.8649 52.5H82.899L87.4181 39.4091H90.9849L95.4977 52.5H92.5318L89.2527 42.4006H89.1504L85.8649 52.5ZM85.6795 47.3544H92.6852V49.5149H85.6795V47.3544ZM97.0733 52.5V39.4091H102.238C103.227 39.4091 104.07 39.5859 104.769 39.9396C105.472 40.2891 106.007 40.7855 106.374 41.429C106.744 42.0682 106.93 42.8203 106.93 43.6854C106.93 44.5547 106.742 45.3026 106.367 45.929C105.992 46.5511 105.449 47.0284 104.737 47.3608C104.03 47.6932 103.173 47.8594 102.168 47.8594H98.7097V45.6349H101.72C102.249 45.6349 102.688 45.5625 103.037 45.4176C103.387 45.2727 103.646 45.0554 103.817 44.7656C103.992 44.4759 104.079 44.1158 104.079 43.6854C104.079 43.2507 103.992 42.8842 103.817 42.5859C103.646 42.2876 103.384 42.0618 103.031 41.9084C102.681 41.7507 102.24 41.6719 101.708 41.6719H99.8411V52.5H97.0733ZM104.143 46.5426L107.396 52.5H104.341L101.158 46.5426H104.143ZM108.886 52.5V39.4091H111.654V45.1811H111.826L116.537 39.4091H119.855L114.997 45.2706L119.912 52.5H116.601L113.015 47.1179L111.654 48.7798V52.5H108.886ZM121.296 52.5V39.4091H130.117V41.6911H124.064V44.8104H129.663V47.0923H124.064V50.218H130.143V52.5H121.296ZM131.819 41.6911V39.4091H142.57V41.6911H138.562V52.5H135.827V41.6911H131.819ZM144.341 52.5V39.4091H149.506C150.499 39.4091 151.344 39.5987 152.043 39.978C152.742 40.353 153.275 40.875 153.641 41.544C154.012 42.2088 154.197 42.9759 154.197 43.8452C154.197 44.7145 154.01 45.4815 153.635 46.1463C153.26 46.8111 152.717 47.3288 152.005 47.6996C151.298 48.0703 150.441 48.2557 149.435 48.2557H146.143V46.0376H148.988C149.521 46.0376 149.96 45.946 150.305 45.7628C150.654 45.5753 150.914 45.3175 151.085 44.9893C151.259 44.657 151.347 44.2756 151.347 43.8452C151.347 43.4105 151.259 43.0312 151.085 42.7074C150.914 42.3793 150.654 42.1257 150.305 41.9467C149.955 41.7635 149.512 41.6719 148.975 41.6719H147.109V52.5H144.341ZM155.995 52.5V39.4091H158.763V50.218H164.375V52.5H155.995ZM168.798 52.5H165.833L170.352 39.4091H173.919L178.431 52.5H175.465L172.186 42.4006H172.084L168.798 52.5ZM168.613 47.3544H175.619V49.5149H168.613V47.3544ZM190.942 43.9922H188.142C188.091 43.63 187.987 43.3082 187.829 43.027C187.672 42.7415 187.469 42.4986 187.222 42.2983C186.975 42.098 186.689 41.9446 186.365 41.8381C186.046 41.7315 185.699 41.6783 185.324 41.6783C184.646 41.6783 184.056 41.8466 183.553 42.1832C183.05 42.5156 182.66 43.0014 182.383 43.6406C182.106 44.2756 181.968 45.0469 181.968 45.9545C181.968 46.8878 182.106 47.6719 182.383 48.3068C182.664 48.9418 183.056 49.4212 183.559 49.745C184.062 50.0689 184.644 50.2308 185.304 50.2308C185.675 50.2308 186.018 50.1818 186.333 50.0838C186.653 49.9858 186.936 49.843 187.184 49.6555C187.431 49.4638 187.635 49.2315 187.797 48.9588C187.963 48.6861 188.078 48.375 188.142 48.0256L190.942 48.0384C190.87 48.6392 190.689 49.2188 190.399 49.777C190.113 50.331 189.728 50.8274 189.242 51.2663C188.76 51.701 188.185 52.0462 187.516 52.3018C186.851 52.5533 186.099 52.679 185.26 52.679C184.092 52.679 183.048 52.4148 182.127 51.8864C181.211 51.358 180.487 50.593 179.954 49.5916C179.426 48.5902 179.162 47.3778 179.162 45.9545C179.162 44.527 179.43 43.3125 179.967 42.3111C180.504 41.3097 181.233 40.5469 182.153 40.0227C183.074 39.4943 184.109 39.2301 185.26 39.2301C186.018 39.2301 186.721 39.3366 187.369 39.5497C188.021 39.7628 188.598 40.0739 189.101 40.483C189.604 40.8878 190.013 41.3842 190.328 41.9723C190.648 42.5604 190.853 43.2337 190.942 43.9922ZM192.927 52.5V39.4091H201.748V41.6911H195.695V44.8104H201.294V47.0923H195.695V50.218H201.773V52.5H192.927Z" fill="#017737"/>
<path d="M80.973 102.545C80.973 103.735 80.7475 104.747 80.2965 105.582C79.8491 106.416 79.2383 107.054 78.4641 107.494C77.6935 107.931 76.8271 108.149 75.8647 108.149C74.8952 108.149 74.0252 107.929 73.2546 107.489C72.484 107.048 71.875 106.411 71.4276 105.576C70.9801 104.742 70.7564 103.732 70.7564 102.545C70.7564 101.356 70.9801 100.344 71.4276 99.5092C71.875 98.6747 72.484 98.0391 73.2546 97.6023C74.0252 97.1619 74.8952 96.9418 75.8647 96.9418C76.8271 96.9418 77.6935 97.1619 78.4641 97.6023C79.2383 98.0391 79.8491 98.6747 80.2965 99.5092C80.7475 100.344 80.973 101.356 80.973 102.545ZM78.6346 102.545C78.6346 101.775 78.5192 101.125 78.2884 100.596C78.0611 100.067 77.7397 99.6655 77.3242 99.392C76.9087 99.1186 76.4222 98.9819 75.8647 98.9819C75.3072 98.9819 74.8207 99.1186 74.4052 99.392C73.9897 99.6655 73.6665 100.067 73.4357 100.596C73.2085 101.125 73.0948 101.775 73.0948 102.545C73.0948 103.316 73.2085 103.966 73.4357 104.495C73.6665 105.024 73.9897 105.425 74.4052 105.699C74.8207 105.972 75.3072 106.109 75.8647 106.109C76.4222 106.109 76.9087 105.972 77.3242 105.699C77.7397 105.425 78.0611 105.024 78.2884 104.495C78.5192 103.966 78.6346 103.316 78.6346 102.545ZM91.8062 97.0909V108H89.814L85.0679 101.134H84.988V108H82.6816V97.0909H84.7057L89.4145 103.952H89.5104V97.0909H91.8062ZM93.7118 108V97.0909H96.0183V106.098H100.695V108H93.7118ZM100.192 97.0909H102.775L105.263 101.789H105.369L107.857 97.0909H110.44L106.461 104.143V108H104.171V104.143L100.192 97.0909ZM121.066 102.545C121.066 103.735 120.84 104.747 120.389 105.582C119.942 106.416 119.331 107.054 118.557 107.494C117.786 107.931 116.92 108.149 115.957 108.149C114.988 108.149 114.118 107.929 113.347 107.489C112.577 107.048 111.968 106.411 111.52 105.576C111.073 104.742 110.849 103.732 110.849 102.545C110.849 101.356 111.073 100.344 111.52 99.5092C111.968 98.6747 112.577 98.0391 113.347 97.6023C114.118 97.1619 114.988 96.9418 115.957 96.9418C116.92 96.9418 117.786 97.1619 118.557 97.6023C119.331 98.0391 119.942 98.6747 120.389 99.5092C120.84 100.344 121.066 101.356 121.066 102.545ZM118.727 102.545C118.727 101.775 118.612 101.125 118.381 100.596C118.154 100.067 117.832 99.6655 117.417 99.392C117.002 99.1186 116.515 98.9819 115.957 98.9819C115.4 98.9819 114.913 99.1186 114.498 99.392C114.082 99.6655 113.759 100.067 113.528 100.596C113.301 101.125 113.188 101.775 113.188 102.545C113.188 103.316 113.301 103.966 113.528 104.495C113.759 105.024 114.082 105.425 114.498 105.699C114.913 105.972 115.4 106.109 115.957 106.109C116.515 106.109 117.002 105.972 117.417 105.699C117.832 105.425 118.154 105.024 118.381 104.495C118.612 103.966 118.727 103.316 118.727 102.545ZM122.774 108V97.0909H129.997V98.9925H125.081V101.592H129.518V103.494H125.081V108H122.774ZM131.549 108V97.0909H138.772V98.9925H133.855V101.592H138.292V103.494H133.855V108H131.549ZM142.63 97.0909V108H140.323V97.0909H142.63ZM154.153 100.91H151.82C151.777 100.608 151.69 100.34 151.559 100.106C151.427 99.8679 151.258 99.6655 151.052 99.4986C150.847 99.3317 150.609 99.2038 150.339 99.1151C150.072 99.0263 149.783 98.9819 149.47 98.9819C148.906 98.9819 148.414 99.1222 147.995 99.4027C147.576 99.6797 147.251 100.085 147.02 100.617C146.789 101.146 146.674 101.789 146.674 102.545C146.674 103.323 146.789 103.977 147.02 104.506C147.255 105.035 147.581 105.434 148 105.704C148.419 105.974 148.904 106.109 149.454 106.109C149.763 106.109 150.049 106.068 150.312 105.987C150.578 105.905 150.815 105.786 151.021 105.63C151.226 105.47 151.397 105.276 151.532 105.049C151.67 104.822 151.766 104.562 151.82 104.271L154.153 104.282C154.092 104.783 153.941 105.266 153.7 105.731C153.462 106.192 153.141 106.606 152.736 106.972C152.334 107.334 151.855 107.622 151.297 107.835C150.744 108.044 150.117 108.149 149.417 108.149C148.444 108.149 147.574 107.929 146.807 107.489C146.044 107.048 145.44 106.411 144.996 105.576C144.556 104.742 144.335 103.732 144.335 102.545C144.335 101.356 144.559 100.344 145.007 99.5092C145.454 98.6747 146.061 98.0391 146.828 97.6023C147.595 97.1619 148.458 96.9418 149.417 96.9418C150.049 96.9418 150.635 97.0305 151.175 97.2081C151.718 97.3857 152.199 97.6449 152.619 97.9858C153.038 98.3232 153.378 98.7369 153.641 99.2269C153.908 99.717 154.078 100.278 154.153 100.91ZM155.807 108V97.0909H163.157V98.9925H158.113V101.592H162.779V103.494H158.113V106.098H163.179V108H155.807ZM172.33 108H168.463V97.0909H172.362C173.459 97.0909 174.404 97.3093 175.196 97.7461C175.988 98.1793 176.597 98.8026 177.023 99.6158C177.453 100.429 177.667 101.402 177.667 102.535C177.667 103.671 177.453 104.648 177.023 105.464C176.597 106.281 175.984 106.908 175.185 107.345C174.39 107.782 173.438 108 172.33 108ZM170.769 106.024H172.234C172.916 106.024 173.489 105.903 173.955 105.662C174.423 105.417 174.775 105.038 175.009 104.527C175.247 104.012 175.366 103.348 175.366 102.535C175.366 101.729 175.247 101.07 175.009 100.559C174.775 100.047 174.425 99.6708 173.96 99.4293C173.495 99.1879 172.921 99.0671 172.239 99.0671H170.769V106.024ZM183.03 108.16C182.203 108.16 181.487 107.984 180.883 107.632C180.283 107.277 179.82 106.784 179.493 106.152C179.166 105.516 179.003 104.779 179.003 103.941C179.003 103.096 179.166 102.357 179.493 101.725C179.82 101.089 180.283 100.596 180.883 100.244C181.487 99.8892 182.203 99.7116 183.03 99.7116C183.857 99.7116 184.571 99.8892 185.171 100.244C185.775 100.596 186.24 101.089 186.567 101.725C186.894 102.357 187.057 103.096 187.057 103.941C187.057 104.779 186.894 105.516 186.567 106.152C186.24 106.784 185.775 107.277 185.171 107.632C184.571 107.984 183.857 108.16 183.03 108.16ZM183.041 106.402C183.417 106.402 183.731 106.295 183.983 106.082C184.236 105.866 184.426 105.571 184.553 105.198C184.685 104.825 184.751 104.401 184.751 103.925C184.751 103.449 184.685 103.025 184.553 102.652C184.426 102.279 184.236 101.984 183.983 101.768C183.731 101.551 183.417 101.443 183.041 101.443C182.661 101.443 182.341 101.551 182.082 101.768C181.826 101.984 181.633 102.279 181.501 102.652C181.373 103.025 181.309 103.449 181.309 103.925C181.309 104.401 181.373 104.825 181.501 105.198C181.633 105.571 181.826 105.866 182.082 106.082C182.341 106.295 182.661 106.402 183.041 106.402ZM192.229 108.16C191.391 108.16 190.67 107.982 190.067 107.627C189.466 107.268 189.005 106.771 188.682 106.136C188.362 105.5 188.202 104.768 188.202 103.941C188.202 103.103 188.364 102.368 188.687 101.736C189.014 101.1 189.477 100.605 190.077 100.25C190.677 99.891 191.391 99.7116 192.219 99.7116C192.932 99.7116 193.557 99.8413 194.094 100.1C194.63 100.36 195.054 100.724 195.367 101.192C195.679 101.661 195.851 102.212 195.883 102.844H193.742C193.682 102.435 193.522 102.107 193.263 101.858C193.007 101.606 192.671 101.48 192.256 101.48C191.904 101.48 191.597 101.576 191.334 101.768C191.075 101.956 190.873 102.231 190.727 102.593C190.581 102.956 190.509 103.394 190.509 103.909C190.509 104.431 190.58 104.875 190.722 105.241C190.867 105.607 191.072 105.885 191.334 106.077C191.597 106.269 191.904 106.365 192.256 106.365C192.515 106.365 192.748 106.311 192.954 106.205C193.163 106.098 193.335 105.944 193.47 105.741C193.609 105.536 193.699 105.289 193.742 105.001H195.883C195.848 105.626 195.677 106.176 195.372 106.652C195.07 107.125 194.653 107.494 194.12 107.76C193.588 108.027 192.957 108.16 192.229 108.16ZM203.297 100.228C203.254 99.7987 203.071 99.4648 202.748 99.2269C202.425 98.989 201.986 98.87 201.432 98.87C201.056 98.87 200.738 98.9233 200.479 99.0298C200.22 99.1328 200.021 99.2766 199.882 99.4613C199.747 99.646 199.68 99.8555 199.68 100.09C199.673 100.285 199.714 100.456 199.802 100.601C199.895 100.747 200.021 100.873 200.181 100.979C200.34 101.082 200.525 101.173 200.735 101.251C200.944 101.326 201.168 101.39 201.406 101.443L202.386 101.677C202.862 101.784 203.299 101.926 203.696 102.103C204.094 102.281 204.438 102.499 204.73 102.759C205.021 103.018 205.246 103.323 205.406 103.675C205.57 104.026 205.653 104.429 205.657 104.884C205.653 105.551 205.483 106.13 205.145 106.62C204.811 107.107 204.328 107.485 203.696 107.755C203.068 108.021 202.31 108.154 201.422 108.154C200.541 108.154 199.774 108.02 199.121 107.75C198.471 107.48 197.963 107.08 197.597 106.551C197.235 106.018 197.045 105.36 197.027 104.575H199.259C199.284 104.941 199.389 105.246 199.573 105.491C199.762 105.733 200.012 105.915 200.324 106.04C200.641 106.161 200.997 106.221 201.395 106.221C201.786 106.221 202.125 106.164 202.413 106.05C202.704 105.937 202.929 105.779 203.089 105.576C203.249 105.374 203.329 105.141 203.329 104.879C203.329 104.634 203.256 104.428 203.11 104.261C202.968 104.094 202.759 103.952 202.482 103.835C202.208 103.717 201.873 103.611 201.475 103.515L200.287 103.217C199.367 102.993 198.641 102.643 198.109 102.167C197.576 101.691 197.311 101.05 197.315 100.244C197.311 99.5838 197.487 99.0067 197.842 98.5131C198.201 98.0195 198.693 97.6342 199.318 97.3572C199.943 97.0803 200.653 96.9418 201.448 96.9418C202.258 96.9418 202.965 97.0803 203.568 97.3572C204.176 97.6342 204.648 98.0195 204.985 98.5131C205.323 99.0067 205.497 99.5785 205.507 100.228H203.297ZM207.165 111.068V99.8182H209.403V101.192H209.504C209.603 100.972 209.747 100.749 209.935 100.521C210.127 100.29 210.376 100.099 210.681 99.946C210.99 99.7898 211.373 99.7116 211.831 99.7116C212.428 99.7116 212.979 99.8679 213.483 100.18C213.987 100.489 214.39 100.956 214.692 101.581C214.994 102.203 215.145 102.982 215.145 103.92C215.145 104.832 214.997 105.603 214.703 106.232C214.411 106.857 214.014 107.331 213.509 107.654C213.009 107.973 212.448 108.133 211.826 108.133C211.386 108.133 211.011 108.06 210.702 107.915C210.397 107.769 210.146 107.586 209.951 107.366C209.756 107.142 209.607 106.917 209.504 106.69H209.434V111.068H207.165ZM209.387 103.909C209.387 104.396 209.454 104.82 209.589 105.182C209.724 105.544 209.919 105.827 210.175 106.029C210.431 106.228 210.741 106.327 211.107 106.327C211.476 106.327 211.789 106.226 212.045 106.024C212.3 105.818 212.494 105.534 212.625 105.172C212.76 104.806 212.828 104.385 212.828 103.909C212.828 103.437 212.762 103.021 212.631 102.663C212.499 102.304 212.306 102.023 212.05 101.821C211.794 101.619 211.48 101.517 211.107 101.517C210.738 101.517 210.425 101.615 210.17 101.81C209.917 102.006 209.724 102.283 209.589 102.641C209.454 103 209.387 103.423 209.387 103.909ZM218.991 108.154C218.469 108.154 218.003 108.064 217.595 107.883C217.187 107.698 216.863 107.426 216.626 107.068C216.391 106.706 216.274 106.255 216.274 105.715C216.274 105.26 216.357 104.879 216.524 104.57C216.691 104.261 216.919 104.012 217.206 103.824C217.494 103.636 217.82 103.494 218.186 103.398C218.556 103.302 218.943 103.234 219.347 103.195C219.823 103.146 220.207 103.099 220.498 103.057C220.789 103.011 221.001 102.943 221.132 102.854C221.263 102.766 221.329 102.634 221.329 102.46V102.428C221.329 102.091 221.222 101.83 221.009 101.645C220.8 101.461 220.502 101.368 220.115 101.368C219.706 101.368 219.381 101.459 219.14 101.64C218.898 101.817 218.738 102.041 218.66 102.311L216.562 102.141C216.668 101.643 216.878 101.214 217.19 100.852C217.503 100.486 217.906 100.205 218.399 100.01C218.896 99.8111 219.472 99.7116 220.125 99.7116C220.58 99.7116 221.015 99.7649 221.43 99.8714C221.849 99.978 222.22 100.143 222.544 100.367C222.87 100.591 223.128 100.878 223.316 101.23C223.504 101.578 223.598 101.995 223.598 102.482V108H221.446V106.865H221.382C221.251 107.121 221.075 107.347 220.855 107.542C220.635 107.734 220.37 107.885 220.061 107.995C219.752 108.101 219.395 108.154 218.991 108.154ZM219.64 106.588C219.974 106.588 220.269 106.523 220.525 106.391C220.78 106.256 220.981 106.075 221.127 105.848C221.272 105.621 221.345 105.363 221.345 105.076V104.207C221.274 104.254 221.176 104.296 221.052 104.335C220.931 104.371 220.795 104.404 220.642 104.436C220.489 104.465 220.336 104.491 220.184 104.516C220.031 104.538 219.893 104.557 219.768 104.575C219.502 104.614 219.269 104.676 219.07 104.761C218.872 104.847 218.717 104.962 218.607 105.108C218.497 105.25 218.442 105.427 218.442 105.64C218.442 105.949 218.554 106.185 218.778 106.349C219.005 106.509 219.292 106.588 219.64 106.588ZM229.055 108.16C228.217 108.16 227.496 107.982 226.893 107.627C226.293 107.268 225.831 106.771 225.508 106.136C225.188 105.5 225.028 104.768 225.028 103.941C225.028 103.103 225.19 102.368 225.513 101.736C225.84 101.1 226.303 100.605 226.903 100.25C227.504 99.891 228.217 99.7116 229.045 99.7116C229.759 99.7116 230.384 99.8413 230.92 100.1C231.456 100.36 231.88 100.724 232.193 101.192C232.505 101.661 232.678 102.212 232.71 102.844H230.568C230.508 102.435 230.348 102.107 230.089 101.858C229.833 101.606 229.498 101.48 229.082 101.48C228.73 101.48 228.423 101.576 228.161 101.768C227.901 101.956 227.699 102.231 227.553 102.593C227.408 102.956 227.335 103.394 227.335 103.909C227.335 104.431 227.406 104.875 227.548 105.241C227.694 105.607 227.898 105.885 228.161 106.077C228.423 106.269 228.73 106.365 229.082 106.365C229.341 106.365 229.574 106.311 229.78 106.205C229.989 106.098 230.162 105.944 230.297 105.741C230.435 105.536 230.526 105.289 230.568 105.001H232.71C232.674 105.626 232.504 106.176 232.198 106.652C231.896 107.125 231.479 107.494 230.946 107.76C230.414 108.027 229.783 108.16 229.055 108.16ZM237.891 108.16C237.049 108.16 236.325 107.989 235.718 107.648C235.114 107.304 234.649 106.817 234.322 106.189C233.995 105.557 233.832 104.809 233.832 103.946C233.832 103.105 233.995 102.366 234.322 101.73C234.649 101.095 235.109 100.599 235.702 100.244C236.298 99.8892 236.998 99.7116 237.801 99.7116C238.34 99.7116 238.843 99.7987 239.308 99.9727C239.777 100.143 240.185 100.401 240.533 100.745C240.885 101.089 241.158 101.523 241.353 102.045C241.549 102.563 241.646 103.17 241.646 103.866V104.49H234.738V103.083H239.51C239.51 102.757 239.439 102.467 239.297 102.215C239.155 101.963 238.958 101.766 238.706 101.624C238.457 101.478 238.168 101.406 237.838 101.406C237.493 101.406 237.188 101.485 236.922 101.645C236.659 101.801 236.453 102.013 236.304 102.279C236.155 102.542 236.078 102.835 236.075 103.158V104.495C236.075 104.9 236.149 105.25 236.298 105.544C236.451 105.839 236.666 106.066 236.943 106.226C237.22 106.386 237.548 106.466 237.928 106.466C238.18 106.466 238.411 106.43 238.621 106.359C238.83 106.288 239.01 106.182 239.159 106.04C239.308 105.898 239.422 105.724 239.5 105.518L241.598 105.656C241.492 106.161 241.274 106.601 240.943 106.977C240.617 107.35 240.194 107.641 239.676 107.851C239.161 108.057 238.566 108.16 237.891 108.16Z" fill="#192435"/>
<path fill-rule="evenodd" clip-rule="evenodd" d="M380.97 45.5048C380.629 47.3386 379.98 49.9068 378.832 50.5356C378.054 50.9677 376.863 50.2812 375.042 47.2665C376.868 47.1753 378.818 46.6377 380.552 45.7304C380.691 45.6584 380.831 45.5816 380.97 45.5048ZM372.424 47.0601C371.55 48.1066 370.767 48.8171 370.085 49.2827C369.072 49.9692 368.375 50.0748 367.986 49.9404C367.655 49.8204 367.487 49.2587 367.424 48.5531C367.309 47.3098 367.544 45.7592 367.731 44.8952C368.092 44.8471 368.466 44.7991 368.846 44.7607L369.038 45.0296C369.845 46.0809 371.036 46.7433 372.424 47.0601Z" fill="#CCCCCC" stroke="#CCCCCC" stroke-width="0.216" stroke-miterlimit="22.9256"/>
<path fill-rule="evenodd" clip-rule="evenodd" d="M381.036 22.0306C381.075 20.216 381.008 18.6991 380.859 17.4366C380.671 15.8957 380.35 14.71 379.927 13.8123C379.615 13.1498 379.144 12.5114 378.572 11.9977C378.029 11.5033 377.386 11.1097 376.694 10.8984C375.829 10.6344 374.989 10.6872 374.172 10.9369C373.409 11.1673 372.678 11.5705 371.963 12.0409C371.607 12.2714 371.3 12.4922 371.007 12.7034C369.791 13.5723 368.821 14.2683 367.078 13.7979C366.957 13.7643 366.842 13.7067 366.746 13.6251C366.607 13.5051 366.496 13.3418 366.439 13.1498C366.376 12.9434 366.371 12.7034 366.443 12.4346C366.516 12.1562 366.679 11.8537 366.943 11.5417L366.977 11.4937C367.073 11.3593 367.193 11.2249 367.332 11.0905C368.504 9.94797 370.843 9.0647 373.505 8.88228C376.185 8.69987 379.163 9.25191 381.565 10.9897C382.026 11.3209 382.463 11.6953 382.876 12.1225C383.851 13.1258 384.601 14.5227 384.99 16.4237C385.326 18.0702 385.393 20.0912 385.105 22.5586C384.97 22.3138 384.807 22.0978 384.615 21.9154C384.245 21.5697 383.774 21.3585 383.217 21.3297C382.598 21.2961 381.863 21.5025 381.036 22.0306Z" fill="#666666" stroke="#666666" stroke-width="0.216" stroke-miterlimit="22.9256"/>
<path fill-rule="evenodd" clip-rule="evenodd" d="M365.334 12.7754C364.47 13.7451 363.763 14.9884 363.23 16.4141C362.073 19.5247 361.732 23.5283 362.366 27.3542C363.005 31.2137 364.638 34.9196 367.409 37.3966C368.485 38.3567 369.734 39.1344 371.161 39.6672C371.372 39.7488 374.518 40.6321 378.256 37.4206C380.1 35.8317 382.132 33.2251 384.068 28.9863L382.742 28.3815C380.907 32.4042 379.015 34.8476 377.309 36.3117C374.182 39 371.824 38.3567 371.67 38.2991C370.421 37.8383 369.331 37.1566 368.389 36.3117C365.882 34.0699 364.402 30.6761 363.812 27.119C363.216 23.5331 363.528 19.7984 364.599 16.9229C365.07 15.6652 365.68 14.5755 366.425 13.7451L365.334 12.7754Z" fill="#333333"/>
<path fill-rule="evenodd" clip-rule="evenodd" d="M381.003 23.0675C381.095 20.7825 381.037 18.9296 380.854 17.4366C380.667 15.8957 380.345 14.71 379.922 13.8123C379.61 13.1499 379.14 12.5114 378.568 11.9978C378.025 11.5034 377.381 11.1097 376.69 10.8985C375.825 10.6345 374.985 10.6873 374.168 10.9369C373.404 11.1673 372.674 11.5706 371.958 12.041C371.603 12.2714 371.295 12.4922 371.002 12.7035C369.787 13.5723 368.817 14.2684 367.073 13.7979C366.953 13.7643 366.838 13.7067 366.742 13.6251C366.602 13.5051 366.492 13.3419 366.434 13.1499C366.372 12.9435 366.367 12.7035 366.439 12.4346C366.511 12.1562 366.675 11.8538 366.939 11.5418L366.972 11.4938C367.068 11.3593 367.189 11.2249 367.328 11.0905C368.5 9.94803 370.839 9.06476 373.5 8.88234C376.181 8.69993 379.159 9.25198 381.56 10.9897C382.022 11.3209 382.459 11.6954 382.872 12.1226C383.847 13.1259 384.596 14.5228 384.985 16.4238C385.346 18.1951 385.394 20.3937 385.033 23.1155L384.981 23.5283C384.798 24.9541 384.683 25.8421 383.804 27.0614C383.679 27.2343 383.535 27.4215 383.367 27.6231C383.223 27.8007 383.054 27.9927 382.862 28.1943L383.03 28.7992L383.929 29.188C384.116 28.9864 384.303 28.7752 384.486 28.5496C384.654 28.3479 384.817 28.1367 384.981 27.9111C386.071 26.3942 386.205 25.3669 386.422 23.7156L386.474 23.3027C386.859 20.4129 386.801 18.0511 386.407 16.1309C385.96 13.9324 385.072 12.2954 383.909 11.1049C383.439 10.6201 382.934 10.1929 382.406 9.80882C379.697 7.84546 376.373 7.22621 373.39 7.42783C370.388 7.62944 367.698 8.68073 366.295 10.044C366.113 10.2217 365.949 10.4089 365.805 10.6009C365.392 11.0857 365.137 11.5802 365.013 12.0554C364.868 12.5979 364.888 13.1163 365.027 13.5723C365.171 14.0428 365.44 14.4412 365.786 14.734C366.05 14.9548 366.357 15.1181 366.684 15.2093C369.095 15.8573 370.311 14.9836 371.843 13.8892C372.136 13.6827 372.439 13.4619 372.746 13.2603C373.356 12.8571 373.971 12.5162 374.581 12.329C375.138 12.161 375.695 12.1226 376.253 12.2906C376.723 12.4346 377.175 12.7131 377.569 13.0731C377.996 13.4619 378.352 13.942 378.587 14.4316C378.947 15.1901 379.221 16.2269 379.389 17.6047C379.548 18.9248 379.61 20.5377 379.548 22.5011L379.918 23.0195L381.003 23.0675Z" fill="#333333"/>
<path fill-rule="evenodd" clip-rule="evenodd" d="M380.682 23.519C381.705 22.6165 382.541 22.2661 383.175 22.2949C383.492 22.3093 383.751 22.4293 383.958 22.6165C384.179 22.8229 384.337 23.1157 384.433 23.4662C384.688 24.3782 384.496 25.6311 383.775 26.7592C383.592 27.0473 383.285 27.3689 382.91 27.6281C382.728 27.7529 382.531 27.8585 382.329 27.9353C381.565 28.2186 381.945 29.0586 382.406 28.9338C382.786 28.8282 383.146 28.6506 383.463 28.4346C383.948 28.1034 384.351 27.6713 384.596 27.2873C385.471 25.9192 385.692 24.3686 385.375 23.2117C385.23 22.6885 384.976 22.2373 384.62 21.9108C384.251 21.5652 383.78 21.354 383.223 21.3252C382.344 21.282 381.239 21.714 379.971 22.8469C379.519 23.2549 380.067 24.0614 380.682 23.519Z" fill="#333333"/>
<path fill-rule="evenodd" clip-rule="evenodd" d="M382.435 23.9988C382.579 23.97 382.704 23.97 382.81 23.994C382.93 24.0228 383.026 24.09 383.083 24.1812C383.151 24.2916 383.189 24.4404 383.189 24.6132C383.189 24.9733 383.04 25.4341 382.733 25.9093C382.627 26.0726 382.454 26.2598 382.238 26.4038C382.156 26.4614 382.065 26.5142 381.969 26.5526C381.455 26.7734 381.623 27.191 382.036 27.047C382.204 26.9894 382.368 26.903 382.512 26.807C382.781 26.6246 383.006 26.3846 383.141 26.1734C383.496 25.6165 383.674 25.0645 383.674 24.6132C383.674 24.3444 383.612 24.1044 383.492 23.9172C383.362 23.7156 383.17 23.5764 382.915 23.5187C382.766 23.4851 382.593 23.4803 382.396 23.5091C381.758 23.6148 381.83 24.1188 382.435 23.9988Z" fill="#333333"/>
<path fill-rule="evenodd" clip-rule="evenodd" d="M381.936 44.4723L381.398 33.561L379.938 33.6282L380.48 44.5395L381.936 44.4723Z" fill="#333333"/>
<path fill-rule="evenodd" clip-rule="evenodd" d="M370.157 44.4147L370.954 38.563L369.508 38.3662L368.706 44.2179L370.157 44.4147Z" fill="#333333"/>
<path fill-rule="evenodd" clip-rule="evenodd" d="M381.234 43.8774L381.22 43.959C381.023 45.2936 380.379 49.6859 378.833 50.5356C377.968 51.0156 376.594 50.1179 374.413 46.172L373.131 46.8729C375.845 51.7885 377.949 52.691 379.534 51.8125C381.719 50.6076 382.445 45.6632 382.666 44.1655L382.68 44.0839L381.234 43.8774Z" fill="#333333"/>
<path fill-rule="evenodd" clip-rule="evenodd" d="M366.435 44.0454C366.238 44.7559 365.805 46.964 365.969 48.6874C366.084 49.9211 366.512 50.9628 367.501 51.3132C368.25 51.5772 369.437 51.486 370.907 50.4875C371.896 49.8107 373.063 48.7018 374.356 46.9592L373.184 46.0904C371.997 47.6841 370.955 48.6874 370.08 49.2826C369.067 49.9691 368.37 50.0747 367.981 49.9403C367.65 49.8203 367.482 49.2586 367.419 48.553C367.275 47.0361 367.664 45.0727 367.837 44.439L366.435 44.0454Z" fill="#333333"/>
<path fill-rule="evenodd" clip-rule="evenodd" d="M371.665 27.3782C369.278 28.3238 368.437 27.2149 368.471 26.1829C368.509 24.7907 369.816 25.0692 369.551 22.813C370.685 24.4019 368.13 26.1637 369.657 26.9941C369.984 27.1717 370.503 27.3542 371.665 27.3782Z" fill="#333333"/>
<path fill-rule="evenodd" clip-rule="evenodd" d="M370.388 30.7339C373.179 32.9853 374.192 28.9914 374.682 28.377C374.543 33.3358 370.738 32.9901 370.388 30.7339Z" fill="#333333"/>
<path fill-rule="evenodd" clip-rule="evenodd" d="M372.568 21.9923C374.053 18.4832 377.991 20.485 378.006 22.3619C377.819 22.1555 376.992 21.6611 376.522 21.6035C376.358 23.6916 373.861 24.1285 373.188 21.9011C372.924 21.8867 372.765 21.8723 372.568 21.9923Z" fill="#333333"/>
<path fill-rule="evenodd" clip-rule="evenodd" d="M364.076 21.8434C365.426 18.2815 369.442 20.1345 369.528 22.0115C369.331 21.8146 368.491 21.349 368.015 21.3106C367.933 23.4036 365.45 23.9316 364.696 21.733C364.427 21.7234 364.268 21.7186 364.076 21.8434Z" fill="#333333"/>
<path fill-rule="evenodd" clip-rule="evenodd" d="M314.946 41.842C314.158 38.3425 314.36 37.3296 314.658 35.8511L314.701 35.6447C314.792 35.1838 314.931 34.6702 315.061 34.1805C315.325 33.1821 315.565 32.2796 315.45 31.6219C315.306 30.7915 314.826 30.3642 313.774 30.5466C312.069 30.8395 311.252 32.4188 310.565 33.7389C310.2 34.4446 309.893 35.035 309.801 35.0206C309.705 34.987 309.609 34.9438 309.513 34.891C309.407 34.8334 309.302 34.7566 309.186 34.675C308.985 34.5262 308.653 34.2333 308.245 33.8781C305.934 31.8427 301.395 27.844 298.239 30.513C297.365 31.2523 296.904 32.6924 297.389 34.6846C297.745 36.1343 298.609 37.9248 300.209 39.9842C300.271 40.061 300.54 40.3586 301.112 40.7859C301.419 41.0115 301.827 41.2899 302.37 41.6116C302.927 41.9428 303.59 42.1876 304.388 42.4852C305.584 42.9317 307.111 43.4981 308.898 44.5926L309.662 43.3493C307.75 42.178 306.155 41.5827 304.897 41.1171C304.157 40.8435 303.547 40.6131 303.115 40.3586C302.63 40.0706 302.26 39.821 301.981 39.6146C301.558 39.3026 301.4 39.1393 301.366 39.0961C299.901 37.2048 299.118 35.6111 298.806 34.3486C298.465 32.9612 298.696 32.0444 299.181 31.6315C301.371 29.7786 305.286 33.2253 307.275 34.9774C307.702 35.3518 308.048 35.6591 308.312 35.8559C308.466 35.9663 308.624 36.0719 308.788 36.1679C308.965 36.2687 309.148 36.3503 309.335 36.4127C310.603 36.8256 311.17 35.7311 311.852 34.4158C312.386 33.3885 313.024 32.1644 314.009 31.9916C314.019 31.9916 313.995 31.8043 314.004 31.8763C314.062 32.222 313.86 32.9804 313.639 33.8205C313.51 34.3102 313.375 34.8238 313.265 35.3758L313.221 35.5823C312.885 37.248 312.659 38.3857 313.51 42.1732L314.946 41.842Z" fill="#333333"/>
<path fill-rule="evenodd" clip-rule="evenodd" d="M311.132 42.1827C310.44 42.4563 309.777 42.7635 309.253 43.09C307.524 42.0771 306.059 41.5346 304.897 41.1026C304.157 40.829 303.547 40.5985 303.115 40.3441C302.629 40.0561 302.26 39.8065 301.981 39.6001C301.558 39.288 301.4 39.1248 301.366 39.0816C301.232 38.9088 301.107 38.7408 300.982 38.5728C299.762 36.9022 299.084 35.4813 298.806 34.3292C298.465 32.9419 298.695 32.025 299.181 31.6122C299.401 31.425 299.642 31.2906 299.891 31.2042C302.139 30.4361 305.483 33.3787 307.274 34.9581C307.702 35.3325 308.048 35.6397 308.312 35.8366C308.466 35.947 308.624 36.0526 308.787 36.1486C308.965 36.2494 309.148 36.331 309.335 36.3934C310.603 36.8062 311.17 35.7117 311.852 34.3964C312.385 33.3691 313.024 32.145 314.014 31.9722C314.018 32.3515 313.841 33.0427 313.639 33.8012C313.509 34.2908 313.375 34.8045 313.264 35.3565L313.221 35.5629C312.909 37.1231 312.688 38.2175 313.356 41.453C312.673 41.6354 311.881 41.8899 311.132 42.1827Z" fill="#FEFEFE"/>
<path fill-rule="evenodd" clip-rule="evenodd" d="M373.587 86.6872C372.424 86.476 371.305 86.0631 369.778 85.2999C368.706 84.7622 367.837 84.2006 367.14 83.6341C366.545 83.1493 366.074 82.6596 365.714 82.1748C365.877 83.7349 366.309 85.4535 366.886 87.1768C367.712 89.6442 368.826 92.1212 369.874 94.195C370.378 92.8125 371.05 91.3484 371.805 89.889C372.367 88.8042 372.972 87.7241 373.587 86.6872Z" fill="#FF6F3D"/>
<path fill-rule="evenodd" clip-rule="evenodd" d="M365.324 81.1753L365.941 82.0059C366.286 82.4693 366.739 82.9422 367.319 83.4143M365.324 81.1753L365.432 82.2044L365.324 81.1753ZM367.155 87.0869C366.697 85.7198 366.334 84.3621 366.124 83.0902L367.155 87.0869ZM366.124 83.0902C366.372 83.3463 366.651 83.6013 366.962 83.8541L366.962 83.8542C367.676 84.4355 368.564 85.0079 369.65 85.5533L369.651 85.5535C371.022 86.2384 372.08 86.6504 373.14 86.8863C372.593 87.8213 372.056 88.7879 371.553 89.7588L371.553 89.759C370.904 91.0138 370.314 92.2754 369.838 93.4889C368.882 91.5492 367.9 89.3125 367.155 87.087M365.432 82.2044C365.598 83.7922 366.037 85.5321 366.617 87.2669L365.432 82.2044ZM367.319 83.4144C367.998 83.9659 368.849 84.5167 369.904 85.0465C371.419 85.8031 372.511 86.2038 373.637 86.4084L374.038 86.4813L373.831 86.8319C373.218 87.8648 372.616 88.9401 372.056 90.0195C371.306 91.4719 370.639 92.9245 370.14 94.2923L369.916 94.9071L369.621 94.3229C368.57 92.2415 367.449 89.7514 366.617 87.2669L366.617 87.2669" fill="#FF6F3D"/>
<path fill-rule="evenodd" clip-rule="evenodd" d="M365.642 80.8018C365.627 82.6883 366.137 84.9253 366.886 87.1767C367.712 89.6441 368.827 92.1211 369.874 94.1949C370.378 92.8123 371.051 91.3482 371.805 89.8889C373.13 87.3303 374.706 84.7861 376.085 82.7507L377.213 83.5092C375.854 85.5157 374.302 88.0168 373.01 90.513C372.002 92.4667 371.147 94.4205 370.671 96.1294L370.22 97.7568L369.417 96.2686C368.159 93.926 366.646 90.7674 365.594 87.6135C364.801 85.2373 364.263 82.8563 364.278 80.8066L365.642 80.8018Z" fill="#333333"/>
<path fill-rule="evenodd" clip-rule="evenodd" d="M358.831 61.5715C356.539 64.7637 352.658 68.4072 348.527 70.9418C344.934 73.1452 341.178 74.4941 338.209 73.9229C337.883 73.8605 336.499 73.4093 334.318 69.953C332.046 66.3479 329.102 59.6465 325.999 47.2087C326.465 47.0071 327.089 46.8199 327.742 46.671C328.674 46.455 329.654 46.311 330.38 46.2582C330.841 47.3527 331.335 48.6056 331.849 49.9065C333.934 55.2013 336.365 61.3795 340.352 65.5798L340.784 66.0358L341.298 65.6758C342.643 64.7397 346.231 60.501 349.565 56.5551C352.298 53.3244 354.858 50.2953 355.732 49.5993C356.981 48.6008 358.528 47.5639 360.675 46.6854C362.745 45.8358 365.378 45.1349 368.846 44.7557L369.038 45.0245C370.176 46.5174 372.088 47.2231 374.231 47.2759C376.277 47.3239 378.558 46.7719 380.552 45.7302C381.109 45.4421 381.642 45.1157 382.142 44.7557C384.409 45.1925 387.599 46.599 390.658 48.3848C393.747 50.1849 396.672 52.3547 398.368 54.2989C399.021 56.075 399.795 58.0672 400.616 60.1938C404.833 71.0763 410.458 85.5879 408.412 93.1581C408.398 93.2061 408.133 93.5709 406.678 93.7677C405.737 93.8925 404.387 93.8781 402.461 93.5421C400.39 93.1821 397.623 92.318 394.05 90.9403C390.433 89.5482 386.009 87.6376 380.662 85.199L380.057 86.5239C385.442 88.9817 389.895 90.9019 393.526 92.3036C397.201 93.7197 400.059 94.6078 402.22 94.9822C404.305 95.3423 405.804 95.3567 406.88 95.2126C409.195 94.9006 409.786 93.7053 409.829 93.5421C412 85.5159 406.275 70.745 401.98 59.6705C401.14 57.5007 400.352 55.475 399.694 53.6748L399.646 53.55L399.559 53.4492C397.772 51.3562 394.66 49.028 391.393 47.1223C388.065 45.1781 384.539 43.6612 382.075 43.2628L381.767 43.2148L381.517 43.4068C381.003 43.7956 380.456 44.146 379.879 44.4437C378.097 45.3701 376.075 45.8694 374.264 45.8214C372.549 45.7782 371.051 45.2501 370.2 44.1412C370.08 43.9828 369.975 43.8196 369.883 43.6468L369.653 43.21L369.163 43.258C365.31 43.6372 362.4 44.4005 360.123 45.3365C357.827 46.2774 356.165 47.3911 354.824 48.4616C353.821 49.2633 351.222 52.3355 348.45 55.6142C345.549 59.0465 342.446 62.714 340.952 64.0725C337.431 60.0882 335.164 54.3325 333.214 49.3737C332.647 47.9287 332.104 46.551 331.528 45.2213L331.335 44.7797H330.855C330.034 44.7845 328.674 44.9573 327.425 45.2453C326.378 45.4901 325.379 45.8214 324.764 46.215L324.327 46.4982L324.452 47.0023C327.651 59.9777 330.725 66.9671 333.094 70.7306C335.591 74.6958 337.489 75.2718 337.945 75.3582C341.307 76.0063 345.419 74.5613 349.296 72.1851C353.624 69.5305 357.702 65.6902 360.089 62.3251C360.901 61.1826 359.695 60.3714 358.831 61.5715Z" fill="#333333"/>
<path fill-rule="evenodd" clip-rule="evenodd" d="M398.363 54.2943C399.017 56.0705 399.79 58.0627 400.611 60.1892C404.829 71.0717 410.454 85.5833 408.407 93.1535C408.393 93.2015 408.129 93.5664 406.673 93.7632C405.732 93.888 404.382 93.8736 402.456 93.5376C400.386 93.1775 397.619 92.3135 394.045 90.9358C390.596 89.6061 386.412 87.8059 381.393 85.5257C381.974 85.0937 382.497 84.5752 382.959 83.9992C383.304 83.5672 383.612 83.1063 383.886 82.6215C386.018 83.2743 389.16 83.9992 392.224 84.5608C394.977 85.0697 397.676 85.4489 399.54 85.5353C400.693 85.5881 400.852 84.1336 399.555 84.0712C399.401 84.0616 399.247 84.0568 399.084 84.0424C398.503 83.3223 397.047 80.8837 395.606 78.2627C394.237 75.7665 392.897 73.1311 392.359 71.667C392.407 69.3772 392.522 67.0586 392.7 64.7064C392.786 63.5783 391.336 63.3431 391.245 64.572C391.004 67.7306 390.88 70.8605 390.875 73.976C390.87 76.9858 390.98 79.9525 391.197 82.8855C388.713 82.3959 386.292 81.8246 384.534 81.3014C384.683 80.9461 384.813 80.5861 384.928 80.2309C385.346 78.906 385.543 77.5619 385.504 76.4338C385.461 75.1137 378.506 79.9765 377.819 79.4292C377.656 79.2996 377.492 79.2036 377.334 79.1316L377.535 78.1427C377.564 78.0227 377.579 77.9075 377.579 77.7971C377.579 77.437 377.444 77.101 377.223 76.8322C377.012 76.5682 376.709 76.3714 376.373 76.2898C376.253 76.261 376.133 76.2466 376.013 76.2466L377.118 70.3277C376.863 66.1177 376.546 62.3734 376.287 59.2436C376.066 56.5745 375.878 54.3376 375.797 52.7438C375.835 52.643 375.873 52.547 375.912 52.4414C376.061 52.043 376.205 51.6253 376.339 51.1981C377.583 52.2398 378.645 52.3118 379.538 51.8173C381.46 50.7565 382.252 46.8009 382.565 44.8472C384.793 45.3656 387.781 46.7097 390.654 48.3851C393.742 50.1804 396.668 52.3502 398.363 54.2943ZM370.642 53.2623C370.546 52.9502 370.455 52.6142 370.369 52.259C370.268 51.8365 370.172 51.4093 370.08 50.9725C368.99 51.5101 368.101 51.5293 367.496 51.3133C366.507 50.9629 366.084 49.9212 365.964 48.6875C365.853 47.5162 366.017 46.1289 366.194 45.1304C363.985 45.524 362.179 46.0665 360.67 46.6809C358.523 47.5594 356.977 48.5963 355.728 49.5948C354.853 50.2908 352.293 53.3199 349.56 56.5505C346.226 60.4917 342.638 64.7352 341.293 65.6713L340.779 66.0313L340.347 65.5753C336.365 61.3749 333.929 55.1968 331.845 49.902C331.331 48.6011 330.841 47.3482 330.375 46.2537C329.65 46.3017 328.674 46.4505 327.738 46.6665C327.085 46.8201 326.46 47.0025 325.994 47.2042C329.102 59.6468 332.042 66.3433 334.314 69.9484C336.49 73.4047 337.873 73.856 338.205 73.9184C341.173 74.4896 344.925 73.1407 348.522 70.9373C352.653 68.4027 356.535 64.764 358.826 61.5669C359.691 60.362 360.896 61.1733 360.08 62.3206C359.244 63.4919 358.206 64.7256 357.025 65.9449L356.977 66.857L356.929 67.9755C356.78 72.4062 356.813 81.3686 357.279 89.8365C357.596 95.5969 358.105 101.122 358.884 104.804C363.985 107.684 369.749 108.956 375.451 109.201C382.627 109.508 389.722 108.198 395.328 106.431C394.665 104.012 394.079 101.621 393.565 99.2452C393.027 96.7538 392.57 94.2624 392.196 91.7758C388.982 90.4989 385.183 88.8476 380.725 86.8266C370.71 65.7433 370.835 78.7188 370.494 78.4163C370.157 78.1139 367.684 78.666 367.631 78.1907L362.203 72.123L362.188 71.931C362.188 71.5422 362.332 71.1821 362.573 70.9037C362.818 70.6253 363.159 70.4285 363.548 70.3853C363.62 70.3757 363.687 70.3709 363.735 70.3757L367.4 70.3613C367.635 67.9035 368.51 58.7107 370.642 53.2623Z" fill="#EFEFEF"/>
<path fill-rule="evenodd" clip-rule="evenodd" d="M399.676 53.5167L399.771 53.7764C400.357 55.3695 401.041 57.1394 401.776 59.0401C401.853 59.241 401.931 59.4433 402.01 59.647M402.011 59.6486L402.025 59.6865C404.126 65.1058 406.606 71.5051 408.302 77.5053C409.153 80.5154 409.817 83.4621 410.135 86.164C410.452 88.8502 410.438 91.3913 409.855 93.5448L409.85 93.5648L409.844 93.5847C409.765 93.8478 409.632 94.029 409.58 94.097C409.502 94.1988 409.417 94.2868 409.332 94.3624C409.161 94.5141 408.961 94.6421 408.738 94.7506C408.298 94.9652 407.7 95.1379 406.874 95.2495L406.87 95.25C405.736 95.4004 404.227 95.3689 402.199 95.0152C400.046 94.6408 397.272 93.7751 393.819 92.4554C394.161 94.6105 394.565 96.769 395.031 98.928C395.539 101.277 396.118 103.641 396.774 106.035L397.156 107.428L395.778 107.862C390.045 109.669 382.774 111.016 375.387 110.7C369.514 110.448 363.504 109.135 358.146 106.11L357.556 105.777L357.416 105.114C356.612 101.311 356.099 95.6871 355.781 89.9187C355.313 81.4102 355.279 72.4035 355.429 67.9249L355.43 67.9109L355.446 67.5436C353.582 69.26 351.477 70.884 349.307 72.2157L349.306 72.2163C345.64 74.4612 341.471 76.0729 337.924 75.3917C336.992 75.2151 335.311 74.3473 333.044 70.7474C330.651 66.9499 327.664 60.0796 324.539 47.5675L324.23 46.3328L325.398 45.8274C325.985 45.5737 326.709 45.3673 327.394 45.2062L327.401 45.2047C328.4 44.9744 329.455 44.8111 330.276 44.7568L331.338 44.6865L331.755 45.666C332.175 46.6528 332.614 47.7637 333.061 48.8988C333.121 49.0491 333.18 49.1998 333.24 49.3507L333.241 49.3523C335.258 54.4773 337.485 60.0752 340.947 64.0084C341.131 63.8375 341.352 63.6214 341.611 63.3569C342.164 62.7907 342.825 62.0696 343.559 61.2422C345.022 59.5922 346.735 57.5675 348.401 55.598L348.415 55.5817L348.487 55.4958C349.826 53.9138 351.13 52.3717 352.212 51.1348C353.267 49.9279 354.224 48.875 354.792 48.4224C356.127 47.3552 357.796 46.2362 360.102 45.2925L360.105 45.2916C361.717 44.6348 363.625 44.0644 365.931 43.6535L368.048 43.2764L367.671 45.3931C367.502 46.3448 367.366 47.5742 367.457 48.5441C367.506 49.0503 367.61 49.4046 367.728 49.6259C367.831 49.819 367.919 49.8717 367.997 49.8992L368 49.9004C368.135 49.9485 368.597 50.0313 369.417 49.627L371.153 48.7711L371.549 50.6656C371.637 51.0864 371.729 51.4986 371.827 51.9068C371.907 52.2372 371.991 52.5429 372.076 52.8207L372.23 53.3212L372.039 53.8089C369.999 59.0214 369.135 67.9813 368.893 70.5041L368.764 71.8558L363.993 71.8745L368.48 76.8901C368.585 76.8867 368.713 76.8802 368.864 76.871C368.918 76.8677 368.975 76.864 369.034 76.8602C369.12 76.8547 369.211 76.8488 369.304 76.8433C369.323 76.7504 369.343 76.6552 369.365 76.5593C369.472 76.09 369.634 75.5144 369.895 74.9862C370.143 74.4846 370.585 73.8134 371.364 73.4615C372.236 73.0676 373.14 73.2382 373.912 73.6728C374.222 73.8472 374.531 74.0734 374.841 74.3477L375.609 70.234C375.373 66.3744 375.086 62.9118 374.84 59.9497C374.824 59.7534 374.808 59.5592 374.792 59.3673L374.764 59.0332C374.556 56.5203 374.378 54.3753 374.299 52.8204L374.282 52.5047L374.395 52.2094C374.414 52.1583 374.43 52.1187 374.443 52.0838C374.465 52.0286 374.481 51.9855 374.502 51.9283L374.507 51.9161C374.647 51.5421 374.782 51.1494 374.909 50.7475L375.582 48.6076L377.302 50.0478C377.783 50.45 378.117 50.5716 378.311 50.603C378.48 50.6304 378.63 50.6055 378.812 50.5048L378.813 50.5041C378.995 50.4039 379.239 50.181 379.512 49.7516C379.779 49.3303 380.023 48.7901 380.239 48.172C380.672 46.9338 380.932 45.5613 381.083 44.6103L381.337 43.0215L382.905 43.386C385.343 43.9532 388.479 45.3801 391.408 47.0886C394.559 48.92 397.643 51.1866 399.494 53.3082L399.676 53.5167M390.654 48.3849C388.368 47.0515 386.008 45.9279 384.017 45.2634C383.506 45.093 383.02 44.9528 382.565 44.847C382.498 45.264 382.41 45.7722 382.293 46.324C381.863 48.3575 381.05 50.9827 379.539 51.8172C378.98 52.1262 378.356 52.214 377.663 51.982C377.247 51.8428 376.806 51.5886 376.339 51.1979C376.205 51.6252 376.061 52.0428 375.912 52.4412C375.886 52.5117 375.861 52.5779 375.835 52.6441C375.829 52.6592 375.823 52.6744 375.817 52.6896C375.81 52.7075 375.804 52.7255 375.797 52.7437C375.875 54.2741 376.051 56.3976 376.26 58.9272L376.287 59.2434C376.303 59.436 376.319 59.631 376.335 59.8283C376.585 62.8359 376.879 66.3767 377.118 70.3275L376.013 76.2464C376.133 76.2464 376.253 76.2608 376.373 76.2896C376.438 76.3053 376.501 76.3252 376.563 76.349C376.58 76.3557 376.597 76.3627 376.614 76.37C376.853 76.4721 377.064 76.633 377.223 76.832C377.441 77.0975 377.575 77.4285 377.579 77.7834C377.579 77.7879 377.579 77.7924 377.579 77.7969C377.579 77.9073 377.564 78.0225 377.535 78.1425L377.334 79.1314C377.492 79.2034 377.656 79.2994 377.819 79.4291C377.918 79.508 378.148 79.4743 378.468 79.3629C378.488 79.3558 378.509 79.3485 378.53 79.3409C378.628 79.3049 378.735 79.2622 378.848 79.2138C379.524 78.9243 380.443 78.4289 381.381 77.9227C382.309 77.4223 383.256 76.9113 384.008 76.5784C384.009 76.5777 384.011 76.5771 384.012 76.5764C384.092 76.541 384.17 76.5076 384.246 76.4765C384.247 76.4759 384.249 76.4753 384.25 76.4747C384.992 76.1688 385.493 76.0823 385.504 76.4336C385.54 77.4635 385.378 78.6734 385.032 79.8843C384.999 79.9998 384.964 80.1153 384.928 80.2307C384.818 80.5709 384.694 80.9154 384.553 81.256C384.547 81.2711 384.54 81.2861 384.534 81.3012C384.98 81.4339 385.468 81.5696 385.989 81.7063C387.099 81.9974 388.357 82.2929 389.67 82.5725C390.173 82.6795 390.683 82.7841 391.197 82.8853C391.195 82.8695 391.194 82.8536 391.193 82.8377C391.156 82.3378 391.123 81.837 391.092 81.3351C390.945 78.9078 390.871 76.4565 390.875 73.9758C390.876 73.3269 390.882 72.6774 390.893 72.0271C390.896 71.8968 390.898 71.7666 390.901 71.6362C390.948 69.3555 391.058 67.0652 391.23 64.7597C391.235 64.7052 391.239 64.6506 391.243 64.5961C391.243 64.5956 391.243 64.5951 391.243 64.5946C391.243 64.587 391.244 64.5794 391.245 64.5718C391.335 63.3525 392.764 63.5746 392.702 64.6801C392.702 64.6809 392.702 64.6818 392.702 64.6826C392.701 64.6905 392.701 64.6983 392.7 64.7062C392.697 64.7447 392.694 64.7831 392.691 64.8215C392.519 67.1342 392.406 69.4144 392.359 71.6668C392.372 71.7013 392.385 71.7364 392.398 71.7722C392.96 73.255 394.269 75.8251 395.606 78.2626C397.022 80.8386 398.453 83.2385 399.053 84.0037C399.064 84.0171 399.074 84.0299 399.084 84.0422C399.191 84.0517 399.294 84.057 399.395 84.0622C399.415 84.0633 399.436 84.0643 399.456 84.0654C399.489 84.0672 399.522 84.069 399.555 84.071C399.572 84.0719 399.59 84.073 399.607 84.0744C399.607 84.0744 399.607 84.0744 399.607 84.0744C400.846 84.1736 400.677 85.5872 399.54 85.5352C399.522 85.5343 399.503 85.5334 399.484 85.5325C399.477 85.5322 399.47 85.5318 399.463 85.5315C399.434 85.53 399.404 85.5285 399.375 85.5268C399.239 85.5195 399.099 85.5107 398.955 85.5005C398.741 85.4853 398.519 85.4671 398.289 85.4459C396.723 85.3018 394.806 85.0232 392.832 84.6711C392.63 84.635 392.427 84.5982 392.225 84.5607C391.789 84.4808 391.351 84.3976 390.915 84.3118C388.397 83.816 385.931 83.2327 384.12 82.6922C384.041 82.6685 383.963 82.6448 383.886 82.6213C383.877 82.6361 383.869 82.6509 383.86 82.6657C383.593 83.1343 383.294 83.5802 382.959 83.999C382.842 84.1447 382.721 84.2867 382.597 84.4246C382.307 84.7457 381.995 85.0442 381.664 85.3144C381.587 85.3773 381.508 85.4388 381.429 85.4986C381.417 85.5076 381.405 85.5166 381.393 85.5256C381.552 85.5981 381.711 85.6702 381.87 85.7419C382.224 85.9022 382.573 86.0601 382.919 86.2156C386.669 87.9027 389.925 89.3032 392.734 90.4216C393.013 90.5326 393.287 90.6409 393.558 90.7464C393.722 90.8105 393.884 90.8736 394.045 90.9356C397.619 92.3133 400.386 93.1774 402.456 93.5374C404.382 93.8734 405.732 93.8878 406.673 93.763C408.129 93.5662 408.393 93.2014 408.407 93.1534C410.453 85.5847 404.831 71.0774 400.614 60.1956L400.611 60.1891C400.532 59.9848 400.454 59.7817 400.376 59.58C399.642 57.6817 398.954 55.8997 398.363 54.2942C396.668 52.35 393.742 50.1803 390.654 48.3849ZM380.725 86.8265C380.746 86.8361 380.767 86.8457 380.789 86.8553C385.219 88.8631 388.997 90.5048 392.196 91.7757C392.198 91.792 392.201 91.8084 392.203 91.8248C392.576 94.2951 393.03 96.7701 393.565 99.2451C394.079 101.621 394.665 104.012 395.328 106.431C389.722 108.198 382.627 109.508 375.451 109.201C369.749 108.956 363.985 107.684 358.884 104.804C358.105 101.122 357.596 95.5968 357.279 89.8363C356.813 81.3684 356.78 72.4061 356.929 67.9753L356.977 66.8568L357.025 65.9447C358.17 64.763 359.18 63.5677 360.002 62.4287C360.005 62.4248 360.008 62.4208 360.01 62.4168C360.01 62.4171 360.011 62.4166 360.01 62.4168C360.034 62.3849 360.057 62.3523 360.08 62.3205C360.875 61.2035 359.753 60.4051 358.895 61.4753C358.895 61.4758 358.895 61.4762 358.894 61.4767C358.881 61.4936 358.867 61.5109 358.854 61.5287C358.845 61.5412 358.835 61.5539 358.826 61.5668C358.044 62.6574 357.078 63.7995 355.979 64.9315C355.839 65.0757 355.697 65.2197 355.553 65.3634C353.512 67.3993 351.065 69.3773 348.522 70.9372C344.925 73.1405 341.173 74.4894 338.205 73.9182C337.873 73.8558 336.49 73.4046 334.314 69.9483C332.042 66.3432 329.102 59.6466 325.994 47.204C326.46 47.0024 327.085 46.82 327.738 46.6664C328.675 46.4503 329.65 46.3015 330.375 46.2535C330.787 47.2205 331.217 48.3112 331.666 49.4494C331.725 49.5994 331.785 49.7503 331.845 49.9018C333.93 55.1967 336.365 61.3748 340.347 65.5751L340.779 66.0312L341.293 65.6711C342.635 64.7371 346.211 60.51 349.538 56.5762L349.627 56.4712C352.335 53.2703 354.861 50.285 355.728 49.5946C356.977 48.5961 358.523 47.5592 360.67 46.6808C361.805 46.2188 363.107 45.7975 364.623 45.4496C365.123 45.3347 365.646 45.2279 366.194 45.1302C366.113 45.5892 366.034 46.1304 365.984 46.695C365.924 47.3586 365.904 48.0545 365.964 48.6873C366.084 49.921 366.507 50.9627 367.496 51.3131C367.807 51.4241 368.193 51.473 368.642 51.4214C369.068 51.3726 369.55 51.2338 370.08 50.9723C370.172 51.4092 370.268 51.8364 370.369 52.2588C370.386 52.329 370.403 52.3985 370.421 52.4672C370.491 52.7459 370.565 53.0118 370.642 53.2621C368.518 58.6903 367.642 67.8349 367.403 70.3334L367.4 70.3611L363.735 70.3755C363.687 70.3707 363.62 70.3755 363.548 70.3851C363.159 70.4283 362.818 70.6251 362.573 70.9035C362.332 71.182 362.188 71.542 362.188 71.9308L362.203 72.1229L367.631 78.1906C367.66 78.4513 368.417 78.4028 369.151 78.3559C369.755 78.3172 370.342 78.2797 370.494 78.4162C370.512 78.4324 370.529 78.4105 370.546 78.358C370.546 78.3575 370.546 78.3571 370.546 78.3566C370.576 78.266 370.606 78.0858 370.645 77.8522C370.688 77.5997 370.741 77.2848 370.814 76.9531C370.816 76.9443 370.818 76.9354 370.82 76.9266C371.18 75.3232 372.028 73.3569 374.507 76.136C374.884 76.5576 375.297 77.0885 375.753 77.7464C375.837 77.8676 375.922 77.9931 376.009 78.123C376.185 78.3876 376.368 78.6706 376.556 78.9729C376.714 79.2255 376.876 79.4917 377.043 79.7719C377.113 79.8904 377.184 80.0114 377.256 80.135C377.257 80.1355 377.257 80.136 377.257 80.1366C377.41 80.398 377.566 80.6708 377.725 80.9554C378.35 82.0687 379.03 83.3627 379.772 84.861C380.079 85.4807 380.397 86.1353 380.725 86.8265ZM380.981 83.9234C380.377 82.711 379.81 81.6269 379.277 80.6599C379.5 80.5695 379.728 80.4657 379.951 80.3595C380.594 80.0518 381.366 79.6354 382.109 79.2344C382.279 79.1427 382.447 79.0518 382.612 78.9632C383.059 78.7233 383.48 78.5013 383.859 78.3106C383.775 78.7845 383.656 79.2777 383.499 79.7738C383.394 80.0964 383.279 80.4142 383.151 80.7213L382.905 81.3067L382.58 81.8837C382.342 82.3042 382.079 82.6975 381.788 83.0616C381.536 83.3761 381.266 83.6649 380.981 83.9234ZM368.148 76.8857C368.148 76.8856 368.153 76.8861 368.161 76.8875C368.152 76.8865 368.148 76.8858 368.148 76.8857ZM392.718 83.1263C394.268 83.4091 395.776 83.6453 397.103 83.8086C396.878 83.4551 396.634 83.0577 396.381 82.6372C395.753 81.5906 395.019 80.3089 394.292 78.9852L394.291 78.9838C393.629 77.777 392.96 76.5135 392.381 75.3516C392.406 77.8534 392.512 80.3259 392.692 82.7751L392.718 83.1263Z" fill="#333333"/>
<path fill-rule="evenodd" clip-rule="evenodd" d="M391.245 64.5719C391.005 67.7306 390.88 70.8604 390.875 73.9759C390.87 77.3218 391.005 80.61 391.274 83.8599L392.734 83.7399C392.465 80.49 392.331 77.2401 392.335 73.9759C392.34 70.942 392.46 67.8602 392.705 64.7111C392.787 63.583 391.336 63.343 391.245 64.5719ZM392.148 91.4349L393.594 91.2237C393.978 93.7967 394.444 96.3697 395.001 98.9523C395.558 101.545 396.202 104.137 396.927 106.729L397.115 107.401L396.452 107.617C390.611 109.537 383.06 110.997 375.393 110.67C369.365 110.411 363.269 109.043 357.875 105.918L357.601 105.759L357.529 105.442C356.689 101.674 356.146 95.9137 355.819 89.918C355.353 81.4165 355.315 72.4061 355.469 67.937L355.517 66.7945L355.579 65.5944L357.039 65.6856L356.977 66.8617L356.929 67.9802C356.78 72.4109 356.814 81.3733 357.28 89.8412C357.597 95.6017 358.106 101.127 358.884 104.809C363.985 107.689 369.749 108.961 375.451 109.206C382.628 109.513 389.722 108.203 395.328 106.436C394.665 104.017 394.079 101.626 393.565 99.2499C393.013 96.6433 392.537 94.0415 392.148 91.4349Z" fill="#333333"/>
<path fill-rule="evenodd" clip-rule="evenodd" d="M405.362 234.962C404.219 236.253 402.768 237.641 401.279 239.061C398.868 241.366 396.36 243.761 395.107 245.811C394.165 247.352 393.992 248.686 395.328 249.565C396.14 249.666 399.041 248.441 402.403 246.742C406.164 244.841 410.401 242.345 413 240.372C413.019 240.353 413.072 240.314 413.091 240.305C413.144 240.266 413.23 240.209 413.331 240.122C413.869 239.657 414.719 238.394 412.087 235.336L413.197 234.386C416.694 238.452 415.18 240.454 414.277 241.231C414.148 241.342 414.018 241.433 413.932 241.495L413.864 241.543C411.184 243.574 406.875 246.118 403.061 248.043C399.291 249.949 395.904 251.264 394.838 250.952L394.747 250.928L394.665 250.875C392.292 249.43 392.441 247.376 393.863 245.052C395.217 242.839 397.792 240.377 400.275 238.005C401.745 236.599 403.181 235.231 404.272 233.997L405.362 234.962Z" fill="#333333"/>
<path fill-rule="evenodd" clip-rule="evenodd" d="M364.417 234.007C362.942 234.612 361.146 235.231 359.311 235.86C355.622 237.122 351.774 238.442 349.565 240.055C347.605 241.491 346.846 243.132 348.297 245.105L348.354 245.182L348.431 245.245C349.31 245.95 353.667 246.065 358.581 245.763C363.336 245.47 368.697 244.827 371.867 243.987L371.944 243.968C372.679 243.804 375.643 243.128 374.226 237.914C374.173 237.722 373.789 236.877 373.433 236.081C373.14 235.433 372.862 234.813 372.828 234.717L371.44 235.173C371.488 235.322 371.786 235.985 372.103 236.681C372.439 237.43 372.799 238.222 372.818 238.294C373.837 242.048 372.064 242.446 371.627 242.542L371.521 242.566C368.442 243.382 363.183 244.011 358.499 244.299C354.046 244.573 350.189 244.568 349.416 244.14C348.7 243.07 349.224 242.11 350.439 241.222C352.461 239.743 356.203 238.462 359.796 237.228C361.622 236.604 363.413 235.989 364.984 235.341L364.417 234.007Z" fill="#333333"/>
<path fill-rule="evenodd" clip-rule="evenodd" d="M401.279 239.061C398.868 241.366 396.36 243.761 395.107 245.811C394.165 247.352 393.992 248.686 395.328 249.565C396.139 249.666 399.041 248.441 402.403 246.742C406.164 244.841 410.401 242.345 413 240.372C413.019 240.353 413.072 240.314 413.091 240.305C413.144 240.266 413.23 240.209 413.331 240.122C413.624 239.873 414.004 239.393 413.879 238.524C413.787 237.861 413.398 236.968 412.452 235.778C411.467 236.205 410.223 236.388 408.979 236.354C407.529 236.316 406.039 235.989 404.954 235.418C404.051 236.402 402.989 237.429 401.889 238.485C401.683 238.677 401.481 238.869 401.279 239.061Z" fill="#FEFEFE"/>
<path fill-rule="evenodd" clip-rule="evenodd" d="M372.809 238.298C372.833 238.385 372.857 238.471 372.877 238.557C373.746 242.071 372.046 242.455 371.618 242.551L371.512 242.575C368.433 243.391 363.173 244.02 358.49 244.308C354.037 244.582 350.18 244.577 349.407 244.15C348.691 243.079 349.215 242.119 350.43 241.231C351.66 240.329 353.533 239.503 355.618 238.716C356.958 238.212 358.38 237.722 359.787 237.242C361.42 236.68 363.025 236.133 364.47 235.557C365.369 236.148 366.757 236.757 368.352 236.863C369.456 236.935 370.662 236.767 371.868 236.186C371.94 236.344 372.017 236.517 372.094 236.685C372.43 237.434 372.785 238.226 372.809 238.298Z" fill="#FEFEFE"/>
<path fill-rule="evenodd" clip-rule="evenodd" d="M393.55 108.491C396.937 119.565 400.722 139.569 404.036 162.188C408.816 185.484 411.895 211.723 411.852 233.954C410.973 234.439 409.69 234.722 408.412 234.751C407.144 234.78 405.915 234.568 405.132 234.074C404.032 229.888 399.598 211.911 393.642 191.058C388.617 173.459 382.012 154.344 378.544 140.937L377.156 135.872C377.07 148.464 376.224 161.689 375.677 170.267C375.513 172.85 375.374 175.01 375.288 176.657C375.283 176.767 375.288 177.189 375.297 177.895C375.379 184.006 375.744 212.021 371.406 234.78C370.388 235.313 369.365 235.466 368.433 235.409C367.165 235.327 366.055 234.852 365.33 234.381C365.248 227.8 365.027 218.343 364.408 208.262C363.774 197.956 362.712 186.963 360.944 177.645C360.8 176.887 358.139 161.631 357.985 140.994C357.909 130.683 358.461 119.028 360.267 107.166C365.037 109.408 370.239 110.44 375.388 110.665C381.844 110.944 388.214 109.955 393.55 108.491Z" fill="#404040"/>
<path fill-rule="evenodd" clip-rule="evenodd" d="M360.182 107.006L360.313 107.068C365.067 109.302 370.254 110.332 375.393 110.557C381.835 110.835 388.193 109.848 393.521 108.386L393.623 108.359L393.653 108.459C397.042 119.541 400.828 139.551 404.142 162.169C408.923 185.47 412.002 211.715 411.959 233.954L411.959 234.017L411.903 234.048C411.004 234.544 409.703 234.829 408.414 234.858C407.138 234.887 405.883 234.676 405.073 234.165L405.038 234.142L405.027 234.101C404.822 233.323 404.503 232.069 404.08 230.409C402.226 223.135 398.387 208.064 393.537 191.087C391.273 183.156 388.687 174.916 386.212 167.029C385.942 166.167 385.673 165.31 385.406 164.458C382.693 155.804 380.174 147.671 378.44 140.964C378.439 140.964 378.44 140.964 378.44 140.964L377.257 136.652C377.143 148.989 376.323 161.828 375.787 170.23L375.784 170.274C375.784 170.274 375.784 170.274 375.784 170.274M375.395 176.661C375.39 176.768 375.395 177.186 375.405 177.893C375.486 184.003 375.852 212.029 371.512 234.8L371.502 234.851L371.456 234.875C370.418 235.418 369.375 235.575 368.426 235.516C367.136 235.433 366.009 234.95 365.271 234.471L365.222 234.44L365.222 234.382C365.14 227.802 364.919 218.347 364.299 208.269C363.666 197.964 362.604 186.976 360.838 177.665C360.693 176.902 358.031 161.64 357.877 140.995C357.8 130.679 358.353 119.018 360.16 107.149L360.182 107.006M375.395 176.661C375.471 175.212 375.588 173.364 375.727 171.18C375.745 170.884 375.765 170.582 375.784 170.274M360.352 107.325C358.564 119.13 358.017 130.728 358.093 140.993C358.247 161.622 360.907 176.871 361.05 177.625C362.819 186.949 363.881 197.947 364.515 208.255C365.133 218.309 365.355 227.742 365.437 234.321C366.15 234.773 367.221 235.222 368.44 235.3C369.34 235.356 370.326 235.211 371.31 234.708C375.635 211.97 375.27 184.003 375.189 177.896C375.179 177.193 375.174 176.766 375.179 176.651C375.255 175.201 375.373 173.351 375.511 171.166C375.53 170.87 375.549 170.568 375.568 170.26L375.571 170.218C376.119 161.638 376.961 148.439 377.048 135.871L377.053 135.089L378.648 140.909C380.382 147.61 382.899 155.738 385.612 164.393C385.879 165.245 386.148 166.103 386.419 166.965C388.894 174.852 391.48 183.094 393.745 191.028C398.596 208.009 402.437 223.085 404.29 230.357C404.705 231.987 405.02 233.225 405.225 234.005C405.983 234.467 407.169 234.671 408.409 234.643C409.649 234.615 410.886 234.345 411.743 233.889C411.78 211.681 408.704 185.478 403.93 162.209L403.929 162.203C400.625 139.652 396.853 119.709 393.477 108.622C388.153 110.074 381.812 111.05 375.383 110.773C370.27 110.549 365.101 109.531 360.352 107.325Z" fill="#404040"/>
<path fill-rule="evenodd" clip-rule="evenodd" d="M377.161 135.728C377.079 148.363 376.229 161.655 375.682 170.267C375.518 172.85 375.379 175.01 375.292 176.656C375.288 176.767 375.292 177.189 375.302 177.895C375.384 184.006 375.749 212.021 371.411 234.78C370.393 235.312 369.37 235.466 368.438 235.408C367.17 235.327 366.06 234.852 365.335 234.381C365.253 227.8 365.032 218.343 364.413 208.262C363.779 197.956 362.717 186.963 360.949 177.645C360.805 176.887 358.144 161.631 357.99 140.994C357.913 130.395 358.495 118.384 360.426 106.187L358.985 105.961C357.044 118.236 356.458 130.333 356.535 140.994C356.689 161.77 359.369 177.141 359.513 177.904C361.271 187.155 362.323 198.085 362.957 208.339C363.591 218.626 363.807 228.213 363.884 234.77L363.889 235.13L364.177 235.346C365.047 235.994 366.569 236.743 368.351 236.858C369.634 236.94 371.046 236.7 372.444 235.874L372.727 235.706L372.79 235.384C377.219 212.434 376.844 184.039 376.767 177.871C376.758 177.218 376.753 176.82 376.758 176.724C376.839 175.168 376.978 172.974 377.147 170.353C377.627 162.855 378.333 151.819 378.559 140.73L377.161 135.728Z" fill="#333333"/>
<path fill-rule="evenodd" clip-rule="evenodd" d="M368.755 121.759C369.687 122.594 370.738 123.338 371.906 123.885C373.111 124.447 374.447 124.807 375.897 124.85L376.488 124.869L376.556 125.45C378.448 141.676 383.573 157.757 389.626 176.733C394.794 192.944 400.635 211.267 405.722 233.603C406.625 234.011 407.605 234.112 408.561 234.045C409.474 233.978 410.372 233.752 411.16 233.478C410.992 226.859 410.612 216.845 409.757 206.207C409.152 198.656 408.311 190.813 407.139 183.694C406.976 182.709 406.817 181.773 406.654 180.88C406.491 179.978 406.318 179.09 406.145 178.221C406.006 177.539 405.823 176.68 405.641 175.845C405.16 173.622 404.718 171.587 404.469 169.052C404.3 167.339 404.113 165.572 403.911 163.772C403.705 161.924 403.489 160.152 403.272 158.448C402.072 149.102 400.534 140.029 398.8 131.691C396.999 123.041 394.982 115.197 392.902 108.687L394.194 108.279C396.288 114.846 398.32 122.733 400.126 131.417C401.87 139.77 403.412 148.881 404.617 158.28C404.853 160.114 405.069 161.9 405.266 163.623C405.458 165.337 405.645 167.103 405.823 168.923C406.058 171.342 406.496 173.358 406.971 175.552C407.12 176.243 407.274 176.959 407.475 177.952C407.653 178.831 407.826 179.728 407.989 180.636C408.162 181.601 408.33 182.541 408.479 183.468C409.656 190.649 410.506 198.527 411.112 206.097C411.986 216.975 413.023 227.718 413.187 234.376L413.196 234.856L412.745 235.029C410.564 235.855 405.977 236.368 404.329 234.299L404.262 233.992C399.165 211.55 393.512 193.395 388.329 177.136C382.324 158.299 377.228 142.309 375.268 126.166C373.842 126.05 372.53 125.666 371.325 125.105C369.999 124.485 368.812 123.645 367.78 122.704C366.862 121.869 367.837 120.933 368.755 121.759Z" fill="#333333"/>
<path fill-rule="evenodd" clip-rule="evenodd" d="M374.259 45.8166C376.065 45.8598 378.092 45.3653 379.874 44.4388C380.071 44.338 380.263 44.2276 380.456 44.1124L380.033 35.6157C379.428 36.331 378.832 36.9262 378.255 37.4207C374.514 40.6369 371.372 39.7489 371.161 39.6673C371.045 39.6241 370.93 39.5808 370.82 39.5328L370.19 44.1268C370.19 44.1268 370.19 44.1316 370.195 44.1316C371.045 45.2453 372.544 45.7782 374.259 45.8166Z" fill="#FEFEFE"/>
<path fill-rule="evenodd" clip-rule="evenodd" d="M372.568 21.9923C374.052 18.4832 377.991 20.485 378.005 22.3619C377.818 22.1555 376.992 21.6611 376.521 21.6034C376.358 23.6916 373.86 24.1285 373.188 21.9011C372.919 21.8867 372.765 21.8723 372.568 21.9923ZM371.67 38.2992C371.823 38.3568 374.182 39.0001 377.309 36.3119C378.942 34.9101 380.743 32.6156 382.497 28.9048C382.468 28.9144 382.434 28.9241 382.405 28.9337C381.944 29.0585 381.565 28.2232 382.329 27.9352C382.53 27.8584 382.732 27.7528 382.91 27.6279C383.289 27.3687 383.592 27.0471 383.774 26.7591C384.495 25.631 384.682 24.3781 384.433 23.466C384.336 23.1156 384.173 22.8179 383.957 22.6163C383.755 22.4243 383.491 22.3091 383.174 22.2947C382.54 22.2659 381.699 22.6115 380.681 23.5188C380.114 24.0228 379.61 23.3748 379.884 22.9524L379.567 22.5059C379.629 20.5426 379.567 18.9296 379.408 17.6095C379.24 16.2318 378.966 15.1949 378.606 14.4365C378.375 13.9468 378.02 13.4668 377.588 13.0779C377.194 12.7179 376.742 12.4395 376.271 12.2955C375.714 12.1227 375.152 12.1659 374.6 12.3339C373.99 12.5211 373.375 12.8619 372.765 13.2652C372.457 13.4668 372.155 13.6828 371.862 13.894C370.334 14.9885 369.119 15.8574 366.703 15.2141C366.376 15.1277 366.069 14.9645 365.805 14.7389C365.776 14.7149 365.747 14.6909 365.723 14.6669C365.286 15.3293 364.911 16.0926 364.594 16.9327C363.523 19.8129 363.211 23.5428 363.806 27.1287C364.397 30.6858 365.877 34.0797 368.384 36.3215C369.33 37.1567 370.421 37.8384 371.67 38.2992ZM382.434 23.9988C381.829 24.1189 381.762 23.6148 382.396 23.5092C382.588 23.4804 382.761 23.4804 382.915 23.5188C383.169 23.5764 383.361 23.7156 383.491 23.9172C383.611 24.1045 383.674 24.3445 383.674 24.6133C383.674 25.0597 383.501 25.6166 383.14 26.1734C383.006 26.3846 382.78 26.6247 382.511 26.8071C382.367 26.9079 382.209 26.9895 382.036 27.0471C381.623 27.1911 381.454 26.7735 381.968 26.5527C382.06 26.5143 382.151 26.4614 382.237 26.4038C382.453 26.2598 382.626 26.0726 382.732 25.9094C383.04 25.4294 383.188 24.9733 383.188 24.6133C383.188 24.4357 383.155 24.2869 383.083 24.1813C383.02 24.0853 382.929 24.0228 382.809 23.994C382.703 23.97 382.578 23.97 382.434 23.9988ZM364.075 21.8435C365.425 18.2816 369.441 20.1345 369.527 22.0115C369.33 21.8147 368.49 21.349 368.014 21.3106C367.933 23.4036 365.449 23.9316 364.695 21.7331C364.426 21.7235 364.268 21.7187 364.075 21.8435ZM370.387 30.7338C373.178 32.9852 374.192 28.9913 374.681 28.3768C374.542 33.3356 370.738 32.99 370.387 30.7338ZM369.657 26.9943C369.984 27.1719 370.507 27.3543 371.665 27.3783C369.278 28.324 368.437 27.2151 368.471 26.183C368.509 24.7909 369.816 25.0693 369.551 22.8131C370.685 24.3973 368.125 26.1638 369.657 26.9943Z" fill="#FEFEFE"/>
<path fill-rule="evenodd" clip-rule="evenodd" d="M377.028 87.7369L284.83 71.9772C281.525 71.4107 279.306 68.2761 279.868 64.9734L284.898 37.4466C285.465 34.144 288.602 31.9262 291.907 32.4878L384.105 48.2475C387.409 48.814 389.629 51.9486 389.067 55.2513L384.041 82.778C383.47 86.0807 380.333 88.3033 377.028 87.7369Z" fill="#077838"/>
<path fill-rule="evenodd" clip-rule="evenodd" d="M357.319 64.2576L369.318 60.9837C370.317 60.7005 370.461 59.9852 369.601 59.4188L359.173 52.583C358.659 52.2422 357.886 52.0022 357.132 51.9253C356.632 51.8773 356.142 51.9013 355.743 52.0118L354.677 52.3046L343.744 55.2856C342.745 55.5688 342.601 56.2841 343.456 56.8506L348.135 59.918L349.364 60.7245L353.885 63.6863C354.605 64.2576 356.176 64.5408 357.319 64.2576Z" fill="white"/>
<path fill-rule="evenodd" clip-rule="evenodd" d="M361.623 64.2096L359.538 64.7665L357.175 65.3953C356.176 65.6785 354.605 65.3953 353.745 64.8241L348.721 61.483L347.496 60.6669L346.891 60.2637L342.745 61.4014C341.746 61.6846 341.602 62.3999 342.457 62.9663L344.393 64.2336L345.627 65.0401L352.89 69.7973C353.212 70.0085 353.611 70.1861 354.058 70.3013C354.706 70.4741 355.441 70.5317 356.152 70.4213C356.258 70.4069 356.358 70.3877 356.459 70.3637L356.757 70.2821L358.237 69.8789L368.458 67.0898C369.458 66.8066 369.602 66.0914 368.747 65.5249L365.173 63.2447L361.623 64.2096Z" fill="white" fill-opacity="0.75"/>
<path fill-rule="evenodd" clip-rule="evenodd" d="M363.89 69.3798L358.198 70.9255L356.728 71.3239L356.032 71.5111C355.667 71.6167 355.225 71.6455 354.768 71.6071C354.149 71.5591 353.505 71.3959 352.991 71.1559C352.852 71.0887 352.722 71.0167 352.602 70.9399L345.887 66.5283L343.653 67.1428L341.741 67.6708C341.669 67.69 341.602 67.714 341.535 67.738C341.501 67.7524 341.468 67.7668 341.434 67.7812C340.718 68.1125 340.694 68.7317 341.453 69.2357L341.535 69.2885L348.721 73.9977L350.09 74.8954L351.886 76.0715C352.746 76.6428 354.173 76.926 355.172 76.6427L356.675 76.2347L358.136 75.8363L363.482 74.377L367.176 73.3689C367.623 73.2441 367.896 73.0281 367.988 72.7832C368.103 72.476 367.935 72.116 367.459 71.804L363.89 69.3798Z" fill="white" fill-opacity="0.5"/>
<g clip-path="url(#clip0_9654_64195)">
<path fill-rule="evenodd" clip-rule="evenodd" d="M314.919 42.3394C322.232 43.6315 327.113 50.6069 325.821 57.9195C324.528 65.2321 317.553 70.1127 310.24 68.8207C302.928 67.5286 298.047 60.5532 299.339 53.2406C300.631 45.928 307.607 41.0474 314.919 42.3394ZM313.552 59.6986C316.857 60.2825 319.601 58.2409 320.234 54.6586C320.871 51.0524 319.104 48.2384 315.845 47.6636C313.95 47.3287 312.434 48.0855 311.775 48.8505C311.769 48.3485 311.64 47.1819 310.347 46.9533L307.526 46.455L307.028 49.2741L308.185 49.4784C308.393 49.5153 308.431 49.5703 308.398 49.7548L306.054 63.0205L309.428 63.6166L310.334 58.4861L310.458 57.6501C310.8 58.5447 311.981 59.421 313.552 59.6986ZM314.538 50.3397C316.11 50.6175 317.125 52.1548 316.786 54.0731C316.386 56.3376 314.69 57.0387 313.349 56.8028C311.522 56.4801 310.934 54.684 311.212 53.1128C311.637 50.7087 313.244 50.1111 314.538 50.3397Z" fill="white"/>
</g>
<rect x="26.4419" y="83.4419" width="37.1163" height="37.1163" rx="1.32558" stroke="#DEDEDF" stroke-width="0.883721"/>
<path fill-rule="evenodd" clip-rule="evenodd" d="M44.277 102.424L39.3958 100.177C38.98 99.9811 38.98 99.6779 39.3958 99.4995L41.0952 98.7148L44.2589 100.177C44.6747 100.373 45.3436 100.373 45.7414 100.177L48.9051 98.7148L50.6045 99.4995C51.0203 99.6957 51.0203 99.9989 50.6045 100.177L45.7233 102.424C45.3436 102.603 44.6747 102.603 44.277 102.424Z" fill="#FF6F3D"/>
<path fill-rule="evenodd" clip-rule="evenodd" d="M44.2612 99.6437L39.3949 97.394C38.9804 97.1976 38.9804 96.8941 39.3949 96.7155L41.053 95.9478L44.2612 97.4297C44.6757 97.6261 45.3426 97.6261 45.7391 97.4297L48.9473 95.9478L50.6054 96.7155C51.0199 96.9119 51.0199 97.2154 50.6054 97.394L45.7391 99.6437C45.3246 99.8401 44.6577 99.8401 44.2612 99.6437Z" fill="#95C038"/>
<path fill-rule="evenodd" clip-rule="evenodd" d="M44.2612 96.8916L39.3949 94.6743C38.9804 94.4807 38.9804 94.1816 39.3949 94.0056L44.2612 91.7882C44.6757 91.5947 45.3426 91.5947 45.7391 91.7882L50.6054 94.0056C51.0199 94.1991 51.0199 94.4983 50.6054 94.6743L45.7391 96.8916C45.3246 97.0676 44.6577 97.0676 44.2612 96.8916Z" fill="#5DC0E8"/>
<path fill-rule="evenodd" clip-rule="evenodd" d="M43.649 106.685C43.649 106.141 43.8076 105.73 44.1353 105.463C44.4524 105.186 44.833 105.053 45.2664 105.053C45.6998 105.053 46.0697 105.186 46.3869 105.463C46.704 105.74 46.8626 106.141 46.8626 106.695C46.8626 107.239 46.704 107.65 46.3869 107.916C46.0697 108.194 45.6892 108.327 45.2664 108.327C44.833 108.327 44.463 108.194 44.1353 107.916C43.8182 107.639 43.649 107.229 43.649 106.685ZM44.3467 106.685C44.3467 107.065 44.4207 107.331 44.5581 107.506C44.7061 107.68 44.8541 107.793 45.0338 107.834C45.0384 107.835 45.0429 107.837 45.0474 107.838L45.0549 107.84C45.0874 107.848 45.1151 107.855 45.1501 107.855C45.1659 107.855 45.1844 107.857 45.2029 107.86C45.2214 107.863 45.2399 107.865 45.2558 107.865C45.2981 107.865 45.3298 107.865 45.3721 107.855C45.4071 107.855 45.4348 107.848 45.4673 107.84L45.4794 107.837L45.4883 107.834C45.6575 107.793 45.816 107.68 45.9535 107.506C46.0909 107.331 46.1649 107.054 46.1649 106.695C46.1649 106.326 46.0909 106.059 45.9535 105.884C45.816 105.71 45.6575 105.597 45.4883 105.556C45.4461 105.545 45.4038 105.535 45.3721 105.535C45.3509 105.535 45.3324 105.533 45.3139 105.53C45.2954 105.527 45.2769 105.525 45.2558 105.525C45.2135 105.525 45.1818 105.525 45.1501 105.535C45.1184 105.535 45.0762 105.545 45.0339 105.556C44.8648 105.597 44.7061 105.71 44.5581 105.884C44.4207 106.038 44.3467 106.315 44.3467 106.685ZM32.4863 105.463C32.1586 105.73 32 106.141 32 106.685C32 107.229 32.1586 107.639 32.4863 107.917C32.814 108.194 33.1839 108.327 33.6173 108.327C34.0402 108.327 34.4207 108.194 34.7378 107.917C35.055 107.65 35.2135 107.239 35.2135 106.695C35.2135 106.141 35.055 105.741 34.7378 105.463C34.4207 105.186 34.0507 105.053 33.6173 105.053C33.1839 105.053 32.8034 105.186 32.4863 105.463ZM32.9091 107.506C32.7717 107.332 32.6977 107.065 32.6977 106.685C32.6977 106.315 32.7717 106.038 32.9091 105.884C33.0571 105.71 33.2156 105.597 33.3848 105.556C33.4271 105.546 33.4693 105.535 33.5011 105.535C33.5328 105.525 33.5645 105.525 33.6068 105.525C33.6279 105.525 33.6464 105.528 33.6649 105.53C33.6834 105.533 33.7019 105.535 33.723 105.535C33.7548 105.535 33.797 105.546 33.8393 105.556C34.0085 105.597 34.167 105.71 34.3044 105.884C34.4419 106.059 34.5158 106.326 34.5158 106.695C34.5158 107.054 34.4419 107.332 34.3044 107.506C34.167 107.681 34.0085 107.793 33.8393 107.835C33.832 107.836 33.825 107.838 33.8183 107.84C33.7858 107.848 33.758 107.855 33.723 107.855C33.6808 107.865 33.6491 107.865 33.6068 107.865C33.5909 107.865 33.5724 107.863 33.5539 107.86C33.5354 107.858 33.5169 107.855 33.5011 107.855C33.4661 107.855 33.4383 107.848 33.4059 107.84C33.3991 107.838 33.392 107.836 33.3848 107.835C33.2156 107.793 33.0571 107.681 32.9091 107.506ZM36.4292 105.084H35.5624V108.286H36.2283V106.397L36.2178 105.833H36.2283L36.3975 106.192L37.5391 108.286H38.4059V105.084H37.74V106.962L37.7505 107.537H37.74L37.5708 107.095L36.4292 105.084ZM39.093 105.084H39.759V107.742H41.0698V108.286H39.093V105.084ZM41.4292 105.084H40.6575L41.8731 106.972V108.286H42.5391V106.983L43.7336 105.084H43.0254L42.3382 106.202L42.2325 106.428H42.2114L42.1057 106.202L41.4292 105.084ZM49.167 105.084H47.3277V108.286H47.9936V106.941H49.1141V106.397H47.9936V105.617H49.167V105.084ZM49.6638 105.084H51.5031V105.617H50.3298V106.397H51.4503V106.941H50.3298V108.286H49.6638V105.084ZM51.8943 105.084V108.286H52.5602V105.084H51.8943ZM55.4946 105.155V105.71C55.3783 105.669 55.2621 105.638 55.1352 105.617C55.0084 105.597 54.8604 105.587 54.7124 105.587C54.3635 105.587 54.0993 105.689 53.909 105.905C53.7187 106.11 53.6236 106.377 53.6236 106.695C53.6236 107.003 53.7081 107.26 53.8879 107.465C54.0676 107.67 54.3213 107.783 54.649 107.783C54.7494 107.783 54.8499 107.775 54.964 107.767L54.9643 107.767C54.9821 107.765 55.0004 107.764 55.0189 107.763C55.1564 107.742 55.2938 107.711 55.4418 107.65L55.484 108.194C55.463 108.204 55.4313 108.214 55.3997 108.224L55.3995 108.224C55.3572 108.235 55.3149 108.245 55.2621 108.255C55.2074 108.269 55.1439 108.278 55.0716 108.288C55.032 108.293 54.9898 108.299 54.9449 108.307C54.8181 108.317 54.6912 108.327 54.5538 108.327H54.501H54.4481C54.0676 108.307 53.7187 108.163 53.4016 107.917C53.0845 107.66 52.9259 107.26 52.9259 106.726C52.9259 106.202 53.0845 105.792 53.391 105.504C53.6976 105.217 54.1204 105.073 54.6384 105.073C54.7758 105.073 54.9027 105.073 55.0084 105.084C55.1088 105.092 55.2014 105.109 55.2997 105.127C55.3151 105.129 55.3308 105.132 55.3466 105.135C55.3572 105.14 55.3704 105.143 55.3836 105.145C55.3968 105.148 55.4101 105.15 55.4206 105.155C55.4341 105.149 55.4476 105.151 55.4638 105.153C55.473 105.154 55.4831 105.155 55.4946 105.155ZM58 105.084H56.0233V108.286H58V107.783H56.6998V106.88H57.8733V106.387H56.6998V105.587H58V105.084Z" fill="#333333"/>
<path d="M49.656 111.786C49.4601 111.786 49.3054 111.726 49.1917 111.607C49.0789 111.488 49.0225 111.322 49.0225 111.11C49.0225 110.897 49.0749 110.727 49.1796 110.601C49.2852 110.475 49.4267 110.413 49.604 110.413C49.7701 110.413 49.9015 110.467 49.9982 110.577C50.0949 110.686 50.1433 110.83 50.1433 111.009V111.136H49.2304C49.2345 111.291 49.2735 111.409 49.3477 111.49C49.4227 111.57 49.5279 111.611 49.6633 111.611C49.8059 111.611 49.947 111.581 50.0864 111.521V111.7C50.0155 111.731 49.9482 111.753 49.8845 111.766C49.8217 111.779 49.7455 111.786 49.656 111.786ZM49.6016 110.581C49.4952 110.581 49.4102 110.615 49.3465 110.685C49.2836 110.754 49.2465 110.85 49.2353 110.972H49.9281C49.9281 110.846 49.8998 110.749 49.8434 110.682C49.787 110.615 49.7064 110.581 49.6016 110.581Z" fill="#333333"/>
<path d="M48.4461 111.786C48.2543 111.786 48.1055 111.727 48 111.61C47.8952 111.491 47.8428 111.324 47.8428 111.108C47.8428 110.886 47.896 110.715 48.0024 110.594C48.1096 110.473 48.2619 110.413 48.4594 110.413C48.5231 110.413 48.5868 110.419 48.6504 110.433C48.7141 110.447 48.7641 110.463 48.8004 110.482L48.7387 110.652C48.6944 110.634 48.646 110.62 48.5936 110.608C48.5412 110.596 48.4949 110.59 48.4546 110.59C48.1853 110.59 48.0507 110.762 48.0507 111.105C48.0507 111.268 48.0834 111.393 48.1487 111.48C48.2148 111.567 48.3123 111.611 48.4413 111.611C48.5517 111.611 48.6649 111.587 48.781 111.539V111.717C48.6924 111.763 48.5807 111.786 48.4461 111.786Z" fill="#333333"/>
<path d="M47.3525 111.761L47.3126 111.573H47.303C47.2369 111.656 47.1708 111.712 47.1047 111.742C47.0394 111.771 46.9576 111.786 46.8592 111.786C46.7278 111.786 46.6247 111.752 46.5497 111.684C46.4756 111.616 46.4385 111.52 46.4385 111.395C46.4385 111.128 46.6525 110.987 47.0805 110.974L47.3054 110.967V110.885C47.3054 110.781 47.2828 110.704 47.2377 110.655C47.1933 110.605 47.122 110.58 47.0237 110.58C46.9132 110.58 46.7883 110.614 46.6489 110.682L46.5872 110.528C46.6525 110.493 46.7238 110.465 46.8012 110.445C46.8794 110.425 46.9576 110.415 47.0358 110.415C47.1937 110.415 47.3106 110.45 47.3864 110.52C47.463 110.59 47.5013 110.702 47.5013 110.857V111.761H47.3525ZM46.8991 111.62C47.0241 111.62 47.122 111.586 47.1929 111.517C47.2647 111.449 47.3005 111.353 47.3005 111.229V111.11L47.0998 111.118C46.9402 111.124 46.825 111.149 46.754 111.193C46.6839 111.237 46.6489 111.305 46.6489 111.398C46.6489 111.47 46.6706 111.525 46.7141 111.563C46.7585 111.601 46.8201 111.62 46.8991 111.62Z" fill="#333333"/>
<path d="M45.6362 111.786C45.5499 111.786 45.4709 111.77 45.3992 111.739C45.3282 111.707 45.2686 111.658 45.2202 111.591H45.2057C45.2154 111.669 45.2202 111.742 45.2202 111.812V112.357H45.0195V110.437H45.1828L45.2106 110.618H45.2202C45.2718 110.546 45.3319 110.493 45.4004 110.461C45.4689 110.429 45.5475 110.413 45.6362 110.413C45.8119 110.413 45.9473 110.473 46.0424 110.593C46.1383 110.713 46.1863 110.881 46.1863 111.098C46.1863 111.316 46.1375 111.485 46.04 111.606C45.9433 111.726 45.8087 111.786 45.6362 111.786ZM45.6071 110.583C45.4717 110.583 45.3738 110.621 45.3133 110.696C45.2529 110.77 45.2219 110.89 45.2202 111.053V111.098C45.2202 111.284 45.2513 111.418 45.3133 111.498C45.3754 111.578 45.475 111.618 45.612 111.618C45.7264 111.618 45.8159 111.572 45.8804 111.479C45.9457 111.386 45.9783 111.259 45.9783 111.096C45.9783 110.93 45.9457 110.804 45.8804 110.716C45.8159 110.627 45.7248 110.583 45.6071 110.583Z" fill="#333333"/>
<path d="M44.6875 111.291C44.6875 111.447 44.6311 111.568 44.5183 111.655C44.4054 111.742 44.2523 111.786 44.0588 111.786C43.8493 111.786 43.688 111.759 43.5752 111.705V111.507C43.6477 111.537 43.7267 111.562 43.8122 111.579C43.8976 111.597 43.9823 111.606 44.0661 111.606C44.2031 111.606 44.3063 111.58 44.3756 111.528C44.4449 111.476 44.4796 111.404 44.4796 111.311C44.4796 111.25 44.4671 111.2 44.4421 111.161C44.4179 111.121 44.3768 111.085 44.3188 111.052C44.2615 111.019 44.1741 110.982 44.0564 110.94C43.892 110.881 43.7743 110.811 43.7034 110.73C43.6332 110.65 43.5982 110.545 43.5982 110.415C43.5982 110.279 43.6494 110.17 43.7517 110.09C43.8541 110.009 43.9895 109.969 44.158 109.969C44.3337 109.969 44.4953 110.001 44.6428 110.065L44.5787 110.244C44.4328 110.183 44.291 110.153 44.1531 110.153C44.0443 110.153 43.9593 110.176 43.898 110.223C43.8368 110.269 43.8061 110.334 43.8061 110.417C43.8061 110.479 43.8174 110.529 43.84 110.568C43.8626 110.607 43.9004 110.643 43.9536 110.676C44.0076 110.708 44.0899 110.744 44.2003 110.784C44.3857 110.85 44.513 110.921 44.5824 110.996C44.6525 111.072 44.6875 111.171 44.6875 111.291Z" fill="#333333"/>
<path d="M43.0096 111.786C42.8177 111.786 42.669 111.727 42.5634 111.61C42.4586 111.491 42.4062 111.324 42.4062 111.108C42.4062 110.886 42.4594 110.715 42.5658 110.594C42.6731 110.473 42.8254 110.413 43.0229 110.413C43.0866 110.413 43.1502 110.419 43.2139 110.433C43.2776 110.447 43.3276 110.463 43.3638 110.482L43.3022 110.652C43.2578 110.634 43.2095 110.62 43.1571 110.608C43.1047 110.596 43.0583 110.59 43.018 110.59C42.7488 110.59 42.6142 110.762 42.6142 111.105C42.6142 111.268 42.6469 111.393 42.7121 111.48C42.7782 111.567 42.8758 111.611 43.0047 111.611C43.1152 111.611 43.2284 111.587 43.3445 111.539V111.717C43.2558 111.763 43.1442 111.786 43.0096 111.786Z" fill="#333333"/>
<path d="M42.1267 111.098C42.1267 111.314 42.0723 111.483 41.9635 111.605C41.8547 111.726 41.7043 111.786 41.5125 111.786C41.394 111.786 41.2888 111.758 41.1969 111.703C41.1051 111.647 41.0341 111.567 40.9841 111.463C40.9342 111.359 40.9092 111.238 40.9092 111.098C40.9092 110.882 40.9632 110.714 41.0712 110.594C41.1792 110.473 41.3291 110.413 41.521 110.413C41.7064 110.413 41.8535 110.474 41.9623 110.598C42.0719 110.721 42.1267 110.888 42.1267 111.098ZM41.1171 111.098C41.1171 111.267 41.151 111.396 41.2187 111.485C41.2864 111.574 41.386 111.618 41.5173 111.618C41.6487 111.618 41.7483 111.574 41.816 111.486C41.8845 111.398 41.9188 111.268 41.9188 111.098C41.9188 110.93 41.8845 110.802 41.816 110.715C41.7483 110.627 41.6479 110.583 41.5149 110.583C41.3835 110.583 41.2844 110.626 41.2175 110.712C41.1506 110.799 41.1171 110.927 41.1171 111.098Z" fill="#333333"/>
<path d="M40.618 110.861C40.618 111.153 40.5386 111.376 40.3798 111.531C40.2219 111.685 39.9941 111.762 39.6967 111.762H39.207V109.994H39.7487C40.0236 109.994 40.2372 110.07 40.3895 110.223C40.5419 110.375 40.618 110.588 40.618 110.861ZM40.4004 110.868C40.4004 110.638 40.3424 110.464 40.2263 110.347C40.111 110.23 39.9393 110.172 39.7112 110.172H39.4126V111.584H39.6629C39.9079 111.584 40.0921 111.524 40.2154 111.404C40.3387 111.283 40.4004 111.104 40.4004 110.868Z" fill="#333333"/>
<rect x="26" y="137" width="150" height="31" rx="2" fill="#6861F2"/>
<path d="M42.8722 158V147.964H46.8315C47.5927 147.964 48.2412 148.11 48.7769 148.401C49.3127 148.688 49.721 149.088 50.0019 149.601C50.2862 150.111 50.4283 150.699 50.4283 151.365C50.4283 152.032 50.2845 152.62 49.997 153.129C49.7096 153.639 49.2931 154.036 48.7475 154.32C48.2052 154.604 47.5486 154.746 46.7776 154.746H44.2541V153.046H46.4346C46.843 153.046 47.1795 152.976 47.4441 152.835C47.7119 152.692 47.9112 152.494 48.0419 152.242C48.1758 151.988 48.2428 151.695 48.2428 151.365C48.2428 151.032 48.1758 150.741 48.0419 150.493C47.9112 150.241 47.7119 150.047 47.4441 149.91C47.1762 149.769 46.8364 149.699 46.4248 149.699H44.994V158H42.8722ZM51.7672 158V150.473H53.791V151.787H53.8694C54.0066 151.319 54.2369 150.967 54.5603 150.728C54.8837 150.486 55.2561 150.366 55.6775 150.366C55.7821 150.366 55.8948 150.372 56.0156 150.385C56.1365 150.398 56.2427 150.416 56.3342 150.439V152.291C56.2362 152.262 56.1006 152.236 55.9274 152.213C55.7543 152.19 55.5959 152.179 55.4521 152.179C55.1451 152.179 54.8706 152.246 54.6289 152.38C54.3904 152.51 54.201 152.693 54.0605 152.928C53.9233 153.164 53.8547 153.435 53.8547 153.742V158H51.7672ZM60.4638 158.147C59.7026 158.147 59.0443 157.985 58.489 157.662C57.9369 157.335 57.5106 156.881 57.2101 156.3C56.9095 155.715 56.7592 155.037 56.7592 154.266C56.7592 153.489 56.9095 152.809 57.2101 152.228C57.5106 151.643 57.9369 151.189 58.489 150.865C59.0443 150.539 59.7026 150.375 60.4638 150.375C61.2249 150.375 61.8815 150.539 62.4336 150.865C62.989 151.189 63.4169 151.643 63.7175 152.228C64.018 152.809 64.1683 153.489 64.1683 154.266C64.1683 155.037 64.018 155.715 63.7175 156.3C63.4169 156.881 62.989 157.335 62.4336 157.662C61.8815 157.985 61.2249 158.147 60.4638 158.147ZM60.4736 156.53C60.8198 156.53 61.1089 156.432 61.3409 156.236C61.5728 156.037 61.7476 155.766 61.8652 155.423C61.9861 155.08 62.0465 154.689 62.0465 154.251C62.0465 153.814 61.9861 153.423 61.8652 153.08C61.7476 152.737 61.5728 152.466 61.3409 152.267C61.1089 152.068 60.8198 151.968 60.4736 151.968C60.124 151.968 59.83 152.068 59.5915 152.267C59.3563 152.466 59.1783 152.737 59.0574 153.08C58.9398 153.423 58.881 153.814 58.881 154.251C58.881 154.689 58.9398 155.08 59.0574 155.423C59.1783 155.766 59.3563 156.037 59.5915 156.236C59.83 156.432 60.124 156.53 60.4736 156.53ZM68.9263 158.147C68.1554 158.147 67.4922 157.984 66.9369 157.657C66.3848 157.327 65.9601 156.87 65.6628 156.285C65.3688 155.7 65.2218 155.027 65.2218 154.266C65.2218 153.495 65.3704 152.819 65.6677 152.237C65.9683 151.653 66.3946 151.197 66.9467 150.87C67.4987 150.54 68.1554 150.375 68.9165 150.375C69.5731 150.375 70.1481 150.495 70.6414 150.733C71.1346 150.972 71.525 151.306 71.8125 151.738C72.1 152.169 72.2584 152.675 72.2878 153.257H70.318C70.2624 152.881 70.1154 152.579 69.8769 152.35C69.6417 152.118 69.333 152.002 68.9508 152.002C68.6274 152.002 68.3448 152.09 68.1031 152.267C67.8646 152.44 67.6784 152.693 67.5445 153.026C67.4105 153.36 67.3436 153.763 67.3436 154.237C67.3436 154.717 67.4089 155.125 67.5396 155.462C67.6735 155.798 67.8613 156.055 68.1031 156.231C68.3448 156.407 68.6274 156.496 68.9508 156.496C69.1893 156.496 69.4033 156.447 69.5927 156.349C69.7855 156.251 69.9439 156.109 70.068 155.922C70.1955 155.733 70.2788 155.506 70.318 155.241H72.2878C72.2551 155.816 72.0983 156.323 71.8174 156.76C71.5397 157.195 71.1559 157.534 70.6659 157.779C70.1759 158.025 69.596 158.147 68.9263 158.147ZM77.0544 158.147C76.2802 158.147 75.6138 157.99 75.0552 157.677C74.4998 157.36 74.0719 156.912 73.7713 156.334C73.4708 155.752 73.3205 155.065 73.3205 154.271C73.3205 153.497 73.4708 152.817 73.7713 152.233C74.0719 151.648 74.4949 151.192 75.0405 150.865C75.5893 150.539 76.2328 150.375 76.9711 150.375C77.4677 150.375 77.9299 150.455 78.3579 150.615C78.7891 150.772 79.1648 151.009 79.4849 151.326C79.8083 151.643 80.0599 152.041 80.2395 152.522C80.4192 152.999 80.509 153.557 80.509 154.197V154.771H74.1535V153.477H78.5441C78.5441 153.177 78.4787 152.91 78.3481 152.678C78.2174 152.446 78.0361 152.265 77.8042 152.135C77.5755 152.001 77.3092 151.934 77.0054 151.934C76.6886 151.934 76.4076 152.007 76.1626 152.154C75.9209 152.298 75.7314 152.492 75.5942 152.737C75.457 152.979 75.3868 153.248 75.3835 153.546V154.776C75.3835 155.148 75.4521 155.47 75.5893 155.741C75.7298 156.012 75.9274 156.221 76.1822 156.368C76.437 156.515 76.7392 156.589 77.0887 156.589C77.3207 156.589 77.533 156.556 77.7258 156.491C77.9185 156.425 78.0835 156.327 78.2207 156.197C78.3579 156.066 78.4624 155.906 78.5343 155.717L80.4649 155.844C80.3669 156.308 80.166 156.713 79.8622 157.059C79.5617 157.402 79.1729 157.67 78.696 157.863C78.2223 158.052 77.6751 158.147 77.0544 158.147ZM85.3014 158.147C84.5272 158.147 83.8607 157.99 83.3021 157.677C82.7468 157.36 82.3188 156.912 82.0183 156.334C81.7177 155.752 81.5675 155.065 81.5675 154.271C81.5675 153.497 81.7177 152.817 82.0183 152.233C82.3188 151.648 82.7419 151.192 83.2874 150.865C83.8362 150.539 84.4798 150.375 85.2181 150.375C85.7146 150.375 86.1769 150.455 86.6048 150.615C87.036 150.772 87.4117 151.009 87.7319 151.326C88.0553 151.643 88.3068 152.041 88.4865 152.522C88.6662 152.999 88.756 153.557 88.756 154.197V154.771H82.4005V153.477H86.791C86.791 153.177 86.7257 152.91 86.595 152.678C86.4644 152.446 86.283 152.265 86.0511 152.135C85.8224 152.001 85.5562 151.934 85.2524 151.934C84.9355 151.934 84.6546 152.007 84.4096 152.154C84.1678 152.298 83.9783 152.492 83.8411 152.737C83.7039 152.979 83.6337 153.248 83.6304 153.546V154.776C83.6304 155.148 83.699 155.47 83.8362 155.741C83.9767 156.012 84.1743 156.221 84.4292 156.368C84.684 156.515 84.9861 156.589 85.3357 156.589C85.5676 156.589 85.78 156.556 85.9727 156.491C86.1654 156.425 86.3304 156.327 86.4676 156.197C86.6048 156.066 86.7094 155.906 86.7812 155.717L88.7119 155.844C88.6139 156.308 88.413 156.713 88.1092 157.059C87.8086 157.402 87.4199 157.67 86.9429 157.863C86.4693 158.052 85.9221 158.147 85.3014 158.147ZM92.8917 158.123C92.32 158.123 91.8022 157.975 91.3384 157.681C90.8778 157.384 90.5119 156.948 90.2407 156.373C89.9729 155.795 89.8389 155.086 89.8389 154.246C89.8389 153.384 89.9778 152.667 90.2554 152.095C90.5331 151.52 90.9023 151.091 91.3629 150.807C91.8267 150.519 92.3347 150.375 92.8868 150.375C93.3082 150.375 93.6594 150.447 93.9403 150.591C94.2246 150.731 94.4532 150.908 94.6264 151.12C94.8028 151.329 94.9367 151.535 95.0282 151.738H95.0919V147.964H97.1744V158H95.1164V156.795H95.0282C94.9302 157.004 94.7913 157.211 94.6117 157.417C94.4353 157.619 94.205 157.788 93.9207 157.922C93.6398 158.056 93.2968 158.123 92.8917 158.123ZM93.5532 156.461C93.8897 156.461 94.1739 156.37 94.4059 156.187C94.6411 156.001 94.8207 155.741 94.9449 155.408C95.0723 155.075 95.136 154.684 95.136 154.237C95.136 153.789 95.0739 153.4 94.9498 153.07C94.8256 152.741 94.646 152.486 94.4108 152.306C94.1755 152.126 93.8897 152.037 93.5532 152.037C93.2102 152.037 92.9211 152.13 92.6859 152.316C92.4507 152.502 92.2727 152.76 92.1518 153.09C92.0309 153.42 91.9705 153.802 91.9705 154.237C91.9705 154.674 92.0309 155.062 92.1518 155.398C92.2759 155.731 92.454 155.993 92.6859 156.182C92.9211 156.368 93.2102 156.461 93.5532 156.461ZM106.088 150.473V152.041H101.555V150.473H106.088ZM102.584 148.67H104.672V155.687C104.672 155.88 104.701 156.03 104.76 156.138C104.819 156.242 104.9 156.316 105.005 156.358C105.113 156.401 105.237 156.422 105.377 156.422C105.475 156.422 105.573 156.414 105.671 156.398C105.769 156.378 105.844 156.363 105.897 156.354L106.225 157.907C106.12 157.94 105.973 157.977 105.784 158.02C105.595 158.065 105.364 158.093 105.093 158.103C104.59 158.123 104.149 158.056 103.77 157.902C103.394 157.748 103.102 157.51 102.893 157.187C102.684 156.863 102.581 156.455 102.584 155.962V148.67ZM110.767 158.147C110.006 158.147 109.348 157.985 108.793 157.662C108.241 157.335 107.814 156.881 107.514 156.3C107.213 155.715 107.063 155.037 107.063 154.266C107.063 153.489 107.213 152.809 107.514 152.228C107.814 151.643 108.241 151.189 108.793 150.865C109.348 150.539 110.006 150.375 110.767 150.375C111.529 150.375 112.185 150.539 112.737 150.865C113.293 151.189 113.721 151.643 114.021 152.228C114.322 152.809 114.472 153.489 114.472 154.266C114.472 155.037 114.322 155.715 114.021 156.3C113.721 156.881 113.293 157.335 112.737 157.662C112.185 157.985 111.529 158.147 110.767 158.147ZM110.777 156.53C111.124 156.53 111.413 156.432 111.645 156.236C111.877 156.037 112.051 155.766 112.169 155.423C112.29 155.08 112.35 154.689 112.35 154.251C112.35 153.814 112.29 153.423 112.169 153.08C112.051 152.737 111.877 152.466 111.645 152.267C111.413 152.068 111.124 151.968 110.777 151.968C110.428 151.968 110.134 152.068 109.895 152.267C109.66 152.466 109.482 152.737 109.361 153.08C109.244 153.423 109.185 153.814 109.185 154.251C109.185 154.689 109.244 155.08 109.361 155.423C109.482 155.766 109.66 156.037 109.895 156.236C110.134 156.432 110.428 156.53 110.777 156.53ZM119.023 158V150.473H121.11V158H119.023ZM120.072 149.503C119.761 149.503 119.495 149.4 119.273 149.194C119.054 148.985 118.945 148.735 118.945 148.445C118.945 148.157 119.054 147.911 119.273 147.705C119.495 147.496 119.761 147.391 120.072 147.391C120.382 147.391 120.647 147.496 120.865 147.705C121.088 147.911 121.199 148.157 121.199 148.445C121.199 148.735 121.088 148.985 120.865 149.194C120.647 149.4 120.382 149.503 120.072 149.503ZM124.87 153.649V158H122.783V150.473H124.772V151.801H124.86C125.027 151.364 125.306 151.017 125.698 150.762C126.09 150.504 126.566 150.375 127.124 150.375C127.647 150.375 128.103 150.49 128.491 150.718C128.88 150.947 129.182 151.274 129.398 151.698C129.613 152.12 129.721 152.623 129.721 153.208V158H127.634V153.58C127.637 153.119 127.519 152.76 127.281 152.502C127.042 152.241 126.714 152.11 126.296 152.11C126.015 152.11 125.767 152.17 125.551 152.291C125.339 152.412 125.172 152.589 125.051 152.821C124.934 153.049 124.873 153.325 124.87 153.649ZM137.629 152.62L135.718 152.737C135.685 152.574 135.615 152.427 135.507 152.296C135.399 152.162 135.257 152.056 135.081 151.978C134.908 151.896 134.7 151.855 134.458 151.855C134.135 151.855 133.862 151.924 133.64 152.061C133.418 152.195 133.307 152.375 133.307 152.6C133.307 152.78 133.379 152.932 133.523 153.056C133.666 153.18 133.913 153.28 134.262 153.355L135.625 153.629C136.356 153.779 136.902 154.021 137.261 154.354C137.621 154.687 137.8 155.125 137.8 155.668C137.8 156.161 137.655 156.594 137.364 156.966C137.077 157.338 136.681 157.629 136.178 157.838C135.679 158.044 135.102 158.147 134.449 158.147C133.452 158.147 132.658 157.94 132.067 157.525C131.479 157.107 131.135 156.538 131.033 155.819L133.086 155.712C133.148 156.015 133.299 156.247 133.537 156.407C133.776 156.564 134.081 156.643 134.454 156.643C134.819 156.643 135.113 156.572 135.336 156.432C135.561 156.288 135.675 156.104 135.679 155.878C135.675 155.689 135.595 155.534 135.438 155.413C135.282 155.289 135.04 155.194 134.713 155.129L133.41 154.869C132.675 154.722 132.128 154.467 131.768 154.104C131.412 153.742 131.234 153.28 131.234 152.718C131.234 152.234 131.365 151.818 131.626 151.468C131.891 151.119 132.262 150.849 132.738 150.66C133.219 150.47 133.781 150.375 134.424 150.375C135.375 150.375 136.123 150.576 136.668 150.978C137.217 151.38 137.537 151.927 137.629 152.62ZM143.118 150.473V152.041H138.586V150.473H143.118ZM139.615 148.67H141.702V155.687C141.702 155.88 141.731 156.03 141.79 156.138C141.849 156.242 141.931 156.316 142.035 156.358C142.143 156.401 142.267 156.422 142.408 156.422C142.506 156.422 142.604 156.414 142.702 156.398C142.8 156.378 142.875 156.363 142.927 156.354L143.255 157.907C143.151 157.94 143.004 157.977 142.814 158.02C142.625 158.065 142.395 158.093 142.124 158.103C141.62 158.123 141.179 158.056 140.8 157.902C140.425 157.748 140.132 157.51 139.923 157.187C139.714 156.863 139.611 156.455 139.615 155.962V148.67ZM146.624 158.142C146.144 158.142 145.716 158.059 145.34 157.892C144.965 157.722 144.667 157.472 144.449 157.142C144.233 156.809 144.125 156.394 144.125 155.898C144.125 155.48 144.202 155.129 144.356 154.844C144.509 154.56 144.718 154.331 144.983 154.158C145.247 153.985 145.548 153.854 145.884 153.766C146.224 153.678 146.58 153.616 146.953 153.58C147.39 153.534 147.743 153.492 148.011 153.453C148.279 153.41 148.473 153.348 148.594 153.266C148.715 153.185 148.775 153.064 148.775 152.904V152.874C148.775 152.564 148.677 152.324 148.481 152.154C148.289 151.984 148.014 151.899 147.658 151.899C147.283 151.899 146.984 151.983 146.761 152.149C146.539 152.313 146.392 152.518 146.32 152.767L144.39 152.61C144.488 152.152 144.681 151.757 144.968 151.424C145.256 151.088 145.626 150.829 146.08 150.65C146.538 150.467 147.067 150.375 147.668 150.375C148.086 150.375 148.486 150.424 148.869 150.522C149.254 150.62 149.595 150.772 149.893 150.978C150.193 151.184 150.43 151.449 150.603 151.772C150.776 152.092 150.863 152.476 150.863 152.923V158H148.883V156.956H148.824C148.704 157.191 148.542 157.399 148.339 157.579C148.137 157.755 147.893 157.894 147.609 157.995C147.325 158.093 146.997 158.142 146.624 158.142ZM147.222 156.701C147.529 156.701 147.8 156.641 148.036 156.52C148.271 156.396 148.455 156.229 148.589 156.02C148.723 155.811 148.79 155.574 148.79 155.31V154.511C148.725 154.554 148.635 154.593 148.521 154.629C148.41 154.661 148.284 154.692 148.143 154.722C148.003 154.748 147.862 154.772 147.722 154.795C147.581 154.815 147.454 154.833 147.34 154.849C147.095 154.885 146.881 154.942 146.698 155.021C146.515 155.099 146.373 155.205 146.271 155.339C146.17 155.47 146.12 155.633 146.12 155.829C146.12 156.113 146.222 156.331 146.428 156.481C146.637 156.628 146.902 156.701 147.222 156.701ZM154.57 147.964V158H152.482V147.964H154.57ZM158.33 147.964V158H156.242V147.964H158.33Z" fill="white"/>
<defs>
<clipPath id="clip0_9654_64195">
<rect width="26.8914" height="26.8914" fill="white" transform="translate(301.679 40) rotate(10.02)"/>
</clipPath>
</defs>
</svg>
