<svg width="28" height="28" viewBox="0 0 28 28" fill="none" xmlns="http://www.w3.org/2000/svg">
<g clip-path="url(#clip0_815_1844)">
<path fill-rule="evenodd" clip-rule="evenodd" d="M12.3874 26.6812L0.743891 21.3261C-0.247964 20.8586 -0.247964 20.1361 0.743891 19.7111L4.79756 17.8411L12.3443 21.3261C13.3361 21.7936 14.9317 21.7936 15.8805 21.3261L23.4272 17.8411L27.4809 19.7111C28.4727 20.1786 28.4727 20.9011 27.4809 21.3261L15.8373 26.6812C14.9317 27.1062 13.3361 27.1062 12.3874 26.6812Z" fill="#FF6F3D"/>
<path fill-rule="evenodd" clip-rule="evenodd" d="M12.3874 20.0935L0.743891 14.7384C-0.247964 14.2709 -0.247964 13.5484 0.743891 13.1234L4.71131 11.2958L12.3874 14.8234C13.3793 15.2909 14.9749 15.2909 15.9236 14.8234L23.5997 11.2958L27.5671 13.1234C28.559 13.5909 28.559 14.3134 27.5671 14.7384L15.9236 20.0935C14.9317 20.561 13.3361 20.561 12.3874 20.0935Z" fill="#95C038"/>
<path fill-rule="evenodd" clip-rule="evenodd" d="M12.3874 13.6759L0.743891 8.32077C-0.247964 7.85326 -0.247964 7.13074 0.743891 6.70573L12.3874 1.35063C13.3793 0.883123 14.9749 0.883123 15.9236 1.35063L27.5671 6.70573C28.559 7.17324 28.559 7.89576 27.5671 8.32077L15.9236 13.6759C14.9317 14.1009 13.3361 14.1009 12.3874 13.6759Z" fill="#5DC0E8"/>
</g>
<defs>
<clipPath id="clip0_815_1844">
<rect width="28" height="28" fill="white"/>
</clipPath>
</defs>
</svg>
