<svg width="2108" height="1847" viewBox="0 0 2108 1847" fill="none" xmlns="http://www.w3.org/2000/svg">
<g clip-path="url(#clip0_1429_66308)">
<rect width="2108" height="1847" fill="#1868DB"/>
<path opacity="0.2" fill-rule="evenodd" clip-rule="evenodd" d="M2102.03 842.034L2106.76 1767.59C2106.41 1846.8 2058.34 1869.78 1999.32 1818.95L1282.03 1233.98C1220.18 1184.51 1170.71 1081.01 1172.4 1004.6L1167.67 79.042C1168.02 -0.162341 1216.09 -23.1385 1275.12 27.6835L1992.4 612.656C2051.42 663.478 2100.9 766.978 2102.03 842.034Z" fill="#2684FF"/>
<path opacity="0.4" fill-rule="evenodd" clip-rule="evenodd" d="M576.662 542.272L1450.37 236.785C1525.38 211.357 1562.74 249.341 1533.88 321.689L1213.99 1190.22C1187.32 1264.81 1105.54 1345.25 1032.74 1368.5L159.029 1673.99C84.016 1699.41 46.6557 1661.43 75.5175 1589.08L395.412 720.549C424.274 648.201 506.058 567.759 576.662 542.272Z" fill="#2684FF"/>
<path opacity="0.6" fill-rule="evenodd" clip-rule="evenodd" d="M583.06 130.791L30.4583 585.599C-16.4566 624.969 -6.34993 664.906 53.0497 674.872L755.468 812.084C815.462 824.399 901.454 802.638 946.045 763.856L1498.65 309.048C1545.56 269.679 1535.45 229.741 1476.05 219.775L773.637 82.5632C714.237 72.5976 628.245 94.3589 583.06 130.791Z" fill="#2684FF"/>
</g>
<defs>
<clipPath id="clip0_1429_66308">
<rect width="2108" height="1847" fill="white"/>
</clipPath>
</defs>
</svg>
