<svg width="214" height="42" viewBox="0 0 214 42" fill="none" xmlns="http://www.w3.org/2000/svg">
<path d="M50.7545 1.99792V25.7555H66.2703V22.1464H55.4905V1.99792H50.7545Z" fill="#18A303"/>
<path d="M69.1326 25.7554H73.8687V8.65559H69.1326V25.7554ZM71.5006 7.18386C72.9851 7.18386 74.2221 5.9925 74.2221 4.48573C74.2221 3.01405 72.9851 1.7876 71.5006 1.7876C69.9809 1.7876 68.7792 3.01405 68.7792 4.48573C68.7792 5.9925 69.9809 7.18386 71.5006 7.18386Z" fill="#18A303"/>
<path d="M82.1162 10.6522H82.0455V0.525513H77.3094V25.7548H81.9395L82.0455 23.7576H82.1162C83.6006 25.4045 85.0851 26.1052 87.5238 26.1052C92.1184 26.1052 95.158 22.0054 95.158 16.8895C95.158 11.9488 92.4365 8.30457 87.7358 8.30457C85.2264 8.30457 83.742 9.0404 82.1162 10.6522ZM82.0455 16.8194C82.0455 13.876 83.3886 11.9138 85.9333 11.9138C88.7608 11.9138 90.1745 13.9111 90.1745 17.1698C90.1745 20.3936 88.7961 22.4961 86.004 22.4961C83.5653 22.4961 82.0455 20.6038 82.0455 17.5904V16.8194Z" fill="#18A303"/>
<path d="M107.866 8.3053C105.604 8.44541 103.448 9.81207 102.458 11.7042H102.388L102.282 8.6557H97.6517V25.7555H102.388V19.308C102.388 15.8741 103.024 14.6476 104.12 13.8768C105.074 13.211 106.205 12.9307 107.76 12.8606L107.866 8.3053Z" fill="#18A303"/>
<path d="M125.291 16.1894C125.291 11.9495 122.676 8.3053 118.152 8.3053C112.709 8.3053 109.21 12.0196 109.21 17.6612C109.21 23.1625 112.815 26.1059 118.152 26.1059C120.661 26.1059 122.429 25.7205 124.09 24.9847L123.595 21.4806C122.04 22.1113 120.449 22.4968 118.753 22.4968C115.89 22.4968 114.052 21.2003 113.875 18.5372H125.079C125.221 17.9065 125.291 16.9253 125.291 16.1894ZM117.657 11.9145C119.707 11.9145 120.661 13.5614 120.732 15.3134H114.052C114.406 13.3511 115.784 11.9145 117.657 11.9145Z" fill="#18A303"/>
<path d="M139.669 1.64746C133.307 1.64746 128.076 6.23786 128.076 13.8767C128.076 21.5156 133.307 26.1059 139.669 26.1059C146.031 26.1059 151.262 21.5156 151.262 13.8767C151.262 6.23786 146.031 1.64746 139.669 1.64746ZM139.669 4.03032C144.405 4.03032 148.01 7.53434 148.01 13.8767C148.01 20.219 144.405 23.7232 139.669 23.7232C134.933 23.7232 131.328 20.219 131.328 13.8767C131.328 7.53434 134.933 4.03032 139.669 4.03032Z" fill="black"/>
<path d="M155.788 7.70951V8.79577H152.996V11.0384H155.788V25.7555H158.757V11.0384H163.14V8.79577H158.757V7.25397C158.757 4.20545 160.065 2.41838 162.433 2.41838C163.529 2.41838 164.235 2.59357 164.907 2.83885L165.19 0.666379C164.554 0.4211 163.352 0.175781 162.398 0.175781C158.192 0.175781 155.788 2.8739 155.788 7.70951Z" fill="black"/>
<path d="M165.658 7.70951V8.79577H162.866V11.0384H165.658V25.7555H168.627V11.0384H173.01V8.79577H168.627V7.25397C168.627 4.20545 169.935 2.41838 172.303 2.41838C173.399 2.41838 174.106 2.59357 174.777 2.83885L175.06 0.666379C174.424 0.4211 173.222 0.175781 172.268 0.175781C168.062 0.175781 165.658 2.8739 165.658 7.70951Z" fill="black"/>
<path d="M176.449 25.7555H179.418V8.79582H176.449V25.7555ZM177.933 6.30796C178.958 6.30796 179.771 5.50204 179.771 4.48583C179.771 3.46967 178.958 2.6637 177.933 2.6637C176.908 2.6637 176.095 3.46967 176.095 4.48583C176.095 5.50204 176.908 6.30796 177.933 6.30796Z" fill="black"/>
<path d="M185.591 17.2056C185.591 12.9306 188.171 10.688 191.529 10.688C193.296 10.688 194.851 11.1084 196.123 11.7041L196.406 9.46151C195.346 8.93591 193.649 8.44531 191.776 8.44531C186.474 8.44531 182.48 11.634 182.48 17.591C182.48 23.1975 186.086 26.1058 190.857 26.1058C192.978 26.1058 194.497 25.8606 196.229 25.1247L195.946 22.8821C194.462 23.5479 192.872 23.8632 191.387 23.8632C187.959 23.8632 185.591 21.7258 185.591 17.2056Z" fill="black"/>
<path d="M213.152 17.9414C213.223 17.3106 213.258 16.7851 213.258 16.2594C213.258 11.9144 210.961 8.44531 206.543 8.44531C201.771 8.44531 198.272 12.3699 198.272 17.591C198.272 23.3376 201.771 26.1058 206.543 26.1058C208.663 26.1058 210.254 25.7905 211.915 25.1247L211.632 22.8821C210.324 23.5128 208.451 23.8632 206.967 23.8632C203.538 23.8632 201.312 21.7959 201.241 17.9414H213.152ZM206.295 10.688C208.911 10.688 210.324 12.8255 210.324 15.6287H201.383C201.807 12.6503 203.468 10.688 206.295 10.688Z" fill="black"/>
<path d="M57.8449 31.6471H50.7543V32.653H53.6799V41.6764H54.8905V32.653H57.8449V31.6471Z" fill="black"/>
<path d="M60.181 35.7002V31.0258H58.9704V41.6764H60.181V37.7416C60.181 36.2624 61.0601 35.3748 62.141 35.3748C63.2651 35.3748 63.5389 36.0256 63.5389 37.4013V41.6764H64.7495V37.0168C64.7495 35.2712 63.9712 34.3689 62.4868 34.3689C61.4492 34.3689 60.6998 34.9606 60.2098 35.7002H60.1809" fill="black"/>
<path d="M72.4429 38.3777C72.4717 38.1114 72.4861 37.8895 72.4861 37.6676C72.4861 35.8334 71.5494 34.3689 69.7479 34.3689C67.8023 34.3689 66.3756 36.0256 66.3756 38.2298C66.3756 40.6557 67.8023 41.8243 69.7479 41.8243C70.6126 41.8243 71.2611 41.6912 71.9385 41.4102L71.8232 40.4634C71.29 40.7296 70.5261 40.8776 69.9208 40.8776C68.5229 40.8776 67.615 40.0048 67.5862 38.3777H72.4429H72.4429ZM69.647 35.3156C70.7135 35.3156 71.29 36.2179 71.29 37.4013H67.6438C67.8168 36.144 68.4941 35.3156 69.647 35.3156Z" fill="black"/>
<path d="M77.4636 31.7792V41.5867C78.1697 41.6903 79.2074 41.7494 79.9856 41.7494C82.94 41.7494 85.7215 39.9892 85.7215 36.3502C85.7215 33.155 83.5885 31.5721 80.0144 31.5721C79.2218 31.5721 78.2994 31.6313 77.4636 31.7792ZM78.6741 32.6668C79.1209 32.5929 79.6109 32.578 80.1441 32.578C82.8968 32.578 84.3956 34.0869 84.3956 36.4981C84.3956 39.3531 82.4644 40.7436 80.1297 40.7436C79.683 40.7436 79.1785 40.7288 78.6741 40.6844V32.6668Z" fill="black"/>
<path d="M90.2252 34.3689C88.1211 34.3689 86.8672 35.996 86.8672 38.0966C86.8672 40.1971 88.1211 41.8243 90.2252 41.8243C92.3293 41.8243 93.5831 40.1971 93.5831 38.0966C93.5831 35.996 92.3293 34.3689 90.2252 34.3689ZM90.2252 40.8776C88.7696 40.8776 88.1355 39.5906 88.1355 38.0966C88.1355 36.6025 88.7696 35.3156 90.2252 35.3156C91.6808 35.3156 92.3149 36.6025 92.3149 38.0966C92.3149 39.5906 91.6808 40.8776 90.2252 40.8776Z" fill="black"/>
<path d="M96.045 38.067C96.045 36.2624 97.0971 35.3156 98.4662 35.3156C99.1868 35.3156 99.8209 35.4932 100.34 35.7446L100.455 34.7979C100.023 34.576 99.3309 34.3689 98.5671 34.3689C96.4053 34.3689 94.7768 35.715 94.7768 38.2298C94.7768 40.5965 96.2468 41.8243 98.1924 41.8243C99.0571 41.8243 99.6768 41.7208 100.383 41.4102L100.268 40.4634C99.6624 40.7445 99.0138 40.8776 98.4086 40.8776C97.0106 40.8776 96.045 39.9753 96.045 38.067Z" fill="black"/>
<path d="M106.477 40.493L106.52 41.6765H107.687V34.5168H106.477V38.4517C106.477 39.9309 105.598 40.8185 104.517 40.8185C103.393 40.8185 103.119 40.1676 103.119 38.7919V34.5168H101.908V39.1766C101.908 40.922 102.687 41.8244 104.171 41.8244C105.209 41.8244 105.958 41.2327 106.448 40.493H106.477" fill="black"/>
<path d="M118.393 37.2534V41.6764H119.603V36.8689C119.603 35.2712 118.883 34.3689 117.499 34.3689C116.505 34.3689 115.712 35.0198 115.251 35.9813H115.208C114.934 34.9754 114.358 34.3689 113.248 34.3689C112.254 34.3689 111.619 34.9163 111.129 35.7002H111.101L111.057 34.5168H109.89V41.6764H111.101V38.0374C111.101 36.425 111.792 35.3748 112.873 35.3748C113.781 35.3748 114.141 36.0256 114.141 37.2534V41.6764H115.352V38.0374C115.352 36.3955 116.044 35.3748 117.125 35.3748C118.033 35.3748 118.393 36.0256 118.393 37.2534" fill="black"/>
<path d="M127.275 38.3777C127.304 38.1114 127.318 37.8895 127.318 37.6676C127.318 35.8334 126.382 34.3689 124.58 34.3689C122.634 34.3689 121.208 36.0256 121.208 38.2298C121.208 40.6557 122.634 41.8243 124.58 41.8243C125.445 41.8243 126.093 41.6912 126.771 41.4102L126.655 40.4634C126.122 40.7296 125.358 40.8776 124.753 40.8776C123.355 40.8776 122.447 40.0048 122.418 38.3777H127.275ZM124.479 35.3156C125.546 35.3156 126.122 36.2179 126.122 37.4013H122.476C122.649 36.144 123.326 35.3156 124.479 35.3156Z" fill="black"/>
<path d="M130.241 35.7002L130.198 34.5168H129.031V41.6764H130.241V37.7416C130.241 36.2624 131.12 35.3748 132.201 35.3748C133.325 35.3748 133.599 36.0256 133.599 37.4013V41.6764H134.81V37.0168C134.81 35.2712 134.031 34.3689 132.547 34.3689C131.509 34.3689 130.76 34.9606 130.27 35.7002H130.241" fill="black"/>
<path d="M140.212 34.5168H138.54V32.9341H137.329V34.5168H136.22V35.4636H137.329V39.9162C137.329 41.2179 138.021 41.8244 139.145 41.8244C139.736 41.8244 140.125 41.7652 140.428 41.6321L140.298 40.7297C140.053 40.8332 139.794 40.8777 139.52 40.8777C138.814 40.8777 138.54 40.4635 138.54 39.6055V35.4636H140.212V34.5168Z" fill="black"/>
<path d="M146.454 41.6764V37.1499H149.956V36.144H146.454V32.653H150.446V31.6471H145.244V41.6764H146.454Z" fill="black"/>
<path d="M154.825 34.3689C152.721 34.3689 151.467 35.996 151.467 38.0966C151.467 40.1971 152.721 41.8243 154.825 41.8243C156.929 41.8243 158.183 40.1971 158.183 38.0966C158.183 35.996 156.929 34.3689 154.825 34.3689ZM154.825 40.8776C153.369 40.8776 152.735 39.5906 152.735 38.0966C152.735 36.6025 153.369 35.3156 154.825 35.3156C156.28 35.3156 156.914 36.6025 156.914 38.0966C156.914 39.5906 156.28 40.8776 154.825 40.8776Z" fill="black"/>
<path d="M164.377 40.493L164.42 41.6765H165.588V34.5168H164.377V38.4517C164.377 39.9309 163.498 40.8185 162.417 40.8185C161.293 40.8185 161.019 40.1676 161.019 38.7919V34.5168H159.809V39.1766C159.809 40.922 160.587 41.8244 162.071 41.8244C163.109 41.8244 163.858 41.2327 164.348 40.493H164.377" fill="black"/>
<path d="M169.001 35.7002L168.958 34.5168H167.79V41.6764H169.001V37.7416C169.001 36.2624 169.88 35.3748 170.961 35.3748C172.085 35.3748 172.359 36.0256 172.359 37.4013V41.6764H173.569V37.0168C173.569 35.2712 172.791 34.3689 171.307 34.3689C170.269 34.3689 169.52 34.9606 169.03 35.7002H169.001" fill="black"/>
<path d="M180.585 35.6263C180.067 34.7535 179.317 34.3689 178.337 34.3689C176.464 34.3689 175.195 35.9665 175.195 38.2298C175.195 40.3894 176.334 41.8243 178.251 41.8243C179.259 41.8243 180.038 41.351 180.585 40.567H180.614L180.657 41.6764H181.825V31.0258H180.614V35.6263H180.585ZM180.614 38.5256C180.614 39.7682 179.865 40.8776 178.625 40.8776C177.227 40.8776 176.464 39.7534 176.464 38.1114C176.464 36.425 177.199 35.3156 178.597 35.3156C179.706 35.3156 180.614 36.2919 180.614 37.6676V38.5256Z" fill="black"/>
<path d="M186.453 34.3689C185.747 34.3689 185.041 34.4873 184.292 34.7831L184.407 35.7298C185.113 35.4487 185.69 35.3156 186.28 35.3156C187.347 35.3156 187.794 35.9517 187.794 36.9576V37.1647C187.462 37.1055 187.145 37.0759 186.641 37.0759C184.868 37.0759 183.528 37.9783 183.528 39.5463C183.528 41.0107 184.58 41.8243 185.704 41.8243C186.626 41.8243 187.39 41.3362 187.765 40.567H187.794L187.837 41.6764H189.004V36.8245C189.004 35.2121 188.068 34.3689 186.453 34.3689H186.453ZM187.794 38.5995C187.794 40.0196 187.088 40.8776 186.064 40.8776C185.329 40.8776 184.825 40.3303 184.825 39.4575C184.825 38.5108 185.416 37.8895 186.828 37.8895C187.188 37.8895 187.505 37.9338 187.794 37.9783V38.5995Z" fill="black"/>
<path d="M194.396 34.5168H192.725V32.9341H191.514V34.5168H190.404V35.4636H191.514V39.9162C191.514 41.2179 192.206 41.8244 193.33 41.8244C193.921 41.8244 194.31 41.7652 194.613 41.6321L194.483 40.7297C194.238 40.8332 193.978 40.8777 193.705 40.8777C192.998 40.8777 192.725 40.4635 192.725 39.6055V35.4636H194.396V34.5168Z" fill="black"/>
<path d="M196.163 41.6765H197.374V34.5169H196.163V41.6765ZM196.769 33.4666C197.187 33.4666 197.518 33.1264 197.518 32.6974C197.518 32.2685 197.187 31.9282 196.769 31.9282C196.351 31.9282 196.019 32.2685 196.019 32.6974C196.019 33.1264 196.351 33.4666 196.769 33.4666Z" fill="black"/>
<path d="M202.423 34.3689C200.319 34.3689 199.065 35.996 199.065 38.0966C199.065 40.1971 200.319 41.8243 202.423 41.8243C204.527 41.8243 205.781 40.1971 205.781 38.0966C205.781 35.996 204.527 34.3689 202.423 34.3689ZM202.423 40.8776C200.967 40.8776 200.333 39.5906 200.333 38.0966C200.333 36.6025 200.967 35.3156 202.423 35.3156C203.878 35.3156 204.512 36.6025 204.512 38.0966C204.512 39.5906 203.878 40.8776 202.423 40.8776Z" fill="black"/>
<path d="M208.689 35.7002L208.646 34.5168H207.479V41.6764H208.689V37.7416C208.689 36.2624 209.568 35.3748 210.649 35.3748C211.773 35.3748 212.047 36.0256 212.047 37.4013V41.6764H213.258V37.0168C213.258 35.2712 212.48 34.3689 210.995 34.3689C209.958 34.3689 209.208 34.9606 208.718 35.7002H208.689" fill="black"/>
<path fill-rule="evenodd" clip-rule="evenodd" d="M25.0779 1.44975C24.6823 1.43992 24.2926 1.68415 24.138 2.03885C23.9833 2.39354 24.0736 2.83632 24.3557 3.1066L32.8458 11.5159C33.1196 11.7867 33.5655 11.8765 33.9271 11.7336C34.2887 11.5908 34.5444 11.2238 34.5471 10.8438V2.41888C34.5481 1.91124 34.0733 1.44887 33.552 1.44975H25.0779Z" fill="black"/>
<path fill-rule="evenodd" clip-rule="evenodd" d="M1.73296 1.44946C1.21081 1.45671 0.741132 1.92825 0.742044 2.44386V40.8257C0.740996 41.3413 1.21082 41.8126 1.73296 41.8201H33.5399C34.0675 41.8201 34.5479 41.3466 34.5471 40.8257V16.1093C34.5486 15.8484 34.4409 15.5886 34.2547 15.4036L20.4955 1.75425C20.3108 1.56455 20.0472 1.4521 19.7807 1.44946H1.73296Z" fill="white"/>
<path fill-rule="evenodd" clip-rule="evenodd" d="M1.73296 1.44946C1.46853 1.45325 1.21627 1.55978 1.0308 1.74591C0.845326 1.93203 0.741583 2.18275 0.742044 2.44386V40.8257C0.741597 41.0868 0.845328 41.3376 1.0308 41.5237C1.21627 41.7098 1.46854 41.8163 1.73296 41.8201H33.5399C33.6722 41.8203 33.8033 41.7947 33.9256 41.7448C34.0479 41.6949 34.159 41.6217 34.2525 41.5293C34.3461 41.437 34.4203 41.3273 34.4708 41.2065C34.5214 41.0858 34.5473 40.9564 34.5471 40.8257V16.1093C34.5478 15.9784 34.5224 15.8487 34.4722 15.7276C34.4221 15.6065 34.3481 15.4964 34.2547 15.4036L20.4955 1.75425C20.4028 1.65909 20.2919 1.5831 20.1692 1.53078C20.0465 1.47845 19.9144 1.4508 19.7807 1.44946H1.73296ZM2.74013 3.43833H19.3584L32.5327 16.5103V39.8313H2.74013V3.43833Z" fill="black"/>
</svg>
