<svg width="448" height="254" viewBox="0 0 448 254" fill="none" xmlns="http://www.w3.org/2000/svg">
<path d="M227.431 251.553C337.682 251.553 427.059 249.414 427.059 246.776C427.059 244.138 337.682 242 227.431 242C117.18 242 27.8032 244.138 27.8032 246.776C27.8032 249.414 117.18 251.553 227.431 251.553Z" fill="#EFEFEF"/>
<path d="M372.5 252.103C414.197 252.103 448 249.864 448 247.103C448 244.341 414.197 242.103 372.5 242.103C330.803 242.103 297 244.341 297 247.103C297 249.864 330.803 252.103 372.5 252.103Z" fill="#EFEFEF"/>
<path d="M321.495 7.49621V179.5H20.5V7.49621C20.5 3.59413 23.5998 0.5 27.5052 0.5H314.495C318.315 0.5 321.358 3.45413 321.495 7.22998V7.49621Z" fill="#AAAAAA" stroke="#333333"/>
<path d="M26.5 173.5V6.5H315.5V173.5H26.5Z" fill="white" stroke="#333333"/>
<g opacity="0.2">
<rect x="40" y="54.5909" width="44" height="5" rx="2.5" fill="#888888"/>
<rect x="40" y="67.5909" width="31.6968" height="5" rx="2.5" fill="#888888"/>
<rect x="40" y="80.5909" width="44" height="5" rx="2.5" fill="#888888"/>
<rect x="40" y="93.5909" width="31.6968" height="5" rx="2.5" fill="#888888"/>
<rect x="40" y="106.591" width="44" height="5" rx="2.5" fill="#888888"/>
<rect x="40" y="119.591" width="31.6968" height="5" rx="2.5" fill="#888888"/>
<rect x="40" y="132.591" width="44" height="5" rx="2.5" fill="#888888"/>
</g>
<rect x="27" y="7" width="288" height="32" fill="#006CC5"/>
<g clip-path="url(#clip0_1204_209349)">
<path d="M57.104 20.721C56.9733 20.7202 56.843 20.7341 56.7153 20.7624C56.2345 19.5165 55.2994 18.5033 54.102 17.9308C54.1483 17.5543 54.0826 17.1724 53.9134 16.8337C53.7441 16.4949 53.4789 16.2146 53.1513 16.0284C52.8238 15.8421 52.4488 15.7583 52.074 15.7876C51.6992 15.8169 51.3415 15.958 51.0463 16.1929V19.1936C51.2497 19.3554 51.4838 19.4734 51.7341 19.5404C51.9844 19.6074 52.2457 19.6219 52.5019 19.583C52.758 19.5442 53.0035 19.4528 53.2233 19.3145C53.443 19.1763 53.6324 18.994 53.7797 18.779C54.7635 19.2659 55.5247 20.115 55.9064 21.1515C55.6876 21.332 55.5115 21.5596 55.3912 21.8177C55.2708 22.0757 55.2091 22.3577 55.2106 22.6429C55.2121 22.9281 55.2768 23.2093 55.3999 23.466C55.523 23.7228 55.7015 23.9485 55.9222 24.1266C55.5441 25.1813 54.7763 26.0474 53.7797 26.5437C53.6324 26.3288 53.443 26.1465 53.2233 26.0082C53.0035 25.8699 52.758 25.7785 52.5019 25.7397C52.2457 25.7009 51.9844 25.7154 51.7341 25.7824C51.4838 25.8494 51.2497 25.9674 51.0463 26.1292V29.1299C51.3256 29.3526 51.6614 29.4914 52.0152 29.5306C52.3691 29.5697 52.7267 29.5076 53.0472 29.3512C53.3676 29.1948 53.638 28.9505 53.8273 28.6464C54.0167 28.3422 54.1173 27.9903 54.1178 27.6311C54.1226 27.5504 54.1226 27.4695 54.1178 27.3888C55.3292 26.8105 56.2723 25.7823 56.7501 24.5189C56.8668 24.5402 56.9854 24.5499 57.104 24.5475C57.6068 24.5475 58.0891 24.346 58.4447 23.9872C58.8002 23.6284 59 23.1417 59 22.6343C59 22.1268 58.8002 21.6402 58.4447 21.2814C58.0891 20.9226 57.6068 20.721 57.104 20.721Z" fill="white"/>
<path d="M39.0221 15.2459L39 30.1278L50.0063 32.1463V13.2274L39.0221 15.2459ZM45.2252 26.4066C44.3278 27.0634 43.1522 26.786 42.2074 26.4066C42.2074 25.8517 42.1821 25.2969 42.1632 24.7388C42.7699 25.1916 43.6673 25.8581 44.391 25.2395C44.9503 24.2828 43.8506 23.6897 43.2154 23.2306C41.8503 22.3983 41.7998 20.1215 43.1238 19.2319C43.898 18.7376 44.8428 18.8938 45.696 19.015L45.7276 20.5616C45.0166 20.3352 44.1097 19.8792 43.5156 20.6094C43.108 21.684 44.3973 22.089 45.0198 22.6502C46.2522 23.457 46.3596 25.4978 45.2252 26.4066Z" fill="white"/>
</g>
<path d="M120.641 63.2734C120.641 64.1536 120.529 64.9557 120.305 65.6797C120.086 66.3984 119.755 67.0182 119.312 67.5391C118.87 68.0547 118.315 68.4531 117.648 68.7344C116.982 69.0156 116.201 69.1562 115.305 69.1562C114.393 69.1562 113.602 69.0156 112.93 68.7344C112.263 68.4531 111.708 68.0521 111.266 67.5312C110.828 67.0104 110.5 66.388 110.281 65.6641C110.062 64.9401 109.953 64.138 109.953 63.2578C109.953 62.0807 110.146 61.0547 110.531 60.1797C110.922 59.2995 111.513 58.6172 112.305 58.1328C113.102 57.6432 114.107 57.3984 115.32 57.3984C116.508 57.3984 117.495 57.6406 118.281 58.125C119.068 58.6094 119.656 59.2917 120.047 60.1719C120.443 61.0469 120.641 62.0807 120.641 63.2734ZM111.922 63.2734C111.922 64.1536 112.042 64.9167 112.281 65.5625C112.521 66.2031 112.888 66.6979 113.383 67.0469C113.883 67.3906 114.523 67.5625 115.305 67.5625C116.091 67.5625 116.732 67.3906 117.227 67.0469C117.721 66.6979 118.086 66.2031 118.32 65.5625C118.555 64.9167 118.672 64.1536 118.672 63.2734C118.672 61.9349 118.404 60.888 117.867 60.1328C117.336 59.3724 116.487 58.9922 115.32 58.9922C114.539 58.9922 113.896 59.1641 113.391 59.5078C112.891 59.8516 112.521 60.3438 112.281 60.9844C112.042 61.6198 111.922 62.3828 111.922 63.2734ZM132.945 69H130.64L125.047 59.8828H124.976C124.997 60.1901 125.015 60.5156 125.031 60.8594C125.052 61.2031 125.067 61.5573 125.078 61.9219C125.093 62.2865 125.106 62.6562 125.117 63.0312V69H123.414V57.5781H125.703L131.289 66.6328H131.343C131.333 66.3672 131.32 66.0625 131.304 65.7188C131.289 65.375 131.273 65.0208 131.257 64.6562C131.247 64.2865 131.239 63.9297 131.234 63.5859V57.5781H132.945V69ZM136.265 69V57.5781H138.14V67.4062H142.992V69H136.265ZM148.522 62.7891L151.233 57.5781H153.257L149.46 64.5625V69H147.593V64.6328L143.788 57.5781H145.827L148.522 62.7891ZM165.217 63.2734C165.217 64.1536 165.106 64.9557 164.882 65.6797C164.663 66.3984 164.332 67.0182 163.889 67.5391C163.447 68.0547 162.892 68.4531 162.225 68.7344C161.559 69.0156 160.777 69.1562 159.882 69.1562C158.97 69.1562 158.178 69.0156 157.507 68.7344C156.84 68.4531 156.285 68.0521 155.842 67.5312C155.405 67.0104 155.077 66.388 154.858 65.6641C154.639 64.9401 154.53 64.138 154.53 63.2578C154.53 62.0807 154.723 61.0547 155.108 60.1797C155.499 59.2995 156.09 58.6172 156.882 58.1328C157.678 57.6432 158.684 57.3984 159.897 57.3984C161.085 57.3984 162.072 57.6406 162.858 58.125C163.645 58.6094 164.233 59.2917 164.624 60.1719C165.02 61.0469 165.217 62.0807 165.217 63.2734ZM156.499 63.2734C156.499 64.1536 156.619 64.9167 156.858 65.5625C157.098 66.2031 157.465 66.6979 157.96 67.0469C158.46 67.3906 159.1 67.5625 159.882 67.5625C160.668 67.5625 161.309 67.3906 161.803 67.0469C162.298 66.6979 162.663 66.2031 162.897 65.5625C163.132 64.9167 163.249 64.1536 163.249 63.2734C163.249 61.9349 162.981 60.888 162.444 60.1328C161.913 59.3724 161.064 58.9922 159.897 58.9922C159.116 58.9922 158.473 59.1641 157.967 59.5078C157.467 59.8516 157.098 60.3438 156.858 60.9844C156.619 61.6198 156.499 62.3828 156.499 63.2734ZM169.85 69H167.991V57.5781H174.444V59.1562H169.85V62.7188H174.147V64.2891H169.85V69ZM178.701 69H176.842V57.5781H183.295V59.1562H178.701V62.7188H182.998V64.2891H178.701V69ZM185.693 69V57.5781H187.568V69H185.693ZM195.771 59.0078C195.224 59.0078 194.734 59.1068 194.302 59.3047C193.875 59.5026 193.513 59.7891 193.216 60.1641C192.919 60.5339 192.693 60.9844 192.537 61.5156C192.38 62.0417 192.302 62.6354 192.302 63.2969C192.302 64.1823 192.427 64.9453 192.677 65.5859C192.927 66.2214 193.307 66.7109 193.818 67.0547C194.328 67.3932 194.974 67.5625 195.755 67.5625C196.24 67.5625 196.711 67.5156 197.169 67.4219C197.628 67.3281 198.102 67.2005 198.591 67.0391V68.6328C198.128 68.8151 197.659 68.9479 197.185 69.0312C196.711 69.1146 196.164 69.1562 195.544 69.1562C194.378 69.1562 193.409 68.9141 192.638 68.4297C191.872 67.9453 191.3 67.263 190.919 66.3828C190.544 65.5026 190.357 64.4714 190.357 63.2891C190.357 62.4245 190.477 61.6328 190.716 60.9141C190.956 60.1953 191.305 59.5755 191.763 59.0547C192.221 58.5286 192.787 58.125 193.458 57.8438C194.136 57.5573 194.909 57.4141 195.779 57.4141C196.352 57.4141 196.914 57.4792 197.466 57.6094C198.024 57.7344 198.539 57.9141 199.013 58.1484L198.357 59.6953C197.961 59.5078 197.547 59.3464 197.115 59.2109C196.682 59.0755 196.234 59.0078 195.771 59.0078ZM207.833 69H201.364V57.5781H207.833V59.1562H203.239V62.2578H207.544V63.8281H203.239V67.4141H207.833V69Z" fill="#403333"/>
<path d="M109.5 90C109.5 85.8579 112.858 82.5 117 82.5H267C271.142 82.5 274.5 85.8579 274.5 90V109C274.5 113.142 271.142 116.5 267 116.5H117C112.858 116.5 109.5 113.142 109.5 109V90Z" fill="white" stroke="#E2E2E2"/>
<path d="M122.521 102.227L122.654 100.166L120.928 101.322L120.214 100.065L122.073 99.1591L120.214 98.2536L120.928 96.9965L122.654 98.1524L122.521 96.0909H123.954L123.815 98.1524L125.541 96.9965L126.255 98.2536L124.401 99.1591L126.255 100.065L125.541 101.322L123.815 100.166L123.954 102.227H122.521Z" fill="#192435"/>
<path d="M130.988 102.227L131.121 100.166L129.395 101.322L128.681 100.065L130.54 99.1591L128.681 98.2536L129.395 96.9965L131.121 98.1524L130.988 96.0909H132.42L132.282 98.1524L134.008 96.9965L134.722 98.2536L132.868 99.1591L134.722 100.065L134.008 101.322L132.282 100.166L132.42 102.227H130.988Z" fill="#192435"/>
<path d="M139.454 102.227L139.588 100.166L137.862 101.322L137.148 100.065L139.007 99.1591L137.148 98.2536L137.862 96.9965L139.588 98.1524L139.454 96.0909H140.887L140.749 98.1524L142.475 96.9965L143.188 98.2536L141.335 99.1591L143.188 100.065L142.475 101.322L140.749 100.166L140.887 102.227H139.454Z" fill="#192435"/>
<path d="M147.921 102.227L148.054 100.166L146.329 101.322L145.615 100.065L147.474 99.1591L145.615 98.2536L146.329 96.9965L148.054 98.1524L147.921 96.0909H149.354L149.216 98.1524L150.941 96.9965L151.655 98.2536L149.802 99.1591L151.655 100.065L150.941 101.322L149.216 100.166L149.354 102.227H147.921Z" fill="#192435"/>
<path d="M156.388 102.227L156.521 100.166L154.795 101.322L154.082 100.065L155.941 99.1591L154.082 98.2536L154.795 96.9965L156.521 98.1524L156.388 96.0909H157.821L157.682 98.1524L159.408 96.9965L160.122 98.2536L158.268 99.1591L160.122 100.065L159.408 101.322L157.682 100.166L157.821 102.227H156.388Z" fill="#192435"/>
<path d="M164.855 102.227L164.988 100.166L163.262 101.322L162.548 100.065L164.407 99.1591L162.548 98.2536L163.262 96.9965L164.988 98.1524L164.855 96.0909H166.288L166.149 98.1524L167.875 96.9965L168.589 98.2536L166.735 99.1591L168.589 100.065L167.875 101.322L166.149 100.166L166.288 102.227H164.855Z" fill="#192435"/>
<path d="M173.322 102.227L173.455 100.166L171.729 101.322L171.015 100.065L172.874 99.1591L171.015 98.2536L171.729 96.9965L173.455 98.1524L173.322 96.0909H174.754L174.616 98.1524L176.342 96.9965L177.056 98.2536L175.202 99.1591L177.056 100.065L176.342 101.322L174.616 100.166L174.754 102.227H173.322Z" fill="#192435"/>
<path d="M181.788 102.227L181.922 100.166L180.196 101.322L179.482 100.065L181.341 99.1591L179.482 98.2536L180.196 96.9965L181.922 98.1524L181.788 96.0909H183.221L183.083 98.1524L184.809 96.9965L185.522 98.2536L183.669 99.1591L185.522 100.065L184.809 101.322L183.083 100.166L183.221 102.227H181.788Z" fill="#192435"/>
<path d="M190.255 102.227L190.388 100.166L188.663 101.322L187.949 100.065L189.808 99.1591L187.949 98.2536L188.663 96.9965L190.388 98.1524L190.255 96.0909H191.688L191.55 98.1524L193.275 96.9965L193.989 98.2536L192.136 99.1591L193.989 100.065L193.275 101.322L191.55 100.166L191.688 102.227H190.255Z" fill="#192435"/>
<path d="M198.722 102.227L198.855 100.166L197.129 101.322L196.416 100.065L198.275 99.1591L196.416 98.2536L197.129 96.9965L198.855 98.1524L198.722 96.0909H200.155L200.016 98.1524L201.742 96.9965L202.456 98.2536L200.602 99.1591L202.456 100.065L201.742 101.322L200.016 100.166L200.155 102.227H198.722Z" fill="#192435"/>
<path d="M207.189 102.227L207.322 100.166L205.596 101.322L204.882 100.065L206.741 99.1591L204.882 98.2536L205.596 96.9965L207.322 98.1524L207.189 96.0909H208.622L208.483 98.1524L210.209 96.9965L210.923 98.2536L209.069 99.1591L210.923 100.065L210.209 101.322L208.483 100.166L208.622 102.227H207.189Z" fill="#192435"/>
<path d="M215.656 102.227L215.789 100.166L214.063 101.322L213.349 100.065L215.208 99.1591L213.349 98.2536L214.063 96.9965L215.789 98.1524L215.656 96.0909H217.088L216.95 98.1524L218.676 96.9965L219.39 98.2536L217.536 99.1591L219.39 100.065L218.676 101.322L216.95 100.166L217.088 102.227H215.656Z" fill="#192435"/>
<path d="M224.122 102.227L224.256 100.166L222.53 101.322L221.816 100.065L223.675 99.1591L221.816 98.2536L222.53 96.9965L224.256 98.1524L224.122 96.0909H225.555L225.417 98.1524L227.143 96.9965L227.856 98.2536L226.003 99.1591L227.856 100.065L227.143 101.322L225.417 100.166L225.555 102.227H224.122Z" fill="#192435"/>
<path d="M232.589 102.227L232.722 100.166L230.996 101.322L230.283 100.065L232.142 99.1591L230.283 98.2536L230.996 96.9965L232.722 98.1524L232.589 96.0909H234.022L233.884 98.1524L235.609 96.9965L236.323 98.2536L234.47 99.1591L236.323 100.065L235.609 101.322L233.884 100.166L234.022 102.227H232.589Z" fill="#192435"/>
<path d="M241.056 102.227L241.189 100.166L239.463 101.322L238.75 100.065L240.609 99.1591L238.75 98.2536L239.463 96.9965L241.189 98.1524L241.056 96.0909H242.489L242.35 98.1524L244.076 96.9965L244.79 98.2536L242.936 99.1591L244.79 100.065L244.076 101.322L242.35 100.166L242.489 102.227H241.056Z" fill="#192435"/>
<path d="M249.523 102.227L249.656 100.166L247.93 101.322L247.216 100.065L249.075 99.1591L247.216 98.2536L247.93 96.9965L249.656 98.1524L249.523 96.0909H250.956L250.817 98.1524L252.543 96.9965L253.257 98.2536L251.403 99.1591L253.257 100.065L252.543 101.322L250.817 100.166L250.956 102.227H249.523Z" fill="#192435"/>
<rect x="109" y="126" width="66" height="25" rx="12.5" fill="#EEEEEE"/>
<rect x="124" y="136" width="36" height="5" rx="2.5" fill="#808080"/>
<path d="M208 239.5H208.561L208.497 238.943L204.831 206.943L204.78 206.5H204.334H136.4H135.964L135.905 206.932L131.505 238.932L131.427 239.5H132H208Z" fill="#CCCCCC" stroke="#333333"/>
<path d="M20.5 199.442V179.5H321.5V199.442C321.5 203.382 318.396 206.5 314.495 206.5H27.5054C23.5991 206.5 20.5 203.383 20.5 199.442Z" fill="#E2E2E2" stroke="#333333"/>
<path d="M121.333 242.5L131.106 239.5H208.894L218.667 242.5H121.333Z" fill="#E2E2E2" stroke="#333333"/>
<path d="M221.281 243.5L220.909 244.5H118.986L118.677 243.5H221.281Z" fill="#AAAAAA" stroke="#333333"/>
<path d="M176.5 192.497C176.5 195.26 174.259 197.5 171.5 197.5C168.741 197.5 166.5 195.26 166.5 192.497C166.5 189.74 168.74 187.5 171.5 187.5C174.26 187.5 176.5 189.735 176.5 192.497Z" fill="#AAAAAA" stroke="#333333"/>
<path fill-rule="evenodd" clip-rule="evenodd" d="M378.579 45.113C378.238 46.9467 377.589 49.5149 376.441 50.1438C375.663 50.5758 374.472 49.8894 372.652 46.8747C374.477 46.7835 376.427 46.2459 378.161 45.3386C378.3 45.2666 378.44 45.1898 378.579 45.113ZM370.034 46.6683C369.159 47.7148 368.376 48.4252 367.694 48.8909C366.681 49.5773 365.984 49.6829 365.595 49.5485C365.264 49.4285 365.096 48.8669 365.033 48.1612C364.918 46.9179 365.153 45.3674 365.341 44.5033C365.701 44.4553 366.076 44.4073 366.455 44.3689L366.647 44.6377C367.454 45.689 368.645 46.3515 370.034 46.6683Z" fill="#CCCCCC"/>
<path fill-rule="evenodd" clip-rule="evenodd" d="M366.507 44.2551L366.734 44.5734C367.522 45.5995 368.689 46.2505 370.058 46.563L370.23 46.6022L370.117 46.7375C369.238 47.7896 368.448 48.5075 367.755 48.9801C366.734 49.6718 365.999 49.8022 365.56 49.6506L365.558 49.6501C365.347 49.5735 365.207 49.3647 365.112 49.1124C365.016 48.8558 364.957 48.5281 364.926 48.1709C364.809 46.9113 365.047 45.3482 365.235 44.4804L365.251 44.4063L365.326 44.3962C365.687 44.3482 366.063 44.3 366.444 44.2614L366.507 44.2551ZM365.43 44.6003C365.247 45.4727 365.03 46.9588 365.141 48.1512C365.172 48.4996 365.228 48.806 365.315 49.0366C365.402 49.2711 365.512 49.403 365.631 49.4467C365.971 49.5635 366.629 49.4821 367.634 48.8016C368.276 48.3628 369.014 47.7004 369.838 46.7325C368.504 46.3968 367.354 45.7352 366.562 44.7035L366.559 44.7005L366.404 44.4827C366.074 44.5171 365.747 44.5584 365.43 44.6003ZM378.727 44.908L378.685 45.1327C378.514 46.0517 378.266 47.1591 377.914 48.1174C377.739 48.5965 377.536 49.0416 377.303 49.4082C377.07 49.7739 376.803 50.069 376.493 50.2385C376.05 50.4844 375.509 50.3939 374.87 49.8863C374.232 49.3797 373.471 48.4412 372.559 46.9305L372.466 46.7758L372.646 46.7668C374.455 46.6764 376.39 46.1433 378.111 45.2429C378.249 45.1716 378.387 45.0953 378.527 45.0184L378.727 44.908ZM378.43 45.3178C378.357 45.3574 378.284 45.3965 378.211 45.4344C376.521 46.3187 374.626 46.8548 372.837 46.9721C373.703 48.3852 374.418 49.2515 375.005 49.7172C375.61 50.1983 376.054 50.2351 376.389 50.0493C376.654 49.9044 376.898 49.6424 377.121 49.2923C377.343 48.9433 377.539 48.5137 377.712 48.043C378.029 47.1775 378.262 46.1833 378.43 45.3178Z" fill="#CCCCCC"/>
<path fill-rule="evenodd" clip-rule="evenodd" d="M378.646 21.6391C378.685 19.8245 378.617 18.3076 378.469 17.0451C378.281 15.5042 377.959 14.3185 377.537 13.4208C377.224 12.7584 376.754 12.1199 376.182 11.6063C375.639 11.1118 374.996 10.7182 374.304 10.507C373.439 10.2429 372.599 10.2958 371.782 10.5454C371.018 10.7758 370.288 11.179 369.573 11.6495C369.217 11.8799 368.91 12.1007 368.617 12.3119C367.401 13.1808 366.431 13.8768 364.687 13.4064C364.567 13.3728 364.452 13.3152 364.356 13.2336C364.217 13.1136 364.106 12.9504 364.049 12.7584C363.986 12.5519 363.981 12.3119 364.053 12.0431C364.125 11.7647 364.289 11.4622 364.553 11.1502L364.587 11.1022C364.683 10.9678 364.803 10.8334 364.942 10.699C366.114 9.55649 368.453 8.67322 371.114 8.4908C373.795 8.30839 376.773 8.86043 379.175 10.5982C379.636 10.9294 380.073 11.3038 380.486 11.7311C381.461 12.7344 382.21 14.1313 382.6 16.0322C382.936 17.6788 383.003 19.6997 382.715 22.1671C382.58 21.9223 382.417 21.7063 382.225 21.5239C381.855 21.1782 381.384 20.967 380.827 20.9382C380.207 20.9046 379.472 21.111 378.646 21.6391Z" fill="#666666"/>
<path fill-rule="evenodd" clip-rule="evenodd" d="M379.111 10.6856C376.735 8.9663 373.784 8.41734 371.122 8.59851C368.474 8.78 366.164 9.65863 365.017 10.7763C364.882 10.9073 364.766 11.037 364.675 11.1646L364.636 11.2203C364.379 11.5233 364.225 11.8112 364.158 12.0701C364.09 12.3219 364.096 12.5421 364.152 12.727C364.204 12.8987 364.302 13.0446 364.426 13.1515C364.509 13.2216 364.61 13.2723 364.716 13.3022C365.567 13.5318 366.223 13.4757 366.813 13.2599C367.409 13.0421 367.943 12.6605 368.554 12.2241C368.847 12.013 369.156 11.7909 369.514 11.559C370.233 11.0862 370.973 10.6767 371.751 10.442C372.584 10.1874 373.447 10.1322 374.336 10.4036C375.045 10.6202 375.702 11.0228 376.255 11.5261C376.837 12.0493 377.316 12.6993 377.634 13.3747C378.064 14.2859 378.388 15.4837 378.576 17.032C378.72 18.2542 378.788 19.7121 378.758 21.4431C379.53 20.9834 380.229 20.7976 380.833 20.8303C381.416 20.8605 381.91 21.0821 382.299 21.4449C382.425 21.5651 382.54 21.6994 382.642 21.8453C382.889 19.5264 382.813 17.6175 382.494 16.0538C382.108 14.1699 381.367 12.7926 380.409 11.8063C380 11.3838 379.567 11.0132 379.111 10.6856ZM379.238 10.5105C376.811 8.75445 373.806 8.19936 371.107 8.38301C368.433 8.56634 366.064 9.45418 364.867 10.6214C364.724 10.759 364.6 10.8983 364.499 11.0394L364.467 11.0842C364.198 11.4037 364.026 11.7189 363.949 12.0155C363.872 12.3012 363.876 12.5617 363.945 12.7895C364.009 13.0017 364.131 13.1823 364.286 13.3154C364.395 13.4082 364.525 13.4731 364.658 13.5104L364.659 13.5106C365.552 13.7514 366.253 13.6947 366.887 13.4628C367.512 13.2345 368.067 12.8375 368.667 12.4083L368.68 12.3997C368.973 12.1885 369.278 11.9689 369.631 11.74C370.343 11.272 371.064 10.8748 371.813 10.6487C372.613 10.4042 373.432 10.3536 374.272 10.6102C374.947 10.8161 375.577 11.2006 376.109 11.6861C376.67 12.1901 377.133 12.8174 377.439 13.4668C377.855 14.3509 378.175 15.5245 378.361 17.0579C378.51 18.3144 378.577 19.8261 378.538 21.6368L378.534 21.839L378.705 21.73C379.518 21.2103 380.23 21.014 380.821 21.046C381.353 21.0735 381.8 21.2742 382.151 21.6024C382.334 21.7765 382.491 21.9833 382.62 22.2191L382.783 22.5153L382.822 22.1796C383.111 19.7039 383.045 17.671 382.705 16.0106C382.313 14.0927 381.555 12.6762 380.564 11.656C380.146 11.224 379.704 10.8454 379.238 10.5105Z" fill="#666666"/>
<path fill-rule="evenodd" clip-rule="evenodd" d="M362.944 12.3839C362.079 13.3536 361.373 14.5969 360.84 16.0226C359.682 19.1333 359.341 23.1368 359.975 26.9627C360.614 30.8222 362.247 34.5281 365.019 37.0051C366.095 37.9652 367.344 38.7429 368.77 39.2757C368.982 39.3573 372.128 40.2406 375.865 37.0291C377.709 35.4402 379.741 32.8336 381.677 28.5949L380.351 27.99C378.516 32.0127 376.624 34.4561 374.919 35.9203C371.792 38.6085 369.433 37.9652 369.279 37.9076C368.03 37.4468 366.94 36.7651 365.999 35.9203C363.491 33.6785 362.012 30.2846 361.421 26.7275C360.825 23.1416 361.138 19.4069 362.209 16.5315C362.679 15.2737 363.289 14.1841 364.034 13.3536L362.944 12.3839Z" fill="#333333"/>
<path fill-rule="evenodd" clip-rule="evenodd" d="M378.613 22.6759C378.704 20.3909 378.646 18.538 378.464 17.045C378.276 15.5041 377.955 14.3184 377.532 13.4207C377.22 12.7583 376.749 12.1198 376.177 11.6062C375.635 11.1118 374.991 10.7181 374.299 10.5069C373.435 10.2429 372.594 10.2957 371.777 10.5453C371.014 10.7757 370.283 11.179 369.568 11.6494C369.212 11.8798 368.905 12.1006 368.612 12.3119C367.397 13.1807 366.426 13.8768 364.683 13.4063C364.562 13.3727 364.447 13.3151 364.351 13.2335C364.212 13.1135 364.101 12.9503 364.044 12.7583C363.981 12.5519 363.976 12.3119 364.049 12.043C364.121 11.7646 364.284 11.4622 364.548 11.1502L364.582 11.1022C364.678 10.9677 364.798 10.8333 364.937 10.6989C366.109 9.55643 368.449 8.67316 371.11 8.49074C373.79 8.30833 376.768 8.86037 379.17 10.5981C379.631 10.9293 380.068 11.3038 380.481 11.731C381.456 12.7343 382.206 14.1312 382.595 16.0322C382.955 17.8035 383.003 20.0021 382.643 22.7239L382.59 23.1367C382.407 24.5625 382.292 25.4505 381.413 26.6698C381.288 26.8427 381.144 27.0299 380.976 27.2315C380.832 27.4091 380.664 27.6011 380.472 27.8027L380.64 28.4076L381.538 28.7964C381.725 28.5948 381.913 28.3836 382.095 28.158C382.263 27.9563 382.427 27.7451 382.59 27.5195C383.68 26.0026 383.815 24.9753 384.031 23.324L384.084 22.9111C384.468 20.0213 384.41 17.6595 384.017 15.7393C383.57 13.5408 382.681 11.9038 381.519 10.7133C381.048 10.2285 380.544 9.80125 380.015 9.41722C377.306 7.45386 373.982 6.83461 370.999 7.03622C367.997 7.23784 365.307 8.28913 363.904 9.65244C363.722 9.83005 363.559 10.0173 363.414 10.2093C363.001 10.6941 362.747 11.1886 362.622 11.6638C362.478 12.2062 362.497 12.7247 362.636 13.1807C362.78 13.6512 363.049 14.0496 363.395 14.3424C363.659 14.5632 363.967 14.7265 364.293 14.8177C366.705 15.4657 367.92 14.592 369.452 13.4976C369.745 13.2911 370.048 13.0703 370.355 12.8687C370.966 12.4655 371.58 12.1246 372.19 11.9374C372.748 11.7694 373.305 11.731 373.862 11.899C374.333 12.043 374.784 12.3215 375.178 12.6815C375.606 13.0703 375.961 13.5504 376.197 14.04C376.557 14.7985 376.831 15.8353 376.999 17.2131C377.157 18.5332 377.22 20.1461 377.157 22.1095L377.527 22.6279L378.613 22.6759Z" fill="#333333"/>
<path fill-rule="evenodd" clip-rule="evenodd" d="M378.291 23.1272C379.314 22.2248 380.15 21.8743 380.784 21.9031C381.101 21.9175 381.36 22.0376 381.567 22.2248C381.788 22.4312 381.946 22.724 382.042 23.0744C382.297 23.9865 382.105 25.2394 381.384 26.3675C381.202 26.6555 380.894 26.9772 380.52 27.2364C380.337 27.3612 380.14 27.4668 379.938 27.5436C379.175 27.8268 379.554 28.6669 380.015 28.5421C380.395 28.4365 380.755 28.2589 381.072 28.0429C381.557 27.7116 381.961 27.2796 382.206 26.8956C383.08 25.5274 383.301 23.9769 382.984 22.82C382.84 22.2968 382.585 21.8455 382.23 21.5191C381.86 21.1735 381.389 20.9623 380.832 20.9335C379.953 20.8903 378.848 21.3223 377.58 22.4552C377.128 22.8632 377.676 23.6697 378.291 23.1272Z" fill="#333333"/>
<path fill-rule="evenodd" clip-rule="evenodd" d="M380.044 23.6072C380.188 23.5784 380.313 23.5784 380.419 23.6024C380.539 23.6312 380.635 23.6984 380.692 23.7896C380.76 23.9 380.798 24.0488 380.798 24.2216C380.798 24.5817 380.649 25.0425 380.342 25.5177C380.236 25.681 380.063 25.8682 379.847 26.0122C379.765 26.0698 379.674 26.1226 379.578 26.161C379.064 26.3818 379.232 26.7994 379.645 26.6554C379.813 26.5978 379.977 26.5114 380.121 26.4154C380.39 26.233 380.616 25.993 380.75 25.7818C381.106 25.2249 381.283 24.6729 381.283 24.2216C381.283 23.9528 381.221 23.7128 381.101 23.5256C380.971 23.324 380.779 23.1848 380.524 23.1271C380.375 23.0935 380.203 23.0887 380.006 23.1175C379.367 23.2232 379.439 23.7272 380.044 23.6072Z" fill="#333333"/>
<path fill-rule="evenodd" clip-rule="evenodd" d="M379.545 44.081L379.007 33.1697L377.546 33.2369L378.089 44.1482L379.545 44.081Z" fill="#333333"/>
<path fill-rule="evenodd" clip-rule="evenodd" d="M367.766 44.0233L368.564 38.1717L367.118 37.9749L366.316 43.8265L367.766 44.0233Z" fill="#333333"/>
<path fill-rule="evenodd" clip-rule="evenodd" d="M378.843 43.4856L378.829 43.5672C378.632 44.9017 377.988 49.2941 376.441 50.1437C375.577 50.6238 374.203 49.7261 372.022 45.7802L370.74 46.481C373.454 51.3966 375.558 52.2991 377.143 51.4206C379.328 50.2157 380.054 45.2713 380.275 43.7736L380.289 43.692L378.843 43.4856Z" fill="#333333"/>
<path fill-rule="evenodd" clip-rule="evenodd" d="M364.044 43.6537C363.847 44.3641 363.415 46.5723 363.578 48.2957C363.693 49.5294 364.121 50.571 365.11 50.9215C365.86 51.1855 367.046 51.0943 368.516 50.0958C369.505 49.419 370.673 48.3101 371.965 46.5675L370.793 45.6987C369.606 47.2924 368.564 48.2957 367.69 48.8909C366.676 49.5774 365.98 49.683 365.591 49.5486C365.259 49.4286 365.091 48.8669 365.029 48.1613C364.884 46.6443 365.273 44.681 365.446 44.0473L364.044 43.6537Z" fill="#333333"/>
<path fill-rule="evenodd" clip-rule="evenodd" d="M369.275 26.9867C366.887 27.9324 366.047 26.8235 366.08 25.7914C366.119 24.3993 367.425 24.6777 367.161 22.4215C368.295 24.0104 365.739 25.7722 367.267 26.6026C367.593 26.7803 368.112 26.9627 369.275 26.9867Z" fill="#333333"/>
<path fill-rule="evenodd" clip-rule="evenodd" d="M367.997 30.3421C370.788 32.5935 371.801 28.5996 372.291 27.9851C372.152 32.9439 368.348 32.5983 367.997 30.3421Z" fill="#333333"/>
<path fill-rule="evenodd" clip-rule="evenodd" d="M370.178 21.6007C371.662 18.0916 375.601 20.0934 375.615 21.9703C375.428 21.7639 374.602 21.2695 374.131 21.2119C373.968 23.3 371.47 23.7369 370.797 21.5095C370.533 21.4951 370.375 21.4807 370.178 21.6007Z" fill="#333333"/>
<path fill-rule="evenodd" clip-rule="evenodd" d="M361.685 21.4518C363.035 17.8899 367.051 19.7429 367.137 21.6198C366.94 21.423 366.099 20.9574 365.624 20.919C365.542 23.012 363.059 23.54 362.305 21.3414C362.036 21.3318 361.877 21.327 361.685 21.4518Z" fill="#333333"/>
<path fill-rule="evenodd" clip-rule="evenodd" d="M328.555 44.4502C327.767 40.9508 327.969 38.9379 328.267 37.4594L328.31 37.2529C328.401 36.7921 328.541 36.2785 328.67 35.7888C328.935 34.7903 329.175 33.8879 329.06 33.2302C328.915 32.3997 328.435 31.9725 327.383 32.1549C325.678 32.4477 324.861 34.0271 324.174 35.3472C323.809 36.0528 323.502 36.6433 323.411 36.6289C323.315 36.5953 323.219 36.5521 323.122 36.4993C323.017 36.4417 322.911 36.3649 322.796 36.2833C322.594 36.1344 322.263 35.8416 321.854 35.4864C319.544 33.451 315.005 29.4523 311.849 32.1213C310.974 32.8606 310.513 34.3007 310.998 36.2929C311.354 37.7426 312.219 39.5331 313.818 41.5925C313.881 41.6693 314.15 41.9669 314.721 42.3942C315.029 42.6198 315.437 42.8982 315.98 43.2198C316.537 43.5511 317.2 43.7959 317.997 44.0935C319.193 44.5399 320.721 45.1064 322.508 46.2009L323.719 45.0936C321.807 43.9223 319.765 43.191 318.506 42.7254C317.767 42.4518 317.157 42.2213 316.724 41.9669C316.239 41.6789 315.869 41.4293 315.591 41.2229C315.168 40.9108 315.009 40.7476 314.976 40.7044C313.511 38.8131 312.728 37.2193 312.415 35.9568C312.074 34.5695 312.305 33.6526 312.79 33.2398C314.981 31.3869 318.895 34.8335 320.884 36.5857C321.312 36.9601 321.657 37.2673 321.922 37.4642C322.075 37.5746 322.234 37.6802 322.397 37.7762C322.575 37.877 322.757 37.9586 322.945 38.021C324.213 38.4338 324.78 37.3393 325.462 36.024C325.995 34.9968 326.634 33.7726 327.619 33.5998C327.628 33.5998 327.604 33.4126 327.614 33.4846C327.671 33.8303 327.47 34.5887 327.249 35.4288C327.119 35.9184 326.984 36.4321 326.874 36.9841L326.831 37.1905C326.494 38.8563 326.269 40.994 327.119 44.7815L328.555 44.4502Z" fill="#333333"/>
<path fill-rule="evenodd" clip-rule="evenodd" d="M325.125 45.3436C324.433 45.6173 324.43 45.0172 323.906 45.3436C322.177 44.3307 319.669 43.1429 318.506 42.7109C317.767 42.4372 317.156 42.2068 316.724 41.9524C316.239 41.6644 315.869 41.4148 315.591 41.2083C315.168 40.8963 315.009 40.7331 314.976 40.6899C314.841 40.5171 314.716 40.3491 314.591 40.1811C313.371 38.5105 312.694 37.0896 312.415 35.9375C312.074 34.5502 312.305 33.6333 312.79 33.2205C313.011 33.0333 313.251 32.8989 313.501 32.8124C315.749 32.0444 319.092 34.987 320.884 36.5664C321.311 36.9408 321.657 37.248 321.922 37.4448C322.075 37.5552 322.234 37.6608 322.397 37.7569C322.575 37.8577 322.757 37.9393 322.945 38.0017C324.213 38.4145 324.78 37.32 325.462 36.0047C325.995 34.9774 326.634 33.7533 327.623 33.5805C327.628 33.9597 327.45 34.651 327.249 35.4095C327.119 35.8991 326.984 36.4127 326.874 36.9648L326.831 37.1712C326.518 38.7313 326.364 41.4628 327.031 44.6982C326.349 44.8806 325.874 45.0508 325.125 45.3436Z" fill="#FEFEFE"/>
<path fill-rule="evenodd" clip-rule="evenodd" d="M371.196 86.2955C370.034 86.0842 368.914 85.6714 367.387 84.9081C366.316 84.3705 365.446 83.8088 364.75 83.2424C364.154 82.7576 363.684 82.2679 363.323 81.7831C363.487 83.3432 363.919 85.0618 364.495 86.7851C365.321 89.2525 366.436 91.7295 367.483 93.8033C367.987 92.4208 368.66 90.9566 369.414 89.4973C369.976 88.4124 370.581 87.3323 371.196 86.2955Z" fill="#FF6F3D"/>
<path fill-rule="evenodd" clip-rule="evenodd" d="M362.934 80.7834L363.551 81.614C363.895 82.0774 364.349 82.5504 364.929 83.0225M362.934 80.7834L363.041 81.8126L362.934 80.7834ZM364.764 86.6951C364.307 85.328 363.943 83.9703 363.733 82.6984L364.764 86.6951ZM363.733 82.6984C363.982 82.9545 364.26 83.2095 364.571 83.4622L364.571 83.4623C365.286 84.0436 366.173 84.616 367.26 85.1615L367.26 85.1617C368.631 85.8466 369.689 86.2585 370.75 86.4945C370.202 87.4295 369.665 88.396 369.162 89.3669L369.162 89.3672C368.514 90.622 367.924 91.8836 367.447 93.0971C366.492 91.1574 365.509 88.9207 364.764 86.6952M363.041 81.8126C363.208 83.4004 363.646 85.1403 364.226 86.875L363.041 81.8126ZM364.929 83.0226C365.607 83.5741 366.458 84.1249 367.514 84.6547C369.028 85.4113 370.12 85.8119 371.247 86.0166L371.648 86.0894L371.44 86.44C370.827 87.4729 370.225 88.5482 369.666 89.6276C368.915 91.08 368.248 92.5327 367.749 93.9004L367.525 94.5153L367.23 93.9311C366.179 91.8497 365.058 89.3595 364.226 86.8751L364.226 86.875" fill="#FF6F3D"/>
<path fill-rule="evenodd" clip-rule="evenodd" d="M363.251 80.4102C363.237 82.2967 363.746 84.5337 364.495 86.7851C365.321 89.2525 366.436 91.7295 367.483 93.8033C367.987 92.4207 368.66 90.9566 369.414 89.4973C370.74 86.9387 372.315 84.3945 373.694 82.3591L374.823 83.1176C373.463 85.1241 371.912 87.6251 370.62 90.1214C369.611 92.0751 368.756 94.0289 368.28 95.7378L367.829 97.3652L367.027 95.877C365.768 93.5344 364.255 90.3758 363.203 87.2219C362.411 84.8457 361.873 82.4647 361.887 80.415L363.251 80.4102Z" fill="#333333"/>
<path fill-rule="evenodd" clip-rule="evenodd" d="M356.44 61.1799C354.148 64.3721 350.267 68.0156 346.136 70.5502C342.543 72.7536 338.787 74.1025 335.818 73.5313C335.492 73.4689 334.108 73.0177 331.928 69.5614C329.655 65.9563 326.711 59.2549 323.608 46.8171C324.074 46.6155 324.698 46.4283 325.352 46.2794C326.283 46.0634 327.263 45.9194 327.989 45.8666C328.45 46.9611 328.945 48.214 329.459 49.5149C331.543 54.8097 333.974 60.9879 337.961 65.1882L338.393 65.6442L338.907 65.2842C340.252 64.3481 343.84 60.1094 347.174 56.1635C349.907 52.9328 352.467 49.9037 353.341 49.2077C354.59 48.2092 356.137 47.1723 358.284 46.2938C360.355 45.4442 362.987 44.7433 366.455 44.3641L366.647 44.6329C367.786 46.1258 369.697 46.8315 371.84 46.8843C373.886 46.9323 376.168 46.3803 378.161 45.3386C378.718 45.0505 379.251 44.7241 379.751 44.3641C382.018 44.8009 385.208 46.2074 388.268 47.9932C391.356 49.7933 394.282 51.9631 395.977 53.9073C396.63 55.6834 397.404 57.6756 398.225 59.8022C402.443 70.6847 408.067 85.1963 406.021 92.7665C406.007 92.8145 405.743 93.1793 404.287 93.3761C403.346 93.5009 401.996 93.4865 400.07 93.1505C397.999 92.7905 395.233 91.9264 391.659 90.5487C388.042 89.1566 383.618 87.246 378.272 84.8074L377.666 86.1323C383.051 88.5901 387.504 90.5103 391.135 91.912C394.81 93.3281 397.668 94.2162 399.83 94.5906C401.914 94.9507 403.413 94.9651 404.489 94.821C406.804 94.509 407.395 93.3137 407.438 93.1505C409.609 85.1242 403.884 70.3534 399.589 59.2789C398.749 57.1091 397.961 55.0834 397.303 53.2832L397.255 53.1584L397.168 53.0576C395.382 50.9646 392.269 48.6364 389.002 46.7307C385.674 44.7865 382.148 43.2696 379.684 42.8712L379.376 42.8232L379.127 43.0152C378.613 43.404 378.065 43.7544 377.489 44.0521C375.706 44.9785 373.684 45.4778 371.873 45.4298C370.158 45.3866 368.66 44.8585 367.81 43.7496C367.689 43.5912 367.584 43.428 367.493 43.2552L367.262 42.8184L366.772 42.8664C362.92 43.2456 360.009 44.0089 357.732 44.9449C355.436 45.8858 353.774 46.9995 352.434 48.07C351.43 48.8717 348.831 51.9439 346.059 55.2226C343.158 58.6549 340.055 62.3224 338.561 63.6809C335.04 59.6966 332.773 53.9409 330.823 48.9821C330.256 47.5371 329.713 46.1594 329.137 44.8297L328.945 44.3881H328.464C327.643 44.3929 326.283 44.5657 325.035 44.8537C323.987 45.0985 322.988 45.4298 322.373 45.8234L321.936 46.1066L322.061 46.6107C325.26 59.5861 328.335 66.5755 330.703 70.339C333.2 74.3042 335.098 74.8802 335.554 74.9666C338.917 75.6147 343.028 74.1697 346.905 71.7935C351.233 69.1389 355.311 65.2986 357.698 61.9335C358.51 60.791 357.304 59.9798 356.44 61.1799Z" fill="#333333"/>
<path fill-rule="evenodd" clip-rule="evenodd" d="M397.38 53.3846L397.285 53.125L399.619 59.2553L399.384 58.6481L399.384 58.6469C398.65 56.7467 397.966 54.9773 397.38 53.3846ZM399.634 59.2948L399.619 59.2568L397.017 56.6754C397.326 57.4841 397.65 58.3226 397.984 59.185L397.985 59.1881L398.22 59.7973L398.223 59.8039C402.44 70.6856 408.062 85.1929 406.016 92.7616C406.002 92.8096 405.738 93.1745 404.282 93.3713C403.341 93.4961 401.991 93.4817 400.065 93.1456C397.994 92.7856 395.228 91.9216 391.654 90.5438C391.493 90.4818 391.331 90.4188 391.166 90.3547C390.896 90.2492 390.622 90.1409 390.343 90.0298C387.534 88.9114 384.278 87.5109 380.528 85.8238C380.028 85.5989 379.519 85.3689 379.002 85.1338L379.046 85.1007C379.463 84.7858 379.85 84.4262 380.206 84.0328C380.33 83.8949 380.451 83.7529 380.567 83.6073C380.904 83.1865 381.205 82.7383 381.473 82.2673L381.495 82.2295C381.581 82.2562 381.67 82.2829 381.76 82.3097L381.88 82.3452C383.676 82.873 386.075 83.4379 388.524 83.92C388.96 84.0058 389.398 84.089 389.833 84.1689C390.036 84.2064 390.239 84.2432 390.441 84.2793C392.415 84.6314 394.332 84.91 395.898 85.0542C396.128 85.0753 396.35 85.0936 396.564 85.1087C396.708 85.1189 396.848 85.1277 396.984 85.1351L397.072 85.1397L397.093 85.1407L397.149 85.1434C398.286 85.1955 398.456 83.7819 397.217 83.6827C397.2 83.6813 397.181 83.6801 397.164 83.6793C397.131 83.6772 397.098 83.6754 397.065 83.6736L397.004 83.6704C396.902 83.6652 396.8 83.6599 396.693 83.6505C396.683 83.6381 396.673 83.6253 396.662 83.6119C396.062 82.8468 394.631 80.4469 393.215 77.8708C391.878 75.4334 390.569 72.8632 390.007 71.3804C390 71.3603 389.992 71.3403 389.985 71.3206C389.979 71.3053 389.973 71.2901 389.968 71.275C390.015 69.0227 390.127 66.7424 390.3 64.4297L390.309 64.3145L390.311 64.2908L390.311 64.2883C390.373 63.1828 388.944 62.9607 388.853 64.18L388.852 64.2028L388.852 64.2044L388.839 64.3679C388.667 66.6734 388.557 68.9637 388.51 71.2445C388.507 71.3748 388.504 71.5051 388.502 71.6353C388.491 72.2856 388.485 72.9351 388.484 73.584C388.48 76.0646 388.554 78.5158 388.701 80.943C388.732 81.445 388.765 81.9459 388.802 82.4459L388.805 82.4936C388.29 82.392 387.78 82.2855 387.279 82.1757C385.363 81.7562 383.581 81.2897 382.187 80.8749C382.101 80.8621 382.013 80.8468 381.923 80.8291C381.558 80.7569 381.165 80.6447 380.751 80.4955C377.662 79.3823 373.372 76.2086 370.046 72.208C368.603 70.4722 367.342 68.5807 366.44 66.6343C366.363 66.4671 366.288 66.2995 366.216 66.1316C366.051 65.7483 365.901 65.3632 365.766 64.9771C365.901 64.2244 366.077 63.2389 366.27 62.1457C366.387 61.4878 366.51 60.7908 366.634 60.0821C366.875 58.7061 367.122 57.2858 367.338 56.0209C367.651 54.1831 367.897 52.6733 367.962 52.1039C367.978 51.9716 367.983 51.8901 367.978 51.8671C367.877 51.4446 367.781 51.0174 367.689 50.5805C367.648 50.6011 367.606 50.6208 367.565 50.6399L367.583 50.6028C367.602 50.5622 367.621 50.5219 367.641 50.4818C367.995 49.747 368.383 49.0918 368.8 48.5597C369.091 48.188 369.396 47.8763 369.716 47.6394C369.74 47.6215 369.764 47.6041 369.788 47.5871C370.211 47.2902 370.657 47.1249 371.125 47.1249C372.437 50.9214 376.254 51.9199 377.147 51.4254C378.66 50.5901 379.404 47.7554 379.805 45.634C379.912 45.0667 379.994 44.5505 380.06 44.1371L380.062 44.1249C380.543 44.3106 381.018 44.4984 381.491 44.6907C383.722 45.5991 385.892 46.6106 388.263 47.9931L396.022 54.0387C396.006 53.9931 395.989 53.9477 395.972 53.9024C394.277 51.9583 391.351 49.7885 388.263 47.9931L389.018 46.6974L389.017 46.6969C386.054 44.9687 383.398 43.8057 380.603 42.7257L378.874 42.0576L378.581 43.8882C378.423 44.8765 378.189 46.3342 377.776 47.6654C377.57 48.3294 377.335 48.9088 377.074 49.3565C376.861 49.7214 376.671 49.9304 376.526 50.0428C376.465 50.0419 376.376 50.0354 376.259 50.0161C375.93 49.9616 375.485 49.8223 375.004 49.5636C374.054 49.0515 373.058 48.125 372.542 46.6348L372.193 45.6249H371.125C369.324 45.6249 368.028 46.965 367.18 48.2445C366.932 48.6197 366.697 49.0263 366.476 49.4557C365.995 49.6002 365.71 49.5447 365.609 49.5087L365.606 49.5074C365.528 49.4799 365.44 49.4272 365.337 49.2341C365.219 49.0128 365.115 48.6585 365.066 48.1524C364.975 47.1824 365.111 45.953 365.28 45.0013L365.657 42.8846L363.54 43.2617C361.234 43.6726 359.326 44.2431 357.713 44.8998L357.711 44.9007C355.405 45.8444 353.736 46.9634 352.401 48.0306C351.833 48.4832 350.875 49.5361 349.82 50.743C348.739 51.9799 347.435 53.5219 346.096 55.1039L346.024 55.1899L346.01 55.2062C344.344 57.1757 342.631 59.2004 341.168 60.8505C340.434 61.6778 339.773 62.3989 339.22 62.9651C338.961 63.2296 338.74 63.4457 338.556 63.6166C335.094 59.6834 332.867 54.0855 330.849 48.9605L330.849 48.9589L330.67 48.5071C330.222 47.372 329.784 46.261 329.364 45.2742L328.947 44.2947L327.885 44.365C327.064 44.4193 326.008 44.5826 325.01 44.8129L325.003 44.8144C324.318 44.9755 323.594 45.1819 323.007 45.4356L321.839 45.941L322.148 47.1757C325.273 59.6885 328.26 66.5588 330.654 70.3563C332.92 73.9553 334.601 74.8232 335.533 74.9999C339.079 75.6812 343.249 74.0695 346.915 71.8246L346.916 71.8239C349.086 70.4922 351.191 68.8683 353.055 67.1518L353.039 67.5192L353.038 67.5332C352.888 72.0117 352.922 81.0185 353.39 89.527C353.708 95.2954 354.221 100.919 355.025 104.722L355.165 105.385L355.755 105.718C361.112 108.743 367.122 110.056 372.995 110.308C380.382 110.624 387.654 109.277 393.387 107.47L394.765 107.036L394.383 105.643C393.727 103.249 393.148 100.885 392.64 98.5362C392.173 96.3773 391.769 94.2187 391.428 92.0637C394.881 93.3833 397.655 94.249 399.808 94.6235C401.835 94.9771 403.345 95.0087 404.479 94.8583L404.483 94.8577C405.309 94.7461 405.907 94.5734 406.347 94.3589C406.57 94.2504 406.77 94.1223 406.94 93.9706C407.025 93.895 407.111 93.807 407.188 93.7052C407.241 93.6372 407.374 93.456 407.453 93.1929L407.459 93.173L407.464 93.153C408.046 90.9995 408.06 88.4584 407.744 85.7722C407.426 83.0703 406.762 80.1237 405.911 77.1135C404.214 71.1134 401.734 64.714 399.634 59.2948ZM367.565 50.6399C367.084 50.8633 366.643 50.9847 366.251 51.0297C366.075 51.0498 365.91 51.0546 365.754 51.0464C365.512 51.0335 365.295 50.989 365.105 50.9214C364.116 50.5709 363.693 49.5293 363.573 48.2956C363.513 47.6627 363.533 46.9668 363.593 46.3032C363.643 45.7386 363.722 45.1975 363.803 44.7385C363.255 44.8361 362.732 44.943 362.232 45.0578C360.716 45.4057 359.413 45.827 358.279 46.289C356.132 47.1675 354.585 48.2043 353.337 49.2028C352.469 49.8932 349.944 52.8785 347.236 56.0792L347.147 56.1842C343.82 60.1181 340.244 64.3453 338.902 65.2793L338.388 65.6394L337.956 65.1833C333.974 60.983 331.538 54.8049 329.454 49.5101L329.275 49.0576C328.826 47.9194 328.395 46.8288 327.984 45.8618C327.258 45.9098 326.283 46.0586 325.347 46.2746C324.693 46.4282 324.069 46.6106 323.603 46.8122C326.711 59.2549 329.651 65.9514 331.923 69.5565C334.099 73.0128 335.482 73.464 335.813 73.5264C338.782 74.0977 342.534 72.7488 346.131 70.5454C348.674 68.9855 351.121 67.0075 353.162 64.9716C353.306 64.8279 353.448 64.6839 353.588 64.5398C354.687 63.4077 355.653 62.2656 356.435 61.175C356.444 61.1621 356.453 61.1494 356.463 61.1369C356.476 61.1191 356.49 61.1018 356.503 61.0849L356.504 61.0835C357.362 60.0133 358.483 60.8117 357.689 61.9287L357.619 62.025L357.611 62.037C356.789 63.1759 355.779 64.3712 354.634 65.553L354.585 66.465L354.537 67.5835C354.389 72.0143 354.422 80.9766 354.888 89.4445C355.205 95.205 355.714 100.73 356.492 104.412C361.594 107.292 367.358 108.564 373.06 108.809C380.236 109.117 387.331 107.806 392.936 106.039C392.274 103.62 391.688 101.23 391.174 98.8533C390.639 96.3783 390.185 93.9033 389.812 91.433L389.805 91.3839C388.423 90.8349 386.902 90.1439 385.276 89.4051C383.139 88.4345 380.821 87.3815 378.399 86.4595L378.334 86.4347C377.794 86.2299 377.187 85.7604 376.538 85.0962C374.095 82.5967 371.06 77.339 368.791 73.0443C366.871 69.4098 365.5 66.465 365.5 66.465C365.5 66.465 365.603 65.8937 365.766 64.9771C365.458 64.0912 365.232 63.1999 365.105 62.3124C365.026 61.7615 365.043 60.9074 365.147 59.8789C365.269 58.6653 365.514 57.2089 365.867 55.721C366.128 54.6217 366.449 53.5051 366.823 52.4568C366.864 52.3429 366.905 52.2299 366.947 52.1178L366.949 52.1126C367.142 51.599 367.347 51.1046 367.565 50.6399ZM377.622 84.0593C377.667 84.1054 377.711 84.1496 377.754 84.192L378.107 83.9299C378.574 83.5829 379.006 83.1572 379.396 82.6698C379.612 82.4006 379.812 82.1155 379.997 81.8153C378.957 81.4156 377.86 80.8405 376.769 80.1546C375.468 79.3369 374.115 78.3236 372.794 77.1651C373.769 78.8251 374.773 80.4159 375.735 81.7507C376.413 82.6918 377.05 83.476 377.622 84.0593ZM394.712 83.4168C393.385 83.2535 391.877 83.0173 390.327 82.7345L390.301 82.3833C390.121 79.9342 390.015 77.4616 389.99 74.9598C390.569 76.1218 391.238 77.3852 391.9 78.5921L391.901 78.5935C392.628 79.9171 393.362 81.1988 393.99 82.2455C394.243 82.6659 394.487 83.0633 394.712 83.4168Z" fill="#333333"/>
<path fill-rule="evenodd" clip-rule="evenodd" d="M395.972 53.9024C396.625 55.6785 397.399 57.6707 398.22 59.7972C402.438 70.6797 408.063 85.1913 406.016 92.7616C406.002 92.8096 405.738 93.1744 404.282 93.3712C403.341 93.496 401.991 93.4816 400.065 93.1456C397.994 92.7856 395.228 91.9215 391.654 90.5438C388.205 89.2141 384.021 87.4139 379.002 85.1337C379.583 84.7017 380.106 84.1832 380.567 83.6072C380.913 83.1752 381.221 82.7143 381.495 82.2295C383.627 82.8823 386.769 83.6072 389.833 84.1688C392.586 84.6777 395.285 85.0569 397.149 85.1433C398.302 85.1961 398.46 83.7416 397.163 83.6792C397.01 83.6696 396.856 83.6648 396.693 83.6504C396.112 82.9303 394.656 80.4917 393.215 77.8707C391.846 75.3745 390.506 72.7391 389.968 71.275C390.016 68.9852 390.131 66.6666 390.309 64.3144C390.395 63.1863 388.945 62.9511 388.853 64.18C388.613 67.3386 388.488 70.4685 388.484 73.584C388.479 76.5938 388.589 79.5605 388.805 82.4935C386.322 82.0039 383.945 81.3981 382.187 80.8749C377.147 80.1249 366.353 71.0348 365.105 62.3124C364.672 59.2873 367.114 47.1249 371.125 47.1249C372.437 50.9213 376.254 51.9198 377.147 51.4254C379.069 50.3645 379.75 46.0786 380.062 44.1249C382.812 45.1874 385.39 46.3177 388.263 47.9931C391.351 49.7884 394.277 51.9582 395.972 53.9024ZM365.5 66.465C365.5 66.465 368.064 52.2222 367.978 51.867C367.877 51.4446 367.781 51.0173 367.689 50.5805C366.599 51.1181 365.71 51.1373 365.105 50.9213C364.116 50.5709 363.693 49.5292 363.573 48.2955C363.462 47.1242 363.626 45.7369 363.803 44.7384C361.594 45.132 359.788 45.6745 358.279 46.2889C356.132 47.1674 354.585 48.2043 353.337 49.2028C352.462 49.8988 349.902 52.9279 347.169 56.1585C343.835 60.0997 340.247 64.3432 338.902 65.2793L338.388 65.6393L337.956 65.1833C333.974 60.9829 331.538 54.8048 329.454 49.51C328.94 48.2091 328.45 46.9562 327.984 45.8617C327.258 45.9097 326.283 46.0585 325.347 46.2745C324.693 46.4281 324.069 46.6106 323.603 46.8122C326.711 59.2548 329.651 65.9513 331.923 69.5564C334.099 73.0127 335.482 73.464 335.813 73.5264C338.782 74.0976 342.534 72.7487 346.131 70.5453C350.262 68.0107 354.144 64.372 356.435 61.1749C357.299 59.97 358.505 60.7813 357.688 61.9286C356.853 63.0999 355.815 64.3336 354.633 65.5529L354.585 66.465L354.537 67.5835C354.388 72.0142 354.422 80.9766 354.888 89.4445C355.205 95.205 355.714 100.73 356.492 104.412C361.594 107.292 367.358 108.564 373.06 108.809C380.236 109.116 387.331 107.806 392.936 106.039C392.274 103.62 391.688 101.229 391.174 98.8532C390.636 96.3618 390.179 93.8705 389.805 91.3839C386.591 90.1069 382.625 88.0624 378.334 86.4346C374.043 84.8069 365.5 66.465 365.5 66.465Z" fill="#EFEFEF"/>
<path fill-rule="evenodd" clip-rule="evenodd" d="M388.854 64.1801C388.613 67.3387 388.489 70.4686 388.484 73.584C388.479 76.9299 388.613 80.2182 388.882 83.468L390.343 83.348C390.074 80.0982 389.939 76.8483 389.944 73.584C389.949 70.5502 390.069 67.4683 390.314 64.3193C390.396 63.1912 388.945 62.9512 388.854 64.1801ZM389.757 91.0431L391.202 90.8318C391.587 93.4049 392.053 95.9779 392.61 98.5605C393.167 101.153 393.811 103.745 394.536 106.337L394.723 107.009L394.061 107.225C388.22 109.145 380.668 110.605 373.002 110.278C366.974 110.019 360.878 108.651 355.484 105.526L355.21 105.367L355.138 105.051C354.297 101.282 353.755 95.5218 353.428 89.5261C352.962 81.0246 352.924 72.0143 353.077 67.5451L353.125 66.4026L353.188 65.2025L354.648 65.2938L354.586 66.4698L354.538 67.5883C354.389 72.0191 354.422 80.9814 354.888 89.4493C355.205 95.2098 355.714 100.735 356.493 104.417C361.594 107.297 367.358 108.569 373.06 108.814C380.236 109.121 387.331 107.811 392.937 106.044C392.274 103.625 391.688 101.234 391.174 98.8581C390.621 96.2515 390.146 93.6497 389.757 91.0431Z" fill="#333333"/>
<path fill-rule="evenodd" clip-rule="evenodd" d="M402.971 234.57C401.828 235.861 400.377 237.249 398.888 238.67C396.477 240.974 393.969 243.369 392.716 245.419C391.774 246.96 391.601 248.294 392.937 249.173C393.748 249.274 396.65 248.05 400.012 246.35C403.773 244.449 408.01 241.953 410.609 239.98C410.628 239.961 410.681 239.923 410.7 239.913C410.753 239.875 410.839 239.817 410.94 239.731C411.478 239.265 412.328 238.002 409.696 234.945L410.806 233.994C414.302 238.06 412.789 240.062 411.886 240.839C411.757 240.95 411.627 241.041 411.54 241.103L411.473 241.151C408.793 243.182 404.484 245.726 400.67 247.651C396.899 249.557 393.513 250.872 392.447 250.56L392.355 250.536L392.274 250.483C389.901 249.039 390.05 246.984 391.472 244.661C392.826 242.448 395.401 239.985 397.884 237.614C399.354 236.207 400.79 234.839 401.881 233.605L402.971 234.57Z" fill="#333333"/>
<path fill-rule="evenodd" clip-rule="evenodd" d="M362.026 233.615C360.552 234.22 358.755 234.839 356.92 235.468C353.231 236.73 349.384 238.05 347.174 239.663C345.214 241.099 344.455 242.74 345.906 244.713L345.963 244.79L346.04 244.853C346.919 245.558 351.276 245.673 356.19 245.371C360.945 245.078 366.306 244.435 369.476 243.595L369.553 243.576C370.288 243.412 373.252 242.736 371.835 237.522C371.782 237.33 371.398 236.486 371.042 235.689C370.749 235.041 370.471 234.421 370.437 234.325L369.049 234.781C369.097 234.93 369.395 235.593 369.712 236.289C370.048 237.038 370.408 237.83 370.428 237.902C371.446 241.656 369.673 242.054 369.236 242.15L369.131 242.174C366.052 242.99 360.792 243.619 356.108 243.907C351.656 244.181 347.798 244.176 347.025 243.749C346.309 242.678 346.833 241.718 348.048 240.83C350.07 239.351 353.812 238.07 357.405 236.836C359.231 236.212 361.022 235.597 362.593 234.949L362.026 233.615Z" fill="#333333"/>
<path fill-rule="evenodd" clip-rule="evenodd" d="M398.888 238.67C396.477 240.974 393.969 243.369 392.716 245.419C391.774 246.96 391.601 248.294 392.937 249.173C393.748 249.274 396.65 248.05 400.012 246.35C403.773 244.449 408.01 241.953 410.609 239.98C410.628 239.961 410.681 239.923 410.7 239.913C410.753 239.875 410.839 239.817 410.94 239.731C411.233 239.481 411.612 239.001 411.488 238.132C411.396 237.47 411.007 236.577 410.061 235.386C409.076 235.813 407.832 235.996 406.588 235.962C405.137 235.924 403.648 235.597 402.563 235.026C401.66 236.01 400.598 237.037 399.498 238.094C399.292 238.286 399.09 238.478 398.888 238.67Z" fill="#FEFEFE"/>
<path fill-rule="evenodd" clip-rule="evenodd" d="M370.418 237.906C370.442 237.993 370.466 238.079 370.485 238.166C371.355 241.679 369.654 242.063 369.227 242.159L369.121 242.183C366.042 243 360.782 243.628 356.099 243.916C351.646 244.19 347.789 244.185 347.015 243.758C346.3 242.688 346.823 241.727 348.038 240.839C349.268 239.937 351.142 239.111 353.226 238.324C354.566 237.82 355.988 237.33 357.396 236.85C359.029 236.289 360.633 235.741 362.079 235.165C362.977 235.756 364.366 236.365 365.96 236.471C367.065 236.543 368.271 236.375 369.476 235.794C369.548 235.953 369.625 236.125 369.702 236.293C370.038 237.042 370.394 237.834 370.418 237.906Z" fill="#FEFEFE"/>
<path fill-rule="evenodd" clip-rule="evenodd" d="M391.159 108.099C394.546 119.173 398.331 139.177 401.645 161.796C406.425 185.092 409.504 211.331 409.46 233.562C408.581 234.047 407.299 234.33 406.021 234.359C404.753 234.388 403.523 234.176 402.74 233.682C401.64 229.496 397.207 211.519 391.25 190.666C386.226 173.067 379.621 153.952 376.153 140.545L374.765 135.48C374.679 148.072 373.833 161.297 373.286 169.875C373.122 172.458 372.983 174.618 372.896 176.264C372.892 176.375 372.896 176.797 372.906 177.503C372.988 183.614 373.353 211.629 369.015 234.388C367.997 234.92 366.974 235.074 366.042 235.016C364.774 234.935 363.664 234.46 362.939 233.989C362.857 227.408 362.636 217.951 362.017 207.87C361.382 197.564 360.321 186.571 358.553 177.253C358.409 176.495 355.748 161.239 355.594 140.602C355.517 130.291 356.07 118.636 357.876 106.774C362.646 109.016 367.848 110.048 372.997 110.273C379.453 110.552 385.823 109.563 391.159 108.099Z" fill="#404040"/>
<path fill-rule="evenodd" clip-rule="evenodd" d="M357.791 106.615L357.922 106.676C362.676 108.911 367.864 109.94 373.002 110.166C379.444 110.443 385.803 109.457 391.131 107.995L391.232 107.967L391.263 108.067C394.652 119.15 398.437 139.159 401.752 161.777C406.532 185.079 409.612 211.324 409.569 233.562L409.568 233.626L409.513 233.657C408.614 234.152 407.313 234.438 406.024 234.467C404.747 234.496 403.492 234.284 402.683 233.773L402.647 233.751L402.636 233.709C402.432 232.931 402.112 231.677 401.689 230.018C399.836 222.743 395.996 207.673 391.147 190.695C388.882 182.764 386.297 174.525 383.822 166.637C383.551 165.776 383.282 164.918 383.015 164.066C380.303 155.412 377.784 147.279 376.049 140.573C376.049 140.572 376.049 140.573 376.049 140.573L374.867 136.26C374.752 148.598 373.933 161.436 373.396 169.838L373.393 169.882C373.393 169.882 373.393 169.882 373.393 169.882M373.004 176.27C373 176.377 373.004 176.794 373.014 177.502C373.096 183.612 373.461 211.637 369.121 234.408L369.112 234.459L369.065 234.483C368.027 235.026 366.984 235.183 366.035 235.124C364.745 235.041 363.618 234.558 362.88 234.08L362.832 234.048L362.831 233.991C362.749 227.41 362.528 217.955 361.909 207.877C361.275 197.572 360.214 186.585 358.447 177.274C358.302 176.51 355.64 161.248 355.486 140.603C355.41 130.288 355.962 118.626 357.769 106.758L357.791 106.615M373.004 176.27C373.081 174.82 373.198 172.973 373.336 170.788C373.355 170.492 373.374 170.19 373.393 169.882M357.961 106.933C356.173 118.739 355.626 130.336 355.702 140.602C355.856 161.231 358.516 176.48 358.659 177.233C360.428 186.557 361.49 197.555 362.124 207.864C362.742 217.917 362.964 227.35 363.046 233.93C363.759 234.382 364.83 234.83 366.049 234.909C366.95 234.964 367.936 234.819 368.919 234.316C373.244 211.579 372.88 183.612 372.798 177.504C372.789 176.802 372.784 176.374 372.789 176.26C372.865 174.809 372.982 172.959 373.12 170.775C373.139 170.479 373.158 170.177 373.178 169.868L373.18 169.826C373.728 161.247 374.571 148.047 374.657 135.48L374.662 134.697L376.258 140.518C377.991 147.218 380.508 155.346 383.221 164.001C383.489 164.854 383.758 165.711 384.028 166.573C386.503 174.46 389.089 182.702 391.354 190.636C396.205 207.617 400.046 222.693 401.899 229.966C402.314 231.595 402.629 232.833 402.834 233.613C403.592 234.075 404.779 234.279 406.019 234.251C407.258 234.223 408.495 233.953 409.353 233.498C409.39 211.289 406.313 185.086 401.54 161.818L401.538 161.812C398.234 139.261 394.463 119.317 391.087 108.231C385.762 109.682 379.421 110.659 372.993 110.381C367.88 110.157 362.711 109.14 357.961 106.933Z" fill="#404040"/>
<path fill-rule="evenodd" clip-rule="evenodd" d="M374.77 135.336C374.688 147.971 373.838 161.263 373.29 169.875C373.127 172.458 372.988 174.618 372.901 176.265C372.897 176.375 372.901 176.797 372.911 177.503C372.993 183.614 373.358 211.629 369.02 234.388C368.002 234.921 366.979 235.074 366.047 235.017C364.779 234.935 363.669 234.46 362.944 233.989C362.862 227.408 362.641 217.951 362.021 207.87C361.387 197.564 360.326 186.571 358.558 177.253C358.414 176.495 355.753 161.239 355.599 140.602C355.522 130.003 356.104 117.993 358.035 105.795L356.594 105.569C354.653 117.844 354.067 129.941 354.144 140.602C354.297 161.378 356.978 176.749 357.122 177.513C358.88 186.763 359.932 197.693 360.566 207.947C361.2 218.234 361.416 227.821 361.493 234.378L361.498 234.738L361.786 234.954C362.656 235.602 364.178 236.351 365.96 236.466C367.243 236.548 368.655 236.308 370.053 235.482L370.336 235.314L370.399 234.993C374.828 212.042 374.453 183.648 374.376 177.479C374.366 176.826 374.362 176.428 374.366 176.332C374.448 174.776 374.587 172.583 374.756 169.962C375.236 162.463 375.942 151.427 376.168 140.338L374.77 135.336Z" fill="#333333"/>
<path fill-rule="evenodd" clip-rule="evenodd" d="M366.364 121.367C367.296 122.202 368.348 122.947 369.515 123.494C370.721 124.055 372.056 124.415 373.507 124.459L374.097 124.478L374.165 125.059C376.057 141.284 381.182 157.365 387.235 176.341C392.403 192.552 398.244 210.875 403.331 233.212C404.234 233.62 405.214 233.72 406.17 233.653C407.083 233.586 407.981 233.36 408.769 233.087C408.601 226.467 408.221 216.453 407.366 205.816C406.761 198.265 405.92 190.421 404.748 183.302C404.585 182.318 404.427 181.382 404.263 180.489C404.1 179.586 403.927 178.698 403.754 177.829C403.615 177.148 403.432 176.289 403.25 175.453C402.769 173.231 402.327 171.195 402.078 168.661C401.91 166.947 401.722 165.18 401.52 163.38C401.314 161.532 401.098 159.761 400.882 158.057C399.681 148.71 398.144 139.638 396.41 131.299C394.608 122.649 392.591 114.805 390.511 108.296L391.803 107.888C393.897 114.455 395.929 122.342 397.735 131.026C399.479 139.378 401.021 148.489 402.227 157.889C402.462 159.722 402.678 161.508 402.875 163.231C403.067 164.945 403.254 166.712 403.432 168.531C403.668 170.951 404.105 172.967 404.58 175.16C404.729 175.852 404.883 176.567 405.085 177.561C405.262 178.439 405.435 179.337 405.599 180.244C405.772 181.209 405.94 182.15 406.089 183.076C407.265 190.258 408.116 198.135 408.721 205.705C409.595 216.583 410.633 227.326 410.796 233.984L410.806 234.465L410.354 234.637C408.173 235.463 403.586 235.977 401.938 233.908L401.871 233.6C396.775 211.159 391.121 193.004 385.938 176.745C379.934 157.908 374.837 141.918 372.877 125.774C371.451 125.659 370.139 125.275 368.934 124.713C367.608 124.094 366.421 123.254 365.389 122.313C364.471 121.478 365.446 120.542 366.364 121.367Z" fill="#333333"/>
<path fill-rule="evenodd" clip-rule="evenodd" d="M371.869 45.425C373.675 45.4682 375.702 44.9737 377.484 44.0472C377.681 43.9464 377.873 43.836 378.065 43.7208L377.642 35.2241C377.037 35.9394 376.442 36.5346 375.865 37.0291C372.123 40.2453 368.982 39.3573 368.77 39.2757C368.655 39.2324 368.54 39.1892 368.429 39.1412L367.8 43.7352C367.8 43.7352 367.8 43.74 367.805 43.74C368.655 44.8537 370.154 45.3865 371.869 45.425Z" fill="#FEFEFE"/>
<path fill-rule="evenodd" clip-rule="evenodd" d="M370.178 21.6007C371.662 18.0916 375.601 20.0934 375.615 21.9703C375.428 21.7639 374.602 21.2694 374.131 21.2118C373.968 23.3 371.47 23.7369 370.797 21.5095C370.528 21.4951 370.375 21.4807 370.178 21.6007ZM369.28 37.9076C369.433 37.9652 371.792 38.6085 374.919 35.9203C376.552 34.5185 378.353 32.224 380.107 28.5132C380.078 28.5228 380.044 28.5324 380.015 28.5421C379.554 28.6669 379.175 27.8316 379.938 27.5436C380.14 27.4668 380.342 27.3612 380.52 27.2363C380.899 26.9771 381.202 26.6555 381.384 26.3675C382.105 25.2394 382.292 23.9865 382.042 23.0744C381.946 22.724 381.783 22.4263 381.567 22.2247C381.365 22.0327 381.101 21.9175 380.784 21.9031C380.15 21.8743 379.309 22.2199 378.291 23.1272C377.724 23.6312 377.22 22.9832 377.494 22.5608L377.176 22.1143C377.239 20.151 377.176 18.538 377.018 17.2179C376.85 15.8402 376.576 14.8033 376.216 14.0449C375.985 13.5552 375.63 13.0752 375.197 12.6863C374.804 12.3263 374.352 12.0479 373.881 11.9039C373.324 11.7311 372.762 11.7743 372.21 11.9423C371.6 12.1295 370.985 12.4703 370.375 12.8736C370.067 13.0752 369.765 13.2912 369.472 13.5024C367.944 14.5969 366.729 15.4658 364.313 14.8225C363.986 14.7361 363.679 14.5729 363.415 14.3473C363.386 14.3233 363.357 14.2993 363.333 14.2753C362.896 14.9377 362.521 15.701 362.204 16.5411C361.133 19.4213 360.821 23.1512 361.416 26.7371C362.007 30.2942 363.487 33.6881 365.994 35.9299C366.94 36.7651 368.031 37.4468 369.28 37.9076ZM380.044 23.6072C379.439 23.7273 379.372 23.2232 380.006 23.1176C380.198 23.0888 380.371 23.0888 380.525 23.1272C380.779 23.1848 380.971 23.324 381.101 23.5256C381.221 23.7129 381.283 23.9529 381.283 24.2217C381.283 24.6681 381.111 25.225 380.75 25.7818C380.616 25.993 380.39 26.2331 380.121 26.4155C379.977 26.5163 379.818 26.5979 379.645 26.6555C379.232 26.7995 379.064 26.3819 379.578 26.1611C379.669 26.1226 379.761 26.0698 379.847 26.0122C380.063 25.8682 380.236 25.681 380.342 25.5178C380.649 25.0378 380.798 24.5817 380.798 24.2217C380.798 24.0441 380.765 23.8953 380.693 23.7897C380.63 23.6936 380.539 23.6312 380.419 23.6024C380.313 23.5784 380.188 23.5784 380.044 23.6072ZM361.685 21.4519C363.035 17.89 367.051 19.7429 367.137 21.6199C366.94 21.4231 366.1 20.9574 365.624 20.919C365.542 23.012 363.059 23.54 362.305 21.3415C362.036 21.3319 361.877 21.3271 361.685 21.4519ZM367.997 30.3422C370.788 32.5936 371.801 28.5997 372.291 27.9852C372.152 32.944 368.348 32.5984 367.997 30.3422ZM367.267 26.6027C367.594 26.7803 368.117 26.9627 369.275 26.9867C366.887 27.9324 366.047 26.8235 366.08 25.7914C366.119 24.3993 367.425 24.6777 367.161 22.4215C368.295 24.0057 365.735 25.7722 367.267 26.6027Z" fill="#FEFEFE"/>
<path fill-rule="evenodd" clip-rule="evenodd" d="M352.672 34.5015C358.228 34.4211 363.682 37.1904 366.801 42.2647C370.514 48.3112 369.807 55.8264 365.589 61.0405C370.257 68.6792 374.791 76.4009 379.597 83.9563C381.79 87.3956 381.24 90.1935 378.231 92.0406C376.647 93.0478 373.108 94.1635 370.589 90.0433C365.838 82.2716 361.082 74.5002 356.332 66.7285C349.769 68.1356 342.747 65.3689 339.034 59.3224C335.915 54.2422 335.917 48.1297 338.496 43.2064C339.819 45.3647 341.148 47.5228 342.471 49.6811C344.318 52.684 348.286 53.6347 351.288 51.7879C352.37 51.1232 353.452 50.4585 354.534 49.7939C357.537 47.947 358.488 43.9794 356.641 40.9706C355.324 38.8179 353.995 36.6599 352.672 34.5015Z" fill="#FF6F3D"/>
<path fill-rule="evenodd" clip-rule="evenodd" d="M365.589 61.0405C369.807 55.8264 370.514 48.3112 366.801 42.2647C364.021 37.7419 359.386 35.0502 354.477 34.5756C353.878 34.5177 353.276 34.4928 352.672 34.5015C352.981 35.0064 353.291 35.5113 353.601 36.0161C353.833 36.3943 354.066 36.7726 354.298 37.1507C355.081 38.4252 355.863 39.6988 356.641 40.9706C358.488 43.9794 357.537 47.947 354.534 49.7939L351.288 51.7879C348.286 53.6347 344.318 52.684 342.471 49.6811C341.809 48.602 341.146 47.5229 340.483 46.4438C340.131 45.8702 339.778 45.2966 339.426 44.723C339.116 44.2175 338.806 43.7119 338.496 43.2064C338.215 43.7422 337.965 44.2921 337.746 44.8532C335.954 49.4479 336.254 54.795 339.034 59.3224C342.747 65.3689 349.769 68.1356 356.332 66.7285C358.706 70.6137 361.083 74.4989 363.459 78.384C365.836 82.2704 368.213 86.1569 370.589 90.0433C373.108 94.1635 376.647 93.0478 378.231 92.0406C381.24 90.1935 381.79 87.3956 379.597 83.9563C376.376 78.8917 373.276 73.7525 370.177 68.6137C368.652 66.0862 367.128 63.5589 365.589 61.0405ZM371.869 89.261C372.905 90.9562 374.01 91.4009 374.878 91.4694C375.849 91.5459 376.807 91.1689 377.426 90.7748L377.436 90.7685L377.446 90.7623C378.695 89.9955 379.242 89.16 379.387 88.3354C379.539 87.4753 379.312 86.2991 378.333 84.7626L378.332 84.7614C375.101 79.6822 371.985 74.5159 368.88 69.3679C367.358 66.8442 365.838 64.325 364.309 61.8226L363.758 60.9198L364.423 60.0972C368.253 55.3617 368.893 48.5379 365.523 43.0501C363.22 39.3019 359.512 36.9378 355.491 36.2266C355.519 36.2722 355.547 36.3178 355.575 36.3634C356.358 37.6389 357.142 38.9149 357.92 40.1867C360.2 43.9015 359.028 48.7914 355.32 51.0715L352.074 53.0656C352.074 53.0657 352.074 53.0654 352.074 53.0656C348.364 55.3469 343.473 54.1735 341.193 50.4669L341.192 50.4651C340.531 49.3867 339.868 48.3083 339.205 47.2291L339.204 47.2274C339.057 46.9868 338.909 46.7462 338.761 46.5055C337.579 50.4152 338.009 54.7868 340.312 58.5374C343.682 64.025 350.057 66.5399 356.017 65.2618L357.057 65.0389L357.612 65.9462C359.987 69.8318 362.363 73.7174 364.74 77.6032L364.749 77.6182C367.123 81.499 369.496 85.3799 371.869 89.261Z" fill="#333333"/>
<path d="M381.76 82.3346C381.935 85.2392 375.87 89.1426 372.166 89.366C368.462 89.5894 366.685 84.8643 366.51 81.9597C366.334 79.0551 371.306 77.9331 375.01 77.7097C378.713 77.4864 381.646 80.4439 381.76 82.3346Z" fill="white"/>
<path fill-rule="evenodd" clip-rule="evenodd" d="M379.669 83.7094C380.174 83.0562 380.274 82.6256 380.262 82.4249C380.242 82.0862 379.85 81.2278 378.806 80.4103C377.831 79.6467 376.524 79.1211 375.1 79.207C373.324 79.3141 371.334 79.6349 369.861 80.2226C368.252 80.8638 367.984 81.4884 368.007 81.8694C368.082 83.1172 368.513 84.7779 369.294 86.0521C370.071 87.3213 370.999 87.9337 372.076 87.8687C373.554 87.7795 375.731 86.902 377.558 85.6259C378.454 85.0005 379.186 84.3331 379.669 83.7094ZM372.166 89.366C375.87 89.1426 381.935 85.2392 381.76 82.3346C381.646 80.4439 378.713 77.4864 375.01 77.7097C371.306 77.9331 366.334 79.0551 366.51 81.9597C366.685 84.8643 368.462 89.5894 372.166 89.366Z" fill="#333333"/>
<defs>
<clipPath id="clip0_1204_209349">
<rect width="20" height="20" fill="white" transform="translate(39 12.6869)"/>
</clipPath>
</defs>
</svg>
