<svg width="448" height="254" viewBox="0 0 448 254" fill="none" xmlns="http://www.w3.org/2000/svg">
<g clip-path="url(#clip0_1208_209703)">
<path d="M199.628 253.553C309.879 253.553 399.256 251.414 399.256 248.776C399.256 246.138 309.879 244 199.628 244C89.3764 244 0 246.138 0 248.776C0 251.414 89.3764 253.553 199.628 253.553Z" fill="#EFEFEF"/>
<path d="M321.495 7.49621V179.5H20.5V7.49621C20.5 3.59413 23.5998 0.5 27.5052 0.5H314.495C318.315 0.5 321.358 3.45413 321.495 7.22998V7.49621Z" fill="#AAAAAA" stroke="#333333"/>
<path d="M26.5 173.5V6.5H315.5V173.5H26.5Z" fill="#0D1117" stroke="#333333"/>
<path d="M315 6.48047H27V46.4805H315V6.48047Z" fill="#25292E"/>
<path d="M302 111.867H108V132.48H302V111.867Z" fill="#25292E"/>
<path d="M108.5 152.594V132.98H301.5V152.594H108.5Z" stroke="#25292E"/>
<path d="M108.5 173.207V153.594H301.5V173.207H108.5Z" stroke="#25292E"/>
<path d="M208 239.5H208.561L208.497 238.943L204.831 206.943L204.78 206.5H204.334H136.4H135.964L135.905 206.932L131.505 238.932L131.427 239.5H132H208Z" fill="#CCCCCC" stroke="#333333"/>
<path d="M20.5 199.442V179.5H321.5V199.442C321.5 203.382 318.396 206.5 314.495 206.5H27.5054C23.5991 206.5 20.5 203.383 20.5 199.442Z" fill="#E2E2E2" stroke="#333333"/>
<path d="M121.333 242.5L131.106 239.5H208.894L218.667 242.5H121.333Z" fill="#E2E2E2" stroke="#333333"/>
<path d="M221.281 243.5L220.909 244.5H118.986L118.677 243.5H221.281Z" fill="#AAAAAA" stroke="#333333"/>
<path d="M176.5 192.497C176.5 195.26 174.259 197.5 171.5 197.5C168.741 197.5 166.5 195.26 166.5 192.497C166.5 189.74 168.74 187.5 171.5 187.5C174.26 187.5 176.5 189.735 176.5 192.497Z" fill="#AAAAAA" stroke="#333333"/>
<path d="M47.973 64.3964C47.973 65.586 47.7475 66.5981 47.2965 67.4326C46.8491 68.2671 46.2383 68.9046 45.4641 69.3449C44.6935 69.7817 43.8271 70.0001 42.8647 70.0001C41.8952 70.0001 41.0252 69.7799 40.2546 69.3396C39.484 68.8992 38.875 68.2618 38.4276 67.4273C37.9801 66.5928 37.7564 65.5825 37.7564 64.3964C37.7564 63.2068 37.9801 62.1947 38.4276 61.3602C38.875 60.5257 39.484 59.89 40.2546 59.4532C41.0252 59.0129 41.8952 58.7927 42.8647 58.7927C43.8271 58.7927 44.6935 59.0129 45.4641 59.4532C46.2383 59.89 46.8491 60.5257 47.2965 61.3602C47.7475 62.1947 47.973 63.2068 47.973 64.3964ZM45.6346 64.3964C45.6346 63.6258 45.5192 62.976 45.2884 62.4468C45.0611 61.9177 44.7397 61.5164 44.3242 61.243C43.9087 60.9696 43.4222 60.8328 42.8647 60.8328C42.3072 60.8328 41.8207 60.9696 41.4052 61.243C40.9897 61.5164 40.6665 61.9177 40.4357 62.4468C40.2085 62.976 40.0948 63.6258 40.0948 64.3964C40.0948 65.167 40.2085 65.8169 40.4357 66.346C40.6665 66.8751 40.9897 67.2764 41.4052 67.5498C41.8207 67.8233 42.3072 67.96 42.8647 67.96C43.4222 67.96 43.9087 67.8233 44.3242 67.5498C44.7397 67.2764 45.0611 66.8751 45.2884 66.346C45.5192 65.8169 45.6346 65.167 45.6346 64.3964ZM58.8062 58.9419V69.851H56.814L52.0679 62.9848H51.988V69.851H49.6816V58.9419H51.7057L56.4145 65.8027H56.5104V58.9419H58.8062ZM60.7118 69.851V58.9419H63.0183V67.9493H67.6951V69.851H60.7118ZM67.1918 58.9419H69.7752L72.2628 63.64H72.3693L74.8569 58.9419H77.4403L73.4613 65.9944V69.851H71.1708V65.9944L67.1918 58.9419ZM88.0658 64.3964C88.0658 65.586 87.8403 66.5981 87.3893 67.4326C86.9419 68.2671 86.3311 68.9046 85.5569 69.3449C84.7863 69.7817 83.9198 70.0001 82.9575 70.0001C81.988 70.0001 81.118 69.7799 80.3474 69.3396C79.5768 68.8992 78.9678 68.2618 78.5203 67.4273C78.0729 66.5928 77.8492 65.5825 77.8492 64.3964C77.8492 63.2068 78.0729 62.1947 78.5203 61.3602C78.9678 60.5257 79.5768 59.89 80.3474 59.4532C81.118 59.0129 81.988 58.7927 82.9575 58.7927C83.9198 58.7927 84.7863 59.0129 85.5569 59.4532C86.3311 59.89 86.9419 60.5257 87.3893 61.3602C87.8403 62.1947 88.0658 63.2068 88.0658 64.3964ZM85.7274 64.3964C85.7274 63.6258 85.6119 62.976 85.3811 62.4468C85.1539 61.9177 84.8325 61.5164 84.417 61.243C84.0015 60.9696 83.515 60.8328 82.9575 60.8328C82.3999 60.8328 81.9134 60.9696 81.498 61.243C81.0825 61.5164 80.7593 61.9177 80.5285 62.4468C80.3012 62.976 80.1876 63.6258 80.1876 64.3964C80.1876 65.167 80.3012 65.8169 80.5285 66.346C80.7593 66.8751 81.0825 67.2764 81.498 67.5498C81.9134 67.8233 82.3999 67.96 82.9575 67.96C83.515 67.96 84.0015 67.8233 84.417 67.5498C84.8325 67.2764 85.1539 66.8751 85.3811 66.346C85.6119 65.8169 85.7274 65.167 85.7274 64.3964ZM89.7743 69.851V58.9419H96.9973V60.8435H92.0808V63.4429H96.5179V65.3446H92.0808V69.851H89.7743ZM98.5487 69.851V58.9419H105.772V60.8435H100.855V63.4429H105.292V65.3446H100.855V69.851H98.5487ZM109.63 58.9419V69.851H107.323V58.9419H109.63ZM121.153 62.7611H118.82C118.777 62.4593 118.69 62.1912 118.559 61.9568C118.427 61.7188 118.258 61.5164 118.052 61.3495C117.847 61.1826 117.609 61.0548 117.339 60.966C117.072 60.8772 116.783 60.8328 116.47 60.8328C115.906 60.8328 115.414 60.9731 114.995 61.2537C114.576 61.5306 114.251 61.9355 114.02 62.4681C113.789 62.9973 113.674 63.64 113.674 64.3964C113.674 65.1741 113.789 65.8275 114.02 66.3566C114.255 66.8858 114.581 67.2853 115 67.5551C115.419 67.825 115.904 67.96 116.454 67.96C116.763 67.96 117.049 67.9191 117.312 67.8375C117.578 67.7558 117.815 67.6368 118.021 67.4806C118.226 67.3208 118.397 67.1272 118.532 66.9C118.67 66.6727 118.766 66.4135 118.82 66.1223L121.153 66.1329C121.092 66.6336 120.941 67.1166 120.7 67.5818C120.462 68.0434 120.141 68.4571 119.736 68.8229C119.334 69.1851 118.855 69.4728 118.297 69.6858C117.744 69.8953 117.117 70.0001 116.417 70.0001C115.444 70.0001 114.574 69.7799 113.807 69.3396C113.044 68.8992 112.44 68.2618 111.996 67.4273C111.556 66.5928 111.335 65.5825 111.335 64.3964C111.335 63.2068 111.559 62.1947 112.007 61.3602C112.454 60.5257 113.061 59.89 113.828 59.4532C114.595 59.0129 115.458 58.7927 116.417 58.7927C117.049 58.7927 117.635 58.8815 118.175 59.059C118.718 59.2366 119.199 59.4958 119.619 59.8367C120.038 60.1741 120.378 60.5878 120.641 61.0779C120.908 61.5679 121.078 62.129 121.153 62.7611ZM122.807 69.851V58.9419H130.157V60.8435H125.113V63.4429H129.779V65.3446H125.113V67.9493H130.179V69.851H122.807Z" fill="#4491F5"/>
<rect x="38" y="81" width="58" height="2" rx="1" fill="#F98012"/>
<rect x="108" y="81" width="58" height="2" rx="1" fill="#E2E2E2"/>
<rect x="176" y="81" width="58" height="2" rx="1" fill="#E2E2E2"/>
<rect x="244" y="81" width="58" height="2" rx="1" fill="#E2E2E2"/>
<path d="M285 99H233C231.343 99 230 100.343 230 102V110C230 111.657 231.343 113 233 113H285C286.657 113 288 111.657 288 110V102C288 100.343 286.657 99 285 99Z" fill="#238636"/>
<path d="M372.5 253.103C414.197 253.103 448 250.864 448 248.103C448 245.341 414.197 243.103 372.5 243.103C330.803 243.103 297 245.341 297 248.103C297 250.864 330.803 253.103 372.5 253.103Z" fill="#EFEFEF"/>
<path fill-rule="evenodd" clip-rule="evenodd" d="M381.647 22.6391C381.685 20.8245 381.618 19.3076 381.469 18.0451C381.281 16.5042 380.96 15.3185 380.537 14.4208C380.225 13.7584 379.754 13.1199 379.182 12.6063C378.64 12.1118 377.996 11.7182 377.304 11.507C376.44 11.2429 375.599 11.2958 374.782 11.5454C374.019 11.7758 373.288 12.179 372.573 12.6495C372.217 12.8799 371.91 13.1007 371.617 13.3119C370.402 14.1808 369.431 14.8768 367.688 14.4064C367.568 14.3728 367.452 14.3152 367.356 14.2336C367.217 14.1136 367.106 13.9504 367.049 13.7584C366.986 13.5519 366.982 13.3119 367.054 13.0431C367.126 12.7647 367.289 12.4622 367.553 12.1502L367.587 12.1022C367.683 11.9678 367.803 11.8334 367.942 11.699C369.114 10.5565 371.454 9.67322 374.115 9.4908C376.795 9.30839 379.773 9.86043 382.175 11.5982C382.636 11.9294 383.073 12.3038 383.486 12.7311C384.461 13.7344 385.211 15.1313 385.6 17.0322C385.936 18.6788 386.003 20.6997 385.715 23.1671C385.581 22.9223 385.417 22.7063 385.225 22.5239C384.855 22.1782 384.385 21.967 383.827 21.9382C383.208 21.9046 382.473 22.111 381.647 22.6391Z" fill="#666666" stroke="#666666" stroke-width="0.216" stroke-miterlimit="22.9256"/>
<path d="M370.137 44.8586L369.387 44.8543L369.388 44.8004L369.396 44.747L370.097 40.0864L370.237 39.1536L371.114 39.5006C371.218 39.5416 371.329 39.5797 371.461 39.6245L371.467 39.6266C371.467 39.6266 371.468 39.627 371.471 39.6277C371.501 39.636 371.7 39.6896 372.046 39.7262C372.422 39.766 372.955 39.7835 373.606 39.7048C374.902 39.5482 376.69 39.0078 378.662 37.4646L378.662 37.4641C379.272 36.9881 379.907 36.4113 380.555 35.7135L381.757 34.4203L381.853 36.1832L382.324 44.803L382.35 45.2755L381.935 45.5022C381.714 45.6226 381.486 45.7426 381.247 45.8539C381.246 45.8543 381.245 45.8546 381.245 45.8549L380.928 45.1751C378.942 46.115 376.683 46.6166 374.671 46.5728L370.137 44.8586ZM370.137 44.8586C369.387 44.8543 369.387 44.8547 369.387 44.8551L369.387 44.856L369.387 44.8576L369.387 44.8609L369.387 44.8676L369.388 44.8818C369.388 44.8916 369.388 44.9021 369.389 44.9133C369.391 44.9353 369.394 44.9613 369.399 44.9904C369.409 45.0452 369.429 45.1282 369.479 45.2192C369.509 45.2742 369.55 45.3334 369.605 45.3891C370.758 46.7268 372.669 47.282 374.655 47.3226L370.137 44.8586Z" fill="#FEFEFE" stroke="#333333" stroke-width="1.5"/>
<path fill-rule="evenodd" clip-rule="evenodd" d="M365.944 13.3839C365.079 14.3536 364.373 15.5969 363.84 17.0226C362.682 20.1333 362.341 24.1368 362.975 27.9627C363.614 31.8222 365.247 35.5281 368.019 38.0051C369.095 38.9652 370.344 39.7429 371.77 40.2757C371.982 40.3573 375.128 41.2406 378.865 38.0291C380.71 36.4402 382.742 33.8336 384.677 29.5949L383.352 28.99C381.517 33.0127 379.624 35.4561 377.919 36.9203C374.792 39.6085 372.433 38.9652 372.28 38.9076C371.031 38.4468 369.94 37.7651 368.999 36.9203C366.491 34.6785 365.012 31.2846 364.421 27.7275C363.826 24.1416 364.138 20.4069 365.209 17.5315C365.68 16.2737 366.29 15.1841 367.034 14.3536L365.944 13.3839Z" fill="#333333"/>
<path fill-rule="evenodd" clip-rule="evenodd" d="M381.613 23.6759C381.704 21.3909 381.647 19.538 381.464 18.045C381.277 16.5041 380.955 15.3184 380.532 14.4207C380.22 13.7583 379.749 13.1198 379.178 12.6062C378.635 12.1118 377.991 11.7181 377.299 11.5069C376.435 11.2429 375.594 11.2957 374.778 11.5453C374.014 11.7757 373.284 12.179 372.568 12.6494C372.213 12.8798 371.905 13.1006 371.612 13.3119C370.397 14.1807 369.426 14.8768 367.683 14.4063C367.563 14.3727 367.447 14.3151 367.351 14.2335C367.212 14.1135 367.102 13.9503 367.044 13.7583C366.982 13.5519 366.977 13.3119 367.049 13.043C367.121 12.7646 367.284 12.4622 367.548 12.1502L367.582 12.1022C367.678 11.9677 367.798 11.8333 367.937 11.6989C369.109 10.5564 371.449 9.67316 374.11 9.49074C376.79 9.30833 379.768 9.86037 382.17 11.5981C382.631 11.9293 383.068 12.3038 383.481 12.731C384.457 13.7343 385.206 15.1312 385.595 17.0322C385.955 18.8035 386.003 21.0021 385.643 23.7239L385.59 24.1367C385.408 25.5625 385.292 26.4505 384.413 27.6698C384.288 27.8427 384.144 28.0299 383.976 28.2315C383.832 28.4091 383.664 28.6011 383.472 28.8027L383.64 29.4076L384.538 29.7964C384.726 29.5948 384.913 29.3836 385.095 29.158C385.264 28.9563 385.427 28.7451 385.59 28.5195C386.681 27.0026 386.815 25.9753 387.031 24.324L387.084 23.9111C387.468 21.0213 387.411 18.6595 387.017 16.7393C386.57 14.5408 385.681 12.9038 384.519 11.7133C384.048 11.2285 383.544 10.8013 383.016 10.4172C380.306 8.45386 376.982 7.83461 373.999 8.03622C370.997 8.23784 368.307 9.28913 366.905 10.6524C366.722 10.8301 366.559 11.0173 366.415 11.2093C366.002 11.6941 365.747 12.1886 365.622 12.6638C365.478 13.2062 365.497 13.7247 365.637 14.1807C365.781 14.6512 366.05 15.0496 366.395 15.3424C366.66 15.5632 366.967 15.7265 367.294 15.8177C369.705 16.4657 370.92 15.592 372.453 14.4976C372.746 14.2911 373.048 14.0703 373.356 13.8687C373.966 13.4655 374.581 13.1246 375.191 12.9374C375.748 12.7694 376.305 12.731 376.862 12.899C377.333 13.043 377.785 13.3215 378.178 13.6815C378.606 14.0703 378.961 14.5504 379.197 15.04C379.557 15.7985 379.831 16.8353 379.999 18.2131C380.157 19.5332 380.22 21.1461 380.157 23.1095L380.527 23.6279L381.613 23.6759Z" fill="#333333"/>
<path fill-rule="evenodd" clip-rule="evenodd" d="M381.291 24.1272C382.314 23.2247 383.15 22.8743 383.784 22.9031C384.101 22.9175 384.36 23.0375 384.567 23.2247C384.788 23.4311 384.946 23.724 385.042 24.0744C385.297 24.9865 385.105 26.2394 384.384 27.3675C384.202 27.6555 383.894 27.9771 383.52 28.2363C383.337 28.3611 383.14 28.4667 382.939 28.5436C382.175 28.8268 382.554 29.6668 383.015 29.542C383.395 29.4364 383.755 29.2588 384.072 29.0428C384.557 28.7116 384.961 28.2795 385.206 27.8955C386.08 26.5274 386.301 24.9769 385.984 23.82C385.84 23.2967 385.585 22.8455 385.23 22.5191C384.86 22.1734 384.389 21.9622 383.832 21.9334C382.953 21.8902 381.848 22.3222 380.58 23.4551C380.129 23.8632 380.676 24.6696 381.291 24.1272Z" fill="#333333"/>
<path fill-rule="evenodd" clip-rule="evenodd" d="M383.044 24.6072C383.188 24.5784 383.313 24.5784 383.419 24.6024C383.539 24.6312 383.635 24.6984 383.693 24.7896C383.76 24.9 383.798 25.0488 383.798 25.2216C383.798 25.5817 383.649 26.0425 383.342 26.5177C383.236 26.681 383.063 26.8682 382.847 27.0122C382.766 27.0698 382.674 27.1226 382.578 27.161C382.064 27.3818 382.232 27.7994 382.646 27.6554C382.814 27.5978 382.977 27.5114 383.121 27.4154C383.39 27.233 383.616 26.993 383.75 26.7818C384.106 26.2249 384.284 25.6729 384.284 25.2216C384.284 24.9528 384.221 24.7128 384.101 24.5256C383.971 24.324 383.779 24.1848 383.525 24.1271C383.376 24.0935 383.203 24.0887 383.006 24.1175C382.367 24.2232 382.439 24.7272 383.044 24.6072Z" fill="#333333"/>
<path fill-rule="evenodd" clip-rule="evenodd" d="M381.735 46.3997C381.394 48.2335 380.745 50.8017 379.597 51.4305C378.819 51.8626 377.628 51.1761 375.807 48.1614C377.633 48.0702 379.583 47.5326 381.317 46.6253C381.456 46.5533 381.595 46.4765 381.735 46.3997ZM373.189 47.955C372.315 49.0015 371.532 49.712 370.85 50.1776C369.837 50.8641 369.14 50.9697 368.751 50.8353C368.42 50.7153 368.251 50.1536 368.189 49.448C368.074 48.2046 368.309 46.6541 368.496 45.7901C368.857 45.742 369.231 45.694 369.611 45.6556L369.803 45.9245C370.61 46.9757 371.801 47.6382 373.189 47.955Z" fill="#CCCCCC"/>
<path fill-rule="evenodd" clip-rule="evenodd" d="M372.275 27.9867C369.888 28.9324 369.047 27.8235 369.081 26.7914C369.119 25.3993 370.426 25.6777 370.161 23.4215C371.295 25.0104 368.739 26.7722 370.267 27.6026C370.594 27.7803 371.112 27.9627 372.275 27.9867Z" fill="#333333"/>
<path fill-rule="evenodd" clip-rule="evenodd" d="M370.997 31.3422C373.788 33.5936 374.802 29.5996 375.292 28.9852C375.152 33.944 371.348 33.5984 370.997 31.3422Z" fill="#333333"/>
<path fill-rule="evenodd" clip-rule="evenodd" d="M373.178 22.6006C374.662 19.0915 378.601 21.0933 378.616 22.9703C378.428 22.7639 377.602 22.2694 377.131 22.2118C376.968 24.3 374.47 24.7368 373.798 22.5094C373.533 22.495 373.375 22.4806 373.178 22.6006Z" fill="#333333"/>
<path fill-rule="evenodd" clip-rule="evenodd" d="M364.685 22.4518C366.035 18.8899 370.051 20.7429 370.137 22.6198C369.94 22.423 369.1 21.9574 368.624 21.919C368.543 24.012 366.059 24.54 365.305 22.3414C365.036 22.3318 364.877 22.327 364.685 22.4518Z" fill="#333333"/>
<mask id="path-31-outside-1_1208_209703" maskUnits="userSpaceOnUse" x="324.603" y="42.7385" width="87" height="69" fill="black">
<rect fill="white" x="324.603" y="42.7385" width="87" height="69"/>
<path fill-rule="evenodd" clip-rule="evenodd" d="M398.972 54.9025C402.837 59.334 412.353 81.4182 409.017 93.7617C406.62 98.4669 385.89 87.3452 382.733 85.9111C383.75 85.1551 384.25 84.4028 384.495 83.2296C388.544 84.469 396.211 85.9609 400.149 86.1435C401.78 86.2182 400.803 84.7484 399.693 84.6505C398.559 83.2451 394.071 75.2774 392.968 72.2751C393.016 69.9853 393.131 67.6667 393.309 65.3145C393.396 64.1864 391.945 63.9512 391.854 65.1801C391.614 68.3388 391.489 71.4686 391.484 74.5841C391.479 77.5939 391.59 80.5606 391.806 83.4936C391.806 83.4936 383.092 81.2985 381.334 80.7752C377.572 79.6557 375.828 75.8018 375.828 75.8018C375.828 75.8018 374.405 50.2761 374.405 49.1064C374.405 49.1064 376.553 52.433 380.284 52.1917C382.765 51.504 382.805 47.6923 383.117 45.7385C388.775 47.9247 394.915 50.2499 398.972 54.9025ZM366.804 45.7385C364.594 46.1322 362.788 46.6746 361.28 47.2891C359.132 48.1675 357.586 49.2044 356.337 50.2029C355.463 50.899 352.902 53.928 350.169 57.1587C346.836 61.0998 343.247 65.3433 341.902 66.2794L341.388 66.6394L340.956 66.1834C336.974 61.9831 334.539 55.805 332.454 50.5101C331.94 49.2092 331.45 47.9563 330.984 46.8618C330.259 46.9098 329.284 47.0586 328.347 47.2746C327.694 47.4283 327.069 47.6107 326.603 47.8123C329.711 60.2549 332.651 66.9515 334.923 70.5566C337.099 74.0128 338.482 74.4641 338.814 74.5265C341.782 75.0977 345.534 73.7488 349.132 71.5454C353.263 69.0108 357.144 65.3721 359.435 62.1751C360.3 60.9702 361.505 61.7814 360.689 62.9287C359.853 64.1 358.815 65.3337 357.634 66.553L357.586 67.4651L357.538 68.5836C357.389 73.0144 357.422 81.9767 357.888 90.4446C358.205 96.2051 358.715 101.73 359.493 105.412C364.594 108.292 370.358 109.565 376.06 109.809C383.236 110.117 390.331 108.806 395.937 107.04C395.274 104.62 394.688 102.23 394.174 99.8534C393.636 97.362 393.179 94.8706 392.805 92.384C389.591 91.1071 385.411 88.5831 382.101 86.9698C378.791 85.3564 368.515 81.6676 367.133 75.8018L371.913 48.4962L366.804 45.7385Z"/>
</mask>
<path fill-rule="evenodd" clip-rule="evenodd" d="M398.972 54.9025C402.837 59.334 412.353 81.4182 409.017 93.7617C406.62 98.4669 385.89 87.3452 382.733 85.9111C383.75 85.1551 384.25 84.4028 384.495 83.2296C388.544 84.469 396.211 85.9609 400.149 86.1435C401.78 86.2182 400.803 84.7484 399.693 84.6505C398.559 83.2451 394.071 75.2774 392.968 72.2751C393.016 69.9853 393.131 67.6667 393.309 65.3145C393.396 64.1864 391.945 63.9512 391.854 65.1801C391.614 68.3388 391.489 71.4686 391.484 74.5841C391.479 77.5939 391.59 80.5606 391.806 83.4936C391.806 83.4936 383.092 81.2985 381.334 80.7752C377.572 79.6557 375.828 75.8018 375.828 75.8018C375.828 75.8018 374.405 50.2761 374.405 49.1064C374.405 49.1064 376.553 52.433 380.284 52.1917C382.765 51.504 382.805 47.6923 383.117 45.7385C388.775 47.9247 394.915 50.2499 398.972 54.9025ZM366.804 45.7385C364.594 46.1322 362.788 46.6746 361.28 47.2891C359.132 48.1675 357.586 49.2044 356.337 50.2029C355.463 50.899 352.902 53.928 350.169 57.1587C346.836 61.0998 343.247 65.3433 341.902 66.2794L341.388 66.6394L340.956 66.1834C336.974 61.9831 334.539 55.805 332.454 50.5101C331.94 49.2092 331.45 47.9563 330.984 46.8618C330.259 46.9098 329.284 47.0586 328.347 47.2746C327.694 47.4283 327.069 47.6107 326.603 47.8123C329.711 60.2549 332.651 66.9515 334.923 70.5566C337.099 74.0128 338.482 74.4641 338.814 74.5265C341.782 75.0977 345.534 73.7488 349.132 71.5454C353.263 69.0108 357.144 65.3721 359.435 62.1751C360.3 60.9702 361.505 61.7814 360.689 62.9287C359.853 64.1 358.815 65.3337 357.634 66.553L357.586 67.4651L357.538 68.5836C357.389 73.0144 357.422 81.9767 357.888 90.4446C358.205 96.2051 358.715 101.73 359.493 105.412C364.594 108.292 370.358 109.565 376.06 109.809C383.236 110.117 390.331 108.806 395.937 107.04C395.274 104.62 394.688 102.23 394.174 99.8534C393.636 97.362 393.179 94.8706 392.805 92.384C389.591 91.1071 385.411 88.5831 382.101 86.9698C378.791 85.3564 368.515 81.6676 367.133 75.8018L371.913 48.4962L366.804 45.7385Z" fill="#EFEFEF"/>
<path d="M398.972 54.9025L400.103 53.9165L398.972 54.9025ZM409.017 93.7617L410.353 94.4425L410.424 94.3036L410.465 94.1531L409.017 93.7617ZM382.733 85.9111L381.838 84.7073L379.797 86.2248L382.113 87.2768L382.733 85.9111ZM384.495 83.2296L384.934 81.7953L383.362 81.3142L383.026 82.9233L384.495 83.2296ZM400.149 86.1435L400.08 87.6418L400.081 87.6419L400.149 86.1435ZM399.693 84.6505L398.526 85.5927L398.926 86.0887L399.561 86.1447L399.693 84.6505ZM392.968 72.2751L391.468 72.2436L391.462 72.5267L391.56 72.7925L392.968 72.2751ZM393.309 65.3145L391.814 65.1999L391.813 65.2015L393.309 65.3145ZM391.854 65.1801L393.349 65.2938L393.35 65.2912L391.854 65.1801ZM391.484 74.5841L392.984 74.5865V74.5864L391.484 74.5841ZM391.806 83.4936L391.439 84.9482L393.454 85.4559L393.302 83.3834L391.806 83.4936ZM381.334 80.7752L381.762 79.3375L381.334 80.7752ZM375.828 75.8018L374.331 75.8853L374.346 76.1651L374.462 76.4203L375.828 75.8018ZM374.405 49.1064L375.665 48.2926C375.304 47.734 374.618 47.4796 373.98 47.6677C373.342 47.8557 372.905 48.4414 372.905 49.1064H374.405ZM380.284 52.1917L380.38 53.6885L380.535 53.6785L380.684 53.6372L380.284 52.1917ZM383.117 45.7385L383.657 44.3393L381.928 43.6712L381.636 45.5018L383.117 45.7385ZM366.804 45.7385L367.516 44.4185L367.056 44.17L366.54 44.2618L366.804 45.7385ZM361.28 47.2891L360.714 45.8999L360.712 45.9008L361.28 47.2891ZM356.337 50.2029L357.271 51.3764L357.273 51.3745L356.337 50.2029ZM350.169 57.1587L349.024 56.1898L349.024 56.19L350.169 57.1587ZM341.902 66.2794L341.045 65.0482L341.042 65.0508L341.902 66.2794ZM341.388 66.6394L340.3 67.6714L341.19 68.6101L342.249 67.868L341.388 66.6394ZM340.956 66.1834L342.045 65.1515L342.045 65.1514L340.956 66.1834ZM332.454 50.5101L333.85 49.9606L333.849 49.9589L332.454 50.5101ZM330.984 46.8618L332.364 46.2743L331.947 45.2948L330.885 45.3651L330.984 46.8618ZM328.347 47.2746L328.01 45.813L328.004 45.8145L328.347 47.2746ZM326.603 47.8123L326.008 46.4356L324.84 46.9411L325.148 48.1758L326.603 47.8123ZM334.923 70.5566L336.192 69.7574L336.192 69.7568L334.923 70.5566ZM338.814 74.5265L339.097 73.0535L339.091 73.0524L338.814 74.5265ZM349.132 71.5454L349.915 72.8246L349.916 72.824L349.132 71.5454ZM359.435 62.1751L358.216 61.3005L358.216 61.3013L359.435 62.1751ZM360.689 62.9287L361.91 63.8L361.911 63.7985L360.689 62.9287ZM357.634 66.553L356.557 65.5091L356.165 65.9128L356.136 66.4742L357.634 66.553ZM357.586 67.4651L356.088 67.3862L356.087 67.3935L356.087 67.4007L357.586 67.4651ZM357.538 68.5836L356.039 68.5192L356.038 68.5332L357.538 68.5836ZM357.888 90.4446L356.391 90.527V90.527L357.888 90.4446ZM359.493 105.412L358.025 105.722L358.165 106.385L358.755 106.718L359.493 105.412ZM376.06 109.809L375.996 111.308L375.996 111.308L376.06 109.809ZM395.937 107.04L396.387 108.47L397.765 108.036L397.383 106.643L395.937 107.04ZM394.174 99.8534L392.708 100.17L392.708 100.17L394.174 99.8534ZM392.805 92.384L394.288 92.1605L394.16 91.3083L393.359 90.99L392.805 92.384ZM371.913 48.4962L373.39 48.7549L373.577 47.6898L372.625 47.1762L371.913 48.4962ZM367.133 75.8018L365.656 75.5432L365.603 75.8463L365.673 76.1459L367.133 75.8018ZM394.468 72.3066C394.515 70.0458 394.629 67.7545 394.805 65.4275L391.813 65.2015C391.634 67.5789 391.517 69.9248 391.468 72.2436L394.468 72.3066ZM394.805 65.4292C394.904 64.1355 394.059 63.0308 392.837 62.8754C392.249 62.8006 391.619 62.9666 391.127 63.4106C390.634 63.8553 390.403 64.464 390.358 65.069L393.35 65.2912C393.35 65.2818 393.335 65.459 393.137 65.6375C392.94 65.8152 392.684 65.88 392.459 65.8515C392.242 65.8239 392.061 65.7131 391.946 65.5642C391.821 65.4035 391.81 65.2523 391.814 65.1999L394.805 65.4292ZM390.358 65.0664C390.115 68.2606 389.989 71.4277 389.984 74.5818L392.984 74.5864C392.989 71.5096 393.112 68.4169 393.349 65.2938L390.358 65.0664ZM389.984 74.5817C389.979 77.6299 390.091 80.6342 390.31 83.6039L393.302 83.3834C393.088 80.487 392.979 77.558 392.984 74.5865L389.984 74.5817ZM391.806 83.4936C392.172 82.0391 392.172 82.0391 392.172 82.0391C392.172 82.039 392.172 82.039 392.172 82.039C392.171 82.0389 392.171 82.0388 392.171 82.0387C392.17 82.0384 392.168 82.038 392.166 82.0375C392.162 82.0365 392.155 82.0349 392.147 82.0328C392.131 82.0287 392.106 82.0225 392.074 82.0144C392.01 81.9982 391.916 81.9744 391.795 81.944C391.554 81.883 391.207 81.7953 390.785 81.6884C389.942 81.4747 388.799 81.1842 387.601 80.8775C385.187 80.2593 382.606 79.5887 381.762 79.3375L380.906 82.2129C381.82 82.485 384.475 83.1736 386.857 83.7837C388.058 84.0913 389.203 84.3823 390.048 84.5965C390.471 84.7036 390.818 84.7915 391.06 84.8526C391.182 84.8832 391.276 84.9071 391.341 84.9233C391.373 84.9314 391.397 84.9376 391.414 84.9418C391.422 84.9439 391.429 84.9455 391.433 84.9466C391.435 84.9471 391.437 84.9475 391.438 84.9478C391.438 84.9479 391.439 84.948 391.439 84.9481C391.439 84.9481 391.439 84.9481 391.439 84.9482C391.439 84.9482 391.439 84.9482 391.806 83.4936ZM374.405 49.1064C373.144 49.9202 373.145 49.9207 373.145 49.9213C373.145 49.9215 373.146 49.922 373.146 49.9224C373.146 49.9232 373.147 49.924 373.147 49.9249C373.149 49.9267 373.15 49.9287 373.151 49.9308C373.154 49.9352 373.158 49.9404 373.162 49.9463C373.169 49.9582 373.18 49.9733 373.192 49.9913C373.217 50.0273 373.25 50.0752 373.292 50.1331C373.377 50.2488 373.497 50.4056 373.652 50.5892C373.959 50.9544 374.414 51.4363 375.009 51.9116C376.194 52.8583 378.022 53.8411 380.38 53.6885L380.187 50.6948C378.814 50.7836 377.703 50.2237 376.881 49.5675C376.473 49.2413 376.157 48.9067 375.945 48.6557C375.84 48.5311 375.763 48.43 375.716 48.3647C375.692 48.3321 375.676 48.3087 375.667 48.2961C375.663 48.2898 375.66 48.2863 375.66 48.2856C375.66 48.2853 375.66 48.2857 375.661 48.2868C375.661 48.2874 375.662 48.2882 375.662 48.2892C375.663 48.2896 375.663 48.2902 375.663 48.2907C375.664 48.291 375.664 48.2915 375.664 48.2917C375.664 48.2921 375.665 48.2926 374.405 49.1064ZM380.684 53.6372C382.719 53.0731 383.563 51.2559 383.958 49.8442C384.345 48.4612 384.477 46.7302 384.598 45.9752L381.636 45.5018C381.444 46.7006 381.4 47.8524 381.069 49.0356C380.746 50.19 380.329 50.6225 379.883 50.7462L380.684 53.6372ZM366.54 44.2618C364.234 44.6727 362.326 45.2431 360.714 45.8999L361.845 48.6782C363.25 48.1061 364.954 47.5917 367.067 47.2153L366.54 44.2618ZM360.712 45.9008C358.404 46.8447 356.735 47.9639 355.4 49.0313L357.273 51.3745C358.436 50.4449 359.86 49.4904 361.848 48.6774L360.712 45.9008ZM355.402 49.0294C354.835 49.4813 353.877 50.5351 352.821 51.7431C351.72 53.0024 350.388 54.5778 349.024 56.1898L351.314 58.1275C352.684 56.5088 353.998 54.9544 355.079 53.7175C356.205 52.4293 356.964 51.6206 357.271 51.3764L355.402 49.0294ZM349.024 56.19C347.354 58.1645 345.636 60.1959 344.168 61.8505C343.434 62.6779 342.773 63.399 342.22 63.9652C341.644 64.5545 341.254 64.9031 341.045 65.0482L342.759 67.5106C343.223 67.1876 343.786 66.6548 344.365 66.062C344.967 65.4461 345.664 64.6845 346.412 63.8413C347.908 62.1549 349.651 60.0939 351.314 58.1274L349.024 56.19ZM341.042 65.0508L340.528 65.4109L342.249 67.868L342.763 67.508L341.042 65.0508ZM342.477 65.6075L342.045 65.1515L339.867 67.2153L340.3 67.6714L342.477 65.6075ZM342.045 65.1514C338.301 61.2022 335.961 55.3225 333.85 49.9606L331.058 51.0596C333.116 56.2874 335.647 62.7639 339.867 67.2154L342.045 65.1514ZM333.849 49.9589C333.339 48.6683 332.84 47.3917 332.364 46.2743L329.604 47.4494C330.06 48.5209 330.541 49.7501 331.059 51.0613L333.849 49.9589ZM330.885 45.3651C330.065 45.4194 329.009 45.5827 328.01 45.813L328.684 48.7363C329.559 48.5346 330.453 48.4002 331.083 48.3585L330.885 45.3651ZM328.004 45.8145C327.318 45.9756 326.594 46.1819 326.008 46.4356L327.199 49.1889C327.545 49.0394 328.069 48.8809 328.69 48.7348L328.004 45.8145ZM325.148 48.1758C328.273 60.6886 331.261 67.5589 333.654 71.3563L336.192 69.7568C334.041 66.3441 331.149 59.8212 328.059 47.4488L325.148 48.1758ZM333.654 71.3557C335.922 74.9594 337.605 75.8252 338.536 76.0006L339.091 73.0524C339.36 73.1029 338.275 73.0663 336.192 69.7574L333.654 71.3557ZM338.53 75.9995C342.078 76.6821 346.248 75.0701 349.915 72.8246L348.348 70.2663C344.819 72.4275 341.487 73.5134 339.097 73.0535L338.53 75.9995ZM349.916 72.824C354.204 70.1929 358.238 66.4206 360.654 63.0489L358.216 61.3013C356.05 64.3237 352.321 67.8288 348.347 70.2669L349.916 72.824ZM360.654 63.0496C360.732 62.9405 360.733 62.996 360.594 63.0433C360.449 63.0925 360.171 63.1159 359.887 62.9353C359.595 62.7496 359.473 62.4576 359.461 62.2378C359.45 62.0356 359.528 61.9732 359.467 62.0589L361.911 63.7985C362.258 63.3106 362.491 62.7166 362.457 62.0773C362.422 61.4203 362.097 60.7856 361.498 60.4043C360.224 59.5942 358.878 60.379 358.216 61.3005L360.654 63.0496ZM359.468 62.0574C358.681 63.1593 357.694 64.3357 356.557 65.5091L358.711 67.5969C359.937 66.3317 361.024 65.0408 361.91 63.8L359.468 62.0574ZM356.136 66.4742L356.088 67.3862L359.084 67.544L359.132 66.6319L356.136 66.4742ZM356.087 67.4007L356.039 68.5192L359.036 68.648L359.084 67.5295L356.087 67.4007ZM356.038 68.5332C355.888 73.0117 355.922 82.0185 356.391 90.527L359.386 90.3622C358.922 81.9349 358.889 73.017 359.037 68.634L356.038 68.5332ZM356.391 90.527C356.708 96.2954 357.221 101.919 358.025 105.722L360.96 105.102C360.208 101.541 359.703 96.1147 359.386 90.3622L356.391 90.527ZM358.755 106.718C364.113 109.743 370.122 111.056 375.996 111.308L376.124 108.311C370.594 108.073 365.075 106.842 360.23 104.106L358.755 106.718ZM375.996 111.308C383.383 111.624 390.654 110.277 396.387 108.47L395.486 105.609C390.008 107.335 383.09 108.609 376.124 108.311L375.996 111.308ZM397.383 106.643C396.727 104.249 396.148 101.885 395.64 99.5363L392.708 100.17C393.228 102.574 393.82 104.991 394.49 107.436L397.383 106.643ZM395.64 99.5368C395.109 97.076 394.658 94.6156 394.288 92.1605L391.322 92.6075C391.701 95.1255 392.163 97.648 392.708 100.17L395.64 99.5368ZM393.359 90.99C391.839 90.3861 390.057 89.4728 388.195 88.4795C386.365 87.5034 384.446 86.444 382.758 85.6214L381.444 88.3182C383.066 89.1089 384.892 90.1181 386.783 91.1266C388.642 92.1179 390.557 93.105 392.251 93.778L393.359 90.99ZM381.762 79.3375C380.271 78.8938 379.128 77.8889 378.33 76.9166C377.936 76.4375 377.644 75.9881 377.453 75.6623C377.358 75.5001 377.289 75.3707 377.246 75.2863C377.224 75.2442 377.209 75.2135 377.201 75.1958C377.197 75.1869 377.194 75.1813 377.193 75.1792C377.192 75.1781 377.192 75.1779 377.193 75.1786C377.193 75.1789 377.193 75.1795 377.193 75.1803C377.194 75.1807 377.194 75.1811 377.194 75.1816C377.194 75.1819 377.194 75.1823 377.194 75.1824C377.195 75.1829 377.195 75.1833 375.828 75.8018C374.462 76.4203 374.462 76.4208 374.462 76.4213C374.462 76.4214 374.462 76.422 374.463 76.4223C374.463 76.4231 374.463 76.4239 374.464 76.4247C374.465 76.4265 374.465 76.4284 374.466 76.4306C374.468 76.435 374.471 76.4404 374.474 76.4466C374.48 76.4591 374.487 76.4753 374.497 76.495C374.516 76.5342 374.542 76.5874 374.575 76.6529C374.642 76.7836 374.739 76.964 374.866 77.1807C375.119 77.6124 375.499 78.1964 376.011 78.8207C377.025 80.0553 378.636 81.5371 380.906 82.2129L381.762 79.3375ZM375.828 75.8018C377.326 75.7183 377.326 75.7182 377.326 75.718C377.326 75.7178 377.326 75.7175 377.326 75.7171C377.326 75.7163 377.326 75.7152 377.326 75.7136C377.326 75.7105 377.325 75.7059 377.325 75.6998C377.324 75.6875 377.323 75.6692 377.322 75.6451C377.319 75.5968 377.315 75.525 377.31 75.4314C377.3 75.2442 377.284 74.9695 377.265 74.6194C377.226 73.9193 377.17 72.9177 377.104 71.7122C376.97 69.3012 376.792 66.0743 376.614 62.8111C376.436 59.5476 376.258 56.2486 376.125 53.6928C376.058 52.4147 376.003 51.3241 375.964 50.5173C375.945 50.1136 375.929 49.7832 375.919 49.5368C375.914 49.4134 375.91 49.3134 375.908 49.237C375.907 49.1988 375.906 49.1683 375.905 49.1447C375.905 49.133 375.905 49.1238 375.905 49.1169C375.905 49.1135 375.905 49.1109 375.905 49.109C375.905 49.1071 375.905 49.1063 375.905 49.1064H372.905C372.905 49.7455 373.265 56.4921 373.619 62.9744C373.797 66.2388 373.975 69.4665 374.108 71.878C374.175 73.0838 374.23 74.0856 374.269 74.786C374.289 75.1362 374.304 75.411 374.315 75.5983C374.32 75.6919 374.324 75.7637 374.326 75.812C374.328 75.8362 374.329 75.8545 374.33 75.8668C374.33 75.8729 374.33 75.8776 374.33 75.8807C374.33 75.8822 374.33 75.8834 374.331 75.8842C374.331 75.8846 374.331 75.8849 374.331 75.885C374.331 75.8852 374.331 75.8853 375.828 75.8018ZM382.576 47.1377C388.321 49.3574 394.074 51.5676 397.842 55.8884L400.103 53.9165C395.756 48.9322 389.229 46.492 383.657 44.3393L382.576 47.1377ZM397.842 55.8884C398.668 56.8351 399.916 58.8915 401.289 61.7563C402.643 64.5814 404.065 68.0796 405.267 71.8235C407.698 79.3999 409.116 87.6458 407.569 93.3703L410.465 94.1531C412.254 87.5341 410.582 78.5662 408.123 70.9067C406.88 67.0326 405.407 63.4074 403.994 60.4596C402.6 57.5516 401.21 55.1856 400.103 53.9165L397.842 55.8884ZM400.86 83.7084C400.393 83.1292 399.053 80.9141 397.633 78.3376C396.227 75.7872 394.883 73.1377 394.376 71.7577L391.56 72.7925C392.156 74.4148 393.608 77.2504 395.005 79.7857C396.388 82.295 397.859 84.7664 398.526 85.5927L400.86 83.7084ZM400.081 87.6419C400.598 87.6656 401.429 87.6101 402.018 86.9796C402.738 86.2093 402.525 85.2759 402.299 84.8081C402.067 84.328 401.684 83.9514 401.302 83.6933C400.909 83.4272 400.4 83.2071 399.825 83.1563L399.561 86.1447C399.541 86.1429 399.57 86.1433 399.621 86.1779C399.684 86.2206 399.652 86.2251 399.599 86.1153C399.57 86.0555 399.508 85.903 399.515 85.679C399.524 85.4266 399.622 85.1504 399.826 84.9313C400.012 84.7321 400.203 84.6696 400.264 84.6535C400.326 84.6374 400.323 84.6498 400.218 84.645L400.081 87.6419ZM384.056 84.6639C388.194 85.9306 395.988 87.4521 400.08 87.6418L400.219 84.6451C396.434 84.4696 388.893 83.0073 384.934 81.7953L384.056 84.6639ZM383.628 87.115C384.234 86.6644 384.752 86.1661 385.156 85.5518C385.564 84.933 385.811 84.2661 385.963 83.5359L383.026 82.9233C382.934 83.3663 382.809 83.6621 382.651 83.9018C382.49 84.1459 382.249 84.4017 381.838 84.7073L383.628 87.115ZM407.68 93.0809C407.67 93.1005 407.6 93.2618 407.065 93.3575C406.511 93.4563 405.691 93.4328 404.599 93.2437C402.43 92.8683 399.635 91.9236 396.721 90.7476C390.861 88.3825 385.08 85.3295 383.354 84.5454L382.113 87.2768C383.544 87.9267 389.706 91.1517 395.599 93.5296C398.561 94.7251 401.595 95.7683 404.087 96.1997C405.324 96.4139 406.541 96.4986 407.592 96.3107C408.662 96.1196 409.764 95.5992 410.353 94.4425L407.68 93.0809ZM372.625 47.1762L367.516 44.4185L366.091 47.0585L371.2 49.8162L372.625 47.1762ZM382.758 85.6214C380.933 84.7319 377.755 83.5125 374.655 81.6877C373.135 80.7933 371.733 79.8041 370.644 78.728C369.552 77.6479 368.852 76.5551 368.593 75.4578L365.673 76.1459C366.106 77.9814 367.208 79.5493 368.535 80.8611C369.865 82.1768 371.498 83.3106 373.133 84.2732C376.344 86.1626 379.959 87.5943 381.444 88.3182L382.758 85.6214ZM368.611 76.0604L373.39 48.7549L370.435 48.2376L365.656 75.5432L368.611 76.0604Z" fill="#333333" mask="url(#path-31-outside-1_1208_209703)"/>
<path fill-rule="evenodd" clip-rule="evenodd" d="M391.854 65.1801C391.614 68.3388 391.489 71.4686 391.484 74.5841C391.479 77.93 391.614 81.2182 391.883 84.4681L393.343 84.3481C393.074 81.0982 392.939 77.8484 392.944 74.5841C392.949 71.5502 393.069 68.4684 393.314 65.3193C393.396 64.1912 391.945 63.9512 391.854 65.1801ZM392.757 92.0431L394.203 91.8319C394.587 94.4049 395.053 96.9779 395.61 99.5605C396.167 102.153 396.811 104.745 397.536 107.337L397.724 108.009L397.061 108.225C391.22 110.145 383.669 111.605 376.002 111.278C369.974 111.019 363.878 109.651 358.484 106.526L358.21 106.367L358.138 106.051C357.298 102.282 356.755 96.5219 356.428 90.5262C355.962 82.0247 355.924 73.0144 356.078 68.5452L356.126 67.4027L356.188 66.2026L357.648 66.2938L357.586 67.4699L357.538 68.5884C357.389 73.0192 357.423 81.9815 357.888 90.4494C358.205 96.2099 358.715 101.735 359.493 105.417C364.594 108.297 370.358 109.569 376.06 109.814C383.236 110.121 390.331 108.811 395.937 107.044C395.274 104.625 394.688 102.234 394.174 99.8582C393.622 97.2515 393.146 94.6497 392.757 92.0431Z" fill="#333333"/>
<path fill-rule="evenodd" clip-rule="evenodd" d="M405.971 235.57C404.828 236.861 403.377 238.249 401.888 239.67C399.477 241.974 396.97 244.369 395.716 246.419C394.774 247.96 394.601 249.295 395.937 250.173C396.749 250.274 399.65 249.05 403.012 247.35C406.774 245.449 411.01 242.953 413.609 240.98C413.628 240.961 413.681 240.923 413.7 240.913C413.753 240.875 413.839 240.817 413.94 240.731C414.478 240.265 415.328 239.002 412.696 235.945L413.806 234.994C417.303 239.06 415.79 241.062 414.887 241.839C414.757 241.95 414.627 242.041 414.541 242.104L414.473 242.152C411.793 244.182 407.484 246.726 403.67 248.651C399.9 250.557 396.513 251.872 395.447 251.56L395.356 251.536L395.274 251.484C392.901 250.039 393.05 247.984 394.472 245.661C395.826 243.448 398.401 240.985 400.884 238.614C402.354 237.207 403.791 235.839 404.881 234.605L405.971 235.57Z" fill="#333333"/>
<path fill-rule="evenodd" clip-rule="evenodd" d="M365.027 234.615C363.552 235.22 361.755 235.839 359.92 236.468C356.231 237.73 352.384 239.05 350.174 240.663C348.214 242.099 347.455 243.741 348.906 245.713L348.964 245.79L349.041 245.853C349.92 246.558 354.276 246.674 359.19 246.371C363.946 246.078 369.306 245.435 372.477 244.595L372.554 244.576C373.288 244.413 376.252 243.736 374.835 238.522C374.782 238.33 374.398 237.486 374.043 236.689C373.75 236.041 373.471 235.421 373.437 235.325L372.049 235.781C372.097 235.93 372.395 236.593 372.712 237.289C373.048 238.038 373.409 238.83 373.428 238.902C374.446 242.656 372.674 243.054 372.237 243.15L372.131 243.174C369.052 243.99 363.792 244.619 359.109 244.907C354.656 245.181 350.799 245.176 350.025 244.749C349.31 243.678 349.833 242.718 351.048 241.83C353.071 240.351 356.813 239.07 360.406 237.836C362.231 237.212 364.023 236.597 365.593 235.949L365.027 234.615Z" fill="#333333"/>
<path fill-rule="evenodd" clip-rule="evenodd" d="M401.889 239.67C399.477 241.974 396.97 244.369 395.716 246.419C394.775 247.96 394.602 249.294 395.937 250.173C396.749 250.274 399.65 249.05 403.013 247.35C406.774 245.449 411.01 242.953 413.609 240.98C413.628 240.961 413.681 240.923 413.7 240.913C413.753 240.875 413.84 240.817 413.94 240.731C414.233 240.481 414.613 240.001 414.488 239.132C414.397 238.47 414.008 237.577 413.061 236.386C412.077 236.813 410.833 236.996 409.589 236.962C408.138 236.924 406.649 236.597 405.563 236.026C404.66 237.01 403.599 238.038 402.499 239.094C402.292 239.286 402.09 239.478 401.889 239.67Z" fill="#FEFEFE"/>
<path fill-rule="evenodd" clip-rule="evenodd" d="M373.418 238.906C373.442 238.993 373.466 239.079 373.485 239.166C374.355 242.68 372.654 243.064 372.227 243.16L372.121 243.184C369.042 244 363.782 244.628 359.099 244.917C354.646 245.19 350.789 245.185 350.016 244.758C349.3 243.688 349.823 242.728 351.039 241.839C352.268 240.937 354.142 240.111 356.226 239.324C357.567 238.82 358.988 238.33 360.396 237.85C362.029 237.289 363.633 236.741 365.079 236.165C365.978 236.756 367.366 237.366 368.961 237.471C370.065 237.543 371.271 237.375 372.477 236.794C372.549 236.953 372.626 237.125 372.702 237.294C373.039 238.042 373.394 238.834 373.418 238.906Z" fill="#FEFEFE"/>
<path fill-rule="evenodd" clip-rule="evenodd" d="M394.16 109.099C397.546 120.173 401.331 140.177 404.646 162.796C409.425 186.092 412.504 212.331 412.461 234.562C411.582 235.047 410.299 235.33 409.022 235.359C407.754 235.388 406.524 235.176 405.741 234.682C404.641 230.496 400.207 212.519 394.251 191.666C389.227 174.067 382.622 154.952 379.154 141.545L377.765 136.48C377.679 149.072 376.834 162.297 376.286 170.875C376.123 173.458 375.983 175.618 375.897 177.265C375.892 177.375 375.897 177.797 375.907 178.503C375.988 184.614 376.353 212.629 372.016 235.388C370.997 235.921 369.974 236.074 369.042 236.017C367.774 235.935 366.665 235.46 365.939 234.989C365.858 228.408 365.637 218.951 365.017 208.87C364.383 198.564 363.321 187.571 361.554 178.253C361.41 177.495 358.749 162.239 358.595 141.602C358.518 131.291 359.07 119.636 360.876 107.774C365.646 110.016 370.848 111.048 375.998 111.274C382.454 111.552 388.823 110.563 394.16 109.099Z" fill="#404040" stroke="#404040" stroke-width="0.216" stroke-miterlimit="22.9256"/>
<path fill-rule="evenodd" clip-rule="evenodd" d="M377.77 136.336C377.688 148.971 376.838 162.263 376.291 170.875C376.127 173.458 375.988 175.618 375.902 177.265C375.897 177.375 375.902 177.797 375.911 178.503C375.993 184.614 376.358 212.629 372.02 235.388C371.002 235.921 369.979 236.074 369.047 236.017C367.779 235.935 366.669 235.46 365.944 234.989C365.862 228.408 365.641 218.951 365.022 208.87C364.388 198.564 363.326 187.571 361.558 178.253C361.414 177.495 358.753 162.239 358.599 141.602C358.523 131.003 359.104 118.993 361.035 106.795L359.594 106.569C357.653 118.844 357.067 130.941 357.144 141.602C357.298 162.379 359.978 177.749 360.122 178.513C361.88 187.763 362.932 198.694 363.566 208.947C364.2 219.234 364.416 228.821 364.493 235.378L364.498 235.738L364.786 235.954C365.656 236.602 367.178 237.351 368.961 237.466C370.243 237.548 371.655 237.308 373.053 236.482L373.337 236.314L373.399 235.993C377.828 213.042 377.453 184.648 377.376 178.479C377.367 177.826 377.362 177.428 377.367 177.332C377.448 175.776 377.588 173.583 377.756 170.962C378.236 163.463 378.942 152.427 379.168 141.338L377.77 136.336Z" fill="#333333"/>
<path fill-rule="evenodd" clip-rule="evenodd" d="M369.364 122.367C370.296 123.203 371.348 123.947 372.515 124.494C373.721 125.055 375.056 125.416 376.507 125.459L377.098 125.478L377.165 126.059C379.057 142.284 384.183 158.365 390.235 177.341C395.404 193.552 401.245 211.875 406.332 234.212C407.235 234.62 408.215 234.721 409.17 234.653C410.083 234.586 410.981 234.361 411.769 234.087C411.601 227.467 411.222 217.454 410.367 206.816C409.761 199.265 408.921 191.421 407.749 184.302C407.585 183.318 407.427 182.382 407.263 181.489C407.1 180.586 406.927 179.698 406.754 178.83C406.615 178.148 406.432 177.289 406.25 176.453C405.77 174.231 405.328 172.195 405.078 169.661C404.91 167.947 404.722 166.18 404.521 164.38C404.314 162.532 404.098 160.761 403.882 159.057C402.681 149.71 401.144 140.638 399.41 132.299C397.608 123.649 395.591 115.805 393.511 109.296L394.803 108.888C396.898 115.455 398.929 123.342 400.736 132.026C402.479 140.378 404.021 149.49 405.227 158.889C405.462 160.722 405.678 162.508 405.875 164.232C406.067 165.945 406.255 167.712 406.432 169.531C406.668 171.951 407.105 173.967 407.58 176.161C407.729 176.852 407.883 177.567 408.085 178.561C408.263 179.439 408.436 180.337 408.599 181.244C408.772 182.209 408.94 183.15 409.089 184.076C410.266 191.258 411.116 199.135 411.721 206.705C412.595 217.583 413.633 228.326 413.796 234.985L413.806 235.465L413.354 235.637C411.173 236.463 406.586 236.977 404.939 234.908L404.871 234.601C399.775 212.159 394.121 194.004 388.938 177.745C382.934 158.908 377.837 142.918 375.878 126.774C374.451 126.659 373.14 126.275 371.934 125.713C370.608 125.094 369.422 124.254 368.389 123.313C367.471 122.478 368.447 121.542 369.364 122.367Z" fill="#333333"/>
<path fill-rule="evenodd" clip-rule="evenodd" d="M373.178 22.6007C374.662 19.0916 378.601 21.0934 378.616 22.9703C378.428 22.7639 377.602 22.2694 377.131 22.2118C376.968 24.3 374.47 24.7369 373.798 22.5095C373.529 22.4951 373.375 22.4807 373.178 22.6007ZM372.28 38.9076C372.433 38.9652 374.792 39.6085 377.919 36.9203C379.552 35.5185 381.354 33.224 383.107 29.5132C383.078 29.5228 383.044 29.5324 383.016 29.5421C382.554 29.6669 382.175 28.8316 382.939 28.5436C383.14 28.4668 383.342 28.3612 383.52 28.2363C383.899 27.9771 384.202 27.6555 384.385 27.3675C385.105 26.2394 385.292 24.9865 385.043 24.0744C384.947 23.724 384.783 23.4263 384.567 23.2247C384.365 23.0327 384.101 22.9175 383.784 22.9031C383.15 22.8743 382.309 23.2199 381.291 24.1272C380.724 24.6312 380.22 23.9832 380.494 23.5608L380.177 23.1143C380.239 21.151 380.177 19.538 380.018 18.2179C379.85 16.8402 379.576 15.8033 379.216 15.0449C378.985 14.5552 378.63 14.0752 378.198 13.6863C377.804 13.3263 377.352 13.0479 376.882 12.9039C376.324 12.7311 375.762 12.7743 375.21 12.9423C374.6 13.1295 373.985 13.4703 373.375 13.8736C373.068 14.0752 372.765 14.2912 372.472 14.5024C370.944 15.5969 369.729 16.4658 367.313 15.8225C366.986 15.7361 366.679 15.5729 366.415 15.3473C366.386 15.3233 366.357 15.2993 366.333 15.2753C365.896 15.9377 365.521 16.701 365.204 17.5411C364.133 20.4213 363.821 24.1512 364.416 27.7371C365.007 31.2942 366.487 34.6881 368.994 36.9299C369.941 37.7651 371.031 38.4468 372.28 38.9076ZM383.044 24.6072C382.439 24.7273 382.372 24.2232 383.006 24.1176C383.198 24.0888 383.371 24.0888 383.525 24.1272C383.779 24.1848 383.971 24.324 384.101 24.5256C384.221 24.7129 384.284 24.9529 384.284 25.2217C384.284 25.6681 384.111 26.225 383.751 26.7818C383.616 26.993 383.39 27.2331 383.121 27.4155C382.977 27.5163 382.819 27.5979 382.646 27.6555C382.233 27.7995 382.064 27.3819 382.578 27.1611C382.67 27.1226 382.761 27.0698 382.847 27.0122C383.064 26.8682 383.237 26.681 383.342 26.5178C383.65 26.0378 383.799 25.5817 383.799 25.2217C383.799 25.0441 383.765 24.8953 383.693 24.7897C383.63 24.6937 383.539 24.6312 383.419 24.6024C383.313 24.5784 383.189 24.5784 383.044 24.6072ZM364.685 22.4519C366.035 18.89 370.051 20.7429 370.137 22.6199C369.941 22.4231 369.1 21.9574 368.624 21.919C368.543 24.012 366.059 24.54 365.305 22.3415C365.036 22.3319 364.878 22.3271 364.685 22.4519ZM370.997 31.3422C373.788 33.5936 374.802 29.5997 375.292 28.9852C375.152 33.944 371.348 33.5984 370.997 31.3422ZM370.267 27.6027C370.594 27.7803 371.117 27.9627 372.275 27.9867C369.888 28.9324 369.047 27.8235 369.081 26.7914C369.119 25.3993 370.426 25.6777 370.161 23.4215C371.295 25.0057 368.735 26.7722 370.267 27.6027Z" fill="#FEFEFE"/>
<path fill-rule="evenodd" clip-rule="evenodd" d="M375.026 87.7367L282.828 71.977C279.523 71.4106 277.304 68.2759 277.866 64.9733L282.896 37.4465C283.463 34.1438 286.599 31.9261 289.904 32.4877L382.102 48.2474C385.407 48.8139 387.626 51.9485 387.064 55.2512L382.039 82.7779C381.467 86.0806 378.331 88.3032 375.026 87.7367Z" fill="#02585B"/>
<g clip-path="url(#clip1_1208_209703)">
<mask id="mask0_1208_209703" style="mask-type:luminance" maskUnits="userSpaceOnUse" x="291" y="39" width="33" height="33">
<path d="M323.378 44.6498L296.972 39.0155L291.338 65.4211L317.744 71.0554L323.378 44.6498Z" fill="white"/>
</mask>
<g mask="url(#mask0_1208_209703)">
<path d="M306.005 57.3349C310.334 58.2587 314.593 55.4979 315.517 51.1684C316.44 46.839 313.68 42.5804 309.35 41.6566C305.021 40.7328 300.762 43.4936 299.838 47.823C298.914 52.1525 301.675 56.4111 306.005 57.3349Z" fill="#036C70"/>
<path d="M312.096 64.6738C315.798 65.4639 319.441 63.1026 320.231 59.3999C321.021 55.697 318.659 52.0548 314.957 51.2647C311.254 50.4746 307.612 52.8358 306.822 56.5387C306.032 60.2414 308.393 63.8837 312.096 64.6738Z" fill="#1A9BA1"/>
<path d="M304.541 68.2383C307.503 68.8703 310.417 66.9814 311.049 64.0191C311.681 61.0568 309.792 58.1431 306.83 57.511C303.868 56.8789 300.954 58.7678 300.322 61.7301C299.69 64.6925 301.579 67.6062 304.541 68.2383Z" fill="#37C6D0"/>
<path opacity="0.1" d="M309.493 47.7263L300.553 45.8188C299.989 46.9143 299.684 48.1251 299.664 49.3573C299.643 50.5894 299.907 51.8098 300.434 52.9236C300.961 54.0374 301.738 55.0149 302.704 55.7798C303.67 56.5448 304.8 57.077 306.005 57.3349C306.233 57.3837 306.462 57.4212 306.689 57.4499L306.688 57.4823C305.282 57.2212 303.83 57.5189 302.641 58.3124C301.452 59.1058 300.62 60.3321 300.322 61.7301C300.292 61.8688 300.268 62.0077 300.249 62.1461L306.148 63.4047C306.439 63.4659 306.743 63.4095 306.993 63.2473C307.243 63.0852 307.419 62.8306 307.482 62.5394L310.358 49.061C310.42 48.7693 310.363 48.4653 310.201 48.2152C310.039 47.9652 309.784 47.7894 309.493 47.7263Z" fill="black"/>
<path opacity="0.2" d="M308.492 48.3754L300.2 46.606C299.783 47.6879 299.605 48.8473 299.679 50.0044C299.753 51.1614 300.078 52.2887 300.629 53.3084C301.181 54.3282 301.947 55.2162 302.875 55.9112C303.803 56.6065 304.871 57.0921 306.005 57.3349C306.233 57.3836 306.462 57.4212 306.689 57.4499L306.688 57.4822C305.886 57.3339 305.061 57.3662 304.273 57.5765C303.485 57.787 302.753 58.1705 302.132 58.6988C301.511 59.2274 301.015 59.8876 300.681 60.6315C300.347 61.3756 300.183 62.1847 300.201 63.0001L305.146 64.0553C305.438 64.1167 305.742 64.0599 305.993 63.8976C306.243 63.7351 306.418 63.48 306.481 63.1885L309.357 49.7101C309.418 49.4184 309.362 49.1143 309.2 48.8643C309.038 48.6142 308.783 48.4385 308.492 48.3754Z" fill="black"/>
<path opacity="0.2" d="M308.492 48.3754L300.2 46.606C299.783 47.6879 299.605 48.8473 299.679 50.0044C299.753 51.1614 300.078 52.2887 300.629 53.3084C301.181 54.3282 301.947 55.2162 302.875 55.9112C303.803 56.6065 304.871 57.0921 306.005 57.3349C306.233 57.3836 306.462 57.4212 306.689 57.4499L306.688 57.4822C305.354 57.2343 303.975 57.4897 302.818 58.199C301.662 58.9082 300.809 60.0211 300.425 61.3224L305.498 62.4049C305.79 62.4664 306.094 62.4096 306.345 62.2472C306.595 62.0847 306.771 61.8297 306.833 61.5381L309.357 49.7101C309.418 49.4184 309.362 49.1143 309.2 48.8643C309.038 48.6142 308.783 48.4385 308.492 48.3754Z" fill="black"/>
<path opacity="0.2" d="M307.667 48.1993L300.2 46.606C299.783 47.6879 299.605 48.8473 299.679 50.0044C299.753 51.1614 300.078 52.2887 300.629 53.3084C301.181 54.3282 301.947 55.2162 302.875 55.9112C303.803 56.6065 304.871 57.0921 306.005 57.3349C306.233 57.3836 306.462 57.4212 306.689 57.4499L306.688 57.4822C305.354 57.2343 303.975 57.4897 302.818 58.199C301.662 58.9082 300.809 60.0211 300.425 61.3224L304.673 62.2289C304.965 62.2903 305.269 62.2335 305.52 62.0711C305.77 61.9086 305.945 61.6536 306.008 61.3621L308.532 49.534C308.593 49.2423 308.537 48.9383 308.375 48.6882C308.212 48.4381 307.958 48.2624 307.667 48.1993Z" fill="black"/>
<path d="M307.667 48.1993L296.664 45.8516C296.056 45.722 295.459 46.1093 295.329 46.7168L292.981 57.7197C292.852 58.3272 293.239 58.9248 293.847 59.0544L304.849 61.4021C305.457 61.5318 306.054 61.1444 306.184 60.5369L308.532 49.534C308.661 48.9265 308.274 48.329 307.667 48.1993Z" fill="#038387"/>
<path d="M299.135 53.1946C298.887 52.9425 298.7 52.637 298.588 52.3013C298.483 51.9517 298.473 51.5808 298.558 51.2261C298.646 50.7417 298.909 50.3066 299.297 50.0033C299.701 49.7023 300.18 49.5177 300.682 49.4697C301.255 49.4076 301.835 49.4404 302.398 49.5667C303.145 49.6977 303.864 49.9597 304.521 50.3406L304.191 51.8861C303.924 51.6344 303.619 51.4264 303.287 51.2697C302.929 51.096 302.551 50.9664 302.161 50.8837C301.754 50.78 301.327 50.7778 300.919 50.8774C300.766 50.908 300.626 50.9825 300.515 51.0917C300.404 51.2009 300.327 51.34 300.294 51.4921C300.252 51.6801 300.285 51.8771 300.386 52.0414C300.506 52.2345 300.661 52.4039 300.842 52.5409C301.044 52.6989 301.349 52.9195 301.757 53.2028C301.804 53.2287 301.848 53.2584 301.889 53.2914C302.294 53.5583 302.676 53.8593 303.029 54.1912C303.296 54.4463 303.499 54.7613 303.62 55.11C303.738 55.5004 303.748 55.9155 303.648 56.3109C303.564 56.8107 303.309 57.2657 302.925 57.5975C302.55 57.8979 302.094 58.0809 301.615 58.1237C301.052 58.1769 300.483 58.1395 299.932 58.0131C299.436 57.9096 298.949 57.763 298.478 57.5753C298.079 57.4215 297.701 57.2188 297.352 56.9716L297.701 55.3378C298.013 55.6788 298.382 55.9621 298.793 56.1747C299.197 56.4021 299.632 56.5702 300.084 56.6737C300.499 56.7902 300.937 56.7907 301.352 56.6751C301.495 56.6301 301.624 56.5469 301.724 56.4345C301.824 56.3222 301.891 56.1848 301.919 56.037C301.942 55.9339 301.944 55.8274 301.925 55.7235C301.906 55.6196 301.867 55.5206 301.81 55.4321C301.663 55.212 301.481 55.0181 301.27 54.8581C301.031 54.6656 300.673 54.4035 300.194 54.0718C299.813 53.8155 299.458 53.5215 299.135 53.1946Z" fill="white"/>
</g>
</g>
<path fill-rule="evenodd" clip-rule="evenodd" d="M358.316 64.2573L370.315 60.9834C371.314 60.7002 371.458 59.985 370.599 59.4185L360.17 52.5828C359.656 52.2419 358.883 52.0019 358.129 51.9251C357.629 51.8771 357.139 51.9011 356.741 52.0115L355.674 52.3043L344.741 55.2854C343.742 55.5686 343.598 56.2839 344.453 56.8503L349.132 59.9178L350.361 60.7242L354.882 63.6861C355.602 64.2573 357.173 64.5405 358.316 64.2573Z" fill="white"/>
<path fill-rule="evenodd" clip-rule="evenodd" d="M362.62 64.2094L360.535 64.7662L358.172 65.3951C357.173 65.6783 355.602 65.3951 354.742 64.8238L349.718 61.4827L348.493 60.6667L347.888 60.2634L343.742 61.4011C342.743 61.6843 342.599 62.3996 343.454 62.9661L345.39 64.2334L346.624 65.0398L353.887 69.797C354.209 70.0082 354.608 70.1859 355.055 70.3011C355.703 70.4739 356.438 70.5315 357.149 70.4211C357.255 70.4067 357.355 70.3875 357.456 70.3635L357.754 70.2819L359.234 69.8786L369.455 67.0896C370.455 66.8064 370.599 66.0911 369.744 65.5247L366.17 63.2445L362.62 64.2094Z" fill="white" fill-opacity="0.75"/>
<path fill-rule="evenodd" clip-rule="evenodd" d="M364.887 69.3794L359.195 70.9251L357.725 71.3236L357.029 71.5108C356.664 71.6164 356.222 71.6452 355.766 71.6068C355.146 71.5588 354.502 71.3956 353.988 71.1555C353.849 71.0883 353.719 71.0163 353.599 70.9395L346.884 66.528L344.65 67.1424L342.739 67.6705C342.666 67.6897 342.599 67.7137 342.532 67.7377C342.498 67.7521 342.465 67.7665 342.431 67.7809C341.715 68.1121 341.691 68.7313 342.45 69.2354L342.532 69.2882L349.718 73.9974L351.087 74.895L352.883 76.0711C353.743 76.6424 355.17 76.9256 356.169 76.6424L357.673 76.2344L359.133 75.8359L364.479 74.3766L368.173 73.3685C368.62 73.2437 368.893 73.0277 368.985 72.7829C369.1 72.4756 368.932 72.1156 368.456 71.8036L364.887 69.3794Z" fill="white" fill-opacity="0.5"/>
<path d="M384.306 83.4153C384.325 83.8791 384.091 84.4845 383.524 85.1897C382.969 85.8803 382.161 86.5828 381.212 87.2198C379.295 88.5061 376.968 89.4178 375.302 89.4875C373.836 89.5487 372.703 88.6587 371.876 87.2504C371.047 85.8395 370.62 84.0472 370.564 82.6959C370.525 81.7784 371.274 80.9765 372.932 80.3507C374.522 79.7504 376.608 79.4603 378.423 79.3845C380.062 79.316 381.534 79.9478 382.611 80.8236C383.721 81.7269 384.279 82.7726 384.306 83.4153Z" fill="white" stroke="#333333" stroke-width="1.5"/>
<path d="M329.944 38.3041C329.837 39.3948 328.913 40.524 327.401 41.3682C325.916 42.1974 324.037 42.6442 322.359 42.4804C318.886 42.1417 316.772 39.9215 316.998 37.6067C317.087 36.6927 317.94 36.0023 319.668 35.6122C321.326 35.2381 323.432 35.2397 325.24 35.4161C327.017 35.5894 328.262 36.0214 329.02 36.562C329.749 37.0821 330.005 37.6758 329.944 38.3041Z" fill="white" stroke="#333333" stroke-width="1.5"/>
<g clip-path="url(#clip2_1208_209703)">
<path d="M48.5 23.75C42.146 23.75 37 28.896 37 35.25C37 40.339 40.292 44.637 44.863 46.16C45.438 46.261 45.653 45.916 45.653 45.614C45.653 45.341 45.639 44.436 45.639 43.472C42.75 44.004 42.003 42.768 41.773 42.122C41.643 41.791 41.083 40.77 40.593 40.497C40.191 40.281 39.616 39.749 40.579 39.735C41.485 39.721 42.132 40.569 42.348 40.914C43.383 42.654 45.036 42.164 45.697 41.862C45.797 41.115 46.099 40.612 46.43 40.324C43.871 40.037 41.198 39.045 41.198 34.646C41.198 33.396 41.643 32.361 42.376 31.556C42.261 31.268 41.859 30.089 42.491 28.508C42.491 28.508 43.454 28.206 45.654 29.687C46.574 29.428 47.551 29.299 48.529 29.299C49.506 29.299 50.484 29.429 51.404 29.687C53.604 28.192 54.566 28.508 54.566 28.508C55.199 30.089 54.796 31.268 54.681 31.556C55.414 32.361 55.86 33.381 55.86 34.646C55.86 39.059 53.172 40.036 50.613 40.324C51.03 40.684 51.389 41.374 51.389 42.452C51.389 43.99 51.375 45.226 51.375 45.614C51.375 45.916 51.591 46.276 52.165 46.161C56.709 44.637 60 40.324 60 35.25C60 28.896 54.854 23.75 48.5 23.75Z" fill="white"/>
</g>
</g>
<defs>
<clipPath id="clip0_1208_209703">
<rect width="448" height="254" fill="white"/>
</clipPath>
<clipPath id="clip1_1208_209703">
<rect width="27" height="27" fill="white" transform="translate(296.972 39.0155) rotate(12.0449)"/>
</clipPath>
<clipPath id="clip2_1208_209703">
<rect width="24" height="24" fill="white" transform="translate(36 23)"/>
</clipPath>
</defs>
</svg>
