<svg width="33" height="48" viewBox="0 0 33 48" fill="none" xmlns="http://www.w3.org/2000/svg">
<g clip-path="url(#clip0_111_171)">
<g clip-path="url(#clip1_111_171)">
<mask id="mask0_111_171" style="mask-type:luminance" maskUnits="userSpaceOnUse" x="-150" y="0" width="424" height="48">
<path d="M274 0H-150V48H274V0Z" fill="white"/>
</mask>
<g mask="url(#mask0_111_171)">
<path d="M26.514 15H22.037L22 17H26.514C28.343 17 30 18.3654 30 19.8828V34.2308C30 36.1538 29 38 26 38H6C3.714 38 2 36.6346 2 34.2308V20.2885C2 18.6563 3.756 17 5.201 17H10V15L5.448 15.0011C2.393 15.0011 0 17.1959 0 19.9975V34.5C0 37.5 2.393 40 5.448 40H26.553C29.606 40 32 37.8053 32 35.0042V19.9975C32 17.1947 29.57 15 26.514 15Z" fill="#FF6F3D"/>
<path d="M19.3751 22.5005L17.0001 25V9.5C17.0001 8.65581 16.3301 8 15.5001 8C14.6701 8 14.0001 8.65581 14.0001 9.5V25L11.6251 22.5005C11.0381 21.903 10.0871 21.903 9.50006 22.5005C8.91306 23.097 8.91306 23.9213 9.50006 24.5182L14.4381 29.5529C14.7321 29.8517 15.1161 30 15.5001 30C15.5041 30 15.5081 30 15.5121 30C15.5151 30 15.5191 30 15.5231 30C15.9071 30 16.2911 29.8517 16.5851 29.5529L21.5001 24.5177C22.0871 23.9208 22.0871 23.0964 21.5001 22.5C20.9131 21.9039 19.9631 21.9027 19.3751 22.5005Z" fill="#FF6F3D"/>
</g>
</g>
</g>
<defs>
<clipPath id="clip0_111_171">
<rect width="33" height="48" fill="white"/>
</clipPath>
<clipPath id="clip1_111_171">
<rect width="424" height="48" fill="white" transform="translate(-150)"/>
</clipPath>
</defs>
</svg>
