<svg width="74" height="74" viewBox="0 0 74 74" fill="none" xmlns="http://www.w3.org/2000/svg">
<g clip-path="url(#clip0_244_33319)">
<path fill-rule="evenodd" clip-rule="evenodd" d="M42 68V6H43V68H42Z" fill="#333333"/>
<path fill-rule="evenodd" clip-rule="evenodd" d="M16.8084 55.359C17.0155 55.1764 17.3314 55.1962 17.5141 55.4032C24.0217 62.7766 32.3669 67.0005 42.0554 67.0005C59.1904 67.0005 73.055 53.5547 73.055 37C73.055 20.4453 59.1904 6.99954 42.0554 6.99954C32.6324 6.99954 24.1946 11.0677 18.5103 17.4848C18.3273 17.6914 18.0113 17.7106 17.8045 17.5277C17.5978 17.3447 17.5786 17.0288 17.7616 16.8222C23.6317 10.1954 32.34 6 42.0554 6C59.7124 6 74.055 19.8635 74.055 37C74.055 54.1365 59.7124 68 42.0554 68C32.0449 68 23.4371 63.6252 16.7642 56.0644C16.5815 55.8574 16.6013 55.5416 16.8084 55.359Z" fill="#333333"/>
<path fill-rule="evenodd" clip-rule="evenodd" d="M36.998 36.5C36.998 36.2239 37.2213 36 37.4967 36H73.4994C73.7748 36 73.998 36.2239 73.998 36.5C73.998 36.7761 73.7748 37 73.4994 37H37.4967C37.2213 37 36.998 36.7761 36.998 36.5Z" fill="#333333"/>
<path fill-rule="evenodd" clip-rule="evenodd" d="M66.0858 16.506C66.2666 16.7147 66.2439 17.0305 66.0352 17.2113C60.4934 22.0113 52.0864 25.3601 42.1308 25.3601C40.2468 25.3601 36.7417 25.1186 34.9569 24.9048C34.6828 24.872 34.4871 24.6231 34.52 24.3489C34.5528 24.0747 34.8017 23.8791 35.0759 23.9119C36.8288 24.1219 40.2936 24.3601 42.1308 24.3601C51.8677 24.3601 60.0363 21.0843 65.3805 16.4554C65.5892 16.2746 65.905 16.2972 66.0858 16.506Z" fill="#333333"/>
<path fill-rule="evenodd" clip-rule="evenodd" d="M35.0935 47.5363C37.2934 47.2159 39.5762 47.0483 41.9133 47.0483C52.0943 47.0483 61.1602 50.2781 67.0571 55.3332C67.2667 55.5129 67.291 55.8286 67.1113 56.0382C66.9315 56.2479 66.6159 56.2721 66.4062 56.0924C60.7213 51.219 51.8994 48.0483 41.9133 48.0483C39.6238 48.0483 37.3893 48.2125 35.2377 48.5258C34.9644 48.5656 34.7106 48.3764 34.6708 48.1031C34.631 47.8299 34.8203 47.5761 35.0935 47.5363Z" fill="#333333"/>
<path fill-rule="evenodd" clip-rule="evenodd" d="M32.7043 10.5373C35.5294 7.69287 38.9048 6 42.2739 6C48.4587 6 53.0438 9.99383 56.0558 15.8117C59.0668 21.6272 60.5578 29.3452 60.5578 37.0329C60.5578 44.7207 59.0668 52.4386 56.0558 58.2542C53.0438 64.072 48.4587 68.0659 42.2739 68.0659C35.3588 68.0659 29.271 62.6348 25.203 52.8039C25.0975 52.5487 25.2187 52.2563 25.4739 52.1507C25.729 52.0451 26.0215 52.1664 26.1271 52.4216C30.1485 62.1401 35.9863 67.0659 42.2739 67.0659C47.945 67.0659 52.2519 63.4264 55.1678 57.7944C58.0848 52.1602 59.5578 44.6116 59.5578 37.0329C59.5578 29.4542 58.0848 21.9057 55.1678 16.2714C52.2519 10.6394 47.945 7 42.2739 7C39.2442 7 36.1097 8.52762 33.4138 11.242C30.7213 13.9529 28.734 16.9098 27.5323 21.5096C27.4625 21.7768 27.1893 21.9368 26.9221 21.867C26.655 21.7972 26.495 21.524 26.5648 21.2568C27.8067 16.5033 29.8756 13.3853 32.7043 10.5373Z" fill="#333333"/>
<path d="M3.05006 44.7012L3.05653 44.6983L3.06292 44.6952L7.43915 42.5566L15.7739 46.6339C16.4227 46.9574 17.2366 47.1067 18.0183 47.1067C18.7971 47.1067 19.6013 46.9584 20.2299 46.632L28.5608 42.5566L32.9332 44.6933C32.9339 44.6936 32.9345 44.6939 32.9351 44.6942C33.4368 44.9452 33.5 45.1717 33.5 45.2349C33.5 45.2895 33.4476 45.5044 32.9499 45.7303L32.9499 45.7302L32.9376 45.7361L19.7367 52.1677L19.7367 52.1677L19.7331 52.1694C19.3114 52.3791 18.686 52.5 18.0183 52.5C17.3533 52.5 16.712 52.38 16.2609 52.1665L3.06468 45.7372C2.56315 45.4863 2.5 45.2598 2.5 45.1966C2.5 45.1421 2.5524 44.9271 3.05006 44.7012Z" fill="url(#paint0_linear_244_33319)" stroke="#333333"/>
<path d="M16.2337 43.1356L16.2338 43.1354L16.2213 43.1293L3.06286 36.6914C2.56381 36.4406 2.5 36.2139 2.5 36.1492C2.5 36.0932 2.55312 35.8781 3.04821 35.6524L3.04829 35.6526L3.06084 35.6464L7.32812 33.5554L15.782 37.5886C16.4289 37.9118 17.2396 38.061 18.0183 38.061C18.794 38.061 19.595 37.9129 20.2219 37.5868L28.6719 33.5554L32.9351 35.6444C32.9357 35.6447 32.9363 35.645 32.937 35.6454C33.4362 35.8962 33.5 36.1229 33.5 36.1876C33.5 36.2437 33.4469 36.4587 32.9518 36.6844L32.9517 36.6842L32.9394 36.6902L19.7787 43.1293L19.7787 43.1293L19.7744 43.1314C19.3009 43.3688 18.6513 43.5 17.9817 43.5C17.3109 43.5 16.6779 43.3684 16.2337 43.1356Z" fill="url(#paint1_linear_244_33319)" stroke="#333333"/>
<path d="M3.04127 27.0443L3.04134 27.0445L3.05339 27.0388L16.2141 20.8573L16.2141 20.8573L16.2184 20.8553C16.6938 20.6264 17.3461 20.5 18.0183 20.5C18.6916 20.5 19.3275 20.6268 19.7737 20.8514L19.7736 20.8515L19.7859 20.8573L32.9423 27.0368C32.943 27.0371 32.9437 27.0374 32.9444 27.0378C33.4511 27.2822 33.5 27.4969 33.5 27.5368C33.5 27.5677 33.4624 27.7721 32.9587 27.9925L32.9587 27.9923L32.9466 27.998L19.7922 34.1765C19.3125 34.3851 18.6566 34.5 17.9817 34.5C17.304 34.5 16.6627 34.3841 16.2117 34.1784L3.05565 27.999C2.5489 27.7546 2.5 27.5399 2.5 27.5C2.5 27.4691 2.53757 27.2647 3.04127 27.0443Z" fill="url(#paint2_linear_244_33319)" stroke="#333333"/>
</g>
<defs>
<linearGradient id="paint0_linear_244_33319" x1="2.00006" y1="41.5703" x2="8.56508" y2="61.4146" gradientUnits="userSpaceOnUse">
<stop stop-color="#FF8E3D"/>
<stop offset="1" stop-color="#FF6F3D"/>
</linearGradient>
<linearGradient id="paint1_linear_244_33319" x1="2.00006" y1="32.5703" x2="8.56508" y2="52.4146" gradientUnits="userSpaceOnUse">
<stop stop-color="#FF8E3D"/>
<stop offset="1" stop-color="#FF6F3D"/>
</linearGradient>
<linearGradient id="paint2_linear_244_33319" x1="2.00006" y1="19.4141" x2="13.2536" y2="44.3593" gradientUnits="userSpaceOnUse">
<stop stop-color="#FF8E3D"/>
<stop offset="1" stop-color="#FF6F3D"/>
</linearGradient>
<clipPath id="clip0_244_33319">
<rect width="74" height="74" fill="white"/>
</clipPath>
</defs>
</svg>
