<svg width="618" height="378" viewBox="0 0 618 378" fill="none" xmlns="http://www.w3.org/2000/svg">
<path d="M525.824 316.745L525.824 316.745L531.538 312.492C532.11 312.067 532.856 311.983 533.502 312.246C535.06 312.882 536.659 313.418 538.288 313.853C538.962 314.032 539.507 314.55 539.706 315.235L541.692 322.078C541.945 322.948 542.769 323.523 543.672 323.461L560.203 322.328C561.105 322.266 561.843 321.583 561.975 320.688C561.975 320.687 561.975 320.687 561.975 320.687L563.009 313.637C563.112 312.931 563.581 312.344 564.224 312.074C565.778 311.421 567.29 310.671 568.746 309.829C569.35 309.481 570.101 309.461 570.725 309.805L576.967 313.238C576.967 313.238 576.967 313.238 576.967 313.238C577.76 313.674 578.75 313.498 579.344 312.816L590.232 300.326C590.826 299.644 590.865 298.639 590.325 297.913C590.325 297.913 590.325 297.913 590.325 297.913L586.072 292.198C585.646 291.626 585.563 290.88 585.826 290.235C586.461 288.677 586.998 287.077 587.432 285.449C587.612 284.774 588.13 284.23 588.815 284.031L595.658 282.044C595.658 282.044 595.658 282.044 595.658 282.044C596.527 281.792 597.103 280.967 597.041 280.065L595.908 263.534L595.908 263.533C595.846 262.631 595.163 261.893 594.267 261.762L587.217 260.728C586.511 260.625 585.924 260.156 585.654 259.512C585.001 257.958 584.251 256.447 583.409 254.99C583.06 254.387 583.041 253.636 583.385 253.011L586.818 246.77L586.818 246.77C587.254 245.977 587.078 244.987 586.396 244.392L573.905 233.505C573.223 232.91 572.218 232.871 571.493 233.411L571.493 233.412L565.778 237.665C565.206 238.09 564.46 238.174 563.814 237.91C562.256 237.275 560.657 236.738 559.028 236.304C558.354 236.124 557.809 235.607 557.611 234.922L555.624 228.079C555.624 228.079 555.624 228.078 555.624 228.078C555.371 227.209 554.547 226.633 553.645 226.695L537.113 227.829C536.211 227.891 535.473 228.574 535.342 229.469C535.342 229.469 535.341 229.469 535.341 229.47L534.308 236.52C534.204 237.226 533.735 237.813 533.092 238.083C531.538 238.735 530.027 239.485 528.57 240.327C527.966 240.676 527.216 240.695 526.591 240.352L520.35 236.919C520.35 236.919 520.35 236.919 520.349 236.919C519.556 236.483 518.567 236.659 517.972 237.341L507.085 249.831C506.49 250.513 506.451 251.518 506.991 252.244C506.991 252.244 506.991 252.244 506.991 252.244L511.244 257.959C511.67 258.53 511.753 259.277 511.49 259.922C510.855 261.48 510.318 263.08 509.884 264.708C509.704 265.382 509.187 265.927 508.502 266.126L501.658 268.113C501.658 268.113 501.658 268.113 501.658 268.113C500.789 268.365 500.213 269.19 500.275 270.092L501.409 286.623C501.471 287.525 502.153 288.263 503.049 288.395C503.049 288.395 503.049 288.395 503.049 288.395L510.1 289.429C510.805 289.532 511.392 290.001 511.663 290.645C512.315 292.199 513.065 293.71 513.907 295.167C514.256 295.77 514.275 296.521 513.932 297.145L510.499 303.387L510.498 303.387C510.062 304.18 510.238 305.17 510.92 305.764L523.411 316.652C524.093 317.247 525.098 317.285 525.824 316.745ZM560.843 261.099C568.552 267.818 569.356 279.555 562.637 287.263C555.918 294.972 544.182 295.777 536.473 289.057C528.765 282.338 527.96 270.602 534.679 262.894C541.398 255.185 553.134 254.38 560.843 261.099Z" stroke="#E3E3E3" stroke-width="2"/>
<path fill-rule="evenodd" clip-rule="evenodd" d="M135.461 190.887L145.174 185.942C147 185.011 147.934 182.968 147.415 181.033L141.169 157.722C140.651 155.787 138.821 154.484 136.774 154.591L125.889 155.165C125.536 155.184 125.199 155.014 125 154.72C123.494 152.491 121.83 150.363 120.025 148.354C119.782 148.084 119.701 147.705 119.815 147.361L123.189 137.199C123.824 135.284 123.016 133.21 121.249 132.218L99.9459 120.258C98.1783 119.265 95.9274 119.623 94.54 121.116L87.1569 129.064C86.9201 129.319 86.5679 129.432 86.2262 129.366C83.52 128.846 80.7782 128.507 78.0253 128.353C77.6701 128.333 77.3503 128.129 77.1857 127.814L72.26 118.373C71.3327 116.596 69.2563 115.707 67.2744 116.238L43.3948 122.636C41.4129 123.167 40.0592 124.975 40.1451 126.979L40.5994 137.617C40.6146 137.972 40.4394 138.309 40.1418 138.504C37.8351 140.014 35.6301 141.678 33.5464 143.482C33.2833 143.709 32.9218 143.788 32.5893 143.685L22.2211 140.493C20.2731 139.894 18.1452 140.711 17.1107 142.454L4.6416 163.462C3.60714 165.205 3.94423 167.406 5.4521 168.747L13.455 175.86C13.7261 176.101 13.8448 176.47 13.7697 176.825C13.2109 179.467 12.8344 182.142 12.6439 184.826C12.6188 185.179 12.4123 185.495 12.0966 185.656L2.38338 190.601C0.556996 191.532 -0.376197 193.575 0.142207 195.51L6.38839 218.821C6.90679 220.756 8.73664 222.059 10.7837 221.951L21.6682 221.377C22.0219 221.359 22.3586 221.529 22.557 221.823C24.0639 224.051 25.7274 226.18 27.5328 228.189C27.7752 228.459 27.8568 228.838 27.7425 229.182L24.3685 239.344C23.7331 241.259 24.5414 243.333 26.3087 244.325L47.6115 256.285C49.3789 257.277 51.6301 256.92 53.0175 255.427L60.4006 247.479C60.6374 247.224 60.9896 247.111 61.3313 247.176C64.0375 247.696 66.7793 248.035 69.5321 248.19C69.8874 248.21 70.2072 248.414 70.3717 248.729L75.2975 258.169C76.2247 259.947 78.3012 260.836 80.2831 260.305L104.163 253.907C106.145 253.376 107.498 251.567 107.412 249.564L106.958 238.926C106.943 238.57 107.118 238.234 107.416 238.039C109.722 236.529 111.927 234.864 114.011 233.061C114.274 232.833 114.636 232.755 114.968 232.857L125.336 236.049C127.284 236.649 129.412 235.832 130.447 234.089L142.916 213.08C143.95 211.338 143.613 209.137 142.105 207.796L134.103 200.683C133.831 200.442 133.713 200.073 133.788 199.718C134.347 197.075 134.723 194.4 134.914 191.717C134.939 191.363 135.145 191.048 135.461 190.887ZM73.8188 233C98.6716 233 118.819 212.853 118.819 188C118.819 163.147 98.6716 143 73.8188 143C48.966 143 28.8188 163.147 28.8188 188C28.8188 212.853 48.966 233 73.8188 233Z" fill="#EFEFEF"/>
<path d="M579.703 147.398L567.075 152.069C566.742 152.192 566.499 152.483 566.435 152.833C565.8 156.286 564.926 159.695 563.822 163.029C563.712 163.362 563.781 163.729 564.007 163.997L572.798 174.394C574.433 176.329 574.522 179.153 573.013 181.176L554.82 205.564C553.31 207.587 550.608 208.266 548.331 207.192L536.11 201.425C535.784 201.272 535.402 201.305 535.106 201.51C532.251 203.487 529.263 205.26 526.169 206.812C525.852 206.971 525.64 207.284 525.614 207.637L524.606 221.254C524.419 223.789 522.512 225.842 520.029 226.185L490.11 230.314C487.627 230.657 485.236 229.197 484.369 226.808L479.71 213.973C479.589 213.64 479.3 213.396 478.952 213.329C475.553 212.673 472.197 211.776 468.913 210.646C468.573 210.529 468.195 210.601 467.924 210.837L457.722 219.698C455.82 221.349 453.036 221.428 451.035 219.889L426.915 201.341C424.914 199.803 424.235 197.06 425.285 194.754L430.93 182.365C431.076 182.045 431.043 181.673 430.847 181.383C428.881 178.473 427.116 175.427 425.569 172.275C425.413 171.956 425.101 171.742 424.746 171.713L411.325 170.638C408.824 170.437 406.792 168.496 406.445 165.977L402.254 135.618C401.907 133.098 403.337 130.68 405.689 129.809L418.318 125.138C418.651 125.015 418.894 124.724 418.958 124.374C419.593 120.921 420.466 117.511 421.571 114.178C421.681 113.844 421.612 113.478 421.385 113.21L412.595 102.813C410.959 100.878 410.87 98.0534 412.38 96.0301L430.573 71.6423C432.082 69.6191 434.784 68.9409 437.062 70.0149L449.283 75.7812C449.608 75.9347 449.991 75.9011 450.287 75.6963C453.142 73.7198 456.13 71.9469 459.224 70.3948C459.541 70.2358 459.753 69.923 459.779 69.5694L460.787 55.9525C460.974 53.4176 462.88 51.3646 465.364 51.0219L495.283 46.8924C497.766 46.5496 500.157 48.0094 501.024 50.3989L505.683 63.2335C505.804 63.5668 506.092 63.8106 506.441 63.8778C509.839 64.5338 513.196 65.4309 516.48 66.5602C516.82 66.6772 517.197 66.6058 517.469 66.3699L527.671 57.5088C529.572 55.8579 532.357 55.7775 534.358 57.3176L558.478 75.8652C560.479 77.4039 561.158 80.1468 560.108 82.4524L554.462 94.8421C554.317 95.1613 554.35 95.5331 554.546 95.8238C556.512 98.734 558.277 101.779 559.823 104.931C559.98 105.25 560.292 105.465 560.646 105.493L574.068 106.569C576.569 106.77 578.6 108.71 578.948 111.23L583.138 141.589C583.486 144.109 582.056 146.526 579.703 147.398ZM524.375 134.231C521.928 116.507 505.727 104.048 488.26 106.459C470.793 108.87 458.572 125.252 461.018 142.976C463.464 160.699 479.666 173.158 497.133 170.747C514.6 168.337 526.821 151.955 524.375 134.231Z" fill="#F5F5F5"/>
<rect x="102.488" y="0.5" width="377" height="334" rx="9.5" fill="#F9F9F9" stroke="#AAAAAA"/>
<rect x="132.988" y="107" width="48" height="48" rx="6" fill="#EFEFEF"/>
<rect x="311.988" y="107" width="48" height="48" rx="6" fill="#EFEFEF"/>
<rect x="222.988" y="107" width="48" height="48" rx="6" fill="#EFEFEF"/>
<rect x="399.988" y="107" width="48" height="48" rx="6" fill="#EFEFEF"/>
<path d="M122 42.0661H128.066L128.5 36.866L122.866 35.5664L122 42.0661V42.0661Z" fill="#4C4C4C"/>
<path d="M123.082 34.6993L128.498 35.9993L129.798 31.4495L125.249 29.0667L123.082 34.6993V34.6993Z" fill="#4C4C4C"/>
<path d="M125.68 28.1997L130.013 30.5829L133.48 28.1997L130.23 24.5166L125.68 28.1997Z" fill="#4C4C4C"/>
<path d="M149.945 42.0661H143.879L143.445 36.866L149.079 35.5664L149.945 42.0661V42.0661Z" fill="#4C4C4C"/>
<path d="M148.864 34.6993L143.448 35.9993L142.148 31.4495L146.698 29.0667L148.864 34.6993V34.6993Z" fill="#4C4C4C"/>
<path d="M146.268 28.1997L141.935 30.5829L138.469 28.1997L141.719 24.5166L146.268 28.1997Z" fill="#4C4C4C"/>
<path d="M131.316 23.8666L134.566 27.7664H137.599L140.416 23.8666L137.599 23H134.49L131.316 23.8666V23.8666Z" fill="#4C4C4C"/>
<path d="M122 42.0661H128.066L128.5 36.866L122.866 35.5664L122 42.0661V42.0661Z" fill="#9C0000"/>
<path d="M123.082 34.6993L128.498 35.9993L129.798 31.4495L125.249 29.0667L123.082 34.6993V34.6993Z" fill="#B50808"/>
<path d="M125.68 28.1997L130.013 30.5829L133.48 28.1997L130.23 24.5166L125.68 28.1997Z" fill="#C61818"/>
<path d="M149.945 42.0661H143.879L143.445 36.866L149.079 35.5664L149.945 42.0661V42.0661Z" fill="#9C0000"/>
<path d="M148.864 34.6993L143.448 35.9993L142.148 31.4495L146.698 29.0667L148.864 34.6993V34.6993Z" fill="#B50808"/>
<path d="M146.268 28.1997L141.935 30.5829L138.469 28.1997L141.719 24.5166L146.268 28.1997Z" fill="#C61818"/>
<path d="M131.316 23.8666L134.566 27.7664H137.599L140.416 23.8666L137.599 23H134.49L131.316 23.8666V23.8666Z" fill="#CE3129"/>
<path d="M157.352 28.4072V42.0565H159.708V37.1818L164.149 42.0565H166.271V41.0996L162.398 37.0734C163.407 36.9457 164.203 36.4564 164.79 35.611C165.377 34.7656 165.68 33.8105 165.693 32.7403C165.712 31.4982 165.311 30.4709 164.501 29.662C163.691 28.8532 162.359 28.4361 160.493 28.4072H157.352ZM168.248 28.4072V42.0565H175.83V39.908H170.604V36.0082H174.44V33.8868H170.604V30.5106H175.614V28.4072H168.248ZM178.105 28.4072V42.0565H182.005C183.284 42.0351 184.315 41.6991 185.092 41.0454C185.869 40.3917 186.432 39.547 186.781 38.5178C187.129 37.4886 187.292 36.3979 187.286 35.2499C187.296 34.115 187.153 33.0371 186.844 32.0001C186.535 30.9631 186.008 30.1116 185.264 29.4454C184.519 28.7791 183.492 28.43 182.195 28.4072H178.105ZM159.708 30.4474H160.493C161.472 30.4542 162.178 30.6528 162.624 31.0522C163.069 31.4517 163.289 32.0114 163.282 32.7223C163.281 33.4598 163.09 34.0845 162.696 34.6C162.302 35.1154 161.715 35.3808 160.944 35.4034C160.647 35.3917 160.368 35.3501 160.114 35.268C159.859 35.1858 159.724 35.1353 159.708 35.1235V30.4474ZM180.443 30.4474H182.113C182.939 30.4724 183.553 30.7524 183.955 31.2869C184.357 31.8215 184.618 32.4568 184.74 33.2007C184.863 33.9447 184.915 34.6418 184.903 35.2951C184.914 35.9672 184.853 36.6675 184.713 37.3894C184.573 38.1113 184.293 38.7257 183.874 39.231C183.454 39.7362 182.832 39.9941 182.005 40.0163H180.443V30.4474Z" fill="#9C0000"/>
<path d="M190.086 28.4075V42.0567H192.451V34.537L192.271 32.9572L195.439 42.0567H197.389L200.549 32.9572L200.377 34.537V42.0567H202.742V28.4075H199.962L196.712 37.6604C196.605 37.9859 196.534 38.2639 196.486 38.5C196.438 38.736 196.413 38.8588 196.414 38.8701C196.415 38.8602 196.39 38.741 196.342 38.509C196.294 38.277 196.215 37.9954 196.107 37.6604L192.857 28.4075H190.086ZM205.857 28.4075V42.0567H208.195V28.4075H205.857ZM211.21 28.4075V42.0567H213.575V34.3023C213.569 33.8293 213.538 33.4104 213.494 33.0565C213.449 32.7027 213.428 32.5239 213.421 32.5059L217.728 42.0567H220.002V28.4075H217.646C217.646 30.5597 217.646 32.1691 217.646 33.2371C217.646 34.3051 217.646 35.0519 217.646 35.4668C217.646 35.8818 217.646 36.1853 217.646 36.3786C217.646 36.5718 217.646 36.8695 217.646 37.2723C217.642 37.2389 217.575 37.006 217.457 36.5772C217.338 36.1484 217.192 35.7187 217.014 35.2953L213.981 28.4075H211.21ZM223.171 28.4075V42.0567H230.754V39.9082H225.527V36.0085H229.364V33.887H225.527V30.5108H230.537V28.4075H223.171Z" fill="#CE3129"/>
<path d="M159.702 45.8391C159.681 45.8312 159.538 45.8507 159.269 45.9023C158.999 45.9539 158.726 46.0844 158.456 46.2905C158.187 46.4965 158.044 46.828 158.023 47.2835V47.789H157.445V48.466L158.023 48.5653V52.2124H158.971V48.5834H159.792V47.789H158.971V47.3286C158.982 47.0828 159.062 46.902 159.206 46.787C159.349 46.6719 159.486 46.6021 159.63 46.5703C159.773 46.5385 159.854 46.5212 159.865 46.5252L159.702 45.8391ZM160.46 45.9384V50.3618C160.465 50.8773 160.493 51.2828 160.551 51.5805C160.608 51.8782 160.668 52.0896 160.722 52.2124H161.697C161.597 51.8848 161.524 51.5853 161.471 51.3096C161.419 51.0339 161.391 50.7165 161.39 50.3618V45.9384H160.46ZM172.963 45.9384V51.761C173.191 51.9355 173.442 52.0785 173.712 52.1853C173.983 52.2921 174.261 52.3448 174.552 52.3478C175.03 52.3378 175.412 52.2046 175.689 51.9416C175.967 51.6785 176.159 51.345 176.276 50.9486C176.393 50.5521 176.451 50.1491 176.448 49.7389C176.45 49.2176 176.318 48.7436 176.051 48.3216C175.783 47.8996 175.367 47.6784 174.805 47.6536C174.65 47.6587 174.485 47.7061 174.317 47.798C174.15 47.89 174.017 47.9961 173.911 48.114V45.9384H172.963ZM177.36 45.9384V50.3618C177.364 50.8773 177.392 51.2828 177.45 51.5805C177.508 51.8782 177.567 52.0896 177.621 52.2124H178.596C178.497 51.8848 178.423 51.5853 178.371 51.3096C178.318 51.0339 178.29 50.7165 178.289 50.3618V45.9384H177.36ZM171.212 46.0738C171.039 46.0783 170.894 46.137 170.77 46.2544C170.645 46.3717 170.577 46.5207 170.571 46.6967C170.576 46.8669 170.636 47.0061 170.752 47.112C170.867 47.2178 171.008 47.2712 171.176 47.2744C171.349 47.2699 171.494 47.2113 171.618 47.0939C171.742 46.9765 171.811 46.8276 171.817 46.6516C171.812 46.4814 171.752 46.3422 171.636 46.2363C171.521 46.1304 171.379 46.077 171.212 46.0738ZM198.935 46.0738C198.762 46.0783 198.617 46.137 198.492 46.2544C198.368 46.3717 198.3 46.5207 198.294 46.6967C198.299 46.8669 198.359 47.0061 198.474 47.112C198.59 47.2178 198.731 47.2712 198.899 47.2744C199.071 47.2699 199.217 47.2113 199.341 47.0939C199.465 46.9765 199.534 46.8276 199.54 46.6516C199.535 46.4814 199.475 46.3422 199.359 46.2363C199.244 46.1304 199.102 46.077 198.935 46.0738ZM208.72 46.9946V47.789H208.116V48.466L208.684 48.5653V51.2374C208.681 51.5443 208.752 51.8016 208.892 52.0138C209.032 52.2259 209.261 52.3388 209.587 52.3478C209.796 52.3484 209.966 52.328 210.092 52.2846C210.218 52.2411 210.37 52.1712 210.553 52.077L210.327 51.4089C210.321 51.4138 210.272 51.4379 210.174 51.4721C210.076 51.5064 209.968 51.5214 209.858 51.5263C209.754 51.5222 209.693 51.4921 209.668 51.427C209.643 51.3619 209.628 51.2867 209.632 51.2103V48.5924H210.417V47.789H209.614V46.9946H208.72ZM258.506 46.9946V47.789H257.901V48.466L258.47 48.5653V51.2374C258.466 51.5443 258.538 51.8016 258.677 52.0138C258.817 52.2259 259.047 52.3388 259.372 52.3478C259.582 52.3484 259.752 52.328 259.878 52.2846C260.004 52.2411 260.156 52.1712 260.338 52.077L260.113 51.4089C260.106 51.4138 260.057 51.4379 259.959 51.4721C259.861 51.5064 259.754 51.5214 259.643 51.5263C259.539 51.5222 259.479 51.4921 259.454 51.427C259.429 51.3619 259.413 51.2867 259.418 51.2103V48.5924H260.203V47.789H259.4V46.9946H258.506ZM164.36 47.6536C163.747 47.6769 163.269 47.9146 162.934 48.3577C162.599 48.8008 162.433 49.3094 162.428 49.8924C162.425 50.2751 162.48 50.6565 162.591 51.0298C162.702 51.4031 162.882 51.7106 163.142 51.9596C163.401 52.2086 163.755 52.3382 164.198 52.3478C164.459 52.3399 164.734 52.2677 165.019 52.1311C165.305 51.9946 165.547 51.8411 165.75 51.6707L165.434 51.0569C165.275 51.1799 165.091 51.2927 164.875 51.3909C164.658 51.4891 164.448 51.5387 164.252 51.5444C163.931 51.5161 163.706 51.3446 163.575 51.0208C163.444 50.6969 163.381 50.39 163.385 50.109C163.384 50.0549 163.387 50.0007 163.394 49.9465H165.976C165.976 49.8472 165.979 49.7479 165.976 49.6486C165.973 49.5493 165.967 49.45 165.967 49.3507C165.943 48.9127 165.779 48.5238 165.48 48.1862C165.18 47.8486 164.809 47.6718 164.36 47.6536ZM181.259 47.6536C180.646 47.6769 180.168 47.9146 179.833 48.3577C179.498 48.8008 179.332 49.3094 179.327 49.8924C179.325 50.2751 179.379 50.6565 179.49 51.0298C179.601 51.4031 179.781 51.7106 180.041 51.9596C180.3 52.2086 180.654 52.3382 181.097 52.3478C181.358 52.3399 181.633 52.2677 181.918 52.1311C182.204 51.9946 182.447 51.8411 182.65 51.6707L182.334 51.0569C182.174 51.1799 181.99 51.2927 181.774 51.3909C181.558 51.4891 181.347 51.5387 181.151 51.5444C180.831 51.5161 180.605 51.3446 180.474 51.0208C180.343 50.6969 180.28 50.39 180.284 50.109C180.283 50.0549 180.286 50.0007 180.293 49.9465H182.875C182.875 49.8472 182.878 49.7479 182.875 49.6486C182.873 49.5493 182.867 49.45 182.866 49.3507C182.842 48.9127 182.678 48.5238 182.379 48.1862C182.079 47.8486 181.708 47.6718 181.259 47.6536ZM188.526 47.6536C188.271 47.666 188.056 47.7292 187.885 47.8432C187.714 47.9571 187.604 48.0474 187.551 48.114V47.789H186.594V53.7921H187.551V51.8964C187.642 52.0535 187.773 52.1671 187.94 52.2395C188.107 52.3119 188.283 52.3487 188.472 52.3478C188.925 52.3364 189.272 52.2007 189.519 51.9325C189.766 51.6644 189.939 51.328 190.034 50.9395C190.128 50.551 190.174 50.1745 190.169 49.8021C190.171 49.2821 190.04 48.7999 189.772 48.3577C189.504 47.9156 189.088 47.6816 188.526 47.6536ZM192.859 47.6536C192.704 47.6728 192.554 47.754 192.408 47.8883C192.262 48.0226 192.184 48.0948 192.173 48.114V47.789H191.216V52.2124H192.164V48.9174C192.173 48.9009 192.241 48.8347 192.363 48.7188C192.485 48.603 192.607 48.5368 192.733 48.5202C192.849 48.527 192.96 48.5541 193.067 48.6015C193.174 48.6488 193.231 48.6759 193.239 48.6827L193.392 47.789C193.391 47.7834 193.348 47.7653 193.257 47.7258C193.166 47.6863 193.032 47.6592 192.859 47.6536ZM195.64 47.6536C195.031 47.6826 194.575 47.9338 194.277 48.4119C193.979 48.8899 193.833 49.4211 193.834 50.0007C193.833 50.5843 193.979 51.1131 194.277 51.5895C194.575 52.0659 195.031 52.3194 195.64 52.3478C196.248 52.3194 196.705 52.0659 197.003 51.5895C197.301 51.1131 197.446 50.5843 197.445 50.0007C197.446 49.4211 197.301 48.8899 197.003 48.4119C196.705 47.9338 196.248 47.6826 195.64 47.6536ZM202.311 47.6536C201.697 47.6769 201.22 47.9146 200.885 48.3577C200.55 48.8008 200.383 49.3094 200.379 49.8924C200.376 50.2751 200.431 50.6565 200.542 51.0298C200.652 51.4031 200.833 51.7106 201.092 51.9596C201.351 52.2086 201.706 52.3382 202.148 52.3478C202.41 52.3399 202.685 52.2677 202.97 52.1311C203.255 51.9946 203.498 51.8411 203.701 51.6707L203.385 51.0569C203.225 51.1799 203.042 51.2927 202.826 51.3909C202.609 51.4891 202.399 51.5387 202.203 51.5444C201.882 51.5161 201.656 51.3446 201.526 51.0208C201.395 50.6969 201.331 50.39 201.336 50.109C201.335 50.0549 201.337 50.0007 201.345 49.9465H203.927C203.927 49.8472 203.929 49.7479 203.927 49.6486C203.924 49.5493 203.918 49.45 203.918 49.3507C203.894 48.9127 203.73 48.5238 203.43 48.1862C203.131 47.8486 202.759 47.6718 202.311 47.6536ZM206.445 47.6536C206.025 47.6629 205.677 47.7904 205.407 48.0327C205.138 48.2751 204.94 48.5808 204.812 48.9445C204.683 49.3082 204.621 49.6724 204.622 50.0458C204.622 50.4067 204.689 50.7612 204.821 51.111C204.952 51.4609 205.15 51.7542 205.416 51.9867C205.682 52.2192 206.015 52.3389 206.418 52.3478C206.669 52.3434 206.92 52.281 207.177 52.1672C207.434 52.0535 207.658 51.9143 207.845 51.743L207.52 51.093C207.383 51.2026 207.223 51.3072 207.032 51.3999C206.841 51.4926 206.655 51.5385 206.482 51.5444C206.251 51.5346 206.073 51.4414 205.94 51.2555C205.806 51.0695 205.707 50.8506 205.651 50.6055C205.595 50.3604 205.568 50.1428 205.57 49.9555C205.569 49.7778 205.6 49.5743 205.66 49.3417C205.72 49.1091 205.819 48.9043 205.949 48.7278C206.079 48.5514 206.245 48.4572 206.454 48.448C206.594 48.4494 206.741 48.4826 206.888 48.5383C207.035 48.5939 207.159 48.6631 207.267 48.7549L207.745 48.1952C207.592 48.0147 207.392 47.8793 207.15 47.789C206.908 47.6987 206.675 47.6536 206.445 47.6536ZM216.177 47.6536C215.983 47.6628 215.778 47.7222 215.554 47.8251C215.33 47.928 215.165 48.019 215.067 48.105V47.789H214.119V52.2124H215.067V48.9625C215.156 48.8869 215.305 48.7922 215.518 48.6737C215.731 48.5552 215.934 48.4875 216.123 48.4751C216.273 48.4781 216.374 48.5353 216.43 48.6376C216.485 48.7399 216.514 48.8693 216.511 49.0348V52.2124H217.459V48.8813C217.56 48.8012 217.692 48.7199 217.856 48.6285C218.02 48.5371 218.201 48.483 218.398 48.4751C218.548 48.4728 218.649 48.5089 218.705 48.5744C218.76 48.6398 218.789 48.7482 218.786 48.9084V52.2124H219.734V48.9084C219.743 48.552 219.658 48.2594 219.472 48.0237C219.286 47.7881 218.944 47.6624 218.452 47.6536C218.224 47.6647 218 47.7316 217.775 47.8522C217.549 47.9727 217.361 48.0803 217.215 48.1772C217.12 48.0487 216.99 47.9321 216.818 47.8251C216.645 47.7181 216.429 47.6602 216.177 47.6536ZM222.505 47.6536C222.214 47.6593 221.926 47.7405 221.647 47.8883C221.369 48.0361 221.139 48.2167 220.952 48.439L221.277 49.0077C221.423 48.8666 221.602 48.7448 221.81 48.6376C222.017 48.5304 222.22 48.4717 222.424 48.466C222.58 48.463 222.708 48.4916 222.803 48.5563C222.898 48.621 222.945 48.7399 222.947 48.9084V49.3507L221.006 50.1903C220.94 50.3166 220.881 50.4611 220.826 50.6236C220.771 50.7861 220.739 50.9395 220.736 51.084C220.735 51.4802 220.834 51.7924 221.034 52.0138C221.233 52.2351 221.535 52.3442 221.936 52.3478C222.191 52.3466 222.407 52.288 222.586 52.1763C222.765 52.0646 222.923 51.9066 223.056 51.6978C223.095 51.8983 223.185 52.0548 223.326 52.1672C223.468 52.2797 223.639 52.3369 223.841 52.3388C223.955 52.3382 224.066 52.3179 224.175 52.2846C224.284 52.2513 224.386 52.2084 224.482 52.1492L224.238 51.6707C224.211 51.6848 224.184 51.6961 224.157 51.7068C224.13 51.7176 224.103 51.7243 224.076 51.7249C224.009 51.7219 223.965 51.7008 223.94 51.6527C223.916 51.6045 223.903 51.5474 223.904 51.4902V48.9174C223.897 48.4856 223.763 48.1666 223.507 47.9605C223.251 47.7544 222.919 47.6521 222.505 47.6536ZM227.434 47.6536C227.232 47.6581 227.017 47.7078 226.793 47.798C226.569 47.8883 226.381 47.9921 226.224 48.114V47.789H225.276V52.2124H226.224V48.9445C226.34 48.8499 226.506 48.7513 226.712 48.6466C226.918 48.5418 227.119 48.4839 227.326 48.4751C227.471 48.473 227.568 48.5108 227.614 48.5834C227.661 48.656 227.682 48.7749 227.678 48.9445V52.2124H228.626V48.9445C228.639 48.5945 228.567 48.2913 228.409 48.0418C228.251 47.7922 227.926 47.6651 227.434 47.6536ZM231.397 47.6536C231.106 47.6593 230.818 47.7405 230.539 47.8883C230.261 48.0361 230.031 48.2167 229.844 48.439L230.169 49.0077C230.315 48.8666 230.494 48.7448 230.702 48.6376C230.909 48.5304 231.112 48.4717 231.316 48.466C231.472 48.463 231.6 48.4916 231.695 48.5563C231.79 48.621 231.837 48.7399 231.839 48.9084V49.3507L229.898 50.1903C229.832 50.3166 229.773 50.4611 229.718 50.6236C229.663 50.7861 229.631 50.9395 229.628 51.084C229.627 51.4802 229.726 51.7924 229.925 52.0138C230.125 52.2351 230.427 52.3442 230.828 52.3478C231.083 52.3466 231.299 52.288 231.478 52.1763C231.657 52.0646 231.815 51.9066 231.948 51.6978C231.987 51.8983 232.077 52.0548 232.218 52.1672C232.359 52.2797 232.531 52.3369 232.733 52.3388C232.847 52.3382 232.958 52.3179 233.067 52.2846C233.176 52.2513 233.278 52.2084 233.374 52.1492L233.13 51.6707C233.103 51.6848 233.076 51.6961 233.049 51.7068C233.022 51.7176 232.995 51.7243 232.968 51.7249C232.901 51.7219 232.857 51.7008 232.832 51.6527C232.808 51.6045 232.795 51.5474 232.796 51.4902V48.9174C232.789 48.4856 232.655 48.1666 232.399 47.9605C232.143 47.7544 231.811 47.6521 231.397 47.6536ZM235.549 47.6536C235.064 47.6594 234.681 47.8046 234.394 48.0869C234.107 48.3692 233.958 48.7536 233.952 49.2424C233.95 49.5049 234.009 49.7607 234.132 50.0097C234.255 50.2587 234.449 50.4423 234.71 50.5604C234.545 50.6198 234.402 50.7086 234.277 50.8312C234.152 50.9538 234.085 51.1058 234.078 51.2826C234.083 51.4413 234.136 51.5842 234.24 51.7068C234.345 51.8295 234.47 51.9002 234.611 51.9235C234.431 51.9972 234.252 52.1161 234.078 52.2756C233.904 52.435 233.811 52.6261 233.798 52.8533C233.818 53.2763 233.992 53.5734 234.313 53.747C234.634 53.9206 234.984 54.0056 235.369 53.9998C235.871 53.9978 236.324 53.855 236.732 53.5755C237.14 53.296 237.358 52.8913 237.382 52.3568C237.372 52.0307 237.257 51.787 237.039 51.6166C236.821 51.4462 236.557 51.3559 236.245 51.3548H235.956C235.826 51.3629 235.644 51.3681 235.414 51.3638C235.184 51.3595 235.06 51.297 235.035 51.1833C235.048 51.0383 235.121 50.9412 235.252 50.8854C235.382 50.8295 235.491 50.7911 235.577 50.777C235.631 50.7641 235.679 50.7573 235.73 50.75C235.781 50.7426 235.834 50.7313 235.883 50.7229C236.251 50.6296 236.535 50.4596 236.732 50.2083C236.929 49.9571 237.028 49.6426 237.03 49.2695C237.028 49.1559 237.019 49.04 236.994 48.9264C236.969 48.8128 236.936 48.706 236.904 48.6015H237.418V47.789H236.29C236.176 47.7399 236.055 47.7015 235.929 47.6807C235.802 47.6598 235.677 47.653 235.549 47.6536ZM239.919 47.6536C239.305 47.6769 238.827 47.9146 238.492 48.3577C238.157 48.8008 237.991 49.3094 237.987 49.8924C237.984 50.2751 238.039 50.6565 238.149 51.0298C238.26 51.4031 238.441 51.7106 238.7 51.9596C238.959 52.2086 239.314 52.3382 239.756 52.3478C240.018 52.3399 240.292 52.2677 240.578 52.1311C240.863 51.9946 241.106 51.8411 241.309 51.6707L240.993 51.0569C240.833 51.1799 240.649 51.2927 240.433 51.3909C240.217 51.4891 240.006 51.5387 239.81 51.5444C239.49 51.5161 239.264 51.3446 239.133 51.0208C239.002 50.6969 238.939 50.39 238.944 50.109C238.942 50.0549 238.945 50.0007 238.953 49.9465H241.535C241.534 49.8472 241.537 49.7479 241.535 49.6486C241.532 49.5493 241.526 49.45 241.526 49.3507C241.501 48.9127 241.337 48.5238 241.038 48.1862C240.739 47.8486 240.367 47.6718 239.919 47.6536ZM244.595 47.6536C244.401 47.6628 244.196 47.7222 243.972 47.8251C243.748 47.928 243.583 48.019 243.484 48.105V47.789H242.537V52.2124H243.484V48.9625C243.574 48.8869 243.723 48.7922 243.936 48.6737C244.149 48.5552 244.352 48.4875 244.541 48.4751C244.691 48.4781 244.792 48.5353 244.848 48.6376C244.903 48.7399 244.932 48.8693 244.929 49.0348V52.2124H245.877V48.8813C245.978 48.8012 246.11 48.7199 246.274 48.6285C246.438 48.5371 246.619 48.483 246.816 48.4751C246.966 48.4728 247.067 48.5089 247.122 48.5744C247.178 48.6398 247.207 48.7482 247.204 48.9084V52.2124H248.152V48.9084C248.161 48.552 248.076 48.2594 247.89 48.0237C247.704 47.7881 247.361 47.6624 246.87 47.6536C246.642 47.6647 246.418 47.7316 246.193 47.8522C245.967 47.9727 245.779 48.0803 245.633 48.1772C245.538 48.0487 245.408 47.9321 245.236 47.8251C245.063 47.7181 244.847 47.6602 244.595 47.6536ZM251.131 47.6536C250.517 47.6769 250.039 47.9146 249.704 48.3577C249.369 48.8008 249.203 49.3094 249.199 49.8924C249.196 50.2751 249.25 50.6565 249.361 51.0298C249.472 51.4031 249.653 51.7106 249.912 51.9596C250.171 52.2086 250.526 52.3382 250.968 52.3478C251.23 52.3399 251.504 52.2677 251.79 52.1311C252.075 51.9946 252.318 51.8411 252.521 51.6707L252.205 51.0569C252.045 51.1799 251.861 51.2927 251.645 51.3909C251.429 51.4891 251.218 51.5387 251.022 51.5444C250.702 51.5161 250.476 51.3446 250.345 51.0208C250.214 50.6969 250.151 50.39 250.156 50.109C250.154 50.0549 250.157 50.0007 250.165 49.9465H252.746C252.746 49.8472 252.749 49.7479 252.746 49.6486C252.744 49.5493 252.738 49.45 252.737 49.3507C252.713 48.9127 252.549 48.5238 252.25 48.1862C251.951 47.8486 251.579 47.6718 251.131 47.6536ZM255.897 47.6536C255.695 47.6581 255.48 47.7078 255.256 47.798C255.032 47.8883 254.844 47.9921 254.687 48.114V47.789H253.739V52.2124H254.687V48.9445C254.803 48.8499 254.969 48.7513 255.175 48.6466C255.381 48.5418 255.583 48.4839 255.789 48.4751C255.934 48.473 256.031 48.5108 256.078 48.5834C256.124 48.656 256.145 48.7749 256.141 48.9445V52.2124H257.089V48.9445C257.102 48.5945 257.03 48.2913 256.872 48.0418C256.714 47.7922 256.389 47.6651 255.897 47.6536ZM166.464 47.789L167.664 49.9285L166.382 52.2124H167.42L168.188 50.7138L168.982 52.2124H170.065L168.711 49.8743C168.769 49.7775 168.891 49.5639 169.081 49.2334C169.272 48.9029 169.457 48.5819 169.632 48.2765C169.807 47.9711 169.9 47.8106 169.912 47.789H168.874L168.197 49.116L167.529 47.789H166.464ZM170.724 47.789V52.2124H171.654V47.789H170.724ZM198.456 47.789V52.5374C198.449 52.7277 198.385 52.8887 198.258 53.0158C198.13 53.1429 197.98 53.2317 197.815 53.2866L198.014 53.9637C198.308 53.8867 198.609 53.7506 198.908 53.5484C199.206 53.3462 199.363 53.025 199.386 52.5915V47.789H198.456ZM235.495 48.3397C235.731 48.351 235.891 48.4503 235.983 48.6285C236.075 48.8068 236.122 48.9964 236.118 49.2063C236.122 49.4103 236.08 49.5992 235.992 49.766C235.903 49.9328 235.744 50.0178 235.513 50.0278C235.254 50.0191 235.083 49.9303 234.999 49.7569C234.914 49.5836 234.874 49.3774 234.881 49.1431C234.878 48.9358 234.926 48.7523 235.017 48.5924C235.108 48.4326 235.264 48.3483 235.495 48.3397ZM164.297 48.3577C164.527 48.3653 164.7 48.445 164.821 48.6015C164.941 48.7579 165.011 48.946 165.028 49.1611H163.521C163.568 48.95 163.652 48.7686 163.773 48.6105C163.895 48.4523 164.069 48.3658 164.297 48.3577ZM181.196 48.3577C181.426 48.3653 181.6 48.445 181.72 48.6015C181.84 48.7579 181.91 48.946 181.927 49.1611H180.42C180.467 48.95 180.551 48.7686 180.673 48.6105C180.794 48.4523 180.969 48.3658 181.196 48.3577ZM202.248 48.3577C202.477 48.3653 202.651 48.445 202.771 48.6015C202.892 48.7579 202.961 48.946 202.979 49.1611H201.471C201.518 48.95 201.603 48.7686 201.724 48.6105C201.846 48.4523 202.02 48.3658 202.248 48.3577ZM239.855 48.3577C240.085 48.3653 240.259 48.445 240.379 48.6015C240.499 48.7579 240.569 48.946 240.587 49.1611H239.079C239.126 48.95 239.21 48.7686 239.332 48.6105C239.453 48.4523 239.628 48.3658 239.855 48.3577ZM251.067 48.3577C251.297 48.3653 251.471 48.445 251.591 48.6015C251.711 48.7579 251.781 48.946 251.799 49.1611H250.291C250.338 48.95 250.422 48.7686 250.544 48.6105C250.665 48.4523 250.84 48.3658 251.067 48.3577ZM195.64 48.466C195.909 48.4803 196.121 48.6368 196.272 48.9355C196.422 49.2341 196.495 49.5892 196.497 50.0007C196.495 50.4161 196.422 50.7689 196.272 51.0659C196.121 51.3629 195.909 51.5216 195.64 51.5353C195.371 51.5216 195.158 51.3629 195.008 51.0659C194.858 50.7689 194.785 50.4161 194.782 50.0007C194.785 49.5892 194.858 49.2341 195.008 48.9355C195.158 48.6368 195.371 48.4803 195.64 48.466ZM174.724 48.5022C175.039 48.527 175.247 48.685 175.346 48.9806C175.446 49.2762 175.491 49.5606 175.482 49.8292C175.485 50.0212 175.463 50.2547 175.419 50.5243C175.374 50.7939 175.291 51.028 175.166 51.2374C175.04 51.4468 174.856 51.56 174.615 51.5714C174.499 51.5691 174.382 51.5466 174.254 51.4992C174.127 51.4518 174.009 51.3931 173.911 51.3277V48.9535C174.008 48.8597 174.135 48.7641 174.29 48.6646C174.446 48.5652 174.59 48.5102 174.724 48.5022ZM188.436 48.5022C188.76 48.5285 188.972 48.697 189.068 49.0077C189.164 49.3184 189.204 49.6133 189.194 49.8924C189.198 50.0632 189.182 50.2799 189.149 50.5333C189.116 50.7867 189.051 51.0101 188.942 51.2103C188.833 51.4106 188.661 51.515 188.436 51.5263C188.067 51.5 187.83 51.3269 187.714 51.0027C187.598 50.6785 187.541 50.361 187.551 50.0548V48.9535C187.656 48.8478 187.781 48.75 187.93 48.6556C188.08 48.5612 188.25 48.5086 188.436 48.5022ZM222.965 50.1541V50.3166C222.963 50.6059 222.882 50.8827 222.722 51.1472C222.561 51.4116 222.336 51.553 222.045 51.5714C221.909 51.5666 221.808 51.5154 221.738 51.418C221.667 51.3206 221.63 51.2062 221.629 51.0749C221.63 51.011 221.642 50.9448 221.656 50.8763C221.671 50.8079 221.683 50.7417 221.702 50.6777L222.965 50.1541ZM231.857 50.1541V50.3166C231.855 50.6059 231.774 50.8827 231.614 51.1472C231.453 51.4116 231.228 51.553 230.937 51.5714C230.801 51.5666 230.7 51.5154 230.63 51.418C230.559 51.3206 230.522 51.2062 230.521 51.0749C230.522 51.011 230.534 50.9448 230.548 50.8763C230.563 50.8079 230.575 50.7417 230.593 50.6777L231.857 50.1541ZM235.261 52.086H235.784C235.919 52.0789 236.063 52.0954 236.217 52.1311C236.372 52.1669 236.457 52.2647 236.47 52.429C236.459 52.7107 236.349 52.9259 236.136 53.079C235.924 53.2321 235.678 53.3118 235.405 53.3137C235.231 53.318 235.079 53.2812 234.945 53.1963C234.81 53.1115 234.735 52.9528 234.728 52.7269C234.75 52.5383 234.843 52.3841 234.999 52.2665C235.154 52.149 235.238 52.0896 235.261 52.086Z" fill="#636363"/>
<rect x="109.988" y="64" width="362" height="19" rx="3" fill="#6A8DB2"/>
<g filter="url(#filter0_d_3114)">
<rect x="58.9883" y="175" width="163" height="177" rx="3" fill="white"/>
<rect x="59.4883" y="175.5" width="162" height="176" rx="2.5" stroke="#333333"/>
</g>
<path d="M233.488 175.5H61.9883C60.6076 175.5 59.4883 176.619 59.4883 178V197.5H233.488V175.5Z" fill="#8BB825" stroke="#333333"/>
<g style="mix-blend-mode:soft-light" opacity="0.6">
<rect x="67.5" y="184.5" width="56" height="5" rx="2.5" fill="#C4C4C4"/>
<rect x="67.5" y="184.5" width="56" height="5" rx="2.5" stroke="white"/>
</g>
<rect x="75.9883" y="312" width="123" height="2" rx="1" fill="#E6E6E6"/>
<rect x="77.9883" y="302" width="31" height="2" rx="0.999999" transform="rotate(90 77.9883 302)" fill="#E6E6E6"/>
<rect x="129.988" y="302" width="31" height="2" rx="0.999999" transform="rotate(90 129.988 302)" fill="#E6E6E6"/>
<rect x="103.988" y="302" width="31" height="2" rx="0.999999" transform="rotate(90 103.988 302)" fill="#E6E6E6"/>
<rect x="155.988" y="302" width="31" height="2" rx="0.999999" transform="rotate(90 155.988 302)" fill="#E6E6E6"/>
<rect x="181.988" y="302" width="31" height="2" rx="0.999999" transform="rotate(90 181.988 302)" fill="#E6E6E6"/>
<rect x="75.9883" y="332" width="127" height="2" rx="1" fill="#E6E6E6"/>
<rect x="75.9883" y="302" width="123" height="2" rx="1" fill="#E6E6E6"/>
<rect x="75.9883" y="322" width="123" height="2" rx="1" fill="#E6E6E6"/>
<rect x="75.9883" y="282" width="123" height="2" rx="1" fill="#E6E6E6"/>
<rect x="77.9883" y="272" width="31" height="2" rx="0.999999" transform="rotate(90 77.9883 272)" fill="#E6E6E6"/>
<rect x="129.988" y="272" width="31" height="2" rx="0.999999" transform="rotate(90 129.988 272)" fill="#E6E6E6"/>
<rect x="103.988" y="272" width="31" height="2" rx="0.999999" transform="rotate(90 103.988 272)" fill="#E6E6E6"/>
<rect x="155.988" y="272" width="31" height="2" rx="0.999999" transform="rotate(90 155.988 272)" fill="#E6E6E6"/>
<rect x="181.988" y="272" width="31" height="2" rx="0.999999" transform="rotate(90 181.988 272)" fill="#E6E6E6"/>
<rect x="75.9883" y="302" width="127" height="2" rx="1" fill="#E6E6E6"/>
<rect x="75.9883" y="272" width="123" height="2" rx="1" fill="#E6E6E6"/>
<rect x="75.9883" y="292" width="123" height="2" rx="1" fill="#E6E6E6"/>
<rect x="75.9883" y="252" width="123" height="2" rx="1" fill="#E6E6E6"/>
<rect x="77.9883" y="242" width="31" height="2" rx="0.999999" transform="rotate(90 77.9883 242)" fill="#E6E6E6"/>
<rect x="129.988" y="242" width="31" height="2" rx="0.999999" transform="rotate(90 129.988 242)" fill="#E6E6E6"/>
<rect x="103.988" y="242" width="31" height="2" rx="0.999999" transform="rotate(90 103.988 242)" fill="#E6E6E6"/>
<rect x="155.988" y="242" width="31" height="2" rx="0.999999" transform="rotate(90 155.988 242)" fill="#E6E6E6"/>
<rect x="181.988" y="242" width="31" height="2" rx="0.999999" transform="rotate(90 181.988 242)" fill="#E6E6E6"/>
<rect x="75.9883" y="272" width="127" height="2" rx="1" fill="#E6E6E6"/>
<rect x="75.9883" y="242" width="123" height="2" rx="1" fill="#E6E6E6"/>
<rect x="75.9883" y="262" width="123" height="2" rx="1" fill="#E6E6E6"/>
<rect x="75.9883" y="222" width="123" height="2" rx="1" fill="#E6E6E6"/>
<rect x="77.9883" y="212" width="31" height="2" rx="0.999999" transform="rotate(90 77.9883 212)" fill="#E6E6E6"/>
<rect x="129.988" y="212" width="31" height="2" rx="0.999999" transform="rotate(90 129.988 212)" fill="#E6E6E6"/>
<rect x="103.988" y="212" width="31" height="2" rx="0.999999" transform="rotate(90 103.988 212)" fill="#E6E6E6"/>
<rect x="155.988" y="212" width="31" height="2" rx="0.999999" transform="rotate(90 155.988 212)" fill="#E6E6E6"/>
<rect x="181.988" y="212" width="31" height="2" rx="0.999999" transform="rotate(90 181.988 212)" fill="#E6E6E6"/>
<rect x="75.9883" y="242" width="127" height="2" rx="1" fill="#E6E6E6"/>
<rect x="75.9883" y="212" width="123" height="2" rx="1" fill="#E6E6E6"/>
<rect x="75.9883" y="232" width="123" height="2" rx="1" fill="#E6E6E6"/>
<g filter="url(#filter1_d_3114)">
<rect x="359.988" y="175" width="164" height="178" rx="3" fill="white"/>
<rect x="360.488" y="175.5" width="163" height="177" rx="2.5" stroke="#333333"/>
</g>
<path d="M374.488 174.5H520.988C522.369 174.5 523.488 175.619 523.488 177V196.5H374.488V174.5Z" fill="#CB0000" stroke="#333333"/>
<circle opacity="0.5" cx="513" cy="185" r="3.5" fill="#E6CBCB" stroke="white"/>
<rect x="430.988" y="302" width="62" height="2" rx="1" fill="#E6E6E6"/>
<rect x="424.988" y="322" width="75" height="2" rx="1" fill="#E6E6E6"/>
<rect x="418.988" y="312" width="86" height="2" rx="1" fill="#E6E6E6"/>
<rect x="324.488" y="215.5" width="81" height="71" rx="1.5" fill="#F9F9F9" stroke="#CCCCCC"/>
<rect x="417.488" y="215.5" width="88" height="71" rx="1.5" fill="#F9F9F9" stroke="#CCCCCC"/>
<path d="M500.988 282H420.988C433.173 282 435.265 261.5 443.845 261.5C452.417 261.5 452.417 273.8 460.988 273.8C469.56 273.8 468.131 241 480.988 241C492.417 241 496.703 275.85 500.988 282Z" fill="url(#paint0_linear_3114)"/>
<g filter="url(#filter2_d_3114)">
<rect x="195.988" y="144" width="202" height="234" rx="3" fill="white"/>
<rect x="196.488" y="144.5" width="201" height="233" rx="2.5" stroke="#333333"/>
</g>
<path d="M198.988 144.5H394.988C396.369 144.5 397.488 145.619 397.488 147V166.5H196.488V147C196.488 145.619 197.608 144.5 198.988 144.5Z" fill="#446995" stroke="#333333"/>
<rect x="294.988" y="217" width="79" height="2" rx="1" fill="#E6E6E6"/>
<rect x="280.988" y="237" width="93" height="2" rx="1" fill="#E6E6E6"/>
<rect x="280.988" y="257" width="80" height="2" rx="1" fill="#E6E6E6"/>
<rect x="233.988" y="277" width="140" height="2" rx="1" fill="#E6E6E6"/>
<rect x="233.988" y="327" width="140" height="2" rx="1" fill="#E6E6E6"/>
<rect x="220.988" y="297" width="153" height="2" rx="1" fill="#E6E6E6"/>
<rect x="280.988" y="227" width="93" height="2" rx="1" fill="#E6E6E6"/>
<rect x="280.988" y="247" width="93" height="2" rx="1" fill="#E6E6E6"/>
<rect x="244.988" y="189" width="105" height="2" rx="1" fill="#666666"/>
<rect x="228.988" y="198" width="137" height="2" rx="1" fill="#666666"/>
<rect x="220.988" y="287" width="153" height="2" rx="1" fill="#E6E6E6"/>
<rect x="220.988" y="337" width="153" height="2" rx="1" fill="#E6E6E6"/>
<rect x="220.988" y="307" width="141" height="2" rx="1" fill="#E6E6E6"/>
<rect x="220.988" y="347" width="141" height="2" rx="1" fill="#E6E6E6"/>
<path d="M222.488 219.095C222.488 218.254 223.246 217.5 224.274 217.5H267.703C268.731 217.5 269.488 218.254 269.488 219.095V258.904C269.488 259.745 268.731 260.5 267.703 260.5H224.274C223.246 260.5 222.488 259.745 222.488 258.904V219.095Z" fill="#BDECFF" stroke="#9ADAF3" stroke-miterlimit="22.9256" stroke-linecap="round" stroke-linejoin="round"/>
<mask id="path-95-outside-1_3114" maskUnits="userSpaceOnUse" x="221.988" y="232.851" width="48" height="29" fill="black">
<rect fill="white" x="221.988" y="232.851" width="48" height="29"/>
<path fill-rule="evenodd" clip-rule="evenodd" d="M222.988 260.064L235.488 243.553L244.488 253.51L257.988 233.851L268.988 248V260.064"/>
</mask>
<path fill-rule="evenodd" clip-rule="evenodd" d="M222.988 260.064L235.488 243.553L244.488 253.51L257.988 233.851L268.988 248V260.064" fill="white"/>
<path fill-rule="evenodd" clip-rule="evenodd" d="M222.988 260.064L235.488 243.553L244.488 253.51L257.988 233.851L268.988 248V260.064" stroke="#9ADAF3" stroke-width="2" stroke-miterlimit="22.9256" stroke-linecap="round" stroke-linejoin="round" mask="url(#path-95-outside-1_3114)"/>
<g style="mix-blend-mode:multiply">
<rect x="75.9883" y="212" width="120" height="12" fill="#EFFBD8"/>
</g>
<g style="mix-blend-mode:multiply">
<rect x="75.9883" y="232" width="120" height="12" fill="#F9FEEF"/>
</g>
<g style="mix-blend-mode:multiply">
<rect x="75.9883" y="252" width="120" height="12" fill="#F9FEEF"/>
</g>
<g style="mix-blend-mode:multiply">
<rect x="75.9883" y="292" width="120" height="12" fill="#F9FEEF"/>
</g>
<g style="mix-blend-mode:multiply">
<rect x="75.9883" y="272" width="120" height="12" fill="#F9FEEF"/>
</g>
<g style="mix-blend-mode:multiply">
<rect x="103.988" y="212" width="122" height="28" transform="rotate(90 103.988 212)" fill="#F0F7E3"/>
</g>
<g style="mix-blend-mode:multiply">
<rect x="75.9883" y="312" width="120" height="12" fill="#F9FEEF"/>
</g>
<g style="mix-blend-mode:overlay" opacity="0.7">
<circle cx="388" cy="156" r="3.5" fill="#CCCCCC"/>
<circle cx="388" cy="156" r="3.5" stroke="white"/>
</g>
<g style="mix-blend-mode:overlay" opacity="0.5">
<rect x="204.5" y="153.5" width="56" height="5" rx="2.5" fill="#C4C4C4"/>
<rect x="204.5" y="153.5" width="56" height="5" rx="2.5" stroke="white"/>
</g>
<circle cx="232.988" cy="228" r="3" fill="white"/>
<defs>
<filter id="filter0_d_3114" x="58.9883" y="165" width="163" height="187" filterUnits="userSpaceOnUse" color-interpolation-filters="sRGB">
<feFlood flood-opacity="0" result="BackgroundImageFix"/>
<feColorMatrix in="SourceAlpha" type="matrix" values="0 0 0 0 0 0 0 0 0 0 0 0 0 0 0 0 0 0 127 0" result="hardAlpha"/>
<feOffset dy="-10"/>
<feColorMatrix type="matrix" values="0 0 0 0 0.333333 0 0 0 0 0.333333 0 0 0 0 0.333333 0 0 0 0.1 0"/>
<feBlend mode="normal" in2="BackgroundImageFix" result="effect1_dropShadow_3114"/>
<feBlend mode="normal" in="SourceGraphic" in2="effect1_dropShadow_3114" result="shape"/>
</filter>
<filter id="filter1_d_3114" x="359.988" y="167" width="164" height="186" filterUnits="userSpaceOnUse" color-interpolation-filters="sRGB">
<feFlood flood-opacity="0" result="BackgroundImageFix"/>
<feColorMatrix in="SourceAlpha" type="matrix" values="0 0 0 0 0 0 0 0 0 0 0 0 0 0 0 0 0 0 127 0" result="hardAlpha"/>
<feOffset dy="-8"/>
<feColorMatrix type="matrix" values="0 0 0 0 0.333333 0 0 0 0 0.333333 0 0 0 0 0.333333 0 0 0 0.1 0"/>
<feBlend mode="normal" in2="BackgroundImageFix" result="effect1_dropShadow_3114"/>
<feBlend mode="normal" in="SourceGraphic" in2="effect1_dropShadow_3114" result="shape"/>
</filter>
<filter id="filter2_d_3114" x="195.988" y="136" width="202" height="242" filterUnits="userSpaceOnUse" color-interpolation-filters="sRGB">
<feFlood flood-opacity="0" result="BackgroundImageFix"/>
<feColorMatrix in="SourceAlpha" type="matrix" values="0 0 0 0 0 0 0 0 0 0 0 0 0 0 0 0 0 0 127 0" result="hardAlpha"/>
<feOffset dy="-8"/>
<feColorMatrix type="matrix" values="0 0 0 0 0.333333 0 0 0 0 0.333333 0 0 0 0 0.333333 0 0 0 0.15 0"/>
<feBlend mode="normal" in2="BackgroundImageFix" result="effect1_dropShadow_3114"/>
<feBlend mode="normal" in="SourceGraphic" in2="effect1_dropShadow_3114" result="shape"/>
</filter>
<linearGradient id="paint0_linear_3114" x1="420.988" y1="239.399" x2="453.543" y2="305.402" gradientUnits="userSpaceOnUse">
<stop stop-color="#FFC671"/>
<stop offset="0.59375" stop-color="#FF7541"/>
<stop offset="1" stop-color="#FF6F3D"/>
</linearGradient>
</defs>
</svg>
