<svg width="544" height="440" viewBox="0 0 544 440" fill="none" xmlns="http://www.w3.org/2000/svg">
<path d="M60.9195 335.734L61.3914 335.899L60.9195 335.734C61.0925 335.241 61.5067 334.86 62.0291 334.746L66.3877 333.799C66.3878 333.799 66.3879 333.799 66.3879 333.799C67.0371 333.657 67.5 333.083 67.5 332.418V321.582C67.5 320.917 67.037 320.343 66.3877 320.201L62.0291 319.254C61.5067 319.14 61.0925 318.759 60.9195 318.266C60.5962 317.344 60.221 316.439 59.7962 315.557C59.5692 315.086 59.5925 314.523 59.8818 314.073L62.2947 310.32C62.6539 309.761 62.5748 309.027 62.1054 308.558L54.4423 300.895L54.4422 300.894C53.973 300.425 53.2392 300.346 52.68 300.705L48.9268 303.118C48.4767 303.407 47.914 303.431 47.4427 303.204C46.5609 302.779 45.6562 302.404 44.734 302.08C44.2407 301.908 43.8597 301.493 43.7461 300.971L42.7985 296.612L42.7985 296.612C42.6576 295.963 42.0828 295.5 41.4185 295.5H30.5815C29.9172 295.5 29.3424 295.963 29.2015 296.612L29.2015 296.612L28.2539 300.971C28.1403 301.493 27.7593 301.908 27.266 302.08L27.1006 301.609L27.266 302.08C26.3438 302.404 25.4391 302.779 24.5573 303.204C24.086 303.431 23.5233 303.407 23.0732 303.118L19.32 300.705C19.32 300.705 19.32 300.705 19.3199 300.705C18.7609 300.346 18.027 300.425 17.5577 300.895L9.89457 308.558C9.42516 309.027 9.34609 309.761 9.70531 310.32L12.1182 314.073C12.4075 314.523 12.4308 315.086 12.2038 315.557C11.7791 316.439 11.4038 317.344 11.0805 318.266C10.9075 318.759 10.4933 319.14 9.97085 319.254L5.61225 320.201C4.96298 320.343 4.5 320.917 4.5 321.582V332.418C4.5 333.083 4.9629 333.657 5.61207 333.799C5.61213 333.799 5.61219 333.799 5.61225 333.799L9.97085 334.746C10.4933 334.86 10.9075 335.241 11.0805 335.734C11.4038 336.656 11.7791 337.561 12.2038 338.443C12.4308 338.914 12.4075 339.477 12.1182 339.927L9.70531 343.68C9.70529 343.68 9.70527 343.68 9.70525 343.68C9.3461 344.239 9.42518 344.973 9.89457 345.442L17.5577 353.105C18.027 353.575 18.7609 353.654 19.3199 353.295C19.32 353.295 19.32 353.295 19.32 353.295L23.0732 350.882C23.5233 350.593 24.086 350.569 24.5573 350.796C25.4391 351.221 26.3438 351.596 27.266 351.92C27.7594 352.092 28.1403 352.507 28.2539 353.029L29.2015 357.388L29.2015 357.388C29.3424 358.037 29.9172 358.5 30.5815 358.5H41.4185C42.0828 358.5 42.6576 358.037 42.7985 357.388L42.7985 357.388L43.7461 353.029C43.8597 352.507 44.2407 352.092 44.734 351.92C45.6562 351.596 46.5609 351.221 47.4427 350.796C47.914 350.569 48.4767 350.593 48.9268 350.882L52.68 353.295C53.239 353.654 53.9729 353.575 54.4423 353.105L62.1054 345.442C62.5748 344.973 62.6539 344.239 62.2948 343.68C62.2947 343.68 62.2947 343.68 62.2947 343.68L59.8818 339.927C59.5925 339.477 59.5692 338.914 59.7962 338.443C60.221 337.561 60.5962 336.656 60.9195 335.734ZM36 315.026C42.6028 315.026 47.9741 320.397 47.9741 327C47.9741 333.603 42.6028 338.974 36 338.974C29.3972 338.974 24.0259 333.603 24.0259 327C24.0259 320.397 29.3972 315.026 36 315.026Z" fill="#444444" stroke="#808080"/>
<path d="M385.977 68.7645L385.977 68.7644L386.657 65.6353C386.771 65.1122 387.152 64.7004 387.641 64.525C388.239 64.3105 388.827 64.0667 389.402 63.7948C389.872 63.5725 390.433 63.5941 390.883 63.8838L393.578 65.6159C393.947 65.8535 394.433 65.8012 394.743 65.4907L400.491 59.7434C400.801 59.4329 400.853 58.9474 400.616 58.5776C400.616 58.5776 400.616 58.5776 400.616 58.5775L398.884 55.8833C398.594 55.4327 398.572 54.8716 398.795 54.4016C399.067 53.8266 399.311 53.2387 399.525 52.6408C399.7 52.1518 400.112 51.7707 400.635 51.657L403.764 50.9768C403.764 50.9768 403.764 50.9768 403.764 50.9767C404.194 50.8831 404.5 50.5031 404.5 50.0638V41.9362C404.5 41.4969 404.194 41.1169 403.764 41.0233C403.764 41.0232 403.764 41.0232 403.764 41.0232L400.635 40.343C400.112 40.2293 399.7 39.8482 399.525 39.3592C399.311 38.7613 399.067 38.1734 398.795 37.5984C398.572 37.1284 398.594 36.5673 398.884 36.1167L400.616 33.4225C400.853 33.0526 400.801 32.5671 400.491 32.2566L394.743 26.5093L394.743 26.5092C394.433 26.1987 393.948 26.1464 393.578 26.3841L390.883 28.1162C390.433 28.4059 389.872 28.4275 389.402 28.2052C388.827 27.9333 388.239 27.6895 387.641 27.475C387.152 27.2996 386.771 26.8878 386.657 26.3647L385.977 23.2356L385.977 23.2355C385.884 22.8064 385.503 22.5 385.064 22.5H376.936C376.497 22.5 376.116 22.8064 376.023 23.2355L376.023 23.2356L375.343 26.3647C375.229 26.8878 374.848 27.2996 374.359 27.475C373.761 27.6895 373.173 27.9333 372.598 28.2052C372.128 28.4275 371.567 28.4059 371.117 28.1162L368.422 26.3841C368.422 26.3841 368.422 26.3841 368.422 26.3841C368.053 26.1465 367.567 26.1989 367.257 26.5093L361.509 32.2566C361.199 32.5671 361.147 33.0526 361.384 33.4225L363.116 36.1167C363.406 36.5673 363.428 37.1284 363.205 37.5984C362.933 38.1734 362.689 38.7613 362.475 39.3592C362.3 39.8482 361.888 40.2293 361.365 40.343L358.236 41.0232C358.236 41.0232 358.236 41.0232 358.236 41.0233C357.806 41.1169 357.5 41.4969 357.5 41.9362V50.0638C357.5 50.5031 357.806 50.8831 358.236 50.9767C358.236 50.9768 358.236 50.9768 358.236 50.9768L361.365 51.657C361.888 51.7707 362.3 52.1518 362.475 52.6408C362.689 53.2387 362.933 53.8266 363.205 54.4016C363.428 54.8716 363.406 55.4327 363.116 55.8833L361.384 58.5775C361.384 58.5776 361.384 58.5776 361.384 58.5776C361.147 58.9474 361.199 59.4329 361.509 59.7434L367.257 65.4907C367.567 65.8011 368.053 65.8535 368.422 65.6159C368.422 65.6159 368.422 65.6159 368.422 65.6159L371.117 63.8838C371.567 63.5941 372.128 63.5725 372.598 63.7948C373.173 64.0667 373.761 64.3105 374.359 64.525C374.848 64.7004 375.229 65.1122 375.343 65.6353L376.023 68.7644L376.023 68.7645C376.116 69.1936 376.497 69.5 376.936 69.5H385.064C385.503 69.5 385.884 69.1936 385.977 68.7645ZM381 36.8944C386.021 36.8944 390.106 40.9789 390.106 46C390.106 51.0211 386.021 55.1056 381 55.1056C375.979 55.1056 371.894 51.0211 371.894 46C371.894 40.9789 375.979 36.8944 381 36.8944Z" fill="#444444" stroke="#808080"/>
<path d="M323.688 378H198.095V403.272C198.097 407.114 197.037 410.866 195.056 414.032C193.074 417.198 190.265 419.628 187 421H335C331.624 419.295 328.764 416.561 326.758 413.123C324.753 409.685 323.688 405.687 323.688 401.603V378Z" fill="#444444" stroke="#333333" stroke-linecap="round" stroke-linejoin="round"/>
<path d="M183 420.5H339C339.828 420.5 340.5 421.172 340.5 422V426C340.5 426.828 339.828 427.5 339 427.5H183C182.172 427.5 181.5 426.828 181.5 426V422C181.5 421.172 182.172 420.5 183 420.5Z" fill="#666666" stroke="#333333" stroke-linecap="round" stroke-linejoin="round"/>
<rect x="48" y="80" width="426" height="298" rx="15" fill="#666666" stroke="#808080" stroke-width="2"/>
<rect x="61.5" y="93.5" width="399" height="255" rx="7.5" fill="#444444" stroke="#808080"/>
<rect x="72.5" y="105.5" width="39" height="7" stroke="#444444"/>
<circle cx="76" cy="109" r="4" fill="#AAAAAA"/>
<circle cx="92" cy="109" r="4" fill="#AAAAAA"/>
<circle cx="108" cy="109" r="4" fill="#AAAAAA"/>
<rect x="61" y="122" width="399" height="1" fill="#808080"/>
<rect x="92.5" y="135.5" width="7" height="199" stroke="#444444"/>
<rect x="92" y="135" width="8" height="8" rx="2" fill="#AAAAAA"/>
<rect x="92" y="151" width="8" height="8" rx="2" fill="#AAAAAA"/>
<rect x="92" y="167" width="8" height="8" rx="2" fill="#AAAAAA"/>
<rect x="92" y="183" width="8" height="8" rx="2" fill="#AAAAAA"/>
<rect x="92" y="199" width="8" height="8" rx="2" fill="#AAAAAA"/>
<rect x="92" y="215" width="8" height="8" rx="2" fill="#AAAAAA"/>
<rect x="92" y="231" width="8" height="8" rx="2" fill="#AAAAAA"/>
<rect x="92" y="247" width="8" height="8" rx="2" fill="#AAAAAA"/>
<rect x="92" y="263" width="8" height="8" rx="2" fill="#AAAAAA"/>
<rect x="92" y="279" width="8" height="8" rx="2" fill="#AAAAAA"/>
<rect x="92" y="295" width="8" height="8" rx="2" fill="#AAAAAA"/>
<rect x="92" y="311" width="8" height="8" rx="2" fill="#AAAAAA"/>
<rect x="92" y="327" width="8" height="8" rx="2" fill="#AAAAAA"/>
<rect x="118" y="135" width="64" height="8" rx="4" fill="#808080"/>
<rect x="186" y="135" width="64" height="8" rx="4" fill="#E2E2E2"/>
<rect x="137" y="151" width="32" height="8" rx="4" fill="#CCCCCC"/>
<rect x="173" y="151" width="64" height="8" rx="4" fill="#808080"/>
<rect x="241" y="151" width="32" height="8" rx="4" fill="#CCCCCC"/>
<rect x="137" y="167" width="64" height="8" rx="4" fill="#9ADAF3"/>
<rect x="205" y="167" width="16" height="8" rx="4" fill="#808080"/>
<rect x="137" y="199" width="24" height="8" rx="4" fill="#808080"/>
<rect x="165" y="199" width="64" height="8" rx="4" fill="#CCCCCC"/>
<rect x="233" y="199" width="132" height="8" rx="4" fill="#808080"/>
<rect x="166" y="215" width="24" height="8" rx="4" fill="#808080"/>
<rect x="194" y="215" width="64" height="8" rx="4" fill="#CCCCCC"/>
<rect x="262" y="215" width="24" height="8" rx="4" fill="#808080"/>
<rect x="290" y="215" width="24" height="8" rx="4" fill="#CCCCCC"/>
<rect x="318" y="215" width="64" height="8" rx="4" fill="#808080"/>
<rect x="166" y="231" width="36" height="8" rx="4" fill="#CCCCCC"/>
<rect x="206" y="231" width="80" height="8" rx="4" fill="#808080"/>
<rect x="290" y="231" width="36" height="8" rx="4" fill="#CCCCCC"/>
<rect x="118.5" y="247.5" width="42" height="7" rx="3.5" fill="#9ADAF3" stroke="#444444"/>
<rect x="166" y="263" width="64" height="8" rx="4" fill="#CCCCCC"/>
<rect x="234" y="263" width="64" height="8" rx="4" fill="#808080"/>
<rect x="118.5" y="279.5" width="112" height="7" stroke="#444444"/>
<rect x="118" y="279" width="24" height="8" rx="4" fill="#808080"/>
<rect x="146" y="279" width="85" height="8" rx="4" fill="#808080"/>
<rect x="146" y="295" width="44" height="8" rx="4" fill="#808080"/>
<rect x="194" y="295" width="72" height="8" rx="4" fill="#CCCCCC"/>
<rect x="270" y="295" width="44" height="8" rx="4" fill="#808080"/>
<rect x="146" y="311" width="84" height="8" rx="4" fill="#9ADAF3"/>
<rect x="234" y="311" width="64" height="8" rx="4" fill="#808080"/>
<rect x="302" y="311" width="84" height="8" rx="4" fill="#808080"/>
<rect x="166" y="327" width="24" height="8" rx="4" fill="#808080"/>
<rect x="194" y="327" width="72" height="8" rx="4" fill="#CCCCCC"/>
<rect x="108.5" y="135.5" width="1" height="199" rx="0.5" fill="#444444" stroke="#808080"/>
<circle cx="265" cy="363" r="7.5" stroke="#AAAAAA"/>
<path d="M161 72.8364C161 57.4804 147.958 44.48 132.2 44.48C127.928 44.48 124.151 45.9702 120.516 47.6244C115.056 31.5791 99.5383 20 81.2483 20C59.8605 20 42.2778 35.811 40.0994 56.0743C40.0287 56.0743 39.9438 56.0606 39.8731 56.0606C27.2413 56.0743 17 66.0406 17 78.3503C17 90.6599 27.2413 100.64 39.8731 100.64H133.94V100.571C149.005 99.8267 161 87.71 161 72.8364Z" fill="#444444"/>
<path fill-rule="evenodd" clip-rule="evenodd" d="M119.925 48.9919L119.569 47.9465C114.247 32.307 99.1106 21 81.2483 21C60.3565 21 43.2159 36.4405 41.0937 56.1812L40.9977 57.0743H40.0994C40.0508 57.0743 40.0078 57.072 39.9763 57.0699C39.9471 57.0679 39.9189 57.0654 39.9011 57.0638L39.898 57.0635C39.8789 57.0619 39.8696 57.0611 39.8628 57.0606C27.7622 57.0797 18 66.6217 18 78.3503C18 90.0835 27.769 99.64 39.8731 99.64H132.94V99.6193L133.891 99.5723C148.45 98.8529 160 87.1503 160 72.8364C160 58.0436 147.417 45.48 132.2 45.48C128.158 45.48 124.549 46.8879 120.93 48.5346L119.925 48.9919ZM40.0994 56.0743C42.2778 35.811 59.8605 20 81.2483 20C99.1769 20 114.441 31.1259 120.18 46.6784C120.296 46.9919 120.408 47.3073 120.516 47.6244C120.82 47.4859 121.126 47.3485 121.432 47.2131C124.787 45.7311 128.286 44.48 132.2 44.48C147.958 44.48 161 57.4804 161 72.8364C161 87.71 149.005 99.8267 133.94 100.571V100.64H39.8731C27.2413 100.64 17 90.6599 17 78.3503C17 66.0406 27.2413 56.0743 39.8731 56.0606C39.9084 56.0606 39.9473 56.064 39.9862 56.0674C40.0251 56.0709 40.064 56.0743 40.0994 56.0743Z" fill="#808080"/>
<path d="M127.1 409.617H62.0996C61.5996 409.617 61.0996 409.218 61.0996 408.618V362.826C61.0996 362.226 61.5996 361.826 62.0996 361.826H127.1C127.7 361.826 128.1 362.226 128.1 362.826V408.618C128.1 409.118 127.6 409.617 127.1 409.617Z" fill="url(#paint0_linear_60_1680)"/>
<path d="M127.4 410.318H61.8004C61.0004 410.318 60.4004 409.718 60.4004 408.918V362.527C60.4004 361.727 61.0004 361.127 61.8004 361.127H127.4C128.2 361.127 128.8 361.727 128.8 362.527V408.918C128.8 409.618 128.1 410.318 127.4 410.318ZM127.4 408.918V409.618V408.918ZM61.8004 362.527V408.918H127.4V362.527H61.8004Z" fill="#333333"/>
<path d="M102.201 394.72L116.201 388.221V384.122L102.201 377.623V382.522L110.701 386.121L102.201 389.721V394.72Z" fill="white"/>
<path d="M93.0004 375.924H90.4004L94.9004 396.62H97.4004L93.0004 375.924Z" fill="white"/>
<path d="M85.9004 389.92L77.4004 386.321L85.9004 382.722V377.723L71.9004 384.221V388.321L85.9004 394.82V389.92Z" fill="white"/>
<rect x="-0.5" y="0.5" width="107" height="31" rx="7.5" transform="matrix(-1 0 0 1 522 395)" fill="#444444"/>
<rect x="-0.5" y="0.5" width="107" height="31" rx="7.5" transform="matrix(-1 0 0 1 522 395)" stroke="#808080"/>
<circle cx="3" cy="3" r="2.5" transform="matrix(-1 0 0 1 513 408)" fill="url(#paint1_linear_60_1680)" stroke="#6C6C6C"/>
<circle cx="3" cy="3" r="2.5" transform="matrix(-1 0 0 1 503 408)" fill="url(#paint2_linear_60_1680)" stroke="#6C6C6C"/>
<circle cx="3" cy="3" r="2.5" transform="matrix(-1 0 0 1 493 408)" fill="url(#paint3_linear_60_1680)" stroke="#6C6C6C"/>
<rect width="12" height="2" rx="1" transform="matrix(4.37114e-08 -1 -1 -4.37114e-08 463 417)" fill="#CCCCCC"/>
<rect width="12" height="2" rx="1" transform="matrix(4.37114e-08 -1 -1 -4.37114e-08 457 417)" fill="#CCCCCC"/>
<rect width="12" height="2" rx="1" transform="matrix(4.37114e-08 -1 -1 -4.37114e-08 451 417)" fill="#CCCCCC"/>
<rect width="12" height="2" rx="1" transform="matrix(4.37114e-08 -1 -1 -4.37114e-08 445 417)" fill="#CCCCCC"/>
<rect width="12" height="2" rx="1" transform="matrix(4.37114e-08 -1 -1 -4.37114e-08 439 417)" fill="#CCCCCC"/>
<rect width="12" height="2" rx="1" transform="matrix(4.37114e-08 -1 -1 -4.37114e-08 433 417)" fill="#CCCCCC"/>
<rect width="12" height="2" rx="1" transform="matrix(4.37114e-08 -1 -1 -4.37114e-08 427 417)" fill="#CCCCCC"/>
<rect x="-0.5" y="0.5" width="107" height="31" rx="7.5" transform="matrix(-1 0 0 1 522 362)" fill="#444444"/>
<rect x="-0.5" y="0.5" width="107" height="31" rx="7.5" transform="matrix(-1 0 0 1 522 362)" stroke="#808080"/>
<circle cx="3" cy="3" r="2.5" transform="matrix(-1 0 0 1 513 375)" fill="url(#paint4_linear_60_1680)" stroke="#6C6C6C"/>
<circle cx="3" cy="3" r="2.5" transform="matrix(-1 0 0 1 503 375)" fill="url(#paint5_linear_60_1680)" stroke="#6C6C6C"/>
<circle cx="3" cy="3" r="2.5" transform="matrix(-1 0 0 1 493 375)" fill="url(#paint6_linear_60_1680)" stroke="#6C6C6C"/>
<rect width="12" height="2" rx="1" transform="matrix(4.37114e-08 -1 -1 -4.37114e-08 463 384)" fill="#CCCCCC"/>
<rect width="12" height="2" rx="1" transform="matrix(4.37114e-08 -1 -1 -4.37114e-08 457 384)" fill="#CCCCCC"/>
<rect width="12" height="2" rx="1" transform="matrix(4.37114e-08 -1 -1 -4.37114e-08 451 384)" fill="#CCCCCC"/>
<rect width="12" height="2" rx="1" transform="matrix(4.37114e-08 -1 -1 -4.37114e-08 445 384)" fill="#CCCCCC"/>
<rect width="12" height="2" rx="1" transform="matrix(4.37114e-08 -1 -1 -4.37114e-08 439 384)" fill="#CCCCCC"/>
<rect width="12" height="2" rx="1" transform="matrix(4.37114e-08 -1 -1 -4.37114e-08 433 384)" fill="#CCCCCC"/>
<rect width="12" height="2" rx="1" transform="matrix(4.37114e-08 -1 -1 -4.37114e-08 427 384)" fill="#CCCCCC"/>
<rect x="-0.5" y="0.5" width="107" height="31" rx="7.5" transform="matrix(-1 0 0 1 522 329)" fill="#444444"/>
<rect x="-0.5" y="0.5" width="107" height="31" rx="7.5" transform="matrix(-1 0 0 1 522 329)" stroke="#808080"/>
<circle cx="3" cy="3" r="2.5" transform="matrix(-1 0 0 1 513 342)" fill="url(#paint7_linear_60_1680)" stroke="#6C6C6C"/>
<circle cx="3" cy="3" r="2.5" transform="matrix(-1 0 0 1 503 342)" fill="url(#paint8_linear_60_1680)" stroke="#6C6C6C"/>
<circle cx="3" cy="3" r="2.5" transform="matrix(-1 0 0 1 493 342)" fill="url(#paint9_linear_60_1680)" stroke="#6C6C6C"/>
<rect width="12" height="2" rx="1" transform="matrix(4.37114e-08 -1 -1 -4.37114e-08 463 351)" fill="#CCCCCC"/>
<rect width="12" height="2" rx="1" transform="matrix(4.37114e-08 -1 -1 -4.37114e-08 457 351)" fill="#CCCCCC"/>
<rect width="12" height="2" rx="1" transform="matrix(4.37114e-08 -1 -1 -4.37114e-08 451 351)" fill="#CCCCCC"/>
<rect width="12" height="2" rx="1" transform="matrix(4.37114e-08 -1 -1 -4.37114e-08 445 351)" fill="#CCCCCC"/>
<rect width="12" height="2" rx="1" transform="matrix(4.37114e-08 -1 -1 -4.37114e-08 439 351)" fill="#CCCCCC"/>
<rect width="12" height="2" rx="1" transform="matrix(4.37114e-08 -1 -1 -4.37114e-08 433 351)" fill="#CCCCCC"/>
<rect width="12" height="2" rx="1" transform="matrix(4.37114e-08 -1 -1 -4.37114e-08 427 351)" fill="#CCCCCC"/>
<path d="M461.626 173.629C461.825 171.289 464.314 169.423 466.617 169.871C467.923 167.307 471.495 166.212 474.021 167.618C475.215 168.278 476.124 169.385 477.294 170.095C478.414 170.779 479.733 171.078 480.915 171.65C482.097 172.222 483.242 173.206 483.391 174.512C483.553 175.968 482.396 177.3 481.039 177.847C479.683 178.395 478.165 178.32 476.709 178.233C477.343 178.594 477.48 179.527 477.157 180.187C476.833 180.846 476.161 181.269 475.477 181.543C473.212 182.452 470.437 181.941 468.645 180.286L465.92 178.196C463.555 178.233 461.427 175.968 461.626 173.629Z" fill="#333333"/>
<path d="M465.683 177.798C466.84 178.657 468.048 179.453 469.292 180.188C469.827 180.499 470.3 180.785 470.76 181.183C471.221 181.581 471.706 181.868 472.328 181.892C474.071 181.967 475.477 180.461 474.967 178.744C474.718 177.898 474.083 177.201 473.336 176.716C472.602 176.23 471.744 175.944 470.897 175.683C469.591 175.297 468.247 174.986 466.89 174.924C466.405 174.899 465.907 174.911 465.459 175.098C465.011 175.285 464.625 175.683 464.588 176.168C464.538 176.865 465.136 177.4 465.683 177.798Z" fill="white" stroke="#333333" stroke-width="1.5" stroke-miterlimit="10" stroke-linecap="round" stroke-linejoin="round"/>
<path d="M472.041 181.32C474.244 178.869 479.719 179.192 481.038 180.785C482.93 179.79 485.581 180.636 486.526 182.565C488.468 182.975 490.421 183.386 492.363 183.797C493.358 184.008 494.404 184.245 495.163 184.904C495.934 185.576 496.295 186.821 495.673 187.617C497.726 188.14 498.56 191.189 497.042 192.669C497.888 193.54 497.726 195.171 496.731 195.868C498.348 197.784 499.643 199.987 500.526 202.326C500.899 203.309 501.198 204.404 500.837 205.4C500.476 206.383 499.182 207.08 498.336 206.47C498.921 207.266 498.983 208.411 498.473 209.258C499.456 209.27 499.767 210.801 499.095 211.522C498.423 212.244 497.328 212.331 496.332 212.306C495.349 212.294 494.279 212.244 493.47 212.817C493.508 213.115 493.632 213.302 493.794 213.439C495.499 214.808 495.996 217.172 494.74 218.952C494.628 219.113 494.516 219.275 494.416 219.412C493.856 220.221 492.437 220.98 491.566 221.44C489.351 222.623 488.02 222.411 485.531 222.784C486.215 224.39 482.208 227.974 477.554 224.502C468.345 227.04 461.7 228.036 452.143 228.123C450.774 228.135 449.144 227.961 448.522 226.742C447.414 227.04 446.219 226.543 445.398 225.746C444.577 224.95 444.054 223.904 443.544 222.872C441.18 222.249 439.35 219.997 439.226 217.545C437.621 216.313 436.575 214.372 436.426 212.344C434.124 211.659 432.842 208.685 433.912 206.545C434.385 203.732 435.331 200.995 436.687 198.481C435.119 198.157 434.522 196.054 435.157 194.586C435.791 193.117 437.21 192.159 438.541 191.301C437.372 191.624 436.351 190.156 436.613 188.986C436.886 187.804 437.932 186.982 438.965 186.36C440.483 185.439 442.1 184.693 443.793 184.17C444.34 182.104 446.941 179.752 448.87 178.819C456.66 175.098 462.098 174.14 472.041 181.32Z" fill="#333333"/>
<path d="M452.554 195.917C452.753 196.203 453.624 195.954 454.644 195.992C455.665 195.992 456.523 196.266 456.735 195.979C456.834 195.842 456.71 195.556 456.337 195.27C455.976 194.984 455.366 194.747 454.657 194.735C453.947 194.722 453.338 194.946 452.964 195.22C452.591 195.494 452.467 195.78 452.554 195.917Z" fill="#1A2E35"/>
<path d="M403.05 290.257L406.111 285.64L411.014 283.176L411.201 283.039C412.806 281.869 414.847 281.496 416.763 282.006C418.767 282.541 421.43 283.201 423.745 283.599L429.033 282.156V292.459L402.39 290.78L403.05 290.257Z" fill="white" stroke="#333333" stroke-miterlimit="10" stroke-linecap="round" stroke-linejoin="round"/>
<path d="M372.027 261.087C372.923 260.59 374.043 260.826 374.652 261.647L396.119 290.717L430.079 291.178C431.436 291.252 433.078 294.002 431.871 295.321L393.53 294.799L371.392 264.037C370.67 263.066 370.981 261.685 372.027 261.087Z" fill="white" stroke="#263238" stroke-linecap="round" stroke-linejoin="round"/>
<path d="M474.904 227.425C476.733 227.625 479.284 228.807 480.616 230.089C482.769 232.179 484.336 235.041 485.183 237.567C486.315 240.965 485.805 254.38 485.805 258.275C485.805 262.17 484.822 276.767 484.324 279.193C483.839 281.62 484.635 285.229 485.768 287.581C487.784 291.799 484.635 293.952 484.635 293.952L442.972 293.641L443.134 292.086C443.42 289.373 442.412 286.623 443.445 284.096C444.527 281.458 445.734 277.289 445.361 272.424C444.826 265.48 442.76 260.739 444.03 256.719C445.971 250.572 448.049 235.601 455.802 229.641C455.802 229.641 466.255 229.329 467.636 228.844C470.785 227.749 472.44 227.152 474.904 227.425Z" fill="url(#paint10_linear_60_1680)" stroke="#333333" stroke-width="2" stroke-miterlimit="10"/>
<path d="M485.68 240.766C485.68 252.202 485.866 294.151 475.077 293.654C464.288 293.156 426.731 293.604 426.731 293.604L425.91 280.948L462.981 276.543L464.711 252.277" fill="url(#paint11_linear_60_1680)"/>
<path d="M485.68 240.766C485.68 252.202 485.866 294.151 475.077 293.654C464.288 293.156 426.731 293.604 426.731 293.604L425.91 280.948L462.981 276.543L464.711 252.277" stroke="#333333" stroke-width="2" stroke-miterlimit="10" stroke-linecap="round" stroke-linejoin="round"/>
<path d="M405.252 356.809L409.67 395.747L398.097 398.011L389.871 363.466L405.252 356.809Z" fill="white" stroke="#333333" stroke-miterlimit="10" stroke-linecap="round" stroke-linejoin="round"/>
<path d="M448.248 296.977C448.248 296.977 397.712 293.654 387.222 295.322C380.875 296.33 375.412 306.248 378.872 312.196C380.502 315.021 383.078 323.794 383.078 323.794L410.244 317.597L448.248 296.977Z" fill="#464646" stroke="#333333" stroke-width="2" stroke-miterlimit="10" stroke-linecap="round" stroke-linejoin="round"/>
<path d="M410.231 323.793L421.182 340.493L408.302 348.843L394.327 327.427L410.231 323.793Z" fill="white" stroke="#333333" stroke-miterlimit="10" stroke-linecap="round" stroke-linejoin="round"/>
<path d="M483.64 293.916C483.64 293.916 488.979 317.448 480.355 326.706C474.22 333.302 459.15 332.605 446.432 332.605C433.552 332.605 403.81 331.908 403.81 331.908C403.81 331.908 405.167 340.183 406.15 349.604C407.145 359.049 407.344 364.985 407.344 364.985L388.392 366.565C388.392 366.565 377.827 334.422 376.209 328.063C374.591 321.704 375.139 313.142 380.751 309.981C385.505 307.293 423.049 296.89 441.018 295.334L442.972 293.654L483.64 293.916Z" fill="#666666" stroke="#333333" stroke-width="2" stroke-miterlimit="10" stroke-linecap="round" stroke-linejoin="round"/>
<path fill-rule="evenodd" clip-rule="evenodd" d="M424.268 342.26C426.894 345.583 427.18 348.52 418.93 356.534C411.04 364.187 403.76 371.019 401.134 367.696C398.509 364.374 404.631 350.61 410.928 342.683C417.797 334.035 421.643 338.938 424.268 342.26Z" fill="white" stroke="#333333" stroke-miterlimit="10" stroke-linecap="round" stroke-linejoin="round"/>
<path fill-rule="evenodd" clip-rule="evenodd" d="M413.666 397.214C413.33 401.433 411.538 403.785 400.039 404.021C389.051 404.258 379.071 404.295 379.407 400.076C379.743 395.858 393.606 389.947 403.623 388.428C414.537 386.786 414.002 392.996 413.666 397.214Z" fill="white" stroke="#333333" stroke-miterlimit="10" stroke-linecap="round" stroke-linejoin="round"/>
<path d="M459.237 219.81L460.406 229.466L459.56 242.943C459.56 242.943 473.585 228.471 473.995 228.147C474.406 227.811 473.995 212.355 473.995 212.355L459.237 219.81Z" fill="white" stroke="#333333" stroke-miterlimit="10" stroke-linecap="round" stroke-linejoin="round"/>
<path d="M478.81 204.365C479.37 213.848 470.049 223.218 461.936 223.642C455.539 223.978 448.857 214.097 448.297 204.614C447.737 195.132 455.017 188.524 463.118 188.051C471.232 187.578 478.25 194.883 478.81 204.365Z" fill="white" stroke="#333333" stroke-miterlimit="10" stroke-linecap="round" stroke-linejoin="round"/>
<path d="M454.916 206.195C454.742 205.909 454.232 205.934 453.958 205.822C453.61 205.685 453.361 205.461 452.975 205.411C452.838 205.399 452.714 205.399 452.589 205.411C452.477 205.473 452.453 205.473 452.49 205.386C452.502 205.274 452.552 205.311 452.614 205.486C452.664 205.511 452.701 205.535 452.751 205.56C452.353 206.27 452.216 206.369 452.341 205.834C452.365 205.685 452.403 205.535 452.44 205.386C452.44 205.585 452.44 205.772 452.44 205.971C452.428 205.921 452.415 205.871 452.403 205.834C452.49 205.996 452.589 206.158 452.677 206.307C452.639 206.257 452.092 206.133 451.905 206.058C451.494 205.884 451.158 205.535 451.221 205.05C451.32 204.216 452.328 204.303 452.95 204.328C453.946 204.366 454.618 204.938 454.618 205.971C454.618 207.041 453.734 207.925 452.639 207.589C451.818 207.34 450.972 206.506 450.81 205.647C450.623 204.727 451.283 203.955 452.141 203.719C452.95 203.507 453.996 203.694 454.655 204.204C455.153 204.59 455.663 205.448 455.476 206.095C455.377 206.369 455.041 206.407 454.916 206.195Z" fill="#333333"/>
<path d="M464.399 205.909C463.677 205.536 462.943 205.449 462.184 205.237C461.761 205.113 461.363 204.976 460.94 204.876C460.728 204.839 460.529 204.789 460.317 204.727C460.006 204.627 459.944 204.627 460.131 204.727C460.143 204.689 460.492 205.15 460.255 205.038C460.292 205.05 460.442 204.789 460.429 204.777C460.355 204.714 461.151 205.374 461.064 205.498C460.989 205.61 460.442 205.722 460.317 205.772C459.173 206.158 458.389 204.341 459.484 203.806C460.604 203.258 462.893 203.184 462.445 205.1C462.209 206.108 461.089 207.004 460.044 206.743C458.326 206.32 458.227 203.545 459.782 202.873C460.728 202.462 461.873 202.487 462.844 202.785C463.914 203.121 464.698 204.105 465.258 205.025C465.619 205.61 464.947 206.195 464.399 205.909Z" fill="#333333"/>
<path d="M456.398 208.473C456.074 209.306 456.074 210.277 456.05 211.161C456.037 211.733 455.962 212.231 456.672 212.393C457.145 212.505 457.506 212.293 457.978 212.517C458.252 212.641 458.165 212.977 457.978 213.127C456.946 213.923 454.967 213.649 455.079 212.057C455.166 210.887 455.539 209.381 456.174 208.398C456.249 208.273 456.448 208.348 456.398 208.473Z" fill="#333333"/>
<path fill-rule="evenodd" clip-rule="evenodd" d="M463.765 216.151C464.051 215.516 464.4 213.849 464.064 214.048C463.628 214.247 462.956 214.309 462.632 214.346C462.533 214.359 462.471 214.359 462.446 214.371C461.848 214.471 461.052 214.682 460.554 215.217C459.123 215.205 458.414 216.176 458.14 216.648C457.978 216.91 458.041 217.121 458.215 217.358C458.8 218.042 459.733 218.577 460.604 218.627C462.035 218.64 463.205 217.706 463.765 216.151Z" fill="#333333"/>
<path d="M443.383 197.533C444.005 196.177 445 194.945 446.344 194.298C447.078 193.949 447.912 193.775 448.609 193.352C450.115 192.431 450.687 190.565 451.733 189.134C453.077 187.304 455.354 186.184 457.631 186.259C459.523 186.321 461.377 187.13 463.256 186.918C464.65 186.757 465.944 186.035 467.338 185.96C470.063 185.811 472.278 188.038 473.946 190.191C473.697 192.095 472.017 193.165 470.399 194.186C468.781 195.206 466.703 195.48 464.874 194.883C463.455 194.422 461.962 193.477 460.605 194.086C459.174 194.721 458.863 196.712 457.556 197.571C455.69 198.803 453.213 197.085 450.998 197.434C449.294 197.708 448.062 199.139 446.792 200.308C445.523 201.478 443.731 202.524 442.151 201.814C442.449 200.358 442.76 198.89 443.383 197.533Z" fill="#333333"/>
<path d="M463.653 187.143C468.344 186.322 473.235 186.583 477.989 187.927C479.407 188.325 480.901 188.885 481.896 190.167C482.78 191.299 483.141 192.818 483.39 194.274C484.174 198.841 483.638 204.665 482.942 209.12L478.748 213.288C474.853 212.828 475.164 204.988 474.654 201.168C471.816 200.234 469.427 197.285 468.78 193.95C466.366 192.656 464.412 190.067 463.653 187.143Z" fill="#333333"/>
<path d="M337.442 115.635L337.442 115.635L338.924 108.817C339.038 108.295 339.419 107.878 339.916 107.708C341.49 107.169 343.031 106.53 344.527 105.796C345 105.564 345.564 105.589 346.014 105.878L351.885 109.652C351.885 109.652 351.885 109.652 351.885 109.652C352.822 110.255 354.053 110.122 354.84 109.335L366.335 97.8403C367.122 97.053 367.255 95.8223 366.652 94.8849C366.652 94.8849 366.652 94.8848 366.652 94.8848L362.878 89.0137C362.589 88.5642 362.564 87.9999 362.796 87.5273C363.53 86.0311 364.169 84.4902 364.708 82.9162C364.878 82.4186 365.295 82.0377 365.817 81.9243L372.635 80.4421C372.635 80.4421 372.635 80.4421 372.635 80.4421C373.724 80.2049 374.5 79.2415 374.5 78.1277V61.8723C374.5 60.7585 373.724 59.7951 372.635 59.5579C372.635 59.5579 372.635 59.5579 372.635 59.5579L365.817 58.0757C365.295 57.9623 364.878 57.5814 364.708 57.0838C364.169 55.5098 363.53 53.9689 362.796 52.4727C362.564 52 362.589 51.4358 362.878 50.9863L366.652 45.1152C366.652 45.1152 366.652 45.1151 366.652 45.1151C367.255 44.1777 367.122 42.947 366.335 42.1597L354.84 30.6651L354.84 30.6649C354.053 29.8773 352.823 29.7452 351.885 30.3476C351.885 30.3476 351.885 30.3476 351.885 30.3476L346.014 34.1221C345.564 34.411 345 34.4362 344.527 34.2043C343.031 33.4704 341.49 32.8313 339.916 32.2921C339.419 32.1216 339.038 31.7051 338.924 31.1833L337.442 24.365L337.442 24.3649C337.206 23.2766 336.242 22.5 335.128 22.5H318.872C317.758 22.5 316.794 23.2766 316.558 24.3649L316.558 24.365L315.076 31.1833C314.962 31.7051 314.581 32.1216 314.084 32.2921C312.51 32.8313 310.969 33.4704 309.473 34.2043C309 34.4362 308.436 34.411 307.986 34.1221L302.115 30.3476C302.115 30.3476 302.115 30.3476 302.115 30.3476C301.178 29.7453 299.947 29.8778 299.16 30.6651L287.665 42.1597C286.878 42.947 286.745 44.1777 287.348 45.1151C287.348 45.1151 287.348 45.1152 287.348 45.1152L291.122 50.9863C291.411 51.4358 291.436 52 291.204 52.4727C290.47 53.9689 289.831 55.5098 289.292 57.0838C289.122 57.5814 288.705 57.9623 288.183 58.0757L281.365 59.5579C280.276 59.795 279.5 60.7585 279.5 61.8723V78.1277C279.5 79.2415 280.276 80.205 281.365 80.4421L288.183 81.9243C288.705 82.0377 289.122 82.4186 289.292 82.9162C289.831 84.4902 290.47 86.0311 291.204 87.5273C291.436 87.9999 291.411 88.5642 291.122 89.0137L287.348 94.8848C287.348 94.8848 287.348 94.8849 287.348 94.8849C286.745 95.8223 286.878 97.053 287.665 97.8403L299.16 109.335C299.947 110.122 301.178 110.255 302.115 109.652C302.115 109.652 302.115 109.652 302.115 109.652L307.986 105.878C308.436 105.589 309 105.564 309.473 105.796C310.969 106.53 312.51 107.169 314.084 107.708C314.581 107.878 314.962 108.295 315.076 108.817L316.558 115.635L316.558 115.635C316.794 116.723 317.758 117.5 318.872 117.5H335.128C336.242 117.5 337.206 116.723 337.442 115.635ZM327 52.2888C336.766 52.2888 344.711 60.2339 344.711 70C344.711 79.7661 336.766 87.7112 327 87.7112C317.234 87.7112 309.289 79.7661 309.289 70C309.289 60.2339 317.234 52.2888 327 52.2888Z" fill="url(#paint12_linear_60_1680)" stroke="#333333"/>
<defs>
<linearGradient id="paint0_linear_60_1680" x1="61.0997" y1="359.959" x2="105.731" y2="424.973" gradientUnits="userSpaceOnUse">
<stop stop-color="#FF8E3D"/>
<stop offset="1" stop-color="#FF6F3D"/>
</linearGradient>
<linearGradient id="paint1_linear_60_1680" x1="1.15519e-05" y1="-0.234375" x2="6.00001" y2="6" gradientUnits="userSpaceOnUse">
<stop stop-color="#FF8E3D"/>
<stop offset="1" stop-color="#FF6F3D"/>
</linearGradient>
<linearGradient id="paint2_linear_60_1680" x1="1.15519e-05" y1="-0.234375" x2="6.00001" y2="6" gradientUnits="userSpaceOnUse">
<stop stop-color="#FF8E3D"/>
<stop offset="1" stop-color="#FF6F3D"/>
</linearGradient>
<linearGradient id="paint3_linear_60_1680" x1="1.15519e-05" y1="-0.234375" x2="6.00001" y2="6" gradientUnits="userSpaceOnUse">
<stop stop-color="#FF8E3D"/>
<stop offset="1" stop-color="#FF6F3D"/>
</linearGradient>
<linearGradient id="paint4_linear_60_1680" x1="1.15519e-05" y1="-0.234375" x2="6.00001" y2="6" gradientUnits="userSpaceOnUse">
<stop stop-color="#FF8E3D"/>
<stop offset="1" stop-color="#FF6F3D"/>
</linearGradient>
<linearGradient id="paint5_linear_60_1680" x1="1.15519e-05" y1="-0.234375" x2="6.00001" y2="6" gradientUnits="userSpaceOnUse">
<stop stop-color="#FF8E3D"/>
<stop offset="1" stop-color="#FF6F3D"/>
</linearGradient>
<linearGradient id="paint6_linear_60_1680" x1="1.15519e-05" y1="-0.234375" x2="6.00001" y2="6" gradientUnits="userSpaceOnUse">
<stop stop-color="#FF8E3D"/>
<stop offset="1" stop-color="#FF6F3D"/>
</linearGradient>
<linearGradient id="paint7_linear_60_1680" x1="1.15519e-05" y1="-0.234375" x2="6.00001" y2="6" gradientUnits="userSpaceOnUse">
<stop stop-color="#FF8E3D"/>
<stop offset="1" stop-color="#FF6F3D"/>
</linearGradient>
<linearGradient id="paint8_linear_60_1680" x1="1.15519e-05" y1="-0.234375" x2="6.00001" y2="6" gradientUnits="userSpaceOnUse">
<stop stop-color="#FF8E3D"/>
<stop offset="1" stop-color="#FF6F3D"/>
</linearGradient>
<linearGradient id="paint9_linear_60_1680" x1="1.15519e-05" y1="-0.234375" x2="6.00001" y2="6" gradientUnits="userSpaceOnUse">
<stop stop-color="#FF8E3D"/>
<stop offset="1" stop-color="#FF6F3D"/>
</linearGradient>
<linearGradient id="paint10_linear_60_1680" x1="486.439" y1="260.664" x2="442.964" y2="260.664" gradientUnits="userSpaceOnUse">
<stop offset="0.1474" stop-color="#FF8B3D"/>
<stop offset="1" stop-color="#FF6F3D"/>
</linearGradient>
<linearGradient id="paint11_linear_60_1680" x1="485.68" y1="267.212" x2="425.906" y2="267.212" gradientUnits="userSpaceOnUse">
<stop offset="0.1474" stop-color="#FF8B3D"/>
<stop offset="1" stop-color="#FF6F3D"/>
</linearGradient>
<linearGradient id="paint12_linear_60_1680" x1="279" y1="121.75" x2="375" y2="22" gradientUnits="userSpaceOnUse">
<stop stop-color="#FF8E3D"/>
<stop offset="1" stop-color="#FF6F3D"/>
</linearGradient>
</defs>
</svg>
