<svg width="13" height="10" viewBox="0 0 13 10" fill="none" xmlns="http://www.w3.org/2000/svg">
<path fill-rule="evenodd" clip-rule="evenodd" d="M10.8271 0.326026C11.037 0.117933 11.3204 0.000819806 11.616 4.28766e-06C11.9115 -0.00081123 12.1956 0.114737 12.4066 0.321668C12.6177 0.528599 12.7389 0.810286 12.7439 1.10583C12.7489 1.40137 12.6375 1.68702 12.4336 1.90103L6.44556 9.38603C6.34265 9.49687 6.21844 9.58583 6.08036 9.64758C5.94228 9.70932 5.79317 9.74259 5.64194 9.74539C5.49071 9.74819 5.34047 9.72047 5.2002 9.66388C5.05993 9.60728 4.93251 9.52299 4.82556 9.41603L0.858063 5.44703C0.747532 5.34403 0.658879 5.21983 0.597391 5.08183C0.535903 4.94383 0.50284 4.79486 0.500175 4.64381C0.49751 4.49276 0.525297 4.34271 0.581879 4.20263C0.63846 4.06255 0.722677 3.9353 0.829505 3.82847C0.936333 3.72164 1.06358 3.63742 1.20367 3.58084C1.34375 3.52426 1.49379 3.49647 1.64485 3.49914C1.7959 3.5018 1.94487 3.53487 2.08287 3.59635C2.22087 3.65784 2.34507 3.7465 2.44806 3.85703L5.58906 6.99653L10.7986 0.359026C10.8079 0.347407 10.8179 0.336384 10.8286 0.326026H10.8271Z" fill="#FF6F3D"/>
</svg>
