<svg width="448" height="254" viewBox="0 0 448 254" fill="none" xmlns="http://www.w3.org/2000/svg">
<path d="M222.431 253.553C332.682 253.553 422.058 251.414 422.058 248.776C422.058 246.138 332.682 244 222.431 244C112.179 244 22.8027 246.138 22.8027 248.776C22.8027 251.414 112.179 253.553 222.431 253.553Z" fill="#EFEFEF"/>
<path d="M307.495 16.4962V188.5H6.5V16.4962C6.5 12.5941 9.59981 9.5 13.5052 9.5H300.495C304.315 9.5 307.358 12.4541 307.495 16.23V16.4962Z" fill="#AAAAAA" stroke="#333333"/>
<path d="M12.5 182.5V15.5H301.5V182.5H12.5Z" fill="white" stroke="#333333"/>
<path d="M194 248.5H194.561L194.497 247.943L190.831 215.943L190.78 215.5H190.334H122.4H121.964L121.905 215.932L117.505 247.932L117.427 248.5H118H194Z" fill="#CCCCCC" stroke="#333333"/>
<path d="M6.5 208.442V188.5H307.5V208.442C307.5 212.382 304.396 215.5 300.495 215.5H13.5054C9.59909 215.5 6.5 212.383 6.5 208.442Z" fill="#E2E2E2" stroke="#333333"/>
<path d="M107.333 251.5L117.106 248.5H194.894L204.667 251.5H107.333Z" fill="#E2E2E2" stroke="#333333"/>
<path d="M207.281 252.5L206.909 253.5H104.986L104.677 252.5H207.281Z" fill="#AAAAAA" stroke="#333333"/>
<path d="M162.5 201.497C162.5 204.26 160.259 206.5 157.5 206.5C154.741 206.5 152.5 204.26 152.5 201.497C152.5 198.74 154.74 196.5 157.5 196.5C160.26 196.5 162.5 198.735 162.5 201.497Z" fill="#AAAAAA" stroke="#333333"/>
<path d="M60.973 43.5455C60.973 44.7351 60.7475 45.7472 60.2965 46.5817C59.8491 47.4162 59.2383 48.0536 58.4641 48.494C57.6935 48.9308 56.8271 49.1491 55.8647 49.1491C54.8952 49.1491 54.0252 48.929 53.2546 48.4886C52.484 48.0483 51.875 47.4109 51.4276 46.5763C50.9801 45.7418 50.7564 44.7315 50.7564 43.5455C50.7564 42.3558 50.9801 41.3438 51.4276 40.5092C51.875 39.6747 52.484 39.0391 53.2546 38.6023C54.0252 38.1619 54.8952 37.9418 55.8647 37.9418C56.8271 37.9418 57.6935 38.1619 58.4641 38.6023C59.2383 39.0391 59.8491 39.6747 60.2965 40.5092C60.7475 41.3438 60.973 42.3558 60.973 43.5455ZM58.6346 43.5455C58.6346 42.7749 58.5192 42.125 58.2884 41.5959C58.0611 41.0668 57.7397 40.6655 57.3242 40.392C56.9087 40.1186 56.4222 39.9819 55.8647 39.9819C55.3072 39.9819 54.8207 40.1186 54.4052 40.392C53.9897 40.6655 53.6665 41.0668 53.4357 41.5959C53.2085 42.125 53.0948 42.7749 53.0948 43.5455C53.0948 44.3161 53.2085 44.9659 53.4357 45.495C53.6665 46.0241 53.9897 46.4254 54.4052 46.6989C54.8207 46.9723 55.3072 47.109 55.8647 47.109C56.4222 47.109 56.9087 46.9723 57.3242 46.6989C57.7397 46.4254 58.0611 46.0241 58.2884 45.495C58.5192 44.9659 58.6346 44.3161 58.6346 43.5455ZM71.8062 38.0909V49H69.814L65.0679 42.1339H64.988V49H62.6816V38.0909H64.7057L69.4145 44.9517H69.5104V38.0909H71.8062ZM73.7118 49V38.0909H76.0183V47.0984H80.6951V49H73.7118ZM80.1918 38.0909H82.7752L85.2628 42.7891H85.3693L87.8569 38.0909H90.4403L86.4613 45.1435V49H84.1708V45.1435L80.1918 38.0909ZM101.066 43.5455C101.066 44.7351 100.84 45.7472 100.389 46.5817C99.9419 47.4162 99.3311 48.0536 98.5569 48.494C97.7863 48.9308 96.9198 49.1491 95.9575 49.1491C94.988 49.1491 94.118 48.929 93.3474 48.4886C92.5768 48.0483 91.9678 47.4109 91.5203 46.5763C91.0729 45.7418 90.8492 44.7315 90.8492 43.5455C90.8492 42.3558 91.0729 41.3438 91.5203 40.5092C91.9678 39.6747 92.5768 39.0391 93.3474 38.6023C94.118 38.1619 94.988 37.9418 95.9575 37.9418C96.9198 37.9418 97.7863 38.1619 98.5569 38.6023C99.3311 39.0391 99.9419 39.6747 100.389 40.5092C100.84 41.3438 101.066 42.3558 101.066 43.5455ZM98.7274 43.5455C98.7274 42.7749 98.6119 42.125 98.3811 41.5959C98.1539 41.0668 97.8325 40.6655 97.417 40.392C97.0015 40.1186 96.515 39.9819 95.9575 39.9819C95.3999 39.9819 94.9134 40.1186 94.498 40.392C94.0825 40.6655 93.7593 41.0668 93.5285 41.5959C93.3012 42.125 93.1876 42.7749 93.1876 43.5455C93.1876 44.3161 93.3012 44.9659 93.5285 45.495C93.7593 46.0241 94.0825 46.4254 94.498 46.6989C94.9134 46.9723 95.3999 47.109 95.9575 47.109C96.515 47.109 97.0015 46.9723 97.417 46.6989C97.8325 46.4254 98.1539 46.0241 98.3811 45.495C98.6119 44.9659 98.7274 44.3161 98.7274 43.5455ZM102.774 49V38.0909H109.997V39.9925H105.081V42.592H109.518V44.4936H105.081V49H102.774ZM111.549 49V38.0909H118.772V39.9925H113.855V42.592H118.292V44.4936H113.855V49H111.549ZM122.63 38.0909V49H120.323V38.0909H122.63ZM134.153 41.9102H131.82C131.777 41.6083 131.69 41.3402 131.559 41.1058C131.427 40.8679 131.258 40.6655 131.052 40.4986C130.847 40.3317 130.609 40.2038 130.339 40.1151C130.072 40.0263 129.783 39.9819 129.47 39.9819C128.906 39.9819 128.414 40.1222 127.995 40.4027C127.576 40.6797 127.251 41.0845 127.02 41.6172C126.789 42.1463 126.674 42.7891 126.674 43.5455C126.674 44.3232 126.789 44.9766 127.02 45.5057C127.255 46.0348 127.581 46.4343 128 46.7042C128.419 46.9741 128.904 47.109 129.454 47.109C129.763 47.109 130.049 47.0682 130.312 46.9865C130.578 46.9048 130.815 46.7859 131.021 46.6296C131.226 46.4698 131.397 46.2763 131.532 46.049C131.67 45.8217 131.766 45.5625 131.82 45.2713L134.153 45.282C134.092 45.7827 133.941 46.2656 133.7 46.7308C133.462 47.1925 133.141 47.6062 132.736 47.9719C132.334 48.3342 131.855 48.6218 131.297 48.8349C130.744 49.0444 130.117 49.1491 129.417 49.1491C128.444 49.1491 127.574 48.929 126.807 48.4886C126.044 48.0483 125.44 47.4109 124.996 46.5763C124.556 45.7418 124.335 44.7315 124.335 43.5455C124.335 42.3558 124.559 41.3438 125.007 40.5092C125.454 39.6747 126.061 39.0391 126.828 38.6023C127.595 38.1619 128.458 37.9418 129.417 37.9418C130.049 37.9418 130.635 38.0305 131.175 38.2081C131.718 38.3857 132.199 38.6449 132.619 38.9858C133.038 39.3232 133.378 39.7369 133.641 40.2269C133.908 40.717 134.078 41.2781 134.153 41.9102ZM135.807 49V38.0909H143.157V39.9925H138.113V42.592H142.779V44.4936H138.113V47.0984H143.179V49H135.807ZM152.33 49H148.463V38.0909H152.362C153.459 38.0909 154.404 38.3093 155.196 38.7461C155.988 39.1793 156.597 39.8026 157.023 40.6158C157.453 41.429 157.667 42.402 157.667 43.5348C157.667 44.6712 157.453 45.6477 157.023 46.4645C156.597 47.2812 155.984 47.908 155.185 48.3448C154.39 48.7816 153.438 49 152.33 49ZM150.769 47.0238H152.234C152.916 47.0238 153.489 46.9031 153.955 46.6616C154.423 46.4165 154.775 46.0384 155.009 45.527C155.247 45.0121 155.366 44.348 155.366 43.5348C155.366 42.7287 155.247 42.07 155.009 41.5586C154.775 41.0472 154.425 40.6708 153.96 40.4293C153.495 40.1879 152.921 40.0671 152.239 40.0671H150.769V47.0238ZM163.03 49.1598C162.203 49.1598 161.487 48.984 160.883 48.6325C160.283 48.2773 159.82 47.7837 159.493 47.1516C159.166 46.516 159.003 45.7791 159.003 44.9411C159.003 44.0959 159.166 43.3572 159.493 42.7251C159.82 42.0895 160.283 41.5959 160.883 41.2443C161.487 40.8892 162.203 40.7116 163.03 40.7116C163.857 40.7116 164.571 40.8892 165.171 41.2443C165.775 41.5959 166.24 42.0895 166.567 42.7251C166.894 43.3572 167.057 44.0959 167.057 44.9411C167.057 45.7791 166.894 46.516 166.567 47.1516C166.24 47.7837 165.775 48.2773 165.171 48.6325C164.571 48.984 163.857 49.1598 163.03 49.1598ZM163.041 47.402C163.417 47.402 163.731 47.2955 163.983 47.0824C164.236 46.8658 164.426 46.571 164.553 46.1982C164.685 45.8253 164.751 45.4009 164.751 44.9251C164.751 44.4492 164.685 44.0249 164.553 43.652C164.426 43.2791 164.236 42.9844 163.983 42.7678C163.731 42.5511 163.417 42.4428 163.041 42.4428C162.661 42.4428 162.341 42.5511 162.082 42.7678C161.826 42.9844 161.633 43.2791 161.501 43.652C161.373 44.0249 161.309 44.4492 161.309 44.9251C161.309 45.4009 161.373 45.8253 161.501 46.1982C161.633 46.571 161.826 46.8658 162.082 47.0824C162.341 47.2955 162.661 47.402 163.041 47.402ZM172.229 49.1598C171.391 49.1598 170.67 48.9822 170.067 48.6271C169.466 48.2685 169.005 47.7713 168.682 47.1357C168.362 46.5 168.202 45.7685 168.202 44.9411C168.202 44.103 168.364 43.3679 168.687 42.7358C169.014 42.1001 169.477 41.6048 170.077 41.2496C170.677 40.891 171.391 40.7116 172.219 40.7116C172.932 40.7116 173.557 40.8413 174.094 41.1005C174.63 41.3597 175.054 41.7237 175.367 42.1925C175.679 42.6612 175.851 43.2116 175.883 43.8438H173.742C173.682 43.4354 173.522 43.1069 173.263 42.8583C173.007 42.6062 172.671 42.4801 172.256 42.4801C171.904 42.4801 171.597 42.576 171.334 42.7678C171.075 42.956 170.873 43.2312 170.727 43.5934C170.581 43.9556 170.509 44.3942 170.509 44.9091C170.509 45.4311 170.58 45.875 170.722 46.2408C170.867 46.6065 171.072 46.8853 171.334 47.0771C171.597 47.2688 171.904 47.3647 172.256 47.3647C172.515 47.3647 172.748 47.3114 172.954 47.2049C173.163 47.0984 173.335 46.9439 173.47 46.7415C173.609 46.5355 173.699 46.2887 173.742 46.0011H175.883C175.848 46.6261 175.677 47.1765 175.372 47.6523C175.07 48.1246 174.653 48.494 174.12 48.7603C173.588 49.0266 172.957 49.1598 172.229 49.1598ZM183.297 41.2283C183.254 40.7987 183.071 40.4648 182.748 40.2269C182.425 39.989 181.986 39.87 181.432 39.87C181.056 39.87 180.738 39.9233 180.479 40.0298C180.22 40.1328 180.021 40.2766 179.882 40.4613C179.747 40.646 179.68 40.8555 179.68 41.0898C179.673 41.2852 179.714 41.4556 179.802 41.6012C179.895 41.7468 180.021 41.8729 180.181 41.9794C180.34 42.0824 180.525 42.1729 180.735 42.2511C180.944 42.3256 181.168 42.3896 181.406 42.4428L182.386 42.6772C182.862 42.7837 183.299 42.9258 183.696 43.1033C184.094 43.2809 184.438 43.4993 184.73 43.7585C185.021 44.0178 185.246 44.3232 185.406 44.6747C185.57 45.0263 185.653 45.4293 185.657 45.8839C185.653 46.5515 185.483 47.1303 185.145 47.6204C184.811 48.1069 184.328 48.4851 183.696 48.755C183.068 49.0213 182.31 49.1545 181.422 49.1545C180.541 49.1545 179.774 49.0195 179.121 48.7496C178.471 48.4798 177.963 48.0803 177.597 47.5511C177.235 47.0185 177.045 46.3597 177.027 45.5749H179.259C179.284 45.9407 179.389 46.2461 179.573 46.4911C179.762 46.7326 180.012 46.9155 180.324 47.0398C180.641 47.1605 180.997 47.2209 181.395 47.2209C181.786 47.2209 182.125 47.1641 182.413 47.0504C182.704 46.9368 182.929 46.7788 183.089 46.5763C183.249 46.3739 183.329 46.1413 183.329 45.8786C183.329 45.6335 183.256 45.4276 183.11 45.2607C182.968 45.0937 182.759 44.9517 182.482 44.8345C182.208 44.7173 181.873 44.6108 181.475 44.5149L180.287 44.2166C179.367 43.9929 178.641 43.6431 178.109 43.1673C177.576 42.6914 177.311 42.0504 177.315 41.2443C177.311 40.5838 177.487 40.0067 177.842 39.5131C178.201 39.0195 178.693 38.6342 179.318 38.3572C179.943 38.0803 180.653 37.9418 181.448 37.9418C182.258 37.9418 182.965 38.0803 183.568 38.3572C184.176 38.6342 184.648 39.0195 184.985 39.5131C185.323 40.0067 185.497 40.5785 185.507 41.2283H183.297ZM187.165 52.0682V40.8182H189.403V42.1925H189.504C189.603 41.9723 189.747 41.7486 189.935 41.5213C190.127 41.2905 190.376 41.0987 190.681 40.946C190.99 40.7898 191.373 40.7116 191.831 40.7116C192.428 40.7116 192.979 40.8679 193.483 41.1804C193.987 41.4893 194.39 41.9563 194.692 42.5813C194.994 43.2028 195.145 43.9822 195.145 44.9197C195.145 45.8324 194.997 46.603 194.703 47.2315C194.411 47.8565 194.014 48.3306 193.509 48.6538C193.009 48.9734 192.448 49.1332 191.826 49.1332C191.386 49.1332 191.011 49.0604 190.702 48.9148C190.397 48.7692 190.146 48.5863 189.951 48.3661C189.756 48.1424 189.607 47.9169 189.504 47.6896H189.434V52.0682H187.165ZM189.387 44.9091C189.387 45.3956 189.454 45.82 189.589 46.1822C189.724 46.5444 189.919 46.8267 190.175 47.0291C190.431 47.228 190.741 47.3274 191.107 47.3274C191.476 47.3274 191.789 47.2262 192.045 47.0238C192.3 46.8178 192.494 46.5337 192.625 46.1715C192.76 45.8058 192.828 45.3849 192.828 44.9091C192.828 44.4368 192.762 44.0213 192.631 43.6626C192.499 43.304 192.306 43.0234 192.05 42.821C191.794 42.6186 191.48 42.5174 191.107 42.5174C190.738 42.5174 190.425 42.6151 190.17 42.8104C189.917 43.0057 189.724 43.2827 189.589 43.6413C189.454 44 189.387 44.4226 189.387 44.9091ZM198.991 49.1545C198.469 49.1545 198.003 49.0639 197.595 48.8828C197.187 48.6982 196.863 48.4265 196.626 48.0678C196.391 47.7056 196.274 47.2546 196.274 46.7148C196.274 46.2603 196.357 45.8786 196.524 45.5696C196.691 45.2607 196.919 45.0121 197.206 44.8239C197.494 44.6357 197.82 44.4936 198.186 44.3977C198.556 44.3018 198.943 44.2344 199.347 44.1953C199.823 44.1456 200.207 44.0994 200.498 44.0568C200.789 44.0107 201.001 43.9432 201.132 43.8544C201.263 43.7656 201.329 43.6342 201.329 43.4602V43.4283C201.329 43.0909 201.222 42.8299 201.009 42.6452C200.8 42.4606 200.502 42.3683 200.115 42.3683C199.706 42.3683 199.381 42.4588 199.14 42.6399C198.898 42.8175 198.738 43.0412 198.66 43.3111L196.562 43.1406C196.668 42.6435 196.878 42.2138 197.19 41.8516C197.503 41.4858 197.906 41.2053 198.399 41.0099C198.896 40.8111 199.472 40.7116 200.125 40.7116C200.58 40.7116 201.015 40.7649 201.43 40.8714C201.849 40.978 202.22 41.1431 202.544 41.3668C202.87 41.5906 203.128 41.8782 203.316 42.2298C203.504 42.5778 203.598 42.995 203.598 43.4815V49H201.446V47.8654H201.382C201.251 48.1211 201.075 48.3466 200.855 48.5419C200.635 48.7337 200.37 48.8846 200.061 48.9947C199.752 49.1012 199.395 49.1545 198.991 49.1545ZM199.64 47.5884C199.974 47.5884 200.269 47.5227 200.525 47.3913C200.78 47.2564 200.981 47.0753 201.127 46.848C201.272 46.6207 201.345 46.3633 201.345 46.0756V45.2074C201.274 45.2536 201.176 45.2962 201.052 45.3352C200.931 45.3707 200.795 45.4045 200.642 45.4364C200.489 45.4648 200.336 45.4915 200.184 45.5163C200.031 45.5376 199.893 45.5572 199.768 45.5749C199.502 45.614 199.269 45.6761 199.07 45.7614C198.872 45.8466 198.717 45.962 198.607 46.1076C198.497 46.2496 198.442 46.4272 198.442 46.6403C198.442 46.9492 198.554 47.1854 198.778 47.3487C199.005 47.5085 199.292 47.5884 199.64 47.5884ZM209.055 49.1598C208.217 49.1598 207.496 48.9822 206.893 48.6271C206.293 48.2685 205.831 47.7713 205.508 47.1357C205.188 46.5 205.028 45.7685 205.028 44.9411C205.028 44.103 205.19 43.3679 205.513 42.7358C205.84 42.1001 206.303 41.6048 206.903 41.2496C207.504 40.891 208.217 40.7116 209.045 40.7116C209.759 40.7116 210.384 40.8413 210.92 41.1005C211.456 41.3597 211.88 41.7237 212.193 42.1925C212.505 42.6612 212.678 43.2116 212.71 43.8438H210.568C210.508 43.4354 210.348 43.1069 210.089 42.8583C209.833 42.6062 209.498 42.4801 209.082 42.4801C208.73 42.4801 208.423 42.576 208.161 42.7678C207.901 42.956 207.699 43.2312 207.553 43.5934C207.408 43.9556 207.335 44.3942 207.335 44.9091C207.335 45.4311 207.406 45.875 207.548 46.2408C207.694 46.6065 207.898 46.8853 208.161 47.0771C208.423 47.2688 208.73 47.3647 209.082 47.3647C209.341 47.3647 209.574 47.3114 209.78 47.2049C209.989 47.0984 210.162 46.9439 210.297 46.7415C210.435 46.5355 210.526 46.2887 210.568 46.0011H212.71C212.674 46.6261 212.504 47.1765 212.198 47.6523C211.896 48.1246 211.479 48.494 210.946 48.7603C210.414 49.0266 209.783 49.1598 209.055 49.1598ZM217.891 49.1598C217.049 49.1598 216.325 48.9893 215.718 48.6484C215.114 48.304 214.649 47.8175 214.322 47.1889C213.995 46.5568 213.832 45.8093 213.832 44.9464C213.832 44.1048 213.995 43.3661 214.322 42.7305C214.649 42.0948 215.109 41.5994 215.702 41.2443C216.298 40.8892 216.998 40.7116 217.801 40.7116C218.34 40.7116 218.843 40.7987 219.308 40.9727C219.777 41.1431 220.185 41.4006 220.533 41.745C220.885 42.0895 221.158 42.5227 221.353 43.0447C221.549 43.5632 221.646 44.1705 221.646 44.8665V45.4897H214.738V44.0835H219.51C219.51 43.7567 219.439 43.4673 219.297 43.2152C219.155 42.9631 218.958 42.766 218.706 42.6239C218.457 42.4783 218.168 42.4055 217.838 42.4055C217.493 42.4055 217.188 42.4854 216.922 42.6452C216.659 42.8015 216.453 43.0128 216.304 43.2791C216.155 43.5419 216.078 43.8349 216.075 44.158V45.495C216.075 45.8999 216.149 46.2496 216.298 46.5444C216.451 46.8391 216.666 47.0664 216.943 47.2262C217.22 47.386 217.548 47.4659 217.928 47.4659C218.18 47.4659 218.411 47.4304 218.621 47.3594C218.83 47.2884 219.01 47.1818 219.159 47.0398C219.308 46.8977 219.422 46.7237 219.5 46.5178L221.598 46.6562C221.492 47.1605 221.274 47.6009 220.943 47.9773C220.617 48.3501 220.194 48.6413 219.676 48.8509C219.161 49.0568 218.566 49.1598 217.891 49.1598Z" fill="#192435"/>
<rect x="26" y="146" width="113" height="24" rx="2" fill="#15803D"/>
<path d="M45.1776 153.273V162H43.3537V154.773H39.8253V162H38.0014V153.273H45.1776ZM49.8576 162.128C49.1957 162.128 48.6232 161.987 48.1403 161.706C47.6602 161.422 47.2894 161.027 47.0281 160.521C46.7667 160.013 46.636 159.423 46.636 158.753C46.636 158.077 46.7667 157.486 47.0281 156.98C47.2894 156.472 47.6602 156.077 48.1403 155.795C48.6232 155.511 49.1957 155.369 49.8576 155.369C50.5195 155.369 51.0906 155.511 51.5707 155.795C52.0536 156.077 52.4258 156.472 52.6871 156.98C52.9485 157.486 53.0792 158.077 53.0792 158.753C53.0792 159.423 52.9485 160.013 52.6871 160.521C52.4258 161.027 52.0536 161.422 51.5707 161.706C51.0906 161.987 50.5195 162.128 49.8576 162.128ZM49.8661 160.722C50.1673 160.722 50.4187 160.636 50.6204 160.466C50.8221 160.293 50.9741 160.057 51.0763 159.759C51.1815 159.46 51.234 159.121 51.234 158.74C51.234 158.359 51.1815 158.02 51.0763 157.722C50.9741 157.423 50.8221 157.187 50.6204 157.014C50.4187 156.841 50.1673 156.754 49.8661 156.754C49.5621 156.754 49.3065 156.841 49.0991 157.014C48.8945 157.187 48.7397 157.423 48.6346 157.722C48.5323 158.02 48.4812 158.359 48.4812 158.74C48.4812 159.121 48.5323 159.46 48.6346 159.759C48.7397 160.057 48.8945 160.293 49.0991 160.466C49.3065 160.636 49.5621 160.722 49.8661 160.722ZM53.7482 163.918V160.56H54.2511C54.396 160.469 54.5124 160.324 54.6005 160.125C54.6914 159.926 54.7653 159.692 54.8221 159.422C54.8817 159.152 54.9272 158.861 54.9585 158.548C54.9925 158.233 55.0224 157.915 55.0479 157.594L55.2184 155.455H60.2383V160.56H61.2525V163.918H59.5224V162H55.521V163.918H53.7482ZM56.0579 160.56H58.5252V156.852H56.761L56.6928 157.594C56.6445 158.293 56.5749 158.886 56.484 159.375C56.3931 159.861 56.2511 160.256 56.0579 160.56ZM62.3104 162V155.455H64.1257V157.994H64.6371L66.4183 155.455H68.549L66.2351 158.702L68.5746 162H66.4183L64.8033 159.678H64.1257V162H62.3104ZM68.9581 162L68.9496 160.56H69.1669C69.3203 160.56 69.4524 160.523 69.5632 160.449C69.6768 160.372 69.7706 160.249 69.8445 160.078C69.9183 159.908 69.9766 159.682 70.0192 159.401C70.0618 159.116 70.0902 158.767 70.1044 158.352L70.2109 155.455H75.1882V162H73.4581V156.882H71.843L71.7408 158.881C71.7152 159.429 71.6484 159.901 71.5405 160.295C71.4354 160.69 71.2891 161.014 71.1016 161.267C70.9141 161.517 70.6882 161.702 70.424 161.821C70.1598 161.94 69.853 162 69.5036 162H68.9581ZM80.2134 158.041V159.482H76.6637V158.041H80.2134ZM78.0657 155.455V162H76.2546V155.455H78.0657ZM82.1737 162.128C81.5259 162.128 80.9663 161.983 80.4947 161.693C80.0231 161.403 79.6594 161.003 79.4038 160.491C79.1509 159.98 79.0245 159.393 79.0245 158.732C79.0245 158.07 79.1509 157.486 79.4038 156.98C79.6594 156.474 80.0231 156.08 80.4947 155.795C80.9663 155.511 81.5259 155.369 82.1737 155.369C82.8242 155.369 83.3839 155.511 83.8526 155.795C84.3242 156.08 84.6864 156.474 84.9393 156.98C85.195 157.486 85.3228 158.07 85.3228 158.732C85.3228 159.393 85.195 159.98 84.9393 160.491C84.6864 161.003 84.3242 161.403 83.8526 161.693C83.3839 161.983 82.8242 162.128 82.1737 162.128ZM82.1737 160.662C82.5117 160.662 82.7844 160.58 82.9918 160.415C83.1992 160.247 83.3512 160.018 83.4478 159.729C83.5444 159.436 83.5927 159.104 83.5927 158.732C83.5927 158.359 83.5444 158.03 83.4478 157.743C83.3512 157.453 83.1992 157.226 82.9918 157.061C82.7844 156.896 82.5117 156.814 82.1737 156.814C81.8384 156.814 81.5657 156.896 81.3555 157.061C81.1452 157.223 80.9904 157.447 80.891 157.734C80.7944 158.021 80.7461 158.354 80.7461 158.732C80.7461 159.107 80.7944 159.439 80.891 159.729C80.9904 160.018 81.1452 160.247 81.3555 160.415C81.5657 160.58 81.8384 160.662 82.1737 160.662ZM92.2369 155.455V162H90.5153V155.455H92.2369ZM91.3974 158.327V159.759C91.2582 159.821 91.0849 159.881 90.8775 159.938C90.6701 159.991 90.4528 160.036 90.2255 160.07C89.9982 160.104 89.7852 160.121 89.5863 160.121C88.646 160.121 87.9059 159.928 87.3661 159.541C86.8263 159.152 86.5565 158.531 86.5565 157.679V155.446H88.2695V157.679C88.2695 157.932 88.3121 158.132 88.3974 158.28C88.4854 158.428 88.6246 158.534 88.815 158.599C89.0082 158.662 89.2653 158.693 89.5863 158.693C89.8846 158.693 90.1772 158.662 90.4641 158.599C90.7511 158.537 91.0621 158.446 91.3974 158.327ZM95.3807 159.605L97.7372 155.455H99.527V162H97.7969V157.837L95.4489 162H93.6463V155.455H95.3807V159.605ZM100.325 156.882V155.455H106.257V156.882H104.147V162H102.417V156.882H100.325ZM108.495 157.466H110.451C111.317 157.466 111.994 157.673 112.479 158.088C112.965 158.5 113.208 159.051 113.208 159.741C113.208 160.19 113.099 160.585 112.88 160.926C112.661 161.264 112.346 161.528 111.934 161.719C111.522 161.906 111.028 162 110.451 162H107.357V155.455H109.092V160.572H110.451C110.755 160.572 111.005 160.496 111.201 160.342C111.397 160.189 111.496 159.993 111.499 159.754C111.496 159.501 111.397 159.295 111.201 159.136C111.005 158.974 110.755 158.893 110.451 158.893H108.495V157.466ZM117.369 162.128C116.699 162.128 116.122 161.986 115.639 161.702C115.159 161.415 114.79 161.017 114.531 160.509C114.276 160 114.148 159.415 114.148 158.753C114.148 158.082 114.277 157.494 114.536 156.989C114.797 156.48 115.168 156.084 115.648 155.8C116.128 155.513 116.699 155.369 117.361 155.369C117.932 155.369 118.432 155.473 118.861 155.68C119.29 155.888 119.629 156.179 119.879 156.554C120.129 156.929 120.267 157.369 120.293 157.875H118.58C118.531 157.548 118.403 157.286 118.196 157.087C117.991 156.885 117.723 156.784 117.391 156.784C117.109 156.784 116.864 156.861 116.653 157.014C116.446 157.165 116.284 157.385 116.168 157.675C116.051 157.964 115.993 158.315 115.993 158.727C115.993 159.145 116.05 159.5 116.163 159.793C116.28 160.085 116.443 160.308 116.653 160.462C116.864 160.615 117.109 160.692 117.391 160.692C117.598 160.692 117.784 160.649 117.949 160.564C118.116 160.479 118.254 160.355 118.362 160.193C118.473 160.028 118.545 159.831 118.58 159.601H120.293C120.264 160.101 120.128 160.541 119.884 160.922C119.642 161.3 119.308 161.595 118.882 161.808C118.456 162.021 117.952 162.128 117.369 162.128ZM125.29 162V156.878H124.063C123.73 156.878 123.478 156.955 123.304 157.108C123.131 157.261 123.046 157.443 123.049 157.653C123.046 157.866 123.128 158.047 123.296 158.195C123.466 158.339 123.716 158.412 124.046 158.412H125.895V159.639H124.046C123.486 159.639 123.002 159.554 122.593 159.384C122.184 159.213 121.868 158.976 121.647 158.672C121.425 158.365 121.316 158.009 121.319 157.602C121.316 157.176 121.425 156.803 121.647 156.482C121.868 156.158 122.185 155.906 122.597 155.727C123.012 155.545 123.5 155.455 124.063 155.455H126.982V162H125.29ZM121.131 162L122.951 158.591H124.685L122.87 162H121.131Z" fill="white"/>
<path d="M42 45C42.5523 45 43 44.5523 43 44C43 43.4477 42.5523 43 42 43V45ZM25.2929 43.2929C24.9024 43.6834 24.9024 44.3166 25.2929 44.7071L31.6569 51.0711C32.0474 51.4616 32.6805 51.4616 33.0711 51.0711C33.4616 50.6805 33.4616 50.0474 33.0711 49.6569L27.4142 44L33.0711 38.3431C33.4616 37.9526 33.4616 37.3195 33.0711 36.9289C32.6805 36.5384 32.0474 36.5384 31.6569 36.9289L25.2929 43.2929ZM42 43H26V45H42V43Z" fill="#192435"/>
<rect x="26" y="70" width="35" height="2" rx="1" fill="#E2E2E2"/>
<rect x="77" y="70" width="35" height="2" rx="1" fill="#2B74DA"/>
<rect x="26.5" y="96.5" width="195" height="34" rx="1.5" fill="white" stroke="#E2E2E2"/>
<rect x="13" y="82" width="288" height="1" fill="#E2E2E2"/>
<rect x="68" y="81" width="53" height="2" fill="#2B74DA"/>
<path d="M35.2472 114.406V119H34.0739V108.818H35.2472V112.557H35.3466C35.5256 112.162 35.794 111.849 36.152 111.617C36.5133 111.382 36.9938 111.264 37.5938 111.264C38.1141 111.264 38.5698 111.369 38.9609 111.577C39.352 111.783 39.6553 112.099 39.8707 112.527C40.0895 112.951 40.1989 113.491 40.1989 114.148V119H39.0256V114.227C39.0256 113.621 38.8681 113.152 38.5533 112.82C38.2417 112.486 37.8092 112.318 37.2557 112.318C36.8712 112.318 36.5265 112.399 36.2216 112.562C35.92 112.724 35.6813 112.961 35.5057 113.273C35.3333 113.584 35.2472 113.962 35.2472 114.406ZM45.6664 111.364V112.358H41.709V111.364H45.6664ZM42.8624 109.534H44.0357V116.812C44.0357 117.144 44.0837 117.393 44.1799 117.558C44.2793 117.721 44.4052 117.83 44.5577 117.886C44.7135 117.939 44.8775 117.966 45.0499 117.966C45.1792 117.966 45.2852 117.959 45.3681 117.946C45.4509 117.929 45.5172 117.916 45.5669 117.906L45.8056 118.96C45.726 118.99 45.615 119.02 45.4725 119.05C45.33 119.083 45.1493 119.099 44.9306 119.099C44.5991 119.099 44.2743 119.028 43.9561 118.886C43.6413 118.743 43.3794 118.526 43.1706 118.234C42.9651 117.943 42.8624 117.575 42.8624 117.131V109.534ZM50.7523 111.364V112.358H46.7949V111.364H50.7523ZM47.9483 109.534H49.1216V116.812C49.1216 117.144 49.1697 117.393 49.2658 117.558C49.3652 117.721 49.4912 117.83 49.6436 117.886C49.7994 117.939 49.9635 117.966 50.1358 117.966C50.2651 117.966 50.3712 117.959 50.454 117.946C50.5369 117.929 50.6032 117.916 50.6529 117.906L50.8915 118.96C50.812 118.99 50.7009 119.02 50.5584 119.05C50.4159 119.083 50.2353 119.099 50.0165 119.099C49.6851 119.099 49.3603 119.028 49.0421 118.886C48.7272 118.743 48.4654 118.526 48.2566 118.234C48.0511 117.943 47.9483 117.575 47.9483 117.131V109.534ZM52.5172 121.864V111.364H53.6507V112.577H53.79C53.8761 112.444 53.9954 112.275 54.1479 112.07C54.3037 111.861 54.5257 111.675 54.8141 111.513C55.1058 111.347 55.5002 111.264 55.9973 111.264C56.6403 111.264 57.2071 111.425 57.6976 111.746C58.1882 112.068 58.571 112.524 58.8461 113.114C59.1212 113.704 59.2587 114.4 59.2587 115.202C59.2587 116.01 59.1212 116.711 58.8461 117.305C58.571 117.895 58.1898 118.352 57.7026 118.677C57.2154 118.998 56.6536 119.159 56.0172 119.159C55.5267 119.159 55.1339 119.078 54.839 118.915C54.544 118.75 54.3169 118.562 54.1578 118.354C53.9988 118.142 53.8761 117.966 53.79 117.827H53.6905V121.864H52.5172ZM53.6706 115.182C53.6706 115.759 53.7551 116.267 53.9242 116.708C54.0932 117.146 54.3401 117.489 54.665 117.737C54.9898 117.982 55.3875 118.105 55.8581 118.105C56.3487 118.105 56.758 117.976 57.0861 117.717C57.4176 117.455 57.6661 117.104 57.8319 116.663C58.0009 116.219 58.0854 115.725 58.0854 115.182C58.0854 114.645 58.0025 114.161 57.8368 113.73C57.6744 113.296 57.4275 112.953 57.0961 112.701C56.7679 112.446 56.3553 112.318 55.8581 112.318C55.3809 112.318 54.9798 112.439 54.655 112.681C54.3302 112.92 54.0849 113.254 53.9192 113.685C53.7535 114.113 53.6706 114.612 53.6706 115.182ZM66.4576 113.074L65.4036 113.372C65.3373 113.196 65.2395 113.026 65.1103 112.86C64.9843 112.691 64.812 112.552 64.5932 112.442C64.3745 112.333 64.0944 112.278 63.753 112.278C63.2857 112.278 62.8962 112.386 62.5847 112.602C62.2765 112.814 62.1223 113.084 62.1223 113.412C62.1223 113.704 62.2284 113.934 62.4405 114.103C62.6526 114.272 62.9841 114.413 63.4348 114.526L64.5684 114.804C65.2511 114.97 65.7599 115.223 66.0946 115.565C66.4294 115.903 66.5968 116.339 66.5968 116.872C66.5968 117.31 66.4708 117.701 66.2189 118.045C65.9703 118.39 65.6223 118.662 65.1749 118.861C64.7275 119.06 64.2071 119.159 63.6138 119.159C62.8349 119.159 62.1903 118.99 61.6799 118.652C61.1694 118.314 60.8463 117.82 60.7104 117.17L61.824 116.892C61.9301 117.303 62.1306 117.611 62.4256 117.817C62.7239 118.022 63.1133 118.125 63.5939 118.125C64.1408 118.125 64.575 118.009 64.8965 117.777C65.2213 117.542 65.3837 117.26 65.3837 116.932C65.3837 116.667 65.2909 116.445 65.1053 116.266C64.9197 116.083 64.6346 115.947 64.2502 115.858L62.9775 115.56C62.2781 115.394 61.7644 115.137 61.4363 114.789C61.1114 114.438 60.949 113.999 60.949 113.472C60.949 113.041 61.07 112.66 61.312 112.328C61.5572 111.997 61.8903 111.737 62.3113 111.548C62.7355 111.359 63.2161 111.264 63.753 111.264C64.5087 111.264 65.102 111.43 65.5328 111.761C65.967 112.093 66.2753 112.53 66.4576 113.074ZM69.218 119.08C68.9728 119.08 68.7623 118.992 68.5866 118.816C68.411 118.64 68.3232 118.43 68.3232 118.185C68.3232 117.939 68.411 117.729 68.5866 117.553C68.7623 117.378 68.9728 117.29 69.218 117.29C69.4633 117.29 69.6738 117.378 69.8494 117.553C70.0251 117.729 70.1129 117.939 70.1129 118.185C70.1129 118.347 70.0715 118.496 69.9886 118.632C69.9091 118.768 69.8014 118.877 69.6655 118.96C69.5329 119.04 69.3838 119.08 69.218 119.08ZM69.218 113.412C68.9728 113.412 68.7623 113.324 68.5866 113.148C68.411 112.973 68.3232 112.762 68.3232 112.517C68.3232 112.272 68.411 112.061 68.5866 111.886C68.7623 111.71 68.9728 111.622 69.218 111.622C69.4633 111.622 69.6738 111.71 69.8494 111.886C70.0251 112.061 70.1129 112.272 70.1129 112.517C70.1129 112.679 70.0715 112.829 69.9886 112.964C69.9091 113.1 69.8014 113.21 69.6655 113.293C69.5329 113.372 69.3838 113.412 69.218 113.412ZM75.8178 108.341L72.5366 120.531H71.4627L74.744 108.341H75.8178ZM80.8081 108.341L77.5268 120.531H76.4529L79.7342 108.341H80.8081Z" fill="#9CA4AE"/>
<path fill-rule="evenodd" clip-rule="evenodd" d="M358.579 47.1132C358.238 48.947 357.59 51.5152 356.442 52.144C355.664 52.5761 354.472 51.8896 352.652 48.8749C354.477 48.7837 356.427 48.2461 358.161 47.3388C358.301 47.2668 358.44 47.19 358.579 47.1132ZM350.034 48.6685C349.16 49.715 348.377 50.4255 347.695 50.8911C346.681 51.5776 345.985 51.6832 345.595 51.5488C345.264 51.4288 345.096 50.8671 345.033 50.1615C344.918 48.9182 345.154 47.3676 345.341 46.5036C345.701 46.4555 346.076 46.4075 346.455 46.3691L346.647 46.638C347.454 47.6892 348.646 48.3517 350.034 48.6685Z" fill="#CCCCCC"/>
<path fill-rule="evenodd" clip-rule="evenodd" d="M346.506 46.2554L346.734 46.5736C347.522 47.5997 348.688 48.2508 350.057 48.5632L350.229 48.6025L350.116 48.7378C349.237 49.7898 348.447 50.5077 347.755 50.9803C346.734 51.672 345.999 51.8025 345.56 51.6508L345.558 51.6503C345.347 51.5737 345.207 51.3649 345.112 51.1126C345.016 50.856 344.957 50.5284 344.925 50.1712C344.809 48.9115 345.047 47.3484 345.235 46.4807L345.251 46.4065L345.326 46.3965C345.687 46.3484 346.063 46.3003 346.444 46.2617L346.506 46.2554ZM345.43 46.6006C345.247 47.473 345.03 48.9591 345.141 50.1515C345.171 50.4998 345.228 50.8062 345.314 51.0368C345.402 51.2713 345.511 51.4032 345.631 51.4469C345.97 51.5637 346.628 51.4824 347.633 50.8018C348.276 50.363 349.014 49.7006 349.838 48.7327C348.504 48.3971 347.353 47.7354 346.561 46.7037L346.559 46.7008L346.403 46.483C346.073 46.5173 345.747 46.5586 345.43 46.6006ZM358.727 46.9083L358.685 47.1329C358.514 48.0519 358.265 49.1593 357.914 50.1176C357.738 50.5968 357.536 51.0418 357.303 51.4085C357.07 51.7741 356.803 52.0693 356.493 52.2387C356.05 52.4846 355.509 52.3941 354.87 51.8866C354.232 51.38 353.471 50.4414 352.559 48.9308L352.465 48.7761L352.646 48.7671C354.455 48.6767 356.39 48.1435 358.111 47.2431C358.249 47.1719 358.387 47.0955 358.527 47.0186L358.727 46.9083ZM358.43 47.318C358.357 47.3577 358.284 47.3968 358.211 47.4346C356.52 48.3189 354.626 48.8551 352.837 48.9724C353.703 50.3854 354.418 51.2517 355.004 51.7174C355.61 52.1985 356.054 52.2354 356.389 52.0496C356.654 51.9046 356.898 51.6426 357.121 51.2926C357.342 50.9435 357.539 50.514 357.711 50.0433C358.029 49.1777 358.262 48.1836 358.43 47.318Z" fill="#CCCCCC"/>
<path fill-rule="evenodd" clip-rule="evenodd" d="M358.647 23.639C358.685 21.8244 358.618 20.3075 358.469 19.045C358.282 17.5041 357.96 16.3184 357.537 15.4207C357.225 14.7582 356.754 14.1198 356.183 13.6061C355.64 13.1117 354.996 12.7181 354.304 12.5068C353.44 12.2428 352.599 12.2956 351.783 12.5452C351.019 12.7757 350.289 13.1789 349.573 13.6493C349.218 13.8798 348.91 14.1006 348.617 14.3118C347.402 15.1807 346.432 15.8767 344.688 15.4063C344.568 15.3727 344.452 15.3151 344.356 15.2335C344.217 15.1135 344.107 14.9502 344.049 14.7582C343.987 14.5518 343.982 14.3118 344.054 14.043C344.126 13.7645 344.289 13.4621 344.553 13.1501L344.587 13.1021C344.683 12.9677 344.803 12.8333 344.942 12.6989C346.115 11.5564 348.454 10.6731 351.115 10.4907C353.795 10.3083 356.773 10.8603 359.175 12.5981C359.636 12.9293 360.073 13.3037 360.487 13.7309C361.462 14.7342 362.211 16.1311 362.6 18.0321C362.936 19.6786 363.004 21.6996 362.715 24.167C362.581 23.9222 362.417 23.7062 362.225 23.5238C361.855 23.1781 361.385 22.9669 360.828 22.9381C360.208 22.9045 359.473 23.1109 358.647 23.639Z" fill="#666666"/>
<path fill-rule="evenodd" clip-rule="evenodd" d="M359.111 12.6856C356.735 10.9663 353.784 10.4173 351.122 10.5985C348.474 10.78 346.164 11.6586 345.017 12.7763C344.882 12.9073 344.766 13.037 344.675 13.1646L344.636 13.2203C344.379 13.5233 344.225 13.8112 344.158 14.0701C344.09 14.3219 344.096 14.5421 344.152 14.727C344.204 14.8987 344.302 15.0446 344.426 15.1515C344.509 15.2216 344.61 15.2723 344.716 15.3022C345.567 15.5318 346.223 15.4757 346.813 15.2599C347.409 15.0421 347.943 14.6605 348.554 14.2241C348.847 14.013 349.156 13.7909 349.514 13.559C350.233 13.0862 350.973 12.6767 351.751 12.442C352.584 12.1874 353.447 12.1322 354.336 12.4036C355.045 12.6202 355.702 13.0228 356.255 13.5261C356.837 14.0493 357.316 14.6993 357.634 15.3747C358.064 16.2859 358.388 17.4837 358.576 19.032C358.72 20.2542 358.788 21.7121 358.758 23.4431C359.53 22.9834 360.229 22.7976 360.833 22.8303C361.416 22.8605 361.91 23.0821 362.299 23.4449C362.425 23.5651 362.54 23.6994 362.642 23.8453C362.889 21.5264 362.813 19.6175 362.494 18.0538C362.108 16.1699 361.367 14.7926 360.409 13.8063C360 13.3838 359.567 13.0132 359.111 12.6856ZM359.238 12.5105C356.811 10.7545 353.806 10.1994 351.107 10.383C348.433 10.5663 346.064 11.4542 344.867 12.6214C344.724 12.759 344.6 12.8983 344.499 13.0394L344.467 13.0842C344.198 13.4037 344.026 13.7189 343.949 14.0155C343.872 14.3012 343.876 14.5617 343.945 14.7895C344.009 15.0017 344.131 15.1823 344.286 15.3154C344.395 15.4082 344.525 15.4731 344.658 15.5104L344.659 15.5106C345.552 15.7514 346.253 15.6947 346.887 15.4628C347.512 15.2345 348.067 14.8375 348.667 14.4083L348.68 14.3997C348.973 14.1885 349.278 13.9689 349.631 13.74C350.343 13.272 351.064 12.8748 351.813 12.6487C352.613 12.4042 353.432 12.3536 354.272 12.6102C354.947 12.8161 355.577 13.2006 356.109 13.6861C356.67 14.1901 357.133 14.8174 357.439 15.4668C357.855 16.3509 358.175 17.5245 358.361 19.0579C358.51 20.3144 358.577 21.8261 358.538 23.6368L358.534 23.839L358.705 23.73C359.518 23.2103 360.23 23.014 360.821 23.046C361.353 23.0735 361.8 23.2742 362.151 23.6024C362.334 23.7765 362.491 23.9833 362.62 24.2191L362.783 24.5153L362.822 24.1796C363.111 21.7039 363.045 19.671 362.705 18.0106C362.313 16.0927 361.555 14.6762 360.564 13.656C360.146 13.224 359.704 12.8454 359.238 12.5105Z" fill="#666666"/>
<path fill-rule="evenodd" clip-rule="evenodd" d="M342.944 14.3838C342.079 15.3535 341.373 16.5968 340.84 18.0225C339.682 21.1331 339.341 25.1367 339.975 28.9626C340.614 32.8221 342.247 36.528 345.019 39.005C346.095 39.9651 347.344 40.7428 348.77 41.2756C348.982 41.3572 352.128 42.2405 355.865 39.029C357.709 37.4401 359.741 34.8335 361.677 30.5947L360.351 29.9899C358.516 34.0126 356.624 36.456 354.919 37.9201C351.792 40.6084 349.433 39.9651 349.279 39.9075C348.03 39.4467 346.94 38.765 345.999 37.9201C343.491 35.6783 342.012 32.2845 341.421 28.7274C340.825 25.1415 341.138 21.4068 342.209 18.5313C342.679 17.2736 343.289 16.1839 344.034 15.3535L342.944 14.3838Z" fill="#333333"/>
<path fill-rule="evenodd" clip-rule="evenodd" d="M358.613 24.6759C358.704 22.3909 358.646 20.538 358.464 19.045C358.276 17.5041 357.955 16.3184 357.532 15.4207C357.22 14.7583 356.749 14.1198 356.177 13.6062C355.635 13.1118 354.991 12.7181 354.299 12.5069C353.435 12.2429 352.594 12.2957 351.777 12.5453C351.014 12.7757 350.283 13.179 349.568 13.6494C349.212 13.8798 348.905 14.1006 348.612 14.3119C347.397 15.1807 346.426 15.8768 344.683 15.4063C344.562 15.3727 344.447 15.3151 344.351 15.2335C344.212 15.1135 344.101 14.9503 344.044 14.7583C343.981 14.5519 343.976 14.3119 344.049 14.043C344.121 13.7646 344.284 13.4622 344.548 13.1502L344.582 13.1022C344.678 12.9677 344.798 12.8333 344.937 12.6989C346.109 11.5564 348.449 10.6732 351.11 10.4907C353.79 10.3083 356.768 10.8604 359.17 12.5981C359.631 12.9293 360.068 13.3038 360.481 13.731C361.456 14.7343 362.206 16.1312 362.595 18.0322C362.955 19.8035 363.003 22.0021 362.643 24.7239L362.59 25.1367C362.407 26.5625 362.292 27.4505 361.413 28.6698C361.288 28.8427 361.144 29.0299 360.976 29.2315C360.832 29.4091 360.664 29.6011 360.472 29.8027L360.64 30.4076L361.538 30.7964C361.725 30.5948 361.913 30.3836 362.095 30.158C362.263 29.9563 362.427 29.7451 362.59 29.5195C363.68 28.0026 363.815 26.9753 364.031 25.324L364.084 24.9111C364.468 22.0213 364.41 19.6595 364.017 17.7393C363.57 15.5408 362.681 13.9038 361.519 12.7133C361.048 12.2285 360.544 11.8013 360.015 11.4172C357.306 9.45386 353.982 8.83461 350.999 9.03622C347.997 9.23784 345.307 10.2891 343.904 11.6524C343.722 11.8301 343.559 12.0173 343.414 12.2093C343.001 12.6941 342.747 13.1886 342.622 13.6638C342.478 14.2062 342.497 14.7247 342.636 15.1807C342.78 15.6512 343.049 16.0496 343.395 16.3424C343.659 16.5632 343.967 16.7265 344.293 16.8177C346.705 17.4657 347.92 16.592 349.452 15.4976C349.745 15.2911 350.048 15.0703 350.355 14.8687C350.966 14.4655 351.58 14.1246 352.19 13.9374C352.748 13.7694 353.305 13.731 353.862 13.899C354.333 14.043 354.784 14.3215 355.178 14.6815C355.606 15.0703 355.961 15.5504 356.197 16.04C356.557 16.7985 356.831 17.8353 356.999 19.2131C357.157 20.5332 357.22 22.1461 357.157 24.1095L357.527 24.6279L358.613 24.6759Z" fill="#333333"/>
<path fill-rule="evenodd" clip-rule="evenodd" d="M358.291 25.1274C359.314 24.2249 360.15 23.8745 360.784 23.9033C361.101 23.9177 361.36 24.0377 361.567 24.2249C361.788 24.4313 361.946 24.7241 362.042 25.0746C362.297 25.9866 362.105 27.2395 361.384 28.3676C361.202 28.6557 360.894 28.9773 360.52 29.2365C360.337 29.3613 360.14 29.4669 359.939 29.5437C359.175 29.827 359.554 30.667 360.015 30.5422C360.395 30.4366 360.755 30.259 361.072 30.043C361.557 29.7118 361.961 29.2797 362.206 28.8957C363.08 27.5276 363.301 25.977 362.984 24.8201C362.84 24.2969 362.585 23.8457 362.23 23.5192C361.86 23.1736 361.389 22.9624 360.832 22.9336C359.953 22.8904 358.848 23.3224 357.58 24.4553C357.129 24.8633 357.676 25.6698 358.291 25.1274Z" fill="#333333"/>
<path fill-rule="evenodd" clip-rule="evenodd" d="M360.044 25.6072C360.188 25.5784 360.313 25.5784 360.419 25.6024C360.539 25.6312 360.635 25.6984 360.693 25.7896C360.76 25.9 360.798 26.0488 360.798 26.2216C360.798 26.5817 360.649 27.0425 360.342 27.5177C360.236 27.681 360.063 27.8682 359.847 28.0122C359.766 28.0698 359.674 28.1226 359.578 28.161C359.064 28.3818 359.232 28.7994 359.646 28.6554C359.814 28.5978 359.977 28.5114 360.121 28.4154C360.39 28.233 360.616 27.993 360.75 27.7818C361.106 27.2249 361.284 26.6729 361.284 26.2216C361.284 25.9528 361.221 25.7128 361.101 25.5256C360.971 25.324 360.779 25.1848 360.525 25.1271C360.376 25.0935 360.203 25.0887 360.006 25.1175C359.367 25.2232 359.439 25.7272 360.044 25.6072Z" fill="#333333"/>
<path fill-rule="evenodd" clip-rule="evenodd" d="M359.544 46.0807L359.006 35.1694L357.546 35.2366L358.089 46.1479L359.544 46.0807Z" fill="#333333"/>
<path fill-rule="evenodd" clip-rule="evenodd" d="M347.766 46.0231L348.563 40.1714L347.118 39.9746L346.315 45.8263L347.766 46.0231Z" fill="#333333"/>
<path fill-rule="evenodd" clip-rule="evenodd" d="M358.843 45.4858L358.828 45.5674C358.631 46.902 357.988 51.2943 356.441 52.144C355.576 52.624 354.203 51.7263 352.022 47.7804L350.739 48.4813C353.453 53.3969 355.557 54.2994 357.142 53.4209C359.328 52.216 360.053 47.2716 360.274 45.7739L360.289 45.6923L358.843 45.4858Z" fill="#333333"/>
<path fill-rule="evenodd" clip-rule="evenodd" d="M344.044 45.6538C343.847 46.3643 343.415 48.5724 343.578 50.2958C343.693 51.5295 344.121 52.5712 345.11 52.9216C345.86 53.1856 347.046 53.0944 348.516 52.0959C349.506 51.4191 350.673 50.3102 351.965 48.5676L350.793 47.6988C349.606 49.2925 348.564 50.2958 347.69 50.891C346.676 51.5775 345.98 51.6831 345.591 51.5487C345.259 51.4287 345.091 50.867 345.029 50.1614C344.885 48.6445 345.274 46.6811 345.447 46.0474L344.044 45.6538Z" fill="#333333"/>
<path fill-rule="evenodd" clip-rule="evenodd" d="M349.274 28.9866C346.887 29.9322 346.046 28.8233 346.08 27.7913C346.118 26.3991 347.425 26.6776 347.161 24.4214C348.294 26.0103 345.739 27.7721 347.266 28.6025C347.593 28.7801 348.112 28.9626 349.274 28.9866Z" fill="#333333"/>
<path fill-rule="evenodd" clip-rule="evenodd" d="M347.997 32.3423C350.788 34.5937 351.801 30.5998 352.291 29.9854C352.152 34.9442 348.348 34.5985 347.997 32.3423Z" fill="#333333"/>
<path fill-rule="evenodd" clip-rule="evenodd" d="M350.178 23.6007C351.662 20.0916 355.601 22.0934 355.615 23.9703C355.428 23.7639 354.602 23.2695 354.131 23.2119C353.968 25.3 351.47 25.7369 350.797 23.5095C350.533 23.4951 350.375 23.4807 350.178 23.6007Z" fill="#333333"/>
<path fill-rule="evenodd" clip-rule="evenodd" d="M341.686 23.4518C343.035 19.8899 347.051 21.7429 347.138 23.6198C346.941 23.423 346.1 22.9574 345.624 22.919C345.543 25.012 343.059 25.54 342.305 23.3414C342.036 23.3318 341.878 23.327 341.686 23.4518Z" fill="#333333"/>
<path fill-rule="evenodd" clip-rule="evenodd" d="M308.555 46.4504C307.767 42.9509 307.969 40.938 308.267 39.4595L308.31 39.2531C308.401 38.7922 308.541 38.2786 308.67 37.7889C308.935 36.7905 309.175 35.888 309.06 35.2303C308.915 34.3999 308.435 33.9726 307.383 34.155C305.678 34.4479 304.861 36.0272 304.174 37.3473C303.809 38.053 303.502 38.6434 303.411 38.629C303.315 38.5954 303.219 38.5522 303.122 38.4994C303.017 38.4418 302.911 38.365 302.796 38.2834C302.594 38.1346 302.263 37.8417 301.854 37.4865C299.544 35.4511 295.005 31.4524 291.849 34.1214C290.974 34.8607 290.513 36.3008 290.998 38.293C291.354 39.7427 292.219 41.5332 293.818 43.5926C293.881 43.6694 294.15 43.967 294.721 44.3943C295.029 44.6199 295.437 44.8983 295.98 45.2199C296.537 45.5512 297.2 45.796 297.997 46.0936C299.193 46.5401 300.721 47.1065 302.508 48.201L303.719 47.0938C301.807 45.9225 299.765 45.1911 298.506 44.7255C297.767 44.4519 297.157 44.2215 296.724 43.967C296.239 43.679 295.869 43.4294 295.591 43.223C295.168 42.911 295.009 42.7477 294.976 42.7045C293.511 40.8132 292.728 39.2195 292.415 37.957C292.074 36.5696 292.305 35.6528 292.79 35.2399C294.981 33.387 298.895 36.8337 300.884 38.5858C301.312 38.9602 301.657 39.2675 301.922 39.4643C302.075 39.5747 302.234 39.6803 302.397 39.7763C302.575 39.8771 302.757 39.9587 302.945 40.0211C304.213 40.434 304.78 39.3395 305.462 38.0242C305.995 36.9969 306.634 35.7728 307.619 35.6C307.628 35.6 307.604 35.4127 307.614 35.4847C307.671 35.8304 307.47 36.5888 307.249 37.4289C307.119 37.9186 306.984 38.4322 306.874 38.9842L306.831 39.1907C306.494 40.8564 306.269 42.9941 307.119 46.7816L308.555 46.4504Z" fill="#333333"/>
<path fill-rule="evenodd" clip-rule="evenodd" d="M305.125 47.3438C304.433 47.6174 304.43 47.0173 303.906 47.3438C302.177 46.3309 299.668 45.143 298.506 44.711C297.766 44.4374 297.156 44.2069 296.724 43.9525C296.239 43.6645 295.869 43.4149 295.59 43.2085C295.168 42.8964 295.009 42.7332 294.975 42.69C294.841 42.5172 294.716 42.3492 294.591 42.1812C293.371 40.5106 292.694 39.0897 292.415 37.9376C292.074 36.5503 292.305 35.6334 292.79 35.2206C293.011 35.0334 293.251 34.899 293.501 34.8126C295.749 34.0445 299.092 36.9871 300.884 38.5665C301.311 38.9409 301.657 39.2481 301.921 39.445C302.075 39.5554 302.234 39.661 302.397 39.757C302.575 39.8578 302.757 39.9394 302.944 40.0018C304.213 40.4146 304.779 39.3201 305.461 38.0048C305.995 36.9775 306.634 35.7534 307.623 35.5806C307.628 35.9599 307.45 36.6511 307.248 37.4096C307.119 37.8992 306.984 38.4129 306.874 38.9649L306.83 39.1713C306.518 40.7315 306.363 43.4629 307.031 46.6984C306.349 46.8808 305.874 47.0509 305.125 47.3438Z" fill="#FEFEFE"/>
<path fill-rule="evenodd" clip-rule="evenodd" d="M351.196 88.2956C350.034 88.0844 348.914 87.6715 347.387 86.9083C346.316 86.3706 345.446 85.809 344.75 85.2425C344.154 84.7577 343.684 84.268 343.323 83.7832C343.487 85.3433 343.919 87.0619 344.495 88.7852C345.321 91.2526 346.436 93.7296 347.483 95.8034C347.987 94.4209 348.66 92.9568 349.414 91.4974C349.976 90.4126 350.581 89.3325 351.196 88.2956Z" fill="#FF6F3D"/>
<path fill-rule="evenodd" clip-rule="evenodd" d="M342.934 82.7837L343.551 83.6143C343.895 84.0777 344.349 84.5506 344.929 85.0227M342.934 82.7837L343.041 83.8128L342.934 82.7837ZM344.764 88.6953C344.307 87.3282 343.943 85.9705 343.733 84.6986L344.764 88.6953ZM343.733 84.6986C343.982 84.9547 344.26 85.2097 344.571 85.4625L344.571 85.4626C345.286 86.0439 346.173 86.6163 347.26 87.1617L347.26 87.1619C348.631 87.8468 349.689 88.2588 350.75 88.4947C350.202 89.4297 349.665 90.3963 349.162 91.3672L349.162 91.3674C348.514 92.6222 347.924 93.8838 347.447 95.0973C346.492 93.1576 345.509 90.9209 344.764 88.6954M343.041 83.8128C343.208 85.4006 343.646 87.1405 344.226 88.8753L343.041 83.8128ZM344.929 85.0228C345.607 85.5743 346.458 86.1251 347.514 86.6549C349.028 87.4115 350.12 87.8122 351.247 88.0168L351.648 88.0897L351.44 88.4403C350.827 89.4731 350.225 90.5484 349.666 91.6279C348.915 93.0803 348.248 94.5329 347.749 95.9007L347.525 96.5155L347.23 95.9313C346.179 93.8499 345.058 91.3598 344.226 88.8753L344.226 88.8753" fill="#FF6F3D"/>
<path fill-rule="evenodd" clip-rule="evenodd" d="M343.251 82.4102C343.237 84.2967 343.746 86.5337 344.495 88.7851C345.321 91.2525 346.436 93.7295 347.483 95.8033C347.987 94.4207 348.66 92.9566 349.414 91.4973C350.74 88.9387 352.315 86.3945 353.694 84.3591L354.823 85.1176C353.463 87.1241 351.912 89.6251 350.62 92.1214C349.611 94.0751 348.756 96.0289 348.28 97.7378L347.829 99.3652L347.027 97.877C345.768 95.5344 344.255 92.3758 343.203 89.2219C342.411 86.8457 341.873 84.4647 341.887 82.415L343.251 82.4102Z" fill="#333333"/>
<path fill-rule="evenodd" clip-rule="evenodd" d="M336.44 63.1799C334.149 66.3721 330.267 70.0156 326.136 72.5502C322.543 74.7536 318.787 76.1025 315.819 75.5313C315.492 75.4689 314.109 75.0177 311.928 71.5614C309.656 67.9563 306.711 61.2549 303.608 48.8171C304.074 48.6155 304.699 48.4283 305.352 48.2794C306.284 48.0634 307.264 47.9194 307.989 47.8666C308.45 48.9611 308.945 50.214 309.459 51.5149C311.544 56.8097 313.974 62.9879 317.961 67.1882L318.393 67.6442L318.907 67.2842C320.252 66.3481 323.84 62.1094 327.174 58.1635C329.907 54.9328 332.467 51.9037 333.342 51.2077C334.591 50.2092 336.137 49.1723 338.284 48.2938C340.355 47.4442 342.987 46.7433 346.455 46.3641L346.647 46.6329C347.786 48.1258 349.698 48.8315 351.84 48.8843C353.886 48.9323 356.168 48.3803 358.161 47.3386C358.718 47.0505 359.252 46.7241 359.751 46.3641C362.018 46.8009 365.208 48.2074 368.268 49.9932C371.356 51.7933 374.282 53.9631 375.977 55.9073C376.631 57.6834 377.404 59.6756 378.225 61.8022C382.443 72.6847 388.068 87.1963 386.021 94.7665C386.007 94.8145 385.743 95.1793 384.287 95.3761C383.346 95.5009 381.996 95.4865 380.07 95.1505C378 94.7905 375.233 93.9264 371.659 92.5487C368.042 91.1566 363.618 89.246 358.272 86.8074L357.667 88.1323C363.051 90.5901 367.504 92.5103 371.135 93.912C374.81 95.3281 377.668 96.2162 379.83 96.5906C381.914 96.9507 383.413 96.9651 384.489 96.821C386.804 96.509 387.395 95.3137 387.438 95.1505C389.61 87.1242 383.884 72.3534 379.59 61.2789C378.749 59.1091 377.961 57.0834 377.303 55.2832L377.255 55.1584L377.169 55.0576C375.382 52.9646 372.269 50.6364 369.003 48.7307C365.674 46.7865 362.148 45.2696 359.684 44.8712L359.377 44.8232L359.127 45.0152C358.613 45.404 358.065 45.7544 357.489 46.0521C355.707 46.9785 353.684 47.4778 351.874 47.4298C350.159 47.3866 348.66 46.8585 347.81 45.7496C347.69 45.5912 347.584 45.428 347.493 45.2552L347.262 44.8184L346.772 44.8664C342.92 45.2456 340.009 46.0089 337.732 46.9449C335.436 47.8858 333.774 48.9995 332.434 50.07C331.43 50.8717 328.831 53.9439 326.06 57.2226C323.158 60.6549 320.055 64.3224 318.561 65.6809C315.04 61.6966 312.773 55.9409 310.823 50.9821C310.256 49.5371 309.713 48.1594 309.137 46.8297L308.945 46.3881H308.464C307.643 46.3929 306.284 46.5657 305.035 46.8537C303.988 47.0985 302.989 47.4298 302.374 47.8234L301.937 48.1066L302.061 48.6107C305.261 61.5861 308.335 68.5755 310.703 72.339C313.201 76.3042 315.098 76.8802 315.554 76.9666C318.917 77.6147 323.029 76.1697 326.905 73.7935C331.233 71.1389 335.311 67.2986 337.698 63.9335C338.51 62.791 337.305 61.9798 336.44 63.1799Z" fill="#333333"/>
<path fill-rule="evenodd" clip-rule="evenodd" d="M375.973 55.9025C376.626 57.6786 377.399 59.6708 378.221 61.7974C382.438 72.6799 388.063 87.1915 386.017 94.7617C386.002 94.8097 385.738 95.1745 384.283 95.3713C383.341 95.4961 381.991 95.4817 380.065 95.1457C377.995 94.7857 375.228 93.9216 371.654 92.5439C368.205 91.2142 364.022 89.414 359.002 87.1338C359.583 86.7018 360.107 86.1834 360.568 85.6073C360.914 85.1753 361.221 84.7144 361.495 84.2296C363.628 84.8825 366.769 85.6073 369.834 86.169C372.586 86.6778 375.286 87.057 377.15 87.1434C378.302 87.1963 378.461 85.7417 377.164 85.6793C377.01 85.6697 376.857 85.6649 376.693 85.6505C376.112 84.9305 374.657 82.4919 373.215 79.8708C371.847 77.3746 370.506 74.7392 369.968 73.2751C370.016 70.9853 370.132 68.6667 370.309 66.3145C370.396 65.1864 368.945 64.9512 368.854 66.1801C368.614 69.3388 368.489 72.4686 368.484 75.5841C368.479 78.5939 368.59 81.5606 368.806 84.4936C366.323 84.004 363.946 83.3982 362.188 82.875C357.148 82.125 346.354 73.0349 345.106 64.3125C344.673 61.2875 347.114 49.125 351.125 49.125C352.438 52.9214 356.254 53.9199 357.148 53.4255C359.069 52.3646 359.751 48.0788 360.063 46.125C362.813 47.1875 365.391 48.3179 368.263 49.9932C371.352 51.7885 374.277 53.9583 375.973 55.9025ZM345.5 68.4651C345.5 68.4651 348.065 54.2223 347.978 53.8671C347.877 53.4447 347.781 53.0174 347.69 52.5806C346.599 53.1182 345.711 53.1375 345.106 52.9214C344.116 52.571 343.693 51.5293 343.573 50.2956C343.463 49.1243 343.626 47.737 343.804 46.7385C341.594 47.1322 339.788 47.6746 338.28 48.2891C336.133 49.1675 334.586 50.2044 333.337 51.2029C332.463 51.8989 329.903 54.928 327.169 58.1587C323.836 62.0998 320.248 66.3433 318.903 67.2794L318.389 67.6394L317.956 67.1834C313.974 62.9831 311.539 56.805 309.454 51.5101C308.94 50.2092 308.45 48.9563 307.984 47.8618C307.259 47.9098 306.284 48.0586 305.347 48.2746C304.694 48.4283 304.069 48.6107 303.604 48.8123C306.711 61.2549 309.651 67.9515 311.923 71.5566C314.099 75.0128 315.483 75.4641 315.814 75.5265C318.782 76.0977 322.534 74.7488 326.132 72.5454C330.263 70.0108 334.144 66.3721 336.435 63.1751C337.3 61.9702 338.506 62.7814 337.689 63.9287C336.853 65.1 335.816 66.3337 334.634 67.553L334.586 68.4651L334.538 69.5836C334.389 74.0144 334.423 82.9767 334.889 91.4446C335.206 97.2051 335.715 102.73 336.493 106.412C341.594 109.292 347.358 110.565 353.06 110.809C360.236 111.117 367.331 109.806 372.937 108.04C372.274 105.62 371.688 103.23 371.174 100.853C370.636 98.362 370.18 95.8706 369.805 93.384C366.592 92.1071 362.625 90.0625 358.334 88.4347C354.043 86.807 345.5 68.4651 345.5 68.4651Z" fill="#EFEFEF"/>
<path fill-rule="evenodd" clip-rule="evenodd" d="M377.381 55.3846L377.285 55.125L379.619 61.2553L379.385 60.6481L379.384 60.6469C378.65 58.7467 377.966 56.9773 377.381 55.3846ZM379.635 61.2948L379.62 61.2568L377.017 58.6754C377.327 59.4851 377.652 60.3246 377.985 61.1881L378.221 61.7973L378.223 61.8039C382.44 72.6856 388.063 87.1929 386.017 94.7616C386.002 94.8096 385.738 95.1745 384.283 95.3713C383.341 95.4961 381.991 95.4817 380.065 95.1456C377.995 94.7856 375.228 93.9216 371.654 92.5438C371.493 92.4818 371.331 92.4188 371.167 92.3547C370.897 92.2492 370.622 92.1409 370.343 92.0298C367.534 90.9114 364.278 89.5109 360.528 87.8238C360.028 87.5989 359.52 87.3689 359.002 87.1338L359.046 87.1007C359.464 86.7858 359.851 86.4262 360.206 86.0328C360.331 85.8949 360.451 85.7529 360.568 85.6073C360.905 85.1865 361.205 84.7383 361.474 84.2673L361.495 84.2295C361.582 84.2562 361.671 84.2829 361.761 84.3097L361.881 84.3452C363.677 84.873 366.076 85.4379 368.525 85.92C368.961 86.0058 369.398 86.089 369.834 86.1689C370.037 86.2064 370.24 86.2432 370.442 86.2793C372.416 86.6314 374.332 86.91 375.899 87.0542C376.128 87.0753 376.351 87.0936 376.565 87.1087C376.708 87.1189 376.848 87.1277 376.984 87.1351L377.073 87.1397L377.094 87.1407L377.15 87.1434C378.286 87.1955 378.456 85.7819 377.217 85.6827C377.2 85.6813 377.182 85.6801 377.164 85.6793C377.131 85.6772 377.098 85.6754 377.066 85.6736L377.004 85.6704C376.903 85.6652 376.8 85.6599 376.693 85.6505C376.683 85.6381 376.673 85.6253 376.663 85.6119C376.062 84.8468 374.632 82.4469 373.216 79.8708C371.879 77.4334 370.57 74.8632 370.008 73.3804C370 73.3603 369.993 73.3403 369.985 73.3206C369.98 73.3053 369.974 73.2901 369.968 73.275C370.016 71.0227 370.128 68.7424 370.301 66.4297L370.309 66.3145L370.311 66.2908L370.311 66.2883C370.373 65.1828 368.945 64.9607 368.854 66.18L368.852 66.2028L368.852 66.2044L368.84 66.3679C368.668 68.6734 368.557 70.9637 368.51 73.2445C368.507 73.3748 368.505 73.5051 368.503 73.6353C368.491 74.2856 368.485 74.9351 368.484 75.584C368.48 78.0646 368.554 80.5158 368.702 82.943C368.732 83.445 368.766 83.9459 368.802 84.4459L368.806 84.4936C368.291 84.392 367.78 84.2855 367.279 84.1757C365.363 83.7562 363.581 83.2897 362.188 82.8749C362.101 82.8621 362.013 82.8468 361.924 82.8291C361.558 82.7569 361.166 82.6447 360.752 82.4955C357.663 81.3823 353.372 78.2086 350.047 74.208C348.604 72.4722 347.343 70.5807 346.441 68.6343C346.363 68.4671 346.288 68.2995 346.216 68.1316C346.052 67.7483 345.901 67.3632 345.767 66.9771C345.901 66.2244 346.077 65.2389 346.271 64.1457C346.387 63.4878 346.51 62.7908 346.634 62.0821C346.876 60.7061 347.123 59.2858 347.338 58.0209C347.651 56.1831 347.897 54.6733 347.963 54.1039C347.978 53.9716 347.984 53.8901 347.978 53.8671C347.877 53.4446 347.781 53.0174 347.69 52.5805C347.648 52.6011 347.607 52.6208 347.566 52.6399L347.583 52.6028C347.602 52.5622 347.622 52.5219 347.641 52.4818C347.996 51.747 348.383 51.0918 348.8 50.5597C349.091 50.188 349.397 49.8763 349.716 49.6394C349.74 49.6215 349.764 49.6041 349.789 49.5871C350.211 49.2902 350.658 49.1249 351.125 49.1249C352.438 52.9214 356.254 53.9199 357.148 53.4254C358.661 52.5901 359.405 49.7554 359.805 47.634C359.912 47.0667 359.995 46.5505 360.061 46.1371L360.063 46.1249C360.543 46.3106 361.019 46.4984 361.491 46.6907C363.723 47.5991 365.893 48.6106 368.263 49.9931L375.973 55.9024C374.277 53.9583 371.352 51.7885 368.263 49.9931L369.019 48.6974L369.018 48.6969C366.055 46.9687 363.399 45.8057 360.603 44.7257L358.874 44.0576L358.582 45.8882C358.424 46.8765 358.189 48.3342 357.776 49.6654C357.57 50.3294 357.335 50.9088 357.074 51.3565C356.861 51.7214 356.671 51.9304 356.527 52.0428C356.465 52.0419 356.376 52.0354 356.259 52.0161C355.931 51.9616 355.485 51.8223 355.005 51.5636C354.054 51.0515 353.058 50.125 352.543 48.6348L352.194 47.6249H351.125C349.324 47.6249 348.028 48.965 347.181 50.2445C346.933 50.6197 346.698 51.0263 346.477 51.4557C345.995 51.6002 345.711 51.5447 345.61 51.5087L345.606 51.5074C345.529 51.4799 345.44 51.4272 345.337 51.2341C345.219 51.0128 345.116 50.6585 345.066 50.1524C344.975 49.1824 345.111 47.953 345.281 47.0013L345.657 44.8846L343.541 45.2617C341.234 45.6726 339.326 46.2431 337.714 46.8998L337.712 46.9007C335.405 47.8444 333.736 48.9634 332.401 50.0306C331.833 50.4832 330.876 51.5361 329.821 52.743C328.74 53.9799 327.435 55.5219 326.097 57.1039L326.024 57.1899L326.01 57.2062C324.344 59.1757 322.632 61.2004 321.168 62.8505C320.434 63.6778 319.773 64.3989 319.22 64.9651C318.962 65.2296 318.741 65.4457 318.557 65.6166C315.095 61.6834 312.868 56.0855 310.85 50.9605L310.849 50.9589L310.671 50.5071C310.223 49.372 309.785 48.261 309.364 47.2742L308.947 46.2947L307.885 46.365C307.065 46.4193 306.009 46.5826 305.01 46.8129L305.004 46.8144C304.319 46.9755 303.594 47.1819 303.008 47.4356L301.84 47.941L302.148 49.1757C305.274 61.6885 308.261 68.5588 310.654 72.3563C312.92 75.9553 314.601 76.8232 315.533 76.9999C319.08 77.6812 323.25 76.0695 326.915 73.8246L326.916 73.8239C329.087 72.4922 331.192 70.8683 333.055 69.1518L333.039 69.5192L333.039 69.5332C332.888 74.0117 332.923 83.0185 333.391 91.527C333.708 97.2954 334.222 102.919 335.025 106.722L335.165 107.385L335.755 107.718C341.113 110.743 347.123 112.056 352.996 112.308C360.383 112.624 367.654 111.277 373.388 109.47L374.765 109.036L374.384 107.643C373.728 105.249 373.148 102.885 372.64 100.536C372.174 98.3773 371.77 96.2187 371.428 94.0637C374.881 95.3833 377.655 96.249 379.808 96.6235C381.836 96.9771 383.345 97.0087 384.48 96.8583L384.484 96.8577C385.309 96.7461 385.908 96.5734 386.348 96.3589C386.57 96.2504 386.77 96.1223 386.941 95.9706C387.026 95.895 387.111 95.807 387.189 95.7052C387.241 95.6372 387.374 95.456 387.453 95.1929L387.459 95.173L387.465 95.153C388.047 92.9995 388.061 90.4584 387.745 87.7722C387.427 85.0703 386.762 82.1237 385.911 79.1135C384.215 73.1134 381.735 66.714 379.635 61.2948ZM347.566 52.6399C347.084 52.8633 346.644 52.9847 346.252 53.0297C346.076 53.0498 345.91 53.0546 345.755 53.0464C345.512 53.0335 345.295 52.989 345.106 52.9214C344.116 52.5709 343.693 51.5293 343.573 50.2956C343.514 49.6627 343.534 48.9668 343.593 48.3032C343.643 47.7386 343.722 47.1975 343.804 46.7385C343.256 46.8361 342.732 46.943 342.232 47.0578C340.716 47.4057 339.414 47.827 338.28 48.289C336.133 49.1675 334.586 50.2043 333.337 51.2028C332.47 51.8932 329.944 54.8785 327.237 58.0792L327.148 58.1842C323.82 62.1181 320.245 66.3453 318.903 67.2793L318.389 67.6394L317.956 67.1833C313.974 62.983 311.539 56.8049 309.454 51.5101L309.276 51.0576C308.826 49.9194 308.396 48.8288 307.984 47.8618C307.259 47.9098 306.284 48.0586 305.347 48.2746C304.694 48.4282 304.069 48.6106 303.604 48.8122C306.711 61.2549 309.651 67.9514 311.923 71.5565C314.099 75.0128 315.483 75.464 315.814 75.5264C318.783 76.0977 322.534 74.7488 326.132 72.5454C328.674 70.9855 331.122 69.0075 333.163 66.9716C333.307 66.8279 333.449 66.6839 333.588 66.5398C334.687 65.4077 335.654 64.2656 336.435 63.175C336.445 63.1621 336.454 63.1494 336.463 63.1369C336.477 63.1191 336.49 63.1018 336.504 63.0849L336.505 63.0835C337.362 62.0133 338.484 62.8117 337.689 63.9287L337.62 64.025L337.611 64.037C336.789 65.1759 335.779 66.3712 334.634 67.553L334.586 68.465L334.538 69.5835C334.389 74.0143 334.423 82.9766 334.889 91.4445C335.206 97.205 335.715 102.73 336.493 106.412C341.594 109.292 347.358 110.564 353.06 110.809C360.237 111.117 367.331 109.806 372.937 108.039C372.274 105.62 371.688 103.23 371.174 100.853C370.64 98.3783 370.186 95.9033 369.812 93.433L369.805 93.3839C368.423 92.8349 366.902 92.1439 365.276 91.4051C363.14 90.4345 360.822 89.3815 358.4 88.4595L358.334 88.4347C357.794 88.2299 357.187 87.7604 356.538 87.0962C354.096 84.5967 351.061 79.339 348.792 75.0443C346.872 71.4098 345.5 68.465 345.5 68.465C345.5 68.465 345.603 67.8937 345.767 66.9771C345.458 66.0912 345.233 65.1999 345.106 64.3124C345.027 63.7615 345.043 62.9074 345.147 61.8789C345.27 60.6653 345.514 59.2089 345.868 57.721C346.129 56.6217 346.449 55.5051 346.824 54.4568C346.865 54.3429 346.906 54.2299 346.948 54.1178L346.95 54.1126C347.142 53.599 347.348 53.1046 347.566 52.6399ZM357.622 86.0593C357.667 86.1054 357.712 86.1496 357.755 86.192L358.107 85.9299C358.574 85.5829 359.007 85.1572 359.397 84.6698C359.612 84.4006 359.812 84.1155 359.998 83.8153C358.957 83.4156 357.861 82.8405 356.77 82.1546C355.469 81.3369 354.116 80.3236 352.795 79.1651C353.77 80.8251 354.774 82.4159 355.736 83.7507C356.414 84.6918 357.05 85.476 357.622 86.0593ZM374.713 85.4168C373.385 85.2535 371.877 85.0173 370.328 84.7345L370.302 84.3833C370.121 81.9342 370.016 79.4616 369.99 76.9598C370.57 78.1218 371.238 79.3852 371.9 80.5921L371.901 80.5935C372.629 81.9171 373.362 83.1988 373.991 84.2455C374.243 84.6659 374.487 85.0633 374.713 85.4168Z" fill="#333333"/>
<path fill-rule="evenodd" clip-rule="evenodd" d="M368.854 66.1803C368.614 69.339 368.489 72.4688 368.484 75.5843C368.48 78.9301 368.614 82.2184 368.883 85.4683L370.343 85.3483C370.074 82.0984 369.94 78.8485 369.945 75.5843C369.95 72.5504 370.07 69.4686 370.315 66.3195C370.396 65.1914 368.946 64.9514 368.854 66.1803ZM369.757 93.0433L371.203 92.8321C371.588 95.4051 372.053 97.9781 372.611 100.561C373.168 103.153 373.812 105.745 374.537 108.337L374.724 109.009L374.061 109.225C368.22 111.146 360.669 112.605 353.003 112.278C346.974 112.019 340.879 110.651 335.485 107.526L335.211 107.368L335.139 107.051C334.298 103.283 333.755 97.5221 333.429 91.5264C332.963 83.0249 332.924 74.0145 333.078 69.5454L333.126 68.4029L333.188 67.2028L334.649 67.294L334.586 68.4701L334.538 69.5886C334.389 74.0193 334.423 82.9817 334.889 91.4496C335.206 97.21 335.715 102.735 336.493 106.417C341.595 109.297 347.359 110.57 353.06 110.814C360.237 111.122 367.332 109.811 372.937 108.045C372.274 105.625 371.688 103.235 371.174 100.858C370.622 98.2517 370.146 95.6499 369.757 93.0433Z" fill="#333333"/>
<path fill-rule="evenodd" clip-rule="evenodd" d="M382.972 236.57C381.828 237.861 380.378 239.248 378.889 240.669C376.477 242.974 373.97 245.369 372.716 247.419C371.775 248.96 371.602 250.294 372.937 251.173C373.749 251.273 376.65 250.049 380.013 248.35C383.774 246.449 388.01 243.953 390.609 241.98C390.628 241.961 390.681 241.922 390.7 241.913C390.753 241.874 390.84 241.817 390.941 241.73C391.479 241.265 392.329 240.002 389.696 236.944L390.806 235.994C394.303 240.06 392.79 242.062 391.887 242.839C391.757 242.95 391.627 243.041 391.541 243.103L391.474 243.151C388.793 245.182 384.485 247.726 380.671 249.651C376.9 251.557 373.514 252.872 372.447 252.56L372.356 252.536L372.274 252.483C369.901 251.038 370.05 248.984 371.472 246.66C372.827 244.447 375.401 241.985 377.885 239.613C379.355 238.207 380.791 236.839 381.881 235.605L382.972 236.57Z" fill="#333333"/>
<path fill-rule="evenodd" clip-rule="evenodd" d="M342.027 235.615C340.552 236.22 338.755 236.839 336.92 237.468C333.231 238.73 329.384 240.05 327.174 241.663C325.214 243.099 324.455 244.74 325.906 246.713L325.964 246.79L326.041 246.852C326.92 247.558 331.276 247.673 336.19 247.371C340.946 247.078 346.306 246.435 349.477 245.595L349.554 245.576C350.288 245.412 353.252 244.736 351.835 239.522C351.782 239.33 351.398 238.485 351.043 237.689C350.75 237.04 350.471 236.421 350.437 236.325L349.049 236.781C349.097 236.93 349.395 237.593 349.712 238.289C350.048 239.037 350.409 239.83 350.428 239.902C351.446 243.655 349.674 244.054 349.237 244.15L349.131 244.174C346.052 244.99 340.792 245.619 336.109 245.907C331.656 246.18 327.799 246.176 327.025 245.748C326.31 244.678 326.833 243.718 328.048 242.83C330.071 241.351 333.813 240.07 337.406 238.836C339.231 238.212 341.023 237.597 342.593 236.949L342.027 235.615Z" fill="#333333"/>
<path fill-rule="evenodd" clip-rule="evenodd" d="M378.889 240.669C376.477 242.974 373.97 245.369 372.716 247.419C371.775 248.96 371.602 250.294 372.937 251.173C373.749 251.273 376.65 250.049 380.013 248.35C383.774 246.449 388.01 243.953 390.609 241.98C390.628 241.961 390.681 241.922 390.7 241.913C390.753 241.874 390.84 241.817 390.94 241.73C391.233 241.481 391.613 241.001 391.488 240.132C391.397 239.469 391.008 238.576 390.061 237.386C389.077 237.813 387.833 237.996 386.589 237.962C385.138 237.924 383.649 237.597 382.563 237.026C381.66 238.01 380.599 239.037 379.499 240.093C379.292 240.285 379.09 240.477 378.889 240.669Z" fill="#FEFEFE"/>
<path fill-rule="evenodd" clip-rule="evenodd" d="M350.419 239.906C350.443 239.992 350.467 240.079 350.486 240.165C351.355 243.679 349.655 244.063 349.227 244.159L349.122 244.183C346.043 244.999 340.783 245.628 336.099 245.916C331.647 246.19 327.789 246.185 327.016 245.758C326.3 244.687 326.824 243.727 328.039 242.839C329.269 241.937 331.142 241.111 333.227 240.324C334.567 239.82 335.989 239.33 337.396 238.85C339.03 238.288 340.634 237.741 342.08 237.165C342.978 237.755 344.366 238.365 345.961 238.471C347.066 238.543 348.271 238.375 349.477 237.794C349.549 237.952 349.626 238.125 349.703 238.293C350.039 239.042 350.395 239.834 350.419 239.906Z" fill="#FEFEFE"/>
<path fill-rule="evenodd" clip-rule="evenodd" d="M371.16 110.099C374.546 121.173 378.331 141.177 381.646 163.796C386.425 187.092 389.504 213.331 389.461 235.562C388.582 236.047 387.299 236.33 386.022 236.359C384.754 236.388 383.524 236.176 382.741 235.682C381.641 231.496 377.207 213.519 371.251 192.666C366.227 175.067 359.622 155.952 356.154 142.545L354.765 137.48C354.679 150.072 353.834 163.297 353.286 171.875C353.123 174.458 352.983 176.618 352.897 178.264C352.892 178.375 352.897 178.797 352.907 179.503C352.988 185.614 353.353 213.629 349.016 236.388C347.997 236.92 346.974 237.074 346.042 237.016C344.774 236.935 343.665 236.46 342.939 235.989C342.858 229.408 342.637 219.951 342.017 209.87C341.383 199.564 340.321 188.571 338.554 179.253C338.41 178.495 335.749 163.239 335.595 142.602C335.518 132.291 336.07 120.636 337.876 108.774C342.646 111.016 347.848 112.048 352.998 112.273C359.454 112.552 365.823 111.563 371.16 110.099Z" fill="#404040"/>
<path fill-rule="evenodd" clip-rule="evenodd" d="M337.791 108.614L337.922 108.676C342.676 110.91 347.864 111.94 353.002 112.165C359.444 112.443 365.803 111.456 371.131 109.994L371.232 109.967L371.263 110.067C374.652 121.149 378.437 141.158 381.752 163.777C386.532 187.078 389.612 213.323 389.569 235.562L389.568 235.625L389.513 235.656C388.614 236.152 387.313 236.437 386.024 236.466C384.747 236.495 383.492 236.284 382.683 235.773L382.647 235.75L382.636 235.709C382.432 234.931 382.112 233.677 381.689 232.017C379.836 224.743 375.996 209.672 371.147 192.695C368.882 184.764 366.297 176.524 363.822 168.637C363.551 167.775 363.282 166.918 363.015 166.066C360.303 157.412 357.784 149.279 356.049 142.572C356.049 142.572 356.049 142.572 356.049 142.572L354.867 138.259C354.752 150.597 353.933 163.436 353.396 171.838L353.393 171.882C353.393 171.882 353.393 171.882 353.393 171.882M353.004 178.269C353 178.376 353.004 178.793 353.014 179.501C353.096 185.611 353.461 213.637 349.121 236.407L349.112 236.459L349.065 236.483C348.027 237.026 346.984 237.183 346.035 237.124C344.745 237.041 343.618 236.558 342.88 236.079L342.832 236.048L342.831 235.99C342.749 229.41 342.528 219.955 341.909 209.876C341.275 199.572 340.214 188.584 338.447 179.273C338.302 178.51 335.64 163.248 335.486 142.603C335.41 132.287 335.962 120.626 337.769 108.757L337.791 108.614M353.004 178.269C353.081 176.82 353.198 174.972 353.336 172.788C353.355 172.492 353.374 172.19 353.393 171.882M337.961 108.933C336.173 120.738 335.626 132.335 335.702 142.601C335.856 163.23 338.516 178.479 338.659 179.233C340.428 188.557 341.49 199.555 342.124 209.863C342.742 219.917 342.964 229.349 343.046 235.929C343.759 236.381 344.83 236.83 346.049 236.908C346.95 236.964 347.936 236.819 348.919 236.315C353.244 213.578 352.88 185.611 352.798 179.504C352.789 178.801 352.784 178.374 352.789 178.259C352.865 176.809 352.982 174.959 353.12 172.774C353.139 172.478 353.158 172.176 353.178 171.868L353.18 171.826C353.728 163.246 354.571 150.047 354.657 137.479L354.662 136.697L356.258 142.517C357.991 149.218 360.508 157.346 363.221 166.001C363.489 166.853 363.758 167.711 364.028 168.573C366.503 176.46 369.089 184.702 371.354 192.636C376.205 209.617 380.046 224.693 381.899 231.965C382.314 233.595 382.629 234.833 382.834 235.612C383.592 236.075 384.779 236.279 386.019 236.25C387.258 236.222 388.495 235.953 389.353 235.497C389.39 213.289 386.313 187.086 381.54 163.817L381.538 163.811C378.234 141.26 374.463 121.317 371.087 110.23C365.762 111.681 359.421 112.658 352.993 112.381C347.88 112.157 342.711 111.139 337.961 108.933Z" fill="#404040"/>
<path fill-rule="evenodd" clip-rule="evenodd" d="M354.77 137.336C354.689 149.971 353.839 163.263 353.291 171.875C353.128 174.458 352.988 176.618 352.902 178.264C352.897 178.375 352.902 178.797 352.911 179.503C352.993 185.614 353.358 213.629 349.021 236.387C348.002 236.92 346.979 237.074 346.047 237.016C344.779 236.935 343.67 236.459 342.944 235.989C342.863 229.408 342.642 219.951 342.022 209.87C341.388 199.564 340.326 188.571 338.559 179.253C338.415 178.495 335.753 163.239 335.6 142.602C335.523 132.003 336.104 119.992 338.035 107.794L336.594 107.569C334.653 119.843 334.067 131.94 334.144 142.602C334.298 163.378 336.978 178.749 337.122 179.512C338.88 188.763 339.932 199.693 340.567 209.947C341.201 220.234 341.417 229.82 341.494 236.378L341.498 236.738L341.787 236.954C342.656 237.602 344.179 238.351 345.961 238.466C347.243 238.548 348.656 238.308 350.053 237.482L350.337 237.314L350.399 236.992C354.828 214.042 354.453 185.647 354.377 179.479C354.367 178.826 354.362 178.427 354.367 178.331C354.449 176.776 354.588 174.582 354.756 171.961C355.236 164.463 355.942 153.427 356.168 142.338L354.77 137.336Z" fill="#333333"/>
<path fill-rule="evenodd" clip-rule="evenodd" d="M346.364 123.367C347.296 124.202 348.348 124.947 349.515 125.494C350.721 126.055 352.056 126.415 353.507 126.459L354.098 126.478L354.165 127.059C356.057 143.284 361.183 159.365 367.235 178.341C372.404 194.552 378.245 212.875 383.332 235.212C384.235 235.62 385.215 235.72 386.17 235.653C387.083 235.586 387.981 235.36 388.769 235.087C388.601 228.467 388.222 218.453 387.367 207.816C386.761 200.265 385.921 192.421 384.749 185.302C384.585 184.318 384.427 183.382 384.263 182.489C384.1 181.586 383.927 180.698 383.754 179.829C383.615 179.148 383.432 178.289 383.25 177.453C382.77 175.231 382.328 173.195 382.078 170.661C381.91 168.947 381.722 167.18 381.521 165.38C381.314 163.532 381.098 161.761 380.882 160.057C379.681 150.71 378.144 141.638 376.41 133.299C374.608 124.649 372.591 116.805 370.511 110.296L371.803 109.888C373.898 116.455 375.929 124.342 377.736 133.026C379.479 141.378 381.021 150.489 382.227 159.889C382.462 161.722 382.678 163.508 382.875 165.231C383.067 166.945 383.255 168.712 383.432 170.531C383.668 172.951 384.105 174.967 384.58 177.16C384.729 177.852 384.883 178.567 385.085 179.561C385.263 180.439 385.436 181.337 385.599 182.244C385.772 183.209 385.94 184.15 386.089 185.076C387.266 192.258 388.116 200.135 388.721 207.705C389.595 218.583 390.633 229.326 390.796 235.984L390.806 236.465L390.354 236.637C388.173 237.463 383.586 237.977 381.939 235.908L381.871 235.6C376.775 213.159 371.121 195.004 365.938 178.745C359.934 159.908 354.837 143.918 352.878 127.774C351.451 127.659 350.14 127.275 348.934 126.713C347.608 126.094 346.422 125.254 345.389 124.313C344.471 123.478 345.447 122.542 346.364 123.367Z" fill="#333333"/>
<path fill-rule="evenodd" clip-rule="evenodd" d="M351.868 47.425C353.674 47.4682 355.702 46.9737 357.484 46.0472C357.681 45.9464 357.873 45.836 358.065 45.7208L357.642 37.2241C357.037 37.9394 356.441 38.5346 355.865 39.0291C352.123 42.2453 348.981 41.3573 348.77 41.2757C348.655 41.2324 348.54 41.1892 348.429 41.1412L347.8 45.7352C347.8 45.7352 347.8 45.74 347.805 45.74C348.655 46.8537 350.154 47.3865 351.868 47.425Z" fill="#FEFEFE"/>
<path fill-rule="evenodd" clip-rule="evenodd" d="M350.178 23.6007C351.663 20.0916 355.601 22.0934 355.616 23.9703C355.428 23.7639 354.602 23.2694 354.132 23.2118C353.968 25.3 351.47 25.7369 350.798 23.5095C350.529 23.4951 350.375 23.4807 350.178 23.6007ZM349.28 39.9076C349.434 39.9652 351.792 40.6085 354.919 37.9203C356.552 36.5185 358.354 34.224 360.107 30.5132C360.078 30.5228 360.045 30.5324 360.016 30.5421C359.555 30.6669 359.175 29.8316 359.939 29.5436C360.141 29.4668 360.342 29.3612 360.52 29.2363C360.9 28.9771 361.202 28.6555 361.385 28.3675C362.105 27.2394 362.293 25.9865 362.043 25.0744C361.947 24.724 361.784 24.4263 361.567 24.2247C361.366 24.0327 361.101 23.9175 360.784 23.9031C360.15 23.8743 359.31 24.2199 358.291 25.1272C357.725 25.6312 357.22 24.9832 357.494 24.5608L357.177 24.1143C357.239 22.151 357.177 20.538 357.018 19.2179C356.85 17.8402 356.577 16.8033 356.216 16.0449C355.986 15.5552 355.63 15.0752 355.198 14.6863C354.804 14.3263 354.353 14.0479 353.882 13.9039C353.325 13.7311 352.763 13.7743 352.21 13.9423C351.6 14.1295 350.985 14.4703 350.375 14.8736C350.068 15.0752 349.765 15.2912 349.472 15.5024C347.945 16.5969 346.729 17.4658 344.313 16.8225C343.987 16.7361 343.679 16.5729 343.415 16.3473C343.386 16.3233 343.357 16.2993 343.333 16.2753C342.896 16.9377 342.522 17.701 342.205 18.5411C341.133 21.4213 340.821 25.1512 341.417 28.7371C342.008 32.2942 343.487 35.6881 345.994 37.9299C346.941 38.7651 348.031 39.4468 349.28 39.9076ZM360.045 25.6072C359.439 25.7273 359.372 25.2232 360.006 25.1176C360.198 25.0888 360.371 25.0888 360.525 25.1272C360.78 25.1848 360.972 25.324 361.101 25.5256C361.222 25.7129 361.284 25.9529 361.284 26.2217C361.284 26.6681 361.111 27.225 360.751 27.7818C360.616 27.993 360.39 28.2331 360.121 28.4155C359.977 28.5163 359.819 28.5979 359.646 28.6555C359.233 28.7995 359.065 28.3819 359.579 28.1611C359.67 28.1226 359.761 28.0698 359.848 28.0122C360.064 27.8682 360.237 27.681 360.342 27.5178C360.65 27.0378 360.799 26.5817 360.799 26.2217C360.799 26.0441 360.765 25.8953 360.693 25.7897C360.631 25.6937 360.539 25.6312 360.419 25.6024C360.314 25.5784 360.189 25.5784 360.045 25.6072ZM341.686 23.4519C343.036 19.89 347.051 21.7429 347.138 23.6199C346.941 23.4231 346.1 22.9574 345.625 22.919C345.543 25.012 343.06 25.54 342.305 23.3415C342.036 23.3319 341.878 23.3271 341.686 23.4519ZM347.998 32.3422C350.788 34.5936 351.802 30.5997 352.292 29.9852C352.153 34.944 348.348 34.5984 347.998 32.3422ZM347.267 28.6027C347.594 28.7803 348.118 28.9627 349.275 28.9867C346.888 29.9324 346.047 28.8235 346.081 27.7914C346.119 26.3993 347.426 26.6777 347.162 24.4215C348.295 26.0057 345.735 27.7722 347.267 28.6027Z" fill="#FEFEFE"/>
<path fill-rule="evenodd" clip-rule="evenodd" d="M332.672 36.5015C338.228 36.4211 343.682 39.1904 346.801 44.2647C350.514 50.3112 349.807 57.8264 345.589 63.0405C350.257 70.6792 354.791 78.4009 359.597 85.9563C361.79 89.3956 361.24 92.1935 358.231 94.0406C356.647 95.0478 353.108 96.1635 350.589 92.0433C345.838 84.2716 341.082 76.5002 336.332 68.7285C329.769 70.1356 322.747 67.3689 319.034 61.3224C315.915 56.2422 315.917 50.1297 318.496 45.2064C319.819 47.3647 321.148 49.5228 322.471 51.6811C324.318 54.684 328.286 55.6347 331.288 53.7879C332.37 53.1232 333.452 52.4585 334.534 51.7939C337.537 49.947 338.488 45.9794 336.641 42.9706C335.324 40.8179 333.995 38.6599 332.672 36.5015Z" fill="#FF6F3D"/>
<path fill-rule="evenodd" clip-rule="evenodd" d="M345.589 63.0405C349.807 57.8264 350.514 50.3112 346.801 44.2647C344.021 39.7419 339.386 37.0502 334.477 36.5756C333.878 36.5177 333.276 36.4928 332.672 36.5015C332.981 37.0064 333.291 37.5113 333.601 38.0161C333.833 38.3943 334.066 38.7726 334.298 39.1507C335.081 40.4252 335.863 41.6988 336.641 42.9706C338.488 45.9794 337.537 49.947 334.534 51.7939L331.288 53.7879C328.286 55.6347 324.318 54.684 322.471 51.6811C321.809 50.602 321.146 49.5229 320.483 48.4438C320.131 47.8702 319.778 47.2966 319.426 46.723C319.116 46.2175 318.806 45.7119 318.496 45.2064C318.215 45.7422 317.965 46.2921 317.746 46.8532C315.954 51.4479 316.254 56.795 319.034 61.3224C322.747 67.3689 329.769 70.1356 336.332 68.7285C338.706 72.6137 341.083 76.4989 343.459 80.384C345.836 84.2704 348.213 88.1569 350.589 92.0433C353.108 96.1635 356.647 95.0478 358.231 94.0406C361.24 92.1935 361.79 89.3956 359.597 85.9563C356.376 80.8917 353.276 75.7525 350.177 70.6137C348.652 68.0862 347.128 65.5589 345.589 63.0405ZM351.869 91.261C352.905 92.9562 354.01 93.4009 354.878 93.4694C355.849 93.5459 356.807 93.1689 357.426 92.7748L357.436 92.7685L357.446 92.7623C358.695 91.9955 359.242 91.16 359.387 90.3354C359.539 89.4753 359.312 88.2991 358.333 86.7626L358.332 86.7614C355.101 81.6822 351.985 76.5159 348.88 71.3679C347.358 68.8442 345.838 66.325 344.309 63.8226L343.758 62.9198L344.423 62.0972C348.253 57.3617 348.893 50.5379 345.523 45.0501C343.22 41.3019 339.512 38.9378 335.491 38.2266C335.519 38.2722 335.547 38.3178 335.575 38.3634C336.358 39.6389 337.142 40.9149 337.92 42.1867C340.2 45.9015 339.028 50.7914 335.32 53.0715L332.074 55.0656C332.074 55.0657 332.074 55.0654 332.074 55.0656C328.364 57.3469 323.473 56.1735 321.193 52.4669L321.192 52.4651C320.531 51.3867 319.868 50.3083 319.205 49.2291L319.204 49.2274C319.057 48.9868 318.909 48.7462 318.761 48.5055C317.579 52.4152 318.009 56.7868 320.312 60.5374C323.682 66.025 330.057 68.5399 336.017 67.2618L337.057 67.0389L337.612 67.9462C339.987 71.8318 342.363 75.7174 344.74 79.6032L344.749 79.6182C347.123 83.499 349.496 87.3799 351.869 91.261Z" fill="#333333"/>
<path d="M361.76 84.3345C361.935 87.2391 355.87 91.1425 352.166 91.3659C348.463 91.5892 346.685 86.8641 346.51 83.9595C346.335 81.0549 351.306 79.933 355.01 79.7096C358.714 79.4862 361.646 82.4438 361.76 84.3345Z" fill="white"/>
<path fill-rule="evenodd" clip-rule="evenodd" d="M359.669 85.7092C360.175 85.0561 360.275 84.6255 360.263 84.4248C360.242 84.0861 359.85 83.2276 358.806 82.4102C357.831 81.6465 356.524 81.121 355.1 81.2069C353.325 81.314 351.335 81.6348 349.861 82.2224C348.253 82.8637 347.984 83.4883 348.007 83.8692C348.082 85.117 348.513 86.7777 349.294 88.0519C350.072 89.3212 350.999 89.9335 352.076 89.8686C353.554 89.7794 355.731 88.9019 357.559 87.6258C358.454 87.0004 359.187 86.333 359.669 85.7092ZM352.166 91.3659C355.87 91.1425 361.935 87.2391 361.76 84.3345C361.646 82.4438 358.714 79.4862 355.01 79.7096C351.306 79.933 346.335 81.0549 346.51 83.9595C346.685 86.8641 348.463 91.5892 352.166 91.3659Z" fill="#333333"/>
</svg>
