<svg width="448" height="254" viewBox="0 0 448 254" fill="none" xmlns="http://www.w3.org/2000/svg">
<path d="M367.5 253C408.645 253 442 250.761 442 248C442 245.239 408.645 243 367.5 243C326.355 243 293 245.239 293 248C293 250.761 326.355 253 367.5 253Z" fill="#EFEFEF"/>
<path opacity="0.2392" fill-rule="evenodd" clip-rule="evenodd" d="M419.988 162.093C418.915 160.379 418.679 158.299 418.437 156.224C418.201 154.025 418.201 151.7 418.674 149.621C419.269 147.416 420.461 145.461 422.371 144.606C423.325 144.117 424.517 144.117 425.472 143.507C426.545 142.897 427.259 141.547 428.213 140.447C430 138.248 432.506 136.778 435.011 135.798C437.517 134.943 440.259 134.574 443 134.208C439.663 136.533 436.203 139.103 434.297 142.892C433.343 144.847 432.747 147.051 432.033 149.131C431.078 151.82 430.005 154.39 428.577 156.714C427.623 158.304 426.549 159.894 425.122 160.993C423.689 162.093 421.784 162.708 420.234 162.093H419.988Z" fill="#C8C8C8"/>
<path opacity="0.2392" fill-rule="evenodd" clip-rule="evenodd" d="M420.067 161.363C419.358 160.182 419.004 158.88 418.767 157.578C418.531 156.042 418.413 154.62 418.413 153.083C418.413 150.365 419.004 147.286 421.131 145.634C422.076 144.808 423.376 144.688 424.44 144.217C425.622 143.862 426.331 143.036 427.158 142.09C427.985 141.028 428.813 139.962 429.758 139.131C430.822 138.305 431.885 137.594 433.067 137.119C436.022 135.817 439.213 135.342 442.404 134.991C442.404 134.756 442.285 134.52 442.167 134.28C438.622 136.763 434.84 139.482 432.949 143.742C431.885 146.105 431.294 148.708 430.231 151.075C429.285 153.438 428.104 155.806 426.567 157.819C425.149 160.182 422.667 162.074 420.067 161.363C419.595 161.128 419.358 161.838 419.831 161.954C424.676 163.375 427.985 157.934 429.994 153.914C431.176 151.551 432.004 149.063 432.831 146.58C433.658 144.097 434.722 141.849 436.494 139.957C438.267 137.945 440.513 136.408 442.64 134.871C442.876 134.636 442.876 134.16 442.404 134.16C436.967 134.871 430.94 135.817 427.158 140.663C426.331 141.845 425.504 142.911 424.085 143.381C422.785 143.852 421.604 143.972 420.54 144.918C418.649 146.575 417.822 149.294 417.585 151.897C417.467 153.669 417.585 155.446 417.822 157.103C418.058 158.64 418.413 160.297 419.24 161.598C419.713 162.189 420.304 161.834 420.067 161.363Z" fill="#C8C8C8"/>
<path opacity="0.2392" fill-rule="evenodd" clip-rule="evenodd" d="M411.763 127.965C411.049 110.228 409.139 92.6119 406.161 75.2451C409.858 76.2249 412.836 79.4043 414.509 83.1985C416.178 86.9927 416.537 91.392 416.415 95.5512C416.415 97.1409 416.178 98.7306 416.774 100.2C417.369 101.425 418.324 102.4 419.038 103.625C420.348 105.829 420.589 108.884 419.87 111.453C419.274 114.023 417.96 116.467 416.651 118.792C414.982 121.851 413.673 125.031 411.881 128.09L411.763 127.965Z" fill="#C8C8C8"/>
<path opacity="0.2392" fill-rule="evenodd" clip-rule="evenodd" d="M412.117 127.965C411.521 114.143 410.207 100.32 408.302 86.7428C407.707 82.8285 407.111 79.0343 406.515 75.2449C406.397 75.365 406.279 75.61 406.156 75.7348C409.257 76.5897 411.876 78.9143 413.549 81.9736C415.455 85.398 416.173 89.6821 416.291 93.7164C416.291 95.6759 415.932 97.7555 416.409 99.5902C416.887 101.425 418.196 102.525 419.151 103.994C421.179 107.544 419.988 111.948 418.315 115.372C417.36 117.452 416.168 119.411 415.095 121.486C414.022 123.69 413.067 125.77 411.876 127.97C411.64 128.34 412.235 128.825 412.472 128.34C413.545 126.38 414.5 124.425 415.455 122.466C416.409 120.511 417.483 118.672 418.433 116.717C420.22 113.292 421.652 109.258 420.342 105.339C420.101 104.484 419.747 103.749 419.151 103.015C418.556 102.28 417.96 101.545 417.483 100.69C416.409 98.8553 416.887 96.4107 416.887 94.2062C416.887 90.0471 416.291 85.8879 414.504 82.2186C412.717 78.7942 409.857 75.9798 406.397 75C406.161 75 405.92 75.2449 406.038 75.4899C408.425 88.9472 410.094 102.645 411.044 116.347C411.28 120.261 411.521 124.176 411.64 127.97C411.403 128.455 412.117 128.455 412.117 127.965Z" fill="#C8C8C8"/>
<path opacity="0.2392" fill-rule="evenodd" clip-rule="evenodd" d="M404.609 130.29C400.794 123.931 396.26 118.422 391.136 113.163C387.681 109.614 384.338 106.069 380.883 102.52C378.377 99.9505 375.995 97.381 373.489 94.8115C378.618 95.5463 383.624 97.0112 388.512 99.0908C390.299 99.8256 392.209 100.805 393.164 102.64C393.642 103.62 393.996 104.844 394.596 105.699C395.788 107.169 397.816 107.169 399.484 107.779C401.99 108.759 403.777 111.573 404.614 114.508C405.45 117.442 405.327 120.501 405.209 123.561C405.091 125.765 405.091 127.965 404.973 130.29H404.609Z" fill="#C8C8C8"/>
<path opacity="0.2392" fill-rule="evenodd" clip-rule="evenodd" d="M404.847 130.169C401.746 125.155 398.173 120.506 394.358 116.222C390.183 111.573 385.655 107.169 381.244 102.645C378.739 100.075 376.238 97.3857 373.733 94.8162C373.614 95.0611 373.491 95.3061 373.491 95.4261C377.188 96.0361 380.885 96.8958 384.459 98.1157C386.127 98.7256 387.796 99.3404 389.465 100.075C390.774 100.685 392.207 101.665 392.921 103.135C393.634 104.604 393.875 106.069 395.303 106.929C396.494 107.664 398.045 107.784 399.354 108.274C402.214 109.498 403.883 112.923 404.483 116.102C404.843 118.427 404.843 120.871 404.725 123.196C404.606 125.64 404.606 127.965 404.483 130.289C404.483 130.779 405.197 130.779 405.197 130.289C405.315 128.09 405.315 125.885 405.438 123.561C405.438 121.361 405.557 119.281 405.32 117.202C404.961 113.777 403.77 110.473 401.269 108.394C399.959 107.414 398.527 107.169 397.095 106.679C396.381 106.434 395.544 106.189 394.949 105.579C394.353 104.969 394.112 103.989 393.757 103.135C392.448 99.8303 388.869 98.7304 386.009 97.6306C381.958 96.0409 377.666 95.0611 373.491 94.4512C373.132 94.4512 373.014 94.9411 373.255 95.0611C377.666 99.7102 382.076 104.234 386.487 108.763C390.661 113.047 394.83 117.327 398.527 122.096C400.555 124.665 402.46 127.48 404.129 130.289C404.606 130.904 405.207 130.534 404.847 130.169Z" fill="#C8C8C8"/>
<path opacity="0.2392" fill-rule="evenodd" clip-rule="evenodd" d="M365.265 133.229C366.574 134.084 368.243 133.964 369.675 133.474C371.108 132.864 372.417 132.004 373.849 131.269C375.159 130.534 376.832 130.045 378.26 130.414C379.692 130.779 380.765 132.004 382.193 132.494C385.053 133.719 388.272 132.369 391.255 133.229C394.238 134.209 396.384 137.268 397.216 140.567C398.053 143.872 398.171 147.296 398.053 150.841C397.694 149.496 396.384 148.516 395.193 148.271C394.12 148.026 393.047 148.516 392.092 148.761C388.873 149.496 385.412 148.396 382.911 145.946C381.479 144.602 380.406 142.767 378.978 141.297C375.041 137.508 369.316 136.898 365.265 133.229Z" fill="#C8C8C8"/>
<path opacity="0.2392" fill-rule="evenodd" clip-rule="evenodd" d="M365.146 133.594C367.77 135.308 370.748 133.594 373.135 132.124C374.568 131.269 376.113 130.534 377.787 130.779C379.337 131.024 380.529 132.124 381.838 132.859C384.698 134.204 387.681 132.979 390.659 133.594C393.283 134.204 395.311 136.408 396.384 139.098C397.934 142.767 397.934 147.046 397.693 150.965C397.934 150.965 398.171 150.965 398.407 150.84C398.048 149.616 397.216 148.886 396.261 148.396C395.07 147.786 393.874 148.031 392.564 148.396C389.941 149.006 387.317 148.761 384.935 147.296C382.552 145.826 381.12 143.137 379.092 141.177C377.305 139.343 375.159 138.363 373.012 137.263C370.507 136.038 367.765 134.938 365.619 132.979C365.264 132.614 364.787 133.104 365.146 133.594C368.843 136.898 373.731 137.633 377.664 140.812C379.81 142.527 381.12 145.096 383.148 146.926C385.053 148.516 387.44 149.371 389.822 149.496C390.418 149.496 391.132 149.496 391.728 149.371C392.564 149.251 393.396 148.881 394.233 148.761C395.665 148.641 397.334 149.496 397.689 151.085C397.807 151.45 398.284 151.45 398.402 150.965C398.762 144.971 398.284 136.528 392.801 133.474C390.059 131.884 386.958 132.984 384.098 132.619C382.547 132.374 381.238 131.394 379.924 130.659C378.614 129.924 377.182 129.804 375.631 130.169C372.53 131.149 368.956 135.063 365.614 132.859C365.146 132.739 364.787 133.349 365.146 133.594Z" fill="#C8C8C8"/>
<path opacity="0.2392" fill-rule="evenodd" clip-rule="evenodd" d="M393.52 145.461C398.408 151.945 402.464 159.164 405.561 166.867C408.662 174.576 410.808 182.769 411.758 191.088C412.354 195.857 412.595 200.631 412.595 205.4C412.595 206.38 413.904 206.38 413.904 205.4C414.141 196.837 413.068 188.153 411.044 179.71C409.016 171.391 405.915 163.438 401.982 156.099C399.718 151.94 397.212 148.026 394.352 144.357C393.998 143.627 392.925 144.727 393.52 145.461Z" fill="#C8C8C8"/>
<path opacity="0.2392" fill-rule="evenodd" clip-rule="evenodd" d="M401.744 122.951C404.722 133.104 407.705 143.257 410.088 153.655C412.47 163.928 414.262 174.451 414.858 184.969C415.217 190.963 415.217 196.957 414.621 202.826C414.503 203.805 415.931 203.805 415.931 202.826C416.768 192.183 416.167 181.54 414.621 171.022C413.071 160.504 410.565 150.106 407.824 139.828C406.273 133.954 404.604 128.33 402.936 122.581C402.817 121.606 401.508 122.096 401.744 122.951Z" fill="#C8C8C8"/>
<path opacity="0.2392" fill-rule="evenodd" clip-rule="evenodd" d="M411.402 120.261C411.283 131.149 412.238 142.037 413.188 152.92C414.143 163.808 415.098 174.691 415.216 185.579C415.216 191.693 414.98 197.812 414.143 203.926C414.143 204.291 414.262 204.781 414.621 204.905C414.98 205.025 415.453 204.785 415.453 204.416C416.762 193.528 416.762 182.64 416.048 171.757C415.335 160.749 414.139 149.981 413.425 138.973C413.066 132.859 412.711 126.62 412.829 120.382C412.716 119.282 411.402 119.282 411.402 120.261Z" fill="#C8C8C8"/>
<path opacity="0.2392" fill-rule="evenodd" clip-rule="evenodd" d="M416.649 207.355C416.768 192.922 416.886 178.365 420.582 164.418C421.537 160.624 422.729 156.954 424.279 153.41C424.638 152.555 423.442 151.695 423.088 152.675C417.486 165.643 415.935 180.32 415.458 194.507C415.34 198.791 415.222 203.071 415.222 207.35C415.335 208.334 416.649 208.334 416.649 207.355Z" fill="#C8C8C8"/>
<path fill-rule="evenodd" clip-rule="evenodd" d="M422.848 159.039C423.207 157.939 423.921 157.079 424.635 156.224C425.467 155.49 426.303 154.88 427.258 154.51C426.421 155.245 425.708 155.979 424.994 156.714C424.28 157.449 423.684 158.304 422.848 159.039Z" fill="#C8C8C8"/>
<path fill-rule="evenodd" clip-rule="evenodd" d="M424.638 153.775C425.115 152.306 425.947 151.086 427.02 150.106C427.975 149.126 429.166 148.271 430.476 147.906C429.403 148.761 428.33 149.621 427.375 150.596C426.425 151.576 425.47 152.675 424.638 153.775Z" fill="#C8C8C8"/>
<path fill-rule="evenodd" clip-rule="evenodd" d="M427.735 147.661C428.095 146.681 428.808 145.826 429.522 145.216C430.236 144.606 431.073 144.117 432.028 143.872C431.314 144.482 430.595 145.096 429.881 145.706C429.168 146.316 428.572 147.051 427.735 147.661Z" fill="#C8C8C8"/>
<path fill-rule="evenodd" clip-rule="evenodd" d="M420.224 148.886C421.179 150.355 421.651 151.945 422.011 153.78C422.247 155.494 422.37 157.329 422.011 159.039C421.892 157.324 421.774 155.614 421.533 153.9C421.06 152.065 420.701 150.475 420.224 148.886Z" fill="#C8C8C8"/>
<path fill-rule="evenodd" clip-rule="evenodd" d="M422.73 146.316C423.444 147.171 423.922 148.276 424.163 149.376C424.399 150.476 424.399 151.7 424.163 152.8C423.926 151.7 423.804 150.6 423.567 149.496C423.326 148.516 422.967 147.416 422.73 146.316Z" fill="#C8C8C8"/>
<path fill-rule="evenodd" clip-rule="evenodd" d="M427.14 143.502C427.499 144.112 427.617 144.972 427.617 145.702C427.617 146.436 427.376 147.291 427.021 147.906C427.021 147.051 427.021 146.436 427.021 145.702C427.14 144.972 427.14 144.237 427.14 143.502Z" fill="#C8C8C8"/>
<path fill-rule="evenodd" clip-rule="evenodd" d="M412.117 123.441C413.55 120.626 414.859 117.937 416.05 115.122C417.241 112.308 418.196 109.253 419.028 106.194C418.669 109.373 417.719 112.433 416.523 115.367C415.459 118.302 413.909 120.996 412.117 123.441Z" fill="#C8C8C8"/>
<path fill-rule="evenodd" clip-rule="evenodd" d="M411.88 118.671C413.071 116.227 414.262 113.777 415.217 111.208C416.172 108.638 417.004 106.069 417.841 103.379C417.482 106.194 416.768 108.883 415.813 111.453C414.74 114.022 413.549 116.467 411.88 118.671Z" fill="#C8C8C8"/>
<path fill-rule="evenodd" clip-rule="evenodd" d="M411.762 114.142C412.598 111.938 413.312 109.858 414.144 107.659C414.981 105.454 415.577 103.374 416.29 101.175C416.054 103.499 415.336 105.824 414.622 107.903C413.908 110.108 412.953 112.188 411.762 114.142Z" fill="#C8C8C8"/>
<path fill-rule="evenodd" clip-rule="evenodd" d="M411.044 107.664C411.999 105.459 412.831 103.38 413.549 101.305C414.381 99.1053 415.1 97.0257 415.696 94.7012C415.454 97.0257 414.859 99.3502 414.027 101.55C413.313 103.745 412.24 105.824 411.044 107.664Z" fill="#C8C8C8"/>
<path fill-rule="evenodd" clip-rule="evenodd" d="M410.69 101.425C411.645 98.7351 412.359 95.9207 412.955 93.1063C413.55 90.2919 413.91 87.4775 414.146 84.543C414.382 87.4775 414.028 90.4119 413.432 93.2264C412.955 96.1609 412 98.9753 410.69 101.425Z" fill="#C8C8C8"/>
<path fill-rule="evenodd" clip-rule="evenodd" d="M409.97 96.7754C410.329 93.961 410.925 91.2714 411.279 88.457C411.638 85.6426 411.757 82.8282 411.516 80.0186C411.875 81.3633 412.111 82.833 412.111 84.2978C412.111 85.7675 412.111 87.1122 411.87 88.5771C411.638 91.2714 410.925 94.0811 409.97 96.7754Z" fill="#C8C8C8"/>
<path fill-rule="evenodd" clip-rule="evenodd" d="M379.811 97.2656C381.597 98.8553 383.03 100.69 384.339 102.525C385.649 104.484 386.845 106.564 387.795 108.763C386.485 106.804 385.171 104.724 383.862 102.89C382.552 100.935 381.12 99.1003 379.811 97.2656Z" fill="#C8C8C8"/>
<path fill-rule="evenodd" clip-rule="evenodd" d="M384.936 98.2402C386.841 100.2 388.391 102.519 389.587 104.969C390.778 107.414 391.733 110.228 392.093 113.042C391.256 110.353 390.306 107.783 389.114 105.334C387.796 102.769 386.486 100.445 384.936 98.2402Z" fill="#C8C8C8"/>
<path fill-rule="evenodd" clip-rule="evenodd" d="M390.063 100.81C391.496 103.255 392.569 105.704 393.519 108.394C394.474 111.083 395.306 113.778 395.665 116.587C394.71 113.898 393.878 111.328 392.923 108.634C392.087 106.069 391.137 103.38 390.063 100.81Z" fill="#C8C8C8"/>
<path fill-rule="evenodd" clip-rule="evenodd" d="M396.145 107.904C397.099 109.738 397.931 111.818 398.291 113.898C398.768 116.102 399.005 118.182 398.886 120.381C398.527 118.182 398.291 116.102 397.813 114.023C397.336 111.943 396.74 109.863 396.145 107.904Z" fill="#C8C8C8"/>
<path fill-rule="evenodd" clip-rule="evenodd" d="M399.121 108.394C400.076 110.598 400.79 112.918 401.149 115.367C401.508 117.817 401.627 120.261 401.267 122.706C401.149 120.261 400.908 117.812 400.553 115.487C400.194 113.168 399.599 110.843 399.121 108.394Z" fill="#C8C8C8"/>
<path fill-rule="evenodd" clip-rule="evenodd" d="M401.985 111.698C402.822 113.778 403.295 115.978 403.536 118.182C403.772 120.382 403.772 122.706 403.418 124.911C403.3 122.711 403.177 120.507 403.058 118.307C402.699 115.978 402.34 113.898 401.985 111.698Z" fill="#C8C8C8"/>
<path fill-rule="evenodd" clip-rule="evenodd" d="M378.141 131.759C379.691 132.369 381.001 133.349 382.315 134.448C383.624 135.548 384.697 136.898 385.652 138.487C384.461 137.263 383.27 136.043 382.074 134.938C380.882 133.838 379.568 132.739 378.141 131.759Z" fill="#C8C8C8"/>
<path fill-rule="evenodd" clip-rule="evenodd" d="M384.936 133.839C386.009 134.574 386.964 135.674 387.677 136.773C388.514 137.873 388.987 139.218 389.464 140.568C388.75 139.343 388.155 138.243 387.318 137.143C386.486 135.918 385.772 134.819 384.936 133.839Z" fill="#C8C8C8"/>
<path fill-rule="evenodd" clip-rule="evenodd" d="M388.272 133.349C389.464 134.328 390.419 135.793 391.251 137.263C391.964 138.853 392.442 140.442 392.442 142.157C392.083 140.567 391.487 138.977 390.891 137.508C390.182 136.038 389.227 134.693 388.272 133.349Z" fill="#C8C8C8"/>
<path fill-rule="evenodd" clip-rule="evenodd" d="M392.682 135.184C393.873 136.653 394.591 138.363 395.187 140.198C395.783 142.032 396.024 143.992 396.024 145.947C395.787 144.112 395.428 142.157 394.833 140.443C394.232 138.608 393.518 136.898 392.682 135.184Z" fill="#C8C8C8"/>
<path fill-rule="evenodd" clip-rule="evenodd" d="M378.019 139.953C378.855 139.463 379.805 139.098 380.642 138.973C381.597 138.848 382.552 138.848 383.384 139.093C382.429 139.213 381.597 139.338 380.642 139.458C379.81 139.588 378.973 139.713 378.019 139.953Z" fill="#C8C8C8"/>
<path fill-rule="evenodd" clip-rule="evenodd" d="M391.851 149.251C392.806 149.006 393.761 148.641 394.711 148.761C392.446 146.806 391.491 143.132 388.868 141.787C387.913 141.297 386.722 141.177 385.53 141.177C384.457 141.177 383.384 141.542 382.193 141.667C381.002 141.787 379.81 141.912 378.737 141.912C380.047 143.382 381.243 145.091 382.67 146.561C385.053 148.886 388.631 149.986 391.851 149.251Z" fill="#C8C8C8"/>
<path fill-rule="evenodd" clip-rule="evenodd" d="M442.76 134.329C440.613 135.063 438.467 136.288 436.439 137.508C434.534 138.733 432.506 139.833 430.837 141.547C429.405 143.017 428.332 144.851 427.382 146.686C424.64 151.335 421.78 156.229 420.707 161.733L420.111 160.878C420.111 161.368 420.23 161.858 420.348 162.223C421.898 162.588 423.685 162.098 424.999 160.998C426.432 159.899 427.505 158.309 428.455 156.719C429.764 154.395 430.96 151.825 431.911 149.136C432.624 147.056 433.102 144.856 434.175 142.897C436.203 139.098 439.54 136.653 442.76 134.329Z" fill="#C8C8C8"/>
<path d="M431.498 236.305H431.498L431.498 236.314C431.615 243.096 426.664 248.5 420.495 248.5H408.503C402.464 248.5 397.5 243.099 397.5 236.305V208.695C397.5 201.896 402.459 196.5 408.503 196.5H420.495C426.534 196.5 431.498 201.901 431.498 208.695V236.305Z" fill="#F5F5F5" stroke="#CCCCCC"/>
<path fill-rule="evenodd" clip-rule="evenodd" d="M366.396 132.657C367.587 133.022 368.542 133.637 369.615 134.492C370.688 135.347 371.525 136.082 372.357 137.181C371.402 136.447 370.447 135.712 369.374 134.982C368.424 134.007 367.35 133.392 366.396 132.657Z" fill="#C8C8C8"/>
<path fill-rule="evenodd" clip-rule="evenodd" d="M431.312 141.912C431.908 140.812 432.745 139.832 433.695 139.098C434.65 138.363 435.723 137.873 436.796 137.628C435.841 138.238 434.891 138.973 433.936 139.708C432.981 140.322 432.144 141.177 431.312 141.912Z" fill="#C8C8C8"/>
<path fill-rule="evenodd" clip-rule="evenodd" d="M429.883 141.057C430.119 141.667 430.242 142.282 430.119 142.892C430.001 143.502 429.76 144.116 429.282 144.482C429.282 143.872 429.4 143.257 429.519 142.767C429.646 142.157 429.764 141.667 429.883 141.057Z" fill="#C8C8C8"/>
<g clip-path="url(#clip0_9654_177689)">
<rect width="288" height="254" rx="4" fill="white"/>
<path fill-rule="evenodd" clip-rule="evenodd" d="M69.5182 60.8448L60.5716 56.7085C59.8095 56.3474 59.8095 55.7893 60.5716 55.461L63.6863 54.0166L69.485 56.7085C70.2472 57.0696 71.4732 57.0696 72.2022 56.7085L78.0009 54.0166L81.1156 55.461C81.8777 55.8221 81.8777 56.3802 81.1156 56.7085L72.169 60.8448C71.4732 61.1731 70.2472 61.1731 69.5182 60.8448Z" fill="#FF6F3D"/>
<path fill-rule="evenodd" clip-rule="evenodd" d="M69.4892 55.7266L60.5698 51.5855C59.8101 51.224 59.8101 50.6652 60.5698 50.3366L63.609 48.9233L69.4892 51.6512C70.249 52.0127 71.4713 52.0127 72.198 51.6512L78.0782 48.9233L81.1174 50.3366C81.8772 50.6981 81.8772 51.2568 81.1174 51.5855L72.198 55.7266C71.4382 56.0881 70.2159 56.0881 69.4892 55.7266Z" fill="#95C038"/>
<path fill-rule="evenodd" clip-rule="evenodd" d="M69.4892 50.6612L60.5698 46.5797C59.8101 46.2234 59.8101 45.6727 60.5698 45.3488L69.4892 41.2672C70.249 40.9109 71.4713 40.9109 72.198 41.2672L81.1174 45.3488C81.8772 45.7051 81.8772 46.2558 81.1174 46.5797L72.198 50.6612C71.4382 50.9851 70.2159 50.9851 69.4892 50.6612Z" fill="#5DC0E8"/>
<path fill-rule="evenodd" clip-rule="evenodd" d="M202.679 55.2297C203.322 54.733 203.643 54.0409 203.643 53.1534C203.643 52.4636 203.444 51.9025 203.044 51.4702C202.649 51.038 201.924 50.6333 200.868 50.2562C200.238 50.0309 199.77 49.8262 199.462 49.6423C199.159 49.4537 198.944 49.2491 198.815 49.0283C198.686 48.803 198.622 48.5156 198.622 48.1661C198.622 47.6924 198.797 47.3222 199.146 47.0555C199.495 46.7888 199.979 46.6554 200.599 46.6554C201.384 46.6554 202.192 46.8302 203.024 47.1797L203.389 46.1588C202.548 45.7909 201.628 45.6069 200.627 45.6069C199.667 45.6069 198.895 45.8369 198.312 46.2967C197.729 46.7566 197.437 47.3751 197.437 48.1523C197.437 48.8927 197.637 49.4928 198.037 49.9527C198.441 50.4125 199.111 50.8103 200.048 51.146C200.718 51.3852 201.217 51.599 201.543 51.7875C201.873 51.9761 202.107 52.183 202.245 52.4084C202.388 52.6291 202.459 52.9142 202.459 53.2637C202.459 53.7926 202.261 54.2064 201.866 54.5054C201.471 54.7997 200.884 54.9468 200.103 54.9468C199.625 54.9468 199.143 54.8962 198.657 54.7951C198.17 54.6939 197.72 54.5559 197.306 54.3812V55.5125C197.949 55.8206 198.868 55.9746 200.062 55.9746C201.164 55.9746 202.036 55.7263 202.679 55.2297ZM179.525 54.5192C180.429 53.6362 180.882 52.3624 180.882 50.6977C180.882 49.1387 180.448 47.9247 179.58 47.0555C178.712 46.1864 177.495 45.7518 175.929 45.7518H172.843V55.8367H175.633C177.327 55.8367 178.625 55.3975 179.525 54.5192ZM178.65 47.766C179.311 48.4328 179.642 49.4238 179.642 50.7391C179.642 52.0865 179.291 53.1051 178.588 53.7949C177.885 54.4801 176.836 54.8227 175.44 54.8227H174.014V46.7658H175.716C177.015 46.7658 177.993 47.0992 178.65 47.766ZM188.407 54.9399C189.027 54.2455 189.337 53.2821 189.337 52.0497C189.337 50.8494 189.025 49.8975 188.4 49.1939C187.78 48.4903 186.942 48.1385 185.886 48.1385C184.793 48.1385 183.939 48.4834 183.324 49.1732C182.708 49.8584 182.401 50.8172 182.401 52.0497C182.401 52.8452 182.543 53.5396 182.828 54.1329C183.112 54.7261 183.516 55.1814 184.04 55.4987C184.563 55.816 185.163 55.9746 185.838 55.9746C186.931 55.9746 187.787 55.6297 188.407 54.9399ZM184.164 54.257C183.778 53.7512 183.585 53.0154 183.585 52.0497C183.585 51.0748 183.776 50.3413 184.157 49.8492C184.538 49.3571 185.103 49.1111 185.851 49.1111C186.609 49.1111 187.181 49.3617 187.567 49.863C187.957 50.3597 188.152 51.0885 188.152 52.0497C188.152 53.02 187.957 53.7581 187.567 54.2639C187.181 54.7652 186.614 55.0158 185.865 55.0158C185.117 55.0158 184.55 54.7629 184.164 54.257ZM194.224 55.9746C193.131 55.9746 192.284 55.6389 191.682 54.9675C191.085 54.2915 190.787 53.3373 190.787 52.1049C190.787 50.8402 191.09 49.863 191.696 49.1732C192.307 48.4834 193.175 48.1385 194.3 48.1385C194.663 48.1385 195.025 48.1776 195.388 48.2558C195.751 48.3339 196.036 48.4259 196.242 48.5317L195.891 49.5043C195.638 49.4031 195.363 49.3204 195.064 49.256C194.766 49.187 194.502 49.1525 194.272 49.1525C192.738 49.1525 191.972 50.132 191.972 52.0911C191.972 53.02 192.158 53.7328 192.53 54.2294C192.906 54.7261 193.462 54.9744 194.196 54.9744C194.826 54.9744 195.471 54.8388 196.132 54.5674V55.5815C195.627 55.8436 194.991 55.9746 194.224 55.9746ZM208.903 55.9746C208.411 55.9746 207.961 55.885 207.553 55.7056C207.148 55.5217 206.809 55.2411 206.533 54.8641H206.45C206.506 55.3055 206.533 55.724 206.533 56.1195V59.2305H205.39V48.2765H206.32L206.478 49.3112H206.533C206.827 48.8973 207.169 48.5984 207.559 48.4144C207.95 48.2305 208.397 48.1385 208.903 48.1385C209.904 48.1385 210.675 48.4811 211.217 49.1663C211.763 49.8515 212.037 50.8126 212.037 52.0497C212.037 53.2913 211.759 54.257 211.203 54.9468C210.652 55.632 209.885 55.9746 208.903 55.9746ZM208.737 49.1111C207.966 49.1111 207.408 49.325 207.063 49.7526C206.719 50.1803 206.542 50.8609 206.533 51.7944V52.0497C206.533 53.112 206.71 53.873 207.063 54.3329C207.417 54.7882 207.984 55.0158 208.765 55.0158C209.417 55.0158 209.927 54.7514 210.294 54.2225C210.666 53.6937 210.852 52.9648 210.852 52.0359C210.852 51.0931 210.666 50.3712 210.294 49.8699C209.927 49.364 209.408 49.1111 208.737 49.1111ZM218.315 54.7606L218.542 55.8367H219.39V50.677C219.39 49.794 219.172 49.1525 218.735 48.7524C218.304 48.3523 217.638 48.1523 216.738 48.1523C216.292 48.1523 215.847 48.2098 215.402 48.3247C214.961 48.4397 214.554 48.5984 214.182 48.8007L214.534 49.6768C215.328 49.2905 216.04 49.0973 216.669 49.0973C217.229 49.0973 217.636 49.2399 217.888 49.525C218.145 49.8055 218.274 50.2424 218.274 50.8356V51.3047L216.993 51.3461C214.554 51.4197 213.335 52.2198 213.335 53.7466C213.335 54.4594 213.546 55.0089 213.969 55.3952C214.396 55.7815 214.984 55.9746 215.732 55.9746C216.292 55.9746 216.758 55.8919 217.13 55.7263C217.507 55.5562 217.884 55.2343 218.26 54.7606H218.315ZM217.633 54.4433C217.229 54.8342 216.671 55.0296 215.959 55.0296C215.509 55.0296 215.158 54.9215 214.906 54.7054C214.658 54.4893 214.534 54.1743 214.534 53.7604C214.534 53.2315 214.733 52.8429 215.133 52.5946C215.537 52.3417 216.194 52.1991 217.103 52.1669L218.246 52.1187V52.8016C218.246 53.5052 218.042 54.0524 217.633 54.4433ZM224.628 55.9746C223.535 55.9746 222.688 55.6389 222.086 54.9675C221.49 54.2915 221.191 53.3373 221.191 52.1049C221.191 50.8402 221.494 49.863 222.1 49.1732C222.711 48.4834 223.579 48.1385 224.704 48.1385C225.067 48.1385 225.429 48.1776 225.792 48.2558C226.155 48.3339 226.44 48.4259 226.646 48.5317L226.295 49.5043C226.042 49.4031 225.767 49.3204 225.468 49.256C225.17 49.187 224.906 49.1525 224.676 49.1525C223.143 49.1525 222.376 50.132 222.376 52.0911C222.376 53.02 222.562 53.7328 222.934 54.2294C223.31 54.7261 223.866 54.9744 224.601 54.9744C225.23 54.9744 225.875 54.8388 226.536 54.5674V55.5815C226.031 55.8436 225.395 55.9746 224.628 55.9746ZM228.737 54.9537C229.384 55.6343 230.266 55.9746 231.382 55.9746C231.892 55.9746 232.326 55.9355 232.684 55.8574C233.047 55.7838 233.43 55.6596 233.834 55.4849V54.464C233.04 54.8043 232.236 54.9744 231.423 54.9744C230.652 54.9744 230.053 54.7445 229.626 54.2846C229.203 53.8248 228.98 53.1511 228.957 52.2635H234.158V51.5392C234.158 50.5183 233.882 49.6975 233.331 49.0766C232.78 48.4512 232.032 48.1385 231.086 48.1385C230.076 48.1385 229.27 48.4972 228.668 49.2146C228.071 49.932 227.773 50.9 227.773 52.1187C227.773 53.3281 228.094 54.2731 228.737 54.9537ZM229.619 49.6906C229.981 49.2951 230.466 49.0973 231.072 49.0973C231.669 49.0973 232.128 49.2905 232.45 49.6768C232.771 50.0584 232.932 50.6103 232.932 51.3323H228.985C229.049 50.6333 229.26 50.086 229.619 49.6906ZM86.749 50.972C86.749 47.3558 89.2108 45.8751 91.716 45.8751C94.2212 45.8751 96.683 47.3558 96.683 50.972C96.683 54.5881 94.2212 56.0688 91.716 56.0688C89.2108 56.0688 86.749 54.5881 86.749 50.972ZM94.5108 50.972C94.5108 47.5978 92.4835 47.2988 91.716 47.2988C90.9485 47.2988 88.9212 47.5978 88.9212 50.972C88.9212 54.3461 90.9485 54.6451 91.716 54.6451C92.4835 54.6451 94.5108 54.3461 94.5108 50.972ZM100.41 55.9549H98.3536V45.989H101.018L104.522 52.2675L105.058 53.62H105.102L105.058 51.8546V45.989H107.115V55.9549H104.45L100.917 49.4344L100.41 48.3239H100.366L100.41 50.0893V55.9549ZM109.144 55.9549H115.226V54.2749H111.2V45.989H109.144V55.9549ZM117.224 51.8831L113.488 45.989H115.863L117.948 49.4913L118.267 50.1747H118.31L118.658 49.4913L120.757 45.989H122.929L119.28 51.9116V55.9549H117.224V51.8831ZM127.72 45.8751C125.215 45.8751 122.753 47.3558 122.753 50.972C122.753 54.5881 125.215 56.0688 127.72 56.0688C130.226 56.0688 132.687 54.5881 132.687 50.972C132.687 47.3558 130.226 45.8751 127.72 45.8751ZM127.72 47.2988C128.488 47.2988 130.515 47.5978 130.515 50.972C130.515 54.3461 128.488 54.6451 127.72 54.6451C126.953 54.6451 124.926 54.3461 124.926 50.972C124.926 47.5978 126.953 47.2988 127.72 47.2988ZM136.414 55.9549H134.358V45.989H140.035V47.669H136.414V50.0893H139.861V51.7265H136.414V55.9549ZM141.485 55.9549H143.542V51.7265H146.988V50.0893H143.542V47.669H147.162V45.989H141.485V55.9549ZM150.669 55.9549H148.613V45.989H150.669V55.9549ZM160.099 53.9475C159.593 54.1753 158.883 54.3888 157.985 54.3888C156.161 54.3888 154.51 53.4065 154.51 51.0004C154.51 48.9645 155.856 47.5551 158.13 47.5551C158.897 47.5551 159.549 47.6975 160.143 47.9252L160.23 46.2168C159.462 45.9748 158.782 45.8751 157.985 45.8751C154.799 45.8751 152.338 47.5978 152.338 51.0289C152.338 54.6593 155.089 56.0688 157.609 56.0688C158.42 56.0688 159.332 55.9407 160.23 55.6417L160.099 53.9475ZM167.874 55.9549H161.821V45.989H167.874V47.7544H163.877V50.0038H167.512V51.6411H163.877V54.1895H167.874V55.9549Z" fill="#333333"/>
<path opacity="0.5" fill-rule="evenodd" clip-rule="evenodd" d="M40.1237 156.057L-162.331 217.091C-179.9 222.483 -181.776 234.698 -166.524 244.396L11.5661 364.426C29.7331 377.793 47.0083 382.773 73.6111 373.094L275.773 312.336C293.341 306.944 295.217 294.729 279.966 285.031L109.926 164.797C91.6567 150.761 73.3476 147.215 40.1237 156.057Z" fill="#D9F4FF"/>
<path opacity="0.3" fill-rule="evenodd" clip-rule="evenodd" d="M231.711 87.8658L441.383 125.77C459.294 129.185 462.467 141.029 448.477 152.247L285.844 289.924C272.04 301.838 246.53 308.675 229.309 305.075L19.6362 267.171C1.72544 263.756 -1.44791 251.912 12.5429 240.694L175.175 103.017C191.224 89.0465 214.676 84.9631 231.711 87.8658Z" fill="#D9F4FF"/>
<path opacity="0.5" fill-rule="evenodd" clip-rule="evenodd" d="M181.932 179.404L164.272 391.772C162.934 409.959 173.552 416.09 188.007 405.477L363.066 283.997C378.145 273.745 391.35 250.87 392.331 233.301L409.991 20.933C411.329 2.74613 400.71 -3.38521 386.256 7.22765L211.197 128.708C193.551 140.597 183.538 162.196 181.932 179.404Z" fill="#D9F4FF"/>
<g filter="url(#filter0_d_9654_177689)">
<rect x="56" y="86" width="176" height="126" rx="4" fill="white"/>
<path d="M211.5 122C211.5 122.828 210.828 123.5 210 123.5H78C77.1716 123.5 76.5 122.828 76.5 122V108C76.5 107.172 77.1716 106.5 78 106.5H210C210.828 106.5 211.5 107.172 211.5 108L211.5 122Z" fill="white" stroke="#CCCCCC"/>
<path d="M211.5 152C211.5 152.828 210.828 153.5 210 153.5H78C77.1716 153.5 76.5 152.828 76.5 152V138C76.5 137.172 77.1716 136.5 78 136.5H210C210.828 136.5 211.5 137.172 211.5 138L211.5 152Z" fill="white" stroke="#CCCCCC"/>
<rect x="76" y="166" width="136" height="26" rx="2" fill="#5399DF"/>
<path d="M120.383 173.578H123.781C125.255 173.578 126.367 173.792 127.117 174.219C127.867 174.646 128.242 175.383 128.242 176.43C128.242 176.867 128.164 177.263 128.008 177.617C127.857 177.966 127.635 178.255 127.344 178.484C127.052 178.708 126.693 178.859 126.266 178.938V179.016C126.708 179.094 127.102 179.232 127.445 179.43C127.794 179.628 128.068 179.911 128.266 180.281C128.469 180.651 128.57 181.13 128.57 181.719C128.57 182.417 128.404 183.01 128.07 183.5C127.742 183.99 127.271 184.362 126.656 184.617C126.047 184.872 125.323 185 124.484 185H120.383V173.578ZM122.258 178.289H124.055C124.904 178.289 125.492 178.151 125.82 177.875C126.148 177.599 126.312 177.195 126.312 176.664C126.312 176.122 126.117 175.732 125.727 175.492C125.341 175.253 124.727 175.133 123.883 175.133H122.258V178.289ZM122.258 179.805V183.43H124.234C125.109 183.43 125.724 183.26 126.078 182.922C126.432 182.583 126.609 182.125 126.609 181.547C126.609 181.193 126.529 180.885 126.367 180.625C126.211 180.365 125.953 180.164 125.594 180.023C125.234 179.878 124.75 179.805 124.141 179.805H122.258ZM138.398 180.656C138.398 181.375 138.305 182.013 138.117 182.57C137.93 183.128 137.656 183.599 137.297 183.984C136.938 184.365 136.505 184.656 136 184.859C135.495 185.057 134.924 185.156 134.289 185.156C133.695 185.156 133.151 185.057 132.656 184.859C132.161 184.656 131.732 184.365 131.367 183.984C131.008 183.599 130.729 183.128 130.531 182.57C130.333 182.013 130.234 181.375 130.234 180.656C130.234 179.703 130.398 178.896 130.727 178.234C131.06 177.568 131.534 177.06 132.148 176.711C132.763 176.362 133.495 176.188 134.344 176.188C135.141 176.188 135.844 176.362 136.453 176.711C137.062 177.06 137.539 177.568 137.883 178.234C138.227 178.901 138.398 179.708 138.398 180.656ZM132.125 180.656C132.125 181.286 132.201 181.826 132.352 182.273C132.508 182.721 132.747 183.065 133.07 183.305C133.393 183.539 133.81 183.656 134.32 183.656C134.831 183.656 135.247 183.539 135.57 183.305C135.893 183.065 136.13 182.721 136.281 182.273C136.432 181.826 136.508 181.286 136.508 180.656C136.508 180.026 136.432 179.492 136.281 179.055C136.13 178.612 135.893 178.276 135.57 178.047C135.247 177.812 134.828 177.695 134.312 177.695C133.552 177.695 132.997 177.951 132.648 178.461C132.299 178.971 132.125 179.703 132.125 180.656ZM142.273 176.352V180.766C142.273 180.906 142.268 181.086 142.258 181.305C142.253 181.518 142.242 181.742 142.227 181.977C142.211 182.206 142.195 182.417 142.18 182.609C142.164 182.802 142.151 182.945 142.141 183.039L146.492 176.352H148.727V185H146.969V180.633C146.969 180.404 146.974 180.138 146.984 179.836C147 179.534 147.016 179.242 147.031 178.961C147.052 178.68 147.065 178.466 147.07 178.32L142.734 185H140.508V176.352H142.273ZM148.078 172.711C148.026 173.247 147.88 173.711 147.641 174.102C147.406 174.487 147.049 174.784 146.57 174.992C146.091 175.201 145.461 175.305 144.68 175.305C143.872 175.305 143.234 175.206 142.766 175.008C142.297 174.805 141.958 174.51 141.75 174.125C141.542 173.734 141.417 173.263 141.375 172.711H143.047C143.099 173.289 143.25 173.68 143.5 173.883C143.75 174.081 144.154 174.18 144.711 174.18C145.19 174.18 145.573 174.073 145.859 173.859C146.151 173.646 146.326 173.263 146.383 172.711H148.078ZM157.898 177.797H155.055V185H153.227V177.797H150.398V176.352H157.898V177.797ZM161.336 176.352V180.766C161.336 180.906 161.331 181.086 161.32 181.305C161.315 181.518 161.305 181.742 161.289 181.977C161.273 182.206 161.258 182.417 161.242 182.609C161.227 182.802 161.214 182.945 161.203 183.039L165.555 176.352H167.789V185H166.031V180.633C166.031 180.404 166.036 180.138 166.047 179.836C166.062 179.534 166.078 179.242 166.094 178.961C166.115 178.68 166.128 178.466 166.133 178.32L161.797 185H159.57V176.352H161.336Z" fill="white"/>
</g>
<path d="M230.153 197.394L231.205 197.105L230.299 196.497L207.335 181.085L206.172 180.304L206.578 181.645L214.797 208.8L215.09 209.768L215.681 208.947L216.649 207.602L216.649 207.602L216.652 207.599C216.903 207.242 217.156 206.864 217.411 206.48C217.467 206.396 217.523 206.312 217.58 206.227C217.896 205.754 218.222 205.273 218.577 204.793L218.577 204.793L218.583 204.784C219.225 203.875 219.685 203.281 220.47 203.281C221.147 203.281 221.613 203.776 222.237 204.659L222.242 204.666L222.248 204.674L230.346 215.316L230.669 215.74L231.072 215.392L233.612 213.192L233.974 212.878L233.675 212.502L225.11 201.75C225.082 201.71 225.053 201.667 225.022 201.623C224.724 201.193 224.305 200.589 224.47 199.835C224.549 199.516 224.77 199.272 225.076 199.066C225.305 198.912 225.525 198.81 225.739 198.712C225.822 198.673 225.905 198.635 225.986 198.595C226.737 198.344 227.422 198.153 228.061 197.975C228.324 197.902 228.58 197.831 228.829 197.758L230.153 197.394Z" fill="white" stroke="#333333"/>
</g>
<rect x="0.5" y="0.5" width="287" height="253" rx="3.5" stroke="#333333"/>
<path fill-rule="evenodd" clip-rule="evenodd" d="M351.056 100.921C351.482 102.57 352.19 104.386 352.966 106.362C354.157 109.404 355.497 112.831 356.186 116.633C357.014 121.214 357.736 126.284 358.397 131.72C359.057 137.151 359.651 142.948 360.215 148.994C360.349 150.407 360.33 151.835 360.316 153.282C360.297 154.945 360.282 156.622 360.488 158.295C362.684 171.032 364.484 184.591 365.713 197.981C366.886 210.756 367.537 223.378 367.517 234.976V235.005L367.493 235.019C367.101 235.279 366.618 235.481 366.091 235.63C365.551 235.779 364.962 235.865 364.374 235.884C363.78 235.903 363.196 235.851 362.67 235.721C362.177 235.601 361.737 235.413 361.392 235.149L361.378 235.139L361.373 235.12C361.187 234.274 360.895 232.919 360.512 231.126C358.842 223.335 355.392 207.257 351.042 189.166C349.008 180.697 346.678 171.887 344.453 163.457C341.74 153.19 339.179 143.486 337.462 135.618L336.313 130.639C336.222 143.953 335.476 157.872 334.988 166.932L334.973 167.182C334.83 169.84 334.71 172.065 334.638 173.771C334.634 173.887 334.638 174.319 334.648 175.035V175.088C334.72 181.62 335.05 211.55 331.15 235.87L331.145 235.894L331.126 235.908C330.686 236.182 330.246 236.365 329.815 236.471C329.336 236.591 328.867 236.62 328.422 236.586C327.901 236.548 327.408 236.418 326.963 236.245C326.427 236.033 325.963 235.754 325.599 235.481L325.58 235.466V235.442C325.542 231.929 325.475 227.641 325.345 222.893C325.216 218.144 325.03 212.924 324.747 207.541C324.46 202.033 324.082 196.347 323.57 190.791C323.063 185.235 322.427 179.813 321.632 174.838C321.623 174.766 321.575 174.56 321.503 174.223C320.776 170.859 317.302 154.738 317.177 134.681C317.139 128.5 317.349 120.988 318.072 113.816C318.637 108.207 319.512 102.805 320.823 98.4072L320.843 98.3447L320.9 98.3784C323.044 99.5752 325.331 100.729 327.662 101.608C329.992 102.488 332.365 103.098 334.672 103.218C337.395 103.358 340.103 103.199 342.706 102.824C345.64 102.406 348.444 101.719 350.985 100.892L351.037 100.873L351.056 100.921ZM352.865 106.4C352.1 104.439 351.391 102.642 350.965 101.003C348.434 101.825 345.644 102.507 342.721 102.925C340.113 103.295 337.399 103.459 334.667 103.319C332.346 103.199 329.963 102.589 327.623 101.704C325.307 100.83 323.034 99.6857 320.905 98.4985C319.603 102.877 318.732 108.246 318.172 113.826C317.45 120.992 317.239 128.5 317.278 134.681C317.402 154.724 320.876 170.835 321.599 174.199C321.67 174.536 321.714 174.742 321.728 174.819C322.522 179.799 323.159 185.22 323.666 190.781C324.173 196.342 324.556 202.028 324.843 207.536C325.121 212.919 325.312 218.139 325.441 222.893C325.57 227.632 325.637 231.909 325.676 235.418C326.03 235.682 326.475 235.952 326.992 236.153C327.427 236.322 327.91 236.447 328.422 236.485C328.858 236.519 329.317 236.49 329.781 236.37C330.198 236.264 330.619 236.091 331.045 235.831C334.94 211.521 334.61 181.615 334.538 175.088V175.035C334.528 174.314 334.523 173.882 334.528 173.767C334.6 172.055 334.72 169.83 334.863 167.177L334.878 166.927C335.37 157.761 336.131 143.64 336.208 130.197L336.213 129.754L337.562 135.594C339.275 143.457 341.84 153.166 344.548 163.433C346.774 171.858 349.099 180.659 351.138 189.142C355.492 207.243 358.938 223.316 360.608 231.107C360.99 232.895 361.282 234.25 361.464 235.082C361.794 235.327 362.215 235.509 362.689 235.625C363.206 235.75 363.78 235.803 364.364 235.788C364.943 235.769 365.527 235.687 366.058 235.538C366.565 235.399 367.029 235.202 367.407 234.957C367.427 223.368 366.776 210.761 365.603 198C364.378 184.615 362.579 171.056 360.378 158.319V158.314C360.172 156.632 360.187 154.95 360.206 153.287C360.22 151.845 360.234 150.417 360.105 149.014C359.54 142.977 358.947 137.18 358.287 131.739C357.626 126.308 356.904 121.238 356.076 116.662C355.397 112.855 354.057 109.438 352.865 106.4Z" fill="#404040"/>
<path fill-rule="evenodd" clip-rule="evenodd" d="M336.265 130.033C336.193 143.53 335.428 157.733 334.935 166.932C334.786 169.691 334.662 172.003 334.585 173.757C334.581 173.877 334.585 174.329 334.595 175.079C334.667 181.606 334.997 211.535 331.097 235.856C330.178 236.423 329.259 236.591 328.422 236.529C327.278 236.442 326.283 235.933 325.627 235.433C325.551 228.401 325.355 218.298 324.8 207.527C324.225 196.515 323.273 184.773 321.684 174.819C318.067 152.076 315.808 120.036 321.215 98.4796L319.919 98.2393C313.956 121.142 316.756 152.186 320.397 175.103C321.976 184.985 322.924 196.66 323.493 207.618C324.063 218.61 324.254 228.848 324.326 235.856L324.331 236.245L324.589 236.476C325.369 237.168 326.742 237.966 328.345 238.091C329.499 238.177 330.767 237.922 332.025 237.038L332.279 236.86L332.336 236.514C336.318 211.997 335.983 181.659 335.911 175.069C335.901 174.372 335.896 173.945 335.901 173.844C335.973 172.181 336.097 169.84 336.251 167.038C336.681 159.03 337.318 147.236 337.523 135.388L336.265 130.033Z" fill="#333333"/>
<path fill-rule="evenodd" clip-rule="evenodd" d="M324.641 235.433C323.076 236.081 321.162 236.74 319.21 237.413C315.286 238.763 311.199 240.172 308.85 241.897C306.763 243.43 305.959 245.185 307.5 247.295L307.563 247.377L307.644 247.439C308.577 248.189 313.209 248.314 318.43 247.992C323.488 247.679 329.182 246.987 332.556 246.093L332.637 246.074C333.417 245.896 335.321 245.492 333.814 239.917C333.757 239.71 333.35 238.812 332.972 237.956C332.661 237.264 332.364 236.601 332.331 236.5L330.852 236.99C330.905 237.153 331.221 237.86 331.555 238.6C331.914 239.398 332.292 240.244 332.316 240.326C333.403 244.334 332.761 244.449 332.297 244.555L332.182 244.579C328.909 245.449 323.32 246.127 318.344 246.43C313.606 246.723 309.51 246.718 308.692 246.261C307.931 245.117 308.491 244.094 309.778 243.142C311.927 241.561 315.903 240.191 319.722 238.879C321.664 238.211 323.569 237.552 325.234 236.865L324.641 235.433Z" fill="#333333"/>
<path fill-rule="evenodd" clip-rule="evenodd" d="M328.708 115.114C329.546 116.008 330.493 116.801 331.541 117.382C332.627 117.983 333.824 118.368 335.135 118.416L335.666 118.435L335.728 119.06C337.432 136.397 342.04 153.575 347.481 173.848C352.127 191.165 357.381 210.742 361.956 234.605C362.769 235.043 363.65 235.149 364.511 235.076C365.334 235.004 366.138 234.764 366.851 234.476C366.703 227.401 366.358 216.706 365.588 205.339C365.042 197.269 364.286 188.892 363.233 181.283C363.09 180.231 362.942 179.231 362.798 178.279C362.65 177.318 362.497 176.366 362.339 175.439C362.214 174.713 362.047 173.79 361.884 172.896C361.453 170.522 361.056 168.349 360.831 165.643C359.056 144.087 358.573 122.521 350.428 101.156L351.591 100.719C359.716 119.911 360.329 144.63 362.047 165.509C362.262 168.095 362.65 170.243 363.08 172.593C363.214 173.334 363.353 174.098 363.535 175.155C363.693 176.097 363.851 177.054 363.999 178.025C364.157 179.053 364.305 180.063 364.439 181.048C365.502 188.719 366.262 197.135 366.808 205.224C367.593 216.846 368.531 228.323 368.674 235.437L368.684 235.951L368.277 236.134C366.32 237.013 362.19 237.561 360.707 235.355L360.645 235.028C356.065 211.054 350.979 191.656 346.318 174.29C340.915 154.166 336.336 137.084 334.575 119.834C333.293 119.709 332.111 119.3 331.029 118.699C329.838 118.036 328.771 117.142 327.837 116.133C327 115.229 327.88 114.229 328.708 115.114Z" fill="#333333"/>
<path fill-rule="evenodd" clip-rule="evenodd" d="M351.004 100.936C352.08 105.122 354.999 110.371 356.133 116.648C357.789 125.809 359.033 136.921 360.163 149.004C360.445 152.037 360.048 155.171 360.435 158.305C364.732 183.192 367.503 211.228 367.465 234.976C366.675 235.495 365.522 235.793 364.369 235.832C363.23 235.865 362.124 235.639 361.421 235.106C360.43 230.636 356.444 211.425 351.09 189.147C346.568 170.345 340.634 149.922 337.514 135.599L336.265 130.192C336.189 143.645 335.428 157.771 334.935 166.937C334.787 169.696 334.662 172.008 334.586 173.762C334.581 173.882 334.586 174.334 334.595 175.084C334.667 181.611 334.997 211.54 331.097 235.861C330.178 236.428 329.26 236.596 328.422 236.533C327.279 236.447 326.283 235.937 325.628 235.438C325.551 228.406 325.355 218.303 324.8 207.532C324.226 196.52 323.273 184.778 321.685 174.824C321.556 174.017 317.369 156.723 317.23 134.676C317.163 123.66 317.885 108.429 320.876 98.4219C325.164 100.82 330.04 103.031 334.672 103.267C340.476 103.56 346.204 102.498 351.004 100.936Z" fill="#404040"/>
<path fill-rule="evenodd" clip-rule="evenodd" d="M315.788 65.6035C316.358 63.2052 317.296 61.3114 318.468 59.4225C319.301 58.0864 320.085 56.8175 320.698 56.0436C321.688 54.7892 322.09 55.1112 321.167 56.284C320.588 57.0193 319.951 58.0383 319.157 59.3168C318.056 61.0855 316.817 63.407 316.291 65.618C315.826 67.5694 315.606 69.8236 316.449 71.5539C317.181 73.0583 318.994 74.9424 321.061 75.8796C322.846 76.5573 323.76 77.8454 324.966 79.2056C325.593 79.9122 326.45 80.3928 327.21 81.0465L327.641 81.0993C334.36 81.902 341.207 81.2916 345.734 80.513C346.045 78.4895 346.734 76.5429 347.265 74.8655C347.744 73.3418 348.356 71.6884 349.041 70.6118C347.854 68.1846 346.198 65.3536 344.126 62.167C343.27 60.85 343.796 61.0423 344.595 62.2727C350.916 71.9768 351.749 77.1965 352.208 78.9317L352.476 79.9362L351.586 80.0275C350.734 80.114 349.533 80.3495 348.079 80.6331C343.456 81.5367 336.441 82.2481 327.923 81.3781C327.914 81.7097 327.89 82.0462 327.837 82.4163C327.766 82.9161 327.651 85.2376 327.45 85.9057C341.576 88.6598 350.677 89.001 355.558 88.6021C358.544 88.357 360.975 87.5447 361.865 87.0112C362.468 86.6459 362.645 86.3767 362.693 86.2518C359.755 51.1267 346.011 47.7622 343.14 47.2576C342.777 47.1951 342.533 47.1518 342.341 47.0413L342.274 46.998C341.877 46.7096 341.327 46.2771 340.719 45.806C339.743 45.0466 338.35 43.9364 337.647 43.4653C336.13 44.5275 333.919 45.633 331.838 45.9358C329.838 46.2242 327.531 45.9214 326.139 44.6814C325.875 45.0082 325.583 45.3302 325.296 45.6234C324.665 46.2627 323.009 47.0893 322.612 47.2912L322.535 47.3297L322.459 47.3489C314.956 49.257 311.931 55.265 308.62 60.4175C306.538 63.657 303.753 67.7039 301.227 69.3141C303.61 69.2035 307.204 69.0786 309.745 68.9584L315.625 75.5143C316.233 75.4278 318.224 75.3221 318.808 75.3269C318.076 74.6059 316.669 72.9429 316.257 72.097C315.243 70.0206 315.247 67.8818 315.788 65.6035ZM327.263 88.5108L324.574 85.0838C324.851 85.1079 325.119 85.1463 325.378 85.204L326.191 85.1367L327.129 86.0019C334.273 87.4197 341.906 88.6165 346.48 89.0683C346.466 90.2507 347.557 91.4811 347.595 92.5145C347.638 93.6248 350.533 99.4886 350.658 100.536C347.835 102.714 337.384 102.161 332.613 102.44C328.976 102.651 323.689 100.421 320.406 98.037C320.746 96.7153 321.712 94.3938 321.961 93.1009C322.205 91.8176 322.612 90.3276 322.693 89.0251L327.263 88.5108ZM292.771 66.983C289.762 65.7718 286.115 63.8636 282.766 61.446C282.474 61.8738 281.622 62.5707 281.182 62.9648C280.751 63.3493 279.684 64.1232 279.124 64.4452C280.105 65.4353 281.885 66.8772 282.947 67.8241C283.737 68.5306 284.661 69.3718 285.512 70.0831C286.484 70.035 287.958 69.9197 288.929 69.8716C288.953 69.862 288.962 69.8572 288.962 69.8572L289.072 69.8091C291.733 69.6746 296.159 69.3814 298.652 69.2612C297.341 68.968 294.169 67.5453 292.771 66.983Z" fill="url(#paint0_linear_9654_177689)"/>
<path fill-rule="evenodd" clip-rule="evenodd" d="M330.273 14.2908C332.833 14.8388 336.001 16.2759 338.369 18.5541C340.111 20.2315 341.432 22.3608 341.791 24.9274C341.987 24.9899 342.164 25.086 342.341 25.2013C342.676 25.4272 342.92 25.7733 343.073 26.1963C343.207 26.5856 343.265 27.0422 343.231 27.5324C343.15 28.686 342.556 30.0702 341.307 31.1516C341.217 31.6996 341.14 32.2139 341.073 32.7089C341.059 32.8002 341.049 32.8916 341.035 32.9781C343.686 29.7578 345.021 26.4174 345.284 23.2788C345.581 19.7701 344.533 16.5066 342.485 13.9592C341.489 12.7192 340.279 11.6377 338.944 10.7485C336.489 9.12398 333.594 8.14348 330.727 8.05216C327.899 7.96084 325.105 8.72986 322.813 10.5899C321.894 11.3349 321.052 12.2626 320.315 13.3824C319.276 14.9589 318.63 16.795 318.602 18.7512C318.578 20.3036 318.941 21.9426 319.808 23.6056C321.602 22.8078 326.918 20.3709 329.421 14.7282L329.675 14.1611L330.273 14.2908Z" fill="#666666"/>
<path fill-rule="evenodd" clip-rule="evenodd" d="M330.287 14.2427C331.65 14.5359 333.186 15.0791 334.679 15.8625C336 16.5594 337.292 17.4438 338.407 18.5156C339.321 19.3952 340.12 20.4045 340.728 21.5292C341.273 22.5482 341.666 23.6681 341.838 24.8841C341.924 24.9129 342.01 24.9514 342.096 24.9946C342.187 25.0427 342.278 25.0956 342.369 25.1581C342.541 25.2734 342.69 25.4176 342.814 25.5906C342.939 25.7637 343.044 25.9607 343.12 26.1818C343.192 26.3789 343.24 26.6 343.264 26.8259C343.293 27.0518 343.297 27.2921 343.278 27.5372C343.235 28.1524 343.049 28.8349 342.695 29.503C342.383 30.0894 341.938 30.6662 341.355 31.1805C341.312 31.4448 341.269 31.7044 341.23 31.9591L341.111 32.805C342.34 31.291 343.278 29.7481 343.948 28.2101C344.68 26.5423 345.097 24.8793 345.231 23.2739C345.374 21.5485 345.197 19.8806 344.728 18.333C344.25 16.7421 343.475 15.2761 342.441 13.9928C341.948 13.3824 341.403 12.8056 340.819 12.2769C340.225 11.7386 339.584 11.2436 338.909 10.7966C337.675 9.97948 336.33 9.32582 334.938 8.86921C333.564 8.41741 332.138 8.15306 330.722 8.1098C329.272 8.06174 327.832 8.24438 326.463 8.68176C325.171 9.09511 323.946 9.73916 322.841 10.638C322.377 11.0129 321.932 11.4358 321.51 11.9068C321.099 12.3635 320.711 12.8681 320.352 13.4161C319.821 14.2187 319.395 15.0935 319.099 16.0163C318.821 16.8911 318.659 17.8091 318.644 18.7559C318.63 19.549 318.721 20.3613 318.926 21.1928C319.118 21.9666 319.415 22.7549 319.821 23.5431C320.731 23.1394 322.477 22.3319 324.31 20.9477C326.171 19.5394 328.119 17.5255 329.368 14.7138L329.636 14.1082L330.287 14.2427ZM334.631 15.9538C333.143 15.1704 331.617 14.6321 330.263 14.3437L329.698 14.2235L329.463 14.7522C328.21 17.5832 326.248 19.6115 324.372 21.0294C322.501 22.4473 320.721 23.2595 319.821 23.6585L319.778 23.6777L319.754 23.6344C319.328 22.8221 319.027 22.0147 318.831 21.2168C318.625 20.3805 318.534 19.5538 318.544 18.7559C318.558 17.7995 318.721 16.8718 319.003 15.9875C319.3 15.055 319.73 14.1707 320.266 13.3584C320.63 12.8056 321.022 12.2962 321.434 11.8347C321.86 11.3589 322.305 10.936 322.774 10.5563C323.889 9.64784 325.128 8.99898 326.43 8.58083C327.808 8.13864 329.262 7.956 330.727 8.00406C332.153 8.05212 333.584 8.31647 334.971 8.76828C336.373 9.22969 337.727 9.88816 338.967 10.7101C339.642 11.157 340.288 11.6569 340.886 12.2C341.474 12.7335 342.025 13.3151 342.522 13.9303C343.565 15.2233 344.345 16.7036 344.829 18.3041C345.298 19.8662 345.48 21.5436 345.331 23.2836C345.197 24.8985 344.776 26.5711 344.039 28.2534C343.341 29.8443 342.36 31.4448 341.068 33.0117L340.953 33.1511L341.125 31.9399C341.163 31.6851 341.206 31.416 341.249 31.142L341.254 31.1228L341.269 31.1084C341.852 30.6037 342.288 30.0317 342.599 29.4502C342.943 28.7965 343.13 28.1284 343.173 27.5228C343.192 27.2825 343.183 27.0518 343.159 26.8307C343.135 26.6096 343.087 26.3981 343.02 26.2058C342.948 25.9944 342.848 25.8069 342.728 25.6435C342.608 25.4801 342.47 25.3455 342.312 25.235C342.226 25.1773 342.139 25.1244 342.049 25.0812C341.962 25.0379 341.867 24.9994 341.776 24.9658L341.742 24.9562L341.737 24.9225C341.565 23.7065 341.182 22.5866 340.632 21.5677C340.034 20.4478 339.24 19.4529 338.33 18.5781C337.23 17.5255 335.947 16.6459 334.631 15.9538Z" fill="#666666"/>
<path fill-rule="evenodd" clip-rule="evenodd" d="M336.104 7.60031C337.392 8.08095 338.631 8.71059 339.779 9.4748C341.167 10.3976 342.43 11.5079 343.488 12.772C344.909 12.9642 345.919 12.3298 346.517 11.2916C346.866 10.686 347.086 9.94583 347.177 9.14316C347.268 8.32127 347.225 7.43689 347.038 6.57655C346.526 4.21181 344.957 2.01048 342.287 1.62117C341 1.43372 339.775 1.54907 338.746 2.0201C337.827 2.44306 337.047 3.16402 336.506 4.22623C336.157 4.91354 335.946 5.64411 335.908 6.3122C335.879 6.79284 335.942 7.23983 336.104 7.60031Z" fill="#666666"/>
<path fill-rule="evenodd" clip-rule="evenodd" d="M336.143 7.56186C336.784 7.80218 337.411 8.07614 338.019 8.38856C338.636 8.70097 339.234 9.05184 339.809 9.43154C340.512 9.89776 341.177 10.412 341.804 10.9648C342.417 11.5079 342.991 12.0991 343.512 12.7191C344.173 12.8056 344.742 12.7095 345.221 12.474C345.747 12.2192 346.163 11.7915 346.47 11.2628C346.642 10.9648 346.781 10.6379 346.886 10.2823C346.996 9.92179 347.077 9.53248 347.12 9.13355C347.168 8.725 347.178 8.29723 347.154 7.86947C347.13 7.4417 347.073 7.00912 346.982 6.58135C346.714 5.33169 346.144 4.12529 345.269 3.21688C344.503 2.41902 343.508 1.84706 342.273 1.66923C341.622 1.5731 340.986 1.55868 340.388 1.62597C339.809 1.69326 339.263 1.83745 338.761 2.06335C338.297 2.27483 337.866 2.56802 337.488 2.94292C337.124 3.29859 336.808 3.73597 336.545 4.25026C336.373 4.59151 336.234 4.94238 336.134 5.28844C336.033 5.6345 335.971 5.98056 335.952 6.3122C335.937 6.55252 335.947 6.78803 335.98 7.00432C336.019 7.20618 336.067 7.39363 336.143 7.56186ZM337.971 8.47988C337.359 8.16746 336.727 7.88869 336.086 7.64837L336.067 7.63876L336.057 7.61953C335.976 7.43689 335.918 7.23502 335.885 7.01873C335.851 6.79764 335.842 6.55732 335.856 6.30739C335.875 5.97094 335.937 5.61527 336.038 5.2644C336.138 4.90873 336.282 4.55306 336.454 4.207C336.722 3.6831 337.043 3.24092 337.416 2.87563C337.804 2.49593 338.239 2.19793 338.718 1.97684C339.23 1.74132 339.785 1.59713 340.373 1.52984C340.981 1.46255 341.627 1.47697 342.283 1.5731C343.541 1.75574 344.56 2.34212 345.34 3.1544C346.226 4.08203 346.805 5.30286 347.077 6.57174C347.168 7.00432 347.23 7.4417 347.254 7.87427C347.278 8.31165 347.264 8.73942 347.221 9.15758C347.173 9.56612 347.096 9.96024 346.982 10.3255C346.872 10.686 346.728 11.0225 346.556 11.3253C346.24 11.8732 345.809 12.3106 345.264 12.5797C344.761 12.8249 344.168 12.9258 343.479 12.8297L343.46 12.8248L343.445 12.8104C342.924 12.1856 342.35 11.5944 341.737 11.0513C341.115 10.4986 340.45 9.98427 339.751 9.52286C339.177 9.13835 338.584 8.79229 337.971 8.47988Z" fill="#666666"/>
<path fill-rule="evenodd" clip-rule="evenodd" d="M320.256 24.6147C320.256 26.6142 320.519 30.7717 322.065 34.4919C323.022 36.7893 324.467 38.9137 326.654 40.2307C327.989 41.0334 329.142 41.3842 330.276 41.3314C331.425 41.2785 332.602 40.8123 333.965 39.9808C335.195 39.231 336.415 38.2312 337.54 37.1354C338.779 35.9242 339.885 34.5976 340.741 33.3431L341.248 33.2326L342 34.2083C341.095 35.5397 339.918 36.9479 338.602 38.2312C337.406 39.3992 336.09 40.471 334.75 41.2881C333.166 42.2542 331.764 42.7973 330.338 42.8646C328.893 42.9319 327.472 42.5089 325.869 41.5476C323.361 40.0384 321.72 37.6497 320.653 35.0831C319.002 31.1178 318.725 26.7296 318.725 24.6196H320.256V24.6147Z" fill="#333333"/>
<path fill-rule="evenodd" clip-rule="evenodd" d="M340.791 33.2707C343.6 29.9639 345.012 26.5129 345.284 23.2782C345.581 19.7696 344.533 16.506 342.485 13.9586C341.49 12.7186 340.279 11.6372 338.944 10.748C336.489 9.12342 333.594 8.14291 330.728 8.05159C327.9 7.96027 325.105 8.72929 322.813 10.5894C321.894 11.3344 321.052 12.262 320.315 13.3819C319.277 14.9584 318.631 16.7944 318.602 18.7506C318.578 20.3031 318.942 21.9421 319.808 23.6051C321.603 22.8072 326.919 20.3704 329.422 14.7277L329.675 14.1605L330.278 14.2903C332.838 14.8382 336.006 16.2753 338.375 18.5535C340.255 20.3607 341.638 22.6967 341.858 25.542L340.485 25.6862C340.475 25.5468 340.308 25.3786 340.289 25.244C340.006 23.0043 338.848 21.1346 337.312 19.659C335.341 17.7653 332.757 16.5108 330.541 15.9341C327.665 21.7931 322.115 24.2635 320.334 25.0518C320.133 25.1383 320.177 24.9797 320.09 25.0902L319.406 25.965L318.837 25.0085C317.569 22.8793 317.042 20.7501 317.076 18.7314C317.109 16.4676 317.856 14.348 319.042 12.5408C319.866 11.2863 320.813 10.2433 321.856 9.39738C324.45 7.29218 327.603 6.41742 330.78 6.52316C333.924 6.6289 337.102 7.69592 339.781 9.47428C341.255 10.45 342.581 11.642 343.677 13.0022C345.969 15.8524 347.141 19.4956 346.811 23.408C346.514 26.9455 344.988 30.6993 341.954 34.2704L340.791 33.2707Z" fill="#333333"/>
<path fill-rule="evenodd" clip-rule="evenodd" d="M340.55 25.0379C341.282 24.7014 341.842 24.8697 342.34 25.2061C342.675 25.432 342.919 25.7781 343.072 26.201C343.206 26.5903 343.264 27.047 343.23 27.5372C343.13 28.9551 342.263 30.7094 340.359 31.8437C339.823 32.1609 339.244 31.3294 339.89 30.9353C341.436 29.9981 342.139 28.5946 342.216 27.4651C342.239 27.1142 342.206 26.797 342.115 26.5375C342.038 26.3164 341.924 26.1482 341.78 26.052C341.584 25.9175 341.297 25.9126 340.928 26.0761C340.579 26.2299 340.019 25.2782 340.55 25.0379Z" fill="#333333"/>
<path fill-rule="evenodd" clip-rule="evenodd" d="M340.327 26.6431C340.648 26.5325 340.925 26.5758 341.141 26.7248C341.313 26.8402 341.442 27.018 341.519 27.2391C341.59 27.4409 341.619 27.6765 341.6 27.9312C341.547 28.6522 341.112 29.5461 340.16 30.1325C339.801 30.3536 339.528 29.9258 339.916 29.6855C340.691 29.1953 341.05 28.4791 341.088 27.8976C341.102 27.7149 341.083 27.5467 341.035 27.4121C340.997 27.2968 340.935 27.2054 340.858 27.1526C340.777 27.0997 340.672 27.0853 340.542 27.1189C340.049 27.2343 339.853 26.8017 340.327 26.6431Z" fill="#333333"/>
<path fill-rule="evenodd" clip-rule="evenodd" d="M341.312 31.1127C341.216 31.675 341.14 32.2086 341.068 32.7132C340.896 33.9437 340.738 35.0347 340.374 36.0633L339.173 35.6355C339.498 34.7175 339.642 33.6889 339.804 32.5306C339.876 32.0067 339.958 31.4588 340.053 30.8916L341.312 31.1127Z" fill="#333333"/>
<path fill-rule="evenodd" clip-rule="evenodd" d="M334.922 8.63352C334.501 7.96544 334.334 7.11951 334.386 6.22072C334.439 5.34115 334.702 4.3991 335.142 3.52914C335.846 2.1401 336.879 1.18843 338.109 0.626086C339.416 0.0252875 340.932 -0.128517 342.497 0.10219C345.909 0.597247 347.9 3.33208 348.531 6.25436C348.752 7.27812 348.804 8.33072 348.694 9.31603C348.579 10.3254 348.292 11.2722 347.838 12.0653C346.885 13.7187 345.239 14.704 342.933 14.2426L343.225 12.7334C344.78 13.0458 345.88 12.3969 346.517 11.2963C346.866 10.6907 347.086 9.95047 347.177 9.14781C347.268 8.32592 347.225 7.44154 347.038 6.5812C346.526 4.21646 344.957 2.01513 342.287 1.62581C340.999 1.43836 339.774 1.55372 338.746 2.02474C337.827 2.44771 337.047 3.16866 336.506 4.23088C336.157 4.91819 335.946 5.64876 335.908 6.31685C335.875 6.90323 335.97 7.42712 336.214 7.81644L334.922 8.63352Z" fill="#333333"/>
<path fill-rule="evenodd" clip-rule="evenodd" d="M297.284 80.5375L304.552 87.5692L303.672 88.492L296.403 81.4603L297.284 80.5375ZM320.559 88.2661L325.789 88.0066L323.492 85.4015L324.444 84.5556L328.497 89.1553L320.621 89.5446L320.559 88.2661ZM317.812 78.961L309.543 69.5789L287.096 70.6988L287.436 71.0256L286.555 71.9484L284.091 69.5693C292.757 69.1367 301.423 68.6993 310.089 68.2764L318.76 78.115L317.812 78.961Z" fill="#333333"/>
<path fill-rule="evenodd" clip-rule="evenodd" d="M316.033 79.2686C314.276 77.9853 312.386 76.7164 310.721 75.6013C308.348 74.0104 306.4 72.7079 305.869 72.035C305.165 71.141 305.395 70.3527 305.888 69.7423L289.13 70.5402C288.479 70.867 285.02 72.8568 289.427 76.1733C291.906 78.0381 294.82 79.4128 297.385 80.6192C300.763 82.2101 303.577 83.5318 304.338 85.488C305.137 87.5404 304.677 89.2514 304.175 90.2992L319.162 89.6119C319.698 89.0976 321.421 87.2808 321.354 85.2381L322.627 85.1997C322.727 88.2229 319.846 90.7174 319.837 90.7222L319.669 90.8664C313.611 91.1307 307.549 91.4191 301.49 91.6979L302.529 90.5588C302.534 90.554 304.208 88.6699 303.156 85.9543C302.581 84.4739 299.978 83.2483 296.854 81.7775C294.231 80.5423 291.25 79.1388 288.671 77.197C282.101 72.2512 288.7 69.3338 288.714 69.3242L288.824 69.2761C296.26 68.906 302.658 68.6272 310.099 68.2764L308.218 69.5837C308.214 69.5885 306.266 70.4681 306.874 71.2467C307.276 71.761 309.147 73.0107 311.434 74.5439C313.138 75.683 315.061 76.9759 316.789 78.2352L316.033 79.2686Z" fill="#333333"/>
<path fill-rule="evenodd" clip-rule="evenodd" d="M327.445 41.1535L327.311 44.7198L325.789 44.6621L325.923 41.1006L327.445 41.1535Z" fill="#333333"/>
<path fill-rule="evenodd" clip-rule="evenodd" d="M337.952 38.4331L338.363 43.0088C339.138 43.5135 340.359 44.4651 341.411 45.287C342 45.7436 342.536 46.1618 342.876 46.4165C342.919 46.4261 342.971 46.4117 343.144 46.4405C346.23 46.9789 360.313 49.4493 363.332 85.8625C363.337 85.9058 363.332 86.0115 363.313 86.1221C363.265 86.3816 362.988 87.2083 361.753 87.9533C360.7 88.5877 358.844 89.2366 355.575 89.5058C350.489 89.9239 341.808 89.4385 327.008 86.5018L326.146 86.3287L326.434 85.4972C326.769 84.5215 326.941 83.8198 327.022 83.2238C327.104 82.6278 327.104 82.1231 327.089 81.556L327.07 80.6716L327.946 80.7774C336.602 81.8059 344.005 80.364 348.694 79.4508C349.747 79.2441 350.666 79.0663 351.446 78.9461C350.776 76.5574 348.838 70.5686 343.325 62.1046C342.469 60.7876 343.789 60.0138 344.589 61.2442C350.915 70.9531 352.652 77.5234 353.116 79.2585L353.384 80.2631L352.494 80.3544C351.642 80.4409 350.441 80.6764 348.986 80.96C344.364 81.8636 337.143 83.2719 328.625 82.4019C328.616 82.7336 328.592 83.07 328.539 83.4401C328.467 83.94 328.352 84.4975 328.151 85.1656C342.277 87.9196 350.584 88.3811 355.465 87.9773C358.451 87.7322 360.088 87.1747 360.978 86.6412C361.581 86.2759 361.758 86.0067 361.806 85.8817C358.868 50.7567 345.771 48.4592 342.895 47.9594C342.531 47.8969 342.287 47.8536 342.096 47.7431L342.029 47.6998C341.631 47.4114 341.081 46.9789 340.473 46.5078C339.282 45.5754 337.865 44.4747 337.272 44.1431L336.918 43.946L336.435 38.5773L337.952 38.4331Z" fill="#333333"/>
<path fill-rule="evenodd" clip-rule="evenodd" d="M320.08 79.2445C318.515 79.307 315.931 79.5618 313.787 80.1818C312.749 80.4798 311.835 80.8643 311.241 81.3353C310.787 81.7006 310.543 82.1188 310.638 82.5994C310.696 82.8734 310.844 83.181 311.107 83.5366C313.352 86.2282 316.811 85.5265 320.185 84.8392C322.793 84.3105 325.353 83.7866 327.554 84.6517L326.999 86.084C325.209 85.3823 322.865 85.8581 320.482 86.3436C316.663 87.1222 312.749 87.9153 309.921 84.5027L309.897 84.4739C309.485 83.926 309.241 83.4021 309.141 82.9118C308.906 81.7727 309.38 80.8643 310.289 80.1385C311.055 79.5281 312.155 79.0571 313.366 78.7062C315.672 78.0381 318.486 77.769 320.142 77.7113C321.735 77.6584 321.692 79.1821 320.08 79.2445Z" fill="#333333"/>
<path fill-rule="evenodd" clip-rule="evenodd" d="M349.657 71.0495C348.963 72.0444 348.369 73.3854 347.872 74.9523C347.317 76.7066 346.896 78.7205 346.589 80.8497L345.077 80.6334C345.398 78.4177 345.838 76.3125 346.412 74.4909C346.953 72.7846 347.613 71.2994 348.403 70.1699L349.657 71.0495ZM323.381 88.8331C323.319 90.3279 323.118 91.8035 322.84 93.279C322.592 94.5719 322.075 96.3167 321.735 97.6384C328.099 103.728 347.862 102.204 350.102 100.479C349.815 98.0566 345.761 90.9383 345.809 88.5015L347.331 88.6024C347.283 91.1113 351.346 98.2248 351.666 100.715L351.719 101.137C341.029 105.237 324.085 103.358 319.998 98.2392L320.127 97.749C320.505 96.2974 321.065 94.4229 321.338 92.9906C321.611 91.5776 321.802 90.1693 321.855 88.7706L323.381 88.8331Z" fill="#333333"/>
<path fill-rule="evenodd" clip-rule="evenodd" d="M278.946 64.6854C278.037 64.0318 276.362 63.7914 274.534 63.5319C271.926 63.1618 269.026 62.7485 266.983 60.9989C265.882 60.0617 264.562 58.168 264.141 55.9378C263.83 54.2988 263.992 52.4676 265.055 50.6796L265.079 50.6412C266.552 48.4735 268.677 49.949 271.194 51.6938C272.634 52.6935 274.233 53.799 275.764 54.1883L275.773 54.1066C275.836 53.6259 275.864 52.8473 275.817 51.588L275.793 51.242C275.735 50.5643 275.683 49.8866 276.228 49.2233C276.386 49.0358 276.563 48.8916 276.769 48.8003C277.109 48.6465 277.472 48.6369 277.845 48.7619C278.128 48.8532 278.42 49.0262 278.712 49.2665C279.645 50.0404 280.717 51.6697 281.578 53.6019C281.836 54.1787 282.061 54.7122 282.238 55.2697C282.42 55.8417 282.554 56.4281 282.626 57.0961C282.669 57.4999 282.688 57.894 282.712 58.2833C282.765 59.259 282.822 60.2011 283.181 60.9124L281.817 61.6093C281.315 60.6144 281.252 59.5089 281.185 58.3698C281.166 57.9949 281.142 57.6152 281.104 57.2548C281.047 56.702 280.937 56.2118 280.784 55.7407C280.626 55.2457 280.42 54.7602 280.185 54.2315C279.415 52.506 278.501 51.0834 277.745 50.4585C277.611 50.348 277.487 50.2663 277.386 50.2326C277.262 50.4249 277.29 50.7757 277.319 51.1266C277.329 51.242 277.338 51.3477 277.343 51.54C277.396 52.8858 277.357 53.7509 277.286 54.3036C277.228 54.765 277.142 55.0534 277.061 55.2313C276.845 55.6975 276.472 55.8176 276.266 55.8273C276.214 55.8321 276.185 55.8273 276.132 55.8224C274.065 55.5485 272.089 54.1787 270.328 52.9578C268.505 51.6938 266.959 50.6219 266.347 51.5015C265.524 52.9098 265.399 54.3565 265.643 55.659C265.993 57.5095 267.074 59.062 267.969 59.831C269.682 61.2921 272.347 61.6718 274.749 62.0179C276.778 62.3063 278.635 62.5706 279.841 63.4406L278.946 64.6854Z" fill="#333333"/>
<path fill-rule="evenodd" clip-rule="evenodd" d="M325.569 25.9411C326.272 26.0661 327.148 25.9748 327.722 25.8546C326.454 25.7633 325.866 23.9224 324.349 23.8359C323.621 23.7927 322.497 24.1003 321.812 25.2971C322.013 25.4268 322.391 25.3692 322.463 25.3643C322.42 27.3734 324.875 27.6522 325.569 25.9411Z" fill="#333333"/>
<path fill-rule="evenodd" clip-rule="evenodd" d="M335.019 25.6388C335.732 25.6244 336.574 25.3552 337.11 25.1293C335.847 25.2879 334.909 23.6057 333.406 23.822C332.684 23.9277 331.645 24.4516 331.21 25.7589C331.43 25.8455 331.794 25.7157 331.861 25.6965C332.22 27.6671 334.679 27.4556 335.019 25.6388Z" fill="#333333"/>
<path fill-rule="evenodd" clip-rule="evenodd" d="M329.229 34.2132C330.038 34.1747 330.741 35.0063 330.798 36.0781C330.856 37.1451 330.243 38.0439 329.435 38.0871C328.626 38.1256 327.923 37.2941 327.865 36.2223C327.808 35.1504 328.415 34.2516 329.229 34.2132Z" fill="#333333"/>
<path fill-rule="evenodd" clip-rule="evenodd" d="M332.305 33.9727C331.099 35.3425 328.132 35.4242 326.649 34.8378C326.601 35.6933 327.668 36.7123 329.252 36.5152C332.377 36.1211 332.257 34.4293 332.305 33.9727Z" fill="#333333"/>
<path fill-rule="evenodd" clip-rule="evenodd" d="M329.335 31.6512C328.344 31.7137 327.014 30.7428 326.952 29.8584C326.818 27.9551 329.201 27.8061 329.234 25.9893C329.818 27.9887 325.937 29.4739 329.335 31.6512Z" fill="#333333"/>
<path fill-rule="evenodd" clip-rule="evenodd" d="M338.099 44.0755L337.903 44.2245C336.377 45.354 334.118 46.3633 331.931 46.6805C329.931 46.9689 327.964 46.6949 326.572 45.4549C326.309 45.7817 326.017 46.1038 325.73 46.397C325.098 47.0362 324.438 47.5649 324.036 47.762L323.959 47.8004L323.882 47.8196C316.379 49.7278 312.566 55.6685 309.254 60.8209C306.866 64.5363 304.727 67.8671 301.593 69.2369L301.473 69.2898L301.349 69.2994C298.66 69.5012 295.664 68.9245 292.439 67.6268C289.424 66.4155 286.209 64.5747 282.854 62.1571C282.562 62.5897 282.184 63.0078 281.739 63.4067C281.309 63.7913 280.806 64.1517 280.251 64.4738C281.227 65.4639 282.242 66.4204 283.304 67.3672C284.61 68.5352 285.998 69.6935 287.482 70.8951L286.524 72.0919C285.046 70.8951 283.644 69.7223 282.29 68.5159C280.95 67.324 279.667 66.0983 278.423 64.791L277.672 64.0027L278.672 63.5606C279.476 63.2049 280.175 62.7531 280.73 62.2628C281.285 61.7678 281.691 61.2391 281.907 60.7344L282.29 59.8452L283.065 60.422C286.563 63.0126 289.903 64.964 293.008 66.2089C295.961 67.396 298.688 67.9392 301.11 67.7806C303.761 66.5549 305.751 63.45 307.977 59.9942C311.427 54.6255 315.403 48.4397 323.428 46.3537C323.701 46.1951 324.165 45.801 324.653 45.3155C325.107 44.8589 325.557 44.3302 325.859 43.8448L326.443 42.9027L327.175 43.8688C328.17 45.1473 329.912 45.4309 331.725 45.1713C333.659 44.8926 335.654 44.0034 336.999 43.0085L337.19 42.8643L338.099 44.0755Z" fill="#333333"/>
<path fill-rule="evenodd" clip-rule="evenodd" d="M321.654 56.6446C321.075 57.38 320.285 58.447 319.491 59.7255C318.39 61.4943 317.295 63.662 316.768 65.8729C316.304 67.8243 316.381 69.8238 317.223 71.5541C317.955 73.0585 319.28 74.3802 321.348 75.3174C323.132 75.9951 324.262 77.264 325.472 78.6242C326.305 79.5615 327.176 80.542 328.296 81.3302L327.425 82.5847C326.142 81.6859 325.214 80.6381 324.329 79.6432C323.243 78.4176 322.223 77.2737 320.783 76.7353C319.998 76.4422 319.166 76.2451 318.304 76.1634C317.486 76.0865 316.629 76.1105 315.744 76.2595L315.5 74.7455C316.199 74.6301 316.883 74.5773 317.558 74.5869C316.826 73.8659 316.261 73.0681 315.849 72.2173C314.84 70.1458 314.744 67.7907 315.285 65.5124C315.854 63.114 317.027 60.7974 318.199 58.9085C319.032 57.5723 319.864 56.4428 320.477 55.6641C321.462 54.4193 322.573 55.4719 321.654 56.6446Z" fill="#333333"/>
<path fill-rule="evenodd" clip-rule="evenodd" d="M361.457 234.961C360.06 235.923 357.566 237.533 355.796 238.6C352.241 240.743 348.537 242.983 346.604 245.16C344.886 247.097 344.465 248.982 346.407 250.721L346.484 250.789L346.575 250.837C347.642 251.375 352.202 250.524 357.241 249.111C362.122 247.742 367.548 245.872 370.659 244.291L370.735 244.257C371.463 243.92 373.243 243.123 370.606 237.989C370.506 237.802 369.922 237.004 369.372 236.249C368.922 235.639 368.496 235.053 368.438 234.957L367.094 235.745C367.18 235.889 367.635 236.519 368.118 237.172C368.635 237.879 369.185 238.629 369.218 238.701C371.113 242.392 370.51 242.642 370.08 242.839L369.974 242.887C366.955 244.425 361.629 246.261 356.825 247.607C352.255 248.885 348.245 249.746 347.35 249.472C346.369 248.515 346.699 247.391 347.762 246.194C349.532 244.199 353.14 242.022 356.595 239.936C358.356 238.874 360.844 237.268 362.333 236.245L361.457 234.961Z" fill="#333333"/>
<path fill-rule="evenodd" clip-rule="evenodd" d="M310.07 243.002C309.998 243.05 309.926 243.103 309.855 243.156C308.567 244.103 308.007 245.132 308.768 246.276C309.587 246.732 313.687 246.732 318.42 246.444C323.401 246.136 328.991 245.463 332.259 244.593L332.374 244.569C332.675 244.502 333.058 244.43 332.977 243.262C332.934 242.647 332.766 241.724 332.393 240.34C332.374 240.263 331.991 239.412 331.632 238.614C331.464 238.239 331.297 237.874 331.173 237.581C330.225 238.028 329.287 238.158 328.416 238.09C327.148 237.994 326.024 237.47 325.22 236.917C323.574 237.595 321.703 238.239 319.793 238.898C316.104 240.162 312.257 241.484 310.07 243.002Z" fill="#FEFEFE"/>
<path fill-rule="evenodd" clip-rule="evenodd" d="M356.599 239.941C354.646 241.119 352.646 242.325 350.957 243.512C349.655 244.43 348.536 245.329 347.76 246.199C346.698 247.396 346.368 248.516 347.349 249.477C348.244 249.751 352.254 248.891 356.824 247.612C360.685 246.531 364.887 245.132 367.954 243.825C368.7 243.508 369.38 243.195 369.973 242.892L370.079 242.844C370.509 242.642 371.112 242.397 369.217 238.706C369.179 238.634 368.633 237.884 368.117 237.178C367.92 236.913 367.734 236.654 367.571 236.428C365.973 236.937 363.676 237.173 362.078 236.428C360.57 237.451 358.259 238.937 356.599 239.941Z" fill="#FEFEFE"/>
<path fill-rule="evenodd" clip-rule="evenodd" d="M289.01 70.6019C288.177 71.0585 285.449 72.8898 289.01 75.8457C289.139 75.9514 289.278 76.062 289.426 76.1725C291.862 78.0086 294.723 79.364 297.259 80.5608L297.283 80.5367L297.355 80.604C297.365 80.6088 297.374 80.6136 297.389 80.6184C300.767 82.2093 303.581 83.5311 304.337 85.4873C305.136 87.5396 304.676 89.2507 304.174 90.2985L319.161 89.6112C319.611 89.1786 320.903 87.8232 321.262 86.189C321.003 86.2419 320.745 86.29 320.491 86.3428C316.673 87.1215 312.759 87.9145 309.931 84.502L309.907 84.4732C309.495 83.9252 309.251 83.4013 309.151 82.9111C308.916 81.772 309.39 80.8636 310.299 80.1378C311.065 79.5226 312.165 79.0564 313.376 78.7055C313.826 78.5757 314.295 78.4604 314.773 78.3594C313.4 77.3934 311.998 76.4513 310.725 75.6006C308.351 74.0097 306.404 72.7071 305.873 72.0342C305.179 71.1547 305.394 70.3712 305.873 69.7656L289.01 70.6019Z" fill="#FEFEFE"/>
<path fill-rule="evenodd" clip-rule="evenodd" d="M279.424 63.1764C279.912 62.8977 280.352 62.5852 280.721 62.2584C281.099 61.922 281.405 61.5711 281.635 61.2202C281.29 60.3311 281.233 59.365 281.18 58.37C281.161 57.9951 281.137 57.6154 281.099 57.255C281.046 56.7407 280.946 56.2793 280.807 55.8323C280.797 55.7986 280.788 55.7698 280.778 55.7361C280.62 55.2411 280.414 54.7556 280.18 54.2269C279.41 52.5014 278.496 51.0788 277.74 50.4539C277.606 50.3434 277.481 50.2617 277.381 50.228C277.256 50.4203 277.285 50.7711 277.314 51.122C277.323 51.2374 277.333 51.3431 277.338 51.5354C277.39 52.8812 277.352 53.7463 277.28 54.299C277.223 54.7605 277.137 55.0488 277.055 55.2267C276.84 55.6929 276.467 55.813 276.261 55.8227C276.208 55.8275 276.18 55.8227 276.127 55.8179C274.06 55.5439 272.083 54.1741 270.322 52.9533C268.499 51.6892 266.954 50.6173 266.341 51.4969C265.518 52.9052 265.394 54.3519 265.638 55.6544C265.647 55.7121 265.662 55.7746 265.676 55.8323C266.059 57.6058 267.097 59.0814 267.968 59.8264C269.681 61.2875 272.347 61.6672 274.749 62.0133C276.558 62.2728 278.228 62.5083 279.424 63.1764Z" fill="#FEFEFE"/>
<path fill-rule="evenodd" clip-rule="evenodd" d="M322.065 34.4921C323.022 36.7896 324.467 38.914 326.654 40.2309C327.989 41.0336 329.142 41.3845 330.276 41.3316C331.425 41.2787 332.602 40.8125 333.966 39.981C335.195 39.2312 336.416 38.2315 337.54 37.1356C338.167 36.5204 338.765 35.8763 339.311 35.2227C339.545 34.4152 339.67 33.526 339.808 32.5407C339.837 32.3196 339.871 32.0985 339.904 31.8726C339.583 31.7188 339.425 31.219 339.885 30.9402C341.43 30.0029 342.134 28.5995 342.21 27.47C342.234 27.1191 342.201 26.8019 342.11 26.5423C342.033 26.3212 341.919 26.153 341.775 26.0569C341.579 25.9223 341.292 25.9175 340.923 26.0809C340.679 26.1915 340.32 25.7253 340.335 25.3696C340.311 25.3263 340.296 25.2879 340.292 25.2494C340.009 23.0096 338.851 21.14 337.315 19.6644C335.344 17.7707 332.76 16.5162 330.544 15.9395C327.668 21.7984 322.117 24.2689 320.337 25.0572C320.309 25.0716 320.28 25.0764 320.261 25.0812C320.299 27.2056 320.629 31.0411 322.065 34.4921ZM332.305 33.973C332.267 34.3335 332.334 35.4774 330.798 36.1263C330.831 37.1693 330.228 38.0392 329.429 38.0777C328.654 38.1161 327.979 37.3567 327.869 36.357C327.08 36.0542 326.615 35.4053 326.644 34.8334C327.027 34.9872 327.51 35.0929 328.037 35.1458C328.271 34.6027 328.702 34.2326 329.219 34.2085C329.716 34.1845 330.176 34.4921 330.468 34.9776C331.209 34.7949 331.874 34.4681 332.305 33.973ZM340.54 27.1143C340.048 27.2393 339.851 26.8019 340.325 26.6433C340.646 26.5327 340.923 26.576 341.139 26.725C341.311 26.8403 341.44 27.0182 341.517 27.2393C341.588 27.4411 341.617 27.6767 341.598 27.9314C341.545 28.6523 341.11 29.5463 340.158 30.1327C339.799 30.3538 339.526 29.926 339.914 29.6857C340.689 29.1955 341.048 28.4793 341.086 27.8977C341.1 27.7151 341.081 27.5469 341.033 27.4123C340.995 27.2969 340.933 27.2056 340.856 27.1528C340.78 27.0951 340.674 27.0807 340.54 27.1143ZM329.233 25.9848C329.817 27.9843 325.936 29.4742 329.333 31.6467C328.343 31.7092 327.013 30.7383 326.95 29.8539C326.816 27.9554 329.2 27.8016 329.233 25.9848ZM325.568 25.9415C324.878 27.6526 322.424 27.3738 322.462 25.3648C322.39 25.3696 322.012 25.4273 321.811 25.2975C322.495 24.1055 323.62 23.7979 324.347 23.8363C325.864 23.9229 326.453 25.7637 327.721 25.855C327.147 25.9752 326.271 26.0713 325.568 25.9415ZM337.114 25.1293C336.578 25.36 335.736 25.6243 335.023 25.6387C334.683 27.4507 332.224 27.667 331.865 25.6916C331.798 25.7108 331.434 25.8406 331.214 25.7541C331.65 24.4468 332.688 23.9229 333.41 23.8171C334.913 23.6056 335.851 25.2927 337.114 25.1293Z" fill="#FEFEFE"/>
<path fill-rule="evenodd" clip-rule="evenodd" d="M334.755 41.2886C333.171 42.2547 331.769 42.7978 330.343 42.8651C329.376 42.9083 328.415 42.7353 327.405 42.3268L327.338 44.0667C328.352 45.1721 330.003 45.4076 331.716 45.1625C333.583 44.8934 335.501 44.057 336.841 43.1054L336.564 40.0293C335.97 40.4859 335.363 40.9137 334.755 41.2886Z" fill="#FEFEFE"/>
<path fill-rule="evenodd" clip-rule="evenodd" d="M320.08 79.2441C318.515 79.3066 315.931 79.5613 313.787 80.1814C312.749 80.4794 311.835 80.8639 311.242 81.3349C310.787 81.7002 310.543 82.1183 310.639 82.599C310.696 82.8729 310.845 83.1854 311.108 83.5362C313.352 86.2278 316.812 85.5261 320.185 84.8388C322.487 84.3725 324.755 83.9063 326.77 84.4014C326.894 83.9496 326.971 83.5651 327.018 83.219C327.062 82.9114 327.081 82.6278 327.09 82.3442C325.975 81.5031 325.133 80.5515 324.324 79.643C323.238 78.4222 322.219 77.2735 320.779 76.7352C319.994 76.442 319.161 76.2449 318.3 76.1632C317.884 76.1248 317.453 76.1103 317.017 76.1296L318.501 77.8118C319.118 77.7589 319.678 77.7253 320.147 77.7061C321.736 77.658 321.693 79.1816 320.08 79.2441Z" fill="#FEFEFE"/>
<path fill-rule="evenodd" clip-rule="evenodd" d="M311.427 74.5384C313.045 75.6246 314.872 76.8455 316.528 78.0471C316.672 78.0278 316.815 78.0086 316.954 77.9894L309.542 69.583L308.058 69.6551C307.613 69.881 306.36 70.5972 306.867 71.246C307.269 71.7555 309.14 73.01 311.427 74.5384Z" fill="#FEFEFE"/>
<path fill-rule="evenodd" clip-rule="evenodd" d="M323.82 85.7812C323.418 85.8197 323.002 85.8774 322.581 85.9447C322.481 86.7666 322.184 87.5356 321.815 88.2037L325.778 88.0066L323.82 85.7812Z" fill="#FEFEFE"/>
<path fill-rule="evenodd" clip-rule="evenodd" d="M303.149 85.954C302.814 85.0889 301.785 84.3102 300.364 83.522L303.283 86.3481C303.245 86.2136 303.202 86.0838 303.149 85.954Z" fill="#FEFEFE"/>
<defs>
<filter id="filter0_d_9654_177689" x="41" y="78" width="206" height="156" filterUnits="userSpaceOnUse" color-interpolation-filters="sRGB">
<feFlood flood-opacity="0" result="BackgroundImageFix"/>
<feColorMatrix in="SourceAlpha" type="matrix" values="0 0 0 0 0 0 0 0 0 0 0 0 0 0 0 0 0 0 127 0" result="hardAlpha"/>
<feOffset dy="7"/>
<feGaussianBlur stdDeviation="7.5"/>
<feColorMatrix type="matrix" values="0 0 0 0 0.333333 0 0 0 0 0.333333 0 0 0 0 0.333333 0 0 0 0.1 0"/>
<feBlend mode="normal" in2="BackgroundImageFix" result="effect1_dropShadow_9654_177689"/>
<feBlend mode="normal" in="SourceGraphic" in2="effect1_dropShadow_9654_177689" result="shape"/>
</filter>
<linearGradient id="paint0_linear_9654_177689" x1="301.436" y1="42.9481" x2="345.918" y2="91.7278" gradientUnits="userSpaceOnUse">
<stop stop-color="#FFC671"/>
<stop offset="1" stop-color="#FF6F3D"/>
</linearGradient>
<clipPath id="clip0_9654_177689">
<rect width="288" height="254" rx="4" fill="white"/>
</clipPath>
</defs>
</svg>
