<svg width="449" height="254" viewBox="0 0 449 254" fill="none" xmlns="http://www.w3.org/2000/svg">
<g clip-path="url(#clip0_7868_200065)">
<g clip-path="url(#clip1_7868_200065)">
<rect x="0.199463" width="288" height="254" rx="4" fill="white"/>
<path d="M5.19946 254C2.43804 254 0.199463 251.761 0.199463 249L0.199463 5C0.199463 2.23857 2.43804 0 5.19946 0H57.1995L57.1995 254H5.19946Z" fill="#1E1E1E"/>
<g clip-path="url(#clip2_7868_200065)">
<path d="M14.3281 30.9996C14.3281 36.093 17.2832 40.4947 21.5683 42.5806L15.4403 25.7627C14.7275 27.363 14.3281 29.1341 14.3281 30.9996Z" fill="white"/>
<path d="M35.8471 30.3502C35.8471 28.7599 35.2768 27.6585 34.7877 26.8013C34.1365 25.7413 33.5261 24.8437 33.5261 23.7838C33.5261 22.6009 34.4218 21.4998 35.6833 21.4998C35.7403 21.4998 35.7943 21.5069 35.8498 21.5101C33.5643 19.4127 30.5192 18.1321 27.1747 18.1321C22.6867 18.1321 18.7382 20.4386 16.4412 23.9321C16.7426 23.9412 17.0266 23.9476 17.2679 23.9476C18.6116 23.9476 20.6916 23.7842 20.6916 23.7842C21.3841 23.7434 21.4657 24.7622 20.7739 24.8442C20.7739 24.8442 20.078 24.9262 19.3036 24.9669L23.9818 38.9051L26.7931 30.4594L24.7916 24.9664C24.0999 24.9257 23.4445 24.8437 23.4445 24.8437C22.7522 24.8031 22.8334 23.7429 23.5257 23.7838C23.5257 23.7838 25.6472 23.9471 26.9095 23.9471C28.253 23.9471 30.3332 23.7838 30.3332 23.7838C31.0262 23.7429 31.1076 24.7617 30.4156 24.8437C30.4156 24.8437 29.7182 24.9257 28.9452 24.9664L33.5877 38.7991L34.8691 34.51C35.4245 32.7302 35.8471 31.4518 35.8471 30.3502Z" fill="white"/>
<path d="M27.4001 32.1252L23.5457 43.3441C24.6965 43.683 25.9136 43.8683 27.1747 43.8683C28.6707 43.8683 30.1053 43.6093 31.4407 43.1389C31.4063 43.0838 31.375 43.0253 31.3493 42.9617L27.4001 32.1252Z" fill="white"/>
<path d="M38.4469 24.8259C38.5021 25.2358 38.5334 25.6758 38.5334 26.1491C38.5334 27.4549 38.29 28.9228 37.5566 30.7582L33.6326 42.1225C37.4518 39.8917 40.0206 35.7471 40.0206 30.9999C40.0209 28.7627 39.4503 26.6589 38.4469 24.8259Z" fill="white"/>
<path d="M27.1746 16C18.9175 16 12.1995 22.7288 12.1995 30.9996C12.1995 39.2715 18.9175 46 27.1746 46C35.4315 46 42.1505 39.2715 42.1505 30.9996C42.1503 22.7288 35.4315 16 27.1746 16ZM27.1746 45.3125C19.2962 45.3125 12.8861 38.8917 12.8861 30.9996C12.8861 23.1081 19.2959 16.6878 27.1746 16.6878C35.0528 16.6878 41.4624 23.1081 41.4624 30.9996C41.4624 38.8917 35.0528 45.3125 27.1746 45.3125Z" fill="white"/>
</g>
<rect width="57" height="48" transform="translate(0.199463 60)" fill="#3858E9"/>
<path opacity="0.5" fill-rule="evenodd" clip-rule="evenodd" d="M26.866 97.6569L14.4901 91.8924C13.4359 91.3891 13.4359 90.6114 14.4901 90.1539L18.7988 88.1409L26.8202 91.8924C27.8744 92.3956 29.5704 92.3956 30.5788 91.8924L38.6002 88.1409L42.9088 90.1539C43.963 90.6571 43.963 91.4349 42.9088 91.8924L30.5329 97.6569C29.5704 98.1144 27.8744 98.1144 26.866 97.6569Z" fill="white"/>
<path opacity="0.75" fill-rule="evenodd" clip-rule="evenodd" d="M26.8259 90.5235L14.4877 84.7523C13.4367 84.2485 13.4367 83.4698 14.4877 83.0118L18.6918 81.0422L26.8259 84.8439C27.8769 85.3477 29.5677 85.3477 30.573 84.8439L38.7071 81.0422L42.9112 83.0118C43.9622 83.5156 43.9622 84.2943 42.9112 84.7523L30.573 90.5235C29.522 91.0273 27.8312 91.0273 26.8259 90.5235Z" fill="white"/>
<path fill-rule="evenodd" clip-rule="evenodd" d="M26.8259 83.4642L14.4877 77.7761C13.4367 77.2795 13.4367 76.512 14.4877 76.0606L26.8259 70.3724C27.8769 69.8759 29.5677 69.8759 30.573 70.3724L42.9112 76.0606C43.9622 76.5572 43.9622 77.3246 42.9112 77.7761L30.573 83.4642C29.522 83.9157 27.8312 83.9157 26.8259 83.4642Z" fill="white"/>
<path d="M89.8407 26.5781L86.9345 38H84.1767L82.6298 32C82.5985 31.8854 82.5569 31.7109 82.5048 31.4766C82.4527 31.2422 82.398 30.987 82.3407 30.7109C82.2834 30.4297 82.2313 30.1667 82.1845 29.9219C82.1428 29.6719 82.1142 29.474 82.0985 29.3281C82.0829 29.474 82.0517 29.6693 82.0048 29.9141C81.9631 30.1589 81.9136 30.4193 81.8563 30.6953C81.8043 30.9714 81.7522 31.2292 81.7001 31.4688C81.648 31.7083 81.6063 31.8906 81.5751 32.0156L80.036 38H77.286L74.372 26.5781H76.7548L78.2157 32.8125C78.2574 33 78.3043 33.224 78.3563 33.4844C78.4136 33.7448 78.4683 34.0182 78.5204 34.3047C78.5777 34.5859 78.6272 34.8594 78.6688 35.125C78.7157 35.3854 78.7496 35.612 78.7704 35.8047C78.7964 35.6068 78.8303 35.3776 78.872 35.1172C78.9136 34.8516 78.9579 34.5833 79.0048 34.3125C79.0569 34.0365 79.1089 33.7812 79.161 33.5469C79.2131 33.3125 79.26 33.1224 79.3017 32.9766L80.9657 26.5781H83.2548L84.9188 32.9766C84.9553 33.1172 84.997 33.3073 85.0438 33.5469C85.0959 33.7812 85.148 34.0365 85.2001 34.3125C85.2522 34.5885 85.299 34.8594 85.3407 35.125C85.3876 35.3854 85.4214 35.612 85.4423 35.8047C85.4787 35.5443 85.5282 35.2292 85.5907 34.8594C85.6584 34.4844 85.7287 34.112 85.8017 33.7422C85.8798 33.3724 85.9475 33.0625 86.0048 32.8125L87.4579 26.5781H89.8407ZM93.1535 29.2656V38H90.7707V29.2656H93.1535ZM91.966 25.8438C92.3202 25.8438 92.6249 25.9271 92.8801 26.0938C93.1353 26.2552 93.2629 26.5599 93.2629 27.0078C93.2629 27.4505 93.1353 27.7578 92.8801 27.9297C92.6249 28.0964 92.3202 28.1797 91.966 28.1797C91.6067 28.1797 91.2994 28.0964 91.0442 27.9297C90.7942 27.7578 90.6692 27.4505 90.6692 27.0078C90.6692 26.5599 90.7942 26.2552 91.0442 26.0938C91.2994 25.9271 91.6067 25.8438 91.966 25.8438ZM97.7242 38H95.3413V25.8438H97.7242V38ZM102.295 38H99.912V25.8438H102.295V38ZM106.865 25.8438V31.2812C106.865 31.6094 106.852 31.9375 106.826 32.2656C106.8 32.5938 106.772 32.9219 106.74 33.25H106.772C106.933 33.0208 107.097 32.7943 107.264 32.5703C107.436 32.3464 107.618 32.1302 107.811 31.9219L110.256 29.2656H112.944L109.475 33.0547L113.154 38H110.404L107.889 34.4609L106.865 35.2812V38H104.483V25.8438H106.865ZM122.022 33.6172C122.022 34.3464 121.923 34.9922 121.725 35.5547C121.532 36.1172 121.249 36.5938 120.874 36.9844C120.504 37.3698 120.056 37.6615 119.53 37.8594C119.009 38.0573 118.42 38.1562 117.764 38.1562C117.15 38.1562 116.584 38.0573 116.069 37.8594C115.558 37.6615 115.113 37.3698 114.733 36.9844C114.358 36.5938 114.066 36.1172 113.858 35.5547C113.655 34.9922 113.553 34.3464 113.553 33.6172C113.553 32.6484 113.725 31.8281 114.069 31.1562C114.413 30.4844 114.902 29.974 115.538 29.625C116.173 29.276 116.931 29.1016 117.811 29.1016C118.629 29.1016 119.353 29.276 119.983 29.625C120.618 29.974 121.116 30.4844 121.475 31.1562C121.84 31.8281 122.022 32.6484 122.022 33.6172ZM115.983 33.6172C115.983 34.1901 116.045 34.6719 116.17 35.0625C116.295 35.4531 116.491 35.7474 116.756 35.9453C117.022 36.1432 117.368 36.2422 117.795 36.2422C118.217 36.2422 118.558 36.1432 118.819 35.9453C119.084 35.7474 119.277 35.4531 119.397 35.0625C119.522 34.6719 119.584 34.1901 119.584 33.6172C119.584 33.0391 119.522 32.5599 119.397 32.1797C119.277 31.7943 119.084 31.5052 118.819 31.3125C118.553 31.1198 118.207 31.0234 117.78 31.0234C117.15 31.0234 116.691 31.2396 116.405 31.6719C116.124 32.1042 115.983 32.7526 115.983 33.6172ZM133.929 29.1016C134.918 29.1016 135.666 29.3568 136.171 29.8672C136.681 30.3724 136.936 31.1849 136.936 32.3047V38H134.546V32.8984C134.546 32.2734 134.439 31.8021 134.225 31.4844C134.012 31.1667 133.681 31.0078 133.233 31.0078C132.603 31.0078 132.155 31.2344 131.889 31.6875C131.624 32.1354 131.491 32.7786 131.491 33.6172V38H129.108V32.8984C129.108 32.4818 129.061 32.1328 128.968 31.8516C128.874 31.5703 128.731 31.3594 128.538 31.2188C128.345 31.0781 128.098 31.0078 127.796 31.0078C127.353 31.0078 127.004 31.1198 126.749 31.3438C126.499 31.5625 126.319 31.888 126.21 32.3203C126.106 32.7474 126.054 33.2708 126.054 33.8906V38H123.671V29.2656H125.491L125.811 30.3828H125.944C126.121 30.0807 126.343 29.8359 126.608 29.6484C126.879 29.4609 127.176 29.3229 127.499 29.2344C127.822 29.1458 128.15 29.1016 128.483 29.1016C129.124 29.1016 129.666 29.2057 130.108 29.4141C130.556 29.6224 130.9 29.9453 131.139 30.3828H131.35C131.611 29.9349 131.978 29.6094 132.452 29.4062C132.931 29.2031 133.423 29.1016 133.929 29.1016ZM149.327 29.1016C150.317 29.1016 151.064 29.3568 151.569 29.8672C152.08 30.3724 152.335 31.1849 152.335 32.3047V38H149.944V32.8984C149.944 32.2734 149.838 31.8021 149.624 31.4844C149.411 31.1667 149.08 31.0078 148.632 31.0078C148.002 31.0078 147.554 31.2344 147.288 31.6875C147.023 32.1354 146.89 32.7786 146.89 33.6172V38H144.507V32.8984C144.507 32.4818 144.46 32.1328 144.366 31.8516C144.273 31.5703 144.129 31.3594 143.937 31.2188C143.744 31.0781 143.497 31.0078 143.194 31.0078C142.752 31.0078 142.403 31.1198 142.148 31.3438C141.898 31.5625 141.718 31.888 141.609 32.3203C141.504 32.7474 141.452 33.2708 141.452 33.8906V38H139.069V29.2656H140.89L141.21 30.3828H141.343C141.52 30.0807 141.741 29.8359 142.007 29.6484C142.278 29.4609 142.575 29.3229 142.898 29.2344C143.221 29.1458 143.549 29.1016 143.882 29.1016C144.523 29.1016 145.064 29.2057 145.507 29.4141C145.955 29.6224 146.299 29.9453 146.538 30.3828H146.749C147.01 29.9349 147.377 29.6094 147.851 29.4062C148.33 29.2031 148.822 29.1016 149.327 29.1016ZM158.07 29.1016C158.877 29.1016 159.572 29.2578 160.156 29.5703C160.739 29.8776 161.19 30.3255 161.507 30.9141C161.825 31.5026 161.984 32.2214 161.984 33.0703V34.2266H156.351C156.377 34.8984 156.578 35.4271 156.953 35.8125C157.333 36.1927 157.859 36.3828 158.531 36.3828C159.088 36.3828 159.598 36.3255 160.062 36.2109C160.526 36.0964 161.002 35.9245 161.492 35.6953V37.5391C161.059 37.7526 160.606 37.9089 160.132 38.0078C159.664 38.1068 159.093 38.1562 158.421 38.1562C157.546 38.1562 156.77 37.9948 156.093 37.6719C155.421 37.349 154.893 36.8568 154.507 36.1953C154.127 35.5339 153.937 34.7005 153.937 33.6953C153.937 32.6745 154.109 31.8255 154.453 31.1484C154.802 30.4661 155.286 29.9557 155.906 29.6172C156.526 29.2734 157.247 29.1016 158.07 29.1016ZM158.085 30.7969C157.622 30.7969 157.236 30.9453 156.929 31.2422C156.627 31.5391 156.453 32.0052 156.406 32.6406H159.749C159.744 32.2865 159.679 31.9714 159.554 31.6953C159.434 31.4193 159.252 31.2005 159.007 31.0391C158.768 30.8776 158.46 30.7969 158.085 30.7969ZM168.562 29.1016C169.495 29.1016 170.245 29.3568 170.812 29.8672C171.38 30.3724 171.664 31.1849 171.664 32.3047V38H169.281V32.8984C169.281 32.2734 169.166 31.8021 168.937 31.4844C168.713 31.1667 168.359 31.0078 167.875 31.0078C167.146 31.0078 166.648 31.2552 166.383 31.75C166.117 32.2448 165.984 32.9583 165.984 33.8906V38H163.601V29.2656H165.422L165.742 30.3828H165.875C166.062 30.0807 166.294 29.8359 166.57 29.6484C166.851 29.4609 167.161 29.3229 167.5 29.2344C167.844 29.1458 168.198 29.1016 168.562 29.1016ZM180.016 29.2656V38H177.633V29.2656H180.016ZM178.829 25.8438C179.183 25.8438 179.487 25.9271 179.743 26.0938C179.998 26.2552 180.125 26.5599 180.125 27.0078C180.125 27.4505 179.998 27.7578 179.743 27.9297C179.487 28.0964 179.183 28.1797 178.829 28.1797C178.469 28.1797 178.162 28.0964 177.907 27.9297C177.657 27.7578 177.532 27.4505 177.532 27.0078C177.532 26.5599 177.657 26.2552 177.907 26.0938C178.162 25.9271 178.469 25.8438 178.829 25.8438ZM187.165 29.1016C188.097 29.1016 188.847 29.3568 189.415 29.8672C189.982 30.3724 190.266 31.1849 190.266 32.3047V38H187.884V32.8984C187.884 32.2734 187.769 31.8021 187.54 31.4844C187.316 31.1667 186.962 31.0078 186.477 31.0078C185.748 31.0078 185.251 31.2552 184.985 31.75C184.719 32.2448 184.587 32.9583 184.587 33.8906V38H182.204V29.2656H184.024L184.344 30.3828H184.477C184.665 30.0807 184.897 29.8359 185.173 29.6484C185.454 29.4609 185.764 29.3229 186.102 29.2344C186.446 29.1458 186.8 29.1016 187.165 29.1016ZM205.9 32.1797C205.9 33.4661 205.652 34.5417 205.158 35.4062C204.668 36.2656 203.957 36.9141 203.025 37.3516C202.092 37.7839 200.97 38 199.658 38H196.423V26.5781H200.009C201.207 26.5781 202.246 26.7917 203.126 27.2188C204.007 27.6406 204.689 28.2682 205.173 29.1016C205.658 29.9297 205.9 30.9557 205.9 32.1797ZM203.384 32.2422C203.384 31.3984 203.259 30.7057 203.009 30.1641C202.764 29.6172 202.4 29.2135 201.915 28.9531C201.436 28.6927 200.842 28.5625 200.134 28.5625H198.845V36H199.884C201.066 36 201.944 35.6849 202.517 35.0547C203.095 34.4245 203.384 33.487 203.384 32.2422ZM215.697 33.6172C215.697 34.3464 215.598 34.9922 215.4 35.5547C215.207 36.1172 214.924 36.5938 214.549 36.9844C214.179 37.3698 213.731 37.6615 213.205 37.8594C212.684 38.0573 212.095 38.1562 211.439 38.1562C210.825 38.1562 210.259 38.0573 209.744 37.8594C209.233 37.6615 208.788 37.3698 208.408 36.9844C208.033 36.5938 207.741 36.1172 207.533 35.5547C207.33 34.9922 207.228 34.3464 207.228 33.6172C207.228 32.6484 207.4 31.8281 207.744 31.1562C208.088 30.4844 208.577 29.974 209.213 29.625C209.848 29.276 210.606 29.1016 211.486 29.1016C212.304 29.1016 213.028 29.276 213.658 29.625C214.293 29.974 214.791 30.4844 215.15 31.1562C215.515 31.8281 215.697 32.6484 215.697 33.6172ZM209.658 33.6172C209.658 34.1901 209.72 34.6719 209.845 35.0625C209.97 35.4531 210.166 35.7474 210.431 35.9453C210.697 36.1432 211.043 36.2422 211.47 36.2422C211.892 36.2422 212.233 36.1432 212.494 35.9453C212.759 35.7474 212.952 35.4531 213.072 35.0625C213.197 34.6719 213.259 34.1901 213.259 33.6172C213.259 33.0391 213.197 32.5599 213.072 32.1797C212.952 31.7943 212.759 31.5052 212.494 31.3125C212.228 31.1198 211.882 31.0234 211.455 31.0234C210.825 31.0234 210.366 31.2396 210.08 31.6719C209.799 32.1042 209.658 32.7526 209.658 33.6172ZM220.893 38.1562C220.028 38.1562 219.291 38 218.682 37.6875C218.072 37.3698 217.609 36.8802 217.291 36.2188C216.973 35.5573 216.814 34.7109 216.814 33.6797C216.814 32.612 216.994 31.7422 217.354 31.0703C217.718 30.3932 218.221 29.8958 218.861 29.5781C219.507 29.2604 220.255 29.1016 221.104 29.1016C221.708 29.1016 222.229 29.1615 222.666 29.2812C223.109 29.3958 223.494 29.5339 223.822 29.6953L223.119 31.5391C222.744 31.388 222.395 31.2656 222.072 31.1719C221.749 31.0729 221.426 31.0234 221.104 31.0234C220.687 31.0234 220.341 31.1224 220.064 31.3203C219.788 31.513 219.583 31.8047 219.447 32.1953C219.312 32.5859 219.244 33.0755 219.244 33.6641C219.244 34.2422 219.317 34.7214 219.463 35.1016C219.609 35.4818 219.82 35.7656 220.096 35.9531C220.372 36.1354 220.708 36.2266 221.104 36.2266C221.598 36.2266 222.038 36.1615 222.424 36.0312C222.809 35.8958 223.184 35.7083 223.549 35.4688V37.5078C223.184 37.737 222.801 37.901 222.4 38C222.005 38.1042 221.502 38.1562 220.893 38.1562ZM232.19 34.8281C232.19 35.5052 232.026 36.0938 231.698 36.5938C231.369 37.0938 230.89 37.4792 230.26 37.75C229.635 38.0208 228.875 38.1562 227.979 38.1562C227.583 38.1562 227.195 38.1302 226.815 38.0781C226.44 38.026 226.078 37.9505 225.729 37.8516C225.385 37.7474 225.057 37.6198 224.744 37.4688V35.2188C225.286 35.4583 225.849 35.6745 226.432 35.8672C227.015 36.0599 227.593 36.1562 228.166 36.1562C228.562 36.1562 228.88 36.1042 229.119 36C229.364 35.8958 229.541 35.7526 229.651 35.5703C229.76 35.388 229.815 35.1797 229.815 34.9453C229.815 34.6589 229.718 34.4141 229.526 34.2109C229.333 34.0078 229.067 33.8177 228.729 33.6406C228.396 33.4635 228.018 33.2734 227.596 33.0703C227.33 32.9453 227.041 32.7943 226.729 32.6172C226.416 32.4349 226.119 32.2135 225.838 31.9531C225.557 31.6927 225.325 31.3776 225.143 31.0078C224.966 30.6328 224.877 30.1849 224.877 29.6641C224.877 28.9818 225.034 28.3984 225.346 27.9141C225.659 27.4297 226.104 27.0599 226.682 26.8047C227.265 26.5443 227.953 26.4141 228.744 26.4141C229.338 26.4141 229.903 26.4844 230.44 26.625C230.981 26.7604 231.547 26.9583 232.135 27.2188L231.354 29.1016C230.828 28.888 230.356 28.724 229.94 28.6094C229.523 28.4896 229.099 28.4297 228.666 28.4297C228.364 28.4297 228.106 28.4792 227.893 28.5781C227.679 28.6719 227.518 28.8073 227.409 28.9844C227.299 29.1562 227.244 29.3568 227.244 29.5859C227.244 29.8568 227.323 30.0859 227.479 30.2734C227.64 30.4557 227.88 30.6328 228.198 30.8047C228.521 30.9766 228.922 31.1771 229.401 31.4062C229.984 31.6823 230.481 31.9714 230.893 32.2734C231.31 32.5703 231.63 32.9219 231.854 33.3281C232.078 33.7292 232.19 34.2292 232.19 34.8281ZM238.612 29.1016C239.596 29.1016 240.391 29.4844 240.995 30.25C241.604 31.0156 241.909 32.138 241.909 33.6172C241.909 34.6068 241.766 35.4401 241.479 36.1172C241.193 36.7891 240.797 37.2969 240.292 37.6406C239.786 37.9844 239.206 38.1562 238.549 38.1562C238.128 38.1562 237.766 38.1042 237.464 38C237.161 37.8906 236.904 37.7526 236.69 37.5859C236.477 37.4141 236.292 37.2318 236.135 37.0391H236.01C236.052 37.2474 236.083 37.4609 236.104 37.6797C236.125 37.8984 236.135 38.112 236.135 38.3203V41.8438H233.753V29.2656H235.69L236.026 30.3984H236.135C236.292 30.1641 236.482 29.9479 236.706 29.75C236.93 29.5521 237.198 29.3958 237.51 29.2812C237.828 29.1615 238.195 29.1016 238.612 29.1016ZM237.846 31.0078C237.43 31.0078 237.099 31.0938 236.854 31.2656C236.609 31.4375 236.43 31.6953 236.315 32.0391C236.206 32.3828 236.146 32.8177 236.135 33.3438V33.6016C236.135 34.1641 236.187 34.6406 236.292 35.0312C236.401 35.4219 236.581 35.7188 236.831 35.9219C237.086 36.125 237.435 36.2266 237.878 36.2266C238.242 36.2266 238.542 36.125 238.776 35.9219C239.01 35.7188 239.185 35.4219 239.299 35.0312C239.419 34.6354 239.479 34.1536 239.479 33.5859C239.479 32.7318 239.346 32.0885 239.081 31.6562C238.815 31.224 238.404 31.0078 237.846 31.0078ZM247.136 29.0859C248.308 29.0859 249.206 29.3411 249.831 29.8516C250.456 30.362 250.769 31.138 250.769 32.1797V38H249.104L248.644 36.8125H248.581C248.331 37.125 248.076 37.3802 247.815 37.5781C247.555 37.776 247.256 37.9219 246.917 38.0156C246.578 38.1094 246.167 38.1562 245.683 38.1562C245.167 38.1562 244.703 38.0573 244.292 37.8594C243.886 37.6615 243.565 37.3594 243.331 36.9531C243.097 36.5417 242.979 36.0208 242.979 35.3906C242.979 34.4635 243.305 33.7812 243.956 33.3438C244.607 32.901 245.584 32.6562 246.886 32.6094L248.401 32.5625V32.1797C248.401 31.7214 248.282 31.3854 248.042 31.1719C247.802 30.9583 247.469 30.8516 247.042 30.8516C246.62 30.8516 246.206 30.9115 245.8 31.0312C245.394 31.151 244.987 31.3021 244.581 31.4844L243.792 29.875C244.256 29.6302 244.774 29.4375 245.347 29.2969C245.925 29.1562 246.521 29.0859 247.136 29.0859ZM248.401 33.9531L247.479 33.9844C246.709 34.0052 246.172 34.1432 245.87 34.3984C245.573 34.6536 245.425 34.9896 245.425 35.4062C245.425 35.7708 245.532 36.0312 245.745 36.1875C245.959 36.3385 246.237 36.4141 246.581 36.4141C247.091 36.4141 247.521 36.263 247.87 35.9609C248.224 35.6589 248.401 35.2292 248.401 34.6719V33.9531ZM256.456 38.1562C255.592 38.1562 254.855 38 254.245 37.6875C253.636 37.3698 253.172 36.8802 252.855 36.2188C252.537 35.5573 252.378 34.7109 252.378 33.6797C252.378 32.612 252.558 31.7422 252.917 31.0703C253.282 30.3932 253.784 29.8958 254.425 29.5781C255.071 29.2604 255.818 29.1016 256.667 29.1016C257.271 29.1016 257.792 29.1615 258.23 29.2812C258.672 29.3958 259.058 29.5339 259.386 29.6953L258.683 31.5391C258.308 31.388 257.959 31.2656 257.636 31.1719C257.313 31.0729 256.99 31.0234 256.667 31.0234C256.251 31.0234 255.904 31.1224 255.628 31.3203C255.352 31.513 255.146 31.8047 255.011 32.1953C254.876 32.5859 254.808 33.0755 254.808 33.6641C254.808 34.2422 254.881 34.7214 255.027 35.1016C255.172 35.4818 255.383 35.7656 255.659 35.9531C255.936 36.1354 256.271 36.2266 256.667 36.2266C257.162 36.2266 257.602 36.1615 257.988 36.0312C258.373 35.8958 258.748 35.7083 259.113 35.4688V37.5078C258.748 37.737 258.365 37.901 257.964 38C257.568 38.1042 257.066 38.1562 256.456 38.1562ZM264.425 29.1016C265.233 29.1016 265.928 29.2578 266.511 29.5703C267.095 29.8776 267.545 30.3255 267.863 30.9141C268.181 31.5026 268.339 32.2214 268.339 33.0703V34.2266H262.707C262.733 34.8984 262.933 35.4271 263.308 35.8125C263.688 36.1927 264.214 36.3828 264.886 36.3828C265.444 36.3828 265.954 36.3255 266.418 36.2109C266.881 36.0964 267.358 35.9245 267.847 35.6953V37.5391C267.415 37.7526 266.962 37.9089 266.488 38.0078C266.019 38.1068 265.449 38.1562 264.777 38.1562C263.902 38.1562 263.126 37.9948 262.449 37.6719C261.777 37.349 261.248 36.8568 260.863 36.1953C260.483 35.5339 260.293 34.7005 260.293 33.6953C260.293 32.6745 260.464 31.8255 260.808 31.1484C261.157 30.4661 261.642 29.9557 262.261 29.6172C262.881 29.2734 263.602 29.1016 264.425 29.1016ZM264.441 30.7969C263.977 30.7969 263.592 30.9453 263.285 31.2422C262.983 31.5391 262.808 32.0052 262.761 32.6406H266.105C266.1 32.2865 266.035 31.9714 265.91 31.6953C265.79 31.4193 265.608 31.2005 265.363 31.0391C265.123 30.8776 264.816 30.7969 264.441 30.7969Z" fill="#333333"/>
<path d="M187.199 83.5H187.699V84V154V154.5H187.199H130.199H129.699V154V95.2654V95.0589L129.845 94.9126L141.064 83.6472L141.21 83.5H141.418H187.199Z" fill="white" stroke="#333333"/>
<path d="M140.846 83.6464C140.989 83.5034 141.204 83.4607 141.391 83.5381C141.578 83.6155 141.699 83.7978 141.699 84V95C141.699 95.2761 141.476 95.5 141.199 95.5H130.199C129.997 95.5 129.815 95.3782 129.738 95.1913C129.66 95.0045 129.703 94.7894 129.846 94.6464L140.846 83.6464Z" fill="#D9F4FF" stroke="#333333" stroke-linejoin="round"/>
<path d="M196.199 89.5H196.699V90V160V160.5H196.199H138.199H137.699V160V101.265V101.056L137.848 100.909L149.264 89.6441L149.41 89.5H149.615H196.199Z" fill="white" stroke="#333333"/>
<path d="M148.846 89.6464C148.989 89.5034 149.204 89.4607 149.391 89.5381C149.578 89.6155 149.699 89.7978 149.699 90V101C149.699 101.276 149.476 101.5 149.199 101.5H138.199C137.997 101.5 137.815 101.378 137.738 101.191C137.66 101.005 137.703 100.789 137.846 100.646L148.846 89.6464Z" fill="#D9F4FF" stroke="#333333" stroke-linejoin="round"/>
<path d="M204.199 95.5H204.699V96V166V166.5H204.199H146.199H145.699V166V107.169V106.959L145.85 106.812L157.265 95.6426L157.411 95.5H157.615H204.199Z" fill="white" stroke="#333333"/>
<path d="M157.046 95.6464C157.189 95.5034 157.404 95.4607 157.591 95.5381C157.778 95.6155 157.899 95.7978 157.899 96V106.8C157.899 107.076 157.676 107.3 157.399 107.3H146.599C146.397 107.3 146.215 107.178 146.137 106.991C146.06 106.805 146.103 106.589 146.246 106.446L157.046 95.6464Z" fill="url(#paint0_linear_7868_200065)" stroke="#333333" stroke-linejoin="round"/>
<path fill-rule="evenodd" clip-rule="evenodd" d="M194.699 114C194.976 114 195.199 114.224 195.199 114.5C195.199 114.776 194.976 115 194.699 115H164.699C164.423 115 164.199 114.776 164.199 114.5C164.199 114.224 164.423 114 164.699 114H194.699ZM176.199 127.5C176.199 127.224 175.976 127 175.699 127H156.699C156.423 127 156.199 127.224 156.199 127.5C156.199 127.776 156.423 128 156.699 128H175.699C175.976 128 176.199 127.776 176.199 127.5ZM170.199 148.5C170.199 148.224 169.976 148 169.699 148H156.699C156.423 148 156.199 148.224 156.199 148.5C156.199 148.776 156.423 149 156.699 149H169.699C169.976 149 170.199 148.776 170.199 148.5ZM178.199 134.5C178.199 134.776 177.976 135 177.699 135H156.699C156.423 135 156.199 134.776 156.199 134.5C156.199 134.224 156.423 134 156.699 134H177.699C177.976 134 178.199 134.224 178.199 134.5ZM194.699 121C194.976 121 195.199 121.224 195.199 121.5C195.199 121.776 194.976 122 194.699 122H156.699C156.423 122 156.199 121.776 156.199 121.5C156.199 121.224 156.423 121 156.699 121H194.699ZM173.199 141.5C173.199 141.224 172.976 141 172.699 141H156.699C156.423 141 156.199 141.224 156.199 141.5C156.199 141.776 156.423 142 156.699 142H172.699C172.976 142 173.199 141.776 173.199 141.5ZM169.699 154C169.976 154 170.199 154.224 170.199 154.5C170.199 154.776 169.976 155 169.699 155H156.699C156.423 155 156.199 154.776 156.199 154.5C156.199 154.224 156.423 154 156.699 154H169.699ZM195.199 127.5C195.199 127.224 194.976 127 194.699 127H179.699C179.423 127 179.199 127.224 179.199 127.5C179.199 127.776 179.423 128 179.699 128H194.699C194.976 128 195.199 127.776 195.199 127.5ZM194.652 147.435C194.928 147.435 195.152 147.658 195.152 147.935C195.152 148.211 194.928 148.435 194.652 148.435H179.376C179.1 148.435 178.876 148.211 178.876 147.935C178.876 147.658 179.1 147.435 179.376 147.435H194.652Z" fill="#333333"/>
<path d="M193 106H173.2" stroke="url(#paint1_linear_7868_200065)" stroke-width="2" stroke-linecap="round"/>
<path d="M193.699 171.5C204.712 171.5 213.699 162.519 213.699 151.5C213.699 140.481 204.718 131.5 193.699 131.5C182.681 131.5 173.699 140.481 173.699 151.5C173.699 162.519 182.681 171.5 193.699 171.5Z" fill="#D9F4FF" stroke="#333333"/>
<path d="M189.074 152.906L189.074 152.906L189.076 152.903L189.169 152.792C189.217 152.734 189.281 152.645 189.312 152.511C189.333 152.421 189.333 152.329 189.333 152.278C189.333 152.275 189.333 152.273 189.333 152.271V151.89V149.55V148.741L188.609 149.103C188.143 149.336 187.721 149.343 187.078 149.343C186.457 149.343 185.955 149.294 185.534 149.097L184.823 148.764V149.55V151.904V152.271C184.823 152.274 184.822 152.279 184.822 152.283C184.822 152.328 184.822 152.414 184.836 152.491C184.862 152.628 184.924 152.723 184.982 152.792L185.075 152.903L185.075 152.903L185.077 152.906C185.289 153.157 185.514 153.39 185.729 153.613C185.741 153.625 185.752 153.637 185.764 153.649C185.993 153.887 186.214 154.117 186.426 154.372L186.426 154.373C186.484 154.442 186.566 154.535 186.668 154.605C186.767 154.675 186.908 154.737 187.078 154.729C187.247 154.737 187.388 154.675 187.487 154.605C187.589 154.535 187.671 154.442 187.729 154.373L187.345 154.052L187.728 154.374C187.941 154.119 188.162 153.888 188.39 153.649C188.399 153.64 188.407 153.631 188.416 153.622C188.633 153.395 188.859 153.159 189.074 152.906Z" fill="white" stroke="#333333"/>
<circle cx="187.077" cy="145.455" r="4.68" fill="white" stroke="#333333"/>
<path fill-rule="evenodd" clip-rule="evenodd" d="M187.263 142.876C188.157 144.408 190.265 146.181 191.734 145.969C191.752 145.817 191.757 145.664 191.757 145.506C191.757 142.894 189.661 140.775 187.077 140.775C184.494 140.775 182.397 142.894 182.397 145.506C182.397 145.688 182.409 145.864 182.426 146.04C183.837 146.022 186.148 145.066 187.263 142.876Z" fill="#AAAAAA" stroke="#333333"/>
<path d="M187.017 154.216C186.725 153.839 186.373 153.486 186.051 153.164L186.031 153.143C185.73 152.842 185.457 152.569 185.237 152.302V151.598V151.001L184.65 151.105C182.656 151.458 181.03 152.276 179.737 153.313L179.341 153.63L179.663 154.021C181.411 156.142 184.055 157.493 187.017 157.493C189.961 157.493 192.593 156.155 194.34 154.058L194.664 153.669L194.27 153.35C192.995 152.316 191.514 151.473 189.507 151.106L188.917 150.998V151.598V152.271L187.017 154.216Z" fill="#D9F4FF" stroke="#333333"/>
<path d="M202.98 152.906L202.98 152.906L202.982 152.903L203.075 152.792C203.123 152.734 203.188 152.645 203.219 152.511C203.239 152.421 203.239 152.329 203.239 152.278C203.239 152.275 203.239 152.273 203.239 152.271V151.89V149.55V148.741L202.515 149.103C202.05 149.336 201.628 149.343 200.984 149.343C200.364 149.343 199.861 149.294 199.441 149.097L198.729 148.764V149.55V151.904V152.271C198.729 152.274 198.729 152.279 198.729 152.283C198.729 152.328 198.728 152.414 198.743 152.491C198.769 152.628 198.83 152.723 198.888 152.792L198.981 152.903L198.981 152.903L198.983 152.906C199.196 153.157 199.42 153.39 199.636 153.613C199.647 153.625 199.659 153.637 199.67 153.649C199.9 153.887 200.12 154.117 200.332 154.372L200.333 154.373C200.39 154.442 200.472 154.535 200.574 154.605C200.674 154.675 200.815 154.737 200.984 154.729C201.153 154.737 201.294 154.675 201.394 154.605C201.496 154.535 201.578 154.442 201.635 154.373L201.251 154.052L201.635 154.374C201.848 154.119 202.068 153.888 202.297 153.649C202.305 153.64 202.314 153.631 202.322 153.622C202.54 153.395 202.766 153.159 202.98 152.906Z" fill="white" stroke="#333333"/>
<circle cx="200.984" cy="145.455" r="4.68" fill="white" stroke="#333333"/>
<path fill-rule="evenodd" clip-rule="evenodd" d="M201.17 142.876C202.064 144.408 204.172 146.181 205.641 145.969C205.658 145.817 205.664 145.664 205.664 145.506C205.664 142.894 203.568 140.775 200.984 140.775C198.4 140.775 196.304 142.894 196.304 145.506C196.304 145.688 196.316 145.864 196.333 146.04C197.744 146.022 200.055 145.066 201.17 142.876Z" fill="#AAAAAA" stroke="#333333"/>
<path d="M200.924 154.216C200.631 153.839 200.28 153.486 199.958 153.164L199.937 153.143C199.636 152.842 199.364 152.569 199.144 152.302V151.598V151.001L198.557 151.105C196.563 151.458 194.936 152.276 193.643 153.313L193.248 153.63L193.57 154.021C195.317 156.142 197.961 157.493 200.924 157.493C203.868 157.493 206.499 156.155 208.246 154.058L208.571 153.669L208.177 153.35C206.902 152.316 205.42 151.473 203.414 151.106L202.824 150.998V151.598V152.271L200.924 154.216Z" fill="#D9F4FF" stroke="#333333"/>
<path d="M196.094 159.925L196.094 159.925L196.096 159.923L196.189 159.812C196.237 159.754 196.301 159.665 196.332 159.53C196.353 159.441 196.353 159.349 196.353 159.298C196.353 159.295 196.353 159.293 196.353 159.29V158.91V156.57V155.761L195.629 156.123C195.163 156.355 194.741 156.362 194.098 156.362C193.477 156.362 192.975 156.313 192.554 156.117L191.843 155.784V156.57V158.924V159.29C191.843 159.294 191.843 159.298 191.842 159.303C191.842 159.348 191.842 159.433 191.856 159.511C191.882 159.648 191.944 159.743 192.002 159.812L192.095 159.923L192.095 159.923L192.097 159.925C192.309 160.177 192.534 160.41 192.749 160.633C192.761 160.645 192.772 160.657 192.784 160.669C193.013 160.907 193.234 161.137 193.446 161.392L193.447 161.393C193.504 161.462 193.586 161.555 193.688 161.625C193.788 161.694 193.928 161.757 194.098 161.749C194.267 161.757 194.408 161.694 194.507 161.625C194.609 161.555 194.691 161.462 194.749 161.393L194.365 161.072L194.748 161.394C194.961 161.139 195.182 160.908 195.41 160.669C195.419 160.66 195.427 160.651 195.436 160.642C195.653 160.415 195.879 160.179 196.094 159.925Z" fill="white" stroke="#333333"/>
<circle cx="194.097" cy="152.475" r="4.68" fill="white" stroke="#333333"/>
<path fill-rule="evenodd" clip-rule="evenodd" d="M194.283 149.896C195.177 151.428 197.285 153.201 198.754 152.99C198.772 152.837 198.777 152.685 198.777 152.526C198.777 149.914 196.681 147.795 194.097 147.795C191.514 147.795 189.417 149.914 189.417 152.526C189.417 152.708 189.429 152.884 189.447 153.06C190.857 153.043 193.168 152.086 194.283 149.896Z" fill="#AAAAAA" stroke="#333333"/>
<path d="M194.037 161.235C193.745 160.858 193.393 160.505 193.071 160.183L193.051 160.163C192.75 159.862 192.477 159.589 192.257 159.321V158.617V158.021L191.67 158.125C189.676 158.478 188.05 159.296 186.757 160.333L186.361 160.65L186.683 161.041C188.431 163.162 191.075 164.512 194.037 164.512C196.981 164.512 199.613 163.174 201.36 161.078L201.684 160.689L201.29 160.37C200.015 159.336 198.534 158.493 196.527 158.126L195.937 158.018V158.617V159.291L194.037 161.235Z" fill="url(#paint2_linear_7868_200065)" stroke="#333333"/>
<line x1="124.199" y1="203.5" x2="230.199" y2="203.5" stroke="#666666" stroke-dasharray="2 2"/>
<path d="M116.984 194.319H119.629V195.816H116.984V198.448H115.487V195.816H112.841V194.319H115.487V191.653H116.984V194.319ZM128.058 190.006C128.965 190.006 129.712 190.115 130.3 190.334C130.892 190.553 131.332 190.883 131.619 191.325C131.906 191.767 132.05 192.326 132.05 193C132.05 193.456 131.963 193.854 131.79 194.196C131.617 194.538 131.389 194.827 131.107 195.064C130.824 195.301 130.519 195.495 130.191 195.646L133.13 200H130.779L128.393 196.165H127.265V200H125.146V190.006H128.058ZM127.907 191.742H127.265V194.442H127.948C128.65 194.442 129.152 194.326 129.452 194.094C129.758 193.857 129.91 193.51 129.91 193.055C129.91 192.581 129.746 192.243 129.418 192.043C129.095 191.842 128.591 191.742 127.907 191.742ZM137.355 192.2C138.38 192.2 139.166 192.424 139.713 192.87C140.26 193.317 140.533 193.996 140.533 194.907V200H139.077L138.674 198.961H138.619C138.401 199.234 138.177 199.458 137.949 199.631C137.722 199.804 137.46 199.932 137.163 200.014C136.867 200.096 136.507 200.137 136.083 200.137C135.632 200.137 135.226 200.05 134.866 199.877C134.511 199.704 134.231 199.439 134.026 199.084C133.821 198.724 133.718 198.268 133.718 197.717C133.718 196.906 134.003 196.309 134.573 195.926C135.142 195.538 135.997 195.324 137.136 195.283L138.462 195.242V194.907C138.462 194.506 138.357 194.212 138.148 194.025C137.938 193.839 137.646 193.745 137.273 193.745C136.904 193.745 136.541 193.798 136.186 193.902C135.83 194.007 135.475 194.139 135.119 194.299L134.429 192.891C134.835 192.676 135.288 192.508 135.789 192.385C136.295 192.262 136.817 192.2 137.355 192.2ZM138.462 196.459L137.656 196.486C136.981 196.505 136.512 196.625 136.247 196.849C135.988 197.072 135.858 197.366 135.858 197.73C135.858 198.049 135.951 198.277 136.138 198.414C136.325 198.546 136.569 198.612 136.869 198.612C137.316 198.612 137.692 198.48 137.997 198.216C138.307 197.951 138.462 197.576 138.462 197.088V196.459ZM149.7 192.357V200H148.101L147.821 199.022H147.711C147.547 199.282 147.342 199.494 147.096 199.658C146.85 199.822 146.579 199.943 146.282 200.021C145.986 200.098 145.679 200.137 145.36 200.137C144.813 200.137 144.337 200.041 143.931 199.85C143.525 199.654 143.209 199.351 142.981 198.94C142.757 198.53 142.646 197.997 142.646 197.341V192.357H144.731V196.821C144.731 197.368 144.829 197.781 145.025 198.059C145.221 198.337 145.533 198.476 145.961 198.476C146.385 198.476 146.718 198.38 146.959 198.188C147.201 197.993 147.369 197.708 147.465 197.334C147.565 196.956 147.615 196.495 147.615 195.953V192.357H149.7ZM160.864 192.214C161.729 192.214 162.383 192.437 162.825 192.884C163.272 193.326 163.495 194.037 163.495 195.017V200H161.404V195.536C161.404 194.989 161.31 194.577 161.123 194.299C160.936 194.021 160.647 193.882 160.255 193.882C159.704 193.882 159.312 194.08 159.079 194.477C158.847 194.868 158.731 195.431 158.731 196.165V200H156.646V195.536C156.646 195.172 156.605 194.866 156.523 194.62C156.441 194.374 156.315 194.189 156.147 194.066C155.978 193.943 155.762 193.882 155.497 193.882C155.11 193.882 154.805 193.98 154.581 194.176C154.363 194.367 154.205 194.652 154.11 195.03C154.018 195.404 153.973 195.862 153.973 196.404V200H151.888V192.357H153.481L153.761 193.335H153.877C154.032 193.071 154.226 192.856 154.458 192.692C154.695 192.528 154.955 192.408 155.238 192.33C155.52 192.253 155.807 192.214 156.099 192.214C156.659 192.214 157.133 192.305 157.521 192.487C157.913 192.67 158.213 192.952 158.423 193.335H158.608C158.836 192.943 159.157 192.658 159.572 192.48C159.991 192.303 160.421 192.214 160.864 192.214ZM172.43 192.214C173.136 192.214 173.745 192.351 174.255 192.624C174.766 192.893 175.16 193.285 175.438 193.8C175.716 194.315 175.855 194.944 175.855 195.687V196.698H170.926C170.949 197.286 171.124 197.749 171.452 198.086C171.785 198.419 172.245 198.585 172.833 198.585C173.321 198.585 173.767 198.535 174.173 198.435C174.579 198.334 174.996 198.184 175.424 197.983V199.597C175.046 199.784 174.649 199.92 174.235 200.007C173.824 200.093 173.325 200.137 172.738 200.137C171.972 200.137 171.293 199.995 170.7 199.713C170.113 199.43 169.65 199 169.313 198.421C168.98 197.842 168.814 197.113 168.814 196.233C168.814 195.34 168.964 194.597 169.265 194.005C169.57 193.408 169.994 192.961 170.536 192.665C171.079 192.364 171.71 192.214 172.43 192.214ZM172.444 193.697C172.038 193.697 171.701 193.827 171.432 194.087C171.168 194.347 171.015 194.755 170.974 195.311H173.9C173.895 195.001 173.838 194.725 173.729 194.483C173.624 194.242 173.464 194.05 173.25 193.909C173.041 193.768 172.772 193.697 172.444 193.697ZM181.816 192.214C181.92 192.214 182.041 192.221 182.178 192.234C182.319 192.243 182.433 192.257 182.52 192.275L182.363 194.23C182.294 194.208 182.196 194.192 182.069 194.183C181.946 194.169 181.838 194.162 181.747 194.162C181.478 194.162 181.216 194.196 180.961 194.265C180.711 194.333 180.485 194.445 180.284 194.6C180.084 194.75 179.924 194.951 179.806 195.201C179.692 195.447 179.635 195.75 179.635 196.11V200H177.55V192.357H179.129L179.437 193.643H179.539C179.69 193.383 179.877 193.146 180.1 192.932C180.328 192.713 180.585 192.54 180.872 192.412C181.164 192.28 181.478 192.214 181.816 192.214ZM189.24 197.73C189.24 198.25 189.116 198.69 188.87 199.05C188.629 199.405 188.267 199.676 187.783 199.863C187.3 200.046 186.699 200.137 185.979 200.137C185.446 200.137 184.988 200.103 184.605 200.034C184.226 199.966 183.844 199.852 183.456 199.692V197.97C183.871 198.157 184.315 198.312 184.789 198.435C185.268 198.553 185.687 198.612 186.047 198.612C186.453 198.612 186.742 198.553 186.915 198.435C187.093 198.312 187.182 198.152 187.182 197.956C187.182 197.828 187.145 197.715 187.073 197.614C187.004 197.509 186.854 197.393 186.621 197.266C186.389 197.133 186.024 196.963 185.528 196.753C185.049 196.552 184.655 196.35 184.345 196.145C184.04 195.939 183.812 195.698 183.661 195.42C183.516 195.137 183.443 194.78 183.443 194.347C183.443 193.64 183.716 193.109 184.263 192.754C184.814 192.394 185.55 192.214 186.471 192.214C186.945 192.214 187.396 192.262 187.824 192.357C188.257 192.453 188.702 192.606 189.157 192.815L188.529 194.319C188.15 194.155 187.793 194.021 187.455 193.916C187.123 193.811 186.783 193.759 186.437 193.759C186.131 193.759 185.901 193.8 185.746 193.882C185.591 193.964 185.514 194.089 185.514 194.258C185.514 194.381 185.553 194.49 185.63 194.586C185.712 194.682 185.867 194.789 186.095 194.907C186.327 195.021 186.667 195.169 187.114 195.352C187.546 195.529 187.922 195.716 188.241 195.912C188.56 196.104 188.807 196.343 188.98 196.63C189.153 196.912 189.24 197.279 189.24 197.73ZM194.086 198.476C194.314 198.476 194.535 198.453 194.749 198.407C194.968 198.362 195.184 198.305 195.399 198.236V199.788C195.175 199.888 194.897 199.97 194.565 200.034C194.237 200.103 193.877 200.137 193.485 200.137C193.029 200.137 192.619 200.064 192.254 199.918C191.894 199.768 191.609 199.51 191.4 199.146C191.195 198.776 191.092 198.264 191.092 197.607V193.923H190.094V193.041L191.242 192.344L191.844 190.73H193.177V192.357H195.317V193.923H193.177V197.607C193.177 197.899 193.259 198.118 193.423 198.264C193.592 198.405 193.813 198.476 194.086 198.476ZM200.102 192.214C200.808 192.214 201.417 192.351 201.927 192.624C202.437 192.893 202.832 193.285 203.11 193.8C203.388 194.315 203.527 194.944 203.527 195.687V196.698H198.598C198.621 197.286 198.796 197.749 199.124 198.086C199.457 198.419 199.917 198.585 200.505 198.585C200.993 198.585 201.439 198.535 201.845 198.435C202.251 198.334 202.668 198.184 203.096 197.983V199.597C202.718 199.784 202.321 199.92 201.906 200.007C201.496 200.093 200.997 200.137 200.409 200.137C199.644 200.137 198.965 199.995 198.372 199.713C197.784 199.43 197.322 199 196.985 198.421C196.652 197.842 196.486 197.113 196.486 196.233C196.486 195.34 196.636 194.597 196.937 194.005C197.242 193.408 197.666 192.961 198.208 192.665C198.751 192.364 199.382 192.214 200.102 192.214ZM200.115 193.697C199.71 193.697 199.373 193.827 199.104 194.087C198.839 194.347 198.687 194.755 198.646 195.311H201.572C201.567 195.001 201.51 194.725 201.401 194.483C201.296 194.242 201.136 194.05 200.922 193.909C200.712 193.768 200.444 193.697 200.115 193.697ZM207.307 200H205.222V189.363H207.307V200ZM211.586 200H209.501V189.363H211.586V200ZM216.932 192.214C217.638 192.214 218.247 192.351 218.757 192.624C219.267 192.893 219.662 193.285 219.94 193.8C220.218 194.315 220.357 194.944 220.357 195.687V196.698H215.428C215.451 197.286 215.626 197.749 215.954 198.086C216.287 198.419 216.747 198.585 217.335 198.585C217.823 198.585 218.269 198.535 218.675 198.435C219.081 198.334 219.498 198.184 219.926 197.983V199.597C219.548 199.784 219.151 199.92 218.737 200.007C218.326 200.093 217.827 200.137 217.24 200.137C216.474 200.137 215.795 199.995 215.202 199.713C214.615 199.43 214.152 199 213.815 198.421C213.482 197.842 213.316 197.113 213.316 196.233C213.316 195.34 213.466 194.597 213.767 194.005C214.072 193.408 214.496 192.961 215.038 192.665C215.581 192.364 216.212 192.214 216.932 192.214ZM216.946 193.697C216.54 193.697 216.203 193.827 215.934 194.087C215.67 194.347 215.517 194.755 215.476 195.311H218.402C218.397 195.001 218.34 194.725 218.231 194.483C218.126 194.242 217.966 194.05 217.752 193.909C217.543 193.768 217.274 193.697 216.946 193.697ZM226.393 192.214C227.209 192.214 227.865 192.437 228.362 192.884C228.858 193.326 229.107 194.037 229.107 195.017V200H227.022V195.536C227.022 194.989 226.921 194.577 226.721 194.299C226.525 194.021 226.215 193.882 225.791 193.882C225.153 193.882 224.718 194.098 224.486 194.531C224.253 194.964 224.137 195.589 224.137 196.404V200H222.052V192.357H223.645L223.925 193.335H224.041C224.205 193.071 224.408 192.856 224.65 192.692C224.896 192.528 225.167 192.408 225.463 192.33C225.764 192.253 226.074 192.214 226.393 192.214Z" fill="#666666"/>
</g>
<rect x="0.699463" y="0.5" width="287" height="253" rx="3.5" stroke="#333333"/>
<path d="M390.594 19.6011H314.804V70.3988H390.594V19.6011Z" fill="white"/>
<path d="M390.699 70.5H314.699V19.5H390.699V70.5Z" stroke="#CCCCCC"/>
<path d="M380.199 30H364.199V31H380.199V30Z" fill="#CCCCCC"/>
<path d="M380.199 37H364.199V38H380.199V37Z" fill="#CCCCCC"/>
<path d="M380.199 44H364.199V45H380.199V44Z" fill="#CCCCCC"/>
<path d="M380.199 51H364.199V52H380.199V51Z" fill="#CCCCCC"/>
<path d="M380.199 58H364.199V59H380.199V58Z" fill="#CCCCCC"/>
<path d="M354.199 30H323.199V60H354.199V30Z" fill="white"/>
<path d="M354.699 60.5H323.699V29.5H354.699V60.5Z" stroke="#CCCCCC"/>
<path d="M323.628 53.5815L330.739 46.6413L335.521 51.3678L346.31 40.8379L354.77 49.0943" fill="white"/>
<path d="M324.058 54L323.199 53.1624L330.74 45.8034L335.521 50.4701L346.311 40L355.199 48.6752L354.341 49.5128L346.311 41.6752L335.521 52.2051L330.74 47.5385L324.058 54Z" fill="#CCCCCC"/>
<path d="M333.936 40.401C335.464 40.401 336.704 39.1629 336.704 37.6357C336.704 36.1084 335.464 34.8704 333.936 34.8704C332.407 34.8704 331.168 36.1084 331.168 37.6357C331.168 39.1629 332.407 40.401 333.936 40.401Z" fill="white"/>
<path d="M333.699 41C331.762 41 330.199 39.4375 330.199 37.5C330.199 35.5625 331.762 34 333.699 34C335.637 34 337.199 35.5625 337.199 37.5C337.199 39.4375 335.637 41 333.699 41ZM333.699 35.3125C332.449 35.3125 331.449 36.3125 331.449 37.5625C331.449 38.8125 332.449 39.8125 333.699 39.8125C334.949 39.8125 335.949 38.8125 335.949 37.5625C335.949 36.3125 334.949 35.3125 333.699 35.3125Z" fill="#CCCCCC"/>
<path d="M364.199 227H356.354L356.199 226H363.199V170H322.199V178L321.199 177.772V169H364.199V227Z" fill="#CCCCCC"/>
<path d="M356.272 235.597H313.963V177.849H344.227L356.272 189.834V235.597Z" fill="white"/>
<path d="M356.699 235.5H313.699V177.5H344.388L356.699 189.795V235.5Z" stroke="#CCCCCC"/>
<path d="M344.553 177.646C344.41 177.503 344.195 177.46 344.008 177.538C343.821 177.615 343.699 177.798 343.699 178V190C343.699 190.276 343.923 190.5 344.199 190.5H356.199C356.402 190.5 356.584 190.378 356.661 190.191C356.739 190.004 356.696 189.789 356.553 189.646L344.553 177.646Z" fill="white" stroke="#CCCCCC" stroke-linejoin="round"/>
<path d="M336.124 192H321.199V193H336.124V192Z" fill="#CCCCCC"/>
<path d="M348.199 199H321.199V200H348.199V199Z" fill="#CCCCCC"/>
<path d="M348.199 206H321.199V207H348.199V206Z" fill="#CCCCCC"/>
<path d="M348.199 213H321.199V214H348.199V213Z" fill="#CCCCCC"/>
<path d="M348.199 220H321.199V221H348.199V220Z" fill="#CCCCCC"/>
<path d="M441.175 100.888C441.175 100.173 440.699 99.5374 440.063 99.2196L412.112 85.2383C411.556 84.9206 410.921 84.9206 410.365 85.2383L382.335 99.2196C381.699 99.5374 381.302 100.173 381.223 100.888C381.223 101.285 380.747 110.977 384.082 122.257C386.067 128.93 388.925 134.729 392.658 139.575C397.343 145.612 403.377 150.14 410.524 152.841C410.762 152.921 411 153 411.239 153C411.477 153 411.715 152.921 411.953 152.841C419.1 150.14 425.135 145.612 429.82 139.575C433.552 134.729 436.411 128.93 438.396 122.257C441.651 110.977 441.175 101.285 441.175 100.888ZM432.043 120.986C428.391 133.299 421.403 141.561 411.159 145.692C400.916 141.561 393.928 133.299 390.275 120.986C388.052 113.439 387.814 106.528 387.814 103.986L411.08 92.3084L434.346 103.986C434.505 106.528 434.346 113.439 432.043 120.986Z" fill="white"/>
<path d="M411.199 154C410.879 154 410.559 153.92 410.239 153.84C402.875 151.039 396.712 146.478 391.829 140.236C387.987 135.275 385.106 129.353 383.105 122.551C379.743 111.108 380.223 101.185 380.223 100.785C380.303 99.7445 380.864 98.8642 381.744 98.3841L409.919 84.3001C410.719 83.9 411.68 83.9 412.4 84.3001L440.655 98.3841C441.535 98.8642 442.176 99.7445 442.176 100.785C442.176 101.185 442.656 111.108 439.294 122.551C437.293 129.353 434.332 135.275 430.57 140.236C425.767 146.478 419.604 151.039 412.16 153.84C411.84 153.92 411.52 154 411.199 154ZM411.199 85.5805C411.039 85.5805 410.799 85.6605 410.639 85.7405L382.464 99.8245C382.064 99.9846 381.824 100.385 381.824 100.865C381.824 101.265 381.344 110.948 384.625 122.151C386.547 128.793 389.428 134.554 393.11 139.276C397.752 145.278 403.676 149.679 410.799 152.4C411.039 152.48 411.36 152.48 411.68 152.4C418.803 149.679 424.727 145.278 429.369 139.276C433.051 134.474 435.932 128.713 437.853 122.151C441.135 110.948 440.655 101.345 440.655 100.865C440.655 100.465 440.415 100.065 440.015 99.8245L411.76 85.7405C411.52 85.6605 411.36 85.5805 411.199 85.5805ZM411.199 146.798L410.879 146.638C400.394 142.397 393.11 133.914 389.428 121.271C387.187 113.588 386.947 106.546 386.947 103.906V103.426L411.199 91.2621L435.452 103.426V103.906C435.452 106.546 435.212 113.588 432.971 121.271C429.209 133.914 422.005 142.397 411.52 146.638L411.199 146.798ZM388.548 104.386C388.548 107.267 388.868 113.748 390.949 120.791C394.471 132.794 401.274 140.956 411.199 145.037C421.045 140.956 427.848 132.794 431.45 120.791C433.531 113.668 433.851 107.267 433.851 104.386L411.199 93.0226L388.548 104.386Z" fill="#CCCCCC"/>
<path d="M409.308 125C409.064 125 408.902 124.922 408.74 124.767L401.443 117.777C401.118 117.466 401.118 117 401.443 116.689C401.767 116.379 402.254 116.379 402.578 116.689L409.308 123.136L423.821 109.233C424.145 108.922 424.632 108.922 424.956 109.233C425.281 109.544 425.281 110.01 424.956 110.32L409.875 124.767C409.713 124.922 409.47 125 409.308 125Z" fill="#CCCCCC"/>
</g>
<defs>
<linearGradient id="paint0_linear_7868_200065" x1="157.399" y1="95.5781" x2="146.599" y2="106.8" gradientUnits="userSpaceOnUse">
<stop stop-color="#FF8E3D"/>
<stop offset="1" stop-color="#FF6F3D"/>
</linearGradient>
<linearGradient id="paint1_linear_7868_200065" x1="192.999" y1="105.961" x2="192.902" y2="107.958" gradientUnits="userSpaceOnUse">
<stop stop-color="#FF8E3D"/>
<stop offset="1" stop-color="#FF6F3D"/>
</linearGradient>
<linearGradient id="paint2_linear_7868_200065" x1="187.069" y1="158.407" x2="190.608" y2="167.883" gradientUnits="userSpaceOnUse">
<stop stop-color="#FF8E3D"/>
<stop offset="1" stop-color="#FF6F3D"/>
</linearGradient>
<clipPath id="clip0_7868_200065">
<rect width="448" height="254" fill="white" transform="translate(0.199463)"/>
</clipPath>
<clipPath id="clip1_7868_200065">
<rect x="0.199463" width="288" height="254" rx="4" fill="white"/>
</clipPath>
<clipPath id="clip2_7868_200065">
<rect width="30" height="30" fill="white" transform="translate(12.1995 16)"/>
</clipPath>
</defs>
</svg>
