<svg width="804" height="139" viewBox="0 0 804 139" fill="none" xmlns="http://www.w3.org/2000/svg">
<path d="M229.008 99.9766C229.32 99.4141 229.641 99.0156 229.969 98.7812C230.297 98.5469 230.711 98.4297 231.211 98.4297C231.977 98.4297 232.516 98.6328 232.828 99.0391C233.156 99.4453 233.32 100.141 233.32 101.125L233.367 107.219C233.367 108.297 233.188 109.023 232.828 109.398C232.484 109.773 231.852 109.961 230.93 109.961C230.273 109.961 229.766 109.805 229.406 109.492C229.062 109.18 228.766 108.602 228.516 107.758C228.109 106.273 227.461 105.211 226.57 104.57C225.68 103.914 224.445 103.586 222.867 103.586C220.461 103.586 218.617 104.398 217.336 106.023C216.055 107.648 215.414 110 215.414 113.078C215.414 116.141 216.062 118.492 217.359 120.133C218.656 121.773 220.508 122.594 222.914 122.594C224.555 122.594 226.359 122.047 228.328 120.953C230.312 119.859 231.562 119.312 232.078 119.312C232.688 119.312 233.195 119.57 233.602 120.086C234.023 120.602 234.234 121.242 234.234 122.008C234.234 123.383 233.023 124.68 230.602 125.898C228.18 127.117 225.453 127.727 222.422 127.727C218.328 127.727 215.016 126.375 212.484 123.672C209.953 120.969 208.688 117.438 208.688 113.078C208.688 108.875 209.969 105.383 212.531 102.602C215.094 99.8203 218.344 98.4297 222.281 98.4297C223.391 98.4297 224.484 98.5547 225.562 98.8047C226.641 99.0547 227.789 99.4453 229.008 99.9766Z" fill="#222222"/>
<path d="M252.938 109.82H260.719C261.453 109.82 262.055 110.047 262.523 110.5C263.008 110.938 263.25 111.508 263.25 112.211C263.25 112.914 263.008 113.492 262.523 113.945C262.055 114.398 261.453 114.625 260.719 114.625H252.938V122.734C252.938 123.469 252.703 124.078 252.234 124.562C251.781 125.031 251.195 125.266 250.477 125.266C249.805 125.266 249.227 125.016 248.742 124.516C248.273 124.016 248.039 123.422 248.039 122.734V114.625H240.258C239.523 114.625 238.914 114.398 238.43 113.945C237.961 113.492 237.727 112.914 237.727 112.211C237.727 111.555 237.969 110.992 238.453 110.523C238.953 110.055 239.555 109.82 240.258 109.82H248.039V101.711C248.039 100.961 248.266 100.352 248.719 99.8828C249.172 99.3984 249.758 99.1562 250.477 99.1562C251.195 99.1562 251.781 99.3984 252.234 99.8828C252.703 100.367 252.938 100.977 252.938 101.711V109.82Z" fill="#222222"/>
<path d="M281.766 109.82H289.547C290.281 109.82 290.883 110.047 291.352 110.5C291.836 110.938 292.078 111.508 292.078 112.211C292.078 112.914 291.836 113.492 291.352 113.945C290.883 114.398 290.281 114.625 289.547 114.625H281.766V122.734C281.766 123.469 281.531 124.078 281.062 124.562C280.609 125.031 280.023 125.266 279.305 125.266C278.633 125.266 278.055 125.016 277.57 124.516C277.102 124.016 276.867 123.422 276.867 122.734V114.625H269.086C268.352 114.625 267.742 114.398 267.258 113.945C266.789 113.492 266.555 112.914 266.555 112.211C266.555 111.555 266.797 110.992 267.281 110.523C267.781 110.055 268.383 109.82 269.086 109.82H276.867V101.711C276.867 100.961 277.094 100.352 277.547 99.8828C278 99.3984 278.586 99.1562 279.305 99.1562C280.023 99.1562 280.609 99.3984 281.062 99.8828C281.531 100.367 281.766 100.977 281.766 101.711V109.82Z" fill="#222222"/>
<path d="M722.336 116.099C722.742 116.349 723.141 116.803 723.531 117.459C723.594 117.553 723.648 117.631 723.695 117.693L727.516 123.74H727.773H728.242C729.148 123.74 729.828 123.951 730.281 124.373C730.75 124.795 730.984 125.428 730.984 126.271C730.984 127.193 730.75 127.857 730.281 128.264C729.828 128.67 729.07 128.873 728.008 128.873H725.125C724.062 128.873 723.234 128.412 722.641 127.49L722.57 127.443L716.828 118.607C716.609 118.264 716.359 118.006 716.078 117.834C715.797 117.646 715.5 117.553 715.188 117.553H712.984V123.74H713.359C714.203 123.74 714.836 123.959 715.258 124.396C715.695 124.818 715.914 125.443 715.914 126.271C715.914 127.193 715.688 127.857 715.234 128.264C714.797 128.67 714.047 128.873 712.984 128.873H706.938C705.891 128.873 705.141 128.67 704.688 128.264C704.234 127.857 704.008 127.193 704.008 126.271C704.008 125.443 704.219 124.818 704.641 124.396C705.078 123.959 705.711 123.74 706.539 123.74H706.938V106.256H706.539C705.727 106.256 705.102 106.037 704.664 105.599C704.227 105.146 704.008 104.506 704.008 103.678C704.008 102.771 704.234 102.115 704.688 101.709C705.156 101.287 705.906 101.076 706.938 101.076H717.742C721.055 101.076 723.562 101.724 725.266 103.021C726.969 104.303 727.82 106.201 727.82 108.717C727.82 110.467 727.344 111.982 726.391 113.264C725.453 114.545 724.102 115.49 722.336 116.099ZM712.703 106.115V112.748H715.867C717.82 112.748 719.188 112.498 719.969 111.998C720.75 111.482 721.141 110.631 721.141 109.443C721.141 108.271 720.781 107.428 720.062 106.912C719.359 106.381 718.219 106.115 716.641 106.115H712.703Z" fill="#222222"/>
<path d="M173.195 5.38281V18.3438V18.7891C173.195 20.8828 173.055 22.3984 172.773 23.3359C172.508 24.2734 172.055 25.1094 171.414 25.8438C170.586 26.7969 169.438 27.5156 167.969 28C166.5 28.4844 164.734 28.7266 162.672 28.7266C161.219 28.7266 159.812 28.5859 158.453 28.3047C157.109 28.0234 155.812 27.6016 154.562 27.0391C153.875 26.7266 153.422 26.3203 153.203 25.8203C153 25.3203 152.898 24.5078 152.898 23.3828V18.5547C152.898 17.2109 153.094 16.2734 153.484 15.7422C153.875 15.2109 154.555 14.9453 155.523 14.9453C156.914 14.9453 157.68 15.9688 157.82 18.0156C157.836 18.375 157.859 18.6484 157.891 18.8359C158.078 20.6484 158.5 21.8906 159.156 22.5625C159.812 23.2188 160.859 23.5469 162.297 23.5469C164.078 23.5469 165.328 23.0781 166.047 22.1406C166.781 21.1875 167.148 19.4609 167.148 16.9609V5.38281H163.211C162.148 5.38281 161.383 5.17969 160.914 4.77344C160.461 4.36719 160.234 3.71094 160.234 2.80469C160.234 1.88281 160.453 1.22656 160.891 0.835938C161.344 0.445312 162.117 0.25 163.211 0.25H175.164C176.258 0.25 177.023 0.445312 177.461 0.835938C177.914 1.22656 178.141 1.88281 178.141 2.80469C178.141 3.71094 177.906 4.36719 177.438 4.77344C176.984 5.17969 176.227 5.38281 175.164 5.38281H173.195Z" fill="#222222"/>
<path d="M203.125 22.8672H203.5C204.344 22.8672 204.984 23.0938 205.422 23.5469C205.875 23.9844 206.102 24.6172 206.102 25.4453C206.102 26.3516 205.867 27.0078 205.398 27.4141C204.945 27.8047 204.188 28 203.125 28H200.922C200.141 28 199.555 27.8516 199.164 27.5547C198.789 27.2578 198.477 26.7188 198.227 25.9375C196.93 26.7969 195.555 27.4531 194.102 27.9062C192.648 28.3594 191.18 28.5859 189.695 28.5859C187.18 28.5859 185.203 27.9609 183.766 26.7109C182.328 25.4609 181.609 23.75 181.609 21.5781C181.609 19.2344 182.539 17.4141 184.398 16.1172C186.258 14.8203 188.867 14.1719 192.227 14.1719C192.977 14.1719 193.773 14.2109 194.617 14.2891C195.461 14.3672 196.406 14.4922 197.453 14.6641V14.2188C197.453 12.8125 197.109 11.7422 196.422 11.0078C195.75 10.2734 194.75 9.90625 193.422 9.90625C192.391 9.90625 191.07 10.2891 189.461 11.0547C187.867 11.8203 186.695 12.2031 185.945 12.2031C185.211 12.2031 184.617 11.9922 184.164 11.5703C183.711 11.1328 183.484 10.5625 183.484 9.85938C183.484 8.59375 184.406 7.59375 186.25 6.85938C188.109 6.10938 190.633 5.73438 193.82 5.73438C197.148 5.73438 199.531 6.375 200.969 7.65625C202.406 8.9375 203.125 11.1094 203.125 14.1719V22.8672ZM197.453 18.3438C196.672 18.1719 195.953 18.0469 195.297 17.9688C194.641 17.875 194.031 17.8281 193.469 17.8281C191.75 17.8281 190.398 18.1172 189.414 18.6953C188.445 19.2734 187.961 20.0703 187.961 21.0859C187.961 21.9922 188.273 22.6875 188.898 23.1719C189.523 23.6406 190.422 23.875 191.594 23.875C192.672 23.875 193.688 23.7188 194.641 23.4062C195.594 23.0938 196.531 22.6094 197.453 21.9531V18.3438Z" fill="#222222"/>
<path d="M218.266 11.4766L222.484 21.4609L226.914 11.4766H226.539C225.695 11.4766 225.047 11.2578 224.594 10.8203C224.156 10.3828 223.938 9.74219 223.938 8.89844C223.938 7.97656 224.156 7.32031 224.594 6.92969C225.047 6.53906 225.82 6.34375 226.914 6.34375H232.422C233.516 6.34375 234.281 6.54688 234.719 6.95312C235.172 7.34375 235.398 7.99219 235.398 8.89844C235.398 9.74219 235.18 10.3828 234.742 10.8203C234.305 11.2578 233.664 11.4766 232.82 11.4766H232.422L225.461 26.2656C224.945 27.3281 224.477 27.9766 224.055 28.2109C223.648 28.4609 223.016 28.5859 222.156 28.5859C220.594 28.5859 219.539 27.9297 218.992 26.6172C218.93 26.4609 218.883 26.3438 218.852 26.2656L212.312 11.4766H211.938C211.094 11.4766 210.445 11.2578 209.992 10.8203C209.555 10.3828 209.336 9.74219 209.336 8.89844C209.336 7.97656 209.562 7.32031 210.016 6.92969C210.469 6.53906 211.234 6.34375 212.312 6.34375H218.266C219.344 6.34375 220.109 6.54688 220.562 6.95312C221.016 7.34375 221.242 7.99219 221.242 8.89844C221.242 9.74219 221.016 10.3828 220.562 10.8203C220.125 11.2578 219.492 11.4766 218.664 11.4766H218.266Z" fill="#222222"/>
<path d="M260.781 22.8672H261.156C262 22.8672 262.641 23.0938 263.078 23.5469C263.531 23.9844 263.758 24.6172 263.758 25.4453C263.758 26.3516 263.523 27.0078 263.055 27.4141C262.602 27.8047 261.844 28 260.781 28H258.578C257.797 28 257.211 27.8516 256.82 27.5547C256.445 27.2578 256.133 26.7188 255.883 25.9375C254.586 26.7969 253.211 27.4531 251.758 27.9062C250.305 28.3594 248.836 28.5859 247.352 28.5859C244.836 28.5859 242.859 27.9609 241.422 26.7109C239.984 25.4609 239.266 23.75 239.266 21.5781C239.266 19.2344 240.195 17.4141 242.055 16.1172C243.914 14.8203 246.523 14.1719 249.883 14.1719C250.633 14.1719 251.43 14.2109 252.273 14.2891C253.117 14.3672 254.062 14.4922 255.109 14.6641V14.2188C255.109 12.8125 254.766 11.7422 254.078 11.0078C253.406 10.2734 252.406 9.90625 251.078 9.90625C250.047 9.90625 248.727 10.2891 247.117 11.0547C245.523 11.8203 244.352 12.2031 243.602 12.2031C242.867 12.2031 242.273 11.9922 241.82 11.5703C241.367 11.1328 241.141 10.5625 241.141 9.85938C241.141 8.59375 242.062 7.59375 243.906 6.85938C245.766 6.10938 248.289 5.73438 251.477 5.73438C254.805 5.73438 257.188 6.375 258.625 7.65625C260.062 8.9375 260.781 11.1094 260.781 14.1719V22.8672ZM255.109 18.3438C254.328 18.1719 253.609 18.0469 252.953 17.9688C252.297 17.875 251.688 17.8281 251.125 17.8281C249.406 17.8281 248.055 18.1172 247.07 18.6953C246.102 19.2734 245.617 20.0703 245.617 21.0859C245.617 21.9922 245.93 22.6875 246.555 23.1719C247.18 23.6406 248.078 23.875 249.25 23.875C250.328 23.875 251.344 23.7188 252.297 23.4062C253.25 23.0938 254.188 22.6094 255.109 21.9531V18.3438Z" fill="#222222"/>
<path d="M539.594 116.099C540 116.349 540.398 116.803 540.789 117.459C540.852 117.553 540.906 117.631 540.953 117.693L544.773 123.74H545.031H545.5C546.406 123.74 547.086 123.951 547.539 124.373C548.008 124.795 548.242 125.428 548.242 126.271C548.242 127.193 548.008 127.857 547.539 128.264C547.086 128.67 546.328 128.873 545.266 128.873H542.383C541.32 128.873 540.492 128.412 539.898 127.49L539.828 127.443L534.086 118.607C533.867 118.264 533.617 118.006 533.336 117.834C533.055 117.646 532.758 117.553 532.445 117.553H530.242V123.74H530.617C531.461 123.74 532.094 123.959 532.516 124.396C532.953 124.818 533.172 125.443 533.172 126.271C533.172 127.193 532.945 127.857 532.492 128.264C532.055 128.67 531.305 128.873 530.242 128.873H524.195C523.148 128.873 522.398 128.67 521.945 128.264C521.492 127.857 521.266 127.193 521.266 126.271C521.266 125.443 521.477 124.818 521.898 124.396C522.336 123.959 522.969 123.74 523.797 123.74H524.195V106.256H523.797C522.984 106.256 522.359 106.037 521.922 105.599C521.484 105.146 521.266 104.506 521.266 103.678C521.266 102.771 521.492 102.115 521.945 101.709C522.414 101.287 523.164 101.076 524.195 101.076H535C538.312 101.076 540.82 101.724 542.523 103.021C544.227 104.303 545.078 106.201 545.078 108.717C545.078 110.467 544.602 111.982 543.648 113.264C542.711 114.545 541.359 115.49 539.594 116.099ZM529.961 106.115V112.748H533.125C535.078 112.748 536.445 112.498 537.227 111.998C538.008 111.482 538.398 110.631 538.398 109.443C538.398 108.271 538.039 107.428 537.32 106.912C536.617 106.381 535.477 106.115 533.898 106.115H529.961Z" fill="#222222"/>
<path d="M566.266 112.349H565.891C565.047 112.349 564.406 112.131 563.969 111.693C563.547 111.256 563.336 110.615 563.336 109.771C563.336 108.849 563.555 108.193 563.992 107.803C564.43 107.412 565.188 107.217 566.266 107.217H570.695C571.117 107.217 571.445 107.31 571.68 107.498C571.914 107.67 572.031 107.912 572.031 108.224V123.74H572.406C573.25 123.74 573.891 123.959 574.328 124.396C574.781 124.834 575.008 125.459 575.008 126.271C575.008 127.209 574.781 127.881 574.328 128.287C573.875 128.678 573.109 128.873 572.031 128.873H568.094C567.656 128.873 567.312 128.779 567.062 128.592C566.828 128.404 566.711 128.146 566.711 127.818V126.037C565.961 127.162 565.039 128.006 563.945 128.568C562.867 129.131 561.594 129.412 560.125 129.412C557.609 129.412 555.742 128.654 554.523 127.139C553.305 125.623 552.695 123.303 552.695 120.178V112.349H552.297C551.453 112.349 550.812 112.131 550.375 111.693C549.938 111.256 549.719 110.615 549.719 109.771C549.719 108.849 549.938 108.193 550.375 107.803C550.828 107.412 551.602 107.217 552.695 107.217H557.102C557.523 107.217 557.844 107.31 558.062 107.498C558.281 107.67 558.391 107.912 558.391 108.224V119.123C558.391 121.045 558.656 122.396 559.188 123.178C559.719 123.959 560.594 124.349 561.812 124.349C563.109 124.349 564.172 123.873 565 122.92C565.844 121.951 566.266 120.685 566.266 119.123V112.349Z" fill="#222222"/>
<path d="M592.352 112.209C590.82 112.209 589.547 112.787 588.531 113.943C587.531 115.084 587.031 116.537 587.031 118.303C587.031 120.115 587.531 121.599 588.531 122.756C589.531 123.896 590.805 124.467 592.352 124.467C593.898 124.467 595.172 123.889 596.172 122.732C597.188 121.576 597.695 120.099 597.695 118.303C597.695 116.553 597.188 115.099 596.172 113.943C595.156 112.787 593.883 112.209 592.352 112.209ZM587.172 109.326C587.922 108.67 588.812 108.154 589.844 107.779C590.875 107.404 591.953 107.217 593.078 107.217C596.328 107.217 598.984 108.295 601.047 110.451C603.125 112.592 604.164 115.342 604.164 118.701C604.164 121.764 603.109 124.326 601 126.389C598.891 128.435 596.234 129.459 593.031 129.459C591.516 129.459 590.195 129.201 589.07 128.685C587.961 128.154 587.055 127.365 586.352 126.318V127.865C586.352 128.178 586.227 128.428 585.977 128.615C585.742 128.787 585.406 128.873 584.969 128.873H581.359C580.297 128.873 579.539 128.678 579.086 128.287C578.648 127.881 578.43 127.209 578.43 126.271C578.43 125.443 578.641 124.818 579.062 124.396C579.5 123.959 580.141 123.74 580.984 123.74H581.359V103.396H580.984C580.141 103.396 579.492 103.178 579.039 102.74C578.602 102.287 578.383 101.639 578.383 100.795C578.383 99.8729 578.609 99.2089 579.062 98.8026C579.516 98.3964 580.281 98.1932 581.359 98.1932H585.742C586.242 98.1932 586.602 98.3182 586.82 98.5682C587.055 98.8026 587.172 99.1932 587.172 99.7401V109.326Z" fill="#222222"/>
<path d="M616.094 112.349L620.312 122.334L624.742 112.349H624.367C623.523 112.349 622.875 112.131 622.422 111.693C621.984 111.256 621.766 110.615 621.766 109.771C621.766 108.849 621.984 108.193 622.422 107.803C622.875 107.412 623.648 107.217 624.742 107.217H630.25C631.344 107.217 632.109 107.42 632.547 107.826C633 108.217 633.227 108.865 633.227 109.771C633.227 110.615 633.008 111.256 632.57 111.693C632.133 112.131 631.492 112.349 630.648 112.349H630.25L620.617 133.045H621.672C622.734 133.045 623.492 133.248 623.945 133.654C624.414 134.06 624.648 134.724 624.648 135.646C624.648 136.553 624.414 137.209 623.945 137.615C623.492 138.021 622.734 138.224 621.672 138.224H611.406C610.328 138.224 609.562 138.021 609.109 137.615C608.656 137.224 608.43 136.568 608.43 135.646C608.43 134.724 608.656 134.06 609.109 133.654C609.562 133.248 610.328 133.045 611.406 133.045H615.039L617.242 128.334L610.141 112.349H609.766C608.922 112.349 608.273 112.131 607.82 111.693C607.383 111.256 607.164 110.615 607.164 109.771C607.164 108.849 607.391 108.193 607.844 107.803C608.297 107.412 609.062 107.217 610.141 107.217H616.094C617.172 107.217 617.938 107.42 618.391 107.826C618.844 108.217 619.07 108.865 619.07 109.771C619.07 110.615 618.844 111.256 618.391 111.693C617.953 112.131 617.32 112.349 616.492 112.349H616.094Z" fill="#222222"/>
<path d="M352.242 20.847V25.6517H354.656C355.672 25.6517 356.391 25.847 356.812 26.2377C357.25 26.6283 357.469 27.2767 357.469 28.183C357.469 29.1049 357.25 29.7689 356.812 30.1752C356.375 30.5814 355.656 30.7845 354.656 30.7845H346.547C345.516 30.7845 344.773 30.5814 344.32 30.1752C343.883 29.7689 343.664 29.1049 343.664 28.183C343.664 27.3549 343.875 26.7299 344.297 26.308C344.719 25.8705 345.336 25.6517 346.148 25.6517H346.547V8.16736H346.148C345.352 8.16736 344.734 7.94861 344.297 7.51111C343.875 7.05798 343.664 6.41736 343.664 5.58923C343.664 4.68298 343.891 4.02673 344.344 3.62048C344.797 3.19861 345.531 2.98767 346.547 2.98767H356.227C360.055 2.98767 362.945 3.72205 364.898 5.1908C366.867 6.65955 367.852 8.82361 367.852 11.683C367.852 14.6986 366.875 16.9799 364.922 18.5267C362.969 20.0736 360.07 20.847 356.227 20.847H352.242ZM352.242 8.16736V15.5736H355.57C357.414 15.5736 358.797 15.2611 359.719 14.6361C360.656 14.0111 361.125 13.0736 361.125 11.8236C361.125 10.6517 360.641 9.7533 359.672 9.1283C358.719 8.48767 357.352 8.16736 355.57 8.16736H352.242Z" fill="#222222"/>
<path d="M380.109 14.2611L384.328 24.2455L388.758 14.2611H388.383C387.539 14.2611 386.891 14.0424 386.438 13.6049C386 13.1674 385.781 12.5267 385.781 11.683C385.781 10.7611 386 10.1049 386.438 9.71423C386.891 9.32361 387.664 9.1283 388.758 9.1283H394.266C395.359 9.1283 396.125 9.33142 396.562 9.73767C397.016 10.1283 397.242 10.7767 397.242 11.683C397.242 12.5267 397.023 13.1674 396.586 13.6049C396.148 14.0424 395.508 14.2611 394.664 14.2611H394.266L384.633 34.9564H385.688C386.75 34.9564 387.508 35.1595 387.961 35.5658C388.43 35.972 388.664 36.6361 388.664 37.558C388.664 38.4642 388.43 39.1205 387.961 39.5267C387.508 39.933 386.75 40.1361 385.688 40.1361H375.422C374.344 40.1361 373.578 39.933 373.125 39.5267C372.672 39.1361 372.445 38.4799 372.445 37.558C372.445 36.6361 372.672 35.972 373.125 35.5658C373.578 35.1595 374.344 34.9564 375.422 34.9564H379.055L381.258 30.2455L374.156 14.2611H373.781C372.938 14.2611 372.289 14.0424 371.836 13.6049C371.398 13.1674 371.18 12.5267 371.18 11.683C371.18 10.7611 371.406 10.1049 371.859 9.71423C372.312 9.32361 373.078 9.1283 374.156 9.1283H380.109C381.188 9.1283 381.953 9.33142 382.406 9.73767C382.859 10.1283 383.086 10.7767 383.086 11.683C383.086 12.5267 382.859 13.1674 382.406 13.6049C381.969 14.0424 381.336 14.2611 380.508 14.2611H380.109Z" fill="#222222"/>
<path d="M411.445 10.4408H418.594C419.672 10.4408 420.438 10.6361 420.891 11.0267C421.344 11.4174 421.57 12.0658 421.57 12.972C421.57 13.8939 421.336 14.558 420.867 14.9642C420.414 15.3705 419.656 15.5736 418.594 15.5736H411.445V21.5736C411.445 23.2611 411.703 24.4174 412.219 25.0424C412.734 25.6674 413.641 25.9799 414.938 25.9799C416.156 25.9799 417.594 25.6283 419.25 24.9252C420.906 24.222 422.016 23.8705 422.578 23.8705C423.219 23.8705 423.766 24.1283 424.219 24.6439C424.688 25.1439 424.922 25.7533 424.922 26.472C424.922 27.6752 423.828 28.7767 421.641 29.7767C419.469 30.7611 417 31.2533 414.234 31.2533C412.625 31.2533 411.211 31.0345 409.992 30.597C408.773 30.1595 407.812 29.5345 407.109 28.722C406.594 28.097 406.227 27.347 406.008 26.472C405.789 25.597 405.68 24.1361 405.68 22.0892V21.5736V15.5736H403.477C402.414 15.5736 401.656 15.3705 401.203 14.9642C400.766 14.558 400.547 13.8939 400.547 12.972C400.547 12.0502 400.766 11.4017 401.203 11.0267C401.641 10.6361 402.398 10.4408 403.477 10.4408H405.68V4.95642C405.68 3.8783 405.898 3.12048 406.336 2.68298C406.789 2.24548 407.531 2.02673 408.562 2.02673C409.594 2.02673 410.328 2.24548 410.766 2.68298C411.219 3.12048 411.445 3.8783 411.445 4.95642V10.4408Z" fill="#222222"/>
<path d="M438.117 11.4955C438.664 10.5424 439.438 9.8158 440.438 9.3158C441.438 8.8158 442.633 8.5658 444.023 8.5658C446.492 8.5658 448.391 9.28455 449.719 10.722C451.062 12.1595 451.734 14.222 451.734 16.9095V25.6517H452.133C452.961 25.6517 453.586 25.8705 454.008 26.308C454.445 26.7299 454.664 27.3549 454.664 28.183C454.664 29.1049 454.438 29.7689 453.984 30.1752C453.547 30.5814 452.797 30.7845 451.734 30.7845H445.922C444.875 30.7845 444.125 30.5814 443.672 30.1752C443.234 29.7689 443.016 29.1049 443.016 28.183C443.016 27.3392 443.227 26.7064 443.648 26.2845C444.07 25.8627 444.703 25.6517 445.547 25.6517H445.922V18.8314C445.922 16.8314 445.672 15.4486 445.172 14.683C444.688 13.9017 443.852 13.5111 442.664 13.5111C441.414 13.5111 440.344 14.0189 439.453 15.0345C438.562 16.0345 438.117 17.3002 438.117 18.8314V25.6517H438.492C439.336 25.6517 439.969 25.8705 440.391 26.308C440.828 26.7299 441.047 27.3549 441.047 28.183C441.047 29.1049 440.82 29.7689 440.367 30.1752C439.914 30.5814 439.164 30.7845 438.117 30.7845H432.305C431.227 30.7845 430.469 30.5892 430.031 30.1986C429.594 29.7924 429.375 29.1205 429.375 28.183C429.375 27.3549 429.586 26.7299 430.008 26.308C430.445 25.8705 431.078 25.6517 431.906 25.6517H432.305V5.30798H431.906C431.078 5.30798 430.438 5.08923 429.984 4.65173C429.547 4.19861 429.328 3.55017 429.328 2.70642C429.328 1.78455 429.555 1.12048 430.008 0.714233C430.461 0.307983 431.227 0.104858 432.305 0.104858H436.711C437.242 0.104858 437.609 0.214233 437.812 0.432983C438.016 0.651733 438.117 1.05798 438.117 1.65173V11.4955Z" fill="#222222"/>
<path d="M470.719 13.558C468.891 13.558 467.383 14.1595 466.195 15.3627C465.023 16.5502 464.438 18.0736 464.438 19.933C464.438 21.808 465.023 23.3627 466.195 24.597C467.383 25.8158 468.891 26.4252 470.719 26.4252C472.547 26.4252 474.055 25.8158 475.242 24.597C476.43 23.3627 477.023 21.808 477.023 19.933C477.023 18.0736 476.43 16.5502 475.242 15.3627C474.07 14.1595 472.562 13.558 470.719 13.558ZM470.719 8.61267C474.516 8.61267 477.594 9.67517 479.953 11.8002C482.312 13.9252 483.492 16.6517 483.492 19.9799C483.492 23.3236 482.312 26.058 479.953 28.183C477.594 30.308 474.516 31.3705 470.719 31.3705C466.938 31.3705 463.867 30.308 461.508 28.183C459.148 26.058 457.969 23.3236 457.969 19.9799C457.969 16.6517 459.148 13.9252 461.508 11.8002C463.883 9.67517 466.953 8.61267 470.719 8.61267Z" fill="#222222"/>
<path d="M509.391 25.6049H509.695C510.57 25.6049 511.227 25.8236 511.664 26.2611C512.102 26.683 512.32 27.3236 512.32 28.183C512.32 29.1049 512.094 29.7689 511.641 30.1752C511.203 30.5814 510.453 30.7845 509.391 30.7845H503.625C502.578 30.7845 501.82 30.5814 501.352 30.1752C500.898 29.7689 500.672 29.1049 500.672 28.183C500.672 27.3236 500.891 26.683 501.328 26.2611C501.781 25.8236 502.453 25.6049 503.344 25.6049H503.625V18.8314C503.625 16.9564 503.359 15.6283 502.828 14.847C502.312 14.0502 501.445 13.6517 500.227 13.6517C498.93 13.6517 497.867 14.1283 497.039 15.0814C496.227 16.0189 495.82 17.2689 495.82 18.8314V25.6049H496.102C496.992 25.6049 497.656 25.8236 498.094 26.2611C498.531 26.683 498.75 27.3236 498.75 28.183C498.75 29.1049 498.523 29.7689 498.07 30.1752C497.617 30.5814 496.867 30.7845 495.82 30.7845H490.008C488.961 30.7845 488.211 30.5814 487.758 30.1752C487.305 29.7689 487.078 29.1049 487.078 28.183C487.078 27.3236 487.297 26.683 487.734 26.2611C488.172 25.8236 488.836 25.6049 489.727 25.6049H490.008V14.2611H489.609C488.766 14.2611 488.125 14.0502 487.688 13.6283C487.25 13.1908 487.031 12.558 487.031 11.7299C487.031 10.808 487.258 10.1439 487.711 9.73767C488.164 9.33142 488.93 9.1283 490.008 9.1283H493.992C494.43 9.1283 494.758 9.21423 494.977 9.38611C495.211 9.55798 495.328 9.80798 495.328 10.1361V11.9642C496.047 10.8392 496.961 9.99548 498.07 9.43298C499.195 8.85486 500.492 8.5658 501.961 8.5658C504.461 8.5658 506.32 9.32361 507.539 10.8392C508.773 12.3549 509.391 14.6674 509.391 17.7767V25.6049Z" fill="#222222"/>
<path d="M601.484 22.0625V26.8672H603.898C604.914 26.8672 605.633 27.0625 606.055 27.4531C606.492 27.8438 606.711 28.4922 606.711 29.3984C606.711 30.3203 606.492 30.9844 606.055 31.3906C605.617 31.7969 604.898 32 603.898 32H595.789C594.758 32 594.016 31.7969 593.562 31.3906C593.125 30.9844 592.906 30.3203 592.906 29.3984C592.906 28.5703 593.117 27.9453 593.539 27.5234C593.961 27.0859 594.578 26.8672 595.391 26.8672H595.789V9.38281H595.391C594.594 9.38281 593.977 9.16406 593.539 8.72656C593.117 8.27344 592.906 7.63281 592.906 6.80469C592.906 5.89844 593.133 5.24219 593.586 4.83594C594.039 4.41406 594.773 4.20312 595.789 4.20312H605.469C609.297 4.20312 612.188 4.9375 614.141 6.40625C616.109 7.875 617.094 10.0391 617.094 12.8984C617.094 15.9141 616.117 18.1953 614.164 19.7422C612.211 21.2891 609.312 22.0625 605.469 22.0625H601.484ZM601.484 9.38281V16.7891H604.812C606.656 16.7891 608.039 16.4766 608.961 15.8516C609.898 15.2266 610.367 14.2891 610.367 13.0391C610.367 11.8672 609.883 10.9688 608.914 10.3438C607.961 9.70312 606.594 9.38281 604.812 9.38281H601.484Z" fill="#222222"/>
<path d="M629.656 9.38281V14.7734H637.32V9.38281H636.945C636.102 9.38281 635.453 9.16406 635 8.72656C634.562 8.28906 634.344 7.64844 634.344 6.80469C634.344 5.88281 634.57 5.21875 635.023 4.8125C635.492 4.40625 636.258 4.20312 637.32 4.20312H643.367C644.43 4.20312 645.18 4.40625 645.617 4.8125C646.07 5.21875 646.297 5.88281 646.297 6.80469C646.297 7.64844 646.078 8.28906 645.641 8.72656C645.219 9.16406 644.594 9.38281 643.766 9.38281H643.367V26.8672H643.766C644.609 26.8672 645.25 27.0859 645.688 27.5234C646.125 27.9453 646.344 28.5703 646.344 29.3984C646.344 30.3203 646.117 30.9844 645.664 31.3906C645.211 31.7969 644.445 32 643.367 32H637.32C636.242 32 635.477 31.8047 635.023 31.4141C634.57 31.0078 634.344 30.3359 634.344 29.3984C634.344 28.5703 634.562 27.9453 635 27.5234C635.453 27.0859 636.102 26.8672 636.945 26.8672H637.32V19.9531H629.656V26.8672H630.031C630.875 26.8672 631.516 27.0859 631.953 27.5234C632.406 27.9453 632.633 28.5703 632.633 29.3984C632.633 30.3203 632.398 30.9844 631.93 31.3906C631.477 31.7969 630.719 32 629.656 32H623.609C622.531 32 621.766 31.8047 621.312 31.4141C620.859 31.0078 620.633 30.3359 620.633 29.3984C620.633 28.5703 620.852 27.9453 621.289 27.5234C621.727 27.0859 622.367 26.8672 623.211 26.8672H623.609V9.38281H623.211C622.383 9.38281 621.75 9.16406 621.312 8.72656C620.891 8.28906 620.68 7.64844 620.68 6.80469C620.68 5.88281 620.898 5.21875 621.336 4.8125C621.789 4.40625 622.547 4.20312 623.609 4.20312H629.656C630.703 4.20312 631.461 4.40625 631.93 4.8125C632.398 5.21875 632.633 5.88281 632.633 6.80469C632.633 7.64844 632.406 8.28906 631.953 8.72656C631.516 9.16406 630.875 9.38281 630.031 9.38281H629.656Z" fill="#222222"/>
<path d="M659.141 22.0625V26.8672H661.555C662.57 26.8672 663.289 27.0625 663.711 27.4531C664.148 27.8438 664.367 28.4922 664.367 29.3984C664.367 30.3203 664.148 30.9844 663.711 31.3906C663.273 31.7969 662.555 32 661.555 32H653.445C652.414 32 651.672 31.7969 651.219 31.3906C650.781 30.9844 650.562 30.3203 650.562 29.3984C650.562 28.5703 650.773 27.9453 651.195 27.5234C651.617 27.0859 652.234 26.8672 653.047 26.8672H653.445V9.38281H653.047C652.25 9.38281 651.633 9.16406 651.195 8.72656C650.773 8.27344 650.562 7.63281 650.562 6.80469C650.562 5.89844 650.789 5.24219 651.242 4.83594C651.695 4.41406 652.43 4.20312 653.445 4.20312H663.125C666.953 4.20312 669.844 4.9375 671.797 6.40625C673.766 7.875 674.75 10.0391 674.75 12.8984C674.75 15.9141 673.773 18.1953 671.82 19.7422C669.867 21.2891 666.969 22.0625 663.125 22.0625H659.141ZM659.141 9.38281V16.7891H662.469C664.312 16.7891 665.695 16.4766 666.617 15.8516C667.555 15.2266 668.023 14.2891 668.023 13.0391C668.023 11.8672 667.539 10.9688 666.57 10.3438C665.617 9.70312 664.25 9.38281 662.469 9.38281H659.141Z" fill="#222222"/>
<path d="M361.57 118.935V123.74H363.984C365 123.74 365.719 123.935 366.141 124.326C366.578 124.717 366.797 125.365 366.797 126.271C366.797 127.193 366.578 127.857 366.141 128.264C365.703 128.67 364.984 128.873 363.984 128.873H355.875C354.844 128.873 354.102 128.67 353.648 128.264C353.211 127.857 352.992 127.193 352.992 126.271C352.992 125.443 353.203 124.818 353.625 124.396C354.047 123.959 354.664 123.74 355.477 123.74H355.875V106.256H355.477C354.68 106.256 354.062 106.037 353.625 105.599C353.203 105.146 352.992 104.506 352.992 103.678C352.992 102.771 353.219 102.115 353.672 101.709C354.125 101.287 354.859 101.076 355.875 101.076H365.555C369.383 101.076 372.273 101.81 374.227 103.279C376.195 104.748 377.18 106.912 377.18 109.771C377.18 112.787 376.203 115.068 374.25 116.615C372.297 118.162 369.398 118.935 365.555 118.935H361.57ZM361.57 106.256V113.662H364.898C366.742 113.662 368.125 113.349 369.047 112.724C369.984 112.099 370.453 111.162 370.453 109.912C370.453 108.74 369.969 107.842 369 107.217C368.047 106.576 366.68 106.256 364.898 106.256H361.57Z" fill="#222222"/>
<path d="M387.188 119.428C387.594 121.162 388.375 122.459 389.531 123.318C390.703 124.178 392.258 124.607 394.195 124.607C396.133 124.607 398.047 124.139 399.938 123.201C401.828 122.248 402.969 121.771 403.359 121.771C403.938 121.771 404.406 121.99 404.766 122.428C405.141 122.849 405.328 123.396 405.328 124.068C405.328 125.537 404.242 126.803 402.07 127.865C399.898 128.928 397.211 129.459 394.008 129.459C390.227 129.459 387.148 128.396 384.773 126.271C382.414 124.146 381.234 121.412 381.234 118.068C381.234 114.74 382.414 112.014 384.773 109.889C387.148 107.764 390.227 106.701 394.008 106.701C397.383 106.701 400.18 107.701 402.398 109.701C404.617 111.685 405.727 114.123 405.727 117.014C405.727 117.935 405.5 118.568 405.047 118.912C404.609 119.256 403.695 119.428 402.305 119.428H387.188ZM399.82 115.771C399.555 114.318 398.867 113.193 397.758 112.396C396.664 111.599 395.234 111.201 393.469 111.201C391.766 111.201 390.391 111.584 389.344 112.349C388.312 113.099 387.594 114.24 387.188 115.771H399.82Z" fill="#222222"/>
<path d="M421.336 116.146V123.74H426.867C427.93 123.74 428.68 123.935 429.117 124.326C429.57 124.717 429.797 125.365 429.797 126.271C429.797 127.193 429.57 127.857 429.117 128.264C428.68 128.67 427.93 128.873 426.867 128.873H413.766C412.688 128.873 411.922 128.67 411.469 128.264C411.016 127.857 410.789 127.193 410.789 126.271C410.789 125.365 411.008 124.717 411.445 124.326C411.898 123.935 412.672 123.74 413.766 123.74H415.547V112.349H414.539C413.477 112.349 412.719 112.154 412.266 111.764C411.828 111.357 411.609 110.693 411.609 109.771C411.609 108.849 411.82 108.193 412.242 107.803C412.68 107.412 413.445 107.217 414.539 107.217H419.531C419.953 107.217 420.281 107.31 420.516 107.498C420.75 107.67 420.867 107.912 420.867 108.224V111.693C422.57 109.865 424.156 108.56 425.625 107.779C427.109 106.998 428.703 106.607 430.406 106.607C431.953 106.607 433.18 106.959 434.086 107.662C434.992 108.349 435.445 109.279 435.445 110.451C435.445 111.357 435.133 112.107 434.508 112.701C433.883 113.279 433.078 113.568 432.094 113.568C431.391 113.568 430.555 113.31 429.586 112.795C428.633 112.279 427.969 112.021 427.594 112.021C426.844 112.021 425.961 112.357 424.945 113.029C423.93 113.701 422.727 114.74 421.336 116.146Z" fill="#222222"/>
<path d="M454.102 123.74H459.141C460.219 123.74 460.977 123.935 461.414 124.326C461.852 124.717 462.07 125.365 462.07 126.271C462.07 127.193 461.844 127.857 461.391 128.264C460.953 128.67 460.203 128.873 459.141 128.873H443.25C442.203 128.873 441.453 128.67 441 128.264C440.562 127.857 440.344 127.193 440.344 126.271C440.344 125.349 440.555 124.701 440.977 124.326C441.414 123.935 442.172 123.74 443.25 123.74H448.289V103.396H445.711C444.648 103.396 443.883 103.193 443.414 102.787C442.961 102.365 442.734 101.701 442.734 100.795C442.734 99.8729 442.961 99.2089 443.414 98.8026C443.867 98.3964 444.633 98.1932 445.711 98.1932H452.719C453.156 98.1932 453.492 98.287 453.727 98.4745C453.977 98.6464 454.102 98.8885 454.102 99.201V123.74Z" fill="#222222"/>
<path d="M17.6797 99.7422C17.9141 99.2422 18.1797 98.8984 18.4766 98.7109C18.7734 98.5234 19.2266 98.4297 19.8359 98.4297C20.7422 98.4297 21.3203 98.6016 21.5703 98.9453C21.8359 99.2734 21.9844 99.9375 22.0156 100.938L22.1094 105.438V105.695C22.1094 106.617 21.9219 107.266 21.5469 107.641C21.1875 108 20.5703 108.18 19.6953 108.18C18.5859 108.18 17.7578 107.586 17.2109 106.398C17.1328 106.227 17.0703 106.086 17.0234 105.977C16.5391 105.008 15.8828 104.281 15.0547 103.797C14.2266 103.297 13.25 103.047 12.125 103.047C10.7188 103.047 9.57812 103.375 8.70312 104.031C7.84375 104.672 7.41406 105.5 7.41406 106.516C7.41406 107.953 9.39844 109.086 13.3672 109.914C14.0391 110.055 14.5703 110.164 14.9609 110.242C17.9609 110.898 20.1328 111.898 21.4766 113.242C22.8203 114.586 23.4922 116.422 23.4922 118.75C23.4922 121.625 22.5156 123.844 20.5625 125.406C18.6094 126.953 15.8125 127.727 12.1719 127.727C10.75 127.727 9.47656 127.633 8.35156 127.445C7.24219 127.258 6.16406 126.969 5.11719 126.578C4.86719 126.984 4.57812 127.273 4.25 127.445C3.92188 127.633 3.46875 127.727 2.89062 127.727C1.90625 127.727 1.21875 127.539 0.828125 127.164C0.4375 126.789 0.234375 126.125 0.21875 125.172L0.125 119.664V119.406C0.125 118.375 0.3125 117.656 0.6875 117.25C1.07812 116.844 1.75 116.641 2.70312 116.641C3.71875 116.641 4.57031 117.375 5.25781 118.844C5.41406 119.203 5.53906 119.477 5.63281 119.664C6.24219 120.867 7.08594 121.766 8.16406 122.359C9.25781 122.953 10.5938 123.25 12.1719 123.25C13.6094 123.25 14.7266 122.953 15.5234 122.359C16.3203 121.766 16.7188 120.93 16.7188 119.852C16.7188 118.18 14.9141 116.914 11.3047 116.055C10.2266 115.805 9.375 115.594 8.75 115.422C5.71875 114.625 3.61719 113.633 2.44531 112.445C1.27344 111.242 0.6875 109.602 0.6875 107.523C0.6875 104.852 1.6875 102.672 3.6875 100.984C5.70312 99.2812 8.30469 98.4297 11.4922 98.4297C12.5547 98.4297 13.5938 98.5391 14.6094 98.7578C15.6406 98.9766 16.6641 99.3047 17.6797 99.7422Z" fill="#222222"/>
<path d="M33.4531 110.477L35.3281 122.008L37.8359 113.078C38.1016 112.141 38.4375 111.523 38.8438 111.227C39.25 110.93 39.8516 110.781 40.6484 110.781C41.4453 110.781 42.0469 110.922 42.4531 111.203C42.8594 111.484 43.2031 112.109 43.4844 113.078L46.0859 122.008L47.8672 110.477H47.4688C46.625 110.477 45.9844 110.258 45.5469 109.82C45.1094 109.383 44.8906 108.742 44.8906 107.898C44.8906 106.977 45.1094 106.32 45.5469 105.93C46 105.539 46.7734 105.344 47.8672 105.344H53.375C54.4531 105.344 55.2188 105.547 55.6719 105.953C56.125 106.344 56.3516 106.992 56.3516 107.898C56.3516 108.742 56.125 109.383 55.6719 109.82C55.2344 110.258 54.6016 110.477 53.7734 110.477H53.375L50.4453 125.266C50.2891 126.078 49.9297 126.664 49.3672 127.023C48.8047 127.398 47.9844 127.586 46.9062 127.586C45.8438 127.586 45.0312 127.398 44.4688 127.023C43.9062 126.664 43.5 126.078 43.25 125.266L40.5078 116.148L38.0703 125.266C37.8672 126.047 37.4609 126.625 36.8516 127C36.2422 127.391 35.4141 127.586 34.3672 127.586C33.2891 127.586 32.4766 127.398 31.9297 127.023C31.3828 126.664 31.0312 126.078 30.875 125.266L27.8984 110.477H27.5C26.6719 110.477 26.0469 110.258 25.625 109.82C25.1875 109.383 24.9688 108.742 24.9688 107.898C24.9688 106.992 25.1875 106.344 25.625 105.953C26.0625 105.547 26.8203 105.344 27.8984 105.344H33.4531C34.5312 105.344 35.2891 105.547 35.7266 105.953C36.1641 106.344 36.3828 106.992 36.3828 107.898C36.3828 108.742 36.1641 109.383 35.7266 109.82C35.3047 110.258 34.6797 110.477 33.8516 110.477H33.4531Z" fill="#222222"/>
<path d="M72.7578 121.867H77.7969C78.875 121.867 79.6406 122.062 80.0938 122.453C80.5469 122.844 80.7734 123.492 80.7734 124.398C80.7734 125.32 80.5391 125.984 80.0703 126.391C79.6172 126.797 78.8594 127 77.7969 127H61.9531C60.8906 127 60.125 126.797 59.6562 126.391C59.2031 125.984 58.9766 125.32 58.9766 124.398C58.9766 123.492 59.1953 122.844 59.6328 122.453C60.0859 122.062 60.8594 121.867 61.9531 121.867H66.9922V110.477H64.3438C63.2969 110.477 62.5469 110.281 62.0938 109.891C61.6406 109.484 61.4141 108.82 61.4141 107.898C61.4141 106.977 61.6328 106.32 62.0703 105.93C62.5078 105.539 63.2656 105.344 64.3438 105.344H71.3984C71.8359 105.344 72.1719 105.438 72.4062 105.625C72.6406 105.797 72.7578 106.039 72.7578 106.352V121.867ZM69.3828 94.75C70.5234 94.75 71.2812 94.9688 71.6562 95.4062C72.0312 95.8438 72.2188 96.8906 72.2188 98.5469C72.2188 100.141 72.0469 101.133 71.7031 101.523C71.375 101.898 70.5859 102.086 69.3359 102.086C68.1172 102.086 67.3281 101.906 66.9688 101.547C66.625 101.188 66.4531 100.469 66.4531 99.3906C66.4531 97.3906 66.6328 96.1172 66.9922 95.5703C67.3516 95.0234 68.1484 94.75 69.3828 94.75Z" fill="#222222"/>
<path d="M99.8047 106.023H104.844C105.922 106.023 106.688 106.227 107.141 106.633C107.594 107.023 107.82 107.672 107.82 108.578C107.82 109.484 107.586 110.141 107.117 110.547C106.664 110.953 105.906 111.156 104.844 111.156H99.8047V121.867H104.469C105.547 121.867 106.312 122.062 106.766 122.453C107.219 122.844 107.445 123.492 107.445 124.398C107.445 125.32 107.211 125.984 106.742 126.391C106.289 126.797 105.531 127 104.469 127H91.5547C90.4766 127 89.7109 126.797 89.2578 126.391C88.8047 125.984 88.5781 125.32 88.5781 124.398C88.5781 123.492 88.7969 122.844 89.2344 122.453C89.6875 122.062 90.4609 121.867 91.5547 121.867H94.0391V111.156H91.5547C90.4766 111.156 89.7109 110.953 89.2578 110.547C88.8047 110.141 88.5781 109.484 88.5781 108.578C88.5781 107.656 88.7969 107 89.2344 106.609C89.6875 106.219 90.4609 106.023 91.5547 106.023H94.0391V104.688C94.0391 101.625 94.8281 99.4531 96.4062 98.1719C97.9844 96.875 100.672 96.2266 104.469 96.2266C106.438 96.2266 107.883 96.4609 108.805 96.9297C109.742 97.3984 110.211 98.125 110.211 99.1094C110.211 99.7656 110 100.289 109.578 100.68C109.172 101.07 108.617 101.266 107.914 101.266C107.398 101.266 106.664 101.195 105.711 101.055C104.773 100.914 104.117 100.844 103.742 100.844C102.289 100.844 101.266 101.172 100.672 101.828C100.094 102.469 99.8047 103.609 99.8047 105.25V106.023Z" fill="#222222"/>
<path d="M125.516 106.656H132.664C133.742 106.656 134.508 106.852 134.961 107.242C135.414 107.633 135.641 108.281 135.641 109.188C135.641 110.109 135.406 110.773 134.938 111.18C134.484 111.586 133.727 111.789 132.664 111.789H125.516V117.789C125.516 119.477 125.773 120.633 126.289 121.258C126.805 121.883 127.711 122.195 129.008 122.195C130.227 122.195 131.664 121.844 133.32 121.141C134.977 120.438 136.086 120.086 136.648 120.086C137.289 120.086 137.836 120.344 138.289 120.859C138.758 121.359 138.992 121.969 138.992 122.688C138.992 123.891 137.898 124.992 135.711 125.992C133.539 126.977 131.07 127.469 128.305 127.469C126.695 127.469 125.281 127.25 124.062 126.812C122.844 126.375 121.883 125.75 121.18 124.938C120.664 124.312 120.297 123.562 120.078 122.688C119.859 121.812 119.75 120.352 119.75 118.305V117.789V111.789H117.547C116.484 111.789 115.727 111.586 115.273 111.18C114.836 110.773 114.617 110.109 114.617 109.188C114.617 108.266 114.836 107.617 115.273 107.242C115.711 106.852 116.469 106.656 117.547 106.656H119.75V101.172C119.75 100.094 119.969 99.3359 120.406 98.8984C120.859 98.4609 121.602 98.2422 122.633 98.2422C123.664 98.2422 124.398 98.4609 124.836 98.8984C125.289 99.3359 125.516 100.094 125.516 101.172V106.656Z" fill="#222222"/>
</svg>
