<svg width="271" height="166" viewBox="0 0 271 166" fill="none" xmlns="http://www.w3.org/2000/svg">
<g clip-path="url(#clip0)">
<path d="M0.5 30C0.5 13.7076 13.7076 0.5 30 0.5H241C257.292 0.5 270.5 13.7076 270.5 30V154C270.5 170.292 257.292 183.5 241 183.5H30C13.7076 183.5 0.5 170.292 0.5 154V30Z" fill="#292929" stroke="#444444"/>
<path fill-rule="evenodd" clip-rule="evenodd" d="M153.033 47.105L148.085 45.9878C147.448 45.8129 146.821 45.8679 146.211 46.1524C145.599 46.4371 145.186 46.8645 144.973 47.4339L115.215 132.265C115.002 132.835 115.069 133.372 115.415 133.875C115.76 134.379 116.278 134.719 116.97 134.894L121.917 136.011C122.555 136.188 123.18 136.132 123.792 135.847C124.404 135.561 124.816 135.135 125.028 134.567L154.788 49.734C155 49.1646 154.934 48.6275 154.588 48.1232C154.242 47.6192 153.725 47.2797 153.033 47.105ZM108.436 63.6649C108.436 63.0955 108.169 62.5913 107.638 62.1535L103.648 58.8679C103.116 58.4299 102.504 58.2103 101.813 58.2103C101.122 58.2103 100.509 58.4301 99.9779 58.8679L62.8 89.4882C62.2674 89.9262 62.002 90.4303 62.002 90.9996C62.002 91.569 62.2683 92.0731 62.8 92.5108L99.9777 123.131C100.509 123.57 101.12 123.788 101.813 123.788C102.505 123.788 103.116 123.569 103.648 123.131L107.637 119.847C108.169 119.41 108.435 118.905 108.435 118.335C108.435 117.767 108.169 117.263 107.637 116.825L76.2833 90.9996L107.638 65.1763C108.17 64.7386 108.436 64.2343 108.436 63.6649ZM170.024 58.8672L207.203 89.4875C207.735 89.9253 208 90.4293 208 90.999C208 91.5683 207.735 92.0733 207.203 92.511L170.024 123.131C169.492 123.569 168.881 123.788 168.19 123.788C167.498 123.788 166.888 123.57 166.354 123.131L162.366 119.847C161.834 119.41 161.57 118.906 161.57 118.335C161.57 117.767 161.835 117.263 162.366 116.825L193.721 90.9994L162.366 65.1754C161.834 64.7377 161.57 64.2341 161.57 63.664C161.57 63.0939 161.835 62.5906 162.366 62.1526L166.354 58.8672C166.888 58.4294 167.498 58.2096 168.19 58.2096C168.88 58.2096 169.492 58.4294 170.024 58.8672Z" fill="#444444"/>
</g>
<defs>
<clipPath id="clip0">
<rect width="271" height="166" fill="white"/>
</clipPath>
</defs>
</svg>
