<svg width="56" height="56" viewBox="0 0 56 56" fill="none" xmlns="http://www.w3.org/2000/svg">
<path d="M54.7943 28C54.7943 36.8366 47.4712 44 38.4376 44C29.404 44 22.0808 36.8366 22.0808 28C22.0808 19.1634 29.404 12 38.4376 12C47.4712 12 54.7943 19.1634 54.7943 28Z" fill="white"/>
<path d="M38.7174 12.0024C29.6854 11.853 22.2378 18.8211 22.0835 27.566C21.9959 32.5244 24.0692 37.0364 27.7035 40C27.9411 39.7992 28.4052 39.5596 28.6886 39.4102L33.569 36.8326C34.2091 36.4944 34.6079 35.8448 34.6079 35.1384V33.2021C34.6079 33.2021 33.1752 31.5432 32.629 29.2382C32.1759 28.9543 31.8723 28.4637 31.8723 27.9049V25.7857C31.8723 25.3196 32.0864 24.9031 32.4191 24.6114V21.5481C32.4191 21.5481 31.7692 16.7809 38.4372 16.7809C45.1052 16.7809 44.4552 21.5481 44.4552 21.5481V24.6114C44.7885 24.9031 45.0021 25.3196 45.0021 25.7857V27.9049C45.0021 28.6172 44.5083 29.2166 43.838 29.4168C43.4646 30.541 42.9257 31.6125 42.2134 32.5866C42.0338 32.8322 41.8659 33.0402 41.719 33.2021V35.1874C41.719 35.9183 42.1455 36.587 42.8208 36.9133L48.0469 39.443C48.3605 39.5948 48.9109 39.7867 49.1719 40C52.6964 37.1542 54.7063 32.8991 54.7909 28.1075C54.9464 19.3626 47.75 12.1518 38.7174 12.0024Z" fill="url(#paint0_linear_1196_24199)"/>
<path fill-rule="evenodd" clip-rule="evenodd" d="M30.8733 13.9524C29.3535 14.7385 26.7059 16.6612 25.031 19.7348L24.1485 19.2577C25.9425 15.9658 28.762 13.9176 30.4105 13.0649C38.6717 8.79154 48.8364 11.9698 53.1123 20.1695C57.3882 28.3691 54.1529 38.479 45.8917 42.7524C43.8932 43.7862 40.4911 44.9513 35.6473 44.5358L35.7334 43.5395C40.3646 43.9367 43.5776 42.8226 45.429 41.865C53.2014 37.8444 56.2399 28.3366 52.2213 20.6304C48.2027 12.9242 38.6457 9.93182 30.8733 13.9524Z" fill="#333333"/>
<path d="M35.7911 28C35.7911 36.8366 28.4679 44 19.4343 44C10.4007 44 3.07758 36.8366 3.07758 28C3.07758 19.1634 10.4007 12 19.4343 12C28.4679 12 35.7911 19.1634 35.7911 28Z" fill="white"/>
<path d="M19.6769 12.0024C10.6449 11.853 3.19729 18.8211 3.04298 27.566C2.95534 32.5244 5.02866 37.0364 8.66295 40C8.90058 39.7992 9.36472 39.5596 9.64803 39.4102L14.5285 36.8326C15.1686 36.4944 15.5673 35.8448 15.5673 35.1384V33.2021C15.5673 33.2021 14.1347 31.5432 13.5885 29.2382C13.1354 28.9543 12.8317 28.4637 12.8317 27.9049V25.7857C12.8317 25.3196 13.0459 24.9031 13.3786 24.6114V21.5481C13.3786 21.5481 12.7287 16.7809 19.3967 16.7809C26.0647 16.7809 25.4147 21.5481 25.4147 21.5481V24.6114C25.748 24.9031 25.9616 25.3196 25.9616 25.7857V27.9049C25.9616 28.6172 25.4678 29.2166 24.7975 29.4168C24.4241 30.541 23.8852 31.6125 23.1729 32.5866C22.9933 32.8322 22.8254 33.0402 22.6785 33.2021V35.1874C22.6785 35.9183 23.105 36.587 23.7803 36.9133L29.0064 39.443C29.32 39.5948 29.8703 39.7867 30.1314 40C33.6558 37.1542 35.6658 32.8991 35.7503 28.1075C35.9059 19.3626 28.7095 12.1518 19.6769 12.0024Z" fill="url(#paint1_linear_1196_24199)"/>
<path fill-rule="evenodd" clip-rule="evenodd" d="M36.7216 28C36.7216 37.4058 28.9318 45 19.3608 45C9.78982 45 2 37.4058 2 28C2 18.5942 9.78982 11 19.3608 11C28.9318 11 36.7216 18.5942 36.7216 28ZM19.3608 44C28.3944 44 35.7175 36.8366 35.7175 28C35.7175 19.1634 28.3944 12 19.3608 12C10.3272 12 3.00404 19.1634 3.00404 28C3.00404 36.8366 10.3272 44 19.3608 44Z" fill="#333333"/>
<defs>
<linearGradient id="paint0_linear_1196_24199" x1="54.7943" y1="28.8605" x2="22.0808" y2="28.8605" gradientUnits="userSpaceOnUse">
<stop stop-color="#FF6F3D"/>
<stop offset="1" stop-color="#FF8E3D"/>
</linearGradient>
<linearGradient id="paint1_linear_1196_24199" x1="35.7538" y1="28.8605" x2="3.04031" y2="28.8605" gradientUnits="userSpaceOnUse">
<stop stop-color="#FF6F3D"/>
<stop offset="1" stop-color="#FF8E3D"/>
</linearGradient>
</defs>
</svg>
