<svg width="56" height="56" viewBox="0 0 56 56" fill="none" xmlns="http://www.w3.org/2000/svg">
<path fill-rule="evenodd" clip-rule="evenodd" d="M18 19H5V55H18V19ZM4 18V56H19V18H4Z" fill="#333333"/>
<path fill-rule="evenodd" clip-rule="evenodd" d="M38 25V56H54V31L38 25ZM39 26.443V55H53V31.693L39 26.443Z" fill="#333333"/>
<path fill-rule="evenodd" clip-rule="evenodd" d="M38 7H19V55H38V7ZM18 6V56H39V6H18Z" fill="#333333"/>
<path fill-rule="evenodd" clip-rule="evenodd" d="M7.9961 23L14.9961 23L14.9961 24L7.9961 24L7.9961 23Z" fill="#333333"/>
<path fill-rule="evenodd" clip-rule="evenodd" d="M7.9961 31L14.9961 31L14.9961 32L7.9961 32L7.9961 31Z" fill="#333333"/>
<path fill-rule="evenodd" clip-rule="evenodd" d="M7.9961 39L14.9961 39L14.9961 40L7.9961 40L7.9961 39Z" fill="#333333"/>
<path fill-rule="evenodd" clip-rule="evenodd" d="M42.0039 39.0039L50.0039 39.0039L50.0039 40.0039L42.0039 40.0039L42.0039 39.0039Z" fill="#333333"/>
<path fill-rule="evenodd" clip-rule="evenodd" d="M7.9961 51L14.9961 51L14.9961 52L7.9961 52L7.9961 51Z" fill="#333333"/>
<path fill-rule="evenodd" clip-rule="evenodd" d="M42.0039 48.0039L50.0039 48.0039L50.0039 49.0039L42.0039 49.0039L42.0039 48.0039Z" fill="#333333"/>
<path fill-rule="evenodd" clip-rule="evenodd" d="M7.9961 27L14.9961 27L14.9961 28L7.9961 28L7.9961 27Z" fill="#333333"/>
<path fill-rule="evenodd" clip-rule="evenodd" d="M7.9961 35L14.9961 35L14.9961 36L7.9961 36L7.9961 35Z" fill="#333333"/>
<path fill-rule="evenodd" clip-rule="evenodd" d="M42.0039 36.0039L50.0039 36.0039L50.0039 37.0039L42.0039 37.0039L42.0039 36.0039Z" fill="#333333"/>
<path fill-rule="evenodd" clip-rule="evenodd" d="M42 33.0039L47 33.0039L47 34.0039L42 34.0039L42 33.0039Z" fill="#333333"/>
<path fill-rule="evenodd" clip-rule="evenodd" d="M7.9961 47L14.9961 47L14.9961 48L7.9961 48L7.9961 47Z" fill="#333333"/>
<path fill-rule="evenodd" clip-rule="evenodd" d="M42.0039 45.0039L50.0039 45.0039L50.0039 46.0039L42.0039 46.0039L42.0039 45.0039Z" fill="#333333"/>
<path fill-rule="evenodd" clip-rule="evenodd" d="M42.0039 51.0039L50.0039 51.0039L50.0039 52.0039L42.0039 52.0039L42.0039 51.0039Z" fill="#333333"/>
<path fill-rule="evenodd" clip-rule="evenodd" d="M7.9961 43L14.9961 43L14.9961 44L7.9961 44L7.9961 43Z" fill="#333333"/>
<path fill-rule="evenodd" clip-rule="evenodd" d="M42.0039 42.0039L50.0039 42.0039L50.0039 43.0039L42.0039 43.0039L42.0039 42.0039Z" fill="#333333"/>
<path fill-rule="evenodd" clip-rule="evenodd" d="M22 55L22 10L23 10L23 55L22 55Z" fill="#333333"/>
<path fill-rule="evenodd" clip-rule="evenodd" d="M26 55L26 10L27 10L27 55L26 55Z" fill="#333333"/>
<path fill-rule="evenodd" clip-rule="evenodd" d="M30 55L30 10L31 10L31 55L30 55Z" fill="#333333"/>
<path fill-rule="evenodd" clip-rule="evenodd" d="M34 55L34 10L35 10L35 55L34 55Z" fill="#333333"/>
</svg>
