<svg width="100" height="101" viewBox="0 0 100 101" fill="none" xmlns="http://www.w3.org/2000/svg">
<path d="M42.287 46.8519L45.904 50.4486L42.287 54.0447H16.8267V66.027L1.2998 50.4486L16.8267 35.1318V46.8519H42.287ZM53.4786 16.2537H84.4141V47.1899H53.4786V16.2537Z" fill="#932279"/>
<path d="M53.8157 42.6265L50.2196 46.2434L46.6236 42.6265V17.1661H34.6406L50.2196 1.63922L65.5358 17.1661H53.8157V42.6265ZM53.4784 53.818H84.4139V84.7542H53.4784V53.818Z" fill="#EFA724"/>
<path d="M58.0418 54.1553L54.4242 50.5592L58.0418 46.9632H83.5015V34.9802L99.029 50.5592L83.5015 65.8754V54.1553H58.0418ZM15.9141 53.818H46.8496V84.7542H15.9141V53.818Z" fill="#262577"/>
<path d="M46.5123 58.3814L50.1083 54.7638L53.7051 58.3814V83.8418H65.6874L50.1083 99.3686L34.7929 83.8418H46.5123V58.3814ZM15.9141 16.2537H46.8496V47.1899H15.9141V16.2537Z" fill="#9CCD2A"/>
<path d="M14.8086 15.1486H47.9542V48.2942H14.8086V15.1486ZM17.018 46.0848H45.7441V17.3587H17.018V46.0848ZM52.3736 15.1486H85.5192V48.2942H52.3736V15.1486ZM54.583 46.0848H83.3091V17.3587H54.583V46.0848ZM52.3736 52.7136H85.5192V85.8599H52.3736V52.7136ZM54.583 83.6491H83.3091V54.923H54.583V83.6491ZM14.8086 52.7136H47.9542V85.8599H14.8086V52.7136ZM17.018 83.6491H45.7441V54.923H17.018V83.6491Z" fill="white"/>
<path d="M23.6021 73.9416L0.164062 50.5035L23.6014 27.0662L47.0395 50.5035L23.6021 73.9416ZM3.28932 50.5035L23.6021 70.8163L43.9142 50.5035L23.6014 30.1914L3.28932 50.5035ZM50.1641 47.379L26.7267 23.9416L50.1641 0.50354L73.6014 23.9416L50.1641 47.379ZM29.852 23.9416L50.1641 44.2537L70.4769 23.9416L50.1641 3.6288L29.852 23.9416ZM76.7267 73.9416L53.2893 50.5035L76.7267 27.0662L100.164 50.5035L76.7267 73.9416ZM56.4139 50.5035L76.7267 70.8163L97.0388 50.5035L76.7267 30.1914L56.4139 50.5035ZM50.1641 100.504L26.7267 77.0662L50.1641 53.6288L73.6014 77.0662L50.1641 100.504ZM29.852 77.0662L50.1641 97.3783L70.4769 77.0662L50.1641 56.7541L29.852 77.0662Z" fill="white"/>
</svg>
