<svg width="160" height="56" viewBox="0 0 160 56" fill="none" xmlns="http://www.w3.org/2000/svg">
<g clip-path="url(#clip0_2771_23351)">
<path d="M30.3663 22.7982L35.0851 19.4285L29.3982 16.2837L24.5981 19.2131L30.3663 22.7982Z" fill="black"/>
<path d="M29.8448 28.7964L30.3663 22.7982L24.5982 19.213L24.4795 25.0686L29.8448 28.7964Z" fill="#00550D"/>
<path d="M22.1466 34.8957V28.682L16.3191 24.2629L16.7782 30.3653L22.1466 34.8957Z" fill="#00550D"/>
<path d="M22.1466 28.682L27.9991 24.4878L22.2059 20.6715L16.3191 24.2629L22.1466 28.682Z" fill="black"/>
<path d="M12.8433 42.3128L11.9105 35.9648L6.24438 30.408L7.55291 36.7112L12.8433 42.3128Z" fill="#00550D"/>
<path d="M11.9105 35.9647L19.3797 30.6369L13.5928 25.9243L6.24438 30.4079L11.9105 35.9647Z" fill="black"/>
<path d="M11.4316 32.6669L10.2001 24.2723L3.8833 19.0226L5.57284 27.1673L11.4316 32.6669Z" fill="#00550D"/>
<path d="M10.2001 24.2723L18.8955 19.3317L12.3997 14.9783L3.8833 19.0225L10.2001 24.2723Z" fill="black"/>
<path d="M9.60777 20.2624L7.92136 8.76672L0.841553 4.37476L3.08698 15.1876L9.60777 20.2624Z" fill="#00550D"/>
<path d="M7.92136 8.76666L18.2709 4.80047L10.8976 1.24963L0.841553 4.3747L7.92136 8.76666Z" fill="black"/>
<path d="M34.298 25.2592C29.9196 28.7351 29.8228 28.7965 29.8446 28.7965C30.388 22.5193 30.3412 22.7983 30.3662 22.7983C35.363 19.2225 35.0507 19.4286 35.085 19.4286L34.298 25.2592Z" fill="#14BB60"/>
<path d="M27.6306 30.5589C22.2122 34.8686 22.1248 34.8957 22.1467 34.8957C22.0936 28.3936 22.1248 28.682 22.1467 28.682C28.3926 24.2161 27.9773 24.4878 27.9991 24.4878L27.6306 30.5589Z" fill="#14BB60"/>
<path d="M19.6482 36.9048C12.8838 42.2826 12.8213 42.3127 12.8432 42.3127C11.8844 35.7732 11.9105 35.9648 11.9105 35.9648C19.8647 30.2934 19.3578 30.6369 19.3796 30.6369L19.6482 36.9048Z" fill="#14BB60"/>
<path d="M18.271 4.80042C18.7457 15.8464 18.7082 15.5248 18.7332 15.5248C9.78273 20.1749 9.58598 20.2623 9.60784 20.2623C7.88395 8.51052 7.89957 8.76661 7.92143 8.76661L18.271 4.80042Z" fill="#14BB60"/>
<path d="M18.8956 19.3317C19.2547 27.7044 19.2079 27.414 19.2422 27.414C11.4941 32.62 11.4035 32.6668 11.4316 32.6668C10.1824 24.0536 10.1814 24.2722 10.2001 24.2722L18.8956 19.3317Z" fill="#14BB60"/>
<path d="M48.1892 5.6967L53.3671 4.44751V29.3939C53.3671 32.1275 54.1822 33.7567 55.8124 34.2814C55.0129 35.8032 53.646 36.5634 51.7119 36.5612C49.3635 36.5612 48.1892 34.931 48.1892 31.6706V5.6967ZM64.3757 36.1396V13.9601H56.2996V18.2074H59.1353V36.1396H64.3757ZM58.8042 8.36998C58.8042 10.0292 60.1493 11.3743 61.8086 11.3743C63.4678 11.3743 64.8129 10.0292 64.8129 8.36998C64.811 6.71136 63.4672 5.36567 61.8086 5.36567C60.1499 5.36567 58.8058 6.71136 58.8042 8.36998ZM88.1322 36.1458V22.5358C88.1344 19.7042 87.3711 17.4985 85.8431 15.9182C84.315 14.338 82.2329 13.5479 79.5971 13.5479C76.8426 13.5479 74.7605 14.3808 73.3511 16.0463L72.4142 13.9726H68.6854V36.1458H73.8664V20.1124C74.4061 19.4322 75.0969 18.8869 75.8839 18.5197C76.6352 18.1203 77.4691 17.9001 78.3198 17.8764C79.9625 17.8764 81.1461 18.3136 81.8706 19.1818C82.5951 20.0499 82.9574 21.4334 82.9574 23.3228V36.1458H88.1322ZM93.7255 33.3976C95.5952 35.5047 98.2154 36.5581 101.586 36.5581C104.892 36.5581 107.495 35.5172 109.393 33.4351C111.292 31.353 112.242 28.5423 112.242 25.003C112.231 21.4553 111.294 18.6593 109.431 16.6147C107.567 14.57 104.95 13.5479 101.58 13.5479C98.3756 13.5479 95.797 14.6106 93.8442 16.7365C91.8913 18.8623 90.9128 21.6177 90.9148 25.003C90.9168 28.4923 91.8557 31.2905 93.7255 33.3976ZM97.7291 19.6752C98.6154 18.4391 100.06 17.7258 101.58 17.7733C105.088 17.7755 106.842 20.1852 106.842 25.003C106.844 27.3515 106.371 29.1597 105.424 30.4276C104.543 31.6675 103.1 32.3836 101.58 32.3358C98.0592 32.3336 96.2988 29.8895 96.2988 25.003C96.2988 22.7232 96.7757 20.9472 97.7291 19.6752ZM134.79 36.1458V4.44751L129.612 5.69671V14.5847C128.183 13.8814 126.607 13.526 125.015 13.5479C122.104 13.4817 119.309 14.6881 117.36 16.852C115.324 19.0547 114.306 21.9091 114.306 25.4152C114.306 28.9233 115.193 31.6581 116.967 33.6193C118.741 35.5806 121.174 36.5612 124.268 36.5612C125.347 36.5618 126.418 36.3835 127.438 36.0334C128.467 35.6796 129.195 35.2683 129.624 34.7998V36.1458H134.79ZM129.624 30.843C129.402 31.1459 128.931 31.4332 128.206 31.7455C127.629 32.0076 127.007 32.1581 126.373 32.189C121.926 32.189 119.702 29.8833 119.702 25.2716C119.711 22.9106 120.27 21.0983 121.38 19.8345C122.489 18.5706 124.085 17.9388 126.167 17.9388C127.438 17.9663 128.66 18.4344 129.624 19.263V30.843ZM159.158 23.7632C159.16 20.7942 158.187 18.3501 156.238 16.4304C154.29 14.5107 151.707 13.551 148.49 13.551C145.56 13.512 142.744 14.689 140.714 16.802C138.553 18.9716 137.472 21.8029 137.472 25.2966C137.472 28.8483 138.456 31.6153 140.423 33.5975C142.391 35.5796 145.066 36.5705 148.45 36.5705C152.068 36.5684 154.788 35.8295 156.61 34.3532L154.602 30.387C153.371 31.6153 151.576 32.2296 149.215 32.2296C147.322 32.2318 145.817 31.7424 144.699 30.7618C143.581 29.7812 142.974 28.4071 142.878 26.6395H158.724C158.965 25.6979 159.111 24.7341 159.158 23.7632ZM148.574 17.8764C151.804 17.8785 153.598 19.5012 153.959 22.7451H143.062C143.781 19.4994 145.618 17.8764 148.574 17.8764Z" fill="black"/>
<path d="M82.8419 50.4842C82.8197 50.613 82.7967 50.7182 82.7866 50.7654C82.5222 51.9907 82.323 52.44 81.7708 52.8148C81.2521 53.1662 80.7551 53.2482 79.2316 53.2482C77.9729 53.2482 77.5369 53.148 77.1118 52.7797C76.8502 52.5531 76.6812 52.077 76.6812 51.5617C76.6812 51.1401 76.913 49.6527 77.1669 48.4347C77.3988 47.3689 77.5629 46.8643 77.8074 46.4905C78.1913 45.9035 78.779 45.5303 79.5295 45.3898C79.9272 45.3194 80.3798 45.296 81.285 45.296C82.4443 45.296 82.8738 45.4023 83.162 45.7645C83.349 45.9994 83.438 46.2915 83.438 46.7014C83.438 46.9356 83.4049 47.1933 83.2945 47.8608H82.1683C82.2566 47.3455 82.2788 47.1933 82.2788 46.9943C82.2788 46.4671 82.0026 46.3266 80.9539 46.3266C79.2536 46.3266 78.8667 46.5022 78.6023 47.3689C78.4916 47.7319 78.4257 48.0131 78.1827 49.3014C77.9397 50.5428 77.8845 50.9176 77.8845 51.3391C77.8845 52.0536 78.1937 52.2175 79.5076 52.2175C81.2631 52.2175 81.4397 52.077 81.7267 50.4842H82.8419Z" fill="#BABABA"/>
<path d="M84.399 53.1779H83.3833L84.951 45.3662H85.9667L84.399 53.1779Z" fill="#BABABA"/>
<path d="M90.7469 47.9545C90.9899 48.1537 91.1333 48.5285 91.1333 48.9734C91.1333 49.4302 90.9804 50.3441 90.7691 51.1519C90.3306 52.8274 89.7863 53.2483 88.042 53.2483C87.1366 53.2483 86.6839 53.1545 86.397 52.932C86.143 52.7328 86.0105 52.3464 86.0105 51.8662C86.0105 51.2924 86.2755 49.8987 86.5405 49.1139C86.7833 48.388 87.2178 47.9565 87.8432 47.7673C88.1323 47.6798 88.5498 47.6384 89.1129 47.6384C90.0293 47.6384 90.4709 47.7203 90.7469 47.9545ZM87.501 49.3952C87.2912 50.0743 87.0704 51.2337 87.0704 51.6321C87.0704 52.2411 87.2802 52.3816 88.1965 52.3816C89.124 52.3816 89.4442 52.1708 89.665 51.3744C89.8746 50.6249 90.0625 49.5941 90.0625 49.2311C90.0625 48.6456 89.8416 48.5051 88.9362 48.5051C88.0088 48.5051 87.7108 48.6924 87.501 49.3952Z" fill="#BABABA"/>
<path d="M96.0358 53.1778H95.0199L95.2518 52.3463L95.2297 52.3346C94.8432 52.967 94.2693 53.2482 93.3639 53.2482C92.4033 53.2482 91.9065 52.8498 91.9065 52.0886C91.9065 51.8779 91.9285 51.632 91.9838 51.3625L92.7234 47.7085H93.7393L93.0327 51.1986C92.9774 51.4679 92.9554 51.6671 92.9554 51.7959C92.9554 52.2057 93.2094 52.3698 93.8165 52.3698C94.8654 52.3698 95.2518 51.9951 95.5058 50.7653L96.1129 47.7085H97.1287L96.0358 53.1778Z" fill="#BABABA"/>
<path d="M101.92 53.1779H100.927L101.126 52.3816L101.104 52.3699C100.717 53.0023 100.209 53.2483 99.3259 53.2483C98.1777 53.2483 97.6477 52.8265 97.6477 51.9365C97.6477 51.4446 97.7912 50.5428 98.0122 49.6879C98.3875 48.2005 99.0389 47.6384 100.397 47.6384C101.313 47.6384 101.744 47.8843 101.832 48.4464L101.854 48.4347L102.472 45.3662H103.488L101.92 53.1779ZM99.1161 49.4887C98.9064 50.1681 98.7298 51.1285 98.7298 51.5617C98.7298 52.1824 98.9837 52.3816 99.7675 52.3816C100.607 52.3816 100.982 52.1239 101.203 51.3978C101.424 50.6833 101.6 49.7699 101.6 49.3834C101.6 48.751 101.313 48.5168 100.518 48.5168C99.6792 48.5168 99.3371 48.751 99.1161 49.4887Z" fill="#BABABA"/>
<path d="M112.685 50.4842C112.663 50.613 112.64 50.7182 112.63 50.7654C112.364 51.9902 112.166 52.44 111.614 52.8148C111.095 53.1662 110.599 53.2482 109.075 53.2482C107.816 53.2482 107.38 53.148 106.955 52.7797C106.694 52.5531 106.525 52.077 106.525 51.5617C106.525 51.1401 106.756 49.6527 107.01 48.4347C107.242 47.3689 107.406 46.8642 107.651 46.4905C108.035 45.9034 108.622 45.5303 109.373 45.3898C109.771 45.3194 110.223 45.296 111.129 45.296C112.288 45.296 112.717 45.4023 113.006 45.7645C113.192 45.9994 113.282 46.2915 113.282 46.7014C113.282 46.9356 113.248 47.1933 113.138 47.8608H112.012C112.1 47.3455 112.122 47.1933 112.122 46.9943C112.122 46.4671 111.846 46.3266 110.797 46.3266C109.097 46.3266 108.71 46.5021 108.446 47.3689C108.335 47.7318 108.269 48.0131 108.026 49.3014C107.783 50.5428 107.728 50.9176 107.728 51.3391C107.728 52.0536 108.037 52.2175 109.351 52.2175C111.107 52.2175 111.283 52.077 111.57 50.4842H112.685Z" fill="#BABABA"/>
<path d="M118.14 47.9545C118.383 48.1537 118.526 48.5285 118.526 48.9734C118.526 49.4302 118.373 50.3441 118.162 51.1519C117.724 52.8275 117.179 53.2483 115.435 53.2483C114.53 53.2483 114.077 53.1545 113.79 52.932C113.536 52.7328 113.403 52.3464 113.403 51.8662C113.403 51.2924 113.668 49.8987 113.933 49.1139C114.176 48.388 114.611 47.9565 115.236 47.7673C115.525 47.6798 115.943 47.6384 116.506 47.6384C117.422 47.6384 117.864 47.7203 118.14 47.9545ZM114.894 49.3952C114.684 50.0743 114.463 51.2337 114.463 51.6321C114.463 52.2411 114.673 52.3816 115.589 52.3816C116.517 52.3816 116.837 52.1708 117.058 51.3744C117.268 50.6249 117.455 49.5941 117.455 49.2311C117.455 48.6456 117.234 48.5051 116.329 48.5051C115.402 48.5051 115.103 48.6924 114.894 49.3952Z" fill="#BABABA"/>
<path d="M121.132 47.7086L120.944 48.5402L120.955 48.5519C121.386 47.8961 121.905 47.6384 122.766 47.6384C123.66 47.6384 124.135 47.9779 124.146 48.6104H124.168C124.61 47.9195 125.162 47.6384 126.067 47.6384C127.083 47.6384 127.558 48.0015 127.558 48.8095C127.558 49.0204 127.535 49.2194 127.458 49.5825L126.74 53.1779H125.725L126.42 49.6879C126.464 49.5006 126.498 49.2077 126.498 49.1022C126.498 48.6924 126.255 48.5285 125.67 48.5285C125.029 48.5285 124.554 48.7273 124.334 49.0672C124.212 49.2546 124.113 49.5591 124.025 49.9925L123.384 53.1779H122.369L123.064 49.6996C123.119 49.4653 123.163 49.1375 123.163 49.0555C123.163 48.7041 122.876 48.5285 122.313 48.5285C121.342 48.5285 120.889 48.95 120.668 50.0393L120.039 53.1779H119.023L120.116 47.7086H121.132Z" fill="#BABABA"/>
<path d="M130.219 47.7086L130.009 48.4815L130.031 48.4934C130.44 47.8727 130.937 47.6384 131.82 47.6384C132.957 47.6384 133.487 48.0717 133.487 49.0087C133.487 49.5357 133.332 50.4608 133.101 51.2924C132.692 52.7328 132.085 53.2483 130.771 53.2483C129.811 53.2483 129.38 53.014 129.292 52.4167L129.27 52.4284L128.651 55.5203H127.635L129.203 47.7086H130.219ZM129.976 49.3599C129.788 49.8401 129.546 51.0581 129.546 51.4916C129.546 52.1121 129.855 52.3699 130.628 52.3699C131.478 52.3699 131.853 52.0887 132.074 51.2573C132.262 50.5662 132.416 49.6996 132.416 49.3248C132.416 48.7158 132.162 48.5168 131.378 48.5168C130.55 48.5168 130.23 48.7158 129.976 49.3599Z" fill="#BABABA"/>
<path d="M138.411 53.1778H137.396L137.628 52.3463L137.605 52.3346C137.219 52.967 136.645 53.2482 135.74 53.2482C134.779 53.2482 134.282 52.8498 134.282 52.0886C134.282 51.8779 134.304 51.632 134.36 51.3625L135.099 47.7085H136.115L135.408 51.1986C135.353 51.4679 135.331 51.6671 135.331 51.7959C135.331 52.2057 135.585 52.3698 136.192 52.3698C137.241 52.3698 137.628 51.9951 137.881 50.7653L138.489 47.7085H139.504L138.411 53.1778Z" fill="#BABABA"/>
<path d="M143.81 48.5518H141.834L141.227 51.5734C141.194 51.7492 141.172 51.9131 141.172 51.9951C141.172 52.2995 141.293 52.3933 141.691 52.3933C142.132 52.3933 142.295 52.275 142.441 51.8661C142.517 51.6548 142.574 51.4329 142.607 51.1518H143.49C143.336 51.9715 143.269 52.2054 143.093 52.4868C142.749 53.0365 142.287 53.2482 141.437 53.2482C140.52 53.2482 140.101 52.967 140.101 52.358C140.101 52.1707 140.112 52.0653 140.189 51.6788L140.818 48.5518H140.123L140.3 47.7086H140.984L141.238 46.4437H142.254L142 47.7086H143.976L143.81 48.5518Z" fill="#BABABA"/>
<path d="M144.926 53.1779H143.91L145.003 47.7086H146.019L144.926 53.1779ZM146.284 46.3853H145.268L145.478 45.3662H146.493L146.284 46.3853Z" fill="#BABABA"/>
<path d="M148.459 47.7086L148.26 48.5519L148.282 48.5636C148.646 47.9312 149.22 47.6384 150.104 47.6384C151.152 47.6384 151.694 47.9896 151.694 48.6807C151.694 48.915 151.671 49.0438 151.583 49.5357L150.843 53.1779H149.828L150.512 49.7933C150.6 49.3835 150.611 49.278 150.611 49.1258C150.611 48.6807 150.369 48.5168 149.706 48.5168C148.712 48.5168 148.216 48.9266 148.017 49.9104L147.366 53.1779H146.35L147.443 47.7086H148.459Z" fill="#BABABA"/>
<path d="M156.673 53.4005C156.331 55.0986 155.679 55.6139 153.847 55.6139C152.588 55.6139 152.047 55.2977 152.047 54.5716C152.047 54.3373 152.069 54.1734 152.146 53.787H153.118C153.074 54.0329 153.063 54.1148 153.063 54.2555C153.063 54.6419 153.306 54.7591 154.112 54.7591C155.083 54.7591 155.436 54.4779 155.613 53.5878L155.845 52.4167H155.834C155.492 52.9906 154.973 53.2364 154.067 53.2364C152.974 53.2364 152.422 52.7798 152.422 51.8545C152.422 51.3978 152.566 50.5546 152.798 49.6528C153.052 48.7041 153.334 48.2397 153.88 47.9312C154.219 47.739 154.675 47.6384 155.216 47.6384C156.121 47.6384 156.507 47.8844 156.651 48.5402L156.673 48.5285L156.794 47.7086H157.81L156.673 53.4005ZM153.869 49.5591C153.681 50.2266 153.504 51.2221 153.504 51.5734C153.504 52.1591 153.758 52.3581 154.542 52.3581C155.392 52.3581 155.801 52.0653 156.022 51.2924C156.198 50.66 156.386 49.6996 156.386 49.3718C156.386 48.7275 156.121 48.5168 155.304 48.5168C154.443 48.5168 154.079 48.7861 153.869 49.5591Z" fill="#BABABA"/>
<path d="M40.4634 50.2656H38.5047L40.1953 46.8494H40.2186L40.4634 50.2656ZM40.5567 51.8047L40.6733 53.1572H42.8186L42.1074 45.2637H38.9127L34.8669 53.1572H37.0589L37.7351 51.8047H40.5567ZM46.7712 45.2637H44.9523L43.285 53.1572H45.0922L45.5702 50.9185H45.885L46.7362 53.1572H48.8466L47.5407 50.2889L49.6627 47.6306H47.6806L46.1416 49.706H45.8268L46.7712 45.2637ZM51.9829 50.8719C52.5776 50.8719 52.9655 50.9192 52.869 51.3732C52.7449 51.9571 52.4959 52.0495 51.7381 52.0495C51.4582 52.0495 50.9471 52.0499 51.0735 51.4549C51.1799 50.9538 51.5398 50.8719 51.9829 50.8719ZM52.4843 53.1571H54.2915L55.026 49.7059C55.4341 47.8055 54.6996 47.5723 52.8457 47.5723C51.5515 47.5723 50.304 47.5607 49.9309 49.2745H51.7381C51.843 48.7732 52.1462 48.6799 52.6009 48.6799C53.3937 48.6799 53.3587 49.0064 53.2421 49.5194L53.0556 50.3939H52.9739C52.904 49.7643 52.1112 49.7759 51.5982 49.7759C50.2923 49.7759 49.5139 50.1846 49.2313 51.5132C48.9311 52.9246 49.6044 53.2271 50.8636 53.2271C51.4932 53.2271 52.3444 53.0989 52.6358 52.341H52.6942L52.4843 53.1571ZM56.2153 47.6306L55.0377 53.1572H56.8449L57.5095 50.0208C57.6494 49.3562 57.8709 48.9598 58.6171 48.9598C59.2467 48.9598 59.2001 49.3095 59.1185 49.8109L58.4072 53.1572H60.2145L60.8791 50.0208C60.9957 49.4261 61.2405 48.9598 61.94 48.9598C62.6396 48.9598 62.5463 49.3795 62.4531 49.9625L61.7768 53.1572H63.584L64.3885 49.3795C64.6683 48.097 64.1203 47.5723 62.8495 47.5723C62.1499 47.5723 61.3454 47.8638 61.0773 48.6566H60.9957C61.1006 47.7122 60.3311 47.5723 59.5499 47.5723C58.9319 47.5723 58.2207 47.7588 57.8593 48.4118H57.7893L57.9525 47.6306H56.2153ZM67.2334 50.8719C67.8164 50.8719 68.2117 50.9183 68.1195 51.3732C68.0015 51.956 67.7465 52.0495 66.9886 52.0495C66.7204 52.0495 66.1976 52.0499 66.324 51.4549C66.4304 50.9538 66.7903 50.8719 67.2334 50.8719ZM67.7348 53.1571H69.542L70.2765 49.7059C70.6846 47.8055 69.9501 47.5723 68.0962 47.5723C66.802 47.5723 65.5428 47.5607 65.1814 49.2745H66.9886C67.0935 48.7732 67.3967 48.6799 67.8514 48.6799C68.6442 48.6799 68.6092 49.0064 68.4926 49.5194L68.3294 50.3939H68.2478C68.1778 49.7643 67.385 49.7759 66.872 49.7759C65.5661 49.7759 64.7877 50.1846 64.5051 51.5132C64.2049 52.9246 64.8782 53.2271 66.1374 53.2271C66.767 53.2271 67.6182 53.0989 67.9213 52.341H67.9796L67.7348 53.1571ZM73.3196 47.6306H71.5124L70.3465 53.1571H72.1537L73.3196 47.6306ZM72.7133 45.0889C72.1537 45.0889 71.699 45.5436 71.699 46.1032C71.699 46.6628 72.1537 47.1175 72.7133 47.1175C73.2729 47.1175 73.7277 46.6628 73.7277 46.1032C73.7277 45.5436 73.273 45.0889 72.7133 45.0889Z" fill="#BABABA"/>
</g>
<defs>
<clipPath id="clip0_2771_23351">
<rect width="160" height="55" fill="white" transform="translate(0 0.931763)"/>
</clipPath>
</defs>
</svg>
