<svg width="152" height="36" viewBox="0 0 152 36" fill="none" xmlns="http://www.w3.org/2000/svg">
<g clip-path="url(#clip0_1439_12231)">
<path d="M147.5 19.7C149.7 18.8 151.5 16.5 151.5 14C151.5 10.7 148.8 8 145.5 8H136.5C135.9 8 135.5 8.4 135.5 9V27C135.5 27.6 135.9 28 136.5 28H137.5C138.1 28 138.5 27.6 138.5 27V20H144.5L148.8 27.5C149 27.8 149.3 28 149.7 28H150.4C151 28 151.5 27.5 151.5 26.9C151.5 26.7 151.5 26.5 151.4 26.4L147.5 19.7ZM138.5 17V11H145.3C147 11 148.5 12.3 148.5 14C148.5 15.8 147.3 17 145.5 17H138.5ZM129.5 8H114.5C113.9 8 113.5 8.4 113.5 9V10C113.5 10.6 113.9 11 114.5 11H120.5V27C120.5 27.6 120.9 28 121.5 28H122.5C123.1 28 123.5 27.6 123.5 27V11H129.5C130.1 11 130.5 10.6 130.5 10V9C130.5 8.4 130.1 8 129.5 8ZM113.5 25H104.5V9C104.5 8.4 104.1 8 103.5 8C103.4 8 102.6 8 102.5 8C101.9 8 101.5 8.5 101.5 9.1V26.9C101.5 27.5 102 28 102.5 28H113.5C114.1 28 114.5 27.5 114.5 26.9C114.5 26.8 114.5 26.1 114.5 26C114.5 25.4 114.1 25 113.5 25ZM95.5 8H94.5C93.9 8 93.5 8.4 93.5 9V20C93.5 22.9 91.4 25 88.5 25C85.6 25 83.5 22.9 83.5 20V9C83.5 8.4 83.1 8 82.5 8H81.5C80.9 8 80.5 8.4 80.5 9V19.9C80.5 24.4 84.1 28 88.5 28C92.9 28 96.5 24.4 96.5 19.9V9C96.5 8.4 96 8 95.5 8ZM76.4 8H75.7C75.3 8 74.9 8.3 74.7 8.7L68.5 24.1L62.3 8.7C62.1 8.3 61.7 8 61.3 8H60.6C60 8 59.5 8.5 59.5 9.1C59.5 9.2 59.5 9.4 59.6 9.5L66.8 27.4C67 27.8 67.4 28.1 67.8 28.1H69.2C69.6 28.1 70 27.8 70.2 27.4L77.4 9.5C77.5 9.3 77.5 9.2 77.5 9.1C77.5 8.5 77 8 76.4 8Z" fill="white"/>
<path d="M0.329055 4.22042C0.120311 3.89585 0 3.51264 0 3.1001C0 1.94034 0.956316 1 2.13578 1H13.0758C13.8368 1 14.6226 1.41052 15 2L24.672 17.2497C24.8807 17.5733 25 17.9575 25 18.3691C25 18.7816 24.8807 19.1648 24.672 19.4884L19.2014 28.0202C18.824 28.6087 18.1556 29 17.3957 29C16.6338 29 15.3284 27.5885 14.95 27L0.329055 4.22042Z" fill="#1494F8"/>
<path d="M2.25 7.22042C2.04126 6.89585 2 6.51264 2 6.1001C2 4.94034 2.95632 4 4.13578 4H14.9062C15.6672 4 16.5226 4.41052 16.9 5L22 13C22.2087 13.3236 27 20.9575 27 21.3691C27 21.7816 26.8807 22.1648 26.672 22.4884L21.2014 31.0202C20.824 31.6087 20.1556 32 19.3957 32C18.6338 32 17.9664 31.6087 17.588 31.0202L2.25 7.22042Z" fill="#67C7FC"/>
<path d="M4.8 11.2204C4.59126 10.8959 4.49995 10.5126 4.49995 10.1001C4.49995 8.94034 5.45627 8 6.63573 8H17.5758C18.3367 8 19.0726 8.3913 19.45 8.98079L29.1719 24.2497C29.3807 24.5733 29.5 24.9575 29.5 25.3691C29.5 25.7816 29.3807 26.1648 29.1719 26.4884L23.7014 35.0202C23.324 35.6087 22.6556 36 21.8957 36C21.1337 36 20.4663 35.6087 20.0879 35.0202L4.8 11.2204Z" fill="white"/>
<path d="M30.7886 16.0301C31.1647 16.6126 31.832 17 32.5904 17C33.3489 17 34.0151 16.6126 34.3902 16.0301L39.8429 7.58414C40.051 7.26284 40.1709 6.88248 40.1709 6.47509C40.1709 6.06771 40.051 5.68735 39.8429 5.36705L37.0038 0.970914C36.6277 0.387365 35.9615 0 35.202 0H24.3007C23.1251 0 22.1709 0.930876 22.1709 2.07896C22.1709 2.48634 22.2908 2.8667 22.4989 3.188L30.7886 16.0301Z" fill="white"/>
</g>
<defs>
<clipPath id="clip0_1439_12231">
<rect width="152" height="36" fill="white"/>
</clipPath>
</defs>
</svg>
