<svg width="448" height="254" viewBox="0 0 448 254" fill="none" xmlns="http://www.w3.org/2000/svg">
<g clip-path="url(#clip0_19_261447)">
<path d="M356.5 254C392.675 254 422 251.761 422 249C422 246.239 392.675 244 356.5 244C320.325 244 291 246.239 291 249C291 251.761 320.325 254 356.5 254Z" fill="#EFEFEF"/>
<rect x="0.5" y="0.5" width="287" height="253" rx="3.5" fill="white"/>
<rect x="0.5" y="0.5" width="287" height="253" rx="3.5" stroke="#333333"/>
<mask id="path-3-inside-1_19_261447" fill="white">
<path d="M1 1H288V67H1V1Z"/>
</mask>
<path d="M1 1H288V67H1V1Z" fill="#F5F5F5"/>
<path d="M288 66H1V68H288V66Z" fill="#CCCCCC" mask="url(#path-3-inside-1_19_261447)"/>
<path d="M64.2864 25.3907C62.1648 23.2796 60.1405 21.2686 59.5374 19C58.9353 21.2686 56.91 23.2796 54.7894 25.3907C51.608 28.5542 48 32.14 48 37.5188C48 43.8595 53.1661 49 59.5385 49C65.9108 49 71.0769 43.8595 71.0769 37.5188C71.0759 32.1411 67.4689 28.5542 64.2864 25.3907ZM52.9041 40.1939C52.1962 40.1705 49.5859 35.6918 54.429 30.9238L57.635 34.4075C57.743 34.5129 57.7441 34.6863 57.6371 34.7927C57.6296 34.8002 57.6222 34.8076 57.6136 34.814C56.849 35.595 53.5885 38.8478 53.1832 39.9725C53.0998 40.2056 52.9779 40.196 52.9041 40.1939ZM59.5385 46.0962C57.3473 46.0962 55.57 44.3288 55.57 42.1475C55.57 41.1473 55.97 40.2566 56.5592 39.5395C57.2746 38.6691 59.5374 36.2207 59.5374 36.2207C59.5374 36.2207 61.766 38.7053 62.5102 39.532C63.1593 40.2492 63.5144 41.1834 63.5058 42.1485C63.5069 44.3277 61.7296 46.0962 59.5385 46.0962ZM67.1331 39.6927C67.0475 39.8789 66.854 40.1896 66.592 40.1992C66.1258 40.2162 66.0755 39.9779 65.7301 39.4703C64.973 38.3552 58.3622 31.4814 57.126 30.1513C56.0395 28.9819 56.9731 28.1573 57.4072 27.7253C57.9505 27.1837 59.5385 25.6046 59.5385 25.6046C59.5385 25.6046 64.2715 30.0726 66.2423 33.1253C68.2132 36.1781 67.5341 38.8212 67.1331 39.6927Z" fill="#009CDE"/>
<path d="M105.108 30.9697H102.71L102.714 35.4564C102.714 36.7676 102.152 37.8284 100.841 37.8284C99.529 37.8284 98.9617 36.7676 98.9617 35.4564V30.9741H96.57L96.5693 35.4564C96.5693 38.0474 98.2348 40.1474 100.826 40.1474C103.417 40.1474 105.107 38.0474 105.107 35.4564L105.108 30.9697Z" fill="#009CDE"/>
<path d="M129.117 28.2358H126.73V39.9158H129.117V28.2358Z" fill="#009CDE"/>
<path d="M130.879 28.457V28.2471H131.809V28.4569H131.469V29.3816H131.219V28.457H130.879Z" fill="#009CDE"/>
<path d="M132.29 28.2471L132.555 29.0272H132.559L132.809 28.2471H133.161V29.3816H132.927V28.5775H132.924L132.646 29.3816H132.454L132.176 28.5855H132.173V29.3816H131.939V28.2471H132.29Z" fill="#009CDE"/>
<path d="M94.6196 30.8722C92.5628 30.3975 91.2653 32.4409 91.2114 32.5504C91.1849 32.6042 91.1839 32.6355 91.0927 32.6331C91.0175 32.6316 91.0088 32.5504 91.0088 32.5504L90.7536 30.9873H88.6162V39.9081H91.0122V35.0795C91.0122 34.6849 92.0749 32.793 94.1336 33.28C95.1747 33.5263 95.6163 33.9681 95.6163 33.9681C95.6163 33.9681 95.6163 32.2462 95.6163 31.2506C95.231 31.0497 94.9667 30.9523 94.6196 30.8722Z" fill="#009CDE"/>
<path d="M108.36 42.8463V39.6365C108.36 39.6365 108.361 39.6368 108.361 39.637L108.361 38.435C108.361 38.435 108.365 38.3388 108.452 38.3376C108.529 38.3367 108.546 38.388 108.565 38.435C108.747 38.887 109.746 40.6093 111.963 40.0691C113.948 39.5099 115.404 37.6873 115.404 35.5227C115.404 32.9148 113.289 30.7998 110.681 30.7998C108.072 30.7998 105.958 32.9148 105.958 35.5227C105.958 35.5227 105.958 41.9791 105.958 42.8462L108.36 42.8463ZM110.683 33.1326C112.003 33.1326 113.074 34.2031 113.074 35.5228C113.074 36.8435 112.003 37.9142 110.683 37.9142C109.362 37.9142 108.292 36.8437 108.292 35.5228C108.292 34.2031 109.362 33.1326 110.683 33.1326Z" fill="#009CDE"/>
<path d="M123.359 39.912H125.762V35.5227C125.762 32.9148 123.647 30.7998 121.039 30.7998C118.43 30.7998 116.315 32.9148 116.315 35.5227C116.315 37.6872 117.771 39.5098 119.756 40.0691C121.974 40.6093 122.972 38.887 123.154 38.435C123.173 38.388 123.19 38.3368 123.268 38.3376C123.354 38.3388 123.358 38.435 123.358 38.435M123.427 35.5227C123.427 36.8434 122.357 37.9141 121.037 37.9141C119.716 37.9141 118.646 36.8435 118.646 35.5227C118.646 34.203 119.716 33.1325 121.037 33.1325C122.357 33.1325 123.427 34.203 123.427 35.5227Z" fill="#009CDE"/>
<path d="M81.1103 39.8935H78.3848V28.231H81.3092C84.8505 28.231 87.5363 28.8807 87.5363 34.0623C87.5363 39.1937 84.6913 39.8935 81.1103 39.8935ZM81.761 30.2525H80.7975V37.87L81.787 37.8953C83.8161 37.8953 85.1231 37.7106 85.1231 34.0622C85.1231 30.5634 83.9693 30.2525 81.761 30.2525Z" fill="#009CDE"/>
<path fill-rule="evenodd" clip-rule="evenodd" d="M348.868 23.639C348.906 21.8244 348.839 20.3075 348.69 19.045C348.503 17.5041 348.181 16.3184 347.758 15.4207C347.446 14.7582 346.975 14.1198 346.404 13.6061C345.861 13.1117 345.217 12.7181 344.525 12.5068C343.661 12.2428 342.82 12.2956 342.004 12.5452C341.24 12.7757 340.51 13.1789 339.794 13.6493C339.439 13.8798 339.131 14.1006 338.838 14.3118C337.623 15.1807 336.652 15.8767 334.909 15.4063C334.789 15.3727 334.673 15.3151 334.577 15.2335C334.438 15.1135 334.328 14.9502 334.27 14.7582C334.208 14.5518 334.203 14.3118 334.275 14.043C334.347 13.7645 334.51 13.4621 334.774 13.1501L334.808 13.1021C334.904 12.9677 335.024 12.8333 335.163 12.6989C336.335 11.5564 338.675 10.6731 341.336 10.4907C344.016 10.3083 346.994 10.8603 349.396 12.5981C349.857 12.9293 350.294 13.3037 350.707 13.7309C351.683 14.7342 352.432 16.1311 352.821 18.0321C353.157 19.6786 353.224 21.6996 352.936 24.167C352.802 23.9222 352.638 23.7062 352.446 23.5238C352.076 23.1781 351.606 22.9669 351.049 22.9381C350.429 22.9045 349.694 23.1109 348.868 23.639Z" fill="#666666" stroke="#666666" stroke-width="0.216" stroke-miterlimit="22.9256"/>
<path d="M349.074 37.1831L349.546 45.8032L349.571 46.2759L349.156 46.5024C348.935 46.6232 348.705 46.7433 348.466 46.855C346.385 47.8393 344.013 48.3692 341.876 48.3228V48.3218C339.893 48.2812 337.986 47.7266 336.833 46.3931C336.775 46.3358 336.731 46.276 336.7 46.2192C336.651 46.1285 336.63 46.0455 336.62 45.9907C336.615 45.9618 336.612 45.9356 336.61 45.9136C336.61 45.9026 336.609 45.8919 336.608 45.8823V45.855C336.609 45.8546 336.636 45.8548 337.358 45.8589L336.608 45.854V45.8003L336.617 45.7466L337.318 41.0864L337.458 40.1538L338.336 40.5005L338.682 40.6245L338.688 40.6265L338.828 40.6597C338.926 40.6799 339.073 40.7056 339.267 40.7261C339.643 40.7659 340.176 40.7833 340.827 40.7046C342.124 40.5479 343.911 40.0076 345.883 38.4644H345.884L346.346 38.0874C346.812 37.6917 347.29 37.2365 347.776 36.7134L348.979 35.4204L349.074 37.1831Z" fill="#FEFEFE" stroke="#333333" stroke-width="1.5"/>
<path fill-rule="evenodd" clip-rule="evenodd" d="M333.165 14.3838C332.3 15.3535 331.594 16.5968 331.061 18.0225C329.903 21.1331 329.562 25.1367 330.196 28.9626C330.835 32.8221 332.469 36.528 335.24 39.005C336.316 39.9651 337.565 40.7428 338.992 41.2756C339.203 41.3572 342.349 42.2405 346.086 39.029C347.931 37.4401 349.963 34.8335 351.899 30.5947L350.573 29.9899C348.738 34.0126 346.845 36.456 345.14 37.9201C342.013 40.6084 339.655 39.9651 339.501 39.9075C338.252 39.4467 337.162 38.765 336.22 37.9201C333.713 35.6783 332.233 32.2845 331.642 28.7274C331.047 25.1415 331.359 21.4068 332.43 18.5313C332.901 17.2736 333.511 16.1839 334.255 15.3535L333.165 14.3838Z" fill="#333333"/>
<path fill-rule="evenodd" clip-rule="evenodd" d="M348.834 24.6759C348.925 22.3909 348.868 20.538 348.685 19.045C348.498 17.5041 348.176 16.3184 347.753 15.4207C347.441 14.7583 346.97 14.1198 346.399 13.6062C345.856 13.1118 345.212 12.7181 344.521 12.5069C343.656 12.2429 342.815 12.2957 341.999 12.5453C341.235 12.7757 340.505 13.179 339.789 13.6494C339.434 13.8798 339.126 14.1006 338.833 14.3119C337.618 15.1807 336.648 15.8768 334.904 15.4063C334.784 15.3727 334.669 15.3151 334.573 15.2335C334.433 15.1135 334.323 14.9503 334.265 14.7583C334.203 14.5519 334.198 14.3119 334.27 14.043C334.342 13.7646 334.505 13.4622 334.77 13.1502L334.803 13.1022C334.899 12.9677 335.019 12.8333 335.159 12.6989C336.331 11.5564 338.67 10.6732 341.331 10.4907C344.011 10.3083 346.99 10.8604 349.391 12.5981C349.852 12.9293 350.29 13.3038 350.703 13.731C351.678 14.7343 352.427 16.1312 352.816 18.0322C353.176 19.8035 353.224 22.0021 352.864 24.7239L352.811 25.1367C352.629 26.5625 352.514 27.4505 351.635 28.6698C351.51 28.8427 351.366 29.0299 351.197 29.2315C351.053 29.4091 350.885 29.6011 350.693 29.8027L350.861 30.4076L351.759 30.7964C351.947 30.5948 352.134 30.3836 352.317 30.158C352.485 29.9563 352.648 29.7451 352.811 29.5195C353.902 28.0026 354.036 26.9753 354.252 25.324L354.305 24.9111C354.69 22.0213 354.632 19.6595 354.238 17.7393C353.791 15.5408 352.903 13.9038 351.74 12.7133C351.269 12.2285 350.765 11.8013 350.237 11.4172C347.528 9.45386 344.204 8.83461 341.221 9.03622C338.218 9.23784 335.528 10.2891 334.126 11.6524C333.943 11.8301 333.78 12.0173 333.636 12.2093C333.223 12.6941 332.968 13.1886 332.843 13.6638C332.699 14.2062 332.718 14.7247 332.858 15.1807C333.002 15.6512 333.271 16.0496 333.617 16.3424C333.881 16.5632 334.188 16.7265 334.515 16.8177C336.926 17.4657 338.142 16.592 339.674 15.4976C339.967 15.2911 340.269 15.0703 340.577 14.8687C341.187 14.4655 341.802 14.1246 342.412 13.9374C342.969 13.7694 343.526 13.731 344.083 13.899C344.554 14.043 345.006 14.3215 345.4 14.6815C345.827 15.0703 346.183 15.5504 346.418 16.04C346.778 16.7985 347.052 17.8353 347.22 19.2131C347.379 20.5332 347.441 22.1461 347.379 24.1095L347.749 24.6279L348.834 24.6759Z" fill="#333333"/>
<path fill-rule="evenodd" clip-rule="evenodd" d="M348.512 25.1274C349.535 24.2249 350.371 23.8745 351.005 23.9033C351.322 23.9177 351.582 24.0377 351.788 24.2249C352.009 24.4313 352.168 24.7241 352.264 25.0746C352.518 25.9866 352.326 27.2395 351.606 28.3676C351.423 28.6557 351.116 28.9773 350.741 29.2365C350.558 29.3613 350.361 29.4669 350.16 29.5437C349.396 29.827 349.775 30.667 350.237 30.5422C350.616 30.4366 350.976 30.259 351.293 30.043C351.779 29.7118 352.182 29.2797 352.427 28.8957C353.301 27.5276 353.522 25.977 353.205 24.8201C353.061 24.2969 352.806 23.8457 352.451 23.5192C352.081 23.1736 351.61 22.9624 351.053 22.9336C350.174 22.8904 349.069 23.3224 347.801 24.4553C347.35 24.8633 347.897 25.6698 348.512 25.1274Z" fill="#333333"/>
<path fill-rule="evenodd" clip-rule="evenodd" d="M350.265 25.6072C350.41 25.5784 350.534 25.5784 350.64 25.6024C350.76 25.6312 350.856 25.6984 350.914 25.7896C350.981 25.9 351.02 26.0488 351.02 26.2216C351.02 26.5817 350.871 27.0425 350.563 27.5177C350.458 27.681 350.285 27.8682 350.068 28.0122C349.987 28.0698 349.896 28.1226 349.8 28.161C349.286 28.3818 349.454 28.7994 349.867 28.6554C350.035 28.5978 350.198 28.5114 350.342 28.4154C350.611 28.233 350.837 27.993 350.972 27.7818C351.327 27.2249 351.505 26.6729 351.505 26.2216C351.505 25.9528 351.442 25.7128 351.322 25.5256C351.193 25.324 351 25.1848 350.746 25.1271C350.597 25.0935 350.424 25.0887 350.227 25.1175C349.588 25.2232 349.66 25.7272 350.265 25.6072Z" fill="#333333"/>
<path fill-rule="evenodd" clip-rule="evenodd" d="M348.956 47.3998C348.615 49.2336 347.966 51.8018 346.818 52.4306C346.04 52.8627 344.849 52.1762 343.028 49.1616C344.854 49.0704 346.804 48.5327 348.538 47.6254C348.677 47.5534 348.817 47.4766 348.956 47.3998ZM340.411 48.9552C339.536 50.0016 338.753 50.7121 338.071 51.1777C337.058 51.8642 336.361 51.9698 335.972 51.8354C335.641 51.7154 335.473 51.1537 335.41 50.4481C335.295 49.2048 335.53 47.6542 335.718 46.7902C336.078 46.7422 336.452 46.6942 336.832 46.6558L337.024 46.9246C337.831 47.9759 339.022 48.6383 340.411 48.9552Z" fill="#CCCCCC"/>
<path fill-rule="evenodd" clip-rule="evenodd" d="M339.496 28.9866C337.109 29.9322 336.268 28.8233 336.302 27.7913C336.34 26.3991 337.647 26.6776 337.383 24.4214C338.516 26.0103 335.961 27.7721 337.488 28.6025C337.815 28.7801 338.334 28.9626 339.496 28.9866Z" fill="#333333"/>
<path fill-rule="evenodd" clip-rule="evenodd" d="M338.219 32.3423C341.009 34.5937 342.023 30.5998 342.513 29.9854C342.374 34.9442 338.569 34.5985 338.219 32.3423Z" fill="#333333"/>
<path fill-rule="evenodd" clip-rule="evenodd" d="M340.399 23.6007C341.883 20.0916 345.822 22.0934 345.837 23.9703C345.649 23.7639 344.823 23.2695 344.352 23.2119C344.189 25.3 341.691 25.7369 341.019 23.5095C340.755 23.4951 340.596 23.4807 340.399 23.6007Z" fill="#333333"/>
<path fill-rule="evenodd" clip-rule="evenodd" d="M331.906 23.4518C333.256 19.8899 337.272 21.7429 337.358 23.6198C337.162 23.423 336.321 22.9574 335.845 22.919C335.764 25.012 333.28 25.54 332.526 23.3414C332.257 23.3318 332.099 23.327 331.906 23.4518Z" fill="#333333"/>
<mask id="path-25-outside-2_19_261447" maskUnits="userSpaceOnUse" x="291.824" y="43.7383" width="87" height="69" fill="black">
<rect fill="white" x="291.824" y="43.7383" width="87" height="69"/>
<path fill-rule="evenodd" clip-rule="evenodd" d="M366.194 55.9022C370.059 60.3337 379.574 82.418 376.238 94.7614C373.841 99.4666 353.111 88.3449 349.954 86.9109C350.972 86.1548 351.471 85.4025 351.716 84.2294C355.765 85.4687 363.432 86.9606 367.37 87.1432C369.002 87.2179 368.024 85.7481 366.914 85.6503C365.78 84.2449 361.292 76.2772 360.189 73.2749C360.237 70.9851 360.353 68.6665 360.53 66.3143C360.617 65.1862 359.166 64.951 359.075 66.1799C358.835 69.3385 358.71 72.4684 358.705 75.5838C358.7 78.5937 358.811 81.5604 359.027 84.4934C359.027 84.4934 350.313 82.2982 348.555 81.775C344.794 80.6554 343.049 76.8016 343.049 76.8016C343.049 76.8016 341.626 51.2758 341.626 50.1062C341.626 50.1062 343.774 53.4327 347.505 53.1914C349.986 52.5038 350.026 48.692 350.338 46.7383C355.996 48.9244 362.136 51.2496 366.194 55.9022ZM334.025 46.7383C331.815 47.1319 330.009 47.6744 328.501 48.2888C326.354 49.1673 324.807 50.2042 323.558 51.2026C322.684 51.8987 320.124 54.9278 317.39 58.1584C314.057 62.0995 310.469 66.3431 309.124 67.2792L308.61 67.6392L308.177 67.1832C304.195 62.9828 301.76 56.8047 299.675 51.5099C299.161 50.209 298.671 48.9561 298.205 47.8616C297.48 47.9096 296.505 48.0584 295.568 48.2744C294.915 48.428 294.29 48.6104 293.824 48.812C296.932 61.2547 299.872 67.9512 302.144 71.5563C304.32 75.0126 305.703 75.4638 306.035 75.5262C309.003 76.0975 312.755 74.7486 316.353 72.5452C320.484 70.0106 324.365 66.3719 326.656 63.1748C327.521 61.9699 328.727 62.7812 327.91 63.9285C327.074 65.0998 326.037 66.3335 324.855 67.5528L324.807 68.4649L324.759 69.5834C324.61 74.0141 324.644 82.9765 325.11 91.4444C325.427 97.2048 325.936 102.73 326.714 106.412C331.815 109.292 337.579 110.564 343.281 110.809C350.457 111.116 357.552 109.806 363.158 108.039C362.495 105.62 361.909 103.229 361.395 100.853C360.857 98.3617 360.401 95.8703 360.026 93.3837C356.812 92.1068 352.632 89.5829 349.322 87.9695C346.012 86.3562 335.737 82.6673 334.354 76.8016L339.134 49.496L334.025 46.7383Z"/>
</mask>
<path fill-rule="evenodd" clip-rule="evenodd" d="M366.194 55.9022C370.059 60.3337 379.574 82.418 376.238 94.7614C373.841 99.4666 353.111 88.3449 349.954 86.9109C350.972 86.1548 351.471 85.4025 351.716 84.2294C355.765 85.4687 363.432 86.9606 367.37 87.1432C369.002 87.2179 368.024 85.7481 366.914 85.6503C365.78 84.2449 361.292 76.2772 360.189 73.2749C360.237 70.9851 360.353 68.6665 360.53 66.3143C360.617 65.1862 359.166 64.951 359.075 66.1799C358.835 69.3385 358.71 72.4684 358.705 75.5838C358.7 78.5937 358.811 81.5604 359.027 84.4934C359.027 84.4934 350.313 82.2982 348.555 81.775C344.794 80.6554 343.049 76.8016 343.049 76.8016C343.049 76.8016 341.626 51.2758 341.626 50.1062C341.626 50.1062 343.774 53.4327 347.505 53.1914C349.986 52.5038 350.026 48.692 350.338 46.7383C355.996 48.9244 362.136 51.2496 366.194 55.9022ZM334.025 46.7383C331.815 47.1319 330.009 47.6744 328.501 48.2888C326.354 49.1673 324.807 50.2042 323.558 51.2026C322.684 51.8987 320.124 54.9278 317.39 58.1584C314.057 62.0995 310.469 66.3431 309.124 67.2792L308.61 67.6392L308.177 67.1832C304.195 62.9828 301.76 56.8047 299.675 51.5099C299.161 50.209 298.671 48.9561 298.205 47.8616C297.48 47.9096 296.505 48.0584 295.568 48.2744C294.915 48.428 294.29 48.6104 293.824 48.812C296.932 61.2547 299.872 67.9512 302.144 71.5563C304.32 75.0126 305.703 75.4638 306.035 75.5262C309.003 76.0975 312.755 74.7486 316.353 72.5452C320.484 70.0106 324.365 66.3719 326.656 63.1748C327.521 61.9699 328.727 62.7812 327.91 63.9285C327.074 65.0998 326.037 66.3335 324.855 67.5528L324.807 68.4649L324.759 69.5834C324.61 74.0141 324.644 82.9765 325.11 91.4444C325.427 97.2048 325.936 102.73 326.714 106.412C331.815 109.292 337.579 110.564 343.281 110.809C350.457 111.116 357.552 109.806 363.158 108.039C362.495 105.62 361.909 103.229 361.395 100.853C360.857 98.3617 360.401 95.8703 360.026 93.3837C356.812 92.1068 352.632 89.5829 349.322 87.9695C346.012 86.3562 335.737 82.6673 334.354 76.8016L339.134 49.496L334.025 46.7383Z" fill="#EFEFEF"/>
<path d="M366.194 55.9022L367.324 54.9163L366.194 55.9022ZM376.238 94.7614L377.574 95.4423L377.645 95.3033L377.686 95.1528L376.238 94.7614ZM349.954 86.9109L349.06 85.707L347.018 87.2245L349.334 88.2766L349.954 86.9109ZM351.716 84.2294L352.155 82.7951L350.583 82.3139L350.248 83.9231L351.716 84.2294ZM367.37 87.1432L367.301 88.6416L367.302 88.6416L367.37 87.1432ZM366.914 85.6503L365.747 86.5924L366.147 87.0885L366.782 87.1445L366.914 85.6503ZM360.189 73.2749L358.69 73.2434L358.684 73.5265L358.781 73.7922L360.189 73.2749ZM360.53 66.3143L359.035 66.1996L359.035 66.2013L360.53 66.3143ZM359.075 66.1799L360.571 66.2936L360.571 66.291L359.075 66.1799ZM358.705 75.5838L360.205 75.5862V75.5862L358.705 75.5838ZM359.027 84.4934L358.66 85.9479L360.676 86.4556L360.523 84.3831L359.027 84.4934ZM348.555 81.775L348.983 80.3373L348.555 81.775ZM343.049 76.8016L341.552 76.8851L341.567 77.1648L341.683 77.42L343.049 76.8016ZM341.626 50.1062L342.886 49.2924C342.525 48.7337 341.839 48.4793 341.201 48.6674C340.564 48.8555 340.126 49.4411 340.126 50.1062H341.626ZM347.505 53.1914L347.602 54.6883L347.756 54.6783L347.905 54.6369L347.505 53.1914ZM350.338 46.7383L350.879 45.3391L349.149 44.671L348.857 46.5016L350.338 46.7383ZM334.025 46.7383L334.737 45.4183L334.277 45.1698L333.762 45.2615L334.025 46.7383ZM328.501 48.2888L327.935 46.8997L327.933 46.9005L328.501 48.2888ZM323.558 51.2026L324.492 52.3761L324.495 52.3742L323.558 51.2026ZM317.39 58.1584L316.245 57.1896L316.245 57.1897L317.39 58.1584ZM309.124 67.2792L308.267 66.048L308.263 66.0506L309.124 67.2792ZM308.61 67.6392L307.521 68.6711L308.411 69.6098L309.47 68.8678L308.61 67.6392ZM308.177 67.1832L309.266 66.1512L309.266 66.1512L308.177 67.1832ZM299.675 51.5099L301.071 50.9603L301.07 50.9587L299.675 51.5099ZM298.205 47.8616L299.585 47.274L299.168 46.2945L298.106 46.3648L298.205 47.8616ZM295.568 48.2744L295.231 46.8128L295.225 46.8142L295.568 48.2744ZM293.824 48.812L293.229 47.4354L292.061 47.9408L292.369 49.1755L293.824 48.812ZM302.144 71.5563L303.413 70.7572L303.413 70.7565L302.144 71.5563ZM306.035 75.5262L306.318 74.0533L306.312 74.0521L306.035 75.5262ZM316.353 72.5452L317.136 73.8244L317.137 73.8237L316.353 72.5452ZM326.656 63.1748L325.438 62.3003L325.437 62.301L326.656 63.1748ZM327.91 63.9285L329.131 64.7998L329.132 64.7983L327.91 63.9285ZM324.855 67.5528L323.778 66.5089L323.387 66.9126L323.357 67.4739L324.855 67.5528ZM324.807 68.4649L323.309 68.386L323.309 68.3932L323.308 68.4005L324.807 68.4649ZM324.759 69.5834L323.26 69.519L323.26 69.533L324.759 69.5834ZM325.11 91.4444L323.612 91.5268V91.5268L325.11 91.4444ZM326.714 106.412L325.246 106.722L325.386 107.385L325.976 107.718L326.714 106.412ZM343.281 110.809L343.217 112.308L343.217 112.308L343.281 110.809ZM363.158 108.039L363.609 109.47L364.986 109.036L364.605 107.643L363.158 108.039ZM361.395 100.853L359.929 101.17L359.929 101.17L361.395 100.853ZM360.026 93.3837L361.509 93.1602L361.381 92.308L360.58 91.9898L360.026 93.3837ZM339.134 49.496L340.612 49.7546L340.798 48.6896L339.847 48.176L339.134 49.496ZM334.354 76.8016L332.877 76.5429L332.824 76.8461L332.894 77.1456L334.354 76.8016ZM361.689 73.3063C361.736 71.0456 361.85 68.7543 362.026 66.4273L359.035 66.2013C358.855 68.5787 358.738 70.9245 358.69 73.2434L361.689 73.3063ZM362.026 66.4289C362.125 65.1352 361.28 64.0305 360.059 63.8752C359.47 63.8004 358.84 63.9663 358.348 64.4103C357.855 64.8551 357.624 65.4637 357.579 66.0688L360.571 66.291C360.571 66.2816 360.556 66.4587 360.358 66.6372C360.161 66.815 359.905 66.8798 359.68 66.8512C359.463 66.8236 359.283 66.7129 359.167 66.5639C359.042 66.4033 359.031 66.252 359.035 66.1996L362.026 66.4289ZM357.579 66.0661C357.336 69.2604 357.21 72.4274 357.205 75.5815L360.205 75.5862C360.21 72.5093 360.333 69.4167 360.571 66.2936L357.579 66.0661ZM357.205 75.5815C357.2 78.6297 357.312 81.6339 357.531 84.6036L360.523 84.3831C360.309 81.4868 360.2 78.5577 360.205 75.5862L357.205 75.5815ZM359.027 84.4934C359.393 83.0388 359.393 83.0388 359.393 83.0388C359.393 83.0388 359.393 83.0388 359.393 83.0387C359.393 83.0387 359.392 83.0386 359.392 83.0385C359.391 83.0382 359.389 83.0378 359.387 83.0373C359.383 83.0362 359.377 83.0347 359.368 83.0326C359.352 83.0284 359.327 83.0223 359.295 83.0142C359.231 82.998 359.137 82.9742 359.016 82.9437C358.775 82.8828 358.428 82.7951 358.006 82.6882C357.163 82.4744 356.02 82.184 354.823 81.8773C352.409 81.2591 349.827 80.5885 348.983 80.3373L348.127 83.2127C349.042 83.4847 351.696 84.1734 354.078 84.7835C355.279 85.091 356.424 85.3821 357.269 85.5963C357.692 85.7034 358.04 85.7912 358.282 85.8524C358.403 85.8829 358.497 85.9068 358.562 85.9231C358.594 85.9312 358.619 85.9374 358.635 85.9416C358.643 85.9437 358.65 85.9453 358.654 85.9463C358.656 85.9469 358.658 85.9473 358.659 85.9475C358.659 85.9477 358.66 85.9478 358.66 85.9478C358.66 85.9479 358.66 85.9479 358.66 85.9479C358.66 85.9479 358.66 85.9479 359.027 84.4934ZM341.626 50.1062C340.366 50.92 340.366 50.9205 340.366 50.921C340.366 50.9212 340.367 50.9218 340.367 50.9222C340.368 50.9229 340.368 50.9238 340.369 50.9247C340.37 50.9264 340.371 50.9284 340.373 50.9306C340.375 50.9349 340.379 50.9401 340.383 50.9461C340.391 50.958 340.401 50.9731 340.413 50.9911C340.438 51.0271 340.471 51.0749 340.514 51.1329C340.598 51.2485 340.718 51.4054 340.873 51.589C341.181 51.9541 341.635 52.436 342.23 52.9113C343.415 53.858 345.243 54.8408 347.602 54.6883L347.408 51.6945C346.035 51.7833 344.924 51.2235 344.102 50.5673C343.694 50.2411 343.378 49.9064 343.167 49.6554C343.062 49.5309 342.985 49.4297 342.937 49.3644C342.913 49.3319 342.897 49.3085 342.888 49.2959C342.884 49.2896 342.882 49.286 342.881 49.2854C342.881 49.285 342.881 49.2854 342.882 49.2866C342.882 49.2872 342.883 49.2879 342.883 49.2889C342.884 49.2894 342.884 49.2899 342.885 49.2905C342.885 49.2908 342.885 49.2913 342.885 49.2914C342.885 49.2919 342.886 49.2924 341.626 50.1062ZM347.905 54.6369C349.941 54.0729 350.784 52.2557 351.179 50.8439C351.566 49.4609 351.699 47.73 351.819 46.975L348.857 46.5016C348.665 47.7004 348.621 48.8521 348.29 50.0353C347.967 51.1898 347.55 51.6223 347.104 51.7459L347.905 54.6369ZM333.762 45.2615C331.455 45.6724 329.547 46.2429 327.935 46.8997L329.067 49.678C330.471 49.1058 332.175 48.5914 334.288 48.215L333.762 45.2615ZM327.933 46.9005C325.626 47.8444 323.956 48.9637 322.621 50.0311L324.495 52.3742C325.657 51.4447 327.082 50.4901 329.069 49.6771L327.933 46.9005ZM322.624 50.0292C322.056 50.481 321.098 51.5348 320.042 52.7429C318.941 54.0021 317.609 55.5776 316.245 57.1896L318.535 59.1272C319.905 57.5086 321.219 55.9542 322.301 54.7172C323.427 53.4291 324.186 52.6203 324.492 52.3761L322.624 50.0292ZM316.245 57.1897C314.575 59.1643 312.857 61.1957 311.389 62.8503C310.655 63.6777 309.994 64.3987 309.441 64.965C308.865 65.5542 308.475 65.9029 308.267 66.048L309.98 68.5103C310.444 68.1874 311.007 67.6546 311.587 67.0618C312.188 66.4459 312.885 65.6842 313.633 64.8411C315.129 63.1546 316.872 61.0937 318.536 59.1271L316.245 57.1897ZM308.263 66.0506L307.749 66.4106L309.47 68.8678L309.984 68.5077L308.263 66.0506ZM309.698 66.6073L309.266 66.1512L307.089 68.2151L307.521 68.6711L309.698 66.6073ZM309.266 66.1512C305.522 62.202 303.182 56.3223 301.071 50.9603L298.279 52.0594C300.338 57.2871 302.868 63.7636 307.089 68.2152L309.266 66.1512ZM301.07 50.9587C300.56 49.668 300.061 48.3914 299.585 47.274L296.825 48.4491C297.281 49.5207 297.762 50.7499 298.28 52.061L301.07 50.9587ZM298.106 46.3648C297.286 46.4191 296.23 46.5824 295.231 46.8128L295.905 49.736C296.78 49.5343 297.674 49.4 298.304 49.3583L298.106 46.3648ZM295.225 46.8142C294.54 46.9754 293.815 47.1817 293.229 47.4354L294.42 50.1887C294.766 50.0392 295.29 49.8807 295.911 49.7346L295.225 46.8142ZM292.369 49.1755C295.495 61.6884 298.482 68.5586 300.875 72.3561L303.413 70.7565C301.262 67.3438 298.37 60.821 295.28 48.4486L292.369 49.1755ZM300.875 72.3555C303.143 75.9591 304.826 76.825 305.757 77.0003L306.312 74.0521C306.581 74.1027 305.497 74.0661 303.413 70.7572L300.875 72.3555ZM305.751 76.9992C309.299 77.6818 313.47 76.0699 317.136 73.8244L315.569 71.266C312.04 73.4273 308.708 74.5131 306.318 74.0533L305.751 76.9992ZM317.137 73.8237C321.425 71.1926 325.459 67.4203 327.875 64.0486L325.437 62.301C323.271 65.3234 319.542 68.8285 315.568 71.2667L317.137 73.8237ZM327.875 64.0493C327.953 63.9403 327.954 63.9957 327.815 64.043C327.67 64.0922 327.392 64.1157 327.108 63.9351C326.816 63.7494 326.694 63.4574 326.682 63.2375C326.671 63.0353 326.749 62.973 326.688 63.0587L329.132 64.7983C329.479 64.3104 329.712 63.7163 329.678 63.077C329.643 62.42 329.318 61.7854 328.719 61.4041C327.446 60.5939 326.099 61.3788 325.438 62.3003L327.875 64.0493ZM326.689 63.0572C325.903 64.159 324.915 65.3355 323.778 66.5089L325.932 68.5967C327.158 67.3315 328.246 66.0405 329.131 64.7998L326.689 63.0572ZM323.357 67.4739L323.309 68.386L326.305 68.5437L326.353 67.6316L323.357 67.4739ZM323.308 68.4005L323.26 69.519L326.257 69.6477L326.306 68.5292L323.308 68.4005ZM323.26 69.533C323.109 74.0115 323.144 83.0183 323.612 91.5268L326.607 91.362C326.144 82.9347 326.111 74.0167 326.258 69.6337L323.26 69.533ZM323.612 91.5268C323.929 97.2952 324.443 102.919 325.246 106.722L328.181 106.102C327.429 102.541 326.924 97.1145 326.607 91.3619L323.612 91.5268ZM325.976 107.718C331.334 110.743 337.344 112.056 343.217 112.308L343.345 109.31C337.815 109.073 332.296 107.841 327.451 105.106L325.976 107.718ZM343.217 112.308C350.604 112.624 357.875 111.277 363.609 109.47L362.707 106.609C357.229 108.335 350.311 109.609 343.345 109.31L343.217 112.308ZM364.605 107.643C363.949 105.249 363.369 102.885 362.861 100.536L359.929 101.17C360.449 103.574 361.041 105.991 361.711 108.436L364.605 107.643ZM362.861 100.537C362.33 98.0757 361.879 95.6154 361.509 93.1602L358.543 93.6072C358.922 96.1253 359.384 98.6477 359.929 101.17L362.861 100.537ZM360.58 91.9898C359.06 91.3858 357.279 90.4725 355.416 89.4793C353.586 88.5032 351.667 87.4438 349.979 86.6212L348.665 89.3179C350.287 90.1086 352.114 91.1179 354.004 92.1263C355.863 93.1176 357.778 94.1048 359.472 94.7777L360.58 91.9898ZM348.983 80.3373C347.492 79.8935 346.349 78.8887 345.551 77.9164C345.157 77.4373 344.866 76.9879 344.674 76.662C344.579 76.4999 344.51 76.3705 344.467 76.2861C344.446 76.2439 344.431 76.2132 344.422 76.1955C344.418 76.1867 344.415 76.1811 344.414 76.1789C344.414 76.1778 344.414 76.1776 344.414 76.1783C344.414 76.1787 344.414 76.1792 344.415 76.18C344.415 76.1804 344.415 76.1809 344.415 76.1814C344.415 76.1816 344.416 76.1821 344.416 76.1822C344.416 76.1826 344.416 76.1831 343.049 76.8016C341.683 77.42 341.683 77.4205 341.683 77.421C341.683 77.4212 341.684 77.4217 341.684 77.4221C341.684 77.4228 341.685 77.4236 341.685 77.4245C341.686 77.4262 341.687 77.4282 341.688 77.4304C341.69 77.4348 341.692 77.4401 341.695 77.4464C341.701 77.4589 341.708 77.4751 341.718 77.4947C341.737 77.534 341.763 77.5872 341.796 77.6526C341.863 77.7834 341.96 77.9638 342.087 78.1804C342.34 78.6121 342.72 79.1962 343.233 79.8205C344.247 81.055 345.857 82.5369 348.127 83.2127L348.983 80.3373ZM343.049 76.8016C344.547 76.718 344.547 76.7179 344.547 76.7177C344.547 76.7175 344.547 76.7173 344.547 76.7169C344.547 76.7161 344.547 76.7149 344.547 76.7134C344.547 76.7103 344.546 76.7057 344.546 76.6996C344.545 76.6873 344.544 76.669 344.543 76.6448C344.54 76.5965 344.536 76.5248 344.531 76.4312C344.521 76.244 344.505 75.9693 344.486 75.6192C344.447 74.9191 344.391 73.9175 344.325 72.712C344.191 70.3009 344.013 67.0741 343.835 63.8108C343.657 60.5473 343.479 57.2483 343.346 54.6926C343.279 53.4145 343.224 52.3239 343.185 51.517C343.166 51.1134 343.151 50.7829 343.14 50.5365C343.135 50.4132 343.131 50.3132 343.129 50.2368C343.128 50.1986 343.127 50.168 343.126 50.1444C343.126 50.1327 343.126 50.1235 343.126 50.1166C343.126 50.1132 343.126 50.1106 343.126 50.1088C343.126 50.1069 343.126 50.1061 343.126 50.1062H340.126C340.126 50.7453 340.486 57.4918 340.84 63.9742C341.018 67.2385 341.196 70.4662 341.329 72.8778C341.396 74.0836 341.452 75.0854 341.491 75.7857C341.51 76.1359 341.525 76.4107 341.536 76.598C341.541 76.6917 341.545 76.7634 341.548 76.8118C341.549 76.836 341.55 76.8543 341.551 76.8666C341.551 76.8727 341.551 76.8773 341.552 76.8804C341.552 76.882 341.552 76.8831 341.552 76.8839C341.552 76.8843 341.552 76.8846 341.552 76.8848C341.552 76.885 341.552 76.8851 343.049 76.8016ZM349.797 48.1375C355.542 50.3572 361.295 52.5673 365.063 56.8882L367.324 54.9163C362.977 49.932 356.45 47.4917 350.879 45.3391L349.797 48.1375ZM365.063 56.8882C365.889 57.8349 367.137 59.8912 368.51 62.756C369.864 65.5811 371.286 69.0794 372.488 72.8232C374.92 80.3996 376.337 88.6455 374.79 94.37L377.686 95.1528C379.475 88.5339 377.803 79.5659 375.344 71.9064C374.101 68.0323 372.628 64.4072 371.215 61.4594C369.822 58.5513 368.431 56.1853 367.324 54.9163L365.063 56.8882ZM368.081 84.7081C367.614 84.129 366.274 81.9139 364.854 79.3374C363.448 76.7869 362.104 74.1375 361.597 72.7575L358.781 73.7922C359.377 75.4146 360.829 78.2501 362.226 80.7855C363.609 83.2947 365.08 85.7662 365.747 86.5924L368.081 84.7081ZM367.302 88.6416C367.82 88.6654 368.65 88.6098 369.239 87.9793C369.959 87.209 369.747 86.2756 369.52 85.8079C369.288 85.3278 368.905 84.9511 368.524 84.6931C368.13 84.4269 367.621 84.2068 367.046 84.1561L366.782 87.1445C366.762 87.1427 366.791 87.143 366.842 87.1776C366.905 87.2203 366.873 87.2248 366.82 87.115C366.791 87.0553 366.729 86.9027 366.736 86.6788C366.745 86.4264 366.843 86.1501 367.047 85.9311C367.234 85.7319 367.424 85.6694 367.486 85.6532C367.547 85.6371 367.544 85.6496 367.439 85.6448L367.302 88.6416ZM351.277 85.6637C355.415 86.9304 363.209 88.4519 367.301 88.6416L367.44 85.6448C363.655 85.4694 356.114 84.0071 352.155 82.7951L351.277 85.6637ZM350.849 88.1147C351.455 87.6642 351.973 87.1658 352.378 86.5515C352.785 85.9328 353.032 85.2659 353.184 84.5356L350.248 83.9231C350.155 84.366 350.03 84.6619 349.872 84.9016C349.711 85.1457 349.471 85.4015 349.06 85.707L350.849 88.1147ZM374.901 94.0806C374.891 94.1003 374.821 94.2615 374.286 94.3572C373.733 94.4561 372.912 94.4326 371.82 94.2434C369.652 93.868 366.857 92.9234 363.943 91.7474C358.082 89.3822 352.301 86.3293 350.575 85.5452L349.334 88.2766C350.765 88.9265 356.927 92.1514 362.82 94.5294C365.782 95.7249 368.816 96.7681 371.308 97.1995C372.545 97.4137 373.762 97.4984 374.814 97.3104C375.883 97.1193 376.985 96.5989 377.574 95.4423L374.901 94.0806ZM339.847 48.176L334.737 45.4183L333.312 48.0583L338.422 50.816L339.847 48.176ZM349.979 86.6212C348.154 85.7317 344.977 84.5122 341.876 82.6875C340.356 81.793 338.954 80.8038 337.865 79.7277C336.773 78.6477 336.073 77.5549 335.814 76.4575L332.894 77.1456C333.327 78.9811 334.429 80.5491 335.756 81.8609C337.087 83.1766 338.719 84.3103 340.354 85.2729C343.565 87.1624 347.18 88.5941 348.665 89.3179L349.979 86.6212ZM335.832 77.0602L340.612 49.7546L337.657 49.2374L332.877 76.5429L335.832 77.0602Z" fill="#333333" mask="url(#path-25-outside-2_19_261447)"/>
<path fill-rule="evenodd" clip-rule="evenodd" d="M359.075 66.1798C358.835 69.3385 358.71 72.4683 358.705 75.5838C358.7 78.9297 358.835 82.2179 359.104 85.4678L360.564 85.3478C360.295 82.0979 360.161 78.8481 360.165 75.5838C360.17 72.5499 360.29 69.4681 360.535 66.319C360.617 65.1909 359.166 64.9509 359.075 66.1798ZM359.978 93.0428L361.424 92.8316C361.808 95.4046 362.274 97.9776 362.831 100.56C363.389 103.152 364.032 105.745 364.758 108.337L364.945 109.009L364.282 109.225C358.441 111.145 350.89 112.604 343.224 112.278C337.195 112.019 331.1 110.651 325.705 107.526L325.431 107.367L325.359 107.05C324.519 103.282 323.976 97.5216 323.649 91.5259C323.183 83.0244 323.145 74.0141 323.299 69.5449L323.347 68.4024L323.409 67.2023L324.869 67.2935L324.807 68.4696L324.759 69.5881C324.61 74.0189 324.644 82.9812 325.11 91.4491C325.427 97.2096 325.936 102.735 326.714 106.417C331.815 109.297 337.579 110.569 343.281 110.814C350.458 111.121 357.552 109.811 363.158 108.044C362.495 105.625 361.909 103.234 361.395 100.858C360.843 98.2512 360.367 95.6494 359.978 93.0428Z" fill="#333333"/>
<path fill-rule="evenodd" clip-rule="evenodd" d="M373.193 236.57C372.049 237.861 370.599 239.248 369.11 240.669C366.698 242.974 364.191 245.369 362.937 247.419C361.996 248.96 361.823 250.294 363.158 251.173C363.97 251.273 366.871 250.049 370.234 248.35C373.995 246.449 378.231 243.953 380.83 241.98C380.849 241.961 380.902 241.922 380.921 241.913C380.974 241.874 381.061 241.817 381.161 241.73C381.699 241.265 382.55 240.002 379.917 236.944L381.027 235.994C384.524 240.06 383.011 242.062 382.108 242.839C381.978 242.95 381.848 243.041 381.762 243.103L381.695 243.151C379.014 245.182 374.706 247.726 370.892 249.651C367.121 251.557 363.734 252.872 362.668 252.56L362.577 252.536L362.495 252.483C360.122 251.038 360.271 248.984 361.693 246.66C363.048 244.447 365.622 241.985 368.106 239.613C369.576 238.207 371.012 236.839 372.102 235.605L373.193 236.57Z" fill="#333333"/>
<path fill-rule="evenodd" clip-rule="evenodd" d="M332.248 235.615C330.773 236.22 328.977 236.839 327.142 237.468C323.453 238.73 319.605 240.05 317.395 241.663C315.436 243.099 314.677 244.74 316.127 246.713L316.185 246.79L316.262 246.852C317.141 247.558 321.498 247.673 326.411 247.371C331.167 247.078 336.528 246.435 339.698 245.595L339.775 245.576C340.51 245.412 343.473 244.736 342.056 239.522C342.004 239.33 341.619 238.485 341.264 237.689C340.971 237.04 340.692 236.421 340.659 236.325L339.27 236.781C339.318 236.93 339.616 237.593 339.933 238.289C340.27 239.037 340.63 239.83 340.649 239.902C341.667 243.655 339.895 244.054 339.458 244.15L339.352 244.174C336.273 244.99 331.013 245.619 326.33 245.907C321.877 246.18 318.02 246.176 317.246 245.748C316.531 244.678 317.054 243.718 318.27 242.83C320.292 241.351 324.034 240.07 327.627 238.836C329.452 238.212 331.244 237.597 332.815 236.949L332.248 235.615Z" fill="#333333"/>
<path fill-rule="evenodd" clip-rule="evenodd" d="M369.11 240.669C366.698 242.974 364.191 245.369 362.937 247.419C361.996 248.96 361.823 250.294 363.158 251.173C363.97 251.273 366.871 250.049 370.234 248.35C373.995 246.449 378.232 243.953 380.83 241.98C380.849 241.961 380.902 241.922 380.921 241.913C380.974 241.874 381.061 241.817 381.162 241.73C381.455 241.481 381.834 241.001 381.709 240.132C381.618 239.469 381.229 238.576 380.283 237.386C379.298 237.813 378.054 237.996 376.81 237.962C375.359 237.924 373.87 237.597 372.784 237.026C371.881 238.01 370.82 239.037 369.72 240.093C369.513 240.285 369.311 240.477 369.11 240.669Z" fill="#FEFEFE"/>
<path fill-rule="evenodd" clip-rule="evenodd" d="M340.639 239.906C340.663 239.992 340.687 240.079 340.707 240.165C341.576 243.679 339.876 244.063 339.448 244.159L339.342 244.183C336.263 244.999 331.004 245.628 326.32 245.916C321.867 246.19 318.01 246.185 317.237 245.758C316.521 244.687 317.045 243.727 318.26 242.839C319.49 241.937 321.363 241.111 323.448 240.324C324.788 239.82 326.21 239.33 327.617 238.85C329.25 238.288 330.855 237.741 332.3 237.165C333.199 237.755 334.587 238.365 336.182 238.471C337.287 238.543 338.492 238.375 339.698 237.794C339.77 237.952 339.847 238.125 339.924 238.293C340.26 239.042 340.615 239.834 340.639 239.906Z" fill="#FEFEFE"/>
<path fill-rule="evenodd" clip-rule="evenodd" d="M361.381 110.099C364.767 121.173 368.553 141.177 371.867 163.796C376.646 187.092 379.725 213.331 379.682 235.562C378.803 236.047 377.521 236.33 376.243 236.359C374.975 236.388 373.745 236.176 372.962 235.682C371.862 231.496 367.428 213.519 361.472 192.666C356.448 175.067 349.843 155.952 346.375 142.545L344.987 137.48C344.9 150.072 344.055 163.297 343.507 171.875C343.344 174.458 343.205 176.618 343.118 178.264C343.113 178.375 343.118 178.797 343.128 179.503C343.209 185.614 343.574 213.629 339.237 236.388C338.219 236.92 337.195 237.074 336.264 237.016C334.995 236.935 333.886 236.46 333.161 235.989C333.079 229.408 332.858 219.951 332.238 209.87C331.604 199.564 330.543 188.571 328.775 179.253C328.631 178.495 325.97 163.239 325.816 142.602C325.739 132.291 326.292 120.636 328.098 108.774C332.867 111.016 338.07 112.048 343.219 112.273C349.675 112.552 356.044 111.563 361.381 110.099Z" fill="#404040" stroke="#404040" stroke-width="0.216" stroke-miterlimit="22.9256"/>
<path fill-rule="evenodd" clip-rule="evenodd" d="M344.991 137.336C344.91 149.971 344.059 163.263 343.512 171.875C343.349 174.458 343.209 176.618 343.123 178.264C343.118 178.375 343.123 178.797 343.132 179.503C343.214 185.614 343.579 213.629 339.242 236.387C338.223 236.92 337.2 237.074 336.268 237.016C335 236.935 333.89 236.459 333.165 235.989C333.084 229.408 332.863 219.951 332.243 209.87C331.609 199.564 330.547 188.571 328.78 179.253C328.635 178.495 325.974 163.239 325.821 142.602C325.744 132.003 326.325 119.992 328.256 107.794L326.815 107.569C324.874 119.843 324.288 131.94 324.365 142.602C324.519 163.378 327.199 178.749 327.343 179.512C329.101 188.763 330.153 199.693 330.787 209.947C331.422 220.234 331.638 229.82 331.715 236.378L331.719 236.738L332.008 236.954C332.877 237.602 334.4 238.351 336.182 238.466C337.464 238.548 338.877 238.308 340.274 237.482L340.558 237.314L340.62 236.992C345.049 214.042 344.674 185.647 344.597 179.479C344.588 178.826 344.583 178.427 344.588 178.331C344.67 176.776 344.809 174.582 344.977 171.961C345.457 164.463 346.163 153.427 346.389 142.338L344.991 137.336Z" fill="#333333"/>
<path fill-rule="evenodd" clip-rule="evenodd" d="M336.585 123.367C337.517 124.202 338.569 124.947 339.736 125.494C340.942 126.055 342.277 126.415 343.728 126.459L344.319 126.478L344.386 127.059C346.279 143.284 351.404 159.365 357.456 178.341C362.625 194.552 368.466 212.875 373.553 235.212C374.456 235.62 375.436 235.72 376.392 235.653C377.304 235.586 378.203 235.36 378.99 235.087C378.822 228.467 378.443 218.453 377.588 207.816C376.982 200.265 376.142 192.421 374.97 185.302C374.806 184.318 374.648 183.382 374.485 182.489C374.321 181.586 374.148 180.698 373.975 179.829C373.836 179.148 373.654 178.289 373.471 177.453C372.991 175.231 372.549 173.195 372.299 170.661C372.131 168.947 371.944 167.18 371.742 165.38C371.535 163.532 371.319 161.761 371.103 160.057C369.902 150.71 368.365 141.638 366.631 133.299C364.83 124.649 362.812 116.805 360.732 110.296L362.024 109.888C364.119 116.455 366.151 124.342 367.957 133.026C369.7 141.378 371.242 150.489 372.448 159.889C372.683 161.722 372.899 163.508 373.096 165.231C373.289 166.945 373.476 168.712 373.654 170.531C373.889 172.951 374.326 174.967 374.802 177.16C374.951 177.852 375.104 178.567 375.306 179.561C375.484 180.439 375.657 181.337 375.82 182.244C375.993 183.209 376.161 184.15 376.31 185.076C377.487 192.258 378.337 200.135 378.942 207.705C379.817 218.583 380.854 229.326 381.017 235.984L381.027 236.465L380.575 236.637C378.395 237.463 373.807 237.977 372.16 235.908L372.093 235.6C366.996 213.159 361.342 195.004 356.159 178.745C350.155 159.908 345.059 143.918 343.099 127.774C341.672 127.659 340.361 127.275 339.155 126.713C337.829 126.094 336.643 125.254 335.61 124.313C334.693 123.478 335.668 122.542 336.585 123.367Z" fill="#333333"/>
<path fill-rule="evenodd" clip-rule="evenodd" d="M340.399 23.6007C341.884 20.0916 345.822 22.0934 345.837 23.9703C345.649 23.7639 344.823 23.2694 344.353 23.2118C344.189 25.3 341.691 25.7369 341.019 23.5095C340.75 23.4951 340.596 23.4807 340.399 23.6007ZM339.501 39.9076C339.655 39.9652 342.013 40.6085 345.14 37.9203C346.773 36.5185 348.575 34.224 350.328 30.5132C350.299 30.5228 350.266 30.5324 350.237 30.5421C349.776 30.6669 349.396 29.8316 350.16 29.5436C350.362 29.4668 350.563 29.3612 350.741 29.2363C351.121 28.9771 351.423 28.6555 351.606 28.3675C352.326 27.2394 352.514 25.9865 352.264 25.0744C352.168 24.724 352.004 24.4263 351.788 24.2247C351.587 24.0327 351.322 23.9175 351.005 23.9031C350.371 23.8743 349.531 24.2199 348.512 25.1272C347.946 25.6312 347.441 24.9832 347.715 24.5608L347.398 24.1143C347.46 22.151 347.398 20.538 347.239 19.2179C347.071 17.8402 346.797 16.8033 346.437 16.0449C346.207 15.5552 345.851 15.0752 345.419 14.6863C345.025 14.3263 344.573 14.0479 344.103 13.9039C343.546 13.7311 342.984 13.7743 342.431 13.9423C341.821 14.1295 341.206 14.4703 340.596 14.8736C340.289 15.0752 339.986 15.2912 339.693 15.5024C338.166 16.5969 336.95 17.4658 334.534 16.8225C334.208 16.7361 333.9 16.5729 333.636 16.3473C333.607 16.3233 333.578 16.2993 333.554 16.2753C333.117 16.9377 332.742 17.701 332.425 18.5411C331.354 21.4213 331.042 25.1512 331.638 28.7371C332.229 32.2942 333.708 35.6881 336.215 37.9299C337.162 38.7651 338.252 39.4468 339.501 39.9076ZM350.266 25.6072C349.66 25.7273 349.593 25.2232 350.227 25.1176C350.419 25.0888 350.592 25.0888 350.746 25.1272C351.001 25.1848 351.193 25.324 351.322 25.5256C351.442 25.7129 351.505 25.9529 351.505 26.2217C351.505 26.6681 351.332 27.225 350.972 27.7818C350.837 27.993 350.611 28.2331 350.342 28.4155C350.198 28.5163 350.04 28.5979 349.867 28.6555C349.454 28.7995 349.286 28.3819 349.8 28.1611C349.891 28.1226 349.982 28.0698 350.069 28.0122C350.285 27.8682 350.458 27.681 350.563 27.5178C350.871 27.0378 351.02 26.5817 351.02 26.2217C351.02 26.0441 350.986 25.8953 350.914 25.7897C350.852 25.6937 350.76 25.6312 350.64 25.6024C350.535 25.5784 350.41 25.5784 350.266 25.6072ZM331.907 23.4519C333.256 19.89 337.272 21.7429 337.359 23.6199C337.162 23.4231 336.321 22.9574 335.846 22.919C335.764 25.012 333.28 25.54 332.526 23.3415C332.257 23.3319 332.099 23.3271 331.907 23.4519ZM338.218 32.3422C341.009 34.5936 342.023 30.5997 342.513 29.9852C342.373 34.944 338.569 34.5984 338.218 32.3422ZM337.488 28.6027C337.815 28.7803 338.339 28.9627 339.496 28.9867C337.109 29.9324 336.268 28.8235 336.302 27.7914C336.34 26.3993 337.647 26.6777 337.383 24.4215C338.516 26.0057 335.956 27.7722 337.488 28.6027Z" fill="#FEFEFE"/>
<path fill-rule="evenodd" clip-rule="evenodd" d="M342.247 88.7369L250.049 72.9772C246.744 72.4107 244.525 69.2761 245.087 65.9734L250.117 38.4466C250.684 35.144 253.821 32.9262 257.125 33.4878L349.323 49.2475C352.628 49.814 354.847 52.9486 354.285 56.2513L349.26 83.778C348.688 87.0807 345.552 89.3033 342.247 88.7369Z" fill="#009CDE"/>
<path fill-rule="evenodd" clip-rule="evenodd" d="M325.537 65.2576L337.536 61.9837C338.535 61.7005 338.68 60.9852 337.82 60.4188L327.391 53.583C326.877 53.2422 326.104 53.0022 325.35 52.9253C324.85 52.8773 324.36 52.9013 323.962 53.0118L322.895 53.3046L311.963 56.2856C310.963 56.5688 310.819 57.2841 311.674 57.8506L316.353 60.918L317.583 61.7245L322.103 64.6863C322.823 65.2576 324.394 65.5408 325.537 65.2576Z" fill="white"/>
<path fill-rule="evenodd" clip-rule="evenodd" d="M329.841 65.2096L327.757 65.7665L325.393 66.3953C324.394 66.6785 322.823 66.3953 321.964 65.8241L316.939 62.483L315.714 61.6669L315.109 61.2637L310.964 62.4014C309.964 62.6846 309.82 63.3999 310.675 63.9663L312.611 65.2336L313.846 66.0401L321.109 70.7973C321.43 71.0085 321.829 71.1861 322.276 71.3013C322.924 71.4741 323.659 71.5317 324.37 71.4213C324.476 71.4069 324.577 71.3877 324.678 71.3637L324.975 71.2821L326.455 70.8789L336.677 68.0898C337.676 67.8066 337.82 67.0914 336.965 66.5249L333.391 64.2447L329.841 65.2096Z" fill="white" fill-opacity="0.75"/>
<path fill-rule="evenodd" clip-rule="evenodd" d="M332.109 70.3798L326.416 71.9255L324.947 72.3239L324.25 72.5111C323.885 72.6167 323.443 72.6455 322.987 72.6071C322.367 72.5591 321.723 72.3959 321.209 72.1559C321.07 72.0887 320.94 72.0167 320.82 71.9399L314.105 67.5283L311.871 68.1428L309.96 68.6708C309.888 68.69 309.82 68.714 309.753 68.738C309.72 68.7524 309.686 68.7668 309.652 68.7812C308.937 69.1125 308.913 69.7317 309.672 70.2357L309.753 70.2885L316.939 74.9977L318.308 75.8954L320.105 77.0715C320.964 77.6428 322.391 77.926 323.39 77.6427L324.894 77.2347L326.354 76.8363L331.7 75.377L335.394 74.3689C335.841 74.2441 336.115 74.0281 336.206 73.7832C336.321 73.476 336.153 73.116 335.678 72.804L332.109 70.3798Z" fill="white" fill-opacity="0.5"/>
<path d="M345.644 80.3845C347.283 80.316 348.755 80.9476 349.832 81.8232C350.942 82.7263 351.5 83.7722 351.527 84.4149C351.547 84.8786 351.312 85.4842 350.745 86.1893C350.19 86.8799 349.382 87.5832 348.433 88.2202C346.517 89.5064 344.189 90.4178 342.523 90.4874C341.057 90.5486 339.925 89.6587 339.097 88.2506C338.268 86.8397 337.841 85.0472 337.785 83.6959C337.747 82.7785 338.495 81.9767 340.153 81.3509C341.743 80.7506 343.829 80.4604 345.644 80.3845Z" fill="white" stroke="#333333" stroke-width="1.5"/>
<path d="M292.461 36.4163C294.238 36.5896 295.483 37.0216 296.241 37.5621C296.97 38.0822 297.226 38.6763 297.165 39.3046C297.058 40.3951 296.135 41.5241 294.623 42.3681C293.137 43.1974 291.258 43.6442 289.58 43.4805C286.107 43.1417 283.993 40.9218 284.219 38.6069C284.308 37.6931 285.161 37.0027 286.889 36.6126C288.547 36.2385 290.653 36.2399 292.461 36.4163Z" fill="white" stroke="#333333" stroke-width="1.5"/>
<path d="M85.5215 93.5C88.0068 93.5 90.0215 95.5147 90.0215 98V139C90.0215 141.485 88.0068 143.5 85.5215 143.5H44.5215C42.0362 143.5 40.0215 141.485 40.0215 139V98C40.0215 95.5147 42.0362 93.5 44.5215 93.5H85.5215Z" fill="white" stroke="#CCCCCC"/>
<path fill-rule="evenodd" clip-rule="evenodd" d="M66.5954 117.453L80.0773 111.536C81.1982 111.03 81.2525 110.145 80.1589 109.604L66.9006 103.081C66.2465 102.755 65.3058 102.593 64.4134 102.624C63.8228 102.648 63.2548 102.758 62.8071 102.957L61.6093 103.485L49.3252 108.874C48.2043 109.379 48.15 110.265 49.238 110.807L55.1863 113.734L56.7498 114.504L62.4963 117.33C63.4281 117.899 65.3063 117.983 66.5954 117.453Z" fill="#5DC0E8"/>
<path fill-rule="evenodd" clip-rule="evenodd" d="M71.6103 116.688L69.2661 117.702L66.6082 118.848C65.4872 119.353 63.6091 119.27 62.5147 118.723L56.1192 115.523L54.5598 114.741L53.7893 114.355L49.1327 116.407C48.0118 116.913 47.9574 117.798 49.0454 118.34L51.5063 119.549L53.0754 120.318L62.3086 124.856C62.7179 125.058 63.2114 125.206 63.7511 125.272C64.5354 125.373 65.4022 125.322 66.2143 125.072C66.3353 125.037 66.45 124.998 66.5639 124.952L66.8984 124.805L68.5608 124.076L80.0458 119.035C81.1667 118.529 81.221 117.644 80.133 117.102L75.5993 114.942L71.6103 116.688Z" fill="#95C038"/>
<path fill-rule="evenodd" clip-rule="evenodd" d="M75.0815 122.545L68.6848 125.343L67.0329 126.065L66.2499 126.405C65.8406 126.592 65.3295 126.699 64.7908 126.728C64.0601 126.772 63.2829 126.681 62.6449 126.477C62.4716 126.419 62.3088 126.353 62.1564 126.28L53.6173 122.068L51.1084 123.176L48.9614 124.126C48.8804 124.161 48.8057 124.201 48.7311 124.241C48.6941 124.264 48.6572 124.287 48.6202 124.31C47.8377 124.827 47.9083 125.577 48.8742 126.06L48.9779 126.11L58.1138 130.603L59.8544 131.46L62.1381 132.581C63.2325 133.128 64.9425 133.235 66.0634 132.73L67.7531 131.991L69.3938 131.271L75.4006 128.633L79.5509 126.812C80.0524 126.588 80.3375 126.282 80.4051 125.972C80.4907 125.583 80.2372 125.177 79.6326 124.879L75.0815 122.545Z" fill="#FF6F3D"/>
<path fill-rule="evenodd" clip-rule="evenodd" d="M150.521 108C150.521 109.105 149.626 110 148.521 110H99.5215C98.4169 110 97.5215 109.105 97.5215 108C97.5215 106.895 98.4169 106 99.5215 106H148.521C149.626 106 150.521 106.895 150.521 108Z" fill="#E2E2E2"/>
<path fill-rule="evenodd" clip-rule="evenodd" d="M120.521 122C120.521 122.552 120.074 123 119.521 123H98.5215C97.9692 123 97.5215 122.552 97.5215 122C97.5215 121.448 97.9692 121 98.5215 121H119.521C120.074 121 120.521 121.448 120.521 122Z" fill="#E2E2E2"/>
<path fill-rule="evenodd" clip-rule="evenodd" d="M170.521 130C170.521 130.552 170.074 131 169.521 131H98.5215C97.9692 131 97.5215 130.552 97.5215 130C97.5215 129.448 97.9692 129 98.5215 129H169.521C170.074 129 170.521 129.448 170.521 130Z" fill="#E2E2E2"/>
<path fill-rule="evenodd" clip-rule="evenodd" d="M252.521 156.5C252.521 156.776 252.298 157 252.021 157H41.0215C40.7453 157 40.5215 156.776 40.5215 156.5C40.5215 156.224 40.7453 156 41.0215 156H252.021C252.298 156 252.521 156.224 252.521 156.5Z" fill="#CCCCCC"/>
<path fill-rule="evenodd" clip-rule="evenodd" d="M227.521 172C227.521 173.105 226.626 174 225.521 174H116.521C115.417 174 114.521 173.105 114.521 172C114.521 170.895 115.417 170 116.521 170H225.521C226.626 170 227.521 170.895 227.521 172Z" fill="#E2E2E2"/>
<path fill-rule="evenodd" clip-rule="evenodd" d="M164.521 183C164.521 183.552 164.074 184 163.521 184H115.521C114.969 184 114.521 183.552 114.521 183C114.521 182.448 114.969 182 115.521 182H163.521C164.074 182 164.521 182.448 164.521 183Z" fill="#EFEFEF"/>
<path fill-rule="evenodd" clip-rule="evenodd" d="M224.521 193C224.521 193.552 224.074 194 223.521 194H115.521C114.969 194 114.521 193.552 114.521 193C114.521 192.448 114.969 192 115.521 192H223.521C224.074 192 224.521 192.448 224.521 193Z" fill="#EFEFEF"/>
<path fill-rule="evenodd" clip-rule="evenodd" d="M201.521 203C201.521 203.552 201.074 204 200.521 204H115.521C114.969 204 114.521 203.552 114.521 203C114.521 202.448 114.969 202 115.521 202H200.521C201.074 202 201.521 202.448 201.521 203Z" fill="#EFEFEF"/>
<path fill-rule="evenodd" clip-rule="evenodd" d="M217.521 213C217.521 213.552 217.074 214 216.521 214H115.521C114.969 214 114.521 213.552 114.521 213C114.521 212.448 114.969 212 115.521 212H216.521C217.074 212 217.521 212.448 217.521 213Z" fill="#EFEFEF"/>
<path fill-rule="evenodd" clip-rule="evenodd" d="M84.5215 171C84.5215 171.552 84.0738 172 83.5215 172H46.5215C45.9692 172 45.5215 171.552 45.5215 171C45.5215 170.448 45.9692 170 46.5215 170H83.5215C84.0738 170 84.5215 170.448 84.5215 171Z" fill="#EFEFEF"/>
<path fill-rule="evenodd" clip-rule="evenodd" d="M84.5215 181C84.5215 181.552 84.0738 182 83.5215 182H46.5215C45.9692 182 45.5215 181.552 45.5215 181C45.5215 180.448 45.9692 180 46.5215 180H83.5215C84.0738 180 84.5215 180.448 84.5215 181Z" fill="#EFEFEF"/>
<path fill-rule="evenodd" clip-rule="evenodd" d="M84.5215 191C84.5215 191.552 84.0738 192 83.5215 192H46.5215C45.9692 192 45.5215 191.552 45.5215 191C45.5215 190.448 45.9692 190 46.5215 190H83.5215C84.0738 190 84.5215 190.448 84.5215 191Z" fill="#EFEFEF"/>
<path fill-rule="evenodd" clip-rule="evenodd" d="M84.5215 201C84.5215 201.552 84.0738 202 83.5215 202H46.5215C45.9692 202 45.5215 201.552 45.5215 201C45.5215 200.448 45.9692 200 46.5215 200H83.5215C84.0738 200 84.5215 200.448 84.5215 201Z" fill="#EFEFEF"/>
<path fill-rule="evenodd" clip-rule="evenodd" d="M84.5215 211C84.5215 211.552 84.0738 212 83.5215 212H46.5215C45.9692 212 45.5215 211.552 45.5215 211C45.5215 210.448 45.9692 210 46.5215 210H83.5215C84.0738 210 84.5215 210.448 84.5215 211Z" fill="#EFEFEF"/>
<rect x="186.5" y="94.5" width="65.5213" height="45.5213" rx="3.5" fill="#F9F9F9"/>
<rect x="186.5" y="94.5" width="65.5213" height="45.5213" rx="3.5" stroke="#CCCCCC"/>
<path fill-rule="evenodd" clip-rule="evenodd" d="M212.87 127.205C211.914 128.162 210.343 128.142 209.361 127.16C208.38 126.179 208.36 124.608 209.317 123.651L211.297 121.671C211.513 121.455 211.677 121.179 211.683 120.869L211.865 110.308C211.866 110.245 211.9 109.9 211.922 109.877L213.879 107.92C214.426 107.373 215.324 107.384 215.885 107.945L228.576 120.637C229.137 121.198 229.149 122.095 228.602 122.642L226.964 124.28C226.779 124.465 226.475 124.652 226.213 124.656L215.652 124.839C215.342 124.844 215.067 125.008 214.85 125.225L212.87 127.205ZM220.936 111.017L217.89 107.971L222.307 103.554C223.148 102.713 224.512 102.713 225.353 103.554C226.194 104.395 226.194 105.759 225.353 106.6L220.936 111.017ZM228.551 118.632L225.505 115.586L229.922 111.169C230.763 110.328 232.127 110.328 232.968 111.169C233.809 112.01 233.809 113.374 232.968 114.215L228.551 118.632Z" fill="#5399DF"/>
<path d="M446.237 2.5249H362.301V54.5948H446.237V2.5249Z" fill="white" stroke="#EBEBEB" stroke-width="0.75" stroke-miterlimit="22.9256"/>
<path d="M382.014 23.8579H379.113V45.6757H382.014V23.8579Z" fill="#EBEBEB"/>
<path d="M393.384 13.9741H390.483V45.6711H393.384V13.9741Z" fill="#EBEBEB"/>
<path d="M404.87 28.6826H401.968V45.676H404.87V28.6826Z" fill="#EBEBEB"/>
<path d="M416.364 21.3281H413.463V45.5557H416.364V21.3281Z" fill="#EBEBEB"/>
<path fill-rule="evenodd" clip-rule="evenodd" d="M427.854 26.2681H424.828V45.6761H427.734V26.2681H427.854Z" fill="#EBEBEB"/>
<path d="M376.207 12.6494H373.306V45.6761H376.207V12.6494Z" fill="#E0E0E0"/>
<path d="M387.577 16.7485H384.676V45.7957H387.577V16.7485Z" fill="#E0E0E0"/>
<path d="M399.067 24.583H396.166V45.6759H399.067V24.583Z" fill="#E0E0E0"/>
<path d="M410.557 16.0239H407.655V45.676H410.557V16.0239Z" fill="#E0E0E0"/>
<path d="M422.047 17.1089H419.145V45.676H422.047V17.1089Z" fill="#E0E0E0"/>
<path d="M433.536 22.5332H430.635V45.6759H433.536V22.5332Z" fill="#E0E0E0"/>
<path d="M447.567 0.235352H360V3.12999H447.567V0.235352Z" fill="#EBEBEB"/>
<path d="M429.844 62.7412H386.545V99.9827H429.844V62.7412Z" fill="#F5F5F5"/>
<path fill-rule="evenodd" clip-rule="evenodd" d="M389.207 97.3331V61.4165H431.295V97.4531H389.207V97.3331Z" stroke="#E0E0E0" stroke-width="0.75" stroke-miterlimit="22.9256"/>
<path fill-rule="evenodd" clip-rule="evenodd" d="M394.409 75.5151H392.473V77.4449H394.409V75.5151ZM399.366 75.5151H397.43V77.4449H399.366V75.5151ZM402.267 75.5151H404.203V77.4449H402.267V75.5151ZM409.16 75.5151H407.224V77.4449H409.16V75.5151ZM412.186 75.5151H414.122V77.4449H412.186V75.5151ZM418.959 75.5151H417.023V77.4449H418.959V75.5151ZM421.981 75.5151H423.917V77.4449H421.981V75.5151ZM394.409 79.3747H392.473V81.3044H394.409V79.3747ZM397.43 79.3747H399.366V81.3044H397.43V79.3747ZM404.323 79.3747H402.387V81.3044H404.323V79.3747ZM407.229 79.3747H409.165V81.3044H407.229V79.3747ZM414.122 79.3747H412.186V81.3044H414.122V79.3747ZM417.023 79.3747H418.959V81.3044H417.023V79.3747ZM423.917 79.3747H421.981V81.3044H423.917V79.3747ZM392.473 83.3494H394.409V85.2791H392.473V83.3494ZM399.366 83.3494H397.43V85.2791H399.366V83.3494ZM402.267 83.3494H404.203V85.2791H402.267V83.3494ZM409.16 83.3494H407.224V85.2791H409.16V83.3494ZM412.186 83.3494H414.122V85.2791H412.186V83.3494ZM418.959 83.3494H417.023V85.2791H418.959V83.3494ZM421.981 83.3494H423.917V85.2791H421.981V83.3494ZM394.409 87.2089H392.473V89.2587H394.409V87.2089ZM397.43 87.2089H399.366V89.2587H397.43V87.2089ZM404.323 87.2089H402.387V89.2587H404.323V87.2089ZM407.229 87.2089H409.165V89.2587H407.229V87.2089ZM414.122 87.2089H412.186V89.2587H414.122V87.2089ZM417.023 87.2089H418.959V89.2587H417.023V87.2089ZM423.917 87.2089H421.981V89.2587H423.917V87.2089ZM392.473 91.1836H394.409V93.1134H392.473V91.1836ZM399.366 91.1836H397.43V93.1134H399.366V91.1836ZM402.267 91.1836H404.203V93.1134H402.267V91.1836ZM409.16 91.1836H407.224V93.1134H409.16V91.1836ZM412.186 91.1836H414.122V93.1134H412.186V91.1836ZM418.959 91.1836H417.023V93.1134H418.959V91.1836ZM421.981 91.1836H423.917V93.1134H421.981V91.1836Z" fill="#E0E0E0"/>
<path d="M424.041 69.6108H392.593V70.5757H424.041V69.6108Z" fill="#E0E0E0"/>
<path d="M278.836 48.6009C277.238 46.2885 275.713 44.0839 275.534 41.8699C274.607 43.8887 272.419 45.4371 270.126 47.0618C266.685 49.498 262.785 52.2587 261.899 57.2763C261.645 58.685 261.669 60.1293 261.968 61.5264C262.268 62.9235 262.837 64.246 263.644 65.418C264.451 66.59 265.479 67.5885 266.67 68.3562C267.861 69.1239 269.191 69.6458 270.583 69.8919C271.976 70.1379 273.404 70.1034 274.786 69.7902C276.168 69.477 277.476 68.8914 278.635 68.0668C279.795 67.2422 280.783 66.195 281.543 64.985C282.303 63.7751 282.821 62.4264 283.065 61.0161C283.951 55.9988 281.234 52.0685 278.836 48.6009ZM265.956 60.5668C265.311 60.4299 263.654 55.8291 268.883 52.166L271.249 55.9355C271.27 55.9652 271.284 55.9991 271.291 56.0348C271.298 56.0706 271.297 56.1074 271.289 56.143C271.281 56.1785 271.265 56.2119 271.243 56.241C271.222 56.2701 271.194 56.2942 271.162 56.3117C270.332 56.9159 266.805 59.4223 266.248 60.4059C266.133 60.609 266.023 60.581 265.956 60.5668M271.068 67.1479C270.59 67.0634 270.134 66.8846 269.725 66.6214C269.316 66.3583 268.963 66.0161 268.685 65.6143C268.407 65.2125 268.211 64.7591 268.107 64.2798C268.003 63.8006 267.994 63.3049 268.079 62.8212C268.25 61.9304 268.723 61.1266 269.416 60.5483C270.216 59.8521 272.696 57.9345 272.696 57.9345C272.696 57.9345 274.33 60.6135 274.877 61.5052C275.354 62.2799 275.526 63.2083 275.359 64.1074C275.186 65.0843 274.637 65.9535 273.832 66.5237C273.028 67.0939 272.033 67.3184 271.068 67.1479ZM279.09 62.4052C278.981 62.565 278.752 62.8234 278.51 62.7898C278.079 62.73 278.073 62.4999 277.84 61.97C277.329 60.8068 272.399 53.3227 271.484 51.8821C270.679 50.6151 271.672 49.9974 272.141 49.6647C272.729 49.2472 274.445 48.0319 274.445 48.0319C274.445 48.0319 278.05 52.9672 279.355 56.1348C280.66 59.3024 279.601 61.6568 279.09 62.4052Z" fill="white"/>
</g>
<defs>
<clipPath id="clip0_19_261447">
<rect width="448" height="254" fill="white"/>
</clipPath>
</defs>
</svg>
