<svg width="448" height="254" viewBox="0 0 448 254" fill="none" xmlns="http://www.w3.org/2000/svg">
<path d="M222.431 253.553C332.682 253.553 422.059 251.414 422.059 248.776C422.059 246.138 332.682 244 222.431 244C112.18 244 22.8032 246.138 22.8032 248.776C22.8032 251.414 112.18 253.553 222.431 253.553Z" fill="#EFEFEF"/>
<path fill-rule="evenodd" clip-rule="evenodd" d="M295.28 72.465L272.497 95.232C270.614 97.1146 270.279 100.066 271.763 102.316L276.517 109.735C278.576 112.941 278.719 116.978 277.267 120.488C275.815 124.014 272.848 126.742 269.131 127.556L260.515 129.422C257.899 129.997 256.032 132.294 256.032 134.975L256 167.171C256 169.851 257.851 172.164 260.467 172.723L269.083 174.589C272.8 175.403 275.752 178.147 277.203 181.657C278.655 185.167 278.496 189.204 276.438 192.411L271.667 199.829C270.215 202.079 270.535 205.031 272.417 206.913L295.168 229.68C297.051 231.563 300.002 231.898 302.252 230.446L309.671 225.676C312.878 223.618 316.914 223.474 320.424 224.926C323.934 226.394 326.678 229.345 327.476 233.063L329.343 241.678C329.917 244.279 332.214 246.145 334.895 246.145H367.059C369.723 246.145 372.037 244.294 372.611 241.678L374.494 233.063C375.307 229.345 378.052 226.378 381.562 224.926C385.072 223.474 389.108 223.618 392.315 225.676L399.718 230.446C401.967 231.882 404.919 231.563 406.801 229.68L429.584 206.913C431.467 205.031 431.786 202.079 430.35 199.829L425.596 192.411C423.538 189.204 423.378 185.167 424.846 181.657C426.298 178.131 429.265 175.403 432.983 174.589L441.598 172.723C444.215 172.148 446.081 169.835 446.081 167.171L446.097 134.975C446.097 132.294 444.247 129.997 441.63 129.422L433.031 127.556C429.313 126.742 426.362 123.998 424.91 120.488C423.458 116.978 423.617 112.941 425.676 109.735L430.446 102.316C431.898 100.066 431.579 97.1146 429.696 95.232L406.945 72.465C405.062 70.5664 402.111 70.2473 399.861 71.6992L392.442 76.4696C389.236 78.5277 385.199 78.6713 381.689 77.2194C378.179 75.7676 375.435 72.8 374.637 69.0827L372.771 60.4672C372.196 57.8667 369.899 56 367.218 56H335.022C332.358 56 330.045 57.8507 329.47 60.4672L327.588 69.0827C326.774 72.8 324.03 75.7676 320.52 77.2194C317.01 78.6713 312.973 78.5277 309.766 76.4696L302.364 71.6992C300.13 70.2633 297.178 70.5824 295.28 72.465ZM351.049 191.265C372.642 191.265 390.146 173.761 390.146 152.168C390.146 130.575 372.642 113.071 351.049 113.071C329.456 113.071 311.952 130.575 311.952 152.168C311.952 173.761 329.456 191.265 351.049 191.265Z" fill="#EFEFEF"/>
<path d="M13.5049 9.5H300.495C304.337 9.50019 307.39 12.4877 307.495 16.2939V188.5H6.5V16.4961C6.50006 12.5942 9.59966 9.50019 13.5049 9.5Z" fill="#AAAAAA" stroke="#333333"/>
<path d="M301.5 15.5V182.5H12.5V15.5H301.5Z" fill="white" stroke="#333333"/>
<path d="M30.7972 23.452C29.6512 22.3117 28.5578 21.2254 28.232 20C27.9068 21.2254 26.8128 22.3117 25.6673 23.452C23.9489 25.1607 22 27.0977 22 30.0031C22 33.4281 24.7905 36.2047 28.2326 36.2047C31.6747 36.2047 34.4652 33.4281 34.4652 30.0031C34.4646 27.0983 32.5163 25.1607 30.7972 23.452ZM24.649 31.448C24.2666 31.4354 22.8566 29.0162 25.4727 26.4407L27.2044 28.3225C27.2627 28.3794 27.2633 28.4731 27.2056 28.5306C27.2015 28.5346 27.1975 28.5386 27.1929 28.542C26.7799 28.9639 25.0187 30.721 24.7998 31.3285C24.7547 31.4543 24.6888 31.4492 24.649 31.448ZM28.2326 34.6362C27.049 34.6362 26.089 33.6815 26.089 32.5033C26.089 31.963 26.305 31.4819 26.6233 31.0945C27.0097 30.6244 28.232 29.3019 28.232 29.3019C28.232 29.3019 29.4358 30.6439 29.8378 31.0905C30.1884 31.4779 30.3802 31.9825 30.3756 32.5039C30.3762 33.681 29.4161 34.6362 28.2326 34.6362ZM32.3349 31.1773C32.2887 31.2779 32.1841 31.4457 32.0426 31.4509C31.7908 31.4601 31.7636 31.3313 31.577 31.0572C31.1681 30.4548 27.5972 26.7419 26.9295 26.0235C26.3426 25.3918 26.8469 24.9464 27.0814 24.713C27.3748 24.4205 28.2326 23.5675 28.2326 23.5675C28.2326 23.5675 30.7892 25.9809 31.8537 27.6299C32.9183 29.2789 32.5515 30.7066 32.3349 31.1773Z" fill="#009CDE"/>
<path d="M52.8471 26.4658H51.5519L51.554 28.8893C51.554 29.5976 51.2504 30.1706 50.5421 30.1706C49.8335 30.1706 49.5271 29.5976 49.5271 28.8893V26.4682H48.2352L48.2349 28.8893C48.2349 30.2889 49.1345 31.4232 50.5343 31.4232C51.9337 31.4232 52.8467 30.2889 52.8467 28.8893L52.8471 26.4658Z" fill="#009CDE"/>
<path d="M65.8157 24.9893H64.5269V31.2983H65.8157V24.9893Z" fill="#009CDE"/>
<path d="M66.7676 25.1085V24.9951H67.2698V25.1084H67.0861V25.6079H66.9514V25.1085H66.7676Z" fill="#009CDE"/>
<path d="M67.5299 24.9951L67.6733 25.4165H67.675L67.8105 24.9951H68.0003V25.6079H67.8742V25.1736H67.8724L67.7222 25.6079H67.6183L67.4682 25.1779H67.4665V25.6079H67.3403V24.9951H67.5299Z" fill="#009CDE"/>
<path d="M47.1818 26.4131C46.0707 26.1567 45.3699 27.2604 45.3408 27.3196C45.3264 27.3486 45.3259 27.3656 45.2767 27.3643C45.236 27.3634 45.2313 27.3196 45.2313 27.3196L45.0935 26.4753H43.939V31.2939H45.2332V28.6857C45.2332 28.4726 45.8072 27.4506 46.9192 27.7137C47.4816 27.8467 47.7201 28.0854 47.7201 28.0854C47.7201 28.0854 47.7201 27.1553 47.7201 26.6175C47.512 26.5089 47.3692 26.4563 47.1818 26.4131Z" fill="#009CDE"/>
<path d="M54.6034 32.881V31.1472C54.6036 31.1472 54.6037 31.1474 54.6038 31.1475L54.604 30.4982C54.604 30.4982 54.6061 30.4463 54.6529 30.4456C54.6947 30.4452 54.704 30.4728 54.7141 30.4982C54.8123 30.7424 55.352 31.6727 56.5496 31.3809C57.6218 31.0789 58.4082 30.0944 58.4082 28.9251C58.4082 27.5165 57.2659 26.374 55.8569 26.374C54.4479 26.374 53.3057 27.5165 53.3057 28.9251C53.3057 28.9251 53.3057 32.4126 53.3057 32.881L54.6034 32.881ZM55.8579 27.6341C56.5713 27.6341 57.1494 28.2124 57.1494 28.9252C57.1494 29.6386 56.5713 30.2169 55.8579 30.2169C55.1447 30.2169 54.5667 29.6387 54.5667 28.9252C54.5668 28.2124 55.1448 27.6341 55.8579 27.6341Z" fill="#009CDE"/>
<path d="M62.7056 31.296H64.0034V28.9251C64.0034 27.5165 62.8613 26.374 61.4522 26.374C60.0431 26.374 58.9009 27.5165 58.9009 28.9251C58.9009 30.0943 59.6873 31.0788 60.7595 31.3809C61.9572 31.6727 62.4967 30.7424 62.5949 30.4982C62.6051 30.4728 62.6143 30.4452 62.6562 30.4456C62.703 30.4463 62.7049 30.4982 62.7049 30.4982M62.7423 28.9251C62.7423 29.6385 62.1641 30.2169 61.4511 30.2169C60.7379 30.2169 60.1596 29.6386 60.1596 28.9251C60.1596 28.2123 60.7379 27.634 61.4511 27.634C62.1642 27.634 62.7423 28.2123 62.7423 28.9251Z" fill="#009CDE"/>
<path d="M39.8848 31.2859H38.4126V24.9863H39.9923C41.9051 24.9863 43.3558 25.3373 43.3558 28.1362C43.3558 30.9079 41.8191 31.2859 39.8848 31.2859ZM40.2363 26.0783H39.7159V30.1929L40.2503 30.2066C41.3464 30.2066 42.0523 30.1068 42.0523 28.1361C42.0523 26.2462 41.4291 26.0783 40.2363 26.0783Z" fill="#009CDE"/>
<line x1="14" y1="41.5" x2="300" y2="41.5" stroke="#E2E2E2"/>
<g clip-path="url(#clip0_19_245853)">
<path d="M165.03 142.172H194.859V105.658H170.949L170.874 105.733L165.105 111.527L165.03 111.602V142.172Z" fill="white" stroke="#333333" stroke-width="0.514301"/>
<path d="M171.042 105.677C170.946 105.637 170.836 105.659 170.762 105.733L165.105 111.39C165.031 111.464 165.01 111.574 165.049 111.67C165.089 111.766 165.183 111.829 165.287 111.829H170.944C171.086 111.829 171.201 111.714 171.201 111.572V105.915L171.19 105.839C171.168 105.767 171.114 105.707 171.042 105.677Z" fill="#D9F4FF" stroke="#333333" stroke-width="0.514301" stroke-linejoin="round"/>
<path d="M169.144 145.258H199.487V108.744H175.166L175.091 108.818L169.221 114.611L169.144 114.687V145.258Z" fill="white" stroke="#333333" stroke-width="0.514301"/>
<path d="M175.157 108.763C175.061 108.723 174.95 108.745 174.877 108.819L169.219 114.476C169.146 114.55 169.124 114.66 169.164 114.756C169.204 114.852 169.297 114.915 169.401 114.915H175.058C175.2 114.915 175.315 114.8 175.315 114.658V109L175.304 108.925C175.282 108.853 175.229 108.793 175.157 108.763Z" fill="#D9F4FF" stroke="#333333" stroke-width="0.514301" stroke-linejoin="round"/>
<path d="M173.258 148.344H203.602V111.83H179.281L179.206 111.903L173.335 117.647L173.258 117.722V148.344Z" fill="white" stroke="#333333" stroke-width="0.514301"/>
<path d="M179.374 111.849C179.278 111.809 179.167 111.831 179.094 111.905L173.539 117.459C173.466 117.533 173.444 117.644 173.483 117.74C173.523 117.836 173.617 117.898 173.721 117.898H179.275C179.417 117.898 179.532 117.783 179.532 117.641V112.086L179.521 112.011C179.499 111.939 179.446 111.879 179.374 111.849Z" fill="url(#paint0_linear_19_245853)" stroke="#333333" stroke-width="0.514301" stroke-linejoin="round"/>
<path fill-rule="evenodd" clip-rule="evenodd" d="M198.459 121.344C198.601 121.344 198.716 121.459 198.716 121.601C198.716 121.743 198.601 121.858 198.459 121.858H183.03C182.888 121.858 182.773 121.743 182.773 121.601C182.773 121.459 182.888 121.344 183.03 121.344H198.459ZM188.944 128.287C188.944 128.145 188.829 128.03 188.687 128.03H178.915C178.773 128.03 178.658 128.145 178.658 128.287C178.658 128.429 178.773 128.544 178.915 128.544H188.687C188.829 128.544 188.944 128.429 188.944 128.287ZM185.859 139.087C185.859 138.945 185.743 138.83 185.601 138.83H178.915C178.773 138.83 178.658 138.945 178.658 139.087C178.658 139.229 178.773 139.344 178.915 139.344H185.601C185.743 139.344 185.859 139.229 185.859 139.087ZM189.973 131.887C189.973 132.029 189.858 132.144 189.716 132.144H178.915C178.773 132.144 178.658 132.029 178.658 131.887C178.658 131.745 178.773 131.63 178.915 131.63H189.716C189.858 131.63 189.973 131.745 189.973 131.887ZM198.459 124.944C198.601 124.944 198.716 125.059 198.716 125.201C198.716 125.343 198.601 125.458 198.459 125.458H178.915C178.773 125.458 178.658 125.343 178.658 125.201C178.658 125.059 178.773 124.944 178.915 124.944H198.459ZM187.401 135.487C187.401 135.345 187.286 135.23 187.144 135.23H178.915C178.773 135.23 178.658 135.345 178.658 135.487C178.658 135.629 178.773 135.744 178.915 135.744H187.144C187.286 135.744 187.401 135.629 187.401 135.487ZM185.601 141.916C185.743 141.916 185.859 142.031 185.859 142.173C185.859 142.315 185.743 142.43 185.601 142.43H178.915C178.773 142.43 178.658 142.315 178.658 142.173C178.658 142.031 178.773 141.916 178.915 141.916H185.601ZM198.716 128.287C198.716 128.145 198.601 128.03 198.459 128.03H190.744C190.602 128.03 190.487 128.145 190.487 128.287C190.487 128.429 190.602 128.544 190.744 128.544H198.459C198.601 128.544 198.716 128.429 198.716 128.287ZM198.434 138.539C198.576 138.539 198.691 138.654 198.691 138.796C198.691 138.938 198.576 139.054 198.434 139.054H190.578C190.436 139.054 190.321 138.938 190.321 138.796C190.321 138.654 190.436 138.539 190.578 138.539H198.434Z" fill="#333333"/>
<path d="M197.585 117.229H187.402" stroke="url(#paint1_linear_19_245853)" stroke-width="1.0286" stroke-linecap="round"/>
<path d="M197.945 130.344C203.612 130.344 208.23 134.963 208.23 140.63C208.23 146.297 203.609 150.915 197.945 150.916C192.278 150.916 187.659 146.297 187.659 140.63C187.659 134.963 192.278 130.344 197.945 130.344Z" fill="#D9F4FF" stroke="#333333" stroke-width="0.514301"/>
<path d="M195.699 141.027C195.699 141.052 195.699 141.102 195.688 141.15C195.672 141.219 195.639 141.264 195.614 141.293L195.615 141.294L195.567 141.352L195.565 141.353C195.451 141.489 195.33 141.615 195.215 141.736C195.156 141.797 195.097 141.857 195.041 141.918L194.874 142.108C194.844 142.143 194.802 142.191 194.75 142.227C194.698 142.263 194.626 142.292 194.539 142.289C194.452 142.292 194.38 142.262 194.329 142.227C194.303 142.209 194.278 142.188 194.258 142.167L194.204 142.108C194.095 141.977 193.981 141.858 193.863 141.736C193.747 141.615 193.626 141.489 193.51 141.353L193.51 141.352L193.461 141.294L193.462 141.293C193.432 141.258 193.4 141.21 193.386 141.14C193.378 141.096 193.38 141.047 193.38 141.027V139.223L193.745 139.394C193.961 139.495 194.22 139.521 194.539 139.521C194.87 139.521 195.087 139.517 195.327 139.397L195.699 139.211V141.027Z" fill="white" stroke="#333333" stroke-width="0.514301"/>
<circle cx="194.539" cy="137.521" r="2.40693" fill="white" stroke="#333333" stroke-width="0.514301"/>
<path fill-rule="evenodd" clip-rule="evenodd" d="M194.635 136.195C195.094 136.983 196.178 137.895 196.934 137.786C196.943 137.707 196.946 137.629 196.946 137.547C196.946 136.204 195.868 135.114 194.539 135.114C193.21 135.114 192.132 136.204 192.132 137.547C192.132 137.641 192.138 137.731 192.147 137.822C192.873 137.813 194.061 137.321 194.635 136.195Z" fill="#AAAAAA" stroke="#333333" stroke-width="0.514301"/>
<path d="M195.789 140.427C196.82 140.616 197.582 141.05 198.238 141.582L198.441 141.746L198.274 141.946C197.375 143.024 196.022 143.711 194.507 143.711C192.984 143.711 191.625 143.017 190.726 141.926L190.56 141.725L190.763 141.563C191.428 141.03 192.265 140.609 193.291 140.427L193.592 140.374V141.039C193.708 141.18 193.851 141.326 194.011 141.486C194.177 141.651 194.356 141.833 194.506 142.027L195.485 141.026V140.372L195.789 140.427Z" fill="#D9F4FF" stroke="#333333" stroke-width="0.514301"/>
<path d="M202.851 141.027C202.851 141.052 202.851 141.102 202.84 141.15C202.824 141.219 202.791 141.264 202.766 141.293L202.767 141.294L202.719 141.352L202.717 141.353C202.602 141.489 202.482 141.615 202.366 141.736C202.308 141.797 202.249 141.857 202.193 141.918L202.026 142.108C201.996 142.143 201.954 142.191 201.902 142.227C201.85 142.263 201.778 142.292 201.691 142.289C201.604 142.292 201.532 142.262 201.481 142.227C201.454 142.209 201.43 142.188 201.409 142.167L201.356 142.108C201.247 141.977 201.133 141.858 201.015 141.736C200.899 141.615 200.777 141.489 200.662 141.353L200.661 141.352L200.613 141.294L200.614 141.293C200.584 141.258 200.552 141.21 200.538 141.14C200.53 141.096 200.531 141.047 200.531 141.027V139.223L200.897 139.394C201.113 139.495 201.372 139.521 201.691 139.521C202.022 139.521 202.239 139.517 202.479 139.397L202.851 139.211V141.027Z" fill="white" stroke="#333333" stroke-width="0.514301"/>
<circle cx="201.691" cy="137.521" r="2.40693" fill="white" stroke="#333333" stroke-width="0.514301"/>
<path fill-rule="evenodd" clip-rule="evenodd" d="M201.787 136.195C202.247 136.983 203.331 137.895 204.086 137.786C204.095 137.707 204.098 137.629 204.098 137.547C204.098 136.204 203.02 135.114 201.691 135.114C200.362 135.114 199.284 136.204 199.284 137.547C199.284 137.641 199.29 137.731 199.299 137.822C200.025 137.813 201.213 137.321 201.787 136.195Z" fill="#AAAAAA" stroke="#333333" stroke-width="0.514301"/>
<path d="M202.941 140.427C203.973 140.616 204.734 141.05 205.39 141.582L205.593 141.746L205.426 141.946C204.528 143.024 203.174 143.711 201.659 143.711C200.136 143.711 198.777 143.017 197.878 141.926L197.712 141.725L197.915 141.563C198.58 141.03 199.417 140.609 200.443 140.427L200.744 140.374V141.039C200.86 141.18 201.004 141.326 201.163 141.486C201.329 141.651 201.508 141.833 201.658 142.027L202.637 141.026V140.372L202.941 140.427Z" fill="#D9F4FF" stroke="#333333" stroke-width="0.514301"/>
<path d="M199.309 144.637C199.309 144.662 199.31 144.712 199.299 144.76C199.283 144.829 199.249 144.874 199.224 144.903L199.225 144.904L199.177 144.962L199.176 144.963C199.061 145.098 198.941 145.225 198.825 145.346C198.766 145.407 198.708 145.467 198.651 145.528L198.484 145.718C198.455 145.753 198.413 145.801 198.36 145.837C198.309 145.872 198.236 145.902 198.149 145.898C198.062 145.902 197.99 145.872 197.939 145.837C197.913 145.819 197.889 145.798 197.868 145.777L197.814 145.718C197.705 145.587 197.591 145.468 197.473 145.346C197.357 145.225 197.236 145.099 197.121 144.963L197.12 144.962L197.071 144.904L197.072 144.903C197.042 144.868 197.01 144.82 196.997 144.75C196.989 144.706 196.99 144.657 196.99 144.637V142.833L197.355 143.004C197.572 143.105 197.83 143.131 198.149 143.131C198.48 143.131 198.698 143.127 198.937 143.007L199.309 142.821V144.637Z" fill="white" stroke="#333333" stroke-width="0.514301"/>
<circle cx="198.149" cy="141.132" r="2.40693" fill="white" stroke="#333333" stroke-width="0.514301"/>
<path fill-rule="evenodd" clip-rule="evenodd" d="M198.245 139.805C198.705 140.593 199.789 141.505 200.544 141.396C200.553 141.318 200.556 141.239 200.556 141.158C200.556 139.814 199.478 138.725 198.149 138.725C196.82 138.725 195.742 139.814 195.742 141.158C195.742 141.251 195.748 141.342 195.757 141.432C196.483 141.423 197.672 140.931 198.245 139.805Z" fill="#AAAAAA" stroke="#333333" stroke-width="0.514301"/>
<path d="M199.399 144.038C200.431 144.226 201.192 144.66 201.848 145.192L202.052 145.356L201.885 145.556C200.986 146.634 199.632 147.322 198.118 147.322C196.595 147.322 195.235 146.627 194.337 145.537L194.171 145.335L194.374 145.173C195.039 144.64 195.876 144.219 196.901 144.038L197.203 143.984V144.649C197.319 144.791 197.462 144.936 197.622 145.096C197.787 145.262 197.967 145.444 198.117 145.637L199.095 144.636V143.982L199.399 144.038Z" fill="url(#paint2_linear_19_245853)" stroke="#333333" stroke-width="0.514301"/>
</g>
<line x1="167.344" y1="167.373" x2="212.088" y2="167.373" stroke="#666666" stroke-width="0.514301" stroke-dasharray="1.03 1.03"/>
<path d="M163.112 162.937H164.473V163.707H163.112V165.061H162.342V163.707H160.982V162.937H162.342V161.566H163.112V162.937ZM169.493 161.552C169.285 161.552 169.1 161.593 168.938 161.675C168.779 161.755 168.644 161.871 168.534 162.023C168.426 162.176 168.344 162.36 168.288 162.575C168.231 162.791 168.203 163.033 168.203 163.303C168.203 163.666 168.248 163.977 168.337 164.235C168.428 164.49 168.569 164.686 168.759 164.822C168.948 164.955 169.193 165.022 169.493 165.022C169.702 165.022 169.911 164.999 170.119 164.952C170.33 164.905 170.559 164.838 170.805 164.751V165.666C170.577 165.759 170.354 165.826 170.133 165.866C169.913 165.908 169.666 165.929 169.391 165.929C168.862 165.929 168.426 165.82 168.084 165.602C167.744 165.382 167.492 165.075 167.328 164.681C167.164 164.285 167.082 163.823 167.082 163.296C167.082 162.907 167.134 162.551 167.24 162.227C167.345 161.904 167.5 161.624 167.704 161.387C167.908 161.15 168.16 160.967 168.46 160.838C168.76 160.71 169.104 160.645 169.493 160.645C169.749 160.645 170.004 160.678 170.26 160.744C170.518 160.807 170.764 160.895 170.998 161.007L170.647 161.893C170.454 161.802 170.261 161.722 170.066 161.654C169.872 161.586 169.681 161.552 169.493 161.552ZM174.011 161.854C174.065 161.854 174.127 161.858 174.197 161.865C174.27 161.87 174.329 161.877 174.373 161.886L174.292 162.892C174.257 162.88 174.207 162.872 174.141 162.867C174.078 162.86 174.023 162.856 173.976 162.856C173.838 162.856 173.703 162.874 173.572 162.909C173.443 162.944 173.327 163.002 173.224 163.081C173.12 163.159 173.038 163.262 172.977 163.391C172.919 163.517 172.89 163.673 172.89 163.858V165.859H171.817V161.928H172.629L172.788 162.589H172.84C172.918 162.456 173.014 162.334 173.129 162.224C173.246 162.111 173.378 162.022 173.526 161.956C173.676 161.888 173.838 161.854 174.011 161.854ZM176.708 161.854C177.071 161.854 177.384 161.925 177.646 162.065C177.909 162.204 178.112 162.405 178.255 162.67C178.398 162.935 178.469 163.258 178.469 163.64V164.161H175.934C175.946 164.463 176.036 164.701 176.205 164.874C176.376 165.046 176.613 165.131 176.915 165.131C177.166 165.131 177.396 165.105 177.604 165.054C177.813 165.002 178.027 164.925 178.248 164.822V165.651C178.053 165.748 177.849 165.818 177.636 165.862C177.425 165.907 177.168 165.929 176.866 165.929C176.472 165.929 176.123 165.857 175.818 165.711C175.516 165.566 175.278 165.344 175.105 165.047C174.933 164.749 174.848 164.374 174.848 163.922C174.848 163.462 174.925 163.08 175.08 162.776C175.237 162.469 175.455 162.239 175.734 162.087C176.013 161.932 176.337 161.854 176.708 161.854ZM176.715 162.617C176.506 162.617 176.333 162.684 176.194 162.818C176.058 162.951 175.98 163.161 175.959 163.447H177.464C177.461 163.288 177.432 163.146 177.376 163.022C177.322 162.897 177.24 162.799 177.13 162.726C177.022 162.654 176.883 162.617 176.715 162.617ZM180.951 161.847C181.479 161.847 181.883 161.962 182.164 162.192C182.445 162.422 182.586 162.771 182.586 163.24V165.859H181.837L181.63 165.324H181.602C181.489 165.465 181.374 165.58 181.257 165.669C181.14 165.758 181.005 165.824 180.853 165.866C180.7 165.908 180.515 165.929 180.297 165.929C180.065 165.929 179.857 165.885 179.671 165.796C179.489 165.707 179.344 165.571 179.239 165.388C179.134 165.203 179.081 164.968 179.081 164.685C179.081 164.267 179.227 163.96 179.52 163.764C179.813 163.564 180.253 163.454 180.839 163.433L181.521 163.412V163.24C181.521 163.033 181.467 162.882 181.359 162.786C181.251 162.69 181.101 162.642 180.909 162.642C180.719 162.642 180.533 162.669 180.35 162.723C180.167 162.777 179.984 162.845 179.802 162.927L179.446 162.203C179.655 162.092 179.888 162.006 180.146 161.942C180.406 161.879 180.675 161.847 180.951 161.847ZM181.521 164.038L181.106 164.052C180.759 164.061 180.518 164.123 180.382 164.238C180.248 164.353 180.181 164.504 180.181 164.692C180.181 164.856 180.229 164.973 180.325 165.043C180.421 165.111 180.547 165.145 180.702 165.145C180.931 165.145 181.125 165.077 181.282 164.941C181.441 164.805 181.521 164.612 181.521 164.361V164.038ZM185.349 165.075C185.467 165.075 185.58 165.063 185.69 165.04C185.803 165.016 185.914 164.987 186.024 164.952V165.75C185.91 165.801 185.767 165.844 185.595 165.876C185.427 165.912 185.242 165.929 185.04 165.929C184.806 165.929 184.595 165.892 184.407 165.817C184.222 165.739 184.075 165.607 183.968 165.419C183.862 165.23 183.809 164.966 183.809 164.628V162.733H183.296V162.28L183.887 161.921L184.196 161.092H184.882V161.928H185.982V162.733H184.882V164.628C184.882 164.778 184.924 164.891 185.008 164.966C185.095 165.039 185.209 165.075 185.349 165.075ZM188.443 161.854C188.806 161.854 189.119 161.925 189.382 162.065C189.644 162.204 189.847 162.405 189.99 162.67C190.133 162.935 190.205 163.258 190.205 163.64V164.161H187.67C187.681 164.463 187.772 164.701 187.94 164.874C188.112 165.046 188.348 165.131 188.651 165.131C188.901 165.131 189.131 165.105 189.34 165.054C189.548 165.002 189.763 164.925 189.983 164.822V165.651C189.789 165.748 189.585 165.818 189.371 165.862C189.16 165.907 188.904 165.929 188.601 165.929C188.208 165.929 187.858 165.857 187.554 165.711C187.251 165.566 187.013 165.344 186.84 165.047C186.669 164.749 186.583 164.374 186.583 163.922C186.583 163.462 186.661 163.08 186.815 162.776C186.972 162.469 187.19 162.239 187.469 162.087C187.748 161.932 188.073 161.854 188.443 161.854ZM188.45 162.617C188.242 162.617 188.068 162.684 187.93 162.818C187.794 162.951 187.715 163.161 187.694 163.447H189.199C189.197 163.288 189.167 163.146 189.111 163.022C189.057 162.897 188.975 162.799 188.865 162.726C188.757 162.654 188.619 162.617 188.45 162.617ZM195.141 161.854C195.195 161.854 195.257 161.858 195.327 161.865C195.4 161.87 195.458 161.877 195.503 161.886L195.422 162.892C195.387 162.88 195.336 162.872 195.271 162.867C195.207 162.86 195.152 162.856 195.105 162.856C194.967 162.856 194.832 162.874 194.701 162.909C194.572 162.944 194.456 163.002 194.353 163.081C194.25 163.159 194.168 163.262 194.107 163.391C194.048 163.517 194.019 163.673 194.019 163.858V165.859H192.947V161.928H193.759L193.917 162.589H193.97C194.047 162.456 194.143 162.334 194.258 162.224C194.375 162.111 194.508 162.022 194.655 161.956C194.805 161.888 194.967 161.854 195.141 161.854ZM199.788 163.887C199.788 164.215 199.744 164.505 199.655 164.758C199.568 165.012 199.44 165.226 199.272 165.402C199.105 165.575 198.904 165.707 198.667 165.796C198.433 165.885 198.168 165.929 197.872 165.929C197.596 165.929 197.341 165.885 197.109 165.796C196.88 165.707 196.679 165.575 196.508 165.402C196.34 165.226 196.208 165.012 196.115 164.758C196.023 164.505 195.977 164.215 195.977 163.887C195.977 163.451 196.055 163.081 196.209 162.779C196.364 162.477 196.584 162.247 196.87 162.09C197.156 161.933 197.497 161.854 197.893 161.854C198.261 161.854 198.587 161.933 198.871 162.09C199.157 162.247 199.381 162.477 199.542 162.779C199.706 163.081 199.788 163.451 199.788 163.887ZM197.071 163.887C197.071 164.144 197.099 164.361 197.155 164.537C197.211 164.713 197.299 164.845 197.419 164.934C197.538 165.023 197.694 165.068 197.886 165.068C198.076 165.068 198.23 165.023 198.347 164.934C198.467 164.845 198.553 164.713 198.607 164.537C198.663 164.361 198.692 164.144 198.692 163.887C198.692 163.626 198.663 163.411 198.607 163.24C198.553 163.066 198.467 162.936 198.347 162.849C198.227 162.763 198.072 162.719 197.879 162.719C197.596 162.719 197.39 162.817 197.261 163.011C197.134 163.206 197.071 163.497 197.071 163.887ZM204.246 163.887C204.246 164.215 204.202 164.505 204.113 164.758C204.026 165.012 203.898 165.226 203.73 165.402C203.563 165.575 203.362 165.707 203.125 165.796C202.89 165.885 202.626 165.929 202.33 165.929C202.054 165.929 201.799 165.885 201.567 165.796C201.338 165.707 201.137 165.575 200.966 165.402C200.797 165.226 200.666 165.012 200.572 164.758C200.481 164.505 200.435 164.215 200.435 163.887C200.435 163.451 200.513 163.081 200.667 162.779C200.822 162.477 201.042 162.247 201.328 162.09C201.614 161.933 201.955 161.854 202.351 161.854C202.719 161.854 203.045 161.933 203.329 162.09C203.615 162.247 203.839 162.477 204 162.779C204.164 163.081 204.246 163.451 204.246 163.887ZM201.529 163.887C201.529 164.144 201.557 164.361 201.613 164.537C201.669 164.713 201.757 164.845 201.877 164.934C201.996 165.023 202.152 165.068 202.344 165.068C202.534 165.068 202.688 165.023 202.805 164.934C202.924 164.845 203.011 164.713 203.065 164.537C203.121 164.361 203.149 164.144 203.149 163.887C203.149 163.626 203.121 163.411 203.065 163.24C203.011 163.066 202.924 162.936 202.805 162.849C202.685 162.763 202.53 162.719 202.337 162.719C202.054 162.719 201.847 162.817 201.719 163.011C201.592 163.206 201.529 163.497 201.529 163.887ZM209.748 161.854C210.194 161.854 210.53 161.969 210.758 162.199C210.987 162.426 211.102 162.792 211.102 163.296V165.859H210.026V163.563C210.026 163.282 209.978 163.07 209.882 162.927C209.786 162.784 209.637 162.712 209.436 162.712C209.152 162.712 208.95 162.814 208.831 163.018C208.711 163.22 208.652 163.509 208.652 163.887V165.859H207.579V163.563C207.579 163.376 207.558 163.219 207.516 163.092C207.474 162.965 207.409 162.871 207.323 162.807C207.236 162.744 207.125 162.712 206.989 162.712C206.789 162.712 206.632 162.763 206.518 162.863C206.405 162.962 206.324 163.108 206.275 163.303C206.228 163.495 206.205 163.731 206.205 164.01V165.859H205.132V161.928H205.952L206.096 162.431H206.155C206.235 162.295 206.335 162.185 206.454 162.101C206.576 162.016 206.71 161.954 206.855 161.914C207 161.874 207.148 161.854 207.298 161.854C207.586 161.854 207.83 161.901 208.029 161.995C208.231 162.089 208.386 162.234 208.493 162.431H208.588C208.705 162.229 208.871 162.083 209.084 161.992C209.3 161.9 209.521 161.854 209.748 161.854Z" fill="#666666"/>
<path d="M190.78 215.5L190.831 215.943L194.497 247.943L194.561 248.5H117.427L117.505 247.932L121.904 215.932L121.964 215.5H190.78Z" fill="#CCCCCC" stroke="#333333"/>
<path d="M307.5 188.5V208.442C307.5 212.382 304.396 215.5 300.495 215.5H13.5049C9.59891 215.5 6.50012 212.383 6.5 208.442V188.5H307.5Z" fill="#E2E2E2" stroke="#333333"/>
<path d="M194.896 248.5L204.669 251.5H107.331L117.104 248.5H194.896Z" fill="#E2E2E2" stroke="#333333"/>
<path d="M207.281 252.5L206.909 253.5H104.986L104.678 252.5H207.281Z" fill="#AAAAAA" stroke="#333333"/>
<path d="M157.5 196.5C160.26 196.5 162.5 198.735 162.5 201.497C162.5 204.26 160.259 206.5 157.5 206.5C154.741 206.5 152.5 204.26 152.5 201.497C152.5 198.74 154.741 196.5 157.5 196.5Z" fill="#AAAAAA" stroke="#333333"/>
<rect x="13" y="41" width="288" height="9" fill="#0F0F0F"/>
<rect x="63" y="50" width="132" height="0.999994" transform="rotate(90 63 50)" fill="#D4D4D4"/>
<rect x="13" y="62" width="49" height="1" fill="#D4D4D4"/>
<rect x="63" y="50" width="238" height="41" fill="#F3F4F9"/>
<mask id="path-48-inside-1_19_245853" fill="white">
<path d="M70 97H128V182H70V97Z"/>
</mask>
<path d="M70 97H128V182H70V97Z" fill="#F8F9F9"/>
<path d="M127 97V182H129V97H127Z" fill="#F2F3F5" mask="url(#path-48-inside-1_19_245853)"/>
<rect x="17" y="55" width="41" height="2" rx="1" fill="#E5E5E5"/>
<rect x="70" y="57" width="100" height="2" rx="1" fill="#DADADA"/>
<rect x="70" y="83" width="30" height="2" rx="1" fill="#DADADA"/>
<rect x="77" y="132" width="45" height="2" rx="1" fill="#D4D4D4"/>
<rect x="77" y="141" width="45" height="2" rx="1" fill="#D4D4D4"/>
<rect x="77" y="150" width="45" height="2" rx="1" fill="#D4D4D4"/>
<rect x="77" y="172" width="45" height="2" rx="1" fill="#D4D4D4"/>
<rect x="77" y="163" width="45" height="2" rx="1" fill="#D4D4D4"/>
<rect x="77" y="114" width="45" height="9" rx="1" fill="#4781D1"/>
<rect x="107" y="83" width="30" height="2" rx="1" fill="#DADADA"/>
<rect x="144" y="83" width="30" height="2" rx="1" fill="#DADADA"/>
<rect x="181" y="83" width="30" height="2" rx="1" fill="#DADADA"/>
<rect x="218" y="83" width="30" height="2" rx="1" fill="#173DC4"/>
<rect x="214" y="90" width="38" height="1" fill="#173DC4"/>
<rect x="70" y="66" width="41" height="2" rx="1" fill="#0F0F0F"/>
<rect x="17" y="68" width="41" height="2" rx="1" fill="#E5E5E5"/>
<rect x="17" y="81" width="41" height="2" rx="1" fill="#E5E5E5"/>
<rect x="17" y="94" width="41" height="2" rx="1" fill="#E5E5E5"/>
<rect x="17" y="107" width="41" height="2" rx="1" fill="#E5E5E5"/>
<rect x="17" y="120" width="41" height="2" rx="1" fill="#E5E5E5"/>
<rect x="13" y="75" width="49" height="1" fill="#D4D4D4"/>
<rect x="13" y="88" width="49" height="1" fill="#D4D4D4"/>
<rect x="13" y="101" width="49" height="1" fill="#D4D4D4"/>
<rect x="13" y="114" width="49" height="1" fill="#D4D4D4"/>
<rect x="13" y="127" width="49" height="55" fill="#F5F5F5"/>
<rect x="13" y="127" width="49" height="1" fill="#D4D4D4"/>
<path fill-rule="evenodd" clip-rule="evenodd" d="M79.4336 107.939L77.1461 106.909C76.9513 106.819 76.9513 106.68 77.1461 106.599L77.9425 106.239L79.4252 106.909C79.62 106.999 79.9335 106.999 80.1199 106.909L81.6025 106.239L82.3989 106.599C82.5937 106.689 82.5937 106.827 82.3989 106.909L80.1114 107.939C79.9335 108.02 79.62 108.02 79.4336 107.939Z" fill="#FF6F3D"/>
<path fill-rule="evenodd" clip-rule="evenodd" d="M79.4262 106.665L77.1457 105.634C76.9514 105.544 76.9514 105.405 77.1457 105.323L77.9228 104.972L79.4262 105.651C79.6205 105.741 79.933 105.741 80.1188 105.651L81.6223 104.972L82.3993 105.323C82.5936 105.413 82.5936 105.552 82.3993 105.634L80.1188 106.665C79.9245 106.755 79.612 106.755 79.4262 106.665Z" fill="#95C038"/>
<path fill-rule="evenodd" clip-rule="evenodd" d="M79.4262 105.404L77.1457 104.389C76.9514 104.3 76.9514 104.163 77.1457 104.082L79.4262 103.067C79.6205 102.978 79.933 102.978 80.1188 103.067L82.3993 104.082C82.5936 104.171 82.5936 104.308 82.3993 104.389L80.1188 105.404C79.9245 105.485 79.612 105.485 79.4262 105.404Z" fill="#5DC0E8"/>
<path fill-rule="evenodd" clip-rule="evenodd" d="M113.481 106.541C113.645 106.418 113.727 106.245 113.727 106.025C113.727 105.853 113.676 105.713 113.574 105.606C113.473 105.498 113.287 105.397 113.017 105.304C112.857 105.247 112.737 105.197 112.658 105.151C112.581 105.104 112.525 105.053 112.493 104.998C112.46 104.942 112.443 104.87 112.443 104.783C112.443 104.665 112.488 104.573 112.577 104.507C112.666 104.441 112.79 104.407 112.949 104.407C113.149 104.407 113.356 104.451 113.569 104.538L113.662 104.284C113.447 104.192 113.212 104.146 112.956 104.146C112.71 104.146 112.513 104.204 112.364 104.318C112.215 104.433 112.14 104.587 112.14 104.78C112.14 104.964 112.191 105.114 112.294 105.228C112.397 105.342 112.568 105.441 112.808 105.525C112.979 105.584 113.107 105.638 113.19 105.685C113.275 105.732 113.334 105.783 113.37 105.839C113.406 105.894 113.424 105.965 113.424 106.052C113.424 106.184 113.374 106.287 113.273 106.361C113.172 106.434 113.022 106.471 112.822 106.471C112.7 106.471 112.577 106.458 112.452 106.433C112.328 106.408 112.213 106.374 112.107 106.33V106.612C112.271 106.688 112.506 106.727 112.811 106.727C113.093 106.727 113.316 106.665 113.481 106.541ZM107.56 106.364C107.792 106.145 107.907 105.828 107.907 105.413C107.907 105.025 107.796 104.723 107.574 104.507C107.353 104.291 107.041 104.183 106.641 104.183H105.852V106.692H106.565C106.999 106.692 107.33 106.583 107.56 106.364ZM107.337 104.684C107.506 104.85 107.59 105.096 107.59 105.424C107.59 105.759 107.501 106.012 107.321 106.184C107.141 106.355 106.873 106.44 106.516 106.44H106.151V104.435H106.587C106.919 104.435 107.169 104.518 107.337 104.684ZM109.831 106.469C109.99 106.296 110.069 106.057 110.069 105.75C110.069 105.451 109.989 105.214 109.83 105.039C109.671 104.864 109.457 104.776 109.187 104.776C108.907 104.776 108.689 104.862 108.532 105.034C108.374 105.205 108.296 105.443 108.296 105.75C108.296 105.948 108.332 106.121 108.405 106.268C108.478 106.416 108.581 106.529 108.715 106.608C108.849 106.687 109.002 106.727 109.175 106.727C109.454 106.727 109.673 106.641 109.831 106.469ZM108.747 106.299C108.648 106.173 108.599 105.99 108.599 105.75C108.599 105.507 108.647 105.325 108.745 105.202C108.842 105.08 108.987 105.019 109.178 105.019C109.372 105.019 109.518 105.081 109.617 105.206C109.716 105.329 109.766 105.511 109.766 105.75C109.766 105.991 109.716 106.175 109.617 106.301C109.518 106.426 109.373 106.488 109.182 106.488C108.99 106.488 108.845 106.425 108.747 106.299ZM111.319 106.727C111.039 106.727 110.823 106.643 110.669 106.476C110.516 106.308 110.44 106.07 110.44 105.764C110.44 105.449 110.517 105.206 110.672 105.034C110.829 104.862 111.05 104.776 111.338 104.776C111.431 104.776 111.524 104.786 111.616 104.806C111.709 104.825 111.782 104.848 111.835 104.874L111.745 105.116C111.68 105.091 111.61 105.071 111.534 105.055C111.457 105.037 111.39 105.029 111.331 105.029C110.939 105.029 110.743 105.273 110.743 105.76C110.743 105.991 110.79 106.169 110.886 106.292C110.982 106.416 111.124 106.478 111.312 106.478C111.473 106.478 111.638 106.444 111.807 106.376V106.629C111.677 106.694 111.515 106.727 111.319 106.727ZM115.072 106.727C114.946 106.727 114.831 106.704 114.727 106.66C114.623 106.614 114.536 106.544 114.466 106.45H114.445C114.459 106.56 114.466 106.664 114.466 106.763V107.537H114.174V104.811H114.411L114.452 105.068H114.466C114.541 104.965 114.629 104.891 114.728 104.845C114.828 104.799 114.943 104.776 115.072 104.776C115.328 104.776 115.525 104.862 115.664 105.032C115.803 105.203 115.873 105.442 115.873 105.75C115.873 106.059 115.802 106.299 115.66 106.471C115.519 106.641 115.323 106.727 115.072 106.727ZM115.03 105.019C114.832 105.019 114.69 105.072 114.602 105.178C114.514 105.285 114.468 105.454 114.466 105.686V105.75C114.466 106.014 114.511 106.204 114.602 106.318C114.692 106.431 114.837 106.488 115.037 106.488C115.203 106.488 115.334 106.422 115.428 106.291C115.523 106.159 115.57 105.978 115.57 105.746C115.57 105.512 115.523 105.332 115.428 105.207C115.334 105.081 115.201 105.019 115.03 105.019ZM117.478 106.424L117.537 106.692H117.753V105.408C117.753 105.188 117.697 105.029 117.586 104.929C117.475 104.83 117.305 104.78 117.075 104.78C116.961 104.78 116.847 104.794 116.733 104.823C116.621 104.851 116.517 104.891 116.422 104.941L116.512 105.159C116.715 105.063 116.897 105.015 117.058 105.015C117.201 105.015 117.305 105.051 117.369 105.122C117.435 105.191 117.468 105.3 117.468 105.448V105.564L117.14 105.575C116.517 105.593 116.205 105.792 116.205 106.172C116.205 106.35 116.259 106.486 116.367 106.582C116.476 106.679 116.627 106.727 116.818 106.727C116.961 106.727 117.08 106.706 117.176 106.665C117.272 106.622 117.368 106.542 117.464 106.424H117.478ZM117.304 106.346C117.201 106.443 117.058 106.491 116.876 106.491C116.761 106.491 116.671 106.465 116.607 106.411C116.543 106.357 116.512 106.279 116.512 106.176C116.512 106.044 116.563 105.947 116.665 105.885C116.768 105.823 116.936 105.787 117.168 105.779L117.461 105.767V105.937C117.461 106.112 117.409 106.248 117.304 106.346ZM119.093 106.727C118.813 106.727 118.596 106.643 118.443 106.476C118.29 106.308 118.214 106.07 118.214 105.764C118.214 105.449 118.291 105.206 118.446 105.034C118.602 104.862 118.824 104.776 119.112 104.776C119.205 104.776 119.297 104.786 119.39 104.806C119.483 104.825 119.556 104.848 119.609 104.874L119.519 105.116C119.454 105.091 119.384 105.071 119.307 105.055C119.231 105.037 119.164 105.029 119.105 105.029C118.713 105.029 118.517 105.273 118.517 105.76C118.517 105.991 118.564 106.169 118.659 106.292C118.756 106.416 118.898 106.478 119.085 106.478C119.246 106.478 119.411 106.444 119.58 106.376V106.629C119.451 106.694 119.289 106.727 119.093 106.727ZM120.143 106.473C120.309 106.642 120.534 106.727 120.819 106.727C120.95 106.727 121.061 106.717 121.152 106.697C121.245 106.679 121.343 106.648 121.446 106.605V106.351C121.243 106.435 121.038 106.478 120.83 106.478C120.633 106.478 120.479 106.42 120.37 106.306C120.262 106.192 120.205 106.024 120.199 105.803H121.529V105.623C121.529 105.369 121.459 105.164 121.318 105.01C121.177 104.854 120.986 104.776 120.744 104.776C120.485 104.776 120.279 104.866 120.125 105.044C119.973 105.223 119.897 105.464 119.897 105.767C119.897 106.068 119.979 106.303 120.143 106.473ZM120.369 105.163C120.461 105.064 120.585 105.015 120.74 105.015C120.893 105.015 121.01 105.063 121.092 105.159C121.175 105.254 121.216 105.392 121.216 105.571H120.206C120.223 105.397 120.277 105.261 120.369 105.163ZM83.8394 105.482C83.8394 104.582 84.4688 104.213 85.1093 104.213C85.7499 104.213 86.3793 104.582 86.3793 105.482C86.3793 106.382 85.7499 106.75 85.1093 106.75C84.4688 106.75 83.8394 106.382 83.8394 105.482ZM85.8239 105.482C85.8239 104.642 85.3056 104.568 85.1093 104.568C84.9131 104.568 84.3947 104.642 84.3947 105.482C84.3947 106.321 84.9131 106.396 85.1093 106.396C85.3056 106.396 85.8239 106.321 85.8239 105.482ZM87.3322 106.722H86.8064V104.242H87.4877L88.3837 105.804L88.5207 106.141H88.5318L88.5207 105.701V104.242H89.0465V106.722H88.3652L87.4618 105.099L87.3322 104.823H87.3211L87.3322 105.262V106.722ZM89.5652 106.722H91.1203V106.304H90.091V104.242H89.5652V106.722ZM91.6312 105.708L90.676 104.242H91.2832L91.8164 105.113L91.8978 105.283H91.9089L91.9978 105.113L92.5347 104.242H93.09L92.157 105.715V106.722H91.6312V105.708ZM94.315 104.213C93.6745 104.213 93.045 104.582 93.045 105.482C93.045 106.382 93.6745 106.75 94.315 106.75C94.9555 106.75 95.585 106.382 95.585 105.482C95.585 104.582 94.9555 104.213 94.315 104.213ZM94.315 104.568C94.5112 104.568 95.0296 104.642 95.0296 105.482C95.0296 106.321 94.5112 106.396 94.315 106.396C94.1188 106.396 93.6004 106.321 93.6004 105.482C93.6004 104.642 94.1188 104.568 94.315 104.568ZM96.5379 106.722H96.0121V104.242H97.4635V104.66H96.5379V105.262H97.4191V105.669H96.5379V106.722ZM97.8344 106.722H98.3602V105.669H99.2414V105.262H98.3602V104.66H99.2858V104.242H97.8344V106.722ZM100.183 106.722H99.6568V104.242H100.183V106.722ZM102.594 106.222C102.464 106.279 102.283 106.332 102.053 106.332C101.587 106.332 101.165 106.088 101.165 105.489C101.165 104.982 101.509 104.631 102.09 104.631C102.286 104.631 102.453 104.667 102.605 104.723L102.627 104.298C102.431 104.238 102.257 104.213 102.053 104.213C101.239 104.213 100.609 104.642 100.609 105.496C100.609 106.399 101.313 106.75 101.957 106.75C102.164 106.75 102.397 106.718 102.627 106.644L102.594 106.222ZM104.582 106.722H103.034V104.242H104.582V104.681H103.56V105.241H104.489V105.648H103.56V106.282H104.582V106.722Z" fill="#333333"/>
<path fill-rule="evenodd" clip-rule="evenodd" d="M338.881 77.7538C339.415 77.7538 339.852 77.317 339.852 76.7841C339.852 76.2513 339.415 75.8145 338.881 75.8145C338.348 75.8145 337.911 76.2513 337.911 76.7841C337.916 77.3218 338.348 77.7538 338.881 77.7538Z" fill="#FEFEFE"/>
<path fill-rule="evenodd" clip-rule="evenodd" d="M358.579 47.1132C358.238 48.947 357.589 51.5152 356.441 52.144C355.663 52.5761 354.472 51.8896 352.652 48.8749C354.477 48.7837 356.427 48.2461 358.161 47.3388C358.3 47.2668 358.44 47.19 358.579 47.1132ZM350.034 48.6685C349.159 49.715 348.376 50.4255 347.694 50.8911C346.681 51.5776 345.984 51.6832 345.595 51.5488C345.264 51.4288 345.096 50.8671 345.033 50.1615C344.918 48.9182 345.153 47.3676 345.341 46.5036C345.701 46.4555 346.076 46.4075 346.455 46.3691L346.647 46.638C347.454 47.6892 348.645 48.3517 350.034 48.6685Z" fill="#CCCCCC" stroke="#CCCCCC" stroke-width="0.216" stroke-miterlimit="22.9256"/>
<path fill-rule="evenodd" clip-rule="evenodd" d="M358.646 23.639C358.685 21.8244 358.617 20.3075 358.469 19.045C358.281 17.5041 357.959 16.3184 357.537 15.4207C357.224 14.7582 356.754 14.1198 356.182 13.6061C355.639 13.1117 354.996 12.7181 354.304 12.5068C353.439 12.2428 352.599 12.2956 351.782 12.5452C351.018 12.7757 350.288 13.1789 349.573 13.6493C349.217 13.8798 348.91 14.1006 348.617 14.3118C347.401 15.1807 346.431 15.8767 344.687 15.4063C344.567 15.3727 344.452 15.3151 344.356 15.2335C344.217 15.1135 344.106 14.9502 344.049 14.7582C343.986 14.5518 343.981 14.3118 344.053 14.043C344.125 13.7645 344.289 13.4621 344.553 13.1501L344.587 13.1021C344.683 12.9677 344.803 12.8333 344.942 12.6989C346.114 11.5564 348.453 10.6731 351.114 10.4907C353.795 10.3083 356.773 10.8603 359.175 12.5981C359.636 12.9293 360.073 13.3037 360.486 13.7309C361.461 14.7342 362.21 16.1311 362.6 18.0321C362.936 19.6786 363.003 21.6996 362.715 24.167C362.58 23.9222 362.417 23.7062 362.225 23.5238C361.855 23.1781 361.384 22.9669 360.827 22.9381C360.207 22.9045 359.472 23.1109 358.646 23.639Z" fill="#666666" stroke="#666666" stroke-width="0.216" stroke-miterlimit="22.9256"/>
<path fill-rule="evenodd" clip-rule="evenodd" d="M342.944 14.3838C342.079 15.3535 341.373 16.5968 340.84 18.0225C339.682 21.1331 339.341 25.1367 339.975 28.9626C340.614 32.8221 342.247 36.528 345.019 39.005C346.095 39.9651 347.344 40.7428 348.77 41.2756C348.982 41.3572 352.128 42.2405 355.865 39.029C357.709 37.4401 359.741 34.8335 361.677 30.5947L360.351 29.9899C358.516 34.0126 356.624 36.456 354.919 37.9201C351.792 40.6084 349.433 39.9651 349.279 39.9075C348.03 39.4467 346.94 38.765 345.999 37.9201C343.491 35.6783 342.012 32.2845 341.421 28.7274C340.825 25.1415 341.138 21.4068 342.209 18.5313C342.679 17.2736 343.289 16.1839 344.034 15.3535L342.944 14.3838Z" fill="#333333"/>
<path fill-rule="evenodd" clip-rule="evenodd" d="M358.613 24.6759C358.704 22.3909 358.646 20.538 358.464 19.045C358.276 17.5041 357.955 16.3184 357.532 15.4207C357.22 14.7583 356.749 14.1198 356.177 13.6062C355.635 13.1118 354.991 12.7181 354.299 12.5069C353.435 12.2429 352.594 12.2957 351.777 12.5453C351.014 12.7757 350.283 13.179 349.568 13.6494C349.212 13.8798 348.905 14.1006 348.612 14.3119C347.397 15.1807 346.426 15.8768 344.683 15.4063C344.562 15.3727 344.447 15.3151 344.351 15.2335C344.212 15.1135 344.101 14.9503 344.044 14.7583C343.981 14.5519 343.976 14.3119 344.049 14.043C344.121 13.7646 344.284 13.4622 344.548 13.1502L344.582 13.1022C344.678 12.9677 344.798 12.8333 344.937 12.6989C346.109 11.5564 348.449 10.6732 351.11 10.4907C353.79 10.3083 356.768 10.8604 359.17 12.5981C359.631 12.9293 360.068 13.3038 360.481 13.731C361.456 14.7343 362.206 16.1312 362.595 18.0322C362.955 19.8035 363.003 22.0021 362.643 24.7239L362.59 25.1367C362.407 26.5625 362.292 27.4505 361.413 28.6698C361.288 28.8427 361.144 29.0299 360.976 29.2315C360.832 29.4091 360.664 29.6011 360.472 29.8027L360.64 30.4076L361.538 30.7964C361.725 30.5948 361.913 30.3836 362.095 30.158C362.263 29.9563 362.427 29.7451 362.59 29.5195C363.68 28.0026 363.815 26.9753 364.031 25.324L364.084 24.9111C364.468 22.0213 364.41 19.6595 364.017 17.7393C363.57 15.5408 362.681 13.9038 361.519 12.7133C361.048 12.2285 360.544 11.8013 360.015 11.4172C357.306 9.45386 353.982 8.83461 350.999 9.03622C347.997 9.23784 345.307 10.2891 343.904 11.6524C343.722 11.8301 343.559 12.0173 343.414 12.2093C343.001 12.6941 342.747 13.1886 342.622 13.6638C342.478 14.2062 342.497 14.7247 342.636 15.1807C342.78 15.6512 343.049 16.0496 343.395 16.3424C343.659 16.5632 343.967 16.7265 344.293 16.8177C346.705 17.4657 347.92 16.592 349.452 15.4976C349.745 15.2911 350.048 15.0703 350.355 14.8687C350.966 14.4655 351.58 14.1246 352.19 13.9374C352.748 13.7694 353.305 13.731 353.862 13.899C354.333 14.043 354.784 14.3215 355.178 14.6815C355.606 15.0703 355.961 15.5504 356.197 16.04C356.557 16.7985 356.831 17.8353 356.999 19.2131C357.157 20.5332 357.22 22.1461 357.157 24.1095L357.527 24.6279L358.613 24.6759Z" fill="#333333"/>
<path fill-rule="evenodd" clip-rule="evenodd" d="M358.291 25.1274C359.314 24.2249 360.15 23.8745 360.784 23.9033C361.101 23.9177 361.36 24.0377 361.567 24.2249C361.788 24.4313 361.946 24.7241 362.042 25.0746C362.297 25.9866 362.105 27.2395 361.384 28.3676C361.202 28.6557 360.894 28.9773 360.52 29.2365C360.337 29.3613 360.14 29.4669 359.938 29.5437C359.175 29.827 359.554 30.667 360.015 30.5422C360.395 30.4366 360.755 30.259 361.072 30.043C361.557 29.7118 361.961 29.2797 362.206 28.8957C363.08 27.5276 363.301 25.977 362.984 24.8201C362.84 24.2969 362.585 23.8457 362.23 23.5192C361.86 23.1736 361.389 22.9624 360.832 22.9336C359.953 22.8904 358.848 23.3224 357.58 24.4553C357.128 24.8633 357.676 25.6698 358.291 25.1274Z" fill="#333333"/>
<path fill-rule="evenodd" clip-rule="evenodd" d="M360.044 25.6072C360.188 25.5784 360.313 25.5784 360.419 25.6024C360.539 25.6312 360.635 25.6984 360.692 25.7896C360.76 25.9 360.798 26.0488 360.798 26.2216C360.798 26.5817 360.649 27.0425 360.342 27.5177C360.236 27.681 360.063 27.8682 359.847 28.0122C359.765 28.0698 359.674 28.1226 359.578 28.161C359.064 28.3818 359.232 28.7994 359.645 28.6554C359.813 28.5978 359.977 28.5114 360.121 28.4154C360.39 28.233 360.616 27.993 360.75 27.7818C361.106 27.2249 361.283 26.6729 361.283 26.2216C361.283 25.9528 361.221 25.7128 361.101 25.5256C360.971 25.324 360.779 25.1848 360.524 25.1271C360.375 25.0935 360.203 25.0887 360.006 25.1175C359.367 25.2232 359.439 25.7272 360.044 25.6072Z" fill="#333333"/>
<path fill-rule="evenodd" clip-rule="evenodd" d="M359.545 46.0807L359.007 35.1694L357.546 35.2366L358.089 46.1479L359.545 46.0807Z" fill="#333333"/>
<path fill-rule="evenodd" clip-rule="evenodd" d="M347.766 46.0231L348.564 40.1714L347.118 39.9746L346.316 45.8263L347.766 46.0231Z" fill="#333333"/>
<path fill-rule="evenodd" clip-rule="evenodd" d="M358.843 45.4858L358.829 45.5674C358.632 46.902 357.988 51.2943 356.441 52.144C355.577 52.624 354.203 51.7263 352.022 47.7804L350.74 48.4813C353.454 53.3969 355.558 54.2994 357.143 53.4209C359.328 52.216 360.054 47.2716 360.275 45.7739L360.289 45.6923L358.843 45.4858Z" fill="#333333"/>
<path fill-rule="evenodd" clip-rule="evenodd" d="M344.044 45.6538C343.847 46.3643 343.415 48.5724 343.578 50.2958C343.693 51.5295 344.121 52.5712 345.11 52.9216C345.86 53.1856 347.046 53.0944 348.516 52.0959C349.505 51.4191 350.673 50.3102 351.965 48.5676L350.793 47.6988C349.606 49.2925 348.564 50.2958 347.69 50.891C346.676 51.5775 345.98 51.6831 345.591 51.5487C345.259 51.4287 345.091 50.867 345.029 50.1614C344.884 48.6445 345.273 46.6811 345.446 46.0474L344.044 45.6538Z" fill="#333333"/>
<path fill-rule="evenodd" clip-rule="evenodd" d="M349.275 28.9866C346.887 29.9322 346.047 28.8233 346.08 27.7913C346.119 26.3991 347.425 26.6776 347.161 24.4214C348.295 26.0103 345.739 27.7721 347.267 28.6025C347.593 28.7801 348.112 28.9626 349.275 28.9866Z" fill="#333333"/>
<path fill-rule="evenodd" clip-rule="evenodd" d="M347.997 32.3423C350.788 34.5937 351.801 30.5998 352.291 29.9854C352.152 34.9442 348.348 34.5985 347.997 32.3423Z" fill="#333333"/>
<path fill-rule="evenodd" clip-rule="evenodd" d="M350.178 23.6007C351.662 20.0916 355.601 22.0934 355.615 23.9703C355.428 23.7639 354.602 23.2695 354.131 23.2119C353.968 25.3 351.47 25.7369 350.797 23.5095C350.533 23.4951 350.375 23.4807 350.178 23.6007Z" fill="#333333"/>
<path fill-rule="evenodd" clip-rule="evenodd" d="M341.685 23.4518C343.035 19.8899 347.051 21.7429 347.137 23.6198C346.94 23.423 346.099 22.9574 345.624 22.919C345.542 25.012 343.059 25.54 342.305 23.3414C342.036 23.3318 341.877 23.327 341.685 23.4518Z" fill="#333333"/>
<path fill-rule="evenodd" clip-rule="evenodd" d="M308.555 46.4504C307.767 42.9509 307.969 40.938 308.267 39.4595L308.31 39.2531C308.401 38.7922 308.541 38.2786 308.67 37.7889C308.935 36.7905 309.175 35.888 309.06 35.2303C308.915 34.3999 308.435 33.9726 307.383 34.155C305.678 34.4479 304.861 36.0272 304.174 37.3473C303.809 38.053 303.502 38.6434 303.411 38.629C303.315 38.5954 303.219 38.5522 303.122 38.4994C303.017 38.4418 302.911 38.365 302.796 38.2834C302.594 38.1346 302.263 37.8417 301.854 37.4865C299.544 35.4511 295.005 31.4524 291.849 34.1214C290.974 34.8607 290.513 36.3008 290.998 38.293C291.354 39.7427 292.219 41.5332 293.818 43.5926C293.881 43.6694 294.15 43.967 294.721 44.3943C295.029 44.6199 295.437 44.8983 295.98 45.2199C296.537 45.5512 297.2 45.796 297.997 46.0936C299.193 46.5401 300.721 47.1065 302.508 48.201L303.719 47.0938C301.807 45.9225 299.765 45.1911 298.506 44.7255C297.767 44.4519 297.157 44.2215 296.724 43.967C296.239 43.679 295.869 43.4294 295.591 43.223C295.168 42.911 295.009 42.7477 294.976 42.7045C293.511 40.8132 292.728 39.2195 292.415 37.957C292.074 36.5696 292.305 35.6528 292.79 35.2399C294.981 33.387 298.895 36.8337 300.884 38.5858C301.312 38.9602 301.657 39.2675 301.922 39.4643C302.075 39.5747 302.234 39.6803 302.397 39.7763C302.575 39.8771 302.757 39.9587 302.945 40.0211C304.213 40.434 304.78 39.3395 305.462 38.0242C305.995 36.9969 306.634 35.7728 307.619 35.6C307.628 35.6 307.604 35.4127 307.614 35.4847C307.671 35.8304 307.47 36.5888 307.249 37.4289C307.119 37.9186 306.984 38.4322 306.874 38.9842L306.831 39.1907C306.494 40.8564 306.269 42.9941 307.119 46.7816L308.555 46.4504Z" fill="#333333"/>
<path fill-rule="evenodd" clip-rule="evenodd" d="M305.125 47.3438C304.433 47.6174 304.43 47.0173 303.906 47.3438C302.177 46.3309 299.669 45.143 298.506 44.711C297.767 44.4374 297.156 44.2069 296.724 43.9525C296.239 43.6645 295.869 43.4149 295.591 43.2085C295.168 42.8964 295.009 42.7332 294.976 42.69C294.841 42.5172 294.716 42.3492 294.591 42.1812C293.371 40.5106 292.694 39.0897 292.415 37.9376C292.074 36.5503 292.305 35.6334 292.79 35.2206C293.011 35.0334 293.251 34.899 293.501 34.8126C295.749 34.0445 299.092 36.9871 300.884 38.5665C301.311 38.9409 301.657 39.2481 301.922 39.445C302.075 39.5554 302.234 39.661 302.397 39.757C302.575 39.8578 302.757 39.9394 302.945 40.0018C304.213 40.4146 304.78 39.3201 305.462 38.0048C305.995 36.9775 306.634 35.7534 307.623 35.5806C307.628 35.9599 307.45 36.6511 307.249 37.4096C307.119 37.8992 306.984 38.4129 306.874 38.9649L306.831 39.1713C306.518 40.7315 306.364 43.4629 307.031 46.6984C306.349 46.8808 305.874 47.0509 305.125 47.3438Z" fill="#FEFEFE"/>
<path fill-rule="evenodd" clip-rule="evenodd" d="M351.196 88.2956C350.034 88.0844 348.914 87.6715 347.387 86.9083C346.316 86.3706 345.446 85.809 344.75 85.2425C344.154 84.7577 343.684 84.268 343.323 83.7832C343.487 85.3433 343.919 87.0619 344.495 88.7852C345.321 91.2526 346.436 93.7296 347.483 95.8034C347.987 94.4209 348.66 92.9568 349.414 91.4974C349.976 90.4126 350.581 89.3325 351.196 88.2956Z" fill="#FF6F3D" stroke="#FF6F3D" stroke-width="0.5669" stroke-miterlimit="22.9256"/>
<path fill-rule="evenodd" clip-rule="evenodd" d="M343.251 82.4102C343.237 84.2967 343.746 86.5337 344.495 88.7851C345.321 91.2525 346.436 93.7295 347.483 95.8033C347.987 94.4207 348.66 92.9566 349.414 91.4973C350.74 88.9387 352.315 86.3945 353.694 84.3591L354.823 85.1176C353.463 87.1241 351.912 89.6251 350.62 92.1214C349.611 94.0751 348.756 96.0289 348.28 97.7378L347.829 99.3652L347.027 97.877C345.768 95.5344 344.255 92.3758 343.203 89.2219C342.411 86.8457 341.873 84.4647 341.887 82.415L343.251 82.4102Z" fill="#333333"/>
<path fill-rule="evenodd" clip-rule="evenodd" d="M336.44 63.1799C334.149 66.3721 330.267 70.0156 326.136 72.5502C322.543 74.7536 318.787 76.1025 315.819 75.5313C315.492 75.4689 314.109 75.0177 311.928 71.5614C309.656 67.9563 306.711 61.2549 303.608 48.8171C304.074 48.6155 304.699 48.4283 305.352 48.2794C306.284 48.0634 307.264 47.9194 307.989 47.8666C308.45 48.9611 308.945 50.214 309.459 51.5149C311.544 56.8097 313.974 62.9879 317.961 67.1882L318.393 67.6442L318.907 67.2842C320.252 66.3481 323.84 62.1094 327.174 58.1635C329.907 54.9328 332.467 51.9037 333.342 51.2077C334.591 50.2092 336.137 49.1723 338.284 48.2938C340.355 47.4442 342.987 46.7433 346.455 46.3641L346.647 46.6329C347.786 48.1258 349.698 48.8315 351.84 48.8843C353.886 48.9323 356.168 48.3803 358.161 47.3386C358.718 47.0505 359.252 46.7241 359.751 46.3641C362.018 46.8009 365.208 48.2074 368.268 49.9932C371.356 51.7933 374.282 53.9631 375.977 55.9073C376.631 57.6834 377.404 59.6756 378.225 61.8022C382.443 72.6847 388.068 87.1963 386.021 94.7665C386.007 94.8145 385.743 95.1793 384.287 95.3761C383.346 95.5009 381.996 95.4865 380.07 95.1505C378 94.7905 375.233 93.9264 371.659 92.5487C368.042 91.1566 363.618 89.246 358.272 86.8074L357.667 88.1323C363.051 90.5901 367.504 92.5103 371.135 93.912C374.81 95.3281 377.668 96.2162 379.83 96.5906C381.914 96.9507 383.413 96.9651 384.489 96.821C386.804 96.509 387.395 95.3137 387.438 95.1505C389.61 87.1242 383.884 72.3534 379.59 61.2789C378.749 59.1091 377.961 57.0834 377.303 55.2832L377.255 55.1584L377.169 55.0576C375.382 52.9646 372.269 50.6364 369.003 48.7307C365.674 46.7865 362.148 45.2696 359.684 44.8712L359.377 44.8232L359.127 45.0152C358.613 45.404 358.065 45.7544 357.489 46.0521C355.707 46.9785 353.684 47.4778 351.874 47.4298C350.159 47.3866 348.66 46.8585 347.81 45.7496C347.69 45.5912 347.584 45.428 347.493 45.2552L347.262 44.8184L346.772 44.8664C342.92 45.2456 340.009 46.0089 337.732 46.9449C335.436 47.8858 333.774 48.9995 332.434 50.07C331.43 50.8717 328.831 53.9439 326.06 57.2226C323.158 60.6549 320.055 64.3224 318.561 65.6809C315.04 61.6966 312.773 55.9409 310.823 50.9821C310.256 49.5371 309.713 48.1594 309.137 46.8297L308.945 46.3881H308.464C307.643 46.3929 306.284 46.5657 305.035 46.8537C303.988 47.0985 302.989 47.4298 302.374 47.8234L301.937 48.1066L302.061 48.6107C305.261 61.5861 308.335 68.5755 310.703 72.339C313.201 76.3042 315.098 76.8802 315.554 76.9666C318.917 77.6147 323.029 76.1697 326.905 73.7935C331.233 71.1389 335.311 67.2986 337.698 63.9335C338.51 62.791 337.305 61.9798 336.44 63.1799Z" fill="#333333"/>
<path d="M360.333 45.4258C363.105 46.4968 365.721 47.6435 368.638 49.3447H368.639C371.564 51.0449 374.389 53.1009 376.191 55.0264L376.538 55.4092L376.629 55.5137L376.677 55.6436C377.327 57.4123 378.097 59.3973 378.92 61.5264L380.551 65.7588C382.214 70.1264 383.923 74.8365 385.189 79.3174C386.034 82.3061 386.688 85.2119 387 87.8604C387.311 90.5006 387.288 92.9342 386.741 94.957L386.738 94.9678L386.735 94.9775C386.695 95.1116 386.625 95.2073 386.594 95.249C386.549 95.3074 386.497 95.3614 386.442 95.4102C386.332 95.508 386.192 95.5999 386.018 95.6846C385.673 95.8527 385.159 96.0093 384.383 96.1143L384.381 96.1152C383.472 96.2356 382.264 96.2326 380.652 95.999L379.936 95.8848C378.06 95.5585 375.665 94.8401 372.693 93.7393L371.385 93.2441C371.091 93.131 370.793 93.0115 370.489 92.8916L370.547 93.2725C370.919 95.743 371.372 98.2185 371.907 100.694L372.303 102.47C372.714 104.248 373.165 106.037 373.66 107.842L373.85 108.538L373.162 108.755C367.669 110.486 360.757 111.787 353.71 111.583L353.028 111.559C347.241 111.31 341.353 110.018 336.124 107.065L335.829 106.898L335.759 106.567C335.066 103.293 334.589 98.6155 334.267 93.6357L334.139 91.4854C333.672 82.9974 333.638 74.0132 333.788 69.5586V69.5518L334.538 69.584L333.789 69.5518L333.837 68.4326V68.4258L333.885 67.5137L333.895 67.2959C331.771 69.4476 329.199 71.5433 326.524 73.1846H326.523C322.892 75.4085 318.932 76.8884 315.675 76.2627V76.2637C315.043 76.1446 313.51 75.4854 311.288 71.9561V71.9551C309.101 68.4849 306.36 62.3064 303.458 51.2676L302.876 48.9941L302.721 48.377L303.305 48.124C303.832 47.8964 304.506 47.7023 305.176 47.5449L305.178 47.5439L305.909 47.3896C306.639 47.2493 307.355 47.1516 307.934 47.1133L308.466 47.0781L308.675 47.5684C308.91 48.1212 309.151 48.7139 309.397 49.3301L310.151 51.2344L310.152 51.2354L310.955 53.2607C312.868 58.034 315.115 63.0886 318.488 66.6533C318.761 66.46 319.19 66.0691 319.757 65.4893C320.322 64.9107 320.992 64.1798 321.729 63.3486C323.204 61.6861 324.928 59.6464 326.596 57.6738L328.592 55.3203C329.231 54.5693 329.838 53.8632 330.385 53.2363C331.459 52.0084 332.368 51.0161 332.87 50.6162C334.162 49.5836 335.769 48.5056 337.996 47.5947H337.997L338.595 47.3604C340.027 46.8225 341.696 46.352 343.672 46L344.73 45.8115L344.542 46.8701C344.368 47.8456 344.219 49.1549 344.32 50.2256H344.319C344.434 51.3998 344.808 52.0208 345.355 52.2148H345.357L345.51 52.2588C345.845 52.3344 346.35 52.3249 347.014 52.0605C347.262 51.556 347.525 51.0831 347.806 50.6582C348.623 49.425 349.723 48.3751 351.125 48.375H351.659L351.834 48.8799C352.419 50.5741 353.559 51.6364 354.649 52.2236C355.197 52.5185 355.72 52.6869 356.136 52.7559C356.345 52.7903 356.514 52.7981 356.637 52.79C356.77 52.7813 356.806 52.7579 356.785 52.7695V52.7686L356.903 52.6963C357.179 52.5076 357.456 52.1904 357.721 51.7344C358.021 51.2198 358.277 50.5818 358.492 49.8877C358.923 48.498 359.165 46.9894 359.322 46.0068L359.469 45.0918L360.333 45.4258ZM349.42 74.6221C349.904 75.5395 350.421 76.5031 350.963 77.4736C352.293 79.8579 353.747 82.2752 355.127 84.1895C355.817 85.1471 356.479 85.9637 357.087 86.584C357.307 86.8093 357.515 87.0007 357.707 87.1611L358.554 86.5322C359.078 86.1427 359.557 85.6703 359.982 85.1387L360.215 84.835C360.441 84.5256 360.65 84.2 360.842 83.8604L361.103 83.3975C359.906 83.0493 358.553 82.3899 357.169 81.5195C355.378 80.3937 353.474 78.8797 351.696 77.1162C350.909 76.3356 350.145 75.4986 349.42 74.6221ZM369.241 74.4238L369.234 75.585C369.229 78.5756 369.339 81.5238 369.553 84.4385L369.621 85.3652C369.737 85.3869 369.853 85.4104 369.969 85.4316H369.969L370.993 85.6152C372.941 85.9538 374.799 86.2098 376.279 86.332L376.109 86.1221C375.781 85.715 375.246 84.8798 374.634 83.8594C374.011 82.8225 373.282 81.5493 372.558 80.2324L372.557 80.2314C371.191 77.7398 369.825 75.0583 369.264 73.5342L369.255 73.5098C369.249 73.8146 369.244 74.1193 369.241 74.4238ZM346.594 57.9092C346.36 58.9 346.173 59.8764 346.041 60.7725C345.979 61.1934 345.93 61.5911 345.892 61.96C345.938 61.6977 345.987 61.434 346.033 61.1699C346.228 60.0516 346.421 58.9295 346.594 57.9092Z" fill="#EFEFEF" stroke="#333333" stroke-width="1.5" stroke-miterlimit="22.9256"/>
<path fill-rule="evenodd" clip-rule="evenodd" d="M368.854 66.1803C368.614 69.339 368.489 72.4688 368.484 75.5843C368.479 78.9301 368.614 82.2184 368.883 85.4683L370.343 85.3483C370.074 82.0984 369.939 78.8485 369.944 75.5843C369.949 72.5504 370.069 69.4686 370.314 66.3195C370.396 65.1914 368.945 64.9514 368.854 66.1803ZM369.757 93.0433L371.203 92.8321C371.587 95.4051 372.053 97.9781 372.61 100.561C373.167 103.153 373.811 105.745 374.536 108.337L374.724 109.009L374.061 109.225C368.22 111.146 360.669 112.605 353.002 112.278C346.974 112.019 340.878 110.651 335.484 107.526L335.21 107.368L335.138 107.051C334.298 103.283 333.755 97.5221 333.428 91.5264C332.962 83.0249 332.924 74.0145 333.078 69.5454L333.126 68.4029L333.188 67.2028L334.648 67.294L334.586 68.4701L334.538 69.5886C334.389 74.0193 334.423 82.9817 334.888 91.4496C335.205 97.21 335.715 102.735 336.493 106.417C341.594 109.297 347.358 110.57 353.06 110.814C360.236 111.122 367.331 109.811 372.937 108.045C372.274 105.625 371.688 103.235 371.174 100.858C370.622 98.2517 370.146 95.6499 369.757 93.0433Z" fill="#333333"/>
<path fill-rule="evenodd" clip-rule="evenodd" d="M382.971 236.57C381.828 237.862 380.377 239.249 378.888 240.67C376.477 242.974 373.97 245.369 372.716 247.419C371.774 248.96 371.601 250.295 372.937 251.173C373.749 251.274 376.65 250.05 380.012 248.351C383.774 246.45 388.01 243.953 390.609 241.98C390.628 241.961 390.681 241.923 390.7 241.913C390.753 241.875 390.839 241.817 390.94 241.731C391.478 241.265 392.328 240.003 389.696 236.945L390.806 235.994C394.303 240.06 392.79 242.062 391.887 242.84C391.757 242.95 391.627 243.041 391.541 243.104L391.473 243.152C388.793 245.182 384.484 247.726 380.67 249.651C376.9 251.557 373.513 252.873 372.447 252.56L372.356 252.536L372.274 252.484C369.901 251.039 370.05 248.984 371.472 246.661C372.826 244.448 375.401 241.985 377.884 239.614C379.354 238.207 380.791 236.839 381.881 235.605L382.971 236.57Z" fill="#333333"/>
<path fill-rule="evenodd" clip-rule="evenodd" d="M342.027 235.615C340.552 236.22 338.755 236.839 336.92 237.468C333.231 238.731 329.384 240.051 327.174 241.664C325.214 243.099 324.455 244.741 325.906 246.714L325.964 246.791L326.041 246.853C326.92 247.559 331.276 247.674 336.19 247.371C340.946 247.079 346.306 246.435 349.477 245.595L349.554 245.576C350.288 245.413 353.252 244.736 351.835 239.523C351.782 239.331 351.398 238.486 351.043 237.689C350.75 237.041 350.471 236.422 350.437 236.326L349.049 236.782C349.097 236.931 349.395 237.593 349.712 238.289C350.048 239.038 350.409 239.83 350.428 239.902C351.446 243.656 349.674 244.054 349.237 244.15L349.131 244.174C346.052 244.99 340.792 245.619 336.109 245.907C331.656 246.181 327.799 246.176 327.025 245.749C326.31 244.678 326.833 243.718 328.048 242.83C330.071 241.352 333.813 240.07 337.406 238.836C339.231 238.212 341.023 237.598 342.593 236.95L342.027 235.615Z" fill="#333333"/>
<path fill-rule="evenodd" clip-rule="evenodd" d="M378.889 240.67C376.477 242.974 373.97 245.369 372.716 247.419C371.775 248.96 371.602 250.295 372.937 251.173C373.749 251.274 376.65 250.05 380.013 248.35C383.774 246.45 388.01 243.953 390.609 241.98C390.628 241.961 390.681 241.923 390.7 241.913C390.753 241.875 390.84 241.817 390.94 241.731C391.233 241.481 391.613 241.001 391.488 240.132C391.397 239.47 391.008 238.577 390.061 237.386C389.077 237.814 387.833 237.996 386.589 237.962C385.138 237.924 383.649 237.598 382.563 237.026C381.66 238.01 380.599 239.038 379.499 240.094C379.292 240.286 379.09 240.478 378.889 240.67Z" fill="#FEFEFE"/>
<path fill-rule="evenodd" clip-rule="evenodd" d="M350.418 239.907C350.442 239.993 350.466 240.079 350.485 240.166C351.355 243.68 349.654 244.064 349.227 244.16L349.121 244.184C346.042 245 340.782 245.629 336.099 245.917C331.646 246.19 327.789 246.185 327.016 245.758C326.3 244.688 326.823 243.728 328.039 242.84C329.268 241.937 331.142 241.111 333.226 240.324C334.567 239.82 335.988 239.331 337.396 238.85C339.029 238.289 340.633 237.742 342.079 237.166C342.978 237.756 344.366 238.366 345.961 238.471C347.065 238.543 348.271 238.375 349.477 237.794C349.549 237.953 349.626 238.126 349.702 238.294C350.039 239.042 350.394 239.835 350.418 239.907Z" fill="#FEFEFE"/>
<path fill-rule="evenodd" clip-rule="evenodd" d="M371.16 110.099C374.546 121.174 378.331 141.177 381.646 163.797C386.425 187.093 389.504 213.332 389.461 235.562C388.582 236.047 387.299 236.33 386.022 236.359C384.754 236.388 383.524 236.177 382.741 235.682C381.641 231.496 377.207 213.519 371.251 192.666C366.227 175.068 359.622 155.953 356.154 142.545L354.765 137.481C354.679 150.072 353.834 163.297 353.286 171.876C353.123 174.458 352.983 176.618 352.897 178.265C352.892 178.375 352.897 178.798 352.907 179.503C352.988 185.614 353.353 213.629 349.016 236.388C347.997 236.921 346.974 237.075 346.042 237.017C344.774 236.935 343.665 236.46 342.939 235.99C342.858 229.408 342.637 219.952 342.017 209.871C341.383 199.564 340.321 188.571 338.554 179.254C338.41 178.495 335.749 163.24 335.595 142.603C335.518 132.292 336.07 120.636 337.876 108.774C342.646 111.016 347.848 112.048 352.998 112.274C359.454 112.552 365.823 111.563 371.16 110.099Z" fill="#404040" stroke="#404040" stroke-width="0.216" stroke-miterlimit="22.9256"/>
<path fill-rule="evenodd" clip-rule="evenodd" d="M354.77 137.337C354.688 149.971 353.838 163.264 353.291 171.875C353.127 174.458 352.988 176.618 352.902 178.265C352.897 178.375 352.902 178.798 352.911 179.503C352.993 185.614 353.358 213.629 349.02 236.388C348.002 236.921 346.979 237.074 346.047 237.017C344.779 236.935 343.669 236.46 342.944 235.989C342.862 229.408 342.641 219.951 342.022 209.871C341.388 199.564 340.326 188.571 338.558 179.254C338.414 178.495 335.753 163.24 335.599 142.603C335.523 132.003 336.104 119.993 338.035 107.795L336.594 107.569C334.653 119.844 334.067 131.941 334.144 142.603C334.298 163.379 336.978 178.75 337.122 179.513C338.88 188.763 339.932 199.694 340.566 209.947C341.2 220.235 341.416 229.821 341.493 236.378L341.498 236.738L341.786 236.954C342.656 237.602 344.178 238.351 345.961 238.466C347.243 238.548 348.655 238.308 350.053 237.482L350.337 237.314L350.399 236.993C354.828 214.042 354.453 185.648 354.376 179.479C354.367 178.826 354.362 178.428 354.367 178.332C354.448 176.777 354.588 174.583 354.756 171.962C355.236 164.464 355.942 153.427 356.168 142.339L354.77 137.337Z" fill="#333333"/>
<path fill-rule="evenodd" clip-rule="evenodd" d="M346.364 123.367C347.296 124.202 348.348 124.947 349.515 125.494C350.721 126.055 352.056 126.415 353.507 126.459L354.098 126.478L354.165 127.059C356.057 143.284 361.183 159.365 367.235 178.341C372.404 194.552 378.245 212.875 383.332 235.212C384.235 235.62 385.215 235.72 386.17 235.653C387.083 235.586 387.981 235.36 388.769 235.087C388.601 228.467 388.222 218.453 387.367 207.816C386.761 200.265 385.921 192.421 384.749 185.302C384.585 184.318 384.427 183.382 384.263 182.489C384.1 181.586 383.927 180.698 383.754 179.829C383.615 179.148 383.432 178.289 383.25 177.453C382.77 175.231 382.328 173.195 382.078 170.661C381.91 168.947 381.722 167.18 381.521 165.38C381.314 163.532 381.098 161.761 380.882 160.057C379.681 150.71 378.144 141.638 376.41 133.299C374.608 124.649 372.591 116.805 370.511 110.296L371.803 109.888C373.898 116.455 375.929 124.342 377.736 133.026C379.479 141.378 381.021 150.489 382.227 159.889C382.462 161.722 382.678 163.508 382.875 165.231C383.067 166.945 383.255 168.712 383.432 170.531C383.668 172.951 384.105 174.967 384.58 177.16C384.729 177.852 384.883 178.567 385.085 179.561C385.263 180.439 385.436 181.337 385.599 182.244C385.772 183.209 385.94 184.15 386.089 185.076C387.266 192.258 388.116 200.135 388.721 207.705C389.595 218.583 390.633 229.326 390.796 235.984L390.806 236.465L390.354 236.637C388.173 237.463 383.586 237.977 381.939 235.908L381.871 235.6C376.775 213.159 371.121 195.004 365.938 178.745C359.934 159.908 354.837 143.918 352.878 127.774C351.451 127.659 350.14 127.275 348.934 126.713C347.608 126.094 346.422 125.254 345.389 124.313C344.471 123.478 345.447 122.542 346.364 123.367Z" fill="#333333"/>
<path fill-rule="evenodd" clip-rule="evenodd" d="M351.869 47.425C353.675 47.4682 355.702 46.9737 357.484 46.0472C357.681 45.9464 357.873 45.836 358.065 45.7208L357.642 37.2241C357.037 37.9394 356.442 38.5346 355.865 39.0291C352.123 42.2453 348.982 41.3573 348.77 41.2757C348.655 41.2324 348.54 41.1892 348.429 41.1412L347.8 45.7352C347.8 45.7352 347.8 45.74 347.805 45.74C348.655 46.8537 350.154 47.3865 351.869 47.425Z" fill="#FEFEFE"/>
<path fill-rule="evenodd" clip-rule="evenodd" d="M350.178 23.6007C351.662 20.0916 355.601 22.0934 355.615 23.9703C355.428 23.7639 354.602 23.2694 354.131 23.2118C353.968 25.3 351.47 25.7369 350.797 23.5095C350.528 23.4951 350.375 23.4807 350.178 23.6007ZM349.28 39.9076C349.433 39.9652 351.792 40.6085 354.919 37.9203C356.552 36.5185 358.353 34.224 360.107 30.5132C360.078 30.5228 360.044 30.5324 360.015 30.5421C359.554 30.6669 359.175 29.8316 359.938 29.5436C360.14 29.4668 360.342 29.3612 360.52 29.2363C360.899 28.9771 361.202 28.6555 361.384 28.3675C362.105 27.2394 362.292 25.9865 362.042 25.0744C361.946 24.724 361.783 24.4263 361.567 24.2247C361.365 24.0327 361.101 23.9175 360.784 23.9031C360.15 23.8743 359.309 24.2199 358.291 25.1272C357.724 25.6312 357.22 24.9832 357.494 24.5608L357.176 24.1143C357.239 22.151 357.176 20.538 357.018 19.2179C356.85 17.8402 356.576 16.8033 356.216 16.0449C355.985 15.5552 355.63 15.0752 355.197 14.6863C354.804 14.3263 354.352 14.0479 353.881 13.9039C353.324 13.7311 352.762 13.7743 352.21 13.9423C351.6 14.1295 350.985 14.4703 350.375 14.8736C350.067 15.0752 349.765 15.2912 349.472 15.5024C347.944 16.5969 346.729 17.4658 344.313 16.8225C343.986 16.7361 343.679 16.5729 343.415 16.3473C343.386 16.3233 343.357 16.2993 343.333 16.2753C342.896 16.9377 342.521 17.701 342.204 18.5411C341.133 21.4213 340.821 25.1512 341.416 28.7371C342.007 32.2942 343.487 35.6881 345.994 37.9299C346.94 38.7651 348.031 39.4468 349.28 39.9076ZM360.044 25.6072C359.439 25.7273 359.372 25.2232 360.006 25.1176C360.198 25.0888 360.371 25.0888 360.525 25.1272C360.779 25.1848 360.971 25.324 361.101 25.5256C361.221 25.7129 361.283 25.9529 361.283 26.2217C361.283 26.6681 361.111 27.225 360.75 27.7818C360.616 27.993 360.39 28.2331 360.121 28.4155C359.977 28.5163 359.818 28.5979 359.645 28.6555C359.232 28.7995 359.064 28.3819 359.578 28.1611C359.669 28.1226 359.761 28.0698 359.847 28.0122C360.063 27.8682 360.236 27.681 360.342 27.5178C360.649 27.0378 360.798 26.5817 360.798 26.2217C360.798 26.0441 360.765 25.8953 360.693 25.7897C360.63 25.6937 360.539 25.6312 360.419 25.6024C360.313 25.5784 360.188 25.5784 360.044 25.6072ZM341.685 23.4519C343.035 19.89 347.051 21.7429 347.137 23.6199C346.94 23.4231 346.1 22.9574 345.624 22.919C345.542 25.012 343.059 25.54 342.305 23.3415C342.036 23.3319 341.877 23.3271 341.685 23.4519ZM347.997 32.3422C350.788 34.5936 351.801 30.5997 352.291 29.9852C352.152 34.944 348.348 34.5984 347.997 32.3422ZM347.267 28.6027C347.594 28.7803 348.117 28.9627 349.275 28.9867C346.887 29.9324 346.047 28.8235 346.08 27.7914C346.119 26.3993 347.425 26.6777 347.161 24.4215C348.295 26.0057 345.735 27.7722 347.267 28.6027Z" fill="#FEFEFE"/>
<path d="M334.036 37.2918C338.856 37.6426 343.441 40.23 346.162 44.6565L346.162 44.6575C349.703 50.4246 349.03 57.5942 345.006 62.569L344.673 62.9803L344.949 63.4317C349.025 70.1016 353.015 76.8628 357.172 83.515L358.965 86.359C360.003 87.987 360.322 89.3557 360.126 90.4659C359.946 91.4899 359.303 92.4312 358.089 93.2412L357.839 93.4016L357.828 93.4079C357.123 93.8567 356.004 94.31 354.82 94.2167C353.758 94.133 352.54 93.6027 351.446 91.9896L351.229 91.652L336.971 68.3374L336.695 67.8841L336.175 67.9956C330.109 69.2962 323.633 66.8582 320.014 61.4617L319.672 60.9301C316.952 56.499 316.721 51.2438 318.583 46.7833C319.003 47.4677 319.424 48.152 319.844 48.8361L321.832 52.0734L321.832 52.0744C323.831 55.3243 328.051 56.4227 331.364 54.6113L331.681 54.4265L334.927 52.4325C338.178 50.4334 339.275 46.2148 337.464 42.8967L337.28 42.5782C336.204 40.8194 335.119 39.0547 334.036 37.2918Z" fill="#FF6F3D" stroke="#333333" stroke-width="1.5"/>
<path d="M355.054 80.4583C356.692 80.3595 358.175 80.9638 359.268 81.8194C360.395 82.7018 360.972 83.7372 361.011 84.3792C361.039 84.8426 360.816 85.4524 360.262 86.1678C359.72 86.8686 358.925 87.5867 357.988 88.2411C356.096 89.5625 353.786 90.5168 352.121 90.6172C350.656 90.7055 349.508 89.8366 348.654 88.444C347.799 87.0487 347.34 85.2644 347.258 83.9144C347.203 82.9978 347.937 82.1823 349.582 81.526C351.161 80.8964 353.241 80.5677 355.054 80.4583Z" fill="white" stroke="#333333" stroke-width="1.5"/>
<mask id="path-113-inside-2_19_245853" fill="white">
<path fill-rule="evenodd" clip-rule="evenodd" d="M429.237 12.8389L437.441 19.5899C438.119 20.1482 438.323 21.1066 437.907 21.8925L436.582 24.4796C436.009 25.598 436.09 26.9279 436.678 28.0342C437.267 29.1458 438.328 29.9472 439.575 30.0962L442.463 30.4351C443.34 30.5405 444.026 31.2355 444.111 32.1155L445.146 42.686C445.231 43.566 444.697 44.3845 443.855 44.6511L441.086 45.5379C439.891 45.9233 439.009 46.9182 438.644 48.1169C438.279 49.3155 438.46 50.6358 439.238 51.6233L441.04 53.9075C441.588 54.6 441.577 55.5793 441.019 56.2573L434.273 64.4563C433.715 65.1343 432.756 65.3381 431.971 64.933L429.384 63.6026C428.265 63.0288 426.935 63.11 425.829 63.6983C424.723 64.2919 423.916 65.3483 423.772 66.5942L423.433 69.4824C423.327 70.3546 422.632 71.0405 421.752 71.1258L411.191 72.1486C410.317 72.2334 409.498 71.6992 409.226 70.8584L408.334 68.0894C407.949 66.8947 406.953 66.0076 405.755 65.6425C404.556 65.2774 403.235 65.4529 402.248 66.2307L399.969 68.0324C399.276 68.5755 398.297 68.5645 397.619 68.0063L389.414 61.2553C388.736 60.6971 388.537 59.7381 388.937 58.9538L390.262 56.3666C390.836 55.2482 390.76 53.9178 390.167 52.812C389.578 51.7004 388.517 50.899 387.27 50.7501L384.382 50.4111C383.505 50.3057 382.818 49.6055 382.733 48.7307L381.704 38.1597C381.619 37.2797 382.154 36.4665 382.994 36.1947L385.759 35.3083C386.953 34.9229 387.835 33.928 388.2 32.7293C388.565 31.5307 388.385 30.2104 387.607 29.2229L385.805 26.9387C385.256 26.2462 385.267 25.2669 385.826 24.5889L392.572 16.39C393.13 15.7067 394.089 15.5081 394.873 15.9132L397.461 17.2437C398.579 17.8174 399.909 17.7362 401.016 17.1479C402.122 16.5596 402.929 15.4979 403.072 14.252L403.411 11.3638C403.517 10.4916 404.212 9.80567 405.092 9.72043L415.664 8.69658C416.539 8.61185 417.357 9.14595 417.629 9.98681L418.521 12.7558C418.906 13.9505 419.902 14.8376 421.1 15.2027C422.299 15.5678 423.62 15.3923 424.607 14.6145L426.886 12.8128C427.574 12.2703 428.553 12.2812 429.237 12.8389ZM414.276 53.6545C407.168 54.112 401.035 48.7203 400.577 41.612C400.12 34.5037 405.511 28.3704 412.62 27.9129C419.728 27.4555 425.861 32.8471 426.319 39.9555C426.776 47.0638 421.384 53.1971 414.276 53.6545Z"/>
</mask>
<path d="M437.441 19.5899L438.077 18.8177L438.077 18.8179L437.441 19.5899ZM429.237 12.8389L429.869 12.0643L429.872 12.0667L429.237 12.8389ZM437.907 21.8925L437.017 21.4365L437.024 21.4249L437.907 21.8925ZM436.582 24.4796L437.472 24.9355L437.472 24.9361L436.582 24.4796ZM436.678 28.0342L437.561 27.5647L437.562 27.5661L436.678 28.0342ZM439.575 30.0962L439.458 31.0893L439.456 31.0891L439.575 30.0962ZM442.463 30.4351L442.579 29.4419L442.582 29.4422L442.463 30.4351ZM444.111 32.1155L443.116 32.2129L443.116 32.2119L444.111 32.1155ZM445.146 42.686L446.141 42.5886L446.141 42.5896L445.146 42.686ZM443.855 44.6511L443.55 43.6987L443.553 43.6978L443.855 44.6511ZM441.086 45.5379L440.779 44.5862L440.781 44.5856L441.086 45.5379ZM438.644 48.1169L439.601 48.4082L439.601 48.4082L438.644 48.1169ZM439.238 51.6233L438.453 52.2427L438.452 52.242L439.238 51.6233ZM441.04 53.9075L440.256 54.5283L440.255 54.527L441.04 53.9075ZM441.019 56.2573L440.247 55.6219L440.247 55.6217L441.019 56.2573ZM434.273 64.4563L435.045 65.0916L435.045 65.0919L434.273 64.4563ZM431.971 64.933L432.428 64.0436L432.43 64.0444L431.971 64.933ZM429.384 63.6026L429.84 62.7128L429.841 62.7132L429.384 63.6026ZM425.829 63.6983L425.356 62.8172L425.359 62.8154L425.829 63.6983ZM423.772 66.5942L424.766 66.7088L424.765 66.7108L423.772 66.5942ZM423.433 69.4824L424.427 69.599L424.426 69.603L423.433 69.4824ZM421.752 71.1258L421.849 72.1211L421.849 72.1211L421.752 71.1258ZM411.191 72.1486L411.095 71.1533L411.191 72.1486ZM409.226 70.8584L408.275 71.166L408.274 71.1651L409.226 70.8584ZM408.334 68.0894L409.286 67.7824L409.286 67.7828L408.334 68.0894ZM405.755 65.6425L405.463 66.5991L405.755 65.6425ZM402.248 66.2307L401.628 65.4462L401.629 65.4451L402.248 66.2307ZM399.969 68.0324L400.589 68.8169L400.586 68.8196L399.969 68.0324ZM397.619 68.0063L398.254 67.2341L398.254 67.2343L397.619 68.0063ZM389.414 61.2553L388.778 62.0275L388.778 62.0273L389.414 61.2553ZM388.937 58.9538L388.046 58.4995L388.047 58.4979L388.937 58.9538ZM390.262 56.3666L389.372 55.9107L389.373 55.9102L390.262 56.3666ZM390.167 52.812L389.285 53.2849L389.283 53.2801L390.167 52.812ZM387.27 50.7501L387.387 49.7569L387.389 49.7571L387.27 50.7501ZM384.382 50.4111L384.265 51.4043L384.263 51.404L384.382 50.4111ZM382.733 48.7307L383.729 48.6338L383.729 48.6343L382.733 48.7307ZM381.704 38.1597L380.709 38.2566L380.709 38.2561L381.704 38.1597ZM382.994 36.1947L382.687 35.2431L382.689 35.2424L382.994 36.1947ZM385.759 35.3083L386.066 36.26L386.064 36.2605L385.759 35.3083ZM387.607 29.2229L388.392 28.6035L388.393 28.6042L387.607 29.2229ZM385.805 26.9387L386.589 26.3179L386.59 26.3193L385.805 26.9387ZM385.826 24.5889L386.598 25.2243L386.598 25.2245L385.826 24.5889ZM392.572 16.39L393.347 17.0224L393.344 17.0253L392.572 16.39ZM394.873 15.9132L394.416 16.8026L394.415 16.8018L394.873 15.9132ZM397.461 17.2437L397.005 18.1334L397.004 18.133L397.461 17.2437ZM401.016 17.1479L400.546 16.265L400.546 16.265L401.016 17.1479ZM403.072 14.252L402.079 14.1374L402.079 14.1354L403.072 14.252ZM403.411 11.3638L402.418 11.2472L402.419 11.2433L403.411 11.3638ZM405.092 9.72043L404.996 8.72509L405.092 9.72043ZM415.664 8.69658L415.567 7.70123L415.664 8.69658ZM417.629 9.98681L418.58 9.67925L418.581 9.68015L417.629 9.98681ZM418.521 12.7558L417.569 13.0628L417.569 13.0624L418.521 12.7558ZM421.1 15.2027L420.809 16.1593L420.809 16.1593L421.1 15.2027ZM424.607 14.6145L425.227 15.399L425.226 15.4001L424.607 14.6145ZM426.886 12.8128L426.266 12.0283L426.267 12.0276L426.886 12.8128ZM436.806 20.3621L428.601 13.6111L429.872 12.0667L438.077 18.8177L436.806 20.3621ZM437.024 21.4249C437.213 21.0663 437.124 20.6237 436.806 20.3618L438.077 18.8179C439.115 19.6726 439.433 21.1469 438.791 22.36L437.024 21.4249ZM435.692 24.0237L437.017 21.4366L438.798 22.3483L437.472 24.9355L435.692 24.0237ZM435.795 28.5038C435.074 27.1479 434.95 25.4702 435.693 24.0231L437.472 24.9361C437.067 25.7257 437.105 26.708 437.561 27.5647L435.795 28.5038ZM439.456 31.0891C437.847 30.8969 436.519 29.8696 435.794 28.5023L437.562 27.5661C438.015 28.422 438.809 28.9975 439.693 29.1032L439.456 31.0891ZM442.346 31.4283L439.458 31.0893L439.691 29.103L442.579 29.4419L442.346 31.4283ZM443.116 32.2119C443.076 31.8041 442.759 31.4779 442.343 31.428L442.582 29.4422C443.921 29.603 444.976 30.6668 445.107 32.0191L443.116 32.2119ZM444.15 42.7834L443.116 32.2129L445.107 32.0182L446.141 42.5886L444.15 42.7834ZM443.553 43.6978C443.939 43.5755 444.191 43.1989 444.15 42.7824L446.141 42.5896C446.271 43.9332 445.454 45.1935 444.157 45.6044L443.553 43.6978ZM440.781 44.5856L443.55 43.6987L444.16 45.6034L441.391 46.4903L440.781 44.5856ZM437.688 47.8255C438.135 46.3552 439.234 45.0847 440.779 44.5862L441.393 46.4896C440.549 46.7619 439.883 47.4813 439.601 48.4082L437.688 47.8255ZM438.452 52.242C437.448 50.9667 437.239 49.2978 437.688 47.8255L439.601 48.4082C439.319 49.3332 439.472 50.3049 440.023 51.0046L438.452 52.242ZM440.255 54.527L438.453 52.2427L440.023 51.0039L441.825 53.2881L440.255 54.527ZM440.247 55.6217C440.506 55.3073 440.512 54.8514 440.256 54.5283L441.824 53.2868C442.665 54.3486 442.649 55.8512 441.791 56.893L440.247 55.6217ZM433.501 63.8209L440.247 55.6219L441.791 56.8927L435.045 65.0916L433.501 63.8209ZM432.43 64.0444C432.791 64.231 433.239 64.1391 433.501 63.8206L435.045 65.0919C434.19 66.1295 432.721 66.4453 431.512 65.8215L432.43 64.0444ZM429.841 62.7132L432.428 64.0436L431.514 65.8223L428.926 64.4919L429.841 62.7132ZM425.359 62.8154C426.715 62.0943 428.393 61.9704 429.84 62.7128L428.927 64.4923C428.137 64.0872 427.155 64.1256 426.298 64.5812L425.359 62.8154ZM422.779 66.4796C422.965 64.8641 424.003 63.5433 425.356 62.8172L426.302 64.5794C425.443 65.0405 424.867 65.8325 424.766 66.7088L422.779 66.4796ZM422.44 69.3659L422.779 66.4777L424.765 66.7108L424.426 69.599L422.44 69.3659ZM421.656 70.1304C422.065 70.0908 422.391 69.7721 422.441 69.3619L424.426 69.603C424.264 70.9371 423.2 71.9903 421.849 72.1211L421.656 70.1304ZM411.095 71.1533L421.656 70.1304L421.849 72.1211L411.288 73.144L411.095 71.1533ZM410.178 70.5508C410.305 70.9437 410.687 71.1928 411.095 71.1533L411.288 73.144C409.947 73.2739 408.691 72.4548 408.275 71.166L410.178 70.5508ZM409.286 67.7828L410.178 70.5517L408.274 71.1651L407.382 68.3961L409.286 67.7828ZM406.046 64.6859C407.519 65.1344 408.788 66.239 409.286 67.7824L407.382 68.3964C407.11 67.5505 406.388 66.8808 405.463 66.5991L406.046 64.6859ZM401.629 65.4451C402.907 64.4387 404.577 64.2385 406.046 64.6859L405.463 66.5991C404.535 66.3164 403.564 66.4671 402.867 67.0163L401.629 65.4451ZM399.349 67.248L401.628 65.4462L402.868 67.0151L400.589 68.8169L399.349 67.248ZM398.254 67.2343C398.569 67.4933 399.027 67.4999 399.352 67.2453L400.586 68.8196C399.525 69.651 398.024 69.6358 396.983 68.7782L398.254 67.2343ZM390.049 60.4831L398.254 67.2341L396.983 68.7785L388.778 62.0275L390.049 60.4831ZM389.828 59.408C389.64 59.7758 389.735 60.2244 390.049 60.4834L388.778 62.0273C387.737 61.1697 387.434 59.7003 388.046 58.4995L389.828 59.408ZM391.152 56.8225L389.827 59.4097L388.047 58.4979L389.372 55.9107L391.152 56.8225ZM391.048 52.339C391.778 53.6993 391.893 55.3785 391.152 56.8231L389.373 55.9102C389.779 55.1179 389.742 54.1363 389.285 53.2849L391.048 52.339ZM387.389 49.7571C388.997 49.9494 390.326 50.9766 391.05 52.3439L389.283 53.2801C388.829 52.4242 388.036 51.8487 387.151 51.743L387.389 49.7571ZM384.498 49.4179L387.387 49.7569L387.154 51.7432L384.265 51.4043L384.498 49.4179ZM383.729 48.6343C383.768 49.0385 384.087 49.3685 384.501 49.4183L384.263 51.404C382.922 51.243 381.868 50.1725 381.738 48.8271L383.729 48.6343ZM382.7 38.0628L383.729 48.6338L381.738 48.8276L380.709 38.2566L382.7 38.0628ZM383.302 37.1462C382.908 37.2737 382.66 37.6513 382.7 38.0633L380.709 38.2561C380.578 36.908 381.4 35.6592 382.687 35.2431L383.302 37.1462ZM386.064 36.2605L383.3 37.1469L382.689 35.2424L385.453 34.356L386.064 36.2605ZM389.157 33.0207C388.709 34.4911 387.611 35.7615 386.066 36.26L385.452 34.3566C386.296 34.0843 386.961 33.3649 387.244 32.438L389.157 33.0207ZM388.393 28.6042C389.397 29.8795 389.605 31.5484 389.157 33.0207L387.244 32.438C387.525 31.513 387.372 30.5413 386.821 29.8416L388.393 28.6042ZM386.59 26.3193L388.392 28.6035L386.822 29.8423L385.02 27.5581L386.59 26.3193ZM386.598 25.2245C386.339 25.5389 386.333 25.9948 386.589 26.3179L385.021 27.5594C384.18 26.4976 384.196 24.995 385.054 23.9533L386.598 25.2245ZM393.344 17.0253L386.598 25.2243L385.053 23.9535L391.8 15.7546L393.344 17.0253ZM394.415 16.8018C394.049 16.613 393.605 16.706 393.346 17.0223L391.797 15.7576C392.654 14.7074 394.128 14.4031 395.332 15.0247L394.415 16.8018ZM397.004 18.133L394.416 16.8026L395.331 15.0239L397.918 16.3543L397.004 18.133ZM401.485 18.0308C400.129 18.7519 398.452 18.8758 397.005 18.1334L397.918 16.3539C398.707 16.7591 399.689 16.7206 400.546 16.265L401.485 18.0308ZM404.066 14.3666C403.88 15.9798 402.844 17.3083 401.485 18.0308L400.546 16.265C401.4 15.8108 401.978 15.0161 402.079 14.1374L404.066 14.3666ZM404.404 11.4803L404.066 14.3685L402.079 14.1354L402.418 11.2472L404.404 11.4803ZM405.189 10.7158C404.779 10.7554 404.454 11.0741 404.404 11.4843L402.419 11.2433C402.581 9.90914 403.645 8.85592 404.996 8.72509L405.189 10.7158ZM415.76 9.69192L405.189 10.7158L404.996 8.72509L415.567 7.70123L415.76 9.69192ZM416.677 10.2944C416.55 9.90146 416.169 9.65236 415.76 9.69192L415.567 7.70123C416.909 7.57133 418.164 8.39045 418.58 9.67925L416.677 10.2944ZM417.569 13.0624L416.677 10.2935L418.581 9.68015L419.473 12.4491L417.569 13.0624ZM420.809 16.1593C419.336 15.7108 418.067 14.6062 417.569 13.0628L419.473 12.4488C419.746 13.2947 420.467 13.9644 421.392 14.2461L420.809 16.1593ZM425.226 15.4001C423.948 16.4065 422.278 16.6067 420.809 16.1593L421.392 14.2461C422.32 14.5288 423.291 14.3781 423.989 13.8289L425.226 15.4001ZM427.506 13.5972L425.227 15.399L423.987 13.8301L426.266 12.0283L427.506 13.5972ZM428.604 13.6136C428.28 13.3493 427.822 13.3487 427.506 13.5979L426.267 12.0276C427.327 11.1918 428.826 11.213 429.869 12.0643L428.604 13.6136ZM401.575 41.5478C401.997 48.105 407.655 53.0785 414.212 52.6566L414.34 54.6524C406.681 55.1454 400.072 49.3357 399.579 41.6762L401.575 41.5478ZM412.684 28.9109C406.127 29.3328 401.153 34.9906 401.575 41.5478L399.579 41.6762C399.086 34.0167 404.896 27.4079 412.555 26.915L412.684 28.9109ZM425.321 40.0197C424.899 33.4625 419.241 28.4889 412.684 28.9109L412.555 26.915C420.215 26.4221 426.824 32.2317 427.317 39.8912L425.321 40.0197ZM414.212 52.6566C420.769 52.2346 425.743 46.5769 425.321 40.0197L427.317 39.8912C427.81 47.5507 422 54.1595 414.34 54.6524L414.212 52.6566Z" fill="#CCCCCC" mask="url(#path-113-inside-2_19_245853)"/>
<defs>
<linearGradient id="paint0_linear_19_245853" x1="179.275" y1="111.869" x2="173.721" y2="117.641" gradientUnits="userSpaceOnUse">
<stop stop-color="#FF8E3D"/>
<stop offset="1" stop-color="#FF6F3D"/>
</linearGradient>
<linearGradient id="paint1_linear_19_245853" x1="197.585" y1="117.19" x2="197.397" y2="119.174" gradientUnits="userSpaceOnUse">
<stop stop-color="#FF8E3D"/>
<stop offset="1" stop-color="#FF6F3D"/>
</linearGradient>
<linearGradient id="paint2_linear_19_245853" x1="194.535" y1="144.182" x2="196.355" y2="149.056" gradientUnits="userSpaceOnUse">
<stop stop-color="#FF8E3D"/>
<stop offset="1" stop-color="#FF6F3D"/>
</linearGradient>
<clipPath id="clip0_19_245853">
<rect width="46.2871" height="46.2871" fill="white" transform="translate(163.229 105.4)"/>
</clipPath>
</defs>
</svg>
