<svg width="579" height="408" viewBox="0 0 579 408" fill="none" xmlns="http://www.w3.org/2000/svg">
<mask id="path-1-inside-1_1457_5012" fill="white">
<path fill-rule="evenodd" clip-rule="evenodd" d="M0 355.843L59.0915 355.843C60.7484 355.843 62.0915 357.186 62.0915 358.843L62.0915 405C62.0915 406.657 60.7484 408 59.0915 408L0 408L0 355.843ZM86.0913 308.653L145.183 308.653C146.84 308.653 148.183 309.997 148.183 311.653L148.183 405C148.183 406.657 146.84 408 145.183 408L86.0913 408L86.0913 308.653ZM231.275 244.078L172.183 244.078L172.183 408L231.275 408C232.931 408 234.275 406.657 234.275 405L234.275 247.078C234.275 245.421 232.931 244.078 231.275 244.078ZM258.274 184.471L317.366 184.471C319.023 184.471 320.366 185.814 320.366 187.471L320.366 405C320.366 406.657 319.023 408 317.366 408L258.274 408L258.274 184.471ZM403.458 129.83L344.366 129.83L344.366 408L403.458 408C405.115 408 406.458 406.657 406.458 405L406.458 132.83C406.458 131.173 405.115 129.83 403.458 129.83ZM430.458 80.1566L489.549 80.1566C491.206 80.1566 492.549 81.4998 492.549 83.1566L492.549 405C492.549 406.657 491.206 408 489.549 408L430.458 408L430.458 80.1566ZM575.64 0.679571L516.549 0.679573L516.549 408L575.64 408C577.297 408 578.64 406.657 578.64 405L578.64 3.67957C578.64 2.02271 577.297 0.679571 575.64 0.679571Z"/>
</mask>
<path fill-rule="evenodd" clip-rule="evenodd" d="M0 355.843L59.0915 355.843C60.7484 355.843 62.0915 357.186 62.0915 358.843L62.0915 405C62.0915 406.657 60.7484 408 59.0915 408L0 408L0 355.843ZM86.0913 308.653L145.183 308.653C146.84 308.653 148.183 309.997 148.183 311.653L148.183 405C148.183 406.657 146.84 408 145.183 408L86.0913 408L86.0913 308.653ZM231.275 244.078L172.183 244.078L172.183 408L231.275 408C232.931 408 234.275 406.657 234.275 405L234.275 247.078C234.275 245.421 232.931 244.078 231.275 244.078ZM258.274 184.471L317.366 184.471C319.023 184.471 320.366 185.814 320.366 187.471L320.366 405C320.366 406.657 319.023 408 317.366 408L258.274 408L258.274 184.471ZM403.458 129.83L344.366 129.83L344.366 408L403.458 408C405.115 408 406.458 406.657 406.458 405L406.458 132.83C406.458 131.173 405.115 129.83 403.458 129.83ZM430.458 80.1566L489.549 80.1566C491.206 80.1566 492.549 81.4998 492.549 83.1566L492.549 405C492.549 406.657 491.206 408 489.549 408L430.458 408L430.458 80.1566ZM575.64 0.679571L516.549 0.679573L516.549 408L575.64 408C577.297 408 578.64 406.657 578.64 405L578.64 3.67957C578.64 2.02271 577.297 0.679571 575.64 0.679571Z" fill="url(#paint0_linear_1457_5012)"/>
<path d="M59.0915 355.843L59.0915 357.843L59.0915 355.843ZM0 355.843L4.16835e-08 353.843L-2 353.843L-2 355.843L0 355.843ZM62.0915 358.843L64.0915 358.843L62.0915 358.843ZM62.0915 405L60.0915 405L60.0915 405L62.0915 405ZM59.0915 408L59.0915 406L59.0915 408ZM0 408L-2 408L-2 410L0 410L0 408ZM86.0913 308.653L86.0913 306.653L84.0913 306.653L84.0913 308.653L86.0913 308.653ZM148.183 311.653L150.183 311.653L148.183 311.653ZM148.183 405L146.183 405L148.183 405ZM145.183 408L145.183 410L145.183 408ZM86.0913 408L84.0913 408L84.0913 410L86.0913 410L86.0913 408ZM172.183 244.078L172.183 242.078L170.183 242.078L170.183 244.078L172.183 244.078ZM172.183 408L170.183 408L170.183 410L172.183 410L172.183 408ZM231.275 408L231.275 410L231.275 408ZM234.275 405L232.275 405V405L234.275 405ZM234.275 247.078L236.275 247.078L234.275 247.078ZM258.274 184.471L258.274 182.471L256.274 182.471L256.274 184.471L258.274 184.471ZM320.366 187.471L318.366 187.471L320.366 187.471ZM320.366 405L322.366 405L320.366 405ZM317.366 408L317.366 406L317.366 408ZM258.274 408L256.274 408L256.274 410L258.274 410L258.274 408ZM344.366 129.83L344.366 127.83L342.366 127.83L342.366 129.83L344.366 129.83ZM344.366 408L342.366 408L342.366 410L344.366 410L344.366 408ZM403.458 408L403.458 410L403.458 408ZM430.458 80.1566L430.458 78.1566L428.458 78.1566L428.458 80.1566L430.458 80.1566ZM492.549 83.1566L490.549 83.1566L492.549 83.1566ZM489.549 408L489.549 406L489.549 408ZM430.458 408L428.458 408L428.458 410L430.458 410L430.458 408ZM516.549 0.679573L516.549 -1.32043L514.549 -1.32043L514.549 0.679573L516.549 0.679573ZM516.549 408L514.549 408L514.549 410L516.549 410L516.549 408ZM575.64 408L575.64 410L575.64 408ZM59.0915 353.843L4.16835e-08 353.843L-4.16937e-08 357.843L59.0915 357.843L59.0915 353.843ZM64.0915 358.843C64.0915 356.082 61.8529 353.843 59.0915 353.843L59.0915 357.843C59.6438 357.843 60.0915 358.291 60.0915 358.843L64.0915 358.843ZM64.0915 405L64.0915 358.843L60.0915 358.843L60.0915 405L64.0915 405ZM59.0915 410C61.8529 410 64.0915 407.761 64.0915 405L60.0915 405C60.0915 405.552 59.6438 406 59.0915 406L59.0915 410ZM0 410L59.0915 410L59.0915 406L0 406L0 410ZM-2 355.843L-2 408L2 408L2 355.843L-2 355.843ZM145.183 306.653L86.0913 306.653L86.0913 310.653L145.183 310.653L145.183 306.653ZM150.183 311.653C150.183 308.892 147.944 306.653 145.183 306.653L145.183 310.653C145.735 310.653 146.183 311.101 146.183 311.653L150.183 311.653ZM150.183 405L150.183 311.653L146.183 311.653L146.183 405L150.183 405ZM145.183 410C147.944 410 150.183 407.761 150.183 405L146.183 405C146.183 405.552 145.735 406 145.183 406L145.183 410ZM86.0913 410L145.183 410L145.183 406L86.0913 406L86.0913 410ZM84.0913 308.653L84.0913 408L88.0913 408L88.0913 308.653L84.0913 308.653ZM172.183 246.078L231.275 246.078L231.275 242.078L172.183 242.078L172.183 246.078ZM174.183 408L174.183 244.078L170.183 244.078L170.183 408L174.183 408ZM231.275 406L172.183 406L172.183 410L231.275 410L231.275 406ZM232.275 405C232.275 405.552 231.827 406 231.275 406L231.275 410C234.036 410 236.275 407.761 236.275 405L232.275 405ZM232.275 247.078L232.275 405L236.275 405L236.275 247.078L232.275 247.078ZM231.275 246.078C231.827 246.078 232.275 246.526 232.275 247.078L236.275 247.078C236.275 244.317 234.036 242.078 231.275 242.078L231.275 246.078ZM317.366 182.471L258.274 182.471L258.274 186.471L317.366 186.471L317.366 182.471ZM322.366 187.471C322.366 184.709 320.127 182.471 317.366 182.471L317.366 186.471C317.918 186.471 318.366 186.918 318.366 187.471L322.366 187.471ZM322.366 405L322.366 187.471L318.366 187.471L318.366 405L322.366 405ZM317.366 410C320.127 410 322.366 407.761 322.366 405L318.366 405C318.366 405.552 317.918 406 317.366 406L317.366 410ZM258.274 410L317.366 410L317.366 406L258.274 406L258.274 410ZM256.274 184.471L256.274 408L260.274 408L260.274 184.471L256.274 184.471ZM344.366 131.83L403.458 131.83L403.458 127.83L344.366 127.83L344.366 131.83ZM346.366 408L346.366 129.83L342.366 129.83L342.366 408L346.366 408ZM403.458 406L344.366 406L344.366 410L403.458 410L403.458 406ZM404.458 405C404.458 405.552 404.01 406 403.458 406L403.458 410C406.219 410 408.458 407.761 408.458 405L404.458 405ZM404.458 132.83L404.458 405L408.458 405L408.458 132.83L404.458 132.83ZM403.458 131.83C404.01 131.83 404.458 132.278 404.458 132.83L408.458 132.83C408.458 130.068 406.219 127.83 403.458 127.83L403.458 131.83ZM489.549 78.1566L430.458 78.1566L430.458 82.1566L489.549 82.1566L489.549 78.1566ZM494.549 83.1566C494.549 80.3952 492.31 78.1566 489.549 78.1566L489.549 82.1566C490.101 82.1566 490.549 82.6043 490.549 83.1566L494.549 83.1566ZM494.549 405L494.549 83.1566L490.549 83.1566L490.549 405L494.549 405ZM489.549 410C492.31 410 494.549 407.761 494.549 405L490.549 405C490.549 405.552 490.101 406 489.549 406L489.549 410ZM430.458 410L489.549 410L489.549 406L430.458 406L430.458 410ZM428.458 80.1566L428.458 408L432.458 408L432.458 80.1566L428.458 80.1566ZM516.549 2.67957L575.64 2.67957L575.64 -1.32043L516.549 -1.32043L516.549 2.67957ZM518.549 408L518.549 0.679573L514.549 0.679573L514.549 408L518.549 408ZM575.64 406L516.549 406L516.549 410L575.64 410L575.64 406ZM576.64 405C576.64 405.552 576.193 406 575.64 406L575.64 410C578.402 410 580.64 407.761 580.64 405L576.64 405ZM576.64 3.67957L576.64 405L580.64 405L580.64 3.67957L576.64 3.67957ZM575.64 2.67957C576.193 2.67957 576.64 3.12726 576.64 3.67957L580.64 3.67957C580.64 0.918126 578.402 -1.32043 575.64 -1.32043L575.64 2.67957Z" fill="url(#paint1_linear_1457_5012)" mask="url(#path-1-inside-1_1457_5012)"/>
<defs>
<linearGradient id="paint0_linear_1457_5012" x1="289.32" y1="0.679596" x2="289.32" y2="447.5" gradientUnits="userSpaceOnUse">
<stop offset="0.0387811" stop-color="#4B4B4B"/>
<stop offset="1" stop-color="#333333"/>
</linearGradient>
<linearGradient id="paint1_linear_1457_5012" x1="347" y1="37" x2="418.384" y2="397.439" gradientUnits="userSpaceOnUse">
<stop stop-color="#FFC671"/>
<stop offset="0.59375" stop-color="#FF7541" stop-opacity="0"/>
<stop offset="1" stop-color="#FF6F3D" stop-opacity="0"/>
</linearGradient>
</defs>
</svg>
