<svg width="64" height="64" viewBox="0 0 64 64" fill="none" xmlns="http://www.w3.org/2000/svg">
<rect x="57" y="25" width="2" height="15" fill="white"/>
<path d="M51 23.0172V47.4397C51 47.9249 50.773 48.375 50.4008 48.6092C38.9788 55.7969 25.0212 55.7969 13.5992 48.6092C13.227 48.375 13 47.9249 13 47.4397L13 26.5679C13 24.5239 14.8967 23.2347 16.4255 24.2983C19.718 26.589 22.9937 29.2251 26.3253 31.8147C29.8467 34.6535 34.1787 34.7378 37.8013 32.0677C42.2526 28.8408 46.6028 25.5578 50.9781 23.0019C50.9881 22.9961 51 23.0044 51 23.0172Z" fill="white"/>
<path d="M61 42C61 43.6569 59.6569 45 58 45C56.3431 45 55 43.6569 55 42C55 40.3431 56.3431 39 58 39C59.6569 39 61 40.3431 61 42Z" fill="url(#paint0_linear_1457_4988)"/>
<path d="M28.0388 12.3061C30.5071 10.9562 33.4929 10.9562 35.9612 12.3061L58.8119 24.8025C60.1538 25.5364 60.1538 27.4636 58.8119 28.1975L35.9612 40.6939C33.4929 42.0438 30.5071 42.0438 28.0388 40.6939L5.18814 28.1975C3.84622 27.4636 3.84623 25.5364 5.18813 24.8025L28.0388 12.3061Z" fill="url(#paint1_linear_1457_4988)" stroke="#333333" stroke-width="2"/>
<defs>
<linearGradient id="paint0_linear_1457_4988" x1="55" y1="38.7656" x2="61" y2="45" gradientUnits="userSpaceOnUse">
<stop stop-color="#FFC671"/>
<stop offset="0.59375" stop-color="#FF7541"/>
<stop offset="1" stop-color="#FF6F3D"/>
</linearGradient>
<linearGradient id="paint1_linear_1457_4988" x1="0.00012322" y1="7.63281" x2="28.8716" y2="62.4887" gradientUnits="userSpaceOnUse">
<stop stop-color="#FFC671"/>
<stop offset="0.59375" stop-color="#FF7541"/>
<stop offset="1" stop-color="#FF6F3D"/>
</linearGradient>
</defs>
</svg>
