<svg width="129" height="24" viewBox="0 0 129 24" fill="none" xmlns="http://www.w3.org/2000/svg">
<path fill-rule="evenodd" clip-rule="evenodd" d="M11.2354 23.7059L0.674713 18.7649C-0.224904 18.3335 -0.224904 17.6669 0.674713 17.2748L4.35141 15.5493L11.1963 18.7649C12.096 19.1963 13.5432 19.1963 14.4037 18.7649L21.2486 15.5493L24.9253 17.2748C25.8249 17.7061 25.8249 18.3728 24.9253 18.7649L14.3646 23.7059C13.5432 24.0981 12.096 24.0981 11.2354 23.7059Z" fill="#FF6F3D"/>
<path fill-rule="evenodd" clip-rule="evenodd" d="M11.2012 17.5916L0.672658 12.6448C-0.224219 12.213 -0.224219 11.5456 0.672658 11.153L4.26017 9.46478L11.2012 12.7234C12.0981 13.1552 13.5409 13.1552 14.3988 12.7234L21.3398 9.46478L24.9273 11.153C25.8242 11.5848 25.8242 12.2522 24.9273 12.6448L14.3988 17.5916C13.5019 18.0234 12.0591 18.0234 11.2012 17.5916Z" fill="#95C038"/>
<path fill-rule="evenodd" clip-rule="evenodd" d="M11.2012 11.5408L0.672658 6.66521C-0.224219 6.23956 -0.224219 5.58175 0.672658 5.1948L11.2012 0.319234C12.0981 -0.106411 13.5409 -0.106411 14.3988 0.319234L24.9273 5.1948C25.8242 5.62044 25.8242 6.27826 24.9273 6.66521L14.3988 11.5408C13.5019 11.9277 12.0591 11.9277 11.2012 11.5408Z" fill="#5DC0E8"/>
<path d="M37.539 6C34.5436 6 31.6001 7.74302 31.6001 12C31.6001 16.257 34.5436 18 37.539 18C40.5345 18 43.478 16.257 43.478 12C43.478 7.74302 40.5345 6 37.539 6ZM37.539 7.67598C38.4567 7.67598 40.8808 8.02793 40.8808 12C40.8808 15.9721 38.4567 16.324 37.539 16.324C36.6214 16.324 34.1973 15.9721 34.1973 12C34.1973 8.02793 36.6214 7.67598 37.539 7.67598Z" fill="#333333"/>
<path d="M45.4755 6.13408V17.8659H47.9342V10.9609L47.8823 8.88268H47.9342L48.5402 10.1899L52.765 17.8659H55.9509V6.13408H53.4922V13.0391L53.5442 15.1173H53.4922L52.8516 13.5251L48.6614 6.13408H45.4755Z" fill="#333333"/>
<path d="M58.377 6.13408V17.8659H65.6492V15.8883H60.8357V6.13408H58.377Z" fill="#333333"/>
<path d="M63.5714 6.13408L68.0386 13.0726V17.8659H70.4973V13.1061L74.8606 6.13408H72.2634L69.7527 10.257L69.3372 11.0615H69.2852L68.9043 10.257L66.411 6.13408H63.5714Z" fill="#333333"/>
<path d="M80.589 6C77.5936 6 74.6501 7.74302 74.6501 12C74.6501 16.257 77.5936 18 80.589 18C83.5845 18 86.528 16.257 86.528 12C86.528 7.74302 83.5845 6 80.589 6ZM80.589 7.67598C81.5067 7.67598 83.9308 8.02793 83.9308 12C83.9308 15.9721 81.5067 16.324 80.589 16.324C79.6714 16.324 77.2473 15.9721 77.2473 12C77.2473 8.02793 79.6714 7.67598 80.589 7.67598Z" fill="#333333"/>
<path d="M88.5255 6.13408V17.8659H90.9842V12.8883H95.1051V10.9609H90.9842V8.11173H95.3129V6.13408H88.5255Z" fill="#333333"/>
<path d="M97.0476 6.13408V17.8659H99.5063V12.8883H103.627V10.9609H99.5063V8.11173H103.835V6.13408H97.0476Z" fill="#333333"/>
<path d="M105.57 17.8659H108.028V6.13408H105.57V17.8659Z" fill="#333333"/>
<path d="M119.304 15.5028C118.698 15.771 117.85 16.0223 116.776 16.0223C114.595 16.0223 112.621 14.8659 112.621 12.0335C112.621 9.63687 114.231 7.97765 116.949 7.97765C117.867 7.97765 118.646 8.14525 119.356 8.41341L119.46 6.40223C118.542 6.11732 117.729 6 116.776 6C112.967 6 110.023 8.02793 110.023 12.067C110.023 16.3408 113.313 18 116.326 18C117.296 18 118.386 17.8492 119.46 17.4972L119.304 15.5028Z" fill="#333333"/>
<path d="M121.363 6.13408V17.8659H128.6V15.7877H123.821V12.7877H128.167V10.8603H123.821V8.21229H128.6V6.13408H121.363Z" fill="#333333"/>
</svg>
