<svg width="261" height="48" viewBox="0 0 261 48" fill="none" xmlns="http://www.w3.org/2000/svg">
<path fill-rule="evenodd" clip-rule="evenodd" d="M22.8509 47.4115L1.37225 37.5252C-0.457416 36.6621 -0.457416 35.3282 1.37225 34.5436L8.85 31.0912L22.7713 37.5252C24.601 38.3883 27.5444 38.3883 29.2945 37.5252L43.2158 31.0912L50.6936 34.5436C52.5233 35.4067 52.5233 36.7405 50.6936 37.5252L29.2149 47.4115C27.5444 48.1962 24.601 48.1962 22.8509 47.4115Z" fill="#FF6F3D"/>
<path fill-rule="evenodd" clip-rule="evenodd" d="M22.8509 35.2497L1.37225 25.3633C-0.457416 24.5002 -0.457416 23.1664 1.37225 22.3817L8.6909 19.0078L22.8509 25.5202C24.6806 26.3833 27.6239 26.3833 29.374 25.5202L43.534 19.0078L50.8527 22.3817C52.6824 23.2448 52.6824 24.5787 50.8527 25.3633L29.374 35.2497C27.5444 36.1128 24.601 36.1128 22.8509 35.2497Z" fill="#95C038"/>
<path fill-rule="evenodd" clip-rule="evenodd" d="M22.8509 23.4017L1.37225 13.5153C-0.457416 12.6522 -0.457416 11.3183 1.37225 10.5337L22.8509 0.647322C24.6806 -0.215774 27.6239 -0.215774 29.374 0.647322L50.8527 10.5337C52.6824 11.3968 52.6824 12.7307 50.8527 13.5153L29.374 23.4017C27.5444 24.1863 24.601 24.1863 22.8509 23.4017Z" fill="#5DC0E8"/>
<path d="M65.3529 23.9027C65.3529 19.8139 66.5372 16.7281 68.9847 14.7222C71.3533 12.6393 74.1957 11.6364 77.4328 11.6364C80.6699 11.6364 83.4332 12.6393 85.8018 14.7222C88.1705 16.8052 89.3548 19.8139 89.3548 23.9799C89.3548 28.0687 88.1705 31.1546 85.8018 33.1604C83.4332 35.2434 80.5909 36.2463 77.4328 36.2463C74.1957 36.2463 71.4323 35.2434 68.9847 33.1604C66.5372 31.0774 65.3529 27.9915 65.3529 23.9027ZM70.5638 23.9027C70.5638 26.7572 71.1165 28.763 72.1429 30.0745C73.2482 31.386 74.4325 32.2346 75.6958 32.5432C76.0116 32.6204 76.2485 32.6975 76.5643 32.6975C76.8011 32.6975 77.117 32.7746 77.3538 32.7746C77.6696 32.7746 77.9065 32.7746 78.2223 32.6975C78.5381 32.6975 78.775 32.6204 79.0908 32.5432C80.3541 32.2346 81.5384 31.386 82.5647 30.0745C83.5911 28.763 84.1438 26.68 84.1438 23.9799C84.1438 21.2026 83.5911 19.1968 82.5647 17.8853C81.5384 16.5738 80.3541 15.7251 79.0908 15.4166C78.775 15.3394 78.4592 15.2623 78.2223 15.2623C77.9065 15.2623 77.6696 15.1851 77.3538 15.1851C77.038 15.1851 76.8011 15.1851 76.5643 15.2623C76.3274 15.2623 76.0116 15.3394 75.6958 15.4166C74.4325 15.7251 73.2482 16.5738 72.1429 17.8853C71.1165 19.0425 70.5638 21.1254 70.5638 23.9027Z" fill="#333333"/>
<path d="M91.9602 11.8678H98.4344L106.961 26.9886L108.225 30.3059H108.304L108.225 25.9857V11.8678H113.199V35.9377H106.725L98.1975 20.1997L96.9343 17.4995H96.8553L96.9343 21.7426V35.9377H91.9602V11.8678Z" fill="#333333"/>
<path d="M118.331 11.8678H123.305V31.8489H133.095V35.9377H118.331V11.8678Z" fill="#333333"/>
<path d="M130.016 11.8678H135.779L140.832 20.2768L141.622 21.9741H141.78L142.569 20.2768L147.701 11.8678H152.991L144.07 26.14V35.9377H139.095V26.0629L130.016 11.8678Z" fill="#333333"/>
<path d="M152.36 23.9027C152.36 19.8139 153.544 16.7281 155.992 14.7222C158.36 12.6393 161.203 11.6364 164.44 11.6364C167.677 11.6364 170.44 12.6393 172.809 14.7222C175.177 16.8052 176.362 19.8139 176.362 23.9799C176.362 28.0687 175.177 31.1546 172.809 33.1604C170.44 35.2433 167.598 36.2463 164.44 36.2463C161.203 36.2463 158.439 35.2433 155.992 33.1604C153.623 31.0774 152.36 27.9915 152.36 23.9027ZM157.571 23.9027C157.571 26.7572 158.123 28.763 159.15 30.0745C160.255 31.386 161.361 32.2346 162.703 32.5432C163.019 32.6203 163.255 32.6975 163.571 32.6975C163.808 32.6975 164.124 32.7746 164.361 32.7746C164.677 32.7746 164.913 32.7746 165.229 32.6975C165.545 32.6975 165.782 32.6203 166.098 32.5432C167.361 32.2346 168.545 31.386 169.572 30.0745C170.598 28.763 171.151 26.68 171.151 23.9799C171.151 21.2026 170.598 19.1968 169.572 17.8853C168.545 16.5738 167.361 15.7251 166.098 15.4166C165.782 15.3394 165.466 15.2623 165.229 15.2623C164.913 15.2623 164.677 15.1851 164.361 15.1851C164.045 15.1851 163.808 15.1851 163.571 15.2623C163.334 15.2623 163.019 15.3394 162.703 15.4166C161.439 15.7251 160.255 16.5738 159.15 17.8853C158.123 19.0425 157.571 21.1254 157.571 23.9027Z" fill="#333333"/>
<path d="M179.835 11.8678H193.573V15.8794H184.81V21.7426H193.179V25.8314H184.81V35.9377H179.835V11.8678Z" fill="#333333"/>
<path d="M197.284 11.8678H211.022V15.8794H202.258V21.7426H210.628V25.8314H202.258V35.9377H197.284V11.8678Z" fill="#333333"/>
<path d="M213.944 35.9377V11.8678H218.918V35.9377H213.944Z" fill="#333333"/>
<path d="M240.834 12.4076V16.5736C239.966 16.265 239.097 16.0336 238.15 15.8793C237.203 15.725 236.097 15.6478 234.992 15.6478C232.386 15.6478 230.413 16.4193 228.991 18.0394C227.57 19.5823 226.86 21.5881 226.86 23.9797C226.86 26.2941 227.491 28.2228 228.833 29.7657C230.176 31.3087 232.071 32.1573 234.518 32.1573C235.387 32.1573 236.255 32.0801 237.282 32.003C238.308 31.8487 239.334 31.6173 240.44 31.1544L240.755 35.2432C240.598 35.3203 240.361 35.3975 240.124 35.4746C239.808 35.5518 239.492 35.6289 239.097 35.7061C238.466 35.8603 237.676 35.9375 236.729 36.0918C235.781 36.1689 234.834 36.2461 233.808 36.2461C233.65 36.2461 233.492 36.2461 233.413 36.2461C233.255 36.2461 233.097 36.2461 233.018 36.2461C230.176 36.0918 227.57 35.0117 225.202 33.1602C222.833 31.2315 221.649 28.2228 221.649 24.2111C221.649 20.2766 222.833 17.1908 225.123 15.0306C227.412 12.8705 230.57 11.7905 234.439 11.7905C235.466 11.7905 236.413 11.7905 237.203 11.8676C238.071 11.9448 238.861 12.0991 239.729 12.2533C239.887 12.3305 240.124 12.3305 240.282 12.4076C240.44 12.3305 240.598 12.4076 240.834 12.4076Z" fill="#333333"/>
<path d="M244.782 11.8679H259.547V15.6481H249.835V21.6656H258.599V25.3686H249.835V32.1576H259.547V35.9378H244.782V11.8679Z" fill="#333333"/>
</svg>
