<svg width="81" height="126" viewBox="0 0 81 126" fill="none" xmlns="http://www.w3.org/2000/svg">
<g clip-path="url(#clip0_113_22661)">
<g clip-path="url(#clip1_113_22661)">
<path fill-rule="evenodd" clip-rule="evenodd" d="M23.5 9.5C23.5 9.22386 23.7239 9 24 9L66 9.00003C67.3807 9.00003 68.5 10.1193 68.5 11.5V43.5C68.5 44.8807 67.3807 46 66 46H36.4167C36.1406 46 35.9167 45.7761 35.9167 45.5C35.9167 45.2239 36.1406 45 36.4167 45H66C66.8284 45 67.5 44.3284 67.5 43.5V11.5C67.5 10.6716 66.8284 10 66 10L24 10C23.7239 10 23.5 9.77614 23.5 9.5Z" fill="#333333"/>
<path d="M39.8941 24.2252L46.0632 27.3159C46.5659 27.5612 47.4113 27.5612 47.9368 27.3159L54.1059 24.2252C54.6314 23.9799 54.6314 23.5629 54.1059 23.2931L47.9368 20.2024C47.4341 19.9325 46.5887 19.9325 46.0632 20.2024L39.8941 23.2931C39.3686 23.5384 39.3686 23.9554 39.8941 24.2252Z" fill="url(#paint0_linear_113_22661)"/>
<path d="M46.0632 31.0579L39.8941 28.1311C39.3686 27.8756 39.3686 27.4807 39.8941 27.2484L41.9962 26.2496L46.0632 28.1776C46.5887 28.4331 47.4341 28.4331 47.9368 28.1776L52.0038 26.2496L54.1059 27.2484C54.6314 27.504 54.6314 27.8988 54.1059 28.1311L47.9368 31.0579C47.4113 31.3134 46.5659 31.3134 46.0632 31.0579Z" fill="url(#paint1_linear_113_22661)"/>
<path d="M46.0833 34.826L39.8953 31.9026C39.3682 31.6474 39.3682 31.253 39.8953 31.021L42.0497 30.0001L46.0604 31.9026C46.5875 32.1578 47.4354 32.1578 47.9396 31.9026L51.9503 30.0001L54.1047 31.021C54.6318 31.2762 54.6318 31.6706 54.1047 31.9026L47.9167 34.826C47.4354 35.058 46.5875 35.058 46.0833 34.826Z" fill="url(#paint2_linear_113_22661)"/>
<path fill-rule="evenodd" clip-rule="evenodd" d="M14.5 17.0248C14.5 15.3543 15.8975 14 17.6215 14H29.3785C31.1025 14 32.5 15.3543 32.5 17.0248V42.9752C32.5 44.6457 31.1025 46 29.3785 46H17.6215C15.8975 46 14.5 44.6457 14.5 42.9752V17.0248ZM17.6215 15C16.4596 15 15.5 15.8989 15.5 17.0248V42.9752C15.5 44.1011 16.4596 45 17.6215 45H29.3785C30.5404 45 31.5 44.1011 31.5 42.9752V17.0248C31.5 15.8989 30.5404 15 29.3785 15H17.6215Z" fill="#333333"/>
<path fill-rule="evenodd" clip-rule="evenodd" d="M18.7628 27.8166L22.8755 29.8769C23.2106 30.0404 23.7742 30.0404 24.1245 29.8769L28.2372 27.8166C28.5876 27.6531 28.5876 27.3751 28.2372 27.1952L24.1245 25.1349C23.7894 24.955 23.2258 24.955 22.8755 25.1349L18.7628 27.1952C18.4125 27.3587 18.4125 27.6367 18.7628 27.8166ZM22.8755 32.3711L18.7628 30.42C18.4124 30.2497 18.4124 29.9864 18.7628 29.8316L20.1641 29.1658L22.8755 30.451C23.2258 30.6213 23.7894 30.6213 24.1245 30.451L26.8358 29.1658L28.2372 29.8316C28.5875 30.0019 28.5875 30.2652 28.2372 30.42L24.1245 32.3711C23.7742 32.5414 23.2106 32.5414 22.8755 32.3711ZM22.8888 34.884L18.7636 32.9352C18.4121 32.7651 18.4121 32.5022 18.7636 32.3475L20.1998 31.667L22.8736 32.9352C23.225 33.1054 23.7903 33.1054 24.1264 32.9352L26.8002 31.667L28.2364 32.3475C28.5878 32.5176 28.5878 32.7806 28.2364 32.9352L24.1111 34.884C23.7903 35.0387 23.225 35.0387 22.8888 34.884Z" fill="url(#paint3_linear_113_22661)"/>
<path d="M20.5 42.5C20.5 42.2239 20.7686 42 21.1 42H25.9C26.2314 42 26.5 42.2239 26.5 42.5C26.5 42.7761 26.2314 43 25.9 43H21.1C20.7686 43 20.5 42.7761 20.5 42.5Z" fill="#333333"/>
<path d="M19.5 15H27.5L27.1302 15.5547C26.9447 15.8329 26.6325 16 26.2981 16H20.7018C20.3675 16 20.0553 15.8329 19.8698 15.5547L19.5 15Z" fill="#333333"/>
</g>
<path fill-rule="evenodd" clip-rule="evenodd" d="M58.9279 100.759L53.5814 103.231C53.1458 103.427 52.4131 103.427 51.9577 103.231L46.6111 100.759C46.1557 100.563 46.1557 100.229 46.6111 100.013L51.9577 97.5408C52.3933 97.3249 53.126 97.3249 53.5814 97.5408L58.9279 100.013C59.3834 100.209 59.3834 100.543 58.9279 100.759ZM53.5814 106.224L58.9279 103.882C59.3834 103.678 59.3834 103.362 58.9279 103.176L57.1062 102.377L53.5814 103.92C53.126 104.124 52.3933 104.124 51.9577 103.92L48.4329 102.377L46.6111 103.176C46.1557 103.381 46.1557 103.697 46.6111 103.882L51.9577 106.224C52.4131 106.428 53.1458 106.428 53.5814 106.224ZM53.564 109.24L58.9269 106.901C59.3837 106.697 59.3837 106.382 58.9269 106.196L57.0598 105.379L53.5839 106.901C53.1271 107.105 52.3921 107.105 51.9552 106.901L48.4792 105.379L46.6122 106.196C46.1553 106.4 46.1553 106.716 46.6122 106.901L51.975 109.24C52.3921 109.425 53.1271 109.425 53.564 109.24Z" fill="url(#paint4_linear_113_22661)"/>
<path fill-rule="evenodd" clip-rule="evenodd" d="M69.5 89C71.2198 89 72.5 90.3294 72.5 92.0237L72.5 115H76.5C77.5 115 77.5 116 77.5 116C77.5 116 77.5 118 74.5 118H31.5C28.5 118 28.5 116 28.5 116C28.5 116 28.5 115 29.5 115H33.5V92C33.5 90.3058 34.7802 89 36.5 89H69.5ZM34.5093 115V92C34.5093 90.9067 35.2826 90 36.5 90H69.5C70.7174 90 71.5 90.9303 71.5 92.0237L71.514 115H34.5093Z" fill="#333333"/>
<path fill-rule="evenodd" clip-rule="evenodd" d="M22.8425 90.6618L28.1891 93.3404C28.6247 93.553 29.3574 93.553 29.8128 93.3404L31.501 92.4947V91.6563C31.501 90.4683 32.0676 89.4126 32.9453 88.7448L29.8128 87.1754C29.3772 86.9415 28.6445 86.9415 28.1891 87.1754L22.8425 89.854C22.3871 90.0666 22.3871 90.428 22.8425 90.6618ZM31.501 99.0435L29.7955 99.8492C29.3783 100.05 28.6434 100.05 28.2065 99.8492L22.8436 97.3156C22.3868 97.0944 22.3868 96.7526 22.8436 96.5515L24.7107 95.6667L28.1866 97.3156C28.6434 97.5368 29.3783 97.5368 29.8153 97.3156L31.501 96.516V99.0435ZM31.501 95.7826L29.8128 96.5835C29.3574 96.805 28.6247 96.805 28.1891 96.5835L22.8425 94.047C22.3871 93.8255 22.3871 93.4833 22.8425 93.282L24.6643 92.4163L28.1891 94.0872C28.6445 94.3087 29.3772 94.3087 29.8128 94.0872L31.501 93.287V95.7826Z" fill="url(#paint5_linear_113_22661)"/>
<path fill-rule="evenodd" clip-rule="evenodd" d="M52.8071 78H7.19287L7.18746 78L6 78C4.61929 78 3.5 79.1193 3.5 80.5V108.5C3.5 109.881 4.61929 111 6 111H20.5V117H17C16.7239 117 16.5 117.224 16.5 117.5C16.5 117.776 16.7239 118 17 118H21H25C25.2761 118 25.5 117.776 25.5 117.5C25.5 117.224 25.2761 117 25 117H21.5V111H29C29.2761 111 29.5 110.776 29.5 110.5C29.5 110.224 29.2761 110 29 110H21H6C5.17158 110 4.5 109.328 4.5 108.5V80.5C4.5 79.6716 5.17158 79 6 79L7.19287 79H52.8071L53.8714 79C54.8147 79 55.5 79.6881 55.5 80.4433V84.5C55.5 84.7761 55.7239 85 56 85C56.2761 85 56.5 84.7761 56.5 84.5V80.4433C56.5 79.052 55.2793 78 53.8714 78L52.8126 78L52.8071 78Z" fill="#333333"/>
</g>
<defs>
<linearGradient id="paint0_linear_113_22661" x1="39.5" y1="19.4141" x2="54.5" y2="35" gradientUnits="userSpaceOnUse">
<stop stop-color="#FFC671"/>
<stop offset="0.59375" stop-color="#FF7541"/>
<stop offset="1" stop-color="#FF6F3D"/>
</linearGradient>
<linearGradient id="paint1_linear_113_22661" x1="39.5" y1="19.4141" x2="54.5" y2="35" gradientUnits="userSpaceOnUse">
<stop stop-color="#FFC671"/>
<stop offset="0.59375" stop-color="#FF7541"/>
<stop offset="1" stop-color="#FF6F3D"/>
</linearGradient>
<linearGradient id="paint2_linear_113_22661" x1="39.5" y1="19.4141" x2="54.5" y2="35" gradientUnits="userSpaceOnUse">
<stop stop-color="#FFC671"/>
<stop offset="0.59375" stop-color="#FF7541"/>
<stop offset="1" stop-color="#FF6F3D"/>
</linearGradient>
<linearGradient id="paint3_linear_113_22661" x1="18.5" y1="24.6094" x2="28.5" y2="35" gradientUnits="userSpaceOnUse">
<stop stop-color="#FFC671"/>
<stop offset="0.59375" stop-color="#FF7541"/>
<stop offset="1" stop-color="#FF6F3D"/>
</linearGradient>
<linearGradient id="paint4_linear_113_22661" x1="59.2695" y1="96.9102" x2="47.3443" y2="110.334" gradientUnits="userSpaceOnUse">
<stop stop-color="#FFC671"/>
<stop offset="0.59375" stop-color="#FF7541"/>
<stop offset="1" stop-color="#FF6F3D"/>
</linearGradient>
<linearGradient id="paint5_linear_113_22661" x1="32.9453" y1="86.4922" x2="20.145" y2="97.1778" gradientUnits="userSpaceOnUse">
<stop stop-color="#FFC671"/>
<stop offset="0.59375" stop-color="#FF7541"/>
<stop offset="1" stop-color="#FF6F3D"/>
</linearGradient>
<clipPath id="clip0_113_22661">
<rect x="0.5" width="80" height="126" rx="5" fill="white"/>
</clipPath>
<clipPath id="clip1_113_22661">
<rect width="56" height="56" fill="white" transform="translate(12.5)"/>
</clipPath>
</defs>
</svg>
