<svg width="64" height="64" viewBox="0 0 64 64" fill="none" xmlns="http://www.w3.org/2000/svg">
<g clip-path="url(#clip0_17_113663)">
<path fill-rule="evenodd" clip-rule="evenodd" d="M16.3449 3.99976C15.0482 3.99976 13.9971 5.04185 13.9971 6.32734V49.6722C13.9971 50.9577 15.0482 51.9998 16.3449 51.9998H47.6492C48.9459 51.9998 49.9971 50.9577 49.9971 49.6722V15.4998C49.9971 14.8824 49.7497 14.2904 49.3094 13.8539L40.1195 4.68149C39.6792 4.24498 39.082 3.99976 38.4594 3.99976H16.3449Z" fill="white"/>
<path d="M39.3536 4.6462C39.2106 4.5032 38.9955 4.46043 38.8087 4.53782C38.6218 4.61521 38.5 4.79752 38.5 4.99976V13.1817C38.5 13.8575 38.6636 14.4572 39.0734 14.8875C39.4874 15.3222 40.072 15.4999 40.7316 15.4999H49C49.2022 15.4999 49.3845 15.3781 49.4619 15.1912C49.5393 15.0044 49.4966 14.7893 49.3536 14.6463L39.3536 4.6462Z" fill="url(#paint0_linear_17_113663)" stroke="#333333" stroke-linecap="round" stroke-linejoin="round"/>
<path fill-rule="evenodd" clip-rule="evenodd" d="M48.6054 14.5641L48.603 14.5617L39.4155 5.39165L39.4142 5.39039C39.3615 5.33816 39.3125 5.28841 39.27 5.24537L39.2542 5.2293C39.2059 5.18044 39.1681 5.14237 39.1336 5.10886C39.0634 5.04089 39.0327 5.01773 39.02 5.00926C39.0094 5.0068 38.9724 4.99976 38.8923 4.99976H15.3449C14.5923 4.99976 13.9971 5.60228 13.9971 6.32734V49.6722C13.9971 50.3972 14.5923 50.9998 15.3449 50.9998H47.6492C48.4018 50.9998 48.9971 50.3972 48.9971 49.6722V15.1091C48.9971 15.0212 48.9882 14.9825 48.9855 14.9721C48.9839 14.9664 48.9834 14.9641 48.9768 14.9539C48.966 14.9371 48.9408 14.9029 48.8764 14.8348C48.826 14.7816 48.7731 14.7295 48.7015 14.659C48.6728 14.6307 48.6411 14.5995 48.6054 14.5641ZM40.1195 4.68149L49.3094 13.8539C49.3376 13.8819 49.365 13.9089 49.3916 13.9351C49.7804 14.3179 49.9971 14.5313 49.9971 15.1091V49.6722C49.9971 50.9577 48.9459 51.9998 47.6492 51.9998H15.3449C14.0482 51.9998 12.9971 50.9577 12.9971 49.6722V6.32734C12.9971 5.04185 14.0482 3.99976 15.3449 3.99976H38.8923C39.4459 3.99976 39.6371 4.19361 39.9822 4.54339C40.0253 4.58702 40.0707 4.63308 40.1195 4.68149Z" fill="#333333"/>
<path d="M29 22.9999H45V23.9999H29V22.9999Z" fill="#333333"/>
<path d="M29 25.9999H45V26.9999H29V25.9999Z" fill="#333333"/>
<path d="M29 28.9999H45V29.9999H29V28.9999Z" fill="#333333"/>
<path d="M29 22.9999H30V28.9999H29V25.9999V22.9999Z" fill="#333333"/>
<path d="M44 22.9999H45V28.9999H44V22.9999Z" fill="#333333"/>
<path d="M39 22.9999H40V28.9999H39V22.9999Z" fill="#333333"/>
<path d="M29 22.9999H30V28.9999H29V25.9999V22.9999Z" fill="#333333"/>
<path d="M34 22.9999H35V28.9999H34V22.9999Z" fill="#333333"/>
<path d="M19 15.9998H35V16.9998H20L19 15.9998Z" fill="#333333"/>
<path d="M19 9.99976H34V11.9998H19V9.99976Z" fill="#333333"/>
<path d="M22 18.9998H38V19.9998H23L22 18.9998Z" fill="#333333"/>
<path fill-rule="evenodd" clip-rule="evenodd" d="M0.342582 16.0344C-0.177357 15.5145 -0.153602 14.6482 0.39564 14.0996L4.06664 10.4327C4.61588 9.88402 5.48262 9.86075 6.00256 10.3807L22.3568 26.7364C22.52 26.8996 22.8317 27.1049 22.8883 27.3319L23.911 32.2196C24.1642 33.2351 23.1981 34.2001 22.1822 33.9465L17.2925 32.8491C17.0654 32.7924 16.86 32.5534 16.6968 32.3901L0.342582 16.0344Z" fill="url(#paint1_linear_17_113663)"/>
<path fill-rule="evenodd" clip-rule="evenodd" d="M17.0019 32.3901C17.0019 32.3901 17.3453 32.1482 17.8945 31.5996L21.5655 27.9327C22.1148 27.384 22.5028 26.9999 22.5028 26.9999C22.666 27.1631 22.8311 27.1048 22.8877 27.3319L23.9103 32.2196C24.1635 33.2351 23.1974 34.2001 22.1815 33.9465L17.2919 32.8491C17.0647 32.7924 17.1652 32.5534 17.0019 32.3901Z" fill="white"/>
<path fill-rule="evenodd" clip-rule="evenodd" d="M17.2924 31.6108L1.07604 15.5623C0.81607 15.3024 0.801417 14.9945 1.07604 14.7202L4.70013 11.1112C4.97476 10.8368 5.14694 10.8512 5.40691 11.1112L21.7256 27.3319C21.8072 27.4135 21.8993 27.8043 21.9276 27.9179L23.0189 32.3901C23.1455 32.8979 22.6901 33.091 22.1822 32.9642L17.5 31.7762C17.3864 31.7478 17.374 31.6924 17.2924 31.6108ZM0.341426 16.0344C-0.178513 15.5144 -0.154758 14.6482 0.394484 14.0995L4.06548 10.4326C4.61473 9.88396 5.48147 9.8607 6.00141 10.3806L22.3568 26.7364C22.52 26.8996 22.8317 27.1048 22.8883 27.3319L23.911 32.2196C24.1642 33.2351 23.198 34.2001 22.1822 33.9465L17.2925 32.8491C17.0654 32.7924 16.86 32.5534 16.6968 32.3901L0.341426 16.0344Z" fill="#333333"/>
<path d="M6 16.7067L19.709 30.4156L20.4165 29.7089L6.7075 15.9999L6 16.7067Z" fill="white"/>
<path fill-rule="evenodd" clip-rule="evenodd" d="M21.8872 27.5115L17.3494 31.9744L18.0327 32.67L22.5715 28.2215L21.8872 27.5115Z" fill="#333333"/>
<path fill-rule="evenodd" clip-rule="evenodd" d="M8.27577 13.0086L3.00857 18.2584L3.70505 18.9721L8.96765 13.7135L8.27577 13.0086Z" fill="#333333"/>
<path fill-rule="evenodd" clip-rule="evenodd" d="M22.6991 30.6844L20.7037 32.8282L22.7002 33.4999L23.5027 32.4999L22.6991 30.6844Z" fill="#333333"/>
<path d="M22.5688 46.7863C22.5688 52.4271 27.0672 56.9999 32.6163 56.9999C38.1653 56.9999 42.6637 52.4271 42.6637 46.7863C42.6637 41.1455 38.1653 36.5728 32.6163 36.5728C27.0672 36.5728 22.5688 41.1455 22.5688 46.7863Z" fill="white"/>
<path d="M32.2162 35.9999C36.9991 36.0014 42.8784 39.5872 42.9975 46.387C43.0523 49.5132 42.2051 52.3579 39.9352 54.2264C39.7868 54.0998 39.049 53.9487 38.8721 53.8545L35.8238 52.2294C35.424 52.0162 35.175 51.6066 35.175 51.1613V49.9405C35.175 49.9405 36.0698 48.8945 36.4109 47.4413C36.6939 47.2623 36.8836 46.9529 36.8836 46.6007V45.2646C36.8836 44.9707 36.7498 44.7081 36.542 44.5242V42.5928C36.542 42.5928 36.948 39.5872 32.7832 39.5872C28.6185 39.5872 29.0244 42.5928 29.0244 42.5928V44.5242C28.8162 44.7081 28.6828 44.9707 28.6828 45.2646V46.6007C28.6828 47.0498 28.9913 47.4277 29.4099 47.5539C29.6432 48.2627 29.9797 48.9382 30.4246 49.5524C30.5368 49.7072 30.6417 49.8384 30.7334 49.9405V51.1922C30.7334 51.653 30.467 52.0746 30.0453 52.2803L26.6545 53.7071C26.4586 53.8028 25.5685 54.1981 25.4054 54.3326C23.3614 52.2556 22 50.0971 22 46.885C22 40.4398 27.517 35.9984 32.2162 35.9999Z" fill="url(#paint2_linear_17_113663)"/>
<path d="M32.6163 57.4999C26.7834 57.4999 22.0688 52.6955 22.0688 46.7863C22.0688 40.8771 26.7834 36.0728 32.6163 36.0728C38.4492 36.0728 43.1637 40.8771 43.1637 46.7863C43.1637 52.6955 38.4492 57.4999 32.6163 57.4999Z" stroke="#333333"/>
<path d="M32.5688 46.7863C32.5688 52.4271 37.0672 56.9999 42.6163 56.9999C48.1653 56.9999 52.6637 52.4271 52.6637 46.7863C52.6637 41.1455 48.1653 36.5728 42.6163 36.5728C37.0672 36.5728 32.5688 41.1455 32.5688 46.7863Z" fill="white"/>
<path d="M42.2162 35.9999C46.9991 36.0014 52.8784 39.5872 52.9975 46.387C53.0523 49.5132 52.2051 52.3579 49.9352 54.2264C49.7868 54.0998 49.049 53.9487 48.8721 53.8545L45.8238 52.2294C45.424 52.0162 45.175 51.6066 45.175 51.1613V49.9405C45.175 49.9405 46.0698 48.8945 46.4109 47.4413C46.6939 47.2623 46.8836 46.9529 46.8836 46.6007V45.2646C46.8836 44.9707 46.7498 44.7081 46.542 44.5242V42.5928C46.542 42.5928 46.948 39.5872 42.7832 39.5872C38.6185 39.5872 39.0244 42.5928 39.0244 42.5928V44.5242C38.8162 44.7081 38.6828 44.9707 38.6828 45.2646V46.6007C38.6828 47.0498 38.9913 47.4277 39.4099 47.5539C39.6432 48.2627 39.9797 48.9382 40.4246 49.5524C40.5368 49.7072 40.6417 49.8384 40.7334 49.9405V51.1922C40.7334 51.653 40.467 52.0746 40.0453 52.2803L36.6545 53.7071C36.4586 53.8028 35.5685 54.1981 35.4054 54.3326C33.3614 52.2556 32 50.0971 32 46.885C32 40.4398 37.517 35.9984 42.2162 35.9999Z" fill="#9ADAF3"/>
<path d="M42.6163 57.4999C36.7834 57.4999 32.0688 52.6955 32.0688 46.7863C32.0688 40.8771 36.7834 36.0728 42.6163 36.0728C48.4492 36.0728 53.1637 40.8771 53.1637 46.7863C53.1637 52.6955 48.4492 57.4999 42.6163 57.4999Z" stroke="#333333"/>
<path d="M42.5688 46.7863C42.5688 52.4271 47.0672 56.9999 52.6163 56.9999C58.1653 56.9999 62.6637 52.4271 62.6637 46.7863C62.6637 41.1455 58.1653 36.5728 52.6163 36.5728C47.0672 36.5728 42.5688 41.1455 42.5688 46.7863Z" fill="white"/>
<path d="M52.2162 35.9999C56.9991 36.0014 62.8784 39.5872 62.9975 46.387C63.0523 49.5132 62.2051 52.3579 59.9352 54.2264C59.7868 54.0998 59.049 53.9487 58.8721 53.8545L55.8238 52.2294C55.424 52.0162 55.175 51.6066 55.175 51.1613V49.9405C55.175 49.9405 56.0698 48.8945 56.4109 47.4413C56.6939 47.2623 56.8836 46.9529 56.8836 46.6007V45.2646C56.8836 44.9707 56.7498 44.7081 56.542 44.5242V42.5928C56.542 42.5928 56.948 39.5872 52.7832 39.5872C48.6185 39.5872 49.0244 42.5928 49.0244 42.5928V44.5242C48.8162 44.7081 48.6828 44.9707 48.6828 45.2646V46.6007C48.6828 47.0498 48.9913 47.4277 49.4099 47.5539C49.6432 48.2627 49.9797 48.9382 50.4246 49.5524C50.5368 49.7072 50.6417 49.8384 50.7334 49.9405V51.1922C50.7334 51.653 50.467 52.0746 50.0453 52.2803L46.6545 53.7071C46.4586 53.8028 45.5685 54.1981 45.4054 54.3326C43.3614 52.2556 42 50.0971 42 46.885C42 40.4398 47.517 35.9984 52.2162 35.9999Z" fill="url(#paint3_linear_17_113663)"/>
<path d="M52.6163 57.4999C46.7834 57.4999 42.0688 52.6955 42.0688 46.7863C42.0688 40.8771 46.7834 36.0728 52.6163 36.0728C58.4492 36.0728 63.1637 40.8771 63.1637 46.7863C63.1637 52.6955 58.4492 57.4999 52.6163 57.4999Z" stroke="#333333"/>
</g>
<defs>
<linearGradient id="paint0_linear_17_113663" x1="39" y1="4.60913" x2="49.0002" y2="14.9998" gradientUnits="userSpaceOnUse">
<stop stop-color="#FFC671"/>
<stop offset="0.59375" stop-color="#FF7541"/>
<stop offset="1" stop-color="#FF6F3D"/>
</linearGradient>
<linearGradient id="paint1_linear_17_113663" x1="-0.822699" y1="15.3167" x2="12.5692" y2="7.3929" gradientUnits="userSpaceOnUse">
<stop stop-color="#FF8E3D"/>
<stop offset="1" stop-color="#FF6F3D"/>
</linearGradient>
<linearGradient id="paint2_linear_17_113663" x1="32.5" y1="35.9999" x2="32.5" y2="54.3326" gradientUnits="userSpaceOnUse">
<stop stop-color="#FF8E3D"/>
<stop offset="1" stop-color="#FF6F3D"/>
</linearGradient>
<linearGradient id="paint3_linear_17_113663" x1="52.5" y1="35.9999" x2="52.5" y2="54.3326" gradientUnits="userSpaceOnUse">
<stop stop-color="#FF8E3D"/>
<stop offset="1" stop-color="#FF6F3D"/>
</linearGradient>
<clipPath id="clip0_17_113663">
<rect width="64" height="64" fill="white"/>
</clipPath>
</defs>
</svg>
