<svg width="304" height="480" viewBox="0 0 304 480" fill="none" xmlns="http://www.w3.org/2000/svg">
<path fill-rule="evenodd" clip-rule="evenodd" d="M276.843 379.318L283.207 386.232C283.598 386.656 283.598 387.344 283.207 387.768L276.843 394.682C276.453 395.106 275.819 395.106 275.429 394.682C275.038 394.258 275.038 393.57 275.429 393.145L280.086 388.086H278.58C278.027 388.086 277.58 387.6 277.58 387C277.58 386.4 278.027 385.914 278.58 385.914H280.086L275.429 380.855C275.038 380.43 275.038 379.742 275.429 379.318C275.819 378.894 276.453 378.894 276.843 379.318ZM113.92 388.086H110V385.914H113.92C114.473 385.914 114.92 386.4 114.92 387C114.92 387.6 114.473 388.086 113.92 388.086ZM120.761 387C120.761 386.4 121.209 385.914 121.761 385.914H129.602C130.155 385.914 130.602 386.4 130.602 387C130.602 387.6 130.155 388.086 129.602 388.086H121.761C121.209 388.086 120.761 387.6 120.761 387ZM136.443 387C136.443 386.4 136.891 385.914 137.443 385.914H145.284C145.836 385.914 146.284 386.4 146.284 387C146.284 387.6 145.836 388.086 145.284 388.086H137.443C136.891 388.086 136.443 387.6 136.443 387ZM152.125 387C152.125 386.4 152.573 385.914 153.125 385.914H160.966C161.518 385.914 161.966 386.4 161.966 387C161.966 387.6 161.518 388.086 160.966 388.086H153.125C152.573 388.086 152.125 387.6 152.125 387ZM167.807 387C167.807 386.4 168.255 385.914 168.807 385.914H176.648C177.2 385.914 177.648 386.4 177.648 387C177.648 387.6 177.2 388.086 176.648 388.086H168.807C168.255 388.086 167.807 387.6 167.807 387ZM183.489 387C183.489 386.4 183.936 385.914 184.489 385.914H192.33C192.882 385.914 193.33 386.4 193.33 387C193.33 387.6 192.882 388.086 192.33 388.086H184.489C183.936 388.086 183.489 387.6 183.489 387ZM199.17 387C199.17 386.4 199.618 385.914 200.17 385.914H208.011C208.564 385.914 209.011 386.4 209.011 387C209.011 387.6 208.564 388.086 208.011 388.086H200.17C199.618 388.086 199.17 387.6 199.17 387ZM214.852 387C214.852 386.4 215.3 385.914 215.852 385.914H223.693C224.245 385.914 224.693 386.4 224.693 387C224.693 387.6 224.245 388.086 223.693 388.086H215.852C215.3 388.086 214.852 387.6 214.852 387ZM230.534 387C230.534 386.4 230.982 385.914 231.534 385.914H239.375C239.927 385.914 240.375 386.4 240.375 387C240.375 387.6 239.927 388.086 239.375 388.086H231.534C230.982 388.086 230.534 387.6 230.534 387ZM246.216 387C246.216 386.4 246.664 385.914 247.216 385.914H255.057C255.609 385.914 256.057 386.4 256.057 387C256.057 387.6 255.609 388.086 255.057 388.086H247.216C246.664 388.086 246.216 387.6 246.216 387ZM261.898 387C261.898 386.4 262.345 385.994 262.898 385.994H270.739C271.291 385.994 271.739 386.4 271.739 387C271.739 387.6 271.291 387.95 270.739 387.95H262.898C262.345 387.95 261.898 387.6 261.898 387Z" fill="#9ADAF3"/>
<path fill-rule="evenodd" clip-rule="evenodd" d="M111.657 222.318L105.293 229.232C104.902 229.656 104.902 230.344 105.293 230.768L111.657 237.682C112.047 238.106 112.681 238.106 113.071 237.682C113.462 237.258 113.462 236.57 113.071 236.145L108.414 231.086H109.797C110.349 231.086 110.797 230.6 110.797 230C110.797 229.4 110.349 228.914 109.797 228.914H108.414L113.071 223.855C113.462 223.43 113.462 222.742 113.071 222.318C112.681 221.894 112.047 221.894 111.657 222.318ZM223.703 231H227.5V229H223.703C223.151 229 222.703 229.4 222.703 230C222.703 230.6 223.151 231 223.703 231ZM217.109 230C217.109 229.4 216.662 229 216.109 229H208.516C207.963 229 207.516 229.4 207.516 230C207.516 230.6 207.963 231 208.516 231H216.109C216.662 231 217.109 230.6 217.109 230ZM201.922 230C201.922 229.4 201.474 229 200.922 229H193.328C192.776 229 192.328 229.4 192.328 230C192.328 230.6 192.776 231 193.328 231H200.922C201.474 231 201.922 230.6 201.922 230ZM186.734 230C186.734 229.4 186.287 229 185.734 229H178.141C177.588 229 177.141 229.4 177.141 230C177.141 230.6 177.588 231 178.141 231H185.734C186.287 231 186.734 230.6 186.734 230ZM171.547 230C171.547 229.4 171.099 229 170.547 229H162.953C162.401 229 161.953 229.4 161.953 230C161.953 230.6 162.401 231 162.953 231H170.547C171.099 231 171.547 230.6 171.547 230ZM156.359 230C156.359 229.4 155.912 229 155.359 229H147.766C147.213 229 146.766 229.4 146.766 230C146.766 230.6 147.213 231 147.766 231H155.359C155.912 231 156.359 230.6 156.359 230ZM141.172 230C141.172 229.4 140.724 229 140.172 229H132.578C132.026 229 131.578 229.4 131.578 230C131.578 230.6 132.026 231 132.578 231H140.172C140.724 231 141.172 230.6 141.172 230ZM125.984 230C125.984 229.4 125.537 229 124.984 229H117.391C116.838 229 116.391 229.4 116.391 230C116.391 230.6 116.838 231 117.391 231H124.984C125.537 231 125.984 230.6 125.984 230Z" fill="#9ADAF3"/>
<path fill-rule="evenodd" clip-rule="evenodd" d="M0.71746 71.7682C0.293205 71.3439 0.293205 70.6561 0.71746 70.2318L7.6311 63.3182C8.05536 62.8939 8.74322 62.8939 9.16747 63.3182C9.59172 63.7425 9.59172 64.4303 9.16746 64.8546L4.10838 69.9136L6.21137 69.9136C6.81135 69.9136 7.29774 70.4 7.29774 71C7.29774 71.6 6.81135 72.0864 6.21137 72.0864L4.10838 72.0864L9.16744 77.1455C9.59169 77.5697 9.59169 78.2576 9.16743 78.6818C8.74318 79.1061 8.05533 79.1061 7.63107 78.6818L0.71746 71.7682ZM91.2743 69.9998L96 69.9998L96 72.0051L91.2743 72.0051C90.6743 72.0051 90.1879 71.6001 90.1879 71.0002C90.1879 70.4002 90.6743 69.9998 91.2743 69.9998ZM82.9092 71.0001C82.9092 71.6001 82.4228 72.0115 81.8228 72.0115L72.3714 72.0115C71.7714 72.0115 71.285 71.6001 71.285 71.0001C71.285 70.4001 71.7714 69.9842 72.3714 69.9842L81.8228 69.9842C82.4228 69.9842 82.9092 70.4002 82.9092 71.0001ZM64.0063 71.0001C64.0063 71.6001 63.52 72.0865 62.92 72.0865L53.4685 72.0865C52.8685 72.0865 52.3822 71.6001 52.3822 71.0001C52.3822 70.4001 52.8686 69.9137 53.4685 69.9137L62.92 69.9137C63.52 69.9137 64.0063 70.4001 64.0063 71.0001ZM45.1035 71.0001C45.1035 71.6001 44.6171 72.0864 44.0171 72.0864L34.5657 72.0864C33.9657 72.0864 33.4793 71.6 33.4793 71.0001C33.4793 70.4001 33.9657 69.9137 34.5657 69.9137L44.0171 69.9137C44.6171 69.9137 45.1035 70.4001 45.1035 71.0001ZM26.2006 71C26.2006 71.6 25.7142 72.0864 25.1142 72.0864L15.6628 72.0864C15.0628 72.0864 14.5764 71.6 14.5764 71C14.5764 70.4 15.0628 69.9136 15.6628 69.9136L25.1142 69.9137C25.7142 69.9137 26.2006 70.4001 26.2006 71Z" fill="#9ADAF3"/>
<path d="M142 416L142 372L126 356L70 356L70 416L142 416Z" fill="white"/>
<path fill-rule="evenodd" clip-rule="evenodd" d="M140 372.828L140 414L72 414L72 358L125.172 358L140 372.828ZM142 372L142 416L70 416L70 356L126 356L142 372Z" fill="#9ADAF3"/>
<path d="M142 372L126 356L126 372L142 372Z" fill="#D9F4FF"/>
<path fill-rule="evenodd" clip-rule="evenodd" d="M126 356L142 372L126 372L126 356ZM128 360.828L137.172 370L128 370L128 360.828Z" fill="#9ADAF3"/>
<path fill-rule="evenodd" clip-rule="evenodd" d="M116 368H82V374H116V368ZM80 366V376H118V366H80Z" fill="#AAAAAA"/>
<path fill-rule="evenodd" clip-rule="evenodd" d="M130 394H82V404H130V394ZM80 392V406H132V392H80Z" fill="#AAAAAA"/>
<path d="M80 380H132V382H80V380Z" fill="#AAAAAA"/>
<path d="M80 386H132V388H80V386Z" fill="#AAAAAA"/>
<path d="M168 101L168 57L152 41L96 41L96 101L168 101Z" fill="white"/>
<path fill-rule="evenodd" clip-rule="evenodd" d="M166 57.8284L166 99L98 99L98 43L151.172 43L166 57.8284ZM168 57L168 101L96 101L96 41L152 41L168 57Z" fill="#9ADAF3"/>
<path d="M168 57L152 41L152 57L168 57Z" fill="#D9F4FF"/>
<path fill-rule="evenodd" clip-rule="evenodd" d="M152 41L168 57L152 57L152 41ZM154 45.8284L163.172 55L154 55L154 45.8284Z" fill="#9ADAF3"/>
<path fill-rule="evenodd" clip-rule="evenodd" d="M123 54H108V58H123V54ZM106 52V60H125V52H106Z" fill="#AAAAAA"/>
<path fill-rule="evenodd" clip-rule="evenodd" d="M123 60H108V64H123V60ZM106 58V66H125V58H106Z" fill="#AAAAAA"/>
<path fill-rule="evenodd" clip-rule="evenodd" d="M123 66H108V70H123V66ZM106 64V72H125V64H106Z" fill="#AAAAAA"/>
<path fill-rule="evenodd" clip-rule="evenodd" d="M123 72H108V76H123V72ZM106 70V78H125V70H106Z" fill="#AAAAAA"/>
<path fill-rule="evenodd" clip-rule="evenodd" d="M123 78H108V82H123V78ZM106 76V84H125V76H106Z" fill="#AAAAAA"/>
<path fill-rule="evenodd" clip-rule="evenodd" d="M123 84H108V88H123V84ZM106 82V90H125V82H106Z" fill="#AAAAAA"/>
<path fill-rule="evenodd" clip-rule="evenodd" d="M140 54H125V58H140V54ZM123 52V60H142V52H123Z" fill="#AAAAAA"/>
<path fill-rule="evenodd" clip-rule="evenodd" d="M140 60H125V64H140V60ZM123 58V66H142V58H123Z" fill="#AAAAAA"/>
<path fill-rule="evenodd" clip-rule="evenodd" d="M140 66H125V70H140V66ZM123 64V72H142V64H123Z" fill="#AAAAAA"/>
<path fill-rule="evenodd" clip-rule="evenodd" d="M157 66H142V70H157V66ZM140 64V72H159V64H140Z" fill="#AAAAAA"/>
<path fill-rule="evenodd" clip-rule="evenodd" d="M140 72H125V76H140V72ZM123 70V78H142V70H123Z" fill="#AAAAAA"/>
<path fill-rule="evenodd" clip-rule="evenodd" d="M157 72H142V76H157V72ZM140 70V78H159V70H140Z" fill="#AAAAAA"/>
<path fill-rule="evenodd" clip-rule="evenodd" d="M140 78H125V82H140V78ZM123 76V84H142V76H123Z" fill="#AAAAAA"/>
<path fill-rule="evenodd" clip-rule="evenodd" d="M157 78H142V82H157V78ZM140 76V84H159V76H140Z" fill="#AAAAAA"/>
<path fill-rule="evenodd" clip-rule="evenodd" d="M140 84H125V88H140V84ZM123 82V90H142V82H123Z" fill="#AAAAAA"/>
<path fill-rule="evenodd" clip-rule="evenodd" d="M157 84H142V88H157V84ZM140 82V90H159V82H140Z" fill="#AAAAAA"/>
<path d="M223 192L267 192L283 208L283 264L223 264L223 192Z" fill="white"/>
<path fill-rule="evenodd" clip-rule="evenodd" d="M266.172 194L225 194L225 262L281 262L281 208.828L266.172 194ZM267 192L223 192L223 264L283 264L283 208L267 192Z" fill="#9ADAF3"/>
<path d="M267 192L283 208L267 208L267 192Z" fill="#D9F4FF"/>
<path fill-rule="evenodd" clip-rule="evenodd" d="M283 208L267 192L267 208L283 208ZM278.172 206L269 196.828L269 206L278.172 206Z" fill="#9ADAF3"/>
<path d="M235 207H252V209H235V207Z" fill="#FF6F3D"/>
<path d="M254 221H271V223H254V221Z" fill="#AAAAAA"/>
<path d="M254 227H271V229H254V227Z" fill="#AAAAAA"/>
<path d="M235 233H271V235H235V233Z" fill="#AAAAAA"/>
<path d="M235 239H271V241H235V239Z" fill="#AAAAAA"/>
<path d="M235 245H271V247H235V245Z" fill="#AAAAAA"/>
<path d="M235 251H271V253H235V251Z" fill="#AAAAAA"/>
<path d="M240.525 223.068L235 229H252L245.481 222L242.505 225.111L240.525 223.068Z" fill="url(#paint0_linear_506_7043)"/>
<path d="M240 217.5C240 218.881 238.881 220 237.5 220C236.119 220 235 218.881 235 217.5C235 216.119 236.119 215 237.5 215C238.881 215 240 216.119 240 217.5Z" fill="url(#paint1_linear_506_7043)"/>
<path d="M259.332 17.6774L246.365 12.7794L257.088 3.99999L259.332 17.6774Z" fill="#FF6F3D"/>
<path d="M9.00141 347.727C9.00141 350.213 6.98638 352.229 4.5007 352.229C2.01503 352.229 0 350.213 0 347.727C0 345.241 2.01503 343.225 4.5007 343.225C6.98638 343.225 9.00141 345.241 9.00141 347.727Z" fill="#5DC0E8"/>
<path d="M80.0014 474.727C80.0014 477.213 77.9864 479.229 75.5007 479.229C73.015 479.229 71 477.213 71 474.727C71 472.241 73.015 470.225 75.5007 470.225C77.9864 470.225 80.0014 472.241 80.0014 474.727Z" fill="#FF6F3D"/>
<path d="M304.001 69.7268C304.001 72.2131 301.986 74.2286 299.501 74.2286C297.015 74.2286 295 72.2131 295 69.7268C295 67.2405 297.015 65.225 299.501 65.225C301.986 65.225 304.001 67.2405 304.001 69.7268Z" fill="#95C038"/>
<defs>
<linearGradient id="paint0_linear_506_7043" x1="243.5" y1="222" x2="243.5" y2="229" gradientUnits="userSpaceOnUse">
<stop stop-color="#FF8E3D"/>
<stop offset="1" stop-color="#FF6F3D"/>
</linearGradient>
<linearGradient id="paint1_linear_506_7043" x1="237.5" y1="215" x2="237.5" y2="220" gradientUnits="userSpaceOnUse">
<stop stop-color="#FF8E3D"/>
<stop offset="1" stop-color="#FF6F3D"/>
</linearGradient>
</defs>
</svg>
