<svg width="176" height="32" viewBox="0 0 176 32" fill="none" xmlns="http://www.w3.org/2000/svg">
<path d="M7 3.5H18.2607C18.3907 3.5 18.5161 3.55106 18.6094 3.6416L25.3486 10.1807C25.4454 10.2747 25.4999 10.4041 25.5 10.5391V28C25.5 28.2761 25.2761 28.5 25 28.5H7C6.72386 28.5 6.5 28.2761 6.5 28V4C6.5 3.72386 6.72386 3.5 7 3.5Z" stroke="#446995"/>
<path d="M18.5 5.5V10.5H23.5" stroke="#446995" stroke-linecap="round"/>
<line x1="12" y1="19" x2="20" y2="19" stroke="#446995" stroke-width="2" stroke-linecap="round"/>
<line x1="12" y1="15" x2="20" y2="15" stroke="#446995" stroke-width="2" stroke-linecap="round"/>
<line x1="12" y1="23" x2="20" y2="23" stroke="#446995" stroke-width="2" stroke-linecap="round"/>
<path d="M55 3.5H66.2607C66.3907 3.5 66.5161 3.55106 66.6094 3.6416L73.3486 10.1807C73.4454 10.2747 73.4999 10.4041 73.5 10.5391V28C73.5 28.2761 73.2761 28.5 73 28.5H55C54.7239 28.5 54.5 28.2761 54.5 28V4C54.5 3.72386 54.7239 3.5 55 3.5Z" stroke="#40865C"/>
<line x1="60" y1="19" x2="68" y2="19" stroke="#40865C" stroke-width="2" stroke-linecap="round"/>
<path d="M60 23V15" stroke="#40865C" stroke-width="2" stroke-linecap="round"/>
<path d="M68 23V15" stroke="#40865C" stroke-width="2" stroke-linecap="round"/>
<line x1="64" y1="23" x2="64" y2="16" stroke="#40865C" stroke-width="2" stroke-linecap="round"/>
<path d="M66.5 5.5V10.5H71.5" stroke="#40865C" stroke-linecap="round"/>
<line x1="60" y1="15" x2="68" y2="15" stroke="#40865C" stroke-width="2" stroke-linecap="round"/>
<line x1="60" y1="23" x2="68" y2="23" stroke="#40865C" stroke-width="2" stroke-linecap="round"/>
<path d="M103 3.5H114.261C114.391 3.5 114.516 3.55106 114.609 3.6416L121.349 10.1807C121.445 10.2747 121.5 10.4041 121.5 10.5391V28C121.5 28.2761 121.276 28.5 121 28.5H103C102.724 28.5 102.5 28.2761 102.5 28V4C102.5 3.72386 102.724 3.5 103 3.5Z" stroke="#AA5252"/>
<path d="M114.5 5.5V10.5H119.5" stroke="#AA5252" stroke-linecap="round"/>
<path d="M114.861 17.1863L110.581 14.1295C109.919 13.6567 109 14.1298 109 14.9432L109 21.0568C109 21.8702 109.919 22.3433 110.581 21.8705L114.861 18.8137C115.419 18.4149 115.419 17.5851 114.861 17.1863Z" stroke="#AA5252" stroke-width="2" stroke-linecap="round"/>
<g clip-path="url(#clip0_137_22797)">
<path d="M151.5 13V4.5C151.5 3.94772 151.948 3.5 152.5 3.5H163.107C163.36 3.5 163.603 3.59545 163.788 3.76721L170.18 9.70328C170.384 9.89249 170.5 10.158 170.5 10.4361V27.5C170.5 28.0523 170.052 28.5 169.5 28.5H152.5C151.948 28.5 151.5 28.0523 151.5 27.5V25" stroke="#AA5252"/>
<path fill-rule="evenodd" clip-rule="evenodd" d="M152 15.2676C151.706 15.0974 151.364 15 151 15H148V21.997L148 22L148 23L149 23C149.552 23 150 22.5523 150 22L150 20H151C151.364 20 151.706 19.9026 152 19.7324C152.598 19.3866 153 18.7403 153 18V17C153 16.2597 152.598 15.6134 152 15.2676ZM154 15V23H156.5C157.086 23 157.596 22.8473 158 22.5718C158.629 22.1422 159 21.4139 159 20.5V17.5C159 16.5861 158.629 15.8578 158 15.4282C157.596 15.1527 157.086 15 156.5 15H154ZM156 17H156.5C156.796 17 156.886 17.0898 156.898 17.1017C156.91 17.1137 157 17.2045 157 17.5V20.5C157 20.7955 156.91 20.8864 156.898 20.8983C156.886 20.9102 156.795 21 156.5 21H156V17ZM160.307 15H160V21.9974L160 22.0005L160 23H161C161.552 23 162 22.5525 162 22.0005L162 21.998V20.0107M162 19.998L163 19.999C163.004 19.999 163.007 19.999 163.011 19.999C163.023 19.9988 163.034 19.9985 163.046 19.998C163.576 19.9745 163.999 19.5375 164 19.0017C164 19.0011 164 19.0006 164 19C164 18.4856 163.609 18.0626 163.109 18.0107C163.074 18.007 163.038 18.0052 163.002 18.0053C163.001 18.0053 163.001 18.0053 163 18.0053L162 18.0107V17.0051L164.001 17.0017C164.327 17.0011 164.617 16.8441 164.799 16.6017C164.925 16.4341 165 16.2257 165 16C165 15.4478 164.552 15 164 15H160.307M150 18H151V17H150V18Z" fill="#AA5252"/>
<path d="M163.5 5.5V10.5H168.5" stroke="#AA5252" stroke-linecap="round"/>
</g>
<defs>
<clipPath id="clip0_137_22797">
<rect width="32" height="32" fill="white" transform="translate(144)"/>
</clipPath>
</defs>
</svg>
