<svg width="149" height="28" viewBox="0 0 149 28" fill="none" xmlns="http://www.w3.org/2000/svg">
<path d="M13.6388 1.10093C13.8102 0.691839 14.3898 0.691839 14.5612 1.10093L17.7118 8.62213C17.7841 8.79474 17.9467 8.91252 18.1333 8.92737L26.3046 9.57782C26.7489 9.61319 26.9284 10.1683 26.5889 10.4571L20.3684 15.7478C20.2249 15.8699 20.1622 16.0623 20.2062 16.2455L22.1076 24.1599C22.2114 24.592 21.7421 24.9347 21.3621 24.7042L14.3593 20.4572C14.1999 20.3606 14.0001 20.3606 13.8407 20.4572L6.83788 24.7042C6.45791 24.9347 5.98863 24.592 6.09243 24.1599L7.9938 16.2455C8.03781 16.0623 7.9751 15.8699 7.83157 15.7478L1.61112 10.4571C1.27159 10.1683 1.45106 9.61319 1.89538 9.57782L10.0667 8.92737C10.2533 8.91252 10.4159 8.79474 10.4882 8.62213L13.6388 1.10093Z" fill="#FF6F3D"/>
<path d="M43.839 1.10093C44.0104 0.691839 44.59 0.691839 44.7614 1.10093L47.912 8.62213C47.9843 8.79474 48.1469 8.91252 48.3335 8.92737L56.5048 9.57782C56.9491 9.61319 57.1286 10.1683 56.7891 10.4571L50.5686 15.7478C50.4251 15.8699 50.3624 16.0623 50.4064 16.2455L52.3078 24.1599C52.4116 24.592 51.9423 24.9347 51.5623 24.7042L44.5595 20.4572C44.4001 20.3606 44.2003 20.3606 44.0409 20.4572L37.0381 24.7042C36.6581 24.9347 36.1888 24.592 36.2926 24.1599L38.194 16.2455C38.238 16.0623 38.1753 15.8699 38.0318 15.7478L31.8113 10.4571C31.4718 10.1683 31.6513 9.61319 32.0956 9.57782L40.2669 8.92737C40.4535 8.91252 40.6161 8.79474 40.6884 8.62213L43.839 1.10093Z" fill="#FF6F3D"/>
<path d="M74.0387 1.10093C74.2101 0.691839 74.7897 0.691839 74.9611 1.10093L78.1117 8.62213C78.184 8.79474 78.3466 8.91252 78.5332 8.92737L86.7045 9.57782C87.1488 9.61319 87.3283 10.1683 86.9888 10.4571L80.7683 15.7478C80.6248 15.8699 80.5621 16.0623 80.6061 16.2455L82.5075 24.1599C82.6113 24.592 82.142 24.9347 81.762 24.7042L74.7592 20.4572C74.5998 20.3606 74.4 20.3606 74.2406 20.4572L67.2378 24.7042C66.8578 24.9347 66.3885 24.592 66.4923 24.1599L68.3937 16.2455C68.4377 16.0623 68.375 15.8699 68.2315 15.7478L62.011 10.4571C61.6715 10.1683 61.851 9.61319 62.2953 9.57782L70.4666 8.92737C70.6532 8.91252 70.8158 8.79474 70.8881 8.62213L74.0387 1.10093Z" fill="#FF6F3D"/>
<path d="M104.239 1.10093C104.41 0.691839 104.99 0.691839 105.161 1.10093L108.312 8.62213C108.384 8.79474 108.547 8.91252 108.733 8.92737L116.905 9.57782C117.349 9.61319 117.529 10.1683 117.189 10.4571L110.969 15.7478C110.825 15.8699 110.762 16.0623 110.806 16.2455L112.708 24.1599C112.811 24.592 112.342 24.9347 111.962 24.7042L104.959 20.4572C104.8 20.3606 104.6 20.3606 104.441 20.4572L97.438 24.7042C97.058 24.9347 96.5887 24.592 96.6925 24.1599L98.5939 16.2455C98.6379 16.0623 98.5752 15.8699 98.4317 15.7478L92.2112 10.4571C91.8717 10.1683 92.0512 9.61319 92.4955 9.57782L100.667 8.92737C100.853 8.91252 101.016 8.79474 101.088 8.62213L104.239 1.10093Z" fill="#FF6F3D"/>
<path d="M134.439 1.10093C134.61 0.691839 135.19 0.691839 135.361 1.10093L138.512 8.62213C138.584 8.79474 138.747 8.91252 138.933 8.92737L147.105 9.57782C147.549 9.61319 147.728 10.1683 147.389 10.4571L141.168 15.7478C141.025 15.8699 140.962 16.0623 141.006 16.2455L142.908 24.1599C143.011 24.592 142.542 24.9347 142.162 24.7042L135.159 20.4572C135 20.3606 134.8 20.3606 134.641 20.4572L127.638 24.7042C127.258 24.9347 126.789 24.592 126.892 24.1599L128.794 16.2455C128.838 16.0623 128.775 15.8699 128.632 15.7478L122.411 10.4571C122.072 10.1683 122.251 9.61319 122.695 9.57782L130.867 8.92737C131.053 8.91252 131.216 8.79474 131.288 8.62213L134.439 1.10093Z" fill="#FF6F3D"/>
</svg>
