<svg width="100" height="120" viewBox="0 0 100 120" fill="none" xmlns="http://www.w3.org/2000/svg">
<rect x="0.5" y="0.5" width="99" height="119" rx="1.5" fill="white"/>
<rect x="0.5" y="0.5" width="99" height="119" rx="1.5" stroke="#E2E2E2"/>
<path fill-rule="evenodd" clip-rule="evenodd" d="M19 55.5C19 55.2239 19.2501 55 19.5586 55H82.441C82.75 55 83 55.2239 83 55.5C83 55.7761 82.75 56 82.441 56H19.5586C19.2501 56 19 55.7761 19 55.5ZM15.5586 60C15.2501 60 15 60.2239 15 60.5C15 60.7761 15.2501 61 15.5586 61H82.441C82.75 61 83 60.7761 83 60.5C83 60.2239 82.75 60 82.441 60H15.5586Z" fill="#AAAAAA"/>
<path d="M19.5202 83C19.2329 83 19 83.2239 19 83.5C19 83.7761 19.2329 84 19.5202 84H82.4798C82.7671 84 83 83.7761 83 83.5C83 83.2239 82.7671 83 82.4798 83H19.5202Z" fill="#AAAAAA"/>
<path d="M15.5326 93C15.2385 93 15 93.2239 15 93.5C15 93.7761 15.2385 94 15.5326 94H83.4674C83.7615 94 84 93.7761 84 93.5C84 93.2239 83.7615 93 83.4674 93H15.5326Z" fill="#AAAAAA"/>
<path d="M15 103.5C15 103.224 15.2301 103 15.5138 103H82.4862C82.7699 103 83 103.224 83 103.5C83 103.776 82.7699 104 82.4862 104H15.5138C15.2301 104 15 103.776 15 103.5Z" fill="#AAAAAA"/>
<path d="M15.514 88C15.2301 88 15 88.2239 15 88.5C15 88.7761 15.2301 89 15.514 89H78.486C78.7699 89 79 88.7761 79 88.5C79 88.2239 78.7699 88 78.486 88H15.514Z" fill="#AAAAAA"/>
<path d="M15 98.5C15 98.2239 15.2307 98 15.5152 98H78.4848C78.7693 98 79 98.2239 79 98.5C79 98.7761 78.7693 99 78.4848 99H15.5152C15.2307 99 15 98.7761 15 98.5Z" fill="#AAAAAA"/>
<path d="M15 65.5C15 65.2239 15.2309 65 15.5157 65H75.4843C75.7691 65 76 65.2239 76 65.5C76 65.7761 75.7691 66 75.4843 66H15.5157C15.2309 66 15 65.7761 15 65.5Z" fill="#AAAAAA"/>
<path d="M15.5586 70C15.2501 70 15 70.2239 15 70.5C15 70.7761 15.2501 71 15.5586 71H82.441C82.75 71 83 70.7761 83 70.5C83 70.2239 82.75 70 82.441 70H15.5586Z" fill="#AAAAAA"/>
<path d="M15 75.5C15 75.2239 15.2501 75 15.5586 75H57.441C57.75 75 58 75.2239 58 75.5C58 75.7761 57.75 76 57.441 76H15.5586C15.2501 76 15 75.7761 15 75.5Z" fill="#AAAAAA"/>
<path d="M15.4964 48C15.2223 48 15 48.2239 15 48.5C15 48.7761 15.2223 49 15.4964 49H46.5036C46.7777 49 47 48.7761 47 48.5C47 48.2239 46.7777 48 46.5036 48H15.4964Z" fill="#666666"/>
<g style="mix-blend-mode:luminosity">
<path fill-rule="evenodd" clip-rule="evenodd" d="M15 14.9535C15 14.4269 15.4516 14 16.0087 14H38.9913C39.5484 14 40 14.4269 40 14.9535V38.0465C40 38.5731 39.5484 39 38.9913 39H16.0087C15.4516 39 15 38.5731 15 38.0465V14.9535Z" fill="#BDECFF"/>
<path fill-rule="evenodd" clip-rule="evenodd" d="M16 38L23.8684 30.85L28.1053 34.7L34.5122 27L39 33.3684V38" fill="url(#paint0_linear_1459_23275)"/>
<path d="M24 21C24 22.1046 23.1046 23 22 23C20.8954 23 20 22.1046 20 21C20 19.8954 20.8954 19 22 19C23.1046 19 24 19.8954 24 21Z" fill="url(#paint1_linear_1459_23275)"/>
<path d="M23.8377 30.3262L26.5108 32.8695L23.8377 34.1676L21.1704 32.8695L23.8377 30.3262Z" fill="white"/>
<path d="M34.358 26.9214L37.8832 30.6891L34.358 32.2469L30.9414 30.6891L34.358 26.9214Z" fill="white"/>
</g>
<defs>
<linearGradient id="paint0_linear_1459_23275" x1="24.478" y1="30.172" x2="28.8324" y2="41.5085" gradientUnits="userSpaceOnUse">
<stop stop-color="#FFC671"/>
<stop offset="0.59375" stop-color="#FF7541"/>
<stop offset="1" stop-color="#FF6F3D"/>
</linearGradient>
<linearGradient id="paint1_linear_1459_23275" x1="22" y1="19" x2="22" y2="23" gradientUnits="userSpaceOnUse">
<stop stop-color="#FF8E3D"/>
<stop offset="1" stop-color="#FF6F3D"/>
</linearGradient>
</defs>
</svg>
