<svg width="1352" height="832" viewBox="0 0 1352 832" fill="none" xmlns="http://www.w3.org/2000/svg">
<g clip-path="url(#clip0)">
<path opacity="0.7" d="M208 208L312 208L416 312L312 312L208 208Z" fill="#EDEDED"/>
<path opacity="0.8" d="M208 104L312 104L416 208L312 208L208 104Z" fill="#EDEDED"/>
<path opacity="0.8" d="M312 104L416 104L520 208L416 208L312 104Z" fill="#F4F4F4"/>
<path opacity="0.6" d="M519 312L623 312L727 416L623 416L519 312Z" fill="#F4F4F4"/>
<path opacity="0.9" d="M208 0.000244141L312 0.000225957L416 104L312 104L208 0.000244141Z" fill="white"/>
<path opacity="0.8" d="M416 104L520 104L624 208L520 208L416 104Z" fill="white"/>
<path opacity="0.8" d="M520 104L624 104L728 208L624 208L520 104Z" fill="#F8F8F8"/>
<path opacity="0.6" d="M623 312L727 312L831 416L727 416L623 312Z" fill="white"/>
<path opacity="0.6" d="M727 312L831 312L935 416L831 416L727 312Z" fill="#F7F7F7"/>
<path opacity="0.4" d="M830 520L934 520L1038 624L934 624L830 520Z" fill="white"/>
<path opacity="0.4" d="M934 520L1038 520L1142 624L1038 624L934 520Z" fill="#F7F7F7"/>
<path opacity="0.4" d="M518 520L622 520L726 624L622 624L518 520Z" fill="#F7F7F7"/>
<path opacity="0.9" d="M519 0.000244141L623 0.000225957L727 104L623 104L519 0.000244141Z" fill="#F8F8F8"/>
<path opacity="0.9" d="M312 0.000244141L416 0.000225957L520 104L416 104L312 0.000244141Z" fill="#F4F4F4"/>
<path opacity="0.9" d="M415 0.000244141L519 0.000225957L623 104L519 104L415 0.000244141Z" fill="#EDEDED"/>
<path opacity="0.9" d="M104 0.000488281L208 0.000470097L312 104L208 104L104 0.000488281Z" fill="#F8F8F8"/>
<path opacity="0.9" d="M0 0.000488281L104 0.000470097L208 104L104 104L0 0.000488281Z" fill="#EDEDED"/>
<path opacity="0.9" d="M623 0.000244141L727 0.000225957L831 104L727 104L623 0.000244141Z" fill="white"/>
<path opacity="0.8" d="M728 104L832 104L936 208L832 208L728 104Z" fill="#F7F7F7"/>
<path opacity="0.8" d="M624 104L728 104L832 208L728 208L624 104Z" fill="#EDEDED"/>
<path opacity="0.3" d="M518 624L622 624L726 728L622 728L518 624Z" fill="#F5F5F5"/>
<path opacity="0.3" d="M622 624L726 624L830 728L726 728L622 624Z" fill="#ECECEC"/>
<path opacity="0.3" d="M414 624L518 624L622 728L518 728L414 624Z" fill="#E7E7E7"/>
<path opacity="0.4" d="M310 520L414 520L518 624L414 624L310 520Z" fill="#F6F6F6"/>
<path opacity="0.4" d="M622 520L726 520L830 624L726 624L622 520Z" fill="#EDEDED"/>
<path opacity="0.6" d="M102 313L312 313L416 417L206 417L102 313Z" fill="white"/>
<path opacity="0.4" d="M726 520L830 520L934 624L830 624L726 520Z" fill="#F4F4F4"/>
<path opacity="0.5" d="M726 416L830 416L934 520L830 520L726 416Z" fill="#F4F4F4"/>
<path opacity="0.7" d="M416 208L520 208L624 312L520 312L416 208Z" fill="white"/>
<path opacity="0.5" d="M622 416L726 416L830 520L726 520L622 416Z" fill="white"/>
<path opacity="0.5" d="M518 416L622 416L726 520L622 520L518 416Z" fill="#F6F6F6"/>
<path opacity="0.7" d="M832 208L936 208L1040 312L936 312L832 208Z" fill="white"/>
<path opacity="0.7" d="M728 208L832 208L936 312L832 312L728 208Z" fill="#F6F6F6"/>
<path opacity="0.7" d="M520 208L624 208L728 312L624 312L520 208Z" fill="#F4F4F4"/>
<path opacity="0.7" d="M624 208L728 208L832 312L728 312L624 208Z" fill="#EDEDED"/>
<path opacity="0.8" d="M832 104L936 104L1040 208L936 208L832 104Z" fill="white"/>
<path opacity="0.8" d="M936 104L1040 104L1144 208L1040 208L936 104Z" fill="#F8F8F8"/>
<path opacity="0.9" d="M935 0.000244141L1039 0.000225957L1143 104L1039 104L935 0.000244141Z" fill="#F8F8F8"/>
<path opacity="0.9" d="M727 0.000244141L831 0.000225957L935 104L831 104L727 0.000244141Z" fill="#F4F4F4"/>
<path opacity="0.9" d="M1143 0L1247 -1.81839e-05L1351 104L1247 104L1143 0Z" fill="#F4F4F4"/>
<path opacity="0.9" d="M831 0.000244141L935 0.000225957L1039 104L935 104L831 0.000244141Z" fill="#EDEDED"/>
<path opacity="0.9" d="M1039 0.000244141L1143 0.000225957L1247 104L1143 104L1039 0.000244141Z" fill="white"/>
<path opacity="0.8" d="M1144 104L1248 104L1352 208L1248 208L1144 104Z" fill="#F7F7F7"/>
<path opacity="0.8" d="M1040 104L1144 104L1248 208L1144 208L1040 104Z" fill="#EDEDED"/>
<path opacity="0.7" d="M1144 208L1248 208L1352 312L1248 312L1144 208Z" fill="#F6F6F6"/>
<path opacity="0.7" d="M936 208L1040 208L1144 312L1040 312L936 208Z" fill="#F4F4F4"/>
<path opacity="0.7" d="M1040 208L1144 208L1248 312L1144 312L1040 208Z" fill="#EDEDED"/>
<path opacity="0.5" d="M830 416L934 416L1038 520L934 520L830 416Z" fill="#EDEDED"/>
<path opacity="0.6" d="M935 312L1039 312L1143 416L1039 416L935 312Z" fill="#F4F4F4"/>
<path opacity="0.6" d="M1039 312L1143 312L1247 416L1143 416L1039 312Z" fill="white"/>
<path opacity="0.6" d="M1143 312L1247 312L1351 416L1247 416L1143 312Z" fill="#F7F7F7"/>
<path opacity="0.6" d="M831 312L935 312L1039 416L935 416L831 312Z" fill="#EDEDED"/>
<path opacity="0.4" d="M1038 520L1142 520L1246 624L1142 624L1038 520Z" fill="#EDEDED"/>
<path opacity="0.4" d="M1142 520L1246 520L1350 624L1246 624L1142 520Z" fill="#F4F4F4"/>
<path opacity="0.5" d="M1142 416L1246 416L1350 520L1246 520L1142 416Z" fill="#F4F4F4"/>
<path opacity="0.5" d="M1038 416L1142 416L1246 520L1142 520L1038 416Z" fill="white"/>
<path opacity="0.5" d="M934 416L1038 416L1142 520L1038 520L934 416Z" fill="#F6F6F6"/>
<path opacity="0.2" d="M622 728L726 728L830 832L726 832L622 728Z" fill="white"/>
</g>
<defs>
<clipPath id="clip0">
<rect width="1352" height="832" fill="white" transform="translate(0 0.000244141)"/>
</clipPath>
</defs>
</svg>
