<svg xmlns="http://www.w3.org/2000/svg" width="2180" height="1660" viewBox="0 0 2180 1660" fill="none">
<g filter="url(#filter0_dd)">
<path d="M1803.06 210L256.936 210C220.042 210 190 239.777 190 276.346L190 1303.65C190 1340.22 220.042 1370 256.936 1370L1803.06 1370C1839.96 1370 1870 1340.22 1870 1303.65L1870 276.084C1869.74 239.516 1839.96 210 1803.06 210Z" fill="url(#paint0_linear)"/>
<path d="M1801.7 219.158L257.798 219.158C222.359 219.158 199.247 248.33 199.247 279.464L199.247 1304.65C199.247 1335.78 224.785 1361.16 256.114 1361.16H1801.84C1833.17 1361.16 1860.25 1335.78 1860.25 1304.65V278.7C1860.25 247.567 1833.29 219.158 1801.7 219.158Z" fill="url(#paint1_linear)"/>
<path d="M263.524 789.347C263.524 784.385 259.572 780.467 254.564 780.467C249.557 780.467 245.604 784.385 245.604 789.347C245.604 794.31 249.557 798.228 254.564 798.228C259.572 798.228 263.524 794.31 263.524 789.347Z" fill="#F0F0F0"/>
<path d="M1846.28 789.608C1846.28 809.982 1829.42 826.699 1808.86 826.699C1788.31 826.699 1771.44 809.982 1771.44 789.608C1771.44 769.235 1788.31 752.518 1808.86 752.518C1829.42 752.518 1846.28 768.973 1846.28 789.608ZM1842.59 789.608C1842.59 771.063 1827.57 756.175 1808.86 756.175C1790.15 756.175 1775.13 771.063 1775.13 789.608C1775.13 808.154 1790.15 823.042 1808.86 823.042C1827.31 823.042 1842.59 807.893 1842.59 789.608Z" fill="#F0F0F0"/>
</g>
<defs>
<filter id="filter0_dd" x="0" y="0" width="2180" height="1660" filterUnits="userSpaceOnUse" color-interpolation-filters="sRGB">
<feFlood flood-opacity="0" result="BackgroundImageFix"/>
<feColorMatrix in="SourceAlpha" type="matrix" values="0 0 0 0 0 0 0 0 0 0 0 0 0 0 0 0 0 0 127 0"/>
<feOffset dx="60" dy="40"/>
<feGaussianBlur stdDeviation="125"/>
<feColorMatrix type="matrix" values="0 0 0 0 0 0 0 0 0 0 0 0 0 0 0 0 0 0 0.1 0"/>
<feBlend mode="normal" in2="BackgroundImageFix" result="effect1_dropShadow"/>
<feColorMatrix in="SourceAlpha" type="matrix" values="0 0 0 0 0 0 0 0 0 0 0 0 0 0 0 0 0 0 127 0"/>
<feOffset dx="10" dy="30"/>
<feGaussianBlur stdDeviation="30"/>
<feColorMatrix type="matrix" values="0 0 0 0 0 0 0 0 0 0 0 0 0 0 0 0 0 0 0.05 0"/>
<feBlend mode="normal" in2="effect1_dropShadow" result="effect2_dropShadow"/>
<feBlend mode="normal" in="SourceGraphic" in2="effect2_dropShadow" result="shape"/>
</filter>
<linearGradient id="paint0_linear" x1="205.413" y1="1351.68" x2="1835.45" y2="204.437" gradientUnits="userSpaceOnUse">
<stop stop-color="#E7E7E7"/>
<stop offset="0.0833333" stop-color="white"/>
<stop offset="0.8125" stop-color="#E7E7E7"/>
<stop offset="1" stop-color="white"/>
</linearGradient>
<linearGradient id="paint1_linear" x1="1029.75" y1="194.73" x2="1031.91" y2="1361.15" gradientUnits="userSpaceOnUse">
<stop stop-color="white"/>
<stop offset="1" stop-color="#F9F9F9"/>
</linearGradient>
</defs>
</svg>