<svg width="48" height="48" viewBox="0 0 48 48" fill="none" xmlns="http://www.w3.org/2000/svg">
<rect width="48" height="48" rx="6" fill="#6D4EC2" fill-opacity="0.1"/>
<g clip-path="url(#clip0_1457_5129)">
<path fill-rule="evenodd" clip-rule="evenodd" d="M30.3599 20.6321C30.9457 20.0463 31.8954 20.0463 32.4812 20.6321C33.067 21.2179 33.067 22.1676 32.4812 22.7534L28.9457 26.2889C28.7504 26.4842 28.4338 26.4842 28.2386 26.2889L26.8244 24.8747C26.6291 24.6795 26.6291 24.3629 26.8244 24.1676L30.3599 20.6321ZM17.6407 23.9121C17.795 22.8162 18.1479 21.7334 18.5247 20.8177L26.6387 28.9317C25.723 29.3085 24.6402 29.6614 23.5443 29.8157C21.8342 30.0565 20.4177 29.7818 19.3997 28.7638L19.3913 28.7554L19.3859 28.7499L19.3816 28.7456L19.375 28.7391L19.3718 28.7358L19.3696 28.7337L19.3619 28.726L19.3531 28.7172L19.3521 28.7162L19.3506 28.7146L19.3422 28.7063L19.3364 28.7005L19.3323 28.6964L19.3264 28.6905L19.3223 28.6864L19.3194 28.6835L19.3123 28.6764L19.3025 28.6666L19.3023 28.6664L19.3022 28.6663L19.2923 28.6564L19.2848 28.6488L19.2822 28.6463L19.2789 28.6429L19.2721 28.6362L19.2671 28.6311L19.262 28.6261L19.2555 28.6196L19.2519 28.616L19.2491 28.6132L19.2418 28.6058L19.2324 28.5965L19.2316 28.5957L19.2309 28.595L19.2214 28.5855L19.2125 28.5766L19.2112 28.5753L19.2096 28.5737L19.2009 28.565L19.1938 28.5579L19.1907 28.5548L19.187 28.5511L19.1804 28.5445L19.1749 28.5389L19.1702 28.5342L19.1647 28.5288L19.1599 28.524L19.1557 28.5197L19.1496 28.5137L19.1427 28.5068L19.1393 28.5034L19.1362 28.5003L19.129 28.493L19.1209 28.485L19.1186 28.4827L19.1165 28.4806L19.1083 28.4724L19.0994 28.4635L19.0979 28.462L19.0966 28.4606L19.0876 28.4517L19.0782 28.4423L19.0772 28.4413L19.0764 28.4404L19.0669 28.431L19.0572 28.4213L19.0565 28.4206L19.0559 28.42L19.0462 28.4103L19.0365 28.4006L19.0358 28.3999L19.0352 28.3992L19.0255 28.3895L19.016 28.3801L19.0151 28.3792L19.0142 28.3783L19.0048 28.3688L18.9958 28.3599L18.9944 28.3585L18.9929 28.357L18.9841 28.3482L18.9758 28.3399L18.9737 28.3378L18.9714 28.3355L18.9634 28.3275L18.9561 28.3202L18.9531 28.3172L18.9497 28.3138L18.9428 28.3069L18.9367 28.3008L18.9325 28.2966L18.9276 28.2917L18.9222 28.2863L18.9175 28.2816L18.9119 28.276L18.9053 28.2694L18.9017 28.2657L18.8986 28.2626L18.8914 28.2555L18.8828 28.2469L18.8812 28.2453L18.8799 28.244L18.871 28.2351L18.8614 28.2255L18.8608 28.2249L18.86 28.224L18.8506 28.2147L18.8432 28.2073L18.8405 28.2045L18.8369 28.2009L18.8303 28.1944L18.8253 28.1894L18.8202 28.1843L18.8135 28.1776L18.8101 28.1742L18.8076 28.1717L18.8001 28.1641L18.7901 28.1542L18.79 28.1541L18.7899 28.154L18.78 28.1441L18.7729 28.137L18.77 28.1341L18.766 28.1301L18.7601 28.1242L18.756 28.12L18.7502 28.1142L18.7418 28.1059L18.7403 28.1044L18.7392 28.1033L18.7304 28.0945L18.7228 28.0868L18.7206 28.0847L18.7173 28.0814L18.7108 28.0749L18.7065 28.0706L18.701 28.0651L18.6926 28.0567C17.6746 27.0387 17.3999 25.6222 17.6407 23.9121ZM18.7508 30.8218C22.0431 33.1286 26.8051 31.166 28.9218 30.0781C29.4908 29.7857 29.5772 29.0418 29.1248 28.5894L18.867 18.3316C18.4146 17.8792 17.6708 17.9656 17.3783 18.5346C16.2904 20.6513 14.3278 25.4134 16.6347 28.7056C16.6129 28.7239 16.5918 28.7433 16.5713 28.7638L14.45 30.8851C14.0595 31.2757 14.0595 31.9088 14.45 32.2993L15.1571 33.0065C15.5476 33.397 16.1808 33.397 16.5713 33.0065L18.6926 30.8851C18.7131 30.8647 18.7325 30.8435 18.7508 30.8218ZM26.8244 14.9752C26.2386 14.3894 25.2888 14.3894 24.703 14.9752L21.1675 18.5108C20.9722 18.706 20.9722 19.0226 21.1675 19.2179L22.5817 20.6321C22.777 20.8273 23.0936 20.8273 23.2888 20.6321L26.8244 17.0966C27.4101 16.5108 27.4101 15.561 26.8244 14.9752Z" fill="#6D4EC2"/>
</g>
<defs>
<clipPath id="clip0_1457_5129">
<rect width="20" height="20" fill="white" transform="translate(14 14)"/>
</clipPath>
</defs>
</svg>
