<svg width="194" height="64" viewBox="0 0 194 64" fill="none" xmlns="http://www.w3.org/2000/svg">
<path fill-rule="evenodd" clip-rule="evenodd" d="M11 10.6138C11 9.17697 12.1605 8.00856 13.5964 8.00856H61.4036C62.8396 8.00856 64 9.17697 64 10.6138V51.4033C64 52.8401 62.8396 54.0086 61.4036 54.0086H30.001V53.0086H61.4036C62.2833 53.0086 63 52.2919 63 51.4033V10.6138C63 9.72527 62.2833 9.00856 61.4036 9.00856H13.5964C12.7167 9.00856 12 9.72527 12 10.6138V26.1129H11V10.6138Z" fill="#333333"/>
<path d="M46.085 31.729H39.8773V31.0201C40.4235 30.9868 40.8751 30.9203 41.2322 30.8204C41.5964 30.7206 41.7784 30.5975 41.7784 30.451C41.7784 30.3911 41.7714 30.3179 41.7574 30.2314C41.7434 30.1448 41.7224 30.0683 41.6944 30.0017L40.455 26.8268H35.2346C35.0385 27.2927 34.8775 27.6987 34.7514 28.0448C34.6324 28.391 34.5239 28.7105 34.4258 29.0033C34.3348 29.2895 34.2718 29.5225 34.2368 29.7022C34.2017 29.8819 34.1842 30.0284 34.1842 30.1415C34.1842 30.4078 34.4048 30.6141 34.846 30.7605C35.2871 30.907 35.7843 30.9935 36.3375 31.0201V31.729H30.7285V31.0201C30.9106 31.0068 31.1382 30.9702 31.4113 30.9103C31.6844 30.8437 31.9084 30.7572 32.0835 30.6507C32.3636 30.471 32.5807 30.2846 32.7347 30.0916C32.8888 29.8919 33.0393 29.619 33.1864 29.2729C33.9357 27.4957 34.7619 25.4989 35.6653 23.2824C36.5686 21.0659 37.3739 19.0924 38.0811 17.3618H38.9214L43.8897 29.5824C43.9947 29.842 44.1138 30.0517 44.2468 30.2114C44.3799 30.3712 44.5654 30.5276 44.8035 30.6807C44.9646 30.7738 45.1746 30.8537 45.4337 30.9203C45.6928 30.9802 45.9099 31.0135 46.085 31.0201V31.729ZM40.0768 25.9382L37.8185 20.4469L35.6022 25.9382H40.0768Z" fill="url(#paint0_linear_175_11437)"/>
<path d="M52.9019 30.4111H52.8284C52.6743 30.5309 52.4887 30.684 52.2717 30.8704C52.0616 31.0501 51.813 31.2231 51.5259 31.3895C51.2528 31.5559 50.9552 31.699 50.6331 31.8189C50.311 31.9453 49.9608 32.0086 49.5827 32.0086C48.5673 32.0086 47.7691 31.6624 47.1879 30.9702C46.6136 30.278 46.3265 29.3328 46.3265 28.1347C46.3265 27.3093 46.4876 26.5073 46.8097 25.7285C47.1318 24.9497 47.5765 24.2508 48.1437 23.6318C48.6829 23.0394 49.3236 22.5635 50.0659 22.2041C50.8081 21.838 51.5714 21.655 52.3557 21.655C52.8529 21.655 53.3255 21.7182 53.7737 21.8447C54.2288 21.9711 54.586 22.1142 54.8451 22.274L56.7673 21.8047L56.8933 21.9545L55.2967 28.3943C55.2407 28.6006 55.1812 28.8536 55.1182 29.1531C55.0621 29.446 55.0341 29.6623 55.0341 29.8021C55.0341 30.1815 55.1182 30.4377 55.2862 30.5708C55.4543 30.704 55.7379 30.7705 56.137 30.7705C56.2701 30.7705 56.4591 30.7506 56.7042 30.7106C56.9493 30.6707 57.1384 30.6274 57.2714 30.5808L57.1139 31.2198C56.4837 31.4594 56.0145 31.6325 55.7064 31.739C55.3983 31.8455 55.0236 31.8987 54.5825 31.8987C54.0783 31.8987 53.6792 31.759 53.3851 31.4794C53.0909 31.1998 52.9299 30.8437 52.9019 30.4111ZM54.4039 24.1011C54.4039 23.8814 54.3794 23.6718 54.3304 23.4721C54.2814 23.2724 54.1798 23.086 54.0258 22.913C53.8857 22.7466 53.6932 22.6134 53.4481 22.5136C53.203 22.4138 52.8949 22.3638 52.5237 22.3638C52.0126 22.3638 51.5154 22.5236 51.0322 22.8431C50.549 23.1626 50.1149 23.5919 49.7298 24.131C49.3656 24.6369 49.068 25.2493 48.8369 25.9681C48.6059 26.687 48.4903 27.4158 48.4903 28.1547C48.4903 28.5607 48.5148 28.9201 48.5638 29.233C48.6129 29.5458 48.7074 29.832 48.8474 30.0916C48.9805 30.3445 49.1731 30.5409 49.4251 30.6807C49.6772 30.8204 49.9958 30.8903 50.381 30.8903C50.7731 30.8903 51.1828 30.7872 51.6099 30.5808C52.0441 30.3678 52.5307 29.9984 53.0699 29.4726L54.4039 24.1011Z" fill="url(#paint1_linear_175_11437)"/>
<path d="M31 37.5102H31L56.9657 37.5086C56.9816 37.5112 57.0057 37.5158 57.0355 37.5232C57.101 37.5396 57.1826 37.5667 57.259 37.6088C57.3985 37.6855 57.5 37.791 57.5 38.0103V41.9899C57.4998 41.9914 57.4996 41.9931 57.4994 41.995C57.4977 42.0098 57.4942 42.0342 57.4879 42.0647C57.4747 42.128 57.4516 42.2057 57.4137 42.2779C57.3493 42.4006 57.2507 42.5102 57 42.5102H31C30.7493 42.5102 30.6507 42.4006 30.5863 42.2779C30.5484 42.2057 30.5253 42.128 30.5121 42.0647C30.5058 42.0342 30.5023 42.0098 30.5006 41.995C30.5004 41.9931 30.5002 41.9914 30.5 41.9899L30.5009 38.0305C30.5011 38.0289 30.5013 38.0272 30.5015 38.0252C30.5032 38.0104 30.5067 37.986 30.513 37.9554C30.5261 37.8921 30.5492 37.8144 30.587 37.7423C30.6512 37.6196 30.7495 37.5102 31 37.5102ZM30.4991 41.9808L30.4991 41.9811L30.4991 41.9808ZM56.9475 37.5058L56.9468 37.5057L56.9475 37.5058Z" fill="#D9F4FF" stroke="#333333"/>
<path fill-rule="evenodd" clip-rule="evenodd" d="M24 26.0085V19.0086L25 19.0086V26.0085H24Z" fill="#333333"/>
<path fill-rule="evenodd" clip-rule="evenodd" d="M27 19.0086H22V18.0086H27V19.0086Z" fill="#333333"/>
<rect x="0.5" y="30.5086" width="25" height="23" rx="2.5" fill="url(#paint2_linear_175_11437)"/>
<rect x="0.5" y="30.5086" width="25" height="23" rx="2.5" stroke="#333333"/>
<path d="M7 46.9773V44.0086M14 46.9773V39.4461C14 37.6336 12.8877 36.0086 10.4907 36.0086C8.09375 36.0086 7 37.7586 7 39.4461V44.0086M7 44.0086H14M18 36.1798V46.9773" stroke="white" stroke-width="2" stroke-linecap="round" stroke-linejoin="round"/>
<g clip-path="url(#clip0_175_11437)">
<path fill-rule="evenodd" clip-rule="evenodd" d="M81.3439 4.00838C80.0473 4.00838 78.9961 5.05047 78.9961 6.33596V49.6808C78.9961 50.9663 80.0473 52.0084 81.3439 52.0084H112.648C113.945 52.0084 114.996 50.9663 114.996 49.6808V15.5084C114.996 14.8911 114.749 14.299 114.308 13.8625L105.119 4.69011C104.678 4.2536 104.081 4.00838 103.458 4.00838H81.3439Z" fill="white"/>
<path d="M104.354 4.65483C104.211 4.51183 103.995 4.46905 103.809 4.54644C103.622 4.62383 103.5 4.80615 103.5 5.00838V13.1903C103.5 13.8661 103.664 14.4658 104.073 14.8961C104.487 15.3309 105.072 15.5085 105.732 15.5085H114C114.202 15.5085 114.385 15.3867 114.462 15.1999C114.539 15.013 114.497 14.798 114.354 14.655L104.354 4.65483Z" fill="url(#paint3_linear_175_11437)" stroke="#333333" stroke-linecap="round" stroke-linejoin="round"/>
<path fill-rule="evenodd" clip-rule="evenodd" d="M113.604 14.5727L113.602 14.5703L104.415 5.40027L104.413 5.39901C104.361 5.34679 104.311 5.29703 104.269 5.25399L104.253 5.23792C104.205 5.18906 104.167 5.15099 104.133 5.11748C104.062 5.04951 104.032 5.02635 104.019 5.01788C104.008 5.01542 103.971 5.00838 103.891 5.00838H80.3439C79.5914 5.00838 78.9961 5.6109 78.9961 6.33596V49.6808C78.9961 50.4059 79.5914 51.0084 80.3439 51.0084H112.648C113.401 51.0084 113.996 50.4059 113.996 49.6808V15.1177C113.996 15.0298 113.987 14.9911 113.984 14.9807C113.983 14.975 113.982 14.9728 113.976 14.9625C113.965 14.9457 113.94 14.9115 113.875 14.8434C113.825 14.7902 113.772 14.7382 113.701 14.6676C113.672 14.6394 113.64 14.6081 113.604 14.5727ZM105.119 4.69011L114.308 13.8625C114.337 13.8905 114.364 13.9175 114.391 13.9437C114.779 14.3265 114.996 14.5399 114.996 15.1177V49.6808C114.996 50.9663 113.945 52.0084 112.648 52.0084H80.3439C79.0473 52.0084 77.9961 50.9663 77.9961 49.6808V6.33596C77.9961 5.05047 79.0473 4.00838 80.3439 4.00838H103.891C104.445 4.00838 104.636 4.20223 104.981 4.55202C105.024 4.59565 105.07 4.6417 105.119 4.69011Z" fill="#333333"/>
<path d="M94 23.0084H110V24.0084H94V23.0084Z" fill="#333333"/>
<path d="M94 26.0084H110V27.0084H94V26.0084Z" fill="#333333"/>
<path d="M94 29.0084H110V30.0084H94V29.0084Z" fill="#333333"/>
<path d="M94 23.0084H95V29.0084H94V26.0084V23.0084Z" fill="#333333"/>
<path d="M109 23.0084H110V29.0084H109V23.0084Z" fill="#333333"/>
<path d="M104 23.0084H105V29.0084H104V23.0084Z" fill="#333333"/>
<path d="M94 23.0084H95V29.0084H94V26.0084V23.0084Z" fill="#333333"/>
<path d="M99 23.0084H100V29.0084H99V23.0084Z" fill="#333333"/>
<path d="M84 16.0084H100V17.0084H85L84 16.0084Z" fill="#333333"/>
<path d="M84 10.0084H99V12.0084H84V10.0084Z" fill="#333333"/>
<path d="M87 19.0084H103V20.0084H88L87 19.0084Z" fill="#333333"/>
<path fill-rule="evenodd" clip-rule="evenodd" d="M65.3422 16.043C64.8223 15.523 64.846 14.6568 65.3953 14.1082L69.0663 10.4412C69.6155 9.89258 70.4823 9.86932 71.0022 10.3893L87.3564 26.745C87.5196 26.9082 87.8314 27.1134 87.888 27.3405L88.9106 32.2282C89.1638 33.2436 88.1977 34.2087 87.1818 33.9551L82.2921 32.8577C82.065 32.801 81.8597 32.5619 81.6964 32.3987L65.3422 16.043Z" fill="url(#paint4_linear_175_11437)"/>
<path fill-rule="evenodd" clip-rule="evenodd" d="M82.0033 32.3987C82.0033 32.3987 82.3466 32.1568 82.8959 31.6082L86.5669 27.9412C87.1161 27.3926 87.5042 27.0084 87.5042 27.0084C87.6674 27.1717 87.8324 27.1134 87.889 27.3405L88.9117 32.2282C89.1649 33.2436 88.1988 34.2087 87.1829 33.9551L82.2932 32.8577C82.0661 32.801 82.1665 32.5619 82.0033 32.3987Z" fill="white"/>
<path fill-rule="evenodd" clip-rule="evenodd" d="M82.2927 31.6193L66.0763 15.5709C65.8163 15.3109 65.8017 15.0031 66.0763 14.7288L69.7004 11.1197C69.975 10.8454 70.1472 10.8597 70.4072 11.1197L86.7259 27.3404C86.8075 27.4221 86.8995 27.8129 86.9278 27.9264L88.0191 32.3987C88.1457 32.9064 87.6903 33.0995 87.1824 32.9727L82.5003 31.7847C82.3867 31.7564 82.3743 31.7009 82.2927 31.6193ZM65.3417 16.0429C64.8217 15.523 64.8455 14.6567 65.3947 14.1081L69.0657 10.4412C69.615 9.89252 70.4817 9.86926 71.0017 10.3892L87.357 26.745C87.5202 26.9082 87.8319 27.1134 87.8886 27.3404L88.9112 32.2282C89.1644 33.2436 88.1983 34.2087 87.1824 33.955L82.2927 32.8577C82.0656 32.801 81.8603 32.5619 81.697 32.3987L65.3417 16.0429Z" fill="#333333"/>
<path d="M71.0002 16.7152L84.7092 30.4241L85.4167 29.7174L71.7077 16.0084L71.0002 16.7152Z" fill="white"/>
<path fill-rule="evenodd" clip-rule="evenodd" d="M86.8874 27.5201L82.3496 31.983L83.0329 32.6786L87.5718 28.2302L86.8874 27.5201Z" fill="#333333"/>
<path fill-rule="evenodd" clip-rule="evenodd" d="M73.276 13.0171L68.0088 18.2669L68.7053 18.9807L73.9679 13.7221L73.276 13.0171Z" fill="#333333"/>
<path fill-rule="evenodd" clip-rule="evenodd" d="M87.7004 30.693L85.705 32.8368L87.7016 33.5084L88.5041 32.5085L87.7004 30.693Z" fill="#333333"/>
<path d="M87.5692 46.7949C87.5692 52.4357 92.0676 57.0084 97.6166 57.0084C103.166 57.0084 107.664 52.4357 107.664 46.7949C107.664 41.1541 103.166 36.5813 97.6166 36.5813C92.0676 36.5813 87.5692 41.1541 87.5692 46.7949Z" fill="white"/>
<path d="M97.2162 36.0084C101.999 36.0099 107.878 39.5957 107.998 46.3956C108.052 49.5218 107.205 52.3665 104.935 54.235C104.787 54.1084 104.049 53.9573 103.872 53.8631L100.824 52.238C100.424 52.0247 100.175 51.6152 100.175 51.1698V49.949C100.175 49.949 101.07 48.9031 101.411 47.4498C101.694 47.2708 101.884 46.9615 101.884 46.6092V45.2731C101.884 44.9792 101.75 44.7166 101.542 44.5328V42.6014C101.542 42.6014 101.948 39.5957 97.7832 39.5957C93.6185 39.5957 94.0244 42.6014 94.0244 42.6014V44.5328C93.8162 44.7166 93.6828 44.9792 93.6828 45.2731V46.6092C93.6828 47.0583 93.9913 47.4363 94.4099 47.5625C94.6432 48.2712 94.9797 48.9468 95.4246 49.5609C95.5368 49.7158 95.6417 49.8469 95.7334 49.949V51.2007C95.7334 51.6615 95.467 52.0831 95.0453 52.2889L91.6545 53.7157C91.4586 53.8114 90.5685 54.2067 90.4054 54.3412C88.3614 52.2641 87 50.1056 87 46.8935C87 40.4484 92.517 36.007 97.2162 36.0084Z" fill="url(#paint5_linear_175_11437)"/>
<path d="M97.6166 57.5084C91.7838 57.5084 87.0692 52.704 87.0692 46.7949C87.0692 40.8857 91.7838 36.0813 97.6166 36.0813C103.45 36.0813 108.164 40.8857 108.164 46.7949C108.164 52.704 103.45 57.5084 97.6166 57.5084Z" stroke="#333333"/>
<path d="M97.5692 46.7949C97.5692 52.4357 102.068 57.0084 107.617 57.0084C113.166 57.0084 117.664 52.4357 117.664 46.7949C117.664 41.1541 113.166 36.5813 107.617 36.5813C102.068 36.5813 97.5692 41.1541 97.5692 46.7949Z" fill="white"/>
<path d="M107.216 36.0084C111.999 36.0099 117.878 39.5957 117.998 46.3956C118.052 49.5218 117.205 52.3665 114.935 54.235C114.787 54.1084 114.049 53.9573 113.872 53.8631L110.824 52.238C110.424 52.0247 110.175 51.6152 110.175 51.1698V49.949C110.175 49.949 111.07 48.9031 111.411 47.4498C111.694 47.2708 111.884 46.9615 111.884 46.6092V45.2731C111.884 44.9792 111.75 44.7166 111.542 44.5328V42.6014C111.542 42.6014 111.948 39.5957 107.783 39.5957C103.618 39.5957 104.024 42.6014 104.024 42.6014V44.5328C103.816 44.7166 103.683 44.9792 103.683 45.2731V46.6092C103.683 47.0583 103.991 47.4363 104.41 47.5625C104.643 48.2712 104.98 48.9468 105.425 49.5609C105.537 49.7158 105.642 49.8469 105.733 49.949V51.2007C105.733 51.6615 105.467 52.0831 105.045 52.2889L101.654 53.7157C101.459 53.8114 100.568 54.2067 100.405 54.3412C98.3614 52.2641 97 50.1056 97 46.8935C97 40.4484 102.517 36.007 107.216 36.0084Z" fill="#9ADAF3"/>
<path d="M107.617 57.5084C101.784 57.5084 97.0692 52.704 97.0692 46.7949C97.0692 40.8857 101.784 36.0813 107.617 36.0813C113.45 36.0813 118.164 40.8857 118.164 46.7949C118.164 52.704 113.45 57.5084 107.617 57.5084Z" stroke="#333333"/>
<path d="M107.569 46.7949C107.569 52.4357 112.068 57.0084 117.617 57.0084C123.166 57.0084 127.664 52.4357 127.664 46.7949C127.664 41.1541 123.166 36.5813 117.617 36.5813C112.068 36.5813 107.569 41.1541 107.569 46.7949Z" fill="white"/>
<path d="M117.216 36.0084C121.999 36.0099 127.878 39.5957 127.998 46.3956C128.052 49.5218 127.205 52.3665 124.935 54.235C124.787 54.1084 124.049 53.9573 123.872 53.8631L120.824 52.238C120.424 52.0247 120.175 51.6152 120.175 51.1698V49.949C120.175 49.949 121.07 48.9031 121.411 47.4498C121.694 47.2708 121.884 46.9615 121.884 46.6092V45.2731C121.884 44.9792 121.75 44.7166 121.542 44.5328V42.6014C121.542 42.6014 121.948 39.5957 117.783 39.5957C113.618 39.5957 114.024 42.6014 114.024 42.6014V44.5328C113.816 44.7166 113.683 44.9792 113.683 45.2731V46.6092C113.683 47.0583 113.991 47.4363 114.41 47.5625C114.643 48.2712 114.98 48.9468 115.425 49.5609C115.537 49.7158 115.642 49.8469 115.733 49.949V51.2007C115.733 51.6615 115.467 52.0831 115.045 52.2889L111.654 53.7157C111.459 53.8114 110.568 54.2067 110.405 54.3412C108.361 52.2641 107 50.1056 107 46.8935C107 40.4484 112.517 36.007 117.216 36.0084Z" fill="url(#paint6_linear_175_11437)"/>
<path d="M117.617 57.5084C111.784 57.5084 107.069 52.704 107.069 46.7949C107.069 40.8857 111.784 36.0813 117.617 36.0813C123.45 36.0813 128.164 40.8857 128.164 46.7949C128.164 52.704 123.45 57.5084 117.617 57.5084Z" stroke="#333333"/>
</g>
<path fill-rule="evenodd" clip-rule="evenodd" d="M186 6.00856H167C165.895 6.00856 165 6.90399 165 8.00856V27.0086C165 28.1131 165.895 29.0086 167 29.0086H186C187.105 29.0086 188 28.1131 188 27.0086V8.00856C188 6.90399 187.105 6.00856 186 6.00856ZM167 5.00856C165.343 5.00856 164 6.35171 164 8.00856V27.0086C164 28.6654 165.343 30.0086 167 30.0086H186C187.657 30.0086 189 28.6654 189 27.0086V8.00856C189 6.35171 187.657 5.00856 186 5.00856H167Z" fill="#333333"/>
<path fill-rule="evenodd" clip-rule="evenodd" d="M171 11.0086C171 10.4563 171.448 10.0086 172 10.0086H182C182.552 10.0086 183 10.4563 183 11.0086C183 11.5608 182.552 12.0086 182 12.0086H172C171.448 12.0086 171 11.5608 171 11.0086Z" fill="#FF6F3D"/>
<path d="M174.247 42.2528L181.168 46.0015C181.514 46.189 181.518 46.6844 181.175 46.8771L174.295 50.7411C173.962 50.9277 173.552 50.6889 173.55 50.3078L173.509 42.6951C173.507 42.315 173.913 42.0718 174.247 42.2528Z" fill="url(#paint7_linear_175_11437)" stroke="#333333" stroke-linecap="round" stroke-linejoin="round"/>
<path fill-rule="evenodd" clip-rule="evenodd" d="M186 35.0086H167C165.895 35.0086 165 35.904 165 37.0086V56.0086C165 57.1131 165.895 58.0086 167 58.0086H186C187.105 58.0086 188 57.1131 188 56.0086V37.0086C188 35.904 187.105 35.0086 186 35.0086ZM167 34.0086C165.343 34.0086 164 35.3517 164 37.0086V56.0086C164 57.6654 165.343 59.0086 167 59.0086H186C187.657 59.0086 189 57.6654 189 56.0086V37.0086C189 35.3517 187.657 34.0086 186 34.0086H167Z" fill="#333333"/>
<rect x="139.5" y="38.5086" width="16" height="16" rx="0.5" stroke="#333333"/>
<rect x="139.5" y="38.5086" width="16" height="4" rx="0.5" fill="#D9F4FF" stroke="#333333"/>
<rect x="135.5" y="34.5086" width="24" height="24" rx="2.5" stroke="#333333"/>
<path d="M170.437 23.0987C170.44 23.0915 170.444 23.0843 170.447 23.0769C170.52 22.9054 170.832 22.4978 171.42 22.5088C172.064 22.5208 172.389 22.8486 172.458 22.9475L174.199 26.5086H168.796L169.444 25.1621L170.437 23.0987Z" stroke="#333333" stroke-linecap="round" stroke-linejoin="round"/>
<path d="M176.779 19.3447C176.783 19.3358 176.786 19.3268 176.789 19.3177C176.864 19.1084 177.053 18.7651 177.36 18.4841C177.659 18.211 178.054 18.0079 178.568 18.0193C179.681 18.044 180.285 18.7513 180.43 19.0402L180.43 19.0414L184.189 26.5086H173.754L176.779 19.3447Z" stroke="#333333" stroke-linecap="round" stroke-linejoin="round"/>
<circle cx="170" cy="18.0086" r="1.5" fill="url(#paint8_linear_175_11437)" stroke="#333333"/>
<rect x="135.5" y="5.50856" width="24" height="24" rx="2.5" stroke="#333333"/>
<path fill-rule="evenodd" clip-rule="evenodd" d="M147.396 15.5086C147.396 15.2324 147.62 15.0086 147.896 15.0086H155.5C155.776 15.0086 156 15.2324 156 15.5086C156 15.7847 155.776 16.0086 155.5 16.0086H147.896C147.62 16.0086 147.396 15.7847 147.396 15.5086ZM139 18.5272C139 18.251 139.224 18.0272 139.5 18.0272H155.5C155.776 18.0272 156 18.251 156 18.5272C156 18.8033 155.776 19.0272 155.5 19.0272H139.5C139.224 19.0272 139 18.8033 139 18.5272ZM139 21.6017C139 21.3256 139.224 21.1017 139.5 21.1017H147.927C148.203 21.1017 148.427 21.3256 148.427 21.6017C148.427 21.8779 148.203 22.1017 147.927 22.1017H139.5C139.224 22.1017 139 21.8779 139 21.6017ZM139 24.5086C139 24.2324 139.224 24.0086 139.5 24.0086H146.219C146.495 24.0086 146.719 24.2324 146.719 24.5086C146.719 24.7847 146.495 25.0086 146.219 25.0086H139.5C139.224 25.0086 139 24.7847 139 24.5086ZM148.281 24.5086C148.281 24.2324 148.505 24.0086 148.781 24.0086H155.5C155.776 24.0086 156 24.2324 156 24.5086C156 24.7847 155.776 25.0086 155.5 25.0086H148.781C148.505 25.0086 148.281 24.7847 148.281 24.5086Z" fill="#333333"/>
<path fill-rule="evenodd" clip-rule="evenodd" d="M139.5 15.0086C139.224 15.0086 139 15.2324 139 15.5086C139 15.7847 139.224 16.0086 139.5 16.0086H145.5C145.776 16.0086 146 15.7847 146 15.5086C146 15.2324 145.776 15.0086 145.5 15.0086H139.5ZM150.5 21.0086C150.224 21.0086 150 21.2324 150 21.5086C150 21.7847 150.224 22.0086 150.5 22.0086H155.5C155.776 22.0086 156 21.7847 156 21.5086C156 21.2324 155.776 21.0086 155.5 21.0086H150.5Z" fill="#FF6F3D"/>
<rect x="140" y="46.0086" width="15" height="1" fill="#333333"/>
<rect x="140" y="50.0086" width="15" height="1" fill="#333333"/>
<rect x="151" y="42.0086" width="13" height="1" transform="rotate(90 151 42.0086)" fill="#333333"/>
<rect x="146" y="42.0086" width="13" height="1" transform="rotate(90 146 42.0086)" fill="#333333"/>
<path fill-rule="evenodd" clip-rule="evenodd" d="M139 11.0086C139 10.4563 139.448 10.0086 140 10.0086H152C152.552 10.0086 153 10.4563 153 11.0086C153 11.5608 152.552 12.0086 152 12.0086H140C139.448 12.0086 139 11.5608 139 11.0086Z" fill="#333333"/>
<defs>
<linearGradient id="paint0_linear_175_11437" x1="30.7286" y1="16.7896" x2="42.8721" y2="39.6557" gradientUnits="userSpaceOnUse">
<stop stop-color="#FF8E3D"/>
<stop offset="1" stop-color="#FF6F3D"/>
</linearGradient>
<linearGradient id="paint1_linear_175_11437" x1="30.7286" y1="16.7896" x2="42.8721" y2="39.6557" gradientUnits="userSpaceOnUse">
<stop stop-color="#FF8E3D"/>
<stop offset="1" stop-color="#FF6F3D"/>
</linearGradient>
<linearGradient id="paint2_linear_175_11437" x1="5.00581e-05" y1="29.0711" x2="23.8504" y2="55.9182" gradientUnits="userSpaceOnUse">
<stop stop-color="#FF8E3D"/>
<stop offset="1" stop-color="#FF6F3D"/>
</linearGradient>
<linearGradient id="paint3_linear_175_11437" x1="104" y1="4.61775" x2="114" y2="15.0084" gradientUnits="userSpaceOnUse">
<stop stop-color="#FFC671"/>
<stop offset="0.59375" stop-color="#FF7541"/>
<stop offset="1" stop-color="#FF6F3D"/>
</linearGradient>
<linearGradient id="paint4_linear_175_11437" x1="64.1769" y1="15.3252" x2="77.5689" y2="7.40146" gradientUnits="userSpaceOnUse">
<stop stop-color="#FF8E3D"/>
<stop offset="1" stop-color="#FF6F3D"/>
</linearGradient>
<linearGradient id="paint5_linear_175_11437" x1="97.5" y1="36.0084" x2="97.5" y2="54.3412" gradientUnits="userSpaceOnUse">
<stop stop-color="#FF8E3D"/>
<stop offset="1" stop-color="#FF6F3D"/>
</linearGradient>
<linearGradient id="paint6_linear_175_11437" x1="117.5" y1="36.0084" x2="117.5" y2="54.3412" gradientUnits="userSpaceOnUse">
<stop stop-color="#FF8E3D"/>
<stop offset="1" stop-color="#FF6F3D"/>
</linearGradient>
<linearGradient id="paint7_linear_175_11437" x1="173" y1="40.5789" x2="183.99" y2="50.9603" gradientUnits="userSpaceOnUse">
<stop stop-color="#FF8E3D"/>
<stop offset="1" stop-color="#FF6F3D"/>
</linearGradient>
<linearGradient id="paint8_linear_175_11437" x1="168" y1="15.8523" x2="172" y2="20.0086" gradientUnits="userSpaceOnUse">
<stop stop-color="#FF8E3D"/>
<stop offset="1" stop-color="#FF6F3D"/>
</linearGradient>
<clipPath id="clip0_175_11437">
<rect width="64" height="64" fill="white" transform="translate(65 0.00856018)"/>
</clipPath>
</defs>
</svg>
