<svg width="64" height="62" viewBox="0 0 64 62" fill="none" xmlns="http://www.w3.org/2000/svg">
<path fill-rule="evenodd" clip-rule="evenodd" d="M4.50037 19.5007C4.50037 19.2242 4.72456 19 5.00111 19H52.9996C53.2762 19 53.5004 19.2242 53.5004 19.5007C53.5004 19.7773 53.2762 20.0015 52.9996 20.0015H5.00111C4.72456 20.0015 4.50037 19.7773 4.50037 19.5007Z" fill="#333333"/>
<path fill-rule="evenodd" clip-rule="evenodd" d="M8.00037 24.5C8.00037 24.2239 8.22422 24 8.50037 24H14.4272C14.7034 24 14.9272 24.2239 14.9272 24.5C14.9272 24.7761 14.7034 25 14.4272 25H8.50037C8.22422 25 8.00037 24.7761 8.00037 24.5Z" fill="#333333"/>
<path fill-rule="evenodd" clip-rule="evenodd" d="M8.00037 40.5C8.00037 40.2239 8.22422 40 8.50037 40H17.4272C17.7034 40 17.9272 40.2239 17.9272 40.5C17.9272 40.7761 17.7034 41 17.4272 41H8.50037C8.22422 41 8.00037 40.7761 8.00037 40.5Z" fill="#333333"/>
<path fill-rule="evenodd" clip-rule="evenodd" d="M20.0004 40.5C20.0004 40.2239 20.2242 40 20.5004 40H25.0004C25.2765 40 25.5004 40.2239 25.5004 40.5C25.5004 40.7761 25.2765 41 25.0004 41H20.5004C20.2242 41 20.0004 40.7761 20.0004 40.5Z" fill="#333333"/>
<path fill-rule="evenodd" clip-rule="evenodd" d="M8.00037 28.5C8.00037 28.2239 8.22422 28 8.50037 28H22.4272C22.7034 28 22.9272 28.2239 22.9272 28.5C22.9272 28.7761 22.7034 29 22.4272 29H8.50037C8.22422 29 8.00037 28.7761 8.00037 28.5Z" fill="#333333"/>
<path fill-rule="evenodd" clip-rule="evenodd" d="M17.0004 24.5C17.0004 24.2239 17.2242 24 17.5004 24H32.4272C32.7034 24 32.9272 24.2239 32.9272 24.5C32.9272 24.7761 32.7034 25 32.4272 25H17.5004C17.2242 25 17.0004 24.7761 17.0004 24.5Z" fill="#333333"/>
<path fill-rule="evenodd" clip-rule="evenodd" d="M8.00037 36.5C8.00037 36.2239 8.22422 36 8.50037 36H25.0004C25.2765 36 25.5004 36.2239 25.5004 36.5C25.5004 36.7761 25.2765 37 25.0004 37H8.50037C8.22422 37 8.00037 36.7761 8.00037 36.5Z" fill="#333333"/>
<path fill-rule="evenodd" clip-rule="evenodd" d="M16.0004 32.5C16.0004 32.2239 16.2242 32 16.5004 32H25.4272C25.7034 32 25.9272 32.2239 25.9272 32.5C25.9272 32.7761 25.7034 33 25.4272 33H16.5004C16.2242 33 16.0004 32.7761 16.0004 32.5Z" fill="#333333"/>
<path fill-rule="evenodd" clip-rule="evenodd" d="M8.00037 32.5C8.00037 32.2239 8.22422 32 8.50037 32H13.4272C13.7034 32 13.9272 32.2239 13.9272 32.5C13.9272 32.7761 13.7034 33 13.4272 33H8.50037C8.22422 33 8.00037 32.7761 8.00037 32.5Z" fill="#333333"/>
<path fill-rule="evenodd" clip-rule="evenodd" d="M51.0004 16C51.5527 16 52.0004 15.5523 52.0004 15C52.0004 14.4477 51.5527 14 51.0004 14C50.4481 14 50.0004 14.4477 50.0004 15C50.0004 15.5523 50.4481 16 51.0004 16ZM51.0004 17C52.1049 17 53.0004 16.1046 53.0004 15C53.0004 13.8954 52.1049 13 51.0004 13C49.8958 13 49.0004 13.8954 49.0004 15C49.0004 16.1046 49.8958 17 51.0004 17Z" fill="#333333"/>
<path fill-rule="evenodd" clip-rule="evenodd" d="M4.00037 11H54.0004C54.5527 11 55.0004 11.4477 55.0004 12V23.0359H56.0004V12C56.0004 10.8954 55.1049 10 54.0004 10H4.00037C2.8958 10 2.00037 10.8954 2.00037 12V45C2.00037 46.1046 2.8958 47 4.00037 47H24.0597V46H4.00037C3.44808 46 3.00037 45.5523 3.00037 45V12C3.00037 11.4477 3.44808 11 4.00037 11Z" fill="#333333"/>
<circle cx="45.0004" cy="43" r="17.5" fill="#FF6F3D" stroke="#333333"/>
<path d="M57.8325 45.3357C57.7671 45.3203 57.6738 45.2939 57.6097 45.2818C57.3661 45.2473 57.1209 45.2271 56.8751 45.2212C56.4107 45.1901 55.9504 45.1128 55.5007 44.9904C55.3619 44.9103 55.2475 44.7925 55.1703 44.6499L54.8609 44.5577C55.1916 42.0839 54.6237 39.5718 53.265 37.4982C53.3442 37.4246 53.4941 37.2887 53.5364 37.2488C53.5259 37.0872 53.5775 36.9278 53.6802 36.8046C54.0332 36.4942 54.4149 36.2197 54.8199 35.9849C55.0391 35.8709 55.2517 35.7439 55.4566 35.6047C55.506 35.5671 55.5735 35.5077 55.6253 35.4653C55.7163 35.4059 55.7941 35.3276 55.8537 35.2354C55.9132 35.1432 55.9532 35.0393 55.9709 34.9303C55.9887 34.8213 55.9839 34.7097 55.9568 34.6027C55.9297 34.4957 55.881 34.3958 55.8137 34.3093C55.7465 34.2229 55.6623 34.1519 55.5665 34.1009C55.4707 34.05 55.3655 34.0202 55.2577 34.0135C55.15 34.0068 55.0421 34.0234 54.941 34.0622C54.8399 34.101 54.7479 34.1611 54.671 34.2386C54.6187 34.2808 54.5475 34.3362 54.5011 34.3775C54.3221 34.55 54.153 34.7331 53.9947 34.9257C53.6815 35.2782 53.3355 35.5986 52.9616 35.8825C52.8144 35.9438 52.6534 35.9617 52.4968 35.9342L52.2053 36.1474C50.5273 34.3448 48.2673 33.2268 45.8449 33.0013C45.8378 32.8971 45.8291 32.7082 45.8264 32.6512C45.6963 32.5588 45.6066 32.4181 45.5764 32.259C45.5602 31.7829 45.5892 31.3064 45.6632 30.8361C45.712 30.5898 45.7468 30.3408 45.7676 30.0904C45.7699 30.0272 45.7663 29.9354 45.7663 29.8672C45.777 29.7575 45.7652 29.6468 45.7316 29.5421C45.698 29.4374 45.6433 29.3411 45.571 29.2594C45.4988 29.1777 45.4106 29.1124 45.3122 29.0677C45.2138 29.023 45.1073 28.9999 44.9996 29C44.892 29.0001 44.7855 29.0232 44.6871 29.068C44.5887 29.1128 44.5006 29.1781 44.4285 29.2599C44.3563 29.3417 44.3017 29.4381 44.2681 29.5428C44.2346 29.6475 44.2229 29.7583 44.2338 29.8679C44.2338 29.8754 44.2354 29.8824 44.2356 29.8899C44.2348 29.9549 44.2318 30.0337 44.2338 30.0906C44.2547 30.3412 44.2896 30.5903 44.3383 30.8368C44.4118 31.3071 44.4404 31.7835 44.4237 32.2594C44.3802 32.4161 44.2939 32.5568 44.1749 32.6649L44.1568 32.9969C43.6906 33.0363 43.2277 33.1091 42.7715 33.2149C40.8549 33.6583 39.1116 34.6779 37.7652 36.1429C37.672 36.0771 37.5796 36.0101 37.4881 35.9418C37.3365 35.9882 37.1732 35.972 37.0332 35.8967C36.6593 35.6133 36.3133 35.2933 36.0001 34.9412C35.8424 34.7487 35.6741 34.5656 35.4959 34.3929C35.4492 34.352 35.3779 34.2962 35.3256 34.2535C35.1737 34.128 34.9865 34.0557 34.7915 34.0472C34.6756 34.041 34.5599 34.0628 34.4538 34.1109C34.3477 34.159 34.2542 34.2321 34.1809 34.3241C34.0567 34.5032 34.0068 34.7254 34.0421 34.9421C34.0774 35.1588 34.195 35.3524 34.3693 35.4805L34.3811 35.4891C34.4312 35.5311 34.493 35.5848 34.5394 35.6195C34.7439 35.7588 34.956 35.8859 35.1747 36.0002C35.5797 36.2349 35.9613 36.5095 36.3142 36.8202C36.4058 36.9533 36.4592 37.11 36.4683 37.2726L36.7136 37.4971C35.3587 39.5781 34.802 42.098 35.1502 44.5733L34.8294 44.6688C34.7457 44.8057 34.6332 44.9217 34.5001 45.0084C34.0507 45.1312 33.5907 45.2088 33.1266 45.2402C32.8806 45.2459 32.6351 45.2661 32.3914 45.3008C32.3326 45.3119 32.2509 45.3331 32.1868 45.3495L32.1801 45.3509L32.1692 45.3543C32.0631 45.3686 31.961 45.4054 31.8696 45.4624C31.7781 45.5193 31.6993 45.5952 31.6382 45.6852C31.577 45.7751 31.5349 45.8771 31.5145 45.9847C31.4941 46.0923 31.4958 46.203 31.5196 46.3099C31.5434 46.4167 31.5887 46.5173 31.6527 46.6052C31.7166 46.6931 31.7978 46.7663 31.891 46.8202C31.9842 46.8742 32.0873 46.9076 32.1939 46.9184C32.3004 46.9291 32.4079 46.917 32.5096 46.8828L32.5211 46.8809C32.5261 46.8798 32.5305 46.8772 32.5356 46.8763C32.5988 46.8614 32.6783 46.846 32.7339 46.8306C32.9678 46.7541 33.1973 46.6641 33.4212 46.5609C33.8527 46.3827 34.3001 46.248 34.7571 46.1585C34.9156 46.1684 35.0682 46.2236 35.1976 46.3178L35.5317 46.2592C36.2816 48.6311 37.8535 50.64 39.9508 51.907L39.8112 52.2489C39.8761 52.3867 39.8999 52.541 39.8796 52.6926C39.6886 53.1395 39.4564 53.5666 39.1861 53.9683C39.0374 54.169 38.9003 54.3782 38.7752 54.595C38.7447 54.6541 38.706 54.7446 38.6768 54.8065C38.6215 54.9008 38.586 55.0058 38.5727 55.1149C38.5595 55.224 38.5686 55.3348 38.5997 55.44C38.6308 55.5453 38.683 55.6427 38.753 55.7261C38.8231 55.8094 38.9094 55.8768 39.0065 55.924C39.1035 55.9711 39.2091 55.9969 39.3165 55.9997C39.4238 56.0026 39.5306 55.9824 39.6299 55.9404C39.7291 55.8985 39.8188 55.8357 39.8929 55.7562C39.9671 55.6766 40.0241 55.5821 40.0605 55.4786L40.0617 55.4771V55.4753C40.0908 55.4139 40.132 55.3335 40.1565 55.276C40.2438 55.041 40.3176 54.8009 40.3776 54.5571C40.51 54.0613 40.7097 53.5869 40.971 53.1479C41.0623 53.0602 41.1774 53.0026 41.3012 52.9829L41.475 52.6614C43.7497 53.5568 46.2668 53.5633 48.5459 52.6798C48.5946 52.7686 48.6854 52.9385 48.7093 52.9814C48.8659 53.007 49.0063 53.0944 49.1006 53.2249C49.3175 53.6459 49.4938 54.0876 49.6267 54.5437C49.6874 54.7875 49.7616 55.0276 49.8492 55.2626C49.874 55.3206 49.9145 55.402 49.9439 55.4637C49.9802 55.5673 50.0372 55.6619 50.1112 55.7415C50.1853 55.8211 50.2749 55.884 50.3741 55.9261C50.4734 55.9681 50.5801 55.9885 50.6875 55.9858C50.7949 55.9831 50.9005 55.9574 50.9977 55.9104C51.0948 55.8634 51.1812 55.7961 51.2514 55.7129C51.3216 55.6297 51.374 55.5323 51.4052 55.4271C51.4364 55.3219 51.4458 55.2111 51.4327 55.102C51.4196 54.9928 51.3844 54.8877 51.3292 54.7933C51.3 54.7315 51.2597 54.6409 51.2293 54.5822C51.1043 54.3659 50.9671 54.1571 50.8185 53.957C50.553 53.5655 50.3254 53.1485 50.1391 52.7117C50.0986 52.5555 50.1198 52.3893 50.1979 52.2489C50.1489 52.1463 50.1062 52.0406 50.0703 51.9324C52.1743 50.6552 53.7463 48.6307 54.4872 46.2442C54.5864 46.2604 54.759 46.2912 54.8151 46.3029C54.9317 46.1934 55.0855 46.1349 55.2436 46.1399C55.7007 46.2293 56.1483 46.3641 56.5799 46.5423C56.8038 46.6464 57.0334 46.7371 57.2676 46.814C57.323 46.8289 57.402 46.843 57.4655 46.8574C57.4708 46.8588 57.4755 46.8611 57.4806 46.8626L57.4915 46.8642C57.5931 46.8984 57.7006 46.9104 57.8071 46.8996C57.9136 46.8888 58.0167 46.8554 58.1098 46.8015C58.203 46.7476 58.2841 46.6744 58.348 46.5866C58.4119 46.4987 58.4572 46.3982 58.4811 46.2915C58.5049 46.1847 58.5067 46.074 58.4863 45.9665C58.466 45.8589 58.4239 45.7569 58.3629 45.667C58.3019 45.577 58.2231 45.5011 58.1318 45.4441C58.0405 45.387 57.9385 45.3501 57.8325 45.3357ZM50.552 37.3462L47.2772 39.7228L47.2658 39.7172C47.1671 39.7909 47.0508 39.8358 46.9291 39.8472C46.8075 39.8586 46.6851 39.8361 46.575 39.782C46.4649 39.7279 46.3711 39.6442 46.3037 39.5399C46.2363 39.4357 46.1978 39.3146 46.1922 39.1897L46.1886 39.1879L45.9611 35.0798C47.6926 35.2999 49.3057 36.0962 50.552 37.3462ZM44.383 41.8492H45.6154L46.3816 42.8298L46.1069 44.0527L45.0001 44.598L43.8901 44.0516L43.6148 42.8281L44.383 41.8492ZM43.2236 35.2237C43.4935 35.1615 43.7664 35.1135 44.0411 35.0798L43.8133 39.1942L43.7966 39.2024C43.7914 39.3273 43.7532 39.4485 43.6861 39.5529C43.6191 39.6574 43.5255 39.7414 43.4155 39.7957C43.3055 39.8501 43.1832 39.873 43.0615 39.8618C42.9399 39.8507 42.8234 39.8059 42.7246 39.7324L42.7183 39.7361L39.4223 37.3438C40.4716 36.2882 41.7882 35.5538 43.2236 35.2237ZM38.2271 38.8814L41.2362 41.6366L41.233 41.6533C41.3252 41.7354 41.3939 41.8417 41.4318 41.9607C41.4697 42.0797 41.4753 42.207 41.448 42.329C41.4208 42.451 41.3617 42.5631 41.2771 42.6534C41.1925 42.7438 41.0855 42.8089 40.9675 42.8418L40.9644 42.8552L37.1072 43.9945C36.9151 42.2102 37.3091 40.4109 38.2271 38.8814ZM42.256 46.2005L40.7235 49.9915C39.2526 49.0276 38.1334 47.5937 37.5397 45.9122L41.4946 45.2246L41.5013 45.2337C41.545 45.2251 41.5894 45.2211 41.6339 45.2216C41.7448 45.2233 41.8536 45.2529 41.9506 45.3078C42.0477 45.3628 42.1301 45.4413 42.1904 45.5366C42.2508 45.6319 42.2873 45.7409 42.2968 45.854C42.3062 45.9671 42.2883 46.0809 42.2446 46.1853L42.256 46.2005ZM46.7797 51.0756C45.3458 51.4122 43.8486 51.3335 42.4559 50.8483L44.401 47.2478H44.4042C44.4621 47.1378 44.5479 47.0459 44.6526 46.9818C44.7574 46.9176 44.8771 46.8837 44.9992 46.8836C45.1212 46.8835 45.241 46.9172 45.3458 46.9811C45.4507 47.045 45.5367 47.1368 45.5947 47.2467H45.6092L47.5592 50.8531C47.3061 50.9396 47.0463 51.0139 46.7797 51.076L46.7797 51.0756ZM49.2927 50.0067L47.7444 46.1771L47.7491 46.1702C47.6804 46.0064 47.6761 45.8218 47.7371 45.6548C47.7981 45.4878 47.9196 45.3513 48.0764 45.2738C48.1573 45.2333 48.2453 45.2099 48.3351 45.205C48.3872 45.2026 48.4393 45.2065 48.4904 45.2168L48.4971 45.2082L52.4872 45.8985C51.8982 47.5935 50.7741 49.0389 49.2927 50.0067ZM52.9062 43.9812L49.0296 42.8381L49.026 42.8214C48.9083 42.7881 48.8015 42.7228 48.7172 42.6325C48.6328 42.5421 48.5739 42.43 48.5467 42.3082C48.5195 42.1863 48.5251 42.0591 48.5628 41.9402C48.6005 41.8213 48.6689 41.7151 48.7609 41.6328L48.7594 41.6248L51.7519 38.8832C52.6682 40.4088 53.0736 42.1985 52.9062 43.9812Z" fill="white"/>
</svg>
