<svg width="64" height="64" viewBox="0 0 64 64" fill="none" xmlns="http://www.w3.org/2000/svg">
<path fill-rule="evenodd" clip-rule="evenodd" d="M53 6H3C2.44772 6 2 6.44772 2 7V40C2 40.5523 2.44771 41 3 41H53C53.5523 41 54 40.5523 54 40V7C54 6.44771 53.5523 6 53 6ZM3 5C1.89543 5 1 5.89543 1 7V40C1 41.1046 1.89543 42 3 42H53C54.1046 42 55 41.1046 55 40V7C55 5.89543 54.1046 5 53 5H3Z" fill="#333333"/>
<path fill-rule="evenodd" clip-rule="evenodd" d="M50.8952 9H6.34783C5.59526 9 5 9.60253 5 10.3276V36.6724C5 37.3975 5.59526 38 6.34783 38H49.6522C50.4047 38 51 37.3975 51 36.6724C51 28.4469 50.7792 17.2248 50.8952 9ZM51.9326 9.55766C51.9326 17.7039 52 28.524 52 36.6724C52 37.9579 50.9488 39 49.6522 39H6.34783C5.05116 39 4 37.9579 4 36.6724V10.3276C4 9.0421 5.05116 8 6.34783 8H50.4569C51.489 8 51.9326 8.76405 51.9326 9.55766Z" fill="#333333"/>
<path fill-rule="evenodd" clip-rule="evenodd" d="M26.8997 32.7788L19.4744 29.0644C18.8419 28.7401 18.8419 28.239 19.4744 27.9442L22.0595 26.6471L26.8722 29.0644C27.5048 29.3887 28.5223 29.3887 29.1273 29.0644L33.9401 26.6471L36.5252 27.9442C37.1577 28.2685 37.1577 28.7696 36.5252 29.0644L29.0998 32.7788C28.5223 33.0736 27.5048 33.0736 26.8997 32.7788Z" fill="url(#paint0_linear_2168_10178)"/>
<path fill-rule="evenodd" clip-rule="evenodd" d="M26.8757 27.9916L19.473 24.2729C18.8423 23.9483 18.8423 23.4465 19.473 23.1514L21.9954 21.8823L26.8757 24.2729C27.5063 24.5976 28.5207 24.5976 29.1239 24.2729L34.0042 21.8823L36.5266 23.1514C37.1572 23.4761 37.1572 23.9778 36.5266 24.2729L29.1239 27.9916C28.4933 28.3163 27.4789 28.3163 26.8757 27.9916Z" fill="url(#paint1_linear_2168_10178)"/>
<path fill-rule="evenodd" clip-rule="evenodd" d="M26.8757 23.2626L19.473 19.772C18.8423 19.4672 18.8423 18.9963 19.473 18.7192L26.8757 15.2286C27.5063 14.9238 28.5207 14.9238 29.1239 15.2286L36.5267 18.7192C37.1573 19.024 37.1573 19.4949 36.5267 19.772L29.1239 23.2626C28.4933 23.5397 27.4789 23.5397 26.8757 23.2626Z" fill="url(#paint2_linear_2168_10178)"/>
<path fill-rule="evenodd" clip-rule="evenodd" d="M42 49H14C13.4477 49 13 49.4477 13 50C13 50.5523 13.4477 51 14 51H42C42.5523 51 43 50.5523 43 50C43 49.4477 42.5523 49 42 49ZM14 48C12.8954 48 12 48.8954 12 50C12 51.1046 12.8954 52 14 52H42C43.1046 52 44 51.1046 44 50C44 48.8954 43.1046 48 42 48H14Z" fill="#333333"/>
<path d="M19 44H20V48H19V44Z" fill="#333333"/>
<path d="M36 44H37V48H36V44Z" fill="#333333"/>
<path d="M42.0004 24.8379C42.0004 23.7333 42.8958 22.8379 44.0004 22.8379H59.0004C60.1049 22.8379 61.0004 23.7333 61.0004 24.8379V54.8379C61.0004 55.9425 60.1049 56.8379 59.0004 56.8379H44.0004C42.8958 56.8379 42.0004 55.9425 42.0004 54.8379V24.8379Z" fill="white"/>
<path fill-rule="evenodd" clip-rule="evenodd" d="M59.0004 23.8379H44.0004C43.4481 23.8379 43.0004 24.2856 43.0004 24.8379V54.8379C43.0004 55.3902 43.4481 55.8379 44.0004 55.8379H59.0004C59.5527 55.8379 60.0004 55.3902 60.0004 54.8379V24.8379C60.0004 24.2856 59.5527 23.8379 59.0004 23.8379ZM44.0004 22.8379C42.8958 22.8379 42.0004 23.7333 42.0004 24.8379V54.8379C42.0004 55.9425 42.8958 56.8379 44.0004 56.8379H59.0004C60.1049 56.8379 61.0004 55.9425 61.0004 54.8379V24.8379C61.0004 23.7333 60.1049 22.8379 59.0004 22.8379H44.0004Z" fill="#333333"/>
<path fill-rule="evenodd" clip-rule="evenodd" d="M50.828 43.7027L46.2903 41.4328C45.9037 41.2346 45.9037 40.9284 46.2903 40.7482L47.8701 39.9556L50.8112 41.4328C51.1977 41.631 51.8195 41.631 52.1893 41.4328L55.1304 39.9556L56.7101 40.7482C57.0967 40.9464 57.0967 41.2526 56.7101 41.4328L52.1725 43.7027C51.8195 43.8828 51.1977 43.8828 50.828 43.7027Z" fill="url(#paint3_linear_2168_10178)"/>
<path fill-rule="evenodd" clip-rule="evenodd" d="M50.8132 40.7771L46.2894 38.5046C45.904 38.3062 45.904 37.9996 46.2894 37.8192L47.8309 37.0437L50.8132 38.5046C51.1986 38.703 51.8186 38.703 52.1872 38.5046L55.1696 37.0437L56.711 37.8192C57.0964 38.0176 57.0964 38.3243 56.711 38.5046L52.1872 40.7771C51.8018 40.9755 51.1819 40.9755 50.8132 40.7771Z" fill="url(#paint4_linear_2168_10178)"/>
<path fill-rule="evenodd" clip-rule="evenodd" d="M50.8133 37.8873L46.2894 35.7541C45.904 35.5678 45.904 35.28 46.2894 35.1107L50.8133 32.9776C51.1986 32.7913 51.8186 32.7913 52.1872 32.9776L56.711 35.1107C57.0964 35.297 57.0964 35.5848 56.711 35.7541L52.1872 37.8873C51.8018 38.0566 51.1819 38.0566 50.8133 37.8873Z" fill="url(#paint5_linear_2168_10178)"/>
<path d="M48.0004 53.5C48.0004 53.2239 48.2242 53 48.5004 53H54.5004C54.7765 53 55.0004 53.2239 55.0004 53.5V53.5C55.0004 53.7761 54.7765 54 54.5004 54H48.5004C48.2242 54 48.0004 53.7761 48.0004 53.5V53.5Z" fill="#333333"/>
<defs>
<linearGradient id="paint0_linear_2168_10178" x1="19" y1="26.3989" x2="22.8722" y2="37.7986" gradientUnits="userSpaceOnUse">
<stop stop-color="#FFC671"/>
<stop offset="0.59375" stop-color="#FF7541"/>
<stop offset="1" stop-color="#FF6F3D"/>
</linearGradient>
<linearGradient id="paint1_linear_2168_10178" x1="19" y1="21.6342" x2="22.8722" y2="33.0338" gradientUnits="userSpaceOnUse">
<stop stop-color="#FFC671"/>
<stop offset="0.59375" stop-color="#FF7541"/>
<stop offset="1" stop-color="#FF6F3D"/>
</linearGradient>
<linearGradient id="paint2_linear_2168_10178" x1="19" y1="14.6691" x2="25.3713" y2="28.7369" gradientUnits="userSpaceOnUse">
<stop stop-color="#FFC671"/>
<stop offset="0.59375" stop-color="#FF7541"/>
<stop offset="1" stop-color="#FF6F3D"/>
</linearGradient>
<linearGradient id="paint3_linear_2168_10178" x1="46.0004" y1="39.8039" x2="48.3667" y2="46.7703" gradientUnits="userSpaceOnUse">
<stop stop-color="#FFC671"/>
<stop offset="0.59375" stop-color="#FF7541"/>
<stop offset="1" stop-color="#FF6F3D"/>
</linearGradient>
<linearGradient id="paint4_linear_2168_10178" x1="46.0004" y1="36.8921" x2="48.3667" y2="43.8585" gradientUnits="userSpaceOnUse">
<stop stop-color="#FFC671"/>
<stop offset="0.59375" stop-color="#FF7541"/>
<stop offset="1" stop-color="#FF6F3D"/>
</linearGradient>
<linearGradient id="paint5_linear_2168_10178" x1="46.0004" y1="32.6357" x2="49.8939" y2="41.2326" gradientUnits="userSpaceOnUse">
<stop stop-color="#FFC671"/>
<stop offset="0.59375" stop-color="#FF7541"/>
<stop offset="1" stop-color="#FF6F3D"/>
</linearGradient>
</defs>
</svg>
