<svg width="65" height="64" viewBox="0 0 65 64" fill="none" xmlns="http://www.w3.org/2000/svg">
<g clip-path="url(#clip0_2831_9273)">
<path d="M44.7068 7L54.7068 17.0001H46.4384C45.2908 17.0001 44.7068 16.3869 44.7068 15.182V7Z" fill="url(#paint0_linear_2831_9273)"/>
<path fill-rule="evenodd" clip-rule="evenodd" d="M44.3241 6.07615C44.6978 5.92137 45.1279 6.00693 45.4139 6.29293L55.4139 16.2931C55.6999 16.5791 55.7854 17.0092 55.6307 17.3829C55.4759 17.7565 55.1112 18.0002 54.7068 18.0002H46.4384C45.6931 18.0002 44.9567 17.7982 44.4181 17.2326C43.8879 16.6759 43.7068 15.9311 43.7068 15.182V7.00003C43.7068 6.59557 43.9504 6.23093 44.3241 6.07615ZM54.7068 17.0002L44.7068 7.00003V15.182C44.7068 16.387 45.2908 17.0002 46.4384 17.0002H54.7068Z" fill="#333333"/>
<path d="M54.3151 16.5643L54.3127 16.5619L45.1252 7.3919L45.1239 7.39064C45.0714 7.3385 45.0224 7.28883 44.98 7.24584L44.9797 7.24561L44.9639 7.22955C44.9156 7.18068 44.8779 7.14261 44.8433 7.1091C44.7732 7.04113 44.7424 7.01797 44.7297 7.00951C44.7191 7.00704 44.6821 7 44.602 7H20.0546C19.302 7 18.7068 7.60253 18.7068 8.32759V12.1638H17.7068V8.32759C17.7068 7.0421 18.7579 6 20.0546 6H44.602C45.1556 6 45.3469 6.19385 45.6919 6.54364L45.6921 6.54384C45.7351 6.58741 45.7805 6.6334 45.8292 6.68173L55.0191 15.8541L55.1014 15.9353C55.4901 16.3182 55.7068 16.5316 55.7068 17.1093V52.6724C55.7068 53.9579 54.6556 55 53.359 55H27.7063V54H53.359C54.1115 54 54.7068 53.3975 54.7068 52.6724V17.1093C54.7068 17.0214 54.6979 16.9827 54.6952 16.9724L54.6951 16.972C54.6936 16.9665 54.693 16.9642 54.6866 16.9542C54.6757 16.9373 54.6506 16.9031 54.5861 16.8351C54.5358 16.7819 54.4829 16.7299 54.4114 16.6594L54.4112 16.6592L54.4104 16.6584C54.3819 16.6304 54.3505 16.5994 54.3151 16.5643Z" fill="#333333"/>
<path d="M17.7068 42H18.7068V46.0833H17.7068V42Z" fill="#333333"/>
<path fill-rule="evenodd" clip-rule="evenodd" d="M10.7063 57H1.7063V52.5C1.7063 50.0147 3.72102 48 6.2063 48C8.69158 48 10.7063 50.0147 10.7063 52.5V57ZM8.7063 55H3.7063V52.5C3.7063 51.1193 4.82559 50 6.2063 50C7.58701 50 8.7063 51.1193 8.7063 52.5V55Z" fill="#FF6F3D"/>
<path fill-rule="evenodd" clip-rule="evenodd" d="M12.7061 48H17.2061C19.6914 48 21.7061 50.0147 21.7061 52.5C21.7061 54.9853 19.6914 57 17.2061 57H12.7062L12.7061 48ZM14.7061 50H17.2061C18.5868 50 19.7061 51.1193 19.7061 52.5C19.7061 53.8807 18.5868 55 17.2061 55H14.7062L14.7061 50Z" fill="#FF6F3D"/>
<path fill-rule="evenodd" clip-rule="evenodd" d="M25.7063 48V62H23.7063V48H25.7063Z" fill="#FF6F3D"/>
<path fill-rule="evenodd" clip-rule="evenodd" d="M1.7063 62V57H3.7063V62H1.7063Z" fill="#FF6F3D"/>
<path fill-rule="evenodd" clip-rule="evenodd" d="M8.7063 62V57H10.7063V62H8.7063Z" fill="#FF6F3D"/>
<path fill-rule="evenodd" clip-rule="evenodd" d="M12.7063 62V57H14.7063V62H12.7063Z" fill="#FF6F3D"/>
<path d="M64.7063 38C64.7063 43.5228 60.2291 48 54.7063 48C49.1835 48 44.7063 43.5228 44.7063 38C44.7063 32.4772 49.1835 28 54.7063 28C60.2291 28 64.7063 32.4772 64.7063 38Z" fill="#8BB825"/>
<path fill-rule="evenodd" clip-rule="evenodd" d="M60.4849 34.153C60.8755 34.5435 60.8755 35.1767 60.4849 35.5672L52.7547 43.2974L48.9277 39.4703C48.5371 39.0798 48.5371 38.4466 48.9277 38.0561C49.3182 37.6656 49.9514 37.6656 50.3419 38.0561L52.7548 40.469L59.0707 34.153C59.4612 33.7625 60.0944 33.7625 60.4849 34.153Z" fill="white"/>
<path fill-rule="evenodd" clip-rule="evenodd" d="M7.7063 14C5.49716 14 3.7063 15.7909 3.7063 18V23.9474H15.7063V19.275L24.7063 27.5L15.7063 35V31.0537H3.7063V36C3.7063 38.2091 5.49716 40 7.7063 40H25.7063C27.9154 40 29.7063 38.2091 29.7063 36V18C29.7063 15.7909 27.9154 14 25.7063 14H7.7063Z" fill="url(#paint1_linear_2831_9273)"/>
<path fill-rule="evenodd" clip-rule="evenodd" d="M15.7063 31.0537H3.7063V36C3.7063 38.2091 5.49716 40 7.7063 40H25.7063C27.9154 40 29.7063 38.2091 29.7063 36V18C29.7063 15.7909 27.9154 14 25.7063 14H7.7063C5.49716 14 3.7063 15.7909 3.7063 18V23.9474H15.7063V19.275L24.7063 27.5L15.7063 35V31.0537ZM14.7063 22.9474V17.0065L26.2267 27.5347L14.7063 37.135V32.0537H4.7063V36C4.7063 37.6569 6.04944 39 7.7063 39H25.7063C27.3632 39 28.7063 37.6569 28.7063 36V18C28.7063 16.3431 27.3632 15 25.7063 15H7.7063C6.04944 15 4.7063 16.3431 4.7063 18V22.9474H14.7063Z" fill="#333333"/>
</g>
<defs>
<linearGradient id="paint0_linear_2831_9273" x1="44.7068" y1="6.60937" x2="54.707" y2="17" gradientUnits="userSpaceOnUse">
<stop stop-color="#FFC671"/>
<stop offset="0.59375" stop-color="#FF7541"/>
<stop offset="1" stop-color="#FF6F3D"/>
</linearGradient>
<linearGradient id="paint1_linear_2831_9273" x1="3.70635" y1="12.9844" x2="29.7063" y2="40" gradientUnits="userSpaceOnUse">
<stop stop-color="#FF8E3D"/>
<stop offset="1" stop-color="#FF6F3D"/>
</linearGradient>
<clipPath id="clip0_2831_9273">
<rect width="64" height="64" fill="white" transform="translate(0.706299)"/>
</clipPath>
</defs>
</svg>
