<svg width="64" height="64" viewBox="0 0 64 64" fill="none" xmlns="http://www.w3.org/2000/svg">
<g clip-path="url(#clip0_3836_46544)">
<path d="M4.99957 15.5H4.49957V16V57C4.49957 57.8284 5.17114 58.5 5.99957 58.5H57.9996C58.828 58.5 59.4996 57.8284 59.4996 57V16V15.5H58.9996H4.99957Z" fill="#CCCCCC" stroke="#333333"/>
<path fill-rule="evenodd" clip-rule="evenodd" d="M58 7H6C5.44772 7 5 7.44772 5 8V57C5 57.5523 5.44772 58 6 58H58C58.5523 58 59 57.5523 59 57V8C59 7.44772 58.5523 7 58 7ZM6 6C4.89543 6 4 6.89543 4 8V57C4 58.1046 4.89543 59 6 59H58C59.1046 59 60 58.1046 60 57V8C60 6.89543 59.1046 6 58 6H6Z" fill="#333333"/>
<path fill-rule="evenodd" clip-rule="evenodd" d="M3.99957 15.5C3.99957 15.2239 4.25066 15 4.56039 15H59.4388C59.7485 15 59.9996 15.2239 59.9996 15.5C59.9996 15.7761 59.7485 16 59.4388 16H4.56039C4.25066 16 3.99957 15.7761 3.99957 15.5Z" fill="#333333"/>
<path fill-rule="evenodd" clip-rule="evenodd" d="M9.03583 12.0255C9.58811 12.0255 10.0358 11.5778 10.0358 11.0255C10.0358 10.4732 9.58811 10.0255 9.03583 10.0255C8.48354 10.0255 8.03583 10.4732 8.03583 11.0255C8.03583 11.5778 8.48354 12.0255 9.03583 12.0255ZM9.03583 13.0255C10.1404 13.0255 11.0358 12.1301 11.0358 11.0255C11.0358 9.92092 10.1404 9.02549 9.03583 9.02549C7.93126 9.02549 7.03583 9.92092 7.03583 11.0255C7.03583 12.1301 7.93126 13.0255 9.03583 13.0255Z" fill="#333333"/>
<path fill-rule="evenodd" clip-rule="evenodd" d="M14.1608 12.0255C14.7131 12.0255 15.1608 11.5778 15.1608 11.0255C15.1608 10.4732 14.7131 10.0255 14.1608 10.0255C13.6085 10.0255 13.1608 10.4732 13.1608 11.0255C13.1608 11.5778 13.6085 12.0255 14.1608 12.0255ZM14.1608 13.0255C15.2654 13.0255 16.1608 12.1301 16.1608 11.0255C16.1608 9.92092 15.2654 9.02549 14.1608 9.02549C13.0563 9.02549 12.1608 9.92092 12.1608 11.0255C12.1608 12.1301 13.0563 13.0255 14.1608 13.0255Z" fill="#333333"/>
<path fill-rule="evenodd" clip-rule="evenodd" d="M19.2858 12.0255C19.8381 12.0255 20.2858 11.5778 20.2858 11.0255C20.2858 10.4732 19.8381 10.0255 19.2858 10.0255C18.7335 10.0255 18.2858 10.4732 18.2858 11.0255C18.2858 11.5778 18.7335 12.0255 19.2858 12.0255ZM19.2858 13.0255C20.3904 13.0255 21.2858 12.1301 21.2858 11.0255C21.2858 9.92092 20.3904 9.02549 19.2858 9.02549C18.1813 9.02549 17.2858 9.92092 17.2858 11.0255C17.2858 12.1301 18.1813 13.0255 19.2858 13.0255Z" fill="#333333"/>
<mask id="path-7-inside-1_3836_46544" fill="white">
<path fill-rule="evenodd" clip-rule="evenodd" d="M52.9966 28.1093V58V59H14.3445C13.0478 59 11.9966 59 11.9966 59V22.3276C11.9966 21.0421 13.0478 20 14.3445 20H50.9898C52.0931 20 52.988 20.892 52.9896 21.9953C52.9926 24.0011 52.9966 26.9561 52.9966 28.1093Z"/>
</mask>
<path fill-rule="evenodd" clip-rule="evenodd" d="M52.9966 28.1093V58V59H14.3445C13.0478 59 11.9966 59 11.9966 59V22.3276C11.9966 21.0421 13.0478 20 14.3445 20H50.9898C52.0931 20 52.988 20.892 52.9896 21.9953C52.9926 24.0011 52.9966 26.9561 52.9966 28.1093Z" fill="white"/>
<path d="M52.9966 59V60H53.9966V59H52.9966ZM11.9966 59H10.9966V60H11.9966V59ZM53.9966 58V28.1093H51.9966V58H53.9966ZM53.9966 59V58H51.9966V59H53.9966ZM14.3445 60H52.9966V58H14.3445V60ZM11.9966 59C11.9966 60 11.9966 60 11.9967 60C11.9967 60 11.9967 60 11.9967 60C11.9967 60 11.9967 60 11.9968 60C11.9968 60 11.9968 60 11.9968 60C11.9969 60 11.9969 60 11.9969 60C11.997 60 11.997 60 11.9971 60C11.9971 60 11.9972 60 11.9972 60C11.9973 60 11.9973 60 11.9974 60C11.9975 60 11.9975 60 11.9976 60C11.9977 60 11.9978 60 11.9978 60C11.9979 60 11.998 60 11.9981 60C11.9982 60 11.9983 60 11.9984 60C11.9985 60 11.9986 60 11.9987 60C11.9988 60 11.9989 60 11.999 60C11.9991 60 11.9992 60 11.9993 60C11.9994 60 11.9996 60 11.9997 60C11.9998 60 12 60 12.0001 60C12.0002 60 12.0004 60 12.0005 60C12.0006 60 12.0008 60 12.0009 60C12.0011 60 12.0012 60 12.0014 60C12.0016 60 12.0017 60 12.0019 60C12.0021 60 12.0022 60 12.0024 60C12.0026 60 12.0028 60 12.0029 60C12.0031 60 12.0033 60 12.0035 60C12.0037 60 12.0039 60 12.0041 60C12.0043 60 12.0045 60 12.0047 60C12.0049 60 12.0051 60 12.0053 60C12.0055 60 12.0057 60 12.0059 60C12.0062 60 12.0064 60 12.0066 60C12.0068 60 12.0071 60 12.0073 60C12.0075 60 12.0078 60 12.008 60C12.0083 60 12.0085 60 12.0088 60C12.009 60 12.0093 60 12.0095 60C12.0098 60 12.01 60 12.0103 60C12.0106 60 12.0108 60 12.0111 60C12.0114 60 12.0117 60 12.012 60C12.0122 60 12.0125 60 12.0128 60C12.0131 60 12.0134 60 12.0137 60C12.014 60 12.0143 60 12.0146 60C12.0149 60 12.0152 60 12.0155 60C12.0158 60 12.0161 60 12.0165 60C12.0168 60 12.0171 60 12.0174 60C12.0177 60 12.0181 60 12.0184 60C12.0187 60 12.0191 60 12.0194 60C12.0198 60 12.0201 60 12.0205 60C12.0208 60 12.0212 60 12.0215 60C12.0219 60 12.0222 60 12.0226 60C12.023 60 12.0233 60 12.0237 60C12.0241 60 12.0244 60 12.0248 60C12.0252 60 12.0256 60 12.026 60C12.0264 60 12.0267 60 12.0271 60C12.0275 60 12.0279 60 12.0283 60C12.0287 60 12.0291 60 12.0295 60C12.0299 60 12.0304 60 12.0308 60C12.0312 60 12.0316 60 12.032 60C12.0325 60 12.0329 60 12.0333 60C12.0337 60 12.0342 60 12.0346 60C12.0351 60 12.0355 60 12.0359 60C12.0364 60 12.0368 60 12.0373 60C12.0377 60 12.0382 60 12.0387 60C12.0391 60 12.0396 60 12.04 60C12.0405 60 12.041 60 12.0415 60C12.0419 60 12.0424 60 12.0429 60C12.0434 60 12.0439 60 12.0443 60C12.0448 60 12.0453 60 12.0458 60C12.0463 60 12.0468 60 12.0473 60C12.0478 60 12.0483 60 12.0488 60C12.0493 60 12.0499 60 12.0504 60C12.0509 60 12.0514 60 12.0519 60C12.0525 60 12.053 60 12.0535 60C12.0541 60 12.0546 60 12.0551 60C12.0557 60 12.0562 60 12.0568 60C12.0573 60 12.0579 60 12.0584 60C12.059 60 12.0595 60 12.0601 60C12.0606 60 12.0612 60 12.0618 60C12.0623 60 12.0629 60 12.0635 60C12.0641 60 12.0646 60 12.0652 60C12.0658 60 12.0664 60 12.067 60C12.0676 60 12.0682 60 12.0688 60C12.0694 60 12.07 60 12.0706 60C12.0712 60 12.0718 60 12.0724 60C12.073 60 12.0736 60 12.0742 60C12.0748 60 12.0755 60 12.0761 60C12.0767 60 12.0773 60 12.078 60C12.0786 60 12.0792 60 12.0799 60C12.0805 60 12.0812 60 12.0818 60C12.0824 60 12.0831 60 12.0837 60C12.0844 60 12.0851 60 12.0857 60C12.0864 60 12.087 60 12.0877 60C12.0884 60 12.089 60 12.0897 60C12.0904 60 12.0911 60 12.0917 60C12.0924 60 12.0931 60 12.0938 60C12.0945 60 12.0952 60 12.0959 60C12.0966 60 12.0972 60 12.098 60C12.0987 60 12.0994 60 12.1001 60C12.1008 60 12.1015 60 12.1022 60C12.1029 60 12.1036 60 12.1044 60C12.1051 60 12.1058 60 12.1065 60C12.1073 60 12.108 60 12.1087 60C12.1095 60 12.1102 60 12.1109 60C12.1117 60 12.1124 60 12.1132 60C12.1139 60 12.1147 60 12.1154 60C12.1162 60 12.1169 60 12.1177 60C12.1185 60 12.1192 60 12.12 60C12.1208 60 12.1215 60 12.1223 60C12.1231 60 12.1239 60 12.1247 60C12.1254 60 12.1262 60 12.127 60C12.1278 60 12.1286 60 12.1294 60C12.1302 60 12.131 60 12.1318 60C12.1326 60 12.1334 60 12.1342 60C12.135 60 12.1358 60 12.1366 60C12.1375 60 12.1383 60 12.1391 60C12.1399 60 12.1408 60 12.1416 60C12.1424 60 12.1432 60 12.1441 60C12.1449 60 12.1458 60 12.1466 60C12.1474 60 12.1483 60 12.1491 60C12.15 60 12.1508 60 12.1517 60C12.1526 60 12.1534 60 12.1543 60C12.1551 60 12.156 60 12.1569 60C12.1577 60 12.1586 60 12.1595 60C12.1604 60 12.1613 60 12.1621 60C12.163 60 12.1639 60 12.1648 60C12.1657 60 12.1666 60 12.1675 60C12.1684 60 12.1693 60 12.1702 60C12.1711 60 12.172 60 12.1729 60C12.1738 60 12.1747 60 12.1756 60C12.1765 60 12.1775 60 12.1784 60C12.1793 60 12.1802 60 12.1811 60C12.1821 60 12.183 60 12.1839 60C12.1849 60 12.1858 60 12.1868 60C12.1877 60 12.1886 60 12.1896 60C12.1905 60 12.1915 60 12.1924 60C12.1934 60 12.1944 60 12.1953 60C12.1963 60 12.1972 60 12.1982 60C12.1992 60 12.2001 60 12.2011 60C12.2021 60 12.2031 60 12.204 60C12.205 60 12.206 60 12.207 60C12.208 60 12.209 60 12.21 60C12.211 60 12.2119 60 12.2129 60C12.2139 60 12.2149 60 12.216 60C12.217 60 12.218 60 12.219 60C12.22 60 12.221 60 12.222 60C12.223 60 12.2241 60 12.2251 60C12.2261 60 12.2271 60 12.2282 60C12.2292 60 12.2302 60 12.2313 60C12.2323 60 12.2333 60 12.2344 60C12.2354 60 12.2365 60 12.2375 60C12.2386 60 12.2396 60 12.2407 60C12.2417 60 12.2428 60 12.2439 60C12.2449 60 12.246 60 12.247 60C12.2481 60 12.2492 60 12.2503 60C12.2513 60 12.2524 60 12.2535 60C12.2546 60 12.2557 60 12.2567 60C12.2578 60 12.2589 60 12.26 60C12.2611 60 12.2622 60 12.2633 60C12.2644 60 12.2655 60 12.2666 60C12.2677 60 12.2688 60 12.2699 60C12.271 60 12.2722 60 12.2733 60C12.2744 60 12.2755 60 12.2766 60C12.2778 60 12.2789 60 12.28 60C12.2811 60 12.2823 60 12.2834 60C12.2845 60 12.2857 60 12.2868 60C12.288 60 12.2891 60 12.2903 60C12.2914 60 12.2926 60 12.2937 60C12.2949 60 12.296 60 12.2972 60C12.2983 60 12.2995 60 12.3007 60C12.3018 60 12.303 60 12.3042 60C12.3054 60 12.3065 60 12.3077 60C12.3089 60 12.3101 60 12.3112 60C12.3124 60 12.3136 60 12.3148 60C12.316 60 12.3172 60 12.3184 60C12.3196 60 12.3208 60 12.322 60C12.3232 60 12.3244 60 12.3256 60C12.3268 60 12.328 60 12.3292 60C12.3304 60 12.3317 60 12.3329 60C12.3341 60 12.3353 60 12.3365 60C12.3378 60 12.339 60 12.3402 60C12.3415 60 12.3427 60 12.3439 60C12.3452 60 12.3464 60 12.3477 60C12.3489 60 12.3501 60 12.3514 60C12.3526 60 12.3539 60 12.3551 60C12.3564 60 12.3577 60 12.3589 60C12.3602 60 12.3614 60 12.3627 60C12.364 60 12.3653 60 12.3665 60C12.3678 60 12.3691 60 12.3703 60C12.3716 60 12.3729 60 12.3742 60C12.3755 60 12.3768 60 12.3781 60C12.3793 60 12.3806 60 12.3819 60C12.3832 60 12.3845 60 12.3858 60C12.3871 60 12.3884 60 12.3897 60C12.391 60 12.3924 60 12.3937 60C12.395 60 12.3963 60 12.3976 60C12.3989 60 12.4003 60 12.4016 60C12.4029 60 12.4042 60 12.4056 60C12.4069 60 12.4082 60 12.4096 60C12.4109 60 12.4122 60 12.4136 60C12.4149 60 12.4163 60 12.4176 60C12.419 60 12.4203 60 12.4217 60C12.423 60 12.4244 60 12.4257 60C12.4271 60 12.4284 60 12.4298 60C12.4312 60 12.4325 60 12.4339 60C12.4353 60 12.4366 60 12.438 60C12.4394 60 12.4408 60 12.4422 60C12.4435 60 12.4449 60 12.4463 60C12.4477 60 12.4491 60 12.4505 60C12.4519 60 12.4533 60 12.4547 60C12.4561 60 12.4575 60 12.4589 60C12.4603 60 12.4617 60 12.4631 60C12.4645 60 12.4659 60 12.4673 60C12.4687 60 12.4701 60 12.4716 60C12.473 60 12.4744 60 12.4758 60C12.4772 60 12.4787 60 12.4801 60C12.4815 60 12.483 60 12.4844 60C12.4858 60 12.4873 60 12.4887 60C12.4902 60 12.4916 60 12.4931 60C12.4945 60 12.4959 60 12.4974 60C12.4989 60 12.5003 60 12.5018 60C12.5032 60 12.5047 60 12.5061 60C12.5076 60 12.5091 60 12.5105 60C12.512 60 12.5135 60 12.515 60C12.5164 60 12.5179 60 12.5194 60C12.5209 60 12.5223 60 12.5238 60C12.5253 60 12.5268 60 12.5283 60C12.5298 60 12.5313 60 12.5328 60C12.5343 60 12.5358 60 12.5373 60C12.5388 60 12.5403 60 12.5418 60C12.5433 60 12.5448 60 12.5463 60C12.5478 60 12.5493 60 12.5508 60C12.5524 60 12.5539 60 12.5554 60C12.5569 60 12.5584 60 12.56 60C12.5615 60 12.563 60 12.5646 60C12.5661 60 12.5676 60 12.5692 60C12.5707 60 12.5722 60 12.5738 60C12.5753 60 12.5769 60 12.5784 60C12.58 60 12.5815 60 12.5831 60C12.5846 60 12.5862 60 12.5877 60C12.5893 60 12.5909 60 12.5924 60C12.594 60 12.5956 60 12.5971 60C12.5987 60 12.6003 60 12.6018 60C12.6034 60 12.605 60 12.6066 60C12.6081 60 12.6097 60 12.6113 60C12.6129 60 12.6145 60 12.6161 60C12.6177 60 12.6193 60 12.6208 60C12.6224 60 12.624 60 12.6256 60C12.6272 60 12.6288 60 12.6304 60C12.632 60 12.6337 60 12.6353 60C12.6369 60 12.6385 60 12.6401 60C12.6417 60 12.6433 60 12.645 60C12.6466 60 12.6482 60 12.6498 60C12.6514 60 12.6531 60 12.6547 60C12.6563 60 12.658 60 12.6596 60C12.6612 60 12.6629 60 12.6645 60C12.6661 60 12.6678 60 12.6694 60C12.6711 60 12.6727 60 12.6744 60C12.676 60 12.6777 60 12.6793 60C12.681 60 12.6826 60 12.6843 60C12.686 60 12.6876 60 12.6893 60C12.691 60 12.6926 60 12.6943 60C12.696 60 12.6976 60 12.6993 60C12.701 60 12.7027 60 12.7043 60C12.706 60 12.7077 60 12.7094 60C12.7111 60 12.7128 60 12.7144 60C12.7161 60 12.7178 60 12.7195 60C12.7212 60 12.7229 60 12.7246 60C12.7263 60 12.728 60 12.7297 60C12.7314 60 12.7331 60 12.7348 60C12.7365 60 12.7383 60 12.74 60C12.7417 60 12.7434 60 12.7451 60C12.7468 60 12.7485 60 12.7503 60C12.752 60 12.7537 60 12.7554 60C12.7572 60 12.7589 60 12.7606 60C12.7624 60 12.7641 60 12.7658 60C12.7676 60 12.7693 60 12.7711 60C12.7728 60 12.7745 60 12.7763 60C12.778 60 12.7798 60 12.7815 60C12.7833 60 12.785 60 12.7868 60C12.7886 60 12.7903 60 12.7921 60C12.7938 60 12.7956 60 12.7974 60C12.7991 60 12.8009 60 12.8027 60C12.8044 60 12.8062 60 12.808 60C12.8098 60 12.8115 60 12.8133 60C12.8151 60 12.8169 60 12.8187 60C12.8205 60 12.8222 60 12.824 60C12.8258 60 12.8276 60 12.8294 60C12.8312 60 12.833 60 12.8348 60C12.8366 60 12.8384 60 12.8402 60C12.842 60 12.8438 60 12.8456 60C12.8474 60 12.8492 60 12.851 60C12.8528 60 12.8547 60 12.8565 60C12.8583 60 12.8601 60 12.8619 60C12.8638 60 12.8656 60 12.8674 60C12.8692 60 12.8711 60 12.8729 60C12.8747 60 12.8765 60 12.8784 60C12.8802 60 12.8821 60 12.8839 60C12.8857 60 12.8876 60 12.8894 60C12.8913 60 12.8931 60 12.895 60C12.8968 60 12.8986 60 12.9005 60C12.9024 60 12.9042 60 12.9061 60C12.9079 60 12.9098 60 12.9116 60C12.9135 60 12.9154 60 12.9172 60C12.9191 60 12.921 60 12.9228 60C12.9247 60 12.9266 60 12.9285 60C12.9303 60 12.9322 60 12.9341 60C12.936 60 12.9378 60 12.9397 60C12.9416 60 12.9435 60 12.9454 60C12.9473 60 12.9492 60 12.9511 60C12.9529 60 12.9548 60 12.9567 60C12.9586 60 12.9605 60 12.9624 60C12.9643 60 12.9662 60 12.9681 60C12.97 60 12.972 60 12.9739 60C12.9758 60 12.9777 60 12.9796 60C12.9815 60 12.9834 60 12.9853 60C12.9873 60 12.9892 60 12.9911 60C12.993 60 12.9949 60 12.9969 60C12.9988 60 13.0007 60 13.0027 60C13.0046 60 13.0065 60 13.0085 60C13.0104 60 13.0123 60 13.0143 60C13.0162 60 13.0181 60 13.0201 60C13.022 60 13.024 60 13.0259 60C13.0279 60 13.0298 60 13.0318 60C13.0337 60 13.0357 60 13.0376 60C13.0396 60 13.0416 60 13.0435 60C13.0455 60 13.0474 60 13.0494 60C13.0514 60 13.0533 60 13.0553 60C13.0573 60 13.0592 60 13.0612 60C13.0632 60 13.0652 60 13.0671 60C13.0691 60 13.0711 60 13.0731 60C13.075 60 13.077 60 13.079 60C13.081 60 13.083 60 13.085 60C13.087 60 13.089 60 13.0909 60C13.0929 60 13.0949 60 13.0969 60C13.0989 60 13.1009 60 13.1029 60C13.1049 60 13.1069 60 13.1089 60C13.1109 60 13.1129 60 13.115 60C13.117 60 13.119 60 13.121 60C13.123 60 13.125 60 13.127 60C13.1291 60 13.1311 60 13.1331 60C13.1351 60 13.1371 60 13.1392 60C13.1412 60 13.1432 60 13.1452 60C13.1473 60 13.1493 60 13.1513 60C13.1534 60 13.1554 60 13.1574 60C13.1595 60 13.1615 60 13.1636 60C13.1656 60 13.1676 60 13.1697 60C13.1717 60 13.1738 60 13.1758 60C13.1779 60 13.1799 60 13.182 60C13.184 60 13.1861 60 13.1881 60C13.1902 60 13.1923 60 13.1943 60C13.1964 60 13.1984 60 13.2005 60C13.2026 60 13.2046 60 13.2067 60C13.2088 60 13.2108 60 13.2129 60C13.215 60 13.217 60 13.2191 60C13.2212 60 13.2233 60 13.2254 60C13.2274 60 13.2295 60 13.2316 60C13.2337 60 13.2358 60 13.2379 60C13.2399 60 13.242 60 13.2441 60C13.2462 60 13.2483 60 13.2504 60C13.2525 60 13.2546 60 13.2567 60C13.2588 60 13.2609 60 13.263 60C13.2651 60 13.2672 60 13.2693 60C13.2714 60 13.2735 60 13.2756 60C13.2777 60 13.2798 60 13.282 60C13.2841 60 13.2862 60 13.2883 60C13.2904 60 13.2925 60 13.2946 60C13.2968 60 13.2989 60 13.301 60C13.3031 60 13.3053 60 13.3074 60C13.3095 60 13.3116 60 13.3138 60C13.3159 60 13.318 60 13.3202 60C13.3223 60 13.3245 60 13.3266 60C13.3287 60 13.3309 60 13.333 60C13.3352 60 13.3373 60 13.3394 60C13.3416 60 13.3437 60 13.3459 60C13.348 60 13.3502 60 13.3523 60C13.3545 60 13.3566 60 13.3588 60C13.361 60 13.3631 60 13.3653 60C13.3674 60 13.3696 60 13.3718 60C13.3739 60 13.3761 60 13.3783 60C13.3804 60 13.3826 60 13.3848 60C13.3869 60 13.3891 60 13.3913 60C13.3934 60 13.3956 60 13.3978 60C13.4 60 13.4022 60 13.4043 60C13.4065 60 13.4087 60 13.4109 60C13.4131 60 13.4153 60 13.4174 60C13.4196 60 13.4218 60 13.424 60C13.4262 60 13.4284 60 13.4306 60C13.4328 60 13.435 60 13.4372 60C13.4394 60 13.4416 60 13.4438 60C13.446 60 13.4482 60 13.4504 60C13.4526 60 13.4548 60 13.457 60C13.4592 60 13.4614 60 13.4636 60C13.4658 60 13.4681 60 13.4703 60C13.4725 60 13.4747 60 13.4769 60C13.4791 60 13.4814 60 13.4836 60C13.4858 60 13.488 60 13.4902 60C13.4925 60 13.4947 60 13.4969 60C13.4992 60 13.5014 60 13.5036 60C13.5058 60 13.5081 60 13.5103 60C13.5126 60 13.5148 60 13.517 60C13.5193 60 13.5215 60 13.5237 60C13.526 60 13.5282 60 13.5305 60C13.5327 60 13.535 60 13.5372 60C13.5395 60 13.5417 60 13.544 60C13.5462 60 13.5485 60 13.5507 60C13.553 60 13.5552 60 13.5575 60C13.5597 60 13.562 60 13.5643 60C13.5665 60 13.5688 60 13.571 60C13.5733 60 13.5756 60 13.5778 60C13.5801 60 13.5824 60 13.5846 60C13.5869 60 13.5892 60 13.5915 60C13.5937 60 13.596 60 13.5983 60C13.6006 60 13.6028 60 13.6051 60C13.6074 60 13.6097 60 13.612 60C13.6142 60 13.6165 60 13.6188 60C13.6211 60 13.6234 60 13.6257 60C13.6279 60 13.6302 60 13.6325 60C13.6348 60 13.6371 60 13.6394 60C13.6417 60 13.644 60 13.6463 60C13.6486 60 13.6509 60 13.6532 60C13.6555 60 13.6578 60 13.6601 60C13.6624 60 13.6647 60 13.667 60C13.6693 60 13.6716 60 13.6739 60C13.6762 60 13.6786 60 13.6809 60C13.6832 60 13.6855 60 13.6878 60C13.6901 60 13.6924 60 13.6948 60C13.6971 60 13.6994 60 13.7017 60C13.704 60 13.7064 60 13.7087 60C13.711 60 13.7133 60 13.7157 60C13.718 60 13.7203 60 13.7227 60C13.725 60 13.7273 60 13.7296 60C13.732 60 13.7343 60 13.7367 60C13.739 60 13.7413 60 13.7437 60C13.746 60 13.7483 60 13.7507 60C13.753 60 13.7554 60 13.7577 60C13.7601 60 13.7624 60 13.7647 60C13.7671 60 13.7694 60 13.7718 60C13.7741 60 13.7765 60 13.7788 60C13.7812 60 13.7836 60 13.7859 60C13.7883 60 13.7906 60 13.793 60C13.7953 60 13.7977 60 13.8001 60C13.8024 60 13.8048 60 13.8071 60C13.8095 60 13.8119 60 13.8142 60C13.8166 60 13.819 60 13.8213 60C13.8237 60 13.8261 60 13.8285 60C13.8308 60 13.8332 60 13.8356 60C13.838 60 13.8403 60 13.8427 60C13.8451 60 13.8475 60 13.8498 60C13.8522 60 13.8546 60 13.857 60C13.8594 60 13.8618 60 13.8641 60C13.8665 60 13.8689 60 13.8713 60C13.8737 60 13.8761 60 13.8785 60C13.8809 60 13.8833 60 13.8856 60C13.888 60 13.8904 60 13.8928 60C13.8952 60 13.8976 60 13.9 60C13.9024 60 13.9048 60 13.9072 60C13.9096 60 13.912 60 13.9144 60C13.9168 60 13.9192 60 13.9216 60C13.924 60 13.9265 60 13.9289 60C13.9313 60 13.9337 60 13.9361 60C13.9385 60 13.9409 60 13.9433 60C13.9457 60 13.9482 60 13.9506 60C13.953 60 13.9554 60 13.9578 60C13.9603 60 13.9627 60 13.9651 60C13.9675 60 13.9699 60 13.9724 60C13.9748 60 13.9772 60 13.9796 60C13.9821 60 13.9845 60 13.9869 60C13.9893 60 13.9918 60 13.9942 60C13.9966 60 13.9991 60 14.0015 60C14.0039 60 14.0064 60 14.0088 60C14.0112 60 14.0137 60 14.0161 60C14.0186 60 14.021 60 14.0234 60C14.0259 60 14.0283 60 14.0308 60C14.0332 60 14.0357 60 14.0381 60C14.0405 60 14.043 60 14.0454 60C14.0479 60 14.0503 60 14.0528 60C14.0552 60 14.0577 60 14.0601 60C14.0626 60 14.0651 60 14.0675 60C14.07 60 14.0724 60 14.0749 60C14.0773 60 14.0798 60 14.0822 60C14.0847 60 14.0872 60 14.0896 60C14.0921 60 14.0946 60 14.097 60C14.0995 60 14.102 60 14.1044 60C14.1069 60 14.1094 60 14.1118 60C14.1143 60 14.1168 60 14.1192 60C14.1217 60 14.1242 60 14.1266 60C14.1291 60 14.1316 60 14.1341 60C14.1365 60 14.139 60 14.1415 60C14.144 60 14.1465 60 14.1489 60C14.1514 60 14.1539 60 14.1564 60C14.1589 60 14.1613 60 14.1638 60C14.1663 60 14.1688 60 14.1713 60C14.1738 60 14.1763 60 14.1787 60C14.1812 60 14.1837 60 14.1862 60C14.1887 60 14.1912 60 14.1937 60C14.1962 60 14.1987 60 14.2012 60C14.2037 60 14.2062 60 14.2087 60C14.2112 60 14.2137 60 14.2162 60C14.2186 60 14.2211 60 14.2237 60C14.2262 60 14.2287 60 14.2312 60C14.2337 60 14.2362 60 14.2387 60C14.2412 60 14.2437 60 14.2462 60C14.2487 60 14.2512 60 14.2537 60C14.2562 60 14.2587 60 14.2612 60C14.2638 60 14.2663 60 14.2688 60C14.2713 60 14.2738 60 14.2763 60C14.2788 60 14.2814 60 14.2839 60C14.2864 60 14.2889 60 14.2914 60C14.2939 60 14.2965 60 14.299 60C14.3015 60 14.304 60 14.3066 60C14.3091 60 14.3116 60 14.3141 60C14.3166 60 14.3192 60 14.3217 60C14.3242 60 14.3268 60 14.3293 60C14.3318 60 14.3343 60 14.3369 60C14.3394 60 14.3419 60 14.3445 60V58C14.3419 58 14.3394 58 14.3369 58C14.3343 58 14.3318 58 14.3293 58C14.3268 58 14.3242 58 14.3217 58C14.3192 58 14.3166 58 14.3141 58C14.3116 58 14.3091 58 14.3066 58C14.304 58 14.3015 58 14.299 58C14.2965 58 14.2939 58 14.2914 58C14.2889 58 14.2864 58 14.2839 58C14.2814 58 14.2788 58 14.2763 58C14.2738 58 14.2713 58 14.2688 58C14.2663 58 14.2638 58 14.2612 58C14.2587 58 14.2562 58 14.2537 58C14.2512 58 14.2487 58 14.2462 58C14.2437 58 14.2412 58 14.2387 58C14.2362 58 14.2337 58 14.2312 58C14.2287 58 14.2262 58 14.2237 58C14.2211 58 14.2186 58 14.2162 58C14.2137 58 14.2112 58 14.2087 58C14.2062 58 14.2037 58 14.2012 58C14.1987 58 14.1962 58 14.1937 58C14.1912 58 14.1887 58 14.1862 58C14.1837 58 14.1812 58 14.1787 58C14.1763 58 14.1738 58 14.1713 58C14.1688 58 14.1663 58 14.1638 58C14.1613 58 14.1589 58 14.1564 58C14.1539 58 14.1514 58 14.1489 58C14.1465 58 14.144 58 14.1415 58C14.139 58 14.1365 58 14.1341 58C14.1316 58 14.1291 58 14.1266 58C14.1242 58 14.1217 58 14.1192 58C14.1168 58 14.1143 58 14.1118 58C14.1094 58 14.1069 58 14.1044 58C14.102 58 14.0995 58 14.097 58C14.0946 58 14.0921 58 14.0896 58C14.0872 58 14.0847 58 14.0822 58C14.0798 58 14.0773 58 14.0749 58C14.0724 58 14.07 58 14.0675 58C14.0651 58 14.0626 58 14.0601 58C14.0577 58 14.0552 58 14.0528 58C14.0503 58 14.0479 58 14.0454 58C14.043 58 14.0405 58 14.0381 58C14.0357 58 14.0332 58 14.0308 58C14.0283 58 14.0259 58 14.0234 58C14.021 58 14.0186 58 14.0161 58C14.0137 58 14.0112 58 14.0088 58C14.0064 58 14.0039 58 14.0015 58C13.9991 58 13.9966 58 13.9942 58C13.9918 58 13.9893 58 13.9869 58C13.9845 58 13.9821 58 13.9796 58C13.9772 58 13.9748 58 13.9724 58C13.9699 58 13.9675 58 13.9651 58C13.9627 58 13.9603 58 13.9578 58C13.9554 58 13.953 58 13.9506 58C13.9482 58 13.9457 58 13.9433 58C13.9409 58 13.9385 58 13.9361 58C13.9337 58 13.9313 58 13.9289 58C13.9265 58 13.924 58 13.9216 58C13.9192 58 13.9168 58 13.9144 58C13.912 58 13.9096 58 13.9072 58C13.9048 58 13.9024 58 13.9 58C13.8976 58 13.8952 58 13.8928 58C13.8904 58 13.888 58 13.8856 58C13.8833 58 13.8809 58 13.8785 58C13.8761 58 13.8737 58 13.8713 58C13.8689 58 13.8665 58 13.8641 58C13.8618 58 13.8594 58 13.857 58C13.8546 58 13.8522 58 13.8498 58C13.8475 58 13.8451 58 13.8427 58C13.8403 58 13.838 58 13.8356 58C13.8332 58 13.8308 58 13.8285 58C13.8261 58 13.8237 58 13.8213 58C13.819 58 13.8166 58 13.8142 58C13.8119 58 13.8095 58 13.8071 58C13.8048 58 13.8024 58 13.8001 58C13.7977 58 13.7953 58 13.793 58C13.7906 58 13.7883 58 13.7859 58C13.7836 58 13.7812 58 13.7788 58C13.7765 58 13.7741 58 13.7718 58C13.7694 58 13.7671 58 13.7647 58C13.7624 58 13.7601 58 13.7577 58C13.7554 58 13.753 58 13.7507 58C13.7483 58 13.746 58 13.7437 58C13.7413 58 13.739 58 13.7367 58C13.7343 58 13.732 58 13.7296 58C13.7273 58 13.725 58 13.7227 58C13.7203 58 13.718 58 13.7157 58C13.7133 58 13.711 58 13.7087 58C13.7064 58 13.704 58 13.7017 58C13.6994 58 13.6971 58 13.6948 58C13.6924 58 13.6901 58 13.6878 58C13.6855 58 13.6832 58 13.6809 58C13.6786 58 13.6762 58 13.6739 58C13.6716 58 13.6693 58 13.667 58C13.6647 58 13.6624 58 13.6601 58C13.6578 58 13.6555 58 13.6532 58C13.6509 58 13.6486 58 13.6463 58C13.644 58 13.6417 58 13.6394 58C13.6371 58 13.6348 58 13.6325 58C13.6302 58 13.6279 58 13.6257 58C13.6234 58 13.6211 58 13.6188 58C13.6165 58 13.6142 58 13.612 58C13.6097 58 13.6074 58 13.6051 58C13.6028 58 13.6006 58 13.5983 58C13.596 58 13.5937 58 13.5915 58C13.5892 58 13.5869 58 13.5846 58C13.5824 58 13.5801 58 13.5778 58C13.5756 58 13.5733 58 13.571 58C13.5688 58 13.5665 58 13.5643 58C13.562 58 13.5597 58 13.5575 58C13.5552 58 13.553 58 13.5507 58C13.5485 58 13.5462 58 13.544 58C13.5417 58 13.5395 58 13.5372 58C13.535 58 13.5327 58 13.5305 58C13.5282 58 13.526 58 13.5237 58C13.5215 58 13.5193 58 13.517 58C13.5148 58 13.5126 58 13.5103 58C13.5081 58 13.5058 58 13.5036 58C13.5014 58 13.4992 58 13.4969 58C13.4947 58 13.4925 58 13.4902 58C13.488 58 13.4858 58 13.4836 58C13.4814 58 13.4791 58 13.4769 58C13.4747 58 13.4725 58 13.4703 58C13.4681 58 13.4658 58 13.4636 58C13.4614 58 13.4592 58 13.457 58C13.4548 58 13.4526 58 13.4504 58C13.4482 58 13.446 58 13.4438 58C13.4416 58 13.4394 58 13.4372 58C13.435 58 13.4328 58 13.4306 58C13.4284 58 13.4262 58 13.424 58C13.4218 58 13.4196 58 13.4174 58C13.4153 58 13.4131 58 13.4109 58C13.4087 58 13.4065 58 13.4043 58C13.4022 58 13.4 58 13.3978 58C13.3956 58 13.3934 58 13.3913 58C13.3891 58 13.3869 58 13.3848 58C13.3826 58 13.3804 58 13.3783 58C13.3761 58 13.3739 58 13.3718 58C13.3696 58 13.3674 58 13.3653 58C13.3631 58 13.361 58 13.3588 58C13.3566 58 13.3545 58 13.3523 58C13.3502 58 13.348 58 13.3459 58C13.3437 58 13.3416 58 13.3394 58C13.3373 58 13.3352 58 13.333 58C13.3309 58 13.3287 58 13.3266 58C13.3245 58 13.3223 58 13.3202 58C13.318 58 13.3159 58 13.3138 58C13.3116 58 13.3095 58 13.3074 58C13.3053 58 13.3031 58 13.301 58C13.2989 58 13.2968 58 13.2946 58C13.2925 58 13.2904 58 13.2883 58C13.2862 58 13.2841 58 13.282 58C13.2798 58 13.2777 58 13.2756 58C13.2735 58 13.2714 58 13.2693 58C13.2672 58 13.2651 58 13.263 58C13.2609 58 13.2588 58 13.2567 58C13.2546 58 13.2525 58 13.2504 58C13.2483 58 13.2462 58 13.2441 58C13.242 58 13.2399 58 13.2379 58C13.2358 58 13.2337 58 13.2316 58C13.2295 58 13.2274 58 13.2254 58C13.2233 58 13.2212 58 13.2191 58C13.217 58 13.215 58 13.2129 58C13.2108 58 13.2088 58 13.2067 58C13.2046 58 13.2026 58 13.2005 58C13.1984 58 13.1964 58 13.1943 58C13.1923 58 13.1902 58 13.1881 58C13.1861 58 13.184 58 13.182 58C13.1799 58 13.1779 58 13.1758 58C13.1738 58 13.1717 58 13.1697 58C13.1676 58 13.1656 58 13.1636 58C13.1615 58 13.1595 58 13.1574 58C13.1554 58 13.1534 58 13.1513 58C13.1493 58 13.1473 58 13.1452 58C13.1432 58 13.1412 58 13.1392 58C13.1371 58 13.1351 58 13.1331 58C13.1311 58 13.1291 58 13.127 58C13.125 58 13.123 58 13.121 58C13.119 58 13.117 58 13.115 58C13.1129 58 13.1109 58 13.1089 58C13.1069 58 13.1049 58 13.1029 58C13.1009 58 13.0989 58 13.0969 58C13.0949 58 13.0929 58 13.0909 58C13.089 58 13.087 58 13.085 58C13.083 58 13.081 58 13.079 58C13.077 58 13.075 58 13.0731 58C13.0711 58 13.0691 58 13.0671 58C13.0652 58 13.0632 58 13.0612 58C13.0592 58 13.0573 58 13.0553 58C13.0533 58 13.0514 58 13.0494 58C13.0474 58 13.0455 58 13.0435 58C13.0416 58 13.0396 58 13.0376 58C13.0357 58 13.0337 58 13.0318 58C13.0298 58 13.0279 58 13.0259 58C13.024 58 13.022 58 13.0201 58C13.0181 58 13.0162 58 13.0143 58C13.0123 58 13.0104 58 13.0085 58C13.0065 58 13.0046 58 13.0027 58C13.0007 58 12.9988 58 12.9969 58C12.9949 58 12.993 58 12.9911 58C12.9892 58 12.9873 58 12.9853 58C12.9834 58 12.9815 58 12.9796 58C12.9777 58 12.9758 58 12.9739 58C12.972 58 12.97 58 12.9681 58C12.9662 58 12.9643 58 12.9624 58C12.9605 58 12.9586 58 12.9567 58C12.9548 58 12.9529 58 12.9511 58C12.9492 58 12.9473 58 12.9454 58C12.9435 58 12.9416 58 12.9397 58C12.9378 58 12.936 58 12.9341 58C12.9322 58 12.9303 58 12.9285 58C12.9266 58 12.9247 58 12.9228 58C12.921 58 12.9191 58 12.9172 58C12.9154 58 12.9135 58 12.9116 58C12.9098 58 12.9079 58 12.9061 58C12.9042 58 12.9024 58 12.9005 58C12.8986 58 12.8968 58 12.895 58C12.8931 58 12.8913 58 12.8894 58C12.8876 58 12.8857 58 12.8839 58C12.8821 58 12.8802 58 12.8784 58C12.8765 58 12.8747 58 12.8729 58C12.8711 58 12.8692 58 12.8674 58C12.8656 58 12.8638 58 12.8619 58C12.8601 58 12.8583 58 12.8565 58C12.8547 58 12.8528 58 12.851 58C12.8492 58 12.8474 58 12.8456 58C12.8438 58 12.842 58 12.8402 58C12.8384 58 12.8366 58 12.8348 58C12.833 58 12.8312 58 12.8294 58C12.8276 58 12.8258 58 12.824 58C12.8222 58 12.8205 58 12.8187 58C12.8169 58 12.8151 58 12.8133 58C12.8115 58 12.8098 58 12.808 58C12.8062 58 12.8044 58 12.8027 58C12.8009 58 12.7991 58 12.7974 58C12.7956 58 12.7938 58 12.7921 58C12.7903 58 12.7886 58 12.7868 58C12.785 58 12.7833 58 12.7815 58C12.7798 58 12.778 58 12.7763 58C12.7745 58 12.7728 58 12.7711 58C12.7693 58 12.7676 58 12.7658 58C12.7641 58 12.7624 58 12.7606 58C12.7589 58 12.7572 58 12.7554 58C12.7537 58 12.752 58 12.7503 58C12.7485 58 12.7468 58 12.7451 58C12.7434 58 12.7417 58 12.74 58C12.7383 58 12.7365 58 12.7348 58C12.7331 58 12.7314 58 12.7297 58C12.728 58 12.7263 58 12.7246 58C12.7229 58 12.7212 58 12.7195 58C12.7178 58 12.7161 58 12.7144 58C12.7128 58 12.7111 58 12.7094 58C12.7077 58 12.706 58 12.7043 58C12.7027 58 12.701 58 12.6993 58C12.6976 58 12.696 58 12.6943 58C12.6926 58 12.691 58 12.6893 58C12.6876 58 12.686 58 12.6843 58C12.6826 58 12.681 58 12.6793 58C12.6777 58 12.676 58 12.6744 58C12.6727 58 12.6711 58 12.6694 58C12.6678 58 12.6661 58 12.6645 58C12.6629 58 12.6612 58 12.6596 58C12.658 58 12.6563 58 12.6547 58C12.6531 58 12.6514 58 12.6498 58C12.6482 58 12.6466 58 12.645 58C12.6433 58 12.6417 58 12.6401 58C12.6385 58 12.6369 58 12.6353 58C12.6337 58 12.632 58 12.6304 58C12.6288 58 12.6272 58 12.6256 58C12.624 58 12.6224 58 12.6208 58C12.6193 58 12.6177 58 12.6161 58C12.6145 58 12.6129 58 12.6113 58C12.6097 58 12.6081 58 12.6066 58C12.605 58 12.6034 58 12.6018 58C12.6003 58 12.5987 58 12.5971 58C12.5956 58 12.594 58 12.5924 58C12.5909 58 12.5893 58 12.5877 58C12.5862 58 12.5846 58 12.5831 58C12.5815 58 12.58 58 12.5784 58C12.5769 58 12.5753 58 12.5738 58C12.5722 58 12.5707 58 12.5692 58C12.5676 58 12.5661 58 12.5646 58C12.563 58 12.5615 58 12.56 58C12.5584 58 12.5569 58 12.5554 58C12.5539 58 12.5524 58 12.5508 58C12.5493 58 12.5478 58 12.5463 58C12.5448 58 12.5433 58 12.5418 58C12.5403 58 12.5388 58 12.5373 58C12.5358 58 12.5343 58 12.5328 58C12.5313 58 12.5298 58 12.5283 58C12.5268 58 12.5253 58 12.5238 58C12.5223 58 12.5209 58 12.5194 58C12.5179 58 12.5164 58 12.515 58C12.5135 58 12.512 58 12.5105 58C12.5091 58 12.5076 58 12.5061 58C12.5047 58 12.5032 58 12.5018 58C12.5003 58 12.4989 58 12.4974 58C12.4959 58 12.4945 58 12.4931 58C12.4916 58 12.4902 58 12.4887 58C12.4873 58 12.4858 58 12.4844 58C12.483 58 12.4815 58 12.4801 58C12.4787 58 12.4772 58 12.4758 58C12.4744 58 12.473 58 12.4716 58C12.4701 58 12.4687 58 12.4673 58C12.4659 58 12.4645 58 12.4631 58C12.4617 58 12.4603 58 12.4589 58C12.4575 58 12.4561 58 12.4547 58C12.4533 58 12.4519 58 12.4505 58C12.4491 58 12.4477 58 12.4463 58C12.4449 58 12.4435 58 12.4422 58C12.4408 58 12.4394 58 12.438 58C12.4366 58 12.4353 58 12.4339 58C12.4325 58 12.4312 58 12.4298 58C12.4284 58 12.4271 58 12.4257 58C12.4244 58 12.423 58 12.4217 58C12.4203 58 12.419 58 12.4176 58C12.4163 58 12.4149 58 12.4136 58C12.4122 58 12.4109 58 12.4096 58C12.4082 58 12.4069 58 12.4056 58C12.4042 58 12.4029 58 12.4016 58C12.4003 58 12.3989 58 12.3976 58C12.3963 58 12.395 58 12.3937 58C12.3924 58 12.391 58 12.3897 58C12.3884 58 12.3871 58 12.3858 58C12.3845 58 12.3832 58 12.3819 58C12.3806 58 12.3793 58 12.3781 58C12.3768 58 12.3755 58 12.3742 58C12.3729 58 12.3716 58 12.3703 58C12.3691 58 12.3678 58 12.3665 58C12.3653 58 12.364 58 12.3627 58C12.3614 58 12.3602 58 12.3589 58C12.3577 58 12.3564 58 12.3551 58C12.3539 58 12.3526 58 12.3514 58C12.3501 58 12.3489 58 12.3477 58C12.3464 58 12.3452 58 12.3439 58C12.3427 58 12.3415 58 12.3402 58C12.339 58 12.3378 58 12.3365 58C12.3353 58 12.3341 58 12.3329 58C12.3317 58 12.3304 58 12.3292 58C12.328 58 12.3268 58 12.3256 58C12.3244 58 12.3232 58 12.322 58C12.3208 58 12.3196 58 12.3184 58C12.3172 58 12.316 58 12.3148 58C12.3136 58 12.3124 58 12.3112 58C12.3101 58 12.3089 58 12.3077 58C12.3065 58 12.3054 58 12.3042 58C12.303 58 12.3018 58 12.3007 58C12.2995 58 12.2983 58 12.2972 58C12.296 58 12.2949 58 12.2937 58C12.2926 58 12.2914 58 12.2903 58C12.2891 58 12.288 58 12.2868 58C12.2857 58 12.2845 58 12.2834 58C12.2823 58 12.2811 58 12.28 58C12.2789 58 12.2778 58 12.2766 58C12.2755 58 12.2744 58 12.2733 58C12.2722 58 12.271 58 12.2699 58C12.2688 58 12.2677 58 12.2666 58C12.2655 58 12.2644 58 12.2633 58C12.2622 58 12.2611 58 12.26 58C12.2589 58 12.2578 58 12.2567 58C12.2557 58 12.2546 58 12.2535 58C12.2524 58 12.2513 58 12.2503 58C12.2492 58 12.2481 58 12.247 58C12.246 58 12.2449 58 12.2439 58C12.2428 58 12.2417 58 12.2407 58C12.2396 58 12.2386 58 12.2375 58C12.2365 58 12.2354 58 12.2344 58C12.2333 58 12.2323 58 12.2313 58C12.2302 58 12.2292 58 12.2282 58C12.2271 58 12.2261 58 12.2251 58C12.2241 58 12.223 58 12.222 58C12.221 58 12.22 58 12.219 58C12.218 58 12.217 58 12.216 58C12.2149 58 12.2139 58 12.2129 58C12.2119 58 12.211 58 12.21 58C12.209 58 12.208 58 12.207 58C12.206 58 12.205 58 12.204 58C12.2031 58 12.2021 58 12.2011 58C12.2001 58 12.1992 58 12.1982 58C12.1972 58 12.1963 58 12.1953 58C12.1944 58 12.1934 58 12.1924 58C12.1915 58 12.1905 58 12.1896 58C12.1886 58 12.1877 58 12.1868 58C12.1858 58 12.1849 58 12.1839 58C12.183 58 12.1821 58 12.1811 58C12.1802 58 12.1793 58 12.1784 58C12.1775 58 12.1765 58 12.1756 58C12.1747 58 12.1738 58 12.1729 58C12.172 58 12.1711 58 12.1702 58C12.1693 58 12.1684 58 12.1675 58C12.1666 58 12.1657 58 12.1648 58C12.1639 58 12.163 58 12.1621 58C12.1613 58 12.1604 58 12.1595 58C12.1586 58 12.1577 58 12.1569 58C12.156 58 12.1551 58 12.1543 58C12.1534 58 12.1526 58 12.1517 58C12.1508 58 12.15 58 12.1491 58C12.1483 58 12.1474 58 12.1466 58C12.1458 58 12.1449 58 12.1441 58C12.1432 58 12.1424 58 12.1416 58C12.1408 58 12.1399 58 12.1391 58C12.1383 58 12.1375 58 12.1366 58C12.1358 58 12.135 58 12.1342 58C12.1334 58 12.1326 58 12.1318 58C12.131 58 12.1302 58 12.1294 58C12.1286 58 12.1278 58 12.127 58C12.1262 58 12.1254 58 12.1247 58C12.1239 58 12.1231 58 12.1223 58C12.1215 58 12.1208 58 12.12 58C12.1192 58 12.1185 58 12.1177 58C12.1169 58 12.1162 58 12.1154 58C12.1147 58 12.1139 58 12.1132 58C12.1124 58 12.1117 58 12.1109 58C12.1102 58 12.1095 58 12.1087 58C12.108 58 12.1073 58 12.1065 58C12.1058 58 12.1051 58 12.1044 58C12.1036 58 12.1029 58 12.1022 58C12.1015 58 12.1008 58 12.1001 58C12.0994 58 12.0987 58 12.098 58C12.0972 58 12.0966 58 12.0959 58C12.0952 58 12.0945 58 12.0938 58C12.0931 58 12.0924 58 12.0917 58C12.0911 58 12.0904 58 12.0897 58C12.089 58 12.0884 58 12.0877 58C12.087 58 12.0864 58 12.0857 58C12.0851 58 12.0844 58 12.0837 58C12.0831 58 12.0824 58 12.0818 58C12.0812 58 12.0805 58 12.0799 58C12.0792 58 12.0786 58 12.078 58C12.0773 58 12.0767 58 12.0761 58C12.0755 58 12.0748 58 12.0742 58C12.0736 58 12.073 58 12.0724 58C12.0718 58 12.0712 58 12.0706 58C12.07 58 12.0694 58 12.0688 58C12.0682 58 12.0676 58 12.067 58C12.0664 58 12.0658 58 12.0652 58C12.0646 58 12.0641 58 12.0635 58C12.0629 58 12.0623 58 12.0618 58C12.0612 58 12.0606 58 12.0601 58C12.0595 58 12.059 58 12.0584 58C12.0579 58 12.0573 58 12.0568 58C12.0562 58 12.0557 58 12.0551 58C12.0546 58 12.0541 58 12.0535 58C12.053 58 12.0525 58 12.0519 58C12.0514 58 12.0509 58 12.0504 58C12.0499 58 12.0493 58 12.0488 58C12.0483 58 12.0478 58 12.0473 58C12.0468 58 12.0463 58 12.0458 58C12.0453 58 12.0448 58 12.0443 58C12.0439 58 12.0434 58 12.0429 58C12.0424 58 12.0419 58 12.0415 58C12.041 58 12.0405 58 12.04 58C12.0396 58 12.0391 58 12.0387 58C12.0382 58 12.0377 58 12.0373 58C12.0368 58 12.0364 58 12.0359 58C12.0355 58 12.0351 58 12.0346 58C12.0342 58 12.0337 58 12.0333 58C12.0329 58 12.0325 58 12.032 58C12.0316 58 12.0312 58 12.0308 58C12.0304 58 12.0299 58 12.0295 58C12.0291 58 12.0287 58 12.0283 58C12.0279 58 12.0275 58 12.0271 58C12.0267 58 12.0264 58 12.026 58C12.0256 58 12.0252 58 12.0248 58C12.0244 58 12.0241 58 12.0237 58C12.0233 58 12.023 58 12.0226 58C12.0222 58 12.0219 58 12.0215 58C12.0212 58 12.0208 58 12.0205 58C12.0201 58 12.0198 58 12.0194 58C12.0191 58 12.0187 58 12.0184 58C12.0181 58 12.0177 58 12.0174 58C12.0171 58 12.0168 58 12.0165 58C12.0161 58 12.0158 58 12.0155 58C12.0152 58 12.0149 58 12.0146 58C12.0143 58 12.014 58 12.0137 58C12.0134 58 12.0131 58 12.0128 58C12.0125 58 12.0122 58 12.012 58C12.0117 58 12.0114 58 12.0111 58C12.0108 58 12.0106 58 12.0103 58C12.01 58 12.0098 58 12.0095 58C12.0093 58 12.009 58 12.0088 58C12.0085 58 12.0083 58 12.008 58C12.0078 58 12.0075 58 12.0073 58C12.0071 58 12.0068 58 12.0066 58C12.0064 58 12.0062 58 12.0059 58C12.0057 58 12.0055 58 12.0053 58C12.0051 58 12.0049 58 12.0047 58C12.0045 58 12.0043 58 12.0041 58C12.0039 58 12.0037 58 12.0035 58C12.0033 58 12.0031 58 12.0029 58C12.0028 58 12.0026 58 12.0024 58C12.0022 58 12.0021 58 12.0019 58C12.0017 58 12.0016 58 12.0014 58C12.0012 58 12.0011 58 12.0009 58C12.0008 58 12.0006 58 12.0005 58C12.0004 58 12.0002 58 12.0001 58C12 58 11.9998 58 11.9997 58C11.9996 58 11.9994 58 11.9993 58C11.9992 58 11.9991 58 11.999 58C11.9989 58 11.9988 58 11.9987 58C11.9986 58 11.9985 58 11.9984 58C11.9983 58 11.9982 58 11.9981 58C11.998 58 11.9979 58 11.9978 58C11.9978 58 11.9977 58 11.9976 58C11.9975 58 11.9975 58 11.9974 58C11.9973 58 11.9973 58 11.9972 58C11.9972 58 11.9971 58 11.9971 58C11.997 58 11.997 58 11.9969 58C11.9969 58 11.9969 58 11.9968 58C11.9968 58 11.9968 58 11.9968 58C11.9967 58 11.9967 58 11.9967 58C11.9967 58 11.9967 58 11.9967 58C11.9966 58 11.9966 58 11.9966 59ZM10.9966 22.3276V59H12.9966V22.3276H10.9966ZM14.3445 19C12.5037 19 10.9966 20.4817 10.9966 22.3276H12.9966C12.9966 21.6025 13.5919 21 14.3445 21V19ZM50.9898 19H14.3445V21H50.9898V19ZM53.9966 28.1093C53.9966 26.9552 53.9926 23.9992 53.9896 21.9938L51.9896 21.9968C51.9926 24.0029 51.9966 26.957 51.9966 28.1093H53.9966ZM50.9898 21C51.5424 21 51.9888 21.4462 51.9896 21.9968L53.9896 21.9938C53.9872 20.3378 52.6438 19 50.9898 19V21Z" fill="#333333" mask="url(#path-7-inside-1_3836_46544)"/>
<path d="M25.9964 36H46.9964V37H25.9964V36Z" fill="#333333"/>
<path d="M25.9964 39H46.9964V40H25.9964V39Z" fill="#333333"/>
<path d="M25.9964 42H46.9964V43H25.9964V42Z" fill="#333333"/>
<path d="M25.9964 36H26.9964V42H25.9964V36Z" fill="#333333"/>
<path d="M45.9964 36H46.9964V42H45.9964V36Z" fill="#333333"/>
<path d="M40.9964 36H41.9964V42H40.9964V36Z" fill="#333333"/>
<path d="M30.9964 36H31.9964V42H30.9964V36Z" fill="#333333"/>
<path d="M35.9964 36H36.9964V42H35.9964V36Z" fill="#333333"/>
<path d="M48.1423 56.0571H22.9996C26.829 56.0571 27.4866 51.0285 30.1832 51.0285C32.8771 51.0285 32.8771 54.0457 35.5709 54.0457C38.2648 54.0457 37.8158 46 41.8566 46C45.4484 46 46.7953 54.5485 48.1423 56.0571Z" fill="url(#paint0_linear_3836_46544)"/>
<path d="M28.9968 30H33.9968H36.9968V31H28.9968V30Z" fill="#333333"/>
<path d="M23.9968 26C23.9968 25.4477 24.4445 25 24.9968 25H40.9968C41.5491 25 41.9968 25.4477 41.9968 26C41.9968 26.5523 41.5491 27 40.9968 27H24.9968C24.4445 27 23.9968 26.5523 23.9968 26Z" fill="#333333"/>
<path d="M28.9968 33H40.9968V34H28.9968V33Z" fill="#333333"/>
<path fill-rule="evenodd" clip-rule="evenodd" d="M5.9008 48.9988L8.20226 52.1417C9.22152 53.6231 11.3958 53.6909 12.5237 52.3217L15.261 48.9988H25.2766C26.6398 48.9988 27.9703 47.9329 27.9703 46.3488V31.65C27.9703 30.0659 26.6398 29 25.2766 29H1.6932C0.330081 29 -1.00043 30.0659 -1.00043 31.65V46.3488C-1.00043 47.9329 0.33009 48.9988 1.6932 48.9988H5.9008ZM9.83861 50.9912C10.0918 51.3804 10.6828 51.4109 10.98 51.0501L14.109 47.2516C14.2404 47.0921 14.4432 46.9988 14.6581 46.9988H25.2766C25.6597 46.9988 25.9703 46.7078 25.9703 46.3488V31.65C25.9703 31.291 25.6597 31 25.2766 31H1.6932C1.31012 31 0.999573 31.291 0.999573 31.65V46.3488C0.999573 46.7078 1.31012 46.9988 1.6932 46.9988H6.2018C6.44375 46.9988 7.24225 47.2423 7.58906 47.9191L9.83861 50.9912Z" fill="white"/>
<path d="M7.14409 48.1471L7.1622 48.1825L7.18565 48.2145L9.42811 51.2769C9.87257 51.9411 10.8606 51.9815 11.3659 51.368L14.4949 47.5695C14.527 47.5306 14.5856 47.4988 14.6581 47.4988H25.2766C25.9047 47.4988 26.4703 47.0141 26.4703 46.3488V31.65C26.4703 30.9847 25.9047 30.5 25.2766 30.5H1.6932C1.06511 30.5 0.499573 30.9847 0.499573 31.65V46.3488C0.499573 47.0141 1.06511 47.4988 1.6932 47.4988H6.2018C6.20088 47.4988 6.20136 47.4988 6.20323 47.4991C6.21252 47.5001 6.25601 47.5052 6.33159 47.5273C6.4147 47.5516 6.51612 47.5906 6.62111 47.6465C6.83476 47.7602 7.03088 47.9262 7.14409 48.1471Z" fill="url(#paint1_linear_3836_46544)" stroke="#333333"/>
<path fill-rule="evenodd" clip-rule="evenodd" d="M6.06793 37.4953C6.06793 37.2191 6.20584 36.9953 6.37595 36.9953H20.7599C20.93 36.9953 21.0679 37.2191 21.0679 37.4953C21.0679 37.7714 20.93 37.9953 20.7599 37.9953H6.37595C6.20584 37.9953 6.06793 37.7714 6.06793 37.4953Z" fill="white"/>
<path fill-rule="evenodd" clip-rule="evenodd" d="M6.06793 40.531C6.06793 40.2549 6.22805 40.031 6.42557 40.031H17.7103C17.9078 40.031 18.0679 40.2549 18.0679 40.531C18.0679 40.8071 17.9078 41.031 17.7103 41.031H6.42557C6.22805 41.031 6.06793 40.8071 6.06793 40.531Z" fill="white"/>
</g>
<defs>
<linearGradient id="paint0_linear_3836_46544" x1="22.9996" y1="45.6071" x2="29.7484" y2="63.1381" gradientUnits="userSpaceOnUse">
<stop stop-color="#FFC671"/>
<stop offset="0.59375" stop-color="#FF7541"/>
<stop offset="1" stop-color="#FF6F3D"/>
</linearGradient>
<linearGradient id="paint1_linear_3836_46544" x1="0.999621" y1="30.2069" x2="20.7213" y2="55.4103" gradientUnits="userSpaceOnUse">
<stop stop-color="#FFC671"/>
<stop offset="0.59375" stop-color="#FF7541"/>
<stop offset="1" stop-color="#FF6F3D"/>
</linearGradient>
<clipPath id="clip0_3836_46544">
<rect width="64" height="64" fill="white" transform="translate(-0.000427246)"/>
</clipPath>
</defs>
</svg>
