<svg width="40" height="40" viewBox="0 0 40 40" fill="none" xmlns="http://www.w3.org/2000/svg">
<path d="M40 20C40 31.0457 31.0457 40 20 40C8.9543 40 0 31.0457 0 20C0 8.95431 8.9543 0 20 0C31.0457 0 40 8.95431 40 20Z" fill="white"/>
<path d="M9.62967 29.9675L9.89266 29.2071C10.0811 28.6621 10.4956 28.225 11.0298 28.0079L16.3894 25.8299C16.8883 25.5603 17.1991 25.0427 17.1991 24.4798V22.9368C17.1991 22.9368 16.1888 21.7572 15.7631 19.9204C15.4418 19.7989 14.7616 19.3248 14.7616 18.7055V17.1685C14.7616 16.693 15.1806 16.2839 15.4931 16.091V13.6499C15.4931 13.6499 14.9865 9.85103 20.1838 9.85103C25.3811 9.85103 24.8745 13.6499 24.8745 13.6499V16.091C25.1658 16.2286 25.7367 16.5603 25.7367 17.1685V18.595C25.7367 19.1626 24.8745 19.778 24.3934 19.9204C24.1024 20.8162 23.6824 21.67 23.1272 22.4463C22.9872 22.642 22.8563 22.8077 22.7418 22.9368V24.5188C22.7418 25.1013 23.0743 25.6342 23.6006 25.8942L28.8908 28.0145C29.4224 28.2276 29.8371 28.6582 30.0299 29.1974L30.3703 30.149" stroke="#FF6F3D" stroke-width="2" stroke-linecap="round"/>
</svg>
