<svg width="18" height="22" viewBox="0 0 18 22" fill="none" xmlns="http://www.w3.org/2000/svg">
<path d="M0 0V21H18V5.5L12.5 0H0Z" fill="white"/>
<rect x="2" y="2" width="10" height="1" fill="#C4C4C4"/>
<path fill-rule="evenodd" clip-rule="evenodd" d="M0 0H12.5L17 4.5L18 5.5V20.9524V21V22H0V21V20.9524V1V0ZM17 6L12 1H1V20.9524H17V6Z" fill="#D9D9D9"/>
<rect x="2" y="4" width="10" height="1" fill="#C4C4C4"/>
<rect x="3" y="2" width="8" height="1" transform="rotate(90 3 2)" fill="#C4C4C4"/>
<rect x="8" y="2" width="8" height="1" transform="rotate(90 8 2)" fill="#C4C4C4"/>
<rect x="12" y="5" width="6" height="1" transform="rotate(90 12 5)" fill="#C4C4C4"/>
<rect x="16" y="6" width="5" height="1" transform="rotate(90 16 6)" fill="#C4C4C4"/>
<rect x="2" y="6" width="10" height="1" fill="#C4C4C4"/>
<rect x="2" y="8" width="14" height="1" fill="#C4C4C4"/>
<rect x="2" y="10" width="14" height="1" fill="#C4C4C4"/>
<rect y="12" width="18" height="10" fill="#6DA830"/>
<rect width="1" height="4" transform="matrix(-1 0 0 1 4 15)" fill="white"/>
<rect width="1" height="6" transform="matrix(-1 0 0 1 7 14)" fill="white"/>
<rect width="1" height="1" transform="matrix(-1 0 0 1 10 14)" fill="white" fill-opacity="0.5"/>
<rect x="11" y="15" width="1" height="1" transform="rotate(-180 11 15)" fill="white"/>
<rect x="12" y="15" width="1" height="1" transform="rotate(-180 12 15)" fill="white"/>
<rect x="11" y="20" width="2" height="1" transform="rotate(-180 11 20)" fill="white"/>
<rect x="10" y="16" width="1" height="1" transform="rotate(-180 10 16)" fill="white"/>
<rect x="10" y="17" width="1" height="1" transform="rotate(-180 10 17)" fill="white" fill-opacity="0.5"/>
<rect x="12" y="18" width="1" height="1" transform="rotate(-180 12 18)" fill="white" fill-opacity="0.5"/>
<rect width="1" height="1" transform="matrix(-1 0 0 1 12 18)" fill="white"/>
<rect width="1" height="1" transform="matrix(-1 0 0 1 12 19)" fill="white" fill-opacity="0.5"/>
<rect width="1" height="2" transform="matrix(-1 0 0 1 11 16)" fill="white"/>
<rect width="1" height="1" transform="matrix(-1 0 0 1 8 19)" fill="white"/>
<rect width="1" height="1" transform="matrix(1 0 0 -1 4 15)" fill="white"/>
<rect width="1" height="1" transform="matrix(1 0 0 -1 4 16)" fill="white" fill-opacity="0.5"/>
<rect width="1" height="1" transform="matrix(1 0 0 -1 4 19)" fill="white" fill-opacity="0.5"/>
<rect width="1" height="1" transform="matrix(1 0 0 -1 2 16)" fill="white" fill-opacity="0.5"/>
<rect width="1" height="1" transform="matrix(1 0 0 -1 2 19)" fill="white" fill-opacity="0.5"/>
<rect x="3" y="15" width="1" height="1" transform="rotate(180 3 15)" fill="white"/>
<rect width="1" height="1" transform="matrix(1 0 0 -1 4 20)" fill="white"/>
<rect x="3" y="20" width="1" height="1" transform="rotate(-180 3 20)" fill="white"/>
<rect width="1" height="4" transform="matrix(-1 0 0 1 15 15)" fill="white"/>
<rect width="1" height="1" transform="matrix(1 0 0 -1 15 15)" fill="white"/>
<rect width="1" height="1" transform="matrix(1 0 0 -1 15 16)" fill="white" fill-opacity="0.5"/>
<rect width="1" height="1" transform="matrix(1 0 0 -1 15 19)" fill="white" fill-opacity="0.5"/>
<rect width="1" height="1" transform="matrix(1 0 0 -1 13 16)" fill="white" fill-opacity="0.5"/>
<rect width="1" height="1" transform="matrix(1 0 0 -1 13 19)" fill="white" fill-opacity="0.5"/>
<rect x="14" y="15" width="1" height="1" transform="rotate(180 14 15)" fill="white"/>
<rect width="1" height="1" transform="matrix(1 0 0 -1 15 20)" fill="white"/>
<rect x="14" y="20" width="1" height="1" transform="rotate(-180 14 20)" fill="white"/>
<path fill-rule="evenodd" clip-rule="evenodd" d="M12 6L12 1H11V7H12H17V6L12 6Z" fill="#9E9E9E"/>
</svg>
