<svg width="152" height="91" viewBox="0 0 152 91" fill="none" xmlns="http://www.w3.org/2000/svg">
<path d="M1 3.86861C1 2.26504 2.35001 0.965088 4.01001 0.965088H147.99C149.65 0.965088 151 2.26504 151 3.86861V87.0965C151 88.7001 149.65 90 147.99 90H4.01001C2.35001 90 1 88.7001 1 87.0965V3.86861Z" fill="#EFEFEF"/>
<path fill-rule="evenodd" clip-rule="evenodd" d="M4.02002 0H147.98C150.2 0 152 1.56867 152 3.87262V87.1274C152 89.2662 150.2 91 147.98 91H4.02002C1.80002 91 0 89.2662 0 87.1274V3.87262C0 1.73384 1.80002 0 4.02002 0ZM4 1C2.34 1 1 2.58377 1 4.21728V87.1274C1 88.7315 2.35002 90.0318 4.02002 90.0318L148 90C149.66 90 150.99 88.7315 150.99 87.1274V3.87262C150.99 2.26853 149.67 1 148 1H4Z" fill="#333333"/>
<path d="M1 11H151V18H1V11Z" fill="#F9F9F9"/>
<path d="M1 18H10V90H4.05005C2.37005 90 1 88.6915 1 87.0773V18Z" fill="#F5F5F5"/>
<path d="M151 19H143V90H148C149.43 90 151.07 88.8862 151 87.1178V19Z" fill="#F5F5F5"/>
<path d="M1 4.31522C1 2.43338 2.34 1 4 1H148.01C149.6 1 151 2.1654 151 3.93037V11H1V4.31522Z" fill="#444796"/>
<path fill-rule="evenodd" clip-rule="evenodd" d="M151 19H1V18H151V19Z" fill="#CCCCCC"/>
<path fill-rule="evenodd" clip-rule="evenodd" d="M10 18V90H9V18H10Z" fill="#CCCCCC"/>
<path fill-rule="evenodd" clip-rule="evenodd" d="M143 18V90H142V18H143Z" fill="#CCCCCC"/>
<path d="M29 22.5H28.5V23V90V90.5H29H120H120.5V90V23V22.5H120H29Z" fill="white" stroke="#333333"/>
<mask id="mask0_1002_1085" style="mask-type:luminance" maskUnits="userSpaceOnUse" x="34" y="26" width="81" height="65">
<path d="M115 26.9968H34V90.9968H115V26.9968Z" fill="white"/>
<path d="M35 27.9968H114V90H35V27.9968Z" fill="black"/>
</mask>
<g mask="url(#mask0_1002_1085)">
<path d="M35 27.9968V26.9968H34V27.9968H35ZM114 27.9968H115V26.9968H114V27.9968ZM35 28.9968H114V26.9968H35V28.9968ZM113 27.9968V90H115V27.9968H113ZM36 90V27.9968H34V90H36Z" fill="#E2E2E2"/>
</g>
<path fill-rule="evenodd" clip-rule="evenodd" d="M114 36H35V35H114V36ZM114 44H35V43H114V44ZM35 52H114V51H35V52ZM114 60H35V59H114V60ZM35 68H114V67H35V68ZM114 76H35V75H114V76ZM35 84H114V83H35V84Z" fill="#E2E2E2"/>
<path fill-rule="evenodd" clip-rule="evenodd" d="M42 89.9968V27.9968H43V89.9968H42ZM50 89.9968V27.9968H51V89.9968H50ZM58 27.9968V89.9968H59V27.9968H58ZM66 89.9968V27.9968H67V89.9968H66ZM74 27.9968V89.9968H75V27.9968H74ZM82 89.9968V27.9968H83V89.9968H82ZM90 27.9968V89.9968H91V27.9968H90ZM98 89.9968V27.9968H99V89.9968H98ZM106 27.9968V89.9968H107V27.9968H106Z" fill="#E2E2E2"/>
<path d="M61.4663 71.4963H43.6401C42.8117 71.4963 42.1401 72.1679 42.1401 72.9963V81.9967C42.1401 82.8252 42.8117 83.4967 43.6401 83.4967H61.4663C62.2947 83.4967 62.9663 82.8252 62.9663 81.9967V72.9963C62.9663 72.1679 62.2947 71.4963 61.4663 71.4963Z" fill="#BDB9E4" stroke="#444796"/>
<path d="M90 31.4968H59C58.7239 31.4968 58.5 31.7207 58.5 31.9968V46.9968C58.5 47.273 58.7239 47.4968 59 47.4968H90C90.2761 47.4968 90.5 47.273 90.5 46.9968V31.9968C90.5 31.7207 90.2761 31.4968 90 31.4968Z" fill="#BDB9E4" stroke="#444796"/>
<path d="M105.001 71.4963H87.7803C86.9518 71.4963 86.2803 72.1679 86.2803 72.9963V81.9967C86.2803 82.8252 86.9518 83.4967 87.7803 83.4967H105.001C105.829 83.4967 106.501 82.8252 106.501 81.9967V72.9963C106.501 72.1679 105.829 71.4963 105.001 71.4963Z" fill="#BDB9E4" stroke="#444796"/>
<path d="M74.75 48.25H74.25V54.7761H74.75V48.25Z" fill="#333333" stroke="#444796" stroke-width="0.5"/>
<path d="M96.71 62.2522H96.21V70.7465H96.71V62.2522Z" fill="#333333" stroke="#444796" stroke-width="0.5"/>
<path d="M53.75 62.25H53.25V70.7409H53.75V62.25Z" fill="#333333" stroke="#444796" stroke-width="0.5"/>
<path d="M53.25 62.75L53.25 62.25L66.8115 62.25L66.8115 62.75L53.25 62.75Z" fill="#333333" stroke="#444796" stroke-width="0.5"/>
<path d="M82.25 62.75L82.25 62.25L95.8115 62.25L95.8115 62.75L82.25 62.75Z" fill="#333333" stroke="#444796" stroke-width="0.5"/>
<path d="M82.0225 62.1321L74.8536 54.9632C74.6583 54.7679 74.3417 54.7679 74.1464 54.9632L66.9775 62.1321C66.7823 62.3274 66.7823 62.6439 66.9775 62.8392L74.1465 70.0082C74.3417 70.2034 74.6583 70.2034 74.8536 70.0082L82.0225 62.8392C82.2178 62.644 82.2178 62.3274 82.0225 62.1321Z" fill="#FF6F3D" stroke="#FF6F3D"/>
</svg>
