<svg width="152" height="91" viewBox="0 0 152 91" fill="none" xmlns="http://www.w3.org/2000/svg">
<mask id="mask0_8_135" style="mask-type:luminance" maskUnits="userSpaceOnUse" x="0" y="0" width="152" height="91">
<path d="M152 0H0V91H152V0Z" fill="white"/>
</mask>
<g mask="url(#mask0_8_135)">
<path d="M1 4.00022C1 2.34325 2.34901 1 4.01401 1H147.986C149.651 1 151 2.34324 151 4.00022V89.9998C151 91.6568 149.651 93 147.986 93H4.01401C2.34901 93 1 91.6568 1 89.9998V4.00022Z" fill="#EFEFEF"/>
<path fill-rule="evenodd" clip-rule="evenodd" d="M4.01801 0H147.982C150.201 0 152 1.73383 152 3.87262V87.1274C152 89.2662 150.201 91 147.982 91H4.01801C1.79901 91 0 89.2662 0 87.1274V3.87262C0 1.73384 1.79901 0 4.01801 0ZM4 1C2.336 1 1.005 2.26853 1.005 3.87262V87.1274C1.005 88.7315 2.35401 90.0318 4.01801 90.0318H147.982C149.646 90.0318 150.995 88.7315 150.995 87.1274V4C150.995 2.39591 149.664 1 148 1H4Z" fill="#333333"/>
<path d="M1 11H151V18H1V11Z" fill="#F9F9F9"/>
<path d="M1 18H10V90H4.05399C2.36699 90 1 88.6914 1 87.0772V18Z" fill="#F5F5F5"/>
<path d="M151 19H127V90H147.957C149.637 90 151 88.7096 151 87.1178V19Z" fill="#F5F5F5"/>
<path d="M1 4C1 2.16906 2.32701 1 3.98001 1H148.02C149.673 1 151 2.16906 151 4V11H1V4Z" fill="#AA5252"/>
<path fill-rule="evenodd" clip-rule="evenodd" d="M151 19H1V18H151V19Z" fill="#CCCCCC"/>
<path fill-rule="evenodd" clip-rule="evenodd" d="M10 18V90H9V18H10Z" fill="#CCCCCC"/>
<path fill-rule="evenodd" clip-rule="evenodd" d="M128 18V90H127V18H128Z" fill="#CCCCCC"/>
<path d="M22 24H113V90H22V24Z" fill="white"/>
<path fill-rule="evenodd" clip-rule="evenodd" d="M21 23H114V94H21V23ZM22.003 24.0163V92.9837H112.997V24.0163H22.003Z" fill="#333333"/>
<path fill-rule="evenodd" clip-rule="evenodd" d="M72 38.5C72 38.2239 72.257 38 72.574 38H103.426C103.743 38 104 38.2239 104 38.5C104 38.7761 103.743 39 103.426 39H72.574C72.257 39 72 38.7761 72 38.5Z" fill="#CCCCCC"/>
<path fill-rule="evenodd" clip-rule="evenodd" d="M36 45.5371C36 45.261 36.222 45.0371 36.496 45.0371H63.504C63.778 45.0371 64 45.261 64 45.5371C64 45.8133 63.778 46.0371 63.504 46.0371H36.496C36.222 46.0371 36 45.8133 36 45.5371Z" fill="#CCCCCC"/>
<path fill-rule="evenodd" clip-rule="evenodd" d="M36 69.5371C36 69.261 36.222 69.0371 36.496 69.0371H91.504C91.778 69.0371 92 69.261 92 69.5371C92 69.8133 91.778 70.0371 91.504 70.0371H36.496C36.222 70.0371 36 69.8133 36 69.5371Z" fill="#CCCCCC"/>
<path fill-rule="evenodd" clip-rule="evenodd" d="M36 74.5371C36 74.261 36.108 74.0371 36.241 74.0371H63.759C63.892 74.0371 64 74.261 64 74.5371C64 74.8133 63.892 75.0371 63.759 75.0371H36.241C36.108 75.0371 36 74.8133 36 74.5371Z" fill="#CCCCCC"/>
<path fill-rule="evenodd" clip-rule="evenodd" d="M76 74.5371C76 74.261 76.108 74.0371 76.241 74.0371H103.759C103.892 74.0371 104 74.261 104 74.5371C104 74.8133 103.892 75.0371 103.759 75.0371H76.241C76.108 75.0371 76 74.8133 76 74.5371Z" fill="#CCCCCC"/>
<path d="M63 36.5371H37C36.724 36.5371 36.5 36.761 36.5 37.0371V40.0371C36.5 40.3133 36.724 40.5371 37 40.5371H63C63.276 40.5371 63.5 40.3133 63.5 40.0371V37.0371C63.5 36.761 63.276 36.5371 63 36.5371Z" fill="#27ABA3" fill-opacity="0.5" stroke="#27ABA3"/>
<path opacity="0.5" d="M63 79.0371H37C36.448 79.0371 36 79.4848 36 80.0371V83.0371C36 83.5894 36.448 84.0371 37 84.0371H63C63.552 84.0371 64 83.5894 64 83.0371V80.0371C64 79.4848 63.552 79.0371 63 79.0371Z" fill="#27ABA3"/>
<path d="M60.508 81.3815H60.437C60.364 81.3411 60.284 81.3138 60.201 81.3011H59.705H59.209H58.595C58.461 81.3026 58.33 81.2668 58.216 81.1979C58.243 81.1382 58.275 81.0806 58.311 81.0257L58.417 80.8306L58.595 80.4288C58.62 80.3386 58.62 80.2436 58.595 80.1533C58.575 80.0771 58.526 80.011 58.458 79.9683C58.39 79.9257 58.308 79.9098 58.228 79.9238C58.162 79.9086 58.093 79.9086 58.027 79.9238C58.004 79.8264 57.95 79.7384 57.874 79.6713C57.809 79.635 57.736 79.616 57.661 79.616C57.587 79.616 57.513 79.635 57.449 79.6713C57.434 79.5757 57.389 79.4871 57.319 79.4188C57.241 79.3464 57.148 79.2931 57.045 79.2632C56.942 79.2332 56.833 79.2275 56.728 79.2466C56.487 79.2931 56.263 79.3999 56.078 79.5566C55.95 79.6533 55.828 79.7567 55.712 79.8664C55.711 79.7601 55.675 79.6569 55.609 79.5721C55.543 79.4873 55.451 79.4255 55.346 79.3958C55.218 79.3382 55.073 79.3298 54.939 79.3725C54.805 79.4151 54.693 79.5055 54.625 79.6254C54.526 79.7956 54.44 79.9719 54.365 80.1533C54.294 80.157 54.222 80.1443 54.157 80.1164C54.091 80.0885 54.033 80.0461 53.987 79.9926C53.908 79.9013 53.841 79.8012 53.786 79.6943V79.591C53.78 79.5607 53.78 79.5294 53.786 79.4991C53.76 79.4394 53.728 79.3819 53.692 79.327C53.662 79.2709 53.618 79.2229 53.565 79.1869C53.511 79.1509 53.449 79.1281 53.385 79.1204C53.312 79.1246 53.241 79.1482 53.18 79.1887C53.12 79.2292 53.072 79.2849 53.042 79.3499C53.036 79.3879 53.036 79.4267 53.042 79.4647H52.924H52.428C51.22 79.7161 50.035 80.0615 48.884 80.4977C49.201 79.7373 49.695 79.058 50.325 78.512C50.526 78.3399 50.715 78.1792 50.892 78.007C51.009 77.8966 51.102 77.7637 51.164 77.6168C51.195 77.5346 51.204 77.4459 51.19 77.3594C51.175 77.2728 51.138 77.1914 51.081 77.1232C51.002 77.0672 50.907 77.0371 50.809 77.0371C50.712 77.0371 50.617 77.0672 50.538 77.1232C50.41 77.1942 50.291 77.2789 50.183 77.3758C49.704 77.8147 49.258 78.2865 48.848 78.7875L48.423 79.281C48.064 79.6677 47.744 80.0867 47.466 80.5321C47.355 80.7205 47.224 80.8974 47.076 81.0601L46.911 81.2782L46.049 81.7029C44.344 82.4991 42.698 83.408 41.122 84.4231C40.282 84.9723 39.491 85.5906 38.759 86.271C38.244 86.7296 37.777 87.2372 37.365 87.7861C37.242 87.9617 37.138 88.1504 37.058 88.3485C37.02 88.4193 37 88.4981 37 88.578C37 88.658 37.02 88.7368 37.058 88.8076C37.109 88.8778 37.176 88.9352 37.254 88.9751C37.332 89.015 37.419 89.0363 37.507 89.0371H37.673H37.826L38.24 88.9453C39.307 88.5831 40.335 88.1219 41.311 87.568C41.888 87.2444 42.444 86.888 42.977 86.5006L43.26 86.3054L43.449 86.1792C43.544 86.1792 44.631 85.2495 44.773 85.1347C45.198 84.6871 45.6 84.2509 45.954 83.7918C46.308 83.3327 46.828 82.7703 47.135 82.3112L47.242 82.1964C47.312 82.1152 47.391 82.042 47.478 81.9783C47.474 82.0824 47.437 82.1826 47.372 82.2653C47.307 82.3253 47.268 82.4078 47.265 82.4949C47.25 82.5527 47.25 82.6132 47.264 82.6712C47.279 82.7292 47.307 82.7829 47.348 82.8277C47.41 82.8798 47.486 82.9148 47.567 82.9289C47.648 82.943 47.732 82.9359 47.809 82.908C47.928 82.8562 48.034 82.7775 48.116 82.6785C48.186 82.5588 48.241 82.4317 48.281 82.2997C48.336 82.0923 48.376 81.8813 48.399 81.6684C48.399 81.5996 48.399 81.5766 48.529 81.5422L49.829 81.106H49.911L51.01 80.7387L51.648 80.5551H51.802L51.873 80.6125C51.877 80.6583 51.877 80.7044 51.873 80.7502C51.841 80.8343 51.832 80.9247 51.847 81.0131C51.861 81.1014 51.899 81.1848 51.955 81.2552C52.018 81.3232 52.098 81.3731 52.188 81.3994C52.277 81.4257 52.373 81.4275 52.463 81.4045C52.555 81.3894 52.643 81.3583 52.723 81.3126L52.853 81.2552C52.845 81.3008 52.845 81.3474 52.853 81.393C52.913 81.4814 53.006 81.5433 53.113 81.5652C53.196 81.5749 53.28 81.563 53.357 81.5307C53.434 81.4984 53.501 81.4469 53.55 81.3815C53.67 81.2006 53.762 81.0033 53.822 80.7961C54.031 80.9417 54.275 81.0326 54.531 81.0601C54.544 81.1284 54.568 81.1942 54.602 81.2552L54.483 81.4389L54.318 81.6914L54.117 82.0127C53.905 82.3571 53.68 82.7129 53.479 83.0573C53.294 83.3619 53.207 83.714 53.231 84.0673C53.227 84.1375 53.238 84.2078 53.265 84.2732C53.291 84.3386 53.332 84.3976 53.385 84.446C53.438 84.4897 53.501 84.5223 53.568 84.5421C53.635 84.5618 53.705 84.5682 53.775 84.5608C54.13 84.5472 54.474 84.4357 54.767 84.2394C55.397 83.8097 55.986 83.3257 56.527 82.7932C56.925 82.4436 57.288 82.0594 57.614 81.6454C57.701 81.8152 57.848 81.9494 58.027 82.0242C58.119 82.0617 58.214 82.0924 58.311 82.1161C59.049 82.2491 59.806 82.2491 60.544 82.1161C60.599 82.1243 60.654 82.1243 60.709 82.1161C60.762 82.0906 60.807 82.0514 60.838 82.0027C60.869 81.9541 60.886 81.898 60.886 81.8406C60.949 81.7919 60.989 81.721 60.998 81.6435C61.007 81.566 60.984 81.4882 60.934 81.4274C60.884 81.3665 60.811 81.3275 60.731 81.3188C60.651 81.3102 60.571 81.3328 60.508 81.3815ZM55.393 81.6225C55.902 81.5073 56.368 81.257 56.74 80.8994C56.698 80.9781 56.647 81.0514 56.586 81.1175C56.105 81.7193 55.562 82.273 54.968 82.7703C54.628 83.0661 54.265 83.3348 53.881 83.5738C54.148 83.0395 54.456 82.5253 54.802 82.0357L55.074 81.6914C55.196 81.6962 55.318 81.6726 55.428 81.6225H55.393ZM45.34 82.7703L44.997 83.172C44.513 83.7459 44.005 84.3198 43.473 84.8593C43.414 84.9167 43.142 85.1118 42.989 85.2151L42.859 85.3183C42.373 85.6802 41.868 86.0173 41.347 86.3284C40.251 86.98 39.101 87.5406 37.909 88.0042H37.803C38.518 87.1367 39.348 86.3649 40.272 85.7086C41.688 84.6866 43.19 83.7806 44.761 82.9999L45.34 82.7703Z" fill="#333333"/>
<path opacity="0.5" d="M103 79.0371H77C76.448 79.0371 76 79.4848 76 80.0371V83.0371C76 83.5894 76.448 84.0371 77 84.0371H103C103.552 84.0371 104 83.5894 104 83.0371V80.0371C104 79.4848 103.552 79.0371 103 79.0371Z" fill="#27ABA3"/>
<path fill-rule="evenodd" clip-rule="evenodd" d="M88.1 79.2041L88.2 78.904C88.6 78.1041 89.1 76.904 89 76.104C89 75.704 88.7 75.4041 87.8 75.4041C87.4 75.4041 87 75.6041 86.7 75.8041C86.4 76.0041 86.2 76.2041 86 76.504C85.9 76.804 85.8 77.104 85.8 77.504C85.8 77.904 86 78.3041 86.2 78.7041C86.3 78.8041 86.5 79.104 86.8 79.404C87.4 80.104 88.2 81.104 88.7 82.004C89.1 81.704 89.4 81.4041 89.6 81.2041C89.9 80.9041 90.1 80.704 90.4 80.904C90.8 81.104 90.8 81.704 90.8 82.404C90.8 82.804 90.7 83.2041 90.8 83.2041C90.8 83.2041 90.9 82.904 91.3 81.904C91.3 81.804 91.3 81.604 91.3 81.504C91.4 81.304 91.5 81.104 91.6 80.904C92.1 80.204 92.5 80.204 92.5 81.004C92.8 80.504 93.2 79.904 93.3 79.604C93.7 76.604 94.4 73.6041 95.3 73.1041C95.8 72.9041 96.1 73.0041 96.3 73.3041C96.8 74.2041 94.8 78.604 94.4 79.504L94.2 79.8041C94.1 80.4041 94 81.004 94 81.604C94.1 81.504 94.2 81.404 94.4 81.404C94.7 81.204 95 81.104 95.3 81.004C96 80.704 96.7 80.4041 97.2 79.8041C97.1 80.6041 96.9 81.2041 95.7 81.804C95.4 81.904 95.1 82.1041 94.9 82.2041C94.5 82.4041 94.2 82.8041 94 83.2041V83.304L93.9 84.004C93.7 85.404 93.7 86.404 93.2 86.404C92.9 86.404 92.7 85.904 92.7 84.804C92.7 84.304 92.8 83.704 93.1 83.104L93.3 81.7041C92.9 82.2041 92.5 82.604 92.1 82.504C91.4 83.704 90.9 84.004 90.6 83.904C90.2 83.704 90.1 83.004 90.1 82.304C90.1 82.204 90.1 82.104 90.1 82.004C89.9 82.204 89.6 82.5041 89.2 82.7041C89.5 83.5041 89.4 84.204 88.9 84.704C88.2 85.404 87.2 85.404 86.5 85.204C86.1 85.104 85.8 84.804 85.6 84.504C85.4 84.204 85.3 83.804 85.5 83.404C85.7 83.004 86.4 82.604 87.5 82.404C87.7 82.404 87.8 82.304 88 82.304C87.5 81.504 86.8 80.504 86.2 79.904C85.9 79.504 85.7 79.204 85.6 79.104C85.3 78.504 85.1 78.004 85 77.504C85 77.004 85.1 76.504 85.3 76.0041C85.5 75.6041 85.9 75.2041 86.3 75.0041C86.7 74.7041 87.2 74.6041 87.8 74.5041C89.3 74.4041 89.9 75.0041 90 76.0041C90 77.204 89.4 79.0041 88.1 79.2041ZM88.2 84.204C88.4 84.004 88.4 83.604 88.3 83.2041C88.1 83.3041 87.8 83.304 87.6 83.404C86.7 83.504 86.3 83.804 86.2 84.004C86.2 84.104 86.2 84.104 86.2 84.204C86.3 84.304 86.5 84.404 86.7 84.504C87.2 84.604 87.8 84.604 88.2 84.204ZM95 76.3041C95.3 75.4041 95.6 74.604 95.7 74.104C95.4 74.504 95.2 75.3041 95 76.3041Z" fill="#333333"/>
<path d="M103 42.5H73C72.724 42.5 72.5 42.7239 72.5 43V46C72.5 46.2761 72.724 46.5 73 46.5H103C103.276 46.5 103.5 46.2761 103.5 46V43C103.5 42.7239 103.276 42.5 103 42.5Z" fill="#27ABA3" fill-opacity="0.5" stroke="#27ABA3"/>
<path fill-rule="evenodd" clip-rule="evenodd" d="M41 52.5371C41 52.261 41.14 52.0371 41.313 52.0371H60.687C60.86 52.0371 61 52.261 61 52.5371C61 52.8133 60.86 53.0371 60.687 53.0371H41.313C41.14 53.0371 41 52.8133 41 52.5371Z" fill="#CCCCCC"/>
<path fill-rule="evenodd" clip-rule="evenodd" d="M41 62.5371C41 62.261 41.139 62.0371 41.311 62.0371H60.689C60.861 62.0371 61 62.261 61 62.5371C61 62.8133 60.861 63.0371 60.689 63.0371H41.311C41.139 63.0371 41 62.8133 41 62.5371Z" fill="#CCCCCC"/>
<path fill-rule="evenodd" clip-rule="evenodd" d="M41 57.5371C41 57.261 41.159 57.0371 41.355 57.0371H60.645C60.841 57.0371 61 57.261 61 57.5371C61 57.8133 60.841 58.0371 60.645 58.0371H41.355C41.159 58.0371 41 57.8133 41 57.5371Z" fill="#CCCCCC"/>
<path d="M37.5 53.5371C38.052 53.5371 38.5 53.0894 38.5 52.5371C38.5 51.9848 38.052 51.5371 37.5 51.5371C36.948 51.5371 36.5 51.9848 36.5 52.5371C36.5 53.0894 36.948 53.5371 37.5 53.5371Z" stroke="#27ABA3"/>
<path d="M37.5 58.5371C38.052 58.5371 38.5 58.0894 38.5 57.5371C38.5 56.9848 38.052 56.5371 37.5 56.5371C36.948 56.5371 36.5 56.9848 36.5 57.5371C36.5 58.0894 36.948 58.5371 37.5 58.5371Z" stroke="#27ABA3"/>
<path d="M37.5 63.5371C38.052 63.5371 38.5 63.0894 38.5 62.5371C38.5 61.9848 38.052 61.5371 37.5 61.5371C36.948 61.5371 36.5 61.9848 36.5 62.5371C36.5 63.0894 36.948 63.5371 37.5 63.5371Z" stroke="#27ABA3"/>
<path fill-rule="evenodd" clip-rule="evenodd" d="M82 52.5C82 52.2239 82.14 52 82.313 52H101.687C101.86 52 102 52.2239 102 52.5C102 52.7761 101.86 53 101.687 53H82.313C82.14 53 82 52.7761 82 52.5Z" fill="#CCCCCC"/>
<path fill-rule="evenodd" clip-rule="evenodd" d="M82 62.5C82 62.2239 82.139 62 82.311 62H101.689C101.861 62 102 62.2239 102 62.5C102 62.7761 101.861 63 101.689 63H82.311C82.139 63 82 62.7761 82 62.5Z" fill="#CCCCCC"/>
<path fill-rule="evenodd" clip-rule="evenodd" d="M82 57.5C82 57.2239 82.159 57 82.355 57H101.645C101.841 57 102 57.2239 102 57.5C102 57.7761 101.841 58 101.645 58H82.355C82.159 58 82 57.7761 82 57.5Z" fill="#CCCCCC"/>
<path d="M79 51.5H78C77.724 51.5 77.5 51.7239 77.5 52V53C77.5 53.2761 77.724 53.5 78 53.5H79C79.276 53.5 79.5 53.2761 79.5 53V52C79.5 51.7239 79.276 51.5 79 51.5Z" stroke="#27ABA3"/>
<path d="M79 56.5H78C77.724 56.5 77.5 56.7239 77.5 57V58C77.5 58.2761 77.724 58.5 78 58.5H79C79.276 58.5 79.5 58.2761 79.5 58V57C79.5 56.7239 79.276 56.5 79 56.5Z" stroke="#27ABA3"/>
<path d="M79 61.5H78C77.724 61.5 77.5 61.7239 77.5 62V63C77.5 63.2761 77.724 63.5 78 63.5H79C79.276 63.5 79.5 63.2761 79.5 63V62C79.5 61.7239 79.276 61.5 79 61.5Z" stroke="#27ABA3"/>
</g>
</svg>
