<svg width="152" height="91" viewBox="0 0 152 91" fill="none" xmlns="http://www.w3.org/2000/svg">
<g clip-path="url(#clip0_2052_301549)">
<path d="M1 3.935C1 2.31405 2.34934 1 4.01383 1H147.986C149.651 1 151 2.31404 151 3.935V88.065C151 89.686 149.651 91 147.986 91H4.01384C2.34934 91 1 89.686 1 88.065V3.935Z" fill="#EFEFEF"/>
<path d="M9.5 12C9.5 10.6193 10.6193 9.5 12 9.5H140C141.381 9.5 142.5 10.6193 142.5 12V79C142.5 80.3807 141.381 81.5 140 81.5H12C10.6193 81.5 9.5 80.3807 9.5 79V12Z" fill="white" stroke="#333333"/>
<path d="M14.5 20.5H73.5V76.5H14.5V20.5Z" fill="white" stroke="#CCCCCC"/>
<path fill-rule="evenodd" clip-rule="evenodd" d="M20.7192 27.5C20.7192 27.2239 20.9521 27 21.2394 27H49.199C49.4863 27 49.7192 27.2239 49.7192 27.5C49.7192 27.7761 49.4863 28 49.199 28H21.2394C20.9521 28 20.7192 27.7761 20.7192 27.5ZM20.7192 44.5C20.7192 44.2239 20.9577 44 21.2518 44H54.1866C54.4807 44 54.7192 44.2239 54.7192 44.5C54.7192 44.7761 54.4807 45 54.1866 45H21.2518C20.9577 45 20.7192 44.7761 20.7192 44.5ZM21.233 54C20.9493 54 20.7192 54.2239 20.7192 54.5C20.7192 54.7761 20.9493 55 21.233 55H53.2054C53.4891 55 53.7192 54.7761 53.7192 54.5C53.7192 54.2239 53.4891 54 53.2054 54H21.233ZM20.7192 35.5C20.7192 35.2239 20.9493 35 21.2332 35H49.2052C49.4891 35 49.7192 35.2239 49.7192 35.5C49.7192 35.7761 49.4891 36 49.2052 36H21.2332C20.9493 36 20.7192 35.7761 20.7192 35.5ZM21.2344 49C20.9499 49 20.7192 49.2239 20.7192 49.5C20.7192 49.7761 20.9499 50 21.2344 50H49.204C49.4885 50 49.7192 49.7761 49.7192 49.5C49.7192 49.2239 49.4885 49 49.204 49H21.2344Z" fill="#666666"/>
<path d="M21.2518 59C20.9577 59 20.7192 59.2239 20.7192 59.5C20.7192 59.7761 20.9577 60 21.2518 60H54.1866C54.4807 60 54.7192 59.7761 54.7192 59.5C54.7192 59.2239 54.4807 59 54.1866 59H21.2518Z" fill="#666666"/>
<path d="M78.5 20.5H137.5V76.5H78.5V20.5Z" fill="white" stroke="#CCCCCC"/>
<rect x="85" y="27" width="44" height="8" rx="4" fill="#CCCCCC"/>
<rect x="85" y="39" width="34" height="5" rx="2" fill="#AAAAAA"/>
<rect x="85" y="48" width="24" height="4" rx="2" fill="#808080"/>
<rect x="85" y="58" width="24" height="1" rx="0.5" fill="#666666"/>
<rect x="85" y="66" width="24" height="1" rx="0.5" fill="#666666"/>
<rect x="85" y="62" width="34" height="1" rx="0.5" fill="#666666"/>
<g filter="url(#filter0_d_2052_301549)">
<g clip-path="url(#clip1_2052_301549)">
<rect width="43" height="43" rx="2" fill="white"/>
<path d="M39.8999 34.9375H3.10013C1.39217 34.9375 0 33.524 0 31.7898V11.2102C0 9.47603 1.39217 8.0625 3.10013 8.0625H39.8999C41.6079 8.0625 43 9.47603 43 11.2102V31.783C43 33.524 41.6146 34.9307 39.8999 34.9307V34.9375ZM9.85417 28.6667V20.6042L14.3333 25.0833L18.8125 20.6042V28.6339L22.3958 28.6667V14.3648H18.8125L14.3333 19.2604L9.85417 14.3333H6.27083V28.6667H9.85417ZM38.5208 21.4993H34.0417V14.3648H29.5625V21.4993L25.0833 21.5L31.8021 28.6667L38.5208 21.4993Z" fill="#00BA64"/>
<path d="M0 2.6875C0 1.20324 1.20324 0 2.6875 0H40.3125C41.7968 0 43 1.20324 43 2.6875V10.75H0V2.6875Z" fill="#00BA64"/>
<path d="M0 32.25H43V40.3125C43 41.7968 41.7968 43 40.3125 43H2.6875C1.20324 43 0 41.7968 0 40.3125V32.25Z" fill="#00BA64"/>
</g>
</g>
</g>
<defs>
<filter id="filter0_d_2052_301549" x="-15" y="-8" width="73" height="73" filterUnits="userSpaceOnUse" color-interpolation-filters="sRGB">
<feFlood flood-opacity="0" result="BackgroundImageFix"/>
<feColorMatrix in="SourceAlpha" type="matrix" values="0 0 0 0 0 0 0 0 0 0 0 0 0 0 0 0 0 0 127 0" result="hardAlpha"/>
<feOffset dy="7"/>
<feGaussianBlur stdDeviation="7.5"/>
<feColorMatrix type="matrix" values="0 0 0 0 0.333333 0 0 0 0 0.333333 0 0 0 0 0.333333 0 0 0 0.1 0"/>
<feBlend mode="normal" in2="BackgroundImageFix" result="effect1_dropShadow_2052_301549"/>
<feBlend mode="normal" in="SourceGraphic" in2="effect1_dropShadow_2052_301549" result="shape"/>
</filter>
<clipPath id="clip0_2052_301549">
<rect width="152" height="91" fill="white"/>
</clipPath>
<clipPath id="clip1_2052_301549">
<rect width="43" height="43" rx="2" fill="white"/>
</clipPath>
</defs>
</svg>
