<svg width="152" height="91" viewBox="0 0 152 91" fill="none" xmlns="http://www.w3.org/2000/svg">
<mask id="mask0_8_97" style="mask-type:luminance" maskUnits="userSpaceOnUse" x="0" y="0" width="152" height="91">
<path d="M152 0H0V91H152V0Z" fill="white"/>
</mask>
<g mask="url(#mask0_8_97)">
<path d="M1 3.96656C1 2.32817 2.343 1 4 1H148C149.657 1 151 2.32817 151 3.96656V87.0334C151 88.6718 149.657 90 148 90H4C2.343 90 1 88.6718 1 87.0334V3.96656Z" fill="#EFEFEF"/>
<path fill-rule="evenodd" clip-rule="evenodd" d="M4 0H148C150.209 0 152 1.79086 152 4V87.0032C152 89.2123 150.209 91.0032 148 91.0032H4C1.791 91.0032 0 89.2123 0 87.0032V4C0 1.79086 1.791 0 4 0ZM4 1C2.343 1 1 2.34315 1 4V87.0032C1 88.6601 2.343 90.0032 4 90.0032H148C149.657 90.0032 151 88.6601 151 87.0032V4C151 2.34315 149.657 1 148 1H4Z" fill="#333333"/>
<g filter="url(#filter0_d_8_97)">
<path d="M43.824 27.6777C43.824 27.1255 44.271 26.6777 44.824 26.6777H133.322C133.874 26.6777 134.322 27.1254 134.322 27.6777V79.9747C134.322 80.527 133.874 80.9747 133.322 80.9747H44.824C44.271 80.9747 43.824 80.527 43.824 79.9747V27.6777Z" fill="#BDECFF"/>
</g>
<path fill-rule="evenodd" clip-rule="evenodd" d="M44.989 26H133.011C134.109 26 135 26.8907 135 27.9894V80.0106C135 81.1093 134.109 82 133.011 82H44.989C43.891 82 43 81.1093 43 80.0106V27.9895C43 26.8907 43.891 26 44.989 26ZM44.989 26.9947C44.44 26.9947 43.995 27.4401 43.995 27.9895V80.0106C43.995 80.5599 44.44 81.0053 44.989 81.0053H133.011C133.56 81.0053 134.005 80.5599 134.005 80.0106V27.9894C134.005 27.4401 133.56 26.9947 133.011 26.9947H44.989Z" fill="#333333"/>
<mask id="mask1_8_97" style="mask-type:alpha" maskUnits="userSpaceOnUse" x="43" y="30" width="81" height="51">
<path d="M43.688 30.8062H123.838V80.9746H43.688V30.8062Z" fill="#EFEFEF"/>
</mask>
<g mask="url(#mask1_8_97)">
<path d="M61.773 44.8782L87.74 80.975H35.122L61.773 44.8782Z" fill="url(#paint0_linear_8_97)"/>
<path d="M61.737 44.8782L68.161 53.4435L64.49 52.2199L61.737 54.6671L58.984 52.2199L55.312 53.4435L61.737 44.8782Z" fill="white"/>
<path d="M89.304 52.8313L115.271 88.9281H62.653L89.304 52.8313Z" fill="url(#paint1_linear_8_97)"/>
<path d="M89.269 52.8311L95.693 61.3964L92.022 60.1728L89.269 62.62L86.515 60.1728L82.845 61.3964L89.269 52.8311Z" fill="white"/>
</g>
<path fill-rule="evenodd" clip-rule="evenodd" d="M94 46.5C94 46.2239 94.232 46 94.518 46H121.482C121.768 46 122 46.2239 122 46.5C122 46.7761 121.768 47 121.482 47H94.518C94.232 47 94 46.7761 94 46.5Z" fill="white"/>
<path fill-rule="evenodd" clip-rule="evenodd" d="M93 39C93 38.4477 93.441 38 93.986 38H120.014C120.559 38 121 38.4477 121 39C121 39.5523 120.559 40 120.014 40H93.986C93.441 40 93 39.5523 93 39Z" fill="white"/>
<path fill-rule="evenodd" clip-rule="evenodd" d="M94 54.5C94 54.2239 94.232 54 94.518 54H121.482C121.768 54 122 54.2239 122 54.5C122 54.7761 121.768 55 121.482 55H94.518C94.232 55 94 54.7761 94 54.5Z" fill="white"/>
<path fill-rule="evenodd" clip-rule="evenodd" d="M94 62.5C94 62.2239 94.224 62 94.5 62H120.5C120.776 62 121 62.2239 121 62.5C121 62.7761 120.776 63 120.5 63H94.5C94.224 63 94 62.7761 94 62.5Z" fill="white"/>
<path fill-rule="evenodd" clip-rule="evenodd" d="M94 50.5C94 50.2239 94.23 50 94.513 50H125.487C125.77 50 126 50.2239 126 50.5C126 50.7761 125.77 51 125.487 51H94.513C94.23 51 94 50.7761 94 50.5Z" fill="white"/>
<path fill-rule="evenodd" clip-rule="evenodd" d="M94 58.5C94 58.2239 94.23 58 94.513 58H125.487C125.77 58 126 58.2239 126 58.5C126 58.7761 125.77 59 125.487 59H94.513C94.23 59 94 58.7761 94 58.5Z" fill="white"/>
<path fill-rule="evenodd" clip-rule="evenodd" d="M94 66.5C94 66.2239 94.23 66 94.513 66H125.487C125.77 66 126 66.2239 126 66.5C126 66.7761 125.77 67 125.487 67H94.513C94.23 67 94 66.7761 94 66.5Z" fill="white"/>
<path d="M57.83 37.4603C57.83 39.1263 56.479 40.4768 54.813 40.4768C53.147 40.4768 51.797 39.1263 51.797 37.4603C51.797 35.7944 53.147 34.4438 54.813 34.4438C56.479 34.4438 57.83 35.7944 57.83 37.4603Z" fill="url(#paint2_linear_8_97)"/>
<path d="M1 9.4729H150.996V19.099H1V9.4729Z" fill="#F9F9F9"/>
<path d="M1 19H33V90H4.047C2.364 90 1 88.6921 1 87.0787V19Z" fill="#F5F5F5"/>
<path d="M1 4.15788C1 2.41383 2.343 1 4 1H148C149.657 1 151 2.41383 151 4.15788V10H1V4.15788Z" fill="#AA5252"/>
<path fill-rule="evenodd" clip-rule="evenodd" d="M151 19H1V18H151V19Z" fill="#CCCCCC"/>
<path d="M6 24.9945C6 24.4453 6.45001 24 7.00601 24H26.994C27.55 24 28 24.4453 28 24.9945V35.0055C28 35.5547 27.55 36 26.994 36H7.00601C6.45001 36 6 35.5547 6 35.0055V24.9945Z" fill="#D9F4FF"/>
<path fill-rule="evenodd" clip-rule="evenodd" d="M7.01099 23H26.989C28.1 23 29 23.8912 29 24.9906V35.0094C29 36.1088 28.1 37 26.989 37H7.01099C5.89999 37 5 36.1088 5 35.0094V24.9906C5 23.8912 5.89999 23 7.01099 23ZM7.01099 23.9953C6.45599 23.9953 6.005 24.4409 6.005 24.9906V35.0094C6.005 35.5591 6.45599 36.0047 7.01099 36.0047H26.989C27.544 36.0047 27.995 35.5591 27.995 35.0094V24.9906C27.995 24.4409 27.544 23.9953 26.989 23.9953H7.01099Z" fill="#333333"/>
<path d="M6 56.9945C6 56.4453 6.45001 56 7.00601 56H26.994C27.55 56 28 56.4453 28 56.9945V67.0055C28 67.5547 27.55 68 26.994 68H7.00601C6.45001 68 6 67.5547 6 67.0055V56.9945Z" fill="white"/>
<path fill-rule="evenodd" clip-rule="evenodd" d="M7.01099 55H26.989C28.1 55 29 55.8912 29 56.9906V67.0094C29 68.1088 28.1 69 26.989 69H7.01099C5.89999 69 5 68.1088 5 67.0094V56.9906C5 55.8912 5.89999 55 7.01099 55ZM7.01099 55.9953C6.45599 55.9953 6.005 56.4409 6.005 56.9906V67.0094C6.005 67.5591 6.45599 68.0047 7.01099 68.0047H26.989C27.544 68.0047 27.995 67.5591 27.995 67.0094V56.9906C27.995 56.4409 27.544 55.9953 26.989 55.9953H7.01099Z" fill="#EFEFEF"/>
<path d="M6 40.9945C6 40.4453 6.45001 40 7.00601 40H26.994C27.55 40 28 40.4453 28 40.9945V51.0055C28 51.5547 27.55 52 26.994 52H7.00601C6.45001 52 6 51.5547 6 51.0055V40.9945Z" fill="white"/>
<path fill-rule="evenodd" clip-rule="evenodd" d="M7.01099 39H26.989C28.1 39 29 39.8912 29 40.9906V51.0094C29 52.1088 28.1 53 26.989 53H7.01099C5.89999 53 5 52.1088 5 51.0094V40.9906C5 39.8912 5.89999 39 7.01099 39ZM7.01099 39.9953C6.45599 39.9953 6.005 40.4409 6.005 40.9906V51.0094C6.005 51.5591 6.45599 52.0047 7.01099 52.0047H26.989C27.544 52.0047 27.995 51.5591 27.995 51.0094V40.9906C27.995 40.4409 27.544 39.9953 26.989 39.9953H7.01099Z" fill="#EFEFEF"/>
<path d="M6 72.9945C6 72.4453 6.45001 72 7.00601 72H26.994C27.55 72 28 72.4453 28 72.9945V83.0055C28 83.5547 27.55 84 26.994 84H7.00601C6.45001 84 6 83.5547 6 83.0055V72.9945Z" fill="white"/>
<path fill-rule="evenodd" clip-rule="evenodd" d="M7.01099 71H26.989C28.1 71 29 71.8912 29 72.9906V83.0094C29 84.1088 28.1 85 26.989 85H7.01099C5.89999 85 5 84.1088 5 83.0094V72.9906C5 71.8912 5.89999 71 7.01099 71ZM7.01099 71.9953C6.45599 71.9953 6.005 72.4409 6.005 72.9906V83.0094C6.005 83.5591 6.45599 84.0047 7.01099 84.0047H26.989C27.544 84.0047 27.995 83.5591 27.995 83.0094V72.9906C27.995 72.4409 27.544 71.9953 26.989 71.9953H7.01099Z" fill="#EFEFEF"/>
</g>
<defs>
<filter id="filter0_d_8_97" x="43.824" y="26.6777" width="90.498" height="58.297" filterUnits="userSpaceOnUse" color-interpolation-filters="sRGB">
<feFlood flood-opacity="0" result="BackgroundImageFix"/>
<feColorMatrix in="SourceAlpha" type="matrix" values="0 0 0 0 0 0 0 0 0 0 0 0 0 0 0 0 0 0 127 0" result="hardAlpha"/>
<feOffset dy="4"/>
<feColorMatrix type="matrix" values="0 0 0 0 0.333333 0 0 0 0 0.333333 0 0 0 0 0.333333 0 0 0 0.18 0"/>
<feBlend mode="normal" in2="BackgroundImageFix" result="effect1_dropShadow_8_97"/>
<feBlend mode="normal" in="SourceGraphic" in2="effect1_dropShadow_8_97" result="shape"/>
</filter>
<linearGradient id="paint0_linear_8_97" x1="35.123" y1="43.4681" x2="68.342" y2="93.7824" gradientUnits="userSpaceOnUse">
<stop stop-color="#FFC671"/>
<stop offset="0.59375" stop-color="#FF7541"/>
<stop offset="1" stop-color="#FF6F3D"/>
</linearGradient>
<linearGradient id="paint1_linear_8_97" x1="62.654" y1="51.4213" x2="95.873" y2="101.736" gradientUnits="userSpaceOnUse">
<stop stop-color="#FFC671"/>
<stop offset="0.59375" stop-color="#FF7541"/>
<stop offset="1" stop-color="#FF6F3D"/>
</linearGradient>
<linearGradient id="paint2_linear_8_97" x1="54.813" y1="34.4438" x2="54.813" y2="40.4768" gradientUnits="userSpaceOnUse">
<stop stop-color="#FF8E3D"/>
<stop offset="1" stop-color="#FF6F3D"/>
</linearGradient>
</defs>
</svg>
