<svg width="152" height="91" viewBox="0 0 152 91" fill="none" xmlns="http://www.w3.org/2000/svg">
<mask id="mask0_8_24" style="mask-type:luminance" maskUnits="userSpaceOnUse" x="0" y="0" width="152" height="91">
<path d="M152 0H0V91H152V0Z" fill="white"/>
</mask>
<g mask="url(#mask0_8_24)">
<path d="M1 3.86034C1 2.26134 2.34315 0.965088 4 0.965088H147.311C148.968 0.965088 150.311 2.26134 150.311 3.86034V86.8511C150.311 88.4501 148.968 89.7463 147.311 89.7463H4C2.34315 89.7463 1 88.4501 1 86.8511V3.86034Z" fill="#EFEFEF"/>
<path fill-rule="evenodd" clip-rule="evenodd" d="M4.0182 0H147.982C150.201 0 152 1.73383 152 3.87262V87.1274C152 89.2662 150.201 91 147.982 91H4.0182C1.79901 91 0 89.2662 0 87.1274V3.87262C0 1.73384 1.79901 0 4.0182 0ZM4.0182 0.96816C2.35381 0.96816 1.00455 2.26853 1.00455 3.87262V87.1274C1.00455 88.7315 2.35381 90.0318 4.0182 90.0318H147.982C149.646 90.0318 150.995 88.7315 150.995 87.1274V3.87262C150.995 2.26853 149.646 0.96816 147.982 0.96816H4.0182Z" fill="#333333"/>
<path d="M1 11H151V18H1V11Z" fill="#F9F9F9"/>
<path d="M1 18.4304H9.84153V89.753H4C2.34315 89.753 1 88.4568 1 86.8578V18.4304Z" fill="#F5F5F5"/>
<path d="M151 19H127V90H147.824C149.578 90 151 88.7096 151 87.1178V19Z" fill="#F5F5F5"/>
<path d="M1 4.31522C1 2.48427 2.34934 1 4.01383 1H147.986C149.651 1 151 2.48427 151 4.31522V11H1V4.31522Z" fill="#466A93"/>
<path fill-rule="evenodd" clip-rule="evenodd" d="M151 19H1V18H151V19Z" fill="#CCCCCC"/>
<path fill-rule="evenodd" clip-rule="evenodd" d="M10 18V90H9V18H10Z" fill="#CCCCCC"/>
<path fill-rule="evenodd" clip-rule="evenodd" d="M128 18V90H127V18H128Z" fill="#CCCCCC"/>
<path d="M22 24H113V90H22V24Z" fill="white"/>
<path fill-rule="evenodd" clip-rule="evenodd" d="M21 23H114V91H21V23ZM22.0034 23.9733V90.0267H112.997V23.9733H22.0034Z" fill="#333333"/>
<path fill-rule="evenodd" clip-rule="evenodd" d="M36 36.9535C36 36.4269 36.4516 36 37.0087 36H59.9913C60.5484 36 61 36.4269 61 36.9535V60.0465C61 60.5731 60.5484 61 59.9913 61H37.0087C36.4516 61 36 60.5731 36 60.0465V36.9535Z" fill="#BDECFF"/>
<path fill-rule="evenodd" clip-rule="evenodd" d="M36 36.9535C36 36.4269 36.4516 36 37.0087 36H59.9913C60.5484 36 61 36.4269 61 36.9535V60.0465C61 60.5731 60.5484 61 59.9913 61H37.0087C36.4516 61 36 60.5731 36 60.0465V36.9535ZM59.9913 36.9535V60.0465H37.0087V36.9535H59.9913Z" fill="#333333"/>
<path fill-rule="evenodd" clip-rule="evenodd" d="M37 60L44.8684 52.85L49.1053 56.7L55.5122 49L60 55.3684V60" fill="url(#paint0_linear_8_24)"/>
<path d="M45 43C45 44.1046 44.1046 45 43 45C41.8954 45 41 44.1046 41 43C41 41.8954 41.8954 41 43 41C44.1046 41 45 41.8954 45 43Z" fill="url(#paint1_linear_8_24)"/>
<path fill-rule="evenodd" clip-rule="evenodd" d="M70 39.5C70 39.2239 70.2329 39 70.5202 39H98.4798C98.7671 39 99 39.2239 99 39.5C99 39.7761 98.7671 40 98.4798 40H70.5202C70.2329 40 70 39.7761 70 39.5ZM66 49.5C66 49.2239 66.2385 49 66.5326 49H99.4674C99.7615 49 100 49.2239 100 49.5C100 49.7761 99.7615 50 99.4674 50H66.5326C66.2385 50 66 49.7761 66 49.5ZM66.5138 59C66.2301 59 66 59.2239 66 59.5C66 59.7761 66.2301 60 66.5138 60H98.4862C98.7699 60 99 59.7761 99 59.5C99 59.2239 98.7699 59 98.4862 59H66.5138ZM66 44.5C66 44.2239 66.2301 44 66.514 44H94.486C94.7699 44 95 44.2239 95 44.5C95 44.7761 94.7699 45 94.486 45H66.514C66.2301 45 66 44.7761 66 44.5ZM66.5152 54C66.2307 54 66 54.2239 66 54.5C66 54.7761 66.2307 55 66.5152 55H94.4848C94.7693 55 95 54.7761 95 54.5C95 54.2239 94.7693 54 94.4848 54H66.5152ZM42 68.5C42 68.2239 42.2223 68 42.4964 68H97.5036C97.7777 68 98 68.2239 98 68.5C98 68.7761 97.7777 69 97.5036 69H42.4964C42.2223 69 42 68.7761 42 68.5ZM36.5157 73C36.2309 73 36 73.2239 36 73.5C36 73.7761 36.2309 74 36.5157 74H93.4843C93.7691 74 94 73.7761 94 73.5C94 73.2239 93.7691 73 93.4843 73H36.5157ZM36 78.5C36 78.2239 36.2501 78 36.5586 78H100.441C100.75 78 101 78.2239 101 78.5C101 78.7761 100.75 79 100.441 79H36.5586C36.2501 79 36 78.7761 36 78.5ZM36.5586 83C36.2501 83 36 83.2239 36 83.5C36 83.7761 36.2501 84 36.5586 84H100.441C100.75 84 101 83.7761 101 83.5C101 83.2239 100.75 83 100.441 83H36.5586Z" fill="#CCCCCC"/>
<path d="M45.0081 52.6829L47.6812 55.2262L45.0081 56.5243L42.3408 55.2262L45.0081 52.6829Z" fill="white"/>
<path d="M55.358 48.9214L58.8832 52.6891L55.358 54.2469L51.9414 52.6891L55.358 48.9214Z" fill="white"/>
</g>
<defs>
<linearGradient id="paint0_linear_8_24" x1="45.478" y1="52.172" x2="49.8324" y2="63.5085" gradientUnits="userSpaceOnUse">
<stop stop-color="#FFC671"/>
<stop offset="0.59375" stop-color="#FF7541"/>
<stop offset="1" stop-color="#FF6F3D"/>
</linearGradient>
<linearGradient id="paint1_linear_8_24" x1="43" y1="41" x2="43" y2="45" gradientUnits="userSpaceOnUse">
<stop stop-color="#FF8E3D"/>
<stop offset="1" stop-color="#FF6F3D"/>
</linearGradient>
</defs>
</svg>
