<svg width="306" height="408" viewBox="0 0 306 408" fill="none" xmlns="http://www.w3.org/2000/svg">
<rect width="306" height="110" rx="20" fill="black" fill-opacity="0.2"/>
<rect opacity="0.3" x="22.5" y="82.5" width="57" height="57" rx="28.5" transform="rotate(-90 22.5 82.5)" stroke="white"/>
<rect opacity="0.3" x="37.6905" y="67.3098" width="26.619" height="26.619" rx="13.3095" transform="rotate(-90 37.6905 67.3098)" stroke="white"/>
<rect x="100" y="36" width="100" height="8" rx="4" fill="white" fill-opacity="0.13"/>
<rect x="100" y="54" width="170" height="4" rx="2" fill="white" fill-opacity="0.13"/>
<rect x="100" y="68" width="100" height="4" rx="2" fill="white" fill-opacity="0.13"/>
<g clip-path="url(#clip0_10260_19076)">
<rect x="306" y="134" width="140" height="306" rx="20" transform="rotate(90 306 134)" fill="white"/>
<rect x="83" y="210" width="100" height="8" rx="4" fill="#E2E2E2"/>
<rect x="83" y="228" width="190" height="4" rx="2" fill="#E2E2E2"/>
<rect x="83" y="242" width="100" height="4" rx="2" fill="#E2E2E2"/>
<path fill-rule="evenodd" clip-rule="evenodd" d="M53.169 217.853L52.99 214.245C58.8543 218.501 61.5438 226.225 59.0983 233.449C56.0885 242.34 46.4413 247.108 37.5506 244.098C28.6598 241.088 23.8923 231.441 26.902 222.55C29.3516 215.314 36.1979 210.81 43.4547 211.006L41.1287 213.755C36.8237 214.533 33.1066 217.473 31.6456 221.789C29.4719 228.21 33.1153 235.245 39.7833 237.502C46.4514 239.76 53.619 236.384 55.7927 229.963C57.2489 225.662 56.0943 221.085 53.169 217.853ZM48.7004 219.848L48.8236 224.892C48.8236 224.892 48.8764 227.212 47.2676 228.788C45.6588 230.364 43.6828 230.22 42.3972 229.785C41.1116 229.349 39.4544 228.263 39.1338 226.034C38.8131 223.805 40.2641 221.994 40.2641 221.994L43.4261 218.062L45.2677 215.816L46.8483 213.86C46.8483 213.86 47.5737 212.888 47.7805 212.687C47.8215 212.647 47.8635 212.622 47.9047 212.601L47.9347 212.586L47.9401 212.584C48.027 212.546 48.1272 212.538 48.2238 212.571C48.3184 212.603 48.3917 212.668 48.438 212.748L48.4477 212.764L48.4562 212.782C48.4788 212.824 48.4976 212.873 48.5065 212.933C48.5487 213.218 48.5349 214.43 48.5349 214.43L48.6017 216.945L48.7004 219.848Z" fill="#0F5BC8"/>
<mask id="path-12-inside-1_10260_19076" fill="white">
<path d="M19 151H287V191H19V151Z"/>
</mask>
<path d="M287 190.5H19V191.5H287V190.5Z" fill="#D0D7DE" mask="url(#path-12-inside-1_10260_19076)"/>
<rect x="19.25" y="151.25" width="31.5" height="31.5" rx="1.75" stroke="#DEDEDF" stroke-width="0.5"/>
<path fill-rule="evenodd" clip-rule="evenodd" d="M33.6311 177.145L24.3904 172.863C23.6033 172.489 23.6033 171.911 24.3904 171.571L27.6075 170.076L33.5968 172.863C34.384 173.237 35.6503 173.237 36.4033 172.863L42.3926 170.076L45.6097 171.571C46.3968 171.945 46.3968 172.523 45.6097 172.863L36.369 177.145C35.6503 177.485 34.384 177.485 33.6311 177.145Z" fill="#FF6F3D"/>
<path fill-rule="evenodd" clip-rule="evenodd" d="M33.6011 171.846L24.3886 167.559C23.6039 167.185 23.6039 166.606 24.3886 166.266L27.5277 164.803L33.6011 167.627C34.3859 168.001 35.6483 168.001 36.399 167.627L42.4724 164.803L45.6115 166.266C46.3962 166.64 46.3962 167.219 45.6115 167.559L36.399 171.846C35.6142 172.22 34.3518 172.22 33.6011 171.846Z" fill="#95C038"/>
<path fill-rule="evenodd" clip-rule="evenodd" d="M33.6011 166.602L24.3886 162.376C23.6039 162.008 23.6039 161.437 24.3886 161.102L33.6011 156.877C34.3859 156.508 35.6483 156.508 36.399 156.877L45.6115 161.102C46.3962 161.471 46.3962 162.041 45.6115 162.376L36.399 166.602C35.6142 166.937 34.3518 166.937 33.6011 166.602Z" fill="#5DC0E8"/>
<path d="M64.3174 174.211C62.9287 174.211 61.8184 173.792 60.9863 172.954C60.1602 172.11 59.7471 170.994 59.7471 169.605C59.7471 168.094 60.1777 166.913 61.0391 166.063C61.9062 165.214 63.0723 164.789 64.5371 164.789C65.9434 164.789 67.0391 165.202 67.8242 166.028C68.6094 166.854 69.002 168 69.002 169.465C69.002 170.9 68.5771 172.052 67.7275 172.919C66.8838 173.78 65.7471 174.211 64.3174 174.211ZM64.4141 166.415C63.6172 166.415 62.9873 166.693 62.5244 167.25C62.0615 167.807 61.8301 168.574 61.8301 169.553C61.8301 170.496 62.0645 171.24 62.5332 171.785C63.002 172.324 63.6289 172.594 64.4141 172.594C65.2168 172.594 65.832 172.327 66.2598 171.794C66.6934 171.261 66.9102 170.502 66.9102 169.518C66.9102 168.527 66.6934 167.763 66.2598 167.224C65.832 166.685 65.2168 166.415 64.4141 166.415ZM79.1006 174H77.0615V168.929C77.0615 167.247 76.4668 166.406 75.2773 166.406C74.6562 166.406 74.1436 166.641 73.7393 167.109C73.335 167.572 73.1328 168.158 73.1328 168.867V174H71.085V165H73.1328V166.494H73.168C73.8418 165.357 74.8145 164.789 76.0859 164.789C77.0645 164.789 77.8115 165.108 78.3271 165.747C78.8428 166.38 79.1006 167.297 79.1006 168.498V174ZM83.6445 174H81.5967V160.676H83.6445V174ZM94.1035 165L90.043 175.441C89.1992 177.305 88.0156 178.236 86.4922 178.236C86.0645 178.236 85.707 178.198 85.4199 178.122V176.426C85.7422 176.531 86.0352 176.584 86.2988 176.584C87.0605 176.584 87.6289 176.209 88.0039 175.459L88.6104 173.982L85.0332 165H87.292L89.4365 171.539C89.46 171.621 89.5127 171.838 89.5947 172.189H89.6387C89.668 172.055 89.7207 171.844 89.7969 171.557L92.0469 165H94.1035ZM99.3154 174.211C97.9268 174.211 96.8164 173.792 95.9844 172.954C95.1582 172.11 94.7451 170.994 94.7451 169.605C94.7451 168.094 95.1758 166.913 96.0371 166.063C96.9043 165.214 98.0703 164.789 99.5352 164.789C100.941 164.789 102.037 165.202 102.822 166.028C103.607 166.854 104 168 104 169.465C104 170.9 103.575 172.052 102.726 172.919C101.882 173.78 100.745 174.211 99.3154 174.211ZM99.4121 166.415C98.6152 166.415 97.9854 166.693 97.5225 167.25C97.0596 167.807 96.8281 168.574 96.8281 169.553C96.8281 170.496 97.0625 171.24 97.5312 171.785C98 172.324 98.627 172.594 99.4121 172.594C100.215 172.594 100.83 172.327 101.258 171.794C101.691 171.261 101.908 170.502 101.908 169.518C101.908 168.527 101.691 167.763 101.258 167.224C100.83 166.685 100.215 166.415 99.4121 166.415ZM110.873 162.337C110.598 162.179 110.284 162.1 109.933 162.1C108.942 162.1 108.447 162.659 108.447 163.778V165H110.539V166.6H108.456V174H106.417V166.6H104.879V165H106.417V163.541C106.417 162.592 106.728 161.845 107.349 161.3C107.97 160.749 108.746 160.474 109.678 160.474C110.182 160.474 110.58 160.529 110.873 160.641V162.337ZM117.078 162.337C116.803 162.179 116.489 162.1 116.138 162.1C115.147 162.1 114.652 162.659 114.652 163.778V165H116.744V166.6H114.661V174H112.622V166.6H111.084V165H112.622V163.541C112.622 162.592 112.933 161.845 113.554 161.3C114.175 160.749 114.951 160.474 115.883 160.474C116.387 160.474 116.785 160.529 117.078 160.641V162.337ZM119.223 163.11C118.889 163.11 118.602 163.002 118.361 162.785C118.127 162.568 118.01 162.293 118.01 161.959C118.01 161.625 118.127 161.347 118.361 161.124C118.602 160.901 118.889 160.79 119.223 160.79C119.568 160.79 119.861 160.901 120.102 161.124C120.342 161.347 120.462 161.625 120.462 161.959C120.462 162.275 120.342 162.548 120.102 162.776C119.861 162.999 119.568 163.11 119.223 163.11ZM120.233 174H118.194V165H120.233V174ZM129.348 173.587C128.627 174.003 127.774 174.211 126.79 174.211C125.454 174.211 124.376 173.795 123.556 172.963C122.735 172.125 122.325 171.041 122.325 169.711C122.325 168.229 122.765 167.039 123.644 166.143C124.528 165.24 125.709 164.789 127.186 164.789C128.006 164.789 128.729 164.933 129.356 165.22V167.118C128.729 166.649 128.062 166.415 127.353 166.415C126.491 166.415 125.785 166.708 125.234 167.294C124.684 167.874 124.408 168.636 124.408 169.579C124.408 170.511 124.666 171.246 125.182 171.785C125.703 172.324 126.4 172.594 127.273 172.594C128.006 172.594 128.697 172.333 129.348 171.812V173.587ZM138.998 170.054H132.863C132.887 170.886 133.142 171.527 133.628 171.979C134.12 172.43 134.794 172.655 135.649 172.655C136.61 172.655 137.492 172.368 138.295 171.794V173.438C137.475 173.953 136.391 174.211 135.043 174.211C133.719 174.211 132.679 173.804 131.923 172.989C131.173 172.169 130.798 171.018 130.798 169.535C130.798 168.135 131.211 166.995 132.037 166.116C132.869 165.231 133.9 164.789 135.131 164.789C136.361 164.789 137.313 165.185 137.987 165.976C138.661 166.767 138.998 167.865 138.998 169.271V170.054ZM137.029 168.612C137.023 167.88 136.851 167.312 136.511 166.907C136.171 166.497 135.702 166.292 135.104 166.292C134.519 166.292 134.021 166.506 133.61 166.934C133.206 167.361 132.957 167.921 132.863 168.612H137.029ZM145.678 169.834H140.879V168.331H145.678V169.834ZM161.639 174H159.6V169.096C159.6 168.152 159.465 167.47 159.195 167.048C158.932 166.626 158.483 166.415 157.851 166.415C157.317 166.415 156.863 166.682 156.488 167.215C156.119 167.748 155.935 168.387 155.935 169.131V174H153.887V168.929C153.887 167.253 153.295 166.415 152.111 166.415C151.561 166.415 151.106 166.667 150.749 167.171C150.397 167.675 150.222 168.328 150.222 169.131V174H148.183V165H150.222V166.424H150.257C150.907 165.334 151.854 164.789 153.096 164.789C153.717 164.789 154.259 164.962 154.722 165.308C155.19 165.647 155.51 166.096 155.68 166.652C156.348 165.41 157.344 164.789 158.668 164.789C160.648 164.789 161.639 166.011 161.639 168.454V174ZM171.034 174H169.057V172.594H169.021C168.4 173.672 167.489 174.211 166.288 174.211C165.403 174.211 164.709 173.971 164.205 173.49C163.707 173.01 163.458 172.374 163.458 171.583C163.458 169.884 164.437 168.894 166.394 168.612L169.065 168.234C169.065 166.951 168.456 166.31 167.237 166.31C166.165 166.31 165.198 166.679 164.337 167.417V165.633C165.286 165.07 166.382 164.789 167.624 164.789C169.897 164.789 171.034 165.908 171.034 168.146V174ZM169.065 169.579L167.176 169.843C166.59 169.919 166.147 170.062 165.849 170.273C165.556 170.479 165.409 170.842 165.409 171.363C165.409 171.744 165.544 172.058 165.813 172.304C166.089 172.544 166.455 172.664 166.912 172.664C167.533 172.664 168.046 172.447 168.45 172.014C168.86 171.574 169.065 171.023 169.065 170.361V169.579ZM178.276 173.903C177.878 174.103 177.354 174.202 176.703 174.202C174.957 174.202 174.084 173.364 174.084 171.688V166.6H172.581V165H174.084V162.917L176.123 162.337V165H178.276V166.6H176.123V171.1C176.123 171.633 176.22 172.014 176.413 172.242C176.606 172.471 176.929 172.585 177.38 172.585C177.726 172.585 178.024 172.485 178.276 172.286V173.903ZM184.78 173.903C184.382 174.103 183.857 174.202 183.207 174.202C181.461 174.202 180.588 173.364 180.588 171.688V166.6H179.085V165H180.588V162.917L182.627 162.337V165H184.78V166.6H182.627V171.1C182.627 171.633 182.724 172.014 182.917 172.242C183.11 172.471 183.433 172.585 183.884 172.585C184.229 172.585 184.528 172.485 184.78 172.286V173.903ZM194.053 170.054H187.918C187.941 170.886 188.196 171.527 188.683 171.979C189.175 172.43 189.849 172.655 190.704 172.655C191.665 172.655 192.547 172.368 193.35 171.794V173.438C192.529 173.953 191.445 174.211 190.098 174.211C188.773 174.211 187.733 173.804 186.978 172.989C186.228 172.169 185.853 171.018 185.853 169.535C185.853 168.135 186.266 166.995 187.092 166.116C187.924 165.231 188.955 164.789 190.186 164.789C191.416 164.789 192.368 165.185 193.042 165.976C193.716 166.767 194.053 167.865 194.053 169.271V170.054ZM192.084 168.612C192.078 167.88 191.905 167.312 191.565 166.907C191.226 166.497 190.757 166.292 190.159 166.292C189.573 166.292 189.075 166.506 188.665 166.934C188.261 167.361 188.012 167.921 187.918 168.612H192.084ZM201.216 166.942C200.97 166.749 200.615 166.652 200.152 166.652C199.549 166.652 199.045 166.925 198.641 167.47C198.236 168.015 198.034 168.756 198.034 169.693V174H195.995V165H198.034V166.854H198.069C198.269 166.222 198.573 165.729 198.983 165.378C199.399 165.021 199.862 164.842 200.372 164.842C200.741 164.842 201.022 164.897 201.216 165.009V166.942ZM216.113 174H214.074V169.096C214.074 168.152 213.939 167.47 213.67 167.048C213.406 166.626 212.958 166.415 212.325 166.415C211.792 166.415 211.338 166.682 210.963 167.215C210.594 167.748 210.409 168.387 210.409 169.131V174H208.361V168.929C208.361 167.253 207.77 166.415 206.586 166.415C206.035 166.415 205.581 166.667 205.224 167.171C204.872 167.675 204.696 168.328 204.696 169.131V174H202.657V165H204.696V166.424H204.731C205.382 165.334 206.328 164.789 207.57 164.789C208.191 164.789 208.733 164.962 209.196 165.308C209.665 165.647 209.984 166.096 210.154 166.652C210.822 165.41 211.818 164.789 213.143 164.789C215.123 164.789 216.113 166.011 216.113 168.454V174ZM222.591 174.211C221.202 174.211 220.092 173.792 219.26 172.954C218.434 172.11 218.021 170.994 218.021 169.605C218.021 168.094 218.451 166.913 219.312 166.063C220.18 165.214 221.346 164.789 222.811 164.789C224.217 164.789 225.312 165.202 226.098 166.028C226.883 166.854 227.275 168 227.275 169.465C227.275 170.9 226.851 172.052 226.001 172.919C225.157 173.78 224.021 174.211 222.591 174.211ZM222.688 166.415C221.891 166.415 221.261 166.693 220.798 167.25C220.335 167.807 220.104 168.574 220.104 169.553C220.104 170.496 220.338 171.24 220.807 171.785C221.275 172.324 221.902 172.594 222.688 172.594C223.49 172.594 224.105 172.327 224.533 171.794C224.967 171.261 225.184 170.502 225.184 169.518C225.184 168.527 224.967 167.763 224.533 167.224C224.105 166.685 223.49 166.415 222.688 166.415ZM228.796 173.719V171.829C229.558 172.409 230.398 172.699 231.318 172.699C232.549 172.699 233.164 172.336 233.164 171.609C233.164 171.404 233.111 171.231 233.006 171.091C232.9 170.944 232.757 170.815 232.575 170.704C232.399 170.593 232.188 170.493 231.942 170.405C231.702 170.317 231.433 170.218 231.134 170.106C230.765 169.96 230.431 169.805 230.132 169.641C229.839 169.477 229.593 169.292 229.394 169.087C229.2 168.876 229.054 168.639 228.954 168.375C228.854 168.111 228.805 167.804 228.805 167.452C228.805 167.019 228.907 166.638 229.112 166.31C229.317 165.976 229.593 165.697 229.938 165.475C230.284 165.246 230.677 165.076 231.116 164.965C231.556 164.848 232.01 164.789 232.479 164.789C233.311 164.789 234.055 164.915 234.711 165.167V166.951C234.078 166.518 233.352 166.301 232.531 166.301C232.273 166.301 232.039 166.327 231.828 166.38C231.623 166.433 231.447 166.506 231.301 166.6C231.154 166.693 231.04 166.808 230.958 166.942C230.876 167.071 230.835 167.215 230.835 167.373C230.835 167.566 230.876 167.73 230.958 167.865C231.04 168 231.16 168.12 231.318 168.226C231.482 168.325 231.676 168.419 231.898 168.507C232.127 168.589 232.388 168.68 232.681 168.779C233.067 168.938 233.413 169.099 233.718 169.263C234.028 169.427 234.292 169.614 234.509 169.825C234.726 170.03 234.893 170.271 235.01 170.546C235.127 170.815 235.186 171.138 235.186 171.513C235.186 171.97 235.08 172.368 234.869 172.708C234.658 173.048 234.377 173.329 234.025 173.552C233.674 173.774 233.267 173.938 232.804 174.044C232.347 174.155 231.863 174.211 231.354 174.211C230.369 174.211 229.517 174.047 228.796 173.719ZM241.874 173.903C241.476 174.103 240.951 174.202 240.301 174.202C238.555 174.202 237.682 173.364 237.682 171.688V166.6H236.179V165H237.682V162.917L239.721 162.337V165H241.874V166.6H239.721V171.1C239.721 171.633 239.817 172.014 240.011 172.242C240.204 172.471 240.526 172.585 240.978 172.585C241.323 172.585 241.622 172.485 241.874 172.286V173.903Z" fill="#1F2328"/>
<rect x="255.25" y="156.75" width="37.5" height="20.5" rx="10.25" stroke="#D0D7DE" stroke-width="0.5"/>
<rect x="261" y="165.5" width="26" height="3" rx="1.5" fill="#E2E2E2"/>
</g>
<rect y="298" width="306" height="110" rx="20" fill="black" fill-opacity="0.2"/>
<rect opacity="0.3" x="39.4713" y="364.528" width="21.0574" height="21.0574" transform="rotate(-90 39.4713 364.528)" stroke="white"/>
<rect opacity="0.3" x="21.7071" y="354" width="40.0122" height="40.0122" transform="rotate(-45 21.7071 354)" stroke="white"/>
<rect x="99" y="337" width="100" height="8" rx="4" fill="white" fill-opacity="0.13"/>
<rect x="99" y="354" width="170" height="4" rx="2" fill="white" fill-opacity="0.13"/>
<rect x="99" y="367" width="100" height="4" rx="2" fill="white" fill-opacity="0.13"/>
<defs>
<clipPath id="clip0_10260_19076">
<rect x="306" y="134" width="140" height="306" rx="20" transform="rotate(90 306 134)" fill="white"/>
</clipPath>
</defs>
</svg>
