<svg width="466" height="463" viewBox="0 0 466 463" fill="none" xmlns="http://www.w3.org/2000/svg">
<path fill-rule="evenodd" clip-rule="evenodd" d="M238 137.002C183.304 137.002 138.996 179.999 138.996 233C138.996 286.001 183.304 328.998 238 328.998C292.696 328.998 337.004 286.001 337.004 233C337.004 179.999 292.696 137.002 238 137.002ZM138 233C138 179.411 182.789 136 238 136C293.211 136 338 179.411 338 233C338 286.589 293.211 330 238 330C182.789 330 138 286.589 138 233Z" fill="#EFEFEF"/>
<path fill-rule="evenodd" clip-rule="evenodd" d="M238.5 165.999C200.098 165.999 168.999 196.014 168.999 233C168.999 269.986 200.098 300.001 238.5 300.001C276.902 300.001 308.001 269.986 308.001 233C308.001 196.014 276.902 165.999 238.5 165.999ZM168 233C168 195.428 199.581 165 238.5 165C277.419 165 309 195.428 309 233C309 270.572 277.419 301 238.5 301C199.581 301 168 270.572 168 233Z" fill="#EFEFEF"/>
<path fill-rule="evenodd" clip-rule="evenodd" d="M243 214C243 212.895 242.104 212 241 212H234C232.895 212 232 212.895 232 214V225C232 226.104 231.104 227 230 227L220 227C218.895 227 218 227.895 218 229L218 236C218 237.105 218.895 238 220 238H230C231.104 238 232 238.895 232 240V250C232 251.105 232.895 252 234 252H241C242.104 252 243 251.105 243 250V240C243 238.895 243.895 238 245 238H256C257.105 238 258 237.105 258 236V229C258 227.895 257.105 227 256 227L245 227C243.895 227 243 226.104 243 225V214Z" fill="#EFEFEF"/>
<path fill-rule="evenodd" clip-rule="evenodd" d="M238.5 46.9982C132.167 46.9982 45.9985 130.067 45.9985 232.5C45.9985 334.933 132.167 418.002 238.5 418.002C344.833 418.002 431.002 334.933 431.002 232.5C431.002 130.067 344.833 46.9982 238.5 46.9982ZM45 232.5C45 129.482 131.65 46 238.5 46C345.35 46 432 129.482 432 232.5C432 335.518 345.35 419 238.5 419C131.65 419 45 335.518 45 232.5Z" fill="#EFEFEF"/>
<path fill-rule="evenodd" clip-rule="evenodd" d="M398.522 203C396.577 203 395 204.563 395 206.491V271.509C395 273.437 396.577 275 398.522 275H445.478C447.423 275 449 273.437 449 271.509V220.013C449 219.087 448.629 218.199 447.968 217.544L434.184 204.023C433.523 203.368 432.627 203 431.693 203H398.522Z" fill="#EFEFEF"/>
<path fill-rule="evenodd" clip-rule="evenodd" d="M448.672 216.835C449.522 217.678 450 218.822 450 220.015V271.504C450 273.99 447.968 276 445.47 276H398.53C396.032 276 394 273.99 394 271.504V206.496C394 204.01 396.032 202 398.53 202H431.69C432.889 202 434.04 202.472 434.89 203.313C434.891 203.314 434.891 203.315 434.892 203.316L448.672 216.835ZM434.179 204.027C433.519 203.373 432.624 203.005 431.69 203.005H398.53C396.586 203.005 395.01 204.568 395.01 206.496V271.504C395.01 273.432 396.586 274.995 398.53 274.995H445.47C447.414 274.995 448.99 273.432 448.99 271.504V220.015C448.99 219.09 448.619 218.202 447.959 217.547L434.179 204.027Z" fill="#333333"/>
<path fill-rule="evenodd" clip-rule="evenodd" d="M405.522 203C403.577 203 402 204.563 402 206.491V271.509C402 273.437 403.577 275 405.522 275H452.478C454.423 275 456 273.437 456 271.509V220.013C456 219.087 455.629 218.199 454.968 217.544L441.184 204.023C440.523 203.368 439.627 203 438.693 203H405.522Z" fill="#EFEFEF"/>
<path fill-rule="evenodd" clip-rule="evenodd" d="M455.672 216.835C456.522 217.678 457 218.822 457 220.015V271.504C457 273.99 454.968 276 452.47 276H405.53C403.032 276 401 273.99 401 271.504V206.496C401 204.01 403.032 202 405.53 202H438.69C439.889 202 441.04 202.472 441.89 203.313C441.891 203.314 441.891 203.315 441.892 203.316L455.672 216.835ZM441.179 204.027C440.519 203.373 439.624 203.005 438.69 203.005H405.53C403.586 203.005 402.01 204.568 402.01 206.496V271.504C402.01 273.432 403.586 274.995 405.53 274.995H452.47C454.414 274.995 455.99 273.432 455.99 271.504V220.015C455.99 219.09 455.619 218.202 454.959 217.547L441.179 204.027Z" fill="#333333"/>
<path fill-rule="evenodd" clip-rule="evenodd" d="M413.522 203C411.577 203 410 204.563 410 206.491V271.509C410 273.437 411.577 275 413.522 275H460.478C462.423 275 464 273.437 464 271.509V220.013C464 219.087 463.629 218.199 462.968 217.544L449.184 204.023C448.523 203.368 447.627 203 446.693 203H413.522Z" fill="white"/>
<path fill-rule="evenodd" clip-rule="evenodd" d="M462.672 216.835C463.522 217.678 464 218.822 464 220.015V271.504C464 273.99 461.968 276 459.47 276H412.53C410.032 276 408 273.99 408 271.504V206.496C408 204.01 410.032 202 412.53 202H445.69C446.889 202 448.04 202.472 448.89 203.313C448.891 203.314 448.891 203.315 448.892 203.316L462.672 216.835ZM448.179 204.027C447.519 203.373 446.624 203.005 445.69 203.005H412.53C410.586 203.005 409.01 204.568 409.01 206.496V271.504C409.01 273.432 410.586 274.995 412.53 274.995H459.47C461.414 274.995 462.99 273.432 462.99 271.504V220.015C462.99 219.09 462.619 218.202 461.959 217.547L448.179 204.027Z" fill="#333333"/>
<path d="M447 203L463 219H450.15C448.41 219 447 217.567 447 215.8V203Z" fill="url(#paint0_linear)"/>
<path d="M386.993 254.174C384.509 249.663 383.45 243.999 383.502 236.01C387.015 235.967 389.967 235.45 392.567 234.273C395.134 233.111 397.325 231.318 399.365 228.762C401.606 231.286 403.786 233.078 406.23 234.248C408.701 235.431 411.409 235.963 414.669 236.01C414.885 243.665 413.827 249.453 411.361 254.111C408.884 258.791 404.957 262.385 399.347 265.585C393.46 262.138 389.49 258.708 386.993 254.174Z" fill="url(#paint1_linear)" stroke="white" stroke-linejoin="round"/>
<path fill-rule="evenodd" clip-rule="evenodd" d="M404.92 243.132C405.387 243.535 405.452 244.257 405.066 244.745L399.013 252.382C398.812 252.635 398.517 252.786 398.203 252.796C397.889 252.807 397.585 252.677 397.369 252.438L393.91 248.62C393.494 248.16 393.513 247.435 393.954 247.001C394.394 246.566 395.089 246.586 395.505 247.046L398.112 249.924L403.375 243.284C403.761 242.797 404.453 242.729 404.92 243.132Z" fill="white"/>
<path fill-rule="evenodd" clip-rule="evenodd" d="M417 235.499C417 235.224 417.437 235 417.975 235H455.025C455.563 235 456 235.224 456 235.499C456 235.775 455.563 235.999 455.025 235.999H417.975C417.437 235.999 417 235.775 417 235.499Z" fill="#333333"/>
<path fill-rule="evenodd" clip-rule="evenodd" d="M417 241.528C417 241.253 417.437 241.029 417.975 241.029H455.025C455.563 241.029 456 241.253 456 241.528C456 241.804 455.563 242.028 455.025 242.028H417.975C417.437 242.028 417 241.804 417 241.528Z" fill="#333333"/>
<path fill-rule="evenodd" clip-rule="evenodd" d="M417 247.558C417 247.282 417.437 247.058 417.975 247.058H455.025C455.563 247.058 456 247.282 456 247.558C456 247.833 455.563 248.057 455.025 248.057H417.975C417.437 248.057 417 247.833 417 247.558Z" fill="#333333"/>
<path fill-rule="evenodd" clip-rule="evenodd" d="M417 253.5C417 253.224 417.437 253 417.975 253H455.025C455.563 253 456 253.224 456 253.5C456 253.776 455.563 254 455.025 254H417.975C417.437 254 417 253.776 417 253.5Z" fill="#333333"/>
<path fill-rule="evenodd" clip-rule="evenodd" d="M416.286 225.658L417.124 226.051H441.084L441.923 225.658C442.053 225.951 442.029 226.293 441.859 226.564C441.69 226.836 441.398 227 441.084 227H417.124C416.81 227 416.518 226.836 416.349 226.564C416.179 226.293 416.155 225.951 416.286 225.658ZM440.499 225.103C440.915 225.669 441.084 226.051 441.084 226.051C441.923 225.658 441.922 225.657 441.922 225.657L441.922 225.655L441.92 225.652L441.917 225.644L441.906 225.622C441.898 225.605 441.887 225.582 441.874 225.554C441.846 225.499 441.807 225.424 441.755 225.332C441.652 225.148 441.497 224.895 441.283 224.597C440.854 224.001 440.183 223.224 439.2 222.452C437.22 220.898 434.027 219.412 429.104 219.412C424.181 219.412 420.988 220.898 419.008 222.452C418.025 223.224 417.355 224.001 416.925 224.597C416.711 224.895 416.557 225.148 416.453 225.332C416.401 225.424 416.362 225.499 416.335 225.554C416.321 225.582 416.31 225.605 416.302 225.622L416.292 225.644L416.288 225.652L416.287 225.655L416.286 225.657C416.286 225.657 416.286 225.658 417.124 226.051C417.124 226.051 417.293 225.669 417.709 225.103C418.897 223.484 422.097 220.36 429.104 220.36C436.111 220.36 439.311 223.484 440.499 225.103ZM440.248 226.451L440.248 226.449C440.249 226.451 440.249 226.451 440.248 226.451ZM417.96 226.451C417.96 226.451 417.96 226.45 417.961 226.448L417.96 226.451Z" fill="#333333"/>
<path d="M426.34 217.514H431.869V221.941L429.104 224.154L426.34 221.941V217.514Z" fill="white"/>
<path d="M434.634 213.72C434.634 216.864 432.158 219.412 429.104 219.412C426.051 219.412 423.575 216.864 423.575 213.72C423.575 210.577 426.051 208.029 429.104 208.029C432.158 208.029 434.634 210.577 434.634 213.72Z" fill="white"/>
<path fill-rule="evenodd" clip-rule="evenodd" d="M429.104 218.463C431.649 218.463 433.712 216.34 433.712 213.72C433.712 211.101 431.649 208.978 429.104 208.978C426.559 208.978 424.497 211.101 424.497 213.72C424.497 216.34 426.559 218.463 429.104 218.463ZM429.104 219.412C432.158 219.412 434.634 216.864 434.634 213.72C434.634 210.577 432.158 208.029 429.104 208.029C426.051 208.029 423.575 210.577 423.575 213.72C423.575 216.864 426.051 219.412 429.104 219.412Z" fill="#333333"/>
<path fill-rule="evenodd" clip-rule="evenodd" d="M428.562 209.015C426.53 209.256 424.958 210.659 424.582 212.739C424.526 213.052 424.497 213.379 424.497 213.72C424.819 213.665 425.128 213.59 425.423 213.497C426.934 213.023 428.085 212.078 428.76 210.797C428.905 210.522 429.028 210.231 429.128 209.927C429.152 209.853 429.175 209.779 429.196 209.703C429.239 209.779 429.282 209.855 429.327 209.932C429.48 210.195 429.642 210.463 429.817 210.725C430.537 211.808 431.463 212.811 432.785 213.136C433.075 213.207 433.383 213.246 433.712 213.246C433.712 212.937 433.644 212.614 433.521 212.292C432.977 210.861 431.362 209.425 429.877 209.064C429.645 209.008 429.417 208.978 429.196 208.978C428.981 208.978 428.769 208.99 428.562 209.015ZM429.333 211.661C430.278 212.956 431.644 214.195 433.712 214.195C434.221 214.195 434.634 213.77 434.634 213.246C434.634 211.906 433.772 210.604 432.808 209.7C431.833 208.784 430.492 208.029 429.196 208.029C426.075 208.029 423.575 210.311 423.575 213.72C423.575 213.999 423.694 214.264 423.901 214.444C424.108 214.625 424.382 214.702 424.649 214.656C426.699 214.302 428.344 213.241 429.333 211.661Z" fill="#333333"/>
<path fill-rule="evenodd" clip-rule="evenodd" d="M431.869 217.594C432.124 217.594 432.33 217.806 432.33 218.068V221.51C432.33 221.642 432.277 221.767 432.183 221.857L429.418 224.502C429.241 224.671 428.968 224.671 428.791 224.502L426.026 221.857C425.932 221.767 425.879 221.642 425.879 221.51V218.463C425.879 218.201 426.085 217.989 426.34 217.989C426.594 217.989 426.801 218.201 426.801 218.463V221.303L429.104 223.507L431.408 221.303V218.068C431.408 217.806 431.615 217.594 431.869 217.594Z" fill="#333333"/>
<path d="M276.496 400V400.009L276.497 400.018C276.589 402.543 274.782 404.471 272.695 404.471H213.226C211.249 404.471 209.5 402.574 209.5 400.14V386.831C209.5 384.397 211.249 382.5 213.226 382.5H272.695C274.701 382.5 276.496 384.289 276.496 386.691V400ZM276.496 425V425.01L276.497 425.019C276.588 427.431 274.779 429.44 272.695 429.44H213.226C211.249 429.44 209.5 427.543 209.5 425.109V411.8C209.5 409.366 211.249 407.469 213.226 407.469H272.695C274.697 407.469 276.496 409.284 276.496 411.692V425ZM276.421 450.077V450.087L276.421 450.096C276.514 452.519 274.77 454.5 272.695 454.5H213.226C211.26 454.5 209.5 452.525 209.5 450.077V436.769C209.5 434.343 211.241 432.5 213.226 432.5H272.695C274.68 432.5 276.421 434.343 276.421 436.769V450.077Z" fill="url(#paint2_linear)" stroke="#333333" stroke-miterlimit="10"/>
<path d="M228.51 393.007C227.681 393.007 227.009 392.335 227.009 391.506C227.009 390.677 227.681 390.005 228.51 390.005C229.339 390.005 230.01 390.677 230.01 391.506C230.01 392.335 229.339 393.007 228.51 393.007Z" fill="white"/>
<path d="M230.511 397.01C229.682 397.01 229.01 396.338 229.01 395.509C229.01 394.68 229.682 394.008 230.511 394.008C231.34 394.008 232.012 394.68 232.012 395.509C232.012 396.338 231.34 397.01 230.511 397.01Z" fill="white"/>
<path d="M224.508 393.007C223.679 393.007 223.007 392.335 223.007 391.506C223.007 390.677 223.679 390.005 224.508 390.005C225.337 390.005 226.009 390.677 226.009 391.506C226.009 392.335 225.337 393.007 224.508 393.007Z" fill="white"/>
<path d="M226.509 397.01C225.68 397.01 225.008 396.338 225.008 395.509C225.008 394.68 225.68 394.008 226.509 394.008C227.338 394.008 228.01 394.68 228.01 395.509C228.01 396.338 227.338 397.01 226.509 397.01Z" fill="white"/>
<path d="M220.506 393.007C219.677 393.007 219.005 392.335 219.005 391.506C219.005 390.677 219.677 390.005 220.506 390.005C221.335 390.005 222.007 390.677 222.007 391.506C222.007 392.335 221.335 393.007 220.506 393.007Z" fill="white"/>
<path d="M216.504 393.007C215.675 393.007 215.003 392.335 215.003 391.506C215.003 390.677 215.675 390.005 216.504 390.005C217.333 390.005 218.005 390.677 218.005 391.506C218.005 392.335 217.333 393.007 216.504 393.007Z" fill="white"/>
<path d="M222.507 397.01C221.678 397.01 221.006 396.338 221.006 395.509C221.006 394.68 221.678 394.008 222.507 394.008C223.336 394.008 224.008 394.68 224.008 395.509C224.008 396.338 223.336 397.01 222.507 397.01Z" fill="white"/>
<path d="M218.505 397.01C217.676 397.01 217.004 396.338 217.004 395.509C217.004 394.68 217.676 394.008 218.505 394.008C219.334 394.008 220.006 394.68 220.006 395.509C220.006 396.338 219.334 397.01 218.505 397.01Z" fill="white"/>
<path d="M228.51 418.023C227.681 418.023 227.009 417.351 227.009 416.522C227.009 415.693 227.681 415.021 228.51 415.021C229.339 415.021 230.01 415.693 230.01 416.522C230.01 417.351 229.339 418.023 228.51 418.023Z" fill="white"/>
<path d="M230.511 422.026C229.682 422.026 229.01 421.354 229.01 420.525C229.01 419.696 229.682 419.024 230.511 419.024C231.34 419.024 232.012 419.696 232.012 420.525C232.012 421.354 231.34 422.026 230.511 422.026Z" fill="white"/>
<path d="M224.508 418.023C223.679 418.023 223.007 417.351 223.007 416.522C223.007 415.693 223.679 415.021 224.508 415.021C225.337 415.021 226.009 415.693 226.009 416.522C226.009 417.351 225.337 418.023 224.508 418.023Z" fill="white"/>
<path d="M226.509 422.026C225.68 422.026 225.008 421.354 225.008 420.525C225.008 419.696 225.68 419.024 226.509 419.024C227.338 419.024 228.01 419.696 228.01 420.525C228.01 421.354 227.338 422.026 226.509 422.026Z" fill="white"/>
<path d="M220.506 418.023C219.677 418.023 219.005 417.351 219.005 416.522C219.005 415.693 219.677 415.021 220.506 415.021C221.335 415.021 222.007 415.693 222.007 416.522C222.007 417.351 221.335 418.023 220.506 418.023Z" fill="white"/>
<path d="M216.504 418.023C215.675 418.023 215.003 417.351 215.003 416.522C215.003 415.693 215.675 415.021 216.504 415.021C217.333 415.021 218.005 415.693 218.005 416.522C218.005 417.351 217.333 418.023 216.504 418.023Z" fill="white"/>
<path d="M222.507 422.026C221.678 422.026 221.006 421.354 221.006 420.525C221.006 419.696 221.678 419.024 222.507 419.024C223.336 419.024 224.008 419.696 224.008 420.525C224.008 421.354 223.336 422.026 222.507 422.026Z" fill="white"/>
<path d="M218.505 422.026C217.676 422.026 217.004 421.354 217.004 420.525C217.004 419.696 217.676 419.024 218.505 419.024C219.334 419.024 220.006 419.696 220.006 420.525C220.006 421.354 219.334 422.026 218.505 422.026Z" fill="white"/>
<path d="M229.51 442.038C228.682 442.038 228.01 441.366 228.01 440.537C228.01 439.708 228.682 439.036 229.51 439.036C230.339 439.036 231.011 439.708 231.011 440.537C231.011 441.366 230.339 442.038 229.51 442.038Z" fill="white"/>
<path d="M231.511 446.041C230.683 446.041 230.011 445.369 230.011 444.54C230.011 443.711 230.683 443.039 231.511 443.039C232.34 443.039 233.012 443.711 233.012 444.54C233.012 445.369 232.34 446.041 231.511 446.041Z" fill="white"/>
<path d="M225.508 442.038C224.679 442.038 224.008 441.366 224.008 440.537C224.008 439.708 224.679 439.036 225.508 439.036C226.337 439.036 227.009 439.708 227.009 440.537C227.009 441.366 226.337 442.038 225.508 442.038Z" fill="white"/>
<path d="M227.509 446.041C226.68 446.041 226.008 445.369 226.008 444.54C226.008 443.711 226.68 443.039 227.509 443.039C228.338 443.039 229.01 443.711 229.01 444.54C229.01 445.369 228.338 446.041 227.509 446.041Z" fill="white"/>
<path d="M221.506 442.038C220.677 442.038 220.006 441.366 220.006 440.537C220.006 439.708 220.677 439.036 221.506 439.036C222.335 439.036 223.007 439.708 223.007 440.537C223.007 441.366 222.335 442.038 221.506 442.038Z" fill="white"/>
<path d="M217.504 442.038C216.676 442.038 216.004 441.366 216.004 440.537C216.004 439.708 216.676 439.036 217.504 439.036C218.333 439.036 219.005 439.708 219.005 440.537C219.005 441.366 218.333 442.038 217.504 442.038Z" fill="white"/>
<path d="M223.507 446.041C222.678 446.041 222.007 445.369 222.007 444.54C222.007 443.711 222.678 443.039 223.507 443.039C224.336 443.039 225.008 443.711 225.008 444.54C225.008 445.369 224.336 446.041 223.507 446.041Z" fill="white"/>
<path d="M219.505 446.041C218.676 446.041 218.005 445.369 218.005 444.54C218.005 443.711 218.676 443.039 219.505 443.039C220.334 443.039 221.006 443.711 221.006 444.54C221.006 445.369 220.334 446.041 219.505 446.041Z" fill="white"/>
<path d="M270.031 460.05C280.53 460.05 289.04 451.538 289.04 441.038C289.04 430.537 280.53 422.025 270.031 422.025C259.532 422.025 251.021 430.537 251.021 441.038C251.021 451.538 259.532 460.05 270.031 460.05Z" fill="white"/>
<path fill-rule="evenodd" clip-rule="evenodd" d="M270.511 423.024C260.299 423.024 252.021 431.302 252.021 441.513C252.021 451.723 260.299 460.001 270.511 460.001C280.722 460.001 289.001 451.723 289.001 441.513C289.001 431.302 280.722 423.024 270.511 423.024ZM251.021 441.513C251.021 430.75 259.747 422.025 270.511 422.025C281.274 422.025 290 430.75 290 441.513C290 452.275 281.274 461 270.511 461C259.747 461 251.021 452.275 251.021 441.513Z" fill="#333333"/>
<path fill-rule="evenodd" clip-rule="evenodd" d="M266.148 435.391C267.885 434.161 270.206 433.69 272.481 434.29C275.113 434.984 277.044 436.914 277.809 439.287L275.423 439.267L278.673 444.961L282.037 439.323L279.922 439.305C279.107 436.024 276.56 433.296 273.006 432.359C270.138 431.603 267.19 432.192 264.963 433.768L266.148 435.391ZM263.274 443.961C264.079 446.247 265.977 448.094 268.539 448.769C270.973 449.411 273.381 448.883 275.152 447.515L276.406 449.087C274.124 450.85 271.054 451.502 268.013 450.7C264.515 449.778 261.992 447.12 261.137 443.909L259.025 443.857L262.501 438.299L265.675 444.02L263.274 443.961Z" fill="#FF6F3D"/>
<path d="M14.9873 210.996C14.9873 209.893 15.8818 208.999 16.9852 208.999H98.899C100.002 208.999 100.897 209.893 100.897 210.996V266.923C100.897 268.026 100.002 268.921 98.899 268.921H16.9852C15.8818 268.921 14.9873 268.026 14.9873 266.923V210.996Z" fill="#EFEFEF"/>
<path fill-rule="evenodd" clip-rule="evenodd" d="M17 208H99C100.657 208 102 209.343 102 211V267C102 268.657 100.657 270 99 270H17C15.3431 270 14 268.657 14 267V211C14 209.343 15.3431 208 17 208ZM17 209C15.8954 209 15 209.895 15 211V267C15 268.105 15.8954 269 17 269H99C100.105 269 101 268.105 101 267V211C101 209.895 100.105 209 99 209H17Z" fill="#333333"/>
<path d="M15 211C15 209.895 15.8751 209 16.9545 209H99.0455C100.125 209 101 209.895 101 211V224H15V211Z" fill="url(#paint3_linear)"/>
<path d="M26 212C26 212.552 25.5523 213 25 213C24.4477 213 24 212.552 24 212C24 211.448 24.4477 211 25 211C25.5523 211 26 211.448 26 212Z" fill="white"/>
<path d="M23 212C23 212.552 22.5523 213 22 213C21.4477 213 21 212.552 21 212C21 211.448 21.4477 211 22 211C22.5523 211 23 211.448 23 212Z" fill="white"/>
<path d="M20 212C20 212.552 19.5523 213 19 213C18.4477 213 18 212.552 18 212C18 211.448 18.4477 211 19 211C19.5523 211 20 211.448 20 212Z" fill="white"/>
<path d="M17 218.964C17 218.432 17.4477 218 18 218H32C32.5523 218 33 218.432 33 218.964V224H17V218.964Z" fill="#EFEFEF"/>
<path fill-rule="evenodd" clip-rule="evenodd" d="M30 222H20V221H30V222Z" fill="url(#paint4_linear)"/>
<path fill-rule="evenodd" clip-rule="evenodd" d="M47 222H37V221H47V222Z" fill="white"/>
<path fill-rule="evenodd" clip-rule="evenodd" d="M62 222H52V221H62V222Z" fill="white"/>
<path fill-rule="evenodd" clip-rule="evenodd" d="M78 222H68V221H78V222Z" fill="white"/>
<path fill-rule="evenodd" clip-rule="evenodd" d="M94 222H84V221H94V222Z" fill="white"/>
<path d="M30.9695 233.966C30.9695 233.415 31.4167 232.967 31.9684 232.967H83.9138C84.4655 232.967 84.9127 233.415 84.9127 233.966V268.921H30.9695V233.966Z" fill="white"/>
<path fill-rule="evenodd" clip-rule="evenodd" d="M86 270H30V234C30 232.895 30.8954 232 32 232H84C85.1046 232 86 232.895 86 234V270ZM32 233C31.4477 233 31 233.448 31 234V269H85V234C85 233.448 84.5523 233 84 233H32Z" fill="#333333"/>
<path fill-rule="evenodd" clip-rule="evenodd" d="M46.9723 239L68.0277 239C68.5647 239 69 239.448 69 240C69 240.552 68.5647 241 68.0277 241L46.9723 241C46.4353 241 46 240.552 46 240C46 239.448 46.4353 239 46.9723 239Z" fill="#FF6F3D"/>
<path fill-rule="evenodd" clip-rule="evenodd" d="M40.5293 252L48.4707 252C48.763 252 49 252.224 49 252.5C49 252.776 48.763 253 48.4707 253L40.5293 253C40.237 253 40 252.776 40 252.5C40 252.224 40.237 252 40.5293 252Z" fill="#333333"/>
<path fill-rule="evenodd" clip-rule="evenodd" d="M52.5046 252L76.4954 252C76.7741 252 77 252.224 77 252.5C77 252.776 76.7741 253 76.4954 253L52.5046 253C52.2259 253 52 252.776 52 252.5C52 252.224 52.2259 252 52.5046 252Z" fill="#333333"/>
<path fill-rule="evenodd" clip-rule="evenodd" d="M76 262.5C76 262.776 75.7767 263 75.5012 263L40.4988 263C40.2233 263 40 262.776 40 262.5C40 262.224 40.2233 262 40.4988 262L75.5012 262C75.7767 262 76 262.224 76 262.5Z" fill="#333333"/>
<path fill-rule="evenodd" clip-rule="evenodd" d="M75 247.5C75 247.776 74.7701 248 74.4866 248L44.5134 248C44.2299 248 44 247.776 44 247.5C44 247.224 44.2299 247 44.5134 247L74.4866 247C74.7701 247 75 247.224 75 247.5Z" fill="#333333"/>
<path fill-rule="evenodd" clip-rule="evenodd" d="M72 257.5C72 257.776 71.7825 258 71.5143 258L63.4857 258C63.2175 258 63 257.776 63 257.5C63 257.224 63.2175 257 63.4857 257L71.5143 257C71.7825 257 72 257.224 72 257.5Z" fill="#333333"/>
<path fill-rule="evenodd" clip-rule="evenodd" d="M40.5148 257L59.4852 257C59.7695 257 60 257.224 60 257.5C60 257.776 59.7695 258 59.4852 258L40.5148 258C40.2305 258 40 257.776 40 257.5C40 257.224 40.2305 257 40.5148 257Z" fill="#333333"/>
<path d="M3 230.864C3 230.387 3.41041 230 3.91667 230H35.0833C35.5896 230 36 230.387 36 230.864V250.136C36 250.613 35.5896 251 35.0833 251H21.0504C20.7664 251 20.4984 251.124 20.3248 251.336L16.1896 256.664C15.7968 257.144 15.0158 257.103 14.6812 256.585L11.7083 252.224C11.25 251.324 10.1947 251 9.875 251H3.91667C3.41041 251 3 250.613 3 250.136V230.864Z" fill="url(#paint5_linear)"/>
<path fill-rule="evenodd" clip-rule="evenodd" d="M10.8491 252.751L10.8139 252.682C10.7016 252.461 10.5004 252.283 10.2607 252.155C10.144 252.092 10.0324 252.049 9.94498 252.023C9.89058 252.007 9.85873 252.002 9.84883 252H3.91667C2.89675 252 2 251.21 2 250.151V230.849C2 229.79 2.89675 229 3.91667 229H35.0833C36.1032 229 37 229.79 37 230.849V250.166C37 251.224 36.1033 252.014 35.0833 252.014H21.0792L16.9691 257.296C16.1578 258.288 14.5686 258.223 13.8544 257.155L10.8491 252.751ZM3.91667 229.983C3.41041 229.983 3 230.371 3 230.849V250.151C3 250.629 3.41041 251.017 3.91667 251.017H9.875C10.1947 251.017 11.25 251.341 11.7083 252.242L14.6812 256.602C15.0158 257.12 15.7968 257.161 16.1896 256.68L20.3248 251.368C20.4984 251.156 20.7664 251.031 21.0504 251.031H35.0833C35.5896 251.031 36 250.644 36 250.166V230.849C36 230.371 35.5896 229.983 35.0833 229.983H3.91667Z" fill="#333333"/>
<path fill-rule="evenodd" clip-rule="evenodd" d="M9 238.5C9 238.224 9.20226 238 9.45176 238H30.5482C30.7977 238 31 238.224 31 238.5C31 238.776 30.7977 239 30.5482 239H9.45176C9.20226 239 9 238.776 9 238.5Z" fill="white"/>
<path fill-rule="evenodd" clip-rule="evenodd" d="M9 242.5C9 242.224 9.20015 242 9.44705 242H23.5529C23.7998 242 24 242.224 24 242.5C24 242.776 23.7998 243 23.5529 243H9.44705C9.20015 243 9 242.776 9 242.5Z" fill="white"/>
<path fill-rule="evenodd" clip-rule="evenodd" d="M221 52V33H215.886C212.843 33 211 34.916 211 37.8579V52H221Z" fill="#BDECFF"/>
<path d="M220.896 7H265.164L274.614 17.5V52H220.896V7Z" fill="white"/>
<path d="M264 6L275 17H265L264 16V6Z" fill="url(#paint6_linear)"/>
<path fill-rule="evenodd" clip-rule="evenodd" d="M221 6H264.908L275 17.3067V46.7857H274.018V17.6933L264.474 7H221.982V53H239.885V54H221V6Z" fill="#333333"/>
<path fill-rule="evenodd" clip-rule="evenodd" d="M212.71 33.3949C213.783 32.4517 215.251 32 216.862 32H222V54H211V37.5455C211 35.752 211.627 34.3462 212.71 33.3949ZM213.37 34.146C212.532 34.8826 212 35.9996 212 37.5455V53H221V33H216.862C215.43 33 214.217 33.4013 213.37 34.146Z" fill="#333333"/>
<path fill-rule="evenodd" clip-rule="evenodd" d="M275 32V46H285V36.5604C285 33.2337 283.012 32 280.114 32H275Z" fill="#BDECFF"/>
<path fill-rule="evenodd" clip-rule="evenodd" d="M274 32H279.614C281.122 32 282.48 32.3193 283.466 33.1504C284.468 33.9951 285 35.2943 285 37.0604V47H274V32ZM275 33V46H284V37.0604C284 35.4997 283.538 34.5188 282.822 33.915C282.089 33.2975 281.004 33 279.614 33H275Z" fill="#333333"/>
<path fill-rule="evenodd" clip-rule="evenodd" d="M246.5 46.467L241.354 52.1906H211.585C209.126 52.1906 206.748 53.9138 207.021 55.7026L212.212 85.6979C212.486 87.4866 214.261 89.0001 216.72 89.0001H282.562C285.02 89.0001 286.933 87.4866 287.069 85.6979L290.972 47.6966C291.195 46.573 290.08 45.0001 288.073 45.0001H250C248.662 45.0001 247.456 45.5039 246.5 46.467Z" fill="url(#paint7_linear)"/>
<path fill-rule="evenodd" clip-rule="evenodd" d="M241.93 53.0026H211.708C210.702 53.0026 209.584 53.7035 208.889 54.2392C208.177 54.7884 207.952 55.3604 208.009 55.7724L213.2 86.4194L213.201 86.429C213.39 87.6887 214.673 88.9516 216.72 88.9516H282.562C284.676 88.9516 285.987 87.6473 286.072 86.5021L286.073 86.4894L289.981 47.602L289.99 47.557C290.072 47.1338 289.566 45.9913 288.073 45.9913H250C248.946 45.9913 248.003 46.3862 247.234 47.1701L241.93 53.0026ZM246.5 46.491L241.477 52.0035H211.708C209.249 52.0035 206.748 54.1001 207.022 55.9278L212.212 86.5765C212.486 88.4042 214.261 89.9507 216.72 89.9507H282.562C285.02 89.9507 286.933 88.4042 287.07 86.5765L290.972 47.7474C291.195 46.5994 290.08 44.9922 288.073 44.9922H250C248.662 44.9922 247.456 45.5069 246.5 46.491Z" fill="#333333"/>
<path fill-rule="evenodd" clip-rule="evenodd" d="M226.865 37.5C226.865 37.2239 227.087 37 227.362 37H269.143C269.418 37 269.64 37.2239 269.64 37.5C269.64 37.7761 269.418 38 269.143 38H227.362C227.087 38 226.865 37.7761 226.865 37.5Z" fill="#333333"/>
<path fill-rule="evenodd" clip-rule="evenodd" d="M226.865 42.5C226.865 42.2239 227.087 42 227.362 42H239.299C239.574 42 239.797 42.2239 239.797 42.5C239.797 42.7761 239.574 43 239.299 43H227.362C227.087 43 226.865 42.7761 226.865 42.5Z" fill="#333333"/>
<path fill-rule="evenodd" clip-rule="evenodd" d="M227.08 28.7306L227.883 29.1029H250.851L251.654 28.7306C251.779 29.0083 251.756 29.3313 251.594 29.588C251.431 29.8447 251.151 29.9999 250.851 29.9999H227.883C227.583 29.9999 227.303 29.8447 227.14 29.588C226.978 29.3313 226.955 29.0083 227.08 28.7306ZM250.29 28.2059C250.688 28.7415 250.851 29.1029 250.851 29.1029C251.654 28.7306 251.654 28.7301 251.654 28.7295L251.653 28.7281L251.652 28.7251L251.649 28.7176L251.639 28.6969C251.631 28.6805 251.621 28.659 251.607 28.6329C251.581 28.5807 251.543 28.5097 251.494 28.4226C251.395 28.2484 251.247 28.0095 251.041 27.7278C250.63 27.1643 249.987 26.4287 249.044 25.6986C247.147 24.2292 244.086 22.8239 239.367 22.8239C234.648 22.8239 231.587 24.2292 229.69 25.6986C228.747 26.4287 228.104 27.1643 227.693 27.7278C227.487 28.0095 227.339 28.2484 227.24 28.4226C227.191 28.5097 227.153 28.5807 227.127 28.6329C227.114 28.659 227.103 28.6805 227.095 28.6969L227.086 28.7176L227.082 28.7251L227.081 28.7281L227.08 28.7295C227.08 28.7301 227.08 28.7306 227.883 29.1029C227.883 29.1029 228.046 28.7415 228.444 28.2059C229.583 26.6749 232.65 23.7209 239.367 23.7209C246.084 23.7209 249.151 26.6749 250.29 28.2059ZM250.049 29.4804L250.049 29.4787C250.05 29.4807 250.05 29.4808 250.049 29.4804ZM228.685 29.4804C228.684 29.4808 228.685 29.4801 228.686 29.4781L228.685 29.4804Z" fill="#333333"/>
<path d="M236.717 21.0298H242.017V25.2158L239.367 27.3088L236.717 25.2158V21.0298Z" fill="white"/>
<path d="M244.667 17.4419C244.667 20.4143 242.294 22.8239 239.367 22.8239C236.44 22.8239 234.067 20.4143 234.067 17.4419C234.067 14.4694 236.44 12.0598 239.367 12.0598C242.294 12.0598 244.667 14.4694 244.667 17.4419Z" fill="white"/>
<path fill-rule="evenodd" clip-rule="evenodd" d="M239.367 21.9269C241.806 21.9269 243.784 19.9189 243.784 17.4419C243.784 14.9648 241.806 12.9568 239.367 12.9568C236.928 12.9568 234.95 14.9648 234.95 17.4419C234.95 19.9189 236.928 21.9269 239.367 21.9269ZM239.367 22.8239C242.294 22.8239 244.667 20.4143 244.667 17.4419C244.667 14.4694 242.294 12.0598 239.367 12.0598C236.44 12.0598 234.067 14.4694 234.067 17.4419C234.067 20.4143 236.44 22.8239 239.367 22.8239Z" fill="#333333"/>
<path fill-rule="evenodd" clip-rule="evenodd" d="M238.848 12.9919C236.9 13.22 235.393 14.5465 235.033 16.5141C234.978 16.8094 234.95 17.1192 234.95 17.4419C235.259 17.3893 235.555 17.3187 235.839 17.231C237.287 16.7827 238.39 15.8882 239.037 14.6769C239.176 14.4169 239.294 14.1422 239.39 13.8543C239.413 13.7847 239.434 13.7143 239.455 13.6432C239.496 13.7147 239.538 13.7866 239.58 13.8589C239.727 14.1082 239.883 14.3611 240.05 14.6096C240.74 15.6335 241.628 16.5819 242.896 16.8894C243.173 16.9567 243.468 16.9934 243.784 16.9934C243.784 16.7006 243.719 16.3959 243.601 16.0909C243.08 14.738 241.532 13.3803 240.108 13.0387C239.886 12.9854 239.667 12.9568 239.455 12.9568C239.248 12.9568 239.046 12.9687 238.848 12.9919ZM239.587 15.4944C240.492 16.7194 241.801 17.8904 243.784 17.8904C244.272 17.8904 244.667 17.4888 244.667 16.9934C244.667 15.7265 243.841 14.4945 242.918 13.6395C241.983 12.774 240.697 12.0598 239.455 12.0598C236.463 12.0598 234.067 14.2179 234.067 17.4419C234.067 17.7057 234.181 17.9562 234.38 18.1266C234.578 18.297 234.84 18.3702 235.096 18.3265C237.062 17.9918 238.638 16.9885 239.587 15.4944Z" fill="#333333"/>
<path fill-rule="evenodd" clip-rule="evenodd" d="M242.017 21.1046C242.261 21.1046 242.459 21.3054 242.459 21.5531V24.808C242.459 24.9327 242.408 25.0517 242.318 25.1366L239.668 27.6375C239.498 27.7974 239.236 27.7974 239.066 27.6375L236.416 25.1366C236.326 25.0517 236.275 24.9327 236.275 24.808V21.9269C236.275 21.6792 236.473 21.4784 236.717 21.4784C236.961 21.4784 237.159 21.6792 237.159 21.9269V24.6126L239.367 26.6966L241.575 24.6126V21.5531C241.575 21.3054 241.773 21.1046 242.017 21.1046Z" fill="#333333"/>
<ellipse cx="278.657" cy="79.0299" rx="17.1245" ry="17.21" fill="white"/>
<path fill-rule="evenodd" clip-rule="evenodd" d="M279.5 70C279.776 70 280 70.2239 280 70.5V79H286.5C286.776 79 287 79.2239 287 79.5C287 79.7761 286.776 80 286.5 80H279.5C279.224 80 279 79.7761 279 79.5V70.5C279 70.2239 279.224 70 279.5 70Z" fill="#333333"/>
<path d="M295.287 83.9749C292.821 93.1628 283.286 98.5996 273.986 96.1209C264.685 93.6422 259.147 84.1882 261.613 75.0003C263.962 66.248 272.741 60.9069 281.58 62.5414" stroke="#333333" stroke-miterlimit="10" stroke-linecap="round" stroke-linejoin="round"/>
<path d="M278.011 57.9125L282.126 62.8044L276.923 66.4947L276.767 66.2864L281.32 63.0739C281.435 62.993 281.511 62.8677 281.529 62.7287C281.546 62.5897 281.505 62.4497 281.415 62.3428L277.804 58.0795L278.011 57.9125Z" fill="black" stroke="#333333" stroke-linecap="round" stroke-linejoin="round"/>
<defs>
<linearGradient id="paint0_linear" x1="447" y1="202.375" x2="463" y2="219" gradientUnits="userSpaceOnUse">
<stop stop-color="#FFC671"/>
<stop offset="0.59375" stop-color="#FF7541"/>
<stop offset="1" stop-color="#FF6F3D"/>
</linearGradient>
<linearGradient id="paint1_linear" x1="383" y1="226.486" x2="420.881" y2="259.673" gradientUnits="userSpaceOnUse">
<stop stop-color="#FFC671"/>
<stop offset="0.59375" stop-color="#FF7541"/>
<stop offset="1" stop-color="#FF6F3D"/>
</linearGradient>
<linearGradient id="paint2_linear" x1="209" y1="379.148" x2="282.015" y2="449.819" gradientUnits="userSpaceOnUse">
<stop stop-color="#FFC671"/>
<stop offset="0.59375" stop-color="#FF7541"/>
<stop offset="1" stop-color="#FF6F3D"/>
</linearGradient>
<linearGradient id="paint3_linear" x1="15.0002" y1="208.414" x2="19.9016" y2="237.613" gradientUnits="userSpaceOnUse">
<stop stop-color="#FFC671"/>
<stop offset="0.59375" stop-color="#FF7541"/>
<stop offset="1" stop-color="#FF6F3D"/>
</linearGradient>
<linearGradient id="paint4_linear" x1="20" y1="220.961" x2="20.1909" y2="222.944" gradientUnits="userSpaceOnUse">
<stop stop-color="#FF8E3D"/>
<stop offset="1" stop-color="#FF6F3D"/>
</linearGradient>
<linearGradient id="paint5_linear" x1="3.00006" y1="228.945" x2="29.2662" y2="262.302" gradientUnits="userSpaceOnUse">
<stop stop-color="#FFC671"/>
<stop offset="0.59375" stop-color="#FF7541"/>
<stop offset="1" stop-color="#FF6F3D"/>
</linearGradient>
<linearGradient id="paint6_linear" x1="264" y1="5.57031" x2="275" y2="17" gradientUnits="userSpaceOnUse">
<stop stop-color="#FFC671"/>
<stop offset="0.59375" stop-color="#FF7541"/>
<stop offset="1" stop-color="#FF6F3D"/>
</linearGradient>
<linearGradient id="paint7_linear" x1="207.125" y1="53.5389" x2="247.058" y2="116.775" gradientUnits="userSpaceOnUse">
<stop stop-color="#FFC671"/>
<stop offset="0.652615" stop-color="#FF8657"/>
</linearGradient>
</defs>
</svg>
