<svg width="28" height="28" viewBox="0 0 28 28" fill="none" xmlns="http://www.w3.org/2000/svg">
<path fill-rule="evenodd" clip-rule="evenodd" d="M21.3976 27H5.67871C4.76305 27 4 26.2486 4 25.3468V2.65318C4 1.75145 4.76305 1 5.67871 1H15L23 9V25.3468C23 26.2486 22.3133 27 21.3976 27Z" fill="#5290F5"/>
<path fill-rule="evenodd" clip-rule="evenodd" d="M8 15H19V14H8V15Z" fill="#F1F1F1"/>
<path fill-rule="evenodd" clip-rule="evenodd" d="M8 17H19V16H8V17Z" fill="#F1F1F1"/>
<path fill-rule="evenodd" clip-rule="evenodd" d="M8 19H19V18H8V19Z" fill="#F1F1F1"/>
<path fill-rule="evenodd" clip-rule="evenodd" d="M8 21H16V20H8V21Z" fill="#F1F1F1"/>
<path fill-rule="evenodd" clip-rule="evenodd" d="M16.8333 9H23L15 1V7.14737C15 8.15789 15.8333 9 16.8333 9Z" fill="#A6C5FA"/>
</svg>
