<svg width="224" height="120" viewBox="0 0 224 120" fill="none" xmlns="http://www.w3.org/2000/svg">
<path d="M68.889 77.5749C64.485 77.7205 59.4725 77.0799 54.576 75.595C49.5346 74.0809 44.8119 71.8389 40.6686 68.5196C37.6264 66.103 35.0767 63.2495 33.4542 59.6682C30.6147 53.379 31.9765 47.1189 37.1628 42.5476C40.4079 39.6651 44.2614 38.0637 48.4336 37.132C48.9551 37.0155 49.5056 36.899 50.114 36.7826C49.5346 35.6761 48.9841 34.5697 48.3466 33.3177C57.6472 35.7052 66.8029 38.0637 75.9875 40.4221C74.9734 38.384 68.3095 33.9874 63.6447 32.2695C58.922 30.5225 53.9965 29.8237 48.9841 29.7946C55.0396 29.4743 60.9212 30.3478 66.6001 32.3568C72.4817 34.4241 77.7839 37.4231 82.0141 42.1109C84.5058 44.877 86.3311 48.0216 86.9396 51.7485C87.6639 56.378 86.2442 60.3088 83.0571 63.5989C80.2756 66.5106 76.7988 68.2867 73.0032 69.4805C71.5256 69.9464 69.99 70.2958 68.3675 70.7034C69.0628 71.9554 69.7582 73.2365 70.5695 74.6632C61.4427 72.0428 52.4609 69.4514 43.4791 66.86C43.4501 66.9182 43.3921 66.9473 43.3632 67.0056C44.0875 67.7335 44.7829 68.4905 45.5652 69.1602C50.114 73.1201 55.4452 75.4785 61.2979 76.5558C64.0504 77.109 66.8318 77.3129 68.889 77.5749ZM64.6878 64.1522C66.5131 63.5116 68.3095 62.9293 70.0479 62.2596C72.8584 61.1823 75.3501 59.5517 77.3203 57.2515C79.2905 54.9222 80.2756 52.2144 80.0728 49.128C79.899 46.391 78.827 43.9744 77.2913 41.7615C77.0306 41.383 76.7988 41.3247 76.3352 41.4412C69.8451 43.4503 63.355 45.4302 56.8649 47.4392C56.3723 47.5848 56.1985 47.4683 55.9667 47.0607C55.4162 46.0416 54.8078 45.0517 54.2573 44.0326C53.9965 43.5667 53.7068 43.4503 53.2142 43.625C52.5188 43.8579 51.8235 44.0035 51.1281 44.2364C47.7961 45.372 44.667 46.8569 42.2332 49.5647C39.8863 52.1561 38.7274 55.1551 39.104 58.7074C39.3648 61.2114 40.3789 63.4242 41.7696 65.4915C42.0883 65.9574 42.3491 66.0739 42.8706 65.8992C46.5213 64.7927 50.143 63.7445 53.7937 62.6672C56.6621 61.8228 59.5305 60.9784 62.4278 60.1341C63.2101 61.4152 63.9055 62.6963 64.6878 64.1522ZM65.0644 64.7927C65.9626 66.5397 66.8029 68.1994 67.7011 69.9755C69.3526 68.1702 70.9461 66.4233 72.4527 64.7927C70.1928 64.7927 67.7011 64.7927 65.0644 64.7927Z" fill="black"/>
<path d="M109.161 47.381C112.812 46.624 116.434 46.1581 120.055 47.2063C122.141 47.8178 123.329 49.2154 123.532 51.4282C123.59 51.9523 123.59 52.4764 123.59 53.0005C123.59 56.0869 123.59 59.2024 123.59 62.2887C123.59 62.5217 123.59 62.7837 123.59 63.0749C121.881 63.0749 120.229 63.0749 118.52 63.0749C118.52 62.5799 118.52 62.0849 118.52 61.4735C118.114 61.7646 117.824 61.9393 117.564 62.1431C115.709 63.5116 113.623 63.8319 111.45 63.366C109.422 62.9002 107.886 61.1241 107.741 59.1732C107.539 56.6401 108.495 54.9513 110.61 53.9614C112.58 53.0588 114.666 52.9423 116.781 52.7385C117.361 52.6802 117.94 52.6511 118.52 52.5929C118.549 51.4865 118.172 50.875 117.158 50.5547C115.506 50.0306 113.826 50.0306 112.145 50.4674C111.421 50.6712 110.726 50.9333 110.001 51.1371C109.741 51.2244 109.48 51.2535 109.161 51.3409C109.161 50.0015 109.161 48.7495 109.161 47.381ZM118.52 55.5046C117.1 55.7375 115.767 55.9413 114.434 56.2034C114.087 56.2616 113.768 56.4654 113.478 56.6983C112.841 57.2224 112.812 57.9503 112.899 58.6783C113.015 59.3771 113.507 59.7556 114.116 59.9012C115.564 60.2797 116.926 60.0467 118.172 59.1441C118.317 59.0568 118.462 58.8821 118.491 58.7365C118.549 57.7465 118.52 56.6983 118.52 55.5046Z" fill="black"/>
<path d="M106.468 63.0751C104.787 63.0751 103.165 63.0751 101.455 63.0751C101.455 62.5801 101.455 62.0851 101.455 61.4154C101.021 61.7357 100.76 61.9395 100.47 62.1433C98.6158 63.5409 96.5297 63.8612 94.3567 63.3662C92.3285 62.9004 90.8219 61.1534 90.6191 59.1443C90.3873 56.6985 91.3724 54.9224 93.5164 53.9324C95.4577 53.0589 97.5437 52.9425 99.6009 52.7095C100.209 52.6513 100.818 52.6222 101.397 52.564C101.426 51.4575 101.05 50.8461 100.035 50.5258C98.384 50.0017 96.7035 50.0017 95.0231 50.4676C94.2987 50.6714 93.6034 50.9334 92.879 51.1372C92.6183 51.2246 92.3575 51.2537 92.0388 51.3411C92.0388 50.0017 92.0388 48.7497 92.0388 47.4394C94.2408 46.9153 96.4717 46.5951 98.7317 46.6533C100.354 46.6824 101.948 46.828 103.454 47.4103C105.367 48.1673 106.381 49.6523 106.41 51.6613C106.525 55.4465 106.468 59.2317 106.468 63.0751ZM101.426 55.563C100.151 55.7377 99.0214 55.8541 97.8914 56.058C97.3989 56.1453 96.9063 56.3782 96.4717 56.6403C95.7764 57.1061 95.7184 57.8341 95.8053 58.5911C95.8923 59.2899 96.3269 59.6975 96.9643 59.8722C98.4709 60.309 99.8616 60.0469 101.136 59.1443C101.281 59.057 101.426 58.8531 101.426 58.7076C101.426 57.7176 101.426 56.6985 101.426 55.563Z" fill="black"/>
<path d="M156.042 55.4465C155.955 59.1151 158.389 61.5609 162.503 61.1242C164.241 60.9495 165.806 60.2507 167.4 59.2025C167.4 60.2216 167.4 61.1242 167.4 62.0268C167.4 62.1142 167.226 62.2306 167.11 62.2889C164.299 63.4826 161.431 63.9776 158.447 63.0459C155.491 62.1433 153.898 60.0469 153.434 57.0188C153.174 55.1844 153.26 53.3792 153.898 51.6322C155.057 48.4585 157.809 46.6532 161.315 46.7697C165.227 46.9153 167.544 49.2446 167.718 53.1754C167.747 53.9033 167.718 54.6312 167.718 55.4173C163.807 55.4465 159.953 55.4465 156.042 55.4465ZM165.082 53.3501C165.256 51.1081 164.068 49.4193 162.039 49.0408C161.489 48.9535 160.91 48.9535 160.359 48.9826C157.954 49.1282 156.216 50.846 156.042 53.3501C159.055 53.3501 162.039 53.3501 165.082 53.3501Z" fill="black"/>
<path d="M136.919 52.0105C136.311 51.9522 135.732 51.8067 135.152 51.8358C133.819 51.9231 132.458 52.0687 131.125 52.2143C130.661 52.2725 130.516 52.5346 130.516 53.0004C130.545 56.0868 130.516 59.2023 130.516 62.2886C130.516 62.5216 130.516 62.7836 130.516 63.0748C128.778 63.0748 127.126 63.0748 125.417 63.0748C125.417 57.7464 125.417 52.4763 125.417 47.148C127.097 47.148 128.778 47.148 130.516 47.148C130.516 47.8759 130.516 48.6038 130.516 49.4773C132.429 47.8468 134.37 46.7404 136.89 47.1771C136.919 48.7494 136.919 50.3508 136.919 52.0105Z" fill="black"/>
<path d="M138.946 47.2063C139.816 47.2063 140.656 47.2063 141.583 47.2063C141.583 47.7304 141.583 48.2836 141.583 48.8368C142.394 48.3419 143.119 47.876 143.872 47.4684C145.234 46.7404 146.682 46.5949 148.16 46.8278C150.246 47.1772 151.666 48.6621 152.042 50.9332C152.129 51.4573 152.187 51.9814 152.187 52.5055C152.187 55.8831 152.187 59.2606 152.187 62.609C152.187 62.7546 152.187 62.871 152.158 63.0457C151.289 63.0457 150.449 63.0457 149.493 63.0457C149.493 62.7546 149.493 62.4925 149.493 62.2305C149.493 59.2315 149.493 56.2033 149.464 53.2043C149.464 52.5055 149.348 51.8067 149.174 51.1079C148.942 50.1762 148.305 49.623 147.407 49.4192C145.205 48.9242 143.437 49.885 141.757 51.1079C141.612 51.2244 141.583 51.5447 141.583 51.7776C141.583 55.2716 141.583 58.7365 141.583 62.2305C141.583 62.4634 141.583 62.7255 141.583 63.0166C140.685 63.0166 139.844 63.0166 138.946 63.0166C138.946 57.8048 138.946 52.5638 138.946 47.2063Z" fill="black"/>
<path d="M170.094 49.4189C169.457 49.4189 168.906 49.4189 168.298 49.4189C168.298 48.6619 168.298 47.9631 168.298 47.177C168.732 47.177 169.138 47.1478 169.544 47.177C169.949 47.2061 170.094 47.0314 170.094 46.6237C170.065 45.3135 170.094 43.9741 170.094 42.6348C170.992 42.6348 171.804 42.6348 172.731 42.6348C172.731 44.1197 172.731 45.6047 172.731 47.177C173.89 47.177 174.991 47.177 176.063 47.177C176.179 47.177 176.295 47.177 176.41 47.177C178.468 47.177 178.468 47.177 178.207 49.3898C176.41 49.3898 174.643 49.3898 172.876 49.3898C172.818 49.5063 172.76 49.5645 172.76 49.5936C172.789 52.5926 172.731 55.5917 172.818 58.6198C172.876 60.3085 173.687 61.0656 175.338 61.0947C176.266 61.1238 177.193 60.8618 178.236 60.7162C178.236 61.3276 178.265 62.0264 178.207 62.7252C178.207 62.8417 178.004 63.0455 177.888 63.0746C176.41 63.3949 174.962 63.6278 173.455 63.2784C171.398 62.7835 170.21 61.3567 170.123 59.0274C170.036 56.1158 170.065 53.2041 170.065 50.2924C170.094 50.0304 170.094 49.7683 170.094 49.4189Z" fill="black"/>
<path d="M94.8508 72.1597L97.4874 78.8565H96.7921L95.9808 76.7601H92.9386L92.1273 78.8565H91.4609L94.1555 72.1597H94.8508ZM95.778 76.236L94.4742 72.7711L93.1414 76.236H95.778Z" fill="black"/>
<path d="M102.267 74.0516V78.8559H101.717V77.9533C101.369 78.6521 100.79 78.9723 100.036 78.9723C99.5147 78.9723 99.1381 78.8268 98.8194 78.5356C98.5296 78.2444 98.3848 77.8077 98.3848 77.2254V74.0225H98.9642V76.9633C98.9642 77.4583 99.0512 77.8368 99.225 78.0697C99.3988 78.3027 99.7175 78.4482 100.152 78.4482C100.616 78.4482 100.992 78.2735 101.253 77.9241C101.514 77.5747 101.659 77.1671 101.659 76.643V73.9934H102.267V74.0516Z" fill="black"/>
<path d="M107.281 75.4493H106.702C106.644 74.7505 106.209 74.4011 105.398 74.4011C105.05 74.4011 104.789 74.4593 104.587 74.6049C104.384 74.7505 104.297 74.9543 104.297 75.1873C104.297 75.3037 104.326 75.4202 104.355 75.5075C104.413 75.5949 104.442 75.6531 104.5 75.7114C104.558 75.7696 104.645 75.8278 104.789 75.8569C104.934 75.9152 105.05 75.9443 105.166 75.9734C105.282 76.0025 105.427 76.0316 105.659 76.0899C105.861 76.1481 106.035 76.1772 106.151 76.2063C106.267 76.2355 106.441 76.2937 106.615 76.381C106.789 76.4684 106.933 76.5557 107.049 76.6431C107.165 76.7304 107.252 76.8469 107.339 77.0216C107.426 77.1672 107.455 77.3419 107.455 77.5457C107.455 77.9824 107.281 78.361 106.933 78.623C106.586 78.8851 106.122 79.0306 105.572 79.0306C104.963 79.0306 104.471 78.8851 104.123 78.5939C103.775 78.3027 103.602 77.866 103.602 77.3128H104.181C104.181 77.7204 104.297 78.0116 104.558 78.2445C104.818 78.4483 105.166 78.5648 105.601 78.5648C106.006 78.5648 106.296 78.4774 106.557 78.3027C106.789 78.128 106.904 77.8951 106.904 77.633C106.904 77.4875 106.876 77.3419 106.789 77.2254C106.702 77.109 106.615 77.0216 106.47 76.9634C106.325 76.9051 106.209 76.8469 106.093 76.8178C105.977 76.7887 105.832 76.7304 105.688 76.7013C105.63 76.7013 105.601 76.7013 105.601 76.6722C105.543 76.6722 105.456 76.6431 105.311 76.614C105.166 76.5849 105.05 76.5557 104.992 76.5266C104.934 76.4975 104.818 76.4684 104.703 76.4393C104.587 76.4102 104.471 76.3519 104.413 76.3228C104.355 76.2937 104.268 76.2355 104.181 76.1772C104.094 76.119 104.007 76.0316 103.978 75.9443C103.92 75.8569 103.891 75.7696 103.862 75.6822C103.833 75.5658 103.804 75.4493 103.804 75.3328C103.804 74.9252 103.949 74.5758 104.268 74.3429C104.587 74.1099 105.021 73.9644 105.572 73.9644C106.122 73.9644 106.557 74.1099 106.876 74.372C107.107 74.5758 107.281 74.9543 107.281 75.4493Z" fill="black"/>
<path d="M110.67 74.0518V74.5177H109.685V77.5749C109.685 77.7496 109.685 77.837 109.685 77.9243C109.685 77.9826 109.714 78.0699 109.743 78.1573C109.772 78.2446 109.83 78.3029 109.917 78.332C110.004 78.3611 110.12 78.3902 110.264 78.3902C110.351 78.3902 110.467 78.3902 110.641 78.3611V78.8561C110.438 78.8852 110.264 78.8852 110.12 78.8852C109.54 78.8852 109.221 78.7105 109.134 78.332C109.106 78.1864 109.077 77.837 109.077 77.2838V74.5177H108.236V74.0518H109.077V72.5669H109.656V74.0518H110.67Z" fill="black"/>
<path d="M114.381 73.9644V74.5758C114.352 74.5758 114.323 74.5758 114.294 74.5758C114.265 74.5758 114.236 74.5758 114.236 74.5758C113.888 74.5758 113.541 74.6923 113.28 74.8961C112.99 75.0999 112.816 75.3911 112.73 75.7114C112.643 76.0025 112.614 76.4102 112.614 76.9051V78.8851H112.034V74.0808H112.585V75.2455C112.787 74.8087 113.019 74.4885 113.28 74.3138C113.541 74.0808 113.917 73.9644 114.381 73.9644Z" fill="black"/>
<path d="M119.507 78.3899V78.8266C119.362 78.8849 119.217 78.914 119.044 78.914C118.783 78.914 118.609 78.8266 118.551 78.6811C118.464 78.5355 118.435 78.3025 118.435 78.0405C118.03 78.6811 117.421 79.0013 116.639 79.0013C116.146 79.0013 115.77 78.8849 115.48 78.6519C115.19 78.419 115.074 78.0696 115.074 77.662C115.074 76.7885 115.654 76.2935 116.842 76.177C116.9 76.177 116.986 76.177 117.102 76.1479C117.218 76.1479 117.305 76.1188 117.363 76.1188C117.421 76.1188 117.479 76.1188 117.566 76.0897C117.653 76.0897 117.711 76.0606 117.74 76.0606C117.769 76.0606 117.827 76.0315 117.885 76.0315C117.943 76.0315 118.001 76.0023 118.03 76.0023C118.058 76.0023 118.087 75.9732 118.145 75.9732C118.174 75.9441 118.203 75.9441 118.261 75.915C118.377 75.8276 118.435 75.6821 118.435 75.4491C118.435 75.0706 118.319 74.8086 118.116 74.6339C117.914 74.4883 117.595 74.4009 117.189 74.4009C116.784 74.4009 116.465 74.4883 116.262 74.6921C116.059 74.8668 115.914 75.158 115.885 75.5365H115.335C115.364 75.0124 115.538 74.6047 115.885 74.3427C116.233 74.0515 116.697 73.9351 117.276 73.9351C117.827 73.9351 118.261 74.0515 118.58 74.2845C118.899 74.5174 119.044 74.8668 119.044 75.3035V77.924C119.044 78.0405 119.044 78.1278 119.044 78.1861C119.044 78.2443 119.073 78.3025 119.131 78.3317C119.188 78.3899 119.246 78.3899 119.362 78.3899C119.362 78.419 119.449 78.3899 119.507 78.3899ZM118.377 76.2353C118.319 76.2935 118.232 76.3517 118.116 76.3808C118.001 76.41 117.885 76.4391 117.769 76.4682C117.653 76.4973 117.479 76.5264 117.218 76.5556C117.16 76.5556 117.102 76.5555 117.073 76.5847C116.871 76.6138 116.697 76.6429 116.581 76.672C116.465 76.7011 116.32 76.7594 116.146 76.8176C115.972 76.8758 115.857 76.9923 115.77 77.1088C115.683 77.2252 115.654 77.3999 115.654 77.5746C115.654 77.8658 115.741 78.0696 115.943 78.2443C116.146 78.419 116.407 78.5064 116.755 78.5064C117.218 78.5064 117.595 78.3608 117.914 78.0987C118.232 77.8367 118.377 77.4582 118.377 77.0214V76.2353Z" fill="black"/>
<path d="M121.16 72.1882V78.8559H120.58V72.1882H121.16Z" fill="black"/>
<path d="M123.332 72.1592V73.12H122.753V72.1592H123.332ZM123.332 74.0518V78.856H122.753V74.0518H123.332Z" fill="black"/>
<path d="M129.069 78.3901V78.8269C128.924 78.8851 128.779 78.9142 128.605 78.9142C128.344 78.9142 128.171 78.8269 128.113 78.6813C128.026 78.5357 127.997 78.3028 127.997 78.0407C127.591 78.6813 126.983 79.0016 126.2 79.0016C125.708 79.0016 125.331 78.8851 125.041 78.6522C124.752 78.4193 124.636 78.0699 124.636 77.6622C124.636 76.7887 125.215 76.2937 126.403 76.1773C126.461 76.1773 126.548 76.1773 126.664 76.1482C126.78 76.1482 126.867 76.119 126.925 76.119C126.983 76.119 127.041 76.119 127.127 76.0899C127.214 76.0899 127.272 76.0608 127.301 76.0608C127.33 76.0608 127.388 76.0317 127.446 76.0317C127.504 76.0317 127.562 76.0026 127.591 76.0026C127.62 76.0026 127.649 75.9735 127.707 75.9735C127.736 75.9443 127.765 75.9443 127.823 75.9152C127.939 75.8279 127.997 75.6823 127.997 75.4494C127.997 75.0708 127.881 74.8088 127.678 74.6341C127.475 74.4885 127.156 74.4012 126.751 74.4012C126.345 74.4012 126.026 74.4885 125.824 74.6923C125.621 74.867 125.476 75.1582 125.447 75.5367H124.897C124.925 75.0126 125.099 74.605 125.447 74.3429C125.795 74.0518 126.258 73.9353 126.838 73.9353C127.388 73.9353 127.823 74.0518 128.142 74.2847C128.46 74.5176 128.605 74.867 128.605 75.3038V77.9243C128.605 78.0407 128.605 78.1281 128.605 78.1863C128.605 78.2446 128.634 78.3028 128.692 78.3319C128.75 78.3901 128.808 78.3901 128.924 78.3901C128.924 78.4193 129.011 78.3901 129.069 78.3901ZM127.968 76.2355C127.91 76.2937 127.823 76.352 127.707 76.3811C127.591 76.4102 127.475 76.4393 127.359 76.4684C127.243 76.4976 127.07 76.5267 126.809 76.5558C126.751 76.5558 126.693 76.5558 126.664 76.5849C126.461 76.614 126.287 76.6431 126.171 76.6723C126.055 76.7014 125.911 76.7596 125.737 76.8178C125.563 76.8761 125.447 76.9925 125.36 77.109C125.273 77.2255 125.244 77.4002 125.244 77.5749C125.244 77.866 125.331 78.0699 125.534 78.2446C125.737 78.4193 125.998 78.5066 126.345 78.5066C126.809 78.5066 127.185 78.361 127.504 78.099C127.823 77.8369 127.968 77.4584 127.968 77.0217V76.2355Z" fill="black"/>
<path d="M131.27 72.1881V73.2071C131.27 73.4692 131.183 73.7312 131.038 73.9642C130.893 74.1971 130.69 74.3718 130.43 74.43V74.0224C130.719 73.8477 130.835 73.5565 130.835 73.1198H130.517V72.1589H131.27V72.1881Z" fill="black"/>
<path d="M136.601 75.4493H136.021C135.963 74.7505 135.529 74.4011 134.717 74.4011C134.37 74.4011 134.109 74.4593 133.906 74.6049C133.703 74.7505 133.616 74.9543 133.616 75.1873C133.616 75.3037 133.645 75.4202 133.674 75.5075C133.732 75.5949 133.761 75.6531 133.819 75.7114C133.877 75.7696 133.964 75.8278 134.109 75.8569C134.254 75.9152 134.37 75.9443 134.486 75.9734C134.601 76.0025 134.746 76.0316 134.978 76.0899C135.181 76.1481 135.355 76.1772 135.471 76.2063C135.587 76.2355 135.76 76.2937 135.934 76.381C136.108 76.4684 136.253 76.5557 136.369 76.6431C136.485 76.7304 136.572 76.8469 136.659 77.0216C136.746 77.1672 136.775 77.3419 136.775 77.5457C136.775 77.9824 136.601 78.361 136.253 78.623C135.905 78.8851 135.442 79.0306 134.891 79.0306C134.283 79.0306 133.79 78.8851 133.442 78.5939C133.095 78.3027 132.921 77.866 132.921 77.3128H133.5C133.5 77.7204 133.616 78.0116 133.877 78.2445C134.138 78.4483 134.486 78.5648 134.92 78.5648C135.326 78.5648 135.616 78.4774 135.876 78.3027C136.137 78.128 136.224 77.8951 136.224 77.633C136.224 77.4875 136.195 77.3419 136.108 77.2254C136.021 77.109 135.934 77.0216 135.789 76.9634C135.645 76.9051 135.529 76.8469 135.413 76.8178C135.297 76.7887 135.152 76.7304 135.007 76.7013C134.949 76.7013 134.92 76.7013 134.92 76.6722C134.862 76.6722 134.775 76.6431 134.63 76.614C134.486 76.5849 134.37 76.5557 134.312 76.5266C134.254 76.4975 134.138 76.4684 134.022 76.4393C133.906 76.4102 133.79 76.3519 133.732 76.3228C133.674 76.2937 133.587 76.2355 133.5 76.1772C133.413 76.119 133.327 76.0316 133.298 75.9443C133.24 75.8569 133.211 75.7696 133.182 75.6822C133.153 75.5658 133.124 75.4493 133.124 75.3328C133.124 74.9252 133.269 74.5758 133.587 74.3429C133.906 74.1099 134.341 73.9644 134.891 73.9644C135.442 73.9644 135.876 74.1099 136.195 74.372C136.427 74.5758 136.601 74.9543 136.601 75.4493Z" fill="black"/>
<path d="M143.844 72.1589L146.481 78.8558H145.785L144.974 76.7594H141.932L141.121 78.8558H140.454L143.149 72.1589H143.844ZM144.8 76.2353L143.496 72.7704L142.164 76.2353H144.8Z" fill="black"/>
<path d="M151.407 77.1381C151.32 77.6913 151.117 78.1572 150.77 78.4775C150.422 78.8269 149.958 79.0016 149.408 79.0016C148.741 79.0016 148.191 78.7687 147.785 78.3319C147.38 77.866 147.177 77.2837 147.177 76.5267C147.177 75.7405 147.38 75.1 147.785 74.6341C148.191 74.1682 148.741 73.9353 149.408 73.9353C149.958 73.9353 150.422 74.0809 150.741 74.3721C151.088 74.6632 151.291 75.0708 151.349 75.5949H150.799C150.654 74.8088 150.19 74.4303 149.437 74.4303C148.944 74.4303 148.539 74.605 148.249 74.9835C147.959 75.362 147.814 75.857 147.814 76.4976C147.814 77.1381 147.959 77.6331 148.249 78.0116C148.539 78.3901 148.915 78.5648 149.408 78.5648C149.813 78.5648 150.132 78.4484 150.393 78.2154C150.654 77.9825 150.799 77.6331 150.856 77.1964H151.407V77.1381Z" fill="black"/>
<path d="M156.883 78.3899V78.8266C156.738 78.8849 156.594 78.914 156.42 78.914C156.159 78.914 155.985 78.8266 155.927 78.6811C155.84 78.5355 155.811 78.3025 155.811 78.0405C155.406 78.6811 154.797 79.0013 154.015 79.0013C153.522 79.0013 153.146 78.8849 152.856 78.6519C152.566 78.419 152.45 78.0696 152.45 77.662C152.45 76.7885 153.03 76.2935 154.218 76.177C154.276 76.177 154.362 76.177 154.478 76.1479C154.594 76.1479 154.681 76.1188 154.739 76.1188C154.797 76.1188 154.855 76.1188 154.942 76.0897C155.029 76.0897 155.087 76.0606 155.116 76.0606C155.145 76.0606 155.203 76.0315 155.261 76.0315C155.319 76.0315 155.377 76.0023 155.406 76.0023C155.435 76.0023 155.464 75.9732 155.521 75.9732C155.55 75.9441 155.579 75.9441 155.637 75.915C155.753 75.8276 155.811 75.6821 155.811 75.4491C155.811 75.0706 155.695 74.8086 155.492 74.6339C155.29 74.4883 154.971 74.4009 154.565 74.4009C154.16 74.4009 153.841 74.4883 153.638 74.6921C153.435 74.8668 153.29 75.158 153.261 75.5365H152.711C152.74 75.0124 152.914 74.6047 153.261 74.3427C153.609 74.0515 154.073 73.9351 154.652 73.9351C155.203 73.9351 155.637 74.0515 155.956 74.2845C156.275 74.5174 156.42 74.8668 156.42 75.3035V77.924C156.42 78.0405 156.42 78.1278 156.42 78.1861C156.42 78.2443 156.449 78.3025 156.507 78.3317C156.565 78.3899 156.622 78.3899 156.738 78.3899C156.738 78.419 156.796 78.3899 156.883 78.3899ZM155.753 76.2353C155.695 76.2935 155.608 76.3517 155.464 76.3808C155.348 76.41 155.232 76.4391 155.116 76.4682C155 76.4973 154.826 76.5264 154.565 76.5556C154.507 76.5556 154.449 76.5555 154.42 76.5847C154.218 76.6138 154.073 76.6429 153.928 76.672C153.812 76.7011 153.667 76.7594 153.493 76.8176C153.319 76.8758 153.204 76.9923 153.117 77.1088C153.03 77.2252 153.001 77.3999 153.001 77.5746C153.001 77.8658 153.088 78.0696 153.29 78.2443C153.493 78.419 153.754 78.5064 154.102 78.5064C154.565 78.5064 154.942 78.3608 155.261 78.0987C155.579 77.8367 155.724 77.4582 155.724 77.0214V76.2353H155.753Z" fill="black"/>
<path d="M162.158 72.1884V78.8561H161.636V77.8952C161.491 78.2446 161.259 78.5067 160.97 78.7105C160.68 78.8852 160.303 78.9725 159.898 78.9725C159.231 78.9725 158.71 78.7396 158.304 78.2737C157.927 77.8079 157.725 77.1964 157.725 76.4103C157.725 75.6241 157.927 75.0127 158.304 74.5468C158.681 74.0809 159.202 73.848 159.869 73.848C160.709 73.848 161.259 74.1974 161.578 74.8962V72.1301H162.158V72.1884ZM159.927 74.4012C159.434 74.4012 159.028 74.5759 158.739 74.9544C158.449 75.333 158.304 75.8279 158.304 76.4394C158.304 77.0799 158.449 77.5749 158.739 77.9534C159.028 78.332 159.434 78.5067 159.927 78.5067C160.448 78.5067 160.825 78.332 161.144 77.9534C161.433 77.5749 161.578 77.0799 161.578 76.4394C161.578 75.857 161.433 75.3912 161.173 74.9835C160.912 74.5759 160.477 74.4012 159.927 74.4012Z" fill="black"/>
<path d="M167.721 77.2835C167.605 77.8367 167.373 78.2443 167.026 78.5646C166.678 78.8849 166.214 79.0305 165.664 79.0305C164.997 79.0305 164.476 78.7975 164.07 78.3608C163.665 77.8949 163.462 77.2835 163.462 76.5264C163.462 75.7694 163.665 75.1288 164.07 74.663C164.476 74.168 164.997 73.9351 165.664 73.9351C166.33 73.9351 166.852 74.168 167.228 74.663C167.605 75.158 167.779 75.7403 167.779 76.4391V76.6138H164.07C164.07 77.167 164.215 77.6329 164.476 78.0114C164.737 78.3899 165.142 78.5646 165.693 78.5646C166.475 78.5646 166.968 78.157 167.17 77.3126H167.721V77.2835ZM167.17 76.1188C167.142 75.5947 166.997 75.158 166.707 74.8668C166.446 74.5756 166.07 74.4009 165.635 74.4009C165.142 74.4009 164.795 74.5465 164.534 74.8668C164.273 75.1871 164.128 75.5947 164.07 76.0897H167.17V76.1188Z" fill="black"/>
<path d="M169.545 74.0518V74.8962C169.748 74.5759 169.98 74.3138 170.211 74.1682C170.472 73.9935 170.762 73.9353 171.138 73.9353C171.486 73.9353 171.776 74.0227 172.008 74.1974C172.239 74.372 172.413 74.605 172.5 74.8962C172.819 74.2847 173.369 73.9644 174.094 73.9644C174.528 73.9644 174.905 74.0809 175.195 74.3429C175.484 74.605 175.629 74.9835 175.629 75.4785V78.9142H175.05V75.6241C175.05 74.867 174.673 74.4885 173.949 74.4885C173.514 74.4885 173.196 74.6341 172.964 74.8962C172.732 75.1582 172.616 75.5076 172.616 75.9735V78.9142H172.037V75.6823C172.037 74.8961 171.689 74.4885 170.994 74.4885C170.53 74.4885 170.182 74.6341 169.951 74.9544C169.719 75.2747 169.603 75.6823 169.603 76.1773V78.9142H169.023V74.11H169.545V74.0518Z" fill="black"/>
<path d="M177.775 72.1589V73.1198H177.195V72.1589H177.775ZM177.775 74.0515V78.8558H177.195V74.0515H177.775Z" fill="black"/>
<path d="M183.337 77.1381C183.25 77.6913 183.048 78.1572 182.7 78.4775C182.352 78.8269 181.889 79.0016 181.338 79.0016C180.672 79.0016 180.121 78.7687 179.716 78.3319C179.31 77.866 179.107 77.2837 179.107 76.5267C179.107 75.7405 179.31 75.1 179.716 74.6341C180.121 74.1682 180.672 73.9353 181.338 73.9353C181.889 73.9353 182.352 74.0809 182.671 74.3721C183.019 74.6632 183.222 75.0708 183.279 75.5949H182.671C182.526 74.8088 182.063 74.4303 181.309 74.4303C180.817 74.4303 180.411 74.605 180.121 74.9835C179.832 75.362 179.687 75.857 179.687 76.4976C179.687 77.1381 179.832 77.6331 180.121 78.0116C180.411 78.3901 180.788 78.5648 181.28 78.5648C181.686 78.5648 182.005 78.4484 182.265 78.2154C182.526 77.9825 182.671 77.6331 182.729 77.1964H183.337V77.1381Z" fill="black"/>
<path d="M96.3003 89.6292V90.066C96.1554 90.1242 96.0105 90.1533 95.8367 90.1533C95.5759 90.1533 95.4021 90.066 95.3441 89.9204C95.2572 89.7748 95.2282 89.5419 95.2282 89.2798C94.8226 89.9204 94.2141 90.2407 93.4318 90.2407C92.9392 90.2407 92.5626 90.1242 92.2728 89.8913C91.9831 89.6583 91.8672 89.3089 91.8672 88.9013C91.8672 88.0278 92.4467 87.5328 93.6346 87.4164C93.6926 87.4164 93.7795 87.4164 93.8954 87.3872C94.0113 87.3581 94.0982 87.3581 94.1562 87.3581C94.2141 87.3581 94.2721 87.3581 94.359 87.329C94.4459 87.329 94.5038 87.2999 94.5328 87.2999C94.5618 87.2999 94.6197 87.2708 94.6777 87.2708C94.7356 87.2708 94.7936 87.2417 94.8226 87.2417C94.8515 87.2417 94.8805 87.2125 94.9385 87.2125C94.9674 87.1834 94.9964 87.1834 95.0544 87.1543C95.1703 87.067 95.2282 86.9214 95.2282 86.6884C95.2282 86.3099 95.1123 86.0479 94.9095 85.8732C94.7067 85.7276 94.3879 85.6402 93.9823 85.6402C93.5767 85.6402 93.258 85.7276 93.0551 85.9023C92.8523 86.077 92.7074 86.3682 92.6785 86.7467H92.128C92.1569 86.2226 92.3308 85.8149 92.6785 85.5529C93.0262 85.2617 93.4897 85.1453 94.0692 85.1453C94.6197 85.1453 95.0544 85.2617 95.3731 85.4947C95.6918 85.7276 95.8367 86.077 95.8367 86.5137V89.1342C95.8367 89.2507 95.8367 89.3381 95.8367 89.3963C95.8367 89.4545 95.8656 89.5128 95.9236 89.5419C95.9815 89.571 96.0395 89.6001 96.1554 89.6001C96.1554 89.6583 96.2423 89.6292 96.3003 89.6292ZM95.1992 87.4746C95.1413 87.5328 95.0544 87.5911 94.9385 87.6202C94.8226 87.6493 94.7067 87.6784 94.5908 87.7075C94.4749 87.7366 94.301 87.7658 94.0403 87.7949C93.9823 87.7949 93.9244 87.7949 93.8954 87.824C93.6926 87.8531 93.5187 87.8822 93.4028 87.9113C93.2869 87.9405 93.1421 87.9987 92.9682 88.0569C92.7944 88.1152 92.6785 88.2316 92.5915 88.3481C92.5046 88.4646 92.4756 88.6393 92.4756 88.814C92.4756 89.1051 92.5626 89.3089 92.7654 89.4836C92.9682 89.6583 93.229 89.7457 93.5767 89.7457C94.0403 89.7457 94.4169 89.6001 94.7356 89.3381C95.0544 89.076 95.1992 88.6975 95.1992 88.2607V87.4746Z" fill="black"/>
<path d="M97.9223 85.2906V86.1932C98.1251 85.8438 98.3569 85.5818 98.6176 85.4071C98.8784 85.2324 99.2261 85.145 99.6317 85.145C100.124 85.145 100.53 85.2906 100.849 85.5526C101.138 85.8147 101.312 86.2514 101.312 86.8047V90.0948H100.733V87.0085C100.733 86.1059 100.327 85.6691 99.5158 85.6691C99.0523 85.6691 98.6756 85.8147 98.4148 86.135C98.154 86.4553 98.0092 86.892 98.0092 87.5035V90.0948H97.4297V85.2906H97.9223Z" fill="black"/>
<path d="M107.02 83.4272V90.095H106.498V89.1632C106.353 89.5126 106.122 89.7747 105.832 89.9785C105.542 90.1532 105.166 90.2696 104.76 90.2696C104.094 90.2696 103.572 90.0367 103.166 89.5709C102.79 89.105 102.587 88.4935 102.587 87.7074C102.587 86.9212 102.79 86.3098 103.166 85.8439C103.543 85.3781 104.065 85.1451 104.731 85.1451C105.571 85.1451 106.122 85.4945 106.44 86.1933V83.4272H107.02ZM104.818 85.6401C104.325 85.6401 103.92 85.8148 103.63 86.1933C103.34 86.5718 103.195 87.0668 103.195 87.6783C103.195 88.3188 103.34 88.8138 103.63 89.1923C103.92 89.5708 104.325 89.7456 104.818 89.7456C105.339 89.7456 105.716 89.5708 106.035 89.1923C106.324 88.8138 106.469 88.3188 106.469 87.6783C106.469 87.0959 106.324 86.6301 106.064 86.2224C105.774 85.8439 105.339 85.6401 104.818 85.6401Z" fill="black"/>
<path d="M111.713 83.4272H114.726C115.363 83.4272 115.856 83.5728 116.232 83.864C116.609 84.1552 116.783 84.621 116.783 85.2034C116.783 85.6401 116.667 85.9895 116.435 86.2807C116.204 86.5718 115.885 86.7465 115.479 86.863C115.885 86.9504 116.175 87.0959 116.348 87.3289C116.522 87.5618 116.609 87.9112 116.638 88.3771C116.638 88.3771 116.638 88.4644 116.638 88.6391C116.638 88.7847 116.638 88.9303 116.667 89.0468C116.667 89.1632 116.696 89.2797 116.725 89.4544C116.754 89.6 116.783 89.7456 116.812 89.862C116.841 89.9785 116.899 90.0658 116.957 90.1241H116.232C116.175 90.0658 116.146 89.9203 116.117 89.7456C116.088 89.5709 116.059 89.3379 116.059 89.0759C116.059 88.8138 116.03 88.6682 116.03 88.6391C115.972 88.0277 115.827 87.62 115.595 87.4453C115.334 87.2415 114.9 87.1542 114.262 87.1542H112.321V90.1241H111.684V83.4272H111.713ZM112.35 83.9805V86.6301H114.233C114.494 86.6301 114.755 86.601 114.929 86.5718C115.131 86.5427 115.334 86.4845 115.537 86.3971C115.74 86.3098 115.885 86.1642 116.001 85.9895C116.117 85.7857 116.175 85.5528 116.175 85.2907C116.175 84.4172 115.624 84.0096 114.523 84.0096H112.35V83.9805Z" fill="black"/>
<path d="M122.233 88.5227C122.117 89.0759 121.885 89.4836 121.537 89.8039C121.19 90.1241 120.726 90.2697 120.176 90.2697C119.509 90.2697 118.988 90.0368 118.582 89.6C118.176 89.1342 117.974 88.5227 117.974 87.7657C117.974 87.0087 118.176 86.3681 118.582 85.9022C118.988 85.4072 119.509 85.1743 120.176 85.1743C120.842 85.1743 121.363 85.4072 121.74 85.9022C122.117 86.3681 122.291 86.9795 122.291 87.6783V87.853H118.582C118.582 88.4063 118.727 88.8721 118.988 89.2506C119.248 89.6292 119.654 89.8039 120.205 89.8039C120.987 89.8039 121.479 89.3962 121.682 88.5518H122.233V88.5227ZM121.711 87.3581C121.682 86.834 121.537 86.3972 121.248 86.1061C120.987 85.8149 120.61 85.6402 120.176 85.6402C119.683 85.6402 119.335 85.7858 119.075 86.1061C118.814 86.4263 118.669 86.834 118.611 87.3289H121.711V87.3581Z" fill="black"/>
<path d="M126.953 86.6884H126.373C126.315 85.9896 125.881 85.6402 125.069 85.6402C124.722 85.6402 124.461 85.6984 124.258 85.844C124.055 85.9896 123.968 86.1934 123.968 86.4263C123.968 86.5428 123.997 86.6593 124.026 86.7466C124.084 86.834 124.113 86.8922 124.171 86.9504C124.229 87.0087 124.316 87.0669 124.461 87.096C124.606 87.1542 124.722 87.1834 124.838 87.2125C124.954 87.2416 125.098 87.2707 125.33 87.3289C125.533 87.3872 125.707 87.4163 125.823 87.4454C125.939 87.4745 126.113 87.5328 126.286 87.6201C126.46 87.7075 126.605 87.7948 126.721 87.8822C126.837 87.9695 126.924 88.086 126.982 88.2607C127.069 88.4063 127.098 88.581 127.098 88.7848C127.098 89.2215 126.924 89.6 126.576 89.8621C126.228 90.1241 125.765 90.2697 125.214 90.2697C124.606 90.2697 124.113 90.1241 123.766 89.833C123.418 89.5418 123.244 89.1051 123.244 88.5518H123.824C123.824 88.9595 123.94 89.2506 124.2 89.4836C124.461 89.6874 124.809 89.8039 125.243 89.8039C125.649 89.8039 125.939 89.7165 126.199 89.5418C126.431 89.3671 126.547 89.1342 126.547 88.8721C126.547 88.7265 126.518 88.581 126.431 88.4645C126.344 88.348 126.257 88.2607 126.113 88.2024C125.968 88.1442 125.852 88.086 125.736 88.0569C125.62 88.0277 125.475 87.9695 125.33 87.9404C125.272 87.9404 125.243 87.9404 125.243 87.9113C125.185 87.9113 125.098 87.8822 124.954 87.853C124.809 87.8239 124.693 87.7948 124.635 87.7657C124.577 87.7366 124.461 87.7075 124.345 87.6783C124.2 87.6492 124.113 87.591 124.055 87.5619C123.997 87.5328 123.911 87.4745 123.824 87.4163C123.737 87.3581 123.65 87.2707 123.621 87.1834C123.563 87.096 123.534 87.0087 123.505 86.8922C123.476 86.7757 123.447 86.6593 123.447 86.5428C123.447 86.1352 123.592 85.7858 123.911 85.5528C124.229 85.3199 124.664 85.1743 125.214 85.1743C125.765 85.1743 126.199 85.3199 126.518 85.582C126.779 85.8149 126.953 86.1934 126.953 86.6884Z" fill="black"/>
<path d="M132.43 88.5227C132.314 89.0759 132.082 89.4836 131.735 89.8039C131.387 90.1241 130.923 90.2697 130.373 90.2697C129.706 90.2697 129.185 90.0368 128.779 89.6C128.374 89.1342 128.171 88.5227 128.171 87.7657C128.171 87.0087 128.374 86.3681 128.779 85.9022C129.185 85.4072 129.706 85.1743 130.373 85.1743C131.039 85.1743 131.561 85.4072 131.937 85.9022C132.314 86.3681 132.488 86.9795 132.488 87.6783V87.853H128.779C128.779 88.4063 128.924 88.8721 129.185 89.2506C129.446 89.6292 129.851 89.8039 130.402 89.8039C131.184 89.8039 131.677 89.3962 131.879 88.5518H132.43V88.5227ZM131.879 87.3581C131.85 86.834 131.706 86.3972 131.416 86.1061C131.155 85.8149 130.778 85.6402 130.344 85.6402C129.851 85.6402 129.504 85.7858 129.243 86.1061C128.982 86.4263 128.837 86.834 128.779 87.3289H131.879V87.3581Z" fill="black"/>
<path d="M137.907 89.6292V90.066C137.762 90.1242 137.617 90.1533 137.443 90.1533C137.182 90.1533 137.008 90.066 136.951 89.9204C136.864 89.7748 136.835 89.5419 136.835 89.2798C136.429 89.9204 135.821 90.2407 135.038 90.2407C134.546 90.2407 134.169 90.1242 133.879 89.8913C133.59 89.6583 133.474 89.3089 133.474 88.9013C133.474 88.0278 134.053 87.5328 135.241 87.4164C135.299 87.4164 135.386 87.4164 135.502 87.3872C135.618 87.3581 135.705 87.3581 135.763 87.3581C135.821 87.3581 135.878 87.3581 135.965 87.329C136.052 87.329 136.11 87.2999 136.139 87.2999C136.168 87.2999 136.226 87.2708 136.284 87.2708C136.342 87.2708 136.4 87.2417 136.429 87.2417C136.458 87.2417 136.487 87.2125 136.545 87.2125C136.574 87.1834 136.603 87.1834 136.661 87.1543C136.777 87.067 136.835 86.9214 136.835 86.6884C136.835 86.3099 136.719 86.0479 136.516 85.8732C136.313 85.7276 135.994 85.6402 135.589 85.6402C135.183 85.6402 134.864 85.7276 134.662 85.9023C134.459 86.077 134.314 86.3682 134.285 86.7467H133.734C133.763 86.2226 133.937 85.8149 134.285 85.5529C134.633 85.2617 135.096 85.1453 135.676 85.1453C136.226 85.1453 136.661 85.2617 136.98 85.4947C137.298 85.7276 137.443 86.077 137.443 86.5137V89.1342C137.443 89.2507 137.443 89.3381 137.443 89.3963C137.443 89.4545 137.472 89.5128 137.53 89.5419C137.588 89.571 137.646 89.6001 137.762 89.6001C137.762 89.6583 137.82 89.6292 137.907 89.6292ZM136.777 87.4746C136.719 87.5328 136.632 87.5911 136.487 87.6202C136.371 87.6493 136.255 87.6784 136.139 87.7075C136.023 87.7366 135.85 87.7658 135.589 87.7949C135.531 87.7949 135.473 87.7949 135.444 87.824C135.241 87.8531 135.096 87.8822 134.951 87.9113C134.835 87.9405 134.691 87.9987 134.517 88.0569C134.343 88.1152 134.227 88.2316 134.14 88.3481C134.053 88.4646 134.024 88.6393 134.024 88.814C134.024 89.1051 134.111 89.3089 134.314 89.4836C134.517 89.6583 134.777 89.7457 135.125 89.7457C135.589 89.7457 135.965 89.6001 136.284 89.3381C136.603 89.076 136.748 88.6975 136.748 88.2607V87.4746H136.777Z" fill="black"/>
<path d="M141.413 85.2034V85.8148C141.384 85.8148 141.355 85.8148 141.326 85.8148C141.297 85.8148 141.268 85.8148 141.268 85.8148C140.921 85.8148 140.573 85.9313 140.312 86.1351C140.022 86.3389 139.849 86.6301 139.762 86.9504C139.675 87.2415 139.646 87.6492 139.646 88.1441V90.1241H139.066V85.3198H139.617V86.4845C139.82 86.0477 140.051 85.7275 140.312 85.5528C140.573 85.3198 140.95 85.2034 141.413 85.2034Z" fill="black"/>
<path d="M146.337 88.3771C146.25 88.9303 146.047 89.3962 145.699 89.7456C145.351 90.095 144.888 90.2697 144.337 90.2697C143.671 90.2697 143.121 90.0367 142.715 89.6C142.309 89.1341 142.106 88.5518 142.106 87.7947C142.106 87.0086 142.309 86.368 142.715 85.9022C143.121 85.4363 143.671 85.2034 144.337 85.2034C144.888 85.2034 145.351 85.349 145.67 85.6401C146.018 85.9313 146.221 86.3389 146.279 86.863H145.67C145.525 86.0769 145.062 85.6984 144.308 85.6984C143.816 85.6984 143.41 85.8731 143.121 86.2516C142.831 86.6301 142.686 87.1251 142.686 87.7656C142.686 88.4062 142.831 88.9012 143.121 89.2797C143.41 89.6582 143.787 89.8329 144.279 89.8329C144.685 89.8329 145.004 89.7164 145.265 89.4835C145.525 89.2506 145.67 88.9012 145.728 88.4644H146.337V88.3771Z" fill="black"/>
<path d="M148.162 83.4272C148.162 85.0287 148.162 85.9604 148.162 86.1933C148.51 85.4945 149.06 85.1742 149.813 85.1742C150.364 85.1742 150.798 85.3198 151.059 85.6401C151.349 85.9313 151.494 86.368 151.494 86.9504V90.1241H150.914V87.0086C150.914 86.1351 150.509 85.6692 149.697 85.6692C149.176 85.6692 148.799 85.8439 148.567 86.1933C148.336 86.5427 148.191 87.0086 148.191 87.5618V90.095H147.611V83.4272H148.162Z" fill="black"/>
<path d="M161.375 83.4272V90.095H160.679L157.579 85.611C157.173 84.9995 156.884 84.5337 156.71 84.1843C156.739 84.621 156.768 85.1451 156.768 85.7857V90.095H156.159V83.4272H156.855L159.955 87.9403C160.303 88.4353 160.592 88.9012 160.824 89.3379C160.795 88.348 160.766 87.7656 160.766 87.5909V83.4272H161.375Z" fill="black"/>
<path d="M167.024 88.5227C166.908 89.0759 166.676 89.4836 166.329 89.8039C165.981 90.1241 165.517 90.2697 164.967 90.2697C164.3 90.2697 163.779 90.0368 163.373 89.6C162.967 89.1342 162.765 88.5227 162.765 87.7657C162.765 87.0087 162.967 86.3681 163.373 85.9022C163.779 85.4072 164.3 85.1743 164.967 85.1743C165.633 85.1743 166.155 85.4072 166.531 85.9022C166.908 86.3681 167.082 86.9795 167.082 87.6783V87.853H163.373C163.373 88.4063 163.518 88.8721 163.779 89.2506C164.04 89.6292 164.445 89.8039 164.996 89.8039C165.778 89.8039 166.271 89.3962 166.473 88.5518H167.024V88.5227ZM166.502 87.3581C166.473 86.834 166.329 86.3972 166.039 86.1061C165.778 85.8149 165.401 85.6402 164.967 85.6402C164.474 85.6402 164.126 85.7858 163.866 86.1061C163.605 86.4263 163.46 86.834 163.402 87.3289H166.502V87.3581Z" fill="black"/>
<path d="M170.211 85.2909V85.7567H169.226V88.814C169.226 88.9887 169.226 89.1051 169.226 89.1634C169.226 89.2216 169.255 89.3089 169.284 89.3963C169.313 89.4836 169.371 89.5419 169.458 89.571C169.545 89.6001 169.661 89.6292 169.806 89.6292C169.892 89.6292 170.008 89.6292 170.182 89.6001V90.0951C169.979 90.1242 169.806 90.1242 169.661 90.1242C169.081 90.1242 168.762 89.9495 168.676 89.571C168.647 89.4254 168.618 89.076 168.618 88.5228V85.7567H167.777V85.2909H168.618V83.8059H169.197V85.2909H170.211Z" fill="black"/>
<path d="M177.774 85.291L176.209 90.0953H175.572L174.616 86.9215C174.529 86.6595 174.442 86.3392 174.384 85.9898C174.297 86.3392 174.21 86.6595 174.152 86.9215L173.225 90.0953H172.559L170.994 85.291H171.632L172.559 88.2318C172.617 88.4065 172.733 88.8141 172.906 89.4838C173.08 88.7268 173.196 88.3191 173.225 88.2318L174.094 85.3201H174.761L175.688 88.3774C175.746 88.5521 175.833 88.9306 175.948 89.5129C176.035 89.0762 176.151 88.7268 176.238 88.4065L177.194 85.3201H177.774V85.291Z" fill="black"/>
<path d="M180.874 85.1453C181.57 85.1453 182.12 85.3782 182.526 85.8441C182.931 86.3099 183.134 86.9214 183.134 87.7075C183.134 88.4937 182.931 89.1051 182.526 89.571C182.12 90.0369 181.57 90.2407 180.874 90.2407C180.179 90.2407 179.628 90.0077 179.223 89.5419C178.817 89.076 178.614 88.4646 178.614 87.6784C178.614 86.8923 178.817 86.2808 179.223 85.8149C179.628 85.3782 180.179 85.1453 180.874 85.1453ZM182.091 86.1935C181.772 85.8149 181.367 85.6402 180.874 85.6402C180.382 85.6402 179.947 85.8149 179.657 86.1935C179.368 86.572 179.194 87.067 179.194 87.6784C179.194 88.319 179.339 88.814 179.657 89.1925C179.947 89.571 180.382 89.7457 180.903 89.7457C181.425 89.7457 181.83 89.571 182.12 89.1925C182.41 88.814 182.555 88.319 182.555 87.7075C182.555 87.067 182.41 86.572 182.091 86.1935Z" fill="black"/>
<path d="M186.9 85.2034V85.8148C186.871 85.8148 186.842 85.8148 186.813 85.8148C186.785 85.8148 186.756 85.8148 186.756 85.8148C186.408 85.8148 186.06 85.9313 185.799 86.1351C185.51 86.3389 185.336 86.6301 185.249 86.9504C185.162 87.2415 185.133 87.6492 185.133 88.1441V90.1241H184.554V85.3198H185.104V86.4845C185.307 86.0477 185.539 85.7275 185.799 85.5528C186.06 85.3198 186.437 85.2034 186.9 85.2034Z" fill="black"/>
<path d="M191.856 85.2909L189.799 87.067L192.001 90.1242H191.276L189.364 87.4746L188.408 88.2899V90.1242H187.857V83.4565H188.408V87.6493L191.073 85.2909H191.856Z" fill="black"/>
</svg>
