<svg width="224" height="120" viewBox="0 0 224 120" fill="none" xmlns="http://www.w3.org/2000/svg">
<path d="M50.2852 54.0426C50.2852 50.2142 50.2852 46.3859 50.2852 42.5575C50.2852 41.3877 50.8504 40.8206 52.0161 40.8206C54.171 40.8206 56.3259 40.8206 58.4455 40.8206C61.1656 40.8206 63.6032 41.565 65.7227 43.3728C67.2418 44.6489 68.2309 46.315 68.9727 48.1228C69.8559 50.3914 70.1032 52.731 69.9619 55.1414C69.8206 57.4101 69.2907 59.6079 68.2309 61.6284C66.6765 64.6414 64.239 66.4493 60.883 66.9101C60.2472 66.981 59.6113 67.0519 58.9401 67.0519C56.6439 67.0519 54.3477 67.0519 52.0515 67.0519C51.4862 67.0519 50.9564 66.8747 50.6031 66.4138C50.3911 66.1657 50.3205 65.8467 50.3558 65.5276C50.2852 61.7347 50.2852 57.9064 50.2852 54.0426ZM53.4998 53.9717C53.4998 57.2683 53.4998 60.5295 53.4998 63.8261C53.4998 64.1806 53.6058 64.287 53.9591 64.287C55.5134 64.2515 57.0325 64.287 58.5868 64.287C59.0107 64.287 59.3993 64.2515 59.8232 64.1806C62.9673 63.4717 64.9809 61.522 65.8994 58.4381C66.6059 56.0276 66.6765 53.5817 66.2879 51.1004C66.0053 49.2217 65.2635 47.4847 63.9564 46.0668C62.3667 44.3653 60.3178 43.6918 58.0216 43.6564C56.6792 43.6209 55.3368 43.6564 53.9591 43.6564C53.5705 43.6564 53.4645 43.7273 53.4645 44.1172C53.5352 47.4138 53.4998 50.7105 53.4998 53.9717Z" fill="#B3B1B2"/>
<path d="M92.6754 55.6376C92.6754 56.5592 92.6754 57.339 92.6754 58.1543C92.6754 60.7066 92.6754 63.2234 92.6754 65.7756C92.6754 66.7681 92.1809 67.2644 91.1211 67.3353C90.2379 67.4062 89.6727 66.8745 89.5314 65.9883C89.4961 65.7402 89.4961 65.5275 89.4961 65.2793C89.4961 57.8353 89.4961 50.3913 89.4961 42.9473C89.4961 42.6282 89.5314 42.2738 89.5667 41.9547C89.6727 41.2458 90.2379 40.8558 91.0504 40.8558C93.2406 40.8558 95.4308 40.8204 97.621 40.8558C99.3167 40.8913 100.871 41.3521 102.213 42.4155C105.605 45.145 105.993 49.576 103.874 52.7663C102.955 54.1487 101.613 54.7868 100.059 55.1413C99.1047 55.354 98.1156 55.4249 97.1265 55.4603C97.0205 55.4603 96.9145 55.4249 96.8439 55.4958C96.7732 55.6376 96.9145 55.673 96.9852 55.7439C98.7161 57.6581 100.412 59.5368 102.143 61.4155C103.167 62.5499 104.192 63.6842 105.216 64.8185C105.605 65.2439 105.711 65.7756 105.605 66.3428C105.534 66.839 105.145 67.0163 104.686 67.1226C103.803 67.2999 103.061 67.0517 102.461 66.3428C101.224 64.9249 99.9172 63.5424 98.6455 62.1245C96.8792 60.1749 95.1129 58.1898 93.3113 56.2402C93.1347 56.0984 92.958 55.9211 92.6754 55.6376ZM92.6754 48.3708C92.6754 49.7887 92.6754 51.2066 92.6754 52.6245C92.6754 52.9081 92.7814 53.0144 93.064 53.0144C94.2651 53.0144 95.4662 53.0144 96.6672 53.0144C97.3738 53.0144 98.0803 52.979 98.7868 52.8372C100.2 52.5536 101.224 51.7737 101.613 50.3204C101.754 49.7887 101.825 49.257 101.895 48.6898C102.001 47.7327 101.825 46.8111 101.366 45.9958C100.447 44.3297 98.9634 43.6917 97.1618 43.6562C95.8194 43.6208 94.477 43.6562 93.17 43.6562C92.8167 43.6562 92.7107 43.7626 92.7461 44.117C92.6754 45.5349 92.6754 46.9529 92.6754 48.3708Z" fill="#B3B1B2"/>
<path d="M139.908 51.1001C140.508 50.3557 141.109 49.7886 141.815 49.3632C144.465 47.8035 148.245 48.5125 150.258 50.9938C151.777 52.8725 152.484 55.0703 152.59 57.4453C152.66 59.4658 152.378 61.4154 151.389 63.2233C149.446 66.768 145.807 67.8315 142.663 67.0162C141.568 66.7326 140.72 66.0945 140.12 65.102C140.084 65.0311 140.014 64.9602 139.908 64.8893C139.908 65.2083 139.908 65.4919 139.908 65.811C139.872 66.7326 139.413 67.2289 138.565 67.2289C137.647 67.2643 137.011 66.7326 136.94 65.8464C136.94 65.7046 136.94 65.5274 136.94 65.3856C136.94 57.658 136.94 49.9304 136.94 42.1673C136.94 42.0964 136.94 41.9901 136.94 41.9192C136.976 40.9621 137.47 40.4658 138.389 40.4658C139.378 40.4658 139.908 40.9621 139.908 41.9546C139.908 44.046 139.908 46.1375 139.908 48.2643C139.908 49.186 139.908 50.0722 139.908 51.1001ZM149.587 57.9061C149.516 56.3819 149.269 54.8222 148.421 53.4397C147.397 51.7382 145.595 50.8875 143.758 51.2774C142.133 51.6319 140.968 52.6244 140.261 54.1132C139.625 55.4602 139.413 56.9136 139.59 58.4024C139.696 59.5367 139.837 60.6356 140.332 61.699C141.215 63.6132 142.628 64.6412 144.783 64.6412C146.832 64.6057 148.033 63.436 148.845 61.699C149.41 60.5292 149.552 59.2531 149.587 57.9061Z" fill="#0D4496"/>
<path d="M141.568 83.3577C133.09 83.3223 125.071 81.3372 117.405 77.6861C115.392 76.729 113.484 75.6301 111.612 74.4249C110.87 73.9287 110.658 73.2197 111.047 72.5462C111.47 71.9081 112.212 71.7663 112.954 72.2626C118.924 76.091 125.389 78.6077 132.348 79.9548C136.093 80.6637 139.837 80.9473 143.652 80.7701C150.258 80.451 156.582 78.9268 162.658 76.3036C165.413 75.0984 168.027 73.6805 170.571 72.0145C171.419 71.4828 172.373 71.8372 172.585 72.7234C172.726 73.2551 172.479 73.7869 171.913 74.1413C170.394 75.1339 168.84 76.0555 167.25 76.8708C162.128 79.5648 156.723 81.4081 151.071 82.4361C147.962 83.0742 144.783 83.3932 141.568 83.3577Z" fill="#0D4496"/>
<path d="M73.2814 54.0423C73.2814 50.2848 73.2814 46.5273 73.2814 42.7699C73.2814 42.3445 73.3874 41.9191 73.564 41.5292C73.8113 41.033 74.2352 40.8557 74.7298 40.8557C77.9799 40.8557 81.1946 40.8557 84.4446 40.8557C85.3278 40.8557 85.8224 41.352 85.8224 42.2382C85.8577 43.4434 85.3985 43.9042 84.1973 43.9042C81.7598 43.9042 79.3576 43.9042 76.9201 43.9042C76.5668 43.9042 76.4608 43.9751 76.4608 44.365C76.4961 46.9527 76.4608 49.5404 76.4608 52.1281C76.4608 52.4826 76.5668 52.5535 76.8847 52.5535C79.1456 52.5535 81.4065 52.5535 83.6674 52.5535C84.2327 52.5535 84.7626 52.6598 85.0099 53.2624C85.2571 53.9359 85.2571 54.6094 84.7979 55.1766C84.48 55.5665 83.9854 55.602 83.5261 55.602C81.3359 55.602 79.1456 55.602 76.9554 55.602C76.5668 55.602 76.4608 55.7083 76.4608 56.0982C76.4608 58.615 76.4608 61.1318 76.4608 63.6486C76.4608 64.0385 76.5668 64.1094 76.9201 64.1094C79.3576 64.1094 81.8305 64.1094 84.268 64.1094C84.7979 64.1094 85.3631 64.1803 85.6104 64.712C85.9284 65.3501 85.9637 66.0236 85.5398 66.6617C85.2571 67.0516 84.7979 67.1579 84.374 67.1579C81.1239 67.1579 77.9092 67.1579 74.6592 67.1579C73.776 67.1579 73.2461 66.5199 73.2461 65.5273C73.2461 63.3296 73.2461 61.1318 73.2461 58.9341C73.2461 57.268 73.2814 55.6374 73.2814 54.0423Z" fill="#B3B1B2"/>
<path d="M129.945 64.5348C129.663 64.8893 129.451 65.1374 129.203 65.3856C127.402 67.2997 125.211 67.6897 122.809 66.9453C119.736 66.0236 117.864 63.8968 117.228 60.7419C116.662 58.1188 116.733 55.4956 117.899 53.0498C119.206 50.2494 121.502 48.7606 124.576 48.5479C126.554 48.4061 128.214 49.2214 129.592 50.6393C129.663 50.7456 129.769 50.8165 129.839 50.9229C129.839 50.9229 129.874 50.9583 129.945 50.9938C129.945 50.6747 129.945 50.3557 129.945 50.0367C129.98 48.9733 130.758 48.3706 131.782 48.5833C132.383 48.7251 132.701 49.115 132.736 49.7531C132.771 50.0367 132.736 50.3203 132.736 50.5684C132.736 55.602 132.736 60.6356 132.736 65.7046C132.736 66.8035 132.277 67.2643 131.182 67.2289C130.44 67.1934 129.98 66.8035 129.945 66.0236C129.91 65.5983 129.945 65.1374 129.945 64.5348ZM129.874 57.977C129.874 56.5591 129.733 55.1766 129.097 53.9005C128.249 52.2345 126.907 51.2065 124.999 51.171C123.092 51.1356 121.679 52.0218 120.866 53.7587C119.559 56.5591 119.595 59.3949 120.902 62.1953C121.326 63.046 121.926 63.755 122.809 64.1803C125.105 65.3501 128.002 64.3221 129.097 61.9471C129.698 60.7065 129.874 59.3594 129.874 57.977Z" fill="#0D4496"/>
<path d="M139.272 33.589C139.272 34.5461 138.212 35.0778 137.293 34.5461C135.81 33.6954 134.291 32.951 132.736 32.2775C128.391 30.3987 123.905 29.1935 119.206 28.6972C110.622 27.7756 102.462 29.3353 94.69 33.0219C93.5948 33.5536 92.5351 34.1207 91.5106 34.7588C90.7687 35.1842 90.0269 35.0424 89.6383 34.4043C89.2497 33.7308 89.4617 32.9864 90.2035 32.561C94.7959 29.8316 99.7416 27.9883 105.005 26.8894C108.608 26.145 112.282 25.7905 115.956 25.9323C119.913 26.0741 123.834 26.7122 127.649 27.811C131.465 28.9099 135.103 30.3987 138.565 32.3838C138.989 32.561 139.307 32.9155 139.272 33.589Z" fill="#0D4496"/>
<path d="M113.802 53.936C113.802 57.7289 113.802 61.5219 113.802 65.3148C113.802 65.4566 113.802 65.6338 113.802 65.7756C113.731 67.0163 112.706 67.6543 111.576 67.158C111.187 66.9808 110.975 66.6618 110.869 66.2364C110.834 65.9528 110.799 65.6692 110.799 65.3857C110.799 57.7644 110.799 50.1786 110.799 42.5573C110.799 42.3092 110.799 42.0965 110.834 41.8484C110.94 41.0685 111.399 40.6431 112.177 40.6431C113.272 40.6077 113.766 41.1039 113.766 42.2028C113.802 46.1021 113.802 50.0013 113.802 53.936Z" fill="#0D4496"/>
<path d="M48.8722 91.0145H47.4945V92.4679H49.0135V92.8932H47V88.9231H48.9428V89.3485H47.4945V90.6246H48.8722V91.0145Z" fill="#0D4496"/>
<path d="M51.9819 92.078C51.9819 92.397 51.9819 92.6452 52.0173 92.8578H51.5934L51.5581 92.4325C51.4521 92.6452 51.1695 92.8933 50.7103 92.8933C50.251 92.8933 49.8271 92.6097 49.8271 91.6881V89.9866H50.3217V91.6172C50.3217 92.1134 50.463 92.5034 50.8869 92.5034C51.2048 92.5034 51.4168 92.2552 51.4874 92.0425C51.5227 91.9716 51.5227 91.8653 51.5227 91.7944V90.022H52.0173V92.078H51.9819Z" fill="#0D4496"/>
<path d="M53.0412 90.8728C53.0412 90.5537 53.0412 90.2702 53.0059 90.022H53.4298L53.4651 90.5537C53.5711 90.1993 53.889 89.9866 54.207 89.9866C54.2423 89.9866 54.2776 89.9866 54.3483 89.9866V90.4828C54.3129 90.4828 54.2423 90.4828 54.207 90.4828C53.8537 90.4828 53.6064 90.7664 53.5711 91.1209C53.5711 91.1918 53.5358 91.2627 53.5358 91.369V92.8933H53.0412V90.8728Z" fill="#0D4496"/>
<path d="M57.3511 91.4399C57.3511 92.5034 56.6798 92.9287 56.0793 92.9287C55.3727 92.9287 54.8428 92.397 54.8428 91.4754C54.8428 90.4828 55.408 89.9866 56.1146 89.9866C56.8565 89.9866 57.3511 90.5183 57.3511 91.4399ZM55.3727 91.4399C55.3727 92.0071 55.6553 92.5388 56.1146 92.5388C56.5738 92.5388 56.8565 92.0071 56.8565 91.4399C56.8565 90.9791 56.6798 90.341 56.1146 90.341C55.5493 90.341 55.3727 90.9437 55.3727 91.4399Z" fill="#0D4496"/>
<path d="M58.2345 90.9437C58.2345 90.5537 58.2345 90.2702 58.1992 90.022H58.6585L58.6938 90.4828C58.8705 90.1638 59.1884 89.9866 59.577 89.9866C60.213 89.9866 60.6722 90.5537 60.6722 91.4399C60.6722 92.4679 60.107 92.9642 59.5064 92.9642C59.1531 92.9642 58.9058 92.7869 58.7291 92.5388V94.0276H58.2345V90.9437ZM58.7291 91.759C58.7291 91.8299 58.7291 91.9008 58.7645 91.9716C58.8705 92.3616 59.1178 92.5388 59.4357 92.5388C59.9303 92.5388 60.1776 92.078 60.1776 91.4399C60.1776 90.8728 59.9303 90.3765 59.4357 90.3765C59.1178 90.3765 58.8351 90.6246 58.7645 90.9791C58.7645 91.05 58.7291 91.1209 58.7291 91.1918V91.759Z" fill="#0D4496"/>
<path d="M61.8382 91.5106C61.8382 92.255 62.2621 92.5032 62.7213 92.5032C63.0393 92.5032 63.2512 92.4323 63.4278 92.3614L63.4985 92.7159C63.3219 92.7868 63.0393 92.8931 62.6507 92.8931C61.8381 92.8931 61.3789 92.3259 61.3789 91.4752C61.3789 90.589 61.8382 89.9509 62.6153 89.9509C63.4278 89.9509 63.6751 90.6953 63.6751 91.2625C63.6751 91.3688 63.6751 91.4397 63.6751 91.5106H61.8382ZM63.1452 91.1562C63.1452 90.7662 63.0039 90.3409 62.5094 90.3409C62.0501 90.3409 61.8382 90.8017 61.8028 91.1562H63.1452Z" fill="#0D4496"/>
<path d="M65.9354 92.8577L65.9001 92.5032C65.7588 92.7159 65.4762 92.8931 65.123 92.8931C64.5931 92.8931 64.3105 92.5032 64.3105 92.0778C64.3105 91.3688 64.911 91.0144 65.8648 91.0144V90.9435C65.8648 90.6599 65.7941 90.3054 65.2643 90.3054C65.017 90.3054 64.7697 90.3763 64.5931 90.4826L64.4872 90.1636C64.6991 90.0218 65.017 89.9509 65.3349 89.9509C66.112 89.9509 66.324 90.4826 66.324 91.0853V92.1841C66.324 92.4323 66.324 92.645 66.3593 92.8577H65.9354ZM65.8648 91.4043C65.4056 91.4043 64.8051 91.4752 64.8051 92.0424C64.8051 92.3968 65.017 92.5386 65.229 92.5386C65.5469 92.5386 65.7588 92.3259 65.8294 92.0778C65.8294 92.0069 65.8648 91.9715 65.8648 91.9006V91.4043Z" fill="#0D4496"/>
<path d="M67.384 90.8019C67.384 90.4828 67.384 90.2702 67.3486 90.0575H67.7725L67.8079 90.4828C67.9492 90.2347 68.2318 89.9866 68.6557 89.9866C69.0443 89.9866 69.5742 90.2347 69.5742 91.1209V92.8933H69.0796V91.1918C69.0796 90.7664 68.9383 90.4119 68.5144 90.4119C68.2318 90.4119 67.9845 90.6246 67.9138 90.9082C67.8785 90.9791 67.8785 91.05 67.8785 91.1563V92.8933H67.384V90.8019Z" fill="#0D4496"/>
<path d="M72.082 88.9584C72.3647 88.9229 72.6826 88.8875 73.0359 88.8875C73.6718 88.8875 74.1311 89.0292 74.449 89.3128C74.8023 89.6319 75.0143 90.0927 75.0143 90.8016C75.0143 91.5106 74.8023 92.0423 74.4844 92.3968C74.1311 92.7513 73.6012 92.9285 72.9299 92.9285C72.612 92.9285 72.3647 92.9285 72.1174 92.893V88.9584H72.082ZM72.5766 92.4677C72.6826 92.5031 72.8239 92.5031 73.0006 92.5031C73.9191 92.5031 74.4844 91.9714 74.4844 90.8016C74.4844 89.8445 74.0251 89.2774 73.0712 89.2774C72.8593 89.2774 72.7179 89.3128 72.5766 89.3128V92.4677Z" fill="#0D4496"/>
<path d="M76.3914 89.2421C76.3914 89.4194 76.2853 89.5612 76.073 89.5612C75.8962 89.5612 75.79 89.4194 75.79 89.2421C75.79 89.0649 75.9315 88.9231 76.1084 88.9231C76.2853 88.9231 76.3914 89.0649 76.3914 89.2421ZM75.8608 92.8578V90.022H76.356V92.8578H75.8608Z" fill="#0D4496"/>
<path d="M77.3436 92.3614C77.4849 92.4323 77.7322 92.5386 77.9442 92.5386C78.2974 92.5386 78.4387 92.3614 78.4387 92.1132C78.4387 91.8651 78.2974 91.7233 77.9442 91.5815C77.4849 91.3688 77.2376 91.1207 77.2376 90.7662C77.2376 90.3054 77.5909 89.9509 78.1561 89.9509C78.4387 89.9509 78.6507 90.0218 78.792 90.1282L78.6507 90.4826C78.5447 90.4117 78.3681 90.3409 78.1208 90.3409C77.8382 90.3409 77.6969 90.5181 77.6969 90.7308C77.6969 90.9435 77.8382 91.0498 78.1915 91.227C78.6154 91.4043 78.898 91.6524 78.898 92.0778C78.898 92.6095 78.5094 92.9285 77.9088 92.9285C77.6262 92.9285 77.3436 92.8576 77.167 92.7513L77.3436 92.3614Z" fill="#0D4496"/>
<path d="M80.4184 89.2419V90.0572H81.0896V90.4472H80.4184V92.0423C80.4184 92.3968 80.5244 92.574 80.7717 92.574C80.8777 92.574 80.9836 92.574 81.019 92.5386L81.0543 92.9285C80.9483 92.964 80.807 92.9994 80.6304 92.9994C80.4184 92.9994 80.2418 92.9285 80.1005 92.7867C79.9592 92.6449 79.9239 92.3968 79.9239 92.0423V90.4472H79.5V90.0572H79.9239V89.3837L80.4184 89.2419Z" fill="#0D4496"/>
<path d="M81.8683 90.8728C81.8683 90.5537 81.8683 90.2702 81.833 90.022H82.2569L82.2922 90.5537C82.3982 90.1993 82.7161 89.9866 83.034 89.9866C83.0693 89.9866 83.1046 89.9866 83.1753 89.9866V90.4828C83.14 90.4828 83.0693 90.4828 83.034 90.4828C82.6808 90.4828 82.4335 90.7664 82.3982 91.1209C82.3982 91.1918 82.3629 91.2627 82.3629 91.369V92.8933H81.8683V90.8728Z" fill="#0D4496"/>
<path d="M84.4822 89.2421C84.4822 89.4194 84.3761 89.5612 84.1638 89.5612C83.987 89.5612 83.8809 89.4194 83.8809 89.2421C83.8809 89.0649 84.0224 88.9231 84.1992 88.9231C84.3761 88.9231 84.4822 89.0649 84.4822 89.2421ZM83.9516 92.8578V90.022H84.4468V92.8578H83.9516Z" fill="#0D4496"/>
<path d="M85.4697 92.8576C85.4697 92.6804 85.5051 92.3613 85.5051 92.1486V88.7102H85.9996V90.4117C86.1762 90.0927 86.4588 89.9154 86.8474 89.9154C87.4833 89.9154 87.9072 90.4826 87.9072 91.3688C87.9072 92.3968 87.342 92.893 86.7414 92.893C86.3529 92.893 86.1056 92.7158 85.8936 92.3968L85.8583 92.8221H85.4697V92.8576ZM85.9643 91.7587C85.9643 91.8296 85.9643 91.9005 85.9996 91.936C86.1056 92.3259 86.3529 92.5031 86.6708 92.5031C87.1654 92.5031 87.4126 92.0423 87.4126 91.4042C87.4126 90.8371 87.1654 90.3408 86.6708 90.3408C86.3529 90.3408 86.0703 90.5889 85.9996 90.9434C85.9996 91.0143 85.9643 91.0852 85.9643 91.1561V91.7587Z" fill="#0D4496"/>
<path d="M90.9458 92.078C90.9458 92.397 90.9458 92.6452 90.9811 92.8578H90.5572L90.5219 92.4325C90.4159 92.6452 90.1334 92.8933 89.6741 92.8933C89.2149 92.8933 88.791 92.6097 88.791 91.6881V89.9866H89.2856V91.6172C89.2856 92.1134 89.4269 92.5034 89.8508 92.5034C90.1687 92.5034 90.3806 92.2552 90.4513 92.0425C90.4866 91.9716 90.4866 91.8653 90.4866 91.7944V90.022H90.9811V92.078H90.9458Z" fill="#0D4496"/>
<path d="M92.6059 89.2419V90.0572H93.2771V90.4472H92.6059V92.0423C92.6059 92.3968 92.7119 92.574 92.9592 92.574C93.0652 92.574 93.1711 92.574 93.2065 92.5386L93.2418 92.9285C93.1358 92.964 92.9945 92.9994 92.8179 92.9994C92.6059 92.9994 92.4293 92.9285 92.288 92.7867C92.1467 92.6449 92.1114 92.3968 92.1114 92.0423V90.4472H91.6875V90.0572H92.1114V89.3837L92.6059 89.2419Z" fill="#0D4496"/>
<path d="M94.3372 91.5106C94.3372 92.255 94.7611 92.5032 95.2203 92.5032C95.5383 92.5032 95.7502 92.4323 95.9269 92.3614L95.9975 92.7159C95.8209 92.7868 95.5383 92.8931 95.1497 92.8931C94.3372 92.8931 93.8779 92.3259 93.8779 91.4752C93.8779 90.589 94.3372 89.9509 95.1144 89.9509C95.9269 89.9509 96.1742 90.6953 96.1742 91.2625C96.1742 91.3688 96.1742 91.4397 96.1742 91.5106H94.3372ZM95.6796 91.1562C95.6796 90.7662 95.5383 90.3409 95.0437 90.3409C94.5845 90.3409 94.3725 90.8017 94.3372 91.1562H95.6796Z" fill="#0D4496"/>
<path d="M99.2466 88.7457V92.1841C99.2466 92.4322 99.2466 92.7158 99.2819 92.893H98.858L98.8227 92.4322C98.6814 92.7158 98.3988 92.9285 97.9749 92.9285C97.3391 92.9285 96.8799 92.3613 96.8799 91.4751C96.8799 90.518 97.4097 89.9509 98.0103 89.9509C98.3635 89.9509 98.6461 90.1281 98.7521 90.3408V88.7102H99.2466V88.7457ZM98.7521 91.1561C98.7521 91.0852 98.7521 91.0143 98.7521 90.9434C98.6814 90.6244 98.4342 90.3763 98.1162 90.3763C97.6217 90.3763 97.3744 90.8725 97.3744 91.4751C97.3744 92.0423 97.6217 92.5386 98.1162 92.5386C98.3988 92.5386 98.6814 92.3613 98.7874 91.9714C98.7874 91.9005 98.8227 91.8296 98.8227 91.7587V91.1561H98.7521Z" fill="#0D4496"/>
<path d="M103.592 91.0145H102.214V92.4679H103.733V92.8932H101.72V88.9231H103.663V89.3485H102.214V90.6246H103.592V91.0145Z" fill="#0D4496"/>
<path d="M104.617 90.8019C104.617 90.4828 104.617 90.2702 104.582 90.0575H105.006L105.041 90.4828C105.183 90.2347 105.465 89.9866 105.889 89.9866C106.278 89.9866 106.808 90.2347 106.808 91.1209V92.8933H106.313V91.1918C106.313 90.7664 106.172 90.4119 105.748 90.4119C105.465 90.4119 105.218 90.6246 105.147 90.9082C105.112 90.9791 105.112 91.05 105.112 91.1563V92.8933H104.617V90.8019Z" fill="#0D4496"/>
<path d="M108.15 91.5106C108.15 92.255 108.574 92.5032 109.033 92.5032C109.351 92.5032 109.563 92.4323 109.739 92.3614L109.81 92.7159C109.633 92.7868 109.351 92.8931 108.962 92.8931C108.15 92.8931 107.69 92.3259 107.69 91.4752C107.69 90.589 108.15 89.9509 108.927 89.9509C109.739 89.9509 109.987 90.6953 109.987 91.2625C109.987 91.3688 109.987 91.4397 109.987 91.5106H108.15ZM109.492 91.1562C109.492 90.7662 109.351 90.3409 108.856 90.3409C108.397 90.3409 108.185 90.8017 108.15 91.1562H109.492Z" fill="#0D4496"/>
<path d="M110.834 90.8728C110.834 90.5537 110.834 90.2702 110.799 90.022H111.223L111.258 90.5537C111.364 90.1993 111.682 89.9866 112 89.9866C112.035 89.9866 112.07 89.9866 112.141 89.9866V90.4828C112.106 90.4828 112.035 90.4828 112 90.4828C111.646 90.4828 111.399 90.7664 111.364 91.1209C111.364 91.1918 111.329 91.2627 111.329 91.369V92.8933H110.834V90.8728Z" fill="#0D4496"/>
<path d="M115.038 90.0218C115.038 90.2345 115.002 90.4472 115.002 90.8371V92.4677C115.002 93.1412 114.896 93.5312 114.649 93.7438C114.402 93.992 114.049 94.0629 113.695 94.0629C113.378 94.0629 113.06 93.992 112.848 93.8502L112.954 93.4603C113.13 93.5666 113.378 93.6729 113.695 93.6729C114.155 93.6729 114.508 93.4248 114.508 92.7159V92.3968C114.367 92.645 114.084 92.8222 113.731 92.8222C113.095 92.8222 112.636 92.2196 112.636 91.4397C112.636 90.4472 113.201 89.9509 113.801 89.9509C114.225 89.9509 114.473 90.1991 114.579 90.4118L114.614 90.0218H115.038ZM114.508 91.1207C114.508 91.0498 114.508 90.9789 114.473 90.908C114.402 90.6244 114.19 90.3763 113.837 90.3763C113.378 90.3763 113.095 90.8017 113.095 91.4397C113.095 92.0424 113.378 92.4677 113.837 92.4677C114.119 92.4677 114.367 92.2905 114.473 91.9715C114.508 91.9006 114.508 91.7942 114.508 91.6879V91.1207Z" fill="#0D4496"/>
<path d="M116.275 90.0218L116.805 91.6879C116.876 91.9006 116.911 92.1132 116.982 92.255C117.017 92.0778 117.088 91.8651 117.158 91.6524L117.653 89.9864H118.183L117.511 91.936C117.194 92.8222 116.982 93.3894 116.628 93.7438C116.381 93.992 116.134 94.0629 116.028 94.0983L115.886 93.6729C116.028 93.6375 116.169 93.5312 116.31 93.3894C116.452 93.283 116.593 93.0703 116.699 92.8576C116.734 92.7868 116.734 92.7513 116.734 92.7159C116.734 92.6804 116.734 92.645 116.699 92.5741L115.745 89.9509H116.275V90.0218Z" fill="#0D4496"/>
<path d="M120.338 88.9584C120.585 88.9229 120.903 88.8875 121.221 88.8875C121.715 88.8875 122.069 88.9938 122.281 89.2065C122.493 89.3837 122.563 89.6673 122.563 89.9509C122.563 90.4826 122.245 90.8016 121.857 90.9789C122.139 91.0852 122.316 91.3688 122.422 91.7942C122.528 92.3613 122.634 92.7158 122.705 92.8576H122.21C122.139 92.7513 122.069 92.3968 121.963 91.9005C121.857 91.3688 121.645 91.1561 121.221 91.1561H120.832V92.8576H120.338V88.9584ZM120.797 90.7662H121.221C121.715 90.7662 122.069 90.4472 122.069 89.9863C122.069 89.4901 121.751 89.2419 121.221 89.2419C121.009 89.2419 120.868 89.2419 120.797 89.2774V90.7662Z" fill="#0D4496"/>
<path d="M123.799 91.5106C123.799 92.255 124.223 92.5032 124.682 92.5032C125 92.5032 125.212 92.4323 125.389 92.3614L125.459 92.7159C125.283 92.7868 125 92.8931 124.612 92.8931C123.799 92.8931 123.34 92.3259 123.34 91.4752C123.34 90.589 123.799 89.9509 124.576 89.9509C125.389 89.9509 125.636 90.6953 125.636 91.2625C125.636 91.3688 125.636 91.4397 125.636 91.5106H123.799ZM125.141 91.1562C125.141 90.7662 125 90.3409 124.506 90.3409C124.046 90.3409 123.834 90.8017 123.799 91.1562H125.141Z" fill="#0D4496"/>
<path d="M126.413 92.3614C126.554 92.4323 126.802 92.5386 127.014 92.5386C127.367 92.5386 127.508 92.3614 127.508 92.1132C127.508 91.8651 127.367 91.7233 127.014 91.5815C126.554 91.3688 126.307 91.1207 126.307 90.7662C126.307 90.3054 126.66 89.9509 127.226 89.9509C127.508 89.9509 127.72 90.0218 127.861 90.1282L127.72 90.4826C127.614 90.4117 127.438 90.3409 127.19 90.3409C126.908 90.3409 126.766 90.5181 126.766 90.7308C126.766 90.9435 126.908 91.0498 127.261 91.227C127.685 91.4043 127.967 91.6524 127.967 92.0778C127.967 92.6095 127.579 92.9285 126.978 92.9285C126.696 92.9285 126.413 92.8576 126.236 92.7513L126.413 92.3614Z" fill="#0D4496"/>
<path d="M131.182 91.4399C131.182 92.5034 130.511 92.9287 129.91 92.9287C129.204 92.9287 128.674 92.397 128.674 91.4754C128.674 90.4828 129.239 89.9866 129.946 89.9866C130.687 89.9866 131.182 90.5183 131.182 91.4399ZM129.204 91.4399C129.204 92.0071 129.486 92.5388 129.946 92.5388C130.405 92.5388 130.687 92.0071 130.687 91.4399C130.687 90.9791 130.511 90.341 129.946 90.341C129.416 90.341 129.204 90.9437 129.204 91.4399Z" fill="#0D4496"/>
<path d="M134.22 92.078C134.22 92.397 134.22 92.6452 134.255 92.8578H133.832L133.796 92.4325C133.69 92.6452 133.408 92.8933 132.948 92.8933C132.489 92.8933 132.065 92.6097 132.065 91.6881V89.9866H132.56V91.6172C132.56 92.1134 132.701 92.5034 133.125 92.5034C133.443 92.5034 133.655 92.2552 133.726 92.0425C133.761 91.9716 133.761 91.8653 133.761 91.7944V90.022H134.255V92.078H134.22Z" fill="#0D4496"/>
<path d="M135.28 90.8728C135.28 90.5537 135.28 90.2702 135.245 90.022H135.669L135.704 90.5537C135.81 90.1993 136.128 89.9866 136.446 89.9866C136.482 89.9866 136.517 89.9866 136.588 89.9866V90.4828C136.552 90.4828 136.482 90.4828 136.446 90.4828C136.093 90.4828 135.846 90.7664 135.81 91.1209C135.81 91.1918 135.775 91.2627 135.775 91.369V92.8933H135.28V90.8728Z" fill="#0D4496"/>
<path d="M139.095 92.7869C138.953 92.8578 138.706 92.9287 138.388 92.9287C137.611 92.9287 137.081 92.3616 137.081 91.4754C137.081 90.6246 137.611 89.9866 138.494 89.9866C138.741 89.9866 138.989 90.0575 139.13 90.1284L139.024 90.5183C138.918 90.4474 138.741 90.4119 138.494 90.4119C137.894 90.4119 137.611 90.9082 137.611 91.5108C137.611 92.1843 138 92.5743 138.494 92.5743C138.741 92.5743 138.918 92.5034 139.024 92.4679L139.095 92.7869Z" fill="#0D4496"/>
<path d="M140.191 91.5106C140.191 92.255 140.615 92.5032 141.074 92.5032C141.392 92.5032 141.604 92.4323 141.78 92.3614L141.851 92.7159C141.674 92.7868 141.392 92.8931 141.003 92.8931C140.191 92.8931 139.731 92.3259 139.731 91.4752C139.731 90.589 140.191 89.9509 140.968 89.9509C141.78 89.9509 142.028 90.6953 142.028 91.2625C142.028 91.3688 142.028 91.4397 142.028 91.5106H140.191ZM141.498 91.1562C141.498 90.7662 141.356 90.3409 140.862 90.3409C140.403 90.3409 140.191 90.8017 140.155 91.1562H141.498Z" fill="#0D4496"/>
<path d="M142.768 92.3614C142.91 92.4323 143.157 92.5386 143.369 92.5386C143.722 92.5386 143.863 92.3614 143.863 92.1132C143.863 91.8651 143.722 91.7233 143.369 91.5815C142.91 91.3688 142.662 91.1207 142.662 90.7662C142.662 90.3054 143.016 89.9509 143.581 89.9509C143.863 89.9509 144.075 90.0218 144.217 90.1282L144.075 90.4826C143.969 90.4117 143.793 90.3409 143.546 90.3409C143.263 90.3409 143.122 90.5181 143.122 90.7308C143.122 90.9435 143.263 91.0498 143.616 91.227C144.04 91.4043 144.323 91.6524 144.323 92.0778C144.323 92.6095 143.934 92.9285 143.334 92.9285C143.051 92.9285 142.768 92.8576 142.592 92.7513L142.768 92.3614Z" fill="#0D4496"/>
<path d="M146.69 88.9231H147.185V92.4679H148.704V92.8932H146.69V88.9231Z" fill="#0D4496"/>
<path d="M150.894 92.8577L150.858 92.5032C150.717 92.7159 150.434 92.8931 150.081 92.8931C149.551 92.8931 149.269 92.5032 149.269 92.0778C149.269 91.3688 149.869 91.0144 150.823 91.0144V90.9435C150.823 90.6599 150.752 90.3054 150.222 90.3054C149.975 90.3054 149.728 90.3763 149.551 90.4826L149.445 90.1636C149.657 90.0218 149.975 89.9509 150.293 89.9509C151.07 89.9509 151.282 90.4826 151.282 91.0853V92.1841C151.282 92.4323 151.282 92.645 151.318 92.8577H150.894ZM150.823 91.4043C150.364 91.4043 149.763 91.4752 149.763 92.0424C149.763 92.3968 149.975 92.5386 150.187 92.5386C150.505 92.5386 150.717 92.3259 150.788 92.0778C150.788 92.0069 150.823 91.9715 150.823 91.9006V91.4043Z" fill="#0D4496"/>
<path d="M152.342 92.8576C152.342 92.6804 152.377 92.3613 152.377 92.1486V88.7102H152.872V90.4117C153.048 90.0927 153.331 89.9154 153.72 89.9154C154.356 89.9154 154.78 90.4826 154.78 91.3688C154.78 92.3968 154.214 92.893 153.614 92.893C153.225 92.893 152.978 92.7158 152.766 92.3968L152.73 92.8221H152.342V92.8576ZM152.836 91.7587C152.836 91.8296 152.836 91.9005 152.872 91.936C152.978 92.3259 153.225 92.5031 153.543 92.5031C154.038 92.5031 154.285 92.0423 154.285 91.4042C154.285 90.8371 154.038 90.3408 153.543 90.3408C153.225 90.3408 152.942 90.5889 152.872 90.9434C152.872 91.0143 152.836 91.0852 152.836 91.1561V91.7587Z" fill="#0D4496"/>
<path d="M157.959 91.4399C157.959 92.5034 157.288 92.9287 156.688 92.9287C155.981 92.9287 155.451 92.397 155.451 91.4754C155.451 90.4828 156.016 89.9866 156.723 89.9866C157.465 89.9866 157.959 90.5183 157.959 91.4399ZM155.981 91.4399C155.981 92.0071 156.264 92.5388 156.723 92.5388C157.182 92.5388 157.465 92.0071 157.465 91.4399C157.465 90.9791 157.288 90.341 156.723 90.341C156.193 90.341 155.981 90.9437 155.981 91.4399Z" fill="#0D4496"/>
<path d="M158.843 90.8728C158.843 90.5537 158.843 90.2702 158.808 90.022H159.232L159.267 90.5537C159.373 90.1993 159.691 89.9866 160.009 89.9866C160.044 89.9866 160.079 89.9866 160.15 89.9866V90.4828C160.115 90.4828 160.044 90.4828 160.009 90.4828C159.656 90.4828 159.408 90.7664 159.373 91.1209C159.373 91.1918 159.338 91.2627 159.338 91.369V92.8933H158.843V90.8728Z" fill="#0D4496"/>
<path d="M162.306 92.8577L162.27 92.5032C162.129 92.7159 161.846 92.8931 161.493 92.8931C160.963 92.8931 160.681 92.5032 160.681 92.0778C160.681 91.3688 161.281 91.0144 162.235 91.0144V90.9435C162.235 90.6599 162.164 90.3054 161.634 90.3054C161.387 90.3054 161.14 90.3763 160.963 90.4826L160.857 90.1636C161.069 90.0218 161.387 89.9509 161.705 89.9509C162.482 89.9509 162.694 90.4826 162.694 91.0853V92.1841C162.694 92.4323 162.694 92.645 162.729 92.8577H162.306ZM162.235 91.4043C161.776 91.4043 161.175 91.4752 161.175 92.0424C161.175 92.3968 161.387 92.5386 161.599 92.5386C161.917 92.5386 162.129 92.3259 162.2 92.0778C162.2 92.0069 162.235 91.9715 162.235 91.9006V91.4043Z" fill="#0D4496"/>
<path d="M164.317 89.2419V90.0572H164.988V90.4472H164.317V92.0423C164.317 92.3968 164.423 92.574 164.67 92.574C164.776 92.574 164.882 92.574 164.918 92.5386L164.953 92.9285C164.847 92.964 164.706 92.9994 164.529 92.9994C164.317 92.9994 164.14 92.9285 163.999 92.7867C163.858 92.6449 163.822 92.3968 163.822 92.0423V90.4472H163.398V90.0572H163.822V89.3837L164.317 89.2419Z" fill="#0D4496"/>
<path d="M168.062 91.4399C168.062 92.5034 167.391 92.9287 166.79 92.9287C166.084 92.9287 165.554 92.397 165.554 91.4754C165.554 90.4828 166.119 89.9866 166.825 89.9866C167.567 89.9866 168.062 90.5183 168.062 91.4399ZM166.084 91.4399C166.084 92.0071 166.366 92.5388 166.825 92.5388C167.285 92.5388 167.567 92.0071 167.567 91.4399C167.567 90.9791 167.391 90.341 166.825 90.341C166.26 90.341 166.084 90.9437 166.084 91.4399Z" fill="#0D4496"/>
<path d="M168.945 90.8728C168.945 90.5537 168.945 90.2702 168.91 90.022H169.334L169.369 90.5537C169.475 90.1993 169.793 89.9866 170.111 89.9866C170.147 89.9866 170.182 89.9866 170.253 89.9866V90.4828C170.217 90.4828 170.147 90.4828 170.111 90.4828C169.758 90.4828 169.511 90.7664 169.475 91.1209C169.475 91.1918 169.44 91.2627 169.44 91.369V92.8933H168.945V90.8728Z" fill="#0D4496"/>
<path d="M171.561 89.2421C171.561 89.4194 171.455 89.5612 171.243 89.5612C171.066 89.5612 170.96 89.4194 170.96 89.2421C170.96 89.0649 171.101 88.9231 171.278 88.9231C171.42 88.9231 171.561 89.0649 171.561 89.2421ZM170.995 92.8578V90.022H171.49V92.8578H170.995Z" fill="#0D4496"/>
<path d="M172.831 91.5106C172.831 92.255 173.255 92.5032 173.714 92.5032C174.032 92.5032 174.244 92.4323 174.421 92.3614L174.491 92.7159C174.315 92.7868 174.032 92.8931 173.644 92.8931C172.831 92.8931 172.372 92.3259 172.372 91.4752C172.372 90.589 172.831 89.9509 173.608 89.9509C174.421 89.9509 174.668 90.6953 174.668 91.2625C174.668 91.3688 174.668 91.4397 174.668 91.5106H172.831ZM174.173 91.1562C174.173 90.7662 174.032 90.3409 173.538 90.3409C173.078 90.3409 172.867 90.8017 172.831 91.1562H174.173Z" fill="#0D4496"/>
<path d="M175.446 92.3614C175.587 92.4323 175.835 92.5386 176.047 92.5386C176.4 92.5386 176.541 92.3614 176.541 92.1132C176.541 91.8651 176.4 91.7233 176.047 91.5815C175.587 91.3688 175.34 91.1207 175.34 90.7662C175.34 90.3054 175.693 89.9509 176.259 89.9509C176.541 89.9509 176.753 90.0218 176.894 90.1282L176.753 90.4826C176.647 90.4117 176.471 90.3409 176.223 90.3409C175.941 90.3409 175.799 90.5181 175.799 90.7308C175.799 90.9435 175.941 91.0498 176.294 91.227C176.718 91.4043 177 91.6524 177 92.0778C177 92.6095 176.612 92.9285 176.011 92.9285C175.729 92.9285 175.446 92.8576 175.27 92.7513L175.446 92.3614Z" fill="#0D4496"/>
</svg>
