<svg width="224" height="120" viewBox="0 0 224 120" fill="none" xmlns="http://www.w3.org/2000/svg">
<path d="M152.317 52.4509C150.884 53.2328 149.548 54.1451 148.018 54.7315C138.964 58.2176 128.608 51.897 127.403 42.2532C126.458 34.6294 131.409 26.8101 139.681 25.1811C143.947 24.334 147.887 25.2136 151.47 27.6572C151.73 27.8527 151.958 28.1133 152.317 28.1459C152.479 28.2762 152.61 28.4391 152.773 28.5694C158.504 33.5217 159.872 41.6668 156.029 48.1829C155.02 49.8119 153.717 51.1477 152.317 52.4509Z" fill="#6BA2D7"/>
<path d="M171.659 52.5415C170.226 53.3234 168.89 54.2357 167.36 54.8221C158.306 58.3082 147.95 51.9876 146.745 42.3438C145.8 34.72 150.751 26.9007 159.023 25.2716C163.289 24.4245 167.229 25.3042 170.812 27.7477C171.072 27.9432 171.3 28.2039 171.659 28.2365C171.821 28.3668 171.952 28.5297 172.115 28.66C177.846 33.6122 179.214 41.7573 175.371 48.2734C174.362 49.9025 173.059 51.2383 171.659 52.5415Z" fill="#F48917"/>
<path fill-rule="evenodd" clip-rule="evenodd" d="M152.42 52.3255C149.415 49.9255 147.259 46.4339 146.748 42.3447C146.097 37.0887 148.247 31.7397 152.357 28.3904C152.376 28.4099 152.396 28.4295 152.416 28.4492C152.489 28.5225 152.562 28.5958 152.644 28.661C158.375 33.6132 159.743 41.7583 155.9 48.2744C154.947 49.8132 153.732 51.0903 152.42 52.3255Z" fill="#565A5E"/>
<path d="M27 40.3246C27 35.7633 27 31.2346 27 26.6733C27 25.2724 27.3908 24.8814 28.7912 24.8814C31.4291 24.8814 34.0996 24.8488 36.7375 24.8814C41.7853 25.0117 44.9769 27.2598 46.4098 32.0491C48.1033 37.653 48.0382 43.3545 46.4749 48.9584C45.2374 53.4545 42.0133 55.7677 37.3237 55.8328C34.3927 55.8654 31.4942 55.8328 28.5632 55.8328C27.4559 55.8328 27 55.3767 27 54.269C27 49.61 27 44.9836 27 40.3246ZM33.1226 40.2268C33.1226 42.8658 33.1226 45.5374 33.1226 48.1764C33.1226 50.7829 33.1226 50.7829 35.7605 50.5874C38.6263 50.3593 39.9942 49.2516 40.6781 46.4171C41.4271 43.2568 41.2968 40.0313 41.0689 36.8384C40.9712 35.4701 40.6781 34.1343 40.157 32.8636C39.3754 30.974 37.9424 30.0617 35.9559 29.964C35.272 29.9314 34.5881 29.9966 33.9042 29.9314C33.2854 29.8662 33.1551 30.1269 33.1877 30.6807C33.1551 33.841 33.1226 37.0339 33.1226 40.2268Z" fill="#565A5E"/>
<path d="M66.7666 40.3561C66.7666 35.8275 66.7666 31.3314 66.7666 26.8027C66.7666 25.2714 67.1248 24.913 68.6555 24.913C71.7168 24.913 74.7781 24.8479 77.8394 24.9782C81.3566 25.1411 84.1574 26.6072 85.4926 30.0933C86.3719 32.4391 86.4371 34.8826 85.7206 37.261C84.6133 40.8449 81.3566 43.1906 77.3509 43.321C76.1459 43.3535 74.9083 43.3535 73.7034 43.321C73.1172 43.2884 72.9543 43.4839 72.9543 44.0703C72.9869 47.3935 72.9543 50.7167 72.9543 54.0725C72.9543 55.4735 72.531 55.8644 71.1306 55.8644C70.349 55.8644 69.5674 55.8644 68.8183 55.8644C67.0923 55.8644 66.7666 55.5386 66.7666 53.8444C66.7666 51.3358 66.7666 48.8596 66.7666 46.3509C66.7666 44.331 66.7666 42.3436 66.7666 40.3561ZM72.9543 34.0355C72.9543 35.1759 72.9543 36.2836 72.9543 37.4239C72.9543 37.7497 72.9543 38.0104 73.4103 37.9778C74.6152 37.9452 75.7877 38.0429 76.9926 37.9126C79.0443 37.7171 80.2168 36.1533 80.1516 33.8726C80.0865 31.6898 78.9792 30.4191 76.8298 30.2562C75.7551 30.1585 74.6804 30.2236 73.6057 30.1585C73.1172 30.1259 72.9218 30.2888 72.9543 30.8101C72.9869 31.8852 72.9543 32.9604 72.9543 34.0355Z" fill="#565A5E"/>
<path d="M91.514 40.3565C91.514 35.7952 91.514 31.2665 91.514 26.7053C91.514 25.2717 91.8723 24.9133 93.3052 24.9133C97.6367 24.9133 101.936 24.9133 106.267 24.9133C107.635 24.9133 108.026 25.3043 108.026 26.6401C108.026 27.194 108.026 27.7804 108.026 28.3343C108.026 29.833 107.667 30.1914 106.202 30.1914C103.662 30.1914 101.154 30.2239 98.6137 30.1588C97.7995 30.1262 97.6041 30.3868 97.6367 31.1688C97.7018 32.8304 97.6692 34.492 97.6367 36.1536C97.6367 36.74 97.7995 36.9029 98.3857 36.9029C100.731 36.8704 103.075 36.8704 105.453 36.9029C106.658 36.9029 107.114 37.3591 107.114 38.5645C107.114 39.1836 107.114 39.8026 107.114 40.4542C107.081 41.4968 106.658 41.9529 105.583 41.9855C103.238 41.9855 100.893 42.0181 98.516 41.9855C97.7995 41.9855 97.6367 42.2135 97.6367 42.8977C97.6692 46.5793 97.6367 50.2609 97.6367 53.9751C97.6367 55.5389 97.2784 55.8973 95.6826 55.8973C94.9336 55.8973 94.1845 55.8973 93.4355 55.8973C91.8397 55.8973 91.4814 55.5715 91.4814 53.9751C91.514 49.4138 91.514 44.8851 91.514 40.3565Z" fill="#565A5E"/>
<path d="M59.5382 40.389C59.5382 44.9503 59.5382 49.479 59.5382 54.0403C59.5382 55.4412 59.1149 55.8322 57.747 55.8322C56.7374 55.8322 55.7278 55.8322 54.7182 55.8322C53.7086 55.8322 53.2526 55.3435 53.1875 54.3661C53.1875 54.1706 53.1875 53.9425 53.1875 53.747C53.1875 44.82 53.1875 35.8929 53.1875 26.9659C53.1875 25.174 53.4806 24.9133 55.2718 24.9133C56.1512 24.9133 56.9979 24.9133 57.8773 24.9133C59.1474 24.9133 59.5708 25.3369 59.5708 26.6401C59.5708 31.2014 59.5382 35.7952 59.5382 40.389Z" fill="#565A5E"/>
<path d="M108.354 89.9447C108.354 89.1627 108.354 88.4134 108.354 87.6315C108.354 87.4034 108.354 87.1427 108.68 87.0776C108.908 87.045 109.136 87.1102 109.168 87.3382C109.266 87.8269 109.396 87.6315 109.657 87.4685C110.601 86.8169 111.22 86.8495 112.034 87.5663C112.295 87.7944 112.393 87.7292 112.588 87.5337C113.207 86.9798 113.891 86.8169 114.64 87.1753C115.389 87.5337 115.356 88.2505 115.356 88.9672C115.356 89.9447 115.356 90.9221 115.356 91.8995C115.356 92.2579 115.486 92.7466 114.868 92.714C114.216 92.6814 114.412 92.1927 114.412 91.8669C114.379 90.8895 114.412 89.9121 114.412 88.9347C114.412 88.4785 114.477 87.8921 113.793 87.8269C113.142 87.7618 112.588 88.0876 112.425 88.7392C112.295 89.2605 112.327 89.8143 112.327 90.3356C112.327 90.9547 112.327 91.5737 112.327 92.1927C112.327 92.4859 112.23 92.714 111.871 92.714C111.481 92.714 111.35 92.5185 111.35 92.1601C111.35 91.085 111.35 90.0098 111.35 88.9347C111.35 88.446 111.448 87.8595 110.699 87.7618C110.08 87.664 109.396 88.1853 109.331 88.9021C109.266 89.8469 109.299 90.7918 109.266 91.7692C109.266 91.9647 109.266 92.1927 109.234 92.3882C109.168 92.714 108.94 92.714 108.68 92.6814C108.387 92.6488 108.289 92.4534 108.289 92.1927C108.354 91.5085 108.354 90.7266 108.354 89.9447Z" fill="#565A5E"/>
<path d="M117.273 73.4592C118.446 74.1434 118.869 74.9579 118.576 76.0656C118.315 77.1408 117.599 77.6295 116.198 77.6621C113.69 77.7272 113.69 77.7272 113.69 75.2186C113.69 73.6547 113.723 72.0582 113.69 70.4944C113.69 69.9405 113.886 69.745 114.407 69.7776C114.928 69.8102 115.482 69.7776 116.003 69.7776C117.24 69.8102 117.924 70.2012 118.218 71.0808C118.543 71.9605 118.283 72.6447 117.273 73.4592ZM114.635 75.2511C114.668 76.8802 114.44 76.7498 115.645 76.7498C117.11 76.7498 117.599 76.3914 117.599 75.3489C117.599 74.3389 116.947 73.9479 115.514 73.8502C114.146 73.7524 114.798 74.7624 114.635 75.2511ZM115.547 70.6247C114.733 70.3641 114.537 70.8854 114.635 71.6673C114.7 72.1234 114.407 72.8076 114.798 73.0031C115.351 73.2963 116.068 73.1986 116.687 72.9379C117.143 72.7424 117.306 72.3189 117.306 71.8628C117.306 70.9505 116.882 70.6247 115.547 70.6247Z" fill="#565A5E"/>
<path d="M51.0384 88.5759C52.2434 89.1623 52.6342 89.8791 52.4062 91.1172C52.2108 92.1272 51.4292 92.7136 50.1917 92.7788C47.5537 92.9091 47.5537 92.9091 47.5537 90.2701C47.5537 88.7388 47.5863 87.1749 47.5537 85.6436C47.5537 85.1224 47.684 84.8943 48.2376 84.9269C48.7587 84.9595 49.3123 84.9269 49.8334 84.9269C51.071 84.9595 51.7875 85.3504 52.048 86.1975C52.3411 87.1098 52.048 87.8265 51.0384 88.5759ZM48.4656 90.4655C48.6284 91.0194 47.9771 92.062 49.4101 91.9317C50.8756 91.8339 51.4292 91.5407 51.4618 90.5307C51.4944 89.5207 50.8104 89.1298 49.4101 88.9994C48.0422 88.8691 48.5633 89.8139 48.4656 90.4655ZM48.4656 86.8491C48.4656 88.3804 48.3028 88.1849 49.2798 88.2175C50.6476 88.2501 51.1361 87.8917 51.1361 86.9794C51.1687 86.0346 50.6476 85.774 49.3123 85.6762C48.2702 85.5785 48.4982 86.2627 48.4656 86.8491Z" fill="#565A5E"/>
<path d="M145.709 71.9602C146.067 71.9602 146.425 71.9602 146.783 71.9602C147.044 71.9602 147.272 71.9928 147.272 72.3186C147.272 72.5467 147.207 72.7421 146.946 72.7421C146.393 72.7421 146.621 73.0354 146.718 73.3286C147.207 74.7947 146.36 75.935 144.829 76.0002C144.536 76.0002 144.048 75.7721 144.048 76.2934C144.048 76.8147 144.569 76.6518 144.894 76.6844C145.188 76.717 145.481 76.6844 145.774 76.717C146.458 76.7495 146.979 77.0428 147.207 77.727C147.402 78.3786 147.272 78.965 146.751 79.4537C145.871 80.2682 143.82 80.2356 143.038 79.3886C142.777 79.0953 142.647 78.8021 142.745 78.4111C142.81 78.1505 143.071 78.2157 143.266 78.1831C143.494 78.1831 143.624 78.3134 143.722 78.5089C144.178 79.2257 145.155 79.4211 145.871 78.965C146.165 78.7695 146.36 78.5089 146.295 78.1505C146.23 77.7921 145.969 77.5966 145.611 77.564C145.09 77.5315 144.536 77.5641 144.015 77.4989C143.071 77.3686 142.843 76.9124 143.299 76.0002C143.429 75.7721 143.494 75.6418 143.266 75.3812C142.582 74.5992 142.517 73.7196 143.005 72.8399C143.494 71.9602 144.341 71.8625 145.253 71.9276C145.415 71.9276 145.546 71.9276 145.709 71.9602C145.709 71.9276 145.709 71.9276 145.709 71.9602ZM145.871 73.8825C145.871 73.0028 145.481 72.5792 144.732 72.6118C144.015 72.6444 143.689 73.1005 143.689 73.9802C143.689 74.697 143.917 75.2183 144.732 75.2508C145.481 75.2834 145.871 74.7947 145.871 73.8825Z" fill="#565A5E"/>
<path d="M196.252 72.872C197.001 74.7617 196.317 75.902 194.298 75.9997C194.07 75.9997 193.777 75.9346 193.745 76.2604C193.712 76.6514 194.038 76.6514 194.298 76.6839C194.722 76.7165 195.145 76.6839 195.536 76.7165C196.154 76.7491 196.643 77.0097 196.871 77.5962C197.099 78.1826 197.034 78.7691 196.61 79.2578C195.796 80.2352 193.517 80.2678 192.735 79.323C192.507 79.0297 192.377 78.7039 192.507 78.3455C192.605 78.0849 192.865 78.2152 193.061 78.1826C193.256 78.1826 193.354 78.313 193.451 78.4759C193.94 79.1926 194.754 79.3881 195.503 79.0297C195.861 78.8668 196.089 78.6062 196.024 78.1826C195.959 77.7591 195.666 77.5962 195.275 77.5636C194.754 77.531 194.2 77.5636 193.679 77.4984C192.833 77.3681 192.54 76.8468 192.93 76.1301C193.126 75.7717 193.126 75.6088 192.865 75.3156C192.279 74.5988 192.279 73.7843 192.67 72.9698C193.061 72.1553 193.842 71.9272 194.689 71.9598C195.177 71.9923 195.633 71.9598 196.122 71.9923C196.448 72.0249 196.903 71.7969 196.969 72.3507C197.066 72.872 196.48 72.6765 196.252 72.872ZM195.568 73.9472C195.568 73.0349 195.243 72.6114 194.494 72.6114C193.745 72.6114 193.386 73.0349 193.386 73.9146C193.386 74.7943 193.745 75.2504 194.461 75.2504C195.177 75.283 195.536 74.8268 195.568 73.9472Z" fill="#565A5E"/>
<path d="M79.4603 87.0776C79.8837 87.0776 80.307 87.0776 80.6978 87.0776C80.9258 87.0776 81.0886 87.1754 81.1212 87.436C81.1537 87.6315 81.056 87.7944 80.8607 87.827C80.3722 87.8921 80.4373 88.0876 80.5676 88.4786C81.0235 89.9447 80.1768 91.0525 78.6136 91.1176C78.3205 91.1176 77.8646 90.9547 77.8646 91.476C77.8972 91.867 78.3205 91.7692 78.5811 91.7692C78.9718 91.8018 79.3626 91.7692 79.7209 91.8344C80.3722 91.8995 80.8281 92.2254 81.0235 92.877C81.2189 93.5612 81.0235 94.115 80.535 94.5711C79.6883 95.3205 77.7344 95.3205 76.9854 94.5711C76.6597 94.2453 76.3015 93.7892 76.6923 93.4308C77.0505 93.105 77.4413 93.3331 77.7018 93.8544C78.0274 94.4734 79.5906 94.4408 80.014 93.887C80.3722 93.4308 80.1116 92.7792 79.4603 92.7141C78.9393 92.6489 78.3857 92.6815 77.8646 92.6489C76.9854 92.5837 76.6923 92.0299 77.0831 91.2479C77.2133 91.0199 77.3761 90.857 77.1156 90.5638C76.4317 89.8144 76.3666 88.9673 76.8225 88.0876C77.2784 87.1754 78.1251 87.0451 79.037 87.1102C79.1672 87.0776 79.2975 87.0776 79.4603 87.0776ZM77.539 89.0325C77.539 89.9447 77.8646 90.3683 78.5811 90.3683C79.2975 90.3683 79.6883 89.9447 79.7209 89.065C79.7209 88.1854 79.3626 87.7618 78.6462 87.7618C77.8646 87.7618 77.539 88.1202 77.539 89.0325Z" fill="#565A5E"/>
<path d="M40.3927 72.4488C42.0536 71.4388 43.3237 72.0252 43.5843 73.7846C43.7145 74.6317 43.7471 75.5113 43.454 76.3584C43.0306 77.6291 41.9233 78.0526 40.7509 77.401C40.5555 77.3032 40.3601 76.9449 40.1647 77.4336C40.067 77.6616 39.8065 77.6616 39.6111 77.5965C39.3506 77.5313 39.3831 77.2707 39.3831 77.0752C39.3831 74.6642 39.3831 72.2533 39.3831 69.8423C39.3831 69.5491 39.4483 69.321 39.8065 69.321C40.1973 69.321 40.3276 69.5165 40.3276 69.8749C40.3927 70.6894 40.3927 71.5039 40.3927 72.4488ZM40.3927 74.8923C40.4253 75.3158 40.3927 75.8045 40.6207 76.2607C40.8161 76.6842 41.1092 76.9123 41.5977 76.9123C42.0862 76.9123 42.3793 76.6516 42.5421 76.2281C42.8352 75.2833 42.8352 74.3059 42.477 73.361C42.3142 72.9701 42.0536 72.742 41.5977 72.742C41.1743 72.742 40.8812 72.9701 40.6858 73.3284C40.3927 73.7846 40.3927 74.3384 40.3927 74.8923Z" fill="#565A5E"/>
<path d="M62.4677 87.4688C62.4677 86.6543 62.4677 85.9049 62.4677 85.1556C62.4677 84.8297 62.4026 84.4714 62.9236 84.4388C63.4773 84.4062 63.4121 84.8297 63.4121 85.1881C63.4121 87.4688 63.4121 89.7494 63.4121 92.0626C63.4121 92.3233 63.4773 92.6491 63.1842 92.7794C62.8911 92.8771 62.6957 92.7794 62.5654 92.4536C62.4677 92.1278 62.3049 92.3884 62.2072 92.4862C60.9371 93.2681 59.7973 92.812 59.3739 91.411C59.146 90.7268 59.146 90.01 59.2437 89.2933C59.4391 87.3059 60.644 86.6217 62.4677 87.4688ZM62.5328 89.8797C62.4677 89.4562 62.4026 89.0326 62.3049 88.6091C62.1746 88.153 61.8815 87.8271 61.3605 87.8271C60.9045 87.8271 60.5789 88.1204 60.4486 88.5439C60.1229 89.4562 60.1229 90.401 60.416 91.3133C60.5789 91.7694 60.9371 92.0626 61.4256 92.03C61.9466 92.03 62.2397 91.6716 62.37 91.2155C62.4677 90.792 62.4677 90.3684 62.5328 89.8797Z" fill="#565A5E"/>
<path d="M128.671 72.3837C128.671 71.5692 128.671 70.7547 128.671 69.9728C128.671 69.647 128.639 69.2886 129.127 69.3212C129.551 69.3212 129.583 69.6144 129.583 69.9402C129.583 72.3186 129.583 74.6969 129.583 77.0753C129.583 77.2708 129.649 77.5314 129.388 77.5966C129.16 77.6617 128.899 77.6617 128.802 77.3685C128.639 76.945 128.509 77.2382 128.313 77.3359C127.304 78.0201 126.131 77.6617 125.643 76.554C125.187 75.4137 125.187 74.2082 125.675 73.0679C126.196 71.8624 127.173 71.6344 128.671 72.3837ZM126.359 74.7621C126.327 75.316 126.359 75.8372 126.62 76.3259C126.815 76.6843 127.108 76.9124 127.532 76.9124C127.988 76.9124 128.281 76.6843 128.411 76.2934C128.769 75.2834 128.802 74.2408 128.346 73.2634C127.988 72.514 127.108 72.514 126.652 73.2308C126.392 73.7195 126.359 74.2408 126.359 74.7621Z" fill="#565A5E"/>
<path d="M41.6833 87.5339C41.6833 86.6868 41.6833 85.8397 41.6833 85.0252C41.6833 84.6994 41.7158 84.4387 42.1392 84.4387C42.5625 84.4387 42.5951 84.6994 42.5951 85.0252C42.5951 87.4035 42.5951 89.7819 42.5951 92.1603C42.5951 92.5187 42.3997 93.0074 42.1066 92.7142C41.5856 92.1277 41.2925 92.5838 40.8692 92.7467C40.0225 93.0725 39.0781 92.649 38.7199 91.7693C38.1989 90.5313 38.1989 89.2606 38.785 88.0551C39.3712 86.9148 40.3156 86.7519 41.6833 87.5339ZM41.7158 89.9774C41.7158 89.5213 41.7158 89.0977 41.553 88.6742C41.3902 88.1855 41.0971 87.8271 40.5435 87.8271C40.0225 87.8271 39.762 88.2181 39.5992 88.6416C39.3061 89.5213 39.3061 90.4009 39.5666 91.248C39.7294 91.7042 40.0551 92.03 40.5435 92.03C41.0971 92.03 41.3902 91.7042 41.553 91.2155C41.6833 90.7919 41.6833 90.4009 41.7158 89.9774Z" fill="#565A5E"/>
<path d="M176.22 72.5465C176.643 72.3185 176.936 72.123 177.229 72.0252C178.337 71.6343 179.216 72.2207 179.248 73.3936C179.281 74.5991 179.248 75.8371 179.248 77.0426C179.248 77.3684 179.216 77.6291 178.793 77.6291C178.369 77.6291 178.337 77.3684 178.337 77.0426C178.337 75.9675 178.337 74.8923 178.337 73.8172C178.337 73.4262 178.434 72.9375 177.881 72.7746C177.294 72.6117 176.839 72.8397 176.48 73.3284C176.252 73.6542 176.187 74.0452 176.187 74.4362C176.187 75.2833 176.187 76.1629 176.187 77.01C176.187 77.3033 176.22 77.6291 175.764 77.6291C175.341 77.6291 175.275 77.401 175.275 77.0752C175.275 74.6642 175.275 72.2533 175.275 69.8423C175.275 69.5165 175.341 69.321 175.699 69.321C176.09 69.321 176.187 69.5165 176.187 69.8749C176.22 70.722 176.22 71.6017 176.22 72.5465Z" fill="#565A5E"/>
<path d="M31.0678 89.9446C31.0678 90.7265 31.0678 91.4759 31.0678 92.2578C31.0678 92.4859 31.0352 92.6814 30.7747 92.7465C30.5793 92.7791 30.3839 92.7465 30.3187 92.551C30.1884 92.0298 29.993 92.1601 29.6674 92.4207C29.0811 92.8769 28.3972 92.9746 27.7458 92.6814C27.0293 92.3556 27.0293 91.6714 27.0293 90.9872C27.0293 89.8794 27.0293 88.8043 27.0293 87.6966C27.0293 87.3708 27.0619 87.1101 27.4853 87.1101C27.9086 87.1101 27.9738 87.3382 27.9738 87.6966C27.9738 88.7717 27.9738 89.8469 27.9738 90.922C27.9738 91.4107 27.9412 91.9646 28.56 92.0623C29.1788 92.1601 29.6348 91.8669 29.9279 91.2804C30.0582 90.9872 30.0907 90.6614 30.0907 90.3356C30.0907 89.5862 30.0582 88.8369 30.1233 88.1201C30.1559 87.7617 29.8628 87.2078 30.5793 87.1753C31.2958 87.1427 31.0678 87.7291 31.0678 88.0875C31.1004 88.6414 31.0678 89.293 31.0678 89.9446Z" fill="#565A5E"/>
<path d="M31.0791 74.6647C31.0791 74.5343 31.1117 74.3389 31.1117 74.1108C31.2745 72.6773 32.1865 71.7976 33.3915 71.8953C34.5314 71.9931 35.248 73.0031 35.248 74.404C35.248 74.8601 35.0851 75.0556 34.6291 75.023C33.9452 74.9905 33.2612 75.0556 32.5773 75.023C32.0562 74.9905 31.991 75.1859 32.0887 75.6747C32.2842 76.4892 32.8053 76.8801 33.6195 76.8476C33.8149 76.8476 34.0429 76.7824 34.2383 76.7498C34.564 76.6846 34.9223 76.5543 35.02 77.043C35.1177 77.5317 34.6617 77.5317 34.3686 77.5969C32.3819 78.0856 31.0791 76.9779 31.0791 74.6647ZM33.1961 74.3389C33.5218 74.0782 34.1732 74.6647 34.2383 73.9153C34.3035 73.2963 33.7498 72.6447 33.1961 72.7098C32.4796 72.775 32.1213 73.3614 32.1539 73.9479C32.1539 74.6647 32.8704 74.0456 33.1961 74.3389Z" fill="#565A5E"/>
<path d="M69.3389 75.2833C69.3389 75.8372 69.3389 76.4236 69.3389 76.9775C69.3389 77.3359 69.3389 77.6291 68.8504 77.6617C68.3619 77.6617 68.3619 77.3684 68.3619 77.0101C68.3619 75.9675 68.3944 74.9249 68.3619 73.8823C68.3619 73.4262 68.4922 72.8398 67.7756 72.7746C67.0917 72.7094 66.6032 73.0352 66.4078 73.6543C66.2775 74.1104 66.3101 74.5991 66.3101 75.0552C66.3101 75.7394 66.3101 76.4236 66.3101 77.1078C66.3101 77.4988 66.1472 77.6617 65.789 77.6291C65.4307 77.6291 65.333 77.401 65.333 77.1078C65.333 75.5765 65.333 74.0127 65.333 72.4814C65.333 72.2533 65.3656 72.0578 65.6261 71.9927C65.8541 71.9275 66.0821 71.9927 66.1472 72.2207C66.2449 72.6769 66.4403 72.514 66.7009 72.3511C67.3197 71.8949 68.0036 71.732 68.6876 72.123C69.3389 72.514 69.3715 73.1656 69.3715 73.8498C69.3389 74.3059 69.3389 74.7946 69.3389 75.2833Z" fill="#565A5E"/>
<path d="M89.7862 89.944C89.7862 89.1947 89.7862 88.4453 89.7862 87.7286C89.7862 87.5005 89.7537 87.2073 90.0468 87.1421C90.3073 87.077 90.5353 87.1421 90.6004 87.4353C90.6981 87.8915 90.861 87.6308 91.0889 87.5331C92.7173 86.5557 93.7921 87.1747 93.7921 89.0644C93.7921 90.0092 93.7921 90.954 93.7921 91.8989C93.7921 92.2572 93.9875 92.8111 93.271 92.8111C92.6196 92.8111 92.815 92.2898 92.815 91.964C92.7825 90.954 92.815 89.944 92.815 88.934C92.815 88.5757 92.8802 88.1195 92.3917 87.9566C91.8706 87.7937 91.4472 87.9892 91.1215 88.3802C90.8284 88.706 90.7633 89.1295 90.7633 89.5531C90.7633 90.4653 90.7633 91.3776 90.7633 92.3224C90.7633 92.6808 90.633 92.8763 90.2422 92.8437C89.8839 92.8437 89.7862 92.6156 89.7862 92.3224C89.7862 91.4753 89.7862 90.6934 89.7862 89.944Z" fill="#565A5E"/>
<path d="M104.87 74.8273C104.87 75.6092 104.87 76.3586 104.87 77.1405C104.87 77.3686 104.837 77.564 104.544 77.5966C104.348 77.6292 104.153 77.5966 104.088 77.4011C103.958 76.8473 103.73 77.0753 103.437 77.2708C102.85 77.7269 102.167 77.8247 101.515 77.5315C100.864 77.2382 100.799 76.5866 100.799 75.935C100.799 74.8273 100.799 73.7196 100.799 72.6444C100.799 72.286 100.799 71.9602 101.287 71.9602C101.776 71.9602 101.776 72.286 101.776 72.6444C101.776 73.687 101.776 74.7295 101.776 75.7721C101.776 76.2282 101.711 76.8147 102.362 76.9124C102.981 77.0102 103.437 76.717 103.73 76.1305C103.958 75.6092 103.893 75.0879 103.893 74.5666C103.893 73.9476 103.893 73.3286 103.893 72.7096C103.893 72.3512 103.893 72.0254 104.381 72.0254C104.837 72.0254 104.902 72.3186 104.902 72.677C104.87 73.3612 104.87 74.1105 104.87 74.8273Z" fill="#565A5E"/>
<path d="M135.449 74.7944C135.449 75.5764 135.449 76.3257 135.449 77.1077C135.449 77.3031 135.449 77.5312 135.188 77.5964C134.96 77.6615 134.732 77.5964 134.667 77.3683C134.537 76.8796 134.341 77.0425 134.081 77.2706C133.462 77.7593 132.778 77.857 132.062 77.5312C131.378 77.1728 131.378 76.4886 131.378 75.8044C131.378 74.7293 131.378 73.6541 131.378 72.579C131.378 72.188 131.443 71.9274 131.899 71.9274C132.322 71.9274 132.355 72.2206 132.355 72.5464C132.355 73.589 132.355 74.6315 132.355 75.6741C132.355 76.1628 132.257 76.7818 132.974 76.847C133.658 76.9447 134.113 76.5538 134.341 75.9348C134.439 75.6415 134.472 75.2831 134.472 74.9573C134.504 74.2406 134.472 73.5238 134.472 72.807C134.472 72.4161 134.276 71.8948 134.993 71.8948C135.612 71.8948 135.449 72.4161 135.449 72.7744C135.449 73.4912 135.449 74.1428 135.449 74.7944Z" fill="#565A5E"/>
<path d="M71.0566 89.9115C71.0566 89.1296 71.0566 88.3802 71.0566 87.5983C71.0566 87.3702 71.0892 87.1748 71.3497 87.1096C71.5777 87.0444 71.8057 87.1096 71.8382 87.3377C71.9359 87.7938 72.1313 87.6309 72.3593 87.468C72.9781 87.0119 73.662 86.8815 74.3784 87.2399C75.0623 87.5983 75.0623 88.2825 75.0623 88.9667C75.0623 90.0092 75.0623 91.0518 75.0623 92.0944C75.0623 92.4202 75.0623 92.7786 74.5738 92.7786C74.0853 92.7786 74.0853 92.4528 74.0853 92.127C74.0853 91.0518 74.0853 89.9767 74.0853 88.9015C74.0853 88.478 74.1179 88.0218 73.5968 87.8915C73.0758 87.7938 72.6524 87.9893 72.3267 88.3802C72.0662 88.706 72.0336 89.0644 72.0336 89.488C72.0336 90.4002 72.0336 91.345 72.0336 92.2573C72.0336 92.5505 71.9685 92.7786 71.6103 92.7786C71.2195 92.8112 71.0892 92.6157 71.0892 92.2573C71.0566 91.4754 71.0566 90.6934 71.0566 89.9115Z" fill="#565A5E"/>
<path d="M184.2 76.945C183.875 77.1731 183.614 77.4011 183.321 77.5315C182.116 78.0528 181.139 77.4663 181.074 76.1631C181.041 74.9902 181.074 73.7847 181.074 72.6118C181.074 72.2534 181.139 71.9602 181.595 71.9602C182.084 71.9602 182.051 72.3186 182.051 72.6444C182.051 73.687 182.051 74.7295 182.051 75.7721C182.051 76.2282 181.953 76.7821 182.637 76.8799C183.289 76.9776 183.777 76.6518 183.973 76.0653C184.135 75.6744 184.135 75.1857 184.168 74.7621C184.2 74.0128 184.168 73.2634 184.168 72.5467C184.168 72.2208 184.233 71.9602 184.656 71.9602C185.047 71.9602 185.145 72.1883 185.145 72.5467C185.145 73.9802 185.145 75.4137 185.145 76.8147C185.145 77.1079 185.34 77.5315 184.819 77.5966C184.331 77.6944 184.363 77.2382 184.2 76.945Z" fill="#565A5E"/>
<path d="M135.156 87.7286C135.514 87.5331 135.807 87.3051 136.133 87.1747C137.24 86.7512 138.152 87.3051 138.217 88.478C138.282 89.716 138.249 90.9866 138.249 92.2247C138.249 92.5505 138.184 92.8112 137.761 92.8112C137.338 92.8112 137.305 92.5505 137.305 92.2247C137.305 91.1821 137.305 90.1396 137.305 89.097C137.305 88.5757 137.435 87.9241 136.621 87.8915C135.905 87.8589 135.449 88.2825 135.318 88.9667C135.253 89.3576 135.253 89.7486 135.253 90.107C135.253 90.8237 135.253 91.5405 135.253 92.2573C135.253 92.5505 135.188 92.7786 134.797 92.7786C134.407 92.7786 134.276 92.6157 134.276 92.2247C134.276 90.7912 134.276 89.3576 134.276 87.9567C134.276 87.6634 134.113 87.2399 134.569 87.1096C135.025 86.9793 135.09 87.4028 135.156 87.7286Z" fill="#565A5E"/>
<path d="M119.884 92.1277C119.656 92.2906 119.493 92.4861 119.265 92.5838C118.613 92.877 117.93 92.9748 117.343 92.4861C116.757 92.03 116.724 91.3783 116.855 90.6942C116.985 89.9448 117.474 89.5538 118.158 89.4235C118.483 89.3584 118.809 89.3909 119.135 89.3258C119.46 89.2932 119.916 89.3909 119.851 88.8045C119.819 88.3484 119.688 87.99 119.167 87.9248C118.744 87.8596 118.32 87.8922 117.93 88.0226C117.604 88.1203 117.441 88.0226 117.376 87.6967C117.311 87.3709 117.474 87.2732 117.734 87.208C119.395 86.8171 120.861 87.0126 120.828 89.228C120.828 90.1403 120.861 91.0525 120.828 91.9974C120.828 92.258 121.186 92.649 120.633 92.7793C120.112 92.877 119.981 92.5187 119.884 92.1277ZM119.884 90.6616C119.916 90.0425 119.884 89.9774 119.395 89.9774C118.353 89.9448 117.832 90.3032 117.767 91.0525C117.734 91.639 117.897 92.0625 118.581 92.0625C119.297 92.0625 119.851 91.4761 119.884 90.6616Z" fill="#565A5E"/>
<path d="M156.062 74.8924C156.127 74.2408 156.159 73.6869 156.387 73.1982C156.778 72.3837 157.429 71.895 158.341 71.9276C159.253 71.9276 159.905 72.4163 160.295 73.2634C160.686 74.1756 160.686 75.1205 160.426 76.0653C160.132 77.0753 159.351 77.7269 158.374 77.7269C157.364 77.7269 156.583 77.1404 156.29 76.0979C156.159 75.6417 156.127 75.2182 156.062 74.8924ZM159.644 74.7946C159.579 74.4037 159.579 74.0127 159.481 73.6543C159.351 73.1005 158.993 72.7095 158.374 72.7095C157.755 72.7095 157.397 73.0679 157.234 73.6543C157.006 74.5014 157.006 75.3485 157.332 76.1956C157.495 76.6517 157.853 76.9124 158.374 76.9124C158.895 76.9124 159.221 76.6517 159.416 76.2282C159.611 75.7721 159.611 75.2834 159.644 74.7946Z" fill="#565A5E"/>
<path d="M187.948 72.612C188.371 72.2536 188.827 71.9604 189.381 71.9278C190.195 71.8626 190.846 72.3188 190.879 73.1007C190.944 74.4691 190.911 75.8374 190.944 77.2058C190.944 77.5642 190.781 77.6619 190.455 77.6619C190.097 77.6619 189.999 77.4665 189.999 77.1407C189.999 76.0655 189.999 74.9904 189.999 73.9478C189.999 73.4591 190.13 72.84 189.381 72.7749C188.664 72.7097 188.176 73.0681 188.013 73.7523C187.817 74.4691 187.948 75.2184 187.915 75.9678C187.915 76.3913 187.915 76.7823 187.915 77.2058C187.915 77.499 187.785 77.6294 187.492 77.6294C187.166 77.6294 186.971 77.5316 186.971 77.1732C186.971 75.6094 186.971 74.0129 186.971 72.4491C186.971 72.221 187.003 72.0255 187.264 71.9604C187.72 71.8626 187.72 72.3513 187.948 72.612Z" fill="#565A5E"/>
<path d="M132.779 89.8795C132.811 91.7366 131.834 92.8769 130.304 92.7792C130.206 92.7792 130.108 92.7792 130.043 92.7466C128.74 92.5185 128.024 90.9872 128.317 89.0976C128.545 87.6966 129.522 86.8821 130.857 87.045C131.997 87.2079 132.779 88.3156 132.779 89.8795ZM131.769 89.8469C131.737 89.5863 131.769 89.2605 131.671 88.9347C131.541 88.3156 131.215 87.7944 130.499 87.7944C129.848 87.7944 129.489 88.2179 129.359 88.8369C129.164 89.6514 129.164 90.4334 129.424 91.2153C129.587 91.704 129.945 91.9972 130.499 91.9972C131.02 91.9972 131.378 91.704 131.574 91.2153C131.769 90.8243 131.737 90.3682 131.769 89.8469Z" fill="#565A5E"/>
<path d="M102.777 89.9774C102.777 91.8671 101.8 92.9422 100.237 92.8119C100.172 92.8119 100.107 92.8119 100.074 92.8119C98.8039 92.5838 98.0874 91.1829 98.3154 89.3584C98.4783 87.9248 99.3902 87.0452 100.693 87.1103C101.996 87.1103 102.81 88.2181 102.777 89.9774ZM101.865 89.9774C101.8 89.5864 101.768 89.228 101.703 88.9022C101.572 88.2832 101.214 87.8597 100.563 87.8597C99.9113 87.8597 99.553 88.2832 99.3902 88.9022C99.1948 89.6516 99.1948 90.4335 99.4227 91.1829C99.5856 91.7042 99.9438 92.0625 100.53 92.0625C101.116 92.0625 101.475 91.7042 101.637 91.1829C101.768 90.7593 101.8 90.3684 101.865 89.9774Z" fill="#565A5E"/>
<path d="M32.89 89.9123C32.89 89.1303 32.89 88.381 32.89 87.5991C32.89 87.4036 32.8574 87.1429 33.1505 87.1103C33.3785 87.0778 33.5739 87.0778 33.6716 87.3384C33.8019 87.762 33.9647 87.5991 34.2252 87.4362C35.7559 86.5239 36.8631 87.1429 36.8631 88.9023C36.8631 89.9774 36.8631 91.0526 36.8631 92.0952C36.8631 92.4535 36.8631 92.7468 36.3746 92.7468C35.8536 92.7468 35.9187 92.3884 35.9187 92.0626C35.9187 91.02 35.9187 89.9774 35.9187 88.9349C35.9187 88.5113 35.9513 87.99 35.3651 87.8597C34.7789 87.7294 34.3229 88.0226 34.0298 88.5113C33.8344 88.8371 33.8019 89.1955 33.8019 89.5539C33.8019 90.4336 33.8019 91.3458 33.8019 92.2255C33.8019 92.5839 33.7042 92.7793 33.2808 92.7793C32.89 92.7793 32.8574 92.5187 32.8574 92.2581C32.89 91.4761 32.89 90.6942 32.89 89.9123Z" fill="#565A5E"/>
<path d="M89.0695 74.7947C89.0695 75.5766 89.0695 76.326 89.0695 77.1079C89.0695 77.3034 89.1021 77.564 88.8416 77.5966C88.6136 77.6292 88.4182 77.6292 88.3531 77.3686C88.1902 76.8147 87.9623 77.1079 87.7343 77.3034C87.1481 77.7595 86.4642 77.8573 85.8128 77.5315C85.1289 77.2382 85.1289 76.554 85.1289 75.935C85.1289 74.7947 85.1289 73.687 85.1289 72.5467C85.1289 72.2208 85.194 71.9602 85.6174 71.9602C86.0408 71.9602 86.0734 72.2208 86.0734 72.5792C86.0734 73.6544 86.0734 74.7295 86.0734 75.8047C86.0734 76.2934 86.0082 76.8147 86.6921 76.9124C87.2783 77.0102 87.7343 76.717 87.9948 76.1957C88.2228 75.7395 88.2228 75.2182 88.2228 74.697C88.2228 73.9802 88.2228 73.2634 88.2228 72.5467C88.2228 72.1883 88.2879 71.9602 88.7113 71.9602C89.1347 71.9602 89.1672 72.2534 89.1672 72.5467C89.037 73.296 89.0695 74.0454 89.0695 74.7947Z" fill="#565A5E"/>
<path d="M138.246 72.6121C138.604 72.2863 138.995 72.0257 139.483 71.9279C140.428 71.765 141.177 72.3189 141.209 73.2637C141.242 74.5344 141.209 75.805 141.242 77.1082C141.242 77.4666 141.144 77.6621 140.721 77.6295C140.33 77.6295 140.297 77.4015 140.297 77.1082C140.297 76.0331 140.297 74.9579 140.297 73.9153C140.297 73.4592 140.395 72.8728 139.711 72.775C139.027 72.6773 138.571 73.0031 138.311 73.6221C138.05 74.2411 138.213 74.8602 138.18 75.4792C138.148 76.0331 138.18 76.6195 138.18 77.1734C138.18 77.4992 138.05 77.6621 137.724 77.6621C137.366 77.6621 137.269 77.4666 137.269 77.1734C137.269 75.6421 137.269 74.0782 137.269 72.547C137.269 72.2863 137.269 72.0582 137.594 72.0257C138.05 71.8953 137.985 72.3841 138.246 72.6121Z" fill="#565A5E"/>
<path d="M68.2875 92.1269C67.9944 92.3224 67.7338 92.5179 67.4733 92.6482C66.2682 93.1695 65.2912 92.5831 65.2586 91.2798C65.226 90.1069 65.2586 88.9015 65.2586 87.696C65.2586 87.4027 65.1935 87.0769 65.682 87.0769C66.1705 87.0444 66.2031 87.3376 66.2031 87.696C66.2031 88.7711 66.2031 89.8463 66.2031 90.9214C66.2031 91.3776 66.1705 91.8663 66.7568 91.9966C67.343 92.1269 67.799 91.8337 68.0921 91.345C68.3201 90.954 68.3526 90.4979 68.3526 90.0418C68.3526 89.2273 68.3526 88.4453 68.3526 87.6308C68.3526 87.2724 68.4504 87.0769 68.8412 87.0769C69.232 87.0769 69.2646 87.305 69.2646 87.5982C69.2646 89.1295 69.2646 90.6934 69.2646 92.2247C69.2646 92.4201 69.2971 92.6482 69.004 92.746C68.4504 92.8763 68.5481 92.2898 68.2875 92.1269Z" fill="#565A5E"/>
<path d="M46.2205 72.6114C46.6438 72.2205 47.0672 71.9598 47.5883 71.9273C48.4676 71.8295 49.1514 72.3508 49.184 73.1979C49.2166 74.5011 49.184 75.8043 49.2166 77.1075C49.2166 77.4008 49.1514 77.5963 48.7607 77.6288C48.3373 77.6288 48.2722 77.4008 48.2722 77.075C48.2722 75.9998 48.2722 74.9247 48.2722 73.8495C48.2722 73.426 48.3699 72.9047 47.7511 72.7743C47.1323 72.644 46.6438 72.9047 46.3508 73.4585C46.1228 73.8821 46.1554 74.3708 46.1554 74.8595C46.1554 75.5763 46.1554 76.293 46.1554 77.0098C46.1554 77.3682 46.1554 77.6614 45.6669 77.6288C45.2109 77.5963 45.2435 77.303 45.2435 77.0098C45.2435 75.5763 45.2435 74.1427 45.2435 72.7418C45.2435 72.4811 45.1132 72.0902 45.504 71.9924C45.9925 71.8621 46.0251 72.3182 46.2205 72.6114Z" fill="#565A5E"/>
<path d="M98.7058 71.1781C98.6732 71.5691 98.6407 71.9926 99.2268 71.96C99.4548 71.96 99.6176 72.0903 99.6176 72.351C99.6176 72.579 99.4874 72.7745 99.2268 72.7419C98.6407 72.7094 98.6732 73.0677 98.6732 73.4913C98.6732 74.6642 98.6732 75.8697 98.6732 77.0426C98.6732 77.3684 98.6732 77.629 98.2173 77.629C97.794 77.629 97.7614 77.3684 97.7614 77.0426C97.7614 75.8697 97.7614 74.7293 97.7614 73.5565C97.7614 73.1655 97.9242 72.6768 97.2404 72.7094C97.045 72.7094 96.9473 72.5139 96.9473 72.3184C96.9473 72.1555 97.0124 71.9926 97.1752 71.9926C97.9894 71.9926 97.7288 71.4061 97.7288 70.9826C97.7614 70.2658 97.8265 69.6142 98.6407 69.321C99.0315 69.1907 99.3897 69.2233 99.7805 69.3536C100.008 69.4513 100.106 69.5816 100.041 69.8423C100.008 70.0704 99.8782 70.2333 99.6176 70.1681C98.6732 69.9074 98.7058 70.5591 98.7058 71.1781Z" fill="#565A5E"/>
<path d="M153.52 75.1858C153.52 74.6971 153.52 74.1758 153.52 73.6871C153.52 73.231 153.683 72.7423 152.934 72.6771C152.608 72.6445 152.608 72.0581 152.934 72.0255C153.781 71.9277 153.487 71.3413 153.52 70.9178C153.585 69.7123 154.204 69.0607 155.181 69.2887C155.474 69.3539 155.897 69.3539 155.8 69.8426C155.735 70.2987 155.409 70.1684 155.116 70.1358C154.627 70.0707 154.399 70.3639 154.464 70.7549C154.497 71.1784 154.041 71.83 154.855 71.9603C155.116 71.9929 155.344 72.0255 155.344 72.3513C155.344 72.6445 155.181 72.7748 154.888 72.7748C154.399 72.7423 154.399 73.0681 154.399 73.4264C154.399 74.5993 154.399 75.8048 154.399 76.9777C154.399 77.2709 154.497 77.6619 153.976 77.6619C153.487 77.6619 153.487 77.3361 153.487 77.0103C153.52 76.3913 153.52 75.7722 153.52 75.1858Z" fill="#565A5E"/>
<path d="M95.7188 90.2704C95.7188 89.7817 95.7188 89.2604 95.7188 88.7717C95.7188 88.3482 95.8491 87.8921 95.1326 87.7943C94.7744 87.7292 94.8069 87.2079 95.1 87.1753C95.9468 87.1101 95.6863 86.4911 95.6863 86.0675C95.7514 84.7969 96.305 84.243 97.3472 84.4059C97.6403 84.4711 98.0637 84.4711 97.9986 84.9598C97.9334 85.4159 97.6078 85.3182 97.3146 85.253C96.8587 85.1879 96.5982 85.4485 96.6633 85.8395C96.761 86.263 96.1748 86.9798 97.1192 87.0775C97.3472 87.1101 97.5426 87.1427 97.5426 87.4359C97.5752 87.7617 97.3798 87.8595 97.0867 87.8595C96.5656 87.8269 96.5982 88.1853 96.5982 88.5111C96.5982 89.684 96.5982 90.8895 96.5982 92.0624C96.5982 92.4207 96.6307 92.8117 96.0771 92.7791C95.556 92.7465 95.6537 92.3556 95.6537 92.0624C95.7188 91.4433 95.7188 90.8569 95.7188 90.2704Z" fill="#565A5E"/>
<path d="M72.6921 71.895C73.0178 71.8624 73.3435 71.9601 73.7017 72.0905C73.9297 72.1556 74.0599 72.3185 73.9297 72.5792C73.832 72.8072 73.7343 72.9376 73.4737 72.8724C73.1481 72.8072 72.8224 72.7421 72.4967 72.7421C72.2036 72.7421 71.9105 72.8724 71.8128 73.2308C71.7477 73.5566 71.8454 73.8172 72.1385 73.9801C72.5293 74.2082 72.9201 74.4363 73.2783 74.6643C73.9948 75.0879 74.3205 75.7395 74.1251 76.554C73.9297 77.3359 73.3109 77.6943 72.5293 77.7269C72.0082 77.7595 71.5197 77.6943 71.0312 77.4988C70.7381 77.4011 70.5753 77.2707 70.7056 76.9124C70.8358 76.554 70.9987 76.554 71.3243 76.6843C71.6174 76.8146 71.9431 76.8798 72.2688 76.9124C72.6596 76.9449 73.0504 76.8472 73.1806 76.3911C73.3109 76.0001 73.1155 75.7069 72.7898 75.4788C72.4642 75.2833 72.1059 75.0879 71.7803 74.8924C71.0638 74.4688 70.6404 73.9475 70.901 73.0679C71.1289 72.3185 71.7151 71.9276 72.6921 71.895Z" fill="#565A5E"/>
<path d="M149.681 77.6942C149.485 77.6616 149.127 77.5638 148.736 77.4661C148.443 77.4009 148.28 77.2054 148.378 76.8796C148.508 76.5538 148.671 76.5213 148.997 76.6516C149.257 76.7819 149.55 76.8145 149.844 76.8471C150.234 76.8796 150.658 76.8471 150.821 76.4235C150.984 75.9674 150.788 75.609 150.365 75.3809C150.039 75.218 149.746 75.0551 149.42 74.8596C148.443 74.2732 148.183 73.3935 148.704 72.6116C149.16 71.8948 150.723 71.6342 151.374 72.1229C151.537 72.2532 151.602 72.3835 151.505 72.579C151.439 72.8071 151.309 72.9048 151.049 72.8397C150.723 72.7745 150.397 72.7093 150.072 72.7093C149.746 72.7093 149.485 72.8722 149.388 73.198C149.29 73.5238 149.453 73.7845 149.746 73.9474C150.072 74.1429 150.397 74.3384 150.756 74.5338C151.635 75.0551 151.961 75.7393 151.765 76.4887C151.635 77.3032 150.886 77.7267 149.681 77.6942Z" fill="#565A5E"/>
<path d="M55.7555 72.7425C55.039 72.7425 54.4854 72.7425 53.9317 72.7425C53.6712 72.7425 53.4432 72.7099 53.4432 72.3841C53.4106 72.0257 53.6386 71.928 53.9643 71.928C54.6482 71.928 55.3321 71.928 56.016 71.928C56.8954 71.928 57.0582 72.2538 56.6023 73.0357C56.016 74.0457 55.3973 75.0557 54.7459 76.0657C54.3551 76.6521 54.4202 76.9128 55.1693 76.8476C55.6252 76.815 56.0486 76.8476 56.5045 76.8476C56.7651 76.8476 56.8954 76.9779 56.8954 77.2386C56.8954 77.4992 56.7651 77.6296 56.5045 77.6296C55.5601 77.6296 54.5831 77.7273 53.6712 77.597C52.9873 77.4992 53.2804 76.9128 53.5083 76.5544C54.1271 75.5118 54.7785 74.5018 55.4298 73.4593C55.495 73.2964 55.5601 73.1009 55.7555 72.7425Z" fill="#565A5E"/>
<path d="M167.265 77.6945C167.037 77.6619 166.646 77.5642 166.223 77.499C165.865 77.4338 165.734 77.2384 165.832 76.8474C165.962 76.4564 166.19 76.5868 166.451 76.6519C166.777 76.7497 167.135 76.8474 167.493 76.8474C167.819 76.88 168.144 76.7497 168.275 76.3913C168.405 76.0003 168.275 75.6745 167.949 75.479C167.591 75.251 167.233 75.0555 166.874 74.86C165.93 74.3061 165.669 73.3939 166.19 72.612C166.646 71.9278 168.242 71.6346 168.894 72.1558C169.056 72.2862 169.089 72.4491 169.024 72.612C168.926 72.84 168.796 72.9052 168.535 72.84C167.982 72.7097 167.233 72.3839 166.972 73.1332C166.646 73.9803 167.558 74.0781 168.047 74.4039C168.731 74.8274 169.349 75.251 169.284 76.1958C169.219 77.108 168.535 77.6945 167.265 77.6945Z" fill="#565A5E"/>
<path d="M83.6642 92.8123C83.3711 92.8123 83.0129 92.7471 82.622 92.6494C82.2964 92.5516 82.101 92.3887 82.2312 91.9978C82.3615 91.6068 82.6221 91.7046 82.8826 91.8023C83.2408 91.9326 83.6317 91.9978 84.0225 91.9652C84.3156 91.9652 84.6087 91.8675 84.7064 91.5091C84.8041 91.1833 84.739 90.8575 84.4459 90.6294C84.055 90.3688 83.6317 90.1733 83.2083 89.9126C82.3289 89.3588 82.101 88.3814 82.6546 87.632C83.1431 87.0456 84.739 86.8175 85.2926 87.241C85.4555 87.3714 85.4555 87.5343 85.4229 87.6972C85.3252 87.9578 85.1298 87.9578 84.9018 87.9252C84.3156 87.7949 83.5991 87.5017 83.3711 88.251C83.078 89.0981 83.9899 89.1959 84.4784 89.4891C85.1298 89.9126 85.7486 90.3036 85.716 91.1833C85.716 92.2258 84.9669 92.8123 83.6642 92.8123Z" fill="#565A5E"/>
<path d="M91.0603 74.9247C91.0603 74.4686 91.0603 74.045 91.0603 73.5889C91.0603 73.1979 91.1905 72.807 90.5392 72.6766C90.1484 72.6115 90.1484 72.0902 90.5392 71.9925C91.158 71.8947 91.0928 71.5037 91.0928 71.1128C91.0928 70.8847 91.0928 70.6241 91.3534 70.4938C91.679 70.3634 92.0698 70.168 92.0698 70.8196C92.0698 71.3408 91.8419 72.025 92.7863 71.9925C92.9166 71.9925 93.0143 72.1554 93.0143 72.3183C93.0143 72.5137 92.9166 72.7092 92.7212 72.6766C91.9396 72.6441 92.1024 73.1979 92.1024 73.6215C92.1024 74.3382 92.1024 75.055 92.1024 75.7392C92.1024 76.2605 91.907 76.9447 92.884 76.8469C93.112 76.8144 93.1445 77.075 93.1771 77.2379C93.1771 77.4008 93.0794 77.4985 92.9491 77.5637C92.2001 77.9221 91.2882 77.466 91.2231 76.6515C91.0277 76.0976 91.0928 75.5111 91.0603 74.9247Z" fill="#565A5E"/>
<path d="M122.684 90.042C122.684 89.5533 122.684 89.0972 122.684 88.6085C122.684 88.2175 122.782 87.794 122.163 87.794C121.935 87.794 121.87 87.5985 121.902 87.403C121.902 87.2075 122 87.0446 122.228 87.0446C122.717 87.0772 122.717 86.7514 122.717 86.4256C122.717 86.2627 122.717 86.0672 122.749 85.9043C122.814 85.5785 123.108 85.5134 123.368 85.4808C123.759 85.4482 123.661 85.774 123.661 86.0021C123.694 86.5234 123.466 87.2075 124.41 87.1424C124.541 87.1424 124.606 87.3379 124.606 87.5008C124.573 87.6963 124.443 87.8266 124.247 87.8266C123.661 87.794 123.661 88.1524 123.661 88.5759C123.661 89.4556 123.661 90.3679 123.661 91.2475C123.661 91.7037 123.694 92.0946 124.345 92.0295C124.606 91.9969 124.703 92.1924 124.736 92.4204C124.769 92.6811 124.573 92.7462 124.345 92.8114C123.368 93.0395 122.782 92.5833 122.749 91.6059C122.652 91.052 122.684 90.5633 122.684 90.042Z" fill="#565A5E"/>
<path d="M81.9104 74.8921C81.9104 74.4686 81.9104 74.045 81.9104 73.654C81.9104 73.2305 82.0406 72.8069 81.3567 72.6766C80.9985 72.6115 80.9985 72.0576 81.4219 71.9924C82.0406 71.8947 81.9429 71.5363 81.9104 71.1779C81.8778 70.6892 82.1058 70.396 82.5617 70.396C83.0828 70.4286 82.8548 70.8847 82.8548 71.1453C82.8874 71.5689 82.8222 71.9924 83.4736 71.9599C83.669 71.9599 83.7992 72.0902 83.7992 72.3182C83.7992 72.5789 83.669 72.7418 83.441 72.7092C82.8548 72.6766 82.8548 73.0676 82.8874 73.4586C82.8874 74.2079 82.8874 74.9573 82.8874 75.674C82.9199 76.2279 82.6268 76.9772 83.669 76.8795C83.8969 76.8469 83.9295 77.1076 83.9295 77.2705C83.9295 77.4334 83.8318 77.5311 83.669 77.5963C82.8874 77.9221 82.0081 77.466 81.9429 76.6514C81.8778 76.065 81.9429 75.4785 81.9104 74.8921C81.9429 74.8921 81.9429 74.8921 81.9104 74.8921Z" fill="#565A5E"/>
<path d="M75.8529 74.8595C75.8529 74.3708 75.8529 73.9147 75.8529 73.426C75.8529 73.0676 75.918 72.6766 75.3644 72.7092C75.169 72.7092 75.0713 72.5463 75.0713 72.3508C75.0713 72.1553 75.169 71.9599 75.3644 71.9599C76.0157 71.9924 75.8855 71.5363 75.8529 71.1779C75.8203 70.6892 76.0483 70.396 76.4717 70.396C76.9928 70.396 76.7648 70.8847 76.7648 71.1453C76.7974 71.5689 76.7322 71.9924 77.3836 71.9599C77.579 71.9599 77.7093 72.0902 77.7418 72.2857C77.7744 72.5463 77.6116 72.7092 77.3836 72.7092C76.7322 72.6766 76.7974 73.1002 76.7974 73.5237C76.7974 74.3708 76.7974 75.2505 76.7974 76.0976C76.7974 76.5537 76.8299 76.9447 77.4487 76.8795C77.7418 76.8469 77.807 77.0098 77.8395 77.2379C77.8721 77.4985 77.7093 77.5637 77.4813 77.6288C76.5368 77.8895 75.8855 77.4334 75.8529 76.456C75.8203 75.9347 75.8529 75.3808 75.8529 74.8595Z" fill="#565A5E"/>
<path d="M170.455 74.762C170.455 73.8823 170.65 73.1004 171.302 72.5139C171.953 71.9275 172.702 71.7972 173.549 72.0904C173.81 72.1881 173.94 72.351 173.842 72.6117C173.777 72.8072 173.647 72.9701 173.386 72.8723C172.605 72.6442 171.921 72.7746 171.66 73.6217C171.367 74.5991 171.269 75.6417 171.986 76.4887C172.312 76.9123 172.833 76.8471 173.321 76.7494C173.647 76.6842 173.907 76.6842 173.973 77.1078C174.038 77.5639 173.745 77.5639 173.451 77.6291C171.595 77.9874 170.455 76.8797 170.455 74.762Z" fill="#565A5E"/>
<path d="M27.0293 73.7521C27.0293 72.6117 27.0293 71.504 27.0293 70.3637C27.0293 70.0053 27.0619 69.7121 27.5503 69.7447C28.0063 69.7772 27.9737 70.0705 27.9737 70.3637C27.9737 72.2208 28.0063 74.0453 27.9737 75.9024C27.9737 76.554 28.1365 76.8472 28.8204 76.7495C29.2438 76.6843 29.6671 76.7495 30.0579 76.7495C30.351 76.7495 30.4813 76.9124 30.4813 77.2056C30.4813 77.4988 30.351 77.6291 30.0579 77.6291C29.2112 77.6291 28.3971 77.6291 27.5503 77.6291C27.0619 77.6291 27.0619 77.3359 27.0619 76.9775C27.0293 75.9024 27.0293 74.8272 27.0293 73.7521Z" fill="#565A5E"/>
<path d="M122.881 73.4916C122.881 72.3187 122.881 71.1133 122.881 69.9404C122.881 69.6471 122.881 69.3213 123.304 69.3213C123.76 69.2887 123.825 69.582 123.825 69.9404C123.825 72.2862 123.825 74.6319 123.825 76.9777C123.825 77.3035 123.858 77.6294 123.337 77.6619C122.815 77.6619 122.881 77.3035 122.881 76.9777C122.881 75.8048 122.881 74.6645 122.881 73.4916Z" fill="#565A5E"/>
<path d="M63.4807 73.687C63.4807 74.7947 63.4807 75.8699 63.4807 76.9776C63.4807 77.3034 63.5458 77.6292 63.025 77.6292C62.5693 77.6292 62.4717 77.4011 62.4717 77.0102C62.4717 74.7947 62.4717 72.5792 62.4717 70.3312C62.4717 69.9728 62.5042 69.7122 62.9925 69.7122C63.4807 69.7122 63.4807 70.038 63.4807 70.3638C63.4807 71.5041 63.4807 72.5792 63.4807 73.687Z" fill="#565A5E"/>
<path d="M104.276 89.9446C104.276 89.1952 104.276 88.4459 104.276 87.7291C104.276 87.501 104.244 87.2078 104.537 87.1427C104.797 87.0775 105.025 87.1427 105.09 87.4359C105.221 87.892 105.383 87.6314 105.579 87.4685C105.839 87.2078 106.132 87.0449 106.523 87.0449C106.881 87.0775 107.175 87.1101 107.109 87.5988C107.044 87.9898 106.914 88.2178 106.458 88.0875C105.514 87.8269 105.286 88.4785 105.253 89.1952C105.188 90.1401 105.221 91.0849 105.221 92.0297C105.221 92.3881 105.286 92.7791 104.7 92.7465C104.211 92.7465 104.244 92.3881 104.244 92.0623C104.276 91.3781 104.276 90.6613 104.276 89.9446Z" fill="#565A5E"/>
<path d="M163.065 72.6114C163.423 72.3508 163.716 71.9598 164.205 71.9272C164.563 71.8947 164.987 71.8947 164.954 72.4485C164.921 72.8721 164.726 73.1001 164.27 72.9698C163.456 72.7743 163.163 73.2956 163.13 73.9472C163.065 74.9247 163.098 75.9021 163.065 76.8795C163.065 77.2053 163.163 77.6288 162.577 77.6288C161.99 77.6288 162.121 77.2053 162.121 76.8795C162.121 75.5437 162.121 74.2079 162.121 72.8721C162.121 72.5789 161.958 72.1553 162.381 72.025C162.837 71.8295 162.87 72.3182 163.065 72.6114Z" fill="#565A5E"/>
<path d="M57.6116 88.6407C57.6116 89.781 57.6116 90.8887 57.6116 92.0291C57.6116 92.3549 57.7093 92.7784 57.1557 92.7784C56.6673 92.7458 56.7324 92.3874 56.7324 92.0616C56.7324 89.7484 56.7324 87.4352 56.7324 85.122C56.7324 84.7962 56.6998 84.4378 57.1883 84.4052C57.7744 84.3726 57.6442 84.8288 57.6442 85.1546C57.6116 86.3275 57.6116 87.5004 57.6116 88.6407Z" fill="#565A5E"/>
<path d="M107.698 72.6117C108.089 72.2208 108.414 71.895 108.968 71.9275C109.261 71.9601 109.587 72.0253 109.554 72.4488C109.522 72.7746 109.424 73.0353 108.935 73.0027C107.991 72.9375 107.698 73.2308 107.665 74.2082C107.633 75.1204 107.665 76.0327 107.665 76.9775C107.665 77.3033 107.73 77.6617 107.209 77.6617C106.688 77.6617 106.753 77.3359 106.753 77.0101C106.753 75.6091 106.753 74.2082 106.753 72.8398C106.753 72.5466 106.558 72.123 107.047 72.0253C107.47 71.8624 107.437 72.3837 107.698 72.6117Z" fill="#565A5E"/>
<path d="M126.787 89.9446C126.787 90.6939 126.787 91.4433 126.787 92.1601C126.787 92.4859 126.754 92.7465 126.331 92.7465C125.908 92.7465 125.875 92.4859 125.875 92.1601C125.875 90.6288 125.875 89.1301 125.875 87.5988C125.875 87.2404 126.005 87.0449 126.396 87.0449C126.787 87.0449 126.819 87.3056 126.819 87.5988C126.787 88.4133 126.787 89.1952 126.787 89.9446Z" fill="#565A5E"/>
<path d="M36.6973 74.8273C36.6973 74.0454 36.6973 73.296 36.6973 72.5141C36.6973 72.1557 36.8275 71.9602 37.2184 71.9602C37.5766 71.9602 37.6418 72.1883 37.6418 72.5141C37.6418 74.0454 37.6418 75.6092 37.6418 77.1405C37.6418 77.4663 37.544 77.6618 37.1858 77.6292C36.8275 77.6292 36.6973 77.4663 36.6973 77.1405C36.6973 76.3586 36.6973 75.6092 36.6973 74.8273Z" fill="#565A5E"/>
<path d="M51.9498 74.7621C51.9498 75.5441 51.9498 76.2934 51.9498 77.0753C51.9498 77.3686 51.9498 77.5966 51.5591 77.6292C51.1683 77.6292 51.0381 77.4663 51.0381 77.1079C51.0381 75.5766 51.0381 74.0128 51.0381 72.4815C51.0381 72.1557 51.1683 71.9928 51.494 71.9602C51.8521 71.9602 51.9824 72.1231 51.9498 72.4489C51.9173 73.2308 51.9498 73.9802 51.9498 74.7621Z" fill="#565A5E"/>
<path d="M121.083 74.7947C121.083 75.5441 121.083 76.2934 121.083 77.0102C121.083 77.3034 121.083 77.6292 120.66 77.6292C120.236 77.6292 120.171 77.4011 120.171 77.0753C120.171 75.5766 120.171 74.0454 120.171 72.5467C120.171 72.1883 120.269 71.9602 120.66 71.9602C121.083 71.9602 121.116 72.2534 121.116 72.5792C121.083 73.296 121.083 74.0454 121.083 74.7947Z" fill="#565A5E"/>
<path d="M87.9986 89.9448C87.9986 90.6941 87.9986 91.4435 87.9986 92.1602C87.9986 92.4535 88.0312 92.7793 87.5753 92.7793C87.152 92.7793 87.0869 92.5512 87.0869 92.1928C87.0869 90.6941 87.0869 89.1628 87.0869 87.6641C87.0869 87.3057 87.152 87.0777 87.5753 87.1103C88.0312 87.1103 87.9986 87.4361 87.9986 87.7293C87.9986 88.4461 87.9986 89.1954 87.9986 89.9448Z" fill="#565A5E"/>
<path d="M53.991 89.8787C53.991 89.1619 53.991 88.4452 53.991 87.7284C53.991 87.4026 53.9584 87.0442 54.4469 87.0768C54.8703 87.0768 54.9028 87.37 54.8702 87.6958C54.8702 89.1945 54.8702 90.6606 54.8702 92.1593C54.8702 92.4851 54.8703 92.7458 54.4469 92.7784C53.9258 92.8109 53.9584 92.4526 53.9584 92.1267C53.991 91.3774 53.991 90.628 53.991 89.8787Z" fill="#565A5E"/>
<path d="M79.9518 74.8273C79.9518 75.544 79.9518 76.2608 79.9518 76.945C79.9518 77.2708 79.9843 77.6292 79.4959 77.5966C79.0726 77.5966 79.04 77.3034 79.04 76.9776C79.04 75.5115 79.04 74.0128 79.04 72.5466C79.04 72.2208 79.04 71.9276 79.4633 71.9276C79.9518 71.895 79.9518 72.2534 79.9518 72.5792C79.9192 73.3611 79.9518 74.1105 79.9518 74.8273Z" fill="#565A5E"/>
<path d="M59.4076 73.1328C59.7658 73.1328 60.124 73.1328 60.4823 73.1328C60.8079 73.1328 60.9056 73.2957 60.9056 73.5889C60.9056 73.8496 60.8079 74.0451 60.4823 74.0451C59.7984 74.0451 59.1145 74.0451 58.4631 74.0451C58.1374 74.0451 57.9746 73.9473 57.9746 73.5889C57.9746 73.2306 58.17 73.1328 58.4631 73.1328C58.7562 73.1328 59.0819 73.1328 59.4076 73.1328Z" fill="#565A5E"/>
<path d="M121.283 69.9076C121.218 70.3312 121.023 70.5918 120.6 70.5918C120.209 70.5918 119.948 70.3312 119.948 69.9402C119.948 69.5167 120.209 69.2886 120.6 69.2886C121.023 69.256 121.218 69.5493 121.283 69.9076Z" fill="#565A5E"/>
<path d="M52.135 69.908C52.1025 70.2989 51.8745 70.5922 51.4511 70.5922C51.0603 70.5922 50.7998 70.3315 50.7998 69.908C50.7998 69.517 51.0603 69.289 51.4186 69.2564C51.8419 69.2238 52.0699 69.517 52.135 69.908Z" fill="#565A5E"/>
<path d="M126.293 84.3738C126.749 84.4064 126.977 84.6344 126.977 85.058C126.977 85.4164 126.749 85.677 126.358 85.7096C125.935 85.7422 125.674 85.5141 125.642 85.0906C125.642 84.667 125.902 84.4389 126.293 84.3738Z" fill="#565A5E"/>
<path d="M37.8399 69.9402C37.7747 70.3638 37.5468 70.6244 37.1234 70.5919C36.7327 70.5593 36.4721 70.2986 36.5047 69.9077C36.5373 69.5167 36.7978 69.2561 37.1886 69.2886C37.6119 69.2886 37.8073 69.5819 37.8399 69.9402Z" fill="#565A5E"/>
<path d="M87.5141 84.3738C87.9375 84.4064 88.198 84.6344 88.198 85.058C88.198 85.4489 87.9701 85.677 87.6118 85.7096C87.1884 85.7422 86.9279 85.5141 86.8953 85.0906C86.8628 84.667 87.1233 84.4389 87.5141 84.3738Z" fill="#565A5E"/>
<path d="M80.1446 69.9403C80.112 70.3964 79.8514 70.6245 79.428 70.5919C79.0698 70.5593 78.8418 70.3313 78.8418 69.9403C78.8418 69.5168 79.1024 69.2561 79.4932 69.2561C79.884 69.2561 80.1446 69.5493 80.1446 69.9403Z" fill="#565A5E"/>
<path d="M55.0977 85.0574C55.0651 85.5135 54.8046 85.7416 54.4137 85.709C54.0555 85.709 53.7949 85.4809 53.7949 85.0899C53.7949 84.6664 54.0229 84.4058 54.4463 84.4058C54.8371 84.4058 55.0651 84.6664 55.0977 85.0574Z" fill="#565A5E"/>
<path d="M102.394 70.3308C102.329 70.6566 102.166 70.8846 101.808 70.8521C101.482 70.8521 101.319 70.6566 101.319 70.3634C101.319 70.005 101.482 69.8095 101.84 69.8095C102.166 69.7769 102.329 70.005 102.394 70.3308Z" fill="#565A5E"/>
<path d="M104.415 70.2987C104.415 70.6571 104.22 70.8526 103.862 70.8526C103.568 70.8526 103.373 70.6897 103.34 70.3639C103.308 70.0055 103.503 69.7774 103.829 69.7774C104.155 69.7449 104.383 69.9403 104.415 70.2987Z" fill="#565A5E"/>
</svg>
