<svg width="224" height="120" viewBox="0 0 224 120" fill="none" xmlns="http://www.w3.org/2000/svg">
<path d="M27 39.6001C27 53.2496 27 66.7506 27 80.4001C27.2949 80.4001 27.5897 80.4001 28.032 80.4001C81.5533 80.4001 135.075 80.4001 188.596 80.4001C190.365 80.4001 192.724 80.1034 194.346 79.0648C196.853 77.4328 197 74.9106 197 74.7623C197 63.0416 197 51.3208 197 39.6001C140.382 39.6001 83.765 39.6001 27 39.6001ZM45.2828 73.8721C43.8084 73.8721 42.334 73.8721 40.8595 73.8721C39.9749 73.8721 39.6799 73.7237 39.6799 72.8335C39.6799 68.3826 39.6799 64.0801 39.6799 59.6292C39.6799 55.1783 39.6799 50.8757 39.6799 46.4248C39.6799 45.683 39.8273 45.3863 40.712 45.3863C42.3338 45.3863 44.1031 45.3863 45.725 45.3863C46.3148 45.3863 46.4622 45.5346 46.4622 46.1281C46.4622 48.5019 46.4622 48.5019 44.2506 48.5019C43.2185 48.5019 42.9236 48.6503 42.9236 49.6888C43.071 51.9143 43.071 54.1397 42.9236 56.3652C42.9236 57.2554 43.2185 57.5521 44.1032 57.5521C44.693 57.5521 45.2827 57.5521 45.725 57.5521C46.3148 57.5521 46.3148 57.7005 46.4622 58.2939C46.6097 60.8161 46.6097 60.9645 43.9558 60.8161C43.0711 60.8161 42.9236 60.9645 42.9236 61.8546C42.9236 64.6736 42.9236 67.4925 42.9236 70.163C42.9236 70.9048 43.0712 71.0532 43.8084 71.0532C44.693 71.0532 45.5776 71.0532 46.4622 71.0532C47.052 71.0532 47.1994 71.2016 47.1994 71.795C47.3469 73.8721 47.347 73.8721 45.2828 73.8721ZM61.5014 69.2728C61.5014 71.6466 59.732 73.7237 57.3729 74.1688C54.719 74.6139 52.3599 73.1303 51.6227 70.7565C51.4752 70.3114 51.4753 69.7179 51.4753 69.1245C51.4753 65.4154 51.4753 61.7063 51.4753 57.8488C51.4753 53.9914 51.4753 50.2823 51.4753 46.4248C51.4753 45.5346 51.7701 45.3863 52.5073 45.3863C54.5715 45.3863 54.5715 45.3863 54.5715 47.315C54.5715 54.5848 54.5715 62.003 54.5715 69.2728C54.5715 70.3114 55.0139 70.9048 55.8985 71.2016C56.7832 71.4983 57.5204 71.2015 58.1101 70.6081C58.405 70.163 58.4049 69.7179 58.4049 69.2728C58.4049 61.7063 58.4049 54.2881 58.4049 46.7216C58.4049 45.8314 58.5525 45.3863 59.5845 45.5346C61.6487 45.683 61.6488 45.5346 61.6488 47.6117C61.5013 54.8816 61.5014 62.003 61.5014 69.2728ZM75.2133 74.1688C73.0017 74.1688 73.0017 74.1688 72.2645 72.0917C71.2324 69.1245 70.2004 66.0088 69.0208 63.0416H68.8734C68.8734 66.3056 68.8734 69.7179 68.8734 72.9819C68.8734 73.7237 68.7259 74.0205 67.8412 74.0205C65.7771 74.0205 65.777 74.0205 65.777 71.9434C65.777 63.4866 65.777 55.0299 65.777 46.5732C65.777 45.683 66.072 45.3863 66.9566 45.5346C69.4631 45.683 71.8222 46.1281 73.5915 48.0568C76.098 50.7274 76.2454 55.6234 73.7389 58.739C73.2966 59.1841 73.0017 59.7776 72.4119 60.0743C71.6747 60.5194 71.6748 60.9645 71.9697 61.7063C73.2966 65.5637 74.4762 69.5696 75.6557 73.427C75.9506 74.0205 75.8031 74.1688 75.2133 74.1688ZM85.5342 73.8721C83.9124 73.8721 82.438 73.8721 80.8162 73.8721C80.079 73.8721 79.9316 73.7237 79.9316 72.9819C79.9316 68.531 79.9316 64.0801 79.9316 59.6292C79.9316 55.1783 79.9316 50.8757 79.9316 46.4248C79.9316 45.683 80.079 45.3863 80.8162 45.5346C82.438 45.5346 84.2074 45.5346 85.8292 45.5346C86.419 45.5346 86.5664 45.683 86.5664 46.2765C86.5664 48.5019 86.5664 48.5019 84.3548 48.5019C83.0278 48.5019 83.0278 48.5019 83.0278 49.8372C83.0278 52.0626 83.0278 54.2881 83.0278 56.6619C83.0278 57.4037 83.1752 57.7005 83.9124 57.5521H84.0598C86.7138 57.5521 86.7139 57.5521 86.5664 60.2226C86.5664 60.6677 86.4189 60.8161 85.9766 60.8161C85.2394 60.8161 84.5022 60.8161 83.765 60.8161C83.3227 60.8161 83.0278 60.9645 83.0278 61.4096C83.0278 64.3768 83.0278 67.3441 83.0278 70.3114C83.0278 70.9048 83.3227 71.0532 83.765 71.0532C84.7971 71.0532 85.8292 71.0532 86.7138 71.0532C87.1562 71.0532 87.3036 71.2015 87.3036 71.6466C87.746 73.8721 87.7458 73.8721 85.5342 73.8721ZM95.1179 73.7237C94.2333 73.8721 93.4961 74.0205 92.6115 73.8721C92.3166 73.8721 92.0217 73.8721 92.0217 73.5754C92.0217 72.8335 92.0217 72.0917 92.0217 71.3499C92.0217 70.9048 92.464 70.9048 92.7589 70.9048C93.791 70.9048 94.823 70.6081 95.8551 70.163C97.1821 69.4212 97.7718 68.2343 97.477 66.7506C97.0346 63.7834 95.4129 61.4096 94.0859 58.8874C93.0538 56.8103 92.0218 54.5848 91.7269 52.211C91.2846 48.947 92.9064 46.4248 96.2975 45.683C96.7399 45.5346 97.1822 45.5346 97.6245 45.5346C99.2464 45.3863 99.2464 45.3863 99.2464 47.0183C99.2464 47.315 99.2464 47.6117 99.2464 47.7601C99.2464 48.3536 99.0989 48.5019 98.5092 48.5019C97.9194 48.5019 97.3295 48.5019 96.7397 48.6503C95.1179 49.0954 94.5282 50.1339 94.8231 51.7659C95.2654 54.1397 96.4449 56.2168 97.477 58.2939C98.6565 60.6677 99.9836 62.8932 100.573 65.5637C101.605 69.8663 99.3937 72.9819 95.1179 73.7237ZM129.914 52.211C129.177 52.6561 128.587 53.3979 127.997 53.3979C127.408 53.3979 127.113 52.5077 126.67 51.9143C123.132 48.2052 119.003 46.8699 114.138 48.3536C109.272 49.8372 106.471 53.2496 105.881 58.1456C104.849 65.5637 110.894 72.0917 118.709 71.4983C122.542 71.2016 125.343 69.2728 127.555 66.1572C127.703 66.0088 127.85 65.8605 127.997 65.5637C130.651 67.9376 130.799 67.1957 128.292 69.8663C123.132 75.5041 113.696 75.9492 107.945 70.9048C101.311 65.1186 100.868 55.6234 106.913 49.0954C113.253 42.419 125.049 43.4576 129.914 51.3208C130.356 51.7659 130.356 51.9143 129.914 52.211ZM148.639 74.3172C139.645 74.9106 132.716 67.7892 132.716 59.4808C132.716 51.1725 139.35 45.0896 146.575 44.6445C155.569 44.051 162.351 51.0241 162.499 59.0357C162.646 67.6408 156.011 73.8721 148.639 74.3172ZM183.141 74.0205C181.371 74.0205 181.371 74.0205 181.224 72.2401C180.929 65.8605 180.487 59.4808 180.192 53.2496C180.192 53.1012 180.192 52.9528 180.192 52.8045H180.044C179.16 59.6292 178.128 66.6023 177.243 73.427C177.243 73.8721 177.096 74.1688 176.506 74.1688C175.326 74.1688 173.999 74.1688 172.82 74.1688C172.23 74.1688 171.935 74.0205 171.935 73.427C171.64 71.2016 171.345 68.9761 171.05 66.899C170.608 63.1899 170.018 59.3325 169.576 55.6234C169.428 54.7332 169.281 53.843 169.134 52.9528C168.986 53.6946 168.986 54.4365 168.839 55.0299C168.544 61.1128 168.102 67.0474 167.807 73.1303C167.807 74.1688 167.364 74.3172 166.48 74.3172C164.71 74.3172 164.858 74.3172 164.858 72.6852C165.005 68.3826 165.3 63.9317 165.448 59.6292C165.595 55.3266 165.89 51.0241 166.037 46.5732C166.037 46.1281 166.185 45.8314 166.774 45.8314C168.249 45.8314 169.576 45.8314 171.05 45.8314C171.493 45.8314 171.64 45.9797 171.64 46.4248C172.23 51.7659 172.967 57.2554 173.557 62.5965C173.852 64.6736 174.147 66.7506 174.442 68.8277C174.884 65.1186 175.474 61.5579 175.916 57.8488C176.358 53.9914 176.948 50.2823 177.39 46.4248C177.39 45.8314 177.685 45.683 178.275 45.683C179.602 45.683 180.929 45.683 182.108 45.683C182.846 45.683 182.993 45.8314 182.993 46.5732C183.141 52.5077 183.435 58.5906 183.583 64.5252C183.73 67.4925 183.73 70.3114 183.878 73.2786C184.025 73.7237 183.878 74.0205 183.141 74.0205ZM159.55 59.4808C159.55 66.0088 154.242 71.2016 147.755 71.2016C141.415 71.3499 135.812 65.8605 135.959 59.0357C136.107 52.8045 141.415 47.6117 148.049 47.7601C154.242 47.7601 159.55 53.1012 159.55 59.4808ZM69.9055 57.8488C69.3157 58.1456 68.8734 58.2939 69.0208 57.2554C69.0208 55.9201 69.0208 54.5848 69.0208 53.2496C69.0208 51.9143 69.0208 50.4306 69.0208 49.0954C69.0208 48.6503 69.1683 48.3536 69.6106 48.6503C71.3799 49.5405 72.412 50.8757 72.5595 52.9528C72.7069 55.1783 71.9696 56.8103 69.9055 57.8488Z" fill="#017197"/>
</svg>
