<svg width="224" height="120" viewBox="0 0 224 120" fill="none" xmlns="http://www.w3.org/2000/svg">
<path d="M206.901 75.5319C206.656 75.4501 206.394 75.3518 206.132 75.2536C206.23 74.8442 206.328 74.4349 206.41 74.0256C206.917 71.766 207.343 69.49 207.572 67.1814C207.735 65.5276 207.932 63.8575 208.013 62.1874C208.095 60.681 208.062 59.1746 208.046 57.6846C208.03 55.6706 207.801 53.6731 207.506 51.6918C207.195 49.6124 206.737 47.5657 206.345 45.5026C206.279 45.1424 206.165 44.7821 206.083 44.4219C206.034 44.2418 206.083 44.1599 206.279 44.1436C206.427 44.1272 206.574 44.0944 206.721 44.029C206.934 43.9471 207.016 44.0453 207.065 44.2418C207.261 45.1587 207.474 46.0757 207.67 46.9762C208.111 49.0066 208.439 51.0533 208.651 53.1164C208.782 54.4917 208.864 55.8671 208.946 57.2589C208.995 58.0776 209.011 58.9126 208.995 59.7313C208.946 61.4178 208.88 63.0879 208.766 64.7744C208.684 65.9697 208.553 67.1814 208.439 68.3766C208.259 70.1122 207.932 71.8151 207.572 73.518C207.457 74.091 207.31 74.6478 207.179 75.2208C207.146 75.3191 207.114 75.4337 207.081 75.5319C206.999 75.5319 206.95 75.5319 206.901 75.5319Z" fill="#1D4593"/>
<path d="M166.483 64.6598C166.516 64.4142 166.549 64.185 166.582 63.9394C166.598 63.8411 166.614 63.7429 166.631 63.6283C166.925 63.5955 167.219 63.5628 167.547 63.5137C167.498 64.0376 167.465 64.5288 167.432 65.0364C167.105 64.9873 166.811 64.9382 166.5 64.8727C166.483 64.8072 166.483 64.7417 166.483 64.6598Z" fill="#1D4593"/>
<path d="M190.266 60.8119C190.266 60.7955 190.282 60.7792 190.282 60.7628V59.3383C189.923 59.2891 189.595 59.2564 189.252 59.2073V61.1066C189.579 61.0739 189.89 61.0575 190.201 61.0411C190.217 60.9756 190.233 60.9101 190.25 60.8446C190.25 60.8283 190.25 60.8283 190.266 60.8119Z" fill="#FF001A"/>
<path d="M207.034 56.866C206.936 56.6531 206.838 56.4075 206.821 56.1783C206.707 55.0321 206.674 53.8696 206.51 52.7235C206.265 50.906 205.938 49.0885 205.643 47.271C205.562 46.7962 205.431 46.3213 205.333 45.8465C205.251 45.4863 205.153 45.1424 205.071 44.7986C205.022 44.6185 204.94 44.5366 204.727 44.6185C204.547 44.684 204.368 44.7495 204.188 44.7822C204.008 44.815 203.975 44.8805 204.008 45.0769C204.237 46.0102 204.482 46.9435 204.662 47.8768C204.94 49.3996 205.202 50.9387 205.431 52.4615C205.545 53.1492 205.594 53.8532 205.676 54.5573C205.66 54.5737 205.627 54.5901 205.611 54.6064C205.578 54.5573 205.562 54.4918 205.513 54.4427C205.202 54.0661 204.875 53.7059 204.564 53.3293C204.482 53.231 204.417 53.1001 204.4 52.9854C204.22 51.8229 204.073 50.6604 203.877 49.5142C203.73 48.6464 203.517 47.795 203.321 46.9272C203.206 46.4196 203.075 45.912 202.944 45.4208C202.895 45.2243 202.814 45.1424 202.601 45.2243C202.454 45.2898 202.29 45.3062 202.127 45.3553C201.947 45.4044 201.898 45.4699 201.947 45.6664C202.307 47.3038 202.65 48.9411 202.994 50.5785C203.092 51.0533 203.141 51.5446 203.223 52.0685C203.108 52.003 203.059 51.9539 202.994 51.9211C202.732 51.7738 202.47 51.6264 202.225 51.4627C202.127 51.3972 202.028 51.2989 202.012 51.2007C201.816 50.2019 201.652 49.2031 201.44 48.2043C201.276 47.4511 201.08 46.6979 200.9 45.9611C200.867 45.8465 200.818 45.7483 200.671 45.7974C200.409 45.8793 200.147 45.9611 199.886 46.043C200.229 47.664 200.573 49.2522 200.933 50.8896C200.491 50.7259 200.115 50.6113 199.771 50.4639C199.689 50.4311 199.624 50.3165 199.608 50.2347C199.477 49.6616 199.395 49.0885 199.264 48.5154C199.117 47.8605 198.937 47.2219 198.773 46.5669C198.757 46.5015 198.643 46.4032 198.61 46.4032C198.332 46.4687 198.054 46.5506 197.776 46.6324C198.037 47.795 198.283 48.9248 198.528 50.1037C198.103 50.0382 197.743 49.989 197.399 49.9236C197.35 49.9072 197.285 49.8089 197.268 49.7271C197.187 49.3505 197.138 48.9903 197.056 48.6137C196.941 48.0733 196.794 47.5494 196.663 46.9763C196.303 47.0909 196.009 47.1891 195.682 47.271C195.878 48.1388 196.058 48.9575 196.238 49.7926C195.894 49.7926 195.584 49.7926 195.273 49.7926C195.126 49.7926 195.077 49.7434 195.044 49.5961C194.929 48.9739 194.799 48.3681 194.668 47.7459C194.635 47.5985 194.57 47.533 194.406 47.5821C194.21 47.6476 194.013 47.7131 193.817 47.7459C193.637 47.7786 193.637 47.8932 193.67 48.0242C193.784 48.63 193.899 49.2195 193.997 49.8253C194.013 49.8744 193.981 49.9727 193.932 50.0054C193.621 50.2019 193.294 50.3984 192.967 50.5949C192.967 50.5621 192.95 50.5294 192.934 50.4803C192.803 49.7762 192.672 49.0721 192.558 48.3681C192.525 48.2207 192.443 48.1716 192.312 48.2043C192.132 48.2534 191.969 48.3026 191.789 48.3681C191.625 48.4172 191.576 48.5154 191.609 48.7119C191.74 49.5306 191.887 50.3493 191.985 51.168C192.051 51.6428 192.116 52.134 192.018 52.6252C191.952 52.9036 191.985 53.1983 192.018 53.493C192.067 53.9515 192.181 54.3936 192.23 54.8357C192.312 55.6707 192.378 56.5058 192.459 57.3245C192.459 57.39 192.459 57.5046 192.41 57.5373C192.067 57.8648 191.723 58.1759 191.396 58.4706C191.396 58.3888 191.396 58.2414 191.396 58.0777C191.331 57.0134 191.282 55.9327 191.216 54.8684C191.102 52.8872 190.84 50.9387 190.513 48.9903C190.48 48.7938 190.382 48.7774 190.235 48.8101C190.022 48.8593 189.826 48.9248 189.63 48.9903C189.581 49.0066 189.531 49.1049 189.515 49.1704C189.499 49.2359 189.531 49.3177 189.548 49.3996C189.908 51.6264 190.169 53.8696 190.251 56.1456C190.284 57.1771 190.349 58.2086 190.398 59.2402C190.595 59.2729 190.758 59.2893 190.938 59.3221C190.775 59.715 190.627 60.108 190.464 60.5337V60.5501C190.464 60.5828 190.447 60.6319 190.447 60.6647C190.447 60.6974 190.431 60.7138 190.431 60.7466C190.415 60.7957 190.415 60.8448 190.382 60.8776C190.366 60.943 190.349 61.0085 190.333 61.074C190.317 61.3196 190.3 61.5489 190.268 61.7617C190.202 62.4658 190.366 63.1535 190.268 63.8576C190.104 65.1183 190.039 66.3955 189.908 67.6726C189.826 68.3931 189.695 69.1135 189.581 69.8503C189.531 70.1778 189.466 70.5053 189.417 70.8655C189.695 70.9474 189.957 71.0129 190.235 71.0784C190.398 71.1275 190.48 71.0947 190.513 70.9146C190.709 69.703 190.905 68.5077 191.102 67.296C191.167 66.9358 191.2 66.5592 191.265 66.1826C191.56 66.5756 191.838 66.9358 192.1 67.3124C192.149 67.3779 192.149 67.5089 192.149 67.6071C192.034 68.3767 191.92 69.1463 191.805 69.9158C191.723 70.407 191.625 70.8983 191.543 71.4222C191.871 71.5041 192.181 71.5859 192.525 71.6678C192.852 70.5544 193.016 69.441 193.179 68.3112C193.555 68.5404 193.899 68.7533 194.242 68.9662C194.275 68.9825 194.275 69.0808 194.275 69.1299C194.21 69.4901 194.144 69.8503 194.079 70.2269C193.997 70.7509 193.899 71.2748 193.817 71.8152C193.801 71.8807 193.85 72.0117 193.915 72.028C194.128 72.1099 194.341 72.159 194.553 72.2081C194.684 72.2409 194.749 72.2082 194.782 72.0608C194.913 71.4222 195.044 70.7836 195.175 70.1451C195.224 69.9158 195.257 69.703 195.289 69.4574C195.665 69.572 196.009 69.6702 196.402 69.7848C196.205 70.7181 196.025 71.6351 195.845 72.552C196.123 72.6339 196.369 72.6994 196.614 72.7976C196.778 72.8631 196.843 72.7976 196.876 72.6502C196.974 72.2081 197.089 71.7824 197.17 71.3403C197.269 70.8655 197.334 70.407 197.432 69.9322H198.561C198.348 70.9801 198.152 72.0117 197.955 73.076C198.135 73.1415 198.315 73.2069 198.495 73.2724C198.839 73.3871 198.855 73.3871 198.921 73.0432C199.133 72.028 199.33 71.0129 199.526 70.0141C199.542 69.9322 199.575 69.8176 199.64 69.8012C199.951 69.7193 200.278 69.6539 200.638 69.5884C200.425 70.9637 200.213 72.3064 200.017 73.6818C200.246 73.7473 200.507 73.8128 200.753 73.8783C200.916 73.9274 200.998 73.8946 201.031 73.7145C201.276 72.3555 201.538 71.0129 201.767 69.6539C201.816 69.3264 201.881 69.0971 202.241 68.9989C202.486 68.9334 202.715 68.786 202.944 68.6714C202.994 68.6551 203.059 68.6387 203.124 68.6059C203.124 68.6878 203.124 68.7533 203.108 68.8024C202.895 70.0304 202.683 71.2748 202.454 72.5029C202.356 73.0105 202.225 73.5017 202.127 73.9929C202.11 74.0748 202.143 74.2385 202.192 74.2385C202.486 74.3204 202.781 74.3858 203.092 74.4513C203.223 73.9274 203.37 73.4362 203.452 72.9286C203.713 71.3403 203.975 69.7521 204.22 68.1638C204.253 67.9674 204.318 67.82 204.482 67.689C204.76 67.4925 205.022 67.2469 205.284 67.0341C205.333 67.0013 205.382 66.9686 205.447 66.9194C205.447 67.0504 205.464 67.1487 205.447 67.2469C205.382 67.8036 205.349 68.3603 205.267 68.917C205.055 70.2924 204.826 71.6678 204.58 73.0432C204.482 73.5508 204.335 74.0256 204.188 74.5332C204.139 74.6969 204.188 74.7788 204.351 74.8116C204.515 74.8443 204.678 74.8934 204.826 74.9426C205.12 75.0408 205.136 75.0244 205.218 74.7461C205.627 73.3216 205.987 71.8643 206.183 70.3907C206.396 68.7697 206.543 67.1323 206.723 65.5113C206.739 65.3148 206.788 65.102 206.887 64.9382C207.623 63.481 207.95 61.9255 207.983 60.3045C207.917 59.0601 207.541 57.9467 207.034 56.866ZM192.28 53.0837C192.329 51.9211 192.819 50.9715 193.932 50.4475C195.355 49.7762 196.794 50.4311 197.285 51.9211C197.563 52.7726 197.547 53.624 197.219 54.4591C196.581 56.0801 194.978 56.3748 193.719 55.6871C192.721 55.1631 192.312 54.2462 192.28 53.0837ZM202.666 68.344C201.08 69.1463 199.411 69.6211 197.628 69.5556C195.289 69.4574 193.375 68.4913 191.92 66.6575C191.102 65.6259 190.742 64.3652 190.578 63.0716C190.529 62.7442 190.529 62.4003 190.529 62.0565C190.529 61.8763 190.578 61.7126 190.791 61.6635C190.824 61.6635 190.856 61.6144 190.922 61.5489C190.824 61.4998 190.742 61.467 190.611 61.4179C190.742 61.336 190.84 61.2541 191.004 61.1395C190.627 61.0577 190.775 60.8612 190.84 60.6647C190.955 60.3372 191.053 60.0261 191.167 59.6986C191.216 59.5513 191.314 59.4367 191.396 59.3057C191.445 59.2893 191.511 59.2729 191.56 59.2729C191.609 59.2729 191.658 59.2729 191.74 59.2566C191.691 59.1747 191.658 59.1256 191.625 59.0601C191.658 59.0437 191.674 59.0273 191.691 59.0273C191.805 59.0601 191.903 59.0928 192.001 59.1092C192.083 59.1256 192.165 59.0764 192.23 59.0601C192.181 58.9946 192.149 58.9291 192.1 58.88C192.083 58.8636 192.034 58.8636 192.018 58.8472C191.969 58.7981 191.936 58.749 191.903 58.6999C191.969 58.6835 192.034 58.6507 192.1 58.6507C192.214 58.6507 192.345 58.6835 192.525 58.7162C192.378 58.5689 192.28 58.4542 192.181 58.356L192.23 58.2905C192.41 58.3396 192.59 58.3724 192.77 58.4215C192.787 58.4051 192.803 58.3724 192.819 58.356C192.738 58.2414 192.656 58.1268 192.525 57.963C192.754 58.0122 192.934 58.0613 193.114 58.1104C193.146 58.0613 193.179 58.0122 193.212 57.963C193.081 57.8975 192.934 57.8484 192.803 57.7829C192.836 57.7502 192.868 57.7174 192.885 57.6683C193.048 57.7174 193.228 57.7666 193.441 57.832C193.359 57.6356 193.294 57.4882 193.228 57.3408C193.261 57.3245 193.277 57.3081 193.31 57.2917C193.375 57.3572 193.457 57.4227 193.523 57.4718C193.572 57.5046 193.637 57.5046 193.686 57.5209C193.686 57.4555 193.703 57.4063 193.686 57.3408C193.67 57.259 193.621 57.1935 193.588 57.1116C193.604 57.0952 193.621 57.0789 193.637 57.0625C193.752 57.128 193.883 57.1935 194.03 57.2753C194.013 57.128 194.013 57.0134 193.997 56.8169C194.128 56.9315 194.193 56.997 194.324 57.0952C194.341 56.9479 194.357 56.8333 194.373 56.6859C194.439 56.7186 194.488 56.7514 194.553 56.7841C194.57 56.7678 194.586 56.7514 194.602 56.735C194.668 56.6695 194.733 56.5713 194.815 56.5385C196.614 55.8508 198.381 56.0146 200.066 56.8987C201.014 57.39 201.865 58.0449 202.274 59.0764C203.353 61.729 202.11 64.0868 199.82 65.0365C198.659 65.5277 197.448 65.5604 196.303 64.9546C195.436 64.4961 194.815 63.8248 194.733 62.7769C194.7 62.4331 194.733 62.4003 195.06 62.4986C195.093 62.3184 195.093 62.3184 194.733 62.2038C194.848 62.1383 194.946 62.0728 195.06 62.0073C194.946 61.9255 194.848 61.86 194.7 61.7617C194.88 61.6799 195.028 61.6307 195.207 61.5652C195.077 61.4506 194.978 61.3851 194.831 61.2542C195.06 61.2214 195.224 61.1887 195.387 61.1559C195.404 61.1232 195.42 61.1068 195.42 61.074L195.109 60.9103C195.126 60.8776 195.142 60.8612 195.158 60.8284H195.567C195.518 60.7138 195.469 60.6319 195.42 60.5337C195.551 60.5501 195.665 60.5665 195.796 60.5828C195.796 60.4846 195.78 60.4191 195.78 60.3372C196.418 60.239 197.039 60.1407 197.677 60.0261C197.677 60.0097 197.677 59.9934 197.677 59.9606C197.187 59.9115 196.68 59.8624 196.14 59.8133C196.287 59.7314 196.385 59.6495 196.5 59.584C196.598 59.6495 196.696 59.715 196.81 59.7641C196.843 59.6495 196.876 59.5349 196.941 59.3548C197.007 59.4858 197.023 59.5349 197.056 59.6004C197.089 59.6659 197.105 59.7314 197.121 59.7969C197.138 59.7969 197.17 59.8133 197.187 59.8133C197.252 59.6659 197.301 59.5185 197.383 59.3221C197.432 59.4694 197.465 59.5513 197.514 59.6823C197.612 59.5677 197.677 59.4694 197.792 59.3221C197.808 59.4694 197.825 59.5677 197.841 59.7478C197.988 59.6168 198.086 59.5185 198.234 59.3712V59.6986C198.332 59.6659 198.43 59.6332 198.561 59.584V59.7969C198.921 59.6659 199.084 59.9115 199.231 60.1407C199.755 60.8939 199.46 62.0728 198.659 62.3839C198.43 62.4822 198.152 62.4822 197.906 62.564C198.25 62.6295 198.593 62.6295 198.921 62.4822C199.33 62.3184 199.591 62.0073 199.706 61.5652C200.066 60.239 199.166 59.0437 197.71 58.9455C197.105 58.9127 196.549 59.0601 196.091 59.4203C195.715 59.715 195.338 59.7314 194.913 59.6659C194.439 59.6004 193.948 59.5677 193.425 59.5185C193.441 59.8788 193.457 60.2062 193.474 60.5665C193.964 60.5173 194.439 60.4518 194.913 60.4027C194.782 60.7466 194.635 61.0577 194.553 61.3851C194.471 61.6635 194.422 61.9746 194.39 62.2693C194.324 62.7605 194.39 63.219 194.602 63.6775C194.733 63.9394 194.897 64.2014 194.749 64.5453C194.897 64.5125 195.011 64.4961 195.175 64.4634C195.126 64.6108 195.093 64.7254 195.06 64.84C195.191 64.8236 195.289 64.8072 195.436 64.7909C195.387 64.9055 195.338 64.971 195.289 65.0856C195.436 65.0528 195.551 65.0201 195.715 64.971C195.665 65.0856 195.633 65.1675 195.584 65.233L195.616 65.2985C195.731 65.2493 195.845 65.2166 195.976 65.1675C195.96 65.2985 195.944 65.4131 195.911 65.5932C196.058 65.4622 196.173 65.3639 196.271 65.2821L196.32 65.3148C196.303 65.4622 196.271 65.6259 196.254 65.7733C196.271 65.7897 196.287 65.7897 196.303 65.806C196.418 65.6914 196.549 65.5768 196.729 65.4131C196.745 65.6423 196.761 65.806 196.778 66.0025C196.892 65.8552 196.974 65.7405 197.105 65.5768C197.121 65.806 197.138 65.9698 197.154 66.1335C197.17 66.1335 197.203 66.1335 197.219 66.1499L197.432 65.6423L197.53 65.6587C197.53 65.7405 197.53 65.8224 197.547 65.9043C197.563 66.0025 197.596 66.0844 197.612 66.1826C197.677 66.1008 197.743 66.0353 197.808 65.9534C197.825 65.937 197.825 65.9043 197.825 65.8879C197.874 65.806 197.939 65.7405 197.988 65.6587C198.021 65.7569 198.07 65.8388 198.086 65.937C198.103 66.0353 198.103 66.1499 198.119 66.2481C198.135 66.2481 198.168 66.2481 198.185 66.2645C198.283 66.068 198.364 65.8552 198.463 65.6587C198.479 65.6587 198.495 65.675 198.528 65.675C198.544 65.7242 198.544 65.7733 198.561 65.8224C198.593 65.9698 198.463 66.2481 198.708 66.2481C198.937 66.2481 198.822 65.9698 198.855 65.8224C198.872 65.7569 198.888 65.675 198.904 65.6096C198.937 65.6096 198.953 65.5932 198.986 65.5932C199.019 65.675 199.068 65.7569 199.101 65.8552C199.15 65.9861 199.133 66.199 199.33 66.1663C199.379 66.1663 199.411 65.9534 199.444 65.8224C199.46 65.7405 199.46 65.6423 199.477 65.5441C199.509 65.5277 199.526 65.5113 199.559 65.5113C199.64 65.6259 199.722 65.7405 199.804 65.8388C199.853 65.8879 199.902 65.937 199.951 65.9861C199.984 65.9207 200.049 65.8552 200.049 65.7897C200.066 65.6259 200.049 65.4458 200.049 65.2821C200.066 65.2821 200.098 65.2657 200.115 65.2657C200.18 65.4131 200.262 65.5604 200.36 65.7569C200.409 65.4949 200.442 65.2985 200.458 65.1183C200.475 65.1183 200.507 65.1183 200.524 65.102C200.573 65.2166 200.622 65.3312 200.704 65.4949C200.769 65.233 200.818 65.0201 200.867 64.8236H200.933C200.982 64.9219 201.014 65.0037 201.063 65.102C201.08 65.102 201.112 65.102 201.129 65.102C201.145 64.9382 201.162 64.7909 201.178 64.5944C201.276 64.6599 201.358 64.709 201.456 64.7909C201.472 64.6271 201.472 64.4961 201.489 64.3488C201.603 64.3815 201.669 64.4143 201.783 64.447C201.799 64.2833 201.832 64.1359 201.849 63.9558C201.947 63.9722 202.012 63.9722 202.094 63.9886C202.11 63.9722 202.127 63.9558 202.127 63.9558C202.094 63.6775 202.257 63.4646 202.388 63.2517C203.37 61.5816 203.239 59.0273 201.489 57.4555C200.393 56.473 199.117 55.9654 197.677 55.8017C197.416 55.769 197.17 55.7526 196.909 55.7198C198.152 54.1316 198.184 52.4779 197.219 50.7586C197.236 50.7586 197.285 50.775 197.334 50.775C197.269 50.5949 197.203 50.4148 197.138 50.2347C197.17 50.2183 197.187 50.2019 197.219 50.2019C197.285 50.3165 197.367 50.4311 197.432 50.5458C197.498 50.6604 197.579 50.775 197.645 50.8896L197.726 50.8569C197.71 50.6767 197.694 50.4803 197.677 50.251C198.005 50.4475 197.808 50.8732 198.168 51.0533C198.185 50.8241 198.201 50.6276 198.201 50.4311C198.217 50.4311 198.234 50.4311 198.266 50.4148C198.332 50.6112 198.397 50.8241 198.479 51.0206C198.495 51.0206 198.528 51.0206 198.544 51.0206C198.561 50.8569 198.593 50.6767 198.61 50.513C198.626 50.513 198.643 50.513 198.659 50.513L198.822 51.0533C198.839 51.0533 198.855 51.0533 198.872 51.0533C198.921 50.8896 198.953 50.7259 199.002 50.5621C199.019 50.5621 199.051 50.5621 199.068 50.5621C199.117 50.7422 199.182 50.9223 199.231 51.1025C199.248 51.1025 199.264 51.1025 199.28 51.1025C199.33 50.9551 199.379 50.8241 199.46 50.6112C199.526 50.8569 199.559 51.0206 199.608 51.2007C199.624 51.2007 199.64 51.2007 199.673 51.2171C199.755 51.0697 199.82 50.9223 199.935 50.7422C200 50.9715 200.033 51.1352 200.098 51.3644C200.213 51.1843 200.295 51.0533 200.393 50.906L200.458 50.9224V51.4791C200.475 51.4791 200.491 51.4791 200.524 51.4954C200.605 51.3481 200.687 51.2171 200.769 51.0697L200.851 51.0861C200.867 51.2335 200.867 51.3972 200.883 51.61C200.982 51.4463 201.063 51.3481 201.129 51.2334C201.145 51.2334 201.178 51.2334 201.194 51.2334C201.211 51.3481 201.227 51.4791 201.26 51.6592C201.358 51.5609 201.423 51.4791 201.505 51.3644C201.521 51.4954 201.521 51.5773 201.538 51.7083C201.62 51.6264 201.701 51.5773 201.799 51.4791C201.816 51.61 201.832 51.6919 201.832 51.8065C201.898 51.741 201.963 51.7083 202.028 51.6428C202.078 51.7247 202.11 51.8065 202.11 51.8229C202.274 51.9048 202.421 51.9375 202.536 52.0194C203.697 52.7726 204.629 53.755 205.447 54.8684C206.347 56.0637 207.067 57.3572 207.41 58.8308C207.754 60.3045 207.557 61.7454 207.148 63.1699C206.429 65.5441 204.875 67.2305 202.666 68.344Z" fill="#1D4593"/>
<path d="M189.187 59.1746C188.827 59.1418 188.467 59.1091 188.091 59.0927C188.123 55.9162 187.829 52.8052 187.42 49.6614C187.731 49.5632 188.009 49.4813 188.287 49.3831C188.434 49.334 188.45 49.4486 188.467 49.5468C188.549 50.1527 188.647 50.7585 188.729 51.3643C189.007 53.4929 189.121 55.6378 189.17 57.7992C189.187 58.2413 189.187 58.6997 189.187 59.1746Z" fill="#1D4593"/>
<path d="M189.137 61.1394C189.137 61.7289 189.17 62.2856 189.137 62.8423C189.023 65.0527 188.81 67.2468 188.368 69.4245C188.303 69.7356 188.238 70.0631 188.172 70.3742C188.156 70.5052 188.09 70.5543 187.959 70.5215C187.714 70.456 187.469 70.3905 187.207 70.325C187.272 69.8502 187.322 69.3917 187.387 68.9333C187.681 66.8538 187.992 64.7907 188.041 62.6949C188.058 62.3019 188.09 61.8926 188.09 61.4996C188.09 61.3031 188.156 61.2376 188.352 61.2213C188.614 61.2213 188.875 61.1722 189.137 61.1394Z" fill="#1D4593"/>
<path d="M175.102 57.8646C174.742 57.8319 174.432 57.7991 174.121 57.7664C174.088 59.4528 174.072 61.1393 174.039 62.8258C174.383 62.7767 174.71 62.7276 175.069 62.6785C175.086 61.0738 175.119 59.502 175.135 57.9137C175.135 57.8973 175.119 57.881 175.102 57.8646Z" fill="#FF001A"/>
<path d="M175.153 57.7992C175.186 57.8319 175.202 57.8483 175.235 57.8811H176.037C175.955 56.2601 175.971 54.6391 175.709 53.0017C175.366 53.1163 175.072 53.2146 174.761 53.3128C174.892 54.8356 175.022 56.3092 175.153 57.7992Z" fill="#1D4593"/>
<path d="M186.996 58.9618C186.669 58.929 186.374 58.8963 186.063 58.8635C185.9 58.8472 185.916 58.7325 185.916 58.6179C185.9 57.8156 185.9 57.0297 185.883 56.2274C185.834 54.3608 185.654 52.5105 185.425 50.6603C185.376 50.251 185.376 50.2346 185.785 50.1364C185.834 50.12 185.883 50.1036 185.916 50.1036C186.358 49.989 186.358 49.989 186.423 50.4638C186.734 52.6252 186.914 54.8192 186.963 56.9969C186.979 57.57 186.996 58.1431 186.996 58.7162C186.996 58.798 186.996 58.8635 186.996 58.9618Z" fill="#1D4593"/>
<path d="M185.851 61.4996C186.211 61.4669 186.57 61.4341 186.947 61.385C186.947 61.6306 186.963 61.8598 186.947 62.0891C186.783 63.9721 186.619 65.855 186.423 67.7216C186.358 68.4093 186.194 69.0806 186.063 69.7683C186.031 69.9484 185.965 70.0139 185.769 69.9484C185.589 69.883 185.393 69.8338 185.196 69.8011C185.033 69.7683 184.984 69.7028 185.016 69.5227C185.131 68.8023 185.278 68.0982 185.36 67.3778C185.507 66.0679 185.638 64.758 185.769 63.4317C185.818 62.8423 185.834 62.2364 185.867 61.647C185.883 61.5979 185.867 61.5487 185.851 61.4996C185.867 61.4996 185.851 61.4996 185.851 61.4996Z" fill="#1D4593"/>
<path d="M184.182 50.5947C184.591 53.3128 184.722 55.998 184.771 58.7324C184.427 58.6833 184.1 58.6506 183.707 58.6015C183.707 58.0939 183.74 57.6027 183.707 57.1278C183.609 55.5068 183.495 53.8858 183.364 52.2812C183.331 51.921 183.282 51.5444 183.233 51.1842C183.2 51.0041 183.249 50.8731 183.446 50.824C183.691 50.7421 183.936 50.6766 184.182 50.5947Z" fill="#1D4593"/>
<path d="M184.852 61.6633C184.835 61.7452 184.786 61.8107 184.786 61.8926C184.623 64.2176 184.459 66.5263 184.066 68.8186C184.05 68.9005 184.034 68.9824 184.017 69.0806C183.936 69.4572 183.936 69.4572 183.576 69.3917C183.396 69.359 183.216 69.2935 183.02 69.2444C183.281 66.7556 183.543 64.2667 183.821 61.7288C184.132 61.6961 184.492 61.6797 184.852 61.6633Z" fill="#1D4593"/>
<path d="M182.596 58.487C182.269 58.4706 181.974 58.4706 181.68 58.4379C181.614 58.4379 181.549 58.2741 181.549 58.1759C181.533 57.6356 181.549 57.0952 181.516 56.5549C181.434 54.9339 181.32 53.3129 181.222 51.6756C181.205 51.5118 181.254 51.4299 181.385 51.3972C181.631 51.3153 181.892 51.2498 182.17 51.168C182.498 53.6076 182.645 56.0146 182.596 58.487Z" fill="#1D4593"/>
<path d="M181.53 61.9581C181.694 61.9417 181.858 61.9417 182.021 61.9254C182.185 61.909 182.348 61.8762 182.495 61.8599C182.495 62.3347 182.512 62.7768 182.495 63.2189C182.43 65.02 182.217 66.7883 181.89 68.5567C181.825 68.8842 181.808 68.9006 181.481 68.8187C181.351 68.7859 181.203 68.7368 181.072 68.6877C181.023 68.6713 180.974 68.6549 180.893 68.6222C180.958 68.0327 181.04 67.4597 181.089 66.8866C181.22 65.3475 181.351 63.8083 181.481 62.2692C181.498 62.1873 181.514 62.0727 181.53 61.9581C181.53 61.9581 181.53 61.9417 181.53 61.9581Z" fill="#1D4593"/>
<path d="M180.109 51.7737C180.175 52.314 180.24 52.8216 180.273 53.3128C180.354 54.8847 180.42 56.4402 180.469 58.0121C180.485 58.3232 180.453 58.3232 180.142 58.2904C179.897 58.2577 179.668 58.2249 179.373 58.1922C179.373 57.5863 179.389 56.9805 179.373 56.3911C179.324 55.1139 179.242 53.8531 179.177 52.576C179.144 51.9865 179.046 52.0684 179.618 51.9047C179.766 51.8719 179.913 51.8392 180.109 51.7737Z" fill="#1D4593"/>
<path d="M180.353 62.1384C180.353 62.515 180.385 62.8425 180.353 63.17C180.238 64.3489 180.124 65.5278 179.993 66.7067C179.944 67.1815 179.846 67.6564 179.764 68.1312C179.748 68.2949 179.682 68.344 179.519 68.3113C178.734 68.1803 178.766 68.1803 178.848 67.3944C179.028 65.757 179.191 64.1196 179.355 62.4823C179.371 62.3185 179.404 62.253 179.584 62.2367C179.829 62.2203 180.091 62.1712 180.353 62.1384Z" fill="#1D4593"/>
<path d="M167.595 63.4318C167.873 61.336 167.856 59.2402 167.791 57.1116C168.118 57.1607 168.445 57.1934 168.805 57.2426C168.822 57.5209 168.838 57.7993 168.838 58.0776C168.871 59.7805 168.772 61.4833 168.593 63.1862C168.576 63.3336 168.543 63.3991 168.38 63.3991C168.265 63.3991 168.151 63.4318 168.02 63.4318C167.906 63.4318 167.775 63.4318 167.595 63.4318Z" fill="#FF001A"/>
<path d="M170.686 63.1699C170.343 63.1862 170.016 63.219 169.705 63.2354C169.754 61.2705 169.787 59.3057 169.836 57.3245C170.114 57.3572 170.392 57.3736 170.67 57.4227C170.719 57.4227 170.785 57.5537 170.785 57.6192C170.801 57.9794 170.801 58.3233 170.801 58.6835C170.785 60.0916 170.752 61.5161 170.719 62.9243C170.719 63.0061 170.703 63.088 170.686 63.1699Z" fill="#FF001A"/>
<path d="M177.967 52.4124C178.163 54.3281 178.261 56.211 178.245 58.1431C177.918 58.1104 177.624 58.094 177.329 58.0449C177.28 58.0449 177.215 57.9467 177.198 57.8975C177.182 57.7829 177.182 57.6683 177.182 57.5373C177.117 56.0964 177.051 54.6555 176.986 53.2147C176.953 52.6907 176.953 52.6907 177.444 52.5433C177.607 52.4942 177.754 52.4615 177.967 52.4124Z" fill="#1D4593"/>
<path d="M172.797 62.9243C172.47 62.9734 172.159 63.0062 171.832 63.0553C171.832 61.2214 171.832 59.404 171.832 57.5374C172.208 57.5865 172.519 57.6192 172.846 57.6683C172.895 57.6683 172.928 57.8157 172.928 57.8976C172.928 58.6344 172.928 59.3712 172.912 60.1244C172.895 61.0086 172.846 61.8928 172.813 62.7606C172.813 62.8097 172.813 62.8588 172.797 62.9243Z" fill="#FF001A"/>
<path d="M177.083 62.5311C177.443 62.4984 177.802 62.4493 178.195 62.4165C178.064 64.2012 177.966 65.986 177.672 67.8198C177.328 67.738 177.017 67.6725 176.674 67.5906C176.723 67.0011 176.788 66.4444 176.821 65.9041C176.919 64.7743 177.001 63.6445 177.083 62.5311Z" fill="#1D4593"/>
<path d="M177.083 62.5313C176.822 62.5476 176.56 62.564 176.314 62.5968C176.118 62.6295 176.053 62.5804 176.053 62.3675C176.069 61.4342 176.085 60.5009 176.085 59.5513C176.085 59.1092 176.069 58.6671 176.053 58.225C176.053 58.0285 176.085 57.9139 176.331 57.963C176.527 58.0121 176.74 58.0121 176.936 58.0285C177.067 58.0285 177.132 58.094 177.132 58.225C177.116 59.3056 177.116 60.4027 177.1 61.4834C177.1 61.8436 177.083 62.1874 177.083 62.5313Z" fill="#FF001A"/>
<path d="M178.227 58.1758C178.586 58.2085 178.897 58.2085 179.208 58.2576C179.257 58.2576 179.355 58.3723 179.355 58.4378C179.371 59.0927 179.388 59.7313 179.388 60.3862C179.388 60.9921 179.355 61.6143 179.339 62.2365C179.012 62.2856 178.701 62.3347 178.39 62.3674C178.21 62.3838 178.243 62.2528 178.243 62.1546C178.243 61.0903 178.243 60.0096 178.243 58.9453C178.227 58.6997 178.227 58.4541 178.227 58.1758Z" fill="#FF001A"/>
<path d="M176.068 62.6458C175.921 64.2013 175.79 65.724 175.643 67.2795C175.3 67.1976 175.022 67.1321 174.744 67.0503C174.694 67.0339 174.662 66.8865 174.678 66.821C174.76 66.0024 174.842 65.1837 174.923 64.365C174.973 63.8902 175.005 63.4317 175.038 62.9569C175.054 62.7767 175.12 62.7276 175.283 62.7112C175.529 62.6785 175.758 62.6621 176.068 62.6458Z" fill="#1D4593"/>
<path d="M173.846 53.5747C173.928 54.9828 174.009 56.3419 174.091 57.7336C173.715 57.7009 173.388 57.6681 173.044 57.6354C173.028 57.4553 173.012 57.2588 173.012 57.0787C172.963 56.129 172.913 55.1957 172.864 54.246C172.848 53.8367 172.864 53.8367 173.241 53.7384C173.339 53.7221 173.421 53.6893 173.519 53.6566C173.584 53.6402 173.682 53.6238 173.846 53.5747Z" fill="#1D4593"/>
<path d="M173.55 66.8211C173.223 66.7392 172.929 66.6573 172.602 66.5755C172.651 66.0515 172.7 65.5603 172.732 65.0527C172.782 64.4305 172.863 63.8247 172.896 63.2025C172.912 63.0224 172.961 62.9569 173.141 62.9569C173.387 62.9569 173.632 62.9077 173.894 62.875C173.91 64.1849 173.681 65.4784 173.55 66.8211Z" fill="#1D4593"/>
<path d="M181.532 61.9418C181.189 61.9909 180.829 62.0237 180.469 62.0728C180.469 60.8284 180.469 59.584 180.469 58.3396C180.829 58.3723 181.156 58.4051 181.516 58.4542C181.516 58.8472 181.516 59.2238 181.516 59.6004C181.516 60.3372 181.499 61.074 181.499 61.8272C181.499 61.8599 181.516 61.9091 181.532 61.9418C181.532 61.9582 181.532 61.9418 181.532 61.9418Z" fill="#FF001A"/>
<path d="M183.69 61.729C183.297 61.7618 182.954 61.7945 182.61 61.8273C182.61 60.7138 182.61 59.6495 182.61 58.5361C182.987 58.5525 183.33 58.5853 183.69 58.6016C183.69 59.6495 183.69 60.6647 183.69 61.729Z" fill="#FF001A"/>
<path d="M171.766 57.4718C171.488 57.4554 171.226 57.4554 170.964 57.4063C170.899 57.3899 170.817 57.2589 170.817 57.1607C170.768 56.5876 170.752 56.0309 170.719 55.4578C170.703 55.1795 170.686 54.8848 170.67 54.6064C170.654 54.4754 170.703 54.3935 170.834 54.3772C170.997 54.3444 171.161 54.2953 171.308 54.2626C171.537 54.1971 171.586 54.2298 171.602 54.4754C171.652 55.376 171.701 56.2601 171.75 57.1607C171.75 57.2589 171.75 57.3408 171.766 57.4718Z" fill="#1D4593"/>
<path d="M184.853 61.6635C184.837 61.598 184.82 61.5325 184.82 61.4834C184.82 60.5992 184.82 59.6987 184.82 58.7817C185.164 58.8145 185.507 58.8636 185.851 58.8964C185.851 59.7805 185.851 60.6483 185.851 61.5161C185.556 61.5489 185.246 61.5816 184.951 61.6144C184.918 61.598 184.886 61.6308 184.853 61.6635Z" fill="#FF001A"/>
<path d="M171.456 66.1991C171.146 66.1008 170.884 66.0353 170.622 65.9371C170.589 65.9207 170.557 65.8225 170.557 65.757C170.606 64.971 170.671 64.1687 170.753 63.3828C170.753 63.3173 170.851 63.2354 170.917 63.2191C171.162 63.1863 171.407 63.1699 171.685 63.1536C171.702 64.1687 171.587 65.1512 171.456 66.1991Z" fill="#1D4593"/>
<path d="M187.044 58.978C187.404 59.0108 187.715 59.0599 188.074 59.0926C188.074 59.8131 188.074 60.5172 188.074 61.254C187.731 61.2867 187.387 61.3195 187.044 61.3522C187.044 60.5663 187.044 59.7803 187.044 58.978Z" fill="#FF001A"/>
<path d="M168.625 63.4154C168.969 63.3826 169.296 63.3499 169.64 63.3008C169.574 64.1031 169.525 64.8563 169.46 65.675C169.149 65.5931 168.871 65.5276 168.593 65.4457C168.56 65.4294 168.527 65.3639 168.527 65.3147C168.544 64.6925 168.593 64.054 168.625 63.4154Z" fill="#1D4593"/>
<path d="M169.77 57.2588C169.426 57.2424 169.148 57.2261 168.87 57.2097C168.805 56.4729 168.756 55.7688 168.69 55.0484C168.968 54.9501 169.247 54.8683 169.59 54.77C169.639 55.5887 169.705 56.4074 169.77 57.2588Z" fill="#1D4593"/>
<path d="M167.58 55.3594C167.629 55.9325 167.678 56.4728 167.727 57.0622C167.416 57.0295 167.154 57.0131 166.893 56.9804C166.86 56.9804 166.811 56.8821 166.811 56.833C166.762 56.4892 166.729 56.1289 166.696 55.7851C166.696 55.736 166.745 55.6541 166.794 55.6377C167.04 55.5231 167.285 55.4576 167.58 55.3594Z" fill="#1D4593"/>
<path d="M191.379 59.3384C191.428 59.322 191.494 59.3056 191.543 59.3056C191.592 59.3056 191.641 59.3056 191.723 59.2893C191.674 59.2074 191.641 59.1583 191.608 59.0928C191.641 59.0764 191.657 59.06 191.674 59.06C191.788 59.0928 191.886 59.1255 191.985 59.1419C192.066 59.1583 192.148 59.1092 192.214 59.0928C192.165 59.0273 192.132 58.9618 192.083 58.9127C192.066 58.8963 192.017 58.8963 192.001 58.8799C191.952 58.8308 191.919 58.7817 191.886 58.7326C191.952 58.7162 192.017 58.6834 192.083 58.6834C192.197 58.6834 192.328 58.7162 192.508 58.7489C192.361 58.6016 192.263 58.487 192.165 58.3887C192.181 58.3723 192.197 58.3396 192.214 58.3232C192.394 58.3723 192.573 58.4051 192.753 58.4542C192.77 58.4378 192.786 58.4051 192.802 58.3887C192.721 58.2741 192.639 58.1595 192.508 57.9957C192.737 58.0449 192.917 58.094 193.097 58.1431C193.13 58.094 193.162 58.0449 193.195 57.9957C193.064 57.9303 192.917 57.8811 192.786 57.8156C192.819 57.7829 192.852 57.7501 192.868 57.701C193.031 57.7501 193.211 57.7993 193.424 57.8648C193.342 57.6683 193.277 57.5209 193.211 57.3735C193.244 57.3572 193.26 57.3408 193.293 57.3244C193.359 57.3899 193.44 57.4554 193.506 57.5045C193.555 57.5373 193.62 57.5373 193.669 57.5537C193.669 57.4882 193.686 57.439 193.669 57.3735C193.653 57.2917 193.604 57.2262 193.571 57.1443C193.588 57.1279 193.604 57.1116 193.62 57.0952C193.735 57.1607 193.866 57.2262 194.013 57.3081C193.997 57.1607 193.997 57.0461 193.98 56.8496C194.111 56.9642 194.177 57.0297 194.307 57.1279C194.324 56.9806 194.34 56.866 194.356 56.7186C194.422 56.7513 194.471 56.7841 194.536 56.8168C194.553 56.8005 194.569 56.7841 194.585 56.7677C194.651 56.7022 194.716 56.604 194.798 56.5712C196.597 55.8835 198.364 56.0473 200.049 56.9315C200.998 57.4227 201.848 58.0776 202.257 59.1092C203.337 61.7617 202.093 64.1195 199.803 65.0692C198.642 65.5604 197.432 65.5931 196.287 64.9873C195.42 64.5288 194.798 63.8575 194.716 62.8096C194.684 62.4658 194.716 62.433 195.043 62.5313C195.076 62.3511 195.076 62.3511 194.716 62.2365C194.831 62.171 194.929 62.1055 195.043 62.04C194.929 61.9582 194.831 61.8927 194.684 61.7944C194.864 61.7126 195.011 61.6635 195.191 61.598C195.06 61.4833 194.962 61.4178 194.814 61.2869C195.043 61.2541 195.207 61.2214 195.371 61.1886C195.387 61.1559 195.403 61.1395 195.403 61.1067C195.305 61.0576 195.191 60.9921 195.093 60.943C195.109 60.9103 195.125 60.8939 195.142 60.8611C195.272 60.8611 195.403 60.8611 195.551 60.8611C195.501 60.7465 195.452 60.6647 195.403 60.5664C195.534 60.5828 195.649 60.5992 195.78 60.6155C195.78 60.5173 195.763 60.4518 195.763 60.3699C196.401 60.2717 197.023 60.1734 197.661 60.0588C197.661 60.0425 197.661 60.0261 197.661 59.9933C197.17 59.9442 196.663 59.8951 196.123 59.846C196.27 59.7641 196.368 59.6822 196.483 59.6167C196.581 59.6822 196.679 59.7477 196.794 59.7969C196.826 59.6822 196.859 59.5676 196.925 59.3875C196.99 59.5185 197.006 59.5676 197.039 59.6331C197.072 59.6986 197.088 59.7641 197.104 59.8296C197.121 59.8296 197.154 59.846 197.17 59.846C197.235 59.6986 197.284 59.5512 197.366 59.3548C197.415 59.5021 197.448 59.584 197.497 59.715C197.595 59.6004 197.661 59.5021 197.775 59.3548C197.791 59.5021 197.808 59.6004 197.824 59.7805C197.971 59.6495 198.07 59.5512 198.217 59.4039C198.217 59.5349 198.217 59.6167 198.217 59.7314C198.315 59.6986 198.413 59.6659 198.544 59.6167C198.544 59.6822 198.544 59.7477 198.544 59.8296C198.904 59.6986 199.067 59.9442 199.215 60.1734C199.738 60.9266 199.444 62.1055 198.642 62.4166C198.413 62.5149 198.135 62.5149 197.89 62.5968C198.233 62.6622 198.577 62.6622 198.904 62.5149C199.313 62.3511 199.574 62.04 199.689 61.598C200.049 60.2717 199.149 59.0764 197.693 58.9782C197.088 58.9454 196.532 59.0928 196.074 59.453C195.698 59.7477 195.322 59.7641 194.896 59.6986C194.422 59.6331 193.931 59.6004 193.408 59.5512C193.424 59.9115 193.44 60.2389 193.457 60.5992C193.947 60.55 194.422 60.4845 194.896 60.4354C194.765 60.7793 194.618 61.0904 194.536 61.4178C194.455 61.6962 194.405 62.0073 194.373 62.302C194.307 62.7932 194.373 63.2517 194.585 63.7102C194.716 63.9721 194.88 64.2341 194.733 64.578C194.88 64.5452 194.994 64.5288 195.158 64.4961C195.109 64.6435 195.076 64.7581 195.043 64.8727C195.174 64.8563 195.272 64.8399 195.42 64.8236C195.371 64.9382 195.322 65.0037 195.272 65.1183C195.42 65.0856 195.534 65.0528 195.698 65.0037C195.649 65.1183 195.616 65.2002 195.583 65.2657C195.6 65.282 195.6 65.3148 195.616 65.3312C195.73 65.282 195.845 65.2493 195.976 65.2002C195.959 65.3312 195.943 65.4458 195.91 65.6259C196.058 65.4949 196.172 65.3967 196.27 65.3148C196.287 65.3312 196.303 65.3312 196.319 65.3475C196.303 65.4949 196.27 65.6586 196.254 65.806C196.27 65.8224 196.287 65.8224 196.303 65.8387C196.417 65.7241 196.548 65.6095 196.728 65.4458C196.745 65.675 196.761 65.8387 196.777 66.0352C196.892 65.8879 196.974 65.7732 197.104 65.6095C197.121 65.8387 197.137 66.0025 197.154 66.1662C197.17 66.1662 197.203 66.1662 197.219 66.1826C197.284 66.0189 197.366 65.8387 197.432 65.675C197.464 65.675 197.497 65.6914 197.53 65.6914C197.53 65.7732 197.53 65.8551 197.546 65.937C197.562 66.0352 197.595 66.1171 197.612 66.2153C197.677 66.1335 197.742 66.068 197.808 65.9861C197.824 65.9697 197.824 65.937 197.824 65.9206C197.873 65.8387 197.939 65.7732 197.988 65.6914C198.02 65.7896 198.07 65.8715 198.086 65.9697C198.102 66.068 198.102 66.1826 198.119 66.2808C198.135 66.2808 198.168 66.2808 198.184 66.2972C198.282 66.1007 198.364 65.8879 198.462 65.6914C198.478 65.6914 198.495 65.7078 198.528 65.7078C198.544 65.7569 198.544 65.806 198.56 65.8551C198.593 66.0025 198.462 66.2808 198.707 66.2808C198.936 66.2808 198.822 66.0025 198.855 65.8551C198.871 65.7896 198.887 65.7078 198.904 65.6423C198.936 65.6423 198.953 65.6259 198.986 65.6259C199.018 65.7078 199.067 65.7896 199.1 65.8879C199.149 66.0189 199.133 66.2317 199.329 66.199C199.378 66.199 199.411 65.9861 199.444 65.8551C199.46 65.7732 199.46 65.675 199.476 65.5768C199.509 65.5604 199.525 65.544 199.558 65.544C199.64 65.6586 199.722 65.7732 199.803 65.8715C199.853 65.9206 199.902 65.9697 199.951 66.0189C199.983 65.9534 200.049 65.8879 200.049 65.8224C200.065 65.6586 200.049 65.4785 200.049 65.3148C200.065 65.3148 200.098 65.2984 200.114 65.2984C200.18 65.4458 200.261 65.5931 200.36 65.7896C200.409 65.5276 200.441 65.3312 200.458 65.151C200.474 65.151 200.507 65.151 200.523 65.1347C200.572 65.2493 200.621 65.3639 200.703 65.5276C200.769 65.2657 200.818 65.0528 200.867 64.8563C200.883 64.8563 200.916 64.8563 200.932 64.8563C200.981 64.9546 201.014 65.0364 201.063 65.1347C201.079 65.1347 201.112 65.1347 201.128 65.1347C201.145 64.9709 201.161 64.8236 201.177 64.6271C201.276 64.6926 201.357 64.7417 201.456 64.8236C201.472 64.6598 201.472 64.5288 201.488 64.3815C201.603 64.4142 201.668 64.447 201.783 64.4797C201.799 64.316 201.832 64.1686 201.848 63.9885C201.946 64.0049 202.012 64.0049 202.093 64.0213C202.11 64.0049 202.126 63.9885 202.126 63.9885C202.093 63.7102 202.257 63.4973 202.388 63.2844C203.369 61.6143 203.238 59.06 201.488 57.4882C200.392 56.5057 199.116 55.9982 197.677 55.8344C197.415 55.8017 197.17 55.7853 196.908 55.7526C198.151 54.1643 198.184 52.5106 197.219 50.7913C197.235 50.7913 197.284 50.8077 197.333 50.8077C197.268 50.6276 197.203 50.4475 197.137 50.2674C197.17 50.251 197.186 50.2346 197.219 50.2346C197.284 50.3492 197.366 50.4639 197.432 50.5785C197.497 50.6931 197.579 50.8077 197.644 50.9223C197.677 50.9059 197.71 50.9059 197.726 50.8896C197.71 50.7095 197.693 50.513 197.677 50.2837C198.004 50.4802 197.808 50.9059 198.168 51.0861C198.184 50.8568 198.2 50.6603 198.2 50.4639C198.217 50.4639 198.233 50.4639 198.266 50.4475C198.331 50.644 198.397 50.8568 198.478 51.0533C198.495 51.0533 198.528 51.0533 198.544 51.0533C198.56 50.8896 198.593 50.7095 198.609 50.5457C198.626 50.5457 198.642 50.5457 198.658 50.5457C198.707 50.7258 198.757 50.9059 198.822 51.0861C198.838 51.0861 198.855 51.0861 198.871 51.0861C198.92 50.9223 198.953 50.7586 199.002 50.5948C199.018 50.5948 199.051 50.5948 199.067 50.5948C199.116 50.775 199.182 50.9551 199.231 51.1352C199.247 51.1352 199.264 51.1352 199.28 51.1352C199.329 50.9878 199.378 50.8568 199.46 50.644C199.525 50.8896 199.558 51.0533 199.607 51.2334C199.623 51.2334 199.64 51.2334 199.673 51.2498C199.754 51.1024 199.82 50.9551 199.934 50.775C200 51.0042 200.032 51.1679 200.098 51.3972C200.212 51.217 200.294 51.0861 200.392 50.9387C200.409 50.9387 200.425 50.9387 200.458 50.9551C200.458 51.1352 200.458 51.3317 200.458 51.5118C200.474 51.5118 200.49 51.5118 200.523 51.5281C200.605 51.3808 200.687 51.2498 200.769 51.1024C200.801 51.1024 200.818 51.1188 200.85 51.1188C200.867 51.2662 200.867 51.4299 200.883 51.6428C200.981 51.479 201.063 51.3808 201.128 51.2662C201.145 51.2662 201.177 51.2662 201.194 51.2662C201.21 51.3808 201.227 51.5118 201.259 51.6919C201.357 51.5936 201.423 51.5118 201.505 51.3972C201.521 51.5281 201.521 51.61 201.537 51.741C201.619 51.6591 201.701 51.61 201.799 51.5118C201.815 51.6428 201.832 51.7246 201.832 51.8392C201.897 51.7737 201.963 51.741 202.028 51.6755C202.077 51.7574 202.11 51.8392 202.11 51.8556C202.273 51.9375 202.421 51.9702 202.535 52.0521C203.696 52.8053 204.629 53.7877 205.447 54.9011C206.346 56.0964 207.066 57.3899 207.41 58.8636C207.753 60.3372 207.557 61.7781 207.148 63.2026C206.461 65.6095 204.907 67.296 202.699 68.4094C201.112 69.2117 199.444 69.6866 197.661 69.6211C195.322 69.5228 193.408 68.5568 191.952 66.7229C191.134 65.6914 190.774 64.4306 190.611 63.1371C190.562 62.8096 190.562 62.4658 190.562 62.1219C190.562 61.9418 190.611 61.7781 190.823 61.7289C190.856 61.7289 190.889 61.6798 190.954 61.6143C190.856 61.5652 190.774 61.5325 190.643 61.4833C190.774 61.4015 190.872 61.3196 191.036 61.205C190.66 61.1231 190.807 60.9266 190.872 60.7302C190.987 60.4027 191.085 60.0916 191.199 59.7641C191.199 59.584 191.298 59.4694 191.379 59.3384C191.379 59.8296 191.379 60.3208 191.379 60.8448C191.739 60.812 192.083 60.7629 192.443 60.7302C192.443 60.3863 192.426 60.0588 192.443 59.7477C192.459 59.5349 192.394 59.453 192.165 59.4366C191.903 59.4366 191.641 59.3711 191.379 59.3384Z" fill="#FFED00"/>
<path d="M192.279 53.0837C192.328 51.9211 192.819 50.9715 193.931 50.4475C195.354 49.7762 196.794 50.4311 197.285 51.9211C197.563 52.7726 197.546 53.624 197.219 54.4591C196.581 56.0801 194.978 56.3748 193.719 55.6871C192.721 55.1631 192.312 54.2462 192.279 53.0837Z" fill="#FFED00"/>
<path d="M191.378 59.3383C191.64 59.3711 191.901 59.4366 192.179 59.4366C192.408 59.4366 192.474 59.5184 192.457 59.7477C192.441 60.0751 192.457 60.3862 192.457 60.7301C192.098 60.7628 191.754 60.812 191.394 60.8447C191.378 60.3208 191.378 59.8295 191.378 59.3383C191.378 59.3383 191.378 59.322 191.378 59.3383Z" fill="#FF001A"/>
<path d="M197.692 59.977C197.267 59.9279 196.841 59.8951 196.383 59.846C196.383 59.846 196.367 59.8624 196.351 59.846C196.252 59.8296 196.154 59.8296 196.056 59.8133C196.007 59.8133 195.958 59.7969 195.925 59.7969C195.876 59.7969 195.827 59.7969 195.794 59.7969C195.713 59.7969 195.631 59.7805 195.549 59.7641C195.484 59.7641 195.435 59.7478 195.386 59.7314C195.255 59.7314 195.107 59.715 194.96 59.6986C194.486 59.6331 193.995 59.6004 193.472 59.5513C193.488 59.9115 193.504 60.239 193.521 60.5992C194.011 60.5501 194.486 60.4846 194.944 60.4355C194.944 60.4355 197.038 60.1898 197.708 60.0261C197.708 60.0261 197.692 59.9934 197.692 59.977Z" fill="#FF001A"/>
<path d="M31.6336 46.7634V55.8508H30.7666V46.7634H31.6336Z" fill="#1D4593"/>
<path d="M33.3191 49.1541H34.2842L37.8173 54.5901V49.1541H38.6679V55.8509H37.6701L34.1533 50.4803V55.8509H33.3027V49.1541H33.3191Z" fill="#1D4593"/>
<path d="M44.8829 51.1188H44.0324C43.9342 50.2019 43.3781 49.7598 42.364 49.7598C41.8896 49.7598 41.5134 49.858 41.2517 50.0545C40.99 50.251 40.8591 50.5293 40.8591 50.8732C40.8591 51.0042 40.8755 51.1024 40.9082 51.2006C40.9409 51.2989 41.0063 51.3808 41.1045 51.4463C41.2026 51.5117 41.2844 51.5772 41.3662 51.6264C41.448 51.6755 41.5788 51.7246 41.7587 51.7737C41.9387 51.8228 42.0695 51.8556 42.184 51.8883C42.2985 51.9047 42.4621 51.9538 42.6747 52.003C42.9528 52.0521 43.1818 52.1176 43.3617 52.1503C43.5417 52.1994 43.7543 52.2813 44.016 52.3796C44.2614 52.4942 44.4577 52.6088 44.6049 52.7398C44.7521 52.8708 44.8829 53.0345 44.9974 53.2474C45.1119 53.4602 45.161 53.7058 45.161 53.9678C45.161 54.4426 45.0302 54.8356 44.7684 55.1467C44.5067 55.4578 44.1796 55.687 43.8034 55.8017C43.4272 55.9326 43.0182 55.9818 42.5602 55.9818C41.726 55.9818 41.0554 55.7853 40.5483 55.3923C40.0413 54.9993 39.7959 54.4099 39.7959 53.624H40.6465C40.6628 54.197 40.8591 54.6064 41.219 54.8684C41.5788 55.1303 42.0532 55.2613 42.642 55.2613C43.1 55.2613 43.4926 55.1631 43.8197 54.9666C44.1469 54.7701 44.3105 54.459 44.3105 54.0333C44.3105 53.8368 44.2614 53.6567 44.1796 53.5257C44.0978 53.3947 43.9506 53.2637 43.7707 53.1819C43.5907 53.0836 43.3945 53.0181 43.2145 52.969C43.0346 52.9199 42.7729 52.8544 42.4785 52.7889C42.4294 52.7889 42.3967 52.7725 42.3803 52.7725C41.6933 52.6088 41.2353 52.4942 41.0227 52.3959C40.3684 52.1176 40.0413 51.6264 40.0413 50.9387C40.0413 50.3001 40.2703 49.8253 40.7446 49.4978C41.219 49.1867 41.7915 49.0229 42.4621 49.0229C43.1982 49.0229 43.787 49.2031 44.2123 49.5469C44.6212 49.8908 44.8502 50.4147 44.8829 51.1188Z" fill="#1D4593"/>
<path d="M50.8701 49.1541V49.9236H48.6291V55.8509H47.7458V49.9236H45.5049V49.1541H50.8701Z" fill="#1D4593"/>
<path d="M52.5385 49.1541V55.8509H51.6553V49.1541H52.5385Z" fill="#1D4593"/>
<path d="M58.6894 49.1541V49.9236H56.4485V55.8509H55.5652V49.9236H53.3242V49.1541H58.6894Z" fill="#1D4593"/>
<path d="M59.3916 49.1541H60.2912V53.3785C60.2912 54.0334 60.4384 54.5083 60.7165 54.803C60.9946 55.0977 61.4525 55.2614 62.0905 55.2614C62.7447 55.2614 63.2191 55.1141 63.4808 54.803C63.7588 54.4919 63.8897 54.017 63.8897 53.3785V49.1541H64.7893V53.1329C64.7893 54.1153 64.593 54.8357 64.1841 55.2942C63.7752 55.7527 63.0882 55.9819 62.1068 55.9819C61.1581 55.9819 60.4711 55.7527 60.0459 55.3106C59.6206 54.8685 59.408 54.1644 59.408 53.2311V49.1541H59.3916Z" fill="#1D4593"/>
<path d="M70.875 49.1541V49.9236H68.634V55.8509H67.7507V49.9236H65.5098V49.1541H70.875Z" fill="#1D4593"/>
<path d="M76.2561 49.1541V49.9236H72.5103V52.0195H76.0108V52.7563H72.5103V55.065H76.3052V55.8345H71.627V49.1541H76.2561Z" fill="#1D4593"/>
<path d="M82.7834 48.9902C83.7975 48.9902 84.5826 49.3013 85.1551 49.9399C85.7112 50.5785 86.0057 51.4135 86.0057 52.4287C86.0057 53.4603 85.7276 54.3117 85.1715 54.983C84.6153 55.6543 83.8302 55.9818 82.7997 55.9818C82.2763 55.9818 81.8183 55.8836 81.393 55.7034C80.9841 55.5233 80.6406 55.2614 80.3789 54.9175C80.1172 54.59 79.9209 54.2134 79.79 53.7877C79.6592 53.362 79.5938 52.9035 79.5938 52.4123C79.5938 51.3644 79.8882 50.5294 80.4607 49.9072C81.0495 49.3013 81.8183 48.9902 82.7834 48.9902ZM82.7834 49.7598C82.0309 49.7598 81.4748 50.0218 81.0659 50.5457C80.6733 51.0697 80.477 51.7083 80.477 52.4942C80.477 53.3293 80.6897 54.0006 81.1149 54.5082C81.5402 54.9994 82.0964 55.2614 82.8161 55.2614C83.5194 55.2614 84.0755 55.0158 84.5008 54.5082C84.9261 54.0006 85.1224 53.3456 85.1224 52.5106C85.1224 51.6755 84.9097 51.0206 84.4845 50.5294C84.0592 50.0054 83.5031 49.7598 82.7834 49.7598Z" fill="#1D4593"/>
<path d="M91.5173 49.1541V49.9236H88.0005V52.0031H91.092V52.7399H88.0005V55.8345H87.1172V49.1541H91.5173Z" fill="#1D4593"/>
<path d="M95.3279 46.7634H99.2209C100.088 46.7634 100.791 46.9763 101.298 47.4184C101.805 47.8605 102.067 48.4827 102.067 49.3177C102.067 50.1855 101.805 50.8405 101.282 51.2989C100.759 51.7574 100.055 51.9703 99.1719 51.9703H96.1785V55.8508H95.3115V46.7634H95.3279ZM96.1948 47.5002V51.2334H98.9429C99.6135 51.2334 100.153 51.0861 100.579 50.775C100.988 50.4803 101.2 50.0054 101.2 49.3668C101.2 48.7446 101.004 48.2698 100.628 47.9587C100.251 47.6476 99.7117 47.5002 99.041 47.5002H96.1948Z" fill="#1D4593"/>
<path d="M108.447 49.1541V55.8509H107.564V52.7071H104.031V55.8345H103.147V49.1541H104.031V51.954H107.564V49.1541H108.447Z" fill="#1D4593"/>
<path d="M115.268 49.1541L112.684 53.1165V55.8509H111.817V53.1001L109.216 49.1377H110.279L112.275 52.3306L114.254 49.1377H115.268V49.1541Z" fill="#1D4593"/>
<path d="M120.747 51.1188H119.897C119.799 50.2019 119.243 49.7598 118.228 49.7598C117.754 49.7598 117.378 49.858 117.116 50.0545C116.854 50.251 116.723 50.5293 116.723 50.8732C116.723 51.0042 116.74 51.1024 116.772 51.2006C116.805 51.2989 116.871 51.3808 116.969 51.4463C117.067 51.5117 117.149 51.5772 117.231 51.6264C117.312 51.6755 117.443 51.7246 117.623 51.7737C117.803 51.8228 117.934 51.8556 118.048 51.8883C118.163 51.9047 118.326 51.9538 118.539 52.003C118.817 52.0521 119.046 52.1176 119.226 52.1503C119.406 52.1994 119.619 52.2813 119.88 52.3796C120.126 52.4942 120.322 52.6088 120.469 52.7398C120.617 52.8708 120.747 53.0345 120.862 53.2474C120.976 53.4602 121.026 53.7058 121.026 53.9678C121.026 54.4426 120.895 54.8356 120.633 55.1467C120.371 55.4578 120.044 55.687 119.668 55.8017C119.292 55.9163 118.883 55.9818 118.425 55.9818C117.59 55.9818 116.92 55.7853 116.413 55.3923C115.906 54.9993 115.66 54.4099 115.66 53.624H116.511C116.527 54.197 116.723 54.6064 117.083 54.8684C117.443 55.1303 117.918 55.2613 118.506 55.2613C118.964 55.2613 119.357 55.1631 119.684 54.9666C120.011 54.7701 120.175 54.459 120.175 54.0333C120.175 53.8368 120.126 53.6567 120.044 53.5257C119.962 53.3783 119.815 53.2637 119.635 53.1819C119.455 53.0836 119.259 53.0181 119.079 52.969C118.899 52.9199 118.637 52.8544 118.343 52.7889C118.294 52.7889 118.261 52.7725 118.245 52.7725C117.558 52.6088 117.1 52.4942 116.887 52.3959C116.233 52.1176 115.906 51.6264 115.906 50.9387C115.906 50.3001 116.135 49.8253 116.609 49.4978C117.083 49.1867 117.656 49.0229 118.326 49.0229C119.063 49.0229 119.651 49.2031 120.077 49.5469C120.502 49.8908 120.715 50.4147 120.747 51.1188Z" fill="#1D4593"/>
<path d="M123.021 49.1541V55.8509H122.138V49.1541H123.021Z" fill="#1D4593"/>
<path d="M127.34 48.9902C128.354 48.9902 129.139 49.3013 129.712 49.9399C130.268 50.5785 130.563 51.4135 130.563 52.4287C130.563 53.4603 130.284 54.3117 129.728 54.983C129.172 55.6543 128.387 55.9818 127.356 55.9818C126.833 55.9818 126.375 55.8836 125.95 55.7034C125.541 55.5233 125.197 55.2614 124.936 54.9175C124.674 54.59 124.478 54.2134 124.347 53.7877C124.216 53.362 124.15 52.9035 124.15 52.4123C124.15 51.3644 124.445 50.5294 125.017 49.9072C125.606 49.3013 126.375 48.9902 127.34 48.9902ZM127.34 49.7598C126.588 49.7598 126.032 50.0218 125.623 50.5457C125.23 51.0697 125.034 51.7083 125.034 52.4942C125.034 53.3293 125.246 54.0006 125.672 54.5082C126.097 54.9994 126.653 55.2614 127.373 55.2614C128.076 55.2614 128.632 55.0158 129.058 54.5082C129.483 54.0006 129.679 53.3456 129.679 52.5106C129.679 51.6755 129.467 51.0206 129.041 50.5294C128.616 50.0054 128.06 49.7598 127.34 49.7598Z" fill="#1D4593"/>
<path d="M136.108 55.065V55.8345H131.675V49.1541H132.558V55.0813H136.108V55.065Z" fill="#1D4593"/>
<path d="M139.705 48.9902C140.72 48.9902 141.505 49.3013 142.077 49.9399C142.633 50.5785 142.928 51.4135 142.928 52.4287C142.928 53.4603 142.65 54.3117 142.094 54.983C141.537 55.6543 140.752 55.9818 139.722 55.9818C139.198 55.9818 138.74 55.8836 138.315 55.7034C137.906 55.5233 137.563 55.2614 137.301 54.9175C137.039 54.59 136.843 54.2134 136.712 53.7877C136.581 53.362 136.516 52.9035 136.516 52.4123C136.516 51.3644 136.81 50.5294 137.383 49.9072C137.955 49.3013 138.74 48.9902 139.705 48.9902ZM139.705 49.7598C138.953 49.7598 138.397 50.0218 137.988 50.5457C137.595 51.0697 137.399 51.7083 137.399 52.4942C137.399 53.3293 137.612 54.0006 138.037 54.5082C138.462 54.9994 139.018 55.2614 139.738 55.2614C140.442 55.2614 140.998 55.0158 141.423 54.5082C141.848 54.0006 142.045 53.3456 142.045 52.5106C142.045 51.6755 141.832 51.0206 141.407 50.5294C140.981 50.0054 140.409 49.7598 139.705 49.7598Z" fill="#1D4593"/>
<path d="M149.83 52.2977V55.8344H149.274L149.045 54.9993C148.505 55.6707 147.786 55.9981 146.886 55.9981C145.937 55.9981 145.168 55.687 144.58 55.0485C143.991 54.4099 143.696 53.5748 143.696 52.5597C143.696 51.5445 143.991 50.6931 144.563 50.0217C145.136 49.3504 145.937 49.0229 146.951 49.0229C147.409 49.0229 147.851 49.1048 148.244 49.2686C148.652 49.4323 148.98 49.6779 149.274 50.0217C149.552 50.3656 149.716 50.7586 149.748 51.2334H148.881C148.816 50.7913 148.603 50.4475 148.244 50.1691C147.884 49.9071 147.458 49.7761 146.935 49.7761C146.215 49.7761 145.626 50.0217 145.201 50.5293C144.776 51.0205 144.563 51.7082 144.563 52.5597C144.563 53.3947 144.776 54.066 145.201 54.5573C145.626 55.0485 146.199 55.2941 146.919 55.2941C147.589 55.2941 148.113 55.0812 148.456 54.6719C148.816 54.2625 148.996 53.7222 149.012 53.0345H146.87V52.3141H149.83V52.2977Z" fill="#1D4593"/>
<path d="M156.505 49.1541L153.92 53.1165V55.8509H153.053V53.1001L150.452 49.1377H151.515L153.511 52.3306L155.49 49.1541H156.505Z" fill="#1D4593"/>
<path d="M17.6313 64.4634L20.2485 71.1602H19.2671L18.531 69.1135H15.7012L14.9324 71.1602H14L16.6335 64.4634H17.6313ZM18.2529 68.4094L17.1079 65.3148L15.9465 68.4094H18.2529Z" fill="#1D4593"/>
<path d="M20.8701 64.4634H21.8352L25.3682 69.8994V64.4634H26.2187V71.1602H25.221L21.7043 65.7896V71.1602H20.8701V64.4634Z" fill="#1D4593"/>
<path d="M27.6904 64.4634H29.866C30.9946 64.4634 31.8289 64.7254 32.3687 65.2493C32.9085 65.7733 33.1702 66.6083 33.1702 67.7545C33.1702 68.8843 32.9248 69.7193 32.4177 70.2924C31.9107 70.8655 31.1091 71.1602 30.0132 71.1602H27.6904V64.4634ZM28.5737 65.2166V70.3907H29.915C30.7493 70.3907 31.3709 70.1778 31.7471 69.7685C32.1233 69.3591 32.3196 68.7205 32.3196 67.8527C32.3196 66.9358 32.1397 66.2645 31.7634 65.8551C31.3872 65.4294 30.7656 65.2329 29.8823 65.2329H28.5737V65.2166Z" fill="#1D4593"/>
<path d="M37.1296 62.0728H41.0227C41.8897 62.0728 42.5931 62.2856 43.1002 62.7277C43.6072 63.1698 43.869 63.792 43.869 64.627C43.869 65.4949 43.6072 66.1498 43.0838 66.6083C42.5604 67.0667 41.857 67.2796 40.9737 67.2796H37.9802V71.1601H37.1133V62.0728H37.1296ZM37.9966 62.8096V66.5428H40.7447C41.4153 66.5428 41.9551 66.3954 42.3804 66.0843C42.7894 65.7896 43.002 65.3147 43.002 64.6762C43.002 64.054 42.8057 63.5791 42.4295 63.268C42.0533 62.9569 41.5135 62.8096 40.8428 62.8096H37.9966Z" fill="#1D4593"/>
<path d="M47.7458 64.4634L50.363 71.1602H49.3815L48.6455 69.1135H45.832L45.0632 71.1602H44.1309L46.7644 64.4634H47.7458ZM48.3674 68.4094L47.2387 65.3148L46.0774 68.4094H48.3674Z" fill="#1D4593"/>
<path d="M55.662 64.4634V65.2329H53.4211V71.1602H52.5378V65.2329H50.2969V64.4634H55.662Z" fill="#1D4593"/>
<path d="M61.7146 64.4634V71.1602H60.8314V68.0328H57.2983V71.1602H56.415V64.4634H57.2983V67.2633H60.8314V64.4634H61.7146Z" fill="#1D4593"/>
<path d="M66.0168 64.2996C67.031 64.2996 67.8161 64.6107 68.3887 65.2492C68.9448 65.8878 69.2392 66.7229 69.2392 67.738C69.2392 68.7696 68.9612 69.621 68.405 70.2923C67.8489 70.9637 67.0637 71.2911 66.0332 71.2911C65.5098 71.2911 65.0518 71.1929 64.6265 71.0128C64.2175 70.8327 63.874 70.5707 63.6123 70.2268C63.3506 69.8994 63.1543 69.5228 63.0234 69.0971C62.8926 68.6713 62.8271 68.2129 62.8271 67.7217C62.8271 66.6737 63.1216 65.8387 63.6941 65.2165C64.2666 64.6107 65.0518 64.2996 66.0168 64.2996ZM66.0168 65.0691C65.2644 65.0691 64.7082 65.3311 64.2993 65.8551C63.9067 66.379 63.7104 67.0176 63.7104 67.8035C63.7104 68.6386 63.9231 69.3099 64.3484 69.8175C64.7737 70.3087 65.3298 70.5707 66.0496 70.5707C66.7529 70.5707 67.3091 70.3251 67.7344 69.8175C68.1597 69.3099 68.3559 68.655 68.3559 67.8199C68.3559 66.9848 68.1433 66.3299 67.718 65.8387C67.2927 65.3147 66.7202 65.0691 66.0168 65.0691Z" fill="#1D4593"/>
<path d="M74.7834 70.3907V71.1602H70.3506V64.4634H71.2339V70.3907H74.7834Z" fill="#1D4593"/>
<path d="M78.383 64.2996C79.3971 64.2996 80.1823 64.6107 80.7548 65.2492C81.3109 65.8878 81.6053 66.7229 81.6053 67.738C81.6053 68.7696 81.3273 69.621 80.7711 70.2923C80.215 70.9637 79.4298 71.2911 78.3993 71.2911C77.8759 71.2911 77.4179 71.1929 76.9926 71.0128C76.5837 70.8327 76.2402 70.5707 75.9785 70.2268C75.7168 69.8994 75.5205 69.5228 75.3896 69.0971C75.2588 68.6713 75.1934 68.2129 75.1934 67.7217C75.1934 66.6737 75.4878 65.8387 76.0603 65.2165C76.6328 64.6107 77.4016 64.2996 78.383 64.2996ZM78.383 65.0691C77.6306 65.0691 77.0744 65.3311 76.6655 65.8551C76.2566 66.379 76.0766 67.0176 76.0766 67.8035C76.0766 68.6386 76.2893 69.3099 76.7146 69.8175C77.1399 70.3087 77.696 70.5707 78.4157 70.5707C79.1191 70.5707 79.6752 70.3251 80.1005 69.8175C80.5258 69.3099 80.7221 68.655 80.7221 67.8199C80.7221 66.9848 80.5094 66.3299 80.0841 65.8387C79.6588 65.3147 79.0863 65.0691 78.383 65.0691Z" fill="#1D4593"/>
<path d="M88.5079 67.6073V71.144H87.9354L87.7064 70.3089C87.1666 70.9802 86.4468 71.3077 85.5472 71.3077C84.5984 71.3077 83.8296 70.9966 83.2407 70.358C82.6519 69.7195 82.3574 68.8844 82.3574 67.8692C82.3574 66.8541 82.6519 66.0026 83.2244 65.3313C83.7969 64.66 84.5984 64.3325 85.6126 64.3325C86.0706 64.3325 86.5123 64.4144 86.9049 64.5781C87.3138 64.7419 87.6409 64.9875 87.9354 65.3313C88.2135 65.6752 88.377 66.0681 88.4098 66.543H87.5428C87.4774 66.1009 87.2647 65.757 86.9049 65.4787C86.545 65.2167 86.1197 65.0857 85.5962 65.0857C84.8765 65.0857 84.2876 65.3313 83.8623 65.8389C83.437 66.3301 83.2244 67.0178 83.2244 67.8692C83.2244 68.7043 83.437 69.3756 83.8623 69.8668C84.2876 70.358 84.8601 70.6036 85.5799 70.6036C86.2505 70.6036 86.774 70.3908 87.1175 69.9814C87.461 69.5721 87.6573 69.0318 87.6737 68.3441H85.5308V67.6236H88.5079V67.6073Z" fill="#1D4593"/>
<path d="M95.1655 64.4634L92.581 68.4258V71.1602H91.7141V68.4258L89.1133 64.4634H90.1765L92.1721 67.6562L94.1513 64.4634H95.1655Z" fill="#1D4593"/>
<path d="M101.348 64.2996C102.362 64.2996 103.147 64.6107 103.72 65.2492C104.276 65.8878 104.57 66.7229 104.57 67.738C104.57 68.7696 104.292 69.621 103.736 70.2923C103.18 70.9637 102.395 71.2911 101.364 71.2911C100.841 71.2911 100.383 71.1929 99.9575 71.0128C99.5322 70.8327 99.2051 70.5707 98.9433 70.2268C98.6816 69.8994 98.4853 69.5228 98.3545 69.0971C98.2236 68.6713 98.1582 68.2129 98.1582 67.7217C98.1582 66.6737 98.4526 65.8387 99.0251 65.2165C99.5976 64.6107 100.366 64.2996 101.348 64.2996ZM101.348 65.0691C100.595 65.0691 100.039 65.3311 99.6303 65.8551C99.2214 66.379 99.0415 67.0176 99.0415 67.8035C99.0415 68.6386 99.2541 69.3099 99.6794 69.8175C100.105 70.3087 100.661 70.5707 101.381 70.5707C102.084 70.5707 102.64 70.3251 103.065 69.8175C103.491 69.3099 103.687 68.655 103.687 67.8199C103.687 66.9848 103.474 66.3299 103.049 65.8387C102.624 65.3147 102.051 65.0691 101.348 65.0691Z" fill="#1D4593"/>
<path d="M110.066 64.4634V65.233H106.549V67.3124H109.641V68.0492H106.549V71.1439H105.666V64.447H110.066V64.4634Z" fill="#1D4593"/>
<path d="M120.977 62.0728V71.1601H120.127V66.772H114.696V71.1601H113.829V62.0728H114.696V66.0352H120.127V62.0728H120.977Z" fill="#1D4593"/>
<path d="M127.274 64.4634V65.233H123.528V67.3288H127.028V68.0656H123.528V70.3743H127.323V71.1439H122.645V64.447H127.274V64.4634Z" fill="#1D4593"/>
<path d="M131.183 64.4634L133.8 71.1602H132.819L132.083 69.1135H129.27L128.501 71.1602H127.568L130.202 64.4634H131.183ZM131.805 68.4094L130.676 65.3148L129.515 68.4094H131.805Z" fill="#1D4593"/>
<path d="M134.472 64.4634H137.417C138.905 64.4634 139.658 65.0856 139.658 66.3136C139.658 66.7066 139.559 67.0504 139.347 67.3452C139.134 67.6399 138.856 67.8364 138.513 67.9346C138.742 67.9837 138.922 68.0492 139.052 68.1475C139.183 68.2457 139.298 68.3767 139.347 68.5404C139.412 68.7042 139.445 68.8679 139.461 68.9989C139.478 69.1299 139.494 69.3264 139.51 69.5883C139.51 69.6211 139.51 69.6702 139.527 69.7685C139.527 69.8667 139.543 69.9322 139.543 69.9649C139.543 69.9977 139.543 70.0632 139.559 70.1451C139.576 70.2269 139.576 70.2924 139.576 70.3415C139.576 70.3907 139.592 70.4398 139.609 70.5217C139.625 70.6035 139.641 70.6526 139.658 70.7018C139.674 70.7509 139.69 70.8 139.723 70.8655C139.756 70.931 139.772 70.9801 139.805 71.0292C139.838 71.0784 139.87 71.1111 139.903 71.1602H138.889C138.84 71.0947 138.807 71.0129 138.774 70.931C138.742 70.8328 138.725 70.7181 138.709 70.6035C138.693 70.4725 138.693 70.3743 138.676 70.2924C138.676 70.2106 138.66 70.0959 138.66 69.9486C138.66 69.8012 138.643 69.7193 138.643 69.6866C138.611 69.1135 138.496 68.7369 138.284 68.5568C138.087 68.3767 137.678 68.2785 137.073 68.2785H135.323V71.1766H134.439V64.4634H134.472ZM135.356 65.2166V67.558H137.008C137.22 67.558 137.384 67.558 137.531 67.5416C137.678 67.5253 137.826 67.5089 137.989 67.4598C138.153 67.4106 138.3 67.3615 138.398 67.2797C138.496 67.1978 138.594 67.0832 138.66 66.9358C138.725 66.7884 138.758 66.6083 138.758 66.3955C138.758 65.937 138.627 65.6423 138.349 65.4785C138.071 65.3148 137.711 65.2329 137.237 65.2329H135.356V65.2166Z" fill="#1D4593"/>
<path d="M141.815 64.4634V71.1602H140.932V64.4634H141.815Z" fill="#1D4593"/>
<path d="M143.288 64.4634H144.253L147.786 69.8994V64.4634H148.637V71.1602H147.639L144.139 65.7896V71.1602H143.288V64.4634Z" fill="#1D4593"/>
<path d="M155.916 67.6073V71.144H155.36L155.131 70.3089C154.591 70.9802 153.871 71.3077 152.972 71.3077C152.023 71.3077 151.254 70.9966 150.665 70.358C150.077 69.7195 149.782 68.8844 149.782 67.8692C149.782 66.8541 150.077 66.0026 150.649 65.3313C151.222 64.66 152.023 64.3325 153.037 64.3325C153.495 64.3325 153.937 64.4144 154.329 64.5781C154.738 64.7419 155.065 64.9875 155.36 65.3313C155.638 65.6752 155.801 66.0681 155.834 66.543H154.967C154.902 66.1009 154.689 65.757 154.329 65.4787C153.97 65.2167 153.544 65.0857 153.021 65.0857C152.301 65.0857 151.712 65.3313 151.287 65.8389C150.862 66.3465 150.649 67.0178 150.649 67.8692C150.649 68.7043 150.862 69.3756 151.287 69.8668C151.712 70.358 152.285 70.6036 153.004 70.6036C153.675 70.6036 154.199 70.3908 154.542 69.9814C154.886 69.5721 155.082 69.0318 155.098 68.3441H152.955V67.6236H155.916V67.6073Z" fill="#1D4593"/>
</svg>
