<svg width="224" height="120" viewBox="0 0 224 120" fill="none" xmlns="http://www.w3.org/2000/svg">
<path d="M2 38.772V81.2281H44.4096V38.772H2ZM12.241 78.5746H7.90365V56.261L12.241 54.8137V78.5746ZM25.494 67.4781C25.0121 67.4781 24.6506 67.4781 24.5301 67.4781C23.3253 67.4781 22.3615 67.84 21.6386 68.5637C20.9157 69.2873 20.5543 70.2523 20.5543 71.6996V78.6953H16.2169V63.7391H20.3132V65.6689C20.7951 64.9452 21.5181 64.4628 22.3615 64.1009C23.2049 63.7391 24.2892 63.4979 25.3735 63.4979V67.4781H25.494ZM40.3133 78.5746H26.3373L33.3253 66.9957H27.3012V63.7391H40.0723L32.6025 75.3181H40.3133V78.5746Z" fill="#6CACDE"/>
<path d="M53.2051 57.467H53.6871C54.41 57.467 54.6509 57.7083 54.6509 58.432V66.5131C54.6509 66.7543 54.7714 66.8749 55.0124 66.8749H58.0246C58.2656 66.8749 58.3862 66.7543 58.3862 66.5131V65.7894H59.7115V67.1162C59.7115 67.8398 59.4705 68.0811 58.7475 68.0811H54.169C53.4461 68.0811 53.2051 67.8398 53.2051 67.1162V57.467Z" fill="black"/>
<path d="M61.5177 61.4473C62.2406 60.7237 63.2043 60.3618 64.2887 60.3618C65.373 60.3618 66.0959 60.7237 66.6983 61.3267C67.3007 62.0504 67.5418 62.8947 67.5418 63.8596V64.4627H61.9996C61.9996 65.307 62.361 65.9101 62.8429 66.3925C63.3249 66.875 63.9273 67.1162 64.6502 67.1162C65.4936 67.1162 66.2164 66.7544 66.5779 66.3925L66.8189 66.1513L67.4213 67.2368L67.0598 67.5987C66.9393 67.7193 66.5778 67.8399 66.0959 68.0811C65.614 68.3223 65.0117 68.443 64.5297 68.443C63.3249 68.443 62.361 68.0811 61.6381 67.3574C60.9152 66.6337 60.5537 65.6688 60.5537 64.4627C60.3128 63.1359 60.6743 62.171 61.5177 61.4473ZM65.9755 63.4978C65.9755 62.2916 65.1321 61.568 64.1682 61.568C62.9634 61.568 62.12 62.2916 61.879 63.4978H65.9755Z" fill="black"/>
<path d="M69.5906 62.0504C69.5906 61.8091 69.4702 61.6885 69.2293 61.6885H68.627V60.4824H70.0725C70.7953 60.4824 71.0363 60.7236 71.0363 61.4473V68.2017H70.5544C69.8316 68.2017 69.5906 67.9605 69.5906 67.2368V62.0504ZM69.5906 59.035V57.467H70.9158V59.035H69.5906Z" fill="black"/>
<path d="M92.2413 62.0504C92.2413 61.8091 92.1207 61.6885 91.8798 61.6885H91.2773V60.4824H92.7232C93.4461 60.4824 93.687 60.7236 93.687 61.4473V68.2017H93.205C92.4821 68.2017 92.2413 67.9605 92.2413 67.2368V62.0504ZM92.2413 59.035V57.467H93.5666V59.035H92.2413Z" fill="black"/>
<path d="M73.5665 68.2017V59.035C73.5665 58.7938 73.4459 58.6732 73.205 58.6732H72.6025V57.467H74.0484C74.7713 57.467 75.0122 57.7083 75.0122 58.432V60.9648V61.5679C75.0122 61.4473 75.1328 61.4473 75.3737 61.0855C75.7352 60.7236 76.458 60.2412 77.5423 60.2412C78.5062 60.2412 79.3496 60.603 79.952 61.3267C80.5544 62.0504 80.9159 63.0153 80.9159 64.2214C80.9159 65.4276 80.5544 66.3925 79.952 67.1162C79.3496 67.8399 78.5062 68.2017 77.4219 68.2017C76.0966 68.2017 75.2532 67.3574 75.1327 66.9956L75.0122 66.8749C75.0122 66.9956 75.0122 67.2368 75.0122 67.478V68.2017H73.5665ZM75.6146 66.2719C75.9761 66.7543 76.5786 67.1162 77.181 67.1162C77.7834 67.1162 78.3857 66.8749 78.7472 66.3925C79.2291 65.91 79.3496 65.1863 79.3496 64.342C79.3496 62.6534 78.5063 61.5679 77.181 61.5679C75.9761 61.5679 75.0122 62.5328 75.0122 64.342C75.0122 65.0657 75.2532 65.7894 75.6146 66.2719Z" fill="black"/>
<path d="M82.7237 68.2017V62.171C82.7237 61.9298 82.6031 61.8092 82.3622 61.8092H81.7598V60.603H83.2056C83.808 60.603 84.1694 60.8443 84.1694 61.4473V61.6886V62.171C84.4103 61.6886 84.7718 61.3267 85.2537 60.9649C85.7356 60.603 86.338 60.3618 87.0609 60.3618C88.8681 60.3618 89.7116 61.3267 89.7116 63.2566V66.6338C89.7116 66.875 89.8319 66.9956 90.0729 66.9956H90.6753V68.2017H89.2296C88.5067 68.2017 88.2657 67.9605 88.2657 67.2368V63.6184C88.2657 62.4123 87.9043 61.6886 86.82 61.6886C85.6152 61.6886 84.6514 62.4123 84.4104 63.6184C84.2899 63.8596 84.29 64.2215 84.29 64.7039V68.3223H82.7237V68.2017Z" fill="black"/>
<path d="M95.6152 68.2017V67.3574L99.5913 62.5329L100.194 61.8092C100.073 61.8092 99.8323 61.8092 99.4708 61.8092H97.4225C97.1815 61.8092 97.0611 61.9298 97.0611 62.171V62.6535H95.7358V61.5679C95.7358 60.8443 95.9767 60.603 96.6996 60.603H102.242V61.4473L98.266 66.2719L97.6636 66.9956C97.784 66.9956 98.025 66.9956 98.3864 66.9956H100.796C101.037 66.9956 101.158 66.875 101.158 66.6337V66.1513H102.483V67.2368C102.483 67.9605 102.242 68.2017 101.519 68.2017H95.6152Z" fill="black"/>
<path d="M103.808 64.4628V63.136H108.265V64.4628H103.808Z" fill="black"/>
<path d="M110.796 68.2017V57.467H114.531C115.494 57.467 116.217 57.7083 116.82 58.3113C117.422 58.9144 117.663 59.6381 117.663 60.603C117.663 61.4473 117.422 62.0504 117.061 62.5328C116.699 63.0153 116.217 63.2565 115.735 63.3771C115.976 63.4977 116.097 63.6184 116.217 63.8596L117.542 66.3925C117.663 66.6337 117.904 66.7543 118.265 66.7543H118.506V68.2017H117.783C117.301 68.2017 117.061 68.2017 116.82 68.0811C116.579 67.9605 116.458 67.7192 116.217 67.478L114.771 64.5833C114.531 64.1008 114.29 63.9802 113.687 63.9802H112.242V68.2017H110.796ZM112.362 62.6534H114.29C115.494 62.6534 116.097 61.9298 116.097 60.7236C116.097 59.5175 115.374 58.7938 114.29 58.7938H112.242V62.6534H112.362Z" fill="black"/>
<path d="M120.314 61.4473C121.037 60.7237 122.001 60.3618 123.085 60.3618C124.169 60.3618 124.892 60.7237 125.494 61.3267C126.097 62.0504 126.338 62.8947 126.338 63.8596V64.4627H120.796C120.796 65.307 121.157 65.9101 121.639 66.3925C122.121 66.875 122.723 67.1162 123.446 67.1162C124.29 67.1162 125.013 66.7544 125.374 66.3925L125.615 66.1513L126.217 67.2368L125.856 67.5987C125.736 67.7193 125.374 67.8399 124.892 68.0811C124.41 68.3223 123.808 68.443 123.326 68.443C122.121 68.443 121.157 68.0811 120.434 67.3574C119.711 66.6337 119.35 65.6688 119.35 64.4627C119.23 63.1359 119.591 62.171 120.314 61.4473ZM124.892 63.4978C124.892 62.2916 124.049 61.568 123.085 61.568C121.88 61.568 121.037 62.2916 120.796 63.4978H124.892Z" fill="black"/>
<path d="M128.748 61.4474C129.471 60.7237 130.555 60.2412 131.76 60.2412C132.724 60.2412 134.531 60.6031 134.531 61.9298V62.7741H133.206V62.2917C133.206 62.0504 133.085 61.8092 132.724 61.6886C132.362 61.568 132.121 61.4474 131.76 61.4474C131.037 61.4474 130.435 61.6886 129.832 62.171C129.35 62.6535 129.109 63.3772 129.109 64.1009C129.109 64.9452 129.35 65.5482 129.953 66.1513C130.435 66.6338 131.158 66.875 131.88 66.875C132.362 66.875 132.724 66.7544 133.085 66.6338C133.447 66.3925 133.808 66.2719 133.929 66.1513L134.169 65.9101L134.772 66.9956C134.651 67.1162 134.651 67.1162 134.29 67.4781C133.808 67.8399 132.965 68.3224 131.639 68.3224C130.435 68.3224 129.471 67.9605 128.627 67.2368C127.904 66.5131 127.543 65.5482 127.543 64.3421C127.543 63.2566 127.904 62.2917 128.748 61.4474Z" fill="black"/>
<path d="M136.338 68.2017V59.035C136.338 58.7938 136.217 58.6732 135.976 58.6732H135.374V57.467H136.82C137.543 57.467 137.784 57.7083 137.784 58.432V61.4473V62.0504C138.025 61.5679 138.386 61.2061 138.868 60.8442C139.35 60.4824 139.952 60.3618 140.675 60.3618C142.362 60.3618 143.326 61.3267 143.326 63.2565V66.6337C143.326 66.8749 143.446 66.9956 143.687 66.9956H144.29V68.2017H142.844C142.121 68.2017 141.88 67.9605 141.88 67.2368V63.6184C141.88 62.4122 141.519 61.6885 140.434 61.6885C139.23 61.6885 138.386 62.4122 138.025 63.6184C137.904 63.8596 137.904 64.2214 137.904 64.5833V68.2017H136.338Z" fill="black"/>
<path d="M146.217 61.4473C146.94 60.7237 147.904 60.3618 148.988 60.3618C150.072 60.3618 150.795 60.7237 151.398 61.3267C152 62.0504 152.241 62.8947 152.241 63.8596V64.4627H146.699C146.699 65.307 147.06 65.9101 147.542 66.3925C148.024 66.875 148.627 67.1162 149.35 67.1162C150.193 67.1162 150.916 66.7544 151.277 66.3925L151.518 66.1513L152.121 67.2368L151.759 67.5987C151.639 67.7193 151.277 67.8399 150.795 68.0811C150.313 68.3223 149.711 68.443 149.229 68.443C148.024 68.443 147.06 68.0811 146.337 67.3574C145.615 66.6337 145.253 65.6688 145.253 64.4627C145.012 63.1359 145.494 62.171 146.217 61.4473ZM150.675 63.4978C150.675 62.2916 149.831 61.568 148.868 61.568C147.663 61.568 146.819 62.2916 146.578 63.4978H150.675Z" fill="black"/>
<path d="M154.169 68.2017V62.171C154.169 61.9298 154.048 61.8092 153.807 61.8092H153.205V60.603H154.651C155.253 60.603 155.615 60.8443 155.615 61.4473V61.6886V62.171C155.856 61.6886 156.217 61.3267 156.699 60.9649C157.181 60.603 157.783 60.3618 158.506 60.3618C160.314 60.3618 161.157 61.3267 161.157 63.2566V66.6338C161.157 66.875 161.278 66.9956 161.518 66.9956H162.121V68.2017H160.675C159.952 68.2017 159.711 67.9605 159.711 67.2368V63.6184C159.711 62.4123 159.35 61.6886 158.265 61.6886C157.06 61.6886 156.097 62.4123 155.856 63.6184C155.735 63.8596 155.735 64.2215 155.735 64.7039V68.3223H154.169V68.2017Z" fill="black"/>
<path d="M162.844 68.2017V67.3574L166.82 62.5329L167.422 61.8092C167.302 61.8092 167.061 61.8092 166.699 61.8092H164.651C164.41 61.8092 164.29 61.9298 164.29 62.171V62.6535H162.964V61.5679C162.964 60.8443 163.205 60.603 163.928 60.603H169.47V61.4473L165.494 66.2719L164.892 66.9956C165.012 66.9956 165.254 66.9956 165.615 66.9956H168.025C168.266 66.9956 168.386 66.875 168.386 66.6337V66.1513H169.711V67.2368C169.711 67.9605 169.47 68.2017 168.748 68.2017H162.844Z" fill="black"/>
<path d="M171.639 61.4473C172.362 60.7237 173.326 60.3618 174.41 60.3618C175.494 60.3618 176.217 60.7237 176.82 61.3267C177.422 62.0504 177.663 62.8947 177.663 63.8596V64.4627H172.121C172.121 65.307 172.482 65.9101 172.964 66.3925C173.446 66.875 174.049 67.1162 174.772 67.1162C175.615 67.1162 176.338 66.7544 176.699 66.3925L176.94 66.1513L177.543 67.2368L177.181 67.5987C177.061 67.7193 176.699 67.8399 176.217 68.0811C175.735 68.3223 175.133 68.443 174.651 68.443C173.446 68.443 172.482 68.0811 171.76 67.3574C171.037 66.6337 170.675 65.6688 170.675 64.4627C170.555 63.1359 170.916 62.171 171.639 61.4473ZM176.217 63.4978C176.217 62.2916 175.374 61.568 174.41 61.568C173.205 61.568 172.362 62.2916 172.121 63.4978H176.217Z" fill="black"/>
<path d="M179.711 68.2017V62.171C179.711 61.9298 179.59 61.8092 179.349 61.8092H178.747V60.603H180.193C180.795 60.603 181.157 60.8443 181.157 61.4473V61.6886V62.171C181.398 61.6886 181.759 61.3267 182.241 60.9649C182.723 60.603 183.325 60.3618 184.048 60.3618C185.856 60.3618 186.699 61.3267 186.699 63.2566V66.6338C186.699 66.875 186.82 66.9956 187.06 66.9956H187.663V68.2017H186.217C185.494 68.2017 185.253 67.9605 185.253 67.2368V63.6184C185.253 62.4123 184.892 61.6886 183.807 61.6886C182.603 61.6886 181.639 62.4123 181.398 63.6184C181.277 63.8596 181.277 64.2215 181.277 64.7039V68.3223H179.711V68.2017Z" fill="black"/>
<path d="M189.229 61.6887H188.265V60.4826H189.349V58.4321H190.795V60.4826H192.602V61.6887H190.795V65.1865C190.795 66.7545 191.879 66.8751 192.361 66.8751H192.723V68.2019C192.602 68.2019 192.361 68.2019 192.241 68.2019C191.759 68.2019 191.397 68.2019 190.795 67.9607C190.072 67.5988 189.349 66.8751 189.349 65.3071V61.6887H189.229Z" fill="black"/>
<path d="M194.53 68.2017V62.171C194.53 61.9298 194.41 61.8092 194.169 61.8092H193.566V60.603H195.012C195.615 60.603 195.976 60.9649 195.976 61.4473V61.9298V62.4123C196.337 61.2061 197.301 60.3618 198.386 60.3618H198.747V61.8092C198.627 61.8092 198.506 61.8092 198.265 61.8092C197.301 61.8092 196.458 62.5329 196.096 63.6184C195.976 63.9802 195.856 64.4627 195.856 64.9452V68.2017H194.53Z" fill="black"/>
<path d="M200.312 62.0504C200.312 61.8092 200.192 61.6886 199.951 61.6886H199.349V60.4824H200.794C201.517 60.4824 201.758 60.7236 201.758 61.4473V65.0658C201.758 66.2719 202.12 66.9956 203.204 66.9956C203.927 66.9956 204.529 66.7543 205.011 66.1513C205.493 65.5482 205.734 64.9451 205.734 64.1008V60.4824H207.18V66.5131C207.18 66.7543 207.3 66.875 207.541 66.875H208.144V68.0811H206.698C206.096 68.0811 205.734 67.8399 205.734 67.2368V66.9956V66.5131C205.493 66.9956 205.132 67.3574 204.65 67.7193C204.168 68.0811 203.565 68.3223 202.842 68.3223C201.156 68.3223 200.192 67.3574 200.192 65.4276V62.0504H200.312Z" fill="black"/>
<path d="M209.831 68.2017V62.171C209.831 61.9298 209.711 61.8092 209.47 61.8092H208.867V60.603H210.313C210.915 60.603 211.277 60.8443 211.277 61.4473V61.6886V62.171C211.518 61.6886 211.759 61.3267 212.241 60.9649C212.723 60.603 213.325 60.4824 213.807 60.4824C215.132 60.4824 215.855 61.0855 216.096 62.171C216.337 61.6886 216.698 61.3267 217.18 60.9649C217.662 60.603 218.265 60.4824 218.867 60.4824C220.554 60.4824 221.397 61.4473 221.397 63.3772V68.2017H220.915C220.192 68.2017 219.952 67.9605 219.952 67.2368V63.6184C219.952 62.4122 219.59 61.6886 218.626 61.6886C217.662 61.6886 216.819 62.5329 216.458 63.6184C216.337 63.9802 216.337 64.3421 216.337 64.7039V68.2017H214.891V63.6184C214.891 62.4122 214.65 61.6886 213.566 61.6886C212.482 61.6886 211.638 62.5329 211.397 63.739C211.277 63.9802 211.277 64.3421 211.277 64.7039V68.2017H209.831Z" fill="black"/>
<path d="M52.3628 75.0768C52.7242 74.715 53.0856 74.4737 53.6879 74.4737C54.4108 74.4737 54.7722 74.8356 54.8926 75.0768V75.1974C54.8926 75.0768 54.8926 75.0768 54.8926 74.9562V73.9913C54.8926 73.8707 54.8927 73.8707 54.7722 73.8707H54.4107V73.0264H55.1335C55.4949 73.0264 55.6154 73.147 55.6154 73.5088V77.7303C55.6154 77.8509 55.6154 77.8509 55.7359 77.8509H56.0974V78.454H55.3746C55.0131 78.454 54.8926 78.3334 54.8926 77.9715V77.7303C54.8926 77.7303 54.8927 77.8509 54.7722 77.9715C54.5313 78.2128 54.2903 78.454 53.6879 78.454C53.206 78.454 52.7242 78.2128 52.3628 77.8509C52.0014 77.4891 51.8809 77.0066 51.8809 76.4036C51.8809 75.9211 52.0014 75.4386 52.3628 75.0768ZM54.8926 76.5242C54.8926 76.1623 54.7721 75.8005 54.6516 75.5593C54.4107 75.318 54.1698 75.0768 53.8084 75.0768C53.206 75.0768 52.7241 75.6799 52.7241 76.5242C52.7241 77.3685 53.206 77.9715 53.8084 77.9715C54.4107 77.9715 54.8926 77.4891 54.8926 76.5242Z" fill="black"/>
<path d="M57.1815 75.0769C57.5429 74.7151 58.0248 74.4739 58.6272 74.4739C59.1091 74.4739 59.591 74.5945 59.8319 74.9563C60.1934 75.3182 60.3139 75.8006 60.3139 76.2831V76.6449H57.4224C57.4224 77.0068 57.5429 77.3686 57.9043 77.6098C58.1453 77.8511 58.5066 77.9717 58.8681 77.9717C59.2295 77.9717 59.7115 77.7305 59.8319 77.6098L59.9524 77.4892L60.3139 77.9717L60.0728 78.0923C59.9524 78.2129 59.832 78.2129 59.5911 78.3335C59.3501 78.4541 59.1091 78.4541 58.7476 78.4541C58.1452 78.4541 57.6634 78.2129 57.1815 77.8511C56.8201 77.4892 56.5791 77.0068 56.5791 76.4037C56.5791 75.9212 56.8201 75.4388 57.1815 75.0769ZM59.4705 76.0419C59.4705 75.4388 58.9886 75.0769 58.5067 75.0769C57.9043 75.0769 57.4224 75.4388 57.3019 76.0419H59.4705Z" fill="black"/>
<path d="M61.2777 78.5748V75.4388C61.2777 75.3182 61.2778 75.3182 61.1573 75.3182H60.7959V74.7151H61.5188C61.8803 74.7151 62.0008 74.8357 62.0008 75.1976V75.4388V75.68C62.2417 75.0769 62.7237 74.5945 63.2056 74.5945H63.4466V75.3182C63.3261 75.3182 63.3261 75.3182 63.2056 75.3182C62.7237 75.3182 62.2417 75.68 62.1212 76.2831C62.0007 76.5243 62.0008 76.7655 62.0008 77.0068V78.5748H61.2777Z" fill="black"/>
<path d="M66.5786 73.6292H66.0967V73.0261H68.5063C69.4702 73.0261 70.0727 73.5086 70.0727 74.4735C70.0727 75.0766 69.8318 75.4384 69.3498 75.6796C69.9522 75.8003 70.3136 76.4033 70.3136 77.0064C70.3136 77.4889 70.1932 77.8507 69.8318 78.2125C69.4703 78.4538 69.1088 78.5744 68.5063 78.5744H67.0606C66.6992 78.5744 66.5786 78.4538 66.5786 78.0919V73.6292ZM67.4221 75.3178H68.5063C68.9883 75.3178 69.3498 74.956 69.3498 74.4735C69.3498 73.991 68.9883 73.6292 68.5063 73.6292H67.4221V75.3178ZM67.4221 77.7301C67.4221 77.8507 67.4221 77.8507 67.5426 77.8507H68.5063C69.1088 77.8507 69.4703 77.4889 69.4703 76.8858C69.4703 76.2827 69.1088 75.9209 68.5063 75.9209H67.3015V77.7301H67.4221Z" fill="black"/>
<path d="M71.8806 76.2831C72.001 76.1625 72.242 76.1625 72.3625 76.1625C72.7239 76.0419 72.9648 76.0419 73.3262 76.0419H73.4468C73.4468 75.3182 73.2058 75.0769 72.6034 75.0769C72.4829 75.0769 72.3624 75.0769 72.1215 75.1976C72.001 75.1976 71.8806 75.3182 71.8806 75.4388V75.68H71.1577V75.3182C71.1577 74.9563 71.3987 74.8357 71.7601 74.7151C72.1215 74.5945 72.3624 74.5945 72.6034 74.5945C73.8082 74.5945 74.2901 75.1976 74.2901 76.1625V77.8511C74.2901 77.9717 74.2901 77.9717 74.4105 77.9717H74.772V78.5748H74.0492C73.6878 78.5748 73.5673 78.4542 73.5673 78.0923V77.8511C73.5673 77.8511 73.5673 77.9717 73.4468 78.0923C73.3263 78.3335 72.9649 78.5748 72.3625 78.5748C72.0011 78.5748 71.6396 78.4542 71.3986 78.2129C71.1577 77.9717 71.0373 77.7305 71.0373 77.3686C70.9168 76.7655 71.3987 76.4037 71.8806 76.2831ZM73.2058 77.6099C73.4467 77.3686 73.5673 77.0068 73.5673 76.7655V76.6449H73.3262C73.0853 76.6449 72.9649 76.6449 72.8444 76.6449C72.724 76.6449 72.483 76.6449 72.3625 76.7655C72.1215 76.7655 72.001 76.8862 71.8806 77.0068C71.5191 77.3686 71.7601 78.0923 72.4829 78.0923C72.7239 77.9717 72.9648 77.8511 73.2058 77.6099Z" fill="black"/>
<path d="M75.2541 79.2984C75.2541 79.2984 75.495 79.5397 75.8565 79.5397C76.2179 79.5397 76.3384 79.2984 76.5793 78.9366L76.6998 78.4541L75.3745 75.3182C75.3745 75.1976 75.254 75.1976 75.1335 75.1976H75.013V74.5945H75.495C75.8564 74.5945 75.9769 74.7151 76.0974 74.9563L76.9407 77.248L77.0613 77.7305C77.0613 77.6098 77.1817 77.3686 77.1817 77.248L78.025 74.9563C78.1455 74.5945 78.266 74.5945 78.6274 74.5945H79.1094V75.1976H78.9889C78.8684 75.1976 78.7479 75.1976 78.7479 75.3182L77.1817 79.1778C76.9408 79.7809 76.4589 80.1427 75.8565 80.1427C75.495 80.1427 75.1335 80.0221 75.013 79.9015L74.8926 79.7809L75.2541 79.2984Z" fill="black"/>
<path d="M79.9529 75.0769C80.3143 74.7151 80.7962 74.4739 81.3986 74.4739C81.8804 74.4739 82.3623 74.5945 82.6032 74.9563C82.9646 75.3182 83.0851 75.8006 83.0851 76.2831V76.6449H80.1939C80.1939 77.0068 80.3144 77.3686 80.6758 77.6098C80.9167 77.8511 81.278 77.9717 81.6394 77.9717C82.0008 77.9717 82.4827 77.7305 82.6032 77.6098L82.7236 77.4892L83.0851 77.9717L82.8441 78.0923C82.7236 78.2129 82.6031 78.2129 82.3622 78.3335C82.1213 78.4541 81.8804 78.4541 81.519 78.4541C80.9167 78.4541 80.4348 78.2129 79.9529 77.8511C79.5915 77.4892 79.3506 77.0068 79.3506 76.4037C79.4711 75.9212 79.5915 75.4388 79.9529 75.0769ZM82.3622 76.0419C82.3622 75.4388 81.8804 75.0769 81.3986 75.0769C80.7962 75.0769 80.3144 75.4388 80.1939 76.0419H82.3622Z" fill="black"/>
<path d="M84.1703 78.5748V75.4388C84.1703 75.3182 84.1703 75.3182 84.0498 75.3182H83.6885V74.7151H84.4113C84.7727 74.7151 84.8932 74.8357 84.8932 75.1976V75.4388V75.68C85.1342 75.0769 85.6161 74.5945 86.098 74.5945H86.3389V75.3182C86.2184 75.3182 86.2184 75.3182 86.098 75.3182C85.6161 75.3182 85.1341 75.68 85.0137 76.2831C84.8932 76.5243 84.8932 76.7655 84.8932 77.0068V78.5748H84.1703Z" fill="black"/>
<path d="M87.1809 75.4384C87.1809 75.3178 87.181 75.3178 87.0605 75.3178H86.6992V74.7147H87.4219C87.7833 74.7147 87.9038 74.8353 87.9038 75.1972V77.8507C87.9038 77.9713 87.9037 77.9713 88.0242 77.9713H88.3855V78.5744H87.6628C87.3014 78.5744 87.1809 78.4538 87.1809 78.0919V75.4384ZM87.1809 73.7498V73.0261H87.9038V73.8704H87.1809V73.7498Z" fill="black"/>
<path d="M88.8682 77.9717L89.2297 77.4892C89.2297 77.4892 89.2296 77.6098 89.4706 77.7304C89.7116 77.8511 90.0731 78.0923 90.4345 78.0923C90.796 78.0923 91.1574 77.8511 91.1574 77.6098C91.1574 77.3686 90.796 77.1274 90.4345 77.0068C89.8321 76.7655 88.9886 76.4037 88.9886 75.68C88.9886 74.9563 89.5911 74.5945 90.4345 74.5945C90.796 74.5945 91.0369 74.7151 91.2779 74.8357C91.5188 74.9563 91.6394 75.1976 91.6394 75.4388V75.8006H90.9165V75.4388C90.9165 75.1976 90.555 75.0769 90.3141 75.0769C89.8321 75.0769 89.591 75.1976 89.591 75.5594C89.591 75.8006 89.9526 76.0418 90.3141 76.1625C90.9165 76.4037 91.7598 76.6449 91.7598 77.4892C91.7598 77.8511 91.6393 78.0923 91.3983 78.3335C91.1573 78.5747 90.796 78.6954 90.3141 78.6954C89.5912 78.5747 89.1091 78.2129 88.8682 77.9717Z" fill="black"/>
<path d="M93.0847 75.0769C93.4461 74.7151 94.0485 74.4739 94.6508 74.4739C95.1327 74.4739 96.0963 74.7151 96.0963 75.3182V75.68H95.3736V75.4388C95.3736 75.3182 95.2532 75.1976 95.1327 75.1976C95.0123 75.0769 94.7713 75.0769 94.6508 75.0769C94.2894 75.0769 93.928 75.1976 93.6871 75.4388C93.4461 75.68 93.3258 76.0419 93.3258 76.4037C93.3258 76.8862 93.4461 77.1274 93.6871 77.4892C93.928 77.7305 94.2894 77.8511 94.6508 77.8511C94.8918 77.8511 95.1327 77.8511 95.2532 77.7305C95.4941 77.6098 95.6146 77.4892 95.735 77.4892L95.8555 77.3686L96.2168 77.8511C96.2168 77.8511 96.2168 77.9717 95.9759 78.0923C95.735 78.3335 95.2532 78.5747 94.6508 78.5747C94.0485 78.5747 93.5666 78.3335 93.0847 77.9717C92.7234 77.6098 92.4824 77.1274 92.4824 76.5243C92.4824 75.9212 92.7234 75.4388 93.0847 75.0769Z" fill="black"/>
<path d="M96.9409 78.5746V73.8707C96.9409 73.7501 96.9408 73.7501 96.8203 73.7501H96.459V73.0264H97.1818C97.5433 73.0264 97.6638 73.147 97.6638 73.5088V75.0768V75.4387C97.7843 75.1974 97.9048 74.9562 98.1458 74.8356C98.3867 74.715 98.7481 74.5944 99.1095 74.5944C99.9529 74.5944 100.435 75.0768 100.435 76.1623V77.8509C100.435 77.9716 100.435 77.9716 100.555 77.9716H100.917V78.5746H100.194C99.8324 78.5746 99.7119 78.454 99.7119 78.0922V76.283C99.7119 75.6799 99.5915 75.318 98.9891 75.318C98.3867 75.318 97.9047 75.6799 97.7843 76.283C97.7843 76.4036 97.6638 76.6448 97.6638 76.7654V78.5746H96.9409Z" fill="black"/>
<path d="M102.122 75.0767C102.483 74.7149 102.966 74.4736 103.568 74.4736C104.05 74.4736 104.532 74.5942 104.773 74.9561C105.134 75.3179 105.255 75.8004 105.255 76.2828V76.6447H102.363C102.363 77.0065 102.483 77.3684 102.845 77.6096C103.086 77.8508 103.447 77.9714 103.809 77.9714C104.17 77.9714 104.652 77.7302 104.773 77.6096L104.893 77.489L105.255 77.9714L105.014 78.0921C104.893 78.2127 104.773 78.2127 104.532 78.3333C104.291 78.4539 104.05 78.4539 103.688 78.4539C103.086 78.4539 102.604 78.2127 102.122 77.8508C101.761 77.489 101.52 77.0065 101.52 76.4035C101.52 75.921 101.761 75.4385 102.122 75.0767ZM104.411 76.0416C104.411 75.4385 103.929 75.0767 103.447 75.0767C102.845 75.0767 102.363 75.4385 102.242 76.0416H104.411Z" fill="black"/>
<path d="M106.217 78.5747V75.4388C106.217 75.3182 106.217 75.3182 106.097 75.3182H105.735V74.7151H106.458C106.82 74.7151 106.94 74.8357 106.94 75.1975V75.3182V75.5594C107.061 75.3182 107.181 75.0769 107.422 74.9563C107.663 74.7151 108.025 74.7151 108.386 74.7151C109.35 74.7151 109.711 75.1975 109.711 76.2831V77.9717C109.711 78.0923 109.711 78.0923 109.832 78.0923H110.193V78.6954H109.47C109.109 78.6954 108.988 78.5747 108.988 78.2129V76.4037C108.988 75.8006 108.868 75.4388 108.265 75.4388C107.663 75.4388 107.181 75.8006 107.061 76.4037C107.061 76.5243 106.94 76.7655 106.94 76.8861V78.6954H106.217V78.5747Z" fill="black"/>
<path d="M112.604 78.5744V77.8507H112.724C112.844 77.8507 112.965 77.8507 112.965 77.7301L114.652 73.0261H115.495L117.182 77.7301C117.182 77.8507 117.302 77.8507 117.423 77.8507H117.543V78.5744H117.061C116.7 78.5744 116.579 78.4538 116.459 78.0919L116.097 77.0064H114.049L113.688 78.0919C113.567 78.4538 113.447 78.5744 113.085 78.5744H112.604ZM114.29 76.2827H115.977L115.374 74.5941L115.134 73.8704C115.013 74.2323 115.013 74.4735 114.893 74.5941L114.29 76.2827Z" fill="black"/>
<path d="M118.387 78.5746V73.8707C118.387 73.7501 118.387 73.7501 118.267 73.7501H117.905V73.0264H118.628C118.99 73.0264 119.11 73.147 119.11 73.5088V76.0417H119.472C119.713 76.0417 119.833 76.0417 119.833 75.9211L120.797 74.5944H121.64L120.556 76.0417C120.435 76.1623 120.315 76.283 120.315 76.283C120.435 76.283 120.435 76.4036 120.556 76.5242L121.158 77.6097C121.158 77.7303 121.279 77.7303 121.52 77.7303H121.761V78.3334H121.158C120.797 78.3334 120.676 78.2128 120.556 77.9716L119.833 76.6448C119.713 76.5242 119.592 76.5242 119.472 76.5242H119.231V78.3334H118.387V78.5746Z" fill="black"/>
<path d="M123.086 76.2831C123.206 76.1625 123.447 76.1625 123.568 76.1625C123.929 76.0419 124.17 76.0419 124.531 76.0419H124.652C124.652 75.3182 124.411 75.0769 123.809 75.0769C123.688 75.0769 123.568 75.0769 123.327 75.1976C123.206 75.1976 123.086 75.3182 123.086 75.4388V75.68H122.363V75.3182C122.363 74.9563 122.604 74.8357 122.965 74.7151C123.327 74.5945 123.568 74.5945 123.809 74.5945C125.013 74.5945 125.495 75.1976 125.495 76.1625V77.8511C125.495 77.9717 125.495 77.9717 125.616 77.9717H125.977V78.5748H125.254C124.893 78.5748 124.773 78.4542 124.773 78.0923V77.8511C124.773 77.8511 124.773 77.9717 124.652 78.0923C124.532 78.3335 124.17 78.5748 123.568 78.5748C123.206 78.5748 122.845 78.4542 122.604 78.2129C122.363 77.9717 122.242 77.7305 122.242 77.3686C122.122 76.7655 122.604 76.4037 123.086 76.2831ZM124.411 77.6099C124.652 77.3686 124.773 77.0068 124.773 76.7655V76.6449H124.531C124.29 76.6449 124.17 76.6449 124.05 76.6449C123.929 76.6449 123.688 76.6449 123.568 76.7655C123.327 76.7655 123.206 76.8862 123.086 77.0068C122.724 77.3686 122.965 78.0923 123.688 78.0923C123.929 77.9717 124.17 77.8511 124.411 77.6099Z" fill="black"/>
<path d="M126.941 75.0766C127.302 74.7147 127.664 74.4735 128.266 74.4735C128.989 74.4735 129.35 74.8353 129.471 75.0766V75.1972C129.471 75.0766 129.471 75.0766 129.471 74.9559V73.991C129.471 73.8704 129.471 73.8704 129.35 73.8704H128.989V73.0261H129.712C130.073 73.0261 130.194 73.1467 130.194 73.5086V77.7301C130.194 77.8507 130.194 77.8507 130.314 77.8507H130.675V78.4537H129.953C129.591 78.4537 129.471 78.3331 129.471 77.9713V77.7301C129.471 77.7301 129.471 77.8507 129.35 77.9713C129.109 78.2125 128.868 78.4537 128.266 78.4537C127.784 78.4537 127.302 78.2125 126.941 77.8507C126.579 77.4888 126.459 77.0064 126.459 76.4033C126.459 75.9209 126.579 75.4384 126.941 75.0766ZM129.471 76.5239C129.471 76.1621 129.35 75.8002 129.23 75.559C128.989 75.3178 128.748 75.0766 128.386 75.0766C127.784 75.0766 127.302 75.6796 127.302 76.5239C127.302 77.3682 127.784 77.9713 128.386 77.9713C128.989 77.9713 129.471 77.4888 129.471 76.5239Z" fill="black"/>
<path d="M131.761 75.0767C132.122 74.7149 132.604 74.4736 133.206 74.4736C133.688 74.4736 134.17 74.5942 134.411 74.9561C134.772 75.3179 134.893 75.8004 134.893 76.2828V76.6447H132.002C132.002 77.0065 132.122 77.3684 132.483 77.6096C132.724 77.8508 133.086 77.9714 133.447 77.9714C133.809 77.9714 134.29 77.7302 134.411 77.6096L134.531 77.489L134.893 77.9714L134.652 78.0921C134.531 78.2127 134.411 78.2127 134.17 78.3333C133.929 78.4539 133.688 78.4539 133.327 78.4539C132.724 78.4539 132.242 78.2127 131.761 77.8508C131.399 77.489 131.158 77.0065 131.158 76.4035C131.158 75.921 131.279 75.4385 131.761 75.0767ZM134.049 76.0416C134.049 75.4385 133.568 75.0767 133.086 75.0767C132.483 75.0767 132.002 75.4385 131.881 76.0416H134.049Z" fill="black"/>
<path d="M135.856 78.5747V75.4388C135.856 75.3182 135.856 75.3182 135.736 75.3182H135.374V74.7151H136.097C136.458 74.7151 136.579 74.8357 136.579 75.1975V75.3182V75.5594C136.699 75.3182 136.82 75.0769 137.061 74.9563C137.302 74.8357 137.543 74.7151 137.904 74.7151C138.507 74.7151 138.989 74.9563 139.109 75.5594C139.23 75.3182 139.35 75.0769 139.711 74.9563C139.952 74.8357 140.314 74.7151 140.555 74.7151C141.398 74.7151 141.88 75.1975 141.88 76.2831V77.9717C141.88 78.0923 141.88 78.0923 142.001 78.0923H142.362V78.6954H141.639C141.278 78.6954 141.157 78.5747 141.157 78.2129V76.2831C141.157 75.68 141.037 75.3182 140.434 75.3182C139.952 75.3182 139.47 75.8006 139.35 76.2831C139.35 76.4037 139.23 76.6449 139.23 76.7655V78.5747H138.507V76.1625C138.507 75.5594 138.386 75.1975 137.784 75.1975C137.181 75.1975 136.82 75.68 136.699 76.2831C136.699 76.4037 136.699 76.6449 136.699 76.7655V78.5747H135.856Z" fill="black"/>
<path d="M143.206 75.4387C143.206 75.318 143.206 75.318 143.086 75.318H142.725V74.715H143.447C143.809 74.715 143.929 74.8356 143.929 75.1974V77.8509C143.929 77.9716 143.929 77.9716 144.05 77.9716H144.411V78.5746H143.688C143.327 78.5746 143.206 78.454 143.206 78.0922V75.4387ZM143.206 73.7501V73.0264H143.929V73.8707H143.206V73.7501Z" fill="black"/>
<path d="M145.496 75.0767C145.857 74.7149 146.339 74.4736 146.942 74.4736C147.424 74.4736 147.906 74.5942 148.147 74.9561C148.508 75.3179 148.628 75.8004 148.628 76.2828V76.6447H145.737C145.737 77.0065 145.857 77.3684 146.219 77.6096C146.46 77.8508 146.821 77.9714 147.183 77.9714C147.544 77.9714 148.026 77.7302 148.147 77.6096L148.267 77.489L148.628 77.9714L148.387 78.0921C148.267 78.2127 148.146 78.2127 147.906 78.3333C147.665 78.4539 147.424 78.4539 147.062 78.4539C146.46 78.4539 145.978 78.2127 145.496 77.8508C145.135 77.489 144.894 77.0065 144.894 76.4035C144.894 75.921 145.135 75.4385 145.496 75.0767ZM147.906 76.0416C147.906 75.4385 147.424 75.0767 146.942 75.0767C146.339 75.0767 145.857 75.4385 145.737 76.0416H147.906Z" fill="black"/>
<path d="M151.881 75.0768C152.243 74.715 152.604 74.4737 153.207 74.4737C153.929 74.4737 154.291 74.8356 154.411 75.0768V75.1974C154.411 75.0768 154.411 75.0768 154.411 74.9562V73.9913C154.411 73.8707 154.411 73.8707 154.291 73.8707H153.929V73.0264H154.652C155.014 73.0264 155.134 73.147 155.134 73.5088V77.7303C155.134 77.8509 155.134 77.8509 155.255 77.8509H155.616V78.454H154.893C154.532 78.454 154.411 78.3334 154.411 77.9715V77.7303C154.411 77.7303 154.411 77.8509 154.291 77.9715C154.05 78.2128 153.809 78.454 153.207 78.454C152.725 78.454 152.243 78.2128 151.881 77.8509C151.52 77.4891 151.399 77.0066 151.399 76.4036C151.399 75.9211 151.52 75.4386 151.881 75.0768ZM154.411 76.5242C154.411 76.1623 154.291 75.8005 154.17 75.5593C153.93 75.318 153.688 75.0768 153.327 75.0768C152.725 75.0768 152.243 75.6799 152.243 76.5242C152.243 77.3685 152.725 77.9715 153.327 77.9715C153.929 77.9715 154.411 77.4891 154.411 76.5242Z" fill="black"/>
<path d="M156.699 75.0767C157.061 74.7149 157.542 74.4736 158.145 74.4736C158.627 74.4736 159.109 74.5942 159.35 74.9561C159.711 75.3179 159.832 75.8004 159.832 76.2828V76.6447H156.94C156.94 77.0065 157.061 77.3684 157.422 77.6096C157.663 77.8508 158.024 77.9714 158.386 77.9714C158.747 77.9714 159.229 77.7302 159.35 77.6096L159.47 77.489L159.832 77.9714L159.591 78.0921C159.47 78.2127 159.35 78.2127 159.109 78.3333C158.868 78.4539 158.627 78.4539 158.265 78.4539C157.663 78.4539 157.181 78.2127 156.699 77.8508C156.338 77.489 156.097 77.0065 156.097 76.4035C156.097 75.921 156.338 75.4385 156.699 75.0767ZM158.988 76.0416C158.988 75.4385 158.506 75.0767 158.024 75.0767C157.422 75.0767 156.94 75.4385 156.82 76.0416H158.988Z" fill="black"/>
<path d="M160.797 78.5748V75.4388C160.797 75.3182 160.797 75.3182 160.677 75.3182H160.315V74.7151H161.038C161.4 74.7151 161.52 74.8357 161.52 75.1976V75.4388V75.68C161.761 75.0769 162.243 74.5945 162.725 74.5945H162.966V75.3182C162.845 75.3182 162.845 75.3182 162.725 75.3182C162.243 75.3182 161.761 75.68 161.641 76.2831C161.52 76.5243 161.52 76.7655 161.52 77.0068V78.5748H160.797Z" fill="black"/>
<path d="M167.061 78.5746L165.857 73.8707C165.857 73.7501 165.736 73.7501 165.616 73.7501H165.495V73.0264H165.977C166.339 73.0264 166.579 73.147 166.7 73.5088L167.543 77.0066L167.664 77.6097C167.664 77.3685 167.784 77.2479 167.784 77.0066L168.869 73.0264H169.592L170.676 77.0066L170.796 77.6097C170.796 77.3685 170.796 77.2479 170.917 77.0066L171.76 73.5088C171.881 73.147 172.001 73.0264 172.483 73.0264H172.965V73.7501H172.845C172.724 73.7501 172.604 73.7501 172.604 73.8707L171.399 78.5746H170.435L169.471 75.0768L169.351 74.3531C169.351 74.5944 169.23 74.8356 169.23 75.0768L168.266 78.5746H167.061Z" fill="black"/>
<path d="M173.567 75.4384C173.567 75.3178 173.567 75.3178 173.446 75.3178H173.085V74.7147H173.808C174.169 74.7147 174.29 74.8353 174.29 75.1972V77.8507C174.29 77.9713 174.29 77.9713 174.41 77.9713H174.772V78.5744H174.049C173.687 78.5744 173.567 78.4538 173.567 78.0919V75.4384ZM173.567 73.7498V73.0261H174.29V73.8704H173.567V73.7498Z" fill="black"/>
<path d="M175.254 77.9717L175.615 77.4892C175.615 77.4892 175.615 77.6098 175.856 77.7304C176.097 77.8511 176.459 78.0923 176.82 78.0923C177.182 78.0923 177.543 77.8511 177.543 77.6098C177.543 77.3686 177.182 77.1274 176.82 77.0068C176.218 76.7655 175.374 76.4037 175.374 75.68C175.374 74.9563 175.977 74.5945 176.82 74.5945C177.182 74.5945 177.423 74.7151 177.664 74.8357C177.905 74.9563 178.025 75.1976 178.025 75.4388V75.8006H177.302V75.4388C177.302 75.1976 176.941 75.0769 176.7 75.0769C176.218 75.0769 175.977 75.1976 175.977 75.5594C175.977 75.8006 176.338 76.0418 176.7 76.1625C177.302 76.4037 178.145 76.6449 178.145 77.4892C178.145 77.8511 178.025 78.0923 177.784 78.3335C177.543 78.5747 177.182 78.6954 176.7 78.6954C175.977 78.5747 175.495 78.2129 175.254 77.9717Z" fill="black"/>
<path d="M178.748 77.9717L179.11 77.4892C179.11 77.4892 179.109 77.6098 179.35 77.7304C179.591 77.8511 179.953 78.0923 180.314 78.0923C180.676 78.0923 181.037 77.8511 181.037 77.6098C181.037 77.3686 180.676 77.1274 180.314 77.0068C179.712 76.7655 178.869 76.4037 178.869 75.68C178.869 74.9563 179.471 74.5945 180.314 74.5945C180.676 74.5945 180.917 74.7151 181.158 74.8357C181.398 74.9563 181.519 75.1976 181.519 75.4388V75.8006H180.796V75.4388C180.796 75.1976 180.435 75.0769 180.194 75.0769C179.712 75.0769 179.471 75.1976 179.471 75.5594C179.471 75.8006 179.832 76.0418 180.194 76.1625C180.796 76.4037 181.639 76.6449 181.639 77.4892C181.639 77.8511 181.519 78.0923 181.278 78.3335C181.037 78.5747 180.676 78.6954 180.194 78.6954C179.471 78.5747 178.989 78.2129 178.748 77.9717Z" fill="black"/>
<path d="M182.966 75.0769C183.327 74.7151 183.809 74.4739 184.412 74.4739C184.893 74.4739 185.375 74.5945 185.616 74.9563C185.978 75.3182 186.098 75.8006 186.098 76.2831V76.6449H183.207C183.207 77.0068 183.327 77.3686 183.689 77.6098C183.93 77.8511 184.291 77.9717 184.652 77.9717C185.014 77.9717 185.496 77.7305 185.616 77.6098L185.737 77.4892L186.098 77.9717L185.857 78.0923C185.737 78.2129 185.616 78.2129 185.375 78.3335C185.134 78.4541 184.893 78.4541 184.532 78.4541C183.93 78.4541 183.448 78.2129 182.966 77.8511C182.604 77.4892 182.363 77.0068 182.363 76.4037C182.363 75.9212 182.604 75.4388 182.966 75.0769ZM185.255 76.0419C185.255 75.4388 184.773 75.0769 184.291 75.0769C183.689 75.0769 183.207 75.4388 183.086 76.0419H185.255Z" fill="black"/>
<path d="M187.061 78.5747V75.4388C187.061 75.3182 187.061 75.3182 186.941 75.3182H186.579V74.7151H187.302C187.664 74.7151 187.784 74.8357 187.784 75.1975V75.3182V75.5594C187.904 75.3182 188.025 75.0769 188.266 74.9563C188.507 74.7151 188.868 74.7151 189.23 74.7151C190.194 74.7151 190.555 75.1975 190.555 76.2831V77.9717C190.555 78.0923 190.555 78.0923 190.676 78.0923H191.037V78.6954H190.314C189.953 78.6954 189.832 78.5747 189.832 78.2129V76.4037C189.832 75.8006 189.712 75.4388 189.109 75.4388C188.507 75.4388 188.025 75.8006 187.905 76.4037C187.905 76.5243 187.784 76.7655 187.784 76.8861V78.6954H187.061V78.5747Z" fill="black"/>
<path d="M191.52 77.9717L191.881 77.4892C191.881 77.4892 191.881 77.6098 192.122 77.7304C192.363 77.8511 192.724 78.0923 193.086 78.0923C193.447 78.0923 193.809 77.8511 193.809 77.6098C193.809 77.3686 193.447 77.1274 193.086 77.0068C192.483 76.7655 191.64 76.4037 191.64 75.68C191.64 74.9563 192.242 74.5945 193.086 74.5945C193.447 74.5945 193.688 74.7151 193.929 74.8357C194.17 74.9563 194.29 75.1976 194.29 75.4388V75.8006H193.568V75.4388C193.568 75.1976 193.206 75.0769 192.965 75.0769C192.483 75.0769 192.242 75.1976 192.242 75.5594C192.242 75.8006 192.604 76.0418 192.965 76.1625C193.568 76.4037 194.411 76.6449 194.411 77.4892C194.411 77.8511 194.291 78.0923 194.05 78.3335C193.809 78.5747 193.447 78.6954 192.965 78.6954C192.242 78.5747 191.76 78.2129 191.52 77.9717Z" fill="black"/>
<path d="M195.736 75.0769C196.098 74.7151 196.7 74.4739 197.302 74.4739C197.784 74.4739 198.748 74.7151 198.748 75.3182V75.68H198.025V75.4388C198.025 75.3182 197.905 75.1976 197.784 75.1976C197.664 75.0769 197.423 75.0769 197.302 75.0769C196.941 75.0769 196.579 75.1976 196.338 75.4388C196.098 75.68 195.977 76.0419 195.977 76.4037C195.977 76.8862 196.098 77.1274 196.338 77.4892C196.579 77.7305 196.941 77.8511 197.302 77.8511C197.543 77.8511 197.784 77.8511 197.904 77.7305C198.145 77.6098 198.266 77.4892 198.386 77.4892L198.507 77.3686L198.868 77.8511C198.868 77.8511 198.868 77.9717 198.627 78.0923C198.386 78.3335 197.904 78.5747 197.302 78.5747C196.7 78.5747 196.218 78.3335 195.736 77.9717C195.375 77.6098 195.134 77.1274 195.134 76.5243C195.134 75.9212 195.375 75.4388 195.736 75.0769Z" fill="black"/>
<path d="M199.711 78.5744V73.8704C199.711 73.7498 199.712 73.7498 199.591 73.7498H199.229V73.0261H199.953C200.314 73.0261 200.434 73.1467 200.434 73.5086V75.0766V75.4384C200.555 75.1972 200.675 74.956 200.916 74.8353C201.157 74.7147 201.519 74.5941 201.88 74.5941C202.724 74.5941 203.206 75.0766 203.206 76.1621V77.8507C203.206 77.9713 203.206 77.9713 203.326 77.9713H203.688V78.5744H202.965C202.603 78.5744 202.483 78.4538 202.483 78.0919V76.2827C202.483 75.6796 202.362 75.3178 201.76 75.3178C201.157 75.3178 200.675 75.6796 200.555 76.2827C200.555 76.4033 200.434 76.6446 200.434 76.7652V78.5744H199.711Z" fill="black"/>
<path d="M205.134 76.2831C205.254 76.1625 205.495 76.1625 205.616 76.1625C205.977 76.0419 206.218 76.0419 206.579 76.0419H206.7C206.7 75.3182 206.459 75.0769 205.856 75.0769C205.736 75.0769 205.616 75.0769 205.375 75.1976C205.254 75.1976 205.134 75.3182 205.134 75.4388V75.68H204.411V75.3182C204.411 74.9563 204.652 74.8357 205.013 74.7151C205.375 74.5945 205.615 74.5945 205.856 74.5945C207.061 74.5945 207.543 75.1976 207.543 76.1625V77.8511C207.543 77.9717 207.543 77.9717 207.664 77.9717H208.025V78.5748H207.302C206.941 78.5748 206.82 78.4542 206.82 78.0923V77.8511C206.82 77.8511 206.82 77.9717 206.7 78.0923C206.579 78.3335 206.218 78.5748 205.616 78.5748C205.254 78.5748 204.893 78.4542 204.652 78.2129C204.411 77.9717 204.29 77.7305 204.29 77.3686C204.17 76.7655 204.652 76.4037 205.134 76.2831ZM206.459 77.6099C206.7 77.3686 206.82 77.0068 206.82 76.7655V76.6449H206.579C206.338 76.6449 206.218 76.6449 206.097 76.6449C205.977 76.6449 205.736 76.6449 205.616 76.7655C205.375 76.7655 205.254 76.8862 205.134 77.0068C204.772 77.3686 205.013 78.0923 205.736 78.0923C205.977 77.9717 206.338 77.8511 206.459 77.6099Z" fill="black"/>
<path d="M208.869 78.5744V75.1972H208.387V74.5941H208.869V74.4735C208.869 73.991 208.989 73.6292 209.23 73.388C209.592 73.0261 210.074 73.0261 210.315 73.0261H210.556V73.6292C210.556 73.6292 210.435 73.6292 210.315 73.6292C210.074 73.6292 209.471 73.7498 209.471 74.4735V74.5941H210.435V75.1972H209.471V78.5744H208.869Z" fill="black"/>
<path d="M211.399 75.1976H210.917V74.5946H211.399V73.509H212.122V74.5946H213.086V75.1976H212.122V77.0068C212.122 77.8511 212.604 77.8511 212.965 77.8511H213.086V78.5748C212.965 78.5748 212.965 78.5748 212.845 78.5748C212.604 78.5748 212.363 78.5748 212.122 78.4542C211.76 78.3336 211.399 77.8511 211.399 77.1275V75.1976Z" fill="black"/>
<path d="M214.29 75.0767C214.651 74.7149 215.133 74.4736 215.736 74.4736C216.218 74.4736 216.7 74.5942 216.941 74.9561C217.302 75.3179 217.423 75.8004 217.423 76.2828V76.6447H214.531C214.531 77.0065 214.652 77.3684 215.013 77.6096C215.254 77.8508 215.615 77.9714 215.977 77.9714C216.338 77.9714 216.82 77.7302 216.941 77.6096L217.061 77.489L217.423 77.9714L217.182 78.0921C217.061 78.2127 216.941 78.2127 216.7 78.3333C216.459 78.4539 216.218 78.4539 215.856 78.4539C215.254 78.4539 214.772 78.2127 214.29 77.8508C213.928 77.489 213.688 77.0065 213.688 76.4035C213.808 75.921 213.928 75.4385 214.29 75.0767ZM216.7 76.0416C216.7 75.4385 216.218 75.0767 215.736 75.0767C215.133 75.0767 214.652 75.4385 214.531 76.0416H216.7Z" fill="black"/>
<path d="M218.507 78.5745V75.4385C218.507 75.3179 218.507 75.3179 218.387 75.3179H218.025V74.7148H218.748C219.11 74.7148 219.23 74.8355 219.23 75.1973V75.3179V75.5591C219.351 75.3179 219.471 75.0767 219.712 74.9561C219.953 74.7148 220.315 74.7148 220.676 74.7148C221.64 74.7148 222.002 75.1973 222.002 76.2828V78.8157H221.761C221.399 78.8157 221.279 78.6951 221.279 78.3333V76.5241C221.279 75.921 221.158 75.5591 220.556 75.5591C219.953 75.5591 219.471 75.921 219.351 76.5241C219.351 76.6447 219.23 76.8859 219.23 77.0065V78.8157H218.507V78.5745Z" fill="black"/>
</svg>
