<svg width="224" height="120" viewBox="0 0 224 120" fill="none" xmlns="http://www.w3.org/2000/svg">
<path d="M37 64.4118H40.1659V64.9691C40.1659 66.6409 40.2589 67.9412 40.5383 68.6842C40.8176 69.4273 41.1899 70.0774 41.8417 70.3561C42.3073 70.6347 43.0522 70.8205 43.9833 70.9133C44.9144 71.0062 46.8698 71.0991 49.8493 71.0991C51.4322 71.0991 52.7358 71.0062 53.5738 70.8205C54.5049 70.6347 55.1567 70.2632 55.5292 69.7988C55.8085 69.5202 55.9946 69.1486 56.0877 68.4985C56.1808 67.8483 56.2739 67.1053 56.2739 65.9907C56.2739 63.8545 56.0877 62.5542 55.6222 61.9969C55.1566 61.4396 54.3187 61.161 53.1082 61.0681L44.3559 60.418C41.7488 60.2322 39.8865 59.5821 38.9554 58.4675C37.9312 57.353 37.4656 55.4954 37.4656 52.8947C37.4656 51.2229 37.6518 49.9226 37.9311 48.9009C38.3036 47.8793 38.7691 47.0433 39.5139 46.3932C40.0726 45.9288 40.9107 45.5573 41.9349 45.2786C42.9591 45.0929 44.8213 45 47.4284 45H48.4527C51.3391 45 53.3876 45.1858 54.5981 45.4644C55.8085 45.743 56.7396 46.2074 57.5776 46.9505C58.1362 47.4149 58.5087 48.065 58.7881 48.9009C59.0674 49.7368 59.1604 50.7585 59.1604 52.0588C59.1604 52.4304 59.1604 52.709 59.1604 52.8947C59.1604 53.0805 59.1604 53.2663 59.1604 53.452H55.9947V52.709C55.9947 51.6873 55.9015 50.8514 55.8083 50.2941C55.7152 49.7368 55.5291 49.3653 55.2498 49.0867C54.8774 48.7152 54.1324 48.4365 53.1082 48.2508C52.084 48.065 50.2218 47.9721 47.3354 47.9721C44.449 47.9721 42.5866 48.3437 41.8417 48.9938C41.0968 49.644 40.7244 50.9443 40.7244 52.9876C40.7244 54.5666 41.0038 55.774 41.4694 56.3313C41.9349 56.9814 42.866 57.353 44.2627 57.4458L53.2014 58.1889C55.5292 58.3746 57.205 59.0248 58.1361 60.1393C59.0672 61.2539 59.5328 63.0186 59.5328 65.6192C59.5328 67.4768 59.4398 68.87 59.1604 69.7988C58.8811 70.7276 58.5086 71.4706 57.9499 72.1208C57.2982 72.8638 56.3671 73.4211 55.1566 73.7926C53.9462 74.0712 51.8977 74.257 48.825 74.257H47.4284C44.8213 74.257 42.959 74.1641 41.8417 73.8855C40.7244 73.6068 39.8865 73.1425 39.1416 72.4923C38.3967 71.8421 37.9312 71.0991 37.5588 69.9846C37.1863 68.9629 37.0932 67.6626 37.0932 65.9907V64.4118H37Z" fill="#014489"/>
<path d="M107.764 73.6998V45.3716H110.93V73.6998H107.764Z" fill="#014489"/>
<path d="M113.909 48.3437V45.3716H135.231V48.3437H126.106V73.6998H122.941V48.3437H113.909Z" fill="#014489"/>
<path d="M136.628 54.7523C136.628 51.13 137.28 48.6223 138.676 47.1362C140.073 45.743 142.494 45 146.032 45H149.384C152.922 45 155.343 45.6502 156.74 46.8576C158.136 48.065 158.881 50.2012 158.881 53.0805V54.2879H155.623V53.5449C155.623 51.4087 155.157 49.9226 154.319 49.1796C153.481 48.4365 151.712 47.9721 149.198 47.9721H146.963C145.287 47.9721 143.984 48.065 143.239 48.2508C142.494 48.4365 141.842 48.8081 141.283 49.2725C140.725 49.7368 140.352 50.387 140.166 51.13C139.98 51.8731 139.887 53.3591 139.887 55.4025V63.483C139.887 65.5263 139.98 66.9195 140.166 67.7554C140.352 68.4985 140.725 69.1486 141.283 69.613C141.842 70.0774 142.401 70.4489 143.146 70.6347C143.891 70.8205 145.194 70.9133 146.963 70.9133H149.198C151.805 70.9133 153.574 70.5418 154.412 69.7059C155.25 68.87 155.715 67.291 155.715 64.9691C155.715 64.5975 155.715 64.3189 155.715 64.1332C155.715 63.9474 155.715 63.7616 155.715 63.5759H158.974V65.4335C158.974 68.5914 158.323 70.7276 156.926 72.0279C155.529 73.2353 153.108 73.8855 149.477 73.8855H146.125C142.587 73.8855 140.166 73.1425 138.77 71.7493C137.373 70.3561 136.721 67.8483 136.721 64.1332V54.7523H136.628Z" fill="#014489"/>
<path d="M164.281 73.6998V45.3716H167.447V57.6317H183.834V45.3716H187V73.6998H183.834V60.5109H167.447V73.6069H164.281V73.6998Z" fill="#014489"/>
<path d="M77.3165 75.0001L61.4873 45.3716H65.2118L77.4098 68.2199L82.624 59.0249V65.7122L77.3165 75.0001Z" fill="#014489"/>
<path d="M82.6245 58.6533C80.2966 54.288 77.8757 49.7369 75.5479 45.3716C76.7583 45.3716 78.062 45.3716 79.2725 45.3716C80.3898 47.4149 81.5071 49.644 82.6245 51.6874V58.6533Z" fill="#014489"/>
<path d="M82.624 58.6533C84.9516 54.288 87.3724 49.7369 89.7 45.3716C88.4896 45.3716 87.1862 45.3716 85.9758 45.3716C84.8586 47.4149 83.7413 49.644 82.624 51.6874V58.6533Z" fill="#F39904"/>
<path d="M87.8382 75.0001L103.667 45.3716H99.9425L87.745 68.2199L82.624 59.0249V65.7122L87.8382 75.0001Z" fill="#F39904"/>
</svg>
