<svg width="448" height="254" viewBox="0 0 448 254" fill="none" xmlns="http://www.w3.org/2000/svg">
<g clip-path="url(#clip0_412_8207)">
<rect width="288" height="254" rx="4" fill="#F7F7F7"/>
<rect width="288" height="28" fill="#466A93"/>
<mask id="path-4-inside-1_412_8207" fill="white">
<path d="M0 28H288V56H0V28Z"/>
</mask>
<path d="M0 28H288V56H0V28Z" fill="#F7F7F7"/>
<path d="M288 55H0V57H288V55Z" fill="#CCCCCC" mask="url(#path-4-inside-1_412_8207)"/>
<mask id="path-6-inside-2_412_8207" fill="white">
<path d="M288 56H259V254H288V56Z"/>
</mask>
<path d="M288 56H259V254H288V56Z" fill="#F7F7F7"/>
<path d="M260 56V254H258V56H260Z" fill="#CCCCCC" mask="url(#path-6-inside-2_412_8207)"/>
<mask id="path-8-inside-3_412_8207" fill="white">
<path d="M0 56H29V254H0V56Z"/>
</mask>
<path d="M0 56H29V254H0V56Z" fill="#F7F7F7"/>
<path d="M28 56V254H30V56H28Z" fill="#CCCCCC" mask="url(#path-8-inside-3_412_8207)"/>
<mask id="path-10-inside-4_412_8207" fill="white">
<path d="M47 70H241V254H47V70Z"/>
</mask>
<path d="M47 70H241V254H47V70Z" fill="white"/>
<path d="M47 70V69H46V70H47ZM241 70H242V69H241V70ZM47 71H241V69H47V71ZM240 70V254H242V70H240ZM48 254V70H46V254H48Z" fill="#CCCCCC" mask="url(#path-10-inside-4_412_8207)"/>
<rect x="16" y="40" width="38" height="4" rx="2" fill="#CCCCCC"/>
<rect x="70" y="40" width="38" height="4" rx="2" fill="#CCCCCC"/>
<rect x="124" y="40" width="38" height="4" rx="2" fill="#CCCCCC"/>
<rect x="178" y="40" width="38" height="4" rx="2" fill="#CCCCCC"/>
<rect x="232" y="40" width="38" height="4" rx="2" fill="#CCCCCC"/>
<rect opacity="0.4" x="69" y="91" width="55" height="4" rx="2" fill="#CCCCCC"/>
<rect opacity="0.4" x="69" y="107" width="150" height="4" rx="2" fill="#CCCCCC"/>
<path d="M92.5355 144.536C90.5829 142.583 87.4171 142.583 85.4645 144.536L71.5 158.5H106.5L97.75 149.75L92.5355 144.536Z" fill="#CCCCCC" fill-opacity="0.2"/>
<path d="M97.75 149.75L106.5 158.5H138.5V153L120.036 134.536C118.083 132.583 114.917 132.583 112.964 134.536L97.75 149.75Z" fill="#CCCCCC" fill-opacity="0.1"/>
<rect opacity="0.4" x="69" y="171" width="70" height="4" rx="2" fill="#CCCCCC"/>
<rect opacity="0.4" x="149" y="123" width="70" height="4" rx="2" fill="#CCCCCC"/>
<rect opacity="0.4" x="149" y="139" width="70" height="4" rx="2" fill="#CCCCCC"/>
<rect opacity="0.4" x="149" y="155" width="70" height="4" rx="2" fill="#CCCCCC"/>
<rect opacity="0.4" x="149" y="171" width="70" height="4" rx="2" fill="#CCCCCC"/>
<rect opacity="0.4" x="149.5" y="187.5" width="69" height="51" rx="1.5" stroke="#CCCCCC"/>
<rect opacity="0.4" x="69" y="187" width="70" height="4" rx="2" fill="#CCCCCC"/>
<rect opacity="0.4" x="69" y="203" width="70" height="4" rx="2" fill="#CCCCCC"/>
<rect opacity="0.4" x="69" y="219" width="70" height="4" rx="2" fill="#CCCCCC"/>
<path opacity="0.2" d="M166 196C167.105 196 168 196.895 168 198L168 238L159 238L159 198C159 196.895 159.895 196 161 196L166 196Z" fill="#CCCCCC"/>
<path opacity="0.2" d="M195 214C196.105 214 197 214.895 197 216L197 238L188 238L188 216C188 214.895 188.895 214 190 214L195 214Z" fill="#CCCCCC"/>
<path opacity="0.4" d="M178 207C179.105 207 180 207.895 180 209L180 238L171 238L171 209C171 207.895 171.895 207 173 207L178 207Z" fill="#CCCCCC"/>
<path opacity="0.4" d="M207 203C208.105 203 209 203.895 209 205L209 238L200 238L200 205C200 203.895 200.895 203 202 203L207 203Z" fill="#CCCCCC"/>
<rect opacity="0.4" x="69" y="235" width="70" height="4" rx="2" fill="#CCCCCC"/>
<rect x="69.5" y="123.5" width="69" height="35" rx="1.5" stroke="#EBEBEB"/>
<path fill-rule="evenodd" clip-rule="evenodd" d="M113.318 134.889C115.075 133.132 117.925 133.132 119.682 134.889L138 153.207V151.793L120.389 134.182C118.241 132.034 114.759 132.034 112.611 134.182L97.7501 149.043L92.8892 144.182C90.7413 142.034 87.2589 142.034 85.111 144.182L71.293 158H72.7072L85.8181 144.889C87.5755 143.132 90.4247 143.132 92.1821 144.889L105.293 158H106.707L98.4572 149.75L113.318 134.889Z" fill="#EBEBEB"/>
<g filter="url(#filter0_d_412_8207)">
<rect x="16" y="32" width="135" height="85" rx="3" fill="#F7F7F7"/>
<rect x="16.5" y="32.5" width="134" height="84" rx="2.5" stroke="#CCCCCC"/>
<path fill-rule="evenodd" clip-rule="evenodd" d="M87.4997 45.1429C90.0246 45.1429 92.0712 47.1896 92.0712 49.7143C92.0712 51.0797 91.4726 52.3052 90.5236 53.1429H101.214V65.7143H99.876C99.4054 64.3828 98.1354 63.4286 96.6426 63.4286C94.749 63.4286 93.214 64.9638 93.214 66.8572V68C93.214 69.8934 94.749 71.4286 96.6426 71.4286C98.1354 71.4286 99.4054 70.4744 99.876 69.1429H101.214V81.7143H88.6426V80.3764C89.9741 79.9057 90.9283 78.6357 90.9283 77.1429C90.9283 75.2493 89.3931 73.7143 87.4997 73.7143H86.3569C84.4634 73.7143 82.9283 75.2493 82.9283 77.1429C82.9283 78.6357 83.8825 79.9057 85.214 80.3764V81.7143H72.6426V71.0239C71.8049 71.9729 70.5794 72.5715 69.214 72.5715C66.6893 72.5715 64.6426 70.5249 64.6426 68V66.8572C64.6426 64.3323 66.6893 62.2857 69.214 62.2857C70.5794 62.2857 71.8049 62.8843 72.6426 63.8333V53.1429H83.333C82.3839 52.3052 81.7854 51.0797 81.7854 49.7143C81.7854 47.1896 83.832 45.1429 86.3569 45.1429H87.4997ZM90.5236 80.5715C91.4726 79.7338 92.0712 78.5083 92.0712 77.1429C92.0712 74.6182 90.0246 72.5715 87.4997 72.5715H86.3569C83.832 72.5715 81.7854 74.6182 81.7854 77.1429C81.7854 78.5083 82.3839 79.7338 83.333 80.5715H73.7854V69.1429H72.4475C71.9768 70.4744 70.7068 71.4286 69.214 71.4286C67.3205 71.4286 65.7854 69.8934 65.7854 68V66.8572C65.7854 64.9638 67.3205 63.4286 69.214 63.4286C70.7068 63.4286 71.9768 64.3828 72.4475 65.7143H73.7854V54.2857H85.214V52.9478C83.8825 52.4771 82.9283 51.2071 82.9283 49.7143C82.9283 47.8208 84.4634 46.2857 86.3569 46.2857H87.4997C89.3931 46.2857 90.9283 47.8208 90.9283 49.7143C90.9283 51.2071 89.9741 52.4771 88.6426 52.9478V54.2857H100.071V63.8333C99.2335 62.8843 98.0079 62.2857 96.6426 62.2857C94.1179 62.2857 92.0712 64.3323 92.0712 66.8572V68C92.0712 70.5249 94.1179 72.5715 96.6426 72.5715C98.0079 72.5715 99.2335 71.9729 100.071 71.0239V80.5715H90.5236Z" fill="#444444"/>
<path d="M33.2704 102V91.9785H36.5174C37.7479 91.9785 38.55 92.0286 38.9237 92.1289C39.4979 92.2793 39.9787 92.6074 40.3661 93.1133C40.7534 93.6146 40.9471 94.264 40.9471 95.0615C40.9471 95.6768 40.8355 96.194 40.6121 96.6133C40.3888 97.0326 40.104 97.363 39.7577 97.6045C39.4159 97.8415 39.0672 97.9987 38.7118 98.0762C38.2287 98.1719 37.5291 98.2197 36.6131 98.2197H35.2938V102H33.2704ZM35.2938 93.6738V96.5176H36.4012C37.1987 96.5176 37.7319 96.4652 38.0008 96.3604C38.2697 96.2555 38.4793 96.0915 38.6297 95.8682C38.7847 95.6449 38.8621 95.3851 38.8621 95.0889C38.8621 94.7243 38.7551 94.4235 38.5409 94.1865C38.3267 93.9495 38.0555 93.8014 37.7274 93.7422C37.4858 93.6966 37.0005 93.6738 36.2713 93.6738H35.2938ZM42.4546 102V91.9785H44.3755V102H42.4546ZM50.9894 102V100.913C50.7251 101.3 50.3764 101.606 49.9435 101.829C49.5151 102.052 49.0616 102.164 48.5831 102.164C48.0955 102.164 47.658 102.057 47.2706 101.843C46.8833 101.629 46.603 101.328 46.4298 100.94C46.2566 100.553 46.17 100.018 46.17 99.334V94.7402H48.0909V98.0762C48.0909 99.097 48.1251 99.7236 48.1935 99.9561C48.2664 100.184 48.3963 100.366 48.5831 100.503C48.77 100.635 49.007 100.701 49.2941 100.701C49.6222 100.701 49.9161 100.612 50.1759 100.435C50.4357 100.252 50.6134 100.029 50.7091 99.7646C50.8048 99.4958 50.8527 98.8418 50.8527 97.8027V94.7402H52.7736V102H50.9894ZM54.4519 102.479L56.6462 102.745C56.6827 103 56.767 103.176 56.8992 103.271C57.0815 103.408 57.3686 103.477 57.7605 103.477C58.2618 103.477 58.6378 103.401 58.8884 103.251C59.0571 103.151 59.1847 102.989 59.2712 102.766C59.3305 102.606 59.3601 102.312 59.3601 101.884V100.824C58.7859 101.608 58.0613 102 57.1863 102C56.211 102 55.4386 101.588 54.8689 100.763C54.4223 100.111 54.199 99.2998 54.199 98.3291C54.199 97.1123 54.4907 96.1826 55.074 95.54C55.6619 94.8975 56.391 94.5762 57.2615 94.5762C58.1593 94.5762 58.8998 94.9704 59.4832 95.7588V94.7402H61.281V101.255C61.281 102.112 61.2104 102.752 61.0691 103.176C60.9278 103.6 60.7296 103.932 60.4744 104.174C60.2192 104.415 59.8774 104.604 59.449 104.741C59.0252 104.878 58.4874 104.946 57.8357 104.946C56.6052 104.946 55.7325 104.734 55.2175 104.311C54.7026 103.891 54.4451 103.358 54.4451 102.711C54.4451 102.647 54.4474 102.57 54.4519 102.479ZM56.1677 98.2197C56.1677 98.9899 56.3158 99.555 56.6121 99.915C56.9129 100.271 57.282 100.448 57.7195 100.448C58.1889 100.448 58.5854 100.266 58.9089 99.9014C59.2325 99.5322 59.3943 98.9876 59.3943 98.2676C59.3943 97.5156 59.2393 96.9574 58.9295 96.5928C58.6196 96.2282 58.2276 96.0459 57.7537 96.0459C57.2934 96.0459 56.9129 96.2259 56.6121 96.5859C56.3158 96.9414 56.1677 97.486 56.1677 98.2197ZM63.0482 93.7559V91.9785H64.9691V93.7559H63.0482ZM63.0482 102V94.7402H64.9691V102H63.0482ZM73.4082 102H71.4873V98.2949C71.4873 97.5111 71.4463 97.0052 71.3643 96.7773C71.2823 96.5449 71.1478 96.3649 70.961 96.2373C70.7787 96.1097 70.5577 96.0459 70.2979 96.0459C69.9652 96.0459 69.6667 96.137 69.4024 96.3193C69.1381 96.5016 68.9558 96.7432 68.8555 97.0439C68.7598 97.3447 68.712 97.9007 68.712 98.7119V102H66.7911V94.7402H68.5752V95.8066C69.2087 94.9863 70.0062 94.5762 70.9678 94.5762C71.3916 94.5762 71.779 94.6536 72.1299 94.8086C72.4808 94.959 72.7452 95.1527 72.9229 95.3896C73.1052 95.6266 73.2305 95.8955 73.2989 96.1963C73.3718 96.4971 73.4082 96.9277 73.4082 97.4883V102ZM78.9661 102V91.9785H81.9945L83.8128 98.8145L85.6107 91.9785H88.6458V102H86.7659V94.1113L84.7767 102H82.8284L80.846 94.1113V102H78.9661ZM91.9375 96.9551L90.1943 96.6406C90.3903 95.9388 90.7275 95.4193 91.206 95.082C91.6845 94.7448 92.3955 94.5762 93.3388 94.5762C94.1956 94.5762 94.8336 94.6787 95.2529 94.8838C95.6722 95.0843 95.9661 95.3418 96.1347 95.6562C96.3079 95.9661 96.3945 96.5381 96.3945 97.3721L96.374 99.6143C96.374 100.252 96.4036 100.724 96.4629 101.029C96.5267 101.33 96.6429 101.654 96.8115 102H94.9111C94.861 101.872 94.7994 101.683 94.7265 101.433C94.6946 101.319 94.6718 101.243 94.6582 101.207C94.33 101.526 93.9791 101.765 93.6054 101.925C93.2317 102.084 92.833 102.164 92.4091 102.164C91.6617 102.164 91.0716 101.961 90.6386 101.556C90.2102 101.15 89.9961 100.637 89.9961 100.018C89.9961 99.6074 90.094 99.2428 90.29 98.9238C90.486 98.6003 90.7594 98.3542 91.1103 98.1855C91.4658 98.0124 91.9762 97.862 92.6416 97.7344C93.5393 97.5658 94.1614 97.4085 94.5078 97.2627V97.0713C94.5078 96.7021 94.4166 96.4401 94.2343 96.2852C94.052 96.1257 93.708 96.0459 93.2021 96.0459C92.8603 96.0459 92.5937 96.1143 92.4023 96.251C92.2109 96.3831 92.056 96.6178 91.9375 96.9551ZM94.5078 98.5137C94.2617 98.5957 93.872 98.6937 93.3388 98.8076C92.8056 98.9215 92.457 99.0332 92.2929 99.1426C92.0423 99.3203 91.917 99.5459 91.917 99.8193C91.917 100.088 92.0172 100.321 92.2177 100.517C92.4183 100.713 92.6735 100.811 92.9834 100.811C93.3297 100.811 93.6601 100.697 93.9746 100.469C94.207 100.296 94.3597 100.084 94.4326 99.833C94.4827 99.6689 94.5078 99.3568 94.5078 98.8965V98.5137ZM104.758 102H102.837V98.2949C102.837 97.5111 102.796 97.0052 102.714 96.7773C102.632 96.5449 102.498 96.3649 102.311 96.2373C102.129 96.1097 101.908 96.0459 101.648 96.0459C101.315 96.0459 101.017 96.137 100.753 96.3193C100.488 96.5016 100.306 96.7432 100.206 97.0439C100.11 97.3447 100.062 97.9007 100.062 98.7119V102H98.1412V94.7402H99.9254V95.8066C100.559 94.9863 101.356 94.5762 102.318 94.5762C102.742 94.5762 103.129 94.6536 103.48 94.8086C103.831 94.959 104.095 95.1527 104.273 95.3896C104.455 95.6266 104.581 95.8955 104.649 96.1963C104.722 96.4971 104.758 96.9277 104.758 97.4883V102ZM108.009 96.9551L106.266 96.6406C106.462 95.9388 106.799 95.4193 107.278 95.082C107.756 94.7448 108.467 94.5762 109.41 94.5762C110.267 94.5762 110.905 94.6787 111.324 94.8838C111.744 95.0843 112.038 95.3418 112.206 95.6562C112.379 95.9661 112.466 96.5381 112.466 97.3721L112.446 99.6143C112.446 100.252 112.475 100.724 112.534 101.029C112.598 101.33 112.714 101.654 112.883 102H110.983C110.933 101.872 110.871 101.683 110.798 101.433C110.766 101.319 110.743 101.243 110.73 101.207C110.402 101.526 110.051 101.765 109.677 101.925C109.303 102.084 108.905 102.164 108.481 102.164C107.733 102.164 107.143 101.961 106.71 101.556C106.282 101.15 106.068 100.637 106.068 100.018C106.068 99.6074 106.166 99.2428 106.362 98.9238C106.558 98.6003 106.831 98.3542 107.182 98.1855C107.537 98.0124 108.048 97.862 108.713 97.7344C109.611 97.5658 110.233 97.4085 110.579 97.2627V97.0713C110.579 96.7021 110.488 96.4401 110.306 96.2852C110.124 96.1257 109.78 96.0459 109.274 96.0459C108.932 96.0459 108.665 96.1143 108.474 96.251C108.282 96.3831 108.128 96.6178 108.009 96.9551ZM110.579 98.5137C110.333 98.5957 109.944 98.6937 109.41 98.8076C108.877 98.9215 108.529 99.0332 108.364 99.1426C108.114 99.3203 107.989 99.5459 107.989 99.8193C107.989 100.088 108.089 100.321 108.289 100.517C108.49 100.713 108.745 100.811 109.055 100.811C109.401 100.811 109.732 100.697 110.046 100.469C110.279 100.296 110.431 100.084 110.504 99.833C110.554 99.6689 110.579 99.3568 110.579 98.8965V98.5137ZM114.049 102.479L116.243 102.745C116.28 103 116.364 103.176 116.496 103.271C116.678 103.408 116.965 103.477 117.357 103.477C117.859 103.477 118.235 103.401 118.485 103.251C118.654 103.151 118.781 102.989 118.868 102.766C118.927 102.606 118.957 102.312 118.957 101.884V100.824C118.383 101.608 117.658 102 116.783 102C115.808 102 115.035 101.588 114.466 100.763C114.019 100.111 113.796 99.2998 113.796 98.3291C113.796 97.1123 114.087 96.1826 114.671 95.54C115.259 94.8975 115.988 94.5762 116.858 94.5762C117.756 94.5762 118.497 94.9704 119.08 95.7588V94.7402H120.878V101.255C120.878 102.112 120.807 102.752 120.666 103.176C120.525 103.6 120.326 103.932 120.071 104.174C119.816 104.415 119.474 104.604 119.046 104.741C118.622 104.878 118.084 104.946 117.432 104.946C116.202 104.946 115.329 104.734 114.814 104.311C114.299 103.891 114.042 103.358 114.042 102.711C114.042 102.647 114.044 102.57 114.049 102.479ZM115.765 98.2197C115.765 98.9899 115.913 99.555 116.209 99.915C116.51 100.271 116.879 100.448 117.316 100.448C117.786 100.448 118.182 100.266 118.506 99.9014C118.829 99.5322 118.991 98.9876 118.991 98.2676C118.991 97.5156 118.836 96.9574 118.526 96.5928C118.216 96.2282 117.824 96.0459 117.35 96.0459C116.89 96.0459 116.51 96.2259 116.209 96.5859C115.913 96.9414 115.765 97.486 115.765 98.2197ZM126.849 99.6895L128.763 100.011C128.517 100.713 128.127 101.248 127.594 101.617C127.066 101.982 126.403 102.164 125.605 102.164C124.343 102.164 123.408 101.752 122.802 100.927C122.324 100.266 122.084 99.432 122.084 98.4248C122.084 97.2217 122.399 96.2806 123.028 95.6016C123.657 94.918 124.452 94.5762 125.414 94.5762C126.494 94.5762 127.346 94.9339 127.97 95.6494C128.595 96.3604 128.893 97.4518 128.866 98.9238H124.053C124.067 99.4935 124.222 99.9378 124.518 100.257C124.814 100.571 125.183 100.729 125.626 100.729C125.926 100.729 126.179 100.646 126.384 100.482C126.589 100.318 126.744 100.054 126.849 99.6895ZM126.959 97.748C126.945 97.1921 126.801 96.7705 126.528 96.4834C126.254 96.1917 125.922 96.0459 125.53 96.0459C125.111 96.0459 124.764 96.1986 124.491 96.5039C124.217 96.8092 124.083 97.224 124.087 97.748H126.959ZM132.137 102H130.216V94.7402H132V95.7725C132.305 95.2848 132.579 94.9635 132.82 94.8086C133.067 94.6536 133.345 94.5762 133.654 94.5762C134.092 94.5762 134.513 94.6969 134.919 94.9385L134.324 96.6133C134.001 96.4036 133.7 96.2988 133.422 96.2988C133.153 96.2988 132.925 96.374 132.738 96.5244C132.552 96.6702 132.403 96.9368 132.294 97.3242C132.189 97.7116 132.137 98.5228 132.137 99.7578V102Z" fill="#444444"/>
</g>
<path d="M140.278 99.585L163.243 114.997L164.148 115.604L163.097 115.895L161.77 116.259C160.912 116.508 159.981 116.743 158.916 117.1C158.628 117.241 158.332 117.355 158.02 117.565C157.712 117.773 157.491 118.019 157.412 118.341C157.234 119.169 157.759 119.815 158.053 120.249L166.619 131.003L166.918 131.378L166.555 131.692L164.015 133.892L163.612 134.24L163.29 133.816L155.191 123.174L155.186 123.166L155.181 123.159C154.557 122.276 154.09 121.781 153.413 121.781C152.628 121.781 152.168 122.375 151.526 123.284L151.521 123.293C151.166 123.773 150.84 124.254 150.523 124.728C150.209 125.198 149.902 125.664 149.595 126.099L149.593 126.103L148.624 127.447L148.033 128.269L147.74 127.3L139.521 100.145L139.116 98.8047L140.278 99.585Z" fill="white" stroke="#333333"/>
</g>
<rect x="0.5" y="0.5" width="287" height="253" rx="3.5" stroke="#333333"/>
<path d="M390 254C415.957 254 437 251.761 437 249C437 246.239 415.957 244 390 244C364.043 244 343 246.239 343 249C343 251.761 364.043 254 390 254Z" fill="#EFEFEF"/>
<path d="M334.631 38.9461C333.522 36.9409 332.373 31.527 332.809 29.2813C333.244 27.0355 334.512 24.9502 336.295 23.5466C336.573 22.7445 336.414 21.8222 336.493 20.9399C336.573 20.0576 337.088 19.0952 337.959 19.0551C338.514 19.015 338.989 19.416 339.267 19.8972C339.544 20.3785 339.623 20.9399 339.703 21.4612C340.297 25.6319 340.376 30.725 339.98 34.9358L334.631 38.9461Z" fill="white"/>
<path d="M334.631 39.4269C334.592 39.4269 334.552 39.4269 334.512 39.4269C334.354 39.3868 334.235 39.3066 334.195 39.1863C333.007 37.0608 331.858 31.5266 332.294 29.1605C332.769 26.8346 334.037 24.7091 335.86 23.2253C335.978 22.8243 335.978 22.3431 335.978 21.8618C335.978 21.541 335.978 21.2202 336.018 20.8994C336.097 19.7765 336.81 18.6135 337.92 18.5333C338.593 18.4932 339.307 18.9343 339.703 19.6161C340.02 20.1374 340.139 20.7389 340.218 21.3806C340.812 25.3909 340.891 30.4839 340.495 34.9755C340.495 35.1359 340.416 35.2562 340.297 35.3364L334.948 39.3467C334.829 39.3868 334.75 39.4269 334.631 39.4269ZM337.999 19.5359C337.959 19.5359 337.999 19.5359 337.999 19.5359C337.444 19.576 337.048 20.2978 337.009 20.9796C336.969 21.2603 336.969 21.541 337.009 21.8618C337.009 22.4634 337.009 23.105 336.81 23.7066C336.771 23.7868 336.731 23.867 336.652 23.9472C334.948 25.2706 333.76 27.2757 333.324 29.4012C332.928 31.3261 333.878 36.0181 334.829 38.2238L339.505 34.6947C339.901 30.3235 339.782 25.431 339.227 21.5811C339.148 21.0598 339.069 20.5785 338.831 20.1775C338.673 19.8166 338.356 19.5359 337.999 19.5359Z" fill="#333333"/>
<path d="M334.195 37.4621C334.195 37.4621 334.235 64.9325 337.286 74.7577C338.276 77.9659 367.002 59.9598 367.002 59.9598L377.026 47.2472C377.026 47.2472 372.192 47.3675 367.002 49.0518C361.811 50.7361 342.08 65.2533 342.08 65.2533C342.08 65.2533 339.069 43.2369 340.099 33.4919" fill="white"/>
<path d="M337.92 75.6396C337.722 75.6396 337.524 75.5995 337.365 75.5594C336.969 75.3989 336.81 75.1182 336.731 74.9177C333.72 65.1326 333.641 38.5846 333.641 37.4617C333.641 37.181 333.878 36.9404 334.116 36.9404C334.393 36.9404 334.592 37.181 334.631 37.4216C334.631 37.7023 334.71 64.9321 337.682 74.5568C337.88 74.7172 339.623 75.1984 352.817 67.6992C359.434 63.9697 365.853 59.9594 366.566 59.5182L375.877 47.728C374.173 47.8483 370.687 48.2895 367.081 49.4524C362.01 51.0967 342.516 65.4535 342.318 65.6139C342.159 65.7342 342.001 65.7342 341.842 65.654C341.684 65.5738 341.565 65.4535 341.565 65.2529C341.525 65.0123 338.593 43.036 339.544 33.3712C339.584 33.0905 339.822 32.89 340.099 32.9301C340.376 32.9702 340.574 33.2108 340.535 33.4915C339.663 41.9933 341.882 60.2 342.437 64.2905C346.003 61.6838 362.049 50.0139 366.804 48.49C372.034 46.8057 376.788 46.6453 376.986 46.6453C377.185 46.6453 377.343 46.7656 377.462 46.926C377.541 47.0864 377.541 47.327 377.422 47.4473L367.398 60.1599C367.358 60.2 367.319 60.2401 367.279 60.2802C364.664 62.0046 342.793 75.6396 337.92 75.6396Z" fill="#333333"/>
<path d="M404.089 52.5006C398.621 48.3299 375.958 46.6055 370.53 47.3675C364.784 48.1695 347.668 60.6816 347.113 61.2832C352.502 64.0503 351.947 71.2287 352.264 71.1084C355.196 70.0657 365.101 65.6544 365.101 65.6544C364.349 70.1459 362.288 75.9608 366.25 79.8107C367.162 80.6929 368.588 99.6616 368.865 106.319H399.929C399.929 98.3382 397.393 88.112 402.346 72.512C402.702 75.0384 402.821 79.5701 403.257 82.257C406.664 80.1315 411.142 79.6904 414.39 80.0914C412.211 65.9752 410.151 57.0724 404.089 52.5006Z" fill="white"/>
<path d="M399.928 107H368.865C368.548 107 368.27 106.759 368.27 106.438C367.914 98.859 366.527 81.7351 365.774 80.2914C362.208 76.8024 363.238 71.7896 364.07 67.7793C364.15 67.4184 364.229 67.0976 364.269 66.7366C361.654 67.8996 354.799 70.8672 352.422 71.7495C352.263 71.8297 352.026 71.7896 351.907 71.6693C351.629 71.4688 351.59 71.188 351.51 70.4662C351.312 68.6616 350.837 63.8893 346.835 61.8441C346.677 61.7639 346.558 61.6035 346.518 61.4029C346.478 61.2024 346.558 61.042 346.677 60.8816C347.192 60.3202 364.348 47.6477 370.449 46.7654C375.561 46.0436 398.7 47.6477 404.445 52.0189C410.943 56.9515 412.924 66.7366 415.024 80.0508C415.063 80.2513 414.984 80.4117 414.865 80.5721C414.746 80.6924 414.548 80.7726 414.35 80.7325C411.339 80.3716 406.941 80.7325 403.573 82.8179C403.415 82.9382 403.177 82.9382 403.018 82.858C402.82 82.7778 402.701 82.6174 402.662 82.4168C402.424 80.8929 402.265 78.8477 402.107 76.8425C402.067 76.4415 402.067 76.0806 402.028 75.6796C399.215 86.0662 399.769 93.9264 400.205 100.343C400.364 102.468 400.483 104.473 400.483 106.318C400.483 106.479 400.403 106.639 400.324 106.759C400.245 106.88 400.086 107 399.928 107ZM369.419 105.757H399.333C399.294 104.113 399.175 102.308 399.056 100.463C398.581 93.3248 397.947 84.5022 401.79 72.3911C401.869 72.1104 402.147 71.95 402.424 71.9901C402.701 72.0302 402.939 72.2307 402.979 72.5114C403.137 73.6744 403.256 75.1582 403.375 76.7623C403.494 78.3665 403.613 80.0107 403.771 81.3341C406.98 79.6097 410.824 79.2086 413.756 79.4492C411.458 64.8919 409.318 57.152 403.771 52.9412C398.581 49.0112 376.234 47.1263 370.648 47.9284C365.735 48.6101 351.431 58.676 348.182 61.1623C352.025 63.6888 352.541 68.421 352.739 70.2657C356.186 68.9423 364.784 65.1325 364.863 65.0924C365.061 65.0122 365.299 65.0523 365.457 65.1726C365.616 65.2929 365.695 65.5335 365.695 65.7341C365.576 66.4158 365.418 67.1377 365.259 67.8996C364.467 71.8297 363.555 76.3212 366.685 79.369C367.914 80.6523 369.221 101.987 369.419 105.757Z" fill="#333333"/>
<path d="M365.06 69.3033C365.298 66.9773 366.804 64.9321 366.685 62.6061C366.645 62.165 366.09 62.0046 365.853 62.3655C364.545 64.3706 363.713 66.8971 363.951 69.3033C364.03 70.0252 364.981 70.0252 365.06 69.3033Z" fill="#333333"/>
<path d="M394.381 46.2046C403.692 48.0493 408.169 47.9691 408.169 47.9691C408.169 47.9691 412.845 37.8632 408.962 25.5516C404.128 10.3526 386.338 5.8611 378.255 10.0318C375.799 11.275 371.044 17.1701 368.984 25.8724C366.923 34.5748 368.27 43.3974 368.27 43.3974C368.27 43.3974 384.515 44.2396 394.381 46.2046Z" fill="url(#paint0_linear_412_8207)"/>
<path d="M408.05 48.6103C407.258 48.6103 402.781 48.5301 394.262 46.8057C384.515 44.8406 368.389 44.0386 368.231 44.0386C367.953 44.0386 367.716 43.7979 367.676 43.5172C367.636 43.1563 366.368 34.4941 368.389 25.7918C370.449 17.0093 375.323 10.9137 377.938 9.55016C382.296 7.3044 389.072 7.50492 395.173 10.1116C402.186 13.0792 407.258 18.4931 409.437 25.4309C413.359 37.8226 408.843 47.8483 408.645 48.2895C408.565 48.49 408.328 48.6504 408.129 48.6504C408.169 48.6103 408.129 48.6103 408.05 48.6103ZM394.5 45.6026C402.107 47.1265 406.505 47.327 407.773 47.3671C408.526 45.4823 411.735 36.419 408.367 25.7517C405.554 16.8489 398.62 12.7985 394.777 11.1543C388.953 8.708 382.574 8.46738 378.532 10.5527C376.432 11.6355 371.638 17.29 369.578 25.9923C367.874 33.3311 368.587 40.8303 368.825 42.7954C371.598 43.036 385.664 43.838 394.5 45.6026Z" fill="#333333"/>
<path d="M388.557 48.2496L389.825 36.6198L379.84 37.0609L380.474 47.8084C379.206 48.6506 378.374 49.9339 378.295 51.3776C378.216 54.0645 380.791 56.3503 384.119 56.4306C387.447 56.5108 390.181 54.4655 390.26 51.7786C390.34 50.4552 389.666 49.1719 388.557 48.2496Z" fill="white"/>
<path d="M384.396 56.9917C384.317 56.9917 384.238 56.9917 384.119 56.9917C380.553 56.8714 377.74 54.3449 377.819 51.4174C377.859 49.9336 378.651 48.5701 379.959 47.6077L379.325 37.1409C379.325 37.0206 379.364 36.8602 379.443 36.7799C379.523 36.6997 379.642 36.6195 379.8 36.6195L389.785 36.1784C389.943 36.1784 390.062 36.2185 390.181 36.3388C390.26 36.4591 390.339 36.5794 390.3 36.7398L389.032 48.0889C390.141 49.1316 390.736 50.455 390.696 51.8586C390.656 54.7058 387.843 56.9917 384.396 56.9917ZM380.394 37.582L380.989 47.8082C380.989 47.9686 380.909 48.1691 380.751 48.2493C379.562 49.0514 378.849 50.2143 378.81 51.4174C378.73 53.8236 381.108 55.8688 384.158 55.949C384.238 55.949 384.317 55.949 384.396 55.949C387.328 55.949 389.705 54.1043 389.785 51.7783C389.824 50.6154 389.27 49.4925 388.279 48.6102C388.16 48.4899 388.081 48.3295 388.121 48.1691L389.349 37.1409L380.394 37.582Z" fill="#333333"/>
<path d="M396.481 32.5295C397.511 27.3562 395.49 22.0627 391.053 19.6164C385.466 16.4884 378.731 16.4884 375.323 22.7043C371.955 28.9203 373.223 39.0262 378.81 42.1542C384.198 45.1619 391.132 42.9161 394.658 37.1814C394.896 37.2616 395.134 37.3017 395.372 37.3418C396.719 37.382 397.868 36.2992 397.907 34.9357C397.947 33.8128 397.353 32.9305 396.481 32.5295Z" fill="white"/>
<path d="M383.961 43.9582C382.099 43.9582 380.276 43.5171 378.572 42.5546C372.55 39.186 371.52 28.6791 374.887 22.423C376.552 19.3752 379.087 17.5706 382.297 17.1294C385.07 16.7685 388.28 17.4503 391.291 19.1346C395.689 21.5809 397.987 26.8343 397.036 32.2482C397.908 32.8097 398.462 33.8122 398.423 34.895C398.383 35.6971 398.066 36.459 397.472 36.9804C396.877 37.5418 396.125 37.8225 395.332 37.7824C395.174 37.7824 395.015 37.7423 394.857 37.7022C392.281 41.7125 388.081 43.9582 383.961 43.9582ZM383.802 18.0117C383.327 18.0117 382.891 18.0518 382.416 18.0919C379.563 18.4929 377.225 20.1371 375.759 22.8641C372.629 28.5989 373.58 38.5845 379.048 41.6323C384.159 44.4796 390.815 42.3541 394.223 36.8199C394.342 36.6194 394.579 36.5392 394.817 36.6194C395.015 36.6996 395.213 36.7397 395.372 36.7397C395.887 36.7397 396.402 36.5793 396.798 36.2184C397.194 35.8575 397.392 35.3762 397.432 34.8148C397.472 34.0127 396.996 33.2508 396.283 32.93C396.085 32.8498 395.966 32.6091 396.006 32.3685C397.036 27.2354 394.936 22.2626 390.815 19.9767C388.478 18.7335 386.021 18.0117 383.802 18.0117Z" fill="#333333"/>
<path d="M386.853 29.04C387.012 27.9172 386.536 26.9949 385.665 26.273C384.872 25.6314 383.723 25.3908 382.97 26.2329C382.336 26.9548 382.653 28.1177 383.485 28.5588C384.397 29.04 385.585 28.3583 385.625 27.3558C385.665 26.8344 384.991 26.5938 384.634 26.9147C384.555 26.9949 384.436 27.1954 384.317 27.2355C384.317 27.2355 384.04 27.3558 384.119 27.1954C384.119 27.1553 384.595 27.3157 384.714 27.3959C385.031 27.5964 385.268 27.9172 385.466 28.1979C385.704 28.5187 385.982 28.7994 386.219 29.1603C386.417 29.5213 386.814 29.3609 386.853 29.04Z" fill="#333333"/>
<path d="M379.76 27.3558C379.8 26.9147 379.76 26.4735 379.523 26.0725C379.285 25.6715 378.889 25.3507 378.532 25.07C377.779 24.5486 376.63 24.4684 376.075 25.3106C375.56 26.0725 375.917 27.1152 376.789 27.3959C377.581 27.6766 378.73 27.035 378.611 26.1126C378.532 25.6314 377.977 25.2705 377.581 25.6715C377.502 25.7517 377.304 25.9522 377.304 26.0324C377.224 26.3933 377.264 26.0725 377.462 26.1928C377.581 26.273 377.74 26.3131 377.858 26.3933C378.096 26.5537 378.294 26.7543 378.492 26.9548C378.691 27.1553 378.968 27.3157 379.166 27.5563C379.404 27.837 379.76 27.6766 379.76 27.3558Z" fill="#333333"/>
<path d="M378.769 30.1229C378.452 30.5239 378.215 30.8848 377.977 31.326C377.779 31.6468 377.501 32.1681 377.462 32.529C377.422 33.3311 378.888 33.3311 379.403 33.2108C379.601 33.1707 379.601 32.9301 379.443 32.8499C379.205 32.6895 379.007 32.5692 378.69 32.529C378.532 32.4889 378.254 32.489 378.135 32.4087C378.135 32.4488 378.135 32.4889 378.135 32.529C378.135 32.4488 378.175 32.3285 378.215 32.2483C378.373 31.5666 378.65 30.9249 379.007 30.2833C379.086 30.163 378.888 29.9625 378.769 30.1229Z" fill="#333333"/>
<path d="M378.928 36.2588C379.562 37.2614 381.108 37.4619 382.178 37.4218C383.287 37.3817 384.872 36.5796 384.555 35.2562C384.515 35.0557 384.198 34.9755 384.08 35.1359C383.366 35.8577 382.97 36.4994 381.9 36.4994C381.147 36.4994 379.998 36.5395 379.444 35.8979C379.206 35.6572 378.77 35.9781 378.928 36.2588Z" fill="#333333"/>
<path d="M380.909 13.36C377.027 15.4855 376.076 18.3729 376.234 18.2125C376.591 17.8516 381.108 16.4079 387.209 24.2279C389.151 26.7544 395.332 33.8927 400.047 31.6469L395.966 20.8192L387.724 15.8464L380.909 13.36Z" fill="url(#paint1_linear_412_8207)"/>
<path d="M375.164 18.4931C376.749 18.7337 378.373 18.3327 379.958 18.854C381.662 19.4155 382.969 20.7789 384.237 21.982C386.298 23.9471 388.16 26.0725 390.141 28.1178C392.875 30.925 398.025 35.4566 401.195 30.8447C401.314 30.6843 401.076 30.4838 400.957 30.6041C399.214 31.9275 397.748 32.2483 395.648 31.1255C394.42 30.4838 393.311 29.6016 392.28 28.6792C390.339 26.9147 388.635 24.8694 386.773 23.0247C383.801 20.0571 379.681 15.8062 375.164 18.3327C375.045 18.3327 375.085 18.4931 375.164 18.4931Z" fill="#333333"/>
<path d="M387.248 86.2271L374.807 87.0693C373.579 87.1495 372.43 86.3474 372.113 85.1042L368.23 69.7448C367.834 68.2209 368.824 66.7371 370.37 66.4965L383.207 64.6117C384.554 64.4111 385.822 65.2934 386.099 66.6569L389.586 83.059C389.943 84.623 388.794 86.1068 387.248 86.2271Z" fill="url(#paint2_linear_412_8207)"/>
<path d="M374.61 87.7105C373.183 87.7105 371.876 86.7079 371.519 85.3043L367.636 69.9449C367.399 69.0627 367.557 68.1403 368.072 67.3783C368.587 66.6164 369.38 66.095 370.251 65.9747L383.089 64.0899C384.753 63.8493 386.298 64.932 386.655 66.6164L390.141 83.0185C390.339 83.9408 390.141 84.9033 389.587 85.6251C389.032 86.3871 388.2 86.8282 387.249 86.9084L374.808 87.7506C374.768 87.7105 374.689 87.7105 374.61 87.7105ZM383.564 65.2128C383.485 65.2128 383.366 65.2128 383.287 65.2529L370.45 67.1377C369.895 67.2179 369.38 67.5387 369.063 68.02C368.746 68.5012 368.667 69.0626 368.785 69.6241L372.668 84.9835C372.906 85.946 373.778 86.5475 374.729 86.5074L387.17 85.6653C387.764 85.6252 388.279 85.3444 388.636 84.8632C388.992 84.382 389.111 83.7804 388.992 83.219L385.506 66.8169C385.347 65.8544 384.515 65.2128 383.564 65.2128Z" fill="#333333"/>
<path d="M412.408 80.733C412.408 80.733 411.1 79.57 408.406 80.1315C405.157 80.7731 404.483 82.0163 404.483 82.0163L406.227 91.4405C406.227 91.4405 392.201 78.6477 392.042 77.6451C391.844 76.1212 388.833 72.1109 388.397 72.5921C387.565 73.4343 387.763 75.5998 386.099 76.4821C384.158 77.4847 380.314 78.2867 381.067 79.8106C381.86 81.5351 384.475 83.2996 386.337 83.0189C387.882 82.8184 387.684 83.059 389.031 82.2168C390.854 84.8235 403.295 102.188 409.396 102.188C414.428 102.148 412.408 80.733 412.408 80.733Z" fill="white"/>
<path d="M409.397 102.629C403.533 102.629 392.558 87.9513 388.913 82.8181C388.16 83.2592 387.922 83.2993 387.288 83.3394C387.09 83.3394 386.813 83.3795 386.416 83.4196C384.277 83.7004 381.503 81.7353 380.632 79.9307C380.473 79.5698 380.434 79.2088 380.592 78.8479C380.988 77.8854 382.494 77.2839 384.118 76.6824C384.792 76.4417 385.426 76.161 385.941 75.9204C386.773 75.4793 387.05 74.597 387.328 73.7549C387.526 73.1533 387.724 72.5518 388.12 72.1507C388.279 71.9903 388.556 71.9101 388.794 71.9903C389.824 72.3513 392.32 75.9605 392.597 77.4443C393.112 78.4068 400.363 85.2644 405.514 89.9965L404.048 82.0562C404.008 81.9358 404.048 81.8155 404.088 81.7353C404.167 81.5749 404.959 80.2916 408.327 79.6099C411.259 79.0083 412.685 80.2916 412.765 80.3317C412.844 80.4119 412.923 80.5322 412.923 80.6525C413.002 81.3744 414.548 98.0572 411.18 101.787C410.625 102.348 410.07 102.629 409.397 102.629ZM389.031 81.6551C389.19 81.6551 389.348 81.7353 389.428 81.8556C395.886 90.959 404.959 101.626 409.397 101.626C409.753 101.626 410.11 101.466 410.387 101.105C412.884 98.2978 412.368 85.8258 411.893 80.9734C411.497 80.7328 410.387 80.1713 408.446 80.5724C406.148 81.0536 405.237 81.8155 404.959 82.0963L406.663 91.2798C406.703 91.4803 406.623 91.721 406.425 91.8012C406.227 91.9215 406.029 91.8814 405.871 91.721C400.601 86.9086 391.686 78.6474 391.528 77.6047C391.369 76.4417 389.348 73.6746 388.556 73.033C388.398 73.2736 388.279 73.6746 388.16 74.0356C387.843 74.998 387.486 76.161 386.258 76.7626C385.703 77.0433 385.069 77.2839 384.356 77.5646C383.207 78.0058 381.622 78.6073 381.424 79.1687C381.385 79.249 381.385 79.2891 381.464 79.4094C382.177 80.8932 384.554 82.5775 386.218 82.3369C386.615 82.2968 386.892 82.2567 387.13 82.2567C387.724 82.2166 387.803 82.2166 388.715 81.615C388.873 81.6952 388.952 81.6551 389.031 81.6551Z" fill="#333333"/>
<path d="M404.801 90.3974C405.237 91.0792 405.871 91.6406 406.505 92.162C406.901 92.4828 407.733 93.3651 408.328 93.0844C408.407 93.0443 408.447 92.9641 408.447 92.8838C408.367 92.3224 407.496 91.8412 407.099 91.5604C406.465 91.0792 405.831 90.638 405.237 90.1167C404.96 89.9162 404.643 90.1568 404.801 90.3974Z" fill="#333333"/>
<path fill-rule="evenodd" clip-rule="evenodd" d="M399.329 101.859C400.408 106.042 403.331 111.287 404.467 117.559C406.125 126.714 407.371 137.818 408.502 149.892C408.784 152.922 408.387 156.054 408.775 159.185C413.078 184.054 415.853 212.068 415.814 235.799C415.024 236.317 413.869 236.615 412.714 236.654C411.573 236.687 410.466 236.462 409.762 235.928C408.77 231.462 404.778 212.265 399.416 190.004C394.887 171.216 388.945 150.809 385.82 136.497L384.569 131.094C384.493 144.537 383.731 158.652 383.237 167.811C383.089 170.568 382.964 172.878 382.887 174.631C382.883 174.751 382.887 175.202 382.897 175.951C382.969 182.474 383.299 212.38 379.394 236.682C378.474 237.249 377.554 237.417 376.715 237.355C375.57 237.268 374.573 236.759 373.916 236.26C373.84 229.233 373.643 219.138 373.087 208.375C372.512 197.372 371.559 185.639 369.968 175.692C369.838 174.885 365.645 157.605 365.506 135.575C365.439 124.567 366.163 109.347 369.158 99.3474C373.452 101.744 378.335 103.953 382.974 104.189C388.787 104.482 394.523 103.42 399.329 101.859Z" fill="#333333"/>
<path fill-rule="evenodd" clip-rule="evenodd" d="M399.382 101.845C399.809 103.492 400.518 105.308 401.294 107.282C402.488 110.322 403.829 113.746 404.519 117.545C405.348 122.122 406.072 127.189 406.733 132.621C407.395 138.048 407.989 143.84 408.554 149.882C408.689 151.294 408.669 152.721 408.655 154.166C408.636 155.828 408.621 157.504 408.828 159.176C411.027 171.903 412.829 185.451 414.061 198.832C415.235 211.598 415.886 224.21 415.867 235.799V235.828L415.843 235.842C415.45 236.101 414.966 236.303 414.439 236.452C413.898 236.601 413.308 236.687 412.719 236.707C412.125 236.726 411.54 236.673 411.013 236.543C410.519 236.423 410.078 236.236 409.733 235.972L409.719 235.962L409.714 235.943C409.527 235.098 409.235 233.743 408.852 231.952C407.179 224.167 403.724 208.101 399.368 190.024C397.331 181.561 394.997 172.758 392.769 164.334C390.052 154.075 387.488 144.378 385.768 136.516L384.617 131.54C384.526 144.844 383.779 158.753 383.29 167.806L383.276 168.056C383.132 170.712 383.012 172.935 382.94 174.64C382.935 174.756 382.94 175.188 382.95 175.904V175.956C383.022 182.483 383.352 212.39 379.447 236.692L379.442 236.716L379.423 236.731C378.982 237.004 378.541 237.187 378.11 237.292C377.63 237.413 377.161 237.441 376.715 237.408C376.193 237.369 375.699 237.24 375.254 237.067C374.717 236.855 374.252 236.577 373.888 236.303L373.869 236.289V236.265C373.83 232.754 373.763 228.47 373.634 223.725C373.504 218.98 373.317 213.764 373.035 208.385C372.747 202.881 372.369 197.199 371.856 191.647C371.348 186.095 370.711 180.677 369.915 175.707C369.905 175.635 369.858 175.428 369.786 175.092C369.057 171.73 365.578 155.621 365.454 135.58C365.415 129.403 365.626 121.896 366.35 114.731C366.915 109.126 367.792 103.728 369.105 99.3331L369.124 99.2706L369.182 99.3043C371.329 100.5 373.619 101.653 375.953 102.532C378.287 103.411 380.664 104.021 382.974 104.141C385.7 104.28 388.413 104.121 391.02 103.747C393.957 103.329 396.766 102.642 399.31 101.816L399.363 101.797L399.382 101.845ZM401.194 107.32C400.427 105.361 399.718 103.564 399.291 101.927C396.756 102.748 393.962 103.43 391.034 103.848C388.422 104.217 385.705 104.381 382.969 104.241C380.645 104.121 378.258 103.511 375.915 102.628C373.595 101.754 371.319 100.611 369.187 99.4243C367.883 103.8 367.011 109.164 366.45 114.74C365.727 121.901 365.516 129.403 365.554 135.58C365.679 155.607 369.158 171.706 369.882 175.068C369.953 175.404 369.997 175.611 370.011 175.687C370.806 180.663 371.444 186.081 371.952 191.637C372.46 197.194 372.843 202.876 373.131 208.38C373.409 213.759 373.6 218.975 373.73 223.725C373.859 228.46 373.926 232.735 373.964 236.241C374.319 236.505 374.765 236.774 375.282 236.975C375.718 237.144 376.202 237.268 376.715 237.307C377.151 237.34 377.611 237.312 378.076 237.192C378.493 237.086 378.915 236.913 379.341 236.654C383.242 212.361 382.911 182.479 382.84 175.956V175.904C382.83 175.183 382.825 174.751 382.83 174.636C382.902 172.926 383.022 170.702 383.165 168.051L383.18 167.801C383.673 158.642 384.435 144.532 384.512 131.099L384.517 130.657L385.868 136.492C387.584 144.349 390.152 154.051 392.865 164.31C395.093 172.729 397.422 181.523 399.464 190C403.825 208.087 407.275 224.147 408.947 231.933C409.331 233.719 409.623 235.074 409.805 235.904C410.136 236.149 410.558 236.332 411.032 236.447C411.55 236.572 412.125 236.625 412.709 236.61C413.289 236.591 413.874 236.51 414.406 236.361C414.914 236.221 415.378 236.025 415.757 235.78C415.776 224.2 415.124 211.602 413.95 198.851C412.724 185.475 410.922 171.927 408.717 159.2V159.195C408.511 157.514 408.526 155.833 408.545 154.171C408.559 152.73 408.574 151.304 408.444 149.901C407.879 143.869 407.284 138.077 406.623 132.64C405.962 127.213 405.238 122.146 404.409 117.574C403.729 113.77 402.387 110.355 401.194 107.32Z" fill="#404040"/>
<path fill-rule="evenodd" clip-rule="evenodd" d="M384.569 130.935C384.497 144.421 383.731 158.614 383.237 167.806C383.088 170.563 382.964 172.873 382.887 174.626C382.882 174.746 382.887 175.197 382.897 175.947C382.969 182.469 383.299 212.376 379.394 236.678C378.474 237.244 377.553 237.412 376.715 237.35C375.569 237.264 374.573 236.755 373.916 236.255C373.84 229.229 373.643 219.133 373.087 208.37C372.512 197.367 371.558 185.634 369.967 175.687C366.345 152.961 364.083 120.945 369.498 99.4051L368.199 99.1649C362.228 122.05 365.031 153.071 368.678 175.971C370.26 185.845 371.209 197.511 371.779 208.461C372.349 219.445 372.541 229.675 372.613 236.678L372.618 237.067L372.876 237.297C373.657 237.989 375.033 238.786 376.638 238.911C377.793 238.997 379.063 238.743 380.323 237.859L380.577 237.681L380.635 237.336C384.622 212.837 384.287 182.522 384.215 175.937C384.205 175.241 384.2 174.813 384.205 174.712C384.277 173.051 384.402 170.712 384.555 167.912C384.986 159.91 385.624 148.124 385.83 136.285L384.569 130.935Z" fill="#333333"/>
<path fill-rule="evenodd" clip-rule="evenodd" d="M372.929 236.255C371.362 236.903 369.445 237.561 367.49 238.234C363.56 239.583 359.468 240.991 357.115 242.715C355.025 244.247 354.22 246 355.763 248.108L355.825 248.19L355.907 248.252C356.841 249.002 361.48 249.126 366.709 248.805C371.774 248.492 377.477 247.801 380.855 246.908L380.936 246.888C381.718 246.711 383.625 246.307 382.115 240.736C382.058 240.529 381.651 239.631 381.272 238.776C380.96 238.085 380.663 237.422 380.63 237.321L379.149 237.811C379.202 237.974 379.518 238.68 379.853 239.42C380.213 240.217 380.591 241.063 380.615 241.144C381.703 245.15 381.061 245.265 380.596 245.371L380.481 245.395C377.203 246.264 371.606 246.941 366.622 247.244C361.878 247.537 357.776 247.532 356.956 247.076C356.194 245.933 356.755 244.91 358.044 243.959C360.196 242.379 364.178 241.01 368.002 239.699C369.948 239.031 371.855 238.373 373.523 237.686L372.929 236.255Z" fill="#333333"/>
<path fill-rule="evenodd" clip-rule="evenodd" d="M377.002 116.027C377.841 116.921 378.79 117.713 379.839 118.294C380.927 118.895 382.125 119.279 383.438 119.327L383.97 119.346L384.032 119.97C385.738 137.294 390.353 154.459 395.802 174.717C400.455 192.022 405.717 211.583 410.298 235.429C411.113 235.866 411.995 235.972 412.857 235.9C413.681 235.828 414.486 235.587 415.2 235.299C415.052 228.23 414.707 217.543 413.935 206.185C413.389 198.121 412.632 189.75 411.578 182.147C411.434 181.095 411.285 180.096 411.142 179.145C410.993 178.185 410.84 177.234 410.681 176.307C410.557 175.582 410.389 174.66 410.226 173.766C409.795 171.394 409.397 169.223 409.172 166.519C407.394 144.978 406.91 123.428 398.754 102.08L399.918 101.643C408.055 120.821 408.669 145.521 410.389 166.384C410.605 168.968 410.993 171.115 411.424 173.464C411.558 174.203 411.697 174.967 411.88 176.024C412.038 176.965 412.196 177.921 412.344 178.891C412.503 179.919 412.651 180.927 412.785 181.912C413.849 189.577 414.611 197.987 415.157 206.07C415.943 217.683 416.883 229.152 417.026 236.26L417.036 236.774L416.629 236.956C414.669 237.835 410.533 238.383 409.047 236.178L408.985 235.852C404.399 211.895 399.305 192.511 394.637 175.159C389.227 155.05 384.641 137.981 382.877 120.744C381.593 120.619 380.409 120.211 379.326 119.61C378.133 118.947 377.064 118.054 376.13 117.046C375.291 116.143 376.173 115.144 377.002 116.027Z" fill="#333333"/>
<path fill-rule="evenodd" clip-rule="evenodd" d="M409.798 235.784C408.399 236.745 405.902 238.354 404.129 239.42C400.568 241.562 396.859 243.8 394.923 245.976C393.203 247.911 392.781 249.794 394.727 251.533L394.803 251.6L394.894 251.648C395.963 252.186 400.53 251.336 405.576 249.924C410.464 248.555 415.898 246.687 419.013 245.106L419.09 245.073C419.818 244.737 421.601 243.939 418.961 238.81C418.86 238.623 418.275 237.826 417.724 237.071C417.274 236.462 416.847 235.876 416.79 235.78L415.443 236.567C415.529 236.711 415.985 237.34 416.469 237.994C416.986 238.7 417.537 239.449 417.571 239.521C419.469 243.209 418.865 243.459 418.434 243.656L418.328 243.704C415.304 245.241 409.971 247.076 405.159 248.42C400.583 249.698 396.567 250.558 395.671 250.284C394.688 249.328 395.019 248.204 396.083 247.008C397.856 245.015 401.469 242.84 404.929 240.755C406.693 239.694 409.185 238.09 410.675 237.067L409.798 235.784Z" fill="#333333"/>
<path fill-rule="evenodd" clip-rule="evenodd" d="M358.336 243.819C358.264 243.867 358.192 243.92 358.12 243.973C356.831 244.919 356.271 245.947 357.033 247.09C357.852 247.546 361.959 247.546 366.698 247.258C371.687 246.951 377.284 246.278 380.557 245.409L380.672 245.385C380.974 245.318 381.358 245.246 381.276 244.079C381.233 243.464 381.065 242.542 380.691 241.159C380.672 241.082 380.289 240.232 379.93 239.434C379.762 239.06 379.594 238.695 379.469 238.402C378.521 238.848 377.581 238.978 376.709 238.911C375.439 238.815 374.313 238.291 373.508 237.739C371.859 238.416 369.986 239.06 368.074 239.718C364.379 240.981 360.526 242.302 358.336 243.819Z" fill="#FEFEFE"/>
<path fill-rule="evenodd" clip-rule="evenodd" d="M404.932 240.76C402.977 241.937 400.974 243.142 399.282 244.328C397.979 245.246 396.858 246.144 396.081 247.013C395.017 248.209 394.687 249.328 395.669 250.289C396.565 250.562 400.581 249.703 405.158 248.425C409.025 247.345 413.232 245.947 416.304 244.641C417.052 244.324 417.732 244.011 418.327 243.709L418.432 243.661C418.863 243.459 419.467 243.214 417.569 239.526C417.531 239.454 416.985 238.704 416.467 237.998C416.271 237.734 416.084 237.475 415.921 237.249C414.32 237.758 412.02 237.994 410.419 237.249C408.91 238.272 406.595 239.756 404.932 240.76Z" fill="#FEFEFE"/>
<path d="M368.699 99.5C368.699 99.5 374.699 104 383.699 104.5C392.699 105 398.699 102 398.699 102" stroke="#333333" stroke-linecap="round" stroke-linejoin="round"/>
<defs>
<filter id="filter0_d_412_8207" x="-9" y="14" width="185" height="135" filterUnits="userSpaceOnUse" color-interpolation-filters="sRGB">
<feFlood flood-opacity="0" result="BackgroundImageFix"/>
<feColorMatrix in="SourceAlpha" type="matrix" values="0 0 0 0 0 0 0 0 0 0 0 0 0 0 0 0 0 0 127 0" result="hardAlpha"/>
<feOffset dy="7"/>
<feGaussianBlur stdDeviation="12.5"/>
<feColorMatrix type="matrix" values="0 0 0 0 0.333333 0 0 0 0 0.333333 0 0 0 0 0.333333 0 0 0 0.15 0"/>
<feBlend mode="normal" in2="BackgroundImageFix" result="effect1_dropShadow_412_8207"/>
<feBlend mode="normal" in="SourceGraphic" in2="effect1_dropShadow_412_8207" result="shape"/>
</filter>
<linearGradient id="paint0_linear_412_8207" x1="367.838" y1="7.01339" x2="407.013" y2="51.0735" gradientUnits="userSpaceOnUse">
<stop stop-color="#FFC671"/>
<stop offset="0.59375" stop-color="#FF7541"/>
<stop offset="1" stop-color="#FF6F3D"/>
</linearGradient>
<linearGradient id="paint1_linear_412_8207" x1="378.334" y1="14.9241" x2="391.558" y2="30.5774" gradientUnits="userSpaceOnUse">
<stop stop-color="#FFAA60"/>
<stop offset="1" stop-color="#FF7541"/>
</linearGradient>
<linearGradient id="paint2_linear_412_8207" x1="368.143" y1="63.7047" x2="390.65" y2="86.0697" gradientUnits="userSpaceOnUse">
<stop stop-color="#FFC671"/>
<stop offset="0.59375" stop-color="#FF7541"/>
<stop offset="1" stop-color="#FF6F3D"/>
</linearGradient>
<clipPath id="clip0_412_8207">
<rect width="288" height="254" rx="4" fill="white"/>
</clipPath>
</defs>
</svg>
