<svg width="448" height="254" viewBox="0 0 448 254" fill="none" xmlns="http://www.w3.org/2000/svg">
<path d="M348.5 253C379.704 253 405 250.761 405 248C405 245.239 379.704 243 348.5 243C317.296 243 292 245.239 292 248C292 250.761 317.296 253 348.5 253Z" fill="#EFEFEF"/>
<path fill-rule="evenodd" clip-rule="evenodd" d="M225.28 47.465L202.497 70.232C200.614 72.1146 200.279 75.0662 201.763 77.3158L206.517 84.7346C208.576 87.9414 208.719 91.9779 207.267 95.4879C205.815 99.0138 202.848 101.742 199.131 102.556L190.515 104.422C187.899 104.997 186.032 107.294 186.032 109.975L186 142.171C186 144.851 187.851 147.164 190.467 147.723L199.083 149.589C202.8 150.403 205.752 153.147 207.203 156.657C208.655 160.167 208.496 164.204 206.438 167.411L201.667 174.829C200.215 177.079 200.535 180.031 202.417 181.913L225.168 204.68C227.051 206.563 230.002 206.898 232.252 205.446L239.671 200.676C242.878 198.618 246.914 198.474 250.424 199.926C253.934 201.394 256.678 204.345 257.476 208.063L259.343 216.678C259.917 219.279 262.214 221.145 264.895 221.145H297.059C299.723 221.145 302.037 219.294 302.611 216.678L304.494 208.063C305.307 204.345 308.052 201.378 311.562 199.926C315.072 198.474 319.108 198.618 322.315 200.676L329.718 205.446C331.967 206.882 334.919 206.563 336.801 204.68L359.584 181.913C361.467 180.031 361.786 177.079 360.35 174.829L355.596 167.411C353.538 164.204 353.378 160.167 354.846 156.657C356.298 153.131 359.265 150.403 362.983 149.589L371.598 147.723C374.215 147.148 376.081 144.835 376.081 142.171L376.097 109.975C376.097 107.294 374.247 104.997 371.63 104.422L363.031 102.556C359.313 101.742 356.362 98.9979 354.91 95.4879C353.458 91.9779 353.617 87.9414 355.676 84.7346L360.446 77.3158C361.898 75.0662 361.579 72.1146 359.696 70.232L336.945 47.465C335.062 45.5664 332.111 45.2473 329.861 46.6992L322.442 51.4696C319.236 53.5277 315.199 53.6713 311.689 52.2194C308.179 50.7676 305.435 47.8 304.637 44.0827L302.771 35.4672C302.196 32.8667 299.899 31 297.218 31H265.022C262.358 31 260.045 32.8507 259.47 35.4672L257.588 44.0827C256.774 47.8 254.03 50.7676 250.52 52.2194C247.01 53.6713 242.973 53.5277 239.766 51.4696L232.364 46.6992C230.13 45.2633 227.178 45.5824 225.28 47.465ZM281.049 166.265C302.642 166.265 320.146 148.761 320.146 127.168C320.146 105.575 302.642 88.0707 281.049 88.0707C259.456 88.0707 241.952 105.575 241.952 127.168C241.952 148.761 259.456 166.265 281.049 166.265Z" fill="#EFEFEF"/>
<mask id="path-3-inside-1_412_8982" fill="white">
<path fill-rule="evenodd" clip-rule="evenodd" d="M429.237 32.8389L437.441 39.5899C438.119 40.1482 438.323 41.1066 437.907 41.8925L436.582 44.4796C436.009 45.598 436.09 46.9279 436.678 48.0342C437.267 49.1458 438.328 49.9472 439.575 50.0962L442.463 50.4351C443.34 50.5405 444.026 51.2355 444.111 52.1155L445.146 62.686C445.231 63.566 444.697 64.3845 443.855 64.6511L441.086 65.5379C439.891 65.9233 439.009 66.9182 438.644 68.1169C438.279 69.3155 438.46 70.6358 439.238 71.6233L441.04 73.9075C441.588 74.6 441.577 75.5793 441.019 76.2573L434.273 84.4563C433.715 85.1343 432.756 85.3381 431.971 84.933L429.384 83.6026C428.265 83.0288 426.935 83.11 425.829 83.6983C424.723 84.2919 423.916 85.3483 423.772 86.5942L423.433 89.4824C423.327 90.3546 422.632 91.0405 421.752 91.1258L411.191 92.1486C410.317 92.2334 409.498 91.6992 409.226 90.8584L408.334 88.0894C407.949 86.8947 406.953 86.0076 405.755 85.6425C404.556 85.2774 403.235 85.4529 402.248 86.2307L399.969 88.0324C399.276 88.5755 398.297 88.5645 397.619 88.0063L389.414 81.2553C388.736 80.6971 388.537 79.7381 388.937 78.9538L390.262 76.3666C390.836 75.2482 390.76 73.9178 390.167 72.812C389.578 71.7004 388.517 70.899 387.27 70.7501L384.382 70.4111C383.505 70.3057 382.818 69.6055 382.733 68.7307L381.704 58.1597C381.619 57.2797 382.154 56.4665 382.994 56.1947L385.759 55.3083C386.953 54.9229 387.835 53.928 388.2 52.7293C388.565 51.5307 388.385 50.2104 387.607 49.2229L385.805 46.9387C385.256 46.2462 385.267 45.2669 385.826 44.5889L392.572 36.39C393.13 35.7067 394.089 35.5081 394.873 35.9132L397.461 37.2437C398.579 37.8174 399.909 37.7362 401.016 37.1479C402.122 36.5596 402.929 35.4979 403.072 34.252L403.411 31.3638C403.517 30.4916 404.212 29.8057 405.092 29.7204L415.664 28.6966C416.539 28.6118 417.357 29.146 417.629 29.9868L418.521 32.7558C418.906 33.9505 419.902 34.8376 421.1 35.2027C422.299 35.5678 423.62 35.3923 424.607 34.6145L426.886 32.8128C427.574 32.2703 428.553 32.2812 429.237 32.8389ZM414.276 73.6545C407.168 74.112 401.035 68.7203 400.577 61.612C400.12 54.5037 405.511 48.3704 412.62 47.9129C419.728 47.4555 425.861 52.8471 426.319 59.9555C426.776 67.0638 421.384 73.1971 414.276 73.6545Z"/>
</mask>
<path d="M437.441 39.5899L438.077 38.8177L438.077 38.8179L437.441 39.5899ZM429.237 32.8389L429.869 32.0643L429.872 32.0667L429.237 32.8389ZM437.907 41.8925L437.017 41.4365L437.024 41.4249L437.907 41.8925ZM436.582 44.4796L437.472 44.9355L437.472 44.9361L436.582 44.4796ZM436.678 48.0342L437.561 47.5647L437.562 47.5661L436.678 48.0342ZM439.575 50.0962L439.458 51.0893L439.456 51.0891L439.575 50.0962ZM442.463 50.4351L442.579 49.4419L442.582 49.4422L442.463 50.4351ZM444.111 52.1155L443.116 52.2129L443.116 52.2119L444.111 52.1155ZM445.146 62.686L446.141 62.5886L446.141 62.5896L445.146 62.686ZM443.855 64.6511L443.55 63.6987L443.553 63.6978L443.855 64.6511ZM441.086 65.5379L440.779 64.5862L440.781 64.5856L441.086 65.5379ZM438.644 68.1169L439.601 68.4082L439.601 68.4082L438.644 68.1169ZM439.238 71.6233L438.453 72.2427L438.452 72.242L439.238 71.6233ZM441.04 73.9075L440.256 74.5283L440.255 74.527L441.04 73.9075ZM441.019 76.2573L440.247 75.6219L440.247 75.6217L441.019 76.2573ZM434.273 84.4563L435.045 85.0916L435.045 85.0919L434.273 84.4563ZM431.971 84.933L432.428 84.0436L432.43 84.0444L431.971 84.933ZM429.384 83.6026L429.84 82.7128L429.841 82.7132L429.384 83.6026ZM425.829 83.6983L425.356 82.8172L425.359 82.8154L425.829 83.6983ZM423.772 86.5942L424.766 86.7088L424.765 86.7108L423.772 86.5942ZM423.433 89.4824L424.427 89.599L424.426 89.603L423.433 89.4824ZM421.752 91.1258L421.849 92.1211L421.849 92.1211L421.752 91.1258ZM411.191 92.1486L411.095 91.1533L411.191 92.1486ZM409.226 90.8584L408.275 91.166L408.274 91.1651L409.226 90.8584ZM408.334 88.0894L409.286 87.7824L409.286 87.7828L408.334 88.0894ZM405.755 85.6425L405.463 86.5991L405.755 85.6425ZM402.248 86.2307L401.628 85.4462L401.629 85.4451L402.248 86.2307ZM399.969 88.0324L400.589 88.8169L400.586 88.8196L399.969 88.0324ZM397.619 88.0063L398.254 87.2341L398.254 87.2343L397.619 88.0063ZM389.414 81.2553L388.778 82.0275L388.778 82.0273L389.414 81.2553ZM388.937 78.9538L388.046 78.4995L388.047 78.4979L388.937 78.9538ZM390.262 76.3666L389.372 75.9107L389.373 75.9102L390.262 76.3666ZM390.167 72.812L389.285 73.2849L389.283 73.2801L390.167 72.812ZM387.27 70.7501L387.387 69.7569L387.389 69.7571L387.27 70.7501ZM384.382 70.4111L384.265 71.4043L384.263 71.404L384.382 70.4111ZM382.733 68.7307L383.729 68.6338L383.729 68.6343L382.733 68.7307ZM381.704 58.1597L380.709 58.2566L380.709 58.2561L381.704 58.1597ZM382.994 56.1947L382.687 55.2431L382.689 55.2424L382.994 56.1947ZM385.759 55.3083L386.066 56.26L386.064 56.2605L385.759 55.3083ZM387.607 49.2229L388.392 48.6035L388.393 48.6042L387.607 49.2229ZM385.805 46.9387L386.589 46.3179L386.59 46.3193L385.805 46.9387ZM385.826 44.5889L386.598 45.2243L386.598 45.2245L385.826 44.5889ZM392.572 36.39L393.347 37.0224L393.344 37.0253L392.572 36.39ZM394.873 35.9132L394.416 36.8026L394.415 36.8018L394.873 35.9132ZM397.461 37.2437L397.005 38.1334L397.004 38.133L397.461 37.2437ZM401.016 37.1479L400.546 36.265L400.546 36.265L401.016 37.1479ZM403.072 34.252L402.079 34.1374L402.079 34.1354L403.072 34.252ZM403.411 31.3638L402.418 31.2472L402.419 31.2433L403.411 31.3638ZM405.092 29.7204L404.996 28.7251L405.092 29.7204ZM415.664 28.6966L415.567 27.7012L415.664 28.6966ZM417.629 29.9868L418.58 29.6792L418.581 29.6802L417.629 29.9868ZM418.521 32.7558L417.569 33.0628L417.569 33.0624L418.521 32.7558ZM421.1 35.2027L420.809 36.1593L420.809 36.1593L421.1 35.2027ZM424.607 34.6145L425.227 35.399L425.226 35.4001L424.607 34.6145ZM426.886 32.8128L426.266 32.0283L426.267 32.0276L426.886 32.8128ZM436.806 40.3621L428.601 33.6111L429.872 32.0667L438.077 38.8177L436.806 40.3621ZM437.024 41.4249C437.213 41.0663 437.124 40.6237 436.806 40.3618L438.077 38.8179C439.115 39.6726 439.433 41.1469 438.791 42.36L437.024 41.4249ZM435.692 44.0237L437.017 41.4366L438.798 42.3483L437.472 44.9355L435.692 44.0237ZM435.795 48.5038C435.074 47.1479 434.95 45.4702 435.693 44.0231L437.472 44.9361C437.067 45.7257 437.105 46.708 437.561 47.5647L435.795 48.5038ZM439.456 51.0891C437.847 50.8969 436.519 49.8696 435.794 48.5023L437.562 47.5661C438.015 48.422 438.809 48.9975 439.693 49.1032L439.456 51.0891ZM442.346 51.4283L439.458 51.0893L439.691 49.103L442.579 49.4419L442.346 51.4283ZM443.116 52.2119C443.076 51.8041 442.759 51.4779 442.343 51.428L442.582 49.4422C443.921 49.603 444.976 50.6668 445.107 52.0191L443.116 52.2119ZM444.15 62.7834L443.116 52.2129L445.107 52.0182L446.141 62.5886L444.15 62.7834ZM443.553 63.6978C443.939 63.5755 444.191 63.1989 444.15 62.7824L446.141 62.5896C446.271 63.9332 445.454 65.1935 444.157 65.6044L443.553 63.6978ZM440.781 64.5856L443.55 63.6987L444.16 65.6034L441.391 66.4903L440.781 64.5856ZM437.688 67.8255C438.135 66.3552 439.234 65.0847 440.779 64.5862L441.393 66.4896C440.549 66.7619 439.883 67.4813 439.601 68.4082L437.688 67.8255ZM438.452 72.242C437.448 70.9667 437.239 69.2978 437.688 67.8255L439.601 68.4082C439.319 69.3332 439.472 70.3049 440.023 71.0046L438.452 72.242ZM440.255 74.527L438.453 72.2427L440.023 71.0039L441.825 73.2881L440.255 74.527ZM440.247 75.6217C440.506 75.3073 440.512 74.8514 440.256 74.5283L441.824 73.2868C442.665 74.3486 442.649 75.8512 441.791 76.893L440.247 75.6217ZM433.501 83.8209L440.247 75.6219L441.791 76.8927L435.045 85.0916L433.501 83.8209ZM432.43 84.0444C432.791 84.231 433.239 84.1391 433.501 83.8206L435.045 85.0919C434.19 86.1295 432.721 86.4453 431.512 85.8215L432.43 84.0444ZM429.841 82.7132L432.428 84.0436L431.514 85.8223L428.926 84.4919L429.841 82.7132ZM425.359 82.8154C426.715 82.0943 428.393 81.9704 429.84 82.7128L428.927 84.4923C428.137 84.0872 427.155 84.1256 426.298 84.5812L425.359 82.8154ZM422.779 86.4796C422.965 84.8641 424.003 83.5433 425.356 82.8172L426.302 84.5794C425.443 85.0405 424.867 85.8325 424.766 86.7088L422.779 86.4796ZM422.44 89.3659L422.779 86.4777L424.765 86.7108L424.426 89.599L422.44 89.3659ZM421.656 90.1304C422.065 90.0908 422.391 89.7721 422.441 89.3619L424.426 89.603C424.264 90.9371 423.2 91.9903 421.849 92.1211L421.656 90.1304ZM411.095 91.1533L421.656 90.1304L421.849 92.1211L411.288 93.144L411.095 91.1533ZM410.178 90.5508C410.305 90.9437 410.687 91.1928 411.095 91.1533L411.288 93.144C409.947 93.2739 408.691 92.4548 408.275 91.166L410.178 90.5508ZM409.286 87.7828L410.178 90.5517L408.274 91.1651L407.382 88.3961L409.286 87.7828ZM406.046 84.6859C407.519 85.1344 408.788 86.239 409.286 87.7824L407.382 88.3964C407.11 87.5505 406.388 86.8808 405.463 86.5991L406.046 84.6859ZM401.629 85.4451C402.907 84.4387 404.577 84.2385 406.046 84.6859L405.463 86.5991C404.535 86.3164 403.564 86.4671 402.867 87.0163L401.629 85.4451ZM399.349 87.248L401.628 85.4462L402.868 87.0151L400.589 88.8169L399.349 87.248ZM398.254 87.2343C398.569 87.4933 399.027 87.4999 399.352 87.2453L400.586 88.8196C399.525 89.651 398.024 89.6358 396.983 88.7782L398.254 87.2343ZM390.049 80.4831L398.254 87.2341L396.983 88.7785L388.778 82.0275L390.049 80.4831ZM389.828 79.408C389.64 79.7758 389.735 80.2244 390.049 80.4834L388.778 82.0273C387.737 81.1697 387.434 79.7003 388.046 78.4995L389.828 79.408ZM391.152 76.8225L389.827 79.4097L388.047 78.4979L389.372 75.9107L391.152 76.8225ZM391.048 72.339C391.778 73.6993 391.893 75.3785 391.152 76.8231L389.373 75.9102C389.779 75.1179 389.742 74.1363 389.285 73.2849L391.048 72.339ZM387.389 69.7571C388.997 69.9494 390.326 70.9766 391.05 72.3439L389.283 73.2801C388.829 72.4242 388.036 71.8487 387.151 71.743L387.389 69.7571ZM384.498 69.4179L387.387 69.7569L387.154 71.7432L384.265 71.4043L384.498 69.4179ZM383.729 68.6343C383.768 69.0385 384.087 69.3685 384.501 69.4183L384.263 71.404C382.922 71.243 381.868 70.1725 381.738 68.8271L383.729 68.6343ZM382.7 58.0628L383.729 68.6338L381.738 68.8276L380.709 58.2566L382.7 58.0628ZM383.302 57.1462C382.908 57.2737 382.66 57.6513 382.7 58.0633L380.709 58.2561C380.578 56.908 381.4 55.6592 382.687 55.2431L383.302 57.1462ZM386.064 56.2605L383.3 57.1469L382.689 55.2424L385.453 54.356L386.064 56.2605ZM389.157 53.0207C388.709 54.4911 387.611 55.7615 386.066 56.26L385.452 54.3566C386.296 54.0843 386.961 53.3649 387.244 52.438L389.157 53.0207ZM388.393 48.6042C389.397 49.8795 389.605 51.5484 389.157 53.0207L387.244 52.438C387.525 51.513 387.372 50.5413 386.821 49.8416L388.393 48.6042ZM386.59 46.3193L388.392 48.6035L386.822 49.8423L385.02 47.5581L386.59 46.3193ZM386.598 45.2245C386.339 45.5389 386.333 45.9948 386.589 46.3179L385.021 47.5594C384.18 46.4976 384.196 44.995 385.054 43.9533L386.598 45.2245ZM393.344 37.0253L386.598 45.2243L385.053 43.9535L391.8 35.7546L393.344 37.0253ZM394.415 36.8018C394.049 36.613 393.605 36.706 393.346 37.0223L391.797 35.7576C392.654 34.7074 394.128 34.4031 395.332 35.0247L394.415 36.8018ZM397.004 38.133L394.416 36.8026L395.331 35.0239L397.918 36.3543L397.004 38.133ZM401.485 38.0308C400.129 38.7519 398.452 38.8758 397.005 38.1334L397.918 36.3539C398.707 36.7591 399.689 36.7206 400.546 36.265L401.485 38.0308ZM404.066 34.3666C403.88 35.9798 402.844 37.3083 401.485 38.0308L400.546 36.265C401.4 35.8108 401.978 35.0161 402.079 34.1374L404.066 34.3666ZM404.404 31.4803L404.066 34.3685L402.079 34.1354L402.418 31.2472L404.404 31.4803ZM405.189 30.7158C404.779 30.7554 404.454 31.0741 404.404 31.4843L402.419 31.2433C402.581 29.9091 403.645 28.8559 404.996 28.7251L405.189 30.7158ZM415.76 29.6919L405.189 30.7158L404.996 28.7251L415.567 27.7012L415.76 29.6919ZM416.677 30.2944C416.55 29.9015 416.169 29.6524 415.76 29.6919L415.567 27.7012C416.909 27.5713 418.164 28.3904 418.58 29.6792L416.677 30.2944ZM417.569 33.0624L416.677 30.2935L418.581 29.6802L419.473 32.4491L417.569 33.0624ZM420.809 36.1593C419.336 35.7108 418.067 34.6062 417.569 33.0628L419.473 32.4488C419.746 33.2947 420.467 33.9644 421.392 34.2461L420.809 36.1593ZM425.226 35.4001C423.948 36.4065 422.278 36.6067 420.809 36.1593L421.392 34.2461C422.32 34.5288 423.291 34.3781 423.989 33.8289L425.226 35.4001ZM427.506 33.5972L425.227 35.399L423.987 33.8301L426.266 32.0283L427.506 33.5972ZM428.604 33.6136C428.28 33.3493 427.822 33.3487 427.506 33.5979L426.267 32.0276C427.327 31.1918 428.826 31.213 429.869 32.0643L428.604 33.6136ZM401.575 61.5478C401.997 68.105 407.655 73.0785 414.212 72.6566L414.34 74.6524C406.681 75.1454 400.072 69.3357 399.579 61.6762L401.575 61.5478ZM412.684 48.9109C406.127 49.3328 401.153 54.9906 401.575 61.5478L399.579 61.6762C399.086 54.0167 404.896 47.4079 412.555 46.915L412.684 48.9109ZM425.321 60.0197C424.899 53.4625 419.241 48.4889 412.684 48.9109L412.555 46.915C420.215 46.4221 426.824 52.2317 427.317 59.8912L425.321 60.0197ZM414.212 72.6566C420.769 72.2346 425.743 66.5769 425.321 60.0197L427.317 59.8912C427.81 67.5507 422 74.1595 414.34 74.6524L414.212 72.6566Z" fill="#CCCCCC" mask="url(#path-3-inside-1_412_8982)"/>
<path fill-rule="evenodd" clip-rule="evenodd" d="M346.036 24.4998C346.075 22.6853 346.008 21.1683 345.859 19.9058C345.671 18.3649 345.35 17.1792 344.927 16.2815C344.615 15.6191 344.144 14.9806 343.572 14.467C343.029 13.9725 342.386 13.5789 341.694 13.3677C340.829 13.1037 339.989 13.1565 339.172 13.4061C338.409 13.6365 337.678 14.0397 336.963 14.5102C336.607 14.7406 336.3 14.9614 336.007 15.1726C334.791 16.0415 333.821 16.7376 332.078 16.2671C331.957 16.2335 331.842 16.1759 331.746 16.0943C331.607 15.9743 331.496 15.8111 331.439 15.6191C331.376 15.4127 331.371 15.1726 331.443 14.9038C331.516 14.6254 331.679 14.323 331.943 14.0109L331.977 13.9629C332.073 13.8285 332.193 13.6941 332.332 13.5597C333.504 12.4172 335.843 11.5339 338.505 11.3515C341.185 11.1691 344.163 11.7212 346.565 13.4589C347.026 13.7901 347.463 14.1646 347.876 14.5918C348.851 15.5951 349.601 16.992 349.99 18.8929C350.326 20.5395 350.393 22.5604 350.105 25.0278C349.97 24.783 349.807 24.567 349.615 24.3846C349.245 24.039 348.774 23.8277 348.217 23.7989C347.598 23.7653 346.863 23.9718 346.036 24.4998Z" fill="#666666"/>
<path fill-rule="evenodd" clip-rule="evenodd" d="M346.502 13.5464C344.126 11.8271 341.175 11.2781 338.512 11.4593C335.865 11.6408 333.555 12.5194 332.408 13.637C332.272 13.768 332.157 13.8977 332.065 14.0253L332.026 14.081C331.77 14.384 331.616 14.672 331.549 14.9309C331.481 15.1826 331.487 15.4029 331.543 15.5878C331.594 15.7594 331.693 15.9053 331.817 16.0122C331.9 16.0824 332 16.1331 332.107 16.163C332.958 16.3925 333.613 16.3364 334.204 16.1207C334.8 15.9028 335.334 15.5212 335.944 15.0849C336.237 14.8737 336.546 14.6516 336.904 14.4197C337.623 13.947 338.363 13.5375 339.141 13.3027C339.975 13.0481 340.837 12.993 341.726 13.2644C342.435 13.4809 343.093 13.8835 343.645 14.3869C344.227 14.9101 344.707 15.5601 345.025 16.2355C345.454 17.1467 345.778 18.3444 345.966 19.8928C346.111 21.115 346.178 22.5728 346.149 24.3039C346.92 23.8442 347.619 23.6583 348.224 23.6911C348.806 23.7213 349.301 23.9429 349.689 24.3057C349.816 24.4258 349.931 24.5601 350.033 24.7061C350.279 22.3871 350.204 20.4782 349.884 18.9146C349.499 17.0307 348.758 15.6534 347.799 14.6671C347.391 14.2446 346.958 13.8739 346.502 13.5464ZM346.629 13.3712C344.201 11.6152 341.196 11.0601 338.498 11.2438C335.823 11.4271 333.455 12.3149 332.258 13.4822C332.115 13.6198 331.99 13.7591 331.889 13.9001L331.858 13.9449C331.588 14.2645 331.416 14.5796 331.34 14.8763C331.263 15.162 331.267 15.4225 331.336 15.6502C331.4 15.8625 331.522 16.0431 331.676 16.1761C331.785 16.269 331.916 16.3338 332.049 16.3711L332.05 16.3714C332.942 16.6121 333.643 16.5554 334.278 16.3236C334.903 16.0953 335.458 15.6983 336.058 15.2691L336.07 15.2605C336.363 15.0493 336.669 14.8296 337.022 14.6008C337.734 14.1328 338.455 13.7355 339.204 13.5095C340.004 13.2649 340.823 13.2144 341.663 13.471C342.337 13.6768 342.967 14.0614 343.5 14.5468C344.061 15.0508 344.524 15.6781 344.83 16.3275C345.246 17.2117 345.566 18.3853 345.752 19.9187C345.9 21.1751 345.967 22.6868 345.929 24.4975L345.925 24.6997L346.095 24.5908C346.908 24.0711 347.621 23.8747 348.212 23.9068C348.743 23.9342 349.19 24.135 349.542 24.4632C349.725 24.6372 349.881 24.844 350.011 25.0798L350.174 25.376L350.213 25.0404C350.502 22.5647 350.435 20.5318 350.096 18.8713C349.704 16.9535 348.946 15.5369 347.954 14.5167C347.537 14.0847 347.095 13.7061 346.629 13.3712Z" fill="#666666"/>
<path fill-rule="evenodd" clip-rule="evenodd" d="M330.334 15.2446C329.47 16.2143 328.763 17.4576 328.23 18.8833C327.073 21.994 326.732 25.9975 327.366 29.8234C328.005 33.683 329.638 37.3889 332.409 39.8659C333.485 40.8259 334.734 41.6036 336.161 42.1365C336.372 42.2181 339.518 43.1013 343.256 39.8899C345.1 38.3009 347.132 35.6943 349.068 31.4556L347.742 30.8507C345.907 34.8735 344.015 37.3169 342.309 38.781C339.182 41.4692 336.824 40.8259 336.67 40.7683C335.421 40.3075 334.331 39.6258 333.389 38.781C330.882 36.5392 329.402 33.1453 328.812 29.5882C328.216 26.0023 328.528 22.2676 329.599 19.3922C330.07 18.1345 330.68 17.0448 331.425 16.2143L330.334 15.2446Z" fill="#333333"/>
<path fill-rule="evenodd" clip-rule="evenodd" d="M346.003 25.5367C346.095 23.2518 346.037 21.3988 345.854 19.9059C345.667 18.365 345.345 17.1793 344.922 16.2816C344.61 15.6191 344.14 14.9807 343.568 14.467C343.025 13.9726 342.381 13.579 341.69 13.3677C340.825 13.1037 339.985 13.1565 339.168 13.4062C338.404 13.6366 337.674 14.0398 336.958 14.5102C336.603 14.7407 336.295 14.9615 336.002 15.1727C334.787 16.0416 333.817 16.7376 332.073 16.2672C331.953 16.2336 331.838 16.176 331.742 16.0944C331.602 15.9744 331.492 15.8111 331.434 15.6191C331.372 15.4127 331.367 15.1727 331.439 14.9039C331.511 14.6255 331.675 14.323 331.939 14.011L331.972 13.963C332.068 13.8286 332.189 13.6942 332.328 13.5598C333.5 12.4173 335.839 11.534 338.5 11.3516C341.181 11.1692 344.159 11.7212 346.56 13.459C347.022 13.7902 347.459 14.1646 347.872 14.5918C348.847 15.5951 349.596 16.992 349.985 18.893C350.346 20.6643 350.394 22.8629 350.033 25.5848L349.981 25.9976C349.798 27.4233 349.683 28.3114 348.804 29.5307C348.679 29.7035 348.535 29.8907 348.367 30.0923C348.223 30.2699 348.054 30.462 347.862 30.6636L348.03 31.2684L348.929 31.6573C349.116 31.4556 349.303 31.2444 349.486 31.0188C349.654 30.8172 349.817 30.606 349.981 30.3803C351.071 28.8634 351.205 27.8361 351.422 26.1848L351.474 25.772C351.859 22.8821 351.801 20.5203 351.407 18.6002C350.96 16.4016 350.072 14.7647 348.909 13.5742C348.439 13.0893 347.934 12.6621 347.406 12.2781C344.697 10.3147 341.373 9.69545 338.39 9.89706C335.388 10.0987 332.698 11.15 331.295 12.5133C331.113 12.6909 330.949 12.8781 330.805 13.0701C330.392 13.555 330.137 14.0494 330.013 14.5246C329.868 15.0671 329.888 15.5855 330.027 16.0416C330.171 16.512 330.44 16.9104 330.786 17.2033C331.05 17.4241 331.357 17.5873 331.684 17.6785C334.095 18.3266 335.311 17.4529 336.843 16.3584C337.136 16.152 337.439 15.9312 337.746 15.7295C338.356 15.3263 338.971 14.9855 339.581 14.7983C340.138 14.6303 340.695 14.5918 341.253 14.7599C341.723 14.9039 342.175 15.1823 342.569 15.5423C342.996 15.9312 343.352 16.4112 343.587 16.9008C343.947 17.6593 344.221 18.6962 344.389 20.0739C344.548 21.394 344.61 23.0069 344.548 24.9703L344.918 25.4887L346.003 25.5367Z" fill="#333333"/>
<path fill-rule="evenodd" clip-rule="evenodd" d="M345.682 25.988C346.705 25.0855 347.541 24.7351 348.175 24.7639C348.492 24.7783 348.751 24.8983 348.958 25.0855C349.179 25.2919 349.337 25.5847 349.433 25.9352C349.688 26.8472 349.496 28.1001 348.775 29.2282C348.592 29.5163 348.285 29.8379 347.91 30.0971C347.728 30.2219 347.531 30.3275 347.329 30.4043C346.565 30.6876 346.945 31.5276 347.406 31.4028C347.786 31.2972 348.146 31.1196 348.463 30.9036C348.948 30.5723 349.351 30.1403 349.596 29.7563C350.471 28.3882 350.692 26.8376 350.375 25.6807C350.23 25.1575 349.976 24.7063 349.62 24.3798C349.251 24.0342 348.78 23.823 348.223 23.7942C347.344 23.751 346.239 24.183 344.971 25.3159C344.519 25.7239 345.067 26.5304 345.682 25.988Z" fill="#333333"/>
<path fill-rule="evenodd" clip-rule="evenodd" d="M347.435 26.468C347.579 26.4392 347.704 26.4392 347.81 26.4632C347.93 26.492 348.026 26.5592 348.083 26.6504C348.151 26.7608 348.189 26.9097 348.189 27.0825C348.189 27.4425 348.04 27.9033 347.733 28.3786C347.627 28.5418 347.454 28.729 347.238 28.873C347.156 28.9306 347.065 28.9834 346.969 29.0218C346.455 29.2427 346.623 29.6603 347.036 29.5163C347.204 29.4587 347.368 29.3723 347.512 29.2763C347.781 29.0938 348.006 28.8538 348.141 28.6426C348.496 28.0858 348.674 27.5337 348.674 27.0825C348.674 26.8137 348.612 26.5736 348.492 26.3864C348.362 26.1848 348.17 26.0456 347.915 25.988C347.766 25.9544 347.593 25.9496 347.396 25.9784C346.758 26.084 346.83 26.588 347.435 26.468Z" fill="#333333"/>
<path fill-rule="evenodd" clip-rule="evenodd" d="M346.935 46.9418L346.397 36.0305L344.937 36.0977L345.479 47.009L346.935 46.9418Z" fill="#333333"/>
<path fill-rule="evenodd" clip-rule="evenodd" d="M335.157 46.8842L335.954 41.0325L334.508 40.8357L333.706 46.6874L335.157 46.8842Z" fill="#333333"/>
<path fill-rule="evenodd" clip-rule="evenodd" d="M331.435 46.5146C331.238 47.2251 330.805 49.4333 330.969 51.1566C331.084 52.3903 331.512 53.432 332.501 53.7824C333.25 54.0465 334.437 53.9552 335.907 52.9568C336.896 52.2799 338.063 51.171 339.356 49.4285L338.184 48.5596C336.997 50.1533 335.955 51.1566 335.08 51.7519C334.067 52.4383 333.37 52.5439 332.981 52.4095C332.65 52.2895 332.482 51.7279 332.419 51.0222C332.275 49.5053 332.664 47.5419 332.837 46.9083L331.435 46.5146Z" fill="#333333"/>
<path fill-rule="evenodd" clip-rule="evenodd" d="M336.665 29.8474C334.278 30.7931 333.437 29.6842 333.471 28.6521C333.509 27.26 334.816 27.5384 334.551 25.2822C335.685 26.8712 333.13 28.6329 334.657 29.4634C334.984 29.641 335.503 29.8234 336.665 29.8474Z" fill="#333333"/>
<path fill-rule="evenodd" clip-rule="evenodd" d="M335.388 33.2029C338.179 35.4543 339.192 31.4604 339.682 30.8459C339.543 35.8048 335.738 35.4591 335.388 33.2029Z" fill="#333333"/>
<path fill-rule="evenodd" clip-rule="evenodd" d="M337.568 24.4615C339.053 20.9524 342.991 22.9542 343.006 24.8312C342.819 24.6248 341.992 24.1303 341.522 24.0727C341.358 26.1609 338.861 26.5977 338.188 24.3703C337.924 24.3559 337.765 24.3415 337.568 24.4615Z" fill="#333333"/>
<path fill-rule="evenodd" clip-rule="evenodd" d="M329.075 24.3127C330.425 20.7508 334.441 22.6037 334.527 24.4807C334.33 24.2839 333.49 23.8182 333.014 23.7798C332.932 25.8728 330.449 26.4008 329.695 24.2023C329.426 24.1927 329.267 24.1879 329.075 24.3127Z" fill="#333333"/>
<path fill-rule="evenodd" clip-rule="evenodd" d="M338.587 89.1564C337.424 88.9452 336.305 88.5324 334.778 87.7691C333.706 87.2315 332.837 86.6698 332.14 86.1034C331.545 85.6185 331.074 85.1289 330.714 84.644C330.877 86.2042 331.309 87.9227 331.886 89.6461C332.712 92.1135 333.826 94.5905 334.874 96.6642C335.378 95.2817 336.05 93.8176 336.805 92.3583C337.367 91.2734 337.972 90.1933 338.587 89.1564Z" fill="#FF6F3D"/>
<path fill-rule="evenodd" clip-rule="evenodd" d="M330.324 83.6444L330.941 84.475C331.286 84.9384 331.739 85.4113 332.319 85.8835M330.324 83.6444L330.432 84.6736L330.324 83.6444ZM332.155 89.5561C331.697 88.1889 331.334 86.8312 331.124 85.5593L332.155 89.5561ZM331.124 85.5593C331.372 85.8154 331.651 86.0704 331.962 86.3232L331.962 86.3233C332.676 86.9046 333.564 87.477 334.65 88.0224L334.651 88.0227C336.022 88.7076 337.08 89.1195 338.14 89.3554C337.593 90.2904 337.056 91.257 336.553 92.2279L336.553 92.2282C335.904 93.4829 335.314 94.7445 334.838 95.958C333.882 94.0183 332.9 91.7817 332.155 89.5562M330.432 84.6736C330.598 86.2614 331.037 88.0012 331.617 89.736L330.432 84.6736ZM332.319 85.8835C332.998 86.4351 333.849 86.9859 334.904 87.5156C336.419 88.2722 337.511 88.6729 338.637 88.8775L339.038 88.9504L338.831 89.301C338.218 90.3339 337.616 91.4092 337.056 92.4886C336.306 93.941 335.639 95.3936 335.14 96.7614L334.916 97.3762L334.621 96.792C333.57 94.7106 332.449 92.2205 331.617 89.7361L331.617 89.736" fill="#FF6F3D"/>
<path fill-rule="evenodd" clip-rule="evenodd" d="M330.642 83.2711C330.627 85.1577 331.137 87.3947 331.886 89.646C332.712 92.1134 333.827 94.5904 334.874 96.6642C335.378 95.2817 336.051 93.8176 336.805 92.3583C338.13 89.7997 339.706 87.2554 341.085 85.2201L342.213 85.9785C340.854 87.9851 339.302 90.4861 338.01 92.9823C337.002 94.9361 336.147 96.8898 335.671 98.5988L335.22 100.226L334.417 98.738C333.159 96.3954 331.646 93.2367 330.594 90.0829C329.801 87.7067 329.263 85.3257 329.278 83.2759L330.642 83.2711Z" fill="#333333"/>
<path fill-rule="evenodd" clip-rule="evenodd" d="M363.363 56.7633C364.016 58.5395 364.789 60.5317 365.611 62.6582C369.828 73.5407 375.453 88.0523 373.407 95.6225C373.393 95.6705 373.128 96.0354 371.673 96.2322C370.731 96.357 369.382 96.3426 367.455 96.0066C365.385 95.6465 362.618 94.7825 359.045 93.4048C355.596 92.075 351.412 90.2749 346.392 87.9947C346.973 87.5627 347.497 87.0442 347.958 86.4682C348.304 86.0361 348.611 85.5753 348.885 85.0905C351.018 85.7433 354.159 86.4682 357.224 87.0298C359.976 87.5387 362.676 87.9179 364.54 88.0043C365.693 88.0571 365.851 86.6026 364.554 86.5402C364.4 86.5306 364.247 86.5258 364.083 86.5114C363.502 85.7913 362.047 83.3527 360.606 80.7317C359.237 78.2355 357.896 75.6001 357.358 74.136C357.407 71.8462 357.522 69.5276 357.7 67.1754C357.786 66.0473 356.335 65.8121 356.244 67.041C356.004 70.1996 355.879 73.3295 355.874 76.445C355.869 79.4548 355.98 82.4214 356.196 85.3545C353.713 84.8648 351.292 84.2936 349.534 83.7704C349.683 83.4151 342.857 83.7704 346.392 82.6999C346.81 81.375 345.763 83.828 345.724 82.6999C345.681 81.3798 343.505 82.4454 342.818 81.8982C342.655 81.7686 342.492 81.6726 342.333 81.6006L342.535 80.6117C342.564 80.4917 342.578 80.3765 342.578 80.2661C342.578 79.906 342.444 79.57 342.223 79.3012C342.011 79.0372 341.709 78.8403 341.373 78.7587C341.252 78.7299 341.132 78.7155 341.012 78.7155L342.117 72.7967C341.862 68.5867 337.915 70.1708 337.656 67.041C336.75 63.3125 339.219 49.1499 339.219 49.1499L341.312 52.0638C341.312 52.0638 343.645 54.7808 344.538 54.2863C346.459 53.2254 346.781 49.2663 347.094 47.3125C349.322 47.8309 352.781 49.1787 355.653 50.8541C358.742 52.6494 361.667 54.8192 363.363 56.7633ZM338.562 49.1499C338.461 48.7275 333.279 53.3431 333.187 52.9062C332.198 52.5558 331.083 52.3902 330.963 51.1565C330.853 49.9852 331.016 48.5979 331.194 47.5994C328.984 47.993 327.178 48.5355 325.67 49.1499C323.523 50.0284 321.976 51.0653 320.727 52.0638C319.853 52.7598 317.293 55.7889 314.56 59.0195C311.226 62.9606 314.032 66.1049 312.688 67.041L310.337 78.7155L305.562 85.0905L306.75 84.5C309.718 85.0712 309.924 75.6097 313.522 73.4063C323.374 67.3613 322.416 59.0766 321.928 70.4445C321.779 74.8752 321.813 83.8376 322.279 92.3055C322.596 98.0659 323.105 103.591 323.883 107.273C328.984 110.153 334.749 111.425 340.45 111.67C347.627 111.977 354.721 110.667 360.327 108.9C359.664 106.481 359.078 104.09 358.564 101.714C358.026 99.2228 357.57 96.7314 357.195 94.2448C353.982 92.9679 350.182 91.3166 345.724 89.2956C335.709 68.2123 335.834 81.1877 335.493 80.8853C335.157 80.5829 332.683 81.1349 332.63 80.6597L327.202 74.592L327.188 74.4C327.188 74.0112 327.332 73.6511 327.572 73.3727C327.817 73.0943 328.158 72.8975 328.547 72.8543C328.619 72.8447 328.687 72.8399 328.735 72.8447L335.937 72.7967C336.173 70.3389 336.43 54.5984 338.562 49.1499Z" fill="#EFEFEF"/>
<path fill-rule="evenodd" clip-rule="evenodd" d="M364.675 55.9859L364.77 56.2455C365.356 57.8386 366.04 59.6084 366.775 61.5091C366.853 61.7105 366.931 61.9134 367.01 62.1177L367.025 62.1556C369.125 67.5749 371.605 73.9742 373.301 79.9744C374.152 82.9846 374.817 85.9312 375.135 88.6331C375.451 91.3193 375.437 93.8604 374.855 96.0139L374.849 96.0339L374.843 96.0538C374.764 96.3169 374.631 96.4981 374.579 96.5661C374.501 96.6679 374.416 96.7559 374.331 96.8315C374.16 96.9833 373.96 97.1113 373.738 97.2198C373.298 97.4343 372.699 97.607 371.874 97.7186L371.87 97.7192C370.735 97.8696 369.225 97.838 367.197 97.4842C365.044 97.1097 362.271 96.244 358.818 94.9246C359.16 97.0798 359.564 99.2385 360.03 101.398C360.538 103.746 361.118 106.11 361.774 108.504L362.155 109.897L360.778 110.331C355.044 112.138 347.773 113.485 340.386 113.169C334.513 112.917 328.503 111.604 323.145 108.579L322.555 108.246L322.415 107.583C321.612 103.78 321.098 98.1563 320.781 92.3879L322.279 92.3054C322.596 98.0659 323.105 103.591 323.883 107.273C328.984 110.153 334.748 111.425 340.45 111.67C347.626 111.977 354.721 110.667 360.327 108.9C359.664 106.481 359.078 104.09 358.564 101.714C358.03 99.2392 357.576 96.7642 357.202 94.2939C357.2 94.2776 357.197 94.2612 357.195 94.2448C353.997 92.974 350.218 91.3323 345.788 89.3244C345.767 89.3148 345.746 89.3052 345.724 89.2956C345.396 88.6044 345.078 87.9498 344.772 87.3301C344.043 85.8602 343.375 84.5868 342.76 83.4878C342.588 83.1803 342.42 82.8864 342.257 82.6057C342.256 82.6052 342.256 82.6046 342.256 82.6041C342.184 82.4805 342.113 82.3595 342.042 82.241C341.876 81.9608 341.714 81.6947 341.556 81.442C341.367 81.1397 341.184 80.8568 341.008 80.5922C340.921 80.4622 340.836 80.3367 340.752 80.2155C340.297 79.5576 339.883 79.0268 339.507 78.6052C337.027 75.8261 336.18 77.7923 335.819 79.3957C335.817 79.4046 335.815 79.4134 335.814 79.4222C335.74 79.7539 335.687 80.0688 335.645 80.3213C335.605 80.5549 335.575 80.7351 335.546 80.8258C335.546 80.8262 335.545 80.8267 335.545 80.8271C335.528 80.8797 335.511 80.9015 335.493 80.8853C335.341 80.7488 334.754 80.7864 334.15 80.825C333.417 80.8719 332.659 80.9204 332.63 80.6597L327.202 74.592L327.188 74.4C327.188 74.0111 327.332 73.6511 327.572 73.3727C327.817 73.0943 328.158 72.8974 328.547 72.8542C328.619 72.8446 328.686 72.8398 328.734 72.8446L335.937 72.7966C335.985 72.2994 336.033 71.2585 336.098 69.8692C336.13 69.176 336.167 68.396 336.209 67.5535C336.212 67.4995 336.214 67.4452 336.217 67.3907C336.221 67.314 336.225 67.2369 336.229 67.1592C336.478 62.3032 336.926 55.5789 337.914 51.334C337.976 51.0663 338.04 50.8084 338.107 50.5615C338.133 50.4668 338.159 50.3737 338.185 50.2822C338.234 50.1098 338.285 49.9433 338.337 49.7832C338.41 49.5593 338.485 49.3478 338.562 49.1499C338.556 49.126 338.534 49.1182 338.498 49.1248C338.452 49.133 338.384 49.1637 338.296 49.2134C338.128 49.3087 337.89 49.4736 337.607 49.6827C337.504 49.7589 337.395 49.841 337.282 49.9276C337.062 50.0951 336.825 50.2798 336.58 50.4729C336.353 50.6514 336.119 50.8372 335.884 51.0229C335.42 51.3911 334.955 51.7596 334.545 52.0735C334.52 52.0933 334.494 52.1128 334.469 52.1321C334.034 52.4635 333.667 52.7271 333.439 52.8536C333.289 52.9366 333.198 52.9607 333.187 52.9062C333.049 52.8574 332.909 52.8121 332.769 52.767C331.906 52.4888 331.067 52.2181 330.963 51.1565C330.903 50.5236 330.924 49.8277 330.983 49.1641C331.033 48.5996 331.112 48.0584 331.194 47.5994C330.646 47.697 330.122 47.8039 329.622 47.9187C328.106 48.2666 326.804 48.6879 325.67 49.1499C323.523 50.0284 321.976 51.0653 320.727 52.0637C319.86 52.7541 317.334 55.7394 314.626 58.9403L314.559 59.0195C312.498 61.4568 312.784 63.5893 312.985 65.0833C313.109 66.0051 313.201 66.6838 312.687 67.041L310.337 78.7155L305.562 85.0905L306.75 84.5C308.272 84.793 309.068 82.4461 309.968 79.7931C310.088 79.4375 310.211 79.0765 310.337 78.7155C310.979 76.8811 311.721 75.0498 312.825 73.9592C313.042 73.7442 313.274 73.558 313.522 73.4063C317.199 71.1503 319.37 68.5824 320.622 66.8404C320.849 66.5243 321.046 66.2355 321.216 65.9806C321.729 65.2117 321.999 64.7521 322.121 64.7885C322.233 64.8218 322.221 65.2728 322.16 66.2856C322.141 66.5911 322.118 66.9478 322.092 67.3595C322.042 68.1664 321.982 69.1847 321.928 70.4445C321.779 74.8752 321.813 83.8376 322.279 92.3054L320.781 92.3879C320.313 83.8794 320.278 74.8726 320.429 70.3941L320.429 70.3801C320.443 70.0575 320.457 69.7507 320.472 69.459C319.09 71.0695 317.108 72.9659 314.306 74.6848L314.305 74.6855C313.781 75.0063 313.25 75.6884 312.715 76.8C312.375 77.5065 312.076 78.2915 311.787 79.1147L311.741 79.3436L311.678 79.4279C311.577 79.7173 311.478 80.0106 311.378 80.3063C311.358 80.3628 311.339 80.4192 311.32 80.4758C310.899 81.7174 310.434 83.076 309.848 84.0759C309.358 84.9118 308.461 86.0176 307.046 86.0278L300.576 89.2455L308.933 78.0874L311.336 66.1541L311.578 65.9852C311.57 65.8242 311.545 65.6243 311.505 65.3303C311.503 65.3128 311.5 65.2949 311.498 65.2768C311.46 64.9953 311.414 64.6517 311.383 64.2822C311.243 62.6106 311.421 60.4066 313.414 58.0508L313.487 57.9652C314.825 56.383 316.13 54.8409 317.211 53.604C318.266 52.3968 319.224 51.3437 319.791 50.8913C321.126 49.8241 322.795 48.7053 325.102 47.7616L325.104 47.7608C326.716 47.104 328.624 46.5335 330.931 46.1226L333.047 45.7456L332.671 47.8622C332.501 48.8138 332.365 50.0429 332.456 51.0128C332.457 51.0233 332.458 51.0321 332.46 51.0394C332.469 51.0454 332.48 51.0528 332.496 51.0615C332.579 51.1094 332.708 51.1649 332.925 51.2394C332.977 51.2571 333.029 51.2745 333.084 51.2924C333.111 51.2735 333.138 51.2533 333.168 51.232C333.638 50.8894 334.27 50.3885 334.939 49.8581L334.971 49.8329C335.612 49.3245 336.285 48.7906 336.807 48.409C337.064 48.2217 337.337 48.0316 337.573 47.8994C337.642 47.8603 337.776 47.7871 337.944 47.7266L338.354 45.3759L342.489 51.1307C342.501 51.1444 342.515 51.1609 342.533 51.1801C342.591 51.2451 342.676 51.3396 342.782 51.4522C342.997 51.6801 343.283 51.97 343.586 52.2392C343.792 52.4219 343.979 52.5714 344.137 52.6821C344.218 52.5828 344.303 52.4566 344.392 52.2968C344.614 51.8959 344.806 51.3714 344.968 50.7525C345.217 49.8083 345.356 48.8369 345.482 47.9549C345.525 47.6495 345.568 47.3549 345.612 47.0758L345.866 45.487L347.433 45.8515C349.823 46.4075 353.421 47.8156 356.408 49.5578C359.558 51.3892 362.643 53.6558 364.493 55.7774L364.675 55.9859ZM355.653 50.854C353.35 49.5107 350.67 48.3779 348.549 47.7145C348.025 47.5505 347.535 47.4152 347.093 47.3125C347.056 47.5485 347.018 47.8137 346.977 48.0995C346.945 48.3226 346.912 48.5582 346.875 48.8023C346.569 50.8349 346.046 53.4536 344.538 54.2863C343.644 54.7808 341.312 52.0637 341.312 52.0637L339.218 49.1499C339.218 49.1499 339.204 49.2339 339.177 49.3906C339.137 49.6242 339.071 50.0193 338.987 50.5387C338.987 50.542 338.986 50.5452 338.986 50.5485C338.951 50.7602 338.914 50.9923 338.875 51.2424C338.231 55.3256 336.966 64.2039 337.656 67.041C337.668 67.1878 337.688 67.3242 337.716 67.4514C337.96 68.5755 338.779 68.9737 339.646 69.3954C340.772 69.9429 341.98 70.53 342.117 72.7966L341.012 78.7155C341.132 78.7155 341.252 78.7299 341.372 78.7587C341.437 78.7744 341.5 78.7943 341.562 78.8182C341.579 78.8249 341.597 78.8319 341.614 78.8392C341.852 78.9413 342.063 79.1021 342.223 79.3012C342.441 79.5666 342.575 79.8976 342.578 80.2525C342.578 80.257 342.578 80.2616 342.578 80.2661C342.578 80.3765 342.564 80.4917 342.535 80.6117L342.333 81.6006C342.492 81.6726 342.655 81.7686 342.818 81.8982C343.013 82.0531 343.327 82.0788 343.678 82.0659C343.826 82.0604 343.981 82.0481 344.136 82.0357C344.223 82.0288 344.31 82.0219 344.396 82.0162C344.998 81.976 345.554 81.9939 345.692 82.4791C345.711 82.544 345.722 82.6173 345.724 82.6999C345.728 82.7999 345.739 82.8718 345.757 82.9207C344.901 83.2807 345.609 83.4222 346.634 83.499C346.701 83.504 346.77 83.5088 346.839 83.5133C346.993 83.5233 347.152 83.5322 347.312 83.5404C347.347 83.5421 347.381 83.5439 347.416 83.5456C347.509 83.5501 347.602 83.5545 347.694 83.5588C347.749 83.5613 347.804 83.5638 347.858 83.5663C347.902 83.5684 347.946 83.5704 347.99 83.5724C348 83.5728 348.009 83.5733 348.019 83.5737C348.028 83.5742 348.038 83.5746 348.047 83.575C348.553 83.5986 349.009 83.6226 349.279 83.6635C349.293 83.6657 349.307 83.6679 349.32 83.6702C349.462 83.6945 349.542 83.7246 349.535 83.7636C349.535 83.7658 349.534 83.7681 349.533 83.7703C349.976 83.9022 350.461 84.037 350.979 84.1728C352.091 84.4648 353.353 84.7612 354.669 85.0416C355.172 85.1486 355.683 85.2533 356.196 85.3545C356.195 85.3386 356.194 85.3227 356.192 85.3068C356.156 84.807 356.122 84.3061 356.092 83.8043C355.944 81.3769 355.87 78.9256 355.874 76.4449C355.875 75.796 355.881 75.1465 355.893 74.4962C355.895 74.366 355.897 74.2357 355.9 74.1054C355.947 71.8246 356.058 69.5343 356.23 67.2288C356.234 67.1743 356.238 67.1198 356.242 67.0653C356.242 67.0647 356.242 67.0642 356.242 67.0637C356.243 67.0561 356.243 67.0485 356.244 67.041C356.334 65.8216 357.763 66.0437 357.701 67.1492C357.701 67.15 357.701 67.1509 357.701 67.1518C357.7 67.1596 357.7 67.1675 357.699 67.1754C357.696 67.2138 357.694 67.2523 357.691 67.2907C357.518 69.6033 357.406 71.8836 357.358 74.136C357.371 74.1704 357.384 74.2056 357.398 74.2413C357.959 75.7241 359.269 78.2943 360.605 80.7317C362.022 83.3078 363.452 85.7077 364.053 86.4729C364.063 86.4862 364.073 86.499 364.083 86.5114C364.19 86.5208 364.293 86.5261 364.394 86.5314C364.415 86.5324 364.435 86.5335 364.455 86.5345C364.488 86.5363 364.521 86.5381 364.554 86.5402C364.572 86.541 364.589 86.5421 364.606 86.5435C364.606 86.5435 364.607 86.5435 364.606 86.5435C365.845 86.6427 365.676 88.0564 364.539 88.0043C364.521 88.0034 364.502 88.0026 364.484 88.0016C364.477 88.0013 364.47 88.0009 364.463 88.0006C364.433 87.9991 364.404 87.9976 364.374 87.996C364.238 87.9886 364.098 87.9798 363.955 87.9697C363.741 87.9545 363.518 87.9362 363.289 87.9151C361.722 87.771 359.805 87.4923 357.832 87.1402C357.629 87.1042 357.427 87.0673 357.224 87.0298C356.788 86.9499 356.35 86.8667 355.915 86.7809C353.396 86.2852 350.931 85.7018 349.119 85.1613C349.051 85.1409 348.983 85.1204 348.917 85.1001C348.906 85.0969 348.895 85.0937 348.885 85.0905C348.878 85.1022 348.872 85.1139 348.865 85.1257C348.863 85.1287 348.861 85.1318 348.86 85.1349C348.592 85.6035 348.293 86.0493 347.958 86.4682C347.841 86.6139 347.721 86.7559 347.596 86.8937C347.306 87.2148 346.995 87.5134 346.663 87.7835C346.586 87.8465 346.507 87.9079 346.428 87.9677C346.416 87.9767 346.404 87.9857 346.392 87.9947C346.552 88.0673 346.711 88.1394 346.869 88.211C347.223 88.3714 347.573 88.5293 347.918 88.6847C351.668 90.3718 354.924 91.7723 357.733 92.8907C358.012 93.0018 358.287 93.1101 358.557 93.2156C358.721 93.2797 358.883 93.3427 359.044 93.4047C362.618 94.7825 365.385 95.6465 367.455 96.0065C369.381 96.3426 370.731 96.357 371.673 96.2322C373.128 96.0354 373.392 95.6705 373.407 95.6225C375.453 88.0538 369.83 73.5466 365.613 62.6648L365.611 62.6582C365.532 62.4539 365.453 62.2509 365.375 62.0491C364.642 60.1509 363.953 58.3688 363.363 56.7633C361.667 54.8192 358.742 52.6494 355.653 50.854ZM345.981 86.3926C346.266 86.134 346.535 85.8452 346.787 85.5308C346.915 85.3707 347.038 85.2051 347.155 85.034C346.955 85.0234 346.76 85.012 346.585 84.9995C346.26 84.9761 345.919 84.9443 345.623 84.8947C345.485 84.8714 345.325 84.8392 345.166 84.7916C345.43 85.2985 345.701 85.8318 345.981 86.3926ZM357.718 85.5954C359.267 85.8782 360.775 86.1144 362.103 86.2778C361.877 85.9242 361.633 85.5269 361.381 85.1064C360.752 84.0597 360.019 82.778 359.291 81.4544L359.29 81.453C358.628 80.2461 357.96 78.9827 357.38 77.8207C357.405 80.3225 357.511 82.7951 357.692 85.2442L357.718 85.5954ZM346.327 82.4843C346.32 82.4936 346.314 82.5032 346.307 82.5129C346.279 82.5547 346.248 82.5995 346.216 82.6445C346.207 82.6577 346.198 82.6709 346.188 82.6841C346.188 82.6843 346.188 82.6838 346.188 82.6841C346.162 82.7201 346.135 82.7563 346.109 82.7899C345.97 82.8364 345.853 82.8799 345.757 82.9207C345.82 83.0972 345.965 82.9728 346.109 82.7899C346.195 82.7611 346.289 82.7311 346.392 82.6999C346.394 82.6924 346.397 82.685 346.399 82.6778C346.399 82.6781 346.399 82.6775 346.399 82.6778C346.565 82.1476 346.482 82.2565 346.327 82.4843ZM339.841 76.8168L340.606 72.7151C340.541 72.0361 340.352 71.7079 340.196 71.521C340 71.2852 339.72 71.1048 339.221 70.8575C339.164 70.8291 339.1 70.7982 339.03 70.7645C338.642 70.5777 338.08 70.3076 337.597 69.9282C337.532 71.3143 337.482 72.4039 337.43 72.9396L337.301 74.2876L328.992 74.343L333.479 79.3593C333.585 79.3558 333.712 79.3494 333.864 79.3401C333.917 79.3368 333.974 79.3332 334.034 79.3293C334.119 79.3238 334.21 79.318 334.303 79.3125C334.322 79.2195 334.343 79.1243 334.365 79.0284C334.472 78.5591 334.634 77.9835 334.895 77.4553C335.143 76.9538 335.584 76.2826 336.363 75.9306C337.235 75.5368 338.139 75.7073 338.911 76.142C339.221 76.3163 339.53 76.5425 339.841 76.8168ZM332.466 51.0685C332.466 51.0686 332.466 51.068 332.465 51.0667L332.466 51.0685Z" fill="#333333"/>
<path fill-rule="evenodd" clip-rule="evenodd" d="M356.244 67.041C356.004 70.1996 355.879 73.3295 355.874 76.445C355.869 79.7908 356.004 83.0791 356.273 86.329L357.733 86.209C357.464 82.9591 357.33 79.7092 357.334 76.445C357.339 73.4111 357.459 70.3293 357.704 67.1802C357.786 66.0521 356.335 65.8121 356.244 67.041ZM357.147 93.904L358.593 93.6928C358.977 96.2658 359.443 98.8388 360 101.421C360.557 104.014 361.201 106.606 361.926 109.198L362.114 109.87L361.451 110.086C355.61 112.006 348.059 113.466 340.392 113.139C334.364 112.88 328.269 111.512 322.874 108.387L322.6 108.228L322.528 107.912C321.688 104.143 321.145 98.3828 320.818 92.3871C320.352 83.8856 320.314 74.8752 320.468 70.4061L320.516 69.2636L320.578 68.0635L322.038 68.1547L321.976 69.3308L321.928 70.4493C321.779 74.88 321.813 83.8424 322.279 92.3103C322.596 98.0707 323.105 103.596 323.883 107.278C328.984 110.158 334.748 111.43 340.45 111.675C347.627 111.982 354.721 110.672 360.327 108.905C359.664 106.486 359.078 104.095 358.564 101.719C358.012 99.1124 357.536 96.5106 357.147 93.904Z" fill="#333333"/>
<path fill-rule="evenodd" clip-rule="evenodd" d="M346.5 47.3641C346.5 47.3641 344.98 52.3758 343.832 53.0046C343.054 53.4367 341.863 52.7502 340.042 49.7355C341.868 49.6443 344.938 49.0938 346.5 47.3641ZM337.424 49.5291C336.55 50.5756 335.767 51.2861 335.085 51.7517C334.072 52.4382 333.375 52.5438 332.986 52.4094C332.655 52.2894 332.487 51.7277 332.424 51.0221C332.309 49.7787 332.544 48.2282 332.731 47.3641C333.092 47.3161 333.466 47.2681 333.846 47.2297L334.038 47.4986C334.845 48.5498 336.036 49.2123 337.424 49.5291Z" fill="#CCCCCC"/>
<path fill-rule="evenodd" clip-rule="evenodd" d="M347.935 47.7994L346.5 47.3641C345.957 47.9653 345.231 48.4241 344.44 48.7706C343.555 49.1579 342.587 49.405 341.697 49.5541C341.092 49.6554 340.524 49.7115 340.042 49.7355C340.376 50.2878 340.688 50.762 340.981 51.1655C342.285 52.9642 343.197 53.3575 343.832 53.0046C344.418 52.6834 345.102 51.2192 345.63 49.8632C346.136 48.564 346.5 47.3641 346.5 47.3641C347.935 47.7994 347.935 47.7992 347.935 47.7994L347.934 47.805L347.93 47.8178L347.915 47.8641C347.903 47.9039 347.885 47.9612 347.862 48.0336C347.816 48.1784 347.75 48.3843 347.667 48.6327C347.501 49.1278 347.267 49.7999 346.993 50.4973C346.721 51.1874 346.398 51.938 346.051 52.5752C345.878 52.8931 345.682 53.2138 345.466 53.4952C345.268 53.7526 344.969 54.0912 344.557 54.3179C343.412 54.9512 342.25 54.5161 341.395 53.8372C340.56 53.1741 339.696 52.0642 338.758 50.5109L338.674 50.3723L338.575 50.4908C337.636 51.6149 336.754 52.4286 335.931 52.9905L335.926 52.9937C334.805 53.7532 333.578 54.2009 332.496 53.8271L332.486 53.8235L332.475 53.8197C331.674 53.5296 331.336 52.8257 331.199 52.4615C331.041 52.0383 330.967 51.5713 330.93 51.1574C330.794 49.6871 331.067 47.9618 331.265 47.0463L331.489 46.0165L332.533 45.8773C332.897 45.8288 333.291 45.7782 333.695 45.7373L334.56 45.6497L335.242 46.6035C335.79 47.3067 336.636 47.8107 337.758 48.0667L338.768 48.2973L339.967 48.2374C340.787 48.1964 341.883 48.0511 342.93 47.7302C343.998 47.4025 344.864 46.9378 345.387 46.3586C345.858 45.8375 346.627 45.7128 347.238 46.0584C347.849 46.4039 348.139 47.1274 347.935 47.7994ZM334.038 47.4985L333.846 47.2297C333.466 47.2681 333.092 47.3161 332.731 47.3641C332.544 48.2282 332.309 49.7787 332.424 51.022C332.486 51.7277 332.654 52.2893 332.986 52.4093C333.375 52.5438 334.071 52.4381 335.085 51.7517C335.454 51.4998 335.853 51.1762 336.279 50.7665C336.641 50.419 337.023 50.0094 337.424 49.5291C336.883 49.4055 336.371 49.2293 335.901 48.998C335.241 48.6737 334.662 48.2409 334.195 47.6927C334.191 47.6881 334.187 47.6835 334.183 47.6789C334.134 47.6201 334.085 47.56 334.038 47.4985Z" fill="#333333"/>
<path fill-rule="evenodd" clip-rule="evenodd" d="M370.361 237.431C369.218 238.722 367.767 240.11 366.278 241.531C363.867 243.835 361.36 246.23 360.106 248.28C359.164 249.821 358.991 251.155 360.327 252.034C361.139 252.135 364.04 250.911 367.402 249.211C371.163 247.31 375.4 244.814 377.999 242.841C378.018 242.822 378.071 242.783 378.09 242.774C378.143 242.735 378.229 242.678 378.33 242.591C378.868 242.126 379.718 240.863 377.086 237.805L378.196 236.855C381.693 240.921 380.18 242.923 379.276 243.7C379.147 243.811 379.017 243.902 378.931 243.964L378.863 244.012C376.183 246.043 371.874 248.587 368.06 250.512C364.29 252.418 360.903 253.733 359.837 253.421L359.746 253.397L359.664 253.344C357.291 251.899 357.44 249.845 358.862 247.521C360.216 245.308 362.791 242.846 365.274 240.474C366.744 239.068 368.18 237.7 369.271 236.466L370.361 237.431Z" fill="#333333"/>
<path fill-rule="evenodd" clip-rule="evenodd" d="M329.416 236.476C327.942 237.081 326.145 237.7 324.31 238.329C320.621 239.591 316.773 240.911 314.564 242.524C312.604 243.96 311.845 245.601 313.296 247.574L313.353 247.651L313.43 247.714C314.309 248.419 318.666 248.534 323.58 248.232C328.335 247.939 333.696 247.296 336.866 246.456L336.943 246.437C337.678 246.273 340.642 245.597 339.225 240.383C339.172 240.191 338.788 239.346 338.432 238.55C338.139 237.901 337.861 237.282 337.827 237.186L336.439 237.642C336.487 237.791 336.785 238.454 337.102 239.15C337.438 239.898 337.798 240.691 337.817 240.763C338.836 244.516 337.063 244.915 336.626 245.011L336.521 245.035C333.441 245.851 328.182 246.48 323.498 246.768C319.045 247.041 315.188 247.037 314.415 246.609C313.699 245.539 314.223 244.579 315.438 243.691C317.46 242.212 321.202 240.931 324.795 239.697C326.621 239.073 328.412 238.458 329.983 237.81L329.416 236.476Z" fill="#333333"/>
<path fill-rule="evenodd" clip-rule="evenodd" d="M366.278 241.531C363.867 243.835 361.359 246.23 360.106 248.28C359.164 249.821 358.991 251.155 360.327 252.034C361.138 252.135 364.04 250.911 367.402 249.211C371.163 247.31 375.4 244.814 377.999 242.841C378.018 242.822 378.071 242.783 378.09 242.774C378.143 242.735 378.229 242.678 378.33 242.591C378.623 242.342 379.003 241.862 378.878 240.993C378.786 240.33 378.397 239.438 377.451 238.247C376.466 238.674 375.222 238.857 373.978 238.823C372.528 238.785 371.038 238.458 369.953 237.887C369.05 238.871 367.988 239.898 366.888 240.955C366.682 241.147 366.48 241.339 366.278 241.531Z" fill="#FEFEFE"/>
<path fill-rule="evenodd" clip-rule="evenodd" d="M337.807 240.767C337.831 240.854 337.855 240.94 337.875 241.026C338.744 244.54 337.044 244.924 336.616 245.02L336.51 245.044C333.431 245.86 328.172 246.489 323.488 246.777C319.035 247.051 315.178 247.046 314.405 246.619C313.689 245.548 314.213 244.588 315.428 243.7C316.658 242.798 318.531 241.972 320.616 241.185C321.956 240.681 323.378 240.191 324.785 239.711C326.418 239.15 328.023 238.602 329.468 238.026C330.367 238.617 331.755 239.226 333.35 239.332C334.454 239.404 335.66 239.236 336.866 238.655C336.938 238.814 337.015 238.986 337.092 239.154C337.428 239.903 337.783 240.695 337.807 240.767Z" fill="#FEFEFE"/>
<path fill-rule="evenodd" clip-rule="evenodd" d="M358.549 110.96C361.936 122.034 365.721 142.038 369.035 164.657C373.815 187.953 376.894 214.192 376.851 236.423C375.972 236.908 374.689 237.191 373.411 237.22C372.143 237.249 370.914 237.037 370.131 236.543C369.031 232.357 364.597 214.379 358.641 193.527C353.616 175.928 347.011 156.813 343.543 143.406L342.155 138.341C342.069 150.933 341.223 164.158 340.676 172.736C340.512 175.319 340.373 177.479 340.287 179.125C340.282 179.236 340.287 179.658 340.296 180.364C340.378 186.475 340.743 214.49 336.405 237.249C335.387 237.781 334.364 237.935 333.432 237.877C332.164 237.796 331.054 237.321 330.329 236.85C330.247 230.269 330.026 220.812 329.407 210.731C328.773 200.425 327.711 189.432 325.943 180.114C325.799 179.356 323.138 164.1 322.984 143.463C322.908 133.152 323.46 121.497 325.266 109.635C330.036 111.877 335.238 112.909 340.387 113.134C346.843 113.413 353.213 112.424 358.549 110.96Z" fill="#404040"/>
<path fill-rule="evenodd" clip-rule="evenodd" d="M325.181 109.476L325.312 109.537C330.066 111.772 335.253 112.801 340.392 113.026C346.834 113.304 353.192 112.317 358.52 110.856L358.622 110.828L358.652 110.928C362.041 122.011 365.827 142.02 369.141 164.638C373.922 187.94 377.001 214.185 376.958 236.423L376.958 236.487L376.902 236.517C376.004 237.013 374.702 237.299 373.413 237.328C372.137 237.357 370.882 237.145 370.073 236.634L370.037 236.612L370.026 236.57C369.821 235.792 369.502 234.538 369.079 232.878C367.225 225.604 363.386 210.534 358.536 193.556C356.272 185.625 353.686 177.386 351.211 169.498C350.941 168.637 350.672 167.779 350.405 166.927C347.692 158.273 345.173 150.14 343.439 143.433C343.438 143.433 343.439 143.434 343.439 143.433L342.256 139.121C342.142 151.458 341.322 164.297 340.786 172.699L340.783 172.743C340.783 172.743 340.783 172.743 340.783 172.743M340.394 179.13C340.389 179.237 340.394 179.655 340.404 180.362C340.485 186.472 340.851 214.498 336.511 237.269L336.501 237.32L336.455 237.344C335.417 237.887 334.374 238.044 333.425 237.985C332.135 237.902 331.008 237.419 330.27 236.941L330.221 236.909L330.221 236.851C330.139 230.271 329.918 220.816 329.298 210.738C328.665 200.433 327.603 189.446 325.837 180.134C325.692 179.371 323.03 164.109 322.876 143.464C322.799 133.149 323.352 121.487 325.159 109.619L325.181 109.476M340.394 179.13C340.47 177.681 340.587 175.834 340.726 173.649C340.744 173.353 340.764 173.051 340.783 172.743M325.351 109.794C323.563 121.599 323.016 133.197 323.092 143.462C323.246 164.091 325.906 179.34 326.049 180.094C327.818 189.418 328.88 200.416 329.514 210.725C330.132 220.778 330.354 230.211 330.436 236.791C331.149 237.243 332.22 237.691 333.439 237.77C334.339 237.825 335.325 237.68 336.309 237.177C340.634 214.44 340.269 186.473 340.188 180.365C340.178 179.662 340.173 179.235 340.178 179.121C340.254 177.67 340.372 175.82 340.51 173.636C340.529 173.34 340.548 173.037 340.567 172.729L340.57 172.687C341.118 164.108 341.96 150.908 342.047 138.341L342.052 137.558L343.647 143.379C345.381 150.079 347.898 158.207 350.611 166.862C350.878 167.715 351.147 168.572 351.418 169.434C353.893 177.321 356.479 185.563 358.744 193.497C363.595 210.478 367.436 225.554 369.289 232.827C369.704 234.456 370.019 235.694 370.224 236.474C370.982 236.936 372.168 237.14 373.408 237.112C374.648 237.084 375.885 236.814 376.742 236.358C376.78 214.15 373.703 187.947 368.929 164.679L368.928 164.673C365.624 142.122 361.852 122.178 358.476 111.092C353.152 112.543 346.811 113.52 340.382 113.242C335.269 113.018 330.1 112.001 325.351 109.794Z" fill="#404040"/>
<path fill-rule="evenodd" clip-rule="evenodd" d="M342.16 138.197C342.078 150.832 341.228 164.124 340.681 172.736C340.517 175.319 340.378 177.479 340.292 179.125C340.287 179.236 340.291 179.658 340.301 180.364C340.383 186.475 340.748 214.49 336.41 237.249C335.392 237.781 334.369 237.935 333.437 237.877C332.169 237.796 331.059 237.321 330.334 236.85C330.252 230.269 330.031 220.812 329.412 210.731C328.778 200.425 327.716 189.432 325.948 180.114C325.804 179.356 323.143 164.1 322.989 143.463C322.913 132.864 323.494 120.853 325.425 108.656L323.984 108.43C322.043 120.705 321.457 132.802 321.534 143.463C321.688 164.239 324.368 179.61 324.512 180.373C326.27 189.624 327.322 200.554 327.956 210.808C328.59 221.095 328.806 230.682 328.883 237.239L328.888 237.599L329.176 237.815C330.046 238.463 331.568 239.212 333.35 239.327C334.633 239.409 336.045 239.169 337.443 238.343L337.726 238.175L337.789 237.853C342.218 214.903 341.843 186.508 341.766 180.34C341.757 179.687 341.752 179.289 341.757 179.193C341.838 177.637 341.978 175.443 342.146 172.822C342.626 165.324 343.332 154.288 343.558 143.199L342.16 138.197Z" fill="#333333"/>
<path fill-rule="evenodd" clip-rule="evenodd" d="M333.754 124.228C334.686 125.063 335.737 125.807 336.905 126.355C338.11 126.916 339.446 127.276 340.896 127.32L341.487 127.339L341.555 127.92C343.447 144.145 348.572 160.226 354.625 179.202C359.793 195.413 365.634 213.736 370.721 236.073C371.624 236.481 372.604 236.581 373.56 236.514C374.473 236.447 375.371 236.221 376.159 235.948C375.991 229.328 375.611 219.314 374.756 208.677C374.151 201.126 373.31 193.282 372.138 186.163C371.975 185.179 371.816 184.243 371.653 183.35C371.49 182.447 371.317 181.559 371.144 180.69C371.005 180.009 370.822 179.149 370.64 178.314C370.159 176.092 369.717 174.056 369.468 171.522C369.299 169.808 369.112 168.041 368.91 166.241C368.704 164.393 368.488 162.622 368.271 160.918C367.071 151.571 365.533 142.498 363.799 134.16C361.998 125.51 359.981 117.666 357.901 111.157L359.193 110.749C361.287 117.316 363.319 125.203 365.125 133.887C366.869 142.239 368.411 151.35 369.616 160.75C369.852 162.583 370.068 164.369 370.265 166.092C370.457 167.806 370.644 169.573 370.822 171.392C371.057 173.811 371.495 175.828 371.97 178.021C372.119 178.713 372.273 179.428 372.475 180.422C372.652 181.3 372.825 182.198 372.988 183.105C373.161 184.07 373.33 185.011 373.478 185.937C374.655 193.119 375.506 200.996 376.111 208.566C376.985 219.444 378.022 230.187 378.186 236.845L378.195 237.325L377.744 237.498C375.563 238.324 370.976 238.838 369.328 236.769L369.261 236.461C364.164 214.02 358.511 195.864 353.328 179.605C347.323 160.769 342.227 144.779 340.267 128.635C338.841 128.52 337.529 128.136 336.324 127.574C334.998 126.955 333.811 126.115 332.779 125.174C331.861 124.339 332.836 123.402 333.754 124.228Z" fill="#333333"/>
<path fill-rule="evenodd" clip-rule="evenodd" d="M339.259 48.2858C341.065 48.329 343.092 47.8346 344.874 46.9081C345.071 46.8073 345.263 46.6969 345.456 46.5817L345.033 38.085C344.428 38.8002 343.832 39.3955 343.255 39.8899C339.514 43.1062 336.372 42.2181 336.161 42.1365C336.045 42.0933 335.93 42.0501 335.82 42.0021L335.19 46.5961C335.19 46.5961 335.19 46.6009 335.195 46.6009C336.045 47.7145 337.544 48.2474 339.259 48.2858Z" fill="#FEFEFE"/>
<path fill-rule="evenodd" clip-rule="evenodd" d="M337.568 24.4615C339.052 20.9524 342.991 22.9542 343.005 24.8311C342.818 24.6247 341.992 24.1303 341.521 24.0727C341.358 26.1609 338.86 26.5977 338.188 24.3703C337.919 24.3559 337.765 24.3415 337.568 24.4615ZM336.67 40.7685C336.823 40.8261 339.182 41.4693 342.309 38.7811C343.942 37.3794 345.743 35.0848 347.497 31.3741C347.468 31.3837 347.434 31.3933 347.405 31.4029C346.944 31.5277 346.565 30.6924 347.329 30.4044C347.53 30.3276 347.732 30.222 347.91 30.0972C348.289 29.838 348.592 29.5163 348.774 29.2283C349.495 28.1002 349.682 26.8473 349.433 25.9352C349.336 25.5848 349.173 25.2872 348.957 25.0856C348.755 24.8936 348.491 24.7783 348.174 24.7639C347.54 24.7351 346.699 25.0808 345.681 25.988C345.114 26.4921 344.61 25.844 344.884 25.4216L344.567 24.9752C344.629 23.0118 344.567 21.3989 344.408 20.0788C344.24 18.701 343.966 17.6642 343.606 16.9057C343.375 16.4161 343.02 15.936 342.588 15.5472C342.194 15.1872 341.742 14.9087 341.271 14.7647C340.714 14.5919 340.152 14.6351 339.6 14.8031C338.99 14.9903 338.375 15.3312 337.765 15.7344C337.457 15.936 337.155 16.152 336.862 16.3633C335.334 17.4577 334.119 18.3266 331.703 17.6834C331.376 17.597 331.069 17.4337 330.805 17.2081C330.776 17.1841 330.747 17.1601 330.723 17.1361C330.286 17.7986 329.911 18.5618 329.594 19.4019C328.523 22.2821 328.211 26.012 328.806 29.5979C329.397 33.155 330.877 36.5489 333.384 38.7907C334.33 39.626 335.421 40.3076 336.67 40.7685ZM347.434 26.4681C346.829 26.5881 346.762 26.0841 347.396 25.9784C347.588 25.9496 347.761 25.9496 347.915 25.988C348.169 26.0456 348.361 26.1849 348.491 26.3865C348.611 26.5737 348.674 26.8137 348.674 27.0825C348.674 27.529 348.501 28.0858 348.14 28.6427C348.006 28.8539 347.78 29.0939 347.511 29.2763C347.367 29.3771 347.209 29.4587 347.036 29.5163C346.623 29.6603 346.454 29.2427 346.968 29.0219C347.06 28.9835 347.151 28.9307 347.237 28.8731C347.453 28.7291 347.626 28.5419 347.732 28.3786C348.04 27.8986 348.188 27.4426 348.188 27.0825C348.188 26.9049 348.155 26.7561 348.083 26.6505C348.02 26.5545 347.929 26.4921 347.809 26.4633C347.703 26.4393 347.578 26.4393 347.434 26.4681ZM329.075 24.3127C330.425 20.7508 334.441 22.6038 334.527 24.4807C334.33 24.2839 333.49 23.8183 333.014 23.7799C332.933 25.8728 330.449 26.4009 329.695 24.2023C329.426 24.1927 329.268 24.1879 329.075 24.3127ZM335.387 33.203C338.178 35.4544 339.192 31.4605 339.681 30.846C339.542 35.8049 335.738 35.4592 335.387 33.203ZM334.657 29.4635C334.984 29.6411 335.507 29.8236 336.665 29.8476C334.278 30.7932 333.437 29.6843 333.471 28.6523C333.509 27.2601 334.816 27.5386 334.551 25.2824C335.685 26.8665 333.125 28.6331 334.657 29.4635Z" fill="#FEFEFE"/>
<path d="M295.501 76.4103L300.581 78.0196L296.864 89.7452C295.778 93.1685 297.275 96.7251 300.696 97.8091L313.138 101.751L311.429 107.142C310.048 111.499 312.384 116.006 316.738 117.386C321.093 118.765 325.599 116.426 326.981 112.069L328.689 106.678L341.131 110.62C344.552 111.704 348.239 109.79 349.325 106.367L352.845 95.2638L348.179 93.7856C343.514 92.3074 340.965 87.3904 342.445 82.7223C343.925 78.0542 348.841 75.5023 353.507 76.9805L358.172 78.4587L361.921 66.6329C363.007 63.2096 361.095 59.5218 357.674 58.4378L345.854 54.6931L344.375 59.3611C342.895 64.0292 337.978 66.5811 333.313 65.1029C328.647 63.6247 326.099 58.7077 327.579 54.0396L329.059 49.3715L317.239 45.6268C313.818 44.5428 310.509 46.5767 309.424 50L305.478 62.4482L300.434 60.85C296.079 59.4703 291.546 61.7576 290.164 66.1144C288.783 70.4713 291.146 75.0306 295.501 76.4103Z" fill="url(#paint0_linear_412_8982)"/>
<path fill-rule="evenodd" clip-rule="evenodd" d="M295.501 76.4103C291.146 75.0306 288.783 70.4713 290.164 66.1144C291.546 61.7576 296.079 59.4703 300.434 60.85L305.478 62.4482L309.424 50C310.509 46.5767 313.818 44.5428 317.239 45.6268L329.059 49.3715L327.579 54.0396C326.099 58.7077 328.647 63.6247 333.313 65.1029C337.978 66.5811 342.895 64.0292 344.375 59.3611L345.854 54.6931L357.674 58.4378C361.095 59.5218 363.007 63.2096 361.921 66.6329L358.172 78.4587L353.507 76.9805C348.841 75.5023 343.925 78.0542 342.445 82.7223C340.965 87.3904 343.514 92.3074 348.179 93.7856L352.845 95.2638L349.325 106.367C348.239 109.79 344.552 111.704 341.131 110.62L328.689 106.678L326.981 112.069C325.599 116.426 321.093 118.765 316.738 117.386C312.384 116.006 310.048 111.499 311.429 107.142L313.138 101.751L300.696 97.8091C297.275 96.7251 295.778 93.1685 296.864 89.7452L300.581 78.0196L295.501 76.4103ZM350.961 96.2406L347.895 105.914C347.06 108.548 344.215 110.024 341.584 109.19L327.713 104.795L325.551 111.616C324.42 115.184 320.755 117.085 317.191 115.956C313.627 114.826 311.728 111.163 312.859 107.595L315.021 100.774L301.149 96.3792C298.645 95.5858 297.416 92.9658 298.293 90.1985L302.464 77.0428L295.954 74.9803C295.954 74.9803 295.954 74.9803 295.954 74.9803C292.39 73.8512 290.463 70.1356 291.594 66.5677C292.719 63.0186 296.397 61.1447 299.98 62.2799L306.455 64.3311L310.854 50.4533C311.728 47.6981 314.271 46.2597 316.786 47.0567L327.175 50.3483L326.149 53.5863C324.419 59.0434 327.404 64.8042 332.86 66.5329C338.316 68.2615 344.075 65.2713 345.804 59.8144L346.831 56.576L357.221 59.8678C359.851 60.7013 361.327 63.5453 360.491 66.1796L357.196 76.5758L353.96 75.5506C348.504 73.8219 342.745 76.8121 341.015 82.269C339.285 87.7261 342.27 93.4869 347.726 95.2156L350.961 96.2406Z" fill="#333333"/>
<path d="M334.767 80.8824C336.692 77.5479 344.173 79.0965 347.267 80.8824C350.36 82.6683 348.267 86.5645 346.866 88.9903C345.466 91.4161 340.922 89.9182 337.829 88.1323C334.736 86.3464 333.855 82.4615 334.767 80.8824Z" fill="white"/>
<path fill-rule="evenodd" clip-rule="evenodd" d="M337.515 80.6652C336.734 80.8914 336.294 81.2366 336.066 81.6324C335.924 81.8781 335.786 82.7311 336.21 83.9291C336.604 85.0413 337.39 86.147 338.579 86.8333C340.037 87.6751 341.776 88.4089 343.239 88.6627C344.82 88.937 345.377 88.5703 345.567 88.2403C346.281 87.004 347.027 85.6217 347.283 84.3913C347.407 83.7957 347.388 83.3528 347.282 83.0335C347.19 82.7541 346.996 82.4582 346.517 82.1814C345.187 81.414 342.766 80.6363 340.463 80.4578C339.32 80.3692 338.303 80.4366 337.515 80.6652ZM347.267 80.8824C344.173 79.0965 336.692 77.5479 334.767 80.8824C333.855 82.4615 334.736 86.3464 337.829 88.1323C340.922 89.9182 345.466 91.4161 346.866 88.9903C348.267 86.5645 350.36 82.6683 347.267 80.8824Z" fill="#333333"/>
<path d="M304.826 82.693C304.695 79.7861 301.226 76.4079 299.273 76.496C297.321 76.5842 296.754 81.4382 296.886 84.3451C297.017 87.252 299.701 87.9523 301.653 87.8642C303.606 87.7761 304.911 84.5853 304.826 82.693Z" fill="white"/>
<path fill-rule="evenodd" clip-rule="evenodd" d="M301.641 79.5C302.646 80.5666 303.285 81.8121 303.327 82.7607C303.356 83.3963 303.134 84.4011 302.681 85.247C302.188 86.1677 301.737 86.3589 301.586 86.3657C300.777 86.4022 299.928 86.2639 299.326 85.9225C298.812 85.6315 298.425 85.1798 298.384 84.2775C298.323 82.9256 298.428 81.1272 298.759 79.7033C298.927 78.9821 299.129 78.4628 299.324 78.1549C299.371 78.082 299.408 78.0338 299.435 78.0027C299.57 78.0254 299.824 78.101 300.193 78.3153C300.649 78.5806 301.159 78.9884 301.641 79.5ZM299.487 77.9529C299.487 77.9523 299.483 77.9548 299.474 77.9619C299.483 77.9571 299.487 77.9535 299.487 77.9529ZM299.273 76.496C301.226 76.4079 304.695 79.7861 304.826 82.693C304.911 84.5853 303.606 87.7761 301.653 87.8642C299.701 87.9523 297.017 87.252 296.886 84.3451C296.754 81.4382 297.321 76.5842 299.273 76.496Z" fill="#333333"/>
<g clip-path="url(#clip0_412_8982)">
<rect x="50" width="206" height="254" rx="4" fill="white"/>
<rect x="76.344" y="54.0929" width="152.915" height="185.383" fill="white" stroke="#CCCCCC" stroke-width="1.04736"/>
<rect width="152.915" height="69.126" transform="translate(76.8682 54.6166)" fill="url(#paint1_linear_412_8982)"/>
<path d="M151.106 68.2324C146.461 68.2324 142.334 71.1833 140.895 75.5387C139.419 75.8389 138.025 76.4458 136.805 77.3191C135.585 78.1924 134.567 79.312 133.82 80.6034C131.491 84.5758 132.023 89.5697 135.144 92.9745C134.18 95.8263 134.511 98.9471 136.05 101.529C138.365 105.516 143.024 107.559 147.583 106.608C148.581 107.72 149.808 108.608 151.181 109.215C152.555 109.822 154.044 110.133 155.549 110.127C160.195 110.127 164.321 107.176 165.76 102.82C168.751 102.21 171.325 100.366 172.821 97.7557C175.165 93.7833 174.633 88.7895 171.512 85.3847V85.3706C171.988 83.9609 172.153 82.4673 171.997 80.9895C171.841 79.5117 171.367 78.0839 170.606 76.8015C168.29 72.8291 163.631 70.7856 159.087 71.7362C158.084 70.6277 156.854 69.7421 155.478 69.138C154.102 68.534 152.612 68.2253 151.106 68.2324ZM151.106 70.9565L151.091 70.9706C152.961 70.9706 154.759 71.6091 156.197 72.7869C156.139 72.815 156.024 72.8859 155.938 72.9287L147.482 77.738C147.051 77.9793 146.792 78.4333 146.792 78.9299V90.2227L143.154 88.1515V78.8163C143.153 76.734 143.99 74.7365 145.481 73.2627C146.972 71.7889 148.995 70.9597 151.106 70.9565ZM161.292 74.2442C162.693 74.2416 164.07 74.6039 165.284 75.2946C166.497 75.9853 167.505 76.9799 168.204 78.1779C169.124 79.7669 169.469 81.6254 169.153 83.4271C169.095 83.3844 168.981 83.3281 168.908 83.2854L160.453 78.4614C160.24 78.3427 160 78.2804 159.756 78.2804C159.511 78.2804 159.271 78.3427 159.058 78.4614L149.15 84.1078V79.965L157.332 75.2974C158.535 74.6093 159.901 74.2459 161.292 74.2437V74.2442ZM140.378 78.5323V88.4491C140.378 88.9458 140.637 89.3857 141.069 89.6411L150.962 95.2733L147.309 97.3586L139.141 92.705C137.316 91.6614 135.985 89.9458 135.44 87.9349C134.895 85.924 135.182 83.7821 136.237 81.9793C137.167 80.3884 138.632 79.1693 140.378 78.5323ZM159.331 80.9865L167.514 85.64C171.325 87.8107 172.618 92.606 170.418 96.3657L170.432 96.3798C169.498 97.9688 168.031 99.1889 166.291 99.8133V89.8959C166.291 89.3993 166.032 88.9453 165.6 88.7045L155.693 83.0576L159.331 80.9865ZM153.32 84.4059L157.491 86.7892V91.5418L153.32 93.9251L149.15 91.5418V86.7892L153.32 84.4059ZM159.878 88.1515L163.516 90.2227V99.5438C163.516 103.885 159.949 107.404 155.564 107.404V107.39C153.708 107.39 151.897 106.751 150.473 105.574C150.53 105.546 150.66 105.474 150.732 105.431L159.187 100.622C159.619 100.381 159.892 99.9269 159.877 99.4302L159.878 88.1515ZM157.505 94.2519V98.3941L149.322 103.048C145.511 105.204 140.651 103.927 138.451 100.182H138.465C137.53 98.6068 137.199 96.7342 137.516 94.9325C137.573 94.9752 137.688 95.0315 137.76 95.0743L146.216 99.8982C146.428 100.017 146.669 100.079 146.913 100.079C147.157 100.079 147.397 100.017 147.61 99.8982L157.505 94.2519Z" fill="white"/>
<rect x="85.335" y="202.342" width="134.933" height="26.8137" rx="2.09473" fill="#444444"/>
<rect opacity="0.4" x="85.2471" y="154.116" width="135.11" height="4.18946" rx="2.09473" fill="#CCCCCC"/>
<rect opacity="0.4" x="85.2471" y="168.779" width="135.11" height="4.18946" rx="2.09473" fill="#CCCCCC"/>
<rect opacity="0.4" x="85.2471" y="183.442" width="77.5049" height="4.18946" rx="2.09473" fill="#CCCCCC"/>
<path d="M136.816 220.262V211.593H138.566V220.262H136.816ZM145.939 220.262H144.278V217.057C144.278 216.379 144.243 215.941 144.172 215.744C144.101 215.543 143.984 215.388 143.823 215.277C143.665 215.167 143.474 215.112 143.249 215.112C142.961 215.112 142.703 215.19 142.475 215.348C142.246 215.506 142.088 215.715 142.002 215.975C141.919 216.235 141.877 216.716 141.877 217.418V220.262H140.216V213.982H141.759V214.905C142.307 214.195 142.997 213.84 143.829 213.84C144.195 213.84 144.53 213.907 144.834 214.041C145.137 214.171 145.366 214.339 145.52 214.544C145.677 214.749 145.786 214.982 145.845 215.242C145.908 215.502 145.939 215.874 145.939 216.359V220.262ZM147.045 218.47L148.713 218.216C148.784 218.539 148.927 218.785 149.144 218.955C149.361 219.12 149.665 219.203 150.055 219.203C150.484 219.203 150.808 219.124 151.024 218.967C151.17 218.856 151.243 218.709 151.243 218.523C151.243 218.397 151.204 218.293 151.125 218.21C151.042 218.131 150.857 218.058 150.569 217.991C149.229 217.696 148.38 217.425 148.021 217.181C147.524 216.842 147.276 216.371 147.276 215.768C147.276 215.224 147.491 214.767 147.92 214.396C148.35 214.026 149.016 213.84 149.919 213.84C150.778 213.84 151.417 213.98 151.835 214.26C152.252 214.54 152.54 214.954 152.698 215.502L151.131 215.792C151.064 215.547 150.936 215.36 150.747 215.23C150.561 215.1 150.295 215.035 149.948 215.035C149.511 215.035 149.197 215.096 149.008 215.218C148.882 215.305 148.819 215.417 148.819 215.555C148.819 215.673 148.874 215.774 148.985 215.857C149.134 215.967 149.651 216.123 150.534 216.324C151.421 216.525 152.04 216.771 152.39 217.063C152.737 217.358 152.911 217.77 152.911 218.299C152.911 218.874 152.67 219.369 152.189 219.783C151.708 220.197 150.997 220.404 150.055 220.404C149.199 220.404 148.521 220.23 148.021 219.883C147.524 219.536 147.199 219.065 147.045 218.47ZM157.251 213.982V215.307H156.115V217.837C156.115 218.35 156.125 218.649 156.145 218.736C156.169 218.819 156.218 218.888 156.293 218.943C156.372 218.998 156.466 219.026 156.577 219.026C156.73 219.026 156.953 218.973 157.245 218.866L157.387 220.155C157 220.321 156.563 220.404 156.074 220.404C155.774 220.404 155.504 220.354 155.264 220.256C155.024 220.153 154.846 220.023 154.732 219.866C154.621 219.704 154.545 219.487 154.501 219.215C154.466 219.022 154.448 218.632 154.448 218.044V215.307H153.685V213.982H154.448V212.735L156.115 211.765V213.982H157.251ZM159.645 215.898L158.138 215.626C158.307 215.019 158.599 214.57 159.013 214.278C159.427 213.986 160.042 213.84 160.857 213.84C161.599 213.84 162.15 213.929 162.513 214.106C162.876 214.28 163.13 214.503 163.276 214.775C163.426 215.043 163.5 215.537 163.5 216.259L163.483 218.198C163.483 218.75 163.508 219.158 163.56 219.422C163.615 219.682 163.715 219.962 163.861 220.262H162.217C162.174 220.151 162.121 219.988 162.058 219.771C162.03 219.672 162.01 219.607 161.999 219.576C161.715 219.852 161.411 220.059 161.088 220.197C160.765 220.335 160.42 220.404 160.053 220.404C159.407 220.404 158.896 220.228 158.522 219.877C158.151 219.526 157.966 219.083 157.966 218.547C157.966 218.192 158.051 217.877 158.22 217.601C158.39 217.321 158.626 217.108 158.93 216.962C159.237 216.813 159.679 216.682 160.254 216.572C161.031 216.426 161.569 216.29 161.869 216.164V215.999C161.869 215.679 161.79 215.453 161.632 215.319C161.474 215.181 161.177 215.112 160.739 215.112C160.444 215.112 160.213 215.171 160.047 215.289C159.882 215.403 159.748 215.606 159.645 215.898ZM161.869 217.246C161.656 217.317 161.319 217.402 160.857 217.5C160.396 217.599 160.095 217.696 159.953 217.79C159.736 217.944 159.628 218.139 159.628 218.375C159.628 218.608 159.714 218.809 159.888 218.979C160.061 219.148 160.282 219.233 160.55 219.233C160.85 219.233 161.135 219.134 161.407 218.937C161.608 218.787 161.74 218.604 161.804 218.387C161.847 218.245 161.869 217.975 161.869 217.577V217.246ZM165.144 220.262V211.593H166.806V220.262H165.144ZM168.515 220.262V211.593H170.176V220.262H168.515Z" fill="white"/>
<path d="M94.0327 143.28H92.1288L91.3719 141.311H87.907L87.1916 143.28H85.335L88.7112 134.612H90.5619L94.0327 143.28ZM90.8102 139.851L89.6158 136.634L88.4451 139.851H90.8102ZM94.9137 143.28V134.612H96.6639V143.28H94.9137Z" fill="#333333"/>
<rect x="50.5" y="0.5" width="349" height="39" fill="#F1F1F1" stroke="#CCCCCC"/>
<path d="M98.2075 26V15.2627H101.687C103.005 15.2627 103.864 15.3164 104.265 15.4238C104.88 15.585 105.395 15.9365 105.81 16.4785C106.225 17.0156 106.433 17.7114 106.433 18.5659C106.433 19.2251 106.313 19.7793 106.074 20.2285C105.834 20.6777 105.529 21.0317 105.158 21.2905C104.792 21.5444 104.418 21.7129 104.038 21.7959C103.52 21.8984 102.771 21.9497 101.789 21.9497H100.375V26H98.2075ZM100.375 17.0791V20.126H101.562C102.417 20.126 102.988 20.0698 103.276 19.9575C103.564 19.8452 103.789 19.6694 103.95 19.4302C104.116 19.1909 104.199 18.9126 104.199 18.5952C104.199 18.2046 104.084 17.8823 103.854 17.6284C103.625 17.3745 103.334 17.2158 102.983 17.1523C102.724 17.1035 102.204 17.0791 101.423 17.0791H100.375ZM108.198 26V15.2627H110.256V26H108.198ZM117.492 26V24.8354C117.209 25.2505 116.835 25.5776 116.372 25.8169C115.913 26.0562 115.427 26.1758 114.914 26.1758C114.392 26.1758 113.923 26.061 113.508 25.8315C113.093 25.6021 112.792 25.2798 112.607 24.8647C112.421 24.4497 112.329 23.876 112.329 23.1436V18.2217H114.387V21.7959C114.387 22.8896 114.423 23.561 114.497 23.8101C114.575 24.0542 114.714 24.2495 114.914 24.396C115.114 24.5376 115.368 24.6084 115.676 24.6084C116.027 24.6084 116.342 24.5132 116.621 24.3228C116.899 24.1274 117.089 23.8882 117.192 23.605C117.294 23.3169 117.346 22.6162 117.346 21.5029V18.2217H119.404V26H117.492ZM121.352 26.5127L123.703 26.7983C123.742 27.0718 123.833 27.2598 123.974 27.3623C124.169 27.5088 124.477 27.582 124.897 27.582C125.434 27.582 125.837 27.5015 126.105 27.3403C126.286 27.2329 126.423 27.0596 126.516 26.8203C126.579 26.6494 126.611 26.3345 126.611 25.8755V24.7402C125.996 25.5801 125.219 26 124.282 26C123.237 26 122.409 25.5581 121.799 24.6743C121.32 23.9761 121.081 23.1069 121.081 22.0669C121.081 20.7632 121.394 19.7671 122.019 19.0786C122.648 18.3901 123.43 18.0459 124.362 18.0459C125.324 18.0459 126.118 18.4683 126.743 19.313V18.2217H128.669V25.2017C128.669 26.1196 128.593 26.8057 128.442 27.2598C128.291 27.7139 128.078 28.0703 127.805 28.3291C127.531 28.5879 127.165 28.7905 126.706 28.937C126.252 29.0835 125.676 29.1567 124.978 29.1567C123.659 29.1567 122.724 28.9297 122.172 28.4756C121.621 28.0264 121.345 27.4551 121.345 26.7617C121.345 26.6934 121.347 26.6104 121.352 26.5127ZM123.19 21.9497C123.19 22.7749 123.349 23.3804 123.667 23.7661C123.989 24.147 124.384 24.3374 124.853 24.3374C125.356 24.3374 125.781 24.1421 126.127 23.7515C126.474 23.356 126.647 22.7725 126.647 22.001C126.647 21.1953 126.481 20.5972 126.149 20.2065C125.817 19.8159 125.397 19.6206 124.89 19.6206C124.396 19.6206 123.989 19.8135 123.667 20.1992C123.349 20.5801 123.19 21.1636 123.19 21.9497ZM130.712 17.167V15.2627H132.771V17.167H130.712ZM130.712 26V18.2217H132.771V26H130.712ZM141.962 26H139.904V22.0303C139.904 21.1904 139.86 20.6484 139.772 20.4043C139.685 20.1553 139.541 19.9624 139.34 19.8257C139.145 19.689 138.908 19.6206 138.63 19.6206C138.273 19.6206 137.954 19.7183 137.67 19.9136C137.387 20.1089 137.192 20.3677 137.084 20.6899C136.982 21.0122 136.931 21.6079 136.931 22.4771V26H134.873V18.2217H136.784V19.3643C137.463 18.4854 138.317 18.0459 139.348 18.0459C139.802 18.0459 140.217 18.1289 140.593 18.2949C140.969 18.4561 141.252 18.6636 141.442 18.9175C141.638 19.1714 141.772 19.4595 141.845 19.7817C141.923 20.104 141.962 20.5654 141.962 21.166V26ZM148.217 26V15.2627H151.462L153.41 22.5869L155.336 15.2627H158.588V26H156.574V17.5479L154.443 26H152.355L150.231 17.5479V26H148.217ZM162.265 20.5947L160.397 20.2578C160.607 19.5059 160.969 18.9492 161.481 18.5879C161.994 18.2266 162.756 18.0459 163.767 18.0459C164.685 18.0459 165.368 18.1558 165.817 18.3755C166.267 18.5903 166.582 18.8662 166.762 19.2031C166.948 19.5352 167.041 20.1479 167.041 21.0415L167.019 23.4438C167.019 24.1274 167.05 24.6328 167.114 24.96C167.182 25.2822 167.307 25.6289 167.487 26H165.451C165.397 25.8633 165.332 25.6606 165.253 25.3921C165.219 25.27 165.195 25.1895 165.18 25.1504C164.829 25.4922 164.453 25.7485 164.052 25.9194C163.652 26.0903 163.225 26.1758 162.771 26.1758C161.97 26.1758 161.337 25.9585 160.874 25.5239C160.415 25.0894 160.185 24.54 160.185 23.876C160.185 23.4365 160.29 23.0459 160.5 22.7041C160.71 22.3574 161.003 22.0938 161.379 21.9131C161.76 21.7275 162.307 21.5664 163.02 21.4297C163.981 21.249 164.648 21.0806 165.019 20.9243V20.7192C165.019 20.3237 164.921 20.043 164.726 19.877C164.531 19.7061 164.162 19.6206 163.62 19.6206C163.254 19.6206 162.968 19.6938 162.763 19.8403C162.558 19.9819 162.392 20.2334 162.265 20.5947ZM165.019 22.2646C164.755 22.3525 164.338 22.4575 163.767 22.5796C163.195 22.7017 162.822 22.8213 162.646 22.9385C162.377 23.1289 162.243 23.3706 162.243 23.6636C162.243 23.9517 162.351 24.2007 162.565 24.4106C162.78 24.6206 163.054 24.7256 163.386 24.7256C163.757 24.7256 164.111 24.6035 164.448 24.3594C164.697 24.1738 164.86 23.9468 164.938 23.6782C164.992 23.5024 165.019 23.168 165.019 22.6748V22.2646ZM176.152 26H174.094V22.0303C174.094 21.1904 174.05 20.6484 173.962 20.4043C173.874 20.1553 173.73 19.9624 173.53 19.8257C173.334 19.689 173.098 19.6206 172.819 19.6206C172.463 19.6206 172.143 19.7183 171.86 19.9136C171.577 20.1089 171.381 20.3677 171.274 20.6899C171.171 21.0122 171.12 21.6079 171.12 22.4771V26H169.062V18.2217H170.974V19.3643C171.652 18.4854 172.507 18.0459 173.537 18.0459C173.991 18.0459 174.406 18.1289 174.782 18.2949C175.158 18.4561 175.441 18.6636 175.632 18.9175C175.827 19.1714 175.961 19.4595 176.035 19.7817C176.113 20.104 176.152 20.5654 176.152 21.166V26ZM179.785 20.5947L177.917 20.2578C178.127 19.5059 178.488 18.9492 179.001 18.5879C179.514 18.2266 180.275 18.0459 181.286 18.0459C182.204 18.0459 182.888 18.1558 183.337 18.3755C183.786 18.5903 184.101 18.8662 184.282 19.2031C184.467 19.5352 184.56 20.1479 184.56 21.0415L184.538 23.4438C184.538 24.1274 184.57 24.6328 184.633 24.96C184.702 25.2822 184.826 25.6289 185.007 26H182.971C182.917 25.8633 182.851 25.6606 182.773 25.3921C182.739 25.27 182.714 25.1895 182.7 25.1504C182.348 25.4922 181.972 25.7485 181.572 25.9194C181.171 26.0903 180.744 26.1758 180.29 26.1758C179.489 26.1758 178.857 25.9585 178.393 25.5239C177.934 25.0894 177.705 24.54 177.705 23.876C177.705 23.4365 177.81 23.0459 178.02 22.7041C178.229 22.3574 178.522 22.0938 178.898 21.9131C179.279 21.7275 179.826 21.5664 180.539 21.4297C181.501 21.249 182.167 21.0806 182.539 20.9243V20.7192C182.539 20.3237 182.441 20.043 182.246 19.877C182.05 19.7061 181.682 19.6206 181.14 19.6206C180.773 19.6206 180.488 19.6938 180.283 19.8403C180.078 19.9819 179.912 20.2334 179.785 20.5947ZM182.539 22.2646C182.275 22.3525 181.857 22.4575 181.286 22.5796C180.715 22.7017 180.341 22.8213 180.166 22.9385C179.897 23.1289 179.763 23.3706 179.763 23.6636C179.763 23.9517 179.87 24.2007 180.085 24.4106C180.3 24.6206 180.573 24.7256 180.905 24.7256C181.276 24.7256 181.63 24.6035 181.967 24.3594C182.216 24.1738 182.38 23.9468 182.458 23.6782C182.512 23.5024 182.539 23.168 182.539 22.6748V22.2646ZM186.406 26.5127L188.757 26.7983C188.796 27.0718 188.886 27.2598 189.028 27.3623C189.223 27.5088 189.531 27.582 189.951 27.582C190.488 27.582 190.891 27.5015 191.159 27.3403C191.34 27.2329 191.477 27.0596 191.569 26.8203C191.633 26.6494 191.665 26.3345 191.665 25.8755V24.7402C191.049 25.5801 190.273 26 189.335 26C188.291 26 187.463 25.5581 186.853 24.6743C186.374 23.9761 186.135 23.1069 186.135 22.0669C186.135 20.7632 186.447 19.7671 187.072 19.0786C187.702 18.3901 188.483 18.0459 189.416 18.0459C190.378 18.0459 191.171 18.4683 191.796 19.313V18.2217H193.723V25.2017C193.723 26.1196 193.647 26.8057 193.496 27.2598C193.344 27.7139 193.132 28.0703 192.858 28.3291C192.585 28.5879 192.219 28.7905 191.76 28.937C191.306 29.0835 190.729 29.1567 190.031 29.1567C188.713 29.1567 187.778 28.9297 187.226 28.4756C186.674 28.0264 186.398 27.4551 186.398 26.7617C186.398 26.6934 186.401 26.6104 186.406 26.5127ZM188.244 21.9497C188.244 22.7749 188.403 23.3804 188.72 23.7661C189.042 24.147 189.438 24.3374 189.907 24.3374C190.41 24.3374 190.834 24.1421 191.181 23.7515C191.528 23.356 191.701 22.7725 191.701 22.001C191.701 21.1953 191.535 20.5972 191.203 20.2065C190.871 19.8159 190.451 19.6206 189.943 19.6206C189.45 19.6206 189.042 19.8135 188.72 20.1992C188.403 20.5801 188.244 21.1636 188.244 21.9497ZM200.271 23.5244L202.321 23.8687C202.058 24.6206 201.64 25.1943 201.069 25.5898C200.502 25.9805 199.792 26.1758 198.938 26.1758C197.585 26.1758 196.584 25.7339 195.935 24.8501C195.422 24.1421 195.166 23.2485 195.166 22.1694C195.166 20.8804 195.502 19.8721 196.176 19.1445C196.85 18.4121 197.702 18.0459 198.732 18.0459C199.89 18.0459 200.803 18.4292 201.472 19.1958C202.141 19.9575 202.46 21.127 202.431 22.7041H197.275C197.29 23.3145 197.456 23.7905 197.773 24.1323C198.09 24.4692 198.486 24.6377 198.959 24.6377C199.282 24.6377 199.553 24.5498 199.772 24.374C199.992 24.1982 200.158 23.915 200.271 23.5244ZM200.388 21.4443C200.373 20.8486 200.219 20.397 199.926 20.0894C199.633 19.7769 199.277 19.6206 198.857 19.6206C198.408 19.6206 198.037 19.7842 197.744 20.1113C197.451 20.4385 197.307 20.8828 197.312 21.4443H200.388ZM206.086 26H204.028V18.2217H205.939V19.3276C206.267 18.8052 206.56 18.4609 206.818 18.2949C207.082 18.1289 207.38 18.0459 207.712 18.0459C208.181 18.0459 208.632 18.1753 209.067 18.4341L208.43 20.2285C208.083 20.0039 207.761 19.8916 207.463 19.8916C207.175 19.8916 206.931 19.9722 206.73 20.1333C206.53 20.2896 206.372 20.5752 206.254 20.9902C206.142 21.4053 206.086 22.2744 206.086 23.5977V26Z" fill="#333333"/>
</g>
<rect x="50.5" y="0.5" width="205" height="253" rx="3.5" stroke="#333333"/>
<path d="M206.278 207.585L229.243 222.997L230.148 223.604L229.097 223.895L227.77 224.259C226.912 224.508 225.981 224.743 224.916 225.1C224.628 225.241 224.332 225.355 224.02 225.565C223.712 225.773 223.491 226.019 223.412 226.341C223.234 227.169 223.759 227.815 224.053 228.249L232.619 239.003L232.918 239.378L232.555 239.692L230.015 241.892L229.612 242.24L229.29 241.816L221.191 231.174L221.186 231.166L221.181 231.159C220.557 230.276 220.09 229.781 219.413 229.781C218.628 229.781 218.168 230.375 217.526 231.284L217.521 231.293C217.166 231.773 216.84 232.254 216.523 232.728C216.209 233.198 215.902 233.664 215.595 234.099L215.593 234.103L214.624 235.447L214.033 236.269L213.74 235.3L205.521 208.145L205.116 206.805L206.278 207.585Z" fill="white" stroke="#333333"/>
<defs>
<linearGradient id="paint0_linear_412_8982" x1="295.984" y1="38.8868" x2="343.18" y2="125.766" gradientUnits="userSpaceOnUse">
<stop stop-color="#FF8E3D"/>
<stop offset="1" stop-color="#FF6F3D"/>
</linearGradient>
<linearGradient id="paint1_linear_412_8982" x1="0" y1="26.3337" x2="155.991" y2="26.3337" gradientUnits="userSpaceOnUse">
<stop stop-color="#F9B6FF"/>
<stop offset="1" stop-color="#E370EE"/>
</linearGradient>
<clipPath id="clip0_412_8982">
<rect x="50" width="206" height="254" rx="4" fill="white"/>
</clipPath>
</defs>
</svg>
