<svg width="350" height="638" viewBox="0 0 350 638" fill="none" xmlns="http://www.w3.org/2000/svg">
<g filter="url(#filter0_d)">
<path d="M298 56.8692V541.131C298 557.605 287.065 568 268.735 568C218.998 568 131.002 568 81.2653 568C62.9638 568 52 557.634 52 541.131V56.8692C52.0286 40.3659 62.9638 30 81.2653 30C131.002 30 218.998 30 268.735 30C287.065 30 298 40.3659 298 56.8692Z" fill="url(#paint0_linear)"/>
<path d="M298 132C299.094 132 300 133.006 300 134.22V161.78C300 162.994 299.094 164 298 164C298 156.474 298 132 298 132Z" fill="url(#paint1_linear)"/>
<path d="M299.5 162C299.776 162 300 161.776 300 161.5C300 161.224 299.776 161 299.5 161C299.224 161 299 161.224 299 161.5C299 161.776 299.224 162 299.5 162Z" fill="#030303"/>
<path d="M299 134.5C299 134.237 299.211 134 299.5 134C299.763 134 300 134.211 300 134.5C300 134.763 299.789 135 299.5 135C299.237 134.974 299 134.763 299 134.5Z" fill="#030303"/>
<path opacity="0.8" d="M146.24 564.322H141.814V567.647H146.24V564.322Z" fill="#5E5E5E"/>
<path opacity="0.8" d="M207.081 564.322H202.655V567.647H207.081V564.322Z" fill="#5E5E5E"/>
<path fill-rule="evenodd" clip-rule="evenodd" d="M154.585 38.877H195.416C195.587 38.877 197.124 35.8416 197.124 35.8416C197.124 35.6681 197.01 35.5525 196.84 35.5525H153.161C152.99 35.5525 152.876 35.6681 152.876 35.8416C152.876 35.8416 154.414 38.877 154.585 38.877ZM160.935 37.2006C160.935 37.6477 160.578 38.0102 160.138 38.0102C159.697 38.0102 159.34 37.6477 159.34 37.2006C159.34 36.7535 159.697 36.391 160.138 36.391C160.578 36.391 160.935 36.7535 160.935 37.2006ZM155.867 38.0104C156.307 38.0104 156.664 37.648 156.664 37.2008C156.664 36.7537 156.307 36.3912 155.867 36.3912C155.426 36.3912 155.069 36.7537 155.069 37.2008C155.069 37.648 155.426 38.0104 155.867 38.0104ZM158.002 38.0104C158.443 38.0104 158.8 37.648 158.8 37.2008C158.8 36.7537 158.443 36.3912 158.002 36.3912C157.562 36.3912 157.205 36.7537 157.205 37.2008C157.205 37.648 157.562 38.0104 158.002 38.0104ZM162.273 38.0102C162.713 38.0102 163.07 37.6477 163.07 37.2006C163.07 36.7535 162.713 36.391 162.273 36.391C161.833 36.391 161.476 36.7535 161.476 37.2006C161.476 37.6477 161.833 38.0102 162.273 38.0102ZM165.205 37.2006C165.205 37.6477 164.848 38.0102 164.408 38.0102C163.967 38.0102 163.61 37.6477 163.61 37.2006C163.61 36.7535 163.967 36.391 164.408 36.391C164.848 36.391 165.205 36.7535 165.205 37.2006ZM166.544 38.0102C166.984 38.0102 167.341 37.6477 167.341 37.2006C167.341 36.7535 166.984 36.391 166.544 36.391C166.103 36.391 165.746 36.7535 165.746 37.2006C165.746 37.6477 166.103 38.0102 166.544 38.0102ZM169.476 37.2006C169.476 37.6477 169.119 38.0102 168.679 38.0102C168.239 38.0102 167.882 37.6477 167.882 37.2006C167.882 36.7535 168.239 36.391 168.679 36.391C169.119 36.391 169.476 36.7535 169.476 37.2006ZM170.815 38.0102C171.255 38.0102 171.612 37.6477 171.612 37.2006C171.612 36.7535 171.255 36.391 170.815 36.391C170.374 36.391 170.017 36.7535 170.017 37.2006C170.017 37.6477 170.374 38.0102 170.815 38.0102ZM173.747 37.2006C173.747 37.6477 173.39 38.0102 172.95 38.0102C172.51 38.0102 172.153 37.6477 172.153 37.2006C172.153 36.7535 172.51 36.391 172.95 36.391C173.39 36.391 173.747 36.7535 173.747 37.2006ZM175.086 38.0102C175.526 38.0102 175.883 37.6477 175.883 37.2006C175.883 36.7535 175.526 36.391 175.086 36.391C174.646 36.391 174.289 36.7535 174.289 37.2006C174.289 37.6477 174.646 38.0102 175.086 38.0102ZM178.018 37.2006C178.018 37.6477 177.661 38.0102 177.221 38.0102C176.781 38.0102 176.424 37.6477 176.424 37.2006C176.424 36.7535 176.781 36.391 177.221 36.391C177.661 36.391 178.018 36.7535 178.018 37.2006ZM179.357 38.0102C179.797 38.0102 180.154 37.6477 180.154 37.2006C180.154 36.7535 179.797 36.391 179.357 36.391C178.916 36.391 178.559 36.7535 178.559 37.2006C178.559 37.6477 178.916 38.0102 179.357 38.0102ZM182.289 37.2006C182.289 37.6477 181.932 38.0102 181.492 38.0102C181.051 38.0102 180.694 37.6477 180.694 37.2006C180.694 36.7535 181.051 36.391 181.492 36.391C181.932 36.391 182.289 36.7535 182.289 37.2006ZM183.627 38.0102C184.068 38.0102 184.425 37.6477 184.425 37.2006C184.425 36.7535 184.068 36.391 183.627 36.391C183.187 36.391 182.83 36.7535 182.83 37.2006C182.83 37.6477 183.187 38.0102 183.627 38.0102ZM186.561 37.2006C186.561 37.6477 186.204 38.0102 185.763 38.0102C185.323 38.0102 184.966 37.6477 184.966 37.2006C184.966 36.7535 185.323 36.391 185.763 36.391C186.204 36.391 186.561 36.7535 186.561 37.2006ZM187.898 38.0102C188.339 38.0102 188.696 37.6477 188.696 37.2006C188.696 36.7535 188.339 36.391 187.898 36.391C187.458 36.391 187.101 36.7535 187.101 37.2006C187.101 37.6477 187.458 38.0102 187.898 38.0102ZM190.832 37.2006C190.832 37.6477 190.475 38.0102 190.034 38.0102C189.594 38.0102 189.237 37.6477 189.237 37.2006C189.237 36.7535 189.594 36.391 190.034 36.391C190.475 36.391 190.832 36.7535 190.832 37.2006ZM192.169 38.0102C192.61 38.0102 192.967 37.6477 192.967 37.2006C192.967 36.7535 192.61 36.391 192.169 36.391C191.729 36.391 191.372 36.7535 191.372 37.2006C191.372 37.6477 191.729 38.0102 192.169 38.0102ZM195.103 37.2006C195.103 37.6477 194.746 38.0102 194.305 38.0102C193.865 38.0102 193.508 37.6477 193.508 37.2006C193.508 36.7535 193.865 36.391 194.305 36.391C194.746 36.391 195.103 36.7535 195.103 37.2006Z" fill="url(#paint2_linear)"/>
<path opacity="0.5" d="M286 34C294 39 298 47.0712 298 54.7939V543.206C298 550.929 293.245 559.807 286 564C286 518.398 286 88.7228 286 34Z" fill="url(#paint3_linear)"/>
<path opacity="0.5" d="M65 34C57.1101 38.2233 52 45.0712 52 52.7939V545.206C52 552.929 57.151 559.807 65 564C65 518.398 65 88.7228 65 34Z" fill="url(#paint4_linear)"/>
<path d="M52 203C50.9063 203 50 204.006 50 205.22V232.78C50 233.994 50.9063 235 52 235C52 227.474 52 203 52 203Z" fill="url(#paint5_linear)"/>
<path d="M50.5 233C50.2238 233 50 232.776 50 232.5C50 232.224 50.2238 232 50.5 232C50.7761 232 51 232.224 51 232.5C51 232.776 50.7761 233 50.5 233Z" fill="#030303"/>
<path d="M51 205.5C51 205.237 50.7895 205 50.5 205C50.2368 205 50 205.211 50 205.5C50 205.763 50.2105 206 50.5 206C50.7632 205.974 51 205.763 51 205.5Z" fill="#030303"/>
<path d="M52 132C50.9063 132 50 133.341 50 134.96V185.04C50 186.659 50.9063 188 52 188C52 177.965 52 132 52 132Z" fill="url(#paint6_linear)"/>
<path d="M50.5005 186C50.2243 186 50.0005 185.776 50.0005 185.5C50.0005 185.224 50.2243 185 50.5005 185C50.7766 185 51.0005 185.224 51.0005 185.5C51.0005 185.776 50.7766 186 50.5005 186Z" fill="black"/>
<path d="M51.0005 134.5C51.0005 134.237 50.79 134 50.5005 134C50.2373 134 50.0005 134.211 50.0005 134.5C50.0005 134.763 50.211 135 50.5005 135C50.7636 134.974 51.0005 134.763 51.0005 134.5Z" fill="black"/>
</g>
<defs>
<filter id="filter0_d" x="0" y="0" width="350" height="638" filterUnits="userSpaceOnUse" color-interpolation-filters="sRGB">
<feFlood flood-opacity="0" result="BackgroundImageFix"/>
<feColorMatrix in="SourceAlpha" type="matrix" values="0 0 0 0 0 0 0 0 0 0 0 0 0 0 0 0 0 0 127 0"/>
<feOffset dy="20"/>
<feGaussianBlur stdDeviation="25"/>
<feColorMatrix type="matrix" values="0 0 0 0 0.333333 0 0 0 0 0.333333 0 0 0 0 0.333333 0 0 0 0.15 0"/>
<feBlend mode="normal" in2="BackgroundImageFix" result="effect1_dropShadow"/>
<feBlend mode="normal" in="SourceGraphic" in2="effect1_dropShadow" result="shape"/>
</filter>
<linearGradient id="paint0_linear" x1="52" y1="137.781" x2="298" y2="138.207" gradientUnits="userSpaceOnUse">
<stop stop-color="#525252"/>
<stop offset="0.161458"/>
<stop offset="0.828125"/>
<stop offset="1" stop-color="#4C4C4C"/>
</linearGradient>
<linearGradient id="paint1_linear" x1="300.011" y1="152.991" x2="297.995" y2="152.991" gradientUnits="userSpaceOnUse">
<stop offset="0.276042" stop-color="#6D6D6D"/>
<stop offset="0.796875"/>
</linearGradient>
<linearGradient id="paint2_linear" x1="175.008" y1="38.8694" x2="175.008" y2="35.5424" gradientUnits="userSpaceOnUse">
<stop stop-color="#333333"/>
<stop offset="0.4785" stop-color="#646464"/>
<stop offset="1" stop-color="#333333"/>
</linearGradient>
<linearGradient id="paint3_linear" x1="298.014" y1="299.003" x2="286.001" y2="299.003" gradientUnits="userSpaceOnUse">
<stop stop-color="white"/>
<stop offset="0.0698925" stop-color="white" stop-opacity="0.5376"/>
<stop offset="0.6828" stop-color="white" stop-opacity="0"/>
</linearGradient>
<linearGradient id="paint4_linear" x1="51.9851" y1="299.003" x2="64.9993" y2="299.003" gradientUnits="userSpaceOnUse">
<stop stop-color="white"/>
<stop offset="0.0698925" stop-color="white" stop-opacity="0.5376"/>
<stop offset="0.6828" stop-color="white" stop-opacity="0"/>
</linearGradient>
<linearGradient id="paint5_linear" x1="49.9886" y1="223.991" x2="52.0046" y2="223.991" gradientUnits="userSpaceOnUse">
<stop offset="0.21875" stop-color="#6D6D6D"/>
<stop offset="0.755208"/>
</linearGradient>
<linearGradient id="paint6_linear" x1="49.9886" y1="159.988" x2="52.0046" y2="159.988" gradientUnits="userSpaceOnUse">
<stop offset="0.25" stop-color="#737373"/>
<stop offset="0.78125"/>
</linearGradient>
</defs>
</svg>
