<svg width="565" height="36" viewBox="0 0 565 36" fill="none" xmlns="http://www.w3.org/2000/svg">
<g clip-path="url(#clip0_3358_11718)">
<path d="M1.06019 27C1.24352 26.1493 1.41952 25.3243 1.58819 24.525C1.75685 23.7183 1.94752 22.8237 2.16019 21.841L3.27119 16.594C3.48385 15.582 3.67819 14.6617 3.85419 13.833C4.03019 13.0043 4.20985 12.1647 4.39319 11.314C4.95052 11.314 5.50785 11.314 6.06519 11.314C6.62985 11.314 7.19819 11.314 7.77019 11.314C8.34219 11.314 8.92152 11.314 9.50819 11.314C10.7842 11.314 11.8805 11.5377 12.7972 11.985C13.7139 12.425 14.4435 13.0337 14.9862 13.811C15.5362 14.5883 15.8919 15.4793 16.0532 16.484C16.2219 17.4887 16.1889 18.5593 15.9542 19.696C15.7269 20.8107 15.3895 21.819 14.9422 22.721C14.5022 23.6157 13.9229 24.382 13.2042 25.02C12.4855 25.658 11.5909 26.1493 10.5202 26.494C9.44952 26.8313 8.16252 27 6.65919 27C5.94785 27 5.28052 27 4.65719 27C4.04119 27 3.43985 27 2.85319 27C2.27385 27 1.67619 27 1.06019 27ZM4.10719 24.888H6.87919C8.25785 24.888 9.37619 24.6643 10.2342 24.217C11.0995 23.7623 11.7705 23.128 12.2472 22.314C12.7312 21.4927 13.0869 20.5283 13.3142 19.421C13.4902 18.6143 13.5342 17.8517 13.4462 17.133C13.3582 16.4143 13.1345 15.7763 12.7752 15.219C12.4159 14.6543 11.9135 14.2143 11.2682 13.899C10.6302 13.5837 9.83819 13.426 8.89219 13.426H6.52719C6.40252 14.0053 6.27785 14.5847 6.15319 15.164C6.03585 15.7433 5.90019 16.3887 5.74619 17.1L4.86619 21.258C4.72685 21.9547 4.59485 22.5927 4.47019 23.172C4.35285 23.7513 4.23185 24.3233 4.10719 24.888ZM22.6609 27.253C21.3996 27.253 20.3473 26.9963 19.5039 26.483C18.6606 25.9697 18.0703 25.2473 17.7329 24.316C17.3956 23.3773 17.3589 22.2773 17.6229 21.016C17.8429 19.9673 18.2169 19.0507 18.7449 18.266C19.2803 17.4813 19.9403 16.8763 20.7249 16.451C21.5096 16.0183 22.3933 15.802 23.3759 15.802C24.4539 15.802 25.3339 16.0147 26.0159 16.44C26.6979 16.8653 27.1599 17.4483 27.4019 18.189C27.6439 18.9297 27.6476 19.773 27.4129 20.719C27.3689 20.9317 27.3139 21.1443 27.2479 21.357C27.1819 21.5697 27.1159 21.7713 27.0499 21.962L25.1579 21.115C25.1946 21.0123 25.2276 20.9097 25.2569 20.807C25.2863 20.697 25.3119 20.5943 25.3339 20.499C25.5099 19.6997 25.4256 19.0213 25.0809 18.464C24.7363 17.8993 24.1789 17.617 23.4089 17.617C22.9176 17.617 22.4446 17.7417 21.9899 17.991C21.5353 18.233 21.1319 18.607 20.7799 19.113C20.4279 19.619 20.1639 20.2607 19.9879 21.038L19.9109 21.412C19.7423 22.2333 19.7679 22.93 19.9879 23.502C20.2079 24.074 20.5856 24.5103 21.1209 24.811C21.6636 25.1117 22.3309 25.262 23.1229 25.262C23.4603 25.262 23.8196 25.2327 24.2009 25.174C24.5896 25.1153 24.9709 25.0273 25.3449 24.91C25.7189 24.7927 26.0636 24.646 26.3789 24.47L26.0489 26.571C25.8656 26.681 25.6016 26.791 25.2569 26.901C24.9123 27.0037 24.5163 27.088 24.0689 27.154C23.6216 27.22 23.1523 27.253 22.6609 27.253ZM18.3599 21.962L18.5799 20.356L25.9059 20.268L27.2699 20.851L27.0499 21.962H18.3599ZM32.5575 27.253C31.9488 27.253 31.3842 27.2017 30.8635 27.099C30.3428 26.9963 29.8735 26.8643 29.4555 26.703C29.0375 26.5343 28.6708 26.3473 28.3555 26.142L28.9495 24.041C29.2575 24.2683 29.5948 24.4773 29.9615 24.668C30.3282 24.8587 30.7205 25.009 31.1385 25.119C31.5638 25.229 32.0185 25.284 32.5025 25.284C32.8105 25.284 33.0892 25.2583 33.3385 25.207C33.5952 25.1557 33.8115 25.0603 33.9875 24.921C34.1708 24.7817 34.2955 24.5763 34.3615 24.305C34.4348 24.041 34.4128 23.8027 34.2955 23.59C34.1855 23.3773 33.9618 23.1647 33.6245 22.952C33.2945 22.7393 32.8325 22.4973 32.2385 22.226C31.6005 21.94 31.0872 21.632 30.6985 21.302C30.3098 20.9647 30.0458 20.576 29.9065 20.136C29.7672 19.6887 29.7635 19.168 29.8955 18.574C30.0862 17.672 30.5262 16.9863 31.2155 16.517C31.9048 16.0403 32.7738 15.802 33.8225 15.802C34.3578 15.802 34.8638 15.8423 35.3405 15.923C35.8245 16.0037 36.2682 16.1173 36.6715 16.264C37.0748 16.4033 37.4268 16.561 37.7275 16.737L37.1555 18.75C36.8622 18.5373 36.5248 18.3577 36.1435 18.211C35.7695 18.057 35.3955 17.9433 35.0215 17.87C34.6475 17.7893 34.3212 17.749 34.0425 17.749C33.8078 17.749 33.5695 17.7747 33.3275 17.826C33.0855 17.8773 32.8692 17.9837 32.6785 18.145C32.4878 18.3063 32.3558 18.5447 32.2825 18.86C32.2238 19.0947 32.2275 19.311 32.2935 19.509C32.3668 19.707 32.5355 19.905 32.7995 20.103C33.0635 20.301 33.4632 20.521 33.9985 20.763C34.6952 21.0637 35.2708 21.3863 35.7255 21.731C36.1875 22.0757 36.5102 22.479 36.6935 22.941C36.8842 23.3957 36.9135 23.953 36.7815 24.613C36.6715 25.1483 36.4442 25.614 36.0995 26.01C35.7548 26.406 35.2855 26.714 34.6915 26.934C34.1048 27.1467 33.3935 27.253 32.5575 27.253ZM46.1201 27C45.7681 26.516 45.4161 26.0357 45.0641 25.559C44.7121 25.075 44.3565 24.5947 43.9971 24.118L42.6771 22.314H41.8851L42.2261 20.686H43.0841L44.7781 19.058C45.3061 18.5593 45.8305 18.0607 46.3511 17.562C46.8791 17.056 47.4035 16.5573 47.9241 16.066H50.8941C50.1901 16.7113 49.4861 17.3567 48.7821 18.002C48.0855 18.6473 47.3815 19.2963 46.6701 19.949L44.6241 21.841L44.2721 20.752L45.9441 23.084C46.4428 23.7293 46.9415 24.382 47.4401 25.042C47.9388 25.702 48.4301 26.3547 48.9141 27H46.1201ZM38.7721 27C38.9408 26.2007 39.1058 25.427 39.2671 24.679C39.4285 23.9237 39.6008 23.1023 39.7841 22.215L41.0821 16.143C41.2728 15.2263 41.4598 14.3353 41.6431 13.47C41.8338 12.5973 42.0171 11.7393 42.1931 10.896L44.5801 10.643C44.3968 11.5303 44.2098 12.4213 44.0191 13.316C43.8285 14.2107 43.6305 15.153 43.4251 16.143L42.0501 22.622C41.8815 23.4213 41.7238 24.1657 41.5771 24.855C41.4305 25.537 41.2801 26.252 41.1261 27H38.7721ZM50.6018 27C50.8804 26.1713 51.1591 25.339 51.4378 24.503C51.7164 23.667 52.0134 22.7723 52.3288 21.819L54.0778 16.605C54.3931 15.6517 54.6901 14.757 54.9688 13.921C55.2474 13.0777 55.5371 12.2087 55.8378 11.314H58.3678C58.5658 12.3773 58.7564 13.393 58.9398 14.361C59.1231 15.329 59.3028 16.297 59.4788 17.265L60.5458 22.952H60.7328L64.1538 17.254C64.7258 16.286 65.3014 15.3217 65.8808 14.361C66.4601 13.4003 67.0688 12.3847 67.7068 11.314H70.3908C70.3174 12.194 70.2441 13.0557 70.1708 13.899C70.0974 14.735 70.0168 15.637 69.9288 16.605L69.4778 21.852C69.4044 22.798 69.3311 23.678 69.2578 24.492C69.1844 25.306 69.1111 26.142 69.0378 27H66.5738C66.6911 25.7167 66.8011 24.492 66.9038 23.326C67.0064 22.16 67.1018 21.082 67.1898 20.092L67.5638 15.758H67.3878L64.6488 20.411C63.9814 21.5477 63.3141 22.6843 62.6468 23.821C61.9868 24.9503 61.3634 26.01 60.7768 27H59.0388C58.9288 26.3693 58.8041 25.6873 58.6648 24.954C58.5254 24.2133 58.3824 23.458 58.2358 22.688C58.0964 21.918 57.9571 21.1737 57.8178 20.455L56.9378 15.758H56.7618L55.3208 20.092C54.9908 21.104 54.6351 22.1857 54.2538 23.337C53.8724 24.4883 53.4654 25.7093 53.0328 27H50.6018ZM72.1279 27C72.2966 26.2007 72.4616 25.4307 72.6229 24.69C72.7843 23.942 72.9603 23.1133 73.1509 22.204L73.3819 21.115C73.5286 20.4257 73.6606 19.8023 73.7779 19.245C73.8953 18.6803 74.0089 18.1413 74.1189 17.628C74.2289 17.1147 74.3389 16.594 74.4489 16.066L76.8139 15.989C76.7039 16.539 76.5939 17.0707 76.4839 17.584C76.3739 18.0973 76.2566 18.64 76.1319 19.212C76.0146 19.7767 75.8789 20.411 75.7249 21.115L75.4939 22.204C75.3033 23.1133 75.1273 23.942 74.9659 24.69C74.8119 25.4307 74.6506 26.2007 74.4819 27H72.1279ZM76.0769 13.844C75.6076 13.844 75.2519 13.6973 75.0099 13.404C74.7679 13.1107 74.7019 12.7 74.8119 12.172C74.9146 11.6807 75.1346 11.3323 75.4719 11.127C75.8166 10.9143 76.2273 10.808 76.7039 10.808C77.1806 10.808 77.5326 10.9693 77.7599 11.292C77.9873 11.6073 78.0533 12.0033 77.9579 12.48C77.8479 13.0007 77.6279 13.36 77.2979 13.558C76.9679 13.7487 76.5609 13.844 76.0769 13.844ZM77.8952 27C78.0639 26.2007 78.2289 25.427 78.3902 24.679C78.5515 23.9237 78.7239 23.0987 78.9072 22.204L79.1382 21.104C79.2995 20.3707 79.4682 19.5787 79.6442 18.728C79.8275 17.87 80.0182 16.9827 80.2162 16.066L82.2402 15.934L81.9322 17.848H82.1522C82.4162 17.5107 82.7462 17.1843 83.1422 16.869C83.5455 16.5537 83.9965 16.297 84.4952 16.099C85.0012 15.8937 85.5365 15.791 86.1012 15.791C87.3039 15.791 88.1399 16.1723 88.6092 16.935C89.0785 17.6977 89.1739 18.7317 88.8952 20.037C88.8292 20.345 88.7559 20.6787 88.6752 21.038C88.6019 21.3973 88.5212 21.786 88.4332 22.204C88.2425 23.106 88.0665 23.931 87.9052 24.679C87.7439 25.427 87.5789 26.2007 87.4102 27H85.0672C85.2359 26.1933 85.3972 25.4233 85.5512 24.69C85.7052 23.9567 85.8702 23.1683 86.0462 22.325L86.3982 20.62C86.5742 19.7913 86.5559 19.1423 86.3432 18.673C86.1305 18.2037 85.6465 17.969 84.8912 17.969C84.4732 17.969 84.0845 18.0533 83.7252 18.222C83.3659 18.3907 83.0249 18.618 82.7022 18.904C82.3795 19.19 82.0642 19.5127 81.7562 19.872L81.2392 22.314C81.0632 23.1647 80.8945 23.9603 80.7332 24.701C80.5792 25.4343 80.4179 26.2007 80.2492 27H77.8952ZM90.6045 27C90.7732 26.2007 90.9382 25.4307 91.0995 24.69C91.2608 23.942 91.4368 23.1133 91.6275 22.204L91.8585 21.115C92.0052 20.4257 92.1372 19.8023 92.2545 19.245C92.3718 18.6803 92.4855 18.1413 92.5955 17.628C92.7055 17.1147 92.8155 16.594 92.9255 16.066L95.2905 15.989C95.1805 16.539 95.0705 17.0707 94.9605 17.584C94.8505 18.0973 94.7332 18.64 94.6085 19.212C94.4912 19.7767 94.3555 20.411 94.2015 21.115L93.9705 22.204C93.7798 23.1133 93.6038 23.942 93.4425 24.69C93.2885 25.4307 93.1272 26.2007 92.9585 27H90.6045ZM94.5535 13.844C94.0842 13.844 93.7285 13.6973 93.4865 13.404C93.2445 13.1107 93.1785 12.7 93.2885 12.172C93.3912 11.6807 93.6112 11.3323 93.9485 11.127C94.2932 10.9143 94.7038 10.808 95.1805 10.808C95.6572 10.808 96.0092 10.9693 96.2365 11.292C96.4638 11.6073 96.5298 12.0033 96.4345 12.48C96.3245 13.0007 96.1045 13.36 95.7745 13.558C95.4445 13.7487 95.0375 13.844 94.5535 13.844ZM107.337 27.264C105.789 27.264 104.576 26.956 103.696 26.34C102.816 25.7167 102.233 24.8917 101.947 23.865C101.668 22.8383 101.661 21.7127 101.925 20.488C101.983 20.202 102.057 19.8537 102.145 19.443C102.233 19.0323 102.328 18.5813 102.431 18.09C102.541 17.5987 102.651 17.0963 102.761 16.583C102.981 15.5857 103.179 14.6763 103.355 13.855C103.531 13.0263 103.71 12.1793 103.894 11.314H106.479C106.295 12.1793 106.116 13.0227 105.94 13.844C105.764 14.6653 105.566 15.5783 105.346 16.583L104.51 20.532C104.326 21.39 104.301 22.1637 104.433 22.853C104.565 23.5423 104.88 24.0887 105.379 24.492C105.885 24.888 106.6 25.086 107.524 25.086C108.448 25.086 109.199 24.9247 109.779 24.602C110.365 24.2793 110.824 23.8283 111.154 23.249C111.484 22.6623 111.733 21.9803 111.902 21.203L112.881 16.594C113.101 15.5967 113.299 14.6837 113.475 13.855C113.651 13.019 113.83 12.172 114.014 11.314H116.588C116.412 12.172 116.236 13.0153 116.06 13.844C115.884 14.6653 115.686 15.582 115.466 16.594C115.334 17.2467 115.194 17.903 115.048 18.563C114.908 19.2157 114.78 19.8133 114.663 20.356C114.553 20.8987 114.465 21.3313 114.399 21.654C114.171 22.7247 113.797 23.6817 113.277 24.525C112.756 25.3683 112.019 26.0357 111.066 26.527C110.112 27.0183 108.869 27.264 107.337 27.264ZM116.194 27C116.472 26.1713 116.751 25.339 117.03 24.503C117.308 23.667 117.605 22.7723 117.921 21.819L119.67 16.605C119.985 15.6517 120.282 14.757 120.561 13.921C120.839 13.0777 121.129 12.2087 121.43 11.314H123.96C124.158 12.3773 124.348 13.393 124.532 14.361C124.715 15.329 124.895 16.297 125.071 17.265L126.138 22.952H126.325L129.746 17.254C130.318 16.286 130.893 15.3217 131.473 14.361C132.052 13.4003 132.661 12.3847 133.299 11.314H135.983C135.909 12.194 135.836 13.0557 135.763 13.899C135.689 14.735 135.609 15.637 135.521 16.605L135.07 21.852C134.996 22.798 134.923 23.678 134.85 24.492C134.776 25.306 134.703 26.142 134.63 27H132.166C132.283 25.7167 132.393 24.492 132.496 23.326C132.598 22.16 132.694 21.082 132.782 20.092L133.156 15.758H132.98L130.241 20.411C129.573 21.5477 128.906 22.6843 128.239 23.821C127.579 24.9503 126.955 26.01 126.369 27H124.631C124.521 26.3693 124.396 25.6873 124.257 24.954C124.117 24.2133 123.974 23.458 123.828 22.688C123.688 21.918 123.549 21.1737 123.41 20.455L122.53 15.758H122.354L120.913 20.092C120.583 21.104 120.227 22.1857 119.846 23.337C119.464 24.4883 119.057 25.7093 118.625 27H116.194ZM142.472 27.253C141.929 27.253 141.397 27.2127 140.877 27.132C140.356 27.0587 139.861 26.9523 139.392 26.813C138.93 26.6737 138.508 26.5197 138.127 26.351C137.745 26.175 137.419 25.9917 137.148 25.801L137.819 23.623C138.163 23.8577 138.523 24.0703 138.897 24.261C139.271 24.4517 139.652 24.6167 140.041 24.756C140.429 24.888 140.829 24.9907 141.24 25.064C141.65 25.13 142.068 25.163 142.494 25.163C143.572 25.163 144.378 24.9797 144.914 24.613C145.456 24.2463 145.801 23.7147 145.948 23.018C146.138 22.1673 145.944 21.4853 145.365 20.972C144.785 20.4513 143.872 20.191 142.626 20.191C142.369 20.191 142.112 20.191 141.856 20.191C141.599 20.191 141.335 20.191 141.064 20.191L141.493 18.222C141.735 18.222 141.977 18.222 142.219 18.222C142.468 18.222 142.714 18.222 142.956 18.222C143.784 18.222 144.47 18.145 145.013 17.991C145.563 17.8297 145.992 17.595 146.3 17.287C146.608 16.979 146.809 16.5977 146.905 16.143C147.073 15.3803 146.934 14.7827 146.487 14.35C146.039 13.9173 145.376 13.701 144.496 13.701C144.188 13.701 143.858 13.734 143.506 13.8C143.161 13.8587 142.794 13.954 142.406 14.086C142.024 14.218 141.625 14.3793 141.207 14.57C140.796 14.7607 140.371 14.9843 139.931 15.241L140.162 12.843C140.484 12.689 140.829 12.5387 141.196 12.392C141.57 12.238 141.962 12.1023 142.373 11.985C142.783 11.8677 143.205 11.7723 143.638 11.699C144.078 11.6257 144.529 11.589 144.991 11.589C146.039 11.589 146.927 11.787 147.653 12.183C148.379 12.579 148.903 13.1107 149.226 13.778C149.548 14.438 149.625 15.1713 149.457 15.978C149.325 16.6013 149.09 17.1183 148.753 17.529C148.423 17.9323 148.019 18.2513 147.543 18.486C147.073 18.7207 146.56 18.8893 146.003 18.992L145.959 19.223C146.296 19.3183 146.633 19.4797 146.971 19.707C147.308 19.927 147.605 20.2167 147.862 20.576C148.126 20.928 148.309 21.346 148.412 21.83C148.514 22.3067 148.503 22.8493 148.379 23.458C148.21 24.272 147.895 24.9613 147.433 25.526C146.971 26.0907 146.333 26.5197 145.519 26.813C144.705 27.1063 143.689 27.253 142.472 27.253ZM154.994 27.253C154.481 27.253 153.971 27.2127 153.465 27.132C152.966 27.0587 152.486 26.956 152.024 26.824C151.569 26.6847 151.151 26.527 150.77 26.351C150.389 26.175 150.066 25.9953 149.802 25.812L150.473 23.623C150.81 23.8577 151.159 24.0703 151.518 24.261C151.885 24.4517 152.259 24.6167 152.64 24.756C153.021 24.888 153.406 24.9907 153.795 25.064C154.191 25.13 154.591 25.163 154.994 25.163C156.043 25.163 156.886 24.9467 157.524 24.514C158.162 24.0813 158.58 23.3737 158.778 22.391C158.917 21.687 158.888 21.0967 158.69 20.62C158.492 20.1433 158.166 19.784 157.711 19.542C157.256 19.3 156.725 19.179 156.116 19.179C155.588 19.179 155.082 19.245 154.598 19.377C154.121 19.509 153.575 19.7437 152.959 20.081L151.925 20.004L152.42 17.595C152.64 16.5683 152.849 15.571 153.047 14.603C153.252 13.635 153.443 12.733 153.619 11.897H162.617L162.199 13.998C161.312 13.998 160.424 13.998 159.537 13.998C158.657 13.998 157.784 13.998 156.919 13.998H154.686L155.709 13.206C155.577 13.8293 155.441 14.4563 155.302 15.087C155.163 15.7103 155.027 16.3337 154.895 16.957L154.708 17.815H154.917C155.306 17.617 155.691 17.463 156.072 17.353C156.453 17.243 156.89 17.188 157.381 17.188C158.239 17.188 159.002 17.4117 159.669 17.859C160.336 18.299 160.82 18.9223 161.121 19.729C161.429 20.5357 161.469 21.4817 161.242 22.567C161.022 23.6083 160.652 24.4773 160.131 25.174C159.618 25.8633 158.936 26.384 158.085 26.736C157.234 27.0807 156.204 27.253 154.994 27.253ZM169.242 27.253C168.12 27.253 167.178 27.0293 166.415 26.582C165.653 26.1273 165.07 25.504 164.666 24.712C164.263 23.9127 164.025 22.9997 163.951 21.973C163.878 20.939 163.962 19.8427 164.204 18.684C164.512 17.1807 164.963 15.901 165.557 14.845C166.159 13.789 166.921 12.986 167.845 12.436C168.777 11.8787 169.891 11.6 171.189 11.6C172.26 11.6 173.166 11.82 173.906 12.26C174.647 12.7 175.223 13.3087 175.633 14.086C176.051 14.8633 176.301 15.7727 176.381 16.814C176.462 17.848 176.378 18.9627 176.128 20.158C175.798 21.7127 175.333 23.018 174.731 24.074C174.13 25.1227 173.378 25.9147 172.476 26.45C171.574 26.9853 170.496 27.253 169.242 27.253ZM169.319 25.185C170.141 25.185 170.834 24.9687 171.398 24.536C171.963 24.1033 172.425 23.4947 172.784 22.71C173.144 21.918 173.437 20.9867 173.664 19.916C173.921 18.728 173.998 17.6647 173.895 16.726C173.793 15.78 173.51 15.0357 173.048 14.493C172.594 13.9503 171.959 13.679 171.145 13.679C170.309 13.679 169.602 13.8953 169.022 14.328C168.443 14.7533 167.963 15.362 167.581 16.154C167.207 16.9387 166.907 17.87 166.679 18.948C166.437 20.092 166.36 21.137 166.448 22.083C166.536 23.029 166.811 23.7843 167.273 24.349C167.743 24.9063 168.425 25.185 169.319 25.185ZM190.825 25.757C190.825 25.0383 190.825 24.349 190.825 23.689C190.825 23.0217 190.825 22.3947 190.825 21.808V18.959C190.825 18.3723 190.825 17.749 190.825 17.089C190.825 16.4217 190.825 15.7323 190.825 15.021H192.937C192.937 15.7323 192.937 16.4217 192.937 17.089C192.937 17.749 192.937 18.3723 192.937 18.959V21.808C192.937 22.3947 192.937 23.0217 192.937 23.689C192.937 24.349 192.937 25.0383 192.937 25.757H190.825ZM186.645 21.423V19.355C187.356 19.355 188.046 19.355 188.713 19.355C189.38 19.355 190.004 19.355 190.583 19.355H193.179C193.758 19.355 194.382 19.355 195.049 19.355C195.716 19.355 196.406 19.355 197.117 19.355V21.423C196.406 21.423 195.716 21.423 195.049 21.423C194.382 21.423 193.758 21.423 193.179 21.423H190.583C190.004 21.423 189.38 21.423 188.713 21.423C188.046 21.423 187.356 21.423 186.645 21.423Z" fill="#333333"/>
<path d="M267.769 10.6906C267.748 10.6906 267.748 10.6906 267.748 10.6906C267.384 10.6906 267.06 10.8525 266.837 11.156L262.806 16.7417L258.775 11.156C258.572 10.8525 258.208 10.6906 257.884 10.6906C257.843 10.6906 257.843 10.6906 257.823 10.6906C257.215 10.6906 256.709 11.1965 256.709 11.8036V23.7441C256.709 24.3513 257.215 24.8572 257.823 24.8572C258.451 24.8572 258.957 24.3513 258.957 23.7441V15.2239L261.854 19.2715C262.077 19.5751 262.421 19.737 262.786 19.737H262.806H262.826C263.191 19.737 263.515 19.5751 263.738 19.2715L266.654 15.2239V23.7441C266.654 24.3513 267.141 24.8572 267.769 24.8572C268.376 24.8572 268.903 24.3513 268.903 23.7441V11.8036C268.903 11.1965 268.376 10.7108 267.769 10.6906Z" fill="#444444"/>
<path d="M280.717 24.1488C280.88 24.5941 281.305 24.8572 281.75 24.8572C281.892 24.8572 282.034 24.8369 282.135 24.7965C282.723 24.5738 283.006 23.9262 282.804 23.3393L278.327 11.4191C278.145 10.9738 277.72 10.6905 277.254 10.7107C276.808 10.6905 276.363 10.9738 276.18 11.4191L271.704 23.3393C271.501 23.9262 271.785 24.5738 272.372 24.7965C272.494 24.8369 272.615 24.8572 272.757 24.8572C273.203 24.8572 273.628 24.5941 273.81 24.1488L274.803 21.5179H279.725L280.717 24.1488ZM275.613 19.2917L277.254 14.9405L278.894 19.2917H275.613Z" fill="#444444"/>
<path d="M287.817 15.3453L294.299 24.331C294.319 24.3715 294.36 24.412 294.4 24.4524C294.603 24.6953 294.906 24.8572 295.231 24.8572C295.838 24.8572 296.345 24.3512 296.345 23.7441V11.9858C296.345 11.3989 295.838 10.8929 295.231 10.8929C294.623 10.8929 294.137 11.3989 294.137 11.9858V20.3239L287.594 11.2774C287.25 10.7917 286.561 10.6905 286.055 11.0346C285.751 11.2572 285.589 11.6215 285.609 11.9655C285.609 11.9858 285.609 11.9858 285.609 11.9858V23.7441C285.609 24.3512 286.095 24.8572 286.723 24.8572C287.311 24.8572 287.817 24.3512 287.817 23.7441V15.3453Z" fill="#444444"/>
<path d="M300.871 19.9798C300.304 20.1417 299.959 20.7691 300.162 21.3763C300.81 23.4001 302.714 24.8572 304.942 24.8572C307.717 24.8572 309.986 22.6108 309.986 19.8382V11.8036C309.986 11.1763 309.48 10.6906 308.872 10.6906C308.244 10.6906 307.738 11.1763 307.738 11.8036V19.8382C307.738 21.356 306.482 22.6108 304.942 22.6108C303.707 22.6108 302.653 21.8013 302.289 20.6882C302.107 20.1013 301.479 19.7775 300.871 19.9798Z" fill="#444444"/>
<path d="M320.952 24.1488C321.114 24.5941 321.539 24.8572 321.985 24.8572C322.127 24.8572 322.268 24.8369 322.37 24.7965C322.957 24.5738 323.241 23.9262 323.038 23.3393L318.562 11.4191C318.379 10.9738 317.954 10.6905 317.488 10.7107C317.043 10.6905 316.597 10.9738 316.415 11.4191L311.938 23.3393C311.736 23.9262 312.019 24.5738 312.607 24.7965C312.728 24.8369 312.85 24.8572 312.991 24.8572C313.437 24.8572 313.862 24.5941 314.045 24.1488L315.037 21.5179H319.959L320.952 24.1488ZM315.847 19.2917L317.488 14.9405L319.129 19.2917H315.847Z" fill="#444444"/>
<path d="M334.493 22.4894C334.452 22.287 334.391 21.9025 334.411 21.2953C334.411 20.4453 334.148 19.6965 333.743 19.1096C333.541 18.806 333.297 18.5632 333.034 18.3608C334.006 17.5513 334.614 16.3775 334.614 15.0417C334.614 12.6334 332.69 10.6906 330.279 10.6906H326.674C326.654 10.6906 326.654 10.6906 326.654 10.6906C326.026 10.6906 325.54 11.1763 325.54 11.8036V23.7441C325.54 24.3513 326.026 24.8572 326.654 24.8572C327.282 24.8572 327.788 24.3513 327.788 23.7441V19.3525H330.178C330.36 19.3929 330.887 19.5548 331.312 19.8382C331.555 20.0001 331.799 20.2025 331.92 20.4251C332.062 20.6477 332.143 20.9108 332.163 21.2953C332.163 22.4084 332.305 23.137 332.588 23.7239C332.751 24.0072 332.973 24.2703 333.237 24.4322C333.52 24.6144 333.824 24.6548 334.027 24.6548C334.047 24.6548 334.047 24.6548 334.047 24.6548C334.249 24.6548 334.411 24.6144 334.493 24.5941C335.08 24.3917 335.404 23.7644 335.201 23.1775C335.08 22.8334 334.817 22.5906 334.493 22.4894ZM330.279 17.106H327.788V12.937H330.279C331.434 12.937 332.366 13.8679 332.366 15.0417C332.366 16.1751 331.434 17.106 330.279 17.106Z" fill="#444444"/>
<path d="M344.466 10.2858C342.522 10.2858 340.739 11.1155 339.504 12.4512C338.248 13.787 337.499 15.5679 337.499 17.5715C337.499 19.5751 338.248 21.3762 339.504 22.6917C340.739 24.0072 342.522 24.8572 344.466 24.8572C346.33 24.8572 348.112 24.0072 349.308 22.6917C350.563 21.3762 351.353 19.5751 351.353 17.5715C351.353 15.5679 350.563 13.787 349.308 12.4512C348.112 11.1155 346.33 10.2858 344.466 10.2858ZM347.667 21.0929C346.816 22.0036 345.682 22.5501 344.466 22.5501C343.17 22.5501 342.036 22.0036 341.185 21.0929C340.334 20.2227 339.808 18.9477 339.808 17.5715C339.808 16.1953 340.334 14.9203 341.185 14.0298C342.036 13.1191 343.17 12.5929 344.466 12.5929C345.682 12.5929 346.816 13.1191 347.667 14.0298C348.497 14.9203 349.044 16.1953 349.044 17.5715C349.044 18.9477 348.497 20.2227 347.667 21.0929Z" fill="#444444"/>
<path d="M362.543 24.8572C362.543 24.8572 362.543 24.8572 362.563 24.8572C362.563 24.8572 362.563 24.8572 362.604 24.8572H369.166C369.754 24.8572 370.28 24.3513 370.28 23.7441C370.28 23.1168 369.754 22.6108 369.166 22.6108H363.677V11.8036C363.677 11.1965 363.171 10.6906 362.543 10.6906C361.915 10.6906 361.429 11.1965 361.429 11.8036V23.7441C361.429 24.3513 361.915 24.8572 362.543 24.8572Z" fill="#444444"/>
<path d="M373.083 23.7441C373.083 24.3715 373.569 24.8572 374.197 24.8572C374.805 24.8572 375.332 24.3715 375.332 23.7441V11.8036C375.332 11.1763 374.805 10.6906 374.197 10.6906C373.569 10.6906 373.083 11.1763 373.083 11.8036V23.7441Z" fill="#444444"/>
<path d="M381.34 15.3453L387.822 24.331C387.842 24.3715 387.883 24.412 387.923 24.4524C388.126 24.6953 388.43 24.8572 388.754 24.8572C389.362 24.8572 389.868 24.3512 389.868 23.7441V11.9858C389.868 11.3989 389.362 10.8929 388.754 10.8929C388.146 10.8929 387.66 11.3989 387.66 11.9858V20.3239L381.118 11.2774C380.773 10.7917 380.085 10.6905 379.578 11.0346C379.274 11.2572 379.112 11.6215 379.133 11.9655C379.133 11.9858 379.133 11.9858 379.133 11.9858V23.7441C379.133 24.3512 379.619 24.8572 380.247 24.8572C380.834 24.8572 381.34 24.3512 381.34 23.7441V15.3453Z" fill="#444444"/>
<path d="M405.439 19.0084V11.8036C405.439 11.1763 404.953 10.6906 404.325 10.6906C403.697 10.6906 403.19 11.1763 403.19 11.8036V19.0084C403.19 20.9917 401.59 22.6108 399.585 22.6108C397.6 22.6108 395.979 20.9917 395.979 19.0084V11.8036C395.979 11.1763 395.453 10.6906 394.845 10.6906C394.217 10.6906 393.731 11.1763 393.731 11.8036V19.0084C393.731 22.2263 396.324 24.8572 399.585 24.8572C402.826 24.8572 405.439 22.2263 405.439 19.0084Z" fill="#444444"/>
<path d="M419.915 11.075C419.409 10.6905 418.74 10.7917 418.355 11.3179L414.952 15.9726L411.529 11.3179C411.185 10.7917 410.476 10.6905 409.99 11.075C409.483 11.419 409.382 12.1071 409.726 12.6131L413.575 17.8345L409.726 23.0964C409.382 23.5821 409.483 24.2905 409.99 24.6345C410.172 24.7762 410.395 24.8571 410.638 24.8571C410.982 24.8571 411.306 24.675 411.529 24.3917L414.952 19.7167L418.355 24.3917C418.578 24.675 418.902 24.8571 419.267 24.8571C419.49 24.8571 419.712 24.7762 419.915 24.6345C420.421 24.2905 420.502 23.5821 420.158 23.0964L416.309 17.8345L420.158 12.6131C420.502 12.1071 420.421 11.419 419.915 11.075Z" fill="#444444"/>
<path d="M247.236 0H236.717V36H247.236V0Z" fill="#35BF5C"/>
<path d="M234.524 12.7317H224.005V36.0001H234.524V12.7317Z" fill="#35BF5C"/>
<path d="M221.814 0H211.295V36H221.814V0Z" fill="#35BF5C"/>
<path d="M234.524 10.5363V0H215.027V10.5363H234.524Z" fill="#35BF5C"/>
</g>
<path d="M562.998 27.015C562.761 27.0616 562.377 27.114 561.859 27.1781C561.342 27.2423 560.737 27.3005 560.04 27.3588C559.343 27.4171 558.558 27.4753 557.692 27.522C556.826 27.5686 555.925 27.592 554.983 27.592C553.105 27.592 551.571 27.4287 550.38 27.1023C549.187 26.776 548.252 26.3447 547.566 25.8027C546.88 25.2607 546.409 24.6313 546.159 23.9202C545.909 23.2092 545.782 22.4807 545.782 21.7289C545.782 20.738 545.933 19.8697 546.229 19.1237C546.531 18.3777 547.025 17.7483 547.711 17.2412C548.397 16.7342 549.292 16.3553 550.403 16.0989C551.507 15.8483 552.855 15.72 554.443 15.72C555.355 15.72 556.221 15.7492 557.04 15.8133C557.854 15.8716 558.47 15.9299 558.877 15.9765C558.877 15.1314 558.738 14.4321 558.465 13.8784C558.191 13.3247 557.808 12.8876 557.326 12.5729C556.843 12.2582 556.268 12.0425 555.593 11.9201C554.919 11.7978 554.175 11.7395 553.355 11.7395C551.984 11.7395 550.885 11.8968 550.053 12.2115C549.223 12.5263 548.676 12.7885 548.415 13.01C548.269 12.8876 548.072 12.6603 547.816 12.3223C547.566 11.9843 547.438 11.5763 547.438 11.0926C547.438 10.7545 547.531 10.4223 547.705 10.0959C547.885 9.76957 548.205 9.47816 548.664 9.22756C549.117 8.97695 549.734 8.77296 550.502 8.62726C551.274 8.48156 552.245 8.41162 553.425 8.41162C554.843 8.41162 556.134 8.5515 557.302 8.82542C558.47 9.10517 559.47 9.54227 560.313 10.1484C561.15 10.7545 561.813 11.5471 562.278 12.5379C562.743 13.5287 562.981 14.7235 562.981 16.1222V27.015H562.998ZM558.924 18.9838C558.685 18.9372 558.232 18.8614 557.57 18.7682C556.907 18.6691 555.913 18.6225 554.594 18.6225C552.96 18.6225 551.763 18.8673 551.025 19.3627C550.274 19.858 549.908 20.6332 549.908 21.6939C549.908 22.131 549.984 22.5273 550.141 22.8887C550.298 23.25 550.571 23.5589 550.955 23.8095C551.339 24.0601 551.862 24.2583 552.524 24.3865C553.187 24.5205 554.012 24.5847 554.994 24.5847C556.099 24.5847 556.983 24.5438 557.628 24.4564C558.279 24.3748 558.709 24.3049 558.93 24.2583V18.9838H558.924Z" fill="#231F20"/>
<path d="M524.815 16.1457C524.815 14.9393 525.036 13.8611 525.483 12.9111C525.931 11.9611 526.541 11.151 527.326 10.4866C528.105 9.82218 529.035 9.31513 530.105 8.96545C531.174 8.61576 532.348 8.44092 533.622 8.44092C534.894 8.44092 536.074 8.61576 537.155 8.96545C538.236 9.31513 539.172 9.82218 539.951 10.4866C540.73 11.151 541.34 11.9611 541.771 12.9111C542.207 13.8611 542.421 14.9451 542.421 16.1457V27.1083H538.312V17.1947C538.312 15.557 537.911 14.304 537.121 13.4531C536.33 12.5964 535.161 12.1651 533.622 12.1651C532.057 12.1651 530.883 12.5964 530.105 13.4531C529.325 14.3098 528.93 15.557 528.93 17.1947V27.1083H524.815V16.1457Z" fill="#231F20"/>
<path d="M434.992 15.4286C434.992 14.2688 435.195 13.2547 435.608 12.3922C436.021 11.5238 436.579 10.8011 437.288 10.2183C437.997 9.6413 438.834 9.19836 439.793 8.90113C440.752 8.59806 441.804 8.44653 442.932 8.44653C444.426 8.44653 445.757 8.72046 446.937 9.27996C448.117 9.83363 449.053 10.6554 449.75 11.7394C450.448 10.6554 451.372 9.83363 452.529 9.27996C453.685 8.72629 454.993 8.44653 456.464 8.44653C457.568 8.44653 458.603 8.59224 459.568 8.88364C460.527 9.17504 461.358 9.60632 462.056 10.1833C462.753 10.7661 463.305 11.483 463.718 12.3514C464.125 13.2198 464.334 14.2339 464.334 15.3878V27.1139H460.219V16.804C460.219 15.1372 459.847 13.9483 459.103 13.2372C458.359 12.5262 457.347 12.1707 456.074 12.1707C454.848 12.1707 453.819 12.567 452.988 13.3655C452.157 14.1639 451.744 15.4519 451.744 17.2353V27.1139H447.628V17.2353C447.628 15.4519 447.216 14.1639 446.385 13.3655C445.559 12.5728 444.525 12.1707 443.304 12.1707C442.054 12.1707 441.043 12.532 440.275 13.2547C439.502 13.9774 439.119 15.1722 439.119 16.839V27.1139H435.003V15.4286H434.992Z" fill="#231F20"/>
<path d="M468.513 10.8655C468.513 10.1894 468.705 9.69982 469.094 9.40259C469.478 9.09953 470.019 8.948 470.716 8.948C471.146 8.948 471.542 9.00628 471.908 9.11118C472.268 9.22192 472.512 9.29769 472.629 9.34431V18.8616C472.629 20.4993 473.012 21.7524 473.785 22.6091C474.553 23.4658 475.733 23.8913 477.319 23.8913C478.906 23.8913 480.086 23.4658 480.853 22.6091C481.627 21.7524 482.01 20.5051 482.01 18.8616V10.8655C482.01 10.1894 482.202 9.69982 482.586 9.40259C482.969 9.09953 483.504 8.948 484.173 8.948C484.626 8.948 485.039 9.00628 485.399 9.11118C485.759 9.22192 485.998 9.29769 486.12 9.34431V19.765C486.12 20.9947 485.911 22.1021 485.486 23.0754C485.068 24.0486 484.463 24.8762 483.684 25.5523C482.905 26.2284 481.97 26.7412 480.888 27.0909C479.807 27.4406 478.616 27.6154 477.314 27.6154C476.017 27.6154 474.826 27.4406 473.745 27.0909C472.663 26.7412 471.733 26.2284 470.966 25.5523C470.193 24.8762 469.594 24.0486 469.158 23.0754C468.728 22.0962 468.507 20.9947 468.507 19.765V10.8655H468.513Z" fill="#231F20"/>
<path d="M492.386 10.2709C491.026 11.489 490.346 13.2083 490.346 15.4288H490.352V27.1142H494.467V16.6177C494.467 13.6338 495.874 12.1359 498.687 12.1359C499.048 12.1359 499.371 12.1609 499.674 12.2048C501.582 12.6116 502.807 13.4304 503.861 14.3252C504.011 13.8065 504.364 12.8197 504.688 12.2438C505.053 11.5963 505.311 11.2147 505.613 10.8796C503.76 9.51943 501.409 8.44095 498.209 8.44095L498.208 8.44195C498.151 8.44126 498.093 8.44092 498.036 8.44092C495.629 8.44092 493.746 9.05287 492.386 10.2709Z" fill="#231F20"/>
<path d="M508.586 19.695C508.586 19.695 508.303 18.7892 508.397 17.7003L504.682 15.0808C504.423 16.0009 504.244 17.0024 504.244 17.9757C504.244 21.4784 506 24.4915 508.697 26.1758L511.289 23.4657C509.679 22.5157 508.83 20.8897 508.586 19.695Z" fill="url(#paint0_linear_3358_11718)"/>
<path d="M519.292 22.6908C519.292 22.6908 518.746 23.1221 517.782 23.6C516.619 24.1712 515.114 24.4859 513.271 24.1945C512.51 24.0721 511.852 23.8156 511.283 23.4776L509.177 24.1945L508.69 26.1877C510.109 27.0736 511.783 27.6098 513.625 27.6098C518.258 27.6098 520.653 24.8589 520.653 24.8589L520.451 23.4776L519.292 22.6908Z" fill="url(#paint1_linear_3358_11718)"/>
<path d="M522.949 20.8489C523.252 19.6832 522.496 19.2811 521.95 20.0504C520.039 22.5259 518.063 23.4649 518.063 23.4649L519.292 25.9445C521.531 24.58 522.577 22.2825 522.949 20.8489Z" fill="url(#paint2_linear_3358_11718)"/>
<path d="M513.823 12.0602C516.729 12.0602 518.357 14.0884 518.083 15.0384L522.147 14.1001C522.042 13.4298 521.775 12.7188 521.205 11.9262C519.723 9.86304 516.973 8.45264 513.404 8.45264C510.949 8.45264 508.324 9.67338 506.607 11.5528C506.581 11.5819 505.387 12.7811 504.686 15.0805C506.049 16.7227 508.397 17.6992 508.397 17.6992C508.446 16.2299 509.02 14.9048 509.661 14.0838C510.267 13.2449 511.572 12.0602 513.823 12.0602Z" fill="url(#paint3_linear_3358_11718)"/>
<path d="M514.37 15.9475C516.282 16.1223 517.817 15.9882 518.084 15.0383L522.147 14.0941C522.27 14.9101 522.135 15.6502 521.799 16.3088C521.217 17.4569 519.34 18.9081 516.829 19.3336C515.565 19.5477 513.844 19.4277 512.219 19.1234C511.964 19.0755 510.91 18.8033 509.569 18.235C509.501 17.4458 509.905 15.717 510.63 14.8019C511.865 15.422 512.809 15.6737 512.931 15.7036C513.383 15.8149 513.86 15.9021 514.37 15.9475Z" fill="url(#paint4_linear_3358_11718)"/>
<path d="M510.08 13.5828C510.793 12.8404 511.997 12.0602 513.824 12.0602C516.73 12.0602 518.358 14.0884 518.084 15.0384C517.974 15.4289 517.65 15.6816 517.174 15.8315C518.03 15.5848 519.135 14.875 519.622 13.7679C520.445 11.8993 519.179 9.65901 515.983 8.71844C515.182 8.54551 514.321 8.45264 513.405 8.45264C511.221 8.45264 508.903 9.41837 507.209 10.9543L510.08 13.5828Z" fill="url(#paint5_linear_3358_11718)"/>
<defs>
<linearGradient id="paint0_linear_3358_11718" x1="512.756" y1="26.1758" x2="505.598" y2="20.2249" gradientUnits="userSpaceOnUse">
<stop stop-color="#FFC300"/>
<stop offset="1" stop-color="#FF7A00"/>
</linearGradient>
<linearGradient id="paint1_linear_3358_11718" x1="516.287" y1="24.4556" x2="502.974" y2="14.9013" gradientUnits="userSpaceOnUse">
<stop stop-color="#FFBB00"/>
<stop offset="1" stop-color="#FF7A00"/>
</linearGradient>
<linearGradient id="paint2_linear_3358_11718" x1="525.704" y1="20.2849" x2="519.021" y2="25.2254" gradientUnits="userSpaceOnUse">
<stop stop-color="#FF7A00"/>
<stop offset="1" stop-color="#FFBB00"/>
</linearGradient>
<linearGradient id="paint3_linear_3358_11718" x1="529.111" y1="21.8464" x2="510.584" y2="10.1644" gradientUnits="userSpaceOnUse">
<stop stop-color="#F8432E"/>
<stop offset="1" stop-color="#FF7A00"/>
</linearGradient>
<linearGradient id="paint4_linear_3358_11718" x1="522.191" y1="12.1837" x2="510.672" y2="17.3373" gradientUnits="userSpaceOnUse">
<stop stop-color="#FF6E00"/>
<stop offset="1" stop-color="#F8432E"/>
</linearGradient>
<linearGradient id="paint5_linear_3358_11718" x1="527.458" y1="14.8941" x2="514.095" y2="14.9632" gradientUnits="userSpaceOnUse">
<stop stop-color="#8E1607"/>
<stop offset="1" stop-color="#A62415" stop-opacity="0"/>
</linearGradient>
<clipPath id="clip0_3358_11718">
<rect width="420" height="36" fill="white" transform="translate(0.367188)"/>
</clipPath>
</defs>
</svg>
