<svg xmlns="http://www.w3.org/2000/svg" width="181" height="24" viewBox="0 0 181 24" fill="none">
<path fill-rule="evenodd" clip-rule="evenodd" d="M0.735352 0.714925H6.85216V4.86271H0.735352V0.714925ZM0.735352 6.7644H6.85216V22.6667H0.735352V6.7644ZM10.3582 6.7644H16.0542V9.3549C16.9059 8.29673 17.7675 7.54056 18.6392 7.08634C19.5109 6.63213 20.5729 6.40503 21.8254 6.40503C23.5186 6.40503 24.8437 6.90665 25.8005 7.90991C26.7574 8.91317 27.2358 10.463 27.2358 12.5593V22.6667H21.0889V13.922C21.0889 12.9237 20.9036 12.2174 20.5329 11.8031C20.1622 11.3889 19.6411 11.1817 18.9699 11.1817C18.2284 11.1817 17.6273 11.4612 17.1664 12.0203C16.7055 12.5793 16.475 13.5825 16.475 15.03V22.6667H10.3582V6.7644ZM37.2945 6.7644H40.2102V11.2266H37.2945V22.6667H31.1627V11.2266H28.8783V6.7644H31.1627V6.04565C31.1627 5.39678 31.2328 4.68303 31.3731 3.90438C31.5134 3.12573 31.7764 2.48934 32.1621 1.9952C32.5479 1.50106 33.0889 1.10175 33.7853 0.797282C34.4816 0.49281 35.5011 0.340576 36.8437 0.340576C37.9157 0.340576 39.4737 0.465358 41.5177 0.714925L40.8414 4.39852C40.11 4.27873 39.5188 4.21883 39.0679 4.21883C38.5169 4.21883 38.1211 4.31117 37.8807 4.49585C37.6402 4.68053 37.4699 4.97252 37.3697 5.37183C37.3196 5.59145 37.2945 6.05563 37.2945 6.7644ZM40.7856 14.7605C40.7856 12.3347 41.6071 10.3357 43.2503 8.76343C44.8935 7.19115 47.1128 6.40503 49.9082 6.40503C53.1044 6.40503 55.519 7.32841 57.1522 9.17521C58.4647 10.6626 59.121 12.4944 59.121 14.6707C59.121 17.1164 58.3069 19.1204 56.6787 20.6827C55.0506 22.245 52.7988 23.0261 49.9232 23.0261C47.3582 23.0261 45.2843 22.3773 43.7012 21.0795C41.7574 19.4723 40.7856 17.366 40.7856 14.7605ZM46.9174 14.7455C46.9174 16.1631 47.2055 17.2112 47.7816 17.8901C48.3577 18.5689 49.0816 18.9083 49.9533 18.9083C50.835 18.9083 51.5589 18.5739 52.125 17.905C52.691 17.2362 52.9741 16.1631 52.9741 14.6856C52.9741 13.308 52.6885 12.2823 52.1174 11.6085C51.5463 10.9346 50.84 10.5977 49.9983 10.5977C49.1066 10.5977 48.3702 10.9396 47.7891 11.6235C47.208 12.3073 46.9174 13.3479 46.9174 14.7455ZM61.7103 6.7644H67.4213V9.08537C68.2429 8.11705 69.072 7.42825 69.9086 7.01896C70.7452 6.60967 71.7546 6.40503 72.9369 6.40503C74.2094 6.40503 75.2163 6.62964 75.9578 7.07886C76.6992 7.52808 77.3054 8.19691 77.7763 9.08537C78.7381 8.04717 79.6148 7.3409 80.4063 6.96655C81.1979 6.5922 82.1748 6.40503 83.337 6.40503C85.0503 6.40503 86.3879 6.91164 87.3497 7.92489C88.3116 8.93813 88.7925 10.5229 88.7925 12.6791V22.6667H82.6607V13.6075C82.6607 12.8888 82.5204 12.3547 82.2399 12.0053C81.8291 11.4562 81.3181 11.1817 80.7069 11.1817C79.9855 11.1817 79.4044 11.4413 78.9636 11.9604C78.5227 12.4795 78.3023 13.313 78.3023 14.461V22.6667H72.1704V13.907C72.1704 13.2082 72.1304 12.734 72.0502 12.4845C71.92 12.0851 71.6945 11.7632 71.3739 11.5186C71.0533 11.2741 70.6776 11.1518 70.2467 11.1518C69.5454 11.1518 68.9693 11.4163 68.5184 11.9454C68.0675 12.4745 67.8421 13.343 67.8421 14.5509V22.6667H61.7103V6.7644ZM97.6189 11.9154L91.7726 11.3015C91.993 10.2833 92.3111 9.48218 92.7269 8.89819C93.1427 8.31421 93.7414 7.80759 94.5229 7.37834C95.084 7.06887 95.8555 6.82929 96.8374 6.65959C97.8193 6.48988 98.8813 6.40503 100.024 6.40503C101.857 6.40503 103.33 6.50735 104.442 6.712C105.554 6.91664 106.481 7.34339 107.222 7.99227C107.743 8.44149 108.154 9.07788 108.455 9.90145C108.755 10.725 108.906 11.5111 108.906 12.2598V19.2826C108.906 20.0313 108.953 20.6178 109.048 21.0421C109.144 21.4663 109.352 22.0079 109.672 22.6667H103.931C103.701 22.2575 103.55 21.9455 103.48 21.7309C103.41 21.5162 103.34 21.1793 103.27 20.7201C102.468 21.4888 101.672 22.0378 100.88 22.3673C99.7981 22.8065 98.5407 23.0261 97.1079 23.0261C95.2042 23.0261 93.7589 22.5869 92.772 21.7084C91.7851 20.8299 91.2917 19.7468 91.2917 18.4591C91.2917 17.2512 91.6473 16.2579 92.3587 15.4792C93.0701 14.7006 94.3826 14.1216 96.2963 13.7423C98.5908 13.2831 100.079 12.9611 100.76 12.7764C101.441 12.5918 102.163 12.3497 102.924 12.0502C102.924 11.3015 102.769 10.7774 102.458 10.4779C102.148 10.1785 101.602 10.0287 100.82 10.0287C99.8181 10.0287 99.0667 10.1884 98.5657 10.5079C98.1749 10.7575 97.8593 11.2266 97.6189 11.9154ZM102.924 15.1199C102.082 15.4194 101.206 15.6839 100.294 15.9135C99.0516 16.2429 98.2651 16.5674 97.9345 16.8868C97.5938 17.2162 97.4235 17.5906 97.4235 18.0098C97.4235 18.489 97.5913 18.8808 97.927 19.1853C98.2626 19.4898 98.7561 19.642 99.4073 19.642C100.089 19.642 100.722 19.4773 101.308 19.1479C101.895 18.8184 102.31 18.4166 102.556 17.9425C102.801 17.4683 102.924 16.8519 102.924 16.0932V15.1199ZM112.171 6.7644H117.867V9.3549C118.719 8.29673 119.581 7.54056 120.452 7.08634C121.324 6.63213 122.386 6.40503 123.638 6.40503C125.332 6.40503 126.657 6.90665 127.614 7.90991C128.57 8.91317 129.049 10.463 129.049 12.5593V22.6667H122.902V13.922C122.902 12.9237 122.717 12.2174 122.346 11.8031C121.975 11.3889 121.454 11.1817 120.783 11.1817C120.041 11.1817 119.44 11.4612 118.979 12.0203C118.519 12.5793 118.288 13.5825 118.288 15.03V22.6667H112.171V6.7644ZM132.525 0.714925H138.642V4.86271H132.525V0.714925ZM132.525 6.7644H138.642V22.6667H132.525V6.7644ZM147.723 11.9154L141.877 11.3015C142.098 10.2833 142.416 9.48218 142.832 8.89819C143.247 8.31421 143.846 7.80759 144.628 7.37834C145.189 7.06887 145.96 6.82929 146.942 6.65959C147.924 6.48988 148.986 6.40503 150.128 6.40503C151.962 6.40503 153.435 6.50735 154.547 6.712C155.659 6.91664 156.586 7.34339 157.327 7.99227C157.848 8.44149 158.259 9.07788 158.559 9.90145C158.86 10.725 159.01 11.5111 159.01 12.2598V19.2826C159.01 20.0313 159.058 20.6178 159.153 21.0421C159.248 21.4663 159.456 22.0079 159.777 22.6667H154.036C153.805 22.2575 153.655 21.9455 153.585 21.7309C153.515 21.5162 153.445 21.1793 153.374 20.7201C152.573 21.4888 151.776 22.0378 150.985 22.3673C149.903 22.8065 148.645 23.0261 147.213 23.0261C145.309 23.0261 143.864 22.5869 142.877 21.7084C141.89 20.8299 141.396 19.7468 141.396 18.4591C141.396 17.2512 141.752 16.2579 142.463 15.4792C143.175 14.7006 144.487 14.1216 146.401 13.7423C148.695 13.2831 150.183 12.9611 150.865 12.7764C151.546 12.5918 152.267 12.3497 153.029 12.0502C153.029 11.3015 152.873 10.7774 152.563 10.4779C152.252 10.1785 151.706 10.0287 150.925 10.0287C149.923 10.0287 149.171 10.1884 148.67 10.5079C148.28 10.7575 147.964 11.2266 147.723 11.9154ZM153.029 15.1199C152.187 15.4194 151.31 15.6839 150.399 15.9135C149.156 16.2429 148.37 16.5674 148.039 16.8868C147.698 17.2162 147.528 17.5906 147.528 18.0098C147.528 18.489 147.696 18.8808 148.032 19.1853C148.367 19.4898 148.861 19.642 149.512 19.642C150.193 19.642 150.827 19.4773 151.413 19.1479C151.999 18.8184 152.415 18.4166 152.661 17.9425C152.906 17.4683 153.029 16.8519 153.029 16.0932V15.1199ZM162.276 0.714925H168.528V12.0352L173.097 6.7644H180.626L174.9 12.3347L180.957 22.6667H174.059L170.827 16.2878L168.528 18.5339V22.6667H162.276V0.714925Z" fill="#0098FF"/>
</svg>