<svg width="542" height="190" viewBox="0 0 542 190" fill="none" xmlns="http://www.w3.org/2000/svg">
<path fill-rule="evenodd" clip-rule="evenodd" d="M85.9259 181.004C82.982 181.165 73.2158 183.751 71.4575 184.355C69.649 184.969 66.7051 186.066 64.997 186.84C62.877 187.796 61.1086 189.084 59.0087 190L57.1097 189.648C56.7983 189.276 56.3461 189.054 56.4567 188.471C56.8485 186.357 73.8488 181.246 81.2236 180.35C62.023 175.611 46.0776 164.029 35.5379 148.724C24.1641 132.231 19.0801 111.382 22.9986 90.1098C26.9171 68.8377 39.0746 51.168 55.5825 39.7973C58.8178 37.5635 62.2239 35.5711 65.7707 33.8504C65.7003 33.8303 65.64 33.8102 65.5697 33.79C68.7849 21.7251 73.8488 25.2168 86.0665 22.7314C85.735 27.3702 76.0593 35.712 67.328 34.2227C63.4397 36.044 59.712 38.1773 56.1854 40.6124C39.8884 51.8321 27.8817 69.2905 24.0134 90.2909C20.1452 111.291 25.1588 131.889 36.3919 148.17C47.6149 164.472 65.0573 176.486 86.0464 180.36L85.9259 180.994V181.004ZM57.4916 34.5246C66.6046 30.8317 63.3191 27.4607 63.942 18.1328C60.0938 18.9378 54.1056 28.0745 57.4916 34.5246ZM48.4488 42.635C56.4768 37.0805 52.5181 34.4844 51.021 25.2269C47.4642 26.8268 43.6964 37.0503 48.4488 42.635ZM55.6529 44.3456C61.9225 47.9077 71.4374 42.7758 72.4522 39.1835C63.0679 39.2439 59.8628 35.9535 55.6529 44.3456ZM44.3696 54.72C50.9507 57.6884 59.9029 51.6811 60.5661 48.0184C51.242 48.9542 47.7355 45.9656 44.3696 54.72ZM38.5722 51.7013C46.9417 45.9153 42.8122 43.1985 41.2549 33.5485C37.5473 35.2189 33.6188 45.8851 38.5722 51.7013ZM31.6394 61.6732C37.3263 53.3616 32.5035 52.2346 27.53 43.7016C24.6866 46.5493 24.9076 57.9098 31.6394 61.6732ZM34.1011 68.3949C41.9381 70.1257 50.177 61.5726 50.0062 57.4369C40.1396 60.5663 35.6283 58.1211 34.1011 68.3949ZM24.2847 73.7079C30.7352 64.2794 25.2593 63.0014 19.6227 53.3213C16.3874 56.5514 16.6486 69.4414 24.2847 73.7079ZM27.8616 81.5567C35.8393 82.4422 43.0433 73.0438 42.4003 68.9383C32.9657 73.1142 28.2133 71.1521 27.8616 81.5567ZM20.0346 86.4168C11.3938 83.4383 8.62072 70.2666 11.2833 66.3522C18.9294 75.2475 24.7871 75.5494 20.0346 86.4168ZM18.0854 99.7396C21.1198 87.735 15.041 88.3589 5.63662 80.3894C3.5568 84.8672 8.67096 98.0491 18.0854 99.7396ZM24.7067 99.6289C34.6738 99.2264 41.6467 86.2961 40.0592 81.3655C29.3084 88.2784 23.079 86.759 24.7067 99.6289ZM19.2509 115.155C20.2255 102.014 13.976 103.724 2.67262 96.9825C1.31622 102.044 9.09295 115.004 19.2509 115.155ZM22.7876 127.079C18.0352 114.672 13.1119 118.768 0 117.178C0.944461 122.35 13.544 131.054 22.7876 127.079ZM25.621 117.138C35.4876 115.357 40.5214 101.47 38.2105 96.7611C28.5247 105.153 22.1044 104.499 25.621 117.138ZM28.9568 139.376C21.6221 128.196 17.7237 133.217 4.59169 134.334C6.64137 139.205 20.8083 145.142 28.9568 139.376ZM32.4031 135.562C40.6922 130.953 40.7726 116.846 37.1756 113.274C31.1572 123.819 25.1789 125.167 32.4031 135.562ZM35.6283 152.578C28.2936 141.408 24.3952 146.409 11.2632 147.536C13.3028 152.417 27.4798 158.374 35.6283 152.578ZM44.9322 153.674C51.3727 145.987 45.8867 131.779 40.9032 129.535C39.0645 142.364 33.6389 145.926 44.9322 153.674ZM46.781 162.821C36.1608 153.081 33.4982 159.299 20.2456 163.838C23.6819 168.386 39.9386 170.932 46.781 162.821ZM58.5365 171.737C46.4494 164.351 45.1231 170.821 33.3375 177.653C37.5273 181.387 53.5931 180.803 58.5365 171.737ZM62.6359 168.778C66.8357 158.625 56.3662 145.363 50.398 144.538C52.7291 158.635 48.2378 164.109 62.6359 168.778Z" fill="#BEAA6E"/>
<path d="M140.202 179.243L137.489 172.36H127.06L124.408 179.243H123.142L131.642 157.689H133.028L141.528 179.243H140.202ZM132.275 158.987L127.512 171.243H137.067L132.275 158.987Z" fill="white"/>
<path d="M160.729 179.243L155.304 159.319L149.878 179.243H148.552L142.614 157.689H143.91L149.215 177.673L154.731 157.78H156.027L161.453 177.703L166.788 157.689H168.024L162.116 179.243H160.729Z" fill="white"/>
<path d="M186.169 179.243L183.456 172.36H173.027L170.375 179.243H169.109L177.609 157.689H178.995L187.495 179.243H186.169ZM178.242 158.987L173.479 171.243H183.034L178.242 158.987Z" fill="white"/>
<path d="M205.581 179.243L201.09 169.402C200.628 169.482 200.035 169.523 199.312 169.523H193.313V179.243H192.138V157.689H199.221C203.903 157.689 206.244 159.621 206.244 163.485C206.244 164.954 205.903 166.172 205.24 167.128C204.566 168.084 203.572 168.758 202.266 169.14L206.938 179.253H205.581V179.243ZM199.251 168.436C201.241 168.436 202.698 168.044 203.622 167.249C204.546 166.454 205.008 165.206 205.008 163.515C205.008 161.825 204.546 160.668 203.602 159.913C202.657 159.158 201.15 158.786 199.06 158.786H193.303V168.446H199.241L199.251 168.436Z" fill="white"/>
<path d="M212.243 179.243V157.689H219.326C222.421 157.689 224.792 158.605 226.42 160.416C228.057 162.237 228.881 164.884 228.881 168.345C228.881 171.807 228.007 174.594 226.269 176.456C224.531 178.317 222.019 179.243 218.723 179.243H212.243ZM218.814 178.156C224.681 178.156 227.615 174.916 227.615 168.436C227.615 165.276 226.912 162.881 225.505 161.241C224.099 159.601 222.039 158.786 219.326 158.786H213.448V178.166H218.814V178.156Z" fill="white"/>
<path d="M242.867 179.243V178.156L247.72 173.749C249.649 171.978 251.086 170.559 252.02 169.472C252.955 168.396 253.598 167.43 253.969 166.574C254.331 165.719 254.512 164.803 254.512 163.807C254.512 162.237 254.08 161.03 253.206 160.175C252.332 159.319 251.096 158.887 249.508 158.887C248.041 158.887 246.856 159.249 245.972 159.963C245.077 160.678 244.404 161.815 243.942 163.384L242.887 163.143C243.309 161.412 244.093 160.094 245.248 159.178C246.404 158.263 247.84 157.81 249.569 157.81C251.458 157.81 252.965 158.343 254.08 159.41C255.195 160.476 255.758 161.925 255.758 163.757C255.758 164.904 255.527 165.981 255.065 166.987C254.602 167.993 253.849 169.08 252.804 170.247C251.759 171.414 250.312 172.833 248.463 174.503L244.424 178.126H255.909L255.637 179.243H242.887H242.867Z" fill="#C35632"/>
<path d="M265.655 179.786C263.264 179.786 261.435 178.85 260.179 176.979C258.923 175.107 258.29 172.38 258.29 168.798C258.29 165.216 258.923 162.539 260.209 160.647C261.485 158.756 263.314 157.81 265.705 157.81C268.096 157.81 269.925 158.746 271.181 160.617C272.437 162.489 273.07 165.216 273.07 168.798C273.07 172.38 272.437 175.057 271.161 176.949C269.885 178.84 268.046 179.786 265.655 179.786ZM265.685 178.7C269.764 178.7 271.804 175.399 271.804 168.798C271.804 162.197 269.764 158.897 265.685 158.897C261.606 158.897 259.566 162.197 259.566 168.798C259.566 175.399 261.606 178.7 265.685 178.7Z" fill="#C35632"/>
<path d="M274.939 179.243V178.156L279.792 173.749C281.721 171.978 283.158 170.559 284.092 169.472C285.026 168.396 285.679 167.43 286.031 166.574C286.393 165.719 286.574 164.803 286.574 163.807C286.574 162.237 286.142 161.03 285.268 160.175C284.393 159.319 283.158 158.887 281.58 158.887C280.113 158.887 278.928 159.249 278.033 159.963C277.139 160.678 276.456 161.815 276.004 163.384L274.949 163.143C275.371 161.412 276.154 160.094 277.31 159.178C278.465 158.263 279.902 157.81 281.63 157.81C283.519 157.81 285.026 158.343 286.142 159.41C287.257 160.476 287.82 161.925 287.82 163.757C287.82 164.904 287.588 165.981 287.126 166.987C286.664 167.993 285.911 169.08 284.866 170.247C283.821 171.414 282.374 172.833 280.525 174.503L276.486 178.126H287.97L287.699 179.243H274.949H274.939Z" fill="#C35632"/>
<path d="M300.258 179.243V173.538H289.769V172.511L300.168 158.384H301.404V172.511H304.478L304.207 173.538H301.404V179.243H300.258ZM300.258 159.923L291.005 172.511H300.258V159.923Z" fill="#C35632"/>
<path d="M151.214 91.7999C151.063 93.4904 150.671 95.0602 150.039 96.4991C149.395 97.9381 148.521 99.1858 147.416 100.242C146.301 101.299 144.934 102.124 143.317 102.718C141.699 103.311 139.82 103.613 137.69 103.613C135.289 103.613 133.169 103.211 131.35 102.406C129.522 101.601 127.994 100.474 126.769 99.0147C125.533 97.5557 124.608 95.7948 123.985 93.7319C123.362 91.6691 123.051 89.3849 123.051 86.8894C123.051 84.394 123.393 81.989 124.076 79.9363C124.759 77.8835 125.734 76.1327 127.01 74.6736C128.286 73.2145 129.833 72.1077 131.642 71.3328C133.45 70.558 135.5 70.1757 137.781 70.1757C139.8 70.1757 141.558 70.4272 143.056 70.9303C144.553 71.4335 145.819 72.168 146.843 73.1139C147.868 74.0698 148.692 75.2069 149.315 76.5452C149.938 77.8835 150.4 79.3828 150.692 81.0431L144.1 81.8884C143.769 80.0168 143.146 78.5476 142.212 77.471C141.277 76.4043 139.8 75.871 137.781 75.871C135.229 75.871 133.289 76.827 131.973 78.7489C130.657 80.6608 129.994 83.3776 129.994 86.8794C129.994 90.3811 130.697 93.1383 132.104 95.0401C133.51 96.9419 135.409 97.8978 137.781 97.8978C139.83 97.8978 141.337 97.3746 142.302 96.318C143.267 95.2614 143.869 93.7521 144.1 91.7899H151.224L151.214 91.7999Z" fill="#E95D0F"/>
<path d="M155.805 70.9806H162.437V97.1028H177.478L176.764 102.808H155.805V70.9806Z" fill="#E95D0F"/>
<path d="M194.167 103.613C191.796 103.613 189.676 103.231 187.807 102.456C185.938 101.681 184.351 100.564 183.045 99.1153C181.739 97.6563 180.734 95.9054 180.041 93.8526C179.347 91.7999 178.996 89.4855 178.996 86.8995C178.996 84.3134 179.347 81.999 180.041 79.9463C180.734 77.8935 181.749 76.1427 183.065 74.6836C184.381 73.2245 185.979 72.1177 187.847 71.3429C189.716 70.568 191.826 70.1857 194.167 70.1857C196.508 70.1857 198.658 70.568 200.527 71.3429C202.396 72.1177 203.974 73.2346 205.27 74.6836C206.556 76.1427 207.55 77.8935 208.234 79.9463C208.917 81.999 209.259 84.3134 209.259 86.8995C209.259 89.4855 208.927 91.7999 208.254 93.8526C207.581 95.9054 206.606 97.6563 205.32 99.1153C204.034 100.574 202.446 101.681 200.578 102.456C198.709 103.231 196.569 103.613 194.167 103.613ZM194.127 97.9078C196.92 97.9078 198.99 96.9619 200.357 95.0501C201.723 93.1483 202.406 90.4314 202.406 86.8894C202.406 83.3474 201.723 80.6708 200.357 78.7589C198.99 76.847 196.91 75.881 194.127 75.881C191.344 75.881 189.264 76.837 187.898 78.7589C186.531 80.6708 185.848 83.3877 185.848 86.8894C185.848 90.3911 186.531 93.1483 187.898 95.0501C189.264 96.9519 191.344 97.9078 194.127 97.9078Z" fill="#E95D0F"/>
<path d="M214.111 70.9806H220.742V89.9283C220.742 92.6351 221.215 94.6375 222.169 95.9456C223.114 97.2537 224.701 97.9078 226.932 97.9078C229.162 97.9078 230.74 97.2537 231.674 95.9456C232.608 94.6375 233.081 92.6351 233.081 89.9283V70.9806H239.712V89.9283C239.712 92.3332 239.411 94.4061 238.818 96.1267C238.225 97.8474 237.381 99.2662 236.286 100.383C235.191 101.5 233.844 102.315 232.257 102.838C230.669 103.362 228.881 103.623 226.891 103.623C224.902 103.623 223.073 103.352 221.486 102.818C219.898 102.285 218.552 101.46 217.457 100.343C216.362 99.226 215.528 97.7971 214.965 96.0462C214.402 94.2954 214.121 92.2124 214.121 89.8075V71.0007L214.111 70.9806Z" fill="#E95D0F"/>
<path d="M245.58 70.9806H257.466C262.329 70.9806 266.127 72.2988 268.84 74.9452C271.553 77.5916 272.909 81.516 272.909 86.7083C272.909 89.3547 272.527 91.6691 271.774 93.6614C271.02 95.6538 269.925 97.3342 268.498 98.7027C267.071 100.071 265.333 101.098 263.294 101.782C261.244 102.466 258.933 102.808 256.351 102.808H245.58V70.9806ZM256.481 97.1431C258.199 97.1431 259.666 96.9016 260.892 96.4085C262.108 95.9154 263.093 95.2111 263.856 94.2954C264.61 93.3696 265.172 92.2829 265.524 91.015C265.886 89.7572 266.057 88.3283 266.057 86.7586C266.057 85.1888 265.906 83.8103 265.594 82.5424C265.283 81.2846 264.791 80.218 264.107 79.3526C263.424 78.4872 262.54 77.8231 261.455 77.3501C260.37 76.8772 259.043 76.6357 257.476 76.6357H252.221V97.1431H256.491H256.481Z" fill="#E95D0F"/>
<path d="M305.533 91.7999C305.382 93.4904 304.99 95.0602 304.357 96.4991C303.714 97.9381 302.84 99.1858 301.735 100.242C300.62 101.299 299.253 102.124 297.636 102.718C296.018 103.311 294.139 103.613 292.009 103.613C289.608 103.613 287.488 103.211 285.669 102.406C283.84 101.601 282.313 100.474 281.087 99.0147C279.852 97.5557 278.927 95.7948 278.304 93.7319C277.681 91.6691 277.37 89.3849 277.37 86.8894C277.37 84.394 277.711 81.989 278.395 79.9363C279.078 77.8835 280.053 76.1327 281.329 74.6736C282.605 73.2145 284.152 72.1077 285.96 71.3328C287.769 70.558 289.819 70.1757 292.099 70.1757C294.119 70.1757 295.877 70.4272 297.374 70.9303C298.871 71.4335 300.137 72.168 301.162 73.1139C302.187 74.0698 303.011 75.2069 303.634 76.5452C304.257 77.8835 304.719 79.3828 305.01 81.0431L298.419 81.8884C298.088 80.0168 297.465 78.5476 296.53 77.471C295.596 76.4043 294.119 75.871 292.099 75.871C289.547 75.871 287.608 76.827 286.292 78.7489C284.976 80.6608 284.313 83.3776 284.313 86.8794C284.313 90.3811 285.016 93.1383 286.423 95.0401C287.829 96.9419 289.728 97.8978 292.099 97.8978C294.149 97.8978 295.656 97.3746 296.621 96.318C297.585 95.2614 298.188 93.7521 298.419 91.7899H305.543L305.533 91.7999Z" fill="#E95D0F"/>
<path d="M324.262 103.613C321.89 103.613 319.77 103.231 317.901 102.456C316.033 101.681 314.445 100.564 313.139 99.1153C311.833 97.6563 310.828 95.9054 310.135 93.8526C309.442 91.7999 309.09 89.4855 309.09 86.8995C309.09 84.3134 309.442 81.999 310.135 79.9463C310.828 77.8935 311.843 76.1427 313.159 74.6836C314.475 73.2245 316.073 72.1177 317.942 71.3429C319.81 70.568 321.92 70.1857 324.262 70.1857C326.603 70.1857 328.753 70.568 330.622 71.3429C332.49 72.1177 334.068 73.2346 335.364 74.6836C336.65 76.1427 337.645 77.8935 338.328 79.9463C339.011 81.999 339.353 84.3134 339.353 86.8995C339.353 89.4855 339.021 91.7999 338.348 93.8526C337.675 95.9054 336.7 97.6563 335.414 99.1153C334.128 100.574 332.541 101.681 330.672 102.456C328.803 103.231 326.663 103.613 324.262 103.613ZM324.221 97.9078C327.015 97.9078 329.084 96.9619 330.451 95.0501C331.817 93.1483 332.5 90.4314 332.5 86.8894C332.5 83.3474 331.817 80.6708 330.451 78.7589C329.084 76.847 327.004 75.881 324.221 75.881C321.438 75.881 319.358 76.837 317.992 78.7589C316.625 80.6808 315.942 83.3877 315.942 86.8894C315.942 90.3911 316.625 93.1483 317.992 95.0501C319.358 96.9519 321.438 97.9078 324.221 97.9078Z" fill="#E95D0F"/>
<path d="M344.829 70.9806H352.796L360.714 94.7381L368.862 70.9806H376.609V102.808H370.51V81.5865L363.256 102.808H358.091L350.797 81.6368V102.808H344.829V70.9806Z" fill="#E95D0F"/>
<path d="M383.109 70.9806H394.463C396.894 70.9806 398.904 71.2523 400.491 71.8057C402.079 72.3592 403.335 73.0836 404.279 73.9893C405.214 74.8949 405.867 75.9515 406.239 77.159C406.61 78.3665 406.791 79.6142 406.791 80.9223C406.791 82.321 406.61 83.6593 406.239 84.9373C405.867 86.2152 405.214 87.3422 404.279 88.2981C403.345 89.2641 402.099 90.0289 400.542 90.5924C398.984 91.1559 397.015 91.4376 394.644 91.4376H389.66V102.808H383.119V70.9806H383.109ZM394.413 85.9133C395.568 85.9133 396.523 85.7926 397.286 85.5611C398.05 85.3297 398.643 84.9976 399.085 84.5851C399.527 84.1725 399.838 83.6593 399.999 83.0455C400.16 82.4418 400.24 81.7776 400.24 81.0632C400.24 80.3488 400.15 79.6645 399.969 79.101C399.788 78.5375 399.477 78.0646 399.035 77.6721C398.593 77.2898 397.99 76.9879 397.236 76.7766C396.483 76.5653 395.518 76.4646 394.363 76.4646H389.64V85.9133H394.403H394.413Z" fill="#E95D0F"/>
<path d="M410.971 70.9806H417.602V89.9283C417.602 92.6351 418.075 94.6375 419.029 95.9456C419.974 97.2537 421.561 97.9078 423.792 97.9078C426.022 97.9078 427.6 97.2537 428.534 95.9456C429.469 94.6375 429.941 92.6351 429.941 89.9283V70.9806H436.572V89.9283C436.572 92.3332 436.271 94.4061 435.678 96.1267C435.085 97.8474 434.241 99.2662 433.136 100.383C432.031 101.5 430.694 102.315 429.107 102.838C427.519 103.362 425.731 103.623 423.742 103.623C421.752 103.623 419.923 103.352 418.336 102.818C416.748 102.285 415.402 101.46 414.307 100.343C413.212 99.226 412.378 97.7971 411.815 96.0462C411.253 94.2954 410.971 92.2124 410.971 89.8075V71.0007V70.9806Z" fill="#E95D0F"/>
<path d="M449.644 76.7363H440.079V70.9906H465.891V76.7363H456.325V102.808H449.654V76.7363H449.644Z" fill="#E95D0F"/>
<path d="M470.03 70.9806H476.661V102.808H470.03V70.9806Z" fill="#E95D0F"/>
<path d="M483.162 70.9806H489.13L502.212 91.8401V70.9806H508.663V102.808H502.745L489.613 82.1298V102.808H483.162V70.9806Z" fill="#E95D0F"/>
<path d="M529.802 85.3801H542V98.8437C540.372 100.363 538.423 101.53 536.172 102.366C533.912 103.201 531.591 103.613 529.179 103.613C526.658 103.613 524.457 103.211 522.568 102.406C520.679 101.601 519.122 100.474 517.876 99.0147C516.63 97.5557 515.696 95.7948 515.073 93.7319C514.45 91.6691 514.138 89.3849 514.138 86.8894C514.138 84.394 514.48 81.989 515.163 79.9363C515.847 77.8835 516.821 76.1327 518.077 74.6736C519.333 73.2145 520.87 72.1077 522.679 71.3328C524.487 70.558 526.507 70.1757 528.727 70.1757C530.777 70.1757 532.535 70.4272 534.002 70.9303C535.469 71.4335 536.715 72.1378 537.74 73.0233C538.765 73.9189 539.579 74.9553 540.191 76.1427C540.794 77.3301 541.236 78.608 541.508 79.9765L534.917 80.8218C534.736 80.0168 534.525 79.3124 534.274 78.7087C534.022 78.1049 533.661 77.5816 533.188 77.149C532.716 76.7163 532.123 76.3943 531.41 76.1729C530.697 75.9515 529.812 75.8408 528.737 75.8408C526.155 75.8408 524.226 76.8068 522.95 78.7388C521.674 80.6708 521.031 83.3877 521.031 86.8995C521.031 90.4113 521.674 93.1584 522.97 95.0803C524.266 96.9922 526.356 97.9582 529.27 97.9582C530.666 97.9582 531.872 97.8173 532.897 97.5356C533.922 97.2538 534.907 96.8111 535.861 96.2174V90.9144H529.812V85.3901L529.802 85.3801Z" fill="#E95D0F"/>
<path d="M124.066 110.406H130.697V142.233H124.066V110.406Z" fill="white"/>
<path d="M137.198 110.406H143.166L156.248 131.265V110.406H162.698V142.233H156.78L143.648 121.555V142.233H137.198V110.406Z" fill="white"/>
<path d="M173.922 131.849C174.072 133.811 174.705 135.24 175.811 136.125C176.926 137.021 178.564 137.463 180.734 137.463C181.769 137.463 182.643 137.353 183.356 137.131C184.07 136.91 184.642 136.608 185.094 136.236C185.537 135.863 185.858 135.431 186.049 134.918C186.24 134.414 186.34 133.861 186.34 133.267C186.34 132.432 186.029 131.657 185.406 130.923C184.783 130.198 183.638 129.665 181.98 129.343L177.84 128.588C176.212 128.297 174.766 127.904 173.52 127.431C172.274 126.958 171.229 126.344 170.385 125.58C169.541 124.825 168.898 123.889 168.446 122.792C168.004 121.695 167.783 120.387 167.783 118.868C167.783 117.349 168.084 116.01 168.697 114.853C169.3 113.696 170.154 112.73 171.239 111.955C172.324 111.18 173.62 110.597 175.137 110.194C176.655 109.792 178.312 109.59 180.121 109.59C182.432 109.59 184.361 109.862 185.908 110.395C187.456 110.929 188.701 111.633 189.646 112.508C190.59 113.384 191.304 114.4 191.756 115.557C192.218 116.715 192.52 117.922 192.67 119.17L186.391 119.975C186.059 118.224 185.436 116.956 184.502 116.181C183.567 115.406 182.151 115.024 180.252 115.024C179.126 115.024 178.192 115.125 177.468 115.316C176.745 115.507 176.152 115.759 175.71 116.071C175.268 116.383 174.957 116.745 174.776 117.167C174.595 117.58 174.504 118.013 174.504 118.455C174.504 119.643 174.836 120.538 175.509 121.132C176.172 121.726 177.308 122.189 178.915 122.511L183.276 123.356C186.722 124.04 189.244 125.147 190.842 126.676C192.439 128.206 193.243 130.41 193.243 133.298C193.243 134.696 192.982 135.984 192.459 137.151C191.937 138.329 191.173 139.355 190.148 140.231C189.123 141.106 187.837 141.79 186.3 142.283C184.753 142.776 182.944 143.018 180.875 143.018C176.544 143.018 173.228 142.092 170.928 140.231C168.627 138.369 167.391 135.572 167.21 131.828H173.932L173.922 131.849Z" fill="white"/>
<path d="M197.905 110.406H204.536V142.233H197.905V110.406Z" fill="white"/>
<path d="M211.037 110.406H222.923C227.786 110.406 231.584 111.724 234.296 114.37C237.009 117.017 238.366 120.941 238.366 126.133C238.366 128.78 237.984 131.094 237.23 133.086C236.477 135.079 235.382 136.759 233.955 138.128C232.528 139.496 230.79 140.523 228.75 141.207C226.701 141.891 224.39 142.233 221.807 142.233H211.037V110.406ZM221.938 136.568C223.656 136.568 225.123 136.326 226.349 135.833C227.565 135.34 228.549 134.636 229.313 133.72C230.067 132.795 230.629 131.708 230.981 130.44C231.332 129.182 231.513 127.753 231.513 126.184C231.513 124.614 231.353 123.235 231.041 121.967C230.73 120.71 230.237 119.643 229.554 118.778C228.871 117.912 227.987 117.248 226.902 116.775C225.816 116.302 224.49 116.061 222.923 116.061H217.668V136.568H221.938Z" fill="white"/>
<path d="M243.842 110.406H265.514V116.071H250.473V123.024H264.63V128.729H250.473V136.578H266.449L265.775 142.243H243.832V110.416L243.842 110.406Z" fill="white"/>
<path d="M271.171 110.406H282.434C284.926 110.406 286.985 110.697 288.593 111.271C290.211 111.855 291.477 112.609 292.401 113.545C293.325 114.481 293.958 115.517 294.31 116.664C294.662 117.812 294.843 118.928 294.843 120.025C294.843 122.078 294.471 123.799 293.727 125.197C292.984 126.596 291.738 127.763 289.99 128.719L296.44 142.223H289.276L283.931 130.279H277.702V142.223H271.161V110.396L271.171 110.406ZM282.876 124.755C283.911 124.755 284.775 124.644 285.458 124.423C286.141 124.201 286.684 123.889 287.086 123.487C287.488 123.084 287.759 122.601 287.91 122.038C288.06 121.474 288.131 120.85 288.131 120.166C288.131 119.603 288.04 119.059 287.86 118.536C287.679 118.013 287.377 117.56 286.945 117.157C286.513 116.755 285.92 116.443 285.167 116.222C284.413 116 283.449 115.89 282.293 115.89H277.712V124.765H282.876V124.755Z" fill="white"/>
<path fill-rule="evenodd" clip-rule="evenodd" d="M88.5034 105.818C89.0314 100.211 93.5517 95.9042 98.997 95.4906L98.9741 102.28C97.1738 102.63 95.7125 104.019 95.3036 105.85L88.5034 105.818ZM88.5151 108.088C89.0752 113.404 93.3391 117.771 98.8583 118.264L98.9201 118.269L98.9431 111.469C97.1823 111.115 95.8135 109.793 95.3551 108.12L88.5151 108.088ZM104.377 108.163C103.936 109.713 102.725 110.915 101.213 111.367L101.19 118.229C106.335 117.62 110.59 113.524 111.207 108.195L104.377 108.163ZM111.244 105.926C110.798 100.626 106.656 96.2145 101.267 95.5452L101.244 102.399C102.876 102.895 104.102 104.246 104.454 105.893L111.244 105.926Z" fill="white"/>
<path fill-rule="evenodd" clip-rule="evenodd" d="M72.5882 104.464C73.8217 90.5057 85.3681 79.8851 99.0509 79.4781L99.0201 88.6125C90.043 89.0453 82.4933 96.0648 81.6782 105.324C81.6646 105.478 81.653 105.632 81.6434 105.786L72.5048 105.742C72.5227 105.318 72.5504 104.891 72.5882 104.464ZM72.5029 108.012C73.0517 121.564 83.5938 132.96 97.4582 134.194C97.9292 134.235 98.3986 134.265 98.866 134.282L98.8968 125.157C98.7011 125.145 98.5049 125.131 98.3082 125.114C89.1839 124.305 82.1944 116.903 81.6428 108.056L72.5029 108.012ZM101.136 134.272L101.167 125.145C107.949 124.686 113.813 120.447 116.528 114.394V128.614C112.18 131.947 106.846 134.007 101.136 134.272ZM101.321 79.5045L101.29 88.6439C101.369 88.6499 101.449 88.6565 101.528 88.6635C108.338 89.2635 113.908 93.5435 116.528 99.3835V85.1535C112.528 82.0735 107.658 80.0535 102.298 79.5735C101.972 79.5447 101.646 79.5217 101.321 79.5045Z" fill="white"/>
<path fill-rule="evenodd" clip-rule="evenodd" d="M101.344 72.6709L101.373 64.0216C102.132 64.0488 102.894 64.096 103.658 64.1638C108.208 64.5638 112.528 65.6738 116.528 67.3538V76.9638C112.448 74.6938 107.848 73.2138 102.898 72.7738C102.378 72.7277 101.86 72.6935 101.344 72.6709ZM65.7683 103.864C67.3243 86.3102 81.8583 73.0277 99.0741 72.6463L99.1032 64C77.4428 64.3641 59.1033 81.0452 57.1583 103.104C57.0822 103.963 57.032 104.818 57.007 105.669L65.6539 105.71C65.6755 105.097 65.7136 104.482 65.7683 103.864ZM65.6486 107.98L57 107.939C57.5005 129.485 74.1251 147.668 96.0983 149.614C97.0081 149.694 97.9136 149.746 98.8139 149.769L98.8431 141.12C98.1847 141.101 97.5229 141.062 96.8583 141.004V140.994C79.4041 139.447 66.1727 125.068 65.6486 107.98ZM101.113 141.115L101.084 149.767C106.521 149.619 111.737 148.441 116.528 146.414V136.814C111.907 139.392 106.655 140.919 101.113 141.115Z" fill="white"/>
<path d="M113.757 12.3769H123.664V23.3148C122.337 24.5424 120.76 25.4983 118.921 26.1725C117.093 26.8467 115.194 27.1888 113.244 27.1888C111.195 27.1888 109.406 26.8668 107.869 26.2128C106.342 25.5587 105.066 24.643 104.051 23.4557C103.036 22.2683 102.283 20.8394 101.77 19.159C101.268 17.4785 101.007 15.627 101.007 13.5944C101.007 11.5618 101.288 9.60967 101.841 7.9393C102.393 6.26893 103.187 4.85012 104.212 3.66274C105.237 2.47537 106.482 1.56975 107.959 0.945872C109.426 0.321998 111.074 0 112.883 0C114.551 0 115.977 0.201247 117.173 0.613808C118.369 1.02637 119.383 1.58987 120.207 2.31437C121.041 3.03887 121.704 3.88412 122.197 4.85012C122.689 5.81612 123.051 6.85255 123.262 7.96949L117.906 8.65374C117.766 7.99967 117.585 7.42611 117.384 6.93305C117.183 6.43999 116.882 6.01736 116.5 5.66518C116.118 5.31299 115.636 5.05137 115.053 4.87024C114.47 4.68912 113.747 4.59856 112.883 4.59856C110.783 4.59856 109.215 5.38343 108.18 6.95318C107.146 8.52293 106.623 10.7367 106.623 13.5844C106.623 16.432 107.146 18.676 108.201 20.2357C109.246 21.7953 110.954 22.5702 113.315 22.5702C114.45 22.5702 115.435 22.4595 116.259 22.228C117.093 21.9966 117.896 21.6444 118.66 21.1614V16.8547H113.737V12.3668L113.757 12.3769Z" fill="#BEAA6E"/>
<path d="M141.428 27.1988C139.499 27.1988 137.771 26.8869 136.254 26.253C134.737 25.6291 133.441 24.7235 132.386 23.5361C131.321 22.3487 130.507 20.9299 129.944 19.2595C129.381 17.5892 129.09 15.7075 129.09 13.6044C129.09 11.5014 129.371 9.61968 129.944 7.94931C130.507 6.27894 131.331 4.86013 132.406 3.67275C133.481 2.48538 134.777 1.57976 136.294 0.955882C137.811 0.332008 139.529 0.0100098 141.428 0.0100098C143.327 0.0100098 145.086 0.321945 146.603 0.955882C148.12 1.57976 149.406 2.48538 150.451 3.67275C151.496 4.86013 152.3 6.27894 152.852 7.94931C153.405 9.61968 153.686 11.5014 153.686 13.6044C153.686 15.7075 153.415 17.5892 152.872 19.2595C152.33 20.9299 151.536 22.3487 150.481 23.5361C149.436 24.7235 148.15 25.6291 146.633 26.253C145.116 26.8768 143.378 27.1988 141.428 27.1988ZM141.398 22.56C143.669 22.56 145.357 21.7852 146.462 20.2457C147.567 18.696 148.13 16.4924 148.13 13.6145C148.13 10.7366 147.577 8.56312 146.462 7.00344C145.357 5.44375 143.669 4.66894 141.398 4.66894C139.127 4.66894 137.44 5.44375 136.334 7.00344C135.229 8.56312 134.666 10.7668 134.666 13.6145C134.666 16.4622 135.219 18.696 136.334 20.2457C137.44 21.7953 139.127 22.56 141.398 22.56Z" fill="#BEAA6E"/>
<path d="M159.956 0.67395H165.341V21.9058H177.569L176.986 26.5446H159.946V0.684015L159.956 0.67395Z" fill="#BEAA6E"/>
<path d="M182.884 0.67395H192.54C196.498 0.67395 199.573 1.75064 201.783 3.89395C203.994 6.04732 205.089 9.22706 205.089 13.4533C205.089 15.6067 204.777 17.4884 204.165 19.1084C203.552 20.7285 202.668 22.0869 201.502 23.2039C200.347 24.3107 198.93 25.1459 197.272 25.6994C195.604 26.2528 193.725 26.5345 191.625 26.5345H182.874V0.67395H182.884ZM191.746 21.946C193.143 21.946 194.338 21.7448 195.323 21.3524C196.307 20.9499 197.111 20.3763 197.724 19.6317C198.337 18.8871 198.789 17.9915 199.081 16.9651C199.372 15.9387 199.513 14.7816 199.513 13.5036C199.513 12.2257 199.382 11.1087 199.131 10.0824C198.88 9.056 198.478 8.19063 197.915 7.49631C197.362 6.79194 196.639 6.24857 195.765 5.86619C194.881 5.48382 193.806 5.28257 192.53 5.28257H188.259V21.946H191.736H191.746Z" fill="#BEAA6E"/>
<path d="M113.024 42.8359C112.923 43.5805 112.733 44.2748 112.441 44.9088C112.15 45.5427 111.758 46.0961 111.266 46.559C110.773 47.0219 110.17 47.3942 109.467 47.6558C108.764 47.9275 107.95 48.0583 107.016 48.0583C106.031 48.0583 105.137 47.8873 104.323 47.5552C103.509 47.2231 102.816 46.71 102.233 46.0458C101.65 45.3716 101.198 44.5566 100.877 43.5705C100.555 42.5944 100.394 41.4573 100.394 40.1794C100.394 38.9015 100.575 37.7342 100.927 36.7481C101.278 35.7519 101.751 34.9268 102.354 34.2526C102.946 33.5885 103.65 33.0753 104.443 32.7332C105.237 32.391 106.081 32.22 106.985 32.22C107.89 32.22 108.683 32.3407 109.347 32.5822C110.01 32.8237 110.562 33.1558 111.025 33.5885C111.477 34.0212 111.848 34.5243 112.13 35.118C112.411 35.7117 112.632 36.3557 112.803 37.0399L111.577 37.3116C111.426 36.6877 111.225 36.1343 110.994 35.6412C110.763 35.1482 110.472 34.7356 110.11 34.3935C109.748 34.0513 109.316 33.7998 108.814 33.6086C108.312 33.4275 107.699 33.3369 106.975 33.3369C106.141 33.3369 105.408 33.508 104.755 33.84C104.102 34.1721 103.559 34.6551 103.107 35.2588C102.655 35.8626 102.313 36.5871 102.072 37.4122C101.831 38.2474 101.711 39.153 101.711 40.1391C101.711 41.1253 101.831 42.051 102.062 42.8761C102.293 43.7013 102.635 44.4157 103.077 45.0195C103.519 45.6232 104.072 46.0961 104.735 46.4282C105.398 46.7603 106.151 46.9213 107.016 46.9213C107.88 46.9213 108.513 46.8206 109.075 46.6194C109.628 46.4181 110.09 46.1263 110.452 45.7641C110.813 45.4018 111.095 44.9691 111.296 44.466C111.497 43.9629 111.647 43.4296 111.748 42.846H113.014L113.024 42.8359Z" fill="white"/>
<path d="M115.907 32.5825H117.193V46.4688H125.382L125.111 47.6762H115.907V32.5926V32.5825Z" fill="white"/>
<path d="M132.627 48.0583C131.652 48.0583 130.748 47.8973 129.914 47.5653C129.08 47.2332 128.356 46.7401 127.754 46.076C127.151 45.4119 126.679 44.5868 126.327 43.6006C125.985 42.6145 125.814 41.4775 125.814 40.1794C125.814 38.8813 125.985 37.7342 126.327 36.7481C126.668 35.7519 127.151 34.9268 127.764 34.2526C128.377 33.5885 129.1 33.0753 129.924 32.7332C130.758 32.391 131.652 32.22 132.627 32.22C133.601 32.22 134.495 32.381 135.329 32.713C136.163 33.0451 136.877 33.5382 137.469 34.2023C138.072 34.8664 138.535 35.6815 138.886 36.6676C139.228 37.6436 139.399 38.7807 139.399 40.0788C139.399 41.3768 139.228 42.5441 138.896 43.5302C138.555 44.5264 138.092 45.3515 137.49 46.0257C136.887 46.6999 136.173 47.203 135.349 47.5451C134.516 47.8873 133.611 48.0583 132.627 48.0583ZM132.627 46.9112C133.511 46.9112 134.295 46.7502 134.968 46.4181C135.641 46.0861 136.214 45.6232 136.666 45.0195C137.118 44.4258 137.47 43.7013 137.701 42.8761C137.932 42.041 138.052 41.1253 138.052 40.1291C138.052 39.1329 137.932 38.2172 137.691 37.382C137.449 36.5468 137.108 35.8324 136.646 35.2387C136.183 34.635 135.621 34.1721 134.948 33.84C134.274 33.508 133.501 33.347 132.627 33.347C131.712 33.347 130.919 33.508 130.235 33.84C129.552 34.1721 128.989 34.635 128.537 35.2387C128.085 35.8425 127.744 36.5569 127.512 37.382C127.281 38.2172 127.161 39.1329 127.161 40.1291C127.161 41.1253 127.271 42.041 127.502 42.8761C127.723 43.7113 128.065 44.4258 128.527 45.0195C128.979 45.6232 129.552 46.0861 130.235 46.4181C130.919 46.7502 131.712 46.9112 132.627 46.9112Z" fill="white"/>
<path d="M142.202 32.5823H143.488V41.7794C143.488 43.4799 143.819 44.7679 144.482 45.6232C145.146 46.4785 146.231 46.9112 147.758 46.9112C148.532 46.9112 149.185 46.8006 149.707 46.5792C150.23 46.3578 150.662 46.0358 150.993 45.6031C151.325 45.1704 151.566 44.6371 151.707 43.9931C151.857 43.3491 151.928 42.6045 151.928 41.7592V32.5621H153.214V41.7291C153.214 42.846 153.093 43.7919 152.842 44.5969C152.591 45.3918 152.239 46.0459 151.767 46.549C151.295 47.0521 150.722 47.4345 150.039 47.6659C149.355 47.9074 148.582 48.0282 147.728 48.0282C146.874 48.0282 146.06 47.9074 145.377 47.6659C144.693 47.4244 144.121 47.0521 143.648 46.5389C143.176 46.0257 142.815 45.3616 142.573 44.5566C142.322 43.7516 142.202 42.7756 142.202 41.6486V32.5621V32.5823Z" fill="white"/>
<path d="M156.569 32.5825H161.653C162.708 32.5825 163.653 32.7335 164.497 33.0353C165.341 33.3372 166.054 33.8001 166.637 34.4038C167.219 35.0176 167.672 35.7925 167.983 36.7182C168.305 37.6439 168.455 38.7508 168.455 40.0187C168.455 41.2866 168.284 42.4236 167.953 43.3796C167.611 44.3355 167.129 45.1304 166.496 45.7644C165.863 46.3983 165.099 46.8713 164.195 47.1933C163.291 47.5052 162.286 47.6662 161.181 47.6662H156.559V32.5825H156.569ZM161.271 46.5392C163.281 46.5392 164.758 45.9757 165.702 44.8588C166.647 43.7418 167.119 42.1419 167.119 40.069C167.119 37.9961 166.677 36.4566 165.803 35.3598C164.919 34.263 163.542 33.7095 161.653 33.7095H157.855V46.5392H161.271Z" fill="white"/>
<path d="M188.158 42.8359C188.058 43.5805 187.867 44.2748 187.576 44.9088C187.284 45.5427 186.892 46.0961 186.4 46.559C185.908 47.0219 185.305 47.3942 184.602 47.6558C183.898 47.9275 183.084 48.0583 182.15 48.0583C181.165 48.0583 180.271 47.8873 179.457 47.5552C178.644 47.2231 177.95 46.71 177.367 46.0458C176.785 45.3716 176.333 44.5566 176.011 43.5705C175.69 42.5944 175.529 41.4573 175.529 40.1794C175.529 38.9015 175.71 37.7342 176.061 36.7481C176.413 35.7519 176.885 34.9268 177.488 34.2526C178.081 33.5885 178.784 33.0753 179.578 32.7332C180.372 32.391 181.216 32.22 182.12 32.22C183.024 32.22 183.818 32.3407 184.481 32.5822C185.144 32.8237 185.697 33.1558 186.159 33.5885C186.611 34.0212 186.983 34.5243 187.264 35.118C187.546 35.7117 187.767 36.3557 187.937 37.0399L186.712 37.3116C186.561 36.6877 186.36 36.1343 186.129 35.6412C185.898 35.1482 185.606 34.7356 185.245 34.3935C184.883 34.0513 184.451 33.7998 183.949 33.6086C183.446 33.4275 182.833 33.3369 182.11 33.3369C181.276 33.3369 180.542 33.508 179.889 33.84C179.236 34.1721 178.694 34.6551 178.242 35.2588C177.789 35.8626 177.448 36.5871 177.207 37.4122C176.966 38.2474 176.845 39.153 176.845 40.1391C176.845 41.1253 176.966 42.051 177.197 42.8761C177.428 43.7013 177.769 44.4157 178.211 45.0195C178.654 45.6232 179.206 46.0961 179.869 46.4282C180.532 46.7603 181.286 46.9213 182.15 46.9213C183.014 46.9213 183.647 46.8206 184.21 46.6194C184.762 46.4181 185.225 46.1263 185.586 45.7641C185.948 45.4018 186.229 44.9691 186.43 44.466C186.631 43.9629 186.782 43.4296 186.882 42.846H188.148L188.158 42.8359Z" fill="white"/>
<path d="M197.101 48.0583C196.126 48.0583 195.222 47.8973 194.388 47.5653C193.554 47.2332 192.831 46.7401 192.228 46.076C191.625 45.4119 191.153 44.5868 190.801 43.6006C190.459 42.6145 190.289 41.4775 190.289 40.1794C190.289 38.8813 190.459 37.7342 190.801 36.7481C191.143 35.7519 191.625 34.9268 192.238 34.2526C192.851 33.5885 193.574 33.0753 194.398 32.7332C195.232 32.391 196.126 32.22 197.101 32.22C198.075 32.22 198.97 32.381 199.804 32.713C200.637 33.0451 201.351 33.5382 201.944 34.2023C202.546 34.8664 203.009 35.6815 203.36 36.6676C203.702 37.6436 203.873 38.7807 203.873 40.0788C203.873 41.3768 203.702 42.5441 203.37 43.5302C203.029 44.5264 202.567 45.3515 201.964 46.0257C201.361 46.6999 200.648 47.203 199.824 47.5451C198.99 47.8873 198.085 48.0583 197.101 48.0583ZM197.101 46.9112C197.985 46.9112 198.769 46.7502 199.442 46.4181C200.115 46.0861 200.688 45.6232 201.14 45.0195C201.592 44.4258 201.944 43.7013 202.175 42.8761C202.406 42.041 202.526 41.1253 202.526 40.1291C202.526 39.1329 202.406 38.2172 202.165 37.382C201.924 36.5468 201.582 35.8324 201.12 35.2387C200.658 34.635 200.095 34.1721 199.422 33.84C198.749 33.508 197.975 33.347 197.101 33.347C196.186 33.347 195.393 33.508 194.709 33.84C194.026 34.1721 193.464 34.635 193.011 35.2387C192.559 35.8425 192.218 36.5569 191.987 37.382C191.756 38.2172 191.635 39.1329 191.635 40.1291C191.635 41.1253 191.745 42.041 191.977 42.8761C192.198 43.7113 192.539 44.4258 193.001 45.0195C193.454 45.6232 194.026 46.0861 194.709 46.4181C195.393 46.7502 196.186 46.9112 197.101 46.9112Z" fill="white"/>
<path d="M206.787 32.5825H208.203L216.643 45.6436V32.5825H217.889V47.6662H216.492L208.033 34.5648V47.6662H206.787V32.5825Z" fill="white"/>
<path d="M225.203 33.7699H219.969V32.5825H231.704V33.7699H226.49V47.6762H225.203V33.7699Z" fill="white"/>
<path d="M233.794 32.5825H243.269V33.7498H235.08V39.2841H242.847V40.4916H235.08V46.4889H243.621L243.329 47.6762H233.794V32.5926V32.5825Z" fill="white"/>
<path d="M246.203 32.5825H247.62L256.06 45.6436V32.5825H257.306V47.6662H255.909L247.449 34.5648V47.6662H246.203V32.5825Z" fill="white"/>
<path d="M264.62 33.7699H259.385V32.5825H271.12V33.7699H265.906V47.6762H264.62V33.7699Z" fill="white"/>
<path d="M277.913 32.5825H279.58L285.026 46.1669L290.552 32.5825H292.14V47.6662H290.934V34.7359C290.864 34.8667 290.643 35.4101 290.261 36.366C290.09 36.7786 289.879 37.2918 289.628 37.9156C289.377 38.5395 289.065 39.3143 288.694 40.2199C288.322 41.1256 287.88 42.1922 287.377 43.4198C286.875 44.6474 286.292 46.0562 285.629 47.6662H284.403L279.128 34.8164V47.6662H277.923V32.5825H277.913Z" fill="white"/>
<path d="M300.088 32.5825H301.605L307.553 47.6662H306.166L304.348 43.0576H297.254L295.456 47.6662H294.109L300.078 32.5825H300.088ZM303.886 41.8803L300.781 34.0013L297.726 41.8803H303.886Z" fill="white"/>
<path d="M309.542 32.5825H310.959L319.399 45.6436V32.5825H320.644V47.6662H319.248L310.788 34.5648V47.6662H309.542V32.5825Z" fill="white"/>
<path d="M328.592 32.5825H330.109L336.057 47.6662H334.66L332.842 43.0576H325.748L323.95 47.6662H322.604L328.572 32.5825H328.592ZM332.39 41.8803L329.285 34.0013L326.231 41.8803H332.39Z" fill="white"/>
<path d="M343.844 40.2196H349.37V46.0558C349.009 46.408 348.597 46.7099 348.135 46.9615C347.672 47.213 347.21 47.4243 346.718 47.5853C346.236 47.7463 345.733 47.8671 345.231 47.9476C344.729 48.0281 344.236 48.0683 343.754 48.0683C342.689 48.0683 341.724 47.8973 340.87 47.5551C340.016 47.213 339.293 46.6998 338.7 46.0357C338.097 45.3615 337.645 44.5465 337.324 43.5603C337.012 42.5843 336.851 41.4573 336.851 40.1894C336.851 38.9215 337.022 37.7442 337.364 36.7581C337.705 35.7619 338.178 34.9368 338.78 34.2626C339.373 33.5985 340.087 33.0853 340.9 32.7432C341.714 32.401 342.598 32.23 343.533 32.23C345.11 32.23 346.336 32.5922 347.21 33.3167C348.094 34.0412 348.697 35.0575 349.039 36.3455L347.833 36.6172C347.693 36.1342 347.512 35.7015 347.291 35.299C347.07 34.8965 346.798 34.5544 346.457 34.2626C346.115 33.9708 345.713 33.7494 345.231 33.5884C344.749 33.4274 344.186 33.3469 343.523 33.3469C342.649 33.3469 341.885 33.518 341.212 33.85C340.539 34.1821 339.986 34.6651 339.534 35.2688C339.082 35.8726 338.74 36.5971 338.509 37.4222C338.278 38.2574 338.158 39.163 338.158 40.1492C338.158 41.1353 338.268 42.061 338.499 42.8861C338.72 43.7113 339.072 44.4257 339.534 45.0295C339.996 45.6332 340.579 46.1061 341.272 46.4382C341.965 46.7703 342.789 46.9313 343.734 46.9313C344.538 46.9313 345.321 46.8206 346.085 46.5992C346.849 46.3778 347.532 46.0458 348.125 45.593V41.3868H343.824V40.2196H343.844Z" fill="white"/>
<path d="M352.414 32.5825H361.889V33.7498H353.7V39.2841H361.467V40.4916H353.7V46.4889H362.241L361.949 47.6762H352.414V32.5926V32.5825Z" fill="white"/>
<path d="M364.823 32.5825H366.491L371.937 46.1669L377.463 32.5825H379.05V47.6662H377.845V34.7359C377.774 34.8667 377.553 35.4101 377.171 36.366C377.001 36.7786 376.79 37.2918 376.538 37.9156C376.287 38.5395 375.976 39.3143 375.604 40.2199C375.232 41.1256 374.79 42.1922 374.288 43.4198C373.785 44.6474 373.203 46.0562 372.539 47.6662H371.314L366.039 34.8164V47.6662H364.833V32.5825H364.823Z" fill="white"/>
<path d="M382.507 32.5825H391.982V33.7498H383.793V39.2841H391.56V40.4916H383.793V46.4889H392.333L392.042 47.6762H382.507V32.5926V32.5825Z" fill="white"/>
<path d="M394.905 32.5825H396.322L404.762 45.6436V32.5825H406.007V47.6662H404.611L396.151 34.5648V47.6662H394.905V32.5825Z" fill="white"/>
<path d="M413.332 33.7699H408.098V32.5825H419.833V33.7699H414.618V47.6762H413.332V33.7699Z" fill="white"/>
</svg>
