<svg xmlns="http://www.w3.org/2000/svg" width="2444" height="1260" viewBox="0 0 2444 1260" fill="none">
<g clip-path="url(#clip0_53_1961)">
<g style="mix-blend-mode" opacity="0.6">
<path fill-rule="evenodd" clip-rule="evenodd" d="M2072.85 126.094L2415.18 619.649C2444.08 662.162 2426.79 692.105 2376.54 686.58L1777.94 636.885C1726.68 633.122 1662.21 595.899 1635.06 554.392L1292.72 60.8374C1263.83 18.3242 1281.12 -11.6187 1331.37 -6.0938L1929.97 43.6008C1980.21 49.1257 2044.68 86.3484 2072.85 126.094Z" fill="white"/>
</g>
<g style="mix-blend-mode" opacity="0.6">
<path fill-rule="evenodd" clip-rule="evenodd" d="M972.198 -122.261L1820.16 31.1407C1892.59 44.9598 1905.43 92.8723 1848.86 138.239L1191.2 695.069C1135.38 743.254 1032.22 770.897 962.571 756.331L114.61 602.929C42.1749 589.11 29.3368 541.197 85.913 495.831L743.567 -60.9994C800.143 -106.366 903.306 -134.009 972.198 -122.261Z" fill="#e4f1ff"/>
</g>
</g>
<defs>
<clipPath id="clip0_53_1961">
<rect width="2444" height="1260" fill="white"/>
</clipPath>
</defs>
</svg>