<svg width="56" height="56" viewBox="0 0 56 56" fill="none" xmlns="http://www.w3.org/2000/svg">
<g clip-path="url(#clip0_252_40833)">
<path fill-rule="evenodd" clip-rule="evenodd" d="M37.1936 38.0646V19.9643C37.1936 19.6548 37.0706 19.358 36.8517 19.1391C36.6328 18.9203 36.3359 18.7973 36.0264 18.7973H17.9473V0.11377H54.6893C54.8426 0.113739 54.9944 0.143908 55.136 0.202553C55.2777 0.261198 55.4064 0.347169 55.5148 0.455559C55.6232 0.563948 55.7092 0.692631 55.7678 0.83426C55.8265 0.975888 55.8567 1.12769 55.8567 1.28099V38.0646H37.1936Z" fill="#8E75FF"/>
<path opacity="0.405" fill-rule="evenodd" clip-rule="evenodd" d="M17.9473 0.11377V18.7973H0.692115C0.576716 18.7973 0.463916 18.763 0.367966 18.6989C0.272016 18.6348 0.197223 18.5437 0.153036 18.4371C0.108849 18.3305 0.0972517 18.2132 0.119709 18.1C0.142166 17.9868 0.197671 17.8828 0.279209 17.8011L17.9473 0.11377ZM37.1936 55.3379V38.0646H55.8567L38.19 55.7504C38.1084 55.8319 38.0044 55.8875 37.8912 55.91C37.778 55.9325 37.6607 55.921 37.5541 55.8769C37.4475 55.8327 37.3563 55.758 37.2921 55.662C37.228 55.5661 37.1937 55.4533 37.1936 55.3379ZM17.9473 18.7973H36.6099C36.7647 18.7973 36.9131 18.8588 37.0226 18.9682C37.132 19.0776 37.1936 19.226 37.1936 19.3808V38.0646H19.1145C18.9612 38.0646 18.8094 38.0344 18.6678 37.9757C18.5262 37.9171 18.3975 37.8311 18.2891 37.7227C18.1808 37.6143 18.0948 37.4857 18.0361 37.344C17.9775 37.2024 17.9473 37.0507 17.9473 36.8974V18.7973Z" fill="#8E75FF"/>
</g>
<defs>
<clipPath id="clip0_252_40833">
<rect width="56" height="56" fill="white"/>
</clipPath>
</defs>
</svg>
