<svg width="280" height="74" viewBox="0 0 280 74" fill="none" xmlns="http://www.w3.org/2000/svg">
<g clip-path="url(#clip0_1995_20829)">
<path d="M184.028 48.4102C182.293 41.7431 175.746 38.9887 169.659 39.5781C163.41 40.1835 157.357 44.3414 157.213 51.6982H157.214C157.209 51.7849 157.21 51.8728 157.209 51.957C157.167 51.9462 157.124 51.9324 157.08 51.9229C156.337 51.7429 155.575 51.6485 154.783 51.6484C149.084 51.6484 144.512 56.5694 144.512 62.5693C144.512 68.393 148.818 73.1989 154.283 73.4766V73.5H195.122C200.895 73.4997 205.512 68.5246 205.512 62.4531C205.512 56.3811 200.886 51.4055 195.122 51.4053C194.347 51.4053 193.587 51.4978 192.855 51.6689C191.334 49.5233 188.909 48.1143 186.156 48.1143C185.585 48.1143 185.027 48.1729 184.487 48.291L184.257 48.3457L184.252 48.3467C184.177 48.3664 184.103 48.3887 184.028 48.4102Z" fill="url(#paint0_linear_1995_20829)" stroke="#333333"/>
<path d="M186.599 44.0491C185.246 37.7685 177.826 35.1997 173.966 35.1997M195.743 46.8342C202.163 45.7735 210.739 51.4056 210.739 59.2155" stroke="#333333" stroke-linecap="round" stroke-linejoin="round"/>
<path d="M123.012 24.5C122.599 24.5 122.228 24.7013 121.971 24.959C121.713 25.2167 121.512 25.5874 121.512 26V36.5938C121.512 37.1322 121.758 37.6074 122.1 37.9414C122.439 38.273 122.907 38.5 123.402 38.5H159.855C160.475 38.5 160.995 38.3703 161.285 37.9277C161.417 37.726 161.468 37.5055 161.49 37.3135C161.512 37.1242 161.512 36.9177 161.512 36.7344V26C161.512 25.5856 161.309 25.2113 161.034 24.9502C160.756 24.6862 160.367 24.5 159.934 24.5H123.012Z" fill="white" stroke="#333333"/>
<path d="M127.819 19.5L139.012 19.5" stroke="#333333" stroke-linecap="round" stroke-linejoin="round"/>
<path d="M81.8457 32.4948C79.6329 32.4948 78.547 34.2699 78.547 35.7018V59.057" stroke="#333333" stroke-linecap="round" stroke-linejoin="round"/>
<path d="M123.012 73.5C122.587 73.5 122.213 73.2778 121.959 73.0059C121.703 72.7317 121.512 72.3473 121.512 71.9287V59.5068C121.512 58.9526 121.749 58.4559 122.088 58.1006C122.424 57.749 122.895 57.5 123.402 57.5H159.855C160.487 57.5 161.01 57.6442 161.294 58.1094C161.421 58.317 161.468 58.5443 161.49 58.7441C161.512 58.9421 161.512 59.159 161.512 59.3564V71.9287C161.512 72.3489 161.319 72.7377 161.046 73.0156C160.771 73.2953 160.379 73.5 159.934 73.5H123.012Z" fill="white" stroke="#333333"/>
<path d="M123.012 40.5C122.587 40.5 122.213 40.7222 121.959 40.9941C121.703 41.2683 121.512 41.6527 121.512 42.0713V53.4932C121.512 54.0474 121.749 54.5441 122.088 54.8994C122.424 55.251 122.895 55.5 123.402 55.5H159.855C160.487 55.5 161.01 55.3558 161.294 54.8906C161.421 54.683 161.468 54.4557 161.49 54.2559C161.512 54.0579 161.512 53.841 161.512 53.6436V42.0713C161.512 41.6511 161.319 41.2623 161.046 40.9844C160.771 40.7047 160.379 40.5 159.934 40.5H123.012Z" fill="white" stroke="#333333"/>
<path fill-rule="evenodd" clip-rule="evenodd" d="M155.534 30H153.49C153.237 30 153.021 30.2081 153.012 30.4615V32.5385C153.012 32.7919 153.227 33 153.49 33H155.534C155.796 33 156.012 32.7919 156.012 32.5385V30.4615C156.012 30.2081 155.796 30 155.534 30ZM155.534 61.6588H153.49C153.237 61.6588 153.021 61.867 153.012 62.1203V64.1973C153.012 64.4507 153.227 64.6588 153.49 64.6588H155.534C155.796 64.6588 156.012 64.4507 156.012 64.1973V62.1203C156.012 61.867 155.796 61.6588 155.534 61.6588ZM147.49 61.6588H149.534C149.796 61.6588 150.012 61.867 150.012 62.1203V64.1973C150.012 64.4507 149.796 64.6588 149.534 64.6588H147.49C147.227 64.6588 147.012 64.4507 147.012 64.1973V62.1203C147.021 61.867 147.237 61.6588 147.49 61.6588ZM149.534 30H147.49C147.237 30 147.021 30.2081 147.012 30.4615V32.5385C147.012 32.7919 147.227 33 147.49 33H149.534C149.796 33 150.012 32.7919 150.012 32.5385V30.4615C150.012 30.2081 149.796 30 149.534 30Z" fill="url(#paint1_linear_1995_20829)"/>
<path fill-rule="evenodd" clip-rule="evenodd" d="M127.563 31H141.46C141.763 31 142.012 31.2081 142.012 31.4615V31.5385C142.012 31.7919 141.763 32 141.46 32H127.563C127.261 32 127.012 31.7919 127.012 31.5385V31.4525C127.023 31.1991 127.271 31 127.563 31Z" fill="#444444"/>
<path fill-rule="evenodd" clip-rule="evenodd" d="M129.534 46.5H127.49C127.227 46.5 127.012 46.7081 127.012 46.9615V49.0385C127.012 49.2919 127.227 49.5 127.49 49.5H129.534C129.796 49.5 130.012 49.2919 130.012 49.0385V46.9615C130.002 46.7081 129.787 46.5 129.534 46.5Z" fill="url(#paint2_linear_1995_20829)"/>
<path fill-rule="evenodd" clip-rule="evenodd" d="M135.534 46.5H133.49C133.227 46.5 133.012 46.7081 133.012 46.9615V49.0385C133.012 49.2919 133.227 49.5 133.49 49.5H135.534C135.796 49.5 136.012 49.2919 136.012 49.0385V46.9615C136.002 46.7081 135.787 46.5 135.534 46.5Z" fill="url(#paint3_linear_1995_20829)"/>
<path fill-rule="evenodd" clip-rule="evenodd" d="M155.46 47.5H141.563C141.261 47.5 141.012 47.7081 141.012 47.9615V48.0385C141.012 48.2919 141.261 48.5 141.563 48.5H155.46C155.763 48.5 156.012 48.2919 156.012 48.0385V47.9525C156.001 47.6991 155.752 47.5 155.46 47.5Z" fill="#444444"/>
<path fill-rule="evenodd" clip-rule="evenodd" d="M127.563 65H141.46C141.763 65 142.012 65.2081 142.012 65.4615V65.5385C142.012 65.7919 141.763 66 141.46 66H127.563C127.261 66 127.012 65.7919 127.012 65.5385V65.4525C127.023 65.1991 127.271 65 127.563 65Z" fill="#444444"/>
<path d="M132.318 36.5C133.026 36.5 133.612 36.6628 134.01 37.083C134.402 37.498 134.512 38.0622 134.512 38.6318V69.5H83.5117V38.5684L83.5224 38.3555C83.6332 37.3042 84.5549 36.5 85.6396 36.5H132.318Z" fill="#9ADAF3" stroke="#333333"/>
<path d="M54.0555 73.55H70.9901" stroke="#333333" stroke-linecap="round" stroke-linejoin="round"/>
<path d="M41.4121 73.55H49.4121" stroke="#333333" stroke-linecap="round" stroke-linejoin="round"/>
<path d="M63.1738 70H70.0992" stroke="#333333" stroke-linecap="round" stroke-linejoin="round"/>
<path d="M206.012 73.55H224.535" stroke="#333333" stroke-linecap="round" stroke-linejoin="round"/>
<path d="M231.102 73.55H235.102" stroke="#333333" stroke-linecap="round" stroke-linejoin="round"/>
<path d="M210.701 69.812H220.212" stroke="#333333" stroke-linecap="round" stroke-linejoin="round"/>
<path d="M86.0117 38.5H132.012C132.288 38.5 132.512 38.7239 132.512 39V67C132.512 67.2761 132.288 67.5 132.012 67.5H86.0117C85.7355 67.5 85.5117 67.2761 85.5117 67V39C85.5117 38.7239 85.7355 38.5 86.0117 38.5Z" fill="#FEFEFE" stroke="#333333"/>
<path fill-rule="evenodd" clip-rule="evenodd" d="M111.232 58.9271C112.041 57.4557 112.57 55.3619 112.57 53C112.57 50.6381 112.041 48.5442 111.232 47.0728C110.406 45.5707 109.407 44.9 108.512 44.9C107.616 44.9 106.617 45.5707 105.791 47.0728C104.982 48.5442 104.454 50.6381 104.454 53C104.454 55.3619 104.982 57.4557 105.791 58.9271C106.617 60.4293 107.616 61.0999 108.512 61.0999C109.407 61.0999 110.406 60.4293 111.232 58.9271ZM108.512 61.9999C111.245 61.9999 113.462 57.9705 113.462 53C113.462 48.0294 111.245 44 108.512 44C105.778 44 103.562 48.0294 103.562 53C103.562 57.9705 105.778 61.9999 108.512 61.9999Z" fill="#333333"/>
<path fill-rule="evenodd" clip-rule="evenodd" d="M108.512 61.0999C112.985 61.0999 116.612 57.4735 116.612 53C116.612 48.5265 112.985 44.9 108.512 44.9C104.038 44.9 100.412 48.5265 100.412 53C100.412 57.4735 104.038 61.0999 108.512 61.0999ZM108.512 61.9999C113.482 61.9999 117.512 57.9705 117.512 53C117.512 48.0294 113.482 44 108.512 44C103.541 44 99.5118 48.0294 99.5118 53C99.5118 57.9705 103.541 61.9999 108.512 61.9999Z" fill="#333333"/>
<path fill-rule="evenodd" clip-rule="evenodd" d="M116.611 53.0001H99.9046V52.1001H116.611V53.0001Z" fill="#333333"/>
<path fill-rule="evenodd" clip-rule="evenodd" d="M108.062 61.1L108.062 44.3251L108.962 44.3251L108.962 61.1L108.062 61.1Z" fill="#333333"/>
<path d="M138.795 69.5C139.291 69.5001 139.512 69.9621 139.512 70.2734V70.707C139.512 71.6342 138.978 72.3378 138.411 72.7861C138.125 73.0129 137.814 73.1874 137.525 73.3066C137.245 73.4224 136.949 73.5 136.694 73.5H80.329C80.0789 73.5 79.7859 73.4273 79.5058 73.3164C79.2179 73.2024 78.9084 73.0341 78.621 72.8145C78.0531 72.3803 77.5117 71.6916 77.5117 70.7695V70.2734C77.5118 69.9621 77.7318 69.5001 78.2285 69.5H138.795Z" fill="#9ADAF3" stroke="#333333"/>
<path fill-rule="evenodd" clip-rule="evenodd" d="M104.766 64.7881H113.014C113.358 64.7881 113.354 65.1908 113.018 65.1908H104.779C104.435 65.1949 104.447 64.7881 104.766 64.7881Z" fill="white"/>
</g>
<defs>
<linearGradient id="paint0_linear_1995_20829" x1="189.408" y1="40.725" x2="171.666" y2="68.6077" gradientUnits="userSpaceOnUse">
<stop stop-color="#FFC671"/>
<stop offset="1" stop-color="#FF6F3D"/>
</linearGradient>
<linearGradient id="paint1_linear_1995_20829" x1="156.012" y1="28.6461" x2="138.565" y2="33.3536" gradientUnits="userSpaceOnUse">
<stop stop-color="#FF8E3D"/>
<stop offset="1" stop-color="#FF6F3D"/>
</linearGradient>
<linearGradient id="paint2_linear_1995_20829" x1="126.89" y1="45.7741" x2="128.682" y2="47.8191" gradientUnits="userSpaceOnUse">
<stop stop-color="#FFC671"/>
<stop offset="1" stop-color="#FF6F3D"/>
</linearGradient>
<linearGradient id="paint3_linear_1995_20829" x1="132.889" y1="45.7741" x2="134.681" y2="47.8191" gradientUnits="userSpaceOnUse">
<stop stop-color="#FFC671"/>
<stop offset="1" stop-color="#FF6F3D"/>
</linearGradient>
<clipPath id="clip0_1995_20829">
<rect width="280" height="74" fill="white"/>
</clipPath>
</defs>
</svg>
