<svg xmlns="http://www.w3.org/2000/svg" width="131" height="131" viewBox="0 0 131 131" fill="none">
<path d="M103.037 61.9716C102.647 61.581 102.647 60.9479 103.037 60.5573C103.428 60.1668 104.061 60.1668 104.451 60.5573C104.842 60.9479 104.842 61.581 104.451 61.9716C104.061 62.3621 103.428 62.3621 103.037 61.9716Z" fill="#C4C4C4"/>
<path d="M98.7945 57.7289C98.4039 57.3384 98.4039 56.7052 98.7945 56.3147C99.185 55.9242 99.8182 55.9242 100.209 56.3147C100.599 56.7052 100.599 57.3384 100.209 57.7289C99.8182 58.1194 99.185 58.1194 98.7945 57.7289Z" fill="#C4C4C4"/>
<path d="M94.5518 53.4863C94.1613 53.0958 94.1613 52.4626 94.5518 52.0721C94.9423 51.6815 95.5755 51.6815 95.966 52.0721C96.3566 52.4626 96.3566 53.0958 95.966 53.4863C95.5755 53.8768 94.9423 53.8768 94.5518 53.4863Z" fill="#C4C4C4"/>
<path d="M90.3092 49.2436C89.9187 48.8531 89.9187 48.2199 90.3092 47.8294C90.6997 47.4389 91.3329 47.4389 91.7234 47.8294C92.1139 48.2199 92.1139 48.8531 91.7234 49.2436C91.3329 49.6342 90.6997 49.6342 90.3092 49.2436Z" fill="#C4C4C4"/>
<path d="M86.0665 45.001C85.676 44.6105 85.676 43.9773 86.0665 43.5868C86.4571 43.1963 87.0902 43.1963 87.4808 43.5868C87.8713 43.9773 87.8713 44.6105 87.4808 45.001C87.0902 45.3915 86.4571 45.3915 86.0665 45.001Z" fill="#C4C4C4"/>
<path d="M77.5813 36.5157C77.1907 36.1252 77.1907 35.492 77.5813 35.1015C77.9718 34.711 78.605 34.711 78.9955 35.1015C79.386 35.492 79.386 36.1252 78.9955 36.5157C78.605 36.9062 77.9718 36.9062 77.5813 36.5157Z" fill="#C4C4C4"/>
<path d="M81.8239 40.7584C81.4334 40.3678 81.4334 39.7347 81.8239 39.3441C82.2144 38.9536 82.8476 38.9536 83.2381 39.3441C83.6286 39.7347 83.6286 40.3678 83.2381 40.7584C82.8476 41.1489 82.2144 41.1489 81.8239 40.7584Z" fill="#C4C4C4"/>
<path d="M86.0665 53.4863C85.676 53.0958 85.676 52.4626 86.0665 52.0721C86.4571 51.6815 87.0902 51.6815 87.4808 52.0721C87.8713 52.4626 87.8713 53.0958 87.4808 53.4863C87.0902 53.8768 86.4571 53.8768 86.0665 53.4863Z" fill="#C4C4C4"/>
<path d="M81.8239 49.2436C81.4334 48.8531 81.4334 48.2199 81.8239 47.8294C82.2144 47.4389 82.8476 47.4389 83.2381 47.8294C83.6286 48.2199 83.6286 48.8531 83.2381 49.2436C82.8476 49.6342 82.2144 49.6342 81.8239 49.2436Z" fill="#C4C4C4"/>
<path d="M77.5813 45.001C77.1907 44.6105 77.1907 43.9773 77.5813 43.5868C77.9718 43.1963 78.605 43.1963 78.9955 43.5868C79.386 43.9773 79.386 44.6105 78.9955 45.001C78.605 45.3915 77.9718 45.3915 77.5813 45.001Z" fill="#C4C4C4"/>
<path d="M94.5518 61.9716C94.1613 61.581 94.1613 60.9479 94.5518 60.5573C94.9423 60.1668 95.5755 60.1668 95.966 60.5573C96.3566 60.9479 96.3566 61.581 95.966 61.9716C95.5755 62.3621 94.9423 62.3621 94.5518 61.9716Z" fill="#C4C4C4"/>
<path d="M90.3092 57.7289C89.9187 57.3384 89.9187 56.7052 90.3092 56.3147C90.6997 55.9242 91.3329 55.9242 91.7234 56.3147C92.1139 56.7052 92.1139 57.3384 91.7234 57.7289C91.3329 58.1194 90.6997 58.1194 90.3092 57.7289Z" fill="#C4C4C4"/>
<path d="M81.8239 57.7289C81.4334 57.3384 81.4334 56.7052 81.8239 56.3147C82.2144 55.9242 82.8476 55.9242 83.2381 56.3147C83.6286 56.7052 83.6286 57.3384 83.2381 57.7289C82.8476 58.1194 82.2144 58.1194 81.8239 57.7289Z" fill="#C4C4C4"/>
<path d="M77.5813 61.9716C77.1907 61.581 77.1907 60.9479 77.5813 60.5573C77.9718 60.1668 78.605 60.1668 78.9955 60.5573C79.386 60.9479 79.386 61.581 78.9955 61.9716C78.605 62.3621 77.9718 62.3621 77.5813 61.9716Z" fill="#C4C4C4"/>
<path d="M77.5813 53.4863C77.1907 53.0958 77.1907 52.4626 77.5813 52.0721C77.9718 51.6815 78.605 51.6815 78.9955 52.0721C79.386 52.4626 79.386 53.0958 78.9955 53.4863C78.605 53.8768 77.9718 53.8768 77.5813 53.4863Z" fill="#C4C4C4"/>
<path d="M86.0665 61.9716C85.676 61.581 85.676 60.9479 86.0665 60.5573C86.4571 60.1668 87.0902 60.1668 87.4808 60.5573C87.8713 60.9479 87.8713 61.581 87.4808 61.9716C87.0902 62.3621 86.4571 62.3621 86.0665 61.9716Z" fill="#C4C4C4"/>
<path d="M73.3386 57.7289C72.9481 57.3384 72.9481 56.7052 73.3386 56.3147C73.7291 55.9242 74.3623 55.9242 74.7528 56.3147C75.1434 56.7052 75.1434 57.3384 74.7528 57.7289C74.3623 58.1194 73.7291 58.1194 73.3386 57.7289Z" fill="#C4C4C4"/>
<path d="M69.096 53.4863C68.7055 53.0958 68.7055 52.4626 69.096 52.0721C69.4865 51.6815 70.1197 51.6815 70.5102 52.0721C70.9007 52.4626 70.9007 53.0958 70.5102 53.4863C70.1197 53.8768 69.4865 53.8768 69.096 53.4863Z" fill="#C4C4C4"/>
<path d="M64.8533 49.2436C64.4628 48.8531 64.4628 48.2199 64.8533 47.8294C65.2439 47.4389 65.877 47.4389 66.2676 47.8294C66.6581 48.2199 66.6581 48.8531 66.2676 49.2436C65.877 49.6342 65.2439 49.6342 64.8533 49.2436Z" fill="#C4C4C4"/>
<path d="M60.6107 45.001C60.2202 44.6105 60.2202 43.9773 60.6107 43.5868C61.0012 43.1963 61.6344 43.1963 62.0249 43.5868C62.4154 43.9773 62.4154 44.6105 62.0249 45.001C61.6344 45.3915 61.0012 45.3915 60.6107 45.001Z" fill="#C4C4C4"/>
<path d="M64.8533 57.7289C64.4628 57.3384 64.4628 56.7052 64.8533 56.3147C65.2439 55.9242 65.877 55.9242 66.2676 56.3147C66.6581 56.7052 66.6581 57.3384 66.2676 57.7289C65.877 58.1194 65.2439 58.1194 64.8533 57.7289Z" fill="#C4C4C4"/>
<path d="M60.6107 53.4863C60.2202 53.0958 60.2202 52.4626 60.6107 52.0721C61.0012 51.6815 61.6344 51.6815 62.0249 52.0721C62.4154 52.4626 62.4154 53.0958 62.0249 53.4863C61.6344 53.8768 61.0012 53.8768 60.6107 53.4863Z" fill="#C4C4C4"/>
<path d="M56.3681 49.2436C55.9775 48.8531 55.9775 48.2199 56.3681 47.8294C56.7586 47.4389 57.3917 47.4389 57.7823 47.8294C58.1728 48.2199 58.1728 48.8531 57.7823 49.2436C57.3917 49.6342 56.7586 49.6342 56.3681 49.2436Z" fill="#C4C4C4"/>
<path d="M52.1254 45.001C51.7349 44.6105 51.7349 43.9773 52.1254 43.5868C52.5159 43.1963 53.1491 43.1963 53.5396 43.5868C53.9302 43.9773 53.9302 44.6105 53.5396 45.001C53.1491 45.3915 52.5159 45.3915 52.1254 45.001Z" fill="#C4C4C4"/>
<path d="M47.8828 40.7584C47.4923 40.3678 47.4923 39.7347 47.8828 39.3441C48.2733 38.9536 48.9065 38.9536 49.297 39.3441C49.6875 39.7347 49.6875 40.3678 49.297 40.7584C48.9065 41.1489 48.2733 41.1489 47.8828 40.7584Z" fill="#C4C4C4"/>
<path d="M43.6401 36.5157C43.2496 36.1252 43.2496 35.492 43.6401 35.1015C44.0307 34.711 44.6638 34.711 45.0544 35.1015C45.4449 35.492 45.4449 36.1252 45.0544 36.5157C44.6638 36.9062 44.0307 36.9062 43.6401 36.5157Z" fill="#C4C4C4"/>
<path d="M47.8828 49.2436C47.4923 48.8531 47.4923 48.2199 47.8828 47.8294C48.2733 47.4389 48.9065 47.4389 49.297 47.8294C49.6875 48.2199 49.6875 48.8531 49.297 49.2436C48.9065 49.6342 48.2733 49.6342 47.8828 49.2436Z" fill="#C4C4C4"/>
<path d="M43.6401 45.001C43.2496 44.6105 43.2496 43.9773 43.6401 43.5868C44.0307 43.1963 44.6638 43.1963 45.0544 43.5868C45.4449 43.9773 45.4449 44.6105 45.0544 45.001C44.6638 45.3915 44.0307 45.3915 43.6401 45.001Z" fill="#C4C4C4"/>
<path d="M56.3681 57.7289C55.9775 57.3384 55.9775 56.7052 56.3681 56.3147C56.7586 55.9242 57.3917 55.9242 57.7823 56.3147C58.1728 56.7052 58.1728 57.3384 57.7823 57.7289C57.3917 58.1194 56.7586 58.1194 56.3681 57.7289Z" fill="#C4C4C4"/>
<path d="M52.1254 53.4863C51.7349 53.0958 51.7349 52.4626 52.1254 52.0721C52.5159 51.6815 53.1491 51.6815 53.5396 52.0721C53.9302 52.4626 53.9302 53.0958 53.5396 53.4863C53.1491 53.8768 52.5159 53.8768 52.1254 53.4863Z" fill="#C4C4C4"/>
<path d="M43.6401 53.4863C43.2496 53.0958 43.2496 52.4626 43.6401 52.0721C44.0307 51.6815 44.6638 51.6815 45.0544 52.0721C45.4449 52.4626 45.4449 53.0958 45.0544 53.4863C44.6638 53.8768 44.0307 53.8768 43.6401 53.4863Z" fill="#C4C4C4"/>
<path d="M47.8828 57.7289C47.4923 57.3384 47.4923 56.7052 47.8828 56.3147C48.2733 55.9242 48.9065 55.9242 49.297 56.3147C49.6875 56.7052 49.6875 57.3384 49.297 57.7289C48.9065 58.1194 48.2733 58.1194 47.8828 57.7289Z" fill="#C4C4C4"/>
<path d="M73.3386 49.2436C72.9481 48.8531 72.9481 48.2199 73.3386 47.8294C73.7291 47.4389 74.3623 47.4389 74.7528 47.8294C75.1434 48.2199 75.1434 48.8531 74.7528 49.2436C74.3623 49.6342 73.7291 49.6342 73.3386 49.2436Z" fill="#C4C4C4"/>
<path d="M69.096 45.001C68.7055 44.6105 68.7055 43.9773 69.096 43.5868C69.4865 43.1963 70.1197 43.1963 70.5102 43.5868C70.9007 43.9773 70.9007 44.6105 70.5102 45.001C70.1197 45.3915 69.4865 45.3915 69.096 45.001Z" fill="#C4C4C4"/>
<path d="M64.8533 40.7584C64.4628 40.3678 64.4628 39.7347 64.8533 39.3441C65.2439 38.9536 65.877 38.9536 66.2676 39.3441C66.6581 39.7347 66.6581 40.3678 66.2676 40.7584C65.877 41.1489 65.2439 41.1489 64.8533 40.7584Z" fill="#C4C4C4"/>
<path d="M60.6107 36.5157C60.2202 36.1252 60.2202 35.492 60.6107 35.1015C61.0012 34.711 61.6344 34.711 62.0249 35.1015C62.4154 35.492 62.4154 36.1252 62.0249 36.5157C61.6344 36.9062 61.0012 36.9062 60.6107 36.5157Z" fill="#C4C4C4"/>
<path d="M56.3681 32.2731C55.9775 31.8825 55.9775 31.2494 56.3681 30.8589C56.7586 30.4683 57.3917 30.4683 57.7823 30.8589C58.1728 31.2494 58.1728 31.8825 57.7823 32.2731C57.3917 32.6636 56.7586 32.6636 56.3681 32.2731Z" fill="#C4C4C4"/>
<path d="M52.1254 28.0304C51.7349 27.6399 51.7349 27.0067 52.1254 26.6162C52.5159 26.2257 53.1491 26.2257 53.5396 26.6162C53.9302 27.0067 53.9302 27.6399 53.5396 28.0304C53.1491 28.421 52.5159 28.421 52.1254 28.0304Z" fill="#C4C4C4"/>
<path d="M64.8533 32.2731C64.4628 31.8825 64.4628 31.2494 64.8533 30.8589C65.2439 30.4683 65.877 30.4683 66.2676 30.8589C66.6581 31.2494 66.6581 31.8825 66.2676 32.2731C65.877 32.6636 65.2439 32.6636 64.8533 32.2731Z" fill="#C4C4C4"/>
<path d="M60.6107 28.0304C60.2202 27.6399 60.2202 27.0067 60.6107 26.6162C61.0012 26.2257 61.6344 26.2257 62.0249 26.6162C62.4154 27.0067 62.4154 27.6399 62.0249 28.0304C61.6344 28.421 61.0012 28.421 60.6107 28.0304Z" fill="#C4C4C4"/>
<path d="M73.3386 40.7584C72.9481 40.3678 72.9481 39.7347 73.3386 39.3441C73.7291 38.9536 74.3623 38.9536 74.7528 39.3441C75.1434 39.7347 75.1434 40.3678 74.7528 40.7584C74.3623 41.1489 73.7291 41.1489 73.3386 40.7584Z" fill="#C4C4C4"/>
<path d="M69.096 36.5157C68.7055 36.1252 68.7055 35.492 69.096 35.1015C69.4865 34.711 70.1197 34.711 70.5102 35.1015C70.9007 35.492 70.9007 36.1252 70.5102 36.5157C70.1197 36.9062 69.4865 36.9062 69.096 36.5157Z" fill="#C4C4C4"/>
<path d="M69.096 28.0304C68.7055 27.6399 68.7055 27.0067 69.096 26.6162C69.4865 26.2257 70.1197 26.2257 70.5102 26.6162C70.9007 27.0067 70.9007 27.6399 70.5102 28.0304C70.1197 28.421 69.4865 28.421 69.096 28.0304Z" fill="#C4C4C4"/>
<path d="M73.3386 32.2731C72.9481 31.8825 72.9481 31.2494 73.3386 30.8589C73.7291 30.4683 74.3623 30.4683 74.7528 30.8589C75.1434 31.2494 75.1434 31.8825 74.7528 32.2731C74.3623 32.6636 73.7291 32.6636 73.3386 32.2731Z" fill="#C4C4C4"/>
<path d="M56.3681 40.7584C55.9775 40.3678 55.9775 39.7347 56.3681 39.3441C56.7586 38.9536 57.3917 38.9536 57.7823 39.3441C58.1728 39.7347 58.1728 40.3678 57.7823 40.7584C57.3917 41.1489 56.7586 41.1489 56.3681 40.7584Z" fill="#C4C4C4"/>
<path d="M52.1254 36.5157C51.7349 36.1252 51.7349 35.492 52.1254 35.1015C52.5159 34.711 53.1491 34.711 53.5396 35.1015C53.9302 35.492 53.9302 36.1252 53.5396 36.5157C53.1491 36.9062 52.5159 36.9062 52.1254 36.5157Z" fill="#C4C4C4"/>
<path d="M47.8828 32.2731C47.4923 31.8825 47.4923 31.2494 47.8828 30.8589C48.2733 30.4683 48.9065 30.4683 49.297 30.8589C49.6875 31.2494 49.6875 31.8825 49.297 32.2731C48.9065 32.6636 48.2733 32.6636 47.8828 32.2731Z" fill="#C4C4C4"/>
<path d="M43.6401 28.0304C43.2496 27.6399 43.2496 27.0067 43.6401 26.6162C44.0307 26.2257 44.6638 26.2257 45.0544 26.6162C45.4449 27.0067 45.4449 27.6399 45.0544 28.0304C44.6638 28.421 44.0307 28.421 43.6401 28.0304Z" fill="#C4C4C4"/>
<path d="M60.6107 87.4274C60.2202 87.0369 60.2202 86.4037 60.6107 86.0132C61.0012 85.6227 61.6344 85.6227 62.0249 86.0132C62.4154 86.4037 62.4154 87.0369 62.0249 87.4274C61.6344 87.8179 61.0012 87.8179 60.6107 87.4274Z" fill="#C4C4C4"/>
<path d="M56.3681 83.1848C55.9775 82.7942 55.9775 82.1611 56.3681 81.7705C56.7586 81.38 57.3917 81.38 57.7823 81.7705C58.1728 82.1611 58.1728 82.7942 57.7823 83.1848C57.3917 83.5753 56.7586 83.5753 56.3681 83.1848Z" fill="#C4C4C4"/>
<path d="M52.1254 87.4274C51.7349 87.0369 51.7349 86.4037 52.1254 86.0132C52.5159 85.6227 53.1491 85.6227 53.5396 86.0132C53.9302 86.4037 53.9302 87.0369 53.5396 87.4274C53.1491 87.8179 52.5159 87.8179 52.1254 87.4274Z" fill="#C4C4C4"/>
<path d="M47.8828 83.1848C47.4923 82.7942 47.4923 82.1611 47.8828 81.7705C48.2733 81.38 48.9065 81.38 49.297 81.7705C49.6875 82.1611 49.6875 82.7942 49.297 83.1848C48.9065 83.5753 48.2733 83.5753 47.8828 83.1848Z" fill="#C4C4C4"/>
<path d="M43.6401 78.9421C43.2496 78.5516 43.2496 77.9184 43.6401 77.5279C44.0307 77.1374 44.6638 77.1374 45.0544 77.5279C45.4449 77.9184 45.4449 78.5516 45.0544 78.9421C44.6638 79.3326 44.0307 79.3326 43.6401 78.9421Z" fill="#C4C4C4"/>
<path d="M43.6401 87.4274C43.2496 87.0369 43.2496 86.4037 43.6401 86.0132C44.0307 85.6227 44.6638 85.6227 45.0544 86.0132C45.4449 86.4037 45.4449 87.0369 45.0544 87.4274C44.6638 87.8179 44.0307 87.8179 43.6401 87.4274Z" fill="#C4C4C4"/>
<path d="M69.096 87.4274C68.7055 87.0369 68.7055 86.4037 69.096 86.0132C69.4865 85.6227 70.1197 85.6227 70.5102 86.0132C70.9007 86.4037 70.9007 87.0369 70.5102 87.4274C70.1197 87.8179 69.4865 87.8179 69.096 87.4274Z" fill="#C4C4C4"/>
<path d="M64.8533 83.1848C64.4628 82.7942 64.4628 82.1611 64.8533 81.7705C65.2439 81.38 65.877 81.38 66.2676 81.7705C66.6581 82.1611 66.6581 82.7942 66.2676 83.1848C65.877 83.5753 65.2439 83.5753 64.8533 83.1848Z" fill="#C4C4C4"/>
<path d="M60.6107 78.9421C60.2202 78.5516 60.2202 77.9184 60.6107 77.5279C61.0012 77.1374 61.6344 77.1374 62.0249 77.5279C62.4154 77.9184 62.4154 78.5516 62.0249 78.9421C61.6344 79.3326 61.0012 79.3326 60.6107 78.9421Z" fill="#C4C4C4"/>
<path d="M56.3681 74.6995C55.9775 74.309 55.9775 73.6758 56.3681 73.2853C56.7586 72.8947 57.3917 72.8947 57.7823 73.2853C58.1728 73.6758 58.1728 74.309 57.7823 74.6995C57.3917 75.09 56.7586 75.09 56.3681 74.6995Z" fill="#C4C4C4"/>
<path d="M52.1254 70.4568C51.7349 70.0663 51.7349 69.4331 52.1254 69.0426C52.5159 68.6521 53.1491 68.6521 53.5396 69.0426C53.9302 69.4331 53.9302 70.0663 53.5396 70.4568C53.1491 70.8474 52.5159 70.8474 52.1254 70.4568Z" fill="#C4C4C4"/>
<path d="M47.8828 66.2142C47.4923 65.8237 47.4923 65.1905 47.8828 64.8C48.2733 64.4095 48.9065 64.4095 49.297 64.8C49.6875 65.1905 49.6875 65.8237 49.297 66.2142C48.9065 66.6047 48.2733 66.6047 47.8828 66.2142Z" fill="#C4C4C4"/>
<path d="M60.6107 70.4568C60.2202 70.0663 60.2202 69.4331 60.6107 69.0426C61.0012 68.6521 61.6344 68.6521 62.0249 69.0426C62.4154 69.4331 62.4154 70.0663 62.0249 70.4568C61.6344 70.8474 61.0012 70.8474 60.6107 70.4568Z" fill="#C4C4C4"/>
<path d="M56.3681 66.2142C55.9775 65.8237 55.9775 65.1905 56.3681 64.8C56.7586 64.4095 57.3917 64.4095 57.7823 64.8C58.1728 65.1905 58.1728 65.8237 57.7823 66.2142C57.3917 66.6047 56.7586 66.6047 56.3681 66.2142Z" fill="#C4C4C4"/>
<path d="M52.1254 61.9716C51.7349 61.581 51.7349 60.9479 52.1254 60.5573C52.5159 60.1668 53.1491 60.1668 53.5396 60.5573C53.9302 60.9479 53.9302 61.581 53.5396 61.9716C53.1491 62.3621 52.5159 62.3621 52.1254 61.9716Z" fill="#C4C4C4"/>
<path d="M43.6401 61.9716C43.2496 61.581 43.2496 60.9479 43.6401 60.5573C44.0307 60.1668 44.6638 60.1668 45.0544 60.5573C45.4449 60.9479 45.4449 61.581 45.0544 61.9716C44.6638 62.3621 44.0307 62.3621 43.6401 61.9716Z" fill="#C4C4C4"/>
<path d="M69.096 78.9421C68.7055 78.5516 68.7055 77.9184 69.096 77.5279C69.4865 77.1374 70.1197 77.1374 70.5102 77.5279C70.9007 77.9184 70.9007 78.5516 70.5102 78.9421C70.1197 79.3326 69.4865 79.3326 69.096 78.9421Z" fill="#C4C4C4"/>
<path d="M64.8533 74.6995C64.4628 74.309 64.4628 73.6758 64.8533 73.2853C65.2439 72.8947 65.877 72.8947 66.2676 73.2853C66.6581 73.6758 66.6581 74.309 66.2676 74.6995C65.877 75.09 65.2439 75.09 64.8533 74.6995Z" fill="#C4C4C4"/>
<path d="M64.8533 66.2142C64.4628 65.8237 64.4628 65.1905 64.8533 64.8C65.2439 64.4095 65.877 64.4095 66.2676 64.8C66.6581 65.1905 66.6581 65.8237 66.2676 66.2142C65.877 66.6047 65.2439 66.6047 64.8533 66.2142Z" fill="#C4C4C4"/>
<path d="M69.096 61.9716C68.7055 61.581 68.7055 60.9479 69.096 60.5573C69.4865 60.1668 70.1197 60.1668 70.5102 60.5573C70.9007 60.9479 70.9007 61.581 70.5102 61.9716C70.1197 62.3621 69.4865 62.3621 69.096 61.9716Z" fill="#C4C4C4"/>
<path d="M60.6107 61.9716C60.2202 61.581 60.2202 60.9479 60.6107 60.5573C61.0012 60.1668 61.6344 60.1668 62.0249 60.5573C62.4154 60.9479 62.4154 61.581 62.0249 61.9716C61.6344 62.3621 61.0012 62.3621 60.6107 61.9716Z" fill="#C4C4C4"/>
<path d="M69.096 70.4568C68.7055 70.0663 68.7055 69.4331 69.096 69.0426C69.4865 68.6521 70.1197 68.6521 70.5102 69.0426C70.9007 69.4331 70.9007 70.0663 70.5102 70.4568C70.1197 70.8474 69.4865 70.8474 69.096 70.4568Z" fill="#C4C4C4"/>
<path d="M52.1254 78.9421C51.7349 78.5516 51.7349 77.9184 52.1254 77.5279C52.5159 77.1374 53.1491 77.1374 53.5396 77.5279C53.9302 77.9184 53.9302 78.5516 53.5396 78.9421C53.1491 79.3326 52.5159 79.3326 52.1254 78.9421Z" fill="#C4C4C4"/>
<path d="M47.8828 74.6995C47.4923 74.309 47.4923 73.6758 47.8828 73.2853C48.2733 72.8947 48.9065 72.8947 49.297 73.2853C49.6875 73.6758 49.6875 74.309 49.297 74.6995C48.9065 75.09 48.2733 75.09 47.8828 74.6995Z" fill="#C4C4C4"/>
<path d="M43.6401 70.4568C43.2496 70.0663 43.2496 69.4331 43.6401 69.0426C44.0307 68.6521 44.6638 68.6521 45.0544 69.0426C45.4449 69.4331 45.4449 70.0663 45.0544 70.4568C44.6638 70.8474 44.0307 70.8474 43.6401 70.4568Z" fill="#C4C4C4"/>
<path d="M94.5518 87.4274C94.1613 87.0369 94.1613 86.4037 94.5518 86.0132C94.9423 85.6227 95.5755 85.6227 95.966 86.0132C96.3566 86.4037 96.3566 87.0369 95.966 87.4274C95.5755 87.8179 94.9423 87.8179 94.5518 87.4274Z" fill="#C4C4C4"/>
<path d="M86.0665 87.4274C85.676 87.0369 85.676 86.4037 86.0665 86.0132C86.4571 85.6227 87.0902 85.6227 87.4808 86.0132C87.8713 86.4037 87.8713 87.0369 87.4808 87.4274C87.0902 87.8179 86.4571 87.8179 86.0665 87.4274Z" fill="#C4C4C4"/>
<path d="M81.8239 83.1848C81.4334 82.7942 81.4334 82.1611 81.8239 81.7705C82.2144 81.38 82.8476 81.38 83.2381 81.7705C83.6286 82.1611 83.6286 82.7942 83.2381 83.1848C82.8476 83.5753 82.2144 83.5753 81.8239 83.1848Z" fill="#C4C4C4"/>
<path d="M73.3386 74.6995C72.9481 74.309 72.9481 73.6758 73.3386 73.2853C73.7291 72.8947 74.3623 72.8947 74.7528 73.2853C75.1434 73.6758 75.1434 74.309 74.7528 74.6995C74.3623 75.09 73.7291 75.09 73.3386 74.6995Z" fill="#C4C4C4"/>
<path d="M77.5813 78.9421C77.1907 78.5516 77.1907 77.9184 77.5813 77.5279C77.9718 77.1374 78.605 77.1374 78.9955 77.5279C79.386 77.9184 79.386 78.5516 78.9955 78.9421C78.605 79.3326 77.9718 79.3326 77.5813 78.9421Z" fill="#C4C4C4"/>
<path d="M77.5813 87.4274C77.1907 87.0369 77.1907 86.4037 77.5813 86.0132C77.9718 85.6227 78.605 85.6227 78.9955 86.0132C79.386 86.4037 79.386 87.0369 78.9955 87.4274C78.605 87.8179 77.9718 87.8179 77.5813 87.4274Z" fill="#C4C4C4"/>
<path d="M73.3386 83.1848C72.9481 82.7942 72.9481 82.1611 73.3386 81.7705C73.7291 81.38 74.3623 81.38 74.7528 81.7705C75.1434 82.1611 75.1434 82.7942 74.7528 83.1848C74.3623 83.5753 73.7291 83.5753 73.3386 83.1848Z" fill="#C4C4C4"/>
<path d="M103.037 87.4274C102.647 87.0369 102.647 86.4037 103.037 86.0132C103.428 85.6227 104.061 85.6227 104.451 86.0132C104.842 86.4037 104.842 87.0369 104.451 87.4274C104.061 87.8179 103.428 87.8179 103.037 87.4274Z" fill="#C4C4C4"/>
<path d="M98.7945 83.1848C98.4039 82.7942 98.4039 82.1611 98.7945 81.7705C99.185 81.38 99.8182 81.38 100.209 81.7705C100.599 82.1611 100.599 82.7942 100.209 83.1848C99.8182 83.5753 99.185 83.5753 98.7945 83.1848Z" fill="#C4C4C4"/>
<path d="M94.5518 78.9421C94.1613 78.5516 94.1613 77.9184 94.5518 77.5279C94.9423 77.1374 95.5755 77.1374 95.966 77.5279C96.3566 77.9184 96.3566 78.5516 95.966 78.9421C95.5755 79.3326 94.9423 79.3326 94.5518 78.9421Z" fill="#C4C4C4"/>
<path d="M90.3092 74.6995C89.9187 74.309 89.9187 73.6758 90.3092 73.2853C90.6997 72.8947 91.3329 72.8947 91.7234 73.2853C92.1139 73.6758 92.1139 74.309 91.7234 74.6995C91.3329 75.09 90.6997 75.09 90.3092 74.6995Z" fill="#C4C4C4"/>
<path d="M86.0665 70.4568C85.676 70.0663 85.676 69.4331 86.0665 69.0426C86.4571 68.6521 87.0902 68.6521 87.4808 69.0426C87.8713 69.4331 87.8713 70.0663 87.4808 70.4568C87.0902 70.8474 86.4571 70.8474 86.0665 70.4568Z" fill="#C4C4C4"/>
<path d="M98.7945 74.6995C98.4039 74.309 98.4039 73.6758 98.7945 73.2853C99.185 72.8947 99.8182 72.8947 100.209 73.2853C100.599 73.6758 100.599 74.309 100.209 74.6995C99.8182 75.09 99.185 75.09 98.7945 74.6995Z" fill="#C4C4C4"/>
<path d="M94.5518 70.4568C94.1613 70.0663 94.1613 69.4331 94.5518 69.0426C94.9423 68.6521 95.5755 68.6521 95.966 69.0426C96.3566 69.4331 96.3566 70.0663 95.966 70.4568C95.5755 70.8474 94.9423 70.8474 94.5518 70.4568Z" fill="#C4C4C4"/>
<path d="M90.3092 66.2142C89.9187 65.8237 89.9187 65.1905 90.3092 64.8C90.6997 64.4095 91.3329 64.4095 91.7234 64.8C92.1139 65.1905 92.1139 65.8237 91.7234 66.2142C91.3329 66.6047 90.6997 66.6047 90.3092 66.2142Z" fill="#C4C4C4"/>
<path d="M81.8239 66.2142C81.4334 65.8237 81.4334 65.1905 81.8239 64.8C82.2144 64.4095 82.8476 64.4095 83.2381 64.8C83.6286 65.1905 83.6286 65.8237 83.2381 66.2142C82.8476 66.6047 82.2144 66.6047 81.8239 66.2142Z" fill="#C4C4C4"/>
<path d="M103.037 78.9421C102.647 78.5516 102.647 77.9184 103.037 77.5279C103.428 77.1374 104.061 77.1374 104.451 77.5279C104.842 77.9184 104.842 78.5516 104.451 78.9421C104.061 79.3326 103.428 79.3326 103.037 78.9421Z" fill="#C4C4C4"/>
<path d="M103.037 70.4568C102.647 70.0663 102.647 69.4331 103.037 69.0426C103.428 68.6521 104.061 68.6521 104.451 69.0426C104.842 69.4331 104.842 70.0663 104.451 70.4568C104.061 70.8474 103.428 70.8474 103.037 70.4568Z" fill="#C4C4C4"/>
<path d="M98.7945 66.2142C98.4039 65.8237 98.4039 65.1905 98.7945 64.8C99.185 64.4095 99.8182 64.4095 100.209 64.8C100.599 65.1905 100.599 65.8237 100.209 66.2142C99.8182 66.6047 99.185 66.6047 98.7945 66.2142Z" fill="#C4C4C4"/>
<path d="M90.3092 83.1848C89.9187 82.7942 89.9187 82.1611 90.3092 81.7705C90.6997 81.38 91.3329 81.38 91.7234 81.7705C92.1139 82.1611 92.1139 82.7942 91.7234 83.1848C91.3329 83.5753 90.6997 83.5753 90.3092 83.1848Z" fill="#C4C4C4"/>
<path d="M86.0665 78.9421C85.676 78.5516 85.676 77.9184 86.0665 77.5279C86.4571 77.1374 87.0902 77.1374 87.4808 77.5279C87.8713 77.9184 87.8713 78.5516 87.4808 78.9421C87.0902 79.3326 86.4571 79.3326 86.0665 78.9421Z" fill="#C4C4C4"/>
<path d="M81.8239 74.6995C81.4334 74.309 81.4334 73.6758 81.8239 73.2853C82.2144 72.8947 82.8476 72.8947 83.2381 73.2853C83.6286 73.6758 83.6286 74.309 83.2381 74.6995C82.8476 75.09 82.2144 75.09 81.8239 74.6995Z" fill="#C4C4C4"/>
<path d="M77.5813 70.4568C77.1907 70.0663 77.1907 69.4331 77.5813 69.0426C77.9718 68.6521 78.605 68.6521 78.9955 69.0426C79.386 69.4331 79.386 70.0663 78.9955 70.4568C78.605 70.8474 77.9718 70.8474 77.5813 70.4568Z" fill="#C4C4C4"/>
<path d="M73.3386 66.2142C72.9481 65.8237 72.9481 65.1905 73.3386 64.8C73.7291 64.4095 74.3623 64.4095 74.7528 64.8C75.1434 65.1905 75.1434 65.8237 74.7528 66.2142C74.3623 66.6047 73.7291 66.6047 73.3386 66.2142Z" fill="#C4C4C4"/>
<path d="M120.008 87.4274C119.617 87.0369 119.617 86.4037 120.008 86.0132C120.398 85.6227 121.031 85.6227 121.422 86.0132C121.812 86.4037 121.812 87.0369 121.422 87.4274C121.031 87.8179 120.398 87.8179 120.008 87.4274Z" fill="#C4C4C4"/>
<path d="M115.765 83.1848C115.375 82.7942 115.375 82.1611 115.765 81.7705C116.156 81.38 116.789 81.38 117.179 81.7705C117.57 82.1611 117.57 82.7942 117.179 83.1848C116.789 83.5753 116.156 83.5753 115.765 83.1848Z" fill="#C4C4C4"/>
<path d="M111.522 87.4274C111.132 87.0369 111.132 86.4037 111.522 86.0132C111.913 85.6227 112.546 85.6227 112.937 86.0132C113.327 86.4037 113.327 87.0369 112.937 87.4274C112.546 87.8179 111.913 87.8179 111.522 87.4274Z" fill="#C4C4C4"/>
<path d="M107.28 83.1848C106.889 82.7942 106.889 82.1611 107.28 81.7705C107.67 81.38 108.303 81.38 108.694 81.7705C109.084 82.1611 109.084 82.7942 108.694 83.1848C108.303 83.5753 107.67 83.5753 107.28 83.1848Z" fill="#C4C4C4"/>
<path d="M103.037 78.9421C102.647 78.5516 102.647 77.9184 103.037 77.5279C103.428 77.1374 104.061 77.1374 104.451 77.5279C104.842 77.9184 104.842 78.5516 104.451 78.9421C104.061 79.3326 103.428 79.3326 103.037 78.9421Z" fill="#C4C4C4"/>
<path d="M103.037 87.4274C102.647 87.0369 102.647 86.4037 103.037 86.0132C103.428 85.6227 104.061 85.6227 104.451 86.0132C104.842 86.4037 104.842 87.0369 104.451 87.4274C104.061 87.8179 103.428 87.8179 103.037 87.4274Z" fill="#C4C4C4"/>
<path d="M128.493 87.4274C128.102 87.0369 128.102 86.4037 128.493 86.0132C128.883 85.6227 129.517 85.6227 129.907 86.0132C130.298 86.4037 130.298 87.0369 129.907 87.4274C129.517 87.8179 128.883 87.8179 128.493 87.4274Z" fill="#C4C4C4"/>
<path d="M124.25 83.1848C123.86 82.7942 123.86 82.1611 124.25 81.7705C124.641 81.38 125.274 81.38 125.665 81.7705C126.055 82.1611 126.055 82.7942 125.665 83.1848C125.274 83.5753 124.641 83.5753 124.25 83.1848Z" fill="#C4C4C4"/>
<path d="M120.008 78.9421C119.617 78.5516 119.617 77.9184 120.008 77.5279C120.398 77.1374 121.031 77.1374 121.422 77.5279C121.812 77.9184 121.812 78.5516 121.422 78.9421C121.031 79.3326 120.398 79.3326 120.008 78.9421Z" fill="#C4C4C4"/>
<path d="M115.765 74.6995C115.375 74.309 115.375 73.6758 115.765 73.2853C116.156 72.8947 116.789 72.8947 117.179 73.2853C117.57 73.6758 117.57 74.309 117.179 74.6995C116.789 75.09 116.156 75.09 115.765 74.6995Z" fill="#C4C4C4"/>
<path d="M111.522 70.4568C111.132 70.0663 111.132 69.4331 111.522 69.0426C111.913 68.6521 112.546 68.6521 112.937 69.0426C113.327 69.4331 113.327 70.0663 112.937 70.4568C112.546 70.8474 111.913 70.8474 111.522 70.4568Z" fill="#C4C4C4"/>
<path d="M107.28 66.2142C106.889 65.8237 106.889 65.1905 107.28 64.8C107.67 64.4095 108.303 64.4095 108.694 64.8C109.084 65.1905 109.084 65.8237 108.694 66.2142C108.303 66.6047 107.67 66.6047 107.28 66.2142Z" fill="#C4C4C4"/>
<path d="M103.037 61.9716C102.647 61.581 102.647 60.9479 103.037 60.5573C103.428 60.1668 104.061 60.1668 104.451 60.5573C104.842 60.9479 104.842 61.581 104.451 61.9716C104.061 62.3621 103.428 62.3621 103.037 61.9716Z" fill="#C4C4C4"/>
<path d="M111.522 78.9421C111.132 78.5516 111.132 77.9184 111.522 77.5279C111.913 77.1374 112.546 77.1374 112.937 77.5279C113.327 77.9184 113.327 78.5516 112.937 78.9421C112.546 79.3326 111.913 79.3326 111.522 78.9421Z" fill="#C4C4C4"/>
<path d="M107.28 74.6995C106.889 74.309 106.889 73.6758 107.28 73.2853C107.67 72.8947 108.303 72.8947 108.694 73.2853C109.084 73.6758 109.084 74.309 108.694 74.6995C108.303 75.09 107.67 75.09 107.28 74.6995Z" fill="#C4C4C4"/>
<path d="M103.037 70.4568C102.647 70.0663 102.647 69.4331 103.037 69.0426C103.428 68.6521 104.061 68.6521 104.451 69.0426C104.842 69.4331 104.842 70.0663 104.451 70.4568C104.061 70.8474 103.428 70.8474 103.037 70.4568Z" fill="#C4C4C4"/>
<path d="M60.6107 28.0304C60.2202 27.6399 60.2202 27.0067 60.6107 26.6162C61.0012 26.2257 61.6344 26.2257 62.0249 26.6162C62.4154 27.0067 62.4154 27.6399 62.0249 28.0304C61.6344 28.421 61.0012 28.421 60.6107 28.0304Z" fill="#C4C4C4"/>
<path d="M56.3678 23.788C55.9773 23.3975 55.9773 22.7644 56.3678 22.3738C56.7583 21.9833 57.3915 21.9833 57.782 22.3738C58.1725 22.7644 58.1725 23.3975 57.782 23.788C57.3915 24.1786 56.7583 24.1786 56.3678 23.788Z" fill="#C4C4C4"/>
<path d="M52.1254 28.0304C51.7349 27.6399 51.7349 27.0067 52.1254 26.6162C52.5159 26.2257 53.1491 26.2257 53.5396 26.6162C53.9302 27.0067 53.9302 27.6399 53.5396 28.0304C53.1491 28.421 52.5159 28.421 52.1254 28.0304Z" fill="#C4C4C4"/>
<path d="M47.8825 23.788C47.492 23.3975 47.492 22.7644 47.8825 22.3738C48.273 21.9833 48.9062 21.9833 49.2967 22.3738C49.6873 22.7644 49.6873 23.3975 49.2967 23.788C48.9062 24.1786 48.273 24.1786 47.8825 23.788Z" fill="#C4C4C4"/>
<path d="M43.6399 19.5454C43.2494 19.1549 43.2494 18.5217 43.6399 18.1312C44.0304 17.7407 44.6636 17.7407 45.0541 18.1312C45.4446 18.5217 45.4446 19.1549 45.0541 19.5454C44.6636 19.9359 44.0304 19.9359 43.6399 19.5454Z" fill="#C4C4C4"/>
<path d="M43.6401 28.0304C43.2496 27.6399 43.2496 27.0067 43.6401 26.6162C44.0307 26.2257 44.6638 26.2257 45.0544 26.6162C45.4449 27.0067 45.4449 27.6399 45.0544 28.0304C44.6638 28.421 44.0307 28.421 43.6401 28.0304Z" fill="#C4C4C4"/>
<path d="M69.096 28.0304C68.7055 27.6399 68.7055 27.0067 69.096 26.6162C69.4865 26.2257 70.1197 26.2257 70.5102 26.6162C70.9007 27.0067 70.9007 27.6399 70.5102 28.0304C70.1197 28.421 69.4865 28.421 69.096 28.0304Z" fill="#C4C4C4"/>
<path d="M64.8531 23.788C64.4626 23.3975 64.4626 22.7644 64.8531 22.3738C65.2436 21.9833 65.8768 21.9833 66.2673 22.3738C66.6578 22.7644 66.6578 23.3975 66.2673 23.788C65.8768 24.1786 65.2436 24.1786 64.8531 23.788Z" fill="#C4C4C4"/>
<path d="M60.6104 19.5454C60.2199 19.1549 60.2199 18.5217 60.6104 18.1312C61.001 17.7407 61.6341 17.7407 62.0247 18.1312C62.4152 18.5217 62.4152 19.1549 62.0247 19.5454C61.6341 19.9359 61.001 19.9359 60.6104 19.5454Z" fill="#C4C4C4"/>
<path d="M56.3678 15.3028C55.9773 14.9122 55.9773 14.2791 56.3678 13.8886C56.7583 13.498 57.3915 13.498 57.782 13.8886C58.1725 14.2791 58.1725 14.9122 57.782 15.3028C57.3915 15.6933 56.7583 15.6933 56.3678 15.3028Z" fill="#C4C4C4"/>
<path d="M52.1252 11.0601C51.7346 10.6696 51.7346 10.0364 52.1252 9.64591C52.5157 9.25539 53.1489 9.25539 53.5394 9.64591C53.9299 10.0364 53.9299 10.6696 53.5394 11.0601C53.1489 11.4507 52.5157 11.4507 52.1252 11.0601Z" fill="#C4C4C4"/>
<path d="M47.8825 6.81749C47.492 6.42696 47.492 5.7938 47.8825 5.40327C48.273 5.01275 48.9062 5.01275 49.2967 5.40327C49.6873 5.7938 49.6873 6.42696 49.2967 6.81749C48.9062 7.20801 48.273 7.20801 47.8825 6.81749Z" fill="#C4C4C4"/>
<path d="M43.6399 2.57485C43.2494 2.18432 43.2494 1.55116 43.6399 1.16063C44.0304 0.770109 44.6636 0.770109 45.0541 1.16063C45.4446 1.55116 45.4446 2.18432 45.0541 2.57485C44.6636 2.96537 44.0304 2.96537 43.6399 2.57485Z" fill="#C4C4C4"/>
<path d="M52.1252 19.5454C51.7346 19.1549 51.7346 18.5217 52.1252 18.1312C52.5157 17.7407 53.1489 17.7407 53.5394 18.1312C53.9299 18.5217 53.9299 19.1549 53.5394 19.5454C53.1489 19.9359 52.5157 19.9359 52.1252 19.5454Z" fill="#C4C4C4"/>
<path d="M47.8825 15.3028C47.492 14.9122 47.492 14.2791 47.8825 13.8886C48.273 13.498 48.9062 13.498 49.2967 13.8886C49.6873 14.2791 49.6873 14.9122 49.2967 15.3028C48.9062 15.6933 48.273 15.6933 47.8825 15.3028Z" fill="#C4C4C4"/>
<path d="M43.6399 11.0601C43.2494 10.6696 43.2494 10.0364 43.6399 9.64591C44.0304 9.25539 44.6636 9.25539 45.0541 9.64591C45.4446 10.0364 45.4446 10.6696 45.0541 11.0601C44.6636 11.4507 44.0304 11.4507 43.6399 11.0601Z" fill="#C4C4C4"/>
</svg>