<svg width="170" height="64" viewBox="0 0 170 64" fill="none" xmlns="http://www.w3.org/2000/svg">
<path d="M40.6721 31.2752C40.6858 30.217 40.9669 29.1793 41.4893 28.2588C42.0117 27.3384 42.7585 26.565 43.6601 26.0107C43.0873 25.1927 42.3317 24.5195 41.4532 24.0446C40.5748 23.5697 39.5977 23.3062 38.5996 23.2749C36.4704 23.0515 34.4063 24.549 33.3213 24.549C32.2153 24.549 30.5448 23.2971 28.746 23.3341C27.5824 23.3717 26.4485 23.7101 25.4545 24.3162C24.4606 24.9224 23.6407 25.7756 23.0746 26.7929C20.6224 31.0384 22.4515 37.278 24.8005 40.7098C25.9758 42.3902 27.3493 44.2674 29.1465 44.2008C30.9052 44.1278 31.5621 43.0793 33.685 43.0793C35.7881 43.0793 36.4044 44.2008 38.2381 44.1585C40.1253 44.1278 41.3143 42.4705 42.4483 40.7742C43.2927 39.5768 43.9425 38.2534 44.3735 36.8531C43.2771 36.3894 42.3415 35.6132 41.6833 34.6213C41.0251 33.6294 40.6734 32.4657 40.6721 31.2752Z" fill="white"/>
<path d="M37.2086 21.0179C38.2376 19.7827 38.7445 18.195 38.6218 16.592C37.0497 16.7572 35.5976 17.5085 34.5548 18.6963C34.0449 19.2766 33.6544 19.9517 33.4055 20.683C33.1567 21.4143 33.0545 22.1875 33.1046 22.9583C33.8909 22.9664 34.6688 22.796 35.3797 22.4599C36.0906 22.1238 36.7159 21.6307 37.2086 21.0179Z" fill="white"/>
<path d="M62.9032 39.9467H56.9016L55.4603 44.2024H52.9183L58.6029 28.4573H61.244L66.9287 44.2024H64.3433L62.9032 39.9467ZM57.5232 37.9829H62.2805L59.9353 31.0761H59.8697L57.5232 37.9829Z" fill="white"/>
<path d="M79.2056 38.4634C79.2056 42.0307 77.2962 44.3226 74.4149 44.3226C73.685 44.3608 72.9591 44.1927 72.3204 43.8375C71.6816 43.4823 71.1558 42.9544 70.8031 42.3142H70.7485V48.0001H68.3922V32.7231H70.673V34.6324H70.7164C71.0853 33.9953 71.62 33.4701 72.2637 33.1128C72.9073 32.7554 73.6358 32.5792 74.3716 32.6029C77.285 32.603 79.2056 34.906 79.2056 38.4634ZM76.7836 38.4634C76.7836 36.1393 75.5825 34.6113 73.75 34.6113C71.9496 34.6113 70.7387 36.1715 70.7387 38.4634C70.7387 40.7764 71.9496 42.3254 73.75 42.3254C75.5826 42.3254 76.7836 40.8086 76.7836 38.4634Z" fill="white"/>
<path d="M91.8403 38.4634C91.8403 42.0307 89.9309 44.3226 87.0496 44.3226C86.3197 44.3608 85.5938 44.1927 84.9551 43.8375C84.3163 43.4823 83.7905 42.9544 83.4378 42.3142H83.3832V48.0001H81.0269V32.723H83.3077V34.6324H83.351C83.7199 33.9953 84.2547 33.4701 84.8983 33.1128C85.542 32.7554 86.2704 32.5792 87.0062 32.6029C89.9198 32.6029 91.8403 34.906 91.8403 38.4634ZM89.4183 38.4634C89.4183 36.1393 88.2172 34.6113 86.3847 34.6113C84.5843 34.6113 83.3734 36.1715 83.3734 38.4634C83.3734 40.7764 84.5843 42.3254 86.3847 42.3254C88.2173 42.3254 89.4183 40.8086 89.4183 38.4634H89.4183Z" fill="white"/>
<path d="M100.191 39.8155C100.365 41.3769 101.882 42.4021 103.955 42.4021C105.941 42.4021 107.37 41.3769 107.37 39.969C107.37 38.7469 106.508 38.0151 104.468 37.5136L102.427 37.0221C99.5358 36.3237 98.1936 34.9716 98.1936 32.7775C98.1936 30.0608 100.561 28.1948 103.923 28.1948C107.25 28.1948 109.531 30.0608 109.607 32.7775H107.229C107.086 31.2062 105.788 30.2577 103.889 30.2577C101.991 30.2577 100.692 31.2173 100.692 32.614C100.692 33.7272 101.522 34.3822 103.551 34.8836L105.286 35.3096C108.517 36.0735 109.859 37.3712 109.859 39.6743C109.859 42.62 107.512 44.4649 103.78 44.4649C100.289 44.4649 97.9311 42.6633 97.7787 39.8154L100.191 39.8155Z" fill="white"/>
<path d="M114.944 30.0063V32.723H117.127V34.589H114.944V40.9175C114.944 41.9006 115.381 42.3588 116.341 42.3588C116.6 42.3542 116.859 42.3361 117.116 42.3042V44.1591C116.684 44.2397 116.246 44.2762 115.807 44.2681C113.483 44.2681 112.577 43.3951 112.577 41.1688V34.589H110.908V32.723H112.577V30.0063H114.944Z" fill="white"/>
<path d="M118.391 38.4633C118.391 34.8514 120.519 32.5818 123.836 32.5818C127.164 32.5818 129.281 34.8514 129.281 38.4633C129.281 42.0851 127.175 44.3448 123.836 44.3448C120.497 44.3448 118.391 42.0851 118.391 38.4633ZM126.881 38.4633C126.881 35.9856 125.745 34.5233 123.836 34.5233C121.926 34.5233 120.792 35.9968 120.792 38.4633C120.792 40.9509 121.926 42.4021 123.836 42.4021C125.745 42.4021 126.88 40.9509 126.88 38.4633H126.881Z" fill="white"/>
<path d="M131.224 32.7232H133.471V34.6771H133.526C133.678 34.0668 134.036 33.5275 134.538 33.1498C135.041 32.7722 135.659 32.5791 136.287 32.6031C136.559 32.6021 136.83 32.6316 137.095 32.691V34.895C136.752 34.7903 136.394 34.7422 136.036 34.7526C135.694 34.7387 135.352 34.7991 135.035 34.9295C134.719 35.06 134.434 35.2575 134.201 35.5084C133.967 35.7593 133.791 36.0577 133.684 36.3831C133.577 36.7086 133.542 37.0533 133.58 37.3937V44.2027H131.224L131.224 32.7232Z" fill="white"/>
<path d="M147.959 40.8308C147.642 42.9147 145.612 44.3448 143.016 44.3448C139.676 44.3448 137.603 42.1074 137.603 38.5178C137.603 34.9171 139.687 32.5818 142.917 32.5818C146.093 32.5818 148.09 34.7635 148.09 38.2441V39.0515H139.982V39.1938C139.945 39.6163 139.998 40.0419 140.137 40.4424C140.277 40.8428 140.5 41.209 140.792 41.5165C141.084 41.8241 141.439 42.0659 141.831 42.2261C142.224 42.3862 142.646 42.461 143.07 42.4454C143.627 42.4976 144.186 42.3686 144.663 42.0777C145.141 41.7868 145.512 41.3494 145.721 40.8308L147.959 40.8308ZM139.993 37.4046H145.732C145.753 37.0248 145.696 36.6446 145.563 36.2881C145.43 35.9315 145.225 35.6062 144.961 35.3327C144.697 35.0591 144.379 34.8431 144.027 34.6983C143.675 34.5535 143.297 34.4829 142.917 34.4911C142.533 34.4888 142.153 34.5625 141.797 34.708C141.442 34.8535 141.12 35.0679 140.848 35.3388C140.576 35.6096 140.361 35.9316 140.214 36.2862C140.067 36.6408 139.992 37.0209 139.993 37.4046V37.4046Z" fill="white"/>
<path d="M59.214 24.1709H54.4952V16.6055H55.6702V23.0906H59.214V24.1709Z" fill="white"/>
<path d="M60.4014 22.5563C60.4014 21.5286 61.1667 20.9361 62.525 20.8519L64.0715 20.7627V20.2699C64.0715 19.6669 63.6728 19.3264 62.9026 19.3264C62.2736 19.3264 61.8378 19.5573 61.7127 19.961H60.6218C60.737 18.9803 61.6595 18.3513 62.9546 18.3513C64.386 18.3513 65.1933 19.0639 65.1933 20.2699V24.1709H64.1086V23.3686H64.0195C63.8385 23.6564 63.5844 23.891 63.2832 24.0485C62.9819 24.206 62.6442 24.2807 62.3046 24.265C62.0649 24.2899 61.8226 24.2643 61.5934 24.1899C61.3643 24.1155 61.1532 23.9939 60.9739 23.8329C60.7946 23.6719 60.651 23.4751 60.5524 23.2552C60.4538 23.0354 60.4024 22.7973 60.4014 22.5563ZM64.0715 22.0684V21.5911L62.6772 21.6802C61.8909 21.7329 61.5343 22.0003 61.5343 22.5037C61.5343 23.0175 61.9801 23.3165 62.5931 23.3165C62.7727 23.3347 62.9541 23.3166 63.1265 23.2632C63.299 23.2099 63.4589 23.1224 63.5969 23.0059C63.7348 22.8895 63.8479 22.7465 63.9295 22.5854C64.011 22.4243 64.0593 22.2485 64.0715 22.0684Z" fill="white"/>
<path d="M66.6743 21.3137C66.6743 19.5096 67.6017 18.3667 69.0442 18.3667C69.401 18.3503 69.7551 18.4358 70.0652 18.6131C70.3752 18.7905 70.6284 19.0525 70.795 19.3684H70.8792V16.2327H72.006V24.1708H70.9263V23.2688H70.8371C70.6576 23.5826 70.3956 23.8413 70.0796 24.0169C69.7635 24.1925 69.4055 24.2783 69.0442 24.2649C67.5917 24.265 66.6743 23.1221 66.6743 21.3137ZM67.8382 21.3137C67.8382 22.5247 68.409 23.2534 69.3637 23.2534C70.3134 23.2534 70.9003 22.5142 70.9003 21.3187C70.9003 20.1287 70.3072 19.379 69.3637 19.379C68.4152 19.379 67.8382 20.1126 67.8382 21.3137H67.8382Z" fill="white"/>
<path d="M78.6824 22.6294C78.5294 23.1512 78.1977 23.6026 77.7454 23.9046C77.2932 24.2065 76.7491 24.3398 76.2085 24.2812C75.8324 24.2911 75.4585 24.2191 75.113 24.0701C74.7675 23.9211 74.4586 23.6986 74.2076 23.4182C73.9567 23.1379 73.7698 22.8062 73.6599 22.4464C73.5499 22.0865 73.5197 21.707 73.5711 21.3343C73.521 20.9604 73.5518 20.5801 73.6615 20.2191C73.7712 19.8582 73.9571 19.525 74.2067 19.2422C74.4563 18.9593 74.7638 18.7334 75.1083 18.5798C75.4528 18.4261 75.8263 18.3482 76.2035 18.3514C77.7922 18.3514 78.7505 19.4368 78.7505 21.2296V21.6228H74.7189V21.6859C74.7013 21.8955 74.7276 22.1063 74.7962 22.3051C74.8649 22.5038 74.9743 22.6861 75.1174 22.8401C75.2606 22.9941 75.4343 23.1164 75.6276 23.1994C75.8208 23.2823 76.0292 23.3239 76.2395 23.3216C76.509 23.3539 76.782 23.3054 77.0239 23.1821C77.2658 23.0589 77.4655 22.8665 77.5978 22.6294L78.6824 22.6294ZM74.7189 20.7895H77.6027C77.6169 20.5978 77.5909 20.4054 77.5262 20.2244C77.4616 20.0435 77.3599 19.878 77.2275 19.7387C77.0952 19.5994 76.9352 19.4894 76.7577 19.4156C76.5803 19.3418 76.3894 19.306 76.1973 19.3104C76.0024 19.308 75.809 19.3446 75.6285 19.418C75.448 19.4915 75.284 19.6004 75.1463 19.7382C75.0085 19.876 74.8997 20.0401 74.8263 20.2206C74.7529 20.4012 74.7164 20.5946 74.7189 20.7895H74.7189Z" fill="white"/>
<path d="M80.2637 18.4615H81.3483V19.3685H81.4325C81.5753 19.0428 81.8162 18.7697 82.1216 18.5874C82.4271 18.405 82.7817 18.3225 83.1363 18.3513C83.4141 18.3304 83.693 18.3723 83.9524 18.4739C84.2118 18.5754 84.4451 18.7341 84.6349 18.938C84.8247 19.1419 84.9661 19.386 85.0488 19.652C85.1315 19.918 85.1532 20.1993 85.1125 20.4749V24.1709H83.9857V20.7578C83.9857 19.8403 83.587 19.384 82.7537 19.384C82.565 19.3752 82.3768 19.4073 82.2017 19.4781C82.0267 19.5489 81.869 19.6567 81.7395 19.7941C81.61 19.9315 81.5118 20.0953 81.4515 20.2743C81.3913 20.4532 81.3704 20.6431 81.3904 20.8309V24.1709H80.2636L80.2637 18.4615Z" fill="white"/>
<path d="M89.8053 16.7734C89.7966 16.6274 89.8319 16.4822 89.9067 16.3566C89.9815 16.231 90.0923 16.1307 90.2247 16.0688C90.3571 16.0068 90.5051 15.9861 90.6495 16.0092C90.7938 16.0323 90.9279 16.0983 91.0344 16.1985C91.1408 16.2987 91.2147 16.4285 91.2465 16.5712C91.2783 16.7139 91.2665 16.8629 91.2126 16.9988C91.1588 17.1347 91.0654 17.2514 90.9445 17.3336C90.8236 17.4158 90.6808 17.4598 90.5346 17.4599C90.4412 17.4647 90.3477 17.4505 90.2599 17.4183C90.1721 17.386 90.0917 17.3363 90.0236 17.2722C89.9554 17.208 89.901 17.1308 89.8635 17.0451C89.826 16.9593 89.8062 16.8669 89.8053 16.7734ZM89.9737 18.4617H91.0955V24.1711H89.9737V18.4617Z" fill="white"/>
<path d="M92.9139 18.4616H93.9986V19.3791H94.0828C94.2185 19.0732 94.4401 18.8133 94.7207 18.6309C95.0012 18.4484 95.3287 18.3513 95.6633 18.3513C95.998 18.3513 96.3255 18.4484 96.606 18.6309C96.8866 18.8133 97.1082 19.0732 97.2439 19.3791H97.3331C97.4924 19.0586 97.7411 18.791 98.0492 18.6087C98.3572 18.4263 98.7114 18.3369 99.069 18.3514C99.3192 18.3309 99.5709 18.3662 99.8058 18.4547C100.041 18.5432 100.253 18.6827 100.428 18.8633C100.602 19.0438 100.734 19.2607 100.815 19.4985C100.895 19.7363 100.922 19.989 100.893 20.2384V24.171H99.7662V20.5325C99.7662 19.7617 99.3985 19.3841 98.6593 19.3841C98.5 19.3772 98.3411 19.4034 98.1924 19.4609C98.0438 19.5185 97.9086 19.6061 97.7955 19.7184C97.6823 19.8307 97.5936 19.9651 97.535 20.1133C97.4763 20.2615 97.4489 20.4203 97.4545 20.5796V24.171H96.3476V20.4223C96.3547 20.2786 96.3305 20.1352 96.2768 20.0017C96.2231 19.8683 96.1411 19.7481 96.0365 19.6494C95.9319 19.5507 95.8071 19.4759 95.6708 19.4301C95.5344 19.3843 95.3898 19.3686 95.2468 19.384C95.0816 19.3868 94.9186 19.4228 94.7677 19.49C94.6167 19.5572 94.4808 19.6541 94.3682 19.775C94.2556 19.896 94.1686 20.0384 94.1123 20.1937C94.0561 20.3491 94.0317 20.5142 94.0408 20.6792V24.171H92.914L92.9139 18.4616Z" fill="white"/>
</svg>
