<svg width="128" height="32" viewBox="0 0 128 32" fill="none" xmlns="http://www.w3.org/2000/svg">
<path d="M19.6721 15.2752C19.6858 14.2169 19.9669 13.1792 20.4893 12.2588C21.0117 11.3383 21.7585 10.5649 22.6601 10.0106C22.0873 9.19261 21.3317 8.51942 20.4532 8.04451C19.5748 7.5696 18.5977 7.30607 17.5996 7.27484C15.4704 7.05136 13.4063 8.5489 12.3213 8.5489C11.2153 8.5489 9.54482 7.29703 7.74597 7.33404C6.58242 7.37164 5.44845 7.70999 4.45455 8.31613C3.46065 8.92228 2.6407 9.77554 2.07461 10.7928C-0.377564 15.0384 1.45154 21.2779 3.80052 24.7097C4.97577 26.3902 6.34929 28.2673 8.14652 28.2007C9.90522 28.1278 10.5621 27.0792 12.685 27.0792C14.7881 27.0792 15.4044 28.2007 17.2381 28.1584C19.1253 28.1277 20.3143 26.4705 21.4483 24.7741C22.2927 23.5767 22.9425 22.2533 23.3735 20.853C22.2771 20.3893 21.3415 19.6131 20.6833 18.6212C20.0251 17.6293 19.6734 16.4656 19.6721 15.2752Z" fill="white"/>
<path d="M16.2086 5.01794C17.2375 3.78271 17.7445 2.19503 17.6217 0.592072C16.0497 0.757182 14.5976 1.50851 13.5547 2.69634C13.0448 3.27663 12.6543 3.95172 12.4055 4.68303C12.1567 5.41433 12.0544 6.18751 12.1046 6.95835C12.8909 6.96645 13.6687 6.79602 14.3796 6.45991C15.0905 6.1238 15.7159 5.63076 16.2086 5.01794Z" fill="white"/>
<path d="M41.9033 23.9468H35.9017L34.4604 28.2026H31.9183L37.603 12.4574H40.2441L45.9287 28.2026H43.3433L41.9033 23.9468ZM36.5232 21.983H41.2805L38.9353 15.0762H38.8697L36.5232 21.983Z" fill="white"/>
<path d="M58.2056 22.4634C58.2056 26.0307 56.2962 28.3226 53.4149 28.3226C52.685 28.3608 51.9591 28.1926 51.3204 27.8374C50.6816 27.4822 50.1558 26.9543 49.8031 26.3142H49.7485V32.0001H47.3922V16.723H49.673V18.6323H49.7164C50.0853 17.9952 50.62 17.4701 51.2637 17.1127C51.9073 16.7553 52.6358 16.5792 53.3716 16.6029C56.285 16.6029 58.2056 18.906 58.2056 22.4634ZM55.7836 22.4634C55.7836 20.1392 54.5825 18.6113 52.75 18.6113C50.9496 18.6113 49.7387 20.1714 49.7387 22.4634C49.7387 24.7763 50.9496 26.3254 52.75 26.3254C54.5826 26.3254 55.7836 24.8085 55.7836 22.4634Z" fill="white"/>
<path d="M70.8403 22.4634C70.8403 26.0306 68.931 28.3226 66.0497 28.3226C65.3198 28.3608 64.5939 28.1926 63.9551 27.8374C63.3164 27.4822 62.7905 26.9543 62.4378 26.3142H62.3833V32.0001H60.027V16.723H62.3078V18.6323H62.3511C62.72 17.9952 63.2547 17.4701 63.8984 17.1127C64.542 16.7553 65.2705 16.5792 66.0063 16.6029C68.9199 16.6029 70.8403 18.906 70.8403 22.4634ZM68.4184 22.4634C68.4184 20.1392 67.2173 18.6113 65.3848 18.6113C63.5844 18.6113 62.3734 20.1714 62.3734 22.4634C62.3734 24.7763 63.5844 26.3253 65.3848 26.3253C67.2173 26.3253 68.4184 24.8085 68.4184 22.4634H68.4184Z" fill="white"/>
<path d="M79.1909 23.8156C79.3655 25.377 80.8823 26.4022 82.9551 26.4022C84.9412 26.4022 86.3701 25.3769 86.3701 23.9691C86.3701 22.7469 85.5082 22.0152 83.4677 21.5137L81.4271 21.0221C78.5359 20.3238 77.1936 18.9716 77.1936 16.7775C77.1936 14.0609 79.5611 12.1949 82.9229 12.1949C86.2499 12.1949 88.5307 14.0609 88.6075 16.7775H86.2289C86.0865 15.2062 84.7876 14.2578 82.8894 14.2578C80.9912 14.2578 79.6923 15.2174 79.6923 16.6141C79.6923 17.7272 80.5219 18.3822 82.5514 18.8837L84.2861 19.3096C87.5166 20.0736 88.8588 21.3713 88.8588 23.6743C88.8588 26.62 86.5124 28.465 82.7804 28.465C79.2887 28.465 76.9311 26.6634 76.7788 23.8155L79.1909 23.8156Z" fill="white"/>
<path d="M93.9442 14.0064V16.723H96.1271V18.589H93.9442V24.9175C93.9442 25.9007 94.3813 26.3588 95.3409 26.3588C95.6 26.3543 95.8588 26.3361 96.116 26.3043V28.1591C95.6845 28.2397 95.246 28.2762 94.8072 28.2681C92.4831 28.2681 91.5767 27.3951 91.5767 25.1688V18.589H89.9076V16.723H91.5767V14.0064H93.9442Z" fill="white"/>
<path d="M97.3914 22.4634C97.3914 18.8515 99.5187 16.5819 102.836 16.5819C106.164 16.5819 108.282 18.8515 108.282 22.4634C108.282 26.0852 106.175 28.3449 102.836 28.3449C99.4976 28.3449 97.3914 26.0852 97.3914 22.4634ZM105.881 22.4634C105.881 19.9857 104.745 18.5234 102.836 18.5234C100.927 18.5234 99.7923 19.9969 99.7923 22.4634C99.7923 24.951 100.927 26.4022 102.836 26.4022C104.745 26.4022 105.881 24.951 105.881 22.4634H105.881Z" fill="white"/>
<path d="M110.224 16.7232H112.472V18.6771H112.526C112.678 18.0668 113.036 17.5275 113.538 17.1498C114.041 16.7722 114.659 16.5791 115.287 16.6031C115.559 16.6021 115.83 16.6316 116.095 16.691V18.895C115.752 18.7903 115.394 18.7422 115.036 18.7526C114.694 18.7387 114.352 18.7991 114.036 18.9295C113.719 19.06 113.434 19.2575 113.201 19.5084C112.967 19.7593 112.791 20.0577 112.684 20.3831C112.577 20.7086 112.542 21.0533 112.581 21.3937V28.2027H110.224L110.224 16.7232Z" fill="white"/>
<path d="M126.959 24.8309C126.642 26.9148 124.612 28.3449 122.016 28.3449C118.676 28.3449 116.604 26.1074 116.604 22.5179C116.604 18.9172 118.687 16.5819 121.917 16.5819C125.093 16.5819 127.09 18.7636 127.09 22.2442V23.0515H118.982V23.1939C118.945 23.6164 118.998 24.042 119.137 24.4425C119.277 24.8429 119.5 25.2091 119.792 25.5166C120.084 25.8242 120.439 26.066 120.831 26.2262C121.224 26.3863 121.646 26.4611 122.07 26.4455C122.627 26.4977 123.186 26.3687 123.664 26.0778C124.141 25.7869 124.512 25.3495 124.721 24.8308L126.959 24.8309ZM118.993 21.4047H124.732C124.754 21.0249 124.696 20.6447 124.563 20.2882C124.431 19.9316 124.226 19.6063 123.961 19.3328C123.697 19.0592 123.379 18.8432 123.027 18.6984C122.675 18.5536 122.297 18.483 121.917 18.4912C121.533 18.4889 121.153 18.5626 120.798 18.7081C120.442 18.8536 120.12 19.068 119.848 19.3388C119.576 19.6097 119.361 19.9317 119.214 20.2863C119.067 20.6409 118.992 21.021 118.993 21.4047V21.4047Z" fill="white"/>
<path d="M38.2139 8.17093H33.4951V0.605499H34.6702V7.09059H38.2139V8.17093Z" fill="white"/>
<path d="M39.4014 6.55635C39.4014 5.52862 40.1666 4.93615 41.5249 4.85194L43.0714 4.76279V4.26999C43.0714 3.66697 42.6727 3.32647 41.9026 3.32647C41.2736 3.32647 40.8377 3.5574 40.7126 3.96106H39.6218C39.7369 2.98039 40.6594 2.35138 41.9546 2.35138C43.3859 2.35138 44.1933 3.06396 44.1933 4.26999V8.17098H43.1086V7.36862H43.0194C42.8385 7.65643 42.5844 7.89106 42.2831 8.04855C41.9818 8.20604 41.6441 8.28075 41.3045 8.26505C41.0648 8.28998 40.8226 8.26441 40.5934 8.18998C40.3642 8.11556 40.1531 7.99393 39.9738 7.83294C39.7945 7.67195 39.6509 7.47517 39.5523 7.2553C39.4537 7.03542 39.4023 6.79732 39.4014 6.55635ZM43.0714 6.06848V5.59116L41.6772 5.68031C40.8909 5.73293 40.5343 6.00038 40.5343 6.50371C40.5343 7.01757 40.98 7.3166 41.593 7.3166C41.7726 7.33478 41.954 7.31666 42.1265 7.26329C42.2989 7.20993 42.4589 7.12242 42.5968 7.00597C42.7348 6.88952 42.8479 6.74651 42.9294 6.58546C43.0109 6.4244 43.0592 6.24859 43.0714 6.06848Z" fill="white"/>
<path d="M45.6742 5.31382C45.6742 3.50974 46.6016 2.36687 48.0441 2.36687C48.401 2.35043 48.7551 2.43589 49.0651 2.61327C49.3752 2.79064 49.6283 3.0526 49.795 3.36853H49.8792V0.232788H51.0059V8.17097H49.9262V7.26893H49.8371C49.6575 7.58273 49.3955 7.84143 49.0795 8.01702C48.7635 8.1926 48.4054 8.27838 48.0441 8.26507C46.5917 8.26513 45.6742 7.12223 45.6742 5.31382ZM46.8382 5.31382C46.8382 6.52479 47.409 7.25348 48.3636 7.25348C49.3133 7.25348 49.9003 6.51428 49.9003 5.31877C49.9003 4.12885 49.3072 3.37911 48.3636 3.37911C47.4151 3.37911 46.8381 4.11274 46.8381 5.31382H46.8382Z" fill="white"/>
<path d="M57.6824 6.6295C57.5294 7.1513 57.1977 7.60266 56.7454 7.90462C56.2932 8.20658 55.7491 8.3399 55.2085 8.28127C54.8324 8.2912 54.4585 8.21916 54.113 8.07014C53.7675 7.92112 53.4586 7.69869 53.2076 7.41831C52.9567 7.13792 52.7698 6.80628 52.6599 6.44641C52.5499 6.08654 52.5197 5.70707 52.5711 5.33432C52.521 4.96043 52.5518 4.58014 52.6615 4.21919C52.7712 3.85825 52.9571 3.52508 53.2067 3.24224C53.4563 2.9594 53.7638 2.7335 54.1083 2.57981C54.4528 2.42613 54.8263 2.34826 55.2035 2.35148C56.7922 2.35148 57.7505 3.43682 57.7505 5.22968V5.62285H53.7189V5.68599C53.7013 5.89551 53.7276 6.10641 53.7962 6.30516C53.8649 6.5039 53.9743 6.68612 54.1174 6.84012C54.2606 6.99411 54.4343 7.11649 54.6276 7.19941C54.8208 7.28233 55.0292 7.32396 55.2395 7.32162C55.509 7.35398 55.782 7.30545 56.0239 7.1822C56.2658 7.05894 56.4655 6.86654 56.5978 6.62946L57.6824 6.6295ZM53.7189 4.78952H56.6027C56.6169 4.5979 56.5909 4.40542 56.5262 4.22447C56.4616 4.04351 56.3599 3.87807 56.2275 3.73878C56.0952 3.59949 55.9352 3.48943 55.7577 3.41566C55.5803 3.3419 55.3894 3.30607 55.1973 3.31047C55.0024 3.30803 54.809 3.34461 54.6285 3.41808C54.448 3.49155 54.284 3.60042 54.1463 3.73826C54.0085 3.8761 53.8997 4.04013 53.8263 4.22068C53.7529 4.40122 53.7164 4.59464 53.7189 4.78952H53.7189Z" fill="white"/>
<path d="M59.2636 2.46162H60.3483V3.36861H60.4324C60.5753 3.04285 60.8162 2.76978 61.1216 2.58744C61.427 2.40511 61.7817 2.3226 62.1362 2.35141C62.414 2.33053 62.693 2.37242 62.9524 2.47397C63.2118 2.57553 63.445 2.73415 63.6348 2.93809C63.8246 3.14203 63.9661 3.38606 64.0487 3.65209C64.1314 3.91813 64.1532 4.19936 64.1124 4.47495V8.17096H62.9856V4.7579C62.9856 3.84038 62.5869 3.38409 61.7536 3.38409C61.565 3.37531 61.3767 3.40741 61.2017 3.4782C61.0266 3.54899 60.8689 3.65679 60.7395 3.79422C60.61 3.93164 60.5117 4.09544 60.4515 4.27438C60.3912 4.45333 60.3703 4.64318 60.3903 4.83094V8.17103H59.2635L59.2636 2.46162Z" fill="white"/>
<path d="M68.8052 0.773363C68.7966 0.627424 68.8319 0.482238 68.9067 0.356611C68.9814 0.230984 69.0922 0.130704 69.2246 0.068761C69.3571 0.00681801 69.505 -0.0139352 69.6494 0.00919136C69.7938 0.0323179 69.9278 0.0982582 70.0343 0.19847C70.1407 0.298682 70.2146 0.428548 70.2464 0.571247C70.2782 0.713947 70.2664 0.862905 70.2126 0.998825C70.1587 1.13475 70.0653 1.25137 69.9444 1.33358C69.8235 1.4158 69.6808 1.45982 69.5346 1.45995C69.4411 1.46471 69.3477 1.45053 69.2598 1.41826C69.172 1.38599 69.0916 1.33629 69.0235 1.27216C68.9554 1.20802 68.9009 1.13078 68.8634 1.04506C68.8259 0.95934 68.8061 0.866924 68.8052 0.773363ZM68.9736 2.46166H70.0955V8.17107H68.9736V2.46166Z" fill="white"/>
<path d="M71.9138 2.46167H72.9985V3.37918H73.0827C73.2185 3.0733 73.4401 2.81339 73.7206 2.63097C74.0012 2.44854 74.3286 2.35144 74.6633 2.35144C74.9979 2.35144 75.3254 2.44854 75.6059 2.63097C75.8865 2.81339 76.1081 3.0733 76.2439 3.37918H76.333C76.4924 3.05867 76.7411 2.7911 77.0491 2.60875C77.3571 2.42639 77.7113 2.33704 78.069 2.35146C78.3192 2.33097 78.5708 2.36625 78.8057 2.45477C79.0407 2.54329 79.253 2.68284 79.4275 2.86335C79.602 3.04386 79.7342 3.26084 79.8147 3.49864C79.8952 3.73643 79.9219 3.98913 79.8929 4.23849V8.17106H78.7661V4.53259C78.7661 3.7618 78.3984 3.38415 77.6592 3.38415C77.4999 3.37731 77.341 3.40349 77.1924 3.46102C77.0437 3.51856 76.9086 3.60622 76.7954 3.71849C76.6823 3.83076 76.5936 3.96522 76.5349 4.11342C76.4762 4.26161 76.4488 4.42035 76.4544 4.57964V8.17108H75.3475V4.42238C75.3546 4.27873 75.3305 4.13525 75.2768 4.00182C75.2231 3.86839 75.1411 3.7482 75.0365 3.64951C74.9318 3.55082 74.807 3.476 74.6707 3.43018C74.5344 3.38437 74.3897 3.36866 74.2467 3.38414C74.0815 3.38685 73.9186 3.42288 73.7676 3.49006C73.6166 3.55725 73.4808 3.65421 73.3682 3.77514C73.2556 3.89606 73.1685 4.03847 73.1123 4.19383C73.056 4.34919 73.0317 4.51431 73.0407 4.6793V8.17107H71.914L71.9138 2.46167Z" fill="white"/>
</svg>
