<svg width="1065" height="390" viewBox="0 0 1065 390" fill="none" xmlns="http://www.w3.org/2000/svg">
<g clip-path="url(#clip0_1990_22364)">
<g filter="url(#filter0_d_1990_22364)">
<path d="M20 48.1633C20 43.1026 23.8486 39 28.5961 39H360.404C365.151 39 369 43.1026 369 48.1633V259.837C369 264.897 365.151 269 360.404 269H24C21.7909 269 20 267.209 20 265L20 48.1633Z" fill="white"/>
<path d="M20.5 48.1633C20.5 43.3481 24.1543 39.5 28.5961 39.5H360.404C364.846 39.5 368.5 43.3481 368.5 48.1633V259.837C368.5 264.652 364.846 268.5 360.404 268.5H24C22.067 268.5 20.5 266.933 20.5 265V48.1633Z" stroke="#CCCCCC"/>
</g>
<path d="M75.7175 115.933L82.9507 125.617L78.8174 124.234L75.7175 127.001L72.6176 124.234L68.4844 125.617L75.7175 115.933Z" fill="white"/>
<path d="M107.405 124.925L114.639 134.61L110.505 133.226L107.405 135.993L104.306 133.226L100.172 134.61L107.405 124.925Z" fill="white"/>
<path fill-rule="evenodd" clip-rule="evenodd" d="M24 39C21.7909 39 20 40.7909 20 43V59H369V48.9442C369 43.4522 365.151 39 360.404 39H24Z" fill="#AA5252"/>
<path d="M27.5163 47.2474L31.629 49.1995C31.9641 49.3544 32.5277 49.3544 32.8781 49.1995L36.9908 47.2474C37.3411 47.0925 37.3411 46.8291 36.9908 46.6587L32.8781 44.7067C32.543 44.5363 31.9794 44.5363 31.629 44.7067L27.5163 46.6587C27.166 46.8136 27.166 47.077 27.5163 47.2474Z" fill="white"/>
<path opacity="0.5" d="M31.6424 53.9427L27.5171 52.0964C27.1657 51.9352 27.1657 51.6861 27.5171 51.5395L28.9533 50.8948L31.6271 52.0964C31.9785 52.2576 32.5438 52.2576 32.88 52.0964L35.5538 50.8948L36.99 51.5395C37.3414 51.7007 37.3414 51.9498 36.99 52.0964L32.8647 53.9427C32.5438 54.0893 31.9785 54.0893 31.6424 53.9427Z" fill="white"/>
<path opacity="0.8" d="M31.6424 51.5551L27.5171 49.7087C27.1657 49.5475 27.1657 49.2984 27.5171 49.1518L28.9533 48.5071L31.6271 49.7087C31.9785 49.8699 32.5438 49.8699 32.88 49.7087L35.5538 48.5071L36.99 49.1518C37.3414 49.313 37.3414 49.5621 36.99 49.7087L32.8647 51.5551C32.5438 51.7016 31.9785 51.7016 31.6424 51.5551Z" fill="white"/>
<path d="M47.6871 249.527C43.433 249.527 39.9844 246.078 39.9844 241.824L39.9844 180.203C39.9844 175.949 43.433 172.5 47.6871 172.5H89.2817C93.5358 172.5 96.9844 175.949 96.9844 180.203V241.824C96.9844 246.078 93.5358 249.527 89.2817 249.527H47.6871Z" fill="#F9F9F9"/>
<path d="M47.7027 152.5C43.7248 152.5 40.5 149.275 40.5 145.297L40.5 83.6757C40.5 79.6977 43.7248 76.473 47.7027 76.473H89.2973C93.2752 76.473 96.5 79.6977 96.5 83.6757V145.297C96.5 149.275 93.2752 152.5 89.2973 152.5H47.7027Z" fill="#FDECEC" stroke="#AA5252"/>
<g clip-path="url(#clip1_1990_22364)">
<rect x="115" y="79" width="211" height="176" rx="5" fill="white"/>
<path d="M246.668 145.128L234.707 129.26L223.499 145.155L229.432 143.171L229.707 143.079L229.923 143.272L235.124 147.91L240.325 143.272L240.542 143.079L240.817 143.171L246.668 145.128Z" fill="white" stroke="#CCCCCC"/>
<path d="M303 109.5C303 114.747 298.747 119 293.5 119C288.254 119 284 114.747 284 109.5C284 104.253 288.254 100 293.5 100C298.747 100 303 104.253 303 109.5Z" fill="white"/>
<path opacity="0.4" d="M118 82.0367C118 81.4844 118.448 81.0367 119 81.0367H207C207.552 81.0367 208 81.4844 208 82.0367C208 82.589 207.552 83.0367 207 83.0367H119C118.448 83.0367 118 82.589 118 82.0367Z" fill="#AA5252"/>
<path opacity="0.4" d="M118 90.0367C118 89.4844 118.448 89.0367 119 89.0367H198C198.552 89.0367 199 89.4844 199 90.0367C199 90.589 198.552 91.0367 198 91.0367H119C118.448 91.0367 118 90.589 118 90.0367Z" fill="#AA5252"/>
<path opacity="0.4" d="M118 98.0367C118 97.4844 118.448 97.0367 119 97.0367H207C207.552 97.0367 208 97.4844 208 98.0367C208 98.589 207.552 99.0367 207 99.0367H119C118.448 99.0367 118 98.589 118 98.0367Z" fill="#CCCCCC"/>
<path opacity="0.4" d="M118 115C118 114.448 118.448 114 119 114H207C207.552 114 208 114.448 208 115C208 115.552 207.552 116 207 116H119C118.448 116 118 115.552 118 115Z" fill="#AA5252"/>
<path opacity="0.4" d="M114 126.5C114 126.224 114 126 114 126H203C203.552 126 204 126.224 204 126.5C204 126.776 203.552 127 203 127H114C114 127 114 126.776 114 126.5Z" fill="#AAAAAA"/>
<path opacity="0.4" d="M118 181C118 180.448 118.448 180 119 180H207C207.552 180 208 180.448 208 181C208 181.552 207.552 182 207 182H119C118.448 182 118 181.552 118 181Z" fill="#AA5252"/>
<path opacity="0.4" d="M114 192.5C114 192.224 114 192 114 192H203C203.552 192 204 192.224 204 192.5C204 192.776 203.552 193 203 193H114C114 193 114 192.776 114 192.5Z" fill="#AAAAAA"/>
<path opacity="0.4" d="M118 138C118 137.448 118.448 137 119 137H198C198.552 137 199 137.448 199 138C199 138.552 198.552 139 198 139H119C118.448 139 118 138.552 118 138Z" fill="#CCCCCC"/>
<path opacity="0.4" d="M118 150C118 149.448 118.448 149 119 149H207C207.552 149 208 149.448 208 150C208 150.552 207.552 151 207 151H119C118.448 151 118 150.552 118 150Z" fill="#CCCCCC"/>
<path opacity="0.4" d="M118 162C118 161.448 118.448 161 119 161H194C194.552 161 195 161.448 195 162C195 162.552 194.552 163 194 163H119C118.448 163 118 162.552 118 162Z" fill="#CCCCCC"/>
<path opacity="0.4" d="M118 204C118 203.448 118.448 203 119 203H207C207.552 203 208 203.448 208 204C208 204.552 207.552 205 207 205H119C118.448 205 118 204.552 118 204Z" fill="#CCCCCC"/>
<path opacity="0.4" d="M118 216C118 215.448 118.448 215 119 215H198C198.552 215 199 215.448 199 216C199 216.552 198.552 217 198 217H119C118.448 217 118 216.552 118 216Z" fill="#CCCCCC"/>
<path opacity="0.4" d="M118 228C118 227.448 118.448 227 119 227H207C207.552 227 208 227.448 208 228C208 228.552 207.552 229 207 229H119C118.448 229 118 228.552 118 228Z" fill="#CCCCCC"/>
<path opacity="0.4" d="M118 240C118 239.448 118.448 239 119 239H194C194.552 239 195 239.448 195 240C195 240.552 194.552 241 194 241H119C118.448 241 118 240.552 118 240Z" fill="#CCCCCC"/>
</g>
<g filter="url(#filter1_d_1990_22364)">
<path d="M149 32.2829C149 27.1561 152.904 23 157.72 23H494.281C499.097 23 503 27.1561 503 32.2829V273.717C503 278.844 499.097 283 494.281 283H153C150.791 283 149 281.209 149 279V32.2829Z" fill="white"/>
<path d="M149.5 32.2829C149.5 27.4023 153.209 23.5 157.72 23.5H494.281C498.791 23.5 502.5 27.4023 502.5 32.2829V273.717C502.5 278.598 498.791 282.5 494.281 282.5H153C151.067 282.5 149.5 280.933 149.5 279V32.2829Z" stroke="#CCCCCC"/>
</g>
<path opacity="0.6" d="M373.25 213.5L341.977 213.5C342.113 213.421 342.255 213.336 342.404 213.246C343.755 212.433 345.629 211.193 347.735 209.481C351.945 206.057 357.089 200.737 360.811 193.156C362.652 189.406 364.484 185.776 366.452 182.608C368.422 179.438 370.512 176.76 372.857 174.897C375.193 173.041 377.776 171.997 380.758 172.073C383.752 172.149 387.207 173.356 391.273 176.116C395.432 178.938 398.778 180.029 401.737 179.674C404.7 179.319 407.151 177.528 409.551 174.881C411.558 172.667 413.579 169.797 415.859 166.557C416.301 165.93 416.752 165.289 417.214 164.637C420.077 160.597 423.407 156.071 427.662 151.467C429.76 149.198 431.77 147.86 433.702 147.163C435.632 146.467 437.515 146.399 439.378 146.719C441.249 147.039 443.098 147.75 444.953 148.613C446.016 149.108 447.044 149.634 448.077 150.162C448.876 150.571 449.677 150.981 450.499 151.378C454.173 153.156 457.963 154.535 461.851 153.17C465.414 151.92 468.92 148.416 472.5 141.213V213.5H406.5H373.25Z" fill="#D6F1C2" stroke="#AAAAAA"/>
<path d="M340.5 142C340.5 141.812 340.725 141.5 341.221 141.5H410.78C411.276 141.5 411.5 141.812 411.5 142C411.5 142.188 411.276 142.5 410.78 142.5H341.221C340.725 142.5 340.5 142.188 340.5 142ZM340.5 148C340.5 147.812 340.725 147.5 341.221 147.5H380.272C380.767 147.5 380.992 147.812 380.992 148C380.992 148.188 380.767 148.5 380.272 148.5H341.221C340.725 148.5 340.5 148.188 340.5 148Z" fill="#D9D9D9" stroke="#AAAAAA"/>
<path d="M180.5 182C180.5 181.801 180.724 181.5 181.187 181.5H248.814C249.277 181.5 249.5 181.801 249.5 182C249.5 182.199 249.277 182.5 248.814 182.5H181.187C180.724 182.5 180.5 182.199 180.5 182ZM180.5 188C180.5 187.801 180.724 187.5 181.187 187.5H219.153C219.616 187.5 219.839 187.801 219.839 188C219.839 188.199 219.616 188.5 219.153 188.5H181.187C180.724 188.5 180.5 188.199 180.5 188Z" fill="#D9D9D9" stroke="#AAAAAA"/>
<path fill-rule="evenodd" clip-rule="evenodd" d="M308 208.058C308 206.469 309.169 205 310.5 205C311.832 205 313 206.469 313 208.058V250.121C313 251.711 311.832 253 310.5 253C309.169 253 308 251.711 308 250.121V208.058ZM280.411 225.474C279.08 225.474 278 226.597 278 228.187L278 250.121C278 251.711 279.08 253 280.411 253C281.743 253 283 251.711 283 250.121L283 228.187C283 226.597 281.743 225.474 280.411 225.474ZM290.59 230.741C289.258 230.741 288 232.03 288 233.62V250.121C288 251.711 289.258 253 290.59 253C291.921 253 293 251.711 293 250.121V233.62C293 232.03 291.921 230.741 290.59 230.741ZM300.5 218.342C299.317 218.342 298 219.488 298 220.901V250.441C298 251.854 299.317 253 300.5 253C301.684 253 303 251.854 303 250.441V220.901C303 219.488 301.684 218.342 300.5 218.342ZM220 213.892C220 212.295 221.169 211 222.5 211C223.832 211 225 212.295 225 213.892V250.108C225 251.705 223.832 253 222.5 253C221.169 253 220 251.705 220 250.108V213.892ZM210 225.341C210 223.744 211.169 222.268 212.5 222.268C213.832 222.268 215 223.744 215 225.341V250.108C215 251.705 213.832 253 212.5 253C211.169 253 210 251.705 210 250.108V225.341ZM182.411 225.341C181.08 225.341 180 226.47 180 228.067L180 250.108C180 251.705 181.08 253 182.411 253C183.743 253 185 251.705 185 250.108L185 228.067C185 226.47 183.743 225.341 182.411 225.341ZM192.59 237.634C191.258 237.634 190 238.929 190 240.527V250.108C190 251.705 191.258 253 192.59 253C193.921 253 195 251.705 195 250.108V240.527C195 238.929 193.921 237.634 192.59 237.634ZM202.5 235.675C201.317 235.675 200 236.826 200 238.246V250.429C200 251.849 201.317 253 202.5 253C203.684 253 205 251.849 205 250.429V238.246C205 236.826 203.684 235.675 202.5 235.675ZM259 225.1C259 223.489 260.169 222 261.5 222C262.832 222 264 223.489 264 225.1V250.082C264 251.694 262.832 253 261.5 253C260.169 253 259 251.694 259 250.082V225.1ZM231.411 225.1C230.08 225.1 229 226.238 229 227.85L229 250.082C229 251.694 230.08 253 231.411 253C232.743 253 234 251.694 234 250.082L234 227.85C234 226.238 232.743 225.1 231.411 225.1ZM241.59 237.5C240.258 237.5 239 238.806 239 240.418V250.082C239 251.694 240.258 253 241.59 253C242.921 253 244 251.694 244 250.082V240.418C244 238.806 242.921 237.5 241.59 237.5ZM251.5 235.524C250.317 235.524 249 236.685 249 238.117V250.406C249 251.839 250.317 253 251.5 253C252.684 253 254 251.839 254 250.406V238.117C254 236.685 252.684 235.524 251.5 235.524ZM269 237.382C269 235.771 270.169 234.465 271.5 234.465C272.832 234.465 274 235.771 274 237.382V250.082C274 251.694 272.832 253 271.5 253C270.169 253 269 251.694 269 250.082V237.382Z" fill="#CCEEDA"/>
<path fill-rule="evenodd" clip-rule="evenodd" d="M153 23C150.791 23 149 24.7909 149 27V43H503V32.9442C503 27.4522 499.097 23 494.281 23H153Z" fill="#40865C"/>
<path d="M155.516 31.2474L159.629 33.1995C159.964 33.3544 160.528 33.3544 160.878 33.1995L164.991 31.2474C165.341 31.0925 165.341 30.8291 164.991 30.6587L160.878 28.7067C160.543 28.5363 159.979 28.5363 159.629 28.7067L155.516 30.6587C155.166 30.8136 155.166 31.077 155.516 31.2474Z" fill="white"/>
<path opacity="0.5" d="M159.642 37.9427L155.517 36.0964C155.166 35.9352 155.166 35.6861 155.517 35.5395L156.953 34.8948L159.627 36.0964C159.979 36.2576 160.544 36.2576 160.88 36.0964L163.554 34.8948L164.99 35.5395C165.341 35.7007 165.341 35.9498 164.99 36.0964L160.865 37.9427C160.544 38.0893 159.979 38.0893 159.642 37.9427Z" fill="white"/>
<path opacity="0.8" d="M159.642 35.5551L155.517 33.7087C155.166 33.5475 155.166 33.2984 155.517 33.1518L156.953 32.5071L159.627 33.7087C159.979 33.8699 160.544 33.8699 160.88 33.7087L163.554 32.5071L164.99 33.1518C165.341 33.313 165.341 33.5621 164.99 33.7087L160.865 35.5551C160.544 35.7016 159.979 35.7016 159.642 35.5551Z" fill="white"/>
<path fill-rule="evenodd" clip-rule="evenodd" d="M450.322 56.043C450.322 55.7669 450.546 55.543 450.822 55.543H463.489C463.765 55.543 463.989 55.7669 463.989 56.043C463.989 56.3192 463.765 56.543 463.489 56.543H450.822C450.546 56.543 450.322 56.3192 450.322 56.043Z" fill="white" stroke="#AAAAAA" stroke-linecap="round" stroke-linejoin="round"/>
<path fill-rule="evenodd" clip-rule="evenodd" d="M307 80V72.4267C307 69.4296 304.956 67 302.435 67H276V80H307ZM240 67H209V80H240V67ZM209 155H240V142H209V155ZM276 155H302.435C304.956 155 307 153.071 307 150.074V142H276V155ZM307 127V140H276V127H307ZM307 82V95H276V82H307ZM209 140H240V127H209V140ZM209 95H240V82H209V95Z" fill="#F2F2F2"/>
<path d="M274 67H242V80H274V67Z" fill="#F2F2F2"/>
<path d="M242 155H274V142H242V155Z" fill="#F2F2F2"/>
<path d="M242 140H274V127H242V140Z" fill="#F2F2F2"/>
<path d="M242 95H274V82H242V95Z" fill="#F2F2F2"/>
<path d="M242 110H274V97H242V110Z" fill="#F2F2F2"/>
<path d="M276 110H307V97H276V110Z" fill="#F2F2F2"/>
<path d="M209 110H240V97H209V110Z" fill="#F2F2F2"/>
<path d="M242 125H274V112H242V125Z" fill="#F2F2F2"/>
<path d="M276 125H307V112H276V125Z" fill="#F2F2F2"/>
<path d="M209 125H240V112H209V125Z" fill="#F2F2F2"/>
<path d="M207 67H182.584C180.053 67 178 69.4504 178 72.473V80H207V67Z" fill="#CBEDD9"/>
<path d="M178 82V95H207V82H178Z" fill="#CBEDD9"/>
<path d="M178 97V110H207V97H178Z" fill="#CBEDD9"/>
<path d="M178 142.006V149.527C178 152.55 180.053 155 182.584 155H207V142.006H178Z" fill="#CBEDD9"/>
<path d="M178 112V125H207V112H178Z" fill="#CBEDD9"/>
<path d="M178 127V140H207V127H178Z" fill="#CBEDD9"/>
<path fill-rule="evenodd" clip-rule="evenodd" d="M185 73.5C185 73.2239 185.224 73 185.5 73H198.5C198.777 73 199 73.2239 199 73.5C199 73.7761 198.777 74 198.5 74H185.5C185.224 74 185 73.7761 185 73.5Z" fill="white"/>
<path fill-rule="evenodd" clip-rule="evenodd" d="M217 73.5C217 73.2239 217.224 73 217.5 73H230.5C230.777 73 231 73.2239 231 73.5C231 73.7761 230.777 74 230.5 74H217.5C217.224 74 217 73.7761 217 73.5Z" fill="#CCCCCC"/>
<path fill-rule="evenodd" clip-rule="evenodd" d="M251 73.5C251 73.2239 251.224 73 251.5 73H264.5C264.777 73 265 73.2239 265 73.5C265 73.7761 264.777 74 264.5 74H251.5C251.224 74 251 73.7761 251 73.5Z" fill="#CCCCCC"/>
<path fill-rule="evenodd" clip-rule="evenodd" d="M286 73.5C286 73.2239 286.224 73 286.5 73H299.5C299.777 73 300 73.2239 300 73.5C300 73.7761 299.777 74 299.5 74H286.5C286.224 74 286 73.7761 286 73.5Z" fill="#CCCCCC"/>
<path fill-rule="evenodd" clip-rule="evenodd" d="M185 88.5C185 88.2239 185.224 88 185.5 88H198.5C198.777 88 199 88.2239 199 88.5C199 88.7761 198.777 89 198.5 89H185.5C185.224 89 185 88.7761 185 88.5Z" fill="white"/>
<path fill-rule="evenodd" clip-rule="evenodd" d="M185 103.5C185 103.224 185.224 103 185.5 103H197.5C197.777 103 198 103.224 198 103.5C198 103.776 197.777 104 197.5 104H185.5C185.224 104 185 103.776 185 103.5Z" fill="white"/>
<path fill-rule="evenodd" clip-rule="evenodd" d="M185 118.5C185 118.224 185.224 118 185.5 118H197.5C197.777 118 198 118.224 198 118.5C198 118.776 197.777 119 197.5 119H185.5C185.224 119 185 118.776 185 118.5Z" fill="white"/>
<path fill-rule="evenodd" clip-rule="evenodd" d="M185 133.5C185 133.224 185.224 133 185.5 133H197.5C197.777 133 198 133.224 198 133.5C198 133.776 197.777 134 197.5 134H185.5C185.224 134 185 133.776 185 133.5Z" fill="white"/>
<path fill-rule="evenodd" clip-rule="evenodd" d="M185 148.5C185 148.224 185.224 148 185.5 148H198.5C198.777 148 199 148.224 199 148.5C199 148.776 198.777 149 198.5 149H185.5C185.224 149 185 148.776 185 148.5Z" fill="white"/>
<path d="M382.5 95.5V107.5H352.5V95.5H382.5ZM445.435 107.5H419.5V95.5H449.5V103.074C449.5 105.812 447.663 107.5 445.435 107.5ZM449.5 80.5V92.5H419.5V80.5H449.5ZM449.5 65.5V77.5H419.5V65.5H449.5ZM382.5 80.5V92.5H352.5V80.5H382.5ZM382.5 65.5V77.5H352.5V65.5H382.5ZM416.5 95.5V107.5H385.5V95.5H416.5ZM416.5 80.5V92.5H385.5V80.5H416.5ZM416.5 65.5V77.5H385.5V65.5H416.5Z" fill="#F2F2F2" stroke="#AAAAAA"/>
<path d="M325.584 50.5H349.5V62.5H321.5V55.473C321.5 52.6398 323.408 50.5 325.584 50.5Z" fill="#CBEDD9" stroke="#AAAAAA"/>
<path d="M349.5 77.5H321.5V65.5H349.5V77.5ZM349.5 92.5H321.5V80.5H349.5V92.5ZM321.5 102.527V95.5062H349.5V107.5H325.584C323.408 107.5 321.5 105.36 321.5 102.527Z" fill="#F2F2F2" stroke="#AAAAAA"/>
<path d="M385.5 62.5V50.5H416.5V62.5H385.5Z" fill="#CBEDD9" stroke="#AAAAAA"/>
<path d="M419.5 62.5V50.5H450.5V62.5H419.5Z" fill="#CBEDD9" stroke="#AAAAAA"/>
<path d="M352.5 62.5V50.5H382.5V62.5H352.5Z" fill="#CBEDD9" stroke="#AAAAAA"/>
<path fill-rule="evenodd" clip-rule="evenodd" d="M328 56.5C328 56.2239 328.224 56 328.5 56H341.5C341.777 56 342 56.2239 342 56.5C342 56.7761 341.777 57 341.5 57H328.5C328.224 57 328 56.7761 328 56.5Z" fill="white" stroke="#AAAAAA" stroke-linecap="round" stroke-linejoin="round"/>
<path fill-rule="evenodd" clip-rule="evenodd" d="M360 56.5C360 56.2239 360.224 56 360.5 56H373.5C373.777 56 374 56.2239 374 56.5C374 56.7761 373.777 57 373.5 57H360.5C360.224 57 360 56.7761 360 56.5Z" fill="white" stroke="#AAAAAA" stroke-linecap="round" stroke-linejoin="round"/>
<path fill-rule="evenodd" clip-rule="evenodd" d="M394 56.5C394 56.2239 394.224 56 394.5 56H407.5C407.777 56 408 56.2239 408 56.5C408 56.7761 407.777 57 407.5 57H394.5C394.224 57 394 56.7761 394 56.5Z" fill="white" stroke="#AAAAAA" stroke-linecap="round" stroke-linejoin="round"/>
<path fill-rule="evenodd" clip-rule="evenodd" d="M429 56.5C429 56.2239 429.224 56 429.5 56H442.5C442.777 56 443 56.2239 443 56.5C443 56.7761 442.777 57 442.5 57H429.5C429.224 57 429 56.7761 429 56.5Z" fill="white" stroke="#AAAAAA" stroke-linecap="round" stroke-linejoin="round"/>
<path fill-rule="evenodd" clip-rule="evenodd" d="M328 71.5C328 71.2239 328.224 71 328.5 71H341.5C341.777 71 342 71.2239 342 71.5C342 71.7761 341.777 72 341.5 72H328.5C328.224 72 328 71.7761 328 71.5Z" fill="white" stroke="#AAAAAA" stroke-linecap="round" stroke-linejoin="round"/>
<path fill-rule="evenodd" clip-rule="evenodd" d="M328 86.5C328 86.2239 328.224 86 328.5 86H340.5C340.777 86 341 86.2239 341 86.5C341 86.7761 340.777 87 340.5 87H328.5C328.224 87 328 86.7761 328 86.5Z" fill="white" stroke="#AAAAAA" stroke-linecap="round" stroke-linejoin="round"/>
<path fill-rule="evenodd" clip-rule="evenodd" d="M328 101.5C328 101.224 328.224 101 328.5 101H341.5C341.777 101 342 101.224 342 101.5C342 101.776 341.777 102 341.5 102H328.5C328.224 102 328 101.776 328 101.5Z" fill="white" stroke="#AAAAAA" stroke-linecap="round" stroke-linejoin="round"/>
<g filter="url(#filter2_d_1990_22364)">
<path d="M681 48.2829C681 43.1561 684.904 39 689.719 39H1026.28C1031.1 39 1035 43.1561 1035 48.2829V265C1035 267.209 1033.21 269 1031 269H689.719C684.904 269 681 264.844 681 259.717V48.2829Z" fill="white"/>
<path d="M681.5 48.2829C681.5 43.4023 685.209 39.5 689.719 39.5H1026.28C1030.79 39.5 1034.5 43.4023 1034.5 48.2829V265C1034.5 266.933 1032.93 268.5 1031 268.5H689.719C685.209 268.5 681.5 264.598 681.5 259.717V48.2829Z" stroke="#CCCCCC"/>
</g>
<path d="M737.616 117.156L744.964 126.995L740.765 125.59L737.616 128.401L734.467 125.59L730.268 126.995L737.616 117.156Z" fill="white"/>
<path d="M769.809 126.292L777.157 136.131L772.958 134.726L769.809 137.537L766.659 134.726L762.46 136.131L769.809 126.292Z" fill="white"/>
<path d="M712 171C712 170.448 712.531 170 713.186 170H780.814C781.469 170 782 170.448 782 171C782 171.552 781.469 172 780.814 172H713.186C712.531 172 712 171.552 712 171Z" fill="#D9D9D9"/>
<path d="M712 177C712 176.448 712.531 176 713.186 176H751.153C751.808 176 752.339 176.448 752.339 177C752.339 177.552 751.808 178 751.153 178H713.186C712.531 178 712 177.552 712 177Z" fill="#D9D9D9"/>
<path fill-rule="evenodd" clip-rule="evenodd" d="M840 197.058C840 195.469 841.169 194 842.5 194C843.831 194 845 195.469 845 197.058V239.121C845 240.711 843.831 242 842.5 242C841.169 242 840 240.711 840 239.121V197.058ZM812.411 214.474C811.079 214.474 810 215.597 810 217.187L810 239.121C810 240.711 811.079 242 812.411 242C813.742 242 815 240.711 815 239.121L815 217.187C815 215.597 813.742 214.474 812.411 214.474ZM822.589 219.741C821.258 219.741 820 221.03 820 222.62V239.121C820 240.711 821.258 242 822.589 242C823.921 242 825 240.711 825 239.121V222.62C825 221.03 823.921 219.741 822.589 219.741ZM832.5 207.342C831.317 207.342 830 208.488 830 209.901V239.441C830 240.854 831.317 242 832.5 242C833.683 242 835 240.854 835 239.441V209.901C835 208.488 833.683 207.342 832.5 207.342ZM752 202.892C752 201.295 753.169 200 754.5 200C755.831 200 757 201.295 757 202.892V239.108C757 240.705 755.831 242 754.5 242C753.169 242 752 240.705 752 239.108V202.892ZM742 214.341C742 212.744 743.169 211.268 744.5 211.268C745.831 211.268 747 212.744 747 214.341V239.108C747 240.705 745.831 242 744.5 242C743.169 242 742 240.705 742 239.108V214.341ZM714.411 214.341C713.079 214.341 712 215.47 712 217.067L712 239.108C712 240.705 713.079 242 714.411 242C715.742 242 717 240.705 717 239.108L717 217.067C717 215.47 715.742 214.341 714.411 214.341ZM724.589 226.634C723.258 226.634 722 227.929 722 229.527V239.108C722 240.705 723.258 242 724.589 242C725.921 242 727 240.705 727 239.108V229.527C727 227.929 725.921 226.634 724.589 226.634ZM734.5 224.675C733.317 224.675 732 225.826 732 227.246V239.429C732 240.849 733.317 242 734.5 242C735.683 242 737 240.849 737 239.429V227.246C737 225.826 735.683 224.675 734.5 224.675ZM791 214.1C791 212.489 792.169 211 793.5 211C794.831 211 796 212.489 796 214.1V239.082C796 240.694 794.831 242 793.5 242C792.169 242 791 240.694 791 239.082V214.1ZM763.411 214.1C762.079 214.1 761 215.238 761 216.85L761 239.082C761 240.694 762.079 242 763.411 242C764.742 242 766 240.694 766 239.082L766 216.85C766 215.238 764.742 214.1 763.411 214.1ZM773.589 226.5C772.258 226.5 771 227.806 771 229.418V239.082C771 240.694 772.258 242 773.589 242C774.921 242 776 240.694 776 239.082V229.418C776 227.806 774.921 226.5 773.589 226.5ZM783.5 224.524C782.317 224.524 781 225.685 781 227.117V239.406C781 240.839 782.317 242 783.5 242C784.683 242 786 240.839 786 239.406V227.117C786 225.685 784.683 224.524 783.5 224.524ZM801 226.382C801 224.771 802.169 223.465 803.5 223.465C804.831 223.465 806 224.771 806 226.382V239.082C806 240.694 804.831 242 803.5 242C802.169 242 801 240.694 801 239.082V226.382Z" fill="#CCEEDA"/>
<path fill-rule="evenodd" clip-rule="evenodd" d="M689.719 39C684.904 39 681 43.4522 681 48.9442V59H1035V43C1035 40.7909 1033.21 39 1031 39L689.719 39ZM695.721 49.4C695.721 51.1673 694.465 52.6 692.917 52.6C691.368 52.6 690.113 51.1673 690.113 49.4C690.113 47.6327 691.368 46.2 692.917 46.2C694.465 46.2 695.721 47.6327 695.721 49.4ZM705.535 49.4C705.535 51.1673 704.279 52.6 702.731 52.6C701.182 52.6 699.927 51.1673 699.927 49.4C699.927 47.6327 701.182 46.2 702.731 46.2C704.279 46.2 705.535 47.6327 705.535 49.4ZM712.544 52.6C714.093 52.6 715.348 51.1673 715.348 49.4C715.348 47.6327 714.093 46.2 712.544 46.2C710.996 46.2 709.741 47.6327 709.741 49.4C709.741 51.1673 710.996 52.6 712.544 52.6Z" fill="#446995"/>
<path opacity="0.7" fill-rule="evenodd" clip-rule="evenodd" d="M1025.02 55C1028.33 55 1031.02 52.3137 1031.02 49C1031.02 45.6863 1028.33 43 1025.02 43C1021.71 43 1019.02 45.6863 1019.02 49C1019.02 52.3137 1021.71 55 1025.02 55ZM1025.02 49.9367C1026.16 49.9367 1027.09 49.0085 1027.09 47.8635C1027.09 46.7185 1026.16 45.7902 1025.02 45.7902C1023.87 45.7902 1022.95 46.7185 1022.95 47.8635C1022.95 49.0085 1023.87 49.9367 1025.02 49.9367ZM1028.53 52.622C1027.65 53.5387 1026.39 54.0406 1025.02 54.0406C1023.65 54.0406 1022.38 53.5503 1021.5 52.6336L1021.53 52.6131C1021.71 52.4776 1021.95 52.2893 1022.21 52.135C1022.92 51.7222 1023.89 51.3189 1025.02 51.3189C1026.15 51.3189 1027.12 51.7222 1027.82 52.135C1028.1 52.2973 1028.35 52.4855 1028.53 52.622Z" fill="white"/>
<path fill-rule="evenodd" clip-rule="evenodd" d="M982.321 85.043C982.321 84.7669 982.545 84.543 982.821 84.543H995.489C995.765 84.543 995.989 84.7669 995.989 85.043C995.989 85.3192 995.765 85.543 995.489 85.543H982.821C982.545 85.543 982.321 85.3192 982.321 85.043Z" fill="white"/>
<path fill-rule="evenodd" clip-rule="evenodd" d="M841 92V84.4267C841 81.4296 838.956 79 836.435 79H810V92H841ZM774 79H743V92H774V79ZM743 137H774V124H743V137ZM810 137H836.435C838.956 137 841 135.071 841 132.074V124H810V137ZM841 109V122H810V109H841ZM841 94V107H810V94H841ZM743 122H774V109H743V122ZM743 107H774V94H743V107Z" fill="#F2F2F2"/>
<path d="M808 79H776V92H808V79Z" fill="#F2F2F2"/>
<path d="M776 137H808V124H776V137Z" fill="#F2F2F2"/>
<path d="M776 122H808V109H776V122Z" fill="#F2F2F2"/>
<path d="M776 107H808V94H776V107Z" fill="#F2F2F2"/>
<path d="M741 79H716.584C714.052 79 712 81.4504 712 84.473V92H741V79Z" fill="#CBEDD9"/>
<path d="M712 94V107H741V94H712Z" fill="#CBEDD9"/>
<path d="M712 109V122H741V109H712Z" fill="#CBEDD9"/>
<path d="M712 124.006V131.527C712 134.55 714.052 137 716.584 137H741V124.006H712Z" fill="#CBEDD9"/>
<path fill-rule="evenodd" clip-rule="evenodd" d="M719 85.5C719 85.2239 719.224 85 719.5 85H732.5C732.776 85 733 85.2239 733 85.5C733 85.7761 732.776 86 732.5 86H719.5C719.224 86 719 85.7761 719 85.5Z" fill="white"/>
<path fill-rule="evenodd" clip-rule="evenodd" d="M751 85.5C751 85.2239 751.224 85 751.5 85H764.5C764.776 85 765 85.2239 765 85.5C765 85.7761 764.776 86 764.5 86H751.5C751.224 86 751 85.7761 751 85.5Z" fill="#CCCCCC"/>
<path fill-rule="evenodd" clip-rule="evenodd" d="M785 85.5C785 85.2239 785.224 85 785.5 85H798.5C798.776 85 799 85.2239 799 85.5C799 85.7761 798.776 86 798.5 86H785.5C785.224 86 785 85.7761 785 85.5Z" fill="#CCCCCC"/>
<path fill-rule="evenodd" clip-rule="evenodd" d="M820 85.5C820 85.2239 820.224 85 820.5 85H833.5C833.776 85 834 85.2239 834 85.5C834 85.7761 833.776 86 833.5 86H820.5C820.224 86 820 85.7761 820 85.5Z" fill="#CCCCCC"/>
<path fill-rule="evenodd" clip-rule="evenodd" d="M719 100.5C719 100.224 719.224 100 719.5 100H732.5C732.776 100 733 100.224 733 100.5C733 100.776 732.776 101 732.5 101H719.5C719.224 101 719 100.776 719 100.5Z" fill="white"/>
<path fill-rule="evenodd" clip-rule="evenodd" d="M719 115.5C719 115.224 719.224 115 719.5 115H731.5C731.776 115 732 115.224 732 115.5C732 115.776 731.776 116 731.5 116H719.5C719.224 116 719 115.776 719 115.5Z" fill="white"/>
<path fill-rule="evenodd" clip-rule="evenodd" d="M719 130.5C719 130.224 719.224 130 719.5 130H732.5C732.776 130 733 130.224 733 130.5C733 130.776 732.776 131 732.5 131H719.5C719.224 131 719 130.776 719 130.5Z" fill="white"/>
<path opacity="0.4" d="M811 105C811 104.448 811.448 104 812 104H900C900.553 104 901 104.448 901 105C901 105.552 900.553 106 900 106H812C811.448 106 811 105.552 811 105Z" fill="#CCCCCC"/>
<path opacity="0.4" d="M811 89C811 87.3431 812.344 86 814 86H997C998.657 86 1000 87.3431 1000 89C1000 90.6569 998.657 92 997 92H814C812.344 92 811 90.6569 811 89Z" fill="#CCCCCC"/>
<path opacity="0.4" d="M921 105C921 104.448 921.448 104 922 104H978C978.553 104 979 104.448 979 105C979 105.552 978.553 106 978 106H922C921.448 106 921 105.552 921 105Z" fill="#CCCCCC"/>
<path opacity="0.4" d="M811 116C811 115.448 811.448 115 812 115H891C891.553 115 892 115.448 892 116C892 116.552 891.553 117 891 117H812C811.448 117 811 116.552 811 116Z" fill="#CCCCCC"/>
<path opacity="0.4" d="M921 116C921 115.448 921.448 115 922 115H1010C1010.55 115 1011 115.448 1011 116C1011 116.552 1010.55 117 1010 117H922C921.448 117 921 116.552 921 116Z" fill="#CCCCCC"/>
<path opacity="0.4" d="M811 127C811 126.448 811.448 126 812 126H900C900.553 126 901 126.448 901 127C901 127.552 900.553 128 900 128H812C811.448 128 811 127.552 811 127Z" fill="#CCCCCC"/>
<path opacity="0.4" d="M921 127C921 126.448 921.448 126 922 126H993C993.553 126 994 126.448 994 127C994 127.552 993.553 128 993 128H922C921.448 128 921 127.552 921 127Z" fill="#CCCCCC"/>
<path opacity="0.4" d="M811 138C811 137.448 811.448 137 812 137H887C887.553 137 888 137.448 888 138C888 138.552 887.553 139 887 139H812C811.448 139 811 138.552 811 138Z" fill="#CCCCCC"/>
<path opacity="0.4" d="M921.124 137.993C921.124 137.441 921.572 136.993 922.124 136.993L1010 137.007C1010.55 137.007 1011 137.454 1011 138.007C1011 138.559 1010.55 139.007 1010 139.007L922.124 138.993C921.571 138.993 921.124 138.545 921.124 137.993Z" fill="#CCCCCC"/>
<path d="M666 78C666 75.2386 668.239 73 671 73H781C783.762 73 786 75.2386 786 78V143C786 145.761 783.762 148 781 148H671C668.239 148 666 145.761 666 143V78Z" fill="#F1FBFF"/>
<mask id="mask0_1990_22364" style="mask-type:alpha" maskUnits="userSpaceOnUse" x="666" y="73" width="121" height="76">
<path d="M666 78C666 75.2386 668.239 73 671 73H781.108C783.87 73 786.108 75.2386 786.108 78V143.182C786.108 145.943 783.87 148.182 781.108 148.182H671C668.239 148.182 666 145.943 666 143.182V78Z" fill="url(#paint0_linear_1990_22364)"/>
</mask>
<g mask="url(#mask0_1990_22364)">
<path d="M693.013 94L732 148H653L693.013 94Z" fill="url(#paint1_linear_1990_22364)"/>
<path d="M693.013 94L732 148H653L693.013 94Z" fill="url(#paint2_linear_1990_22364)"/>
<path d="M693.047 94.088L702.674 106.924L697.173 105.09L693.047 108.758L688.921 105.09L683.42 106.924L693.047 94.088Z" fill="white"/>
<path d="M734.013 105L773 160H694L734.013 105Z" fill="url(#paint3_linear_1990_22364)"/>
<path d="M734.627 105L744.254 117.836L738.753 116.002L734.627 119.67L730.501 116.002L725 117.836L734.627 105Z" fill="white"/>
</g>
<path fill-rule="evenodd" clip-rule="evenodd" d="M671 72H781C784.314 72 787 74.6863 787 78V143C787 146.314 784.314 149 781 149H671C667.687 149 665 146.314 665 143V78C665 74.6863 667.687 72 671 72ZM671 73C668.239 73 666 75.2386 666 78V143C666 145.761 668.239 148 671 148H781C783.762 148 786 145.761 786 143V78C786 75.2386 783.762 73 781 73H671Z" fill="#BDECFF"/>
<path d="M775 90.5C775 94.0899 772.09 97 768.5 97C764.911 97 762 94.0899 762 90.5C762 86.9101 764.911 84 768.5 84C772.09 84 775 86.9101 775 90.5Z" fill="#BDECFF"/>
<path d="M879 168.125C879 167.504 879.501 167 880.119 167H943.881C944.499 167 945 167.504 945 168.125C945 168.746 944.499 169 943.881 169H880.119C879.501 169 879 168.746 879 168.125Z" fill="#D9D9D9"/>
<path d="M879 174.875C879 174.254 879.586 174 880.203 174H916C916.618 174 917.034 174.254 917.034 174.875C917.034 175.496 916.533 176 915.915 176H880.119C879.501 176 879 175.496 879 174.875Z" fill="#D9D9D9"/>
<path fill-rule="evenodd" clip-rule="evenodd" d="M1001 186C998.87 186 997 187.665 997 189.719V236.281C997 238.335 998.87 240 1001 240C1003.13 240 1005 238.335 1005 236.281V189.719C1005 187.665 1003.13 186 1001 186ZM981 204.439C981 202.385 982.87 200.488 985 200.488C987.13 200.488 989 202.385 989 204.439V236.281C989 238.335 987.13 240 985 240C982.87 240 981 238.335 981 236.281V204.439ZM965 221.031C965 219.205 967.106 217.725 969 217.725C970.894 217.725 973 219.205 973 221.031V236.694C973 238.52 970.894 240 969 240C967.106 240 965 238.52 965 236.694V221.031ZM953 186C950.87 186 949 187.665 949 189.719V236.281C949 238.335 950.87 240 953 240C955.13 240 957 238.335 957 236.281V189.719C957 187.665 955.13 186 953 186ZM937 200.488C934.87 200.488 933 202.385 933 204.439V236.281C933 238.335 934.87 240 937 240C939.13 240 941 238.335 941 236.281V204.439C941 202.385 939.13 200.488 937 200.488ZM885 207.944C885 205.89 886.727 204.439 888.857 204.439C890.987 204.439 893 205.89 893 207.944L893 236.281C893 238.335 890.987 240 888.857 240C886.727 240 885 238.335 885 236.281L885 207.944ZM901 223.963C901 221.909 903.013 220.244 905.143 220.244C907.273 220.244 909 221.909 909 223.963V236.281C909 238.335 907.273 240 905.143 240C903.013 240 901 238.335 901 236.281V223.963ZM917 221.031C917 219.205 919.106 217.725 921 217.725C922.894 217.725 925 219.205 925 221.031V236.694C925 238.52 922.894 240 921 240C919.106 240 917 238.52 917 236.694V221.031Z" fill="#BDECFF"/>
<g filter="url(#filter3_d_1990_22364)">
<path d="M545.5 32.1633C545.5 27.3481 549.154 23.5 553.596 23.5H885.404C889.846 23.5 893.5 27.3478 893.5 32.1628C893.5 32.163 893.5 32.1632 893.5 32.1633L893.239 279.004C893.237 280.935 891.671 282.5 889.739 282.5H553.596C549.154 282.5 545.5 278.652 545.5 273.837V32.1633Z" fill="white" stroke="#CCCCCC"/>
<path d="M600.718 89.9326L607.951 99.6171L603.817 98.2336L600.718 101.001L597.618 98.2336L593.484 99.6171L600.718 89.9326Z" fill="white"/>
<path d="M632.405 98.9254L639.639 108.61L635.505 107.226L632.405 109.993L629.306 107.226L625.172 108.61L632.405 98.9254Z" fill="white"/>
<path fill-rule="evenodd" clip-rule="evenodd" d="M553.596 23C548.849 23 545 27.4522 545 32.9442V43H894V27C894 24.7909 892.209 23 890 23H553.596ZM559.513 33.4C559.513 35.1673 558.275 36.6 556.748 36.6C555.222 36.6 553.984 35.1673 553.984 33.4C553.984 31.6327 555.222 30.2 556.748 30.2C558.275 30.2 559.513 31.6327 559.513 33.4ZM569.188 33.4C569.188 35.1673 567.95 36.6 566.424 36.6C564.897 36.6 563.659 35.1673 563.659 33.4C563.659 31.6327 564.897 30.2 566.424 30.2C567.95 30.2 569.188 31.6327 569.188 33.4ZM576.099 36.6C577.626 36.6 578.863 35.1673 578.863 33.4C578.863 31.6327 577.626 30.2 576.099 30.2C574.572 30.2 573.335 31.6327 573.335 33.4C573.335 35.1673 574.572 36.6 576.099 36.6Z" fill="#BE664F"/>
<path d="M563 51C563 48.2386 565.239 46 568 46H619C621.761 46 624 48.2386 624 51V79C624 81.7614 621.761 84 619 84H568C565.239 84 563 81.7614 563 79V51Z" fill="#FFF0E9"/>
<path fill-rule="evenodd" clip-rule="evenodd" d="M568 45H619C622.314 45 625 47.6863 625 51V79C625 82.3137 622.314 85 619 85H568C564.686 85 562 82.3137 562 79V51C562 47.6863 564.686 45 568 45ZM568 46C565.239 46 563 48.2386 563 51V79C563 81.7614 565.239 84 568 84H619C621.761 84 624 81.7614 624 79V51C624 48.2386 621.761 46 619 46H568Z" fill="url(#paint4_linear_1990_22364)"/>
<mask id="mask1_1990_22364" style="mask-type:alpha" maskUnits="userSpaceOnUse" x="563" y="56" width="63" height="29">
<path d="M563 61C563 58.2386 565.239 56 568 56H621C623.761 56 626 58.2386 626 61V79.3205C626 82.082 623.761 84.3205 621 84.3205H568C565.239 84.3205 563 82.082 563 79.3205V61Z" fill="url(#paint5_linear_1990_22364)"/>
</mask>
<g mask="url(#mask1_1990_22364)">
<path d="M580.818 59.3766L562.998 84.5793H599.108L580.818 59.3766Z" fill="url(#paint6_linear_1990_22364)"/>
<path d="M580.809 59.2484L585.291 65.4841L582.986 64.4448L581.065 66.1337L579.145 64.4448L576.584 65.2893L580.809 59.2484Z" fill="white"/>
<path d="M601.6 64.3134L585.802 86.658H617.814L601.6 64.3134Z" fill="url(#paint7_linear_1990_22364)"/>
<path d="M601.555 64.1847L597.841 69.5435L600.036 68.7965L601.683 70.2905L603.329 68.7965L605.524 69.5435L601.555 64.1847Z" fill="white"/>
</g>
<path d="M617 55C617 56.6569 615.657 58 614 58C612.343 58 611 56.6569 611 55C611 53.3431 612.343 52 614 52C615.657 52 617 53.3431 617 55Z" fill="white"/>
<path d="M563 145C563 142.239 565.239 140 568 140H618C620.761 140 623 142.239 623 145V172C623 174.761 620.761 177 618 177H568C565.239 177 563 174.761 563 172V145Z" fill="#F9F9F9"/>
<path fill-rule="evenodd" clip-rule="evenodd" d="M618 141H568C565.791 141 564 142.791 564 145V172C564 174.209 565.791 176 568 176H618C620.209 176 622 174.209 622 172V145C622 142.791 620.209 141 618 141ZM568 140C565.239 140 563 142.239 563 145V172C563 174.761 565.239 177 568 177H618C620.761 177 623 174.761 623 172V145C623 142.239 620.761 140 618 140H568Z" fill="#EFEFEF"/>
<path d="M563 98C563 95.2386 565.239 93 568 93H618C620.761 93 623 95.2386 623 98V125C623 127.761 620.761 130 618 130H568C565.239 130 563 127.761 563 125V98Z" fill="#F9F9F9"/>
<path fill-rule="evenodd" clip-rule="evenodd" d="M618 94H568C565.791 94 564 95.7909 564 98V125C564 127.209 565.791 129 568 129H618C620.209 129 622 127.209 622 125V98C622 95.7909 620.209 94 618 94ZM568 93C565.239 93 563 95.2386 563 98V125C563 127.761 565.239 130 568 130H618C620.761 130 623 127.761 623 125V98C623 95.2386 620.761 93 618 93H568Z" fill="#EFEFEF"/>
<path d="M563 192C563 189.239 565.239 187 568 187H618C620.761 187 623 189.239 623 192V219C623 221.761 620.761 224 618 224H568C565.239 224 563 221.761 563 219V192Z" fill="#F9F9F9"/>
<path fill-rule="evenodd" clip-rule="evenodd" d="M618 188H568C565.791 188 564 189.791 564 192V219C564 221.209 565.791 223 568 223H618C620.209 223 622 221.209 622 219V192C622 189.791 620.209 188 618 188ZM568 187C565.239 187 563 189.239 563 192V219C563 221.761 565.239 224 568 224H618C620.761 224 623 221.761 623 219V192C623 189.239 620.761 187 618 187H568Z" fill="#EFEFEF"/>
<path d="M663 222C663 220.343 664.344 219 666 219H853C854.657 219 856 220.343 856 222C856 223.657 854.657 225 853 225H666C664.344 225 663 223.657 663 222Z" fill="#EFEFEF"/>
<path d="M716 235.008C716 233.347 717.347 232 719.008 232H798.078C799.739 232 801.086 233.347 801.086 235.008C801.086 236.669 799.739 238.016 798.078 238.016H719.008C717.347 238.016 716 236.669 716 235.008Z" fill="#EFEFEF"/>
<path d="M680 249.5C680 248.672 680.672 248 681.5 248H836.5C837.329 248 838 248.672 838 249.5C838 250.328 837.329 251 836.5 251H681.5C680.672 251 680 250.328 680 249.5Z" fill="#EFEFEF"/>
<path d="M653 72C653 69.2386 655.239 67 658 67H860C862.762 67 865 69.2386 865 72V189C865 191.761 862.762 194 860 194H658C655.239 194 653 191.761 653 189V72Z" fill="#FFF0E9"/>
<mask id="mask2_1990_22364" style="mask-type:alpha" maskUnits="userSpaceOnUse" x="671" y="98" width="212" height="95">
<path d="M671.286 103.725C671.286 100.964 673.524 98.7251 676.286 98.7251H877.71C880.471 98.7251 882.71 100.964 882.71 103.725V188C882.71 190.761 880.471 193 877.71 193H676.286C673.524 193 671.286 190.761 671.286 188V103.725Z" fill="url(#paint8_linear_1990_22364)"/>
</mask>
<g mask="url(#mask2_1990_22364)">
<path d="M730.714 111L671 194H792L730.714 111Z" fill="url(#paint9_linear_1990_22364)"/>
<path d="M730.589 110L745 129.925L737.589 126.604L731.412 132L725.236 126.604L717 129.302L730.589 110Z" fill="white"/>
<path d="M800.805 127L748 201H855L800.805 127Z" fill="url(#paint10_linear_1990_22364)"/>
<path d="M800.567 127L788 144.553L795.429 142.106L801 147L806.572 142.106L814 144.553L800.567 127Z" fill="white"/>
</g>
<path d="M843 93.5C843 98.7467 838.747 103 833.5 103C828.254 103 824 98.7467 824 93.5C824 88.2533 828.254 84 833.5 84C838.747 84 843 88.2533 843 93.5Z" fill="white"/>
</g>
<g filter="url(#filter4_d_1990_22364)">
<path d="M295 11.9522C295 5.35118 300.029 0 306.232 0H739.768C745.971 0 751 5.35118 751 11.9522V296C751 298.209 749.209 300 747 300H299C296.791 300 295 298.209 295 296L295 11.9522Z" fill="white"/>
<path d="M295.5 11.9522C295.5 5.59757 300.334 0.5 306.232 0.5H739.768C745.667 0.5 750.5 5.59758 750.5 11.9522V296C750.5 297.933 748.933 299.5 747 299.5H299C297.067 299.5 295.5 297.933 295.5 296L295.5 11.9522Z" stroke="#CCCCCC"/>
</g>
<path d="M367.762 100.443L377.205 113.087L371.809 111.281L367.762 114.894L363.714 111.281L358.318 113.087L367.762 100.443Z" fill="white"/>
<path d="M409.134 112.184L418.578 124.829L413.182 123.022L409.134 126.635L405.087 123.022L399.691 124.829L409.134 112.184Z" fill="white"/>
<path fill-rule="evenodd" clip-rule="evenodd" d="M299 0C296.791 0 295 1.79086 295 4V28H751V4C751 1.79086 749.209 0 747 0L299 0Z" fill="#AA5252"/>
<path d="M480.149 10.8613C481.071 10.8613 481.743 11.0501 482.166 11.4277C482.589 11.8053 482.801 12.3343 482.801 13.0146C482.801 13.3239 482.752 13.6185 482.654 13.8984C482.56 14.1751 482.404 14.4209 482.186 14.6357C481.967 14.8473 481.679 15.015 481.321 15.1387C480.966 15.2624 480.529 15.3242 480.008 15.3242H479.246V18H478.074V10.8613H480.149ZM480.071 11.833H479.246V14.3477H479.886C480.254 14.3477 480.566 14.3053 480.823 14.2207C481.08 14.1328 481.276 13.9945 481.409 13.8057C481.543 13.6169 481.609 13.3678 481.609 13.0586C481.609 12.6452 481.484 12.3376 481.233 12.1357C480.986 11.9339 480.599 11.833 480.071 11.833ZM490.022 14.3623C490.022 15.1663 489.873 15.8385 489.573 16.3789C489.274 16.916 488.839 17.3213 488.27 17.5947C487.7 17.8649 487.013 18 486.209 18H484.227V10.8613H486.424C487.163 10.8613 487.801 10.9948 488.338 11.2617C488.875 11.5254 489.29 11.9176 489.583 12.4385C489.876 12.9561 490.022 13.5973 490.022 14.3623ZM488.802 14.3965C488.802 13.8105 488.709 13.3288 488.523 12.9512C488.341 12.5736 488.071 12.2936 487.713 12.1113C487.358 11.9258 486.92 11.833 486.399 11.833H485.398V17.0186H486.229C487.091 17.0186 487.736 16.7988 488.162 16.3594C488.589 15.9199 488.802 15.2656 488.802 14.3965ZM492.723 18H491.561V10.8613H495.594V11.8477H492.723V14.0742H495.408V15.0557H492.723V18ZM500.652 18H499.49V10.8613H503.523V11.8477H500.652V14.0742H503.338V15.0557H500.652V18ZM509.49 15.2852C509.49 15.7344 509.432 16.1331 509.314 16.4814C509.197 16.8298 509.026 17.1243 508.802 17.3652C508.577 17.6029 508.307 17.7852 507.991 17.9121C507.675 18.0358 507.319 18.0977 506.922 18.0977C506.551 18.0977 506.211 18.0358 505.901 17.9121C505.592 17.7852 505.324 17.6029 505.096 17.3652C504.871 17.1243 504.697 16.8298 504.573 16.4814C504.45 16.1331 504.388 15.7344 504.388 15.2852C504.388 14.6895 504.49 14.1849 504.695 13.7715C504.904 13.3548 505.2 13.0374 505.584 12.8193C505.968 12.6012 506.425 12.4922 506.956 12.4922C507.454 12.4922 507.894 12.6012 508.274 12.8193C508.655 13.0374 508.953 13.3548 509.168 13.7715C509.383 14.1882 509.49 14.6927 509.49 15.2852ZM505.569 15.2852C505.569 15.679 505.617 16.016 505.711 16.2959C505.809 16.5758 505.958 16.7907 506.16 16.9404C506.362 17.0869 506.622 17.1602 506.941 17.1602C507.26 17.1602 507.521 17.0869 507.723 16.9404C507.924 16.7907 508.073 16.5758 508.167 16.2959C508.261 16.016 508.309 15.679 508.309 15.2852C508.309 14.8913 508.261 14.5576 508.167 14.2842C508.073 14.0075 507.924 13.7975 507.723 13.6543C507.521 13.5078 507.259 13.4346 506.937 13.4346C506.461 13.4346 506.115 13.5941 505.896 13.9131C505.678 14.2321 505.569 14.6895 505.569 15.2852ZM513.548 12.4922C513.639 12.4922 513.738 12.4971 513.846 12.5068C513.953 12.5166 514.046 12.5296 514.124 12.5459L514.017 13.6201C513.948 13.6006 513.864 13.5859 513.763 13.5762C513.665 13.5664 513.577 13.5615 513.499 13.5615C513.294 13.5615 513.099 13.5957 512.913 13.6641C512.728 13.7292 512.563 13.8301 512.42 13.9668C512.277 14.1003 512.164 14.2679 512.083 14.4697C512.002 14.6715 511.961 14.9059 511.961 15.1729V18H510.809V12.5947H511.707L511.863 13.5469H511.917C512.024 13.3548 512.158 13.179 512.317 13.0195C512.477 12.86 512.659 12.7331 512.864 12.6387C513.073 12.541 513.3 12.4922 513.548 12.4922ZM521.233 12.4922C521.839 12.4922 522.295 12.6484 522.601 12.9609C522.91 13.2734 523.064 13.7747 523.064 14.4648V18H521.917V14.6699C521.917 14.2598 521.837 13.9505 521.678 13.7422C521.518 13.5339 521.276 13.4297 520.95 13.4297C520.494 13.4297 520.166 13.5762 519.964 13.8691C519.765 14.1589 519.666 14.5804 519.666 15.1338V18H518.519V14.6699C518.519 14.3965 518.483 14.1686 518.411 13.9863C518.343 13.8008 518.237 13.6624 518.094 13.5713C517.951 13.4769 517.77 13.4297 517.552 13.4297C517.236 13.4297 516.984 13.5013 516.795 13.6445C516.609 13.7878 516.476 13.9993 516.395 14.2793C516.313 14.556 516.272 14.8962 516.272 15.2998V18H515.125V12.5947H516.019L516.18 13.3223H516.243C516.354 13.1335 516.491 12.9788 516.653 12.8584C516.819 12.7347 517.003 12.6436 517.205 12.585C517.407 12.5231 517.617 12.4922 517.835 12.4922C518.239 12.4922 518.579 12.5638 518.855 12.707C519.132 12.847 519.339 13.0618 519.476 13.3516H519.563C519.733 13.0586 519.969 12.8421 520.271 12.7021C520.574 12.5622 520.895 12.4922 521.233 12.4922ZM530.423 11.7549C530.081 11.7549 529.775 11.8167 529.505 11.9404C529.238 12.0641 529.012 12.2432 528.826 12.4775C528.641 12.7087 528.499 12.9902 528.401 13.3223C528.304 13.651 528.255 14.0221 528.255 14.4355C528.255 14.9889 528.333 15.4658 528.489 15.8662C528.646 16.2633 528.883 16.5693 529.202 16.7842C529.521 16.9958 529.925 17.1016 530.413 17.1016C530.716 17.1016 531.01 17.0723 531.297 17.0137C531.583 16.9551 531.88 16.8753 532.186 16.7744V17.7705C531.896 17.8844 531.603 17.9674 531.307 18.0195C531.01 18.0716 530.669 18.0977 530.281 18.0977C529.552 18.0977 528.947 17.9463 528.465 17.6436C527.986 17.3408 527.628 16.9144 527.391 16.3643C527.156 15.8141 527.039 15.1696 527.039 14.4307C527.039 13.8903 527.114 13.3955 527.264 12.9463C527.413 12.4971 527.632 12.1097 527.918 11.7842C528.204 11.4554 528.558 11.2031 528.978 11.0273C529.401 10.8483 529.884 10.7588 530.428 10.7588C530.786 10.7588 531.137 10.7995 531.482 10.8809C531.831 10.959 532.153 11.0713 532.449 11.2178L532.039 12.1846C531.792 12.0674 531.533 11.9665 531.263 11.8818C530.993 11.7972 530.713 11.7549 530.423 11.7549ZM536.341 12.4922C536.432 12.4922 536.531 12.4971 536.639 12.5068C536.746 12.5166 536.839 12.5296 536.917 12.5459L536.81 13.6201C536.741 13.6006 536.657 13.5859 536.556 13.5762C536.458 13.5664 536.37 13.5615 536.292 13.5615C536.087 13.5615 535.892 13.5957 535.706 13.6641C535.521 13.7292 535.356 13.8301 535.213 13.9668C535.07 14.1003 534.957 14.2679 534.876 14.4697C534.795 14.6715 534.754 14.9059 534.754 15.1729V18H533.602V12.5947H534.5L534.656 13.5469H534.71C534.817 13.3548 534.951 13.179 535.11 13.0195C535.27 12.86 535.452 12.7331 535.657 12.6387C535.866 12.541 536.093 12.4922 536.341 12.4922ZM540.071 12.4922C540.553 12.4922 540.966 12.5915 541.312 12.79C541.657 12.9886 541.922 13.2702 542.107 13.6348C542.293 13.9993 542.386 14.4355 542.386 14.9434V15.5586H538.777C538.79 16.0827 538.93 16.4863 539.197 16.7695C539.467 17.0527 539.845 17.1943 540.33 17.1943C540.675 17.1943 540.984 17.1618 541.258 17.0967C541.535 17.0283 541.819 16.929 542.112 16.7988V17.7314C541.842 17.8584 541.567 17.9512 541.287 18.0098C541.007 18.0684 540.672 18.0977 540.281 18.0977C539.751 18.0977 539.284 17.9951 538.88 17.79C538.479 17.5817 538.165 17.2725 537.938 16.8623C537.713 16.4521 537.601 15.9427 537.601 15.334C537.601 14.7285 537.703 14.2142 537.908 13.791C538.113 13.3678 538.401 13.0456 538.772 12.8242C539.144 12.6029 539.576 12.4922 540.071 12.4922ZM540.071 13.3564C539.71 13.3564 539.417 13.4736 539.192 13.708C538.971 13.9424 538.841 14.2858 538.802 14.7383H541.263C541.259 14.4681 541.214 14.2288 541.126 14.0205C541.041 13.8122 540.911 13.6494 540.735 13.5322C540.563 13.415 540.341 13.3564 540.071 13.3564ZM545.799 12.4922C546.482 12.4922 546.998 12.6436 547.347 12.9463C547.698 13.249 547.874 13.721 547.874 14.3623V18H547.059L546.839 17.2334H546.8C546.647 17.4287 546.489 17.5898 546.326 17.7168C546.163 17.8438 545.975 17.9382 545.76 18C545.548 18.0651 545.289 18.0977 544.983 18.0977C544.661 18.0977 544.373 18.0391 544.119 17.9219C543.865 17.8014 543.665 17.6191 543.519 17.375C543.372 17.1309 543.299 16.8216 543.299 16.4473C543.299 15.8906 543.506 15.4723 543.919 15.1924C544.336 14.9124 544.964 14.7578 545.804 14.7285L546.741 14.6943V14.4111C546.741 14.0368 546.653 13.7699 546.478 13.6104C546.305 13.4508 546.061 13.3711 545.745 13.3711C545.475 13.3711 545.213 13.4102 544.959 13.4883C544.705 13.5664 544.458 13.6624 544.217 13.7764L543.846 12.9658C544.109 12.8258 544.409 12.7119 544.744 12.624C545.083 12.5361 545.434 12.4922 545.799 12.4922ZM546.736 15.417L546.038 15.4414C545.465 15.4609 545.063 15.5586 544.832 15.7344C544.601 15.9102 544.485 16.151 544.485 16.457C544.485 16.724 544.565 16.9193 544.725 17.043C544.884 17.1634 545.094 17.2236 545.354 17.2236C545.752 17.2236 546.08 17.1113 546.341 16.8867C546.604 16.6589 546.736 16.3252 546.736 15.8857V15.417ZM551.492 17.1699C551.642 17.1699 551.79 17.1569 551.937 17.1309C552.083 17.1016 552.216 17.0674 552.337 17.0283V17.8975C552.21 17.9528 552.046 18 551.844 18.0391C551.642 18.0781 551.432 18.0977 551.214 18.0977C550.908 18.0977 550.633 18.0472 550.389 17.9463C550.145 17.8421 549.951 17.6647 549.808 17.4141C549.664 17.1634 549.593 16.8167 549.593 16.374V13.4688H548.855V12.9561L549.646 12.5508L550.022 11.3936H550.745V12.5947H552.293V13.4688H550.745V16.3594C550.745 16.6328 550.813 16.8363 550.95 16.9697C551.087 17.1032 551.268 17.1699 551.492 17.1699ZM558.221 15.2852C558.221 15.7344 558.162 16.1331 558.045 16.4814C557.928 16.8298 557.757 17.1243 557.532 17.3652C557.308 17.6029 557.037 17.7852 556.722 17.9121C556.406 18.0358 556.049 18.0977 555.652 18.0977C555.281 18.0977 554.941 18.0358 554.632 17.9121C554.323 17.7852 554.054 17.6029 553.826 17.3652C553.602 17.1243 553.427 16.8298 553.304 16.4814C553.18 16.1331 553.118 15.7344 553.118 15.2852C553.118 14.6895 553.221 14.1849 553.426 13.7715C553.634 13.3548 553.93 13.0374 554.314 12.8193C554.699 12.6012 555.156 12.4922 555.687 12.4922C556.185 12.4922 556.624 12.6012 557.005 12.8193C557.386 13.0374 557.684 13.3548 557.898 13.7715C558.113 14.1882 558.221 14.6927 558.221 15.2852ZM554.3 15.2852C554.3 15.679 554.347 16.016 554.441 16.2959C554.539 16.5758 554.689 16.7907 554.891 16.9404C555.092 17.0869 555.353 17.1602 555.672 17.1602C555.991 17.1602 556.251 17.0869 556.453 16.9404C556.655 16.7907 556.803 16.5758 556.897 16.2959C556.992 16.016 557.039 15.679 557.039 15.2852C557.039 14.8913 556.992 14.5576 556.897 14.2842C556.803 14.0075 556.655 13.7975 556.453 13.6543C556.251 13.5078 555.989 13.4346 555.667 13.4346C555.192 13.4346 554.845 13.5941 554.627 13.9131C554.409 14.2321 554.3 14.6895 554.3 15.2852ZM562.278 12.4922C562.369 12.4922 562.469 12.4971 562.576 12.5068C562.684 12.5166 562.776 12.5296 562.854 12.5459L562.747 13.6201C562.679 13.6006 562.594 13.5859 562.493 13.5762C562.396 13.5664 562.308 13.5615 562.229 13.5615C562.024 13.5615 561.829 13.5957 561.644 13.6641C561.458 13.7292 561.294 13.8301 561.15 13.9668C561.007 14.1003 560.895 14.2679 560.813 14.4697C560.732 14.6715 560.691 14.9059 560.691 15.1729V18H559.539V12.5947H560.438L560.594 13.5469H560.647C560.755 13.3548 560.888 13.179 561.048 13.0195C561.207 12.86 561.39 12.7331 561.595 12.6387C561.803 12.541 562.031 12.4922 562.278 12.4922ZM563.689 17.3945C563.689 17.1276 563.758 16.9404 563.895 16.833C564.035 16.7223 564.204 16.667 564.402 16.667C564.601 16.667 564.77 16.7223 564.91 16.833C565.053 16.9404 565.125 17.1276 565.125 17.3945C565.125 17.6549 565.053 17.8438 564.91 17.9609C564.77 18.0749 564.601 18.1318 564.402 18.1318C564.204 18.1318 564.035 18.0749 563.895 17.9609C563.758 17.8438 563.689 17.6549 563.689 17.3945ZM569.373 12.4922C570.014 12.4922 570.529 12.7266 570.916 13.1953C571.307 13.6641 571.502 14.3607 571.502 15.2852C571.502 15.8971 571.411 16.4131 571.229 16.833C571.049 17.2497 570.797 17.5654 570.472 17.7803C570.149 17.9919 569.773 18.0977 569.344 18.0977C569.07 18.0977 568.833 18.0618 568.631 17.9902C568.429 17.9186 568.257 17.8258 568.113 17.7119C567.97 17.5947 567.85 17.4678 567.752 17.3311H567.684C567.7 17.4613 567.715 17.6061 567.728 17.7656C567.744 17.9219 567.752 18.0651 567.752 18.1953V20.3975H566.6V12.5947H567.537L567.698 13.3418H567.752C567.853 13.1888 567.975 13.0472 568.118 12.917C568.265 12.7868 568.44 12.6842 568.646 12.6094C568.854 12.5312 569.096 12.4922 569.373 12.4922ZM569.065 13.4297C568.75 13.4297 568.496 13.4932 568.304 13.6201C568.115 13.7438 567.977 13.931 567.889 14.1816C567.804 14.4323 567.758 14.7464 567.752 15.124V15.2852C567.752 15.6855 567.793 16.0257 567.874 16.3057C567.959 16.5824 568.097 16.7939 568.289 16.9404C568.484 17.0837 568.748 17.1553 569.08 17.1553C569.36 17.1553 569.591 17.0788 569.773 16.9258C569.959 16.7728 570.097 16.5547 570.188 16.2715C570.28 15.9883 570.325 15.6546 570.325 15.2705C570.325 14.6878 570.221 14.2354 570.013 13.9131C569.808 13.5908 569.492 13.4297 569.065 13.4297ZM574.646 18.0977C574.002 18.0977 573.484 17.8633 573.094 17.3945C572.706 16.9225 572.513 16.2275 572.513 15.3096C572.513 14.3818 572.71 13.6803 573.104 13.2051C573.501 12.7298 574.023 12.4922 574.671 12.4922C574.944 12.4922 575.184 12.5296 575.389 12.6045C575.594 12.6761 575.77 12.7738 575.916 12.8975C576.066 13.0212 576.193 13.1595 576.297 13.3125H576.351C576.334 13.2116 576.315 13.0667 576.292 12.8779C576.272 12.6859 576.263 12.5085 576.263 12.3457V10.4023H577.415V18H576.517L576.312 17.2627H576.263C576.165 17.4189 576.041 17.5605 575.892 17.6875C575.745 17.8112 575.569 17.9105 575.364 17.9854C575.162 18.0602 574.923 18.0977 574.646 18.0977ZM574.969 17.165C575.46 17.165 575.807 17.0234 576.009 16.7402C576.211 16.457 576.315 16.0322 576.321 15.4658V15.3145C576.321 14.709 576.224 14.2451 576.028 13.9229C575.833 13.5973 575.477 13.4346 574.959 13.4346C574.546 13.4346 574.23 13.6022 574.012 13.9375C573.797 14.2695 573.689 14.7334 573.689 15.3291C573.689 15.9248 573.797 16.3805 574.012 16.6963C574.23 17.0088 574.549 17.165 574.969 17.165ZM581.761 13.4688H580.447V18H579.3V13.4688H578.416V12.917L579.3 12.5801V12.2041C579.3 11.7451 579.371 11.3805 579.515 11.1104C579.661 10.8402 579.869 10.6465 580.14 10.5293C580.413 10.4089 580.739 10.3486 581.116 10.3486C581.364 10.3486 581.59 10.3698 581.795 10.4121C582 10.4512 582.173 10.4967 582.312 10.5488L582.015 11.418C581.904 11.3822 581.78 11.3496 581.644 11.3203C581.507 11.2878 581.36 11.2715 581.204 11.2715C580.944 11.2715 580.752 11.3529 580.628 11.5156C580.507 11.6784 580.447 11.916 580.447 12.2285V12.5947H581.761V13.4688Z" fill="white"/>
<path d="M304.962 11.1043L310.72 13.8372C311.189 14.0541 311.978 14.0541 312.469 13.8372L318.227 11.1043C318.717 10.8875 318.717 10.5187 318.227 10.2801L312.469 7.54728C312 7.3087 311.211 7.3087 310.72 7.54728L304.962 10.2801C304.472 10.497 304.472 10.8658 304.962 11.1043Z" fill="white"/>
<path opacity="0.5" d="M310.739 20.4778L304.964 17.8929C304.472 17.6672 304.472 17.3185 304.964 17.1133L306.974 16.2106L310.718 17.8929C311.21 18.1185 312.001 18.1185 312.472 17.8929L316.215 16.2106L318.226 17.1133C318.718 17.339 318.718 17.6877 318.226 17.8929L312.45 20.4778C312.001 20.6829 311.21 20.6829 310.739 20.4778Z" fill="white"/>
<path opacity="0.8" d="M310.739 17.135L304.964 14.5501C304.472 14.3244 304.472 13.9757 304.964 13.7705L306.974 12.8679L310.718 14.5501C311.21 14.7758 312.001 14.7758 312.472 14.5501L316.215 12.8679L318.226 13.7705C318.718 13.9962 318.718 14.345 318.226 14.5501L312.45 17.135C312.001 17.3402 311.21 17.3402 310.739 17.135Z" fill="white"/>
<path opacity="0.4" d="M556 62C556 60.3431 557.109 59 558.476 59H709.524C710.891 59 712 60.3431 712 62C712 63.6569 710.891 65 709.524 65H558.476C557.109 65 556 63.6569 556 62Z" fill="#CCCCCC"/>
<path opacity="0.3" d="M333 116L708 116V132H333V116Z" fill="#CCCCCC"/>
<path opacity="0.2" d="M333 135L708 135V147H333V135Z" fill="#CCCCCC"/>
<path opacity="0.1" d="M333 238.17L708 238.17V250.17H333V238.17Z" fill="#CCCCCC"/>
<path opacity="0.1" d="M333 150L519 150V162H333V150Z" fill="#CCCCCC"/>
<path d="M418.5 168.5L517.5 168.5V181.5H418.5V168.5Z" stroke="#5FC1E8"/>
<path fill-rule="evenodd" clip-rule="evenodd" d="M421 171H422H423H424V172L423 172L423 178L424 178V179L423 179H422L421 179V178L422 178L422 172L421 172V171Z" fill="#AAAAAA"/>
<path opacity="0.4" d="M333 175.5C333 174.948 333.401 174.5 333.897 174.5H384.103C384.599 174.5 385 174.948 385 175.5C385 176.052 384.599 176.5 384.103 176.5H333.897C333.401 176.5 333 176.052 333 175.5Z" fill="#CCCCCC"/>
<path opacity="0.4" d="M333 191C333 190.448 333.471 190 334.052 190H392.948C393.529 190 394 190.448 394 191C394 191.552 393.529 192 392.948 192H334.052C333.471 192 333 191.552 333 191Z" fill="#CCCCCC"/>
<path opacity="0.4" d="M333 208.5C333 207.948 333.401 207.5 333.897 207.5H384.103C384.599 207.5 385 207.948 385 208.5C385 209.052 384.599 209.5 384.103 209.5H333.897C333.401 209.5 333 209.052 333 208.5Z" fill="#CCCCCC"/>
<path opacity="0.4" d="M333 224C333 223.448 333.471 223 334.052 223H392.948C393.529 223 394 223.448 394 224C394 224.552 393.529 225 392.948 225H334.052C333.471 225 333 224.552 333 224Z" fill="#CCCCCC"/>
<path opacity="0.4" d="M529 175.5C529 174.948 529.461 174.5 530.029 174.5H587.643C588.212 174.5 588.672 174.948 588.672 175.5C588.672 176.052 588.212 176.5 587.643 176.5H530.029C529.461 176.5 529 176.052 529 175.5Z" fill="#CCCCCC"/>
<path opacity="0.4" d="M529 191C529 190.448 529.54 190 530.207 190H597.793C598.46 190 599 190.448 599 191C599 191.552 598.46 192 597.793 192H530.207C529.54 192 529 191.552 529 191Z" fill="#CCCCCC"/>
<path opacity="0.4" d="M529 208.5C529 207.948 529.461 207.5 530.029 207.5H587.643C588.212 207.5 588.672 207.948 588.672 208.5C588.672 209.052 588.212 209.5 587.643 209.5H530.029C529.461 209.5 529 209.052 529 208.5Z" fill="#CCCCCC"/>
<path opacity="0.4" d="M529 224C529 223.448 529.54 223 530.207 223H597.793C598.46 223 599 223.448 599 224C599 224.552 598.46 225 597.793 225H530.207C529.54 225 529 224.552 529 224Z" fill="#CCCCCC"/>
<path opacity="0.4" d="M608 168L708 168V182H608V168Z" fill="#D2F2FF"/>
<path opacity="0.4" d="M418 185L518 185V199H418V185Z" fill="#D2F2FF"/>
<path opacity="0.4" d="M608 185L708 185V199H608V185Z" fill="#D2F2FF"/>
<path opacity="0.4" d="M418 202L518 202V216H418V202Z" fill="#D2F2FF"/>
<path opacity="0.4" d="M608 202L708 202V216H608V202Z" fill="#D2F2FF"/>
<path opacity="0.4" d="M418 219L518 219V233H418V219Z" fill="#D2F2FF"/>
<path opacity="0.4" d="M608 219L708 219V233H608V219Z" fill="#D2F2FF"/>
<path opacity="0.1" d="M522 150L708 150V162H522V150Z" fill="#CCCCCC"/>
<path opacity="0.4" d="M615 77.5C615 76.6716 616.109 76 617.476 76H708.524C709.891 76 711 76.6716 711 77.5C711 78.3284 709.891 79 708.524 79H617.476C616.109 79 615 78.3284 615 77.5Z" fill="#CCCCCC"/>
<g filter="url(#filter5_d_1990_22364)">
<path d="M445.773 289.17C445.773 317.889 422.492 341.17 393.773 341.17C365.055 341.17 341.773 317.889 341.773 289.17C341.773 260.451 365.055 237.17 393.773 237.17C422.492 237.17 445.773 260.451 445.773 289.17Z" fill="white"/>
</g>
<g filter="url(#filter6_d_1990_22364)">
<path d="M577.909 289.17C577.909 317.889 554.628 341.17 525.909 341.17C497.19 341.17 473.909 317.889 473.909 289.17C473.909 260.451 497.19 237.17 525.909 237.17C554.628 237.17 577.909 260.451 577.909 289.17Z" fill="white"/>
</g>
<g filter="url(#filter7_d_1990_22364)">
<path d="M708.925 289.17C708.925 317.889 685.644 341.17 656.925 341.17C628.206 341.17 604.925 317.889 604.925 289.17C604.925 260.451 628.206 237.17 656.925 237.17C685.644 237.17 708.925 260.451 708.925 289.17Z" fill="white"/>
</g>
<path d="M394.663 274.124C387.407 274.124 381.257 278.939 379.351 285.462C377.695 282.002 374.105 279.578 369.97 279.578C364.284 279.578 359.609 284.153 359.609 289.719C359.609 295.285 364.284 299.862 369.97 299.862C374.105 299.862 377.695 297.437 379.351 293.976C381.257 300.5 387.407 305.316 394.663 305.316C401.865 305.316 407.983 300.573 409.938 294.122C411.625 297.504 415.171 299.862 419.247 299.862C424.933 299.862 429.609 295.285 429.609 289.719C429.609 284.153 424.933 279.578 419.247 279.578C415.171 279.578 411.625 281.934 409.938 285.316C407.983 278.866 401.865 274.124 394.663 274.124ZM394.663 280.077C400.14 280.077 404.515 284.358 404.515 289.719C404.515 295.08 400.14 299.363 394.663 299.363C389.186 299.363 384.812 295.08 384.812 289.719C384.812 284.358 389.186 280.077 394.663 280.077ZM369.97 285.531C372.37 285.531 374.251 287.37 374.251 289.719C374.251 292.068 372.37 293.909 369.97 293.909C367.57 293.909 365.691 292.068 365.691 289.719C365.691 287.37 367.57 285.531 369.97 285.531ZM419.247 285.531C421.646 285.531 423.527 287.37 423.527 289.719C423.527 292.068 421.646 293.909 419.247 293.909C416.847 293.909 414.968 292.068 414.968 289.719C414.968 287.37 416.847 285.531 419.247 285.531Z" fill="#0082C9"/>
<path d="M528.411 277.425C524.522 277.425 521.047 279.212 518.752 282.017C517.903 280.708 517.409 279.143 517.409 277.462C517.409 272.857 521.114 269.124 525.683 269.124C530.253 269.124 533.957 272.857 533.957 277.462C533.957 277.877 533.927 278.285 533.869 278.684C532.219 277.877 530.368 277.425 528.411 277.425Z" fill="#1D2D44"/>
<path d="M534.9 279.25C535.538 279.641 536.138 280.087 536.695 280.582C537.622 281.408 538.427 282.37 539.078 283.437C540.256 282.909 541.554 282.602 542.918 282.57C542.273 278.663 538.933 275.674 534.888 275.611C535.006 276.21 535.068 276.829 535.068 277.462C535.068 278.074 535.01 278.671 534.9 279.25Z" fill="#1D2D44"/>
<path d="M518.048 282.963C517.152 281.702 516.555 280.208 516.364 278.59C516.183 278.593 516.002 278.601 515.823 278.615C514.966 278.681 514.142 278.869 513.369 279.162C512.809 279.374 512.275 279.641 511.774 279.957C510.468 280.782 509.388 281.937 508.649 283.306C508.385 283.796 508.165 284.313 507.994 284.853C507.718 285.72 507.57 286.644 507.57 287.603C507.57 290.317 508.76 292.751 510.643 294.403C511.456 292.594 513.151 291.273 515.175 290.996C515.422 290.963 515.673 290.944 515.928 290.943C515.907 290.644 515.896 290.342 515.896 290.037C515.896 287.416 516.69 284.981 518.048 282.963Z" fill="#1D2D44"/>
<path d="M516.056 292.063C516.027 292.062 515.997 292.062 515.967 292.062C515.772 292.062 515.578 292.074 515.389 292.097C513.633 292.313 512.174 293.498 511.555 295.106C511.415 295.468 511.318 295.852 511.27 296.251C511.247 296.441 511.235 296.634 511.235 296.831C511.235 297.934 511.607 298.949 512.231 299.757C513.096 300.878 514.448 301.6 515.967 301.6C517.66 301.6 519.144 300.704 519.981 299.358C517.939 297.483 516.517 294.935 516.056 292.063Z" fill="#1D2D44"/>
<path d="M517.315 273.176C516.75 272.92 516.123 272.777 515.464 272.777C512.969 272.777 510.946 274.815 510.946 277.33C510.946 277.907 511.053 278.46 511.248 278.969C512.722 278.053 514.449 277.511 516.298 277.471L516.298 277.462C516.298 275.919 516.665 274.463 517.315 273.176Z" fill="#1D2D44"/>
<path d="M550.141 299.995C552.037 298.152 553.217 295.565 553.217 292.7C553.217 292.329 553.197 291.963 553.159 291.603C553.178 291.602 553.198 291.602 553.218 291.602C555.831 291.602 557.95 293.737 557.95 296.371C557.95 299.005 555.831 301.14 553.218 301.14C552.043 301.14 550.968 300.709 550.141 299.995Z" fill="#1D2D44"/>
<path d="M537.24 298.977C537.157 299.06 537.072 299.142 536.987 299.223C538.593 300.767 540.767 301.715 543.161 301.715C548.101 301.715 552.106 297.679 552.106 292.7C552.106 287.722 548.101 283.686 543.161 283.686C541.903 283.686 540.706 283.948 539.62 284.42C540.457 286.112 540.927 288.019 540.927 290.037C540.927 293.52 539.526 296.673 537.261 298.955C537.254 298.962 537.247 298.97 537.24 298.977Z" fill="#1D2D44"/>
<path d="M506.843 284.82C502.43 284.998 498.906 288.66 498.906 293.151C498.906 297.756 502.611 301.49 507.18 301.49C508.683 301.49 510.091 301.086 511.306 300.381C510.564 299.394 510.125 298.164 510.125 296.831C510.125 296.388 510.173 295.957 510.265 295.542C507.946 293.686 506.459 290.819 506.459 287.603C506.459 286.638 506.593 285.704 506.843 284.82Z" fill="#1D2D44"/>
<path d="M539.816 290.037C539.816 296.384 534.71 301.529 528.411 301.529C522.113 301.529 517.007 296.384 517.007 290.037C517.007 283.69 522.113 278.544 528.411 278.544C534.71 278.544 539.816 283.69 539.816 290.037Z" fill="#1D2D44"/>
<path d="M641.507 306.526C638.695 305.528 637.098 302.823 637.814 300.279C638.16 299.052 639.35 296.866 642.119 295.804C641.005 292.916 641.717 289.559 643.905 287.382C648.828 282.484 655.016 286.622 655.627 287.675C656.295 284.268 659.551 281.159 660.72 280.388C668.303 275.38 678.32 280.805 678.643 289.204C678.711 290.995 678.356 293.043 678.099 294.332C678.356 294.267 679.575 293.249 682.192 293.655C689.226 294.745 689.866 305.122 682.832 307.11C676.437 307.11 667.485 307.11 667.485 307.11C667.485 307.11 663.068 305.275 663.068 301.217C663.068 298.089 665.425 295.759 668.156 295.759H669.022C667.325 296.56 666.207 298.632 667.198 300.71C668.444 302.829 671.857 302.832 673.118 300.773C673.727 299.78 674.019 297.744 673.4 296.101C672.298 293.17 669.007 291.25 665.801 291.261C656.905 291.292 653.939 303.922 646.309 306.464C644.955 306.916 642.683 306.945 641.507 306.527L641.507 306.526ZM632.956 288.151C630.877 288.151 630.398 286.316 631.037 285.399C631.297 284.894 632.027 284.481 632.636 284.481C633.435 284.481 633.755 284.787 633.915 284.94C633.915 282.799 634.717 281.26 636.153 280.353C637.754 279.341 639.67 279.283 641.349 279.636C641.349 278.977 641.457 278.601 641.588 277.907C642.088 275.263 644.035 273.185 646.435 271.947C648.142 271.066 651.292 271.041 652.861 271.63C655.432 272.593 657.201 274.442 658.017 277.017C658.273 277.824 658.424 278.707 658.533 278.977C656.615 280.2 655.336 282.188 654.561 283.893C648.462 281.729 643.027 282.952 640.629 288.151C638.018 288.151 635.567 288.151 632.956 288.151Z" fill="url(#paint11_linear_1990_22364)"/>
<rect width="152" height="44" transform="translate(332 46)" fill="white"/>
<rect x="332.5" y="49.5" width="37" height="37" rx="3.5" fill="#EFEFEF" stroke="#CCCCCC"/>
<path opacity="0.4" d="M382 59C382 55.6863 385.307 53 386.301 53H479.699C480.693 53 484 55.6863 484 59C484 62.3137 480.693 65 479.699 65H386.301C385.307 65 382 62.3137 382 59Z" fill="#CCCCCC"/>
<path opacity="0.4" d="M382 77C382 73.6863 385.528 71 387.414 71H452.586C454.472 71 458 73.6863 458 77C458 80.3137 454.472 83 452.586 83H387.414C385.528 83 382 80.3137 382 77Z" fill="#CCCCCC"/>
<path opacity="0.7" fill-rule="evenodd" clip-rule="evenodd" d="M738.519 19.2247C742.385 19.2247 745.519 16.0907 745.519 12.2247C745.519 8.35874 742.385 5.22473 738.519 5.22473C734.653 5.22473 731.519 8.35874 731.519 12.2247C731.519 16.0907 734.653 19.2247 738.519 19.2247ZM738.519 13.3176C739.855 13.3176 740.938 12.2347 740.938 10.8988C740.938 9.56299 739.855 8.48006 738.519 8.48006C737.183 8.48006 736.1 9.56299 736.1 10.8988C736.1 12.2347 737.183 13.3176 738.519 13.3176ZM742.617 16.4504C741.59 17.5199 740.119 18.1055 738.519 18.1055C736.919 18.1055 735.444 17.5335 734.417 16.464L734.448 16.4401L734.448 16.44C734.654 16.282 734.94 16.0623 735.246 15.8823C736.065 15.4007 737.203 14.9302 738.519 14.9302C739.835 14.9302 740.973 15.4007 741.792 15.8823C742.113 16.0716 742.409 16.2912 742.617 16.4504Z" fill="white"/>
<path opacity="0.7" fill-rule="evenodd" clip-rule="evenodd" d="M883.519 38.2247C886.833 38.2247 889.519 35.5384 889.519 32.2247C889.519 28.911 886.833 26.2247 883.519 26.2247C880.205 26.2247 877.519 28.911 877.519 32.2247C877.519 35.5384 880.205 38.2247 883.519 38.2247ZM883.519 33.1615C884.664 33.1615 885.592 32.2332 885.592 31.0882C885.592 29.9432 884.664 29.015 883.519 29.015C882.374 29.015 881.446 29.9432 881.446 31.0882C881.446 32.2332 882.374 33.1615 883.519 33.1615ZM887.032 35.8467C886.151 36.7634 884.89 37.2654 883.519 37.2654C882.148 37.2654 880.883 36.7751 880.003 35.8583L880.03 35.8378C880.206 35.7024 880.452 35.5141 880.714 35.3598C881.416 34.947 882.391 34.5436 883.519 34.5436C884.647 34.5436 885.622 34.947 886.324 35.3598C886.6 35.522 886.854 35.7102 887.032 35.8467Z" fill="white"/>
</g>
<defs>
<filter id="filter0_d_1990_22364" x="5" y="31" width="379" height="260" filterUnits="userSpaceOnUse" color-interpolation-filters="sRGB">
<feFlood flood-opacity="0" result="BackgroundImageFix"/>
<feColorMatrix in="SourceAlpha" type="matrix" values="0 0 0 0 0 0 0 0 0 0 0 0 0 0 0 0 0 0 127 0" result="hardAlpha"/>
<feOffset dy="7"/>
<feGaussianBlur stdDeviation="7.5"/>
<feColorMatrix type="matrix" values="0 0 0 0 0.333333 0 0 0 0 0.333333 0 0 0 0 0.333333 0 0 0 0.1 0"/>
<feBlend mode="normal" in2="BackgroundImageFix" result="effect1_dropShadow_1990_22364"/>
<feBlend mode="normal" in="SourceGraphic" in2="effect1_dropShadow_1990_22364" result="shape"/>
</filter>
<filter id="filter1_d_1990_22364" x="134" y="15" width="384" height="290" filterUnits="userSpaceOnUse" color-interpolation-filters="sRGB">
<feFlood flood-opacity="0" result="BackgroundImageFix"/>
<feColorMatrix in="SourceAlpha" type="matrix" values="0 0 0 0 0 0 0 0 0 0 0 0 0 0 0 0 0 0 127 0" result="hardAlpha"/>
<feOffset dy="7"/>
<feGaussianBlur stdDeviation="7.5"/>
<feColorMatrix type="matrix" values="0 0 0 0 0.333333 0 0 0 0 0.333333 0 0 0 0 0.333333 0 0 0 0.1 0"/>
<feBlend mode="normal" in2="BackgroundImageFix" result="effect1_dropShadow_1990_22364"/>
<feBlend mode="normal" in="SourceGraphic" in2="effect1_dropShadow_1990_22364" result="shape"/>
</filter>
<filter id="filter2_d_1990_22364" x="666" y="31" width="384" height="260" filterUnits="userSpaceOnUse" color-interpolation-filters="sRGB">
<feFlood flood-opacity="0" result="BackgroundImageFix"/>
<feColorMatrix in="SourceAlpha" type="matrix" values="0 0 0 0 0 0 0 0 0 0 0 0 0 0 0 0 0 0 127 0" result="hardAlpha"/>
<feOffset dy="7"/>
<feGaussianBlur stdDeviation="7.5"/>
<feColorMatrix type="matrix" values="0 0 0 0 0.333333 0 0 0 0 0.333333 0 0 0 0 0.333333 0 0 0 0.1 0"/>
<feBlend mode="normal" in2="BackgroundImageFix" result="effect1_dropShadow_1990_22364"/>
<feBlend mode="normal" in="SourceGraphic" in2="effect1_dropShadow_1990_22364" result="shape"/>
</filter>
<filter id="filter3_d_1990_22364" x="530" y="15" width="379" height="290" filterUnits="userSpaceOnUse" color-interpolation-filters="sRGB">
<feFlood flood-opacity="0" result="BackgroundImageFix"/>
<feColorMatrix in="SourceAlpha" type="matrix" values="0 0 0 0 0 0 0 0 0 0 0 0 0 0 0 0 0 0 127 0" result="hardAlpha"/>
<feOffset dy="7"/>
<feGaussianBlur stdDeviation="7.5"/>
<feColorMatrix type="matrix" values="0 0 0 0 0.333333 0 0 0 0 0.333333 0 0 0 0 0.333333 0 0 0 0.1 0"/>
<feBlend mode="normal" in2="BackgroundImageFix" result="effect1_dropShadow_1990_22364"/>
<feBlend mode="normal" in="SourceGraphic" in2="effect1_dropShadow_1990_22364" result="shape"/>
</filter>
<filter id="filter4_d_1990_22364" x="270" y="-18" width="506" height="350" filterUnits="userSpaceOnUse" color-interpolation-filters="sRGB">
<feFlood flood-opacity="0" result="BackgroundImageFix"/>
<feColorMatrix in="SourceAlpha" type="matrix" values="0 0 0 0 0 0 0 0 0 0 0 0 0 0 0 0 0 0 127 0" result="hardAlpha"/>
<feOffset dy="7"/>
<feGaussianBlur stdDeviation="12.5"/>
<feColorMatrix type="matrix" values="0 0 0 0 0.333333 0 0 0 0 0.333333 0 0 0 0 0.333333 0 0 0 0.15 0"/>
<feBlend mode="normal" in2="BackgroundImageFix" result="effect1_dropShadow_1990_22364"/>
<feBlend mode="normal" in="SourceGraphic" in2="effect1_dropShadow_1990_22364" result="shape"/>
</filter>
<filter id="filter5_d_1990_22364" x="291.773" y="207.17" width="204" height="204" filterUnits="userSpaceOnUse" color-interpolation-filters="sRGB">
<feFlood flood-opacity="0" result="BackgroundImageFix"/>
<feColorMatrix in="SourceAlpha" type="matrix" values="0 0 0 0 0 0 0 0 0 0 0 0 0 0 0 0 0 0 127 0" result="hardAlpha"/>
<feOffset dy="20"/>
<feGaussianBlur stdDeviation="25"/>
<feColorMatrix type="matrix" values="0 0 0 0 0.333333 0 0 0 0 0.333333 0 0 0 0 0.333333 0 0 0 0.15 0"/>
<feBlend mode="normal" in2="BackgroundImageFix" result="effect1_dropShadow_1990_22364"/>
<feBlend mode="normal" in="SourceGraphic" in2="effect1_dropShadow_1990_22364" result="shape"/>
</filter>
<filter id="filter6_d_1990_22364" x="423.909" y="207.17" width="204" height="204" filterUnits="userSpaceOnUse" color-interpolation-filters="sRGB">
<feFlood flood-opacity="0" result="BackgroundImageFix"/>
<feColorMatrix in="SourceAlpha" type="matrix" values="0 0 0 0 0 0 0 0 0 0 0 0 0 0 0 0 0 0 127 0" result="hardAlpha"/>
<feOffset dy="20"/>
<feGaussianBlur stdDeviation="25"/>
<feColorMatrix type="matrix" values="0 0 0 0 0.333333 0 0 0 0 0.333333 0 0 0 0 0.333333 0 0 0 0.15 0"/>
<feBlend mode="normal" in2="BackgroundImageFix" result="effect1_dropShadow_1990_22364"/>
<feBlend mode="normal" in="SourceGraphic" in2="effect1_dropShadow_1990_22364" result="shape"/>
</filter>
<filter id="filter7_d_1990_22364" x="554.925" y="207.17" width="204" height="204" filterUnits="userSpaceOnUse" color-interpolation-filters="sRGB">
<feFlood flood-opacity="0" result="BackgroundImageFix"/>
<feColorMatrix in="SourceAlpha" type="matrix" values="0 0 0 0 0 0 0 0 0 0 0 0 0 0 0 0 0 0 127 0" result="hardAlpha"/>
<feOffset dy="20"/>
<feGaussianBlur stdDeviation="25"/>
<feColorMatrix type="matrix" values="0 0 0 0 0.333333 0 0 0 0 0.333333 0 0 0 0 0.333333 0 0 0 0.15 0"/>
<feBlend mode="normal" in2="BackgroundImageFix" result="effect1_dropShadow_1990_22364"/>
<feBlend mode="normal" in="SourceGraphic" in2="effect1_dropShadow_1990_22364" result="shape"/>
</filter>
<linearGradient id="paint0_linear_1990_22364" x1="726.054" y1="73" x2="726.054" y2="148.182" gradientUnits="userSpaceOnUse">
<stop stop-color="#FFF9F6"/>
<stop offset="1" stop-color="#FEF5F0"/>
</linearGradient>
<linearGradient id="paint1_linear_1990_22364" x1="679.352" y1="114.395" x2="700.041" y2="148.068" gradientUnits="userSpaceOnUse">
<stop stop-color="#BDECFF"/>
<stop offset="1" stop-color="#8EDFFF"/>
</linearGradient>
<linearGradient id="paint2_linear_1990_22364" x1="701.536" y1="107.538" x2="671.847" y2="136.21" gradientUnits="userSpaceOnUse">
<stop stop-color="#CFF1FF"/>
<stop offset="1" stop-color="#8DDEFF"/>
</linearGradient>
<linearGradient id="paint3_linear_1990_22364" x1="742.536" y1="118.788" x2="712.322" y2="147.438" gradientUnits="userSpaceOnUse">
<stop stop-color="#CFF1FF"/>
<stop offset="1" stop-color="#8DDEFF"/>
</linearGradient>
<linearGradient id="paint4_linear_1990_22364" x1="562" y1="43.4375" x2="597.62" y2="101.731" gradientUnits="userSpaceOnUse">
<stop stop-color="#FFC671"/>
<stop offset="0.59375" stop-color="#FF7541"/>
<stop offset="1" stop-color="#FF6F3D"/>
</linearGradient>
<linearGradient id="paint5_linear_1990_22364" x1="594.5" y1="56" x2="594.5" y2="84.3205" gradientUnits="userSpaceOnUse">
<stop stop-color="#FFF9F6"/>
<stop offset="1" stop-color="#FEF5F0"/>
</linearGradient>
<linearGradient id="paint6_linear_1990_22364" x1="599.108" y1="58.3921" x2="575.76" y2="93.1514" gradientUnits="userSpaceOnUse">
<stop stop-color="#FFD5BD"/>
<stop offset="1" stop-color="#FF6F3D"/>
</linearGradient>
<linearGradient id="paint7_linear_1990_22364" x1="617.814" y1="63.4405" x2="597.113" y2="94.2564" gradientUnits="userSpaceOnUse">
<stop stop-color="#FFC793"/>
<stop offset="1" stop-color="#FF6F3D"/>
</linearGradient>
<linearGradient id="paint8_linear_1990_22364" x1="776.998" y1="98.7251" x2="776.998" y2="193" gradientUnits="userSpaceOnUse">
<stop stop-color="#FFF9F6"/>
<stop offset="1" stop-color="#FEF5F0"/>
</linearGradient>
<linearGradient id="paint9_linear_1990_22364" x1="792" y1="107.758" x2="715.62" y2="223.456" gradientUnits="userSpaceOnUse">
<stop stop-color="#FFD5BD"/>
<stop offset="1" stop-color="#FF6F3D"/>
</linearGradient>
<linearGradient id="paint10_linear_1990_22364" x1="855" y1="124.109" x2="786.685" y2="226.748" gradientUnits="userSpaceOnUse">
<stop stop-color="#FFC793"/>
<stop offset="1" stop-color="#FF6F3D"/>
</linearGradient>
<linearGradient id="paint11_linear_1990_22364" x1="659.286" y1="271.23" x2="659.286" y2="307.11" gradientUnits="userSpaceOnUse">
<stop stop-color="#FAD853"/>
<stop offset="1" stop-color="#FFA411"/>
</linearGradient>
<clipPath id="clip0_1990_22364">
<rect width="1065" height="390" fill="white"/>
</clipPath>
<clipPath id="clip1_1990_22364">
<rect x="115" y="79" width="211" height="176" rx="5" fill="white"/>
</clipPath>
</defs>
</svg>
