<svg width="328" height="440" viewBox="0 0 328 440" fill="none" xmlns="http://www.w3.org/2000/svg">
<g clip-path="url(#clip0_257_22577)">
<rect x="22" y="16" width="306" height="110" rx="20" fill="black" fill-opacity="0.2"/>
<rect opacity="0.3" x="44.5" y="98.5" width="57" height="57" rx="28.5" transform="rotate(-90 44.5 98.5)" stroke="white"/>
<rect opacity="0.3" x="59.6904" y="83.3097" width="26.619" height="26.619" rx="13.3095" transform="rotate(-90 59.6904 83.3097)" stroke="white"/>
<rect x="122" y="52" width="100" height="8" rx="4" fill="white" fill-opacity="0.13"/>
<rect x="122" y="70" width="170" height="4" rx="2" fill="white" fill-opacity="0.13"/>
<rect x="122" y="84" width="100" height="4" rx="2" fill="white" fill-opacity="0.13"/>
<g clip-path="url(#clip1_257_22577)">
<rect x="328" y="150" width="140" height="306" rx="20" transform="rotate(90 328 150)" fill="white"/>
<rect x="105" y="226" width="100" height="8" rx="4" fill="#E2E2E2"/>
<rect x="105" y="244" width="190" height="4" rx="2" fill="#E2E2E2"/>
<rect x="105" y="258" width="100" height="4" rx="2" fill="#E2E2E2"/>
<g clip-path="url(#clip2_257_22577)">
<rect x="45" y="241.067" width="40" height="22.9333" fill="#5D566A"/>
<ellipse cx="65.2" cy="230.8" rx="32.7333" ry="14.1333" fill="#EA6552"/>
<path d="M59.298 254.465C59.3391 254.465 59.3802 254.473 59.4212 254.49C59.4623 254.504 59.5017 254.53 59.5393 254.567L60.2272 255.291C59.926 255.685 59.5479 255.982 59.0927 256.184C58.641 256.383 58.1054 256.482 57.486 256.482C56.9179 256.482 56.408 256.386 55.9562 256.195C55.5079 256 55.1264 255.733 54.8115 255.394C54.5001 255.052 54.2605 254.648 54.0928 254.182C53.9252 253.713 53.8413 253.205 53.8413 252.658C53.8413 252.1 53.932 251.588 54.1134 251.123C54.2948 250.654 54.5497 250.25 54.8782 249.911C55.2068 249.573 55.6003 249.309 56.0589 249.121C56.5175 248.933 57.0223 248.839 57.5732 248.839C57.8539 248.839 58.1174 248.864 58.3638 248.916C58.6136 248.963 58.8463 249.032 59.0619 249.121C59.2775 249.206 59.476 249.311 59.6574 249.434C59.8388 249.557 59.9996 249.691 60.1399 249.834L59.5547 250.62C59.5171 250.668 59.4726 250.712 59.4212 250.753C59.3699 250.791 59.298 250.81 59.2056 250.81C59.144 250.81 59.0859 250.796 59.0311 250.769C58.9764 250.741 58.9182 250.709 58.8566 250.671C58.795 250.63 58.7265 250.587 58.6512 250.543C58.5794 250.495 58.4921 250.452 58.3894 250.414C58.2902 250.373 58.1721 250.339 58.0352 250.312C57.9018 250.284 57.7444 250.271 57.563 250.271C57.2755 250.271 57.012 250.324 56.7724 250.43C56.5363 250.536 56.331 250.692 56.1564 250.897C55.9853 251.099 55.8519 251.349 55.756 251.646C55.6636 251.941 55.6174 252.278 55.6174 252.658C55.6174 253.041 55.6688 253.382 55.7714 253.679C55.8775 253.977 56.0196 254.229 56.1975 254.434C56.3789 254.636 56.5894 254.79 56.8289 254.896C57.0685 255.002 57.3251 255.055 57.5989 255.055C57.7563 255.055 57.9001 255.048 58.0301 255.034C58.1602 255.017 58.2816 254.992 58.3946 254.957C58.5075 254.92 58.6136 254.872 58.7128 254.814C58.8121 254.752 58.913 254.675 59.0157 254.583C59.0568 254.549 59.1013 254.521 59.1492 254.501C59.1971 254.477 59.2467 254.465 59.298 254.465Z" fill="white"/>
<path d="M63.4178 252.437C63.6539 252.437 63.8541 252.408 64.0184 252.35C64.1861 252.288 64.323 252.204 64.429 252.098C64.5351 251.992 64.6121 251.869 64.66 251.729C64.708 251.585 64.7319 251.431 64.7319 251.267C64.7319 250.938 64.6241 250.681 64.4085 250.497C64.1963 250.312 63.8661 250.219 63.4178 250.219H62.7196L62.7196 252.437H63.4178ZM67.1035 256.4H65.5327C65.2418 256.4 65.0331 256.29 64.9064 256.071L63.6642 253.9C63.606 253.808 63.541 253.741 63.4691 253.7C63.3972 253.655 63.2946 253.633 63.1611 253.633H62.7196L62.7196 256.4H60.9846L60.9846 248.921H63.4178C63.9585 248.921 64.4188 248.977 64.7986 249.09C65.1819 249.2 65.4934 249.354 65.7329 249.552C65.9759 249.751 66.1521 249.985 66.2616 250.255C66.3712 250.526 66.4259 250.82 66.4259 251.138C66.4259 251.381 66.3934 251.611 66.3284 251.826C66.2634 252.042 66.1675 252.242 66.0409 252.427C65.9143 252.608 65.7569 252.771 65.5686 252.914C65.3838 253.058 65.17 253.176 64.927 253.269C65.0399 253.327 65.146 253.4 65.2452 253.489C65.3445 253.575 65.4335 253.678 65.5122 253.797L67.1035 256.4Z" fill="white"/>
<path d="M76.1405 248.921L76.1405 256.4H74.6108L74.6108 252.098C74.6108 251.999 74.6125 251.891 74.6159 251.775C74.6228 251.658 74.633 251.54 74.6467 251.421L72.6601 255.265C72.5985 255.385 72.5147 255.476 72.4086 255.538C72.3059 255.599 72.1878 255.63 72.0544 255.63H71.8182C71.6848 255.63 71.565 255.599 71.4589 255.538C71.3562 255.476 71.2741 255.385 71.2125 255.265L69.2259 251.41C69.2362 251.534 69.2447 251.655 69.2516 251.775C69.2584 251.891 69.2618 251.999 69.2618 252.098L69.2618 256.4H67.7321L67.7321 248.921H69.0565C69.1318 248.921 69.1968 248.922 69.2516 248.926C69.3098 248.929 69.3611 248.939 69.4056 248.957C69.4501 248.974 69.4894 249.001 69.5236 249.039C69.5613 249.073 69.5972 249.123 69.6314 249.188L71.5564 252.981C71.6249 253.111 71.6899 253.246 71.7515 253.387C71.8165 253.527 71.8781 253.671 71.9363 253.818C71.9945 253.667 72.0544 253.52 72.116 253.376C72.181 253.233 72.2494 253.096 72.3213 252.966L74.2412 249.188C74.2754 249.123 74.3096 249.073 74.3438 249.039C74.3815 249.001 74.4226 248.974 74.467 248.957C74.5115 248.939 74.5612 248.929 74.6159 248.926C74.6741 248.922 74.7408 248.921 74.8161 248.921H76.1405Z" fill="white"/>
<path d="M55.9172 235.76C55.8921 235.804 55.8649 235.836 55.8357 235.857C55.8085 235.876 55.7741 235.885 55.7323 235.885C55.6884 235.885 55.6404 235.87 55.5882 235.838C55.538 235.805 55.4775 235.768 55.4064 235.729C55.3354 235.689 55.2519 235.653 55.1558 235.622C55.0618 235.589 54.95 235.572 54.8205 235.572C54.7035 235.572 54.6012 235.587 54.5134 235.616C54.4257 235.643 54.3515 235.682 54.291 235.732C54.2325 235.782 54.1886 235.842 54.1594 235.913C54.1301 235.982 54.1155 236.059 54.1155 236.142C54.1155 236.249 54.1447 236.338 54.2032 236.409C54.2638 236.48 54.3432 236.54 54.4414 236.59C54.5395 236.64 54.6513 236.685 54.7766 236.725C54.902 236.765 55.0304 236.808 55.162 236.853C55.2936 236.897 55.4221 236.95 55.5474 237.01C55.6728 237.069 55.7845 237.144 55.8827 237.236C55.9809 237.326 56.0592 237.436 56.1177 237.568C56.1783 237.699 56.2086 237.859 56.2086 238.047C56.2086 238.252 56.1731 238.444 56.102 238.624C56.0331 238.801 55.9307 238.957 55.795 239.091C55.6613 239.222 55.4973 239.327 55.303 239.404C55.1088 239.479 54.8863 239.517 54.6356 239.517C54.4915 239.517 54.3495 239.502 54.2095 239.473C54.0695 239.446 53.9348 239.406 53.8053 239.354C53.6779 239.302 53.5578 239.239 53.445 239.166C53.3322 239.093 53.2319 239.011 53.1442 238.921L53.3917 238.517C53.4126 238.488 53.4397 238.464 53.4732 238.445C53.5066 238.424 53.5421 238.414 53.5797 238.414C53.6319 238.414 53.6883 238.436 53.7489 238.48C53.8095 238.521 53.8815 238.568 53.9651 238.621C54.0487 238.673 54.1458 238.721 54.2565 238.765C54.3693 238.807 54.504 238.827 54.6607 238.827C54.9009 238.827 55.0868 238.771 55.2184 238.658C55.35 238.543 55.4158 238.379 55.4158 238.166C55.4158 238.047 55.3855 237.95 55.325 237.875C55.2665 237.8 55.1881 237.737 55.09 237.687C54.9918 237.635 54.88 237.591 54.7547 237.555C54.6294 237.52 54.5019 237.481 54.3724 237.439C54.2429 237.398 54.1155 237.348 53.9902 237.289C53.8648 237.231 53.7531 237.154 53.6549 237.06C53.5567 236.966 53.4773 236.849 53.4168 236.709C53.3583 236.567 53.329 236.393 53.329 236.186C53.329 236.021 53.3614 235.86 53.4262 235.704C53.493 235.547 53.5891 235.408 53.7144 235.287C53.8398 235.166 53.9943 235.069 54.1782 234.995C54.362 234.922 54.573 234.886 54.8111 234.886C55.0785 234.886 55.325 234.928 55.5506 235.011C55.7762 235.095 55.9683 235.212 56.1271 235.362L55.9172 235.76Z" fill="white"/>
<path d="M60.4594 238.787C60.6224 238.787 60.7675 238.76 60.895 238.705C61.0245 238.651 61.1331 238.575 61.2208 238.477C61.3086 238.378 61.3754 238.259 61.4214 238.119C61.4694 237.979 61.4934 237.823 61.4934 237.649L61.4934 234.936H62.3363L62.3363 237.649C62.3363 237.919 62.2924 238.168 62.2047 238.398C62.119 238.626 61.9948 238.823 61.8318 238.99C61.671 239.155 61.4746 239.285 61.2428 239.379C61.0109 239.471 60.7498 239.517 60.4594 239.517C60.167 239.517 59.9048 239.471 59.673 239.379C59.4411 239.285 59.2437 239.155 59.0808 238.99C58.9199 238.823 58.7956 238.626 58.7079 238.398C58.6222 238.168 58.5794 237.919 58.5794 237.649L58.5794 234.936H59.4223L59.4223 237.646C59.4223 237.82 59.4453 237.976 59.4912 238.116C59.5393 238.256 59.6072 238.376 59.6949 238.477C59.7847 238.575 59.8933 238.651 60.0208 238.705C60.1503 238.76 60.2965 238.787 60.4594 238.787Z" fill="white"/>
<path d="M65.8249 239.467H64.9789L64.9789 234.936H65.8249L65.8249 239.467Z" fill="white"/>
<path d="M71.6959 235.628H70.3298L70.3298 239.467H69.4869L69.4869 235.628H68.1208L68.1208 234.936H71.6959L71.6959 235.628Z" fill="white"/>
<path d="M74.8268 235.606L74.8268 236.863H76.4123L76.4123 237.511H74.8268L74.8268 238.793H76.8384L76.8384 239.467H73.9808L73.9808 234.936H76.8384L76.8384 235.606H74.8268Z" fill="white"/>
</g>
<mask id="path-15-inside-1_257_22577" fill="white">
<path d="M41 167H309V207H41V167Z"/>
</mask>
<path d="M309 206.5H41V207.5H309V206.5Z" fill="#D0D7DE" mask="url(#path-15-inside-1_257_22577)"/>
<rect x="41.25" y="167.25" width="31.5" height="31.5" rx="1.75" stroke="#DEDEDF" stroke-width="0.5"/>
<path fill-rule="evenodd" clip-rule="evenodd" d="M55.6311 193.145L46.3904 188.863C45.6033 188.489 45.6033 187.911 46.3904 187.571L49.6075 186.076L55.5968 188.863C56.384 189.237 57.6503 189.237 58.4033 188.863L64.3926 186.076L67.6097 187.571C68.3968 187.945 68.3968 188.523 67.6097 188.863L58.369 193.145C57.6503 193.485 56.384 193.485 55.6311 193.145Z" fill="#FF6F3D"/>
<path fill-rule="evenodd" clip-rule="evenodd" d="M55.6011 187.846L46.3886 183.559C45.6039 183.185 45.6039 182.606 46.3886 182.266L49.5277 180.803L55.6011 183.627C56.3859 184.001 57.6483 184.001 58.399 183.627L64.4724 180.803L67.6115 182.266C68.3962 182.64 68.3962 183.219 67.6115 183.559L58.399 187.846C57.6142 188.22 56.3518 188.22 55.6011 187.846Z" fill="#95C038"/>
<path fill-rule="evenodd" clip-rule="evenodd" d="M55.6011 182.602L46.3886 178.377C45.6039 178.008 45.6039 177.438 46.3886 177.102L55.6011 172.877C56.3859 172.508 57.6483 172.508 58.399 172.877L67.6115 177.102C68.3962 177.471 68.3962 178.041 67.6115 178.377L58.399 182.602C57.6142 182.937 56.3518 182.937 55.6011 182.602Z" fill="#5DC0E8"/>
<path d="M86.3174 190.211C84.9287 190.211 83.8184 189.792 82.9863 188.954C82.1602 188.11 81.7471 186.994 81.7471 185.605C81.7471 184.094 82.1777 182.913 83.0391 182.063C83.9062 181.214 85.0723 180.789 86.5371 180.789C87.9434 180.789 89.0391 181.202 89.8242 182.028C90.6094 182.854 91.002 184 91.002 185.465C91.002 186.9 90.5771 188.052 89.7275 188.919C88.8838 189.78 87.7471 190.211 86.3174 190.211ZM86.4141 182.415C85.6172 182.415 84.9873 182.693 84.5244 183.25C84.0615 183.807 83.8301 184.574 83.8301 185.553C83.8301 186.496 84.0645 187.24 84.5332 187.785C85.002 188.324 85.6289 188.594 86.4141 188.594C87.2168 188.594 87.832 188.327 88.2598 187.794C88.6934 187.261 88.9102 186.502 88.9102 185.518C88.9102 184.527 88.6934 183.763 88.2598 183.224C87.832 182.685 87.2168 182.415 86.4141 182.415ZM101.101 190H99.0615V184.929C99.0615 183.247 98.4668 182.406 97.2773 182.406C96.6562 182.406 96.1436 182.641 95.7393 183.109C95.335 183.572 95.1328 184.158 95.1328 184.867V190H93.085V181H95.1328V182.494H95.168C95.8418 181.357 96.8145 180.789 98.0859 180.789C99.0645 180.789 99.8115 181.108 100.327 181.747C100.843 182.38 101.101 183.297 101.101 184.498V190ZM105.645 190H103.597V176.676H105.645V190ZM116.104 181L112.043 191.441C111.199 193.305 110.016 194.236 108.492 194.236C108.064 194.236 107.707 194.198 107.42 194.122V192.426C107.742 192.531 108.035 192.584 108.299 192.584C109.061 192.584 109.629 192.209 110.004 191.459L110.61 189.982L107.033 181H109.292L111.437 187.539C111.46 187.621 111.513 187.838 111.595 188.189H111.639C111.668 188.055 111.721 187.844 111.797 187.557L114.047 181H116.104ZM121.315 190.211C119.927 190.211 118.816 189.792 117.984 188.954C117.158 188.11 116.745 186.994 116.745 185.605C116.745 184.094 117.176 182.913 118.037 182.063C118.904 181.214 120.07 180.789 121.535 180.789C122.941 180.789 124.037 181.202 124.822 182.028C125.607 182.854 126 184 126 185.465C126 186.9 125.575 188.052 124.726 188.919C123.882 189.78 122.745 190.211 121.315 190.211ZM121.412 182.415C120.615 182.415 119.985 182.693 119.522 183.25C119.06 183.807 118.828 184.574 118.828 185.553C118.828 186.496 119.062 187.24 119.531 187.785C120 188.324 120.627 188.594 121.412 188.594C122.215 188.594 122.83 188.327 123.258 187.794C123.691 187.261 123.908 186.502 123.908 185.518C123.908 184.527 123.691 183.763 123.258 183.224C122.83 182.685 122.215 182.415 121.412 182.415ZM132.873 178.337C132.598 178.179 132.284 178.1 131.933 178.1C130.942 178.1 130.447 178.659 130.447 179.778V181H132.539V182.6H130.456V190H128.417V182.6H126.879V181H128.417V179.541C128.417 178.592 128.728 177.845 129.349 177.3C129.97 176.749 130.746 176.474 131.678 176.474C132.182 176.474 132.58 176.529 132.873 176.641V178.337ZM139.078 178.337C138.803 178.179 138.489 178.1 138.138 178.1C137.147 178.1 136.652 178.659 136.652 179.778V181H138.744V182.6H136.661V190H134.622V182.6H133.084V181H134.622V179.541C134.622 178.592 134.933 177.845 135.554 177.3C136.175 176.749 136.951 176.474 137.883 176.474C138.387 176.474 138.785 176.529 139.078 176.641V178.337ZM141.223 179.11C140.889 179.11 140.602 179.002 140.361 178.785C140.127 178.568 140.01 178.293 140.01 177.959C140.01 177.625 140.127 177.347 140.361 177.124C140.602 176.901 140.889 176.79 141.223 176.79C141.568 176.79 141.861 176.901 142.102 177.124C142.342 177.347 142.462 177.625 142.462 177.959C142.462 178.275 142.342 178.548 142.102 178.776C141.861 178.999 141.568 179.11 141.223 179.11ZM142.233 190H140.194V181H142.233V190ZM151.348 189.587C150.627 190.003 149.774 190.211 148.79 190.211C147.454 190.211 146.376 189.795 145.556 188.963C144.735 188.125 144.325 187.041 144.325 185.711C144.325 184.229 144.765 183.039 145.644 182.143C146.528 181.24 147.709 180.789 149.186 180.789C150.006 180.789 150.729 180.933 151.356 181.22V183.118C150.729 182.649 150.062 182.415 149.353 182.415C148.491 182.415 147.785 182.708 147.234 183.294C146.684 183.874 146.408 184.636 146.408 185.579C146.408 186.511 146.666 187.246 147.182 187.785C147.703 188.324 148.4 188.594 149.273 188.594C150.006 188.594 150.697 188.333 151.348 187.812V189.587ZM160.998 186.054H154.863C154.887 186.886 155.142 187.527 155.628 187.979C156.12 188.43 156.794 188.655 157.649 188.655C158.61 188.655 159.492 188.368 160.295 187.794V189.437C159.475 189.953 158.391 190.211 157.043 190.211C155.719 190.211 154.679 189.804 153.923 188.989C153.173 188.169 152.798 187.018 152.798 185.535C152.798 184.135 153.211 182.995 154.037 182.116C154.869 181.231 155.9 180.789 157.131 180.789C158.361 180.789 159.313 181.185 159.987 181.976C160.661 182.767 160.998 183.865 160.998 185.271V186.054ZM159.029 184.612C159.023 183.88 158.851 183.312 158.511 182.907C158.171 182.497 157.702 182.292 157.104 182.292C156.519 182.292 156.021 182.506 155.61 182.934C155.206 183.361 154.957 183.921 154.863 184.612H159.029ZM167.678 185.834H162.879V184.331H167.678V185.834ZM169.62 189.719V187.829C170.382 188.409 171.223 188.699 172.143 188.699C173.373 188.699 173.988 188.336 173.988 187.609C173.988 187.404 173.936 187.231 173.83 187.091C173.725 186.944 173.581 186.815 173.399 186.704C173.224 186.593 173.013 186.493 172.767 186.405C172.526 186.317 172.257 186.218 171.958 186.106C171.589 185.96 171.255 185.805 170.956 185.641C170.663 185.477 170.417 185.292 170.218 185.087C170.024 184.876 169.878 184.639 169.778 184.375C169.679 184.111 169.629 183.804 169.629 183.452C169.629 183.019 169.731 182.638 169.937 182.31C170.142 181.976 170.417 181.697 170.763 181.475C171.108 181.246 171.501 181.076 171.94 180.965C172.38 180.848 172.834 180.789 173.303 180.789C174.135 180.789 174.879 180.915 175.535 181.167V182.951C174.902 182.518 174.176 182.301 173.355 182.301C173.098 182.301 172.863 182.327 172.652 182.38C172.447 182.433 172.271 182.506 172.125 182.6C171.979 182.693 171.864 182.808 171.782 182.942C171.7 183.071 171.659 183.215 171.659 183.373C171.659 183.566 171.7 183.73 171.782 183.865C171.864 184 171.984 184.12 172.143 184.226C172.307 184.325 172.5 184.419 172.723 184.507C172.951 184.589 173.212 184.68 173.505 184.779C173.892 184.937 174.237 185.099 174.542 185.263C174.853 185.427 175.116 185.614 175.333 185.825C175.55 186.03 175.717 186.27 175.834 186.546C175.951 186.815 176.01 187.138 176.01 187.513C176.01 187.97 175.904 188.368 175.693 188.708C175.482 189.048 175.201 189.329 174.85 189.552C174.498 189.774 174.091 189.938 173.628 190.044C173.171 190.155 172.688 190.211 172.178 190.211C171.193 190.211 170.341 190.047 169.62 189.719ZM185.801 190H183.762V188.576H183.727C183.135 189.666 182.215 190.211 180.967 190.211C178.84 190.211 177.776 188.934 177.776 186.379V181H179.815V186.168C179.815 187.785 180.439 188.594 181.688 188.594C182.291 188.594 182.786 188.371 183.173 187.926C183.565 187.48 183.762 186.897 183.762 186.177V181H185.801V190ZM189.492 179.11C189.158 179.11 188.871 179.002 188.631 178.785C188.396 178.568 188.279 178.293 188.279 177.959C188.279 177.625 188.396 177.347 188.631 177.124C188.871 176.901 189.158 176.79 189.492 176.79C189.838 176.79 190.131 176.901 190.371 177.124C190.611 177.347 190.731 177.625 190.731 177.959C190.731 178.275 190.611 178.548 190.371 178.776C190.131 178.999 189.838 179.11 189.492 179.11ZM190.503 190H188.464V181H190.503V190ZM197.921 189.903C197.522 190.103 196.998 190.202 196.348 190.202C194.602 190.202 193.729 189.364 193.729 187.688V182.6H192.226V181H193.729V178.917L195.768 178.337V181H197.921V182.6H195.768V187.1C195.768 187.633 195.864 188.014 196.058 188.242C196.251 188.471 196.573 188.585 197.024 188.585C197.37 188.585 197.669 188.485 197.921 188.286V189.903ZM207.193 186.054H201.059C201.082 186.886 201.337 187.527 201.823 187.979C202.315 188.43 202.989 188.655 203.845 188.655C204.806 188.655 205.688 188.368 206.49 187.794V189.437C205.67 189.953 204.586 190.211 203.238 190.211C201.914 190.211 200.874 189.804 200.118 188.989C199.368 188.169 198.993 187.018 198.993 185.535C198.993 184.135 199.406 182.995 200.232 182.116C201.064 181.231 202.096 180.789 203.326 180.789C204.557 180.789 205.509 181.185 206.183 181.976C206.856 182.767 207.193 183.865 207.193 185.271V186.054ZM205.225 184.612C205.219 183.88 205.046 183.312 204.706 182.907C204.366 182.497 203.897 182.292 203.3 182.292C202.714 182.292 202.216 182.506 201.806 182.934C201.401 183.361 201.152 183.921 201.059 184.612H205.225ZM215.578 189.587C214.857 190.003 214.005 190.211 213.021 190.211C211.685 190.211 210.606 189.795 209.786 188.963C208.966 188.125 208.556 187.041 208.556 185.711C208.556 184.229 208.995 183.039 209.874 182.143C210.759 181.24 211.939 180.789 213.416 180.789C214.236 180.789 214.96 180.933 215.587 181.22V183.118C214.96 182.649 214.292 182.415 213.583 182.415C212.722 182.415 212.016 182.708 211.465 183.294C210.914 183.874 210.639 184.636 210.639 185.579C210.639 186.511 210.896 187.246 211.412 187.785C211.934 188.324 212.631 188.594 213.504 188.594C214.236 188.594 214.928 188.333 215.578 187.812V189.587ZM222.829 182.942C222.583 182.749 222.229 182.652 221.766 182.652C221.162 182.652 220.658 182.925 220.254 183.47C219.85 184.015 219.647 184.756 219.647 185.693V190H217.608V181H219.647V182.854H219.683C219.882 182.222 220.187 181.729 220.597 181.378C221.013 181.02 221.476 180.842 221.985 180.842C222.354 180.842 222.636 180.897 222.829 181.009V182.942ZM237.727 190H235.688V185.096C235.688 184.152 235.553 183.47 235.283 183.048C235.02 182.626 234.571 182.415 233.938 182.415C233.405 182.415 232.951 182.682 232.576 183.215C232.207 183.748 232.022 184.387 232.022 185.131V190H229.975V184.929C229.975 183.253 229.383 182.415 228.199 182.415C227.648 182.415 227.194 182.667 226.837 183.171C226.485 183.675 226.31 184.328 226.31 185.131V190H224.271V181H226.31V182.424H226.345C226.995 181.334 227.941 180.789 229.184 180.789C229.805 180.789 230.347 180.962 230.81 181.308C231.278 181.647 231.598 182.096 231.768 182.652C232.436 181.41 233.432 180.789 234.756 180.789C236.736 180.789 237.727 182.011 237.727 184.454V190Z" fill="#1F2328"/>
<rect x="251.25" y="172.75" width="37.5" height="20.5" rx="10.25" stroke="#D0D7DE" stroke-width="0.5"/>
<rect x="257" y="181.5" width="26" height="3" rx="1.5" fill="#E2E2E2"/>
</g>
<rect x="22" y="314" width="306" height="110" rx="20" fill="black" fill-opacity="0.2"/>
<rect opacity="0.3" x="61.4713" y="380.528" width="21.0574" height="21.0574" transform="rotate(-90 61.4713 380.528)" stroke="white"/>
<rect opacity="0.3" x="43.7071" y="370" width="40.0122" height="40.0122" transform="rotate(-45 43.7071 370)" stroke="white"/>
<rect x="121" y="353" width="100" height="8" rx="4" fill="white" fill-opacity="0.13"/>
<rect x="121" y="370" width="170" height="4" rx="2" fill="white" fill-opacity="0.13"/>
<rect x="121" y="383" width="100" height="4" rx="2" fill="white" fill-opacity="0.13"/>
</g>
<defs>
<clipPath id="clip0_257_22577">
<rect width="328" height="440" fill="white"/>
</clipPath>
<clipPath id="clip1_257_22577">
<rect x="328" y="150" width="140" height="306" rx="20" transform="rotate(90 328 150)" fill="white"/>
</clipPath>
<clipPath id="clip2_257_22577">
<rect width="40" height="40" fill="white" transform="translate(45 224)"/>
</clipPath>
</defs>
</svg>
