<svg width="3574" height="794" viewBox="0 0 3574 794" fill="none" xmlns="http://www.w3.org/2000/svg">
<g clip-path="url(#clip0_98_63602)">
<rect width="3574" height="794" fill="#F8F9F9"/>
<path fill-rule="evenodd" clip-rule="evenodd" d="M2517.41 -239.764L3442.4 196.477C3521.2 234.561 3521.19 293.419 3442.39 328.041L2517.34 764.282C2438.53 802.366 2311.77 802.366 2236.4 764.282L1311.41 328.041C1232.61 289.957 717.768 23 717.768 23L963.65 -227.607C1055.41 -272.435 2442.04 -274.386 2517.41 -239.764Z" fill="#EFF2F3" fill-opacity="0.7"/>
<path opacity="0.3" fill-rule="evenodd" clip-rule="evenodd" d="M2456.51 288.441L1545.27 -146.382C1466.26 -184.566 1466.26 -243.577 1545.27 -278.29L2472.8 -715.667C2568.23 -765.581 2653.37 -776.563 2771.9 -711.595L3681.96 -278.29C3760.97 -240.106 3760.97 -181.095 3681.96 -146.382L2792.29 297.795C2695.89 350.793 2606.91 354.257 2456.51 288.441Z" fill="#DAE3E6"/>
<path opacity="0.5" fill-rule="evenodd" clip-rule="evenodd" d="M1047.22 497.894L-3.63982 -3.54708C-94.7522 -47.5808 -94.7491 -115.633 -3.63308 -155.663L1065.99 -660.049C1176.04 -717.611 1274.23 -730.275 1410.92 -655.355L2460.41 -155.663C2551.53 -111.63 2551.52 -43.5777 2460.41 -3.54708L1434.43 508.681C1323.26 569.799 1220.65 573.793 1047.22 497.894Z" fill="white"/>
</g>
<defs>
<clipPath id="clip0_98_63602">
<rect width="3574" height="794" fill="white"/>
</clipPath>
</defs>
</svg>
