<svg width="540" height="192" viewBox="0 0 540 192" fill="none" xmlns="http://www.w3.org/2000/svg">
<g clip-path="url(#clip0_803_1746)">
<path d="M150.5 94.4102C150.35 96.0902 149.96 97.6502 149.33 99.0802C148.69 100.51 147.82 101.75 146.72 102.8C145.61 103.85 144.25 104.67 142.64 105.26C141.03 105.85 139.16 106.15 137.04 106.15C134.65 106.15 132.54 105.75 130.73 104.95C128.91 104.15 127.39 103.03 126.17 101.58C124.94 100.13 124.02 98.3802 123.4 96.3302C122.78 94.2802 122.47 92.0102 122.47 89.5302C122.47 87.0502 122.81 84.6602 123.49 82.6202C124.17 80.5802 125.14 78.8402 126.41 77.3902C127.68 75.9402 129.22 74.8402 131.02 74.0702C132.82 73.3002 134.86 72.9202 137.13 72.9202C139.14 72.9202 140.89 73.1702 142.38 73.6702C143.87 74.1702 145.13 74.9002 146.15 75.8402C147.17 76.7902 147.99 77.9202 148.61 79.2502C149.23 80.5802 149.69 82.0702 149.98 83.7202L143.42 84.5602C143.09 82.7002 142.47 81.2402 141.54 80.1702C140.61 79.1102 139.14 78.5802 137.13 78.5802C134.59 78.5802 132.66 79.5302 131.35 81.4402C130.04 83.3402 129.38 86.0402 129.38 89.5202C129.38 93.0002 130.08 95.7402 131.48 97.6302C132.88 99.5202 134.77 100.47 137.13 100.47C139.17 100.47 140.67 99.9502 141.63 98.9002C142.59 97.8502 143.19 96.3502 143.42 94.4002H150.51L150.5 94.4102Z" fill="#DD5928"/>
<path d="M155.06 73.7302H161.66V99.6902H176.63L175.92 105.36H155.06V73.7302Z" fill="#DD5928"/>
<path d="M193.24 106.15C190.88 106.15 188.77 105.77 186.91 105C185.05 104.23 183.47 103.12 182.17 101.68C180.87 100.23 179.87 98.4902 179.18 96.4502C178.49 94.4102 178.14 92.1102 178.14 89.5402C178.14 86.9702 178.49 84.6702 179.18 82.6302C179.87 80.5902 180.88 78.8502 182.19 77.4002C183.5 75.9502 185.09 74.8502 186.95 74.0802C188.81 73.3102 190.91 72.9302 193.24 72.9302C195.57 72.9302 197.71 73.3102 199.57 74.0802C201.43 74.8502 203 75.9602 204.29 77.4002C205.57 78.8502 206.56 80.5902 207.24 82.6302C207.92 84.6702 208.26 86.9702 208.26 89.5402C208.26 92.1102 207.93 94.4102 207.26 96.4502C206.59 98.4902 205.62 100.23 204.34 101.68C203.06 103.13 201.48 104.23 199.62 105C197.76 105.77 195.63 106.15 193.24 106.15ZM193.2 100.48C195.98 100.48 198.04 99.5402 199.4 97.6402C200.76 95.7502 201.44 93.0502 201.44 89.5302C201.44 86.0102 200.76 83.3502 199.4 81.4502C198.04 79.5502 195.97 78.5902 193.2 78.5902C190.43 78.5902 188.36 79.5402 187 81.4502C185.64 83.3502 184.96 86.0502 184.96 89.5302C184.96 93.0102 185.64 95.7502 187 97.6402C188.36 99.5302 190.43 100.48 193.2 100.48Z" fill="#DD5928"/>
<path d="M213.09 73.7302H219.69V92.5602C219.69 95.2502 220.16 97.2402 221.11 98.5402C222.05 99.8402 223.63 100.49 225.85 100.49C228.07 100.49 229.64 99.8402 230.57 98.5402C231.5 97.2402 231.97 95.2502 231.97 92.5602V73.7302H238.57V92.5602C238.57 94.9502 238.27 97.0102 237.68 98.7202C237.09 100.43 236.25 101.84 235.16 102.95C234.07 104.06 232.73 104.87 231.15 105.39C229.57 105.91 227.79 106.17 225.81 106.17C223.83 106.17 222.01 105.9 220.43 105.37C218.85 104.84 217.51 104.02 216.42 102.91C215.33 101.8 214.5 100.38 213.94 98.6402C213.38 96.9002 213.1 94.8302 213.1 92.4402V73.7502L213.09 73.7302Z" fill="#DD5928"/>
<path d="M244.41 73.7302H256.24C261.08 73.7302 264.86 75.0402 267.56 77.6702C270.26 80.3002 271.61 84.2002 271.61 89.3602C271.61 91.9902 271.23 94.2902 270.48 96.2702C269.73 98.2502 268.64 99.9202 267.22 101.28C265.8 102.64 264.07 103.66 262.04 104.34C260 105.02 257.7 105.36 255.13 105.36H244.41V73.7302ZM255.26 99.7302C256.97 99.7302 258.43 99.4902 259.65 99.0002C260.86 98.5102 261.84 97.8102 262.6 96.9002C263.35 95.9802 263.91 94.9002 264.26 93.6402C264.62 92.3902 264.79 90.9702 264.79 89.4102C264.79 87.8502 264.64 86.4802 264.33 85.2202C264.02 83.9702 263.53 82.9102 262.85 82.0502C262.17 81.1902 261.29 80.5302 260.21 80.0602C259.13 79.5902 257.81 79.3502 256.25 79.3502H251.02V99.7302H255.27H255.26Z" fill="#DD5928"/>
<path d="M304.08 94.4102C303.93 96.0902 303.54 97.6502 302.91 99.0802C302.27 100.51 301.4 101.75 300.3 102.8C299.19 103.85 297.83 104.67 296.22 105.26C294.61 105.85 292.74 106.15 290.62 106.15C288.23 106.15 286.12 105.75 284.31 104.95C282.49 104.15 280.97 103.03 279.75 101.58C278.52 100.13 277.6 98.3802 276.98 96.3302C276.36 94.2802 276.05 92.0102 276.05 89.5302C276.05 87.0502 276.39 84.6602 277.07 82.6202C277.75 80.5802 278.72 78.8402 279.99 77.3902C281.26 75.9402 282.8 74.8402 284.6 74.0702C286.4 73.3002 288.44 72.9202 290.71 72.9202C292.72 72.9202 294.47 73.1702 295.96 73.6702C297.45 74.1702 298.71 74.9002 299.73 75.8402C300.75 76.7902 301.57 77.9202 302.19 79.2502C302.81 80.5802 303.27 82.0702 303.56 83.7202L297 84.5602C296.67 82.7002 296.05 81.2402 295.12 80.1702C294.19 79.1102 292.72 78.5802 290.71 78.5802C288.17 78.5802 286.24 79.5302 284.93 81.4402C283.62 83.3402 282.96 86.0402 282.96 89.5202C282.96 93.0002 283.66 95.7402 285.06 97.6302C286.46 99.5202 288.35 100.47 290.71 100.47C292.75 100.47 294.25 99.9502 295.21 98.9002C296.17 97.8502 296.77 96.3502 297 94.4002H304.09L304.08 94.4102Z" fill="#DD5928"/>
<path d="M322.73 106.15C320.37 106.15 318.26 105.77 316.4 105C314.54 104.23 312.96 103.12 311.66 101.68C310.36 100.23 309.36 98.4902 308.67 96.4502C307.98 94.4102 307.63 92.1102 307.63 89.5402C307.63 86.9702 307.98 84.6702 308.67 82.6302C309.36 80.5902 310.37 78.8502 311.68 77.4002C312.99 75.9502 314.58 74.8502 316.44 74.0802C318.3 73.3102 320.4 72.9302 322.73 72.9302C325.06 72.9302 327.2 73.3102 329.06 74.0802C330.92 74.8502 332.49 75.9602 333.78 77.4002C335.06 78.8502 336.05 80.5902 336.73 82.6302C337.41 84.6702 337.75 86.9702 337.75 89.5402C337.75 92.1102 337.42 94.4102 336.75 96.4502C336.08 98.4902 335.11 100.23 333.83 101.68C332.55 103.13 330.97 104.23 329.11 105C327.25 105.77 325.12 106.15 322.73 106.15ZM322.69 100.48C325.47 100.48 327.53 99.5402 328.89 97.6402C330.25 95.7502 330.93 93.0502 330.93 89.5302C330.93 86.0102 330.25 83.3502 328.89 81.4502C327.53 79.5502 325.46 78.5902 322.69 78.5902C319.92 78.5902 317.85 79.5402 316.49 81.4502C315.13 83.3602 314.45 86.0502 314.45 89.5302C314.45 93.0102 315.13 95.7502 316.49 97.6402C317.85 99.5302 319.92 100.48 322.69 100.48Z" fill="#DD5928"/>
<path d="M343.19 73.7302H351.12L359 97.3402L367.11 73.7302H374.82V105.36H368.75V84.2702L361.53 105.36H356.39L349.13 84.3202V105.36H343.19V73.7302Z" fill="#DD5928"/>
<path d="M381.29 73.7302H392.59C395.01 73.7302 397.01 74.0002 398.59 74.5502C400.17 75.1002 401.42 75.8202 402.36 76.7202C403.29 77.6202 403.94 78.6702 404.31 79.8702C404.68 81.0702 404.86 82.3102 404.86 83.6102C404.86 85.0002 404.68 86.3302 404.31 87.6002C403.94 88.8702 403.29 89.9902 402.36 90.9402C401.43 91.9002 400.19 92.6602 398.64 93.2202C397.09 93.7802 395.13 94.0602 392.77 94.0602H387.81V105.36H381.3V73.7302H381.29ZM392.54 88.5702C393.69 88.5702 394.64 88.4502 395.4 88.2202C396.16 87.9902 396.75 87.6602 397.19 87.2502C397.63 86.8402 397.94 86.3302 398.1 85.7202C398.26 85.1202 398.34 84.4602 398.34 83.7502C398.34 83.0402 398.25 82.3602 398.07 81.8002C397.89 81.2402 397.58 80.7702 397.14 80.3802C396.7 80.0002 396.1 79.7002 395.35 79.4902C394.6 79.2802 393.64 79.1802 392.49 79.1802H387.79V88.5702H392.53H392.54Z" fill="#DD5928"/>
<path d="M409.02 73.7302H415.62V92.5602C415.62 95.2502 416.09 97.2402 417.04 98.5402C417.98 99.8402 419.56 100.49 421.78 100.49C424 100.49 425.57 99.8402 426.5 98.5402C427.43 97.2402 427.9 95.2502 427.9 92.5602V73.7302H434.5V92.5602C434.5 94.9502 434.2 97.0102 433.61 98.7202C433.02 100.43 432.18 101.84 431.08 102.95C429.98 104.06 428.65 104.87 427.07 105.39C425.49 105.91 423.71 106.17 421.73 106.17C419.75 106.17 417.93 105.9 416.35 105.37C414.77 104.84 413.43 104.02 412.34 102.91C411.25 101.8 410.42 100.38 409.86 98.6402C409.3 96.9002 409.02 94.8302 409.02 92.4402V73.7502V73.7302Z" fill="#DD5928"/>
<path d="M447.51 79.4402H437.99V73.7302H463.68V79.4402H454.16V105.35H447.52V79.4402H447.51Z" fill="#DD5928"/>
<path d="M467.8 73.7302H474.4V105.36H467.8V73.7302Z" fill="#DD5928"/>
<path d="M480.87 73.7302H486.81L499.83 94.4602V73.7302H506.25V105.36H500.36L487.29 84.8102V105.36H480.87V73.7302Z" fill="#DD5928"/>
<path d="M527.29 88.0402H539.43V101.42C537.81 102.93 535.87 104.09 533.63 104.92C531.38 105.75 529.07 106.16 526.67 106.16C524.16 106.16 521.97 105.76 520.09 104.96C518.21 104.16 516.66 103.04 515.42 101.59C514.18 100.14 513.25 98.3902 512.63 96.3402C512.01 94.2902 511.7 92.0202 511.7 89.5402C511.7 87.0602 512.04 84.6702 512.72 82.6302C513.4 80.5902 514.37 78.8502 515.62 77.4002C516.87 75.9502 518.4 74.8502 520.2 74.0802C522 73.3102 524.01 72.9302 526.22 72.9302C528.26 72.9302 530.01 73.1802 531.47 73.6802C532.93 74.1802 534.17 74.8802 535.19 75.7602C536.21 76.6502 537.02 77.6802 537.63 78.8602C538.23 80.0402 538.67 81.3102 538.94 82.6702L532.38 83.5102C532.2 82.7102 531.99 82.0102 531.74 81.4102C531.49 80.8102 531.13 80.2902 530.66 79.8602C530.19 79.4302 529.6 79.1102 528.89 78.8902C528.18 78.6702 527.3 78.5602 526.23 78.5602C523.66 78.5602 521.74 79.5202 520.47 81.4402C519.2 83.3602 518.56 86.0602 518.56 89.5502C518.56 93.0402 519.2 95.7702 520.49 97.6802C521.78 99.5802 523.86 100.54 526.76 100.54C528.15 100.54 529.35 100.4 530.37 100.12C531.39 99.8402 532.37 99.4002 533.32 98.8102V93.5402H527.3V88.0502L527.29 88.0402Z" fill="#DD5928"/>
<path d="M123.48 112.91H130.08V144.54H123.48V112.91Z" fill="black"/>
<path d="M136.54 112.91H142.48L155.5 133.64V112.91H161.92V144.54H156.03L142.96 123.99V144.54H136.54V112.91Z" fill="black"/>
<path d="M173.09 134.21C173.24 136.16 173.87 137.58 174.97 138.46C176.08 139.35 177.71 139.79 179.87 139.79C180.9 139.79 181.77 139.68 182.48 139.46C183.19 139.24 183.76 138.94 184.21 138.57C184.65 138.2 184.97 137.77 185.16 137.26C185.35 136.76 185.45 136.21 185.45 135.62C185.45 134.79 185.14 134.02 184.52 133.29C183.9 132.57 182.76 132.04 181.11 131.72L176.99 130.97C175.37 130.68 173.93 130.29 172.69 129.82C171.45 129.35 170.41 128.74 169.57 127.98C168.73 127.23 168.09 126.3 167.64 125.21C167.2 124.12 166.98 122.82 166.98 121.31C166.98 119.8 167.28 118.47 167.89 117.32C168.49 116.17 169.34 115.21 170.42 114.44C171.5 113.67 172.79 113.09 174.3 112.69C175.81 112.29 177.46 112.09 179.26 112.09C181.56 112.09 183.48 112.36 185.02 112.89C186.56 113.42 187.8 114.12 188.74 114.99C189.68 115.86 190.39 116.87 190.84 118.02C191.3 119.17 191.6 120.37 191.75 121.61L185.5 122.41C185.17 120.67 184.55 119.41 183.62 118.64C182.69 117.87 181.28 117.49 179.39 117.49C178.27 117.49 177.34 117.59 176.62 117.78C175.9 117.97 175.31 118.22 174.87 118.53C174.43 118.84 174.12 119.2 173.94 119.62C173.76 120.03 173.67 120.46 173.67 120.9C173.67 122.08 174 122.97 174.67 123.56C175.33 124.15 176.46 124.61 178.06 124.93L182.4 125.77C185.83 126.45 188.34 127.55 189.93 129.07C191.52 130.59 192.32 132.78 192.32 135.65C192.32 137.04 192.06 138.32 191.54 139.48C191.02 140.65 190.26 141.67 189.24 142.54C188.22 143.41 186.94 144.09 185.41 144.58C183.87 145.07 182.07 145.31 180.01 145.31C175.7 145.31 172.4 144.39 170.11 142.54C167.82 140.69 166.59 137.91 166.41 134.19H173.1L173.09 134.21Z" fill="black"/>
<path d="M196.97 112.91H203.57V144.54H196.97V112.91Z" fill="black"/>
<path d="M210.03 112.91H221.86C226.7 112.91 230.48 114.22 233.18 116.85C235.88 119.48 237.23 123.38 237.23 128.54C237.23 131.17 236.85 133.47 236.1 135.45C235.35 137.43 234.26 139.1 232.84 140.46C231.42 141.82 229.69 142.84 227.66 143.52C225.62 144.2 223.32 144.54 220.75 144.54H210.03V112.91ZM220.88 138.91C222.59 138.91 224.05 138.67 225.27 138.18C226.48 137.69 227.46 136.99 228.22 136.08C228.97 135.16 229.53 134.08 229.88 132.82C230.23 131.57 230.41 130.15 230.41 128.59C230.41 127.03 230.25 125.66 229.94 124.4C229.63 123.15 229.14 122.09 228.46 121.23C227.78 120.37 226.9 119.71 225.82 119.24C224.74 118.77 223.42 118.53 221.86 118.53H216.63V138.91H220.88Z" fill="black"/>
<path d="M242.68 112.91H264.25V118.54H249.28V125.45H263.37V131.12H249.28V138.92H265.18L264.51 144.55H242.67V112.92L242.68 112.91Z" fill="black"/>
<path d="M269.88 112.91H281.09C283.57 112.91 285.62 113.2 287.22 113.77C288.83 114.35 290.09 115.1 291.01 116.03C291.93 116.96 292.56 117.99 292.91 119.13C293.26 120.27 293.44 121.38 293.44 122.47C293.44 124.51 293.07 126.22 292.33 127.61C291.59 129 290.35 130.16 288.61 131.11L295.03 144.53H287.9L282.58 132.66H276.38V144.53H269.87V112.9L269.88 112.91ZM281.53 127.17C282.56 127.17 283.42 127.06 284.1 126.84C284.78 126.62 285.32 126.31 285.72 125.91C286.12 125.51 286.39 125.03 286.54 124.47C286.69 123.91 286.76 123.29 286.76 122.61C286.76 122.05 286.67 121.51 286.49 120.99C286.31 120.47 286.01 120.02 285.58 119.62C285.15 119.22 284.56 118.91 283.81 118.69C283.06 118.47 282.1 118.36 280.95 118.36H276.39V127.18H281.53V127.17Z" fill="black"/>
<path fill-rule="evenodd" clip-rule="evenodd" d="M87.6451 107.835C88.1731 102.228 92.6934 97.9207 98.1387 97.5071L98.1158 104.297C96.3155 104.646 94.8543 106.036 94.4453 107.867L87.6451 107.835ZM87.6568 110.105C88.2169 115.42 92.4808 119.787 98 120.28L98.0619 120.285L98.0848 113.486C96.324 113.132 94.9552 111.809 94.4968 110.137L87.6568 110.105ZM103.519 110.18C103.078 111.73 101.867 112.932 100.355 113.384L100.332 120.246C105.477 119.637 109.731 115.541 110.349 110.212L103.519 110.18ZM110.386 107.942C109.939 102.642 105.798 98.231 100.409 97.5617L100.385 104.415C102.018 104.912 103.243 106.262 103.596 107.91L110.386 107.942Z" fill="#707173"/>
<path fill-rule="evenodd" clip-rule="evenodd" d="M71.73 106.48C72.9635 92.5222 84.5099 81.9016 98.1927 81.4946L98.1619 90.629C89.1849 91.0618 81.6351 98.0812 80.82 107.34C80.8065 107.494 80.7949 107.648 80.7853 107.802L71.6467 107.759C71.6645 107.334 71.6923 106.908 71.73 106.48ZM71.6448 110.029C72.1935 123.581 82.7356 134.976 96.6 136.21C97.071 136.252 97.5404 136.281 98.0079 136.299L98.0387 127.173C97.843 127.162 97.6467 127.148 97.45 127.13C88.3257 126.322 81.3362 118.92 80.7846 110.072L71.6448 110.029ZM100.278 136.288L100.309 127.162C107.091 126.703 112.955 122.463 115.67 116.41V130.63C111.322 133.963 105.988 136.023 100.278 136.288ZM100.463 81.521L100.432 90.6604C100.511 90.6664 100.591 90.6729 100.67 90.68C107.48 91.28 113.05 95.56 115.67 101.4V87.17C111.67 84.09 106.8 82.07 101.44 81.59C101.113 81.5611 100.788 81.5382 100.463 81.521Z" fill="#707173"/>
<path fill-rule="evenodd" clip-rule="evenodd" d="M100.486 74.6873L100.515 66.038C101.273 66.0651 102.035 66.1124 102.8 66.1801C107.35 66.5801 111.67 67.6901 115.67 69.3701V78.9801C111.59 76.7101 106.99 75.2301 102.04 74.7901C101.52 74.744 101.002 74.7098 100.486 74.6873ZM64.9101 105.88C66.466 88.3266 81 75.0441 98.2158 74.6627L98.2449 66.0164C76.5845 66.3805 58.245 83.0616 56.3 105.12C56.224 105.979 56.1738 106.835 56.1488 107.686L64.7957 107.726C64.8173 107.114 64.8553 106.498 64.9101 105.88ZM64.7903 109.996L56.1417 109.956C56.6423 131.501 73.2668 149.684 95.24 151.63C96.1498 151.711 97.0553 151.762 97.9556 151.785L97.9848 143.137C97.3264 143.117 96.6646 143.078 96 143.02V143.01C78.5458 141.463 65.3145 127.084 64.7903 109.996ZM100.255 143.131L100.226 151.783C105.662 151.635 110.879 150.457 115.67 148.43V138.83C111.049 141.408 105.797 142.935 100.255 143.131Z" fill="#707173"/>
<path fill-rule="evenodd" clip-rule="evenodd" d="M123.08 12.8801H113.22L113.2 12.8701V17.3301H118.1V21.6101C117.34 22.0901 116.54 22.4401 115.71 22.6701C114.89 22.9001 113.91 23.0101 112.78 23.0101C110.43 23.0101 108.73 22.2401 107.69 20.6901C106.64 19.1401 106.12 16.9101 106.12 14.0801C106.12 11.2501 106.64 9.05008 107.67 7.49008C108.7 5.93008 110.26 5.15008 112.35 5.15008C113.21 5.15008 113.93 5.24008 114.51 5.42008C115.09 5.60008 115.57 5.86008 115.95 6.21008C116.33 6.56008 116.63 6.98008 116.83 7.47008C117.03 7.96008 117.21 8.53008 117.35 9.18008L122.68 8.50008C122.47 7.39008 122.11 6.36008 121.62 5.40008C121.13 4.44008 120.47 3.60008 119.64 2.88008C118.82 2.16008 117.81 1.60008 116.62 1.19008C115.43 0.780078 114.01 0.580078 112.35 0.580078C110.55 0.580078 108.91 0.900078 107.45 1.52008C105.98 2.14008 104.74 3.04008 103.72 4.22008C102.7 5.40008 101.91 6.81008 101.36 8.47008C100.81 10.1301 100.53 12.0701 100.53 14.0901C100.53 16.1101 100.79 17.9501 101.29 19.6201C101.8 21.2901 102.55 22.7101 103.56 23.8901C104.57 25.0701 105.84 25.9801 107.36 26.6301C108.89 27.2801 110.67 27.6001 112.71 27.6001C114.65 27.6001 116.54 27.2601 118.36 26.5901C120.19 25.9201 121.76 24.9701 123.08 23.7501V12.8801ZM135.61 26.6601C137.12 27.2901 138.84 27.6001 140.76 27.6001C142.7 27.6001 144.43 27.2801 145.94 26.6601C147.45 26.0401 148.73 25.1401 149.77 23.9601C150.82 22.7801 151.61 21.3701 152.15 19.7101C152.69 18.0501 152.96 16.1801 152.96 14.0901C152.96 12.0001 152.68 10.1301 152.13 8.47008C151.58 6.81008 150.78 5.40008 149.74 4.22008C148.7 3.04008 147.42 2.14008 145.91 1.52008C144.4 0.890078 142.65 0.580078 140.76 0.580078C138.87 0.580078 137.16 0.900078 135.65 1.52008C134.14 2.14008 132.85 3.04008 131.78 4.22008C130.71 5.40008 129.89 6.81008 129.33 8.47008C128.76 10.1301 128.48 12.0001 128.48 14.0901C128.48 16.1801 128.77 18.0501 129.33 19.7101C129.89 21.3701 130.7 22.7801 131.76 23.9601C132.81 25.1401 134.1 26.0401 135.61 26.6601ZM145.76 20.6901C144.66 22.2201 142.98 22.9901 140.72 22.9901C138.46 22.9901 136.78 22.2301 135.68 20.6901C134.57 19.1501 134.02 16.9301 134.02 14.1001C134.02 11.2701 134.58 9.08008 135.68 7.53008C136.78 5.98008 138.46 5.21008 140.72 5.21008C142.98 5.21008 144.66 5.98008 145.76 7.53008C146.87 9.08008 147.42 11.2401 147.42 14.1001C147.42 16.9601 146.86 19.1501 145.76 20.6901ZM159.19 1.25H164.55V22.34H176.72L176.14 26.95H159.18V1.25H159.19ZM191.62 1.25H182.01H182V26.95H190.71C192.8 26.95 194.67 26.67 196.33 26.12C197.98 25.57 199.39 24.74 200.54 23.64C201.7 22.53 202.58 21.18 203.19 19.57C203.8 17.96 204.11 16.09 204.11 13.95C204.11 9.75 203.02 6.59 200.82 4.45C198.62 2.32 195.56 1.25 191.62 1.25ZM194.39 21.79C193.41 22.18 192.22 22.38 190.83 22.38H190.82H187.36V5.82H191.61C192.88 5.82 193.95 6.02 194.83 6.4C195.7 6.78 196.42 7.32 196.97 8.02C197.53 8.71 197.93 9.57 198.18 10.59C198.43 11.61 198.56 12.72 198.56 13.99C198.56 15.26 198.42 16.41 198.13 17.43C197.84 18.45 197.39 19.34 196.78 20.08C196.17 20.82 195.37 21.39 194.39 21.79Z" fill="#C0A768"/>
<path fill-rule="evenodd" clip-rule="evenodd" d="M113.32 46.9301C114.36 46.0201 114.99 44.7401 115.21 43.1001L115.22 43.0901H114.42C114.19 44.5201 113.65 45.6201 112.79 46.3901C111.93 47.1701 110.81 47.5501 109.42 47.5501C107.62 47.5501 106.24 46.9301 105.27 45.6901C104.3 44.4501 103.81 42.6601 103.81 40.4101C103.81 38.1601 104.29 36.4101 105.25 35.1801C106.21 33.9501 107.55 33.3301 109.29 33.3301C110.59 33.3301 111.66 33.6801 112.49 34.3901C113.32 35.1001 113.9 36.1501 114.22 37.5501L115 37.3601C114.67 35.8301 114.01 34.6501 113.02 33.8201C112.03 32.9901 110.79 32.5701 109.29 32.5701C107.95 32.5701 106.8 32.8901 105.86 33.5201C104.92 34.1501 104.2 35.0501 103.71 36.2301C103.22 37.4101 102.97 38.8101 102.97 40.4501C102.97 42.9301 103.53 44.8601 104.66 46.2401C105.78 47.6201 107.35 48.3101 109.35 48.3101C110.96 48.3101 112.28 47.8501 113.32 46.9301ZM118.13 32.96V47.95V47.96H127.16L127.35 47.18H118.97V32.96H118.13ZM134.67 48.3101C132.64 48.3101 131.03 47.6101 129.85 46.2001C128.67 44.7901 128.08 42.8801 128.08 40.4601C128.08 38.8901 128.34 37.5201 128.87 36.3301C129.39 35.1501 130.15 34.2301 131.15 33.5701C132.14 32.9101 133.33 32.5801 134.7 32.5801C136.73 32.5801 138.34 33.2801 139.52 34.6901C140.7 36.1001 141.29 38.0101 141.29 40.4301C141.29 42.0001 141.03 43.3701 140.5 44.5601C139.97 45.7401 139.22 46.6601 138.22 47.3201C137.23 47.9801 136.04 48.3101 134.67 48.3101ZM134.67 47.5501C135.83 47.5501 136.84 47.2701 137.7 46.7201C138.56 46.1701 139.23 45.3601 139.69 44.2801C140.16 43.2101 140.39 41.9201 140.39 40.4301C140.39 38.2201 139.88 36.4801 138.87 35.2201C137.85 33.9601 136.46 33.3301 134.68 33.3301C133.52 33.3301 132.51 33.6101 131.65 34.1601C130.79 34.7101 130.12 35.5301 129.66 36.6001C129.19 37.6701 128.96 38.9601 128.96 40.4501C128.96 42.6601 129.47 44.4001 130.48 45.6601C131.49 46.9201 132.89 47.5501 134.67 47.5501ZM154.85 32.96H154.01V32.98V42.16C154.01 44 153.65 45.37 152.91 46.25C152.18 47.13 151.04 47.57 149.52 47.57C148 47.57 146.86 47.12 146.12 46.24C145.38 45.36 145.01 43.99 145.01 42.16V32.98H144.17V42.07C144.17 44.17 144.61 45.74 145.49 46.77C146.37 47.8 147.71 48.32 149.5 48.32C153.06 48.32 154.85 46.24 154.85 42.1V32.96ZM158.28 47.95V32.96H163.22C165.38 32.96 167.02 33.59 168.17 34.86C169.31 36.13 169.88 37.96 169.88 40.37C169.88 42.78 169.27 44.71 168.06 46.01C166.85 47.31 165.1 47.95 162.8 47.95H158.29H158.28ZM162.86 47.19C166.95 47.19 168.99 44.94 168.99 40.43C168.99 38.23 168.5 36.56 167.52 35.42C166.54 34.28 165.1 33.71 163.22 33.71H159.12V47.19H162.86ZM187.38 46.9301C188.42 46.0201 189.05 44.7401 189.27 43.1001L189.28 43.0901H188.48C188.25 44.5201 187.71 45.6201 186.85 46.3901C185.99 47.1701 184.87 47.5501 183.48 47.5501C181.68 47.5501 180.3 46.9301 179.33 45.6901C178.36 44.4501 177.87 42.6601 177.87 40.4101C177.87 38.1601 178.35 36.4101 179.31 35.1801C180.27 33.9501 181.61 33.3301 183.35 33.3301C184.65 33.3301 185.72 33.6801 186.55 34.3901C187.38 35.1001 187.96 36.1501 188.28 37.5501L189.06 37.3601C188.73 35.8301 188.07 34.6501 187.08 33.8201C186.09 32.9901 184.85 32.5701 183.35 32.5701C182.01 32.5701 180.86 32.8901 179.92 33.5201C178.98 34.1501 178.26 35.0501 177.77 36.2301C177.28 37.4101 177.03 38.8101 177.03 40.4501C177.03 42.9301 177.59 44.8601 178.72 46.2401C179.84 47.6201 181.41 48.3101 183.41 48.3101C185.02 48.3101 186.34 47.8501 187.38 46.9301ZM198.03 48.3101C196 48.3101 194.39 47.6101 193.21 46.2001C192.03 44.7901 191.44 42.8801 191.44 40.4601C191.44 38.8901 191.7 37.5201 192.23 36.3301C192.75 35.1501 193.51 34.2301 194.51 33.5701C195.5 32.9101 196.69 32.5801 198.06 32.5801C200.09 32.5801 201.7 33.2801 202.88 34.6901C204.06 36.1001 204.65 38.0101 204.65 40.4301C204.65 42.0001 204.39 43.3701 203.86 44.5601C203.33 45.7401 202.58 46.6601 201.58 47.3201C200.59 47.9801 199.4 48.3101 198.03 48.3101ZM198.03 47.5501C199.19 47.5501 200.2 47.2701 201.06 46.7201C201.92 46.1701 202.59 45.3601 203.05 44.2801C203.52 43.2101 203.75 41.9201 203.75 40.4301C203.75 38.2201 203.24 36.4801 202.23 35.2201C201.21 33.9601 199.82 33.3301 198.04 33.3301C196.88 33.3301 195.87 33.6101 195.01 34.1601C194.15 34.7101 193.48 35.5301 193.02 36.6001C192.55 37.6701 192.32 38.9601 192.32 40.4501C192.32 42.6601 192.83 44.4001 193.84 45.6601C194.85 46.9201 196.25 47.5501 198.03 47.5501ZM208.47 34.22L217.48 47.95H218.45V32.96H217.61V46.72L208.6 32.96H207.63V47.95H208.47V34.22ZM225.85 47.9502V33.7302H220.58V32.9502H231.96V33.7302H226.69V47.9502H225.85ZM234.11 32.96V47.95V47.96H243.41L243.64 47.18H234.95V40.61H242.95V39.83H234.95V33.74H243.37V32.96H234.11ZM256.14 47.95L247.13 34.22V47.95H246.29V32.96H247.26L256.27 46.72V32.96H257.11V47.95H256.14ZM264.52 33.7302V47.9502H265.36V33.7302H270.63V32.9502H259.25V33.7302H264.52ZM290.47 47.95V34.34L284.76 47.95H283.98L278.27 34.38V47.95H277.49V32.96H278.5L284.4 46.99L290.28 32.96H291.25V47.95H290.47ZM303.43 43.16L305.32 47.95H306.24L300.32 32.96H299.35L293.43 47.95H294.31L296.16 43.16H303.43ZM296.48 42.39L299.8 33.86L303.14 42.39H296.48ZM318.27 47.95L309.26 34.22V47.95H308.42V32.96H309.39L318.4 46.72V32.96H319.24V47.95H318.27ZM331.42 43.16L333.31 47.95H334.23L328.31 32.96H327.34L321.42 47.95H322.3L324.15 43.16H331.42ZM324.47 42.39L327.79 33.86L331.13 42.39H324.47ZM346.41 41.5501H342V40.7901H347.25V46.4001C346.58 47.0201 345.78 47.4901 344.84 47.8201C343.91 48.1501 342.93 48.3101 341.91 48.3101C339.75 48.3101 338.09 47.6301 336.91 46.2601C335.73 44.8901 335.15 42.9701 335.15 40.4701C335.15 38.8601 335.41 37.4601 335.92 36.2801C336.43 35.1001 337.18 34.1801 338.16 33.5401C339.14 32.9001 340.32 32.5701 341.69 32.5701C343.06 32.5701 344.2 32.9101 345.09 33.6001C345.99 34.2901 346.6 35.2901 346.94 36.6001L346.16 36.7901C345.53 34.4801 344.03 33.3201 341.67 33.3201C339.89 33.3201 338.51 33.9401 337.51 35.1901C336.52 36.4401 336.02 38.1901 336.02 40.4401C336.02 42.6901 336.53 44.4801 337.56 45.7001C338.59 46.9301 340.06 47.5401 341.96 47.5401C342.81 47.5401 343.63 47.4101 344.41 47.1601C345.19 46.9101 345.86 46.5501 346.41 46.0901V41.5501ZM350.36 32.96V47.95V47.96H359.66L359.89 47.18H351.2V40.61H359.2V39.83H351.2V33.74H359.62V32.96H350.36ZM375.52 47.95V34.34L369.81 47.95H369.03L363.32 34.38V47.95H362.54V32.96H363.55L369.45 46.99L375.33 32.96H376.3V47.95H375.52ZM379.82 32.96V47.95V47.96H389.12L389.35 47.18H380.66V40.61H388.66V39.83H380.66V33.74H389.08V32.96H379.82ZM401.85 47.95L392.84 34.22V47.95H392V32.96H392.97L401.98 46.72V32.96H402.82V47.95H401.85ZM410.23 33.7302V47.9502H411.07V33.7302H416.34V32.9502H404.96V33.7302H410.23Z" fill="black"/>
<path fill-rule="evenodd" clip-rule="evenodd" d="M85.52 183.07C82.59 183.23 72.87 185.8 71.12 186.4C69.32 187.01 66.39 188.1 64.69 188.87C62.58 189.82 60.82 191.1 58.73 192.01L56.84 191.66C56.53 191.29 56.08 191.07 56.19 190.49C56.58 188.39 73.5 183.31 80.84 182.42C61.73 177.71 45.86 166.2 35.37 150.99C24.05 134.6 18.99 113.88 22.89 92.7402C26.79 71.6002 38.89 54.0402 55.32 42.7402C58.54 40.5202 61.93 38.5402 65.46 36.8302C65.39 36.8102 65.33 36.7902 65.26 36.7702C68.46 24.7802 73.5 28.2502 85.66 25.7802C85.33 30.3902 75.7 38.6802 67.01 37.2002C63.14 39.0102 59.43 41.1302 55.92 43.5502C39.7 54.7002 27.75 72.0502 23.9 92.9202C20.05 113.79 25.04 134.26 36.22 150.44C47.39 166.64 64.75 178.58 85.64 182.43L85.52 183.06V183.07ZM57.22 37.4902C66.29 33.8202 63.02 30.4702 63.64 21.2002C59.81 22.0002 53.85 31.0802 57.22 37.4902ZM48.22 45.5602C56.21 40.0402 52.27 37.4602 50.78 28.2602C47.24 29.8502 43.49 40.0102 48.22 45.5602ZM55.39 47.2602C61.63 50.8002 71.1 45.7002 72.11 42.1302C62.77 42.1902 59.58 38.9202 55.39 47.2602ZM44.16 57.5702C50.71 60.5202 59.62 54.5502 60.28 50.9102C51 51.8402 47.51 48.8702 44.16 57.5702ZM38.38 54.5702C46.71 48.8202 42.6 46.1202 41.05 36.5302C37.36 38.1902 33.45 48.7902 38.38 54.5702ZM31.48 64.4702C37.14 56.2102 32.34 55.0902 27.39 46.6102C24.56 49.4402 24.78 60.7302 31.48 64.4702ZM33.93 71.1502C41.73 72.8702 49.93 64.3702 49.76 60.2602C39.94 63.3702 35.45 60.9402 33.93 71.1502ZM24.17 76.4202C30.59 67.0502 25.14 65.7802 19.53 56.1602C16.31 59.3702 16.57 72.1802 24.17 76.4202ZM27.73 84.2202C35.67 85.1002 42.84 75.7602 42.2 71.6802C32.81 75.8302 28.08 73.8802 27.73 84.2202ZM19.93 89.0502C11.33 86.0902 8.57 73.0002 11.22 69.1102C18.83 77.9502 24.66 78.2502 19.93 89.0502ZM18 102.29C21.02 90.3602 14.97 90.9802 5.61 83.0602C3.54 87.5102 8.63 100.61 18 102.29ZM24.58 102.18C34.5 101.78 41.44 88.9302 39.86 84.0302C29.16 90.9002 22.96 89.3902 24.58 102.18ZM19.15 117.61C20.12 104.55 13.9 106.25 2.65 99.5502C1.3 104.58 9.04 117.46 19.15 117.61ZM22.68 129.47C17.95 117.14 13.05 121.21 0 119.63C0.94 124.77 13.48 133.42 22.68 129.47ZM25.5 119.59C35.32 117.82 40.33 104.02 38.03 99.3402C28.39 107.68 22 107.03 25.5 119.59ZM28.82 141.69C21.52 130.58 17.64 135.57 4.57 136.68C6.61 141.52 20.71 147.42 28.82 141.69ZM32.25 137.9C40.5 133.32 40.58 119.3 37 115.75C31.01 126.23 25.06 127.57 32.25 137.9ZM35.46 154.81C28.16 143.71 24.28 148.68 11.21 149.8C13.24 154.65 27.35 160.57 35.46 154.81ZM44.72 155.9C51.13 148.26 45.67 134.14 40.71 131.91C38.88 144.66 33.48 148.2 44.72 155.9ZM46.56 165C35.99 155.32 33.34 161.5 20.15 166.01C23.57 170.53 39.75 173.06 46.56 165ZM58.25 173.86C46.22 166.52 44.9 172.95 33.17 179.74C37.34 183.45 53.33 182.87 58.25 173.86ZM62.34 170.92C66.52 160.83 56.1 147.65 50.16 146.83C52.48 160.84 48.01 166.28 62.34 170.92Z" fill="#C0A768"/>
<path fill-rule="evenodd" clip-rule="evenodd" d="M139.53 181.31L136.83 174.47H126.45L123.81 181.31H122.55L131.01 159.89H132.39L140.85 181.31H139.53ZM131.64 161.18L126.9 173.36H136.41L131.64 161.18ZM159.96 181.31L154.56 161.51L149.16 181.31H147.84L141.93 159.89H143.22L148.5 179.75L153.99 159.98H155.28L160.68 179.78L165.99 159.89H167.22L161.34 181.31H159.96ZM182.58 174.47L185.28 181.31H186.6L178.14 159.89H176.76L168.3 181.31H169.56L172.2 174.47H182.58ZM172.65 173.36L177.39 161.18L182.16 173.36H172.65ZM204.6 181.31L200.13 171.53C199.67 171.61 199.08 171.65 198.36 171.65H192.39V181.31H191.22V159.89H198.27C202.93 159.89 205.26 161.81 205.26 165.65C205.26 167.11 204.92 168.32 204.26 169.27C203.59 170.22 202.6 170.89 201.3 171.27L205.95 181.32H204.6V181.31ZM198.3 170.57C200.28 170.57 201.73 170.18 202.65 169.39C203.57 168.6 204.03 167.36 204.03 165.68C204.03 164 203.57 162.85 202.63 162.1C201.69 161.35 200.19 160.98 198.11 160.98H192.38V170.58H198.29L198.3 170.57ZM211.23 159.89V181.31H217.68C220.96 181.31 223.46 180.39 225.19 178.54C226.92 176.69 227.79 173.92 227.79 170.48C227.79 167.04 226.97 164.41 225.34 162.6C223.72 160.8 221.36 159.89 218.28 159.89H211.23ZM226.53 170.57C226.53 177.01 223.61 180.23 217.77 180.23V180.24H212.43V160.98H218.28C220.98 160.98 223.03 161.79 224.43 163.42C225.83 165.05 226.53 167.43 226.53 170.57Z" fill="black"/>
<path d="M241.71 181.31V180.23L246.54 175.85C248.46 174.09 249.89 172.68 250.82 171.6C251.75 170.53 252.39 169.57 252.76 168.72C253.12 167.87 253.3 166.96 253.3 165.97C253.3 164.41 252.87 163.21 252 162.36C251.13 161.51 249.9 161.08 248.32 161.08C246.86 161.08 245.68 161.44 244.8 162.15C243.91 162.86 243.24 163.99 242.78 165.55L241.73 165.31C242.15 163.59 242.93 162.28 244.08 161.37C245.23 160.46 246.66 160.01 248.38 160.01C250.26 160.01 251.76 160.54 252.87 161.6C253.98 162.66 254.54 164.1 254.54 165.92C254.54 167.06 254.31 168.13 253.85 169.13C253.39 170.13 252.64 171.21 251.6 172.37C250.56 173.53 249.12 174.94 247.28 176.6L243.26 180.2H254.69L254.42 181.31H241.73H241.71Z" fill="#DD5928"/>
<path d="M264.39 181.85C262.01 181.85 260.2 180.92 258.95 179.06C257.7 177.2 257.07 174.49 257.07 170.93C257.07 167.37 257.7 164.71 258.98 162.83C260.25 160.95 262.07 160.01 264.45 160.01C266.83 160.01 268.65 160.94 269.9 162.8C271.15 164.66 271.78 167.37 271.78 170.93C271.78 174.49 271.15 177.15 269.88 179.03C268.61 180.91 266.78 181.85 264.4 181.85H264.39ZM264.42 180.77C268.48 180.77 270.51 177.49 270.51 170.93C270.51 164.37 268.48 161.09 264.42 161.09C260.36 161.09 258.33 164.37 258.33 170.93C258.33 177.49 260.36 180.77 264.42 180.77Z" fill="#DD5928"/>
<path d="M273.63 181.31V180.23L278.46 175.85C280.38 174.09 281.81 172.68 282.74 171.6C283.67 170.53 284.32 169.57 284.67 168.72C285.03 167.87 285.21 166.96 285.21 165.97C285.21 164.41 284.78 163.21 283.91 162.36C283.04 161.51 281.81 161.08 280.24 161.08C278.78 161.08 277.6 161.44 276.71 162.15C275.82 162.86 275.14 163.99 274.69 165.55L273.64 165.31C274.06 163.59 274.85 162.28 276 161.37C277.15 160.46 278.58 160.01 280.3 160.01C282.18 160.01 283.68 160.54 284.79 161.6C285.9 162.66 286.46 164.1 286.46 165.92C286.46 167.06 286.23 168.13 285.77 169.13C285.31 170.13 284.56 171.21 283.52 172.37C282.48 173.53 281.04 174.94 279.2 176.6L275.18 180.2H286.61L286.34 181.31H273.65H273.63Z" fill="#DD5928"/>
<path d="M289.29 181.31V180.23L294.12 175.85C296.04 174.09 297.47 172.68 298.4 171.6C299.33 170.53 299.98 169.57 300.33 168.72C300.69 167.87 300.87 166.96 300.87 165.97C300.87 164.41 300.44 163.21 299.57 162.36C298.7 161.51 297.47 161.08 295.9 161.08C294.44 161.08 293.26 161.44 292.37 162.15C291.48 162.86 290.8 163.99 290.35 165.55L289.3 165.31C289.72 163.59 290.51 162.28 291.66 161.37C292.81 160.46 294.24 160.01 295.96 160.01C297.84 160.01 299.34 160.54 300.45 161.6C301.56 162.66 302.12 164.1 302.12 165.92C302.12 167.06 301.89 168.13 301.43 169.13C300.97 170.13 300.22 171.21 299.18 172.37C298.14 173.53 296.7 174.94 294.86 176.6L290.84 180.2H302.27L302 181.31H289.31H289.29Z" fill="#DD5928"/>
</g>
<defs>
<clipPath id="clip0_803_1746">
<rect width="539.43" height="191.4" fill="white" transform="translate(0 0.600098)"/>
</clipPath>
</defs>
</svg>
