<svg xmlns="http://www.w3.org/2000/svg" id="Layer_1" data-name="Layer 1" viewBox="0 0 327.7 280.85"><defs><style>.cls-1,.cls-8{fill:#fff;}.cls-1,.cls-2{stroke:#4385f4;stroke-miterlimit:10;}.cls-1{stroke-width:8.07px;}.cls-2{fill:none;stroke-linecap:round;stroke-width:2.02px;stroke-dasharray:2.02 4.04 2.02 4.04 2.02 4.04;}.cls-3{fill:#4385f4;}.cls-4{fill:#3876df;}.cls-5{fill:#2354a6;}.cls-6{fill:#4a4a4a;}.cls-7{isolation:isolate;}</style></defs><title>badge</title><ellipse class="cls-1" cx="163.6" cy="140.66" rx="133.8" ry="133.73"/><ellipse class="cls-2" cx="163.6" cy="140.66" rx="124.76" ry="124.69"/><path class="cls-3" d="M233.84,125.19a4.51,4.51,0,0,1-1.46,3.46A5.13,5.13,0,0,1,228.7,130a5.9,5.9,0,0,1-3-.79,5.68,5.68,0,0,1-2-1.82l2-1.8a4,4,0,0,0,.4.53,3.58,3.58,0,0,0,2.67,1.16,2.41,2.41,0,0,0,1.69-.57,2,2,0,0,0,.61-1.58q0-1.15-1.46-1.58-2.89-.89-3.11-1a5.39,5.39,0,0,1-1.92-1.49,4.71,4.71,0,0,1,.76-5.83,4.85,4.85,0,0,1,3.41-1.29,5.72,5.72,0,0,1,2.77.68,4.75,4.75,0,0,1,1.82,1.51L231.58,118a6.22,6.22,0,0,0-.82-.7,3.4,3.4,0,0,0-1.95-.72,2.51,2.51,0,0,0-1.46.39,1.69,1.69,0,0,0-.68,1.45,1.5,1.5,0,0,0,.66,1.36,9.07,9.07,0,0,0,2.45.79,5.76,5.76,0,0,1,2.94,1.58A4,4,0,0,1,233.84,125.19Zm-12.95,4.62-2.83.42V119.78a3,3,0,0,0-.63-2.1,2.81,2.81,0,0,0-4.15.59,3.53,3.53,0,0,0-.53,1.8v9.73l-2.83.53V119.85a3.21,3.21,0,0,0-.61-2.1,2.12,2.12,0,0,0-1.69-.72h-.28a2.25,2.25,0,0,0-2.16,1.27,5.14,5.14,0,0,0-.51,2.43v9.07l-2.94.53V115l2.64-.46v1.95a6.12,6.12,0,0,1,.87-1.1,3.73,3.73,0,0,1,2.64-1.07,4.61,4.61,0,0,1,2.52.55,4.7,4.7,0,0,1,1.42,1.8A4.64,4.64,0,0,1,216,114.3a4.54,4.54,0,0,1,3.87,1.66,6.65,6.65,0,0,1,1,4.05Zm-21.11-15.42-1.33,3.11a3.7,3.7,0,0,0-.53,0,5.24,5.24,0,0,0-.82.07,3.29,3.29,0,0,0-.89.31,3.48,3.48,0,0,0-1.54,1.69,6.88,6.88,0,0,0-.74,3.13v7.14l-2.83.46V115l2.62-.48v3.18c.34-.55.7-1.1,1-1.66a4.19,4.19,0,0,1,1.69-1.23,8,8,0,0,1,1.88-.33A8.08,8.08,0,0,1,199.79,114.39ZM187,129.81l-2.83.39V115l2.83-.44Zm.57-18.9-1.9,2.43-1.82-2.43,1.92-2.41Zm-6.37,1.6h-7.93V118h6.16v2.8h-6.16v9l-3.09.46V109.68h10.41Zm-17.45,9.92a5.3,5.3,0,0,0-1.54-3.88,4.76,4.76,0,0,0-3.53-1.6,4.58,4.58,0,0,0-3.57,1.51A5.19,5.19,0,0,0,153.8,122a5.63,5.63,0,0,0,1.33,3.86,4.3,4.3,0,0,0,3.38,1.51,5.22,5.22,0,0,0,3.6-1.4A4.57,4.57,0,0,0,163.74,122.43Zm2.5,7.38-2.67.42v-2.61l-.57.66a7,7,0,0,1-1.69,1.18,6.78,6.78,0,0,1-2.9.64,6.94,6.94,0,0,1-5.29-2.32,7.87,7.87,0,0,1-2.16-5.54,8.25,8.25,0,0,1,2.14-5.7,6.74,6.74,0,0,1,5.22-2.37,7.43,7.43,0,0,1,3.09.59,5.26,5.26,0,0,1,1.59,1.12l.44.61v-6.83l2.83-.42Zm-19.93-7.54a5.17,5.17,0,0,0-1.46-3.72,4.77,4.77,0,0,0-3.62-1.53,4.48,4.48,0,0,0-3.45,1.58,5.22,5.22,0,0,0-1.42,3.61,5.1,5.1,0,0,0,1.44,3.64,4.72,4.72,0,0,0,3.57,1.53,4.63,4.63,0,0,0,3.45-1.51A4.94,4.94,0,0,0,146.31,122.28Zm2.9,0a7.84,7.84,0,0,1-2.28,5.63,7.7,7.7,0,0,1-11.1,0,7.65,7.65,0,0,1-2.33-5.65,8.15,8.15,0,0,1,2.22-5.7,7.07,7.07,0,0,1,5.44-2.41,7.68,7.68,0,0,1,5.8,2.32A7.85,7.85,0,0,1,149.21,122.23Zm-21.3,0a5.17,5.17,0,0,0-1.46-3.72,4.77,4.77,0,0,0-3.62-1.53,4.48,4.48,0,0,0-3.45,1.58,5.22,5.22,0,0,0-1.42,3.61,5.1,5.1,0,0,0,1.44,3.64,4.72,4.72,0,0,0,3.57,1.53,4.63,4.63,0,0,0,3.45-1.51A4.94,4.94,0,0,0,127.91,122.28Zm2.9,0a7.84,7.84,0,0,1-2.28,5.63,7.7,7.7,0,0,1-11.1,0,7.65,7.65,0,0,1-2.33-5.65,8.15,8.15,0,0,1,2.22-5.7,7.07,7.07,0,0,1,5.44-2.41,7.68,7.68,0,0,1,5.8,2.32A7.85,7.85,0,0,1,130.81,122.23Zm-18.66,5.48c-.49.33-.85.57-1.1.72a19.58,19.58,0,0,1-2.58,1.36,8.28,8.28,0,0,1-3.13.72,11.21,11.21,0,0,1-8-3A9.82,9.82,0,0,1,94.17,120a11,11,0,0,1,2.88-7.58,9,9,0,0,1,7-3.2,11.71,11.71,0,0,1,3.64.61,10,10,0,0,1,4,2.34l-1.84,2.06a7.08,7.08,0,0,0-3-1.69,10.3,10.3,0,0,0-2.94-.39,6.07,6.07,0,0,0-4.84,2.34,8.59,8.59,0,0,0-1.95,5.63,7.11,7.11,0,0,0,2.22,5.37,7.82,7.82,0,0,0,5.65,2.15,5.71,5.71,0,0,0,2.92-.9l1.27-1v-4.49h-6.18l.89-2.8h8.21Z"/><path class="cls-3" d="M160.25,62.23s-2.69-.27-2.69,2.11V74.9h17.75v3.17a1.52,1.52,0,0,1-1.61,1.58H157.56V93.39h19.36s11.72-1.79,11.83-13.73V62.23Zm27.49-17.1H153.21c-12.49,3-12.75,13.31-12.75,13.31v35h13.28V61.57a3.26,3.26,0,0,1,2.66-3.18h31.35Z"/><polygon class="cls-4" points="324.58 166.8 288.36 166.8 288.36 223.12 324.58 223.12 312.95 196.67 324.58 166.8"/><polygon class="cls-4" points="2.62 166.8 38.84 166.8 38.84 223.12 2.62 223.12 14.24 196.67 2.62 166.8"/><polygon class="cls-5" points="306.47 147.69 288.36 166.71 288.36 223.02 306.47 204.01 306.47 147.69"/><polygon class="cls-5" points="20.73 147.69 38.84 166.71 38.84 223.02 20.73 204.01 20.73 147.69"/><path class="cls-6" d="M203.79,228.68a2.49,2.49,0,0,0,.57-1.65q0-.14,0-.54t0-.54a2.49,2.49,0,0,0-.57-1.65,2.08,2.08,0,0,0-2.87,0,2.49,2.49,0,0,0-.57,1.65V227a2.49,2.49,0,0,0,.57,1.65,2.08,2.08,0,0,0,2.87,0Zm-3.83.76a3.43,3.43,0,0,1-.9-2.33v-1.22a3.39,3.39,0,0,1,.91-2.33,3.67,3.67,0,0,1,4.76,0,3.39,3.39,0,0,1,.91,2.33q0,.31,0,.61t0,.61a3.43,3.43,0,0,1-.9,2.33,3.71,3.71,0,0,1-4.79,0Zm-7.78,0a3.39,3.39,0,0,1-.89-2.4v-1.13a3.39,3.39,0,0,1,.89-2.4,3.17,3.17,0,0,1,2.36-.85,3.72,3.72,0,0,1,1.72.36,2.64,2.64,0,0,1,1,.9,2.19,2.19,0,0,1,.37,1.07.26.26,0,0,1-.09.23.33.33,0,0,1-.23.1h-.62a.31.31,0,0,1-.21-.06.67.67,0,0,1-.14-.23,1.9,1.9,0,0,0-.7-1,2,2,0,0,0-1.12-.29,1.86,1.86,0,0,0-1.41.55,2.51,2.51,0,0,0-.57,1.68v1a2.51,2.51,0,0,0,.57,1.68,1.86,1.86,0,0,0,1.41.55,2,2,0,0,0,1.13-.29,1.92,1.92,0,0,0,.69-1,.67.67,0,0,1,.14-.23.31.31,0,0,1,.21-.06h.62a.33.33,0,0,1,.23.1.26.26,0,0,1,.09.23,2.17,2.17,0,0,1-.37,1.06,2.69,2.69,0,0,1-1,.9,3.66,3.66,0,0,1-1.72.37A3.17,3.17,0,0,1,192.19,229.46Zm-4.12.62a.32.32,0,0,1-.09-.23v-1a.34.34,0,0,1,.09-.24.3.3,0,0,1,.23-.1h1a.3.3,0,0,1,.23.1.34.34,0,0,1,.09.24v1a.31.31,0,0,1-.32.32h-1A.32.32,0,0,1,188.07,230.08Zm-6.3-.08a2.75,2.75,0,0,1-1-.73,1.21,1.21,0,0,1-.32-.68.26.26,0,0,1,.1-.22.34.34,0,0,1,.21-.08h.59a.27.27,0,0,1,.13,0,.61.61,0,0,1,.13.13,2.57,2.57,0,0,0,.73.62,2.21,2.21,0,0,0,1.08.23,2.31,2.31,0,0,0,1.22-.28.91.91,0,0,0,.46-.82.8.8,0,0,0-.2-.57,1.71,1.71,0,0,0-.66-.38,11,11,0,0,0-1.36-.37,3.52,3.52,0,0,1-1.74-.78,1.78,1.78,0,0,1-.51-1.31,1.85,1.85,0,0,1,.31-1,2.24,2.24,0,0,1,.93-.79,3.27,3.27,0,0,1,1.46-.3,3.54,3.54,0,0,1,1.52.3,2.63,2.63,0,0,1,.95.69,1.17,1.17,0,0,1,.32.66.28.28,0,0,1-.09.21.31.31,0,0,1-.22.08h-.54a.3.3,0,0,1-.28-.16q-.24-.27-.4-.42a1.34,1.34,0,0,0-.47-.25,2.44,2.44,0,0,0-.78-.11,1.68,1.68,0,0,0-1.06.29.93.93,0,0,0-.37.77.81.81,0,0,0,.16.5,1.4,1.4,0,0,0,.59.38,8.37,8.37,0,0,0,1.3.36,4,4,0,0,1,1.9.81,1.76,1.76,0,0,1,.56,1.34,1.88,1.88,0,0,1-.35,1.1,2.27,2.27,0,0,1-1,.78,4.27,4.27,0,0,1-1.63.28A3.83,3.83,0,0,1,181.77,230Zm-13.32.08a.32.32,0,0,1-.09-.23v-6.7a.31.31,0,0,1,.32-.32h.59a.29.29,0,0,1,.23.09.33.33,0,0,1,.08.23v.48a2.51,2.51,0,0,1,2.06-.95,2.27,2.27,0,0,1,2.2,1.3,2.5,2.5,0,0,1,1-.95,2.82,2.82,0,0,1,1.41-.35,2.47,2.47,0,0,1,1.89.79,3.25,3.25,0,0,1,.73,2.29v4.08a.31.31,0,0,1-.32.32h-.61a.31.31,0,0,1-.32-.32v-4a2.3,2.3,0,0,0-.47-1.62,1.62,1.62,0,0,0-1.23-.49,1.57,1.57,0,0,0-1.17.5,2.24,2.24,0,0,0-.49,1.6v4a.31.31,0,0,1-.32.32h-.62a.31.31,0,0,1-.32-.32v-4a2.23,2.23,0,0,0-.49-1.61,1.63,1.63,0,0,0-1.21-.49,1.58,1.58,0,0,0-1.17.49,2.21,2.21,0,0,0-.49,1.6v4a.31.31,0,0,1-.32.32h-.62a.32.32,0,0,1-.23-.09Zm-5.31,0a.32.32,0,0,1-.09-.23v-6.68a.34.34,0,0,1,.09-.24.3.3,0,0,1,.23-.1H164a.32.32,0,0,1,.34.34v.62a2.11,2.11,0,0,1,2-1h.55a.3.3,0,0,1,.32.32v.52a.33.33,0,0,1-.08.23.31.31,0,0,1-.24.09H166a1.64,1.64,0,0,0-1.22.45,1.68,1.68,0,0,0-.45,1.23v4.17a.3.3,0,0,1-.1.23.34.34,0,0,1-.24.09h-.64A.32.32,0,0,1,163.13,230.08Zm-6.94,0a.32.32,0,0,1-.09-.23v-5.93h-1.22a.33.33,0,0,1-.23-.08.29.29,0,0,1-.09-.23v-.45a.31.31,0,0,1,.32-.32h1.22v-.71a2.58,2.58,0,0,1,.56-1.77,2.34,2.34,0,0,1,1.83-.63h2.12a.29.29,0,0,1,.23.09.33.33,0,0,1,.08.23v.45a.29.29,0,0,1-.31.31h-2.09a1.06,1.06,0,0,0-.9.34,1.74,1.74,0,0,0-.25,1v.64h3.25a.29.29,0,0,1,.23.09.33.33,0,0,1,.08.23v6.7a.33.33,0,0,1-.08.23.29.29,0,0,1-.23.09H160a.31.31,0,0,1-.32-.32v-5.93h-2.3v5.93a.31.31,0,0,1-.32.32h-.61A.32.32,0,0,1,156.19,230.08Zm-4.78-1.53a2.74,2.74,0,0,0,.54-1.56q0-.16,0-.54t0-.55a2.41,2.41,0,0,0-.54-1.49,1.8,1.8,0,0,0-1.48-.63,1.72,1.72,0,0,0-1.48.64,3,3,0,0,0-.51,1.67v.41q0,2.71,2,2.71A1.74,1.74,0,0,0,151.41,228.55Zm-4,.8a4.13,4.13,0,0,1-.8-2.43v-.85a4.12,4.12,0,0,1,.81-2.42,2.63,2.63,0,0,1,2.22-1,2.74,2.74,0,0,1,2.29,1v-3.26a.31.31,0,0,1,.32-.32h.64a.31.31,0,0,1,.32.32v9.38a.31.31,0,0,1-.32.32h-.61a.29.29,0,0,1-.23-.09.33.33,0,0,1-.08-.23v-.61a2.74,2.74,0,0,1-2.33,1.07A2.64,2.64,0,0,1,147.43,229.35Zm-4.13-.67a2.49,2.49,0,0,0,.57-1.65q0-.14,0-.54t0-.54a2.49,2.49,0,0,0-.57-1.65,2.08,2.08,0,0,0-2.87,0,2.49,2.49,0,0,0-.57,1.65V227a2.49,2.49,0,0,0,.57,1.65,2.08,2.08,0,0,0,2.87,0Zm-3.83.76a3.43,3.43,0,0,1-.9-2.33v-1.22a3.39,3.39,0,0,1,.91-2.33,3.67,3.67,0,0,1,4.76,0,3.39,3.39,0,0,1,.91,2.33q0,.31,0,.61t0,.61a3.43,3.43,0,0,1-.9,2.33,3.71,3.71,0,0,1-4.79,0Zm-4.25-.76a2.49,2.49,0,0,0,.57-1.65q0-.14,0-.54t0-.54a2.49,2.49,0,0,0-.57-1.65,2.08,2.08,0,0,0-2.87,0,2.49,2.49,0,0,0-.57,1.65V227a2.49,2.49,0,0,0,.57,1.65,2.08,2.08,0,0,0,2.87,0Zm-3.83.76a3.43,3.43,0,0,1-.9-2.33v-1.22a3.39,3.39,0,0,1,.91-2.33,3.67,3.67,0,0,1,4.76,0,3.39,3.39,0,0,1,.91,2.33q0,.31,0,.61t0,.61a3.43,3.43,0,0,1-.9,2.33,3.71,3.71,0,0,1-4.79,0Zm-4.55-.94a2.65,2.65,0,0,0,.54-1.55q0-.13,0-.49t0-.48a2.65,2.65,0,0,0-.54-1.55,1.77,1.77,0,0,0-1.49-.64,1.69,1.69,0,0,0-1.48.64,3,3,0,0,0-.5,1.66v.75a3,3,0,0,0,.5,1.66,1.69,1.69,0,0,0,1.48.64A1.77,1.77,0,0,0,126.84,228.5Zm-3.34,4.39a2.52,2.52,0,0,1-1-.9,1.85,1.85,0,0,1-.29-.88.29.29,0,0,1,.1-.22.32.32,0,0,1,.23-.09h.62a.34.34,0,0,1,.21.06.47.47,0,0,1,.14.23,1.69,1.69,0,0,0,1.79,1.13,2.31,2.31,0,0,0,1.57-.45,2.07,2.07,0,0,0,.51-1.6v-1a2.74,2.74,0,0,1-2.29,1,2.65,2.65,0,0,1-2.24-1,4.06,4.06,0,0,1-.78-2.43v-.78a4.07,4.07,0,0,1,.78-2.42,2.64,2.64,0,0,1,2.24-1,2.75,2.75,0,0,1,2.32,1.09v-.61a.34.34,0,0,1,.09-.24.3.3,0,0,1,.23-.1h.61a.3.3,0,0,1,.23.1.34.34,0,0,1,.09.24V230q0,3.26-3.29,3.26A3.84,3.84,0,0,1,123.5,232.88Z"/><rect class="cls-3" x="20.45" y="147.7" width="285.74" height="56.31"/><g class="cls-7"><path class="cls-8" d="M38,171.59v-9.91H34.5v-2.07H44v2.07H40.51v9.91Z"/><path class="cls-8" d="M55.92,165.6c0,3.81-2.23,6.19-5.78,6.19s-5.78-2.38-5.78-6.19,2.22-6.2,5.78-6.2S55.92,161.78,55.92,165.6Zm-9,0c0,2.51,1.25,4.09,3.22,4.09s3.21-1.59,3.21-4.09-1.25-4.11-3.21-4.11S46.92,163.09,46.92,165.6Z"/><path class="cls-8" d="M62.53,159.61a3.91,3.91,0,0,1,4.15,4.1,4,4,0,0,1-4.27,4.1H60v3.78H57.53v-12ZM60,165.85h1.82a2.13,2.13,0,1,0,0-4.26H60Z"/><path class="cls-8" d="M76.42,159.61c3.59,0,5.71,2.14,5.71,5.94s-2.12,6-5.71,6H71.81v-12Zm-2.11,9.9h1.81c2.24,0,3.45-1.36,3.45-4s-1.25-3.88-3.45-3.88H74.32Z"/><path class="cls-8" d="M94.93,165.6c0,3.81-2.23,6.19-5.78,6.19s-5.78-2.38-5.78-6.19,2.22-6.2,5.78-6.2S94.93,161.78,94.93,165.6Zm-9,0c0,2.51,1.25,4.09,3.22,4.09s3.21-1.59,3.21-4.09-1.25-4.11-3.21-4.11S85.93,163.09,85.93,165.6Z"/><path class="cls-8" d="M96.16,165.59c0-3.86,2.2-6.19,5.67-6.19,2.88,0,5.07,1.83,5.26,4.51h-2.44a2.78,2.78,0,0,0-2.82-2.43c-1.89,0-3.11,1.58-3.11,4.11s1.2,4.13,3.12,4.13a2.7,2.7,0,0,0,2.82-2.29h2.44c-.28,2.67-2.33,4.37-5.27,4.37C98.35,171.79,96.16,169.46,96.16,165.59Z"/><path class="cls-8" d="M111.15,167.11a2.51,2.51,0,1,0,5,0v-7.5h2.51v7.75c0,2.64-2,4.44-5,4.44s-5-1.8-5-4.44v-7.75h2.51Z"/><path class="cls-8" d="M133.36,171.59h-2.23V163.5h-.07l-3.25,8h-1.58l-3.25-8h-.07v8.08h-2.23v-12h2.91l3.4,8.49h.07l3.4-8.49h2.91Z"/><path class="cls-8" d="M143.29,171.59h-7.94v-12h7.94v2.07h-5.43v2.89H143v1.93h-5.12v3h5.43Z"/><path class="cls-8" d="M145.1,171.59v-12h2.09l5.59,7.8h.07v-7.8h2.4v12h-2.08l-5.6-7.84h-.08v7.84Z"/><path class="cls-8" d="M160.15,171.59v-9.91h-3.5v-2.07h9.52v2.07h-3.51v9.91Z"/><path class="cls-8" d="M183.89,171.59h-2.23V163.5h-.07l-3.25,8h-1.58l-3.25-8h-.07v8.08H171.2v-12h2.91l3.4,8.49h.07l3.4-8.49h2.91Z"/><path class="cls-8" d="M192.81,168.68H188.6l-.91,2.91h-2.57l4.16-12h2.95l4.17,12h-2.66Zm-3.67-1.88h3.13l-1.54-4.91h-.06Z"/><path class="cls-8" d="M197.61,171.59v-12h2.09l5.59,7.8h.07v-7.8h2.4v12h-2.08l-5.6-7.84H200v7.84Z"/><path class="cls-8" d="M216.68,168.68h-4.21l-.91,2.91H209l4.16-12h2.95l4.17,12H217.6ZM213,166.81h3.13l-1.54-4.91h-.06Z"/><path class="cls-8" d="M226.3,171.79c-3.58,0-5.77-2.34-5.77-6.23s2.19-6.16,5.71-6.16c2.8,0,4.91,1.65,5.26,4.08H229a2.7,2.7,0,0,0-2.74-2c-2,0-3.16,1.5-3.16,4.05s1.26,4.18,3.25,4.18a2.59,2.59,0,0,0,2.82-2.49V167h-2.61V165.2h5v1.35C231.61,169.82,229.63,171.79,226.3,171.79Z"/><path class="cls-8" d="M241.19,171.59h-7.94v-12h7.94v2.07h-5.43v2.89h5.12v1.93h-5.12v3h5.43Z"/><path class="cls-8" d="M255.69,171.59h-2.23V163.5h-.07l-3.25,8h-1.58l-3.25-8h-.07v8.08H243v-12h2.91l3.4,8.49h.07l3.4-8.49h2.91Z"/><path class="cls-8" d="M265.62,171.59h-7.94v-12h7.94v2.07h-5.43v2.89h5.12v1.93h-5.12v3h5.43Z"/><path class="cls-8" d="M267.42,171.59v-12h2.09l5.59,7.8h.07v-7.8h2.4v12H275.5l-5.6-7.84h-.07v7.84Z"/><path class="cls-8" d="M282.47,171.59v-9.91H279v-2.07h9.52v2.07H285v9.91Z"/><path class="cls-8" d="M120.86,188.58c.12,1,1.15,1.64,2.47,1.64s2.25-.64,2.25-1.52-.57-1.21-2-1.54l-1.56-.34c-2.21-.47-3.3-1.59-3.3-3.34,0-2.21,1.91-3.67,4.58-3.67s4.54,1.44,4.58,3.6h-2.35c-.08-1-1-1.63-2.22-1.63s-2.07.59-2.07,1.48c0,.74.58,1.15,2,1.47l1.45.31c2.4.51,3.44,1.54,3.44,3.37,0,2.32-1.88,3.79-4.86,3.79s-4.71-1.37-4.79-3.62Z"/><path class="cls-8" d="M140.8,186c0,3.81-2.23,6.19-5.78,6.19s-5.78-2.38-5.78-6.19,2.22-6.2,5.78-6.2S140.8,182.19,140.8,186Zm-9,0c0,2.51,1.25,4.09,3.22,4.09s3.21-1.59,3.21-4.09-1.25-4.11-3.21-4.11S131.81,183.49,131.81,186Z"/><path class="cls-8" d="M142.42,192V180h7.84v2.07h-5.34v3.21h4.87v2h-4.87V192Z"/><path class="cls-8" d="M154.64,192v-9.91h-3.5V180h9.52v2.07h-3.51V192Z"/><path class="cls-8" d="M166.94,192h-2.37l-3.17-12H164l1.88,8.67H166L168.2,180h2.12l2.24,8.67h.07l1.89-8.67h2.6l-3.18,12h-2.37l-2.27-8.18h-.07Z"/><path class="cls-8" d="M184.27,189.08h-4.21l-.91,2.91h-2.57l4.16-12h2.95l4.17,12h-2.67Zm-3.67-1.88h3.13l-1.54-4.91h-.06Z"/><path class="cls-8" d="M191.57,192h-2.51V180H194c2.76,0,4.33,1.45,4.33,3.82a3.52,3.52,0,0,1-2.17,3.4l2.52,4.76h-2.84l-2.23-4.38h-2.05Zm0-6.2h2.2a1.8,1.8,0,0,0,2-1.91,1.84,1.84,0,0,0-2-1.91h-2.17Z"/><path class="cls-8" d="M207.92,192H200V180h7.94v2.07H202.5V185h5.12v1.93H202.5v3h5.43Z"/></g></svg>