<svg width="328" height="440" viewBox="0 0 328 440" fill="none" xmlns="http://www.w3.org/2000/svg">
<g clip-path="url(#clip0_9083_121870)">
<rect x="22" y="16" width="306" height="110" rx="20" fill="black" fill-opacity="0.2"/>
<rect opacity="0.3" x="44.5" y="98.5" width="57" height="57" rx="28.5" transform="rotate(-90 44.5 98.5)" stroke="white"/>
<rect opacity="0.3" x="59.6904" y="83.3098" width="26.619" height="26.619" rx="13.3095" transform="rotate(-90 59.6904 83.3098)" stroke="white"/>
<rect x="122" y="52" width="100" height="8" rx="4" fill="white" fill-opacity="0.13"/>
<rect x="122" y="70" width="170" height="4" rx="2" fill="white" fill-opacity="0.13"/>
<rect x="122" y="84" width="100" height="4" rx="2" fill="white" fill-opacity="0.13"/>
<g clip-path="url(#clip1_9083_121870)">
<rect x="328" y="150" width="140" height="306" rx="20" transform="rotate(90 328 150)" fill="white"/>
<rect x="105" y="226" width="100" height="8" rx="4" fill="#E2E2E2"/>
<rect x="105" y="244" width="190" height="4" rx="2" fill="#E2E2E2"/>
<rect x="105" y="258" width="100" height="4" rx="2" fill="#E2E2E2"/>
<path d="M84.5338 249.185C84.5338 249.185 84.8861 249.021 84.9921 248.46C84.9921 248.427 84.9921 248.394 84.9921 248.361L84.9922 248.262C84.9571 247.735 84.3935 247.108 83.7599 246.482C83.0204 245.79 82.3866 245.46 82.3866 245.46C82.3866 245.46 82.0702 244.075 80.7321 242.163C79.4297 240.251 77.1756 238.24 75.9428 238.834C74.7095 239.427 75.8008 241.076 75.8711 241.57C75.9767 242.098 76.5045 242.955 76.3286 242.955C76.1174 242.922 73.4416 238.208 66.7481 239.528C65.0216 239.89 63.5418 240.583 62.3437 241.473L62.3392 252.485C62.7621 252.089 62.9381 251.891 62.9381 251.891C62.9381 251.891 63.3953 253.87 64.2405 254.76C65.0857 255.65 66.1069 256.177 66.4242 255.518C66.7414 254.891 65.7563 252.188 65.7563 252.188C65.7563 252.188 67.5874 253.836 68.1158 254.232C68.6442 254.627 69.6655 255.121 69.9475 254.232C70.1943 253.342 69.4551 251.99 68.8566 251.759C68.2933 251.528 67.9406 251.528 67.9406 251.528C67.9406 251.528 67.5885 251.1 67.4122 250.968C67.2011 250.836 67.1658 250.836 67.1658 250.836C67.1658 250.836 67.4829 250.671 68.4695 250.704C69.4909 250.737 70.3012 250.77 70.3012 250.77C70.3012 250.77 71.2168 252.022 71.78 252.418C72.3084 252.847 73.6817 253.868 74.1748 254.297C74.6327 254.725 74.9143 254.923 75.0908 254.56C75.232 254.197 74.9855 253.242 74.3519 252.549C73.6829 251.89 72.9786 251.527 72.7319 251.198C72.5209 250.802 72.3799 250.506 72.3799 250.506C72.3799 250.506 73.6831 251.395 74 251.692C74.3521 251.956 76.6766 253.307 77.064 253.538C77.4514 253.802 77.6278 253.637 77.6278 253.637C77.6278 253.637 77.9094 253.834 78.0153 253.703C78.1211 253.571 78.4032 252.681 77.6637 252.154C76.8889 251.593 76.431 251.329 76.5015 251.263C76.5368 251.198 77.3117 251.428 77.4172 251.23C77.4878 251.066 77.3821 250.802 77.2763 250.736C77.2058 250.637 77.488 250.439 77.488 250.439C77.488 250.439 77.7697 250.439 78.9322 250.538C80.0947 250.637 83.0188 249.713 83.618 249.515C84.2167 249.317 84.5338 249.185 84.5338 249.185ZM62.3347 263.365C64.7662 261.881 64.8731 258.122 63.535 257.397C63.1476 257.167 62.7601 257.002 62.3374 256.903L62.3367 258.617C62.4425 258.683 62.5482 258.782 62.6183 258.947C62.8293 259.343 62.7237 259.837 62.7237 259.837C62.7237 259.837 62.6887 259.211 62.4424 258.881C62.4071 258.848 62.3719 258.815 62.3366 258.782L62.3347 263.365ZM62.3437 241.473C61.8154 241.836 61.3572 242.264 60.9342 242.693L60.9298 253.606C61.2821 253.408 61.5992 253.21 61.8814 252.946C62.0578 252.782 62.1985 252.617 62.3396 252.485L62.3437 241.473ZM60.9256 263.925C61.4542 263.826 61.9471 263.628 62.3347 263.365L62.3366 258.782C62.1256 258.518 61.9493 258.353 61.9493 258.353C61.9493 258.353 62.1256 258.419 62.3367 258.617L62.3374 256.903C61.8794 256.771 61.3861 256.705 60.9285 256.804L60.9273 259.673C61.0331 259.607 61.209 259.574 61.1384 259.805C61.1031 259.937 60.9973 259.936 60.9268 259.937L60.9261 261.618C60.9966 261.618 61.102 261.618 61.1725 261.585C61.1725 261.585 61.1019 261.651 60.9256 261.717L60.9256 263.925ZM60.9342 242.693C58.4671 245.133 57.374 248.068 57.1273 248.727C56.7393 249.749 54.2369 253.442 54.0244 255.618C53.8471 257.827 53.8101 263.201 59.1644 263.925C59.7983 264.024 60.3974 264.024 60.9256 263.925L60.9265 261.716C60.4331 261.848 59.3411 261.98 58.1085 260.661C56.4534 258.881 57.2649 255.98 58.5689 254.99C59.4147 254.331 60.2252 253.968 60.9298 253.605L60.9342 242.693ZM60.9285 256.804L60.9273 259.672C60.8215 259.738 60.7509 259.738 60.6809 259.639C60.6103 259.837 60.7513 259.936 60.9272 259.936L60.9265 261.617C59.7992 261.716 58.2496 260.793 58.6377 259.342C59.0964 257.694 59.9422 256.969 60.9285 256.804Z" fill="#2E75A3"/>
<path d="M67.7931 224.081L70.0323 224.002C71.2342 223.96 72.884 224.75 72.7889 226.191L72.1972 235.155C72.1231 236.279 71.6053 236.874 70.654 236.875L67.7023 236.875C66.4995 236.875 65.994 236.162 65.9095 235.039L65.2434 226.193C65.1592 225.07 66.0874 224.141 67.7931 224.081Z" fill="#EDDF0E"/>
<path d="M49.9997 230.313L51.7508 228.866C52.6906 228.09 54.5869 227.715 55.5405 228.949L61.4694 236.62C62.2128 237.582 62.22 238.387 61.4522 238.974L59.0699 240.797C58.0991 241.54 57.1815 241.271 56.3107 240.408L49.4508 233.608C48.5797 232.745 48.6656 231.415 49.9997 230.313Z" fill="#FD6600"/>
<path d="M41.627 246.331L42.0292 244.25C42.2451 243.133 43.4151 241.766 44.88 242.136L53.9889 244.434C55.1309 244.722 55.632 245.316 55.4269 246.194L54.7901 248.917C54.5306 250.026 53.6868 250.353 52.5112 250.211L43.2523 249.095C42.0768 248.954 41.3207 247.916 41.627 246.331Z" fill="#A4DC2D"/>
<path d="M43.0535 261.113L42.1596 259.663C41.6798 258.884 41.6444 257.513 42.7394 257.061L49.5489 254.249C50.4027 253.897 51.0331 254.026 51.3884 254.654L52.4908 256.603C52.9399 257.397 52.6046 257.985 51.8106 258.442L45.5573 262.042C44.7631 262.499 43.7345 262.218 43.0535 261.113Z" fill="#EF3E3E"/>
<mask id="path-16-inside-1_9083_121870" fill="white">
<path d="M41 167H309V207H41V167Z"/>
</mask>
<path d="M309 206.5H41V207.5H309V206.5Z" fill="#D0D7DE" mask="url(#path-16-inside-1_9083_121870)"/>
<rect x="41.25" y="167.25" width="31.5" height="31.5" rx="1.75" stroke="#DEDEDF" stroke-width="0.5"/>
<path fill-rule="evenodd" clip-rule="evenodd" d="M55.6308 193.145L46.3902 188.863C45.603 188.489 45.603 187.911 46.3902 187.572L49.6073 186.076L55.5966 188.863C56.3838 189.237 57.6501 189.237 58.403 188.863L64.3923 186.076L67.6094 187.572C68.3966 187.945 68.3966 188.523 67.6094 188.863L58.3688 193.145C57.6501 193.485 56.3838 193.485 55.6308 193.145Z" fill="#FF6F3D"/>
<path fill-rule="evenodd" clip-rule="evenodd" d="M55.6009 187.846L46.3884 183.559C45.6036 183.185 45.6036 182.606 46.3884 182.266L49.5275 180.803L55.6009 183.627C56.3856 184.001 57.6481 184.001 58.3987 183.627L64.4722 180.803L67.6112 182.266C68.396 182.64 68.396 183.219 67.6112 183.559L58.3987 187.846C57.614 188.22 56.3515 188.22 55.6009 187.846Z" fill="#95C038"/>
<path fill-rule="evenodd" clip-rule="evenodd" d="M55.6009 182.602L46.3884 178.377C45.6036 178.008 45.6036 177.438 46.3884 177.102L55.6009 172.877C56.3856 172.508 57.6481 172.508 58.3987 172.877L67.6112 177.102C68.396 177.471 68.396 178.041 67.6112 178.377L58.3987 182.602C57.614 182.937 56.3515 182.937 55.6009 182.602Z" fill="#5DC0E8"/>
<path d="M86.3174 190.211C84.9287 190.211 83.8184 189.792 82.9863 188.954C82.1602 188.11 81.7471 186.994 81.7471 185.605C81.7471 184.094 82.1777 182.913 83.0391 182.063C83.9062 181.214 85.0723 180.789 86.5371 180.789C87.9434 180.789 89.0391 181.202 89.8242 182.028C90.6094 182.854 91.002 184 91.002 185.465C91.002 186.9 90.5771 188.052 89.7275 188.919C88.8838 189.78 87.7471 190.211 86.3174 190.211ZM86.4141 182.415C85.6172 182.415 84.9873 182.693 84.5244 183.25C84.0615 183.807 83.8301 184.574 83.8301 185.553C83.8301 186.496 84.0645 187.24 84.5332 187.785C85.002 188.324 85.6289 188.594 86.4141 188.594C87.2168 188.594 87.832 188.327 88.2598 187.794C88.6934 187.261 88.9102 186.502 88.9102 185.518C88.9102 184.527 88.6934 183.763 88.2598 183.224C87.832 182.685 87.2168 182.415 86.4141 182.415ZM101.101 190H99.0615V184.929C99.0615 183.247 98.4668 182.406 97.2773 182.406C96.6562 182.406 96.1436 182.641 95.7393 183.109C95.335 183.572 95.1328 184.158 95.1328 184.867V190H93.085V181H95.1328V182.494H95.168C95.8418 181.357 96.8145 180.789 98.0859 180.789C99.0645 180.789 99.8115 181.108 100.327 181.747C100.843 182.38 101.101 183.297 101.101 184.498V190ZM105.645 190H103.597V176.676H105.645V190ZM116.104 181L112.043 191.441C111.199 193.305 110.016 194.236 108.492 194.236C108.064 194.236 107.707 194.198 107.42 194.122V192.426C107.742 192.531 108.035 192.584 108.299 192.584C109.061 192.584 109.629 192.209 110.004 191.459L110.61 189.982L107.033 181H109.292L111.437 187.539C111.46 187.621 111.513 187.838 111.595 188.189H111.639C111.668 188.055 111.721 187.844 111.797 187.557L114.047 181H116.104ZM121.315 190.211C119.927 190.211 118.816 189.792 117.984 188.954C117.158 188.11 116.745 186.994 116.745 185.605C116.745 184.094 117.176 182.913 118.037 182.063C118.904 181.214 120.07 180.789 121.535 180.789C122.941 180.789 124.037 181.202 124.822 182.028C125.607 182.854 126 184 126 185.465C126 186.9 125.575 188.052 124.726 188.919C123.882 189.78 122.745 190.211 121.315 190.211ZM121.412 182.415C120.615 182.415 119.985 182.693 119.522 183.25C119.06 183.807 118.828 184.574 118.828 185.553C118.828 186.496 119.062 187.24 119.531 187.785C120 188.324 120.627 188.594 121.412 188.594C122.215 188.594 122.83 188.327 123.258 187.794C123.691 187.261 123.908 186.502 123.908 185.518C123.908 184.527 123.691 183.763 123.258 183.224C122.83 182.685 122.215 182.415 121.412 182.415ZM132.873 178.337C132.598 178.179 132.284 178.1 131.933 178.1C130.942 178.1 130.447 178.659 130.447 179.778V181H132.539V182.6H130.456V190H128.417V182.6H126.879V181H128.417V179.541C128.417 178.592 128.728 177.845 129.349 177.3C129.97 176.749 130.746 176.474 131.678 176.474C132.182 176.474 132.58 176.529 132.873 176.641V178.337ZM139.078 178.337C138.803 178.179 138.489 178.1 138.138 178.1C137.147 178.1 136.652 178.659 136.652 179.778V181H138.744V182.6H136.661V190H134.622V182.6H133.084V181H134.622V179.541C134.622 178.592 134.933 177.845 135.554 177.3C136.175 176.749 136.951 176.474 137.883 176.474C138.387 176.474 138.785 176.529 139.078 176.641V178.337ZM141.223 179.11C140.889 179.11 140.602 179.002 140.361 178.785C140.127 178.568 140.01 178.293 140.01 177.959C140.01 177.625 140.127 177.347 140.361 177.124C140.602 176.901 140.889 176.79 141.223 176.79C141.568 176.79 141.861 176.901 142.102 177.124C142.342 177.347 142.462 177.625 142.462 177.959C142.462 178.275 142.342 178.548 142.102 178.776C141.861 178.999 141.568 179.11 141.223 179.11ZM142.233 190H140.194V181H142.233V190ZM151.348 189.587C150.627 190.003 149.774 190.211 148.79 190.211C147.454 190.211 146.376 189.795 145.556 188.963C144.735 188.125 144.325 187.041 144.325 185.711C144.325 184.229 144.765 183.039 145.644 182.143C146.528 181.24 147.709 180.789 149.186 180.789C150.006 180.789 150.729 180.933 151.356 181.22V183.118C150.729 182.649 150.062 182.415 149.353 182.415C148.491 182.415 147.785 182.708 147.234 183.294C146.684 183.874 146.408 184.636 146.408 185.579C146.408 186.511 146.666 187.246 147.182 187.785C147.703 188.324 148.4 188.594 149.273 188.594C150.006 188.594 150.697 188.333 151.348 187.812V189.587ZM160.998 186.054H154.863C154.887 186.886 155.142 187.527 155.628 187.979C156.12 188.43 156.794 188.655 157.649 188.655C158.61 188.655 159.492 188.368 160.295 187.794V189.438C159.475 189.953 158.391 190.211 157.043 190.211C155.719 190.211 154.679 189.804 153.923 188.989C153.173 188.169 152.798 187.018 152.798 185.535C152.798 184.135 153.211 182.995 154.037 182.116C154.869 181.231 155.9 180.789 157.131 180.789C158.361 180.789 159.313 181.185 159.987 181.976C160.661 182.767 160.998 183.865 160.998 185.271V186.054ZM159.029 184.612C159.023 183.88 158.851 183.312 158.511 182.907C158.171 182.497 157.702 182.292 157.104 182.292C156.519 182.292 156.021 182.506 155.61 182.934C155.206 183.361 154.957 183.921 154.863 184.612H159.029ZM167.678 185.834H162.879V184.331H167.678V185.834ZM176.625 189.587C175.904 190.003 175.052 190.211 174.067 190.211C172.731 190.211 171.653 189.795 170.833 188.963C170.013 188.125 169.603 187.041 169.603 185.711C169.603 184.229 170.042 183.039 170.921 182.143C171.806 181.24 172.986 180.789 174.463 180.789C175.283 180.789 176.007 180.933 176.634 181.22V183.118C176.007 182.649 175.339 182.415 174.63 182.415C173.769 182.415 173.062 182.708 172.512 183.294C171.961 183.874 171.686 184.636 171.686 185.579C171.686 186.511 171.943 187.246 172.459 187.785C172.98 188.324 173.678 188.594 174.551 188.594C175.283 188.594 175.975 188.333 176.625 187.812V189.587ZM186.653 190H184.614V185.078C184.614 183.297 184.02 182.406 182.83 182.406C182.232 182.406 181.729 182.664 181.318 183.18C180.908 183.695 180.703 184.354 180.703 185.157V190H178.655V176.676H180.703V182.494H180.738C181.418 181.357 182.391 180.789 183.656 180.789C185.654 180.789 186.653 182.011 186.653 184.454V190ZM196.04 190H194.062V188.594H194.027C193.406 189.672 192.495 190.211 191.294 190.211C190.409 190.211 189.715 189.971 189.211 189.49C188.713 189.01 188.464 188.374 188.464 187.583C188.464 185.884 189.442 184.894 191.399 184.612L194.071 184.234C194.071 182.951 193.462 182.31 192.243 182.31C191.171 182.31 190.204 182.679 189.343 183.417V181.633C190.292 181.07 191.388 180.789 192.63 180.789C194.903 180.789 196.04 181.908 196.04 184.146V190ZM194.071 185.579L192.182 185.843C191.596 185.919 191.153 186.062 190.854 186.273C190.562 186.479 190.415 186.842 190.415 187.363C190.415 187.744 190.55 188.058 190.819 188.304C191.095 188.544 191.461 188.664 191.918 188.664C192.539 188.664 193.052 188.447 193.456 188.014C193.866 187.574 194.071 187.023 194.071 186.361V185.579ZM211.992 190H209.953V185.096C209.953 184.152 209.818 183.47 209.549 183.048C209.285 182.626 208.837 182.415 208.204 182.415C207.671 182.415 207.217 182.682 206.842 183.215C206.473 183.748 206.288 184.387 206.288 185.131V190H204.24V184.929C204.24 183.253 203.648 182.415 202.465 182.415C201.914 182.415 201.46 182.667 201.103 183.171C200.751 183.675 200.575 184.328 200.575 185.131V190H198.536V181H200.575V182.424H200.61C201.261 181.334 202.207 180.789 203.449 180.789C204.07 180.789 204.612 180.962 205.075 181.308C205.544 181.647 205.863 182.096 206.033 182.652C206.701 181.41 207.697 180.789 209.021 180.789C211.002 180.789 211.992 182.011 211.992 184.454V190ZM215.508 179.11C215.174 179.11 214.887 179.002 214.646 178.785C214.412 178.568 214.295 178.293 214.295 177.959C214.295 177.625 214.412 177.347 214.646 177.124C214.887 176.901 215.174 176.79 215.508 176.79C215.854 176.79 216.146 176.901 216.387 177.124C216.627 177.347 216.747 177.625 216.747 177.959C216.747 178.275 216.627 178.548 216.387 178.776C216.146 178.999 215.854 179.11 215.508 179.11ZM216.519 190H214.479V181H216.519V190ZM221.238 190H219.19V176.676H221.238V190ZM227.892 190.211C226.503 190.211 225.393 189.792 224.561 188.954C223.734 188.11 223.321 186.994 223.321 185.605C223.321 184.094 223.752 182.913 224.613 182.063C225.48 181.214 226.646 180.789 228.111 180.789C229.518 180.789 230.613 181.202 231.398 182.028C232.184 182.854 232.576 184 232.576 185.465C232.576 186.9 232.151 188.052 231.302 188.919C230.458 189.78 229.321 190.211 227.892 190.211ZM227.988 182.415C227.191 182.415 226.562 182.693 226.099 183.25C225.636 183.807 225.404 184.574 225.404 185.553C225.404 186.496 225.639 187.24 226.107 187.785C226.576 188.324 227.203 188.594 227.988 188.594C228.791 188.594 229.406 188.327 229.834 187.794C230.268 187.261 230.484 186.502 230.484 185.518C230.484 184.527 230.268 183.763 229.834 183.224C229.406 182.685 228.791 182.415 227.988 182.415Z" fill="#1F2328"/>
<rect x="247.25" y="172.75" width="37.5" height="20.5" rx="10.25" stroke="#D0D7DE" stroke-width="0.5"/>
<rect x="253" y="181.5" width="26" height="3" rx="1.5" fill="#E2E2E2"/>
</g>
<rect x="22" y="314" width="306" height="110" rx="20" fill="black" fill-opacity="0.2"/>
<rect opacity="0.3" x="61.4712" y="380.528" width="21.0574" height="21.0574" transform="rotate(-90 61.4712 380.528)" stroke="white"/>
<rect opacity="0.3" x="43.7071" y="370" width="40.0122" height="40.0122" transform="rotate(-45 43.7071 370)" stroke="white"/>
<rect x="121" y="353" width="100" height="8" rx="4" fill="white" fill-opacity="0.13"/>
<rect x="121" y="370" width="170" height="4" rx="2" fill="white" fill-opacity="0.13"/>
<rect x="121" y="383" width="100" height="4" rx="2" fill="white" fill-opacity="0.13"/>
</g>
<defs>
<clipPath id="clip0_9083_121870">
<rect width="328" height="440" fill="white"/>
</clipPath>
<clipPath id="clip1_9083_121870">
<rect x="328" y="150" width="140" height="306" rx="20" transform="rotate(90 328 150)" fill="white"/>
</clipPath>
</defs>
</svg>
