<svg width="306" height="408" viewBox="0 0 306 408" fill="none" xmlns="http://www.w3.org/2000/svg">
<rect width="306" height="110" rx="20" fill="black" fill-opacity="0.2"/>
<rect opacity="0.3" x="22.5" y="82.5" width="57" height="57" rx="28.5" transform="rotate(-90 22.5 82.5)" stroke="white"/>
<rect opacity="0.3" x="37.6904" y="67.3098" width="26.619" height="26.619" rx="13.3095" transform="rotate(-90 37.6904 67.3098)" stroke="white"/>
<rect x="100" y="36" width="100" height="8" rx="4" fill="white" fill-opacity="0.13"/>
<rect x="100" y="54" width="170" height="4" rx="2" fill="white" fill-opacity="0.13"/>
<rect x="100" y="68" width="100" height="4" rx="2" fill="white" fill-opacity="0.13"/>
<g clip-path="url(#clip0_9083_122109)">
<rect x="306" y="134" width="140" height="306" rx="20" transform="rotate(90 306 134)" fill="white"/>
<rect x="83" y="210" width="100" height="8" rx="4" fill="#E2E2E2"/>
<rect x="83" y="228" width="190" height="4" rx="2" fill="#E2E2E2"/>
<rect x="83" y="242" width="100" height="4" rx="2" fill="#E2E2E2"/>
<path d="M62.5338 233.185C62.5338 233.185 62.8861 233.021 62.9921 232.46C62.9921 232.427 62.9921 232.394 62.9921 232.361L62.9922 232.262C62.9571 231.735 62.3935 231.108 61.7599 230.482C61.0204 229.79 60.3866 229.46 60.3866 229.46C60.3866 229.46 60.0702 228.075 58.7321 226.163C57.4297 224.251 55.1756 222.24 53.9428 222.834C52.7095 223.427 53.8008 225.076 53.8711 225.57C53.9767 226.098 54.5045 226.955 54.3286 226.955C54.1174 226.922 51.4416 222.208 44.7481 223.528C43.0216 223.89 41.5418 224.583 40.3437 225.473L40.3392 236.485C40.7621 236.089 40.9381 235.891 40.9381 235.891C40.9381 235.891 41.3953 237.87 42.2405 238.76C43.0857 239.65 44.1069 240.177 44.4242 239.518C44.7414 238.891 43.7563 236.188 43.7563 236.188C43.7563 236.188 45.5874 237.836 46.1158 238.232C46.6442 238.627 47.6655 239.121 47.9475 238.232C48.1943 237.342 47.4551 235.99 46.8566 235.759C46.2933 235.528 45.9406 235.528 45.9406 235.528C45.9406 235.528 45.5885 235.1 45.4122 234.968C45.2011 234.836 45.1658 234.836 45.1658 234.836C45.1658 234.836 45.4829 234.671 46.4695 234.704C47.4909 234.737 48.3012 234.77 48.3012 234.77C48.3012 234.77 49.2168 236.022 49.78 236.418C50.3084 236.847 51.6817 237.868 52.1748 238.297C52.6327 238.725 52.9143 238.923 53.0908 238.56C53.232 238.197 52.9855 237.242 52.3519 236.549C51.6829 235.89 50.9786 235.527 50.7319 235.198C50.5209 234.802 50.3799 234.506 50.3799 234.506C50.3799 234.506 51.6831 235.395 52 235.692C52.3521 235.956 54.6766 237.307 55.064 237.538C55.4514 237.802 55.6278 237.637 55.6278 237.637C55.6278 237.637 55.9094 237.834 56.0153 237.703C56.1211 237.571 56.4032 236.681 55.6637 236.154C54.8889 235.593 54.431 235.329 54.5015 235.263C54.5368 235.198 55.3117 235.428 55.4172 235.23C55.4878 235.066 55.3821 234.802 55.2763 234.736C55.2058 234.637 55.488 234.439 55.488 234.439C55.488 234.439 55.7697 234.439 56.9322 234.538C58.0947 234.637 61.0188 233.713 61.618 233.515C62.2167 233.317 62.5338 233.185 62.5338 233.185ZM40.3347 247.365C42.7662 245.881 42.8731 242.122 41.535 241.397C41.1476 241.167 40.7601 241.002 40.3374 240.903L40.3367 242.617C40.4425 242.683 40.5482 242.782 40.6183 242.947C40.8293 243.343 40.7237 243.837 40.7237 243.837C40.7237 243.837 40.6887 243.211 40.4424 242.881C40.4071 242.848 40.3719 242.815 40.3366 242.782L40.3347 247.365ZM40.3437 225.473C39.8154 225.836 39.3572 226.264 38.9342 226.693L38.9298 237.606C39.2821 237.408 39.5992 237.21 39.8814 236.946C40.0578 236.782 40.1985 236.617 40.3396 236.485L40.3437 225.473ZM38.9256 247.925C39.4542 247.826 39.9471 247.628 40.3347 247.365L40.3366 242.782C40.1256 242.518 39.9493 242.353 39.9493 242.353C39.9493 242.353 40.1256 242.419 40.3367 242.617L40.3374 240.903C39.8794 240.771 39.3861 240.705 38.9285 240.804L38.9273 243.673C39.0331 243.607 39.209 243.574 39.1384 243.805C39.1031 243.937 38.9973 243.936 38.9268 243.937L38.9261 245.618C38.9966 245.618 39.102 245.618 39.1725 245.585C39.1725 245.585 39.1019 245.651 38.9256 245.717L38.9256 247.925ZM38.9342 226.693C36.4671 229.133 35.374 232.068 35.1273 232.727C34.7393 233.749 32.2369 237.442 32.0244 239.618C31.8471 241.827 31.8101 247.201 37.1644 247.925C37.7983 248.024 38.3974 248.024 38.9256 247.925L38.9265 245.716C38.4331 245.848 37.3411 245.98 36.1085 244.661C34.4534 242.881 35.2649 239.98 36.5689 238.99C37.4147 238.331 38.2252 237.968 38.9298 237.605L38.9342 226.693ZM38.9285 240.804L38.9273 243.672C38.8215 243.738 38.7509 243.738 38.6809 243.639C38.6103 243.837 38.7513 243.936 38.9272 243.936L38.9265 245.617C37.7992 245.716 36.2496 244.793 36.6377 243.342C37.0964 241.694 37.9422 240.969 38.9285 240.804Z" fill="#2E75A3"/>
<path d="M45.7931 208.081L48.0323 208.002C49.2342 207.96 50.884 208.75 50.7889 210.191L50.1972 219.155C50.1231 220.279 49.6053 220.874 48.654 220.875L45.7023 220.875C44.4995 220.875 43.994 220.162 43.9095 219.039L43.2434 210.193C43.1592 209.07 44.0874 208.141 45.7931 208.081Z" fill="#EDDF0E"/>
<path d="M27.9997 214.313L29.7508 212.866C30.6906 212.09 32.5869 211.715 33.5405 212.949L39.4694 220.62C40.2128 221.582 40.22 222.387 39.4522 222.974L37.0699 224.797C36.0991 225.54 35.1815 225.271 34.3107 224.408L27.4508 217.608C26.5797 216.745 26.6656 215.415 27.9997 214.313Z" fill="#FD6600"/>
<path d="M19.627 230.331L20.0292 228.25C20.2451 227.133 21.4151 225.766 22.88 226.136L31.9889 228.434C33.1309 228.722 33.632 229.316 33.4269 230.194L32.7901 232.917C32.5306 234.026 31.6868 234.353 30.5112 234.211L21.2523 233.095C20.0768 232.954 19.3207 231.916 19.627 230.331Z" fill="#A4DC2D"/>
<path d="M21.0535 245.113L20.1596 243.663C19.6798 242.884 19.6444 241.513 20.7394 241.061L27.5489 238.249C28.4027 237.897 29.0331 238.026 29.3884 238.654L30.4908 240.603C30.9399 241.397 30.6046 241.985 29.8106 242.442L23.5573 246.042C22.7631 246.499 21.7345 246.218 21.0535 245.113Z" fill="#EF3E3E"/>
<mask id="path-16-inside-1_9083_122109" fill="white">
<path d="M19 151H287V191H19V151Z"/>
</mask>
<path d="M287 190.5H19V191.5H287V190.5Z" fill="#D0D7DE" mask="url(#path-16-inside-1_9083_122109)"/>
<rect x="19.25" y="151.25" width="31.5" height="31.5" rx="1.75" stroke="#DEDEDF" stroke-width="0.5"/>
<path fill-rule="evenodd" clip-rule="evenodd" d="M33.6308 177.145L24.3902 172.863C23.603 172.489 23.603 171.911 24.3902 171.572L27.6073 170.076L33.5966 172.863C34.3838 173.237 35.6501 173.237 36.403 172.863L42.3923 170.076L45.6094 171.572C46.3966 171.945 46.3966 172.523 45.6094 172.863L36.3688 177.145C35.6501 177.485 34.3838 177.485 33.6308 177.145Z" fill="#FF6F3D"/>
<path fill-rule="evenodd" clip-rule="evenodd" d="M33.6009 171.846L24.3884 167.559C23.6036 167.185 23.6036 166.606 24.3884 166.266L27.5275 164.803L33.6009 167.627C34.3856 168.001 35.6481 168.001 36.3987 167.627L42.4722 164.803L45.6112 166.266C46.396 166.64 46.396 167.219 45.6112 167.559L36.3987 171.846C35.614 172.22 34.3515 172.22 33.6009 171.846Z" fill="#95C038"/>
<path fill-rule="evenodd" clip-rule="evenodd" d="M33.6009 166.602L24.3884 162.377C23.6036 162.008 23.6036 161.438 24.3884 161.102L33.6009 156.877C34.3856 156.508 35.6481 156.508 36.3987 156.877L45.6112 161.102C46.396 161.471 46.396 162.041 45.6112 162.377L36.3987 166.602C35.614 166.937 34.3515 166.937 33.6009 166.602Z" fill="#5DC0E8"/>
<path d="M64.3174 174.211C62.9287 174.211 61.8184 173.792 60.9863 172.954C60.1602 172.11 59.7471 170.994 59.7471 169.605C59.7471 168.094 60.1777 166.913 61.0391 166.063C61.9062 165.214 63.0723 164.789 64.5371 164.789C65.9434 164.789 67.0391 165.202 67.8242 166.028C68.6094 166.854 69.002 168 69.002 169.465C69.002 170.9 68.5771 172.052 67.7275 172.919C66.8838 173.78 65.7471 174.211 64.3174 174.211ZM64.4141 166.415C63.6172 166.415 62.9873 166.693 62.5244 167.25C62.0615 167.807 61.8301 168.574 61.8301 169.553C61.8301 170.496 62.0645 171.24 62.5332 171.785C63.002 172.324 63.6289 172.594 64.4141 172.594C65.2168 172.594 65.832 172.327 66.2598 171.794C66.6934 171.261 66.9102 170.502 66.9102 169.518C66.9102 168.527 66.6934 167.763 66.2598 167.224C65.832 166.685 65.2168 166.415 64.4141 166.415ZM79.1006 174H77.0615V168.929C77.0615 167.247 76.4668 166.406 75.2773 166.406C74.6562 166.406 74.1436 166.641 73.7393 167.109C73.335 167.572 73.1328 168.158 73.1328 168.867V174H71.085V165H73.1328V166.494H73.168C73.8418 165.357 74.8145 164.789 76.0859 164.789C77.0645 164.789 77.8115 165.108 78.3271 165.747C78.8428 166.38 79.1006 167.297 79.1006 168.498V174ZM83.6445 174H81.5967V160.676H83.6445V174ZM94.1035 165L90.043 175.441C89.1992 177.305 88.0156 178.236 86.4922 178.236C86.0645 178.236 85.707 178.198 85.4199 178.122V176.426C85.7422 176.531 86.0352 176.584 86.2988 176.584C87.0605 176.584 87.6289 176.209 88.0039 175.459L88.6104 173.982L85.0332 165H87.292L89.4365 171.539C89.46 171.621 89.5127 171.838 89.5947 172.189H89.6387C89.668 172.055 89.7207 171.844 89.7969 171.557L92.0469 165H94.1035ZM99.3154 174.211C97.9268 174.211 96.8164 173.792 95.9844 172.954C95.1582 172.11 94.7451 170.994 94.7451 169.605C94.7451 168.094 95.1758 166.913 96.0371 166.063C96.9043 165.214 98.0703 164.789 99.5352 164.789C100.941 164.789 102.037 165.202 102.822 166.028C103.607 166.854 104 168 104 169.465C104 170.9 103.575 172.052 102.726 172.919C101.882 173.78 100.745 174.211 99.3154 174.211ZM99.4121 166.415C98.6152 166.415 97.9854 166.693 97.5225 167.25C97.0596 167.807 96.8281 168.574 96.8281 169.553C96.8281 170.496 97.0625 171.24 97.5312 171.785C98 172.324 98.627 172.594 99.4121 172.594C100.215 172.594 100.83 172.327 101.258 171.794C101.691 171.261 101.908 170.502 101.908 169.518C101.908 168.527 101.691 167.763 101.258 167.224C100.83 166.685 100.215 166.415 99.4121 166.415ZM110.873 162.337C110.598 162.179 110.284 162.1 109.933 162.1C108.942 162.1 108.447 162.659 108.447 163.778V165H110.539V166.6H108.456V174H106.417V166.6H104.879V165H106.417V163.541C106.417 162.592 106.728 161.845 107.349 161.3C107.97 160.749 108.746 160.474 109.678 160.474C110.182 160.474 110.58 160.529 110.873 160.641V162.337ZM117.078 162.337C116.803 162.179 116.489 162.1 116.138 162.1C115.147 162.1 114.652 162.659 114.652 163.778V165H116.744V166.6H114.661V174H112.622V166.6H111.084V165H112.622V163.541C112.622 162.592 112.933 161.845 113.554 161.3C114.175 160.749 114.951 160.474 115.883 160.474C116.387 160.474 116.785 160.529 117.078 160.641V162.337ZM119.223 163.11C118.889 163.11 118.602 163.002 118.361 162.785C118.127 162.568 118.01 162.293 118.01 161.959C118.01 161.625 118.127 161.347 118.361 161.124C118.602 160.901 118.889 160.79 119.223 160.79C119.568 160.79 119.861 160.901 120.102 161.124C120.342 161.347 120.462 161.625 120.462 161.959C120.462 162.275 120.342 162.548 120.102 162.776C119.861 162.999 119.568 163.11 119.223 163.11ZM120.233 174H118.194V165H120.233V174ZM129.348 173.587C128.627 174.003 127.774 174.211 126.79 174.211C125.454 174.211 124.376 173.795 123.556 172.963C122.735 172.125 122.325 171.041 122.325 169.711C122.325 168.229 122.765 167.039 123.644 166.143C124.528 165.24 125.709 164.789 127.186 164.789C128.006 164.789 128.729 164.933 129.356 165.22V167.118C128.729 166.649 128.062 166.415 127.353 166.415C126.491 166.415 125.785 166.708 125.234 167.294C124.684 167.874 124.408 168.636 124.408 169.579C124.408 170.511 124.666 171.246 125.182 171.785C125.703 172.324 126.4 172.594 127.273 172.594C128.006 172.594 128.697 172.333 129.348 171.812V173.587ZM138.998 170.054H132.863C132.887 170.886 133.142 171.527 133.628 171.979C134.12 172.43 134.794 172.655 135.649 172.655C136.61 172.655 137.492 172.368 138.295 171.794V173.438C137.475 173.953 136.391 174.211 135.043 174.211C133.719 174.211 132.679 173.804 131.923 172.989C131.173 172.169 130.798 171.018 130.798 169.535C130.798 168.135 131.211 166.995 132.037 166.116C132.869 165.231 133.9 164.789 135.131 164.789C136.361 164.789 137.313 165.185 137.987 165.976C138.661 166.767 138.998 167.865 138.998 169.271V170.054ZM137.029 168.612C137.023 167.88 136.851 167.312 136.511 166.907C136.171 166.497 135.702 166.292 135.104 166.292C134.519 166.292 134.021 166.506 133.61 166.934C133.206 167.361 132.957 167.921 132.863 168.612H137.029ZM145.678 169.834H140.879V168.331H145.678V169.834ZM154.625 173.587C153.904 174.003 153.052 174.211 152.067 174.211C150.731 174.211 149.653 173.795 148.833 172.963C148.013 172.125 147.603 171.041 147.603 169.711C147.603 168.229 148.042 167.039 148.921 166.143C149.806 165.24 150.986 164.789 152.463 164.789C153.283 164.789 154.007 164.933 154.634 165.22V167.118C154.007 166.649 153.339 166.415 152.63 166.415C151.769 166.415 151.062 166.708 150.512 167.294C149.961 167.874 149.686 168.636 149.686 169.579C149.686 170.511 149.943 171.246 150.459 171.785C150.98 172.324 151.678 172.594 152.551 172.594C153.283 172.594 153.975 172.333 154.625 171.812V173.587ZM164.653 174H162.614V169.078C162.614 167.297 162.02 166.406 160.83 166.406C160.232 166.406 159.729 166.664 159.318 167.18C158.908 167.695 158.703 168.354 158.703 169.157V174H156.655V160.676H158.703V166.494H158.738C159.418 165.357 160.391 164.789 161.656 164.789C163.654 164.789 164.653 166.011 164.653 168.454V174ZM174.04 174H172.062V172.594H172.027C171.406 173.672 170.495 174.211 169.294 174.211C168.409 174.211 167.715 173.971 167.211 173.49C166.713 173.01 166.464 172.374 166.464 171.583C166.464 169.884 167.442 168.894 169.399 168.612L172.071 168.234C172.071 166.951 171.462 166.31 170.243 166.31C169.171 166.31 168.204 166.679 167.343 167.417V165.633C168.292 165.07 169.388 164.789 170.63 164.789C172.903 164.789 174.04 165.908 174.04 168.146V174ZM172.071 169.579L170.182 169.843C169.596 169.919 169.153 170.062 168.854 170.273C168.562 170.479 168.415 170.842 168.415 171.363C168.415 171.744 168.55 172.058 168.819 172.304C169.095 172.544 169.461 172.664 169.918 172.664C170.539 172.664 171.052 172.447 171.456 172.014C171.866 171.574 172.071 171.023 172.071 170.361V169.579ZM189.992 174H187.953V169.096C187.953 168.152 187.818 167.47 187.549 167.048C187.285 166.626 186.837 166.415 186.204 166.415C185.671 166.415 185.217 166.682 184.842 167.215C184.473 167.748 184.288 168.387 184.288 169.131V174H182.24V168.929C182.24 167.253 181.648 166.415 180.465 166.415C179.914 166.415 179.46 166.667 179.103 167.171C178.751 167.675 178.575 168.328 178.575 169.131V174H176.536V165H178.575V166.424H178.61C179.261 165.334 180.207 164.789 181.449 164.789C182.07 164.789 182.612 164.962 183.075 165.308C183.544 165.647 183.863 166.096 184.033 166.652C184.701 165.41 185.697 164.789 187.021 164.789C189.002 164.789 189.992 166.011 189.992 168.454V174ZM193.508 163.11C193.174 163.11 192.887 163.002 192.646 162.785C192.412 162.568 192.295 162.293 192.295 161.959C192.295 161.625 192.412 161.347 192.646 161.124C192.887 160.901 193.174 160.79 193.508 160.79C193.854 160.79 194.146 160.901 194.387 161.124C194.627 161.347 194.747 161.625 194.747 161.959C194.747 162.275 194.627 162.548 194.387 162.776C194.146 162.999 193.854 163.11 193.508 163.11ZM194.519 174H192.479V165H194.519V174ZM199.238 174H197.19V160.676H199.238V174ZM205.892 174.211C204.503 174.211 203.393 173.792 202.561 172.954C201.734 172.11 201.321 170.994 201.321 169.605C201.321 168.094 201.752 166.913 202.613 166.063C203.48 165.214 204.646 164.789 206.111 164.789C207.518 164.789 208.613 165.202 209.398 166.028C210.184 166.854 210.576 168 210.576 169.465C210.576 170.9 210.151 172.052 209.302 172.919C208.458 173.78 207.321 174.211 205.892 174.211ZM205.988 166.415C205.191 166.415 204.562 166.693 204.099 167.25C203.636 167.807 203.404 168.574 203.404 169.553C203.404 170.496 203.639 171.24 204.107 171.785C204.576 172.324 205.203 172.594 205.988 172.594C206.791 172.594 207.406 172.327 207.834 171.794C208.268 171.261 208.484 170.502 208.484 169.518C208.484 168.527 208.268 167.763 207.834 167.224C207.406 166.685 206.791 166.415 205.988 166.415Z" fill="#1F2328"/>
<rect x="225.25" y="156.75" width="37.5" height="20.5" rx="10.25" stroke="#D0D7DE" stroke-width="0.5"/>
<rect x="231" y="165.5" width="26" height="3" rx="1.5" fill="#E2E2E2"/>
</g>
<rect y="298" width="306" height="110" rx="20" fill="black" fill-opacity="0.2"/>
<rect opacity="0.3" x="39.4712" y="364.528" width="21.0574" height="21.0574" transform="rotate(-90 39.4712 364.528)" stroke="white"/>
<rect opacity="0.3" x="21.7071" y="354" width="40.0122" height="40.0122" transform="rotate(-45 21.7071 354)" stroke="white"/>
<rect x="99" y="337" width="100" height="8" rx="4" fill="white" fill-opacity="0.13"/>
<rect x="99" y="354" width="170" height="4" rx="2" fill="white" fill-opacity="0.13"/>
<rect x="99" y="367" width="100" height="4" rx="2" fill="white" fill-opacity="0.13"/>
<defs>
<clipPath id="clip0_9083_122109">
<rect x="306" y="134" width="140" height="306" rx="20" transform="rotate(90 306 134)" fill="white"/>
</clipPath>
</defs>
</svg>
