<svg width="96" height="96" viewBox="0 0 96 96" fill="none" xmlns="http://www.w3.org/2000/svg">
<path d="M4 84C4 86.7614 6.239 89 9 89H87C89.761 89 92 86.7614 92 84V12C92 9.23858 89.761 7 87 7H9C6.239 7 4 9.23858 4 12V84Z" fill="#EFEFEF"/>
<path fill-rule="evenodd" clip-rule="evenodd" d="M87 8H9C6.791 8 5 9.79086 5 12V84C5 86.2091 6.791 88 9 88H87C89.209 88 91 86.2091 91 84V12C91 9.79086 89.209 8 87 8ZM9 7C6.239 7 4 9.23858 4 12V84C4 86.7614 6.239 89 9 89H87C89.761 89 92 86.7614 92 84V12C92 9.23858 89.761 7 87 7H9Z" fill="#333333"/>
<path d="M12 33.0001C12 31.8955 12.895 31.0001 14 31.0001H82C83.105 31.0001 84 31.8955 84 33.0001V51.0001C84 52.1046 83.105 53.0001 82 53.0001H14C12.895 53.0001 12 52.1046 12 51.0001V33.0001Z" fill="white"/>
<path fill-rule="evenodd" clip-rule="evenodd" d="M13.534 31.021C12.694 31.021 12.013 31.7234 12.013 32.5898V51.4158C12.013 52.2822 12.694 52.9846 13.534 52.9846H82.473C83.313 52.9846 83.993 52.2822 83.993 51.4158V32.5898C83.993 31.7234 83.313 31.021 82.473 31.021H38.879V29.9751H82.473C83.872 29.9751 85.007 31.1457 85.007 32.5898V51.4158C85.007 52.8598 83.872 54.0305 82.473 54.0305H13.534C12.134 54.0305 10.999 52.8598 10.999 51.4158V32.5898C10.999 31.1457 12.134 29.9751 13.534 29.9751H22.658V31.021H13.534Z" fill="#333333"/>
<path d="M31 42.0001C20.737 42.0001 18 48.0001 18 48.0001H44C44 48.0001 41.263 42.0001 31 42.0001Z" fill="url(#paint0_linear_145_2)"/>
<path d="M31 42.0001C20.737 42.0001 18 48.0001 18 48.0001H44C44 48.0001 41.263 42.0001 31 42.0001Z" fill="#BDECFF"/>
<path fill-rule="evenodd" clip-rule="evenodd" d="M17.09 47.5851L18 48.0001H44L44.9099 47.5851C45.0509 47.8946 45.025 48.2547 44.841 48.5409C44.657 48.8271 44.34 49.0001 44 49.0001H18C17.66 49.0001 17.343 48.8271 17.159 48.5409C16.975 48.2547 16.949 47.8946 17.09 47.5851ZM43.365 47.0001C43.816 47.5971 44 48.0001 44 48.0001C44.91 47.5851 44.91 47.5844 44.909 47.5837V47.5823L44.9069 47.5789L44.903 47.5706L44.892 47.5474C44.883 47.5291 44.871 47.5052 44.856 47.4761C44.827 47.4179 44.784 47.3387 44.728 47.2416C44.616 47.0475 44.448 46.7811 44.215 46.4671C43.75 45.8389 43.022 45.0188 41.955 44.2049C39.807 42.5668 36.342 41.0001 31 41.0001C25.658 41.0001 22.1929 42.5668 20.0449 44.2049C18.9779 45.0188 18.2499 45.8389 17.7849 46.4671C17.5519 46.7811 17.3839 47.0475 17.2719 47.2416C17.2159 47.3387 17.1729 47.4179 17.1439 47.4761C17.1289 47.5052 17.1169 47.5291 17.1079 47.5474L17.0969 47.5706L17.093 47.5789L17.091 47.5823V47.5837C17.09 47.5844 17.09 47.5851 18 48.0001C18 48.0001 18.184 47.5971 18.635 47.0001C19.924 45.2932 23.397 42.0001 31 42.0001C38.603 42.0001 42.076 45.2932 43.365 47.0001ZM43.093 48.4209L43.0919 48.419C43.0929 48.4212 43.093 48.4214 43.093 48.4209ZM18.9069 48.4209C18.9069 48.4214 18.907 48.4205 18.908 48.4183L18.9069 48.4209Z" fill="#333333"/>
<path d="M28 39H34V43.6667L31 46L28 43.6667V39Z" fill="white"/>
<path d="M37 35C37 38.3137 34.314 41 31 41C27.686 41 25 38.3137 25 35C25 31.6863 27.686 29 31 29C34.314 29 37 31.6863 37 35Z" fill="white"/>
<path fill-rule="evenodd" clip-rule="evenodd" d="M31 40C33.761 40 36 37.7614 36 35C36 32.2386 33.761 30 31 30C28.239 30 26 32.2386 26 35C26 37.7614 28.239 40 31 40ZM31 41C34.314 41 37 38.3137 37 35C37 31.6863 34.314 29 31 29C27.686 29 25 31.6863 25 35C25 38.3137 27.686 41 31 41Z" fill="#333333"/>
<path fill-rule="evenodd" clip-rule="evenodd" d="M31.1 30.7653C32.111 32.5001 33.5 34.5001 36 34.5001C36 32.5001 33.222 30.0001 31.1 30.0001C28.222 30.0001 26 32.0001 26 35.0001C28.614 34.5618 30.444 33.0001 31.1 30.7653Z" fill="#AAAAAA"/>
<path fill-rule="evenodd" clip-rule="evenodd" d="M30.412 30.0391C28.207 30.2934 26.501 31.7722 26.093 33.9657C26.032 34.2949 26 34.6403 26 35C26.35 34.9414 26.685 34.8627 27.006 34.7649C28.645 34.2651 29.894 33.268 30.626 31.9175C30.784 31.6277 30.917 31.3215 31.025 31.0005C31.052 30.9229 31.076 30.8445 31.1 30.7652C31.146 30.8448 31.193 30.9251 31.241 31.0056C31.407 31.2835 31.584 31.5655 31.773 31.8425C32.554 32.984 33.56 34.0413 34.994 34.3842C35.308 34.4592 35.643 34.5 36 34.5C36 34.1736 35.926 33.8339 35.793 33.4939C35.203 31.9857 33.45 30.4721 31.838 30.0912C31.587 30.0318 31.339 30 31.1 30C30.866 30 30.636 30.0132 30.412 30.0391ZM31.249 32.829C32.273 34.1946 33.756 35.5 36 35.5C36.552 35.5 37 35.0523 37 34.5C37 33.0877 36.065 31.7142 35.019 30.761C33.961 29.7962 32.506 29 31.1 29C27.713 29 25 31.4058 25 35C25 35.2941 25.129 35.5733 25.354 35.7633C25.579 35.9533 25.875 36.0349 26.165 35.9862C28.39 35.6131 30.175 34.4945 31.249 32.829Z" fill="#333333"/>
<path fill-rule="evenodd" clip-rule="evenodd" d="M33.571 40C33.808 40 34 39.7394 34 40V43.8967C34 44.0278 33.95 44.1531 33.863 44.2423L31.292 46.8738C31.127 47.0421 30.873 47.0421 30.708 46.8738L28.137 44.2423C28.05 44.1531 28 44.0278 28 43.8967V39.8652C28 39.6046 28.192 39.3933 28.429 39.3933C28.665 39.3933 28.857 39.6046 28.857 39.8652V43.691L31 45.8838L33.143 43.691V40.4719C33.143 40.2113 33.335 40 33.571 40Z" fill="#333333"/>
<path fill-rule="evenodd" clip-rule="evenodd" d="M48.0981 38.4602C48.0981 38.1841 48.3221 37.9602 48.5981 37.9602H75.4501C75.7261 37.9602 75.9501 38.1841 75.9501 38.4602C75.9501 38.7364 75.7261 38.9602 75.4501 38.9602H48.5981C48.3221 38.9602 48.0981 38.7364 48.0981 38.4602Z" fill="#333333"/>
<path fill-rule="evenodd" clip-rule="evenodd" d="M48.1777 43.5467C48.1777 43.2706 48.4017 43.0468 48.6777 43.0468H68.9868C69.2628 43.0468 69.4868 43.2706 69.4868 43.5467C69.4868 43.8229 69.2628 44.0467 68.9868 44.0467H48.6777C48.4017 44.0467 48.1777 43.8229 48.1777 43.5467Z" fill="#333333"/>
<path d="M12 60.6399C12 59.5353 12.895 58.6399 14 58.6399H82C83.105 58.6399 84 59.5353 84 60.6399V78.6399C84 79.7445 83.105 80.6399 82 80.6399H14C12.895 80.6399 12 79.7445 12 78.6399V60.6399Z" fill="white"/>
<path fill-rule="evenodd" clip-rule="evenodd" d="M13.516 58.9803C12.682 58.9803 12.006 59.6568 12.006 60.4912V78.6217C12.006 79.4562 12.28 79.9492 13.114 79.9492H82.862C83.696 79.9492 83.963 79.2229 83.963 78.6217L84.034 60.4912C84.034 59.6568 83.358 58.9803 82.523 58.9803H39.05V57.9731H82.523C83.914 57.9731 85.041 59.1005 85.041 60.4912L84.97 78.6217C84.97 79.5744 84.478 80.9565 82.391 80.9565H13.114C11.724 80.9565 10.999 80.0125 10.999 78.6217V60.4912C10.999 59.1005 12.126 57.9731 13.516 57.9731H23.025V58.9803H13.516Z" fill="#333333"/>
<path d="M31 69.4315C20.737 69.4315 18 75.995 18 75.995H44C44 75.995 41.263 69.4315 31 69.4315Z" fill="url(#paint1_linear_145_2)"/>
<path d="M31 69.4315C20.737 69.4315 18 75.995 18 75.995H44C44 75.995 41.263 69.4315 31 69.4315Z" fill="#BDECFF"/>
<path fill-rule="evenodd" clip-rule="evenodd" d="M17.09 75.5902L18 76.0052H44L44.9099 75.5902C45.0509 75.8997 45.025 76.2598 44.841 76.546C44.657 76.8322 44.34 77.0052 44 77.0052H18C17.66 77.0052 17.343 76.8322 17.159 76.546C16.975 76.2598 16.949 75.8997 17.09 75.5902ZM43.365 75.0052C43.816 75.6022 44 76.0052 44 76.0052C44.91 75.5902 44.91 75.5895 44.909 75.5888V75.5874L44.9069 75.584L44.903 75.5757L44.892 75.5525C44.883 75.5342 44.871 75.5104 44.856 75.4812C44.827 75.423 44.784 75.3439 44.728 75.2467C44.616 75.0526 44.448 74.7862 44.215 74.4722C43.75 73.844 43.022 73.0239 41.955 72.21C39.807 70.5719 36.342 69.0052 31 69.0052C25.658 69.0052 22.1929 70.5719 20.0449 72.21C18.9779 73.0239 18.2499 73.844 17.7849 74.4722C17.5519 74.7862 17.3839 75.0526 17.2719 75.2467C17.2159 75.3439 17.1729 75.423 17.1439 75.4812C17.1289 75.5104 17.1169 75.5342 17.1079 75.5525L17.0969 75.5757L17.093 75.584L17.091 75.5874V75.5888C17.09 75.5895 17.09 75.5902 18 76.0052C18 76.0052 18.184 75.6022 18.635 75.0052C19.924 73.2983 23.397 70.0052 31 70.0052C38.603 70.0052 42.076 73.2983 43.365 75.0052ZM43.093 76.426L43.0919 76.4241C43.0929 76.4264 43.093 76.4265 43.093 76.426ZM18.9069 76.426C18.9069 76.4265 18.907 76.4256 18.908 76.4234L18.9069 76.426Z" fill="#333333"/>
<path d="M28 66.6398H34V71.3065L31 73.6398L28 71.3065V66.6398Z" fill="white"/>
<path d="M37 62.6398C37 65.9535 34.314 68.6398 31 68.6398C27.686 68.6398 25 65.9535 25 62.6398C25 59.3261 27.686 56.6398 31 56.6398C34.314 56.6398 37 59.3261 37 62.6398Z" fill="white"/>
<path fill-rule="evenodd" clip-rule="evenodd" d="M31 67.6398C33.761 67.6398 36 65.4012 36 62.6398C36 59.8783 33.761 57.6398 31 57.6398C28.239 57.6398 26 59.8783 26 62.6398C26 65.4012 28.239 67.6398 31 67.6398ZM31 68.6398C34.314 68.6398 37 65.9535 37 62.6398C37 59.3261 34.314 56.6398 31 56.6398C27.686 56.6398 25 59.3261 25 62.6398C25 65.9535 27.686 68.6398 31 68.6398Z" fill="#333333"/>
<path fill-rule="evenodd" clip-rule="evenodd" d="M31.1 58.4051C32.111 60.1399 33.5 62.1399 36 62.1399C36 60.1399 33.222 57.6399 31.1 57.6399C28.222 57.6399 26 59.6399 26 62.6399C28.614 62.2015 30.444 60.6399 31.1 58.4051Z" fill="#AAAAAA"/>
<path fill-rule="evenodd" clip-rule="evenodd" d="M30.412 57.6788C28.207 57.9332 26.501 59.412 26.093 61.6055C26.032 61.9347 26 62.2801 26 62.6398C26.35 62.5811 26.685 62.5024 27.006 62.4047C28.645 61.9049 29.894 60.9078 30.626 59.5573C30.784 59.2674 30.917 58.9613 31.025 58.6403C31.052 58.5627 31.076 58.4843 31.1 58.405C31.146 58.4846 31.193 58.5648 31.241 58.6454C31.407 58.9233 31.584 59.2053 31.773 59.4823C32.554 60.6238 33.56 61.6811 34.994 62.0239C35.308 62.099 35.643 62.1398 36 62.1398C36 61.8134 35.926 61.4737 35.793 61.1337C35.203 59.6255 33.45 58.1119 31.838 57.731C31.587 57.6716 31.339 57.6398 31.1 57.6398C30.866 57.6398 30.636 57.653 30.412 57.6788ZM31.249 60.4688C32.273 61.8344 33.756 63.1398 36 63.1398C36.552 63.1398 37 62.6921 37 62.1398C37 60.7275 36.065 59.3539 35.019 58.4008C33.961 57.4359 32.506 56.6398 31.1 56.6398C27.713 56.6398 25 59.0456 25 62.6398C25 62.9339 25.129 63.2131 25.354 63.4031C25.579 63.5931 25.875 63.6746 26.165 63.626C28.39 63.2529 30.175 62.1343 31.249 60.4688Z" fill="#333333"/>
<path fill-rule="evenodd" clip-rule="evenodd" d="M33.571 67C33.808 67 34 67.2113 34 67.4719V70.8967C34 71.0278 33.95 71.1531 33.863 71.2423L31.292 73.8738C31.127 74.0421 30.873 74.0421 30.708 73.8738L28.137 71.2423C28.05 71.1531 28 71.0278 28 70.8967V67.8652C28 67.6046 28.192 67.3933 28.429 67.3933C28.665 67.3933 28.857 67.6046 28.857 67.8652V70.691L31 72.8838L33.143 70.691V67.4719C33.143 67.2113 33.335 67 33.571 67Z" fill="#333333"/>
<path fill-rule="evenodd" clip-rule="evenodd" d="M48.1777 66.5385C48.1777 66.2706 48.4017 66.0533 48.6777 66.0533H75.5298C75.8058 66.0533 76.0298 66.2706 76.0298 66.5385C76.0298 66.8065 75.8058 67.0238 75.5298 67.0238H48.6777C48.4017 67.0238 48.1777 66.8065 48.1777 66.5385Z" fill="#333333"/>
<path fill-rule="evenodd" clip-rule="evenodd" d="M48.1777 71.4762C48.1777 71.2001 48.4017 70.9763 48.6777 70.9763H68.9868C69.2628 70.9763 69.4868 71.2001 69.4868 71.4762C69.4868 71.7524 69.2628 71.9762 68.9868 71.9762H48.6777C48.4017 71.9762 48.1777 71.7524 48.1777 71.4762Z" fill="#333333"/>
<path fill-rule="evenodd" clip-rule="evenodd" d="M13.802 17H83.196C84.744 17 85.999 18.3431 85.999 20C85.999 21.6569 84.744 23 83.196 23H13.802C12.254 23 10.999 21.6569 10.999 20C10.999 18.3431 12.254 17 13.802 17ZM13.802 17.9993C12.823 17.9993 12.029 18.9523 12.029 20C12.029 21.0477 12.823 21.9996 13.802 21.9996H83.196C84.175 21.9996 84.969 21.0477 84.969 20C84.969 18.9523 84.175 17.9993 83.196 17.9993H13.802Z" fill="#333333"/>
<path d="M67 17H83.067C84.687 17 86 18.3431 86 20C86 21.6569 84.687 23 83.067 23H67V17Z" fill="url(#paint2_linear_145_2)"/>
<path fill-rule="evenodd" clip-rule="evenodd" d="M83.067 18H68V22H83.067C84.113 22 85 21.1259 85 20C85 18.8741 84.113 18 83.067 18ZM67 17V23H83.067C84.687 23 86 21.6569 86 20C86 18.3431 84.687 17 83.067 17H67Z" fill="#333333"/>
<defs>
<linearGradient id="paint0_linear_145_2" x1="31" y1="42.0001" x2="31" y2="48.0001" gradientUnits="userSpaceOnUse">
<stop stop-color="#FF8E3D"/>
<stop offset="1" stop-color="#FF6F3D"/>
</linearGradient>
<linearGradient id="paint1_linear_145_2" x1="31" y1="69.4315" x2="31" y2="75.995" gradientUnits="userSpaceOnUse">
<stop stop-color="#FF8E3D"/>
<stop offset="1" stop-color="#FF6F3D"/>
</linearGradient>
<linearGradient id="paint2_linear_145_2" x1="67" y1="16.7656" x2="70.341" y2="27.759" gradientUnits="userSpaceOnUse">
<stop stop-color="#FFC671"/>
<stop offset="0.59375" stop-color="#FF7541"/>
<stop offset="1" stop-color="#FF6F3D"/>
</linearGradient>
</defs>
</svg>
