<svg xmlns="http://www.w3.org/2000/svg" width="72" height="72" viewBox="0 0 72 72" fill="none">
<path d="M63.036 65H8.96399C6.77501 65 5 63.0425 5 60.6286V23.2107C5 20.7968 7.53111 18 9.72008 18H62.2799C64.4689 18 67 20.7968 67 23.2107V60.6286C66.9937 63.0425 65.225 65 63.036 65Z" fill="#EFEFEF"/>
<path d="M62.5366 18H10.8727C8.59538 18 6 21.086 6 23.7912V27H67V23.7838C67 21.086 64.8201 18 62.5366 18Z" fill="white"/>
<path d="M11.5 24C12.3284 24 13 23.3284 13 22.5C13 21.6716 12.3284 21 11.5 21C10.6716 21 10 21.6716 10 22.5C10 23.3284 10.6716 24 11.5 24Z" fill="#333333"/>
<path d="M17.5 24C18.3284 24 19 23.3284 19 22.5C19 21.6716 18.3284 21 17.5 21C16.6716 21 16 21.6716 16 22.5C16 23.3284 16.6716 24 17.5 24Z" fill="#333333"/>
<path fill-rule="evenodd" clip-rule="evenodd" d="M56 27.5C56 27.2239 56.2239 27 56.5 27H65.3478H66V28H56.5C56.2239 28 56 27.7761 56 27.5ZM19.4835 28C19.7596 28 19.9835 27.7761 19.9835 27.5C19.9835 27.2239 19.7596 27 19.4835 27H6.65217H6V28H19.4835Z" fill="#333333"/>
<path fill-rule="evenodd" clip-rule="evenodd" d="M35.9998 34C36.2123 34 36.3845 34.1722 36.3845 34.3846L36.3845 35.25C36.3845 35.4624 36.2123 35.6346 35.9998 35.6346C35.7874 35.6346 35.6152 35.4624 35.6152 35.25L35.6152 34.3846C35.6152 34.1722 35.7874 34 35.9998 34ZM35.9998 36.5962C36.2123 36.5962 36.3845 36.7684 36.3845 36.9808L36.3845 38.7115C36.3845 38.924 36.2123 39.0962 35.9998 39.0962C35.7874 39.0962 35.6152 38.924 35.6152 38.7115L35.6152 36.9808C35.6152 36.7684 35.7874 36.5962 35.9998 36.5962ZM35.9999 40.0577C36.2123 40.0577 36.3845 40.2299 36.3845 40.4423L36.3845 41.3077C36.3845 41.5201 36.2123 41.6923 35.9999 41.6923C35.7874 41.6923 35.6152 41.5201 35.6152 41.3077L35.6152 40.4423C35.6152 40.2299 35.7874 40.0577 35.9999 40.0577Z" fill="#FF6F3D"/>
<path fill-rule="evenodd" clip-rule="evenodd" d="M35.558 34.1558C35.63 33.956 35.8582 33.8551 36.0679 33.9306L36.7883 34.19C36.998 34.2654 37.1096 34.4886 37.0377 34.6885C36.9657 34.8884 36.7374 34.9892 36.5278 34.9137L35.8073 34.6544C35.5977 34.5789 35.4861 34.3557 35.558 34.1558ZM37.7193 34.9339C37.7913 34.7341 38.0196 34.6332 38.2292 34.7087L39.6701 35.2274C39.8797 35.3029 39.9914 35.5261 39.9194 35.7259C39.8475 35.9258 39.6192 36.0266 39.4095 35.9512L37.9687 35.4324C37.759 35.357 37.6474 35.1338 37.7193 34.9339ZM40.6011 35.9713C40.6731 35.7715 40.9013 35.6707 41.111 35.7461L42.5519 36.2648C42.7615 36.3403 42.8731 36.5635 42.8012 36.7634C42.7292 36.9632 42.501 37.0641 42.2913 36.9886L40.8504 36.4699C40.6408 36.3944 40.5292 36.1712 40.6011 35.9713ZM43.4829 37.0088C43.5548 36.8089 43.7831 36.7081 43.9927 36.7836L45.4336 37.3023C45.6433 37.3778 45.7549 37.601 45.683 37.8008C45.611 38.0007 45.3827 38.1015 45.1731 38.026L43.7322 37.5073C43.5225 37.4318 43.4109 37.2086 43.4829 37.0088ZM46.3646 38.0462C46.4366 37.8464 46.6649 37.7455 46.8745 37.821L48.3154 38.3397C48.525 38.4152 48.6367 38.6384 48.5647 38.8383C48.4928 39.0381 48.2645 39.1389 48.0548 39.0635L46.614 38.5448C46.4043 38.4693 46.2927 38.2461 46.3646 38.0462ZM49.2464 39.0837C49.3184 38.8838 49.5466 38.783 49.7563 38.8584L51.1972 39.3772C51.4068 39.4526 51.5184 39.6758 51.4465 39.8757C51.3745 40.0755 51.1463 40.1764 50.9366 40.1009L49.4957 39.5822C49.2861 39.5067 49.1745 39.2835 49.2464 39.0837ZM52.1282 40.1211C52.2001 39.9212 52.4284 39.8204 52.638 39.8959L54.0789 40.4146C54.2886 40.4901 54.4002 40.7133 54.3283 40.9131C54.2563 41.113 54.028 41.2138 53.8184 41.1383L52.3775 40.6196C52.1678 40.5442 52.0562 40.321 52.1282 40.1211ZM55.0099 41.1585C55.0819 40.9587 55.3102 40.8578 55.5198 40.9333L56.2403 41.1927C56.4499 41.2681 56.5615 41.4913 56.4896 41.6912C56.4176 41.8911 56.1893 41.9919 55.9797 41.9164L55.2593 41.6571C55.0496 41.5816 54.938 41.3584 55.0099 41.1585Z" fill="#FF6F3D"/>
<path fill-rule="evenodd" clip-rule="evenodd" d="M36.2778 34.1419C36.3492 34.3419 36.2411 34.5634 36.0363 34.6365L35.3075 34.8968C35.1027 34.9699 34.8787 34.8671 34.8073 34.667C34.7358 34.467 34.844 34.2455 35.0488 34.1724L35.7776 33.9121C35.9824 33.839 36.2064 33.9418 36.2778 34.1419ZM34.0914 34.9227C34.1628 35.1227 34.0547 35.3442 33.8499 35.4173L32.3922 35.9379C32.1874 36.011 31.9635 35.9082 31.892 35.7081C31.8206 35.5081 31.9287 35.2866 32.1335 35.2135L33.5912 34.6929C33.796 34.6198 34.0199 34.7227 34.0914 34.9227ZM31.1761 35.9638C31.2475 36.1638 31.1394 36.3853 30.9346 36.4584L29.477 36.979C29.2722 37.0521 29.0482 36.9492 28.9768 36.7492C28.9053 36.5492 29.0135 36.3277 29.2183 36.2546L30.6759 35.734C30.8807 35.6609 31.1047 35.7637 31.1761 35.9638ZM28.2609 37.0049C28.3323 37.2049 28.2242 37.4264 28.0194 37.4995L26.5617 38.0201C26.3569 38.0932 26.133 37.9903 26.0615 37.7903C25.9901 37.5902 26.0982 37.3688 26.303 37.2956L27.7607 36.7751C27.9655 36.702 28.1894 36.8048 28.2609 37.0049ZM25.3456 38.046C25.417 38.246 25.3089 38.4675 25.1041 38.5406L23.6465 39.0612C23.4417 39.1343 23.2177 39.0314 23.1463 38.8314C23.0748 38.6313 23.183 38.4099 23.3878 38.3367L24.8454 37.8162C25.0502 37.743 25.2742 37.8459 25.3456 38.046ZM22.4304 39.0871C22.5018 39.2871 22.3937 39.5086 22.1889 39.5817L20.7312 40.1022C20.5264 40.1754 20.3025 40.0725 20.231 39.8725C20.1596 39.6724 20.2677 39.451 20.4725 39.3778L21.9302 38.8573C22.135 38.7841 22.3589 38.887 22.4304 39.0871ZM19.5151 40.1281C19.5865 40.3282 19.4784 40.5496 19.2736 40.6228L17.816 41.1433C17.6112 41.2165 17.3872 41.1136 17.3158 40.9136C17.2443 40.7135 17.3525 40.4921 17.5573 40.4189L19.0149 39.8984C19.2197 39.8252 19.4437 39.9281 19.5151 40.1281ZM16.5999 41.1692C16.6713 41.3693 16.5632 41.5907 16.3584 41.6639L15.6295 41.9242C15.4247 41.9973 15.2008 41.8944 15.1293 41.6944C15.0579 41.4943 15.166 41.2729 15.3708 41.1997L16.0997 40.9395C16.3045 40.8663 16.5284 40.9692 16.5999 41.1692Z" fill="#FF6F3D"/>
<path fill-rule="evenodd" clip-rule="evenodd" d="M63.036 64H8.96399C7.41711 64 6 62.5846 6 60.6286V23.2107C6 22.326 6.48302 21.2519 7.28042 20.3714C8.08895 19.4785 9.02059 19 9.72008 19H17.5C17.7761 19 18 18.7761 18 18.5C18 18.2239 17.7761 18 17.5 18H9.72008C7.53111 18 5 20.7968 5 23.2107V60.6286C5 63.0425 6.77501 65 8.96399 65H63.036C65.225 65 66.9937 63.0425 67 60.6286V23.2107C67 20.7968 64.4689 18 62.2799 18H56.5C56.2239 18 56 18.2239 56 18.5C56 18.7761 56.2239 19 56.5 19H62.2799C62.9794 19 63.9111 19.4785 64.7196 20.3714C65.517 21.2519 66 22.326 66 23.2107L66 60.626L66 60.6273C65.9942 62.5872 64.5804 64 63.036 64Z" fill="#333333"/>
<path d="M1 62H71C71 64.7614 68.5892 67 65.6154 67H6.38461C3.41077 67 1 64.7614 1 62Z" fill="white"/>
<path fill-rule="evenodd" clip-rule="evenodd" d="M69.236 65H2.76404L2 64H70L69.236 65Z" fill="#AAAAAA"/>
<path fill-rule="evenodd" clip-rule="evenodd" d="M71 62H1C1 62.3425 1.03708 62.6769 1.10771 63C1.60662 65.2822 3.77958 67 6.38461 67H65.6154C68.2204 67 70.3934 65.2822 70.8923 63C70.9629 62.6769 71 62.3425 71 62ZM69.8598 63H2.14017C2.62118 64.6883 4.29103 66 6.38461 66H65.6154C67.709 66 69.3788 64.6883 69.8598 63Z" fill="#333333"/>
<path d="M17 61C21.9706 61 26 56.9706 26 52C26 47.0294 21.9706 43 17 43C12.0294 43 8 47.0294 8 52C8 56.9706 12.0294 61 17 61Z" fill="white"/>
<path fill-rule="evenodd" clip-rule="evenodd" d="M17 44C12.5817 44 9 47.5817 9 52C9 56.4183 12.5817 60 17 60C21.4183 60 25 56.4183 25 52C25 47.5817 21.4183 44 17 44ZM8 52C8 47.0294 12.0294 43 17 43C21.9706 43 26 47.0294 26 52C26 56.9706 21.9706 61 17 61C12.0294 61 8 56.9706 8 52Z" fill="#333333"/>
<path d="M16.8125 53.25C13.88 53.25 11.5 54.9299 11.5 57H22.125C22.125 54.9299 19.745 53.25 16.8125 53.25Z" fill="url(#paint0_linear_1278_2001)"/>
<path fill-rule="evenodd" clip-rule="evenodd" d="M13.0819 54.2656C14.0456 53.6344 15.3656 53.25 16.8125 53.25C18.2594 53.25 19.5794 53.6344 20.5431 54.2656C21.5069 54.897 22.125 55.7846 22.125 56.7814V57H11.5V56.7814C11.5 55.7846 12.1181 54.897 13.0819 54.2656ZM12.125 56.375H21.5C21.4183 55.6276 20.7278 55.1306 19.9375 54.6129C19.0705 54.0449 18.157 53.875 16.8125 53.875C15.468 53.875 14.5545 54.0449 13.6875 54.6129C12.8972 55.1306 12.2067 55.6276 12.125 56.375Z" fill="#333333"/>
<path d="M18.0519 54.1809C18.0519 54.1809 17.6003 55.0687 16.6509 55.0687C15.6349 55.0687 15.25 54.1809 15.25 54.1809C15.25 53.4523 15.25 52.7287 15.25 52H18.057V54.1809H18.0519Z" fill="white"/>
<path fill-rule="evenodd" clip-rule="evenodd" d="M15.25 52H18.375V54.3407V54.5C18.1073 54.8609 17.2158 55.125 16.8101 55.125C16.2529 55.125 15.8649 54.8975 15.6207 54.6727C15.4995 54.5611 15.413 54.4497 15.3564 54.3659C15.3281 54.3238 15.3069 54.2882 15.2925 54.2622C15.2853 54.2493 15.2797 54.2387 15.2757 54.2308L15.2709 54.2212L15.2694 54.2181L15.2689 54.2169L15.2685 54.2162C15.2685 54.2162 15.2685 54.2162 15.2757 54.2308L15.2685 54.2162L15.25 54.1766V52ZM15.875 54.1875C15.8585 54.1631 15.8843 54.2036 15.875 54.1875L15.936 54.379C16.1176 54.5463 16.3979 54.7109 16.8101 54.7109C17.1874 54.7109 17.469 54.5487 17.6632 54.3764C17.7602 54.2902 17.75 54.0852 17.75 54.0852V52.625H15.875V54.1875Z" fill="#333333"/>
<ellipse cx="16.8125" cy="50.125" rx="2.1875" ry="2.5" fill="white"/>
<path fill-rule="evenodd" clip-rule="evenodd" d="M16.8123 47.625C15.5125 47.625 14.6248 48.5127 14.6248 49.8125C14.6248 51.1123 15.5125 52 16.8123 52C18.112 52 18.9998 51.1123 18.9998 49.8125C18.9998 48.5127 18.112 47.625 16.8123 47.625ZM13.9998 49.8125C13.9998 48.2592 15.259 47 16.8123 47C18.3656 47 19.6248 48.2592 19.6248 49.8125C19.6248 51.3658 18.3656 52.625 16.8123 52.625C15.259 52.625 13.9998 51.3658 13.9998 49.8125Z" fill="#333333"/>
<path d="M19.6248 49.6124C19.6248 51.0559 19.0393 48.9924 17.4853 48.9924C15.9313 48.9924 13.9998 51.0559 13.9998 49.6124C13.9998 48.169 15.2583 47 16.8123 47C18.3662 47 19.6248 48.169 19.6248 49.6124Z" fill="#AAAAAA"/>
<path fill-rule="evenodd" clip-rule="evenodd" d="M19.6236 49.5352C19.5796 48.1275 18.3384 47 16.8123 47C15.2583 47 13.9998 48.169 13.9998 49.6124C13.9998 50.4405 14.6354 50.1144 15.4708 49.6859C16.0917 49.3674 16.8228 48.9924 17.4853 48.9924C18.2062 48.9924 18.7187 49.4365 19.061 49.7686C19.0696 49.7768 19.078 49.7851 19.0863 49.7932C19.1093 49.8156 19.1314 49.8374 19.1527 49.8584C19.4827 50.1835 19.6248 50.3235 19.6248 49.6124C19.6248 49.6021 19.6247 49.5918 19.6246 49.5814C19.6244 49.566 19.624 49.5506 19.6236 49.5352ZM18.9333 48.9246C18.5696 48.6656 18.0862 48.432 17.4853 48.432C16.9832 48.432 16.4877 48.5961 16.0647 48.777C15.7638 48.9057 15.4581 49.0625 15.1954 49.1973C15.0931 49.2497 14.9974 49.2988 14.911 49.3416C14.7754 49.4088 14.6607 49.4619 14.5635 49.5005C14.6267 48.4524 15.572 47.5604 16.8123 47.5604C17.8167 47.5604 18.6277 48.1454 18.9333 48.9246Z" fill="#333333"/>
<path d="M36 61C40.9706 61 45 56.9706 45 52C45 47.0294 40.9706 43 36 43C31.0294 43 27 47.0294 27 52C27 56.9706 31.0294 61 36 61Z" fill="white"/>
<path fill-rule="evenodd" clip-rule="evenodd" d="M36 44C31.5817 44 28 47.5817 28 52C28 56.4183 31.5817 60 36 60C40.4183 60 44 56.4183 44 52C44 47.5817 40.4183 44 36 44ZM27 52C27 47.0294 31.0294 43 36 43C40.9706 43 45 47.0294 45 52C45 56.9706 40.9706 61 36 61C31.0294 61 27 56.9706 27 52Z" fill="#333333"/>
<path d="M35.8125 53.25C32.88 53.25 30.5 54.9299 30.5 57H41.125C41.125 54.9299 38.745 53.25 35.8125 53.25Z" fill="#AAAAAA"/>
<path fill-rule="evenodd" clip-rule="evenodd" d="M32.0819 54.2656C33.0456 53.6344 34.3656 53.25 35.8125 53.25C37.2594 53.25 38.5794 53.6344 39.5431 54.2656C40.5069 54.897 41.125 55.7846 41.125 56.7814V57H30.5V56.7814C30.5 55.7846 31.1181 54.897 32.0819 54.2656ZM31.125 56.375H40.5C40.4183 55.6276 39.7278 55.1306 38.9375 54.6129C38.0705 54.0449 37.157 53.875 35.8125 53.875C34.468 53.875 33.5545 54.0449 32.6875 54.6129C31.8972 55.1306 31.2067 55.6276 31.125 56.375Z" fill="#333333"/>
<path d="M37.0519 54.1809C37.0519 54.1809 36.6003 55.0687 35.6509 55.0687C34.6349 55.0687 34.25 54.1809 34.25 54.1809C34.25 53.4523 34.25 52.7287 34.25 52H37.057V54.1809H37.0519Z" fill="white"/>
<path fill-rule="evenodd" clip-rule="evenodd" d="M34.25 52H37.375V54.3407V54.5C37.1073 54.8609 36.2158 55.125 35.8101 55.125C35.2529 55.125 34.8649 54.8975 34.6207 54.6727C34.4995 54.5611 34.413 54.4497 34.3564 54.3659C34.3281 54.3238 34.3069 54.2882 34.2925 54.2622C34.2853 54.2493 34.2797 54.2387 34.2757 54.2308L34.2709 54.2212L34.2694 54.2181L34.2689 54.2169L34.2685 54.2162C34.2685 54.2162 34.2685 54.2162 34.2757 54.2308L34.2685 54.2162L34.25 54.1766V52ZM34.875 54.1875C34.8585 54.1631 34.8843 54.2036 34.875 54.1875L34.936 54.379C35.1176 54.5463 35.3979 54.7109 35.8101 54.7109C36.1874 54.7109 36.469 54.5487 36.6632 54.3764C36.7602 54.2902 36.75 54.0852 36.75 54.0852V52.625H34.875V54.1875Z" fill="#333333"/>
<ellipse cx="35.8125" cy="50.125" rx="2.1875" ry="2.5" fill="white"/>
<path fill-rule="evenodd" clip-rule="evenodd" d="M35.8123 47.625C34.5125 47.625 33.6248 48.5127 33.6248 49.8125C33.6248 51.1123 34.5125 52 35.8123 52C37.112 52 37.9998 51.1123 37.9998 49.8125C37.9998 48.5127 37.112 47.625 35.8123 47.625ZM32.9998 49.8125C32.9998 48.2592 34.259 47 35.8123 47C37.3656 47 38.6248 48.2592 38.6248 49.8125C38.6248 51.3658 37.3656 52.625 35.8123 52.625C34.259 52.625 32.9998 51.3658 32.9998 49.8125Z" fill="#333333"/>
<path d="M38.6248 49.6124C38.6248 51.0559 38.0393 48.9924 36.4853 48.9924C34.9313 48.9924 32.9998 51.0559 32.9998 49.6124C32.9998 48.169 34.2583 47 35.8123 47C37.3662 47 38.6248 48.169 38.6248 49.6124Z" fill="#AAAAAA"/>
<path fill-rule="evenodd" clip-rule="evenodd" d="M38.6236 49.5352C38.5796 48.1275 37.3384 47 35.8123 47C34.2583 47 32.9998 48.169 32.9998 49.6124C32.9998 50.4405 33.6354 50.1144 34.4708 49.6859C35.0917 49.3674 35.8228 48.9924 36.4853 48.9924C37.2062 48.9924 37.7187 49.4365 38.061 49.7686C38.0696 49.7768 38.078 49.7851 38.0863 49.7932C38.1093 49.8156 38.1314 49.8374 38.1527 49.8584C38.4827 50.1835 38.6248 50.3235 38.6248 49.6124C38.6248 49.6021 38.6247 49.5918 38.6246 49.5814C38.6244 49.566 38.624 49.5506 38.6236 49.5352ZM37.9333 48.9246C37.5696 48.6656 37.0862 48.432 36.4853 48.432C35.9832 48.432 35.4877 48.5961 35.0647 48.777C34.7638 48.9057 34.4581 49.0625 34.1954 49.1973C34.0931 49.2497 33.9974 49.2988 33.911 49.3416C33.7754 49.4088 33.6607 49.4619 33.5635 49.5005C33.6267 48.4524 34.572 47.5604 35.8123 47.5604C36.8167 47.5604 37.6277 48.1454 37.9333 48.9246Z" fill="#333333"/>
<path d="M55 61C59.9706 61 64 56.9706 64 52C64 47.0294 59.9706 43 55 43C50.0294 43 46 47.0294 46 52C46 56.9706 50.0294 61 55 61Z" fill="white"/>
<path fill-rule="evenodd" clip-rule="evenodd" d="M55 44C50.5817 44 47 47.5817 47 52C47 56.4183 50.5817 60 55 60C59.4183 60 63 56.4183 63 52C63 47.5817 59.4183 44 55 44ZM46 52C46 47.0294 50.0294 43 55 43C59.9706 43 64 47.0294 64 52C64 56.9706 59.9706 61 55 61C50.0294 61 46 56.9706 46 52Z" fill="#333333"/>
<path d="M54.8125 53.25C51.88 53.25 49.5 54.9299 49.5 57H60.125C60.125 54.9299 57.745 53.25 54.8125 53.25Z" fill="#9ADAF3"/>
<path fill-rule="evenodd" clip-rule="evenodd" d="M51.0819 54.2656C52.0456 53.6344 53.3656 53.25 54.8125 53.25C56.2594 53.25 57.5794 53.6344 58.5431 54.2656C59.5069 54.897 60.125 55.7846 60.125 56.7814V57H49.5V56.7814C49.5 55.7846 50.1181 54.897 51.0819 54.2656ZM50.125 56.375H59.5C59.4183 55.6276 58.7278 55.1306 57.9375 54.6129C57.0705 54.0449 56.157 53.875 54.8125 53.875C53.468 53.875 52.5545 54.0449 51.6875 54.6129C50.8972 55.1306 50.2067 55.6276 50.125 56.375Z" fill="#333333"/>
<path d="M56.0519 54.1809C56.0519 54.1809 55.6003 55.0687 54.6509 55.0687C53.6349 55.0687 53.25 54.1809 53.25 54.1809C53.25 53.4523 53.25 52.7287 53.25 52H56.057V54.1809H56.0519Z" fill="white"/>
<path fill-rule="evenodd" clip-rule="evenodd" d="M53.25 52H56.375V54.3407V54.5C56.1073 54.8609 55.2158 55.125 54.8101 55.125C54.2529 55.125 53.8649 54.8975 53.6207 54.6727C53.4995 54.5611 53.413 54.4497 53.3564 54.3659C53.3281 54.3238 53.3069 54.2882 53.2925 54.2622C53.2853 54.2493 53.2797 54.2387 53.2757 54.2308L53.2709 54.2212L53.2694 54.2181L53.2689 54.2169L53.2685 54.2162C53.2685 54.2162 53.2685 54.2162 53.2757 54.2308L53.2685 54.2162L53.25 54.1766V52ZM53.875 54.1875C53.8585 54.1631 53.8843 54.2036 53.875 54.1875L53.936 54.379C54.1176 54.5463 54.3979 54.7109 54.8101 54.7109C55.1874 54.7109 55.469 54.5487 55.6632 54.3764C55.7602 54.2902 55.75 54.0852 55.75 54.0852V52.625H53.875V54.1875Z" fill="#333333"/>
<ellipse cx="54.8125" cy="50.125" rx="2.1875" ry="2.5" fill="white"/>
<path fill-rule="evenodd" clip-rule="evenodd" d="M54.8123 47.625C53.5125 47.625 52.6248 48.5127 52.6248 49.8125C52.6248 51.1123 53.5125 52 54.8123 52C56.112 52 56.9998 51.1123 56.9998 49.8125C56.9998 48.5127 56.112 47.625 54.8123 47.625ZM51.9998 49.8125C51.9998 48.2592 53.259 47 54.8123 47C56.3656 47 57.6248 48.2592 57.6248 49.8125C57.6248 51.3658 56.3656 52.625 54.8123 52.625C53.259 52.625 51.9998 51.3658 51.9998 49.8125Z" fill="#333333"/>
<path d="M57.6248 49.6124C57.6248 51.0559 57.0393 48.9924 55.4853 48.9924C53.9313 48.9924 51.9998 51.0559 51.9998 49.6124C51.9998 48.169 53.2583 47 54.8123 47C56.3662 47 57.6248 48.169 57.6248 49.6124Z" fill="#AAAAAA"/>
<path fill-rule="evenodd" clip-rule="evenodd" d="M57.6236 49.5352C57.5796 48.1275 56.3384 47 54.8123 47C53.2583 47 51.9998 48.169 51.9998 49.6124C51.9998 50.4405 52.6354 50.1144 53.4708 49.6859C54.0917 49.3674 54.8228 48.9924 55.4853 48.9924C56.2062 48.9924 56.7187 49.4365 57.061 49.7686C57.0696 49.7768 57.078 49.7851 57.0863 49.7932C57.1093 49.8156 57.1314 49.8374 57.1527 49.8584C57.4827 50.1835 57.6248 50.3235 57.6248 49.6124C57.6248 49.6021 57.6247 49.5918 57.6246 49.5814C57.6244 49.566 57.624 49.5506 57.6236 49.5352ZM56.9333 48.9246C56.5696 48.6656 56.0862 48.432 55.4853 48.432C54.9832 48.432 54.4877 48.5961 54.0647 48.777C53.7638 48.9057 53.4581 49.0625 53.1954 49.1973C53.0931 49.2497 52.9974 49.2988 52.911 49.3416C52.7754 49.4088 52.6607 49.4619 52.5635 49.5005C52.6267 48.4524 53.572 47.5604 54.8123 47.5604C55.8167 47.5604 56.6277 48.1454 56.9333 48.9246Z" fill="#333333"/>
<path d="M51 13H52V26H51V13Z" fill="#333333"/>
<path d="M48 11.5422V27.1519C48 27.5058 47.8133 27.8351 47.5042 28.0075C40.3514 31.9975 31.6486 31.9975 24.4958 28.0075C24.1867 27.8351 24 27.5058 24 27.1519L24 14.3637C24 12.8468 25.6109 11.9047 26.8851 12.7277C28.7223 13.9144 30.5553 15.2342 32.416 16.5333C34.64 18.1439 37.376 18.1918 39.664 16.6769C42.4752 14.8462 45.2227 12.9837 47.9859 11.5336C47.9923 11.5303 48 11.5349 48 11.5422Z" fill="url(#paint1_linear_1278_2001)"/>
<path fill-rule="evenodd" clip-rule="evenodd" d="M47.5 12.3625C45.4105 13.5119 43.3242 14.8786 41.1879 16.278C40.7734 16.5495 40.3571 16.8222 39.9385 17.0948C37.4795 18.722 34.5191 18.6716 32.1263 16.9409C31.7008 16.6438 31.2779 16.3464 30.8568 16.0504C29.4295 15.0469 28.0238 14.0585 26.6138 13.1477C25.6979 12.5561 24.5 13.212 24.5 14.3637L24.5 27.1519C24.5 27.3311 24.5942 27.4898 24.7394 27.5708C31.7408 31.4764 40.2592 31.4764 47.2606 27.5708C47.4058 27.4899 47.5 27.3311 47.5 27.1519V12.3625ZM47.7536 11.0909C48.0951 10.9116 48.5 11.1614 48.5 11.5422V27.1519C48.5 27.6806 48.2208 28.1803 47.7478 28.4441C40.4435 32.5186 31.5565 32.5186 24.2522 28.4441C23.7792 28.1803 23.5 27.6806 23.5 27.1519L23.5 14.3637C23.5 12.4816 25.5239 11.2533 27.1564 12.3077C28.5846 13.2302 30.0121 14.234 31.4424 15.2397C31.8621 15.5347 32.282 15.83 32.7022 16.1234L32.7093 16.1283L32.7093 16.1284C34.7633 17.6159 37.2725 17.6606 39.388 16.26L39.3911 16.2579L39.3911 16.2579C39.8053 15.9882 40.2189 15.7172 40.6322 15.4465C43.011 13.888 45.3765 12.3383 47.7536 11.0909Z" fill="#333333"/>
<path d="M50.7024 15.5161L47.3843 17.109L38.8614 21.2004C36.5518 22.3092 33.8355 22.2623 31.5746 21.0755L22.9867 16.578L21.2138 15.641C20.3355 15.1881 19.9288 14.3293 20.0102 13.5016C20.059 12.7676 20.4981 12.0649 21.2951 11.6745L32.3066 5.77154C34.112 4.80333 36.2915 4.74086 38.1457 5.61537L50.7837 11.5496C52.4427 12.4085 52.394 14.704 50.7024 15.5161Z" fill="url(#paint2_linear_1278_2001)"/>
<path fill-rule="evenodd" clip-rule="evenodd" d="M37.9324 6.0676C36.2225 5.26112 34.2097 5.31829 32.5429 6.21217L21.5313 12.1152C21.526 12.118 21.5205 12.1208 21.5151 12.1235C20.8736 12.4377 20.5456 12.985 20.5091 13.5348L20.5078 13.5505C20.446 14.1787 20.7507 14.8397 21.4429 15.1966L21.4474 15.1989L23.2186 16.1351L23.2203 16.1359L31.8066 20.6325C33.927 21.7457 36.4773 21.7903 38.645 20.7497L50.486 15.0653C51.8106 14.4295 51.8389 12.6664 50.5619 11.9978L37.9324 6.0676ZM38.359 5.16314C36.3606 4.22062 34.0143 4.28836 32.0703 5.33086C32.0703 5.33087 32.0704 5.33085 32.0703 5.33086L21.0666 11.2297C20.122 11.6959 19.5753 12.5481 19.5118 13.4605C19.4143 14.4844 19.9222 15.5365 20.9823 16.0842L22.753 17.0201L22.7547 17.0209L31.3422 21.5182C33.7435 22.7787 36.6262 22.8281 39.0778 21.6512L50.9188 15.9668C52.9745 14.98 53.0465 12.158 51.0136 11.1055C51.0078 11.1026 51.0021 11.0997 50.9962 11.097L38.359 5.16314Z" fill="#333333"/>
<path d="M53.3076 25.3846C53.3076 26.4467 52.4466 27.3077 51.3845 27.3077C50.3224 27.3077 49.4614 26.4467 49.4614 25.3846C49.4614 24.3225 50.3224 23.4615 51.3845 23.4615C52.4466 23.4615 53.3076 24.3225 53.3076 25.3846Z" fill="url(#paint3_linear_1278_2001)"/>
<path fill-rule="evenodd" clip-rule="evenodd" d="M51.3845 26.3077C51.8943 26.3077 52.3076 25.8944 52.3076 25.3846C52.3076 24.8748 51.8943 24.4615 51.3845 24.4615C50.8747 24.4615 50.4614 24.8748 50.4614 25.3846C50.4614 25.8944 50.8747 26.3077 51.3845 26.3077ZM51.3845 27.3077C52.4466 27.3077 53.3076 26.4467 53.3076 25.3846C53.3076 24.3225 52.4466 23.4615 51.3845 23.4615C50.3224 23.4615 49.4614 24.3225 49.4614 25.3846C49.4614 26.4467 50.3224 27.3077 51.3845 27.3077Z" fill="#333333"/>
<defs>
<linearGradient id="paint0_linear_1278_2001" x1="11.5" y1="53.1035" x2="13.7857" y2="59.8327" gradientUnits="userSpaceOnUse">
<stop stop-color="#FFC671"/>
<stop offset="0.59375" stop-color="#FF7541"/>
<stop offset="1" stop-color="#FF6F3D"/>
</linearGradient>
<linearGradient id="paint1_linear_1278_2001" x1="24" y1="10.7721" x2="42.8994" y2="34.9818" gradientUnits="userSpaceOnUse">
<stop stop-color="#FFC671"/>
<stop offset="0.59375" stop-color="#FF7541"/>
<stop offset="1" stop-color="#FF6F3D"/>
</linearGradient>
<linearGradient id="paint2_linear_1278_2001" x1="20.0001" y1="4.33594" x2="33.7912" y2="31.3098" gradientUnits="userSpaceOnUse">
<stop stop-color="#FFC671"/>
<stop offset="0.59375" stop-color="#FF7541"/>
<stop offset="1" stop-color="#FF6F3D"/>
</linearGradient>
<linearGradient id="paint3_linear_1278_2001" x1="49.4614" y1="23.3113" x2="53.3076" y2="27.3077" gradientUnits="userSpaceOnUse">
<stop stop-color="#FFC671"/>
<stop offset="0.59375" stop-color="#FF7541"/>
<stop offset="1" stop-color="#FF6F3D"/>
</linearGradient>
</defs>
</svg>