<svg width="96" height="96" viewBox="0 0 96 96" fill="none" xmlns="http://www.w3.org/2000/svg">
<path d="M40 44.5C40 44.7761 39.78 45 39.5 45H10.5C10.22 45 10 44.7761 10 44.5V8.5C10 8.22386 10.22 8 10.5 8H31.29L40 16.7071V44.5Z" fill="white" stroke="#333333" stroke-linecap="round" stroke-linejoin="round"/>
<path d="M32 8.70715L39.29 16H32V8.70715Z" fill="#FF6F3D" stroke="#333333" stroke-linecap="round" stroke-linejoin="round"/>
<path d="M15.5 13H26.5C26.78 13 27 13.2239 27 13.5V24.5C27 24.7761 26.78 25 26.5 25H15.5C15.22 25 15 24.7761 15 24.5V13.5C15 13.2239 15.22 13 15.5 13Z" fill="white" stroke="#333333" stroke-linecap="round" stroke-linejoin="round"/>
<path d="M15.99 24.2166L19.18 19.5795L20.6101 21.3183C20.7201 21.4426 20.8701 21.5098 21.0301 21.4988C21.1901 21.4879 21.34 21.4002 21.43 21.2632L23.8001 17.428L27 22.2752V24.5C27 24.7761 26.78 25 26.5 25H16.3999C15.9999 25 15.76 24.5484 15.99 24.2166Z" fill="#EFEFEF" stroke="#333333" stroke-linecap="round" stroke-linejoin="round"/>
<path d="M19 17.5C19.83 17.5 20.5 16.8284 20.5 16C20.5 15.1716 19.83 14.5 19 14.5C18.17 14.5 17.5 15.1716 17.5 16C17.5 16.8284 18.17 17.5 19 17.5Z" fill="#FF6F3D"/>
<path d="M35 29.5H15C14.7239 29.5 14.5 29.7239 14.5 30C14.5 30.2761 14.7239 30.5 15 30.5H35C35.2761 30.5 35.5 30.2761 35.5 30C35.5 29.7239 35.2761 29.5 35 29.5Z" fill="#333333"/>
<path d="M35 33.5H15C14.7239 33.5 14.5 33.7239 14.5 34C14.5 34.2761 14.7239 34.5 15 34.5H35C35.2761 34.5 35.5 34.2761 35.5 34C35.5 33.7239 35.2761 33.5 35 33.5Z" fill="#333333"/>
<path d="M27 37.5H15C14.7239 37.5 14.5 37.7239 14.5 38C14.5 38.2761 14.7239 38.5 15 38.5H27C27.2761 38.5 27.5 38.2761 27.5 38C27.5 37.7239 27.2761 37.5 27 37.5Z" fill="#333333"/>
<path fill-rule="evenodd" clip-rule="evenodd" d="M85.5 69.3966V75.7328L82.78 76.3793L81.8799 78.5776L83.3 80.9052L78.78 85.431L76.45 84.0086L74.25 84.9138L73.6001 87.5H67.27L66.6201 84.7845L64.4199 83.8793L62.0901 85.3017L57.5701 80.7759L58.99 78.4483L58.0901 76.25L55.5 75.6034V69.2672L58.22 68.6207L59.1201 66.4224L57.7 64.0948L62.22 59.569L64.55 60.9914L66.75 60.0862L67.3999 57.5H73.73L74.3799 60.2155L76.5801 61.1207L78.9099 59.6983L83.4299 64.2241L82.01 66.5517L82.9099 68.75L85.5 69.3966ZM70.5 78.5C73.81 78.5 76.5 75.8137 76.5 72.5C76.5 69.1863 73.81 66.5 70.5 66.5C67.19 66.5 64.5 69.1863 64.5 72.5C64.5 75.8137 67.19 78.5 70.5 78.5Z" fill="white"/>
<mask id="mask0_145_427" style="mask-type:luminance" maskUnits="userSpaceOnUse" x="55" y="57" width="31" height="31">
<path fill-rule="evenodd" clip-rule="evenodd" d="M85.5 69.3966V75.7328L82.78 76.3793L81.8799 78.5776L83.3 80.9052L78.78 85.431L76.45 84.0086L74.25 84.9138L73.6001 87.5H67.27L66.6201 84.7845L64.4199 83.8793L62.0901 85.3017L57.5701 80.7759L58.99 78.4483L58.0901 76.25L55.5 75.6034V69.2672L58.22 68.6207L59.1201 66.4224L57.7 64.0948L62.22 59.569L64.55 60.9914L66.75 60.0862L67.3999 57.5H73.73L74.3799 60.2155L76.5801 61.1207L78.9099 59.6983L83.4299 64.2241L82.01 66.5517L82.9099 68.75L85.5 69.3966ZM70.5 78.5C73.81 78.5 76.5 75.8137 76.5 72.5C76.5 69.1863 73.81 66.5 70.5 66.5C67.19 66.5 64.5 69.1863 64.5 72.5C64.5 75.8137 67.19 78.5 70.5 78.5Z" fill="white"/>
</mask>
<g mask="url(#mask0_145_427)">
<path d="M85.5 75.7328L85.73 76.7056C86.18 76.5983 86.5 76.1958 86.5 75.7328H85.5ZM85.5 69.3966H86.5C86.5 68.9377 86.19 68.5377 85.74 68.4264L85.5 69.3966ZM82.78 76.3793L82.55 75.4065C82.24 75.481 81.9801 75.7013 81.8601 75.9986L82.78 76.3793ZM81.8799 78.5776L80.95 78.1968C80.83 78.4917 80.86 78.8269 81.03 79.099L81.8799 78.5776ZM83.3 80.9052L84.01 81.6123C84.34 81.2857 84.3999 80.7779 84.1599 80.3837L83.3 80.9052ZM78.78 85.431L78.25 86.2843C78.65 86.5252 79.16 86.4648 79.48 86.1381L78.78 85.431ZM76.45 84.0086L76.97 83.1553C76.7 82.989 76.3601 82.9625 76.0701 83.0839L76.45 84.0086ZM74.25 84.9138L73.8701 83.9891C73.5801 84.11 73.36 84.3632 73.28 84.6713L74.25 84.9138ZM73.6001 87.5V88.5C74.0601 88.5 74.4601 88.1877 74.5701 87.7425L73.6001 87.5ZM67.27 87.5L66.29 87.7316C66.4 88.1821 66.8 88.5 67.27 88.5V87.5ZM66.6201 84.7845L67.5901 84.5529C67.5201 84.2401 67.3 83.9822 67 83.8598L66.6201 84.7845ZM64.4199 83.8793L64.8 82.9546C64.51 82.8332 64.1699 82.8597 63.8999 83.026L64.4199 83.8793ZM62.0901 85.3017L61.3899 86.0088C61.7099 86.3354 62.2201 86.3959 62.6201 86.155L62.0901 85.3017ZM57.5701 80.7759L56.72 80.2544C56.47 80.6485 56.5401 81.1564 56.8601 81.483L57.5701 80.7759ZM58.99 78.4483L59.8401 78.9697C60.0101 78.6976 60.0399 78.3624 59.9199 78.0675L58.99 78.4483ZM58.0901 76.25L59.01 75.8692C58.89 75.5756 58.6401 75.3569 58.3301 75.2799L58.0901 76.25ZM55.5 75.6034H54.5C54.5 76.0623 54.81 76.4623 55.26 76.5736L55.5 75.6034ZM55.5 69.2672L55.27 68.2944C54.82 68.4017 54.5 68.8042 54.5 69.2672H55.5ZM58.22 68.6207L58.45 69.5935C58.76 69.519 59.0199 69.2987 59.1399 69.0014L58.22 68.6207ZM59.1201 66.4224L60.05 66.8032C60.17 66.5083 60.14 66.1731 59.97 65.901L59.1201 66.4224ZM57.7 64.0948L56.99 63.3877C56.66 63.7143 56.6001 64.2221 56.8401 64.6163L57.7 64.0948ZM62.22 59.569L62.75 58.7157C62.35 58.4748 61.84 58.5352 61.52 58.8619L62.22 59.569ZM64.55 60.9914L64.03 61.8447C64.3 62.011 64.6399 62.0375 64.9299 61.9161L64.55 60.9914ZM66.75 60.0862L67.1299 61.0109C67.4199 60.89 67.64 60.6368 67.72 60.3287L66.75 60.0862ZM67.3999 57.5V56.5C66.9399 56.5 66.5399 56.8123 66.4299 57.2575L67.3999 57.5ZM73.73 57.5L74.71 57.2684C74.6 56.8179 74.2 56.5 73.73 56.5V57.5ZM74.3799 60.2155L73.4099 60.4471C73.4799 60.7599 73.7 61.0178 74 61.1402L74.3799 60.2155ZM76.5801 61.1207L76.2 62.0454C76.49 62.1668 76.8301 62.1403 77.1001 61.974L76.5801 61.1207ZM78.9099 59.6983L79.6101 58.9912C79.2901 58.6646 78.7799 58.6041 78.3799 58.845L78.9099 59.6983ZM83.4299 64.2241L84.28 64.7456C84.53 64.3515 84.4599 63.8436 84.1399 63.517L83.4299 64.2241ZM82.01 66.5517L81.1599 66.0303C80.9899 66.3024 80.9601 66.6376 81.0801 66.9325L82.01 66.5517ZM82.9099 68.75L81.99 69.1308C82.11 69.4244 82.3599 69.6431 82.6699 69.7201L82.9099 68.75ZM86.5 75.7328V69.3966H84.5V75.7328H86.5ZM83.02 77.3521L85.73 76.7056L85.27 74.76L82.55 75.4065L83.02 77.3521ZM82.8 78.9583L83.71 76.7601L81.8601 75.9986L80.95 78.1968L82.8 78.9583ZM84.1599 80.3837L82.73 78.0561L81.03 79.099L82.45 81.4266L84.1599 80.3837ZM79.48 86.1381L84.01 81.6123L82.5901 80.1981L78.0701 84.7239L79.48 86.1381ZM75.9299 84.8619L78.25 86.2843L79.3 84.5778L76.97 83.1553L75.9299 84.8619ZM74.6299 85.8385L76.8301 84.9333L76.0701 83.0839L73.8701 83.9891L74.6299 85.8385ZM74.5701 87.7425L75.22 85.1563L73.28 84.6713L72.6299 87.2575L74.5701 87.7425ZM67.27 88.5H73.6001V86.5H67.27V88.5ZM65.6499 85.0161L66.29 87.7316L68.24 87.2684L67.5901 84.5529L65.6499 85.0161ZM64.04 84.804L66.24 85.7092L67 83.8598L64.8 82.9546L64.04 84.804ZM62.6201 86.155L64.9399 84.7326L63.8999 83.026L61.5701 84.4484L62.6201 86.155ZM56.8601 81.483L61.3899 86.0088L62.8 84.5946L58.28 80.0688L56.8601 81.483ZM58.1399 77.9268L56.72 80.2544L58.4199 81.2973L59.8401 78.9697L58.1399 77.9268ZM57.1599 76.6308L58.0701 78.829L59.9199 78.0675L59.01 75.8692L57.1599 76.6308ZM55.26 76.5736L57.8401 77.2201L58.3301 75.2799L55.74 74.6333L55.26 76.5736ZM54.5 69.2672V75.6034H56.5V69.2672H54.5ZM57.98 67.6479L55.27 68.2944L55.73 70.2401L58.45 69.5935L57.98 67.6479ZM58.2 66.0417L57.29 68.2399L59.1399 69.0014L60.05 66.8032L58.2 66.0417ZM56.8401 64.6163L58.27 66.9439L59.97 65.901L58.55 63.5734L56.8401 64.6163ZM61.52 58.8619L56.99 63.3877L58.4099 64.8019L62.9299 60.2761L61.52 58.8619ZM65.0701 60.1381L62.75 58.7157L61.7 60.4222L64.03 61.8447L65.0701 60.1381ZM66.3701 59.1615L64.1699 60.0667L64.9299 61.9161L67.1299 61.0109L66.3701 59.1615ZM66.4299 57.2575L65.78 59.8437L67.72 60.3287L68.3701 57.7425L66.4299 57.2575ZM73.73 56.5H67.3999V58.5H73.73V56.5ZM75.3501 59.9839L74.71 57.2684L72.76 57.7316L73.4099 60.4471L75.3501 59.9839ZM76.96 60.196L74.76 59.2908L74 61.1402L76.2 62.0454L76.96 60.196ZM78.3799 58.845L76.0601 60.2674L77.1001 61.974L79.4299 60.5516L78.3799 58.845ZM84.1399 63.517L79.6101 58.9912L78.2 60.4054L82.72 64.9312L84.1399 63.517ZM82.8601 67.0732L84.28 64.7456L82.5801 63.7027L81.1599 66.0303L82.8601 67.0732ZM83.8401 68.3693L82.9299 66.171L81.0801 66.9325L81.99 69.1308L83.8401 68.3693ZM85.74 68.4264L83.1599 67.7799L82.6699 69.7201L85.26 70.3667L85.74 68.4264ZM75.5 72.5C75.5 75.2614 73.26 77.5 70.5 77.5V79.5C74.37 79.5 77.5 76.366 77.5 72.5H75.5ZM70.5 67.5C73.26 67.5 75.5 69.7386 75.5 72.5H77.5C77.5 68.634 74.37 65.5 70.5 65.5V67.5ZM65.5 72.5C65.5 69.7386 67.74 67.5 70.5 67.5V65.5C66.63 65.5 63.5 68.634 63.5 72.5H65.5ZM70.5 77.5C67.74 77.5 65.5 75.2614 65.5 72.5H63.5C63.5 76.366 66.63 79.5 70.5 79.5V77.5Z" fill="#333333"/>
</g>
<path d="M80.5 16H54.5C53.1193 16 52 17.1193 52 18.5V37.5C52 38.8807 53.1193 40 54.5 40H80.5C81.8807 40 83 38.8807 83 37.5V18.5C83 17.1193 81.8807 16 80.5 16Z" fill="url(#paint0_linear_145_427)" stroke="#333333"/>
<path d="M72.5 28L63.5 32.5V23.5L72.5 28Z" fill="white"/>
<path fill-rule="evenodd" clip-rule="evenodd" d="M30.5 57.5C30.5 54.7386 28.26 52.5 25.5 52.5C22.74 52.5 20.5 54.7386 20.5 57.5V59.5H13.5C11.84 59.5 10.5 60.8431 10.5 62.5V68.5H12.95C15.46 68.5 17.5 70.5147 17.5 73C17.5 75.4853 15.46 77.5 12.95 77.5H10.5V84.5C10.5 86.1569 11.84 87.5 13.5 87.5H20.5V85.0455C20.5 82.5351 22.51 80.5 25 80.5C27.49 80.5 29.5 82.5351 29.5 85.0455V87.5H35.5C37.16 87.5 38.5 86.1569 38.5 84.5V77.5H40.5C43.26 77.5 45.5 75.2614 45.5 72.5C45.5 69.7386 43.26 67.5 40.5 67.5H38.5V62.5C38.5 60.8431 37.16 59.5 35.5 59.5H30.5V57.5Z" fill="#9ADAF3"/>
<mask id="mask1_145_427" style="mask-type:luminance" maskUnits="userSpaceOnUse" x="10" y="52" width="36" height="36">
<path fill-rule="evenodd" clip-rule="evenodd" d="M30.5 57.5C30.5 54.7386 28.26 52.5 25.5 52.5C22.74 52.5 20.5 54.7386 20.5 57.5V59.5H13.5C11.84 59.5 10.5 60.8431 10.5 62.5V68.5H12.95C15.46 68.5 17.5 70.5147 17.5 73C17.5 75.4853 15.46 77.5 12.95 77.5H10.5V84.5C10.5 86.1569 11.84 87.5 13.5 87.5H20.5V85.0455C20.5 82.5351 22.51 80.5 25 80.5C27.49 80.5 29.5 82.5351 29.5 85.0455V87.5H35.5C37.16 87.5 38.5 86.1569 38.5 84.5V77.5H40.5C43.26 77.5 45.5 75.2614 45.5 72.5C45.5 69.7386 43.26 67.5 40.5 67.5H38.5V62.5C38.5 60.8431 37.16 59.5 35.5 59.5H30.5V57.5Z" fill="white"/>
</mask>
<g mask="url(#mask1_145_427)">
<path d="M20.5 59.5V60.5H21.5V59.5H20.5ZM10.5 68.5H9.5V69.5H10.5V68.5ZM10.5 77.5V76.5H9.5V77.5H10.5ZM20.5 87.5V88.5H21.5V87.5H20.5ZM29.5 87.5H28.5V88.5H29.5V87.5ZM38.5 77.5V76.5H37.5V77.5H38.5ZM38.5 67.5H37.5V68.5H38.5V67.5ZM30.5 59.5H29.5V60.5H30.5V59.5ZM25.5 53.5C27.71 53.5 29.5 55.2909 29.5 57.5H31.5C31.5 54.1863 28.81 51.5 25.5 51.5V53.5ZM21.5 57.5C21.5 55.2909 23.29 53.5 25.5 53.5V51.5C22.19 51.5 19.5 54.1863 19.5 57.5H21.5ZM21.5 59.5V57.5H19.5V59.5H21.5ZM13.5 60.5H20.5V58.5H13.5V60.5ZM11.5 62.5C11.5 61.3954 12.4 60.5 13.5 60.5V58.5C11.29 58.5 9.5 60.2909 9.5 62.5H11.5ZM11.5 68.5V62.5H9.5V68.5H11.5ZM12.95 67.5H10.5V69.5H12.95V67.5ZM18.5 73C18.5 69.953 16.01 67.5 12.95 67.5V69.5C14.92 69.5 16.5 71.0765 16.5 73H18.5ZM12.95 78.5C16.01 78.5 18.5 76.047 18.5 73H16.5C16.5 74.9235 14.92 76.5 12.95 76.5V78.5ZM10.5 78.5H12.95V76.5H10.5V78.5ZM11.5 84.5V77.5H9.5V84.5H11.5ZM13.5 86.5C12.4 86.5 11.5 85.6046 11.5 84.5H9.5C9.5 86.7091 11.29 88.5 13.5 88.5V86.5ZM20.5 86.5H13.5V88.5H20.5V86.5ZM19.5 85.0455V87.5H21.5V85.0455H19.5ZM25 79.5C21.95 79.5 19.5 81.9923 19.5 85.0455H21.5C21.5 83.0779 23.08 81.5 25 81.5V79.5ZM30.5 85.0455C30.5 81.9923 28.05 79.5 25 79.5V81.5C26.92 81.5 28.5 83.0779 28.5 85.0455H30.5ZM30.5 87.5V85.0455H28.5V87.5H30.5ZM35.5 86.5H29.5V88.5H35.5V86.5ZM37.5 84.5C37.5 85.6046 36.6 86.5 35.5 86.5V88.5C37.71 88.5 39.5 86.7091 39.5 84.5H37.5ZM37.5 77.5V84.5H39.5V77.5H37.5ZM40.5 76.5H38.5V78.5H40.5V76.5ZM44.5 72.5C44.5 74.7091 42.71 76.5 40.5 76.5V78.5C43.81 78.5 46.5 75.8137 46.5 72.5H44.5ZM40.5 68.5C42.71 68.5 44.5 70.2909 44.5 72.5H46.5C46.5 69.1863 43.81 66.5 40.5 66.5V68.5ZM38.5 68.5H40.5V66.5H38.5V68.5ZM37.5 62.5V67.5H39.5V62.5H37.5ZM35.5 60.5C36.6 60.5 37.5 61.3954 37.5 62.5H39.5C39.5 60.2909 37.71 58.5 35.5 58.5V60.5ZM30.5 60.5H35.5V58.5H30.5V60.5ZM29.5 57.5V59.5H31.5V57.5H29.5Z" fill="#333333"/>
</g>
<defs>
<linearGradient id="paint0_linear_145_427" x1="51.5" y1="14.5234" x2="75.53" y2="46.4892" gradientUnits="userSpaceOnUse">
<stop stop-color="#FFC671"/>
<stop offset="0.59375" stop-color="#FF7541"/>
<stop offset="1" stop-color="#FF6F3D"/>
</linearGradient>
</defs>
</svg>
