<svg width="96" height="96" viewBox="0 0 96 96" fill="none" xmlns="http://www.w3.org/2000/svg">
<path d="M63.85 3.14274L63.7 3H63.5H10.5C9.12 3 8 4.11929 8 5.5V91.5C8 92.8807 9.12 94 10.5 94H72.5C73.88 94 75 92.8807 75 91.5V14.2708V14.0606L74.85 13.9136L63.85 3.14274Z" fill="white" stroke="#333333"/>
<path d="M63.85 3.14646C63.71 3.00346 63.5001 2.96068 63.3101 3.03807C63.1201 3.11546 63 3.29778 63 3.50001V13.5C63 14.3284 63.67 15 64.5 15H74.5C74.7 15 74.88 14.8782 74.96 14.6913C75.04 14.5045 75 14.2894 74.85 14.1464L63.85 3.14646Z" fill="url(#paint0_linear_145_223)" stroke="#333333" stroke-linecap="round" stroke-linejoin="round"/>
<path d="M38.5 8.5H18.5C17.3954 8.5 16.5 9.39543 16.5 10.5V22.5C16.5 23.6046 17.3954 24.5 18.5 24.5H38.5C39.6046 24.5 40.5 23.6046 40.5 22.5V10.5C40.5 9.39543 39.6046 8.5 38.5 8.5Z" fill="#9ADAF3"/>
<path d="M40 28.5H17C16.7239 28.5 16.5 28.7239 16.5 29C16.5 29.2761 16.7239 29.5 17 29.5H40C40.2761 29.5 40.5 29.2761 40.5 29C40.5 28.7239 40.2761 28.5 40 28.5Z" fill="#333333"/>
<path d="M40 58.5H17C16.7239 58.5 16.5 58.7239 16.5 59C16.5 59.2761 16.7239 59.5 17 59.5H40C40.2761 59.5 40.5 59.2761 40.5 59C40.5 58.7239 40.2761 58.5 40 58.5Z" fill="#333333"/>
<path d="M66 33.5H17C16.7239 33.5 16.5 33.7239 16.5 34C16.5 34.2761 16.7239 34.5 17 34.5H66C66.2761 34.5 66.5 34.2761 66.5 34C66.5 33.7239 66.2761 33.5 66 33.5Z" fill="#333333"/>
<path d="M66 38.5H17C16.7239 38.5 16.5 38.7239 16.5 39C16.5 39.2761 16.7239 39.5 17 39.5H66C66.2761 39.5 66.5 39.2761 66.5 39C66.5 38.7239 66.2761 38.5 66 38.5Z" fill="#333333"/>
<path d="M65.5 44H17.5C17.2239 44 17 44.2239 17 44.5V49.5C17 49.7761 17.2239 50 17.5 50H65.5C65.7761 50 66 49.7761 66 49.5V44.5C66 44.2239 65.7761 44 65.5 44Z" stroke="#333333"/>
<path d="M65.5 64H17.5C17.2239 64 17 64.2239 17 64.5V69.5C17 69.7761 17.2239 70 17.5 70H65.5C65.7761 70 66 69.7761 66 69.5V64.5C66 64.2239 65.7761 64 65.5 64Z" stroke="#333333"/>
<path d="M39.5 75H17.5C17.2239 75 17 75.2239 17 75.5V80.5C17 80.7761 17.2239 81 17.5 81H39.5C39.7761 81 40 80.7761 40 80.5V75.5C40 75.2239 39.7761 75 39.5 75Z" stroke="#333333"/>
<path d="M79.9802 49.9749C80.9502 48.9986 82.5402 48.9986 83.5102 49.9749L87.7502 54.2175C88.7302 55.1938 88.7302 56.7767 87.7502 57.753L58.8502 86.6577L52.0802 88.7861C50.1502 89.3919 48.3401 87.5792 48.9401 85.6515L51.0701 78.8796L79.9802 49.9749Z" fill="white" stroke="#333333"/>
<path d="M75.3799 54.571L83.1599 62.3491L59.1199 86.3908L51.3398 78.6126L75.3799 54.571Z" fill="url(#paint1_linear_145_223)" stroke="#333333"/>
<path d="M80.3272 60.2279L79.6201 59.5208L56.2856 82.8553L56.9927 83.5624L80.3272 60.2279Z" fill="white"/>
<path d="M85.281 59.5209L78.21 52.4498L77.5029 53.1569L84.5739 60.228L85.281 59.5209Z" fill="#333333"/>
<path d="M49.92 82.1483L55.58 87.8051L51 89L48.5 87L49.92 82.1483Z" fill="#333333"/>
<defs>
<linearGradient id="paint0_linear_145_223" x1="63.5" y1="3.07032" x2="74.5" y2="14.5" gradientUnits="userSpaceOnUse">
<stop stop-color="#FFC671"/>
<stop offset="0.59375" stop-color="#FF7541"/>
<stop offset="1" stop-color="#FF6F3D"/>
</linearGradient>
<linearGradient id="paint1_linear_145_223" x1="79.6199" y1="58.1065" x2="54.8699" y2="82.8553" gradientUnits="userSpaceOnUse">
<stop stop-color="#FF8E3D"/>
<stop offset="1" stop-color="#FF6F3D"/>
</linearGradient>
</defs>
</svg>
