<svg width="96" height="96" viewBox="0 0 96 96" fill="none" xmlns="http://www.w3.org/2000/svg">
<g clip-path="url(#clip0_145_291)">
<mask id="mask0_145_291" style="mask-type:luminance" maskUnits="userSpaceOnUse" x="0" y="0" width="96" height="96">
<path d="M96 0H0V96H96V0Z" fill="white"/>
</mask>
<g mask="url(#mask0_145_291)">
<path fill-rule="evenodd" clip-rule="evenodd" d="M20 53V32H14.89C11.84 32 10 34.1177 10 37.3693V53H20Z" fill="#BDECFF"/>
<path d="M20 7.00012H64.5L74 17.5001V52.0001H20V7.00012Z" fill="white"/>
<path d="M63.5 6.5L74 17.5H63.5V6.5Z" fill="url(#paint0_linear_145_291)"/>
<path fill-rule="evenodd" clip-rule="evenodd" d="M20 6.00012H63.91L74 17.3068V46.7858H73.02V17.6934L63.47 7.00012H20.98V53.0001H38.88V54.0001H20V6.00012Z" fill="#333333"/>
<path fill-rule="evenodd" clip-rule="evenodd" d="M63.3199 6.03366C63.5099 5.95917 63.73 6.01084 63.87 6.16368L73.8701 17.1637C74.0001 17.3101 74.04 17.5213 73.96 17.7023C73.88 17.8833 73.7 18 73.5 18H63.5C63.22 18 63 17.7761 63 17.5V6.50002C63 6.29345 63.1299 6.10815 63.3199 6.03366ZM64 7.79332V17H72.3701L64 7.79332Z" fill="#333333"/>
<path fill-rule="evenodd" clip-rule="evenodd" d="M11.71 33.3949C12.78 32.4517 14.25 32 15.86 32H21V54H10V37.5455C10 35.752 10.63 34.3462 11.71 33.3949ZM12.37 34.146C11.53 34.8826 11 35.9996 11 37.5455V53H20V33H15.86C14.43 33 13.22 33.4013 12.37 34.146Z" fill="#333333"/>
<path fill-rule="evenodd" clip-rule="evenodd" d="M74 32V46H84V36.5604C84 33.2337 82.0101 32 79.1101 32H74Z" fill="#BDECFF"/>
<path fill-rule="evenodd" clip-rule="evenodd" d="M73 32H78.6101C80.1201 32 81.48 32.3193 82.47 33.1504C83.47 33.9951 84 35.2943 84 37.0604V47H73V32ZM74 33V46H83V37.0604C83 35.4997 82.5401 34.5188 81.8201 33.915C81.0901 33.2975 80.0001 33 78.6101 33H74Z" fill="#333333"/>
<path fill-rule="evenodd" clip-rule="evenodd" d="M45.5 46.467L40.35 52.1906H10.5799C8.12995 52.1906 5.75001 53.9138 6.02001 55.7026L11.21 85.6979C11.49 87.4866 13.26 89.0001 15.72 89.0001H81.5601C84.0201 89.0001 85.9301 87.4866 86.0701 85.6979L89.97 47.6966C90.19 46.573 89.0801 45.0001 87.0701 45.0001H49C47.66 45.0001 46.46 45.5039 45.5 46.467Z" fill="url(#paint1_linear_145_291)"/>
<path fill-rule="evenodd" clip-rule="evenodd" d="M40.9301 53.0178H10.71C9.70002 53.0178 8.58007 53.7194 7.89007 54.2556C7.18007 54.8053 6.95007 55.3777 7.01007 55.7902L12.2 86.4654V86.475C12.39 87.7359 13.67 89 15.72 89H81.5601C83.6801 89 84.9901 87.6944 85.0701 86.5482V86.5355L88.98 47.6122L88.99 47.5672C89.07 47.1436 88.5701 46 87.0701 46H49.0001C47.9501 46 47 46.3953 46.23 47.1799L40.9301 53.0178ZM45.5001 46.5002L40.48 52.0178H10.71C8.25002 52.0178 5.75008 54.1163 6.02008 55.9457L11.21 86.6227C11.49 88.4521 13.26 90 15.72 90H81.5601C84.0201 90 85.9301 88.4521 86.0701 86.6227L89.97 47.7577C90.19 46.6087 89.0801 45 87.0701 45H49.0001C47.6601 45 46.4601 45.5152 45.5001 46.5002Z" fill="#333333"/>
<path d="M46 12.9523H27V31.0475H46V12.9523Z" fill="white"/>
<path fill-rule="evenodd" clip-rule="evenodd" d="M27 31.0477L33.5 24.8572L37 28.1905L42.29 21.5239L46 27.0376V31.0477" fill="#E0E0E0"/>
<path fill-rule="evenodd" clip-rule="evenodd" d="M26 12.9524C26 12.4264 26.45 12 27 12H46C46.55 12 47 12.4264 47 12.9524V31.0476C47 31.5736 46.55 32 46 32H27C26.45 32 26 31.5736 26 31.0476V12.9524ZM46 13.0312V31.0476H27V12.9896L46 13.0312Z" fill="#333333"/>
<path fill-rule="evenodd" clip-rule="evenodd" d="M27.0101 30.995H46.0001V27.0376L42.33 21.5239L37.2 28.7801L33.3501 25.2283L27.0101 30.995ZM37.0301 27.3044L34.0401 24.5442C33.6501 24.1872 33.0401 24.1863 32.6501 24.5422L26.3101 30.3616C25.9101 30.7265 25.9001 31.3294 26.2801 31.7082C26.6601 32.0871 27.3 32.0985 27.69 31.7337L27.9201 31.5238H45.1301C45.3101 31.8085 45.6301 32 46.0001 32C46.5501 32 47.0001 31.5736 47.0001 31.0477V27.0376C47.0001 26.8568 46.9501 26.6798 46.8401 26.5272L43.1701 21.0135C42.9901 20.7421 42.6801 20.5759 42.3401 20.5716C42.0001 20.5672 41.6801 20.7253 41.5001 20.9919L37.0301 27.3044Z" fill="#333333"/>
<path fill-rule="evenodd" clip-rule="evenodd" d="M26 37.5067C26 37.2449 26.22 37.0326 26.5 37.0326H68.5C68.78 37.0326 69 37.2449 69 37.5067C69 37.7686 68.78 37.9809 68.5 37.9809H26.5C26.22 37.9809 26 37.7686 26 37.5067Z" fill="#333333"/>
<path fill-rule="evenodd" clip-rule="evenodd" d="M51.5 16.5C51.5 16.2239 51.72 16 52 16H58C58.28 16 58.5 16.2239 58.5 16.5C58.5 16.7761 58.28 17 58 17H52C51.72 17 51.5 16.7761 51.5 16.5Z" fill="#333333"/>
<path fill-rule="evenodd" clip-rule="evenodd" d="M51.5 21.5C51.5 21.2239 51.72 21 52 21H68C68.28 21 68.5 21.2239 68.5 21.5C68.5 21.7761 68.28 22 68 22H60H52C51.72 22 51.5 21.7761 51.5 21.5Z" fill="#333333"/>
<path fill-rule="evenodd" clip-rule="evenodd" d="M51.5 26.5C51.5 26.2239 51.72 26 52 26H68C68.28 26 68.5 26.2239 68.5 26.5C68.5 26.7761 68.28 27 68 27H52C51.72 27 51.5 26.7761 51.5 26.5Z" fill="#333333"/>
<path fill-rule="evenodd" clip-rule="evenodd" d="M26.2197 42.5037C26.2197 42.2275 26.4397 42.0037 26.7197 42.0037H38.7197C38.9897 42.0037 39.2197 42.2275 39.2197 42.5037C39.2197 42.7798 38.9897 43.0037 38.7197 43.0037H26.7197C26.4397 43.0037 26.2197 42.7798 26.2197 42.5037Z" fill="#333333"/>
<path d="M34 17.557C34 18.6616 33.1 19.557 32 19.557C30.9 19.557 30 18.6616 30 17.557C30 16.4524 30.9 15.557 32 15.557C33.1 15.557 34 16.4524 34 17.557Z" fill="url(#paint2_linear_145_291)"/>
<path d="M48.2201 59.9434C44.0701 59.9434 40.5001 62.4575 39.0001 66.0123C37.7901 64.3101 35.7902 63.1868 33.5302 63.1868C29.8802 63.1868 26.8701 66.1215 26.8701 69.7177C26.8701 73.3138 29.8802 76.2499 33.5302 76.2499C35.7902 76.2499 37.7901 75.1259 39.0001 73.4234C40.5001 76.9784 44.0701 79.4934 48.2201 79.4934C52.3401 79.4934 55.9002 77.007 57.4102 73.4831C58.6202 75.1518 60.6101 76.2499 62.8401 76.2499C66.4801 76.2499 69.5001 73.3139 69.5001 69.7177C69.5001 66.1214 66.4801 63.1868 62.8401 63.1868C60.6101 63.1868 58.6202 64.2842 57.4102 65.9525C55.9002 62.4289 52.3401 59.9434 48.2201 59.9434ZM48.2201 64.4837C51.2101 64.4837 53.5801 66.8158 53.5801 69.7177C53.5801 72.6199 51.2101 74.953 48.2201 74.953C45.2301 74.953 42.8601 72.62 42.8601 69.7177C42.8601 66.8156 45.2301 64.4837 48.2201 64.4837ZM33.5302 67.7271C34.6902 67.7271 35.5801 68.6074 35.5801 69.7177C35.5801 70.8284 34.6902 71.7096 33.5302 71.7096C32.3702 71.7096 31.4901 70.8287 31.4901 69.7177C31.4901 68.607 32.3702 67.7271 33.5302 67.7271ZM62.8401 67.7271C64.0001 67.7271 64.8801 68.6074 64.8801 69.7177C64.8801 70.8284 64.0001 71.7096 62.8401 71.7096C61.6801 71.7096 60.7902 70.8287 60.7902 69.7177C60.7902 68.607 61.6801 67.7271 62.8401 67.7271Z" fill="white" stroke="#333333"/>
</g>
</g>
<defs>
<linearGradient id="paint0_linear_145_291" x1="63.5" y1="6.07031" x2="74.51" y2="16.9881" gradientUnits="userSpaceOnUse">
<stop stop-color="#FFC671"/>
<stop offset="0.59375" stop-color="#FF7541"/>
<stop offset="1" stop-color="#FF6F3D"/>
</linearGradient>
<linearGradient id="paint1_linear_145_291" x1="6.12001" y1="53.5389" x2="46.06" y2="116.775" gradientUnits="userSpaceOnUse">
<stop stop-color="#FFC671"/>
<stop offset="0.652615" stop-color="#FF8657"/>
</linearGradient>
<linearGradient id="paint2_linear_145_291" x1="32" y1="15.557" x2="32" y2="19.557" gradientUnits="userSpaceOnUse">
<stop stop-color="#FF8E3D"/>
<stop offset="1" stop-color="#FF6F3D"/>
</linearGradient>
<clipPath id="clip0_145_291">
<rect width="96" height="96" fill="white"/>
</clipPath>
</defs>
</svg>
