<svg width="96" height="96" viewBox="0 0 96 96" fill="none" xmlns="http://www.w3.org/2000/svg">
<path d="M19 17.7651C19 15.1334 21.201 13 23.917 13H72.083C74.799 13 77 15.1334 77 17.7651V87.1829C77 89.8146 74.96 92 72.244 92H23.917C21.201 92 19 89.8666 19 87.2349V17.7651Z" fill="#EFEFEF"/>
<path fill-rule="evenodd" clip-rule="evenodd" d="M27 13H23.917C21.201 13 19 15.1334 19 17.7651V87.2349C19 89.8666 21.201 92 23.917 92H72.244C74.96 92 77 89.8146 77 87.1829V17.7651C77 15.1334 74.799 13 72.083 13H68.989V13.9634H72.083C74.241 13.9634 76 15.6601 76 17.7651V87.1829C76 89.3445 74.345 91.0366 72.244 91.0366H23.917C21.759 91.0366 20 89.3399 20 87.2349V17.7651C20 15.6601 21.759 13.9634 23.917 13.9634H27V13Z" fill="#333333"/>
<path fill-rule="evenodd" clip-rule="evenodd" d="M52.629 9C52.629 6.79086 50.787 5 48.514 5C46.242 5 44.4 6.79086 44.4 9H32.057C30.921 9 30 9.89543 30 11V15C30 16.1046 30.921 17 32.057 17H63.943C65.079 17 66 16.1046 66 15V11C66 9.89543 65.079 9 63.943 9H52.629Z" fill="url(#paint0_linear_144_408)"/>
<path fill-rule="evenodd" clip-rule="evenodd" d="M51.629 10V9C51.629 7.36951 50.261 6 48.514 6C46.768 6 45.4 7.36951 45.4 9V10H32.057C31.447 10 31 10.4741 31 11V15C31 15.5259 31.447 16 32.057 16H63.943C64.553 16 65 15.5259 65 15V11C65 10.4741 64.553 10 63.943 10H51.629ZM63.943 9C65.079 9 66 9.89543 66 11V15C66 16.1046 65.079 17 63.943 17H32.057C30.921 17 30 16.1046 30 15V11C30 9.89543 30.921 9 32.057 9H44.4C44.4 6.79086 46.242 5 48.514 5C50.787 5 52.629 6.79086 52.629 9H63.943Z" fill="#333333"/>
<path d="M26 23.9476C26 22.8719 26.909 22 28.031 22H67.969C69.091 22 70 22.872 70 23.9476V73.8301C70 74.3473 69.785 74.8433 69.404 75.2086L60.817 83.4268C60.436 83.7912 59.92 83.9958 59.382 83.9958H28.031C26.909 83.9958 26 83.1239 26 82.0483V23.9476Z" fill="white"/>
<path fill-rule="evenodd" clip-rule="evenodd" d="M67.969 22.9738H28.031C27.47 22.9738 27.015 23.4098 27.015 23.9476V82.0485C27.015 82.5863 27.47 83.0223 28.031 83.0223H59.382C59.651 83.0223 59.909 82.9199 60.099 82.7377L68.686 74.5196C68.877 74.3369 68.985 74.0889 68.985 73.8303V23.9476C68.985 23.4098 68.53 22.9738 67.969 22.9738ZM28.031 22C26.909 22 26 22.872 26 23.9476V82.0485C26 83.1241 26.909 83.996 28.031 83.996H59.382C59.92 83.996 60.436 83.7914 60.817 83.427L69.404 75.2088C69.785 74.8435 70 74.3475 70 73.8303V23.9476C70 22.872 69.091 22 67.969 22H28.031Z" fill="#333333"/>
<path fill-rule="evenodd" clip-rule="evenodd" d="M37 29.5C37 29.2239 37.218 29 37.487 29H58.514C58.783 29 59 29.2239 59 29.5C59 29.7761 58.783 30 58.514 30H37.487C37.218 30 37 29.7761 37 29.5Z" fill="#333333"/>
<path d="M31 36.9471C31 36.424 31.465 36 32.039 36H39.961C40.535 36 41 36.4241 41 36.9471V44.5C41 45.0231 41.074 45 40.5 45H32.039C31.465 45 31 44.576 31 44.0529V36.9471Z" fill="url(#paint1_linear_144_408)"/>
<path d="M31 36.9471C31 36.424 31.465 36 32.039 36H39.961C40.535 36 41 36.4241 41 36.9471V44.5C41 45.0231 41.074 45 40.5 45H32.039C31.465 45 31 44.576 31 44.0529V36.9471Z" fill="#BDECFF"/>
<path fill-rule="evenodd" clip-rule="evenodd" d="M41.2912 35.5082C41.5162 35.6637 41.5682 35.9662 41.4072 36.1839L36.4072 42.9651C36.3222 43.081 36.1882 43.1546 36.0422 43.1663C35.8952 43.1781 35.7512 43.1268 35.6472 43.0261L33.6472 41.0886C33.4522 40.8994 33.4522 40.5927 33.6472 40.4036C33.8422 40.2144 34.1592 40.2144 34.3542 40.4036L35.9372 41.9368L40.5942 35.6208C40.7542 35.4031 41.0662 35.3527 41.2912 35.5082Z" fill="#333333"/>
<path fill-rule="evenodd" clip-rule="evenodd" d="M32.5 35.9976C32.215 35.9976 32.012 36.2108 32.012 36.5V44.4684C32.012 44.7577 32.264 45.0023 32.549 45.0023H40.429C40.714 45.0023 41.007 44.7181 41.007 44.4289V40.5C41.007 40.2108 41.214 40.0216 41.499 40.0216C41.784 40.0216 42 40.2108 42 40.5V44.4289C42 45.2966 41.285 46 40.429 46H32.549C31.694 46 31.023 45.3361 31.023 44.4684L31 36.5711C31 35.7034 31.524 35 32.38 35H37.845C38.13 35 38.362 35.2345 38.362 35.5237C38.362 35.8129 38.13 35.9976 37.845 35.9976H32.5Z" fill="#333333"/>
<path fill-rule="evenodd" clip-rule="evenodd" d="M47.488 38C47.218 38 47 38.2239 47 38.5C47 38.7761 47.218 39 47.488 39H62.512C62.782 39 63 38.7761 63 38.5C63 38.2239 62.782 38 62.512 38H55H47.488ZM47.49 41C47.219 41 47 41.2239 47 41.5C47 41.7761 47.219 42 47.49 42H55.51C55.781 42 56 41.7761 56 41.5C56 41.2239 55.781 41 55.51 41H47.49Z" fill="#333333"/>
<path d="M31 51.9471C31 51.424 31.465 51 32.039 51H39.961C40.535 51 41 51.424 41 51.9471V59.5C41 60.0231 41.074 60 40.5 60H32.039C31.465 60 31 59.5759 31 59.0529V51.9471Z" fill="url(#paint2_linear_144_408)"/>
<path d="M31 51.9471C31 51.424 31.465 51 32.039 51H39.961C40.535 51 41 51.424 41 51.9471V59.5C41 60.0231 41.074 60 40.5 60H32.039C31.465 60 31 59.5759 31 59.0529V51.9471Z" fill="#BDECFF"/>
<path fill-rule="evenodd" clip-rule="evenodd" d="M41.2912 50.5082C41.5162 50.6637 41.5682 50.9662 41.4072 51.1839L36.4072 57.9651C36.3222 58.081 36.1882 58.1546 36.0422 58.1663C35.8952 58.1781 35.7512 58.1268 35.6472 58.0261L33.6472 56.0886C33.4522 55.8994 33.4522 55.5928 33.6472 55.4036C33.8422 55.2144 34.1592 55.2144 34.3542 55.4036L35.9372 56.9368L40.5942 50.6208C40.7542 50.4031 41.0662 50.3527 41.2912 50.5082Z" fill="#333333"/>
<path fill-rule="evenodd" clip-rule="evenodd" d="M32.5 50.9976C32.215 50.9976 32.012 51.2108 32.012 51.5V59.4684C32.012 59.7577 32.264 60.0023 32.549 60.0023H40.429C40.714 60.0023 41.007 59.7181 41.007 59.4289V55.5C41.007 55.2108 41.214 55.0216 41.499 55.0216C41.784 55.0216 42 55.2108 42 55.5V59.4289C42 60.2966 41.285 61 40.429 61H32.549C31.694 61 31.023 60.3361 31.023 59.4684L31 51.5711C31 50.7034 31.524 50 32.38 50H37.845C38.13 50 38.362 50.2345 38.362 50.5237C38.362 50.8129 38.13 50.9976 37.845 50.9976H32.5Z" fill="#333333"/>
<path fill-rule="evenodd" clip-rule="evenodd" d="M47.488 53C47.218 53 47 53.2239 47 53.5C47 53.7761 47.218 54 47.488 54H62.512C62.782 54 63 53.7761 63 53.5C63 53.2239 62.782 53 62.512 53H55H47.488ZM47.49 56C47.219 56 47 56.2239 47 56.5C47 56.7761 47.219 57 47.49 57H55.51C55.781 57 56 56.7761 56 56.5C56 56.2239 55.781 56 55.51 56H47.49Z" fill="#333333"/>
<path d="M31 66.9471C31 66.424 31.465 66 32.039 66H39.961C40.535 66 41 66.424 41 66.9471V74.5C41 75.0231 41.074 75 40.5 75H32.039C31.465 75 31 74.5759 31 74.0529V66.9471Z" fill="url(#paint3_linear_144_408)"/>
<path d="M31 66.9471C31 66.424 31.465 66 32.039 66H39.961C40.535 66 41 66.424 41 66.9471V74.5C41 75.0231 41.074 75 40.5 75H32.039C31.465 75 31 74.5759 31 74.0529V66.9471Z" fill="#BDECFF"/>
<path fill-rule="evenodd" clip-rule="evenodd" d="M41.2912 65.5082C41.5162 65.6637 41.5682 65.9662 41.4072 66.1839L36.4072 72.9651C36.3222 73.081 36.1882 73.1546 36.0422 73.1663C35.8952 73.1781 35.7512 73.1268 35.6472 73.0261L33.6472 71.0886C33.4522 70.8994 33.4522 70.5928 33.6472 70.4036C33.8422 70.2144 34.1592 70.2144 34.3542 70.4036L35.9372 71.9368L40.5942 65.6208C40.7542 65.4031 41.0662 65.3527 41.2912 65.5082Z" fill="#333333"/>
<path fill-rule="evenodd" clip-rule="evenodd" d="M32.5 65.9976C32.215 65.9976 32.012 66.2108 32.012 66.5V74.4684C32.012 74.7577 32.264 75.0023 32.549 75.0023H40.429C40.714 75.0023 41.007 74.7181 41.007 74.4289V70.5C41.007 70.2108 41.214 70.0216 41.499 70.0216C41.784 70.0216 42 70.2108 42 70.5V74.4289C42 75.2966 41.285 76 40.429 76H32.549C31.694 76 31.023 75.3361 31.023 74.4684L31 66.5711C31 65.7034 31.524 65 32.38 65H37.845C38.13 65 38.362 65.2345 38.362 65.5237C38.362 65.8129 38.13 65.9976 37.845 65.9976H32.5Z" fill="#333333"/>
<path fill-rule="evenodd" clip-rule="evenodd" d="M47.488 68C47.218 68 47 68.2239 47 68.5C47 68.7761 47.218 69 47.488 69H62.512C62.782 69 63 68.7761 63 68.5C63 68.2239 62.782 68 62.512 68H55H47.488ZM47.49 71C47.219 71 47 71.2239 47 71.5C47 71.7761 47.219 72 47.49 72H55.51C55.781 72 56 71.7761 56 71.5C56 71.2239 55.781 71 55.51 71H47.49Z" fill="#333333"/>
<path fill-rule="evenodd" clip-rule="evenodd" d="M60.485 74.8479C60.212 74.8479 59.987 75.1541 59.987 75.3882V83H59V75.3882C59 74.6858 59.667 74 60.485 74H69V74.8479H60.485Z" fill="#333333"/>
<defs>
<linearGradient id="paint0_linear_144_408" x1="30" y1="4.53125" x2="36.986" y2="26.3078" gradientUnits="userSpaceOnUse">
<stop stop-color="#FFC671"/>
<stop offset="0.59375" stop-color="#FF7541"/>
<stop offset="1" stop-color="#FF6F3D"/>
</linearGradient>
<linearGradient id="paint1_linear_144_408" x1="31" y1="35.6484" x2="39.914" y2="45.9403" gradientUnits="userSpaceOnUse">
<stop stop-color="#FFC671"/>
<stop offset="0.59375" stop-color="#FF7541"/>
<stop offset="1" stop-color="#FF6F3D"/>
</linearGradient>
<linearGradient id="paint2_linear_144_408" x1="31" y1="50.6484" x2="39.914" y2="60.9403" gradientUnits="userSpaceOnUse">
<stop stop-color="#FFC671"/>
<stop offset="0.59375" stop-color="#FF7541"/>
<stop offset="1" stop-color="#FF6F3D"/>
</linearGradient>
<linearGradient id="paint3_linear_144_408" x1="31" y1="65.6484" x2="39.914" y2="75.9403" gradientUnits="userSpaceOnUse">
<stop stop-color="#FFC671"/>
<stop offset="0.59375" stop-color="#FF7541"/>
<stop offset="1" stop-color="#FF6F3D"/>
</linearGradient>
</defs>
</svg>
