<svg width="96" height="96" viewBox="0 0 96 96" fill="none" xmlns="http://www.w3.org/2000/svg">
<path d="M89 84V24L77 12H41V84H89Z" fill="white" stroke="#333333" stroke-miterlimit="10" stroke-linecap="round" stroke-linejoin="round"/>
<path d="M63 17.4523C63 17.1761 62.776 16.9523 62.5 16.9523H46.5C46.224 16.9523 46 17.1761 46 17.4523V33.4523C46 33.7284 46.224 33.9523 46.5 33.9523H62.5C62.776 33.9523 63 33.7284 63 33.4523V17.4523Z" fill="white" stroke="#333333" stroke-miterlimit="22.9256" stroke-linecap="round" stroke-linejoin="round"/>
<path d="M63.0002 26.5C63.0002 26.3426 62.9262 26.1944 62.8002 26.1L58.8002 23.1C58.6012 22.9507 58.3222 22.9705 58.1462 23.1464L54.4361 26.8566L51.7771 25.084C51.6651 25.009 51.5272 24.9828 51.3952 25.0112C51.2632 25.0397 51.1482 25.1204 51.0762 25.235L46.0762 33.235C45.9802 33.3891 45.9752 33.5834 46.0632 33.7424C46.1512 33.9014 46.3182 34 46.5002 34H62.5002C62.7762 34 63.0002 33.7761 63.0002 33.5V30.5V26.5Z" fill="#D9F4FF" stroke="#333333" stroke-miterlimit="22.9256" stroke-linecap="round" stroke-linejoin="round"/>
<path fill-rule="evenodd" clip-rule="evenodd" d="M66.5 33C66.5 32.7239 66.724 32.5 67 32.5H83C83.276 32.5 83.5 32.7239 83.5 33C83.5 33.2761 83.276 33.5 83 33.5H67C66.724 33.5 66.5 33.2761 66.5 33Z" fill="#333333"/>
<path fill-rule="evenodd" clip-rule="evenodd" d="M66.5 27C66.5 26.7239 66.605 26.5 66.735 26.5H74.265C74.395 26.5 74.5 26.7239 74.5 27C74.5 27.2761 74.395 27.5 74.265 27.5H66.735C66.605 27.5 66.5 27.2761 66.5 27Z" fill="#333333"/>
<path d="M77 24V12L89 24H77Z" fill="url(#paint0_linear_145_18)" stroke="#333333" stroke-linecap="round" stroke-linejoin="round"/>
<path fill-rule="evenodd" clip-rule="evenodd" d="M30.5 26.5C28.291 26.5 26.5 28.2909 26.5 30.5V40.5H30.5V32.5C30.5 31.3954 31.395 30.5 32.5 30.5H52.5C53.605 30.5 54.5 31.3954 54.5 32.5V40.5H58.5V30.5C58.5 28.2909 56.709 26.5 54.5 26.5H30.5Z" fill="white"/>
<mask id="mask0_145_18" style="mask-type:luminance" maskUnits="userSpaceOnUse" x="26" y="26" width="33" height="15">
<path fill-rule="evenodd" clip-rule="evenodd" d="M30.5 26.5C28.291 26.5 26.5 28.2909 26.5 30.5V40.5H30.5V32.5C30.5 31.3954 31.395 30.5 32.5 30.5H52.5C53.605 30.5 54.5 31.3954 54.5 32.5V40.5H58.5V30.5C58.5 28.2909 56.709 26.5 54.5 26.5H30.5Z" fill="white"/>
</mask>
<g mask="url(#mask0_145_18)">
<path d="M26.5 40.5H25.5V41.5H26.5V40.5ZM30.5 40.5V41.5H31.5V40.5H30.5ZM54.5 40.5H53.5V41.5H54.5V40.5ZM58.5 40.5V41.5H59.5V40.5H58.5ZM27.5 30.5C27.5 28.8431 28.843 27.5 30.5 27.5V25.5C27.739 25.5 25.5 27.7386 25.5 30.5H27.5ZM27.5 40.5V30.5H25.5V40.5H27.5ZM30.5 39.5H26.5V41.5H30.5V39.5ZM31.5 40.5V32.5H29.5V40.5H31.5ZM31.5 32.5C31.5 31.9477 31.948 31.5 32.5 31.5V29.5C30.843 29.5 29.5 30.8431 29.5 32.5H31.5ZM32.5 31.5H52.5V29.5H32.5V31.5ZM52.5 31.5C53.052 31.5 53.5 31.9477 53.5 32.5H55.5C55.5 30.8431 54.157 29.5 52.5 29.5V31.5ZM53.5 32.5V40.5H55.5V32.5H53.5ZM58.5 39.5H54.5V41.5H58.5V39.5ZM57.5 30.5V40.5H59.5V30.5H57.5ZM54.5 27.5C56.157 27.5 57.5 28.8431 57.5 30.5H59.5C59.5 27.7386 57.261 25.5 54.5 25.5V27.5ZM30.5 27.5H54.5V25.5H30.5V27.5Z" fill="#333333"/>
</g>
<path d="M74.5 37H10.5C8.567 37 7 38.567 7 40.5V80.5C7 82.433 8.567 84 10.5 84H74.5C76.433 84 78 82.433 78 80.5V40.5C78 38.567 76.433 37 74.5 37Z" fill="#AAAAAA" stroke="#333333"/>
<path d="M74.5 37H10.5C8.567 37 7 38.567 7 40.5V52.5C7 54.433 8.567 56 10.5 56H74.5C76.433 56 78 54.433 78 52.5V40.5C78 38.567 76.433 37 74.5 37Z" fill="#EFEFEF" stroke="#333333"/>
<path d="M18 56H27V62.5C27 64.9853 24.985 67 22.5 67C20.015 67 18 64.9853 18 62.5V56Z" fill="white" stroke="#333333"/>
<path d="M58 56H67V62.5C67 64.9853 64.985 67 62.5 67C60.015 67 58 64.9853 58 62.5V56Z" fill="white" stroke="#333333"/>
<path d="M51 22.5C51.8284 22.5 52.5 21.8284 52.5 21C52.5 20.1716 51.8284 19.5 51 19.5C50.1716 19.5 49.5 20.1716 49.5 21C49.5 21.8284 50.1716 22.5 51 22.5Z" fill="#FF6F3D"/>
<defs>
<linearGradient id="paint0_linear_145_18" x1="77" y1="11.5312" x2="89" y2="24" gradientUnits="userSpaceOnUse">
<stop stop-color="#FFC671"/>
<stop offset="0.59375" stop-color="#FF7541"/>
<stop offset="1" stop-color="#FF6F3D"/>
</linearGradient>
</defs>
</svg>
