<svg width="96" height="96" viewBox="0 0 96 96" fill="none" xmlns="http://www.w3.org/2000/svg">
<path d="M64 77H27V91H64V77Z" fill="#AAAAAA" stroke="#333333" stroke-linecap="round" stroke-linejoin="round"/>
<path d="M48.58 41H42.42C33.94 41 27 47.75 27 56V77H64V56C64 47.75 57.06 41 48.58 41Z" fill="url(#paint0_linear_145_87)" stroke="#333333" stroke-miterlimit="10" stroke-linecap="round" stroke-linejoin="round"/>
<path d="M40 41.7L45 46.5L50 41.7V34.5H40V41.7Z" fill="white" stroke="#333333" stroke-miterlimit="10" stroke-linecap="round" stroke-linejoin="round"/>
<path d="M45 38C52.18 38 58 32.1797 58 25C58 17.8203 52.18 12 45 12C37.82 12 32 17.8203 32 25C32 32.1797 37.82 38 45 38Z" fill="white" stroke="#333333" stroke-miterlimit="10" stroke-linecap="round" stroke-linejoin="round"/>
<path d="M58 24.9455C57.86 17.8182 52.08 12 45 12C37.78 12 32 17.8182 32 25.0909C32 25.3818 32 25.5273 32 25.8182C33.88 27.1273 36.04 28 38.5 28C42.69 28 46.4401 25.5273 48.1801 21.8909C50.2001 23.7818 52.8 25.0909 55.83 25.0909C56.56 25.0909 57.28 24.9455 58 24.9455Z" fill="#AAAAAA" stroke="#333333" stroke-linecap="round" stroke-linejoin="round"/>
<path d="M39 85H9C7.35 85 6 83.6 6 81.8889V60.1111C6 58.4 7.35 57 9 57H39C40.65 57 42 58.4 42 60.1111V81.8889C42 83.6 40.65 85 39 85Z" fill="#EFEFEF" stroke="#333333" stroke-miterlimit="10" stroke-linecap="round" stroke-linejoin="round"/>
<path d="M81.5 85H51.5C49.85 85 48.5 83.6 48.5 81.8889V60.1111C48.5 58.4 49.85 57 51.5 57H81.5C83.15 57 84.5 58.4 84.5 60.1111V81.8889C84.5 83.6 83.15 85 81.5 85Z" fill="#EFEFEF" stroke="#333333" stroke-miterlimit="10" stroke-linecap="round" stroke-linejoin="round"/>
<path d="M6 77H42" stroke="#333333" stroke-miterlimit="10" stroke-linecap="round" stroke-linejoin="round"/>
<path d="M48.5 77H84.5" stroke="#333333" stroke-miterlimit="10" stroke-linecap="round" stroke-linejoin="round"/>
<path d="M24.5 79C18.17 79 13 84.4 13 91H36C36 84.4 30.83 79 24.5 79Z" fill="white" stroke="#333333" stroke-miterlimit="10" stroke-linecap="round" stroke-linejoin="round"/>
<path d="M67 79C60.67 79 55.5 84.4 55.5 91H78.5C78.5 84.4 73.33 79 67 79Z" fill="white" stroke="#333333" stroke-miterlimit="10" stroke-linecap="round" stroke-linejoin="round"/>
<path d="M90 21C90 22.1046 89.1 23 88 23H79.64C79.22 23 78.82 23.1302 78.48 23.3725L74.6899 26.0812C73.5599 26.8844 72 26.0806 72 24.6988C72 23.7606 71.24 23 70.3 23H69C67.9 23 67 22.1046 67 21V7C67 5.89543 67.9 5 69 5H88C89.1 5 90 5.89543 90 7V21Z" fill="#BDECFF" stroke="#333333" stroke-miterlimit="10" stroke-linecap="round" stroke-linejoin="round"/>
<path d="M71.5 10H85.5" stroke="#333333" stroke-miterlimit="10" stroke-linecap="round" stroke-linejoin="round"/>
<path d="M71.5 14H85.5" stroke="#333333" stroke-miterlimit="10" stroke-linecap="round" stroke-linejoin="round"/>
<path d="M71.5 18H85.5" stroke="#333333" stroke-miterlimit="10" stroke-linecap="round" stroke-linejoin="round"/>
<path d="M30 70.5C30 67.4624 27.5376 65 24.5 65C21.4624 65 19 67.4624 19 70.5V73.5C19 76.5376 21.4624 79 24.5 79C27.5376 79 30 76.5376 30 73.5V70.5Z" fill="white" stroke="#333333"/>
<path d="M61 70.5C61 67.4624 63.46 65 66.5 65C69.54 65 72 67.4624 72 70.5V83.5H61V70.5Z" fill="white" stroke="#333333"/>
<defs>
<linearGradient id="paint0_linear_145_87" x1="27" y1="59" x2="64" y2="59" gradientUnits="userSpaceOnUse">
<stop stop-color="#FF8E3D"/>
<stop offset="1" stop-color="#FF6F3D"/>
</linearGradient>
</defs>
</svg>
