<svg width="96" height="96" viewBox="0 0 96 96" fill="none" xmlns="http://www.w3.org/2000/svg">
<g clip-path="url(#clip0_145_325)">
<mask id="mask0_145_325" style="mask-type:luminance" maskUnits="userSpaceOnUse" x="0" y="0" width="96" height="96">
<path d="M96 0H0V96H96V0Z" fill="white"/>
</mask>
<g mask="url(#mask0_145_325)">
<path fill-rule="evenodd" clip-rule="evenodd" d="M20 53.0001V32.0001H14.8899C11.8399 32.0001 10 34.1177 10 37.3693V53.0001H20Z" fill="#D9F4FF"/>
<path d="M20 7.00012H64.5L74 17.5001V52.0001H20V7.00012Z" fill="white"/>
<path d="M63.5 6.50012L74 17.5001H63.5V6.50012Z" fill="url(#paint0_linear_145_325)"/>
<path fill-rule="evenodd" clip-rule="evenodd" d="M20 6.00012H63.9099L74 17.3068V46.7858H73.02V17.6934L63.47 7.00012H20.98V53.0001H38.8799V54.0001H20V6.00012Z" fill="#333333"/>
<path fill-rule="evenodd" clip-rule="evenodd" d="M63.3201 6.03366C63.5101 5.95917 63.7301 6.01084 63.8701 6.16368L73.8701 17.1637C74.0001 17.3101 74.04 17.5213 73.96 17.7023C73.88 17.8833 73.7 18 73.5 18H63.5C63.22 18 63 17.7761 63 17.5V6.50002C63 6.29345 63.1301 6.10815 63.3201 6.03366ZM64 7.79332V17H72.3701L64 7.79332Z" fill="#333333"/>
<path fill-rule="evenodd" clip-rule="evenodd" d="M11.71 33.395C12.78 32.4518 14.2501 32.0001 15.8601 32.0001H21V54.0001H10V37.5456C10 35.752 10.63 34.3463 11.71 33.395ZM12.3701 34.1461C11.5301 34.8827 11 35.9997 11 37.5456V53.0001H20V33.0001H15.8601C14.4301 33.0001 13.2201 33.4014 12.3701 34.1461Z" fill="#333333"/>
<path fill-rule="evenodd" clip-rule="evenodd" d="M74 32.0001V46.0001H84V36.5605C84 33.2337 82.0101 32.0001 79.1101 32.0001H74Z" fill="#D9F4FF"/>
<path fill-rule="evenodd" clip-rule="evenodd" d="M73 32.0001H78.6101C80.1201 32.0001 81.48 32.3194 82.47 33.1504C83.47 33.9952 84 35.2944 84 37.0605V47.0001H73V32.0001ZM74 33.0001V46.0001H83V37.0605C83 35.4998 82.5401 34.5188 81.8201 33.915C81.0901 33.2976 80.0001 33.0001 78.6101 33.0001H74Z" fill="#333333"/>
<path fill-rule="evenodd" clip-rule="evenodd" d="M45.5 46.467L40.3501 52.1906H10.5801C8.13007 52.1906 5.75001 53.9138 6.02001 55.7025L11.21 85.6978C11.49 87.4865 13.26 89 15.72 89H81.5601C84.0201 89 85.9301 87.4865 86.0701 85.6978L89.97 47.6965C90.19 46.573 89.0801 45.0001 87.0701 45.0001H49C47.66 45.0001 46.46 45.5038 45.5 46.467Z" fill="url(#paint1_linear_145_325)"/>
<path fill-rule="evenodd" clip-rule="evenodd" d="M40.93 53.0177H10.71C9.70002 53.0177 8.57995 53.7193 7.88995 54.2555C7.17995 54.8052 6.95007 55.3777 7.01007 55.7901L12.2 86.4654V86.4749C12.39 87.7358 13.67 88.9999 15.72 88.9999H81.5601C83.6801 88.9999 84.9901 87.6944 85.0701 86.5482V86.5354L88.98 47.6122L88.99 47.5672C89.07 47.1435 88.5701 45.9999 87.0701 45.9999H49.0001C47.9501 45.9999 47 46.3953 46.23 47.1799L40.93 53.0177ZM45.5001 46.5002L40.48 52.0177H10.71C8.25002 52.0177 5.75008 54.1162 6.02008 55.9456L11.21 86.6226C11.49 88.452 13.26 89.9999 15.72 89.9999H81.5601C84.0201 89.9999 85.9301 88.452 86.0701 86.6226L89.97 47.7577C90.19 46.6086 89.0801 44.9999 87.0701 44.9999H49.0001C47.6601 44.9999 46.4601 45.5151 45.5001 46.5002Z" fill="#333333"/>
<path d="M46 12.9523H27V31.0475H46V12.9523Z" fill="white"/>
<path fill-rule="evenodd" clip-rule="evenodd" d="M27 31.0476L33.5 24.8571L37 28.1905L42.29 21.5238L46 27.0376V31.0476" fill="#E0E0E0"/>
<path fill-rule="evenodd" clip-rule="evenodd" d="M26 12.9524C26 12.4264 26.45 12 27 12H46C46.55 12 47 12.4264 47 12.9524V31.0476C47 31.5736 46.55 32 46 32H27C26.45 32 26 31.5736 26 31.0476V12.9524ZM46 13.0312V31.0476H27V12.9896L46 13.0312Z" fill="#333333"/>
<path fill-rule="evenodd" clip-rule="evenodd" d="M27.0101 30.995H46.0001V27.0375L42.3302 21.5238L37.2 28.78L33.3502 25.2282L27.0101 30.995ZM37.0301 27.3043L34.0401 24.5442C33.6501 24.1872 33.04 24.1863 32.65 24.5422L26.3101 30.3616C25.9101 30.7264 25.9001 31.3293 26.2801 31.7082C26.6601 32.0871 27.3 32.0985 27.69 31.7336L27.92 31.5238H45.13C45.31 31.8085 45.6301 32 46.0001 32C46.5501 32 47.0001 31.5736 47.0001 31.0476V27.0375C47.0001 26.8568 46.9502 26.6798 46.8402 26.5272L43.17 21.0134C42.99 20.742 42.6802 20.5758 42.3402 20.5715C42.0002 20.5672 41.6801 20.7252 41.5001 20.9919L37.0301 27.3043Z" fill="#333333"/>
<path fill-rule="evenodd" clip-rule="evenodd" d="M26 37.5067C26 37.2448 26.22 37.0325 26.5 37.0325H68.5C68.78 37.0325 69 37.2448 69 37.5067C69 37.7685 68.78 37.9808 68.5 37.9808H26.5C26.22 37.9808 26 37.7685 26 37.5067Z" fill="#333333"/>
<path fill-rule="evenodd" clip-rule="evenodd" d="M51.5 16.4999C51.5 16.2237 51.72 15.9999 52 15.9999H58C58.28 15.9999 58.5 16.2237 58.5 16.4999C58.5 16.776 58.28 16.9999 58 16.9999H52C51.72 16.9999 51.5 16.776 51.5 16.4999Z" fill="#333333"/>
<path fill-rule="evenodd" clip-rule="evenodd" d="M51.5 21.5C51.5 21.2239 51.72 21 52 21H68C68.28 21 68.5 21.2239 68.5 21.5C68.5 21.7761 68.28 22 68 22H60H52C51.72 22 51.5 21.7761 51.5 21.5Z" fill="#333333"/>
<path fill-rule="evenodd" clip-rule="evenodd" d="M51.5 26.4999C51.5 26.2238 51.72 25.9999 52 25.9999H68C68.28 25.9999 68.5 26.2238 68.5 26.4999C68.5 26.7761 68.28 26.9999 68 26.9999H52C51.72 26.9999 51.5 26.7761 51.5 26.4999Z" fill="#333333"/>
<path fill-rule="evenodd" clip-rule="evenodd" d="M26.2197 42.5035C26.2197 42.2274 26.4397 42.0035 26.7197 42.0035H38.7197C38.9897 42.0035 39.2197 42.2274 39.2197 42.5035C39.2197 42.7797 38.9897 43.0035 38.7197 43.0035H26.7197C26.4397 43.0035 26.2197 42.7797 26.2197 42.5035Z" fill="#333333"/>
<path d="M34 17.5569C34 18.6615 33.1 19.5569 32 19.5569C30.9 19.5569 30 18.6615 30 17.5569C30 16.4523 30.9 15.5569 32 15.5569C33.1 15.5569 34 16.4523 34 17.5569Z" fill="url(#paint2_linear_145_325)"/>
<path d="M58.7203 59.4048L58.2503 59.5408L57.6602 59.7126C57.0102 59.9042 56.4804 60.4529 56.3204 61.0872C56.1504 61.7322 56.3303 62.4128 57.2103 63.8934C58.0003 65.2279 58.4203 66.2014 58.4303 67.4837C58.4403 68.7419 58.0604 70.2775 57.3104 72.737C57.0404 73.6542 56.7804 74.496 56.5804 75.1135C56.4804 75.4221 56.4004 75.6757 56.3404 75.8551C56.3104 75.9444 56.2904 76.0172 56.2704 76.0697C56.2604 76.0956 56.2503 76.1194 56.2403 76.1389C56.2403 76.1432 56.2403 76.148 56.2303 76.1531C56.2303 76.1592 56.2303 76.1658 56.2303 76.1725C56.2203 76.1785 56.2203 76.1877 56.2103 76.198C56.2103 76.2048 56.1903 76.2284 56.1703 76.2528C56.1003 76.3201 56.0102 76.357 55.9002 76.3442C55.8202 76.3331 55.7503 76.2891 55.7203 76.2571C55.6503 76.1929 55.6004 76.1063 55.5704 76.0311C55.4704 75.7444 54.3503 72.4192 53.2603 69.1676C52.7103 67.5402 52.1704 65.929 51.7704 64.7221C51.5604 64.1186 51.4004 63.6161 51.2804 63.263C51.2204 63.0865 51.1702 62.947 51.1402 62.8509C51.1302 62.803 51.1104 62.7652 51.1104 62.7389C51.1004 62.7259 51.1004 62.7147 51.1004 62.706C51.0904 62.7019 51.0904 62.6967 51.0904 62.6915C51.0904 62.6892 51.0904 62.6845 51.0904 62.6788C51.0904 62.6757 51.0904 62.6684 51.0904 62.6639C51.0804 62.656 51.0804 62.6309 51.0804 62.6135C51.0804 62.4976 51.1503 62.4261 51.1803 62.3998C51.2103 62.3713 51.2403 62.3558 51.2603 62.3488C51.2903 62.3338 51.3204 62.3254 51.3404 62.3207C51.3904 62.3103 51.4403 62.3025 51.5003 62.2963C51.6103 62.2835 51.7603 62.2742 51.9203 62.2703C52.3803 62.2595 52.6404 62.2197 52.7804 62.1606C52.8404 62.1341 52.8605 62.1116 52.8705 62.1033C52.8705 62.0957 52.8802 62.0759 52.8802 62.0225V61.9737L49.5304 61.9676C48.1004 61.9651 47.2002 61.9728 46.6402 61.9977C46.3602 62.0102 46.1904 62.0267 46.0804 62.0457C46.0804 62.0461 46.0704 62.0464 46.0704 62.0467C46.0704 62.0465 46.0704 62.0469 46.0704 62.0467C46.0704 62.0499 46.0704 62.0581 46.0904 62.0729C46.1404 62.1182 46.2804 62.1822 46.5704 62.2211C46.9104 62.2662 47.2802 62.3143 47.3802 62.328C47.4802 62.3406 47.5404 62.3943 47.5604 62.4134C47.5904 62.4396 47.6102 62.4684 47.6302 62.4924C47.6602 62.5411 47.7003 62.6029 47.7403 62.6701C47.8103 62.8066 47.9003 62.9987 48.0003 63.2352C48.2103 63.71 48.4804 64.3855 48.7804 65.2039L49.7603 67.8743L49.7904 67.966L49.7603 68.0587L48.3902 72.1825C48.0202 73.3174 47.6702 74.3496 47.4102 75.0984C47.2802 75.4725 47.1704 75.7772 47.0904 75.9891C47.0504 76.0945 47.0203 76.1795 46.9903 76.2394C46.9803 76.2685 46.9703 76.2966 46.9603 76.3194C46.9503 76.3296 46.9403 76.3472 46.9303 76.3654C46.9203 76.3734 46.9102 76.3924 46.8902 76.4125C46.8802 76.4226 46.8604 76.4402 46.8404 76.4565C46.8104 76.4719 46.7603 76.4977 46.6803 76.4959C46.5803 76.4933 46.5203 76.4355 46.5003 76.4245C46.4803 76.4055 46.4703 76.387 46.4603 76.3791C46.4503 76.3618 46.4403 76.3461 46.4403 76.3394C46.4303 76.3235 46.4203 76.3066 46.4203 76.2933C46.4003 76.2648 46.3905 76.2263 46.3705 76.1808C46.3405 76.0886 46.2903 75.9548 46.2303 75.7851C46.1003 75.4451 45.9303 74.9547 45.7203 74.3508C45.3003 73.1426 44.7405 71.4769 44.1205 69.6453C43.5105 67.8137 42.9504 66.1315 42.5404 64.8966C42.3404 64.2792 42.1804 63.773 42.0604 63.4157C42.0104 63.2373 41.9603 63.0949 41.9303 62.994C41.9203 62.9438 41.9002 62.9021 41.8902 62.8707C41.8902 62.8553 41.8902 62.84 41.8802 62.8263C41.8802 62.8241 41.8705 62.786 41.8705 62.7456L42.1502 62.747C42.1502 62.6609 42.4702 62.5698 42.8902 62.5346C43.7602 62.4622 44.1702 62.1705 43.8902 61.8252C43.7302 61.6356 43.4404 61.6209 41.5304 61.7038C40.3304 61.7557 39.3504 61.7552 39.3504 61.7027C39.3504 61.6534 39.3903 61.5661 39.4603 61.4505L58.7203 59.4048ZM58.7203 59.4048L58.3705 59.0704L58.0003 58.7174C57.6003 58.3388 56.9002 57.8742 56.1602 57.4569C55.4202 57.0378 54.6103 56.6513 53.9603 56.437C52.4103 55.9186 51.2703 55.7258 49.7603 55.7258C46.4203 55.7258 43.2702 57.0063 40.9102 59.3265C40.4502 59.7766 40.0103 60.2712 39.6703 60.6847C39.5103 60.8909 39.3703 61.0812 39.2603 61.2382C39.2103 61.3163 39.1702 61.3912 39.1402 61.4591C39.1102 61.516 39.0704 61.6066 39.0704 61.7027C39.0704 61.8238 39.1403 61.8969 39.1803 61.9242C39.2103 61.9526 39.2503 61.9667 39.2603 61.9728C39.3003 61.9858 39.3304 61.9921 39.3504 61.9955C39.3904 62.003 39.4503 62.0078 39.5103 62.0113C39.6203 62.0184 39.7903 62.0218 39.9903 62.0219C40.3903 62.0221 40.9404 62.0091 41.5404 61.983C42.5004 61.9413 43.0404 61.9252 43.3504 61.9414C43.5104 61.9495 43.5902 61.965 43.6302 61.9792C43.6602 61.9886 43.6603 61.9946 43.6703 62.0023V62.0034C43.6803 62.0147 43.6903 62.0236 43.6903 62.0303L58.7203 59.4048ZM57.6602 73.3139C57.1002 74.9152 56.5903 76.3748 56.2303 77.4366C56.0403 77.9675 55.9004 78.399 55.7904 78.6992C55.7404 78.8492 55.7003 78.9667 55.6703 79.0474C55.6603 79.0877 55.6502 79.1195 55.6402 79.1417C55.6402 79.1527 55.6402 79.1625 55.6302 79.1702C55.6302 79.1739 55.6302 79.1789 55.6302 79.1841V79.1866C55.6302 79.1892 55.6302 79.193 55.6302 79.1973C55.6302 79.1981 55.6305 79.1991 55.6205 79.2003C55.6205 79.2034 55.6205 79.2078 55.6205 79.2129C55.6205 79.2156 55.6205 79.2363 55.6205 79.2626C55.6205 79.3502 55.6504 79.4642 55.7704 79.5331C55.8604 79.5874 55.9503 79.5832 55.9903 79.5787C56.0803 79.569 56.1703 79.5301 56.2503 79.4941C56.4103 79.4158 56.6305 79.2815 56.8705 79.1178C57.3405 78.7874 57.9503 78.3076 58.4703 77.826C60.4103 76.0236 61.8304 73.3825 62.3004 70.7199C62.4104 70.1083 62.4503 69.1996 62.4403 68.3037C62.4303 67.4075 62.3603 66.4971 62.2303 65.8815C62.1203 65.3239 61.9003 64.5916 61.6703 63.9468C61.5503 63.6235 61.4404 63.3185 61.3304 63.0652C61.2204 62.8183 61.1103 62.6005 61.0103 62.466C60.9903 62.4346 60.9603 62.3947 60.9203 62.3608C60.8903 62.3377 60.8003 62.257 60.6703 62.2663C60.5103 62.2774 60.4302 62.4015 60.4002 62.4521C60.3802 62.5083 60.3604 62.5694 60.3604 62.6173C60.3204 62.8065 60.3204 63.1766 60.3204 63.7748C60.3104 65.5492 60.1602 66.1023 57.6602 73.3139ZM37.2103 70.7199C37.8303 74.228 39.9203 77.3457 42.9403 79.2897C43.3703 79.5663 43.7103 79.7672 43.9603 79.8786C44.0803 79.9316 44.2004 79.9775 44.3004 79.9884C44.3504 79.9936 44.4504 79.9968 44.5404 79.9438C44.6604 79.8755 44.7003 79.7578 44.7003 79.6587C44.7003 79.6288 44.7003 79.6047 44.7003 79.6012L44.6903 79.6008C44.6903 79.5929 44.6903 79.5864 44.6903 79.5825C44.6903 79.5789 44.6903 79.5752 44.6903 79.5718C44.6903 79.5678 44.6903 79.564 44.6803 79.5608C44.6803 79.5482 44.6803 79.5325 44.6703 79.5151C44.6603 79.4798 44.6405 79.4303 44.6205 79.3682C44.5805 79.2437 44.5103 79.0647 44.4303 78.8395C44.2703 78.3887 44.0403 77.7505 43.7603 76.9877C43.2103 75.462 42.4803 73.4365 41.7403 71.4125C41.0003 69.3884 40.2603 67.3656 39.7003 65.8451C39.4203 65.0849 39.1804 64.4499 39.0204 64.0031C38.9304 63.7798 38.8704 63.6029 38.8204 63.4807C38.8004 63.4198 38.7804 63.3714 38.7704 63.3373C38.7604 63.3206 38.7503 63.3055 38.7503 63.2935C38.7503 63.2878 38.7403 63.2801 38.7403 63.2723C38.7403 63.2686 38.7303 63.2618 38.7303 63.2537C38.7303 63.2496 38.7203 63.2404 38.7203 63.2349C38.7103 63.2266 38.6903 63.2049 38.6803 63.1919C38.6503 63.1576 38.6004 63.1258 38.5404 63.1104C38.4804 63.0949 38.4202 63.1 38.3802 63.1129C38.3002 63.136 38.2403 63.1859 38.2203 63.2121C38.1603 63.2695 38.1104 63.3471 38.0804 63.4169C38.0004 63.5654 37.9104 63.7793 37.8204 64.0234C37.6404 64.5151 37.4504 65.171 37.3304 65.7708C37.0404 67.1725 36.9903 69.4347 37.2103 70.7199ZM45.9503 80.1966C45.9103 80.2868 45.9103 80.3869 45.9503 80.4824C45.9803 80.57 46.0404 80.6332 46.1004 80.6773C46.2004 80.7624 46.3504 80.8244 46.5204 80.8752C46.8504 80.9796 47.3704 81.0726 48.0604 81.1616C48.5704 81.2277 49.2404 81.2904 49.5504 81.3001C50.2204 81.3213 51.3303 81.1857 52.2603 81.0141C52.7303 80.9278 53.1603 80.8305 53.4803 80.7353C53.6403 80.6882 53.7802 80.6385 53.8802 80.5866C53.9402 80.5613 53.9904 80.529 54.0404 80.4875C54.0804 80.4551 54.1803 80.3652 54.1803 80.2198C54.1803 80.1854 54.1703 80.1572 54.1703 80.1568C54.1703 80.1484 54.1602 80.141 54.1602 80.136C54.1602 80.1257 54.1602 80.1144 54.1502 80.1036C54.1502 80.0815 54.1402 80.0521 54.1302 80.0169C54.1002 79.9461 54.0704 79.8458 54.0204 79.7206C53.9404 79.4697 53.8102 79.1152 53.6602 78.6882C53.3602 77.8339 52.9403 76.6875 52.5103 75.4953C51.6503 73.1124 50.7203 70.5421 50.4203 69.7596C50.3903 69.6781 50.3604 69.6051 50.3304 69.5455C50.3004 69.4951 50.2603 69.4159 50.1903 69.3601C50.1403 69.3279 50.0803 69.2946 50.0003 69.2911C49.9203 69.2874 49.8504 69.3159 49.8004 69.3478C49.7204 69.4014 49.6802 69.4815 49.6502 69.5242C49.6402 69.5489 49.6305 69.5817 49.6205 69.6019C49.6105 69.6288 49.5904 69.6636 49.5804 69.7052C49.5504 69.7885 49.5003 69.9036 49.4503 70.0461C49.3503 70.3314 49.2104 70.7302 49.0404 71.2131C48.7004 72.1789 48.2504 73.4831 47.7704 74.8926C47.2904 76.3016 46.8403 77.6038 46.5103 78.5667C46.3403 79.0482 46.2104 79.4447 46.1104 79.7273C46.0604 79.8687 46.0203 79.9814 45.9903 80.0619C45.9803 80.1022 45.9703 80.1342 45.9603 80.1576L45.9503 80.1856V80.1939V80.1966ZM63.1004 67.2134C63.8604 73.9788 58.8604 80.571 52.0504 81.763C47.1704 82.6161 42.1005 80.6028 39.1205 76.6312C35.6305 71.9613 35.4204 66.0326 38.5904 61.0858C39.0004 60.4403 39.7203 59.6172 40.5103 58.8494C41.3003 58.0816 42.1504 57.3883 42.8104 56.9937C44.9704 55.7012 47.2803 55.0572 49.7603 55.0572C53.3503 55.0572 56.4704 56.3426 59.0404 58.8796C61.5004 61.3066 62.7204 63.8093 63.1004 67.2134ZM39.3504 79.0242C41.4904 81.1651 44.1202 82.5454 47.1302 83.1154C47.8802 83.2585 48.8203 83.3033 50.1703 83.2682C52.4803 83.208 54.0903 82.8508 55.9403 81.9784C62.6103 78.8449 65.9803 71.4506 63.9603 64.385C62.4403 59.048 58.0005 54.9541 52.6205 53.9306C51.8805 53.7892 50.8103 53.7207 49.7603 53.7207C48.7103 53.7207 47.6402 53.7892 46.9002 53.9306C43.9402 54.4943 41.1804 56.0142 39.0604 58.2545C33.5104 64.1187 33.6404 73.3182 39.3504 79.0242Z" fill="white"/>
<path d="M58.7203 59.4048L58.2503 59.5408L57.6602 59.7126C57.0102 59.9042 56.4804 60.4529 56.3204 61.0872C56.1504 61.7322 56.3303 62.4128 57.2103 63.8934C58.0003 65.2279 58.4203 66.2014 58.4303 67.4837C58.4403 68.7419 58.0604 70.2775 57.3104 72.737C57.0404 73.6542 56.7804 74.496 56.5804 75.1135C56.4804 75.4221 56.4004 75.6757 56.3404 75.8551C56.3104 75.9444 56.2904 76.0172 56.2704 76.0697C56.2604 76.0956 56.2503 76.1194 56.2403 76.1389C56.2403 76.1432 56.2403 76.148 56.2303 76.1531C56.2303 76.1592 56.2303 76.1658 56.2303 76.1725C56.2203 76.1785 56.2203 76.1877 56.2103 76.198C56.2103 76.2048 56.1903 76.2284 56.1703 76.2528C56.1003 76.3201 56.0102 76.357 55.9002 76.3442C55.8202 76.3331 55.7503 76.2891 55.7203 76.2571C55.6503 76.1929 55.6004 76.1063 55.5704 76.0311M58.7203 59.4048L39.4603 61.4505C39.3903 61.5661 39.3504 61.6534 39.3504 61.7027C39.3504 61.7552 40.3304 61.7557 41.5304 61.7038C43.4404 61.6209 43.7302 61.6356 43.8902 61.8252C44.1702 62.1705 43.7602 62.4622 42.8902 62.5346C42.4702 62.5698 42.1502 62.6609 42.1502 62.747L41.8705 62.7456C41.8705 62.786 41.8802 62.8241 41.8802 62.8263C41.8902 62.84 41.8902 62.8553 41.8902 62.8707C41.9002 62.9021 41.9203 62.9438 41.9303 62.994C41.9603 63.0949 42.0104 63.2373 42.0604 63.4157C42.1804 63.773 42.3404 64.2792 42.5404 64.8966C42.9504 66.1315 43.5105 67.8137 44.1205 69.6453C44.7405 71.4769 45.3003 73.1426 45.7203 74.3508C45.9303 74.9547 46.1003 75.4451 46.2303 75.7851C46.2903 75.9548 46.3405 76.0886 46.3705 76.1808C46.3905 76.2263 46.4003 76.2648 46.4203 76.2933C46.4203 76.3066 46.4303 76.3235 46.4403 76.3394C46.4403 76.3461 46.4503 76.3618 46.4603 76.3791C46.4703 76.387 46.4803 76.4055 46.5003 76.4245C46.5203 76.4355 46.5803 76.4933 46.6803 76.4959C46.7603 76.4977 46.8104 76.4719 46.8404 76.4565C46.8604 76.4402 46.8802 76.4226 46.8902 76.4125C46.9102 76.3924 46.9203 76.3734 46.9303 76.3654C46.9403 76.3472 46.9503 76.3296 46.9603 76.3194C46.9703 76.2966 46.9803 76.2685 46.9903 76.2394C47.0203 76.1795 47.0504 76.0945 47.0904 75.9891C47.1704 75.7772 47.2802 75.4725 47.4102 75.0984C47.6702 74.3496 48.0202 73.3174 48.3902 72.1825L49.7603 68.0587L49.7904 67.966L49.7603 67.8743L48.7804 65.2039C48.4804 64.3855 48.2103 63.71 48.0003 63.2352C47.9003 62.9987 47.8103 62.8066 47.7403 62.6701C47.7003 62.6029 47.6602 62.5411 47.6302 62.4924C47.6102 62.4684 47.5904 62.4396 47.5604 62.4134C47.5404 62.3943 47.4802 62.3406 47.3802 62.328C47.2802 62.3143 46.9104 62.2662 46.5704 62.2211C46.2804 62.1822 46.1404 62.1182 46.0904 62.0729C46.0704 62.0581 46.0704 62.0499 46.0704 62.0467M58.7203 59.4048L58.3705 59.0704L58.0003 58.7174C57.6003 58.3388 56.9002 57.8742 56.1602 57.4569C55.4202 57.0378 54.6103 56.6513 53.9603 56.437C52.4103 55.9186 51.2703 55.7258 49.7603 55.7258C46.4203 55.7258 43.2702 57.0063 40.9102 59.3265C40.4502 59.7766 40.0103 60.2712 39.6703 60.6847C39.5103 60.8909 39.3703 61.0812 39.2603 61.2382C39.2103 61.3163 39.1702 61.3912 39.1402 61.4591C39.1102 61.516 39.0704 61.6066 39.0704 61.7027C39.0704 61.8238 39.1403 61.8969 39.1803 61.9242C39.2103 61.9526 39.2503 61.9667 39.2603 61.9728C39.3003 61.9858 39.3304 61.9921 39.3504 61.9955C39.3904 62.003 39.4503 62.0078 39.5103 62.0113C39.6203 62.0184 39.7903 62.0218 39.9903 62.0219C40.3903 62.0221 40.9404 62.0091 41.5404 61.983C42.5004 61.9413 43.0404 61.9252 43.3504 61.9414C43.5104 61.9495 43.5902 61.965 43.6302 61.9792C43.6602 61.9886 43.6603 61.9946 43.6703 62.0023V62.0034C43.6803 62.0147 43.6903 62.0236 43.6903 62.0303L58.7203 59.4048ZM55.5704 76.0311L55.8404 75.9362M55.5704 76.0311C55.4704 75.7444 54.3503 72.4192 53.2603 69.1676C52.7103 67.5402 52.1704 65.929 51.7704 64.7221C51.5604 64.1186 51.4004 63.6161 51.2804 63.263C51.2204 63.0865 51.1702 62.947 51.1402 62.8509C51.1302 62.803 51.1104 62.7652 51.1104 62.7389C51.1004 62.7259 51.1004 62.7147 51.1004 62.706C51.0904 62.7019 51.0904 62.6967 51.0904 62.6915C51.0904 62.6892 51.0904 62.6845 51.0904 62.6788C51.0904 62.6757 51.0904 62.6684 51.0904 62.6639C51.0804 62.656 51.0804 62.6309 51.0804 62.6135C51.0804 62.4976 51.1503 62.4261 51.1803 62.3998C51.2103 62.3713 51.2403 62.3558 51.2603 62.3488C51.2903 62.3338 51.3204 62.3254 51.3404 62.3207C51.3904 62.3103 51.4403 62.3025 51.5003 62.2963C51.6103 62.2835 51.7603 62.2742 51.9203 62.2703C52.3803 62.2595 52.6404 62.2197 52.7804 62.1606C52.8404 62.1341 52.8605 62.1116 52.8705 62.1033C52.8705 62.0957 52.8802 62.0759 52.8802 62.0225V61.9737L49.5304 61.9676C48.1004 61.9651 47.2002 61.9728 46.6402 61.9977C46.3602 62.0102 46.1904 62.0267 46.0804 62.0457C46.0804 62.0461 46.0704 62.0464 46.0704 62.0467M46.0704 62.0467C46.0704 62.0469 46.0704 62.0465 46.0704 62.0467ZM43.7003 62.0458C43.7003 62.0458 43.7003 62.0451 43.7003 62.0438M43.7003 62.0173C43.7003 62.0173 43.7003 62.0177 43.7003 62.0184M57.6602 73.3139C57.1002 74.9152 56.5903 76.3748 56.2303 77.4366C56.0403 77.9675 55.9004 78.399 55.7904 78.6992C55.7404 78.8492 55.7003 78.9667 55.6703 79.0474C55.6603 79.0877 55.6502 79.1195 55.6402 79.1417C55.6402 79.1527 55.6402 79.1625 55.6302 79.1702C55.6302 79.1739 55.6302 79.1789 55.6302 79.1841V79.1866C55.6302 79.1892 55.6302 79.193 55.6302 79.1973C55.6302 79.1981 55.6305 79.1991 55.6205 79.2003C55.6205 79.2034 55.6205 79.2078 55.6205 79.2129C55.6205 79.2156 55.6205 79.2363 55.6205 79.2626C55.6205 79.3502 55.6504 79.4642 55.7704 79.5331C55.8604 79.5874 55.9503 79.5832 55.9903 79.5787C56.0803 79.569 56.1703 79.5301 56.2503 79.4941C56.4103 79.4158 56.6305 79.2815 56.8705 79.1178C57.3405 78.7874 57.9503 78.3076 58.4703 77.826C60.4103 76.0236 61.8304 73.3825 62.3004 70.7199C62.4104 70.1083 62.4503 69.1996 62.4403 68.3037C62.4303 67.4075 62.3603 66.4971 62.2303 65.8815C62.1203 65.3239 61.9003 64.5916 61.6703 63.9468C61.5503 63.6235 61.4404 63.3185 61.3304 63.0652C61.2204 62.8183 61.1103 62.6005 61.0103 62.466C60.9903 62.4346 60.9603 62.3947 60.9203 62.3608C60.8903 62.3377 60.8003 62.257 60.6703 62.2663C60.5103 62.2774 60.4302 62.4015 60.4002 62.4521C60.3802 62.5083 60.3604 62.5694 60.3604 62.6173C60.3204 62.8065 60.3204 63.1766 60.3204 63.7748C60.3104 65.5492 60.1602 66.1023 57.6602 73.3139ZM37.2103 70.7199C37.8303 74.228 39.9203 77.3457 42.9403 79.2897C43.3703 79.5663 43.7103 79.7672 43.9603 79.8786C44.0803 79.9316 44.2004 79.9775 44.3004 79.9884C44.3504 79.9936 44.4504 79.9968 44.5404 79.9438C44.6604 79.8755 44.7003 79.7578 44.7003 79.6587C44.7003 79.6288 44.7003 79.6047 44.7003 79.6012L44.6903 79.6008C44.6903 79.5929 44.6903 79.5864 44.6903 79.5825C44.6903 79.5789 44.6903 79.5752 44.6903 79.5718C44.6903 79.5678 44.6903 79.564 44.6803 79.5608C44.6803 79.5482 44.6803 79.5325 44.6703 79.5151C44.6603 79.4798 44.6405 79.4303 44.6205 79.3682C44.5805 79.2437 44.5103 79.0647 44.4303 78.8395C44.2703 78.3887 44.0403 77.7505 43.7603 76.9877C43.2103 75.462 42.4803 73.4365 41.7403 71.4125C41.0003 69.3884 40.2603 67.3656 39.7003 65.8451C39.4203 65.0849 39.1804 64.4499 39.0204 64.0031C38.9304 63.7798 38.8704 63.6029 38.8204 63.4807C38.8004 63.4198 38.7804 63.3714 38.7704 63.3373C38.7604 63.3206 38.7503 63.3055 38.7503 63.2935C38.7503 63.2878 38.7403 63.2801 38.7403 63.2723C38.7403 63.2686 38.7303 63.2618 38.7303 63.2537C38.7303 63.2496 38.7203 63.2404 38.7203 63.2349C38.7103 63.2266 38.6903 63.2049 38.6803 63.1919C38.6503 63.1576 38.6004 63.1258 38.5404 63.1104C38.4804 63.0949 38.4202 63.1 38.3802 63.1129C38.3002 63.136 38.2403 63.1859 38.2203 63.2121C38.1603 63.2695 38.1104 63.3471 38.0804 63.4169C38.0004 63.5654 37.9104 63.7793 37.8204 64.0234C37.6404 64.5151 37.4504 65.171 37.3304 65.7708C37.0404 67.1725 36.9903 69.4347 37.2103 70.7199ZM45.9503 80.1966C45.9103 80.2868 45.9103 80.3869 45.9503 80.4824C45.9803 80.57 46.0404 80.6332 46.1004 80.6773C46.2004 80.7624 46.3504 80.8244 46.5204 80.8752C46.8504 80.9796 47.3704 81.0726 48.0604 81.1616C48.5704 81.2277 49.2404 81.2904 49.5504 81.3001C50.2204 81.3213 51.3303 81.1857 52.2603 81.0141C52.7303 80.9278 53.1603 80.8305 53.4803 80.7353C53.6403 80.6882 53.7802 80.6385 53.8802 80.5866C53.9402 80.5613 53.9904 80.529 54.0404 80.4875C54.0804 80.4551 54.1803 80.3652 54.1803 80.2198C54.1803 80.1854 54.1703 80.1572 54.1703 80.1568C54.1703 80.1484 54.1602 80.141 54.1602 80.136C54.1602 80.1257 54.1602 80.1144 54.1502 80.1036C54.1502 80.0815 54.1402 80.0521 54.1302 80.0169C54.1002 79.9461 54.0704 79.8458 54.0204 79.7206C53.9404 79.4697 53.8102 79.1152 53.6602 78.6882C53.3602 77.8339 52.9403 76.6875 52.5103 75.4953C51.6503 73.1124 50.7203 70.5421 50.4203 69.7596C50.3903 69.6781 50.3604 69.6051 50.3304 69.5455C50.3004 69.4951 50.2603 69.4159 50.1903 69.3601C50.1403 69.3279 50.0803 69.2946 50.0003 69.2911C49.9203 69.2874 49.8504 69.3159 49.8004 69.3478C49.7204 69.4014 49.6802 69.4815 49.6502 69.5242C49.6402 69.5489 49.6305 69.5817 49.6205 69.6019C49.6105 69.6288 49.5904 69.6636 49.5804 69.7052C49.5504 69.7885 49.5003 69.9036 49.4503 70.0461C49.3503 70.3314 49.2104 70.7302 49.0404 71.2131C48.7004 72.1789 48.2504 73.4831 47.7704 74.8926C47.2904 76.3016 46.8403 77.6038 46.5103 78.5667C46.3403 79.0482 46.2104 79.4447 46.1104 79.7273C46.0604 79.8687 46.0203 79.9814 45.9903 80.0619C45.9803 80.1022 45.9703 80.1342 45.9603 80.1576L45.9503 80.1856V80.1939V80.1966ZM63.1004 67.2134C63.8604 73.9788 58.8604 80.571 52.0504 81.763C47.1704 82.6161 42.1005 80.6028 39.1205 76.6312C35.6305 71.9613 35.4204 66.0326 38.5904 61.0858C39.0004 60.4403 39.7203 59.6172 40.5103 58.8494C41.3003 58.0816 42.1504 57.3883 42.8104 56.9937C44.9704 55.7012 47.2803 55.0572 49.7603 55.0572C53.3503 55.0572 56.4704 56.3426 59.0404 58.8796C61.5004 61.3066 62.7204 63.8093 63.1004 67.2134ZM39.3504 79.0242C41.4904 81.1651 44.1202 82.5454 47.1302 83.1154C47.8802 83.2585 48.8203 83.3033 50.1703 83.2682C52.4803 83.208 54.0903 82.8508 55.9403 81.9784C62.6103 78.8449 65.9803 71.4506 63.9603 64.385C62.4403 59.048 58.0005 54.9541 52.6205 53.9306C51.8805 53.7892 50.8103 53.7207 49.7603 53.7207C48.7103 53.7207 47.6402 53.7892 46.9002 53.9306C43.9402 54.4943 41.1804 56.0142 39.0604 58.2545C33.5104 64.1187 33.6404 73.3182 39.3504 79.0242Z" stroke="#333333"/>
</g>
</g>
<defs>
<linearGradient id="paint0_linear_145_325" x1="63.5" y1="6.07043" x2="74.51" y2="16.9882" gradientUnits="userSpaceOnUse">
<stop stop-color="#FFC671"/>
<stop offset="0.59375" stop-color="#FF7541"/>
<stop offset="1" stop-color="#FF6F3D"/>
</linearGradient>
<linearGradient id="paint1_linear_145_325" x1="6.12001" y1="53.5388" x2="46.06" y2="116.775" gradientUnits="userSpaceOnUse">
<stop stop-color="#FFC671"/>
<stop offset="0.652615" stop-color="#FF8657"/>
</linearGradient>
<linearGradient id="paint2_linear_145_325" x1="32" y1="15.5569" x2="32" y2="19.5569" gradientUnits="userSpaceOnUse">
<stop stop-color="#FF8E3D"/>
<stop offset="1" stop-color="#FF6F3D"/>
</linearGradient>
<clipPath id="clip0_145_325">
<rect width="96" height="96" fill="white"/>
</clipPath>
</defs>
</svg>
