<svg width="48" height="46" viewBox="0 0 48 46" fill="none" xmlns="http://www.w3.org/2000/svg">
<path fill-rule="evenodd" clip-rule="evenodd" d="M40 5.33001C40 4.04318 38.9208 3 37.5895 3H10.4105C9.07923 3 8 4.04318 8 5.33V40.67C8 41.9568 9.07923 43 10.4105 43H32.0247C32.6714 43 33.291 42.7488 33.7442 42.3029L39.309 36.8281C39.7518 36.3924 40 35.806 40 35.1952V5.33001Z" fill="white"/>
<path fill-rule="evenodd" clip-rule="evenodd" d="M10.4105 2H37.5895C39.4408 2 41 3.45915 41 5.33001V35.1952C41 36.0792 40.6406 36.9209 40.0103 37.541L34.4455 43.0158C33.8017 43.6492 32.9288 44 32.0247 44H10.4105C8.55923 44 7 42.5409 7 40.67V5.33C7 3.45914 8.55924 2 10.4105 2ZM37.5895 3C38.9208 3 40 4.04318 40 5.33001V35.1952C40 35.806 39.7518 36.3924 39.309 36.8281L33.7442 42.3029C33.291 42.7488 32.6714 43 32.0247 43H10.4105C9.07923 43 8 41.9568 8 40.67V5.33C8 4.04318 9.07923 3 10.4105 3H37.5895Z" fill="#333333"/>
<path fill-rule="evenodd" clip-rule="evenodd" d="M32 35L40.5619 35C40.7781 35 41.0001 35.2567 41.0001 35.4571C41.0001 35.6576 40.8148 36 40.5986 36H33.0088V43H32.0001L32 35Z" fill="#333333"/>
<path fill-rule="evenodd" clip-rule="evenodd" d="M34 29.5258C34 29.2484 33.7751 29.0234 33.4976 29.0234H29.5024C29.2249 29.0234 29 29.2484 29 29.5258C29 29.8033 29.2249 30.0282 29.5024 30.0282H33.4976C33.7751 30.0282 34 29.8033 34 29.5258Z" fill="#333333"/>
<path fill-rule="evenodd" clip-rule="evenodd" d="M28 9.50239C28 9.22493 27.7751 9 27.4976 9H14.5024C14.2249 9 14 9.22493 14 9.50239C14 9.77985 14.2249 10.0048 14.5024 10.0048H27.4976C27.7751 10.0048 28 9.77985 28 9.50239Z" fill="#333333"/>
<path fill-rule="evenodd" clip-rule="evenodd" d="M34 13.5073C34 13.2298 33.7751 13.0049 33.4976 13.0049H14.5024C14.2249 13.0049 14 13.2298 14 13.5073C14 13.7847 14.2249 14.0097 14.5024 14.0097H33.4976C33.7751 14.0097 34 13.7847 34 13.5073Z" fill="#333333"/>
<path fill-rule="evenodd" clip-rule="evenodd" d="M31 17.5122C31 17.2347 30.7751 17.0098 30.4976 17.0098H14.5024C14.2249 17.0098 14 17.2347 14 17.5122C14 17.7896 14.2249 18.0145 14.5024 18.0145H30.4976C30.7751 18.0145 31 17.7896 31 17.5122Z" fill="#333333"/>
<path fill-rule="evenodd" clip-rule="evenodd" d="M34 21.5166C34 21.2391 33.7751 21.0142 33.4976 21.0142H14.5024C14.2249 21.0142 14 21.2391 14 21.5166C14 21.794 14.2249 22.0189 14.5024 22.0189H33.4976C33.7751 22.0189 34 21.794 34 21.5166Z" fill="#333333"/>
<path fill-rule="evenodd" clip-rule="evenodd" d="M23 26.5258C23 26.2484 22.7751 26.0234 22.4976 26.0234H16.5024C16.2249 26.0234 16 26.2484 16 26.5258C16 26.8033 16.2249 27.0282 16.5024 27.0282H22.4976C22.7751 27.0282 23 26.8033 23 26.5258Z" fill="#333333"/>
<path fill-rule="evenodd" clip-rule="evenodd" d="M23 26.5258C23 26.2484 22.7751 26.0234 22.4976 26.0234H16.5024C16.2249 26.0234 16 26.2484 16 26.5258C16 26.8033 16.2249 27.0282 16.5024 27.0282H22.4976C22.7751 27.0282 23 26.8033 23 26.5258Z" fill="#333333"/>
<path fill-rule="evenodd" clip-rule="evenodd" d="M34.0381 25.4975C34.0381 25.22 33.8132 24.9951 33.5357 24.9951H29.5405C29.263 24.9951 29.0381 25.22 29.0381 25.4975C29.0381 25.775 29.263 25.9999 29.5405 25.9999H33.5357C33.8132 25.9999 34.0381 25.775 34.0381 25.4975Z" fill="#333333"/>
<path fill-rule="evenodd" clip-rule="evenodd" d="M25.0379 34.5307C25.0379 34.2532 24.8129 34.0283 24.5355 34.0283H14.5024C14.2249 34.0283 14 34.2532 14 34.5307C14 34.8082 14.2249 35.0331 14.5024 35.0331H24.5355C24.8129 35.0331 25.0379 34.8082 25.0379 34.5307Z" fill="#333333"/>
<circle cx="14.5" cy="26.5234" r="0.5" fill="#333333"/>
<circle cx="14.5" cy="26.5234" r="0.5" fill="#333333"/>
<rect y="25" width="25" height="15" rx="2" fill="#AA5252"/>
<path d="M5.84778 29.0752C6.67688 29.0752 7.28186 29.2539 7.66272 29.6113C8.04358 29.9658 8.23401 30.4551 8.23401 31.0791C8.23401 31.3604 8.19153 31.6299 8.10657 31.8877C8.02161 32.1426 7.88245 32.3696 7.68909 32.5688C7.49866 32.7681 7.24377 32.9263 6.92444 33.0435C6.6051 33.1577 6.21106 33.2148 5.74231 33.2148H5.15784V35.5H3.79553V29.0752H5.84778ZM5.77747 30.1914H5.15784V32.0986H5.60608C5.86096 32.0986 6.08215 32.0649 6.26965 31.9976C6.45715 31.9302 6.60217 31.8247 6.70471 31.6812C6.80725 31.5376 6.85852 31.353 6.85852 31.1274C6.85852 30.811 6.77063 30.5767 6.59485 30.4243C6.41907 30.269 6.14661 30.1914 5.77747 30.1914ZM15.1375 32.2261C15.1375 32.9497 14.9983 33.5547 14.72 34.041C14.4446 34.5244 14.0447 34.8892 13.5203 35.1353C12.9959 35.3784 12.3645 35.5 11.6262 35.5H9.8069V29.0752H11.824C12.4978 29.0752 13.0823 29.1953 13.5774 29.4355C14.0725 29.6729 14.4563 30.0259 14.7288 30.4946C15.0012 30.9604 15.1375 31.5376 15.1375 32.2261ZM13.7224 32.2612C13.7224 31.7866 13.6521 31.397 13.5115 31.0923C13.3738 30.7847 13.1687 30.5576 12.8963 30.4111C12.6267 30.2646 12.2927 30.1914 11.8943 30.1914H11.1692V34.375H11.7537C12.4187 34.375 12.9124 34.1978 13.2346 33.8433C13.5598 33.4888 13.7224 32.9614 13.7224 32.2612ZM18.1693 35.5H16.829V29.0752H20.5116V30.1914H18.1693V31.8481H20.349V32.96H18.1693V35.5Z" fill="white"/>
</svg>
