<svg width="829" height="480" viewBox="0 0 829 480" fill="none" xmlns="http://www.w3.org/2000/svg">
<path fill-rule="evenodd" clip-rule="evenodd" d="M241.324 74.3182L247.706 81.2318C248.098 81.6561 248.098 82.3439 247.706 82.7682L241.324 89.6818C240.932 90.1061 240.297 90.1061 239.906 89.6818C239.514 89.2576 239.514 88.5697 239.906 88.1454L244.576 83.0864H243.065C242.512 83.0864 242.063 82.6 242.063 82C242.063 81.4 242.512 80.9136 243.065 80.9136H244.576L239.906 75.8546C239.514 75.4303 239.514 74.7424 239.906 74.3182C240.297 73.8939 240.932 73.8939 241.324 74.3182ZM77.9318 83.0864H74V80.9136H77.9318C78.4856 80.9136 78.9346 81.4 78.9346 82C78.9346 82.6 78.4856 83.0864 77.9318 83.0864ZM84.7924 82C84.7924 81.4 85.2414 80.9136 85.7953 80.9136H93.6588C94.2126 80.9136 94.6616 81.4 94.6616 82C94.6616 82.6 94.2126 83.0864 93.6588 83.0864H85.7953C85.2414 83.0864 84.7924 82.6 84.7924 82ZM100.519 82C100.519 81.4 100.968 80.9136 101.522 80.9136H109.386C109.94 80.9136 110.389 81.4 110.389 82C110.389 82.6 109.94 83.0864 109.386 83.0864H101.522C100.968 83.0864 100.519 82.6 100.519 82ZM116.246 82C116.246 81.4 116.695 80.9136 117.249 80.9136H125.113C125.667 80.9136 126.116 81.4 126.116 82C126.116 82.6 125.667 83.0864 125.113 83.0864H117.249C116.695 83.0864 116.246 82.6 116.246 82ZM131.973 82C131.973 81.4 132.422 80.9136 132.976 80.9136H140.84C141.394 80.9136 141.843 81.4 141.843 82C141.843 82.6 141.394 83.0864 140.84 83.0864H132.976C132.422 83.0864 131.973 82.6 131.973 82ZM147.7 82C147.7 81.4 148.149 80.9136 148.703 80.9136H156.567C157.121 80.9136 157.57 81.4 157.57 82C157.57 82.6 157.121 83.0864 156.567 83.0864H148.703C148.149 83.0864 147.7 82.6 147.7 82ZM163.427 82C163.427 81.4 163.876 80.9136 164.43 80.9136H172.294C172.848 80.9136 173.297 81.4 173.297 82C173.297 82.6 172.848 83.0864 172.294 83.0864H164.43C163.876 83.0864 163.427 82.6 163.427 82ZM179.154 82C179.154 81.4 179.603 80.9136 180.157 80.9136H188.021C188.575 80.9136 189.024 81.4 189.024 82C189.024 82.6 188.575 83.0864 188.021 83.0864H180.157C179.603 83.0864 179.154 82.6 179.154 82ZM194.881 82C194.881 81.4 195.33 81 195.884 81H203.748C204.302 81 204.751 81.4 204.751 82C204.751 82.6 204.302 83 203.748 83H195.884C195.33 83 194.881 82.6 194.881 82ZM210.608 82C210.608 81.4 211.057 81 211.611 81H219.475C220.029 81 220.478 81.4 220.478 82C220.478 82.6 220.029 83 219.475 83H211.611C211.057 83 210.608 82.6 210.608 82ZM226.336 82C226.336 81.4 226.784 81 227.338 81H235.202C235.756 81 236.205 81.4 236.205 82C236.205 82.6 235.756 83 235.202 83H227.338C226.784 83 226.336 82.6 226.336 82Z" fill="#9ADAF3"/>
<path fill-rule="evenodd" clip-rule="evenodd" d="M113.293 239.843C112.902 239.453 112.902 238.819 113.293 238.429L119.657 232.065C120.047 231.674 120.681 231.674 121.071 232.065C121.462 232.456 121.462 233.089 121.071 233.479L116.414 238.136L118.35 238.136C118.902 238.136 119.35 238.584 119.35 239.136C119.35 239.688 118.902 240.136 118.35 240.136L116.414 240.136L121.071 244.793C121.462 245.183 121.462 245.817 121.071 246.207C120.681 246.598 120.047 246.598 119.657 246.207L113.293 239.843ZM196.65 238.136L201 238.136L201 240.136L196.65 240.136C196.098 240.136 195.65 239.688 195.65 239.136C195.65 238.584 196.098 238.136 196.65 238.136ZM188.95 239.136C188.95 239.688 188.502 240.136 187.95 240.136L179.25 240.136C178.698 240.136 178.25 239.688 178.25 239.136C178.25 238.584 178.698 238.136 179.25 238.136L187.95 238.136C188.502 238.136 188.95 238.584 188.95 239.136ZM171.55 239.136C171.55 239.688 171.102 240.136 170.55 240.136L161.85 240.136C161.298 240.136 160.85 239.688 160.85 239.136C160.85 238.584 161.298 238.136 161.85 238.136L170.55 238.136C171.102 238.136 171.55 238.584 171.55 239.136ZM154.15 239.136C154.15 239.688 153.702 240.136 153.15 240.136L144.45 240.136C143.898 240.136 143.45 239.688 143.45 239.136C143.45 238.584 143.898 238.136 144.45 238.136L153.15 238.136C153.702 238.136 154.15 238.584 154.15 239.136ZM136.75 239.136C136.75 239.688 136.302 240.136 135.75 240.136L127.05 240.136C126.498 240.136 126.05 239.688 126.05 239.136C126.05 238.584 126.498 238.136 127.05 238.136L135.75 238.136C136.302 238.136 136.75 238.584 136.75 239.136Z" fill="#9ADAF3"/>
<path fill-rule="evenodd" clip-rule="evenodd" d="M188.843 403.682L195.207 396.768C195.598 396.344 195.598 395.656 195.207 395.232L188.843 388.318C188.453 387.894 187.819 387.894 187.429 388.318C187.038 388.742 187.038 389.43 187.429 389.855L192.086 394.914L190.672 394.914C190.12 394.914 189.672 395.4 189.672 396C189.672 396.6 190.12 397.086 190.672 397.086L192.086 397.086L187.429 402.145C187.038 402.57 187.038 403.258 187.429 403.682C187.819 404.106 188.453 404.106 188.843 403.682ZM75.8281 394.914L72 394.914L72 397.086L75.8281 397.086C76.3804 397.086 76.8281 396.6 76.8281 396C76.8281 395.4 76.3804 394.914 75.8281 394.914ZM82.4844 396C82.4844 396.6 82.9321 397.086 83.4844 397.086L91.1406 397.086C91.6929 397.086 92.1406 396.6 92.1406 396C92.1406 395.4 91.6929 394.914 91.1406 394.914L83.4844 394.914C82.9321 394.914 82.4844 395.4 82.4844 396ZM97.7969 396C97.7969 396.6 98.2446 397.086 98.7969 397.086L106.453 397.086C107.005 397.086 107.453 396.6 107.453 396C107.453 395.4 107.005 394.914 106.453 394.914L98.7969 394.914C98.2446 394.914 97.7969 395.4 97.7969 396ZM113.109 396C113.109 396.6 113.557 397.086 114.109 397.086L121.766 397.086C122.318 397.086 122.766 396.6 122.766 396C122.766 395.4 122.318 394.914 121.766 394.914L114.109 394.914C113.557 394.914 113.109 395.4 113.109 396ZM128.422 396C128.422 396.6 128.87 397.086 129.422 397.086L137.078 397.086C137.63 397.086 138.078 396.6 138.078 396C138.078 395.4 137.63 394.914 137.078 394.914L129.422 394.914C128.87 394.914 128.422 395.4 128.422 396ZM143.734 396C143.734 396.6 144.182 397.086 144.734 397.086L152.391 397.086C152.943 397.086 153.391 396.6 153.391 396C153.391 395.4 152.943 394.914 152.391 394.914L144.734 394.914C144.182 394.914 143.734 395.4 143.734 396ZM159.047 396C159.047 396.6 159.495 397.086 160.047 397.086L167.703 397.086C168.255 397.086 168.703 396.6 168.703 396C168.703 395.4 168.255 394.914 167.703 394.914L160.047 394.914C159.495 394.914 159.047 395.4 159.047 396ZM174.359 396C174.359 396.6 174.807 397.086 175.359 397.086L183.016 397.086C183.568 397.086 184.016 396.6 184.016 396C184.016 395.4 183.568 394.914 183.016 394.914L175.359 394.914C174.807 394.914 174.359 395.4 174.359 396Z" fill="#9ADAF3"/>
<path d="M38 46L82 46L98 62L98 118L38 118L38 46Z" fill="white"/>
<path fill-rule="evenodd" clip-rule="evenodd" d="M81.1716 48L40 48L40 116L96 116L96 62.8284L81.1716 48ZM82 46L38 46L38 118L98 118L98 62L82 46Z" fill="#9ADAF3"/>
<path d="M82 46L98 62L82 62L82 46Z" fill="#D9F4FF"/>
<path fill-rule="evenodd" clip-rule="evenodd" d="M98 62L82 46L82 62L98 62ZM93.1716 60L84 50.8284L84 60L93.1716 60Z" fill="#9ADAF3"/>
<path d="M50 75H67V77H50V75Z" fill="#AAAAAA"/>
<path d="M50 69H67V71H50V69Z" fill="#AAAAAA"/>
<path d="M50 81H67V83H50V81Z" fill="#AAAAAA"/>
<path d="M50 87H86V89H50V87Z" fill="#AAAAAA"/>
<path d="M50 93H86V95H50V93Z" fill="#AAAAAA"/>
<path d="M50 99H86V101H50V99Z" fill="#AAAAAA"/>
<path fill-rule="evenodd" clip-rule="evenodd" d="M80 81C83.3137 81 86 78.3137 86 75C86 71.6863 83.3137 69 80 69C76.6863 69 74 71.6863 74 75C74 78.3137 76.6863 81 80 81ZM88 75C88 79.4183 84.4183 83 80 83C75.5817 83 72 79.4183 72 75C72 70.5817 75.5817 67 80 67C84.4183 67 88 70.5817 88 75Z" fill="#FF6F3D"/>
<path fill-rule="evenodd" clip-rule="evenodd" d="M79 74H87V76H81V82H79V74Z" fill="#FF6F3D"/>
<path d="M50 105H86V107H50V105Z" fill="#AAAAAA"/>
<path d="M190 275L234 275L250 259L250 203L190 203L190 275Z" fill="white"/>
<path fill-rule="evenodd" clip-rule="evenodd" d="M233.172 273L192 273L192 205L248 205L248 258.172L233.172 273ZM234 275L190 275L190 203L250 203L250 259L234 275Z" fill="#9ADAF3"/>
<path d="M234 275L250 259L234 259L234 275Z" fill="#D9F4FF"/>
<path fill-rule="evenodd" clip-rule="evenodd" d="M250 259L234 275L234 259L250 259ZM245.172 261L236 270.172L236 261L245.172 261Z" fill="#9ADAF3"/>
<path d="M202 231H238V233H202V231Z" fill="#AAAAAA"/>
<path d="M202 237H238V239H202V237Z" fill="#AAAAAA"/>
<path d="M202 243H238V245H202V243Z" fill="#AAAAAA"/>
<path d="M202 249H238V251H202V249Z" fill="#AAAAAA"/>
<path d="M202 255H218V257H202V255Z" fill="#AAAAAA"/>
<path d="M202 261H218V263H202V261Z" fill="#FF6F3D"/>
<path fill-rule="evenodd" clip-rule="evenodd" d="M236 215H204V225H236V215ZM202 213V227H238V213H202Z" fill="#FF6F3D"/>
<path d="M72 427L72 383L56 367L-1.54974e-05 367L-7.62939e-06 427L72 427Z" fill="white"/>
<path fill-rule="evenodd" clip-rule="evenodd" d="M70 383.828L70 425L1.99999 425L1.99998 369L55.1716 369L70 383.828ZM72 383L72 427L-7.62939e-06 427L-1.54974e-05 367L56 367L72 383Z" fill="#9ADAF3"/>
<path d="M72 383L56 367L56 383L72 383Z" fill="#D9F4FF"/>
<path fill-rule="evenodd" clip-rule="evenodd" d="M56 367L72 383L56 383L56 367ZM58 371.828L67.1716 381L58 381L58 371.828Z" fill="#9ADAF3"/>
<path fill-rule="evenodd" clip-rule="evenodd" d="M27 380H12V384H27V380ZM10 378V386H29V378H10Z" fill="#AAAAAA"/>
<path fill-rule="evenodd" clip-rule="evenodd" d="M27 386H12V390H27V386ZM10 384V392H29V384H10Z" fill="#AAAAAA"/>
<path fill-rule="evenodd" clip-rule="evenodd" d="M27 392H12V396H27V392ZM10 390V398H29V390H10Z" fill="#AAAAAA"/>
<path fill-rule="evenodd" clip-rule="evenodd" d="M27 398H12V402H27V398ZM10 396V404H29V396H10Z" fill="#AAAAAA"/>
<path fill-rule="evenodd" clip-rule="evenodd" d="M27 404H12V408H27V404ZM10 402V410H29V402H10Z" fill="#AAAAAA"/>
<path fill-rule="evenodd" clip-rule="evenodd" d="M27 410H12V414H27V410ZM10 408V416H29V408H10Z" fill="#AAAAAA"/>
<path fill-rule="evenodd" clip-rule="evenodd" d="M44 380H29V384H44V380ZM27 378V386H46V378H27Z" fill="#AAAAAA"/>
<path fill-rule="evenodd" clip-rule="evenodd" d="M44 386H29V390H44V386ZM27 384V392H46V384H27Z" fill="#AAAAAA"/>
<path fill-rule="evenodd" clip-rule="evenodd" d="M44 392H29V396H44V392ZM27 390V398H46V390H27Z" fill="#AAAAAA"/>
<path fill-rule="evenodd" clip-rule="evenodd" d="M61 392H46V396H61V392ZM44 390V398H63V390H44Z" fill="#AAAAAA"/>
<path fill-rule="evenodd" clip-rule="evenodd" d="M44 398H29V402H44V398ZM27 396V404H46V396H27Z" fill="#AAAAAA"/>
<path fill-rule="evenodd" clip-rule="evenodd" d="M61 398H46V402H61V398ZM44 396V404H63V396H44Z" fill="#AAAAAA"/>
<path fill-rule="evenodd" clip-rule="evenodd" d="M44 404H29V408H44V404ZM27 402V410H46V402H27Z" fill="#AAAAAA"/>
<path fill-rule="evenodd" clip-rule="evenodd" d="M61 404H46V408H61V404ZM44 402V410H63V402H44Z" fill="#AAAAAA"/>
<path fill-rule="evenodd" clip-rule="evenodd" d="M44 410H29V414H44V410ZM27 408V416H46V408H27Z" fill="#AAAAAA"/>
<path fill-rule="evenodd" clip-rule="evenodd" d="M61 410H46V414H61V410ZM44 408V416H63V408H44Z" fill="#AAAAAA"/>
<path d="M277.649 457.542L267.925 447.664L281.339 444.182L277.649 457.542Z" fill="#95C038"/>
<path d="M297.789 18.2589L301.833 5.00005L311.291 15.1293L297.789 18.2589Z" fill="#FF6F3D"/>
<path d="M11.0014 191.658C11.0014 194.144 8.98638 196.16 6.5007 196.16C4.01503 196.16 2 194.144 2 191.658C2 189.172 4.01503 187.156 6.5007 187.156C8.98638 187.156 11.0014 189.172 11.0014 191.658Z" fill="#5DC0E8"/>
<path d="M331.001 377.658C331.001 380.144 328.986 382.16 326.501 382.16C324.015 382.16 322 380.144 322 377.658C322 375.172 324.015 373.156 326.501 373.156C328.986 373.156 331.001 375.172 331.001 377.658Z" fill="#66C4E9"/>
<path fill-rule="evenodd" clip-rule="evenodd" d="M800.843 379.318L807.207 386.232C807.598 386.656 807.598 387.344 807.207 387.768L800.843 394.682C800.453 395.106 799.819 395.106 799.429 394.682C799.038 394.258 799.038 393.57 799.429 393.145L804.086 388.086H802.58C802.027 388.086 801.58 387.6 801.58 387C801.58 386.4 802.027 385.914 802.58 385.914H804.086L799.429 380.855C799.038 380.43 799.038 379.742 799.429 379.318C799.819 378.894 800.453 378.894 800.843 379.318ZM637.92 388.086H634V385.914H637.92C638.473 385.914 638.92 386.4 638.92 387C638.92 387.6 638.473 388.086 637.92 388.086ZM644.761 387C644.761 386.4 645.209 385.914 645.761 385.914H653.602C654.155 385.914 654.602 386.4 654.602 387C654.602 387.6 654.155 388.086 653.602 388.086H645.761C645.209 388.086 644.761 387.6 644.761 387ZM660.443 387C660.443 386.4 660.891 385.914 661.443 385.914H669.284C669.836 385.914 670.284 386.4 670.284 387C670.284 387.6 669.836 388.086 669.284 388.086H661.443C660.891 388.086 660.443 387.6 660.443 387ZM676.125 387C676.125 386.4 676.573 385.914 677.125 385.914H684.966C685.518 385.914 685.966 386.4 685.966 387C685.966 387.6 685.518 388.086 684.966 388.086H677.125C676.573 388.086 676.125 387.6 676.125 387ZM691.807 387C691.807 386.4 692.255 385.914 692.807 385.914H700.648C701.2 385.914 701.648 386.4 701.648 387C701.648 387.6 701.2 388.086 700.648 388.086H692.807C692.255 388.086 691.807 387.6 691.807 387ZM707.489 387C707.489 386.4 707.936 385.914 708.489 385.914H716.33C716.882 385.914 717.33 386.4 717.33 387C717.33 387.6 716.882 388.086 716.33 388.086H708.489C707.936 388.086 707.489 387.6 707.489 387ZM723.17 387C723.17 386.4 723.618 385.914 724.17 385.914H732.011C732.564 385.914 733.011 386.4 733.011 387C733.011 387.6 732.564 388.086 732.011 388.086H724.17C723.618 388.086 723.17 387.6 723.17 387ZM738.852 387C738.852 386.4 739.3 385.914 739.852 385.914H747.693C748.245 385.914 748.693 386.4 748.693 387C748.693 387.6 748.245 388.086 747.693 388.086H739.852C739.3 388.086 738.852 387.6 738.852 387ZM754.534 387C754.534 386.4 754.982 385.914 755.534 385.914H763.375C763.927 385.914 764.375 386.4 764.375 387C764.375 387.6 763.927 388.086 763.375 388.086H755.534C754.982 388.086 754.534 387.6 754.534 387ZM770.216 387C770.216 386.4 770.664 385.914 771.216 385.914H779.057C779.609 385.914 780.057 386.4 780.057 387C780.057 387.6 779.609 388.086 779.057 388.086H771.216C770.664 388.086 770.216 387.6 770.216 387ZM785.898 387C785.898 386.4 786.345 385.994 786.898 385.994H794.739C795.291 385.994 795.739 386.4 795.739 387C795.739 387.6 795.291 387.95 794.739 387.95H786.898C786.345 387.95 785.898 387.6 785.898 387Z" fill="#9ADAF3"/>
<path fill-rule="evenodd" clip-rule="evenodd" d="M635.657 222.318L629.293 229.232C628.902 229.656 628.902 230.344 629.293 230.768L635.657 237.682C636.047 238.106 636.681 238.106 637.071 237.682C637.462 237.258 637.462 236.57 637.071 236.145L632.414 231.086H633.797C634.349 231.086 634.797 230.6 634.797 230C634.797 229.4 634.349 228.914 633.797 228.914H632.414L637.071 223.855C637.462 223.43 637.462 222.742 637.071 222.318C636.681 221.894 636.047 221.894 635.657 222.318ZM747.703 231H751.5V229H747.703C747.151 229 746.703 229.4 746.703 230C746.703 230.6 747.151 231 747.703 231ZM741.109 230C741.109 229.4 740.662 229 740.109 229H732.516C731.963 229 731.516 229.4 731.516 230C731.516 230.6 731.963 231 732.516 231H740.109C740.662 231 741.109 230.6 741.109 230ZM725.922 230C725.922 229.4 725.474 229 724.922 229H717.328C716.776 229 716.328 229.4 716.328 230C716.328 230.6 716.776 231 717.328 231H724.922C725.474 231 725.922 230.6 725.922 230ZM710.734 230C710.734 229.4 710.287 229 709.734 229H702.141C701.588 229 701.141 229.4 701.141 230C701.141 230.6 701.588 231 702.141 231H709.734C710.287 231 710.734 230.6 710.734 230ZM695.547 230C695.547 229.4 695.099 229 694.547 229H686.953C686.401 229 685.953 229.4 685.953 230C685.953 230.6 686.401 231 686.953 231H694.547C695.099 231 695.547 230.6 695.547 230ZM680.359 230C680.359 229.4 679.912 229 679.359 229H671.766C671.213 229 670.766 229.4 670.766 230C670.766 230.6 671.213 231 671.766 231H679.359C679.912 231 680.359 230.6 680.359 230ZM665.172 230C665.172 229.4 664.724 229 664.172 229H656.578C656.026 229 655.578 229.4 655.578 230C655.578 230.6 656.026 231 656.578 231H664.172C664.724 231 665.172 230.6 665.172 230ZM649.984 230C649.984 229.4 649.537 229 648.984 229H641.391C640.838 229 640.391 229.4 640.391 230C640.391 230.6 640.838 231 641.391 231H648.984C649.537 231 649.984 230.6 649.984 230Z" fill="#9ADAF3"/>
<path fill-rule="evenodd" clip-rule="evenodd" d="M524.717 71.7682C524.293 71.3439 524.293 70.6561 524.717 70.2318L531.631 63.3182C532.055 62.8939 532.743 62.8939 533.167 63.3182C533.592 63.7425 533.592 64.4303 533.167 64.8546L528.108 69.9136L530.211 69.9136C530.811 69.9136 531.298 70.4 531.298 71C531.298 71.6 530.811 72.0864 530.211 72.0864L528.108 72.0864L533.167 77.1455C533.592 77.5697 533.592 78.2576 533.167 78.6818C532.743 79.1061 532.055 79.1061 531.631 78.6818L524.717 71.7682ZM615.274 69.9998L620 69.9998L620 72.0051L615.274 72.0051C614.674 72.0051 614.188 71.6001 614.188 71.0002C614.188 70.4002 614.674 69.9998 615.274 69.9998ZM606.909 71.0001C606.909 71.6001 606.423 72.0115 605.823 72.0115L596.371 72.0115C595.771 72.0115 595.285 71.6001 595.285 71.0001C595.285 70.4001 595.771 69.9842 596.371 69.9842L605.823 69.9842C606.423 69.9842 606.909 70.4002 606.909 71.0001ZM588.006 71.0001C588.006 71.6001 587.52 72.0865 586.92 72.0865L577.469 72.0865C576.869 72.0865 576.382 71.6001 576.382 71.0001C576.382 70.4001 576.869 69.9137 577.469 69.9137L586.92 69.9137C587.52 69.9137 588.006 70.4001 588.006 71.0001ZM569.103 71.0001C569.103 71.6001 568.617 72.0864 568.017 72.0864L558.566 72.0864C557.966 72.0864 557.479 71.6 557.479 71.0001C557.479 70.4001 557.966 69.9137 558.566 69.9137L568.017 69.9137C568.617 69.9137 569.103 70.4001 569.103 71.0001ZM550.201 71C550.201 71.6 549.714 72.0864 549.114 72.0864L539.663 72.0864C539.063 72.0864 538.576 71.6 538.576 71C538.576 70.4 539.063 69.9136 539.663 69.9136L549.114 69.9137C549.714 69.9137 550.201 70.4001 550.201 71Z" fill="#9ADAF3"/>
<path d="M666 416L666 372L650 356L594 356L594 416L666 416Z" fill="white"/>
<path fill-rule="evenodd" clip-rule="evenodd" d="M664 372.828L664 414L596 414L596 358L649.172 358L664 372.828ZM666 372L666 416L594 416L594 356L650 356L666 372Z" fill="#9ADAF3"/>
<path d="M666 372L650 356L650 372L666 372Z" fill="#D9F4FF"/>
<path fill-rule="evenodd" clip-rule="evenodd" d="M650 356L666 372L650 372L650 356ZM652 360.828L661.172 370L652 370L652 360.828Z" fill="#9ADAF3"/>
<path fill-rule="evenodd" clip-rule="evenodd" d="M640 368H606V374H640V368ZM604 366V376H642V366H604Z" fill="#AAAAAA"/>
<path fill-rule="evenodd" clip-rule="evenodd" d="M654 394H606V404H654V394ZM604 392V406H656V392H604Z" fill="#AAAAAA"/>
<path d="M604 380H656V382H604V380Z" fill="#AAAAAA"/>
<path d="M604 386H656V388H604V386Z" fill="#AAAAAA"/>
<path d="M692 101L692 57L676 41L620 41L620 101L692 101Z" fill="white"/>
<path fill-rule="evenodd" clip-rule="evenodd" d="M690 57.8284L690 99L622 99L622 43L675.172 43L690 57.8284ZM692 57L692 101L620 101L620 41L676 41L692 57Z" fill="#9ADAF3"/>
<path d="M692 57L676 41L676 57L692 57Z" fill="#D9F4FF"/>
<path fill-rule="evenodd" clip-rule="evenodd" d="M676 41L692 57L676 57L676 41ZM678 45.8284L687.172 55L678 55L678 45.8284Z" fill="#9ADAF3"/>
<path fill-rule="evenodd" clip-rule="evenodd" d="M647 54H632V58H647V54ZM630 52V60H649V52H630Z" fill="#AAAAAA"/>
<path fill-rule="evenodd" clip-rule="evenodd" d="M647 60H632V64H647V60ZM630 58V66H649V58H630Z" fill="#AAAAAA"/>
<path fill-rule="evenodd" clip-rule="evenodd" d="M647 66H632V70H647V66ZM630 64V72H649V64H630Z" fill="#AAAAAA"/>
<path fill-rule="evenodd" clip-rule="evenodd" d="M647 72H632V76H647V72ZM630 70V78H649V70H630Z" fill="#AAAAAA"/>
<path fill-rule="evenodd" clip-rule="evenodd" d="M647 78H632V82H647V78ZM630 76V84H649V76H630Z" fill="#AAAAAA"/>
<path fill-rule="evenodd" clip-rule="evenodd" d="M647 84H632V88H647V84ZM630 82V90H649V82H630Z" fill="#AAAAAA"/>
<path fill-rule="evenodd" clip-rule="evenodd" d="M664 54H649V58H664V54ZM647 52V60H666V52H647Z" fill="#AAAAAA"/>
<path fill-rule="evenodd" clip-rule="evenodd" d="M664 60H649V64H664V60ZM647 58V66H666V58H647Z" fill="#AAAAAA"/>
<path fill-rule="evenodd" clip-rule="evenodd" d="M664 66H649V70H664V66ZM647 64V72H666V64H647Z" fill="#AAAAAA"/>
<path fill-rule="evenodd" clip-rule="evenodd" d="M681 66H666V70H681V66ZM664 64V72H683V64H664Z" fill="#AAAAAA"/>
<path fill-rule="evenodd" clip-rule="evenodd" d="M664 72H649V76H664V72ZM647 70V78H666V70H647Z" fill="#AAAAAA"/>
<path fill-rule="evenodd" clip-rule="evenodd" d="M681 72H666V76H681V72ZM664 70V78H683V70H664Z" fill="#AAAAAA"/>
<path fill-rule="evenodd" clip-rule="evenodd" d="M664 78H649V82H664V78ZM647 76V84H666V76H647Z" fill="#AAAAAA"/>
<path fill-rule="evenodd" clip-rule="evenodd" d="M681 78H666V82H681V78ZM664 76V84H683V76H664Z" fill="#AAAAAA"/>
<path fill-rule="evenodd" clip-rule="evenodd" d="M664 84H649V88H664V84ZM647 82V90H666V82H647Z" fill="#AAAAAA"/>
<path fill-rule="evenodd" clip-rule="evenodd" d="M681 84H666V88H681V84ZM664 82V90H683V82H664Z" fill="#AAAAAA"/>
<path d="M747 192L791 192L807 208L807 264L747 264L747 192Z" fill="white"/>
<path fill-rule="evenodd" clip-rule="evenodd" d="M790.172 194L749 194L749 262L805 262L805 208.828L790.172 194ZM791 192L747 192L747 264L807 264L807 208L791 192Z" fill="#9ADAF3"/>
<path d="M791 192L807 208L791 208L791 192Z" fill="#D9F4FF"/>
<path fill-rule="evenodd" clip-rule="evenodd" d="M807 208L791 192L791 208L807 208ZM802.172 206L793 196.828L793 206L802.172 206Z" fill="#9ADAF3"/>
<path d="M759 207H776V209H759V207Z" fill="#FF6F3D"/>
<path d="M778 221H795V223H778V221Z" fill="#AAAAAA"/>
<path d="M778 227H795V229H778V227Z" fill="#AAAAAA"/>
<path d="M759 233H795V235H759V233Z" fill="#AAAAAA"/>
<path d="M759 239H795V241H759V239Z" fill="#AAAAAA"/>
<path d="M759 245H795V247H759V245Z" fill="#AAAAAA"/>
<path d="M759 251H795V253H759V251Z" fill="#AAAAAA"/>
<path d="M764.525 223.068L759 229H776L769.481 222L766.505 225.111L764.525 223.068Z" fill="url(#paint0_linear_104_4264)"/>
<path d="M764 217.5C764 218.881 762.881 220 761.5 220C760.119 220 759 218.881 759 217.5C759 216.119 760.119 215 761.5 215C762.881 215 764 216.119 764 217.5Z" fill="url(#paint1_linear_104_4264)"/>
<path d="M783.332 17.6774L770.365 12.7794L781.088 3.99999L783.332 17.6774Z" fill="#FF6F3D"/>
<path d="M533.001 347.727C533.001 350.213 530.986 352.229 528.501 352.229C526.015 352.229 524 350.213 524 347.727C524 345.241 526.015 343.225 528.501 343.225C530.986 343.225 533.001 345.241 533.001 347.727Z" fill="#5DC0E8"/>
<path d="M604.001 474.727C604.001 477.213 601.986 479.229 599.501 479.229C597.015 479.229 595 477.213 595 474.727C595 472.241 597.015 470.225 599.501 470.225C601.986 470.225 604.001 472.241 604.001 474.727Z" fill="#FF6F3D"/>
<path d="M828.001 69.7268C828.001 72.2131 825.986 74.2286 823.501 74.2286C821.015 74.2286 819 72.2131 819 69.7268C819 67.2405 821.015 65.225 823.501 65.225C825.986 65.225 828.001 67.2405 828.001 69.7268Z" fill="#95C038"/>
<defs>
<linearGradient id="paint0_linear_104_4264" x1="767.5" y1="222" x2="767.5" y2="229" gradientUnits="userSpaceOnUse">
<stop stop-color="#FF8E3D"/>
<stop offset="1" stop-color="#FF6F3D"/>
</linearGradient>
<linearGradient id="paint1_linear_104_4264" x1="761.5" y1="215" x2="761.5" y2="220" gradientUnits="userSpaceOnUse">
<stop stop-color="#FF8E3D"/>
<stop offset="1" stop-color="#FF6F3D"/>
</linearGradient>
</defs>
</svg>
