<svg width="1100" height="1100" viewBox="0 0 1100 1100" fill="none" xmlns="http://www.w3.org/2000/svg">
<g clip-path="url(#clip0_1043_26600)">
<path opacity="0.2" d="M44.5534 422.819C-14.8511 497.41 -14.8511 602.389 44.5534 676.98L318.806 1021.34C373.85 1090.46 467.331 1117.45 551.477 1088.53L960.05 948.109C1044.22 919.181 1100.45 840.697 1100 752.785L1099.46 714.518C1099.46 668.613 1075.53 662.184 1062.49 655.755C1029.9 649.326 994.102 663.065 973.883 694.252C948.013 726.113 912.563 745.761 873.458 745.761C794.258 745.761 730.054 665.167 730.054 565.75C730.054 466.332 794.258 385.739 873.458 385.739C913.662 385.739 950.002 406.506 976.04 439.962L977.109 439.82C1003.83 469.315 1033.34 478.648 1062.49 469.315C1091.64 459.982 1098.57 437.17 1098.57 387.696L1097.88 345.173C1097.43 258.16 1041.52 180.838 958.255 152.07L551.641 11.581C467.424 -17.5169 373.768 9.44631 318.646 78.6592L44.5534 422.819Z" fill="white"/>
</g>
<defs>
<clipPath id="clip0_1043_26600">
<rect width="1100" height="1100" fill="white"/>
</clipPath>
</defs>
</svg>
