<svg width="27" height="32" viewBox="0 0 27 32" fill="none" xmlns="http://www.w3.org/2000/svg">
<path d="M26.7999 26.9154C26.6498 26.7648 26.4998 26.6142 26.2496 26.4635C26.1996 26.4635 26.0996 26.3631 25.9495 26.3129C25.7994 26.2124 25.6494 26.1622 25.5493 26.0618C25.4493 26.0116 25.3492 25.8609 25.1991 25.7103C25.0491 25.5596 24.949 25.3588 24.849 25.2081C24.7489 25.0073 24.6989 24.8064 24.5989 24.5051C24.4988 24.2038 24.4488 23.8523 24.4488 23.5008C24.2987 23.6514 24.1987 23.9527 24.1987 24.3545C24.1987 24.7562 24.2487 25.2081 24.4488 25.6601C24.6489 26.112 24.949 26.4133 25.3492 26.5137C25.7494 26.6644 26.0496 26.7648 26.2496 26.9154C26.4998 27.0661 26.6498 27.2167 26.6999 27.4176C26.7499 27.6185 26.6498 27.8193 26.3497 28.0202C26.0496 28.221 25.5993 28.4721 24.9991 28.673C24.1487 28.9743 23.4983 29.2254 23.1482 29.4262C22.798 29.6271 22.2478 30.0288 21.5474 30.6314C21.0972 31.0331 20.5469 31.234 20.0467 31.2842C19.4964 31.3344 19.0963 31.1335 18.7461 30.6816C18.3959 30.2799 18.2959 29.6773 18.446 28.8738C18.646 27.3674 18.646 26.2124 18.446 25.3588C18.2459 24.706 18.1958 24.1034 18.3459 23.6012C18.4459 23.0991 18.596 22.7978 18.8461 22.7476C19.0462 22.6471 19.2964 22.848 19.5965 23.2999C19.5965 23.3502 19.6965 23.5008 19.7466 23.6514C19.8466 23.8021 19.8966 23.9527 19.9467 24.003C19.9967 24.0532 20.0967 24.1536 20.1968 24.3042C20.2968 24.4047 20.4469 24.5051 20.597 24.5553C20.747 24.6055 20.9471 24.6558 21.1472 24.6558C21.5474 24.6558 21.8976 24.6055 22.2477 24.4047C22.5479 24.2038 22.798 24.003 22.9481 23.8021C23.0982 23.6012 23.2482 23.3502 23.4483 23.1493C23.5984 22.9484 23.7485 22.848 23.8485 22.7978C23.9986 22.7978 24.0986 22.6471 24.1987 22.3961C24.2987 22.145 24.3988 21.8437 24.3988 21.3918C24.4488 20.99 24.3988 20.4377 24.2987 19.8853C24.0986 18.8308 23.7485 17.726 23.2482 16.4706C22.698 15.2153 22.1477 14.2612 21.4974 13.5582C20.3468 12.3028 19.5465 10.9972 19.1463 9.64135C18.7461 8.23532 18.546 6.92972 18.596 5.82499C18.646 5.02154 18.496 4.11766 18.0958 3.16357C17.5955 2.20948 17.0453 1.50646 16.345 1.00431C15.8947 0.703015 15.3945 0.451939 14.7442 0.251077C14.1439 0.0502154 13.5436 0 12.8933 0C12.143 0 11.4927 0.100431 11.0424 0.401723C10.092 0.903877 9.49169 1.55668 9.14149 2.25969C8.84139 3.01292 8.69129 3.9168 8.69129 4.97132C8.74139 7.33145 8.84139 9.18942 8.99149 10.5452C8.84139 11.1478 8.09099 12.353 6.79039 14.0603C6.54029 14.3114 6.34019 14.6127 6.09009 15.0144C5.88999 15.4161 5.68989 15.7676 5.53979 16.1191C5.38979 16.4204 5.23969 16.9226 5.03959 17.5252C4.83949 18.1278 4.63939 18.5797 4.58939 18.8308C4.48929 19.0316 4.38929 19.2827 4.18919 19.584C3.98909 19.8853 3.88909 20.1364 3.73899 20.4377C3.63889 20.6887 3.58889 21.0402 3.53889 21.3918C3.53889 21.6428 3.53889 21.8939 3.58889 22.0948C3.63889 22.3961 3.73899 22.4965 3.83899 22.3458C4.38929 21.9441 5.03959 22.1952 5.83999 23.0489C6.39019 23.6514 7.39069 25.1077 8.84139 27.3674C8.94149 27.5682 9.09149 27.7691 9.19159 28.0202C9.29159 28.2713 9.44169 28.5726 9.54169 28.9743C9.64179 29.376 9.69179 29.7275 9.69179 30.0288C9.69179 30.3301 9.54169 30.6314 9.29159 30.8825C9.04149 31.1335 8.64129 31.3344 8.14109 31.3846C7.89099 31.4348 7.54079 31.3846 7.14059 31.3344C6.74039 31.234 6.29019 31.1335 5.68989 30.9327C5.08959 30.7318 4.63939 30.6314 4.38929 30.531C3.98909 30.4305 3.38879 30.3301 2.63849 30.1794C1.88809 30.0288 1.38789 29.9284 1.13779 29.8279C0.737587 29.7275 0.537489 29.5769 0.487389 29.376C0.487389 29.1249 0.537488 28.8236 0.787588 28.4219C0.987688 28.0202 1.08769 27.7189 1.08769 27.5682C1.08769 27.4176 1.08769 27.3172 1.08769 27.1665C1.08769 27.0159 1.03769 26.9154 0.987688 26.8652C0.937688 26.815 0.88759 26.6644 0.83759 26.5639C0.78759 26.4133 0.737589 26.3129 0.687489 26.2626C0.487389 25.7605 0.437388 25.409 0.587488 25.2583C0.687488 25.1077 0.937687 25.0575 1.33789 25.0575C1.93809 25.1077 2.43839 25.0073 2.78849 24.8064C3.43879 24.4047 3.58889 23.8021 3.33879 22.8982C3.33879 23.2999 3.28879 23.6012 3.13869 23.8021C2.98859 24.003 2.73849 24.2038 2.38829 24.4549C2.18829 24.5553 1.83809 24.6558 1.33789 24.6558C0.837587 24.6558 0.487389 24.7562 0.337389 24.9068C0.237289 25.0073 0.137289 25.1579 0.137289 25.409C0.137289 25.6098 0.13729 25.8609 0.23729 26.0618C0.28739 26.2626 0.33739 26.5137 0.43739 26.815C0.48739 27.0159 0.487389 27.267 0.487389 27.4176C0.487389 27.5682 0.387389 27.8695 0.187289 28.3717C-0.0128114 28.8738 -0.0628118 29.2756 0.0872882 29.5769C0.137288 29.7275 0.237289 29.8279 0.387388 29.9284C0.487388 30.079 0.687489 30.1292 0.937689 30.2297C1.18779 30.2799 1.43789 30.3803 1.63799 30.3803C1.83809 30.4305 2.13819 30.4807 2.53839 30.531C2.93859 30.5812 3.23879 30.6314 3.43879 30.6816C4.18919 30.8322 5.03959 31.0833 6.04009 31.4348C6.99049 31.7863 7.69089 31.9872 7.99099 31.9872C8.34119 31.9872 8.64129 31.937 8.94149 31.7863C9.24159 31.6357 9.49169 31.4851 9.69179 31.2842C9.89189 31.0833 10.2421 30.9327 10.6423 30.7318C11.0424 30.5812 11.5427 30.4807 12.0429 30.4807C12.293 30.4807 12.6432 30.4305 13.0934 30.4305C13.5436 30.4305 13.8938 30.3803 14.0939 30.3803C15.0944 30.3803 15.8947 30.3803 16.395 30.3803C16.7451 30.3803 17.0453 30.4305 17.2454 30.531C17.4455 30.6314 17.5955 30.7318 17.6456 30.8825C17.6956 31.0331 17.7956 31.1838 17.9457 31.3344C18.0958 31.4851 18.2459 31.6357 18.446 31.7361C18.8962 31.937 19.4464 32.0374 20.0467 31.9872C20.647 31.937 21.0472 31.8366 21.2473 31.6357C21.5974 31.3344 22.0477 30.9327 22.5979 30.4807C23.1482 30.0288 23.6484 29.7275 24.0986 29.4764C24.1987 29.4262 24.3487 29.3258 24.5989 29.2254C24.799 29.1249 24.9991 29.0245 25.1491 28.9241C25.2992 28.8236 25.4993 28.7232 25.6994 28.6228C25.8995 28.5223 26.0996 28.3717 26.2496 28.2713C26.3997 28.1708 26.4998 28.0704 26.6498 27.9198C26.7999 27.7691 26.9 27.6687 26.95 27.518C27 27.6185 27 27.4678 27 27.3172C27 27.2167 26.9 27.0661 26.7999 26.9154ZM17.2454 9.59114C17.2954 9.59114 17.2954 9.54092 17.2954 9.54092L17.3454 9.59114C17.3955 9.64135 17.3955 9.69157 17.4455 9.69157C17.4955 9.74179 17.4955 9.792 17.5455 9.84222C17.5955 9.89243 17.6456 9.94265 17.6956 9.99286C17.7456 10.0431 17.8457 10.0933 17.9457 10.0933C18.0458 10.0933 18.1458 10.1435 18.1958 10.1937C18.2459 10.2439 18.2959 10.2942 18.2959 10.3946C18.2959 10.5452 18.2959 10.6457 18.2459 10.7461C18.1958 10.8465 18.0958 10.8967 17.9957 10.8967C17.7956 10.8465 17.5455 10.6457 17.2954 10.3444C17.1453 10.0431 17.0953 9.792 17.2454 9.59114ZM15.0443 2.6112C15.0944 2.51077 15.1444 2.46055 15.1444 2.41034C15.1444 2.36012 15.1944 2.25969 15.1444 2.20948C15.0944 2.15926 15.1444 2.05883 15.1444 1.9584C15.1944 1.85797 15.2444 1.85797 15.3445 1.80775C15.4445 1.80775 15.5946 1.90818 15.7947 2.05883C15.8447 2.05883 15.8947 2.10905 15.9448 2.15926C16.0448 2.20948 16.0948 2.25969 16.0948 2.25969C16.1449 2.30991 16.1449 2.30991 16.1449 2.36012C16.1449 2.41034 16.0448 2.46055 15.9948 2.51077C15.8947 2.51077 15.8447 2.56098 15.7447 2.56098C15.6446 2.56098 15.5946 2.56098 15.5946 2.56098C15.4946 2.6112 15.3945 2.66142 15.3445 2.71163C15.2444 2.76185 15.1944 2.86228 15.1444 2.86228C15.0944 2.91249 15.0443 2.91249 14.9943 2.86228C14.9443 2.81206 14.9443 2.76185 14.9443 2.71163C14.9943 2.76185 14.9943 2.71163 15.0443 2.6112ZM6.49029 16.0187C6.59029 15.9183 6.64039 15.8681 6.69039 15.7676C6.74039 15.7174 6.74039 15.617 6.79039 15.5166C6.84049 15.4161 6.84049 15.3157 6.89049 15.3157C6.89049 15.2655 6.94049 15.2655 6.99049 15.2655C6.99049 15.2655 7.04059 15.2655 7.04059 15.3157C7.04059 15.3659 7.04059 15.3659 7.04059 15.3659V15.4663C7.04059 15.5166 7.04059 15.5166 6.99049 15.5668C6.99049 15.5668 6.99049 15.617 6.94049 15.6672C6.94049 15.7174 6.94049 15.7676 6.89049 15.7676C6.84049 15.8681 6.79039 16.0187 6.69039 16.0689C6.59029 16.1694 6.54029 16.2196 6.49029 16.1694C6.39019 16.2196 6.39019 16.1694 6.49029 16.0187ZM17.9457 25.7605C18.0458 26.3631 18.0958 26.815 18.0458 27.0661C18.0458 27.4678 17.9457 27.97 17.7956 28.673C17.6456 29.376 17.5955 29.8279 17.5455 30.0288C17.2954 30.0288 17.1453 29.9284 17.0953 29.7275C17.0453 29.5769 17.0953 29.3258 17.1954 29.0747C17.4455 28.2713 17.5955 27.7189 17.5955 27.4176C17.5955 26.8652 17.5455 26.5639 17.3955 26.4635C17.2454 26.3631 17.0453 26.5639 16.7952 27.0159C16.2949 27.8695 15.2444 28.3717 13.6437 28.5726C12.243 28.7734 11.2425 28.5726 10.6923 27.9198C10.5922 27.8193 10.4422 27.8193 10.3421 27.8695C10.2421 27.9198 10.142 27.97 10.092 28.0202C10.092 28.0202 10.092 28.0704 10.142 28.1206C10.192 28.1708 10.2421 28.221 10.2921 28.3215C10.3921 28.4219 10.4422 28.5223 10.4922 28.6228C10.9424 29.4262 10.8924 29.9786 10.3921 30.2799C10.3921 29.7275 10.3421 29.3258 10.2921 29.0245C10.192 28.7232 10.042 28.4219 9.79189 28.0704C9.54169 27.7189 9.39169 27.4678 9.29159 27.267C9.64179 27.2167 9.89189 27.1163 10.092 26.8652C10.2921 26.6142 10.3421 26.3631 10.3421 26.112C10.3421 25.8609 10.2421 25.6098 10.042 25.409C9.94189 25.3086 9.39169 24.8566 8.39119 24.0532C7.39069 23.2497 6.79039 22.6974 6.54029 22.4463C6.49029 22.3961 6.34019 22.2956 6.09009 22.0948C5.83999 21.8939 5.68989 21.7433 5.63989 21.5926C5.08959 20.3874 5.03959 19.3831 5.43979 18.6299L5.48979 18.5295C5.53979 18.5295 5.53979 18.6299 5.48979 18.8308C5.43979 19.1823 5.38979 19.4836 5.43979 19.8351C5.48979 20.5883 5.68989 21.1407 6.09009 21.5424C6.34019 21.7935 6.49029 21.7935 6.59029 21.4922C6.64039 21.3918 6.69039 21.0402 6.69039 20.4377C6.69039 19.8351 6.69039 19.4334 6.74039 19.1823C6.84049 18.4793 7.14059 17.6758 7.59079 16.6715C8.04099 15.6672 8.44119 15.1148 8.69129 15.0646C8.49119 14.7131 8.39119 14.3616 8.49119 13.9097C8.59129 13.5079 8.69129 13.1564 8.84139 12.8551C8.99149 12.5538 9.19159 12.2526 9.34159 11.8508C9.54169 11.4491 9.59179 11.1478 9.59179 10.8465C9.59179 10.7461 9.59179 10.6959 9.59179 10.6457C9.64179 10.5452 9.79189 10.6457 10.042 11.0474C10.5422 11.8006 10.8924 12.2023 11.1425 12.353C11.3926 12.5036 11.6928 12.5036 11.9929 12.353C12.293 12.2023 12.6932 11.9513 13.1935 11.5998C13.6437 11.2482 14.0439 10.9972 14.394 10.7963C14.4441 10.7963 14.4941 10.7461 14.5441 10.6959C14.6442 10.6457 14.6942 10.6457 14.7442 10.5954C14.7942 10.5954 14.8442 10.5452 14.8943 10.495C14.9443 10.4448 14.9943 10.4448 15.0443 10.3946C15.0944 10.3946 15.0944 10.3444 15.1444 10.2942C15.1944 10.2439 15.1944 10.2439 15.1944 10.1937C15.1944 10.1435 15.1944 10.1435 15.1944 10.0933C15.1944 9.99286 15.1444 9.94265 15.0443 9.89243C14.9443 9.89243 14.8442 9.89243 14.7442 9.94265C14.5941 9.99286 14.4441 10.0933 14.294 10.1435C14.1439 10.2439 13.9438 10.3444 13.7437 10.4448C13.5436 10.5452 13.3435 10.6457 13.1434 10.7461C12.9433 10.8465 12.7433 10.947 12.4931 10.9972C12.293 11.0474 12.0429 11.0976 11.8428 11.1478C11.3426 11.1478 10.9424 11.0474 10.6423 10.7461C10.4422 10.5452 10.3421 10.4448 10.3421 10.3946C10.3421 10.3444 10.3921 10.3444 10.4922 10.3444C11.1425 10.4448 11.5927 10.4448 11.8928 10.3946C12.193 10.3444 12.5932 10.1937 13.1434 9.99286C13.2435 9.94265 13.5436 9.84222 13.9438 9.64135C14.394 9.44049 14.6942 9.34006 14.9443 9.23963C15.0944 9.18942 15.1944 9.1392 15.2444 9.08899C15.2945 8.98855 15.2945 8.93834 15.2945 8.88812C15.2945 8.83791 15.2444 8.78769 15.1944 8.73748C15.0443 8.68726 14.9443 8.73748 14.8442 8.88812C14.7942 8.98855 14.6441 9.08899 14.4941 9.18942C14.294 9.28985 14.1439 9.39028 13.9938 9.44049C13.8438 9.49071 13.6437 9.54092 13.3936 9.64135C13.1434 9.69157 12.9934 9.74179 12.9934 9.792C12.3431 9.99286 11.7428 10.0933 11.1925 10.0431C10.9424 10.0431 10.7423 9.99286 10.5422 9.94265C10.3921 9.89243 10.2921 9.792 10.192 9.69157C10.142 9.59114 10.042 9.49071 9.89189 9.34006C9.74179 9.18942 9.59179 9.08899 9.44169 8.98855C9.34159 8.93834 9.29159 8.83791 9.29159 8.68726C9.34159 8.53662 9.39169 8.38597 9.54169 8.18511C9.54169 8.18511 9.69179 8.08468 9.89189 7.98425C10.142 7.8336 10.2921 7.68295 10.3921 7.58252C10.4922 7.43188 10.6923 7.23102 10.9424 7.08037C10.9424 7.03015 10.9424 6.87951 10.9924 6.67865C10.9924 6.47779 10.9424 6.22671 10.8424 5.97563C10.7423 5.72455 10.5422 5.62412 10.3421 5.62412C10.042 5.62412 9.84189 5.67434 9.74179 5.8752C9.64179 6.07606 9.59179 6.27692 9.59179 6.528C9.59179 6.77908 9.64179 6.97994 9.74179 7.13059C9.84189 7.28123 9.94189 7.38166 10.042 7.38166C10.192 7.38166 10.192 7.43188 10.142 7.53231C10.092 7.68295 9.99189 7.73317 9.84189 7.78339C9.74179 7.78339 9.69179 7.73317 9.54169 7.53231C9.44169 7.33145 9.34159 7.13059 9.29159 6.87951C9.24159 6.62843 9.24159 6.37735 9.24159 6.22671C9.24159 5.8752 9.34159 5.52369 9.54169 5.17218C9.69179 4.82068 9.94189 4.67003 10.2921 4.67003C10.6423 4.67003 10.8924 4.87089 11.0925 5.27262C11.2926 5.67434 11.3926 6.22671 11.3926 6.87951C11.4426 6.97994 11.5427 6.97994 11.6928 6.97994C11.8428 6.97994 12.0429 6.92972 12.293 6.97994C12.5432 6.97994 12.6932 7.08037 12.7933 7.1808C12.7933 7.1808 12.7933 7.08037 12.7933 6.92972C12.5932 5.42326 13.0934 4.61982 14.394 4.51938C14.5941 4.5696 14.7442 4.61982 14.8943 4.67003C15.0443 4.72025 15.1444 4.82068 15.2945 4.92111C15.4445 5.02154 15.5446 5.2224 15.6446 5.47348C15.7447 5.72455 15.8447 6.02585 15.8947 6.37735V7.03015C15.8947 7.43188 15.7947 7.63274 15.6446 7.68295C15.3945 7.78339 15.1944 7.78339 15.0944 7.68295C14.9943 7.58252 14.9943 7.43188 15.1444 7.23102C15.2444 6.92972 15.2444 6.57822 15.0944 6.17649C14.9443 5.77477 14.6442 5.62412 14.1939 5.62412C13.8938 5.62412 13.6937 5.77477 13.5436 6.12628C13.3936 6.42757 13.3435 6.72886 13.3936 7.03015C13.4436 7.33145 13.4936 7.48209 13.5937 7.48209C13.6437 7.48209 13.8938 7.58252 14.244 7.78339C14.5941 7.98425 14.8442 8.08468 15.0443 8.08468C15.4946 8.18511 15.7447 8.33575 15.8447 8.53662C15.8947 8.73748 15.8947 9.03877 15.7447 9.44049C15.6446 9.84222 15.5946 10.1435 15.6446 10.3946C15.6946 10.6457 15.7947 10.8967 15.8947 11.0976C16.0448 11.2985 16.1449 11.4993 16.2949 11.7002C16.445 11.901 16.5951 12.2023 16.7952 12.7045C16.9953 13.2066 17.1954 13.8092 17.3454 14.5625C17.3454 14.5625 17.3955 14.6127 17.4955 14.7131C17.5955 14.7633 17.6456 14.8638 17.7456 14.9642C17.8457 15.0646 17.8957 15.2153 18.0458 15.4161C18.1458 15.617 18.2459 15.8681 18.3959 16.2196C18.496 16.5711 18.646 16.9728 18.7461 17.475C18.8962 18.0273 18.9462 18.6801 18.9462 19.3831C18.9462 20.1364 18.9962 20.5883 19.0963 20.8896C19.1963 21.1407 19.3964 21.2913 19.7966 21.2411C20.2468 21.2411 20.5469 20.99 20.697 20.4879C21.0972 19.0818 20.747 17.4247 19.7466 15.5166C19.3464 14.7633 18.9962 14.2612 18.7461 14.0101C19.1463 14.2612 19.5965 14.7131 20.0467 15.3659C20.4969 16.0187 20.747 16.6213 20.8971 17.2239C20.8971 17.2741 20.9471 17.4247 20.9972 17.6758C21.0472 17.9269 21.0972 18.0775 21.0972 18.1278C21.0972 18.178 21.1472 18.2784 21.1472 18.4793C21.1973 18.6801 21.1973 18.8308 21.1973 18.881C21.1973 18.9312 21.1973 19.0818 21.1973 19.2325C21.1973 19.3831 21.1973 19.5338 21.1973 19.6342C21.1973 19.7346 21.1472 19.8351 21.1472 20.0359C21.1472 20.1866 21.0972 20.3372 21.0472 20.4879C20.9972 20.6385 20.9471 20.7892 20.8971 20.99C21.5474 21.2913 21.8976 21.5424 21.8976 21.7433C21.6475 21.5424 21.2973 21.3918 20.8471 21.3415C20.3969 21.2913 19.9467 21.3415 19.5465 21.5424C19.1463 21.7433 18.9462 22.0446 18.9462 22.4965C18.496 22.4965 18.1958 22.5969 18.0458 22.7978C17.7956 23.0991 17.6456 23.551 17.6456 24.0532C17.8457 24.5553 17.8457 25.1579 17.9457 25.7605ZM10.6423 6.32714C10.5922 6.32714 10.5922 6.27692 10.5422 6.22671C10.5422 6.12628 10.5922 6.07606 10.6923 6.12628C10.7423 6.12628 10.8424 6.22671 10.8924 6.37735C10.9924 6.528 10.9924 6.67865 10.9924 6.87951C10.9924 6.92972 10.9924 6.92972 10.9424 6.92972C10.7923 6.92972 10.7423 6.82929 10.7923 6.57822C10.7923 6.42757 10.7423 6.32714 10.6423 6.32714ZM15.2444 6.57822L15.1944 6.62843C15.0944 6.67865 15.0443 6.67865 15.0443 6.67865C14.9943 6.37735 14.8943 6.17649 14.7442 6.12628L14.6942 6.07606C14.5941 6.02585 14.6442 5.97563 14.7942 5.92542C14.8442 5.92542 14.8943 5.92542 14.9443 5.97563C14.9943 6.02585 15.0944 6.07606 15.1444 6.17649C15.1944 6.32714 15.2444 6.47779 15.2444 6.57822Z" fill="black"/>
<path d="M11.0938 7.63243C11.0938 7.68264 11.1437 7.73286 11.1937 7.73286C11.2437 7.73286 11.2938 7.68264 11.3438 7.58221C11.3938 7.48178 11.4939 7.38135 11.5939 7.38135H11.3938C11.2437 7.38135 11.0938 7.48178 11.0938 7.63243Z" fill="black"/>
<path d="M12.6445 7.43208C12.7446 7.38187 12.8446 7.43208 12.9447 7.53251C13.0447 7.63295 13.0948 7.68316 13.1448 7.63295C13.1948 7.58273 13.2448 7.53251 13.1948 7.4823C13.1448 7.28144 12.9447 7.28144 12.6445 7.43208Z" fill="black"/>
</svg>
