<svg width="224" height="120" viewBox="0 0 224 120" fill="none" xmlns="http://www.w3.org/2000/svg">
<path d="M87.0288 59.5748H76.3792L74.3205 65.6188H69.4062L78.2934 40.4799H85.681L94.5242 65.6188H89.1925L87.0288 59.5748ZM85.681 55.404L82.1761 44.7793H81.5021L77.7006 55.404H85.681Z" fill="#142C67"/>
<path d="M113.628 45.0234H105.418V65.6188H100.699V45.0234H92.1388V40.4799H113.628V45.0234Z" fill="#142C67"/>
<path d="M126.544 56.6981C126.126 56.3191 125.578 56.1336 125.018 56.1336H121.768V65.6188H117.116V40.4799H128.979C133.353 40.4799 136.852 41.9049 136.852 47.8616C136.852 52.9501 134.133 54.4212 130.917 54.8553C134.204 57.7493 136.39 61.45 138.519 65.6188H132.732C130.652 61.753 128.843 58.7823 126.544 56.6981ZM121.768 52.0596H127.574C130.743 52.0596 131.652 51.1036 131.652 48.3399C131.652 47.1681 131.202 45.927 130.573 45.3964C129.944 44.8437 128.874 44.7131 127.574 44.7131H121.768V52.0596Z" fill="#142C67"/>
<path d="M142.182 40.4799H147.189V44.7131H142.182V40.4799ZM142.182 48.6478H147.189V65.6188H142.182V48.6478Z" fill="#142C67"/>
<path d="M163.653 66.1826C159.427 66.1826 156.523 65.6533 154.377 63.3318C152.253 60.9882 151.719 57.1286 151.719 53.0825C151.719 47.3669 152.338 43.8567 155.972 41.4224C159.597 39.2377 166.18 40.0156 170.3 40.8258L169.37 45.2698C167.748 44.7131 165.878 44.2695 163.841 44.2695C157.035 44.1068 156.743 47.9866 156.743 52.4585C156.743 55.0674 156.776 58.1557 158.099 59.7255C159.421 61.2953 161.312 61.7053 163.653 61.7053C165.938 61.7053 167.456 61.2468 169.37 60.9094L170.3 65.3926C168.974 65.8807 166.375 66.1826 163.653 66.1826Z" fill="#142C67"/>
<path d="M173.456 64.9377L174.526 60.9094C176.959 61.6312 186.741 63.3756 186.741 58.7671C186.741 55.0328 181.562 55.2134 179.109 54.8986C175.364 54.2954 173.019 52.0056 173.019 47.9405C173.019 45.3979 173.861 43.4154 175.357 42.1109C179.008 38.9193 187.913 40.0574 191.283 41.094L190.255 45.3802C188.794 44.7731 184.973 44.2529 182.088 44.3633C180.334 44.4303 178.063 45.2357 178.063 47.3664C178.121 49.6782 180.167 50.3131 182.088 50.5792C184.138 50.8407 186.537 50.9225 188.393 51.932C191.021 53.3616 191.999 55.8542 191.999 58.7671C191.978 61.1329 190.996 63.0953 189.37 64.444C186.232 67.0477 176.936 66.651 173.456 64.9377Z" fill="#142C67"/>
<path d="M43.6465 55.3294L60.22 40.7002H70.8403L65.6044 55.3294H43.6465Z" fill="#A42138"/>
<path d="M43.6465 55.3294L60.22 40.7002H70.8403L65.6044 55.3294H43.6465Z" fill="#A42138"/>
<path d="M39.2566 59.2043L32 65.6096H61.9249L64.2175 59.2043H39.2566Z" fill="#F3BE48"/>
<path d="M36.4883 79.8921L33.8635 72.8964H33.8212C33.8706 73.4506 33.8953 74.1092 33.8953 74.8721V79.8921H33.0645V72.0004H34.4192L36.8694 78.5103H36.9117L39.383 72.0004H40.7272V79.8921H39.8276V74.8073C39.8276 74.2243 39.8523 73.591 39.9016 72.9072H39.8593L37.2133 79.8921H36.4883Z" fill="#142C67"/>
<path d="M49.1268 79.8921L48.1636 77.3821H45.0626L44.11 79.8921H43.1998L46.2585 71.968H47.0153L50.0582 79.8921H49.1268ZM47.8832 76.5562L46.9835 74.111C46.8671 73.8015 46.7472 73.4218 46.6237 72.972C46.5461 73.3175 46.4349 73.6971 46.2903 74.111L45.3801 76.5562H47.8832Z" fill="#142C67"/>
<path d="M58.1191 79.8921H57.0607L54.2401 76.065L53.4304 76.7991V79.8921H52.5308V72.0004H53.4304V75.9139L56.939 72.0004H58.0026L54.891 75.428L58.1191 79.8921Z" fill="#142C67"/>
<path d="M64.9099 79.8921H60.597V72.0004H64.9099V72.8155H61.4966V75.3579H64.7035V76.1676H61.4966V79.0716H64.9099V79.8921Z" fill="#142C67"/>
<path d="M74.2315 75.9462L76.2954 72.0004H77.2691L74.6866 76.8315V79.8921H73.7764V76.8747L71.1993 72.0004H72.1836L74.2315 75.9462Z" fill="#142C67"/>
<path d="M86.4625 75.9355C86.4625 77.1986 86.1485 78.1918 85.5205 78.9151C84.8961 79.6384 84.0264 80.0001 82.9116 80.0001C81.7721 80.0001 80.8918 79.6456 80.2709 78.9367C79.6535 78.2242 79.3448 77.2202 79.3448 75.9247C79.3448 74.64 79.6553 73.6449 80.2762 72.9396C80.8971 72.2307 81.7791 71.8762 82.9222 71.8762C84.0335 71.8762 84.9014 72.2361 85.5258 72.9558C86.1503 73.6755 86.4625 74.6687 86.4625 75.9355ZM80.2974 75.9355C80.2974 77.0042 80.5196 77.8157 80.9642 78.3699C81.4122 78.9205 82.0614 79.1958 82.9116 79.1958C83.7689 79.1958 84.4163 78.9205 84.8537 78.3699C85.2912 77.8193 85.5099 77.0078 85.5099 75.9355C85.5099 74.8739 85.2912 74.0696 84.8537 73.5226C84.4198 72.972 83.776 72.6967 82.9222 72.6967C82.0649 72.6967 81.4122 72.9738 80.9642 73.528C80.5196 74.0786 80.2974 74.8811 80.2974 75.9355Z" fill="#142C67"/>
<path d="M95.4442 72.0004V77.1068C95.4442 78.0065 95.1778 78.7136 94.6451 79.2282C94.1124 79.7428 93.3803 80.0001 92.449 80.0001C91.5176 80.0001 90.7961 79.741 90.2845 79.2228C89.7765 78.7046 89.5225 77.9921 89.5225 77.0852V72.0004H90.4221V77.15C90.4221 77.8085 90.5985 78.3141 90.9513 78.6668C91.3041 79.0195 91.8227 79.1958 92.5072 79.1958C93.1598 79.1958 93.6626 79.0195 94.0154 78.6668C94.3682 78.3105 94.5446 77.8013 94.5446 77.1392V72.0004H95.4442Z" fill="#142C67"/>
<path d="M99.806 76.6102V79.8921H98.9064V72.0004H101.028C101.977 72.0004 102.678 72.1857 103.129 72.5564C103.584 72.927 103.812 73.4848 103.812 74.2297C103.812 75.2733 103.293 75.9786 102.256 76.3457L104.357 79.8921H103.293L101.42 76.6102H99.806ZM99.806 75.8221H101.039C101.674 75.8221 102.14 75.6943 102.436 75.4388C102.732 75.1797 102.881 74.7929 102.881 74.2783C102.881 73.7565 102.729 73.3804 102.426 73.1501C102.126 72.9198 101.642 72.8047 100.976 72.8047H99.806V75.8221Z" fill="#142C67"/>
<path d="M116.102 79.8921L115.139 77.3821H112.038L111.086 79.8921H110.175L113.234 71.968H113.991L117.034 79.8921H116.102ZM114.859 76.5562L113.959 74.111C113.843 73.8015 113.723 73.4218 113.599 72.972C113.522 73.3175 113.411 73.6971 113.266 74.111L112.356 76.5562H114.859Z" fill="#142C67"/>
<path d="M119.506 79.8921V72.0004H120.406V79.8921H119.506Z" fill="#142C67"/>
<path d="M124.842 76.6102V79.8921H123.942V72.0004H126.064C127.013 72.0004 127.714 72.1857 128.165 72.5564C128.62 72.927 128.848 73.4848 128.848 74.2297C128.848 75.2733 128.329 75.9786 127.292 76.3457L129.393 79.8921H128.329L126.456 76.6102H124.842ZM124.842 75.8221H126.075C126.71 75.8221 127.176 75.6943 127.472 75.4388C127.768 75.1797 127.917 74.7929 127.917 74.2783C127.917 73.7565 127.765 73.3804 127.462 73.1501C127.162 72.9198 126.678 72.8047 126.012 72.8047H124.842V75.8221Z" fill="#142C67"/>
<path d="M136.957 74.2999C136.957 75.0988 136.688 75.7141 136.152 76.146C135.619 76.5742 134.856 76.7883 133.861 76.7883H132.951V79.8921H132.051V72.0004H134.057C135.99 72.0004 136.957 72.7669 136.957 74.2999ZM132.951 76.0002H133.76C134.558 76.0002 135.134 75.8689 135.491 75.6062C135.847 75.3435 136.025 74.9224 136.025 74.3431C136.025 73.8213 135.858 73.4326 135.522 73.1771C135.187 72.9216 134.665 72.7939 133.956 72.7939H132.951V76.0002Z" fill="#142C67"/>
<path d="M146.706 75.9355C146.706 77.1986 146.392 78.1918 145.764 78.9151C145.139 79.6384 144.27 80.0001 143.155 80.0001C142.015 80.0001 141.135 79.6456 140.514 78.9367C139.897 78.2242 139.588 77.2202 139.588 75.9247C139.588 74.64 139.898 73.6449 140.519 72.9396C141.14 72.2307 142.022 71.8762 143.165 71.8762C144.277 71.8762 145.144 72.2361 145.769 72.9558C146.393 73.6755 146.706 74.6687 146.706 75.9355ZM140.54 75.9355C140.54 77.0042 140.763 77.8157 141.207 78.3699C141.655 78.9205 142.304 79.1958 143.155 79.1958C144.012 79.1958 144.659 78.9205 145.097 78.3699C145.534 77.8193 145.753 77.0078 145.753 75.9355C145.753 74.8739 145.534 74.0696 145.097 73.5226C144.663 72.972 144.019 72.6967 143.165 72.6967C142.308 72.6967 141.655 72.9738 141.207 73.528C140.763 74.0786 140.54 74.8811 140.54 75.9355Z" fill="#142C67"/>
<path d="M150.745 76.6102V79.8921H149.845V72.0004H151.967C152.916 72.0004 153.616 72.1857 154.068 72.5564C154.523 72.927 154.751 73.4848 154.751 74.2297C154.751 75.2733 154.232 75.9786 153.195 76.3457L155.296 79.8921H154.232L152.359 76.6102H150.745ZM150.745 75.8221H151.978C152.613 75.8221 153.078 75.6943 153.375 75.4388C153.671 75.1797 153.819 74.7929 153.819 74.2783C153.819 73.7565 153.668 73.3804 153.364 73.1501C153.064 72.9198 152.581 72.8047 151.914 72.8047H150.745V75.8221Z" fill="#142C67"/>
<path d="M160.335 79.8921H159.435V72.8155H156.985V72.0004H162.785V72.8155H160.335V79.8921Z" fill="#142C67"/>
<path d="M170.487 79.8921H169.588V72.0004H173.901V72.8155H170.487V75.7033H173.694V76.5184H170.487V79.8921Z" fill="#142C67"/>
<path d="M176.596 79.8921V72.0004H177.495V79.0608H180.908V79.8921H176.596Z" fill="#142C67"/>
<path d="M185.604 75.9462L187.668 72.0004H188.641L186.059 76.8315V79.8921H185.149V76.8747L182.571 72.0004H183.556L185.604 75.9462Z" fill="#142C67"/>
</svg>
