<svg width="224" height="120" viewBox="0 0 224 120" fill="none" xmlns="http://www.w3.org/2000/svg">
<path d="M76.8955 61.7563V58.1167H80.9635C81.9207 58.1167 82.7503 57.9355 83.4522 57.5732C84.1701 57.2108 84.7205 56.6751 85.1033 55.9661C85.4862 55.2413 85.6776 54.3668 85.6776 53.3427C85.6776 52.3343 85.4782 51.4835 85.0794 50.7903C84.6965 50.0813 84.1541 49.5456 83.4522 49.1832C82.7503 48.8208 81.9207 48.6396 80.9635 48.6396H76.704V45H80.9874C82.2956 45 83.5 45.2048 84.6008 45.6145C85.7016 46.0084 86.6587 46.5756 87.4724 47.3161C88.286 48.0566 88.9161 48.939 89.3628 49.9631C89.8254 50.9872 90.0567 52.1216 90.0567 53.3664C90.0567 54.6268 89.8254 55.7691 89.3628 56.7932C88.9161 57.8174 88.286 58.6997 87.4724 59.4402C86.6587 60.1808 85.7016 60.7558 84.6008 61.1655C83.516 61.5594 82.3275 61.7563 81.0353 61.7563H76.8955ZM74 61.7563V45H78.2834V61.7563H74Z" fill="#15135F"/>
<path d="M92.1564 61.7563L98.737 45H102.877L109.386 61.7563H104.911L100.005 47.6706H101.561L96.5355 61.7563H92.1564ZM96.1526 58.8258V55.4698H105.509V58.8258H96.1526Z" fill="#15135F"/>
<path d="M114.487 61.7563V45.1182H118.77V61.7563H114.487ZM109.294 48.6396V45H123.963V48.6396H109.294Z" fill="#15135F"/>
<path d="M123.877 61.7563L130.458 45H134.598L141.106 61.7563H136.632L131.726 47.6706H133.281L128.256 61.7563H123.877ZM127.873 58.8258V55.4698H137.23V58.8258H127.873Z" fill="#15135F"/>
<path d="M143.891 61.7563V45H148.175V61.7563H143.891ZM147.289 55.4934V51.9247H155.688V55.4934H147.289ZM147.289 48.5687V45H156.071V48.5687H147.289Z" fill="#15135F"/>
<path d="M159.483 61.7563V45H163.766V61.7563H159.483Z" fill="#15135F"/>
<path d="M167.97 61.7563V45H172.254V61.7563H167.97ZM171.368 61.7563V58.1876H180.557V61.7563H171.368ZM171.368 54.9498V51.4757H179.696V54.9498H171.368ZM171.368 48.5687V45H180.414V48.5687H171.368Z" fill="#15135F"/>
<path d="M184.17 61.7563V45H188.453V61.7563H184.17ZM187.568 61.7563V58.1167H195.751V61.7563H187.568Z" fill="#15135F"/>
<path d="M201.839 61.7563V58.1167H205.907C206.864 58.1167 207.694 57.9355 208.395 57.5732C209.113 57.2108 209.664 56.6751 210.047 55.9661C210.429 55.2413 210.621 54.3668 210.621 53.3427C210.621 52.3343 210.421 51.4835 210.023 50.7903C209.64 50.0813 209.097 49.5456 208.395 49.1832C207.694 48.8208 206.864 48.6396 205.907 48.6396H201.647V45H205.931C207.239 45 208.443 45.2048 209.544 45.6145C210.645 46.0084 211.602 46.5756 212.416 47.3161C213.229 48.0566 213.859 48.939 214.306 49.9631C214.769 50.9872 215 52.1216 215 53.3664C215 54.6268 214.769 55.7691 214.306 56.7932C213.859 57.8174 213.229 58.6997 212.416 59.4402C211.602 60.1808 210.645 60.7558 209.544 61.1655C208.459 61.5594 207.271 61.7563 205.979 61.7563H201.839ZM198.943 61.7563V45H203.227V61.7563H198.943Z" fill="#15135F"/>
<path d="M77.7265 74.8861V67.1483H79.0515V74.8861H77.7265ZM75.0996 68.1155V66.9207H81.6785V68.1155H75.0996Z" fill="#00883A"/>
<path d="M83.1779 74.8861V66.9207H84.5029V74.8861H83.1779ZM84.0881 74.8861V73.6913H88.6046V74.8861H84.0881ZM84.0881 71.3927V70.2434H88.2129V71.3927H84.0881ZM84.0881 68.1155V66.9207H88.547V68.1155H84.0881Z" fill="#00883A"/>
<path d="M93.8259 74.9999C93.2421 74.9999 92.7006 74.8975 92.2013 74.6927C91.7098 74.4803 91.2796 74.1882 90.9109 73.8165C90.5422 73.4372 90.258 73.001 90.0583 72.5079C89.8586 72.0072 89.7588 71.4724 89.7588 70.9034C89.7588 70.3344 89.8586 69.8034 90.0583 69.3103C90.258 68.8096 90.5422 68.3734 90.9109 68.0017C91.2796 67.63 91.7098 67.3379 92.2013 67.1255C92.7006 66.9131 93.2421 66.8069 93.8259 66.8069C94.4788 66.8069 95.0434 66.9131 95.5196 67.1255C95.9958 67.3379 96.4183 67.6262 96.787 67.9903L95.8883 68.8779C95.6502 68.62 95.3583 68.4189 95.0126 68.2748C94.6747 68.1307 94.2791 68.0586 93.8259 68.0586C93.4265 68.0586 93.0616 68.1269 92.7313 68.2634C92.4011 68.4 92.113 68.5972 91.8672 68.8551C91.6291 69.1055 91.4448 69.4051 91.3142 69.7541C91.1836 70.1031 91.1183 70.4862 91.1183 70.9034C91.1183 71.3206 91.1836 71.7037 91.3142 72.0527C91.4448 72.4017 91.6291 72.7051 91.8672 72.963C92.113 73.2134 92.4011 73.4068 92.7313 73.5434C93.0616 73.6799 93.4265 73.7482 93.8259 73.7482C94.3175 73.7482 94.7323 73.6761 95.0702 73.532C95.4159 73.3803 95.7078 73.1755 95.9459 72.9175L96.8446 73.8051C96.4759 74.1768 96.0419 74.4689 95.5426 74.6813C95.0434 74.8937 94.4711 74.9999 93.8259 74.9999Z" fill="#00883A"/>
<path d="M98.3725 74.8861V66.9207H99.6975V74.8861H98.3725ZM103.5 74.8861V66.9207H104.825V74.8861H103.5ZM99.2827 71.3586V70.1638H103.788V71.3586H99.2827Z" fill="#00883A"/>
<path d="M106.921 74.8861V66.9207H107.842L108.246 68.4227V74.8861H106.921ZM112.509 74.8861L107.681 68.6617L107.842 66.9207L112.67 73.1451L112.509 74.8861ZM112.509 74.8861L112.105 73.4865V66.9207H113.43V74.8861H112.509Z" fill="#00883A"/>
<path d="M119.235 74.9999C118.659 74.9999 118.121 74.8937 117.622 74.6813C117.123 74.4689 116.685 74.1768 116.308 73.8051C115.932 73.4258 115.636 72.9896 115.421 72.4965C115.214 71.9958 115.11 71.461 115.11 70.892C115.11 70.3231 115.214 69.792 115.421 69.2989C115.636 68.8058 115.928 68.3734 116.297 68.0017C116.673 67.6224 117.107 67.3303 117.599 67.1255C118.098 66.9131 118.636 66.8069 119.212 66.8069C119.788 66.8069 120.322 66.9131 120.813 67.1255C121.313 67.3303 121.75 67.6224 122.127 68.0017C122.503 68.3734 122.795 68.8096 123.003 69.3103C123.218 69.8034 123.325 70.3344 123.325 70.9034C123.325 71.4724 123.218 72.0072 123.003 72.5079C122.795 73.001 122.503 73.4334 122.127 73.8051C121.758 74.1768 121.324 74.4689 120.825 74.6813C120.333 74.8937 119.803 74.9999 119.235 74.9999ZM119.212 73.7482C119.757 73.7482 120.233 73.6268 120.641 73.3841C121.055 73.1413 121.378 72.8075 121.608 72.3827C121.846 71.9503 121.966 71.4534 121.966 70.892C121.966 70.4748 121.896 70.0955 121.758 69.7541C121.628 69.4051 121.439 69.1055 121.194 68.8551C120.948 68.5972 120.656 68.4 120.318 68.2634C119.988 68.1269 119.619 68.0586 119.212 68.0586C118.674 68.0586 118.198 68.18 117.783 68.4227C117.376 68.6579 117.053 68.9879 116.815 69.4127C116.585 69.8375 116.47 70.3306 116.47 70.892C116.47 71.3093 116.535 71.6962 116.666 72.0527C116.804 72.4017 116.992 72.7013 117.23 72.9517C117.476 73.202 117.768 73.3992 118.106 73.5434C118.444 73.6799 118.812 73.7482 119.212 73.7482Z" fill="#00883A"/>
<path d="M125.018 74.8861V66.9207H126.343V74.8861H125.018ZM125.928 74.8861V73.6913H130.145V74.8861H125.928Z" fill="#00883A"/>
<path d="M134.79 74.9999C134.214 74.9999 133.676 74.8937 133.177 74.6813C132.677 74.4689 132.239 74.1768 131.863 73.8051C131.487 73.4258 131.191 72.9896 130.976 72.4965C130.769 71.9958 130.665 71.461 130.665 70.892C130.665 70.3231 130.769 69.792 130.976 69.2989C131.191 68.8058 131.483 68.3734 131.852 68.0017C132.228 67.6224 132.662 67.3303 133.154 67.1255C133.653 66.9131 134.19 66.8069 134.767 66.8069C135.343 66.8069 135.876 66.9131 136.368 67.1255C136.867 67.3303 137.305 67.6224 137.682 68.0017C138.058 68.3734 138.35 68.8096 138.557 69.3103C138.772 69.8034 138.88 70.3344 138.88 70.9034C138.88 71.4724 138.772 72.0072 138.557 72.5079C138.35 73.001 138.058 73.4334 137.682 73.8051C137.313 74.1768 136.879 74.4689 136.38 74.6813C135.888 74.8937 135.358 74.9999 134.79 74.9999ZM134.767 73.7482C135.312 73.7482 135.788 73.6268 136.195 73.3841C136.61 73.1413 136.933 72.8075 137.163 72.3827C137.401 71.9503 137.52 71.4534 137.52 70.892C137.52 70.4748 137.451 70.0955 137.313 69.7541C137.182 69.4051 136.994 69.1055 136.748 68.8551C136.502 68.5972 136.211 68.4 135.873 68.2634C135.542 68.1269 135.174 68.0586 134.767 68.0586C134.229 68.0586 133.753 68.18 133.338 68.4227C132.931 68.6579 132.608 68.9879 132.37 69.4127C132.14 69.8375 132.024 70.3306 132.024 70.892C132.024 71.3093 132.09 71.6962 132.22 72.0527C132.359 72.4017 132.547 72.7013 132.785 72.9517C133.031 73.202 133.323 73.3992 133.66 73.5434C133.998 73.6799 134.367 73.7482 134.767 73.7482Z" fill="#00883A"/>
<path d="M144.304 74.9999C143.751 74.9999 143.228 74.8937 142.737 74.6813C142.245 74.4689 141.815 74.1768 141.446 73.8051C141.078 73.4258 140.786 72.9896 140.571 72.4965C140.363 71.9958 140.26 71.461 140.26 70.892C140.26 70.3231 140.363 69.792 140.571 69.2989C140.786 68.8058 141.078 68.3734 141.446 68.0017C141.823 67.6224 142.261 67.3303 142.76 67.1255C143.267 66.9131 143.812 66.8069 144.396 66.8069C145.033 66.8069 145.625 66.9283 146.17 67.171C146.716 67.4138 147.173 67.7589 147.541 68.2065L146.643 69.0941C146.404 68.7603 146.086 68.5062 145.686 68.3317C145.287 68.1496 144.857 68.0586 144.396 68.0586C143.843 68.0586 143.355 68.18 142.933 68.4227C142.518 68.6579 142.195 68.9879 141.965 69.4127C141.734 69.8375 141.619 70.3306 141.619 70.892C141.619 71.4534 141.734 71.9503 141.965 72.3827C142.203 72.8075 142.522 73.1413 142.921 73.3841C143.321 73.6268 143.774 73.7482 144.281 73.7482C144.818 73.7482 145.279 73.6534 145.663 73.4637C146.055 73.2665 146.355 72.9782 146.562 72.5989C146.769 72.212 146.873 71.7379 146.873 71.1765L147.703 71.7682H144.258V70.5734H148.244V70.7555C148.244 71.7037 148.071 72.4927 147.726 73.1223C147.388 73.752 146.923 74.2223 146.332 74.5334C145.74 74.8444 145.064 74.9999 144.304 74.9999Z" fill="#00883A"/>
<path d="M151.937 71.6999L148.791 66.9207H150.324L152.778 70.7327H152.063L154.518 66.9207H156.027L152.858 71.6999H151.937ZM151.752 74.8861V70.8806H153.077V74.8861H151.752Z" fill="#00883A"/>
<path d="M162.514 74.9999C161.877 74.9999 161.335 74.8861 160.89 74.6585C160.444 74.431 160.045 74.0972 159.692 73.6572L160.59 72.7696C160.813 73.0882 161.078 73.3386 161.385 73.5206C161.693 73.6951 162.084 73.7823 162.56 73.7823C163.006 73.7823 163.359 73.6913 163.62 73.5092C163.889 73.3272 164.024 73.0768 164.024 72.7582C164.024 72.4927 163.955 72.2765 163.816 72.1096C163.678 71.9427 163.494 71.8062 163.263 71.6999C163.041 71.5862 162.791 71.4875 162.514 71.4041C162.246 71.3131 161.973 71.2144 161.696 71.1082C161.428 70.9944 161.178 70.8541 160.947 70.6872C160.725 70.5203 160.544 70.3041 160.406 70.0386C160.268 69.7731 160.199 69.4355 160.199 69.0258C160.199 68.5555 160.314 68.1572 160.544 67.831C160.782 67.4972 161.101 67.2431 161.5 67.0686C161.9 66.8941 162.345 66.8069 162.837 66.8069C163.367 66.8069 163.839 66.9093 164.254 67.1141C164.677 67.3189 165.018 67.5807 165.28 67.8993L164.381 68.7869C164.15 68.5289 163.909 68.3393 163.655 68.2179C163.409 68.0889 163.125 68.0245 162.802 68.0245C162.403 68.0245 162.088 68.1041 161.858 68.2634C161.635 68.4227 161.524 68.6465 161.524 68.9348C161.524 69.1776 161.593 69.3748 161.731 69.5265C161.869 69.6707 162.05 69.7958 162.272 69.902C162.503 70.0007 162.753 70.0955 163.021 70.1865C163.298 70.2775 163.571 70.38 163.839 70.4938C164.116 70.6075 164.366 70.7555 164.588 70.9375C164.819 71.112 165.003 71.3396 165.141 71.6203C165.28 71.901 165.349 72.2537 165.349 72.6786C165.349 73.3917 165.091 73.9568 164.577 74.3741C164.07 74.7913 163.382 74.9999 162.514 74.9999Z" fill="#00883A"/>
<path d="M167.246 74.8861V66.9207H168.571V74.8861H167.246ZM168.156 74.8861V73.6913H172.673V74.8861H168.156ZM168.156 71.3927V70.2434H172.281V71.3927H168.156ZM168.156 68.1155V66.9207H172.615V68.1155H168.156Z" fill="#00883A"/>
<path d="M175.528 71.5065V70.4255H177.568C177.975 70.4255 178.29 70.3231 178.512 70.1182C178.743 69.9058 178.858 69.6138 178.858 69.242C178.858 68.9082 178.747 68.6276 178.524 68.4C178.301 68.1724 177.986 68.0586 177.579 68.0586H175.528V66.9207H177.637C178.144 66.9207 178.589 67.0231 178.973 67.2279C179.357 67.4252 179.653 67.6983 179.86 68.0472C180.075 68.3886 180.183 68.7793 180.183 69.2193C180.183 69.682 180.075 70.0841 179.86 70.4255C179.653 70.7669 179.357 71.0324 178.973 71.222C178.589 71.4117 178.144 71.5065 177.637 71.5065H175.528ZM174.618 74.8861V66.9207H175.943V74.8861H174.618ZM179.042 74.8861L176.219 71.4268L177.452 70.9831L180.713 74.8861H179.042Z" fill="#00883A"/>
<path d="M184.652 74.8861L181.391 66.9207H182.831L185.377 73.3727H184.87L187.44 66.9207H188.857L185.573 74.8861H184.652Z" fill="#00883A"/>
<path d="M190.589 74.8861V66.9207H191.914V74.8861H190.589Z" fill="#00883A"/>
<path d="M197.9 74.9999C197.316 74.9999 196.775 74.8975 196.276 74.6927C195.784 74.4803 195.354 74.1882 194.985 73.8165C194.617 73.4372 194.332 73.001 194.133 72.5079C193.933 72.0072 193.833 71.4724 193.833 70.9034C193.833 70.3344 193.933 69.8034 194.133 69.3103C194.332 68.8096 194.617 68.3734 194.985 68.0017C195.354 67.63 195.784 67.3379 196.276 67.1255C196.775 66.9131 197.316 66.8069 197.9 66.8069C198.553 66.8069 199.118 66.9131 199.594 67.1255C200.07 67.3379 200.493 67.6262 200.861 67.9903L199.963 68.8779C199.724 68.62 199.433 68.4189 199.087 68.2748C198.749 68.1307 198.353 68.0586 197.9 68.0586C197.501 68.0586 197.136 68.1269 196.806 68.2634C196.475 68.4 196.187 68.5972 195.942 68.8551C195.703 69.1055 195.519 69.4051 195.388 69.7541C195.258 70.1031 195.193 70.4862 195.193 70.9034C195.193 71.3206 195.258 71.7037 195.388 72.0527C195.519 72.4017 195.703 72.7051 195.942 72.963C196.187 73.2134 196.475 73.4068 196.806 73.5434C197.136 73.6799 197.501 73.7482 197.9 73.7482C198.392 73.7482 198.807 73.6761 199.145 73.532C199.49 73.3803 199.782 73.1755 200.02 72.9175L200.919 73.8051C200.55 74.1768 200.116 74.4689 199.617 74.6813C199.118 74.8937 198.545 74.9999 197.9 74.9999Z" fill="#00883A"/>
<path d="M202.677 74.8861V66.9207H204.002V74.8861H202.677ZM203.587 74.8861V73.6913H208.104V74.8861H203.587ZM203.587 71.3927V70.2434H207.712V71.3927H203.587ZM203.587 68.1155V66.9207H208.046V68.1155H203.587Z" fill="#00883A"/>
<path d="M212.094 74.9999C211.456 74.9999 210.914 74.8861 210.469 74.6585C210.023 74.431 209.624 74.0972 209.271 73.6572L210.169 72.7696C210.392 73.0882 210.657 73.3386 210.964 73.5206C211.272 73.6951 211.663 73.7823 212.14 73.7823C212.585 73.7823 212.938 73.6913 213.2 73.5092C213.468 73.3272 213.603 73.0768 213.603 72.7582C213.603 72.4927 213.534 72.2765 213.395 72.1096C213.257 71.9427 213.073 71.8062 212.842 71.6999C212.62 71.5862 212.37 71.4875 212.094 71.4041C211.825 71.3131 211.552 71.2144 211.275 71.1082C211.007 70.9944 210.757 70.8541 210.527 70.6872C210.304 70.5203 210.123 70.3041 209.985 70.0386C209.847 69.7731 209.778 69.4355 209.778 69.0258C209.778 68.5555 209.893 68.1572 210.123 67.831C210.361 67.4972 210.68 67.2431 211.08 67.0686C211.479 66.8941 211.925 66.8069 212.416 66.8069C212.946 66.8069 213.419 66.9093 213.833 67.1141C214.256 67.3189 214.598 67.5807 214.859 67.8993L213.96 68.7869C213.73 68.5289 213.488 68.3393 213.234 68.2179C212.988 68.0889 212.704 68.0245 212.382 68.0245C211.982 68.0245 211.667 68.1041 211.437 68.2634C211.214 68.4227 211.103 68.6465 211.103 68.9348C211.103 69.1776 211.172 69.3748 211.31 69.5265C211.448 69.6707 211.629 69.7958 211.852 69.902C212.082 70.0007 212.332 70.0955 212.6 70.1865C212.877 70.2775 213.15 70.38 213.419 70.4938C213.695 70.6075 213.945 70.7555 214.167 70.9375C214.398 71.112 214.582 71.3396 214.72 71.6203C214.859 71.901 214.928 72.2537 214.928 72.6786C214.928 73.3917 214.671 73.9568 214.156 74.3741C213.649 74.7913 212.961 74.9999 212.094 74.9999Z" fill="#00883A"/>
<path d="M33.627 75V45H41.753V75H33.627ZM35.2245 63.1993V56.5162H53.5642V63.1993H35.2245ZM39.6229 51.977V45H55.9992V51.977H39.6229Z" fill="#367C2B"/>
<path d="M14.1092 75V68.1899H20.4078C23.0061 68.1899 26.3888 67.1209 27.7127 64.6333C29.1155 61.9389 29.1813 58.0312 27.6705 55.3667C26.2323 52.6645 22.8978 51.8101 20.1146 51.8101H13.7714V45H21.3297C23.638 45 25.7633 45.3667 27.7057 46.1001C29.648 46.8054 31.337 47.8209 32.7727 49.1467C34.2083 50.4725 35.3203 52.0522 36.1085 53.8858C36.9248 55.7193 37.333 57.7504 37.333 59.9788C37.333 62.2355 36.9248 64.2807 36.1085 66.1142C35.3203 67.9478 34.2083 69.5275 32.7727 70.8533C31.337 72.1791 29.648 73.2087 27.7057 73.9422C25.7915 74.6474 23.6943 75 21.4142 75H14.1092ZM9 75V45H16.5583V75H9Z" fill="#15135F"/>
<path d="M26.459 56.5247V63.2078H41.8664V56.5247H26.459Z" fill="#367C2B"/>
<rect x="64" y="45" width="2" height="30" fill="#15135F"/>
</svg>
