<svg width="224" height="120" viewBox="0 0 224 120" fill="none" xmlns="http://www.w3.org/2000/svg">
<path fill-rule="evenodd" clip-rule="evenodd" d="M105.162 81.7956C105.162 83.4717 106.521 84.8304 108.197 84.8304C109.873 84.8304 111.232 83.4717 111.232 81.7956V38.2037C111.232 36.5277 109.873 35.1689 108.197 35.1689C106.521 35.1689 105.162 36.5277 105.162 38.2037V81.7956ZM135.066 62.6816C135.066 64.3576 136.425 65.7164 138.101 65.7164C139.777 65.7164 141.136 64.3576 141.136 62.6816V41.3312C141.136 39.6551 139.777 38.2964 138.101 38.2964C136.425 38.2964 135.066 39.6551 135.066 41.3312V62.6816ZM128.266 65.3467C129.942 65.3467 131.301 63.9877 131.301 62.3113C131.301 60.6348 129.942 59.2759 128.266 59.2759C128.24 59.2759 128.214 59.2762 128.187 59.2768V59.2761C121.213 59.3715 115.588 65.0553 115.588 72.0529C115.588 79.11 121.309 84.8309 128.366 84.8309C135.336 84.8309 141.002 79.2508 141.141 72.3144H141.124C141.132 72.2284 141.135 72.1413 141.135 72.0534C141.135 70.377 139.776 69.018 138.1 69.018C136.423 69.018 135.064 70.377 135.064 72.0534C135.064 72.1413 135.068 72.2284 135.076 72.3144H135.062C134.925 75.8982 131.976 78.7613 128.359 78.7613C124.654 78.7613 121.65 75.7579 121.65 72.0529C121.65 68.4051 124.562 65.4374 128.187 65.3466V65.3457C128.214 65.3463 128.24 65.3467 128.266 65.3467ZM65.8141 84.7512C64.138 84.7512 62.7793 83.3924 62.7793 81.7164V56.6784C62.7793 55.0023 64.138 53.6436 65.8141 53.6436C67.4901 53.6436 68.8489 55.0023 68.8489 56.6784V81.7164C68.8489 83.3924 67.4901 84.7512 65.8141 84.7512ZM88.3913 84.831C95.4484 84.831 101.169 79.1101 101.169 72.053C101.169 64.9959 95.4484 59.275 88.3913 59.275C81.3342 59.275 75.6133 64.9959 75.6133 72.053C75.6133 79.1101 81.3342 84.831 88.3913 84.831ZM88.384 78.7615C92.089 78.7615 95.0925 75.758 95.0925 72.053C95.0925 68.348 92.089 65.3446 88.384 65.3446C84.679 65.3446 81.6756 68.348 81.6756 72.053C81.6756 75.758 84.679 78.7615 88.384 78.7615ZM37 72.0525C37 65.055 42.6247 59.3712 49.5996 59.2757V59.277C49.6269 59.2763 49.6544 59.2759 49.6819 59.2759C51.3583 59.2759 52.7173 60.6349 52.7173 62.3113C52.7173 63.9878 51.3583 65.3468 49.6819 65.3468C49.6544 65.3468 49.6269 65.3464 49.5996 65.3457V65.3467C45.9737 65.4375 43.0623 68.4053 43.0623 72.053C43.0623 75.5686 45.7665 78.4525 49.2083 78.7382C49.3982 78.701 49.5945 78.6815 49.7953 78.6815C51.4717 78.6815 52.8307 80.0405 52.8307 81.7169C52.8307 83.3933 51.4717 84.7523 49.7953 84.7523C49.7296 84.7523 49.6643 84.7502 49.5996 84.7461V84.8293C42.6247 84.7339 37 79.0501 37 72.0525ZM49.2632 68.8586C47.5871 68.8586 46.2284 70.2173 46.2284 71.8934C46.2284 73.5694 47.5871 74.9281 49.2632 74.9281H54.6938C56.3699 74.9281 57.7286 73.5694 57.7286 71.8934C57.7286 70.2173 56.3699 68.8586 54.6938 68.8586H49.2632ZM158.822 59.2763C151.847 59.3718 146.223 65.0556 146.223 72.0531C146.223 79.0506 151.847 84.7345 158.822 84.8299V84.7467C158.883 84.7503 158.944 84.7521 159.006 84.7521C160.683 84.7521 162.042 83.3931 162.042 81.7167C162.042 80.0403 160.683 78.6813 159.006 78.6813C158.806 78.6813 158.611 78.7007 158.421 78.7376C154.984 78.4474 152.285 75.5655 152.285 72.0532C152.285 68.4054 155.196 65.4376 158.822 65.3468V65.3462C158.847 65.3468 158.872 65.3471 158.897 65.3471C160.573 65.3471 161.932 63.9881 161.932 62.3117C161.932 60.6353 160.573 59.2763 158.897 59.2763C158.872 59.2763 158.847 59.2766 158.822 59.2772V59.2763ZM155.438 71.8932C155.438 70.2172 156.796 68.8585 158.472 68.8585H163.903C165.579 68.8585 166.938 70.2172 166.938 71.8932C166.938 73.5693 165.579 74.928 163.903 74.928H158.472C156.796 74.928 155.438 73.5693 155.438 71.8932ZM183.963 65.347C185.64 65.347 186.999 63.988 186.999 62.3116C186.999 60.6352 185.64 59.2762 183.963 59.2762C183.936 59.2762 183.909 59.2765 183.882 59.2773V59.2762C176.905 59.3692 171.277 65.054 171.277 72.0531L171.277 72.1058C171.278 72.1387 171.278 72.1716 171.278 72.2045H171.283C171.362 73.8105 172.689 75.0884 174.315 75.0884C175.991 75.0884 177.35 73.7295 177.35 72.053C177.35 71.9821 177.348 71.9117 177.343 71.842C177.453 68.2899 180.324 65.4333 183.882 65.3466V65.3459L183.92 65.3467C183.934 65.3469 183.949 65.347 183.963 65.347ZM177.352 81.1974C177.352 79.5214 175.993 78.1627 174.317 78.1627C172.641 78.1627 171.282 79.5214 171.282 81.1974V81.717C171.282 83.3931 172.641 84.7518 174.317 84.7518C175.993 84.7518 177.352 83.3931 177.352 81.717V81.1974Z" fill="#F80000"/>
</svg>
