<svg width="224" height="120" viewBox="0 0 224 120" fill="none" xmlns="http://www.w3.org/2000/svg">
<rect width="175" height="66.2162" transform="translate(24.5 26.8918)" fill="#1597FC"/>
<path d="M46.6211 73.049V47.1147H64.117V50.1752H50.053V58.2067H62.2241V61.2671H50.053V73.049H46.6211Z" fill="white"/>
<path d="M68.115 73.049V47.1147H71.2993V73.049H68.115Z" fill="white"/>
<path d="M76.2704 50.7767V47.1147H79.4546V50.7767H76.2704ZM76.2704 73.049V54.2617H79.4546V73.049H76.2704Z" fill="white"/>
<path d="M84.3195 73.049V54.2617H87.1854V56.933C88.5652 54.8691 90.5584 53.8371 93.1648 53.8371C94.297 53.8371 95.3348 54.0435 96.2783 54.4563C97.2336 54.8573 97.9471 55.388 98.4188 56.0484C98.8906 56.7089 99.2208 57.4932 99.4095 58.4013C99.5275 58.991 99.5864 60.0229 99.5864 61.4971V73.049H96.4021V61.6209C96.4021 60.3236 96.2783 59.3566 96.0306 58.7197C95.783 58.071 95.3407 57.558 94.7038 57.1806C94.0788 56.7914 93.3417 56.5968 92.4925 56.5968C91.1363 56.5968 89.9628 57.0273 88.9721 57.8882C87.9933 58.7492 87.5038 60.3826 87.5038 62.7885V73.049H84.3195Z" fill="white"/>
<path d="M104.504 73.049V47.1147H107.689V61.904L115.225 54.2617H119.347L112.164 61.2317L120.072 73.049H116.145L109.935 63.4431L107.689 65.6013V73.049H104.504Z" fill="white"/>
<path d="M122.531 73.049V47.1147H125.715V73.049H122.531Z" fill="white"/>
<path d="M129.908 64.7168L133.145 64.4337C133.299 65.731 133.652 66.7984 134.207 67.6357C134.773 68.4613 135.646 69.1335 136.825 69.6524C138.004 70.1595 139.331 70.4131 140.805 70.4131C142.114 70.4131 143.27 70.2185 144.273 69.8293C145.275 69.4401 146.018 68.9094 146.502 68.2372C146.997 67.5531 147.245 66.8101 147.245 66.0082C147.245 65.1944 147.009 64.4868 146.537 63.8853C146.065 63.2721 145.287 62.759 144.202 62.3462C143.506 62.075 141.967 61.6563 139.585 61.0902C137.202 60.5123 135.533 59.9698 134.578 59.4627C133.34 58.814 132.414 58.0121 131.801 57.0568C131.199 56.0897 130.899 55.0106 130.899 53.8194C130.899 52.5103 131.27 51.2897 132.013 50.1575C132.756 49.0135 133.841 48.1467 135.268 47.557C136.695 46.9673 138.281 46.6725 140.027 46.6725C141.949 46.6725 143.642 46.985 145.104 47.6101C146.578 48.2233 147.71 49.1315 148.501 50.3344C149.291 51.5374 149.715 52.8995 149.774 54.4209L146.484 54.6686C146.307 53.0293 145.706 51.7909 144.679 50.9536C143.665 50.1162 142.162 49.6975 140.168 49.6975C138.093 49.6975 136.577 50.0808 135.622 50.8474C134.678 51.6022 134.207 52.5162 134.207 53.5895C134.207 54.5212 134.543 55.2877 135.215 55.8892C135.876 56.4907 137.597 57.1099 140.381 57.7467C143.176 58.3718 145.092 58.9202 146.13 59.3919C147.64 60.0878 148.754 60.9723 149.474 62.0455C150.193 63.1069 150.553 64.3335 150.553 65.7251C150.553 67.105 150.158 68.4082 149.367 69.6347C148.577 70.8495 147.439 71.7989 145.953 72.4829C144.479 73.1551 142.816 73.4913 140.964 73.4913C138.618 73.4913 136.648 73.1492 135.056 72.4652C133.476 71.7812 132.231 70.7551 131.323 69.3871C130.427 68.0072 129.955 66.4504 129.908 64.7168Z" fill="white"/>
<path d="M154.197 60.418C154.197 56.1133 155.353 52.7462 157.664 50.3167C159.976 47.8754 162.96 46.6548 166.616 46.6548C169.01 46.6548 171.168 47.2268 173.09 48.3708C175.013 49.5147 176.475 51.1128 177.478 53.1649C178.492 55.2052 178.999 57.5226 178.999 60.1172C178.999 62.7472 178.468 65.1001 177.407 67.1758C176.345 69.2514 174.842 70.8259 172.896 71.8991C170.95 72.9605 168.851 73.4913 166.598 73.4913C164.157 73.4913 161.975 72.9016 160.053 71.7222C158.13 70.5428 156.674 68.933 155.683 66.8927C154.692 64.8524 154.197 62.6942 154.197 60.418ZM157.735 60.4711C157.735 63.5964 158.572 66.0613 160.247 67.8657C161.934 69.6583 164.045 70.5546 166.58 70.5546C169.163 70.5546 171.286 69.6465 172.949 67.8303C174.624 66.0141 175.461 63.4372 175.461 60.0996C175.461 57.9885 175.101 56.1487 174.382 54.5801C173.674 52.9998 172.63 51.7791 171.251 50.9182C169.883 50.0455 168.343 49.6091 166.633 49.6091C164.204 49.6091 162.111 50.4464 160.353 52.1211C158.608 53.7841 157.735 56.5674 157.735 60.4711Z" fill="white"/>
</svg>
