<svg width="224" height="120" viewBox="0 0 224 120" fill="none" xmlns="http://www.w3.org/2000/svg">
<path fill-rule="evenodd" clip-rule="evenodd" d="M107.375 40.4763C105.56 40.4763 103.897 39.7638 102.705 38.6039L99.4922 35.1129C98.1212 33.7798 96.2336 32.9717 94.1542 32.9717C89.9819 32.9717 86.5928 36.2397 86.5928 40.2723C86.5928 44.3127 89.9819 47.5883 94.1542 47.5883C96.5002 47.5883 98.612 46.5521 99.9953 44.9282L99.9875 41.1378C97.7296 45.4241 94.1542 44.9601 94.1542 44.9601C91.4812 44.9601 89.3137 42.8647 89.3137 40.2723C89.3137 37.6901 91.4812 35.5999 94.1542 35.5999C95.4817 35.5999 96.6921 36.1173 97.5723 36.9674L100.782 40.4584C102.466 42.0987 104.797 43.1044 107.375 43.1044C112.533 43.1044 116.708 39.0538 116.708 34.0755C116.708 29.0894 112.533 25.0542 107.375 25.0542C104.343 25.0542 101.701 26.6245 99.9953 28.7849L99.9875 33.5185C102.28 27.212 107.375 27.6798 107.375 27.6798C111.032 27.6798 113.991 30.5476 113.991 34.0755C113.991 37.6136 111.032 40.4763 107.375 40.4763ZM155.117 55.0855C153.31 52.1961 149.204 52.544 149.204 52.544C142.477 52.544 142.79 57.6358 142.79 57.6358C142.79 57.6358 142.332 60.1901 145.713 61.9323L152.44 65.4781C158.932 68.9347 158.162 73.8468 158.162 73.8468C158.162 73.8468 158.452 83.0236 144.876 83.0236C144.876 83.0236 140.927 83.1433 138.696 82.3124L136.777 76.3691H136.844C138.919 79.3286 144.932 79.7556 144.932 79.7556C152.562 79.4229 152.607 74.2789 152.607 74.2789C152.607 74.2789 152.953 72.0637 149.963 70.4591L143.27 66.9146C136.286 63.2094 137.089 58.2196 137.089 58.2196C137.089 58.2196 136.922 49.192 148.937 49.192C148.937 49.192 154.325 49.3296 155.184 50.1645V55.0855H155.117ZM73.5239 79.7656C70.0466 79.7656 67.2287 76.8583 67.2287 73.4961L67.2231 52.921C67.2231 51.5178 68.3041 50.0049 69.7365 49.9194V49.8481H58.9947V49.9194C60.4237 49.9972 61.508 51.5088 61.508 52.921L61.4935 72.8753C61.4935 79.2979 66.9029 83.0399 73.5517 83.0399C80.1894 83.0399 85.5408 79.2979 85.5408 72.8753V52.921C85.5408 51.5088 86.6285 49.9972 88.0643 49.9194V49.8481L77.3079 49.8583V49.9194C78.7458 49.9972 79.8257 51.5088 79.8257 52.921V73.4565C79.8257 76.82 76.9978 79.7656 73.5239 79.7656ZM52.8288 66.3934H45.2329L45.2274 79.1249C45.2274 80.532 46.3128 82.05 47.7486 82.1303V82.1915H37V82.1303C38.4335 82.05 39.51 80.532 39.51 79.1249V52.9214C39.51 51.5093 38.4335 49.9976 37 49.9199V49.8574L58.3041 49.8486L58.3141 55.5509H58.2472C58.1724 54.168 56.8259 53.1254 55.3801 53.1254H45.2274L45.2329 63.1281H55.755V68.8266H55.6859C55.6133 67.4398 54.2679 66.3934 52.8288 66.3934ZM104.426 52.8533C104.426 51.4398 103.345 49.9919 101.912 49.9192V49.8581H112.644V49.9192C111.22 49.9983 110.134 51.4474 110.134 52.8533V79.1128C110.134 80.5224 111.22 82.0392 112.644 82.1232V82.1832H101.912V82.1232C103.345 82.0392 104.426 80.5224 104.426 79.1128V52.8533ZM100.198 49.9201C98.7637 49.9979 97.685 51.5094 97.685 52.9217L97.6928 83.8065C97.6928 93.0329 88.0944 94.7956 87.1685 94.946L87.1562 94.8823C91.8494 91.5467 91.9699 85.7501 91.9699 85.7501L91.9609 52.9217C91.9609 51.5094 90.8878 49.9979 89.4498 49.9201V49.8577H100.198V49.9201ZM112.601 55.675H112.665C114.121 53.1551 116.364 53.1258 116.364 53.1258H122.183L122.187 79.1253C122.187 80.5323 121.105 82.0389 119.672 82.123V82.183H130.429V82.123C128.99 82.0389 127.908 80.5222 127.908 79.1253V53.1258L132.772 53.1143C134.256 53.1143 135.416 54.2538 135.461 55.675H135.527L137.312 49.8477H114.393L112.601 55.675ZM172.464 79.7656C168.983 79.7656 166.172 76.8583 166.172 73.4961L166.161 52.921C166.161 51.5178 167.243 50.0049 168.682 49.9194V49.8481H157.928V49.9194C159.367 49.9972 160.449 51.5088 160.449 52.921L160.438 72.8753C160.438 79.2979 165.849 83.0399 172.486 83.0399C179.135 83.0399 184.49 79.2979 184.49 72.8753V52.921C184.49 51.5088 185.572 49.9972 187 49.9194V49.8481L176.257 49.8583V49.9194C177.685 49.9972 178.767 51.5088 178.767 52.921V73.4565C178.767 76.82 175.933 79.7656 172.464 79.7656Z" fill="#E60012"/>
</svg>
