<svg width="224" height="120" viewBox="0 0 224 120" fill="none" xmlns="http://www.w3.org/2000/svg">
<path d="M115.536 53.9051L115.811 65.4384C115.811 66.3538 116.415 68.1845 118.831 68.1845C121.248 68.1845 121.852 66.3538 121.852 65.4384V53.9051C121.944 52.7152 122.841 50.3353 125.696 50.3353C128.552 50.3353 129.449 52.7152 129.541 53.9051V65.4384C129.724 66.3538 130.639 68.1845 132.836 68.1845C135.033 68.1845 135.582 66.3538 135.582 65.4384V53.9051C135.765 52.7152 136.845 50.3353 139.701 50.3353C142.557 50.3353 143.454 52.7152 143.546 53.9051V65.9876C143.637 66.7199 144.314 68.1845 146.292 68.1845C148.269 68.1845 149.129 66.7199 149.312 65.9876V53.6305C149.312 51.4337 147.115 44.2941 139.701 44.2941C134.41 44.2941 133.385 46.2163 132.561 47.3147C131.738 46.2163 131.298 44.2941 125.147 44.2941C118.282 44.2941 115.536 51.4337 115.536 53.9051Z" fill="#98989A"/>
<path fill-rule="evenodd" clip-rule="evenodd" d="M171.828 64.8892V52.2575C171.828 50.5183 171.224 46.7105 168.807 45.3924C166.391 44.0743 163.407 43.9279 162.217 44.0194C160.386 44.0194 156.395 44.5137 155.077 46.4908C153.429 48.9623 155.901 50.8845 156.725 50.6099C156.911 50.5476 157.155 50.4288 157.448 50.2855C158.449 49.7971 160.032 49.0246 161.942 49.2369C164.414 49.5115 165.238 50.0607 165.238 52.8067C165.157 52.7745 165.071 52.7395 164.979 52.7023C163.51 52.105 160.667 50.9489 157.823 51.9829C154.803 53.0813 152.057 55.8273 152.057 59.9464C152.057 64.0654 155.077 66.8114 155.901 67.3606C156.725 67.9098 158.922 69.2828 161.668 68.1844C163.865 67.3057 165.146 66.3537 165.512 65.9876C165.787 66.7199 166.775 68.1844 168.533 68.1844C170.73 68.1844 171.828 66.2622 171.828 64.8892ZM165.239 59.6717C165.239 60.7701 164.854 63.2415 162.218 63.2415C159.582 63.2415 158.74 60.8617 158.648 59.6717C158.648 58.4818 159.362 56.1019 162.218 56.1019C164.69 56.1019 165.239 58.5733 165.239 59.6717Z" fill="#98989A"/>
<path d="M100.983 65.4384L92.4699 48.6877C92.1955 47.7723 92.1409 45.722 94.1181 44.8432C96.0952 43.9645 97.5048 45.2094 97.9625 45.9417L103.729 57.7496L108.397 47.5893C108.947 46.2163 110.32 43.7449 112.791 44.8433C115.401 46.0031 114.988 48.3215 114.439 49.5115L103.455 72.3035C102.082 74.5003 100.38 75.3241 97.9632 75.3241L97.922 75.3241C96.5524 75.3243 94.6666 75.3246 92.7445 73.4019C90.823 71.4797 92.9597 67.7619 95.7651 69.0082C98.2378 70.1067 98.787 69.8321 99.6096 68.1844L100.983 65.4384Z" fill="#98989A"/>
<path d="M61.7142 39.0765C65.8882 41.0537 65.3756 43.8363 64.4602 45.1178C62.9225 47.3146 60.2496 46.6739 59.2427 45.9416C58.5104 45.3924 56.277 44.2391 53.2014 44.0194C49.357 43.7448 47.1602 45.9416 45.238 49.5114C43.3157 53.0812 44.9634 57.2003 46.0618 58.8479C47.1602 60.4955 49.6316 63.2415 54.0252 63.2415C58.4189 63.2415 61.7142 58.0241 64.4601 61.5939C67.5173 65.5685 61.8056 68.9166 58.9681 69.832C56.222 70.6558 49.3021 71.3148 43.5903 67.3606C37.8786 63.4063 37 57.1087 37 54.4543C37 52.2574 37.0549 47.4794 40.5698 42.6464C44.0847 37.8134 50.4555 36.7882 53.2015 36.8797C54.2999 36.7882 57.5402 37.0994 61.7142 39.0765Z" fill="#C20135"/>
<path fill-rule="evenodd" clip-rule="evenodd" d="M78.1892 60.4955L90.8209 54.1796C91.8278 53.6304 93.0178 52.2574 91.0955 49.5114C88.7545 46.1671 85.8781 44.2939 81.2099 44.2939C76.8107 44.294 73.8871 46.9484 72.9718 48.1384C71.9649 49.1453 69.9512 52.2025 69.9512 56.3764C69.9512 61.5939 72.9718 65.4383 77.0908 67.3605C80.3861 68.8983 84.5051 68.1843 86.7019 67.3605C89.7225 65.9874 93.0178 62.6923 89.7225 60.2208C88.0941 58.9995 87.0584 59.8528 85.935 60.7785C85.1295 61.4422 84.2788 62.1431 83.1321 62.1431C80.6607 62.1431 79.2876 62.1431 78.1892 60.4955ZM76.8184 55.8273L85.0565 52.2575C84.3242 51.2506 82.1457 49.5663 79.2898 50.8844C76.434 52.2025 76.4523 54.7289 76.8184 55.8273Z" fill="#98989A"/>
<rect x="53.2012" y="51.1591" width="14.2793" height="6.59045" rx="3.29523" fill="#C20135"/>
<path d="M111.143 72.49C110.96 71.4831 110.045 70.3481 107.848 73.863C105.651 77.3779 106.932 79.172 107.848 79.6296C108.946 79.9782 111.447 79.211 112.516 76.609M112.516 76.609C113.615 73.9369 115.262 74.4122 115.537 74.6868C116.086 75.0353 116.141 76.8287 114.164 78.8058C112.187 80.783 111.967 78.056 112.516 76.609ZM117.459 74.9614L116.635 79.0804C117.184 77.5243 118.503 74.522 119.381 74.9614C120.48 75.5106 119.107 78.8058 120.754 78.8058M122.676 76.8836C123.5 76.7921 125.148 76.2246 125.148 74.6868C125.148 73.149 123.683 74.7783 122.951 75.7852C122.31 76.7921 121.468 78.8607 123.226 79.0804C124.983 79.3001 125.606 77.8905 125.697 77.1582M130.091 74.9614C129.908 74.2291 128.718 73.3877 127.345 75.5845C125.727 78.1726 127.528 78.9713 128.443 78.8798L128.521 78.8604C129.175 78.6968 129.739 78.2828 130.091 77.7074V77.7074M132.013 73.3138C131.372 75.7852 130.75 80.3985 133.386 79.0804M130.64 76.0598C130.823 75.7852 131.574 75.236 133.111 75.236M174.456 73.3138C174.295 73.9369 174.134 74.6962 174.027 75.4623M174.027 75.4623C173.709 77.7345 173.858 80.0662 175.829 79.0804M174.027 75.4623C173.49 75.6458 173.19 75.8996 173.083 76.0598M174.027 75.4623C174.41 75.3313 174.914 75.236 175.555 75.236M138.054 76.0598C138.603 75.0353 138.109 72.8385 136.132 75.0353C133.661 77.7814 133.386 79.0804 134.484 79.0804C135.363 79.0804 137.23 77.0667 138.054 76.0598ZM138.054 76.0598C137.596 77.1582 137.121 79.2452 138.878 78.8058M140.251 74.6868V79.0804C140.709 77.6159 141.789 74.7417 142.448 74.9614C143.107 75.1811 143.089 77.4328 142.997 78.5312C143.272 77.2321 145.359 74.7417 146.018 74.9614C146.841 75.236 145.468 79.0804 147.116 78.8058M155.629 74.4861C154.805 73.9369 153.377 74.522 153.157 76.0598C152.883 77.982 155.629 75.7852 155.903 77.4328C156.178 79.0804 153.707 79.9042 152.883 78.5312M163.043 74.9614C162.951 74.2291 162.329 73.3687 160.572 75.7852C158.814 78.2017 160.022 78.9889 160.846 79.0804C161.304 79.172 162.384 79.0255 163.043 77.7074M169.084 74.9614L168.535 79.0804C169.084 77.5244 170.402 74.577 171.281 75.236C172.379 76.0598 170.457 79.0804 172.379 78.8058M177.322 74.9614C176.773 76.7921 176.224 79.9232 178.421 78.6052M182.265 75.8591C181.35 77.2321 179.299 79.6486 178.421 78.3306C177.322 76.6829 181.167 73.3138 181.991 74.1376C182.65 74.7966 182.54 79.7036 181.991 81.2772C181.441 82.7242 179.409 84.7372 177.872 81.0026M148.764 77.1582C149.038 76.0598 149.917 73.9728 151.235 74.4122C152.553 74.8516 151.51 77.5068 150.411 78.5312C149.587 79.172 148.105 79.7944 148.764 77.1582ZM166.887 74.6868C166.521 74.4122 165.459 74.4671 164.141 76.8836C162.494 79.9042 166.613 79.355 167.162 77.1582C167.601 75.4008 167.162 74.7783 166.887 74.6868ZM183.913 77.1582C184.187 76.0598 185.066 73.9728 186.384 74.4122C187.702 74.8516 186.659 77.5068 185.56 78.5312C184.737 79.172 183.254 79.7944 183.913 77.1582Z" stroke="#BB324E" stroke-linecap="round" stroke-linejoin="round"/>
<ellipse cx="177.706" cy="73.4975" rx="0.384443" ry="0.384443" fill="#BB324E"/>
</svg>
