<svg width="224" height="120" viewBox="0 0 224 120" fill="none" xmlns="http://www.w3.org/2000/svg">
<path fill-rule="evenodd" clip-rule="evenodd" d="M16.9151 44.6687C17.3509 44.3691 17.947 44.4795 18.2465 44.9152L21.7572 50.0217C21.9819 50.3484 21.9819 50.7798 21.7572 51.1066L18.2465 56.213C17.947 56.6488 17.3509 56.7591 16.9151 56.4596C16.4794 56.16 16.369 55.5639 16.6686 55.1282L19.8063 50.5641L16.6686 46.0001C16.369 45.5644 16.4794 44.9683 16.9151 44.6687Z" fill="#417755"/>
<path fill-rule="evenodd" clip-rule="evenodd" d="M22.3409 44.6687C22.7766 44.3691 23.3727 44.4795 23.6723 44.9152L27.183 50.0217C27.4076 50.3484 27.4076 50.7798 27.183 51.1066L23.6723 56.213C23.3727 56.6488 22.7766 56.7591 22.3409 56.4596C21.9052 56.16 21.7948 55.5639 22.0943 55.1282L25.2321 50.5641L22.0943 46.0001C21.7948 45.5644 21.9052 44.9683 22.3409 44.6687Z" fill="#9F1F20"/>
<path d="M16.5293 69.7134V58.5721H18.2411V69.7134H16.5293Z" fill="black"/>
<path d="M23.2925 63.0112V69.7134H21.5807V58.5721H23.2345V60.3129H23.3796C23.6407 59.7471 24.0372 59.2926 24.5691 58.9492C25.1011 58.6011 25.7877 58.427 26.6291 58.427C27.3835 58.427 28.0436 58.5817 28.6093 58.8912C29.1751 59.1959 29.6151 59.6601 29.9295 60.2839C30.2438 60.9028 30.4009 61.6862 30.4009 62.634V69.7134H28.6891V62.7501C28.6891 61.8748 28.4618 61.193 28.0073 60.7046C27.5527 60.2113 26.9289 59.9647 26.1359 59.9647C25.5895 59.9647 25.1011 60.0832 24.6707 60.3201C24.2451 60.5571 23.9091 60.9028 23.6624 61.3574C23.4158 61.8119 23.2925 62.3632 23.2925 63.0112Z" fill="black"/>
<path d="M35.4451 63.0112V69.7134H33.7333V58.5721H35.3871V60.3129H35.5321C35.7933 59.7471 36.1898 59.2926 36.7217 58.9492C37.2536 58.6011 37.9403 58.427 38.7817 58.427C39.536 58.427 40.1961 58.5817 40.7619 58.8912C41.3277 59.1959 41.7677 59.6601 42.082 60.2839C42.3963 60.9028 42.5535 61.6862 42.5535 62.634V69.7134H40.8417V62.7501C40.8417 61.8748 40.6144 61.193 40.1599 60.7046C39.7053 60.2113 39.0815 59.9647 38.2885 59.9647C37.742 59.9647 37.2536 60.0832 36.8232 60.3201C36.3977 60.5571 36.0616 60.9028 35.815 61.3574C35.5684 61.8119 35.4451 62.3632 35.4451 63.0112Z" fill="black"/>
<path d="M50.412 69.9455C49.4062 69.9455 48.5237 69.7062 47.7645 69.2274C47.0101 68.7487 46.4202 68.079 45.9946 67.2182C45.5739 66.3575 45.3636 65.3516 45.3636 64.2008C45.3636 63.0402 45.5739 62.0271 45.9946 61.1615C46.4202 60.296 47.0101 59.6238 47.7645 59.1451C48.5237 58.6663 49.4062 58.427 50.412 58.427C51.4178 58.427 52.2979 58.6663 53.0523 59.1451C53.8115 59.6238 54.4014 60.296 54.8221 61.1615C55.2477 62.0271 55.4604 63.0402 55.4604 64.2008C55.4604 65.3516 55.2477 66.3575 54.8221 67.2182C54.4014 68.079 53.8115 68.7487 53.0523 69.2274C52.2979 69.7062 51.4178 69.9455 50.412 69.9455ZM50.412 68.4078C51.176 68.4078 51.8047 68.2119 52.2979 67.8202C52.7911 67.4286 53.1562 66.9136 53.3932 66.2753C53.6301 65.6369 53.7486 64.9454 53.7486 64.2008C53.7486 63.4561 53.6301 62.7621 53.3932 62.119C53.1562 61.4759 52.7911 60.956 52.2979 60.5595C51.8047 60.163 51.176 59.9647 50.412 59.9647C49.648 59.9647 49.0193 60.163 48.5261 60.5595C48.0329 60.956 47.6678 61.4759 47.4308 62.119C47.1939 62.7621 47.0754 63.4561 47.0754 64.2008C47.0754 64.9454 47.1939 65.6369 47.4308 66.2753C47.6678 66.9136 48.0329 67.4286 48.5261 67.8202C49.0193 68.2119 49.648 68.4078 50.412 68.4078Z" fill="black"/>
<path d="M66.9892 58.5721L62.8692 69.7134H61.1284L57.0084 58.5721H58.8653L61.9408 67.4503H62.0568L65.1323 58.5721H66.9892Z" fill="black"/>
<path d="M72.3924 69.9745C71.6864 69.9745 71.0457 69.8416 70.4702 69.5756C69.8948 69.3048 69.4378 68.9155 69.0993 68.4078C68.7608 67.8952 68.5916 67.2762 68.5916 66.5509C68.5916 65.9126 68.7173 65.3952 68.9687 64.9986C69.2202 64.5973 69.5563 64.283 69.977 64.0557C70.3977 63.8284 70.8619 63.6592 71.3696 63.5479C71.8822 63.4319 72.3972 63.34 72.9146 63.2723C73.5916 63.1853 74.1405 63.12 74.5612 63.0765C74.9867 63.0281 75.2962 62.9483 75.4896 62.8371C75.6879 62.7259 75.787 62.5325 75.787 62.2568V62.1988C75.787 61.4831 75.5912 60.927 75.1995 60.5305C74.8126 60.134 74.2251 59.9357 73.4369 59.9357C72.6197 59.9357 71.9789 60.1146 71.5147 60.4725C71.0505 60.8303 70.7241 61.2123 70.5355 61.6185L68.9107 61.0382C69.2009 60.3612 69.5877 59.8342 70.0713 59.457C70.5597 59.075 71.0916 58.809 71.667 58.6591C72.2473 58.5044 72.8179 58.427 73.3789 58.427C73.7367 58.427 74.1477 58.4705 74.612 58.5575C75.081 58.6398 75.5331 58.8114 75.9684 59.0725C76.4084 59.3337 76.7735 59.7278 77.0636 60.2549C77.3538 60.7819 77.4988 61.488 77.4988 62.3729V69.7134H75.787V68.2047H75.7C75.5839 68.4465 75.3905 68.7052 75.1197 68.9808C74.8489 69.2564 74.4886 69.491 74.0389 69.6844C73.5892 69.8778 73.0404 69.9745 72.3924 69.9745ZM72.6535 68.4368C73.3305 68.4368 73.9011 68.3038 74.3653 68.0379C74.8344 67.7719 75.1874 67.4286 75.4243 67.0079C75.6661 66.5872 75.787 66.1447 75.787 65.6805V64.1137C75.7145 64.2008 75.5549 64.2805 75.3083 64.3531C75.0665 64.4208 74.786 64.4812 74.4669 64.5344C74.1526 64.5828 73.8455 64.6263 73.5457 64.665C73.2507 64.6988 73.0114 64.7278 72.8276 64.752C72.3827 64.8101 71.9668 64.9043 71.58 65.0349C71.198 65.1606 70.8885 65.3516 70.6516 65.6079C70.4194 65.8594 70.3034 66.2027 70.3034 66.6379C70.3034 67.2327 70.5234 67.6824 70.9635 67.9871C71.4083 68.2869 71.9717 68.4368 72.6535 68.4368Z" fill="black"/>
<path d="M80.5084 69.7134V68.4078L86.8334 60.2839V60.1678H80.7115V58.5721H89.0385V59.9357L82.8875 68.0016V68.1176H89.2416V69.7134H80.5084Z" fill="black"/>
<path d="M92.0825 69.7134V58.5721H93.7943V69.7134H92.0825ZM92.9529 56.7152C92.6192 56.7152 92.3315 56.6015 92.0897 56.3742C91.8528 56.147 91.7343 55.8738 91.7343 55.5546C91.7343 55.2354 91.8528 54.9622 92.0897 54.735C92.3315 54.5077 92.6192 54.394 92.9529 54.394C93.2866 54.394 93.5719 54.5077 93.8088 54.735C94.0506 54.9622 94.1715 55.2354 94.1715 55.5546C94.1715 55.8738 94.0506 56.147 93.8088 56.3742C93.5719 56.6015 93.2866 56.7152 92.9529 56.7152Z" fill="black"/>
<path d="M101.66 69.9455C100.654 69.9455 99.7717 69.7062 99.0125 69.2274C98.2582 68.7487 97.6682 68.079 97.2427 67.2182C96.822 66.3575 96.6116 65.3516 96.6116 64.2008C96.6116 63.0402 96.822 62.0271 97.2427 61.1615C97.6682 60.296 98.2582 59.6238 99.0125 59.1451C99.7717 58.6663 100.654 58.427 101.66 58.427C102.666 58.427 103.546 58.6663 104.3 59.1451C105.06 59.6238 105.649 60.296 106.07 61.1615C106.496 62.0271 106.708 63.0402 106.708 64.2008C106.708 65.3516 106.496 66.3575 106.07 67.2182C105.649 68.079 105.06 68.7487 104.3 69.2274C103.546 69.7062 102.666 69.9455 101.66 69.9455ZM101.66 68.4078C102.424 68.4078 103.053 68.2119 103.546 67.8202C104.039 67.4286 104.404 66.9136 104.641 66.2753C104.878 65.6369 104.997 64.9454 104.997 64.2008C104.997 63.4561 104.878 62.7621 104.641 62.119C104.404 61.4759 104.039 60.956 103.546 60.5595C103.053 60.163 102.424 59.9647 101.66 59.9647C100.896 59.9647 100.267 60.163 99.7742 60.5595C99.2809 60.956 98.9158 61.4759 98.6789 62.119C98.4419 62.7621 98.3235 63.4561 98.3235 64.2008C98.3235 64.9454 98.4419 65.6369 98.6789 66.2753C98.9158 66.9136 99.2809 67.4286 99.7742 67.8202C100.267 68.2119 100.896 68.4078 101.66 68.4078Z" fill="black"/>
<path d="M111.238 63.0112V69.7134H109.526V58.5721H111.18V60.3129H111.325C111.586 59.7471 111.982 59.2926 112.514 58.9492C113.046 58.6011 113.733 58.427 114.574 58.427C115.329 58.427 115.989 58.5817 116.554 58.8912C117.12 59.1959 117.56 59.6601 117.875 60.2839C118.189 60.9028 118.346 61.6862 118.346 62.634V69.7134H116.634V62.7501C116.634 61.8748 116.407 61.193 115.952 60.7046C115.498 60.2113 114.874 59.9647 114.081 59.9647C113.535 59.9647 113.046 60.0832 112.616 60.3201C112.19 60.5571 111.854 60.9028 111.608 61.3574C111.361 61.8119 111.238 62.3632 111.238 63.0112Z" fill="black"/>
<path d="M126.35 69.9455C125.276 69.9455 124.35 69.7086 123.572 69.2347C122.798 68.7559 122.201 68.0886 121.78 67.2327C121.364 66.372 121.156 65.371 121.156 64.2298C121.156 63.0886 121.364 62.0827 121.78 61.2123C122.201 60.3371 122.786 59.6552 123.535 59.1668C124.29 58.6736 125.17 58.427 126.176 58.427C126.756 58.427 127.329 58.5237 127.895 58.7171C128.46 58.9105 128.975 59.2249 129.44 59.6601C129.904 60.0904 130.274 60.6611 130.549 61.3719C130.825 62.0827 130.963 62.958 130.963 63.9977V64.723H122.375V63.2433H129.222C129.222 62.6147 129.096 62.0537 128.845 61.5605C128.598 61.0673 128.245 60.678 127.786 60.3927C127.331 60.1074 126.795 59.9647 126.176 59.9647C125.494 59.9647 124.904 60.134 124.406 60.4725C123.912 60.8061 123.533 61.2413 123.267 61.7781C123.001 62.3149 122.868 62.8903 122.868 63.5044V64.4909C122.868 65.3323 123.013 66.0456 123.303 66.6307C123.598 67.211 124.007 67.6534 124.529 67.9581C125.051 68.2579 125.658 68.4078 126.35 68.4078C126.799 68.4078 127.206 68.3449 127.568 68.2192C127.936 68.0886 128.252 67.8952 128.518 67.6389C128.784 67.3778 128.99 67.0538 129.135 66.6669L130.789 67.1312C130.615 67.6921 130.322 68.1853 129.911 68.6109C129.5 69.0316 128.992 69.3604 128.388 69.5974C127.783 69.8295 127.104 69.9455 126.35 69.9455Z" fill="black"/>
<path d="M201.546 70.1848C200.429 70.1848 199.464 69.9527 198.652 69.4885C197.844 69.0194 197.223 68.3569 196.788 67.501C196.352 66.6403 196.135 65.6272 196.135 64.4618C196.135 63.3158 196.352 62.3099 196.788 61.4444C197.228 60.5739 197.842 59.897 198.63 59.4134C199.418 58.925 200.344 58.6808 201.408 58.6808C202.095 58.6808 202.743 58.792 203.352 59.0144C203.966 59.2321 204.508 59.5705 204.977 60.0299C205.451 60.4893 205.823 61.0744 206.094 61.7853C206.365 62.4913 206.5 63.3327 206.5 64.3095V65.1146H197.368V63.3448H203.983C203.978 62.8419 203.869 62.3946 203.657 62.0029C203.444 61.6064 203.146 61.2945 202.764 61.0672C202.387 60.8399 201.947 60.7263 201.444 60.7263C200.908 60.7263 200.436 60.8568 200.03 61.118C199.624 61.3742 199.307 61.7127 199.08 62.1334C198.857 62.5493 198.744 63.0063 198.739 63.5044V65.0493C198.739 65.6973 198.857 66.2534 199.094 66.7176C199.331 67.177 199.662 67.53 200.088 67.7767C200.513 68.0184 201.012 68.1393 201.582 68.1393C201.964 68.1393 202.31 68.0861 202.619 67.9798C202.929 67.8685 203.197 67.7065 203.425 67.4938C203.652 67.281 203.823 67.0175 203.94 66.7031L206.391 66.9788C206.236 67.6268 205.941 68.1925 205.506 68.6761C205.076 69.1548 204.525 69.5272 203.852 69.7931C203.18 70.0543 202.411 70.1848 201.546 70.1848Z" fill="black"/>
<path d="M193.71 55.1121V69.9672H191.084V55.1121H193.71Z" fill="black"/>
<path d="M182.357 70.1921C181.651 70.1921 181.015 70.0663 180.45 69.8149C179.889 69.5586 179.444 69.1814 179.115 68.6833C178.791 68.1853 178.629 67.5711 178.629 66.841C178.629 66.2123 178.745 65.6925 178.977 65.2815C179.209 64.8704 179.526 64.5416 179.927 64.295C180.329 64.0484 180.781 63.8622 181.284 63.7365C181.791 63.6059 182.316 63.5116 182.858 63.4536C183.511 63.3859 184.04 63.3254 184.446 63.2722C184.852 63.2142 185.147 63.1272 185.331 63.0111C185.52 62.8902 185.614 62.7041 185.614 62.4526V62.4091C185.614 61.8626 185.452 61.4395 185.128 61.1397C184.804 60.8399 184.337 60.69 183.728 60.69C183.085 60.69 182.575 60.8302 182.198 61.1107C181.825 61.3912 181.574 61.7224 181.443 62.1044L178.992 61.7563C179.185 61.0793 179.504 60.5135 179.949 60.0589C180.394 59.5996 180.938 59.2562 181.581 59.029C182.224 58.7968 182.935 58.6808 183.714 58.6808C184.25 58.6808 184.785 58.7436 185.317 58.8694C185.849 58.9951 186.335 59.203 186.775 59.4932C187.215 59.7785 187.568 60.1678 187.834 60.661C188.104 61.1542 188.24 61.7708 188.24 62.5106V69.9672H185.716V68.4367H185.629C185.469 68.7462 185.244 69.0363 184.954 69.3071C184.669 69.5731 184.308 69.7883 183.873 69.9527C183.443 70.1123 182.937 70.1921 182.357 70.1921ZM183.039 68.2626C183.566 68.2626 184.023 68.1587 184.41 67.9507C184.797 67.738 185.094 67.4575 185.302 67.1093C185.515 66.7612 185.621 66.3816 185.621 65.9705V64.6577C185.539 64.7254 185.399 64.7882 185.201 64.8462C185.007 64.9043 184.79 64.9551 184.548 64.9986C184.306 65.0421 184.067 65.0808 183.83 65.1146C183.593 65.1485 183.387 65.1775 183.213 65.2017C182.821 65.2549 182.471 65.3419 182.161 65.4628C181.852 65.5837 181.608 65.7529 181.429 65.9705C181.25 66.1833 181.16 66.4589 181.16 66.7974C181.16 67.281 181.337 67.6461 181.69 67.8927C182.043 68.1393 182.493 68.2626 183.039 68.2626Z" fill="black"/>
<path d="M176.751 58.8259V60.8569H170.346V58.8259H176.751ZM171.927 56.1566H174.553V66.6161C174.553 66.9691 174.606 67.2399 174.712 67.4285C174.824 67.6123 174.969 67.738 175.148 67.8057C175.326 67.8734 175.525 67.9073 175.742 67.9073C175.907 67.9073 176.057 67.8952 176.192 67.871C176.332 67.8468 176.439 67.8251 176.511 67.8057L176.954 69.8585C176.813 69.9068 176.613 69.96 176.352 70.018C176.095 70.0761 175.781 70.1099 175.409 70.1196C174.751 70.1389 174.159 70.0398 173.632 69.8222C173.104 69.5997 172.686 69.2564 172.377 68.7922C172.072 68.328 171.922 67.7477 171.927 67.0514V56.1566Z" fill="black"/>
<path d="M165.656 69.9673V58.8259H168.282V69.9673H165.656ZM166.976 57.2447C166.56 57.2447 166.203 57.1068 165.903 56.8312C165.603 56.5507 165.453 56.2147 165.453 55.823C165.453 55.4265 165.603 55.0904 165.903 54.8147C166.203 54.5343 166.56 54.394 166.976 54.394C167.397 54.394 167.755 54.5343 168.05 54.8147C168.35 55.0904 168.5 55.4265 168.5 55.823C168.5 56.2147 168.35 56.5507 168.05 56.8312C167.755 57.1068 167.397 57.2447 166.976 57.2447Z" fill="black"/>
<path d="M157.533 74.3773C156.59 74.3773 155.78 74.2492 155.103 73.9929C154.426 73.7414 153.882 73.4029 153.471 72.9774C153.06 72.5519 152.774 72.0804 152.615 71.563L154.98 70.99C155.086 71.2076 155.241 71.4227 155.444 71.6355C155.647 71.8531 155.92 72.032 156.263 72.1723C156.612 72.3173 157.049 72.3899 157.576 72.3899C158.321 72.3899 158.938 72.2085 159.426 71.8459C159.914 71.488 160.159 70.8981 160.159 70.076V67.9652H160.028C159.893 68.236 159.694 68.5141 159.433 68.7994C159.177 69.0847 158.836 69.3241 158.41 69.5175C157.99 69.7109 157.46 69.8076 156.822 69.8076C155.966 69.8076 155.19 69.607 154.494 69.2056C153.802 68.7994 153.251 68.1949 152.84 67.3922C152.434 66.5847 152.23 65.574 152.23 64.3603C152.23 63.1368 152.434 62.1044 152.84 61.263C153.251 60.4168 153.804 59.7761 154.501 59.3409C155.197 58.9008 155.973 58.6808 156.829 58.6808C157.482 58.6808 158.019 58.792 158.439 59.0144C158.865 59.2321 159.203 59.4956 159.455 59.8051C159.706 60.1097 159.897 60.3974 160.028 60.6682H160.173V58.8259H162.763V70.1485C162.763 71.1012 162.535 71.8894 162.081 72.5132C161.626 73.137 161.005 73.6036 160.217 73.9131C159.428 74.2226 158.534 74.3773 157.533 74.3773ZM157.555 67.7476C158.111 67.7476 158.585 67.6122 158.976 67.3414C159.368 67.0707 159.665 66.6814 159.868 66.1736C160.071 65.6659 160.173 65.0566 160.173 64.3458C160.173 63.6446 160.071 63.0305 159.868 62.5034C159.67 61.9763 159.375 61.5677 158.983 61.2775C158.597 60.9826 158.12 60.8351 157.555 60.8351C156.969 60.8351 156.481 60.9874 156.089 61.292C155.698 61.5967 155.403 62.015 155.204 62.5469C155.006 63.074 154.907 63.6736 154.907 64.3458C154.907 65.0276 155.006 65.6248 155.204 66.1374C155.407 66.6451 155.705 67.0416 156.097 67.3269C156.493 67.6074 156.979 67.7476 157.555 67.7476Z" fill="black"/>
<path d="M147.156 69.9673V58.8259H149.782V69.9673H147.156ZM148.476 57.2447C148.06 57.2447 147.703 57.1068 147.403 56.8312C147.103 56.5507 146.953 56.2147 146.953 55.823C146.953 55.4265 147.103 55.0904 147.403 54.8147C147.703 54.5343 148.06 54.394 148.476 54.394C148.897 54.394 149.255 54.5343 149.55 54.8147C149.85 55.0904 150 55.4265 150 55.823C150 56.2147 149.85 56.5507 149.55 56.8312C149.255 57.1068 148.897 57.2447 148.476 57.2447Z" fill="black"/>
<path d="M138.22 70.163C137.345 70.163 136.562 69.9382 135.87 69.4885C135.179 69.0388 134.632 68.3859 134.231 67.53C133.83 66.6741 133.629 65.6345 133.629 64.411C133.629 63.1731 133.832 62.1286 134.238 61.2775C134.649 60.4216 135.203 59.7761 135.899 59.3408C136.596 58.9008 137.372 58.6808 138.228 58.6808C138.88 58.6808 139.417 58.792 139.838 59.0144C140.259 59.232 140.592 59.4956 140.839 59.8051C141.085 60.1097 141.277 60.3974 141.412 60.6682H141.521V55.1121H144.154V69.9672H141.571V68.2119H141.412C141.277 68.4827 141.081 68.7704 140.824 69.075C140.568 69.3748 140.23 69.6311 139.809 69.8439C139.388 70.0567 138.859 70.163 138.22 70.163ZM138.953 68.0088C139.509 68.0088 139.983 67.8589 140.375 67.559C140.766 67.2544 141.064 66.8313 141.267 66.2897C141.47 65.7481 141.571 65.117 141.571 64.3965C141.571 63.676 141.47 63.0498 141.267 62.5179C141.069 61.9859 140.774 61.5725 140.382 61.2775C139.995 60.9826 139.519 60.8351 138.953 60.8351C138.368 60.8351 137.879 60.9874 137.488 61.292C137.096 61.5967 136.801 62.0174 136.603 62.5541C136.405 63.0909 136.305 63.705 136.305 64.3965C136.305 65.0929 136.405 65.7142 136.603 66.2607C136.806 66.8023 137.103 67.2302 137.495 67.5445C137.892 67.854 138.378 68.0088 138.953 68.0088Z" fill="black"/>
<path d="M204.499 75.624V73.3797H203.648V72.9431H205.824V73.3797H204.974V75.624H204.499Z" fill="#9F1F20"/>
<path d="M200.852 75.624V72.9431H201.323V75.624H200.852Z" fill="#9F1F20"/>
<path d="M194.123 75.624V74.567L193.059 72.9431H193.614L194.365 74.1304L195.123 72.9431H195.663L194.598 74.5555V75.624H194.123Z" fill="black"/>
<path d="M189.021 75.624V72.9431H191.017V73.3721H189.493V74.1036H190.844V74.5325H189.493V75.624H189.021Z" fill="black"/>
<path d="M186.033 75.624V72.9431H186.504V75.624H186.033Z" fill="black"/>
<path d="M181.836 75.624V72.9431H182.307V75.1951H183.716V75.624H181.836Z" fill="black"/>
<path d="M177.477 75.624V72.9431H178.534C178.845 72.9431 179.093 73.0248 179.277 73.1882C179.46 73.3516 179.552 73.5712 179.552 73.847C179.552 74.1355 179.45 74.3602 179.246 74.521C179.044 74.6819 178.789 74.7623 178.48 74.7623H177.948V75.624H177.477ZM177.948 74.3372H178.495C178.671 74.3372 178.812 74.2925 178.917 74.2031C179.021 74.1138 179.074 73.9963 179.074 73.8508C179.074 73.6976 179.021 73.5801 178.917 73.4984C178.814 73.4142 178.674 73.3721 178.495 73.3721H177.948V74.3372Z" fill="black"/>
<path d="M172.352 75.624V72.9431H172.853L173.669 74.2108L174.485 72.9431H174.986V75.624H174.515V73.7014L173.669 74.9653H173.654L172.815 73.7091V75.624H172.352Z" fill="black"/>
<path d="M169.363 75.624V72.9431H169.834V75.624H169.363Z" fill="black"/>
<path d="M166.025 75.6624C165.598 75.6624 165.225 75.5194 164.906 75.2335L165.19 74.8964C165.458 75.1288 165.74 75.2449 166.036 75.2449C166.182 75.2449 166.296 75.2143 166.381 75.153C166.468 75.0892 166.511 75.0049 166.511 74.9003C166.511 74.8007 166.47 74.7215 166.388 74.6628C166.307 74.6015 166.146 74.5428 165.906 74.4866C165.594 74.4126 165.367 74.3194 165.224 74.2071C165.084 74.0922 165.013 73.9173 165.013 73.6824C165.013 73.4526 165.099 73.2662 165.27 73.1232C165.441 72.9777 165.661 72.9049 165.929 72.9049C166.296 72.9049 166.621 73.0172 166.902 73.2419L166.649 73.5981C166.401 73.4143 166.159 73.3224 165.921 73.3224C165.786 73.3224 165.679 73.353 165.599 73.4143C165.523 73.4756 165.485 73.5534 165.485 73.6479C165.485 73.7526 165.527 73.8343 165.611 73.893C165.698 73.9492 165.868 74.0079 166.12 74.0692C166.416 74.1407 166.634 74.2364 166.771 74.3564C166.912 74.4764 166.982 74.6449 166.982 74.862C166.982 75.1096 166.894 75.3049 166.718 75.4479C166.542 75.5909 166.311 75.6624 166.025 75.6624Z" fill="black"/>
</svg>
