<svg width="224" height="120" viewBox="0 0 224 120" fill="none" xmlns="http://www.w3.org/2000/svg">
<path d="M194.404 79H28.5963C23.2931 79 19 74.742 19 69.4821V50.5179C19 45.258 23.2931 41 28.5963 41H194.404C199.707 41 204 45.258 204 50.5179V69.4821C204 74.742 199.671 79 194.404 79ZM28.5963 42.2524C23.9785 42.2524 20.2627 45.9379 20.2627 50.5179V69.4821C20.2627 74.0621 24.0146 77.7834 28.6324 77.7834H194.44C199.058 77.7834 202.809 74.0621 202.809 69.4821V50.5179C202.809 45.9379 199.058 42.2166 194.44 42.2166H28.5963V42.2524Z" fill="#C41C42"/>
<path fill-rule="evenodd" clip-rule="evenodd" d="M41.2621 71.1283H27.1562V48.908H32.6038V66.4767H41.2621V71.1283ZM49.2737 71.1283H43.8262V48.908H49.2737V71.1283ZM66.3361 71.1283H72.4691V48.908H67.202L67.3463 63.3995H67.2381L58.255 48.908H52.0859V71.1283H57.3531L57.2088 56.601H57.317L66.3361 71.1283Z" fill="#C41C42"/>
<path d="M181.959 62.4691H187.587L184.809 54.8477L181.959 62.4691Z" fill="#C41C42"/>
<path d="M161.97 53.2373H159.084V58.4256H161.645C164.279 58.4256 165.578 57.5311 165.578 55.742C165.578 54.0603 164.387 53.2373 161.97 53.2373Z" fill="#C41C42"/>
<path d="M88.0879 62.4691H93.7158L90.9379 54.8477L88.0879 62.4691Z" fill="#C41C42"/>
<path d="M195.92 41.9661H76.9395V78.7495H195.92C200.032 78.7495 203.351 75.4576 203.351 71.3785V49.3728C203.351 45.2937 200.032 41.9661 195.92 41.9661ZM96.9619 71.128L95.1941 66.7627H86.5358L84.8763 71.128H78.9958L88.4118 48.9077H93.6789L102.987 71.128H96.9619ZM122.432 69.8041C119.979 71.0922 117.093 71.7363 113.774 71.7363C110.166 71.7363 107.208 70.6629 104.899 68.4802C102.59 66.2975 101.435 63.5066 101.435 60C101.435 56.4934 102.59 53.6666 104.899 51.5197C107.208 49.3728 110.094 48.2994 113.593 48.2994C115.325 48.2994 116.948 48.5499 118.5 49.0866C120.051 49.6233 121.277 50.3389 122.251 51.2335L118.824 55.0979C117.634 53.7024 115.938 53.0226 113.774 53.0226C111.861 53.0226 110.31 53.6666 109.047 54.9905C107.785 56.3145 107.172 57.9604 107.172 59.9642C107.172 62.0753 107.785 63.757 108.975 65.0452C110.166 66.3333 111.861 66.9774 114.026 66.9774C115.361 66.9774 116.479 66.7627 117.417 66.3691V62.3615H113.16V57.9962H122.396V69.8041H122.432ZM146.783 68.4444C145.376 69.7683 143.789 70.6986 141.949 71.1996L140.542 66.3691C141.336 66.047 142.057 65.5461 142.671 64.8663C143.861 63.5781 144.475 61.8964 144.475 59.8926C144.475 57.9246 143.861 56.3145 142.671 55.0263C141.48 53.7382 139.929 53.0941 138.053 53.0941C136.177 53.0941 134.626 53.7382 133.435 55.0263C132.245 56.3145 131.631 57.9246 131.631 59.8926C131.631 61.8964 132.245 63.5423 133.435 64.8663C134.048 65.5461 134.77 66.047 135.6 66.3691L134.409 71.2712C132.461 70.7702 130.766 69.8041 129.322 68.4444C127.014 66.2617 125.859 63.3992 125.859 59.9284C125.859 56.4218 127.014 53.5951 129.286 51.484C131.559 49.3728 134.481 48.2994 138.053 48.2994C141.625 48.2994 144.547 49.3728 146.856 51.484C149.128 53.5951 150.283 56.4218 150.283 59.9284C150.211 63.435 149.092 66.2617 146.783 68.4444ZM165.796 71.128L160.962 62.29H159.122V71.128H153.818V48.9077H162.368C163.523 48.9077 164.569 49.015 165.543 49.2655C166.517 49.4802 167.419 49.8738 168.249 50.3747C169.079 50.8757 169.764 51.5913 170.233 52.4858C170.702 53.3804 170.955 54.4538 170.955 55.6704C170.955 57.1374 170.558 58.3898 169.728 59.4275C168.898 60.4651 167.78 61.2165 166.301 61.6459L172.145 71.1638H165.796V71.128ZM190.797 71.128L189.065 66.7627H180.407L178.747 71.128H172.867L182.283 48.9077H187.55L196.858 71.128H190.797Z" fill="#C41C42"/>
</svg>
