<svg width="224" height="120" viewBox="0 0 224 120" fill="none" xmlns="http://www.w3.org/2000/svg">
<path d="M44.586 42H11V76.5952H44.586V42Z" fill="#FF4438"/>
<path d="M27.0064 54.9502V57.4084L31.1392 53.1515L27.0064 48.8945V51.3528H24.5035C22.0588 51.3528 20.0215 53.3913 20.0215 55.9695V60.2864H23.5722V55.9695C23.5722 55.4299 23.9796 55.0102 24.5035 55.0102H27.0064V54.9502Z" fill="white"/>
<path d="M32.0807 58.4281V62.745C32.0807 63.2846 31.6732 63.7043 31.1494 63.7043H28.6464V61.2461L24.5137 65.5031L28.6464 69.76V67.3018H31.1494C33.5941 67.3018 35.6314 65.2632 35.6314 62.6851V58.3682H32.0807V58.4281Z" fill="white"/>
<path d="M67.6908 64.0643V49.075H71.2997V66.6425C71.2997 68.8009 70.4266 69.7602 68.855 69.7602C67.3998 69.7602 66.4685 69.1007 65.4207 67.0622L59.1343 54.4712V69.5204H55.5254V51.953C55.5254 49.7945 56.4567 48.8352 57.9701 48.8352C59.3671 48.8352 60.4149 49.5547 61.4044 51.5333L67.6908 64.0643Z" fill="#636569"/>
<path d="M74.9199 61.7254C74.9199 56.0295 76.6662 53.6912 81.7302 53.6912C87.26 53.6912 88.4242 56.689 88.4242 61.4256C88.4242 61.8453 88.4242 62.265 88.3659 62.6847C86.6197 62.9845 83.2437 63.3443 81.1482 63.4642L78.6452 63.5841C78.7616 66.0423 80.0422 66.6419 82.2541 66.6419C84.2914 66.6419 86.154 66.4021 87.7257 66.2222L88.0167 69.1601C86.3869 69.4599 84.2914 69.7597 81.381 69.7597C76.2587 69.7597 74.9199 66.3421 74.9199 61.7254ZM81.1482 60.7661C82.1377 60.7061 83.6511 60.5862 84.5824 60.4663C84.5824 60.2864 84.6406 60.0466 84.6406 59.8667C84.6406 57.8282 83.8839 56.689 81.7302 56.689C78.9363 56.689 78.587 58.4877 78.587 60.946L81.1482 60.7661Z" fill="#636569"/>
<path d="M96.8626 49.4949V53.9317H99.8894V56.8696H96.8626V64.9638C96.8626 66.2829 97.3865 66.7625 98.6671 66.7625C99.0745 66.7625 99.5402 66.7625 99.9477 66.7026L100.239 69.4606C99.4238 69.5805 98.4342 69.7604 97.6193 69.7604C94.4179 69.7604 93.0791 68.3214 93.0791 65.3235V56.8696H90.5762V53.9317H93.0791V50.1544L96.8626 49.4949Z" fill="#636569"/>
<path d="M115.377 52.3725H109.906C107.519 52.3725 107.112 52.8521 107.112 55.1305V57.4688H115.028V60.7665H107.112V63.4046C107.112 65.683 107.519 66.1626 109.906 66.1626H115.377V69.4003C113.98 69.4602 111.303 69.5802 109.964 69.5802C106.355 69.5802 103.037 69.4003 103.037 64.6037V53.9913C103.037 49.1948 106.355 49.0149 109.964 49.0149C111.419 49.0149 113.98 49.0748 115.377 49.1348V52.3725Z" fill="#FF4438"/>
<path d="M128.918 53.8706H132.993L127.871 61.3652L133.4 69.5194H128.977L125.601 64.3631L122.283 69.5194H118.092L123.622 61.4252L118.499 53.8706H122.865L125.892 58.5473L128.918 53.8706Z" fill="#FF4438"/>
<path d="M139.922 75.3357H136.139V58.128C136.139 57.0488 136.197 56.1494 136.255 55.1301C137.943 54.1109 140.33 53.6912 142.367 53.6912C147.431 53.6912 149.585 55.6098 149.585 61.7254C149.585 67.7811 147.489 69.7597 142.833 69.7597C141.901 69.7597 140.854 69.6397 139.922 69.3999V75.3357ZM142.076 66.7018C145.685 66.7018 145.801 64.6033 145.801 61.7254C145.801 59.1473 145.685 56.749 142.425 56.749C141.61 56.749 140.621 56.8689 140.039 57.1687C139.98 57.8282 139.922 58.5477 139.922 59.2672V66.3421C140.562 66.522 141.377 66.7018 142.076 66.7018Z" fill="#FF4438"/>
<path d="M152.684 47.8149H156.467V65.2624C156.467 66.6415 156.758 67.6008 157.515 68.68L154.197 70.2988C153.207 69.0997 152.684 67.7207 152.684 65.5622V47.8149Z" fill="#FF4438"/>
<path d="M159.777 61.7254C159.777 55.9096 161.582 53.6912 166.588 53.6912C171.594 53.6912 173.398 55.9695 173.398 61.7254C173.398 67.4813 171.594 69.7597 166.588 69.7597C161.582 69.7597 159.777 67.5413 159.777 61.7254ZM169.614 61.7254C169.614 57.9481 168.974 56.8089 166.588 56.8089C164.201 56.8089 163.561 57.7682 163.561 61.7254C163.561 65.6826 164.201 66.6419 166.588 66.6419C168.974 66.5819 169.614 65.5027 169.614 61.7254Z" fill="#FF4438"/>
<path d="M176.707 69.5198V58.128C176.707 57.0488 176.765 56.1494 176.823 55.1301C178.511 54.1109 180.898 53.6912 182.935 53.6912C183.517 53.6912 183.983 53.6912 184.507 53.7511L184.216 56.8689C183.925 56.8089 183.517 56.8089 183.11 56.8089C182.237 56.8089 181.189 56.9888 180.607 57.2886C180.549 57.9481 180.491 58.6676 180.491 59.3871V69.5198H176.707Z" fill="#FF4438"/>
<path d="M186.373 61.7254C186.373 56.0295 188.119 53.6912 193.183 53.6912C198.713 53.6912 199.877 56.689 199.877 61.4256C199.877 61.8453 199.877 62.265 199.819 62.6847C198.073 62.9845 194.697 63.3443 192.601 63.4642L190.098 63.5841C190.215 66.0423 191.495 66.6419 193.707 66.6419C195.745 66.6419 197.607 66.4021 199.179 66.2222L199.47 69.1601C197.84 69.4599 195.745 69.7597 192.834 69.7597C187.712 69.7597 186.373 66.3421 186.373 61.7254ZM192.66 60.7661C193.649 60.7061 195.162 60.5862 196.094 60.4663C196.094 60.2864 196.152 60.0466 196.152 59.8667C196.152 57.8282 195.395 56.689 193.242 56.689C190.448 56.689 190.098 58.4877 190.098 60.946L192.66 60.7661Z" fill="#FF4438"/>
<path d="M203.199 69.5198V58.128C203.199 57.0488 203.257 56.1494 203.316 55.1301C205.004 54.1109 207.39 53.6912 209.427 53.6912C210.01 53.6912 210.475 53.6912 210.999 53.7511L210.708 56.8689C210.417 56.8089 210.01 56.8089 209.602 56.8089C208.729 56.8089 207.681 56.9888 207.099 57.2886C207.041 57.9481 206.983 58.6676 206.983 59.3871V69.5198H203.199Z" fill="#FF4438"/>
</svg>
