<svg width="224" height="120" viewBox="0 0 224 120" fill="none" xmlns="http://www.w3.org/2000/svg">
<path fill-rule="evenodd" clip-rule="evenodd" d="M108.496 63.2422H97.3451L99.8132 67.0034H111.096L113.421 70.7646H118.347L105.135 50.512C104.584 49.7122 103.626 49.2356 102.601 49.2356C101.543 49.2356 100.596 49.7292 100.023 50.5461L86.8552 70.7646H91.7807L102.601 53.9329L108.496 63.2422ZM148.505 49.4399V67.0034H167.975L165.518 70.7646H146.456C145.872 70.7646 145.332 70.5434 144.935 70.1519C144.539 69.7605 144.329 69.2499 144.329 68.7223V49.4399H148.505ZM86.7229 56.6559C86.7229 60.6384 83.4284 63.8549 79.3625 63.8549H77.4563L85.8526 70.7646H79.7812L67.3079 60.0937L79.087 60.1108C81.0263 60.1108 82.5909 58.562 82.5909 56.6559C82.5909 54.7498 81.0263 53.201 79.087 53.201H65.2584V70.7646H61.0823V49.4399H79.3625C83.4284 49.4399 86.7229 52.6735 86.7229 56.6559ZM24.5 60.1108C24.5 65.9993 29.3703 70.7646 35.3645 70.7646H47.992C53.9972 70.7646 58.8566 65.9993 58.8566 60.1108C58.8566 54.2221 53.9972 49.4399 47.992 49.4399H35.3645C29.3703 49.4399 24.5 54.2221 24.5 60.1108ZM54.7465 60.1108C54.7465 63.9229 51.6061 67.0034 47.7165 67.0034H35.64C31.7614 67.0034 28.61 63.9229 28.61 60.1108C28.61 56.2985 31.7614 53.201 35.64 53.201H47.7165C51.6061 53.201 54.7465 56.2985 54.7465 60.1108ZM116.198 60.1108C116.198 65.9993 121.068 70.7646 127.074 70.7646H139.955L142.423 67.0034H127.349C123.46 67.0034 120.308 63.9229 120.308 60.1108C120.308 56.2985 123.46 53.201 127.349 53.201H139.624L142.07 49.4399H127.074C121.068 49.4399 116.198 54.2221 116.198 60.1108ZM171.413 61.9828C172.24 64.893 174.961 67.0034 178.179 67.0034H193.241L190.784 70.7646H177.892C171.898 70.7646 167.028 65.9993 167.028 60.1108C167.028 54.2221 171.898 49.4399 177.892 49.4399H192.911L190.432 53.201H178.179C174.961 53.201 172.24 55.3284 171.413 58.2216H191.732L189.275 61.9828H171.413ZM197.065 49.8313C196.007 49.8313 195.148 50.6652 195.148 51.7034C195.148 52.7585 196.007 53.5924 197.065 53.5924C198.134 53.5924 198.982 52.7585 198.982 51.7034C198.982 50.6652 198.134 49.8313 197.065 49.8313ZM199.5 51.7203C199.5 53.0479 198.409 54.12 197.065 54.12C195.721 54.12 194.63 53.0479 194.63 51.7203C194.63 50.3929 195.721 49.3207 197.065 49.3207C198.409 49.3207 199.5 50.3929 199.5 51.7203ZM197.55 50.3758C197.373 50.3078 197.219 50.2908 196.834 50.2908H196.139V52.9798H196.679V51.9587H197.065L197.616 52.9798H198.222L197.594 51.8735C197.638 51.8535 197.66 51.8394 197.682 51.8278C197.693 51.8195 197.704 51.8124 197.715 51.8055C197.957 51.6522 198.035 51.4481 198.046 51.3459C198.079 51.2439 198.079 51.1587 198.079 51.1247C198.079 50.9545 198.035 50.529 197.55 50.3758ZM197.076 51.5115C197.054 51.513 197.043 51.5145 197.021 51.5161H196.679V50.7333H196.834C197.098 50.7333 197.219 50.7333 197.34 50.7843C197.462 50.8524 197.55 50.9715 197.55 51.1077C197.55 51.2098 197.528 51.2778 197.473 51.3459C197.384 51.4843 197.23 51.4977 197.076 51.5115Z" fill="#F80000"/>
</svg>
