<svg width="224" height="120" viewBox="0 0 224 120" fill="none" xmlns="http://www.w3.org/2000/svg">
<path d="M203.523 77.5476H201.697C201.623 76.6961 201.055 76.2395 200.031 76.2395C199.142 76.2395 198.611 76.6097 198.611 77.2391C198.611 78.0042 199.549 78.0659 201.302 78.5595C202.869 79.0038 203.869 79.6085 203.869 81.0771C203.869 83.1503 202.042 83.9155 200.253 83.9155C197.871 83.9155 196.464 82.7678 196.439 80.7809H198.352C198.389 81.9656 199.167 82.4346 200.339 82.4346C201.351 82.4346 201.968 81.9903 201.968 81.2622C201.968 80.5711 201.376 80.4477 199.562 79.9294C198.13 79.5221 196.76 79.1642 196.76 77.3748C196.76 75.7828 198.093 74.7462 200.142 74.7462C201.993 74.7462 203.486 75.5854 203.523 77.5476Z" fill="#EF001B"/>
<path d="M187.502 83.718V74.9313H189.464L193.08 80.8179V74.9313H194.931V83.718H193.006L189.365 77.819V83.718H187.502Z" fill="#EF001B"/>
<path d="M181.5 74.7214C184.067 74.7214 185.807 76.5849 185.807 79.3369C185.807 82.0766 184.067 83.9277 181.488 83.9277C178.884 83.9277 177.144 82.0889 177.144 79.3369C177.144 76.5479 178.871 74.7214 181.5 74.7214ZM181.475 76.3011C180.019 76.3011 179.093 77.4734 179.093 79.2999C179.093 81.188 180.007 82.3234 181.5 82.3357C182.956 82.3357 183.857 81.1757 183.857 79.2999C183.857 77.4488 182.944 76.3011 181.475 76.3011Z" fill="#EF001B"/>
<path d="M175.453 74.9313V83.718H173.516V74.9313H175.453Z" fill="#EF001B"/>
<path d="M172.131 74.9313V76.5726H169.49V83.718H167.552V76.5726H164.911V74.9313H172.131Z" fill="#EF001B"/>
<path d="M163.563 74.9313V80.2132C163.563 82.7184 162.391 83.8907 159.824 83.8907C157.208 83.8907 156.035 82.6937 156.035 80.1885V74.9313H157.96V80.1885C157.96 81.5336 158.343 82.2988 159.848 82.2988C161.329 82.2988 161.638 81.4843 161.638 80.1885V74.9313H163.563Z" fill="#EF001B"/>
<path d="M154.618 82.0643V83.718H148.398V74.9313H150.324V82.0643H154.618Z" fill="#EF001B"/>
<path d="M142.397 74.7214C144.964 74.7214 146.704 76.5849 146.704 79.3369C146.704 82.0766 144.964 83.9277 142.385 83.9277C139.781 83.9277 138.041 82.0889 138.041 79.3369C138.041 76.5479 139.769 74.7214 142.397 74.7214ZM142.373 76.3011C140.916 76.3011 139.991 77.4734 139.991 79.2999C139.991 81.188 140.904 82.3234 142.397 82.3357C143.854 82.3357 144.754 81.1757 144.754 79.2999C144.754 77.4488 143.841 76.3011 142.373 76.3011Z" fill="#EF001B"/>
<path d="M136.543 77.5476H134.716C134.642 76.6961 134.074 76.2395 133.05 76.2395C132.162 76.2395 131.631 76.6097 131.631 77.2391C131.631 78.0042 132.569 78.0659 134.321 78.5595C135.889 79.0038 136.888 79.6085 136.888 81.0771C136.888 83.1503 135.062 83.9155 133.272 83.9155C130.891 83.9155 129.484 82.7678 129.459 80.7809H131.372C131.409 81.9656 132.186 82.4346 133.359 82.4346C134.371 82.4346 134.988 81.9903 134.988 81.2622C134.988 80.5711 134.395 80.4477 132.581 79.9294C131.15 79.5221 129.78 79.1642 129.78 77.3748C129.78 75.7828 131.113 74.7462 133.161 74.7462C135.012 74.7462 136.506 75.5854 136.543 77.5476Z" fill="#EF001B"/>
<path d="M117.032 74.9313H121.401C123.018 74.9313 124.363 75.6594 124.363 77.4241C124.363 78.4484 123.844 79.2506 122.968 79.5838C123.943 79.7812 124.19 80.7685 124.264 81.6324C124.313 82.1877 124.338 83.3971 124.684 83.718H122.684C122.462 83.2737 122.462 82.3975 122.413 81.9162C122.289 80.7068 121.919 80.2749 120.66 80.2749H118.945V83.718H117.032V74.9313ZM118.945 76.4492V78.8803H120.772C121.672 78.8803 122.475 78.7199 122.475 77.6339C122.475 76.622 121.672 76.4492 120.858 76.4492H118.945Z" fill="#EF001B"/>
<path d="M110.956 74.7214C113.523 74.7214 115.263 76.5849 115.263 79.3369C115.263 82.0766 113.523 83.9277 110.944 83.9277C108.34 83.9277 106.6 82.0889 106.6 79.3369C106.6 76.5479 108.327 74.7214 110.956 74.7214ZM110.931 76.3011C109.475 76.3011 108.549 77.4734 108.549 79.2999C108.549 81.188 109.463 82.3234 110.956 82.3357C112.412 82.3357 113.313 81.1757 113.313 79.2999C113.313 77.4488 112.4 76.3011 110.931 76.3011Z" fill="#EF001B"/>
<path d="M105.596 74.9313V76.5726H102.955V83.718H101.018V76.5726H98.377V74.9313H105.596Z" fill="#EF001B"/>
<path d="M93.0663 74.7214C95.6332 74.7214 97.3732 76.5849 97.3732 79.3369C97.3732 82.0766 95.6332 83.9277 93.0539 83.9277C90.45 83.9277 88.71 82.0889 88.71 79.3369C88.71 76.5479 90.4377 74.7214 93.0663 74.7214ZM93.0416 76.3011C91.5854 76.3011 90.6598 77.4734 90.6598 79.2999C90.6598 81.188 91.573 82.3234 93.0663 82.3357C94.5225 82.3357 95.4234 81.1757 95.4234 79.2999C95.4234 77.4488 94.5102 76.3011 93.0416 76.3011Z" fill="#EF001B"/>
<path d="M77.5264 83.718V74.9313H80.2784L82.327 80.966L84.3262 74.9313H87.0165V83.718H85.2024V77.4735L83.0427 83.718H81.5495L79.3651 77.5352V83.718H77.5264Z" fill="#EF001B"/>
<path d="M69.2717 74.9189L72.6161 83.7179H70.5921L69.9011 81.7557H66.6307L65.915 83.7179H63.9404L67.2848 74.9189H69.2717ZM69.4321 80.3489L68.2721 77.0785L67.0997 80.3489H69.4321Z" fill="#EF001B"/>
<path d="M62.8273 74.9313V83.718H60.9021V79.9293H57.3109V83.718H55.3857V74.9313H57.3109V78.2386H60.9021V74.9313H62.8273Z" fill="#EF001B"/>
<path d="M50.9357 74.9189L54.2801 83.718H52.2562L51.5651 81.7558H48.2948L47.579 83.718H45.6045L48.9489 74.9189H50.9357ZM51.0962 80.3489L49.9361 77.0786L48.7638 80.3489H51.0962Z" fill="#EF001B"/>
<path d="M35.001 83.718V74.9313H37.753L39.8016 80.966L41.8008 74.9313H44.4911V83.718H42.677V77.4735L40.5173 83.718H39.0241L36.8398 77.5352V83.718H35.001Z" fill="#EF001B"/>
<path d="M30.551 74.9189L33.8954 83.718H31.8714L31.1804 81.7558H27.91L27.1943 83.718H25.2197L28.5641 74.9189H30.551ZM30.7114 80.3489L29.5514 77.0786L28.379 80.3489H30.7114Z" fill="#EF001B"/>
<path d="M25.9877 74.9313L22.7173 80.3366V83.718H20.8168V80.2995L17.5342 74.9313H19.7309L21.7794 78.4484L23.8527 74.9313H25.9877Z" fill="#EF001B"/>
<path fill-rule="evenodd" clip-rule="evenodd" d="M28.3409 38.4682H18.4682V36.2055L34.0999 36V38.4682H33.2772V43.4045H34.9226L37.3908 36H42.3272L41.5044 40.1136H44.384L45.6181 36H50.5544L48.909 40.1136H53.0226V43.4045H48.909V48.3409H53.0226V50.809H48.909V56.5681H53.0226V59.0363H48.909V66.4408H53.8453V69.7317H35.7454V45.05H32.4545V66.4408C32.4545 68.7444 31.3575 69.5946 30.809 69.7317H24.2272V68.0862L28.3409 66.4408V51.6318H18.4682V48.3409L20.525 40.9363H23.8159L22.5818 48.3409H28.3409V38.4682ZM39.859 47.5181V43.4045H43.9726V47.5181H39.859ZM39.859 56.5681V50.809H43.9726V56.5681H39.859ZM39.859 59.0363V66.4408C41.2302 66.5779 43.9726 66.7699 43.9726 66.4408V59.0363H39.859Z" fill="#DD051C"/>
<path d="M26.284 53.2772H21.7591C20.7992 56.0196 18.7973 61.669 18.4682 62.3272C18.1391 62.9853 16.6856 63.6984 16 63.9726V64.7953H22.5818L26.284 53.2772Z" fill="#DD051C"/>
<path d="M56.3135 59.0363V63.1499L80.1725 62.3272V59.0363H56.3135Z" fill="#DD051C"/>
<path d="M59.6044 39.2909H62.8953L59.193 55.334H83.8747V64.7953C83.8747 66.1117 82.7778 66.4408 82.2293 66.4408H74.002L72.768 69.7317H87.1656C89.4692 69.7317 90.0452 67.812 90.0452 66.8521V52.0431H65.7748L68.6543 39.2909H78.9384C78.3899 41.6219 77.2107 46.3663 76.8816 46.6954C76.5525 47.0245 75.099 47.1068 74.4134 47.1068L72.768 49.9863H79.7611C80.5838 49.3007 82.4761 47.5181 83.4634 45.8727C84.4506 44.2272 84.9717 38.6053 85.1088 36H60.4271L59.6044 39.2909Z" fill="#DD051C"/>
<path fill-rule="evenodd" clip-rule="evenodd" d="M93.3361 40.525V68.0862H102.797C103.483 67.9491 104.854 67.2635 104.854 65.6181V48.7522C106.225 48.8893 109.297 48.9168 110.613 47.9295C111.93 46.9422 114.453 43.953 115.55 42.5818H117.195L122.543 47.9295C123.228 48.3409 125.34 49.1636 128.302 49.1636V46.6954C128.028 46.6954 127.232 46.5309 126.245 45.8727C125.258 45.2145 121.172 39.5651 119.252 36.8227H120.486V36H113.904L107.322 45.05C107.048 45.3242 106.171 45.8727 104.854 45.8727V37.6454H95.3929C94.7073 38.1939 93.3361 39.5377 93.3361 40.525ZM97.4497 64.7953V41.7591L99.0951 40.9363H100.741V63.1499L99.0951 64.7953H97.4497Z" fill="#DD051C"/>
<path d="M107.322 52.8658V50.809H127.89V53.2772L107.322 52.8658Z" fill="#DD051C"/>
<path fill-rule="evenodd" clip-rule="evenodd" d="M109.379 54.9226C108.694 55.334 107.322 56.4036 107.322 57.3908V69.7317H125.011C125.697 69.4574 127.068 68.5799 127.068 67.2635V54.9226H109.379ZM113.081 59.0363V66.4408H120.486L121.309 65.6181V58.2135H113.904L113.081 59.0363Z" fill="#DD051C"/>
<path d="M130.359 48.7522H132.415V69.7317H138.586V44.2272L141.054 36H135.706L131.593 47.5181H130.359V48.7522Z" fill="#DD051C"/>
<path d="M150.927 38.4682H141.054V41.7591H167.381V38.4682H157.509L159.154 36H152.572L150.927 38.4682Z" fill="#DD051C"/>
<path d="M142.699 44.2272H165.736V47.5181H142.699V44.2272Z" fill="#DD051C"/>
<path d="M165.736 49.1636H142.699V52.4545H165.736V49.1636Z" fill="#DD051C"/>
<path fill-rule="evenodd" clip-rule="evenodd" d="M170.672 42.1704L175.608 36H182.19L179.722 39.2909H203.17V52.8658L200.702 55.334H170.672V42.1704ZM194.531 44.2272H176.431L177.254 42.5818H196.999V51.6318L196.177 52.4545H176.431V50.809H194.531V48.3409H176.431V46.6954H194.531V44.2272Z" fill="#DD051C"/>
<path d="M183.836 57.3908H177.665V67.2635L179.722 69.7317H195.354L193.708 66.4408H183.836V57.3908Z" fill="#DD051C"/>
<path d="M169.027 59.859L170.672 57.3908H174.786V67.2635L173.14 69.7317H169.027V59.859Z" fill="#DD051C"/>
<path fill-rule="evenodd" clip-rule="evenodd" d="M141.877 57.3908V69.7317H164.09L166.558 67.2635V54.9226H144.345L141.877 57.3908ZM147.636 66.4408V59.0363L148.459 58.2135H160.799V65.6181L159.977 66.4408H147.636Z" fill="#DD051C"/>
<path fill-rule="evenodd" clip-rule="evenodd" d="M187.394 64.4103C186.591 64.2312 184.781 62.9002 185.211 60.973C185.64 59.0458 187.845 58.6102 188.648 58.7893C190.158 59.1261 190.576 59.9073 190.879 60.4722C191.059 60.8084 191.198 61.0681 191.502 61.1117C194.132 61.4897 195.756 60.815 197.311 60.1689C198.894 59.5111 200.406 58.883 202.836 59.4251C205.647 60.0519 207.206 62.5072 206.49 65.7191C205.773 68.9311 202.917 70.4013 200.508 69.864C197.389 69.1683 196.341 67.8042 195.33 66.4888C194.389 65.2642 193.481 64.082 190.964 63.5207C190.439 63.4034 190.074 63.6433 189.663 63.9137C189.133 64.2628 188.525 64.6626 187.394 64.4103ZM201.155 66.8706C202.519 66.8706 203.624 65.7656 203.624 64.4025C203.624 63.0393 202.519 61.9343 201.155 61.9343C199.792 61.9343 198.687 63.0393 198.687 64.4025C198.687 65.7656 199.792 66.8706 201.155 66.8706Z" fill="#DD051C"/>
</svg>
