<svg width="1052" height="337" viewBox="0 0 1052 337" fill="none" xmlns="http://www.w3.org/2000/svg">
<path d="M405.968 122.642C413.161 122.642 420.34 123.276 427.389 124.54C432.705 101.026 449.891 80.9678 474.02 70.111C498.145 59.2541 526.558 58.7988 551.115 68.8725C573.338 14.6181 640.978 -13.3944 702.192 6.30202C763.407 25.9984 795.013 85.9515 772.79 140.202C826.413 141.704 868.77 181.041 867.968 228.584C867.162 276.131 823.488 314.32 769.837 314.396H405.968C346.227 314.396 297.79 271.471 297.79 218.519C297.79 165.567 346.227 122.642 405.968 122.642Z" fill="url(#paint0_linear_1457_3929)"/>
<path d="M326.094 222.646C320.522 222.646 315.114 223.283 309.961 224.473C300.726 212.586 285.323 204.8 267.874 204.8C262.205 204.8 256.762 205.633 251.665 207.149C243.074 173.265 209.11 147.951 168.495 147.951C121.39 147.951 83.2052 181.985 83.2052 223.969C83.2052 224.835 83.2474 225.692 83.2766 226.547C77.282 224.872 70.9051 223.969 64.291 223.969C29.2718 223.969 0.880859 249.268 0.880859 280.488C0.880859 311.699 29.273 337 64.291 337H326.097C361.529 337 390.253 311.4 390.253 279.823C390.251 248.244 361.527 222.646 326.094 222.646Z" fill="url(#paint1_linear_1457_3929)"/>
<path d="M1012.39 149.894C1008.95 149.894 1005.61 150.292 1002.43 151.036C996.725 143.607 987.215 138.741 976.441 138.741C972.941 138.741 969.581 139.261 966.434 140.209C961.13 119.031 940.16 103.21 915.084 103.21C886.001 103.21 862.425 124.482 862.425 150.721C862.425 151.262 862.451 151.798 862.469 152.333C858.768 151.286 854.831 150.721 850.747 150.721C829.126 150.721 811.597 166.533 811.597 186.045C811.597 205.552 829.127 221.365 850.747 221.365H1012.39C1034.26 221.365 1052 205.366 1052 185.63C1052 165.893 1034.26 149.894 1012.39 149.894Z" fill="url(#paint2_linear_1457_3929)"/>
<defs>
<linearGradient id="paint0_linear_1457_3929" x1="582.885" y1="0" x2="582.885" y2="314.396" gradientUnits="userSpaceOnUse">
<stop stop-color="white"/>
<stop offset="1" stop-color="#F2F2F2"/>
</linearGradient>
<linearGradient id="paint1_linear_1457_3929" x1="195.567" y1="147.951" x2="195.567" y2="337" gradientUnits="userSpaceOnUse">
<stop stop-color="white"/>
<stop offset="1" stop-color="#F2F2F2"/>
</linearGradient>
<linearGradient id="paint2_linear_1457_3929" x1="931.798" y1="103.21" x2="931.798" y2="221.365" gradientUnits="userSpaceOnUse">
<stop stop-color="white"/>
<stop offset="1" stop-color="#F2F2F2"/>
</linearGradient>
</defs>
</svg>
