<svg width="128" height="32" viewBox="0 0 128 32" fill="none" xmlns="http://www.w3.org/2000/svg">
<path d="M19.6675 14.9827C19.6815 13.9546 19.9692 12.9466 20.5039 12.0524C21.0385 11.1583 21.8028 10.407 22.7256 9.86852C22.1394 9.07387 21.366 8.4199 20.467 7.95856C19.5679 7.49721 18.5679 7.24121 17.5464 7.21087C15.3673 6.99377 13.2547 8.44854 12.1443 8.44854C11.0124 8.44854 9.30273 7.23243 7.4617 7.26838C6.27086 7.3049 5.1103 7.63359 4.09309 8.22242C3.07588 8.81125 2.23671 9.64015 1.65734 10.6283C-0.852342 14.7527 1.01966 20.814 3.42372 24.1478C4.62653 25.7802 6.03227 27.6037 7.87164 27.5391C9.67158 27.4682 10.3438 26.4496 12.5165 26.4496C14.669 26.4496 15.2997 27.5391 17.1764 27.498C19.1078 27.4682 20.3247 25.8582 21.4853 24.2103C22.3495 23.0471 23.0146 21.7616 23.4557 20.4012C22.3336 19.9508 21.3761 19.1967 20.7024 18.2332C20.0288 17.2696 19.6688 16.1391 19.6675 14.9827Z" fill="white"/>
<path d="M16.1227 5.01851C17.1758 3.81856 17.6946 2.27623 17.569 0.719055C15.9601 0.87945 14.474 1.60932 13.4066 2.76323C12.8848 3.32694 12.4851 3.98275 12.2305 4.69317C11.9758 5.40359 11.8711 6.15468 11.9225 6.90351C12.7272 6.91138 13.5233 6.74582 14.2509 6.4193C14.9785 6.09279 15.6185 5.61384 16.1227 5.01851Z" fill="white"/>
<path d="M41.723 23.8876H35.6773L34.2255 28.1746H31.6648L37.3911 12.3139H40.0516L45.7779 28.1746H43.1736L41.723 23.8876ZM36.3035 21.9094H41.0957L38.7333 14.952H38.6672L36.3035 21.9094Z" fill="white"/>
<path d="M58.1449 22.3932C58.1449 25.9867 56.2215 28.2954 53.3191 28.2954C52.5838 28.3339 51.8526 28.1645 51.2092 27.8067C50.5657 27.4489 50.036 26.9172 49.6807 26.2723H49.6258V31.9999H47.2522V16.6108H49.5498V18.5341H49.5934C49.965 17.8923 50.5037 17.3633 51.152 17.0033C51.8004 16.6433 52.5342 16.4659 53.2754 16.4898C56.2103 16.4898 58.1449 18.8097 58.1449 22.3932ZM55.7052 22.3932C55.7052 20.0521 54.4953 18.5129 52.6493 18.5129C50.8357 18.5129 49.6159 20.0845 49.6159 22.3932C49.6159 24.7232 50.8357 26.2836 52.6493 26.2836C54.4953 26.2836 55.7052 24.7556 55.7052 22.3932Z" fill="white"/>
<path d="M70.8723 22.3932C70.8723 25.9867 68.949 28.2954 66.0465 28.2954C65.3113 28.3339 64.58 28.1645 63.9366 27.8067C63.2931 27.4489 62.7634 26.9171 62.4081 26.2723H62.3532V31.9999H59.9796V16.6108H62.2771V18.5341H62.3208C62.6924 17.8923 63.231 17.3633 63.8794 17.0033C64.5278 16.6433 65.2616 16.4659 66.0028 16.4898C68.9377 16.4898 70.8723 18.8097 70.8723 22.3932ZM68.4326 22.3932C68.4326 20.0521 67.2227 18.5129 65.3767 18.5129C63.5631 18.5129 62.3433 20.0845 62.3433 22.3932C62.3433 24.7232 63.5631 26.2835 65.3767 26.2835C67.2227 26.2835 68.4326 24.7556 68.4326 22.3932H68.4326Z" fill="white"/>
<path d="M79.284 23.7554C79.4599 25.3283 80.9878 26.361 83.0758 26.361C85.0765 26.361 86.5158 25.3282 86.5158 23.91C86.5158 22.6789 85.6477 21.9418 83.5922 21.4366L81.5366 20.9414C78.6242 20.238 77.2721 18.8759 77.2721 16.6657C77.2721 13.9291 79.657 12.0495 83.0434 12.0495C86.3948 12.0495 88.6924 13.9291 88.7697 16.6657H86.3736C86.2302 15.0829 84.9218 14.1275 83.0097 14.1275C81.0976 14.1275 79.7891 15.0941 79.7891 16.5011C79.7891 17.6224 80.6248 18.2822 82.6692 18.7873L84.4166 19.2164C87.6708 19.986 89.0229 21.2932 89.0229 23.6131C89.0229 26.5804 86.6592 28.4389 82.8999 28.4389C79.3825 28.4389 77.0077 26.6241 76.8542 23.7553L79.284 23.7554Z" fill="white"/>
<path d="M94.1456 13.8743V16.6108H96.3446V18.4905H94.1456V24.8654C94.1456 25.8558 94.5859 26.3173 95.5525 26.3173C95.8136 26.3127 96.0742 26.2944 96.3333 26.2624V28.1308C95.8987 28.212 95.457 28.2488 95.0149 28.2406C92.6738 28.2406 91.7608 27.3612 91.7608 25.1186V18.4905H90.0794V16.6108H91.7607V13.8743H94.1456Z" fill="white"/>
<path d="M97.6181 22.3933C97.6181 18.7549 99.7609 16.4686 103.102 16.4686C106.455 16.4686 108.588 18.7549 108.588 22.3933C108.588 26.0416 106.466 28.3179 103.102 28.3179C99.7397 28.3179 97.6181 26.0416 97.6181 22.3933ZM106.17 22.3933C106.17 19.8974 105.026 18.4244 103.102 18.4244C101.179 18.4244 100.037 19.9087 100.037 22.3933C100.037 24.8991 101.179 26.3609 103.102 26.3609C105.026 26.3609 106.17 24.8991 106.17 22.3933H106.17Z" fill="white"/>
<path d="M110.545 16.611H112.809V18.5792H112.864C113.017 17.9645 113.377 17.4212 113.884 17.0408C114.39 16.6603 115.012 16.4658 115.645 16.49C115.919 16.489 116.192 16.5187 116.459 16.5786V18.7987C116.113 18.6932 115.753 18.6448 115.392 18.6553C115.047 18.6413 114.703 18.7021 114.384 18.8335C114.065 18.9649 113.778 19.1638 113.543 19.4166C113.308 19.6693 113.131 19.97 113.023 20.2978C112.915 20.6256 112.88 20.9729 112.919 21.3158V28.1747H110.545L110.545 16.611Z" fill="white"/>
<path d="M127.402 24.7781C127.083 26.8773 125.039 28.3179 122.423 28.3179C119.059 28.3179 116.971 26.0641 116.971 22.4482C116.971 18.821 119.07 16.4686 122.323 16.4686C125.523 16.4686 127.534 18.6664 127.534 22.1725V22.9857H119.367V23.1292C119.329 23.5548 119.383 23.9835 119.523 24.3869C119.664 24.7903 119.889 25.1591 120.183 25.4689C120.478 25.7787 120.834 26.0224 121.23 26.1837C121.626 26.345 122.051 26.4203 122.478 26.4046C123.039 26.4571 123.602 26.3272 124.083 26.0342C124.564 25.7411 124.938 25.3006 125.148 24.7781L127.402 24.7781ZM119.378 21.3268H125.16C125.181 20.9442 125.123 20.5613 124.989 20.2021C124.855 19.8429 124.649 19.5153 124.383 19.2397C124.116 18.9641 123.796 18.7465 123.441 18.6007C123.087 18.4548 122.706 18.3837 122.323 18.392C121.937 18.3897 121.554 18.4639 121.196 18.6105C120.838 18.757 120.513 18.973 120.239 19.2458C119.965 19.5187 119.748 19.8431 119.601 20.2002C119.453 20.5574 119.377 20.9403 119.378 21.3269V21.3268Z" fill="white"/>
<path d="M36.0061 0.375317C36.5037 0.339606 37.003 0.414784 37.4681 0.595427C37.9332 0.776069 38.3523 1.05767 38.6954 1.41993C39.0384 1.78218 39.2968 2.21606 39.4518 2.69026C39.6069 3.16445 39.6548 3.66716 39.592 4.1621C39.592 6.59682 38.2762 7.99635 36.0061 7.99635H33.2533V0.375317H36.0061ZM34.437 6.91857H35.8739C36.2294 6.93983 36.5853 6.88152 36.9155 6.74791C37.2457 6.61429 37.542 6.40872 37.7827 6.14617C38.0235 5.88361 38.2027 5.57068 38.3072 5.23015C38.4118 4.88961 38.4391 4.53005 38.3872 4.17763C38.4353 3.82661 38.4052 3.46927 38.2991 3.13124C38.1929 2.7932 38.0133 2.48283 37.7731 2.22236C37.5329 1.9619 37.2381 1.75779 36.9097 1.62465C36.5814 1.49152 36.2276 1.43266 35.8739 1.45229H34.437V6.91857Z" fill="white"/>
<path d="M40.9292 5.11819C40.8931 4.74023 40.9363 4.35889 41.0561 3.99862C41.176 3.63836 41.3698 3.30712 41.6252 3.02615C41.8806 2.74518 42.1919 2.52069 42.5391 2.36707C42.8863 2.21345 43.2618 2.13409 43.6415 2.13409C44.0211 2.13409 44.3966 2.21345 44.7438 2.36707C45.0911 2.52069 45.4023 2.74518 45.6577 3.02615C45.9131 3.30712 46.1069 3.63836 46.2268 3.99862C46.3466 4.35889 46.3899 4.74023 46.3537 5.11819C46.3905 5.49653 46.3478 5.8784 46.2283 6.23925C46.1087 6.6001 45.915 6.93195 45.6596 7.21347C45.4042 7.49499 45.0926 7.71995 44.7451 7.8739C44.3975 8.02785 44.0216 8.10738 43.6415 8.10738C43.2613 8.10738 42.8854 8.02785 42.5378 7.8739C42.1903 7.71995 41.8788 7.49499 41.6233 7.21347C41.3679 6.93195 41.1742 6.6001 41.0546 6.23925C40.9351 5.8784 40.8924 5.49653 40.9292 5.11819ZM45.1862 5.11819C45.1862 3.87152 44.6262 3.14248 43.6433 3.14248C42.6567 3.14248 42.1017 3.87152 42.1017 5.1182C42.1017 6.37486 42.6568 7.09828 43.6433 7.09828C44.6262 7.09827 45.1862 6.36985 45.1862 5.11819H45.1862Z" fill="white"/>
<path d="M53.5642 7.9964H52.3868L51.1981 3.76058H51.1083L49.9246 7.9964H48.7584L47.1731 2.24512H48.3244L49.3546 6.63368H49.4394L50.6219 2.24512H51.7108L52.8932 6.63368H52.983L54.0083 2.24512H55.1433L53.5642 7.9964Z" fill="white"/>
<path d="M56.4767 2.24516H57.5693V3.1588H57.6541C57.798 2.83065 58.0407 2.55557 58.3483 2.3719C58.656 2.18823 59.0133 2.10511 59.3704 2.13414C59.6503 2.1131 59.9312 2.15529 60.1926 2.2576C60.4539 2.3599 60.6888 2.51968 60.88 2.72512C61.0712 2.93055 61.2137 3.17637 61.297 3.44436C61.3803 3.71235 61.4022 3.99564 61.3611 4.27325V7.99638H60.2261V4.55827C60.2261 3.63403 59.8244 3.17439 58.985 3.17439C58.795 3.16555 58.6053 3.19788 58.429 3.26919C58.2527 3.3405 58.0938 3.44909 57.9634 3.58752C57.833 3.72596 57.734 3.89096 57.6733 4.07121C57.6126 4.25147 57.5916 4.44272 57.6117 4.63186V7.99644H56.4767L56.4767 2.24516Z" fill="white"/>
<path d="M63.1697 -3.05176e-05H64.3047V7.99638H63.1697V-3.05176e-05Z" fill="white"/>
<path d="M65.8825 5.1183C65.8464 4.74031 65.8897 4.35895 66.0096 3.99867C66.1295 3.63839 66.3233 3.30714 66.5787 3.02617C66.8341 2.74519 67.1454 2.52069 67.4927 2.36707C67.8399 2.21345 68.2154 2.13409 68.5951 2.13409C68.9748 2.13409 69.3503 2.21345 69.6976 2.36707C70.0448 2.52069 70.3561 2.74519 70.6115 3.02617C70.8669 3.30714 71.0608 3.63839 71.1806 3.99867C71.3005 4.35895 71.3438 4.74031 71.3077 5.1183C71.3445 5.49665 71.3017 5.87853 71.1821 6.23938C71.0625 6.60022 70.8688 6.93206 70.6133 7.21358C70.3579 7.49509 70.0463 7.72004 69.6988 7.87399C69.3512 8.02793 68.9753 8.10746 68.5951 8.10746C68.215 8.10746 67.839 8.02793 67.4914 7.87399C67.1439 7.72004 66.8323 7.49509 66.5769 7.21358C66.3214 6.93206 66.1277 6.60022 66.0081 6.23938C65.8885 5.87853 65.8458 5.49665 65.8825 5.1183ZM70.1396 5.1183C70.1396 3.87163 69.5795 3.14259 68.5967 3.14259C67.6101 3.14259 67.0551 3.87163 67.0551 5.11831C67.0551 6.37496 67.6101 7.09839 68.5967 7.09839C69.5795 7.09838 70.1396 6.36996 70.1396 5.1183H70.1396Z" fill="white"/>
<path d="M72.5026 6.3699C72.5026 5.33464 73.2734 4.73782 74.6417 4.653L76.1995 4.5632V4.06678C76.1995 3.45934 75.7979 3.11634 75.0221 3.11634C74.3885 3.11634 73.9494 3.34896 73.8234 3.75558H72.7246C72.8406 2.76772 73.7698 2.13409 75.0745 2.13409C76.5164 2.13409 77.3296 2.8519 77.3296 4.06678V7.99638H76.237V7.18814H76.1472C75.9649 7.47806 75.7089 7.71441 75.4054 7.87305C75.1019 8.0317 74.7618 8.10696 74.4197 8.09114C74.1782 8.11625 73.9342 8.09049 73.7033 8.01552C73.4724 7.94055 73.2598 7.81803 73.0792 7.65586C72.8986 7.49369 72.754 7.29547 72.6546 7.07398C72.5553 6.85249 72.5035 6.61264 72.5026 6.3699ZM76.1995 5.87846V5.39764L74.7951 5.48744C74.0031 5.54044 73.6438 5.80986 73.6438 6.31688C73.6438 6.83451 74.0929 7.13573 74.7103 7.13573C74.8912 7.15404 75.074 7.13578 75.2477 7.08202C75.4214 7.02826 75.5825 6.94011 75.7215 6.8228C75.8604 6.7055 75.9743 6.56145 76.0565 6.39922C76.1386 6.23698 76.1873 6.05989 76.1995 5.87846Z" fill="white"/>
<path d="M78.8214 5.11827C78.8214 3.30096 79.7556 2.1497 81.2087 2.1497C81.5682 2.13314 81.9249 2.21923 82.2372 2.39791C82.5495 2.57659 82.8045 2.84047 82.9724 3.15872H83.0572V-3.05176e-05H84.1923V7.99638H83.1046V7.08772H83.0148C82.834 7.40382 82.5701 7.66442 82.2517 7.8413C81.9334 8.01817 81.5727 8.10458 81.2087 8.09116C79.7457 8.09123 78.8214 6.93994 78.8214 5.11827ZM79.9939 5.11827C79.9939 6.33813 80.5689 7.07216 81.5306 7.07216C82.4872 7.07216 83.0785 6.32754 83.0785 5.12326C83.0785 3.92461 82.481 3.16937 81.5306 3.16937C80.5751 3.16937 79.9939 3.90839 79.9939 5.11827H79.9939Z" fill="white"/>
<path d="M88.8883 5.11819C88.8522 4.74023 88.8954 4.35889 89.0153 3.99862C89.1351 3.63836 89.3289 3.30712 89.5843 3.02615C89.8397 2.74518 90.151 2.52069 90.4982 2.36707C90.8454 2.21345 91.2209 2.13409 91.6006 2.13409C91.9802 2.13409 92.3557 2.21345 92.7029 2.36707C93.0502 2.52069 93.3614 2.74518 93.6168 3.02615C93.8722 3.30712 94.066 3.63836 94.1859 3.99862C94.3057 4.35889 94.349 4.74023 94.3128 5.11819C94.3497 5.49653 94.3069 5.8784 94.1874 6.23925C94.0678 6.6001 93.8741 6.93195 93.6187 7.21347C93.3633 7.49499 93.0518 7.71995 92.7042 7.8739C92.3566 8.02785 91.9807 8.10738 91.6006 8.10738C91.2204 8.10738 90.8445 8.02785 90.4969 7.8739C90.1494 7.71995 89.8379 7.49499 89.5824 7.21347C89.327 6.93195 89.1333 6.6001 89.0137 6.23925C88.8942 5.8784 88.8515 5.49653 88.8883 5.11819ZM93.1453 5.11819C93.1453 3.87152 92.5853 3.14248 91.6024 3.14248C90.6158 3.14248 90.0608 3.87152 90.0608 5.1182C90.0608 6.37486 90.6159 7.09828 91.6024 7.09828C92.5853 7.09827 93.1453 6.36985 93.1453 5.11819Z" fill="white"/>
<path d="M95.8358 2.24516H96.9284V3.1588H97.0132C97.1571 2.83065 97.3998 2.55557 97.7074 2.3719C98.0151 2.18823 98.3724 2.10511 98.7295 2.13414C99.0093 2.1131 99.2903 2.15529 99.5516 2.2576C99.813 2.3599 100.048 2.51968 100.239 2.72512C100.43 2.93055 100.573 3.17637 100.656 3.44436C100.739 3.71235 100.761 3.99564 100.72 4.27325V7.99638H99.5851V4.55827C99.5851 3.63403 99.1835 3.17439 98.3441 3.17439C98.1541 3.16555 97.9644 3.19788 97.7881 3.26919C97.6117 3.3405 97.4529 3.44909 97.3225 3.58752C97.192 3.72596 97.0931 3.89096 97.0324 4.07121C96.9717 4.25147 96.9507 4.44272 96.9708 4.63186V7.99644H95.8358V2.24516Z" fill="white"/>
<path d="M107.134 0.813202V2.27129H108.38V3.22735H107.134V6.18469C107.134 6.78713 107.382 7.05093 107.947 7.05093C108.092 7.05047 108.236 7.04172 108.38 7.02473V7.97018C108.176 8.00664 107.969 8.02604 107.762 8.02818C106.5 8.02818 105.997 7.58414 105.997 6.47529V3.2273H105.084V2.27124H105.997V0.813202H107.134Z" fill="white"/>
<path d="M109.93 -3.05176e-05H111.055V3.16935H111.145C111.296 2.83814 111.545 2.5615 111.859 2.37714C112.173 2.19278 112.536 2.10965 112.899 2.13909C113.177 2.12394 113.455 2.17042 113.714 2.2752C113.972 2.37999 114.204 2.5405 114.393 2.74529C114.582 2.95008 114.724 3.1941 114.808 3.45993C114.892 3.72577 114.916 4.00687 114.879 4.28319V7.99639H113.743V4.5632C113.743 3.64456 113.315 3.17932 112.513 3.17932C112.318 3.16332 112.122 3.19014 111.938 3.2579C111.755 3.32566 111.588 3.43273 111.45 3.57161C111.312 3.71049 111.206 3.87784 111.14 4.06193C111.073 4.24603 111.048 4.44243 111.065 4.6374V7.99637H109.93L109.93 -3.05176e-05Z" fill="white"/>
<path d="M121.498 6.44359C121.343 6.96922 121.009 7.4239 120.554 7.72807C120.098 8.03224 119.55 8.16655 119.006 8.10748C118.627 8.11748 118.25 8.04491 117.902 7.8948C117.554 7.74469 117.243 7.52064 116.99 7.23819C116.737 6.95575 116.549 6.62168 116.438 6.25917C116.327 5.89667 116.297 5.51441 116.349 5.13893C116.298 4.76229 116.329 4.37921 116.44 4.01562C116.55 3.65202 116.738 3.31641 116.989 3.03149C117.241 2.74658 117.55 2.51901 117.897 2.3642C118.244 2.20939 118.621 2.13095 119.001 2.13419C120.601 2.13419 121.566 3.2275 121.566 5.0335V5.42956H117.505V5.49317C117.487 5.70422 117.514 5.91667 117.583 6.11687C117.652 6.31708 117.762 6.50063 117.906 6.65576C118.051 6.81088 118.226 6.93416 118.42 7.01769C118.615 7.10122 118.825 7.14315 119.037 7.1408C119.308 7.17339 119.583 7.1245 119.827 7.00035C120.071 6.87619 120.272 6.68238 120.405 6.44356L121.498 6.44359ZM117.505 4.59011H120.41C120.424 4.39709 120.398 4.20321 120.333 4.02092C120.268 3.83864 120.165 3.67198 120.032 3.53167C119.899 3.39136 119.738 3.28049 119.559 3.20618C119.38 3.13188 119.188 3.09579 118.994 3.10022C118.798 3.09776 118.603 3.13462 118.421 3.20862C118.239 3.28263 118.074 3.3923 117.936 3.53115C117.797 3.67 117.687 3.83523 117.613 4.0171C117.539 4.19898 117.502 4.39381 117.505 4.59011H117.505Z" fill="white"/>
</svg>
