<svg width="67" height="41" viewBox="0 0 67 41" fill="none" xmlns="http://www.w3.org/2000/svg">
<path d="M22.4742 0.5C12.7577 0.5 4.87113 8.15464 4.87113 17.5876C4.87113 27.0206 12.7577 34.6753 22.4742 34.6753C29.2526 34.6753 35.1289 30.9639 38.067 25.5C36.0309 25.6289 35.6186 24.8814 34.5103 26.3247C31.7784 29.8814 27.3969 32.1753 22.4742 32.1753C14.1753 32.1753 7.44845 25.6546 7.44845 17.5876C7.44845 9.52062 14.1753 3 22.4742 3C22.9124 3 23.3247 3.02577 23.7629 3.05154V21.3247C23.7629 23 24.6134 23 25.4897 23H27.1907C26.2887 23 25.4897 22.1495 25.4897 20.5V3.28351C26.3918 3.46392 27.2423 3.69588 28.067 4.03093V21.3247C28.067 23 28.9175 23 29.7938 23H31.4948C30.5928 23 29.7938 22.1495 29.7938 20.5V4.8299C30.7217 5.31959 31.5722 5.91237 32.3711 6.58248C33.3505 7.6134 35.0515 7.17526 36.4433 7.17526C33.2216 3.10309 28.1701 0.5 22.4742 0.5ZM32.4485 9.64948C32.3969 9.64948 32.3711 9.64948 32.3454 9.64948V11.299C32.4227 11.2732 34.0464 11.299 34.0464 12.1495V10.4742C34.0464 9.75258 32.8093 9.64948 32.4485 9.64948ZM19.4588 9.64948V11.7371C18.3763 10.9381 17.0361 10.4742 15.5928 10.4742C12.0361 10.4742 9.14948 13.2835 9.14948 16.7371C9.14948 20.1907 12.0361 23 15.5928 23C17.0361 23 18.3763 22.5361 19.4588 21.7371V21.3247C19.4588 23 20.3093 23 21.1856 23H22.8866C21.9845 23 21.1856 22.1495 21.1856 20.5V10.4485C21.1856 9.77835 20.2835 9.70103 19.4588 9.64948ZM50.3866 9.64948C49.5619 9.70103 48.6598 9.75258 48.6598 10.4485V20.5C48.6598 22.1495 48.2474 23 47.8093 23H48.6598C49.5103 23 50.3866 23 50.3866 21.3247V13.3866C51.3402 12.3557 52.7062 11.7113 54.2268 11.7113C54.3041 11.7113 54.3814 11.7113 54.4588 11.7113C54.0206 11.3763 53.634 10.9897 53.3247 10.5515C52.2423 10.7062 51.2371 11.1186 50.3866 11.7371V9.64948ZM63.2474 9.64948V11.7371C62.165 10.9639 60.8505 10.5 59.3814 10.5C55.8247 10.5 52.9381 13.3093 52.9381 16.7629C52.9381 20.2165 55.8247 23.0258 59.3814 23.0258C60.8247 23.0258 62.165 22.5619 63.2474 21.7629V21.7113C63.3763 23.0258 64.1495 23.0258 64.9485 23.0258H66.6753C65.7732 23.0258 64.9485 22.1753 64.9485 20.5258V10.4742C64.9485 9.77835 64.0722 9.70103 63.2474 9.64948ZM42.2165 10.5C38.6598 10.5 35.7732 13.3093 35.7732 16.7629C35.7732 20.2165 38.6598 23.0258 42.2165 23.0258C43.0928 23.0258 43.9175 22.8454 44.665 22.5361C42.3454 32.3557 33.299 39.6753 22.4742 39.6753C11.1082 39.6753 1.67526 31.5825 0 20.9897C1.70103 32.0206 11.4948 40.5 23.3505 40.5C36.3918 40.5 46.9588 30.2423 46.9588 17.5876V17.1753V14.7268C46.134 14.7784 45.232 14.8299 45.232 15.5258V17.1753V17.5876C45.232 18.7474 45.1546 19.8814 44.9742 21.0155C44.1753 21.5052 43.2217 21.7887 42.2165 21.7887C39.3557 21.7887 37.0361 19.5464 37.0361 16.7629C37.0361 13.9794 39.3557 11.7371 42.2165 11.7371C42.9897 11.7371 43.7113 11.8918 44.3557 12.1753C44.4588 12.2268 44.5619 12.2526 44.6392 12.3041C44.7165 12.3557 44.8196 12.3814 44.9227 12.3814C45.2577 12.3814 45.5412 12.0979 45.5412 11.7629C45.5412 11.5309 45.4124 11.3247 45.2062 11.2217C44.3299 10.7577 43.299 10.5 42.2165 10.5ZM15.5928 11.7113C17.1392 11.7113 18.5052 12.3557 19.4588 13.3866V20.0876C18.5052 21.1186 17.1392 21.7629 15.5928 21.7629C12.732 21.7629 10.4124 19.5206 10.4124 16.7371C10.4124 13.9536 12.732 11.7113 15.5928 11.7113ZM59.4072 11.7113C60.9278 11.7113 62.3196 12.3557 63.2732 13.3866V20.1134C62.3196 21.1443 60.9536 21.7887 59.4072 21.7887C56.5464 21.7887 54.2268 19.5464 54.2268 16.7629C54.2268 13.9536 56.5464 11.7113 59.4072 11.7113ZM32.3454 13V21.3247C32.3454 23 33.1959 23 34.0464 23H35.7732C34.8711 23 34.0464 22.1495 34.0464 20.5V13.8247C34.0464 12.9742 33.1959 13 32.3454 13Z" fill="#333333"/>
</svg>
