<svg width="169" height="57" viewBox="0 0 169 57" fill="none" xmlns="http://www.w3.org/2000/svg">
<rect y="0.5" width="169" height="56" rx="9" fill="#444444"/>
<path d="M51.1019 23.25C49.6051 21.4 47.5095 20.3 45.5137 20.3C42.8693 20.3 41.7716 21.55 39.9754 21.55C38.0794 21.55 36.6823 20.3 34.3872 20.3C32.1419 20.3 29.7969 21.65 28.3 23.95C26.2044 27.2 26.5537 33.3 29.9964 38.5C31.2438 40.35 32.8404 42.45 34.9859 42.5C36.8819 42.5 37.4307 41.3 40.0253 41.25C42.6198 41.25 43.0688 42.5 45.0147 42.45C47.1602 42.45 48.8566 40.1 50.104 38.25C51.0021 36.9 51.3015 36.25 52 34.75C47.0105 32.9 46.2122 25.9 51.1019 23.25Z" fill="white"/>
<path d="M43.5179 18.2C44.4659 17 45.2144 15.25 44.9649 13.5C43.4181 13.6 41.572 14.6 40.5243 15.9C39.5763 17.05 38.7779 18.8 39.0773 20.5C40.7737 20.55 42.52 19.5 43.5179 18.2Z" fill="white"/>
<path d="M69.1936 15.2885C68.5444 14.6979 67.4957 14.3758 66.0974 14.3758C65.2984 14.3758 64.5993 14.4295 64 14.5368V21.8388C64.4994 21.8925 65.0986 21.9462 65.7978 21.9462C67.2959 21.9462 68.4445 21.5703 69.1936 20.8723C69.8927 20.1744 70.2922 19.2079 70.2922 17.973C70.2922 16.7382 69.8927 15.8791 69.1936 15.2885ZM65.9476 21.0871C65.5481 21.0871 65.1985 21.0871 64.9488 21.0334V15.2348C65.1985 15.1811 65.598 15.1274 66.0974 15.1274C68.1948 15.1274 69.1936 16.2013 69.1936 17.973C69.2435 19.9596 68.0949 21.1408 65.9476 21.0871Z" fill="white"/>
<path d="M73.8878 16.3624C72.3896 16.3624 71.1412 17.3825 71.1412 19.208C71.1412 20.8724 72.2898 21.9463 73.7879 21.9463C75.0863 21.9463 76.5345 21.0872 76.5345 19.1006C76.5345 17.4899 75.4858 16.3624 73.8878 16.3624ZM73.8378 21.1946C72.8391 21.1946 72.1899 20.3355 72.1899 19.1543C72.1899 18.1342 72.6893 17.1141 73.8878 17.1141C75.0863 17.1141 75.5357 18.2416 75.5357 19.1543C75.5357 20.3355 74.7867 21.1946 73.8378 21.1946Z" fill="white"/>
<path d="M83.3262 19.1543C83.1264 19.7986 82.9766 20.3355 82.9267 20.8724H82.8767C82.7768 20.3355 82.5771 19.7449 82.3773 19.1543L81.5284 16.4697H80.6794L79.7806 19.1543C79.5808 19.7449 79.431 20.2818 79.2812 20.8724H79.2312C79.1313 20.3355 78.9815 19.7449 78.8317 19.1543L78.0826 16.4697H77.0839L78.7318 21.7851H79.6307L80.5296 19.2617C80.7294 18.6711 80.8792 18.1342 81.029 17.4899C81.1788 18.1342 81.3286 18.6174 81.5284 19.2617L82.3773 21.7851H83.2762L85.0241 16.4697H84.0253L83.3262 19.1543Z" fill="white"/>
<path d="M88.8194 16.3624C87.9205 16.3624 87.2713 16.8456 87.0216 17.3289L86.9717 16.4698H86.0728C86.1227 16.8993 86.1227 17.3289 86.1227 17.9195V21.7852H87.1215V18.5637C87.1215 18.4027 87.1215 18.2416 87.1714 18.1342C87.3712 17.5973 87.8706 17.1678 88.5198 17.1678C89.4686 17.1678 89.7682 17.8658 89.7682 18.7248V21.7852H90.767V18.6174C90.767 16.7919 89.5685 16.3624 88.8194 16.3624Z" fill="white"/>
<path d="M93.3637 14H92.365V21.7852H93.3637V14Z" fill="white"/>
<path d="M97.3588 16.3624C95.8607 16.3624 94.6122 17.3825 94.6122 19.208C94.6122 20.8724 95.7608 21.9463 97.2589 21.9463C98.5573 21.9463 100.006 21.0872 100.006 19.1006C100.006 17.4899 98.9568 16.3624 97.3588 16.3624ZM97.3089 21.1946C96.3101 21.1946 95.6609 20.3355 95.6609 19.1543C95.6609 18.1342 96.1603 17.1141 97.3588 17.1141C98.5573 17.1141 99.0068 18.2416 99.0068 19.1543C98.9568 20.3355 98.2577 21.1946 97.3089 21.1946Z" fill="white"/>
<path d="M105.149 18.5637C105.149 17.4899 104.75 16.3624 103.052 16.3624C102.353 16.3624 101.703 16.5235 101.254 16.8456L101.504 17.4899C101.903 17.2215 102.403 17.1141 102.952 17.1141C104.1 17.1141 104.2 17.9195 104.2 18.349V18.4564C102.053 18.4564 100.904 19.1543 100.904 20.4429C100.904 21.1946 101.454 21.9463 102.602 21.9463C103.401 21.9463 104.001 21.5704 104.3 21.1409H104.35L104.45 21.7852H105.349C105.299 21.4093 105.249 20.9798 105.249 20.4966V18.5637H105.149ZM104.15 20.0134C104.15 20.1208 104.15 20.2282 104.1 20.3355C103.951 20.7651 103.501 21.2483 102.752 21.2483C102.253 21.2483 101.803 20.9798 101.803 20.3355C101.803 19.3154 103.052 19.1006 104.15 19.1543V20.0134Z" fill="white"/>
<path d="M111.491 14H110.493V17.1678C110.243 16.7382 109.694 16.3624 108.845 16.3624C107.496 16.3624 106.348 17.4362 106.398 19.208C106.398 20.8187 107.446 21.8925 108.745 21.8925C109.644 21.8925 110.293 21.463 110.592 20.8724L110.642 21.7852H111.541C111.491 21.4093 111.491 20.8724 111.491 20.3892V14ZM110.493 19.5838C110.493 19.7449 110.493 19.8523 110.443 20.0134C110.243 20.7113 109.644 21.1409 108.994 21.1409C107.946 21.1409 107.346 20.2281 107.346 19.1543C107.346 17.9731 107.946 17.1141 108.994 17.1141C109.744 17.1141 110.293 17.5973 110.443 18.2416C110.493 18.3489 110.493 18.51 110.493 18.6711V19.5838Z" fill="white"/>
<path d="M117.883 16.3624C116.385 16.3624 115.137 17.3825 115.137 19.208C115.137 20.8724 116.285 21.9463 117.784 21.9463C119.082 21.9463 120.53 21.0872 120.53 19.1006C120.53 17.4899 119.482 16.3624 117.883 16.3624ZM117.834 21.1946C116.835 21.1946 116.186 20.3355 116.186 19.1543C116.186 18.1342 116.685 17.1141 117.883 17.1141C119.082 17.1141 119.531 18.2416 119.531 19.1543C119.482 20.3355 118.782 21.1946 117.834 21.1946Z" fill="white"/>
<path d="M124.525 16.3624C123.626 16.3624 122.977 16.8456 122.728 17.3289L122.678 16.4698H121.779C121.829 16.8993 121.829 17.3289 121.829 17.9195V21.7852H122.827V18.5637C122.827 18.4027 122.827 18.2416 122.877 18.1342C123.077 17.5973 123.576 17.1678 124.226 17.1678C125.175 17.1678 125.474 17.8658 125.474 18.7248V21.7852H126.473V18.6174C126.473 16.7919 125.274 16.3624 124.525 16.3624Z" fill="white"/>
<path d="M131.716 15.235L130.718 15.5571V16.5235H129.869V17.2752H130.718V20.1745C130.718 20.8188 130.818 21.2483 131.117 21.5705C131.367 21.8389 131.716 22 132.216 22C132.615 22 132.915 21.9463 133.115 21.8926L133.065 21.1409C132.915 21.1946 132.765 21.1946 132.465 21.1946C131.916 21.1946 131.716 20.8188 131.716 20.1745V17.3289H133.165V16.4699H131.716V15.235Z" fill="white"/>
<path d="M137.01 16.3624C136.61 16.3624 136.261 16.4698 136.011 16.6308C135.711 16.7919 135.462 17.0604 135.312 17.3288V14H134.313V21.7852H135.312V18.5637C135.312 18.4026 135.312 18.2416 135.362 18.0805C135.562 17.5436 136.061 17.1141 136.71 17.1141C137.659 17.1141 137.959 17.812 137.959 18.6711V21.7315H138.957V18.5637C138.908 16.7919 137.759 16.3624 137.01 16.3624Z" fill="white"/>
<path d="M145 18.8859C145 17.9195 144.551 16.3624 142.753 16.3624C141.155 16.3624 140.156 17.651 140.156 19.2617C140.156 20.8724 141.155 21.9463 142.853 21.9463C143.702 21.9463 144.351 21.7852 144.7 21.6241L144.501 20.9261C144.151 21.0872 143.702 21.1946 143.002 21.1946C142.004 21.1946 141.155 20.6577 141.105 19.3691H144.95C145 19.208 145 19.047 145 18.8859ZM141.155 18.6174C141.255 17.9731 141.654 17.0604 142.703 17.0604C143.801 17.0604 144.101 18.0268 144.101 18.6174H141.155Z" fill="white"/>
<path d="M68.9287 24.2L64 38.7501H66.2403L67.7339 34.3H72.5132L74.0068 38.7501H76.3467L71.4179 24.2H68.9287ZM68.2317 32.55L69.5261 28.65C69.7253 28 69.9244 27.35 70.0738 26.6C70.2231 27.25 70.4223 27.95 70.6712 28.65L72.0154 32.5H68.2317V32.55Z" fill="white"/>
<path d="M82.7191 28C81.2256 28 80.0307 28.6 79.2342 29.7L79.1346 28.25H77.1432V28.45C77.193 29.35 77.2428 30.35 77.2428 31.75V43H79.4333V37.75C80.1303 38.55 81.2256 39.05 82.4204 39.05C83.7148 39.05 84.8599 38.55 85.756 37.65C86.7019 36.65 87.1997 35.15 87.1997 33.4C87.1997 31.85 86.7517 30.5 85.9053 29.55C85.1088 28.55 83.9637 28 82.7191 28ZM82.0719 37.2C80.8273 37.2 79.7818 36.35 79.4831 35.15C79.4333 34.95 79.3835 34.7 79.3835 34.45V32.7C79.3835 32.55 79.4333 32.35 79.4333 32.15C79.4333 32.1 79.4333 32.05 79.4831 31.95C79.8316 30.7 80.8771 29.8 82.1217 29.8C84.0633 29.8 84.9594 31.6 84.9594 33.4C85.0092 35.75 83.9139 37.2 82.0719 37.2Z" fill="white"/>
<path d="M94.0203 28C92.5267 28 91.3319 28.6 90.5354 29.7L90.4358 28.25H88.4444V28.45C88.4942 29.35 88.544 30.35 88.544 31.75V43H90.7345V37.75C91.4315 38.55 92.477 39.05 93.7216 39.05C95.016 39.05 96.2108 38.55 97.0572 37.65C98.0031 36.65 98.5009 35.15 98.5009 33.4C98.5009 31.85 98.0529 30.5 97.2065 29.55C96.41 28.55 95.2649 28 94.0203 28ZM93.3731 37.2C92.1285 37.2 91.083 36.35 90.7843 35.15C90.7345 34.95 90.6847 34.7 90.6847 34.45V32.7C90.6847 32.55 90.7345 32.35 90.7345 32.15C90.7345 32.1 90.7345 32.05 90.7843 31.95C91.1328 30.7 92.1783 29.8 93.4229 29.8C95.3645 29.8 96.2606 31.6 96.2606 33.4C96.3104 35.75 95.2151 37.2 93.3731 37.2Z" fill="white"/>
<path d="M108.159 30.4C106.118 29.6 105.471 29 105.471 27.8C105.471 26.85 106.218 25.85 107.96 25.85C109.404 25.85 110.3 26.35 110.549 26.5L110.748 26.6L111.345 24.75L111.246 24.7C110.897 24.5 109.852 24 108.06 24C105.272 24 103.33 25.65 103.33 28.05C103.33 29.95 104.575 31.3 107.164 32.25C109.006 32.95 109.703 33.65 109.703 34.9C109.703 36.3 108.657 37.15 106.915 37.15C105.77 37.15 104.624 36.8 103.728 36.25L103.529 36.15L102.932 38.05L103.031 38.1C103.878 38.65 105.421 39.05 106.715 39.05C110.499 39.05 111.843 36.75 111.843 34.75C111.893 32.7 110.798 31.45 108.159 30.4Z" fill="white"/>
<path d="M115.826 25.7L113.685 26.4V28.25H112.092V30H113.685V35.4001C113.685 36.7001 113.934 37.6001 114.432 38.2001C114.93 38.7501 115.677 39.0501 116.573 39.0501C117.419 39.0501 117.967 38.9001 118.266 38.8001L118.365 38.7501L118.266 37.0001L118.066 37.0501C117.768 37.1501 117.519 37.1501 117.021 37.1501C116.175 37.1501 115.826 36.6001 115.826 35.35V30H118.465V28.25H115.826V25.7Z" fill="white"/>
<path d="M123.941 28C120.854 28 118.714 30.3 118.714 33.6C118.714 36.8 120.805 39.05 123.742 39.05C126.231 39.05 128.969 37.3 128.969 33.45C128.969 31.9 128.471 30.55 127.575 29.55C126.679 28.5 125.385 28 123.941 28ZM123.792 37.3C122.099 37.3 120.904 35.7 120.904 33.55C120.904 31.65 121.8 29.75 123.841 29.75C125.833 29.75 126.729 31.7 126.729 33.5C126.729 35.7 125.484 37.3 123.792 37.3Z" fill="white"/>
<path d="M135.69 28.1L135.541 28.05C135.342 28 135.192 28 134.993 28C133.848 28 132.803 28.7 132.255 29.75L132.205 28.2H130.214V28.4C130.264 29.25 130.313 30.25 130.313 31.55V38.75H132.504V33.15C132.504 32.85 132.504 32.55 132.554 32.3C132.803 30.95 133.699 30.1 134.844 30.1C135.093 30.1 135.242 30.1 135.441 30.15H135.69V28.1Z" fill="white"/>
<path d="M140.619 28C137.682 28 135.64 30.35 135.64 33.7C135.64 36.95 137.682 39 140.818 39C142.461 39 143.606 38.65 144.303 38.35L144.452 38.3L144.054 36.65L143.855 36.7C143.258 36.95 142.461 37.2 141.117 37.2C140.171 37.2 137.98 36.9 137.831 34H144.9L144.95 33.85C145 33.65 145 33.3 145 32.95C145 30.65 143.855 28 140.619 28ZM137.881 32.3C138.08 31.05 138.876 29.65 140.519 29.65C141.167 29.65 141.714 29.85 142.112 30.25C142.76 30.9 142.859 31.85 142.859 32.3H137.881Z" fill="white"/>
</svg>
