<svg width="384" height="334" viewBox="0 0 384 334" fill="none" xmlns="http://www.w3.org/2000/svg">
<path d="M168.005 287.612L10.1178 215.007C-3.37258 208.707 -3.37258 198.906 10.1178 193.105L168.005 120.6C181.495 114.3 203.08 114.3 215.97 120.6L373.857 193.105C387.348 199.406 387.348 209.207 373.857 215.007L215.97 287.512C202.48 293.313 180.895 293.313 168.005 287.612Z" fill="#F5F5F5"/>
<path d="M109.129 2.10773H33.1113V104.092H109.129V2.10773Z" fill="white"/>
<path d="M110.118 105.1H32.1228V1.09998H110.118V105.1ZM34.0999 103.084H108.141V3.11548H34.0999V103.084Z" fill="#CCCCCC"/>
<path d="M96.2784 29.1155L91.3357 23.472C92.522 22.162 93.3128 20.4488 93.3128 18.5341C93.3128 14.6038 90.2484 11.4798 86.3931 11.4798C82.6367 11.4798 79.4734 14.6038 79.4734 18.5341C79.4734 22.4643 82.5378 25.5883 86.3931 25.5883C87.3816 25.5883 88.3702 25.3868 89.161 24.9837L94.3013 30.9294C94.6967 31.4333 95.4876 31.4333 95.883 31.0302L96.0807 30.8286C96.6738 30.3248 96.6738 29.6193 96.2784 29.1155ZM81.747 18.5341C81.747 15.9139 83.8229 13.6969 86.4919 13.6969C89.0621 13.6969 91.2369 15.8131 91.2369 18.5341C91.2369 21.255 89.161 23.3713 86.4919 23.3713C83.8229 23.3713 81.747 21.1542 81.747 18.5341Z" fill="#CCCCCC"/>
<path d="M73.0485 31.9372H41.7122V13.3945H73.0485V31.9372ZM43.6892 29.9217H71.0715V15.41H43.6892V29.9217Z" fill="#CCCCCC"/>
<path d="M98.7503 48.3635H42.7007V50.379H98.7503V48.3635Z" fill="#CCCCCC"/>
<path d="M98.7503 60.5573H42.7007V62.5728H98.7503V60.5573Z" fill="#CCCCCC"/>
<path d="M98.7503 72.7512H42.7007V74.7667H98.7503V72.7512Z" fill="#CCCCCC"/>
<path d="M98.7503 84.9449H42.7007V86.9605H98.7503V84.9449Z" fill="#CCCCCC"/>
<path d="M383.012 1.00775H306.994V102.992H383.012V1.00775Z" fill="white"/>
<path d="M384 104H306.005V0H384V104ZM307.982 101.984H382.023V2.0155H307.982V101.984Z" fill="#CCCCCC"/>
<path d="M369.963 14.9147H344.953V16.9302H369.963V14.9147Z" fill="#CCCCCC"/>
<path d="M369.963 26.3024H344.953V28.3179H369.963V26.3024Z" fill="#CCCCCC"/>
<path d="M369.963 43.7365H344.953V45.752H369.963V43.7365Z" fill="#CCCCCC"/>
<path d="M369.963 55.2248H344.953V57.2403H369.963V55.2248Z" fill="#CCCCCC"/>
<path d="M369.963 72.6589H344.953V74.6744H369.963V72.6589Z" fill="#CCCCCC"/>
<path d="M369.963 84.0465H344.953V86.062H369.963V84.0465Z" fill="#CCCCCC"/>
<path d="M332.795 13.4031H316.583V29.9302H332.795V13.4031Z" fill="white"/>
<path d="M333.685 30.8372H315.496V12.3953H333.685V30.8372ZM317.572 28.8217H331.806V14.4108H317.572V28.8217Z" fill="#CCCCCC"/>
<path d="M332.795 42.2248H316.583V58.7519H332.795V42.2248Z" fill="white"/>
<path d="M333.685 59.7597H315.496V41.217H333.685V59.7597ZM317.572 57.7442H331.806V43.2325H317.572V57.7442Z" fill="#CCCCCC"/>
<path d="M332.795 71.1473H316.583V87.6744H332.795V71.1473Z" fill="white"/>
<path d="M333.685 88.6822H315.496V70.1395H333.685V88.6822ZM317.572 86.6667H331.806V72.155H317.572V86.6667Z" fill="#CCCCCC"/>
<path d="M319.845 19.9535C319.845 19.9535 322.514 24.8915 323.008 24.8915C323.503 24.8915 340.505 12.3954 340.505 12.3954" fill="white"/>
<path d="M323.107 26C322.514 26 322.02 26 319.054 20.4574L320.834 19.4496C321.723 21.062 322.712 22.876 323.305 23.6822C325.678 22.1706 334.476 15.721 340.011 11.5892L341.197 13.2016C323.898 26 323.503 26 323.107 26Z" fill="#CCCCCC"/>
<path d="M319.845 49.783C319.845 49.783 322.514 54.721 323.008 54.721C323.503 54.721 340.505 42.2249 340.505 42.2249" fill="white"/>
<path d="M323.107 55.8295C322.514 55.8295 322.02 55.8295 319.054 50.2869L320.834 49.2791C321.723 50.8915 322.712 52.7055 323.305 53.5117C325.678 52 334.476 45.5504 340.011 41.4186L341.197 43.031C323.898 55.8295 323.503 55.8295 323.107 55.8295Z" fill="#CCCCCC"/>
<path d="M319.845 77.8992C319.845 77.8992 322.514 82.8372 323.008 82.8372C323.503 82.8372 340.505 70.3411 340.505 70.3411" fill="white"/>
<path d="M323.107 83.8449C322.514 83.8449 322.02 83.8449 319.054 78.3023L320.834 77.2946C321.723 78.907 322.712 80.7209 323.305 81.5271C325.678 80.0155 334.476 73.5659 340.011 69.4341L341.197 71.0465C323.898 83.8449 323.503 83.8449 323.107 83.8449Z" fill="#CCCCCC"/>
<path d="M126.512 133.305H8.53003V211.295H126.512V133.305Z" fill="white"/>
<path d="M127.517 212.3H7.5249V132.3H127.517V212.3ZM9.53482 210.29H125.507V134.31H9.53482V210.29Z" fill="#CCCCCC"/>
<path d="M110.633 148.28H77.1682V150.29H110.633V148.28Z" fill="#CCCCCC"/>
<path d="M110.633 159.938H77.1682V161.948H110.633V159.938Z" fill="#CCCCCC"/>
<path d="M110.633 171.496H77.1682V173.506H110.633V171.496Z" fill="#CCCCCC"/>
<path d="M45.8135 146.27C44.8085 146.069 43.7031 145.968 42.6981 145.968C33.4525 145.968 25.9153 153.506 25.9153 162.752C25.9153 171.999 33.4525 179.536 42.6981 179.536C47.6224 179.536 52.0442 177.426 55.1596 174.009L42.6981 162.752L45.8135 146.27Z" fill="white"/>
<path d="M42.5976 180.541C32.749 180.541 24.8098 172.602 24.8098 162.752C24.8098 152.903 32.749 144.963 42.5976 144.963C43.7031 144.963 44.8085 145.064 45.914 145.265L46.9189 145.466L43.7031 162.35L56.466 173.908L55.7626 174.612C52.4462 178.431 47.6224 180.541 42.5976 180.541ZM42.5976 146.973C33.8545 146.973 26.8197 154.009 26.8197 162.752C26.8197 171.496 33.8545 178.531 42.5976 178.531C46.7179 178.531 50.6373 176.923 53.5517 174.009L41.4921 163.054L44.6075 147.074C43.904 146.973 43.3011 146.973 42.5976 146.973Z" fill="#CCCCCC"/>
<path d="M51.2403 143.657L48.0244 160.139L60.4859 171.396C63.1993 168.38 64.8072 164.461 64.8072 160.139C64.8072 151.898 58.9785 145.164 51.2403 143.657Z" fill="white"/>
<path d="M60.4859 172.803L46.9189 160.541L50.3358 142.551L51.3408 142.752C59.6819 144.36 65.8122 151.697 65.8122 160.24C65.8122 164.662 64.2043 168.883 61.1894 172.2L60.4859 172.803ZM49.1299 159.737L60.3854 169.888C62.5963 167.074 63.8023 163.657 63.8023 160.039C63.8023 152.803 58.878 146.571 51.9437 144.762L49.1299 159.737Z" fill="#CCCCCC"/>
<path d="M110.734 189.787H21.5938V200.34H110.734V189.787Z" fill="white"/>
<path d="M111.638 201.345H20.5889V188.782H111.739V201.345H111.638ZM22.5988 199.335H109.729V190.793H22.5988V199.335Z" fill="#CCCCCC"/>
<path d="M126.416 294.855H114.703L115.604 308.093L101.288 294.855H42.4236V241.603H126.416V294.855Z" fill="white"/>
<path d="M116.805 310.6L100.888 295.858H41.4224V240.6H127.417V295.858H115.804L116.805 310.6ZM43.4246 293.852H101.689L114.402 305.686L113.602 293.852H125.415V242.606H43.4246V293.852Z" fill="#CCCCCC"/>
<path d="M117.706 254.038H70.0537V256.044H117.706V254.038Z" fill="#CCCCCC"/>
<path d="M117.707 263.265H51.2339V265.271H117.707V263.265Z" fill="#CCCCCC"/>
<path d="M117.707 272.491H51.2339V274.497H117.707V272.491Z" fill="#CCCCCC"/>
<path d="M117.707 281.717H51.2339V283.723H117.707V281.717Z" fill="#CCCCCC"/>
<path d="M266.014 1.00116H146.01V86.9989H266.014V1.00116Z" fill="white"/>
<path d="M267.008 88H145.016V0H267.008V88ZM147.004 85.9977H265.019V2.00228H147.004V85.9977Z" fill="#CCCCCC"/>
<path d="M248.714 15.5176H212.027V17.5199H248.714V15.5176Z" fill="#CCCCCC"/>
<path d="M248.714 28.3322H212.027V30.3344H248.714V28.3322Z" fill="#CCCCCC"/>
<path d="M248.714 41.0466H212.027V43.0489H248.714V41.0466Z" fill="#CCCCCC"/>
<path d="M248.714 53.8612H212.027V55.8635H248.714V53.8612Z" fill="#CCCCCC"/>
<path d="M248.714 66.6758H212.027V68.6781H248.714V66.6758Z" fill="#CCCCCC"/>
<path d="M170.369 43.9499L187.967 54.1616V33.7383L170.369 43.9499Z" fill="white"/>
<path d="M188.961 55.9636L168.38 44.05L188.961 32.0364V55.9636ZM172.357 43.9499L186.972 52.4596V35.5404L172.357 43.9499Z" fill="#CCCCCC"/>
<path d="M154.715 152.4C151.915 147.4 149.015 133.9 150.115 128.3C151.215 122.7 154.415 117.5 158.915 114C159.615 112 159.215 109.7 159.415 107.5C159.615 105.3 160.915 102.9 163.114 102.8C164.514 102.7 165.714 103.7 166.414 104.9C167.114 106.1 167.314 107.5 167.514 108.8C169.014 119.2 169.214 131.9 168.214 142.4L154.715 152.4Z" fill="white"/>
<path d="M154.715 153.6C154.615 153.6 154.515 153.6 154.415 153.6C154.015 153.5 153.715 153.3 153.615 153C150.615 147.7 147.715 133.9 148.815 128C150.015 122.2 153.215 116.9 157.815 113.2C158.115 112.2 158.115 111 158.115 109.8C158.115 109 158.115 108.2 158.215 107.4C158.415 104.6 160.215 101.7 163.014 101.5C164.714 101.4 166.514 102.5 167.514 104.2C168.314 105.5 168.614 107 168.814 108.6C170.314 118.6 170.514 131.3 169.514 142.5C169.514 142.9 169.314 143.2 169.014 143.4L155.515 153.4C155.215 153.5 155.015 153.6 154.715 153.6ZM163.214 104C163.214 104 163.114 104 163.214 104C161.814 104.1 160.815 105.9 160.715 107.6C160.615 108.3 160.615 109 160.715 109.8C160.715 111.3 160.715 112.9 160.215 114.4C160.115 114.6 160.015 114.8 159.815 115C155.515 118.3 152.515 123.3 151.415 128.6C150.415 133.4 152.815 145.1 155.215 150.6L167.014 141.8C168.014 130.9 167.714 118.7 166.314 109.1C166.114 107.8 165.914 106.6 165.314 105.6C164.914 104.7 164.114 104 163.214 104Z" fill="#333333"/>
<path d="M153.615 148.7C153.615 148.7 153.715 217.2 161.414 241.7C163.914 249.7 236.41 204.8 236.41 204.8L261.708 173.1C261.708 173.1 249.509 173.4 236.41 177.6C223.31 181.8 173.514 218 173.514 218C173.514 218 165.914 163.1 168.514 138.8" fill="white"/>
<path d="M163.014 243.9C162.514 243.9 162.014 243.8 161.614 243.7C160.615 243.3 160.215 242.6 160.015 242.1C152.415 217.7 152.215 151.5 152.215 148.7C152.215 148 152.815 147.4 153.415 147.4C154.115 147.4 154.615 148 154.715 148.6C154.715 149.3 154.915 217.2 162.414 241.2C162.914 241.6 167.314 242.8 200.612 224.1C217.311 214.8 233.51 204.8 235.31 203.7L258.808 174.3C254.508 174.6 245.709 175.7 236.61 178.6C223.81 182.7 174.614 218.5 174.114 218.9C173.714 219.2 173.314 219.2 172.914 219C172.514 218.8 172.214 218.5 172.214 218C172.114 217.4 164.714 162.6 167.114 138.5C167.214 137.8 167.814 137.3 168.514 137.4C169.214 137.5 169.714 138.1 169.614 138.8C167.414 160 173.014 205.4 174.414 215.6C183.413 209.1 223.91 180 235.91 176.2C249.109 172 261.108 171.6 261.608 171.6C262.108 171.6 262.508 171.9 262.808 172.3C263.008 172.7 263.008 173.3 262.708 173.6L237.41 205.3C237.31 205.4 237.21 205.5 237.11 205.6C230.51 209.9 175.314 243.9 163.014 243.9Z" fill="#333333"/>
<path d="M330.004 186.2C316.205 175.8 259.008 171.5 245.309 173.4C230.81 175.4 187.613 206.6 186.213 208.1C199.812 215 198.412 232.9 199.212 232.6C206.612 230 231.61 219 231.61 219C229.71 230.2 224.511 244.7 234.51 254.3C236.81 256.5 240.41 303.8 241.11 320.4H319.504C319.504 300.5 313.105 275 325.604 236.1C326.504 242.4 326.804 253.7 327.904 260.4C336.503 255.1 347.803 254 356.002 255C350.502 219.8 345.303 197.6 330.004 186.2Z" fill="white"/>
<path d="M319.504 322.1H241.109C240.309 322.1 239.609 321.5 239.609 320.7C238.71 301.8 235.21 259.1 233.31 255.5C224.31 246.8 226.91 234.3 229.01 224.3C229.21 223.4 229.41 222.6 229.51 221.7C222.911 224.6 205.612 232 199.612 234.2C199.212 234.4 198.612 234.3 198.312 234C197.612 233.5 197.512 232.8 197.312 231C196.812 226.5 195.612 214.6 185.513 209.5C185.113 209.3 184.813 208.9 184.713 208.4C184.613 207.9 184.813 207.5 185.113 207.1C186.413 205.7 229.71 174.1 245.109 171.9C258.008 170.1 316.404 174.1 330.904 185C347.302 197.3 352.302 221.7 357.602 254.9C357.702 255.4 357.502 255.8 357.202 256.2C356.902 256.5 356.402 256.7 355.902 256.6C348.302 255.7 337.203 256.6 328.704 261.8C328.304 262.1 327.704 262.1 327.304 261.9C326.804 261.7 326.504 261.3 326.404 260.8C325.804 257 325.404 251.9 325.004 246.9C324.904 245.9 324.904 245 324.804 244C317.704 269.9 319.104 289.5 320.204 305.5C320.604 310.8 320.904 315.8 320.904 320.4C320.904 320.8 320.704 321.2 320.504 321.5C320.304 321.8 319.904 322.1 319.504 322.1ZM242.509 319H318.004C317.904 314.9 317.604 310.4 317.304 305.8C316.104 288 314.505 266 324.204 235.8C324.404 235.1 325.104 234.7 325.804 234.8C326.504 234.9 327.104 235.4 327.204 236.1C327.604 239 327.904 242.7 328.204 246.7C328.504 250.7 328.804 254.8 329.204 258.1C337.303 253.8 347.002 252.8 354.402 253.4C348.602 217.1 343.203 197.8 329.204 187.3C316.104 177.5 259.708 172.8 245.609 174.8C233.21 176.5 197.112 201.6 188.913 207.8C198.612 214.1 199.912 225.9 200.412 230.5C209.111 227.2 230.81 217.7 231.01 217.6C231.51 217.4 232.11 217.5 232.51 217.8C232.91 218.1 233.11 218.7 233.11 219.2C232.81 220.9 232.41 222.7 232.01 224.6C230.01 234.4 227.71 245.6 235.61 253.2C238.71 256.4 242.009 309.6 242.509 319Z" fill="#333333"/>
<path d="M231.51 228.1C232.11 222.3 235.91 217.2 235.61 211.4C235.51 210.3 234.11 209.9 233.51 210.8C230.21 215.8 228.11 222.1 228.71 228.1C228.91 229.9 231.31 229.9 231.51 228.1Z" fill="#333333"/>
<path d="M305.505 170.5C329.004 175.1 340.303 174.9 340.303 174.9C340.303 174.9 352.102 149.7 342.303 119C330.104 81.0999 285.207 69.8999 264.808 80.2999C258.608 83.3999 246.609 98.0999 241.409 119.8C236.21 141.5 239.61 163.5 239.61 163.5C239.61 163.5 280.607 165.6 305.505 170.5Z" fill="url(#paint0_linear)"/>
<path d="M340.003 176.5C338.003 176.5 326.704 176.3 305.205 172C280.607 167.1 239.909 165.1 239.509 165.1C238.809 165.1 238.209 164.5 238.109 163.8C238.01 162.9 234.81 141.3 239.909 119.6C245.109 97.7 257.408 82.5 264.008 79.1C275.007 73.5 292.106 74 307.505 80.5C325.204 87.9 338.003 101.4 343.503 118.7C353.402 149.6 342.003 174.6 341.503 175.7C341.303 176.2 340.703 176.6 340.203 176.6C340.303 176.5 340.203 176.5 340.003 176.5ZM305.805 169C325.004 172.8 336.103 173.3 339.303 173.4C341.203 168.7 349.302 146.1 340.803 119.5C333.703 97.3 316.204 87.2 306.505 83.1C291.806 77 275.707 76.4 265.508 81.6C260.208 84.3 248.109 98.4 242.909 120.1C238.609 138.4 240.409 157.1 241.009 162C248.009 162.6 283.507 164.6 305.805 169Z" fill="#333333"/>
<path d="M290.806 175.6L294.006 146.6L268.808 147.7L270.407 174.5C267.208 176.6 265.108 179.8 264.908 183.4C264.708 190.1 271.207 195.8 279.607 196C288.006 196.2 294.906 191.1 295.106 184.4C295.306 181.1 293.606 177.9 290.806 175.6Z" fill="white"/>
<path d="M280.307 197.4C280.107 197.4 279.907 197.4 279.607 197.4C270.607 197.1 263.508 190.8 263.708 183.5C263.808 179.8 265.808 176.4 269.107 174L267.507 147.9C267.507 147.6 267.607 147.2 267.807 147C268.007 146.8 268.307 146.6 268.707 146.6L293.906 145.5C294.306 145.5 294.606 145.6 294.906 145.9C295.106 146.2 295.306 146.5 295.206 146.9L292.006 175.2C294.806 177.8 296.306 181.1 296.206 184.6C296.106 191.7 289.006 197.4 280.307 197.4ZM270.207 149L271.707 174.5C271.707 174.9 271.507 175.4 271.107 175.6C268.107 177.6 266.308 180.5 266.208 183.5C266.008 189.5 272.007 194.6 279.707 194.8C279.907 194.8 280.107 194.8 280.307 194.8C287.706 194.8 293.706 190.2 293.906 184.4C294.006 181.5 292.606 178.7 290.106 176.5C289.806 176.2 289.606 175.8 289.706 175.4L292.806 147.9L270.207 149Z" fill="#333333"/>
<path d="M310.805 136.4C313.405 123.5 308.305 110.3 297.106 104.2C283.007 96.4 266.008 96.4 257.408 111.9C248.909 127.4 252.109 152.6 266.208 160.4C279.807 167.9 297.306 162.3 306.205 148C306.805 148.2 307.405 148.3 308.005 148.4C311.405 148.5 314.305 145.8 314.405 142.4C314.504 139.6 313.005 137.4 310.805 136.4Z" fill="white"/>
<path d="M279.208 164.9C274.508 164.9 269.908 163.8 265.609 161.4C250.41 153 247.81 126.8 256.309 111.2C260.509 103.6 266.908 99.1 275.008 98C282.007 97.1 290.107 98.8 297.706 103C308.806 109.1 314.605 122.2 312.206 135.7C314.405 137.1 315.805 139.6 315.705 142.3C315.605 144.3 314.805 146.2 313.305 147.5C311.806 148.9 309.906 149.6 307.906 149.5C307.506 149.5 307.106 149.4 306.706 149.3C300.206 159.3 289.607 164.9 279.208 164.9ZM278.808 100.2C277.608 100.2 276.508 100.3 275.308 100.4C268.108 101.4 262.209 105.5 258.509 112.3C250.61 126.6 253.009 151.5 266.808 159.1C279.708 166.2 296.507 160.9 305.106 147.1C305.406 146.6 306.006 146.4 306.606 146.6C307.106 146.8 307.606 146.9 308.006 146.9C309.306 146.9 310.606 146.5 311.606 145.6C312.605 144.7 313.105 143.5 313.205 142.1C313.305 140.1 312.106 138.2 310.306 137.4C309.806 137.2 309.506 136.6 309.606 136C312.206 123.2 306.906 110.8 296.507 105.1C290.607 102 284.407 100.2 278.808 100.2Z" fill="#333333"/>
<path d="M286.507 127.7C286.907 124.9 285.707 122.6 283.507 120.8C281.507 119.2 278.607 118.6 276.707 120.7C275.107 122.5 275.907 125.4 278.007 126.5C280.307 127.7 283.307 126 283.407 123.5C283.507 122.2 281.807 121.6 280.907 122.4C280.707 122.6 280.407 123.1 280.107 123.2C280.107 123.2 279.407 123.5 279.607 123.1C279.607 123 280.807 123.4 281.107 123.6C281.907 124.1 282.507 124.9 283.007 125.6C283.607 126.4 284.307 127.1 284.907 128C285.407 128.9 286.407 128.5 286.507 127.7Z" fill="#333333"/>
<path d="M268.608 123.5C268.708 122.4 268.608 121.3 268.008 120.3C267.408 119.3 266.408 118.5 265.508 117.8C263.608 116.5 260.708 116.3 259.308 118.4C258.008 120.3 258.908 122.9 261.108 123.6C263.108 124.3 266.008 122.7 265.708 120.4C265.508 119.2 264.108 118.3 263.108 119.3C262.908 119.5 262.408 120 262.408 120.2C262.208 121.1 262.308 120.3 262.808 120.6C263.108 120.8 263.508 120.9 263.808 121.1C264.408 121.5 264.908 122 265.408 122.5C265.908 123 266.608 123.4 267.108 124C267.708 124.7 268.608 124.3 268.608 123.5Z" fill="#333333"/>
<path d="M266.108 130.4C265.308 131.4 264.708 132.3 264.108 133.4C263.608 134.2 262.908 135.5 262.808 136.4C262.708 138.4 266.408 138.4 267.708 138.1C268.208 138 268.208 137.4 267.808 137.2C267.208 136.8 266.708 136.5 265.908 136.4C265.508 136.3 264.808 136.3 264.508 136.1C264.508 136.2 264.508 136.3 264.508 136.4C264.508 136.2 264.608 135.9 264.708 135.7C265.108 134 265.808 132.4 266.708 130.8C266.908 130.5 266.408 130 266.108 130.4Z" fill="#333333"/>
<path d="M266.508 145.7C268.108 148.2 272.008 148.7 274.708 148.6C277.508 148.5 281.508 146.5 280.708 143.2C280.608 142.7 279.808 142.5 279.508 142.9C277.708 144.7 276.708 146.3 274.008 146.3C272.108 146.3 269.208 146.4 267.808 144.8C267.208 144.2 266.108 145 266.508 145.7Z" fill="#333333"/>
<path d="M271.507 88.6C261.708 93.9 259.308 101.1 259.708 100.7C260.608 99.8 272.007 96.2 287.406 115.7C292.306 122 307.905 139.8 319.804 134.2L309.505 107.2L288.706 94.8L271.507 88.6Z" fill="url(#paint1_linear)"/>
<path d="M257.008 101.4C261.008 102 265.108 101 269.107 102.3C273.407 103.7 276.707 107.1 279.907 110.1C285.106 115 289.806 120.3 294.806 125.4C301.705 132.4 314.704 143.7 322.704 132.2C323.004 131.8 322.404 131.3 322.104 131.6C317.704 134.9 314.004 135.7 308.705 132.9C305.605 131.3 302.805 129.1 300.205 126.8C295.306 122.4 291.006 117.3 286.306 112.7C278.807 105.3 268.407 94.6999 257.008 101C256.708 101 256.808 101.4 257.008 101.4Z" fill="#333333"/>
<path d="M287.507 270.3L256.109 272.4C253.009 272.6 250.109 270.6 249.309 267.5L239.51 229.2C238.51 225.4 241.01 221.7 244.909 221.1L277.307 216.4C280.707 215.9 283.907 218.1 284.607 221.5L293.406 262.4C294.306 266.3 291.406 270 287.507 270.3Z" fill="#BDECFF"/>
<path d="M255.608 274C252.009 274 248.709 271.5 247.809 268L238.01 229.7C237.41 227.5 237.81 225.2 239.109 223.3C240.409 221.4 242.409 220.1 244.609 219.8L277.007 215.1C281.207 214.5 285.106 217.2 286.006 221.4L294.806 262.3C295.306 264.6 294.806 267 293.406 268.8C292.006 270.7 289.906 271.8 287.506 272L256.108 274.1C256.008 274 255.808 274 255.608 274ZM278.207 217.9C278.007 217.9 277.707 217.9 277.507 218L245.109 222.7C243.709 222.9 242.409 223.7 241.609 224.9C240.809 226.1 240.609 227.5 240.909 228.9L250.709 267.2C251.309 269.6 253.509 271.1 255.908 271L287.306 268.9C288.806 268.8 290.106 268.1 291.006 266.9C291.906 265.7 292.206 264.2 291.906 262.8L283.107 221.9C282.707 219.5 280.607 217.9 278.207 217.9Z" fill="#333333"/>
<path d="M351.002 256.6C351.002 256.6 347.702 253.7 340.903 255.1C332.703 256.7 331.004 259.8 331.004 259.8L335.403 283.3C335.403 283.3 300.006 251.4 299.606 248.9C299.106 245.1 291.506 235.1 290.406 236.3C288.306 238.4 288.806 243.8 284.607 246C279.707 248.5 270.007 250.5 271.907 254.3C273.907 258.6 280.507 263 285.207 262.3C289.106 261.8 288.606 262.4 292.006 260.3C296.606 266.8 328.004 310.1 343.403 310.1C356.102 310 351.002 256.6 351.002 256.6Z" fill="white"/>
<path d="M343.403 311.2C328.603 311.2 300.905 274.6 291.706 261.8C289.806 262.9 289.206 263 287.606 263.1C287.106 263.1 286.406 263.2 285.406 263.3C280.007 264 273.007 259.1 270.807 254.6C270.407 253.7 270.307 252.8 270.707 251.9C271.707 249.5 275.507 248 279.607 246.5C281.307 245.9 282.906 245.2 284.206 244.6C286.306 243.5 287.006 241.3 287.706 239.2C288.206 237.7 288.706 236.2 289.706 235.2C290.106 234.8 290.806 234.6 291.406 234.8C294.006 235.7 300.305 244.7 301.005 248.4C302.305 250.8 320.604 267.9 333.603 279.7L329.903 259.9C329.803 259.6 329.903 259.3 330.003 259.1C330.203 258.7 332.203 255.5 340.703 253.8C348.102 252.3 351.702 255.5 351.902 255.6C352.102 255.8 352.302 256.1 352.302 256.4C352.502 258.2 356.402 299.8 347.902 309.1C346.502 310.5 345.102 311.2 343.403 311.2ZM292.006 258.9C292.406 258.9 292.806 259.1 293.006 259.4C309.305 282.1 332.203 308.7 343.403 308.7C344.302 308.7 345.202 308.3 345.902 307.4C352.202 300.4 350.902 269.3 349.702 257.2C348.702 256.6 345.902 255.2 341.003 256.2C335.203 257.4 332.903 259.3 332.203 260L336.503 282.9C336.603 283.4 336.403 284 335.903 284.2C335.403 284.5 334.903 284.4 334.503 284C321.204 272 298.705 251.4 298.305 248.8C297.905 245.9 292.806 239 290.806 237.4C290.406 238 290.106 239 289.806 239.9C289.006 242.3 288.106 245.2 285.006 246.7C283.606 247.4 282.007 248 280.207 248.7C277.307 249.8 273.307 251.3 272.807 252.7C272.707 252.9 272.707 253 272.907 253.3C274.707 257 280.707 261.2 284.906 260.6C285.906 260.5 286.606 260.4 287.206 260.4C288.706 260.3 288.906 260.3 291.206 258.8C291.606 259 291.806 258.9 292.006 258.9Z" fill="#333333"/>
<path d="M331.803 280.7C332.903 282.4 334.503 283.8 336.103 285.1C337.103 285.9 339.203 288.1 340.703 287.4C340.903 287.3 341.003 287.1 341.003 286.9C340.803 285.5 338.603 284.3 337.603 283.6C336.003 282.4 334.403 281.3 332.903 280C332.203 279.5 331.403 280.1 331.803 280.7Z" fill="#333333"/>
<path d="M383.914 322.85H156.002V332.961H383.914V322.85Z" fill="#F5F5F5"/>
<path d="M154.015 334V322H383.901V334H154.015ZM155.989 332.11H381.927V323.89H155.989V332.11Z" fill="#CCCCCC"/>
<defs>
<linearGradient id="paint0_linear" x1="238.518" y1="72.7733" x2="336.059" y2="183.805" gradientUnits="userSpaceOnUse">
<stop stop-color="#FFC671"/>
<stop offset="0.59375" stop-color="#FF7541"/>
<stop offset="1" stop-color="#FF6F3D"/>
</linearGradient>
<linearGradient id="paint1_linear" x1="265.008" y1="92.5" x2="297.914" y2="131.923" gradientUnits="userSpaceOnUse">
<stop stop-color="#FFAA60"/>
<stop offset="1" stop-color="#FF7541"/>
</linearGradient>
</defs>
</svg>
