<svg width="390" height="334" viewBox="0 0 390 334" fill="none" xmlns="http://www.w3.org/2000/svg">
<rect width="128" height="86" fill="white"/>
<rect x="259" width="128" height="86" fill="white"/>
<path d="M387.096 86.2583H259.2V0H387.2V86.2583H387.096ZM261.286 84.2476H385.114V2.01068H261.286V84.2476Z" fill="#CCCCCC"/>
<path d="M335.353 15.1806H271.197V17.1913H335.353V15.1806Z" fill="#CCCCCC"/>
<path d="M371.865 15.1806H345.576V17.1913H371.865V15.1806Z" fill="#CCCCCC"/>
<path d="M371.865 26.6415H345.576V28.6522H371.865V26.6415Z" fill="#CCCCCC"/>
<path d="M371.865 38.002H345.576V40.0126H371.865V38.002Z" fill="#CCCCCC"/>
<path d="M371.865 49.3622H345.576V51.3729H371.865V49.3622Z" fill="#CCCCCC"/>
<path d="M371.865 60.7226H345.576V62.7333H371.865V60.7226Z" fill="#CCCCCC"/>
<path d="M371.865 72.1835H345.576V74.1942H371.865V72.1835Z" fill="#CCCCCC"/>
<path d="M337.127 75.4006H270.154V26.6415H337.127V75.4006ZM272.24 73.3899H335.04V28.6522H272.24V73.3899Z" fill="#CCCCCC"/>
<path d="M171.225 287.584L13.2604 214.825C-0.153542 208.502 -0.153542 198.667 13.2604 192.846L171.225 120.087C184.639 113.765 206.362 113.765 219.175 120.087L377.139 192.846C390.553 199.169 390.553 209.004 377.139 214.825L219.175 287.584C205.761 293.304 184.138 293.304 171.225 287.584Z" fill="#F5F5F5"/>
<path d="M120.2 266.738C112.7 279.287 99.7998 318.941 99.7998 318.941H123.5C123.5 318.941 130.8 300.168 142.2 279.688C142.3 279.688 153.6 256.297 120.2 266.738Z" fill="white"/>
<path d="M123.6 320.146H99.8999C99.4999 320.146 99.0999 319.945 98.8999 319.644C98.6999 319.343 98.5999 318.941 98.6999 318.54C99.1999 316.933 111.8 278.584 119.2 266.035C119.4 265.734 119.6 265.533 119.9 265.432C132 261.618 139.9 261.818 143.4 265.934C147.7 270.954 143.6 279.788 143.4 280.09C132.1 300.369 124.8 319.042 124.7 319.242C124.5 319.845 124.1 320.146 123.6 320.146ZM101.6 317.636H122.7C124.2 313.821 131.2 296.955 141.2 278.985C141.2 278.985 144.8 271.356 141.5 267.541C139.6 265.332 134.5 263.525 121.1 267.641C114.6 278.985 104.1 310.207 101.6 317.636Z" fill="#333333"/>
<path d="M146.1 321.25C146.1 321.25 146.6 313.219 143.1 312.115C139.5 311.01 136.8 314.122 136.8 314.122C136.8 314.122 134.1 302.276 124.1 301.875C114.1 301.473 95.9999 311.713 107.1 321.25H146.1Z" fill="white"/>
<path d="M146.1 322.555H107.1C106.8 322.555 106.5 322.455 106.3 322.254C101.8 318.339 102 314.624 102.9 312.115C105.5 305.489 116.6 300.369 124.1 300.67C132.4 300.971 136.1 308.4 137.4 312.014C138.7 311.111 140.9 310.207 143.4 311.01C147.8 312.315 147.4 320.547 147.3 321.451C147.3 321.953 146.7 322.555 146.1 322.555ZM107.6 320.045H144.9C144.9 317.536 144.4 313.821 142.7 313.319C140 312.516 137.8 314.825 137.7 314.925C137.4 315.227 136.9 315.427 136.5 315.327C136 315.227 135.7 314.825 135.6 314.424C135.5 314.022 133 303.481 124.1 303.18C117.6 302.979 107.5 307.496 105.3 313.018C104.3 315.327 105.1 317.736 107.6 320.045Z" fill="#333333"/>
<path d="M140.6 311.111L128.9 276.074C128.4 274.468 126.6 273.564 124.9 274.066C123 274.568 122 276.375 122.7 278.082L136.7 312.115C136.7 312.014 139 313.219 140.6 311.111Z" fill="white"/>
<path d="M138.2 313.62C137.4 313.62 136.6 313.42 136.1 313.119C135.8 313.018 135.6 312.717 135.5 312.516L121.5 278.483C121.1 277.379 121.1 276.174 121.6 275.07C122.2 273.966 123.3 273.062 124.6 272.761C127 272.159 129.4 273.464 130.1 275.672L141.8 310.709C141.9 311.111 141.9 311.512 141.6 311.813C140.6 313.219 139.3 313.62 138.2 313.62ZM137.6 311.111C138 311.211 138.6 311.312 139.2 310.81L127.8 276.476C127.5 275.572 126.4 274.97 125.3 275.271C124.7 275.371 124.2 275.773 124 276.275C123.8 276.676 123.8 277.178 123.9 277.58L137.6 311.111Z" fill="#333333"/>
<path d="M196.5 303.079C187.4 303.079 180.1 309.103 180.1 316.431C180.1 318.038 180.5 319.544 181.1 320.949H212C212.6 319.544 213 318.038 213 316.431C213 309.103 205.6 303.079 196.5 303.079Z" fill="white"/>
<path d="M212 322.254H181.1C180.6 322.254 180.2 321.953 180 321.551C179.3 319.945 178.9 318.238 178.9 316.532C178.9 308.5 186.8 301.875 196.6 301.875C206.4 301.875 214.3 308.4 214.3 316.532C214.3 318.238 213.9 319.945 213.2 321.551C212.9 321.953 212.5 322.254 212 322.254ZM181.9 319.744H211.1C211.5 318.64 211.7 317.536 211.7 316.431C211.7 309.705 204.9 304.284 196.5 304.284C188.1 304.284 181.3 309.705 181.3 316.431C181.3 317.636 181.5 318.64 181.9 319.744Z" fill="#333333"/>
<path d="M307 289.627C300.6 288.021 287.2 284.507 276.1 292.237C276.1 292.237 261.7 244.551 261.1 244.651L261.6 320.849L175.4 321.25C171.1 305.79 162.7 252.683 162.7 252.683C162.7 252.884 144 287.017 144 287.017C133.8 268.946 115.4 275.171 115.4 275.171C123.7 264.83 134.2 212.827 150.5 201.483C166.8 190.139 196.6 187.93 196.6 187.93L224.1 186.324C224.1 186.324 273 187.428 283.7 203.792C294.4 220.156 307 289.627 307 289.627Z" fill="url(#paint0_linear)"/>
<path d="M175.4 322.857C174.7 322.857 174.1 322.455 174 321.752C170.4 308.802 164.1 270.552 161.9 257.502C159.6 261.818 154.9 270.452 145.3 287.92C145 288.422 144.5 288.723 144 288.723C143.4 288.723 143 288.422 142.7 287.92C133.3 271.155 116.6 276.576 115.9 276.777C115.3 276.978 114.6 276.777 114.2 276.174C113.8 275.672 113.8 274.869 114.3 274.367C117.3 270.653 120.7 260.815 124.7 249.47C131.5 229.894 139.2 207.707 149.8 200.379C166.3 188.934 195.4 186.625 196.6 186.525L224.1 184.918H224.2C226.2 184.918 274 186.223 285 203.089C295.8 219.453 308.2 286.515 308.7 289.326C308.8 289.828 308.6 290.33 308.3 290.731C307.9 291.133 307.4 291.233 306.9 291.133H306.7C300.5 289.527 287.7 286.314 277.2 293.643C276.8 293.944 276.3 293.944 275.9 293.843C275.4 293.643 275.1 293.341 275 292.839C271.3 280.491 266.1 263.625 263 253.787L263.5 321.049C263.5 321.451 263.3 321.853 263.1 322.154C262.8 322.455 262.4 322.555 262 322.555L175.4 322.857ZM162.6 251.277C163.3 251.277 164 251.779 164.1 252.582C164.2 253.084 172.2 303.381 176.5 319.845L260.1 319.443L259.6 244.752C259.6 244.049 260.1 243.346 260.8 243.246C262.5 242.945 262.5 242.945 270.3 268.043C273.1 277.078 275.8 286.113 277 290.028C287.1 284.105 298.4 286.113 305.1 287.719C302.8 275.572 291.6 219.152 282.3 204.896C272.3 189.637 225.9 188.131 224 188.131L196.6 189.737C196.3 189.737 167.1 192.046 151.3 202.989C141.6 209.715 133.7 232.404 127.3 250.575C124.1 259.911 121.2 268.143 118.4 273.263C124.3 272.46 135.9 272.56 143.8 284.306C150.9 271.255 160.6 253.586 161.2 252.382C161.4 251.679 162 251.277 162.6 251.277Z" fill="#333333"/>
<path d="M148.7 289.425H10.6999C5.5999 289.425 1.3999 285.309 1.3999 280.089V182.408C1.3999 177.288 5.4999 173.071 10.6999 173.071H148.7C153.8 173.071 158 177.187 158 182.408V280.089C158 285.309 153.9 289.425 148.7 289.425Z" fill="#F2F2F2"/>
<path d="M148.7 290.731H10.7C4.89995 290.731 0.199951 286.013 0.199951 280.19V182.509C0.199951 176.686 4.89995 171.968 10.7 171.968H148.7C154.5 171.968 159.2 176.686 159.2 182.509V280.19C159.3 286.013 154.5 290.731 148.7 290.731ZM10.7 174.377C6.29995 174.377 2.69995 177.991 2.69995 182.409V280.09C2.69995 284.507 6.29995 288.121 10.7 288.121H148.7C153.1 288.121 156.7 284.507 156.7 280.09V182.409C156.7 177.991 153.1 174.377 148.7 174.377H10.7Z" fill="#333333"/>
<path d="M97.4999 269.147H61.8999V314.424H97.4999V269.147Z" fill="white"/>
<path d="M97.4999 315.729H61.8999C61.1999 315.729 60.5999 315.126 60.5999 314.424V269.147C60.5999 268.444 61.1999 267.842 61.8999 267.842H97.4999C98.1999 267.842 98.7999 268.444 98.7999 269.147V314.424C98.7999 315.126 98.1999 315.729 97.4999 315.729ZM63.1999 313.219H96.2999V270.452H63.1999V313.219Z" fill="#333333"/>
<path d="M119 314.424H52.1001V320.849H119V314.424Z" fill="white"/>
<path d="M119 322.154H52.1C51.4 322.154 50.8 321.551 50.8 320.849V314.424C50.8 313.721 51.4 313.119 52.1 313.119H119C119.7 313.119 120.3 313.721 120.3 314.424V320.849C120.3 321.551 119.7 322.154 119 322.154ZM53.4001 319.644H117.8V315.628H53.4001V319.644Z" fill="#333333"/>
<path d="M79.7 236.018C82.4614 236.018 84.7 233.77 84.7 230.998C84.7 228.226 82.4614 225.979 79.7 225.979C76.9385 225.979 74.7 228.226 74.7 230.998C74.7 233.77 76.9385 236.018 79.7 236.018Z" fill="url(#paint1_linear)"/>
<path d="M79.7 237.222C76.3 237.222 73.5 234.411 73.5 230.998C73.5 227.585 76.3 224.774 79.7 224.774C83.1 224.774 85.9 227.585 85.9 230.998C85.9 234.411 83.1 237.222 79.7 237.222ZM79.7 227.284C77.7 227.284 76 228.99 76 230.998C76 233.006 77.7 234.713 79.7 234.713C81.7 234.713 83.4 233.006 83.4 230.998C83.4 228.99 81.8 227.284 79.7 227.284Z" fill="#333333"/>
<path d="M225.8 185.721C225.8 185.721 235 185.32 234.6 187.428C233 195.861 221.7 220.055 206.6 220.256C190.2 220.457 192.5 194.154 193.7 188.733C193.9 187.93 200.1 187.227 200.1 187.227L195.9 164.639L224.8 146.97L225.5 150.986L225.8 185.721Z" fill="white"/>
<path d="M206.5 221.461C202.3 221.461 199 219.855 196.5 216.843C189.9 208.611 191.7 192.046 192.5 188.432C192.6 187.729 192.8 186.826 198.6 186.123L194.7 164.84C194.6 164.338 194.8 163.836 195.3 163.535L224.2 145.866C224.6 145.665 225 145.665 225.4 145.766C225.8 145.966 226 146.267 226.1 146.669L226.8 150.685C226.8 150.785 226.8 150.785 226.8 150.885L227 184.517C230 184.517 234.2 184.717 235.4 186.123C235.8 186.625 235.9 187.127 235.8 187.729C234 196.965 222.3 221.36 206.6 221.561C206.6 221.461 206.5 221.461 206.5 221.461ZM194.9 189.336C193.9 194.355 193.1 208.51 198.5 215.237C200.5 217.746 203.2 218.951 206.6 218.951H206.7C220.9 218.851 231.6 195.56 233.4 187.528C232.4 187.127 229.1 186.826 225.9 186.926C225.6 186.926 225.2 186.826 225 186.625C224.8 186.424 224.6 186.023 224.6 185.721L224.4 150.885L224 148.777L197.4 165.041L201.4 186.826C201.5 187.127 201.4 187.528 201.2 187.83C201 188.131 200.7 188.332 200.3 188.332C198.2 188.532 195.7 189.034 194.9 189.336Z" fill="#333333"/>
<path d="M176.8 167.851C176.1 167.349 175.5 166.746 174.9 165.843C174.3 164.939 172.4 157.209 174.8 157.109C170.8 157.209 166.9 155.001 165.5 151.889C164.1 148.676 165.4 144.861 168.5 142.753C164.8 141.347 162.4 137.934 162.6 134.521C162.8 131.107 165.6 127.895 169.4 126.891C165.1 123.678 163.5 118.057 165.7 113.539C167.9 109.021 173.7 106.01 179.4 106.311C179.6 101.793 184.4 97.7774 189.7 97.7774C195 97.677 199.9 101.592 200.2 106.11C202.1 103.199 204.6 100.488 208 98.7813C211.4 97.0747 215.8 96.6731 219.3 98.179C222.8 99.6849 224.9 103.5 223.5 106.612C225.6 102.094 232.8 99.8857 237.9 102.195C243 104.504 244.6 110.929 241.2 114.844C244.6 112.535 250 113.338 253.1 115.948C256.2 118.558 257.2 122.574 256.8 126.289C256.4 130.003 254.8 133.517 253.1 136.93C257.9 139.34 260.5 144.46 259.3 148.977C258.1 153.595 253.2 157.209 247.7 157.711C249.2 160.522 247.8 163.936 245.3 166.144C239.9 170.863 232.7 170.662 226.5 167.048C226 166.746 218.6 161.526 221.1 160.823C216.7 162.128 211.8 161.727 207.7 159.92C206.2 159.217 204.7 158.414 203 158.615C200.7 158.916 199.4 161.125 198 162.831C194.3 167.449 187.8 169.859 181.7 169.256C179.8 168.955 178.2 168.654 176.8 167.851Z" fill="white"/>
<path d="M235.8 170.863C232.6 170.863 229.2 169.96 225.9 168.052C225.8 168.052 221 164.94 219.7 162.431C215.5 163.234 211.1 162.732 207.2 161.025C207 160.925 206.8 160.824 206.5 160.724C205.3 160.222 204.2 159.72 203.2 159.82C201.7 160.021 200.7 161.326 199.6 162.832C199.4 163.133 199.2 163.334 199 163.635C195.2 168.454 188.3 171.165 181.6 170.562C179.7 170.361 177.7 170.06 176 168.956C175.1 168.354 174.4 167.551 173.8 166.647C173.3 165.844 171.9 161.226 172.4 158.415C168.8 157.813 165.6 155.604 164.3 152.592C162.9 149.48 163.7 145.766 166.2 143.256C163.1 141.348 161.1 138.035 161.3 134.722C161.5 131.41 163.7 128.398 167 126.691C163.4 123.077 162.4 117.656 164.6 113.239C166.9 108.621 172.5 105.408 178.3 105.308C179.2 100.69 184.2 96.8748 189.6 96.7744H189.7C194.5 96.7744 198.9 99.6857 200.6 103.501C202.6 100.991 204.8 99.1838 207.3 97.9791C211.3 95.9713 216 95.7705 219.6 97.2763C221.9 98.2803 223.7 100.188 224.5 102.296C224.6 102.497 224.7 102.798 224.7 102.999C225.9 102.095 227.3 101.292 228.9 100.79C232.1 99.7861 235.4 99.9869 238.1 101.292C241 102.597 243.1 105.207 243.7 108.319C244 109.825 244 111.331 243.6 112.737C247 112.034 250.9 112.937 253.6 115.246C256.7 117.957 258.3 122.073 257.8 126.591C257.4 130.104 256 133.417 254.5 136.529C259.1 139.34 261.5 144.661 260.3 149.48C259.1 154.098 254.5 157.913 249.2 158.917C249.8 161.627 248.6 164.84 245.9 167.249C243.3 169.558 239.7 170.863 235.8 170.863ZM222.1 161.627C223 162.832 226.2 165.342 227.2 165.944C233.4 169.558 239.9 169.257 244.6 165.141C246.5 163.434 248 160.623 246.7 158.314C246.5 157.913 246.5 157.511 246.7 157.11C246.9 156.708 247.3 156.507 247.7 156.407C252.6 156.005 257.2 152.693 258.2 148.677C259.3 144.661 256.9 140.144 252.7 138.035C252.1 137.734 251.8 137.031 252.1 136.329C253.7 133.016 255.3 129.602 255.6 126.089C256 122.374 254.8 118.961 252.3 116.853C249.8 114.644 245 113.741 241.9 115.849C241.4 116.15 240.7 116.15 240.3 115.648C239.9 115.146 239.9 114.443 240.3 114.042C241.6 112.536 242.1 110.528 241.6 108.621C241.1 106.312 239.5 104.404 237.4 103.4C235.3 102.396 232.6 102.296 230 103.099C227.5 103.902 225.5 105.408 224.7 107.215C224.4 107.817 223.7 108.119 223 107.817C222.4 107.516 222.1 106.814 222.4 106.111C223 104.906 222.7 103.802 222.4 102.999C221.8 101.493 220.5 100.087 218.8 99.3846C215.9 98.0795 211.9 98.3807 208.6 99.9869C205.8 101.392 203.4 103.601 201.3 106.814C201 107.215 200.5 107.516 199.9 107.316C199.4 107.215 199 106.713 199 106.211C198.7 102.497 194.4 99.0834 189.8 99.0834H189.7C185.1 99.1838 180.8 102.597 180.7 106.412C180.7 106.713 180.5 107.115 180.3 107.316C180.1 107.516 179.7 107.617 179.4 107.617C174.2 107.316 168.8 110.126 166.9 114.142C165 118.057 166.4 123.077 170.2 125.888C170.6 126.189 170.8 126.691 170.7 127.093C170.6 127.595 170.3 127.896 169.8 128.097C166.5 129 164 131.811 163.9 134.622C163.7 137.433 165.9 140.344 169 141.549C169.4 141.75 169.7 142.151 169.8 142.553C169.9 143.055 169.6 143.457 169.3 143.758C166.7 145.565 165.6 148.677 166.7 151.287C167.9 153.998 171.4 155.905 174.8 155.805C174.8 155.805 174.8 155.805 174.9 155.805C175.6 155.805 176.1 156.307 176.1 157.009C176.1 157.612 175.7 158.214 175.1 158.314C174.6 159.419 175.5 164.037 176.1 165.141C176.5 165.844 177 166.346 177.6 166.747C178.7 167.45 180.2 167.751 182 167.952C187.9 168.554 193.9 166.145 197.2 162.029C197.4 161.828 197.6 161.527 197.8 161.326C199.1 159.62 200.6 157.712 203 157.411C204.8 157.21 206.3 157.913 207.7 158.515C207.9 158.616 208.1 158.716 208.3 158.816C212.2 160.523 216.8 160.824 220.9 159.62C221.6 159.419 222.3 159.82 222.4 160.523C222.5 160.824 222.4 161.326 222.1 161.627Z" fill="#333333"/>
<path d="M224.6 124.382C224.6 124.382 216.1 132.413 204.3 132.413C192.4 132.413 202.7 124.382 202.7 124.382C202.7 124.382 194.2 132.213 179.7 131.409C179.7 131.409 180.1 169.157 200.8 177.991C215.6 184.216 229.2 173.976 231.8 164.639C233.8 157.712 233.2 149.279 233.2 149.279C233.2 149.279 240.2 149.38 240.2 142.352C240.2 139.34 237.3 135.927 232.9 137.333" fill="white"/>
<path d="M210 181.103C206.7 181.103 203.5 180.401 200.3 179.096C179.1 170.06 178.4 133.016 178.4 131.41C178.4 131.108 178.5 130.707 178.8 130.506C179.1 130.305 179.4 130.104 179.7 130.205C191.3 130.908 198.9 125.788 201.1 124.081C201.4 123.78 201.7 123.579 201.8 123.479C202.3 123.077 203.1 123.177 203.5 123.679C203.9 124.181 203.9 124.984 203.4 125.386C203.3 125.486 203.1 125.687 202.6 126.089C200.9 127.595 199.4 129.502 199.7 130.305C199.8 130.707 200.9 131.309 204.1 131.309C215.3 131.309 223.5 123.679 223.6 123.579C224.1 123.077 224.9 123.077 225.4 123.679C225.9 124.181 225.9 124.984 225.3 125.486C224.9 125.788 216.3 133.919 204.1 133.919C200.1 133.919 197.9 133.016 197.3 131.209C197.1 130.606 197.1 130.104 197.2 129.502C193.4 131.309 187.8 133.116 180.8 132.915C181.1 139.642 183.6 169.558 201.1 176.987C208.7 180.2 215.2 178.594 219.3 176.586C224.7 173.976 229.1 169.257 230.4 164.438C232.3 157.813 231.8 149.58 231.8 149.48C231.8 149.179 231.9 148.777 232.1 148.576C232.3 148.275 232.7 148.175 233 148.175C233 148.175 235.6 148.175 237.3 146.569C238.2 145.665 238.7 144.26 238.7 142.553C238.7 141.348 238 140.043 237 139.24C236.2 138.638 234.9 138.136 233 138.738C232.3 138.939 231.6 138.537 231.4 137.935C231.2 137.232 231.6 136.529 232.2 136.329C234.5 135.626 236.7 135.927 238.4 137.232C240.1 138.437 241.1 140.545 241.1 142.553C241.1 144.962 240.4 146.97 238.9 148.376C237.4 149.882 235.4 150.384 234.1 150.584C234.2 153.194 234.1 159.62 232.6 165.141C231.1 170.562 226.2 175.983 220.2 178.794C217.2 180.2 213.6 181.103 210 181.103Z" fill="#333333"/>
<path d="M186.1 144.561C186.6 147.573 188.2 149.982 190.4 151.99C190.8 152.291 191.4 152.391 191.8 151.99C193.9 149.58 192.5 144.862 189.5 143.858C188.8 143.657 188.4 144.46 188.7 144.962C189.2 145.966 189.8 146.87 190 148.075C190.2 149.179 190.1 150.283 190.2 151.387C190.7 151.086 191.2 150.785 191.7 150.584C189.6 148.978 187.9 146.769 186.5 144.561C186.2 144.26 186.1 144.36 186.1 144.561Z" fill="#333333"/>
<path d="M207.6 147.071C208 148.476 209 149.079 210.2 149.781C210.9 150.183 211.7 149.982 212.1 149.279C213.2 147.271 213.2 142.653 210.9 141.449C210.4 141.248 209.7 141.248 209.5 141.85C209 142.955 209.2 144.059 209.4 145.264C209.6 146.569 209.3 147.773 209.5 148.978C209.7 148.476 209.9 147.874 210.1 147.372C209.5 147.673 208.7 146.97 208.4 146.669C208.1 146.167 207.4 146.569 207.6 147.071Z" fill="#333333"/>
<path d="M198.9 153.295C198.8 154.801 198.6 156.206 198.5 157.712C198.4 158.716 198 160.222 198.4 161.125C199.1 162.732 201 161.828 202.2 161.728C202.6 161.728 202.9 161.125 202.6 160.824C202.3 160.523 202 160.322 201.6 160.322C200.8 160.222 200.1 160.824 199.9 159.82C199.6 158.917 199.8 157.612 199.8 156.708C199.8 155.604 199.7 154.399 199.7 153.295C199.6 152.793 199 152.893 198.9 153.295Z" fill="#333333"/>
<path d="M210.5 166.145C212.3 166.346 214.3 165.844 215.8 164.739C217.2 163.635 218.5 161.627 218 159.82C217.9 159.218 217 159.218 216.7 159.62C215.9 160.925 215.5 162.23 214.4 163.434C213.3 164.639 212.1 165.543 210.4 165.844C210.2 165.844 210.3 166.145 210.5 166.145Z" fill="#333333"/>
<path d="M181.2 159.82C179.6 159.82 178.2 158.816 177.6 157.21L175.9 152.191C175.5 151.086 175.7 149.882 176.3 148.878C176.9 147.874 178 147.271 179.1 147.171L193.9 145.665C195 145.565 196 145.866 196.8 146.669C197.6 147.372 198 148.376 198 149.48V154.6C198 156.608 196.5 158.214 194.6 158.415L181.5 159.72C181.4 159.82 181.3 159.82 181.2 159.82ZM194.3 148.275H194.2L179.4 149.781C179 149.781 178.7 150.082 178.4 150.384C178.2 150.685 178.1 151.086 178.3 151.488L180 156.507C180.2 157.11 180.8 157.411 181.3 157.411L194.4 156.106C195.1 156.006 195.6 155.504 195.6 154.801V149.681C195.6 149.279 195.5 148.978 195.2 148.677C194.9 148.376 194.6 148.275 194.3 148.275Z" fill="#333333"/>
<path d="M205.4 157.511C203.9 157.511 202.4 156.507 201.9 154.901C201.9 154.801 201.9 154.7 201.8 154.7L201.1 149.38C200.8 148.275 200.9 147.171 201.5 146.268C202.1 145.264 203.2 144.661 204.3 144.561L218.9 143.557C219.9 143.457 221 143.858 221.8 144.561C222.6 145.264 223 146.268 223 147.372L222.5 153.496C222.5 155.403 221 157.009 219.1 157.21L205.6 157.612C205.6 157.511 205.5 157.511 205.4 157.511ZM204.3 154.198C204.5 154.7 205.1 155.002 205.6 155.002L219.1 154.6C219.7 154.5 220.2 153.998 220.2 153.295L220.7 147.171C220.7 146.87 220.5 146.569 220.3 146.268C220 146.067 219.7 145.866 219.3 145.966L204.7 146.97C204.3 146.97 204 147.171 203.8 147.573C203.6 147.874 203.5 148.275 203.7 148.677C203.7 148.777 203.7 148.878 203.8 148.878L204.3 154.198Z" fill="#333333"/>
<path d="M196.8 151.689C196.2 151.689 195.6 151.187 195.6 150.484C195.5 149.781 196.1 149.179 196.8 149.179L202.5 148.777C203.2 148.777 203.8 149.279 203.8 149.982C203.9 150.685 203.3 151.287 202.6 151.287L196.8 151.689C196.9 151.689 196.8 151.689 196.8 151.689Z" fill="#333333"/>
<path d="M304.4 286.515C304.4 286.515 310.1 319.242 303.6 320.949H207.3L200.4 309.404L281 301.272L278.6 290.831C278.7 290.631 286 282.298 304.4 286.515Z" fill="white"/>
<path d="M303.6 322.154H207.3C206.9 322.154 206.5 321.953 206.2 321.551L199.3 310.006C199.1 309.605 199.1 309.203 199.3 308.802C199.5 308.4 199.9 308.199 200.3 308.099L279.5 300.068L277.4 291.032C277.3 290.631 277.4 290.229 277.7 289.928C278 289.526 285.7 280.993 304.6 285.31C305.1 285.41 305.5 285.812 305.6 286.314C307 294.245 310.9 320.347 303.9 322.154C303.8 322.053 303.7 322.154 303.6 322.154ZM208.1 319.644H303.5C306.5 318.439 305.8 302.377 303.4 287.519C289 284.507 281.9 289.526 280.2 291.133L282.4 300.871C282.5 301.172 282.4 301.573 282.2 301.875C282 302.176 281.7 302.377 281.3 302.377L202.6 310.308L208.1 319.644Z" fill="#333333"/>
<path d="M196.5 303.079C187.4 303.079 180.1 309.103 180.1 316.431C180.1 318.038 180.5 319.544 181.1 320.949H212C212.6 319.544 213 318.038 213 316.431C213 309.103 205.6 303.079 196.5 303.079Z" fill="white"/>
<path d="M212 322.254H181.1C180.6 322.254 180.2 321.953 180 321.551C179.3 319.945 178.9 318.238 178.9 316.532C178.9 308.5 186.8 301.875 196.6 301.875C206.4 301.875 214.3 308.4 214.3 316.532C214.3 318.238 213.9 319.945 213.2 321.551C212.9 321.953 212.5 322.254 212 322.254ZM181.9 319.744H211.1C211.5 318.64 211.7 317.536 211.7 316.431C211.7 309.705 204.9 304.284 196.5 304.284C188.1 304.284 181.3 309.705 181.3 316.431C181.3 317.636 181.5 318.64 181.9 319.744Z" fill="#333333"/>
<path d="M128.099 86.2583H0.199951V0H128.2V86.2583H128.099ZM2.21253 84.2615H126.187V1.99672H2.21253V84.2615Z" fill="#CCCCCC"/>
<path d="M110.389 16.8723H83.0176V18.869H110.389V16.8723Z" fill="#CCCCCC"/>
<path d="M110.389 29.4516H83.0176V31.4483H110.389V29.4516Z" fill="#CCCCCC"/>
<path d="M110.389 42.0309H83.0176V44.0276H110.389V42.0309Z" fill="#CCCCCC"/>
<path d="M110.389 54.6102H83.0176V56.6069H110.389V54.6102Z" fill="#CCCCCC"/>
<path d="M110.389 67.1897H83.0176V69.1864H110.389V67.1897Z" fill="#CCCCCC"/>
<path d="M67.2189 69.1864H14.3887V16.8723H67.2189V69.1864ZM16.4013 67.1896H65.2063V18.869H16.4013V67.1896Z" fill="#CCCCCC"/>
<path d="M16.1999 57.9048L14.6904 56.5071L27.0678 44.2273L34.9168 52.1143L52.5269 34.5432L67.2187 49.0194L65.8099 50.4171L52.5269 37.3386L34.9168 54.9097L27.0678 47.1225L16.1999 57.9048Z" fill="#CCCCCC"/>
<path d="M33.1057 36.4401C29.9862 36.4401 27.4705 33.9442 27.4705 30.8493C27.4705 27.7544 29.9862 25.2585 33.1057 25.2585C36.2252 25.2585 38.7409 27.7544 38.7409 30.8493C38.7409 33.9442 36.2252 36.4401 33.1057 36.4401ZM33.1057 27.355C31.0931 27.355 29.483 28.9524 29.483 30.9491C29.483 32.9459 31.0931 34.5432 33.1057 34.5432C35.1183 34.5432 36.7283 32.9459 36.7283 30.9491C36.7283 28.9524 35.1183 27.355 33.1057 27.355Z" fill="#CCCCCC"/>
<path d="M389.003 322.912H0.99707V333.052H389.003V322.912Z" fill="#F5F5F5"/>
<path d="M390 334H0V321.964H390V334ZM1.99437 332.105H388.006V323.859H1.99437V332.105Z" fill="#CCCCCC"/>
<path d="M333.2 321.351L325.8 291.133H367.8L361.4 321.25L333.2 321.351Z" fill="#BDECFF"/>
<path d="M333.2 322.555C332.6 322.555 332.1 322.154 332 321.551L324.6 291.334C324.5 290.932 324.6 290.53 324.8 290.229C325 289.928 325.4 289.727 325.8 289.727H367.8C368.2 289.727 368.5 289.928 368.8 290.229C369.1 290.53 369.1 290.932 369 291.233L362.5 321.351C362.4 321.953 361.9 322.355 361.3 322.355L333.2 322.555ZM327.4 292.338L334.2 320.046L360.4 319.945L366.3 292.338H327.4Z" fill="#333333"/>
<path d="M346.8 258.004C336 258.004 327.3 267.139 327.3 278.383C327.3 283.001 328.8 287.318 331.3 290.731H362.3C364.8 287.318 366.3 283.001 366.3 278.383C366.3 267.139 357.6 258.004 346.8 258.004Z" fill="white"/>
<path d="M362.3 291.936H331.3C330.9 291.936 330.5 291.735 330.3 291.434C327.5 287.619 326.1 283.101 326.1 278.383C326.1 266.436 335.4 256.799 346.8 256.799C358.2 256.799 367.5 266.537 367.5 278.383C367.5 283.101 366 287.619 363.2 291.434C363.1 291.735 362.7 291.936 362.3 291.936ZM332 289.426H361.7C363.9 286.214 365.1 282.399 365.1 278.383C365.1 267.842 356.9 259.309 346.9 259.309C336.8 259.309 328.7 267.842 328.7 278.383C328.6 282.298 329.8 286.113 332 289.426Z" fill="#333333"/>
<path d="M322.4 273.564C324.2 274.367 326 275.171 327.8 275.873C329.5 276.576 331.2 277.48 333 276.877C333.5 276.676 333.7 276.074 333.3 275.572C332.1 274.367 330.3 274.267 328.7 273.865C326.7 273.464 324.8 272.962 322.8 272.36C322.2 272.36 321.8 273.263 322.4 273.564Z" fill="#333333"/>
<path d="M362.2 276.877C365.3 276.676 368.9 276.777 371.5 274.869C372.2 274.367 372.1 273.364 371.3 273.062C368.2 272.058 364.9 273.464 361.9 274.267C360.5 274.669 360.7 276.978 362.2 276.877Z" fill="#333333"/>
<path d="M341 273.363C343 273.363 343 270.251 341 270.251C339 270.251 339 273.363 341 273.363Z" fill="#333333"/>
<path d="M351.1 268.143V268.244C351.1 268.444 351.1 268.545 351.1 268.745C351.1 268.946 351.2 269.047 351.4 269.147C351.5 269.247 351.7 269.348 351.8 269.448C352 269.448 352.1 269.448 352.3 269.448H352.4C352.6 269.348 352.7 269.348 352.9 269.147C353 269.047 353.1 268.846 353.2 268.645C353.3 268.244 353.2 267.842 352.9 267.641C352.6 267.44 352.2 267.24 351.9 267.34C351.7 267.44 351.6 267.44 351.4 267.641C351.3 267.842 351.2 267.942 351.1 268.143Z" fill="#333333"/>
<path d="M334.1 265.533C333.3 264.73 332.5 263.826 331.8 262.923C331.2 262.019 330.8 261.316 329.8 260.714C329.5 260.513 329.1 260.815 329.1 261.116C329.1 262.32 329.7 263.224 330.4 264.127C331.1 265.131 331.9 266.035 332.7 266.938C333.5 267.842 335 266.336 334.1 265.533Z" fill="#333333"/>
<path d="M346 261.116C346.2 260.112 346.2 259.108 346 258.104C345.7 257.1 345.8 255.996 345 255.293C344.7 254.992 344.3 255.092 344 255.293C343 256.096 343.2 257.502 343.4 258.706C343.6 259.911 344.3 260.915 345.4 261.517C345.6 261.517 346 261.517 346 261.116Z" fill="#333333"/>
<path d="M339.7 263.425C339 261.618 338.3 259.71 337.2 258.104C337 257.803 336.5 258.004 336.6 258.405C337 260.313 337.7 262.019 338.3 263.927C338.6 264.73 340.1 264.328 339.7 263.425Z" fill="#333333"/>
<path d="M355.8 263.124C357 262.12 357.9 260.915 359 259.911C360 259.007 360.9 257.903 361.4 256.598C361.5 256.196 361.2 255.695 360.8 255.795C359.2 255.996 357.9 256.899 356.9 258.104C355.8 259.309 354.8 260.714 354.3 262.22C353.9 263.123 355.1 263.625 355.8 263.124Z" fill="#333333"/>
<path d="M360.9 268.344C361.7 267.942 362.5 267.541 363.4 267.34C364.2 267.039 365 266.938 365.7 266.537C366.4 266.135 366 265.131 365.3 265.131C363.5 265.031 361.6 266.135 360.1 267.039C359.4 267.641 360.1 268.846 360.9 268.344Z" fill="#333333"/>
<path d="M352.8 280.993C354.3 280.993 354.3 278.684 352.8 278.684C351.3 278.684 351.3 280.993 352.8 280.993Z" fill="#333333"/>
<path d="M338.7 280.491C338.2 281.094 337.7 281.596 337.2 282.198C336.7 282.8 336.5 283.403 336.2 284.105C336.1 284.407 336.5 284.808 336.8 284.607C337.3 284.206 337.8 283.804 338.3 283.403C338.8 282.901 339.3 282.499 339.8 282.098C341 281.094 339.6 279.487 338.7 280.491Z" fill="#333333"/>
<defs>
<linearGradient id="paint0_linear" x1="115.4" y1="181.053" x2="240.816" y2="366.105" gradientUnits="userSpaceOnUse">
<stop stop-color="#FFC671"/>
<stop offset="0.59375" stop-color="#FF7541"/>
<stop offset="1" stop-color="#FF6F3D"/>
</linearGradient>
<linearGradient id="paint1_linear" x1="74.7" y1="225.586" x2="84.7406" y2="235.979" gradientUnits="userSpaceOnUse">
<stop stop-color="#FFC671"/>
<stop offset="0.59375" stop-color="#FF7541"/>
<stop offset="1" stop-color="#FF6F3D"/>
</linearGradient>
</defs>
</svg>
