<svg width="386" height="356" viewBox="0 0 386 356" fill="none" xmlns="http://www.w3.org/2000/svg">
<path d="M170.016 256.866L12.1184 184.294C-1.3728 177.988 -1.3728 168.179 12.1184 162.373L170.016 89.8014C183.507 83.4952 205.093 83.4952 217.984 89.8014L375.882 162.373C389.373 168.679 389.373 178.489 375.882 184.294L217.984 256.866C204.493 262.672 182.807 262.672 170.016 256.866Z" fill="#F5F5F5"/>
<path d="M204.656 137.115H97.4561C77.2561 137.115 60.7561 153.528 60.7561 173.846V282.537H82.1561H219.956H241.356V173.745C241.256 153.528 224.856 137.115 204.656 137.115Z" fill="white"/>
<path d="M242.256 283.439H59.7561V173.746C59.7561 152.929 76.6561 136.015 97.4561 136.015H204.656C225.456 136.015 242.356 152.929 242.356 173.746V283.439H242.256ZM61.7561 281.437H240.256V173.746C240.256 154.03 224.256 138.016 204.556 138.016H97.4561C77.7561 138.016 61.7561 154.03 61.7561 173.746V281.437Z" fill="#CCCCCC"/>
<path d="M248.756 319.669H53.2561C53.2561 330.278 57.4561 338.885 62.6561 338.885H66.5561L60.7561 354.898H66.0561L73.0561 338.885H228.756L235.756 354.898H241.056L235.256 338.885H239.156C244.556 338.885 248.756 330.278 248.756 319.669Z" fill="white"/>
<path d="M242.656 356H235.256L228.256 339.986H73.8562L66.8562 356H59.4562L65.2562 339.986H62.7562C56.9562 339.986 52.3562 331.079 52.3562 319.769V318.769H249.856V319.769C249.856 331.079 245.256 339.986 239.456 339.986H236.956L242.656 356ZM236.556 353.998H239.856L234.056 337.985H239.356C243.756 337.985 247.456 330.178 247.756 320.77H54.2562C54.4562 330.178 58.2562 337.985 62.6562 337.985H67.9562L62.1562 353.998H65.4562L72.4562 337.985H229.456L236.556 353.998Z" fill="#CCCCCC"/>
<path d="M262.656 205.472H260.556H233.656H233.056C232.456 205.472 231.856 205.572 231.256 205.672C224.856 206.773 219.956 212.378 219.956 219.084V282.337H82.1562V219.184C82.1562 212.478 77.2562 206.874 70.8562 205.773C70.2562 205.672 69.6562 205.572 69.0562 205.572H68.5562H41.5562H39.4562C27.6562 205.572 18.0562 215.181 18.0562 226.99C18.0562 238.8 27.6562 248.208 39.4562 248.208H41.5562V305.957C41.5562 313.463 47.6562 319.669 55.2562 319.669H71.4562H82.1562H219.956H246.856C254.356 319.669 260.556 313.563 260.556 305.957V248.208H262.656C274.456 248.208 284.056 238.6 284.056 226.79C284.056 214.98 274.456 205.472 262.656 205.472Z" fill="white"/>
<path d="M246.856 320.67H55.2562C47.1562 320.67 40.5562 314.065 40.5562 305.958V249.21H39.4562C27.0562 249.21 17.0562 239.202 17.0562 226.891C17.0562 214.581 27.0562 204.472 39.4562 204.472H69.0562C69.7562 204.472 70.3562 204.572 71.0562 204.672C78.0562 205.873 83.1562 211.979 83.1562 219.085V281.337H218.956V219.185C218.956 212.079 224.056 205.974 231.156 204.773C231.756 204.672 232.456 204.572 233.056 204.572H262.656C274.956 204.572 285.056 214.581 285.056 226.991C285.056 239.402 275.056 249.41 262.656 249.41H261.556V306.158C261.456 314.065 254.956 320.67 246.856 320.67ZM39.4562 206.474C28.2562 206.474 19.0562 215.582 19.0562 226.891C19.0562 238.201 28.1562 247.208 39.4562 247.208H42.5562V305.958C42.5562 312.964 48.2562 318.669 55.2562 318.669H246.856C253.856 318.669 259.556 312.964 259.556 305.958V247.208H262.656C273.856 247.208 283.056 238.101 283.056 226.791C283.056 215.482 273.956 206.374 262.656 206.374H233.056C232.556 206.374 232.056 206.474 231.456 206.574C225.356 207.675 220.856 212.879 220.856 219.085V283.339H81.1562V219.185C81.1562 212.979 76.7561 207.775 70.6562 206.674C70.0562 206.574 69.5562 206.474 69.0562 206.474H39.4562Z" fill="#CCCCCC"/>
<path d="M126.056 136.815C130.156 129.809 126.756 121.703 116.156 122.503C117.256 99.6841 88.4562 84.171 66.9562 103.087C66.9562 103.087 52.6562 96.8817 40.1562 101.185C25.5562 106.19 12.9562 123.104 22.3562 144.122C19.0562 144.622 4.05621 147.324 1.85621 163.538C0.556212 172.846 3.85621 182.954 10.9562 186.057C2.95621 192.162 3.75621 202.17 6.45621 206.874C14.8562 221.287 56.0562 200.669 60.5562 201.37C112.356 208.976 144.956 187.158 149.156 160.736C152.656 138.717 132.556 134.313 126.056 136.815Z" fill="#666666"/>
<path d="M18.4563 213.38C12.5563 213.38 7.65626 211.779 5.15626 207.575C2.25626 202.671 1.55626 192.863 8.25626 186.357C1.55626 181.953 -0.843738 171.845 0.256262 163.438C2.25626 148.625 14.2563 144.322 20.1563 143.121C16.6563 134.313 16.6563 125.606 20.0563 117.699C23.6563 109.492 30.9563 102.787 39.5563 99.8842C50.7563 96.081 63.1563 100.184 66.5563 101.486C76.8563 92.8783 90.0563 90.8766 101.256 96.2812C111.156 101.085 117.456 110.693 117.556 121.102C122.156 121.102 125.756 122.804 127.656 126.006C129.256 128.608 129.556 131.711 128.456 134.914C132.956 134.513 139.156 136.015 143.656 139.718C147.756 143.021 152.256 149.426 150.456 161.036C148.256 174.947 138.356 187.458 123.256 195.265C106.456 203.972 84.6563 206.574 60.1563 202.971C59.2563 202.871 54.7563 204.472 50.8563 205.773C41.8563 208.776 28.6563 213.38 18.4563 213.38ZM49.8563 101.185C46.8563 101.185 43.6563 101.586 40.6563 102.587C32.7563 105.289 26.1563 111.394 22.9563 118.8C19.6563 126.407 19.9563 134.914 23.7563 143.521L24.5563 145.323L22.5563 145.623C18.5563 146.123 5.35626 149.026 3.35626 163.738C2.05626 173.046 5.55626 182.053 11.5563 184.656L13.9563 185.657L11.9563 187.258C4.85626 192.662 5.35626 201.67 7.85626 206.074C13.3563 215.582 37.3563 207.275 50.1563 202.771C56.4563 200.569 59.3563 199.568 60.8563 199.768C84.6563 203.271 105.856 200.769 122.056 192.362C136.356 185.056 145.656 173.346 147.756 160.335C149.056 152.228 147.056 145.823 142.056 141.82C136.856 137.616 129.756 137.016 126.656 138.217L122.656 139.718L124.756 136.015C126.556 132.912 126.756 129.709 125.256 127.307C123.656 124.805 120.456 123.604 116.256 123.904L114.556 124.005L114.656 122.303C115.156 112.295 109.556 103.287 100.056 98.7833C89.5563 93.679 77.4563 95.6807 67.8563 104.188L67.1563 104.788L66.2563 104.388C66.1563 104.388 58.5563 101.185 49.8563 101.185Z" fill="#333333"/>
<path d="M163.656 172.445C167.056 167.841 170.456 163.338 173.856 158.734C176.656 155.031 179.356 151.328 182.156 147.624C183.756 145.423 186.056 143.421 187.056 140.819C187.956 138.317 187.156 134.914 186.956 132.312C186.856 130.81 186.856 129.109 187.656 127.808C190.556 122.804 195.256 129.309 198.256 130.41C199.856 131.01 202.056 131.211 202.756 132.812C203.156 133.713 202.856 134.814 202.556 135.714C200.656 141.82 198.456 145.623 194.656 150.627C191.356 155.031 187.956 159.434 184.656 163.838C180.356 169.543 176.056 175.248 171.656 180.852C171.556 180.752 163.656 172.445 163.656 172.445Z" fill="white"/>
<path d="M171.556 181.953C171.256 181.953 170.856 181.853 170.656 181.553L162.756 173.246C162.356 172.846 162.256 172.145 162.656 171.645L181.156 146.824C181.656 146.123 182.256 145.422 182.856 144.722C184.056 143.321 185.256 141.919 185.856 140.318C186.456 138.717 186.156 136.515 185.956 134.413C185.856 133.713 185.756 133.012 185.756 132.311C185.656 130.61 185.656 128.708 186.556 127.107C187.356 125.706 188.356 124.905 189.556 124.705C191.856 124.205 194.056 125.906 196.056 127.407C196.956 128.108 197.956 128.909 198.656 129.109C199.056 129.209 199.356 129.309 199.756 129.409C201.256 129.809 203.056 130.31 203.856 132.111C204.456 133.512 203.956 134.914 203.656 135.914C201.556 142.52 199.156 146.423 195.556 151.227L172.556 181.453C172.356 181.753 171.956 181.953 171.556 181.953C171.656 181.953 171.556 181.953 171.556 181.953ZM165.256 172.345L171.456 178.851L193.556 149.826C197.056 145.222 199.256 141.619 201.256 135.314C201.556 134.513 201.756 133.713 201.556 133.212C201.256 132.612 200.456 132.311 199.156 131.911C198.756 131.811 198.256 131.611 197.856 131.511C196.856 131.11 195.756 130.31 194.556 129.409C193.056 128.308 191.256 126.907 190.156 127.107C189.956 127.107 189.456 127.207 188.756 128.308C188.156 129.409 188.156 130.81 188.256 132.111C188.256 132.712 188.356 133.412 188.456 134.113C188.756 136.415 189.056 139.017 188.256 141.219C187.456 143.221 186.156 144.822 184.756 146.323C184.156 147.024 183.656 147.624 183.156 148.225L165.256 172.345Z" fill="#333333"/>
<path d="M284.056 154.329L318.456 164.337C318.456 164.337 338.056 156.931 342.856 160.034C345.656 161.835 347.256 164.437 344.256 168.14C337.156 177.048 317.856 177.648 317.856 177.648L279.856 168.741L284.056 154.329Z" fill="white"/>
<path d="M317.956 178.851C317.856 178.851 317.756 178.851 317.656 178.851L279.656 169.943C279.356 169.843 279.056 169.643 278.856 169.342C278.656 169.042 278.656 168.742 278.756 168.342L282.856 154.03C282.956 153.729 283.156 153.429 283.456 153.229C283.756 153.029 284.056 153.029 284.456 153.129L318.456 163.037C321.756 161.836 338.556 155.831 343.556 159.034C345.556 160.335 346.756 161.836 347.056 163.638C347.356 165.339 346.756 167.141 345.256 169.042C337.956 178.15 318.856 178.75 317.956 178.851ZM281.556 167.741L318.056 176.348C319.856 176.248 336.956 175.348 343.356 167.341C344.356 166.04 344.856 164.939 344.656 163.938C344.456 162.937 343.656 161.936 342.256 161.035C339.056 159.034 326.256 162.637 318.956 165.439C318.656 165.539 318.456 165.539 318.156 165.439L284.956 155.831L281.556 167.741Z" fill="#333333"/>
<path d="M146.656 224.79C146.656 224.79 200.056 159.835 224.256 137.416C228.256 133.713 233.656 131.711 239.156 131.911C257.756 132.612 299.856 157.433 299.856 157.433C302.256 158.634 304.156 171.645 296.756 176.048C288.156 175.348 236.456 159.835 236.456 159.835L170.856 264.323L146.656 224.79Z" fill="url(#paint0_linear)"/>
<path d="M170.756 265.824C170.256 265.824 169.756 265.524 169.456 265.124L145.256 225.49C144.956 224.99 144.956 224.289 145.356 223.789C145.856 223.188 199.156 158.534 223.056 136.215C227.356 132.212 233.056 130.11 238.956 130.31C257.556 131.011 298.156 154.63 300.356 155.932C302.256 156.932 303.156 160.736 303.256 163.638C303.556 169.743 301.256 174.747 297.256 177.25C296.956 177.45 296.656 177.45 296.356 177.45C288.356 176.849 244.556 163.838 236.856 161.536L171.856 265.124C171.756 265.624 171.356 265.824 170.756 265.824ZM148.456 224.89L170.856 261.521L235.156 159.034C235.556 158.434 236.256 158.233 236.856 158.434C237.356 158.634 286.656 173.346 296.356 174.547C299.656 172.345 300.356 168.142 300.456 165.84C300.656 161.837 299.556 159.134 299.156 158.734C298.656 158.434 257.056 134.113 239.056 133.413C233.856 133.212 229.056 135.014 225.256 138.517C202.856 159.234 154.756 217.283 148.456 224.89Z" fill="#333333"/>
<path d="M291.356 200.568L323.356 230.794C323.356 230.794 337.956 229.393 343.556 230.894C350.456 232.695 352.056 236.699 350.256 241.503C349.056 244.605 346.256 247.808 339.156 247.508C320.756 246.707 317.656 241.603 317.656 241.603L280.456 217.683L291.356 200.568Z" fill="white"/>
<path d="M340.056 248.81C339.756 248.81 339.456 248.81 339.056 248.81C322.256 248.109 317.756 243.806 316.756 242.505L279.756 218.685C279.156 218.284 279.056 217.584 279.356 216.983L290.256 199.969C290.456 199.668 290.756 199.468 291.156 199.368C291.556 199.368 291.856 199.468 292.156 199.668L323.756 229.494C326.556 229.193 338.656 228.293 343.856 229.694C347.656 230.695 350.156 232.396 351.356 234.698C352.456 236.7 352.456 239.202 351.356 241.904C350.256 245.107 347.256 248.81 340.056 248.81ZM282.256 217.283L318.356 240.603C318.556 240.703 318.656 240.803 318.756 241.003C318.756 241.003 322.056 245.607 339.256 246.308C344.456 246.508 347.656 244.807 349.056 241.103C349.856 239.002 349.856 237.3 349.156 235.899C348.256 234.198 346.256 232.997 343.256 232.096C337.956 230.695 323.656 232.096 323.556 232.096C323.156 232.096 322.856 231.996 322.556 231.796L291.656 202.571L282.256 217.283Z" fill="#333333"/>
<path d="M117.156 260.319C117.156 260.319 137.556 287.242 165.156 282.838C190.956 278.735 211.056 227.392 229.856 194.664C231.756 191.261 235.556 187.858 238.256 190.561C254.956 207.675 303.056 237 303.056 237C303.056 237 316.356 242.104 315.456 221.787C307.756 213.28 273.656 177.349 251.256 160.735C242.156 153.93 230.156 152.829 221.656 160.435L145.856 231.195L117.156 260.319Z" fill="url(#paint1_linear)"/>
<path d="M158.956 284.74C134.156 284.74 116.756 262.221 115.956 261.12C115.456 260.52 115.556 259.719 116.056 259.118L144.656 229.994L220.656 159.234C229.156 151.628 241.756 151.728 252.156 159.434C274.356 175.948 308.556 211.979 316.556 220.686C316.756 220.986 316.956 221.286 316.956 221.587C317.256 229.393 315.656 234.598 312.056 237.2C307.856 240.202 302.756 238.301 302.556 238.201C302.456 238.201 302.356 238.101 302.356 238.101C300.356 236.9 253.856 208.476 237.256 191.361C236.656 190.761 236.256 190.761 235.856 190.861C234.456 191.061 232.556 192.863 231.156 195.164C227.156 202.17 223.056 209.977 218.856 218.184C202.956 248.91 186.456 280.737 165.456 284.039C163.256 284.64 161.056 284.74 158.956 284.74ZM119.156 260.419C123.156 265.224 141.556 285.04 164.956 281.337C184.456 278.235 201.256 245.707 216.156 217.083C220.456 208.776 224.456 200.969 228.556 193.963C230.056 191.361 232.556 188.559 235.456 188.159C236.956 187.958 238.256 188.459 239.356 189.56C255.256 205.873 300.856 233.997 303.756 235.699C304.356 235.899 307.756 236.9 310.356 234.998C312.956 233.096 314.256 228.793 314.056 222.488C305.556 213.18 272.156 178.25 250.456 162.037C241.256 155.231 230.156 155.031 222.756 161.636L146.856 232.396L119.156 260.419Z" fill="#333333"/>
<path d="M55.1562 139.417C55.1562 139.417 35.2562 173.446 35.4562 184.956C35.5562 190.06 48.2562 179.951 61.5562 174.347C61.5562 174.347 97.6562 162.437 103.756 162.136C120.756 161.536 145.256 190.861 145.256 190.861C143.856 189.86 178.556 150.126 178.556 150.126L190.556 159.935C190.556 159.935 156.856 209.076 145.856 209.076L133.256 201.169C128.256 206.474 150.356 224.889 150.356 224.889C150.356 224.889 151.456 257.117 117.156 260.219C105.856 248.109 68.8562 207.875 60.5562 201.169C60.5562 201.169 27.2562 212.179 20.1562 204.272C9.85619 192.862 44.7562 137.115 44.7562 137.115L49.8562 138.717L55.1562 139.417Z" fill="white"/>
<path d="M117.156 261.821C116.756 261.821 116.356 261.62 116.056 261.32C114.456 259.619 112.456 257.417 110.056 254.815C95.3562 238.901 68.2562 209.777 60.2562 202.971C54.2562 204.873 26.2562 213.28 19.1562 205.373C8.35623 193.363 39.8562 142.12 43.5562 136.315C43.9562 135.714 44.6562 135.514 45.2562 135.714L50.2562 137.216L55.4562 137.916C55.9562 138.016 56.3562 138.316 56.5562 138.717C56.7562 139.117 56.7562 139.718 56.4562 140.118C56.2562 140.418 36.8562 173.846 36.9562 184.756C38.4562 184.756 43.1562 182.053 46.9562 179.952C51.1562 177.55 56.0562 174.947 61.0562 172.846H61.1562C62.6562 172.345 97.5562 160.835 103.756 160.535C103.956 160.535 104.156 160.535 104.356 160.535C119.556 160.535 139.356 181.853 144.956 188.158C146.656 185.556 150.856 180.252 160.656 168.642C168.956 158.834 177.356 149.226 177.456 149.126C177.956 148.525 178.956 148.425 179.556 148.925L191.556 158.734C192.156 159.234 192.256 160.135 191.856 160.735C188.356 165.84 157.356 210.477 145.956 210.477C145.656 210.477 145.456 210.377 145.156 210.277L134.056 203.371C134.556 208.576 146.656 219.785 151.256 223.688C151.556 223.989 151.756 224.389 151.756 224.789C151.756 225.09 152.556 258.518 117.256 261.72C117.256 261.821 117.256 261.821 117.156 261.821ZM60.5562 199.768C60.8562 199.768 61.2562 199.868 61.4562 200.069C68.7562 205.873 96.9562 236.399 112.256 252.713C114.356 255.015 116.256 257.017 117.756 258.618C147.256 255.515 148.856 230.094 148.856 225.59C145.556 222.788 131.456 210.477 131.056 203.471C130.956 202.17 131.356 200.969 132.156 200.069C132.656 199.568 133.456 199.468 134.056 199.868L146.256 207.475C153.856 206.574 175.756 178.65 188.456 160.135L178.656 152.128C166.656 165.94 148.356 187.458 146.656 190.761C146.656 191.161 146.556 191.461 146.256 191.762C145.756 192.362 144.856 192.362 144.256 191.962C144.156 191.862 144.056 191.762 143.956 191.661C143.756 191.361 120.256 163.438 104.256 163.438C104.056 163.438 103.956 163.438 103.756 163.438C98.9562 163.638 72.0562 172.245 62.0562 175.548C57.2562 177.65 52.5562 180.252 48.3562 182.554C40.8562 186.757 37.3562 188.559 35.2562 187.358C34.7562 187.058 33.9562 186.357 33.9562 184.856C33.7562 174.547 48.4562 147.925 52.7562 140.518L49.6562 140.118C49.5562 140.118 49.4562 140.118 49.4562 140.018L45.4562 138.817C35.5562 154.73 13.6562 194.764 21.3562 203.271C26.6562 209.076 51.1562 202.671 60.1562 199.768C60.2562 199.768 60.4562 199.768 60.5562 199.768Z" fill="#333333"/>
<path d="M73.7563 170.443L70.4563 148.424L90.7563 146.322L91.9563 165.939C94.7563 167.24 100.056 171.644 100.756 174.947C102.956 186.356 90.4563 186.957 84.1563 184.655C70.0563 179.551 71.8563 172.545 73.7563 170.443Z" fill="white"/>
<path d="M90.4563 186.958C88.0563 186.958 85.6562 186.557 83.6562 185.857C74.7563 182.654 72.0563 178.751 71.3563 175.948C70.7563 173.546 71.4563 171.445 72.3563 170.144L69.1562 148.725C69.1562 148.425 69.1563 148.025 69.3563 147.825C69.5563 147.524 69.8562 147.424 70.2562 147.324L90.5563 145.223C90.8563 145.223 91.2563 145.323 91.4563 145.523C91.7563 145.723 91.8563 146.023 91.8563 146.424L93.0563 165.339C96.0563 166.941 101.156 171.244 101.856 174.847C102.856 179.952 100.956 182.854 99.2562 184.355C97.1562 186.157 93.8563 186.958 90.4563 186.958ZM71.9563 149.526L75.0563 170.244C75.1563 170.644 74.9562 170.944 74.7562 171.244C74.0562 171.945 73.4563 173.446 73.9563 175.248C74.5563 177.45 76.8562 180.652 84.6562 183.455C88.7563 184.956 94.8563 184.956 97.8563 182.354C99.6563 180.752 100.256 178.35 99.6562 175.148C99.1562 172.546 94.4562 168.342 91.6562 167.041C91.2563 166.841 90.9563 166.44 90.9563 165.94L89.8563 147.625L71.9563 149.526Z" fill="#333333"/>
<path d="M192.356 147.224L202.056 109.092C202.356 108.091 203.156 107.391 204.156 107.291L224.556 105.789C226.156 105.689 227.356 107.191 226.956 108.792L217.256 148.325C216.956 149.426 216.056 150.127 215.056 150.127H194.556C193.156 150.327 192.056 148.826 192.356 147.224Z" fill="#BDECFF"/>
<path d="M194.656 151.828C193.456 151.828 192.456 151.328 191.656 150.327C190.856 149.326 190.656 148.125 190.956 146.824L200.656 108.692C201.056 107.09 202.456 105.889 204.056 105.789L224.456 104.288C225.656 104.188 226.756 104.688 227.556 105.589C228.356 106.59 228.656 107.891 228.356 109.092L218.656 148.625C218.256 150.327 216.756 151.528 214.956 151.628L194.656 151.828ZM193.856 147.625C193.756 147.925 193.856 148.225 194.056 148.525C194.156 148.625 194.356 148.826 194.656 148.826H215.156C215.556 148.826 215.856 148.525 215.956 148.125L225.656 108.592C225.756 108.091 225.556 107.791 225.456 107.691C225.356 107.591 225.156 107.391 224.856 107.391L204.456 108.892C204.156 108.892 203.856 109.192 203.756 109.592L193.856 147.625Z" fill="#333333"/>
<path d="M220.856 114.697L215.656 136.615L214.956 139.718L214.556 141.219C214.456 141.72 214.056 142.12 213.656 142.32C213.456 142.42 213.356 142.42 213.156 142.42H209.656H199.656C198.656 142.42 197.956 141.419 198.156 140.419L202.256 124.105L203.756 117.9L204.556 114.797C204.556 114.697 204.656 114.497 204.756 114.397C204.956 113.896 205.456 113.596 205.956 113.596H206.456L219.356 112.695C220.356 112.595 221.156 113.596 220.856 114.697Z" fill="white"/>
<path d="M120.656 181.553C124.256 184.456 127.956 187.558 129.356 192.162C130.656 196.466 130.356 200.969 131.256 205.373C131.456 206.574 132.956 206.274 133.356 205.373C135.256 200.769 133.956 194.064 131.956 189.66C129.856 184.956 125.856 182.754 121.356 180.652C120.756 180.452 120.156 181.153 120.656 181.553Z" fill="#333333"/>
<path d="M56.3558 116.899C56.3558 116.899 50.4558 161.436 87.6558 159.735C98.4558 157.633 101.756 143.321 101.656 131.811C101.556 120.301 91.2558 101.486 72.7558 104.288C62.8558 106.49 56.3558 116.899 56.3558 116.899Z" fill="white"/>
<path d="M85.656 161.036C76.456 161.036 69.156 158.133 63.956 152.428C52.256 139.718 55.056 117.699 55.156 116.698C55.156 116.498 55.256 116.398 55.356 116.198C55.656 115.798 62.256 105.289 72.556 102.987C79.756 101.886 86.456 103.888 91.956 108.592C99.456 115.097 102.956 125.206 103.056 131.811C103.156 144.522 99.156 158.834 87.956 161.036C87.856 161.036 87.856 161.036 87.756 161.036C87.056 161.036 86.356 161.036 85.656 161.036ZM57.556 117.399C57.256 119.901 55.556 139.718 65.756 150.827C70.856 156.332 78.156 158.934 87.456 158.534C97.056 156.632 100.456 143.521 100.356 131.811C100.356 125.706 97.156 116.498 90.156 110.493C85.256 106.29 79.256 104.488 72.856 105.489C64.556 107.391 58.556 115.898 57.556 117.399Z" fill="#333333"/>
<path d="M68.0564 131.011C68.8564 129.91 69.5564 128.809 70.2564 127.608C71.7564 125.006 72.7564 122.103 73.7564 119.201C78.9564 119.601 84.2564 119.701 89.4564 119.201C90.7564 119.101 92.0564 119.001 93.3564 118.8C94.4564 118.7 95.8564 118.2 96.9564 118.4C98.6564 118.8 100.556 120.202 101.256 121.803C101.556 122.604 101.756 124.805 102.556 124.605C103.656 124.205 104.256 123.004 104.356 121.903C104.456 120.402 103.656 119.401 103.256 118.1C102.756 116.699 102.856 114.997 102.456 113.596C101.656 110.493 100.156 107.591 98.0564 105.189C93.0564 99.384 74.0564 100.085 67.2564 104.388C60.8564 108.492 61.7564 102.286 56.5564 107.891C53.3564 111.394 51.8564 114.497 50.8564 119.101C50.1564 122.303 50.1564 125.606 50.9564 128.709C51.2564 130.01 51.7564 131.311 52.1564 132.512C52.6564 133.913 53.9564 135.014 54.8564 136.115C55.3564 136.715 55.7564 137.316 56.4564 137.616C57.3564 138.117 58.3564 138.117 59.3564 138.117C60.2564 138.117 61.1564 138.117 62.0564 137.716C62.9564 137.316 63.7564 136.615 64.3564 135.815C65.4564 134.514 66.3564 133.212 67.3564 131.911C67.5564 131.711 67.7564 131.411 68.0564 131.011Z" fill="#666666"/>
<path d="M75.4561 210.277C75.5561 210.277 75.5561 210.177 75.4561 210.177V210.277Z" fill="#333333"/>
<path d="M41.156 135.614C47.356 140.318 58.156 142.42 64.756 137.516C70.356 133.412 75.356 124.305 72.956 117.199C72.656 116.198 71.256 116.398 71.256 117.399C70.656 123.104 67.056 130.71 62.656 134.313C57.556 138.517 47.356 137.416 42.056 134.013C41.056 133.512 40.356 134.914 41.156 135.614Z" fill="#333333"/>
<path d="M78.4563 134.713C78.2563 134.213 80.1563 133.412 80.4563 133.312C80.8563 133.212 81.5563 133.312 81.7563 133.212C82.3563 133.012 81.1563 132.912 81.0563 132.912C80.6563 132.812 80.3563 132.612 79.9563 132.712C80.0563 132.712 79.2563 133.012 79.5563 132.912C79.3563 133.012 79.0563 133.212 79.0563 133.412C78.7563 135.114 80.5563 135.614 81.9563 135.614C83.6563 135.514 84.8563 133.913 84.2563 132.211C83.5563 130.31 81.2563 130.31 79.7563 131.21C78.7563 131.811 76.5563 133.713 77.4563 135.014C77.7563 135.714 78.7563 135.414 78.4563 134.713Z" fill="#333333"/>
<path d="M91.6562 132.111C92.1562 130.81 93.9563 130.61 94.8563 131.611C94.9563 131.711 95.0563 131.811 95.1562 132.011C95.1562 131.911 95.2562 131.811 95.2562 131.611L94.6562 131.411C94.6562 131.511 94.6562 131.711 94.6562 131.811C94.7562 131.711 94.9563 131.511 95.0563 131.311C95.1563 131.011 95.2562 130.81 95.2562 130.51C95.3562 130.01 95.0563 129.309 94.3563 129.409C93.3563 129.509 92.6562 129.91 92.2562 130.91C91.8562 131.811 92.1563 132.612 92.8563 133.212C94.2563 134.413 96.8562 134.614 97.6562 132.612C98.4563 130.31 95.8563 128.809 93.9563 128.709C91.9563 128.609 90.2563 129.91 90.1562 131.911C90.1562 132.812 91.3563 132.812 91.6562 132.111Z" fill="#333333"/>
<path d="M89.4562 139.818C89.2562 140.719 89.5562 141.619 89.6562 142.52C89.6562 142.82 89.7563 142.72 89.3563 142.72C88.9563 142.72 88.5562 142.92 88.1562 143.02C87.6562 143.121 87.5563 143.721 87.8563 144.121C88.3563 144.722 88.8562 145.122 89.6562 145.122C90.3562 145.122 91.1562 144.722 91.4562 144.121C91.8562 143.521 91.8562 142.72 91.6562 141.92C91.4562 141.119 90.6562 140.719 90.4562 139.918C90.4562 139.217 89.5562 139.217 89.4562 139.818Z" fill="#333333"/>
<path d="M77.9564 145.122C77.1564 146.924 78.7564 149.026 80.0564 150.027C81.2564 150.927 83.9564 151.828 85.3564 150.927C85.6564 150.727 85.7564 150.327 85.4564 150.127C84.6564 149.426 83.0564 149.626 82.0564 149.226C81.1564 148.826 80.2564 148.325 79.6564 147.524C79.1564 146.924 78.2564 146.023 78.2564 145.223C78.3564 145.022 78.0564 144.922 77.9564 145.122Z" fill="#333333"/>
<path d="M71.9561 116.498C72.1561 122.703 83.1561 121.903 87.1561 121.302C90.3561 120.802 93.556 119.701 96.7561 120.101C100.756 120.602 102.856 123.104 106.156 125.005C106.756 125.305 107.656 124.905 107.556 124.205C107.056 119.3 100.956 117.199 96.7561 116.698C94.556 116.498 92.5561 116.798 90.4561 117.199C87.5561 117.699 84.5561 118.3 81.6561 118.5C79.3561 118.6 73.8561 118.7 72.6561 116.298C72.4561 115.998 71.9561 116.098 71.9561 116.498Z" fill="#333333"/>
<path d="M313.856 13.1102V1H376.556V86.2719H365.956" fill="white"/>
<path d="M377.556 87.2736H365.956V85.2719H375.556V2.00169H314.856V13.1111H312.856V0H377.556V87.2736Z" fill="#CCCCCC"/>
<path d="M365.956 99.6831H302.556V13.1102H347.856L365.956 29.524V99.6831Z" fill="white"/>
<path d="M366.956 100.585H301.556V12.1102H348.256L366.956 29.1245V100.585ZM303.556 98.5831H364.956V30.0253L347.456 14.1119H303.556V98.5831Z" fill="#CCCCCC"/>
<path d="M336.656 26.4222H313.856V28.4239H336.656V26.4222Z" fill="#CCCCCC"/>
<path d="M354.756 38.8326H313.856V40.8343H354.756V38.8326Z" fill="#CCCCCC"/>
<path d="M354.756 51.6434H313.856V53.6451H354.756V51.6434Z" fill="#CCCCCC"/>
<path d="M354.756 64.4543H313.856V66.456H354.756V64.4543Z" fill="#CCCCCC"/>
<path d="M354.756 77.265H313.856V79.2667H354.756V77.265Z" fill="#CCCCCC"/>
<path d="M347.856 13.1102V29.524H365.956L347.856 13.1102Z" fill="white"/>
<path d="M365.956 30.5257H347.856C347.256 30.5257 346.856 30.1254 346.856 29.5249V13.111C346.856 12.7107 347.056 12.3104 347.456 12.2103C347.856 12.0101 348.256 12.1102 348.556 12.4104L366.656 28.8243C366.956 29.1245 367.056 29.5249 366.956 29.9252C366.656 30.3256 366.356 30.5257 365.956 30.5257ZM348.856 28.524H363.356L348.856 15.3129V28.524Z" fill="#CCCCCC"/>
<path d="M269.156 57.4477C267.556 57.4477 266.056 57.7479 264.756 58.3485C263.056 50.2416 255.856 44.1365 247.256 44.1365C238.756 44.1365 231.556 50.1415 229.756 58.1483C228.556 57.7479 227.256 57.4477 225.956 57.4477C219.756 57.4477 214.656 62.552 214.656 68.7572C214.656 74.9625 219.656 80.0668 225.956 80.0668H269.256C275.456 80.0668 280.556 74.9625 280.556 68.7572C280.556 62.552 275.456 57.4477 269.156 57.4477Z" fill="white"/>
<path d="M269.156 81.0685H225.856C219.056 81.0685 213.556 75.5638 213.556 68.7581C213.556 61.9523 219.056 56.4477 225.856 56.4477C226.856 56.4477 227.956 56.5478 228.956 56.848C231.256 48.7412 238.656 43.1365 247.156 43.1365C255.656 43.1365 263.156 48.9414 265.356 56.9481C266.556 56.5478 267.756 56.3476 269.056 56.3476C275.856 56.3476 281.356 61.8523 281.356 68.658C281.356 75.4637 275.956 81.0685 269.156 81.0685ZM225.956 58.4494C220.256 58.4494 215.656 63.0533 215.656 68.7581C215.656 74.4629 220.256 79.0668 225.956 79.0668H269.256C274.956 79.0668 279.556 74.4629 279.556 68.7581C279.556 63.0533 274.956 58.4494 269.256 58.4494C267.856 58.4494 266.556 58.7496 265.256 59.2501L264.156 59.7505L263.856 58.5495C262.156 50.7429 255.256 45.1382 247.256 45.1382C239.256 45.1382 232.456 50.5427 230.756 58.3493L230.456 59.4502L229.356 59.0499C228.256 58.6496 227.156 58.4494 225.956 58.4494Z" fill="#CCCCCC"/>
<path d="M106.156 24.72C108.956 24.72 111.556 25.3205 113.956 26.3214C117.056 11.9092 129.856 1.1001 145.156 1.1001C160.356 1.1001 173.056 11.709 176.256 25.921C178.356 25.1203 180.656 24.72 183.056 24.72C194.156 24.72 203.156 33.7276 203.156 44.837C203.156 55.9463 194.156 64.9539 183.056 64.9539H106.156C95.0562 64.9539 86.0562 55.9463 86.0562 44.837C86.0562 33.7276 95.0562 24.72 106.156 24.72Z" fill="white"/>
<path d="M183.056 65.9556H106.156C94.5562 65.9556 85.0562 56.4476 85.0562 44.8378C85.0562 33.228 94.5562 23.72 106.156 23.72C108.656 23.72 110.956 24.1203 113.256 24.921C116.856 10.4088 130.156 0.100098 145.156 0.100098C160.256 0.100098 173.156 10.1085 176.956 24.6208C178.956 24.0203 180.956 23.72 183.056 23.72C194.656 23.72 204.156 33.228 204.156 44.8378C204.156 56.4476 194.656 65.9556 183.056 65.9556ZM106.156 25.7217C95.6562 25.7217 87.0562 34.329 87.0562 44.8378C87.0562 55.3467 95.6562 63.9539 106.156 63.9539H183.056C193.556 63.9539 202.156 55.3467 202.156 44.8378C202.156 34.329 193.556 25.7217 183.056 25.7217C180.856 25.7217 178.756 26.122 176.556 26.8226L175.456 27.223L175.156 26.122C171.956 12.0101 159.556 2.10178 145.056 2.10178C130.556 2.10178 117.856 12.4105 114.856 26.5224L114.556 27.7234L113.456 27.223C111.256 26.2221 108.756 25.7217 106.156 25.7217Z" fill="#CCCCCC"/>
<defs>
<linearGradient id="paint0_linear" x1="146.657" y1="126.725" x2="276.625" y2="285.138" gradientUnits="userSpaceOnUse">
<stop stop-color="#FFC671"/>
<stop offset="0.59375" stop-color="#FF7541"/>
<stop offset="1" stop-color="#FF6F3D"/>
</linearGradient>
<linearGradient id="paint1_linear" x1="117.157" y1="150.162" x2="232.182" y2="335.136" gradientUnits="userSpaceOnUse">
<stop stop-color="#FFC671"/>
<stop offset="0.59375" stop-color="#FF7541"/>
<stop offset="1" stop-color="#FF6F3D"/>
</linearGradient>
</defs>
</svg>
