<svg width="412" height="346" viewBox="0 0 412 346" fill="none" xmlns="http://www.w3.org/2000/svg">
<path d="M181.677 269.296L23.78 196.786C10.2888 190.485 10.2888 180.684 23.78 174.883L181.677 102.372C195.168 96.0716 216.754 96.0716 229.646 102.372L387.543 174.883C401.034 181.184 401.034 190.985 387.543 196.786L229.646 269.296C216.155 275.097 194.469 275.097 181.677 269.296Z" fill="#F5F5F5"/>
<path d="M260.946 126.864C260.946 160.954 260.946 190.246 207.498 188.646C147.756 186.846 154.05 160.954 154.05 126.864C154.05 92.7737 178.027 65.0817 207.498 65.0817C236.97 65.0817 260.946 92.6737 260.946 126.864Z" fill="url(#paint0_linear)"/>
<path d="M211.694 190.145C210.296 190.145 208.897 190.145 207.498 190.045C151.553 188.346 151.952 165.152 152.452 135.661C152.452 132.762 152.552 129.763 152.552 126.763C152.552 91.8735 177.228 63.4817 207.498 63.4817C237.769 63.4817 262.445 91.8735 262.445 126.763C262.445 147.357 262.445 166.752 250.257 178.548C242.365 186.346 229.677 190.145 211.694 190.145ZM207.498 66.5808C178.826 66.5808 155.549 93.6729 155.549 126.863C155.549 129.962 155.449 132.962 155.449 135.861C154.949 165.752 154.65 185.546 207.498 187.146C226.88 187.746 240.167 184.247 248.159 176.449C259.348 165.552 259.348 146.758 259.348 126.763C259.448 93.573 236.171 66.5808 207.498 66.5808Z" fill="#333333"/>
<path d="M411.002 179.848H346.964V264.124H411.002V179.848Z" fill="white"/>
<path d="M412 265.223H345.964V178.948H412V265.223ZM347.962 263.224H410.002V180.948H347.962V263.224Z" fill="#CCCCCC"/>
<path d="M400.112 191.145H379.032V193.145H400.112V191.145Z" fill="#CCCCCC"/>
<path d="M400.112 200.642H379.032V202.642H400.112V200.642Z" fill="#CCCCCC"/>
<path d="M400.112 215.038H379.032V217.038H400.112V215.038Z" fill="#CCCCCC"/>
<path d="M400.112 224.435H379.032V226.435H400.112V224.435Z" fill="#CCCCCC"/>
<path d="M400.112 238.931H379.032V240.931H400.112V238.931Z" fill="#CCCCCC"/>
<path d="M400.112 248.328H379.032V250.328H400.112V248.328Z" fill="#CCCCCC"/>
<path d="M368.643 190.045H355.056V203.641H368.643V190.045Z" fill="white"/>
<path d="M369.641 204.741H354.056V189.145H369.641V204.741ZM356.054 202.741H367.643V191.145H356.054V202.741Z" fill="#CCCCCC"/>
<path d="M368.643 213.938H355.056V227.535H368.643V213.938Z" fill="white"/>
<path d="M369.641 228.534H354.056V212.938H369.641V228.534ZM356.054 226.535H367.643V214.938H356.054V226.535Z" fill="#CCCCCC"/>
<path d="M368.643 237.832H355.056V251.428H368.643V237.832Z" fill="white"/>
<path d="M369.641 252.427H354.056V236.832H369.641V252.427ZM356.054 250.428H367.643V238.831H356.054V250.428Z" fill="#CCCCCC"/>
<path d="M357.854 195.544C357.854 195.544 360.151 199.643 360.551 199.643C360.95 199.643 375.237 189.346 375.237 189.346" fill="white"/>
<path d="M360.55 200.642C359.95 200.642 359.551 200.642 356.953 196.043L358.752 195.044C359.451 196.243 360.25 197.643 360.75 198.343C362.848 196.943 370.141 191.745 374.736 188.446L375.935 190.045C361.349 200.642 360.949 200.642 360.55 200.642Z" fill="#CCCCCC"/>
<path d="M357.854 220.137C357.854 220.137 360.151 224.235 360.551 224.235C360.95 224.235 375.237 213.938 375.237 213.938" fill="white"/>
<path d="M360.55 225.335C359.95 225.335 359.551 225.335 356.953 220.736L358.752 219.736C359.451 220.936 360.25 222.336 360.75 223.036C362.848 221.636 370.141 216.437 374.736 213.138L375.935 214.738C361.349 225.335 360.949 225.335 360.55 225.335Z" fill="#CCCCCC"/>
<path d="M357.854 243.43C357.854 243.43 360.151 247.529 360.551 247.529C360.95 247.529 375.237 237.232 375.237 237.232" fill="white"/>
<path d="M360.55 248.528C359.95 248.528 359.551 248.528 356.953 243.93L358.752 242.93C359.451 244.129 360.25 245.529 360.75 246.229C362.848 244.829 370.141 239.631 374.736 236.332L375.935 237.931C361.349 248.528 360.949 248.528 360.55 248.528Z" fill="#CCCCCC"/>
<path d="M122.082 20.9942C122.082 20.0945 121.483 19.2947 120.684 18.8948L85.5178 1.29991C84.8185 0.900029 84.0193 0.900029 83.32 1.29991L48.0542 18.8948C47.255 19.2947 46.7555 20.0945 46.6556 20.9942C46.6556 21.4941 46.0562 33.6906 50.2521 47.8864C52.7497 56.284 56.3462 63.5819 61.0416 69.6801C66.9359 77.2779 74.5285 82.9763 83.5198 86.3753C83.8195 86.4753 84.1192 86.5753 84.4189 86.5753C84.7186 86.5753 85.0183 86.4753 85.318 86.3753C94.3093 82.9763 101.902 77.2779 107.796 69.6801C112.492 63.5819 116.088 56.284 118.586 47.8864C122.682 33.6906 122.082 21.4941 122.082 20.9942ZM110.594 46.2869C105.998 61.7824 97.2065 72.1794 84.319 77.3779C71.4315 72.1794 62.6401 61.7824 58.0445 46.2869C55.2472 36.7897 54.9475 28.0922 54.9475 24.8931L84.2191 10.1973L113.491 24.8931C113.69 28.0922 113.491 36.7897 110.594 46.2869Z" fill="white"/>
<path d="M84.4181 87.4747C84.0185 87.4747 83.6189 87.3747 83.2193 87.2748C74.0282 83.7758 66.3357 78.0774 60.2416 70.2797C55.4463 64.0815 51.8498 56.6836 49.3522 48.1861C45.1563 33.8902 45.7557 21.4938 45.7557 20.9939C45.8556 19.6943 46.5549 18.5946 47.6538 17.9948L82.8197 0.399886C83.8187 -0.09997 85.0176 -0.09997 85.9167 0.399886L121.182 17.9948C122.281 18.5946 123.081 19.6943 123.081 20.9939C123.081 21.4938 123.68 33.8902 119.484 48.1861C116.987 56.6836 113.29 64.0815 108.595 70.2797C102.6 78.0774 94.9079 83.7758 85.617 87.2748C85.2174 87.3747 84.8177 87.4747 84.4181 87.4747ZM84.4181 1.99942C84.2183 1.99942 83.9186 2.09939 83.7188 2.19937L48.553 19.7943C48.0534 19.9942 47.7537 20.4941 47.7537 21.0939C47.7537 21.5938 47.1543 33.6903 51.2503 47.6862C53.648 55.9838 57.2445 63.1817 61.8401 69.08C67.6344 76.5779 75.0273 82.0763 83.9186 85.4753C84.2183 85.5753 84.6179 85.5753 85.0176 85.4753C93.9089 82.0763 101.302 76.5779 107.096 69.08C111.692 63.0818 115.288 55.8838 117.686 47.6862C121.782 33.6903 121.182 21.6937 121.182 21.0939C121.182 20.594 120.883 20.0942 120.383 19.7943L85.1175 2.19937C84.8177 2.09939 84.6179 1.99942 84.4181 1.99942ZM84.4181 78.4773L84.0185 78.2774C70.9312 72.9789 61.8401 62.382 57.2445 46.5865C54.4472 36.9893 54.1475 28.1919 54.1475 24.8928V24.293L84.4181 9.09737L114.689 24.293V24.8928C114.689 28.1919 114.389 36.9893 111.592 46.5865C106.896 62.382 97.905 72.9789 84.8177 78.2774L84.4181 78.4773ZM56.1456 25.4926C56.1456 29.0916 56.5452 37.1893 59.1427 45.9867C63.5384 60.9824 72.0302 71.1794 84.4181 76.278C96.7062 71.1794 105.198 60.9824 109.694 45.9867C112.291 37.0893 112.691 29.0916 112.691 25.4926L84.4181 11.2967L56.1456 25.4926Z" fill="#CCCCCC"/>
<path d="M81.8206 51.5851C81.5209 51.5851 81.3211 51.4851 81.1213 51.2852L72.13 42.2878C71.7304 41.8879 71.7304 41.2881 72.13 40.8882C72.5296 40.4883 73.1291 40.4883 73.5287 40.8882L81.8206 49.1858L99.7033 31.2909C100.103 30.8911 100.702 30.8911 101.102 31.2909C101.502 31.6908 101.502 32.2907 101.102 32.6905L82.5199 51.2852C82.3201 51.4851 82.0204 51.5851 81.8206 51.5851Z" fill="#CCCCCC"/>
<path d="M354.556 102.071C354.256 102.071 353.856 101.871 353.756 101.571C353.457 101.071 353.557 100.471 354.056 100.171C354.556 99.8711 355.155 99.9711 355.455 100.471L355.555 100.571C355.854 101.071 355.755 101.671 355.255 101.971C354.955 102.071 354.755 102.071 354.556 102.071Z" fill="#CCCCCC"/>
<path d="M376.335 146.058C375.935 146.058 375.535 145.758 375.435 145.358L375.336 145.158C375.136 144.658 375.435 144.058 375.935 143.858C376.434 143.658 377.034 143.958 377.234 144.458L377.334 144.658C377.533 145.158 377.234 145.758 376.734 145.958C376.534 145.958 376.434 146.058 376.335 146.058ZM373.337 138.36C372.938 138.36 372.538 138.16 372.438 137.76L372.338 137.56C372.139 137.06 372.338 136.461 372.838 136.261C373.337 136.061 373.937 136.261 374.137 136.76L374.237 136.96C374.436 137.46 374.237 138.06 373.737 138.26C373.537 138.36 373.437 138.36 373.337 138.36ZM370.041 130.862C369.641 130.862 369.341 130.662 369.142 130.262L369.042 130.062C368.842 129.563 369.042 128.963 369.541 128.763C370.041 128.563 370.64 128.763 370.84 129.263L370.94 129.463C371.14 129.962 370.94 130.562 370.44 130.762C370.34 130.862 370.24 130.862 370.041 130.862ZM366.544 123.464C366.144 123.464 365.845 123.264 365.645 122.964L365.545 122.765C365.345 122.265 365.545 121.665 366.045 121.465C366.544 121.265 367.143 121.465 367.343 121.965L367.443 122.165C367.743 122.665 367.543 123.264 367.044 123.464C366.944 123.464 366.744 123.464 366.544 123.464ZM362.848 116.166C362.448 116.166 362.148 115.966 361.948 115.667L361.849 115.467C361.549 114.967 361.749 114.367 362.248 114.067C362.748 113.767 363.347 113.967 363.647 114.467L363.747 114.667C364.046 115.167 363.847 115.767 363.347 116.066C363.147 116.166 362.948 116.166 362.848 116.166ZM358.852 109.068C358.552 109.068 358.152 108.869 357.952 108.569L357.852 108.369C357.553 107.869 357.753 107.269 358.252 106.969C358.752 106.669 359.351 106.869 359.651 107.369L359.751 107.569C360.05 108.069 359.851 108.669 359.351 108.969C359.151 108.969 358.951 109.068 358.852 109.068Z" fill="#CCCCCC"/>
<path d="M379.032 153.656C378.632 153.656 378.233 153.356 378.133 152.956V152.856C377.933 152.356 378.233 151.756 378.732 151.556C379.232 151.356 379.831 151.656 380.031 152.156V152.256C380.231 152.756 379.931 153.356 379.432 153.556C379.232 153.656 379.132 153.656 379.032 153.656Z" fill="#CCCCCC"/>
<path d="M136.268 30.4917C135.868 30.4917 135.568 30.2917 135.369 29.8917C135.169 29.3917 135.369 28.7917 135.868 28.5917L136.268 29.4917L135.868 28.5917L136.767 30.3917L136.667 30.4917C136.567 30.4917 136.368 30.4917 136.268 30.4917Z" fill="#CCCCCC"/>
<path d="M269.239 27.592C269.139 27.592 268.939 27.592 268.839 27.4921L268.639 27.3921C268.14 27.1922 267.94 26.5923 268.14 26.0925C268.34 25.5926 268.939 25.2927 269.438 25.5926L269.638 25.6926C270.138 25.8925 270.338 26.4924 270.138 26.9922C269.938 27.2921 269.638 27.592 269.239 27.592ZM143.561 27.1922C143.161 27.1922 142.761 26.9922 142.662 26.5923C142.462 26.0925 142.662 25.4926 143.161 25.2927L143.361 25.1927C143.86 24.9928 144.46 25.1927 144.66 25.6926C144.859 26.1924 144.66 26.7923 144.16 26.9922L143.96 27.0922C143.76 27.1922 143.661 27.1922 143.561 27.1922ZM261.746 24.5929C261.646 24.5929 261.546 24.5929 261.346 24.4929L261.146 24.393C260.647 24.193 260.347 23.5932 260.547 23.0933C260.747 22.5935 261.346 22.2936 261.846 22.4935L262.046 22.5935C262.545 22.7934 262.845 23.3932 262.645 23.8931C262.545 24.293 262.146 24.5929 261.746 24.5929ZM151.053 24.293C150.654 24.293 150.254 23.9931 150.154 23.5932C149.954 23.0933 150.254 22.4935 150.754 22.2936L150.953 22.1936C151.453 21.9937 152.052 22.2936 152.252 22.7934C152.452 23.2933 152.152 23.8931 151.653 24.093L151.453 24.193C151.253 24.293 151.153 24.293 151.053 24.293ZM254.153 21.9937C254.053 21.9937 253.953 21.9937 253.854 21.9937L253.654 21.8937C253.154 21.6937 252.855 21.1939 252.954 20.5941C253.154 20.0942 253.654 19.7943 254.253 19.8943L254.453 19.9942C254.952 20.1942 255.252 20.694 255.152 21.2939C254.952 21.6937 254.553 21.9937 254.153 21.9937ZM158.646 21.6937C158.246 21.6937 157.847 21.3938 157.647 20.9939C157.447 20.4941 157.747 19.8943 158.346 19.6943L158.546 19.5943C159.046 19.3944 159.645 19.6943 159.845 20.2941C160.045 20.794 159.745 21.3938 159.146 21.5938L158.946 21.6937C158.846 21.6937 158.746 21.6937 158.646 21.6937ZM246.361 19.6943C246.261 19.6943 246.161 19.6943 246.061 19.6943H245.861C245.362 19.5943 244.962 18.9945 245.162 18.4947C245.262 17.9948 245.861 17.5949 246.361 17.7949H246.561C247.06 17.8948 247.46 18.4947 247.26 18.9945C247.26 19.3944 246.86 19.6943 246.361 19.6943ZM166.438 19.4944C166.039 19.4944 165.639 19.1945 165.439 18.7946C165.34 18.2947 165.639 17.6949 166.139 17.5949L166.339 17.495C166.838 17.395 167.437 17.6949 167.537 18.1948C167.637 18.6946 167.338 19.2944 166.838 19.3944H166.638C166.538 19.4944 166.538 19.4944 166.438 19.4944ZM238.568 17.8948C238.469 17.8948 238.469 17.8948 238.369 17.8948H238.169C237.669 17.7949 237.27 17.295 237.37 16.6952C237.469 16.0954 238.069 15.7954 238.568 15.8954H238.768C239.268 15.9954 239.667 16.4952 239.567 17.0951C239.368 17.495 238.968 17.8948 238.568 17.8948ZM174.231 17.6949C173.731 17.6949 173.332 17.395 173.232 16.8951C173.132 16.3953 173.432 15.7954 174.031 15.6955H174.231C174.73 15.5955 175.33 15.8954 175.43 16.4952C175.53 16.9951 175.23 17.5949 174.63 17.6949H174.431C174.431 17.6949 174.331 17.6949 174.231 17.6949ZM230.576 16.3953C230.476 16.3953 230.476 16.3953 230.376 16.3953H230.177C229.677 16.2953 229.277 15.7954 229.377 15.2956C229.477 14.7957 229.977 14.3959 230.476 14.4958H230.676C231.176 14.5958 231.575 15.0956 231.475 15.5955C231.475 16.0954 231.076 16.3953 230.576 16.3953ZM182.223 16.2953C181.724 16.2953 181.324 15.8954 181.224 15.3956C181.124 14.8957 181.524 14.2959 182.023 14.2959H182.223C182.723 14.1959 183.322 14.5958 183.322 15.0956C183.422 15.5955 183.022 16.1953 182.523 16.1953H182.323C182.323 16.2953 182.223 16.2953 182.223 16.2953ZM222.584 15.3956H222.484H222.284C221.785 15.2956 221.385 14.8957 221.385 14.2959C221.385 13.6961 221.885 13.2962 222.484 13.3961H222.684C223.183 13.4961 223.583 13.896 223.583 14.4958C223.583 14.9957 223.083 15.3956 222.584 15.3956ZM190.215 15.2956C189.716 15.2956 189.316 14.8957 189.216 14.3958C189.116 13.896 189.516 13.3961 190.115 13.2962H190.315C190.915 13.1962 191.314 13.6961 191.414 14.1959C191.414 14.7957 191.015 15.1956 190.515 15.2956H190.315H190.215ZM214.592 14.7957C214.592 14.7957 214.492 14.7957 214.592 14.7957H214.292C213.693 14.7957 213.293 14.2959 213.393 13.6961C213.393 13.0962 213.892 12.6963 214.492 12.7963H214.692C215.291 12.7963 215.691 13.2962 215.691 13.796C215.491 14.2959 215.091 14.7957 214.592 14.7957ZM198.208 14.6958C197.708 14.6958 197.209 14.2959 197.209 13.6961C197.209 13.0962 197.608 12.6963 198.208 12.6963H198.407C199.007 12.6963 199.406 13.0962 199.506 13.5961C199.506 14.1959 199.107 14.5958 198.607 14.6958H198.208C198.307 14.6958 198.307 14.6958 198.208 14.6958ZM206.5 14.4958H206.3C205.7 14.4958 205.301 14.0959 205.301 13.4961C205.301 12.8963 205.7 12.4964 206.3 12.4964H206.5C207.099 12.4964 207.499 12.8963 207.499 13.4961C207.499 14.0959 207.099 14.4958 206.5 14.4958Z" fill="#CCCCCC"/>
<path d="M276.032 30.7917C275.532 30.5917 275.333 29.8917 275.532 29.3917C275.732 28.8917 276.332 28.6917 276.831 28.8917L276.432 29.7917L276.931 28.8917L276.531 29.7917L276.032 30.7917Z" fill="#CCCCCC"/>
<path d="M34.0669 150.557C33.967 150.557 33.8671 150.557 33.7672 150.457C33.2677 150.257 32.968 149.657 33.1678 149.157L34.0669 149.457L33.1678 149.057L34.1668 149.357L35.066 149.657V149.757C34.8662 150.257 34.4665 150.557 34.0669 150.557Z" fill="#CCCCCC"/>
<path d="M36.8641 142.859C36.7642 142.859 36.6643 142.859 36.4645 142.759C35.965 142.559 35.6653 141.959 35.8651 141.459L35.965 141.259C36.1648 140.759 36.7642 140.459 37.2637 140.659C37.7632 140.859 38.0629 141.459 37.8631 141.959L37.7632 142.159C37.5634 142.659 37.2637 142.859 36.8641 142.859ZM39.9611 135.261C39.8612 135.261 39.6614 135.261 39.5615 135.161C39.062 134.961 38.8622 134.361 39.062 133.861L39.1619 133.661C39.3617 133.162 39.9611 132.962 40.4606 133.162C40.9601 133.361 41.1599 133.961 40.9601 134.461L40.8602 134.661C40.6604 135.061 40.3607 135.261 39.9611 135.261ZM43.2579 127.763C43.158 127.763 42.9582 127.763 42.8583 127.663C42.3588 127.463 42.159 126.863 42.3588 126.364L42.4587 126.164C42.6585 125.664 43.2579 125.464 43.7574 125.664C44.2569 125.864 44.4567 126.463 44.2569 126.963L44.157 127.163C44.0571 127.563 43.6575 127.763 43.2579 127.763ZM46.9543 120.365C46.7545 120.365 46.6546 120.365 46.4548 120.265C45.9553 119.965 45.7555 119.366 46.0552 118.966L46.1551 118.766C46.4548 118.266 47.0542 118.066 47.5537 118.366C48.0532 118.666 48.253 119.266 47.9533 119.765L47.8534 119.965C47.6536 120.165 47.254 120.365 46.9543 120.365ZM50.7506 113.167C50.5508 113.167 50.4509 113.167 50.2511 113.067C49.7516 112.767 49.6517 112.168 49.8515 111.668L49.9514 111.468C50.2511 110.968 50.8505 110.768 51.35 111.068C51.8496 111.368 52.0494 111.968 51.7497 112.468L51.6498 112.667C51.4499 112.967 51.1502 113.167 50.7506 113.167ZM54.9466 106.069C54.7467 106.069 54.5469 106.069 54.447 105.969C53.9475 105.669 53.8476 105.07 54.1473 104.57L54.2472 104.37C54.5469 103.87 55.1464 103.77 55.6459 104.07C56.1454 104.37 56.2453 104.97 55.9456 105.47L55.8457 105.669C55.6459 105.869 55.2463 106.069 54.9466 106.069Z" fill="#CCCCCC"/>
<path d="M59.3423 99.072C59.1425 99.072 58.9427 99.072 58.8428 98.872C58.3433 98.572 58.2434 97.972 58.5431 97.572L58.643 97.472C58.9427 96.972 59.5421 96.872 60.0416 97.172C60.5412 97.472 60.6411 98.072 60.3414 98.572C60.0416 98.872 59.642 99.072 59.3423 99.072Z" fill="#CCCCCC"/>
<path d="M88.2144 180.348C87.6149 180.348 87.2153 179.948 87.2153 179.348V179.248C87.2153 178.648 87.6149 178.248 88.2144 178.248C88.8138 178.248 89.2134 178.648 89.2134 179.248C89.2134 179.848 88.7139 180.348 88.2144 180.348Z" fill="#CCCCCC"/>
<path d="M88.4143 172.35C87.8149 172.35 87.4153 171.85 87.4153 171.251V171.051C87.4153 170.451 87.9148 170.051 88.5142 170.151C89.1136 170.151 89.5132 170.651 89.4133 171.251V171.45C89.4133 171.95 89.0137 172.35 88.4143 172.35ZM323.087 172.15C322.587 172.15 322.087 171.75 322.087 171.251V171.051C322.087 170.451 322.487 170.051 322.987 169.951C323.486 169.951 323.986 170.351 324.086 170.851V171.051C324.086 171.65 323.686 172.05 323.087 172.15C323.186 172.15 323.087 172.15 323.087 172.15ZM89.3134 164.153H89.2135C88.714 164.053 88.3144 163.553 88.3144 163.053V162.853C88.4143 162.353 88.9138 161.953 89.4133 162.053C89.9129 162.153 90.3125 162.653 90.2126 163.153V163.353C90.2126 163.853 89.813 164.153 89.3134 164.153ZM322.187 163.953C321.688 163.953 321.288 163.553 321.188 163.053V162.853C321.088 162.353 321.488 161.753 321.988 161.753C322.487 161.653 323.087 162.053 323.087 162.553V162.753C323.186 163.253 322.787 163.853 322.187 163.853C322.287 163.953 322.287 163.953 322.187 163.953ZM90.7121 156.055C90.6122 156.055 90.6122 156.055 90.5123 156.055C90.0128 155.955 89.6132 155.455 89.7131 154.855V154.655C89.813 154.155 90.3125 153.756 90.9119 153.856C91.4114 153.955 91.811 154.455 91.7111 155.055V155.255C91.6112 155.755 91.1117 156.055 90.7121 156.055ZM320.789 155.855C320.289 155.855 319.89 155.555 319.79 155.055V154.855C319.69 154.355 319.99 153.756 320.589 153.656C321.088 153.556 321.688 153.856 321.788 154.455V154.655C321.888 155.155 321.588 155.755 320.989 155.855C320.989 155.855 320.889 155.855 320.789 155.855ZM92.7101 148.157C92.6102 148.157 92.5103 148.157 92.4104 148.157C91.9109 147.957 91.6112 147.457 91.7111 146.958L91.811 146.758C91.9109 146.258 92.5103 145.958 93.0099 146.058C93.5094 146.158 93.8091 146.758 93.7092 147.257L93.6093 147.457C93.5094 147.857 93.1098 148.157 92.7101 148.157ZM318.791 147.957C318.391 147.957 317.991 147.657 317.792 147.257L317.692 147.058C317.492 146.558 317.892 145.958 318.391 145.858C318.891 145.658 319.49 146.058 319.59 146.558L319.69 146.758C319.89 147.257 319.59 147.857 318.99 147.957C318.99 147.857 318.891 147.957 318.791 147.957ZM95.2077 140.359C95.1078 140.359 95.0079 140.359 94.908 140.259C94.4085 140.06 94.1088 139.46 94.3086 138.96L94.4085 138.76C94.6083 138.26 95.2077 137.96 95.7072 138.16C96.2068 138.36 96.5065 138.96 96.3067 139.46L96.2068 139.66C96.0069 140.06 95.6073 140.359 95.2077 140.359ZM316.293 140.06C315.893 140.06 315.494 139.86 315.394 139.46L315.294 139.26C315.094 138.76 315.394 138.16 315.893 137.96C316.393 137.76 316.992 138.06 317.192 138.56V138.66C317.392 139.16 317.092 139.76 316.593 139.96C316.493 140.06 316.393 140.06 316.293 140.06ZM98.3047 132.662C98.2048 132.662 98.005 132.662 97.9051 132.562C97.4056 132.362 97.2058 131.762 97.4056 131.262L97.5055 131.062C97.7053 130.562 98.3047 130.362 98.8042 130.562C99.3037 130.762 99.5035 131.362 99.3037 131.862L99.2038 132.062C99.004 132.462 98.6044 132.662 98.3047 132.662ZM313.196 132.462C312.796 132.462 312.497 132.262 312.297 131.862L312.197 131.662C311.997 131.162 312.197 130.562 312.697 130.362C313.196 130.162 313.796 130.362 313.995 130.862L314.095 131.062C314.295 131.562 314.095 132.162 313.596 132.362C313.496 132.462 313.396 132.462 313.196 132.462ZM101.901 125.264C101.701 125.264 101.602 125.264 101.402 125.164C100.902 124.864 100.702 124.264 101.002 123.764L101.102 123.564C101.402 123.064 102.001 122.864 102.501 123.164C103 123.464 103.2 124.064 102.9 124.564L102.8 124.764C102.601 125.064 102.201 125.264 101.901 125.264ZM309.6 125.164C309.2 125.164 308.9 124.964 308.7 124.664L308.601 124.464C308.301 123.964 308.501 123.364 309 123.064C309.5 122.765 310.099 122.964 310.399 123.464L310.499 123.664C310.798 124.164 310.599 124.764 310.099 125.064C309.899 125.064 309.799 125.164 309.6 125.164ZM105.997 118.166C105.797 118.166 105.598 118.166 105.498 117.966C104.998 117.666 104.898 117.066 105.198 116.566L105.298 116.366C105.598 115.867 106.197 115.767 106.697 116.066C107.196 116.366 107.296 116.966 106.996 117.466L106.896 117.666C106.597 117.966 106.297 118.166 105.997 118.166ZM305.504 118.066C305.204 118.066 304.904 117.866 304.704 117.566L304.604 117.366C304.305 116.866 304.505 116.266 304.904 115.966C305.404 115.667 306.003 115.867 306.303 116.266L306.403 116.466C306.702 116.966 306.602 117.566 306.103 117.866C305.903 117.966 305.703 118.066 305.504 118.066ZM110.593 111.368C110.393 111.368 110.193 111.268 109.993 111.168C109.594 110.868 109.494 110.168 109.794 109.768L109.893 109.568C110.193 109.168 110.892 109.068 111.292 109.368C111.692 109.668 111.792 110.368 111.492 110.768L111.392 110.968C111.192 111.268 110.892 111.368 110.593 111.368ZM300.908 111.268C300.608 111.268 300.309 111.168 300.109 110.868L300.009 110.668C299.709 110.268 299.809 109.568 300.209 109.268C300.608 108.969 301.308 109.068 301.607 109.468L301.707 109.668C302.007 110.068 301.907 110.768 301.507 111.068C301.308 111.168 301.108 111.268 300.908 111.268ZM115.588 104.87C115.388 104.87 115.088 104.77 114.989 104.67C114.589 104.27 114.489 103.67 114.889 103.27L114.989 103.17C115.388 102.77 115.988 102.67 116.387 103.07C116.787 103.47 116.887 104.07 116.487 104.47L116.387 104.67C116.187 104.77 115.888 104.87 115.588 104.87ZM295.813 104.77C295.513 104.77 295.214 104.67 295.014 104.37L294.914 104.27C294.514 103.87 294.614 103.17 295.014 102.87C295.413 102.47 296.113 102.57 296.412 102.97L296.512 103.17C296.912 103.57 296.812 104.27 296.412 104.57C296.312 104.67 296.113 104.77 295.813 104.77ZM121.083 98.7715C120.883 98.7715 120.583 98.6715 120.383 98.4715C119.984 98.0717 119.984 97.4718 120.283 97.0719C120.283 97.0719 120.283 97.072 120.283 96.972L120.383 96.872C120.783 96.4721 121.382 96.4721 121.782 96.872C122.182 97.2719 122.182 97.8717 121.782 98.2716L121.682 98.3716C121.682 98.6715 121.382 98.7715 121.083 98.7715ZM290.318 98.6715C290.019 98.6715 289.819 98.5715 289.619 98.3716L289.519 98.2716C289.119 97.8717 289.119 97.2719 289.519 96.872C289.919 96.4721 290.518 96.4721 290.918 96.872L291.018 97.0719C291.417 97.4718 291.417 98.0717 291.018 98.4715C290.818 98.5715 290.618 98.6715 290.318 98.6715ZM126.977 93.0731C126.677 93.0731 126.477 92.9731 126.278 92.7732C125.878 92.3733 125.978 91.7735 126.377 91.3736L126.477 91.2736C126.877 90.8737 127.476 90.9737 127.876 91.3736C128.276 91.7735 128.176 92.3733 127.776 92.7732L127.676 92.8732C127.476 92.9731 127.177 93.0731 126.977 93.0731ZM284.424 92.9731C284.224 92.9731 283.925 92.8732 283.725 92.6732L283.525 92.5732C283.125 92.1734 283.125 91.5735 283.425 91.1737C283.825 90.7738 284.424 90.7738 284.824 91.0737L284.924 91.1737C285.323 91.5735 285.423 92.1734 285.023 92.5732C285.023 92.8732 284.724 92.9731 284.424 92.9731ZM133.271 87.7746C132.971 87.7746 132.671 87.6747 132.472 87.3748C132.172 86.9749 132.172 86.2751 132.671 85.9752L132.871 85.8752C133.271 85.5753 133.97 85.5753 134.27 86.0751C134.569 86.475 134.57 87.1748 134.07 87.4747L133.87 87.5747C133.67 87.6747 133.471 87.7746 133.271 87.7746ZM278.13 87.6747C277.93 87.6747 277.731 87.5747 277.531 87.4747L277.331 87.3748C276.931 87.0748 276.831 86.375 277.131 85.9752C277.431 85.5753 278.13 85.4753 278.53 85.7752L278.73 85.8752C279.129 86.1751 279.229 86.8749 278.929 87.2748C278.73 87.5747 278.43 87.6747 278.13 87.6747ZM139.864 82.976C139.565 82.976 139.265 82.7761 139.065 82.5761C138.765 82.0763 138.865 81.4765 139.365 81.1765L139.465 81.0766C139.964 80.7767 140.564 80.8766 140.863 81.2765C141.163 81.7764 141.063 82.3762 140.664 82.6761L140.464 82.7761C140.264 82.8761 140.064 82.976 139.864 82.976ZM271.537 82.8761C271.337 82.8761 271.137 82.7761 270.937 82.6761L270.837 82.5761C270.338 82.2762 270.238 81.6764 270.538 81.1765C270.837 80.6767 271.437 80.5767 271.936 80.8766L272.136 80.9766C272.635 81.2765 272.735 81.8763 272.336 82.3762C272.136 82.6761 271.836 82.8761 271.537 82.8761ZM146.858 78.5773C146.558 78.5773 146.158 78.3774 145.958 78.0774C145.659 77.5776 145.859 76.9778 146.358 76.6778L146.558 76.5779C147.057 76.278 147.657 76.4779 147.957 76.9778C148.256 77.4776 148.056 78.0774 147.557 78.3774L147.357 78.4773C147.157 78.5773 146.957 78.5773 146.858 78.5773ZM264.543 78.4773C264.344 78.4773 264.244 78.4773 264.044 78.3774L263.844 78.2774C263.344 77.9775 263.245 77.3776 263.444 76.8778C263.744 76.3779 264.344 76.278 264.843 76.4779L265.043 76.5779C265.542 76.8778 265.642 77.4776 265.442 77.9775C265.243 78.2774 264.943 78.4773 264.543 78.4773ZM154.051 74.6784C153.651 74.6784 153.351 74.4785 153.151 74.0786C152.952 73.5787 153.151 72.9789 153.651 72.779L153.851 72.679C154.35 72.4791 154.95 72.679 155.15 73.1789C155.349 73.6787 155.15 74.2785 154.65 74.4785L154.45 74.5785C154.35 74.6784 154.25 74.6784 154.051 74.6784ZM257.35 74.5785C257.25 74.5785 257.051 74.5785 256.951 74.4785L256.751 74.3785C256.251 74.1786 256.052 73.5787 256.251 73.0789C256.451 72.579 257.051 72.3791 257.55 72.579L257.75 72.679C258.249 72.8789 258.449 73.4788 258.249 73.9786C258.05 74.3785 257.65 74.5785 257.35 74.5785ZM161.543 71.3794C161.144 71.3794 160.744 71.1794 160.644 70.7796C160.444 70.2797 160.644 69.6799 161.144 69.4799L161.344 69.38C161.843 69.18 162.442 69.38 162.642 69.9798C162.842 70.4796 162.642 71.0795 162.043 71.2794L161.843 71.3794C161.843 71.2794 161.643 71.3794 161.543 71.3794ZM249.858 71.2794C249.758 71.2794 249.658 71.2794 249.458 71.1794L249.258 71.0795C248.759 70.8795 248.459 70.2797 248.659 69.7798C248.859 69.28 249.458 68.9801 249.957 69.18L250.157 69.28C250.657 69.4799 250.957 70.0798 250.757 70.5796C250.557 71.0795 250.257 71.2794 249.858 71.2794ZM169.236 68.5802C168.836 68.5802 168.437 68.2803 168.237 67.8804C168.037 67.3805 168.337 66.7807 168.836 66.5808L169.036 66.4808C169.536 66.2809 170.135 66.5808 170.335 67.0806C170.535 67.5805 170.235 68.1803 169.735 68.3802L169.536 68.4802C169.436 68.4802 169.336 68.5802 169.236 68.5802ZM242.065 68.4802C241.965 68.4802 241.865 68.4802 241.765 68.4802L241.566 68.3802C241.066 68.1803 240.766 67.6804 240.966 67.0806C241.166 66.5808 241.666 66.2809 242.265 66.4808L242.465 66.5808C242.964 66.7807 243.264 67.2806 243.164 67.8804C242.864 68.1803 242.565 68.4802 242.065 68.4802ZM177.128 66.2809C176.729 66.2809 176.229 65.9809 176.129 65.4811C176.029 64.9812 176.329 64.3814 176.828 64.2814L177.028 64.1815C177.528 64.0815 178.127 64.3814 178.227 64.8813C178.327 65.3811 178.027 65.9809 177.528 66.0809H177.328C177.328 66.2808 177.228 66.2809 177.128 66.2809ZM234.173 66.1809C234.073 66.1809 233.973 66.1809 233.973 66.1809H233.773C233.274 66.0809 232.874 65.4811 233.074 64.9812C233.174 64.4814 233.773 64.0815 234.273 64.2814H234.473C234.972 64.3814 235.372 64.9812 235.172 65.4811C235.072 65.881 234.672 66.1809 234.173 66.1809ZM185.12 64.5813C184.621 64.5813 184.221 64.2814 184.121 63.7816C184.022 63.2817 184.421 62.6819 184.921 62.5819H185.12C185.62 62.4819 186.219 62.8818 186.319 63.3817C186.419 63.8815 186.02 64.4814 185.52 64.5813H185.32C185.22 64.5813 185.22 64.5813 185.12 64.5813ZM226.181 64.4814C226.081 64.4814 226.081 64.4814 225.981 64.4814H225.781C225.281 64.3814 224.882 63.8815 224.982 63.2817C225.082 62.7819 225.581 62.382 226.181 62.4819H226.38C226.88 62.5819 227.279 63.0818 227.18 63.5816C227.08 64.1815 226.68 64.4814 226.181 64.4814ZM193.312 63.3817C192.813 63.3817 192.413 62.9818 192.313 62.4819C192.214 61.9821 192.613 61.4822 193.213 61.3823H193.412C193.912 61.2823 194.411 61.6822 194.511 62.282C194.611 62.8818 194.212 63.2817 193.612 63.3817H193.412C193.312 63.3817 193.312 63.3817 193.312 63.3817ZM218.088 63.3817H217.989H217.789C217.289 63.2817 216.89 62.8818 216.89 62.282C216.99 61.7822 217.389 61.3823 217.989 61.3823H218.188C218.688 61.4822 219.087 61.8821 219.087 62.4819C218.988 62.9818 218.588 63.3817 218.088 63.3817ZM201.505 62.7819C201.005 62.7819 200.505 62.382 200.505 61.7822C200.505 61.1823 200.905 60.7824 201.505 60.7824H201.704C202.304 60.7824 202.703 61.1823 202.703 61.7822C202.703 62.382 202.304 62.7819 201.704 62.7819H201.505ZM209.896 62.7819C209.896 62.7819 209.796 62.7819 209.896 62.7819H209.697C209.097 62.7819 208.698 62.282 208.698 61.7822C208.698 61.2823 209.197 60.7824 209.697 60.7824H209.896C210.496 60.7824 210.895 61.2823 210.895 61.7822C210.796 62.382 210.396 62.7819 209.896 62.7819Z" fill="#CCCCCC"/>
<path d="M323.386 180.448C322.787 180.448 322.387 180.048 322.387 179.448C322.387 178.848 322.787 178.448 323.386 178.448C323.985 178.448 324.385 178.848 324.385 179.448V179.548C324.385 179.948 323.886 180.448 323.386 180.448Z" fill="#CCCCCC"/>
<path d="M10.8904 190.245V179.648H65.837V254.327H56.4462" fill="white"/>
<path d="M66.8351 255.326H56.4452V253.327H64.837V180.648H11.8884V190.245H9.89038V178.648H66.8351V255.326Z" fill="#CCCCCC"/>
<path d="M56.4462 265.923H1V190.245H40.6615L56.4462 204.641V265.923Z" fill="white"/>
<path d="M57.4442 266.923H0V189.245H41.0601L57.5441 204.241V266.923H57.4442ZM1.99806 264.923H55.4462V205.041L40.2609 191.145H1.99806V264.923Z" fill="#CCCCCC"/>
<path d="M30.7701 201.742H10.8894V203.742H30.7701V201.742Z" fill="#CCCCCC"/>
<path d="M46.6547 212.639H10.8894V214.639H46.6547V212.639Z" fill="#CCCCCC"/>
<path d="M46.6547 223.835H10.8894V225.835H46.6547V223.835Z" fill="#CCCCCC"/>
<path d="M46.6547 235.032H10.8894V237.032H46.6547V235.032Z" fill="#CCCCCC"/>
<path d="M46.6547 246.229H10.8894V248.229H46.6547V246.229Z" fill="#CCCCCC"/>
<path d="M40.6614 190.245V204.641H56.446L40.6614 190.245Z" fill="white"/>
<path d="M56.4451 205.641H40.6604C40.061 205.641 39.6614 205.241 39.6614 204.641V190.245C39.6614 189.845 39.8612 189.445 40.2608 189.345C40.6604 189.145 41.06 189.245 41.3597 189.545L57.1444 203.941C57.4441 204.241 57.544 204.641 57.4441 205.041C57.2443 205.441 56.8447 205.641 56.4451 205.641ZM41.6594 203.641H53.9475L41.6594 192.544V203.641Z" fill="#CCCCCC"/>
<path d="M297.312 38.3892V23.3935H316.194" fill="white"/>
<path d="M298.311 38.3889H296.312V22.3935H316.193V24.3929H298.311V38.3889Z" fill="#CCCCCC"/>
<path d="M349.161 23.3935H357.353V68.0806L353.057 73.9789L348.761 73.8789" fill="white"/>
<path d="M353.557 74.9783L348.761 74.8784L348.861 72.8789L352.558 72.9789L356.354 67.7804V24.3929H349.161V22.3935H358.352V68.4802L353.557 74.9783Z" fill="#CCCCCC"/>
<path d="M307.403 55.4845V1.79999H348.762V58.6835" fill="white"/>
<path d="M349.76 58.6833H347.762V2.79941H308.401V55.4842H306.403V0.799988H349.76V58.6833Z" fill="#CCCCCC"/>
<path d="M353.058 73.9789H290.519V29.1918H312.398L321.789 37.3895H353.058V73.9789Z" fill="white"/>
<path d="M354.056 74.9783H289.519V28.1918H312.796L322.187 36.3895H354.056V74.9783ZM291.517 72.9789H352.058V38.3889H321.388L311.997 30.1913H291.417V72.9789H291.517Z" fill="#CCCCCC"/>
<path d="M243.264 192.045C247.16 212.939 260.148 244.53 263.045 254.527C263.744 257.026 269.239 258.925 271.237 259.925C276.931 262.824 282.826 265.224 288.72 267.723C295.114 270.322 301.607 272.921 308.001 275.321C312.497 277.02 316.593 280.619 321.488 281.019C326.583 281.519 329.48 276.121 330.18 271.522C330.779 267.823 329.98 263.924 327.982 260.825C326.683 258.726 322.787 255.427 320.389 258.126C318.391 260.425 320.988 264.624 318.99 267.123C311.298 265.324 304.704 259.225 298.011 255.027C290.918 250.628 283.525 246.129 275.533 243.53C270.537 228.434 267.94 218.037 264.843 203.142C262.146 190.045 255.552 179.948 248.259 165.053L243.264 192.045Z" fill="white"/>
<path d="M322.087 282.418C321.888 282.418 321.588 282.418 321.388 282.418C317.991 282.118 315.094 280.519 312.197 278.919C310.599 278.02 309.1 277.22 307.502 276.62C300.308 273.921 294.015 271.422 288.12 268.922C282.126 266.423 276.232 263.924 270.537 261.125C270.138 260.925 269.738 260.725 269.139 260.525C266.341 259.225 262.445 257.526 261.746 254.926C260.847 251.927 259.049 246.829 256.851 240.93C251.656 226.634 244.663 207.04 241.865 192.344C241.865 192.144 241.865 192.044 241.865 191.845L247.06 164.952C247.16 164.452 247.56 164.053 248.159 163.953C248.659 163.853 249.258 164.153 249.458 164.652C251.356 168.451 253.154 171.95 254.853 175.349C259.748 184.947 264.044 193.144 266.142 203.041C269.039 216.937 271.536 227.434 276.532 242.63C284.224 245.129 291.117 249.328 298.61 254.027C300.508 255.226 302.406 256.626 304.305 257.925C308.8 261.125 313.396 264.324 318.291 265.723C318.591 264.923 318.491 263.824 318.391 262.724C318.191 260.925 317.991 258.925 319.39 257.426C320.289 256.426 321.488 255.826 322.787 255.926C325.484 256.126 327.982 258.625 328.981 260.225C331.179 263.624 331.978 267.823 331.378 271.821C330.579 277.22 327.382 282.418 322.087 282.418ZM244.563 192.044C247.26 206.54 254.253 225.835 259.348 240.031C261.546 246.229 263.344 251.127 264.244 254.227C264.643 255.726 268.439 257.426 270.338 258.225C270.937 258.525 271.437 258.725 271.836 258.925C277.431 261.724 283.225 264.224 289.219 266.623C295.014 269.022 301.308 271.522 308.501 274.221C310.199 274.921 311.897 275.82 313.496 276.72C316.193 278.22 318.791 279.619 321.688 279.919C326.283 280.319 328.481 274.821 329.081 271.522C329.68 268.123 328.881 264.524 327.083 261.724C326.283 260.425 324.385 258.725 322.787 258.625C322.287 258.625 321.788 258.725 321.488 259.225C320.889 259.925 320.988 261.224 321.088 262.724C321.288 264.524 321.488 266.523 320.089 268.222C319.79 268.622 319.29 268.722 318.791 268.622C312.996 267.223 307.901 263.624 303.006 260.125C301.108 258.725 299.309 257.526 297.411 256.326C289.819 251.527 282.925 247.428 275.233 245.029C274.833 244.929 274.534 244.629 274.434 244.229C269.239 228.534 266.641 217.837 263.744 203.741C261.746 194.144 257.55 186.046 252.755 176.649C251.556 174.25 250.257 171.85 248.958 169.251L244.563 192.044Z" fill="#333333"/>
<path d="M316.992 271.622C315.094 270.422 313.496 269.023 312.197 267.523C311.797 266.923 311.398 266.424 311.298 265.724C311.198 265.124 311.498 264.424 312.097 264.024C312.596 263.724 313.296 263.624 313.995 263.524C316.493 263.224 321.188 264.924 323.286 265.924" fill="white"/>
<path d="M317.392 271.222C315.993 269.922 314.794 268.622 313.696 267.023C312.996 266.023 312.696 265.523 313.995 265.223C314.495 265.123 315.094 265.223 315.594 265.223C318.091 265.523 320.789 267.023 323.286 266.823C323.986 266.723 324.585 266.023 324.085 265.323C321.987 262.324 315.294 260.725 311.997 262.124C309.999 262.924 309.1 265.023 310.099 267.023C311.398 269.522 314.195 270.922 316.593 272.021C317.292 272.321 317.891 271.721 317.392 271.222Z" fill="#333333"/>
<path d="M161.943 169.051C154.65 184.047 149.255 190.145 146.558 203.342C143.461 218.137 140.863 228.634 135.868 243.73C127.876 246.229 120.483 250.728 113.39 255.227C106.596 259.425 100.103 265.524 92.4102 267.323C90.4121 264.824 93.0096 260.625 91.0115 258.326C88.6139 255.626 84.7177 258.925 83.4189 261.025C81.4209 264.124 80.6216 268.023 81.2211 271.722C82.0203 276.22 84.8176 281.619 89.9126 281.219C94.9078 280.819 98.9039 277.22 103.4 275.521C109.893 273.021 116.287 270.522 122.681 267.923C128.575 265.524 134.469 263.024 140.164 260.125C142.162 259.125 147.557 257.226 148.356 254.727C151.253 244.73 163.641 214.338 167.537 193.444L161.943 169.051Z" fill="white"/>
<path d="M89.4131 282.418C84.2181 282.418 81.0212 277.22 80.1221 271.921C79.4228 267.923 80.3219 263.724 82.5198 260.325C83.5188 258.725 86.0164 256.226 88.7138 256.026C90.1124 255.926 91.2113 256.426 92.1105 257.526C93.4092 259.025 93.2094 261.025 93.1095 262.824C93.0096 263.924 92.9097 265.023 93.2094 265.823C98.2046 264.424 102.8 261.125 107.196 258.025C109.094 256.726 110.992 255.326 112.89 254.127C120.483 249.428 127.376 245.229 134.969 242.73C139.964 227.434 142.561 216.937 145.359 203.141C147.257 193.944 150.454 188.046 154.55 180.648C156.448 177.249 158.546 173.35 160.844 168.651C161.044 168.151 161.543 167.951 162.142 167.951C162.642 168.051 163.142 168.351 163.241 168.951L168.936 193.144C168.936 193.344 168.936 193.444 168.936 193.644C166.239 208.44 159.345 227.534 154.35 241.53C152.352 247.229 150.554 252.127 149.755 255.026C148.955 257.626 145.159 259.325 142.362 260.625C141.862 260.825 141.363 261.125 140.963 261.224C135.269 264.024 129.374 266.523 123.38 269.022C117.486 271.422 111.192 273.921 103.999 276.72C102.4 277.32 100.902 278.12 99.3035 279.019C96.5062 280.619 93.5091 282.218 90.1124 282.518C89.9126 282.418 89.6129 282.418 89.4131 282.418ZM88.9136 258.525H88.8137C87.3151 258.625 85.3171 260.425 84.5178 261.624C82.7196 264.524 81.9204 268.122 82.5198 271.422C83.1192 274.721 85.2172 280.219 89.9126 279.819C92.8098 279.519 95.3074 278.12 98.1047 276.62C99.7031 275.72 101.401 274.821 103.1 274.121C110.193 271.422 116.587 268.922 122.381 266.523C128.375 264.024 134.17 261.624 139.764 258.825C140.164 258.625 140.663 258.425 141.263 258.125C143.061 257.326 146.857 255.626 147.357 254.127C148.256 251.127 149.954 246.429 152.052 240.431C156.948 226.634 163.741 207.74 166.438 193.144L161.543 172.65C159.845 176.049 158.246 178.948 156.748 181.647C152.552 189.245 149.555 194.744 147.756 203.441C144.859 217.637 142.262 228.234 137.067 243.929C136.967 244.329 136.667 244.629 136.268 244.729C128.675 247.129 121.682 251.327 114.089 256.026C112.191 257.226 110.393 258.525 108.495 259.825C103.599 263.324 98.5043 266.923 92.7099 268.322C92.2104 268.422 91.7109 268.222 91.4112 267.923C90.1124 266.223 90.3122 264.224 90.4121 262.424C90.512 260.925 90.7118 259.725 90.0125 258.925C89.8127 258.725 89.4131 258.525 88.9136 258.525Z" fill="#333333"/>
<path d="M95.6072 280.02C109.793 274.821 125.678 273.122 145.758 271.622C176.329 269.323 200.006 278.82 205.501 278.82C211.095 278.82 240.566 271.622 255.252 271.622C276.831 271.622 312.796 278.92 314.095 278.82C317.792 278.42 257.75 315.509 244.962 320.008C232.175 324.507 189.716 324.207 172.632 320.008C155.549 315.809 95.6072 280.02 95.6072 280.02Z" fill="#BDECFF"/>
<path d="M211.595 324.706C196.609 324.706 180.924 323.507 172.333 321.407C155.249 317.208 97.4055 282.718 94.9079 281.219C94.4084 280.919 94.1087 280.319 94.2086 279.819C94.3085 279.219 94.6082 278.719 95.2076 278.52C110.293 273.021 127.676 271.322 145.759 270.022C168.237 268.322 186.619 272.921 197.608 275.62C201.305 276.52 204.302 277.22 205.6 277.22C207.599 277.22 213.293 276.12 219.887 274.921C230.976 272.821 246.061 270.022 255.352 270.022C272.036 270.022 297.611 274.421 308.501 276.32C311.198 276.82 313.596 277.22 314.095 277.22C314.994 277.12 315.594 277.82 315.793 278.42C316.093 279.619 316.193 280.019 306.203 286.517C300.608 290.116 293.016 294.915 285.223 299.613C277.93 304.012 253.654 318.508 245.462 321.407C238.868 323.706 225.481 324.706 211.595 324.706ZM99.2037 280.419C111.192 287.517 158.346 315.009 173.032 318.608C190.415 322.807 232.474 322.807 244.463 318.608C255.352 314.809 300.209 287.517 310.898 279.919C310.099 279.819 309.2 279.619 308.001 279.419C297.212 277.52 271.836 273.121 255.352 273.121C246.361 273.121 231.375 275.92 220.486 278.02C213.493 279.319 207.898 280.419 205.7 280.419C204.002 280.419 201.205 279.719 197.009 278.719C186.219 276.02 168.037 271.621 146.058 273.221C126.078 274.621 111.692 276.32 99.2037 280.419Z" fill="#333333"/>
<path d="M267.141 202.542C264.843 194.144 256.851 167.352 248.259 163.153C238.369 158.355 221.185 159.055 207.399 159.554C186.119 160.454 183.122 157.955 168.836 161.754C156.848 164.953 145.958 195.744 143.86 204.141C143.86 204.141 158.546 212.739 169.436 208.44C170.834 213.339 171.733 216.138 175.23 218.337C175.23 218.337 176.928 255.727 167.637 271.622C167.038 272.722 182.922 282.519 206.5 282.519C227.579 282.519 248.259 272.922 243.164 272.722C240.167 272.622 234.173 223.936 235.371 218.437C235.371 218.437 239.368 214.039 240.966 208.14C252.954 212.039 266.341 205.841 267.141 202.542Z" fill="white"/>
<path d="M206.6 284.118C183.322 284.118 167.737 275.021 166.439 272.721C166.139 272.121 166.139 271.522 166.439 270.922C174.73 256.826 174.031 224.435 173.831 219.137C170.834 216.937 169.735 214.238 168.536 210.339C157.347 213.638 143.761 205.741 143.161 205.441C142.562 205.141 142.262 204.441 142.462 203.741C144.46 195.943 155.249 163.753 168.536 160.254C177.728 157.754 182.323 157.954 190.016 158.054C194.311 158.154 199.706 158.254 207.399 157.954C221.385 157.355 238.768 156.655 248.958 161.653C257.85 165.952 265.642 191.345 268.539 201.942C268.639 202.142 268.639 202.441 268.539 202.641C268.24 204.041 266.841 205.441 264.443 206.84C259.049 209.939 250.157 212.039 241.865 210.039C240.367 214.638 237.569 218.037 236.67 219.137C235.671 226.035 241.166 266.823 243.763 271.322C245.362 271.621 245.462 272.921 245.462 273.121C245.462 275.52 238.568 278.12 232.774 279.919C227.779 281.619 217.689 284.118 206.6 284.118ZM169.436 271.622C172.333 273.821 186.419 281.119 206.6 281.119C222.084 281.119 237.17 275.82 241.566 273.321C238.169 268.222 232.674 224.135 233.973 218.237C234.073 217.937 234.173 217.737 234.373 217.537C234.373 217.537 238.169 213.338 239.568 207.94C239.667 207.54 239.967 207.24 240.267 207.04C240.666 206.84 241.066 206.84 241.466 206.94C249.158 209.24 258.05 207.34 263.045 204.441C264.643 203.541 265.442 202.741 265.642 202.342C261.047 185.946 254.053 167.452 247.76 164.452C238.169 159.854 221.285 160.454 207.599 161.053C199.706 161.353 194.311 161.253 190.016 161.153C182.623 160.953 178.227 160.854 169.436 163.253C159.545 165.952 149.055 191.845 145.858 203.441C149.255 205.241 160.644 210.439 169.136 207.14C169.536 206.94 169.935 207.04 170.335 207.24C170.734 207.44 171.034 207.74 171.134 208.14C172.533 213.138 173.432 215.338 176.229 217.237C176.629 217.537 176.928 217.937 176.928 218.437C176.828 219.836 178.327 255.126 169.436 271.622Z" fill="#333333"/>
<path d="M195.21 134.961C195.21 138.56 196.509 150.257 196.209 152.356L179.426 159.054C193.712 172.351 220.586 174.65 233.773 158.954C233.773 158.954 218.288 152.256 218.288 152.356C217.888 151.557 219.287 141.26 219.587 135.861L195.21 134.961Z" fill="white"/>
<path d="M208.298 171.151C197.408 171.151 186.219 166.952 178.627 159.954C178.327 159.654 178.127 159.254 178.227 158.854C178.327 158.454 178.627 158.054 179.026 157.954L195.011 151.556C195.011 149.857 194.711 145.958 194.511 142.759C194.211 139.56 194.012 136.561 194.012 134.961C194.012 134.661 194.112 134.261 194.411 134.061C194.611 133.861 195.011 133.661 195.31 133.661L219.687 134.561C219.986 134.561 220.386 134.761 220.586 134.961C220.786 135.161 220.886 135.561 220.886 135.861C220.786 138.16 220.486 141.359 220.186 144.358C219.886 146.958 219.587 150.157 219.587 151.456C220.786 151.856 222.884 152.756 226.68 154.455C230.576 156.155 234.372 157.754 234.372 157.754C234.772 157.954 234.972 158.254 235.072 158.654C235.172 159.054 235.072 159.454 234.772 159.754C229.177 166.452 220.686 170.351 210.895 171.051C210.096 171.051 209.197 171.151 208.298 171.151ZM181.923 159.454C189.516 165.752 200.405 169.151 210.795 168.551C219.287 168.051 226.58 164.852 231.775 159.454C226.18 157.055 218.987 153.956 218.088 153.656C217.689 153.556 217.389 153.256 217.289 152.956C216.989 152.256 217.089 151.056 217.689 144.258C217.888 141.759 218.188 139.26 218.388 137.16L196.609 136.361C196.709 137.96 196.909 140.259 197.009 142.659C197.408 147.857 197.708 151.456 197.508 152.656C197.408 153.056 197.109 153.456 196.709 153.656L181.923 159.454Z" fill="#333333"/>
<path d="M91.1114 284.518C89.513 293.116 103.499 306.312 109.494 309.911C127.276 320.608 214.492 337.603 224.482 338.603C232.574 339.502 247.759 345.301 254.153 344.601C261.846 343.801 266.941 334.704 267.84 328.505C268.739 322.207 256.351 325.406 250.057 326.306C245.861 326.906 240.167 330.305 226.98 328.505C209.796 326.106 133.97 278.82 106.397 278.82C101.102 278.82 92.2104 278.92 91.1114 284.518Z" fill="white"/>
<path d="M253.154 346C249.158 346 243.064 344.4 237.17 342.801C232.574 341.601 227.679 340.302 224.382 339.902C215.491 339.002 126.977 321.907 108.894 311.01C103 307.411 88.1143 293.815 89.9126 284.318C91.2113 277.62 101.102 277.62 106.397 277.62C123.28 277.62 156.348 294.215 185.52 308.811C204.302 318.208 220.486 326.306 227.179 327.305C236.87 328.705 242.265 327.105 246.261 326.006C247.56 325.606 248.758 325.306 249.857 325.106C250.756 325.006 251.855 324.806 252.954 324.606C258.749 323.606 265.242 322.507 267.94 325.106C268.539 325.706 269.338 326.906 269.039 328.705C268.14 335.103 262.745 345 254.253 345.9C253.953 346 253.554 346 253.154 346ZM92.3103 284.818C90.9116 292.615 104.299 305.412 110.193 308.911C128.076 319.708 215.79 336.503 224.582 337.402C228.078 337.802 232.774 339.002 237.769 340.302C244.063 342.001 250.557 343.701 254.053 343.401C261.246 342.701 265.742 334.003 266.641 328.405C266.741 327.505 266.541 327.105 266.241 326.906C264.443 325.206 257.85 326.306 253.454 327.105C252.255 327.305 251.256 327.505 250.257 327.605C249.358 327.705 248.259 328.005 246.96 328.405C242.964 329.505 236.97 331.204 226.88 329.805C219.787 328.805 203.402 320.607 184.421 311.11C156.948 297.314 122.681 280.119 106.397 280.119C101.801 280.119 93.2094 280.119 92.3103 284.818Z" fill="#333333"/>
<path d="M319.09 284.518C320.689 293.116 306.702 306.312 300.708 309.911C282.925 320.608 195.71 337.603 185.72 338.603C177.628 339.502 162.442 345.301 156.049 344.601C148.356 343.801 143.261 334.704 142.362 328.505C141.463 322.207 153.851 325.406 160.145 326.306C164.341 326.906 170.035 330.305 183.222 328.505C200.405 326.106 276.232 278.82 303.805 278.82C309.1 278.82 317.991 278.92 319.09 284.518Z" fill="white"/>
<path d="M157.048 346C156.648 346 156.248 346 155.949 345.9C147.457 345.1 142.062 335.203 141.163 328.705C140.863 326.806 141.563 325.706 142.262 325.106C144.959 322.507 151.453 323.606 157.247 324.606C158.346 324.806 159.445 325.006 160.344 325.106C161.443 325.306 162.642 325.606 163.941 326.006C167.937 327.105 173.332 328.705 183.022 327.305C189.716 326.406 205.9 318.208 224.682 308.811C253.854 294.215 286.922 277.62 303.805 277.62C309.1 277.62 319.09 277.62 320.289 284.318C322.087 293.815 307.202 307.411 301.308 311.01C283.225 322.007 194.811 339.002 185.82 339.902C182.523 340.302 177.728 341.501 173.032 342.801C167.138 344.4 161.044 346 157.048 346ZM147.757 326.006C146.058 326.006 144.66 326.206 143.96 326.906C143.761 327.105 143.461 327.505 143.561 328.405C144.36 334.003 148.955 342.701 156.149 343.401C159.545 343.701 166.139 342.001 172.433 340.302C177.428 339.002 182.023 337.702 185.62 337.402C194.511 336.503 282.226 319.608 300.009 308.911C305.803 305.412 319.29 292.615 317.891 284.818C316.992 280.119 308.401 280.119 303.805 280.119C287.521 280.119 253.354 297.314 225.781 311.11C206.799 320.607 190.415 328.805 183.322 329.805C173.132 331.204 167.138 329.505 163.242 328.405C161.943 328.005 160.944 327.705 159.945 327.605C159.046 327.505 157.947 327.305 156.748 327.105C154.051 326.606 150.554 326.006 147.757 326.006Z" fill="#333333"/>
<path d="M91.1114 284.518C89.513 293.116 103.499 306.312 109.494 309.911C116.287 314.01 124.579 316.209 132.271 318.408C143.061 321.507 154.75 325.406 166.338 327.106C166.738 320.508 171.733 307.212 174.53 305.212C174.53 305.212 145.059 290.616 138.366 287.817C128.475 283.718 117.286 278.82 106.397 278.82C101.102 278.82 92.2104 278.92 91.1114 284.518Z" fill="#BDECFF"/>
<path d="M166.338 328.605C166.239 328.605 166.239 328.605 166.139 328.605C156.348 327.105 146.558 324.206 137.167 321.407C135.369 320.907 133.67 320.407 131.972 319.908L129.574 319.208C122.481 317.208 115.088 315.009 108.894 311.31C102.9 307.711 88.0145 293.915 89.8127 284.318C91.1115 277.42 101.202 277.42 106.596 277.42C117.286 277.42 128.076 281.918 137.566 285.917L139.165 286.517C145.858 289.316 174.131 303.412 175.33 304.012C175.829 304.212 176.129 304.712 176.129 305.212C176.129 305.712 175.929 306.211 175.53 306.511C173.332 308.111 168.436 320.707 167.937 327.205C167.937 327.605 167.737 328.005 167.337 328.305C167.038 328.505 166.638 328.605 166.338 328.605ZM92.61 284.818C91.2114 292.515 104.598 305.212 110.293 308.711C116.187 312.31 123.38 314.309 130.273 316.309L132.671 317.008C134.369 317.508 136.168 318.008 137.966 318.608C146.857 321.207 155.949 323.906 165.04 325.406C165.939 319.408 169.236 309.91 172.133 305.712C165.739 302.513 143.461 291.516 137.866 289.216L136.268 288.617C126.977 284.718 116.487 280.319 106.397 280.319C101.901 280.319 93.4092 280.319 92.61 284.818Z" fill="#333333"/>
<path d="M207.399 86.4753C194.711 86.4753 184.121 96.0726 181.624 108.769C180.924 108.369 180.025 108.169 179.226 108.169C176.129 108.169 173.631 110.668 173.631 113.767C173.631 116.867 176.129 119.366 179.226 119.366C180.125 119.366 180.924 119.166 181.624 118.766C184.121 129.063 194.711 142.659 207.498 142.659C222.084 142.659 233.873 124.764 233.873 114.567C233.773 99.0717 221.984 86.4753 207.399 86.4753Z" fill="white"/>
<path d="M207.399 143.958C194.211 143.958 183.722 130.662 180.725 120.465C180.225 120.565 179.726 120.665 179.226 120.665C175.43 120.665 172.433 117.566 172.433 113.867C172.433 110.168 175.53 107.069 179.226 107.069C179.726 107.069 180.225 107.169 180.725 107.269C183.921 94.4727 194.911 85.3753 207.499 85.3753C222.784 85.3753 235.172 98.5715 235.172 114.767C235.072 125.864 222.384 143.958 207.399 143.958ZM181.624 117.466C181.823 117.466 182.023 117.466 182.123 117.566C182.423 117.766 182.723 118.066 182.823 118.366C185.02 127.763 195.111 141.359 207.499 141.359C220.886 141.359 232.674 124.664 232.674 114.467C232.674 99.6712 221.385 87.5747 207.499 87.5747C195.71 87.5747 185.32 96.5721 182.922 108.869C182.823 109.268 182.623 109.568 182.223 109.768C181.923 109.968 181.424 109.968 181.124 109.768C180.525 109.468 179.925 109.368 179.226 109.368C176.828 109.368 174.93 111.268 174.93 113.667C174.93 116.066 176.828 117.966 179.226 117.966C179.825 117.966 180.525 117.866 181.124 117.566C181.224 117.566 181.424 117.466 181.624 117.466Z" fill="#333333"/>
<path d="M319.39 284.518C320.988 293.116 307.002 306.312 301.008 309.911C294.214 314.01 285.922 316.209 278.23 318.408C267.44 321.507 255.752 325.406 244.163 327.106C243.763 320.508 238.768 307.212 235.971 305.212C235.971 305.212 265.442 290.616 272.136 287.817C282.026 283.718 293.215 278.82 304.105 278.82C309.4 278.82 318.391 278.92 319.39 284.518Z" fill="#BDECFF"/>
<path d="M244.163 328.605C243.863 328.605 243.464 328.505 243.264 328.305C242.964 328.005 242.764 327.605 242.665 327.205C242.265 320.707 237.37 308.011 235.072 306.511C234.672 306.211 234.373 305.712 234.472 305.212C234.472 304.712 234.872 304.212 235.272 304.012C236.471 303.412 264.843 289.316 271.437 286.517L273.035 285.917C282.526 281.918 293.415 277.42 304.005 277.42C309.4 277.42 319.49 277.42 320.789 284.318C322.587 293.915 307.601 307.711 301.707 311.31C295.413 315.109 288.12 317.208 281.027 319.208L278.63 319.908C276.931 320.407 275.133 320.907 273.435 321.407C263.944 324.206 254.253 327.105 244.463 328.605C244.363 328.605 244.263 328.605 244.163 328.605ZM238.369 305.712C241.266 309.91 244.663 319.408 245.462 325.406C254.553 323.906 263.644 321.207 272.536 318.608C274.334 318.108 276.032 317.608 277.83 317.008L280.228 316.309C287.121 314.309 294.314 312.31 300.209 308.711C306.003 305.212 319.39 292.515 317.892 284.818C317.092 280.319 308.601 280.319 304.105 280.319C294.015 280.319 283.525 284.718 274.234 288.617L272.635 289.216C267.041 291.516 244.862 302.513 238.369 305.712Z" fill="#333333"/>
<path d="M93.81 272.222C95.7081 271.022 98.5054 268.223 99.7042 266.723C100.104 266.124 100.503 265.624 100.603 264.924C100.703 264.324 100.404 263.624 99.8041 263.224C99.3046 262.925 98.6053 262.825 97.906 262.725C95.4084 262.425 88.7149 264.424 86.6169 265.424" fill="white"/>
<path d="M94.1087 272.621C97.1058 271.222 106.597 264.624 100.103 261.424C97.8051 260.325 95.0078 261.025 92.7101 261.524C90.5122 262.024 87.4152 262.724 85.9167 264.524C85.4171 265.223 85.7169 266.123 86.616 266.223C89.9128 266.423 93.1097 264.624 96.4065 264.324C96.8061 264.324 98.5044 264.024 98.7043 264.424C99.3037 265.123 97.7052 266.523 97.3056 267.023C96.0069 268.622 94.808 270.222 93.3095 271.622C92.9099 272.221 93.6092 272.921 94.1087 272.621Z" fill="#333333"/>
<path d="M179.026 94.8726C178.627 99.0714 176.229 100.471 175.829 104.77C175.43 108.569 175.23 108.169 179.526 109.468C184.521 110.968 188.917 110.568 192.113 108.569C195.41 106.469 198.108 103.77 200.705 100.871C201.704 99.7712 203.303 97.072 204.801 96.772C206.699 96.2722 208.897 93.9728 208.897 93.9728C209.796 97.5718 225.981 116.666 236.37 126.863C236.37 126.863 233.473 90.2739 233.473 89.6741C233.473 89.0743 222.284 79.2771 222.284 79.2771L206.1 76.4779L192.313 79.777C192.413 79.777 179.026 94.8726 179.026 94.8726Z" fill="url(#paint1_linear)"/>
<path d="M173.432 105.17C174.93 116.366 189.316 111.368 195.41 107.369C203.402 101.971 211.195 94.7726 216.59 86.7749C216.989 86.1751 216.09 85.5753 215.591 86.0751C209.896 91.4736 181.224 120.565 175.23 104.67C174.83 103.57 173.332 103.97 173.432 105.17Z" fill="#333333"/>
<path d="M191.714 115.167C191.814 117.966 193.912 120.065 196.809 120.365C199.107 120.565 202.903 119.066 202.304 116.266C202.204 115.866 201.704 115.567 201.305 115.667C199.906 116.166 199.007 117.566 197.408 117.666C195.51 117.866 194.012 116.266 193.312 114.667C192.913 114.067 191.714 114.467 191.714 115.167Z" fill="#333333"/>
<path d="M209.097 115.767C209.696 118.366 212.094 119.965 214.791 119.965C217.189 119.965 220.686 118.566 220.686 115.767C220.686 114.967 219.786 114.167 218.987 114.467C217.589 114.967 216.69 116.366 215.191 116.766C213.493 117.066 211.794 116.066 210.496 115.067C209.796 114.567 208.997 114.967 209.097 115.767Z" fill="#333333"/>
<path d="M205.101 125.464C204.302 124.964 203.402 125.664 203.402 126.563C203.303 127.663 204.302 128.463 205.201 128.763C206.1 129.063 207.199 128.963 207.998 128.463C208.797 127.963 209.397 126.863 208.797 126.064C208.597 125.864 208.398 125.764 208.198 125.764C207.798 125.864 207.598 125.864 207.199 126.164C206.899 126.363 206.599 126.563 206.3 126.663C206.1 126.763 205.7 126.863 205.4 126.663C205.301 126.663 205.301 126.563 205.201 126.563C205.201 126.463 205.301 125.864 205.201 126.164C205.5 125.864 205.301 125.564 205.101 125.464Z" fill="#333333"/>
<path d="M206.999 133.861C209.097 135.361 213.293 133.861 213.193 131.062C213.193 130.062 211.994 129.663 211.295 130.262C210.695 130.762 210.296 131.462 209.596 131.862C208.997 132.262 208.098 132.362 207.399 132.362C206.599 132.362 206.399 133.461 206.999 133.861Z" fill="#333333"/>
<path d="M209.696 94.0728C211.694 99.7712 215.591 104.77 219.287 109.568C223.283 114.667 227.479 120.065 232.774 123.864C233.673 124.464 234.972 123.264 234.273 122.365C230.776 117.466 226.48 113.267 222.684 108.669C218.688 103.77 215.291 98.0716 210.895 93.473C210.396 92.8731 209.397 93.373 209.696 94.0728Z" fill="#333333"/>
<defs>
<linearGradient id="paint0_linear" x1="153.86" y1="60.2525" x2="276.895" y2="170.99" gradientUnits="userSpaceOnUse">
<stop stop-color="#FFC671"/>
<stop offset="0.59375" stop-color="#FF7541"/>
<stop offset="1" stop-color="#FF6F3D"/>
</linearGradient>
<linearGradient id="paint1_linear" x1="181.324" y1="88.9743" x2="225.803" y2="122.435" gradientUnits="userSpaceOnUse">
<stop stop-color="#FFA55D"/>
<stop offset="1" stop-color="#FF7C45"/>
</linearGradient>
</defs>
</svg>
