<svg width="88" height="31" viewBox="0 0 88 31" fill="none" xmlns="http://www.w3.org/2000/svg">
<path d="M0 20.8622V6.27045L12.9061 1.5L19.9201 3.7435V23.3862L12.9061 25.5L0 20.8622L12.9061 22.4152V5.42914L4.487 7.3922V18.8992L0 20.8622ZM33.6706 20.9648C31.6381 20.9648 30.0128 20.2953 28.7885 18.9565C27.5643 17.6176 26.9551 15.8747 26.9551 13.7307C26.9551 11.4269 27.5793 9.58745 28.8247 8.21542C30.0701 6.84338 31.7648 6.15586 33.9118 6.15586C35.8899 6.15586 37.4851 6.82228 38.6943 8.15511C39.9035 9.48794 40.5096 11.2309 40.5096 13.3809C40.5096 15.7179 39.8884 17.5663 38.6521 18.9263C37.4067 20.2833 35.7482 20.9617 33.6706 20.9648ZM33.7882 7.67263C32.2835 7.67263 31.0592 8.21542 30.1214 9.30098C29.1836 10.3865 28.7132 11.8129 28.7132 13.5769C28.7132 15.3409 29.1715 16.7642 30.0882 17.8377C31.0049 18.9142 32.199 19.451 33.6706 19.451C35.2416 19.451 36.481 18.9384 37.3886 17.9131C38.2933 16.8879 38.7486 15.4525 38.7486 13.607C38.7486 11.7133 38.3083 10.2539 37.4278 9.21956C36.5473 8.18828 35.3351 7.67263 33.7882 7.67263ZM46.4742 5.35375C45.5484 5.35375 44.7795 5.67037 44.1583 6.29156C43.5401 6.91274 43.2295 7.7631 43.2295 8.83358V10.4921H41.4836V11.8943H43.2295V20.7235H44.8609V11.8943H48.8504V20.7235H50.4817V11.8943H52.876V10.4921H50.4817V8.915C50.4817 7.4706 51.0547 6.74991 52.2005 6.74991C52.6076 6.74991 52.9695 6.83434 53.2891 7.01225V5.54071C52.9966 5.42009 52.6046 5.35677 52.107 5.35677C51.1813 5.35677 50.4033 5.67339 49.7821 6.29457C49.1609 6.91877 48.8534 7.76611 48.8534 8.8366V10.4951H44.8639V8.91802C44.8639 7.47361 45.4369 6.75292 46.5827 6.75292C46.9898 6.75292 47.3517 6.83735 47.6713 7.01527V5.54372C47.3758 5.41708 46.9747 5.35375 46.4742 5.35375ZM55.2582 7.89276C54.9778 7.89879 54.7064 7.79024 54.5073 7.59423C54.3023 7.39521 54.1968 7.14191 54.1968 6.83434C54.1968 6.52676 54.2993 6.27346 54.5073 6.07143C54.7064 5.87241 54.9747 5.76084 55.2582 5.76687C55.5567 5.76687 55.813 5.86939 56.0241 6.07143C56.2352 6.27346 56.3377 6.52978 56.3377 6.83434C56.3438 7.11779 56.2292 7.38918 56.0241 7.58519C55.813 7.78722 55.5597 7.89276 55.2582 7.89276ZM56.0603 20.7205H54.4229V10.4891H56.0603V20.7205ZM65.369 20.2531C64.582 20.7265 63.6502 20.9617 62.5707 20.9617C61.1112 20.9617 59.9352 20.4883 59.0396 19.5384C58.144 18.5886 57.6947 17.3583 57.6947 15.8475C57.6947 14.1619 58.1772 12.808 59.1451 11.7857C60.1101 10.7635 61.4007 10.2508 63.0139 10.2508C63.9125 10.2508 64.7056 10.4167 65.3931 10.7514V12.431C64.6332 11.8973 63.8221 11.6319 62.9567 11.6319C61.9103 11.6319 61.0539 12.0058 60.3815 12.7567C59.712 13.5075 59.3773 14.4906 59.3773 15.7088C59.3773 16.909 59.6909 17.8528 60.3211 18.5464C60.9514 19.2399 61.7957 19.5837 62.8541 19.5837C63.7467 19.5837 64.588 19.2882 65.372 18.6941V20.2531H65.369ZM75.3864 16.0164H68.1613C68.1885 17.1562 68.493 18.0337 69.081 18.6549C69.6691 19.2731 70.4742 19.5837 71.4994 19.5837C72.6513 19.5837 73.7128 19.2037 74.6777 18.4438V19.9817C73.7791 20.6331 72.591 20.9617 71.1104 20.9617C69.666 20.9617 68.5292 20.4974 67.703 19.5686C66.8767 18.6398 66.4636 17.3311 66.4636 15.6455C66.4636 14.0533 66.9159 12.7567 67.8176 11.7525C68.7192 10.7484 69.8409 10.2478 71.1798 10.2478C72.5187 10.2478 73.556 10.6821 74.2887 11.5475C75.0215 12.4129 75.3864 13.6161 75.3864 15.154V16.0164ZM73.7067 14.6263C73.7007 13.6794 73.4715 12.9436 73.0222 12.419C72.5729 11.8913 71.9487 11.6289 71.1496 11.6289C70.3777 11.6289 69.7203 11.9063 69.1805 12.4582C68.6408 13.01 68.3091 13.7337 68.1824 14.6263H73.7067Z" fill="#F25022"/>
</svg>
