<svg width="114" height="31" viewBox="0 0 114 31" fill="none" xmlns="http://www.w3.org/2000/svg">
<path d="M14.9621 8.78283C17.4189 8.78283 19.5737 10.1162 20.7417 12.1162L27.8906 7.97475C25.2928 3.5101 20.4799 0.5 14.9621 0.5C9.38397 0.5 4.51062 3.57071 1.95312 8.09596L9.10204 12.2374C10.2298 10.1768 12.4248 8.78283 14.9621 8.78283Z" fill="#00934F"/>
<path d="M27.8905 7.97479L20.7416 12.1162C21.3256 13.1061 21.6478 14.2576 21.6478 15.5101C21.6478 19.2273 18.6472 22.2374 14.9419 22.2374V30.5202C17.5799 30.5202 20.0569 29.8334 22.2116 28.6415L29.9043 30.5202C29.9043 30.5202 28.6557 25.7324 27.8905 23.0253C29.1592 20.8233 29.9043 18.2576 29.9043 15.5303C29.9043 12.7627 29.1592 10.1768 27.8905 7.97479Z" fill="#FFC43A"/>
<path d="M8.25649 15.51C8.25649 14.3382 8.55856 13.2271 9.10228 12.2574L1.95337 8.09583C0.704822 10.2776 0 12.8029 0 15.51C0 23.7928 6.68575 30.5201 14.9624 30.5201V22.2372C11.257 22.217 8.25649 19.2069 8.25649 15.51Z" fill="#1C8AF3"/>
<path d="M46.1961 19.7726C44.6455 19.7726 43.4574 19.2271 42.6116 18.1564C41.7658 17.0857 41.363 15.6514 41.363 13.8736C41.363 12.2776 41.8262 10.9443 42.7727 9.89381C43.7192 8.84331 44.8872 8.29785 46.2767 8.29785C47.787 8.29785 48.9751 8.8231 49.8008 9.89381C50.6264 10.9443 51.0493 12.3585 51.0493 14.0958C51.0493 15.5302 50.707 16.7019 50.0424 17.6312C49.3779 18.5605 48.6529 19.1665 47.8675 19.4898C48.0891 19.9544 48.3911 20.3585 48.7335 20.7221C49.096 21.0857 49.5793 21.4292 50.2237 21.7726L49.4987 22.7221C49.1765 22.5201 48.8543 22.3181 48.5522 22.0958C48.2502 21.8736 47.9682 21.6312 47.7266 21.3888C47.4648 21.1463 47.2433 20.8837 47.0419 20.6009C46.8405 20.3383 46.6794 20.0554 46.5586 19.7726C46.4579 19.7524 46.3371 19.7726 46.1961 19.7726ZM46.2767 18.7625C47.203 18.7625 48.0286 18.3383 48.7335 17.4898C49.4383 16.6413 49.8008 15.409 49.8008 13.7524C49.8008 12.7019 49.5188 11.6918 48.955 10.7423C48.3911 9.7726 47.5051 9.30795 46.3169 9.30795C45.1691 9.30795 44.2629 9.7322 43.6185 10.6009C42.9539 11.4696 42.6317 12.5605 42.6317 13.8938C42.6317 15.4494 42.9741 16.6615 43.6587 17.51C44.3636 18.3383 45.2295 18.7625 46.2767 18.7625Z" fill="#333333"/>
<path d="M54.0096 12.0151V17.1666C54.0096 17.6716 54.1304 18.0555 54.3922 18.3383C54.654 18.6009 54.9762 18.7424 55.3991 18.7424C55.9227 18.7424 56.406 18.6615 56.8087 18.5201C57.2115 18.3787 57.5337 18.1767 57.7753 17.9343V12.0151H58.8829V18.6009C58.8829 18.904 58.9232 19.2272 58.9836 19.5908H57.8559C57.8156 19.3282 57.7955 19.0656 57.7753 18.803C57.5135 19.005 57.2115 19.1666 56.849 19.3282C56.4865 19.4898 56.1844 19.5908 55.9428 19.6312C55.7011 19.6918 55.4595 19.712 55.2581 19.712C54.4526 19.712 53.8485 19.4898 53.486 19.0454C53.1034 18.6009 52.9221 18.0151 52.9221 17.2878V12.0151H54.0096Z" fill="#333333"/>
<path d="M61.2188 9.55046C61.2188 9.38884 61.2792 9.22722 61.4 9.08581C61.5208 8.9444 61.6819 8.88379 61.8833 8.88379C62.0847 8.88379 62.2458 8.9444 62.3465 9.08581C62.4673 9.22722 62.5277 9.38884 62.5277 9.55046C62.5277 9.75248 62.4673 9.89389 62.3263 10.0353C62.2055 10.1565 62.0444 10.2373 61.8632 10.2373C61.6819 10.2373 61.5208 10.1767 61.4 10.0353C61.2792 9.89389 61.2188 9.73227 61.2188 9.55046ZM61.3194 12.0151H62.427V19.5909H61.3194V12.0151Z" fill="#333333"/>
<path d="M70.5628 18.3385C70.2809 18.7627 69.9184 19.086 69.4552 19.3284C68.992 19.5708 68.4282 19.692 67.7435 19.692C66.6963 19.692 65.8707 19.3284 65.2464 18.6011C64.6221 17.8738 64.3201 16.9243 64.3201 15.7728C64.3201 14.6415 64.6221 13.7122 65.2464 12.985C65.8707 12.2577 66.7165 11.894 67.7636 11.894C68.3678 11.894 68.8913 11.9749 69.2941 12.1567C69.6969 12.3385 70.0392 12.5809 70.3211 12.9041L69.5962 13.5506C69.3142 13.2476 69.0524 13.0254 68.7705 12.9041C68.4886 12.7829 68.1664 12.7021 67.7838 12.7021C67.0588 12.7021 66.495 12.985 66.0922 13.5304C65.6894 14.0759 65.4881 14.8031 65.4881 15.6516C65.4881 16.5405 65.7096 17.3082 66.1325 17.9344C66.5554 18.5607 67.1192 18.8839 67.7838 18.8839C68.3476 18.8839 68.7705 18.8031 69.0524 18.6213C69.3344 18.4395 69.5962 18.1769 69.858 17.8334L70.5628 18.3385Z" fill="#333333"/>
<path d="M73.2414 14.9444L76.3829 12.0152H77.7321L74.6711 14.7828L77.8731 19.5909H76.5641L74.0066 15.3081L73.2414 15.9747V19.5909H72.1338V8.58081H73.2414V14.9444Z" fill="#333333"/>
<path d="M82.7261 19.7118C81.538 19.7118 80.6519 19.3482 80.0478 18.6007C79.4437 17.8735 79.1416 16.8836 79.1416 15.6714C79.1416 14.5805 79.4638 13.6715 80.1082 12.9442C80.7526 12.2169 81.6186 11.8533 82.706 11.8533C83.8136 11.8533 84.6594 12.2371 85.2635 12.9846C85.8676 13.7321 86.1697 14.6816 86.1697 15.7927C86.1697 16.8634 85.8475 17.7725 85.2232 18.5401C84.5788 19.328 83.7532 19.7118 82.7261 19.7118ZM82.6859 18.823C83.0685 18.823 83.4108 18.722 83.6927 18.5401C83.9747 18.3583 84.2767 18.0351 84.5587 17.5502C84.8406 17.0654 84.9816 16.4189 84.9816 15.6108C84.9816 14.9038 84.7802 14.2371 84.3976 13.6512C83.9948 13.0654 83.431 12.7624 82.6657 12.7624C81.9005 12.7624 81.3165 13.0452 80.9137 13.6108C80.4908 14.1765 80.2895 14.9038 80.2895 15.8129C80.2895 16.5805 80.4304 17.1866 80.7325 17.631C81.0346 18.0553 81.3366 18.3583 81.6387 18.5401C81.9408 18.7422 82.2831 18.823 82.6859 18.823Z" fill="#333333"/>
<path d="M88.3244 12.015V11.409C88.3244 10.4393 88.5459 9.712 89.0091 9.22715C89.4722 8.7423 90.0965 8.49988 90.8819 8.49988C91.1638 8.49988 91.4457 8.54028 91.7277 8.60089C92.0096 8.66149 92.211 8.7423 92.3318 8.84331L91.8485 9.79281C91.7881 9.7322 91.627 9.6716 91.4256 9.57059C91.2041 9.46958 91.0027 9.42917 90.8013 9.42917C90.2777 9.42917 89.8951 9.57059 89.6938 9.85341C89.5729 9.99483 89.4924 10.2575 89.4722 10.6009C89.4521 10.9443 89.432 11.4292 89.432 12.0352H91.2041L91.1034 12.9645H89.432V19.611H88.3244V12.9443H87.2974V12.015H88.3244Z" fill="#333333"/>
<path d="M92.7746 12.015V11.409C92.7746 10.4393 92.9961 9.712 93.4593 9.22715C93.9225 8.7423 94.5467 8.49988 95.3321 8.49988C95.614 8.49988 95.896 8.54028 96.1779 8.60089C96.4598 8.66149 96.6612 8.7423 96.782 8.84331L96.2987 9.79281C96.2383 9.7322 96.0772 9.6716 95.8758 9.57059C95.6543 9.46958 95.4529 9.42917 95.2516 9.42917C94.728 9.42917 94.3454 9.57059 94.144 9.85341C94.0231 9.99483 93.9426 10.2575 93.9225 10.6009C93.9023 10.9443 93.8822 11.4292 93.8822 12.0352H95.6543L95.5536 12.9645H93.8822V19.611H92.7746V12.9443H91.7476V12.015H92.7746Z" fill="#333333"/>
<path d="M96.9634 9.55046C96.9634 9.38884 97.0238 9.22722 97.1446 9.08581C97.2654 8.9444 97.4265 8.88379 97.6279 8.88379C97.8293 8.88379 97.9904 8.9444 98.0911 9.08581C98.2119 9.22722 98.2723 9.38884 98.2723 9.55046C98.2723 9.75248 98.2119 9.89389 98.071 10.0353C97.9501 10.1565 97.789 10.2373 97.6078 10.2373C97.4266 10.2373 97.2654 10.1767 97.1446 10.0353C97.0238 9.89389 96.9634 9.73227 96.9634 9.55046ZM97.0641 12.0151H98.1716V19.5909H97.0641V12.0151Z" fill="#333333"/>
<path d="M106.307 18.3385C106.025 18.7627 105.663 19.086 105.2 19.3284C104.737 19.5708 104.173 19.692 103.488 19.692C102.441 19.692 101.615 19.3284 100.991 18.6011C100.367 17.8738 100.065 16.9243 100.065 15.7728C100.065 14.6415 100.367 13.7122 100.991 12.985C101.615 12.2577 102.461 11.894 103.508 11.894C104.112 11.894 104.636 11.9749 105.039 12.1567C105.441 12.3385 105.784 12.5809 106.066 12.9041L105.341 13.5506C105.059 13.2476 104.797 13.0254 104.515 12.9041C104.233 12.7829 103.911 12.7021 103.528 12.7021C102.803 12.7021 102.24 12.985 101.837 13.5304C101.434 14.0759 101.233 14.8031 101.233 15.6516C101.233 16.5405 101.454 17.3082 101.877 17.9344C102.3 18.5607 102.864 18.8839 103.528 18.8839C104.092 18.8839 104.515 18.8031 104.797 18.6213C105.079 18.4395 105.341 18.1769 105.603 17.8334L106.307 18.3385Z" fill="#333333"/>
<path d="M114 18.2375C113.678 18.6819 113.275 19.0253 112.792 19.3082C112.308 19.591 111.704 19.7122 110.939 19.7122C109.952 19.7122 109.147 19.3688 108.543 18.6617C107.939 17.9546 107.636 16.9647 107.636 15.6718C107.636 14.5607 107.918 13.6314 108.462 12.9445C109.006 12.2375 109.811 11.894 110.859 11.894C111.745 11.894 112.449 12.1365 112.973 12.6213C113.497 13.1062 113.778 13.793 113.839 14.6819C113.859 15.0051 113.879 15.3688 113.859 15.7324H108.784C108.784 16.5607 108.986 17.288 109.368 17.894C109.751 18.5001 110.275 18.8031 110.939 18.8031C111.422 18.8031 111.845 18.7021 112.208 18.5001C112.57 18.2981 112.892 17.995 113.194 17.6112L114 18.2375ZM110.859 12.7627C110.194 12.7627 109.711 12.985 109.368 13.4496C109.026 13.894 108.845 14.4193 108.825 14.9849H112.751C112.731 14.3789 112.59 13.8536 112.308 13.4294C112.027 12.985 111.543 12.7627 110.859 12.7627Z" fill="#333333"/>
</svg>
