<svg width="87" height="31" viewBox="0 0 87 31" fill="none" xmlns="http://www.w3.org/2000/svg">
<g clip-path="url(#clip0_3894_1668)">
<path d="M86.8625 6.90564V27.5374L84.0181 30.3168V10.1403L86.8625 6.90564Z" fill="#E79224"/>
<path d="M84.0632 10.1403H65.2258V30.3407H84.0645V10.1403H84.0632Z" fill="url(#paint0_linear_3894_1668)"/>
<path d="M68.1761 6.91891L65.2256 10.1416H84.063L86.8623 6.90564L68.1761 6.91891Z" fill="#FEF26F"/>
<path d="M44.8442 7.80419L63.374 5.22522L61.8233 9.67438L44.2676 12.4617L44.3418 9.2815L44.8442 7.80419Z" fill="#91C9ED"/>
<path d="M61.8246 9.6731L64.392 27.771L46.1206 30.3421L43.6526 12.8454L44.7196 12.0105L61.8246 9.6731Z" fill="url(#paint1_linear_3894_1668)"/>
<path d="M63.3755 5.22394L63.3901 5.33278L65.7931 23.8648L64.3921 27.7711L61.8247 9.6731" fill="#0B9AD6"/>
<path d="M29.1931 6.26054L45.5983 13.6723L38.1956 30.5L21.7917 23.0883L29.1931 6.25922" fill="url(#paint2_linear_3894_1668)"/>
<path d="M27.49 0.5L29.1932 6.26055L45.5984 13.6736L44.2199 8.16923L27.49 0.5Z" fill="#98D0A0"/>
<path d="M27.4898 0.5L20.8877 16.1929L21.7917 23.0896L29.1943 6.26055L27.4898 0.5Z" fill="#68BF6B"/>
<path d="M18.3377 9.64789L21.0416 27.4565L2.91203 30.3023L0 12.4605L18.3377 9.64789Z" fill="url(#paint3_linear_3894_1668)"/>
<path d="M0 12.4591L1.27376 6.10127L19.5797 3.1626L18.339 9.64786L0 12.4591Z" fill="#EF463D"/>
<path d="M19.5783 3.1626L22.2623 21.1424L21.0416 27.4551L18.3376 9.64654L19.5783 3.1626Z" fill="#761116"/>
<path d="M58.7164 13.1413C58.6342 12.5799 58.442 12.1498 58.1318 11.8698C57.8853 11.6454 57.5738 11.5326 57.2199 11.5326C57.1298 11.5326 57.037 11.5393 56.9403 11.5539C56.4657 11.6216 56.1026 11.8419 55.8799 12.2056C55.7182 12.4684 55.64 12.7843 55.64 13.1493C55.64 13.2887 55.6519 13.436 55.6744 13.59L56.3412 18.2993L51.087 19.0731L50.4203 14.3638C50.3395 13.8169 50.1513 13.3922 49.8438 13.1028C49.5959 12.8692 49.2884 12.7498 48.9398 12.7498C48.8576 12.7498 48.7728 12.7564 48.6866 12.7697C48.1922 12.8414 47.8158 13.0564 47.5865 13.4148C47.4208 13.6723 47.34 13.9908 47.34 14.3611C47.34 14.5032 47.3519 14.6531 47.3744 14.8111L49.1718 27.0582C49.2539 27.621 49.4514 28.0497 49.7748 28.3258C50.0267 28.5422 50.3435 28.651 50.7053 28.6497C50.8047 28.6497 50.9068 28.6417 51.0128 28.6258C51.4648 28.5608 51.8147 28.3418 52.0255 27.9781C52.1766 27.7206 52.2495 27.41 52.2495 27.0556C52.2495 26.9136 52.2375 26.7649 52.215 26.6096L51.4807 21.7715L56.7335 20.9977L57.4691 25.8358C57.55 26.3919 57.7448 26.8167 58.0629 27.0967C58.3161 27.3197 58.6289 27.4325 58.9841 27.4312C59.0756 27.4312 59.1684 27.4246 59.2651 27.41C59.7383 27.341 60.1002 27.1246 60.3162 26.7636C60.4713 26.5061 60.5468 26.1955 60.5468 25.8358C60.5468 25.6938 60.5349 25.5438 60.5124 25.3871L58.7164 13.1413ZM37.35 19.9159C36.7323 21.3733 35.9159 22.3741 34.9059 22.929C34.3651 23.2263 33.8097 23.3723 33.2371 23.3723C32.7387 23.3723 32.2245 23.2608 31.6943 23.0365C30.5464 22.5467 29.8307 21.7583 29.5219 20.6473C29.4185 20.2743 29.3668 19.8828 29.3668 19.4713C29.3668 18.6563 29.5709 17.7617 29.9831 16.7875C30.6154 15.2956 31.4398 14.2762 32.4511 13.7187C32.9906 13.4214 33.5459 13.2727 34.1212 13.2727C34.6249 13.2727 35.1458 13.3856 35.6852 13.6152C36.8265 14.101 37.5342 14.8907 37.8378 16.007C37.9372 16.372 37.9862 16.7556 37.9862 17.1604C37.9849 17.9927 37.7755 18.9112 37.35 19.9159ZM39.1473 12.5852C38.5032 11.9043 37.7198 11.3694 36.8013 10.9791C35.8894 10.5916 34.9682 10.3978 34.0403 10.3978H33.9979C33.0555 10.4044 32.1237 10.6141 31.2052 11.0269C30.2442 11.4463 29.4052 12.033 28.6948 12.7856C27.9843 13.5382 27.4051 14.4434 26.9584 15.4986C26.517 16.5406 26.2732 17.5839 26.2268 18.6271C26.2215 18.7453 26.2188 18.8634 26.2188 18.9802C26.2188 19.9 26.3765 20.8026 26.6907 21.6839C27.0247 22.6144 27.5178 23.4187 28.1672 24.0983C28.8167 24.7766 29.616 25.3168 30.561 25.7176C31.465 26.1026 32.3835 26.295 33.3127 26.2937H33.3365C34.2749 26.2897 35.2041 26.088 36.124 25.6924H36.1253C37.0929 25.2597 37.9359 24.6664 38.6556 23.9138C39.3753 23.1612 39.9559 22.2587 40.3999 21.2101C40.8439 20.1615 41.0865 19.1182 41.1262 18.0789C41.1302 17.9794 41.1315 17.8785 41.1315 17.779C41.1315 16.8459 40.9672 15.93 40.6371 15.0354C40.2885 14.0824 39.7915 13.2661 39.1473 12.5852ZM16.3906 24.62C16.2474 24.4487 16.0552 24.3226 15.8206 24.2403C15.5794 24.1567 15.2878 24.1156 14.9445 24.1156C14.6211 24.1156 14.2513 24.1514 13.8351 24.2231L9.05017 25.042C9.10054 24.673 9.28346 24.1873 9.60687 23.5966C9.96739 22.9343 10.4989 22.1379 11.2014 21.2114C11.4426 20.8889 11.6269 20.642 11.7541 20.4721C11.8456 20.3593 11.9728 20.192 12.1372 19.9717C13.232 18.5342 13.9093 17.3622 14.1691 16.4437C14.3175 15.9221 14.4077 15.3978 14.4408 14.8682C14.4501 14.7235 14.4541 14.5801 14.4541 14.4368C14.4541 14.0585 14.4236 13.6842 14.36 13.3179C14.303 12.9834 14.2208 12.7046 14.1108 12.4817C14.0008 12.2587 13.8603 12.0888 13.6879 11.9826C13.4931 11.8645 13.2187 11.814 12.8609 11.8127C12.5653 11.8127 12.2101 11.8485 11.7939 11.9202L6.26406 12.8679C5.59471 12.9834 5.10031 13.1798 4.78485 13.4771C4.53434 13.7121 4.40445 14.0174 4.40577 14.3678C4.40577 14.4594 4.41372 14.5536 4.43096 14.6518C4.50916 15.1217 4.75304 15.4668 5.14803 15.6433C5.38131 15.7482 5.66231 15.7986 5.99102 15.7986C6.21502 15.7986 6.46023 15.7747 6.7293 15.7296L11.3578 14.9478C11.3657 15.0301 11.3711 15.1111 11.3711 15.192C11.3711 15.4814 11.3207 15.7641 11.2213 16.0428C11.0834 16.4264 10.7401 16.9746 10.194 17.6715C10.039 17.8613 9.80171 18.1586 9.48227 18.5608C8.23369 20.0752 7.34033 21.3654 6.79955 22.4392C6.79955 22.4392 6.79955 22.4392 6.79955 22.4405C6.41516 23.1798 6.14875 23.9072 6.00295 24.6239C5.91812 25.042 5.87438 25.4429 5.87438 25.8278C5.87438 26.1039 5.89691 26.3707 5.94065 26.6282C6.00428 26.9985 6.09573 27.3051 6.219 27.5467C6.34227 27.7883 6.49867 27.9688 6.69351 28.075C6.87377 28.1732 7.13886 28.2117 7.50469 28.213C7.9686 28.213 8.59157 28.144 9.38154 28.0099L14.3997 27.1511C15.2878 26.9985 15.9068 26.7861 16.266 26.4901C16.5536 26.2539 16.702 25.93 16.7007 25.5478C16.7007 25.4509 16.6914 25.3513 16.6742 25.2478C16.6252 25.0036 16.5324 24.7912 16.3906 24.62ZM77.3165 24.0651C76.5941 24.9385 75.6226 25.3725 74.3687 25.3739C73.1055 25.3725 72.13 24.9398 71.4036 24.0718C70.6799 23.2024 70.3141 22.0065 70.3128 20.4708C70.3128 18.9072 70.6786 17.6927 71.3983 16.8167C72.1194 15.9406 73.0989 15.5053 74.3687 15.504C75.6239 15.5053 76.5955 15.9406 77.3165 16.8167C78.0362 17.6927 78.4021 18.9072 78.4021 20.4708C78.4021 21.9985 78.0376 23.1931 77.3165 24.0651ZM81.1882 17.4086C80.8157 16.4702 80.263 15.63 79.534 14.8881C78.8355 14.1753 78.0508 13.6364 77.184 13.2754C76.3158 12.9144 75.3774 12.7338 74.37 12.7338C73.356 12.7338 72.4083 12.9144 71.5335 13.2754C70.6587 13.6364 69.8741 14.1753 69.1822 14.8894C68.4532 15.6234 67.9044 16.4623 67.5386 17.3994C67.1741 18.3364 66.9912 19.3598 66.9912 20.4668C66.9912 21.5605 67.1741 22.5799 67.5452 23.5249C67.9137 24.47 68.4598 25.3181 69.1822 26.0667C69.8595 26.7676 70.6362 27.2972 71.5057 27.6542C72.3765 28.0113 73.3322 28.1904 74.3687 28.1904C75.3681 28.1904 76.3052 28.0113 77.176 27.6542C78.0468 27.2972 78.8342 26.7676 79.5327 26.0667C80.263 25.3168 80.8144 24.4713 81.1882 23.5289C81.5606 22.5878 81.7475 21.5658 81.7475 20.4655C81.7475 19.3651 81.5606 18.3471 81.1882 17.4086Z" fill="white"/>
</g>
<defs>
<linearGradient id="paint0_linear_3894_1668" x1="74.6449" y1="10.4204" x2="74.6449" y2="29.722" gradientUnits="userSpaceOnUse">
<stop stop-color="#FFE500"/>
<stop offset="1" stop-color="#FCB822"/>
</linearGradient>
<linearGradient id="paint1_linear_3894_1668" x1="44.5963" y1="12.4641" x2="63.5155" y2="27.6365" gradientUnits="userSpaceOnUse">
<stop stop-color="#168CCC"/>
<stop offset="1" stop-color="#00649E"/>
</linearGradient>
<linearGradient id="paint2_linear_3894_1668" x1="21.7911" y1="18.38" x2="45.5985" y2="18.38" gradientUnits="userSpaceOnUse">
<stop stop-color="#25A149"/>
<stop offset="1" stop-color="#008A52"/>
</linearGradient>
<linearGradient id="paint3_linear_3894_1668" x1="9.18837" y1="11.3333" x2="12.1005" y2="28.8895" gradientUnits="userSpaceOnUse">
<stop stop-color="#D92231"/>
<stop offset="1" stop-color="#BA2234"/>
</linearGradient>
<clipPath id="clip0_3894_1668">
<rect width="87" height="30" fill="white" transform="translate(0 0.5)"/>
</clipPath>
</defs>
</svg>
