<svg width="448" height="254" viewBox="0 0 448 254" fill="none" xmlns="http://www.w3.org/2000/svg">
<path d="M307.495 16.4962V188.5H6.5V16.4962C6.5 12.5941 9.59981 9.5 13.5052 9.5H300.495C304.315 9.5 307.358 12.4541 307.495 16.23V16.4962Z" fill="#AAAAAA" stroke="#333333"/>
<path d="M12.5 182.5V15.5H301.5V182.5H12.5Z" fill="white" stroke="#333333"/>
<rect x="13" y="16" width="288" height="28" fill="#041E42"/>
<g clip-path="url(#clip0_16_16896)">
<path d="M26 26.2336V26.87H35V26.2336H26ZM26 29.4155V30.0518H35V29.4155H26ZM26 32.5973V33.2336H35V32.5973H26Z" fill="#CDD2D9"/>
</g>
<path d="M47.4561 32.7336H43.8789V26.3088H47.4561V26.968H44.626V29.0466H47.2935V29.697H44.626V32.0745H47.4561V32.7336ZM49.3195 27.9172V32.7336H48.59V27.9172H49.3195ZM48.9636 26.1155C49.0837 26.1155 49.1862 26.155 49.2712 26.2341C49.3591 26.3103 49.403 26.4304 49.403 26.5945C49.403 26.7556 49.3591 26.8757 49.2712 26.9548C49.1862 27.0339 49.0837 27.0735 48.9636 27.0735C48.8376 27.0735 48.7321 27.0339 48.6471 26.9548C48.5651 26.8757 48.5241 26.7556 48.5241 26.5945C48.5241 26.4304 48.5651 26.3103 48.6471 26.2341C48.7321 26.155 48.8376 26.1155 48.9636 26.1155ZM52.9671 27.8293C53.5384 27.8293 53.9706 27.97 54.2635 28.2512C54.5565 28.5295 54.703 28.9778 54.703 29.5959V32.7336H53.9823V29.6443C53.9823 29.2429 53.89 28.9426 53.7054 28.7434C53.5238 28.5442 53.244 28.4446 52.8661 28.4446C52.3329 28.4446 51.9579 28.5955 51.7411 28.8972C51.5243 29.199 51.4159 29.637 51.4159 30.2112V32.7336H50.6864V27.9172H51.2753L51.3851 28.6116H51.4247C51.5272 28.4417 51.6576 28.2996 51.8158 28.1853C51.974 28.0681 52.1512 27.9802 52.3475 27.9216C52.5438 27.8601 52.7504 27.8293 52.9671 27.8293ZM59.1416 31.4153C59.1416 31.7229 59.064 31.9822 58.9087 32.1931C58.7564 32.4011 58.5367 32.5579 58.2496 32.6633C57.9654 32.7688 57.6255 32.8215 57.23 32.8215C56.8931 32.8215 56.6016 32.7952 56.3555 32.7424C56.1094 32.6897 55.8941 32.615 55.7095 32.5183V31.8459C55.9058 31.9426 56.1402 32.0305 56.4126 32.1096C56.6851 32.1887 56.9634 32.2283 57.2476 32.2283C57.6636 32.2283 57.9654 32.1609 58.1529 32.0261C58.3404 31.8914 58.4341 31.7083 58.4341 31.4768C58.4341 31.345 58.396 31.2292 58.3199 31.1296C58.2466 31.0271 58.1221 30.929 57.9463 30.8352C57.7705 30.7385 57.5274 30.6331 57.2168 30.5188C56.9092 30.4016 56.6426 30.2859 56.417 30.1716C56.1944 30.0544 56.0215 29.9124 55.8985 29.7454C55.7784 29.5784 55.7183 29.3616 55.7183 29.095C55.7183 28.6877 55.8824 28.3757 56.2105 28.1589C56.5415 27.9392 56.9751 27.8293 57.5113 27.8293C57.8013 27.8293 58.0723 27.8586 58.3243 27.9172C58.5791 27.9729 58.8164 28.0491 59.0362 28.1458L58.7901 28.7302C58.5909 28.6453 58.3785 28.5735 58.1529 28.5149C57.9273 28.4563 57.6973 28.427 57.4629 28.427C57.126 28.427 56.8667 28.4827 56.6851 28.594C56.5064 28.7053 56.417 28.8577 56.417 29.051C56.417 29.2004 56.458 29.3235 56.5401 29.4202C56.625 29.5168 56.7598 29.6077 56.9444 29.6926C57.1289 29.7776 57.3721 29.8772 57.6739 29.9915C57.9756 30.1028 58.2364 30.2185 58.4561 30.3386C58.6758 30.4558 58.8443 30.5994 58.9615 30.7693C59.0816 30.9363 59.1416 31.1516 59.1416 31.4153ZM61.6906 32.2239C61.8108 32.2239 61.9338 32.2136 62.0598 32.1931C62.1858 32.1726 62.2883 32.1477 62.3674 32.1184V32.6853C62.2824 32.7234 62.1638 32.7556 62.0114 32.782C61.862 32.8083 61.7155 32.8215 61.572 32.8215C61.3171 32.8215 61.0857 32.7776 60.8777 32.6897C60.6696 32.5989 60.5027 32.4465 60.3767 32.2327C60.2536 32.0188 60.1921 31.7229 60.1921 31.345V28.4885H59.5066V28.1326L60.1965 27.8469L60.4865 26.801H60.926V27.9172H62.3366V28.4885H60.926V31.323C60.926 31.6248 60.9948 31.8503 61.1325 31.9998C61.2732 32.1492 61.4592 32.2239 61.6906 32.2239ZM65.0175 27.8293C65.4276 27.8293 65.7792 27.9202 66.0722 28.1018C66.3651 28.2834 66.5893 28.5383 66.7445 28.8665C66.8998 29.1917 66.9774 29.5725 66.9774 30.009V30.4617H63.6508C63.6596 31.0271 63.8002 31.4578 64.0727 31.7537C64.3451 32.0496 64.7289 32.1975 65.224 32.1975C65.5287 32.1975 65.7982 32.1697 66.0326 32.114C66.267 32.0583 66.5102 31.9763 66.7621 31.8679V32.5095C66.5189 32.6179 66.2772 32.697 66.037 32.7468C65.7997 32.7966 65.5185 32.8215 65.1933 32.8215C64.7304 32.8215 64.3261 32.7278 63.9804 32.5403C63.6376 32.3499 63.371 32.0715 63.1806 31.7053C62.9901 31.3391 62.8949 30.8909 62.8949 30.3606C62.8949 29.842 62.9813 29.3938 63.1542 29.0159C63.33 28.635 63.5761 28.342 63.8925 28.137C64.2118 27.9319 64.5868 27.8293 65.0175 27.8293ZM65.0087 28.427C64.619 28.427 64.3085 28.5544 64.0771 28.8093C63.8456 29.0642 63.7079 29.4202 63.664 29.8772H66.2128C66.2099 29.5901 66.1645 29.3381 66.0766 29.1213C65.9916 28.9016 65.8612 28.7317 65.6854 28.6116C65.5097 28.4885 65.2841 28.427 65.0087 28.427ZM68.7706 32.7336H68.0367V25.8958H68.7706V32.7336ZM70.867 32.7336H70.1331V25.8958H70.867V32.7336ZM76.2065 27.9172V32.7336H75.6088L75.5034 32.0569H75.4638C75.3642 32.2239 75.2353 32.3645 75.0771 32.4788C74.9189 32.593 74.7402 32.678 74.541 32.7336C74.3447 32.7922 74.1352 32.8215 73.9125 32.8215C73.5317 32.8215 73.2123 32.76 72.9545 32.637C72.6967 32.5139 72.5019 32.3235 72.3701 32.0657C72.2412 31.8079 72.1767 31.4768 72.1767 31.0725V27.9172H72.915V31.0198C72.915 31.4211 73.0058 31.7214 73.1874 31.9207C73.3691 32.1169 73.6459 32.2151 74.018 32.2151C74.3754 32.2151 74.6596 32.1477 74.8705 32.0129C75.0844 31.8782 75.2382 31.6804 75.332 31.4197C75.4257 31.156 75.4726 30.8337 75.4726 30.4529V27.9172H76.2065ZM79.8497 27.8293C80.421 27.8293 80.8531 27.97 81.1461 28.2512C81.4391 28.5295 81.5856 28.9778 81.5856 29.5959V32.7336H80.8649V29.6443C80.8649 29.2429 80.7726 28.9426 80.588 28.7434C80.4064 28.5442 80.1266 28.4446 79.7487 28.4446C79.2155 28.4446 78.8405 28.5955 78.6237 28.8972C78.4069 29.199 78.2985 29.637 78.2985 30.2112V32.7336H77.569V27.9172H78.1578L78.2677 28.6116H78.3072C78.4098 28.4417 78.5402 28.2996 78.6984 28.1853C78.8566 28.0681 79.0338 27.9802 79.2301 27.9216C79.4264 27.8601 79.6329 27.8293 79.8497 27.8293ZM84.2532 34.8958C83.6204 34.8958 83.1326 34.7771 82.7898 34.5398C82.4471 34.3054 82.2757 33.9758 82.2757 33.551C82.2757 33.2493 82.3709 32.9915 82.5613 32.7776C82.7547 32.5637 83.0213 32.4216 83.3611 32.3513C83.2352 32.2927 83.1268 32.2048 83.0359 32.0876C82.948 31.9705 82.9041 31.8357 82.9041 31.6833C82.9041 31.5076 82.9524 31.3538 83.0491 31.2219C83.1487 31.0872 83.2996 30.9583 83.5018 30.8352C83.2498 30.7327 83.0447 30.5598 82.8865 30.3167C82.7313 30.0706 82.6536 29.7849 82.6536 29.4597C82.6536 29.114 82.7254 28.8196 82.8689 28.5764C83.0125 28.3303 83.2205 28.1428 83.493 28.0139C83.7654 27.885 84.095 27.8206 84.4817 27.8206C84.5667 27.8206 84.6517 27.825 84.7366 27.8337C84.8245 27.8396 84.908 27.8499 84.9871 27.8645C85.0662 27.8762 85.1351 27.8909 85.1937 27.9084H86.846V28.3787L85.9583 28.4885C86.0462 28.6028 86.1194 28.7405 86.178 28.9016C86.2366 29.0627 86.2659 29.2415 86.2659 29.4377C86.2659 29.9182 86.1033 30.3005 85.7781 30.5847C85.4529 30.866 85.0062 31.0066 84.4378 31.0066C84.303 31.0066 84.1653 30.9949 84.0247 30.9714C83.8812 31.0505 83.7713 31.1384 83.6951 31.2351C83.6219 31.3318 83.5853 31.4431 83.5853 31.5691C83.5853 31.6628 83.6131 31.7375 83.6688 31.7932C83.7273 31.8489 83.8108 31.8899 83.9192 31.9163C84.0276 31.9397 84.158 31.9514 84.3104 31.9514H85.1585C85.6829 31.9514 86.0843 32.0613 86.3626 32.281C86.6438 32.5007 86.7845 32.8215 86.7845 33.2434C86.7845 33.7766 86.5677 34.1853 86.1341 34.4695C85.7005 34.7537 85.0735 34.8958 84.2532 34.8958ZM84.2752 34.3245C84.6736 34.3245 85.0032 34.2834 85.264 34.2014C85.5276 34.1223 85.7239 34.0066 85.8528 33.8542C85.9847 33.7048 86.0506 33.5261 86.0506 33.3181C86.0506 33.1248 86.0066 32.9783 85.9188 32.8787C85.8309 32.782 85.702 32.7175 85.532 32.6853C85.3621 32.6501 85.1541 32.6326 84.908 32.6326H84.073C83.8563 32.6326 83.6673 32.6663 83.5062 32.7336C83.345 32.801 83.2205 32.9006 83.1326 33.0325C83.0477 33.1643 83.0052 33.3284 83.0052 33.5247C83.0052 33.7854 83.115 33.9832 83.3348 34.1179C83.5545 34.2556 83.868 34.3245 84.2752 34.3245ZM84.4642 30.4749C84.8128 30.4749 85.075 30.387 85.2508 30.2112C85.4266 30.0354 85.5145 29.7791 85.5145 29.4421C85.5145 29.0818 85.4251 28.8123 85.2464 28.6335C85.0677 28.4519 84.804 28.3611 84.4554 28.3611C84.1214 28.3611 83.8636 28.4548 83.6819 28.6423C83.5032 28.8269 83.4139 29.0979 83.4139 29.4553C83.4139 29.7834 83.5047 30.0354 83.6863 30.2112C83.868 30.387 84.1272 30.4749 84.4642 30.4749ZM89.4697 27.8293C89.8799 27.8293 90.2314 27.9202 90.5244 28.1018C90.8174 28.2834 91.0415 28.5383 91.1968 28.8665C91.352 29.1917 91.4297 29.5725 91.4297 30.009V30.4617H88.103C88.1118 31.0271 88.2524 31.4578 88.5249 31.7537C88.7973 32.0496 89.1811 32.1975 89.6763 32.1975C89.9809 32.1975 90.2505 32.1697 90.4848 32.114C90.7192 32.0583 90.9624 31.9763 91.2143 31.8679V32.5095C90.9712 32.6179 90.7295 32.697 90.4892 32.7468C90.2519 32.7966 89.9707 32.8215 89.6455 32.8215C89.1826 32.8215 88.7783 32.7278 88.4326 32.5403C88.0898 32.3499 87.8232 32.0715 87.6328 31.7053C87.4424 31.3391 87.3471 30.8909 87.3471 30.3606C87.3471 29.842 87.4336 29.3938 87.6064 29.0159C87.7822 28.635 88.0283 28.342 88.3447 28.137C88.664 27.9319 89.039 27.8293 89.4697 27.8293ZM89.4609 28.427C89.0713 28.427 88.7607 28.5544 88.5293 28.8093C88.2978 29.0642 88.1601 29.4202 88.1162 29.8772H90.665C90.6621 29.5901 90.6167 29.3381 90.5288 29.1213C90.4438 28.9016 90.3135 28.7317 90.1377 28.6116C89.9619 28.4885 89.7363 28.427 89.4609 28.427ZM94.7697 27.8293C95.341 27.8293 95.7731 27.97 96.0661 28.2512C96.359 28.5295 96.5055 28.9778 96.5055 29.5959V32.7336H95.7848V29.6443C95.7848 29.2429 95.6925 28.9426 95.508 28.7434C95.3263 28.5442 95.0465 28.4446 94.6686 28.4446C94.1354 28.4446 93.7604 28.5955 93.5436 28.8972C93.3268 29.199 93.2184 29.637 93.2184 30.2112V32.7336H92.4889V27.9172H93.0778L93.1877 28.6116H93.2272C93.3297 28.4417 93.4601 28.2996 93.6183 28.1853C93.7765 28.0681 93.9538 27.9802 94.1501 27.9216C94.3463 27.8601 94.5529 27.8293 94.7697 27.8293Z" fill="#CDD2D9"/>
<path d="M37.2188 70.2734C37.2188 71.1432 37.112 71.9375 36.8984 72.6562C36.6849 73.375 36.3646 73.9948 35.9375 74.5156C35.5104 75.0365 34.9766 75.4401 34.3359 75.7266C33.7005 76.013 32.9583 76.1562 32.1094 76.1562C31.2552 76.1562 30.5078 76.013 29.8672 75.7266C29.2266 75.4401 28.6927 75.0365 28.2656 74.5156C27.8438 73.9896 27.526 73.3672 27.3125 72.6484C27.099 71.9245 26.9922 71.1276 26.9922 70.2578C26.9922 69.1016 27.1875 68.0833 27.5781 67.2031C27.974 66.3229 28.5547 65.6354 29.3203 65.1406C30.0911 64.6458 31.0417 64.3984 32.1719 64.3984C33.2552 64.3984 34.1719 64.6354 34.9219 65.1094C35.6771 65.5781 36.2474 66.2526 36.6328 67.1328C37.0234 68.0078 37.2188 69.0547 37.2188 70.2734ZM27.8359 70.2656C27.8359 71.2865 27.9896 72.1875 28.2969 72.9688C28.6042 73.7448 29.0755 74.3516 29.7109 74.7891C30.3464 75.2266 31.1484 75.4453 32.1172 75.4453C33.0964 75.4453 33.901 75.2292 34.5312 74.7969C35.1615 74.3646 35.6276 73.7604 35.9297 72.9844C36.2318 72.2083 36.3828 71.3047 36.3828 70.2734C36.3828 68.6432 36.026 67.3776 35.3125 66.4766C34.6042 65.5755 33.5573 65.125 32.1719 65.125C31.1979 65.125 30.388 65.3411 29.7422 65.7734C29.1016 66.2057 28.6224 66.8073 28.3047 67.5781C27.9922 68.349 27.8359 69.2448 27.8359 70.2656ZM48.4762 76H47.6559L40.9059 65.8984H40.8669C40.8773 66.1797 40.8851 66.4661 40.8903 66.7578C40.9007 67.0443 40.9085 67.3411 40.9137 67.6484C40.9242 67.9505 40.9294 68.263 40.9294 68.5859V76H40.1637V64.5781H40.9919L47.7184 74.6484H47.7575C47.7523 74.4193 47.7445 74.1536 47.7341 73.8516C47.7289 73.5495 47.721 73.2396 47.7106 72.9219C47.7054 72.6042 47.7028 72.3047 47.7028 72.0234V64.5781H48.4762V76ZM52.0306 76V64.5781H52.8353V75.2656H58.2728V76H52.0306ZM63.1709 70.8125L66.5069 64.5781H67.3897L63.585 71.5859V76H62.7803V71.6484L58.9444 64.5781H59.835L63.1709 70.8125ZM78.9362 70.2734C78.9362 71.1432 78.8295 71.9375 78.6159 72.6562C78.4024 73.375 78.0821 73.9948 77.655 74.5156C77.2279 75.0365 76.6941 75.4401 76.0534 75.7266C75.418 76.013 74.6758 76.1562 73.8269 76.1562C72.9727 76.1562 72.2253 76.013 71.5847 75.7266C70.9441 75.4401 70.4102 75.0365 69.9831 74.5156C69.5612 73.9896 69.2435 73.3672 69.03 72.6484C68.8165 71.9245 68.7097 71.1276 68.7097 70.2578C68.7097 69.1016 68.905 68.0833 69.2956 67.2031C69.6915 66.3229 70.2722 65.6354 71.0378 65.1406C71.8086 64.6458 72.7592 64.3984 73.8894 64.3984C74.9727 64.3984 75.8894 64.6354 76.6394 65.1094C77.3946 65.5781 77.9649 66.2526 78.3503 67.1328C78.7409 68.0078 78.9362 69.0547 78.9362 70.2734ZM69.5534 70.2656C69.5534 71.2865 69.7071 72.1875 70.0144 72.9688C70.3217 73.7448 70.793 74.3516 71.4284 74.7891C72.0639 75.2266 72.8659 75.4453 73.8347 75.4453C74.8139 75.4453 75.6185 75.2292 76.2487 74.7969C76.879 74.3646 77.3451 73.7604 77.6472 72.9844C77.9493 72.2083 78.1003 71.3047 78.1003 70.2734C78.1003 68.6432 77.7435 67.3776 77.03 66.4766C76.3217 65.5755 75.2748 65.125 73.8894 65.125C72.9154 65.125 72.1055 65.3411 71.4597 65.7734C70.8191 66.2057 70.3399 66.8073 70.0222 67.5781C69.7097 68.349 69.5534 69.2448 69.5534 70.2656ZM82.6859 76H81.8812V64.5781H88.1312V65.3047H82.6859V70.1719H87.8344V70.8906H82.6859V76ZM91.0528 76H90.2481V64.5781H96.4981V65.3047H91.0528V70.1719H96.2012V70.8906H91.0528V76ZM98.615 76V64.5781H99.4197V76H98.615ZM107.818 65.1406C107.089 65.1406 106.438 65.2656 105.865 65.5156C105.292 65.7604 104.807 66.1094 104.412 66.5625C104.016 67.0156 103.714 67.5573 103.505 68.1875C103.297 68.8125 103.193 69.5026 103.193 70.2578C103.193 71.2995 103.357 72.2109 103.685 72.9922C104.013 73.7682 104.505 74.3698 105.162 74.7969C105.823 75.224 106.646 75.4375 107.63 75.4375C108.203 75.4375 108.724 75.3958 109.193 75.3125C109.662 75.224 110.096 75.112 110.497 74.9766V75.6797C110.117 75.8203 109.688 75.9349 109.208 76.0234C108.734 76.112 108.182 76.1562 107.552 76.1562C106.412 76.1562 105.453 75.9115 104.677 75.4219C103.906 74.9323 103.326 74.2448 102.935 73.3594C102.544 72.474 102.349 71.4401 102.349 70.2578C102.349 69.4089 102.471 68.6302 102.716 67.9219C102.961 67.2083 103.318 66.5911 103.787 66.0703C104.261 65.5443 104.836 65.138 105.513 64.8516C106.19 64.5599 106.961 64.4141 107.826 64.4141C108.372 64.4141 108.893 64.4688 109.388 64.5781C109.888 64.6823 110.357 64.8359 110.794 65.0391L110.482 65.7422C110.06 65.5339 109.628 65.3828 109.185 65.2891C108.742 65.1901 108.287 65.1406 107.818 65.1406ZM119.466 76H113.224V64.5781H119.466V65.3047H114.028V69.6328H119.161V70.3594H114.028V75.2734H119.466V76Z" fill="#403333"/>
<rect x="26.5" y="87.5" width="195" height="34" rx="1.5" fill="white" stroke="#E2E2E2"/>
<path d="M36.5213 107.227L36.6545 105.166L34.9286 106.322L34.2148 105.065L36.0739 104.159L34.2148 103.253L34.9286 101.996L36.6545 103.152L36.5213 101.091H37.9542L37.8157 103.152L39.5415 101.996L40.2553 103.253L38.4016 104.159L40.2553 105.065L39.5415 106.322L37.8157 105.166L37.9542 107.227H36.5213Z" fill="#192435"/>
<path d="M44.9881 107.227L45.1213 105.166L43.3954 106.322L42.6816 105.065L44.5407 104.159L42.6816 103.253L43.3954 101.996L45.1213 103.152L44.9881 101.091H46.421L46.2825 103.152L48.0083 101.996L48.7221 103.253L46.8684 104.159L48.7221 105.065L48.0083 106.322L46.2825 105.166L46.421 107.227H44.9881Z" fill="#192435"/>
<path d="M53.4549 107.227L53.5881 105.166L51.8622 106.322L51.1484 105.065L53.0075 104.159L51.1484 103.253L51.8622 101.996L53.5881 103.152L53.4549 101.091H54.8878L54.7493 103.152L56.4751 101.996L57.1889 103.253L55.3352 104.159L57.1889 105.065L56.4751 106.322L54.7493 105.166L54.8878 107.227H53.4549Z" fill="#192435"/>
<path d="M61.9217 107.227L62.0549 105.166L60.329 106.322L59.6152 105.065L61.4743 104.159L59.6152 103.253L60.329 101.996L62.0549 103.152L61.9217 101.091H63.3546L63.2161 103.152L64.9419 101.996L65.6557 103.253L63.802 104.159L65.6557 105.065L64.9419 106.322L63.2161 105.166L63.3546 107.227H61.9217Z" fill="#192435"/>
<path d="M70.3885 107.227L70.5217 105.166L68.7958 106.322L68.082 105.065L69.9411 104.159L68.082 103.253L68.7958 101.996L70.5217 103.152L70.3885 101.091H71.8214L71.6829 103.152L73.4087 101.996L74.1225 103.253L72.2688 104.159L74.1225 105.065L73.4087 106.322L71.6829 105.166L71.8214 107.227H70.3885Z" fill="#192435"/>
<path d="M78.8553 107.227L78.9885 105.166L77.2626 106.322L76.5488 105.065L78.4078 104.159L76.5488 103.253L77.2626 101.996L78.9885 103.152L78.8553 101.091H80.2882L80.1497 103.152L81.8755 101.996L82.5893 103.253L80.7356 104.159L82.5893 105.065L81.8755 106.322L80.1497 105.166L80.2882 107.227H78.8553Z" fill="#192435"/>
<path d="M87.3221 107.227L87.4553 105.166L85.7294 106.322L85.0156 105.065L86.8746 104.159L85.0156 103.253L85.7294 101.996L87.4553 103.152L87.3221 101.091H88.755L88.6165 103.152L90.3423 101.996L91.0561 103.253L89.2024 104.159L91.0561 105.065L90.3423 106.322L88.6165 105.166L88.755 107.227H87.3221Z" fill="#192435"/>
<path d="M95.7889 107.227L95.9221 105.166L94.1962 106.322L93.4824 105.065L95.3414 104.159L93.4824 103.253L94.1962 101.996L95.9221 103.152L95.7889 101.091H97.2218L97.0833 103.152L98.8091 101.996L99.5229 103.253L97.6692 104.159L99.5229 105.065L98.8091 106.322L97.0833 105.166L97.2218 107.227H95.7889Z" fill="#192435"/>
<path d="M104.256 107.227L104.389 105.166L102.663 106.322L101.949 105.065L103.808 104.159L101.949 103.253L102.663 101.996L104.389 103.152L104.256 101.091H105.689L105.55 103.152L107.276 101.996L107.99 103.253L106.136 104.159L107.99 105.065L107.276 106.322L105.55 105.166L105.689 107.227H104.256Z" fill="#192435"/>
<path d="M112.722 107.227L112.856 105.166L111.13 106.322L110.416 105.065L112.275 104.159L110.416 103.253L111.13 101.996L112.856 103.152L112.722 101.091H114.155L114.017 103.152L115.743 101.996L116.456 103.253L114.603 104.159L116.456 105.065L115.743 106.322L114.017 105.166L114.155 107.227H112.722Z" fill="#192435"/>
<path d="M121.189 107.227L121.322 105.166L119.597 106.322L118.883 105.065L120.742 104.159L118.883 103.253L119.597 101.996L121.322 103.152L121.189 101.091H122.622L122.484 103.152L124.21 101.996L124.923 103.253L123.07 104.159L124.923 105.065L124.21 106.322L122.484 105.166L122.622 107.227H121.189Z" fill="#192435"/>
<path d="M129.656 107.227L129.789 105.166L128.063 106.322L127.35 105.065L129.209 104.159L127.35 103.253L128.063 101.996L129.789 103.152L129.656 101.091H131.089L130.95 103.152L132.676 101.996L133.39 103.253L131.536 104.159L133.39 105.065L132.676 106.322L130.95 105.166L131.089 107.227H129.656Z" fill="#192435"/>
<path d="M138.123 107.227L138.256 105.166L136.53 106.322L135.816 105.065L137.675 104.159L135.816 103.253L136.53 101.996L138.256 103.152L138.123 101.091H139.556L139.417 103.152L141.143 101.996L141.857 103.253L140.003 104.159L141.857 105.065L141.143 106.322L139.417 105.166L139.556 107.227H138.123Z" fill="#192435"/>
<path d="M146.59 107.227L146.723 105.166L144.997 106.322L144.283 105.065L146.142 104.159L144.283 103.253L144.997 101.996L146.723 103.152L146.59 101.091H148.023L147.884 103.152L149.61 101.996L150.324 103.253L148.47 104.159L150.324 105.065L149.61 106.322L147.884 105.166L148.023 107.227H146.59Z" fill="#192435"/>
<path d="M155.056 107.227L155.19 105.166L153.464 106.322L152.75 105.065L154.609 104.159L152.75 103.253L153.464 101.996L155.19 103.152L155.056 101.091H156.489L156.351 103.152L158.077 101.996L158.79 103.253L156.937 104.159L158.79 105.065L158.077 106.322L156.351 105.166L156.489 107.227H155.056Z" fill="#192435"/>
<path d="M163.523 107.227L163.656 105.166L161.931 106.322L161.217 105.065L163.076 104.159L161.217 103.253L161.931 101.996L163.656 103.152L163.523 101.091H164.956L164.818 103.152L166.544 101.996L167.257 103.253L165.404 104.159L167.257 105.065L166.544 106.322L164.818 105.166L164.956 107.227H163.523Z" fill="#192435"/>
<path d="M171.99 107.227L172.123 105.166L170.397 106.322L169.684 105.065L171.543 104.159L169.684 103.253L170.397 101.996L172.123 103.152L171.99 101.091H173.423L173.284 103.152L175.01 101.996L175.724 103.253L173.87 104.159L175.724 105.065L175.01 106.322L173.284 105.166L173.423 107.227H171.99Z" fill="#192435"/>
<path d="M180.457 107.227L180.59 105.166L178.864 106.322L178.15 105.065L180.009 104.159L178.15 103.253L178.864 101.996L180.59 103.152L180.457 101.091H181.89L181.751 103.152L183.477 101.996L184.191 103.253L182.337 104.159L184.191 105.065L183.477 106.322L181.751 105.166L181.89 107.227H180.457Z" fill="#192435"/>
<path d="M188.924 107.227L189.057 105.166L187.331 106.322L186.617 105.065L188.476 104.159L186.617 103.253L187.331 101.996L189.057 103.152L188.924 101.091H190.357L190.218 103.152L191.944 101.996L192.658 103.253L190.804 104.159L192.658 105.065L191.944 106.322L190.218 105.166L190.357 107.227H188.924Z" fill="#192435"/>
<rect x="26.5" y="137.5" width="84" height="31" rx="1.5" stroke="#E0E0E0"/>
<path d="M42.646 155.423C42.646 155.973 42.5127 156.451 42.2461 156.857C41.9795 157.264 41.5902 157.577 41.0781 157.797C40.5703 158.017 39.9525 158.127 39.2246 158.127C38.903 158.127 38.5877 158.106 38.2788 158.063C37.9741 158.021 37.68 157.96 37.3965 157.879C37.1172 157.795 36.8506 157.691 36.5967 157.568V155.74C37.0368 155.935 37.4938 156.111 37.9678 156.267C38.4417 156.424 38.9115 156.502 39.377 156.502C39.6986 156.502 39.9567 156.46 40.1514 156.375C40.3503 156.29 40.4941 156.174 40.583 156.026C40.6719 155.878 40.7163 155.708 40.7163 155.518C40.7163 155.285 40.638 155.086 40.4814 154.921C40.3249 154.756 40.109 154.602 39.834 154.458C39.5632 154.314 39.2563 154.16 38.9136 153.995C38.6978 153.893 38.4629 153.77 38.209 153.626C37.9551 153.478 37.7139 153.299 37.4854 153.087C37.2568 152.875 37.0685 152.619 36.9204 152.319C36.7765 152.014 36.7046 151.65 36.7046 151.227C36.7046 150.673 36.8315 150.199 37.0854 149.805C37.3394 149.412 37.7012 149.111 38.1709 148.904C38.6449 148.692 39.2035 148.586 39.8467 148.586C40.3291 148.586 40.7882 148.644 41.2241 148.758C41.6642 148.868 42.1234 149.029 42.6016 149.24L41.9668 150.77C41.5394 150.597 41.1564 150.463 40.8179 150.37C40.4793 150.273 40.1344 150.224 39.7832 150.224C39.5378 150.224 39.3283 150.264 39.1548 150.345C38.9813 150.421 38.8501 150.531 38.7612 150.675C38.6724 150.814 38.6279 150.977 38.6279 151.164C38.6279 151.384 38.6914 151.57 38.8184 151.722C38.9495 151.87 39.1442 152.014 39.4023 152.154C39.6647 152.293 39.9906 152.456 40.3799 152.643C40.8538 152.867 41.258 153.102 41.5923 153.347C41.9308 153.588 42.1911 153.874 42.373 154.204C42.555 154.53 42.646 154.936 42.646 155.423ZM48.124 150.77C48.9238 150.77 49.5692 151.081 50.0601 151.703C50.5552 152.325 50.8027 153.237 50.8027 154.439C50.8027 155.243 50.6864 155.92 50.4536 156.47C50.2209 157.016 49.8993 157.429 49.4888 157.708C49.0783 157.987 48.6064 158.127 48.0732 158.127C47.7305 158.127 47.4364 158.085 47.1909 158C46.9455 157.911 46.736 157.799 46.5625 157.664C46.389 157.524 46.2388 157.376 46.1118 157.219H46.0103C46.0441 157.389 46.0695 157.562 46.0864 157.74C46.1034 157.917 46.1118 158.091 46.1118 158.26V161.123H44.1758V150.903H45.75L46.0229 151.824H46.1118C46.2388 151.633 46.3932 151.458 46.5752 151.297C46.7572 151.136 46.9751 151.009 47.229 150.916C47.4871 150.819 47.7855 150.77 48.124 150.77ZM47.502 152.319C47.1634 152.319 46.8947 152.389 46.6958 152.528C46.4969 152.668 46.3509 152.877 46.2578 153.157C46.1689 153.436 46.1203 153.789 46.1118 154.217V154.426C46.1118 154.883 46.1541 155.271 46.2388 155.588C46.3276 155.905 46.4736 156.146 46.6768 156.312C46.8841 156.477 47.1676 156.559 47.5273 156.559C47.8236 156.559 48.0669 156.477 48.2573 156.312C48.4478 156.146 48.5895 155.905 48.6826 155.588C48.7799 155.266 48.8286 154.875 48.8286 154.414C48.8286 153.72 48.7207 153.197 48.5049 152.846C48.2891 152.494 47.9548 152.319 47.502 152.319ZM55.3286 150.77C55.9845 150.77 56.5495 150.897 57.0234 151.151C57.4974 151.401 57.8634 151.764 58.1216 152.243C58.3797 152.721 58.5088 153.305 58.5088 153.995V154.934H53.9321C53.9533 155.48 54.1162 155.91 54.4209 156.223C54.7298 156.532 55.1572 156.686 55.7031 156.686C56.1559 156.686 56.5706 156.639 56.9473 156.546C57.3239 156.453 57.7111 156.314 58.1089 156.127V157.625C57.7576 157.799 57.3895 157.926 57.0044 158.006C56.6235 158.087 56.1602 158.127 55.6143 158.127C54.9033 158.127 54.2728 157.996 53.7227 157.733C53.1768 157.471 52.7472 157.071 52.4341 156.534C52.1252 155.996 51.9707 155.319 51.9707 154.502C51.9707 153.673 52.1104 152.983 52.3896 152.433C52.6732 151.879 53.0667 151.464 53.5703 151.189C54.0739 150.91 54.66 150.77 55.3286 150.77ZM55.3413 152.147C54.9647 152.147 54.6515 152.268 54.4019 152.509C54.1564 152.75 54.0146 153.129 53.9766 153.646H56.6934C56.6891 153.358 56.6362 153.102 56.5347 152.877C56.4373 152.653 56.2892 152.475 56.0903 152.344C55.8957 152.213 55.646 152.147 55.3413 152.147ZM62.019 150.903V158H60.083V150.903H62.019ZM61.0542 148.123C61.342 148.123 61.5895 148.191 61.7969 148.326C62.0042 148.457 62.1079 148.705 62.1079 149.069C62.1079 149.429 62.0042 149.678 61.7969 149.818C61.5895 149.953 61.342 150.021 61.0542 150.021C60.7622 150.021 60.5125 149.953 60.3052 149.818C60.1021 149.678 60.0005 149.429 60.0005 149.069C60.0005 148.705 60.1021 148.457 60.3052 148.326C60.5125 148.191 60.7622 148.123 61.0542 148.123ZM66.9385 158.127C66.236 158.127 65.6372 158 65.1421 157.746C64.647 157.488 64.2703 157.09 64.0122 156.553C63.7541 156.015 63.625 155.328 63.625 154.49C63.625 153.622 63.771 152.916 64.063 152.37C64.3592 151.819 64.7676 151.415 65.2881 151.157C65.8128 150.899 66.4201 150.77 67.1099 150.77C67.6007 150.77 68.0239 150.819 68.3794 150.916C68.7391 151.009 69.0522 151.121 69.3188 151.252L68.7476 152.75C68.4429 152.628 68.1593 152.528 67.897 152.452C67.6346 152.372 67.3722 152.332 67.1099 152.332C66.7713 152.332 66.4899 152.412 66.2656 152.573C66.0413 152.729 65.8742 152.966 65.7642 153.284C65.6541 153.601 65.5991 153.999 65.5991 154.477C65.5991 154.947 65.6584 155.336 65.7769 155.645C65.8953 155.954 66.0667 156.185 66.291 156.337C66.5153 156.485 66.7882 156.559 67.1099 156.559C67.5119 156.559 67.8695 156.506 68.1826 156.4C68.4958 156.29 68.8005 156.138 69.0967 155.943V157.6C68.8005 157.786 68.4894 157.92 68.1636 158C67.842 158.085 67.4336 158.127 66.9385 158.127ZM72.6831 148.123V150.135C72.6831 150.486 72.6704 150.821 72.645 151.138C72.6239 151.456 72.6069 151.68 72.5942 151.811H72.6958C72.8481 151.566 73.028 151.367 73.2354 151.214C73.4469 151.062 73.6797 150.95 73.9336 150.878C74.1875 150.806 74.4604 150.77 74.7524 150.77C75.2645 150.77 75.7109 150.861 76.0918 151.043C76.4727 151.221 76.7689 151.502 76.9805 151.887C77.1921 152.268 77.2979 152.763 77.2979 153.373V158H75.3618V153.855C75.3618 153.347 75.2687 152.964 75.0825 152.706C74.8963 152.448 74.6086 152.319 74.2192 152.319C73.8299 152.319 73.5231 152.41 73.2988 152.592C73.0745 152.77 72.9159 153.034 72.8228 153.385C72.7297 153.732 72.6831 154.158 72.6831 154.661V158H70.7471V148.123H72.6831ZM82.2173 150.77C82.8732 150.77 83.4382 150.897 83.9121 151.151C84.3861 151.401 84.7521 151.764 85.0103 152.243C85.2684 152.721 85.3975 153.305 85.3975 153.995V154.934H80.8208C80.842 155.48 81.0049 155.91 81.3096 156.223C81.6185 156.532 82.0459 156.686 82.5918 156.686C83.0446 156.686 83.4593 156.639 83.8359 156.546C84.2126 156.453 84.5998 156.314 84.9976 156.127V157.625C84.6463 157.799 84.2782 157.926 83.8931 158.006C83.5122 158.087 83.0488 158.127 82.5029 158.127C81.792 158.127 81.1615 157.996 80.6113 157.733C80.0654 157.471 79.6359 157.071 79.3228 156.534C79.0138 155.996 78.8594 155.319 78.8594 154.502C78.8594 153.673 78.999 152.983 79.2783 152.433C79.5618 151.879 79.9554 151.464 80.459 151.189C80.9626 150.91 81.5487 150.77 82.2173 150.77ZM82.23 152.147C81.8534 152.147 81.5402 152.268 81.2905 152.509C81.0451 152.75 80.9033 153.129 80.8652 153.646H83.582C83.5778 153.358 83.5249 153.102 83.4233 152.877C83.326 152.653 83.1779 152.475 82.979 152.344C82.7843 152.213 82.5347 152.147 82.23 152.147ZM90.9326 150.77C91.0299 150.77 91.1421 150.776 91.269 150.789C91.4002 150.798 91.506 150.81 91.5864 150.827L91.4404 152.643C91.377 152.621 91.286 152.607 91.1675 152.598C91.0532 152.585 90.9538 152.579 90.8691 152.579C90.6195 152.579 90.3761 152.611 90.1392 152.674C89.9064 152.738 89.6969 152.841 89.5107 152.985C89.3245 153.125 89.1764 153.311 89.0664 153.544C88.9606 153.772 88.9077 154.054 88.9077 154.388V158H86.9717V150.903H88.438L88.7236 152.097H88.8188C88.9585 151.855 89.132 151.635 89.3394 151.437C89.5509 151.233 89.79 151.073 90.0566 150.954C90.3275 150.831 90.6195 150.77 90.9326 150.77ZM96.9058 150.77C97.6632 150.77 98.2726 150.977 98.7339 151.392C99.1951 151.803 99.4258 152.463 99.4258 153.373V158H97.4897V153.855C97.4897 153.347 97.3966 152.964 97.2104 152.706C97.0285 152.448 96.7407 152.319 96.3472 152.319C95.7547 152.319 95.3506 152.52 95.1348 152.922C94.9189 153.324 94.811 153.904 94.811 154.661V158H92.875V150.903H94.354L94.6143 151.811H94.7222C94.8745 151.566 95.0628 151.367 95.2871 151.214C95.5156 151.062 95.7674 150.95 96.0425 150.878C96.3218 150.806 96.6095 150.77 96.9058 150.77Z" fill="#333333"/>
<path d="M194 248.5H194.561L194.497 247.943L190.831 215.943L190.78 215.5H190.334H122.4H121.964L121.905 215.932L117.505 247.932L117.427 248.5H118H194Z" fill="#CCCCCC" stroke="#333333"/>
<path d="M6.5 208.442V188.5H307.5V208.442C307.5 212.382 304.396 215.5 300.495 215.5H13.5054C9.59909 215.5 6.5 212.383 6.5 208.442Z" fill="#E2E2E2" stroke="#333333"/>
<path d="M107.333 251.5L117.106 248.5H194.894L204.667 251.5H107.333Z" fill="#E2E2E2" stroke="#333333"/>
<path d="M207.281 252.5L206.909 253.5H104.986L104.677 252.5H207.281Z" fill="#AAAAAA" stroke="#333333"/>
<path d="M162.5 201.497C162.5 204.26 160.259 206.5 157.5 206.5C154.741 206.5 152.5 204.26 152.5 201.497C152.5 198.74 154.74 196.5 157.5 196.5C160.26 196.5 162.5 198.735 162.5 201.497Z" fill="#AAAAAA" stroke="#333333"/>
<path d="M372.5 253C414.197 253 448 250.761 448 248C448 245.239 414.197 243 372.5 243C330.803 243 297 245.239 297 248C297 250.761 330.803 253 372.5 253Z" fill="#EFEFEF"/>
<path fill-rule="evenodd" clip-rule="evenodd" d="M358.579 47.113C358.238 48.9467 357.59 51.5149 356.442 52.1438C355.664 52.5758 354.472 51.8894 352.652 48.8747C354.477 48.7835 356.427 48.2459 358.161 47.3386C358.301 47.2666 358.44 47.1898 358.579 47.113ZM350.034 48.6683C349.16 49.7148 348.377 50.4252 347.695 50.8909C346.681 51.5773 345.985 51.6829 345.595 51.5485C345.264 51.4285 345.096 50.8669 345.033 50.1612C344.918 48.9179 345.154 47.3674 345.341 46.5033C345.701 46.4553 346.076 46.4073 346.455 46.3689L346.647 46.6377C347.454 47.689 348.646 48.3515 350.034 48.6683Z" fill="#CCCCCC"/>
<path fill-rule="evenodd" clip-rule="evenodd" d="M346.506 46.2551L346.734 46.5734C347.522 47.5995 348.688 48.2505 350.057 48.563L350.229 48.6022L350.116 48.7375C349.237 49.7896 348.447 50.5075 347.755 50.9801C346.734 51.6718 345.999 51.8022 345.56 51.6506L345.558 51.6501C345.347 51.5735 345.207 51.3647 345.112 51.1124C345.016 50.8558 344.957 50.5281 344.925 50.1709C344.809 48.9113 345.047 47.3482 345.235 46.4804L345.251 46.4063L345.326 46.3962C345.687 46.3482 346.063 46.3 346.444 46.2614L346.506 46.2551ZM345.43 46.6003C345.247 47.4727 345.03 48.9588 345.141 50.1512C345.171 50.4996 345.228 50.806 345.314 51.0366C345.402 51.2711 345.511 51.403 345.631 51.4467C345.97 51.5635 346.628 51.4821 347.633 50.8016C348.276 50.3628 349.014 49.7004 349.838 48.7325C348.504 48.3968 347.353 47.7352 346.561 46.7035L346.559 46.7005L346.403 46.4827C346.073 46.5171 345.747 46.5584 345.43 46.6003ZM358.727 46.908L358.685 47.1327C358.514 48.0517 358.265 49.1591 357.914 50.1174C357.738 50.5965 357.536 51.0416 357.303 51.4082C357.07 51.7739 356.803 52.069 356.493 52.2385C356.05 52.4844 355.509 52.3939 354.87 51.8863C354.232 51.3797 353.471 50.4412 352.559 48.9305L352.465 48.7758L352.646 48.7668C354.455 48.6764 356.39 48.1433 358.111 47.2429C358.249 47.1716 358.387 47.0953 358.527 47.0184L358.727 46.908ZM358.43 47.3178C358.357 47.3574 358.284 47.3965 358.211 47.4344C356.52 48.3187 354.626 48.8548 352.837 48.9721C353.703 50.3852 354.418 51.2515 355.004 51.7172C355.61 52.1983 356.054 52.2351 356.389 52.0493C356.654 51.9044 356.898 51.6424 357.121 51.2923C357.342 50.9433 357.539 50.5137 357.711 50.043C358.029 49.1775 358.262 48.1833 358.43 47.3178Z" fill="#CCCCCC"/>
<path fill-rule="evenodd" clip-rule="evenodd" d="M358.647 23.639C358.685 21.8244 358.618 20.3075 358.469 19.045C358.282 17.5041 357.96 16.3184 357.537 15.4207C357.225 14.7582 356.754 14.1198 356.183 13.6061C355.64 13.1117 354.996 12.7181 354.304 12.5068C353.44 12.2428 352.599 12.2956 351.783 12.5452C351.019 12.7757 350.289 13.1789 349.573 13.6493C349.218 13.8798 348.91 14.1006 348.617 14.3118C347.402 15.1807 346.432 15.8767 344.688 15.4063C344.568 15.3727 344.452 15.3151 344.356 15.2335C344.217 15.1135 344.107 14.9502 344.049 14.7582C343.987 14.5518 343.982 14.3118 344.054 14.043C344.126 13.7645 344.289 13.4621 344.553 13.1501L344.587 13.1021C344.683 12.9677 344.803 12.8333 344.942 12.6989C346.115 11.5564 348.454 10.6731 351.115 10.4907C353.795 10.3083 356.773 10.8603 359.175 12.5981C359.636 12.9293 360.073 13.3037 360.487 13.7309C361.462 14.7342 362.211 16.1311 362.6 18.0321C362.936 19.6786 363.004 21.6996 362.715 24.167C362.581 23.9222 362.417 23.7062 362.225 23.5238C361.855 23.1781 361.385 22.9669 360.828 22.9381C360.208 22.9045 359.473 23.1109 358.647 23.639Z" fill="#666666"/>
<path fill-rule="evenodd" clip-rule="evenodd" d="M359.111 12.6856C356.735 10.9663 353.784 10.4173 351.122 10.5985C348.474 10.78 346.164 11.6586 345.017 12.7763C344.882 12.9073 344.766 13.037 344.675 13.1646L344.636 13.2203C344.379 13.5233 344.225 13.8112 344.158 14.0701C344.09 14.3219 344.096 14.5421 344.152 14.727C344.204 14.8987 344.302 15.0446 344.426 15.1515C344.509 15.2216 344.61 15.2723 344.716 15.3022C345.567 15.5318 346.223 15.4757 346.813 15.2599C347.409 15.0421 347.943 14.6605 348.554 14.2241C348.847 14.013 349.156 13.7909 349.514 13.559C350.233 13.0862 350.973 12.6767 351.751 12.442C352.584 12.1874 353.447 12.1322 354.336 12.4036C355.045 12.6202 355.702 13.0228 356.255 13.5261C356.837 14.0493 357.316 14.6993 357.634 15.3747C358.064 16.2859 358.388 17.4837 358.576 19.032C358.72 20.2542 358.788 21.7121 358.758 23.4431C359.53 22.9834 360.229 22.7976 360.833 22.8303C361.416 22.8605 361.91 23.0821 362.299 23.4449C362.425 23.5651 362.54 23.6994 362.642 23.8453C362.889 21.5264 362.813 19.6175 362.494 18.0538C362.108 16.1699 361.367 14.7926 360.409 13.8063C360 13.3838 359.567 13.0132 359.111 12.6856ZM359.238 12.5105C356.811 10.7545 353.806 10.1994 351.107 10.383C348.433 10.5663 346.064 11.4542 344.867 12.6214C344.724 12.759 344.6 12.8983 344.499 13.0394L344.467 13.0842C344.198 13.4037 344.026 13.7189 343.949 14.0155C343.872 14.3012 343.876 14.5617 343.945 14.7895C344.009 15.0017 344.131 15.1823 344.286 15.3154C344.395 15.4082 344.525 15.4731 344.658 15.5104L344.659 15.5106C345.552 15.7514 346.253 15.6947 346.887 15.4628C347.512 15.2345 348.067 14.8375 348.667 14.4083L348.68 14.3997C348.973 14.1885 349.278 13.9689 349.631 13.74C350.343 13.272 351.064 12.8748 351.813 12.6487C352.613 12.4042 353.432 12.3536 354.272 12.6102C354.947 12.8161 355.577 13.2006 356.109 13.6861C356.67 14.1901 357.133 14.8174 357.439 15.4668C357.855 16.3509 358.175 17.5245 358.361 19.0579C358.51 20.3144 358.577 21.8261 358.538 23.6368L358.534 23.839L358.705 23.73C359.518 23.2103 360.23 23.014 360.821 23.046C361.353 23.0735 361.8 23.2742 362.151 23.6024C362.334 23.7765 362.491 23.9833 362.62 24.2191L362.783 24.5153L362.822 24.1796C363.111 21.7039 363.045 19.671 362.705 18.0106C362.313 16.0927 361.555 14.6762 360.564 13.656C360.146 13.224 359.704 12.8454 359.238 12.5105Z" fill="#666666"/>
<path fill-rule="evenodd" clip-rule="evenodd" d="M342.944 14.384C342.079 15.3537 341.373 16.597 340.84 18.0227C339.682 21.1334 339.341 25.1369 339.975 28.9628C340.614 32.8224 342.247 36.5283 345.019 39.0053C346.095 39.9653 347.344 40.743 348.77 41.2759C348.982 41.3575 352.128 42.2407 355.865 39.0293C357.709 37.4403 359.741 34.8337 361.677 30.595L360.351 29.9901C358.516 34.0129 356.624 36.4563 354.919 37.9204C351.792 40.6086 349.433 39.9653 349.279 39.9077C348.03 39.4469 346.94 38.7652 345.999 37.9204C343.491 35.6786 342.012 32.2847 341.421 28.7276C340.825 25.1417 341.138 21.407 342.209 18.5316C342.679 17.2739 343.289 16.1842 344.034 15.3537L342.944 14.384Z" fill="#333333"/>
<path fill-rule="evenodd" clip-rule="evenodd" d="M358.613 24.6759C358.704 22.3909 358.646 20.538 358.464 19.045C358.276 17.5041 357.955 16.3184 357.532 15.4207C357.22 14.7583 356.749 14.1198 356.177 13.6062C355.635 13.1118 354.991 12.7181 354.299 12.5069C353.435 12.2429 352.594 12.2957 351.777 12.5453C351.014 12.7757 350.283 13.179 349.568 13.6494C349.212 13.8798 348.905 14.1006 348.612 14.3119C347.397 15.1807 346.426 15.8768 344.683 15.4063C344.562 15.3727 344.447 15.3151 344.351 15.2335C344.212 15.1135 344.101 14.9503 344.044 14.7583C343.981 14.5519 343.976 14.3119 344.049 14.043C344.121 13.7646 344.284 13.4622 344.548 13.1502L344.582 13.1022C344.678 12.9677 344.798 12.8333 344.937 12.6989C346.109 11.5564 348.449 10.6732 351.11 10.4907C353.79 10.3083 356.768 10.8604 359.17 12.5981C359.631 12.9293 360.068 13.3038 360.481 13.731C361.456 14.7343 362.206 16.1312 362.595 18.0322C362.955 19.8035 363.003 22.0021 362.643 24.7239L362.59 25.1367C362.407 26.5625 362.292 27.4505 361.413 28.6698C361.288 28.8427 361.144 29.0299 360.976 29.2315C360.832 29.4091 360.664 29.6011 360.472 29.8027L360.64 30.4076L361.538 30.7964C361.725 30.5948 361.913 30.3836 362.095 30.158C362.263 29.9563 362.427 29.7451 362.59 29.5195C363.68 28.0026 363.815 26.9753 364.031 25.324L364.084 24.9111C364.468 22.0213 364.41 19.6595 364.017 17.7393C363.57 15.5408 362.681 13.9038 361.519 12.7133C361.048 12.2285 360.544 11.8013 360.015 11.4172C357.306 9.45386 353.982 8.83461 350.999 9.03622C347.997 9.23784 345.307 10.2891 343.904 11.6524C343.722 11.8301 343.559 12.0173 343.414 12.2093C343.001 12.6941 342.747 13.1886 342.622 13.6638C342.478 14.2062 342.497 14.7247 342.636 15.1807C342.78 15.6512 343.049 16.0496 343.395 16.3424C343.659 16.5632 343.967 16.7265 344.293 16.8177C346.705 17.4657 347.92 16.592 349.452 15.4976C349.745 15.2911 350.048 15.0703 350.355 14.8687C350.966 14.4655 351.58 14.1246 352.19 13.9374C352.748 13.7694 353.305 13.731 353.862 13.899C354.333 14.043 354.784 14.3215 355.178 14.6815C355.606 15.0703 355.961 15.5504 356.197 16.04C356.557 16.7985 356.831 17.8353 356.999 19.2131C357.157 20.5332 357.22 22.1461 357.157 24.1095L357.527 24.6279L358.613 24.6759Z" fill="#333333"/>
<path fill-rule="evenodd" clip-rule="evenodd" d="M358.291 25.1271C359.314 24.2247 360.15 23.8742 360.784 23.903C361.101 23.9174 361.36 24.0374 361.567 24.2247C361.788 24.4311 361.946 24.7239 362.042 25.0743C362.297 25.9864 362.105 27.2393 361.384 28.3674C361.202 28.6554 360.894 28.977 360.52 29.2363C360.337 29.3611 360.14 29.4667 359.939 29.5435C359.175 29.8267 359.554 30.6668 360.015 30.542C360.395 30.4364 360.755 30.2588 361.072 30.0427C361.557 29.7115 361.961 29.2795 362.206 28.8954C363.08 27.5273 363.301 25.9768 362.984 24.8199C362.84 24.2967 362.585 23.8454 362.23 23.519C361.86 23.1734 361.389 22.9621 360.832 22.9333C359.953 22.8901 358.848 23.3222 357.58 24.4551C357.129 24.8631 357.676 25.6696 358.291 25.1271Z" fill="#333333"/>
<path fill-rule="evenodd" clip-rule="evenodd" d="M360.044 25.6072C360.188 25.5784 360.313 25.5784 360.419 25.6024C360.539 25.6312 360.635 25.6984 360.693 25.7896C360.76 25.9 360.798 26.0488 360.798 26.2216C360.798 26.5817 360.649 27.0425 360.342 27.5177C360.236 27.681 360.063 27.8682 359.847 28.0122C359.766 28.0698 359.674 28.1226 359.578 28.161C359.064 28.3818 359.232 28.7994 359.646 28.6554C359.814 28.5978 359.977 28.5114 360.121 28.4154C360.39 28.233 360.616 27.993 360.75 27.7818C361.106 27.2249 361.284 26.6729 361.284 26.2216C361.284 25.9528 361.221 25.7128 361.101 25.5256C360.971 25.324 360.779 25.1848 360.525 25.1271C360.376 25.0935 360.203 25.0887 360.006 25.1175C359.367 25.2232 359.439 25.7272 360.044 25.6072Z" fill="#333333"/>
<path fill-rule="evenodd" clip-rule="evenodd" d="M359.544 46.081L359.006 35.1697L357.546 35.2369L358.089 46.1482L359.544 46.081Z" fill="#333333"/>
<path fill-rule="evenodd" clip-rule="evenodd" d="M347.766 46.0233L348.563 40.1717L347.118 39.9749L346.315 45.8265L347.766 46.0233Z" fill="#333333"/>
<path fill-rule="evenodd" clip-rule="evenodd" d="M358.843 45.4856L358.828 45.5672C358.631 46.9017 357.988 51.2941 356.441 52.1437C355.576 52.6238 354.203 51.7261 352.022 47.7802L350.739 48.481C353.453 53.3966 355.557 54.2991 357.142 53.4206C359.328 52.2157 360.053 47.2713 360.274 45.7736L360.289 45.692L358.843 45.4856Z" fill="#333333"/>
<path fill-rule="evenodd" clip-rule="evenodd" d="M344.044 45.6538C343.847 46.3643 343.415 48.5724 343.578 50.2958C343.693 51.5295 344.121 52.5712 345.11 52.9216C345.86 53.1856 347.046 53.0944 348.516 52.0959C349.506 51.4191 350.673 50.3102 351.965 48.5676L350.793 47.6988C349.606 49.2925 348.564 50.2958 347.69 50.891C346.676 51.5775 345.98 51.6831 345.591 51.5487C345.259 51.4287 345.091 50.867 345.029 50.1614C344.885 48.6445 345.274 46.6811 345.447 46.0474L344.044 45.6538Z" fill="#333333"/>
<path fill-rule="evenodd" clip-rule="evenodd" d="M349.274 28.9868C346.887 29.9325 346.046 28.8236 346.08 27.7915C346.118 26.3994 347.425 26.6778 347.161 24.4216C348.294 26.0106 345.739 27.7723 347.266 28.6028C347.593 28.7804 348.112 28.9628 349.274 28.9868Z" fill="#333333"/>
<path fill-rule="evenodd" clip-rule="evenodd" d="M347.997 32.3421C350.788 34.5935 351.801 30.5996 352.291 29.9851C352.152 34.9439 348.348 34.5983 347.997 32.3421Z" fill="#333333"/>
<path fill-rule="evenodd" clip-rule="evenodd" d="M350.178 23.6007C351.662 20.0916 355.601 22.0934 355.615 23.9703C355.428 23.7639 354.602 23.2695 354.131 23.2119C353.968 25.3 351.47 25.7369 350.797 23.5095C350.533 23.4951 350.375 23.4807 350.178 23.6007Z" fill="#333333"/>
<path fill-rule="evenodd" clip-rule="evenodd" d="M341.686 23.4518C343.035 19.8899 347.051 21.7429 347.138 23.6198C346.941 23.423 346.1 22.9574 345.624 22.919C345.543 25.012 343.059 25.54 342.305 23.3414C342.036 23.3318 341.878 23.327 341.686 23.4518Z" fill="#333333"/>
<path fill-rule="evenodd" clip-rule="evenodd" d="M308.555 46.4504C307.767 42.9509 307.969 40.938 308.267 39.4595L308.31 39.2531C308.401 38.7922 308.541 38.2786 308.67 37.7889C308.935 36.7905 309.175 35.888 309.06 35.2303C308.915 34.3999 308.435 33.9726 307.383 34.155C305.678 34.4479 304.861 36.0272 304.174 37.3473C303.809 38.053 303.502 38.6434 303.411 38.629C303.315 38.5954 303.219 38.5522 303.122 38.4994C303.017 38.4418 302.911 38.365 302.796 38.2834C302.594 38.1346 302.263 37.8417 301.854 37.4865C299.544 35.4511 295.005 31.4524 291.849 34.1214C290.974 34.8607 290.513 36.3008 290.998 38.293C291.354 39.7427 292.219 41.5332 293.818 43.5926C293.881 43.6694 294.15 43.967 294.721 44.3943C295.029 44.6199 295.437 44.8983 295.98 45.2199C296.537 45.5512 297.2 45.796 297.997 46.0936C299.193 46.5401 300.721 47.1065 302.508 48.201L303.719 47.0938C301.807 45.9225 299.765 45.1911 298.506 44.7255C297.767 44.4519 297.157 44.2215 296.724 43.967C296.239 43.679 295.869 43.4294 295.591 43.223C295.168 42.911 295.009 42.7477 294.976 42.7045C293.511 40.8132 292.728 39.2195 292.415 37.957C292.074 36.5696 292.305 35.6528 292.79 35.2399C294.981 33.387 298.895 36.8337 300.884 38.5858C301.312 38.9602 301.657 39.2675 301.922 39.4643C302.075 39.5747 302.234 39.6803 302.397 39.7763C302.575 39.8771 302.757 39.9587 302.945 40.0211C304.213 40.434 304.78 39.3395 305.462 38.0242C305.995 36.9969 306.634 35.7728 307.619 35.6C307.628 35.6 307.604 35.4127 307.614 35.4847C307.671 35.8304 307.47 36.5888 307.249 37.4289C307.119 37.9186 306.984 38.4322 306.874 38.9842L306.831 39.1907C306.494 40.8564 306.269 42.9941 307.119 46.7816L308.555 46.4504Z" fill="#333333"/>
<path fill-rule="evenodd" clip-rule="evenodd" d="M305.125 47.3438C304.433 47.6174 304.43 47.0173 303.906 47.3438C302.177 46.3309 299.668 45.143 298.506 44.711C297.766 44.4374 297.156 44.2069 296.724 43.9525C296.239 43.6645 295.869 43.4149 295.59 43.2085C295.168 42.8964 295.009 42.7332 294.975 42.69C294.841 42.5172 294.716 42.3492 294.591 42.1812C293.371 40.5106 292.694 39.0897 292.415 37.9376C292.074 36.5503 292.305 35.6334 292.79 35.2206C293.011 35.0334 293.251 34.899 293.501 34.8126C295.749 34.0445 299.092 36.9871 300.884 38.5665C301.311 38.9409 301.657 39.2481 301.921 39.445C302.075 39.5554 302.234 39.661 302.397 39.757C302.575 39.8578 302.757 39.9394 302.944 40.0018C304.213 40.4146 304.779 39.3201 305.461 38.0048C305.995 36.9775 306.634 35.7534 307.623 35.5806C307.628 35.9599 307.45 36.6511 307.248 37.4096C307.119 37.8992 306.984 38.4129 306.874 38.9649L306.83 39.1713C306.518 40.7315 306.363 43.4629 307.031 46.6984C306.349 46.8808 305.874 47.0509 305.125 47.3438Z" fill="#FEFEFE"/>
<path fill-rule="evenodd" clip-rule="evenodd" d="M351.196 88.2958C350.034 88.0846 348.914 87.6718 347.387 86.9085C346.316 86.3709 345.446 85.8092 344.75 85.2428C344.154 84.7579 343.684 84.2683 343.323 83.7834C343.487 85.3436 343.919 87.0621 344.495 88.7855C345.321 91.2529 346.436 93.7299 347.483 95.8036C347.987 94.4211 348.66 92.957 349.414 91.4977C349.976 90.4128 350.581 89.3327 351.196 88.2958Z" fill="#FF6F3D"/>
<path fill-rule="evenodd" clip-rule="evenodd" d="M342.934 82.7837L343.551 83.6143C343.895 84.0777 344.349 84.5506 344.929 85.0227M342.934 82.7837L343.041 83.8128L342.934 82.7837ZM344.764 88.6953C344.307 87.3282 343.943 85.9705 343.733 84.6986L344.764 88.6953ZM343.733 84.6986C343.982 84.9547 344.26 85.2097 344.571 85.4625L344.571 85.4626C345.286 86.0439 346.173 86.6163 347.26 87.1617L347.26 87.1619C348.631 87.8468 349.689 88.2588 350.75 88.4947C350.202 89.4297 349.665 90.3963 349.162 91.3672L349.162 91.3674C348.514 92.6222 347.924 93.8838 347.447 95.0973C346.492 93.1576 345.509 90.9209 344.764 88.6954M343.041 83.8128C343.208 85.4006 343.646 87.1405 344.226 88.8753L343.041 83.8128ZM344.929 85.0228C345.607 85.5743 346.458 86.1251 347.514 86.6549C349.028 87.4115 350.12 87.8122 351.247 88.0168L351.648 88.0897L351.44 88.4403C350.827 89.4731 350.225 90.5484 349.666 91.6279C348.915 93.0803 348.248 94.5329 347.749 95.9007L347.525 96.5155L347.23 95.9313C346.179 93.8499 345.058 91.3598 344.226 88.8753L344.226 88.8753" fill="#FF6F3D"/>
<path fill-rule="evenodd" clip-rule="evenodd" d="M343.251 82.4104C343.237 84.297 343.746 86.5339 344.495 88.7853C345.321 91.2527 346.436 93.7297 347.483 95.8035C347.987 94.421 348.66 92.9569 349.414 91.4975C350.74 88.9389 352.315 86.3947 353.694 84.3594L354.823 85.1178C353.463 87.1244 351.912 89.6254 350.62 92.1216C349.611 94.0754 348.756 96.0291 348.28 97.7381L347.829 99.3654L347.027 97.8773C345.768 95.5347 344.255 92.376 343.203 89.2222C342.411 86.846 341.873 84.465 341.887 82.4152L343.251 82.4104Z" fill="#333333"/>
<path fill-rule="evenodd" clip-rule="evenodd" d="M336.44 63.1801C334.149 66.3724 330.267 70.0159 326.136 72.5505C322.543 74.7539 318.787 76.1028 315.819 75.5315C315.492 75.4691 314.109 75.0179 311.928 71.5616C309.656 67.9565 306.711 61.2552 303.608 48.8173C304.074 48.6157 304.699 48.4285 305.352 48.2797C306.284 48.0637 307.264 47.9197 307.989 47.8669C308.45 48.9613 308.945 50.2142 309.459 51.5152C311.544 56.81 313.974 62.9881 317.961 67.1884L318.393 67.6445L318.907 67.2845C320.252 66.3484 323.84 62.1096 327.174 58.1637C329.907 54.933 332.467 51.904 333.342 51.2079C334.591 50.2094 336.137 49.1726 338.284 48.2941C340.355 47.4444 342.987 46.7436 346.455 46.3643L346.647 46.6332C347.786 48.1261 349.698 48.8317 351.84 48.8845C353.886 48.9325 356.168 48.3805 358.161 47.3388C358.718 47.0508 359.252 46.7244 359.751 46.3643C362.018 46.8012 365.208 48.2077 368.268 49.9934C371.356 51.7936 374.282 53.9634 375.977 55.9075C376.631 57.6837 377.404 59.6758 378.225 61.8024C382.443 72.6849 388.068 87.1965 386.021 94.7667C386.007 94.8147 385.743 95.1796 384.287 95.3764C383.346 95.5012 381.996 95.4868 380.07 95.1508C378 94.7907 375.233 93.9267 371.659 92.5489C368.042 91.1568 363.618 89.2463 358.272 86.8077L357.667 88.1326C363.051 90.5904 367.504 92.5105 371.135 93.9123C374.81 95.3284 377.668 96.2164 379.83 96.5909C381.914 96.9509 383.413 96.9653 384.489 96.8213C386.804 96.5093 387.395 95.314 387.438 95.1508C389.61 87.1245 383.884 72.3537 379.59 61.2792C378.749 59.1094 377.961 57.0836 377.303 55.2835L377.255 55.1587L377.169 55.0578C375.382 52.9649 372.269 50.6367 369.003 48.7309C365.674 46.7868 362.148 45.2698 359.684 44.8714L359.377 44.8234L359.127 45.0154C358.613 45.4042 358.065 45.7547 357.489 46.0523C355.707 46.9788 353.684 47.478 351.874 47.43C350.159 47.3868 348.66 46.8588 347.81 45.7499C347.69 45.5915 347.584 45.4283 347.493 45.2554L347.262 44.8186L346.772 44.8666C342.92 45.2458 340.009 46.0091 337.732 46.9452C335.436 47.8861 333.774 48.9997 332.434 50.0702C331.43 50.8719 328.831 53.9442 326.06 57.2228C323.158 60.6551 320.055 64.3226 318.561 65.6811C315.04 61.6968 312.773 55.9411 310.823 50.9823C310.256 49.5374 309.713 48.1597 309.137 46.83L308.945 46.3883H308.464C307.643 46.3931 306.284 46.5659 305.035 46.854C303.988 47.0988 302.989 47.43 302.374 47.8237L301.937 48.1069L302.061 48.6109C305.261 61.5864 308.335 68.5758 310.703 72.3393C313.201 76.3044 315.098 76.8804 315.554 76.9669C318.917 77.6149 323.029 76.17 326.905 73.7938C331.233 71.1392 335.311 67.2989 337.698 63.9338C338.51 62.7913 337.305 61.98 336.44 63.1801Z" fill="#333333"/>
<path fill-rule="evenodd" clip-rule="evenodd" d="M377.381 55.3849L377.285 55.1252L379.619 61.2555L379.385 60.6484L379.384 60.6471C378.65 58.747 377.966 56.9776 377.381 55.3849ZM379.635 61.295L379.62 61.2571L377.017 58.6756C377.327 59.4844 377.651 60.3228 377.984 61.1852L377.985 61.1883L378.221 61.7975L378.223 61.8041C382.44 72.6859 388.063 87.1932 386.017 94.7619C386.002 94.8099 385.738 95.1747 384.283 95.3715C383.341 95.4963 381.991 95.4819 380.065 95.1459C377.995 94.7859 375.228 93.9218 371.654 92.5441C371.493 92.4821 371.331 92.419 371.167 92.3549C370.897 92.2494 370.622 92.1411 370.343 92.03C367.534 90.9116 364.278 89.5111 360.528 87.8241C360.028 87.5991 359.52 87.3691 359.002 87.134L359.046 87.101C359.464 86.786 359.851 86.4264 360.206 86.033C360.331 85.8952 360.451 85.7532 360.568 85.6075C360.905 85.1867 361.205 84.7386 361.474 84.2676L361.495 84.2298C361.582 84.2564 361.671 84.2831 361.761 84.31L361.881 84.3455C363.677 84.8732 366.076 85.4382 368.525 85.9203C368.961 86.0061 369.398 86.0893 369.834 86.1692C370.037 86.2067 370.24 86.2435 370.442 86.2795C372.416 86.6317 374.332 86.9103 375.899 87.0544C376.128 87.0756 376.351 87.0938 376.565 87.109C376.708 87.1192 376.848 87.128 376.984 87.1353L377.073 87.1399L377.094 87.141L377.15 87.1436C378.286 87.1957 378.456 85.7821 377.217 85.6829C377.2 85.6815 377.182 85.6804 377.164 85.6795C377.131 85.6775 377.098 85.6756 377.066 85.6739L377.004 85.6707C376.903 85.6654 376.8 85.6601 376.693 85.6507C376.683 85.6384 376.673 85.6255 376.663 85.6122C376.062 84.847 374.632 82.4471 373.216 79.871C371.879 77.4336 370.57 74.8635 370.008 73.3807C370 73.3605 369.993 73.3406 369.985 73.3208C369.98 73.3055 369.974 73.2903 369.968 73.2753C370.016 71.0229 370.128 68.7427 370.301 66.43L370.309 66.3147L370.311 66.2911L370.311 66.2885C370.373 65.183 368.945 64.961 368.854 66.1803L368.852 66.203L368.852 66.2046L368.84 66.3681C368.668 68.6736 368.557 70.964 368.51 73.2447C368.507 73.375 368.505 73.5053 368.503 73.6356C368.491 74.2858 368.485 74.9354 368.484 75.5843C368.48 78.0648 368.554 80.516 368.702 82.9432C368.732 83.4452 368.766 83.9462 368.802 84.4462L368.806 84.4938C368.291 84.3923 367.78 84.2857 367.279 84.176C365.363 83.7565 363.581 83.2899 362.188 82.8752C362.101 82.8623 362.013 82.847 361.924 82.8293C361.558 82.7571 361.166 82.6449 360.752 82.4957C357.663 81.3826 353.372 78.2089 350.047 74.2082C348.604 72.4724 347.343 70.581 346.441 68.6346C346.363 68.4674 346.288 68.2998 346.216 68.1318C346.052 67.7485 345.901 67.3634 345.767 66.9773C345.901 66.2246 346.077 65.2391 346.271 64.1459C346.387 63.488 346.51 62.7911 346.634 62.0824C346.876 60.7064 347.123 59.2861 347.338 58.0212C347.651 56.1833 347.897 54.6735 347.963 54.1042C347.978 53.9719 347.984 53.8903 347.978 53.8673C347.877 53.4449 347.781 53.0176 347.69 52.5808C347.648 52.6013 347.607 52.6211 347.566 52.6401L347.583 52.603C347.602 52.5625 347.622 52.5221 347.641 52.482C347.996 51.7473 348.383 51.0921 348.8 50.5599C349.091 50.1882 349.397 49.8765 349.716 49.6396C349.74 49.6218 349.764 49.6043 349.789 49.5873C350.211 49.2905 350.658 49.1252 351.125 49.1252C352.438 52.9216 356.254 53.9201 357.148 53.4257C358.661 52.5903 359.405 49.7556 359.805 47.6342C359.912 47.067 359.995 46.5507 360.061 46.1373L360.063 46.1252C360.543 46.3109 361.019 46.4986 361.491 46.691C363.723 47.5994 365.893 48.6108 368.263 49.9934L376.023 56.0389C376.006 55.9934 375.989 55.9479 375.973 55.9027C374.277 53.9585 371.352 51.7887 368.263 49.9934L369.019 48.6976L369.018 48.6971C366.055 46.9689 363.399 45.806 360.603 44.726L358.874 44.0579L358.582 45.8885C358.424 46.8767 358.189 48.3344 357.776 49.6656C357.57 50.3297 357.335 50.9091 357.074 51.3568C356.861 51.7216 356.671 51.9307 356.527 52.043C356.465 52.0421 356.376 52.0356 356.259 52.0163C355.931 51.9619 355.485 51.8226 355.005 51.5638C354.054 51.0518 353.058 50.1253 352.543 48.6351L352.194 47.6252H351.125C349.324 47.6252 348.028 48.9652 347.181 50.2448C346.933 50.62 346.698 51.0265 346.477 51.4559C345.995 51.6004 345.711 51.5449 345.61 51.5089L345.606 51.5077C345.529 51.4802 345.44 51.4275 345.337 51.2343C345.219 51.0131 345.116 50.6587 345.066 50.1526C344.975 49.1827 345.111 47.9533 345.281 47.0016L345.657 44.8849L343.541 45.262C341.234 45.6728 339.326 46.2433 337.714 46.9001L337.712 46.9009C335.405 47.8447 333.736 48.9637 332.401 50.0309C331.833 50.4834 330.876 51.5364 329.821 52.7433C328.74 53.9802 327.435 55.5221 326.097 57.1041L326.024 57.1901L326.01 57.2064C324.344 59.1759 322.632 61.2007 321.168 62.8507C320.434 63.6781 319.773 64.3992 319.22 64.9654C318.962 65.2299 318.741 65.4459 318.557 65.6168C315.095 61.6837 312.868 56.0857 310.85 50.9608L310.849 50.9591L310.671 50.5073C310.223 49.3722 309.785 48.2613 309.364 47.2745L308.947 46.295L307.885 46.3653C307.065 46.4196 306.009 46.5828 305.01 46.8132L305.004 46.8147C304.319 46.9758 303.594 47.1821 303.008 47.4358L301.84 47.9412L302.148 49.176C305.274 61.6888 308.261 68.5591 310.654 72.3565C312.92 75.9555 314.601 76.8234 315.533 77.0002C319.08 77.6815 323.25 76.0698 326.915 73.8248L326.916 73.8242C329.087 72.4925 331.192 70.8685 333.055 69.1521L333.039 69.5194L333.039 69.5334C332.888 74.0119 332.923 83.0187 333.391 91.5272C333.708 97.2956 334.222 102.92 335.025 106.723L335.165 107.385L335.755 107.719C341.113 110.743 347.123 112.056 352.996 112.308C360.383 112.624 367.654 111.277 373.388 109.47L374.765 109.036L374.384 107.643C373.728 105.25 373.148 102.885 372.64 100.536C372.174 98.3775 371.77 96.2189 371.428 94.0639C374.881 95.3835 377.655 96.2493 379.808 96.6237C381.836 96.9774 383.345 97.0089 384.48 96.8585L384.484 96.858C385.309 96.7463 385.908 96.5736 386.348 96.3591C386.57 96.2506 386.77 96.1226 386.941 95.9708C387.026 95.8953 387.111 95.8073 387.189 95.7055C387.241 95.6375 387.374 95.4563 387.453 95.1931L387.459 95.1733L387.465 95.1533C388.047 92.9998 388.061 90.4587 387.745 87.7725C387.427 85.0706 386.762 82.1239 385.911 79.1138C384.215 73.1136 381.735 66.7143 379.635 61.295ZM347.566 52.6401C347.084 52.8635 346.644 52.9849 346.252 53.0299C346.076 53.0501 345.91 53.0549 345.755 53.0466C345.512 53.0338 345.295 52.9892 345.106 52.9216C344.116 52.5712 343.693 51.5295 343.573 50.2958C343.514 49.6629 343.534 48.967 343.593 48.3035C343.643 47.7389 343.722 47.1977 343.804 46.7387C343.256 46.8364 342.732 46.9432 342.232 47.058C340.716 47.406 339.414 47.8272 338.28 48.2892C336.133 49.1677 334.586 50.2046 333.337 51.2031C332.47 51.8934 329.944 54.8787 327.237 58.0795L327.148 58.1844C323.82 62.1183 320.245 66.3455 318.903 67.2796L318.389 67.6396L317.956 67.1836C313.974 62.9832 311.539 56.8051 309.454 51.5103L309.276 51.0579C308.826 49.9197 308.396 48.829 307.984 47.862C307.259 47.91 306.284 48.0588 305.347 48.2748C304.694 48.4284 304.069 48.6109 303.604 48.8125C306.711 61.2551 309.651 67.9516 311.923 71.5567C314.099 75.013 315.483 75.4643 315.814 75.5267C318.783 76.0979 322.534 74.749 326.132 72.5456C328.674 70.9858 331.122 69.0078 333.163 66.9719C333.307 66.8282 333.449 66.6842 333.588 66.54C334.687 65.4079 335.654 64.2659 336.435 63.1753C336.445 63.1623 336.454 63.1496 336.463 63.1372C336.477 63.1194 336.49 63.102 336.504 63.0852L336.505 63.0838C337.362 62.0135 338.484 62.812 337.689 63.9289L337.62 64.0253L337.611 64.0372C336.789 65.1761 335.779 66.3714 334.634 67.5532L334.586 68.4653L334.538 69.5838C334.389 74.0145 334.423 82.9769 334.889 91.4448C335.206 97.2053 335.715 102.731 336.493 106.412C341.594 109.293 347.358 110.565 353.06 110.81C360.237 111.117 367.331 109.806 372.937 108.04C372.274 105.62 371.688 103.23 371.174 100.854C370.64 98.3786 370.186 95.9036 369.812 93.4333L369.805 93.3842C368.423 92.8351 366.902 92.1441 365.276 91.4053C363.14 90.4348 360.822 89.3817 358.4 88.4598L358.334 88.4349C357.794 88.2301 357.187 87.7607 356.538 87.0965C354.096 84.597 351.061 79.3393 348.792 75.0445C346.872 71.4101 345.5 68.4653 345.5 68.4653C345.5 68.4653 345.603 67.894 345.767 66.9773C345.458 66.0914 345.233 65.2001 345.106 64.3127C345.027 63.7617 345.043 62.9076 345.147 61.8791C345.27 60.6655 345.514 59.2091 345.868 57.7213C346.129 56.6219 346.449 55.5054 346.824 54.457C346.865 54.3432 346.906 54.2302 346.948 54.1181L346.95 54.1129C347.142 53.5992 347.348 53.1048 347.566 52.6401ZM357.622 86.0595C357.667 86.1057 357.712 86.1499 357.755 86.1922L358.107 85.9302C358.574 85.5831 359.007 85.1574 359.397 84.6701C359.612 84.4009 359.812 84.1158 359.998 83.8155C358.957 83.4159 357.861 82.8407 356.77 82.1549C355.469 81.3372 354.116 80.3238 352.795 79.1653C353.77 80.8254 354.774 82.4161 355.736 83.7509C356.414 84.692 357.05 85.4762 357.622 86.0595ZM374.713 85.4171C373.385 85.2538 371.877 85.0176 370.328 84.7348L370.302 84.3836C370.121 81.9344 370.016 79.4619 369.99 76.9601C370.57 78.122 371.238 79.3854 371.9 80.5923L371.901 80.5937C372.629 81.9173 373.362 83.1991 373.991 84.2457C374.243 84.6662 374.487 85.0636 374.713 85.4171Z" fill="#333333"/>
<path fill-rule="evenodd" clip-rule="evenodd" d="M375.973 55.9027C376.626 57.6789 377.399 59.671 378.221 61.7976C382.438 72.6801 388.063 87.1917 386.017 94.7619C386.002 94.8099 385.738 95.1748 384.283 95.3716C383.341 95.4964 381.991 95.482 380.065 95.146C377.995 94.7859 375.228 93.9219 371.654 92.5441C368.205 91.2144 364.022 89.4143 359.002 87.1341C359.583 86.702 360.107 86.1836 360.568 85.6076C360.914 85.1755 361.221 84.7147 361.495 84.2299C363.628 84.8827 366.769 85.6076 369.834 86.1692C372.586 86.6781 375.286 87.0573 377.15 87.1437C378.302 87.1965 378.461 85.742 377.164 85.6796C377.01 85.67 376.857 85.6652 376.693 85.6508C376.112 84.9307 374.657 82.4921 373.215 79.8711C371.847 77.3749 370.506 74.7395 369.968 73.2754C370.016 70.9856 370.132 68.667 370.309 66.3148C370.396 65.1867 368.945 64.9515 368.854 66.1804C368.614 69.339 368.489 72.4689 368.484 75.5843C368.479 78.5942 368.59 81.5608 368.806 84.4939C366.323 84.0042 363.946 83.3985 362.188 82.8752C357.148 82.1252 346.354 73.0351 345.106 64.3127C344.673 61.2877 347.114 49.1252 351.125 49.1252C352.438 52.9217 356.254 53.9202 357.148 53.4257C359.069 52.3648 359.751 48.079 360.063 46.1252C362.813 47.1877 365.391 48.3181 368.263 49.9934C371.352 51.7888 374.277 53.9586 375.973 55.9027ZM345.5 68.4654C345.5 68.4654 348.065 54.2226 347.978 53.8674C347.877 53.4449 347.781 53.0177 347.69 52.5808C346.599 53.1185 345.711 53.1377 345.106 52.9217C344.116 52.5712 343.693 51.5296 343.573 50.2959C343.463 49.1246 343.626 47.7373 343.804 46.7388C341.594 47.1324 339.788 47.6748 338.28 48.2893C336.133 49.1678 334.586 50.2047 333.337 51.2031C332.463 51.8992 329.903 54.9282 327.169 58.1589C323.836 62.1 320.248 66.3436 318.903 67.2797L318.389 67.6397L317.956 67.1836C313.974 62.9833 311.539 56.8052 309.454 51.5104C308.94 50.2095 308.45 48.9565 307.984 47.8621C307.259 47.9101 306.284 48.0589 305.347 48.2749C304.694 48.4285 304.069 48.6109 303.604 48.8125C306.711 61.2552 309.651 67.9517 311.923 71.5568C314.099 75.0131 315.483 75.4643 315.814 75.5267C318.782 76.098 322.534 74.7491 326.132 72.5457C330.263 70.0111 334.144 66.3724 336.435 63.1753C337.3 61.9704 338.506 62.7817 337.689 63.929C336.853 65.1003 335.816 66.334 334.634 67.5533L334.586 68.4654L334.538 69.5838C334.389 74.0146 334.423 82.977 334.889 91.4448C335.206 97.2053 335.715 102.731 336.493 106.412C341.594 109.293 347.358 110.565 353.06 110.81C360.236 111.117 367.331 109.806 372.937 108.04C372.274 105.62 371.688 103.23 371.174 100.854C370.636 98.3622 370.18 95.8708 369.805 93.3842C366.592 92.1073 362.625 90.0627 358.334 88.435C354.043 86.8072 345.5 68.4654 345.5 68.4654Z" fill="#EFEFEF"/>
<path fill-rule="evenodd" clip-rule="evenodd" d="M368.854 66.1803C368.614 69.339 368.489 72.4688 368.484 75.5843C368.48 78.9301 368.614 82.2184 368.883 85.4683L370.343 85.3483C370.074 82.0984 369.94 78.8485 369.945 75.5843C369.95 72.5504 370.07 69.4686 370.315 66.3195C370.396 65.1914 368.946 64.9514 368.854 66.1803ZM369.757 93.0433L371.203 92.8321C371.588 95.4051 372.053 97.9781 372.611 100.561C373.168 103.153 373.812 105.745 374.537 108.337L374.724 109.009L374.061 109.225C368.22 111.146 360.669 112.605 353.003 112.278C346.974 112.019 340.879 110.651 335.485 107.526L335.211 107.368L335.139 107.051C334.298 103.283 333.755 97.5221 333.429 91.5264C332.963 83.0249 332.924 74.0145 333.078 69.5454L333.126 68.4029L333.188 67.2028L334.649 67.294L334.586 68.4701L334.538 69.5886C334.389 74.0193 334.423 82.9817 334.889 91.4496C335.206 97.21 335.715 102.735 336.493 106.417C341.595 109.297 347.359 110.57 353.06 110.814C360.237 111.122 367.332 109.811 372.937 108.045C372.274 105.625 371.688 103.235 371.174 100.858C370.622 98.2517 370.146 95.6499 369.757 93.0433Z" fill="#333333"/>
<path fill-rule="evenodd" clip-rule="evenodd" d="M382.972 236.57C381.828 237.862 380.378 239.249 378.889 240.67C376.477 242.974 373.97 245.369 372.716 247.419C371.775 248.96 371.602 250.295 372.937 251.173C373.749 251.274 376.65 250.05 380.013 248.351C383.774 246.45 388.01 243.953 390.609 241.98C390.628 241.961 390.681 241.923 390.7 241.913C390.753 241.875 390.84 241.817 390.941 241.731C391.479 241.265 392.329 240.003 389.696 236.945L390.806 235.994C394.303 240.06 392.79 242.062 391.887 242.84C391.757 242.95 391.627 243.041 391.541 243.104L391.474 243.152C388.793 245.182 384.485 247.726 380.671 249.651C376.9 251.557 373.514 252.873 372.447 252.56L372.356 252.536L372.274 252.484C369.901 251.039 370.05 248.984 371.472 246.661C372.827 244.448 375.401 241.985 377.885 239.614C379.355 238.207 380.791 236.839 381.881 235.605L382.972 236.57Z" fill="#333333"/>
<path fill-rule="evenodd" clip-rule="evenodd" d="M342.027 235.615C340.552 236.22 338.755 236.839 336.92 237.468C333.231 238.731 329.384 240.051 327.174 241.664C325.214 243.099 324.455 244.741 325.906 246.714L325.964 246.791L326.041 246.853C326.92 247.559 331.276 247.674 336.19 247.371C340.946 247.079 346.306 246.435 349.477 245.595L349.554 245.576C350.288 245.413 353.252 244.736 351.835 239.523C351.782 239.331 351.398 238.486 351.043 237.689C350.75 237.041 350.471 236.422 350.437 236.326L349.049 236.782C349.097 236.931 349.395 237.593 349.712 238.289C350.048 239.038 350.409 239.83 350.428 239.902C351.446 243.656 349.674 244.054 349.237 244.15L349.131 244.174C346.052 244.99 340.792 245.619 336.109 245.907C331.656 246.181 327.799 246.176 327.025 245.749C326.31 244.678 326.833 243.718 328.048 242.83C330.071 241.352 333.813 240.07 337.406 238.836C339.231 238.212 341.023 237.598 342.593 236.95L342.027 235.615Z" fill="#333333"/>
<path fill-rule="evenodd" clip-rule="evenodd" d="M378.889 240.67C376.477 242.974 373.97 245.369 372.716 247.419C371.775 248.96 371.602 250.295 372.937 251.173C373.749 251.274 376.65 250.05 380.013 248.35C383.774 246.45 388.01 243.953 390.609 241.98C390.628 241.961 390.681 241.923 390.7 241.913C390.753 241.875 390.84 241.817 390.94 241.731C391.233 241.481 391.613 241.001 391.488 240.132C391.397 239.47 391.008 238.577 390.061 237.386C389.077 237.814 387.833 237.996 386.589 237.962C385.138 237.924 383.649 237.598 382.563 237.026C381.66 238.01 380.599 239.038 379.499 240.094C379.292 240.286 379.09 240.478 378.889 240.67Z" fill="#FEFEFE"/>
<path fill-rule="evenodd" clip-rule="evenodd" d="M350.419 239.907C350.443 239.993 350.467 240.079 350.486 240.166C351.355 243.68 349.655 244.064 349.227 244.16L349.122 244.184C346.043 245 340.783 245.629 336.099 245.917C331.647 246.19 327.789 246.185 327.016 245.758C326.3 244.688 326.824 243.728 328.039 242.84C329.269 241.937 331.142 241.111 333.227 240.324C334.567 239.82 335.989 239.331 337.396 238.85C339.03 238.289 340.634 237.742 342.08 237.166C342.978 237.756 344.366 238.366 345.961 238.471C347.066 238.543 348.271 238.375 349.477 237.794C349.549 237.953 349.626 238.126 349.703 238.294C350.039 239.042 350.395 239.835 350.419 239.907Z" fill="#FEFEFE"/>
<path fill-rule="evenodd" clip-rule="evenodd" d="M371.16 110.099C374.546 121.174 378.331 141.177 381.646 163.796C386.425 187.093 389.504 213.332 389.461 235.562C388.582 236.047 387.299 236.33 386.022 236.359C384.754 236.388 383.524 236.177 382.741 235.682C381.641 231.496 377.207 213.519 371.251 192.666C366.227 175.068 359.622 155.952 356.154 142.545L354.765 137.481C354.679 150.072 353.834 163.297 353.286 171.875C353.123 174.458 352.983 176.618 352.897 178.265C352.892 178.375 352.897 178.798 352.907 179.503C352.988 185.614 353.353 213.629 349.016 236.388C347.997 236.921 346.974 237.074 346.042 237.017C344.774 236.935 343.665 236.46 342.939 235.989C342.858 229.408 342.637 219.951 342.017 209.87C341.383 199.564 340.321 188.571 338.554 179.254C338.41 178.495 335.749 163.239 335.595 142.603C335.518 132.291 336.07 120.636 337.876 108.774C342.646 111.016 347.848 112.048 352.998 112.274C359.454 112.552 365.823 111.563 371.16 110.099Z" fill="#404040"/>
<path fill-rule="evenodd" clip-rule="evenodd" d="M337.791 108.615L337.922 108.677C342.676 110.911 347.864 111.941 353.002 112.166C359.444 112.444 365.803 111.457 371.131 109.995L371.232 109.967L371.263 110.068C374.652 121.15 378.437 141.159 381.752 163.778C386.532 187.079 389.612 213.324 389.569 235.562L389.568 235.626L389.513 235.657C388.614 236.153 387.313 236.438 386.024 236.467C384.747 236.496 383.492 236.285 382.683 235.774L382.647 235.751L382.636 235.71C382.432 234.932 382.112 233.678 381.689 232.018C379.836 224.743 375.996 209.673 371.147 192.696C368.882 184.764 366.297 176.525 363.822 168.637C363.551 167.776 363.282 166.919 363.015 166.066C360.303 157.413 357.784 149.28 356.049 142.573C356.049 142.573 356.049 142.573 356.049 142.573L354.867 138.26C354.752 150.598 353.933 163.437 353.396 171.839L353.393 171.882C353.393 171.882 353.393 171.882 353.393 171.882M353.004 178.27C353 178.377 353.004 178.794 353.014 179.502C353.096 185.612 353.461 213.637 349.121 236.408L349.112 236.459L349.065 236.484C348.027 237.027 346.984 237.183 346.035 237.125C344.745 237.042 343.618 236.559 342.88 236.08L342.832 236.049L342.831 235.991C342.749 229.411 342.528 219.956 341.909 209.877C341.275 199.573 340.214 188.585 338.447 179.274C338.302 178.511 335.64 163.248 335.486 142.603C335.41 132.288 335.962 120.627 337.769 108.758L337.791 108.615M353.004 178.27C353.081 176.82 353.198 174.973 353.336 172.789C353.355 172.493 353.374 172.19 353.393 171.882M337.961 108.933C336.173 120.739 335.626 132.336 335.702 142.602C335.856 163.231 338.516 178.48 338.659 179.233C340.428 188.558 341.49 199.556 342.124 209.864C342.742 219.917 342.964 229.35 343.046 235.93C343.759 236.382 344.83 236.831 346.049 236.909C346.95 236.965 347.936 236.819 348.919 236.316C353.244 213.579 352.88 185.612 352.798 179.505C352.789 178.802 352.784 178.375 352.789 178.26C352.865 176.809 352.982 174.959 353.12 172.775C353.139 172.479 353.158 172.177 353.178 171.869L353.18 171.827C353.728 163.247 354.571 150.047 354.657 137.48L354.662 136.698L356.258 142.518C357.991 149.219 360.508 157.347 363.221 166.002C363.489 166.854 363.758 167.712 364.028 168.573C366.503 176.46 369.089 184.702 371.354 192.636C376.205 209.618 380.046 224.693 381.899 231.966C382.314 233.596 382.629 234.833 382.834 235.613C383.592 236.075 384.779 236.279 386.019 236.251C387.258 236.223 388.495 235.954 389.353 235.498C389.39 213.29 386.313 187.086 381.54 163.818L381.538 163.812C378.234 141.261 374.463 121.317 371.087 110.231C365.762 111.682 359.421 112.659 352.993 112.382C347.88 112.158 342.711 111.14 337.961 108.933Z" fill="#404040"/>
<path fill-rule="evenodd" clip-rule="evenodd" d="M354.77 137.337C354.689 149.971 353.839 163.264 353.291 171.875C353.128 174.458 352.988 176.618 352.902 178.265C352.897 178.375 352.902 178.798 352.911 179.503C352.993 185.614 353.358 213.629 349.021 236.388C348.002 236.921 346.979 237.074 346.047 237.017C344.779 236.935 343.67 236.46 342.944 235.989C342.863 229.408 342.642 219.951 342.022 209.871C341.388 199.564 340.326 188.571 338.559 179.254C338.415 178.495 335.753 163.24 335.6 142.603C335.523 132.003 336.104 119.993 338.035 107.795L336.594 107.569C334.653 119.844 334.067 131.941 334.144 142.603C334.298 163.379 336.978 178.75 337.122 179.513C338.88 188.763 339.932 199.694 340.567 209.947C341.201 220.235 341.417 229.821 341.494 236.378L341.498 236.738L341.787 236.954C342.656 237.602 344.179 238.351 345.961 238.466C347.243 238.548 348.656 238.308 350.053 237.482L350.337 237.314L350.399 236.993C354.828 214.042 354.453 185.648 354.377 179.479C354.367 178.826 354.362 178.428 354.367 178.332C354.449 176.777 354.588 174.583 354.756 171.962C355.236 164.464 355.942 153.427 356.168 142.339L354.77 137.337Z" fill="#333333"/>
<path fill-rule="evenodd" clip-rule="evenodd" d="M346.364 123.367C347.296 124.203 348.348 124.947 349.515 125.494C350.721 126.056 352.056 126.416 353.507 126.459L354.098 126.478L354.165 127.059C356.057 143.284 361.183 159.366 367.235 178.342C372.404 194.553 378.245 212.876 383.332 235.212C384.235 235.62 385.215 235.721 386.17 235.654C387.083 235.586 387.981 235.361 388.769 235.087C388.601 228.467 388.222 218.454 387.367 207.816C386.761 200.265 385.921 192.421 384.749 185.302C384.585 184.318 384.427 183.382 384.263 182.489C384.1 181.587 383.927 180.699 383.754 179.83C383.615 179.148 383.432 178.289 383.25 177.454C382.77 175.231 382.328 173.196 382.078 170.661C381.91 168.947 381.722 167.181 381.521 165.381C381.314 163.532 381.098 161.761 380.882 160.057C379.681 150.711 378.144 141.638 376.41 133.299C374.608 124.649 372.591 116.805 370.511 110.296L371.803 109.888C373.898 116.455 375.929 124.342 377.736 133.026C379.479 141.379 381.021 150.49 382.227 159.889C382.462 161.723 382.678 163.508 382.875 165.232C383.067 166.945 383.255 168.712 383.432 170.531C383.668 172.951 384.105 174.967 384.58 177.161C384.729 177.852 384.883 178.567 385.085 179.561C385.263 180.439 385.436 181.337 385.599 182.244C385.772 183.209 385.94 184.15 386.089 185.077C387.266 192.258 388.116 200.135 388.721 207.706C389.595 218.583 390.633 229.327 390.796 235.985L390.806 236.465L390.354 236.638C388.173 237.463 383.586 237.977 381.939 235.908L381.871 235.601C376.775 213.159 371.121 195.004 365.938 178.745C359.934 159.908 354.837 143.918 352.878 127.774C351.451 127.659 350.14 127.275 348.934 126.713C347.608 126.094 346.422 125.254 345.389 124.313C344.471 123.478 345.447 122.542 346.364 123.367Z" fill="#333333"/>
<path fill-rule="evenodd" clip-rule="evenodd" d="M351.868 47.425C353.674 47.4682 355.702 46.9737 357.484 46.0472C357.681 45.9464 357.873 45.836 358.065 45.7208L357.642 37.2241C357.037 37.9394 356.441 38.5346 355.865 39.0291C352.123 42.2453 348.981 41.3573 348.77 41.2757C348.655 41.2324 348.54 41.1892 348.429 41.1412L347.8 45.7352C347.8 45.7352 347.8 45.74 347.805 45.74C348.655 46.8537 350.154 47.3865 351.868 47.425Z" fill="#FEFEFE"/>
<path fill-rule="evenodd" clip-rule="evenodd" d="M350.178 23.6007C351.663 20.0916 355.601 22.0934 355.616 23.9703C355.428 23.7639 354.602 23.2694 354.132 23.2118C353.968 25.3 351.47 25.7369 350.798 23.5095C350.529 23.4951 350.375 23.4807 350.178 23.6007ZM349.28 39.9076C349.434 39.9652 351.792 40.6085 354.919 37.9203C356.552 36.5185 358.354 34.224 360.107 30.5132C360.078 30.5228 360.045 30.5324 360.016 30.5421C359.555 30.6669 359.175 29.8316 359.939 29.5436C360.141 29.4668 360.342 29.3612 360.52 29.2363C360.9 28.9771 361.202 28.6555 361.385 28.3675C362.105 27.2394 362.293 25.9865 362.043 25.0744C361.947 24.724 361.784 24.4263 361.567 24.2247C361.366 24.0327 361.101 23.9175 360.784 23.9031C360.15 23.8743 359.31 24.2199 358.291 25.1272C357.725 25.6312 357.22 24.9832 357.494 24.5608L357.177 24.1143C357.239 22.151 357.177 20.538 357.018 19.2179C356.85 17.8402 356.577 16.8033 356.216 16.0449C355.986 15.5552 355.63 15.0752 355.198 14.6863C354.804 14.3263 354.353 14.0479 353.882 13.9039C353.325 13.7311 352.763 13.7743 352.21 13.9423C351.6 14.1295 350.985 14.4703 350.375 14.8736C350.068 15.0752 349.765 15.2912 349.472 15.5024C347.945 16.5969 346.729 17.4658 344.313 16.8225C343.987 16.7361 343.679 16.5729 343.415 16.3473C343.386 16.3233 343.357 16.2993 343.333 16.2753C342.896 16.9377 342.522 17.701 342.205 18.5411C341.133 21.4213 340.821 25.1512 341.417 28.7371C342.008 32.2942 343.487 35.6881 345.994 37.9299C346.941 38.7651 348.031 39.4468 349.28 39.9076ZM360.045 25.6072C359.439 25.7273 359.372 25.2232 360.006 25.1176C360.198 25.0888 360.371 25.0888 360.525 25.1272C360.78 25.1848 360.972 25.324 361.101 25.5256C361.222 25.7129 361.284 25.9529 361.284 26.2217C361.284 26.6681 361.111 27.225 360.751 27.7818C360.616 27.993 360.39 28.2331 360.121 28.4155C359.977 28.5163 359.819 28.5979 359.646 28.6555C359.233 28.7995 359.065 28.3819 359.579 28.1611C359.67 28.1226 359.761 28.0698 359.848 28.0122C360.064 27.8682 360.237 27.681 360.342 27.5178C360.65 27.0378 360.799 26.5817 360.799 26.2217C360.799 26.0441 360.765 25.8953 360.693 25.7897C360.631 25.6936 360.539 25.6312 360.419 25.6024C360.314 25.5784 360.189 25.5784 360.045 25.6072ZM341.686 23.4519C343.036 19.89 347.051 21.7429 347.138 23.6199C346.941 23.4231 346.1 22.9574 345.625 22.919C345.543 25.012 343.06 25.54 342.305 23.3415C342.036 23.3319 341.878 23.3271 341.686 23.4519ZM347.998 32.3422C350.788 34.5936 351.802 30.5997 352.292 29.9852C352.153 34.944 348.348 34.5984 347.998 32.3422ZM347.267 28.6027C347.594 28.7803 348.118 28.9627 349.275 28.9867C346.888 29.9324 346.047 28.8235 346.081 27.7914C346.119 26.3993 347.426 26.6777 347.162 24.4215C348.295 26.0057 345.735 27.7722 347.267 28.6027Z" fill="#FEFEFE"/>
<path fill-rule="evenodd" clip-rule="evenodd" d="M332.672 36.5015C338.228 36.4211 343.682 39.1904 346.801 44.2647C350.514 50.3112 349.807 57.8264 345.589 63.0405C350.257 70.6792 354.791 78.4009 359.597 85.9563C361.79 89.3956 361.24 92.1935 358.231 94.0406C356.647 95.0478 353.108 96.1635 350.589 92.0433C345.838 84.2716 341.082 76.5002 336.332 68.7285C329.769 70.1356 322.747 67.3689 319.034 61.3224C315.915 56.2422 315.917 50.1297 318.496 45.2064C319.819 47.3647 321.148 49.5228 322.471 51.6811C324.318 54.684 328.286 55.6347 331.288 53.7879C332.37 53.1232 333.452 52.4585 334.534 51.7939C337.537 49.947 338.488 45.9794 336.641 42.9706C335.324 40.8179 333.995 38.6599 332.672 36.5015Z" fill="#FF6F3D"/>
<path fill-rule="evenodd" clip-rule="evenodd" d="M345.589 63.0405C349.807 57.8264 350.514 50.3112 346.801 44.2647C344.021 39.7419 339.386 37.0502 334.477 36.5756C333.878 36.5177 333.276 36.4928 332.672 36.5015C332.981 37.0064 333.291 37.5113 333.601 38.0161C333.833 38.3943 334.066 38.7726 334.298 39.1507C335.081 40.4252 335.863 41.6988 336.641 42.9706C338.488 45.9794 337.537 49.947 334.534 51.7939L331.288 53.7879C328.286 55.6347 324.318 54.684 322.471 51.6811C321.809 50.602 321.146 49.5229 320.483 48.4438C320.131 47.8702 319.778 47.2966 319.426 46.723C319.116 46.2175 318.806 45.7119 318.496 45.2064C318.215 45.7422 317.965 46.2921 317.746 46.8532C315.954 51.4479 316.254 56.795 319.034 61.3224C322.747 67.3689 329.769 70.1356 336.332 68.7285C338.706 72.6137 341.083 76.4989 343.459 80.384C345.836 84.2704 348.213 88.1569 350.589 92.0433C353.108 96.1635 356.647 95.0478 358.231 94.0406C361.24 92.1935 361.79 89.3956 359.597 85.9563C356.376 80.8917 353.276 75.7525 350.177 70.6137C348.652 68.0862 347.128 65.5589 345.589 63.0405ZM351.869 91.261C352.905 92.9562 354.01 93.4009 354.878 93.4694C355.849 93.5459 356.807 93.1689 357.426 92.7748L357.436 92.7685L357.446 92.7623C358.695 91.9955 359.242 91.16 359.387 90.3354C359.539 89.4753 359.312 88.2991 358.333 86.7626L358.332 86.7614C355.101 81.6822 351.985 76.5159 348.88 71.3679C347.358 68.8442 345.838 66.325 344.309 63.8226L343.758 62.9198L344.423 62.0972C348.253 57.3617 348.893 50.5379 345.523 45.0501C343.22 41.3019 339.512 38.9378 335.491 38.2266C335.519 38.2722 335.547 38.3178 335.575 38.3634C336.358 39.6389 337.142 40.9149 337.92 42.1867C340.2 45.9015 339.028 50.7914 335.32 53.0715L332.074 55.0656C332.074 55.0657 332.074 55.0654 332.074 55.0656C328.364 57.3469 323.473 56.1735 321.193 52.4669L321.192 52.4651C320.531 51.3867 319.868 50.3083 319.205 49.2291L319.204 49.2274C319.057 48.9868 318.909 48.7462 318.761 48.5055C317.579 52.4152 318.009 56.7868 320.312 60.5374C323.682 66.025 330.057 68.5399 336.017 67.2618L337.057 67.0389L337.612 67.9462C339.987 71.8318 342.363 75.7174 344.74 79.6032L344.749 79.6182C347.123 83.499 349.496 87.3799 351.869 91.261Z" fill="#333333"/>
<path d="M361.76 84.3348C361.935 87.2394 355.87 91.1427 352.166 91.3661C348.463 91.5895 346.685 86.8644 346.51 83.9598C346.335 81.0552 351.306 79.9332 355.01 79.7099C358.714 79.4865 361.646 82.444 361.76 84.3348Z" fill="white"/>
<path fill-rule="evenodd" clip-rule="evenodd" d="M359.669 85.7095C360.175 85.0563 360.275 84.6257 360.263 84.4251C360.242 84.0863 359.85 83.2279 358.806 82.4105C357.831 81.6468 356.524 81.1213 355.1 81.2071C353.325 81.3142 351.335 81.635 349.861 82.2227C348.253 82.864 347.984 83.4885 348.007 83.8695C348.082 85.1173 348.513 86.778 349.294 88.0522C350.072 89.3214 350.999 89.9338 352.076 89.8688C353.554 89.7797 355.731 88.9021 357.559 87.6261C358.454 87.0006 359.187 86.3332 359.669 85.7095ZM352.166 91.3661C355.87 91.1427 361.935 87.2394 361.76 84.3348C361.646 82.444 358.714 79.4865 355.01 79.7099C351.306 79.9332 346.335 81.0552 346.51 83.9598C346.685 86.8644 348.463 91.5895 352.166 91.3661Z" fill="#333333"/>
<defs>
<clipPath id="clip0_16_16896">
<rect width="9" height="7" fill="white" transform="translate(26 26.2336)"/>
</clipPath>
</defs>
</svg>
