<svg width="224" height="121" viewBox="0 0 224 121" fill="none" xmlns="http://www.w3.org/2000/svg">
<path d="M99.6885 70.0732C99.6885 92.2033 117.857 110.192 140.208 110.192C162.56 110.192 180.729 92.2033 180.729 70.0732C180.729 47.943 162.56 29.9548 140.208 29.9548C117.857 29.9548 99.6885 47.943 99.6885 70.0732ZM108.294 70.0732C108.294 52.6767 122.638 38.4755 140.208 38.4755C157.779 38.4755 172.122 52.6767 172.122 70.0732C172.122 87.4696 157.779 101.671 140.208 101.671C122.638 101.671 108.294 87.4696 108.294 70.0732Z" fill="#63308B"/>
<path d="M140.208 110.902C117.378 110.902 98.8516 92.5583 98.8516 69.9548C98.8516 47.3512 117.378 29.0081 140.208 29.0081C163.038 29.0081 181.565 47.3512 181.565 69.9548C181.565 92.5583 163.038 110.902 140.208 110.902ZM140.208 30.6649C118.335 30.6649 100.525 48.298 100.525 69.9548C100.525 91.6116 118.335 109.245 140.208 109.245C162.082 109.245 179.892 91.6116 179.892 69.9548C180.011 48.298 162.201 30.6649 140.208 30.6649ZM140.208 102.381C122.16 102.381 107.458 87.8246 107.458 69.9548C107.458 52.085 122.16 37.5288 140.208 37.5288C158.257 37.5288 172.959 52.085 172.959 69.9548C172.959 87.943 158.257 102.381 140.208 102.381ZM140.208 39.1856C123.116 39.1856 109.131 53.0317 109.131 69.9548C109.131 86.8779 123.116 100.724 140.208 100.724C157.301 100.724 171.286 86.8779 171.286 69.9548C171.405 53.0317 157.42 39.1856 140.208 39.1856Z" fill="#A681C5"/>
<path d="M142.359 11.73H158.495L146.781 23.9193H137.697L142.359 11.73Z" fill="#63308B"/>
<path d="M147.141 24.7478H136.503L141.882 10.9016H160.528L147.141 24.7478ZM138.774 23.2093H146.424L156.584 12.5584H142.957L138.774 23.2093Z" fill="#A680C4"/>
<path d="M125.507 48.2981H155.15V58.1206H136.862V64.3928H153.955V74.2153H136.862V80.4874H155.15V90.3099H125.507V48.2981Z" fill="#63308B"/>
<path d="M155.986 91.1386H124.67V47.47H155.867V58.8309H137.579V63.5646H154.671V74.9256H137.579V79.6593H155.867V91.1386H155.986ZM126.343 89.4818H154.313V81.3161H136.025V73.3871H153.118V65.2215H136.025V57.2925H154.313V49.1268H126.343V89.4818Z" fill="#A680C4"/>
<path d="M48.651 64.2743H44.4675C43.8699 64.2743 43.3918 64.0376 43.0332 63.6826C42.6746 63.3276 42.4355 62.8542 42.4355 62.2625V55.0436C42.4355 54.4518 42.6746 53.9785 43.0332 53.6234C43.3918 53.2684 43.9894 53.0317 44.4675 53.0317H46.4995V51.0199H42.7941V49.0081H46.4995C47.0971 49.0081 47.5753 49.2447 47.9338 49.5998C48.2924 49.9548 48.5315 50.4282 48.5315 51.0199V64.2743H48.651ZM44.4675 62.2625H46.4995V55.0436H44.4675V62.2625Z" fill="#164193"/>
<path d="M58.4537 61.434C58.4537 61.789 58.3342 62.2624 58.2147 62.6175C58.0952 62.9725 57.8561 63.3275 57.4975 63.5642C57.2585 63.8009 56.8999 64.0376 56.5413 64.1559C56.1827 64.2743 55.7046 64.3926 55.346 64.3926C54.8679 64.3926 54.5093 64.2743 54.1507 64.1559C53.7921 64.0376 53.4336 63.8009 53.1945 63.5642C52.9555 63.3275 52.7164 62.9725 52.4773 62.6175C52.3578 62.2624 52.2383 61.9074 52.2383 61.434V51.8482C52.2383 51.4932 52.3578 51.0198 52.4773 50.6648C52.5969 50.3098 52.8359 49.9547 53.1945 49.7181C53.4336 49.4814 53.7921 49.2447 54.1507 49.1263C54.5093 49.008 54.9874 48.8896 55.346 48.8896C55.8241 48.8896 56.1827 49.008 56.5413 49.1263C56.8999 49.2447 57.2585 49.4814 57.4975 49.7181C57.7366 49.9547 57.9756 50.3098 58.2147 50.6648C58.3342 51.0198 58.4537 51.3749 58.4537 51.8482V53.0317H56.4218V51.0198H54.3898V62.2624H56.4218V60.2506H58.4537V61.434Z" fill="#164193"/>
<path d="M68.3727 64.2746H64.1892C63.5916 64.2746 63.1135 64.0379 62.7549 63.6829C62.3963 63.3278 62.1572 62.8545 62.1572 62.2627V55.0438C62.1572 54.4521 62.3963 53.9787 62.7549 53.6237C63.1135 53.2687 63.7111 53.032 64.1892 53.032H66.2212V51.0201H62.5158V49.0083H66.2212C66.8188 49.0083 67.2969 49.245 67.6555 49.6C68.0141 49.955 68.2532 50.4284 68.2532 51.0201V64.2746H68.3727ZM64.1892 62.2627H66.2212V55.0438H64.1892V62.2627Z" fill="#164193"/>
<path d="M78.2946 64.2747H74.1111C73.5134 64.2747 73.0353 64.038 72.6767 63.683C72.3182 63.3279 72.0791 62.8546 72.0791 62.2629V51.0202C72.0791 50.4285 72.3182 49.9552 72.6767 49.6001C73.0353 49.2451 73.633 49.0084 74.1111 49.0084H76.1431V45.2214H78.175V64.2747H78.2946ZM74.1111 62.2629H76.1431V51.0202H74.1111V62.2629Z" fill="#164193"/>
<path d="M81.8812 51.8485C81.8812 51.4935 82.0008 51.0201 82.1203 50.6651C82.2398 50.31 82.4789 49.955 82.8375 49.7183C83.0765 49.4816 83.4351 49.2449 83.7937 49.1266C84.1523 49.0083 84.6304 48.8899 84.989 48.8899C85.4671 48.8899 85.8257 49.0083 86.1843 49.1266C86.5428 49.2449 86.9014 49.4816 87.1405 49.7183C87.3795 49.955 87.6186 50.31 87.8577 50.6651C87.9772 51.0201 88.0967 51.3751 88.0967 51.8485V57.6473H83.9132V62.2627H85.9452V60.2509H87.9772V61.4343C87.9772 61.7893 87.8577 62.2627 87.7381 62.6177C87.6186 62.9727 87.3795 63.3278 87.021 63.5645C86.7819 63.8011 86.4233 64.0378 86.0647 64.1562C85.7062 64.2745 85.228 64.3929 84.8695 64.3929C84.3913 64.3929 84.0328 64.2745 83.6742 64.1562C83.3156 64.0378 82.957 63.8011 82.7179 63.5645C82.4789 63.3278 82.2398 62.9727 82.0008 62.6177C81.8812 62.2627 81.7617 61.9077 81.7617 61.4343V51.8485H81.8812ZM87.9772 45.9313L82.2398 48.0615V46.168L87.9772 44.0378V45.9313ZM84.0328 55.6355H86.0647V51.0201H84.0328V55.6355Z" fill="#164193"/>
<path d="M91.8027 49.0083H100.17C100.767 49.0083 101.245 49.245 101.604 49.6C101.963 49.955 102.202 50.4284 102.202 51.0201V64.2746H100.17V51.0201H98.1377V64.2746H96.1058V51.0201H93.9542V64.2746H91.9223V49.0083H91.8027Z" fill="#164193"/>
<path d="M107.938 47.2333H105.906V45.2214H107.938V47.2333ZM107.938 64.393C107.341 64.393 106.862 64.1563 106.504 63.8013C106.145 63.4463 105.906 62.9729 105.906 62.4995V49.0084H107.938V64.393Z" fill="#164193"/>
<path d="M111.642 51.8482C111.642 51.4932 111.761 51.0198 111.881 50.6648C112 50.3098 112.239 49.9547 112.598 49.7181C112.837 49.4814 113.195 49.2447 113.554 49.1263C113.913 49.008 114.391 48.8896 114.749 48.8896C115.227 48.8896 115.586 49.008 115.945 49.1263C116.303 49.2447 116.662 49.4814 116.901 49.7181C117.14 49.9547 117.379 50.3098 117.618 50.6648C117.738 51.0198 117.857 51.3749 117.857 51.8482V57.647H113.674V62.2624H115.706V60.2506H117.857V61.434C117.857 61.789 117.738 62.2624 117.618 62.6175C117.498 62.9725 117.259 63.3275 116.901 63.5642C116.662 63.8009 116.303 64.0376 115.945 64.1559C115.586 64.2743 115.108 64.3926 114.749 64.3926C114.271 64.3926 113.913 64.2743 113.554 64.1559C113.195 64.0376 112.837 63.8009 112.598 63.5642C112.359 63.3275 112.12 62.9725 111.881 62.6175C111.761 62.2624 111.642 61.9074 111.642 61.434V51.8482ZM113.674 55.6352H115.706V51.0198H113.674V55.6352Z" fill="#164193"/>
<path d="M85.1068 70.3101H87.1388V87.3515H89.1708V83.4462H91.2028V89.3633H84.9873V70.3101H85.1068Z" fill="#164193"/>
<path d="M96.5808 72.3219H94.5488V70.3101H96.5808V72.3219ZM96.5808 89.4817C95.9832 89.4817 95.5051 89.245 95.1465 88.89C94.7879 88.5349 94.5488 88.0615 94.5488 87.4698V74.097H96.5808V89.4817Z" fill="#164193"/>
<path d="M100.167 70.1917C100.765 70.1917 101.243 70.4283 101.601 70.7834C101.96 71.1384 102.199 71.6118 102.199 72.2035V89.3632H100.167V70.1917Z" fill="#164193"/>
<path d="M105.904 70.1917C106.502 70.1917 106.98 70.4283 107.339 70.7834C107.697 71.1384 107.936 71.6118 107.936 72.2035V89.3632H105.904V70.1917Z" fill="#164193"/>
<path d="M111.644 76.9393C111.644 76.5843 111.763 76.1109 111.883 75.7559C112.003 75.4008 112.242 75.0458 112.6 74.8091C112.839 74.5724 113.198 74.3357 113.556 74.2174C113.915 74.0991 114.393 73.9807 114.752 73.9807C115.23 73.9807 115.588 74.0991 115.947 74.2174C116.306 74.3357 116.664 74.5724 116.903 74.8091C117.142 75.0458 117.381 75.4008 117.62 75.7559C117.74 76.1109 117.859 76.4659 117.859 76.9393V82.7381H113.676V87.3535H115.708V85.3417H117.74V86.5251C117.74 86.8801 117.62 87.3535 117.501 87.7085C117.381 88.0635 117.142 88.4186 116.784 88.6553C116.545 88.8919 116.186 89.1286 115.827 89.247C115.469 89.3653 114.991 89.4837 114.632 89.4837C114.154 89.4837 113.795 89.3653 113.437 89.247C113.078 89.1286 112.72 88.8919 112.481 88.6553C112.242 88.4186 112.003 88.0635 111.763 87.7085C111.644 87.3535 111.524 86.9985 111.524 86.5251V76.9393H111.644ZM113.795 80.7263H115.827V76.1109H113.795V80.7263Z" fill="#164193"/>
</svg>
