<svg width="284" height="70" viewBox="0 0 284 70" fill="none" xmlns="http://www.w3.org/2000/svg">
<g clip-path="url(#clip0_2530_2240)">
<path d="M91.2004 9.25H96.1904C98.3004 9.25 99.0904 9.99 99.0904 11.39C99.0904 12.61 98.4804 13.42 97.3104 13.73H97.3004V13.76C98.2004 13.95 98.7704 14.81 98.7704 15.71C98.7704 18.05 96.8904 18.98 94.7704 18.98H89.1904L91.2004 9.25ZM92.5904 16.65H94.5104C95.0404 16.65 95.7804 16.46 95.7804 15.67C95.7804 14.95 95.2504 14.84 94.6204 14.84H92.9704L92.5904 16.65ZM93.3404 13.03H95.0204C95.5004 13.03 96.0904 12.85 96.0904 12.25C96.0904 11.66 95.7004 11.56 95.1704 11.56H93.6304L93.3404 13.03Z" fill="#213970"/>
<path d="M100.23 14.04C100.65 12.16 102.11 11.73 103.84 11.73C105.12 11.73 107.27 11.89 107.27 13.61C107.27 14.71 106.41 17.88 106.41 18.35C106.46 18.89 106.41 18.65 106.52 18.98H103.88C103.81 18.76 103.77 18.53 103.78 18.3H103.75C103.27 18.87 102.36 19.16 101.57 19.16C100.36 19.16 99.2803 18.63 99.2803 17.28C99.2803 15.41 100.67 14.91 102.69 14.76C103.45 14.7 104.67 14.81 104.67 13.94C104.67 13.45 104.23 13.33 103.83 13.33C103.29 13.33 102.9 13.52 102.76 14.05H100.23V14.04ZM102.84 17.55C103.75 17.55 104.12 16.88 104.28 15.83C103.84 16.05 103.34 16.1 102.85 16.14C102.4 16.18 101.98 16.41 101.98 16.93C101.98 17.43 102.4 17.55 102.84 17.55Z" fill="#213970"/>
<path d="M109.241 11.9H111.851L111.621 13H111.651C112.121 12.25 113.011 11.72 113.701 11.72C114.151 11.72 114.411 11.75 114.651 11.83L114.151 14.21C113.821 14.09 113.451 14.03 113.111 14.03C111.971 14.03 111.401 14.52 111.081 16L110.471 18.95H107.771L109.241 11.9Z" fill="#213970"/>
<path d="M119.25 14.58C119.26 14.24 119.21 14.02 119.06 13.89C118.92 13.74 118.69 13.69 118.38 13.69C117.21 13.69 116.9 15.23 116.9 15.9C116.9 16.57 117.05 17.19 117.82 17.19C118.56 17.19 118.85 16.55 119 16.15H121.59C121.13 18.16 119.83 19.14 117.79 19.14C114.8 19.14 114.2 17.23 114.2 15.91C114.2 13.5 115.76 11.72 118.46 11.72C120.42 11.72 121.88 12.6 121.84 14.58H119.25Z" fill="#213970"/>
<path d="M129.541 16.91C129.361 17.39 128.831 19.14 125.781 19.14C123.281 19.14 122.271 17.74 122.271 16.02C122.271 12.79 124.751 11.72 126.501 11.72C128.061 11.72 129.961 12.59 129.961 14.81C129.961 15.19 129.951 15.6 129.821 16.03H124.791C124.791 16.78 125.051 17.4 125.891 17.4C126.481 17.4 126.811 17.14 126.951 16.89H129.541V16.91ZM127.421 14.64C127.431 14.57 127.451 14.48 127.451 14.41C127.451 13.88 127.111 13.46 126.431 13.46C125.711 13.46 125.231 13.9 125.031 14.64H127.421Z" fill="#213970"/>
<path d="M132.55 9.25H135.24L133.23 18.97H130.53L132.55 9.25Z" fill="#213970"/>
<path d="M139.491 11.73C141.561 11.73 142.921 12.69 142.921 14.82C142.921 16.63 141.911 19.15 138.661 19.15C136.711 19.15 135.131 18.21 135.131 15.84C135.131 13.58 136.601 11.73 139.491 11.73ZM138.781 17.19C139.841 17.19 140.221 15.62 140.221 15.01C140.221 14.17 140.001 13.69 139.281 13.69C138.201 13.69 137.821 15.31 137.821 16.05C137.831 16.61 138.021 17.19 138.781 17.19Z" fill="#213970"/>
<path d="M144.791 11.9H147.391L147.191 12.8H147.221C147.741 12.16 148.561 11.72 149.411 11.72C150.651 11.72 151.711 12.24 151.711 13.62C151.711 13.93 151.631 14.45 151.521 14.97L150.661 18.96H147.961L148.651 15.72C148.731 15.31 148.871 14.83 148.871 14.55C148.871 14.1 148.541 13.87 148.111 13.87C147.251 13.87 146.971 14.48 146.801 15.22L146.011 18.96H143.311L144.791 11.9Z" fill="#213970"/>
<path d="M153.17 14.04C153.59 12.16 155.05 11.73 156.78 11.73C158.06 11.73 160.21 11.89 160.21 13.61C160.21 14.71 159.35 17.88 159.35 18.35C159.4 18.89 159.35 18.65 159.46 18.98H156.82C156.75 18.76 156.71 18.53 156.73 18.3H156.7C156.23 18.87 155.31 19.16 154.52 19.16C153.31 19.16 152.23 18.63 152.23 17.28C152.23 15.41 153.62 14.91 155.65 14.76C156.41 14.7 157.62 14.81 157.62 13.94C157.62 13.45 157.19 13.33 156.78 13.33C156.24 13.33 155.85 13.52 155.71 14.05H153.17V14.04ZM155.78 17.55C156.69 17.55 157.06 16.88 157.22 15.83C156.78 16.05 156.28 16.1 155.79 16.14C155.34 16.18 154.92 16.41 154.92 16.93C154.92 17.43 155.34 17.55 155.78 17.55Z" fill="#213970"/>
<path d="M95.4901 27.8001C95.5001 27.4101 95.3701 27.1601 95.1501 27.0001C94.9301 26.8401 94.6201 26.7801 94.2801 26.7801C93.7801 26.7801 93.1201 26.9301 93.1201 27.5701C93.1201 28.3001 94.5801 28.3401 95.5301 28.6801C97.2201 29.2801 97.7901 30.2001 97.7901 31.3601C97.7901 33.7001 95.5201 34.8001 93.4101 34.8001C91.1801 34.8001 89.1601 33.7801 89.2901 31.3001H92.1901C92.1901 31.8301 92.3101 32.1601 92.5501 32.4001C92.8101 32.6201 93.1601 32.6501 93.6601 32.6501C94.2401 32.6501 94.9601 32.3501 94.9601 31.7101C94.9601 31.0001 93.9701 30.9101 92.6201 30.4601C91.4401 30.0701 90.2901 29.4401 90.2901 27.8201C90.2901 25.6301 92.4201 24.6201 94.3701 24.6201C96.4401 24.6201 98.3001 25.4001 98.2501 27.7901H95.4901V27.8001Z" fill="#213970"/>
<path d="M105.481 34.58H102.871L103.091 33.68H103.061C102.481 34.38 101.701 34.76 100.791 34.76C99.5708 34.76 98.5508 34.23 98.5508 32.88C98.5508 32.27 98.7808 31.41 99.6008 27.52H102.301L101.511 31.21C101.401 31.58 101.401 31.95 101.401 31.95C101.401 32.38 101.781 32.62 102.171 32.62C103.381 32.62 103.441 31.3 103.651 30.4L104.261 27.53H106.951L105.481 34.58Z" fill="#213970"/>
<path d="M108.5 27.5101H111.11L110.95 28.3101H110.98C111.44 27.6601 112.04 27.3301 112.87 27.3301C114.85 27.3301 115.44 28.9801 115.44 30.2301C115.44 32.3301 114.39 34.7501 111.99 34.7501C111.22 34.7501 110.45 34.6501 109.87 33.7201L109.23 36.8601H106.53L108.5 27.5101ZM112.75 30.5501C112.75 29.8601 112.56 29.3001 111.77 29.3001C110.57 29.3001 110.35 31.0101 110.35 31.6401C110.35 31.9001 110.45 32.8001 111.33 32.8001C112.41 32.7901 112.75 31.4601 112.75 30.5501Z" fill="#213970"/>
<path d="M123.48 32.5201C123.3 33.0001 122.77 34.7501 119.72 34.7501C117.22 34.7501 116.21 33.3501 116.21 31.6301C116.21 28.3901 118.69 27.3301 120.44 27.3301C122.01 27.3301 123.9 28.2001 123.9 30.4201C123.9 30.8001 123.89 31.2101 123.76 31.6401H118.73C118.73 32.3901 118.99 33.0101 119.83 33.0101C120.42 33.0101 120.76 32.7501 120.89 32.5101L123.48 32.5201ZM121.36 30.2501C121.38 30.1801 121.39 30.0901 121.39 30.0201C121.39 29.4901 121.05 29.0701 120.37 29.0701C119.65 29.0701 119.17 29.5101 118.97 30.2501H121.36Z" fill="#213970"/>
<path d="M125.87 27.5101H128.48L128.25 28.6101H128.28C128.76 27.8601 129.64 27.3301 130.34 27.3301C130.79 27.3301 131.05 27.3501 131.29 27.4401L130.78 29.8201C130.45 29.7001 130.09 29.6401 129.75 29.6401C128.61 29.6401 128.04 30.1301 127.72 31.6201L127.11 34.5701H124.41L125.87 27.5101Z" fill="#213970"/>
<path d="M135.881 30.2001C135.901 29.8601 135.841 29.6401 135.691 29.5101C135.561 29.3601 135.331 29.3101 135.011 29.3101C133.841 29.3101 133.531 30.8501 133.531 31.5101C133.531 32.1701 133.681 32.8001 134.461 32.8001C135.201 32.8001 135.491 32.1601 135.641 31.7701H138.231C137.771 33.7801 136.481 34.7601 134.431 34.7601C131.441 34.7601 130.841 32.8501 130.841 31.5401C130.841 29.1301 132.411 27.3501 135.101 27.3501C137.061 27.3501 138.511 28.2401 138.471 30.2101H135.881V30.2001Z" fill="#213970"/>
<path d="M143.26 27.3401C145.33 27.3401 146.69 28.2901 146.69 30.4301C146.69 32.2401 145.68 34.7601 142.43 34.7601C140.48 34.7601 138.91 33.8201 138.91 31.4501C138.9 29.1901 140.37 27.3401 143.26 27.3401ZM142.55 32.7901C143.61 32.7901 143.99 31.2201 143.99 30.6101C143.99 29.7701 143.77 29.2901 143.05 29.2901C141.97 29.2901 141.59 30.9101 141.59 31.6501C141.6 32.2201 141.79 32.7901 142.55 32.7901Z" fill="#213970"/>
<path d="M148.57 27.5101H151.18L150.99 28.4301H151.02C151.56 27.7701 152.34 27.3301 153.24 27.3301C154.16 27.3301 154.97 27.6301 155.14 28.5001C155.73 27.7701 156.52 27.3301 157.45 27.3301C158.82 27.3301 159.71 27.9701 159.71 29.4301C159.71 29.7601 159.6 30.2301 159.55 30.5501L158.69 34.5801H156L156.72 31.2001C156.74 31.0601 156.88 30.3701 156.88 30.1701C156.88 29.7201 156.62 29.4901 156.19 29.4901C155.66 29.4901 155.27 29.7901 155.17 30.3101L154.25 34.5801H151.56L152.38 30.8001C152.42 30.6201 152.49 30.3301 152.49 30.1401C152.49 29.6901 152.24 29.4901 151.81 29.4901C151.14 29.4901 150.8 29.9201 150.68 30.5401L149.81 34.5801H147.12L148.57 27.5101Z" fill="#213970"/>
<path d="M161.68 27.5101H164.3L164.13 28.3101H164.16C164.62 27.6601 165.22 27.3301 166.05 27.3301C168.04 27.3301 168.62 28.9801 168.62 30.2301C168.62 32.3301 167.57 34.7501 165.18 34.7501C164.4 34.7501 163.64 34.6501 163.05 33.7201L162.41 36.8601H159.71L161.68 27.5101ZM165.93 30.5501C165.93 29.8601 165.74 29.3001 164.95 29.3001C163.75 29.3001 163.53 31.0101 163.53 31.6401C163.53 31.9001 163.63 32.8001 164.51 32.8001C165.59 32.7901 165.93 31.4601 165.93 30.5501Z" fill="#213970"/>
<path d="M176.3 34.58H173.69L173.91 33.68H173.88C173.29 34.38 172.52 34.76 171.61 34.76C170.39 34.76 169.37 34.23 169.37 32.88C169.37 32.27 169.6 31.41 170.42 27.52H173.12L172.33 31.21C172.22 31.58 172.22 31.95 172.22 31.95C172.22 32.38 172.6 32.62 173 32.62C174.21 32.62 174.27 31.3 174.48 30.4L175.09 27.53H177.78L176.3 34.58Z" fill="#213970"/>
<path d="M182.411 27.5101H183.871L183.491 29.1701H182.061L181.581 31.4401C181.531 31.6701 181.461 31.9201 181.461 32.1501C181.461 32.3801 181.581 32.5701 182.011 32.5701C182.451 32.5701 182.681 32.5401 182.901 32.5301L182.491 34.4801C182.011 34.5601 181.521 34.6301 181.031 34.6601C180.461 34.6601 179.841 34.6601 179.331 34.3701C178.871 34.1101 178.601 33.5501 178.601 33.0401C178.601 32.6601 178.681 32.4001 178.751 32.0701L179.381 29.1701H178.181L178.561 27.5101H179.731L180.201 25.3701H182.891L182.411 27.5101Z" fill="#213970"/>
<path d="M184.92 27.5101H187.62L186.15 34.5701H183.46L184.92 27.5101ZM187.76 26.7501H185.06L185.45 24.8601H188.15L187.76 26.7501Z" fill="#213970"/>
<path d="M189.14 27.5101H191.74L191.54 28.4101H191.57C192.08 27.7701 192.9 27.3401 193.76 27.3401C195 27.3401 196.06 27.8601 196.06 29.2501C196.06 29.5601 195.98 30.0801 195.87 30.6001L195 34.5801H192.31L193 31.3401C193.08 30.9301 193.22 30.4501 193.22 30.1701C193.22 29.7201 192.89 29.4901 192.46 29.4901C191.6 29.4901 191.32 30.1001 191.15 30.8401L190.36 34.5801H187.66L189.14 27.5101Z" fill="#213970"/>
<path d="M203.85 33.3501C203.44 35.3401 203.07 37.0401 199.66 37.0401C198.83 37.0401 196.3 36.9501 196.39 34.6801H199.06C199.06 34.9601 199.13 35.1401 199.28 35.2901C199.42 35.4001 199.63 35.4401 199.91 35.4401C200.73 35.4401 200.93 34.8101 201.07 34.1901L201.24 33.4401H201.21C200.8 33.9001 200.18 34.1501 199.53 34.1501C197.84 34.1501 196.77 33.0801 196.77 31.4001C196.77 29.3801 197.97 27.3301 200.17 27.3301C201.04 27.3301 201.85 27.5901 202.27 28.4201H202.3L202.48 27.5101H205.08L203.85 33.3501ZM199.44 31.3001C199.44 31.9301 199.75 32.4301 200.36 32.4301C201.64 32.4301 201.86 30.8801 201.86 30.4001C201.86 29.9701 201.82 29.3001 200.85 29.3001C199.79 29.3001 199.44 30.4701 199.44 31.3001Z" fill="#213970"/>
<path d="M99.0008 46.5C98.8208 47.49 98.0608 50.42 94.0208 50.42C91.2008 50.42 89.8408 48.59 89.8408 46C89.8408 42.85 91.8008 40.24 95.1108 40.24C97.2708 40.24 99.2008 41.18 99.2608 44.09H96.4308C96.4608 43.18 96.0208 42.66 95.0908 42.66C93.4308 42.66 92.8308 44.57 92.8308 45.94C92.8308 46.74 93.0208 48 94.4008 48C95.3408 48 95.8708 47.36 96.0608 46.5H99.0008Z" fill="#213970"/>
<path d="M107.1 48.1299C106.92 48.6099 106.39 50.3599 103.34 50.3599C100.84 50.3599 99.8301 48.9599 99.8301 47.2399C99.8301 43.9999 102.31 42.9399 104.06 42.9399C105.63 42.9399 107.52 43.8099 107.52 46.0299C107.52 46.4099 107.51 46.8199 107.38 47.2499H102.35C102.35 47.9999 102.61 48.6199 103.45 48.6199C104.04 48.6199 104.37 48.3599 104.51 48.1199H107.1V48.1299ZM104.98 45.8599C104.99 45.7899 105.01 45.6999 105.01 45.6299C105.01 45.0999 104.67 44.6799 103.99 44.6799C103.27 44.6799 102.79 45.1199 102.59 45.8599H104.98Z" fill="#213970"/>
<path d="M109.491 43.1199H112.091L111.891 44.02H111.921C112.431 43.38 113.251 42.95 114.111 42.95C115.351 42.95 116.411 43.4699 116.411 44.8499C116.411 45.1599 116.331 45.68 116.221 46.2L115.361 50.1899H112.661L113.351 46.95C113.441 46.54 113.571 46.0599 113.571 45.7799C113.571 45.3299 113.241 45.0999 112.811 45.0999C111.951 45.0999 111.671 45.71 111.501 46.45L110.711 50.1899H108.011L109.491 43.1199Z" fill="#213970"/>
<path d="M121.41 43.12H122.87L122.49 44.78H121.06L120.58 47.05C120.53 47.28 120.46 47.53 120.46 47.76C120.46 47.99 120.58 48.18 121 48.18C121.44 48.18 121.67 48.15 121.89 48.14L121.48 50.08C121 50.16 120.51 50.23 120.02 50.26C119.45 50.26 118.84 50.26 118.32 49.97C117.86 49.71 117.58 49.16 117.58 48.64C117.58 48.26 117.66 48 117.73 47.67L118.36 44.77H117.16L117.54 43.11H118.71L119.19 40.98H121.88L121.41 43.12Z" fill="#213970"/>
<path d="M130.031 48.1299C129.851 48.6099 129.321 50.3599 126.271 50.3599C123.771 50.3599 122.761 48.9599 122.761 47.2399C122.761 43.9999 125.241 42.9399 126.991 42.9399C128.561 42.9399 130.451 43.8099 130.451 46.0299C130.451 46.4099 130.441 46.8199 130.321 47.2499H125.281C125.281 47.9999 125.541 48.6199 126.391 48.6199C126.971 48.6199 127.311 48.3599 127.451 48.1199H130.031V48.1299ZM127.911 45.8599C127.921 45.7899 127.941 45.6999 127.941 45.6299C127.941 45.0999 127.601 44.6799 126.921 44.6799C126.201 44.6799 125.721 45.1199 125.521 45.8599H127.911Z" fill="#213970"/>
<path d="M132.41 43.1199H135.02L134.79 44.2199H134.82C135.3 43.4699 136.18 42.9399 136.88 42.9399C137.33 42.9399 137.59 42.9699 137.83 43.0499L137.32 45.4299C136.99 45.3099 136.63 45.2499 136.29 45.2499C135.15 45.2499 134.57 45.7399 134.26 47.2199L133.65 50.1699H130.96L132.41 43.1199Z" fill="#213970"/>
<path d="M96.76 60.48C96.36 62.27 95.19 63.37 93.22 63.37C91.04 63.37 89.79 62.07 89.79 59.86C89.79 57.27 91.45 54.99 94.18 54.99C95.91 54.99 97.23 55.91 97.23 57.76H96.16C96.16 56.5 95.34 55.89 94.18 55.89C91.95 55.89 90.85 57.94 90.85 59.87C90.85 61.42 91.61 62.48 93.22 62.48C94.53 62.48 95.35 61.73 95.7 60.48H96.76Z" fill="#213970"/>
<path d="M98.5503 60.57C98.5303 60.74 98.5203 60.91 98.5203 61.08C98.5203 61.98 99.2503 62.48 100.02 62.48C100.85 62.48 101.42 62.09 101.69 61.37H102.64C102.34 62.65 101.28 63.32 100.02 63.32C98.1003 63.32 97.5703 62 97.5703 60.99C97.5703 58.77 98.9603 57.26 100.55 57.26C102.25 57.26 103 58.19 103 59.83C103 60.13 102.95 60.42 102.91 60.58L98.5503 60.57ZM102.05 59.73C102.12 58.91 101.75 58.09 100.7 58.09C99.5803 58.09 98.9703 58.83 98.6903 59.73H102.05Z" fill="#213970"/>
<path d="M104.64 57.39H105.56L105.38 58.26H105.4C105.88 57.61 106.67 57.25 107.46 57.25C108.55 57.25 109.07 57.72 109.07 58.74C109.07 58.99 109 59.43 108.9 59.87L108.19 63.17H107.24L107.98 59.79C108.02 59.58 108.11 59.1 108.11 58.89C108.11 58.34 107.66 58.08 107.1 58.08C106.57 58.08 106.02 58.37 105.67 58.75C105.33 59.04 105.15 59.5 105.03 59.96L104.36 63.16H103.41L104.64 57.39Z" fill="#213970"/>
<path d="M112.18 57.3899H113.33L113.15 58.2299H112L111.28 61.6299C111.27 61.7699 111.25 61.8799 111.25 62.0099C111.25 62.3199 111.53 62.3999 111.82 62.3999C112.01 62.3999 112.19 62.3499 112.37 62.2999L112.2 63.1699C111.98 63.2199 111.75 63.2399 111.53 63.2399C110.82 63.2399 110.23 63.0399 110.23 62.2999C110.23 62.1299 110.25 61.9999 110.28 61.8199L111.04 58.2199H110.07L110.25 57.3799H111.22L111.58 55.6599H112.53L112.18 57.3899Z" fill="#213970"/>
<path d="M114.39 57.3901H115.29L115.01 58.6301H115.03C115.48 57.8401 116.16 57.2501 117.13 57.2501C117.24 57.2501 117.36 57.2301 117.47 57.2501L117.25 58.2701C117.16 58.2601 117.06 58.2601 116.97 58.2601C116.74 58.2601 116.62 58.2601 116.4 58.3101C115.87 58.4401 115.47 58.7901 115.17 59.2501C114.91 59.6201 114.78 60.1701 114.69 60.6101L114.14 63.1701H113.19L114.39 57.3901Z" fill="#213970"/>
<path d="M120.4 57.25C121.95 57.25 122.81 58.1 122.81 59.65C122.81 61.55 121.63 63.32 119.6 63.32C118.08 63.32 117.16 62.3 117.16 60.9C117.16 59 118.37 57.25 120.4 57.25ZM119.7 62.48C121.09 62.48 121.85 60.88 121.85 59.73C121.85 58.82 121.37 58.09 120.32 58.09C118.86 58.09 118.1 59.68 118.1 60.88C118.11 61.84 118.66 62.48 119.7 62.48Z" fill="#213970"/>
<path d="M128.291 55.1799H129.431L132.291 61.7999H132.311L133.651 55.1799H134.681L132.991 63.1799H131.841L129.011 56.5999H128.981L127.631 63.1799H126.601L128.291 55.1799Z" fill="#213970"/>
<path d="M135.2 59.13C135.39 57.84 136.48 57.25 137.71 57.25C138.83 57.25 139.83 57.55 139.83 58.73C139.83 59.06 139.72 59.47 139.65 59.78L139.28 61.36C139.23 61.59 139.12 61.92 139.12 62.19C139.12 62.46 139.24 62.55 139.4 62.55C139.49 62.55 139.61 62.5 139.71 62.47L139.56 63.17C139.41 63.25 139.15 63.3 138.98 63.3C138.45 63.3 138.17 62.99 138.23 62.49L138.21 62.47C137.81 63 137.25 63.31 136.27 63.31C135.31 63.31 134.5 62.86 134.5 61.68C134.5 60 136.15 59.89 137.42 59.78C138.43 59.69 138.88 59.63 138.88 58.86C138.88 58.23 138.22 58.1 137.71 58.1C136.98 58.1 136.26 58.39 136.15 59.14H135.2V59.13ZM136.49 62.48C137.23 62.48 137.78 62.23 138.12 61.72C138.43 61.28 138.49 60.77 138.62 60.23H138.6C138.19 60.48 137.43 60.53 136.74 60.62C136.06 60.72 135.45 60.93 135.45 61.67C135.45 62.21 135.95 62.48 136.49 62.48Z" fill="#213970"/>
<path d="M145.091 59.23C145.091 58.52 144.611 58.1 143.871 58.1C142.401 58.1 141.621 59.56 141.621 60.82C141.621 61.72 141.991 62.48 143.061 62.48C143.881 62.48 144.481 62 144.751 61.29H145.711C145.371 62.58 144.401 63.32 143.071 63.32C141.491 63.32 140.681 62.38 140.681 60.82C140.681 58.98 141.811 57.26 143.881 57.26C145.191 57.26 146.011 57.89 146.051 59.23H145.091Z" fill="#213970"/>
<path d="M147.6 57.3899H148.56L147.35 63.1799H146.4L147.6 57.3899ZM148.78 56.3499H147.81L148.06 55.1799H149.02L148.78 56.3499Z" fill="#213970"/>
<path d="M152.361 57.25C153.901 57.25 154.771 58.1 154.771 59.65C154.771 61.55 153.591 63.32 151.571 63.32C150.041 63.32 149.131 62.3 149.131 60.9C149.121 59 150.331 57.25 152.361 57.25ZM151.671 62.48C153.061 62.48 153.821 60.88 153.821 59.73C153.821 58.82 153.341 58.09 152.291 58.09C150.831 58.09 150.071 59.68 150.071 60.88C150.081 61.84 150.631 62.48 151.671 62.48Z" fill="#213970"/>
<path d="M156.531 57.39H157.451L157.271 58.26H157.291C157.771 57.61 158.561 57.25 159.351 57.25C160.441 57.25 160.961 57.72 160.961 58.74C160.961 58.99 160.891 59.43 160.791 59.87L160.091 63.17H159.141L159.881 59.79C159.921 59.58 160.011 59.1 160.011 58.89C160.011 58.34 159.561 58.08 159.001 58.08C158.471 58.08 157.921 58.37 157.571 58.75C157.231 59.04 157.061 59.5 156.931 59.96L156.261 63.16H155.311L156.531 57.39Z" fill="#213970"/>
<path d="M162.19 59.13C162.38 57.84 163.47 57.25 164.7 57.25C165.82 57.25 166.82 57.55 166.82 58.73C166.82 59.06 166.71 59.47 166.64 59.78L166.27 61.36C166.22 61.59 166.11 61.92 166.11 62.19C166.11 62.46 166.24 62.55 166.39 62.55C166.48 62.55 166.6 62.5 166.69 62.47L166.54 63.17C166.4 63.25 166.13 63.3 165.96 63.3C165.43 63.3 165.15 62.99 165.21 62.49L165.19 62.47C164.78 63 164.22 63.31 163.25 63.31C162.28 63.31 161.48 62.86 161.48 61.68C161.48 60 163.13 59.89 164.4 59.78C165.41 59.69 165.86 59.63 165.86 58.86C165.86 58.23 165.2 58.1 164.69 58.1C163.96 58.1 163.25 58.39 163.13 59.14H162.19V59.13ZM163.48 62.48C164.22 62.48 164.77 62.23 165.11 61.72C165.42 61.28 165.48 60.77 165.62 60.23H165.6C165.19 60.48 164.43 60.53 163.74 60.62C163.06 60.72 162.45 60.93 162.45 61.67C162.44 62.21 162.94 62.48 163.48 62.48Z" fill="#213970"/>
<path d="M169.04 55.1799H169.99L168.31 63.1799H167.36L169.04 55.1799Z" fill="#213970"/>
<path d="M178.12 63.1799H177.22L177.42 62.3499H177.4C176.83 63.0999 176.26 63.3099 175.48 63.3099C174 63.3099 173.2 62.3499 173.2 60.9399C173.2 59.1799 174.39 57.2499 176.42 57.2499C177.13 57.2499 178 57.4999 178.22 58.2699H178.24L178.85 55.1799H179.79L178.12 63.1799ZM175.65 62.4799C177.1 62.4799 177.91 60.8099 177.91 59.5999C177.91 58.7399 177.4 58.0999 176.45 58.0999C174.94 58.0999 174.15 59.6699 174.15 60.9499C174.16 61.8799 174.61 62.4799 175.65 62.4799Z" fill="#213970"/>
<path d="M180.77 60.57C180.75 60.74 180.73 60.91 180.73 61.08C180.73 61.98 181.46 62.48 182.23 62.48C183.06 62.48 183.63 62.09 183.9 61.37H184.85C184.55 62.65 183.49 63.32 182.23 63.32C180.31 63.32 179.78 62 179.78 60.99C179.78 58.77 181.17 57.26 182.76 57.26C184.46 57.26 185.21 58.19 185.21 59.83C185.21 60.13 185.15 60.42 185.12 60.58L180.77 60.57ZM184.26 59.73C184.32 58.91 183.96 58.09 182.9 58.09C181.78 58.09 181.17 58.83 180.89 59.73H184.26Z" fill="#213970"/>
<path d="M194.62 57.55C194.65 56.28 193.88 55.89 192.78 55.89C191.99 55.89 190.93 56.25 190.93 57.2C190.93 57.97 191.5 58.29 192.23 58.49L193.31 58.78C194.3 59.05 195.24 59.51 195.24 60.94C195.24 62.59 193.57 63.37 192.13 63.37C190.2 63.37 188.85 62.52 188.98 60.56H190.05C189.98 62.01 190.88 62.48 192.18 62.48C193.18 62.48 194.19 62.02 194.19 60.95C194.19 60.13 193.55 59.84 192.77 59.63L191.68 59.34C190.72 59.08 189.89 58.5 189.89 57.33C189.89 55.78 191.38 55.01 192.8 55.01C194.38 55.01 195.76 55.78 195.7 57.56H194.62V57.55Z" fill="#213970"/>
<path d="M200.67 63.1799H199.75L199.93 62.3099H199.91C199.43 62.9599 198.64 63.3199 197.85 63.3199C196.76 63.3199 196.24 62.8499 196.24 61.8299C196.24 61.5799 196.3 61.1399 196.4 60.6999L197.11 57.3999H198.06L197.32 60.7799C197.27 60.9899 197.18 61.4799 197.18 61.6799C197.18 62.2299 197.63 62.4899 198.19 62.4899C199.24 62.4899 200.06 61.5699 200.26 60.6099L200.93 57.4099H201.88L200.67 63.1799Z" fill="#213970"/>
<path d="M203.441 57.39H204.331L204.131 58.22H204.151C204.721 57.47 205.291 57.26 206.071 57.26C207.551 57.26 208.351 58.22 208.351 59.63C208.351 61.39 207.161 63.32 205.131 63.32C204.421 63.32 203.551 63.07 203.331 62.3H203.311L202.701 65.4H201.761L203.441 57.39ZM205.901 58.09C204.451 58.09 203.641 59.76 203.641 60.97C203.641 61.83 204.151 62.47 205.101 62.47C206.611 62.47 207.401 60.9 207.401 59.62C207.391 58.69 206.951 58.09 205.901 58.09Z" fill="#213970"/>
<path d="M210.041 60.57C210.021 60.74 210.011 60.91 210.011 61.08C210.011 61.98 210.741 62.48 211.511 62.48C212.341 62.48 212.911 62.09 213.181 61.37H214.131C213.831 62.65 212.771 63.32 211.511 63.32C209.591 63.32 209.061 62 209.061 60.99C209.061 58.77 210.451 57.26 212.041 57.26C213.741 57.26 214.491 58.19 214.491 59.83C214.491 60.13 214.441 60.42 214.401 60.58L210.041 60.57ZM213.541 59.73C213.611 58.91 213.241 58.09 212.181 58.09C211.061 58.09 210.451 58.83 210.171 59.73H213.541Z" fill="#213970"/>
<path d="M216.11 57.3901H217.01L216.73 58.6301H216.75C217.2 57.8401 217.88 57.2501 218.86 57.2501C218.97 57.2501 219.09 57.2301 219.2 57.2501L218.98 58.2701C218.89 58.2601 218.79 58.2601 218.7 58.2601C218.47 58.2601 218.35 58.2601 218.12 58.3101C217.6 58.4401 217.19 58.7901 216.89 59.2501C216.64 59.6201 216.5 60.1701 216.41 60.6101L215.86 63.1701H214.91L216.11 57.3901Z" fill="#213970"/>
<path d="M223.351 59.23C223.351 58.52 222.871 58.1 222.131 58.1C220.661 58.1 219.881 59.56 219.881 60.82C219.881 61.72 220.251 62.48 221.311 62.48C222.131 62.48 222.731 62 223.001 61.29H223.951C223.611 62.58 222.641 63.32 221.311 63.32C219.731 63.32 218.931 62.38 218.931 60.82C218.931 58.98 220.061 57.26 222.131 57.26C223.441 57.26 224.261 57.89 224.311 59.23H223.351Z" fill="#213970"/>
<path d="M228.14 57.25C229.69 57.25 230.55 58.1 230.55 59.65C230.55 61.55 229.37 63.32 227.35 63.32C225.82 63.32 224.91 62.3 224.91 60.9C224.9 59 226.11 57.25 228.14 57.25ZM227.44 62.48C228.83 62.48 229.59 60.88 229.59 59.73C229.59 58.82 229.11 58.09 228.06 58.09C226.6 58.09 225.84 59.68 225.84 60.88C225.86 61.84 226.4 62.48 227.44 62.48Z" fill="#213970"/>
<path d="M232.321 57.39H233.211L233.001 58.25L233.021 58.27C233.511 57.67 234.241 57.25 235.041 57.25C235.771 57.25 236.331 57.54 236.501 58.29C236.951 57.67 237.711 57.25 238.481 57.25C239.301 57.25 240.091 57.61 240.091 58.55C240.091 58.88 240.001 59.38 239.921 59.7L239.191 63.17H238.241L239.051 59.5C239.101 59.32 239.141 59.04 239.141 58.87C239.141 58.42 238.761 58.08 238.261 58.08C237.721 58.08 237.131 58.46 236.801 58.87C236.491 59.21 236.361 59.68 236.261 60.17L235.621 63.16H234.671L235.371 59.85C235.471 59.4 235.551 58.96 235.551 58.83C235.551 58.35 235.261 58.07 234.741 58.07C234.211 58.07 233.651 58.43 233.321 58.81C232.921 59.2 232.831 59.55 232.701 60.12L232.051 63.16H231.101L232.321 57.39Z" fill="#213970"/>
<path d="M241.84 57.39H242.74L242.54 58.22H242.56C243.13 57.47 243.7 57.26 244.48 57.26C245.96 57.26 246.76 58.22 246.76 59.63C246.76 61.39 245.57 63.32 243.54 63.32C242.83 63.32 241.96 63.07 241.74 62.3H241.71L241.1 65.4H240.16L241.84 57.39ZM244.3 58.09C242.85 58.09 242.04 59.76 242.04 60.97C242.04 61.83 242.55 62.47 243.5 62.47C245.01 62.47 245.8 60.9 245.8 59.62C245.79 58.69 245.34 58.09 244.3 58.09Z" fill="#213970"/>
<path d="M251.941 63.1799H251.021L251.201 62.3099H251.181C250.701 62.9599 249.911 63.3199 249.121 63.3199C248.031 63.3199 247.511 62.8499 247.511 61.8299C247.511 61.5799 247.581 61.1399 247.681 60.6999L248.381 57.3999H249.331L248.591 60.7799C248.541 60.9899 248.461 61.4799 248.461 61.6799C248.461 62.2299 248.911 62.4899 249.471 62.4899C250.521 62.4899 251.341 61.5699 251.541 60.6099L252.211 57.4099H253.161L251.941 63.1799Z" fill="#213970"/>
<path d="M256.051 57.3899H257.201L257.021 58.2299H255.861L255.141 61.6299C255.131 61.7699 255.111 61.8799 255.111 62.0099C255.111 62.3199 255.391 62.3999 255.681 62.3999C255.871 62.3999 256.051 62.3499 256.231 62.2999L256.061 63.1699C255.841 63.2199 255.611 63.2399 255.391 63.2399C254.681 63.2399 254.091 63.0399 254.091 62.2999C254.091 62.1299 254.111 61.9999 254.141 61.8199L254.901 58.2199H253.931L254.111 57.3799H255.081L255.441 55.6599H256.391L256.051 57.3899Z" fill="#213970"/>
<path d="M257.7 59.13C257.89 57.84 258.98 57.25 260.21 57.25C261.33 57.25 262.33 57.55 262.33 58.73C262.33 59.06 262.22 59.47 262.15 59.78L261.78 61.36C261.73 61.59 261.62 61.92 261.62 62.19C261.62 62.46 261.74 62.55 261.9 62.55C261.99 62.55 262.11 62.5 262.2 62.47L262.05 63.17C261.9 63.25 261.64 63.3 261.47 63.3C260.94 63.3 260.66 62.99 260.72 62.49L260.7 62.47C260.3 63 259.73 63.31 258.76 63.31C257.79 63.31 256.99 62.86 256.99 61.68C256.99 60 258.64 59.89 259.91 59.78C260.92 59.69 261.37 59.63 261.37 58.86C261.37 58.23 260.71 58.1 260.2 58.1C259.47 58.1 258.75 58.39 258.64 59.14H257.7V59.13ZM258.98 62.48C259.72 62.48 260.27 62.23 260.61 61.72C260.92 61.28 260.98 60.77 261.11 60.23H261.09C260.67 60.48 259.92 60.53 259.23 60.62C258.55 60.72 257.94 60.93 257.94 61.67C257.94 62.21 258.45 62.48 258.98 62.48Z" fill="#213970"/>
<path d="M267.58 59.23C267.58 58.52 267.1 58.1 266.36 58.1C264.89 58.1 264.11 59.56 264.11 60.82C264.11 61.72 264.48 62.48 265.54 62.48C266.36 62.48 266.96 62 267.23 61.29H268.18C267.85 62.58 266.87 63.32 265.54 63.32C263.96 63.32 263.15 62.38 263.15 60.82C263.15 58.98 264.28 57.26 266.36 57.26C267.67 57.26 268.49 57.89 268.53 59.23H267.58Z" fill="#213970"/>
<path d="M270.09 57.3899H271.04L269.83 63.1799H268.87L270.09 57.3899ZM271.27 56.3499H270.3L270.55 55.1799H271.51L271.27 56.3499Z" fill="#213970"/>
<path d="M274.861 57.25C276.401 57.25 277.271 58.1 277.271 59.65C277.271 61.55 276.091 63.32 274.071 63.32C272.541 63.32 271.631 62.3 271.631 60.9C271.621 59 272.831 57.25 274.861 57.25ZM274.161 62.48C275.551 62.48 276.311 60.88 276.311 59.73C276.311 58.82 275.831 58.09 274.791 58.09C273.331 58.09 272.571 59.68 272.571 60.88C272.571 61.84 273.121 62.48 274.161 62.48ZM275.691 54.99H276.961L275.441 56.59H274.651L275.691 54.99Z" fill="#213970"/>
<path d="M279.02 57.39H279.94L279.76 58.26H279.78C280.26 57.61 281.05 57.25 281.84 57.25C282.93 57.25 283.46 57.72 283.46 58.74C283.46 58.99 283.39 59.43 283.29 59.87L282.58 63.17H281.63L282.37 59.79C282.41 59.58 282.5 59.1 282.5 58.89C282.5 58.34 282.05 58.08 281.49 58.08C280.96 58.08 280.41 58.37 280.05 58.75C279.72 59.04 279.54 59.5 279.41 59.96L278.74 63.16H277.78L279.02 57.39Z" fill="#213970"/>
<path d="M44.5598 4.6499C47.2998 4.6499 53.0698 5.8999 55.1998 6.4999C33.3698 5.4499 19.6198 20.2399 19.6198 37.2399C19.6198 49.3399 26.8498 62.6899 44.2298 66.6899C24.0698 67.0499 12.2998 50.4199 12.2998 35.9099C12.2998 17.5399 28.0598 4.6499 44.5598 4.6499Z" fill="#213970"/>
<path d="M32.92 0C36.49 0 41.11 1.17 44.39 2.16C43.03 1.99 40.74 2 39.91 2C19.75 2 7.65 19.7 7.65 36.08C7.65 50.17 15.46 65.1 34.25 69.35C11.98 69.92 0 50.42 0 34.58C0 16.17 14.63 0 32.92 0Z" fill="#213970"/>
<path d="M40.0096 37.01H38.0496L37.5996 39.16H39.8796C40.5096 39.16 41.3796 38.93 41.3796 38C41.3796 37.14 40.7496 37.01 40.0096 37.01Z" fill="#213970"/>
<path d="M51.8096 9.07007C36.6196 9.07007 24.3096 21.3801 24.3096 36.5701C24.3096 51.7601 36.6196 64.0701 51.8096 64.0701C66.9996 64.0701 79.3096 51.7601 79.3096 36.5701C79.3096 21.3801 66.9896 9.07007 51.8096 9.07007ZM44.9296 38.0301C44.9296 40.8101 42.6996 41.9101 40.1796 41.9101H33.5596L35.9496 30.3701H41.8796C44.3796 30.3701 45.3196 31.2401 45.3196 32.9101C45.3196 34.3701 44.5896 35.3201 43.1996 35.6901H43.1796V35.7201C44.2596 35.9501 44.9296 36.9601 44.9296 38.0301ZM53.8696 34.9101C55.8696 35.6201 56.5496 36.7201 56.5496 38.1001C56.5496 40.8801 53.8496 42.1801 51.3496 42.1801C48.6996 42.1801 46.3096 40.9701 46.4496 38.0301H49.8896C49.8896 38.6601 50.0396 39.0501 50.3296 39.3401C50.6396 39.6001 51.0596 39.6301 51.6396 39.6301C52.3296 39.6301 53.1896 39.2801 53.1896 38.5201C53.1896 37.6801 52.0096 37.5601 50.4096 37.0301C48.9996 36.5601 47.6396 35.8201 47.6396 33.9001C47.6396 31.3001 50.1596 30.1001 52.4896 30.1001C54.9496 30.1001 57.1596 31.0201 57.0896 33.8701H53.8096C53.8296 33.4001 53.6696 33.1101 53.4096 32.9101C53.1496 32.7201 52.7796 32.6501 52.3696 32.6501C51.7696 32.6501 50.9996 32.8301 50.9996 33.5901C51.0096 34.4601 52.7396 34.5101 53.8696 34.9101ZM64.1096 39.3101C65.2196 39.3101 65.8496 38.5501 66.0796 37.5301H69.5696C69.3596 38.7101 68.4596 42.1801 63.6596 42.1801C60.3096 42.1801 58.6996 40.0201 58.6996 36.9301C58.6996 33.2001 61.0296 30.0901 64.9496 30.0901C67.5196 30.0901 69.8096 31.2101 69.8796 34.6701H66.5196C66.5496 33.5901 66.0296 32.9701 64.9396 32.9701C62.9696 32.9701 62.2596 35.2301 62.2596 36.8601C62.2496 37.8201 62.4796 39.3101 64.1096 39.3101Z" fill="#213970"/>
<path d="M40.6702 33.1201H38.8402L38.4902 34.8701H40.4902C41.0602 34.8701 41.7702 34.6601 41.7702 33.9501C41.7702 33.2501 41.3002 33.1201 40.6702 33.1201Z" fill="#213970"/>
</g>
<defs>
<clipPath id="clip0_2530_2240">
<rect width="283.46" height="69.36" fill="white"/>
</clipPath>
</defs>
</svg>
