<svg width="221" height="67" viewBox="0 0 221 67" fill="none" xmlns="http://www.w3.org/2000/svg">
<g clip-path="url(#clip0_2530_2415)">
<path d="M62.8931 3.72607H0V67.0001H62.8931V3.72607Z" fill="#004B93"/>
<mask id="mask0_2530_2415" style="mask-type:luminance" maskUnits="userSpaceOnUse" x="0" y="3" width="63" height="64">
<path d="M62.8931 3.72607H0V67.0001H62.8931V3.72607Z" fill="white"/>
</mask>
<g mask="url(#mask0_2530_2415)">
<path d="M62.8931 3.72607H0V67.0001H62.8931V3.72607Z" fill="#004B93"/>
</g>
<path d="M34.4346 42.0024H39.0914V37.3171L34.4346 42.0024Z" fill="#B1C1E5"/>
<path d="M25.8223 26.438V29.2047H28.0234V42.1049H25.8223V44.8717H39.0912V42.0024H32.3888V29.2047H34.8276V26.438H25.8223Z" fill="white"/>
<path d="M19.8719 44.1657C21.51 42.8336 21.8664 41.362 21.8664 39.136V29.2617L24.1666 29.2588V26.4921H17.3935V29.2617H18.8392V39.6029C18.8392 41.0546 17.6623 42.2273 16.2222 42.2301C14.3379 42.2301 13.6108 41.0517 13.6108 39.6029V29.2588H15.1245L15.249 26.4949H7.20554L7.08105 29.2617H9.2369L9.24822 38.9112C9.24822 40.9065 9.285 42.0594 10.3375 43.5224C11.2796 44.8375 12.9233 45.478 15.5488 45.4723C17.3963 45.4666 18.8364 45.014 19.8747 44.1686" fill="white"/>
<path d="M49.1347 42.0053C51.002 41.9939 51.8479 41.0688 51.8536 39.4264C51.8593 37.7356 50.7276 36.5742 49.1291 36.5714H47.3863L47.3891 42.0053H49.1376M48.9056 33.9071C50.3966 33.9128 51.2312 33.0219 51.234 31.5958C51.2397 30.127 50.2919 29.2076 48.8999 29.2047H47.3863V33.9099H48.9056V33.9071ZM54.3574 35.6121C55.6362 36.5059 56.4737 37.969 56.4822 39.7367C56.4963 42.5034 53.7152 44.8745 51.152 44.8717H40.8254L40.8226 42.0024H42.9218V29.2047H40.7207V26.438H51.1718C53.7378 26.438 55.8201 28.4533 55.8201 30.9696C55.8201 32.111 55.2543 33.4574 54.3546 34.2914L53.1211 35.0656L54.3603 35.6121H54.3574Z" fill="white"/>
<path d="M81.2124 15.9885C80.5504 16.8083 79.4724 17.5313 77.4665 17.5313C75.4606 17.5313 74.1932 16.9051 73.5311 15.7039C73.1916 15.0947 73.1152 14.7332 73.1152 13.3641V4.20703H74.9514V12.6781C74.9514 13.6317 75.0447 14.7902 75.4239 15.2314C75.7832 15.6498 76.4452 15.9715 77.4863 15.9715C78.4709 15.9715 79.1895 15.6669 79.6054 15.1147C79.9279 14.6962 80.0779 13.9932 80.0779 12.9457V4.20703H81.8942V13.2104C81.8942 14.867 81.8009 15.2655 81.2124 15.9885Z" fill="#004B93"/>
<path d="M95.3047 17.3207L91.8785 10.3554C91.2165 9.00332 90.5347 7.51747 90.2913 6.75746L90.1754 6.77739C90.2687 7.89889 90.3083 9.21396 90.3281 10.4322L90.4045 17.3235H88.5684V4.20703H90.6874L94.3201 11.4427C94.869 12.5272 95.514 14.2209 95.6074 14.5824L95.7206 14.5425C95.6838 14.164 95.531 12.0889 95.531 10.64L95.4942 4.20703H97.254V17.3235H95.3047V17.3207Z" fill="#004B93"/>
<path d="M103.857 17.3207V4.20703H105.711V17.3235H103.857V17.3207Z" fill="#004B93"/>
<path d="M116.459 17.3605H114.679L110.328 4.20703H112.334L114.832 12.049C114.982 12.5073 115.192 13.2104 115.324 13.7825C115.418 14.201 115.494 14.5055 115.531 14.7731H115.644C115.701 14.5055 115.777 14.2607 115.91 13.7825C116.063 13.2474 116.213 12.755 116.439 12.032L118.994 4.20703H120.887L116.459 17.3605Z" fill="#004B93"/>
<path d="M125.637 17.3207V4.20703H132.732L132.486 5.71281H127.473V9.70924H131.671V11.252H127.49V15.7437H132.939V17.3235H125.634L125.637 17.3207Z" fill="#004B93"/>
<path d="M145.025 17.3207C144.645 16.5778 144.476 16.2732 143.947 15.3794C142.945 13.7057 142.623 13.1535 141.695 12.106C141.352 11.7274 141.069 11.5367 140.52 11.5167V17.3235H138.704V4.20703H142.357C143.907 4.20703 144.815 4.56853 145.44 5.1606C146.026 5.71281 146.595 6.58952 146.595 7.86473C146.595 9.9028 145.288 11.5395 143.112 11.4627C143.717 11.9579 144.02 12.3764 144.247 12.6809C144.512 13.0424 144.909 13.6146 145.344 14.3006C145.913 15.1944 146.971 16.9079 147.234 17.3264H145.022L145.025 17.3207ZM143.474 5.9576C143.095 5.80674 142.566 5.70996 141.887 5.70996H140.526V10.2785H141.794C142.948 10.2785 143.59 10.0878 144.046 9.64947C144.442 9.26804 144.691 8.64182 144.691 7.87897C144.691 6.96525 144.198 6.24225 143.48 5.95476L143.474 5.9576Z" fill="#004B93"/>
<path d="M155.677 17.5711C154.18 17.5711 152.743 17.1897 151.476 16.4098L152.194 15.0008C153.329 15.7039 154.407 16.0853 155.714 16.0853C157.417 16.0853 158.532 15.2086 158.532 13.8024C158.532 12.735 157.833 11.9921 156.376 11.5765L155.015 11.178C153.046 10.6059 151.931 9.65514 151.931 7.7907C151.931 5.52492 153.671 3.98499 156.243 3.98499C157.68 3.98499 159.08 4.40342 160.235 5.2232L159.42 6.51834C158.209 5.77541 157.394 5.49076 156.316 5.49076C154.859 5.49076 153.951 6.25077 153.951 7.46905C153.951 8.39985 154.48 8.93498 155.881 9.35341L157.414 9.81169C159.154 10.3241 160.594 11.4683 160.594 13.5036C160.594 15.331 159.097 17.5768 155.674 17.5768L155.677 17.5711Z" fill="#004B93"/>
<path d="M166.329 17.3207V4.20703H168.182V17.3235H166.329V17.3207Z" fill="#004B93"/>
<path d="M181.671 5.72989H178.285V17.3207H176.485V5.72989H173.099V4.20703H181.858L181.668 5.72989H181.671Z" fill="#004B93"/>
<path d="M186.708 17.3207V4.20703H193.804L193.557 5.71281H188.544V9.70924H192.743V11.252H188.561V15.7437H194.01V17.3235H186.705L186.708 17.3207ZM188.827 3.56088L188.278 2.53331L192.081 0.00280762L192.932 1.62244L188.827 3.56373V3.56088Z" fill="#004B93"/>
<path d="M79.6986 41.7946H73.1914V28.6781H75.0445V40.2689H80.0013L79.6986 41.7917V41.7946Z" fill="#004B93"/>
<path d="M84.7881 41.7946V28.6781H86.6412V41.7946H84.7881Z" fill="#004B93"/>
<path d="M99.2622 41.5868C98.6766 41.7377 97.8816 41.7946 97.1997 41.7946H93.2275V28.6781H95.9888C98.1843 28.6781 98.7699 28.735 99.5847 29.1734C100.739 29.7825 101.345 30.7162 101.345 31.9145C101.345 33.2837 100.569 34.3312 98.9793 34.8065C100.948 35.2449 101.893 36.4831 101.893 38.1938C101.893 40.0212 100.776 41.1826 99.2622 41.5811V41.5868ZM98.1079 30.3547C97.8052 30.2607 97.4459 30.2209 96.7838 30.2209H95.0043V34.2173H97.0668C98.2211 34.2173 98.6172 34.0095 98.9963 33.4943C99.2424 33.1499 99.3754 32.6575 99.3754 32.2191C99.3754 31.3054 98.8633 30.5824 98.1051 30.3547H98.1079ZM98.487 35.8569C98.1475 35.78 97.7684 35.743 97.1262 35.743H95.0269V40.3116H97.6015C98.6794 40.3116 99.8903 39.6626 99.8903 37.9889C99.8903 36.9215 99.3047 36.0476 98.4899 35.8569H98.487Z" fill="#004B93"/>
<path d="M113.966 41.7946C113.587 41.0516 113.417 40.7471 112.888 39.8533C111.886 38.1795 111.564 37.6273 110.636 36.5798C110.294 36.2013 110.011 36.0105 109.462 35.9906V41.7974H107.646V28.6809H111.298C112.848 28.6809 113.757 29.0424 114.382 29.6345C114.967 30.1867 115.536 31.0634 115.536 32.3386C115.536 34.3767 114.229 36.0134 112.053 35.9365C112.659 36.4318 112.962 36.8503 113.188 37.1548C113.454 37.5163 113.85 38.0885 114.286 38.7745C114.854 39.6682 115.912 41.3818 116.176 41.8002H113.963L113.966 41.7946ZM112.413 30.4315C112.034 30.2806 111.505 30.1838 110.826 30.1838H109.465V34.7524H110.732C111.886 34.7524 112.529 34.5617 112.984 34.1233C113.38 33.7419 113.629 33.1157 113.629 32.3528C113.629 31.4391 113.137 30.7161 112.418 30.4286L112.413 30.4315Z" fill="#004B93"/>
<path d="M121.761 41.7946V28.6781H128.856L128.61 30.1839H123.597V34.1803H127.795V35.7231H123.614V40.2148H129.063V41.7946H121.758H121.761Z" fill="#004B93"/>
<path d="M80.833 64.498C79.9248 65.6394 78.7139 66.2685 76.4421 66.2685H73.1885V53.152H76.2157C78.4678 53.152 79.905 53.6672 81.0989 55.3238C81.8741 56.4083 82.2532 57.9113 82.2532 59.7216C82.2532 61.8536 81.7044 63.4135 80.833 64.498ZM79.2628 55.7793C78.5441 54.8656 77.7859 54.6179 76.5184 54.6179H75.0444V64.7655H76.4817C77.9755 64.7655 78.9402 64.3642 79.5287 63.2996C80.0012 62.4229 80.2275 61.2416 80.2275 59.9493C80.2275 58.1219 80.038 56.7727 79.2628 55.7793Z" fill="#004B93"/>
<path d="M87.994 66.2685V53.152H95.0897L94.8435 54.6578H89.8302V58.6542H94.0287V60.197H89.8472V64.6887H95.2962V66.2685H87.9912H87.994Z" fill="#004B93"/>
<path d="M113.731 66.0577C113.145 66.2086 112.35 66.2655 111.668 66.2655H107.696V53.149H110.458C112.653 53.149 113.239 53.206 114.053 53.6443C115.208 54.2535 115.813 55.1871 115.813 56.3855C115.813 57.7546 115.038 58.8021 113.448 59.2775C115.417 59.7158 116.362 60.954 116.362 62.6648C116.362 64.4922 115.245 65.6536 113.731 66.0521V66.0577ZM112.577 54.8285C112.274 54.7345 111.915 54.6947 111.253 54.6947H109.473V58.6911H111.536C112.69 58.6911 113.086 58.4833 113.465 57.9681C113.711 57.6237 113.844 57.1284 113.844 56.6929C113.844 55.7792 113.332 55.0562 112.574 54.8285H112.577ZM112.956 60.3278C112.616 60.251 112.237 60.214 111.595 60.214H109.496V64.7825H112.07C113.148 64.7825 114.359 64.1335 114.359 62.4598C114.359 61.3924 113.773 60.5185 112.959 60.3278H112.956Z" fill="#004B93"/>
<path d="M128.432 66.2684C128.053 65.5255 127.883 65.2209 127.354 64.3271C126.352 62.6534 126.03 62.1012 125.102 61.0537C124.759 60.6751 124.477 60.4844 123.928 60.4645V66.2713H122.111V53.1548H125.764C127.314 53.1548 128.222 53.5163 128.848 54.1055C129.433 54.6577 130.002 55.5344 130.002 56.8096C130.002 58.8477 128.695 60.4844 126.519 60.4076C127.125 60.9029 127.427 61.3213 127.654 61.6259C127.92 61.9874 128.316 62.5595 128.751 63.2455C129.32 64.1393 130.378 65.8528 130.641 66.2713H128.429L128.432 66.2684ZM126.881 54.9025C126.502 54.7516 125.973 54.6549 125.294 54.6549H123.933V59.2234H125.201C126.355 59.2234 126.997 59.0327 127.453 58.5944C127.849 58.2129 128.098 57.5867 128.098 56.8239C128.098 55.9102 127.606 55.1872 126.887 54.8997L126.881 54.9025Z" fill="#004B93"/>
<path d="M143.836 64.9363C143.174 65.7561 142.096 66.4791 140.091 66.4791C138.085 66.4791 136.817 65.8528 136.155 64.6516C135.816 64.0425 135.739 63.681 135.739 62.3118V53.1548H137.575V61.6259C137.575 62.5794 137.669 63.7379 138.048 64.1791C138.407 64.5976 139.069 64.9192 140.11 64.9192C141.095 64.9192 141.814 64.6146 142.229 64.0624C142.552 63.644 142.702 62.9409 142.702 61.8934V53.1548H144.518V62.1581C144.518 63.8148 144.425 64.2133 143.836 64.9363Z" fill="#004B93"/>
<path d="M157.069 66.2685L154.135 60.6325L151.317 66.2685H149.104L153.04 59.2064L149.56 53.152H151.772L154.121 57.6067L156.353 53.152H158.529L155.235 59.0897L159.287 66.2656H157.074L157.069 66.2685Z" fill="#004B93"/>
<path d="M164.182 66.2685V53.152H171.277L171.031 54.6578H166.018V58.6542H170.216V60.197H166.035V64.6887H171.484V66.2685H164.179H164.182Z" fill="#004B93"/>
<path d="M183.649 66.2685H177.142V53.152H178.995V64.7428H183.951L183.649 66.2656V66.2685Z" fill="#004B93"/>
<path d="M195.175 66.2685H188.668V53.152H190.521V64.7428H195.478L195.175 66.2656V66.2685Z" fill="#004B93"/>
<path d="M199.96 66.2685V53.152H207.055L206.809 54.6578H201.796V58.6542H205.995V60.197H201.813V64.6887H207.262V66.2685H199.957H199.96Z" fill="#004B93"/>
<path d="M216.077 66.5161C214.584 66.5161 213.146 66.1347 211.879 65.3547L212.598 63.9457C213.732 64.6488 214.81 65.0302 216.117 65.0302C217.82 65.0302 218.935 64.1535 218.935 62.7474C218.935 61.68 218.236 60.937 216.779 60.5214L215.418 60.1229C213.449 59.5508 212.334 58.6001 212.334 56.7357C212.334 54.4699 214.074 52.9299 216.646 52.9299C218.083 52.9299 219.487 53.3484 220.638 54.1681L219.823 55.4633C218.612 54.7204 217.798 54.4357 216.72 54.4357C215.263 54.4357 214.354 55.1957 214.354 56.414C214.354 57.3448 214.883 57.8799 216.284 58.2984L217.817 58.7566C219.557 59.269 220.997 60.4133 220.997 62.4485C220.997 64.2731 219.501 66.5218 216.077 66.5218V66.5161Z" fill="#004B93"/>
</g>
<defs>
<clipPath id="clip0_2530_2415">
<rect width="221" height="67" fill="white"/>
</clipPath>
</defs>
</svg>
