<svg width="224" height="121" viewBox="0 0 224 121" fill="none" xmlns="http://www.w3.org/2000/svg">
<path d="M30.5 79.5226H33.0824V67.5718H30.5V79.5226Z" fill="black"/>
<path d="M38.878 67.571L41.6248 75.7905H41.6592L44.2588 67.571H47.8939V79.5231H45.4758V71.0523H45.4413L42.5631 79.5231H40.5721L37.6939 71.1365H37.6594V79.5231H35.2412V67.571H38.878Z" fill="black"/>
<path d="M49.0303 69.7806V67.5713H58.653V69.7806H55.1323V79.5233H52.5498V69.7806H49.0303Z" fill="black"/>
<path d="M70.5782 74.9028L69.0983 70.5175H69.0638L67.5353 74.9028H70.5782ZM70.4298 67.5713L74.8221 79.5221H72.141L71.2525 76.8607H66.8604L65.9391 79.5221H63.3408L67.7817 67.5713H70.4298Z" fill="black"/>
<path d="M79.8904 70.8686V72.4587H78.1793V76.7437C78.1793 77.1462 78.245 77.4137 78.3776 77.5474C78.5091 77.6812 78.7719 77.7481 79.1663 77.7481C79.2989 77.7481 79.4243 77.7431 79.5447 77.732C79.6652 77.7208 79.7808 77.7035 79.8904 77.6812V79.5227C79.6932 79.5562 79.4729 79.5784 79.232 79.5896C78.991 79.6007 78.7549 79.6069 78.5249 79.6069C78.1634 79.6069 77.8202 79.5809 77.4977 79.5314C77.1728 79.4806 76.888 79.3828 76.6422 79.2379C76.3951 79.093 76.2004 78.8862 76.058 78.6187C75.9156 78.3512 75.8438 77.9995 75.8438 77.5648V72.4587H74.4297V70.8686H75.8438V68.2741H78.1793V70.8686H79.8904Z" fill="black"/>
<path d="M83.4477 79.5228H81.1123V67.5708H83.4477V79.5228Z" fill="black"/>
<path d="M90.5387 75.2879C90.4401 75.377 90.3172 75.4464 90.1687 75.4971C90.0202 75.5467 89.862 75.5888 89.6917 75.6235C89.5213 75.6557 89.3436 75.6841 89.1574 75.7064C88.97 75.7287 88.7838 75.7572 88.5976 75.7894C88.4223 75.8241 88.2495 75.8687 88.0791 75.9244C87.91 75.9801 87.7615 76.0557 87.6349 76.1498C87.5096 76.2452 87.4074 76.3653 87.3307 76.5102C87.254 76.6551 87.2163 76.8396 87.2163 77.0625C87.2163 77.2743 87.254 77.4526 87.3307 77.5975C87.4074 77.7424 87.512 77.8576 87.6434 77.9406C87.7749 78.0248 87.9282 78.083 88.1047 78.1164C88.2799 78.1499 88.4601 78.1672 88.6475 78.1672C89.1075 78.1672 89.4641 78.0892 89.716 77.9319C89.9679 77.7771 90.1553 77.5888 90.2758 77.3721C90.3963 77.1542 90.4705 76.9337 90.4973 76.7108C90.5241 76.4879 90.5387 76.3096 90.5387 76.1746V75.2879ZM85.1437 73.5305C85.1766 72.972 85.3129 72.5088 85.5551 72.141C85.796 71.7732 86.1027 71.4772 86.4751 71.2543C86.8487 71.0314 87.2674 70.8716 87.7347 70.7775C88.1996 70.6821 88.6694 70.6339 89.1404 70.6339C89.5687 70.6339 90.002 70.666 90.4401 70.7267C90.8782 70.7887 91.2786 70.9075 91.6413 71.0859C92.0027 71.2654 92.2985 71.5131 92.5285 71.8314C92.7597 72.1497 92.8753 72.5707 92.8753 73.0946V77.5975C92.8753 77.9889 92.896 78.3629 92.941 78.7195C92.9836 79.0762 93.0603 79.3449 93.1711 79.5233H90.8016C90.7577 79.3883 90.7225 79.2521 90.6945 79.1121C90.6677 78.9734 90.6482 78.831 90.6373 78.6861C90.2649 79.0762 89.8255 79.3499 89.3217 79.5059C88.8166 79.662 88.3018 79.74 87.7749 79.74C87.3696 79.74 86.9911 79.6905 86.6406 79.5901C86.2889 79.4898 85.9822 79.3325 85.7194 79.1208C85.4553 78.909 85.2508 78.6415 85.1024 78.317C84.9539 77.9938 84.8809 77.6087 84.8809 77.1628C84.8809 76.6712 84.9648 76.2674 85.1352 75.9492C85.3056 75.6309 85.5247 75.377 85.7936 75.1875C86.0613 74.9981 86.3692 74.8556 86.7149 74.7603C87.0593 74.6662 87.4074 74.5906 87.7591 74.5349C88.1096 74.4792 88.4552 74.4346 88.7947 74.4011C89.1355 74.3677 89.4373 74.3169 89.7002 74.2501C89.963 74.1832 90.1712 74.0853 90.3245 73.9565C90.4778 73.829 90.5496 73.642 90.5387 73.3968C90.5387 73.1392 90.4973 72.9361 90.4158 72.785C90.333 72.6351 90.2235 72.5175 90.086 72.4333C89.9484 72.3503 89.7902 72.2946 89.6089 72.2661C89.4288 72.2388 89.2341 72.2252 89.026 72.2252C88.5647 72.2252 88.2033 72.3255 87.9404 72.5262C87.6763 72.7268 87.523 73.0612 87.4792 73.5305H85.1437Z" fill="black"/>
<path d="M96.8714 70.8688V72.0738H96.9201C97.217 71.5723 97.6004 71.2069 98.0726 70.9778C98.5436 70.7487 99.0267 70.6348 99.5196 70.6348C100.145 70.6348 100.657 70.7215 101.058 70.8936C101.458 71.067 101.773 71.3072 102.003 71.6144C102.234 71.9203 102.395 72.2943 102.489 72.7351C102.582 73.176 102.629 73.664 102.629 74.2002V79.5229H100.292V74.6349C100.292 73.9215 100.183 73.3878 99.9638 73.0361C99.7447 72.6856 99.3553 72.5097 98.7955 72.5097C98.1602 72.5097 97.699 72.7017 97.4142 73.0868C97.1282 73.472 96.9858 74.1048 96.9858 74.9866V79.5229H94.6504V70.8688H96.8714Z" fill="black"/>
<path d="M108.969 70.8686V72.4587H107.258V76.7437C107.258 77.1462 107.324 77.4137 107.457 77.5474C107.588 77.6812 107.851 77.7481 108.245 77.7481C108.378 77.7481 108.503 77.7431 108.624 77.732C108.744 77.7208 108.86 77.7035 108.969 77.6812V79.5227C108.772 79.5562 108.552 79.5784 108.311 79.5896C108.07 79.6007 107.834 79.6069 107.604 79.6069C107.243 79.6069 106.899 79.5809 106.577 79.5314C106.252 79.4806 105.967 79.3828 105.721 79.2379C105.474 79.093 105.28 78.8862 105.137 78.6187C104.995 78.3512 104.923 77.9995 104.923 77.5648V72.4587H103.509V70.8686H104.923V68.2741H107.258V70.8686H108.969Z" fill="black"/>
<path d="M112.528 79.5228H110.193V70.8687H112.528V79.5228ZM110.191 67.5708H112.527V69.5288H110.191V67.5708Z" fill="black"/>
<path d="M116.395 76.2167C116.461 76.5461 116.573 76.8421 116.732 77.1034C116.891 77.366 117.1 77.5753 117.358 77.7313C117.616 77.8886 117.936 77.9666 118.319 77.9666C118.704 77.9666 119.024 77.8911 119.282 77.74C119.54 77.5889 119.748 77.3883 119.906 77.1381C120.065 76.8867 120.181 76.5969 120.253 76.2675C120.323 75.9381 120.359 75.595 120.359 75.2371C120.359 74.9027 120.323 74.5684 120.253 74.234C120.181 73.8984 120.069 73.5974 119.916 73.3299C119.761 73.0612 119.555 72.8445 119.299 72.676C119.041 72.5089 118.73 72.4259 118.369 72.4259C117.984 72.4259 117.662 72.5039 117.399 72.6599C117.135 72.816 116.922 73.0253 116.756 73.2878C116.592 73.5504 116.474 73.8464 116.403 74.1745C116.332 74.504 116.296 74.847 116.296 75.2037C116.296 75.5504 116.329 75.8885 116.395 76.2167ZM120.277 82.5525V78.4347H120.244C119.969 78.9028 119.586 79.2385 119.093 79.4391C118.599 79.6397 118.089 79.74 117.563 79.74C117.168 79.74 116.76 79.6657 116.338 79.5146C115.915 79.3635 115.528 79.1121 115.178 78.7617C114.827 78.41 114.537 77.9468 114.307 77.3722C114.075 76.7975 113.961 76.0916 113.961 75.2544C113.961 74.6625 114.036 74.0878 114.191 73.5306C114.344 72.972 114.58 72.4791 114.898 72.0494C115.216 71.6197 115.614 71.2766 116.091 71.019C116.568 70.7627 117.13 70.6339 117.776 70.6339C118.303 70.6339 118.799 70.7379 119.265 70.9447C119.731 71.1503 120.096 71.4933 120.359 71.9739H120.392V70.8692H122.613V82.5525H120.277Z" fill="black"/>
<path d="M130.099 79.5225V78.3175H130.051C129.754 78.8191 129.37 79.1819 128.898 79.4061C128.427 79.629 127.945 79.7405 127.451 79.7405C126.827 79.7405 126.313 79.6563 125.914 79.4891C125.513 79.3219 125.197 79.0854 124.967 78.777C124.737 78.4711 124.575 78.0971 124.482 77.6562C124.388 77.2153 124.342 76.7274 124.342 76.1911V70.8684H126.678V75.7565C126.678 76.471 126.788 77.0036 127.007 77.3553C127.226 77.707 127.616 77.8828 128.175 77.8828C128.811 77.8828 129.272 77.6896 129.557 77.3045C129.841 76.9193 129.985 76.2865 129.985 75.4047V70.8684H132.32V79.5225H130.099Z" fill="black"/>
<path d="M139.216 72.8942C138.936 72.5821 138.511 72.4248 137.942 72.4248C137.568 72.4248 137.259 72.4905 137.012 72.618C136.765 72.7468 136.568 72.9054 136.419 73.0948C136.272 73.2843 136.167 73.4862 136.108 73.698C136.047 73.9097 136.01 74.0992 136.001 74.2664H139.8C139.691 73.6645 139.496 73.2063 139.216 72.8942ZM136.576 77.4467C136.927 77.7934 137.431 77.9656 138.089 77.9656C138.561 77.9656 138.967 77.8467 139.306 77.6064C139.646 77.3662 139.855 77.1123 139.932 76.8448H141.987C141.659 77.8826 141.155 78.6244 140.474 79.0715C139.794 79.5173 138.971 79.7402 138.008 79.7402C137.338 79.7402 136.735 79.6313 136.198 79.4145C135.66 79.1966 135.205 78.887 134.832 78.4845C134.46 78.0832 134.172 77.6039 133.968 77.0454C133.766 76.4869 133.664 75.8739 133.664 75.2039C133.664 74.5574 133.769 73.9543 133.977 73.3958C134.185 72.8385 134.481 72.3555 134.865 71.9481C135.249 71.5418 135.706 71.2199 136.239 70.9858C136.77 70.7517 137.36 70.6341 138.008 70.6341C138.73 70.6341 139.361 70.7765 139.899 71.0613C140.435 71.3462 140.877 71.7289 141.223 72.2081C141.568 72.6874 141.817 73.2348 141.971 73.8478C142.125 74.4621 142.179 75.1036 142.136 75.7736H136.001C136.034 76.5439 136.225 77.1011 136.576 77.4467Z" fill="black"/>
<path d="M34.3657 93.4548C35.1227 93.4548 35.6618 93.2343 35.9843 92.7922C36.1863 92.5136 36.2873 92.1755 36.2873 91.7792C36.2873 91.1129 35.9928 90.6584 35.4014 90.4169C35.0874 90.2881 34.6712 90.2237 34.1552 90.2237H31.7053V93.4548H34.3657ZM33.9531 89.2169C34.474 89.2169 34.8793 89.1438 35.1689 88.9989C35.6241 88.7686 35.8517 88.3574 35.8517 87.7605C35.8517 87.1611 35.6095 86.7574 35.1251 86.5481C34.8525 86.4316 34.4472 86.3734 33.9093 86.3734H31.7053V89.2169H33.9531ZM30.5078 85.3356H34.4095C35.4732 85.3356 36.2289 85.6564 36.678 86.2979C36.9421 86.6781 37.0735 87.1153 37.0735 87.6106C37.0735 88.1902 36.9117 88.6658 36.5892 89.0361C36.4212 89.2317 36.179 89.4113 35.8638 89.5735C36.3263 89.7531 36.6731 89.955 36.9019 90.1791C37.3072 90.5804 37.5104 91.1315 37.5104 91.8361C37.5104 92.4269 37.3267 92.9631 36.9603 93.4424C36.4127 94.1594 35.5413 94.5173 34.3462 94.5173H30.5078V85.3356Z" fill="black"/>
<path d="M38.7334 87.8234H39.7837V88.9801C39.8701 88.7547 40.0806 88.481 40.4165 88.1578C40.7524 87.8345 41.1394 87.6735 41.5775 87.6735C41.597 87.6735 41.6323 87.676 41.681 87.6797C41.7309 87.6847 41.8148 87.6921 41.9329 87.7045V88.8922C41.8672 88.8798 41.8075 88.8711 41.7528 88.8674C41.6968 88.8637 41.6372 88.8612 41.5714 88.8612C41.0141 88.8612 40.5857 89.0432 40.2875 89.4086C39.9881 89.7727 39.8384 90.1925 39.8384 90.6668V94.5171H38.7334V87.8234Z" fill="black"/>
<path d="M47.1591 90.6359C47.1141 90.1479 47.0106 89.7591 46.8488 89.4668C46.5482 88.9256 46.0468 88.6544 45.3446 88.6544C44.8407 88.6544 44.4184 88.8414 44.0777 89.2142C43.7357 89.5869 43.5556 90.0612 43.5349 90.6359H47.1591ZM46.7636 88.0079C47.1981 88.2308 47.5303 88.5194 47.7579 88.8736C47.9782 89.2104 48.1242 89.6043 48.1972 90.0551C48.2629 90.3634 48.2958 90.8551 48.2958 91.53H43.5106C43.5312 92.2112 43.687 92.7573 43.9803 93.1685C44.2724 93.5809 44.7251 93.7864 45.3397 93.7864C45.9117 93.7864 46.3693 93.592 46.71 93.2019C46.9011 92.9765 47.0362 92.7152 47.1165 92.4167H48.2033C48.1741 92.6632 48.0792 92.9369 47.9173 93.239C47.7554 93.5412 47.5753 93.7889 47.3757 93.9796C47.0435 94.314 46.6309 94.5382 46.1393 94.6546C45.8752 94.7214 45.5758 94.7549 45.2423 94.7549C44.4294 94.7549 43.7393 94.4515 43.1734 93.8459C42.6075 93.239 42.3252 92.3907 42.3252 91.2984C42.3252 90.2235 42.61 89.3504 43.1795 88.6792C43.7491 88.0092 44.4939 87.6736 45.4139 87.6736C45.8788 87.6736 46.3279 87.785 46.7636 88.0079Z" fill="black"/>
<path d="M49.716 85.9546H50.8332V87.8233H51.8847V88.7422H50.8332V93.1102C50.8332 93.3442 50.9111 93.5015 51.0669 93.5795C51.1533 93.6254 51.2957 93.6489 51.4977 93.6489C51.5501 93.6489 51.6085 93.6477 51.6693 93.6439C51.7302 93.6415 51.802 93.6353 51.8847 93.6241V94.517C51.7569 94.5554 51.6255 94.5814 51.488 94.5988C51.3505 94.6149 51.202 94.6235 51.0426 94.6235C50.5266 94.6235 50.1773 94.4885 49.9923 94.221C49.8085 93.9511 49.716 93.6031 49.716 93.1733V88.7422H48.8252V87.8233H49.716V85.9546Z" fill="black"/>
<path d="M54.0872 93.5055C54.3209 93.6925 54.5971 93.7866 54.916 93.7866C55.3054 93.7866 55.6815 93.695 56.0466 93.5117C56.6612 93.2083 56.9679 92.7104 56.9679 92.0194V91.1153C56.8328 91.2033 56.66 91.2763 56.447 91.3345C56.234 91.394 56.0259 91.4348 55.8214 91.4596L55.1533 91.5475C54.7529 91.602 54.4523 91.6862 54.2503 91.8027C53.9083 91.9983 53.7367 92.3104 53.7367 92.7377C53.7367 93.0621 53.8536 93.3185 54.0872 93.5055ZM56.4153 90.4664C56.6697 90.433 56.8389 90.3252 56.9253 90.1419C56.9739 90.0416 56.9983 89.8967 56.9983 89.7085C56.9983 89.3246 56.8644 89.0447 56.5967 88.8713C56.3289 88.6979 55.9468 88.6112 55.4478 88.6112C54.8722 88.6112 54.4633 88.7697 54.2223 89.088C54.0872 89.2639 53.9996 89.5264 53.9582 89.8732H52.9262C52.9469 89.0459 53.2098 88.47 53.7148 88.1468C54.2199 87.8223 54.8052 87.6614 55.4722 87.6614C56.245 87.6614 56.8729 87.8112 57.3561 88.1109C57.8344 88.4106 58.0729 88.8775 58.0729 89.5116V93.368C58.0729 93.4844 58.0972 93.5773 58.1435 93.6491C58.1909 93.7197 58.2907 93.7544 58.4416 93.7544C58.4903 93.7544 58.5463 93.7519 58.6072 93.7457C58.6692 93.7396 58.7349 93.7296 58.8043 93.7173V94.5495C58.6327 94.599 58.5013 94.63 58.4112 94.6424C58.3212 94.6547 58.1982 94.6609 58.0425 94.6609C57.6615 94.6609 57.3853 94.5235 57.2137 94.2485C57.1236 94.1036 57.0603 93.8968 57.0226 93.6306C56.7975 93.9303 56.4738 94.1903 56.0527 94.4108C55.6304 94.6325 55.1667 94.7427 54.658 94.7427C54.0483 94.7427 53.5493 94.5544 53.1623 94.1767C52.7753 93.8015 52.583 93.3296 52.583 92.7637C52.583 92.1432 52.7729 91.6627 53.1538 91.3209C53.5347 90.9803 54.0337 90.7698 54.6519 90.6905L56.4153 90.4664Z" fill="black"/>
<path d="M63.4925 89.2984C63.1578 88.8984 62.7331 88.6977 62.2147 88.6977C61.4406 88.6977 60.9112 89.0693 60.6265 89.8111C60.4756 90.2074 60.4001 90.7263 60.4001 91.3678C60.4001 92.1207 60.5498 92.6954 60.8492 93.0892C61.1486 93.483 61.5514 93.6799 62.0564 93.6799C62.8463 93.6799 63.4024 93.3146 63.7249 92.5864C63.9038 92.174 63.9939 91.6923 63.9939 91.1424C63.9939 90.3126 63.826 89.6984 63.4925 89.2984ZM63.3574 88.0921C63.5655 88.2383 63.7773 88.4501 63.9939 88.7299V87.8853H65.0125V93.9734C65.0125 94.8242 64.8908 95.4942 64.6462 95.9859C64.1886 96.8949 63.3258 97.3481 62.0564 97.3481C61.3506 97.3481 60.7567 97.1871 60.2748 96.8639C59.794 96.5407 59.5239 96.0354 59.4667 95.3481H60.5912C60.6435 95.649 60.7494 95.8794 60.9088 96.0428C61.1571 96.293 61.5477 96.4168 62.082 96.4168C62.9242 96.4168 63.4755 96.1134 63.7371 95.5041C63.8917 95.1462 63.9635 94.5072 63.9501 93.5858C63.7298 93.9276 63.4657 94.1815 63.1554 94.3487C62.8451 94.5146 62.4349 94.5988 61.925 94.5988C61.2155 94.5988 60.5948 94.3412 60.063 93.8261C59.53 93.3121 59.2646 92.4613 59.2646 91.2737C59.2646 90.1529 59.5324 89.2773 60.0691 88.6482C60.6046 88.0191 61.2532 87.7045 62.0114 87.7045C62.525 87.7045 62.9741 87.8346 63.3574 88.0921Z" fill="black"/>
<path d="M66.5195 87.8234H67.5698V88.7733C67.8814 88.3819 68.2099 88.1008 68.5592 87.9299C68.9061 87.759 69.2943 87.6735 69.719 87.6735C70.6525 87.6735 71.2841 88.0042 71.6115 88.6668C71.7916 89.0296 71.8816 89.5485 71.8816 90.2235V94.5171H70.7571V90.299C70.7571 89.8903 70.6975 89.5609 70.5794 89.3107C70.3835 88.8946 70.0269 88.6853 69.5109 88.6853C69.248 88.6853 69.0339 88.7138 68.8659 88.7671C68.5629 88.8587 68.2964 89.042 68.0676 89.3169C67.8826 89.5374 67.7633 89.7665 67.7085 90.0018C67.6526 90.2371 67.6246 90.5739 67.6246 91.0111V94.5171H66.5195V87.8234Z" fill="black"/>
<path d="M77.831 90.6359C77.786 90.1479 77.6825 89.7591 77.5207 89.4668C77.2201 88.9256 76.7187 88.6544 76.0164 88.6544C75.5126 88.6544 75.0903 88.8414 74.7495 89.2142C74.4076 89.5869 74.2275 90.0612 74.2068 90.6359H77.831ZM77.4355 88.0079C77.8699 88.2308 78.2022 88.5194 78.4298 88.8736C78.65 89.2104 78.7961 89.6043 78.8691 90.0551C78.9348 90.3634 78.9677 90.8551 78.9677 91.53H74.1824C74.2031 92.2112 74.3589 92.7573 74.6522 93.1685C74.9443 93.5809 75.397 93.7864 76.0116 93.7864C76.5836 93.7864 77.0412 93.592 77.3819 93.2019C77.573 92.9765 77.7081 92.7152 77.7884 92.4167H78.8752C78.846 92.6632 78.751 92.9369 78.5892 93.239C78.4273 93.5412 78.2472 93.7889 78.0476 93.9796C77.7154 94.314 77.3028 94.5382 76.8111 94.6546C76.5471 94.7214 76.2477 94.7549 75.9142 94.7549C75.1013 94.7549 74.4112 94.4515 73.8453 93.8459C73.2794 93.239 72.9971 92.3907 72.9971 91.2984C72.9971 90.2235 73.2818 89.3504 73.8514 88.6792C74.421 88.0092 75.1658 87.6736 76.0858 87.6736C76.5495 87.6736 76.9998 87.785 77.4355 88.0079Z" fill="black"/>
<path d="M80.9521 90.374H84.0348V91.5307H80.9521V90.374Z" fill="black"/>
<path d="M91.3086 86.5983C91.0396 86.4696 90.6721 86.4039 90.2048 86.4039H87.7902V89.5854H90.2048C90.75 89.5854 91.1917 89.4665 91.5313 89.23C91.8708 88.9922 92.04 88.5736 92.04 87.973C92.04 87.2981 91.7966 86.8398 91.3086 86.5983ZM86.5684 85.3364H90.6051C91.4035 85.3364 92.0473 85.5667 92.539 86.0262C93.0294 86.4869 93.2752 87.1333 93.2752 87.9668C93.2752 88.6839 93.0562 89.308 92.6181 89.8393C92.1799 90.3706 91.5094 90.6356 90.6076 90.6356H87.7902V94.5168H86.5684V85.3364Z" fill="black"/>
<path d="M95.0355 93.5055C95.2691 93.6925 95.5454 93.7866 95.8642 93.7866C96.2537 93.7866 96.6297 93.695 96.9948 93.5117C97.6094 93.2083 97.9161 92.7104 97.9161 92.0194V91.1153C97.781 91.2033 97.6082 91.2763 97.3952 91.3345C97.1822 91.394 96.9741 91.4348 96.7697 91.4596L96.1016 91.5475C95.7012 91.602 95.4006 91.6862 95.1985 91.8027C94.8566 91.9983 94.685 92.3104 94.685 92.7377C94.685 93.0621 94.8018 93.3185 95.0355 93.5055ZM97.3636 90.4664C97.6179 90.433 97.7871 90.3252 97.8735 90.1419C97.9222 90.0416 97.9465 89.8967 97.9465 89.7085C97.9465 89.3246 97.8127 89.0447 97.5449 88.8713C97.2772 88.6979 96.895 88.6112 96.3961 88.6112C95.8204 88.6112 95.4115 88.7697 95.1705 89.088C95.0355 89.2639 94.9478 89.5264 94.9065 89.8732H93.8744C93.8951 89.0459 94.158 88.47 94.6631 88.1468C95.1681 87.8223 95.7535 87.6614 96.4204 87.6614C97.1932 87.6614 97.8212 87.8112 98.3043 88.1109C98.7826 88.4106 99.0211 88.8775 99.0211 89.5116V93.368C99.0211 93.4844 99.0455 93.5773 99.0917 93.6491C99.1392 93.7197 99.239 93.7544 99.3899 93.7544C99.4386 93.7544 99.4945 93.7519 99.5554 93.7457C99.6175 93.7396 99.6832 93.7296 99.7526 93.7173V94.5495C99.581 94.599 99.4495 94.63 99.3595 94.6424C99.2694 94.6547 99.1465 94.6609 98.9907 94.6609C98.6098 94.6609 98.3335 94.5235 98.1619 94.2485C98.0719 94.1036 98.0086 93.8968 97.9709 93.6306C97.7457 93.9303 97.422 94.1903 97.0009 94.4108C96.5786 94.6325 96.1149 94.7427 95.6062 94.7427C94.9965 94.7427 94.4975 94.5544 94.1105 94.1767C93.7235 93.8015 93.5312 93.3296 93.5312 92.7637C93.5312 92.1432 93.7211 91.6627 94.102 91.3209C94.4829 90.9803 94.9819 90.7698 95.6001 90.6905L97.3636 90.4664Z" fill="black"/>
<path d="M104.538 87.8234H105.76C105.604 88.2532 105.259 89.2328 104.722 90.7622C104.322 91.9127 103.986 92.8514 103.716 93.5759C103.078 95.2837 102.628 96.324 102.366 96.6992C102.104 97.0732 101.654 97.2615 101.015 97.2615C100.859 97.2615 100.74 97.2553 100.656 97.2429C100.572 97.2293 100.469 97.207 100.346 97.1735V96.1494C100.538 96.2026 100.678 96.2361 100.763 96.2484C100.85 96.2608 100.925 96.267 100.991 96.267C101.194 96.267 101.345 96.2336 101.441 96.1642C101.537 96.0961 101.618 96.0119 101.683 95.9116C101.704 95.8782 101.777 95.7085 101.904 95.4001C102.03 95.093 102.123 94.8639 102.18 94.714L99.7471 87.8234H101.001L102.764 93.2762L104.538 87.8234Z" fill="black"/>
<path d="M107.135 92.4172C107.168 92.7924 107.262 93.0798 107.417 93.2791C107.701 93.642 108.195 93.8241 108.896 93.8241C109.314 93.8241 109.682 93.7336 110 93.5516C110.317 93.3708 110.477 93.0897 110.477 92.7107C110.477 92.4234 110.349 92.2042 110.094 92.0543C109.933 91.9627 109.613 91.8574 109.134 91.7361L108.241 91.5107C107.671 91.3695 107.25 91.211 106.98 91.0364C106.498 90.7317 106.256 90.3106 106.256 89.7732C106.256 89.1403 106.484 88.6276 106.938 88.2363C107.393 87.8437 108.004 87.648 108.772 87.648C109.776 87.648 110.5 87.944 110.943 88.536C111.221 88.9112 111.356 89.3149 111.348 89.7484H110.304C110.283 89.4958 110.193 89.2654 110.034 89.0586C109.773 88.7638 109.323 88.6165 108.682 88.6165C108.254 88.6165 107.931 88.6982 107.71 88.8604C107.49 89.0214 107.381 89.2357 107.381 89.5007C107.381 89.7917 107.525 90.0246 107.814 90.1992C107.981 90.3032 108.228 90.3949 108.553 90.4729L109.297 90.6549C110.107 90.8506 110.649 91.0401 110.924 91.2234C111.354 91.5107 111.569 91.9627 111.569 92.5794C111.569 93.1751 111.344 93.6903 110.894 94.1238C110.445 94.5572 109.76 94.7739 108.84 94.7739C107.848 94.7739 107.147 94.5473 106.734 94.0953C106.322 93.6432 106.101 93.0835 106.072 92.4172H107.135Z" fill="black"/>
<path d="M117.408 93.0486C117.705 93.5316 118.182 93.7731 118.838 93.7731C119.347 93.7731 119.767 93.5501 120.094 93.1018C120.422 92.6535 120.586 92.0108 120.586 91.1736C120.586 90.3278 120.417 89.7011 120.079 89.2949C119.74 88.8887 119.323 88.6856 118.826 88.6856C118.272 88.6856 117.822 88.9023 117.479 89.3358C117.135 89.7692 116.962 90.407 116.962 91.2491C116.962 91.965 117.111 92.5656 117.408 93.0486ZM119.876 88.0292C120.072 88.1543 120.294 88.3735 120.543 88.6856V85.3047H121.606V94.5173H120.61V93.5861C120.354 93.9984 120.051 94.2969 119.699 94.4802C119.348 94.6635 118.947 94.7551 118.494 94.7551C117.764 94.7551 117.131 94.4418 116.597 93.8139C116.062 93.1873 115.796 92.3526 115.796 91.3111C115.796 90.3364 116.039 89.4918 116.526 88.776C117.014 88.0614 117.71 87.7048 118.616 87.7048C119.117 87.7048 119.538 87.8125 119.876 88.0292Z" fill="black"/>
<path d="M127.589 90.6359C127.544 90.1479 127.44 89.7591 127.278 89.4668C126.978 88.9256 126.476 88.6544 125.774 88.6544C125.27 88.6544 124.848 88.8414 124.507 89.2142C124.167 89.5869 123.985 90.0612 123.965 90.6359H127.589ZM127.193 88.0079C127.628 88.2308 127.96 88.5194 128.188 88.8736C128.408 89.2104 128.554 89.6043 128.627 90.0551C128.693 90.3634 128.724 90.8551 128.724 91.53H123.94C123.961 92.2112 124.118 92.7573 124.41 93.1685C124.702 93.5809 125.155 93.7864 125.769 93.7864C126.341 93.7864 126.799 93.592 127.14 93.2019C127.331 92.9765 127.466 92.7152 127.546 92.4167H128.633C128.604 92.6632 128.509 92.9369 128.347 93.239C128.185 93.5412 128.005 93.7889 127.805 93.9796C127.473 94.314 127.061 94.5382 126.569 94.6546C126.305 94.7214 126.005 94.7549 125.672 94.7549C124.859 94.7549 124.169 94.4515 123.603 93.8459C123.037 93.239 122.755 92.3907 122.755 91.2984C122.755 90.2235 123.04 89.3504 123.609 88.6792C124.18 88.0092 124.924 87.6736 125.844 87.6736C126.307 87.6736 126.758 87.785 127.193 88.0079Z" fill="black"/>
<path d="M133.651 85.3359H134.756V94.5177H133.651V85.3359Z" fill="black"/>
<path d="M137.431 93.5055C137.665 93.6925 137.941 93.7866 138.261 93.7866C138.649 93.7866 139.025 93.695 139.39 93.5117C140.005 93.2083 140.312 92.7104 140.312 92.0194V91.1153C140.177 91.2033 140.004 91.2763 139.791 91.3345C139.578 91.394 139.37 91.4348 139.165 91.4596L138.497 91.5475C138.097 91.602 137.796 91.6862 137.594 91.8027C137.252 91.9983 137.08 92.3104 137.08 92.7377C137.08 93.0621 137.199 93.3185 137.431 93.5055ZM139.759 90.4664C140.013 90.433 140.183 90.3252 140.269 90.1419C140.318 90.0416 140.343 89.8967 140.343 89.7085C140.343 89.3246 140.208 89.0447 139.94 88.8713C139.673 88.6979 139.291 88.6112 138.792 88.6112C138.216 88.6112 137.807 88.7697 137.566 89.088C137.431 89.2639 137.343 89.5264 137.302 89.8732H136.27C136.291 89.0459 136.554 88.47 137.059 88.1468C137.564 87.8223 138.149 87.6614 138.816 87.6614C139.589 87.6614 140.217 87.8112 140.7 88.1109C141.178 88.4106 141.418 88.8775 141.418 89.5116V93.368C141.418 93.4844 141.441 93.5773 141.487 93.6491C141.535 93.7197 141.634 93.7544 141.785 93.7544C141.835 93.7544 141.89 93.7519 141.951 93.7457C142.013 93.7396 142.079 93.7296 142.148 93.7173V94.5495C141.976 94.599 141.845 94.63 141.755 94.6424C141.665 94.6547 141.542 94.6609 141.386 94.6609C141.005 94.6609 140.729 94.5235 140.557 94.2485C140.467 94.1036 140.404 93.8968 140.368 93.6306C140.142 93.9303 139.819 94.1903 139.396 94.4108C138.975 94.6325 138.51 94.7427 138.003 94.7427C137.392 94.7427 136.893 94.5544 136.507 94.1767C136.12 93.8015 135.927 93.3296 135.927 92.7637C135.927 92.1432 136.117 91.6627 136.498 91.3209C136.878 90.9803 137.379 90.7698 137.996 90.6905L139.759 90.4664Z" fill="black"/>
<path d="M146.871 85.3359H148.093V93.424H152.62V94.5176H146.871V85.3359Z" fill="black"/>
<path d="M157.397 92.9401C157.666 92.3766 157.801 91.7487 157.801 91.0577C157.801 90.4335 157.703 89.9258 157.509 89.5344C157.202 88.9189 156.67 88.6106 155.918 88.6106C155.25 88.6106 154.764 88.8731 154.46 89.397C154.157 89.9221 154.005 90.5549 154.005 91.2955C154.005 92.0063 154.157 92.5995 154.46 93.0738C154.764 93.5482 155.246 93.7859 155.906 93.7859C156.63 93.7859 157.128 93.5036 157.397 92.9401ZM158.083 88.4917C158.665 89.0663 158.956 89.9109 158.956 91.0267C158.956 92.1054 158.699 92.9958 158.186 93.6993C157.674 94.4027 156.879 94.7544 155.802 94.7544C154.903 94.7544 154.19 94.4435 153.662 93.8206C153.132 93.1989 152.868 92.363 152.868 91.314C152.868 90.1896 153.147 89.2954 153.704 88.6291C154.26 87.9629 155.009 87.6297 155.948 87.6297C156.791 87.6297 157.501 87.917 158.083 88.4917Z" fill="black"/>
<path d="M160.173 87.8549H161.296V94.5177H160.173V87.8549ZM160.173 85.3359H161.296V86.6103H160.173V85.3359Z" fill="black"/>
<path d="M162.813 87.8234H163.864V88.9801C163.949 88.7547 164.161 88.481 164.497 88.1578C164.831 87.8345 165.218 87.6735 165.658 87.6735C165.677 87.6735 165.712 87.676 165.761 87.6797C165.811 87.6847 165.894 87.6921 166.013 87.7045V88.8922C165.947 88.8798 165.888 88.8711 165.832 88.8674C165.777 88.8637 165.716 88.8612 165.65 88.8612C165.094 88.8612 164.666 89.0432 164.368 89.4086C164.068 89.7727 163.919 90.1925 163.919 90.6668V94.5171H162.813V87.8234Z" fill="black"/>
<path d="M171.24 90.6359C171.195 90.1479 171.092 89.7591 170.93 89.4668C170.629 88.9256 170.128 88.6544 169.426 88.6544C168.922 88.6544 168.499 88.8414 168.159 89.2142C167.818 89.5869 167.637 90.0612 167.616 90.6359H171.24ZM170.845 88.0079C171.279 88.2308 171.611 88.5194 171.839 88.8736C172.059 89.2104 172.205 89.6043 172.278 90.0551C172.344 90.3634 172.376 90.8551 172.376 91.53H167.592C167.612 92.2112 167.769 92.7573 168.061 93.1685C168.353 93.5809 168.806 93.7864 169.421 93.7864C169.993 93.7864 170.45 93.592 170.791 93.2019C170.982 92.9765 171.117 92.7152 171.198 92.4167H172.284C172.255 92.6632 172.16 92.9369 171.998 93.239C171.836 93.5412 171.656 93.7889 171.457 93.9796C171.125 94.314 170.712 94.5382 170.22 94.6546C169.956 94.7214 169.657 94.7549 169.323 94.7549C168.51 94.7549 167.82 94.4515 167.254 93.8459C166.689 93.239 166.406 92.3907 166.406 91.2984C166.406 90.2235 166.691 89.3504 167.261 88.6792C167.831 88.0092 168.575 87.6736 169.495 87.6736C169.96 87.6736 170.409 87.785 170.845 88.0079Z" fill="black"/>
<path d="M35.2288 97.7992L33.5883 99.6048H32.7413L33.8658 97.7992H35.2288ZM30.5117 100.331H37.0592V101.455H31.7032V104.243H36.6539V105.305H31.7032V108.419H37.1517V109.512H30.5117V100.331Z" fill="black"/>
<path d="M42.6287 103.174C43.0936 103.541 43.3735 104.173 43.4672 105.068H42.3926C42.3269 104.656 42.1772 104.312 41.9435 104.04C41.7099 103.768 41.3363 103.63 40.8203 103.63C40.1156 103.63 39.6118 103.981 39.3087 104.679C39.1128 105.132 39.0142 105.693 39.0142 106.358C39.0142 107.028 39.153 107.593 39.4317 108.05C39.7104 108.508 40.1485 108.737 40.746 108.737C41.2048 108.737 41.5687 108.595 41.8365 108.31C42.1042 108.027 42.2904 107.638 42.3926 107.144H43.4672C43.3443 108.03 43.0376 108.68 42.546 109.09C42.0543 109.5 41.4263 109.706 40.6608 109.706C39.8004 109.706 39.114 109.386 38.6029 108.746C38.0905 108.107 37.835 107.308 37.835 106.35C37.835 105.174 38.1149 104.259 38.6759 103.605C39.2369 102.951 39.9525 102.624 40.8203 102.624C41.5614 102.624 42.1638 102.808 42.6287 103.174Z" fill="black"/>
<path d="M48.6749 107.935C48.9439 107.371 49.079 106.743 49.079 106.052C49.079 105.428 48.9816 104.92 48.7869 104.529C48.4802 103.914 47.9496 103.605 47.1963 103.605C46.5282 103.605 46.0426 103.868 45.7383 104.392C45.4353 104.917 45.2832 105.55 45.2832 106.29C45.2832 107.001 45.4353 107.594 45.7383 108.068C46.0426 108.543 46.5245 108.781 47.1841 108.781C47.9082 108.781 48.406 108.498 48.6749 107.935ZM49.3613 103.486C49.943 104.061 50.2339 104.906 50.2339 106.021C50.2339 107.1 49.9771 107.99 49.4648 108.694C48.9524 109.397 48.1577 109.749 47.0807 109.749C46.1813 109.749 45.4681 109.438 44.94 108.815C44.4106 108.194 44.1465 107.358 44.1465 106.309C44.1465 105.184 44.4252 104.29 44.9826 103.624C45.5387 102.957 46.2872 102.624 47.2267 102.624C48.0689 102.624 48.7796 102.912 49.3613 103.486Z" fill="black"/>
<path d="M51.4688 100.331H52.5738V109.512H51.4688V100.331Z" fill="black"/>
<path d="M58.5693 105.63C58.5242 105.144 58.4208 104.753 58.2589 104.461C57.9583 103.92 57.4569 103.649 56.7547 103.649C56.2509 103.649 55.8286 103.836 55.4878 104.209C55.1459 104.581 54.9657 105.056 54.945 105.63H58.5693ZM58.1737 103.002C58.6082 103.225 58.9405 103.514 59.168 103.868C59.3883 104.205 59.5344 104.6 59.6074 105.049C59.6731 105.358 59.706 105.849 59.706 106.524H54.9207C54.9414 107.206 55.0972 107.752 55.3905 108.163C55.6826 108.575 56.1353 108.781 56.7499 108.781C57.3218 108.781 57.7794 108.586 58.1202 108.198C58.3113 107.971 58.4464 107.71 58.5267 107.411H59.6135C59.5843 107.658 59.4893 107.931 59.3275 108.233C59.1656 108.536 58.9855 108.783 58.7859 108.974C58.4537 109.308 58.0411 109.533 57.5494 109.649C57.2853 109.716 56.986 109.749 56.6525 109.749C55.8395 109.749 55.1495 109.446 54.5836 108.84C54.0177 108.233 53.7354 107.385 53.7354 106.293C53.7354 105.218 54.0201 104.345 54.5897 103.674C55.1592 103.004 55.904 102.668 56.8241 102.668C57.2878 102.668 57.7381 102.779 58.1737 103.002Z" fill="black"/>
<path d="M64.7178 100.33H66.469L69.0637 108.094L71.6388 100.33H73.3779V109.512H72.2108V104.093C72.2108 103.906 72.2157 103.596 72.223 103.161C72.2315 102.729 72.2352 102.263 72.2352 101.768L69.66 109.512H68.4479L65.8484 101.768V102.049C65.8484 102.275 65.8545 102.618 65.8666 103.077C65.8788 103.538 65.8849 103.876 65.8849 104.093V109.512H64.7178V100.33Z" fill="black"/>
<path d="M74.9775 102.849H76.1008V109.511H74.9775V102.849ZM74.9775 100.331H76.1008V101.605H74.9775V100.331Z" fill="black"/>
<path d="M77.6016 102.818H78.6518V103.768C78.9634 103.377 79.292 103.095 79.6413 102.925C79.9881 102.754 80.3763 102.668 80.8011 102.668C81.7345 102.668 82.3661 102.999 82.6935 103.661C82.8736 104.024 82.9637 104.543 82.9637 105.218V109.512H81.8392V105.294C81.8392 104.885 81.7795 104.556 81.6615 104.305C81.4655 103.889 81.109 103.68 80.5929 103.68C80.3301 103.68 80.1159 103.708 79.9479 103.762C79.6449 103.853 79.3784 104.037 79.1496 104.312C78.9646 104.532 78.8453 104.761 78.7906 104.996C78.7346 105.232 78.7066 105.569 78.7066 106.006V109.512H77.6016V102.818Z" fill="black"/>
<path d="M88.913 105.63C88.868 105.144 88.7645 104.753 88.6027 104.461C88.3021 103.92 87.8007 103.649 87.0985 103.649C86.5946 103.649 86.1723 103.836 85.8316 104.209C85.4896 104.581 85.3095 105.056 85.2888 105.63H88.913ZM88.5175 103.002C88.952 103.225 89.2842 103.514 89.5118 103.868C89.7321 104.205 89.8781 104.6 89.9511 105.049C90.0168 105.358 90.0497 105.849 90.0497 106.524H85.2645C85.2851 107.206 85.4409 107.752 85.7342 108.163C86.0263 108.575 86.479 108.781 87.0936 108.781C87.6656 108.781 88.1232 108.586 88.4639 108.198C88.655 107.971 88.7901 107.71 88.8704 107.411H89.9572C89.928 107.658 89.8331 107.931 89.6712 108.233C89.5094 108.536 89.3292 108.783 89.1296 108.974C88.7974 109.308 88.3848 109.533 87.8932 109.649C87.6291 109.716 87.3297 109.749 86.9962 109.749C86.1833 109.749 85.4933 109.446 84.9273 108.84C84.3614 108.233 84.0791 107.385 84.0791 106.293C84.0791 105.218 84.3639 104.345 84.9334 103.674C85.503 103.004 86.2478 102.668 87.1678 102.668C87.6315 102.668 88.0818 102.779 88.5175 103.002Z" fill="black"/>
<path d="M91.9208 107.412C91.9537 107.787 92.0486 108.074 92.2032 108.274C92.4867 108.637 92.9808 108.819 93.6818 108.819C94.1005 108.819 94.468 108.728 94.7857 108.546C95.1033 108.365 95.2627 108.084 95.2627 107.705C95.2627 107.418 95.1349 107.199 94.8806 107.049C94.7187 106.959 94.3986 106.852 93.9204 106.731L93.0271 106.505C92.4575 106.364 92.0365 106.206 91.7663 106.031C91.2843 105.726 91.0422 105.305 91.0422 104.768C91.0422 104.135 91.2697 103.622 91.7237 103.23C92.1788 102.838 92.7898 102.643 93.5577 102.643C94.5617 102.643 95.2858 102.939 95.7288 103.531C96.0075 103.906 96.1426 104.31 96.1341 104.743H95.0899C95.0692 104.49 94.9792 104.26 94.8197 104.053C94.5593 103.758 94.109 103.611 93.4676 103.611C93.0405 103.611 92.7168 103.693 92.4965 103.855C92.2762 104.016 92.1667 104.23 92.1667 104.497C92.1667 104.786 92.3115 105.019 92.5999 105.194C92.7667 105.298 93.0137 105.389 93.3386 105.469L94.0834 105.65C94.8928 105.845 95.4355 106.035 95.7106 106.218C96.1402 106.505 96.3556 106.959 96.3556 107.574C96.3556 108.17 96.1304 108.685 95.6801 109.118C95.2311 109.552 94.5459 109.769 93.6259 109.769C92.634 109.769 91.933 109.542 91.5204 109.09C91.1079 108.638 90.8876 108.078 90.8584 107.412H91.9208Z" fill="black"/>
<path d="M97.7549 105.369H100.837V106.524H97.7549V105.369Z" fill="black"/>
<path d="M107.442 100.33V101.424H104.402V109.512H103.167V101.424H100.127V100.33H107.442Z" fill="black"/>
<path d="M111.143 105.63C111.097 105.144 110.994 104.753 110.832 104.461C110.532 103.92 110.03 103.649 109.328 103.649C108.824 103.649 108.402 103.836 108.061 104.209C107.719 104.581 107.539 105.056 107.518 105.63H111.143ZM110.747 103.002C111.181 103.225 111.514 103.514 111.741 103.868C111.962 104.205 112.108 104.6 112.181 105.049C112.246 105.358 112.279 105.849 112.279 106.524H107.494C107.515 107.206 107.67 107.752 107.964 108.163C108.256 108.575 108.709 108.781 109.323 108.781C109.895 108.781 110.353 108.586 110.693 108.198C110.885 107.971 111.02 107.71 111.1 107.411H112.187C112.157 107.658 112.063 107.931 111.901 108.233C111.739 108.536 111.559 108.783 111.359 108.974C111.027 109.308 110.614 109.533 110.123 109.649C109.859 109.716 109.559 109.749 109.226 109.749C108.413 109.749 107.723 109.446 107.157 108.84C106.591 108.233 106.309 107.385 106.309 106.293C106.309 105.218 106.593 104.345 107.163 103.674C107.732 103.004 108.477 102.668 109.397 102.668C109.862 102.668 110.311 102.779 110.747 103.002Z" fill="black"/>
<path d="M113.517 100.331H114.622V109.512H113.517V100.331Z" fill="black"/>
<path d="M120.617 105.63C120.572 105.144 120.469 104.753 120.307 104.461C120.006 103.92 119.505 103.649 118.803 103.649C118.299 103.649 117.876 103.836 117.536 104.209C117.195 104.581 117.014 105.056 116.993 105.63H120.617ZM120.222 103.002C120.656 103.225 120.988 103.514 121.216 103.868C121.436 104.205 121.582 104.6 121.655 105.049C121.721 105.358 121.753 105.849 121.753 106.524H116.969C116.989 107.206 117.146 107.752 117.438 108.163C117.73 108.575 118.183 108.781 118.798 108.781C119.37 108.781 119.827 108.586 120.168 108.198C120.359 107.971 120.494 107.71 120.575 107.411H121.661C121.632 107.658 121.537 107.931 121.375 108.233C121.213 108.536 121.033 108.783 120.834 108.974C120.502 109.308 120.089 109.533 119.597 109.649C119.333 109.716 119.034 109.749 118.7 109.749C117.887 109.749 117.197 109.446 116.631 108.84C116.066 108.233 115.783 107.385 115.783 106.293C115.783 105.218 116.068 104.345 116.638 103.674C117.208 103.004 117.952 102.668 118.872 102.668C119.336 102.668 119.786 102.779 120.222 103.002Z" fill="black"/>
<path d="M127.391 103.174C127.856 103.541 128.135 104.173 128.23 105.068H127.155C127.09 104.656 126.94 104.312 126.706 104.04C126.473 103.768 126.099 103.63 125.583 103.63C124.878 103.63 124.374 103.981 124.071 104.679C123.876 105.132 123.777 105.693 123.777 106.358C123.777 107.028 123.916 107.593 124.194 108.05C124.473 108.508 124.911 108.737 125.509 108.737C125.968 108.737 126.331 108.595 126.599 108.31C126.867 108.027 127.053 107.638 127.155 107.144H128.23C128.107 108.03 127.8 108.68 127.309 109.09C126.817 109.5 126.189 109.706 125.422 109.706C124.563 109.706 123.877 109.386 123.366 108.746C122.853 108.107 122.598 107.308 122.598 106.35C122.598 105.174 122.878 104.259 123.439 103.605C124 102.951 124.715 102.624 125.583 102.624C126.324 102.624 126.927 102.808 127.391 103.174Z" fill="black"/>
<path d="M133.437 107.935C133.706 107.371 133.841 106.743 133.841 106.052C133.841 105.428 133.743 104.92 133.549 104.529C133.242 103.914 132.71 103.605 131.958 103.605C131.29 103.605 130.804 103.868 130.5 104.392C130.197 104.917 130.045 105.55 130.045 106.29C130.045 107.001 130.197 107.594 130.5 108.068C130.804 108.543 131.286 108.781 131.946 108.781C132.67 108.781 133.168 108.498 133.437 107.935ZM134.123 103.486C134.705 104.061 134.996 104.906 134.996 106.021C134.996 107.1 134.739 107.99 134.226 108.694C133.714 109.397 132.919 109.749 131.842 109.749C130.943 109.749 130.23 109.438 129.702 108.815C129.172 108.194 128.908 107.358 128.908 106.309C128.908 105.184 129.187 104.29 129.744 103.624C130.3 102.957 131.049 102.624 131.988 102.624C132.831 102.624 133.541 102.912 134.123 103.486Z" fill="black"/>
<path d="M136.198 102.818H137.291V103.768C137.554 103.438 137.791 103.199 138.004 103.05C138.368 102.796 138.782 102.668 139.244 102.668C139.769 102.668 140.19 102.799 140.51 103.062C140.69 103.212 140.853 103.432 141.002 103.725C141.248 103.365 141.536 103.1 141.867 102.927C142.199 102.755 142.572 102.668 142.985 102.668C143.87 102.668 144.471 102.993 144.79 103.643C144.963 103.993 145.049 104.464 145.049 105.055V109.512H143.901V104.861C143.901 104.416 143.791 104.11 143.572 103.943C143.352 103.777 143.085 103.694 142.77 103.694C142.336 103.694 141.962 103.841 141.649 104.137C141.336 104.433 141.179 104.926 141.179 105.618V109.512H140.055V105.143C140.055 104.688 140.003 104.357 139.895 104.149C139.728 103.836 139.415 103.68 138.956 103.68C138.539 103.68 138.159 103.846 137.817 104.174C137.475 104.504 137.303 105.099 137.303 105.962V109.512H136.198V102.818Z" fill="black"/>
<path d="M110.701 100.127L109.062 101.933H108.215L109.338 100.127H110.701Z" fill="black"/>
<path d="M120.176 100.127L118.536 101.933H117.689L118.813 100.127H120.176Z" fill="black"/>
<path d="M77.0699 11.7685L30.499 59.1631V11.7685H77.0699Z" fill="#00B4D5"/>
<path d="M123.644 11.7685V59.1631H77.0703V11.7685L100.358 35.4658L123.644 11.7685Z" fill="#00B4D5"/>
<path d="M146.931 59.1626V35.4653H123.644L146.931 11.768H193.502L146.931 59.1626Z" fill="#00B4D5"/>
</svg>
