<svg width="187" height="85" viewBox="0 0 187 85" fill="none" xmlns="http://www.w3.org/2000/svg">
<g clip-path="url(#clip0_2530_2370)">
<path d="M136.703 0.280762H119.559C119.364 0.280762 119.206 0.438615 119.206 0.633337V66.0067C119.206 66.2014 119.364 66.3592 119.559 66.3592H136.703C136.898 66.3592 137.056 66.2014 137.056 66.0067V0.633337C137.056 0.438615 136.898 0.280762 136.703 0.280762Z" fill="#050505"/>
<path d="M184.996 0.28073H141.904C141.714 0.28073 141.561 0.434166 141.561 0.623512V14.5829C141.561 14.7722 141.714 14.9257 141.904 14.9257H154.523V66.0099C154.523 66.2058 154.68 66.3625 154.876 66.3625H172.02C172.216 66.3625 172.373 66.2058 172.373 66.0099V14.9224H184.992C185.182 14.9224 185.336 14.769 185.336 14.5796V0.620247C185.336 0.430901 185.182 0.277466 184.992 0.277466L184.996 0.28073Z" fill="#050505"/>
<path d="M88.2729 33.178L115.47 0.607213C115.643 0.398279 115.496 0.0816146 115.224 0.0816146L95.1285 0C95.0369 0 94.9486 0.039175 94.8865 0.107731L72.2438 25.5062C72.1915 25.565 72.1686 25.6401 72.1686 25.7151H72.1621V40.6474H72.1654C72.1654 40.7192 72.1883 40.7943 72.2406 40.853L94.8833 66.2515C94.9454 66.32 95.0336 66.3592 95.1252 66.3592L115.221 66.2809C115.492 66.2809 115.64 65.9642 115.466 65.7553L88.2663 33.1812L88.2729 33.178Z" fill="#050505"/>
<path d="M67.5225 0.208907L67.4473 66.3592L51.1992 2.19704C56.4365 0.799796 61.8831 0.159938 67.5225 0.208907Z" fill="#33A189"/>
<path d="M39.8843 6.20923L67.4537 66.3592L25.8789 14.8179C30.057 11.364 34.7385 8.51403 39.881 6.20923H39.8843Z" fill="#33A189"/>
<path d="M16.0417 24.6411L67.4503 66.356L7.30957 38.5548C9.51957 33.6122 12.4553 28.983 16.0417 24.6411Z" fill="#33A189"/>
<path d="M3.30567 49.8502L67.4545 66.3559L1.18067 66.1307C1.12509 60.718 1.86067 55.289 3.30567 49.8469V49.8502Z" fill="#33A189"/>
<path d="M0 74.4391H1.16058V78.3272H1.19981C1.43846 78.0171 1.68038 77.7298 1.90596 77.4654L4.65538 74.4391H6.09712L2.84096 77.8604L6.35212 82.4993H4.97577L2.01385 78.5394L1.16058 79.4241V82.4993H0V74.4391Z" fill="#050505"/>
<path d="M11.3606 82.5026L11.2658 81.7746H11.2266C10.867 82.2284 10.1706 82.6364 9.25196 82.6364C7.94427 82.6364 7.27734 81.8105 7.27734 80.9748C7.27734 79.5742 8.66677 78.8103 11.1612 78.8234V78.7026C11.1612 78.2227 11.0141 77.3641 9.69331 77.3641C9.09177 77.3641 8.46407 77.5306 8.00965 77.7951L7.74157 77.103C8.27446 76.7928 9.04927 76.5872 9.86331 76.5872C11.8379 76.5872 12.3185 77.7951 12.3185 78.954V81.1184C12.3185 81.6211 12.3447 82.1108 12.4264 82.5058H11.3573L11.3606 82.5026ZM11.1873 79.5481C9.90581 79.5253 8.451 79.7277 8.451 80.8507C8.451 81.533 8.95773 81.8562 9.55927 81.8562C10.3995 81.8562 10.9356 81.3796 11.122 80.8866C11.1612 80.7789 11.1873 80.6581 11.1873 80.5504V79.5449V79.5481Z" fill="#050505"/>
<path d="M14.2183 78.5198C14.2183 77.8375 14.2052 77.2531 14.166 76.7144H15.1926L15.2318 77.8505H15.2841C15.5783 77.0736 16.2845 76.5839 17.0724 76.5839C17.2064 76.5839 17.2979 76.5969 17.4058 76.6198V77.6122C17.2849 77.5894 17.1672 77.5763 17.0037 77.5763C16.1766 77.5763 15.5881 78.1378 15.4279 78.9278C15.4018 79.0715 15.3756 79.238 15.3756 79.4175V82.5026H14.2151V78.5198H14.2183Z" fill="#050505"/>
<path d="M18.7852 73.9429H19.9588V82.4341H18.7852V73.9429Z" fill="#050505"/>
<path d="M21.6295 81.4253C21.976 81.6277 22.5906 81.8432 23.1791 81.8432C24.0324 81.8432 24.4345 81.4612 24.4345 80.9813C24.4345 80.4786 24.101 80.2044 23.2347 79.9171C22.0741 79.5449 21.5249 78.9736 21.5249 78.2783C21.5249 77.3446 22.3651 76.5807 23.7545 76.5807C24.4083 76.5807 24.9837 76.7472 25.3433 76.9398L25.0491 77.7037C24.7941 77.5601 24.3266 77.3675 23.7283 77.3675C23.0353 77.3675 22.6462 77.7266 22.6462 78.1575C22.6462 78.6341 23.032 78.8496 23.8755 79.1369C24.9968 79.5188 25.5722 80.0216 25.5722 80.8834C25.5722 81.8987 24.6895 82.6169 23.1562 82.6169C22.4501 82.6169 21.7962 82.4602 21.3418 82.2219L21.636 81.4221L21.6295 81.4253Z" fill="#050505"/>
<path d="M27.0757 78.5198C27.0757 77.8375 27.0627 77.2531 27.0234 76.7144H28.05L28.0892 77.8505H28.1415C28.4357 77.0736 29.1419 76.5839 29.9298 76.5839C30.0638 76.5839 30.1554 76.5969 30.2632 76.6198V77.6122C30.1423 77.5894 30.0246 77.5763 29.8611 77.5763C29.034 77.5763 28.4456 78.1378 28.2854 78.9278C28.2592 79.0715 28.2331 79.238 28.2331 79.4175V82.5026H27.0725V78.5198H27.0757Z" fill="#050505"/>
<path d="M36.8476 80.9225C36.8476 81.5199 36.8606 82.0455 36.8999 82.5026H35.8603L35.7949 81.5591H35.7687C35.4614 82.026 34.7814 82.6364 33.6339 82.6364C32.6205 82.6364 31.4043 82.1337 31.4043 80.0999V76.7145H32.578V79.9203C32.578 81.0205 32.9506 81.7615 34.0197 81.7615C34.8076 81.7615 35.3535 81.2718 35.5693 80.805C35.6347 80.6483 35.6772 80.459 35.6772 80.2663V76.7145H36.8508V80.9258L36.8476 80.9225Z" fill="#050505"/>
<path d="M38.7959 74.0114H39.9696V77.6221H39.9957C40.1821 77.3217 40.4763 77.0606 40.8359 76.881C41.1824 76.7015 41.5976 76.5807 42.0357 76.5807C42.9021 76.5807 44.2915 77.0573 44.2915 79.0552V82.4994H43.1178V79.176C43.1178 78.2423 42.7321 77.4523 41.6238 77.4523C40.8621 77.4523 40.2605 77.9322 40.048 78.5035C39.9826 78.6472 39.9696 78.8039 39.9696 79.0063V82.4994H38.7959V74.0082V74.0114Z" fill="#050505"/>
<path d="M46.8616 79.7995C46.8877 81.2228 47.9045 81.8105 49.0781 81.8105C49.9183 81.8105 50.425 81.6799 50.8664 81.5101L51.0658 82.2642C50.6506 82.4307 49.9445 82.6233 48.9179 82.6233C46.9302 82.6233 45.7402 81.4514 45.7402 79.7048C45.7402 77.9583 46.8877 76.5839 48.7708 76.5839C50.8795 76.5839 51.4418 78.2455 51.4418 79.3098C51.4418 79.5253 51.4156 79.6917 51.4025 79.7995H46.8649H46.8616ZM50.3041 79.0454C50.3172 78.3761 49.9968 77.3347 48.676 77.3347C47.4893 77.3347 46.9662 78.3141 46.8747 79.0454H50.3041Z" fill="#050505"/>
<path d="M52.8961 78.5198C52.8961 77.8375 52.883 77.2531 52.8438 76.7144H53.8703L53.9095 77.8505H53.9618C54.2561 77.0736 54.9622 76.5839 55.7501 76.5839C55.8841 76.5839 55.9757 76.5969 56.0836 76.6198V77.6122C55.9626 77.5894 55.8449 77.5763 55.6814 77.5763C54.8543 77.5763 54.2659 78.1378 54.1057 78.9278C54.0795 79.0715 54.0534 79.238 54.0534 79.4175V82.5026H52.8928V78.5198H52.8961Z" fill="#050505"/>
<path d="M61.4848 74.4391V82.4993H60.3242V74.4391H61.4848Z" fill="#050505"/>
<path d="M63.4166 78.2783C63.4166 77.6809 63.4035 77.1912 63.3643 76.7113H64.4071L64.4725 77.6678H64.4987C64.8191 77.1161 65.5677 76.5807 66.6335 76.5807C67.5293 76.5807 68.9154 77.0573 68.9154 79.0455V82.5026H67.7418V79.1662C67.7418 78.2326 67.356 77.4556 66.2477 77.4556C65.4729 77.4556 64.8714 77.9453 64.672 78.5329C64.6196 78.6635 64.5935 78.843 64.5935 79.0226V82.5026H63.4198V78.2815L63.4166 78.2783Z" fill="#050505"/>
<path d="M70.6646 81.4253C71.0112 81.6277 71.6258 81.8432 72.2143 81.8432C73.0675 81.8432 73.4696 81.4612 73.4696 80.9813C73.4696 80.4786 73.1362 80.2044 72.2698 79.9171C71.1093 79.5449 70.56 78.9736 70.56 78.2783C70.56 77.3446 71.4002 76.5807 72.7896 76.5807C73.4435 76.5807 74.0189 76.7472 74.3785 76.9398L74.0843 77.7037C73.8293 77.5601 73.3618 77.3675 72.7635 77.3675C72.0704 77.3675 71.6814 77.7266 71.6814 78.1575C71.6814 78.6341 72.0671 78.8496 72.9106 79.1369C74.032 79.5188 74.6073 80.0216 74.6073 80.8834C74.6073 81.8987 73.7246 82.6169 72.1914 82.6169C71.4852 82.6169 70.8314 82.4602 70.377 82.2219L70.6712 81.4221L70.6646 81.4253Z" fill="#050505"/>
<path d="M77.2156 75.0495V76.7112H78.8993V77.5143H77.2156V80.6352C77.2156 81.3534 77.4412 81.7583 78.095 81.7583C78.4023 81.7583 78.6279 81.7223 78.775 81.6864L78.8273 82.4765C78.6018 82.5613 78.2389 82.6201 77.7877 82.6201C77.2418 82.6201 76.8004 82.4634 76.5193 82.1761C76.1858 81.866 76.0648 81.3502 76.0648 80.6679V77.511H75.0645V76.7079H76.0648V75.3205L77.2123 75.0463L77.2156 75.0495Z" fill="#050505"/>
<path d="M81.7049 76.7112H80.5312V82.4993H81.7049V76.7112Z" fill="#050505"/>
<path d="M85.0685 75.0495V76.7112H86.7521V77.5143H85.0685V80.6352C85.0685 81.3534 85.2941 81.7583 85.9479 81.7583C86.2552 81.7583 86.4808 81.7223 86.6279 81.6864L86.6802 82.4765C86.4546 82.5613 86.0918 82.6201 85.6373 82.6201C85.0914 82.6201 84.65 82.4634 84.3689 82.1761C84.0354 81.866 83.9144 81.3502 83.9144 80.6679V77.511H82.9141V76.7079H83.9144V75.3205L85.0619 75.0463L85.0685 75.0495Z" fill="#050505"/>
<path d="M93.4804 80.9225C93.4804 81.5199 93.4935 82.0455 93.5327 82.5026H92.4931L92.4277 81.5591H92.4015C92.0942 82.026 91.4142 82.6364 90.2667 82.6364C89.2533 82.6364 88.0371 82.1337 88.0371 80.0999V76.7145H89.2108V79.9203C89.2108 81.0205 89.5835 81.7615 90.6525 81.7615C91.4404 81.7615 91.9863 81.2718 92.2021 80.805C92.2675 80.6483 92.31 80.459 92.31 80.2663V76.7145H93.4836V80.9258L93.4804 80.9225Z" fill="#050505"/>
<path d="M96.8449 75.0495V76.7112H98.5285V77.5143H96.8449V80.6352C96.8449 81.3534 97.0704 81.7583 97.7243 81.7583C98.0316 81.7583 98.2572 81.7223 98.4043 81.6864L98.4566 82.4765C98.231 82.5613 97.8681 82.6201 97.4137 82.6201C96.8677 82.6201 96.4264 82.4634 96.1452 82.1761C95.8118 81.866 95.6908 81.3502 95.6908 80.6679V77.511H94.6904V76.7079H95.6908V75.3205L96.8383 75.0463L96.8449 75.0495Z" fill="#050505"/>
<path d="M103.693 82.5026V77.5143H102.784V76.7112H103.693V76.437C103.693 75.6241 103.892 74.8831 104.442 74.4162C104.883 74.0343 105.468 73.8776 106.017 73.8776C106.433 73.8776 106.792 73.9624 107.018 74.0441L106.858 74.8569C106.684 74.7851 106.442 74.7264 106.109 74.7264C105.109 74.7264 104.854 75.5164 104.854 76.4011V76.7112H106.416V77.5143H104.854V82.5026H103.693Z" fill="#050505"/>
<path d="M113.151 80.7919C113.151 81.3893 113.164 81.9149 113.204 82.372H112.164L112.099 81.4285H112.072C111.765 81.8953 111.085 82.5058 109.938 82.5058C108.924 82.5058 107.708 82.0031 107.708 79.9692V76.5839H108.882V79.7897C108.882 80.8899 109.254 81.6309 110.323 81.6309C111.111 81.6309 111.657 81.1412 111.873 80.6744C111.938 80.5177 111.981 80.3283 111.981 80.1357V76.5839H113.155V80.7952L113.151 80.7919Z" fill="#050505"/>
<path d="M114.832 78.5198C114.832 77.8375 114.819 77.2531 114.779 76.7144H115.806L115.845 77.8505H115.897C116.192 77.0736 116.898 76.5839 117.686 76.5839C117.82 76.5839 117.911 76.5969 118.019 76.6198V77.6122C117.898 77.5894 117.78 77.5763 117.617 77.5763C116.79 77.5763 116.201 78.1378 116.041 78.9278C116.015 79.0715 115.989 79.238 115.989 79.4175V82.5026H114.828V78.5198H114.832Z" fill="#050505"/>
<path d="M123.328 75.3271H120.592V74.4424H127.254V75.3271H124.505V82.5026H123.331V75.3271H123.328Z" fill="#050505"/>
<path d="M128.049 79.7375C128.075 81.1608 129.092 81.7485 130.266 81.7485C131.106 81.7485 131.613 81.6179 132.054 81.4481L132.253 82.2022C131.838 82.3687 131.132 82.5613 130.105 82.5613C128.118 82.5613 126.928 81.3894 126.928 79.6428C126.928 77.8962 128.075 76.5219 129.958 76.5219C132.067 76.5219 132.629 78.1835 132.629 79.2478C132.629 79.4632 132.603 79.6297 132.59 79.7375H128.052H128.049ZM131.495 78.9866C131.508 78.3174 131.188 77.276 129.867 77.276C128.68 77.276 128.157 78.2553 128.065 78.9866H131.495Z" fill="#050505"/>
<path d="M138.374 82.2219C138.066 82.3655 137.386 82.5581 136.517 82.5581C134.568 82.5581 133.3 81.3731 133.3 79.6037C133.3 77.8343 134.66 76.5284 136.772 76.5284C137.465 76.5284 138.079 76.6851 138.4 76.8288L138.132 77.6417C137.851 77.498 137.409 77.3674 136.768 77.3674C135.288 77.3674 134.487 78.3468 134.487 79.558C134.487 80.8965 135.448 81.7224 136.729 81.7224C137.396 81.7224 137.838 81.5657 138.171 81.4351L138.37 82.2251L138.374 82.2219Z" fill="#050505"/>
<path d="M139.6 73.9428H140.773V77.5535H140.799C140.986 77.2531 141.28 76.992 141.64 76.8124C141.986 76.6329 142.401 76.5121 142.843 76.5121C143.709 76.5121 145.098 76.9887 145.098 78.9866V82.4308H143.925V79.1074C143.925 78.1737 143.539 77.3837 142.431 77.3837C141.669 77.3837 141.067 77.8636 140.855 78.4349C140.79 78.5785 140.777 78.7352 140.777 78.9377V82.4308H139.603V73.9396L139.6 73.9428Z" fill="#050505"/>
<path d="M146.35 78.2783C146.35 77.6809 146.337 77.1912 146.298 76.7113H147.341L147.406 77.6678H147.432C147.753 77.1161 148.501 76.5807 149.567 76.5807C150.463 76.5807 151.849 77.0573 151.849 79.0455V82.5026H150.675V79.1662C150.675 78.2326 150.29 77.4556 149.181 77.4556C148.407 77.4556 147.805 77.9453 147.606 78.5329C147.553 78.6635 147.527 78.843 147.527 79.0226V82.5026H146.353V78.2815L146.35 78.2783Z" fill="#050505"/>
<path d="M159.607 79.558C159.607 81.6996 157.953 82.6332 156.39 82.6332C154.641 82.6332 153.294 81.4841 153.294 79.6559C153.294 77.72 154.71 76.5807 156.498 76.5807C158.286 76.5807 159.607 77.7886 159.607 79.558ZM154.481 79.62C154.481 80.8867 155.295 81.8432 156.442 81.8432C157.59 81.8432 158.404 80.8997 158.404 79.5939C158.404 78.6145 157.858 77.3707 156.468 77.3707C155.079 77.3707 154.481 78.5199 154.481 79.62Z" fill="#050505"/>
<path d="M161.088 74.0115H162.262V82.5027H161.088V74.0115Z" fill="#050505"/>
<path d="M170.088 79.558C170.088 81.6996 168.434 82.6332 166.871 82.6332C165.122 82.6332 163.775 81.4841 163.775 79.6559C163.775 77.72 165.191 76.5807 166.979 76.5807C168.768 76.5807 170.088 77.7886 170.088 79.558ZM164.962 79.62C164.962 80.8867 165.776 81.8432 166.924 81.8432C168.071 81.8432 168.885 80.8997 168.885 79.5939C168.885 78.6145 168.339 77.3707 166.95 77.3707C165.56 77.3707 164.962 78.5199 164.962 79.62Z" fill="#050505"/>
<path d="M177.137 76.7112C177.111 77.1291 177.085 77.5959 177.085 78.3011V81.6603C177.085 82.989 176.791 83.8019 176.163 84.3046C175.535 84.8302 174.626 84.9967 173.812 84.9967C172.998 84.9967 172.184 84.8302 171.665 84.5168L171.959 83.717C172.387 83.9553 173.054 84.1708 173.855 84.1708C175.055 84.1708 175.937 83.6093 175.937 82.15V81.5036H175.911C175.552 82.0423 174.855 82.4732 173.855 82.4732C172.253 82.4732 171.105 81.2522 171.105 79.6493C171.105 77.6873 172.534 76.5741 174.015 76.5741C175.136 76.5741 175.751 77.0997 176.032 77.5796H176.058L176.111 76.7079H177.137V76.7112ZM175.921 78.9964C175.921 78.8169 175.908 78.6602 175.856 78.5165C175.643 77.906 175.068 77.4033 174.215 77.4033C173.093 77.4033 172.292 78.2521 172.292 79.5938C172.292 80.7299 172.933 81.6734 174.201 81.6734C174.924 81.6734 175.578 81.2653 175.83 80.5961C175.895 80.4165 175.924 80.2141 175.924 80.0346V78.9932L175.921 78.9964Z" fill="#050505"/>
<path d="M179.965 76.7178H178.791V82.5059H179.965V76.7178Z" fill="#050505"/>
<path d="M179.873 74.0115H178.699V75.3271H179.873V74.0115Z" fill="#050505"/>
<path d="M112.403 74.0115H111.229V75.3271H112.403V74.0115Z" fill="#050505"/>
<path d="M109.709 74.0115H108.535V75.3271H109.709V74.0115Z" fill="#050505"/>
<path d="M81.7049 74.0115H80.5312V75.3271H81.7049V74.0115Z" fill="#050505"/>
<path d="M182.42 79.7375C182.446 81.1608 183.463 81.7485 184.637 81.7485C185.477 81.7485 185.984 81.6179 186.425 81.4481L186.624 82.2022C186.209 82.3687 185.503 82.5613 184.477 82.5613C182.489 82.5613 181.299 81.3894 181.299 79.6428C181.299 77.8962 182.446 76.5219 184.329 76.5219C186.438 76.5219 187 78.1835 187 79.2478C187 79.4632 186.974 79.6297 186.961 79.7375H182.423H182.42ZM185.863 78.9866C185.876 78.3174 185.555 77.276 184.235 77.276C183.048 77.276 182.525 78.2553 182.433 78.9866H185.863Z" fill="#050505"/>
</g>
<defs>
<clipPath id="clip0_2530_2370">
<rect width="187" height="85" fill="white"/>
</clipPath>
</defs>
</svg>
