<svg width="191" height="77" viewBox="0 0 191 77" fill="none" xmlns="http://www.w3.org/2000/svg">
<g clip-path="url(#clip0_2530_2310)">
<path d="M22.2002 24.1998H24.8002V18.5998C24.8002 17.8998 24.2002 17.2998 23.5002 17.2998C22.8002 17.2998 22.2002 17.8998 22.2002 18.5998V24.1998Z" fill="#263068"/>
<path d="M16.7998 24.1998H19.3998V18.5998C19.3998 17.8998 18.7998 17.2998 18.0998 17.2998C17.3998 17.2998 16.7998 17.8998 16.7998 18.5998V24.1998Z" fill="#263068"/>
<path d="M27.6006 24.1998H30.2006V18.5998C30.2006 17.8998 29.6006 17.2998 28.9006 17.2998C28.2006 17.2998 27.6006 17.8998 27.6006 18.5998V24.1998Z" fill="#263068"/>
<path d="M24.0998 3.5999C25.7998 3.8999 26.3998 5.3999 26.3998 6.3999V8.5999H27.9998V9.7999C32.0998 11.6999 34.9998 15.9999 34.9998 20.3999V20.4999V24.2999H44.3998V20.4999C44.1998 8.0999 35.3998 0.599902 23.7998 0.399902L24.0998 3.5999Z" fill="#263068"/>
<path d="M22.4004 6.3998V8.5998H24.7004V6.3998C24.7004 5.7998 24.2004 5.2998 23.6004 5.2998C22.9004 5.1998 22.4004 5.7998 22.4004 6.3998Z" fill="#263068"/>
<path d="M25.2002 30.3C15.5002 27.8 11.8002 25.7 11.8002 19.5C11.8002 15.1 14.8002 11.3 18.9002 9.6V8.6H20.5002V6.5C20.5002 5.4 21.2002 3.9 22.9002 3.7L23.2002 0.5C11.5002 0.5 1.60018 8.6 2.10018 19.5C2.60018 31.7 16.1002 35.2 23.3002 36.7C29.0002 37.9 42.7002 41.1 46.1002 50.8C46.0002 50.8 47.3002 34.8 25.2002 30.3Z" fill="#263068"/>
<path d="M22.0003 47.3C31.8003 50.3 34.3003 53.9 34.3003 59.1C34.3003 67 28.2003 70.2 20.5003 70.2C13.2003 70.2 6.90026 66.8 2.70026 62.4L1.10026 65.6C4.20026 71.4 12.9003 76.7 22.5003 76.7C35.0003 76.8 45.6003 71 45.6003 59.3C45.6003 46.8 31.9003 41.8 24.3003 40.2C18.3003 38.9 3.30026 34.9 0.600261 26.5C0.600261 26.5 -2.39974 41.1 22.0003 47.3Z" fill="#263068"/>
<path d="M59.6998 31.3C59.6998 31.3 61.3998 32.9 63.5998 32.9C64.7998 32.9 65.7998 32.3 65.7998 31.1C65.7998 28.4 58.4998 28.9 58.4998 24.3C58.4998 21.8 60.6998 20 63.6998 20C66.6998 20 68.2998 21.6 68.2998 21.6L67.0998 23.8C67.0998 23.8 65.5998 22.5 63.6998 22.5C62.3998 22.5 61.3998 23.2 61.3998 24.3C61.3998 26.9 68.6998 26.3 68.6998 31C68.6998 33.4 66.7998 35.3 63.5998 35.3C60.1998 35.3 58.2998 33.3 58.2998 33.3L59.6998 31.3Z" fill="#E6332A"/>
<path d="M80.5 32.8999C83.3 32.8999 85.6 30.5999 85.6 27.5999C85.6 24.6999 83.3 22.4999 80.5 22.4999C77.7 22.4999 75.4 24.6999 75.4 27.5999C75.4 30.6999 77.6 32.8999 80.5 32.8999ZM80.5 20.0999C85 20.0999 88.5 23.3999 88.5 27.6999C88.5 32.0999 85.1 35.4999 80.5 35.4999C76 35.4999 72.5 32.0999 72.5 27.6999C72.5 23.3999 75.9 20.0999 80.5 20.0999Z" fill="#E6332A"/>
<path d="M98.3 27.2998C99.8 27.2998 100.7 26.3998 100.7 24.9998C100.7 23.5998 100.1 22.6998 97.9 22.6998H95.8V27.2998H98.3ZM93 20.2998H98C99.7 20.2998 100.4 20.3998 101.1 20.6998C102.6 21.3998 103.6 22.7998 103.6 24.7998C103.6 26.5998 102.6 28.1998 101 28.8998C101 28.8998 101.2 29.0998 101.5 29.5998L104.7 35.0998H101.6L98.5 29.5998H95.8V35.0998H93V20.2998Z" fill="#E6332A"/>
<path d="M114.5 32.7998C115.9 32.7998 116.7 31.8998 116.7 30.5998C116.7 29.3998 115.9 28.4998 114.5 28.4998H111.5V32.7998H114.5ZM114.2 26.3998C115.4 26.3998 116.1 25.5998 116.1 24.4998C116.1 23.3998 115.4 22.6998 114.1 22.6998H111.4V26.3998H114.2ZM108.7 20.2998H114.2C117 20.2998 119 21.6998 119 24.0998C119 25.4998 118.3 26.6998 117.1 27.2998C118.8 27.7998 119.6 29.2998 119.6 30.7998C119.6 33.7998 117.1 35.0998 114.3 35.0998H108.7V20.2998Z" fill="#E6332A"/>
<path d="M131.2 32.8999C134 32.8999 136.3 30.5999 136.3 27.5999C136.3 24.6999 134 22.4999 131.2 22.4999C128.4 22.4999 126.1 24.6999 126.1 27.5999C126.1 30.6999 128.4 32.8999 131.2 32.8999ZM131.2 20.0999C135.7 20.0999 139.2 23.3999 139.2 27.6999C139.2 32.0999 135.8 35.4999 131.2 35.4999C126.7 35.4999 123.2 32.0999 123.2 27.6999C123.2 23.3999 126.7 20.0999 131.2 20.0999Z" fill="#E6332A"/>
<path d="M144 20.2998H146.8L152.7 28.8998C153.3 29.7998 154 31.1998 154 31.1998C154 31.1998 153.8 29.7998 153.8 28.8998V20.2998H156.6V35.0998H153.8L147.9 26.5998C147.3 25.6998 146.6 24.2998 146.6 24.2998C146.6 24.2998 146.8 25.6998 146.8 26.5998V35.0998H144V20.2998Z" fill="#E6332A"/>
<path d="M162.2 20.2998H165L170.9 28.8998C171.5 29.7998 172.2 31.1998 172.2 31.1998C172.2 31.1998 172 29.7998 172 28.8998V20.2998H174.8V35.0998H172L166.1 26.5998C165.5 25.6998 164.8 24.2998 164.8 24.2998C164.8 24.2998 165 25.6998 165 26.5998V35.0998H162.2V20.2998Z" fill="#E6332A"/>
<path d="M180.4 20.2998V35.1998H190V32.7998H183.2V28.7998H188.4V26.4998H183.2V22.5998H189.7V20.2998H180.4Z" fill="#E6332A"/>
<path d="M58.4004 41.6999H61.2004V51.2999C61.2004 53.2999 62.6004 54.3999 64.7004 54.3999C66.8004 54.3999 68.2004 53.2999 68.2004 51.1999V41.5999H71.0004V51.1999C71.0004 54.5999 68.5004 56.7999 64.7004 56.7999C60.9004 56.7999 58.4004 54.4999 58.4004 51.1999V41.6999Z" fill="#E6332A"/>
<path d="M75.7002 41.7998H78.5002L84.4002 50.3998C85.0002 51.2998 85.7002 52.6998 85.7002 52.6998C85.7002 52.6998 85.5002 51.2998 85.5002 50.3998V41.7998H88.3002V56.5998H85.5002L79.6002 48.0998C79.0002 47.1998 78.3002 45.7998 78.3002 45.7998C78.3002 45.7998 78.5002 47.1998 78.5002 48.0998V56.5998H75.7002V41.7998Z" fill="#E6332A"/>
<path d="M96.0998 41.7998H93.2998V56.5998H96.0998V41.7998Z" fill="#E6332A"/>
<path d="M99.2002 41.7998H102.2L105.6 51.4998C105.9 52.3998 106.2 53.6998 106.2 53.6998H106.3C106.3 53.6998 106.6 52.3998 106.9 51.4998L110.3 41.7998H113.3L107.7 56.5998H104.9L99.2002 41.7998Z" fill="#E6332A"/>
<path d="M116.3 41.7998H125.5V44.0998H119.1V47.9998H124.3V50.2998H119.1V54.2998H125.9V56.6998H116.3V41.7998Z" fill="#E6332A"/>
<path d="M135.2 48.7998C136.7 48.7998 137.6 47.8998 137.6 46.4998C137.6 45.0998 137 44.1998 134.8 44.1998H132.7V48.7998H135.2ZM129.9 41.7998H134.9C136.6 41.7998 137.3 41.8998 138 42.1998C139.5 42.8998 140.5 44.2998 140.5 46.2998C140.5 48.0998 139.5 49.6998 137.9 50.3998C137.9 50.3998 138.1 50.5998 138.4 51.0998L141.6 56.5998H138.5L135.4 51.0998H132.7V56.5998H129.9V41.7998Z" fill="#E6332A"/>
<path d="M145.6 52.8999C145.6 52.8999 147.3 54.4999 149.5 54.4999C150.7 54.4999 151.7 53.8999 151.7 52.6999C151.7 49.9999 144.4 50.4999 144.4 45.8999C144.4 43.3999 146.6 41.5999 149.6 41.5999C152.6 41.5999 154.2 43.1999 154.2 43.1999L153 45.3999C153 45.3999 151.5 44.0999 149.6 44.0999C148.3 44.0999 147.3 44.7999 147.3 45.8999C147.3 48.4999 154.6 47.8999 154.6 52.5999C154.6 54.9999 152.7 56.8999 149.5 56.8999C146.1 56.8999 144.2 54.8999 144.2 54.8999L145.6 52.8999Z" fill="#E6332A"/>
<path d="M161.2 41.7998H158.4V56.5998H161.2V41.7998Z" fill="#E6332A"/>
<path d="M169.4 44.0998H164.4V41.7998H177.3V44.0998H172.2V56.6998H169.4V44.0998Z" fill="#E6332A"/>
<path d="M180.5 41.8V56.6H190.1V54.3H183.3V50.3H188.5V48H183.3V44.1H189.7V41.8H180.5ZM185.8 38L184.1 40.8H186.3L188.6 38H185.8Z" fill="#E6332A"/>
</g>
<defs>
<clipPath id="clip0_2530_2310">
<rect width="190.3" height="77" fill="white"/>
</clipPath>
</defs>
</svg>
