<svg width="224" height="121" viewBox="0 0 224 121" fill="none" xmlns="http://www.w3.org/2000/svg">
<path d="M211 96.9016H13V24.9016H211V96.9016Z" fill="#BE1E3C"/>
<path fill-rule="evenodd" clip-rule="evenodd" d="M53.9287 57.4321C54.3592 57.183 54.8796 56.8997 55.18 56.6565C55.5512 56.358 56.0571 55.7025 56.0596 55.4505C55.4888 54.8164 55.5841 54.1883 55.5522 53.5904C55.5452 53.4566 55.3736 53.3164 55.1341 53.4302C54.4785 53.7408 53.7161 53.9709 53.7161 53.9709C53.7161 53.9709 53.5565 54.899 53.769 55.1168C53.988 55.3449 54.488 55.2648 54.449 55.5965C54.4226 55.8104 54.0993 56.1778 53.8907 56.339C53.538 56.6125 53.1139 56.8435 52.8959 56.9447C52.8959 56.9447 52.2498 56.7195 51.3726 56.8015C51.0289 56.8328 51.0099 57.1088 51.0099 57.1088C51.0099 57.1088 50.8942 57.1137 50.8064 57.1508C50.7071 57.1928 50.6367 57.288 50.6367 57.288C50.6367 57.288 50.7091 57.3769 50.8268 57.4229C50.9046 57.4531 51.0169 57.4473 51.0169 57.4473C51.0498 57.5713 51.1691 57.7023 51.3422 57.7262C51.7773 57.7872 52.0657 57.7413 52.2982 57.6861C52.4309 57.6534 52.5237 57.6725 52.5586 57.7755C52.5925 57.8776 52.4962 57.9577 52.4104 58.0085C52.0761 58.201 51.8411 58.3441 51.7049 58.5082C51.5677 58.6704 51.4984 58.8873 51.5667 59.0568C51.5323 59.1095 51.4839 59.1715 51.4605 59.259C51.436 59.3469 51.442 59.4348 51.4669 59.5271C51.5323 59.5301 51.5937 59.5203 51.663 59.4939C51.7334 59.4671 51.8022 59.4299 51.8561 59.3479C52.0312 59.404 52.2592 59.365 52.4249 59.1276C52.5646 58.9298 52.7292 58.5771 52.7766 58.4349C52.8235 58.2918 52.8859 58.2601 52.9697 58.2777C53.0441 58.2928 53.1044 58.3412 53.0625 58.5693C53.0321 58.7334 53.0361 59.0778 53.0655 59.235C53.1698 59.7963 53.4816 59.7611 53.4816 59.7611C53.4816 59.7611 53.5046 59.8603 53.5689 59.9394C53.6363 60.0185 53.7221 60.0708 53.7999 60.0918C53.8354 60.0156 53.8643 59.9013 53.8528 59.8065C53.8408 59.7123 53.8119 59.6483 53.8119 59.6483C53.8887 59.5901 53.989 59.4729 53.9421 59.235C53.8563 58.8277 53.6937 58.6381 53.5749 58.4589C53.4991 58.3392 53.526 58.2479 53.5994 58.1956C53.6732 58.1448 53.7835 58.1599 53.8798 58.2977C53.991 58.4511 54.1432 58.6631 54.4431 58.8042C54.6461 58.8995 54.8058 58.8663 54.9011 58.7886C54.9011 58.7886 54.9879 58.8394 55.0617 58.8633C55.1351 58.8882 55.2189 58.8975 55.3067 58.8882C55.2927 58.8067 55.2698 58.7275 55.2364 58.6533C55.2014 58.582 55.1645 58.537 55.1076 58.4853C55.1226 58.3758 55.0972 58.1678 55.0034 58.0749C54.6731 57.7487 53.9287 57.4321 53.9287 57.4321Z" fill="white"/>
<path fill-rule="evenodd" clip-rule="evenodd" d="M50.5434 44.0557C50.5434 44.0557 51.0344 44.6921 51.3123 44.4982C51.5343 44.3429 51.4155 44.0889 51.2449 43.9145C51.0129 43.6752 50.7704 43.8495 50.5434 44.0557ZM60.2306 58.8165C60.1408 58.8248 60.057 58.8165 59.9841 58.7925C59.9098 58.7666 59.8235 58.7163 59.8235 58.7163C59.7277 58.7954 59.568 58.8277 59.3645 58.7315C59.0651 58.5903 58.9129 58.3793 58.8012 58.224C58.7039 58.0886 58.5946 58.072 58.5203 58.1238C58.4464 58.1761 58.42 58.2679 58.4963 58.3871C58.6141 58.5673 58.7777 58.7554 58.8635 59.1647C58.9119 59.4002 58.8087 59.5193 58.7328 59.5765C58.7328 59.5765 58.7633 59.6424 58.7747 59.7362C58.7867 59.8305 58.7563 59.9448 58.7233 60.0215C58.643 60.0005 58.5567 59.9477 58.4913 59.8686C58.425 59.7895 58.4025 59.6903 58.4025 59.6903C58.4025 59.6903 58.0907 59.7255 57.9864 59.1647C57.956 59.007 57.9535 58.6606 57.9834 58.497C58.0253 58.2708 57.965 58.221 57.8911 58.2059C57.8063 58.1868 57.744 58.22 57.6961 58.3622C57.6492 58.5053 57.4835 58.8575 57.3453 59.0568C57.1787 59.2942 56.9497 59.3342 56.776 59.2771C56.7226 59.3591 56.6513 59.3963 56.5824 59.4231C56.5121 59.45 56.4507 59.4602 56.3874 59.4563C56.3599 59.3621 56.3544 59.2741 56.3784 59.1887C56.4018 59.1007 56.4507 59.0387 56.4837 58.9859C56.4168 58.8155 56.4857 58.5991 56.6244 58.4359C56.7616 58.2718 56.9956 58.1297 57.3308 57.9358C57.4152 57.8864 57.5139 57.8053 57.4795 57.7033C57.4436 57.5992 57.3513 57.5811 57.2176 57.6134C56.9856 57.6695 56.6962 57.7135 56.2616 57.6544C56.087 57.6305 55.9673 57.4991 55.9343 57.374C55.9343 57.374 55.8231 57.3794 55.7442 57.3491C55.6275 57.3022 55.5561 57.2148 55.5561 57.2148C55.5561 57.2148 55.6245 57.12 55.7248 57.077C55.8126 57.0399 55.9283 57.035 55.9283 57.035C55.9283 57.035 55.9438 56.7835 56.2861 56.7356C56.9527 56.6457 57.5838 56.8636 57.7923 56.9237C57.962 56.5446 58.1835 55.5496 58.0827 54.9801C57.9784 54.3886 57.1837 54.5507 56.9018 53.9993C56.549 53.3086 56.6268 52.2623 56.1449 52.1724C55.3506 52.0249 55.9927 52.6355 53.1932 53.3071C52.3356 53.5128 51.666 53.3955 51.1885 53.8771C51.0014 54.0672 50.6751 54.9498 50.2191 55.5223C49.4158 56.5305 48.8096 56.8226 48.8096 56.8226C48.9249 56.8699 49.3674 57.0678 49.6119 57.3569C49.6977 57.4551 49.7307 57.6564 49.7162 57.7677C49.7736 57.8176 49.8095 57.8625 49.8429 57.9358C49.8778 58.0085 49.9013 58.0886 49.9168 58.1707C49.8274 58.178 49.7436 58.1707 49.6703 58.1458C49.5964 58.1199 49.5096 58.0696 49.5096 58.0696C49.4138 58.1487 49.2542 58.181 49.0506 58.0867C48.7513 57.9436 48.5986 57.7326 48.4873 57.5772C48.39 57.4414 48.2808 57.4253 48.2064 57.4771C48.1326 57.5284 48.1041 57.6212 48.1825 57.7404C48.2992 57.9206 48.4639 58.1087 48.5497 58.5175C48.5986 58.7544 48.4953 58.8726 48.419 58.9298C48.419 58.9298 48.4484 58.9957 48.4599 59.09C48.4709 59.1838 48.4424 59.2991 48.4075 59.3762C48.3297 59.3542 48.2428 59.301 48.1765 59.2219C48.1111 59.1427 48.0867 59.0436 48.0867 59.0436C48.0867 59.0436 47.7759 59.0788 47.6706 58.5175C47.6426 58.3602 47.6376 58.0139 47.6676 57.8508C47.7095 57.6236 47.6501 57.5743 47.5753 57.5592C47.4915 57.5416 47.4291 57.5733 47.3822 57.7155C47.3343 57.8586 47.1697 58.2122 47.0314 58.4101C46.8648 58.6474 46.6348 58.6865 46.4602 58.6303C46.4068 58.7124 46.3374 58.7495 46.2686 58.7764C46.1972 58.8028 46.1369 58.8145 46.0715 58.8116C46.0461 58.7163 46.0406 58.6284 46.063 58.5414C46.088 58.454 46.1369 58.392 46.1698 58.3392C46.1009 58.1688 46.1708 57.9519 46.3085 57.7887C46.4477 57.6266 46.6817 57.4815 47.015 57.289C47.1018 57.2392 47.1981 57.1581 47.1642 57.0551C47.1287 56.952 47.0374 56.9349 46.9037 56.9667C46.6707 57.0209 46.3803 57.0678 45.9458 57.0067C45.7717 56.9838 45.6534 56.8519 45.6195 56.7268C45.6195 56.7268 45.5082 56.7327 45.4294 56.7014C45.3126 56.6565 45.2403 56.5676 45.2403 56.5676C45.2403 56.5676 45.3096 56.4723 45.4089 56.4303C45.4987 56.3932 45.6125 56.3873 45.6125 56.3873C45.6125 56.3873 45.6818 56.1211 46.0062 56.0791C46.8853 55.9638 47.6451 56.2682 47.6451 56.2682C47.6451 56.2682 48.7093 55.5745 49.0416 55.1022C49.3051 54.7285 49.5191 54.2821 49.5915 53.8801C49.6813 53.3833 49.5366 53.3335 49.3809 53.2172C49.1654 53.0609 48.8216 52.845 48.3955 52.3546C48.151 52.0742 47.8317 51.3816 47.8198 50.7007C47.4785 50.4066 47.0344 49.9001 46.7196 49.4976C46.7286 49.6779 46.7471 50.0393 46.5929 50.4315C46.546 50.5527 46.3579 50.6548 46.2481 50.686C46.2217 50.7569 46.1932 50.8072 46.1379 50.8663C46.0835 50.9259 46.0171 50.9772 45.9458 51.0231C45.9039 50.9464 45.8784 50.8682 45.8739 50.792C45.8679 50.7149 45.8824 50.6186 45.8824 50.6186C45.7717 50.562 45.6769 50.4306 45.6878 50.2103C45.7053 49.885 45.8435 49.6652 45.9448 49.504C46.0356 49.3628 46.0081 49.2578 45.9303 49.2114C45.8525 49.1645 45.7537 49.1777 45.6749 49.2925C45.5491 49.4688 45.4364 49.691 45.0866 49.927C44.8816 50.0642 44.7319 50.0173 44.6471 49.9704C44.6471 49.9704 44.5962 50.0232 44.5124 50.0701C44.4285 50.1165 44.3088 50.1365 44.224 50.1346C44.2135 50.0554 44.229 49.9582 44.2774 49.8659C44.3263 49.7751 44.4111 49.716 44.4111 49.716C44.4111 49.716 44.2559 49.4507 44.7424 49.1366C44.8791 49.0492 45.2034 48.91 45.368 48.8714C45.598 48.8211 45.6215 48.7483 45.607 48.675C45.591 48.592 45.5377 48.55 45.3845 48.5627C45.2308 48.5749 44.8352 48.5637 44.5942 48.5168C44.3048 48.4606 44.1791 48.2677 44.1636 48.0904C44.0653 48.0733 44.0039 48.0254 43.9511 47.9731C43.8987 47.9194 43.8642 47.8681 43.8418 47.809C43.9211 47.7479 44.001 47.7098 44.0923 47.6971C44.1841 47.683 44.2609 47.704 44.3243 47.7133C44.458 47.5858 44.688 47.5638 44.8965 47.6249C45.1021 47.684 45.3291 47.8383 45.6409 48.0645C45.7218 48.1226 45.8365 48.1788 45.9188 48.1084C46.0022 48.0352 45.9837 47.9463 45.9009 47.8383C45.7587 47.6503 45.603 47.407 45.4898 46.9913C45.4429 46.8243 45.5212 46.666 45.6245 46.5888C45.6245 46.5888 45.5766 46.4892 45.5746 46.4076C45.5716 46.2835 45.6265 46.1839 45.6265 46.1839C45.6265 46.1839 45.7442 46.2088 45.822 46.2835C45.8914 46.348 45.9418 46.4501 45.9418 46.4501C45.9418 46.4501 46.2706 46.3827 46.4342 46.6802C46.7525 47.2566 46.6942 47.7142 46.6612 47.8994C46.9027 48.3439 47.1482 48.5559 47.4386 48.8289C47.6062 48.9852 47.8801 49.1425 48.1989 49.2944C48.4055 48.9735 48.6929 48.6702 49.0556 48.3219C49.4822 47.9111 49.786 47.7323 50.1029 47.4471C50.483 47.1046 50.6731 46.7573 50.6731 46.7573C50.6731 46.7573 50.022 46.5659 49.339 46.772C49.2632 46.6499 49.12 46.389 49.2452 46.2225C49.7561 46.0173 50.514 46.0505 50.8582 46.1526C50.972 45.9792 51.205 45.5489 50.9291 45.3169C50.5763 45.0204 49.6828 44.9525 49.0426 45.2788C48.885 45.1957 48.6619 44.8924 48.8116 44.5622C48.4649 44.1939 48.6929 44.0708 48.8156 44.0205C49.2173 43.8505 49.5465 43.9126 49.9178 43.8964C49.9237 43.7504 49.9227 43.6693 49.9931 43.4974C50.1652 43.0817 51.2723 43.2131 51.6875 43.2106C51.9728 43.2087 52.2148 43.1559 52.4593 43.1095C52.7896 43.0407 52.807 43.364 52.7202 43.4939L52.5002 43.7802C52.8335 43.9116 53.1763 44.1089 53.302 44.4631C53.3978 44.7341 53.3254 45.0424 53.3978 45.2876C53.4786 45.564 53.6258 45.6593 53.7545 45.8894C53.9551 46.2498 53.994 46.5268 54.0409 46.9093C54.0808 47.2375 53.7515 47.2414 53.6248 47.1457C53.5544 47.0934 53.3539 46.8355 53.1343 46.8614C52.9961 46.8765 52.8879 47.0714 52.8345 47.2126C52.8345 47.2126 53.1473 47.7592 53.2486 48.2305C53.3354 48.6311 53.2985 48.9593 53.2546 49.2876C53.2147 49.6148 52.8714 49.5269 52.7866 49.3985C52.7202 49.2978 52.613 49.0414 52.3919 49.0091C52.1579 48.9784 51.9534 49.2275 51.9254 49.481C51.895 49.756 51.9254 49.9944 52.0791 50.2132C52.7567 51.1843 55.8545 49.3418 57.1961 50.3866C57.2789 50.0344 57.3189 49.6598 57.244 49.3418C57.0804 48.6418 55.8475 48.3067 55.2648 47.5071V47.5047C55.1515 47.344 55.0582 47.1637 55.0093 46.9605C54.7853 46.0286 55.4224 44.7283 55.7527 44.1426C55.4958 43.7455 55.6145 42.9576 55.7607 42.6152C55.9353 42.2 56.0765 41.9905 56.2821 41.7116C56.4886 41.4322 57.001 41.4654 57.001 41.6354C57.001 41.6354 56.4048 42.3119 56.6288 42.5483C56.8299 42.7603 57.9271 42.0208 57.1298 43.6654C56.8424 44.252 56.4672 44.4337 56.1544 44.3898C55.8271 45.0267 55.4224 46.0256 55.6145 46.771C55.6924 47.0734 55.8904 47.3025 56.1389 47.5047H56.1419C56.7675 48.0112 57.7195 48.3458 57.9151 49.2636C58.0293 49.8092 57.8657 50.5346 57.702 51.0573C57.9395 51.5868 57.9505 52.1675 58.0947 52.6658C58.1655 52.8621 58.3127 53.1782 58.5527 53.1523C58.7688 53.1293 58.883 52.9119 58.9688 52.7859C59.0781 52.6238 59.3769 52.5944 59.4268 52.9207C59.4772 53.2475 59.601 53.5665 59.601 53.9201C59.5975 55.3332 59.1315 56.4474 58.7777 57.3169C58.7777 57.3169 59.1918 57.418 59.7601 57.7975C60.1613 58.0657 60.0465 58.3031 60.031 58.414C60.0874 58.4643 60.1233 58.5102 60.1588 58.5815C60.1917 58.6553 60.2161 58.7354 60.2306 58.8165Z" fill="white"/>
<path fill-rule="evenodd" clip-rule="evenodd" d="M47.4466 45.9916C48.2543 46.3247 49.2532 45.8103 49.2522 45.7014C48.0149 45.8797 47.5548 45.5353 47.8502 44.9384C46.9631 45.0415 47.0375 45.8226 47.4466 45.9916Z" fill="white"/>
<path fill-rule="evenodd" clip-rule="evenodd" d="M53.9287 76.0054C54.3592 75.7563 54.8796 75.4729 55.18 75.2297C55.5512 74.9312 56.0571 74.2767 56.0596 74.0247C55.4888 73.3897 55.5841 72.7615 55.5522 72.1636C55.5452 72.0308 55.3736 71.8896 55.1341 72.0044C54.4785 72.3141 53.7161 72.5451 53.7161 72.5451C53.7161 72.5451 53.5565 73.4732 53.769 73.691C53.988 73.9182 54.488 73.8381 54.449 74.1697C54.4226 74.3837 54.0993 74.752 53.8907 74.9132C53.538 75.1867 53.1139 75.4168 52.8959 75.5189C52.8959 75.5189 52.2498 75.2937 51.3726 75.3748C51.0289 75.406 51.0099 75.682 51.0099 75.682C51.0099 75.682 50.8942 75.6879 50.8064 75.724C50.7071 75.767 50.6367 75.8613 50.6367 75.8613C50.6367 75.8613 50.7091 75.9512 50.8258 75.9961C50.9046 76.0274 51.0169 76.0215 51.0169 76.0215C51.0498 76.1456 51.1691 76.2755 51.3422 76.2994C51.7773 76.3605 52.0657 76.3146 52.2982 76.2603C52.4309 76.2276 52.5237 76.2457 52.5586 76.3488C52.5925 76.4508 52.4962 76.531 52.4104 76.5827C52.0761 76.7752 51.8421 76.9173 51.7049 77.0814C51.5677 77.2446 51.4984 77.4615 51.5667 77.631C51.5333 77.6827 51.4839 77.7458 51.4605 77.8322C51.436 77.9201 51.442 78.0081 51.4669 78.1014C51.5333 78.1043 51.5937 78.0935 51.663 78.0672C51.7334 78.0403 51.8022 78.0042 51.8561 77.9221C52.0312 77.9783 52.2592 77.9382 52.4259 77.7008C52.5646 77.503 52.7282 77.1513 52.7766 77.0082C52.8235 76.8651 52.8859 76.8343 52.9697 76.8514C53.0441 76.867 53.1044 76.9144 53.0625 77.1425C53.0321 77.3066 53.0361 77.652 53.0655 77.8083C53.1698 78.3705 53.4816 78.3353 53.4816 78.3353C53.4816 78.3353 53.5046 78.4335 53.5689 78.5126C53.6353 78.5918 53.7221 78.644 53.7999 78.665C53.8354 78.5898 53.8643 78.4745 53.8528 78.3798C53.8408 78.2865 53.8119 78.2215 53.8119 78.2215C53.8887 78.1634 53.989 78.0462 53.9421 77.8083C53.8563 77.4009 53.6937 77.2124 53.5749 77.0321C53.4991 76.9134 53.526 76.8221 53.5994 76.7698C53.6732 76.718 53.7835 76.7332 53.8798 76.8709C53.991 77.0253 54.1432 77.2363 54.4431 77.3775C54.6461 77.4727 54.8058 77.4395 54.9011 77.3618C54.9011 77.3618 54.9879 77.4126 55.0617 77.4366C55.1351 77.462 55.2189 77.4708 55.3067 77.462C55.2927 77.3804 55.2698 77.3008 55.2364 77.2275C55.2014 77.1552 55.1645 77.1103 55.1076 77.0595C55.1216 76.9491 55.0972 76.741 55.0034 76.6492C54.6731 76.3219 53.9287 76.0054 53.9287 76.0054Z" fill="white"/>
<path fill-rule="evenodd" clip-rule="evenodd" d="M51.3125 63.0727C51.0346 63.2656 50.5436 62.6292 50.5436 62.6292C50.7707 62.423 51.0131 62.2496 51.2451 62.488C51.4158 62.6634 51.5335 62.9174 51.3125 63.0727ZM60.159 77.155C60.1236 77.0837 60.0877 77.0387 60.0313 76.987C60.0467 76.8766 60.1615 76.6397 59.7604 76.372C59.1931 75.992 58.778 75.8909 58.778 75.8909C59.1317 75.0209 59.5967 73.9077 59.6012 72.4946C59.6012 72.14 59.4775 71.821 59.4271 71.4937C59.3772 71.1674 59.0783 71.1972 58.9691 71.3604C58.8832 71.4864 58.769 71.7028 58.552 71.7267C58.313 71.7526 58.1658 71.4366 58.0949 71.2402C57.9817 70.8499 57.9378 70.4138 57.82 69.9854C58.2381 69.8931 58.5794 69.6791 58.8763 69.4334C59.4211 68.9791 59.3762 68.2758 59.0828 67.7131C58.8433 67.2627 58.543 67.0834 57.0911 66.5559C56.5123 66.3449 56.0922 66.0997 55.7939 65.7802C55.6831 65.6542 55.5699 65.492 55.494 65.3396C55.3438 65.0397 55.4581 64.6963 55.7121 64.4677C55.7729 64.415 55.8982 64.327 56.0453 64.2279C56.4919 64.5459 57.7088 64.3778 58.1817 64.2147C58.7271 64.0257 59.1462 63.7834 59.5343 63.567C59.919 63.3438 59.8576 62.9003 59.6491 62.9017C59.6491 62.9017 58.2281 63.4888 57.9857 63.2578C57.7656 63.0478 58.2626 62.296 56.7548 62.9467C56.211 63.1816 55.8098 63.504 55.8353 63.8132C55.3079 64.0916 54.8 64.5449 54.8763 65.1525C54.8988 65.3548 55.0001 65.6078 55.1403 65.812H55.1463C55.5584 66.3888 56.3806 66.8231 57.2772 67.1093C58.1368 67.3848 58.4691 67.5377 58.6183 68.0965C58.8149 68.8282 58.4098 69.2756 57.589 69.3997C57.4897 69.2204 57.373 69.0705 57.2677 68.965C56.1067 67.7922 52.7569 69.7577 52.0794 68.7862C51.9257 68.5688 51.8952 68.3295 51.9257 68.0545C51.9526 67.801 52.1582 67.5519 52.3922 67.5831C52.6132 67.6159 52.7205 67.8713 52.7868 67.9714C52.8716 68.1004 53.2139 68.1883 53.2548 67.862C53.2987 67.5338 53.3357 67.2055 53.2488 66.804C53.1476 66.3327 52.8347 65.7871 52.8347 65.7871C52.8881 65.6459 52.9964 65.45 53.1346 65.4349C53.3541 65.41 53.5547 65.6669 53.625 65.7192C53.7518 65.8154 54.0811 65.811 54.0401 65.4827C53.9942 65.0998 53.9553 64.8233 53.7548 64.4638C53.626 64.2328 53.4788 64.1385 53.398 63.8615C53.3257 63.6163 53.398 63.3086 53.3022 63.0365C53.1765 62.6834 52.8327 62.4851 52.5004 62.3532L52.7205 62.0679C52.8073 61.938 52.7898 61.6137 52.4595 61.683C52.2151 61.7299 51.9731 61.7822 51.6877 61.7831C51.2736 61.7861 50.1655 61.6547 49.9933 62.0709C49.923 62.2438 49.924 62.3239 49.918 62.4699C49.5468 62.487 49.2175 62.424 48.8159 62.595C48.6931 62.6453 48.4651 62.7684 48.8119 63.1357C48.6622 63.4669 48.8852 63.7692 49.0429 63.8532C49.683 63.526 50.5766 63.5934 50.9293 63.8913C51.2052 64.1229 50.9722 64.5522 50.8585 64.7271C50.5142 64.625 49.7563 64.5908 49.2454 64.7955C49.1202 64.9625 49.2624 65.2229 49.3392 65.346C50.0223 65.1403 50.6734 65.3308 50.6734 65.3308C50.6734 65.3308 50.4833 65.6791 50.1031 66.0215C49.7858 66.3068 49.4824 66.4841 49.0558 66.8954C48.6427 67.2935 48.3259 67.632 48.1164 68.0052C47.589 67.8811 47.0941 67.7331 46.8191 67.5489C46.4849 67.3277 46.2075 67.1596 45.8926 66.761C45.8936 66.574 45.8732 66.1124 45.4611 65.5961C45.2485 65.3289 44.9357 65.449 44.9357 65.449C44.9357 65.449 44.8683 65.3577 44.7895 65.304C44.6997 65.2449 44.58 65.2395 44.58 65.2395C44.58 65.2395 44.543 65.345 44.5675 65.4671C44.5819 65.5482 44.6463 65.6381 44.6463 65.6381C44.5585 65.7314 44.5086 65.9004 44.5829 66.0567C44.7651 66.4489 44.9601 66.6629 45.1333 66.825C45.233 66.9174 45.267 67.0014 45.1966 67.0883C45.1278 67.1714 45.0055 67.1342 44.9162 67.0912C44.569 66.9183 44.3185 66.804 44.1055 66.7791C43.8899 66.7532 43.6669 66.8114 43.5576 66.9603C43.4933 66.9613 43.4135 66.9525 43.3256 66.9823C43.2378 67.0092 43.165 67.0605 43.0986 67.1333C43.1311 67.1884 43.173 67.2324 43.2343 67.2764C43.2947 67.3198 43.3636 67.3575 43.4633 67.3584C43.5088 67.5309 43.6669 67.6999 43.9603 67.7082C44.2068 67.715 44.5974 67.6608 44.7476 67.6232C44.8958 67.5861 44.9561 67.6188 44.9861 67.6989C45.0125 67.7683 45.002 67.844 44.7845 67.9314C44.6278 67.9964 44.3325 68.1864 44.2137 68.2943C43.7867 68.6841 43.9847 68.921 43.9847 68.921C43.9847 68.921 43.9114 68.9923 43.8795 69.0905C43.847 69.1892 43.848 69.2874 43.8725 69.3636C43.9563 69.3513 44.071 69.3123 44.1454 69.2517C44.2202 69.1926 44.2611 69.1325 44.2611 69.1325C44.3519 69.1652 44.5086 69.1863 44.6862 69.0182C44.9911 68.7271 45.0644 68.4897 45.1587 68.2948C45.2171 68.1693 45.3119 68.1405 45.3967 68.1737C45.4815 68.2074 45.5259 68.3056 45.4611 68.4599C45.3887 68.6358 45.2894 68.8741 45.3283 69.1975C45.3558 69.4168 45.4705 69.5316 45.5893 69.5687C45.5893 69.5687 45.5923 69.6659 45.6107 69.7421C45.6282 69.8169 45.6676 69.8882 45.722 69.957C45.7844 69.9018 45.8407 69.8388 45.8847 69.7709C45.9286 69.705 45.948 69.6498 45.9615 69.5765C46.0648 69.5267 46.2324 69.3948 46.2588 69.2683C46.3437 68.8561 46.2638 68.5029 46.2229 68.3266C46.6974 68.7579 47.3959 69.3157 47.7711 69.4656C47.7916 69.4744 47.813 69.4827 47.8335 69.4915C47.8988 70.0982 48.1767 70.677 48.3958 70.9281C48.8218 71.4195 49.1656 71.6339 49.3811 71.7917C49.5368 71.907 49.6815 71.9568 49.5917 72.4545C49.5193 72.8561 49.3053 73.3015 49.0419 73.6757C48.7096 74.149 47.6454 74.8416 47.6454 74.8416C47.6454 74.8416 46.8855 74.5383 46.0064 74.6526C45.6821 74.6956 45.6127 74.9618 45.6127 74.9618C45.6127 74.9618 45.499 74.9677 45.4092 75.0038C45.3099 75.0468 45.2395 75.1411 45.2395 75.1411C45.2395 75.1411 45.3129 75.23 45.4296 75.2759C45.5085 75.3071 45.6197 75.3013 45.6197 75.3013C45.6526 75.4254 45.7719 75.5572 45.946 75.5812C46.3806 75.6422 46.671 75.5953 46.904 75.5401C47.0367 75.5094 47.129 75.5255 47.1644 75.6295C47.1983 75.7326 47.102 75.8127 47.0152 75.8625C46.6819 76.056 46.4469 76.2001 46.3087 76.3632C46.171 76.5254 46.1012 76.7418 46.17 76.9137C46.1371 76.965 46.0882 77.028 46.0633 77.1149C46.0408 77.2029 46.0463 77.2908 46.0717 77.3851C46.1371 77.388 46.1975 77.3763 46.2688 77.3499C46.3377 77.323 46.407 77.2859 46.4604 77.2038C46.635 77.261 46.865 77.2209 47.0317 76.9845C47.1699 76.7857 47.3345 76.4321 47.3824 76.2889C47.4303 76.1468 47.4917 76.1151 47.5755 76.1322C47.6504 76.1478 47.7097 76.1971 47.6678 76.4252C47.6379 76.5884 47.6429 76.9347 47.6708 77.091C47.7761 77.6532 48.0869 77.6166 48.0869 77.6166C48.0869 77.6166 48.1114 77.7162 48.1767 77.7954C48.2431 77.8745 48.3299 77.9287 48.4077 77.9497C48.4427 77.8735 48.4711 77.7573 48.4591 77.6645C48.4486 77.5692 48.4192 77.5042 48.4192 77.5042C48.4955 77.4461 48.5988 77.3289 48.5489 77.091C48.4641 76.6826 48.2995 76.4951 48.1827 76.3139C48.1044 76.1942 48.1328 76.1028 48.2067 76.0501C48.281 75.9998 48.3903 76.0149 48.4876 76.1507C48.5988 76.306 48.7515 76.5171 49.0509 76.6597C49.2544 76.7554 49.4141 76.7217 49.5099 76.6426C49.5099 76.6426 49.5967 76.6944 49.6705 76.7193C49.7439 76.7447 49.8277 76.7515 49.917 76.7447C49.9015 76.6626 49.8781 76.5815 49.8432 76.5102C49.8097 76.4365 49.7738 76.391 49.7164 76.3422C49.7309 76.2308 49.698 76.0291 49.6121 75.9299C49.3677 75.6413 48.9251 75.4444 48.8099 75.396C48.8099 75.396 49.4161 75.1049 50.2203 74.0953C50.6754 73.5233 51.0017 72.6406 51.1888 72.4516C51.6662 71.97 52.3358 72.0862 53.1935 71.8801C55.9929 71.2085 55.3508 70.5979 56.1451 70.7459C56.6271 70.8358 56.5493 71.883 56.902 72.5727C57.1839 73.1242 57.9787 72.962 58.083 73.5545C58.1837 74.1241 57.9622 75.1181 57.7926 75.4981C57.584 75.4371 56.9529 75.2202 56.2863 75.3101C55.9441 75.357 55.9286 75.6085 55.9286 75.6085C55.9286 75.6085 55.8128 75.6144 55.724 75.6505C55.6247 75.6935 55.5564 75.7878 55.5564 75.7878C55.5564 75.7878 55.6277 75.8757 55.7445 75.9226C55.8233 75.9539 55.9346 75.948 55.9346 75.948C55.9675 76.0721 56.0872 76.204 56.2619 76.2289C56.6964 76.288 56.9848 76.244 57.2178 76.1869C57.3515 76.1541 57.4438 76.1722 57.4798 76.2772C57.5142 76.3793 57.4154 76.4594 57.3311 76.5092C56.9958 76.7027 56.7618 76.8458 56.6246 77.0099C56.4859 77.1721 56.416 77.389 56.4839 77.5604C56.451 77.6122 56.4021 77.6752 56.3786 77.7626C56.3547 77.8476 56.3602 77.9365 56.3876 78.0308C56.451 78.0337 56.5123 78.0235 56.5827 77.9966C56.6515 77.9697 56.7229 77.9326 56.7763 77.8506C56.9499 77.9077 57.1789 77.8677 57.3455 77.6312C57.4837 77.431 57.6504 77.0788 57.6963 76.9366C57.7442 76.7935 57.8066 76.7613 57.8914 76.7794C57.9652 76.7955 58.0256 76.8438 57.9837 77.071C57.9537 77.2341 57.9562 77.5814 57.9867 77.7382C58.0899 78.299 58.4028 78.2638 58.4028 78.2638C58.4028 78.2638 58.4252 78.363 58.4916 78.4421C58.5569 78.5212 58.6433 78.5735 58.7236 78.5945C58.7565 78.5183 58.7869 78.404 58.775 78.3092C58.7635 78.2159 58.7331 78.151 58.7331 78.151C58.8089 78.0928 58.9122 77.9736 58.8628 77.7382C58.778 77.3299 58.6153 77.1418 58.4966 76.9606C58.4192 76.8414 58.4467 76.7496 58.5205 76.6973C58.5949 76.6465 58.7041 76.6616 58.8014 76.7974C58.9132 76.9528 59.0654 77.1648 59.3647 77.3059C59.5683 77.4022 59.7279 77.3699 59.8237 77.2898C59.8237 77.2898 59.91 77.3411 59.9844 77.366C60.0572 77.3909 60.141 77.3982 60.2308 77.3909C60.2164 77.3098 60.1919 77.2297 60.159 77.155Z" fill="white"/>
<path fill-rule="evenodd" clip-rule="evenodd" d="M47.4465 64.5647C48.2602 64.8842 49.2531 64.3845 49.2521 64.2755C48.0147 64.4538 47.5547 64.1085 47.8501 63.5116C46.963 63.6147 47.0049 64.3918 47.4465 64.5647Z" fill="white"/>
<path d="M74.0281 49.4345C74.0006 49.0692 73.7437 48.8899 72.4455 49.1371C70.8903 49.3535 70.089 48.7497 70.5451 48.0615C69.3671 48.1284 69.3177 49.6846 70.5959 49.7276C71.8727 49.7696 72.6346 49.2362 74.0281 49.4345Z" fill="white"/>
<path d="M75.7302 64.0469C75.5217 63.979 74.8756 63.7768 74.8756 63.7768C74.8756 63.7768 73.7814 65.1181 71.7857 65.7917C70.1048 66.3583 69.3514 66.8395 68.9693 67.4632C68.646 67.9927 68.4793 68.5129 68.4549 68.8363C68.4139 69.3858 68.4618 69.7453 68.5277 70.1815C68.5971 70.6382 69.1214 70.585 69.1923 70.2626C69.2442 70.0286 69.3983 69.7644 69.6388 69.7375C69.8793 69.7111 70.1053 69.9705 70.1053 69.9705C70.1053 69.9705 69.8688 70.9313 69.1274 71.8721C68.8914 72.1705 67.8322 73.2627 67.4375 73.4586C66.9461 73.2368 66.2935 73.0014 65.9672 72.9672C65.7048 72.9384 65.2976 72.9193 65.1719 73.1167C64.9953 73.1054 64.8182 73.1904 64.667 73.3106C64.8102 73.4859 65.0751 73.5748 65.0751 73.5748C65.121 73.887 65.4204 74.0325 65.7741 74.0652C66.1423 74.1004 66.4427 74.0853 66.5993 74.0745C66.761 74.0633 66.8568 74.1527 66.8753 74.2543C66.8957 74.3657 66.8244 74.4907 66.6472 74.5156C65.7312 74.6431 65.4039 75.0964 65.4318 75.58C65.3306 75.6928 65.1844 75.9199 65.2118 76.1544C65.358 76.1563 65.6444 76.1051 65.7906 75.9712C66.3898 76.0513 66.8159 75.4349 66.987 75.1125C67.0718 74.9503 67.1547 74.8712 67.2874 74.9284C67.3996 74.9772 67.4276 75.0803 67.3577 75.2634C67.2739 75.4847 67.1781 75.7758 67.1741 76.043C67.1696 76.4597 67.3353 76.6761 67.5688 76.7918C67.5688 76.7918 67.7169 77.1484 67.8986 77.2295C68.0103 77.061 67.9948 76.7508 67.9948 76.7508C68.2014 76.6399 68.3047 76.2965 68.2608 75.979C68.2338 75.7788 68.0961 75.4969 67.9859 75.2673C67.917 75.1213 67.946 75.0041 68.0417 74.9601C68.1605 74.9039 68.2708 74.964 68.3651 75.1765C68.4234 75.3103 68.5901 75.6127 68.7113 75.728C68.875 75.8833 69.2372 76.0963 69.4976 75.9444C69.4976 75.9444 69.7321 76.0943 69.9741 76.0665C69.9701 75.8662 69.8933 75.727 69.777 75.5839C69.8474 75.3548 69.8554 75.0993 69.5276 74.796C69.2556 74.5439 68.9333 74.3124 68.5756 74.1033C69.2536 73.884 70.3228 73.1015 70.732 72.6311C71.0847 72.2267 71.4579 71.516 71.4579 71.516C71.7633 71.5839 71.8481 71.9136 71.8685 72.1305C71.886 72.3127 72.2562 72.3967 72.345 72.0723C72.4333 71.7509 72.4942 71.4281 72.4832 71.0104C72.4752 70.7374 72.4423 70.1478 72.1694 69.653C72.2427 69.5021 72.348 69.3751 72.4892 69.3868C72.7132 69.4019 72.8634 69.6632 72.9238 69.7912C73.1089 70.1825 73.6577 70.0496 73.6427 69.651C73.6312 69.3169 73.6293 69.0585 73.515 68.6121C73.4616 68.404 73.2221 67.9698 73.0191 67.8066C73.1393 67.0495 73.6447 67.0265 74.663 66.2279C75.0422 65.9319 75.5771 65.5025 75.9622 65.0097C76.075 64.8646 76.2586 64.5784 76.2312 64.3581C76.2127 64.2023 75.9563 64.1202 75.7302 64.0469Z" fill="white"/>
<path d="M74.0917 46.809C74.0917 46.809 74.652 47.697 75.0796 47.4264C75.3849 47.2335 75.2337 46.8911 75.0192 46.6556C74.7238 46.3303 74.3965 46.5467 74.0917 46.809ZM81.8865 62.4974C81.7084 63.3883 81.0113 63.9725 80.0644 64.3511C80.1108 66.0397 79.0545 66.8632 79.0361 67.4528C79.0216 67.8866 79.4248 68.0165 79.8713 68.609C80.3009 69.1795 80.4615 70.1095 80.3388 70.8452C80.2475 71.3898 80.1238 71.6741 79.9082 72.0605C79.6922 72.4488 79.2162 72.2915 79.2436 71.993C79.3205 71.1617 78.7173 71.4509 78.7173 71.4509C78.7173 71.4509 78.7397 72.3296 78.123 73.5107C77.7518 74.2204 76.7101 75.1553 76.7101 75.1553C76.7101 75.1553 77.5657 75.2862 77.8212 75.3947C78.2353 75.5725 78.3236 75.8919 78.3266 76.1303C78.4818 76.2324 78.6075 76.3633 78.6729 76.5538C78.4893 76.6246 78.1699 76.5567 78.1699 76.5567C78.1699 76.5567 77.8676 76.8249 77.3258 76.5045C77.1292 76.3882 76.9685 76.208 76.8697 76.1C76.7305 75.9471 76.5968 75.9349 76.5015 76.018C76.4247 76.0849 76.4087 76.2133 76.526 76.3394C76.6991 76.5265 76.9266 76.8185 76.9985 76.946C77.1097 77.1483 77.1691 77.6103 77.0054 77.7745C77.0054 77.7745 77.1272 78.1091 77.0708 78.301C76.8737 78.2781 76.6008 77.9528 76.6008 77.9528C76.3429 77.9117 76.0914 77.6607 76.0211 77.3705C75.9402 77.0388 75.9851 76.7629 75.9901 76.5294C75.9946 76.3135 75.9382 76.2114 75.797 76.2011C75.6304 76.1884 75.568 76.2964 75.5496 76.4586C75.5017 76.886 75.1958 77.5747 74.5991 77.6724C74.5008 77.8399 74.2798 77.9611 74.1396 78.0021C74.0428 77.7857 74.1132 77.5273 74.1755 77.3896C74.0019 76.9358 74.2134 76.4776 75.0137 76.0189C75.1285 75.954 75.1819 75.825 75.1205 75.7195C75.0671 75.6296 74.9638 75.6047 74.8246 75.6506C74.6735 75.6985 74.4055 75.7708 74.0428 75.8441C73.6961 75.9139 73.3668 75.8631 73.2271 75.5779C73.2271 75.5779 72.9477 75.5705 72.7576 75.4435C72.8658 75.2853 73.007 75.1524 73.1807 75.1124C73.241 74.8872 73.5978 74.725 73.8617 74.6967C74.5886 74.6195 75.5171 74.7807 75.5171 74.7807C75.5171 74.7807 75.9956 74.3245 76.4491 73.604C77.0324 72.6779 76.9486 71.6609 76.9486 71.6609C76.9486 71.6609 76.8308 71.4948 76.6332 71.4846C76.4097 71.4719 76.2501 71.6912 76.1498 71.7913C76.0375 71.9042 75.7192 71.9164 75.7202 71.5808C75.7202 71.3795 75.7511 71.0703 75.8868 70.6752C75.9752 70.4148 76.1139 70.1857 76.3339 69.8751C76.2201 69.7242 76.0181 69.5898 75.8883 69.626C75.7062 69.6782 75.606 69.815 75.5406 69.9943C75.4513 70.2365 75.0486 70.2786 74.9658 69.9195C74.8905 69.5932 74.8685 69.2889 74.9169 68.8625C75.0007 68.1274 75.119 67.3747 75.9627 66.2468C76.3688 65.7041 77.3268 64.5914 77.3452 63.9188C77.3647 63.2809 75.1614 63.2061 73.5244 62.1442C72.1768 61.2699 71.863 59.8802 71.863 59.8802C71.863 59.8802 71.3805 60.4962 70.3283 61.1146C69.6343 61.5229 68.3161 61.8292 68.3161 61.8292C68.5496 62.1252 68.7272 62.4764 68.8315 62.7758C68.9921 63.2369 68.8754 63.4894 68.7018 63.6555C68.7342 63.8377 68.6728 64.0355 68.577 64.2119C68.3949 64.0976 68.2792 63.8416 68.2792 63.8416C67.9758 63.8514 67.8182 63.6755 67.7373 63.318C67.6904 63.1148 67.66 62.7787 67.664 62.6337C67.67 62.407 67.5902 62.3059 67.4749 62.3059C67.3756 62.3059 67.2968 62.388 67.2868 62.5365C67.2703 62.7885 67.2234 63.147 67.1785 63.2882C67.1077 63.5061 66.9061 63.8485 66.6701 63.8485C66.6701 63.8485 66.519 64.1928 66.3359 64.2871C66.2181 64.1318 66.2675 63.7137 66.2675 63.7137C66.1148 63.5954 66.03 63.3351 66.2416 62.8706C66.3972 62.5223 66.514 62.4314 66.6761 62.261C66.8243 62.1042 66.8882 61.9992 66.7839 61.8951C66.7021 61.8121 66.6222 61.8389 66.487 61.9274C66.1782 62.132 65.4138 62.4725 64.9269 62.1208C64.7348 62.1682 64.5457 62.0788 64.418 62.0084C64.5108 61.7891 64.7113 61.6357 64.8934 61.6069C65.102 61.3016 65.5555 61.1175 66.482 61.2464C66.6068 61.2635 66.751 61.2484 66.7899 61.1243C66.8248 61.0076 66.7879 60.9001 66.6292 60.8283C66.486 60.7633 66.2421 60.6451 65.9362 60.44C65.6428 60.2446 65.4522 59.9774 65.565 59.6799C65.565 59.6799 65.3769 59.4782 65.338 59.256C65.5291 59.2227 65.7257 59.2315 65.8738 59.3248C66.0824 59.2105 66.4421 59.3239 66.6786 59.5319C66.9236 59.7464 67.2828 60.1738 67.6066 60.6002C67.6066 60.6002 68.82 60.4459 69.7775 59.4118C70.3662 58.7753 70.4869 57.7422 70.5184 56.8327C70.5244 56.6823 70.461 56.5372 70.3343 56.482C70.1287 56.3931 69.9022 56.546 69.773 56.607C69.6268 56.6754 69.3214 56.5802 69.4417 56.2661C69.5614 55.9515 69.6527 55.7864 69.9316 55.4723C70.0878 55.298 70.4415 54.9419 70.8896 54.6996C70.5064 54.4192 70.0663 54.0299 69.6637 53.6445C69.3189 53.3153 68.7447 52.4532 68.4483 51.7806C68.3835 51.996 68.3181 52.291 68.2378 52.4835C68.0666 52.8938 67.8541 52.9758 67.6116 52.9959C67.5168 53.1522 67.3407 53.267 67.1506 53.3432C67.0862 53.14 67.1845 52.8376 67.1845 52.8376C66.946 52.6554 66.9944 52.3701 67.1192 52.0751C67.2304 51.8157 67.3796 51.6565 67.4839 51.5534C67.656 51.3834 67.673 51.2594 67.5762 51.1783C67.4839 51.1001 67.3666 51.1221 67.2634 51.2462C67.0997 51.4426 66.8123 51.6755 66.6866 51.7537C66.489 51.8778 66.034 51.9427 65.8544 51.7938C65.8544 51.7938 65.5396 51.9291 65.339 51.888C65.3485 51.6946 65.6354 51.4362 65.6354 51.4362C65.6588 51.1812 65.7092 51.065 66.1722 50.8286C66.3828 50.7196 66.7375 50.6444 66.975 50.6508C67.2254 50.6586 67.3317 50.5496 67.3327 50.4412C67.3327 50.3113 67.2234 50.2312 67.0393 50.2385C66.5988 50.2585 65.8689 50.0192 65.7277 49.4433C65.5485 49.3593 65.4627 49.1722 65.4118 49.0374C65.6264 48.927 65.8943 48.9783 66.0395 49.0291C66.489 48.8288 66.97 49.0042 67.4924 49.752C67.6291 49.9469 67.9798 49.8409 67.8561 49.5415C67.7977 49.3974 67.7039 49.1404 67.6036 48.7917C67.5073 48.4576 67.5373 48.1323 67.8182 47.976C67.8182 47.976 67.8072 47.7029 67.9234 47.5095C68.0901 47.6037 68.2363 47.7327 68.2887 47.8983C68.5237 47.9403 68.7352 48.2842 68.7976 48.5518C68.8609 48.8288 68.9338 49.3305 68.813 49.9532C68.9892 50.5604 69.4033 51.0733 69.7066 51.3996C70.2534 51.9891 71.3571 52.6666 72.1269 53.1038C72.2137 53.01 72.3065 52.9167 72.4068 52.8225C72.4896 52.7448 72.4712 52.6134 72.4173 52.5225C72.3065 52.332 72.0306 52.3262 71.8894 52.3003C71.7303 52.2729 71.5472 52.0292 71.8261 51.8338C72.104 51.6394 72.4223 51.5324 72.8374 51.4396C73.1163 51.3771 73.6482 51.3024 74.2544 51.4592C74.2544 51.4592 74.5976 51.0689 74.43 50.9419C73.8063 50.4705 72.6104 50.7636 72.6104 50.7636C72.1409 50.1374 72.555 49.9718 73.2156 49.9498C73.7584 49.9298 74.3616 50.0182 74.9968 50.2434C75.4198 49.9127 75.2901 48.9363 74.7044 48.6666C73.4162 48.0702 72.4243 48.6798 72.4243 48.6798C72.1369 48.6368 71.872 48.4986 71.7343 48.1953C71.5776 47.8499 71.6829 47.4704 71.6829 47.4704C71.3865 47.2643 71.3955 46.6171 73.3333 46.7519C73.3333 46.7519 73.1328 46.2175 73.2829 45.7881C73.4805 45.2186 75.5885 45.52 76.0729 45.4145C76.1947 45.3876 76.4302 45.3065 76.5504 45.2723C76.8513 45.1834 76.9526 45.4697 76.8553 45.6367C76.6926 45.9161 76.6377 46.2737 76.6377 46.2737C76.6377 46.2737 77.4265 46.4749 78.1131 47.2985C78.4828 47.742 78.622 48.4454 78.6903 48.7726C78.7592 49.1014 78.4154 49.1292 78.2907 49.032C78.1784 48.9431 77.9933 48.7448 77.7723 48.7868C77.6416 48.8107 77.4934 49.033 77.4485 49.1693C78.2139 49.5688 78.4933 50.4764 78.5556 50.8549C78.622 51.2643 78.6045 51.5925 78.5606 51.9256C78.5177 52.2553 78.1824 52.1743 78.0956 52.0409C78.0188 51.9227 77.9095 51.6755 77.6885 51.6448C77.4859 51.6174 77.3472 51.7796 77.2589 51.9657C77.5588 52.4102 77.666 52.9358 77.698 53.1942C77.7498 53.6094 77.7214 53.9357 77.665 54.2649C77.6096 54.5946 77.2774 54.5013 77.1965 54.366C77.1232 54.2439 77.0239 53.9938 76.8029 53.9557C76.5923 53.9186 76.4147 54.1599 76.3224 54.3469C76.7879 54.8076 76.9506 55.489 77.0005 55.7947C77.0678 56.206 77.0503 56.5333 77.0074 56.8654C76.9635 57.1976 76.6173 57.1746 76.5414 56.9827C76.4761 56.8185 76.3768 56.5973 76.1568 56.566C76.03 56.547 75.8449 56.6735 75.7676 56.7633C75.6898 57.2201 75.7891 57.6333 75.8719 58.0397C76.0141 58.7353 76.3923 59.404 77.2888 60.0414C78.2867 60.7521 79.5225 61.9112 79.9287 63.318C80.7853 62.9458 81.5657 62.1452 80.5678 60.8034C79.6004 59.5051 78.84 59.0918 78.4329 57.5713C78.1954 56.6852 78.3511 55.7557 79.1249 54.7846C79.0176 54.6293 78.9687 54.427 78.9533 54.2038C78.9278 53.8135 78.9697 53.263 79.3489 52.6427C79.6902 52.081 80.3089 51.3395 81.2289 50.9331C81.4594 51.066 81.4773 51.4963 81.4265 51.5915C81.1486 52.1152 80.0868 52.8649 80.0729 53.1741C80.0654 53.349 80.49 53.6084 80.6431 53.5586C80.9315 53.4643 81.2588 52.7018 81.3786 52.5465C81.4763 52.4195 81.8366 52.4205 81.8096 52.7546C81.7812 53.0882 81.7278 53.412 81.5756 53.8008C81.4245 54.1838 80.918 54.9399 79.8987 55.085C79.7885 55.1006 79.6892 55.0987 79.5994 55.084C78.9932 55.8968 79.086 56.7233 79.1718 57.1976C79.3499 58.1818 80.025 58.7333 80.9061 59.8421C81.6994 60.84 82.1065 61.4037 81.8865 62.4974Z" fill="white"/>
<path d="M66.2736 40.5422C65.9718 40.087 65.5702 39.6396 65.2369 39.1667C64.8687 38.6426 64.931 37.97 65.5806 37.8469C65.7807 37.8098 66.0496 37.8919 66.2417 38.0848C66.2592 38.1019 66.2861 38.1019 66.3066 38.0848C66.4997 37.8919 66.7686 37.8098 66.9677 37.8469C67.6183 37.97 67.6806 38.6426 67.3114 39.1667C66.9791 39.6396 66.5775 40.087 66.2736 40.5422Z" fill="white"/>
<path d="M66.2749 84.293C65.9721 83.8367 65.5704 83.3903 65.2372 82.9184C64.8689 82.3924 64.9303 81.7207 65.5809 81.5986C65.78 81.5605 66.0499 81.6426 66.242 81.8355C66.2595 81.8516 66.2864 81.8516 66.3069 81.8355C66.4999 81.6426 66.7689 81.5605 66.9679 81.5986C67.6185 81.7207 67.6809 82.3924 67.3117 82.9184C66.9794 83.3903 66.5778 83.8367 66.2749 84.293Z" fill="white"/>
<path d="M71.0393 82.1396C70.7364 81.6844 70.3348 81.237 70.0015 80.7641C69.6333 80.2391 69.6957 79.5674 70.3453 79.4453C70.5453 79.4072 70.8143 79.4883 71.0068 79.6822C71.0238 79.6983 71.0518 79.6983 71.0712 79.6822C71.2643 79.4883 71.5332 79.4072 71.7333 79.4453C72.3829 79.5674 72.4452 80.2391 72.077 80.7641C71.7438 81.237 71.3421 81.6844 71.0393 82.1396Z" fill="white"/>
<path d="M66.2741 57.5654C65.9712 57.1092 65.5696 56.6618 65.2363 56.1889C64.8671 55.6648 64.9305 54.9932 65.5801 54.8696C65.7792 54.832 66.0481 54.9141 66.2412 55.107C66.2586 55.1241 66.2866 55.1241 66.306 55.107C66.4991 54.9141 66.768 54.832 66.9671 54.8696C67.6177 54.9932 67.6801 55.6648 67.3109 56.1889C66.9776 56.6618 66.5769 57.1092 66.2741 57.5654Z" fill="white"/>
<path d="M71.0393 43.0159C70.7364 42.5596 70.3348 42.1122 70.0015 41.6404C69.6333 41.1143 69.6957 40.4436 70.3453 40.3205C70.5453 40.2834 70.8143 40.3645 71.0064 40.5575C71.0238 40.5745 71.0518 40.5745 71.0712 40.5575C71.2643 40.3645 71.5332 40.2834 71.7333 40.3205C72.3829 40.4436 72.4453 41.1143 72.0761 41.6404C71.7438 42.1122 71.3421 42.5596 71.0393 43.0159Z" fill="white"/>
<path d="M71.3747 65.1421C71.0718 64.6868 70.6702 64.2394 70.3369 63.7666C69.9677 63.2425 70.0311 62.5708 70.6807 62.4477C70.8797 62.4096 71.1497 62.4917 71.3418 62.6846C71.3592 62.7017 71.3862 62.7017 71.4066 62.6846C71.5997 62.4917 71.8686 62.4096 72.0677 62.4477C72.7183 62.5708 72.7807 63.2425 72.4115 63.7666C72.0792 64.2394 71.6775 64.6868 71.3747 65.1421Z" fill="white"/>
<path d="M62.299 37.5102C62.299 37.5102 62.5544 37.5351 62.6856 37.583V84.3037C62.4207 84.3877 62.294 84.3877 62.294 84.3877C62.294 84.3877 62.1772 84.3809 61.9043 84.3037V37.583C62.029 37.538 62.299 37.5102 62.299 37.5102Z" fill="white"/>
<path d="M40.3552 71.0848C40.3053 70.9314 40.248 70.7805 40.1981 70.6276L39.0251 70.9915L39.1478 71.371C39.2571 71.7095 39.6323 71.7794 39.9351 71.6851C40.2225 71.5962 40.4625 71.415 40.3552 71.0848ZM38.6978 71.5723L38.5571 71.1371L37.3996 71.4961C37.1706 71.5674 37.1745 71.6641 37.2758 71.9787C37.4046 72.3738 37.7164 72.641 38.2083 72.4872C38.611 72.3631 38.828 71.9757 38.6978 71.5723ZM36.9346 72.4569C36.7984 72.0378 36.6826 71.6221 36.5459 71.202L36.1113 69.9169L36.514 69.7923L36.8013 70.484L39.8289 69.5442L39.5559 68.7856L39.974 68.6557C40.2909 69.4362 40.6007 70.2271 40.8601 71.0257C41.1415 71.8966 40.938 72.6342 40.3228 72.8252C39.9291 72.9473 39.524 72.7275 39.2666 72.4349C39.289 72.9507 39.0989 73.4802 38.5581 73.6482C37.7368 73.9032 37.1541 73.1339 36.9346 72.4569Z" fill="white"/>
<path d="M42.4215 75.8701L42.3092 75.6611L40.9002 76.3869L40.993 76.5598C41.2265 76.9941 41.6895 77.0224 42.0627 76.83C42.39 76.6619 42.6595 76.3127 42.4215 75.8701ZM39.8739 79.7939L39.6344 79.0764C39.4189 78.4614 40.4372 77.1905 40.7346 76.6932L40.6423 76.5208L39.4618 77.1294L39.6459 77.5988L39.2652 77.7942L38.7683 76.8173L38.1621 75.7441L38.5423 75.5478L38.918 76.1193L41.7424 74.6622L41.3368 73.9632L41.7255 73.7624C41.9535 74.1327 42.2344 74.6001 42.41 74.8732C42.4739 74.9733 42.8027 75.5116 42.9114 75.7138C43.58 76.957 43.358 77.5387 42.7263 77.865C42.163 78.1552 41.6826 78.0584 41.2979 77.5778C41.2091 77.739 40.2112 79.1902 40.2172 79.3113C40.2222 79.5004 40.2297 79.4965 40.3 79.7187L39.8739 79.7939Z" fill="white"/>
<path d="M44.7437 80.2805L43.4485 80.663L44.0302 81.3786L44.7437 80.2805ZM43.3522 83.5615L42.4936 82.5328L42.8228 82.2754L43.2355 82.7009L43.7633 81.8348L42.9186 80.7959L41.9278 81.0924L42.3444 81.6858L42.0141 81.9433L41.4353 81.2052L40.9424 80.6381L41.2647 80.3865L41.5496 80.6401L45.3275 79.5777C45.539 79.7159 45.8069 79.7872 46.0095 79.8351L46.1228 79.9743L43.9883 83.6284L44.2049 83.9889L43.8756 84.2463L43.3522 83.5615Z" fill="white"/>
<path d="M50.4607 85.104L49.0582 86.7457C48.4136 87.5033 47.519 87.4955 46.5835 86.7305C45.7094 86.0149 45.4205 85.0326 45.9569 84.4055L47.4576 82.6465L46.9407 82.158L47.2107 81.841L48.1541 82.6348L49.1929 83.4632L48.923 83.7797L48.3527 83.3792L46.9612 85.0087C46.4488 85.6095 46.7556 86.1468 47.0345 86.3749C47.3189 86.6074 48.0783 86.9328 48.5857 86.3373L49.9762 84.7078L49.4933 84.2462L49.7632 83.9297L50.4677 84.5163L51.248 85.144L50.9781 85.4605L50.4607 85.104Z" fill="white"/>
<path d="M55.958 87.8555L54.4407 91.1975L53.7781 90.9093L52.7578 87.3021L51.7715 89.4737L52.3347 89.7741L52.1606 90.1595L51.3499 89.779L50.4229 89.4039L50.5945 89.0258L51.1997 89.2339L52.4575 86.4614C52.4081 86.3012 52.221 86.1928 51.8338 86.0247L52.0124 85.6315L53.5756 86.3119L54.5136 89.5783L55.4056 87.6152L54.8414 87.3148L55.0125 86.9377L55.8312 87.3021L56.7423 87.6894L56.5711 88.0675L55.958 87.8555Z" fill="white"/>
<path d="M58.8305 92.2593C58.4553 92.2022 58.1968 92.1201 57.7293 91.9301L57.6924 92.0522L57.2568 91.9853L57.3451 91.701L57.5492 90.751L57.9673 90.815C57.9 91.3503 58.2233 91.7318 58.6763 91.8017C59.1373 91.871 59.3813 91.661 59.4307 91.3445C59.49 90.9703 58.8804 90.6298 58.3929 90.1721C58.0197 89.8258 57.7193 89.4048 57.7977 88.9134C57.9104 88.2056 58.5556 87.8861 59.495 88.0293C59.7505 88.0683 60.2639 88.1983 60.455 88.2608L60.5428 88.0952L60.9355 88.1553L60.7364 89.4028L60.3183 89.3398C60.3342 88.8562 60.1107 88.5578 59.6577 88.4889C59.1882 88.4176 59.029 88.76 59.0001 88.9432C58.9427 89.3007 59.4162 89.6207 59.8702 90.0134C60.2988 90.3944 60.7025 90.8301 60.6156 91.3713C60.4959 92.1284 59.7874 92.4054 58.8305 92.2593Z" fill="white"/>
<path d="M64.7539 92.3985C63.3603 92.5255 62.2457 91.7557 62.1255 90.4969C62.0222 89.4154 62.7826 88.2788 64.2879 88.1415C64.9769 88.0785 65.0986 88.0844 65.5531 88.1113L65.5636 87.9491L65.9767 87.9115L66.0122 88.2895L66.1329 89.2767L65.7198 89.3143C65.6085 88.6989 65.0647 88.545 64.454 88.6007C63.8089 88.6598 63.2591 89.3607 63.3524 90.3425C63.4412 91.2823 64.1846 91.976 64.8477 91.9159C65.5013 91.8558 65.8305 91.6648 65.8295 91.657C65.8695 91.5349 65.8764 90.9673 65.8755 90.8652L66.2886 90.8281L66.3928 91.9271C65.7831 92.1684 65.5975 92.3213 64.7539 92.3985Z" fill="white"/>
<path d="M72.8717 90.0221L71.6643 90.5286L71.5036 90.1471L72.1273 89.8301L71.6049 88.5929L69.7434 89.3465L70.2668 90.5838L70.9284 90.3796L71.0895 90.7616L69.917 91.2173L68.7341 91.7156L68.5734 91.3341L69.1891 91.021L67.9652 88.1244L67.3077 88.3364L67.1455 87.9549L68.3424 87.488L69.5009 87.0005L69.6626 87.3824L69.0439 87.6877L69.5563 88.902L71.4168 88.1493L70.9044 86.934L70.2379 87.1495L70.0757 86.768L71.2402 86.3147L72.4401 85.8111L72.6008 86.1926L71.9741 86.5008L73.197 89.3973L73.8666 89.1902L74.0282 89.5717L72.8717 90.0221Z" fill="white"/>
<path d="M78.2802 81.7162L79.6064 85.4837L79.1164 85.8989L77.3592 85.0456L77.9918 86.8499L77.4615 87.2983L73.7888 85.5159L73.4341 85.7489L73.1582 85.4358L73.8826 84.8463L74.6355 84.1864L74.9114 84.499L74.6914 84.7403L77.1646 85.9902L76.6627 84.71L75.4428 84.1165L75.1599 84.2884L74.884 83.9763L75.5371 83.4468L76.4082 82.6873L76.6841 83.0004L76.3129 83.3697L78.7791 84.624L77.8152 82.1094L77.3702 82.4196L77.0943 82.1075L77.7723 81.556L78.2862 81.0768L78.5736 81.4021L78.2802 81.7162Z" fill="white"/>
<path d="M83.1727 81.2231L82.826 81.6876L82.0432 82.7935L81.6994 82.5541L82.0861 81.9206L79.4697 80.0991L79.0137 80.6115L78.6699 80.3731L79.4463 79.3464L79.9482 78.6264L80.5095 77.8546L80.3448 77.6876L80.5903 77.3496L80.8632 77.5406L81.7139 78.1008L81.4734 78.4315L80.8981 78.176L80.1677 79.1832L81.2259 79.9198L81.7713 79.1691L81.4215 78.8526L81.6615 78.5214L82.8609 79.3562L82.6214 79.6873L82.1789 79.4514L81.6331 80.2032L82.6224 80.8919C82.6778 80.931 82.7342 80.9705 82.7462 80.9686C82.8035 80.9036 82.8679 80.8445 82.9876 80.6794C83.1583 80.4445 83.4008 80.126 83.4202 80.0981C83.4906 80.0009 83.6103 79.8358 83.6013 79.8197C83.5909 79.7909 83.2117 79.4543 83.1328 79.3894L83.3783 79.0518L84.2894 79.6864L83.1727 81.2231Z" fill="white"/>
<path d="M85.856 76.805L85.3017 77.9421L84.9235 77.7599L85.176 77.1264L82.3042 75.7392L81.9524 76.3244L81.5742 76.1412L82.159 75.0182L82.7018 73.9031L83.08 74.0853L82.8205 74.7149L85.6914 76.1026L86.0521 75.5218L86.4298 75.704L85.856 76.805Z" fill="white"/>
<path d="M87.0182 69.6766C87.1329 69.7118 87.3026 69.7729 87.5006 69.8339L87.6478 69.8789C87.9322 69.9487 88.2031 70.0059 88.4331 69.9341C88.275 70.4264 88.2964 70.3883 88.2246 70.8099C88.1532 71.2583 88.1448 71.4244 87.9771 71.948C87.4383 73.6273 86.2004 74.0005 85.1158 73.6674C84.1473 73.3699 83.2772 72.3133 83.7741 70.7635C83.9133 70.3273 84.1394 69.8207 84.2845 69.5374L84.1189 69.4334L84.2362 69.07L84.5071 69.154L85.5848 69.4495L85.46 69.8369C84.8433 69.7358 84.4746 70.1548 84.2621 70.8157C84.091 71.3491 84.5664 72.2308 85.4865 72.5131C86.4714 72.8165 87.3455 72.3402 87.5296 71.7668C87.6254 71.4683 87.6378 71.2593 87.6104 71.038L86.6819 70.7527L86.412 71.397L86.0103 71.2739L86.42 70.0518L86.7453 68.9811L87.1479 69.1052L87.0182 69.6766Z" fill="white"/>
<path d="M39.4093 61.48C39.4422 62.857 38.581 63.8969 37.2908 63.9267C36.1807 63.9521 35.0755 63.129 35.0396 61.6422C35.0232 60.9627 35.0376 60.8435 35.0955 60.401L34.9314 60.379L34.9219 59.9716L35.3085 59.9623L36.3229 59.9125L36.3328 60.3209C35.6977 60.3868 35.5036 60.9095 35.5181 61.5122C35.5336 62.1492 36.2111 62.7368 37.2175 62.7138C38.1814 62.6909 38.9398 62.0095 38.9238 61.3559C38.9083 60.7102 38.7367 60.3741 38.7282 60.3741C38.6065 60.3267 38.0282 60.2808 37.9249 60.275L37.9155 59.8666L39.042 59.8402C39.2466 60.4562 39.3888 60.6481 39.4093 61.48Z" fill="white"/>
<path d="M36.3578 56.5592L37.5408 57.203L37.6585 56.293L36.3578 56.5592ZM39.7306 55.2408L39.5754 56.566L39.1573 56.5132L39.1818 55.9256L38.1799 56.1606L38.0078 57.4838L38.9158 57.9737L39.06 57.263L39.4781 57.3158L39.3409 58.24L39.2696 58.9854L38.8604 58.9336L38.8485 58.556L35.4358 56.6412C35.3904 56.396 35.2567 56.1567 35.1494 55.9799L35.1719 55.8035L39.3359 54.7455L39.4487 54.3401L39.8668 54.3924L39.7306 55.2408Z" fill="white"/>
<path d="M37.1676 50.3971L37.0983 50.6252L38.6235 51.0736L38.6799 50.8865C38.8251 50.4142 38.5162 50.0747 38.1121 49.9565C37.7574 49.8525 37.3148 49.9174 37.1676 50.3971ZM41.7982 49.3371L41.4554 50.0176C41.1661 50.6061 39.5286 50.8167 38.9608 50.9686L38.9034 51.1557L40.1807 51.5313L40.3862 51.0687L40.7983 51.1899L40.4516 52.2317L40.1143 53.4197L39.7022 53.2985L39.8434 52.6293L36.7855 51.7311L36.5734 52.5111L36.1533 52.3871C36.2556 51.9655 36.3898 51.437 36.4602 51.1205C36.4876 51.0038 36.6393 50.3922 36.7066 50.1729C37.1207 48.8218 37.697 48.5571 38.381 48.7583C38.9907 48.9376 39.2636 49.3371 39.1938 49.9458C39.3719 49.8925 41.1251 49.5384 41.207 49.447C41.3392 49.3088 41.3317 49.3068 41.44 49.0988L41.7982 49.3371Z" fill="white"/>
<path d="M39.3551 44.7703C39.0004 45.4512 39.6006 46.1326 40.3675 46.516C41.1268 46.8951 42.0663 46.9815 42.4211 46.3006C42.7728 45.627 42.1207 44.9295 41.3848 44.5622C40.6569 44.1988 39.7059 44.0967 39.3551 44.7703ZM42.8352 46.5077C42.0973 47.9223 40.7621 48.0766 39.8112 47.6019C38.8612 47.1276 38.2031 45.9792 38.941 44.5632C39.671 43.1627 40.9981 43.0055 41.9491 43.4802C42.8771 43.9433 43.5651 45.1068 42.8352 46.5077Z" fill="white"/>
<path d="M46.5493 40.7997L45.4432 42.2172L45.079 42.6725L44.2927 43.7085L43.9574 43.4584L44.3306 42.8825L41.7851 40.9809L41.3231 41.4904L40.9883 41.2393L41.796 40.2302L42.5405 39.2474L42.8757 39.4975L42.4955 40.069L45.075 41.996C45.1179 41.9417 45.6558 41.2222 45.6832 41.189C45.7561 41.0947 45.8623 40.9169 45.8528 40.8876C45.8419 40.8588 45.4637 40.3303 45.4043 40.2541L45.6672 39.9161L46.5493 40.7997Z" fill="white"/>
<path d="M46.1697 36.0077C45.5879 36.5172 45.8967 37.3651 46.471 37.9928C47.0378 38.6151 47.882 39.0288 48.4647 38.5194C49.0395 38.0158 48.6898 37.1351 48.1389 36.5323C47.5946 35.9359 46.7454 35.5041 46.1697 36.0077ZM48.7746 38.8593C47.5642 39.9173 46.2625 39.5881 45.551 38.8085C44.8395 38.0304 44.6504 36.7272 45.8598 35.6682C47.0563 34.6205 48.3535 34.9438 49.064 35.7234C49.7585 36.484 49.971 37.8116 48.7746 38.8593Z" fill="white"/>
<path d="M50.4121 35.5725L49.9111 34.7568L51.7861 33.6538L52.287 34.4705L50.4121 35.5725Z" fill="white"/>
<path d="M57.6517 30.1508L57.4442 34.1317L56.8285 34.3389L55.5188 32.9082L55.417 34.8132L54.7524 35.0374L52.0143 32.0465L51.5952 32.1344L51.458 31.7442L52.3586 31.4589L53.3135 31.1199L53.4497 31.5102L53.1514 31.6553L54.976 33.7141L54.9994 32.343L54.0899 31.349L53.7616 31.4052L53.6244 31.0154L54.4341 30.7604L55.5363 30.3721L55.6735 30.7624L55.187 30.9714L57.0026 33.0327L57.069 30.3462L56.5351 30.4732L56.3974 30.0819L57.2406 29.8167L57.9022 29.5583L58.0454 29.9647L57.6517 30.1508Z" fill="white"/>
<path d="M60.9175 33.5205L59.6282 33.6245L59.5988 33.2132L60.2878 33.1063L60.0648 29.9791L59.3693 29.9762L59.3398 29.5639L60.6311 29.4936L61.8929 29.3905L61.9223 29.8018L61.2333 29.9L61.4563 33.0271L62.1533 33.0388L62.1822 33.4506L60.9175 33.5205Z" fill="white"/>
<path d="M67.1114 34.0117L65.3127 33.7265L64.732 33.6253L63.4268 33.4363L63.4941 33.028L64.1901 33.0788L64.7015 29.9849L64.0245 29.8266L64.0913 29.4192L65.3826 29.6405L66.6194 29.8188L66.5521 30.2271L65.858 30.168L65.3387 33.3039C65.408 33.3142 66.3096 33.4402 66.3525 33.4471C66.4722 33.4661 66.6828 33.4734 66.7032 33.4519C66.7247 33.43 67.0215 32.8536 67.0625 32.7657L67.4915 32.8336L67.1114 34.0117Z" fill="white"/>
<path d="M72.1258 36.0657L70.9294 35.5221L71.1125 35.1499L71.7711 35.3941L72.3648 34.1871L70.5422 33.3294L69.95 34.5363L70.5492 34.8846L70.3661 35.2568L69.2316 34.7034L68.0596 34.17L68.2427 33.7978L68.8938 34.0396L70.2813 31.2143L69.6781 30.8739L69.8612 30.5017L71.0187 31.0658L72.1678 31.5885L71.9846 31.9607L71.3365 31.7116L70.7548 32.8966L72.5769 33.7543L73.1586 32.5693L72.5479 32.2259L72.73 31.8537L73.8566 32.4023L75.0456 32.943L74.862 33.3152L74.2074 33.0627L72.8199 35.8884L73.4265 36.2396L73.2444 36.6113L72.1258 36.0657Z" fill="white"/>
<path d="M75.3378 38.3706L74.8933 37.9901L73.8301 37.1295L74.103 36.8144L74.7182 37.2477L76.7947 34.8513L76.3093 34.3599L76.5822 34.0453L77.5656 34.8943L78.2581 35.4477L79 36.0627L79.1831 35.9171L79.5074 36.1858L79.2904 36.4368L78.6472 37.2184L78.3294 36.9541L78.6383 36.4149L77.6718 35.6128L76.8306 36.5829L77.5516 37.1817L77.9043 36.8672L78.2221 37.1304L77.2702 38.2295L76.9524 37.9652L77.2293 37.5539L76.5083 36.9551L75.7225 37.8612C75.6781 37.9125 75.6342 37.9642 75.6352 37.9755C75.6956 38.0365 75.75 38.1054 75.9086 38.2373C76.1341 38.4239 76.44 38.6881 76.4664 38.7101C76.5587 38.7878 76.7179 38.9192 76.7353 38.9114C76.7653 38.904 77.1405 38.5636 77.2138 38.4908L77.5381 38.7609L76.8142 39.5957L75.3378 38.3706Z" fill="white"/>
<path d="M79.8815 43.1963L78.7414 41.8042L78.3797 41.3484L77.541 40.3515L77.8703 40.0926L78.3518 40.586L80.8484 38.6248L80.4543 38.0626L80.7841 37.8042L81.5898 38.8153L82.3851 39.76L82.0563 40.0184L81.5808 39.5196L79.0503 41.5077C79.0942 41.5599 79.6769 42.2462 79.7044 42.2785C79.7802 42.3718 79.9314 42.5149 79.9613 42.5124C79.9928 42.5095 80.6074 42.2775 80.6982 42.2394L80.9692 42.5706L79.8815 43.1963Z" fill="white"/>
<path d="M82.7947 48.3746L82.2917 47.4328L82.6679 47.2477L82.9369 47.657L85.3312 46.4305L81.6352 46.4925L83.6873 43.6829L81.4236 44.7131L81.6302 45.2294L81.254 45.415L80.9566 44.801L80.4502 43.8524L80.8274 43.6663L81.1652 44.2134L84.0909 42.8945L83.822 42.2576L84.1982 42.0715L84.6861 43.0386L85.0019 43.6351L83.3265 45.8864L86.1215 45.8121L86.363 46.3016L87.0346 47.5877L86.6574 47.7738L86.2842 47.1583L83.4513 48.6589L83.7332 49.3193L83.357 49.5044L82.7947 48.3746Z" fill="white"/>
<path d="M83.9482 51.6714L83.5625 50.4625L83.9666 50.3453L84.2231 50.9798L87.2915 50.0869L87.1433 49.4211L87.5479 49.3034L87.8997 50.5221L88.2769 51.7056L87.8732 51.8233L87.6258 51.1859L84.5564 52.0788L84.6966 52.7465L84.2919 52.8647L83.9482 51.6714Z" fill="white"/>
<path d="M88.8874 57.7698L85.1884 58.2734L85.0881 57.5666L87.676 54.8048L85.2722 55.1311L85.3091 55.7608L84.8836 55.8189L84.7848 54.9401L84.6201 53.9681L85.0382 53.9119L85.1774 54.5269L88.2463 54.1103C88.3581 53.9833 88.3546 53.7698 88.2957 53.3566L88.7308 53.2975L88.9673 54.9641L86.6308 57.4767L88.8036 57.1812L88.7667 56.5516L89.1848 56.4954L89.2996 57.3712L89.4457 58.3374L89.0276 58.3945L88.8874 57.7698Z" fill="white"/>
<path d="M88.488 61.545L87.2437 61.0252L87.2222 61.9426L88.488 61.545ZM85.2744 63.1999L85.2879 61.8654L85.709 61.8752L85.7479 62.4623L86.7193 62.1272L86.7497 60.7932L85.7948 60.399L85.7264 61.1195L85.3043 61.1098L85.3432 60.1758L85.3348 59.428L85.7469 59.4377L85.7983 59.8124L89.3961 61.3696C89.4684 61.609 89.6271 61.8341 89.7518 61.9983L89.7478 62.1761L85.7204 63.6517L85.6506 64.0669L85.2295 64.0576L85.2744 63.1999Z" fill="white"/>
<path d="M105.349 41.8366V49.9983H103.539V41.8366H100.635V40.3273H108.268V41.8366H105.349Z" fill="white"/>
<path d="M111.321 44.5033C111.096 44.5033 110.618 44.6645 110.557 44.7089C110.528 44.7382 110.079 45.1632 109.989 45.7782H112.683C112.623 45.0167 112.489 44.5033 111.321 44.5033ZM109.929 46.8772C109.973 47.7857 110.647 48.6796 111.695 48.6796C112.414 48.6796 113.207 48.3865 114.045 47.7125L114.21 49.4416C113.402 49.9105 112.668 50.189 111.336 50.189C109.435 50.189 108.013 48.8706 108.013 46.7014C108.013 44.5033 109.39 43.1849 111.321 43.1849C113.64 43.1849 114.315 44.3865 114.315 46.8772H109.929Z" fill="white"/>
<path d="M119.315 50.1887C117.339 50.1887 115.962 48.8845 115.962 46.6283C115.962 44.2251 117.608 43.1847 119.134 43.1847C120.527 43.1847 121.695 43.4924 121.695 44.5617V44.9431C121.695 45.0604 121.695 45.1776 121.68 45.3241H119.927C119.927 44.7087 119.764 44.5915 119.285 44.5915C118.969 44.5915 118.821 44.6208 118.715 44.6642C118.566 44.7228 117.878 45.0892 117.878 46.5844C117.878 48.2989 118.866 48.6794 119.628 48.6794C120.092 48.6794 120.631 48.6506 121.62 47.8299L121.784 49.4707C120.84 50.0134 120.153 50.1887 119.315 50.1887Z" fill="white"/>
<path d="M129.806 49.9983H127.995C128.025 48.3131 128.055 47.9614 128.055 47.0675C128.055 45.1918 127.995 44.7229 127.247 44.7229C126.963 44.7229 126.514 44.7815 126.394 44.8695C126.289 44.9427 125.81 45.2944 125.496 45.6608V49.9983H123.685V39.3015H125.496V43.9614C126.02 43.4485 126.618 43.1848 127.352 43.1848C129.672 43.1848 129.881 44.5915 129.881 46.0711C129.881 46.3348 129.866 46.6133 129.866 46.877C129.851 47.83 129.851 48.3278 129.806 49.9983Z" fill="white"/>
<path d="M138.099 49.9983H136.288C136.333 48.064 136.347 47.8886 136.347 46.6284C136.347 46.3788 136.347 46.0857 136.318 45.8073C136.257 44.9579 136.079 44.7229 135.54 44.7229C135.255 44.7229 134.776 44.7815 134.687 44.8695C134.582 44.9427 134.088 45.2944 133.789 45.6608V49.9983H131.977V45.3242C131.977 44.7381 131.873 43.7265 131.798 43.3601H133.414L133.594 44.1373C134.193 43.4774 134.866 43.1848 135.645 43.1848C137.964 43.1848 138.173 44.5915 138.173 46.0711V46.877C138.159 47.83 138.144 48.3278 138.099 49.9983Z" fill="white"/>
<path d="M140.211 43.3601H142.022V49.9983H140.211V43.3601ZM141.109 42.1004C140.54 42.1004 140.046 41.6168 140.046 41.0307C140.046 40.4445 140.54 39.9756 141.109 39.9756C141.692 39.9756 142.156 40.4299 142.156 41.0155C142.156 41.6022 141.692 42.1004 141.109 42.1004Z" fill="white"/>
<path d="M146.167 50.1887C145.314 50.1887 144.446 50.0134 143.683 49.5444L143.877 48.0791C144.671 48.5328 145.135 48.738 146.122 48.738C146.99 48.738 147.185 48.4742 147.185 48.2544C147.185 47.1998 143.667 47.4924 143.667 45.1043C143.667 43.9174 144.686 43.1847 146.467 43.1847C147.334 43.1847 147.858 43.36 148.802 43.7708L148.592 45.3241C147.679 44.6642 146.87 44.6056 146.377 44.6056C146.077 44.6056 145.479 44.6794 145.479 45.0457C145.479 46.0422 149.025 45.881 149.025 48.1079C149.025 49.2216 148.038 50.1887 146.167 50.1887Z" fill="white"/>
<path d="M153.815 50.1887C151.839 50.1887 150.462 48.8845 150.462 46.6283C150.462 44.2251 152.108 43.1847 153.635 43.1847C155.027 43.1847 156.195 43.4924 156.195 44.5617V44.9431C156.195 45.0604 156.195 45.1776 156.18 45.3241H154.427C154.427 44.7087 154.264 44.5915 153.785 44.5915C153.469 44.5915 153.321 44.6208 153.216 44.6642C153.066 44.7228 152.378 45.0892 152.378 46.5844C152.378 48.2989 153.366 48.6794 154.129 48.6794C154.592 48.6794 155.132 48.6506 156.12 47.8299L156.284 49.4707C155.34 50.0134 154.653 50.1887 153.815 50.1887Z" fill="white"/>
<path d="M164.007 49.9983H162.197C162.226 48.3131 162.255 47.9614 162.255 47.0675C162.255 45.1918 162.197 44.7229 161.448 44.7229C161.163 44.7229 160.714 44.7815 160.594 44.8695C160.49 44.9427 160.01 45.2944 159.697 45.6608V49.9983H157.885V39.3015H159.697V43.9614C160.22 43.4485 160.819 43.1848 161.552 43.1848C163.872 43.1848 164.081 44.5915 164.081 46.0711C164.081 46.3348 164.068 46.6133 164.068 46.877C164.052 47.83 164.052 48.3278 164.007 49.9983Z" fill="white"/>
<path d="M168.933 44.5033C168.707 44.5033 168.229 44.6645 168.169 44.7089C168.14 44.7382 167.69 45.1632 167.601 45.7782H170.294C170.234 45.0167 170.1 44.5033 168.933 44.5033ZM167.54 46.8772C167.585 47.7857 168.258 48.6796 169.307 48.6796C170.025 48.6796 170.818 48.3865 171.656 47.7125L171.821 49.4416C171.013 49.9105 170.279 50.189 168.947 50.189C167.046 50.189 165.624 48.8706 165.624 46.7014C165.624 44.5033 167.001 43.1849 168.933 43.1849C171.252 43.1849 171.926 44.3865 171.926 46.8772H167.54Z" fill="white"/>
<path d="M109.705 62.1864C109.705 64.7059 107.939 65.8049 105.514 65.8049C103.494 65.8049 101.578 64.6478 101.578 62.5528V55.9727H103.389V62.1415C103.389 63.857 104.631 64.2814 105.575 64.2814C106.712 64.2814 107.894 63.8418 107.894 62.1273V55.9727H109.705V62.1864Z" fill="white"/>
<path d="M117.757 65.6294H115.946C115.991 63.6956 116.006 63.5193 116.006 62.259C116.006 62.0099 116.006 61.7168 115.976 61.4384C115.916 60.5885 115.737 60.3545 115.198 60.3545C114.914 60.3545 114.435 60.4127 114.346 60.5006C114.24 60.5738 113.746 60.926 113.447 61.2924V65.6294H111.636V60.9548C111.636 60.3692 111.531 59.3576 111.456 58.9912H113.073L113.252 59.7679C113.851 59.1085 114.524 58.8159 115.303 58.8159C117.623 58.8159 117.832 60.2222 117.832 61.7027V62.5077C117.817 63.4611 117.802 63.9589 117.757 65.6294Z" fill="white"/>
<path d="M119.972 58.9912H121.783V65.6294H119.972V58.9912ZM120.87 57.7315C120.302 57.7315 119.808 57.2479 119.808 56.6613C119.808 56.0751 120.302 55.6067 120.87 55.6067C121.454 55.6067 121.917 56.061 121.917 56.6466C121.917 57.2333 121.454 57.7315 120.87 57.7315Z" fill="white"/>
<path d="M127.081 65.8203H125.72L123.19 58.9916H125.136L126.438 63.0356L127.771 58.9916H129.597L127.081 65.8203Z" fill="white"/>
<path d="M133.938 60.1344C133.713 60.1344 133.234 60.2956 133.174 60.3395C133.144 60.3693 132.695 60.7938 132.606 61.4098H135.3C135.24 60.6478 135.105 60.1344 133.938 60.1344ZM132.546 62.5078C132.591 63.4173 133.263 64.3112 134.312 64.3112C135.03 64.3112 135.824 64.0172 136.662 63.3436L136.827 65.0722C136.018 65.5416 135.285 65.8206 133.953 65.8206C132.052 65.8206 130.63 64.5012 130.63 62.3325C130.63 60.1344 132.007 58.816 133.938 58.816C136.257 58.816 136.931 60.0172 136.931 62.5078H132.546Z" fill="white"/>
<path d="M141.646 60.9844C141.631 60.662 141.662 60.2957 141.377 60.2957C141.137 60.2957 140.958 60.6039 140.673 61.1016V65.6296H138.863V60.9404C138.863 60.2957 138.788 59.6362 138.683 58.9915H140.299L140.479 59.7833C140.733 59.3138 141.363 58.8303 141.916 58.8303C142.814 58.8303 143.114 59.3725 143.114 60.1784C143.114 60.3836 143.098 60.6039 143.068 60.809L141.646 60.9844Z" fill="white"/>
<path d="M146.779 65.8203C145.927 65.8203 145.059 65.644 144.295 65.1755L144.489 63.7102C145.283 64.1639 145.747 64.3691 146.734 64.3691C147.603 64.3691 147.798 64.1058 147.798 63.8855C147.798 62.8304 144.28 63.1245 144.28 60.7354C144.28 59.5485 145.298 58.8158 147.079 58.8158C147.947 58.8158 148.471 58.9916 149.414 59.4019L149.205 60.9548C148.292 60.2958 147.482 60.2372 146.988 60.2372C146.69 60.2372 146.091 60.311 146.091 60.6773C146.091 61.6733 149.639 61.5121 149.639 63.7395C149.639 64.8532 148.65 65.8203 146.779 65.8203Z" fill="white"/>
<path d="M151.509 58.9912H153.319V65.6294H151.509V58.9912ZM152.406 57.7315C151.839 57.7315 151.345 57.2479 151.345 56.6613C151.345 56.0751 151.839 55.6067 152.406 55.6067C152.99 55.6067 153.454 56.061 153.454 56.6466C153.454 57.2333 152.99 57.7315 152.406 57.7315Z" fill="white"/>
<path d="M157.766 65.8203C156.749 65.8203 156.001 65.1897 156.001 63.9593V60.1781H155.012V59.0063H156.001V56.7496H157.782V58.9916H159.263V60.1639H157.782V63.6071C157.782 64.2519 157.96 64.2817 158.126 64.2817C158.53 64.2817 159.053 63.9886 159.382 63.7976L159.562 65.263C158.978 65.5859 158.335 65.8203 157.766 65.8203Z" fill="white"/>
<path d="M165.085 57.9222C164.546 57.9222 164.127 57.4825 164.127 56.9545C164.127 56.4128 164.516 55.9439 165.085 55.9439C165.623 55.9439 166.043 56.4128 166.043 56.9404C166.043 57.4825 165.623 57.9222 165.085 57.9222ZM164.516 62.7286C163.797 62.904 163.408 63.0212 162.75 63.3001C162.675 63.5053 162.66 63.5785 162.66 63.7978C162.66 64.1788 162.75 64.5012 163.199 64.5012C163.529 64.5012 163.992 64.2814 164.516 63.7104V62.7286ZM162.555 57.9222C162.016 57.9222 161.597 57.4825 161.597 56.9545C161.597 56.4128 161.987 55.9439 162.555 55.9439C163.094 55.9439 163.513 56.4128 163.513 56.9404C163.513 57.4825 163.094 57.9222 162.555 57.9222ZM164.935 65.6296C164.845 65.3511 164.83 65.2339 164.755 64.8529C164.426 65.3214 163.738 65.8206 162.869 65.8206C161.687 65.8206 160.894 65.1162 160.894 64.1642C160.894 63.5785 161.013 63.0212 161.223 62.7726C161.582 62.3032 163.588 61.761 164.516 61.5856V61.0874C164.516 60.3693 164.411 60.1344 163.649 60.1344C163.348 60.1344 162.781 60.15 162.691 60.2956C162.6 60.4568 162.616 60.5598 162.6 60.809L161.133 60.9408C161.133 60.8378 161.119 60.7499 161.119 60.6619C161.119 60.2956 161.178 59.9883 161.268 59.666C161.343 59.4022 162.42 58.816 163.797 58.816C165.384 58.816 166.342 59.5346 166.342 60.721V63.6664C166.342 64.3991 166.477 65.1318 166.581 65.6296H164.935Z" fill="white"/>
<path d="M170.473 65.8203C169.455 65.8203 168.707 65.1897 168.707 63.9593V60.1781H167.719V59.0063H168.707V56.7496H170.488V58.9916H171.97V60.1639H170.488V63.6071C170.488 64.2519 170.667 64.2817 170.832 64.2817C171.236 64.2817 171.76 63.9886 172.089 63.7976L172.268 65.263C171.684 65.5859 171.042 65.8203 170.473 65.8203Z" fill="white"/>
<path d="M105.229 76.8641H103.613V79.8247H105.139C106.561 79.8247 107.115 79.3704 107.115 78.3295C107.115 77.3477 106.397 76.8641 105.229 76.8641ZM105.05 72.9672L103.613 72.9813V75.4285H104.915C106.097 75.4285 106.516 74.9303 106.516 74.1976C106.516 73.523 106.023 72.9672 105.05 72.9672ZM105.694 81.2603H101.802V71.663C102.969 71.5892 104.136 71.5301 105.32 71.5301C107.549 71.5301 108.447 72.7322 108.447 73.9925C108.447 74.8272 108.013 75.7509 107.191 76.0582C108.313 76.2047 109.046 77.2603 109.046 78.5205C109.046 80.1612 107.669 81.2603 105.694 81.2603Z" fill="white"/>
<path d="M113.476 76.615C113.462 76.2926 113.492 75.9263 113.207 75.9263C112.968 75.9263 112.788 76.2345 112.504 76.7322V81.2603H110.693V76.571C110.693 75.9263 110.618 75.2669 110.513 74.6221H112.13L112.309 75.4139C112.563 74.9445 113.192 74.4609 113.746 74.4609C114.643 74.4609 114.944 75.0036 114.944 75.809C114.944 76.0142 114.928 76.2345 114.898 76.4396L113.476 76.615Z" fill="white"/>
<path d="M119.374 78.3592C118.656 78.5346 118.267 78.6523 117.608 78.9307C117.533 79.1359 117.518 79.2091 117.518 79.4285C117.518 79.8095 117.608 80.1318 118.057 80.1318C118.386 80.1318 118.85 79.9125 119.374 79.341V78.3592ZM119.792 81.2602C119.703 80.9818 119.689 80.8645 119.614 80.484C119.284 80.9525 118.596 81.4512 117.728 81.4512C116.545 81.4512 115.752 80.7473 115.752 79.7948C115.752 79.2091 115.872 78.6523 116.081 78.4032C116.44 77.9338 118.446 77.3921 119.374 77.2162V76.7185C119.374 76 119.269 75.765 118.506 75.765C118.207 75.765 117.638 75.7806 117.548 75.9267C117.458 76.0879 117.473 76.1909 117.458 76.4396L115.991 76.5715C115.991 76.4684 115.976 76.3805 115.976 76.293C115.976 75.9267 116.036 75.6194 116.126 75.2966C116.201 75.0323 117.279 74.4466 118.656 74.4466C120.242 74.4466 121.2 75.1652 121.2 76.3521V79.2971C121.2 80.0298 121.334 80.7624 121.44 81.2602H119.792Z" fill="white"/>
<path d="M127.829 81.2602L127.65 80.4835C127.111 81.099 126.438 81.4512 125.599 81.4512C123.803 81.4512 123.145 80.6447 123.145 78.9742V74.622H124.956V78.8277C124.956 79.4285 125.001 79.912 125.719 79.912C125.914 79.912 126.363 79.8827 126.542 79.7806C126.782 79.6038 127.246 79.2233 127.455 78.9742V74.622H129.266V79.2971C129.266 79.956 129.341 80.6154 129.446 81.2602H127.829Z" fill="white"/>
<path d="M137.426 81.2603H135.614C135.659 79.3264 135.674 79.1501 135.674 77.8899C135.674 77.6408 135.674 77.3477 135.644 77.0693C135.584 76.2193 135.405 75.9854 134.866 75.9854C134.582 75.9854 134.103 76.0435 134.013 76.1314C133.908 76.2047 133.414 76.5569 133.115 76.9232V81.2603H131.305V76.5857C131.305 76 131.199 74.9884 131.124 74.6221H132.741L132.92 75.3987C133.519 74.7393 134.192 74.4467 134.971 74.4467C137.291 74.4467 137.5 75.853 137.5 77.3335V78.1385C137.485 79.092 137.47 79.5897 137.426 81.2603Z" fill="white"/>
<path d="M141.646 81.4512C140.793 81.4512 139.925 81.2748 139.162 80.8064L139.356 79.341C140.15 79.7948 140.614 80 141.601 80C142.469 80 142.664 79.7367 142.664 79.5164C142.664 78.4613 139.146 78.7554 139.146 76.3663C139.146 75.1793 140.165 74.4466 141.946 74.4466C142.815 74.4466 143.337 74.6225 144.281 75.0323L144.072 76.5856C143.159 75.9267 142.35 75.8681 141.856 75.8681C141.556 75.8681 140.958 75.9418 140.958 76.3082C140.958 77.3041 144.505 77.1429 144.505 79.3703C144.505 80.484 143.517 81.4512 141.646 81.4512Z" fill="white"/>
<path d="M148.95 81.4512C146.975 81.4512 145.598 80.147 145.598 77.8898C145.598 75.4866 147.244 74.4466 148.771 74.4466C150.163 74.4466 151.33 74.7539 151.33 75.8246V76.2051C151.33 76.3223 151.33 76.4396 151.315 76.5856H149.563C149.563 75.9702 149.399 75.8529 148.921 75.8529C148.605 75.8529 148.457 75.8827 148.352 75.9267C148.202 75.9858 147.514 76.3521 147.514 77.8458C147.514 79.5603 148.501 79.9418 149.265 79.9418C149.728 79.9418 150.268 79.9125 151.256 79.0919L151.42 80.7326C150.476 81.2748 149.789 81.4512 148.95 81.4512Z" fill="white"/>
<path d="M159.097 81.2603H157.287C157.317 79.5756 157.346 79.2234 157.346 78.3295C157.346 76.4538 157.287 75.9854 156.539 75.9854C156.255 75.9854 155.805 76.0435 155.685 76.1314C155.581 76.2047 155.101 76.5569 154.788 76.9232V81.2603H152.976V70.564H154.788V75.2234C155.311 74.71 155.91 74.4467 156.643 74.4467C158.963 74.4467 159.172 75.853 159.172 77.3335C159.172 77.5968 159.158 77.8752 159.158 78.1385C159.142 79.092 159.142 79.5897 159.097 81.2603Z" fill="white"/>
<path d="M167.555 81.4512H166.536L165.159 78.3294L163.903 81.4512H162.869L160.161 74.6225H162.076L163.514 78.4471L165.159 74.4027L166.911 78.5204L168.303 74.6225H170.055L167.555 81.4512Z" fill="white"/>
<path d="M173.871 75.765C173.646 75.765 173.168 75.9262 173.107 75.9702C173.078 76 172.629 76.4244 172.539 77.0404H175.232C175.173 76.2784 175.039 75.765 173.871 75.765ZM172.478 78.1384C172.523 79.048 173.197 79.9418 174.246 79.9418C174.964 79.9418 175.756 79.6478 176.595 78.9742L176.759 80.7029C175.952 81.1723 175.217 81.4512 173.885 81.4512C171.984 81.4512 170.562 80.1318 170.562 77.9631C170.562 75.765 171.94 74.4467 173.871 74.4467C176.19 74.4467 176.865 75.6478 176.865 78.1384H172.478Z" fill="white"/>
<path d="M178.647 74.6221H180.457V81.2603H178.647V74.6221ZM179.544 73.3619C178.976 73.3619 178.482 72.8783 178.482 72.2926C178.482 71.7065 178.976 71.2375 179.544 71.2375C180.128 71.2375 180.592 71.6913 180.592 72.278C180.592 72.8641 180.128 73.3619 179.544 73.3619Z" fill="white"/>
<path d="M185.351 75.7803C184.872 75.7803 184.543 75.9415 184.468 76.0138C184.393 76.0876 184.124 76.4681 184.124 76.9814C184.124 77.7 184.573 78.2119 185.351 78.2119C185.755 78.2119 186.144 78.0223 186.204 77.9774C186.279 77.9051 186.548 77.6262 186.548 76.9814C186.548 76.2781 186.219 75.7803 185.351 75.7803ZM186.309 81.9193C185.59 81.9193 185.201 81.9784 184.513 81.993C184.094 82.2856 183.779 82.5787 183.779 82.9602C183.779 83.5165 184.228 83.6777 185.201 83.6777C186.608 83.6777 187.267 82.9309 187.267 82.3735C187.267 81.993 187.222 81.9193 186.309 81.9193ZM188.329 76.2048C188.419 76.4681 188.464 76.6444 188.464 76.9673C188.464 78.5347 187.237 79.5898 185.306 79.5898C185.037 79.5898 184.767 79.5752 184.408 79.4726C184.168 79.707 183.974 79.8531 183.974 80.1467C183.974 80.3958 184.198 80.4695 184.348 80.4695C185.096 80.4695 185.74 80.3958 186.488 80.3958C188.104 80.3958 189.108 80.6151 189.108 82.1542C189.108 84.0734 186.982 85.041 185.022 85.041C183.435 85.041 182.088 84.7626 182.088 83.4438C182.088 82.4766 182.822 82.0951 183.3 81.8318C182.911 81.7141 182.268 81.4215 182.268 80.659C182.268 79.9415 183.076 79.5898 183.63 79.1355C182.746 78.652 182.208 78.1386 182.208 76.9673C182.208 75.5161 183.48 74.4463 185.321 74.4463C186.264 74.4463 186.713 74.6813 187.132 74.9304C187.476 74.9304 188.554 74.9304 189.452 74.6954V76.2048H188.329Z" fill="white"/>
</svg>
