<svg width="224" height="115" viewBox="0 0 224 115" fill="none" xmlns="http://www.w3.org/2000/svg">
<path d="M152.199 88.7893C151.365 89.2381 150.499 89.5746 149.601 89.7989C148.703 90.0233 147.776 90.1355 146.82 90.1355C144.659 90.1355 142.947 89.4672 141.684 88.1307C140.422 86.7942 139.79 84.9817 139.79 82.6933C139.79 80.3792 140.433 78.5587 141.719 77.2318C143.005 75.9049 144.766 75.2415 147.003 75.2415C147.866 75.2415 148.693 75.3312 149.484 75.5107C150.274 75.6902 151.02 75.9562 151.721 76.3087V79.2799C150.997 78.8247 150.277 78.485 149.562 78.2606C148.846 78.0363 148.129 77.9241 147.411 77.9241C146.079 77.9241 145.052 78.336 144.331 79.1597C143.609 79.9834 143.249 81.1613 143.249 82.6933C143.249 84.2125 143.596 85.3855 144.291 86.2125C144.987 87.0394 145.974 87.4528 147.255 87.4528C147.602 87.4528 147.925 87.4288 148.224 87.3807C148.522 87.3326 148.79 87.2573 149.027 87.1548V84.3663H146.985V81.8856H152.199V88.7893ZM162.227 82.0202C161.955 81.8792 161.684 81.775 161.415 81.7077C161.146 81.6404 160.875 81.6068 160.602 81.6068C159.803 81.6068 159.187 81.8904 158.756 82.4577C158.324 83.025 158.108 83.8375 158.108 84.8952V89.8566H154.997V79.0876H158.108V80.8568C158.508 80.1517 158.967 79.6372 159.486 79.3135C160.004 78.9898 160.626 78.828 161.35 78.8279C161.454 78.828 161.567 78.8328 161.689 78.8424C161.81 78.852 161.987 78.8728 162.219 78.9049L162.227 82.0202ZM168.154 85.0105C167.505 85.0106 167.017 85.1323 166.69 85.3759C166.362 85.6195 166.199 85.9785 166.199 86.4528C166.199 86.8887 166.331 87.2301 166.594 87.4769C166.858 87.7237 167.224 87.8471 167.693 87.8471C168.279 87.8471 168.771 87.6147 169.171 87.1499C169.57 86.6852 169.77 86.1035 169.77 85.4048V85.0105H168.154ZM172.907 83.7125V89.8566H169.77V88.2605C169.353 88.9143 168.884 89.3903 168.363 89.6884C167.841 89.9864 167.207 90.1355 166.459 90.1355C165.451 90.1355 164.633 89.8102 164.005 89.1595C163.376 88.5089 163.062 87.6644 163.062 86.6259C163.062 85.3631 163.454 84.4368 164.239 83.8471C165.024 83.2574 166.257 82.9625 167.937 82.9625H169.77V82.6933C169.77 82.1484 169.576 81.7494 169.188 81.4962C168.8 81.243 168.195 81.1164 167.372 81.1164C166.706 81.1164 166.086 81.1901 165.512 81.3375C164.939 81.485 164.406 81.7061 163.913 82.001V79.376C164.58 79.1965 165.249 79.0603 165.921 78.9674C166.593 78.8744 167.265 78.828 167.937 78.8279C169.692 78.828 170.959 79.211 171.739 79.977C172.518 80.743 172.907 81.9882 172.907 83.7125ZM175.341 79.0876H183.831V81.4914L178.704 87.3951H183.831V89.8566H175.123V87.4528L180.25 81.5491H175.341V79.0876Z" fill="black"/>
<path d="M139.623 73.3418V47.5225H130.466V42.2654H154.991V47.5225H145.855V73.3418H139.623ZM158.991 42.2654H165.223V59.0967C165.223 61.7676 165.3 63.4988 165.454 64.2902C165.721 65.5621 166.356 66.5831 167.359 67.3533C168.363 68.1235 169.735 68.5086 171.475 68.5086C173.243 68.5086 174.577 68.1447 175.475 67.4169C176.373 66.6891 176.913 65.7953 177.096 64.7353C177.278 63.6755 177.37 61.916 177.37 59.457V42.2654H183.601V58.5879C183.601 62.3188 183.433 64.9544 183.096 66.4948C182.759 68.0352 182.138 69.3353 181.233 70.3952C180.327 71.4551 179.117 72.2995 177.601 72.9284C176.085 73.5573 174.107 73.8717 171.665 73.8717C168.717 73.8717 166.482 73.529 164.959 72.8436C163.437 72.1582 162.233 71.2679 161.349 70.1727C160.465 69.0774 159.882 67.9292 159.602 66.728C159.195 64.9473 158.991 62.3188 158.991 58.8423V42.2654Z" fill="black"/>
<path d="M186.157 78.8474V89.9087H197V78.8474H186.157Z" fill="#D2003F"/>
<path d="M80.4485 41.6908V25.5347H111.787V41.6908H127.373V73.6611H96.034V57.5049H92.8529V73.6611H74.1808V89.8226H42.8422V73.6611H27V41.6908H58.3386V57.8524H61.5144V41.6908H80.4485Z" fill="#D2003F"/>
</svg>
