<svg width="224" height="121" viewBox="0 0 224 121" fill="none" xmlns="http://www.w3.org/2000/svg">
<path d="M79.1778 23.8496H61.4549C51.2147 23.8496 43.9107 27.3356 44.6795 36.2793C46.0546 52.2691 74.612 48.0229 79.4103 68.239C82.9247 50.431 65.9333 48.8232 57.7327 42.4957C54.5211 40.0188 53.8938 33.0438 60.4826 33.0438H74.3252L79.1778 23.8496Z" fill="#65CA45"/>
<path d="M38.6514 36.3118C38.6514 53.9609 52.6103 57.6432 60.9067 62.5782C64.3881 64.6518 64.7411 72.0305 58.1481 72.0305H38.8302V99.0823L48.4477 94.9296V81.225H57.18C67.4248 81.225 73.9554 77.7703 73.9554 68.7923C73.9558 50.2695 42.5983 54.9201 38.6514 36.3118Z" fill="#00486F"/>
<path d="M108.965 33.6351L104.428 25.5891C103.697 24.3153 103.294 23.7021 102.118 23.7021C100.976 23.7021 100.319 23.8148 100.319 23.8148V36.4942H102.467V26.4512L107.498 35.3388C108.071 36.3209 108.524 36.5992 109.521 36.5992C110.498 36.5992 111.113 36.5244 111.113 36.5244V23.8079H108.965V33.6351Z" fill="#696A6D"/>
<path d="M122.546 34.0057L118.52 23.8738L118.499 23.8081H116.252L120.73 35.1817C121.17 36.2813 121.681 36.7284 122.562 36.7097C123.401 36.6922 123.775 36.6922 123.775 36.6922L128.673 23.8081H126.446L122.546 34.0057Z" fill="#696A6D"/>
<path d="M183.396 20.6614H181.152L179.283 23.194H180.695L183.396 20.6614Z" fill="#696A6D"/>
<path d="M96.0405 32.1216C96.0405 33.823 95.1013 34.7546 93.3443 34.7546C91.5827 34.7546 90.6686 33.823 90.6686 32.1216V23.8735H88.5498V32.3052C88.5498 34.7416 90.332 36.64 93.4063 36.64C96.4221 36.64 98.2712 34.7416 98.2712 32.3052V23.8735H96.0405V32.1216Z" fill="#696A6D"/>
<path d="M115.55 23.9067H113.211V36.4281H115.55V23.9067Z" fill="#696A6D"/>
<path d="M164.468 25.7204H167.871V36.4281H170.209V25.7204H173.607V23.9067H164.468V25.7204Z" fill="#696A6D"/>
<path d="M163.288 23.9067H160.949V36.4281H163.288V23.9067Z" fill="#696A6D"/>
<path d="M155.544 29.0056C154.278 28.4081 153.18 27.89 153.18 27.0465C153.18 26.2565 153.629 25.8236 154.439 25.8236H158.752V23.845H154.664C152.508 23.845 151.112 25.1344 151.112 27.1351C151.112 29.2557 153.031 30.1679 154.717 30.9697C156.059 31.6062 157.223 32.1572 157.223 33.1476C157.223 33.8566 157.003 34.5122 155.407 34.5122H151.024V36.4885H155.702C157.917 36.4885 159.296 35.1544 159.296 33.0075C159.296 30.7788 157.215 29.7971 155.544 29.0056Z" fill="#696A6D"/>
<path d="M149.637 27.8172C149.637 23.2159 145.167 23.8153 140.689 23.8359H139.82V36.4447H141.91V25.7481C146.292 25.4644 147.564 26.1024 147.564 27.8172C147.564 29.4017 146.218 29.9824 143.821 29.9824H143.414L142.795 31.8243L147.244 36.4966H149.898L145.345 31.7422C148.831 31.3513 149.637 29.9095 149.637 27.8172Z" fill="#696A6D"/>
<path d="M129.973 36.4281L137.775 36.3956V34.582H132.312V30.9498H136.936L137.625 29.1388H132.312V25.7204H137.775V23.9067H129.973V36.4281Z" fill="#696A6D"/>
<path d="M175.058 36.4281L182.855 36.3956V34.582H177.397V30.9498H182.017L182.71 29.1388H177.397V25.7204H182.855V23.9067H175.058V36.4281Z" fill="#696A6D"/>
<path d="M153.039 51.6498C153.039 42.4602 144.103 43.6549 135.163 43.7018H133.422V68.8812H137.597V47.5162C146.35 46.9492 148.893 48.2229 148.893 51.6498C148.893 54.8127 146.205 55.975 141.423 55.975H140.609L139.367 59.6538L148.256 68.9854H153.561L144.464 59.485C151.426 58.7065 153.039 55.8299 153.039 51.6498Z" fill="#696A6D"/>
<path d="M95.8534 59.6538C105.184 60.4201 108.217 56.125 108.217 51.6498C108.217 42.4602 99.2804 43.6549 90.3404 43.7018H88.6035V68.8812H92.7787V47.5162C101.532 46.9492 104.071 48.2229 104.071 51.6498C104.071 54.8127 101.47 56.2468 96.6009 55.975H95.7911L94.6236 59.4797L95.8534 59.6538Z" fill="#696A6D"/>
<path d="M157.467 43.4629H162.146V68.9855H157.467V43.4629Z" fill="#696A6D"/>
<path d="M128.079 68.9854H132.687L120.992 43.4861H115.97L105.608 69.027L110.161 68.9854L113.531 60.4411H124.303L128.079 68.9854ZM114.939 56.8692L118.607 47.5723L122.72 56.8692H114.939Z" fill="#696A6D"/>
<path d="M176.267 68.8807H166.906V64.935H175.677C178.855 64.935 179.3 63.6223 179.3 62.2058C179.3 60.2261 176.981 59.1241 174.294 57.8504C170.908 56.2448 167.077 54.424 167.077 50.1827C167.077 46.1858 169.865 43.6074 174.186 43.6074H182.831V47.5585H173.733C172.113 47.5585 171.215 48.4279 171.215 50.0094C171.215 51.6924 173.409 52.7271 175.943 53.9272C179.284 55.5014 183.442 57.4686 183.442 61.9263C183.44 66.2164 180.691 68.8807 176.267 68.8807Z" fill="#696A6D"/>
<path d="M98.1343 99.6754H88.7705V95.7243H97.5405C100.723 95.7243 101.163 94.4097 101.163 92.992C101.163 91.0142 98.8449 89.9153 96.1566 88.6378C92.7749 87.0341 88.9443 85.2128 88.9443 80.9724C88.9443 76.9793 91.7277 74.3975 96.0486 74.3975H104.698V78.3474H95.5914C93.9754 78.3474 93.0823 79.2179 93.0823 80.7994C93.0823 82.4859 95.276 83.5187 97.8056 84.7138C101.146 86.2953 105.304 88.2643 105.304 92.716C105.305 97.008 102.559 99.6754 98.1343 99.6754Z" fill="#696A6D"/>
<path d="M127.63 74.3875H122.728V90.7972C122.728 94.1996 120.85 96.0606 117.335 96.0606C113.821 96.0606 111.98 94.1996 111.98 90.7972V74.3875H107.747V91.1539C107.747 96.0308 111.308 99.8295 117.464 99.8295C123.492 99.8295 127.186 96.0308 127.186 91.1539V78.2018" fill="#696A6D"/>
<path d="M127.548 98.8079C127.548 98.8079 128.495 99.5196 132.816 99.5002C141.814 99.4585 145.662 94.173 145.662 86.702C145.662 79.3921 140.336 74.3872 134.569 74.3872H122.729L124.91 78.3238H132.887C139.239 78.3238 141.217 83.4287 141.217 86.8524C141.217 90.5889 139.425 95.7748 133.186 95.7748C131.652 95.7748 129.28 95.3571 129.28 95.3571L127.548 98.8079Z" fill="#696A6D"/>
</svg>
