<svg width="170" height="64" viewBox="0 0 170 64" fill="none" xmlns="http://www.w3.org/2000/svg">
<path d="M41 30.5938C41.0138 29.581 41.2972 28.5878 41.824 27.7069C42.3507 26.8259 43.1037 26.0857 44.0129 25.5552C43.4353 24.7723 42.6734 24.128 41.7876 23.6734C40.9018 23.2189 39.9166 22.9667 38.9102 22.9368C36.7633 22.7229 34.6819 24.1562 33.5879 24.1562C32.4727 24.1562 30.7883 22.958 28.9744 22.9935C27.8012 23.0294 26.6578 23.3533 25.6556 23.9334C24.6534 24.5135 23.8266 25.3302 23.2558 26.3038C20.7832 30.3672 22.6275 36.339 24.9961 39.6236C26.1811 41.2319 27.5661 43.0285 29.3783 42.9648C31.1517 42.895 31.814 41.8914 33.9546 41.8914C36.0753 41.8914 36.6967 42.9648 38.5457 42.9243C40.4486 42.8949 41.6475 41.3088 42.791 39.6852C43.6424 38.5392 44.2976 37.2726 44.7323 35.9323C43.6267 35.4885 42.6833 34.7456 42.0196 33.7963C41.3559 32.847 41.0013 31.7332 41 30.5938Z" fill="black"/>
<path d="M37.5076 20.777C38.5452 19.5947 39.0563 18.0752 38.9325 16.541C37.3474 16.699 35.8832 17.4181 34.8316 18.555C34.3175 19.1104 33.9237 19.7565 33.6728 20.4564C33.4219 21.1564 33.3188 21.8964 33.3694 22.6341C34.1623 22.6419 34.9466 22.4788 35.6634 22.1571C36.3802 21.8354 37.0108 21.3635 37.5076 20.777Z" fill="black"/>
<path d="M62.9633 39.9335H56.978L55.5406 44.1961H53.0055L58.6747 28.4253H61.3086L66.9778 44.1961H64.3994L62.9633 39.9335ZM57.5979 37.9664H62.3422L60.0034 31.0484H59.938L57.5979 37.9664Z" fill="black"/>
<path d="M79.2213 38.4478C79.2213 42.021 77.3172 44.3166 74.4437 44.3166C73.7158 44.3549 72.9919 44.1865 72.3548 43.8307C71.7178 43.4749 71.1934 42.9461 70.8417 42.3049H70.7873V48.0001H68.4374V32.6981H70.712V34.6106H70.7552C71.1231 33.9724 71.6564 33.4464 72.2983 33.0885C72.9402 32.7305 73.6667 32.554 74.4005 32.5778C77.306 32.5778 79.2213 34.8846 79.2213 38.4478ZM76.806 38.4478C76.806 36.1199 75.6082 34.5895 73.7806 34.5895C71.9851 34.5895 70.7774 36.1522 70.7774 38.4478C70.7774 40.7646 71.9851 42.3161 73.7806 42.3161C75.6082 42.3161 76.806 40.7968 76.806 38.4478Z" fill="black"/>
<path d="M91.8217 38.4478C91.8217 42.0209 89.9176 44.3166 87.0441 44.3166C86.3162 44.3549 85.5923 44.1864 84.9552 43.8307C84.3182 43.4749 83.7938 42.9461 83.442 42.3049H83.3877V48.0001H81.0377V32.6981H83.3123V34.6105H83.3555C83.7234 33.9724 84.2567 33.4464 84.8986 33.0884C85.5405 32.7305 86.267 32.554 87.0008 32.5778C89.9064 32.5778 91.8217 34.8846 91.8217 38.4478ZM89.4063 38.4478C89.4063 36.1199 88.2085 34.5895 86.381 34.5895C84.5855 34.5895 83.3778 36.1522 83.3778 38.4478C83.3778 40.7646 84.5855 42.3161 86.381 42.3161C88.2085 42.3161 89.4063 40.7968 89.4063 38.4478H89.4063Z" fill="black"/>
<path d="M100.15 39.802C100.324 41.3659 101.836 42.3928 103.903 42.3928C105.884 42.3928 107.309 41.3659 107.309 39.9557C107.309 38.7316 106.45 37.9987 104.415 37.4964L102.38 37.004C99.4963 36.3045 98.1577 34.9502 98.1577 32.7525C98.1577 30.0314 100.519 28.1624 103.871 28.1624C107.189 28.1624 109.464 30.0314 109.541 32.7525H107.168C107.026 31.1786 105.731 30.2286 103.838 30.2286C101.945 30.2286 100.65 31.1898 100.65 32.5888C100.65 33.7037 101.477 34.3598 103.501 34.8621L105.231 35.2887C108.453 36.0539 109.791 37.3537 109.791 39.6605C109.791 42.611 107.451 44.459 103.729 44.459C100.247 44.459 97.8959 42.6544 97.744 39.8019L100.15 39.802Z" fill="black"/>
<path d="M114.863 29.9771V32.6981H117.04V34.5672H114.863V40.906C114.863 41.8907 115.299 42.3496 116.256 42.3496C116.514 42.3451 116.772 42.3269 117.029 42.295V44.1529C116.598 44.2336 116.161 44.2702 115.723 44.262C113.406 44.262 112.502 43.3877 112.502 41.1577V34.5672H110.837V32.6981H112.502V29.9771H114.863Z" fill="black"/>
<path d="M118.301 38.4477C118.301 34.83 120.422 32.5566 123.73 32.5566C127.049 32.5566 129.161 34.8299 129.161 38.4477C129.161 42.0754 127.061 44.3389 123.73 44.3389C120.401 44.3389 118.301 42.0754 118.301 38.4477ZM126.767 38.4477C126.767 35.966 125.634 34.5013 123.73 34.5013C121.826 34.5013 120.695 35.9772 120.695 38.4477C120.695 40.9394 121.826 42.3929 123.73 42.3929C125.634 42.3929 126.767 40.9394 126.767 38.4477H126.767Z" fill="black"/>
<path d="M131.099 32.6982H133.34V34.6553H133.394C133.546 34.0441 133.902 33.5039 134.404 33.1256C134.905 32.7473 135.521 32.5539 136.148 32.5779C136.419 32.577 136.689 32.6065 136.953 32.666V34.8736C136.611 34.7687 136.254 34.7205 135.897 34.731C135.556 34.7171 135.215 34.7775 134.899 34.9082C134.584 35.0389 134.3 35.2366 134.067 35.488C133.834 35.7393 133.659 36.0382 133.552 36.3642C133.445 36.6901 133.41 37.0354 133.448 37.3764V44.1964H131.099L131.099 32.6982Z" fill="black"/>
<path d="M147.787 40.8191C147.471 42.9064 145.447 44.3389 142.858 44.3389C139.528 44.3389 137.46 42.0977 137.46 38.5023C137.46 34.8957 139.539 32.5566 142.759 32.5566C145.927 32.5566 147.918 34.7419 147.918 38.2282V39.0369H139.833V39.1795C139.795 39.6026 139.848 40.0289 139.987 40.4301C140.127 40.8312 140.349 41.1979 140.641 41.506C140.932 41.814 141.285 42.0563 141.677 42.2167C142.068 42.3771 142.49 42.452 142.912 42.4363C143.468 42.4886 144.025 42.3594 144.501 42.068C144.978 41.7766 145.348 41.3386 145.556 40.8191L147.787 40.8191ZM139.844 37.3873H145.567C145.588 37.0069 145.531 36.6261 145.399 36.269C145.266 35.9118 145.062 35.586 144.798 35.312C144.534 35.038 144.217 34.8217 143.866 34.6766C143.515 34.5315 143.139 34.4609 142.759 34.4691C142.377 34.4668 141.997 34.5406 141.643 34.6864C141.289 34.8321 140.967 35.0468 140.696 35.3181C140.425 35.5894 140.21 35.912 140.064 36.2671C139.918 36.6223 139.843 37.003 139.844 37.3874V37.3873Z" fill="black"/>
<path d="M55.7282 19.3765H56.7322C56.9051 19.3981 57.0805 19.3836 57.2474 19.3339C57.4144 19.2843 57.5692 19.2006 57.7022 19.0882C57.8352 18.9757 57.9435 18.8369 58.0202 18.6806C58.0969 18.5242 58.1404 18.3536 58.1479 18.1796C58.1479 17.4872 57.6269 17.0398 56.7433 17.0398C56.5662 17.0151 56.386 17.0261 56.2132 17.0722C56.0405 17.1182 55.8787 17.1984 55.7375 17.3081C55.5962 17.4177 55.4784 17.5545 55.3909 17.7104C55.3034 17.8663 55.2481 18.0382 55.2281 18.2159H54.1258C54.1447 17.8934 54.2299 17.5782 54.376 17.29C54.522 17.0018 54.7258 16.7468 54.9747 16.5408C55.2236 16.3348 55.5122 16.1822 55.8226 16.0926C56.133 16.003 56.4585 15.9782 56.7789 16.0199C58.2572 16.0199 59.2982 16.8475 59.2982 18.0389C59.3016 18.438 59.1681 18.8263 58.9198 19.1388C58.6716 19.4514 58.3236 19.6693 57.9341 19.7563V19.8447C58.3959 19.8652 58.8308 20.0677 59.1438 20.408C59.4567 20.7482 59.6222 21.1985 59.6041 21.6604C59.57 21.9925 59.4698 22.3144 59.3096 22.6073C59.1494 22.9001 58.9324 23.1581 58.6712 23.366C58.41 23.5739 58.11 23.7276 57.7886 23.818C57.4673 23.9084 57.1311 23.9338 56.7998 23.8927C56.4679 23.9379 56.1302 23.9159 55.8069 23.8278C55.4836 23.7398 55.1814 23.5876 54.9182 23.3802C54.655 23.1729 54.4363 22.9147 54.275 22.621C54.1138 22.3273 54.0133 22.0042 53.9796 21.6709H55.0991C55.1667 22.3891 55.8266 22.8525 56.7998 22.8525C57.7731 22.8525 58.4084 22.332 58.4084 21.5984C58.4084 20.8543 57.81 20.3959 56.7642 20.3959H55.7282V19.3765Z" fill="black"/>
<path d="M60.876 22.1083C60.876 21.0883 61.6367 20.5003 62.9835 20.4168L64.5184 20.3283V19.8392C64.5184 19.2407 64.1239 18.9028 63.3583 18.9028C62.7341 18.9028 62.3027 19.132 62.1774 19.5326H61.0947C61.209 18.5593 62.1258 17.9351 63.4112 17.9351C64.8317 17.9351 65.633 18.6423 65.633 19.8392V23.7108H64.5552V22.9145H64.4668C64.2872 23.2001 64.035 23.433 63.736 23.5893C63.437 23.7456 63.1018 23.8197 62.7648 23.8041C62.5269 23.8289 62.2865 23.8035 62.059 23.7296C61.8316 23.6558 61.6221 23.535 61.4441 23.3753C61.2662 23.2155 61.1237 23.0202 61.0258 22.802C60.928 22.5838 60.8769 22.3475 60.876 22.1083ZM64.5184 21.6241V21.1504L63.1346 21.2389C62.3543 21.2911 62.0004 21.5565 62.0004 22.0561C62.0004 22.5661 62.4427 22.8628 63.0511 22.8628C63.2293 22.8809 63.4094 22.8629 63.5805 22.8099C63.7517 22.757 63.9104 22.6701 64.0473 22.5545C64.1842 22.439 64.2965 22.297 64.3774 22.1372C64.4583 21.9774 64.5063 21.8029 64.5184 21.6241Z" fill="black"/>
<path d="M68.6007 18.9858V23.7108H67.4824V18.0444H71.2133V18.9857L68.6007 18.9858Z" fill="black"/>
<path d="M77.9905 20.8752C77.9905 22.6755 77.0799 23.8043 75.6495 23.8043C75.2984 23.8282 74.9477 23.7514 74.6388 23.5828C74.3299 23.4142 74.0755 23.1608 73.9058 22.8525H73.8173V25.5947H72.699V18.0445H73.7755V18.981H73.8591C74.0319 18.6619 74.2895 18.3968 74.6035 18.215C74.9176 18.0331 75.2757 17.9416 75.6385 17.9505C77.0799 17.9505 77.9905 19.0743 77.9905 20.8752ZM76.8403 20.8752C76.8403 19.6783 76.2738 18.9551 75.3264 18.9551C74.3851 18.9551 73.7964 19.6937 73.7964 20.8802C73.7964 22.0611 74.385 22.8003 75.3214 22.8003C76.2738 22.8003 76.8403 22.0771 76.8403 20.8752Z" fill="black"/>
<path d="M79.4799 25.7403V24.7774C79.6009 24.7928 79.7229 24.7998 79.8449 24.7983C80.0831 24.816 80.3195 24.745 80.5086 24.5991C80.6978 24.4531 80.8264 24.2425 80.8697 24.0075L80.9533 23.7317L78.9023 18.0444H80.1201L81.5408 22.5452H81.6292L83.0449 18.0444H84.2308L82.1183 23.9449C81.6342 25.3237 81.0984 25.7661 79.9432 25.7661C79.8498 25.7661 79.5844 25.7556 79.4799 25.7403Z" fill="black"/>
<path d="M85.102 22.1026H86.2154C86.3248 22.6021 86.793 22.8626 87.448 22.8626C88.1927 22.8626 88.6498 22.5345 88.6498 22.0245C88.6498 21.4783 88.2394 21.2178 87.448 21.2178H86.6V20.349H87.4332C88.1091 20.349 88.4532 20.0891 88.4532 19.6153C88.4532 19.1994 88.1202 18.8817 87.4332 18.8817C86.8077 18.8817 86.3506 19.1471 86.278 19.5945H85.2004C85.2809 19.0805 85.56 18.6186 85.9776 18.3083C86.3951 17.9979 86.9178 17.8638 87.4332 17.9349C88.7801 17.9349 89.5506 18.5438 89.5506 19.5011C89.5569 19.7676 89.4714 20.0283 89.3086 20.2395C89.1458 20.4506 88.9154 20.5995 88.6559 20.6611V20.7496C88.9648 20.7894 89.2483 20.9413 89.4526 21.1763C89.6569 21.4113 89.7679 21.7132 89.7644 22.0246C89.7644 23.1017 88.8476 23.8144 87.448 23.8144C86.2105 23.8144 85.2053 23.2472 85.102 22.1026Z" fill="black"/>
<path d="M91.3748 23.7108V18.0444H92.4833V21.9418H92.5718L95.1831 18.0444H96.2916V23.7108H95.1831V19.7925H95.0996L92.4833 23.7108L91.3748 23.7108Z" fill="black"/>
<path d="M102.398 18.9857H100.613V23.7107H99.494V18.9857H97.7096V18.0444H102.398V18.9857Z" fill="black"/>
<path d="M108.422 22.1809C108.269 22.6988 107.94 23.1466 107.491 23.4463C107.042 23.7459 106.502 23.8783 105.965 23.8202C105.592 23.8301 105.221 23.7586 104.878 23.6107C104.535 23.4628 104.229 23.2421 103.979 22.9638C103.73 22.6855 103.545 22.3564 103.436 21.9992C103.327 21.6421 103.297 21.2654 103.348 20.8955C103.298 20.5244 103.329 20.147 103.437 19.7888C103.546 19.4306 103.731 19.0999 103.979 18.8192C104.226 18.5385 104.531 18.3143 104.873 18.1618C105.215 18.0092 105.586 17.932 105.96 17.9352C107.537 17.9352 108.489 19.0123 108.489 20.7916V21.1819H104.488V21.2445C104.47 21.4525 104.496 21.6619 104.564 21.8592C104.632 22.0566 104.741 22.2375 104.883 22.3904C105.025 22.5433 105.198 22.6647 105.39 22.747C105.582 22.8292 105.789 22.8704 105.997 22.8678C106.265 22.8998 106.535 22.8515 106.775 22.7292C107.015 22.6069 107.213 22.416 107.344 22.1809L108.422 22.1809ZM104.488 20.3548H107.349C107.363 20.1647 107.337 19.9738 107.273 19.7943C107.209 19.6148 107.108 19.4506 106.977 19.3124C106.846 19.1741 106.687 19.0649 106.511 18.9916C106.335 18.9184 106.146 18.8827 105.955 18.8869C105.762 18.8843 105.57 18.9205 105.391 18.9933C105.211 19.0662 105.049 19.1742 104.912 19.311C104.775 19.4479 104.667 19.6108 104.594 19.79C104.522 19.9693 104.485 20.1614 104.488 20.3548H104.488Z" fill="black"/>
<path d="M113.163 18.0444H115.718C116.826 18.0444 117.476 18.606 117.476 19.4853C117.478 19.7643 117.384 20.0354 117.209 20.2533C117.035 20.4711 116.791 20.6226 116.519 20.6822V20.7707C116.85 20.7916 117.16 20.9388 117.385 21.1819C117.611 21.425 117.734 21.7454 117.73 22.077C117.73 23.0656 116.987 23.7107 115.743 23.7107H113.163V18.0444ZM114.271 18.9028V20.3701H115.38C116.056 20.3701 116.379 20.1102 116.379 19.6309C116.379 19.1891 116.097 18.9028 115.504 18.9028L114.271 18.9028ZM114.271 21.1922V22.8524H115.597C116.258 22.8524 116.612 22.5606 116.612 22.0248C116.612 21.4577 116.212 21.1922 115.457 21.1922L114.271 21.1922Z" fill="black"/>
</svg>
