<svg width="170" height="64" viewBox="0 0 170 64" fill="none" xmlns="http://www.w3.org/2000/svg">
<path d="M36.7553 31.4325C36.7688 30.3833 37.0475 29.3546 37.5654 28.4421C38.0833 27.5295 38.8237 26.7628 39.7175 26.2133C39.1497 25.4023 38.4006 24.7349 37.5297 24.2641C36.6588 23.7933 35.6901 23.532 34.7006 23.5011C32.5897 23.2795 30.5434 24.7642 29.4677 24.7642C28.3712 24.7642 26.7151 23.5231 24.9317 23.5597C23.7782 23.597 22.654 23.9325 21.6687 24.5334C20.6833 25.1343 19.8704 25.9802 19.3092 26.9887C16.8781 31.1978 18.6915 37.3836 21.0203 40.7859C22.1854 42.4519 23.5471 44.3128 25.3289 44.2468C27.0724 44.1745 27.7236 43.135 29.8282 43.135C31.9133 43.135 32.5243 44.2468 34.3422 44.2049C36.2131 44.1745 37.3919 42.5315 38.5161 40.8497C39.3533 39.6626 39.9974 38.3507 40.4248 36.9624C39.3378 36.5026 38.4103 35.7331 37.7577 34.7498C37.1052 33.7664 36.7565 32.6127 36.7553 31.4325Z" fill="black"/>
<path d="M33.3216 21.2635C34.3417 20.0389 34.8442 18.4649 34.7225 16.8757C33.164 17.0394 31.7244 17.7843 30.6905 18.9619C30.185 19.5372 29.7979 20.2065 29.5512 20.9315C29.3045 21.6565 29.2031 22.423 29.2529 23.1872C30.0324 23.1953 30.8036 23.0263 31.5084 22.6931C32.2131 22.3599 32.8331 21.8711 33.3216 21.2635Z" fill="black"/>
<path d="M50.436 24.3947V17.9543H48.0766V16.8943H53.9554V17.9543H51.6009V24.3947H50.436Z" fill="black"/>
<path d="M59.3727 22.8663C59.2209 23.3837 58.8921 23.8311 58.4437 24.1305C57.9953 24.4299 57.456 24.562 56.92 24.5039C56.5471 24.5137 56.1765 24.4423 55.834 24.2946C55.4914 24.1468 55.1851 23.9263 54.9364 23.6484C54.6876 23.3704 54.5023 23.0416 54.3933 22.6848C54.2843 22.3281 54.2543 21.9519 54.3053 21.5823C54.2557 21.2116 54.2862 20.8346 54.3949 20.4768C54.5037 20.1189 54.688 19.7886 54.9354 19.5082C55.1829 19.2278 55.4877 19.0039 55.8293 18.8515C56.1708 18.6991 56.5411 18.6219 56.9151 18.6251C58.4901 18.6251 59.4402 19.7011 59.4402 21.4786V21.8683H55.4433V21.9309C55.4258 22.1386 55.4519 22.3477 55.5199 22.5447C55.5879 22.7418 55.6964 22.9224 55.8383 23.0751C55.9803 23.2278 56.1525 23.3491 56.3441 23.4313C56.5356 23.5135 56.7423 23.5548 56.9507 23.5525C57.2179 23.5845 57.4886 23.5364 57.7284 23.4142C57.9682 23.292 58.1662 23.1013 58.2973 22.8663L59.3727 22.8663ZM55.4432 21.0422H58.3022C58.3163 20.8522 58.2905 20.6614 58.2265 20.482C58.1624 20.3026 58.0615 20.1386 57.9303 20.0005C57.7991 19.8624 57.6405 19.7533 57.4646 19.6802C57.2887 19.607 57.0994 19.5715 56.909 19.5759C56.7158 19.5734 56.524 19.6097 56.3451 19.6826C56.1661 19.7554 56.0035 19.8633 55.8669 20C55.7303 20.1366 55.6225 20.2992 55.5497 20.4782C55.4769 20.6572 55.4407 20.849 55.4433 21.0422H55.4432ZM56.2436 17.7879L57.5485 16H58.8583L57.3975 17.7879H56.2436Z" fill="black"/>
<path d="M60.9918 16.5249H62.1089V24.3948H60.9918V16.5249Z" fill="black"/>
<path d="M68.7291 22.8663C68.5773 23.3837 68.2485 23.8311 67.8001 24.1305C67.3518 24.4299 66.8124 24.562 66.2764 24.5039C65.9035 24.5137 65.5329 24.4423 65.1904 24.2946C64.8479 24.1468 64.5416 23.9263 64.2928 23.6484C64.044 23.3704 63.8587 23.0416 63.7497 22.6848C63.6408 22.3281 63.6107 21.9519 63.6617 21.5823C63.6121 21.2116 63.6426 20.8346 63.7514 20.4768C63.8601 20.1189 64.0444 19.7886 64.2919 19.5082C64.5393 19.2278 64.8442 19.0039 65.1857 18.8515C65.5273 18.6991 65.8976 18.6219 66.2715 18.6251C67.8465 18.6251 68.7966 19.7011 68.7966 21.4786V21.8683H64.7997V21.9309C64.7822 22.1386 64.8083 22.3477 64.8763 22.5447C64.9443 22.7418 65.0528 22.9224 65.1947 23.0751C65.3367 23.2278 65.5089 23.3491 65.7005 23.4313C65.892 23.5135 66.0987 23.5548 66.3071 23.5525C66.5743 23.5845 66.845 23.5364 67.0848 23.4142C67.3246 23.292 67.5226 23.1013 67.6537 22.8663L68.7291 22.8663ZM64.7997 21.0422H67.6586C67.6727 20.8522 67.6469 20.6614 67.5829 20.482C67.5188 20.3026 67.4179 20.1386 67.2867 20.0005C67.1555 19.8624 66.9968 19.7533 66.8209 19.6802C66.6451 19.607 66.4558 19.5715 66.2654 19.5759C66.0722 19.5735 65.8804 19.6097 65.7015 19.6826C65.5225 19.7554 65.3599 19.8633 65.2233 20C65.0867 20.1366 64.9789 20.2993 64.9061 20.4782C64.8333 20.6572 64.7972 20.849 64.7997 21.0422ZM65.6 17.7879L66.9049 16H68.2147L66.754 17.7879H65.6Z" fill="black"/>
<path d="M74.0027 20.5843C73.9315 20.2908 73.7575 20.0325 73.5123 19.8562C73.2671 19.6798 72.9668 19.5972 72.6659 19.6231C71.7305 19.6231 71.1584 20.34 71.1584 21.5461C71.1584 22.773 71.7354 23.5059 72.6659 23.5059C72.9638 23.5404 73.2641 23.4649 73.5103 23.2935C73.7565 23.1222 73.9316 22.8668 74.0027 22.5754H75.0891C75.0173 23.1486 74.7243 23.671 74.2728 24.0312C73.8213 24.3915 73.2468 24.5611 72.672 24.5039C72.2936 24.5158 71.917 24.445 71.5688 24.2962C71.2206 24.1474 70.9091 23.9244 70.6561 23.6427C70.4031 23.361 70.2146 23.0274 70.104 22.6652C69.9934 22.3031 69.9632 21.9211 70.0156 21.5461C69.9658 21.1739 69.9979 20.7952 70.1096 20.4367C70.2213 20.0781 70.41 19.7482 70.6623 19.4701C70.9147 19.1919 71.2247 18.9722 71.5708 18.8263C71.9168 18.6804 72.2906 18.6117 72.6659 18.6251C73.2454 18.5718 73.8229 18.7466 74.2755 19.1125C74.728 19.4784 75.0199 20.0065 75.0891 20.5843L74.0027 20.5843Z" fill="black"/>
<path d="M76.572 16.5249H77.6793V19.6441H77.7676C77.9161 19.3182 78.1615 19.0459 78.4704 18.8645C78.7792 18.683 79.1365 18.6012 79.4935 18.6302C79.7675 18.6153 80.0414 18.661 80.2957 18.7641C80.5499 18.8673 80.7783 19.0252 80.9645 19.2268C81.1507 19.4283 81.2901 19.6685 81.3728 19.9301C81.4555 20.1917 81.4794 20.4684 81.4429 20.7403V24.3948H80.3246V21.0159C80.3246 20.1118 79.9035 19.6539 79.1142 19.6539C78.9222 19.6382 78.7291 19.6646 78.5484 19.7313C78.3676 19.798 78.2036 19.9033 78.0679 20.04C77.9321 20.1767 77.8279 20.3414 77.7625 20.5226C77.697 20.7038 77.6719 20.8971 77.689 21.089V24.3948H76.5719L76.572 16.5249Z" fill="black"/>
<path d="M82.8473 22.794C82.8473 21.7751 83.6059 21.1878 84.9525 21.1043L86.4857 21.0159V20.5273C86.4857 19.9295 86.0905 19.5919 85.3269 19.5919C84.7033 19.5919 84.2712 19.8209 84.1472 20.2211H83.0658C83.1799 19.2488 84.0945 18.6252 85.3785 18.6252C86.7975 18.6252 87.5973 19.3317 87.5973 20.5273V24.3948H86.5225V23.5993H86.4342C86.2548 23.8846 86.0029 24.1173 85.7042 24.2734C85.4055 24.4295 85.0707 24.5036 84.734 24.488C84.4964 24.5127 84.2563 24.4874 84.029 24.4136C83.8018 24.3398 83.5926 24.2192 83.4148 24.0596C83.237 23.9 83.0947 23.705 82.9969 23.487C82.8992 23.269 82.8482 23.0329 82.8473 22.794ZM86.4857 22.3104V21.8372L85.1035 21.9255C84.324 21.9777 83.9705 22.2429 83.9705 22.7419C83.9705 23.2513 84.4124 23.5477 85.0201 23.5477C85.1981 23.5658 85.378 23.5478 85.549 23.4949C85.7199 23.442 85.8785 23.3552 86.0152 23.2398C86.152 23.1243 86.2641 22.9826 86.3449 22.8229C86.4258 22.6632 86.4737 22.4889 86.4858 22.3104L86.4857 22.3104Z" fill="black"/>
<path d="M89.3466 18.7346H90.4219V19.6025H90.5054C90.6258 19.3012 90.8385 19.0458 91.1131 18.873C91.3877 18.7002 91.71 18.6189 92.0337 18.6407C92.201 18.6384 92.3681 18.6541 92.5321 18.6873V19.7897C92.3271 19.7459 92.1181 19.7233 91.9085 19.7222C91.7242 19.7057 91.5386 19.7279 91.3634 19.7873C91.1883 19.8468 91.0275 19.9423 90.8914 20.0676C90.7553 20.1929 90.647 20.3453 90.5733 20.515C90.4997 20.6847 90.4623 20.8679 90.4637 21.0529V24.3949H89.3466L89.3466 18.7346Z" fill="black"/>
<path d="M93.5596 24.961H94.7024C94.7969 25.3717 95.2695 25.6368 96.0233 25.6368C96.9538 25.6368 97.5049 25.1949 97.5049 24.4467V23.3603H97.4215C97.2462 23.6644 96.9903 23.9142 96.6821 24.0819C96.3738 24.2497 96.0251 24.329 95.6746 24.3111C94.2298 24.3111 93.3361 23.194 93.3361 21.4993C93.3361 19.7734 94.2396 18.6403 95.6857 18.6403C96.045 18.6278 96.4008 18.7143 96.7143 18.8903C97.0277 19.0663 97.2868 19.3251 97.4632 19.6384H97.5516V18.7343H98.622V24.4411C98.622 25.7356 97.608 26.5568 96.0073 26.5568C94.5932 26.5569 93.6786 25.9228 93.5596 24.961ZM97.5258 21.4938C97.5258 20.3663 96.9427 19.6439 95.9914 19.6439C95.0302 19.6439 94.49 20.3663 94.49 21.4938C94.49 22.6219 95.0302 23.3444 95.9914 23.3444C96.9489 23.3444 97.5258 22.6275 97.5258 21.4938V21.4938Z" fill="black"/>
<path d="M105.188 22.8666C105.036 23.3839 104.708 23.8314 104.259 24.1307C103.811 24.4301 103.272 24.5623 102.736 24.5041C102.363 24.514 101.992 24.4425 101.65 24.2948C101.307 24.1471 101.001 23.9266 100.752 23.6486C100.503 23.3706 100.318 23.0418 100.209 22.6851C100.1 22.3283 100.07 21.9521 100.121 21.5825C100.071 21.2119 100.102 20.8348 100.21 20.477C100.319 20.1192 100.504 19.7889 100.751 19.5084C100.998 19.228 101.303 19.0041 101.645 18.8517C101.986 18.6993 102.357 18.6222 102.731 18.6253C104.306 18.6253 105.256 19.7013 105.256 21.4788V21.8685H101.259V21.9311C101.241 22.1388 101.267 22.3479 101.335 22.545C101.403 22.742 101.512 22.9226 101.654 23.0753C101.796 23.228 101.968 23.3493 102.16 23.4315C102.351 23.5137 102.558 23.555 102.766 23.5527C103.033 23.5848 103.304 23.5366 103.544 23.4145C103.784 23.2923 103.982 23.1015 104.113 22.8665L105.188 22.8666ZM101.259 21.0424H104.118C104.132 20.8524 104.106 20.6616 104.042 20.4822C103.978 20.3028 103.877 20.1388 103.746 20.0007C103.615 19.8626 103.456 19.7535 103.28 19.6804C103.104 19.6073 102.915 19.5717 102.724 19.5761C102.531 19.5737 102.34 19.6099 102.161 19.6828C101.982 19.7556 101.819 19.8636 101.682 20.0002C101.546 20.1369 101.438 20.2995 101.365 20.4785C101.292 20.6575 101.256 20.8492 101.259 21.0424H101.259Z" fill="black"/>
<path d="M106.756 18.7346H107.831V19.6025H107.915C108.035 19.3012 108.248 19.0458 108.522 18.873C108.797 18.7002 109.119 18.6189 109.443 18.6407C109.61 18.6384 109.777 18.6541 109.941 18.6873V19.7897C109.736 19.7459 109.527 19.7233 109.318 19.7222C109.134 19.7057 108.948 19.7278 108.773 19.7873C108.598 19.8468 108.437 19.9422 108.301 20.0676C108.165 20.1929 108.056 20.3453 107.983 20.515C107.909 20.6847 107.872 20.8679 107.873 21.0529V24.3949H106.756V18.7346Z" fill="black"/>
<path d="M113.966 21.5622C113.966 19.7736 114.886 18.6406 116.316 18.6406C116.67 18.6243 117.021 18.709 117.328 18.8849C117.636 19.0607 117.887 19.3204 118.052 19.6336H118.135V16.5249H119.252V24.3948H118.182V23.5005H118.094C117.916 23.8116 117.656 24.0681 117.342 24.2421C117.029 24.4162 116.674 24.5013 116.316 24.4881C114.876 24.4881 113.966 23.355 113.966 21.5622ZM115.12 21.5622C115.12 22.7627 115.686 23.4852 116.633 23.4852C117.574 23.4852 118.156 22.7523 118.156 21.5671C118.156 20.3874 117.568 19.6441 116.633 19.6441C115.692 19.6441 115.12 20.3715 115.12 21.5622H115.12Z" fill="black"/>
<path d="M120.762 22.794C120.762 21.7751 121.521 21.1878 122.868 21.1043L124.401 21.0159V20.5273C124.401 19.9295 124.005 19.5919 123.242 19.5919C122.618 19.5919 122.186 19.8209 122.062 20.2211H120.981C121.095 19.2488 122.009 18.6252 123.293 18.6252C124.713 18.6252 125.513 19.3317 125.513 20.5273V24.3948H124.438V23.5993H124.349C124.17 23.8846 123.918 24.1173 123.619 24.2734C123.32 24.4295 122.986 24.5036 122.649 24.488C122.411 24.5127 122.171 24.4874 121.944 24.4136C121.717 24.3398 121.508 24.2192 121.33 24.0596C121.152 23.9 121.01 23.7049 120.912 23.487C120.814 23.269 120.763 23.0329 120.762 22.794ZM124.401 22.3104V21.8372L123.019 21.9255C122.239 21.9777 121.885 22.2428 121.885 22.7418C121.885 23.2513 122.327 23.5477 122.935 23.5477C123.113 23.5658 123.293 23.5478 123.464 23.4949C123.635 23.442 123.793 23.3552 123.93 23.2398C124.067 23.1243 124.179 22.9825 124.26 22.8229C124.341 22.6632 124.389 22.4889 124.401 22.3104V22.3104Z" fill="black"/>
<path d="M127.262 18.7345H128.338V19.6336H128.421C128.563 19.3107 128.802 19.04 129.104 18.8592C129.407 18.6784 129.759 18.5966 130.11 18.6252C130.386 18.6045 130.662 18.646 130.919 18.7467C131.177 18.8474 131.408 19.0046 131.596 19.2068C131.784 19.409 131.924 19.6509 132.006 19.9147C132.088 20.1784 132.11 20.4572 132.069 20.7305V24.3947H130.952V21.011C130.952 20.1014 130.557 19.649 129.731 19.649C129.544 19.6403 129.357 19.6721 129.184 19.7423C129.01 19.8125 128.854 19.9193 128.725 20.0556C128.597 20.1918 128.5 20.3542 128.44 20.5316C128.38 20.709 128.36 20.8972 128.379 21.0834V24.3947H127.262V18.7345Z" fill="black"/>
<path d="M135.866 18.6252C137.139 18.6252 137.971 19.2175 138.081 20.2155H137.009C136.906 19.8 136.5 19.5349 135.866 19.5349C135.243 19.5349 134.769 19.8307 134.769 20.2726C134.769 20.6108 135.055 20.8238 135.669 20.9644L136.609 21.1822C137.685 21.4321 138.19 21.8948 138.19 22.7265C138.19 23.792 137.197 24.504 135.845 24.504C134.499 24.504 133.621 23.8958 133.522 22.8929H134.64C134.736 23.1316 134.91 23.331 135.133 23.4591C135.357 23.5872 135.616 23.6366 135.871 23.5993C136.567 23.5993 137.062 23.2876 137.062 22.8351C137.062 22.4976 136.797 22.2791 136.23 22.144L135.243 21.9151C134.166 21.6604 133.668 21.1773 133.668 20.3352C133.668 19.3317 134.587 18.6252 135.866 18.6252Z" fill="black"/>
<path d="M49.8615 28.6248H52.1988V44.235H49.8615V28.6248Z" fill="black"/>
<path d="M55.0148 34.3366L56.2915 28.6248H58.5625L57.0158 34.3366H55.0148Z" fill="black"/>
<path d="M67.3948 40.0159H61.4448L60.0159 44.235H57.4957L63.1315 28.6248H65.7498L71.3855 44.235H68.8224L67.3948 40.0159ZM62.061 38.069H66.7774L64.4524 31.221H64.3873L62.061 38.069Z" fill="black"/>
<path d="M83.5556 38.5455C83.5556 42.0821 81.6627 44.3543 78.8061 44.3543C78.0825 44.3921 77.3629 44.2254 76.7296 43.8733C76.0963 43.5211 75.575 42.9978 75.2254 42.3631H75.1713V48.0001H72.8353V32.8539H75.0964V34.7467H75.1394C75.5051 34.1151 76.0352 33.5945 76.6733 33.2402C77.3114 32.8859 78.0337 32.7112 78.7631 32.7348C81.6516 32.7348 83.5556 35.018 83.5556 38.5455ZM81.1544 38.5455C81.1544 36.2407 79.9637 34.7259 78.1469 34.7259C76.3621 34.7259 75.1615 36.2726 75.1615 38.5455C75.1615 40.8385 76.3621 42.3742 78.1469 42.3742C79.9637 42.3742 81.1544 40.8704 81.1544 38.5455Z" fill="black"/>
<path d="M96.081 38.5455C96.081 42.0821 94.1881 44.3543 91.3315 44.3543C90.6079 44.3921 89.8883 44.2254 89.255 43.8733C88.6217 43.5211 88.1004 42.9978 87.7508 42.3631H87.6967V48.0001H85.3613V32.8539H87.6218V34.7467H87.6648C88.0306 34.1151 88.5607 33.5945 89.1988 33.2402C89.8369 32.8859 90.5591 32.7112 91.2886 32.7348C94.177 32.7348 96.081 35.018 96.081 38.5455ZM93.6798 38.5455C93.6798 36.2407 92.4891 34.7259 90.6723 34.7259C88.8875 34.7259 87.6869 36.2726 87.6869 38.5455C87.6869 40.8385 88.8875 42.3742 90.6723 42.3742C92.4891 42.3742 93.6798 40.8704 93.6798 38.5455Z" fill="black"/>
<path d="M104.36 39.8858C104.533 41.4337 106.036 42.4501 108.091 42.4501C110.06 42.4501 111.477 41.4337 111.477 40.0379C111.477 38.8263 110.623 38.1009 108.6 37.6037L106.577 37.1157C103.71 36.4234 102.38 35.0829 102.38 32.9077C102.38 30.2144 104.727 28.3645 108.059 28.3645C111.358 28.3645 113.619 30.2144 113.695 32.9077H111.337C111.196 31.3499 109.908 30.4096 108.026 30.4096C106.144 30.4096 104.857 31.361 104.857 32.7457C104.857 33.8492 105.679 34.4986 107.691 34.9957L109.411 35.418C112.614 36.1754 113.944 37.4625 113.944 39.7458C113.944 42.6661 111.618 44.4952 107.918 44.4952C104.457 44.4952 102.119 42.7091 101.968 39.8857L104.36 39.8858Z" fill="black"/>
<path d="M118.987 30.1604V32.8537H121.151V34.7036H118.987V40.9783C118.987 41.9529 119.421 42.4071 120.372 42.4071C120.629 42.4027 120.885 42.3846 121.14 42.3531V44.192C120.713 44.2719 120.278 44.3081 119.843 44.3C117.539 44.3 116.64 43.4346 116.64 41.2274V34.7036H114.985V32.8537H116.64V30.1604H118.987Z" fill="black"/>
<path d="M122.404 38.5454C122.404 34.964 124.512 32.7139 127.801 32.7139C131.101 32.7139 133.2 34.9639 133.2 38.5454C133.2 42.136 131.112 44.3763 127.801 44.3763C124.492 44.3763 122.404 42.136 122.404 38.5454ZM130.82 38.5454C130.82 36.0884 129.694 34.6387 127.801 34.6387C125.908 34.6387 124.784 36.0995 124.784 38.5454C124.784 41.0115 125.908 42.4503 127.801 42.4503C129.694 42.4503 130.82 41.0115 130.82 38.5454H130.82Z" fill="black"/>
<path d="M135.126 32.854H137.354V34.791H137.408C137.559 34.1861 137.913 33.6514 138.412 33.277C138.91 32.9025 139.522 32.7111 140.145 32.7349C140.415 32.7339 140.683 32.7632 140.946 32.822V35.0071C140.606 34.9032 140.251 34.8555 139.896 34.8659C139.557 34.8522 139.218 34.912 138.904 35.0414C138.59 35.1708 138.308 35.3666 138.077 35.6154C137.845 35.8642 137.671 36.1602 137.565 36.4829C137.458 36.8056 137.423 37.1474 137.462 37.4849V44.2352H135.126L135.126 32.854Z" fill="black"/>
<path d="M151.715 40.8925C151.401 42.9585 149.389 44.3763 146.815 44.3763C143.504 44.3763 141.449 42.1581 141.449 38.5994C141.449 35.029 143.515 32.7139 146.717 32.7139C149.865 32.7139 151.845 34.8768 151.845 38.3281V39.1285H143.807V39.2696C143.77 39.6885 143.823 40.1104 143.961 40.5074C144.1 40.9045 144.321 41.2675 144.61 41.5723C144.9 41.8772 145.251 42.117 145.641 42.2758C146.03 42.4346 146.449 42.5087 146.869 42.4932C147.421 42.5449 147.975 42.4171 148.448 42.1287C148.922 41.8403 149.29 41.4067 149.497 40.8925L151.715 40.8925ZM143.818 37.4958H149.508C149.529 37.1192 149.472 36.7422 149.34 36.3887C149.209 36.0351 149.006 35.7126 148.744 35.4413C148.481 35.17 148.166 34.9559 147.817 34.8122C147.468 34.6686 147.094 34.5987 146.717 34.6067C146.336 34.6045 145.959 34.6776 145.607 34.8219C145.255 34.9662 144.935 35.1787 144.665 35.4474C144.396 35.716 144.182 36.0353 144.037 36.3868C143.892 36.7384 143.817 37.1153 143.818 37.4958Z" fill="black"/>
</svg>
