<svg width="170" height="64" viewBox="0 0 170 64" fill="none" xmlns="http://www.w3.org/2000/svg">
<path d="M66.4728 27.1606H60.7731L59.4043 31.2023H56.9902L62.3888 16.2493H64.8971L70.2957 31.2022H67.8404L66.4728 27.1606ZM61.3634 25.2956H65.8813L63.6541 18.7363H63.5918L61.3634 25.2956Z" fill="black"/>
<path d="M81.9549 25.7519C81.9549 29.1397 80.1417 31.3163 77.4053 31.3163C76.7121 31.3526 76.0228 31.1929 75.4161 30.8556C74.8095 30.5182 74.3101 30.0169 73.9752 29.409H73.9234V34.8088H71.6856V20.3003H73.8517V22.1136H73.8928C74.2432 21.5086 74.751 21.0099 75.3623 20.6705C75.9735 20.3311 76.6654 20.1638 77.3642 20.1863C80.1311 20.1863 81.9549 22.3735 81.9549 25.7519ZM79.6548 25.7519C79.6548 23.5446 78.5142 22.0936 76.7738 22.0936C75.0641 22.0936 73.914 23.5753 73.914 25.7519C73.914 27.9485 75.0641 29.4195 76.7738 29.4195C78.5142 29.4195 79.6548 27.979 79.6548 25.7519H79.6548Z" fill="black"/>
<path d="M93.9545 25.7519C93.9545 29.1397 92.1407 31.3163 89.4043 31.3163C88.7112 31.3526 88.0218 31.1929 87.4152 30.8556C86.8085 30.5182 86.3091 30.0169 85.9742 29.409H85.9224V34.8088H83.6847V20.3003H85.8507V22.1136H85.8919C86.2422 21.5086 86.7501 21.0099 87.3613 20.6705C87.9726 20.3311 88.6644 20.1638 89.3632 20.1863C92.1301 20.1863 93.9545 22.3735 93.9545 25.7519ZM91.6539 25.7519C91.6539 23.5446 90.5132 22.0936 88.7728 22.0936C87.0631 22.0936 85.913 23.5753 85.913 25.7519C85.913 27.9485 87.0631 29.4195 88.7728 29.4195C90.5132 29.4195 91.6539 27.979 91.6539 25.7519H91.6539Z" fill="black"/>
<path d="M101.884 27.036C102.05 28.5188 103.49 29.4925 105.459 29.4925C107.345 29.4925 108.702 28.5188 108.702 27.1818C108.702 26.0212 107.883 25.3263 105.945 24.8499L104.007 24.3831C101.262 23.7199 99.987 22.4358 99.987 20.3521C99.987 17.772 102.235 16 105.427 16C108.588 16 110.754 17.7721 110.827 20.3521H108.568C108.432 18.8598 107.199 17.9591 105.396 17.9591C103.594 17.9591 102.36 18.8705 102.36 20.1969C102.36 21.2541 103.148 21.8761 105.075 22.3524L106.723 22.7569C109.791 23.4824 111.064 24.7148 111.064 26.902C111.064 29.6995 108.837 31.4516 105.293 31.4516C101.977 31.4516 99.7377 29.7406 99.593 27.036L101.884 27.036Z" fill="black"/>
<path d="M115.896 17.7206V20.3006H117.969V22.0727H115.896V28.0828C115.896 29.0165 116.311 29.4516 117.222 29.4516C117.469 29.4473 117.714 29.43 117.959 29.3998V31.1614C117.549 31.2379 117.132 31.2726 116.716 31.2648C114.508 31.2648 113.648 30.4358 113.648 28.3215V22.0726H112.062V20.3005H113.648V17.7205L115.896 17.7206Z" fill="black"/>
<path d="M119.169 25.7521C119.169 22.322 121.189 20.1665 124.339 20.1665C127.5 20.1665 129.511 22.322 129.511 25.7521C129.511 29.1917 127.511 31.3377 124.339 31.3377C121.169 31.3377 119.169 29.1917 119.169 25.7521ZM127.231 25.7521C127.231 23.3991 126.152 22.0103 124.339 22.0103C122.526 22.0103 121.447 23.4097 121.447 25.7521C121.447 28.1145 122.526 29.4927 124.339 29.4927C126.152 29.4927 127.231 28.1145 127.231 25.7521Z" fill="black"/>
<path d="M131.356 20.3003H133.49V22.1559H133.542C133.686 21.5764 134.026 21.0642 134.503 20.7055C134.981 20.3468 135.567 20.1634 136.164 20.1862C136.422 20.1853 136.679 20.2133 136.931 20.2697V22.3628C136.605 22.2634 136.266 22.2177 135.925 22.2276C135.6 22.2144 135.276 22.2717 134.975 22.3956C134.674 22.5195 134.404 22.7071 134.182 22.9453C133.961 23.1836 133.793 23.4671 133.692 23.7761C133.59 24.0852 133.557 24.4126 133.593 24.7359V31.2023H131.356V20.3003Z" fill="black"/>
<path d="M147.248 28.0005C147.002 29.0307 146.391 29.9367 145.528 30.5505C144.664 31.1642 143.608 31.4439 142.554 31.3377C139.383 31.3377 137.414 29.2128 137.414 25.8038C137.414 22.3843 139.393 20.1665 142.46 20.1665C145.476 20.1665 147.373 22.2385 147.373 25.544V26.3107H139.673V26.4459C139.637 26.8471 139.688 27.2513 139.82 27.6316C139.953 28.0119 140.165 28.3597 140.443 28.6517C140.72 28.9438 141.056 29.1735 141.429 29.3256C141.802 29.4777 142.203 29.5487 142.606 29.5339C143.135 29.5834 143.665 29.4609 144.119 29.1847C144.572 28.9084 144.925 28.4931 145.123 28.0005L147.248 28.0005ZM139.684 24.7467H145.134C145.154 24.3859 145.099 24.0249 144.973 23.6863C144.847 23.3477 144.653 23.0388 144.402 22.779C144.15 22.5192 143.848 22.314 143.514 22.1765C143.18 22.039 142.821 21.972 142.46 21.9798C142.096 21.9776 141.734 22.0476 141.397 22.1858C141.06 22.3239 140.753 22.5275 140.495 22.7848C140.237 23.042 140.033 23.3478 139.893 23.6846C139.754 24.0213 139.683 24.3823 139.684 24.7467Z" fill="black"/>
<path d="M56.9929 37.6909H67.4895V38.7886H62.4998V40.341C63.2149 40.6721 63.9345 41.037 64.6588 41.4359C65.3828 41.8343 66.1152 42.262 66.8561 42.7191L66.2098 43.7274C65.4473 43.2411 64.7622 42.8125 64.1546 42.4415C63.5467 42.0706 62.9951 41.7624 62.4998 41.517V48H61.3877V38.7886H56.9929L56.9929 37.6909Z" fill="black"/>
<path d="M70.3958 38.0208H72.5932V37.1347H73.6792V38.0208H75.7152V39.0292H73.6792V39.8878H76.2454C76.2283 39.466 76.2111 39.0255 76.1939 38.5662C76.1761 38.1073 76.1674 37.626 76.1678 37.1223H77.247C77.247 37.6347 77.2545 38.1183 77.2696 38.5731C77.2847 39.0278 77.301 39.466 77.3184 39.8878H80.1752V40.9099H77.3699C77.4042 41.3839 77.4484 41.8166 77.5025 42.2081C77.5561 42.6011 77.6048 42.9514 77.6481 43.2618C77.6812 43.3648 77.7072 43.4699 77.7257 43.5764C77.7429 43.6767 77.7601 43.7797 77.7772 43.8828C77.9596 43.4892 78.1192 43.0856 78.2553 42.6738C78.3975 42.2479 78.5269 41.7914 78.6434 41.3041L79.6326 41.7561C79.3358 43.0263 78.859 44.2476 78.2169 45.383C78.2512 45.4682 78.289 45.556 78.3302 45.644C78.3707 45.7319 78.4126 45.8171 78.4559 45.8995C78.7273 46.4381 78.9427 46.7073 79.1023 46.7073C79.2102 46.7073 79.3352 46.1409 79.4773 45.008L80.4273 45.5121C80.156 47.0852 79.7553 47.8714 79.2253 47.871C78.8241 47.871 78.3694 47.5174 77.8611 46.8104C77.7571 46.6511 77.6686 46.4823 77.5966 46.3062C77.0474 46.9858 76.3791 47.5598 75.6245 48.0001L75.0111 47.1154C75.8612 46.6407 76.5805 45.9629 77.1048 45.1426C77.0272 44.8884 76.9486 44.6269 76.8692 44.3581C76.7895 44.0889 76.7215 43.8077 76.6652 43.5146C76.4782 42.6567 76.3551 41.786 76.297 40.9099H69.7817V39.8878H72.5932V39.0291H70.3958L70.3958 38.0208ZM75.7151 45.46V46.4299C75.4308 46.4643 75.1432 46.4963 74.8524 46.5261C74.5618 46.5563 74.2672 46.5893 73.9703 46.6236V47.9617H72.8843V46.7596C72.4749 46.794 72.0589 46.826 71.6362 46.8558C71.2145 46.886 70.7851 46.9259 70.3503 46.9726L70.2081 45.9257C70.6862 45.9079 71.1451 45.8832 71.5847 45.8516C72.0243 45.8186 72.4575 45.7893 72.8843 45.7636V44.8912H70.7255L70.4988 44.0051C70.8008 43.6166 71.0629 43.1987 71.2812 42.7577H70.1437V41.7685H71.7139C71.7696 41.6466 71.8151 41.5202 71.8499 41.3907C71.8843 41.2644 71.9273 41.1297 71.9791 40.9868L73.039 41.1751C72.9964 41.2946 72.962 41.4017 72.936 41.4952C72.9091 41.5899 72.8722 41.6816 72.8261 41.7686H75.7667V42.7577H72.4318C72.3157 42.9912 72.1982 43.2069 72.0794 43.4048C71.9605 43.6027 71.8495 43.7946 71.7462 43.9804H72.8844V43.1973H73.9704V43.9804H75.6506V44.8912H73.9704V45.6468C74.2672 45.6221 74.5618 45.5918 74.8525 45.5602C75.143 45.5273 75.4305 45.4938 75.7151 45.46ZM77.6089 37.7803L78.4298 37.2253C78.9249 37.7756 79.3848 38.3565 79.807 38.9646L78.9731 39.5581C78.8048 39.2915 78.6077 39.0085 78.3817 38.709C78.155 38.4096 77.8974 38.1 77.6089 37.7804L77.6089 37.7803Z" fill="black"/>
<path d="M43.7767 32.2434C43.7921 31.111 44.1089 30.0008 44.6978 29.0159C45.2868 28.031 46.1285 27.2036 47.1449 26.6105C46.4992 25.7352 45.6475 25.0149 44.6572 24.5068C43.667 23.9987 42.5655 23.7167 41.4404 23.6833C39.0403 23.4441 36.7135 25.0465 35.4904 25.0465C34.2437 25.0465 32.3606 23.707 30.3328 23.7466C29.0212 23.7868 27.743 24.1489 26.6226 24.7974C25.5022 25.446 24.5779 26.3589 23.9398 27.4474C21.1755 31.99 23.2374 38.6661 25.8853 42.3381C27.2101 44.1361 28.7584 46.1445 30.7844 46.0733C32.7669 45.9953 33.5073 44.8734 35.9004 44.8734C38.2712 44.8734 38.9659 46.0733 41.0329 46.028C43.1602 45.9953 44.5005 44.222 45.7789 42.4069C46.7307 41.1258 47.4632 39.7098 47.9491 38.2115C46.7132 37.7153 45.6585 36.8848 44.9165 35.8235C44.1746 34.7622 43.7781 33.5171 43.7767 32.2434Z" fill="black"/>
<path d="M39.8724 21.2685C41.0323 19.9468 41.6038 18.2481 41.4654 16.533C39.6933 16.7096 38.0564 17.5135 36.8809 18.7845C36.3061 19.4054 35.8659 20.1277 35.5854 20.9102C35.3049 21.6926 35.1896 22.5199 35.2462 23.3447C36.1325 23.3534 37.0094 23.171 37.8107 22.8114C38.6121 22.4517 39.317 21.9242 39.8724 21.2685Z" fill="black"/>
</svg>
