<svg width="171" height="64" viewBox="0 0 171 64" fill="none" xmlns="http://www.w3.org/2000/svg">
<path d="M128.125 42.6913H130.15V29.4772H128.125V42.6913ZM146.364 34.2372L144.043 39.9662H143.974L141.565 34.2372H139.383L142.996 42.2445L140.936 46.6985H143.049L148.616 34.2372H146.364ZM134.881 41.1905C134.217 41.1905 133.292 40.8676 133.292 40.0682C133.292 39.0483 134.444 38.6573 135.438 38.6573C136.329 38.6573 136.747 38.8443 137.289 39.0996C137.131 40.3234 136.049 41.1905 134.881 41.1905ZM135.125 33.9482C133.659 33.9482 132.141 34.5774 131.512 35.9714L133.309 36.7022C133.693 35.9714 134.409 35.7332 135.16 35.7332C136.207 35.7332 137.271 36.3455 137.289 37.4335V37.5693C136.922 37.3653 136.137 37.0594 135.177 37.0594C133.24 37.0594 131.267 38.0961 131.267 40.0343C131.267 41.8024 132.856 42.9415 134.635 42.9415C135.997 42.9415 136.747 42.3465 137.219 41.6496H137.289V42.6695H139.243V37.6031C139.243 35.2575 137.446 33.9482 135.125 33.9482ZM122.61 35.8458H119.73V31.3164H122.61C124.124 31.3164 124.984 32.5372 124.984 33.581C124.984 34.6051 124.124 35.8458 122.61 35.8458ZM122.558 29.4772H117.706V42.6913H119.73V37.685H122.558C124.802 37.685 127.009 36.1023 127.009 33.581C127.009 31.0599 124.802 29.4772 122.558 29.4772ZM96.0996 41.1929C94.7007 41.1929 93.5294 40.0521 93.5294 38.4851C93.5294 36.9017 94.7007 35.7435 96.0996 35.7435C97.4808 35.7435 98.5647 36.9017 98.5647 38.4851C98.5647 40.0521 97.4808 41.1929 96.0996 41.1929ZM98.4248 34.9772H98.3548C97.9004 34.4494 97.0259 33.9726 95.9246 33.9726C93.6168 33.9726 91.5015 35.9478 91.5015 38.4851C91.5015 41.0055 93.6168 42.9639 95.9246 42.9639C97.0259 42.9639 97.9004 42.4869 98.3548 41.9423H98.4248V42.5893C98.4248 44.3096 97.4808 45.2291 95.9597 45.2291C94.7185 45.2291 93.9492 44.3603 93.6341 43.6282L91.8686 44.3434C92.3756 45.5354 93.7219 47 95.9597 47C98.3374 47 100.348 45.6374 100.348 42.3168V34.2451H98.4248V34.9772ZM101.747 42.6913H103.775V29.4768H101.747V42.6913ZM106.764 38.332C106.712 36.5948 108.145 35.7096 109.177 35.7096C109.982 35.7096 110.663 36.101 110.89 36.6634L106.764 38.332ZM113.058 36.8335C112.674 35.8285 111.502 33.9726 109.107 33.9726C106.729 33.9726 104.754 35.7947 104.754 38.4682C104.754 40.9886 106.712 42.9639 109.334 42.9639C111.45 42.9639 112.674 41.7037 113.181 40.9716L111.607 39.9496C111.083 40.6991 110.366 41.1929 109.334 41.1929C108.303 41.1929 107.569 40.733 107.096 39.8307L113.268 37.3443L113.058 36.8335ZM63.8893 35.352V37.2592H68.5747C68.4348 38.332 68.0677 39.1152 67.5081 39.6602C66.8265 40.3246 65.76 41.0567 63.8893 41.0567C61.0045 41.0567 58.7493 38.7919 58.7493 35.9821C58.7493 33.1723 61.0045 30.9072 63.8893 30.9072C65.4454 30.9072 66.5815 31.5034 67.4208 32.2697L68.8019 30.9245C67.6307 29.8344 66.0745 29 63.8893 29C59.9379 29 56.6162 32.1335 56.6162 35.9821C56.6162 39.8307 59.9379 42.9639 63.8893 42.9639C66.0224 42.9639 67.6307 42.283 68.8893 41.0055C70.1831 39.7453 70.5854 37.9744 70.5854 36.5441C70.5854 36.101 70.5505 35.6927 70.4802 35.352H63.8893ZM75.9122 41.1929C74.5133 41.1929 73.3069 40.069 73.3069 38.4682C73.3069 36.8504 74.5133 35.7435 75.9122 35.7435C77.3106 35.7435 78.5171 36.8504 78.5171 38.4682C78.5171 40.069 77.3106 41.1929 75.9122 41.1929ZM75.9122 33.9726C73.3594 33.9726 71.2788 35.8627 71.2788 38.4682C71.2788 41.0567 73.3594 42.9639 75.9122 42.9639C78.4645 42.9639 80.5451 41.0567 80.5451 38.4682C80.5451 35.8627 78.4645 33.9726 75.9122 33.9726ZM86.019 41.1929C84.6206 41.1929 83.4141 40.069 83.4141 38.4682C83.4141 36.8504 84.6206 35.7435 86.019 35.7435C87.4175 35.7435 88.6239 36.8504 88.6239 38.4682C88.6239 40.069 87.4175 41.1929 86.019 41.1929ZM86.019 33.9726C83.4663 33.9726 81.3861 35.8627 81.3861 38.4682C81.3861 41.0567 83.4663 42.9639 86.019 42.9639C88.5714 42.9639 90.652 41.0567 90.652 38.4682C90.652 35.8627 88.5714 33.9726 86.019 33.9726Z" fill="black"/>
<path d="M20.6162 18V46L34.6162 32L20.6162 18Z" fill="url(#paint0_linear)"/>
<path d="M20.6162 18V46L34.6162 32L20.6162 18Z" fill="url(#paint1_linear)"/>
<path d="M45.1007 31.0452L39.8162 28L35.6162 32L39.8162 36L45.1007 32.7484C45.41 32.5935 45.6162 32.2323 45.6162 31.871C45.6162 31.5097 45.41 31.2 45.1007 31.0452Z" fill="url(#paint2_linear)"/>
<path d="M45.1007 31.0452L39.8162 28L35.6162 32L39.8162 36L45.1007 32.7484C45.41 32.5935 45.6162 32.2323 45.6162 31.871C45.6162 31.5097 45.41 31.2 45.1007 31.0452Z" fill="url(#paint3_linear)"/>
<path d="M21.6162 46L39.2162 36.45L35.1162 32.5L21.6162 46Z" fill="url(#paint4_linear)"/>
<path d="M21.6162 46L39.2162 36.45L35.1162 32.5L21.6162 46Z" fill="url(#paint5_linear)"/>
<path d="M39.2162 27.55L33.6662 24.3L21.6162 18L35.1162 31.5L39.2162 27.55Z" fill="url(#paint6_linear)"/>
<path d="M39.2162 27.55L33.6662 24.3L21.6162 18L35.1162 31.5L39.2162 27.55Z" fill="url(#paint7_linear)"/>
<path fill-rule="evenodd" clip-rule="evenodd" d="M60.1459 20.365V18.1268H62.6147V22.6756H59.6129C59.9704 22.0845 60.1468 21.3412 60.1468 20.4525L60.1459 20.365ZM58.3234 22.6756H57.7253H57.6162V25H58.529H58.6381V24.8948V23.661H63.3824V24.8948V25H64.2956H64.4047V22.6756H63.6741V17.1414H59.0879V20.3667V20.3671L59.0883 20.4352C59.0879 21.5026 58.8247 22.2411 58.3234 22.6756ZM66.7532 22.1385L66.7534 22.1383C66.2907 21.6843 66.0594 21.1133 66.0582 20.4011C66.0594 19.6889 66.2907 19.1179 66.7534 18.664H66.7529C67.2198 18.2101 67.7773 17.9875 68.453 17.9863C69.128 17.9875 69.6869 18.2101 70.1524 18.664C70.6163 19.1179 70.8472 19.6889 70.8484 20.4011C70.8472 21.1133 70.6163 21.6843 70.1524 22.1383C69.6869 22.5921 69.128 22.8148 68.453 22.816C67.7774 22.8148 67.2199 22.5922 66.7532 22.1385ZM71.9248 20.4011C71.9257 21.3467 71.5914 22.1588 70.9302 22.8135C70.2688 23.4711 69.4339 23.8027 68.453 23.8018C67.4716 23.8027 66.6366 23.4711 65.9764 22.8135V22.8139C65.314 22.1588 64.981 21.3467 64.9818 20.4011C64.981 19.4556 65.314 18.6435 65.9764 17.9884V17.9888C66.6366 17.3311 67.4716 16.9988 68.453 17C69.4292 16.9988 70.2614 17.3327 70.926 17.9929C71.5905 18.6505 71.9257 19.4609 71.9248 20.4011ZM77.564 23.4876C77.099 23.6975 76.5912 23.8018 76.0477 23.8018C75.0603 23.8027 74.219 23.4757 73.549 22.8283C72.8756 22.1814 72.5382 21.3639 72.5395 20.4011C72.5382 19.4383 72.8756 18.6209 73.549 17.9744C74.219 17.3266 75.0603 16.9992 76.0477 17C77.0597 16.9988 77.9001 17.3578 78.5336 18.0676L78.6008 18.1427L78.5267 18.2118L77.855 18.8391L77.7801 18.7486C77.3545 18.2385 76.7884 17.9879 76.0477 17.9863C75.3585 17.9875 74.7907 18.2069 74.3191 18.6525H74.3188C73.8502 19.097 73.6167 19.6708 73.6159 20.4011C73.6167 21.1314 73.8502 21.7061 74.3188 22.1498H74.3191C74.7907 22.5954 75.3585 22.8148 76.0477 22.816C76.8038 22.8148 77.4367 22.5277 77.976 21.9358L78.0527 21.8511L78.1353 21.9308L78.7899 22.5626L78.7265 22.6361C78.4169 22.9951 78.0292 23.2797 77.564 23.4876ZM82.152 18.1269V23.5559V23.6611H82.043H81.0927V18.1269H79.2654V18.0217V17.1415H83.9794V17.2466V18.1269H82.152ZM87.0559 20.6403L85.4937 17.1413H84.4347H84.2652L86.5168 21.9074L86.3 22.3666C86.2136 22.551 86.1207 22.6701 86.0389 22.7256C85.9593 22.7811 85.8311 22.8164 85.6496 22.816C85.5162 22.816 85.3906 22.7835 85.2645 22.7149L85.1435 22.6492L84.8867 23.5271L84.8602 23.6165L84.9493 23.6527C85.1916 23.7508 85.4221 23.8018 85.6411 23.8018C86.3638 23.8051 86.9193 23.3853 87.2665 22.611L87.2661 22.6118L89.8107 17.1413H89.6425H88.6551H88.5827L87.0559 20.6403ZM91.4344 23.6611H90.5944H90.4854V17.1415H95.4371V23.6611H95.328H94.3778V18.1269H91.5434V23.6611H91.4344ZM97.6666 23.6611H96.8262H96.7172V17.1415H96.8262H97.7757V19.8464H100.829V17.1415H100.938H101.888V23.6611H101.779H100.829V20.8145H97.7757V23.6611H97.6666ZM103.834 20.4011C103.836 21.1133 104.067 21.6843 104.53 22.1383C104.996 22.5921 105.554 22.8148 106.229 22.816C106.904 22.8148 107.463 22.5921 107.929 22.1383C108.393 21.6843 108.624 21.1133 108.625 20.4011C108.624 19.6889 108.393 19.1179 107.929 18.664C107.463 18.2101 106.904 17.9875 106.229 17.9863C105.554 17.9875 104.996 18.2101 104.53 18.664C104.067 19.1179 103.836 19.6889 103.834 20.4011ZM109.701 20.4011C109.702 21.3467 109.368 22.1588 108.707 22.8135C108.045 23.4711 107.211 23.8027 106.229 23.8018C105.248 23.8027 104.413 23.4711 103.753 22.8135V22.8139C103.09 22.1588 102.757 21.3467 102.758 20.4011C102.757 19.4556 103.09 18.6435 103.753 17.9884V17.9888C104.413 17.3311 105.248 16.9988 106.229 17C107.205 16.9988 108.038 17.3327 108.702 17.9929C109.367 18.6505 109.702 19.4609 109.701 20.4011ZM113.978 22.6757V20.8145H115.524C115.836 20.8157 116.07 20.9111 116.258 21.1029C116.449 21.3033 116.538 21.5099 116.539 21.7403C116.538 21.9724 116.452 22.182 116.265 22.384C116.083 22.5796 115.858 22.674 115.561 22.6757H113.978ZM113.978 19.8464V18.1269H115.433C115.713 18.1286 115.921 18.2148 116.086 18.3919L116.087 18.3926L116.086 18.3923C116.258 18.5763 116.337 18.7685 116.338 18.9825C116.337 19.1957 116.255 19.3887 116.079 19.5764V19.5769C115.906 19.7572 115.689 19.8451 115.396 19.8464H113.978ZM116.622 20.285C116.828 20.1664 117.001 20.0096 117.135 19.8167V19.8171C117.31 19.5703 117.397 19.2823 117.397 18.9649C117.398 18.446 117.195 18.0008 116.798 17.6574C116.406 17.3152 115.931 17.1406 115.396 17.1415H112.921V23.6611H113.03H115.524C116.084 23.6619 116.579 23.4803 116.99 23.1226C117.405 22.7656 117.617 22.301 117.616 21.7584C117.617 21.3974 117.504 21.0712 117.283 20.7952L117.281 20.7939L117.283 20.7948C117.104 20.5725 116.882 20.4011 116.622 20.285Z" fill="black"/>
<defs>
<linearGradient id="paint0_linear" x1="27.6162" y1="27.5" x2="20.6162" y2="36" gradientUnits="userSpaceOnUse">
<stop stop-color="#00E2FF"/>
<stop offset="1" stop-color="#03C6F5"/>
</linearGradient>
<linearGradient id="paint1_linear" x1="33.4263" y1="44.7588" x2="14.4787" y2="26.5978" gradientUnits="userSpaceOnUse">
<stop stop-color="#00A0FF"/>
<stop offset="0.00657445" stop-color="#00A1FF"/>
<stop offset="0.2601" stop-color="#00BEFF"/>
<stop offset="0.5122" stop-color="#00D2FF"/>
<stop offset="0.7604" stop-color="#00DFFF"/>
<stop offset="1" stop-color="#00E3FF"/>
</linearGradient>
<linearGradient id="paint2_linear" x1="40.6162" y1="28" x2="30.1162" y2="28" gradientUnits="userSpaceOnUse">
<stop stop-color="#FFEA0D"/>
<stop offset="1" stop-color="#FFCF00"/>
</linearGradient>
<linearGradient id="paint3_linear" x1="46.3752" y1="32.0695" x2="22.5698" y2="32.0695" gradientUnits="userSpaceOnUse">
<stop stop-color="#FFE000"/>
<stop offset="0.4087" stop-color="#FFBD00"/>
<stop offset="0.7754" stop-color="#FFA500"/>
<stop offset="1" stop-color="#FF9C00"/>
</linearGradient>
<linearGradient id="paint4_linear" x1="30.6162" y1="32" x2="19.1162" y2="43.5" gradientUnits="userSpaceOnUse">
<stop stop-color="#F73547"/>
<stop offset="1" stop-color="#E22652"/>
</linearGradient>
<linearGradient id="paint5_linear" x1="36.8799" y1="43.5906" x2="12.9913" y2="19.4439" gradientUnits="userSpaceOnUse">
<stop stop-color="#FF3A44"/>
<stop offset="1" stop-color="#C31162"/>
</linearGradient>
<linearGradient id="paint6_linear" x1="36.6162" y1="27.5" x2="21.6162" y2="18" gradientUnits="userSpaceOnUse">
<stop stop-color="#2EF38F"/>
<stop offset="1" stop-color="#0EDE76"/>
</linearGradient>
<linearGradient id="paint7_linear" x1="18.2142" y1="38.8109" x2="28.8818" y2="28.0452" gradientUnits="userSpaceOnUse">
<stop stop-color="#32A071"/>
<stop offset="0.0685" stop-color="#2DA771"/>
<stop offset="0.4762" stop-color="#15CF74"/>
<stop offset="0.8009" stop-color="#06E775"/>
<stop offset="1" stop-color="#00F076"/>
</linearGradient>
</defs>
</svg>
