<svg width="171" height="64" viewBox="0 0 171 64" fill="none" xmlns="http://www.w3.org/2000/svg">
<path d="M128.125 42.6913H130.15V29.4772H128.125V42.6913ZM146.364 34.2372L144.043 39.9662H143.974L141.565 34.2372H139.383L142.996 42.2445L140.936 46.6985H143.049L148.616 34.2372H146.364ZM134.881 41.1905C134.217 41.1905 133.292 40.8676 133.292 40.0682C133.292 39.0483 134.444 38.6573 135.438 38.6573C136.329 38.6573 136.747 38.8443 137.289 39.0996C137.131 40.3234 136.049 41.1905 134.881 41.1905ZM135.125 33.9482C133.659 33.9482 132.141 34.5774 131.512 35.9714L133.309 36.7022C133.693 35.9714 134.409 35.7332 135.16 35.7332C136.207 35.7332 137.271 36.3455 137.289 37.4335V37.5693C136.922 37.3653 136.137 37.0594 135.177 37.0594C133.24 37.0594 131.267 38.0961 131.267 40.0343C131.267 41.8024 132.856 42.9415 134.635 42.9415C135.997 42.9415 136.747 42.3465 137.219 41.6496H137.289V42.6695H139.243V37.6031C139.243 35.2575 137.446 33.9482 135.125 33.9482ZM122.61 35.8458H119.73V31.3164H122.61C124.124 31.3164 124.984 32.5372 124.984 33.581C124.984 34.6051 124.124 35.8458 122.61 35.8458ZM122.558 29.4772H117.706V42.6913H119.73V37.685H122.558C124.802 37.685 127.009 36.1023 127.009 33.581C127.009 31.0599 124.802 29.4772 122.558 29.4772ZM96.0996 41.1929C94.7007 41.1929 93.5294 40.0521 93.5294 38.4851C93.5294 36.9017 94.7007 35.7435 96.0996 35.7435C97.4808 35.7435 98.5647 36.9017 98.5647 38.4851C98.5647 40.0521 97.4808 41.1929 96.0996 41.1929ZM98.4248 34.9772H98.3548C97.9004 34.4494 97.0259 33.9726 95.9246 33.9726C93.6168 33.9726 91.5015 35.9478 91.5015 38.4851C91.5015 41.0055 93.6168 42.9639 95.9246 42.9639C97.0259 42.9639 97.9004 42.4869 98.3548 41.9423H98.4248V42.5893C98.4248 44.3096 97.4808 45.2291 95.9597 45.2291C94.7185 45.2291 93.9492 44.3603 93.6341 43.6282L91.8686 44.3434C92.3756 45.5354 93.7219 47 95.9597 47C98.3374 47 100.348 45.6374 100.348 42.3168V34.2451H98.4248V34.9772ZM101.747 42.6913H103.775V29.4768H101.747V42.6913ZM106.764 38.332C106.712 36.5948 108.145 35.7096 109.177 35.7096C109.982 35.7096 110.663 36.101 110.89 36.6634L106.764 38.332ZM113.058 36.8335C112.674 35.8285 111.502 33.9726 109.107 33.9726C106.729 33.9726 104.754 35.7947 104.754 38.4682C104.754 40.9886 106.712 42.9639 109.334 42.9639C111.45 42.9639 112.674 41.7037 113.181 40.9716L111.607 39.9496C111.083 40.6991 110.366 41.1929 109.334 41.1929C108.303 41.1929 107.569 40.733 107.096 39.8307L113.268 37.3443L113.058 36.8335ZM63.8893 35.352V37.2592H68.5747C68.4348 38.332 68.0677 39.1152 67.5081 39.6602C66.8265 40.3246 65.76 41.0567 63.8893 41.0567C61.0045 41.0567 58.7493 38.7919 58.7493 35.9821C58.7493 33.1723 61.0045 30.9072 63.8893 30.9072C65.4454 30.9072 66.5815 31.5034 67.4208 32.2697L68.8019 30.9245C67.6307 29.8344 66.0745 29 63.8893 29C59.9379 29 56.6162 32.1335 56.6162 35.9821C56.6162 39.8307 59.9379 42.9639 63.8893 42.9639C66.0224 42.9639 67.6307 42.283 68.8893 41.0055C70.1831 39.7453 70.5854 37.9744 70.5854 36.5441C70.5854 36.101 70.5505 35.6927 70.4802 35.352H63.8893ZM75.9122 41.1929C74.5133 41.1929 73.3069 40.069 73.3069 38.4682C73.3069 36.8504 74.5133 35.7435 75.9122 35.7435C77.3106 35.7435 78.5171 36.8504 78.5171 38.4682C78.5171 40.069 77.3106 41.1929 75.9122 41.1929ZM75.9122 33.9726C73.3594 33.9726 71.2788 35.8627 71.2788 38.4682C71.2788 41.0567 73.3594 42.9639 75.9122 42.9639C78.4645 42.9639 80.5451 41.0567 80.5451 38.4682C80.5451 35.8627 78.4645 33.9726 75.9122 33.9726ZM86.019 41.1929C84.6206 41.1929 83.4141 40.069 83.4141 38.4682C83.4141 36.8504 84.6206 35.7435 86.019 35.7435C87.4175 35.7435 88.6239 36.8504 88.6239 38.4682C88.6239 40.069 87.4175 41.1929 86.019 41.1929ZM86.019 33.9726C83.4663 33.9726 81.3861 35.8627 81.3861 38.4682C81.3861 41.0567 83.4663 42.9639 86.019 42.9639C88.5714 42.9639 90.652 41.0567 90.652 38.4682C90.652 35.8627 88.5714 33.9726 86.019 33.9726Z" fill="black"/>
<path d="M20.6162 18V46L34.6162 32L20.6162 18Z" fill="url(#paint0_linear)"/>
<path d="M20.6162 18V46L34.6162 32L20.6162 18Z" fill="url(#paint1_linear)"/>
<path d="M45.1007 31.0452L39.8162 28L35.6162 32L39.8162 36L45.1007 32.7484C45.41 32.5935 45.6162 32.2323 45.6162 31.871C45.6162 31.5097 45.41 31.2 45.1007 31.0452Z" fill="url(#paint2_linear)"/>
<path d="M45.1007 31.0452L39.8162 28L35.6162 32L39.8162 36L45.1007 32.7484C45.41 32.5935 45.6162 32.2323 45.6162 31.871C45.6162 31.5097 45.41 31.2 45.1007 31.0452Z" fill="url(#paint3_linear)"/>
<path d="M21.6162 46L39.2162 36.45L35.1162 32.5L21.6162 46Z" fill="url(#paint4_linear)"/>
<path d="M21.6162 46L39.2162 36.45L35.1162 32.5L21.6162 46Z" fill="url(#paint5_linear)"/>
<path d="M39.2162 27.55L33.6662 24.3L21.6162 18L35.1162 31.5L39.2162 27.55Z" fill="url(#paint6_linear)"/>
<path d="M39.2162 27.55L33.6662 24.3L21.6162 18L35.1162 31.5L39.2162 27.55Z" fill="url(#paint7_linear)"/>
<path fill-rule="evenodd" clip-rule="evenodd" d="M60.2432 23.3805C59.8319 23.7937 59.299 24.0009 58.6695 24C58.1754 24.0004 57.7441 23.8584 57.3901 23.5734C57.0369 23.2889 56.7868 22.8883 56.6429 22.3833L56.6162 22.2883L56.7058 22.2503L57.5836 21.8782L57.6172 21.9982C57.8116 22.6673 58.1517 22.9574 58.7056 22.9639C59.0716 22.9622 59.3309 22.8478 59.5186 22.6194C59.7074 22.3885 59.8076 22.0699 59.8076 21.6485V17H59.9163H60.8634V21.63C60.8643 22.3716 60.6601 22.9635 60.2432 23.3805ZM66.0542 17.1107V17.9253V18.0358H63.0848V19.9172H65.7622V20.0277V20.935H63.0848V22.8164H66.0542V22.9269V23.8521H62.0299V17.0001H66.0542V17.1107ZM69.587 18.0358V23.7415V23.8521H69.4783H68.5312V18.0358H66.7102V17.9253V17.0001H71.4081V17.1107V18.0358H69.587ZM76.582 23.8521H71.9927H71.884V23.7415V22.8169L75.2504 18.0358H72.0292V17.9253V17.0001H76.5447V17.1107V18.0353L73.1783 22.8164H76.582V22.9269V23.8521ZM80.0056 18.0358V23.7415V23.8521H79.8969H78.9499V18.0358H77.1288V17.9253V17.0001H81.8268V17.1107V18.0358H80.0056ZM85.9072 20.8604V22.8164H87.4834C87.7796 22.8146 88.0034 22.7154 88.1855 22.5098C88.3714 22.2976 88.4576 22.0773 88.4585 21.8334C88.4576 21.5913 88.3693 21.3741 88.1775 21.1634C87.9911 20.9619 87.7568 20.8616 87.446 20.8604H85.9072ZM85.9072 18.0358V19.8429H87.3186C87.612 19.8416 87.8285 19.7492 87.9996 19.5597V19.5592C88.1757 19.3619 88.2568 19.159 88.2577 18.935C88.2568 18.7101 88.1782 18.5081 88.0076 18.3147L88.0072 18.3143C87.8421 18.1282 87.6353 18.0375 87.356 18.0358H85.9072ZM89.0527 19.8117C88.9183 20.0146 88.7465 20.1793 88.5413 20.304C88.8004 20.426 89.0212 20.6061 89.1992 20.8396L89.1996 20.8401C89.4199 21.1302 89.5324 21.473 89.532 21.8524C89.5333 22.4227 89.321 22.9109 88.908 23.2861C88.4988 23.6621 88.0051 23.8529 87.446 23.852H84.9614H84.8527V17.0001H87.3186C87.8531 16.9993 88.326 17.1827 88.7169 17.5423L88.7148 17.5402L88.7173 17.5423C89.1122 17.9033 89.3146 18.3712 89.3134 18.9165C89.3139 19.2501 89.2268 19.5528 89.0523 19.8122L89.0527 19.8117ZM94.467 17.9253V17.1107V17.0001H90.4426V23.8521H94.467V22.9269V22.8164H91.4975V20.935H94.1749V20.0277V19.9172H91.4975V18.0358H94.467V17.9253ZM96.5075 23.8521H95.67H95.5613V17.0001H95.67H96.6162V23.8521H96.5075Z" fill="black"/>
<defs>
<linearGradient id="paint0_linear" x1="27.6162" y1="27.5" x2="20.6162" y2="36" gradientUnits="userSpaceOnUse">
<stop stop-color="#00E2FF"/>
<stop offset="1" stop-color="#03C6F5"/>
</linearGradient>
<linearGradient id="paint1_linear" x1="33.4263" y1="44.7588" x2="14.4787" y2="26.5978" gradientUnits="userSpaceOnUse">
<stop stop-color="#00A0FF"/>
<stop offset="0.00657445" stop-color="#00A1FF"/>
<stop offset="0.2601" stop-color="#00BEFF"/>
<stop offset="0.5122" stop-color="#00D2FF"/>
<stop offset="0.7604" stop-color="#00DFFF"/>
<stop offset="1" stop-color="#00E3FF"/>
</linearGradient>
<linearGradient id="paint2_linear" x1="40.6162" y1="28" x2="30.1162" y2="28" gradientUnits="userSpaceOnUse">
<stop stop-color="#FFEA0D"/>
<stop offset="1" stop-color="#FFCF00"/>
</linearGradient>
<linearGradient id="paint3_linear" x1="46.3752" y1="32.0695" x2="22.5698" y2="32.0695" gradientUnits="userSpaceOnUse">
<stop stop-color="#FFE000"/>
<stop offset="0.4087" stop-color="#FFBD00"/>
<stop offset="0.7754" stop-color="#FFA500"/>
<stop offset="1" stop-color="#FF9C00"/>
</linearGradient>
<linearGradient id="paint4_linear" x1="30.6162" y1="32" x2="19.1162" y2="43.5" gradientUnits="userSpaceOnUse">
<stop stop-color="#F73547"/>
<stop offset="1" stop-color="#E22652"/>
</linearGradient>
<linearGradient id="paint5_linear" x1="36.8799" y1="43.5906" x2="12.9913" y2="19.4439" gradientUnits="userSpaceOnUse">
<stop stop-color="#FF3A44"/>
<stop offset="1" stop-color="#C31162"/>
</linearGradient>
<linearGradient id="paint6_linear" x1="36.6162" y1="27.5" x2="21.6162" y2="18" gradientUnits="userSpaceOnUse">
<stop stop-color="#2EF38F"/>
<stop offset="1" stop-color="#0EDE76"/>
</linearGradient>
<linearGradient id="paint7_linear" x1="18.2142" y1="38.8109" x2="28.8818" y2="28.0452" gradientUnits="userSpaceOnUse">
<stop stop-color="#32A071"/>
<stop offset="0.0685" stop-color="#2DA771"/>
<stop offset="0.4762" stop-color="#15CF74"/>
<stop offset="0.8009" stop-color="#06E775"/>
<stop offset="1" stop-color="#00F076"/>
</linearGradient>
</defs>
</svg>
