<svg width="171" height="64" viewBox="0 0 171 64" fill="none" xmlns="http://www.w3.org/2000/svg">
<path d="M128.125 42.6913H130.15V29.4772H128.125V42.6913ZM146.364 34.2372L144.043 39.9662H143.974L141.565 34.2372H139.383L142.996 42.2445L140.936 46.6985H143.049L148.616 34.2372H146.364ZM134.881 41.1905C134.217 41.1905 133.292 40.8676 133.292 40.0682C133.292 39.0483 134.444 38.6573 135.438 38.6573C136.329 38.6573 136.747 38.8443 137.289 39.0996C137.131 40.3234 136.049 41.1905 134.881 41.1905ZM135.125 33.9482C133.659 33.9482 132.141 34.5774 131.512 35.9714L133.309 36.7022C133.693 35.9714 134.409 35.7332 135.16 35.7332C136.207 35.7332 137.271 36.3455 137.289 37.4335V37.5693C136.922 37.3653 136.137 37.0594 135.177 37.0594C133.24 37.0594 131.267 38.0961 131.267 40.0343C131.267 41.8024 132.856 42.9415 134.635 42.9415C135.997 42.9415 136.747 42.3465 137.219 41.6496H137.289V42.6695H139.243V37.6031C139.243 35.2575 137.446 33.9482 135.125 33.9482ZM122.61 35.8458H119.73V31.3164H122.61C124.124 31.3164 124.984 32.5372 124.984 33.581C124.984 34.6051 124.124 35.8458 122.61 35.8458ZM122.558 29.4772H117.706V42.6913H119.73V37.685H122.558C124.802 37.685 127.009 36.1023 127.009 33.581C127.009 31.0599 124.802 29.4772 122.558 29.4772ZM96.0996 41.1929C94.7007 41.1929 93.5294 40.0521 93.5294 38.4851C93.5294 36.9017 94.7007 35.7435 96.0996 35.7435C97.4808 35.7435 98.5647 36.9017 98.5647 38.4851C98.5647 40.0521 97.4808 41.1929 96.0996 41.1929ZM98.4248 34.9772H98.3548C97.9004 34.4494 97.0259 33.9726 95.9246 33.9726C93.6168 33.9726 91.5015 35.9478 91.5015 38.4851C91.5015 41.0055 93.6168 42.9639 95.9246 42.9639C97.0259 42.9639 97.9004 42.4869 98.3548 41.9423H98.4248V42.5893C98.4248 44.3096 97.4808 45.2291 95.9597 45.2291C94.7185 45.2291 93.9492 44.3603 93.6341 43.6282L91.8686 44.3434C92.3756 45.5354 93.7219 47 95.9597 47C98.3374 47 100.348 45.6374 100.348 42.3168V34.2451H98.4248V34.9772ZM101.747 42.6913H103.775V29.4768H101.747V42.6913ZM106.764 38.332C106.712 36.5948 108.145 35.7096 109.177 35.7096C109.982 35.7096 110.663 36.101 110.89 36.6634L106.764 38.332ZM113.058 36.8335C112.674 35.8285 111.502 33.9726 109.107 33.9726C106.729 33.9726 104.754 35.7947 104.754 38.4682C104.754 40.9886 106.712 42.9639 109.334 42.9639C111.45 42.9639 112.674 41.7037 113.181 40.9716L111.607 39.9496C111.083 40.6991 110.366 41.1929 109.334 41.1929C108.303 41.1929 107.569 40.733 107.096 39.8307L113.268 37.3443L113.058 36.8335ZM63.8893 35.352V37.2592H68.5747C68.4348 38.332 68.0677 39.1152 67.5081 39.6602C66.8265 40.3246 65.76 41.0567 63.8893 41.0567C61.0045 41.0567 58.7493 38.7919 58.7493 35.9821C58.7493 33.1723 61.0045 30.9072 63.8893 30.9072C65.4454 30.9072 66.5815 31.5034 67.4208 32.2697L68.8019 30.9245C67.6307 29.8344 66.0745 29 63.8893 29C59.9379 29 56.6162 32.1335 56.6162 35.9821C56.6162 39.8307 59.9379 42.9639 63.8893 42.9639C66.0224 42.9639 67.6307 42.283 68.8893 41.0055C70.1831 39.7453 70.5854 37.9744 70.5854 36.5441C70.5854 36.101 70.5505 35.6927 70.4802 35.352H63.8893ZM75.9122 41.1929C74.5133 41.1929 73.3069 40.069 73.3069 38.4682C73.3069 36.8504 74.5133 35.7435 75.9122 35.7435C77.3106 35.7435 78.5171 36.8504 78.5171 38.4682C78.5171 40.069 77.3106 41.1929 75.9122 41.1929ZM75.9122 33.9726C73.3594 33.9726 71.2788 35.8627 71.2788 38.4682C71.2788 41.0567 73.3594 42.9639 75.9122 42.9639C78.4645 42.9639 80.5451 41.0567 80.5451 38.4682C80.5451 35.8627 78.4645 33.9726 75.9122 33.9726ZM86.019 41.1929C84.6206 41.1929 83.4141 40.069 83.4141 38.4682C83.4141 36.8504 84.6206 35.7435 86.019 35.7435C87.4175 35.7435 88.6239 36.8504 88.6239 38.4682C88.6239 40.069 87.4175 41.1929 86.019 41.1929ZM86.019 33.9726C83.4663 33.9726 81.3861 35.8627 81.3861 38.4682C81.3861 41.0567 83.4663 42.9639 86.019 42.9639C88.5714 42.9639 90.652 41.0567 90.652 38.4682C90.652 35.8627 88.5714 33.9726 86.019 33.9726Z" fill="black"/>
<path d="M20.6162 18V46L34.6162 32L20.6162 18Z" fill="url(#paint0_linear)"/>
<path d="M20.6162 18V46L34.6162 32L20.6162 18Z" fill="url(#paint1_linear)"/>
<path d="M45.1007 31.0452L39.8162 28L35.6162 32L39.8162 36L45.1007 32.7484C45.41 32.5935 45.6162 32.2323 45.6162 31.871C45.6162 31.5097 45.41 31.2 45.1007 31.0452Z" fill="url(#paint2_linear)"/>
<path d="M45.1007 31.0452L39.8162 28L35.6162 32L39.8162 36L45.1007 32.7484C45.41 32.5935 45.6162 32.2323 45.6162 31.871C45.6162 31.5097 45.41 31.2 45.1007 31.0452Z" fill="url(#paint3_linear)"/>
<path d="M21.6162 46L39.2162 36.45L35.1162 32.5L21.6162 46Z" fill="url(#paint4_linear)"/>
<path d="M21.6162 46L39.2162 36.45L35.1162 32.5L21.6162 46Z" fill="url(#paint5_linear)"/>
<path d="M39.2162 27.55L33.6662 24.3L21.6162 18L35.1162 31.5L39.2162 27.55Z" fill="url(#paint6_linear)"/>
<path d="M39.2162 27.55L33.6662 24.3L21.6162 18L35.1162 31.5L39.2162 27.55Z" fill="url(#paint7_linear)"/>
<path fill-rule="evenodd" clip-rule="evenodd" d="M68.0881 23.882C67.8305 23.9607 67.5666 24 67.2968 24C66.8027 24 66.3204 23.8372 65.8571 23.519C65.3857 23.1968 65.0742 22.7373 64.9313 22.1586L64.9085 22.0672L64.9958 22.0322L65.8701 21.6775L65.9006 21.7975C65.9865 22.1345 66.1576 22.4131 66.4224 22.6447H66.4221C66.6876 22.8746 66.9722 22.9846 67.2968 22.9855C67.64 22.985 67.9238 22.8967 68.1602 22.7212C68.3909 22.5475 68.4979 22.3311 68.5 22.0326C68.4979 21.6948 68.3874 21.4577 68.1585 21.2797C67.9207 21.0967 67.524 20.9158 66.9764 20.7484H66.9755C66.3921 20.5641 65.9427 20.3235 65.6303 20.0199C65.3141 19.7139 65.1526 19.312 65.1539 18.8406C65.1526 18.3456 65.3541 17.9063 65.7403 17.5466C66.1295 17.1814 66.6408 16.9991 67.2513 17C67.8179 16.9996 68.2914 17.1433 68.6572 17.4362C69.0126 17.7212 69.2521 18.0391 69.3622 18.3913L69.3917 18.4855L69.3006 18.5235L68.4279 18.888L68.3964 18.7687C68.3487 18.5907 68.231 18.4187 68.0295 18.253V18.2534C67.8378 18.0966 67.5898 18.0154 67.2694 18.015C66.9697 18.0154 66.7243 18.0966 66.5186 18.2589L66.5181 18.2593C66.3128 18.4234 66.2218 18.6064 66.22 18.8406C66.2218 19.0503 66.3044 19.216 66.4916 19.3681H66.4911C66.6842 19.522 66.9798 19.6687 67.3756 19.7985H67.3753C67.6973 19.9025 67.9672 20.0026 68.1877 20.1024H68.1872C68.4094 20.2022 68.6328 20.335 68.8571 20.4989L68.8567 20.4985C69.0907 20.6685 69.2694 20.8841 69.3888 21.1389C69.508 21.3948 69.5666 21.6877 69.5662 22.0144C69.5666 22.3437 69.4988 22.6435 69.3601 22.9081C69.2235 23.171 69.038 23.382 68.8087 23.537V23.5375C68.586 23.688 68.3462 23.8034 68.0881 23.882ZM57.6639 22.8409V18.1596H58.7048C59.432 18.1609 59.9911 18.3684 60.4059 18.7772V18.7767C60.819 19.1868 61.0286 19.752 61.0295 20.5002C61.0286 21.2544 60.819 21.8217 60.4063 22.2275C59.9911 22.6342 59.4325 22.8396 58.7048 22.8409H57.6639ZM58.7048 23.855H56.7246H56.6162V17.1454H58.7048C59.7209 17.1446 60.5505 17.4553 61.1695 18.0801C61.7874 18.7015 62.0969 19.5165 62.0961 20.5002C62.0969 21.483 61.7874 22.2989 61.1695 22.9207C60.5505 23.5452 59.7209 23.8558 58.7048 23.855ZM63.9873 23.855H63.156H63.048V17.1454H63.156H64.0953V23.855H63.9873ZM71.5925 20.2102V18.1596H72.8779C73.2037 18.1613 73.447 18.2653 73.6384 18.4778C73.8344 18.6982 73.9264 18.9286 73.9272 19.1856C73.9264 19.4426 73.8344 19.6721 73.6384 19.8932C73.447 20.1054 73.2041 20.209 72.8779 20.2102H71.5925ZM71.5925 21.2252V23.7468V23.855H71.4845H70.5448V17.1454H72.8597C73.4319 17.1446 73.9381 17.339 74.3564 17.722C74.7792 18.1054 74.9946 18.603 74.9935 19.1856C74.9946 19.7676 74.7792 20.2647 74.3564 20.6477C73.9381 21.0311 73.4319 21.226 72.8597 21.2252H71.5925ZM76.485 20.5002C76.4859 21.2332 76.7148 21.8208 77.1726 22.288C77.6342 22.7551 78.1865 22.9842 78.8548 22.9855C79.523 22.9842 80.0761 22.7551 80.537 22.288C80.9961 21.8208 81.225 21.2332 81.2259 20.5002C81.225 19.7673 80.9961 19.1796 80.537 18.7125C80.0761 18.2454 79.523 18.0163 78.8548 18.015C78.1865 18.0163 77.6342 18.2454 77.1726 18.7125C76.7148 19.1796 76.4859 19.7673 76.485 20.5002ZM82.2912 20.5002C82.2921 21.4733 81.9615 22.3091 81.3068 22.9829C80.652 23.6597 79.8261 24.0009 78.8548 24C77.8837 24.0009 77.058 23.6598 76.4041 22.9834L76.4066 22.9863L76.4037 22.9829L76.4041 22.9833C75.7481 22.3091 75.4184 21.4733 75.4197 20.5002C75.4184 19.5271 75.7481 18.6913 76.4041 18.0171L76.4037 18.0176C77.0576 17.3408 77.8835 16.9988 78.8548 17C79.8211 16.9988 80.6449 17.3424 81.3026 18.0218C81.9602 18.6986 82.2921 19.5326 82.2912 20.5002ZM87.4296 21.9693L84.4236 17.1454H83.351H83.2431V23.855H83.351H84.1824H84.2903V19.7008L84.2645 18.7876L87.4152 23.855H88.344H88.4519V17.1454H87.5113H87.4034V21.0548L87.4296 21.9693ZM90.6581 23.855H89.8267H89.7188V17.1454H89.8267H90.766V23.855H90.6581ZM93.0805 22.8409V20.9255H94.6096C94.9183 20.9267 95.151 21.0249 95.3361 21.2222C95.5267 21.4285 95.6139 21.6412 95.6148 21.8783C95.6139 22.1171 95.5283 22.3328 95.3441 22.5407H95.3436C95.1632 22.742 94.9411 22.8391 94.6463 22.8409H93.0805ZM93.0805 19.9291V18.1596H94.5198C94.7973 18.1613 95.0026 18.25 95.167 18.4323L95.1678 18.433L95.167 18.4327C95.3365 18.6221 95.4149 18.8199 95.4153 19.0401C95.4149 19.2595 95.3344 19.4582 95.159 19.6513V19.6518C94.9891 19.8374 94.7741 19.9278 94.4832 19.9291H93.0805ZM95.6971 20.3806C95.901 20.2585 96.0719 20.0972 96.2054 19.8986L96.205 19.8991C96.3778 19.6451 96.4642 19.3487 96.4642 19.0219C96.4655 18.488 96.264 18.0298 95.8719 17.6764C95.4832 17.3242 95.014 17.1446 94.4832 17.1454H92.0333V23.855H92.1412H94.6096C95.1645 23.8558 95.6548 23.6689 96.0617 23.3008C96.4714 22.9334 96.6826 22.4553 96.6814 21.8969C96.6818 21.5254 96.5697 21.1897 96.3508 20.9056V20.9052C96.1741 20.6765 95.9547 20.5001 95.6971 20.3806ZM98.5262 23.855H97.6944H97.5865V17.1454H97.6944H98.6341V23.855H98.5262ZM103.753 23.855H100.01H99.9023V17.1454H100.01H100.95L100.95 22.8409H103.753V22.9491V23.855ZM108.582 17.2537V18.0513V18.1596H105.634V20.0019H108.293V20.1101V20.9986H105.634V22.8409H108.582V22.9491V23.855H104.586V17.1454H108.582V17.2537ZM114.294 23.882C114.036 23.9607 113.773 24 113.503 24C113.009 24 112.527 23.8372 112.064 23.519C111.592 23.1968 111.281 22.7373 111.138 22.1586L111.115 22.0672L111.202 22.0322L112.077 21.6775L112.107 21.7975C112.193 22.1345 112.364 22.4131 112.629 22.6447C112.895 22.8746 113.178 22.9846 113.503 22.9855C113.847 22.985 114.13 22.8967 114.367 22.7212C114.598 22.5475 114.705 22.3311 114.707 22.0326C114.705 21.6948 114.593 21.4577 114.366 21.2797C114.127 21.0967 113.731 20.9158 113.183 20.7484H113.182C112.599 20.5641 112.149 20.3235 111.837 20.0199C111.521 19.7139 111.359 19.312 111.36 18.8406C111.359 18.3456 111.561 17.9063 111.947 17.5466C112.336 17.1814 112.847 16.9991 113.458 17C114.025 16.9996 114.498 17.1433 114.864 17.4362C115.219 17.7212 115.459 18.0391 115.569 18.3913L115.598 18.4855L115.508 18.5235L114.634 18.888L114.603 18.7687C114.556 18.5907 114.438 18.4187 114.236 18.253V18.2534C114.044 18.0966 113.796 18.0154 113.476 18.015C113.176 18.0154 112.931 18.0966 112.725 18.2589V18.2593C112.519 18.4234 112.428 18.6064 112.426 18.8406C112.428 19.0503 112.51 19.216 112.698 19.3681C112.891 19.522 113.186 19.6687 113.582 19.7985C113.904 19.9025 114.174 20.0026 114.394 20.1024C114.616 20.2022 114.839 20.335 115.064 20.4989L115.063 20.4985C115.297 20.6685 115.476 20.8841 115.595 21.1389C115.715 21.3948 115.773 21.6877 115.773 22.0144C115.773 22.3437 115.705 22.6435 115.567 22.9081C115.43 23.171 115.244 23.382 115.015 23.537V23.5375C114.792 23.688 114.552 23.8034 114.294 23.882ZM120.941 23.2619C120.488 23.7552 119.868 24.0009 119.111 24C118.376 24.0009 117.763 23.7523 117.3 23.2585C116.836 22.766 116.606 22.1163 116.607 21.3347V17.1454H116.715H117.654V21.371C117.655 21.8665 117.782 22.2524 118.031 22.5484C118.277 22.8375 118.626 22.9842 119.111 22.9855C119.596 22.9842 119.945 22.8375 120.19 22.5484C120.44 22.2524 120.567 21.8665 120.568 21.371V17.1454H120.676H121.616V21.3347C121.617 22.1218 121.393 22.7719 120.941 23.2619Z" fill="black"/>
<defs>
<linearGradient id="paint0_linear" x1="27.6162" y1="27.5" x2="20.6162" y2="36" gradientUnits="userSpaceOnUse">
<stop stop-color="#00E2FF"/>
<stop offset="1" stop-color="#03C6F5"/>
</linearGradient>
<linearGradient id="paint1_linear" x1="33.4263" y1="44.7588" x2="14.4787" y2="26.5978" gradientUnits="userSpaceOnUse">
<stop stop-color="#00A0FF"/>
<stop offset="0.00657445" stop-color="#00A1FF"/>
<stop offset="0.2601" stop-color="#00BEFF"/>
<stop offset="0.5122" stop-color="#00D2FF"/>
<stop offset="0.7604" stop-color="#00DFFF"/>
<stop offset="1" stop-color="#00E3FF"/>
</linearGradient>
<linearGradient id="paint2_linear" x1="40.6162" y1="28" x2="30.1162" y2="28" gradientUnits="userSpaceOnUse">
<stop stop-color="#FFEA0D"/>
<stop offset="1" stop-color="#FFCF00"/>
</linearGradient>
<linearGradient id="paint3_linear" x1="46.3752" y1="32.0695" x2="22.5698" y2="32.0695" gradientUnits="userSpaceOnUse">
<stop stop-color="#FFE000"/>
<stop offset="0.4087" stop-color="#FFBD00"/>
<stop offset="0.7754" stop-color="#FFA500"/>
<stop offset="1" stop-color="#FF9C00"/>
</linearGradient>
<linearGradient id="paint4_linear" x1="30.6162" y1="32" x2="19.1162" y2="43.5" gradientUnits="userSpaceOnUse">
<stop stop-color="#F73547"/>
<stop offset="1" stop-color="#E22652"/>
</linearGradient>
<linearGradient id="paint5_linear" x1="36.8799" y1="43.5906" x2="12.9913" y2="19.4439" gradientUnits="userSpaceOnUse">
<stop stop-color="#FF3A44"/>
<stop offset="1" stop-color="#C31162"/>
</linearGradient>
<linearGradient id="paint6_linear" x1="36.6162" y1="27.5" x2="21.6162" y2="18" gradientUnits="userSpaceOnUse">
<stop stop-color="#2EF38F"/>
<stop offset="1" stop-color="#0EDE76"/>
</linearGradient>
<linearGradient id="paint7_linear" x1="18.2142" y1="38.8109" x2="28.8818" y2="28.0452" gradientUnits="userSpaceOnUse">
<stop stop-color="#32A071"/>
<stop offset="0.0685" stop-color="#2DA771"/>
<stop offset="0.4762" stop-color="#15CF74"/>
<stop offset="0.8009" stop-color="#06E775"/>
<stop offset="1" stop-color="#00F076"/>
</linearGradient>
</defs>
</svg>
