<svg xmlns="http://www.w3.org/2000/svg" width="170" height="51" viewBox="0 0 170 51" fill="none">
<path d="M9.64344 51C9.26459 51 8.88574 51 8.50689 51C7.78363 50.9645 6.95705 50.9289 6.13047 50.7868C5.33833 50.6446 4.64951 50.3958 4.02958 50.076C3.3752 49.7206 2.75527 49.2941 2.23865 48.7254C1.72204 48.1923 1.27431 47.5882 0.929903 46.8773C0.585494 46.2021 0.378849 45.4913 0.241086 44.7094C0.0688817 43.8209 0.0344409 42.9324 0.0344409 42.2571C0.0344409 41.9728 0 41.0488 0 41.0488V9.95122C0 9.95122 4.90053e-08 9.02718 0.0344409 8.7784C0.0344409 8.10314 0.103323 7.17909 0.241086 6.32613C0.378849 5.50871 0.619935 4.79791 0.929903 4.12265C1.27431 3.44739 1.6876 2.80767 2.23865 2.27456C2.75527 1.74146 3.3752 1.27944 4.02958 0.924042C4.68395 0.568641 5.37277 0.355401 6.13047 0.21324C6.99149 0.0710802 7.85251 0 8.50689 0H9.64344H160.322H161.493C162.147 0 163.008 0.0710802 163.87 0.21324C164.627 0.355401 165.316 0.604181 166.005 0.924042C166.659 1.27944 167.245 1.70592 167.796 2.27456C168.312 2.80767 168.76 3.41185 169.105 4.12265C169.449 4.79791 169.656 5.50871 169.793 6.29059C169.931 7.10801 170 7.96098 170 8.7784C170 9.1338 170 9.56028 170 9.95122C170 10.4488 170 10.9108 170 11.3728V39.5916C170 40.0537 170 40.5512 170 41.0132C170 41.4397 170 41.8307 170 42.2216C169.966 43.0035 169.931 43.8564 169.793 44.6739C169.656 45.4913 169.449 46.2021 169.105 46.8773C168.76 47.5526 168.312 48.1923 167.796 48.6899C167.279 49.223 166.659 49.685 166.005 50.0404C165.35 50.3958 164.662 50.6091 163.87 50.7512C163.043 50.8934 162.216 50.9289 161.493 50.9645C161.114 50.9645 160.735 50.9645 160.357 50.9645H158.979L9.64344 51Z" fill="#B6B6B6"/>
<path d="M10.53 50C10.1556 50 9.7812 50 9.40681 50C8.69206 49.9659 7.8752 49.9317 7.05835 49.7951C6.27553 49.6585 5.59481 49.4195 4.98217 49.1122C4.33549 48.7707 3.72285 48.361 3.21232 47.8146C2.70178 47.3024 2.25932 46.722 1.91896 46.039C1.57861 45.3902 1.37439 44.7073 1.23825 43.9561C1.06807 43.1024 1.03404 42.2488 1.03404 41.6C1.03404 41.3268 1 40.439 1 40.439V10.561C1 10.561 1 9.67317 1.03404 9.43415C1.03404 8.78537 1.10211 7.89756 1.23825 7.07805C1.37439 6.29268 1.61264 5.60976 1.91896 4.96098C2.25932 4.31219 2.66775 3.69756 3.21232 3.18537C3.72285 2.67317 4.33549 2.22927 4.98217 1.8878C5.62885 1.54634 6.30956 1.34146 7.05835 1.20488C7.90924 1.06829 8.76013 1 9.40681 1H10.53H159.436H160.593C161.24 1 162.091 1.06829 162.942 1.20488C163.69 1.34146 164.371 1.58049 165.052 1.8878C165.699 2.22927 166.277 2.63902 166.822 3.18537C167.332 3.69756 167.775 4.27805 168.115 4.96098C168.455 5.60976 168.66 6.29268 168.796 7.0439C168.932 7.82927 169 8.64878 169 9.43415C169 9.77561 169 10.1854 169 10.561C169 11.039 169 11.4829 169 11.9268V39.039C169 39.4829 169 39.961 169 40.4049C169 40.8146 169 41.1902 169 41.5659C168.966 42.3171 168.932 43.1366 168.796 43.922C168.66 44.7073 168.455 45.3902 168.115 46.039C167.775 46.6878 167.332 47.3024 166.822 47.7805C166.311 48.2927 165.699 48.7366 165.052 49.078C164.405 49.4195 163.724 49.6244 162.942 49.761C162.125 49.8976 161.308 49.9317 160.593 49.9659C160.219 49.9659 159.844 49.9659 159.47 49.9659H158.109L10.53 50Z" fill="black"/>
<path fill-rule="evenodd" clip-rule="evenodd" d="M117.417 22.2076V35.562C117.417 37.4995 118.301 38.4682 120.071 38.572C120.377 38.572 120.717 38.5374 121.058 38.4682C121.398 38.399 121.704 38.3298 121.942 38.226L121.636 36.3578C121.33 36.427 121.126 36.4616 120.956 36.4616C120.581 36.4616 120.343 36.3578 120.173 36.1502C120.003 35.9426 119.935 35.5966 119.935 35.1123V22L117.417 22.2076ZM92.2013 34.8699C92.7798 36.0462 93.6305 36.9112 94.7194 37.5339C95.8424 38.1567 97.1355 38.468 98.7008 38.468C99.6196 38.468 100.538 38.3642 101.491 38.1566C102.444 37.9491 103.329 37.6377 104.179 37.2225V30.8221H98.2584V32.8287H101.695V35.9078C101.253 36.0808 100.811 36.2192 100.3 36.2884C99.7897 36.3922 99.3133 36.4268 98.8029 36.4268C97.714 36.4268 96.7952 36.1846 96.0806 35.7003C95.366 35.1813 94.8555 34.524 94.5152 33.6936C94.175 32.8633 94.0048 31.8946 94.0048 30.8221C94.0048 29.6112 94.209 28.5387 94.6514 27.6737C95.0597 26.8088 95.6722 26.1515 96.4549 25.7017C97.2376 25.2519 98.1563 25.0098 99.1772 25.0098C100.402 25.0098 101.695 25.3211 103.057 25.9785L103.703 23.9718C103.022 23.6259 102.308 23.3837 101.525 23.1761C100.743 23.0031 99.9258 22.8993 99.0751 22.8993C97.6119 22.8993 96.2847 23.2107 95.1278 23.7989C93.9368 24.387 93.018 25.2865 92.3374 26.4628C91.6568 27.6391 91.3165 29.0922 91.3165 30.7875C91.3165 32.3443 91.6228 33.7282 92.2013 34.8699ZM57.0835 34.2125H63.0726L64.5698 38.2603H67.3262L61.3371 23.0722H58.853L53 38.2603H55.6202L57.0835 34.2125ZM62.2899 32.1367H57.8321L59.4315 27.7428L60.044 25.7708C60.2482 26.4973 60.4864 27.1893 60.6905 27.7774L62.2899 32.1367ZM68.3202 27.1618V27.1619V27.1619V27.1619V27.162V27.162V27.162V27.162V27.162C68.3516 28.0839 68.3809 28.944 68.3809 29.7147H68.3469V42.9654L70.8991 42.7578V38.018C71.6477 38.2602 72.3963 38.3985 73.145 38.3985C74.1999 38.3985 75.1186 38.1564 75.9013 37.672C76.718 37.2222 77.3305 36.4957 77.7729 35.5616C78.2153 34.6275 78.4535 33.4858 78.4535 32.1711C78.4535 30.9256 78.2493 29.8877 77.875 29.0573C77.5007 28.227 76.9902 27.6388 76.3437 27.2583C75.6971 26.8777 75.0166 26.7047 74.2679 26.7047C72.9748 26.7047 71.8519 27.2583 70.865 28.3654C70.831 27.881 70.797 27.4313 70.6949 26.9469H68.3129L68.3202 27.1618ZM75.8673 32.3786C75.8673 33.7625 75.595 34.8004 75.0846 35.4924C74.5402 36.2189 73.7915 36.5649 72.8387 36.5649C72.5324 36.5649 72.1922 36.5303 71.8519 36.4611C71.5116 36.3919 71.2053 36.2881 70.9671 36.1497V30.0952C71.3414 29.6801 71.7498 29.3687 72.1581 29.1265C72.5665 28.8843 73.0089 28.7805 73.5193 28.7805C74.2339 28.7805 74.7784 29.0919 75.2207 29.6455C75.6631 30.199 75.8673 31.0986 75.8673 32.3786ZM79.9849 29.7147C79.9849 28.9439 79.9556 28.0837 79.9242 27.1618L79.9169 26.9469H82.2989C82.401 27.4313 82.435 27.881 82.469 28.3654C83.4559 27.2583 84.5788 26.7047 85.8719 26.7047C86.6206 26.7047 87.3012 26.8777 87.9477 27.2583C88.5943 27.6388 89.1047 28.227 89.479 29.0573C89.8533 29.8877 90.0575 30.9256 90.0575 32.1711C90.0575 33.4858 89.8193 34.6275 89.3769 35.5616C88.9345 36.4957 88.322 37.2222 87.5053 37.672C86.7227 38.1564 85.8039 38.3985 84.749 38.3985C84.0003 38.3985 83.2517 38.2602 82.5031 38.018V42.7578L79.9509 42.9654V29.7147H79.9849ZM86.6886 35.4924C87.1991 34.8004 87.4713 33.7625 87.4713 32.3786C87.4713 31.0986 87.2671 30.199 86.8247 29.6455C86.3824 29.0919 85.8379 28.7805 85.1233 28.7805C84.6129 28.7805 84.1705 28.8843 83.7621 29.1265C83.3538 29.3687 82.9454 29.6801 82.5711 30.0952V36.1497C82.8093 36.2881 83.1156 36.3919 83.4559 36.4611C83.7962 36.5303 84.1365 36.5649 84.4427 36.5649C85.3955 36.5649 86.1782 36.2189 86.6886 35.4924ZM113.129 38.2601C113.027 37.8103 112.993 37.3259 112.959 36.7724C112.551 37.2567 112.074 37.6373 111.428 37.9833C110.815 38.3293 110.101 38.4676 109.284 38.4676C108.637 38.4676 108.059 38.3293 107.548 38.0871C107.038 37.8449 106.596 37.4643 106.289 36.9454C105.983 36.4264 105.813 35.8037 105.813 35.0771C105.813 33.97 106.187 33.1051 106.97 32.4477C107.753 31.7904 109.046 31.479 110.849 31.479C111.53 31.479 112.21 31.5136 112.857 31.6174V31.4098C112.857 30.4065 112.653 29.7146 112.244 29.2994C111.836 28.8842 111.224 28.6767 110.441 28.6767C109.896 28.6767 109.318 28.7459 108.705 28.9188C108.093 29.0918 107.548 29.2648 107.072 29.507L106.664 27.6388C107.106 27.4312 107.719 27.2236 108.467 27.0506C109.216 26.8776 109.999 26.7738 110.815 26.7738C111.768 26.7738 112.585 26.9122 113.265 27.2236C113.946 27.535 114.456 28.0193 114.831 28.7459C115.205 29.4724 115.409 30.4411 115.409 31.652V36.1496C115.409 36.5042 115.427 36.97 115.45 37.5607C115.459 37.7769 115.468 38.0098 115.477 38.2601H113.129ZM111.632 36.1496C112.176 35.9075 112.585 35.5615 112.925 35.1809V33.0705C112.244 33.0013 111.666 32.9667 111.224 32.9667C110.169 32.9667 109.454 33.1397 109.046 33.4857C108.637 33.8316 108.433 34.2814 108.433 34.8695C108.433 35.4231 108.569 35.8383 108.876 36.115C109.182 36.3918 109.556 36.5302 110.067 36.5302C110.577 36.5648 111.087 36.4264 111.632 36.1496ZM123.746 35.562V22.2076L126.264 22V35.1123C126.264 35.5966 126.332 35.9426 126.502 36.1502C126.672 36.3578 126.911 36.4616 127.285 36.4616C127.455 36.4616 127.659 36.427 127.965 36.3578L128.272 38.226C128.034 38.3298 127.727 38.399 127.387 38.4682C127.047 38.5374 126.706 38.572 126.4 38.572C124.631 38.4682 123.746 37.4995 123.746 35.562ZM131.403 32.9322H138.651V32.2403C138.651 31.2369 138.481 30.3028 138.14 29.4725C137.8 28.6422 137.29 27.9502 136.575 27.4659C135.894 26.9469 135.01 26.7047 133.955 26.7047C132.934 26.7047 132.049 26.9469 131.266 27.4313C130.484 27.9156 129.905 28.6076 129.463 29.5071C129.021 30.4066 128.816 31.4791 128.816 32.7246C128.816 33.9355 129.021 34.9388 129.429 35.8038C129.837 36.6687 130.45 37.326 131.266 37.7758C132.083 38.2256 133.07 38.4677 134.261 38.4677C135.792 38.4677 137.188 38.1564 138.447 37.5336L137.902 35.7692C137.392 35.9767 136.881 36.1497 136.337 36.2881C135.792 36.4265 135.248 36.4957 134.737 36.4957C132.628 36.4957 131.505 35.2848 131.403 32.9322ZM136.199 31.2715C136.161 30.3889 135.923 29.7089 135.52 29.2649C135.112 28.8151 134.601 28.573 133.921 28.573C133.274 28.573 132.73 28.8151 132.321 29.2649C131.879 29.7147 131.607 30.4066 131.471 31.2715H136.199ZM140.591 29.7838C140.591 29.3382 140.573 28.7331 140.551 27.956L140.551 27.9529C140.542 27.6448 140.532 27.3097 140.523 26.9468H142.905C142.939 27.2582 142.973 27.6387 143.007 28.0885C143.014 28.1898 143.022 28.2859 143.029 28.3771C143.054 28.6906 143.075 28.9466 143.075 29.161C143.381 28.6767 143.653 28.2615 143.959 27.9155C144.232 27.5696 144.572 27.2928 144.946 27.0852C145.321 26.8776 145.763 26.7738 146.239 26.7738C146.648 26.7738 146.954 26.8084 147.26 26.9122L146.954 29.161C146.716 29.0918 146.444 29.0572 146.137 29.0572C145.525 29.0572 145.014 29.1956 144.572 29.507C144.13 29.8184 143.653 30.3373 143.143 31.0293V38.2947H140.625V29.7838H140.591ZM147.77 42.654C148.009 42.7578 148.315 42.827 148.689 42.8962C149.063 42.9654 149.472 43 149.88 43C150.765 43 151.48 42.827 152.092 42.5156C152.671 42.1697 153.215 41.6853 153.657 41.028C154.1 40.3706 154.542 39.4711 154.916 38.3986L159 26.947H156.448L154.372 33.382C154.1 34.2123 153.896 35.0081 153.691 35.8384C153.589 35.2849 153.385 34.4199 153.045 33.3474L150.969 26.9815H148.247L152.33 38.364L152.16 38.7792C151.616 40.2668 150.765 40.9934 149.642 40.9934C149.431 40.9934 149.219 40.9661 148.984 40.9358C148.954 40.932 148.924 40.9281 148.893 40.9242C148.712 40.9011 148.561 40.8627 148.43 40.8294C148.364 40.8127 148.303 40.7973 148.247 40.7858L147.77 42.654Z" fill="white"/>
<path fill-rule="evenodd" clip-rule="evenodd" d="M77.4602 15.1691C77.7788 15.7549 78.2035 16.2374 78.8053 16.5476C79.3717 16.8578 80.0796 17.0301 80.9292 16.9957C81.7434 16.9957 82.4867 16.8233 83.0885 16.4787C83.6903 16.1685 84.1858 15.686 84.5044 15.0657C84.823 14.4453 85 13.7216 85 12.8944C85 12.1362 84.8584 11.4469 84.5398 10.8611C84.2212 10.2752 83.7611 9.79267 83.1947 9.4825C82.5929 9.17232 81.9204 9 81.1062 9C80.2566 9 79.5487 9.17232 78.9115 9.51696C78.3097 9.82714 77.8142 10.3096 77.4956 10.93C77.177 11.5503 77 12.2741 77 13.1012C77 13.8939 77.1416 14.5832 77.4602 15.1691ZM83.2655 14.5487C83.0531 14.9967 82.7699 15.3414 82.3805 15.5826C81.9912 15.8583 81.531 15.9617 81 16.0307C80.4336 16.0307 79.9735 15.9273 79.5841 15.6516C79.1947 15.3758 78.9115 15.0312 78.7345 14.5832C78.5575 14.1351 78.4513 13.6182 78.4513 13.0668C78.4513 12.5153 78.5221 12.0328 78.7345 11.5848C78.9469 11.1368 79.2301 10.7921 79.6195 10.5164C80.0089 10.2752 80.469 10.1373 81.0354 10.1373C81.6372 10.1373 82.0973 10.2407 82.4867 10.5164C82.8761 10.7577 83.1239 11.1023 83.3009 11.5503C83.4779 11.9639 83.5487 12.4809 83.5487 13.0323C83.5487 13.5837 83.4425 14.1007 83.2655 14.5487ZM53 9.1377H57.5381L57.4016 10.2405H54.3307V12.3773H57.231V13.4112H54.3307V15.7892H57.5722L57.4698 16.8921H53V9.1377ZM60.6771 12.9637L58.2886 9.13818H59.79L61.4278 11.9298L63.1338 9.13818H64.601L62.2125 12.8948L64.7716 16.927H63.2362L61.3936 13.8597L59.517 16.927H58.0498L60.6771 12.9637ZM67.8424 9.13818H65.761V16.927H67.0917V13.9631C67.467 14.0321 67.8082 14.0665 68.1153 14.0665C68.6613 14.0665 69.1389 13.9631 69.5484 13.7564C69.992 13.5496 70.299 13.2394 70.5379 12.8603C70.7767 12.4812 70.8791 12.0332 70.8791 11.5162C70.8791 10.758 70.6061 10.1721 70.0943 9.75854C69.5825 9.34497 68.8319 9.13818 67.8424 9.13818ZM69.5143 11.5162C69.5143 11.9987 69.3778 12.3433 69.1048 12.619C68.8319 12.8603 68.4224 12.9981 67.8424 12.9981C67.6718 12.9981 67.4329 12.9982 67.0917 12.9292V10.1721H67.8082C68.3542 10.1721 68.7977 10.2755 69.0707 10.4823C69.3778 10.6891 69.5143 11.0337 69.5143 11.5162ZM72.2441 9.13818H73.5407V15.7897H76.748L76.6457 16.927H72.2441V9.13818ZM86.1993 9.13818H88.6219C89.5091 9.13818 90.1573 9.3105 90.635 9.65514C91.0786 9.99978 91.3174 10.5167 91.3174 11.1716C91.3174 11.5851 91.2492 11.9642 91.0786 12.2744C90.908 12.5846 90.7033 12.8603 90.4644 13.0326C90.2256 13.2394 89.9867 13.3773 89.7138 13.4806L92.1022 16.927H90.5327L88.5196 13.8253H87.5301V16.927H86.1993V9.13818ZM88.2807 12.8258C88.5878 12.8258 88.8949 12.7569 89.1337 12.619C89.3726 12.4812 89.5773 12.3089 89.7138 12.0676C89.8503 11.8264 89.9185 11.5507 89.9185 11.275C89.9185 10.8958 89.782 10.5857 89.5432 10.4134C89.3043 10.241 88.929 10.1376 88.4854 10.1376H87.5301V12.7914H88.2807V12.8258ZM97.664 9.13818H93.126V16.8926H97.5958L97.6982 15.7897H94.4567V13.4117H97.3569V12.3778H94.4567V10.241H97.5275L97.664 9.13818ZM102.612 9.13818H103.942V16.927H102.612V9.13818ZM105.103 10.2406H107.457V16.9266H108.788V10.2406H111.074L111.21 9.10327H105.205L105.103 10.2406ZM117.011 16.5476C116.43 16.2374 116.021 15.7549 115.714 15.1691C115.407 14.5832 115.27 13.8939 115.27 13.1012C115.27 12.2741 115.441 11.5503 115.748 10.93C116.055 10.3096 116.533 9.82714 117.113 9.51696C117.727 9.17232 118.41 9 119.228 9C120.013 9 120.661 9.17232 121.242 9.4825C121.787 9.79267 122.231 10.2752 122.538 10.8611C122.845 11.4469 122.982 12.1362 122.982 12.8944C122.982 13.7216 122.811 14.4453 122.504 15.0657C122.197 15.686 121.719 16.1685 121.139 16.4787C120.559 16.8233 119.843 16.9957 119.058 16.9957C118.239 17.0301 117.556 16.8578 117.011 16.5476ZM120.457 15.5826C120.832 15.3414 121.105 14.9967 121.31 14.5487C121.48 14.1007 121.583 13.5837 121.583 13.0323C121.583 12.4809 121.514 11.9639 121.344 11.5503C121.173 11.1023 120.934 10.7577 120.559 10.5164C120.184 10.2407 119.74 10.1373 119.16 10.1373C118.614 10.1373 118.171 10.2752 117.795 10.5164C117.42 10.7921 117.147 11.1368 116.942 11.5848C116.738 12.0328 116.669 12.5153 116.669 13.0668C116.669 13.6182 116.772 14.1351 116.942 14.5832C117.113 15.0312 117.386 15.3758 117.761 15.6516C118.137 15.9273 118.58 16.0307 119.126 16.0307C119.604 15.9617 120.081 15.8583 120.457 15.5826ZM125.984 9.13818H124.483V16.927H125.711V12.6535C125.711 12.1579 125.684 11.6066 125.653 10.9996C125.65 10.9313 125.647 10.8622 125.643 10.7925L129.533 16.927H131V9.13818H129.772V13.584C129.772 14.0665 129.772 14.5835 129.806 15.1694L125.984 9.13818Z" fill="white"/>
<path fill-rule="evenodd" clip-rule="evenodd" d="M33.9966 9H20.0031C13.3941 9 11 11.4278 11 18.0031V31.9966C11 38.6056 13.4278 40.9997 20.0031 40.9997H33.9966C40.6056 40.9997 42.9997 38.5719 42.9997 31.9966V18.0031C43.0334 11.4278 40.6056 9 33.9966 9Z" fill="#C8102E"/>
<path d="M17.4113 25.3694H18.2638V29.5981H17.4113V27.893H15.4674V29.5981H14.6149V25.3694H15.4674V27.0745H17.4113V25.3694ZM22.2538 27.7907C22.2538 28.4727 21.9128 28.8478 21.2989 28.8478C20.6851 28.8478 20.3441 28.4727 20.3441 27.7566V25.3694H19.4915V27.7907C19.4915 28.9842 20.1395 29.6663 21.2989 29.6663C22.4584 29.6663 23.1405 28.9842 23.1405 27.7566V25.3694H22.2879V27.7907H22.2538ZM32.1776 28.2681L31.2227 25.3694H30.5066L29.5517 28.2681L28.631 25.3694H27.7102L29.1766 29.5981H29.8927L30.8476 26.8017L31.8025 29.5981H32.5186L33.985 25.3694H33.0984L32.1776 28.2681ZM35.5538 27.7907H37.1225V27.0063H35.5538V26.1537H37.8386V25.3694H34.7353V29.5981H37.9409V28.8137H35.5879V27.7907H35.5538ZM38.9299 29.5981H39.7824V25.3694H38.9299V29.5981ZM24.8115 28.7114L24.4364 29.5981H23.5497L25.3912 25.3694H26.1415L27.983 29.5981H27.0964L26.7553 28.7114H24.8115ZM25.1184 27.9612H26.4143L25.7664 26.4607L25.1184 27.9612Z" fill="white"/>
<path d="M27.1987 19.9814C24.2318 19.9814 21.8105 17.5602 21.8105 14.5933H22.5608C22.5608 17.1509 24.641 19.2312 27.1987 19.2312C29.7564 19.2312 31.8367 17.1509 31.8367 14.5933H32.5869C32.5869 17.5602 30.1656 19.9814 27.1987 19.9814Z" fill="white"/>
</svg>