<svg xmlns="http://www.w3.org/2000/svg" width="189" height="155" viewBox="0 0 189 155" fill="none">
<g style="mix-blend-mode:multiply">
<path d="M68.2929 78.1923C67.9024 77.8018 67.9024 77.1686 68.2929 76.7781C68.6834 76.3876 69.3166 76.3876 69.7071 76.7781C70.0976 77.1686 70.0976 77.8018 69.7071 78.1923C69.3166 78.5829 68.6834 78.5829 68.2929 78.1923Z" fill="#B0B0B0"/>
<path d="M76.7792 69.7071C76.3887 69.3166 76.3887 68.6834 76.7792 68.2929C77.1697 67.9024 77.8029 67.9024 78.1934 68.2929C78.584 68.6834 78.584 69.3166 78.1934 69.7071C77.8029 70.0976 77.1697 70.0976 76.7792 69.7071Z" fill="#B0B0B0"/>
<path d="M85.2646 78.1923C84.874 77.8018 84.874 77.1686 85.2646 76.7781C85.6551 76.3876 86.2883 76.3876 86.6788 76.7781C87.0693 77.1686 87.0693 77.8018 86.6788 78.1923C86.2883 78.5829 85.6551 78.5829 85.2646 78.1923Z" fill="#B0B0B0"/>
<path d="M76.7792 86.6776C76.3887 86.287 76.3887 85.6539 76.7792 85.2634C77.1697 84.8728 77.8029 84.8728 78.1934 85.2634C78.584 85.6539 78.584 86.287 78.1934 86.6776C77.8029 87.0681 77.1697 87.0681 76.7792 86.6776Z" fill="#B0B0B0"/>
<path d="M68.2929 44.1923C67.9024 43.8018 67.9024 43.1686 68.2929 42.7781C68.6834 42.3876 69.3166 42.3876 69.7071 42.7781C70.0976 43.1686 70.0976 43.8018 69.7071 44.1923C69.3166 44.5829 68.6834 44.5829 68.2929 44.1923Z" fill="#B0B0B0"/>
<path d="M76.7792 35.7071C76.3887 35.3166 76.3887 34.6834 76.7792 34.2929C77.1697 33.9024 77.8029 33.9024 78.1934 34.2929C78.584 34.6834 78.584 35.3166 78.1934 35.7071C77.8029 36.0976 77.1697 36.0976 76.7792 35.7071Z" fill="#B0B0B0"/>
<path d="M76.7792 44.1923C76.3887 43.8018 76.3887 43.1686 76.7792 42.7781C77.1697 42.3876 77.8029 42.3876 78.1934 42.7781C78.584 43.1686 78.584 43.8018 78.1934 44.1923C77.8029 44.5829 77.1697 44.5829 76.7792 44.1923Z" fill="#B0B0B0"/>
<path d="M76.7792 52.6776C76.3887 52.287 76.3887 51.6539 76.7792 51.2634C77.1697 50.8728 77.8029 50.8728 78.1934 51.2634C78.584 51.6539 78.584 52.287 78.1934 52.6776C77.8029 53.0681 77.1697 53.0681 76.7792 52.6776Z" fill="#B0B0B0"/>
<path d="M34.2929 78.1923C33.9024 77.8018 33.9024 77.1686 34.2929 76.7781C34.6834 76.3876 35.3166 76.3876 35.7071 76.7781C36.0976 77.1686 36.0976 77.8018 35.7071 78.1923C35.3166 78.5829 34.6834 78.5829 34.2929 78.1923Z" fill="#B0B0B0"/>
<path d="M42.7792 69.7071C42.3887 69.3166 42.3887 68.6834 42.7792 68.2929C43.1697 67.9024 43.8029 67.9024 44.1934 68.2929C44.584 68.6834 44.584 69.3166 44.1934 69.7071C43.8029 70.0976 43.1697 70.0976 42.7792 69.7071Z" fill="#B0B0B0"/>
<path d="M51.2646 78.1923C50.874 77.8018 50.874 77.1686 51.2646 76.7781C51.6551 76.3876 52.2883 76.3876 52.6788 76.7781C53.0693 77.1686 53.0693 77.8018 52.6788 78.1923C52.2883 78.5829 51.6551 78.5829 51.2646 78.1923Z" fill="#B0B0B0"/>
<path d="M42.7792 78.1923C42.3887 77.8018 42.3887 77.1686 42.7792 76.7781C43.1697 76.3876 43.8029 76.3876 44.1934 76.7781C44.584 77.1686 44.584 77.8018 44.1934 78.1923C43.8029 78.5829 43.1697 78.5829 42.7792 78.1923Z" fill="#B0B0B0"/>
<path d="M42.7792 86.6776C42.3887 86.287 42.3887 85.6539 42.7792 85.2634C43.1697 84.8728 43.8029 84.8728 44.1934 85.2634C44.584 85.6539 44.584 86.287 44.1934 86.6776C43.8029 87.0681 43.1697 87.0681 42.7792 86.6776Z" fill="#B0B0B0"/>
<path d="M34.2929 44.1923C33.9024 43.8018 33.9024 43.1686 34.2929 42.7781C34.6834 42.3876 35.3166 42.3876 35.7071 42.7781C36.0976 43.1686 36.0976 43.8018 35.7071 44.1923C35.3166 44.5829 34.6834 44.5829 34.2929 44.1923Z" fill="#B0B0B0"/>
<path d="M42.7792 35.7071C42.3887 35.3166 42.3887 34.6834 42.7792 34.2929C43.1697 33.9024 43.8029 33.9024 44.1934 34.2929C44.584 34.6834 44.584 35.3166 44.1934 35.7071C43.8029 36.0976 43.1697 36.0976 42.7792 35.7071Z" fill="#B0B0B0"/>
<path d="M51.2646 44.1923C50.874 43.8018 50.874 43.1686 51.2646 42.7781C51.6551 42.3876 52.2883 42.3876 52.6788 42.7781C53.0693 43.1686 53.0693 43.8018 52.6788 44.1923C52.2883 44.5829 51.6551 44.5829 51.2646 44.1923Z" fill="#B0B0B0"/>
<path d="M42.7792 52.6776C42.3887 52.287 42.3887 51.6539 42.7792 51.2634C43.1697 50.8728 43.8029 50.8728 44.1934 51.2634C44.584 51.6539 44.584 52.287 44.1934 52.6776C43.8029 53.0681 43.1697 53.0681 42.7792 52.6776Z" fill="#B0B0B0"/>
<path d="M68.2929 44.1923C67.9024 43.8018 67.9024 43.1686 68.2929 42.7781C68.6834 42.3876 69.3166 42.3876 69.7071 42.7781C70.0976 43.1686 70.0976 43.8018 69.7071 44.1923C69.3166 44.5829 68.6834 44.5829 68.2929 44.1923Z" fill="#B0B0B0"/>
<path d="M76.7792 35.7071C76.3887 35.3166 76.3887 34.6834 76.7792 34.2929C77.1697 33.9024 77.8029 33.9024 78.1934 34.2929C78.584 34.6834 78.584 35.3166 78.1934 35.7071C77.8029 36.0976 77.1697 36.0976 76.7792 35.7071Z" fill="#B0B0B0"/>
<path d="M76.7792 52.6776C76.3887 52.287 76.3887 51.6539 76.7792 51.2634C77.1697 50.8728 77.8029 50.8728 78.1934 51.2634C78.584 51.6539 78.584 52.287 78.1934 52.6776C77.8029 53.0681 77.1697 53.0681 76.7792 52.6776Z" fill="#B0B0B0"/>
<path d="M34.2929 44.1923C33.9024 43.8018 33.9024 43.1686 34.2929 42.7781C34.6834 42.3876 35.3166 42.3876 35.7071 42.7781C36.0976 43.1686 36.0976 43.8018 35.7071 44.1923C35.3166 44.5829 34.6834 44.5829 34.2929 44.1923Z" fill="#B0B0B0"/>
<path d="M42.7792 35.7071C42.3887 35.3166 42.3887 34.6834 42.7792 34.2929C43.1697 33.9024 43.8029 33.9024 44.1934 34.2929C44.584 34.6834 44.584 35.3166 44.1934 35.7071C43.8029 36.0976 43.1697 36.0976 42.7792 35.7071Z" fill="#B0B0B0"/>
<path d="M51.2646 44.1923C50.874 43.8018 50.874 43.1686 51.2646 42.7781C51.6551 42.3876 52.2883 42.3876 52.6788 42.7781C53.0693 43.1686 53.0693 43.8018 52.6788 44.1923C52.2883 44.5829 51.6551 44.5829 51.2646 44.1923Z" fill="#B0B0B0"/>
<path d="M42.7792 44.1923C42.3887 43.8018 42.3887 43.1686 42.7792 42.7781C43.1697 42.3876 43.8029 42.3876 44.1934 42.7781C44.584 43.1686 44.584 43.8018 44.1934 44.1923C43.8029 44.5829 43.1697 44.5829 42.7792 44.1923Z" fill="#B0B0B0"/>
<path d="M42.7792 52.6776C42.3887 52.287 42.3887 51.6539 42.7792 51.2634C43.1697 50.8728 43.8029 50.8728 44.1934 51.2634C44.584 51.6539 44.584 52.287 44.1934 52.6776C43.8029 53.0681 43.1697 53.0681 42.7792 52.6776Z" fill="#B0B0B0"/>
<path d="M34.2929 10.1923C33.9024 9.80181 33.9024 9.16865 34.2929 8.77812C34.6834 8.3876 35.3166 8.3876 35.7071 8.77812C36.0976 9.16865 36.0976 9.80181 35.7071 10.1923C35.3166 10.5829 34.6834 10.5829 34.2929 10.1923Z" fill="#B0B0B0"/>
<path d="M42.7792 1.70711C42.3887 1.31658 42.3887 0.683417 42.7792 0.292893C43.1697 -0.0976311 43.8029 -0.0976311 44.1934 0.292893C44.584 0.683418 44.584 1.31658 44.1934 1.70711C43.8029 2.09763 43.1697 2.09763 42.7792 1.70711Z" fill="#B0B0B0"/>
<path d="M51.2646 10.1923C50.874 9.80181 50.874 9.16865 51.2646 8.77812C51.6551 8.3876 52.2883 8.3876 52.6788 8.77812C53.0693 9.16865 53.0693 9.80181 52.6788 10.1923C52.2883 10.5829 51.6551 10.5829 51.2646 10.1923Z" fill="#B0B0B0"/>
<path d="M42.7792 18.6776C42.3887 18.287 42.3887 17.6539 42.7792 17.2634C43.1697 16.8728 43.8029 16.8728 44.1934 17.2634C44.584 17.6539 44.584 18.287 44.1934 18.6776C43.8029 19.0681 43.1697 19.0681 42.7792 18.6776Z" fill="#B0B0B0"/>
<path d="M34.2929 78.1923C33.9024 77.8018 33.9024 77.1686 34.2929 76.7781C34.6834 76.3876 35.3166 76.3876 35.7071 76.7781C36.0976 77.1686 36.0976 77.8018 35.7071 78.1923C35.3166 78.5829 34.6834 78.5829 34.2929 78.1923Z" fill="#B0B0B0"/>
<path d="M42.7792 69.7071C42.3887 69.3166 42.3887 68.6834 42.7792 68.2929C43.1697 67.9024 43.8029 67.9024 44.1934 68.2929C44.584 68.6834 44.584 69.3166 44.1934 69.7071C43.8029 70.0976 43.1697 70.0976 42.7792 69.7071Z" fill="#B0B0B0"/>
<path d="M51.2646 78.1923C50.874 77.8018 50.874 77.1686 51.2646 76.7781C51.6551 76.3876 52.2883 76.3876 52.6788 76.7781C53.0693 77.1686 53.0693 77.8018 52.6788 78.1923C52.2883 78.5829 51.6551 78.5829 51.2646 78.1923Z" fill="#B0B0B0"/>
<path d="M42.7792 86.6776C42.3887 86.287 42.3887 85.6539 42.7792 85.2634C43.1697 84.8728 43.8029 84.8728 44.1934 85.2634C44.584 85.6539 44.584 86.287 44.1934 86.6776C43.8029 87.0681 43.1697 87.0681 42.7792 86.6776Z" fill="#B0B0B0"/>
<path d="M0.292893 78.1923C-0.0976311 77.8018 -0.0976311 77.1686 0.292893 76.7781C0.683418 76.3876 1.31658 76.3876 1.70711 76.7781C2.09763 77.1686 2.09763 77.8018 1.70711 78.1923C1.31658 78.5829 0.683417 78.5829 0.292893 78.1923Z" fill="#B0B0B0"/>
<path d="M8.77922 69.7071C8.3887 69.3166 8.3887 68.6834 8.77922 68.2929C9.16975 67.9024 9.80291 67.9024 10.1934 68.2929C10.584 68.6834 10.584 69.3166 10.1934 69.7071C9.80291 70.0976 9.16975 70.0976 8.77922 69.7071Z" fill="#B0B0B0"/>
<path d="M17.2646 78.1923C16.874 77.8018 16.874 77.1686 17.2646 76.7781C17.6551 76.3876 18.2883 76.3876 18.6788 76.7781C19.0693 77.1686 19.0693 77.8018 18.6788 78.1923C18.2883 78.5829 17.6551 78.5829 17.2646 78.1923Z" fill="#B0B0B0"/>
<path d="M8.77922 78.1923C8.3887 77.8018 8.3887 77.1686 8.77922 76.7781C9.16975 76.3876 9.80291 76.3876 10.1934 76.7781C10.584 77.1686 10.584 77.8018 10.1934 78.1923C9.80291 78.5829 9.16975 78.5829 8.77922 78.1923Z" fill="#B0B0B0"/>
<path d="M8.77922 86.6776C8.3887 86.287 8.3887 85.6539 8.77922 85.2634C9.16975 84.8728 9.80291 84.8728 10.1934 85.2634C10.584 85.6539 10.584 86.287 10.1934 86.6776C9.80291 87.0681 9.16975 87.0681 8.77922 86.6776Z" fill="#B0B0B0"/>
<path d="M34.2929 44.1923C33.9024 43.8018 33.9024 43.1686 34.2929 42.7781C34.6834 42.3876 35.3166 42.3876 35.7071 42.7781C36.0976 43.1686 36.0976 43.8018 35.7071 44.1923C35.3166 44.5829 34.6834 44.5829 34.2929 44.1923Z" fill="#B0B0B0"/>
<path d="M42.7792 35.7071C42.3887 35.3166 42.3887 34.6834 42.7792 34.2929C43.1697 33.9024 43.8029 33.9024 44.1934 34.2929C44.584 34.6834 44.584 35.3166 44.1934 35.7071C43.8029 36.0976 43.1697 36.0976 42.7792 35.7071Z" fill="#B0B0B0"/>
<path d="M51.2646 44.1923C50.874 43.8018 50.874 43.1686 51.2646 42.7781C51.6551 42.3876 52.2883 42.3876 52.6788 42.7781C53.0693 43.1686 53.0693 43.8018 52.6788 44.1923C52.2883 44.5829 51.6551 44.5829 51.2646 44.1923Z" fill="#B0B0B0"/>
<path d="M42.7792 52.6776C42.3887 52.287 42.3887 51.6539 42.7792 51.2634C43.1697 50.8728 43.8029 50.8728 44.1934 51.2634C44.584 51.6539 44.584 52.287 44.1934 52.6776C43.8029 53.0681 43.1697 53.0681 42.7792 52.6776Z" fill="#B0B0B0"/>
<path d="M34.2929 10.1923C33.9024 9.80181 33.9024 9.16865 34.2929 8.77812C34.6834 8.3876 35.3166 8.3876 35.7071 8.77812C36.0976 9.16865 36.0976 9.80181 35.7071 10.1923C35.3166 10.5829 34.6834 10.5829 34.2929 10.1923Z" fill="#B0B0B0"/>
<path d="M42.7792 1.70711C42.3887 1.31658 42.3887 0.683417 42.7792 0.292893C43.1697 -0.0976311 43.8029 -0.0976311 44.1934 0.292893C44.584 0.683418 44.584 1.31658 44.1934 1.70711C43.8029 2.09763 43.1697 2.09763 42.7792 1.70711Z" fill="#B0B0B0"/>
<path d="M51.2646 10.1923C50.874 9.80181 50.874 9.16865 51.2646 8.77812C51.6551 8.3876 52.2883 8.3876 52.6788 8.77812C53.0693 9.16865 53.0693 9.80181 52.6788 10.1923C52.2883 10.5829 51.6551 10.5829 51.2646 10.1923Z" fill="#B0B0B0"/>
<path d="M42.7792 10.1923C42.3887 9.80181 42.3887 9.16865 42.7792 8.77812C43.1697 8.3876 43.8029 8.3876 44.1934 8.77812C44.584 9.16865 44.584 9.80181 44.1934 10.1923C43.8029 10.5829 43.1697 10.5829 42.7792 10.1923Z" fill="#B0B0B0"/>
<path d="M42.7792 18.6776C42.3887 18.287 42.3887 17.6539 42.7792 17.2634C43.1697 16.8728 43.8029 16.8728 44.1934 17.2634C44.584 17.6539 44.584 18.287 44.1934 18.6776C43.8029 19.0681 43.1697 19.0681 42.7792 18.6776Z" fill="#B0B0B0"/>
<path d="M0.292893 44.1923C-0.0976311 43.8018 -0.0976311 43.1686 0.292893 42.7781C0.683418 42.3876 1.31658 42.3876 1.70711 42.7781C2.09763 43.1686 2.09763 43.8018 1.70711 44.1923C1.31658 44.5829 0.683417 44.5829 0.292893 44.1923Z" fill="#B0B0B0"/>
<path d="M8.77922 35.7071C8.3887 35.3166 8.3887 34.6834 8.77922 34.2929C9.16975 33.9024 9.80291 33.9024 10.1934 34.2929C10.584 34.6834 10.584 35.3166 10.1934 35.7071C9.80291 36.0976 9.16975 36.0976 8.77922 35.7071Z" fill="#B0B0B0"/>
<path d="M17.2646 44.1923C16.874 43.8018 16.874 43.1686 17.2646 42.7781C17.6551 42.3876 18.2883 42.3876 18.6788 42.7781C19.0693 43.1686 19.0693 43.8018 18.6788 44.1923C18.2883 44.5829 17.6551 44.5829 17.2646 44.1923Z" fill="#B0B0B0"/>
<path d="M8.77922 44.1923C8.3887 43.8018 8.3887 43.1686 8.77922 42.7781C9.16975 42.3876 9.80291 42.3876 10.1934 42.7781C10.584 43.1686 10.584 43.8018 10.1934 44.1923C9.80291 44.5829 9.16975 44.5829 8.77922 44.1923Z" fill="#B0B0B0"/>
<path d="M8.77922 52.6776C8.3887 52.287 8.3887 51.6539 8.77922 51.2634C9.16975 50.8728 9.80291 50.8728 10.1934 51.2634C10.584 51.6539 10.584 52.287 10.1934 52.6776C9.80291 53.0681 9.16975 53.0681 8.77922 52.6776Z" fill="#B0B0B0"/>
<path d="M0.292893 10.1923C-0.0976311 9.80181 -0.0976311 9.16865 0.292893 8.77812C0.683418 8.3876 1.31658 8.3876 1.70711 8.77812C2.09763 9.16865 2.09763 9.80181 1.70711 10.1923C1.31658 10.5829 0.683417 10.5829 0.292893 10.1923Z" fill="#B0B0B0"/>
<path d="M8.77922 1.70711C8.3887 1.31658 8.3887 0.683417 8.77922 0.292893C9.16975 -0.0976311 9.80291 -0.0976311 10.1934 0.292893C10.584 0.683418 10.584 1.31658 10.1934 1.70711C9.80291 2.09763 9.16975 2.09763 8.77922 1.70711Z" fill="#B0B0B0"/>
<path d="M17.2646 10.1923C16.874 9.80181 16.874 9.16865 17.2646 8.77812C17.6551 8.3876 18.2883 8.3876 18.6788 8.77812C19.0693 9.16865 19.0693 9.80181 18.6788 10.1923C18.2883 10.5829 17.6551 10.5829 17.2646 10.1923Z" fill="#B0B0B0"/>
<path d="M8.77922 18.6776C8.3887 18.287 8.3887 17.6539 8.77922 17.2634C9.16975 16.8728 9.80291 16.8728 10.1934 17.2634C10.584 17.6539 10.584 18.287 10.1934 18.6776C9.80291 19.0681 9.16975 19.0681 8.77922 18.6776Z" fill="#B0B0B0"/>
<path d="M68.2929 146.192C67.9024 145.802 67.9024 145.169 68.2929 144.778C68.6834 144.388 69.3166 144.388 69.7071 144.778C70.0976 145.169 70.0976 145.802 69.7071 146.192C69.3166 146.583 68.6834 146.583 68.2929 146.192Z" fill="#B0B0B0"/>
<path d="M76.7792 137.707C76.3887 137.317 76.3887 136.683 76.7792 136.293C77.1697 135.902 77.8029 135.902 78.1934 136.293C78.584 136.683 78.584 137.317 78.1934 137.707C77.8029 138.098 77.1697 138.098 76.7792 137.707Z" fill="#B0B0B0"/>
<path d="M85.2646 146.192C84.874 145.802 84.874 145.169 85.2646 144.778C85.6551 144.388 86.2883 144.388 86.6788 144.778C87.0693 145.169 87.0693 145.802 86.6788 146.192C86.2883 146.583 85.6551 146.583 85.2646 146.192Z" fill="#B0B0B0"/>
<path d="M76.7792 154.678C76.3887 154.287 76.3887 153.654 76.7792 153.263C77.1697 152.873 77.8029 152.873 78.1934 153.263C78.584 153.654 78.584 154.287 78.1934 154.678C77.8029 155.068 77.1697 155.068 76.7792 154.678Z" fill="#B0B0B0"/>
<path d="M68.2929 112.192C67.9024 111.802 67.9024 111.169 68.2929 110.778C68.6834 110.388 69.3166 110.388 69.7071 110.778C70.0976 111.169 70.0976 111.802 69.7071 112.192C69.3166 112.583 68.6834 112.583 68.2929 112.192Z" fill="#B0B0B0"/>
<path d="M76.7792 103.707C76.3887 103.317 76.3887 102.683 76.7792 102.293C77.1697 101.902 77.8029 101.902 78.1934 102.293C78.584 102.683 78.584 103.317 78.1934 103.707C77.8029 104.098 77.1697 104.098 76.7792 103.707Z" fill="#B0B0B0"/>
<path d="M85.2646 112.192C84.874 111.802 84.874 111.169 85.2646 110.778C85.6551 110.388 86.2883 110.388 86.6788 110.778C87.0693 111.169 87.0693 111.802 86.6788 112.192C86.2883 112.583 85.6551 112.583 85.2646 112.192Z" fill="#B0B0B0"/>
<path d="M76.7792 112.192C76.3887 111.802 76.3887 111.169 76.7792 110.778C77.1697 110.388 77.8029 110.388 78.1934 110.778C78.584 111.169 78.584 111.802 78.1934 112.192C77.8029 112.583 77.1697 112.583 76.7792 112.192Z" fill="#B0B0B0"/>
<path d="M76.7792 120.678C76.3887 120.287 76.3887 119.654 76.7792 119.263C77.1697 118.873 77.8029 118.873 78.1934 119.263C78.584 119.654 78.584 120.287 78.1934 120.678C77.8029 121.068 77.1697 121.068 76.7792 120.678Z" fill="#B0B0B0"/>
<path d="M34.2929 146.192C33.9024 145.802 33.9024 145.169 34.2929 144.778C34.6834 144.388 35.3166 144.388 35.7071 144.778C36.0976 145.169 36.0976 145.802 35.7071 146.192C35.3166 146.583 34.6834 146.583 34.2929 146.192Z" fill="#B0B0B0"/>
<path d="M42.7792 137.707C42.3887 137.317 42.3887 136.683 42.7792 136.293C43.1697 135.902 43.8029 135.902 44.1934 136.293C44.584 136.683 44.584 137.317 44.1934 137.707C43.8029 138.098 43.1697 138.098 42.7792 137.707Z" fill="#B0B0B0"/>
<path d="M51.2646 146.192C50.874 145.802 50.874 145.169 51.2646 144.778C51.6551 144.388 52.2883 144.388 52.6788 144.778C53.0693 145.169 53.0693 145.802 52.6788 146.192C52.2883 146.583 51.6551 146.583 51.2646 146.192Z" fill="#B0B0B0"/>
<path d="M42.7792 146.192C42.3887 145.802 42.3887 145.169 42.7792 144.778C43.1697 144.388 43.8029 144.388 44.1934 144.778C44.584 145.169 44.584 145.802 44.1934 146.192C43.8029 146.583 43.1697 146.583 42.7792 146.192Z" fill="#B0B0B0"/>
<path d="M42.7792 154.678C42.3887 154.287 42.3887 153.654 42.7792 153.263C43.1697 152.873 43.8029 152.873 44.1934 153.263C44.584 153.654 44.584 154.287 44.1934 154.678C43.8029 155.068 43.1697 155.068 42.7792 154.678Z" fill="#B0B0B0"/>
<path d="M34.2929 112.192C33.9024 111.802 33.9024 111.169 34.2929 110.778C34.6834 110.388 35.3166 110.388 35.7071 110.778C36.0976 111.169 36.0976 111.802 35.7071 112.192C35.3166 112.583 34.6834 112.583 34.2929 112.192Z" fill="#B0B0B0"/>
<path d="M42.7792 103.707C42.3887 103.317 42.3887 102.683 42.7792 102.293C43.1697 101.902 43.8029 101.902 44.1934 102.293C44.584 102.683 44.584 103.317 44.1934 103.707C43.8029 104.098 43.1697 104.098 42.7792 103.707Z" fill="#B0B0B0"/>
<path d="M51.2646 112.192C50.874 111.802 50.874 111.169 51.2646 110.778C51.6551 110.388 52.2883 110.388 52.6788 110.778C53.0693 111.169 53.0693 111.802 52.6788 112.192C52.2883 112.583 51.6551 112.583 51.2646 112.192Z" fill="#B0B0B0"/>
<path d="M42.7792 120.678C42.3887 120.287 42.3887 119.654 42.7792 119.263C43.1697 118.873 43.8029 118.873 44.1934 119.263C44.584 119.654 44.584 120.287 44.1934 120.678C43.8029 121.068 43.1697 121.068 42.7792 120.678Z" fill="#B0B0B0"/>
<path d="M68.2929 112.192C67.9024 111.802 67.9024 111.169 68.2929 110.778C68.6834 110.388 69.3166 110.388 69.7071 110.778C70.0976 111.169 70.0976 111.802 69.7071 112.192C69.3166 112.583 68.6834 112.583 68.2929 112.192Z" fill="#B0B0B0"/>
<path d="M76.7792 103.707C76.3887 103.317 76.3887 102.683 76.7792 102.293C77.1697 101.902 77.8029 101.902 78.1934 102.293C78.584 102.683 78.584 103.317 78.1934 103.707C77.8029 104.098 77.1697 104.098 76.7792 103.707Z" fill="#B0B0B0"/>
<path d="M85.2646 112.192C84.874 111.802 84.874 111.169 85.2646 110.778C85.6551 110.388 86.2883 110.388 86.6788 110.778C87.0693 111.169 87.0693 111.802 86.6788 112.192C86.2883 112.583 85.6551 112.583 85.2646 112.192Z" fill="#B0B0B0"/>
<path d="M76.7792 120.678C76.3887 120.287 76.3887 119.654 76.7792 119.263C77.1697 118.873 77.8029 118.873 78.1934 119.263C78.584 119.654 78.584 120.287 78.1934 120.678C77.8029 121.068 77.1697 121.068 76.7792 120.678Z" fill="#B0B0B0"/>
<path d="M68.2929 78.1923C67.9024 77.8018 67.9024 77.1686 68.2929 76.7781C68.6834 76.3876 69.3166 76.3876 69.7071 76.7781C70.0976 77.1686 70.0976 77.8018 69.7071 78.1923C69.3166 78.5829 68.6834 78.5829 68.2929 78.1923Z" fill="#B0B0B0"/>
<path d="M76.7792 69.7071C76.3887 69.3166 76.3887 68.6834 76.7792 68.2929C77.1697 67.9024 77.8029 67.9024 78.1934 68.2929C78.584 68.6834 78.584 69.3166 78.1934 69.7071C77.8029 70.0976 77.1697 70.0976 76.7792 69.7071Z" fill="#B0B0B0"/>
<path d="M85.2646 78.1923C84.874 77.8018 84.874 77.1686 85.2646 76.7781C85.6551 76.3876 86.2883 76.3876 86.6788 76.7781C87.0693 77.1686 87.0693 77.8018 86.6788 78.1923C86.2883 78.5829 85.6551 78.5829 85.2646 78.1923Z" fill="#B0B0B0"/>
<path d="M76.7792 78.1923C76.3887 77.8018 76.3887 77.1686 76.7792 76.7781C77.1697 76.3876 77.8029 76.3876 78.1934 76.7781C78.584 77.1686 78.584 77.8018 78.1934 78.1923C77.8029 78.5829 77.1697 78.5829 76.7792 78.1923Z" fill="#B0B0B0"/>
<path d="M76.7792 86.6776C76.3887 86.287 76.3887 85.6539 76.7792 85.2634C77.1697 84.8728 77.8029 84.8728 78.1934 85.2634C78.584 85.6539 78.584 86.287 78.1934 86.6776C77.8029 87.0681 77.1697 87.0681 76.7792 86.6776Z" fill="#B0B0B0"/>
<path d="M34.2929 112.192C33.9024 111.802 33.9024 111.169 34.2929 110.778C34.6834 110.388 35.3166 110.388 35.7071 110.778C36.0976 111.169 36.0976 111.802 35.7071 112.192C35.3166 112.583 34.6834 112.583 34.2929 112.192Z" fill="#B0B0B0"/>
<path d="M42.7792 103.707C42.3887 103.317 42.3887 102.683 42.7792 102.293C43.1697 101.902 43.8029 101.902 44.1934 102.293C44.584 102.683 44.584 103.317 44.1934 103.707C43.8029 104.098 43.1697 104.098 42.7792 103.707Z" fill="#B0B0B0"/>
<path d="M51.2646 112.192C50.874 111.802 50.874 111.169 51.2646 110.778C51.6551 110.388 52.2883 110.388 52.6788 110.778C53.0693 111.169 53.0693 111.802 52.6788 112.192C52.2883 112.583 51.6551 112.583 51.2646 112.192Z" fill="#B0B0B0"/>
<path d="M42.7792 112.192C42.3887 111.802 42.3887 111.169 42.7792 110.778C43.1697 110.388 43.8029 110.388 44.1934 110.778C44.584 111.169 44.584 111.802 44.1934 112.192C43.8029 112.583 43.1697 112.583 42.7792 112.192Z" fill="#B0B0B0"/>
<path d="M42.7792 120.678C42.3887 120.287 42.3887 119.654 42.7792 119.263C43.1697 118.873 43.8029 118.873 44.1934 119.263C44.584 119.654 44.584 120.287 44.1934 120.678C43.8029 121.068 43.1697 121.068 42.7792 120.678Z" fill="#B0B0B0"/>
<path d="M34.2929 78.1923C33.9024 77.8018 33.9024 77.1686 34.2929 76.7781C34.6834 76.3876 35.3166 76.3876 35.7071 76.7781C36.0976 77.1686 36.0976 77.8018 35.7071 78.1923C35.3166 78.5829 34.6834 78.5829 34.2929 78.1923Z" fill="#B0B0B0"/>
<path d="M42.7792 69.7071C42.3887 69.3166 42.3887 68.6834 42.7792 68.2929C43.1697 67.9024 43.8029 67.9024 44.1934 68.2929C44.584 68.6834 44.584 69.3166 44.1934 69.7071C43.8029 70.0976 43.1697 70.0976 42.7792 69.7071Z" fill="#B0B0B0"/>
<path d="M51.2646 78.1923C50.874 77.8018 50.874 77.1686 51.2646 76.7781C51.6551 76.3876 52.2883 76.3876 52.6788 76.7781C53.0693 77.1686 53.0693 77.8018 52.6788 78.1923C52.2883 78.5829 51.6551 78.5829 51.2646 78.1923Z" fill="#B0B0B0"/>
<path d="M42.7792 86.6776C42.3887 86.287 42.3887 85.6539 42.7792 85.2634C43.1697 84.8728 43.8029 84.8728 44.1934 85.2634C44.584 85.6539 44.584 86.287 44.1934 86.6776C43.8029 87.0681 43.1697 87.0681 42.7792 86.6776Z" fill="#B0B0B0"/>
<path d="M34.2929 146.192C33.9024 145.802 33.9024 145.169 34.2929 144.778C34.6834 144.388 35.3166 144.388 35.7071 144.778C36.0976 145.169 36.0976 145.802 35.7071 146.192C35.3166 146.583 34.6834 146.583 34.2929 146.192Z" fill="#B0B0B0"/>
<path d="M42.7792 137.707C42.3887 137.317 42.3887 136.683 42.7792 136.293C43.1697 135.902 43.8029 135.902 44.1934 136.293C44.584 136.683 44.584 137.317 44.1934 137.707C43.8029 138.098 43.1697 138.098 42.7792 137.707Z" fill="#B0B0B0"/>
<path d="M51.2646 146.192C50.874 145.802 50.874 145.169 51.2646 144.778C51.6551 144.388 52.2883 144.388 52.6788 144.778C53.0693 145.169 53.0693 145.802 52.6788 146.192C52.2883 146.583 51.6551 146.583 51.2646 146.192Z" fill="#B0B0B0"/>
<path d="M42.7792 154.678C42.3887 154.287 42.3887 153.654 42.7792 153.263C43.1697 152.873 43.8029 152.873 44.1934 153.263C44.584 153.654 44.584 154.287 44.1934 154.678C43.8029 155.068 43.1697 155.068 42.7792 154.678Z" fill="#B0B0B0"/>
<path d="M0.292893 146.192C-0.0976311 145.802 -0.0976311 145.169 0.292893 144.778C0.683418 144.388 1.31658 144.388 1.70711 144.778C2.09763 145.169 2.09763 145.802 1.70711 146.192C1.31658 146.583 0.683417 146.583 0.292893 146.192Z" fill="#B0B0B0"/>
<path d="M8.77922 137.707C8.3887 137.317 8.3887 136.683 8.77922 136.293C9.16975 135.902 9.80291 135.902 10.1934 136.293C10.584 136.683 10.584 137.317 10.1934 137.707C9.80291 138.098 9.16975 138.098 8.77922 137.707Z" fill="#B0B0B0"/>
<path d="M17.2646 146.192C16.874 145.802 16.874 145.169 17.2646 144.778C17.6551 144.388 18.2883 144.388 18.6788 144.778C19.0693 145.169 19.0693 145.802 18.6788 146.192C18.2883 146.583 17.6551 146.583 17.2646 146.192Z" fill="#B0B0B0"/>
<path d="M8.77922 146.192C8.3887 145.802 8.3887 145.169 8.77922 144.778C9.16975 144.388 9.80291 144.388 10.1934 144.778C10.584 145.169 10.584 145.802 10.1934 146.192C9.80291 146.583 9.16975 146.583 8.77922 146.192Z" fill="#B0B0B0"/>
<path d="M8.77922 154.678C8.3887 154.287 8.3887 153.654 8.77922 153.263C9.16975 152.873 9.80291 152.873 10.1934 153.263C10.584 153.654 10.584 154.287 10.1934 154.678C9.80291 155.068 9.16975 155.068 8.77922 154.678Z" fill="#B0B0B0"/>
<path d="M34.2929 112.192C33.9024 111.802 33.9024 111.169 34.2929 110.778C34.6834 110.388 35.3166 110.388 35.7071 110.778C36.0976 111.169 36.0976 111.802 35.7071 112.192C35.3166 112.583 34.6834 112.583 34.2929 112.192Z" fill="#B0B0B0"/>
<path d="M42.7792 103.707C42.3887 103.317 42.3887 102.683 42.7792 102.293C43.1697 101.902 43.8029 101.902 44.1934 102.293C44.584 102.683 44.584 103.317 44.1934 103.707C43.8029 104.098 43.1697 104.098 42.7792 103.707Z" fill="#B0B0B0"/>
<path d="M51.2646 112.192C50.874 111.802 50.874 111.169 51.2646 110.778C51.6551 110.388 52.2883 110.388 52.6788 110.778C53.0693 111.169 53.0693 111.802 52.6788 112.192C52.2883 112.583 51.6551 112.583 51.2646 112.192Z" fill="#B0B0B0"/>
<path d="M42.7792 120.678C42.3887 120.287 42.3887 119.654 42.7792 119.263C43.1697 118.873 43.8029 118.873 44.1934 119.263C44.584 119.654 44.584 120.287 44.1934 120.678C43.8029 121.068 43.1697 121.068 42.7792 120.678Z" fill="#B0B0B0"/>
<path d="M34.2929 78.1923C33.9024 77.8018 33.9024 77.1686 34.2929 76.7781C34.6834 76.3876 35.3166 76.3876 35.7071 76.7781C36.0976 77.1686 36.0976 77.8018 35.7071 78.1923C35.3166 78.5829 34.6834 78.5829 34.2929 78.1923Z" fill="#B0B0B0"/>
<path d="M42.7792 69.7071C42.3887 69.3166 42.3887 68.6834 42.7792 68.2929C43.1697 67.9024 43.8029 67.9024 44.1934 68.2929C44.584 68.6834 44.584 69.3166 44.1934 69.7071C43.8029 70.0976 43.1697 70.0976 42.7792 69.7071Z" fill="#B0B0B0"/>
<path d="M51.2646 78.1923C50.874 77.8018 50.874 77.1686 51.2646 76.7781C51.6551 76.3876 52.2883 76.3876 52.6788 76.7781C53.0693 77.1686 53.0693 77.8018 52.6788 78.1923C52.2883 78.5829 51.6551 78.5829 51.2646 78.1923Z" fill="#B0B0B0"/>
<path d="M42.7792 78.1923C42.3887 77.8018 42.3887 77.1686 42.7792 76.7781C43.1697 76.3876 43.8029 76.3876 44.1934 76.7781C44.584 77.1686 44.584 77.8018 44.1934 78.1923C43.8029 78.5829 43.1697 78.5829 42.7792 78.1923Z" fill="#B0B0B0"/>
<path d="M42.7792 86.6776C42.3887 86.287 42.3887 85.6539 42.7792 85.2634C43.1697 84.8728 43.8029 84.8728 44.1934 85.2634C44.584 85.6539 44.584 86.287 44.1934 86.6776C43.8029 87.0681 43.1697 87.0681 42.7792 86.6776Z" fill="#B0B0B0"/>
<path d="M0.292893 112.192C-0.0976311 111.802 -0.0976311 111.169 0.292893 110.778C0.683418 110.388 1.31658 110.388 1.70711 110.778C2.09763 111.169 2.09763 111.802 1.70711 112.192C1.31658 112.583 0.683417 112.583 0.292893 112.192Z" fill="#B0B0B0"/>
<path d="M8.77922 103.707C8.3887 103.317 8.3887 102.683 8.77922 102.293C9.16975 101.902 9.80291 101.902 10.1934 102.293C10.584 102.683 10.584 103.317 10.1934 103.707C9.80291 104.098 9.16975 104.098 8.77922 103.707Z" fill="#B0B0B0"/>
<path d="M17.2646 112.192C16.874 111.802 16.874 111.169 17.2646 110.778C17.6551 110.388 18.2883 110.388 18.6788 110.778C19.0693 111.169 19.0693 111.802 18.6788 112.192C18.2883 112.583 17.6551 112.583 17.2646 112.192Z" fill="#B0B0B0"/>
<path d="M8.77922 112.192C8.3887 111.802 8.3887 111.169 8.77922 110.778C9.16975 110.388 9.80291 110.388 10.1934 110.778C10.584 111.169 10.584 111.802 10.1934 112.192C9.80291 112.583 9.16975 112.583 8.77922 112.192Z" fill="#B0B0B0"/>
<path d="M8.77922 120.678C8.3887 120.287 8.3887 119.654 8.77922 119.263C9.16975 118.873 9.80291 118.873 10.1934 119.263C10.584 119.654 10.584 120.287 10.1934 120.678C9.80291 121.068 9.16975 121.068 8.77922 120.678Z" fill="#B0B0B0"/>
<path d="M0.292893 78.1923C-0.0976311 77.8018 -0.0976311 77.1686 0.292893 76.7781C0.683418 76.3876 1.31658 76.3876 1.70711 76.7781C2.09763 77.1686 2.09763 77.8018 1.70711 78.1923C1.31658 78.5829 0.683417 78.5829 0.292893 78.1923Z" fill="#B0B0B0"/>
<path d="M8.77922 69.7071C8.3887 69.3166 8.3887 68.6834 8.77922 68.2929C9.16975 67.9024 9.80291 67.9024 10.1934 68.2929C10.584 68.6834 10.584 69.3166 10.1934 69.7071C9.80291 70.0976 9.16975 70.0976 8.77922 69.7071Z" fill="#B0B0B0"/>
<path d="M17.2646 78.1923C16.874 77.8018 16.874 77.1686 17.2646 76.7781C17.6551 76.3876 18.2883 76.3876 18.6788 76.7781C19.0693 77.1686 19.0693 77.8018 18.6788 78.1923C18.2883 78.5829 17.6551 78.5829 17.2646 78.1923Z" fill="#B0B0B0"/>
<path d="M8.77922 86.6776C8.3887 86.287 8.3887 85.6539 8.77922 85.2634C9.16975 84.8728 9.80291 84.8728 10.1934 85.2634C10.584 85.6539 10.584 86.287 10.1934 86.6776C9.80291 87.0681 9.16975 87.0681 8.77922 86.6776Z" fill="#B0B0B0"/>
<path d="M68.2929 78.1357C67.9024 77.7452 67.9024 77.112 68.2929 76.7215C68.6834 76.331 69.3166 76.331 69.7071 76.7215C70.0976 77.112 70.0976 77.7452 69.7071 78.1357C69.3166 78.5262 68.6834 78.5262 68.2929 78.1357Z" fill="#B0B0B0"/>
<path d="M76.7792 69.6505C76.3887 69.2599 76.3887 68.6268 76.7792 68.2363C77.1697 67.8457 77.8029 67.8457 78.1934 68.2363C78.584 68.6268 78.584 69.2599 78.1934 69.6505C77.8029 70.041 77.1697 70.041 76.7792 69.6505Z" fill="#B0B0B0"/>
<path d="M85.2646 78.1357C84.874 77.7452 84.874 77.112 85.2646 76.7215C85.6551 76.331 86.2883 76.331 86.6788 76.7215C87.0693 77.112 87.0693 77.7452 86.6788 78.1357C86.2883 78.5262 85.6551 78.5262 85.2646 78.1357Z" fill="#B0B0B0"/>
<path d="M76.7792 78.1357C76.3887 77.7452 76.3887 77.112 76.7792 76.7215C77.1697 76.331 77.8029 76.331 78.1934 76.7215C78.584 77.112 78.584 77.7452 78.1934 78.1357C77.8029 78.5262 77.1697 78.5262 76.7792 78.1357Z" fill="#B0B0B0"/>
<path d="M76.7792 86.6209C76.3887 86.2304 76.3887 85.5973 76.7792 85.2067C77.1697 84.8162 77.8029 84.8162 78.1934 85.2067C78.584 85.5973 78.584 86.2304 78.1934 86.6209C77.8029 87.0115 77.1697 87.0115 76.7792 86.6209Z" fill="#B0B0B0"/>
<path d="M68.2929 44.1357C67.9024 43.7452 67.9024 43.112 68.2929 42.7215C68.6834 42.331 69.3166 42.331 69.7071 42.7215C70.0976 43.112 70.0976 43.7452 69.7071 44.1357C69.3166 44.5262 68.6834 44.5262 68.2929 44.1357Z" fill="#B0B0B0"/>
<path d="M76.7792 35.6505C76.3887 35.2599 76.3887 34.6268 76.7792 34.2363C77.1697 33.8457 77.8029 33.8457 78.1934 34.2363C78.584 34.6268 78.584 35.2599 78.1934 35.6505C77.8029 36.041 77.1697 36.041 76.7792 35.6505Z" fill="#B0B0B0"/>
<path d="M76.7792 44.1357C76.3887 43.7452 76.3887 43.112 76.7792 42.7215C77.1697 42.331 77.8029 42.331 78.1934 42.7215C78.584 43.112 78.584 43.7452 78.1934 44.1357C77.8029 44.5262 77.1697 44.5262 76.7792 44.1357Z" fill="#B0B0B0"/>
<path d="M76.7792 52.6209C76.3887 52.2304 76.3887 51.5972 76.7792 51.2067C77.1697 50.8162 77.8029 50.8162 78.1934 51.2067C78.584 51.5972 78.584 52.2304 78.1934 52.6209C77.8029 53.0115 77.1697 53.0115 76.7792 52.6209Z" fill="#B0B0B0"/>
<path d="M68.2929 146.192C67.9024 145.802 67.9024 145.169 68.2929 144.778C68.6834 144.388 69.3166 144.388 69.7071 144.778C70.0976 145.169 70.0976 145.802 69.7071 146.192C69.3166 146.583 68.6834 146.583 68.2929 146.192Z" fill="#B0B0B0"/>
<path d="M76.7792 137.707C76.3887 137.317 76.3887 136.683 76.7792 136.293C77.1697 135.902 77.8029 135.902 78.1934 136.293C78.584 136.683 78.584 137.317 78.1934 137.707C77.8029 138.098 77.1697 138.098 76.7792 137.707Z" fill="#B0B0B0"/>
<path d="M85.2646 146.192C84.874 145.802 84.874 145.169 85.2646 144.778C85.6551 144.388 86.2883 144.388 86.6788 144.778C87.0693 145.169 87.0693 145.802 86.6788 146.192C86.2883 146.583 85.6551 146.583 85.2646 146.192Z" fill="#B0B0B0"/>
<path d="M76.7792 146.192C76.3887 145.802 76.3887 145.169 76.7792 144.778C77.1697 144.388 77.8029 144.388 78.1934 144.778C78.584 145.169 78.584 145.802 78.1934 146.192C77.8029 146.583 77.1697 146.583 76.7792 146.192Z" fill="#B0B0B0"/>
<path d="M76.7792 154.678C76.3887 154.287 76.3887 153.654 76.7792 153.263C77.1697 152.873 77.8029 152.873 78.1934 153.263C78.584 153.654 78.584 154.287 78.1934 154.678C77.8029 155.068 77.1697 155.068 76.7792 154.678Z" fill="#B0B0B0"/>
<path d="M68.2929 112.192C67.9024 111.802 67.9024 111.169 68.2929 110.778C68.6834 110.388 69.3166 110.388 69.7071 110.778C70.0976 111.169 70.0976 111.802 69.7071 112.192C69.3166 112.583 68.6834 112.583 68.2929 112.192Z" fill="#B0B0B0"/>
<path d="M76.7792 103.707C76.3887 103.317 76.3887 102.683 76.7792 102.293C77.1697 101.902 77.8029 101.902 78.1934 102.293C78.584 102.683 78.584 103.317 78.1934 103.707C77.8029 104.098 77.1697 104.098 76.7792 103.707Z" fill="#B0B0B0"/>
<path d="M85.2646 112.192C84.874 111.802 84.874 111.169 85.2646 110.778C85.6551 110.388 86.2883 110.388 86.6788 110.778C87.0693 111.169 87.0693 111.802 86.6788 112.192C86.2883 112.583 85.6551 112.583 85.2646 112.192Z" fill="#B0B0B0"/>
<path d="M76.7792 112.192C76.3887 111.802 76.3887 111.169 76.7792 110.778C77.1697 110.388 77.8029 110.388 78.1934 110.778C78.584 111.169 78.584 111.802 78.1934 112.192C77.8029 112.583 77.1697 112.583 76.7792 112.192Z" fill="#B0B0B0"/>
<path d="M76.7792 120.678C76.3887 120.287 76.3887 119.654 76.7792 119.263C77.1697 118.873 77.8029 118.873 78.1934 119.263C78.584 119.654 78.584 120.287 78.1934 120.678C77.8029 121.068 77.1697 121.068 76.7792 120.678Z" fill="#B0B0B0"/>
<path d="M68.2929 78.1923C67.9024 77.8018 67.9024 77.1686 68.2929 76.7781C68.6834 76.3876 69.3166 76.3876 69.7071 76.7781C70.0976 77.1686 70.0976 77.8018 69.7071 78.1923C69.3166 78.5829 68.6834 78.5829 68.2929 78.1923Z" fill="#B0B0B0"/>
<path d="M76.7792 69.7071C76.3887 69.3166 76.3887 68.6834 76.7792 68.2929C77.1697 67.9024 77.8029 67.9024 78.1934 68.2929C78.584 68.6834 78.584 69.3166 78.1934 69.7071C77.8029 70.0976 77.1697 70.0976 76.7792 69.7071Z" fill="#B0B0B0"/>
<path d="M85.2646 78.1923C84.874 77.8018 84.874 77.1686 85.2646 76.7781C85.6551 76.3876 86.2883 76.3876 86.6788 76.7781C87.0693 77.1686 87.0693 77.8018 86.6788 78.1923C86.2883 78.5829 85.6551 78.5829 85.2646 78.1923Z" fill="#B0B0B0"/>
<path d="M76.7792 86.6776C76.3887 86.287 76.3887 85.6539 76.7792 85.2634C77.1697 84.8728 77.8029 84.8728 78.1934 85.2634C78.584 85.6539 78.584 86.287 78.1934 86.6776C77.8029 87.0681 77.1697 87.0681 76.7792 86.6776Z" fill="#B0B0B0"/>
<path d="M8.77922 10.0858C8.3887 9.69529 8.3887 9.06213 8.77922 8.6716C9.16975 8.28108 9.80291 8.28108 10.1934 8.6716C10.584 9.06213 10.584 9.69529 10.1934 10.0858C9.80291 10.4763 9.16975 10.4763 8.77922 10.0858Z" fill="#B0B0B0"/>
<path d="M68.2929 10.1923C67.9024 9.80181 67.9024 9.16865 68.2929 8.77812C68.6834 8.3876 69.3166 8.3876 69.7071 8.77812C70.0976 9.16865 70.0976 9.80181 69.7071 10.1923C69.3166 10.5829 68.6834 10.5829 68.2929 10.1923Z" fill="#B0B0B0"/>
<path d="M76.7792 1.70711C76.3887 1.31658 76.3887 0.683417 76.7792 0.292893C77.1697 -0.0976311 77.8029 -0.0976311 78.1934 0.292893C78.584 0.683418 78.584 1.31658 78.1934 1.70711C77.8029 2.09763 77.1697 2.09763 76.7792 1.70711Z" fill="#B0B0B0"/>
<path d="M85.2646 10.1923C84.874 9.80181 84.874 9.16865 85.2646 8.77812C85.6551 8.3876 86.2883 8.3876 86.6788 8.77812C87.0693 9.16865 87.0693 9.80181 86.6788 10.1923C86.2883 10.5829 85.6551 10.5829 85.2646 10.1923Z" fill="#B0B0B0"/>
<path d="M76.7792 18.6776C76.3887 18.287 76.3887 17.6539 76.7792 17.2634C77.1697 16.8728 77.8029 16.8728 78.1934 17.2634C78.584 17.6539 78.584 18.287 78.1934 18.6776C77.8029 19.0681 77.1697 19.0681 76.7792 18.6776Z" fill="#B0B0B0"/>
<path d="M68.2929 10.1923C67.9024 9.80181 67.9024 9.16865 68.2929 8.77812C68.6834 8.3876 69.3166 8.3876 69.7071 8.77812C70.0976 9.16865 70.0976 9.80181 69.7071 10.1923C69.3166 10.5829 68.6834 10.5829 68.2929 10.1923Z" fill="#B0B0B0"/>
<path d="M76.7792 1.70711C76.3887 1.31658 76.3887 0.683417 76.7792 0.292893C77.1697 -0.0976311 77.8029 -0.0976311 78.1934 0.292893C78.584 0.683418 78.584 1.31658 78.1934 1.70711C77.8029 2.09763 77.1697 2.09763 76.7792 1.70711Z" fill="#B0B0B0"/>
<path d="M85.2646 10.1923C84.874 9.80181 84.874 9.16865 85.2646 8.77812C85.6551 8.3876 86.2883 8.3876 86.6788 8.77812C87.0693 9.16865 87.0693 9.80181 86.6788 10.1923C86.2883 10.5829 85.6551 10.5829 85.2646 10.1923Z" fill="#B0B0B0"/>
<path d="M76.7792 10.1923C76.3887 9.80181 76.3887 9.16865 76.7792 8.77812C77.1697 8.3876 77.8029 8.3876 78.1934 8.77812C78.584 9.16865 78.584 9.80181 78.1934 10.1923C77.8029 10.5829 77.1697 10.5829 76.7792 10.1923Z" fill="#B0B0B0"/>
<path d="M76.7792 18.6776C76.3887 18.287 76.3887 17.6539 76.7792 17.2634C77.1697 16.8728 77.8029 16.8728 78.1934 17.2634C78.584 17.6539 78.584 18.287 78.1934 18.6776C77.8029 19.0681 77.1697 19.0681 76.7792 18.6776Z" fill="#B0B0B0"/>
<path d="M85.2929 44.1923C84.9024 43.8018 84.9024 43.1686 85.2929 42.7781C85.6834 42.3876 86.3166 42.3876 86.7071 42.7781C87.0976 43.1686 87.0976 43.8018 86.7071 44.1923C86.3166 44.5829 85.6834 44.5829 85.2929 44.1923Z" fill="#B0B0B0"/>
<path d="M85.2929 44.1923C84.9024 43.8018 84.9024 43.1686 85.2929 42.7781C85.6834 42.3876 86.3166 42.3876 86.7071 42.7781C87.0976 43.1686 87.0976 43.8018 86.7071 44.1923C86.3166 44.5829 85.6834 44.5829 85.2929 44.1923Z" fill="#B0B0B0"/>
<path d="M85.2929 44.1357C84.9024 43.7452 84.9024 43.112 85.2929 42.7215C85.6834 42.331 86.3166 42.331 86.7071 42.7215C87.0976 43.112 87.0976 43.7452 86.7071 44.1357C86.3166 44.5262 85.6834 44.5262 85.2929 44.1357Z" fill="#B0B0B0"/>
<path d="M170.293 78.1923C169.902 77.8018 169.902 77.1686 170.293 76.7781C170.683 76.3876 171.317 76.3876 171.707 76.7781C172.098 77.1686 172.098 77.8018 171.707 78.1923C171.317 78.5829 170.683 78.5829 170.293 78.1923Z" fill="#B0B0B0"/>
<path d="M178.779 69.7071C178.389 69.3166 178.389 68.6834 178.779 68.2929C179.17 67.9024 179.803 67.9024 180.193 68.2929C180.584 68.6834 180.584 69.3166 180.193 69.7071C179.803 70.0976 179.17 70.0976 178.779 69.7071Z" fill="#B0B0B0"/>
<path d="M187.265 78.1923C186.874 77.8018 186.874 77.1686 187.265 76.7781C187.655 76.3876 188.288 76.3876 188.679 76.7781C189.069 77.1686 189.069 77.8018 188.679 78.1923C188.288 78.5829 187.655 78.5829 187.265 78.1923Z" fill="#B0B0B0"/>
<path d="M178.779 86.6776C178.389 86.287 178.389 85.6539 178.779 85.2634C179.17 84.8728 179.803 84.8728 180.193 85.2634C180.584 85.6539 180.584 86.287 180.193 86.6776C179.803 87.0681 179.17 87.0681 178.779 86.6776Z" fill="#B0B0B0"/>
<path d="M170.293 44.1923C169.902 43.8018 169.902 43.1686 170.293 42.7781C170.683 42.3876 171.317 42.3876 171.707 42.7781C172.098 43.1686 172.098 43.8018 171.707 44.1923C171.317 44.5829 170.683 44.5829 170.293 44.1923Z" fill="#B0B0B0"/>
<path d="M178.779 35.7071C178.389 35.3166 178.389 34.6834 178.779 34.2929C179.17 33.9024 179.803 33.9024 180.193 34.2929C180.584 34.6834 180.584 35.3166 180.193 35.7071C179.803 36.0976 179.17 36.0976 178.779 35.7071Z" fill="#B0B0B0"/>
<path d="M178.779 44.1923C178.389 43.8018 178.389 43.1686 178.779 42.7781C179.17 42.3876 179.803 42.3876 180.193 42.7781C180.584 43.1686 180.584 43.8018 180.193 44.1923C179.803 44.5829 179.17 44.5829 178.779 44.1923Z" fill="#B0B0B0"/>
<path d="M178.779 52.6776C178.389 52.287 178.389 51.6539 178.779 51.2634C179.17 50.8728 179.803 50.8728 180.193 51.2634C180.584 51.6539 180.584 52.287 180.193 52.6776C179.803 53.0681 179.17 53.0681 178.779 52.6776Z" fill="#B0B0B0"/>
<path d="M136.293 78.1923C135.902 77.8018 135.902 77.1686 136.293 76.7781C136.683 76.3876 137.317 76.3876 137.707 76.7781C138.098 77.1686 138.098 77.8018 137.707 78.1923C137.317 78.5829 136.683 78.5829 136.293 78.1923Z" fill="#B0B0B0"/>
<path d="M144.779 69.7071C144.389 69.3166 144.389 68.6834 144.779 68.2929C145.17 67.9024 145.803 67.9024 146.193 68.2929C146.584 68.6834 146.584 69.3166 146.193 69.7071C145.803 70.0976 145.17 70.0976 144.779 69.7071Z" fill="#B0B0B0"/>
<path d="M153.265 78.1923C152.874 77.8018 152.874 77.1686 153.265 76.7781C153.655 76.3876 154.288 76.3876 154.679 76.7781C155.069 77.1686 155.069 77.8018 154.679 78.1923C154.288 78.5829 153.655 78.5829 153.265 78.1923Z" fill="#B0B0B0"/>
<path d="M144.779 78.1923C144.389 77.8018 144.389 77.1686 144.779 76.7781C145.17 76.3876 145.803 76.3876 146.193 76.7781C146.584 77.1686 146.584 77.8018 146.193 78.1923C145.803 78.5829 145.17 78.5829 144.779 78.1923Z" fill="#B0B0B0"/>
<path d="M144.779 86.6776C144.389 86.287 144.389 85.6539 144.779 85.2634C145.17 84.8728 145.803 84.8728 146.193 85.2634C146.584 85.6539 146.584 86.287 146.193 86.6776C145.803 87.0681 145.17 87.0681 144.779 86.6776Z" fill="#B0B0B0"/>
<path d="M136.293 44.1923C135.902 43.8018 135.902 43.1686 136.293 42.7781C136.683 42.3876 137.317 42.3876 137.707 42.7781C138.098 43.1686 138.098 43.8018 137.707 44.1923C137.317 44.5829 136.683 44.5829 136.293 44.1923Z" fill="#B0B0B0"/>
<path d="M144.779 35.7071C144.389 35.3166 144.389 34.6834 144.779 34.2929C145.17 33.9024 145.803 33.9024 146.193 34.2929C146.584 34.6834 146.584 35.3166 146.193 35.7071C145.803 36.0976 145.17 36.0976 144.779 35.7071Z" fill="#B0B0B0"/>
<path d="M153.265 44.1923C152.874 43.8018 152.874 43.1686 153.265 42.7781C153.655 42.3876 154.288 42.3876 154.679 42.7781C155.069 43.1686 155.069 43.8018 154.679 44.1923C154.288 44.5829 153.655 44.5829 153.265 44.1923Z" fill="#B0B0B0"/>
<path d="M144.779 52.6776C144.389 52.287 144.389 51.6539 144.779 51.2634C145.17 50.8728 145.803 50.8728 146.193 51.2634C146.584 51.6539 146.584 52.287 146.193 52.6776C145.803 53.0681 145.17 53.0681 144.779 52.6776Z" fill="#B0B0B0"/>
<path d="M170.293 44.1923C169.902 43.8018 169.902 43.1686 170.293 42.7781C170.683 42.3876 171.317 42.3876 171.707 42.7781C172.098 43.1686 172.098 43.8018 171.707 44.1923C171.317 44.5829 170.683 44.5829 170.293 44.1923Z" fill="#B0B0B0"/>
<path d="M178.779 35.7071C178.389 35.3166 178.389 34.6834 178.779 34.2929C179.17 33.9024 179.803 33.9024 180.193 34.2929C180.584 34.6834 180.584 35.3166 180.193 35.7071C179.803 36.0976 179.17 36.0976 178.779 35.7071Z" fill="#B0B0B0"/>
<path d="M178.779 52.6776C178.389 52.287 178.389 51.6539 178.779 51.2634C179.17 50.8728 179.803 50.8728 180.193 51.2634C180.584 51.6539 180.584 52.287 180.193 52.6776C179.803 53.0681 179.17 53.0681 178.779 52.6776Z" fill="#B0B0B0"/>
<path d="M136.293 44.1923C135.902 43.8018 135.902 43.1686 136.293 42.7781C136.683 42.3876 137.317 42.3876 137.707 42.7781C138.098 43.1686 138.098 43.8018 137.707 44.1923C137.317 44.5829 136.683 44.5829 136.293 44.1923Z" fill="#B0B0B0"/>
<path d="M144.779 35.7071C144.389 35.3166 144.389 34.6834 144.779 34.2929C145.17 33.9024 145.803 33.9024 146.193 34.2929C146.584 34.6834 146.584 35.3166 146.193 35.7071C145.803 36.0976 145.17 36.0976 144.779 35.7071Z" fill="#B0B0B0"/>
<path d="M153.265 44.1923C152.874 43.8018 152.874 43.1686 153.265 42.7781C153.655 42.3876 154.288 42.3876 154.679 42.7781C155.069 43.1686 155.069 43.8018 154.679 44.1923C154.288 44.5829 153.655 44.5829 153.265 44.1923Z" fill="#B0B0B0"/>
<path d="M144.779 44.1923C144.389 43.8018 144.389 43.1686 144.779 42.7781C145.17 42.3876 145.803 42.3876 146.193 42.7781C146.584 43.1686 146.584 43.8018 146.193 44.1923C145.803 44.5829 145.17 44.5829 144.779 44.1923Z" fill="#B0B0B0"/>
<path d="M144.779 52.6776C144.389 52.287 144.389 51.6539 144.779 51.2634C145.17 50.8728 145.803 50.8728 146.193 51.2634C146.584 51.6539 146.584 52.287 146.193 52.6776C145.803 53.0681 145.17 53.0681 144.779 52.6776Z" fill="#B0B0B0"/>
<path d="M136.293 10.1923C135.902 9.80181 135.902 9.16865 136.293 8.77812C136.683 8.3876 137.317 8.3876 137.707 8.77812C138.098 9.16865 138.098 9.80181 137.707 10.1923C137.317 10.5829 136.683 10.5829 136.293 10.1923Z" fill="#B0B0B0"/>
<path d="M144.779 1.70711C144.389 1.31658 144.389 0.683417 144.779 0.292893C145.17 -0.0976311 145.803 -0.0976311 146.193 0.292893C146.584 0.683418 146.584 1.31658 146.193 1.70711C145.803 2.09763 145.17 2.09763 144.779 1.70711Z" fill="#B0B0B0"/>
<path d="M153.265 10.1923C152.874 9.80181 152.874 9.16865 153.265 8.77812C153.655 8.3876 154.288 8.3876 154.679 8.77812C155.069 9.16865 155.069 9.80181 154.679 10.1923C154.288 10.5829 153.655 10.5829 153.265 10.1923Z" fill="#B0B0B0"/>
<path d="M144.779 18.6776C144.389 18.287 144.389 17.6539 144.779 17.2634C145.17 16.8728 145.803 16.8728 146.193 17.2634C146.584 17.6539 146.584 18.287 146.193 18.6776C145.803 19.0681 145.17 19.0681 144.779 18.6776Z" fill="#B0B0B0"/>
<path d="M136.293 78.1923C135.902 77.8018 135.902 77.1686 136.293 76.7781C136.683 76.3876 137.317 76.3876 137.707 76.7781C138.098 77.1686 138.098 77.8018 137.707 78.1923C137.317 78.5829 136.683 78.5829 136.293 78.1923Z" fill="#B0B0B0"/>
<path d="M144.779 69.7071C144.389 69.3166 144.389 68.6834 144.779 68.2929C145.17 67.9024 145.803 67.9024 146.193 68.2929C146.584 68.6834 146.584 69.3166 146.193 69.7071C145.803 70.0976 145.17 70.0976 144.779 69.7071Z" fill="#B0B0B0"/>
<path d="M153.265 78.1923C152.874 77.8018 152.874 77.1686 153.265 76.7781C153.655 76.3876 154.288 76.3876 154.679 76.7781C155.069 77.1686 155.069 77.8018 154.679 78.1923C154.288 78.5829 153.655 78.5829 153.265 78.1923Z" fill="#B0B0B0"/>
<path d="M144.779 86.6776C144.389 86.287 144.389 85.6539 144.779 85.2634C145.17 84.8728 145.803 84.8728 146.193 85.2634C146.584 85.6539 146.584 86.287 146.193 86.6776C145.803 87.0681 145.17 87.0681 144.779 86.6776Z" fill="#B0B0B0"/>
<path d="M102.293 78.1923C101.902 77.8018 101.902 77.1686 102.293 76.7781C102.683 76.3876 103.317 76.3876 103.707 76.7781C104.098 77.1686 104.098 77.8018 103.707 78.1923C103.317 78.5829 102.683 78.5829 102.293 78.1923Z" fill="#B0B0B0"/>
<path d="M110.779 69.7071C110.389 69.3166 110.389 68.6834 110.779 68.2929C111.17 67.9024 111.803 67.9024 112.193 68.2929C112.584 68.6834 112.584 69.3166 112.193 69.7071C111.803 70.0976 111.17 70.0976 110.779 69.7071Z" fill="#B0B0B0"/>
<path d="M119.265 78.1923C118.874 77.8018 118.874 77.1686 119.265 76.7781C119.655 76.3876 120.288 76.3876 120.679 76.7781C121.069 77.1686 121.069 77.8018 120.679 78.1923C120.288 78.5829 119.655 78.5829 119.265 78.1923Z" fill="#B0B0B0"/>
<path d="M110.779 78.1923C110.389 77.8018 110.389 77.1686 110.779 76.7781C111.17 76.3876 111.803 76.3876 112.193 76.7781C112.584 77.1686 112.584 77.8018 112.193 78.1923C111.803 78.5829 111.17 78.5829 110.779 78.1923Z" fill="#B0B0B0"/>
<path d="M110.779 86.6776C110.389 86.287 110.389 85.6539 110.779 85.2634C111.17 84.8728 111.803 84.8728 112.193 85.2634C112.584 85.6539 112.584 86.287 112.193 86.6776C111.803 87.0681 111.17 87.0681 110.779 86.6776Z" fill="#B0B0B0"/>
<path d="M136.293 44.1923C135.902 43.8018 135.902 43.1686 136.293 42.7781C136.683 42.3876 137.317 42.3876 137.707 42.7781C138.098 43.1686 138.098 43.8018 137.707 44.1923C137.317 44.5829 136.683 44.5829 136.293 44.1923Z" fill="#B0B0B0"/>
<path d="M144.779 35.7071C144.389 35.3166 144.389 34.6834 144.779 34.2929C145.17 33.9024 145.803 33.9024 146.193 34.2929C146.584 34.6834 146.584 35.3166 146.193 35.7071C145.803 36.0976 145.17 36.0976 144.779 35.7071Z" fill="#B0B0B0"/>
<path d="M153.265 44.1923C152.874 43.8018 152.874 43.1686 153.265 42.7781C153.655 42.3876 154.288 42.3876 154.679 42.7781C155.069 43.1686 155.069 43.8018 154.679 44.1923C154.288 44.5829 153.655 44.5829 153.265 44.1923Z" fill="#B0B0B0"/>
<path d="M144.779 52.6776C144.389 52.287 144.389 51.6539 144.779 51.2634C145.17 50.8728 145.803 50.8728 146.193 51.2634C146.584 51.6539 146.584 52.287 146.193 52.6776C145.803 53.0681 145.17 53.0681 144.779 52.6776Z" fill="#B0B0B0"/>
<path d="M136.293 10.1923C135.902 9.80181 135.902 9.16865 136.293 8.77812C136.683 8.3876 137.317 8.3876 137.707 8.77812C138.098 9.16865 138.098 9.80181 137.707 10.1923C137.317 10.5829 136.683 10.5829 136.293 10.1923Z" fill="#B0B0B0"/>
<path d="M144.779 1.70711C144.389 1.31658 144.389 0.683417 144.779 0.292893C145.17 -0.0976311 145.803 -0.0976311 146.193 0.292893C146.584 0.683418 146.584 1.31658 146.193 1.70711C145.803 2.09763 145.17 2.09763 144.779 1.70711Z" fill="#B0B0B0"/>
<path d="M153.265 10.1923C152.874 9.80181 152.874 9.16865 153.265 8.77812C153.655 8.3876 154.288 8.3876 154.679 8.77812C155.069 9.16865 155.069 9.80181 154.679 10.1923C154.288 10.5829 153.655 10.5829 153.265 10.1923Z" fill="#B0B0B0"/>
<path d="M144.779 10.1923C144.389 9.80181 144.389 9.16865 144.779 8.77812C145.17 8.3876 145.803 8.3876 146.193 8.77812C146.584 9.16865 146.584 9.80181 146.193 10.1923C145.803 10.5829 145.17 10.5829 144.779 10.1923Z" fill="#B0B0B0"/>
<path d="M144.779 18.6776C144.389 18.287 144.389 17.6539 144.779 17.2634C145.17 16.8728 145.803 16.8728 146.193 17.2634C146.584 17.6539 146.584 18.287 146.193 18.6776C145.803 19.0681 145.17 19.0681 144.779 18.6776Z" fill="#B0B0B0"/>
<path d="M102.293 44.1923C101.902 43.8018 101.902 43.1686 102.293 42.7781C102.683 42.3876 103.317 42.3876 103.707 42.7781C104.098 43.1686 104.098 43.8018 103.707 44.1923C103.317 44.5829 102.683 44.5829 102.293 44.1923Z" fill="#B0B0B0"/>
<path d="M110.779 35.7071C110.389 35.3166 110.389 34.6834 110.779 34.2929C111.17 33.9024 111.803 33.9024 112.193 34.2929C112.584 34.6834 112.584 35.3166 112.193 35.7071C111.803 36.0976 111.17 36.0976 110.779 35.7071Z" fill="#B0B0B0"/>
<path d="M119.265 44.1923C118.874 43.8018 118.874 43.1686 119.265 42.7781C119.655 42.3876 120.288 42.3876 120.679 42.7781C121.069 43.1686 121.069 43.8018 120.679 44.1923C120.288 44.5829 119.655 44.5829 119.265 44.1923Z" fill="#B0B0B0"/>
<path d="M110.779 44.1923C110.389 43.8018 110.389 43.1686 110.779 42.7781C111.17 42.3876 111.803 42.3876 112.193 42.7781C112.584 43.1686 112.584 43.8018 112.193 44.1923C111.803 44.5829 111.17 44.5829 110.779 44.1923Z" fill="#B0B0B0"/>
<path d="M110.779 52.6776C110.389 52.287 110.389 51.6539 110.779 51.2634C111.17 50.8728 111.803 50.8728 112.193 51.2634C112.584 51.6539 112.584 52.287 112.193 52.6776C111.803 53.0681 111.17 53.0681 110.779 52.6776Z" fill="#B0B0B0"/>
<path d="M102.293 10.1923C101.902 9.80181 101.902 9.16865 102.293 8.77812C102.683 8.3876 103.317 8.3876 103.707 8.77812C104.098 9.16865 104.098 9.80181 103.707 10.1923C103.317 10.5829 102.683 10.5829 102.293 10.1923Z" fill="#B0B0B0"/>
<path d="M110.779 1.70711C110.389 1.31658 110.389 0.683417 110.779 0.292893C111.17 -0.0976311 111.803 -0.0976311 112.193 0.292893C112.584 0.683418 112.584 1.31658 112.193 1.70711C111.803 2.09763 111.17 2.09763 110.779 1.70711Z" fill="#B0B0B0"/>
<path d="M119.265 10.1923C118.874 9.80181 118.874 9.16865 119.265 8.77812C119.655 8.3876 120.288 8.3876 120.679 8.77812C121.069 9.16865 121.069 9.80181 120.679 10.1923C120.288 10.5829 119.655 10.5829 119.265 10.1923Z" fill="#B0B0B0"/>
<path d="M110.779 18.6776C110.389 18.287 110.389 17.6539 110.779 17.2634C111.17 16.8728 111.803 16.8728 112.193 17.2634C112.584 17.6539 112.584 18.287 112.193 18.6776C111.803 19.0681 111.17 19.0681 110.779 18.6776Z" fill="#B0B0B0"/>
<path d="M170.293 146.192C169.902 145.802 169.902 145.169 170.293 144.778C170.683 144.388 171.317 144.388 171.707 144.778C172.098 145.169 172.098 145.802 171.707 146.192C171.317 146.583 170.683 146.583 170.293 146.192Z" fill="#B0B0B0"/>
<path d="M178.779 137.707C178.389 137.317 178.389 136.683 178.779 136.293C179.17 135.902 179.803 135.902 180.193 136.293C180.584 136.683 180.584 137.317 180.193 137.707C179.803 138.098 179.17 138.098 178.779 137.707Z" fill="#B0B0B0"/>
<path d="M187.265 146.192C186.874 145.802 186.874 145.169 187.265 144.778C187.655 144.388 188.288 144.388 188.679 144.778C189.069 145.169 189.069 145.802 188.679 146.192C188.288 146.583 187.655 146.583 187.265 146.192Z" fill="#B0B0B0"/>
<path d="M178.779 154.678C178.389 154.287 178.389 153.654 178.779 153.263C179.17 152.873 179.803 152.873 180.193 153.263C180.584 153.654 180.584 154.287 180.193 154.678C179.803 155.068 179.17 155.068 178.779 154.678Z" fill="#B0B0B0"/>
<path d="M170.293 112.192C169.902 111.802 169.902 111.169 170.293 110.778C170.683 110.388 171.317 110.388 171.707 110.778C172.098 111.169 172.098 111.802 171.707 112.192C171.317 112.583 170.683 112.583 170.293 112.192Z" fill="#B0B0B0"/>
<path d="M178.779 103.707C178.389 103.317 178.389 102.683 178.779 102.293C179.17 101.902 179.803 101.902 180.193 102.293C180.584 102.683 180.584 103.317 180.193 103.707C179.803 104.098 179.17 104.098 178.779 103.707Z" fill="#B0B0B0"/>
<path d="M187.265 112.192C186.874 111.802 186.874 111.169 187.265 110.778C187.655 110.388 188.288 110.388 188.679 110.778C189.069 111.169 189.069 111.802 188.679 112.192C188.288 112.583 187.655 112.583 187.265 112.192Z" fill="#B0B0B0"/>
<path d="M178.779 112.192C178.389 111.802 178.389 111.169 178.779 110.778C179.17 110.388 179.803 110.388 180.193 110.778C180.584 111.169 180.584 111.802 180.193 112.192C179.803 112.583 179.17 112.583 178.779 112.192Z" fill="#B0B0B0"/>
<path d="M178.779 120.678C178.389 120.287 178.389 119.654 178.779 119.263C179.17 118.873 179.803 118.873 180.193 119.263C180.584 119.654 180.584 120.287 180.193 120.678C179.803 121.068 179.17 121.068 178.779 120.678Z" fill="#B0B0B0"/>
<path d="M136.293 146.192C135.902 145.802 135.902 145.169 136.293 144.778C136.683 144.388 137.317 144.388 137.707 144.778C138.098 145.169 138.098 145.802 137.707 146.192C137.317 146.583 136.683 146.583 136.293 146.192Z" fill="#B0B0B0"/>
<path d="M144.779 137.707C144.389 137.317 144.389 136.683 144.779 136.293C145.17 135.902 145.803 135.902 146.193 136.293C146.584 136.683 146.584 137.317 146.193 137.707C145.803 138.098 145.17 138.098 144.779 137.707Z" fill="#B0B0B0"/>
<path d="M153.265 146.192C152.874 145.802 152.874 145.169 153.265 144.778C153.655 144.388 154.288 144.388 154.679 144.778C155.069 145.169 155.069 145.802 154.679 146.192C154.288 146.583 153.655 146.583 153.265 146.192Z" fill="#B0B0B0"/>
<path d="M144.779 146.192C144.389 145.802 144.389 145.169 144.779 144.778C145.17 144.388 145.803 144.388 146.193 144.778C146.584 145.169 146.584 145.802 146.193 146.192C145.803 146.583 145.17 146.583 144.779 146.192Z" fill="#B0B0B0"/>
<path d="M144.779 154.678C144.389 154.287 144.389 153.654 144.779 153.263C145.17 152.873 145.803 152.873 146.193 153.263C146.584 153.654 146.584 154.287 146.193 154.678C145.803 155.068 145.17 155.068 144.779 154.678Z" fill="#B0B0B0"/>
<path d="M136.293 112.192C135.902 111.802 135.902 111.169 136.293 110.778C136.683 110.388 137.317 110.388 137.707 110.778C138.098 111.169 138.098 111.802 137.707 112.192C137.317 112.583 136.683 112.583 136.293 112.192Z" fill="#B0B0B0"/>
<path d="M144.779 103.707C144.389 103.317 144.389 102.683 144.779 102.293C145.17 101.902 145.803 101.902 146.193 102.293C146.584 102.683 146.584 103.317 146.193 103.707C145.803 104.098 145.17 104.098 144.779 103.707Z" fill="#B0B0B0"/>
<path d="M153.265 112.192C152.874 111.802 152.874 111.169 153.265 110.778C153.655 110.388 154.288 110.388 154.679 110.778C155.069 111.169 155.069 111.802 154.679 112.192C154.288 112.583 153.655 112.583 153.265 112.192Z" fill="#B0B0B0"/>
<path d="M144.779 120.678C144.389 120.287 144.389 119.654 144.779 119.263C145.17 118.873 145.803 118.873 146.193 119.263C146.584 119.654 146.584 120.287 146.193 120.678C145.803 121.068 145.17 121.068 144.779 120.678Z" fill="#B0B0B0"/>
<path d="M170.293 112.192C169.902 111.802 169.902 111.169 170.293 110.778C170.683 110.388 171.317 110.388 171.707 110.778C172.098 111.169 172.098 111.802 171.707 112.192C171.317 112.583 170.683 112.583 170.293 112.192Z" fill="#B0B0B0"/>
<path d="M178.779 103.707C178.389 103.317 178.389 102.683 178.779 102.293C179.17 101.902 179.803 101.902 180.193 102.293C180.584 102.683 180.584 103.317 180.193 103.707C179.803 104.098 179.17 104.098 178.779 103.707Z" fill="#B0B0B0"/>
<path d="M187.265 112.192C186.874 111.802 186.874 111.169 187.265 110.778C187.655 110.388 188.288 110.388 188.679 110.778C189.069 111.169 189.069 111.802 188.679 112.192C188.288 112.583 187.655 112.583 187.265 112.192Z" fill="#B0B0B0"/>
<path d="M178.779 120.678C178.389 120.287 178.389 119.654 178.779 119.263C179.17 118.873 179.803 118.873 180.193 119.263C180.584 119.654 180.584 120.287 180.193 120.678C179.803 121.068 179.17 121.068 178.779 120.678Z" fill="#B0B0B0"/>
<path d="M170.293 78.1923C169.902 77.8018 169.902 77.1686 170.293 76.7781C170.683 76.3876 171.317 76.3876 171.707 76.7781C172.098 77.1686 172.098 77.8018 171.707 78.1923C171.317 78.5829 170.683 78.5829 170.293 78.1923Z" fill="#B0B0B0"/>
<path d="M178.779 69.7071C178.389 69.3166 178.389 68.6834 178.779 68.2929C179.17 67.9024 179.803 67.9024 180.193 68.2929C180.584 68.6834 180.584 69.3166 180.193 69.7071C179.803 70.0976 179.17 70.0976 178.779 69.7071Z" fill="#B0B0B0"/>
<path d="M187.265 78.1923C186.874 77.8018 186.874 77.1686 187.265 76.7781C187.655 76.3876 188.288 76.3876 188.679 76.7781C189.069 77.1686 189.069 77.8018 188.679 78.1923C188.288 78.5829 187.655 78.5829 187.265 78.1923Z" fill="#B0B0B0"/>
<path d="M178.779 78.1923C178.389 77.8018 178.389 77.1686 178.779 76.7781C179.17 76.3876 179.803 76.3876 180.193 76.7781C180.584 77.1686 180.584 77.8018 180.193 78.1923C179.803 78.5829 179.17 78.5829 178.779 78.1923Z" fill="#B0B0B0"/>
<path d="M178.779 86.6776C178.389 86.287 178.389 85.6539 178.779 85.2634C179.17 84.8728 179.803 84.8728 180.193 85.2634C180.584 85.6539 180.584 86.287 180.193 86.6776C179.803 87.0681 179.17 87.0681 178.779 86.6776Z" fill="#B0B0B0"/>
<path d="M136.293 112.192C135.902 111.802 135.902 111.169 136.293 110.778C136.683 110.388 137.317 110.388 137.707 110.778C138.098 111.169 138.098 111.802 137.707 112.192C137.317 112.583 136.683 112.583 136.293 112.192Z" fill="#B0B0B0"/>
<path d="M144.779 103.707C144.389 103.317 144.389 102.683 144.779 102.293C145.17 101.902 145.803 101.902 146.193 102.293C146.584 102.683 146.584 103.317 146.193 103.707C145.803 104.098 145.17 104.098 144.779 103.707Z" fill="#B0B0B0"/>
<path d="M153.265 112.192C152.874 111.802 152.874 111.169 153.265 110.778C153.655 110.388 154.288 110.388 154.679 110.778C155.069 111.169 155.069 111.802 154.679 112.192C154.288 112.583 153.655 112.583 153.265 112.192Z" fill="#B0B0B0"/>
<path d="M144.779 112.192C144.389 111.802 144.389 111.169 144.779 110.778C145.17 110.388 145.803 110.388 146.193 110.778C146.584 111.169 146.584 111.802 146.193 112.192C145.803 112.583 145.17 112.583 144.779 112.192Z" fill="#B0B0B0"/>
<path d="M144.779 120.678C144.389 120.287 144.389 119.654 144.779 119.263C145.17 118.873 145.803 118.873 146.193 119.263C146.584 119.654 146.584 120.287 146.193 120.678C145.803 121.068 145.17 121.068 144.779 120.678Z" fill="#B0B0B0"/>
<path d="M136.293 78.1923C135.902 77.8018 135.902 77.1686 136.293 76.7781C136.683 76.3876 137.317 76.3876 137.707 76.7781C138.098 77.1686 138.098 77.8018 137.707 78.1923C137.317 78.5829 136.683 78.5829 136.293 78.1923Z" fill="#B0B0B0"/>
<path d="M144.779 69.7071C144.389 69.3166 144.389 68.6834 144.779 68.2929C145.17 67.9024 145.803 67.9024 146.193 68.2929C146.584 68.6834 146.584 69.3166 146.193 69.7071C145.803 70.0976 145.17 70.0976 144.779 69.7071Z" fill="#B0B0B0"/>
<path d="M153.265 78.1923C152.874 77.8018 152.874 77.1686 153.265 76.7781C153.655 76.3876 154.288 76.3876 154.679 76.7781C155.069 77.1686 155.069 77.8018 154.679 78.1923C154.288 78.5829 153.655 78.5829 153.265 78.1923Z" fill="#B0B0B0"/>
<path d="M144.779 86.6776C144.389 86.287 144.389 85.6539 144.779 85.2634C145.17 84.8728 145.803 84.8728 146.193 85.2634C146.584 85.6539 146.584 86.287 146.193 86.6776C145.803 87.0681 145.17 87.0681 144.779 86.6776Z" fill="#B0B0B0"/>
<path d="M136.293 146.192C135.902 145.802 135.902 145.169 136.293 144.778C136.683 144.388 137.317 144.388 137.707 144.778C138.098 145.169 138.098 145.802 137.707 146.192C137.317 146.583 136.683 146.583 136.293 146.192Z" fill="#B0B0B0"/>
<path d="M144.779 137.707C144.389 137.317 144.389 136.683 144.779 136.293C145.17 135.902 145.803 135.902 146.193 136.293C146.584 136.683 146.584 137.317 146.193 137.707C145.803 138.098 145.17 138.098 144.779 137.707Z" fill="#B0B0B0"/>
<path d="M153.265 146.192C152.874 145.802 152.874 145.169 153.265 144.778C153.655 144.388 154.288 144.388 154.679 144.778C155.069 145.169 155.069 145.802 154.679 146.192C154.288 146.583 153.655 146.583 153.265 146.192Z" fill="#B0B0B0"/>
<path d="M144.779 154.678C144.389 154.287 144.389 153.654 144.779 153.263C145.17 152.873 145.803 152.873 146.193 153.263C146.584 153.654 146.584 154.287 146.193 154.678C145.803 155.068 145.17 155.068 144.779 154.678Z" fill="#B0B0B0"/>
<path d="M102.293 146.192C101.902 145.802 101.902 145.169 102.293 144.778C102.683 144.388 103.317 144.388 103.707 144.778C104.098 145.169 104.098 145.802 103.707 146.192C103.317 146.583 102.683 146.583 102.293 146.192Z" fill="#B0B0B0"/>
<path d="M110.779 137.707C110.389 137.317 110.389 136.683 110.779 136.293C111.17 135.902 111.803 135.902 112.193 136.293C112.584 136.683 112.584 137.317 112.193 137.707C111.803 138.098 111.17 138.098 110.779 137.707Z" fill="#B0B0B0"/>
<path d="M119.265 146.192C118.874 145.802 118.874 145.169 119.265 144.778C119.655 144.388 120.288 144.388 120.679 144.778C121.069 145.169 121.069 145.802 120.679 146.192C120.288 146.583 119.655 146.583 119.265 146.192Z" fill="#B0B0B0"/>
<path d="M110.779 146.192C110.389 145.802 110.389 145.169 110.779 144.778C111.17 144.388 111.803 144.388 112.193 144.778C112.584 145.169 112.584 145.802 112.193 146.192C111.803 146.583 111.17 146.583 110.779 146.192Z" fill="#B0B0B0"/>
<path d="M110.779 154.678C110.389 154.287 110.389 153.654 110.779 153.263C111.17 152.873 111.803 152.873 112.193 153.263C112.584 153.654 112.584 154.287 112.193 154.678C111.803 155.068 111.17 155.068 110.779 154.678Z" fill="#B0B0B0"/>
<path d="M136.293 112.192C135.902 111.802 135.902 111.169 136.293 110.778C136.683 110.388 137.317 110.388 137.707 110.778C138.098 111.169 138.098 111.802 137.707 112.192C137.317 112.583 136.683 112.583 136.293 112.192Z" fill="#B0B0B0"/>
<path d="M144.779 103.707C144.389 103.317 144.389 102.683 144.779 102.293C145.17 101.902 145.803 101.902 146.193 102.293C146.584 102.683 146.584 103.317 146.193 103.707C145.803 104.098 145.17 104.098 144.779 103.707Z" fill="#B0B0B0"/>
<path d="M153.265 112.192C152.874 111.802 152.874 111.169 153.265 110.778C153.655 110.388 154.288 110.388 154.679 110.778C155.069 111.169 155.069 111.802 154.679 112.192C154.288 112.583 153.655 112.583 153.265 112.192Z" fill="#B0B0B0"/>
<path d="M144.779 120.678C144.389 120.287 144.389 119.654 144.779 119.263C145.17 118.873 145.803 118.873 146.193 119.263C146.584 119.654 146.584 120.287 146.193 120.678C145.803 121.068 145.17 121.068 144.779 120.678Z" fill="#B0B0B0"/>
<path d="M136.293 78.1923C135.902 77.8018 135.902 77.1686 136.293 76.7781C136.683 76.3876 137.317 76.3876 137.707 76.7781C138.098 77.1686 138.098 77.8018 137.707 78.1923C137.317 78.5829 136.683 78.5829 136.293 78.1923Z" fill="#B0B0B0"/>
<path d="M144.779 69.7071C144.389 69.3166 144.389 68.6834 144.779 68.2929C145.17 67.9024 145.803 67.9024 146.193 68.2929C146.584 68.6834 146.584 69.3166 146.193 69.7071C145.803 70.0976 145.17 70.0976 144.779 69.7071Z" fill="#B0B0B0"/>
<path d="M153.265 78.1923C152.874 77.8018 152.874 77.1686 153.265 76.7781C153.655 76.3876 154.288 76.3876 154.679 76.7781C155.069 77.1686 155.069 77.8018 154.679 78.1923C154.288 78.5829 153.655 78.5829 153.265 78.1923Z" fill="#B0B0B0"/>
<path d="M144.779 78.1923C144.389 77.8018 144.389 77.1686 144.779 76.7781C145.17 76.3876 145.803 76.3876 146.193 76.7781C146.584 77.1686 146.584 77.8018 146.193 78.1923C145.803 78.5829 145.17 78.5829 144.779 78.1923Z" fill="#B0B0B0"/>
<path d="M144.779 86.6776C144.389 86.287 144.389 85.6539 144.779 85.2634C145.17 84.8728 145.803 84.8728 146.193 85.2634C146.584 85.6539 146.584 86.287 146.193 86.6776C145.803 87.0681 145.17 87.0681 144.779 86.6776Z" fill="#B0B0B0"/>
<path d="M102.293 112.192C101.902 111.802 101.902 111.169 102.293 110.778C102.683 110.388 103.317 110.388 103.707 110.778C104.098 111.169 104.098 111.802 103.707 112.192C103.317 112.583 102.683 112.583 102.293 112.192Z" fill="#B0B0B0"/>
<path d="M110.779 103.707C110.389 103.317 110.389 102.683 110.779 102.293C111.17 101.902 111.803 101.902 112.193 102.293C112.584 102.683 112.584 103.317 112.193 103.707C111.803 104.098 111.17 104.098 110.779 103.707Z" fill="#B0B0B0"/>
<path d="M119.265 112.192C118.874 111.802 118.874 111.169 119.265 110.778C119.655 110.388 120.288 110.388 120.679 110.778C121.069 111.169 121.069 111.802 120.679 112.192C120.288 112.583 119.655 112.583 119.265 112.192Z" fill="#B0B0B0"/>
<path d="M110.779 112.192C110.389 111.802 110.389 111.169 110.779 110.778C111.17 110.388 111.803 110.388 112.193 110.778C112.584 111.169 112.584 111.802 112.193 112.192C111.803 112.583 111.17 112.583 110.779 112.192Z" fill="#B0B0B0"/>
<path d="M110.779 120.678C110.389 120.287 110.389 119.654 110.779 119.263C111.17 118.873 111.803 118.873 112.193 119.263C112.584 119.654 112.584 120.287 112.193 120.678C111.803 121.068 111.17 121.068 110.779 120.678Z" fill="#B0B0B0"/>
<path d="M102.293 78.1923C101.902 77.8018 101.902 77.1686 102.293 76.7781C102.683 76.3876 103.317 76.3876 103.707 76.7781C104.098 77.1686 104.098 77.8018 103.707 78.1923C103.317 78.5829 102.683 78.5829 102.293 78.1923Z" fill="#B0B0B0"/>
<path d="M110.779 69.7071C110.389 69.3166 110.389 68.6834 110.779 68.2929C111.17 67.9024 111.803 67.9024 112.193 68.2929C112.584 68.6834 112.584 69.3166 112.193 69.7071C111.803 70.0976 111.17 70.0976 110.779 69.7071Z" fill="#B0B0B0"/>
<path d="M119.265 78.1923C118.874 77.8018 118.874 77.1686 119.265 76.7781C119.655 76.3876 120.288 76.3876 120.679 76.7781C121.069 77.1686 121.069 77.8018 120.679 78.1923C120.288 78.5829 119.655 78.5829 119.265 78.1923Z" fill="#B0B0B0"/>
<path d="M110.779 86.6776C110.389 86.287 110.389 85.6539 110.779 85.2634C111.17 84.8728 111.803 84.8728 112.193 85.2634C112.584 85.6539 112.584 86.287 112.193 86.6776C111.803 87.0681 111.17 87.0681 110.779 86.6776Z" fill="#B0B0B0"/>
<path d="M170.293 78.1357C169.902 77.7452 169.902 77.112 170.293 76.7215C170.683 76.331 171.317 76.331 171.707 76.7215C172.098 77.112 172.098 77.7452 171.707 78.1357C171.317 78.5262 170.683 78.5262 170.293 78.1357Z" fill="#B0B0B0"/>
<path d="M178.779 69.6505C178.389 69.2599 178.389 68.6268 178.779 68.2363C179.17 67.8457 179.803 67.8457 180.193 68.2363C180.584 68.6268 180.584 69.2599 180.193 69.6505C179.803 70.041 179.17 70.041 178.779 69.6505Z" fill="#B0B0B0"/>
<path d="M187.265 78.1357C186.874 77.7452 186.874 77.112 187.265 76.7215C187.655 76.331 188.288 76.331 188.679 76.7215C189.069 77.112 189.069 77.7452 188.679 78.1357C188.288 78.5262 187.655 78.5262 187.265 78.1357Z" fill="#B0B0B0"/>
<path d="M178.779 78.1357C178.389 77.7452 178.389 77.112 178.779 76.7215C179.17 76.331 179.803 76.331 180.193 76.7215C180.584 77.112 180.584 77.7452 180.193 78.1357C179.803 78.5262 179.17 78.5262 178.779 78.1357Z" fill="#B0B0B0"/>
<path d="M178.779 86.6209C178.389 86.2304 178.389 85.5973 178.779 85.2067C179.17 84.8162 179.803 84.8162 180.193 85.2067C180.584 85.5973 180.584 86.2304 180.193 86.6209C179.803 87.0115 179.17 87.0115 178.779 86.6209Z" fill="#B0B0B0"/>
<path d="M170.293 44.1357C169.902 43.7452 169.902 43.112 170.293 42.7215C170.683 42.331 171.317 42.331 171.707 42.7215C172.098 43.112 172.098 43.7452 171.707 44.1357C171.317 44.5262 170.683 44.5262 170.293 44.1357Z" fill="#B0B0B0"/>
<path d="M178.779 35.6505C178.389 35.2599 178.389 34.6268 178.779 34.2363C179.17 33.8457 179.803 33.8457 180.193 34.2363C180.584 34.6268 180.584 35.2599 180.193 35.6505C179.803 36.041 179.17 36.041 178.779 35.6505Z" fill="#B0B0B0"/>
<path d="M178.779 44.1357C178.389 43.7452 178.389 43.112 178.779 42.7215C179.17 42.331 179.803 42.331 180.193 42.7215C180.584 43.112 180.584 43.7452 180.193 44.1357C179.803 44.5262 179.17 44.5262 178.779 44.1357Z" fill="#B0B0B0"/>
<path d="M178.779 52.6209C178.389 52.2304 178.389 51.5972 178.779 51.2067C179.17 50.8162 179.803 50.8162 180.193 51.2067C180.584 51.5972 180.584 52.2304 180.193 52.6209C179.803 53.0115 179.17 53.0115 178.779 52.6209Z" fill="#B0B0B0"/>
<path d="M170.293 146.192C169.902 145.802 169.902 145.169 170.293 144.778C170.683 144.388 171.317 144.388 171.707 144.778C172.098 145.169 172.098 145.802 171.707 146.192C171.317 146.583 170.683 146.583 170.293 146.192Z" fill="#B0B0B0"/>
<path d="M178.779 137.707C178.389 137.317 178.389 136.683 178.779 136.293C179.17 135.902 179.803 135.902 180.193 136.293C180.584 136.683 180.584 137.317 180.193 137.707C179.803 138.098 179.17 138.098 178.779 137.707Z" fill="#B0B0B0"/>
<path d="M187.265 146.192C186.874 145.802 186.874 145.169 187.265 144.778C187.655 144.388 188.288 144.388 188.679 144.778C189.069 145.169 189.069 145.802 188.679 146.192C188.288 146.583 187.655 146.583 187.265 146.192Z" fill="#B0B0B0"/>
<path d="M178.779 146.192C178.389 145.802 178.389 145.169 178.779 144.778C179.17 144.388 179.803 144.388 180.193 144.778C180.584 145.169 180.584 145.802 180.193 146.192C179.803 146.583 179.17 146.583 178.779 146.192Z" fill="#B0B0B0"/>
<path d="M178.779 154.678C178.389 154.287 178.389 153.654 178.779 153.263C179.17 152.873 179.803 152.873 180.193 153.263C180.584 153.654 180.584 154.287 180.193 154.678C179.803 155.068 179.17 155.068 178.779 154.678Z" fill="#B0B0B0"/>
<path d="M170.293 112.192C169.902 111.802 169.902 111.169 170.293 110.778C170.683 110.388 171.317 110.388 171.707 110.778C172.098 111.169 172.098 111.802 171.707 112.192C171.317 112.583 170.683 112.583 170.293 112.192Z" fill="#B0B0B0"/>
<path d="M178.779 103.707C178.389 103.317 178.389 102.683 178.779 102.293C179.17 101.902 179.803 101.902 180.193 102.293C180.584 102.683 180.584 103.317 180.193 103.707C179.803 104.098 179.17 104.098 178.779 103.707Z" fill="#B0B0B0"/>
<path d="M187.265 112.192C186.874 111.802 186.874 111.169 187.265 110.778C187.655 110.388 188.288 110.388 188.679 110.778C189.069 111.169 189.069 111.802 188.679 112.192C188.288 112.583 187.655 112.583 187.265 112.192Z" fill="#B0B0B0"/>
<path d="M178.779 112.192C178.389 111.802 178.389 111.169 178.779 110.778C179.17 110.388 179.803 110.388 180.193 110.778C180.584 111.169 180.584 111.802 180.193 112.192C179.803 112.583 179.17 112.583 178.779 112.192Z" fill="#B0B0B0"/>
<path d="M178.779 120.678C178.389 120.287 178.389 119.654 178.779 119.263C179.17 118.873 179.803 118.873 180.193 119.263C180.584 119.654 180.584 120.287 180.193 120.678C179.803 121.068 179.17 121.068 178.779 120.678Z" fill="#B0B0B0"/>
<path d="M170.293 78.1923C169.902 77.8018 169.902 77.1686 170.293 76.7781C170.683 76.3876 171.317 76.3876 171.707 76.7781C172.098 77.1686 172.098 77.8018 171.707 78.1923C171.317 78.5829 170.683 78.5829 170.293 78.1923Z" fill="#B0B0B0"/>
<path d="M178.779 69.7071C178.389 69.3166 178.389 68.6834 178.779 68.2929C179.17 67.9024 179.803 67.9024 180.193 68.2929C180.584 68.6834 180.584 69.3166 180.193 69.7071C179.803 70.0976 179.17 70.0976 178.779 69.7071Z" fill="#B0B0B0"/>
<path d="M187.265 78.1923C186.874 77.8018 186.874 77.1686 187.265 76.7781C187.655 76.3876 188.288 76.3876 188.679 76.7781C189.069 77.1686 189.069 77.8018 188.679 78.1923C188.288 78.5829 187.655 78.5829 187.265 78.1923Z" fill="#B0B0B0"/>
<path d="M178.779 86.6776C178.389 86.287 178.389 85.6539 178.779 85.2634C179.17 84.8728 179.803 84.8728 180.193 85.2634C180.584 85.6539 180.584 86.287 180.193 86.6776C179.803 87.0681 179.17 87.0681 178.779 86.6776Z" fill="#B0B0B0"/>
<path d="M110.779 10.0858C110.389 9.69529 110.389 9.06213 110.779 8.6716C111.17 8.28108 111.803 8.28108 112.193 8.6716C112.584 9.06213 112.584 9.69529 112.193 10.0858C111.803 10.4763 111.17 10.4763 110.779 10.0858Z" fill="#B0B0B0"/>
<path d="M170.293 10.1923C169.902 9.80181 169.902 9.16865 170.293 8.77812C170.683 8.3876 171.317 8.3876 171.707 8.77812C172.098 9.16865 172.098 9.80181 171.707 10.1923C171.317 10.5829 170.683 10.5829 170.293 10.1923Z" fill="#B0B0B0"/>
<path d="M178.779 1.70711C178.389 1.31658 178.389 0.683417 178.779 0.292893C179.17 -0.0976311 179.803 -0.0976311 180.193 0.292893C180.584 0.683418 180.584 1.31658 180.193 1.70711C179.803 2.09763 179.17 2.09763 178.779 1.70711Z" fill="#B0B0B0"/>
<path d="M187.265 10.1923C186.874 9.80181 186.874 9.16865 187.265 8.77812C187.655 8.3876 188.288 8.3876 188.679 8.77812C189.069 9.16865 189.069 9.80181 188.679 10.1923C188.288 10.5829 187.655 10.5829 187.265 10.1923Z" fill="#B0B0B0"/>
<path d="M178.779 18.6776C178.389 18.287 178.389 17.6539 178.779 17.2634C179.17 16.8728 179.803 16.8728 180.193 17.2634C180.584 17.6539 180.584 18.287 180.193 18.6776C179.803 19.0681 179.17 19.0681 178.779 18.6776Z" fill="#B0B0B0"/>
<path d="M170.293 10.1923C169.902 9.80181 169.902 9.16865 170.293 8.77812C170.683 8.3876 171.317 8.3876 171.707 8.77812C172.098 9.16865 172.098 9.80181 171.707 10.1923C171.317 10.5829 170.683 10.5829 170.293 10.1923Z" fill="#B0B0B0"/>
<path d="M178.779 1.70711C178.389 1.31658 178.389 0.683417 178.779 0.292893C179.17 -0.0976311 179.803 -0.0976311 180.193 0.292893C180.584 0.683418 180.584 1.31658 180.193 1.70711C179.803 2.09763 179.17 2.09763 178.779 1.70711Z" fill="#B0B0B0"/>
<path d="M187.265 10.1923C186.874 9.80181 186.874 9.16865 187.265 8.77812C187.655 8.3876 188.288 8.3876 188.679 8.77812C189.069 9.16865 189.069 9.80181 188.679 10.1923C188.288 10.5829 187.655 10.5829 187.265 10.1923Z" fill="#B0B0B0"/>
<path d="M178.779 10.1923C178.389 9.80181 178.389 9.16865 178.779 8.77812C179.17 8.3876 179.803 8.3876 180.193 8.77812C180.584 9.16865 180.584 9.80181 180.193 10.1923C179.803 10.5829 179.17 10.5829 178.779 10.1923Z" fill="#B0B0B0"/>
<path d="M178.779 18.6776C178.389 18.287 178.389 17.6539 178.779 17.2634C179.17 16.8728 179.803 16.8728 180.193 17.2634C180.584 17.6539 180.584 18.287 180.193 18.6776C179.803 19.0681 179.17 19.0681 178.779 18.6776Z" fill="#B0B0B0"/>
<path d="M187.293 44.1923C186.902 43.8018 186.902 43.1686 187.293 42.7781C187.683 42.3876 188.317 42.3876 188.707 42.7781C189.098 43.1686 189.098 43.8018 188.707 44.1923C188.317 44.5829 187.683 44.5829 187.293 44.1923Z" fill="#B0B0B0"/>
<path d="M187.293 44.1923C186.902 43.8018 186.902 43.1686 187.293 42.7781C187.683 42.3876 188.317 42.3876 188.707 42.7781C189.098 43.1686 189.098 43.8018 188.707 44.1923C188.317 44.5829 187.683 44.5829 187.293 44.1923Z" fill="#B0B0B0"/>
<path d="M187.293 44.1357C186.902 43.7452 186.902 43.112 187.293 42.7215C187.683 42.331 188.317 42.331 188.707 42.7215C189.098 43.112 189.098 43.7452 188.707 44.1357C188.317 44.5262 187.683 44.5262 187.293 44.1357Z" fill="#B0B0B0"/>
</g>
</svg>