<svg xmlns="http://www.w3.org/2000/svg" width="196" height="161" viewBox="0 0 196 161" fill="none">
<path d="M188.314 0.94458C190.235 0.94458 191.943 2.12263 193.438 4.47872C194.932 6.62062 195.786 8.76252 196 10.9044C196 12.6179 195.359 14.0102 194.078 15.0811C180.2 25.3623 170.272 34.3582 164.294 42.0691C158.316 49.7799 155.327 58.5617 155.327 68.4145C155.327 74.1976 156.928 78.9098 160.131 82.551C163.333 85.9781 168.564 89.0838 175.824 91.8683C189.274 97.4372 196 108.254 196 124.318C196 134.599 192.584 143.274 185.752 150.342C178.919 157.41 168.991 160.945 155.967 160.945C141.662 160.945 130.24 155.697 121.699 145.202C113.159 134.706 108.889 121.534 108.889 105.684C108.889 87.4774 113.373 70.5564 122.34 54.9205C131.307 39.2846 143.477 26.4332 158.85 16.3663C174.222 6.08514 184.044 0.94458 188.314 0.94458ZM79.4248 0.94458C81.3464 0.94458 83.0545 2.12263 84.549 4.47872C86.0436 6.62062 86.8976 8.76252 87.1111 10.9044C87.1111 12.6179 86.4706 14.0102 85.1895 15.0811C71.3115 25.3623 61.3834 34.3582 55.4052 42.0691C49.427 49.7799 46.4379 58.5617 46.4379 68.4145C46.4379 74.1976 48.0392 78.9098 51.2418 82.551C54.4444 85.9781 59.6754 89.0838 66.9346 91.8683C80.3856 97.4372 87.1111 108.254 87.1111 124.318C87.1111 134.599 83.695 143.274 76.8627 150.342C70.0305 157.41 60.1024 160.945 47.0784 160.945C32.7734 160.945 21.3508 155.697 12.8105 145.202C4.27015 134.706 0 121.534 0 105.684C0 87.4774 4.48366 70.5564 13.451 54.9205C22.4183 39.2846 34.5882 26.4332 49.9608 16.3663C65.3333 6.08514 75.1547 0.94458 79.4248 0.94458Z" fill="#F5F5F5"/>
</svg>