<svg width="171" height="64" viewBox="0 0 171 64" fill="none" xmlns="http://www.w3.org/2000/svg">
<path d="M118.799 31.1702H120.558V19.4242H118.799V31.1702ZM134.659 23.6554L132.64 28.7478H132.58L130.485 23.6554H128.587L131.729 30.773L129.938 34.7321H131.774L136.616 23.6554H134.659ZM124.672 29.8362C124.095 29.8362 123.291 29.549 123.291 28.8385C123.291 27.932 124.293 27.5843 125.157 27.5843C125.932 27.5843 126.295 27.7505 126.766 27.9773C126.63 29.0652 125.689 29.8362 124.672 29.8362ZM124.884 23.3984C123.609 23.3984 122.289 23.9576 121.743 25.1968L123.306 25.8468C123.64 25.1968 124.262 24.9852 124.915 24.9852C125.826 24.9852 126.751 25.5293 126.766 26.4964V26.6173C126.448 26.4359 125.764 26.1638 124.93 26.1638C123.245 26.1638 121.53 27.0859 121.53 28.8082C121.53 30.3799 122.911 31.3922 124.459 31.3922C125.643 31.3922 126.295 30.8636 126.706 30.2439H126.766V31.1508H128.466V26.6475C128.466 24.5619 126.903 23.3984 124.884 23.3984ZM114.002 25.0856H111.498V21.0591H114.002C115.319 21.0591 116.066 22.1441 116.066 23.0721C116.066 23.9825 115.319 25.0856 114.002 25.0856ZM113.957 19.4242H109.738V31.1702H111.498V26.7202H113.957C115.909 26.7202 117.827 25.3131 117.827 23.0721C117.827 20.8311 115.909 19.4242 113.957 19.4242ZM90.9497 29.8382C89.7335 29.8382 88.7146 28.8242 88.7146 27.4315C88.7146 26.0235 89.7335 24.9944 90.9497 24.9944C92.1504 24.9944 93.0933 26.0235 93.0933 27.4315C93.0933 28.8242 92.1504 29.8382 90.9497 29.8382ZM92.9714 24.3133H92.9106C92.5155 23.8439 91.7551 23.4202 90.7974 23.4202C88.7905 23.4202 86.951 25.1762 86.951 27.4315C86.951 29.6716 88.7905 31.4124 90.7974 31.4124C91.7551 31.4124 92.5155 30.9887 92.9106 30.5042H92.9714V31.0794C92.9714 32.6083 92.1504 33.4258 90.8279 33.4258C89.7486 33.4258 89.0794 32.6537 88.8061 32.0028L87.2702 32.6385C87.7113 33.6984 88.882 35 90.8279 35C92.8955 35 94.6439 33.789 94.6439 30.8372V23.662H92.9714V24.3133ZM95.8602 31.1702H97.6234V19.4242H95.8602V31.1702ZM100.223 27.295C100.178 25.7515 101.424 24.9642 102.321 24.9642C103.02 24.9642 103.613 25.3123 103.811 25.8119L100.223 27.295ZM105.696 25.9631C105.362 25.07 104.343 23.4202 102.261 23.4202C100.193 23.4202 98.4748 25.0398 98.4748 27.4163C98.4748 29.6565 100.178 31.4124 102.458 31.4124C104.297 31.4124 105.362 30.2922 105.803 29.6413L104.434 28.7331C103.978 29.3994 103.355 29.8382 102.458 29.8382C101.561 29.8382 100.922 29.4298 100.512 28.6273L105.879 26.4174L105.696 25.9631ZM62.9407 24.6463V26.3414H67.0148C66.8934 27.295 66.5741 27.9916 66.0875 28.4758C65.4945 29.0661 64.5672 29.7173 62.9407 29.7173C60.4323 29.7173 58.4709 27.704 58.4709 25.2065C58.4709 22.7085 60.4323 20.6956 62.9407 20.6956C64.2935 20.6956 65.2821 21.225 66.0116 21.9065L67.2126 20.7106C66.1942 19.742 64.841 19 62.9407 19C59.505 19 56.6162 21.7851 56.6162 25.2065C56.6162 28.6273 59.505 31.4124 62.9407 31.4124C64.7954 31.4124 66.1942 30.8069 67.2885 29.6716C68.4136 28.5518 68.7633 26.9771 68.7633 25.7057C68.7633 25.3123 68.7329 24.949 68.6722 24.6463H62.9407ZM73.3954 29.8382C72.1787 29.8382 71.1299 28.8393 71.1299 27.4163C71.1299 25.9782 72.1787 24.9944 73.3954 24.9944C74.6116 24.9944 75.6604 25.9782 75.6604 27.4163C75.6604 28.8393 74.6116 29.8382 73.3954 29.8382ZM73.3954 23.4202C71.1755 23.4202 69.3664 25.1002 69.3664 27.4163C69.3664 29.7173 71.1755 31.4124 73.3954 31.4124C75.6148 31.4124 77.424 29.7173 77.424 27.4163C77.424 25.1002 75.6148 23.4202 73.3954 23.4202ZM82.1839 29.8382C80.9677 29.8382 79.9185 28.8393 79.9185 27.4163C79.9185 25.9782 80.9677 24.9944 82.1839 24.9944C83.4002 24.9944 84.449 25.9782 84.449 27.4163C84.449 28.8393 83.4002 29.8382 82.1839 29.8382ZM82.1839 23.4202C79.9641 23.4202 78.1553 25.1002 78.1553 27.4163C78.1553 29.7173 79.9641 31.4124 82.1839 31.4124C84.4035 31.4124 86.2126 29.7173 86.2126 27.4163C86.2126 25.1002 84.4035 23.4202 82.1839 23.4202Z" fill="black"/>
<path d="M20.6162 18V46L34.6162 32L20.6162 18Z" fill="url(#paint0_linear)"/>
<path d="M20.6162 18V46L34.6162 32L20.6162 18Z" fill="url(#paint1_linear)"/>
<path d="M45.1007 31.0452L39.8162 28L35.6162 32L39.8162 36L45.1007 32.7484C45.41 32.5935 45.6162 32.2323 45.6162 31.871C45.6162 31.5097 45.41 31.2 45.1007 31.0452Z" fill="url(#paint2_linear)"/>
<path d="M45.1007 31.0452L39.8162 28L35.6162 32L39.8162 36L45.1007 32.7484C45.41 32.5935 45.6162 32.2323 45.6162 31.871C45.6162 31.5097 45.41 31.2 45.1007 31.0452Z" fill="url(#paint3_linear)"/>
<path d="M21.6162 46L39.2162 36.45L35.1162 32.5L21.6162 46Z" fill="url(#paint4_linear)"/>
<path d="M21.6162 46L39.2162 36.45L35.1162 32.5L21.6162 46Z" fill="url(#paint5_linear)"/>
<path d="M39.2162 27.55L33.6662 24.3L21.6162 18L35.1162 31.5L39.2162 27.55Z" fill="url(#paint6_linear)"/>
<path d="M39.2162 27.55L33.6662 24.3L21.6162 18L35.1162 31.5L39.2162 27.55Z" fill="url(#paint7_linear)"/>
<path d="M65.1165 41.4554L64.6096 41.6894C64.3755 41.2205 64.0924 40.7431 63.7805 40.3339L64.268 40.1097C64.502 40.4312 64.8829 41.0259 65.1165 41.4554ZM64.0049 41.8743L63.5076 42.1083C63.2833 41.6406 63.0002 41.1338 62.7078 40.7338L63.205 40.5193C63.4293 40.8409 63.8 41.4461 64.0049 41.8743ZM57.7338 39.1139C58.3672 39.0559 60.1911 38.8803 61.9664 38.7238C63.0197 38.637 63.927 38.5875 64.5706 38.5587V39.3386C64.0145 39.3386 63.1758 39.3479 62.6785 39.4952C61.3032 39.9341 60.4743 41.4066 60.4743 42.5472C60.4743 44.4295 62.2296 45.0249 63.8 45.0833L63.5169 45.9016C61.7324 45.8247 59.6943 44.8682 59.6943 42.7135C59.6943 41.2112 60.6008 39.9827 61.4886 39.4558C60.6401 39.5532 58.0067 39.8071 56.9632 40.0216L56.8751 39.1625C57.2463 39.1533 57.548 39.1342 57.7338 39.1139Z" fill="black"/>
<path d="M65.1165 41.4552L65.0712 41.3565L64.5639 41.5906L64.6096 41.6892L64.706 41.6405C64.4699 41.1669 64.1843 40.6845 63.8664 40.2681L63.7805 40.3338L63.8258 40.4323L64.3133 40.2081L64.268 40.1095L64.1805 40.1733C64.4102 40.4891 64.791 41.0836 65.0212 41.5068L65.1165 41.4552L65.0712 41.3565L65.1165 41.4552L65.2117 41.4031C64.9743 40.9677 64.5934 40.3731 64.3556 40.046L64.3035 39.9741L63.7352 40.2352L63.6121 40.2918L63.6942 40.3993C64.001 40.8018 64.2811 41.2737 64.5122 41.7374L64.5592 41.8314L65.1617 41.5538L65.2672 41.5051L65.2117 41.4031L65.1165 41.4552ZM64.0049 41.8741L63.9587 41.7759L63.4615 42.01L63.5076 42.1081L63.6049 42.0611C63.3785 41.5889 63.0937 41.0777 62.795 40.6698L62.7078 40.7336L62.7505 40.8331L63.2477 40.6186L63.205 40.5191L63.1161 40.5809C63.3362 40.8965 63.7069 41.5017 63.907 41.9206L64.0049 41.8741L63.9587 41.7759L64.0049 41.8741L64.1026 41.8276C63.8931 41.3896 63.522 40.7844 63.2939 40.4569L63.2431 40.3846L62.6646 40.6342L62.5402 40.6879L62.6201 40.7975C62.9071 41.1894 63.1877 41.6917 63.4098 42.1547L63.4564 42.2516L64.0509 41.9723L64.1495 41.9257L64.1026 41.8276L64.0049 41.8741ZM57.7338 39.1137L57.7435 39.2216C58.3778 39.1636 60.2013 38.988 61.9761 38.8315H61.9752C63.0268 38.7452 63.9328 38.6952 64.5752 38.6668L64.5706 38.5585H64.4622V39.3384H64.5706V39.2301C64.0116 39.2305 63.1724 39.2373 62.6477 39.3909L62.6468 39.3914L62.6456 39.3918C61.2148 39.8534 60.3693 41.3587 60.3659 42.547C60.3633 43.5228 60.831 44.1872 61.4915 44.5914C62.1513 44.9972 62.9989 45.161 63.7962 45.191L63.8 45.0831L63.6976 45.0476L63.4144 45.8663L63.5169 45.9014L63.5216 45.7935C62.6464 45.7559 61.7086 45.5007 60.9989 44.998C60.2889 44.494 59.8039 43.7551 59.8026 42.7133C59.8001 41.2563 60.6883 40.0549 61.5436 39.5488L61.979 39.2902L61.4759 39.3481C60.6283 39.4455 57.9978 39.6986 56.9411 39.9157L56.9632 40.0214L57.0707 40.0105L56.983 39.1518L56.8751 39.1623L56.878 39.2707C57.2514 39.2615 57.5547 39.2424 57.7451 39.2216L57.7338 39.1137L57.7435 39.2216L57.7338 39.1137L57.7218 39.0062C57.5411 39.0257 57.2407 39.0448 56.8726 39.0544L56.7554 39.0575L56.8552 40.0329L56.8675 40.1518L56.9847 40.1277C58.0155 39.9153 60.6515 39.6605 61.5008 39.5632L61.4886 39.4556L61.4331 39.3625C60.5132 39.9102 59.5881 41.1653 59.5859 42.7133C59.5843 43.8262 60.1184 44.6429 60.8737 45.1748C61.6291 45.7085 62.6028 45.97 63.5123 46.0098L63.5931 46.0137L63.9024 45.1182L63.9503 44.9803L63.8042 44.9748C63.0306 44.9464 62.2152 44.7834 61.6049 44.4069C60.9956 44.0277 60.5851 43.453 60.5826 42.547C60.5796 41.4544 61.3916 40.0143 62.7116 39.5978L62.6785 39.495L62.7095 39.5987C63.1791 39.4582 64.018 39.446 64.5706 39.4467H64.6789V38.5585V38.4451L64.5659 38.4502C63.921 38.479 63.0124 38.5289 61.9575 38.6157H61.957C60.1814 38.7722 58.3571 38.9478 57.724 39.0058L57.7227 39.0062H57.7218L57.7338 39.1137Z" fill="black"/>
<path d="M74.8009 43.1523H70.8028V45.3168C70.8028 45.8339 70.6465 46.0489 70.2856 46.1653C69.9242 46.2825 69.3 46.302 68.2768 46.2922C68.2179 46.0878 68.0812 45.7654 67.9644 45.5707C68.7833 45.6003 69.5442 45.5898 69.7685 45.5805C69.983 45.5805 70.0711 45.5128 70.0711 45.3071V43.1523H66.0623V42.44H70.0711V40.8595H66.7161V40.1681H70.0711V38.6658C68.9983 38.783 67.896 38.8507 66.8913 38.8994C66.8621 38.7047 66.7745 38.422 66.7059 38.2561C69.0076 38.1495 71.8362 37.8951 73.2991 37.4373L73.8453 38.0128C73.0163 38.2654 71.9529 38.4508 70.8028 38.5875V40.1681H74.255V40.8595H70.8028V42.44H74.8009V43.1523Z" fill="black"/>
<path d="M74.8009 43.1523V43.0439H70.6944V45.3168C70.6944 45.5652 70.6559 45.7268 70.5877 45.8335C70.52 45.9392 70.4197 46.0074 70.2525 46.062L70.2522 46.0624C69.9686 46.1555 69.4689 46.1868 68.689 46.1859C68.5598 46.1859 68.4228 46.1852 68.2776 46.1839L68.2768 46.2922L68.3809 46.2622C68.3178 46.0455 68.1815 45.7226 68.0576 45.5148L67.9644 45.5707L67.9606 45.679C68.366 45.6939 68.7571 45.6984 69.0766 45.6984C69.4045 45.6984 69.6564 45.6934 69.7732 45.6883L69.7685 45.5804V45.6888C69.8853 45.6879 69.9885 45.6726 70.0715 45.6024C70.154 45.5296 70.1798 45.4226 70.1794 45.307V43.0439H66.1706V42.5483H70.1794V40.7512H66.8244V40.2763H70.1794V38.5446L70.0592 38.5577C68.9898 38.675 67.8896 38.7423 66.8862 38.791L66.8913 38.8993L66.9983 38.8832C66.9666 38.6733 66.8782 38.3906 66.8062 38.215L66.7059 38.256L66.711 38.3644C69.0182 38.2565 71.845 38.0051 73.3316 37.5405L73.2991 37.4372L73.2208 37.5117L73.7667 38.0872L73.8453 38.0127L73.8137 37.909C72.9952 38.1587 71.9364 38.3437 70.7895 38.4795L70.6944 38.4909V40.2763H74.1467V40.7512H70.6944V42.5483H74.6926V43.1523H74.8009V43.0439V43.1523H74.9092V42.44V42.3316H70.9111V40.9678H74.3634V40.168V40.0597H70.9111V38.5874H70.8028L70.8154 38.6949C71.9694 38.5577 73.0375 38.3724 73.8767 38.1164L74.0442 38.0653L73.3777 37.3627L73.3312 37.3136L73.2669 37.334C71.8273 37.7859 68.9974 38.042 66.7013 38.1477L66.5476 38.155L66.606 38.2971C66.6708 38.4536 66.758 38.7355 66.7842 38.9153L66.7987 39.0123L66.8964 39.0076C67.9022 38.959 69.0064 38.8909 70.0824 38.7732L70.0711 38.6657H69.9627V40.0597H66.6078V40.8595V40.9678H69.9627V42.3316H65.954V43.1523V43.2606H69.9627V45.307L69.9288 45.4391C69.914 45.4539 69.8662 45.4725 69.7685 45.4721H69.7659H69.7638C69.6529 45.4768 69.402 45.4818 69.0766 45.4818C68.7592 45.4818 68.3707 45.4772 67.9682 45.4624L67.769 45.4551L67.8718 45.6265C67.9814 45.8081 68.118 46.1306 68.1726 46.3222L68.1946 46.3997L68.2755 46.4005C68.4211 46.4018 68.5591 46.4026 68.689 46.4026C69.4757 46.4018 69.9826 46.3764 70.3191 46.268V46.2685C70.5124 46.2067 70.6707 46.109 70.771 45.9494C70.8712 45.7899 70.9107 45.5855 70.9111 45.3168V43.2606H74.9092V43.1523H74.8009Z" fill="black"/>
<path d="M79.5989 39.0073C80.6526 39.1829 82.6026 39.144 83.5687 39.0073V39.8072C82.5345 39.9138 80.6619 39.9138 79.6091 39.8072L79.5989 39.0073ZM79.9797 42.9471C79.8917 43.2983 79.8528 43.5713 79.8528 43.8345C79.8528 44.2737 80.1452 44.7033 81.4714 44.7033C82.3394 44.7033 83.0807 44.625 83.8612 44.4494L83.8708 45.2682C83.2754 45.3859 82.4664 45.4638 81.4617 45.4638C79.8427 45.4638 79.1212 44.9275 79.1212 44.0198C79.1212 43.6686 79.1893 43.2886 79.2773 42.8794L79.9797 42.9471ZM77.7754 38.2655C77.7166 38.4318 77.629 38.7436 77.5897 38.9193C77.4047 39.8072 77.1216 41.5324 77.1216 42.6157C77.1216 43.0838 77.141 43.4739 77.1999 43.9428C77.3654 43.5036 77.5803 42.9373 77.7361 42.5569L78.1559 42.8688C77.9122 43.5522 77.5604 44.5763 77.4729 45.0347C77.4436 45.1709 77.4242 45.3558 77.4242 45.4638L77.4534 45.8044L76.7514 45.853C76.5563 45.1709 76.4001 44.0592 76.4001 42.7524C76.4001 41.3285 76.7119 39.6709 76.8291 38.8804C76.8588 38.6561 76.8973 38.4022 76.8973 38.1978L77.7754 38.2655Z" fill="black"/>
<path d="M79.5989 39.0073L79.5811 39.1139C80.086 39.1982 80.7804 39.2328 81.479 39.2333C82.2695 39.2333 83.0627 39.188 83.584 39.1143L83.5687 39.0073H83.4603V39.8071H83.5687L83.5577 39.6992C83.0469 39.7521 82.3221 39.7792 81.5958 39.7787C80.8697 39.7792 80.1401 39.7521 79.6196 39.6992L79.6091 39.8071L79.7174 39.8058L79.7072 39.006L79.5989 39.0073L79.5811 39.1139L79.5989 39.0073L79.4906 39.0086L79.5008 39.8083L79.5015 39.9048L79.598 39.915C80.1304 39.9688 80.8642 39.9954 81.5958 39.9954C82.3279 39.9954 83.0567 39.9688 83.5797 39.915L83.677 39.9048V39.0073V38.8825L83.5535 38.9003C83.0491 38.9713 82.2611 39.0166 81.479 39.0166C80.7884 39.0166 80.1 38.9811 79.6167 38.9003L79.4888 38.879L79.4906 39.0086L79.5989 39.0073ZM79.9797 42.9471L79.8744 42.9208C79.7856 43.2772 79.7445 43.5602 79.7445 43.8344C79.7415 44.077 79.8333 44.3423 80.1037 44.5234C80.3724 44.7046 80.7973 44.8107 81.4714 44.8116C82.3457 44.8116 83.0973 44.7325 83.8848 44.5552L83.8612 44.4493L83.7528 44.4506L83.7625 45.2695L83.8708 45.2682L83.8497 45.1619C83.264 45.2775 82.4609 45.3557 81.4617 45.3554C80.664 45.3562 80.0978 45.2216 79.7432 44.9914C79.3898 44.7599 79.232 44.4451 79.2295 44.0198C79.2295 43.6825 79.2955 43.3093 79.3831 42.9022L79.2773 42.8794L79.2666 42.9873L79.9692 43.055L79.9797 42.9471L79.8744 42.9208L79.9797 42.9471L79.9899 42.8392L79.2874 42.7715L79.1914 42.7621L79.1711 42.8565C79.083 43.2683 79.0128 43.6546 79.0128 44.0198C79.0102 44.5019 79.2129 44.9097 79.6256 45.1734C80.0365 45.4379 80.6407 45.5717 81.4617 45.5721C82.4718 45.5721 83.2873 45.4938 83.8916 45.3744L83.98 45.357L83.9695 44.4481L83.9682 44.3143L83.8375 44.3436C83.0647 44.5175 82.333 44.5949 81.4714 44.5949C80.8193 44.5958 80.4347 44.4875 80.2256 44.344C80.0183 44.2005 79.9637 44.0317 79.9612 43.8344C79.9612 43.5822 79.9983 43.3195 80.0847 42.9733L80.1151 42.8514L79.9899 42.8392L79.9797 42.9471ZM77.7754 38.2654L77.6734 38.2295C77.6121 38.403 77.5249 38.714 77.4838 38.896V38.8964V38.8972C77.2977 39.791 77.0137 41.5159 77.0133 42.6157C77.0133 43.0863 77.0331 43.4828 77.0924 43.956L77.1466 44.3905L77.3015 43.9809C77.4665 43.542 77.6815 42.9763 77.8363 42.5979L77.7361 42.5568L77.6718 42.6436L78.0911 42.9555L78.1559 42.8687L78.0539 42.8323C77.8092 43.5187 77.458 44.5386 77.3666 45.0138L77.4729 45.0346L77.367 45.0118C77.3361 45.1581 77.3163 45.3439 77.3159 45.4638V45.4683L77.3357 45.704L76.7437 45.7451L76.7514 45.853L76.8555 45.8234C76.6642 45.1557 76.508 44.0499 76.5085 42.7524C76.508 41.3428 76.8186 39.6899 76.9363 38.896V38.8956L76.9367 38.8947C76.9659 38.6712 77.0052 38.4153 77.0056 38.1977H76.8973L76.8888 38.3061L77.767 38.3738L77.7754 38.2654L77.6734 38.2295L77.7754 38.2654L77.7839 38.1575L76.9057 38.0898L76.789 38.0809V38.1977C76.7894 38.389 76.7518 38.6408 76.7217 38.8659L76.8291 38.8803L76.7217 38.8646C76.6058 39.6513 76.2918 41.314 76.2918 42.7524C76.2921 44.0681 76.4484 45.1861 76.6473 45.8831L76.6713 45.9673L77.4606 45.9127L77.5706 45.9051L77.5321 45.4548L77.4242 45.4638H77.5326C77.5321 45.3677 77.5515 45.1836 77.5786 45.0571L77.579 45.0558V45.0549C77.6633 44.614 78.0145 43.5857 78.2578 42.9051L78.2849 42.8298L77.8008 42.4697L77.6891 42.3863L77.6362 42.5155C77.4791 42.8988 77.2642 43.465 77.0988 43.9043L77.1999 43.9428L77.3074 43.9292C77.2494 43.465 77.23 43.0807 77.23 42.6157C77.2295 41.5493 77.5113 39.8227 77.6958 38.9416L77.5896 38.9192L77.6955 38.9429C77.7331 38.7737 77.8212 38.4605 77.8774 38.3018L77.9248 38.1686L77.7839 38.1575L77.7754 38.2654Z" fill="black"/>
<path d="M90.089 38.0128C90.089 39.7385 90.3129 43.4155 94.1354 45.6884C93.9704 45.8043 93.6776 46.1166 93.5502 46.2923C91.1512 44.8399 90.1174 42.7037 89.6786 40.8596C88.9571 43.3863 87.7286 45.1615 85.7875 46.302C85.6507 46.1555 85.3287 45.853 85.1341 45.7273C87.2893 44.6051 88.489 42.6445 89.084 39.9137L89.513 39.9827C89.4446 39.5341 89.4051 39.1046 89.3866 38.7343H86.9867V38.0128H90.089Z" fill="black"/>
<path d="M90.089 38.0127H89.9807C89.9785 39.7452 90.2091 43.4806 94.08 45.7809L94.1354 45.6883L94.0727 45.5994C93.8878 45.7319 93.6005 46.04 93.4626 46.2287L93.5501 46.2922L93.6065 46.1994C91.2371 44.7645 90.2193 42.6605 89.7838 40.8344L89.6878 40.4316L89.574 40.8298C88.8563 43.3388 87.6468 45.0823 85.7324 46.2084L85.7874 46.3019L85.8661 46.2278C85.7226 46.0746 85.4045 45.7742 85.1929 45.6362L85.1341 45.7272L85.184 45.8233C87.3734 44.6845 88.593 42.685 89.1897 39.9369L89.084 39.9136L89.0666 40.0206L89.4961 40.0897L89.643 40.1129L89.6206 39.966C89.5524 39.5218 89.5134 39.0956 89.4945 38.7288L89.4894 38.6259H87.095V38.121H90.089V38.0127H89.9807H90.089V37.9044H86.8783V38.7342V38.8425H89.3866V38.7342L89.2782 38.7397C89.2972 39.1134 89.3366 39.5463 89.406 39.9991L89.513 39.9826L89.5304 39.8755L89.1009 39.807L88.9997 39.7904L88.9777 39.8908C88.3852 42.6037 87.2055 44.5249 85.0841 45.6311L84.9186 45.717L85.0752 45.8182C85.2529 45.9321 85.5788 46.2363 85.7078 46.3755L85.767 46.439L85.842 46.395C87.8102 45.2401 89.0572 43.4331 89.7826 40.8895L89.6785 40.8595L89.5727 40.8848C90.0153 42.7467 91.0649 44.9147 93.4942 46.3848L93.5798 46.4365L93.6382 46.3557C93.7541 46.1932 94.0525 45.877 94.1981 45.7767L94.3343 45.6803L94.1908 45.5947C90.4169 43.3507 90.1991 39.7312 90.1973 38.0127V37.9044H90.089V38.0127Z" fill="black"/>
<path d="M103.634 44.8005C103.127 45.3168 102.522 45.6097 101.858 45.6097C101.225 45.6097 100.786 45.1801 100.786 44.3804C100.786 43.3076 101.146 41.7185 101.146 40.7825C101.146 40.226 100.864 39.9925 100.376 39.9925C99.5957 39.9925 98.4252 40.8989 97.5378 41.8553C97.5187 42.2644 97.5094 42.6445 97.5094 42.9859C97.5094 43.8645 97.5094 44.4493 97.5476 45.3168C97.5576 45.4827 97.5771 45.7273 97.5971 45.9016H96.7486C96.7578 45.7654 96.7769 45.4827 96.7769 45.3274C96.7866 44.4007 96.7866 43.9225 96.807 42.8498C96.807 42.7524 96.8163 42.6254 96.8163 42.4795C96.3473 43.1917 95.7139 44.1171 95.2462 44.7612L94.7583 44.0883C95.295 43.4155 96.4066 41.9132 96.8945 41.1528C96.9136 40.8409 96.9338 40.5286 96.9525 40.226C96.5137 40.2747 95.6745 40.3919 95.0706 40.4706L94.9924 39.6598C95.2073 39.6708 95.3923 39.6708 95.6258 39.6505C95.9382 39.6315 96.5044 39.5731 97.0016 39.4952C97.0312 39.036 97.0503 38.695 97.0503 38.5875C97.0503 38.3632 97.0604 38.1102 97.0109 37.866L97.9377 37.8951C97.889 38.1291 97.8107 38.675 97.743 39.3479L97.7916 39.3289L98.0744 39.6708C97.958 39.846 97.7916 40.1097 97.6457 40.3437C97.6253 40.5193 97.616 40.7042 97.5971 40.8896C98.3468 40.1972 99.586 39.2709 100.552 39.2709C101.459 39.2709 101.917 39.7774 101.917 40.5675C101.917 41.5323 101.556 43.201 101.556 44.1764C101.556 44.5073 101.712 44.7612 102.054 44.7612C102.541 44.7612 103.058 44.4493 103.507 43.9614L103.634 44.8005Z" fill="black"/>
<path d="M103.634 44.8006L103.556 44.7249C103.064 45.225 102.489 45.501 101.858 45.5014C101.28 45.4929 100.905 45.1409 100.894 44.3805C100.893 43.3271 101.253 41.7406 101.255 40.7826C101.255 40.4876 101.179 40.2557 101.02 40.1013C100.861 39.9468 100.636 39.8838 100.376 39.8842C99.52 39.8947 98.3608 40.8181 97.4582 41.7817L97.4315 41.8109L97.4295 41.8502C97.4104 42.2611 97.4011 42.6425 97.4011 42.986C97.4011 43.8641 97.4011 44.452 97.4392 45.3216V45.3229V45.3237C97.4497 45.4912 97.4688 45.7363 97.4895 45.9145L97.5971 45.9017V45.7933H96.7486V45.9017L96.8565 45.9094C96.8661 45.7718 96.8852 45.4904 96.8852 45.3275H96.7769L96.8852 45.3287C96.895 44.4012 96.895 43.9238 96.9149 42.8519L96.9153 42.8506V42.8498C96.9149 42.7593 96.9246 42.6301 96.9246 42.4795V42.1177L96.7257 42.4198C96.2581 43.1303 95.6246 44.0558 95.1587 44.6978L95.2462 44.7613L95.3339 44.6978L94.8464 44.0249L94.7583 44.0884L94.8435 44.1561C95.3825 43.479 96.4934 41.9789 96.986 41.2113L97.0008 41.1875L97.0024 41.1592C97.0215 40.8477 97.0419 40.5354 97.0608 40.2328L97.0689 40.1042L96.9407 40.1186C96.4985 40.1677 95.6602 40.2849 95.0566 40.3631L95.0706 40.4707L95.1785 40.4601L95.1003 39.6498L94.9924 39.6598L94.9869 39.7682L95.2535 39.7754C95.3745 39.7754 95.4972 39.7703 95.6351 39.7584L95.6258 39.6505L95.6327 39.7588C95.9496 39.7395 96.5167 39.6811 97.0181 39.6019L97.104 39.5883L97.1096 39.502C97.1391 39.0411 97.1582 38.7035 97.1586 38.5875L97.1595 38.3798C97.1595 38.2104 97.1544 38.0277 97.1171 37.8441L97.0109 37.866L97.0075 37.9739L97.9343 38.0035L97.9377 37.8952L97.8315 37.8732C97.7816 38.1152 97.7032 38.6612 97.6351 39.337L97.6173 39.5135L97.7583 39.4584L97.9905 39.7399L98.0744 39.6709L97.9838 39.6108C97.8662 39.7885 97.6999 40.0517 97.5538 40.2862L97.5407 40.3069L97.5382 40.3311C97.5174 40.5113 97.5081 40.6967 97.4891 40.8781L97.4599 41.163L97.6706 40.9692C98.4087 40.2823 99.6512 39.3717 100.552 39.3792C101.415 39.3912 101.796 39.8223 101.809 40.5676C101.809 41.5121 101.449 43.1807 101.448 44.1765C101.448 44.3584 101.49 44.529 101.591 44.6597C101.692 44.7913 101.857 44.8713 102.054 44.8696C102.589 44.868 103.125 44.5348 103.586 44.0351L103.507 43.9614L103.4 43.978L103.527 44.8167L103.634 44.8006L103.556 44.7249L103.634 44.8006L103.741 44.7845L103.614 43.9454L103.58 43.7219L103.427 43.8883C102.991 44.3639 102.493 44.6551 102.054 44.6529C101.779 44.647 101.675 44.4795 101.664 44.1765C101.663 43.2213 102.024 41.5532 102.025 40.5676C102.026 40.1524 101.903 39.7957 101.651 39.5461C101.398 39.2955 101.024 39.1618 100.552 39.1626C99.5207 39.1698 98.2855 40.1131 97.5238 40.8097L97.5971 40.8896L97.705 40.9006C97.7239 40.7119 97.7337 40.5269 97.7532 40.356L97.6457 40.3437L97.7375 40.4008C97.8831 40.1677 98.0494 39.904 98.1645 39.7306L98.2089 39.6636L97.875 39.26L97.8251 39.1994L97.7037 39.2473L97.743 39.3479L97.8509 39.359C97.9182 38.6891 97.9969 38.1432 98.0439 37.9176L98.0702 37.7911L97.0143 37.7577L96.8776 37.7531L96.9047 37.8876C96.9373 38.0467 96.9428 38.2151 96.9428 38.3798L96.942 38.5875C96.942 38.687 96.9229 39.0306 96.8932 39.488L97.0016 39.4953L96.9847 39.3881C96.4916 39.4656 95.9268 39.5235 95.6196 39.5422L95.6182 39.5426H95.6169C95.4841 39.5541 95.3685 39.5588 95.2535 39.5588L94.9978 39.5519L94.8726 39.5456L94.9627 40.4808L94.9738 40.5921L95.0846 40.5777C95.6893 40.4994 96.5289 40.3822 96.9648 40.3336L96.9525 40.2261L96.8446 40.2193C96.8255 40.5218 96.8057 40.8337 96.7862 41.1461L96.8945 41.1529L96.8031 41.0944C96.3202 41.8482 95.2073 43.3525 94.6737 44.0211L94.6226 44.0855L95.1587 44.8252L95.2462 44.9457L95.3339 44.8252C95.8032 44.1785 96.4371 43.2526 96.9068 42.5391L96.8163 42.4795H96.708C96.708 42.6208 96.6987 42.7457 96.6987 42.8498H96.807L96.6987 42.8477C96.6783 43.9212 96.6783 44.4003 96.6685 45.3262V45.3266V45.3275C96.669 45.4756 96.6499 45.7591 96.6406 45.8945L96.6321 46.01H97.5971H97.7185L97.7045 45.8894C97.685 45.7185 97.666 45.4743 97.6555 45.3102L97.5476 45.3169L97.6555 45.3122C97.6178 44.4469 97.6178 43.8646 97.6178 42.986C97.6178 42.6467 97.6271 42.2683 97.6461 41.8604L97.5378 41.8553L97.6173 41.929C98.4904 40.9798 99.671 40.0898 100.376 40.1009C100.604 40.1009 100.765 40.155 100.869 40.2565C100.973 40.3577 101.037 40.5211 101.038 40.7826C101.04 41.697 100.679 43.2886 100.677 44.3805C100.677 44.7998 100.793 45.1362 101.004 45.3681C101.215 45.6004 101.518 45.7189 101.858 45.7181C102.555 45.7185 103.189 45.4088 103.711 44.8764L103.749 44.8378L103.741 44.7845L103.634 44.8006Z" fill="black"/>
<path d="M108.411 43.6495C108.099 43.581 107.787 43.5522 107.465 43.5522C106.47 43.5522 105.905 43.8929 105.905 44.4198C105.905 44.9559 106.441 45.2492 107.368 45.2492C108.079 45.2492 108.421 44.917 108.421 44.2547C108.421 44.0981 108.411 43.8929 108.411 43.6495ZM109.075 40.6746C109.075 41.3081 109.123 42.2446 109.172 43.0838C110.411 43.4253 111.474 44.0981 112.176 44.7321L111.708 45.4536C111.094 44.8289 110.205 44.2153 109.202 43.8646C109.211 44.1172 109.22 44.3317 109.22 44.5073C109.22 45.2978 108.733 45.98 107.446 45.98C106.12 45.98 105.134 45.5517 105.134 44.4493C105.134 43.581 105.895 42.8594 107.563 42.8594C107.836 42.8594 108.109 42.8794 108.382 42.9183C108.343 42.1375 108.304 41.2501 108.304 40.6746C108.304 40.1194 108.304 39.3196 108.294 38.9099C108.284 38.5587 108.255 38.1385 108.217 37.9536H109.153C109.114 38.1589 109.084 38.6167 109.075 38.9099C109.065 39.1732 109.075 39.5143 109.075 39.8947C109.845 39.8749 111.063 39.8261 111.932 39.7098L111.961 40.4503C111.102 40.5286 109.865 40.587 109.075 40.6069V40.6746Z" fill="black"/>
<path d="M108.411 43.6493L108.435 43.5436C108.114 43.473 107.793 43.4437 107.465 43.4437C106.956 43.4442 106.549 43.5296 106.259 43.6942C105.968 43.8559 105.795 44.1148 105.797 44.4196C105.794 44.7259 105.96 44.9786 106.236 45.13C106.512 45.2836 106.893 45.3569 107.368 45.3573C107.739 45.3573 108.033 45.2705 108.236 45.0785C108.438 44.8863 108.53 44.6028 108.529 44.2545C108.529 44.0937 108.52 43.8902 108.52 43.6493V43.5622L108.435 43.5436L108.411 43.6493H108.303C108.303 43.8952 108.313 44.1022 108.313 44.2545C108.312 44.5685 108.233 44.7822 108.086 44.9215C107.94 45.0616 107.708 45.1402 107.368 45.1407C106.916 45.1411 106.566 45.0674 106.342 44.9409C106.118 44.8119 106.016 44.6498 106.014 44.4196C106.015 44.1974 106.124 44.0226 106.365 43.8826C106.606 43.7446 106.98 43.66 107.465 43.6604C107.781 43.6604 108.085 43.6883 108.388 43.7552L108.411 43.6493H108.303H108.411ZM109.075 40.6744H108.967C108.967 41.313 109.015 42.2499 109.064 43.0895L109.068 43.1669L109.143 43.1877C110.362 43.5237 111.413 44.1889 112.103 44.8123L112.176 44.7319L112.085 44.6726L111.617 45.3942L111.708 45.4534L111.785 45.3773C111.159 44.7416 110.259 44.1199 109.237 43.7619L109.088 43.7095L109.094 43.8682C109.103 44.1217 109.112 44.3357 109.112 44.5071C109.101 45.249 108.693 45.8592 107.446 45.8715C106.794 45.8723 106.233 45.7649 105.848 45.5351C105.463 45.3027 105.245 44.9671 105.242 44.4492C105.244 43.657 105.92 42.9761 107.563 42.9676C107.83 42.9676 108.098 42.9871 108.366 43.0257L108.496 43.0442L108.49 42.9131C108.451 42.1331 108.413 41.2457 108.413 40.6744C108.413 40.1189 108.413 39.3195 108.402 38.9068C108.392 38.5505 108.363 38.1332 108.323 37.9314L108.217 37.9534V38.0617H109.153V37.9534L109.046 37.9331C109.005 38.1536 108.976 38.6085 108.967 38.9064V38.906C108.963 38.9957 108.962 39.0935 108.962 39.1976C108.962 39.4061 108.967 39.6419 108.967 39.8945V40.0059L109.077 40.0028C109.85 39.983 111.07 39.9343 111.946 39.817L111.932 39.7096L111.824 39.7138L111.853 40.4544L111.961 40.4501L111.952 40.3422C111.097 40.4201 109.86 40.4785 109.072 40.4983L108.967 40.5014V40.6744H109.075H109.183V40.6067H109.075L109.077 40.715C109.87 40.6948 111.109 40.6368 111.972 40.558L112.074 40.5487L112.04 39.7054L112.036 39.5865L111.918 39.6021C111.058 39.7176 109.84 39.7663 109.072 39.7866L109.075 39.8945H109.183C109.183 39.6398 109.179 39.4032 109.179 39.1976C109.179 39.0947 109.18 38.9996 109.183 38.9137L109.183 38.9123L109.183 38.9132C109.192 38.625 109.223 38.1638 109.259 37.9738L109.284 37.8451H108.217H108.084L108.11 37.9754C108.146 38.1438 108.176 38.5665 108.186 38.9128C108.196 39.319 108.196 40.1192 108.196 40.6744C108.196 41.2542 108.234 42.142 108.273 42.9236L108.382 42.9181L108.397 42.8111C108.119 42.7713 107.841 42.7506 107.563 42.7509C106.714 42.7509 106.084 42.9338 105.659 43.2406C105.235 43.5465 105.024 43.9829 105.025 44.4492C105.023 45.0336 105.297 45.4632 105.737 45.7212C106.177 45.9811 106.771 46.0877 107.446 46.0881C108.107 46.0886 108.582 45.9121 108.891 45.6184C109.199 45.3251 109.33 44.924 109.329 44.5071C109.329 44.3277 109.319 44.1128 109.31 43.8601L109.202 43.8644L109.166 43.9663C110.151 44.3108 111.027 44.9164 111.631 45.5291L111.725 45.6252L112.267 44.7907L112.317 44.7133L112.248 44.6514C111.534 44.0069 110.46 43.3265 109.201 42.9791L109.172 43.0836L109.28 43.0772C109.231 42.2389 109.183 41.3028 109.183 40.6744H109.075Z" fill="black"/>
<path d="M119.684 38.4118L119.568 39.1625C118.495 39.0948 116.545 38.8993 115.452 38.7046L115.579 37.9628C116.642 38.2074 118.739 38.4021 119.684 38.4118ZM117.978 40.9284C116.867 40.9284 115.921 41.2598 115.345 41.4257C115.052 41.504 114.769 41.6203 114.535 41.7083L114.292 40.8108C114.555 40.7825 114.887 40.7232 115.169 40.6653C115.852 40.5095 116.954 40.1972 118.056 40.1972C119.431 40.1972 120.455 40.9678 120.455 42.3431C120.455 44.4395 118.593 45.6291 116.086 46.0002L115.627 45.2588C117.968 44.9656 119.627 44.0494 119.627 42.313C119.627 41.504 118.973 40.9284 117.978 40.9284Z" fill="black"/>
<path d="M119.684 38.4118L119.578 38.3949L119.461 39.146L119.568 39.1625L119.575 39.0546C118.506 38.9873 116.556 38.7914 115.471 38.5981L115.452 38.7047L115.559 38.7229L115.686 37.9814L115.579 37.9628L115.555 38.0686C116.634 38.3157 118.727 38.5096 119.683 38.5202L119.684 38.4118L119.578 38.3949L119.684 38.4118L119.685 38.3035C118.752 38.2946 116.651 38.0986 115.603 37.8575L115.492 37.8316L115.346 38.6865L115.327 38.7922L115.433 38.8113C116.534 39.0072 118.483 39.2028 119.562 39.2708L119.661 39.2772L119.792 38.4283L119.811 38.3044L119.685 38.3035L119.684 38.4118ZM117.978 40.9284V40.8201C116.846 40.8201 115.886 41.1574 115.315 41.3216L115.345 41.4257L115.317 41.3211C115.015 41.4015 114.729 41.52 114.497 41.6068L114.535 41.7083L114.64 41.6796L114.396 40.7825L114.292 40.8108L114.303 40.9187C114.572 40.8895 114.907 40.8298 115.192 40.771H115.193L115.194 40.7706C115.88 40.6136 116.974 40.3055 118.056 40.3055C119.393 40.3144 120.341 41.0305 120.346 42.3432C120.345 43.3583 119.901 44.142 119.144 44.7332C118.387 45.3228 117.311 45.7095 116.069 45.8931L116.086 46.0003L116.178 45.9431L115.719 45.2017L115.627 45.2588L115.641 45.3659C116.822 45.2178 117.836 44.9139 118.566 44.4167C119.295 43.9216 119.736 43.2174 119.735 42.313C119.735 41.8794 119.557 41.4989 119.246 41.2348C118.935 40.9699 118.496 40.8201 117.978 40.8201V40.9284V41.0368C118.934 41.0436 119.515 41.57 119.519 42.313C119.516 43.145 119.129 43.7675 118.444 44.2377C117.759 44.7057 116.775 45.0062 115.614 45.1514L115.446 45.1721L115.993 46.0569L116.031 46.1179L116.102 46.1073C117.367 45.9195 118.476 45.5259 119.277 44.9042C120.078 44.2838 120.565 43.4243 120.563 42.3432C120.564 41.6284 120.294 41.0563 119.841 40.672C119.39 40.2869 118.764 40.0888 118.056 40.0888C116.935 40.0893 115.823 40.4054 115.145 40.5594L115.169 40.6653L115.147 40.559C114.868 40.6165 114.537 40.6754 114.28 40.7033L114.154 40.7169L114.431 41.7367L114.463 41.8514L114.574 41.8095C114.809 41.7207 115.089 41.6059 115.373 41.5302H115.374L115.375 41.5298C115.956 41.3618 116.887 41.0368 117.978 41.0368V40.9284Z" fill="black"/>
<defs>
<linearGradient id="paint0_linear" x1="27.6162" y1="27.5" x2="20.6162" y2="36" gradientUnits="userSpaceOnUse">
<stop stop-color="#00E2FF"/>
<stop offset="1" stop-color="#03C6F5"/>
</linearGradient>
<linearGradient id="paint1_linear" x1="33.4263" y1="44.7588" x2="14.4787" y2="26.5978" gradientUnits="userSpaceOnUse">
<stop stop-color="#00A0FF"/>
<stop offset="0.00657445" stop-color="#00A1FF"/>
<stop offset="0.2601" stop-color="#00BEFF"/>
<stop offset="0.5122" stop-color="#00D2FF"/>
<stop offset="0.7604" stop-color="#00DFFF"/>
<stop offset="1" stop-color="#00E3FF"/>
</linearGradient>
<linearGradient id="paint2_linear" x1="40.6162" y1="28" x2="30.1162" y2="28" gradientUnits="userSpaceOnUse">
<stop stop-color="#FFEA0D"/>
<stop offset="1" stop-color="#FFCF00"/>
</linearGradient>
<linearGradient id="paint3_linear" x1="46.3752" y1="32.0695" x2="22.5698" y2="32.0695" gradientUnits="userSpaceOnUse">
<stop stop-color="#FFE000"/>
<stop offset="0.4087" stop-color="#FFBD00"/>
<stop offset="0.7754" stop-color="#FFA500"/>
<stop offset="1" stop-color="#FF9C00"/>
</linearGradient>
<linearGradient id="paint4_linear" x1="30.6162" y1="32" x2="19.1162" y2="43.5" gradientUnits="userSpaceOnUse">
<stop stop-color="#F73547"/>
<stop offset="1" stop-color="#E22652"/>
</linearGradient>
<linearGradient id="paint5_linear" x1="36.8799" y1="43.5906" x2="12.9913" y2="19.4439" gradientUnits="userSpaceOnUse">
<stop stop-color="#FF3A44"/>
<stop offset="1" stop-color="#C31162"/>
</linearGradient>
<linearGradient id="paint6_linear" x1="36.6162" y1="27.5" x2="21.6162" y2="18" gradientUnits="userSpaceOnUse">
<stop stop-color="#2EF38F"/>
<stop offset="1" stop-color="#0EDE76"/>
</linearGradient>
<linearGradient id="paint7_linear" x1="18.2142" y1="38.8109" x2="28.8818" y2="28.0452" gradientUnits="userSpaceOnUse">
<stop stop-color="#32A071"/>
<stop offset="0.0685" stop-color="#2DA771"/>
<stop offset="0.4762" stop-color="#15CF74"/>
<stop offset="0.8009" stop-color="#06E775"/>
<stop offset="1" stop-color="#00F076"/>
</linearGradient>
</defs>
</svg>
