
<svg width="170" height="51" viewBox="0 0 170 51" fill="none" xmlns="http://www.w3.org/2000/svg">
<path fill-rule="evenodd" clip-rule="evenodd" d="M117.417 21.2076V34.562C117.417 36.4995 118.301 37.4682 120.071 37.572C120.377 37.572 120.717 37.5374 121.058 37.4682C121.398 37.399 121.704 37.3298 121.942 37.226L121.636 35.3578C121.33 35.427 121.126 35.4616 120.956 35.4616C120.581 35.4616 120.343 35.3578 120.173 35.1502C120.003 34.9426 119.935 34.5966 119.935 34.1123V21L117.417 21.2076ZM92.2013 33.8699C92.7798 35.0462 93.6305 35.9112 94.7194 36.5339C95.8424 37.1567 97.1355 37.468 98.7008 37.468C99.6196 37.468 100.538 37.3642 101.491 37.1566C102.444 36.9491 103.329 36.6377 104.179 36.2225V29.8221H98.2584V31.8287H101.695V34.9078C101.253 35.0808 100.811 35.2192 100.3 35.2884C99.7897 35.3922 99.3133 35.4268 98.8029 35.4268C97.714 35.4268 96.7952 35.1846 96.0806 34.7003C95.366 34.1813 94.8555 33.524 94.5152 32.6936C94.175 31.8633 94.0048 30.8946 94.0048 29.8221C94.0048 28.6112 94.209 27.5387 94.6514 26.6737C95.0597 25.8088 95.6722 25.1515 96.4549 24.7017C97.2376 24.2519 98.1563 24.0098 99.1772 24.0098C100.402 24.0098 101.695 24.3211 103.057 24.9785L103.703 22.9718C103.022 22.6259 102.308 22.3837 101.525 22.1761C100.743 22.0031 99.9258 21.8993 99.0751 21.8993C97.6119 21.8993 96.2847 22.2107 95.1278 22.7989C93.9368 23.387 93.018 24.2865 92.3374 25.4628C91.6568 26.6391 91.3165 28.0922 91.3165 29.7875C91.3165 31.3443 91.6228 32.7282 92.2013 33.8699ZM57.0835 33.2125H63.0726L64.5698 37.2603H67.3262L61.3371 22.0722H58.853L53 37.2603H55.6202L57.0835 33.2125ZM62.2899 31.1367H57.8321L59.4315 26.7428L60.044 24.7708C60.2482 25.4973 60.4864 26.1893 60.6905 26.7774L62.2899 31.1367ZM68.3202 26.1618V26.1619V26.1619V26.1619V26.162V26.162V26.162V26.162V26.162C68.3516 27.0839 68.3809 27.944 68.3809 28.7147H68.3469V41.9654L70.8991 41.7578V37.018C71.6477 37.2602 72.3963 37.3985 73.145 37.3985C74.1999 37.3985 75.1186 37.1564 75.9013 36.672C76.718 36.2222 77.3305 35.4957 77.7729 34.5616C78.2153 33.6275 78.4535 32.4858 78.4535 31.1711C78.4535 29.9256 78.2493 28.8877 77.875 28.0573C77.5007 27.227 76.9902 26.6388 76.3437 26.2583C75.6971 25.8777 75.0166 25.7047 74.2679 25.7047C72.9748 25.7047 71.8519 26.2583 70.865 27.3654C70.831 26.881 70.797 26.4313 70.6949 25.9469H68.3129L68.3202 26.1618ZM75.8673 31.3786C75.8673 32.7625 75.595 33.8004 75.0846 34.4924C74.5402 35.2189 73.7915 35.5649 72.8387 35.5649C72.5324 35.5649 72.1922 35.5303 71.8519 35.4611C71.5116 35.3919 71.2053 35.2881 70.9671 35.1497V29.0952C71.3414 28.6801 71.7498 28.3687 72.1581 28.1265C72.5665 27.8843 73.0089 27.7805 73.5193 27.7805C74.2339 27.7805 74.7784 28.0919 75.2207 28.6455C75.6631 29.199 75.8673 30.0986 75.8673 31.3786ZM79.9849 28.7147C79.9849 27.9439 79.9556 27.0837 79.9242 26.1618L79.9169 25.9469H82.2989C82.401 26.4313 82.435 26.881 82.469 27.3654C83.4559 26.2583 84.5788 25.7047 85.8719 25.7047C86.6206 25.7047 87.3012 25.8777 87.9477 26.2583C88.5943 26.6388 89.1047 27.227 89.479 28.0573C89.8533 28.8877 90.0575 29.9256 90.0575 31.1711C90.0575 32.4858 89.8193 33.6275 89.3769 34.5616C88.9345 35.4957 88.322 36.2222 87.5053 36.672C86.7227 37.1564 85.8039 37.3985 84.749 37.3985C84.0003 37.3985 83.2517 37.2602 82.5031 37.018V41.7578L79.9509 41.9654V28.7147H79.9849ZM86.6886 34.4924C87.1991 33.8004 87.4713 32.7625 87.4713 31.3786C87.4713 30.0986 87.2671 29.199 86.8247 28.6455C86.3824 28.0919 85.8379 27.7805 85.1233 27.7805C84.6129 27.7805 84.1705 27.8843 83.7621 28.1265C83.3538 28.3687 82.9454 28.6801 82.5711 29.0952V35.1497C82.8093 35.2881 83.1156 35.3919 83.4559 35.4611C83.7962 35.5303 84.1365 35.5649 84.4427 35.5649C85.3955 35.5649 86.1782 35.2189 86.6886 34.4924ZM113.129 37.2601C113.027 36.8103 112.993 36.3259 112.959 35.7724C112.551 36.2567 112.074 36.6373 111.428 36.9833C110.815 37.3293 110.101 37.4676 109.284 37.4676C108.637 37.4676 108.059 37.3293 107.548 37.0871C107.038 36.8449 106.596 36.4643 106.289 35.9454C105.983 35.4264 105.813 34.8037 105.813 34.0771C105.813 32.97 106.187 32.1051 106.97 31.4477C107.753 30.7904 109.046 30.479 110.849 30.479C111.53 30.479 112.21 30.5136 112.857 30.6174V30.4098C112.857 29.4065 112.653 28.7146 112.244 28.2994C111.836 27.8842 111.224 27.6767 110.441 27.6767C109.896 27.6767 109.318 27.7459 108.705 27.9188C108.093 28.0918 107.548 28.2648 107.072 28.507L106.664 26.6388C107.106 26.4312 107.719 26.2236 108.467 26.0506C109.216 25.8776 109.999 25.7738 110.815 25.7738C111.768 25.7738 112.585 25.9122 113.265 26.2236C113.946 26.535 114.456 27.0193 114.831 27.7459C115.205 28.4724 115.409 29.4411 115.409 30.652V35.1496C115.409 35.5042 115.427 35.97 115.45 36.5607C115.459 36.7769 115.468 37.0098 115.477 37.2601H113.129ZM111.632 35.1496C112.176 34.9075 112.585 34.5615 112.925 34.1809V32.0705C112.244 32.0013 111.666 31.9667 111.224 31.9667C110.169 31.9667 109.454 32.1397 109.046 32.4857C108.637 32.8316 108.433 33.2814 108.433 33.8695C108.433 34.4231 108.569 34.8383 108.876 35.115C109.182 35.3918 109.556 35.5302 110.067 35.5302C110.577 35.5648 111.087 35.4264 111.632 35.1496ZM123.746 34.562V21.2076L126.264 21V34.1123C126.264 34.5966 126.332 34.9426 126.502 35.1502C126.672 35.3578 126.911 35.4616 127.285 35.4616C127.455 35.4616 127.659 35.427 127.965 35.3578L128.272 37.226C128.034 37.3298 127.727 37.399 127.387 37.4682C127.047 37.5374 126.706 37.572 126.4 37.572C124.631 37.4682 123.746 36.4995 123.746 34.562ZM131.403 31.9322H138.651V31.2403C138.651 30.2369 138.481 29.3028 138.14 28.4725C137.8 27.6422 137.29 26.9502 136.575 26.4659C135.894 25.9469 135.01 25.7047 133.955 25.7047C132.934 25.7047 132.049 25.9469 131.266 26.4313C130.484 26.9156 129.905 27.6076 129.463 28.5071C129.021 29.4066 128.816 30.4791 128.816 31.7246C128.816 32.9355 129.021 33.9388 129.429 34.8038C129.837 35.6687 130.45 36.326 131.266 36.7758C132.083 37.2256 133.07 37.4677 134.261 37.4677C135.792 37.4677 137.188 37.1564 138.447 36.5336L137.902 34.7692C137.392 34.9767 136.881 35.1497 136.337 35.2881C135.792 35.4265 135.248 35.4957 134.737 35.4957C132.628 35.4957 131.505 34.2848 131.403 31.9322ZM136.199 30.2715C136.161 29.3889 135.923 28.7089 135.52 28.2649C135.112 27.8151 134.601 27.573 133.921 27.573C133.274 27.573 132.73 27.8151 132.321 28.2649C131.879 28.7147 131.607 29.4066 131.471 30.2715H136.199ZM140.591 28.7838C140.591 28.3382 140.573 27.7331 140.551 26.956L140.551 26.9529C140.542 26.6448 140.532 26.3097 140.523 25.9468H142.905C142.939 26.2582 142.973 26.6387 143.007 27.0885C143.014 27.1898 143.022 27.2859 143.029 27.3771C143.054 27.6906 143.075 27.9466 143.075 28.161C143.381 27.6767 143.653 27.2615 143.959 26.9155C144.232 26.5696 144.572 26.2928 144.946 26.0852C145.321 25.8776 145.763 25.7738 146.239 25.7738C146.648 25.7738 146.954 25.8084 147.26 25.9122L146.954 28.161C146.716 28.0918 146.444 28.0572 146.137 28.0572C145.525 28.0572 145.014 28.1956 144.572 28.507C144.13 28.8184 143.653 29.3373 143.143 30.0293V37.2947H140.625V28.7838H140.591ZM147.77 41.654C148.009 41.7578 148.315 41.827 148.689 41.8962C149.063 41.9654 149.472 42 149.88 42C150.765 42 151.48 41.827 152.092 41.5156C152.671 41.1697 153.215 40.6853 153.657 40.028C154.1 39.3706 154.542 38.4711 154.916 37.3986L159 25.947H156.448L154.372 32.382C154.1 33.2123 153.896 34.0081 153.691 34.8384C153.589 34.2849 153.385 33.4199 153.045 32.3474L150.969 25.9815H148.247L152.33 37.364L152.16 37.7792C151.616 39.2668 150.765 39.9934 149.642 39.9934C149.431 39.9934 149.219 39.9661 148.984 39.9358C148.954 39.932 148.924 39.9281 148.893 39.9242C148.712 39.9011 148.561 39.8627 148.43 39.8294C148.364 39.8127 148.303 39.7973 148.247 39.7858L147.77 41.654Z" fill="white"/>
<path d="M71.7151 14.3878C71.6089 15.1913 71.2726 15.8121 70.7061 16.2503C70.1435 16.6851 69.394 16.9025 68.4577 16.9025C67.4427 16.9025 66.6284 16.5808 66.0147 15.9373C65.4049 15.2939 65.1 14.433 65.1 13.3548V12.6244C65.1 11.9184 65.2416 11.2975 65.5249 10.7619C65.812 10.2263 66.2173 9.81588 66.7405 9.53068C67.2637 9.242 67.8696 9.09766 68.558 9.09766C69.4707 9.09766 70.2025 9.32373 70.7533 9.77588C71.304 10.2246 71.6247 10.8471 71.7151 11.6436H70.5762C70.4779 11.0384 70.2635 10.6002 69.933 10.3289C69.6065 10.0576 69.1482 9.92196 68.558 9.92196C67.8342 9.92196 67.2657 10.1585 66.8526 10.6315C66.4435 11.1045 66.2389 11.7775 66.2389 12.6505V13.3861C66.2389 14.2104 66.4336 14.8661 66.8231 15.353C67.2126 15.8399 67.7575 16.0834 68.4577 16.0834C69.0872 16.0834 69.5691 15.9582 69.9035 15.7078C70.2418 15.4539 70.4661 15.0139 70.5762 14.3878H71.7151Z" fill="white"/>
<path d="M79.8764 13.2453C79.8764 13.9896 79.7348 14.64 79.4515 15.1965C79.1683 15.7495 78.767 16.1721 78.2477 16.4642C77.7284 16.7564 77.1225 16.9025 76.4301 16.9025C75.7535 16.9025 75.1535 16.7564 74.6303 16.4642C74.1071 16.1686 73.6999 15.7495 73.4088 15.2069C73.1216 14.6608 72.9741 14.0296 72.9662 13.3131V12.7653C72.9662 12.0349 73.1098 11.3897 73.397 10.8297C73.6842 10.2698 74.0894 9.84197 74.6126 9.54633C75.1398 9.24721 75.7417 9.09766 76.4183 9.09766C77.1068 9.09766 77.7127 9.24547 78.2359 9.54111C78.7631 9.83327 79.1683 10.2593 79.4515 10.8193C79.7348 11.3758 79.8764 12.0245 79.8764 12.7653V13.2453ZM78.7493 12.7549C78.7493 11.854 78.5447 11.1636 78.1356 10.6837C77.7264 10.2002 77.154 9.95848 76.4183 9.95848C75.7023 9.95848 75.1378 10.2002 74.7247 10.6837C74.3156 11.1636 74.1051 11.8314 74.0933 12.687V13.2453C74.0933 14.1183 74.2998 14.8052 74.7129 15.306C75.1299 15.8034 75.7023 16.0521 76.4301 16.0521C77.1619 16.0521 77.7284 15.8173 78.1297 15.3478C78.5309 14.8748 78.7375 14.1983 78.7493 13.3183V12.7549Z" fill="white"/>
<path d="M87.6246 9.202V14.367C87.6207 15.0834 87.3649 15.6695 86.8574 16.1251C86.3539 16.5808 85.6694 16.8364 84.8039 16.892L84.5029 16.9025C83.5626 16.9025 82.8132 16.6781 82.2546 16.2295C81.6959 15.7808 81.4127 15.1634 81.4048 14.3774V9.202H82.526V14.3461C82.526 14.8956 82.6971 15.3234 83.0394 15.6295C83.3817 15.9321 83.8695 16.0834 84.5029 16.0834C85.1441 16.0834 85.6339 15.9321 85.9723 15.6295C86.3145 15.3269 86.4857 14.9008 86.4857 14.3513V9.202H87.6246Z" fill="white"/>
<path d="M92.257 15.4678L94.7119 9.202H95.9511L92.7645 16.7981H91.7613L88.5806 9.202H89.8139L92.257 15.4678Z" fill="white"/>
<path d="M100.259 13.7252H98.2407V16.7981H97.1018V9.202H99.9462C100.914 9.202 101.657 9.39677 102.177 9.78632C102.7 10.1759 102.962 10.7428 102.962 11.4871C102.962 11.9601 102.816 12.3723 102.525 12.7236C102.238 13.0748 101.836 13.3374 101.321 13.5113L103.339 16.7355V16.7981H102.124L100.259 13.7252ZM98.2407 12.9062H99.9816C100.544 12.9062 100.991 12.7775 101.321 12.5201C101.656 12.2627 101.823 11.9184 101.823 11.4871C101.823 11.0176 101.663 10.6576 101.345 10.4072C101.03 10.1567 100.574 10.0298 99.9757 10.0263H98.2407V12.9062Z" fill="white"/>
<path d="M109.412 13.287H105.688V15.979H110.013V16.7981H104.555V9.202H109.954V10.0263H105.688V12.4679H109.412V13.287Z" fill="white"/>
<path d="M112.274 15.979H117.189V16.7981H110.934V16.0469L115.643 10.0263H111.011V9.202H117V9.93761L112.274 15.979Z" fill="white"/>
<path d="M124.188 13.4122C123.216 13.1653 122.508 12.8627 122.064 12.5044C121.623 12.1427 121.403 11.6975 121.403 11.1689C121.403 10.5706 121.672 10.0767 122.211 9.68719C122.754 9.29417 123.458 9.09766 124.324 9.09766C124.914 9.09766 125.439 9.19852 125.899 9.40025C126.364 9.60198 126.722 9.88022 126.973 10.235C127.229 10.5898 127.357 10.9776 127.357 11.3984H126.218C126.218 10.9393 126.053 10.5793 125.722 10.3185C125.392 10.0541 124.926 9.92196 124.324 9.92196C123.765 9.92196 123.328 10.0315 123.014 10.2506C122.703 10.4663 122.547 10.7671 122.547 11.1532C122.547 11.4628 122.695 11.7253 122.99 11.941C123.289 12.1532 123.795 12.3479 124.507 12.5253C125.223 12.7027 125.781 12.8992 126.183 13.1148C126.588 13.327 126.887 13.5757 127.08 13.8609C127.276 14.1461 127.375 14.4817 127.375 14.8678C127.375 15.4834 127.103 15.9773 126.56 16.3495C126.017 16.7181 125.292 16.9025 124.383 16.9025C123.793 16.9025 123.242 16.8033 122.73 16.6051C122.219 16.4034 121.824 16.1286 121.544 15.7808C121.269 15.433 121.131 15.0382 121.131 14.5965H122.27C122.27 15.0556 122.461 15.4191 122.843 15.6869C123.228 15.9512 123.741 16.0834 124.383 16.0834C124.981 16.0834 125.439 15.9756 125.758 15.7599C126.076 15.5443 126.236 15.2504 126.236 14.8782C126.236 14.5061 126.088 14.2191 125.793 14.0174C125.498 13.8122 124.963 13.6105 124.188 13.4122Z" fill="white"/>
<path d="M134.881 9.202V14.367C134.877 15.0834 134.621 15.6695 134.114 16.1251C133.61 16.5808 132.926 16.8364 132.06 16.892L131.759 16.9025C130.819 16.9025 130.069 16.6781 129.511 16.2295C128.952 15.7808 128.669 15.1634 128.661 14.3774V9.202H129.782V14.3461C129.782 14.8956 129.953 15.3234 130.296 15.6295C130.638 15.9321 131.126 16.0834 131.759 16.0834C132.4 16.0834 132.89 15.9321 133.229 15.6295C133.571 15.3269 133.742 14.9008 133.742 14.3513V9.202H134.881Z" fill="white"/>
<path d="M139.82 13.7252H137.802V16.7981H136.663V9.202H139.507C140.475 9.202 141.219 9.39677 141.738 9.78632C142.261 10.1759 142.523 10.7428 142.523 11.4871C142.523 11.9601 142.377 12.3723 142.086 12.7236C141.799 13.0748 141.398 13.3374 140.882 13.5113L142.9 16.7355V16.7981H141.685L139.82 13.7252ZM137.802 12.9062H139.543C140.105 12.9062 140.552 12.7775 140.882 12.5201C141.217 12.2627 141.384 11.9184 141.384 11.4871C141.384 11.0176 141.225 10.6576 140.906 10.4072C140.591 10.1567 140.135 10.0298 139.537 10.0263H137.802V12.9062Z" fill="white"/>
<path fill-rule="evenodd" clip-rule="evenodd" d="M71.8284 14.2902L71.8138 14.4002C71.7048 15.2249 71.3576 15.8704 70.7677 16.3268C70.1828 16.7788 69.4093 16.9999 68.4575 16.9999C67.4187 16.9999 66.5766 16.6696 65.9415 16.0038C65.3109 15.3384 65 14.4516 65 13.3547V12.6243C65 11.9054 65.1443 11.2687 65.436 10.717C65.7319 10.1652 66.1508 9.74023 66.6915 9.44548C67.2317 9.14749 67.8548 9 68.5578 9C69.4874 9 70.2439 9.2305 70.817 9.70092C71.3903 10.1681 71.7212 10.8151 71.814 11.6327L71.8264 11.7411H70.4909L70.4775 11.6588C70.3812 11.0666 70.1739 10.6541 69.8686 10.4035C69.5659 10.152 69.1332 10.0194 68.5578 10.0194C67.8587 10.0194 67.3198 10.2465 66.9284 10.6946C66.5398 11.144 66.3384 11.7913 66.3384 12.6504V13.386C66.3384 14.1958 66.5296 14.828 66.9014 15.2928C67.2698 15.7533 67.7841 15.9857 68.4575 15.9857C69.0754 15.9857 69.5324 15.8625 69.8426 15.6302C70.1528 15.3974 70.3696 14.9853 70.4777 14.3712L70.4919 14.2902H71.8284ZM66.8524 10.6314C67.2655 10.1584 67.8339 9.92187 68.5578 9.92187C69.1479 9.92187 69.6062 10.0575 69.9328 10.3288C70.2632 10.6001 70.4776 11.0383 70.576 11.6435H71.7149C71.7112 11.6107 71.7071 11.5782 71.7026 11.546C71.5976 10.796 71.2811 10.206 70.753 9.77579C70.2023 9.32364 69.4705 9.09756 68.5578 9.09756C67.8693 9.09756 67.2635 9.2419 66.7403 9.53058C66.217 9.81578 65.8118 10.2262 65.5246 10.7618C65.2414 11.2974 65.0997 11.9183 65.0997 12.6243V13.3547C65.0997 14.4329 65.4046 15.2938 66.0144 15.9372C66.6281 16.5807 67.4425 16.9024 68.4575 16.9024C69.3938 16.9024 70.1432 16.685 70.7058 16.2502C71.2492 15.8299 71.5808 15.2416 71.7007 14.4853C71.7058 14.4531 71.7106 14.4205 71.7149 14.3877H70.576C70.4658 15.0138 70.2416 15.4538 69.9033 15.7077C69.5689 15.9581 69.0869 16.0833 68.4575 16.0833C67.7572 16.0833 67.2123 15.8398 66.8229 15.3529C66.4334 14.866 66.2387 14.2103 66.2387 13.386V12.6504C66.2387 11.7774 66.4432 11.1044 66.8524 10.6314ZM79.5405 15.2401C79.249 15.8092 78.8344 16.2465 78.2972 16.5487C77.7605 16.8506 77.137 16.9999 76.4299 16.9999C75.7381 16.9999 75.1207 16.8504 74.5806 16.5489C74.0404 16.2436 73.6198 15.8104 73.3202 15.2521C73.0248 14.6905 72.8742 14.0432 72.8662 13.314L72.8662 13.313L72.8662 12.7652C72.8662 12.0221 73.0124 11.3615 73.3076 10.7859C73.603 10.21 74.0213 9.76751 74.5625 9.46175C75.1064 9.15315 75.7259 9 76.4181 9C77.1215 9 77.7449 9.15113 78.2852 9.45633C78.8305 9.75861 79.2491 10.1995 79.5406 10.7757M78.2357 9.54102C77.7124 9.24538 77.1066 9.09756 76.4181 9.09756C75.7415 9.09756 75.1395 9.24712 74.6124 9.54623C74.0891 9.84187 73.6839 10.2697 73.3967 10.8296C73.1095 11.3896 72.966 12.0348 72.966 12.7652V13.313C72.9738 14.0295 73.1213 14.6608 73.4085 15.2068C73.6997 15.7494 74.1068 16.1685 74.6301 16.4641C75.1533 16.7563 75.7533 16.9024 76.4299 16.9024C77.1223 16.9024 77.7282 16.7563 78.2475 16.4641C78.7668 16.172 79.168 15.7494 79.4513 15.1964C79.7345 14.6399 79.8762 13.9895 79.8762 13.2452V12.7652C79.8762 12.0244 79.7345 11.3757 79.4513 10.8192C79.168 10.2592 78.7628 9.83317 78.2357 9.54102ZM78.0585 10.7458C77.6712 10.2881 77.129 10.0559 76.4181 10.0559C75.728 10.0559 75.193 10.2875 74.8011 10.746C74.4113 11.2033 74.2045 11.8465 74.1928 12.6876V13.2452C74.1928 14.1036 74.3958 14.7662 74.7901 15.2444C75.186 15.7164 75.7285 15.9544 76.4299 15.9544C77.1375 15.9544 77.6737 15.7287 78.0527 15.2854C78.4342 14.8357 78.6376 14.1843 78.6493 13.3176V12.7548C78.6493 11.8669 78.4473 11.2019 78.0585 10.7458ZM78.7491 13.3182C78.7373 14.1982 78.5307 14.8747 78.1294 15.3477C77.7282 15.8172 77.1617 16.052 76.4299 16.052C75.7021 16.052 75.1297 15.8033 74.7127 15.3059C74.2996 14.8051 74.0931 14.1182 74.0931 13.2452V12.6869C74.1049 11.8313 74.3153 11.1635 74.7245 10.6836C75.1376 10.2001 75.7021 9.95839 76.4181 9.95839C77.1538 9.95839 77.7262 10.2001 78.1353 10.6836C78.5445 11.1635 78.7491 11.8539 78.7491 12.7548V13.3182ZM87.7241 9.10434V14.3669C87.72 15.1086 87.454 15.7217 86.9247 16.1969C86.4003 16.6712 85.6922 16.9326 84.8102 16.9893L84.8072 16.9895L84.5027 17C83.5464 17 82.7723 16.7716 82.191 16.3048C81.6069 15.8356 81.313 15.1895 81.3048 14.3782L81.3048 9.10434H82.6255V14.346C82.6255 14.8743 82.7891 15.2735 83.1064 15.5573C83.4244 15.8383 83.8849 15.9857 84.5027 15.9857C85.129 15.9857 85.591 15.838 85.9047 15.5574C86.2216 15.2773 86.3857 14.8797 86.3857 14.3512V9.10434H87.7241ZM83.0392 15.6294C82.6969 15.3233 82.5258 14.8955 82.5258 14.346V9.2019H81.4046V14.3773C81.4124 15.1633 81.6957 15.7807 82.2543 16.2294C82.813 16.678 83.5624 16.9024 84.5027 16.9024L84.8036 16.8919C85.6691 16.8363 86.3537 16.5807 86.8572 16.125C87.3647 15.6694 87.6204 15.0833 87.6244 14.3669V9.2019H86.4854V14.3512C86.4854 14.9007 86.3143 15.3268 85.972 15.6294C85.6337 15.932 85.1439 16.0833 84.5027 16.0833C83.8693 16.0833 83.3814 15.932 83.0392 15.6294ZM92.7642 16.798H91.7611L88.5803 9.2019H89.8137L92.2568 15.4677L94.7116 9.2019H95.9509L92.7642 16.798ZM92.257 15.1945L94.643 9.10434H96.0996L92.8311 16.8956H91.6941L88.4317 9.10434H89.8824L92.257 15.1945ZM103.339 16.7354V16.798H102.123L100.259 13.7251H98.2405V16.798H97.1016V9.2019H99.9459C100.914 9.2019 101.657 9.39668 102.177 9.78622C102.7 10.1758 102.961 10.7427 102.961 11.487C102.961 11.96 102.816 12.3722 102.525 12.7235C102.256 13.0527 101.886 13.304 101.417 13.4774C101.385 13.489 101.353 13.5003 101.321 13.5112L103.339 16.7354ZM101.47 13.5621L103.439 16.7079V16.8956H102.067L100.202 13.8227H98.3402V16.8956H97.0018V9.10434H99.9459C100.925 9.10434 101.694 9.30122 102.237 9.7087C102.789 10.1197 103.061 10.7177 103.061 11.487C103.061 11.9813 102.908 12.4154 102.602 12.7849C102.324 13.1255 101.945 13.3838 101.47 13.5621ZM101.259 12.4433C101.569 12.2052 101.723 11.8896 101.723 11.487C101.723 11.0413 101.573 10.7117 101.282 10.4831C100.992 10.2521 100.561 10.1272 99.9751 10.1238H98.3402V12.8085H99.9813C100.529 12.8085 100.951 12.683 101.259 12.4433ZM98.2405 12.9061V10.0262H99.9754C100.573 10.0297 101.03 10.1566 101.344 10.4071C101.663 10.6575 101.822 11.0175 101.822 11.487C101.822 11.9183 101.655 12.2626 101.321 12.52C100.99 12.7774 100.544 12.9061 99.9813 12.9061H98.2405ZM109.511 13.3845H105.787V15.8814H110.113V16.8956H104.455V9.10434H110.054V10.1238H105.787V12.3703H109.511V13.3845ZM105.688 12.4678V10.0262H109.954V9.2019H104.555V16.798H110.013V15.9789H105.688V13.2869H109.411V12.4678H105.688ZM117.289 15.8814V16.8956H110.834V16.0137L115.441 10.1238H110.911V9.10434H117.1V9.97056L112.475 15.8814H117.289ZM112.273 15.9789L117 9.93752V9.2019H111.011V10.0262H115.643L110.934 16.0468V16.798H117.189V15.9789H112.273ZM127.354 11.3008C127.356 11.3331 127.357 11.3656 127.357 11.3983H126.218C126.218 10.9392 126.053 10.5792 125.722 10.3184C125.392 10.054 124.925 9.92187 124.323 9.92187C123.765 9.92187 123.328 10.0314 123.013 10.2505C122.703 10.4662 122.547 10.767 122.547 11.1531C122.547 11.4627 122.695 11.7253 122.99 11.9409C123.289 12.1531 123.794 12.3478 124.506 12.5252C125.222 12.7026 125.781 12.8991 126.182 13.1147C126.588 13.3269 126.887 13.5756 127.079 13.8608C127.276 14.146 127.374 14.4816 127.374 14.8677C127.374 15.4833 127.103 15.9772 126.56 16.3494C126.017 16.718 125.291 16.9024 124.383 16.9024C123.792 16.9024 123.242 16.8033 122.73 16.605C122.219 16.4033 121.823 16.1285 121.544 15.7807C121.289 15.4587 121.152 15.0965 121.133 14.694C121.132 14.6617 121.131 14.6292 121.131 14.5964H122.27C122.27 15.0555 122.461 15.419 122.842 15.6868C123.228 15.9511 123.741 16.0833 124.383 16.0833C124.98 16.0833 125.439 15.9755 125.757 15.7598C126.076 15.5442 126.235 15.2503 126.235 14.8781C126.235 14.506 126.088 14.219 125.793 14.0173C125.498 13.8121 124.963 13.6104 124.188 13.4121C123.216 13.1652 122.508 12.8626 122.063 12.5043C121.623 12.1426 121.402 11.6974 121.402 11.1688C121.402 10.5705 121.672 10.0766 122.211 9.6871C122.754 9.29407 123.458 9.09756 124.323 9.09756C124.914 9.09756 125.439 9.19842 125.899 9.40015C126.363 9.60188 126.721 9.88013 126.973 10.2349C127.209 10.5621 127.336 10.9174 127.354 11.3008ZM125.94 9.31106C125.465 9.10287 124.925 9 124.323 9C123.443 9 122.716 9.2001 122.152 9.60863C121.59 10.0145 121.303 10.5363 121.303 11.1688C121.303 11.7283 121.538 12.2002 121.999 12.5791C122.46 12.9507 123.186 13.2583 124.163 13.5065C124.937 13.7045 125.456 13.9027 125.735 14.0968C126.002 14.2791 126.136 14.5357 126.136 14.8781C126.136 15.2176 125.993 15.4818 125.701 15.6796C125.406 15.8793 124.97 15.9857 124.383 15.9857C123.755 15.9857 123.264 15.8563 122.9 15.6072C122.545 15.3577 122.37 15.0239 122.37 14.5964V14.4988H121.031V14.5964C121.031 15.0597 121.176 15.4754 121.465 15.8404C121.757 16.2043 122.169 16.4888 122.693 16.6955C123.217 16.8986 123.781 16.9999 124.383 16.9999C125.304 16.9999 126.052 16.8131 126.617 16.4295C127.185 16.0402 127.474 15.5171 127.474 14.8677C127.474 14.4648 127.371 14.1098 127.162 13.8066C126.958 13.5046 126.645 13.2463 126.23 13.029C125.818 12.8078 125.25 12.6089 124.531 12.4306C123.822 12.254 123.332 12.063 123.049 11.8624C122.775 11.6618 122.647 11.4264 122.647 11.1531C122.647 10.7973 122.788 10.5267 123.071 10.3301C123.363 10.1269 123.777 10.0194 124.323 10.0194C124.912 10.0194 125.352 10.1487 125.659 10.3939C125.963 10.6341 126.118 10.9652 126.118 11.3983V11.4959H127.456V11.3983C127.456 10.9567 127.322 10.5494 127.055 10.1788C126.791 9.80753 126.418 9.51884 125.94 9.31106ZM134.98 9.10434V14.3669C134.976 15.1086 134.71 15.7217 134.181 16.1969C133.657 16.6712 132.948 16.9326 132.066 16.9893L132.063 16.9895L131.759 17C130.803 16.9999 130.029 16.7716 129.447 16.3048C128.863 15.8356 128.569 15.1895 128.561 14.3782L128.561 9.10434H129.882V14.346C129.882 14.8742 130.045 15.2734 130.362 15.5571C130.68 15.8382 131.141 15.9857 131.759 15.9857C132.385 15.9857 132.847 15.838 133.161 15.5574C133.478 15.2773 133.642 14.8797 133.642 14.3512V9.10434H134.98ZM130.295 15.6294C129.953 15.3233 129.782 14.8955 129.782 14.346V9.2019H128.661V14.3773C128.669 15.1633 128.952 15.7807 129.511 16.2294C130.069 16.678 130.819 16.9024 131.759 16.9024L132.06 16.8919C132.925 16.8363 133.61 16.5807 134.113 16.125C134.621 15.6694 134.877 15.0833 134.881 14.3669V9.2019H133.742V14.3512C133.742 14.9007 133.571 15.3268 133.228 15.6294C132.89 15.932 132.4 16.0833 131.759 16.0833C131.126 16.0833 130.638 15.932 130.295 15.6294ZM142.9 16.7354V16.798H141.685L139.82 13.7251H137.802V16.798H136.663V9.2019H139.507C140.475 9.2019 141.218 9.39668 141.738 9.78622C142.261 10.1758 142.523 10.7427 142.523 11.487C142.523 11.96 142.377 12.3722 142.086 12.7235C141.817 13.0527 141.447 13.304 140.978 13.4774C140.946 13.489 140.914 13.5003 140.882 13.5112L142.9 16.7354ZM141.031 13.5621L143 16.7079V16.8956H141.628L139.763 13.8227H137.901V16.8956H136.563V9.10434H139.507C140.487 9.10434 141.255 9.30122 141.798 9.7087C142.35 10.1197 142.622 10.7177 142.622 11.487C142.622 11.981 142.47 12.415 142.164 12.7844M140.82 12.4433C141.13 12.2052 141.284 11.8896 141.284 11.487C141.284 11.0413 141.134 10.7117 140.843 10.4831C140.553 10.2521 140.122 10.1272 139.536 10.1238H137.901V12.8085H139.543C140.09 12.8085 140.513 12.683 140.82 12.4433ZM137.802 12.9061V10.0262H139.537C140.135 10.0297 140.591 10.1566 140.906 10.4071C141.224 10.6575 141.384 11.0175 141.384 11.487C141.384 11.9183 141.216 12.2626 140.882 12.52C140.552 12.7774 140.105 12.9061 139.543 12.9061H137.802ZM79.5405 15.2401C79.8318 14.6677 79.9759 14.0016 79.9759 13.2452L79.5405 15.2401ZM79.5406 10.7757C79.8318 11.348 79.9759 12.0122 79.9759 12.7652V13.2452" fill="white"/>
<path d="M34.3502 9.3501H20.2266C15.2074 9.3501 11.1384 13.419 11.1384 18.4383V32.5619C11.1384 37.5812 15.2074 41.6501 20.2266 41.6501H34.3502C39.3695 41.6501 43.4384 37.5812 43.4384 32.5619V18.4383C43.4384 13.419 39.3695 9.3501 34.3502 9.3501Z" fill="#C8102E"/>
<path d="M17.5338 25.5H18.3906V29.7262H17.5338V28.0092H15.5992V29.7262H14.7424V25.5H15.5992V27.2H17.5338V25.5ZM22.3618 27.9174C22.3618 28.5974 22.0218 28.9714 21.403 28.9714C20.7842 28.9714 20.4374 28.5974 20.4374 27.88V25.5H19.5806V27.914C19.5806 29.1006 20.2402 29.7806 21.3894 29.7806C22.5386 29.7806 23.2186 29.1006 23.2186 27.8766V25.5H22.3618V27.9174ZM32.2626 28.4036L31.3038 25.5H30.6L29.648 28.407L28.713 25.5H27.8018L29.274 29.7262H29.9846L30.94 26.9518L31.8988 29.7262H32.6162L34.0884 25.5H33.1976L32.2626 28.4036ZM35.6218 27.9038H37.1824V27.1388H35.6218V26.2752H37.8862V25.5H34.7786V29.716H37.9678V28.9544H35.6218V27.9038ZM38.9878 29.716H39.8344V25.5H38.9878V29.716ZM24.9118 28.8422L24.5276 29.7194H23.6538L25.5 25.5H26.2548L28.1078 29.7194H27.2238L26.86 28.8456L24.9118 28.8422ZM25.2314 28.0806H26.52L25.874 26.571L25.2314 28.0806Z" fill="white"/>
<path d="M27.2885 20.1247C25.8631 20.1238 24.4964 19.5571 23.4885 18.5493C22.4806 17.5414 21.914 16.1746 21.9131 14.7493H22.6713C22.6713 15.9738 23.1577 17.1482 24.0236 18.0141C24.8895 18.88 26.0639 19.3665 27.2885 19.3665C28.513 19.3665 29.6874 18.88 30.5533 18.0141C31.4192 17.1482 31.9057 15.9738 31.9057 14.7493H32.6639C32.663 16.1746 32.0964 17.5414 31.0885 18.5493C30.0806 19.5571 28.7139 20.1238 27.2885 20.1247Z" fill="white"/>
</svg>
