<svg width="128" height="32" viewBox="0 0 128 32" fill="none" xmlns="http://www.w3.org/2000/svg">
<path d="M19.2433 15.5747C19.2573 14.5443 19.5457 13.5341 20.0815 12.638C20.6173 11.7419 21.3833 10.989 22.308 10.4494C21.7205 9.65298 20.9455 8.99759 20.0445 8.53524C19.1435 8.0729 18.1413 7.81633 17.1176 7.78593C14.9337 7.56836 12.8166 9.02629 11.7038 9.02629C10.5694 9.02629 8.856 7.80753 7.01096 7.84356C5.81754 7.88016 4.65446 8.20957 3.63503 8.79968C2.61561 9.38979 1.77462 10.2205 1.19399 11.2108C-1.32115 15.3441 0.554918 21.4186 2.96421 24.7597C4.16963 26.3957 5.57843 28.2231 7.4218 28.1583C9.22566 28.0873 9.89936 27.0665 12.0768 27.0665C14.234 27.0665 14.866 28.1583 16.7468 28.1171C18.6824 28.0873 19.902 26.4739 21.0651 24.8224C21.9312 23.6566 22.5976 22.3683 23.0398 21.005C21.9152 20.5535 20.9556 19.7978 20.2805 18.8322C19.6054 17.8665 19.2447 16.7336 19.2433 15.5747Z" fill="white"/>
<path d="M15.6909 5.58881C16.7462 4.38625 17.2662 2.84056 17.1403 1.28C15.5279 1.44074 14.0385 2.1722 12.9689 3.32861C12.4459 3.89356 12.0453 4.55079 11.7901 5.26276C11.5349 5.97472 11.43 6.72744 11.4815 7.4779C12.288 7.48578 13.0858 7.31987 13.8149 6.99264C14.5441 6.66542 15.1855 6.18542 15.6909 5.58881Z" fill="white"/>
<path d="M41.5844 24.0206H35.4961L34.0341 28.2374H31.4553L37.222 12.6366H39.9012L45.6679 28.2374H43.0452L41.5844 24.0206ZM36.1267 22.0748H40.9526L38.5736 15.2314H38.507L36.1267 22.0748Z" fill="white"/>
<path d="M58.122 22.5508C58.122 26.0853 56.1851 28.3562 53.2622 28.3562C52.5218 28.3941 51.7854 28.2275 51.1374 27.8755C50.4894 27.5236 49.956 27.0006 49.5982 26.3663H49.5429V32H47.1526V16.863H49.4663V18.7549H49.5103C49.8845 18.1236 50.427 17.6033 51.0799 17.2492C51.7328 16.8951 52.4718 16.7205 53.2183 16.744C56.1738 16.744 58.122 19.026 58.122 22.5508ZM55.6651 22.5508C55.6651 20.248 54.4467 18.734 52.5877 18.734C50.7613 18.734 49.5329 20.2798 49.5329 22.5508C49.5329 24.8425 50.7613 26.3773 52.5877 26.3773C54.4467 26.3773 55.6651 24.8744 55.6651 22.5508Z" fill="white"/>
<path d="M70.939 22.5507C70.939 26.0853 69.0021 28.3562 66.0792 28.3562C65.3388 28.3941 64.6024 28.2275 63.9545 27.8755C63.3065 27.5236 62.773 27.0005 62.4152 26.3663H62.3599V32H59.9696V16.863H62.2833V18.7548H62.3273C62.7015 18.1236 63.2439 17.6032 63.8969 17.2492C64.5498 16.8951 65.2888 16.7205 66.0352 16.744C68.9908 16.744 70.939 19.026 70.939 22.5507ZM68.4821 22.5507C68.4821 20.2479 67.2637 18.734 65.4047 18.734C63.5784 18.734 62.3499 20.2798 62.3499 22.5507C62.3499 24.8425 63.5784 26.3773 65.4047 26.3773C67.2637 26.3773 68.4821 24.8744 68.4821 22.5507H68.4821Z" fill="white"/>
<path d="M79.4101 23.8907C79.5873 25.4378 81.126 26.4536 83.2286 26.4536C85.2434 26.4536 86.6929 25.4377 86.6929 24.0428C86.6929 22.8319 85.8187 22.1068 83.7487 21.6099L81.6786 21.1229C78.7457 20.4309 77.3841 19.0912 77.3841 16.9172C77.3841 14.2255 79.7857 12.3766 83.196 12.3766C86.5711 12.3766 88.8848 14.2255 88.9627 16.9172H86.5497C86.4053 15.3603 85.0876 14.4205 83.162 14.4205C81.2365 14.4205 79.9188 15.3714 79.9188 16.7553C79.9188 17.8582 80.7604 18.5072 82.8191 19.004L84.5789 19.4261C87.856 20.1831 89.2176 21.4688 89.2176 23.7508C89.2176 26.6694 86.8373 28.4975 83.0515 28.4975C79.5093 28.4975 77.1178 26.7124 76.9633 23.8906L79.4101 23.8907Z" fill="white"/>
<path d="M94.3763 14.1713V16.863H96.5908V18.7119H94.3763V24.9824C94.3763 25.9565 94.8197 26.4104 95.7932 26.4104C96.0561 26.4059 96.3185 26.3879 96.5795 26.3564V28.1942C96.1418 28.2741 95.697 28.3103 95.2518 28.3022C92.8941 28.3022 91.9747 27.4373 91.9747 25.2314V18.7119H90.2815V16.863H91.9747V14.1713H94.3763Z" fill="white"/>
<path d="M97.8734 22.5508C97.8734 18.972 100.031 16.7232 103.396 16.7232C106.773 16.7232 108.921 18.972 108.921 22.5508C108.921 26.1393 106.784 28.3783 103.396 28.3783C100.01 28.3783 97.8734 26.1393 97.8734 22.5508ZM106.485 22.5508C106.485 20.0958 105.333 18.6469 103.396 18.6469C101.459 18.6469 100.309 20.1069 100.309 22.5508C100.309 25.0155 101.459 26.4534 103.396 26.4534C105.333 26.4534 106.485 25.0155 106.485 22.5508H106.485Z" fill="white"/>
<path d="M110.891 16.8632H113.171V18.7992H113.226C113.381 18.1946 113.743 17.6602 114.253 17.286C114.764 16.9117 115.39 16.7204 116.027 16.7442C116.303 16.7433 116.578 16.7725 116.846 16.8313V19.0151C116.499 18.9113 116.136 18.8637 115.772 18.874C115.425 18.8603 115.079 18.9201 114.758 19.0493C114.436 19.1786 114.147 19.3743 113.911 19.6229C113.674 19.8715 113.495 20.1672 113.387 20.4896C113.278 20.8121 113.242 21.1537 113.282 21.4909V28.2374H110.891L110.891 16.8632Z" fill="white"/>
<path d="M127.867 24.8965C127.546 26.9613 125.487 28.3783 122.853 28.3783C119.465 28.3783 117.363 26.1614 117.363 22.6047C117.363 19.037 119.477 16.7232 122.753 16.7232C125.974 16.7232 128 18.8849 128 22.3336V23.1335H119.776V23.2746C119.738 23.6932 119.791 24.1149 119.933 24.5117C120.075 24.9085 120.301 25.2713 120.598 25.576C120.894 25.8807 121.253 26.1204 121.652 26.279C122.05 26.4377 122.478 26.5118 122.908 26.4963C123.473 26.548 124.04 26.4202 124.525 26.132C125.009 25.8437 125.385 25.4104 125.598 24.8965L127.867 24.8965ZM119.787 21.5018H125.609C125.63 21.1254 125.572 20.7488 125.437 20.3955C125.303 20.0422 125.095 19.7199 124.826 19.4488C124.558 19.1778 124.236 18.9638 123.879 18.8203C123.522 18.6768 123.138 18.6069 122.753 18.615C122.363 18.6127 121.977 18.6858 121.617 18.8299C121.257 18.9741 120.93 19.1865 120.654 19.4549C120.378 19.7232 120.16 20.0423 120.011 20.3936C119.862 20.745 119.786 21.1216 119.787 21.5018V21.5018Z" fill="white"/>
<path d="M33.8752 6.37414C33.9757 7.08572 34.6879 7.53781 35.7153 7.53781C36.6725 7.53781 37.3746 7.05504 37.3746 6.39009C37.3746 5.81837 36.9274 5.4755 35.9112 5.24175L34.9227 5.00808C33.5347 4.69094 32.9017 4.03641 32.9017 2.93531C32.9017 1.59986 34.0183 0.711652 35.6939 0.711652C36.3525 0.639905 37.0133 0.825942 37.5317 1.22903C38.05 1.63212 38.3838 2.21941 38.4598 2.86233H37.2992C37.2228 2.51045 37.0136 2.19958 36.7131 1.99164C36.4126 1.7837 36.0429 1.69397 35.6777 1.7403C34.7356 1.7403 34.1088 2.18197 34.1088 2.85735C34.1088 3.39226 34.5133 3.69898 35.5131 3.92717L36.3585 4.13021C37.9324 4.48846 38.5818 5.1117 38.5818 6.23918C38.5818 7.67276 37.4437 8.57145 35.6249 8.57145C33.923 8.57145 32.7787 7.71449 32.6932 6.37417L33.8752 6.37414Z" fill="white"/>
<path d="M41.7219 1.32439V2.75858H42.9768V3.69897H41.7219V6.60786C41.7219 7.20043 41.9719 7.45991 42.5409 7.45991C42.6866 7.45945 42.8321 7.45085 42.9768 7.43414V8.36409C42.7715 8.39996 42.5635 8.41904 42.355 8.42114C41.0839 8.42114 40.5777 7.98438 40.5777 6.8937V3.69892H39.6582V2.75853H40.5777V1.32439H41.7219Z" fill="white"/>
<path d="M44.155 6.79005C44.155 5.77176 44.9313 5.18471 46.3092 5.10128L47.8781 5.01295V4.52466C47.8781 3.92718 47.4736 3.5898 46.6923 3.5898C46.0542 3.5898 45.6121 3.81861 45.4852 4.21856H44.3786C44.4954 3.24689 45.4312 2.62365 46.7451 2.62365C48.1971 2.62365 49.0161 3.32969 49.0161 4.52466V8.38988H47.9157V7.59488H47.8253C47.6417 7.88005 47.384 8.11253 47.0783 8.26857C46.7727 8.42462 46.4301 8.49864 46.0856 8.48309C45.8425 8.50779 45.5968 8.48245 45.3643 8.40871C45.1318 8.33497 44.9177 8.21445 44.7358 8.05494C44.5539 7.89543 44.4082 7.70046 44.3082 7.4826C44.2082 7.26473 44.156 7.02882 44.155 6.79005ZM47.8781 6.30667V5.83372L46.4637 5.92205C45.6661 5.97419 45.3043 6.23919 45.3043 6.7379C45.3043 7.24705 45.7565 7.54333 46.3783 7.54333C46.5605 7.56135 46.7446 7.54338 46.9195 7.4905C47.0944 7.43762 47.2567 7.35091 47.3966 7.23553C47.5365 7.12015 47.6513 6.97846 47.734 6.81889C47.8167 6.65931 47.8657 6.48512 47.8781 6.30667ZM46.0593 1.78691L47.3945 0H48.7347L47.24 1.78691H46.0593Z" fill="white"/>
<path d="M50.8587 0.524384H51.9917V3.64184H52.0821C52.2341 3.31605 52.4852 3.04395 52.8012 2.8626C53.1172 2.68126 53.4828 2.59949 53.8481 2.62845C54.1285 2.61355 54.4087 2.65927 54.6689 2.76234C54.9291 2.86541 55.1628 3.02329 55.3533 3.22472C55.5438 3.42616 55.6865 3.66618 55.7711 3.92766C55.8557 4.18914 55.8802 4.46563 55.8428 4.73742V8.38978H54.6985V5.01284C54.6985 4.10926 54.2676 3.65164 53.46 3.65164C53.2635 3.6359 53.0659 3.66228 52.881 3.72893C52.6961 3.79558 52.5283 3.90089 52.3894 4.0375C52.2505 4.17411 52.1438 4.33871 52.0768 4.51979C52.0099 4.70087 51.9842 4.89406 52.0017 5.08583V8.38976H50.8586L50.8587 0.524384Z" fill="white"/>
<path d="M57.6101 2.73292H58.7104V3.63159H58.7959C58.9408 3.30882 59.1851 3.03824 59.495 2.85758C59.8048 2.67692 60.1646 2.59516 60.5242 2.62372C60.806 2.60302 61.089 2.64453 61.3522 2.74515C61.6153 2.84577 61.8519 3.00294 62.0445 3.20501C62.237 3.40708 62.3805 3.64887 62.4644 3.91247C62.5482 4.17607 62.5703 4.45471 62.5289 4.72777V8.3899H61.3859V5.00813C61.3859 4.09903 60.9814 3.64693 60.1361 3.64693C59.9448 3.63822 59.7538 3.67003 59.5762 3.74017C59.3986 3.81031 59.2387 3.91712 59.1073 4.05329C58.976 4.18945 58.8763 4.35175 58.8152 4.52905C58.754 4.70635 58.7329 4.89447 58.7531 5.08051V8.38996H57.6101V2.73292Z" fill="white"/>
<path d="M64.0099 5.55896C63.9735 5.1872 64.017 4.81211 64.1377 4.45774C64.2584 4.10338 64.4536 3.77757 64.7108 3.5012C64.9679 3.22484 65.2814 3.00402 65.6311 2.85292C65.9807 2.70182 66.3589 2.62376 66.7412 2.62376C67.1236 2.62376 67.5017 2.70182 67.8514 2.85292C68.201 3.00402 68.5145 3.22484 68.7717 3.5012C69.0289 3.77757 69.224 4.10338 69.3447 4.45774C69.4654 4.81211 69.509 5.1872 69.4726 5.55896C69.5097 5.93111 69.4667 6.30672 69.3463 6.66166C69.2259 7.01659 69.0308 7.343 68.7736 7.61991C68.5163 7.89682 68.2026 8.1181 67.8526 8.26952C67.5026 8.42095 67.124 8.49918 66.7412 8.49918C66.3584 8.49918 65.9798 8.42095 65.6298 8.26952C65.2798 8.1181 64.9661 7.89682 64.7089 7.61991C64.4516 7.343 64.2565 7.01659 64.1362 6.66166C64.0158 6.30672 63.9728 5.93111 64.0099 5.55896ZM68.2969 5.55896C68.2969 4.33272 67.7329 3.61563 66.7431 3.61563C65.7495 3.61563 65.1906 4.33272 65.1906 5.55898C65.1906 6.79504 65.7496 7.50661 66.7431 7.50661C67.7329 7.5066 68.2969 6.79011 68.2969 5.55896H68.2969Z" fill="white"/>
<path d="M75.8894 8.38988H74.7878V7.49121H74.6973C74.5509 7.81733 74.3031 8.09017 73.9891 8.27106C73.675 8.45196 73.3107 8.53173 72.9476 8.49908C72.6675 8.51848 72.3865 8.47637 72.1252 8.37584C71.864 8.27531 71.629 8.11891 71.4377 7.91811C71.2464 7.71732 71.1036 7.47724 71.0197 7.21548C70.9358 6.95372 70.913 6.67694 70.953 6.40545V2.73283H72.0973V6.11466C72.0973 7.02867 72.4741 7.46544 73.3144 7.46544C73.5092 7.4835 73.7057 7.45885 73.8896 7.39329C74.0734 7.32773 74.24 7.22292 74.377 7.08649C74.5141 6.95007 74.6183 6.78547 74.682 6.60472C74.7456 6.42396 74.7672 6.2316 74.7451 6.04167V2.73283H75.8894V8.38988Z" fill="white"/>
<path d="M79.2582 1.32439V2.75858H80.513V3.69897H79.2582V6.60786C79.2582 7.20043 79.5082 7.45991 80.0772 7.45991C80.2228 7.45945 80.3684 7.45085 80.513 7.43414V8.36409C80.3078 8.40002 80.0998 8.4191 79.8913 8.42114C78.6201 8.42114 78.1139 7.98438 78.1139 6.8937V3.69892H77.1945V2.75853H78.1139V1.32439H79.2582Z" fill="white"/>
<path d="M87.9817 8.38988H86.7532L84.6631 2.73283H85.8853L87.3272 7.19492H87.4177L88.8534 2.73283H90.0668L87.9817 8.38988Z" fill="white"/>
</svg>
