
<svg width="170" height="51" viewBox="0 0 170 51" fill="none" xmlns="http://www.w3.org/2000/svg">
<path fill-rule="evenodd" clip-rule="evenodd" d="M118.417 21.2076V34.562C118.417 36.4995 119.301 37.4682 121.071 37.572C121.377 37.572 121.717 37.5374 122.058 37.4682C122.398 37.399 122.704 37.3298 122.942 37.226L122.636 35.3578C122.33 35.427 122.126 35.4616 121.956 35.4616C121.581 35.4616 121.343 35.3578 121.173 35.1502C121.003 34.9426 120.935 34.5966 120.935 34.1123V21L118.417 21.2076ZM93.2013 33.8699C93.7798 35.0462 94.6305 35.9112 95.7194 36.5339C96.8424 37.1567 98.1355 37.468 99.7008 37.468C100.62 37.468 101.538 37.3642 102.491 37.1566C103.444 36.9491 104.329 36.6377 105.179 36.2225V29.8221H99.2584V31.8287H102.695V34.9078C102.253 35.0808 101.811 35.2192 101.3 35.2884C100.79 35.3922 100.313 35.4268 99.8029 35.4268C98.714 35.4268 97.7952 35.1846 97.0806 34.7003C96.366 34.1813 95.8555 33.524 95.5152 32.6936C95.175 31.8633 95.0048 30.8946 95.0048 29.8221C95.0048 28.6112 95.209 27.5387 95.6514 26.6737C96.0597 25.8088 96.6722 25.1515 97.4549 24.7017C98.2376 24.2519 99.1563 24.0098 100.177 24.0098C101.402 24.0098 102.695 24.3211 104.057 24.9785L104.703 22.9718C104.022 22.6259 103.308 22.3837 102.525 22.1761C101.743 22.0031 100.926 21.8993 100.075 21.8993C98.6119 21.8993 97.2847 22.2107 96.1278 22.7989C94.9368 23.387 94.018 24.2865 93.3374 25.4628C92.6568 26.6391 92.3165 28.0922 92.3165 29.7875C92.3165 31.3443 92.6228 32.7282 93.2013 33.8699ZM58.0835 33.2125H64.0726L65.5698 37.2603H68.3262L62.3371 22.0722H59.853L54 37.2603H56.6202L58.0835 33.2125ZM63.2899 31.1367H58.8321L60.4315 26.7428L61.044 24.7708C61.2482 25.4973 61.4864 26.1893 61.6905 26.7774L63.2899 31.1367ZM69.3202 26.1618V26.1619V26.1619V26.1619V26.162V26.162V26.162V26.162V26.162C69.3516 27.0839 69.3809 27.944 69.3809 28.7147H69.3469V41.9654L71.8991 41.7578V37.018C72.6477 37.2602 73.3963 37.3985 74.145 37.3985C75.1999 37.3985 76.1186 37.1564 76.9013 36.672C77.718 36.2222 78.3305 35.4957 78.7729 34.5616C79.2153 33.6275 79.4535 32.4858 79.4535 31.1711C79.4535 29.9256 79.2493 28.8877 78.875 28.0573C78.5007 27.227 77.9902 26.6388 77.3437 26.2583C76.6971 25.8777 76.0166 25.7047 75.2679 25.7047C73.9748 25.7047 72.8519 26.2583 71.865 27.3654C71.831 26.881 71.797 26.4313 71.6949 25.9469H69.3129L69.3202 26.1618ZM76.8673 31.3786C76.8673 32.7625 76.595 33.8004 76.0846 34.4924C75.5402 35.2189 74.7915 35.5649 73.8387 35.5649C73.5324 35.5649 73.1922 35.5303 72.8519 35.4611C72.5116 35.3919 72.2053 35.2881 71.9671 35.1497V29.0952C72.3414 28.6801 72.7498 28.3687 73.1581 28.1265C73.5665 27.8843 74.0089 27.7805 74.5193 27.7805C75.2339 27.7805 75.7784 28.0919 76.2207 28.6455C76.6631 29.199 76.8673 30.0986 76.8673 31.3786ZM80.9849 28.7147C80.9849 27.9439 80.9556 27.0837 80.9242 26.1618L80.9169 25.9469H83.2989C83.401 26.4313 83.435 26.881 83.469 27.3654C84.4559 26.2583 85.5788 25.7047 86.8719 25.7047C87.6206 25.7047 88.3012 25.8777 88.9477 26.2583C89.5943 26.6388 90.1047 27.227 90.479 28.0573C90.8533 28.8877 91.0575 29.9256 91.0575 31.1711C91.0575 32.4858 90.8193 33.6275 90.3769 34.5616C89.9345 35.4957 89.322 36.2222 88.5053 36.672C87.7227 37.1564 86.8039 37.3985 85.749 37.3985C85.0003 37.3985 84.2517 37.2602 83.5031 37.018V41.7578L80.9509 41.9654V28.7147H80.9849ZM87.6886 34.4924C88.1991 33.8004 88.4713 32.7625 88.4713 31.3786C88.4713 30.0986 88.2671 29.199 87.8247 28.6455C87.3824 28.0919 86.8379 27.7805 86.1233 27.7805C85.6129 27.7805 85.1705 27.8843 84.7621 28.1265C84.3538 28.3687 83.9454 28.6801 83.5711 29.0952V35.1497C83.8093 35.2881 84.1156 35.3919 84.4559 35.4611C84.7962 35.5303 85.1365 35.5649 85.4427 35.5649C86.3955 35.5649 87.1782 35.2189 87.6886 34.4924ZM114.129 37.2601C114.027 36.8103 113.993 36.3259 113.959 35.7724C113.551 36.2567 113.074 36.6373 112.428 36.9833C111.815 37.3293 111.101 37.4676 110.284 37.4676C109.637 37.4676 109.059 37.3293 108.548 37.0871C108.038 36.8449 107.596 36.4643 107.289 35.9454C106.983 35.4264 106.813 34.8037 106.813 34.0771C106.813 32.97 107.187 32.1051 107.97 31.4477C108.753 30.7904 110.046 30.479 111.849 30.479C112.53 30.479 113.21 30.5136 113.857 30.6174V30.4098C113.857 29.4065 113.653 28.7146 113.244 28.2994C112.836 27.8842 112.224 27.6767 111.441 27.6767C110.896 27.6767 110.318 27.7459 109.705 27.9188C109.093 28.0918 108.548 28.2648 108.072 28.507L107.664 26.6388C108.106 26.4312 108.719 26.2236 109.467 26.0506C110.216 25.8776 110.999 25.7738 111.815 25.7738C112.768 25.7738 113.585 25.9122 114.265 26.2236C114.946 26.535 115.456 27.0193 115.831 27.7459C116.205 28.4724 116.409 29.4411 116.409 30.652V35.1496C116.409 35.5042 116.427 35.97 116.45 36.5607C116.459 36.7769 116.468 37.0098 116.477 37.2601H114.129ZM112.632 35.1496C113.176 34.9075 113.585 34.5615 113.925 34.1809V32.0705C113.244 32.0013 112.666 31.9667 112.224 31.9667C111.169 31.9667 110.454 32.1397 110.046 32.4857C109.637 32.8316 109.433 33.2814 109.433 33.8695C109.433 34.4231 109.569 34.8383 109.876 35.115C110.182 35.3918 110.556 35.5302 111.067 35.5302C111.577 35.5648 112.087 35.4264 112.632 35.1496ZM124.746 34.562V21.2076L127.264 21V34.1123C127.264 34.5966 127.332 34.9426 127.502 35.1502C127.672 35.3578 127.911 35.4616 128.285 35.4616C128.455 35.4616 128.659 35.427 128.965 35.3578L129.272 37.226C129.034 37.3298 128.727 37.399 128.387 37.4682C128.047 37.5374 127.706 37.572 127.4 37.572C125.631 37.4682 124.746 36.4995 124.746 34.562ZM132.403 31.9322H139.651V31.2403C139.651 30.2369 139.481 29.3028 139.14 28.4725C138.8 27.6422 138.29 26.9502 137.575 26.4659C136.894 25.9469 136.01 25.7047 134.955 25.7047C133.934 25.7047 133.049 25.9469 132.266 26.4313C131.484 26.9156 130.905 27.6076 130.463 28.5071C130.021 29.4066 129.816 30.4791 129.816 31.7246C129.816 32.9355 130.021 33.9388 130.429 34.8038C130.837 35.6687 131.45 36.326 132.266 36.7758C133.083 37.2256 134.07 37.4677 135.261 37.4677C136.792 37.4677 138.188 37.1564 139.447 36.5336L138.902 34.7692C138.392 34.9767 137.881 35.1497 137.337 35.2881C136.792 35.4265 136.248 35.4957 135.737 35.4957C133.628 35.4957 132.505 34.2848 132.403 31.9322ZM137.199 30.2715C137.161 29.3889 136.923 28.7089 136.52 28.2649C136.112 27.8151 135.601 27.573 134.921 27.573C134.274 27.573 133.73 27.8151 133.321 28.2649C132.879 28.7147 132.607 29.4066 132.471 30.2715H137.199ZM141.591 28.7838C141.591 28.3382 141.573 27.7331 141.551 26.956L141.551 26.9529C141.542 26.6448 141.532 26.3097 141.523 25.9468H143.905C143.939 26.2582 143.973 26.6387 144.007 27.0885C144.014 27.1898 144.022 27.2859 144.029 27.3771C144.054 27.6906 144.075 27.9466 144.075 28.161C144.381 27.6767 144.653 27.2615 144.959 26.9155C145.232 26.5696 145.572 26.2928 145.946 26.0852C146.321 25.8776 146.763 25.7738 147.239 25.7738C147.648 25.7738 147.954 25.8084 148.26 25.9122L147.954 28.161C147.716 28.0918 147.444 28.0572 147.137 28.0572C146.525 28.0572 146.014 28.1956 145.572 28.507C145.13 28.8184 144.653 29.3373 144.143 30.0293V37.2947H141.625V28.7838H141.591ZM148.77 41.654C149.009 41.7578 149.315 41.827 149.689 41.8962C150.063 41.9654 150.472 42 150.88 42C151.765 42 152.48 41.827 153.092 41.5156C153.671 41.1697 154.215 40.6853 154.657 40.028C155.1 39.3706 155.542 38.4711 155.916 37.3986L160 25.947H157.448L155.372 32.382C155.1 33.2123 154.896 34.0081 154.691 34.8384C154.589 34.2849 154.385 33.4199 154.045 32.3474L151.969 25.9815H149.247L153.33 37.364L153.16 37.7792C152.616 39.2668 151.765 39.9934 150.642 39.9934C150.431 39.9934 150.219 39.9661 149.984 39.9358C149.954 39.932 149.924 39.9281 149.893 39.9242C149.712 39.9011 149.561 39.8627 149.43 39.8294C149.364 39.8127 149.303 39.7973 149.247 39.7858L148.77 41.654Z" fill="white"/>
<path d="M74.7011 12.2956H71.1734V14.9814H75.2714V15.7986H70.1V8.22007H75.2155V9.04246H71.1734V11.4784H74.7011V12.2956Z" fill="white"/>
<path d="M79.3023 14.4713L81.6281 8.22007H82.8021L79.7831 15.7986H78.8327L75.8193 8.22007H76.9878L79.3023 14.4713Z" fill="white"/>
<path d="M89.6284 8.22007V13.3731C89.6247 14.0879 89.3824 14.6726 88.9016 15.1272C88.4245 15.5817 87.776 15.8368 86.956 15.8923L86.6709 15.9027C85.7801 15.9027 85.0701 15.6789 84.5408 15.2313C84.0116 14.7836 83.7432 14.1677 83.7358 13.3835V8.22007H84.798V13.3522C84.798 13.9005 84.9601 14.3273 85.2844 14.6327C85.6087 14.9346 86.0708 15.0855 86.6709 15.0855C87.2784 15.0855 87.7425 14.9346 88.063 14.6327C88.3873 14.3308 88.5494 13.9057 88.5494 13.3574V8.22007H89.6284Z" fill="white"/>
<path d="M94.7327 8.22007H95.8117V13.5865C95.8117 14.3117 95.5769 14.879 95.1073 15.2885C94.6414 15.698 94.019 15.9027 93.24 15.9027C92.4312 15.9027 91.8013 15.7101 91.3503 15.3249C90.8994 14.9398 90.6739 14.4002 90.6739 13.7062H91.7473C91.7473 14.1399 91.874 14.4783 92.1274 14.7212C92.3846 14.9641 92.7555 15.0855 93.24 15.0855C93.6835 15.0855 94.0413 14.9554 94.3134 14.6951C94.5892 14.4349 94.729 14.0705 94.7327 13.6021V8.22007Z" fill="white"/>
<path d="M102.878 12.4205C101.958 12.1742 101.287 11.8723 100.866 11.5149C100.448 11.154 100.24 10.7098 100.24 10.1824C100.24 9.58552 100.495 9.09278 101.006 8.70414C101.52 8.31202 102.187 8.11597 103.007 8.11597C103.566 8.11597 104.064 8.2166 104.5 8.41786C104.94 8.61912 105.279 8.89672 105.517 9.25066C105.76 9.60461 105.881 9.99152 105.881 10.4114H104.802C104.802 9.95334 104.645 9.5942 104.332 9.33395C104.019 9.07022 103.577 8.93836 103.007 8.93836C102.478 8.93836 102.064 9.04767 101.766 9.26628C101.471 9.48142 101.324 9.78158 101.324 10.1668C101.324 10.4756 101.464 10.7376 101.744 10.9527C102.027 11.1644 102.506 11.3587 103.18 11.5357C103.859 11.7126 104.388 11.9087 104.768 12.1238C105.152 12.3355 105.435 12.5836 105.618 12.8682C105.804 13.1527 105.897 13.4876 105.897 13.8727C105.897 14.4869 105.64 14.9797 105.126 15.351C104.612 15.7188 103.924 15.9027 103.063 15.9027C102.504 15.9027 101.982 15.8038 101.498 15.606C101.013 15.4048 100.638 15.1306 100.374 14.7836C100.113 14.4366 99.9824 14.0428 99.9824 13.6021H101.061C101.061 14.0601 101.242 14.4227 101.604 14.6899C101.969 14.9536 102.455 15.0855 103.063 15.0855C103.629 15.0855 104.064 14.9779 104.366 14.7628C104.667 14.5477 104.818 14.2544 104.818 13.8831C104.818 13.5119 104.679 13.2256 104.399 13.0243C104.12 12.8196 103.613 12.6183 102.878 12.4205Z" fill="white"/>
<path fill-rule="evenodd" clip-rule="evenodd" d="M74.8 12.3928H71.2723V14.884H75.3703V15.8958H70V8.12263H75.3144V9.13969H71.2723V11.381H74.8V12.3928ZM71.1729 11.4783V9.04236H75.215V8.21996H70.0994V15.7985H75.2709V14.9813H71.1729V12.2955H74.7006V11.4783H71.1729ZM79.7826 15.7985H78.8322L75.8188 8.21996H76.9872L79.3018 14.4712L81.6275 8.21996H82.8016L79.7826 15.7985ZM79.302 14.1862L81.5579 8.12263H82.9471L79.8505 15.8958H78.7642L75.6733 8.12263H77.0569L79.302 14.1862ZM89.7273 8.12263V13.3729C89.7234 14.1113 89.4721 14.7225 88.9701 15.1971C88.4725 15.671 87.8 15.9326 86.9623 15.9893L86.9592 15.9895L86.6704 16C85.7624 16 85.0271 15.7715 84.4753 15.3048C83.9212 14.8361 83.6435 14.1919 83.6358 13.3843L83.6358 8.12263H84.8969V13.3521C84.8969 13.8807 85.0525 14.2796 85.3527 14.5623C85.6528 14.8416 86.0871 14.9881 86.6704 14.9881C87.2618 14.9881 87.6974 14.8413 87.9935 14.5624C88.2933 14.2833 88.4494 13.8861 88.4494 13.3573V8.12263H89.7273ZM85.2839 14.6326C84.9596 14.3272 84.7975 13.9004 84.7975 13.3521V8.21996H83.7352V13.3834C83.7427 14.1676 84.011 14.7835 84.5403 15.2311C85.0695 15.6788 85.7796 15.9026 86.6704 15.9026L86.9555 15.8922C87.7755 15.8367 88.424 15.5816 88.9011 15.127C89.3819 14.6725 89.6241 14.0878 89.6279 13.3729V8.21996H88.5488V13.3573C88.5488 13.9056 88.3867 14.3307 88.0625 14.6326C87.7419 14.9345 87.2779 15.0854 86.6704 15.0854C86.0703 15.0854 85.6081 14.9345 85.2839 14.6326ZM94.6328 8.12263H95.9106V13.5864C95.9106 14.3339 95.6675 14.9298 95.1729 15.3611C94.6846 15.7901 94.0366 15.9999 93.2395 15.9999C92.4151 15.9999 91.759 15.8035 91.2844 15.3982C90.8078 14.9911 90.5739 14.4225 90.5739 13.7061V13.6087H91.8462V13.7061C91.8462 14.1204 91.9666 14.431 92.1962 14.6512C92.429 14.871 92.7715 14.9881 93.2395 14.9881C93.6617 14.9881 93.993 14.865 94.2434 14.6254C94.4953 14.3877 94.6291 14.0506 94.6328 13.6017V8.12263ZM94.7322 13.602C94.7285 14.0704 94.5887 14.4348 94.3129 14.695C94.0408 14.9553 93.683 15.0854 93.2395 15.0854C92.7549 15.0854 92.3841 14.964 92.1269 14.7211C91.8735 14.4782 91.7467 14.1398 91.7467 13.7061H90.6733C90.6733 13.7389 90.6738 13.7713 90.6748 13.8034C90.6951 14.4507 90.9201 14.9579 91.3498 15.3248C91.8008 15.71 92.4307 15.9026 93.2395 15.9026C94.0184 15.9026 94.6409 15.6979 95.1068 15.2884C95.5764 14.8789 95.8112 14.3116 95.8112 13.5864V8.21996H94.7322V13.602ZM105.6 9.19667C105.852 9.56631 105.98 9.97193 105.98 10.4113V10.5086H104.702V10.4113C104.702 9.97737 104.555 9.64709 104.267 9.40803C103.978 9.16443 103.562 9.03559 103.006 9.03559C102.49 9.03559 102.1 9.14241 101.825 9.34408C101.558 9.53938 101.423 9.80965 101.423 10.1666C101.423 10.4414 101.545 10.6764 101.804 10.8757C102.071 11.0752 102.534 11.2655 103.206 11.4416C104.096 11.674 105.18 12.0037 105.701 12.8159M105.6 9.19667C104.403 7.34095 100.14 7.62403 100.14 10.1823C100.14 11.6122 101.663 12.1961 102.852 12.5143C103.579 12.7103 104.718 12.9573 104.718 13.883C104.718 14.2238 104.582 14.4875 104.306 14.684C103.615 15.177 102.334 15.0959 101.663 14.6118C101.327 14.3638 101.16 14.0305 101.16 13.602V13.5046H99.8825V13.602C99.8825 14.0629 100.019 14.4771 100.293 14.8412C100.57 15.2044 100.96 15.4888 101.458 15.6955C101.956 15.8986 102.491 15.9999 103.062 15.9999C103.937 15.9999 104.648 15.8131 105.184 15.4295C106.006 14.8361 106.26 13.6689 105.701 12.8159" fill="white"/>
<path d="M34.3502 9.3501H20.2266C15.2074 9.3501 11.1384 13.419 11.1384 18.4383V32.5619C11.1384 37.5812 15.2074 41.6501 20.2266 41.6501H34.3502C39.3695 41.6501 43.4384 37.5812 43.4384 32.5619V18.4383C43.4384 13.419 39.3695 9.3501 34.3502 9.3501Z" fill="#C8102E"/>
<path d="M17.4114 25.5H18.2682V29.7262H17.4114V28.0092H15.4768V29.7262H14.62V25.5H15.4768V27.2H17.4114V25.5ZM22.2394 27.9174C22.2394 28.5974 21.8994 28.9714 21.2806 28.9714C20.6618 28.9714 20.315 28.5974 20.315 27.88V25.5H19.4582V27.914C19.4582 29.1006 20.1178 29.7806 21.267 29.7806C22.4162 29.7806 23.0962 29.1006 23.0962 27.8766V25.5H22.2394V27.9174ZM32.1402 28.4036L31.1814 25.5H30.4776L29.5256 28.407L28.5906 25.5H27.6794L29.1516 29.7262H29.8622L30.8176 26.9518L31.7764 29.7262H32.4938L33.966 25.5H33.0752L32.1402 28.4036ZM35.4994 27.9038H37.06V27.1388H35.4994V26.2752H37.7638V25.5H34.6562V29.716H37.8454V28.9544H35.4994V27.9038ZM38.8654 29.716H39.712V25.5H38.8654V29.716ZM24.7894 28.8422L24.4052 29.7194H23.5314L25.3776 25.5H26.1324L27.9854 29.7194H27.1014L26.7376 28.8456L24.7894 28.8422ZM25.109 28.0806H26.3976L25.7516 26.571L25.109 28.0806Z" fill="white"/>
<path d="M27.2885 20.1247C25.8631 20.1238 24.4964 19.5571 23.4885 18.5493C22.4806 17.5414 21.914 16.1746 21.9131 14.7493H22.6713C22.6713 15.9738 23.1577 17.1482 24.0236 18.0141C24.8895 18.88 26.0639 19.3665 27.2885 19.3665C28.513 19.3665 29.6874 18.88 30.5533 18.0141C31.4192 17.1482 31.9057 15.9738 31.9057 14.7493H32.6639C32.663 16.1746 32.0964 17.5414 31.0885 18.5493C30.0806 19.5571 28.7139 20.1238 27.2885 20.1247Z" fill="white"/>
</svg>
