<svg width="775" height="412" viewBox="0 0 775 412" fill="none" xmlns="http://www.w3.org/2000/svg">
<g style="mix-blend-mode:luminosity">
<path d="M616.391 329.5L513.53 335.217C265.671 335.217 367.416 345.596 280.148 345.596C191.186 345.596 156.42 350.392 90.606 349.916C28.3987 345.596 -25.1994 231.143 43.0865 171.934C120.741 90.4003 131.888 5.02279e-06 265.996 0C368.725 -3.84752e-06 394.731 65.6633 589.129 46.6555C723.742 33.4934 790.798 260.925 754.151 335.217C724.762 394.796 616.391 329.5 616.391 329.5Z" fill="#E9F7FF"/>
<path fill-rule="evenodd" clip-rule="evenodd" d="M190.787 233.722L269.184 338.963C271.935 342.656 280.942 347.639 280.942 347.639C280.942 347.639 238.016 346.343 178.832 354.983C119.649 363.623 90 347.322 90 347.322C90 347.322 93.8778 342.558 96.7566 338.866L178.832 233.626C181.596 230.083 188.115 230.135 190.787 233.722Z" fill="#E1C6C6"/>
<path fill-rule="evenodd" clip-rule="evenodd" d="M185.5 233.626C211 265 217.5 315.5 249 347.322C249 347.322 238.016 346.343 178.832 354.983C119.649 363.623 90 347.322 90 347.322C90 347.322 93.8778 342.558 96.7566 338.866L178.832 233.626C181.596 230.083 182.828 230.039 185.5 233.626Z" fill="#E6CECE"/>
<path d="M198.5 262C203 256.5 210.893 261.232 210 259C209 256.5 200.66 245.092 198.5 242.5L189.5 231.5C185.5 227 180 228.5 175 235.5L168.5 244C164.5 249.014 156.5 261 156.5 261C167.5 251 172.102 260.61 177 256C185.5 248 192.003 269.94 198.5 262Z" fill="white"/>
<path fill-rule="evenodd" clip-rule="evenodd" d="M501.028 255.81H440.636C440.08 254.553 439.771 253.162 439.771 251.699C439.771 246.836 443.184 242.769 447.746 241.764C449.407 234.432 455.963 228.958 463.797 228.958C469.542 228.958 474.598 231.9 477.543 236.361C479.093 235.485 480.883 234.986 482.79 234.986C488.692 234.986 493.476 239.77 493.476 245.672C493.476 246.308 493.421 246.931 493.314 247.536C493.518 247.519 493.725 247.51 493.933 247.51C497.9 247.51 501.115 250.725 501.115 254.692C501.115 255.072 501.085 255.446 501.028 255.81Z" fill="white"/>
<path fill-rule="evenodd" clip-rule="evenodd" d="M575.056 210.367L668.861 335.895C672.153 340.3 675.641 348.188 675.641 348.188C675.641 348.188 654.905 375.836 567.642 360.284C480.379 344.732 446.251 360.284 446.251 360.284C446.251 360.284 459.099 340.183 462.544 335.78L560.751 210.252C564.058 206.026 571.859 206.089 575.056 210.367Z" fill="#B59C9C"/>
<path fill-rule="evenodd" clip-rule="evenodd" d="M575.056 210.367C589.5 261.5 630.124 305.028 652 354.5C652 354.5 654.905 375.836 567.642 360.284C480.379 344.732 446.251 360.284 446.251 360.284C446.251 360.284 459.099 340.183 462.544 335.78L560.751 210.252C564.058 206.026 571.859 206.089 575.056 210.367Z" fill="#BCA7A7"/>
<path d="M555 244C551.361 247.909 550 234 541.5 233C541.5 233 542.236 230.428 544.198 228.045L560.845 207.12C563.929 203.375 570.826 203.484 573.724 207.323L591.223 230.5C592.136 231.709 597.854 238.327 597.018 239.572C590 239.572 584.674 227.992 578 235.5C570 244.5 568.5 229.5 555 244Z" fill="white"/>
<path fill-rule="evenodd" clip-rule="evenodd" d="M393.843 178.633L542.932 370.819C548.165 377.564 560.298 392.684 560.298 392.684C560.298 392.684 490.315 427.252 377.564 400.46C264.813 373.667 202.174 386.085 202.174 386.085C202.174 386.085 209.548 377.384 215.023 370.643L371.108 178.457C376.363 171.987 388.762 172.083 393.843 178.633Z" fill="#FAE0D2"/>
<path fill-rule="evenodd" clip-rule="evenodd" d="M389 175.866C448.837 253 478 357 530.923 402.62C530.923 402.62 467.851 422.924 371.108 402.62C274.365 382.316 197.854 389.228 197.854 389.228C255.516 321.198 314.888 245.089 371.108 175.866C376.363 169.395 383.919 169.315 389 175.866Z" fill="#FFE9DD"/>
<path d="M344.732 261.789C334.365 258.765 346.808 231.336 317 243C309.211 239.946 348.512 200.591 365.9 179.253C374.108 169.824 382.748 165.251 393.98 177.55C410.582 198.506 446.705 234.946 442.5 241.5C420.9 232.481 449.154 270.037 414.284 248.714C401.756 241.053 399.164 229.821 393.98 229.821C388.796 229.821 383.18 246.237 370.652 246.237C358.124 246.237 355.1 264.813 344.732 261.789Z" fill="white"/>
<path fill-rule="evenodd" clip-rule="evenodd" d="M321.336 302.147H249.035C248.37 300.642 248 298.977 248 297.226C248 291.403 252.086 286.535 257.547 285.331C259.535 276.554 267.384 270 276.763 270C283.64 270 289.694 273.523 293.219 278.863C295.075 277.815 297.218 277.217 299.501 277.217C306.567 277.217 312.294 282.944 312.294 290.01C312.294 290.771 312.228 291.517 312.1 292.242C312.345 292.222 312.592 292.211 312.841 292.211C317.59 292.211 321.439 296.06 321.439 300.809C321.439 301.264 321.404 301.711 321.336 302.147Z" fill="white"/>
<path fill-rule="evenodd" clip-rule="evenodd" d="M659.237 120.298H743.684C742.546 102.34 727.62 88.127 709.374 88.127C697.211 88.127 686.523 94.4436 680.412 103.976C678.898 103.514 677.291 103.266 675.626 103.266C666.568 103.266 659.225 110.609 659.225 119.667C659.225 119.879 659.229 120.089 659.237 120.298Z" fill="#D0E7F9"/>
<path fill-rule="evenodd" clip-rule="evenodd" d="M73.4298 185.337H11.2319C11.3676 172.186 22.0708 161.566 35.2543 161.566C43.7344 161.566 51.1883 165.96 55.4636 172.595C56.9577 172.006 58.5858 171.682 60.2896 171.682C67.552 171.682 73.4394 177.569 73.4394 184.831C73.4394 185.001 73.4362 185.169 73.4298 185.337Z" fill="#D0E7F9"/>
<path fill-rule="evenodd" clip-rule="evenodd" d="M178.952 369.9H3.02637C1.08826 365.95 0 361.507 0 356.81C0 340.378 13.3215 327.056 29.7543 327.056C31.2286 327.056 32.6778 327.163 34.0946 327.37C39.0926 306.12 58.1735 290.301 80.9492 290.301C103.664 290.301 122.703 306.035 127.763 327.199C138.074 329.258 146.476 336.607 150.02 346.296C152.586 345.179 155.42 344.559 158.398 344.559C169.998 344.559 179.401 353.962 179.401 365.562C179.401 367.049 179.246 368.5 178.952 369.9Z" fill="white"/>
<path fill-rule="evenodd" clip-rule="evenodd" d="M774.774 386.188H617.414C615.966 382.913 615.162 379.289 615.162 375.478C615.162 362.805 624.054 352.209 635.94 349.589C640.268 330.484 657.351 316.221 677.764 316.221C692.732 316.221 705.908 323.889 713.58 335.51C717.618 333.229 722.283 331.928 727.252 331.928C742.63 331.928 755.096 344.394 755.096 359.772C755.096 361.429 754.952 363.053 754.674 364.631C755.206 364.585 755.744 364.562 756.287 364.562C766.622 364.562 775 372.94 775 383.275C775 384.266 774.923 385.239 774.774 386.188Z" fill="white"/>
<path d="M451.226 116.271C459.434 116.271 462.458 126.639 462.458 126.639C462.458 126.639 465.482 116.271 472.826 116.271" stroke="#BADAF4" stroke-width="2" stroke-linecap="round" stroke-linejoin="round"/>
<path d="M474.554 95.5352C481.12 95.5352 483.54 103.311 483.54 103.311C483.54 103.311 485.959 95.5352 491.834 95.5352" stroke="#BADAF4" stroke-width="2" stroke-linecap="round" stroke-linejoin="round"/>
<path d="M433.083 101.583C437.351 101.583 438.923 106.767 438.923 106.767C438.923 106.767 440.496 101.583 444.314 101.583" stroke="#BADAF4" stroke-width="2" stroke-linecap="round" stroke-linejoin="round"/>
<path d="M677.369 211.678C681.637 211.678 683.21 216.862 683.21 216.862C683.21 216.862 684.782 211.678 688.601 211.678" stroke="#BADAF4" stroke-width="2" stroke-linecap="round" stroke-linejoin="round"/>
<path d="M211.758 115.967L253.474 189.739M253.474 189.739L229.902 134.111M253.474 189.739L234.654 91.7754M253.474 189.739L272.237 91.7754M253.474 189.739L277.421 134.111M253.474 189.739L295.565 115.967M253.474 189.739V110.351" stroke="#CBE4F6"/>
<path d="M247.182 180.334H259.278V189.43C259.278 191.087 257.934 192.43 256.278 192.43H250.182C248.525 192.43 247.182 191.087 247.182 189.43V180.334Z" fill="#BCA7A7"/>
<rect x="246.318" y="179.471" width="13.8239" height="1.72798" fill="#CBE4F6"/>
<rect x="248.91" y="182.926" width="1.72798" height="6.91193" fill="#E1C6C6"/>
<rect x="252.366" y="182.926" width="1.72798" height="6.91193" fill="#E1C6C6"/>
<rect x="255.822" y="182.926" width="1.72798" height="6.91193" fill="#E1C6C6"/>
<circle cx="253" cy="100" r="46" fill="#D0E7F9"/>
<ellipse cx="253" cy="100" rx="30" ry="46" fill="#E9F7FF"/>
<ellipse cx="253" cy="100" rx="12" ry="46" fill="#D0E7F9"/>
</g>
</svg>
