<svg width="505" height="291" viewBox="0 0 505 291" fill="none" xmlns="http://www.w3.org/2000/svg">
<path d="M109.796 100.769C109.796 98.6662 109.662 96.5631 109.394 94.4599L118.124 88.6763L114.229 77.109L103.752 77.3719C101.603 73.5599 99.0511 70.1423 96.0962 67.1191L99.5884 57.392L89.5147 50.031L81.187 56.3404C77.2918 54.5002 73.128 53.1857 68.8299 52.3971L65.8749 42.5386H53.3835L50.4285 52.3971C46.1304 53.1857 41.9666 54.5002 38.0714 56.3404L29.6094 50.031L19.5357 57.2606L23.0279 66.9876C20.073 70.0109 17.3866 73.5599 15.3719 77.2404L4.89518 76.9775L1 88.5448L9.73058 94.3285C9.46195 96.4316 9.32763 98.5347 9.32763 100.638C9.32763 102.741 9.46195 104.976 9.73058 107.079L1 112.862L4.89518 124.43L15.3719 124.167C17.5209 127.847 20.073 131.396 23.0279 134.42L19.5357 144.147L29.6094 151.376L37.9371 145.067C41.8323 146.907 45.9961 148.221 50.2942 149.01L53.2492 159H65.7406L68.6956 149.01C72.9937 148.221 77.1575 146.907 81.0527 145.067L89.3804 151.376L99.4541 144.147L95.9619 134.42C98.9168 131.396 101.469 127.847 103.618 124.167L114.095 124.43L117.99 112.862L109.259 107.079C109.662 104.976 109.796 102.872 109.796 100.769Z" stroke="#666666" stroke-miterlimit="10" stroke-linecap="round" stroke-linejoin="round"/>
<path d="M59.5624 140.072C81.7426 140.072 99.7231 122.476 99.7231 100.77C99.7231 79.0638 81.7426 61.4675 59.5624 61.4675C37.3823 61.4675 19.4017 79.0638 19.4017 100.77C19.4017 122.476 37.3823 140.072 59.5624 140.072Z" stroke="#666666" stroke-miterlimit="10" stroke-linecap="round" stroke-linejoin="round"/>
<path d="M59.5623 131.791C77.069 131.791 91.261 117.902 91.261 100.77C91.261 83.6373 77.069 69.7485 59.5623 69.7485C42.0555 69.7485 27.8635 83.6373 27.8635 100.77C27.8635 117.902 42.0555 131.791 59.5623 131.791Z" stroke="#666666" stroke-miterlimit="10" stroke-linecap="round" stroke-linejoin="round"/>
<path d="M160.03 34.7817C160.03 33.5987 159.896 32.2842 159.762 31.1012L164.866 27.6836L162.582 20.9799L156.538 21.1113C155.329 18.8767 153.852 16.905 152.106 15.0648L154.12 9.41257L148.21 5.33773L143.375 9.01823C141.092 7.96666 138.674 7.17798 136.122 6.78364L134.51 1H127.257L125.511 6.6522C122.959 7.04654 120.541 7.83521 118.258 8.88678L113.422 5.33773L107.647 9.54402L109.662 15.1962C107.915 17.0365 106.438 19.0082 105.229 21.2427L99.1849 21.1113L96.9015 27.6836L102.006 31.1012C101.871 32.2842 101.737 33.4673 101.737 34.7817C101.737 36.0962 101.871 37.2792 102.006 38.4622L96.9015 41.8798L99.1849 48.5836L105.363 48.4522C106.572 50.6867 108.05 52.6584 109.796 54.3672L107.647 60.0194L113.557 64.2257L118.392 60.5452C120.676 61.5968 123.093 62.3855 125.511 62.7798L127.257 68.5635H134.51L136.256 62.7798C138.808 62.3855 141.226 61.5968 143.375 60.5452L148.21 64.2257L154.12 60.0194L152.106 54.3672C153.852 52.527 155.329 50.5553 156.538 48.4522L162.717 48.5836L165 41.8798L159.896 38.4622C159.896 37.2792 160.03 35.9647 160.03 34.7817Z" stroke="#666666" stroke-miterlimit="10" stroke-linecap="round" stroke-linejoin="round"/>
<path d="M130.884 52.7898C141.047 52.7898 149.286 44.7272 149.286 34.7816C149.286 24.836 141.047 16.7734 130.884 16.7734C120.721 16.7734 112.483 24.836 112.483 34.7816C112.483 44.7272 120.721 52.7898 130.884 52.7898Z" stroke="#666666" stroke-miterlimit="10" stroke-linecap="round" stroke-linejoin="round"/>
<path d="M93 61C88.0294 61 84 65.0294 84 70V266C84 270.971 88.0294 275 93 275H403C407.971 275 412 270.971 412 266V70C412 65.0294 407.971 61 403 61H93Z" fill="#AAAAAA" stroke="#444444" stroke-width="2"/>
<path d="M404.5 263C404.5 265.485 402.485 267.5 400 267.5H95C92.5147 267.5 90.5 265.485 90.5 263V168V73C90.5 70.5147 92.5147 68.5 95 68.5H400C402.485 68.5 404.5 70.5147 404.5 73V263Z" fill="#808080" stroke="#333333"/>
<ellipse cx="99.2228" cy="77.8353" rx="2.14614" ry="2.14336" fill="#333333"/>
<ellipse cx="106.376" cy="77.8353" rx="2.14614" ry="2.14336" fill="#333333"/>
<ellipse cx="113.531" cy="77.8353" rx="2.14614" ry="2.14336" fill="#333333"/>
<rect x="140.5" y="96.5" width="212" height="171" fill="#AAAAAA" stroke="#444444"/>
<rect x="168" y="151" width="165" height="2" rx="1" fill="#CCCCCC"/>
<rect x="168" y="161" width="165" height="2" rx="1" fill="#CCCCCC"/>
<rect x="168" y="171" width="165" height="2" rx="1" fill="#F2F2F2"/>
<rect x="168" y="181" width="165" height="2" rx="1" fill="#CCCCCC"/>
<rect x="168" y="191" width="165" height="2" rx="1" fill="#F9FEEF"/>
<rect x="168" y="201" width="165" height="2" rx="1" fill="#CCCCCC"/>
<rect x="168" y="211" width="165" height="2" rx="1" fill="#CCCCCC"/>
<rect x="168" y="221" width="165" height="2" rx="1" fill="#CCCCCC"/>
<rect x="208" y="127" width="76" height="5" rx="2.5" fill="#333333"/>
<rect x="376" y="111" width="100" height="177" rx="7" fill="#808080" stroke="#444444" stroke-width="2"/>
<rect x="385.5" y="119.5" width="82.0891" height="159.521" rx="0.5" fill="#AAAAAA" stroke="#333333"/>
<rect x="394.5" y="144.5" width="63" height="49" rx="2.5" fill="#9ADAF3" stroke="#333333"/>
<mask id="mask0_784_6109" style="mask-type:alpha" maskUnits="userSpaceOnUse" x="395" y="150" width="62" height="43">
<path d="M395 152C395 150.895 395.895 150 397 150H455C456.105 150 457 150.895 457 152V191C457 192.105 456.105 193 455 193H397C395.895 193 395 192.105 395 191V152Z" fill="#EFEFEF"/>
</mask>
<g mask="url(#mask0_784_6109)">
<path d="M411.815 163.017C412.218 162.502 412.999 162.507 413.396 163.027L435.365 191.788C435.868 192.446 435.399 193.395 434.57 193.395H390.055C389.221 193.395 388.753 192.435 389.268 191.778L411.815 163.017Z" fill="url(#paint0_linear_784_6109)"/>
<path d="M411.714 162.001C412.114 161.491 412.886 161.491 413.286 162.001L416.259 165.784C416.786 166.455 416.128 167.404 415.315 167.146C415.03 167.055 414.719 167.117 414.491 167.311L413.147 168.451C412.774 168.768 412.226 168.768 411.853 168.451L410.509 167.311C410.281 167.117 409.97 167.055 409.685 167.146C408.872 167.404 408.214 166.455 408.741 165.784L411.714 162.001Z" fill="white"/>
<path d="M437.343 169.176C437.746 168.662 438.526 168.667 438.923 169.186L460.8 197.767C461.304 198.425 460.834 199.375 460.006 199.375H415.676C414.842 199.375 414.375 198.414 414.89 197.757L437.343 169.176Z" fill="url(#paint1_linear_784_6109)"/>
<path d="M437.241 168.886C437.64 168.42 438.36 168.42 438.759 168.886L441.982 172.646C442.579 173.343 441.904 174.389 441.024 174.132C440.74 174.049 440.433 174.108 440.199 174.289L438.614 175.522C438.253 175.803 437.747 175.803 437.386 175.522L435.801 174.289C435.567 174.108 435.26 174.049 434.976 174.132C434.096 174.389 433.421 173.343 434.018 172.646L437.241 168.886Z" fill="white"/>
</g>
<rect x="402" y="130" width="48" height="4" rx="2" fill="#333333"/>
<rect x="410" y="207" width="32" height="4" rx="2" fill="#333333"/>
<rect x="400" y="221" width="53" height="3" rx="1.5" fill="#CCCCCC"/>
<rect x="400" y="229" width="53" height="3" rx="1.5" fill="#CCCCCC"/>
<rect x="400" y="237" width="53" height="3" rx="1.5" fill="#CCCCCC"/>
<rect x="400" y="245" width="53" height="3" rx="1.5" fill="#CCCCCC"/>
<rect x="400" y="253" width="53" height="3" rx="1.5" fill="#CCCCCC"/>
<rect x="408" y="261" width="37" height="3" rx="1.5" fill="#CCCCCC"/>
<rect x="59.5" y="31.5" width="54" height="198" rx="4.5" fill="#444444"/>
<path fill-rule="evenodd" clip-rule="evenodd" d="M90.5786 64.9568C88.7198 66.5063 86.3284 67.4385 83.7192 67.4385C77.7992 67.4385 73 62.6393 73 56.7192C73 50.7992 77.7992 46 83.7192 46C89.6393 46 94.4385 50.7992 94.4385 56.7192C94.4385 59.3284 93.5063 61.7198 91.9568 63.5786L100 71.6219L98.6219 73L90.5786 64.9568ZM92.4895 56.7192C92.4895 61.5629 88.5629 65.4895 83.7192 65.4895C78.8755 65.4895 74.949 61.5629 74.949 56.7192C74.949 51.8755 78.8755 47.949 83.7192 47.949C88.5629 47.949 92.4895 51.8755 92.4895 56.7192Z" fill="#AAAAAA"/>
<path d="M78.0625 89.9655H94.9375V92H78.0625V89.9655Z" fill="#AAAAAA"/>
<path d="M78.0625 94H94.9375V96H78.0625V94Z" fill="#AAAAAA"/>
<path d="M90 98H78.0625V100H90V98Z" fill="#AAAAAA"/>
<path fill-rule="evenodd" clip-rule="evenodd" d="M78 105L82.2812 109L86.5 105H98.3125C99.2445 105 100 104.121 100 103.207V86.6552C100 85.741 99.2445 85 98.3125 85H74.6875C73.7555 85 73 85.741 73 86.6552V103.207C73 104.121 73.7555 105 74.6875 105H78ZM82.2812 106.5L79 103H75V87H98V103H86L82.2812 106.5Z" fill="#AAAAAA"/>
<path d="M93 121H74V123H93V121Z" fill="#AAAAAA"/>
<path d="M97 127H78V129H97V127Z" fill="#AAAAAA"/>
<path d="M82 133H101V135H82V133Z" fill="#AAAAAA"/>
<path d="M93 139H74V141H93V139Z" fill="#AAAAAA"/>
<path fill-rule="evenodd" clip-rule="evenodd" d="M84.5 160.077H73V169H79V174H81V169H84.5L92 176V153L84.5 160.077ZM90 156.992L85 162H75V167H85L90 172.009V156.992Z" fill="#AAAAAA"/>
<path d="M94 173.865C98.3092 172.709 101.467 168.954 101.467 164.5C101.467 160.046 98.3092 156.291 94 155.136V156.992C97.2625 158.085 99.6 161.034 99.6 164.5C99.6 167.967 97.2625 170.916 94 172.009V173.865Z" fill="#AAAAAA"/>
<path d="M97.7333 164.5C97.7333 166.97 96.2073 169.103 94 170.096V168.039C95.1335 167.232 95.8667 165.947 95.8667 164.5C95.8667 163.053 95.1335 161.768 94 160.961V158.904C96.2073 159.897 97.7333 162.03 97.7333 164.5Z" fill="#AAAAAA"/>
<path d="M77 198H75V200H77V198Z" fill="#AAAAAA"/>
<path d="M82 204H90V206H82V204Z" fill="#AAAAAA"/>
<path d="M90 208H82V210H90V208Z" fill="#AAAAAA"/>
<path fill-rule="evenodd" clip-rule="evenodd" d="M77 195V190C77 188.895 77.8954 188 79 188H93C94.1046 188 95 188.895 95 190V195H98C99.1046 195 100 195.895 100 197V206C100 207.105 99.1046 208 98 208H94V212C94 213.105 93.1046 214 92 214H80C78.8954 214 78 213.105 78 212V208H74C72.8954 208 72 207.105 72 206V197C72 195.895 72.8954 195 74 195H77ZM79 190H93V195H79V190ZM78 206V202C78 200.895 78.8954 200 80 200H92C93.1046 200 94 200.895 94 202V206H98V197H74V206H78ZM92 202H80V212H92V202Z" fill="#AAAAAA"/>
<rect x="59.5" y="31.5" width="54" height="198" rx="4.5" stroke="#AAAAAA"/>
<path d="M350.962 124.546L340.055 113.598L295.438 157.678L292.232 171.848L306.377 168.726L350.962 124.546Z" fill="white"/>
<path d="M341.303 134.172L330.396 123.224L295.07 158.043L306.596 168.506L341.303 134.172Z" fill="url(#paint2_linear_784_6109)"/>
<path fill-rule="evenodd" clip-rule="evenodd" d="M306.222 167.894L348.825 125.434C349.405 124.856 349.393 123.931 348.799 123.368L340.85 115.846C340.256 115.283 339.304 115.295 338.724 115.873L296.121 158.334C295.939 158.515 295.809 158.739 295.743 158.984L292.906 169.534C292.611 170.63 293.657 171.62 294.778 171.305L305.563 168.278C305.813 168.208 306.04 168.076 306.222 167.894ZM349.902 126.452C351.061 125.297 351.037 123.448 349.848 122.322L341.9 114.799C340.711 113.674 338.807 113.698 337.647 114.854L295.045 157.315C294.681 157.677 294.42 158.126 294.288 158.616L291.451 169.165C290.862 171.357 292.954 173.337 295.194 172.708L305.979 169.681C306.48 169.541 306.935 169.276 307.299 168.913L349.902 126.452Z" fill="#333333"/>
<path d="M336.65 128.946L301.771 163.709L300.409 162.421L335.289 127.658L336.65 128.946Z" fill="white"/>
<path fill-rule="evenodd" clip-rule="evenodd" d="M295.564 157.366L306.864 167.615L305.838 168.682L294.538 158.433L295.564 157.366Z" fill="#333333"/>
<path fill-rule="evenodd" clip-rule="evenodd" d="M331.302 122.948L342.045 133.656L340.965 134.67L330.222 123.962L331.302 122.948Z" fill="#333333"/>
<path fill-rule="evenodd" clip-rule="evenodd" d="M294.058 164.387L300.409 170.122L294.059 172.015L292.102 170.122L294.058 164.387Z" fill="#333333"/>
<path fill-rule="evenodd" clip-rule="evenodd" d="M333.999 120.422L344.412 130.806L343.336 131.825L332.922 121.441L333.999 120.422Z" fill="#333333"/>
<path d="M114.593 145.972L125.5 135.024L169.493 178.479L172.698 192.649L158.554 189.527L114.593 145.972Z" fill="white"/>
<path d="M123.627 154.973L134.534 144.025L169.86 178.844L158.334 189.307L123.627 154.973Z" fill="#9ADAF3"/>
<path fill-rule="evenodd" clip-rule="evenodd" d="M158.708 188.695L116.105 146.235C115.526 145.657 115.538 144.732 116.132 144.169L124.08 136.647C124.675 136.084 125.627 136.096 126.207 136.674L168.81 179.135C168.992 179.316 169.122 179.54 169.188 179.785L172.025 190.335C172.319 191.431 171.274 192.421 170.153 192.106L159.368 189.079C159.118 189.009 158.89 188.877 158.708 188.695ZM115.029 147.254C113.869 146.098 113.893 144.249 115.083 143.123L123.031 135.6C124.22 134.475 126.124 134.499 127.283 135.655L169.886 178.116C170.25 178.478 170.511 178.927 170.643 179.417L173.48 189.967C174.069 192.158 171.977 194.138 169.737 193.509L158.952 190.482C158.451 190.342 157.996 190.077 157.632 189.714L115.029 147.254Z" fill="#333333"/>
<path d="M128.281 149.747L163.16 184.51L164.522 183.222L129.642 148.459L128.281 149.747Z" fill="white"/>
<path fill-rule="evenodd" clip-rule="evenodd" d="M169.367 178.166L158.067 188.416L159.093 189.483L170.393 179.233L169.367 178.166Z" fill="#333333"/>
<path fill-rule="evenodd" clip-rule="evenodd" d="M133.629 143.749L122.886 154.457L123.966 155.471L134.709 144.763L133.629 143.749Z" fill="#333333"/>
<path fill-rule="evenodd" clip-rule="evenodd" d="M170.873 185.188L164.522 190.923L170.872 192.816L172.829 190.923L170.873 185.188Z" fill="#333333"/>
<path fill-rule="evenodd" clip-rule="evenodd" d="M130.932 141.223L120.518 151.608L121.595 152.626L132.008 142.242L130.932 141.223Z" fill="#333333"/>
<rect x="136.5" y="31.5" width="298" height="48" rx="4.5" fill="#444444"/>
<path d="M155 43H178V45.0026H155V43Z" fill="#AAAAAA"/>
<path d="M155 47.0052H168.417V49.0078H155V47.0052Z" fill="#AAAAAA"/>
<path d="M174.167 51.0104H155V53.013H174.167V51.0104Z" fill="#AAAAAA"/>
<path d="M155 55.0156H168.417V57.0182H155V55.0156Z" fill="#AAAAAA"/>
<path d="M168.417 59.0208H155V61.0234H168.417V59.0208Z" fill="#AAAAAA"/>
<path d="M155 63.026H178V65.0286H155V63.026Z" fill="#AAAAAA"/>
<path d="M202 43H225V45H202V43Z" fill="#AAAAAA"/>
<path d="M207.75 47H219.25V49H207.75V47Z" fill="#AAAAAA"/>
<path d="M223.084 51H203.917V53H223.084V51Z" fill="#AAAAAA"/>
<path d="M207.75 55H219.25V57H207.75V55Z" fill="#AAAAAA"/>
<path d="M219.25 59H207.75V61H219.25V59Z" fill="#AAAAAA"/>
<path d="M202 63H225V65H202V63Z" fill="#AAAAAA"/>
<path d="M249 43H274V45H249V43Z" fill="#AAAAAA"/>
<path d="M259.417 47H274V49H259.417V47Z" fill="#AAAAAA"/>
<path d="M274 51H253.167V53H274V51Z" fill="#AAAAAA"/>
<path d="M259.417 55H274V57H259.417V55Z" fill="#AAAAAA"/>
<path d="M274 59H259.417V61H274V59Z" fill="#AAAAAA"/>
<path d="M249 63H274V65H249V63Z" fill="#AAAAAA"/>
<path d="M298 43H321V45H298V43Z" fill="#AAAAAA"/>
<path d="M321 47H298V49H321V47Z" fill="#AAAAAA"/>
<path d="M298 51H321V53H298V51Z" fill="#AAAAAA"/>
<path d="M321 55H298V57H321V55Z" fill="#AAAAAA"/>
<path d="M298 59H321V61H298V59Z" fill="#AAAAAA"/>
<path d="M298 63H321V65H298V63Z" fill="#AAAAAA"/>
<path d="M352 56.4167C352.34 56.4167 352.674 56.3935 353 56.3487V66H355V44.9167H359V66H361V44.9167H363V43C359.33 43 355.557 43 352 43C348.134 43 345 46.0034 345 49.7083C345 53.4132 348.134 56.4167 352 56.4167Z" fill="#AAAAAA"/>
<path d="M387 48.5167L392.984 43L398.967 48.5167L397.484 49.8837L394.032 46.7007V63.2993L397.484 60.1163L398.967 61.4833L392.984 67L387 61.4833L388.483 60.1163L391.935 63.2993V46.7007L388.483 49.8837L387 48.5167Z" fill="#AAAAAA"/>
<path d="M416 45.0667H401V47H416V45.0667Z" fill="#AAAAAA"/>
<path d="M401 51H416V53.0667H401V51Z" fill="#AAAAAA"/>
<path d="M416 56.9333H401V59H416V56.9333Z" fill="#AAAAAA"/>
<path d="M401 63.0667H416V65H401V63.0667Z" fill="#AAAAAA"/>
<rect x="136.5" y="31.5" width="298" height="48" rx="4.5" stroke="#AAAAAA"/>
<path d="M205.248 260.662C205.248 275.325 193.346 287.211 178.664 287.211C163.983 287.211 152.081 275.325 152.081 260.662C152.081 246 163.983 234.114 178.664 234.114C193.346 234.114 205.248 246 205.248 260.662Z" fill="white"/>
<path d="M179.882 232.906C164.537 232.636 152.356 242.226 152.093 258.056C151.944 267.031 155.471 277.019 161.646 282.383C162.05 282.02 162.838 281.586 163.32 281.316L171.611 276.65C172.699 276.038 173.376 274.862 173.376 273.583V270.079C173.376 270.079 170.942 267.076 170.014 262.903C169.244 262.389 168.728 261.501 168.728 260.49V256.654C168.728 255.81 169.092 255.056 169.658 254.528V248.983C169.658 248.983 168.553 240.354 179.882 240.354C191.21 240.354 190.106 248.983 190.106 248.983V254.528C190.672 255.056 191.035 255.81 191.035 256.654V260.49C191.035 261.779 190.196 262.864 189.057 263.227C188.423 265.261 187.508 267.201 186.297 268.964C185.992 269.409 185.707 269.785 185.457 270.079V273.672C185.457 274.995 186.182 276.206 187.329 276.796L196.208 281.375L198.005 281.177C203.993 276.025 206.32 269.335 206.464 260.662C206.687 247.192 195.228 233.177 179.882 232.906Z" fill="#CCCCCC"/>
<path fill-rule="evenodd" clip-rule="evenodd" d="M208 261C208 277.016 194.792 290 178.5 290C162.208 290 149 277.016 149 261C149 244.984 162.208 232 178.5 232C194.792 232 208 244.984 208 261ZM178.5 287.583C193.435 287.583 205.542 275.682 205.542 261C205.542 246.318 193.435 234.417 178.5 234.417C163.565 234.417 151.458 246.318 151.458 261C151.458 275.682 163.565 287.583 178.5 287.583Z" fill="#333333"/>
<path d="M175.248 260.85C175.248 275.607 163.269 287.571 148.493 287.571C133.716 287.571 121.737 275.607 121.737 260.85C121.737 246.092 133.716 234.129 148.493 234.129C163.269 234.129 175.248 246.092 175.248 260.85Z" fill="white"/>
<path d="M149.718 232.914C134.274 232.642 122.013 242.295 121.749 258.226C121.6 267.26 125.149 277.313 131.364 282.712C131.77 282.346 132.564 281.91 133.048 281.637L141.394 276.942C142.488 276.325 143.17 275.142 143.17 273.855V270.327C143.17 270.327 140.72 267.305 139.786 263.106C139.012 262.588 138.492 261.695 138.492 260.677V256.816C138.492 255.967 138.859 255.208 139.427 254.676V249.095C139.427 249.095 138.316 240.41 149.718 240.41C161.12 240.41 160.009 249.095 160.009 249.095V254.676C160.579 255.208 160.944 255.967 160.944 256.816V260.677C160.944 261.974 160.099 263.066 158.953 263.431C158.315 265.479 157.393 267.431 156.175 269.206C155.868 269.653 155.581 270.032 155.33 270.327V273.944C155.33 275.276 156.059 276.494 157.214 277.089L166.15 281.697L167.959 281.497C173.986 276.313 176.328 269.579 176.472 260.849C176.697 247.293 165.163 233.186 149.718 232.914Z" fill="#9ADAF3"/>
<path fill-rule="evenodd" clip-rule="evenodd" d="M177.68 260.85C177.68 276.949 164.612 290 148.492 290C132.372 290 119.305 276.949 119.305 260.85C119.305 244.751 132.372 231.7 148.492 231.7C164.612 231.7 177.68 244.751 177.68 260.85ZM148.492 287.571C163.269 287.571 175.248 275.608 175.248 260.85C175.248 246.093 163.269 234.129 148.492 234.129C133.716 234.129 121.737 246.093 121.737 260.85C121.737 275.608 133.716 287.571 148.492 287.571Z" fill="#333333"/>
<path d="M145.352 260.851C145.352 275.66 133.334 287.665 118.508 287.665C103.683 287.665 91.6642 275.66 91.6642 260.851C91.6642 246.042 103.683 234.037 118.508 234.037C133.334 234.037 145.352 246.042 145.352 260.851Z" fill="white"/>
<path d="M119.007 231.704C102.89 231.432 89.6006 244.127 89.3252 260.06C89.1688 269.093 92.8685 277.313 99.3537 282.713C99.7777 282.347 100.606 281.91 101.112 281.638L109.82 276.942C110.963 276.326 111.674 275.142 111.674 273.855V270.328C111.674 270.328 109.118 267.305 108.143 263.106C107.335 262.589 106.793 261.695 106.793 260.677V256.816C106.793 255.967 107.175 255.208 107.769 254.677V249.096C107.769 249.096 106.609 240.41 118.507 240.41C130.406 240.41 129.246 249.096 129.246 249.096V254.677C129.841 255.208 130.222 255.967 130.222 256.816V260.677C130.222 261.975 129.341 263.067 128.145 263.431C127.478 265.479 126.517 267.432 125.246 269.206C124.925 269.654 124.626 270.033 124.364 270.328V273.945C124.364 275.276 125.125 276.495 126.33 277.089L135.655 281.698C136.215 281.974 137.197 282.324 137.663 282.713C143.952 277.528 147.539 269.776 147.69 261.046C147.967 245.114 134.433 231.965 119.007 231.704Z" fill="url(#paint3_linear_784_6109)"/>
<path fill-rule="evenodd" clip-rule="evenodd" d="M147.696 260.85C147.696 276.944 134.633 290 118.508 290C102.383 290 89.3204 276.944 89.3204 260.85C89.3204 244.756 102.383 231.7 118.508 231.7C134.633 231.7 147.696 244.756 147.696 260.85ZM118.508 287.664C133.334 287.664 145.352 275.659 145.352 260.85C145.352 246.041 133.334 234.036 118.508 234.036C103.683 234.036 91.6642 246.041 91.6642 260.85C91.6642 275.659 103.683 287.664 118.508 287.664Z" fill="#333333"/>
<defs>
<linearGradient id="paint0_linear_784_6109" x1="388" y1="160.774" x2="416.178" y2="206.089" gradientUnits="userSpaceOnUse">
<stop stop-color="#FFC671"/>
<stop offset="0.59375" stop-color="#FF7541"/>
<stop offset="1" stop-color="#FF6F3D"/>
</linearGradient>
<linearGradient id="paint1_linear_784_6109" x1="413.619" y1="166.943" x2="441.608" y2="212.048" gradientUnits="userSpaceOnUse">
<stop stop-color="#FFC671"/>
<stop offset="0.59375" stop-color="#FF7541"/>
<stop offset="1" stop-color="#FF6F3D"/>
</linearGradient>
<linearGradient id="paint2_linear_784_6109" x1="295.068" y1="121.452" x2="340.309" y2="169.448" gradientUnits="userSpaceOnUse">
<stop stop-color="#FFC671"/>
<stop offset="0.59375" stop-color="#FF7541"/>
<stop offset="1" stop-color="#FF6F3D"/>
</linearGradient>
<linearGradient id="paint3_linear_784_6109" x1="89.3205" y1="229.708" x2="139.615" y2="289.507" gradientUnits="userSpaceOnUse">
<stop stop-color="#FFC671"/>
<stop offset="0.59375" stop-color="#FF7541"/>
<stop offset="1" stop-color="#FF6F3D"/>
</linearGradient>
</defs>
</svg>
