<svg width="504" height="290" viewBox="0 0 504 290" fill="none" xmlns="http://www.w3.org/2000/svg">
<g clip-path="url(#clip0_2750_31814)">
<path d="M58.2 29.6462C58.2 30.0461 58 30.446 57.7 30.746C57.4 31.0459 57 31.2459 56.6 31.1459C55.7 31.1459 55 30.446 55 29.6462V26.1468C55 25.7469 55.2 25.347 55.5 25.047C55.8 24.7471 56.2 24.5471 56.6 24.6471C57.5 24.6471 58.2 25.347 58.2 26.1468V29.6462ZM57.2 26.0468C57.2 25.8469 57.1 25.7469 57 25.6469C56.9 25.5469 56.8 25.447 56.6 25.447C56.5 25.447 56.3 25.5469 56.2 25.6469C56.1 25.7469 56 25.9469 56 26.0468V29.5462C56 29.6462 56.1 29.8462 56.2 29.9461C56.3 30.0461 56.4 30.1461 56.6 30.1461C56.9 30.1461 57.2 29.8462 57.2 29.5462V26.0468Z" fill="#666666"/>
<path d="M107 36.8449C107 37.2448 106.8 37.6448 106.5 37.9447C106.2 38.2447 105.8 38.4446 105.4 38.3446C104.5 38.3446 103.8 37.6448 103.8 36.8449V33.3456C103.8 32.9456 104 32.5457 104.3 32.2458C104.6 31.9458 105 31.7459 105.4 31.8458C106.3 31.8458 107 32.5457 107 33.3456V36.8449ZM105.9 33.3456C105.9 33.0456 105.6 32.7457 105.3 32.7457C105.1 32.7457 105 32.8457 104.9 32.9456C104.8 33.0456 104.7 33.2456 104.7 33.3456V36.8449C104.7 36.9449 104.8 37.1449 104.9 37.2448C105 37.3448 105.1 37.4448 105.3 37.4448C105.6 37.4448 105.9 37.1449 105.9 36.8449V33.3456Z" fill="#666666"/>
<path d="M80.7 5.15052C80.7 5.55045 80.5 5.95038 80.2 6.25032C79.6 6.85021 78.6 6.85021 78 6.25032C77.7 5.95038 77.6 5.55045 77.6 5.15052V1.55118C77.6 1.15125 77.8 0.751328 78.1 0.451383C78.7 -0.148508 79.7 -0.148508 80.3 0.451383C80.6 0.751328 80.8 1.15125 80.8 1.55118V5.15052H80.7ZM79.7 1.55118C79.7 1.25124 79.5 0.951291 79.1 0.951291C78.9 0.951291 78.8 1.05127 78.7 1.15125C78.6 1.25124 78.5 1.35122 78.5 1.55118V5.15052C78.5 5.45047 78.7 5.75041 79 5.75041C79.3 5.75041 79.6 5.45047 79.6 5.15052L79.7 1.55118Z" fill="#666666"/>
<path d="M58.3999 53.1417C58.3999 53.5416 58.1999 53.9415 57.8999 54.2415C57.5999 54.5414 57.1999 54.7414 56.7999 54.6414C56.3999 54.6414 56 54.5414 55.7 54.2415C55.4 53.9415 55.2 53.5416 55.2 53.1417V49.6423C55.2 48.7425 55.8999 48.1426 56.7999 48.1426C57.1999 48.1426 57.5999 48.3425 57.8999 48.6425C58.1999 48.9424 58.3999 49.3424 58.3999 49.7423V53.1417ZM57.3999 49.5423C57.3999 49.4423 57.3 49.2424 57.2 49.1424C57 48.9424 56.5999 48.9424 56.3999 49.1424C56.2999 49.2424 56.2 49.3424 56.2 49.5423V53.0417C56.2 53.1417 56.2999 53.3416 56.3999 53.4416C56.5999 53.6416 57 53.6416 57.2 53.4416C57.3 53.3416 57.3999 53.2416 57.3999 53.0417V49.5423Z" fill="#666666"/>
<path d="M66.3999 53.1417C66.3999 53.5416 66.1999 53.9415 65.8999 54.2415C65.5999 54.5414 65.1999 54.7414 64.7999 54.6414C63.8999 54.6414 63.2 53.9415 63.2 53.1417V49.6423C63.2 48.7425 63.8999 48.1426 64.7999 48.1426C65.6999 48.1426 66.3999 48.8425 66.3999 49.6423V53.1417ZM65.2999 49.5423C65.2999 49.4423 65.1999 49.2424 65.0999 49.1424C64.9999 49.0424 64.9 48.9424 64.7 48.9424C64.5 48.9424 64.3999 49.0424 64.2999 49.1424C64.1999 49.2424 64.0999 49.3424 64.0999 49.5423V53.0417C64.0999 53.1417 64.1999 53.3416 64.2999 53.4416C64.3999 53.5416 64.5 53.6416 64.7 53.6416C65 53.6416 65.2999 53.3416 65.2999 53.0417V49.5423Z" fill="#666666"/>
<path d="M68 54.6414V49.6423H67.2V48.9424C67.5 48.9424 67.6999 48.8425 67.8999 48.6425C68.0999 48.5425 68.2999 48.3425 68.3999 48.1426H69.0999V54.6414H68Z" fill="#666666"/>
<path d="M70.6001 54.6414V49.6423H69.8V48.9424C70.1 48.9424 70.3001 48.8425 70.5001 48.6425C70.7001 48.5425 70.9001 48.3425 71.0001 48.1426H71.7001V54.6414H70.6001Z" fill="#666666"/>
<path d="M73.2 54.6414V49.6423H72.4V48.9424C72.7 48.9424 72.9 48.8425 73.1 48.6425C73.3 48.5425 73.5 48.3425 73.6 48.1426H74.3V54.6414H73.2Z" fill="#666666"/>
<path d="M87 31.0457V26.0466H86.2V25.3467C86.5 25.3467 86.6999 25.2467 86.8999 25.0468C87.0999 24.9468 87.2999 24.7468 87.3999 24.5469H88.0999V31.0457H87Z" fill="#666666"/>
<path d="M58.2 29.6462C58.2 30.0461 58 30.446 57.7 30.746C57.4 31.0459 57 31.2459 56.6 31.1459C55.7 31.1459 55 30.446 55 29.6462V26.1468C55 25.7469 55.2 25.347 55.5 25.047C55.8 24.7471 56.2 24.5471 56.6 24.6471C57.5 24.6471 58.2 25.347 58.2 26.1468V29.6462ZM57.2 26.0468C57.2 25.8469 57.1 25.7469 57 25.6469C56.9 25.5469 56.8 25.447 56.6 25.447C56.5 25.447 56.3 25.5469 56.2 25.6469C56.1 25.7469 56 25.9469 56 26.0468V29.5462C56 29.6462 56.1 29.8462 56.2 29.9461C56.3 30.0461 56.4 30.1461 56.6 30.1461C56.9 30.1461 57.2 29.8462 57.2 29.5462V26.0468Z" fill="#666666"/>
<path d="M107 36.8449C107 37.2448 106.8 37.6448 106.5 37.9447C106.2 38.2447 105.8 38.4446 105.4 38.3446C104.5 38.3446 103.8 37.6448 103.8 36.8449V33.3456C103.8 32.9456 104 32.5457 104.3 32.2458C104.6 31.9458 105 31.7459 105.4 31.8458C106.3 31.8458 107 32.5457 107 33.3456V36.8449ZM105.9 33.3456C105.9 33.0456 105.6 32.7457 105.3 32.7457C105.1 32.7457 105 32.8457 104.9 32.9456C104.8 33.0456 104.7 33.2456 104.7 33.3456V36.8449C104.7 36.9449 104.8 37.1449 104.9 37.2448C105 37.3448 105.1 37.4448 105.3 37.4448C105.6 37.4448 105.9 37.1449 105.9 36.8449V33.3456Z" fill="#666666"/>
<path d="M80.7 5.15052C80.7 5.55045 80.5 5.95038 80.2 6.25032C79.6 6.85021 78.6 6.85021 78 6.25032C77.7 5.95038 77.6 5.55045 77.6 5.15052V1.55118C77.6 1.15125 77.8 0.751328 78.1 0.451383C78.7 -0.148508 79.7 -0.148508 80.3 0.451383C80.6 0.751328 80.8 1.15125 80.8 1.55118V5.15052H80.7ZM79.7 1.55118C79.7 1.25124 79.5 0.951291 79.1 0.951291C78.9 0.951291 78.8 1.05127 78.7 1.15125C78.6 1.25124 78.5 1.35122 78.5 1.55118V5.15052C78.5 5.45047 78.7 5.75041 79 5.75041C79.3 5.75041 79.6 5.45047 79.6 5.15052L79.7 1.55118Z" fill="#666666"/>
<path d="M58.3999 53.1417C58.3999 53.5416 58.1999 53.9415 57.8999 54.2415C57.5999 54.5414 57.1999 54.7414 56.7999 54.6414C56.3999 54.6414 56 54.5414 55.7 54.2415C55.4 53.9415 55.2 53.5416 55.2 53.1417V49.6423C55.2 48.7425 55.8999 48.1426 56.7999 48.1426C57.1999 48.1426 57.5999 48.3425 57.8999 48.6425C58.1999 48.9424 58.3999 49.3424 58.3999 49.7423V53.1417ZM57.3999 49.5423C57.3999 49.4423 57.3 49.2424 57.2 49.1424C57 48.9424 56.5999 48.9424 56.3999 49.1424C56.2999 49.2424 56.2 49.3424 56.2 49.5423V53.0417C56.2 53.1417 56.2999 53.3416 56.3999 53.4416C56.5999 53.6416 57 53.6416 57.2 53.4416C57.3 53.3416 57.3999 53.2416 57.3999 53.0417V49.5423Z" fill="#666666"/>
<path d="M66.3999 53.1417C66.3999 53.5416 66.1999 53.9415 65.8999 54.2415C65.5999 54.5414 65.1999 54.7414 64.7999 54.6414C63.8999 54.6414 63.2 53.9415 63.2 53.1417V49.6423C63.2 48.7425 63.8999 48.1426 64.7999 48.1426C65.6999 48.1426 66.3999 48.8425 66.3999 49.6423V53.1417ZM65.2999 49.5423C65.2999 49.4423 65.1999 49.2424 65.0999 49.1424C64.9999 49.0424 64.9 48.9424 64.7 48.9424C64.5 48.9424 64.3999 49.0424 64.2999 49.1424C64.1999 49.2424 64.0999 49.3424 64.0999 49.5423V53.0417C64.0999 53.1417 64.1999 53.3416 64.2999 53.4416C64.3999 53.5416 64.5 53.6416 64.7 53.6416C65 53.6416 65.2999 53.3416 65.2999 53.0417V49.5423Z" fill="#666666"/>
<path d="M68 54.6414V49.6423H67.2V48.9424C67.5 48.9424 67.6999 48.8425 67.8999 48.6425C68.0999 48.5425 68.2999 48.3425 68.3999 48.1426H69.0999V54.6414H68Z" fill="#666666"/>
<path d="M70.6001 54.6414V49.6423H69.8V48.9424C70.1 48.9424 70.3001 48.8425 70.5001 48.6425C70.7001 48.5425 70.9001 48.3425 71.0001 48.1426H71.7001V54.6414H70.6001Z" fill="#666666"/>
<path d="M73.2 54.6414V49.6423H72.4V48.9424C72.7 48.9424 72.9 48.8425 73.1 48.6425C73.3 48.5425 73.5 48.3425 73.6 48.1426H74.3V54.6414H73.2Z" fill="#666666"/>
<path d="M87 31.0457V26.0466H86.2V25.3467C86.5 25.3467 86.6999 25.2467 86.8999 25.0468C87.0999 24.9468 87.2999 24.7468 87.3999 24.5469H88.0999V31.0457H87Z" fill="#666666"/>
<path d="M161.487 47.0015C161.487 45.3446 160.139 44.0015 158.475 44.0015H117.812H4.86009C3.19658 44.0015 1.84804 45.3446 1.84804 47.0015V109.001C1.84804 110.658 3.19658 112.001 4.86009 112.001H158.475C160.139 112.001 161.487 110.658 161.487 109.001V89.5015V47.0015Z" fill="#333333"/>
<path fill-rule="evenodd" clip-rule="evenodd" d="M0.00012207 47.0015V109.001C0.00012207 111.763 2.23869 114.001 5.00012 114.001H158C160.762 114.001 163 111.763 163 109.001V47.0015C163 44.24 160.762 42.0015 158 42.0015H5.00012C2.23869 42.0015 0.00012207 44.24 0.00012207 47.0015ZM158 44.0015C159.657 44.0015 161 45.3446 161 47.0015V109.001C161 110.658 159.657 112.001 158 112.001H5.00012C3.34326 112.001 2.00012 110.658 2.00012 109.001V47.0015C2.00012 45.3446 3.34326 44.0015 5.00012 44.0015H158Z" fill="#808080"/>
<rect width="8" height="2" rx="1" transform="matrix(-1 0 0 1 54.0001 61.0015)" fill="url(#paint0_linear_2750_31814)"/>
<path d="M99 62.0015C99 61.4492 98.5523 61.0015 98 61.0015L65 61.0015C64.4477 61.0015 64 61.4492 64 62.0015C64 62.5537 64.4477 63.0015 65 63.0015H98C98.5523 63.0015 99 62.5537 99 62.0015Z" fill="url(#paint1_linear_2750_31814)"/>
<path d="M99 72.0015C99 71.4492 98.5523 71.0015 98 71.0015H65C64.4477 71.0015 64 71.4492 64 72.0015C64 72.5537 64.4477 73.0015 65 73.0015H98C98.5523 73.0015 99 72.5537 99 72.0015Z" fill="#9ADAF3"/>
<path d="M99 82.0015C99 81.4492 98.5523 81.0015 98 81.0015H65C64.4477 81.0015 64 81.4492 64 82.0015C64 82.5537 64.4477 83.0015 65 83.0015H98C98.5523 83.0015 99 82.5537 99 82.0015Z" fill="url(#paint2_linear_2750_31814)"/>
<path d="M99 92.0015C99 91.4492 98.5523 91.0015 98 91.0015H65C64.4477 91.0015 64 91.4492 64 92.0015C64 92.5537 64.4477 93.0015 65 93.0015H98C98.5523 93.0015 99 92.5537 99 92.0015Z" fill="url(#paint3_linear_2750_31814)"/>
<rect width="8" height="2" rx="1" transform="matrix(-1 0 0 1 40.0001 61.0015)" fill="url(#paint4_linear_2750_31814)"/>
<rect width="8" height="2" rx="1" transform="matrix(-1 0 0 1 26.0001 61.0015)" fill="#9ADAF3"/>
<rect width="8" height="2" rx="1" transform="matrix(-1 0 0 1 54.0001 81.0015)" fill="#9ADAF3"/>
<rect width="8" height="2" rx="1" transform="matrix(-1 0 0 1 40.0001 81.0015)" fill="url(#paint5_linear_2750_31814)"/>
<rect width="8" height="2" rx="1" transform="matrix(-1 0 0 1 26.0001 81.0015)" fill="url(#paint6_linear_2750_31814)"/>
<rect width="8" height="2" rx="1" transform="matrix(-1 0 0 1 54.0001 71.0015)" fill="url(#paint7_linear_2750_31814)"/>
<rect width="8" height="2" rx="1" transform="matrix(-1 0 0 1 40.0001 71.0015)" fill="#9ADAF3"/>
<rect width="8" height="2" rx="1" transform="matrix(-1 0 0 1 26.0001 71.0015)" fill="#9ADAF3"/>
<rect width="8" height="2" rx="1" transform="matrix(-1 0 0 1 54.0001 91.0015)" fill="url(#paint8_linear_2750_31814)"/>
<rect width="8" height="2" rx="1" transform="matrix(-1 0 0 1 40.0001 91.0015)" fill="url(#paint9_linear_2750_31814)"/>
<rect width="8" height="2" rx="1" transform="matrix(-1 0 0 1 26.0001 91.0015)" fill="#9ADAF3"/>
<path d="M1.51318 127.001C1.51318 125.345 2.86173 124.001 4.52524 124.001H45.188H158.14C159.804 124.001 161.152 125.345 161.152 127.001V189.001C161.152 190.658 159.804 192.001 158.14 192.001H4.52524C2.86173 192.001 1.51318 190.658 1.51318 189.001V169.501V127.001Z" fill="#333333"/>
<path fill-rule="evenodd" clip-rule="evenodd" d="M163 127.001V189.001C163 191.763 160.762 194.001 158 194.001H5.00012C2.23869 194.001 0.00012207 191.763 0.00012207 189.001V127.001C0.00012207 124.24 2.2387 122.001 5.00012 122.001H158C160.762 122.001 163 124.24 163 127.001ZM5.00012 124.001C3.34327 124.001 2.00012 125.345 2.00012 127.001V189.001C2.00012 190.658 3.34327 192.001 5.00012 192.001H158C159.657 192.001 161 190.658 161 189.001V127.001C161 125.345 159.657 124.001 158 124.001H5.00012Z" fill="#808080"/>
<rect x="109" y="141.001" width="8" height="2" rx="1" fill="url(#paint10_linear_2750_31814)"/>
<path d="M23.0001 142.001C23.0001 141.449 23.4478 141.001 24.0001 141.001L98.0001 141.001C98.5524 141.001 99.0001 141.449 99.0001 142.001C99.0001 142.554 98.5524 143.001 98.0001 143.001H24.0001C23.4478 143.001 23.0001 142.554 23.0001 142.001Z" fill="url(#paint11_linear_2750_31814)"/>
<path d="M23.0001 152.001C23.0001 151.449 23.4478 151.001 24.0001 151.001H98.0001C98.5524 151.001 99.0001 151.449 99.0001 152.001C99.0001 152.554 98.5524 153.001 98.0001 153.001H24.0001C23.4478 153.001 23.0001 152.554 23.0001 152.001Z" fill="#9ADAF3"/>
<path d="M23.0001 162.001C23.0001 161.449 23.4478 161.001 24.0001 161.001H98.0001C98.5524 161.001 99.0001 161.449 99.0001 162.001C99.0001 162.554 98.5524 163.001 98.0001 163.001H24.0001C23.4478 163.001 23.0001 162.554 23.0001 162.001Z" fill="url(#paint12_linear_2750_31814)"/>
<path d="M23.0001 172.001C23.0001 171.449 23.4478 171.001 24.0001 171.001H98.0001C98.5524 171.001 99.0001 171.449 99.0001 172.001C99.0001 172.554 98.5524 173.001 98.0001 173.001H24.0001C23.4478 173.001 23.0001 172.554 23.0001 172.001Z" fill="url(#paint13_linear_2750_31814)"/>
<rect x="123" y="141.001" width="8" height="2" rx="1" fill="url(#paint14_linear_2750_31814)"/>
<rect x="137" y="141.001" width="8" height="2" rx="1" fill="#9ADAF3"/>
<rect x="109" y="161.001" width="8" height="2" rx="1" fill="#9ADAF3"/>
<rect x="123" y="161.001" width="8" height="2" rx="1" fill="url(#paint15_linear_2750_31814)"/>
<rect x="137" y="161.001" width="8" height="2" rx="1" fill="url(#paint16_linear_2750_31814)"/>
<rect x="109" y="151.001" width="8" height="2" rx="1" fill="url(#paint17_linear_2750_31814)"/>
<rect x="123" y="151.001" width="8" height="2" rx="1" fill="#9ADAF3"/>
<rect x="137" y="151.001" width="8" height="2" rx="1" fill="#9ADAF3"/>
<rect x="109" y="171.001" width="8" height="2" rx="1" fill="url(#paint18_linear_2750_31814)"/>
<rect x="123" y="171.001" width="8" height="2" rx="1" fill="url(#paint19_linear_2750_31814)"/>
<rect x="137" y="171.001" width="8" height="2" rx="1" fill="#9ADAF3"/>
<path d="M161.487 207.001C161.487 205.345 160.139 204.001 158.475 204.001H117.812H4.86009C3.19658 204.001 1.84804 205.345 1.84804 207.001V269.001C1.84804 270.658 3.19658 272.001 4.86009 272.001H158.475C160.139 272.001 161.487 270.658 161.487 269.001V249.501V207.001Z" fill="#333333"/>
<path fill-rule="evenodd" clip-rule="evenodd" d="M0.00012207 207.001V269.001C0.00012207 271.763 2.23869 274.001 5.00012 274.001H158C160.762 274.001 163 271.763 163 269.001V207.001C163 204.24 160.762 202.001 158 202.001H5.00012C2.23869 202.001 0.00012207 204.24 0.00012207 207.001ZM158 204.001C159.657 204.001 161 205.345 161 207.001V269.001C161 270.658 159.657 272.001 158 272.001H5.00012C3.34326 272.001 2.00012 270.658 2.00012 269.001V207.001C2.00012 205.345 3.34326 204.001 5.00012 204.001H158Z" fill="#808080"/>
<rect width="8" height="2" rx="1" transform="matrix(-1 0 0 1 54.0001 221.001)" fill="url(#paint20_linear_2750_31814)"/>
<path d="M99 222.001C99 221.449 98.5523 221.001 98 221.001L65 221.001C64.4477 221.001 64 221.449 64 222.001C64 222.554 64.4477 223.001 65 223.001H98C98.5523 223.001 99 222.554 99 222.001Z" fill="url(#paint21_linear_2750_31814)"/>
<path d="M99 232.001C99 231.449 98.5523 231.001 98 231.001H65C64.4477 231.001 64 231.449 64 232.001C64 232.554 64.4477 233.001 65 233.001H98C98.5523 233.001 99 232.554 99 232.001Z" fill="#9ADAF3"/>
<path d="M99 242.001C99 241.449 98.5523 241.001 98 241.001H65C64.4477 241.001 64 241.449 64 242.001C64 242.554 64.4477 243.001 65 243.001H98C98.5523 243.001 99 242.554 99 242.001Z" fill="url(#paint22_linear_2750_31814)"/>
<path d="M99 252.001C99 251.449 98.5523 251.001 98 251.001H65C64.4477 251.001 64 251.449 64 252.001C64 252.554 64.4477 253.001 65 253.001H98C98.5523 253.001 99 252.554 99 252.001Z" fill="url(#paint23_linear_2750_31814)"/>
<rect width="8" height="2" rx="1" transform="matrix(-1 0 0 1 40.0001 221.001)" fill="url(#paint24_linear_2750_31814)"/>
<rect width="8" height="2" rx="1" transform="matrix(-1 0 0 1 26.0001 221.001)" fill="#9ADAF3"/>
<rect width="8" height="2" rx="1" transform="matrix(-1 0 0 1 54.0001 241.001)" fill="#9ADAF3"/>
<rect width="8" height="2" rx="1" transform="matrix(-1 0 0 1 40.0001 241.001)" fill="url(#paint25_linear_2750_31814)"/>
<rect width="8" height="2" rx="1" transform="matrix(-1 0 0 1 26.0001 241.001)" fill="url(#paint26_linear_2750_31814)"/>
<rect width="8" height="2" rx="1" transform="matrix(-1 0 0 1 54.0001 231.001)" fill="url(#paint27_linear_2750_31814)"/>
<rect width="8" height="2" rx="1" transform="matrix(-1 0 0 1 40.0001 231.001)" fill="#9ADAF3"/>
<rect width="8" height="2" rx="1" transform="matrix(-1 0 0 1 26.0001 231.001)" fill="#9ADAF3"/>
<rect width="8" height="2" rx="1" transform="matrix(-1 0 0 1 54.0001 251.001)" fill="url(#paint28_linear_2750_31814)"/>
<rect width="8" height="2" rx="1" transform="matrix(-1 0 0 1 40.0001 251.001)" fill="url(#paint29_linear_2750_31814)"/>
<rect width="8" height="2" rx="1" transform="matrix(-1 0 0 1 26.0001 251.001)" fill="#9ADAF3"/>
<path fill-rule="evenodd" clip-rule="evenodd" d="M346 9.00146C266.85 9.00148 202.405 70.0168 200.066 146.149H200V150.435C200 228.549 265.37 291.868 346 291.868C426.63 291.868 492 228.549 492 150.435V146.149H491.934C489.595 70.0168 425.15 9.00146 346 9.00146ZM322.742 285.796C288.351 280.293 258.14 262.789 236.846 237.874C247.316 228.828 260.333 221.184 275.187 215.356C278.899 228.153 283.679 239.815 289.324 249.964C298.386 266.257 309.801 278.836 322.742 285.796ZM369.257 285.796C382.199 278.836 393.614 266.257 402.676 249.964C408.265 239.914 413.007 228.381 416.704 215.731C431.431 221.586 444.395 229.187 454.988 238.067C433.703 262.879 403.56 280.307 369.257 285.796ZM412.685 214.192C409.054 226.707 404.392 238.075 398.911 247.93C386.068 271.021 368.985 285.409 350.438 287.399V202.748C373.023 203.262 394.151 207.369 412.685 214.192ZM417.856 211.625C433.145 217.647 446.65 225.518 457.724 234.777C476.471 211.509 487.64 182.235 487.64 150.435H425.636C425.636 172.333 422.848 193.094 417.856 211.625ZM421.343 150.435C421.343 171.837 418.637 192.07 413.826 210.096C394.863 203.169 373.347 199.036 350.438 198.525V150.435L421.343 150.435ZM425.601 146.149H487.572C486.582 114.903 474.807 86.2857 455.73 63.6738C444.917 72.3705 431.702 79.7478 416.778 85.3926C422.098 103.688 425.237 124.308 425.601 146.149ZM412.739 86.8634C417.885 104.667 420.944 124.781 421.306 146.149H350.438V97.7384C372.835 97.2967 394.031 93.4162 412.739 86.8634ZM452.92 60.4453C442.583 68.7536 429.909 75.8543 415.547 81.3248C412.037 70.1642 407.699 59.9357 402.676 50.9053C393.614 34.6122 382.199 22.0332 369.257 15.0734C402.463 20.3868 431.772 36.8879 452.92 60.4453ZM350.438 13.4703C368.985 15.4598 386.068 29.8483 398.911 52.9392C403.821 61.7668 408.074 71.8092 411.516 82.8016C393.262 89.2293 372.486 93.0721 350.438 93.5157V13.4703ZM239.449 60.0349C260.569 36.6964 289.73 20.3559 322.742 15.0734C309.801 22.0332 298.386 34.6122 289.324 50.9053C284.329 59.8862 280.011 70.0523 276.51 81.1416C262.28 75.6289 249.715 68.4666 239.449 60.0349ZM280.534 82.6403C283.968 71.7109 288.203 61.7236 293.089 52.9392C306.945 28.0277 325.735 13.2448 345.975 13.2328V93.5588C322.295 93.5407 299.977 89.5979 280.534 82.6403ZM345.975 97.7807C321.963 97.7627 299.221 93.7881 279.307 86.7022C274.133 104.546 271.057 124.717 270.693 146.149H345.975V97.7807ZM275.275 85.2101C269.922 103.55 266.765 124.235 266.399 146.149H204.428C205.424 114.708 217.34 85.9298 236.626 63.2526C247.373 72.0801 260.482 79.5219 275.275 85.2101ZM266.364 150.435H204.36C204.36 182.144 215.465 211.341 234.115 234.577C245.077 225.145 258.638 217.237 274.043 211.25C269.114 192.814 266.364 172.185 266.364 150.435ZM278.08 209.74C273.327 191.804 270.657 171.696 270.657 150.435L345.975 150.435V198.471L345.608 198.471C321.241 198.471 298.203 202.504 278.08 209.74ZM279.212 213.837C298.882 206.708 321.53 202.693 345.608 202.693L345.975 202.693V287.636C325.735 287.624 306.945 272.841 293.089 247.93C287.556 237.982 282.857 226.492 279.212 213.837Z" fill="white"/>
<path fill-rule="evenodd" clip-rule="evenodd" d="M346 9.00146C266.85 9.00148 202.405 70.0168 200.066 146.149H200V150.435C200 228.549 265.37 291.868 346 291.868C426.63 291.868 492 228.549 492 150.435V146.149H491.934C489.595 70.0168 425.15 9.00146 346 9.00146ZM322.742 285.796C288.351 280.293 258.14 262.789 236.846 237.874C247.316 228.828 260.333 221.184 275.187 215.356C278.899 228.153 283.679 239.815 289.324 249.964C298.386 266.257 309.801 278.836 322.742 285.796ZM369.257 285.796C382.199 278.836 393.614 266.257 402.676 249.964C408.265 239.914 413.007 228.381 416.704 215.731C431.431 221.586 444.395 229.187 454.988 238.067C433.703 262.879 403.56 280.307 369.257 285.796ZM412.685 214.192C409.054 226.707 404.392 238.075 398.911 247.93C386.068 271.021 368.985 285.409 350.438 287.399V202.748C373.023 203.262 394.151 207.369 412.685 214.192ZM417.856 211.625C433.145 217.647 446.65 225.518 457.724 234.777C476.471 211.509 487.64 182.235 487.64 150.435H425.636C425.636 172.333 422.848 193.094 417.856 211.625ZM421.343 150.435C421.343 171.837 418.637 192.07 413.826 210.096C394.863 203.169 373.347 199.036 350.438 198.525V150.435L421.343 150.435ZM425.601 146.149H487.572C486.582 114.903 474.807 86.2857 455.73 63.6738C444.917 72.3705 431.702 79.7478 416.778 85.3926C422.098 103.688 425.237 124.308 425.601 146.149ZM412.739 86.8634C417.885 104.667 420.944 124.781 421.306 146.149H350.438V97.7384C372.835 97.2967 394.031 93.4162 412.739 86.8634ZM452.92 60.4453C442.583 68.7536 429.909 75.8543 415.547 81.3248C412.037 70.1642 407.699 59.9357 402.676 50.9053C393.614 34.6122 382.199 22.0332 369.257 15.0734C402.463 20.3868 431.772 36.8879 452.92 60.4453ZM350.438 13.4703C368.985 15.4598 386.068 29.8483 398.911 52.9392C403.821 61.7668 408.074 71.8092 411.516 82.8016C393.262 89.2293 372.486 93.0721 350.438 93.5157V13.4703ZM239.449 60.0349C260.569 36.6964 289.73 20.3559 322.742 15.0734C309.801 22.0332 298.386 34.6122 289.324 50.9053C284.329 59.8862 280.011 70.0523 276.51 81.1416C262.28 75.6289 249.715 68.4666 239.449 60.0349ZM280.534 82.6403C283.968 71.7109 288.203 61.7236 293.089 52.9392C306.945 28.0277 325.735 13.2448 345.975 13.2328V93.5588C322.295 93.5407 299.977 89.5979 280.534 82.6403ZM345.975 97.7807C321.963 97.7627 299.221 93.7881 279.307 86.7022C274.133 104.546 271.057 124.717 270.693 146.149H345.975V97.7807ZM275.275 85.2101C269.922 103.55 266.765 124.235 266.399 146.149H204.428C205.424 114.708 217.34 85.9298 236.626 63.2526C247.373 72.0801 260.482 79.5219 275.275 85.2101ZM266.364 150.435H204.36C204.36 182.144 215.465 211.341 234.115 234.577C245.077 225.145 258.638 217.237 274.043 211.25C269.114 192.814 266.364 172.185 266.364 150.435ZM278.08 209.74C273.327 191.804 270.657 171.696 270.657 150.435L345.975 150.435V198.471L345.608 198.471C321.241 198.471 298.203 202.504 278.08 209.74ZM279.212 213.837C298.882 206.708 321.53 202.693 345.608 202.693L345.975 202.693V287.636C325.735 287.624 306.945 272.841 293.089 247.93C287.556 237.982 282.857 226.492 279.212 213.837Z" stroke="url(#paint30_linear_2750_31814)" stroke-width="14" stroke-miterlimit="22.9256" stroke-linejoin="round"/>
<path d="M114 60.0015C109.029 60.0015 105 64.0309 105 69.0015V265.001C105 269.972 109.029 274.001 114 274.001H387C391.971 274.001 396 269.972 396 265.001V69.0015C396 64.0309 391.971 60.0015 387 60.0015H114Z" fill="#AAAAAA" stroke="#444444" stroke-width="2"/>
<path d="M388.5 262.001C388.5 264.487 386.485 266.501 384 266.501H116C113.515 266.501 111.5 264.487 111.5 262.001V167.001V72.0015C111.5 69.5162 113.515 67.5015 116 67.5015H384C386.485 67.5015 388.5 69.5162 388.5 72.0015V262.001Z" fill="#6C6C6C" stroke="#333333"/>
<path opacity="0.5" d="M182.671 122.001H125.329C124.598 122.001 124 121.101 124 120.001C124 118.901 124.598 118.001 125.329 118.001H182.671C183.402 118.001 184 118.901 184 120.001C184 121.101 183.402 122.001 182.671 122.001Z" fill="#CCCCCC"/>
<path opacity="0.5" d="M182.671 142.001H125.329C124.598 142.001 124 141.101 124 140.001C124 138.901 124.598 138.001 125.329 138.001H182.671C183.402 138.001 184 138.901 184 140.001C184 141.001 183.402 142.001 182.671 142.001Z" fill="#CCCCCC"/>
<path opacity="0.5" d="M182.671 162.001H125.329C124.598 162.001 124 161.101 124 160.001C124 158.901 124.598 158.001 125.329 158.001H182.671C183.402 158.001 184 158.901 184 160.001C184 161.101 183.402 162.001 182.671 162.001Z" fill="#CCCCCC"/>
<path opacity="0.5" d="M182.671 182.001H125.329C124.598 182.001 124 181.101 124 180.001C124 178.901 124.598 178.001 125.329 178.001H182.671C183.402 178.001 184 178.901 184 180.001C184 181.101 183.402 182.001 182.671 182.001Z" fill="#CCCCCC"/>
<path opacity="0.5" d="M182.671 202.001H125.329C124.598 202.001 124 201.101 124 200.001C124 198.901 124.598 198.001 125.329 198.001H182.671C183.402 198.001 184 198.901 184 200.001C184 201.101 183.402 202.001 182.671 202.001Z" fill="#CCCCCC"/>
<path opacity="0.5" d="M182.671 222.001H125.329C124.598 222.001 124 221.101 124 220.001C124 218.901 124.598 218.001 125.329 218.001H182.671C183.402 218.001 184 218.901 184 220.001C184 221.101 183.402 222.001 182.671 222.001Z" fill="#CCCCCC"/>
<path opacity="0.5" d="M182.671 242.001H125.329C124.598 242.001 124 241.101 124 240.001C124 238.901 124.598 238.001 125.329 238.001H182.671C183.402 238.001 184 238.901 184 240.001C184 241.101 183.402 242.001 182.671 242.001Z" fill="#CCCCCC"/>
<path opacity="0.5" d="M368.652 122.001H267.348C266.056 122.001 265 121.101 265 120.001C265 118.901 266.056 118.001 267.348 118.001H368.652C369.944 118.001 371 118.901 371 120.001C371 121.101 369.944 122.001 368.652 122.001Z" fill="#CCCCCC"/>
<path opacity="0.5" d="M368.652 142.001H267.348C266.056 142.001 265 141.101 265 140.001C265 138.901 266.056 138.001 267.348 138.001H368.652C369.944 138.001 371 138.901 371 140.001C371 141.001 369.944 142.001 368.652 142.001Z" fill="#CCCCCC"/>
<path opacity="0.5" d="M370.181 162.001H334.819C334.369 162.001 334 161.101 334 160.001C334 158.901 334.369 158.001 334.819 158.001H370.181C370.631 158.001 371 158.901 371 160.001C371 161.001 370.631 162.001 370.181 162.001Z" fill="#CCCCCC"/>
<path opacity="0.5" d="M370.646 182.001H355.354C355.159 182.001 355 181.101 355 180.001C355 178.901 355.159 178.001 355.354 178.001H370.646C370.841 178.001 371 178.901 371 180.001C371 181.001 370.841 182.001 370.646 182.001Z" fill="#CCCCCC"/>
<mask id="path-87-inside-1_2750_31814" fill="white">
<path fill-rule="evenodd" clip-rule="evenodd" d="M280.95 95.1515L223.475 22.0015L166 95.1515H197.35V199.651H249.6V95.1515H280.95Z"/>
</mask>
<path fill-rule="evenodd" clip-rule="evenodd" d="M280.95 95.1515L223.475 22.0015L166 95.1515H197.35V199.651H249.6V95.1515H280.95Z" fill="url(#paint31_linear_2750_31814)"/>
<path d="M223.475 22.0015L224.261 21.3836L223.475 20.3829L222.689 21.3836L223.475 22.0015ZM280.95 95.1515V96.1515H283.007L281.736 94.5336L280.95 95.1515ZM166 95.1515L165.214 94.5336L163.943 96.1515H166V95.1515ZM197.35 95.1515H198.35V94.1515H197.35V95.1515ZM197.35 199.651H196.35V200.651H197.35V199.651ZM249.6 199.651V200.651H250.6V199.651H249.6ZM249.6 95.1515V94.1515H248.6V95.1515H249.6ZM222.689 22.6193L280.164 95.7693L281.736 94.5336L224.261 21.3836L222.689 22.6193ZM166.786 95.7693L224.261 22.6193L222.689 21.3836L165.214 94.5336L166.786 95.7693ZM197.35 94.1515H166V96.1515H197.35V94.1515ZM198.35 199.651V95.1515H196.35V199.651H198.35ZM249.6 198.651H197.35V200.651H249.6V198.651ZM248.6 95.1515V199.651H250.6V95.1515H248.6ZM280.95 94.1515H249.6V96.1515H280.95V94.1515Z" fill="#444444" mask="url(#path-87-inside-1_2750_31814)"/>
<mask id="path-89-inside-2_2750_31814" fill="white">
<path fill-rule="evenodd" clip-rule="evenodd" d="M229.069 249.001C208.666 249.001 192.125 232.461 192.125 212.057C192.125 191.653 208.666 175.113 229.069 175.113C236.595 175.113 243.596 177.363 249.434 181.228C257.041 165.135 273.422 154.001 292.403 154.001C315.49 154.001 334.731 170.473 339.013 192.306C341.791 191.422 344.749 190.946 347.819 190.946C363.851 190.946 376.847 203.942 376.847 219.974C376.847 235.116 365.253 247.55 350.458 248.883V249.002L229.069 249.001Z"/>
</mask>
<path fill-rule="evenodd" clip-rule="evenodd" d="M229.069 249.001C208.666 249.001 192.125 232.461 192.125 212.057C192.125 191.653 208.666 175.113 229.069 175.113C236.595 175.113 243.596 177.363 249.434 181.228C257.041 165.135 273.422 154.001 292.403 154.001C315.49 154.001 334.731 170.473 339.013 192.306C341.791 191.422 344.749 190.946 347.819 190.946C363.851 190.946 376.847 203.942 376.847 219.974C376.847 235.116 365.253 247.55 350.458 248.883V249.002L229.069 249.001Z" fill="#CCCCCC"/>
<path d="M229.069 249.001V248.001V249.001ZM249.434 181.228L248.882 182.061L249.845 182.699L250.339 181.655L249.434 181.228ZM339.013 192.306L338.032 192.498L338.248 193.598L339.316 193.259L339.013 192.306ZM350.458 248.883L350.369 247.887L349.458 247.969V248.883H350.458ZM350.458 249.002V250.002H351.458V249.002H350.458ZM229.069 248.001C209.218 248.001 193.125 231.909 193.125 212.057H191.125C191.125 233.013 208.113 250.001 229.069 250.001V248.001ZM193.125 212.057C193.125 192.205 209.218 176.113 229.069 176.113V174.113C208.113 174.113 191.125 191.101 191.125 212.057H193.125ZM229.069 176.113C236.393 176.113 243.203 178.302 248.882 182.061L249.986 180.394C243.989 176.424 236.798 174.113 229.069 174.113V176.113ZM250.339 181.655C257.786 165.899 273.823 155.001 292.403 155.001V153.001C273.021 153.001 256.296 164.371 248.53 180.8L250.339 181.655ZM292.403 155.001C315.003 155.001 333.84 171.126 338.032 192.498L339.995 192.113C335.622 169.82 315.977 153.001 292.403 153.001V155.001ZM339.316 193.259C341.997 192.406 344.854 191.946 347.819 191.946V189.946C344.645 189.946 341.585 190.439 338.71 191.353L339.316 193.259ZM347.819 191.946C363.299 191.946 375.847 204.494 375.847 219.974H377.847C377.847 203.39 364.403 189.946 347.819 189.946V191.946ZM375.847 219.974C375.847 234.593 364.653 246.6 350.369 247.887L350.548 249.879C365.854 248.5 377.847 235.638 377.847 219.974H375.847ZM349.458 248.883V249.002H351.458V248.883H349.458ZM350.458 248.002L229.069 248.001V250.001L350.458 250.002V248.002Z" fill="#444444" mask="url(#path-89-inside-2_2750_31814)"/>
<path d="M423.2 254.646C423.2 255.046 423 255.446 422.7 255.746C422.4 256.046 422 256.246 421.6 256.146C420.7 256.146 420 255.446 420 254.646V251.147C420 250.747 420.2 250.347 420.5 250.047C420.8 249.747 421.2 249.547 421.6 249.647C422.5 249.647 423.2 250.347 423.2 251.147V254.646ZM422.2 251.047C422.2 250.847 422.1 250.747 422 250.647C421.9 250.547 421.8 250.447 421.6 250.447C421.5 250.447 421.3 250.547 421.2 250.647C421.1 250.747 421 250.947 421 251.047V254.546C421 254.646 421.1 254.846 421.2 254.946C421.3 255.046 421.4 255.146 421.6 255.146C421.9 255.146 422.2 254.846 422.2 254.546V251.047Z" fill="#666666"/>
<path d="M472 261.845C472 262.245 471.8 262.645 471.5 262.945C471.2 263.245 470.8 263.445 470.4 263.345C469.5 263.345 468.8 262.645 468.8 261.845V258.346C468.8 257.946 469 257.546 469.3 257.246C469.6 256.946 470 256.746 470.4 256.846C471.3 256.846 472 257.546 472 258.346V261.845ZM470.9 258.346C470.9 258.046 470.6 257.746 470.3 257.746C470.1 257.746 470 257.846 469.9 257.946C469.8 258.046 469.7 258.246 469.7 258.346V261.845C469.7 261.945 469.8 262.145 469.9 262.245C470 262.345 470.1 262.445 470.3 262.445C470.6 262.445 470.9 262.145 470.9 261.845V258.346Z" fill="#666666"/>
<path d="M445.7 230.151C445.7 230.55 445.5 230.95 445.2 231.25C444.6 231.85 443.6 231.85 443 231.25C442.7 230.95 442.6 230.55 442.6 230.151V226.551C442.6 226.151 442.8 225.751 443.1 225.451C443.7 224.851 444.7 224.851 445.3 225.451C445.6 225.751 445.8 226.151 445.8 226.551V230.151H445.7ZM444.7 226.551C444.7 226.251 444.5 225.951 444.1 225.951C443.9 225.951 443.8 226.051 443.7 226.151C443.6 226.251 443.5 226.351 443.5 226.551V230.151C443.5 230.45 443.7 230.75 444 230.75C444.3 230.75 444.6 230.45 444.6 230.151L444.7 226.551Z" fill="#666666"/>
<path d="M423.4 278.142C423.4 278.542 423.2 278.942 422.9 279.241C422.6 279.541 422.2 279.741 421.8 279.641C421.4 279.641 421 279.541 420.7 279.241C420.4 278.942 420.2 278.542 420.2 278.142V274.642C420.2 273.742 420.9 273.143 421.8 273.143C422.2 273.143 422.6 273.343 422.9 273.642C423.2 273.942 423.4 274.342 423.4 274.742V278.142ZM422.4 274.542C422.4 274.442 422.3 274.242 422.2 274.142C422 273.942 421.6 273.942 421.4 274.142C421.3 274.242 421.2 274.342 421.2 274.542V278.042C421.2 278.142 421.3 278.342 421.4 278.442C421.6 278.642 422 278.642 422.2 278.442C422.3 278.342 422.4 278.242 422.4 278.042V274.542Z" fill="#666666"/>
<path d="M431.4 278.142C431.4 278.542 431.2 278.942 430.9 279.241C430.6 279.541 430.2 279.741 429.8 279.641C428.9 279.641 428.2 278.942 428.2 278.142V274.642C428.2 273.742 428.9 273.143 429.8 273.143C430.7 273.143 431.4 273.842 431.4 274.642V278.142ZM430.3 274.542C430.3 274.442 430.2 274.242 430.1 274.142C430 274.042 429.9 273.942 429.7 273.942C429.5 273.942 429.4 274.042 429.3 274.142C429.2 274.242 429.1 274.342 429.1 274.542V278.042C429.1 278.142 429.2 278.342 429.3 278.442C429.4 278.542 429.5 278.642 429.7 278.642C430 278.642 430.3 278.342 430.3 278.042V274.542Z" fill="#666666"/>
<path d="M433 279.641V274.642H432.2V273.942C432.5 273.942 432.7 273.842 432.9 273.642C433.1 273.543 433.3 273.343 433.4 273.143H434.1V279.641H433Z" fill="#666666"/>
<path d="M435.6 279.641V274.642H434.8V273.942C435.1 273.942 435.3 273.842 435.5 273.642C435.7 273.543 435.9 273.343 436 273.143H436.7V279.641H435.6Z" fill="#666666"/>
<path d="M438.2 279.641V274.642H437.4V273.942C437.7 273.942 437.9 273.842 438.1 273.642C438.3 273.543 438.5 273.343 438.6 273.143H439.3V279.641H438.2Z" fill="#666666"/>
<path d="M452 256.046V251.047H451.2V250.347C451.5 250.347 451.7 250.247 451.9 250.047C452.1 249.947 452.3 249.747 452.4 249.547H453.1V256.046H452Z" fill="#666666"/>
<path d="M423.2 254.646C423.2 255.046 423 255.446 422.7 255.746C422.4 256.046 422 256.246 421.6 256.146C420.7 256.146 420 255.446 420 254.646V251.147C420 250.747 420.2 250.347 420.5 250.047C420.8 249.747 421.2 249.547 421.6 249.647C422.5 249.647 423.2 250.347 423.2 251.147V254.646ZM422.2 251.047C422.2 250.847 422.1 250.747 422 250.647C421.9 250.547 421.8 250.447 421.6 250.447C421.5 250.447 421.3 250.547 421.2 250.647C421.1 250.747 421 250.947 421 251.047V254.546C421 254.646 421.1 254.846 421.2 254.946C421.3 255.046 421.4 255.146 421.6 255.146C421.9 255.146 422.2 254.846 422.2 254.546V251.047Z" fill="#666666"/>
<path d="M472 261.845C472 262.245 471.8 262.645 471.5 262.945C471.2 263.245 470.8 263.445 470.4 263.345C469.5 263.345 468.8 262.645 468.8 261.845V258.346C468.8 257.946 469 257.546 469.3 257.246C469.6 256.946 470 256.746 470.4 256.846C471.3 256.846 472 257.546 472 258.346V261.845ZM470.9 258.346C470.9 258.046 470.6 257.746 470.3 257.746C470.1 257.746 470 257.846 469.9 257.946C469.8 258.046 469.7 258.246 469.7 258.346V261.845C469.7 261.945 469.8 262.145 469.9 262.245C470 262.345 470.1 262.445 470.3 262.445C470.6 262.445 470.9 262.145 470.9 261.845V258.346Z" fill="#666666"/>
<path d="M445.7 230.151C445.7 230.55 445.5 230.95 445.2 231.25C444.6 231.85 443.6 231.85 443 231.25C442.7 230.95 442.6 230.55 442.6 230.151V226.551C442.6 226.151 442.8 225.751 443.1 225.451C443.7 224.851 444.7 224.851 445.3 225.451C445.6 225.751 445.8 226.151 445.8 226.551V230.151H445.7ZM444.7 226.551C444.7 226.251 444.5 225.951 444.1 225.951C443.9 225.951 443.8 226.051 443.7 226.151C443.6 226.251 443.5 226.351 443.5 226.551V230.151C443.5 230.45 443.7 230.75 444 230.75C444.3 230.75 444.6 230.45 444.6 230.151L444.7 226.551Z" fill="#666666"/>
<path d="M423.4 278.142C423.4 278.542 423.2 278.942 422.9 279.241C422.6 279.541 422.2 279.741 421.8 279.641C421.4 279.641 421 279.541 420.7 279.241C420.4 278.942 420.2 278.542 420.2 278.142V274.642C420.2 273.742 420.9 273.143 421.8 273.143C422.2 273.143 422.6 273.343 422.9 273.642C423.2 273.942 423.4 274.342 423.4 274.742V278.142ZM422.4 274.542C422.4 274.442 422.3 274.242 422.2 274.142C422 273.942 421.6 273.942 421.4 274.142C421.3 274.242 421.2 274.342 421.2 274.542V278.042C421.2 278.142 421.3 278.342 421.4 278.442C421.6 278.642 422 278.642 422.2 278.442C422.3 278.342 422.4 278.242 422.4 278.042V274.542Z" fill="#666666"/>
<path d="M431.4 278.142C431.4 278.542 431.2 278.942 430.9 279.241C430.6 279.541 430.2 279.741 429.8 279.641C428.9 279.641 428.2 278.942 428.2 278.142V274.642C428.2 273.742 428.9 273.143 429.8 273.143C430.7 273.143 431.4 273.842 431.4 274.642V278.142ZM430.3 274.542C430.3 274.442 430.2 274.242 430.1 274.142C430 274.042 429.9 273.942 429.7 273.942C429.5 273.942 429.4 274.042 429.3 274.142C429.2 274.242 429.1 274.342 429.1 274.542V278.042C429.1 278.142 429.2 278.342 429.3 278.442C429.4 278.542 429.5 278.642 429.7 278.642C430 278.642 430.3 278.342 430.3 278.042V274.542Z" fill="#666666"/>
<path d="M433 279.641V274.642H432.2V273.942C432.5 273.942 432.7 273.842 432.9 273.642C433.1 273.543 433.3 273.343 433.4 273.143H434.1V279.641H433Z" fill="#666666"/>
<path d="M435.6 279.641V274.642H434.8V273.942C435.1 273.942 435.3 273.842 435.5 273.642C435.7 273.543 435.9 273.343 436 273.143H436.7V279.641H435.6Z" fill="#666666"/>
<path d="M438.2 279.641V274.642H437.4V273.942C437.7 273.942 437.9 273.842 438.1 273.642C438.3 273.543 438.5 273.343 438.6 273.143H439.3V279.641H438.2Z" fill="#666666"/>
<path d="M452 256.046V251.047H451.2V250.347C451.5 250.347 451.7 250.247 451.9 250.047C452.1 249.947 452.3 249.747 452.4 249.547H453.1V256.046H452Z" fill="#666666"/>
<circle cx="392" cy="64.0015" r="42.5" fill="url(#paint32_linear_2750_31814)" stroke="#333333"/>
<path d="M416.523 68.7708C416.399 68.7419 416.22 68.6925 416.098 68.6699C415.632 68.6054 415.164 68.5675 414.694 68.5565C413.806 68.4984 412.927 68.3537 412.067 68.1245C411.802 67.9747 411.583 67.7542 411.436 67.4874L410.844 67.3148C411.477 62.6855 410.391 57.9847 407.795 54.1044C407.946 53.9666 408.232 53.7124 408.313 53.6376C408.293 53.3352 408.392 53.0369 408.588 52.8064C409.263 52.2255 409.992 51.7118 410.766 51.2726C411.185 51.0591 411.591 50.8215 411.983 50.561C412.077 50.4907 412.206 50.3794 412.305 50.3001C412.479 50.189 412.628 50.0424 412.742 49.8699C412.856 49.6975 412.932 49.5029 412.966 49.299C413 49.095 412.991 48.8861 412.939 48.686C412.887 48.4858 412.794 48.2988 412.665 48.137C412.537 47.9752 412.376 47.8424 412.193 47.747C412.01 47.6516 411.809 47.5959 411.603 47.5834C411.397 47.5709 411.191 47.602 410.998 47.6746C410.804 47.7471 410.629 47.8596 410.482 48.0047C410.382 48.0836 410.246 48.1873 410.157 48.2645C409.815 48.5874 409.492 48.93 409.189 49.2905C408.59 49.9501 407.929 50.5497 407.215 51.081C406.933 51.1956 406.626 51.2291 406.326 51.1776L405.769 51.5766C402.563 48.2033 398.243 46.1114 393.614 45.6894C393.6 45.4942 393.584 45.1409 393.579 45.0341C393.33 44.8613 393.158 44.598 393.101 44.3002C393.07 43.4094 393.125 42.5176 393.267 41.6375C393.36 41.1766 393.426 40.7107 393.466 40.2421C393.471 40.1239 393.464 39.9521 393.464 39.8245C393.484 39.6193 393.462 39.412 393.397 39.2161C393.333 39.0202 393.229 38.8399 393.09 38.687C392.952 38.5341 392.784 38.4119 392.596 38.3283C392.408 38.2447 392.204 38.2016 391.998 38.2017C391.793 38.2018 391.589 38.2451 391.401 38.3289C391.213 38.4127 391.045 38.535 390.907 38.6881C390.769 38.8411 390.665 39.0214 390.601 39.2174C390.536 39.4134 390.514 39.6207 390.535 39.8258C390.535 39.8398 390.538 39.853 390.538 39.8669C390.537 39.9886 390.531 40.1361 390.535 40.2425C390.575 40.7114 390.642 41.1777 390.735 41.6389C390.875 42.5189 390.93 43.4104 390.898 44.301C390.815 44.5942 390.65 44.8575 390.422 45.0599L390.388 45.6811C389.497 45.7548 388.612 45.8911 387.74 46.089C384.078 46.9187 380.746 48.8268 378.173 51.5682C377.995 51.4451 377.818 51.3196 377.643 51.1919C377.354 51.2787 377.041 51.2484 376.774 51.1074C376.059 50.5772 375.398 49.9783 374.799 49.3193C374.498 48.9591 374.176 48.6165 373.836 48.2933C373.747 48.2168 373.61 48.1125 373.51 48.0325C373.22 47.7977 372.862 47.6624 372.49 47.6464C372.268 47.6348 372.047 47.6757 371.844 47.7657C371.642 47.8557 371.463 47.9924 371.323 48.1646C371.085 48.4999 370.99 48.9156 371.057 49.3211C371.125 49.7266 371.35 50.0888 371.683 50.3287L371.705 50.3447C371.801 50.4233 371.919 50.5238 372.008 50.5888C372.399 50.8494 372.804 51.0872 373.222 51.3011C373.996 51.7403 374.725 52.2543 375.4 52.8356C375.575 53.0847 375.677 53.3779 375.694 53.6821L376.163 54.1023C373.574 57.9965 372.51 62.7119 373.175 67.3441L372.562 67.5229C372.402 67.779 372.187 67.9961 371.933 68.1583C371.074 68.3881 370.195 68.5333 369.308 68.592C368.838 68.6027 368.369 68.6405 367.903 68.7053C367.79 68.7262 367.634 68.7659 367.512 68.7965L367.499 68.7993L367.478 68.8055C367.275 68.8322 367.08 68.9011 366.906 69.0077C366.731 69.1144 366.58 69.2564 366.463 69.4247C366.346 69.593 366.266 69.7839 366.227 69.9852C366.188 70.1865 366.191 70.3938 366.237 70.5937C366.282 70.7937 366.369 70.9819 366.491 71.1463C366.613 71.3108 366.768 71.4479 366.946 71.5488C367.125 71.6497 367.322 71.7122 367.525 71.7324C367.729 71.7525 367.934 71.7299 368.129 71.6658L368.151 71.6624C368.16 71.6603 368.169 71.6554 368.178 71.6537C368.299 71.6258 368.451 71.597 368.557 71.5681C369.004 71.425 369.443 71.2565 369.871 71.0634C370.696 70.7301 371.551 70.4779 372.424 70.3105C372.727 70.329 373.018 70.4323 373.266 70.6086L373.904 70.499C375.337 74.9374 378.341 78.6966 382.35 81.0676L382.083 81.7076C382.207 81.9654 382.252 82.2542 382.214 82.5378C381.849 83.374 381.405 84.1734 380.888 84.9251C380.604 85.3005 380.342 85.6921 380.103 86.0979C380.045 86.2085 379.971 86.3778 379.915 86.4936C379.809 86.67 379.742 86.8666 379.716 87.0707C379.691 87.2748 379.708 87.482 379.768 87.679C379.827 87.8759 379.927 88.0582 380.061 88.2141C380.195 88.3701 380.36 88.4962 380.545 88.5844C380.73 88.6726 380.932 88.7209 381.137 88.7262C381.343 88.7315 381.547 88.6937 381.736 88.6152C381.926 88.5368 382.097 88.4193 382.239 88.2706C382.381 88.1218 382.49 87.9449 382.559 87.7513L382.562 87.7485V87.745C382.617 87.6302 382.696 87.4796 382.743 87.3722C382.91 86.9323 383.051 86.4832 383.165 86.0269C383.418 85.099 383.8 84.2113 384.299 83.3899C384.474 83.2256 384.694 83.118 384.93 83.081L385.262 82.4793C389.61 84.1549 394.42 84.1672 398.776 82.5138C398.869 82.68 399.042 82.9979 399.088 83.0782C399.387 83.1262 399.656 83.2897 399.836 83.5339C400.25 84.3217 400.587 85.1483 400.841 86.0019C400.957 86.4581 401.099 86.9073 401.266 87.3471C401.314 87.4556 401.391 87.608 401.448 87.7234C401.517 87.9172 401.626 88.0942 401.767 88.2432C401.909 88.3922 402.08 88.5098 402.27 88.5886C402.459 88.6673 402.663 88.7053 402.869 88.7003C403.074 88.6953 403.276 88.6472 403.461 88.5593C403.647 88.4713 403.812 88.3454 403.946 88.1897C404.08 88.0339 404.181 87.8517 404.24 87.6548C404.3 87.458 404.318 87.2507 404.293 87.0465C404.268 86.8423 404.2 86.6455 404.095 86.4689C404.039 86.3531 403.962 86.1837 403.904 86.0738C403.665 85.669 403.403 85.2783 403.119 84.9038C402.612 84.1713 402.177 83.3908 401.821 82.5735C401.743 82.2813 401.784 81.9702 401.933 81.7075C401.839 81.5155 401.758 81.3176 401.689 81.1152C405.71 78.7251 408.714 74.9367 410.13 70.4708C410.32 70.5011 410.65 70.5588 410.757 70.5807C410.98 70.3758 411.274 70.2663 411.576 70.2757C412.45 70.443 413.305 70.6952 414.13 71.0287C414.558 71.2234 414.996 71.3932 415.444 71.5372C415.55 71.5649 415.701 71.5914 415.822 71.6182C415.832 71.621 415.841 71.6251 415.851 71.6279L415.872 71.6311C416.066 71.695 416.272 71.7176 416.475 71.6974C416.679 71.6771 416.876 71.6146 417.054 71.5137C417.232 71.4129 417.387 71.2759 417.509 71.1115C417.631 70.9471 417.718 70.759 417.763 70.5592C417.809 70.3594 417.812 70.1523 417.773 69.9511C417.734 69.7498 417.654 69.559 417.537 69.3906C417.421 69.2223 417.27 69.0802 417.096 68.9735C416.921 68.8668 416.726 68.7977 416.523 68.7708ZM402.61 53.8199L396.351 58.2672L396.329 58.2568C396.141 58.3946 395.918 58.4787 395.686 58.5001C395.454 58.5214 395.22 58.4792 395.009 58.378C394.799 58.2767 394.62 58.1202 394.491 57.9251C394.362 57.7299 394.288 57.5034 394.278 57.2697L394.271 57.2663L393.836 49.5788C397.145 49.9906 400.228 51.4807 402.61 53.8199ZM390.82 62.2464H393.175L394.64 64.0813L394.115 66.3699L391.999 67.3903L389.878 66.3678L389.352 64.0782L390.82 62.2464ZM388.604 49.848C389.12 49.7316 389.642 49.6417 390.167 49.5788L389.731 57.2781L389.699 57.2934C389.69 57.5272 389.617 57.7539 389.488 57.9494C389.36 58.145 389.181 58.302 388.971 58.4038C388.761 58.5056 388.527 58.5483 388.295 58.5274C388.062 58.5066 387.84 58.4229 387.651 58.2853L387.639 58.2922L381.34 53.8154C383.345 51.84 385.861 50.4659 388.604 49.848ZM379.055 56.6927L384.806 61.8485L384.8 61.8798C384.976 62.0335 385.108 62.2323 385.18 62.455C385.252 62.6777 385.263 62.9159 385.211 63.1442C385.159 63.3725 385.046 63.5824 384.884 63.7514C384.723 63.9204 384.518 64.0423 384.293 64.104L384.287 64.129L376.915 66.261C376.548 62.9219 377.301 59.555 379.055 56.6927ZM386.755 70.3891L383.826 77.4832C381.015 75.6794 378.876 72.9961 377.742 69.8496L385.3 68.5628L385.313 68.5798C385.396 68.5638 385.481 68.5562 385.566 68.5572C385.778 68.5604 385.986 68.6158 386.172 68.7186C386.357 68.8214 386.514 68.9684 386.63 69.1467C386.745 69.3249 386.815 69.5289 386.833 69.7406C386.851 69.9523 386.817 70.1653 386.733 70.3606L386.755 70.3891ZM395.401 79.5119C392.66 80.1419 389.799 79.9946 387.137 79.0865L390.854 72.3489H390.861C390.971 72.1431 391.135 71.971 391.335 71.851C391.536 71.731 391.764 71.6676 391.998 71.6673C392.231 71.6671 392.46 71.7302 392.66 71.8498C392.861 71.9694 393.025 72.1412 393.136 72.3468H393.164L396.89 79.0955C396.406 79.2574 395.91 79.3957 395.401 79.5119ZM400.203 77.5117L397.244 70.3452L397.253 70.3324C397.122 70.0258 397.114 69.6803 397.23 69.3679C397.347 69.0554 397.579 68.8 397.879 68.6549C398.033 68.5791 398.201 68.5354 398.373 68.5262C398.472 68.5216 398.572 68.529 398.67 68.5481L398.683 68.5321L406.308 69.8239C405.182 72.9957 403.034 75.7006 400.203 77.5117ZM407.109 66.236L399.7 64.097L399.693 64.0657C399.468 64.0034 399.264 63.8813 399.103 63.7122C398.942 63.5431 398.829 63.3333 398.777 63.1053C398.725 62.8772 398.736 62.6393 398.808 62.4168C398.88 62.1943 399.011 61.9955 399.187 61.8415L399.184 61.8266L404.903 56.6962C406.654 59.5509 407.429 62.9001 407.109 66.236Z" fill="white"/>
</g>
<defs>
<linearGradient id="paint0_linear_2750_31814" x1="1.54025e-05" y1="-0.078125" x2="0.910425" y2="3.70577" gradientUnits="userSpaceOnUse">
<stop stop-color="#FFC671"/>
<stop offset="0.59375" stop-color="#FF7541"/>
<stop offset="1" stop-color="#FF6F3D"/>
</linearGradient>
<linearGradient id="paint1_linear_2750_31814" x1="98.9999" y1="60.9233" x2="98.7805" y2="64.9142" gradientUnits="userSpaceOnUse">
<stop stop-color="#FFC671"/>
<stop offset="0.59375" stop-color="#FF7541"/>
<stop offset="1" stop-color="#FF6F3D"/>
</linearGradient>
<linearGradient id="paint2_linear_2750_31814" x1="98.9999" y1="80.9233" x2="98.7805" y2="84.9142" gradientUnits="userSpaceOnUse">
<stop stop-color="#FFC671"/>
<stop offset="0.59375" stop-color="#FF7541"/>
<stop offset="1" stop-color="#FF6F3D"/>
</linearGradient>
<linearGradient id="paint3_linear_2750_31814" x1="98.9999" y1="90.9233" x2="98.7805" y2="94.9142" gradientUnits="userSpaceOnUse">
<stop stop-color="#FFC671"/>
<stop offset="0.59375" stop-color="#FF7541"/>
<stop offset="1" stop-color="#FF6F3D"/>
</linearGradient>
<linearGradient id="paint4_linear_2750_31814" x1="1.54025e-05" y1="-0.078125" x2="0.910425" y2="3.70577" gradientUnits="userSpaceOnUse">
<stop stop-color="#FFC671"/>
<stop offset="0.59375" stop-color="#FF7541"/>
<stop offset="1" stop-color="#FF6F3D"/>
</linearGradient>
<linearGradient id="paint5_linear_2750_31814" x1="1.54025e-05" y1="-0.078125" x2="0.910425" y2="3.70577" gradientUnits="userSpaceOnUse">
<stop stop-color="#FFC671"/>
<stop offset="0.59375" stop-color="#FF7541"/>
<stop offset="1" stop-color="#FF6F3D"/>
</linearGradient>
<linearGradient id="paint6_linear_2750_31814" x1="1.54025e-05" y1="-0.078125" x2="0.910425" y2="3.70577" gradientUnits="userSpaceOnUse">
<stop stop-color="#FFC671"/>
<stop offset="0.59375" stop-color="#FF7541"/>
<stop offset="1" stop-color="#FF6F3D"/>
</linearGradient>
<linearGradient id="paint7_linear_2750_31814" x1="1.54025e-05" y1="-0.078125" x2="0.910425" y2="3.70577" gradientUnits="userSpaceOnUse">
<stop stop-color="#FFC671"/>
<stop offset="0.59375" stop-color="#FF7541"/>
<stop offset="1" stop-color="#FF6F3D"/>
</linearGradient>
<linearGradient id="paint8_linear_2750_31814" x1="1.54025e-05" y1="-0.078125" x2="0.910425" y2="3.70577" gradientUnits="userSpaceOnUse">
<stop stop-color="#FFC671"/>
<stop offset="0.59375" stop-color="#FF7541"/>
<stop offset="1" stop-color="#FF6F3D"/>
</linearGradient>
<linearGradient id="paint9_linear_2750_31814" x1="1.54025e-05" y1="-0.078125" x2="0.910425" y2="3.70577" gradientUnits="userSpaceOnUse">
<stop stop-color="#FFC671"/>
<stop offset="0.59375" stop-color="#FF7541"/>
<stop offset="1" stop-color="#FF6F3D"/>
</linearGradient>
<linearGradient id="paint10_linear_2750_31814" x1="109" y1="140.923" x2="109.911" y2="144.707" gradientUnits="userSpaceOnUse">
<stop stop-color="#FFC671"/>
<stop offset="0.59375" stop-color="#FF7541"/>
<stop offset="1" stop-color="#FF6F3D"/>
</linearGradient>
<linearGradient id="paint11_linear_2750_31814" x1="23.0003" y1="140.923" x2="23.1016" y2="144.924" gradientUnits="userSpaceOnUse">
<stop stop-color="#FFC671"/>
<stop offset="0.59375" stop-color="#FF7541"/>
<stop offset="1" stop-color="#FF6F3D"/>
</linearGradient>
<linearGradient id="paint12_linear_2750_31814" x1="23.0003" y1="160.923" x2="23.1016" y2="164.924" gradientUnits="userSpaceOnUse">
<stop stop-color="#FFC671"/>
<stop offset="0.59375" stop-color="#FF7541"/>
<stop offset="1" stop-color="#FF6F3D"/>
</linearGradient>
<linearGradient id="paint13_linear_2750_31814" x1="23.0003" y1="170.923" x2="23.1016" y2="174.924" gradientUnits="userSpaceOnUse">
<stop stop-color="#FFC671"/>
<stop offset="0.59375" stop-color="#FF7541"/>
<stop offset="1" stop-color="#FF6F3D"/>
</linearGradient>
<linearGradient id="paint14_linear_2750_31814" x1="123" y1="140.923" x2="123.911" y2="144.707" gradientUnits="userSpaceOnUse">
<stop stop-color="#FFC671"/>
<stop offset="0.59375" stop-color="#FF7541"/>
<stop offset="1" stop-color="#FF6F3D"/>
</linearGradient>
<linearGradient id="paint15_linear_2750_31814" x1="123" y1="160.923" x2="123.911" y2="164.707" gradientUnits="userSpaceOnUse">
<stop stop-color="#FFC671"/>
<stop offset="0.59375" stop-color="#FF7541"/>
<stop offset="1" stop-color="#FF6F3D"/>
</linearGradient>
<linearGradient id="paint16_linear_2750_31814" x1="137" y1="160.923" x2="137.911" y2="164.707" gradientUnits="userSpaceOnUse">
<stop stop-color="#FFC671"/>
<stop offset="0.59375" stop-color="#FF7541"/>
<stop offset="1" stop-color="#FF6F3D"/>
</linearGradient>
<linearGradient id="paint17_linear_2750_31814" x1="109" y1="150.923" x2="109.911" y2="154.707" gradientUnits="userSpaceOnUse">
<stop stop-color="#FFC671"/>
<stop offset="0.59375" stop-color="#FF7541"/>
<stop offset="1" stop-color="#FF6F3D"/>
</linearGradient>
<linearGradient id="paint18_linear_2750_31814" x1="109" y1="170.923" x2="109.911" y2="174.707" gradientUnits="userSpaceOnUse">
<stop stop-color="#FFC671"/>
<stop offset="0.59375" stop-color="#FF7541"/>
<stop offset="1" stop-color="#FF6F3D"/>
</linearGradient>
<linearGradient id="paint19_linear_2750_31814" x1="123" y1="170.923" x2="123.911" y2="174.707" gradientUnits="userSpaceOnUse">
<stop stop-color="#FFC671"/>
<stop offset="0.59375" stop-color="#FF7541"/>
<stop offset="1" stop-color="#FF6F3D"/>
</linearGradient>
<linearGradient id="paint20_linear_2750_31814" x1="1.54025e-05" y1="-0.078125" x2="0.910425" y2="3.70577" gradientUnits="userSpaceOnUse">
<stop stop-color="#FFC671"/>
<stop offset="0.59375" stop-color="#FF7541"/>
<stop offset="1" stop-color="#FF6F3D"/>
</linearGradient>
<linearGradient id="paint21_linear_2750_31814" x1="98.9999" y1="220.923" x2="98.7805" y2="224.914" gradientUnits="userSpaceOnUse">
<stop stop-color="#FFC671"/>
<stop offset="0.59375" stop-color="#FF7541"/>
<stop offset="1" stop-color="#FF6F3D"/>
</linearGradient>
<linearGradient id="paint22_linear_2750_31814" x1="98.9999" y1="240.923" x2="98.7805" y2="244.914" gradientUnits="userSpaceOnUse">
<stop stop-color="#FFC671"/>
<stop offset="0.59375" stop-color="#FF7541"/>
<stop offset="1" stop-color="#FF6F3D"/>
</linearGradient>
<linearGradient id="paint23_linear_2750_31814" x1="98.9999" y1="250.923" x2="98.7805" y2="254.914" gradientUnits="userSpaceOnUse">
<stop stop-color="#FFC671"/>
<stop offset="0.59375" stop-color="#FF7541"/>
<stop offset="1" stop-color="#FF6F3D"/>
</linearGradient>
<linearGradient id="paint24_linear_2750_31814" x1="1.54025e-05" y1="-0.078125" x2="0.910425" y2="3.70577" gradientUnits="userSpaceOnUse">
<stop stop-color="#FFC671"/>
<stop offset="0.59375" stop-color="#FF7541"/>
<stop offset="1" stop-color="#FF6F3D"/>
</linearGradient>
<linearGradient id="paint25_linear_2750_31814" x1="1.54025e-05" y1="-0.078125" x2="0.910425" y2="3.70577" gradientUnits="userSpaceOnUse">
<stop stop-color="#FFC671"/>
<stop offset="0.59375" stop-color="#FF7541"/>
<stop offset="1" stop-color="#FF6F3D"/>
</linearGradient>
<linearGradient id="paint26_linear_2750_31814" x1="1.54025e-05" y1="-0.078125" x2="0.910425" y2="3.70577" gradientUnits="userSpaceOnUse">
<stop stop-color="#FFC671"/>
<stop offset="0.59375" stop-color="#FF7541"/>
<stop offset="1" stop-color="#FF6F3D"/>
</linearGradient>
<linearGradient id="paint27_linear_2750_31814" x1="1.54025e-05" y1="-0.078125" x2="0.910425" y2="3.70577" gradientUnits="userSpaceOnUse">
<stop stop-color="#FFC671"/>
<stop offset="0.59375" stop-color="#FF7541"/>
<stop offset="1" stop-color="#FF6F3D"/>
</linearGradient>
<linearGradient id="paint28_linear_2750_31814" x1="1.54025e-05" y1="-0.078125" x2="0.910425" y2="3.70577" gradientUnits="userSpaceOnUse">
<stop stop-color="#FFC671"/>
<stop offset="0.59375" stop-color="#FF7541"/>
<stop offset="1" stop-color="#FF6F3D"/>
</linearGradient>
<linearGradient id="paint29_linear_2750_31814" x1="1.54025e-05" y1="-0.078125" x2="0.910425" y2="3.70577" gradientUnits="userSpaceOnUse">
<stop stop-color="#FFC671"/>
<stop offset="0.59375" stop-color="#FF7541"/>
<stop offset="1" stop-color="#FF6F3D"/>
</linearGradient>
<linearGradient id="paint30_linear_2750_31814" x1="346" y1="9.00146" x2="345.863" y2="247.406" gradientUnits="userSpaceOnUse">
<stop stop-color="#4B4B4B"/>
<stop offset="1" stop-color="#333333"/>
</linearGradient>
<linearGradient id="paint31_linear_2750_31814" x1="166" y1="15.062" x2="330.635" y2="125.752" gradientUnits="userSpaceOnUse">
<stop stop-color="#FFC671"/>
<stop offset="0.59375" stop-color="#FF7541"/>
<stop offset="1" stop-color="#FF6F3D"/>
</linearGradient>
<linearGradient id="paint32_linear_2750_31814" x1="349" y1="17.6421" x2="435" y2="107.001" gradientUnits="userSpaceOnUse">
<stop stop-color="#FFC671"/>
<stop offset="0.59375" stop-color="#FF7541"/>
<stop offset="1" stop-color="#FF6F3D"/>
</linearGradient>
<clipPath id="clip0_2750_31814">
<rect width="504" height="290" fill="white"/>
</clipPath>
</defs>
</svg>
