<svg width="504" height="290" viewBox="0 0 504 290" fill="none" xmlns="http://www.w3.org/2000/svg">
<g clip-path="url(#clip0_2750_31644)">
<path d="M99.8132 110.763C155.147 110.763 159.276 185.918 223.695 185.918C279.854 185.918 385.098 0 484 0V290H-21C47.3151 272.724 44.4795 110.763 99.8132 110.763Z" fill="url(#paint0_linear_2750_31644)"/>
<path d="M409.215 271.001H410.471V269.749V76.2666C410.471 70.0082 405.448 65.0015 399.17 65.0015H104.772C98.4936 65.0015 93.4709 70.0082 93.4709 76.2666V269.749V271.001H94.7266H409.215Z" fill="#AAAAAA"/>
<path d="M103.471 73.0015H401.471V267.001H103.471V73.0015Z" fill="#6C6C6C" stroke="#333333"/>
<path d="M62.4709 267H442.471C442.471 272.523 437.994 277 432.471 277H72.471C66.9481 277 62.4709 272.523 62.4709 267Z" fill="#AAAAAA" stroke="#333333"/>
<g opacity="0.3">
<rect opacity="0.1" x="130.122" y="234.001" width="25" height="21" fill="white"/>
<rect opacity="0.2" x="165.122" y="215.001" width="25" height="40" fill="white"/>
<rect opacity="0.3" x="200.122" y="189.001" width="25" height="66" fill="white"/>
<rect opacity="0.4" x="235.122" y="165.001" width="25" height="90" fill="white"/>
<rect opacity="0.5" x="270.122" y="143.001" width="25" height="112" fill="white"/>
<rect opacity="0.6" x="305.122" y="123.001" width="25" height="132" fill="white"/>
<rect opacity="0.7" x="340.122" y="91.0015" width="25" height="164" fill="white"/>
</g>
<path fill-rule="evenodd" clip-rule="evenodd" d="M348.628 33.5166C351.105 33.3113 353.279 35.1527 353.485 37.6294L356.831 77.991C357.036 80.4678 355.195 82.6421 352.718 82.8474C350.241 83.0527 348.067 81.2113 347.861 78.7345L345.395 48.9857C274.526 128.025 180.595 167.696 141.07 177.372C138.656 177.963 136.22 176.485 135.629 174.071C135.038 171.657 136.516 169.221 138.93 168.63C177.069 159.293 268.969 120.502 338.313 43.4027L309.01 45.8319C306.533 46.0372 304.359 44.1958 304.154 41.719C303.949 39.2422 305.79 37.068 308.267 36.8626L348.628 33.5166Z" fill="#CCCCCC" stroke="#333333"/>
<path d="M435.032 130.152C435.032 144.961 423.014 156.966 408.188 156.966C393.362 156.966 381.344 144.961 381.344 130.152C381.344 115.343 393.362 103.338 408.188 103.338C423.014 103.338 435.032 115.343 435.032 130.152Z" fill="white"/>
<path d="M408.687 101.006C392.57 100.734 379.28 113.429 379.005 129.361C378.848 138.394 382.548 146.615 389.033 152.014C389.457 151.648 390.286 151.211 390.791 150.939L399.5 146.243C400.642 145.627 401.354 144.444 401.354 143.157V139.629C401.354 139.629 398.797 136.607 397.823 132.407C397.014 131.89 396.472 130.996 396.472 129.978V126.117C396.472 125.268 396.854 124.509 397.448 123.978V118.397C397.448 118.397 396.288 109.712 408.187 109.712C420.086 109.712 418.926 118.397 418.926 118.397V123.978C419.521 124.509 419.902 125.268 419.902 126.117V129.978C419.902 131.276 419.021 132.368 417.824 132.733C417.158 134.781 416.196 136.733 414.925 138.508C414.605 138.955 414.305 139.334 414.043 139.629V143.246C414.043 144.578 414.804 145.796 416.009 146.39L425.335 150.999C425.895 151.276 426.877 151.625 427.342 152.014C433.632 146.829 437.218 139.077 437.369 130.347C437.647 114.415 424.112 101.266 408.687 101.006Z" fill="url(#paint1_linear_2750_31644)"/>
<path fill-rule="evenodd" clip-rule="evenodd" d="M437.376 130.151C437.376 146.246 424.313 159.301 408.188 159.301C392.063 159.301 379 146.246 379 130.151C379 114.057 392.063 101.001 408.188 101.001C424.313 101.001 437.376 114.057 437.376 130.151ZM408.188 156.966C423.013 156.966 435.032 144.96 435.032 130.151C435.032 115.342 423.013 103.337 408.188 103.337C393.362 103.337 381.344 115.342 381.344 130.151C381.344 144.96 393.362 156.966 408.188 156.966Z" fill="#333333"/>
<path d="M434.943 172.451C434.943 187.209 422.965 199.172 408.188 199.172C393.411 199.172 381.432 187.209 381.432 172.451C381.432 157.694 393.411 145.73 408.188 145.73C422.965 145.73 434.943 157.694 434.943 172.451Z" fill="white"/>
<path d="M409.413 144.515C393.969 144.243 381.709 153.896 381.445 169.828C381.295 178.861 384.845 188.914 391.059 194.313C391.466 193.947 392.259 193.511 392.744 193.238L401.089 188.543C402.184 187.926 402.865 186.743 402.865 185.456V181.928C402.865 181.928 400.416 178.906 399.482 174.707C398.707 174.19 398.188 173.296 398.188 172.278V168.417C398.188 167.568 398.554 166.809 399.123 166.277V160.696C399.123 160.696 398.011 152.011 409.413 152.011C420.815 152.011 419.704 160.696 419.704 160.696V166.277C420.274 166.809 420.639 167.568 420.639 168.417V172.278C420.639 173.575 419.795 174.667 418.649 175.032C418.01 177.08 417.089 179.032 415.871 180.807C415.564 181.254 415.276 181.633 415.025 181.928V185.545C415.025 186.877 415.755 188.095 416.909 188.69L425.846 193.298L427.654 193.099C433.681 187.914 436.023 181.18 436.168 172.45C436.392 158.894 424.859 144.788 409.413 144.515Z" fill="#9ADAF3"/>
<path fill-rule="evenodd" clip-rule="evenodd" d="M437.376 172.451C437.376 188.55 424.308 201.601 408.188 201.601C392.068 201.601 379 188.55 379 172.451C379 156.352 392.068 143.301 408.188 143.301C424.308 143.301 437.376 156.352 437.376 172.451ZM408.188 199.172C422.965 199.172 434.943 187.209 434.943 172.451C434.943 157.694 422.965 145.73 408.188 145.73C393.411 145.73 381.432 157.694 381.432 172.451C381.432 187.209 393.411 199.172 408.188 199.172Z" fill="#333333"/>
<path d="M435.248 214.264C435.248 228.926 423.346 240.812 408.664 240.812C393.983 240.812 382.081 228.926 382.081 214.264C382.081 199.601 393.983 187.715 408.664 187.715C423.346 187.715 435.248 199.601 435.248 214.264Z" fill="white"/>
<path d="M409.882 186.508C394.537 186.238 382.356 195.828 382.093 211.657C381.944 220.632 385.471 230.621 391.646 235.985C392.05 235.622 392.838 235.188 393.32 234.917L401.611 230.252C402.699 229.639 403.376 228.464 403.376 227.185V223.68C403.376 223.68 400.942 220.677 400.014 216.505C399.244 215.991 398.728 215.103 398.728 214.091V210.256C398.728 209.412 399.092 208.658 399.658 208.13V202.585C399.658 202.585 398.553 193.956 409.882 193.956C421.21 193.956 420.106 202.585 420.106 202.585V208.13C420.672 208.658 421.035 209.412 421.035 210.256V214.091C421.035 215.381 420.196 216.466 419.057 216.828C418.423 218.863 417.508 220.803 416.297 222.566C415.992 223.01 415.707 223.387 415.457 223.68V227.274C415.457 228.597 416.182 229.807 417.329 230.398L426.208 234.977L428.005 234.778C433.993 229.627 436.32 222.937 436.464 214.263C436.687 200.794 425.228 186.778 409.882 186.508Z" fill="#CCCCCC"/>
<path fill-rule="evenodd" clip-rule="evenodd" d="M438 214.602C438 230.618 424.792 243.602 408.5 243.602C392.208 243.602 379 230.618 379 214.602C379 198.585 392.208 185.602 408.5 185.602C424.792 185.602 438 198.585 438 214.602ZM408.5 241.185C423.435 241.185 435.542 229.283 435.542 214.602C435.542 199.92 423.435 188.018 408.5 188.018C393.565 188.018 381.458 199.92 381.458 214.602C381.458 229.283 393.565 241.185 408.5 241.185Z" fill="#333333"/>
<path d="M202.5 70.0015C202.5 91.7519 184.75 109.501 163 109.501C141.236 109.501 123.5 91.752 123.5 70.0015C123.5 48.251 141.25 30.5015 163 30.5015C184.75 30.5015 202.5 48.251 202.5 70.0015Z" fill="url(#paint2_linear_2750_31644)" stroke="#333333"/>
<path fill-rule="evenodd" clip-rule="evenodd" d="M148.333 63.472C150.041 63.472 151.604 64.1167 152.805 65.1911L165.051 55.7042C164.555 54.7158 164.275 53.6092 164.275 52.4166C164.275 48.4736 167.35 45.2827 171.149 45.2827C174.948 45.2827 178.022 48.4736 178.022 52.4166C178.022 56.3596 174.937 59.5505 171.149 59.5505C169.461 59.5505 167.919 58.9167 166.718 57.8638L154.451 67.3613C154.927 68.3283 155.197 69.4349 155.197 70.5952C155.197 71.7555 154.927 72.8514 154.451 73.8291L166.718 83.3267C167.919 82.2738 169.461 81.6399 171.149 81.6399C174.948 81.6399 178.022 84.8308 178.022 88.7738C178.022 92.7168 174.948 95.9077 171.149 95.9077C167.35 95.9077 164.275 92.7168 164.275 88.7738C164.275 87.592 164.555 86.4746 165.051 85.4862L152.805 75.9994C151.604 77.0738 150.041 77.7184 148.333 77.7184C144.534 77.7184 141.46 74.5275 141.46 70.5845C141.46 66.6415 144.534 63.472 148.333 63.472Z" fill="white"/>
<path d="M105.4 258.001H91.6C89.07 258.001 87 256.439 87 254.53V240.473C87 238.563 89.07 237.001 91.6 237.001H105.4C107.93 237.001 110 238.563 110 240.473V254.53C110 256.439 107.93 258.001 105.4 258.001Z" fill="#CCCCCC" stroke="#808080" stroke-linecap="round" stroke-linejoin="round"/>
<path d="M124 197.417C124 182.463 112.102 170.367 97.4424 171.027C84.0574 171.687 73.2219 183.123 73.0094 196.977C72.797 205.114 76.1963 212.151 81.5078 217.209C85.7571 220.948 87.8817 226.666 87.8817 232.383V237.001H109.128V232.383C109.128 226.446 111.465 220.948 115.714 216.989C120.813 212.151 124 205.114 124 197.417Z" fill="#CCCCCC" stroke="#808080" stroke-miterlimit="10"/>
<path d="M111.625 249.001H85.375C82.9687 249.001 81 247.073 81 244.716V238.287C81 235.93 82.9687 234.001 85.375 234.001H111.625C114.031 234.001 116 235.93 116 238.287V244.716C116 247.073 114.031 249.001 111.625 249.001Z" fill="#444444" stroke="#808080" stroke-miterlimit="10" stroke-linecap="round" stroke-linejoin="round"/>
<path d="M98.5 213.001C102.09 213.001 105 210.091 105 206.501C105 202.912 102.09 200.001 98.5 200.001C94.9101 200.001 92 202.912 92 206.501C92 210.091 94.9101 213.001 98.5 213.001Z" fill="#444444" stroke="#444444" stroke-miterlimit="10" stroke-linecap="round" stroke-linejoin="round"/>
<path d="M98.5 212.976V232.976" stroke="#444444" stroke-miterlimit="10" stroke-linecap="round" stroke-linejoin="round"/>
</g>
<defs>
<linearGradient id="paint0_linear_2750_31644" x1="231.5" y1="-1.05701e-08" x2="232.017" y2="321.501" gradientUnits="userSpaceOnUse">
<stop stop-color="#4B4B4B"/>
<stop offset="1" stop-color="#333333"/>
</linearGradient>
<linearGradient id="paint1_linear_2750_31644" x1="379" y1="99.0088" x2="429.295" y2="158.809" gradientUnits="userSpaceOnUse">
<stop stop-color="#FFC671"/>
<stop offset="0.59375" stop-color="#FF7541"/>
<stop offset="1" stop-color="#FF6F3D"/>
</linearGradient>
<linearGradient id="paint2_linear_2750_31644" x1="123" y1="26.8765" x2="203" y2="110.001" gradientUnits="userSpaceOnUse">
<stop stop-color="#FF8E3D"/>
<stop offset="1" stop-color="#FF6F3D"/>
</linearGradient>
<clipPath id="clip0_2750_31644">
<rect width="504" height="290" fill="white"/>
</clipPath>
</defs>
</svg>
