<svg width="504" height="346" viewBox="0 0 504 346" fill="none" xmlns="http://www.w3.org/2000/svg">
<path d="M89.9282 114.318C95.908 114.318 101.876 114.909 107.736 116.087C112.155 94.1685 126.441 75.4713 146.5 65.3511C166.555 55.2308 190.175 54.8064 210.589 64.1966C229.064 13.6233 285.293 -12.4885 336.181 5.87149C387.069 24.2315 413.343 80.1168 394.869 130.686C439.445 132.087 474.657 168.755 473.991 213.072C473.32 257.393 437.014 292.99 392.414 293.062H89.9282C40.2657 293.062 9.15527e-05 253.049 9.15527e-05 203.69C9.15527e-05 154.33 40.2657 114.318 89.9282 114.318Z" fill="url(#paint0_linear_2791_62847)"/>
<path d="M423.744 324.996H425V323.745V130.262C425 124.004 419.977 118.997 413.699 118.997H119.301C113.023 118.997 108 124.004 108 130.262V323.745V324.996H109.256H423.744Z" fill="#AAAAAA"/>
<path d="M118 126.997H416V320.997H118V126.997Z" fill="#808080" stroke="#333333"/>
<path d="M77 320.996H457C457 326.519 452.523 330.996 447 330.996H87C81.4772 330.996 77 326.519 77 320.996Z" fill="#AAAAAA" stroke="#333333"/>
<path opacity="0.5" d="M331.611 207.916H185.389C183.525 207.916 182 206.782 182 205.395C182 204.009 183.525 202.875 185.389 202.875H331.611C333.475 202.875 335 204.009 335 205.395C335 206.782 333.475 207.916 331.611 207.916Z" fill="#CCCCCC"/>
<path opacity="0.5" d="M331.611 224.956H185.389C183.525 224.956 182 223.822 182 222.436C182 221.05 183.525 219.916 185.389 219.916H331.611C333.475 219.916 335 221.05 335 222.436C335 223.696 333.475 224.956 331.611 224.956Z" fill="#CCCCCC"/>
<path opacity="0.5" d="M331.611 241.997H185.389C183.525 241.997 182 240.863 182 239.476C182 238.09 183.525 236.956 185.389 236.956H331.611C333.475 236.956 335 238.09 335 239.476C335 240.863 333.475 241.997 331.611 241.997Z" fill="#CCCCCC"/>
<path opacity="0.5" d="M331.611 259.038H185.389C183.525 259.038 182 257.904 182 256.517C182 255.131 183.525 253.997 185.389 253.997H331.611C333.475 253.997 335 255.131 335 256.517C335 257.904 333.475 259.038 331.611 259.038Z" fill="#CCCCCC"/>
<path opacity="0.5" d="M331.611 276.078H185.389C183.525 276.078 182 274.944 182 273.558C182 272.172 183.525 271.038 185.389 271.038H331.611C333.475 271.038 335 272.172 335 273.558C335 274.944 333.475 276.078 331.611 276.078Z" fill="#CCCCCC"/>
<path opacity="0.5" d="M331.611 293.119H185.389C183.525 293.119 182 291.985 182 290.598C182 289.212 183.525 288.078 185.389 288.078H331.611C333.475 288.078 335 289.212 335 290.598C335 291.985 333.475 293.119 331.611 293.119Z" fill="#CCCCCC"/>
<path d="M251.039 91.6969C251.039 85.1795 246.869 79.6414 241.106 77.4971H369.507C377.343 77.4971 383.739 83.8747 383.862 91.7006V259.497H251.039V91.6969Z" fill="#AAAAAA" stroke="#333333"/>
<path d="M238.024 76.9971C231.362 76.9971 226.083 82.1751 226.083 88.4369C226.083 94.3374 230.734 99.2746 236.767 99.8766V99.9971H250.092V88.5573C249.966 82.1751 244.686 76.9971 238.024 76.9971Z" fill="#333333"/>
<path d="M276.087 110.997H268.113C265.283 110.997 263.097 108.683 263.097 105.983V98.0114C263.097 95.1828 265.412 92.9971 268.113 92.9971H276.087C278.917 92.9971 281.104 95.3114 281.104 98.0114V105.983C281.104 108.683 278.788 110.997 276.087 110.997Z" fill="#CCCCCC"/>
<path d="M276.087 141.997H268.113C265.283 141.997 263.097 139.811 263.097 137.261V129.733C263.097 127.061 265.412 124.997 268.113 124.997H276.087C278.917 124.997 281.104 127.183 281.104 129.733V137.261C281.104 139.811 278.788 141.997 276.087 141.997Z" fill="#CCCCCC"/>
<path d="M276.087 172.997H268.113C265.283 172.997 263.097 170.811 263.097 168.261V160.733C263.097 158.061 265.412 155.997 268.113 155.997H276.087C278.917 155.997 281.104 158.183 281.104 160.733V168.261C281.104 170.811 278.788 172.997 276.087 172.997Z" fill="#CCCCCC"/>
<path d="M276.087 204.997H268.113C265.283 204.997 263.097 202.683 263.097 199.983V192.011C263.097 189.183 265.412 186.997 268.113 186.997H276.087C278.917 186.997 281.104 189.311 281.104 192.011V199.983C281.104 202.683 278.788 204.997 276.087 204.997Z" fill="#CCCCCC"/>
<path d="M276.087 235.997H268.113C265.283 235.997 263.097 233.683 263.097 230.983V223.011C263.097 220.183 265.412 217.997 268.113 217.997H276.087C278.917 217.997 281.104 220.311 281.104 223.011V230.983C281.104 233.683 278.788 235.997 276.087 235.997Z" fill="#CCCCCC"/>
<path fill-rule="evenodd" clip-rule="evenodd" d="M285.823 91.3006C286.207 91.6969 286.198 92.33 285.802 92.7146L273.439 104.715C273.052 105.089 272.439 105.091 272.05 104.719L266.406 99.3126C266.008 98.9306 265.994 98.2975 266.376 97.8987C266.758 97.4999 267.391 97.4863 267.79 97.8684L272.738 102.608L284.409 91.2795C284.805 90.8948 285.438 90.9043 285.823 91.3006Z" fill="white"/>
<path fill-rule="evenodd" clip-rule="evenodd" d="M285.823 123.301C286.207 123.697 286.198 124.33 285.802 124.715L273.439 136.715C273.051 137.091 272.434 137.091 272.046 136.715L266.402 131.236C266.005 130.852 265.996 130.219 266.381 129.822C266.765 129.426 267.398 129.417 267.795 129.801L272.742 134.603L284.409 123.28C284.805 122.895 285.438 122.904 285.823 123.301Z" fill="white"/>
<path fill-rule="evenodd" clip-rule="evenodd" d="M285.852 155.332C286.219 155.745 286.182 156.377 285.77 156.744L273.407 167.744C273.03 168.08 272.462 168.082 272.082 167.748L266.438 162.792C266.023 162.428 265.982 161.796 266.347 161.381C266.711 160.966 267.343 160.925 267.758 161.29L272.738 165.662L284.44 155.25C284.853 154.883 285.485 154.92 285.852 155.332Z" fill="white"/>
<path fill-rule="evenodd" clip-rule="evenodd" d="M285.823 186.301C286.207 186.697 286.198 187.33 285.802 187.715L273.439 199.715C273.051 200.091 272.434 200.091 272.046 199.715L266.402 194.236C266.005 193.852 265.996 193.219 266.381 192.822C266.765 192.426 267.398 192.417 267.795 192.801L272.742 197.603L284.409 186.28C284.805 185.895 285.438 185.904 285.823 186.301Z" fill="white"/>
<path fill-rule="evenodd" clip-rule="evenodd" d="M285.823 218.301C286.207 218.697 286.198 219.33 285.802 219.715L273.439 231.715C273.052 232.089 272.439 232.091 272.05 231.719L266.406 226.313C266.008 225.931 265.994 225.298 266.376 224.899C266.758 224.5 267.391 224.486 267.79 224.868L272.738 229.608L284.409 218.28C284.805 217.895 285.438 217.904 285.823 218.301Z" fill="white"/>
<path d="M368.468 99.9971H295.532C294.14 99.9971 293 98.8721 293 97.4971C293 96.1221 294.14 94.9971 295.532 94.9971H368.468C369.86 94.9971 371 96.1221 371 97.4971C371 98.8721 369.86 99.9971 368.468 99.9971Z" fill="#CCCCCC"/>
<path d="M349.435 108.997H295.565C294.154 108.997 293 107.872 293 106.497C293 105.122 294.154 103.997 295.565 103.997H349.435C350.846 103.997 352 105.122 352 106.497C352 107.872 350.846 108.997 349.435 108.997Z" fill="#CCCCCC"/>
<path d="M369.468 131.997H296.532C295.14 131.997 294 130.872 294 129.497C294 128.122 295.14 126.997 296.532 126.997H369.468C370.86 126.997 372 128.122 372 129.497C372 130.872 370.86 131.997 369.468 131.997Z" fill="#CCCCCC"/>
<path d="M348.604 140.997H295.642C294.248 140.997 293.108 139.872 293.108 138.497C293.108 137.122 294.248 135.997 295.642 135.997H348.604C349.998 135.997 351.138 137.122 351.138 138.497C351.138 139.872 349.998 140.997 348.604 140.997Z" fill="#CCCCCC"/>
<path d="M368.604 161.997H295.642C294.248 161.997 293.108 160.872 293.108 159.497C293.108 158.122 294.248 156.997 295.642 156.997H368.604C369.998 156.997 371.138 158.122 371.138 159.497C371.138 160.872 369.998 161.997 368.604 161.997Z" fill="#CCCCCC"/>
<path d="M358.604 170.497H295.642C294.248 170.497 293.108 169.372 293.108 167.997C293.108 166.622 294.248 165.497 295.642 165.497H358.604C359.998 165.497 361.138 166.622 361.138 167.997C361.138 169.372 359.998 170.497 358.604 170.497Z" fill="#CCCCCC"/>
<path d="M368.604 193.997H295.642C294.248 193.997 293.108 192.872 293.108 191.497C293.108 190.122 294.248 188.997 295.642 188.997H368.604C369.998 188.997 371.138 190.122 371.138 191.497C371.138 192.872 369.998 193.997 368.604 193.997Z" fill="#CCCCCC"/>
<path d="M337.468 202.997H294.532C293.139 202.997 292 201.872 292 200.497C292 199.122 293.139 197.997 294.532 197.997H337.468C338.861 197.997 340 199.122 340 200.497C340 201.872 338.861 202.997 337.468 202.997Z" fill="#CCCCCC"/>
<path d="M368.604 224.997H295.642C294.248 224.997 293.108 223.872 293.108 222.497C293.108 221.122 294.248 219.997 295.642 219.997H368.604C369.998 219.997 371.138 221.122 371.138 222.497C371.138 223.872 369.998 224.997 368.604 224.997Z" fill="#CCCCCC"/>
<path d="M368.604 233.997H295.642C294.248 233.997 293.108 232.872 293.108 231.497C293.108 230.122 294.248 228.997 295.642 228.997H368.604C369.998 228.997 371.138 230.122 371.138 231.497C371.138 232.872 369.998 233.997 368.604 233.997Z" fill="#CCCCCC"/>
<path opacity="0.5" d="M201.208 181.088L187 174.762V172.738L201.208 165.654V169.069L191.401 173.624L201.208 177.672V181.088Z" fill="#BABABA"/>
<path opacity="0.5" d="M214.409 162.997L206.614 183.997H202.716L210.386 162.997H214.409Z" fill="#BABABA"/>
<path opacity="0.5" d="M215.792 177.672L225.599 173.624L215.792 169.069V165.654L230 172.738V174.762L215.792 181.088V177.672Z" fill="#BABABA"/>
<path d="M138.696 146.96H122.869L127.315 135.787L127.487 135.355L127.069 135.152C124.478 133.892 122.632 131.191 122.632 128.142C122.632 123.841 126.327 120.227 130.782 120.227C135.238 120.227 138.933 123.841 138.933 128.142C138.933 131.191 137.087 133.892 134.496 135.152L134.078 135.355L134.25 135.787L138.696 146.96ZM156.735 104.69H154.679V92.9491C154.679 80.0365 143.825 69.4971 130.586 69.4971C117.347 69.4971 106.493 80.0365 106.493 92.9491V104.69H104.437C98.8588 104.69 94.5 109.116 94.5 114.371V153.39C94.5 158.85 99.0692 163.07 104.437 163.07H156.538C162.116 163.07 166.475 158.645 166.475 153.39V114.39C166.882 108.895 162.276 104.69 156.735 104.69ZM146.797 104.69H114.767V92.9491C114.767 84.4399 122.002 77.3827 130.782 77.3827C139.563 77.3827 146.797 84.4399 146.797 92.9491V104.69Z" fill="url(#paint1_linear_2791_62847)" stroke="#333333"/>
<path d="M150.345 269.053L99.8775 218.604L82.081 236.394L132.549 286.843L150.345 269.053Z" fill="#333333"/>
<path fill-rule="evenodd" clip-rule="evenodd" d="M99.5239 218.251C99.7192 218.056 100.036 218.056 100.231 218.251L150.699 268.699C150.894 268.895 150.894 269.211 150.699 269.406L132.902 287.196C132.707 287.391 132.39 287.391 132.195 287.196L81.7274 236.748C81.5321 236.552 81.5321 236.236 81.7274 236.041L99.5239 218.251ZM99.8775 219.311L82.7882 236.394L132.549 286.136L149.638 269.053L99.8775 219.311Z" fill="#808080"/>
<path fill-rule="evenodd" clip-rule="evenodd" d="M95.0524 222.742C95.2477 222.547 95.5643 222.547 95.7596 222.742L146.221 273.185C146.417 273.38 146.417 273.696 146.222 273.892C146.026 274.087 145.71 274.087 145.514 273.892L95.0526 223.449C94.8573 223.254 94.8572 222.938 95.0524 222.742Z" fill="#808080"/>
<path fill-rule="evenodd" clip-rule="evenodd" d="M86.2874 231.504C86.4826 231.309 86.7992 231.309 86.9945 231.504L137.456 281.947C137.652 282.142 137.652 282.459 137.456 282.654C137.261 282.849 136.945 282.849 136.749 282.654L86.2875 232.212C86.0922 232.016 86.0921 231.7 86.2874 231.504Z" fill="#808080"/>
<path d="M155.51 292.064L150.251 269.033L132.47 286.807L155.51 292.064Z" fill="#333333"/>
<path fill-rule="evenodd" clip-rule="evenodd" d="M150.389 268.552C150.564 268.603 150.698 268.744 150.738 268.921L155.997 291.952C156.035 292.12 155.985 292.295 155.863 292.417C155.742 292.539 155.566 292.589 155.398 292.551L132.359 287.294C132.181 287.254 132.04 287.12 131.99 286.945C131.939 286.77 131.988 286.582 132.117 286.453L149.897 268.679C150.026 268.55 150.214 268.502 150.389 268.552ZM133.464 286.52L154.845 291.399L149.965 270.026L133.464 286.52Z" fill="#808080"/>
<path d="M154.859 291.549L153.02 283.549L146.856 289.711L154.859 291.549Z" fill="#CCCCCC"/>
<path d="M78.0012 232.358L82.0081 236.364L99.7887 218.59L95.7818 214.585C93.1523 211.956 88.8949 211.956 86.1402 214.585L78.0012 222.721C75.3717 225.349 75.3717 229.73 78.0012 232.358Z" fill="#CCCCCC"/>
<path fill-rule="evenodd" clip-rule="evenodd" d="M85.795 214.223C88.7383 211.414 93.3061 211.403 96.1353 214.231L100.142 218.236C100.236 218.33 100.289 218.457 100.289 218.59C100.289 218.723 100.236 218.85 100.142 218.944L82.3616 236.717C82.1663 236.913 81.8499 236.913 81.6546 236.717L77.6477 232.712C74.8228 229.888 74.8228 225.191 77.6477 222.367L85.795 214.223ZM86.4895 214.942L78.3547 223.074C75.9205 225.507 75.9205 229.572 78.3547 232.005L82.0081 235.657L99.0814 218.59L95.4283 214.938C92.9997 212.511 89.0558 212.498 86.4895 214.942Z" fill="#808080"/>
<path d="M406.985 264.611L406.631 264.32L406.311 264.647L406.311 264.647L406.311 264.647L406.31 264.648L406.305 264.653L406.284 264.674C406.264 264.693 406.234 264.723 406.195 264.761C406.115 264.839 405.995 264.954 405.834 265.103C405.514 265.401 405.033 265.833 404.399 266.364C403.129 267.427 401.244 268.886 398.79 270.464C393.881 273.621 386.701 277.251 377.619 279.139L377.61 279.141L377.6 279.144C374.551 279.898 371.464 280.352 368.446 280.357L367.775 280.358L367.968 281.001C368.932 284.213 369.671 287.283 370.27 290.222C371.162 294.608 371.741 298.703 372.287 302.562C373.557 311.548 374.8 319.624 379.388 326.698C383.988 333.79 391.902 339.812 406.372 344.843L406.541 344.902L406.71 344.84C421.462 339.386 429.392 333.528 433.983 326.533C438.551 319.573 439.763 311.548 441.216 301.922L441.226 301.854C441.779 298.194 442.368 294.294 443.187 290.109C443.762 287.17 444.45 284.091 445.319 280.858L445.488 280.227L444.835 280.229C441.768 280.234 438.69 279.821 435.683 279.124C428.007 277.344 420.832 273.719 415.567 270.529C412.936 268.935 410.788 267.453 409.298 266.371C408.553 265.829 407.973 265.388 407.581 265.083C407.384 264.93 407.234 264.811 407.134 264.731C407.084 264.691 407.046 264.661 407.021 264.641L406.993 264.618L406.987 264.612L406.985 264.611L406.985 264.611Z" fill="url(#paint2_linear_2791_62847)" stroke="#333333"/>
<path fill-rule="evenodd" clip-rule="evenodd" d="M419.203 295.539C420.216 296.627 420.188 298.362 419.14 299.414L404.589 314.028C403.566 315.055 401.943 315.055 400.92 314.028L392.605 305.677C391.558 304.625 391.53 302.89 392.543 301.802C393.556 300.714 395.226 300.685 396.274 301.737L402.755 308.246L415.472 295.474C416.519 294.422 418.19 294.451 419.203 295.539Z" fill="white"/>
<defs>
<linearGradient id="paint0_linear_2791_62847" x1="237" y1="-0.00292969" x2="237.091" y2="246.997" gradientUnits="userSpaceOnUse">
<stop stop-color="#4B4B4B"/>
<stop offset="1" stop-color="#333333"/>
</linearGradient>
<linearGradient id="paint1_linear_2791_62847" x1="95.0001" y1="66.3809" x2="185.305" y2="138.346" gradientUnits="userSpaceOnUse">
<stop stop-color="#FFC671"/>
<stop offset="0.59375" stop-color="#FF7541"/>
<stop offset="1" stop-color="#FF6F3D"/>
</linearGradient>
<linearGradient id="paint2_linear_2791_62847" x1="368.447" y1="261.897" x2="447.879" y2="341.328" gradientUnits="userSpaceOnUse">
<stop stop-color="#FFC671"/>
<stop offset="0.59375" stop-color="#FF7541"/>
<stop offset="1" stop-color="#FF6F3D"/>
</linearGradient>
</defs>
</svg>
