<svg width="196" height="160" viewBox="0 0 196 160" fill="none" xmlns="http://www.w3.org/2000/svg">
<path d="M188.614 0C190.535 0 192.243 1.17805 193.738 3.53414C195.232 5.67604 196.087 7.81794 196.3 9.95984C196.3 11.6734 195.66 13.0656 194.378 14.1365C180.5 24.4177 170.572 33.4137 164.594 41.1245C158.616 48.8353 155.627 57.6171 155.627 67.4699C155.627 73.253 157.228 77.9652 160.431 81.6064C163.633 85.0335 168.864 88.1392 176.124 90.9237C189.575 96.4926 196.3 107.309 196.3 123.373C196.3 133.655 192.884 142.329 186.052 149.398C179.219 156.466 169.291 160 156.267 160C141.962 160 130.54 154.752 121.999 144.257C113.459 133.762 109.189 120.589 109.189 104.739C109.189 86.5328 113.673 69.6118 122.64 53.9759C131.607 38.34 143.777 25.4886 159.15 15.4217C174.522 5.14056 184.344 0 188.614 0ZM79.7249 0C81.6465 0 83.3545 1.17805 84.8491 3.53414C86.3436 5.67604 87.1976 7.81794 87.4112 9.95984C87.4112 11.6734 86.7706 13.0656 85.4896 14.1365C71.6116 24.4177 61.6835 33.4137 55.7053 41.1245C49.7271 48.8353 46.738 57.6171 46.738 67.4699C46.738 73.253 48.3393 77.9652 51.5419 81.6064C54.7445 85.0335 59.9754 88.1392 67.2347 90.9237C80.6857 96.4926 87.4112 107.309 87.4112 123.373C87.4112 133.655 83.995 142.329 77.1628 149.398C70.3305 156.466 60.4024 160 47.3785 160C33.0735 160 21.6508 154.752 13.1105 144.257C4.5702 133.762 0.300049 120.589 0.300049 104.739C0.300049 86.5328 4.78371 69.6118 13.751 53.9759C22.7183 38.34 34.8883 25.4886 50.2608 15.4217C65.6334 5.14056 75.4547 0 79.7249 0Z" fill="#F5F5F5"/>
</svg>
