<svg width="449" height="254" viewBox="0 0 449 254" fill="none" xmlns="http://www.w3.org/2000/svg">
<path d="M222.931 253.553C333.182 253.553 422.558 251.414 422.558 248.776C422.558 246.138 333.182 244 222.931 244C112.679 244 23.3027 246.138 23.3027 248.776C23.3027 251.414 112.679 253.553 222.931 253.553Z" fill="#EFEFEF"/>
<path d="M307.995 15.9962H308V15.4962C308 11.0438 304.481 7.5 300.044 7.5H14.9555C10.5238 7.5 7 11.0436 7 15.4962V188V188.5H7.5H307.495H307.995V188V15.9962Z" fill="#AAAAAA" stroke="#333333"/>
<path d="M14 181.5V14.5H301V181.5H14Z" fill="white" stroke="#333333"/>
<path d="M194.5 248.5H195.061L194.997 247.943L191.331 215.943L191.28 215.5H190.834H122.9H122.464L122.405 215.932L118.005 247.932L117.927 248.5H118.5H194.5Z" fill="#CCCCCC" stroke="#333333"/>
<path d="M7 208.442V188.5H308V208.442C308 212.382 304.896 215.5 300.995 215.5H14.0054C10.0991 215.5 7 212.383 7 208.442Z" fill="#E2E2E2" stroke="#333333"/>
<path d="M107.833 251.5L117.606 248.5H195.394L205.167 251.5H107.833Z" fill="#E2E2E2" stroke="#333333"/>
<path d="M207.781 252.5L207.409 253.5H105.486L105.177 252.5H207.781Z" fill="#AAAAAA" stroke="#333333"/>
<path d="M163 201.497C163 204.26 160.759 206.5 158 206.5C155.241 206.5 153 204.26 153 201.497C153 198.74 155.24 196.5 158 196.5C160.76 196.5 163 198.735 163 201.497Z" fill="#AAAAAA" stroke="#333333"/>
<path fill-rule="evenodd" clip-rule="evenodd" d="M339.38 77.7538C339.914 77.7538 340.351 77.317 340.351 76.7841C340.351 76.2513 339.914 75.8145 339.38 75.8145C338.847 75.8145 338.41 76.2513 338.41 76.7841C338.415 77.3218 338.847 77.7538 339.38 77.7538Z" fill="#FEFEFE"/>
<path fill-rule="evenodd" clip-rule="evenodd" d="M14.5 181H224.5V15H14.5V181Z" fill="#020202"/>
<path d="M255.769 32.5308L255.251 30.8315H252.648L252.131 32.5308H250.5L253.02 25.3628H254.87L257.399 32.5308H255.769ZM254.89 29.562L254.372 27.9019C254.34 27.7912 254.296 27.6496 254.24 27.4771C254.188 27.3013 254.134 27.1239 254.079 26.9448C254.027 26.7625 253.985 26.6047 253.952 26.4712C253.92 26.6047 253.874 26.7707 253.815 26.9692C253.76 27.1646 253.706 27.3501 253.654 27.5259C253.602 27.7017 253.565 27.827 253.542 27.9019L253.029 29.562H254.89ZM261.023 26.9692C261.638 26.9692 262.134 27.2085 262.512 27.687C262.893 28.1655 263.083 28.867 263.083 29.7915C263.083 30.41 262.994 30.9308 262.815 31.354C262.636 31.7739 262.388 32.0913 262.072 32.3062C261.757 32.521 261.394 32.6284 260.984 32.6284C260.72 32.6284 260.494 32.5959 260.305 32.5308C260.116 32.4624 259.955 32.3761 259.821 32.272C259.688 32.1646 259.572 32.0506 259.475 31.9302H259.397C259.423 32.0604 259.442 32.1938 259.455 32.3306C259.468 32.4673 259.475 32.6007 259.475 32.731V34.9331H257.986V27.0718H259.196L259.406 27.7798H259.475C259.572 27.6333 259.691 27.4982 259.831 27.3745C259.971 27.2508 260.139 27.1532 260.334 27.0815C260.533 27.0067 260.762 26.9692 261.023 26.9692ZM260.544 28.1606C260.284 28.1606 260.077 28.2144 259.924 28.3218C259.771 28.4292 259.659 28.5903 259.587 28.8052C259.519 29.02 259.481 29.2918 259.475 29.6206V29.7817C259.475 30.1333 259.507 30.4312 259.572 30.6753C259.641 30.9194 259.753 31.105 259.909 31.2319C260.069 31.3589 260.287 31.4224 260.564 31.4224C260.792 31.4224 260.979 31.3589 261.125 31.2319C261.272 31.105 261.381 30.9194 261.452 30.6753C261.527 30.4279 261.565 30.1268 261.565 29.772C261.565 29.2381 261.482 28.8361 261.316 28.5659C261.15 28.2957 260.892 28.1606 260.544 28.1606ZM267.151 26.9692C267.766 26.9692 268.262 27.2085 268.64 27.687C269.021 28.1655 269.211 28.867 269.211 29.7915C269.211 30.41 269.122 30.9308 268.943 31.354C268.764 31.7739 268.516 32.0913 268.201 32.3062C267.885 32.521 267.522 32.6284 267.112 32.6284C266.848 32.6284 266.622 32.5959 266.433 32.5308C266.244 32.4624 266.083 32.3761 265.95 32.272C265.816 32.1646 265.701 32.0506 265.603 31.9302H265.525C265.551 32.0604 265.57 32.1938 265.583 32.3306C265.596 32.4673 265.603 32.6007 265.603 32.731V34.9331H264.114V27.0718H265.325L265.535 27.7798H265.603C265.701 27.6333 265.819 27.4982 265.959 27.3745C266.099 27.2508 266.267 27.1532 266.462 27.0815C266.661 27.0067 266.89 26.9692 267.151 26.9692ZM266.672 28.1606C266.412 28.1606 266.205 28.2144 266.052 28.3218C265.899 28.4292 265.787 28.5903 265.715 28.8052C265.647 29.02 265.609 29.2918 265.603 29.6206V29.7817C265.603 30.1333 265.635 30.4312 265.701 30.6753C265.769 30.9194 265.881 31.105 266.038 31.2319C266.197 31.3589 266.415 31.4224 266.692 31.4224C266.92 31.4224 267.107 31.3589 267.253 31.2319C267.4 31.105 267.509 30.9194 267.58 30.6753C267.655 30.4279 267.693 30.1268 267.693 29.772C267.693 29.2381 267.61 28.8361 267.444 28.5659C267.278 28.2957 267.021 28.1606 266.672 28.1606ZM274.05 30.9097C274.05 31.2808 273.962 31.5949 273.787 31.8521C273.614 32.106 273.355 32.2996 273.01 32.4331C272.665 32.5633 272.236 32.6284 271.721 32.6284C271.34 32.6284 271.013 32.604 270.74 32.5552C270.47 32.5063 270.196 32.425 269.92 32.311V31.0806C270.216 31.214 270.533 31.3247 270.872 31.4126C271.213 31.4972 271.513 31.5396 271.77 31.5396C272.06 31.5396 272.267 31.4972 272.39 31.4126C272.517 31.3247 272.581 31.2108 272.581 31.0708C272.581 30.9797 272.555 30.8983 272.503 30.8267C272.454 30.7518 272.346 30.6688 272.18 30.5776C272.014 30.4832 271.754 30.3612 271.399 30.2114C271.057 30.0682 270.776 29.9233 270.554 29.7769C270.336 29.6304 270.173 29.4578 270.066 29.2593C269.962 29.0575 269.91 28.8019 269.91 28.4927C269.91 27.9881 270.105 27.6089 270.496 27.355C270.89 27.0978 271.415 26.9692 272.073 26.9692C272.411 26.9692 272.734 27.0034 273.04 27.0718C273.349 27.1401 273.666 27.2492 273.992 27.3989L273.543 28.4731C273.272 28.356 273.017 28.2599 272.776 28.1851C272.538 28.1102 272.296 28.0728 272.048 28.0728C271.83 28.0728 271.666 28.1021 271.555 28.1606C271.445 28.2192 271.389 28.3088 271.389 28.4292C271.389 28.5171 271.417 28.5952 271.472 28.6636C271.531 28.7319 271.642 28.8084 271.804 28.8931C271.97 28.9744 272.213 29.0802 272.532 29.2104C272.841 29.3374 273.11 29.4709 273.337 29.6108C273.565 29.7476 273.741 29.9185 273.865 30.1235C273.989 30.3254 274.05 30.5874 274.05 30.9097Z" fill="#131619"/>
<path fill-rule="evenodd" clip-rule="evenodd" d="M14.5 153.531H224.5V40.2808H14.5V153.531Z" fill="#383838"/>
<g style="mix-blend-mode:difference">
<path d="M119.048 101.104C111.614 101.104 106.865 103.604 103.969 106.143C100.788 108.932 101.713 113.689 105.658 115.169C109.715 116.691 115.017 117.484 120.162 117.487C125.3 117.49 130.35 116.705 133.885 115.021C137.085 113.495 137.415 109.5 135.027 107.044C132.296 104.236 127.372 101.104 119.048 101.104Z" fill="#BDECFF" stroke="#333333"/>
<path d="M115.303 98.1011H114.803V98.6011V106.037V106.263L114.972 106.412L119.135 110.077L119.465 110.368L119.796 110.077L123.958 106.412L124.128 106.263V106.037V98.6011V98.1011H123.628H115.303Z" fill="white" stroke="#333333"/>
<path fill-rule="evenodd" clip-rule="evenodd" d="M129.177 91.6635C129.177 96.972 124.884 101.376 119.465 101.376C114.041 101.376 109.752 97.0844 109.752 91.6635C109.752 86.2425 114.045 81.9507 119.465 81.9507C124.884 81.9507 129.177 86.3549 129.177 91.6635Z" fill="white" stroke="#333333"/>
<path d="M119.793 85.2553C120.59 86.6553 121.55 88.1715 122.755 89.4209C124.264 90.985 126.188 92.1633 128.688 92.1633H129.17L129.187 91.6817C129.295 88.7602 127.949 86.3054 126.06 84.5933C124.179 82.8882 121.721 81.8838 119.524 81.8838C113.951 81.8838 109.803 86.3104 109.803 91.6633V92.2352L110.37 92.1588C115.006 91.5339 118.323 89.0586 119.793 85.2553Z" fill="#AAAAAA" stroke="#333333"/>
</g>
<rect x="176.5" y="40.0308" width="235" height="185" rx="7.5" fill="white"/>
<rect x="176.5" y="40.0308" width="235" height="185" rx="7.5" stroke="#CCCCCC"/>
<mask id="mask0_6001_73388" style="mask-type:alpha" maskUnits="userSpaceOnUse" x="197" y="62" width="14" height="15">
<path fill-rule="evenodd" clip-rule="evenodd" d="M205.726 64.5711C205.742 64.4767 205.75 64.3797 205.75 64.2808C205.75 63.3143 204.966 62.5308 204 62.5308C203.034 62.5308 202.25 63.3143 202.25 64.2808C202.25 64.3797 202.258 64.4767 202.274 64.5711C200.763 65.0969 199.566 66.2937 199.04 67.8047C198.946 67.789 198.849 67.7808 198.75 67.7808C197.784 67.7808 197 68.5643 197 69.5308C197 70.4973 197.784 71.2808 198.75 71.2808C198.849 71.2808 198.946 71.2726 199.04 71.2568C199.566 72.7679 200.763 73.9647 202.274 74.4905C202.258 74.5849 202.25 74.6819 202.25 74.7808C202.25 75.7473 203.034 76.5308 204 76.5308C204.966 76.5308 205.75 75.7473 205.75 74.7808C205.75 74.6819 205.742 74.5849 205.726 74.4904C207.237 73.9646 208.434 72.7678 208.96 71.2568C209.054 71.2726 209.151 71.2808 209.25 71.2808C210.216 71.2808 211 70.4973 211 69.5308C211 68.5643 210.216 67.7808 209.25 67.7808C209.151 67.7808 209.054 67.789 208.96 67.8047C208.434 66.2938 207.237 65.0969 205.726 64.5711ZM204 65.1558C204.483 65.1558 204.875 64.764 204.875 64.2808C204.875 63.7975 204.483 63.4058 204 63.4058C203.517 63.4058 203.125 63.7975 203.125 64.2808C203.125 64.764 203.517 65.1558 204 65.1558ZM205.367 65.3736C205.046 65.7742 204.553 66.0308 204 66.0308C203.447 66.0308 202.954 65.7742 202.633 65.3735C201.316 65.8062 200.275 66.847 199.843 68.1638C200.243 68.4845 200.5 68.9776 200.5 69.5308C200.5 70.0839 200.243 70.5771 199.843 70.8978C200.275 72.2145 201.316 73.2553 202.633 73.688C202.954 73.2874 203.447 73.0308 204 73.0308C204.553 73.0308 205.046 73.2873 205.367 73.688C206.684 73.2552 207.724 72.2144 208.157 70.8977C207.757 70.577 207.5 70.0838 207.5 69.5308C207.5 68.9777 207.757 68.4846 208.157 68.1639C207.724 66.8471 206.684 65.8063 205.367 65.3736ZM198.75 70.4058C199.233 70.4058 199.625 70.014 199.625 69.5308C199.625 69.0475 199.233 68.6558 198.75 68.6558C198.267 68.6558 197.875 69.0475 197.875 69.5308C197.875 70.014 198.267 70.4058 198.75 70.4058ZM210.125 69.5308C210.125 70.014 209.733 70.4058 209.25 70.4058C208.767 70.4058 208.375 70.014 208.375 69.5308C208.375 69.0475 208.767 68.6558 209.25 68.6558C209.733 68.6558 210.125 69.0475 210.125 69.5308ZM204 75.6558C204.483 75.6558 204.875 75.264 204.875 74.7808C204.875 74.2975 204.483 73.9058 204 73.9058C203.517 73.9058 203.125 74.2975 203.125 74.7808C203.125 75.264 203.517 75.6558 204 75.6558Z" fill="#000001"/>
</mask>
<g mask="url(#mask0_6001_73388)">
<rect width="14" height="14" transform="translate(197 62.5308)" fill="#131619"/>
</g>
<path d="M220.515 74.7837C217.657 74.7837 215.887 72.8081 215.887 69.5952C215.887 66.3892 217.65 64.4136 220.515 64.4136C222.853 64.4136 224.644 65.9653 224.794 68.1118H222.784C222.586 66.9771 221.69 66.2319 220.515 66.2319C218.963 66.2319 217.999 67.5171 217.999 69.5952C217.999 71.6733 218.963 72.9653 220.521 72.9653C221.704 72.9653 222.593 72.2681 222.791 71.1812H224.801C224.63 73.314 222.894 74.7837 220.515 74.7837ZM229.846 74.6948C227.528 74.6948 226.134 73.2251 226.134 70.7573C226.134 68.3169 227.549 66.8267 229.846 66.8267C232.143 66.8267 233.558 68.3101 233.558 70.7573C233.558 73.2251 232.163 74.6948 229.846 74.6948ZM229.846 73.0679C230.905 73.0679 231.514 72.2202 231.514 70.7573C231.514 69.3081 230.898 68.4536 229.846 68.4536C228.786 68.4536 228.178 69.3081 228.178 70.7573C228.178 72.2271 228.779 73.0679 229.846 73.0679ZM235.253 74.5308V64.1128H237.242V74.5308H235.253ZM239.382 74.5308V64.1128H241.371V74.5308H239.382ZM246.163 73.1499C247.086 73.1499 247.783 72.562 247.783 71.7964V71.2427L246.259 71.3384C245.404 71.3999 244.987 71.7075 244.987 72.2476C244.987 72.8081 245.473 73.1499 246.163 73.1499ZM245.507 74.647C244.058 74.647 243.039 73.7583 243.039 72.3774C243.039 71.0103 244.085 70.2173 245.958 70.1079L247.783 69.9985V69.3833C247.783 68.7544 247.332 68.3989 246.512 68.3989C245.794 68.3989 245.315 68.645 245.151 69.0962H243.319C243.449 67.7017 244.728 66.8267 246.621 66.8267C248.617 66.8267 249.745 67.77 249.745 69.3833V74.5308H247.817V73.5464H247.694C247.305 74.2368 246.484 74.647 245.507 74.647ZM256.144 74.647C255.077 74.647 254.223 74.1685 253.819 73.3481H253.696V74.5308H251.769V64.1128H253.758V68.1938H253.881C254.264 67.3667 255.111 66.8677 256.144 66.8677C258.051 66.8677 259.199 68.3237 259.199 70.7573C259.199 73.1772 258.037 74.647 256.144 74.647ZM255.453 68.5356C254.407 68.5356 253.744 69.3901 253.737 70.7642C253.744 72.1313 254.4 72.9858 255.453 72.9858C256.513 72.9858 257.155 72.1382 257.155 70.7573C257.155 69.3833 256.506 68.5356 255.453 68.5356ZM264.162 74.6948C261.845 74.6948 260.45 73.2251 260.45 70.7573C260.45 68.3169 261.865 66.8267 264.162 66.8267C266.459 66.8267 267.874 68.3101 267.874 70.7573C267.874 73.2251 266.479 74.6948 264.162 74.6948ZM264.162 73.0679C265.222 73.0679 265.83 72.2202 265.83 70.7573C265.83 69.3081 265.215 68.4536 264.162 68.4536C263.103 68.4536 262.494 69.3081 262.494 70.7573C262.494 72.2271 263.096 73.0679 264.162 73.0679ZM269.501 74.5308V66.9907H271.429V68.1938H271.552C271.75 67.4419 272.529 66.8677 273.486 66.8677C273.76 66.8677 274.095 66.9019 274.266 66.9634V68.7749C274.108 68.7134 273.644 68.6519 273.322 68.6519C272.235 68.6519 271.49 69.2944 271.49 70.354V74.5308H269.501ZM278.183 73.1499C279.105 73.1499 279.803 72.562 279.803 71.7964V71.2427L278.278 71.3384C277.424 71.3999 277.007 71.7075 277.007 72.2476C277.007 72.8081 277.492 73.1499 278.183 73.1499ZM277.526 74.647C276.077 74.647 275.059 73.7583 275.059 72.3774C275.059 71.0103 276.104 70.2173 277.978 70.1079L279.803 69.9985V69.3833C279.803 68.7544 279.352 68.3989 278.531 68.3989C277.813 68.3989 277.335 68.645 277.171 69.0962H275.339C275.469 67.7017 276.747 66.8267 278.641 66.8267C280.637 66.8267 281.765 67.77 281.765 69.3833V74.5308H279.837V73.5464H279.714C279.324 74.2368 278.504 74.647 277.526 74.647ZM284.287 65.1997H286.276V67.0659H287.842V68.6313H286.276V72.022C286.276 72.6782 286.577 72.979 287.254 72.979C287.514 72.979 287.65 72.9722 287.842 72.9517V74.4692C287.596 74.5171 287.227 74.5581 286.844 74.5581C285.012 74.5581 284.287 73.9634 284.287 72.4937V68.6313H283.111V67.0659H284.287V65.1997ZM292.709 68.3511C291.786 68.3511 291.137 68.9937 291.068 69.9712H294.281C294.24 68.9731 293.639 68.3511 292.709 68.3511ZM294.322 72.3843H296.175C295.874 73.8062 294.575 74.6948 292.729 74.6948C290.433 74.6948 289.079 73.2456 289.079 70.7983C289.079 68.3442 290.46 66.8267 292.702 66.8267C294.924 66.8267 296.236 68.2417 296.236 70.6343V71.2427H291.062V71.3452C291.089 72.4663 291.745 73.1636 292.784 73.1636C293.57 73.1636 294.11 72.8833 294.322 72.3843Z" fill="#131619"/>
<g clip-path="url(#clip0_6001_73388)">
<g clip-path="url(#clip1_6001_73388)">
<path d="M199 122.531H210L215 127.531V140.531H199V122.531Z" fill="white"/>
<path fill-rule="evenodd" clip-rule="evenodd" d="M199 133.531H206.5H215V127.531L210 122.531H199V133.531ZM210.594 121.531H198V134.531H216V127.031L210.594 121.531Z" fill="#808080"/>
<path fill-rule="evenodd" clip-rule="evenodd" d="M198 134.531C198 133.978 198.448 133.531 199 133.531H215C215.552 133.531 216 133.978 216 134.531V141.531C216 142.083 215.552 142.531 215 142.531H199C198.448 142.531 198 142.083 198 141.531V134.531Z" fill="#1E7AAA"/>
<path d="M209 128.531V122.531H210V127.531H215V128.531H209Z" fill="#808080"/>
</g>
</g>
<rect x="229" y="129.531" width="129" height="4" rx="2" fill="#E2E2E2"/>
<g clip-path="url(#clip2_6001_73388)">
<g clip-path="url(#clip3_6001_73388)">
<path d="M199 152.531H210L215 157.531V170.531H199V152.531Z" fill="white"/>
<path fill-rule="evenodd" clip-rule="evenodd" d="M199 163.531H206.5H215V157.531L210 152.531H199V163.531ZM210.594 151.531H198V164.531H216V157.031L210.594 151.531Z" fill="#808080"/>
<path fill-rule="evenodd" clip-rule="evenodd" d="M198 164.531C198 163.978 198.448 163.531 199 163.531H215C215.552 163.531 216 163.978 216 164.531V171.531C216 172.083 215.552 172.531 215 172.531H199C198.448 172.531 198 172.083 198 171.531V164.531Z" fill="#6AAA1E"/>
<path d="M209 158.531V152.531H210V157.531H215V158.531H209Z" fill="#808080"/>
</g>
</g>
<rect x="229" y="159.531" width="129" height="4" rx="2" fill="#E2E2E2"/>
<g clip-path="url(#clip4_6001_73388)">
<g clip-path="url(#clip5_6001_73388)">
<path d="M199 182.531H210L215 187.531V200.531H199V182.531Z" fill="white"/>
<path fill-rule="evenodd" clip-rule="evenodd" d="M199 193.531H206.5H215V187.531L210 182.531H199V193.531ZM210.594 181.531H198V194.531H216V187.031L210.594 181.531Z" fill="#808080"/>
<path fill-rule="evenodd" clip-rule="evenodd" d="M198 194.531C198 193.978 198.448 193.531 199 193.531H215C215.552 193.531 216 193.978 216 194.531V201.531C216 202.083 215.552 202.531 215 202.531H199C198.448 202.531 198 202.083 198 201.531V194.531Z" fill="#F36700"/>
<path d="M209 188.531V182.531H210V187.531H215V188.531H209Z" fill="#808080"/>
</g>
</g>
<rect x="229" y="189.531" width="129" height="4" rx="2" fill="#E2E2E2"/>
<rect x="197.5" y="91.0308" width="195" height="15" rx="2.5" stroke="#E2E2E2"/>
<defs>
<clipPath id="clip0_6001_73388">
<rect width="24" height="24" fill="white" transform="translate(195 119.531)"/>
</clipPath>
<clipPath id="clip1_6001_73388">
<rect width="24" height="24" fill="white" transform="translate(195 119.531)"/>
</clipPath>
<clipPath id="clip2_6001_73388">
<rect width="24" height="24" fill="white" transform="translate(195 149.531)"/>
</clipPath>
<clipPath id="clip3_6001_73388">
<rect width="24" height="24" fill="white" transform="translate(195 149.531)"/>
</clipPath>
<clipPath id="clip4_6001_73388">
<rect width="24" height="24" fill="white" transform="translate(195 179.531)"/>
</clipPath>
<clipPath id="clip5_6001_73388">
<rect width="24" height="24" fill="white" transform="translate(195 179.531)"/>
</clipPath>
</defs>
</svg>
