<svg width="544" height="320" viewBox="0 0 544 320" fill="none" xmlns="http://www.w3.org/2000/svg">
<g opacity="0.3">
<g opacity="0.3">
<path opacity="0.3" d="M24.7 74.1326C24.7 74.7326 24.2 75.3326 23.5 75.3326C22.9 75.3326 22.3 74.8326 22.3 74.1326C22.3 73.5326 22.8 72.9326 23.5 72.9326C24.1 72.9326 24.7 73.4326 24.7 74.1326Z" fill="#E1E1E1"/>
</g>
</g>
<g opacity="0.3">
<g opacity="0.3">
<path opacity="0.3" d="M27.5 75.3326C28.1628 75.3326 28.7 74.7954 28.7 74.1326C28.7 73.4699 28.1628 72.9326 27.5 72.9326C26.8373 72.9326 26.3 73.4699 26.3 74.1326C26.3 74.7954 26.8373 75.3326 27.5 75.3326Z" fill="#E1E1E1"/>
</g>
</g>
<g opacity="0.3">
<g opacity="0.3">
<path opacity="0.3" d="M32.6001 74.1326C32.6001 74.7326 32.1001 75.3326 31.4001 75.3326C30.8001 75.3326 30.2001 74.8326 30.2001 74.1326C30.2001 73.5326 30.7001 72.9326 31.4001 72.9326C32.1001 72.9326 32.6001 73.4326 32.6001 74.1326Z" fill="#E1E1E1"/>
</g>
</g>
<path d="M118.7 140.42H100.4V158.617H118.7V140.42Z" fill="#E1E1E1"/>
<path d="M152 140.42H133.7V158.617H152V140.42Z" fill="#E1E1E1"/>
<path fill-rule="evenodd" clip-rule="evenodd" d="M517.7 107.027C516.7 108.326 515.6 109.526 514.3 110.526L515.2 114.925L508.3 117.925L505.6 114.325C504 114.625 502.4 114.625 500.7 114.425L498.2 118.125L491.2 115.425L491.9 110.926C490.6 109.926 489.4 108.826 488.3 107.526L483.8 108.426L480.8 101.628L484.4 98.928C484.1 97.3283 484.1 95.7286 484.3 94.0289L480.5 91.5294L483.2 84.5307L487.7 85.2305C488.7 83.9308 489.8 82.731 491.1 81.7312L490.2 77.332L497.1 74.3325L499.8 77.9319C501.4 77.6319 503 77.6319 504.7 77.8319L507.2 74.1326L514.2 76.8321L513.5 81.3312C514.8 82.3311 516 83.4309 517.1 84.7306L521.6 83.8308L524.6 90.6296L521 93.3291C521.3 94.9288 521.3 96.5285 521.1 98.2282L524.9 100.728L522.2 107.726L517.7 107.027ZM510.1 99.328C511.7 95.2287 509.6 90.5296 505.5 88.9299C501.3 87.3301 496.7 89.4298 495.1 93.529C493.5 97.6283 495.6 102.327 499.7 103.927C503.8 105.527 508.5 103.527 510.1 99.328Z" fill="#EEEEEE"/>
<path fill-rule="evenodd" clip-rule="evenodd" d="M483.55 62.8504C482.05 64.9501 480.25 66.7497 478.25 68.3494L479.65 75.2482L468.85 80.0473L464.55 74.3483C462.05 74.7483 459.45 74.8482 456.85 74.5483L452.85 80.4472L441.95 76.248L442.95 69.2493C440.85 67.7495 438.95 65.9499 437.35 63.9502L430.35 65.35L425.55 54.6519L431.25 50.4527C430.85 47.9532 430.75 45.3536 431.05 42.8541L425.15 38.9548L429.35 28.0568L436.45 29.0566C437.95 26.957 439.75 25.1573 441.75 23.5576L440.35 16.6589L451.15 11.8598L455.45 17.5587C457.95 17.1588 460.55 17.0588 463.15 17.3588L467.15 11.4598L478.15 15.6591L477.15 22.6578C479.25 24.1575 481.15 25.9572 482.75 27.9568L489.75 26.5571L494.55 37.2551L488.85 41.4544C489.25 43.9539 489.35 46.5534 489.05 49.053L494.95 52.9523L490.75 63.8503L483.55 62.8504ZM471.65 50.9526C474.15 44.4538 470.95 37.2551 464.35 34.7556C457.85 32.256 450.55 35.4555 447.95 41.9543C445.45 48.4531 448.65 55.7517 455.25 58.1513C461.75 60.6508 469.15 57.4514 471.65 50.9526Z" fill="#AAAAAA" fill-opacity="0.2"/>
<path d="M230.847 121.518C230.847 129.253 224.872 135.388 216.996 135.921H132.534C122.757 135.921 115.153 128.186 115.153 118.85C115.153 110.048 122.214 102.579 130.905 101.779C131.448 86.3084 144.484 74.0386 160.507 74.0386C173.272 74.0386 184.135 81.7739 188.209 92.9768C190.653 91.9099 193.097 91.1097 196.084 91.1097C205.318 91.1097 212.923 98.3115 213.466 107.114C214.28 107.114 215.095 106.847 215.91 106.847C224.057 106.847 230.847 113.249 230.847 121.518Z" fill="#E5E5E5"/>
<path d="M464 46H319V220H464V46Z" fill="#E2E2E2"/>
<path d="M316 116.792H95V293.792H316V116.792Z" fill="white"/>
<path d="M102.1 123.224C102.1 124.024 101.5 124.624 100.7 124.624C99.9001 124.624 99.3 124.024 99.3 123.224C99.3 122.424 99.9001 121.824 100.7 121.824C101.5 121.824 102.1 122.424 102.1 123.224Z" fill="#1A2E35"/>
<path d="M106.1 124.624C106.873 124.624 107.5 123.997 107.5 123.224C107.5 122.451 106.873 121.824 106.1 121.824C105.327 121.824 104.7 122.451 104.7 123.224C104.7 123.997 105.327 124.624 106.1 124.624Z" fill="#1A2E35"/>
<path d="M113 123.224C113 124.024 112.4 124.624 111.6 124.624C110.8 124.624 110.2 124.024 110.2 123.224C110.2 122.424 110.8 121.824 111.6 121.824C112.3 121.824 113 122.424 113 123.224Z" fill="#1A2E35"/>
<path d="M109.6 288.792C109.35 288.792 109.1 255.192 109.1 213.792C109.1 172.392 109.35 138.792 109.6 138.792C109.85 138.792 110.1 172.392 110.1 213.792C110.1 255.192 109.85 288.792 109.6 288.792Z" fill="#E1E1E1"/>
<path d="M314.8 135.221H94.3V135.921H314.8V135.221Z" fill="#333333"/>
<path d="M136 151.792H117V154.792H136V151.792Z" fill="#DEDEDE"/>
<path d="M159.7 173.792H145.6V176.792H159.7V173.792Z" fill="#DEDEDE"/>
<path d="M173 173.792H163.7V176.792H173V173.792Z" fill="#ABABAB"/>
<path d="M126.3 231.792H117V234.792H126.3V231.792Z" fill="#ABABAB"/>
<path d="M199.5 173.792H177V176.792H199.5V173.792Z" fill="#DEDEDE"/>
<path d="M131.5 219.792H117V222.792H131.5V219.792Z" fill="#DEDEDE"/>
<path d="M146.3 243.792H137.5V246.792H146.3V243.792Z" fill="#DEDEDE"/>
<path d="M134.5 243.792H117V246.792H134.5V243.792Z" fill="#ABABAB"/>
<path d="M126.7 255.792H117V258.792H126.7V255.792Z" fill="#DEDEDE"/>
<path d="M154 151.792H140V154.792H154V151.792Z" fill="#E2E2E2"/>
<path d="M154.3 184.792H140.5V187.792H154.3V184.792Z" fill="#ABABAB"/>
<path d="M140 195.792H135V198.792H140V195.792Z" fill="#DEDEDE"/>
<path d="M141 207.792H128V210.792H141V207.792Z" fill="#E2E2E2"/>
<path d="M162 207.792H144V210.792H162V207.792Z" fill="#ABABAB"/>
<path d="M131 195.792H117V198.792H131V195.792Z" fill="#ABABAB"/>
<path d="M125 207.792H117V210.792H125V207.792Z" fill="#ABABAB"/>
<path d="M151 195.792H143V198.792H151V195.792Z" fill="url(#paint0_linear_3404_59074)"/>
<path d="M124.7 267.792H117V270.792H124.7V267.792Z" fill="url(#paint1_linear_3404_59074)"/>
<path d="M130.8 173.792H117V176.792H130.8V173.792Z" fill="#E2E2E2"/>
<path d="M143.1 231.792H129.3V234.792H143.1V231.792Z" fill="#E2E2E2"/>
<path d="M136.7 184.792H117V187.792H136.7V184.792Z" fill="#E2E2E2"/>
<path d="M225 151.792H211V154.792H225V151.792Z" fill="#E2E2E2"/>
<path d="M153.3 267.792H139.5V270.792H153.3V267.792Z" fill="#E2E2E2"/>
<path d="M238 151.792H229V154.792H238V151.792Z" fill="#E2E2E2"/>
<path d="M267.8 162.792H258.6V165.792H267.8V162.792Z" fill="#E2E2E2"/>
<path d="M176 151.792H158V154.792H176V151.792Z" fill="#ABABAB"/>
<path d="M246.2 162.792H228.6V165.792H246.2V162.792Z" fill="#ABABAB"/>
<path d="M233.9 173.792H216.3V176.792H233.9V173.792Z" fill="#ABABAB"/>
<path d="M199.7 184.792H182.1V187.792H199.7V184.792Z" fill="#ABABAB"/>
<path d="M250.4 173.792H237.9V176.792H250.4V173.792Z" fill="#E2E2E2"/>
<path d="M207 151.792H189V154.792H207V151.792Z" fill="url(#paint2_linear_3404_59074)"/>
<path d="M178.9 184.792H168.6V187.792H178.9V184.792Z" fill="url(#paint3_linear_3404_59074)"/>
<path d="M170.3 231.792H160V234.792H170.3V231.792Z" fill="url(#paint4_linear_3404_59074)"/>
<path d="M185 151.792H179V154.792H185V151.792Z" fill="#DEDEDE"/>
<path d="M164.4 184.792H158V187.792H164.4V184.792Z" fill="#DEDEDE"/>
<path d="M255.6 162.792H249.2V165.792H255.6V162.792Z" fill="#DEDEDE"/>
<path d="M127 162.792H117V165.792H127V162.792Z" fill="#ABABAB"/>
<path d="M151.9 219.792H143.9V222.792H151.9V219.792Z" fill="#ABABAB"/>
<path d="M133 162.792H130V165.792H133V162.792Z" fill="#ABABAB"/>
<path d="M225.6 162.792H198.7V165.792H225.6V162.792Z" fill="#DEDEDE"/>
<path d="M165.1 255.792H138.2V258.792H165.1V255.792Z" fill="#DEDEDE"/>
<path d="M139 162.792H136V165.792H139V162.792Z" fill="url(#paint5_linear_3404_59074)"/>
<path d="M195.7 162.792H186.9V165.792H195.7V162.792Z" fill="#ABABAB"/>
<path d="M212.3 173.792H203.5V176.792H212.3V173.792Z" fill="url(#paint6_linear_3404_59074)"/>
<path d="M136.5 267.792H127.7V270.792H136.5V267.792Z" fill="url(#paint7_linear_3404_59074)"/>
<path d="M183.9 162.792H165.2V165.792H183.9V162.792Z" fill="#ABABAB"/>
<path d="M157 231.792H146.1V234.792H157V231.792Z" fill="#ABABAB"/>
<path d="M135.2 255.792H129.7V258.792H135.2V255.792Z" fill="#ABABAB"/>
<path d="M162.2 162.792H156.2V165.792H162.2V162.792Z" fill="#E2E2E2"/>
<path d="M141.6 173.792H135.2V176.792H141.6V173.792Z" fill="url(#paint8_linear_3404_59074)"/>
<path d="M140.9 219.792H134.5V222.792H140.9V219.792Z" fill="url(#paint9_linear_3404_59074)"/>
<path d="M153.2 162.792H142V165.792H153.2V162.792Z" fill="#ABABAB"/>
<path d="M259.8 82.8996C259.8 83.2995 259.6 83.6995 259.3 83.9994C259 84.2994 258.6 84.4993 258.2 84.3993C257.3 84.3993 256.6 83.6995 256.6 82.8996V79.4002C256.6 79.0003 256.8 78.6004 257.1 78.3004C257.4 78.0005 257.8 77.8005 258.2 77.9005C259.1 77.9005 259.8 78.6004 259.8 79.4002V82.8996ZM258.8 79.3003C258.8 79.1003 258.7 79.0003 258.6 78.9003C258.5 78.8004 258.4 78.7004 258.2 78.7004C258.1 78.7004 257.9 78.8004 257.8 78.9003C257.7 79.0003 257.6 79.2003 257.6 79.3003V82.7996C257.6 82.8996 257.7 83.0996 257.8 83.1996C257.9 83.2995 258 83.3995 258.2 83.3995C258.5 83.3995 258.8 83.0996 258.8 82.7996V79.3003Z" fill="#CACACA"/>
<path d="M308.6 90.0982C308.6 90.4981 308.4 90.8981 308.1 91.198C307.8 91.498 307.4 91.6979 307 91.5979C306.1 91.5979 305.4 90.8981 305.4 90.0982V86.5989C305.4 86.1989 305.6 85.799 305.9 85.4991C306.2 85.1991 306.6 84.9991 307 85.0991C307.9 85.0991 308.6 85.799 308.6 86.5989V90.0982ZM307.5 86.5989C307.5 86.2989 307.2 85.999 306.9 85.999C306.7 85.999 306.6 86.0989 306.5 86.1989C306.4 86.2989 306.3 86.4989 306.3 86.5989V90.0982C306.3 90.1982 306.4 90.3982 306.5 90.4981C306.6 90.5981 306.7 90.6981 306.9 90.6981C307.2 90.6981 307.5 90.3982 307.5 90.0982V86.5989Z" fill="#CACACA"/>
<path d="M283.3 58.1506C283.3 58.5308 283.1 58.911 282.8 59.1962C282.2 59.7666 281.2 59.7666 280.6 59.1962C280.3 58.911 280.2 58.5308 280.2 58.1506V54.7284C280.2 54.3482 280.4 53.968 280.7 53.6828C281.3 53.1124 282.3 53.1124 282.9 53.6828C283.2 53.968 283.4 54.3482 283.4 54.7284V58.1506H283.3ZM282.3 54.7284C282.3 54.4432 282.1 54.1581 281.7 54.1581C281.5 54.1581 281.4 54.2531 281.3 54.3482C281.2 54.4432 281.1 54.5383 281.1 54.7284V58.1506C281.1 58.4357 281.3 58.7209 281.6 58.7209C281.9 58.7209 282.2 58.4357 282.2 58.1506L282.3 54.7284Z" fill="#CACACA"/>
<path d="M259 106.395C259 106.795 258.8 107.195 258.5 107.495C258.2 107.795 257.8 107.995 257.4 107.895C257 107.895 256.6 107.795 256.3 107.495C256 107.195 255.8 106.795 255.8 106.395V102.896C255.8 101.996 256.5 101.396 257.4 101.396C257.8 101.396 258.2 101.596 258.5 101.896C258.8 102.196 259 102.596 259 102.996V106.395ZM258 102.796C258 102.696 257.9 102.496 257.8 102.396C257.6 102.196 257.2 102.196 257 102.396C256.9 102.496 256.8 102.596 256.8 102.796V106.295C256.8 106.395 256.9 106.595 257 106.695C257.2 106.895 257.6 106.895 257.8 106.695C257.9 106.595 258 106.495 258 106.295V102.796Z" fill="#CACACA"/>
<path d="M255 106.395C255 106.795 254.8 107.195 254.5 107.495C254.2 107.795 253.8 107.995 253.4 107.895C252.5 107.895 251.8 107.195 251.8 106.395V102.896C251.8 101.996 252.5 101.396 253.4 101.396C254.3 101.396 255 102.096 255 102.896V106.395ZM253.9 102.796C253.9 102.696 253.8 102.496 253.7 102.396C253.6 102.296 253.5 102.196 253.3 102.196C253.1 102.196 253 102.296 252.9 102.396C252.8 102.496 252.7 102.596 252.7 102.796V106.295C252.7 106.395 252.8 106.595 252.9 106.695C253 106.795 253.1 106.895 253.3 106.895C253.6 106.895 253.9 106.595 253.9 106.295V102.796Z" fill="#CACACA"/>
<path d="M269.6 107.895V102.896H268.8V102.196C269.1 102.196 269.3 102.096 269.5 101.896C269.7 101.796 269.9 101.596 270 101.396H270.7V107.895H269.6Z" fill="#CACACA"/>
<path d="M272.2 107.895V102.896H271.4V102.196C271.7 102.196 271.9 102.096 272.1 101.896C272.3 101.796 272.5 101.596 272.6 101.396H273.3V107.895H272.2Z" fill="#CACACA"/>
<path d="M275.8 107.895V102.896H275V102.196C275.3 102.196 275.5 102.096 275.7 101.896C275.9 101.796 276.1 101.596 276.2 101.396H276.9V107.895H275.8Z" fill="#CACACA"/>
<path d="M288.6 84.2993V79.3003H287.8V78.6004C288.1 78.6004 288.3 78.5004 288.5 78.3004C288.7 78.2005 288.9 78.0005 289 77.8005H289.7V84.2993H288.6Z" fill="#CACACA"/>
<path d="M286.8 82.8996C286.8 83.2995 286.6 83.6995 286.3 83.9994C286 84.2994 285.6 84.4993 285.2 84.3993C284.3 84.3993 283.6 83.6995 283.6 82.8996V79.4002C283.6 79.0003 283.8 78.6004 284.1 78.3004C284.4 78.0005 284.8 77.8005 285.2 77.9005C286.1 77.9005 286.8 78.6004 286.8 79.4002V82.8996ZM285.8 79.3003C285.8 79.1003 285.7 79.0003 285.6 78.9003C285.5 78.8004 285.4 78.7004 285.2 78.7004C285.1 78.7004 284.9 78.8004 284.8 78.9003C284.7 79.0003 284.6 79.2003 284.6 79.3003V82.7996C284.6 82.8996 284.7 83.0996 284.8 83.1996C284.9 83.2995 285 83.3995 285.2 83.3995C285.5 83.3995 285.8 83.0996 285.8 82.7996V79.3003Z" fill="#CACACA"/>
<path d="M308.6 90.0982C308.6 90.4981 308.4 90.8981 308.1 91.198C307.8 91.498 307.4 91.6979 307 91.5979C306.1 91.5979 305.4 90.8981 305.4 90.0982V86.5989C305.4 86.1989 305.6 85.799 305.9 85.4991C306.2 85.1991 306.6 84.9991 307 85.0991C307.9 85.0991 308.6 85.799 308.6 86.5989V90.0982ZM307.5 86.5989C307.5 86.2989 307.2 85.999 306.9 85.999C306.7 85.999 306.6 86.0989 306.5 86.1989C306.4 86.2989 306.3 86.4989 306.3 86.5989V90.0982C306.3 90.1982 306.4 90.3982 306.5 90.4981C306.6 90.5981 306.7 90.6981 306.9 90.6981C307.2 90.6981 307.5 90.3982 307.5 90.0982V86.5989Z" fill="#CACACA"/>
<path d="M288.3 58.1506C288.3 58.5308 288.1 58.911 287.8 59.1962C287.2 59.7666 286.2 59.7666 285.6 59.1962C285.3 58.911 285.2 58.5308 285.2 58.1506V54.7284C285.2 54.3482 285.4 53.968 285.7 53.6828C286.3 53.1124 287.3 53.1124 287.9 53.6828C288.2 53.968 288.4 54.3482 288.4 54.7284V58.1506H288.3ZM287.3 54.7284C287.3 54.4432 287.1 54.1581 286.7 54.1581C286.5 54.1581 286.4 54.2531 286.3 54.3482C286.2 54.4432 286.1 54.5383 286.1 54.7284V58.1506C286.1 58.4357 286.3 58.7209 286.6 58.7209C286.9 58.7209 287.2 58.4357 287.2 58.1506L287.3 54.7284Z" fill="#CACACA"/>
<path d="M263 106.395C263 106.795 262.8 107.195 262.5 107.495C262.2 107.795 261.8 107.995 261.4 107.895C261 107.895 260.6 107.795 260.3 107.495C260 107.195 259.8 106.795 259.8 106.395V102.896C259.8 101.996 260.5 101.396 261.4 101.396C261.8 101.396 262.2 101.596 262.5 101.896C262.8 102.196 263 102.596 263 102.996V106.395ZM262 102.796C262 102.696 261.9 102.496 261.8 102.396C261.6 102.196 261.2 102.196 261 102.396C260.9 102.496 260.8 102.596 260.8 102.796V106.295C260.8 106.395 260.9 106.595 261 106.695C261.2 106.895 261.6 106.895 261.8 106.695C261.9 106.595 262 106.495 262 106.295V102.796Z" fill="#CACACA"/>
<path d="M268 106.395C268 106.795 267.8 107.195 267.5 107.495C267.2 107.795 266.8 107.995 266.4 107.895C265.5 107.895 264.8 107.195 264.8 106.395V102.896C264.8 101.996 265.5 101.396 266.4 101.396C267.3 101.396 268 102.096 268 102.896V106.395ZM266.9 102.796C266.9 102.696 266.8 102.496 266.7 102.396C266.6 102.296 266.5 102.196 266.3 102.196C266.1 102.196 266 102.296 265.9 102.396C265.8 102.496 265.7 102.596 265.7 102.796V106.295C265.7 106.395 265.8 106.595 265.9 106.695C266 106.795 266.1 106.895 266.3 106.895C266.6 106.895 266.9 106.595 266.9 106.295V102.796Z" fill="#CACACA"/>
<path d="M285.6 107.895V102.896H284.8V102.196C285.1 102.196 285.3 102.096 285.5 101.896C285.7 101.796 285.9 101.596 286 101.396H286.7V107.895H285.6Z" fill="#CACACA"/>
<path d="M282.2 107.895V102.896H281.4V102.196C281.7 102.196 281.9 102.096 282.1 101.896C282.3 101.796 282.5 101.596 282.6 101.396H283.3V107.895H282.2Z" fill="#CACACA"/>
<path d="M278.8 107.895V102.896H278V102.196C278.3 102.196 278.5 102.096 278.7 101.896C278.9 101.796 279.1 101.596 279.2 101.396H279.9V107.895H278.8Z" fill="#CACACA"/>
<path d="M288.6 84.2993V79.3003H287.8V78.6004C288.1 78.6004 288.3 78.5004 288.5 78.3004C288.7 78.2005 288.9 78.0005 289 77.8005H289.7V84.2993H288.6Z" fill="#CACACA"/>
<path d="M228.8 27.8996C228.8 28.2995 228.6 28.6995 228.3 28.9994C228 29.2994 227.6 29.4993 227.2 29.3993C226.3 29.3993 225.6 28.6995 225.6 27.8996V24.4002C225.6 24.0003 225.8 23.6004 226.1 23.3004C226.4 23.0005 226.8 22.8005 227.2 22.9005C228.1 22.9005 228.8 23.6004 228.8 24.4002V27.8996ZM227.8 24.3003C227.8 24.1003 227.7 24.0003 227.6 23.9003C227.5 23.8004 227.4 23.7004 227.2 23.7004C227.1 23.7004 226.9 23.8004 226.8 23.9003C226.7 24.0003 226.6 24.2003 226.6 24.3003V27.7996C226.6 27.8996 226.7 28.0996 226.8 28.1996C226.9 28.2995 227 28.3995 227.2 28.3995C227.5 28.3995 227.8 28.0996 227.8 27.7996V24.3003Z" fill="#CACACA"/>
<path d="M277.6 58.0982C277.6 58.4981 277.4 58.8981 277.1 59.198C276.8 59.498 276.4 59.6979 276 59.5979C275.1 59.5979 274.4 58.8981 274.4 58.0982V54.5989C274.4 54.1989 274.6 53.799 274.9 53.4991C275.2 53.1991 275.6 52.9991 276 53.0991C276.9 53.0991 277.6 53.799 277.6 54.5989V58.0982ZM276.5 54.5989C276.5 54.2989 276.2 53.999 275.9 53.999C275.7 53.999 275.6 54.0989 275.5 54.1989C275.4 54.2989 275.3 54.4989 275.3 54.5989V58.0982C275.3 58.1982 275.4 58.3982 275.5 58.4981C275.6 58.5981 275.7 58.6981 275.9 58.6981C276.2 58.6981 276.5 58.3982 276.5 58.0982V54.5989Z" fill="#CACACA"/>
<path d="M201.3 66.4041C201.3 66.804 201.1 67.2039 200.8 67.5039C200.2 68.1038 199.2 68.1038 198.6 67.5039C198.3 67.2039 198.2 66.804 198.2 66.4041V62.8047C198.2 62.4048 198.4 62.0049 198.7 61.7049C199.3 61.105 200.3 61.105 200.9 61.7049C201.2 62.0049 201.4 62.4048 201.4 62.8047V66.4041H201.3ZM200.3 62.8047C200.3 62.5048 200.1 62.2048 199.7 62.2048C199.5 62.2048 199.4 62.3048 199.3 62.4048C199.2 62.5048 199.1 62.6048 199.1 62.8047V66.4041C199.1 66.704 199.3 67.004 199.6 67.004C199.9 67.004 200.2 66.704 200.2 66.4041L200.3 62.8047Z" fill="#CACACA"/>
<path d="M229 74.3952C229 74.7951 228.8 75.1951 228.5 75.495C228.2 75.7949 227.8 75.9949 227.4 75.8949C227 75.8949 226.6 75.7949 226.3 75.495C226 75.1951 225.8 74.7951 225.8 74.3952V70.8958C225.8 69.996 226.5 69.3961 227.4 69.3961C227.8 69.3961 228.2 69.5961 228.5 69.896C228.8 70.196 229 70.5959 229 70.9958V74.3952ZM228 70.7959C228 70.6959 227.9 70.4959 227.8 70.3959C227.6 70.196 227.2 70.196 227 70.3959C226.9 70.4959 226.8 70.5959 226.8 70.7959V74.2952C226.8 74.3952 226.9 74.5952 227 74.6951C227.2 74.8951 227.6 74.8951 227.8 74.6951C227.9 74.5952 228 74.4952 228 74.2952V70.7959Z" fill="#CACACA"/>
<path d="M237 74.3952C237 74.7951 236.8 75.1951 236.5 75.495C236.2 75.7949 235.8 75.9949 235.4 75.8949C234.5 75.8949 233.8 75.1951 233.8 74.3952V70.8958C233.8 69.996 234.5 69.3961 235.4 69.3961C236.3 69.3961 237 70.096 237 70.8958V74.3952ZM235.9 70.7959C235.9 70.6959 235.8 70.4959 235.7 70.3959C235.6 70.296 235.5 70.196 235.3 70.196C235.1 70.196 235 70.296 234.9 70.3959C234.8 70.4959 234.7 70.5959 234.7 70.7959V74.2952C234.7 74.3952 234.8 74.5952 234.9 74.6951C235 74.7951 235.1 74.8951 235.3 74.8951C235.6 74.8951 235.9 74.5952 235.9 74.2952V70.7959Z" fill="#CACACA"/>
<path d="M238.6 75.8949V70.8958H237.8V70.196C238.1 70.196 238.3 70.096 238.5 69.896C238.7 69.796 238.9 69.5961 239 69.3961H239.7V75.8949H238.6Z" fill="#CACACA"/>
<path d="M241.2 75.8949V70.8958H240.4V70.196C240.7 70.196 240.9 70.096 241.1 69.896C241.3 69.796 241.5 69.5961 241.6 69.3961H242.3V75.8949H241.2Z" fill="#CACACA"/>
<path d="M243.8 75.8949V70.8958H243V70.196C243.3 70.196 243.5 70.096 243.7 69.896C243.9 69.796 244.1 69.5961 244.2 69.3961H244.9V75.8949H243.8Z" fill="#CACACA"/>
<path d="M257.6 52.2993V47.3003H256.8V46.6004C257.1 46.6004 257.3 46.5004 257.5 46.3004C257.7 46.2005 257.9 46.0005 258 45.8005H258.7V52.2993H257.6Z" fill="#CACACA"/>
<path d="M224.8 50.8996C224.8 51.2995 224.6 51.6995 224.3 51.9994C224 52.2994 223.6 52.4993 223.2 52.3993C222.3 52.3993 221.6 51.6995 221.6 50.8996V47.4002C221.6 47.0003 221.8 46.6004 222.1 46.3004C222.4 46.0005 222.8 45.8005 223.2 45.9005C224.1 45.9005 224.8 46.6004 224.8 47.4002V50.8996ZM223.8 47.3003C223.8 47.1003 223.7 47.0003 223.6 46.9003C223.5 46.8004 223.4 46.7004 223.2 46.7004C223.1 46.7004 222.9 46.8004 222.8 46.9003C222.7 47.0003 222.6 47.2003 222.6 47.3003V50.7996C222.6 50.8996 222.7 51.0996 222.8 51.1996C222.9 51.2995 223 51.3995 223.2 51.3995C223.5 51.3995 223.8 51.0996 223.8 50.7996V47.3003Z" fill="#CACACA"/>
<path d="M277.6 58.0982C277.6 58.4981 277.4 58.8981 277.1 59.198C276.8 59.498 276.4 59.6979 276 59.5979C275.1 59.5979 274.4 58.8981 274.4 58.0982V54.5989C274.4 54.1989 274.6 53.799 274.9 53.4991C275.2 53.1991 275.6 52.9991 276 53.0991C276.9 53.0991 277.6 53.799 277.6 54.5989V58.0982ZM276.5 54.5989C276.5 54.2989 276.2 53.999 275.9 53.999C275.7 53.999 275.6 54.0989 275.5 54.1989C275.4 54.2989 275.3 54.4989 275.3 54.5989V58.0982C275.3 58.1982 275.4 58.3982 275.5 58.4981C275.6 58.5981 275.7 58.6981 275.9 58.6981C276.2 58.6981 276.5 58.3982 276.5 58.0982V54.5989Z" fill="#CACACA"/>
<path d="M255.3 51.4041C255.3 51.804 255.1 52.2039 254.8 52.5039C254.2 53.1038 253.2 53.1038 252.6 52.5039C252.3 52.2039 252.2 51.804 252.2 51.4041V47.8047C252.2 47.4048 252.4 47.0049 252.7 46.7049C253.3 46.105 254.3 46.105 254.9 46.7049C255.2 47.0049 255.4 47.4048 255.4 47.8047V51.4041H255.3ZM254.3 47.8047C254.3 47.5048 254.1 47.2048 253.7 47.2048C253.5 47.2048 253.4 47.3048 253.3 47.4048C253.2 47.5048 253.1 47.6048 253.1 47.8047V51.4041C253.1 51.704 253.3 52.004 253.6 52.004C253.9 52.004 254.2 51.704 254.2 51.4041L254.3 47.8047Z" fill="#CACACA"/>
<path d="M229 74.3952C229 74.7951 228.8 75.1951 228.5 75.495C228.2 75.7949 227.8 75.9949 227.4 75.8949C227 75.8949 226.6 75.7949 226.3 75.495C226 75.1951 225.8 74.7951 225.8 74.3952V70.8958C225.8 69.996 226.5 69.3961 227.4 69.3961C227.8 69.3961 228.2 69.5961 228.5 69.896C228.8 70.196 229 70.5959 229 70.9958V74.3952ZM228 70.7959C228 70.6959 227.9 70.4959 227.8 70.3959C227.6 70.196 227.2 70.196 227 70.3959C226.9 70.4959 226.8 70.5959 226.8 70.7959V74.2952C226.8 74.3952 226.9 74.5952 227 74.6951C227.2 74.8951 227.6 74.8951 227.8 74.6951C227.9 74.5952 228 74.4952 228 74.2952V70.7959Z" fill="#CACACA"/>
<path d="M237 74.3952C237 74.7951 236.8 75.1951 236.5 75.495C236.2 75.7949 235.8 75.9949 235.4 75.8949C234.5 75.8949 233.8 75.1951 233.8 74.3952V70.8958C233.8 69.996 234.5 69.3961 235.4 69.3961C236.3 69.3961 237 70.096 237 70.8958V74.3952ZM235.9 70.7959C235.9 70.6959 235.8 70.4959 235.7 70.3959C235.6 70.296 235.5 70.196 235.3 70.196C235.1 70.196 235 70.296 234.9 70.3959C234.8 70.4959 234.7 70.5959 234.7 70.7959V74.2952C234.7 74.3952 234.8 74.5952 234.9 74.6951C235 74.7951 235.1 74.8951 235.3 74.8951C235.6 74.8951 235.9 74.5952 235.9 74.2952V70.7959Z" fill="#CACACA"/>
<path d="M238.6 75.8949V70.8958H237.8V70.196C238.1 70.196 238.3 70.096 238.5 69.896C238.7 69.796 238.9 69.5961 239 69.3961H239.7V75.8949H238.6Z" fill="#CACACA"/>
<path d="M241.2 75.8949V70.8958H240.4V70.196C240.7 70.196 240.9 70.096 241.1 69.896C241.3 69.796 241.5 69.5961 241.6 69.3961H242.3V75.8949H241.2Z" fill="#CACACA"/>
<path d="M243.8 75.8949V70.8958H243V70.196C243.3 70.196 243.5 70.096 243.7 69.896C243.9 69.796 244.1 69.5961 244.2 69.3961H244.9V75.8949H243.8Z" fill="#CACACA"/>
<path d="M257.6 52.2993V47.3003H256.8V46.6004C257.1 46.6004 257.3 46.5004 257.5 46.3004C257.7 46.2005 257.9 46.0005 258 45.8005H258.7V52.2993H257.6Z" fill="#CACACA"/>
<path d="M24.8 166.979C24.8 167.379 24.6 167.778 24.3 168.078C24 168.378 23.6 168.578 23.2 168.478C22.3 168.478 21.6 167.778 21.6 166.979V163.479C21.6 163.079 21.8 162.679 22.1 162.379C22.4 162.079 22.8 161.88 23.2 161.979C24.1 161.979 24.8 162.679 24.8 163.479V166.979ZM23.8 163.379C23.8 163.179 23.7 163.079 23.6 162.979C23.5 162.879 23.4 162.779 23.2 162.779C23.1 162.779 22.9 162.879 22.8 162.979C22.7 163.079 22.6 163.279 22.6 163.379V166.879C22.6 166.979 22.7 167.179 22.8 167.279C22.9 167.379 23 167.478 23.2 167.478C23.5 167.478 23.8 167.179 23.8 166.879V163.379Z" fill="#CACACA"/>
<path d="M73.6 174.177C73.6 174.577 73.4 174.977 73.1 175.277C72.8 175.577 72.4 175.777 72 175.677C71.1 175.677 70.4 174.977 70.4 174.177V170.678C70.4 170.278 70.6 169.878 70.9 169.578C71.2 169.278 71.6 169.078 72 169.178C72.9 169.178 73.6 169.878 73.6 170.678V174.177ZM72.5 170.678C72.5 170.378 72.2 170.078 71.9 170.078C71.7 170.078 71.6 170.178 71.5 170.278C71.4 170.378 71.3 170.578 71.3 170.678V174.177C71.3 174.277 71.4 174.477 71.5 174.577C71.6 174.677 71.7 174.777 71.9 174.777C72.2 174.777 72.5 174.477 72.5 174.177V170.678Z" fill="#CACACA"/>
<path d="M47.3 142.483C47.3 142.883 47.1 143.283 46.8 143.583C46.2 144.183 45.2 144.183 44.6 143.583C44.3 143.283 44.2 142.883 44.2 142.483V138.884C44.2 138.484 44.4 138.084 44.7 137.784C45.3 137.184 46.2999 137.184 46.8999 137.784C47.1999 138.084 47.3999 138.484 47.3999 138.884V142.483H47.3ZM46.3 138.884C46.3 138.584 46.1 138.284 45.7 138.284C45.5 138.284 45.4 138.384 45.3 138.484C45.2 138.584 45.1 138.684 45.1 138.884V142.483C45.1 142.783 45.3 143.083 45.6 143.083C45.9 143.083 46.2 142.783 46.2 142.483L46.3 138.884Z" fill="#CACACA"/>
<path d="M25 190.474C25 190.874 24.8 191.274 24.5 191.574C24.2 191.874 23.8 192.074 23.4 191.974C23 191.974 22.6 191.874 22.3 191.574C22 191.274 21.8 190.874 21.8 190.474V186.975C21.8 186.075 22.5 185.475 23.4 185.475C23.8 185.475 24.2 185.675 24.5 185.975C24.8 186.275 25 186.675 25 187.075V190.474ZM24 186.875C24 186.775 23.9 186.575 23.8 186.475C23.6 186.275 23.2 186.275 23 186.475C22.9 186.575 22.8 186.675 22.8 186.875V190.374C22.8 190.474 22.9 190.674 23 190.774C23.2 190.974 23.6 190.974 23.8 190.774C23.9 190.674 24 190.574 24 190.374V186.875Z" fill="#CACACA"/>
<path d="M33 190.474C33 190.874 32.8 191.274 32.5 191.574C32.2 191.874 31.8 192.074 31.4 191.974C30.5 191.974 29.8 191.274 29.8 190.474V186.975C29.8 186.075 30.5 185.475 31.4 185.475C32.3 185.475 33 186.175 33 186.975V190.474ZM31.9 186.875C31.9 186.775 31.8 186.575 31.7 186.475C31.6 186.375 31.5 186.275 31.3 186.275C31.1 186.275 31 186.375 30.9 186.475C30.8 186.575 30.7 186.675 30.7 186.875V190.374C30.7 190.474 30.8 190.674 30.9 190.774C31 190.874 31.1 190.974 31.3 190.974C31.6 190.974 31.9 190.674 31.9 190.374V186.875Z" fill="#CACACA"/>
<path d="M34.6 191.974V186.975H33.8V186.275C34.1 186.275 34.3 186.175 34.5 185.975C34.7 185.875 34.9 185.675 35 185.475H35.7V191.974H34.6Z" fill="#CACACA"/>
<path d="M37.2 191.974V186.975H36.4V186.275C36.7 186.275 36.9 186.175 37.1 185.975C37.3 185.875 37.5 185.675 37.6 185.475H38.3V191.974H37.2Z" fill="#CACACA"/>
<path d="M39.8 191.974V186.975H39V186.275C39.3 186.275 39.5 186.175 39.7 185.975C39.9 185.875 40.1 185.675 40.2 185.475H40.9V191.974H39.8Z" fill="#CACACA"/>
<path d="M53.6 168.378V163.379H52.8V162.679C53.1 162.679 53.3 162.579 53.5 162.379C53.7 162.279 53.9 162.079 54 161.88H54.7V168.378H53.6Z" fill="#CACACA"/>
<path d="M24.8 166.979C24.8 167.379 24.6 167.778 24.3 168.078C24 168.378 23.6 168.578 23.2 168.478C22.3 168.478 21.6 167.778 21.6 166.979V163.479C21.6 163.079 21.8 162.679 22.1 162.379C22.4 162.079 22.8 161.88 23.2 161.979C24.1 161.979 24.8 162.679 24.8 163.479V166.979ZM23.8 163.379C23.8 163.179 23.7 163.079 23.6 162.979C23.5 162.879 23.4 162.779 23.2 162.779C23.1 162.779 22.9 162.879 22.8 162.979C22.7 163.079 22.6 163.279 22.6 163.379V166.879C22.6 166.979 22.7 167.179 22.8 167.279C22.9 167.379 23 167.478 23.2 167.478C23.5 167.478 23.8 167.179 23.8 166.879V163.379Z" fill="#CACACA"/>
<path d="M73.6 174.177C73.6 174.577 73.4 174.977 73.1 175.277C72.8 175.577 72.4 175.777 72 175.677C71.1 175.677 70.4 174.977 70.4 174.177V170.678C70.4 170.278 70.6 169.878 70.9 169.578C71.2 169.278 71.6 169.078 72 169.178C72.9 169.178 73.6 169.878 73.6 170.678V174.177ZM72.5 170.678C72.5 170.378 72.2 170.078 71.9 170.078C71.7 170.078 71.6 170.178 71.5 170.278C71.4 170.378 71.3 170.578 71.3 170.678V174.177C71.3 174.277 71.4 174.477 71.5 174.577C71.6 174.677 71.7 174.777 71.9 174.777C72.2 174.777 72.5 174.477 72.5 174.177V170.678Z" fill="#CACACA"/>
<path d="M47.3 142.483C47.3 142.883 47.1 143.283 46.8 143.583C46.2 144.183 45.2 144.183 44.6 143.583C44.3 143.283 44.2 142.883 44.2 142.483V138.884C44.2 138.484 44.4 138.084 44.7 137.784C45.3 137.184 46.2999 137.184 46.8999 137.784C47.1999 138.084 47.3999 138.484 47.3999 138.884V142.483H47.3ZM46.3 138.884C46.3 138.584 46.1 138.284 45.7 138.284C45.5 138.284 45.4 138.384 45.3 138.484C45.2 138.584 45.1 138.684 45.1 138.884V142.483C45.1 142.783 45.3 143.083 45.6 143.083C45.9 143.083 46.2 142.783 46.2 142.483L46.3 138.884Z" fill="#CACACA"/>
<path d="M25 190.474C25 190.874 24.8 191.274 24.5 191.574C24.2 191.874 23.8 192.074 23.4 191.974C23 191.974 22.6 191.874 22.3 191.574C22 191.274 21.8 190.874 21.8 190.474V186.975C21.8 186.075 22.5 185.475 23.4 185.475C23.8 185.475 24.2 185.675 24.5 185.975C24.8 186.275 25 186.675 25 187.075V190.474ZM24 186.875C24 186.775 23.9 186.575 23.8 186.475C23.6 186.275 23.2 186.275 23 186.475C22.9 186.575 22.8 186.675 22.8 186.875V190.374C22.8 190.474 22.9 190.674 23 190.774C23.2 190.974 23.6 190.974 23.8 190.774C23.9 190.674 24 190.574 24 190.374V186.875Z" fill="#CACACA"/>
<path d="M33 190.474C33 190.874 32.8 191.274 32.5 191.574C32.2 191.874 31.8 192.074 31.4 191.974C30.5 191.974 29.8 191.274 29.8 190.474V186.975C29.8 186.075 30.5 185.475 31.4 185.475C32.3 185.475 33 186.175 33 186.975V190.474ZM31.9 186.875C31.9 186.775 31.8 186.575 31.7 186.475C31.6 186.375 31.5 186.275 31.3 186.275C31.1 186.275 31 186.375 30.9 186.475C30.8 186.575 30.7 186.675 30.7 186.875V190.374C30.7 190.474 30.8 190.674 30.9 190.774C31 190.874 31.1 190.974 31.3 190.974C31.6 190.974 31.9 190.674 31.9 190.374V186.875Z" fill="#CACACA"/>
<path d="M34.6 191.974V186.975H33.8V186.275C34.1 186.275 34.3 186.175 34.5 185.975C34.7 185.875 34.9 185.675 35 185.475H35.7V191.974H34.6Z" fill="#CACACA"/>
<path d="M37.2 191.974V186.975H36.4V186.275C36.7 186.275 36.9 186.175 37.1 185.975C37.3 185.875 37.5 185.675 37.6 185.475H38.3V191.974H37.2Z" fill="#CACACA"/>
<path d="M39.8 191.974V186.975H39V186.275C39.3 186.275 39.5 186.175 39.7 185.975C39.9 185.875 40.1 185.675 40.2 185.475H40.9V191.974H39.8Z" fill="#CACACA"/>
<path d="M53.6 168.378V163.379H52.8V162.679C53.1 162.679 53.3 162.579 53.5 162.379C53.7 162.279 53.9 162.079 54 161.88H54.7V168.378H53.6Z" fill="#CACACA"/>
<path d="M466 267.312C466 267.712 465.8 268.111 465.5 268.411C465.2 268.711 464.8 268.911 464.4 268.811C463.5 268.811 462.8 268.111 462.8 267.312V263.812C462.8 263.412 463 263.012 463.3 262.712C463.6 262.412 464 262.213 464.4 262.313C465.3 262.313 466 263.012 466 263.812V267.312ZM465 263.712C465 263.512 464.9 263.412 464.8 263.312C464.7 263.212 464.6 263.112 464.4 263.112C464.3 263.112 464.1 263.212 464 263.312C463.9 263.412 463.8 263.612 463.8 263.712V267.212C463.8 267.312 463.9 267.512 464 267.612C464.1 267.712 464.2 267.812 464.4 267.812C464.7 267.812 465 267.512 465 267.212V263.712Z" fill="#CACACA"/>
<path d="M514.8 274.51C514.8 274.91 514.6 275.31 514.3 275.61C514 275.91 513.6 276.11 513.2 276.01C512.3 276.01 511.6 275.31 511.6 274.51V271.011C511.6 270.611 511.8 270.211 512.1 269.911C512.4 269.611 512.8 269.411 513.2 269.511C514.1 269.511 514.8 270.211 514.8 271.011V274.51ZM513.7 271.011C513.7 270.711 513.4 270.411 513.1 270.411C512.9 270.411 512.8 270.511 512.7 270.611C512.6 270.711 512.5 270.911 512.5 271.011V274.51C512.5 274.61 512.6 274.81 512.7 274.91C512.8 275.01 512.9 275.11 513.1 275.11C513.4 275.11 513.7 274.81 513.7 274.51V271.011Z" fill="#CACACA"/>
<path d="M488.5 242.816C488.5 243.216 488.3 243.616 488 243.916C487.4 244.516 486.4 244.516 485.8 243.916C485.5 243.616 485.4 243.216 485.4 242.816V239.217C485.4 238.817 485.6 238.417 485.9 238.117C486.5 237.517 487.5 237.517 488.1 238.117C488.4 238.417 488.6 238.817 488.6 239.217V242.816H488.5ZM487.5 239.217C487.5 238.917 487.3 238.617 486.9 238.617C486.7 238.617 486.6 238.717 486.5 238.817C486.4 238.917 486.3 239.017 486.3 239.217V242.816C486.3 243.116 486.5 243.416 486.8 243.416C487.1 243.416 487.4 243.116 487.4 242.816L487.5 239.217Z" fill="#CACACA"/>
<path d="M466.2 290.807C466.2 291.207 466 291.607 465.7 291.907C465.4 292.207 465 292.407 464.6 292.307C464.2 292.307 463.8 292.207 463.5 291.907C463.2 291.607 463 291.207 463 290.807V287.308C463 286.408 463.7 285.808 464.6 285.808C465 285.808 465.4 286.008 465.7 286.308C466 286.608 466.2 287.008 466.2 287.408V290.807ZM465.2 287.208C465.2 287.108 465.1 286.908 465 286.808C464.8 286.608 464.4 286.608 464.2 286.808C464.1 286.908 464 287.008 464 287.208V290.707C464 290.807 464.1 291.007 464.2 291.107C464.4 291.307 464.8 291.307 465 291.107C465.1 291.007 465.2 290.907 465.2 290.707V287.208Z" fill="#CACACA"/>
<path d="M474.2 290.807C474.2 291.207 474 291.607 473.7 291.907C473.4 292.207 473 292.407 472.6 292.307C471.7 292.307 471 291.607 471 290.807V287.308C471 286.408 471.7 285.808 472.6 285.808C473.5 285.808 474.2 286.508 474.2 287.308V290.807ZM473.1 287.208C473.1 287.108 473 286.908 472.9 286.808C472.8 286.708 472.7 286.608 472.5 286.608C472.3 286.608 472.2 286.708 472.1 286.808C472 286.908 471.9 287.008 471.9 287.208V290.707C471.9 290.807 472 291.007 472.1 291.107C472.2 291.207 472.3 291.307 472.5 291.307C472.8 291.307 473.1 291.007 473.1 290.707V287.208Z" fill="#CACACA"/>
<path d="M475.8 292.307V287.308H475V286.608C475.3 286.608 475.5 286.508 475.7 286.308C475.9 286.208 476.1 286.008 476.2 285.808H476.9V292.307H475.8Z" fill="#CACACA"/>
<path d="M478.4 292.307V287.308H477.6V286.608C477.9 286.608 478.1 286.508 478.3 286.308C478.5 286.208 478.7 286.008 478.8 285.808H479.5V292.307H478.4Z" fill="#CACACA"/>
<path d="M481 292.307V287.308H480.2V286.608C480.5 286.608 480.7 286.508 480.9 286.308C481.1 286.208 481.3 286.008 481.4 285.808H482.1V292.307H481Z" fill="#CACACA"/>
<path d="M494.8 268.711V263.712H494V263.012C494.3 263.012 494.5 262.912 494.7 262.712C494.9 262.612 495.1 262.412 495.2 262.213H495.9V268.711H494.8Z" fill="#CACACA"/>
<path d="M466 267.312C466 267.712 465.8 268.111 465.5 268.411C465.2 268.711 464.8 268.911 464.4 268.811C463.5 268.811 462.8 268.111 462.8 267.312V263.812C462.8 263.412 463 263.012 463.3 262.712C463.6 262.412 464 262.213 464.4 262.313C465.3 262.313 466 263.012 466 263.812V267.312ZM465 263.712C465 263.512 464.9 263.412 464.8 263.312C464.7 263.212 464.6 263.112 464.4 263.112C464.3 263.112 464.1 263.212 464 263.312C463.9 263.412 463.8 263.612 463.8 263.712V267.212C463.8 267.312 463.9 267.512 464 267.612C464.1 267.712 464.2 267.812 464.4 267.812C464.7 267.812 465 267.512 465 267.212V263.712Z" fill="#CACACA"/>
<path d="M514.8 274.51C514.8 274.91 514.6 275.31 514.3 275.61C514 275.91 513.6 276.11 513.2 276.01C512.3 276.01 511.6 275.31 511.6 274.51V271.011C511.6 270.611 511.8 270.211 512.1 269.911C512.4 269.611 512.8 269.411 513.2 269.511C514.1 269.511 514.8 270.211 514.8 271.011V274.51ZM513.7 271.011C513.7 270.711 513.4 270.411 513.1 270.411C512.9 270.411 512.8 270.511 512.7 270.611C512.6 270.711 512.5 270.911 512.5 271.011V274.51C512.5 274.61 512.6 274.81 512.7 274.91C512.8 275.01 512.9 275.11 513.1 275.11C513.4 275.11 513.7 274.81 513.7 274.51V271.011Z" fill="#CACACA"/>
<path d="M488.5 242.816C488.5 243.216 488.3 243.616 488 243.916C487.4 244.516 486.4 244.516 485.8 243.916C485.5 243.616 485.4 243.216 485.4 242.816V239.217C485.4 238.817 485.6 238.417 485.9 238.117C486.5 237.517 487.5 237.517 488.1 238.117C488.4 238.417 488.6 238.817 488.6 239.217V242.816H488.5ZM487.5 239.217C487.5 238.917 487.3 238.617 486.9 238.617C486.7 238.617 486.6 238.717 486.5 238.817C486.4 238.917 486.3 239.017 486.3 239.217V242.816C486.3 243.116 486.5 243.416 486.8 243.416C487.1 243.416 487.4 243.116 487.4 242.816L487.5 239.217Z" fill="#CACACA"/>
<path d="M466.2 290.807C466.2 291.207 466 291.607 465.7 291.907C465.4 292.207 465 292.407 464.6 292.307C464.2 292.307 463.8 292.207 463.5 291.907C463.2 291.607 463 291.207 463 290.807V287.308C463 286.408 463.7 285.808 464.6 285.808C465 285.808 465.4 286.008 465.7 286.308C466 286.608 466.2 287.008 466.2 287.408V290.807ZM465.2 287.208C465.2 287.108 465.1 286.908 465 286.808C464.8 286.608 464.4 286.608 464.2 286.808C464.1 286.908 464 287.008 464 287.208V290.707C464 290.807 464.1 291.007 464.2 291.107C464.4 291.307 464.8 291.307 465 291.107C465.1 291.007 465.2 290.907 465.2 290.707V287.208Z" fill="#CACACA"/>
<path d="M474.2 290.807C474.2 291.207 474 291.607 473.7 291.907C473.4 292.207 473 292.407 472.6 292.307C471.7 292.307 471 291.607 471 290.807V287.308C471 286.408 471.7 285.808 472.6 285.808C473.5 285.808 474.2 286.508 474.2 287.308V290.807ZM473.1 287.208C473.1 287.108 473 286.908 472.9 286.808C472.8 286.708 472.7 286.608 472.5 286.608C472.3 286.608 472.2 286.708 472.1 286.808C472 286.908 471.9 287.008 471.9 287.208V290.707C471.9 290.807 472 291.007 472.1 291.107C472.2 291.207 472.3 291.307 472.5 291.307C472.8 291.307 473.1 291.007 473.1 290.707V287.208Z" fill="#CACACA"/>
<path d="M475.8 292.307V287.308H475V286.608C475.3 286.608 475.5 286.508 475.7 286.308C475.9 286.208 476.1 286.008 476.2 285.808H476.9V292.307H475.8Z" fill="#CACACA"/>
<path d="M478.4 292.307V287.308H477.6V286.608C477.9 286.608 478.1 286.508 478.3 286.308C478.5 286.208 478.7 286.008 478.8 285.808H479.5V292.307H478.4Z" fill="#CACACA"/>
<path d="M481 292.307V287.308H480.2V286.608C480.5 286.608 480.7 286.508 480.9 286.308C481.1 286.208 481.3 286.008 481.4 285.808H482.1V292.307H481Z" fill="#CACACA"/>
<path d="M494.8 268.711V263.712H494V263.012C494.3 263.012 494.5 262.912 494.7 262.712C494.9 262.612 495.1 262.412 495.2 262.213H495.9V268.711H494.8Z" fill="#CACACA"/>
<path d="M317 116.792C317 116.24 316.552 115.792 316 115.792H95C94.4477 115.792 94 116.24 94 116.792V295.792C94 296.344 94.4477 296.792 95 296.792H316C316.552 296.792 317 296.344 317 295.792V116.792Z" stroke="#303030" stroke-width="2" stroke-miterlimit="10" stroke-linecap="round" stroke-linejoin="round"/>
<rect x="44.5" y="217.5" width="67" height="47" rx="2.5" fill="url(#paint10_linear_3404_59074)"/>
<rect x="44.5" y="217.5" width="67" height="47" rx="2.5" stroke="#333333"/>
<path d="M86.2 250.513L100.2 244.014V239.915L86.2 233.416V238.315L94.7 241.915L86.2 245.514V250.513Z" fill="white"/>
<path d="M77 231.717H74.4L78.9 252.413H81.4L77 231.717Z" fill="white"/>
<path d="M69.9 245.714L61.4 242.115L69.9 238.515V233.516L55.9 240.015V244.114L69.9 250.613V245.714Z" fill="white"/>
<path d="M450 58H305V252H450V58Z" fill="#EFEFEF"/>
<path d="M435.554 263.953L291.55 264V70.0039C318.833 70.0039 354.809 70.0019 384.1 70L421.444 69.9973L432.524 69.9964L435.513 69.9962L435.55 69.9962C435.55 102.321 435.551 134.648 435.552 166.975V166.975C435.553 199.302 435.554 231.629 435.554 263.953Z" fill="white" stroke="#333333" stroke-width="2"/>
<path d="M315.3 122.5V92.5H411.25V122.5H315.3Z" fill="#D9F4FF" stroke="#9ADAF3"/>
<path d="M411.75 137H331.5V139H411.75V137Z" fill="#E1E1E1"/>
<path d="M411.75 151H314.8V153H411.75V151Z" fill="#E1E1E1"/>
<path d="M411.75 165H314.8V167H411.75V165Z" fill="#E1E1E1"/>
<path d="M411.75 179H314.8V181H411.75V179Z" fill="#E1E1E1"/>
<path d="M395.693 193H314.8V195H395.693V193Z" fill="#E1E1E1"/>
<path d="M411.75 210H327.422V212H411.75V210Z" fill="#E1E1E1"/>
<path d="M411.75 224H314.8V226H411.75V224Z" fill="#E1E1E1"/>
<path d="M395.693 238H314.8V240H395.693V238Z" fill="#E1E1E1"/>
<path d="M474.4 222.792H392.4V280.792H474.4V222.792Z" fill="url(#paint11_linear_3404_59074)"/>
<path d="M474.703 281.792H393.097C392.699 281.792 392.4 281.489 392.4 281.086V222.498C392.4 222.095 392.699 221.792 393.097 221.792H474.703C475.101 221.792 475.4 222.095 475.4 222.498V281.086C475.4 281.489 475.101 281.792 474.703 281.792ZM394.4 279.792H473.4V223.792H394.4V279.792Z" fill="#303030"/>
<path d="M400 228C400 228.5 399.545 229 399 229C398.455 229 398 228.6 398 228C398 227.5 398.455 227 399 227C399.545 227 400 227.4 400 228Z" fill="white"/>
<path d="M404 228C404 228.5 403.545 229 403 229C402.455 229 402 228.6 402 228C402 227.5 402.455 227 403 227C403.545 227 404 227.4 404 228Z" fill="white"/>
<path d="M408 228C408 228.5 407.545 229 407 229C406.455 229 406 228.6 406 228C406 227.5 406.455 227 407 227C407.545 227 408 227.4 408 228Z" fill="white"/>
<path d="M473.4 233.792H394.4V234.792H473.4V233.792Z" fill="white"/>
<path d="M406.298 252.277C406.298 253.185 406.036 253.893 405.511 254.401C404.994 254.909 404.278 255.163 403.361 255.163C402.228 255.163 401.275 254.709 400.5 253.801L401.412 252.402C401.712 252.718 402.024 252.96 402.349 253.126C402.682 253.293 402.987 253.376 403.261 253.376C403.595 253.376 403.853 253.276 404.036 253.076C404.219 252.877 404.311 252.593 404.311 252.227V248.003H401.3V246.329H406.298V252.277ZM411.926 255.076V254.289C411.701 254.572 411.41 254.788 411.052 254.938C410.693 255.088 410.281 255.163 409.815 255.163C409.106 255.163 408.544 254.972 408.128 254.588C407.711 254.197 407.503 253.689 407.503 253.064C407.503 252.431 407.724 251.939 408.165 251.589C408.615 251.231 409.248 251.048 410.064 251.04H411.914V250.915C411.914 250.556 411.793 250.281 411.552 250.09C411.318 249.89 410.973 249.79 410.514 249.79C409.89 249.79 409.223 249.986 408.515 250.377L407.915 249.053C408.448 248.786 408.948 248.59 409.415 248.465C409.881 248.34 410.394 248.278 410.952 248.278C411.851 248.278 412.547 248.49 413.039 248.915C413.538 249.34 413.792 249.932 413.801 250.69L413.813 255.076H411.926ZM410.352 253.789C410.752 253.789 411.097 253.693 411.389 253.501C411.681 253.31 411.856 253.068 411.914 252.777V252.177H410.402C410.027 252.177 409.748 252.239 409.565 252.364C409.39 252.481 409.302 252.672 409.302 252.939C409.302 253.197 409.394 253.405 409.577 253.564C409.769 253.714 410.027 253.789 410.352 253.789ZM414.387 248.365L416.374 248.353L417.961 253.251L419.536 248.353H421.448L418.911 255.076H416.937L414.387 248.365ZM426.009 255.076V254.289C425.784 254.572 425.492 254.788 425.134 254.938C424.776 255.088 424.364 255.163 423.897 255.163C423.189 255.163 422.627 254.972 422.21 254.588C421.794 254.197 421.585 253.689 421.585 253.064C421.585 252.431 421.806 251.939 422.248 251.589C422.697 251.231 423.331 251.048 424.147 251.04H425.996V250.915C425.996 250.556 425.876 250.281 425.634 250.09C425.401 249.89 425.055 249.79 424.597 249.79C423.972 249.79 423.306 249.986 422.597 250.377L421.998 249.053C422.531 248.786 423.031 248.59 423.497 248.465C423.964 248.34 424.476 248.278 425.034 248.278C425.934 248.278 426.629 248.49 427.121 248.915C427.621 249.34 427.875 249.932 427.883 250.69L427.896 255.076H426.009ZM424.434 253.789C424.834 253.789 425.18 253.693 425.472 253.501C425.763 253.31 425.938 253.068 425.996 252.777V252.177H424.484C424.109 252.177 423.83 252.239 423.647 252.364C423.472 252.481 423.385 252.672 423.385 252.939C423.385 253.197 423.476 253.405 423.66 253.564C423.851 253.714 424.109 253.789 424.434 253.789ZM435.352 248.765C434.902 248.49 434.423 248.274 433.915 248.116C433.415 247.949 432.986 247.866 432.628 247.866C432.286 247.866 432.016 247.928 431.816 248.053C431.616 248.178 431.516 248.361 431.516 248.603C431.516 248.911 431.658 249.149 431.941 249.315C432.232 249.473 432.678 249.64 433.278 249.815C433.878 249.99 434.369 250.165 434.752 250.34C435.144 250.515 435.477 250.777 435.752 251.127C436.027 251.477 436.164 251.939 436.164 252.514C436.164 253.072 436.014 253.555 435.715 253.964C435.423 254.364 435.019 254.668 434.502 254.876C433.986 255.084 433.399 255.188 432.741 255.188C432.032 255.188 431.337 255.063 430.654 254.813C429.971 254.563 429.379 254.222 428.879 253.789L429.666 252.177C430.108 252.577 430.616 252.897 431.191 253.139C431.766 253.381 432.291 253.501 432.766 253.501C433.174 253.501 433.49 253.426 433.715 253.276C433.948 253.126 434.065 252.91 434.065 252.627C434.065 252.402 433.986 252.218 433.828 252.077C433.678 251.927 433.482 251.806 433.24 251.714C433.007 251.623 432.682 251.519 432.266 251.402C431.666 251.235 431.174 251.069 430.791 250.902C430.416 250.736 430.091 250.481 429.816 250.14C429.542 249.798 429.404 249.344 429.404 248.778C429.404 248.253 429.546 247.795 429.829 247.403C430.112 247.003 430.508 246.699 431.016 246.491C431.524 246.274 432.116 246.166 432.791 246.166C433.39 246.166 433.982 246.254 434.565 246.429C435.148 246.603 435.665 246.837 436.114 247.128L435.352 248.765ZM441.997 250.64C441.613 250.165 441.114 249.927 440.497 249.927C440.014 249.927 439.618 250.094 439.31 250.427C439.01 250.752 438.86 251.185 438.86 251.727C438.86 252.268 439.01 252.71 439.31 253.051C439.61 253.385 439.993 253.551 440.46 253.551C441.159 253.551 441.68 253.289 442.022 252.764L443.346 253.664C443.063 254.139 442.663 254.505 442.147 254.763C441.638 255.022 441.043 255.151 440.36 255.151C439.685 255.151 439.089 255.009 438.573 254.726C438.056 254.443 437.652 254.043 437.361 253.526C437.077 253.01 436.936 252.414 436.936 251.739C436.936 251.056 437.077 250.456 437.361 249.94C437.652 249.415 438.056 249.011 438.573 248.728C439.097 248.436 439.701 248.29 440.385 248.29C441.026 248.29 441.597 248.415 442.097 248.665C442.596 248.907 442.996 249.253 443.296 249.703L441.997 250.64ZM446.476 249.565C446.709 249.149 447.013 248.832 447.388 248.615C447.763 248.399 448.201 248.286 448.7 248.278V250.09C448.634 250.082 448.534 250.077 448.401 250.077C447.809 250.077 447.338 250.24 446.988 250.565C446.647 250.881 446.476 251.306 446.476 251.839V255.076H444.552V248.353H446.476V249.565ZM449.75 248.353H451.675V255.076H449.75V248.353ZM450.7 245.366C451.008 245.366 451.258 245.466 451.45 245.666C451.65 245.866 451.75 246.124 451.75 246.441C451.75 246.758 451.65 247.016 451.45 247.216C451.258 247.416 451.008 247.516 450.7 247.516C450.4 247.516 450.15 247.416 449.95 247.216C449.759 247.008 449.663 246.749 449.663 246.441C449.663 246.124 449.759 245.866 449.95 245.666C450.15 245.466 450.4 245.366 450.7 245.366ZM457.632 248.29C458.257 248.29 458.807 248.436 459.282 248.728C459.765 249.011 460.136 249.415 460.394 249.94C460.66 250.465 460.794 251.069 460.794 251.752C460.794 252.427 460.665 253.022 460.406 253.539C460.148 254.047 459.782 254.443 459.307 254.726C458.84 255.009 458.295 255.151 457.67 255.151C457.203 255.151 456.787 255.063 456.42 254.888C456.062 254.705 455.758 254.443 455.508 254.101V257.5H453.584V248.353H455.508V249.34C455.75 248.999 456.049 248.74 456.408 248.565C456.774 248.382 457.182 248.29 457.632 248.29ZM457.182 253.551C457.674 253.551 458.074 253.381 458.382 253.039C458.69 252.689 458.844 252.239 458.844 251.689C458.844 251.148 458.69 250.706 458.382 250.365C458.074 250.015 457.674 249.84 457.182 249.84C456.691 249.84 456.287 250.015 455.97 250.365C455.662 250.706 455.508 251.148 455.508 251.689C455.508 252.248 455.662 252.697 455.97 253.039C456.287 253.381 456.691 253.551 457.182 253.551ZM466.224 254.701C465.975 254.851 465.695 254.968 465.387 255.051C465.087 255.126 464.783 255.163 464.475 255.163C463.85 255.163 463.342 254.984 462.951 254.626C462.559 254.268 462.363 253.755 462.363 253.089V249.977H461.426V248.653H462.363V246.803H464.275V248.653H466.1V249.99H464.275V252.764C464.275 253.281 464.479 253.539 464.887 253.539C465.171 253.539 465.483 253.455 465.825 253.289L466.224 254.701Z" fill="white"/>
<path d="M421.437 267.316L425.336 258.569H427.335L431.247 267.316H429.122L425.923 259.593H426.723L423.512 267.316H421.437ZM423.387 265.441L423.924 263.904H428.423L428.972 265.441H423.387ZM432.154 267.316V258.569H435.941C436.724 258.569 437.398 258.698 437.965 258.956C438.531 259.206 438.969 259.568 439.277 260.043C439.585 260.518 439.739 261.084 439.739 261.743C439.739 262.392 439.585 262.955 439.277 263.43C438.969 263.904 438.531 264.271 437.965 264.529C437.398 264.779 436.724 264.904 435.941 264.904H433.279L434.179 263.992V267.316H432.154ZM434.179 264.217L433.279 263.255H435.828C436.453 263.255 436.919 263.121 437.228 262.855C437.536 262.588 437.69 262.217 437.69 261.743C437.69 261.259 437.536 260.884 437.228 260.618C436.919 260.351 436.453 260.218 435.828 260.218H433.279L434.179 259.256V264.217ZM441.185 267.316V258.569H443.209V267.316H441.185Z" fill="white"/>
<defs>
<linearGradient id="paint0_linear_3404_59074" x1="142.977" y1="197.311" x2="151.013" y2="197.311" gradientUnits="userSpaceOnUse">
<stop stop-color="#FDC471"/>
<stop offset="1" stop-color="#FD703D"/>
</linearGradient>
<linearGradient id="paint1_linear_3404_59074" x1="117.004" y1="269.32" x2="124.737" y2="269.32" gradientUnits="userSpaceOnUse">
<stop stop-color="#FDC471"/>
<stop offset="1" stop-color="#FD703D"/>
</linearGradient>
<linearGradient id="paint2_linear_3404_59074" x1="188.957" y1="153.287" x2="206.96" y2="153.287" gradientUnits="userSpaceOnUse">
<stop stop-color="#FDC471"/>
<stop offset="1" stop-color="#FD703D"/>
</linearGradient>
<linearGradient id="paint3_linear_3404_59074" x1="168.572" y1="186.268" x2="178.894" y2="186.268" gradientUnits="userSpaceOnUse">
<stop stop-color="#FDC471"/>
<stop offset="1" stop-color="#FD703D"/>
</linearGradient>
<linearGradient id="paint4_linear_3404_59074" x1="159.99" y1="233.304" x2="170.312" y2="233.304" gradientUnits="userSpaceOnUse">
<stop stop-color="#FDC471"/>
<stop offset="1" stop-color="#FD703D"/>
</linearGradient>
<linearGradient id="paint5_linear_3404_59074" x1="135.956" y1="164.247" x2="138.975" y2="164.247" gradientUnits="userSpaceOnUse">
<stop stop-color="#FDC471"/>
<stop offset="1" stop-color="#FD703D"/>
</linearGradient>
<linearGradient id="paint6_linear_3404_59074" x1="203.539" y1="175.307" x2="212.34" y2="175.307" gradientUnits="userSpaceOnUse">
<stop stop-color="#FDC471"/>
<stop offset="1" stop-color="#FD703D"/>
</linearGradient>
<linearGradient id="paint7_linear_3404_59074" x1="127.681" y1="269.32" x2="136.482" y2="269.32" gradientUnits="userSpaceOnUse">
<stop stop-color="#FDC471"/>
<stop offset="1" stop-color="#FD703D"/>
</linearGradient>
<linearGradient id="paint8_linear_3404_59074" x1="135.192" y1="175.307" x2="141.635" y2="175.307" gradientUnits="userSpaceOnUse">
<stop stop-color="#FDC471"/>
<stop offset="1" stop-color="#FD703D"/>
</linearGradient>
<linearGradient id="paint9_linear_3404_59074" x1="134.476" y1="221.278" x2="140.919" y2="221.278" gradientUnits="userSpaceOnUse">
<stop stop-color="#FDC471"/>
<stop offset="1" stop-color="#FD703D"/>
</linearGradient>
<linearGradient id="paint10_linear_3404_59074" x1="44.0001" y1="215.125" x2="88.656" y2="280.859" gradientUnits="userSpaceOnUse">
<stop stop-color="#FF8E3D"/>
<stop offset="1" stop-color="#FF6F3D"/>
</linearGradient>
<linearGradient id="paint11_linear_3404_59074" x1="392.4" y1="220.526" x2="446.4" y2="299.853" gradientUnits="userSpaceOnUse">
<stop stop-color="#FFC671"/>
<stop offset="0.59375" stop-color="#FF7541"/>
<stop offset="1" stop-color="#FF6F3D"/>
</linearGradient>
</defs>
</svg>
