<svg width="336" height="375" viewBox="0 0 336 375" fill="none" xmlns="http://www.w3.org/2000/svg">
<path fill-rule="evenodd" clip-rule="evenodd" d="M235.071 123.343L228.707 129.707C228.317 130.098 227.683 130.098 227.293 129.707L220.929 123.343C220.538 122.953 220.538 122.319 220.929 121.929C221.32 121.538 221.953 121.538 222.343 121.929L227 126.586L227 89L229 89L229 126.586L233.657 121.929C234.047 121.538 234.681 121.538 235.071 121.929C235.462 122.319 235.462 122.953 235.071 123.343Z" fill="#808080"/>
<path d="M187.394 149.127C186.56 149.127 185.907 148.824 185.433 148.219H185.331C185.399 148.812 185.433 149.154 185.433 149.248V152.123H183.497V141.903H185.071L185.344 142.824H185.433C185.885 142.121 186.556 141.77 187.445 141.77C188.283 141.77 188.939 142.094 189.413 142.741C189.887 143.389 190.124 144.288 190.124 145.439C190.124 146.196 190.011 146.854 189.787 147.413C189.567 147.972 189.252 148.397 188.841 148.689C188.431 148.981 187.948 149.127 187.394 149.127ZM186.823 143.319C186.345 143.319 185.995 143.467 185.775 143.763C185.555 144.055 185.441 144.54 185.433 145.217V145.426C185.433 146.188 185.545 146.734 185.769 147.064C185.998 147.394 186.357 147.559 186.848 147.559C187.716 147.559 188.149 146.844 188.149 145.414C188.149 144.715 188.042 144.193 187.826 143.846C187.614 143.494 187.28 143.319 186.823 143.319Z" fill="#808080"/>
<path d="M195.684 141.77C195.946 141.77 196.164 141.789 196.338 141.827L196.192 143.643C196.035 143.6 195.845 143.579 195.621 143.579C195.003 143.579 194.52 143.738 194.173 144.055C193.831 144.373 193.659 144.817 193.659 145.388V149H191.723V141.903H193.189L193.475 143.097H193.57C193.79 142.699 194.087 142.379 194.459 142.138C194.836 141.893 195.244 141.77 195.684 141.77Z" fill="#808080"/>
<path d="M197.544 140.069C197.544 139.438 197.895 139.123 198.598 139.123C199.3 139.123 199.651 139.438 199.651 140.069C199.651 140.369 199.562 140.604 199.385 140.773C199.211 140.938 198.949 141.021 198.598 141.021C197.895 141.021 197.544 140.704 197.544 140.069ZM199.562 149H197.626V141.903H199.562V149Z" fill="#808080"/>
<path d="M203.289 149L200.584 141.903H202.609L203.98 145.947C204.133 146.459 204.228 146.943 204.266 147.4H204.304C204.325 146.994 204.421 146.51 204.59 145.947L205.955 141.903H207.979L205.275 149H203.289Z" fill="#808080"/>
<path d="M213.508 149L213.134 148.035H213.083C212.757 148.446 212.421 148.731 212.074 148.892C211.731 149.049 211.282 149.127 210.728 149.127C210.047 149.127 209.509 148.932 209.116 148.543C208.726 148.154 208.532 147.599 208.532 146.88C208.532 146.127 208.794 145.572 209.319 145.217C209.848 144.857 210.643 144.658 211.706 144.62L212.937 144.582V144.271C212.937 143.552 212.569 143.192 211.833 143.192C211.265 143.192 210.599 143.363 209.833 143.706L209.192 142.398C210.009 141.971 210.914 141.757 211.909 141.757C212.861 141.757 213.591 141.965 214.099 142.379C214.606 142.794 214.86 143.425 214.86 144.271V149H213.508ZM212.937 145.712L212.188 145.737C211.625 145.754 211.206 145.856 210.931 146.042C210.656 146.228 210.519 146.512 210.519 146.893C210.519 147.438 210.832 147.711 211.458 147.711C211.907 147.711 212.264 147.582 212.531 147.324C212.802 147.066 212.937 146.723 212.937 146.296V145.712Z" fill="#808080"/>
<path d="M219.85 147.584C220.188 147.584 220.594 147.51 221.068 147.362V148.803C220.586 149.019 219.993 149.127 219.291 149.127C218.517 149.127 217.952 148.932 217.596 148.543C217.245 148.149 217.069 147.561 217.069 146.778V143.357H216.143V142.538L217.209 141.891L217.768 140.393H219.005V141.903H220.992V143.357H219.005V146.778C219.005 147.053 219.082 147.257 219.234 147.388C219.39 147.519 219.596 147.584 219.85 147.584Z" fill="#808080"/>
<path d="M225.448 143.147C225.038 143.147 224.716 143.279 224.483 143.541C224.251 143.799 224.117 144.167 224.083 144.646H226.8C226.792 144.167 226.667 143.799 226.426 143.541C226.185 143.279 225.859 143.147 225.448 143.147ZM225.721 149.127C224.579 149.127 223.686 148.812 223.042 148.181C222.399 147.551 222.078 146.658 222.078 145.502C222.078 144.313 222.374 143.395 222.966 142.748C223.563 142.096 224.386 141.77 225.436 141.77C226.438 141.77 227.219 142.056 227.778 142.627C228.336 143.198 228.616 143.987 228.616 144.995V145.934H224.039C224.06 146.484 224.223 146.914 224.528 147.223C224.833 147.532 225.26 147.686 225.81 147.686C226.237 147.686 226.642 147.642 227.022 147.553C227.403 147.464 227.801 147.322 228.216 147.127V148.625C227.877 148.795 227.515 148.92 227.13 149C226.745 149.085 226.276 149.127 225.721 149.127Z" fill="#808080"/>
<path d="M237.528 141.77C237.79 141.77 238.008 141.789 238.182 141.827L238.036 143.643C237.879 143.6 237.689 143.579 237.464 143.579C236.847 143.579 236.364 143.738 236.017 144.055C235.674 144.373 235.503 144.817 235.503 145.388V149H233.567V141.903H235.033L235.319 143.097H235.414C235.634 142.699 235.93 142.379 236.303 142.138C236.679 141.893 237.088 141.77 237.528 141.77Z" fill="#808080"/>
<path d="M240.746 145.439C240.746 146.141 240.86 146.673 241.089 147.032C241.322 147.392 241.698 147.572 242.219 147.572C242.735 147.572 243.105 147.394 243.33 147.039C243.558 146.679 243.672 146.146 243.672 145.439C243.672 144.736 243.558 144.21 243.33 143.858C243.101 143.507 242.727 143.332 242.206 143.332C241.69 143.332 241.317 143.507 241.089 143.858C240.86 144.205 240.746 144.732 240.746 145.439ZM245.653 145.439C245.653 146.594 245.348 147.498 244.739 148.149C244.129 148.801 243.281 149.127 242.193 149.127C241.512 149.127 240.911 148.979 240.391 148.683C239.87 148.382 239.47 147.953 239.191 147.394C238.912 146.835 238.772 146.184 238.772 145.439C238.772 144.279 239.075 143.378 239.68 142.735C240.285 142.092 241.135 141.77 242.231 141.77C242.913 141.77 243.514 141.918 244.034 142.214C244.555 142.511 244.955 142.936 245.234 143.49C245.513 144.045 245.653 144.694 245.653 145.439Z" fill="#808080"/>
<path d="M248.795 145.439C248.795 146.141 248.909 146.673 249.138 147.032C249.37 147.392 249.747 147.572 250.268 147.572C250.784 147.572 251.154 147.394 251.378 147.039C251.607 146.679 251.721 146.146 251.721 145.439C251.721 144.736 251.607 144.21 251.378 143.858C251.15 143.507 250.775 143.332 250.255 143.332C249.739 143.332 249.366 143.507 249.138 143.858C248.909 144.205 248.795 144.732 248.795 145.439ZM253.702 145.439C253.702 146.594 253.397 147.498 252.788 148.149C252.178 148.801 251.33 149.127 250.242 149.127C249.561 149.127 248.96 148.979 248.439 148.683C247.919 148.382 247.519 147.953 247.24 147.394C246.96 146.835 246.821 146.184 246.821 145.439C246.821 144.279 247.123 143.378 247.729 142.735C248.334 142.092 249.184 141.77 250.28 141.77C250.962 141.77 251.562 141.918 252.083 142.214C252.604 142.511 253.003 142.936 253.283 143.49C253.562 144.045 253.702 144.694 253.702 145.439Z" fill="#808080"/>
<path d="M261.655 149H259.719V144.855C259.719 144.343 259.632 143.96 259.459 143.706C259.29 143.448 259.021 143.319 258.653 143.319C258.158 143.319 257.798 143.501 257.574 143.865C257.349 144.229 257.237 144.827 257.237 145.661V149H255.301V141.903H256.78L257.041 142.811H257.148C257.339 142.485 257.614 142.231 257.974 142.049C258.333 141.863 258.746 141.77 259.211 141.77C260.274 141.77 260.993 142.117 261.37 142.811H261.541C261.731 142.481 262.011 142.225 262.379 142.043C262.751 141.861 263.17 141.77 263.636 141.77C264.44 141.77 265.047 141.977 265.458 142.392C265.872 142.803 266.08 143.463 266.08 144.373V149H264.137V144.855C264.137 144.343 264.05 143.96 263.877 143.706C263.708 143.448 263.439 143.319 263.071 143.319C262.597 143.319 262.241 143.488 262.004 143.827C261.772 144.165 261.655 144.703 261.655 145.439V149Z" fill="#808080"/>
<path d="M273.024 146.893C273.024 147.62 272.77 148.175 272.262 148.556C271.759 148.937 271.003 149.127 269.996 149.127C269.48 149.127 269.04 149.091 268.676 149.019C268.312 148.951 267.971 148.85 267.654 148.714V147.115C268.014 147.284 268.418 147.426 268.866 147.54C269.319 147.654 269.717 147.711 270.06 147.711C270.762 147.711 271.113 147.508 271.113 147.102C271.113 146.95 271.067 146.827 270.974 146.734C270.881 146.637 270.72 146.529 270.491 146.41C270.263 146.287 269.958 146.146 269.577 145.985C269.031 145.756 268.629 145.545 268.371 145.35C268.117 145.155 267.931 144.933 267.812 144.684C267.698 144.43 267.641 144.119 267.641 143.75C267.641 143.12 267.884 142.633 268.371 142.291C268.862 141.944 269.556 141.77 270.453 141.77C271.308 141.77 272.139 141.956 272.948 142.329L272.364 143.725C272.008 143.573 271.676 143.448 271.367 143.351C271.058 143.253 270.743 143.205 270.421 143.205C269.85 143.205 269.564 143.359 269.564 143.668C269.564 143.841 269.655 143.992 269.837 144.119C270.024 144.246 270.428 144.434 271.05 144.684C271.604 144.908 272.01 145.117 272.269 145.312C272.527 145.507 272.717 145.731 272.84 145.985C272.963 146.239 273.024 146.541 273.024 146.893Z" fill="#808080"/>
<g filter="url(#filter0_d)">
<path d="M204 170.695C204 168.792 205.988 166 208.457 166H242L257 181V228.305C257 230.906 255.013 233 252.543 233H208.457C205.988 233 204 230.906 204 228.305V170.695Z" fill="white"/>
<path d="M244.5 181C244.5 181 242 181 242 178.5V166L257 181H244.5Z" fill="url(#paint0_linear)"/>
<path fill-rule="evenodd" clip-rule="evenodd" d="M236 182.999H213V180.999H236V182.999Z" fill="#CCCCCC"/>
<path fill-rule="evenodd" clip-rule="evenodd" d="M248 187.999H213V185.999H248V187.999Z" fill="#CCCCCC"/>
<path fill-rule="evenodd" clip-rule="evenodd" d="M248 192.999H213V190.999H248V192.999Z" fill="#CCCCCC"/>
<path d="M219.689 213.501L219.003 214.538L216.923 213.085L216.997 215.459H215.663L215.703 213.153L213.67 214.545L212.989 213.494L215.283 212.109L213.003 210.711L213.669 209.66L215.702 211.072L215.662 208.759H216.988L216.949 211.072L219.002 209.667L219.688 210.717L217.381 212.101L219.689 213.501Z" fill="#AAAAAA"/>
<path d="M229.069 213.501L228.382 214.538L226.303 213.085L226.376 215.459H225.043L225.083 213.153L223.049 214.545L222.369 213.494L224.661 212.109L222.38 210.711L223.047 209.66L225.081 211.072L225.041 208.759H226.367L226.327 211.072L228.38 209.667L229.067 210.717L226.759 212.101L229.069 213.501Z" fill="#AAAAAA"/>
<path d="M238.448 213.501L237.762 214.538L235.683 213.085L235.755 215.459H234.422L234.461 213.153L232.429 214.545L231.75 213.494L234.042 212.109L231.762 210.711L232.429 209.66L234.461 211.072L234.422 208.759H235.75L235.71 211.072L237.763 209.667L238.45 210.717L236.142 212.101L238.448 213.501Z" fill="#AAAAAA"/>
<path d="M247.828 213.501L247.141 214.538L245.062 213.085L245.135 215.459H243.802L243.841 213.153L241.809 214.545L241.129 213.494L243.422 212.109L241.141 210.711L241.809 209.66L243.841 211.072L243.802 208.759H245.129L245.089 211.072L247.142 209.667L247.829 210.717L245.522 212.101L247.828 213.501Z" fill="#AAAAAA"/>
<path d="M219.689 222.881L219.003 223.918L216.923 222.464L216.997 224.839H215.663L215.703 222.533L213.67 223.925L212.989 222.874L215.283 221.489L213.003 220.091L213.669 219.04L215.702 220.452L215.662 218.139H216.988L216.949 220.452L219.002 219.047L219.688 220.096L217.381 221.481L219.689 222.881Z" fill="#AAAAAA"/>
<path d="M229.069 222.881L228.382 223.918L226.303 222.464L226.376 224.839H225.043L225.083 222.533L223.049 223.925L222.369 222.874L224.661 221.489L222.38 220.091L223.047 219.04L225.081 220.452L225.041 218.139H226.367L226.327 220.452L228.38 219.047L229.067 220.096L226.759 221.481L229.069 222.881Z" fill="#AAAAAA"/>
<path d="M238.45 222.881L237.763 223.918L235.683 222.464L235.757 224.839H234.423L234.464 222.533L232.43 223.925L231.75 222.874L234.042 221.489L231.761 220.091L232.427 219.04L234.461 220.452L234.421 218.139H235.748L235.708 220.452L237.76 219.047L238.447 220.096L236.139 221.481L238.45 222.881Z" fill="#AAAAAA"/>
<path d="M247.829 222.881L247.142 223.918L245.063 222.464L245.136 224.839H243.803L243.843 222.533L241.809 223.925L241.129 222.874L243.421 221.489L241.14 220.091L241.807 219.04L243.841 220.452L243.801 218.139H245.127L245.087 220.452L247.14 219.047L247.827 220.096L245.519 221.481L247.829 222.881Z" fill="#AAAAAA"/>
<path d="M219.689 204.241L219.003 205.278L216.923 203.825L216.997 206.2H215.663L215.703 203.893L213.67 205.285L212.989 204.234L215.283 202.85L213.003 201.451L213.669 200.4L215.702 201.813L215.662 199.5H216.988L216.949 201.813L219.002 200.407L219.688 201.457L217.381 202.842L219.689 204.241Z" fill="#AAAAAA"/>
<path d="M229.069 204.241L228.382 205.278L226.303 203.825L226.376 206.2H225.043L225.083 203.893L223.049 205.285L222.369 204.234L224.661 202.85L222.38 201.451L223.047 200.4L225.081 201.813L225.041 199.5H226.367L226.327 201.813L228.38 200.407L229.067 201.457L226.759 202.842L229.069 204.241Z" fill="#AAAAAA"/>
<path d="M238.448 204.241L237.762 205.278L235.683 203.825L235.755 206.2H234.422L234.461 203.893L232.429 205.285L231.75 204.234L234.042 202.85L231.762 201.451L232.429 200.4L234.461 201.813L234.422 199.5H235.75L235.71 201.813L237.763 200.407L238.45 201.457L236.142 202.842L238.448 204.241Z" fill="#AAAAAA"/>
<path d="M247.828 204.241L247.141 205.278L245.062 203.825L245.135 206.2H243.802L243.841 203.893L241.809 205.285L241.129 204.234L243.422 202.85L241.141 201.451L241.809 200.4L243.841 201.813L243.802 199.5H245.129L245.089 201.813L247.142 200.407L247.829 201.457L245.522 202.842L247.828 204.241Z" fill="#AAAAAA"/>
</g>
<path d="M241 207C241 214.179 246.82 220 254 220C261.18 220 267 214.179 267 207C267 199.82 261.18 194 254 194C246.82 194 241 199.82 241 207Z" fill="#666666"/>
<path fill-rule="evenodd" clip-rule="evenodd" d="M247.285 206.433C248.636 207.785 250.649 208.071 252.272 207.287L259.194 213.95C259.438 214.194 259.832 214.195 260.075 213.952L260.514 213.513C260.756 213.271 261.271 212.692 261.027 212.448L260.416 211.845L261.827 210.434C262.07 210.191 262.069 209.797 261.825 209.553L261.038 208.766C260.794 208.522 260.402 208.524 260.159 208.766L258.665 210.115L254.105 205.61C255.107 203.938 254.882 201.732 253.434 200.284C251.727 198.577 248.967 198.57 247.269 200.268C245.571 201.966 245.578 204.727 247.285 206.433ZM250.272 205.421C251.376 205.421 252.272 204.525 252.272 203.421C252.272 202.316 251.376 201.421 250.272 201.421C249.167 201.421 248.272 202.316 248.272 203.421C248.272 204.525 249.167 205.421 250.272 205.421Z" fill="#F5F5F5"/>
<g filter="url(#filter1_d)">
<mask id="mask0" mask-type="alpha" maskUnits="userSpaceOnUse" x="15" y="179" width="48" height="48">
<path d="M63 203C63 216.255 52.2548 227 39 227C25.7452 227 15 216.255 15 203C15 189.745 25.7452 179 39 179C52.2548 179 63 189.745 63 203Z" fill="white"/>
</mask>
<g mask="url(#mask0)">
<path d="M63 202.5C63 216.031 52.031 227 38.5 227C24.969 227 14 216.031 14 202.5C14 188.969 24.969 178 38.5 178C52.031 178 63 188.969 63 202.5Z" fill="url(#paint1_linear)"/>
<path d="M45.6198 214.357V208.833H31.4155V214.357L38.5178 220.67L45.6198 214.357Z" fill="#F9D5B2"/>
<path d="M56.6012 216.94L46.8365 214.643C46.6891 214.608 46.5534 214.549 46.4264 214.478L38.5173 219.091L30.9167 214.255C30.7199 214.44 30.4759 214.578 30.1983 214.643L20.4337 216.94C19.0077 217.276 18 218.548 18 220.013V226.193C18 227.065 18.7066 227.772 19.5783 227.772H57.4562C58.3279 227.772 59.0345 227.065 59.0345 226.193V220.013C59.0349 218.548 58.0271 217.276 56.6012 216.94Z" fill="#F5F5F5"/>
<path d="M28.259 190.683L28.9467 205.811C29.011 207.225 29.7039 208.535 30.8357 209.384L34.0986 211.831C34.9181 212.446 35.915 212.778 36.9393 212.778H40.0959C41.1202 212.778 42.1173 212.446 42.9366 211.831L46.1995 209.384C47.3313 208.535 48.0242 207.225 48.0885 205.811L48.7762 190.683H28.259Z" fill="#FFDFB9"/>
<path d="M53.2414 222.65L58.3549 218.057C58.7834 218.599 59.0347 219.282 59.0347 220.013V226.193C59.0347 227.065 58.3281 227.772 57.4564 227.772H51.9326V225.585C51.9326 224.466 52.4086 223.399 53.2414 222.65Z" fill="#5B5D6E"/>
<path d="M23.7937 222.651L18.6803 218.057C18.2518 218.6 18.0005 219.283 18.0005 220.014V226.194C18.0005 227.066 18.7071 227.772 19.5787 227.772H25.1025V225.586C25.1027 224.466 24.6268 223.399 23.7937 222.651Z" fill="#5B5D6E"/>
<path d="M40.4907 227.772H36.5449L37.0383 220.67H39.9975L40.4907 227.772Z" fill="#CCCCCC"/>
<path d="M40.4907 219.092H36.5449V219.547C36.5449 220.603 37.4007 221.459 38.4565 221.459H38.5789C39.6347 221.459 40.4905 220.603 40.4905 219.547L40.4907 219.092Z" fill="#CCCCCC"/>
<path d="M31.3048 212.6L38.5176 219.092C38.5176 219.092 36.4976 220.111 34.0046 222.167C33.4905 222.591 32.7124 222.419 32.4368 221.812L29.0481 214.357L30.1201 212.749C30.387 212.349 30.9469 212.278 31.3048 212.6Z" fill="#CCCCCC"/>
<path d="M45.7304 212.6L38.5176 219.092C38.5176 219.092 40.5376 220.111 43.0306 222.167C43.5448 222.591 44.3228 222.419 44.5984 221.812L47.9871 214.357L46.9151 212.749C46.6482 212.349 46.0883 212.278 45.7304 212.6Z" fill="#CCCCCC"/>
<path d="M43.3018 185.455L44.0416 190.683C47.4185 191.359 47.9053 196.658 47.9753 198.172C47.9881 198.447 48.0757 198.712 48.2247 198.943L49.5133 200.942C49.5133 200.942 49.0722 197.637 51.0915 195.418C51.0915 195.418 51.7848 182.299 43.3018 185.455Z" fill="black"/>
<path d="M50.3052 200.604L49.414 204.169C49.3084 204.591 48.9288 204.887 48.4935 204.887C48.0151 204.887 47.6115 204.531 47.552 204.056L47.0963 200.411C46.9745 199.436 47.7346 198.574 48.7172 198.574H48.7205C49.7829 198.574 50.5626 199.573 50.3052 200.604Z" fill="#F9D5B2"/>
<path d="M29.0151 184.041L30.1825 184.838C24.9053 188.735 25.8916 195.417 25.8916 195.417C27.4699 196.996 27.4699 200.941 27.4699 200.941L29.0481 199.363C29.0481 199.363 28.439 194.804 31.4156 193.05C34.1776 191.423 36.5943 192.261 39.0602 192.261C45.6691 192.261 47.5186 189.77 47.198 186.737C47.0322 185.168 44.6325 181.899 38.5177 182.003C36.0498 182.044 31.4154 182.792 29.0151 184.041Z" fill="#242424"/>
<path d="M28.6253 191.628C28.6253 191.628 27.7869 188.323 30.2528 184.896C24.9756 188.792 25.9619 195.475 25.9619 195.475C27.5402 197.053 27.5402 200.998 27.5402 200.998L29.1184 199.42C29.1184 199.42 28.5093 194.861 31.4859 193.107C34.2479 191.48 36.6646 192.318 39.1305 192.318C40.2054 192.318 41.1421 192.246 41.9763 192.123C36.8864 192.293 33.886 188.438 28.6253 191.628Z" fill="black"/>
<path d="M26.7305 200.604L27.6216 204.169C27.7272 204.591 28.1068 204.887 28.5421 204.887C29.0205 204.887 29.4241 204.531 29.4836 204.056L29.9393 200.411C30.0611 199.436 29.301 198.574 28.3184 198.574H28.3151C27.2526 198.574 26.4728 199.573 26.7305 200.604Z" fill="#F9D5B2"/>
<path d="M47.9871 226.194H44.0414C43.1698 226.194 42.4631 226.901 42.4631 227.772H49.5654C49.5652 226.901 48.8586 226.194 47.9871 226.194Z" fill="#5B5D6E"/>
</g>
</g>
<path fill-rule="evenodd" clip-rule="evenodd" d="M105.343 195.929L111.707 202.293C112.098 202.683 112.098 203.317 111.707 203.707L105.343 210.071C104.953 210.462 104.319 210.462 103.929 210.071C103.538 209.68 103.538 209.047 103.929 208.657L108.586 204H87V202H108.586L103.929 197.343C103.538 196.953 103.538 196.319 103.929 195.929C104.319 195.538 104.953 195.538 105.343 195.929Z" fill="#808080"/>
<path fill-rule="evenodd" clip-rule="evenodd" d="M235.071 268.343L228.707 274.707C228.317 275.098 227.683 275.098 227.293 274.707L220.929 268.343C220.538 267.953 220.538 267.319 220.929 266.929C221.32 266.538 221.953 266.538 222.343 266.929L227 271.586L227 250L229 250L229 271.586L233.657 266.929C234.047 266.538 234.681 266.538 235.071 266.929C235.462 267.319 235.462 267.953 235.071 268.343Z" fill="#808080"/>
<g filter="url(#filter2_d)">
<path d="M203 292C203 288.54 205.387 286 208.564 286H240L255 301V346C255 349.461 252.613 352 249.436 352H208.564C205.387 352 203 349.461 203 346V292Z" fill="white"/>
<path d="M242.5 301C242.5 301 240 301 240 298.5V286L255 301H242.5Z" fill="url(#paint2_linear)"/>
<path fill-rule="evenodd" clip-rule="evenodd" d="M243 312H214V310H243V312Z" fill="#CCCCCC"/>
<path fill-rule="evenodd" clip-rule="evenodd" d="M243 317H214V315H243V317Z" fill="#CCCCCC"/>
<path fill-rule="evenodd" clip-rule="evenodd" d="M243 322H214V320H243V322Z" fill="#CCCCCC"/>
<path fill-rule="evenodd" clip-rule="evenodd" d="M243 332H214V330H243V332Z" fill="#CCCCCC"/>
<path fill-rule="evenodd" clip-rule="evenodd" d="M243 327H214V325H243V327Z" fill="#CCCCCC"/>
</g>
<path d="M266 326C266 333.18 260.18 339 253 339C245.82 339 240 333.18 240 326C240 318.82 245.82 313 253 313C260.18 313 266 318.82 266 326Z" fill="#666666"/>
<path fill-rule="evenodd" clip-rule="evenodd" d="M258.526 320.143C258.996 320.422 259.141 321.014 258.85 321.465L252.35 331.545C252.178 331.812 251.88 331.981 251.553 331.998C251.226 332.015 250.911 331.877 250.71 331.629L246.421 326.679C246.082 326.26 246.161 325.657 246.597 325.331C247.033 325.006 247.661 325.081 248 325.5L251.406 329.361L257.149 320.454C257.44 320.004 258.056 319.864 258.526 320.143Z" fill="white"/>
<path fill-rule="evenodd" clip-rule="evenodd" d="M127 109.5C126.699 109.5 126.405 109.53 126.121 109.586L125.927 108.605C126.275 108.536 126.633 108.5 127 108.5H128.301V109.5H127ZM133.506 109.5H130.904V108.5H133.506V109.5ZM138.712 109.5H136.109V108.5H138.712V109.5ZM143.917 109.5H141.314V108.5H143.917V109.5ZM149.122 109.5H146.519V108.5H149.122V109.5ZM154.327 109.5H151.724V108.5H154.327V109.5ZM159.532 109.5H156.929V108.5H159.532V109.5ZM164.737 109.5H162.135V108.5H164.737V109.5ZM169.942 109.5H167.34V108.5H169.942V109.5ZM175.147 109.5H172.545V108.5H175.147V109.5ZM180.353 109.5H177.75V108.5H180.353V109.5ZM185.558 109.5H182.955V108.5H185.558V109.5ZM190.763 109.5H188.16V108.5H190.763V109.5ZM195.968 109.5H193.365V108.5H195.968V109.5ZM201.173 109.5H198.571V108.5H201.173V109.5ZM206.378 109.5H203.776V108.5H206.378V109.5ZM211.583 109.5H208.981V108.5H211.583V109.5ZM216.788 109.5H214.186V108.5H216.788V109.5ZM221.994 109.5H219.391V108.5H221.994V109.5ZM227.199 109.5H224.596V108.5H227.199V109.5ZM232.404 109.5H229.801V108.5H232.404V109.5ZM237.609 109.5H235.006V108.5H237.609V109.5ZM242.814 109.5H240.212V108.5H242.814V109.5ZM248.019 109.5H245.417V108.5H248.019V109.5ZM253.224 109.5H250.622V108.5H253.224V109.5ZM258.429 109.5H255.827V108.5H258.429V109.5ZM263.635 109.5H261.032V108.5H263.635V109.5ZM268.84 109.5H266.237V108.5H268.84V109.5ZM274.045 109.5H271.442V108.5H274.045V109.5ZM279.25 109.5H276.647V108.5H279.25V109.5ZM284.455 109.5H281.853V108.5H284.455V109.5ZM289.66 109.5H287.058V108.5H289.66V109.5ZM294.865 109.5H292.263V108.5H294.865V109.5ZM300.071 109.5H297.468V108.5H300.071V109.5ZM305.276 109.5H302.673V108.5H305.276V109.5ZM310.481 109.5H307.878V108.5H310.481V109.5ZM315.686 109.5H313.083V108.5H315.686V109.5ZM320.891 109.5H318.289V108.5H320.891V109.5ZM326.096 109.5H323.494V108.5H326.096V109.5ZM330 109.5H328.699V108.5H330C330.367 108.5 330.725 108.536 331.073 108.605L330.879 109.586C330.595 109.53 330.301 109.5 330 109.5ZM124.5 110.258C124.009 110.586 123.586 111.009 123.258 111.5L122.427 110.944C122.828 110.344 123.344 109.828 123.944 109.427L124.5 110.258ZM333.742 111.5C333.414 111.009 332.991 110.586 332.5 110.258L333.056 109.427C333.656 109.828 334.172 110.344 334.573 110.944L333.742 111.5ZM122.586 113.121C122.53 113.405 122.5 113.699 122.5 114V115.301H121.5V114C121.5 113.633 121.536 113.275 121.605 112.927L122.586 113.121ZM334.5 114C334.5 113.699 334.47 113.405 334.414 113.121L335.395 112.927C335.464 113.275 335.5 113.633 335.5 114V115.301H334.5V114ZM334.5 120.505V117.903H335.5V120.505H334.5ZM122.5 117.903V120.505H121.5V117.903H122.5ZM334.5 125.709V123.107H335.5V125.709H334.5ZM122.5 123.107V125.709H121.5V123.107H122.5ZM334.5 130.913V128.311H335.5V130.913H334.5ZM122.5 128.311V130.913H121.5V128.311H122.5ZM334.5 136.117V133.515H335.5V136.117H334.5ZM122.5 133.515V136.118H121.5V133.515H122.5ZM334.5 141.321V138.719H335.5V141.321H334.5ZM122.5 138.72V141.322H121.5V138.72H122.5ZM334.5 146.526V143.923H335.5V146.526H334.5ZM122.5 143.924V146.526H121.5V143.924H122.5ZM334.5 151.73V149.128H335.5V151.73H334.5ZM122.5 149.128V151.73H121.5V149.128H122.5ZM334.5 156.934V154.332H335.5V156.934H334.5ZM122.5 154.332V156.934H121.5V154.332H122.5ZM334.5 162.138V159.536H335.5V162.138H334.5ZM122.5 159.536V162.138H121.5V159.536H122.5ZM334.5 167.342V164.74H335.5V167.342H334.5ZM122.5 164.74V167.342H121.5V164.74H122.5ZM334.5 172.546V169.944H335.5V172.546H334.5ZM122.5 169.944V172.546H121.5V169.944H122.5ZM334.5 177.75V175.148H335.5V177.75H334.5ZM122.5 175.148V177.75H121.5V175.148H122.5ZM334.5 182.954V180.352H335.5V182.954H334.5ZM122.5 180.352V182.954H121.5V180.352H122.5ZM334.5 188.158V185.556H335.5V188.158H334.5ZM122.5 185.556V188.158H121.5V185.556H122.5ZM334.5 193.362V190.76H335.5V193.362H334.5ZM122.5 190.76V193.362H121.5V190.76H122.5ZM334.5 198.566V195.964H335.5V198.566H334.5ZM122.5 195.964V198.566H121.5V195.964H122.5ZM334.5 203.77V201.168H335.5V203.77H334.5ZM122.5 201.168V203.77H121.5V201.168H122.5ZM334.5 208.975V206.372H335.5V208.975H334.5ZM122.5 206.372V208.975H121.5V206.372H122.5ZM334.5 214.179V211.577H335.5V214.179H334.5ZM122.5 211.577V214.179H121.5V211.577H122.5ZM122.5 216.781V219.383H121.5V216.781H122.5ZM334.5 219.383V216.781H335.5V219.383H334.5ZM122.5 221.985V224.587H121.5V221.985H122.5ZM334.5 224.587V221.985H335.5V224.587H334.5ZM122.5 227.189V229.791H121.5V227.189H122.5ZM334.5 229.791V227.189H335.5V229.791H334.5ZM122.5 232.393V234.995H121.5V232.393H122.5ZM334.5 234.995V232.393H335.5V234.995H334.5ZM122.5 237.597V240.199H121.5V237.597H122.5ZM334.5 240.199V237.597H335.5V240.199H334.5ZM122.5 242.801V245.403H121.5V242.801H122.5ZM334.5 245.403V242.801H335.5V245.403H334.5ZM122.5 248.005V250.607H121.5V248.005H122.5ZM334.5 250.607V248.005H335.5V250.607H334.5ZM122.5 253.209V255.811H121.5V253.209H122.5ZM334.5 255.811V253.209H335.5V255.811H334.5ZM122.5 258.413V261.015H121.5V258.413H122.5ZM334.5 261.015V258.413H335.5V261.015H334.5ZM122.5 263.617V266.219H121.5V263.617H122.5ZM334.5 266.219V263.617H335.5V266.219H334.5ZM122.5 268.821V271.423H121.5V268.821H122.5ZM334.5 271.423V268.821H335.5V271.423H334.5ZM334.5 276.628V274.025H335.5V276.628H334.5ZM122.5 274.025V276.628H121.5V274.025H122.5ZM334.5 281.832V279.23H335.5V281.832H334.5ZM122.5 279.23V281.832H121.5V279.23H122.5ZM334.5 287.036V284.434H335.5V287.036H334.5ZM122.5 284.434V287.036H121.5V284.434H122.5ZM334.5 292.24V289.638H335.5V292.24H334.5ZM122.5 289.638V292.24H121.5V289.638H122.5ZM334.5 297.444V294.842H335.5V297.444H334.5ZM122.5 294.842V297.444H121.5V294.842H122.5ZM334.5 302.648V300.046H335.5V302.648H334.5ZM122.5 300.046V302.648H121.5V300.046H122.5ZM334.5 307.852V305.25H335.5V307.852H334.5ZM122.5 305.25V307.852H121.5V305.25H122.5ZM334.5 313.056V310.454H335.5V313.056H334.5ZM122.5 310.454V313.056H121.5V310.454H122.5ZM334.5 318.26V315.658H335.5V318.26H334.5ZM122.5 315.658V318.26H121.5V315.658H122.5ZM334.5 323.464V320.862H335.5V323.464H334.5ZM122.5 320.862V323.464H121.5V320.862H122.5ZM334.5 328.668V326.066H335.5V328.668H334.5ZM122.5 326.066V328.668H121.5V326.066H122.5ZM334.5 333.872V331.27H335.5V333.872H334.5ZM122.5 331.27V333.872H121.5V331.27H122.5ZM334.5 339.076V336.474H335.5V339.076H334.5ZM122.5 336.474V339.077H121.5V336.474H122.5ZM334.5 344.28V341.678H335.5V344.28H334.5ZM122.5 341.679V344.281H121.5V341.679H122.5ZM334.5 349.485V346.882H335.5V349.485H334.5ZM122.5 346.883V349.485H121.5V346.883H122.5ZM334.5 354.689V352.087H335.5V354.689H334.5ZM122.5 352.087V354.689H121.5V352.087H122.5ZM334.5 359.893V357.291H335.5V359.893H334.5ZM122.5 357.291V359.893H121.5V357.291H122.5ZM334.5 365.097V362.495H335.5V365.097H334.5ZM122.5 362.495V365.097H121.5V362.495H122.5ZM334.5 369V367.699H335.5V369C335.5 369.367 335.464 369.725 335.395 370.073L334.414 369.879C334.47 369.595 334.5 369.301 334.5 369ZM122.5 367.699V369C122.5 369.301 122.53 369.595 122.586 369.879L121.605 370.073C121.536 369.725 121.5 369.367 121.5 369V367.699H122.5ZM123.258 371.5C123.586 371.991 124.009 372.414 124.5 372.742L123.944 373.573C123.344 373.172 122.828 372.656 122.427 372.056L123.258 371.5ZM332.5 372.742C332.991 372.414 333.414 371.991 333.742 371.5L334.573 372.056C334.172 372.656 333.656 373.172 333.056 373.573L332.5 372.742ZM126.121 373.414C126.405 373.47 126.699 373.5 127 373.5H128.301V374.5H127C126.633 374.5 126.275 374.464 125.927 374.395L126.121 373.414ZM330 373.5C330.301 373.5 330.595 373.47 330.879 373.414L331.073 374.395C330.725 374.464 330.367 374.5 330 374.5H328.699V373.5H330ZM130.904 373.5H133.506V374.5H130.904V373.5ZM136.109 373.5H138.711V374.5H136.109V373.5ZM141.314 373.5H143.917V374.5H141.314V373.5ZM146.519 373.5H149.122V374.5H146.519V373.5ZM151.724 373.5H154.327V374.5H151.724V373.5ZM156.929 373.5H159.532V374.5H156.929V373.5ZM162.135 373.5H164.737V374.5H162.135V373.5ZM167.34 373.5H169.942V374.5H167.34V373.5ZM172.545 373.5H175.147V374.5H172.545V373.5ZM177.75 373.5H180.353V374.5H177.75V373.5ZM182.955 373.5H185.558V374.5H182.955V373.5ZM188.16 373.5H190.763V374.5H188.16V373.5ZM193.365 373.5H195.968V374.5H193.365V373.5ZM198.571 373.5H201.173V374.5H198.571V373.5ZM203.776 373.5H206.378V374.5H203.776V373.5ZM208.981 373.5H211.583V374.5H208.981V373.5ZM214.186 373.5H216.788V374.5H214.186V373.5ZM219.391 373.5H221.994V374.5H219.391V373.5ZM224.596 373.5H227.199V374.5H224.596V373.5ZM229.801 373.5H232.404V374.5H229.801V373.5ZM235.006 373.5H237.609V374.5H235.006V373.5ZM240.212 373.5H242.814V374.5H240.212V373.5ZM245.417 373.5H248.019V374.5H245.417V373.5ZM250.622 373.5H253.224V374.5H250.622V373.5ZM255.827 373.5H258.429V374.5H255.827V373.5ZM261.032 373.5H263.635V374.5H261.032V373.5ZM266.237 373.5H268.84V374.5H266.237V373.5ZM271.442 373.5H274.045V374.5H271.442V373.5ZM276.647 373.5H279.25V374.5H276.647V373.5ZM281.853 373.5H284.455V374.5H281.853V373.5ZM287.058 373.5H289.66V374.5H287.058V373.5ZM292.263 373.5H294.865V374.5H292.263V373.5ZM297.468 373.5H300.071V374.5H297.468V373.5ZM302.673 373.5H305.276V374.5H302.673V373.5ZM307.878 373.5H310.481V374.5H307.878V373.5ZM313.083 373.5H315.686V374.5H313.083V373.5ZM318.288 373.5H320.891V374.5H318.288V373.5ZM323.494 373.5H326.096V374.5H323.494V373.5Z" fill="#808080"/>
<g filter="url(#filter3_d)">
<path d="M204 14C204 10.5395 206.341 8 209.457 8H240.288L255 23V68C255 71.4605 252.659 74 249.543 74H209.457C206.341 74 204 71.4605 204 68V14Z" fill="white"/>
<path d="M242.74 23.0001C242.74 23.0001 240.288 23.0001 240.288 20.5001V8.00012L255 23.0001H242.74Z" fill="url(#paint3_linear)"/>
<path fill-rule="evenodd" clip-rule="evenodd" d="M243.231 34.0002H214.788V32.0002H243.231V34.0002Z" fill="#CCCCCC"/>
<path fill-rule="evenodd" clip-rule="evenodd" d="M243.231 39.0002H214.788V37.0002H243.231V39.0002Z" fill="#CCCCCC"/>
<path fill-rule="evenodd" clip-rule="evenodd" d="M243.231 44.0002H214.788V42.0002H243.231V44.0002Z" fill="#CCCCCC"/>
<path fill-rule="evenodd" clip-rule="evenodd" d="M243.231 54.0002H214.788V52.0002H243.231V54.0002Z" fill="#CCCCCC"/>
<path fill-rule="evenodd" clip-rule="evenodd" d="M243.231 49.0002H214.788V47.0002H243.231V49.0002Z" fill="#CCCCCC"/>
</g>
<g filter="url(#filter4_d)">
<mask id="mask1" mask-type="alpha" maskUnits="userSpaceOnUse" x="162" y="17" width="48" height="48">
<path d="M210 41C210 54.2548 199.255 65 186 65C172.745 65 162 54.2548 162 41C162 27.7452 172.745 17 186 17C199.255 17 210 27.7452 210 41Z" fill="white"/>
</mask>
<g mask="url(#mask1)">
<path d="M210 40.4995C210 54.0305 199.031 64.9995 185.5 64.9995C171.969 64.9995 161 54.0305 161 40.4995C161 26.9685 171.969 15.9995 185.5 15.9995C199.031 15.9995 210 26.9685 210 40.4995Z" fill="url(#paint4_linear)"/>
<path d="M192.62 52.3556V46.8318H178.416V52.3556L185.518 58.6686L192.62 52.3556Z" fill="#F9D5B2"/>
<path d="M203.601 54.9392L193.837 52.6418C193.689 52.6073 193.553 52.5482 193.426 52.4768L185.517 57.0903L177.917 52.2537C177.72 52.439 177.476 52.5766 177.198 52.6418L167.434 54.9392C166.008 55.2747 165 56.547 165 58.012V64.1924C165 65.064 165.707 65.7707 166.578 65.7707H204.456C205.328 65.7707 206.034 65.064 206.034 64.1924V58.012C206.035 56.5472 205.027 55.2749 203.601 54.9392Z" fill="#F5F5F5"/>
<path d="M175.259 28.6815L175.947 43.8102C176.011 45.2236 176.704 46.5339 177.836 47.383L181.099 49.8302C181.918 50.4449 182.915 50.7771 183.939 50.7771H187.096C188.12 50.7771 189.117 50.4447 189.937 49.8302L193.199 47.383C194.331 46.5341 195.024 45.2236 195.088 43.8102L195.776 28.6815H175.259Z" fill="#FFDFB9"/>
<path d="M200.241 60.6484L205.355 56.0549C205.783 56.5975 206.035 57.2802 206.035 58.0111V64.1915C206.035 65.0632 205.328 65.7698 204.456 65.7698H198.933V63.5835C198.933 62.4637 199.409 61.3969 200.241 60.6484Z" fill="#FBECE4"/>
<path d="M170.794 60.6487L165.68 56.0552C165.252 56.5977 165 57.2804 165 58.0114V64.1918C165 65.0634 165.707 65.77 166.579 65.77H172.103V63.5838C172.103 62.4639 171.627 61.3972 170.794 60.6487Z" fill="#FBECE4"/>
<path d="M187.491 65.7701H183.545L184.038 58.6681H186.998L187.491 65.7701Z" fill="#FBECE4"/>
<path d="M187.491 57.0895H183.545V57.5454C183.545 58.6011 184.401 59.457 185.457 59.457H185.579C186.635 59.457 187.49 58.6011 187.49 57.5454L187.491 57.0895Z" fill="#CCCCCC"/>
<path d="M178.305 50.5984L185.518 57.0899C185.518 57.0899 183.498 58.1096 181.005 60.165C180.49 60.5891 179.712 60.4173 179.437 59.8104L176.048 52.3552L177.12 50.7472C177.387 50.3471 177.947 50.2766 178.305 50.5984Z" fill="#FBECE4"/>
<path d="M192.73 50.5978L185.518 57.0893C185.518 57.0893 187.538 58.109 190.031 60.1644C190.545 60.5884 191.323 60.4167 191.598 59.8098L194.987 52.3546L193.915 50.7466C193.648 50.3465 193.088 50.276 192.73 50.5978Z" fill="#FBECE4"/>
<path d="M190.302 23.454L191.042 28.6821C194.419 29.3574 194.905 34.6572 194.975 36.1709C194.988 36.4456 195.076 36.711 195.225 36.942L196.513 38.9407C196.513 38.9407 196.072 35.6361 198.092 33.4169C198.092 33.4167 198.785 20.2975 190.302 23.454Z" fill="#FFAF76"/>
<path d="M197.305 38.6028L196.414 42.1675C196.308 42.5898 195.929 42.8861 195.494 42.8861C195.015 42.8861 194.611 42.5298 194.552 42.0552L194.096 38.4094C193.975 37.4345 194.735 36.5732 195.717 36.5732H195.721C196.783 36.573 197.563 37.5717 197.305 38.6028Z" fill="#F9D5B2"/>
<path d="M176.015 22.0397L177.182 22.837C171.905 26.7334 172.892 33.4162 172.892 33.4162C174.47 34.9945 174.47 38.94 174.47 38.94L176.048 37.3618C176.048 37.3618 175.439 32.8026 178.416 31.0489C181.178 29.4214 183.594 30.2599 186.06 30.2599C192.669 30.2599 194.519 27.7693 194.198 24.7361C194.032 23.1665 191.632 19.8975 185.518 20.0013C183.05 20.0432 178.415 20.7903 176.015 22.0397Z" fill="#FCA363"/>
<path d="M175.625 29.6265C175.625 29.6265 174.787 26.322 177.253 22.8943C171.976 26.7906 172.962 33.4734 172.962 33.4734C174.54 35.0517 174.54 38.9972 174.54 38.9972L176.118 37.419C176.118 37.419 175.509 32.8599 178.486 31.1062C181.248 29.4787 183.665 30.3171 186.131 30.3171C187.205 30.3171 188.142 30.2451 188.976 30.1218C183.886 30.2922 180.886 26.437 175.625 29.6265Z" fill="#FF8E3D"/>
<path d="M173.73 38.6028L174.622 42.1675C174.727 42.5898 175.107 42.8861 175.542 42.8861C176.021 42.8861 176.424 42.5298 176.484 42.0552L176.939 38.4094C177.061 37.4345 176.301 36.5732 175.318 36.5732H175.315C174.253 36.573 173.473 37.5717 173.73 38.6028Z" fill="#F9D5B2"/>
<path d="M194.987 64.1927H191.041C190.17 64.1927 189.463 64.8994 189.463 65.771H196.565C196.565 64.8994 195.859 64.1927 194.987 64.1927Z" fill="#5B5D6E"/>
</g>
</g>
<path d="M150.767 211.241C151.46 212.448 152.998 212.859 154.203 212.158C155.408 211.458 155.824 209.912 155.132 208.706C154.44 207.499 152.901 207.088 151.696 207.789C150.491 208.489 150.075 210.035 150.767 211.241Z" fill="#808080"/>
<path fill-rule="evenodd" clip-rule="evenodd" d="M159.75 203C160.375 203 160.906 203.219 161.344 203.656C161.781 204.094 162 204.625 162 205.25V218.75C162 219.375 161.781 219.907 161.344 220.344C160.907 220.781 160.375 221 159.75 221H137.25C136.625 221 136.094 220.781 135.656 220.344C135.219 219.907 135 219.375 135 218.75V205.25C135 204.625 135.219 204.093 135.656 203.656C136.094 203.219 136.625 203 137.25 203H138V195.5C138 192.609 139.027 190.137 141.082 188.082C143.137 186.027 145.609 185 148.5 185C151.391 185 153.864 186.027 155.918 188.082C157.973 190.137 159 192.609 159 195.5C159 195.906 158.851 196.258 158.555 196.555C158.258 196.852 157.907 197 157.501 197H156C155.594 197 155.242 196.852 154.945 196.555C154.649 196.258 154.5 195.906 154.5 195.5C154.5 193.844 153.914 192.43 152.742 191.258C151.571 190.086 150.156 189.5 148.5 189.5C146.844 189.5 145.43 190.086 144.258 191.258C143.086 192.43 142.5 193.844 142.5 195.5V203H159.75ZM149.897 213.175C151.272 214.497 153.405 214.807 155.143 213.797C157.253 212.572 157.98 209.866 156.769 207.755C155.557 205.643 152.865 204.925 150.756 206.15C148.831 207.268 148.057 209.618 148.856 211.625C148.843 211.632 148.83 211.639 148.817 211.646L145.543 213.548L144.917 212.456C144.744 212.154 144.359 212.051 144.058 212.226L143.512 212.543C143.211 212.718 143.107 213.105 143.28 213.407L143.907 214.499L142.815 215.133L141.562 212.948C141.389 212.646 141.004 212.544 140.703 212.719L140.157 213.036C139.856 213.211 139.752 213.597 139.925 213.899L141.179 216.084L140.633 216.401C140.332 216.576 140.228 216.962 140.401 217.264L140.714 217.81C140.887 218.112 141.272 218.215 141.573 218.04L149.757 213.285C149.81 213.254 149.857 213.217 149.897 213.175Z" fill="#808080"/>
<defs>
<filter id="filter0_d" x="189" y="158" width="83" height="97" filterUnits="userSpaceOnUse" color-interpolation-filters="sRGB">
<feFlood flood-opacity="0" result="BackgroundImageFix"/>
<feColorMatrix in="SourceAlpha" type="matrix" values="0 0 0 0 0 0 0 0 0 0 0 0 0 0 0 0 0 0 127 0"/>
<feOffset dy="7"/>
<feGaussianBlur stdDeviation="7.5"/>
<feColorMatrix type="matrix" values="0 0 0 0 0.333333 0 0 0 0 0.333333 0 0 0 0 0.333333 0 0 0 0.1 0"/>
<feBlend mode="normal" in2="BackgroundImageFix" result="effect1_dropShadow"/>
<feBlend mode="normal" in="SourceGraphic" in2="effect1_dropShadow" result="shape"/>
</filter>
<filter id="filter1_d" x="0" y="171" width="78" height="78" filterUnits="userSpaceOnUse" color-interpolation-filters="sRGB">
<feFlood flood-opacity="0" result="BackgroundImageFix"/>
<feColorMatrix in="SourceAlpha" type="matrix" values="0 0 0 0 0 0 0 0 0 0 0 0 0 0 0 0 0 0 127 0"/>
<feOffset dy="7"/>
<feGaussianBlur stdDeviation="7.5"/>
<feColorMatrix type="matrix" values="0 0 0 0 0.333333 0 0 0 0 0.333333 0 0 0 0 0.333333 0 0 0 0.1 0"/>
<feBlend mode="normal" in2="BackgroundImageFix" result="effect1_dropShadow"/>
<feBlend mode="normal" in="SourceGraphic" in2="effect1_dropShadow" result="shape"/>
</filter>
<filter id="filter2_d" x="188" y="278" width="82" height="96.0002" filterUnits="userSpaceOnUse" color-interpolation-filters="sRGB">
<feFlood flood-opacity="0" result="BackgroundImageFix"/>
<feColorMatrix in="SourceAlpha" type="matrix" values="0 0 0 0 0 0 0 0 0 0 0 0 0 0 0 0 0 0 127 0"/>
<feOffset dy="7"/>
<feGaussianBlur stdDeviation="7.5"/>
<feColorMatrix type="matrix" values="0 0 0 0 0.333333 0 0 0 0 0.333333 0 0 0 0 0.333333 0 0 0 0.1 0"/>
<feBlend mode="normal" in2="BackgroundImageFix" result="effect1_dropShadow"/>
<feBlend mode="normal" in="SourceGraphic" in2="effect1_dropShadow" result="shape"/>
</filter>
<filter id="filter3_d" x="189" y="0" width="81" height="96" filterUnits="userSpaceOnUse" color-interpolation-filters="sRGB">
<feFlood flood-opacity="0" result="BackgroundImageFix"/>
<feColorMatrix in="SourceAlpha" type="matrix" values="0 0 0 0 0 0 0 0 0 0 0 0 0 0 0 0 0 0 127 0"/>
<feOffset dy="7"/>
<feGaussianBlur stdDeviation="7.5"/>
<feColorMatrix type="matrix" values="0 0 0 0 0.333333 0 0 0 0 0.333333 0 0 0 0 0.333333 0 0 0 0.1 0"/>
<feBlend mode="normal" in2="BackgroundImageFix" result="effect1_dropShadow"/>
<feBlend mode="normal" in="SourceGraphic" in2="effect1_dropShadow" result="shape"/>
</filter>
<filter id="filter4_d" x="147" y="9" width="78" height="78" filterUnits="userSpaceOnUse" color-interpolation-filters="sRGB">
<feFlood flood-opacity="0" result="BackgroundImageFix"/>
<feColorMatrix in="SourceAlpha" type="matrix" values="0 0 0 0 0 0 0 0 0 0 0 0 0 0 0 0 0 0 127 0"/>
<feOffset dy="7"/>
<feGaussianBlur stdDeviation="7.5"/>
<feColorMatrix type="matrix" values="0 0 0 0 0.333333 0 0 0 0 0.333333 0 0 0 0 0.333333 0 0 0 0.1 0"/>
<feBlend mode="normal" in2="BackgroundImageFix" result="effect1_dropShadow"/>
<feBlend mode="normal" in="SourceGraphic" in2="effect1_dropShadow" result="shape"/>
</filter>
<linearGradient id="paint0_linear" x1="250.182" y1="172.818" x2="242.682" y2="178.955" gradientUnits="userSpaceOnUse">
<stop stop-color="#FF6F3D"/>
<stop offset="1" stop-color="#FF8E3D"/>
</linearGradient>
<linearGradient id="paint1_linear" x1="38.5" y1="178" x2="38.5" y2="227" gradientUnits="userSpaceOnUse">
<stop stop-color="#4E4E4E"/>
<stop offset="1" stop-color="#616161"/>
</linearGradient>
<linearGradient id="paint2_linear" x1="248.182" y1="292.818" x2="240.682" y2="298.955" gradientUnits="userSpaceOnUse">
<stop stop-color="#FF6F3D"/>
<stop offset="1" stop-color="#FF8E3D"/>
</linearGradient>
<linearGradient id="paint3_linear" x1="248.313" y1="14.8183" x2="240.843" y2="20.8125" gradientUnits="userSpaceOnUse">
<stop stop-color="#FF6F3D"/>
<stop offset="1" stop-color="#FF8E3D"/>
</linearGradient>
<linearGradient id="paint4_linear" x1="185.5" y1="15.9995" x2="185.5" y2="64.9995" gradientUnits="userSpaceOnUse">
<stop stop-color="#FF6F3D"/>
<stop offset="1" stop-color="#FF8E3D"/>
</linearGradient>
</defs>
</svg>
