<svg width="412" height="170" viewBox="0 0 412 170" fill="none" xmlns="http://www.w3.org/2000/svg">
<g filter="url(#filter0_d)">
<mask id="mask0" mask-type="alpha" maskUnits="userSpaceOnUse" x="15" y="77" width="48" height="48">
<path d="M63 101C63 114.255 52.2548 125 39 125C25.7452 125 15 114.255 15 101C15 87.7452 25.7452 77 39 77C52.2548 77 63 87.7452 63 101Z" fill="white"/>
</mask>
<g mask="url(#mask0)">
<path d="M63 100.5C63 114.031 52.031 125 38.5 125C24.969 125 14 114.031 14 100.5C14 86.9694 24.969 76.0004 38.5 76.0004C52.031 76.0004 63 86.9694 63 100.5Z" fill="url(#paint0_linear)"/>
<path d="M45.6198 112.357V106.833H31.4155V112.357L38.5178 118.67L45.6198 112.357Z" fill="#F9D5B2"/>
<path d="M56.6012 114.94L46.8365 112.643C46.6891 112.608 46.5534 112.549 46.4264 112.478L38.5173 117.091L30.9167 112.255C30.7199 112.44 30.4759 112.578 30.1983 112.643L20.4337 114.94C19.0077 115.276 18 116.548 18 118.013V124.193C18 125.065 18.7066 125.772 19.5783 125.772H57.4562C58.3279 125.772 59.0345 125.065 59.0345 124.193V118.013C59.0349 116.548 58.0271 115.276 56.6012 114.94Z" fill="#F5F5F5"/>
<path d="M28.2592 88.6827L28.9469 103.811C29.0111 105.225 29.704 106.535 30.8359 107.384L34.0987 109.831C34.9183 110.446 35.9152 110.778 36.9395 110.778H40.096C41.1203 110.778 42.1174 110.446 42.9367 109.831L46.1996 107.384C47.3314 106.535 48.0243 105.225 48.0886 103.811L48.7763 88.6827H28.2592Z" fill="#FFDFB9"/>
<path d="M53.2414 120.65L58.3549 116.057C58.7834 116.599 59.0347 117.282 59.0347 118.013V124.193C59.0347 125.065 58.3281 125.772 57.4564 125.772H51.9326V123.585C51.9326 122.466 52.4086 121.399 53.2414 120.65Z" fill="#5B5D6E"/>
<path d="M23.7936 120.651L18.6802 116.057C18.2517 116.6 18.0004 117.283 18.0004 118.014V124.194C18.0004 125.066 18.707 125.772 19.5786 125.772H25.1024V123.586C25.1026 122.466 24.6266 121.399 23.7936 120.651Z" fill="#5B5D6E"/>
<path d="M40.4904 125.772H36.5447L37.038 118.67H39.9973L40.4904 125.772Z" fill="#CCCCCC"/>
<path d="M40.4905 117.092H36.5448V117.547C36.5448 118.603 37.4006 119.459 38.4564 119.459H38.5788C39.6345 119.459 40.4903 118.603 40.4903 117.547L40.4905 117.092Z" fill="#CCCCCC"/>
<path d="M31.3048 110.6L38.5176 117.092C38.5176 117.092 36.4976 118.111 34.0046 120.167C33.4905 120.591 32.7124 120.419 32.4368 119.812L29.0481 112.357L30.1201 110.749C30.387 110.349 30.9469 110.278 31.3048 110.6Z" fill="#CCCCCC"/>
<path d="M45.7305 110.6L38.5177 117.092C38.5177 117.092 40.5378 118.111 43.0307 120.167C43.5449 120.591 44.3229 120.419 44.5985 119.812L47.9872 112.357L46.9153 110.749C46.6483 110.349 46.0884 110.278 45.7305 110.6Z" fill="#CCCCCC"/>
<path d="M43.3018 83.4552L44.0416 88.6833C47.4185 89.3587 47.9053 94.6584 47.9753 96.1722C47.9881 96.4468 48.0757 96.7122 48.2247 96.9432L49.5133 98.9419C49.5133 98.9419 49.0722 95.6373 51.0915 93.4181C51.0915 93.4179 51.7848 80.2987 43.3018 83.4552Z" fill="black"/>
<path d="M50.3052 98.604L49.414 102.169C49.3084 102.591 48.9288 102.887 48.4935 102.887C48.0151 102.887 47.6115 102.531 47.552 102.056L47.0963 98.4106C46.9745 97.4357 47.7346 96.5745 48.7172 96.5745H48.7205C49.7829 96.5743 50.5626 97.5729 50.3052 98.604Z" fill="#F9D5B2"/>
<path d="M29.0153 82.0409L30.1826 82.8383C24.9055 86.7346 25.8917 93.4174 25.8917 93.4174C27.47 94.9957 27.47 98.9412 27.47 98.9412L29.0483 97.363C29.0483 97.363 28.4391 92.8038 31.4157 91.0501C34.1777 89.4227 36.5944 90.2611 39.0603 90.2611C45.6693 90.2611 47.5187 87.7705 47.1981 84.7373C47.0323 83.1677 44.6326 79.8987 38.5178 80.0025C36.0499 80.0444 31.4155 80.7916 29.0153 82.0409Z" fill="#242424"/>
<path d="M28.6254 89.6278C28.6254 89.6278 27.787 86.3232 30.2529 82.8955C24.9758 86.7918 25.9621 93.4747 25.9621 93.4747C27.5403 95.0529 27.5403 98.9985 27.5403 98.9985L29.1186 97.4202C29.1186 97.4202 28.5094 92.8611 31.4861 91.1074C34.248 89.4799 36.6647 90.3184 39.1307 90.3184C40.2055 90.3184 41.1422 90.2464 41.9764 90.123C36.8865 90.2935 33.8862 86.4382 28.6254 89.6278Z" fill="black"/>
<path d="M26.7305 98.604L27.6216 102.169C27.7272 102.591 28.1068 102.887 28.5421 102.887C29.0205 102.887 29.4241 102.531 29.4836 102.056L29.9393 98.4106C30.0611 97.4357 29.301 96.5745 28.3184 96.5745H28.3151C27.2526 96.5743 26.4728 97.5729 26.7305 98.604Z" fill="#F9D5B2"/>
<path d="M47.9872 124.194H44.0415C43.1699 124.194 42.4633 124.901 42.4633 125.772H49.5655C49.5653 124.901 48.8587 124.194 47.9872 124.194Z" fill="#5B5D6E"/>
</g>
</g>
<g filter="url(#filter1_d)">
<path d="M256 75.0002C256 71.5397 258.387 69.0002 261.564 69.0002H293L308 84.0002V129C308 132.461 305.613 135 302.436 135H261.564C258.387 135 256 132.461 256 129V75.0002Z" fill="white"/>
<path d="M295.5 84C295.5 84 293 84 293 81.5V69L308 84H295.5Z" fill="url(#paint1_linear)"/>
<path fill-rule="evenodd" clip-rule="evenodd" d="M296 95.0001H267V93.0001H296V95.0001Z" fill="#CCCCCC"/>
<path fill-rule="evenodd" clip-rule="evenodd" d="M296 100H267V98.0001H296V100Z" fill="#CCCCCC"/>
<path fill-rule="evenodd" clip-rule="evenodd" d="M296 105H267V103H296V105Z" fill="#CCCCCC"/>
<path fill-rule="evenodd" clip-rule="evenodd" d="M296 115H267V113H296V115Z" fill="#CCCCCC"/>
<path fill-rule="evenodd" clip-rule="evenodd" d="M296 110H267V108H296V110Z" fill="#CCCCCC"/>
</g>
<path d="M319 109C319 116.18 313.18 122 306 122C298.82 122 293 116.18 293 109C293 101.82 298.82 96.0001 306 96.0001C313.18 96.0001 319 101.82 319 109Z" fill="#666666"/>
<path fill-rule="evenodd" clip-rule="evenodd" d="M311.526 103.143C311.996 103.422 312.141 104.014 311.85 104.465L305.35 114.545C305.178 114.812 304.88 114.981 304.553 114.998C304.226 115.015 303.911 114.877 303.71 114.629L299.421 109.679C299.082 109.26 299.161 108.657 299.597 108.331C300.033 108.006 300.661 108.081 301 108.5L304.406 112.361L310.149 103.454C310.44 103.004 311.056 102.864 311.526 103.143Z" fill="white"/>
<path fill-rule="evenodd" clip-rule="evenodd" d="M156 33.5C155.699 33.5 155.405 33.5295 155.121 33.5857L154.927 32.6047C155.275 32.536 155.633 32.5 156 32.5H157.302V33.5H156ZM162.51 33.5H159.906V32.5H162.51V33.5ZM167.719 33.5H165.115V32.5H167.719V33.5ZM172.927 33.5H170.323V32.5H172.927V33.5ZM178.135 33.5H175.531V32.5H178.135V33.5ZM183.344 33.5H180.74V32.5H183.344V33.5ZM188.552 33.5H185.948V32.5H188.552V33.5ZM193.76 33.5H191.156V32.5H193.76V33.5ZM198.969 33.5H196.365V32.5H198.969V33.5ZM204.177 33.5H201.573V32.5H204.177V33.5ZM209.385 33.5H206.781V32.5H209.385V33.5ZM214.594 33.5H211.99V32.5H214.594V33.5ZM219.802 33.5H217.198V32.5H219.802V33.5ZM225.01 33.5H222.406V32.5H225.01V33.5ZM230.219 33.5H227.615V32.5H230.219V33.5ZM235.427 33.5H232.823V32.5H235.427V33.5ZM240.635 33.5H238.031V32.5H240.635V33.5ZM245.844 33.5H243.24V32.5H245.844V33.5ZM251.052 33.5H248.448V32.5H251.052V33.5ZM256.26 33.5H253.656V32.5H256.26V33.5ZM261.469 33.5H258.865V32.5H261.469V33.5ZM266.677 33.5H264.073V32.5H266.677V33.5ZM271.885 33.5H269.281V32.5H271.885V33.5ZM277.094 33.5H274.49V32.5H277.094V33.5ZM282.302 33.5H279.698V32.5H282.302V33.5ZM287.51 33.5H284.906V32.5H287.51V33.5ZM292.719 33.5H290.115V32.5H292.719V33.5ZM297.927 33.5H295.323V32.5H297.927V33.5ZM303.135 33.5H300.531V32.5H303.135V33.5ZM308.344 33.5H305.74V32.5H308.344V33.5ZM313.552 33.5H310.948V32.5H313.552V33.5ZM318.76 33.5H316.156V32.5H318.76V33.5ZM323.969 33.5H321.365V32.5H323.969V33.5ZM329.177 33.5H326.573V32.5H329.177V33.5ZM334.385 33.5H331.781V32.5H334.385V33.5ZM339.594 33.5H336.99V32.5H339.594V33.5ZM344.802 33.5H342.198V32.5H344.802V33.5ZM350.01 33.5H347.406V32.5H350.01V33.5ZM355.219 33.5H352.615V32.5H355.219V33.5ZM360.427 33.5H357.823V32.5H360.427V33.5ZM365.636 33.5H363.031V32.5H365.636V33.5ZM370.844 33.5H368.24V32.5H370.844V33.5ZM376.052 33.5H373.448V32.5H376.052V33.5ZM381.261 33.5H378.656V32.5H381.261V33.5ZM386.469 33.5H383.865V32.5H386.469V33.5ZM391.677 33.5H389.073V32.5H391.677V33.5ZM396.886 33.5H394.281V32.5H396.886V33.5ZM402.094 33.5H399.49V32.5H402.094V33.5ZM406 33.5H404.698V32.5H406C406.367 32.5 406.725 32.536 407.073 32.6047L406.879 33.5857C406.595 33.5295 406.301 33.5 406 33.5ZM153.5 34.2577C153.009 34.5863 152.586 35.0091 152.258 35.5001L151.427 34.9438C151.828 34.3442 152.344 33.8281 152.944 33.4267L153.5 34.2577ZM409.742 35.5001C409.414 35.0091 408.991 34.5863 408.5 34.2577L409.056 33.4267C409.656 33.8281 410.172 34.3442 410.573 34.9438L409.742 35.5001ZM151.586 37.1212C151.53 37.405 151.5 37.6988 151.5 38V39.3125H150.5V38C150.5 37.6333 150.536 37.2745 150.605 36.9272L151.586 37.1212ZM410.5 38C410.5 37.6988 410.47 37.405 410.414 37.1212L411.395 36.9272C411.464 37.2745 411.5 37.6333 411.5 38V39.3125H410.5V38ZM151.5 41.9375V44.5625H150.5V41.9375H151.5ZM410.5 44.5625V41.9375H411.5V44.5625H410.5ZM151.5 47.1875V49.8125H150.5V47.1875H151.5ZM410.5 49.8125V47.1875H411.5V49.8125H410.5ZM151.5 52.4375V55.0625H150.5V52.4375H151.5ZM410.5 55.0625V52.4375H411.5V55.0625H410.5ZM151.5 57.6875V60.3125H150.5V57.6875H151.5ZM410.5 60.3125V57.6875H411.5V60.3125H410.5ZM151.5 62.9375V65.5625H150.5V62.9375H151.5ZM410.5 65.5625V62.9375H411.5V65.5625H410.5ZM151.5 68.1875V70.8125H150.5V68.1875H151.5ZM410.5 70.8125V68.1875H411.5V70.8125H410.5ZM151.5 73.4375V76.0625H150.5V73.4375H151.5ZM410.5 76.0625V73.4375H411.5V76.0625H410.5ZM151.5 78.6875V81.3125H150.5V78.6875H151.5ZM410.5 81.3125V78.6875H411.5V81.3125H410.5ZM151.5 83.9375V86.5625H150.5V83.9375H151.5ZM410.5 86.5625V83.9375H411.5V86.5625H410.5ZM151.5 89.1875V91.8125H150.5V89.1875H151.5ZM410.5 91.8125V89.1875H411.5V91.8125H410.5ZM151.5 94.4375V97.0625H150.5V94.4375H151.5ZM410.5 97.0625V94.4375H411.5V97.0625H410.5ZM151.5 99.6875V102.312H150.5V99.6875H151.5ZM410.5 102.313V99.6875H411.5V102.313H410.5ZM151.5 104.938V107.562H150.5V104.938H151.5ZM410.5 107.562V104.938H411.5V107.562H410.5ZM151.5 110.188V112.812H150.5V110.188H151.5ZM410.5 112.812V110.188H411.5V112.812H410.5ZM151.5 115.438V118.062H150.5V115.438H151.5ZM410.5 118.063V115.438H411.5V118.063H410.5ZM151.5 120.688V123.312H150.5V120.688H151.5ZM410.5 123.312V120.688H411.5V123.312H410.5ZM151.5 125.938V128.562H150.5V125.938H151.5ZM410.5 128.562V125.938H411.5V128.562H410.5ZM151.5 131.188V133.812H150.5V131.188H151.5ZM410.5 133.813V131.188H411.5V133.813H410.5ZM151.5 136.438V139.062H150.5V136.438H151.5ZM410.5 139.062V136.438H411.5V139.062H410.5ZM151.5 141.688V144.312H150.5V141.688H151.5ZM410.5 144.312V141.688H411.5V144.312H410.5ZM151.5 146.938V149.562H150.5V146.938H151.5ZM410.5 149.563V146.938H411.5V149.563H410.5ZM151.5 152.188V154.812H150.5V152.188H151.5ZM410.5 154.812V152.188H411.5V154.812H410.5ZM151.5 157.438V160.062H150.5V157.438H151.5ZM410.5 160.062V157.438H411.5V160.062H410.5ZM151.5 162.688V164C151.5 164.301 151.53 164.595 151.586 164.879L150.605 165.073C150.536 164.725 150.5 164.367 150.5 164V162.688H151.5ZM410.5 164V162.688H411.5V164C411.5 164.367 411.464 164.725 411.395 165.073L410.414 164.879C410.47 164.595 410.5 164.301 410.5 164ZM152.258 166.5C152.586 166.991 153.009 167.414 153.5 167.742L152.944 168.573C152.344 168.172 151.828 167.656 151.427 167.056L152.258 166.5ZM408.5 167.742C408.991 167.414 409.414 166.991 409.742 166.5L410.573 167.056C410.172 167.656 409.656 168.172 409.056 168.573L408.5 167.742ZM155.121 168.414C155.405 168.47 155.699 168.5 156 168.5H157.302V169.5H156C155.633 169.5 155.275 169.464 154.927 169.395L155.121 168.414ZM406 168.5C406.301 168.5 406.595 168.47 406.879 168.414L407.073 169.395C406.725 169.464 406.367 169.5 406 169.5H404.698V168.5H406ZM159.906 168.5H162.51V169.5H159.906V168.5ZM165.114 168.5H167.719V169.5H165.114V168.5ZM170.323 168.5H172.927V169.5H170.323V168.5ZM175.531 168.5H178.135V169.5H175.531V168.5ZM180.739 168.5H183.344V169.5H180.739V168.5ZM185.948 168.5H188.552V169.5H185.948V168.5ZM191.156 168.5H193.76V169.5H191.156V168.5ZM196.364 168.5H198.969V169.5H196.364V168.5ZM201.573 168.5H204.177V169.5H201.573V168.5ZM206.781 168.5H209.385V169.5H206.781V168.5ZM211.99 168.5H214.594V169.5H211.99V168.5ZM217.198 168.5H219.802V169.5H217.198V168.5ZM222.406 168.5H225.01V169.5H222.406V168.5ZM227.615 168.5H230.219V169.5H227.615V168.5ZM232.823 168.5H235.427V169.5H232.823V168.5ZM238.031 168.5H240.635V169.5H238.031V168.5ZM243.24 168.5H245.844V169.5H243.24V168.5ZM248.448 168.5H251.052V169.5H248.448V168.5ZM253.656 168.5H256.26V169.5H253.656V168.5ZM258.865 168.5H261.469V169.5H258.865V168.5ZM264.073 168.5H266.677V169.5H264.073V168.5ZM269.281 168.5H271.885V169.5H269.281V168.5ZM274.49 168.5H277.094V169.5H274.49V168.5ZM279.698 168.5H282.302V169.5H279.698V168.5ZM284.906 168.5H287.51V169.5H284.906V168.5ZM290.115 168.5H292.719V169.5H290.115V168.5ZM295.323 168.5H297.927V169.5H295.323V168.5ZM300.531 168.5H303.135V169.5H300.531V168.5ZM305.74 168.5H308.344V169.5H305.74V168.5ZM310.948 168.5H313.552V169.5H310.948V168.5ZM316.156 168.5H318.76V169.5H316.156V168.5ZM321.365 168.5H323.969V169.5H321.365V168.5ZM326.573 168.5H329.177V169.5H326.573V168.5ZM331.781 168.5H334.385V169.5H331.781V168.5ZM336.99 168.5H339.594V169.5H336.99V168.5ZM342.198 168.5H344.802V169.5H342.198V168.5ZM347.406 168.5H350.01V169.5H347.406V168.5ZM352.615 168.5H355.219V169.5H352.615V168.5ZM357.823 168.5H360.427V169.5H357.823V168.5ZM363.031 168.5H365.635V169.5H363.031V168.5ZM368.24 168.5H370.844V169.5H368.24V168.5ZM373.448 168.5H376.052V169.5H373.448V168.5ZM378.656 168.5H381.26V169.5H378.656V168.5ZM383.865 168.5H386.469V169.5H383.865V168.5ZM389.073 168.5H391.677V169.5H389.073V168.5ZM394.281 168.5H396.885V169.5H394.281V168.5ZM399.49 168.5H402.094V169.5H399.49V168.5Z" fill="#808080"/>
<g filter="url(#filter2_d)">
<path d="M243 21C243 19.3431 244.343 18 246 18H340C341.657 18 343 19.3431 343 21V45C343 46.6569 341.657 48 340 48H246C244.343 48 243 46.6569 243 45V21Z" fill="white"/>
<path d="M274.994 34.3923L274.072 35.7902L271.28 33.8307L271.379 37.0323H269.589L269.643 33.9233L266.913 35.7995L266 34.3831L269.08 32.5161L266.018 30.6307L266.913 29.2143L269.643 31.1182L269.589 28H271.37L271.316 31.1182L274.072 29.2235L274.994 30.6384L271.896 32.5053L274.994 34.3923Z" fill="#808080"/>
<path d="M288.494 34.3923L287.572 35.7902L284.78 33.8307L284.878 37.0323H283.088L283.14 33.9233L280.412 35.7995L279.499 34.3831L282.579 32.5161L279.517 30.6307L280.413 29.2143L283.142 31.1182L283.089 28H284.872L284.818 31.1182L287.575 29.2235L288.497 30.6384L285.399 32.5053L288.494 34.3923Z" fill="#808080"/>
<path d="M302.495 34.3923L301.573 35.7902L298.78 33.8307L298.879 37.0323H297.087L297.141 33.9233L294.411 35.7995L293.497 34.3831L296.577 32.5161L293.516 30.6307L294.411 29.2143L297.141 31.1182L297.087 28H298.868L298.816 31.1167L301.573 29.222L302.495 30.6369L299.397 32.5038L302.495 34.3923Z" fill="#808080"/>
<path d="M315.994 34.3923L315.072 35.7902L312.28 33.8307L312.379 37.0323H310.589L310.643 33.9233L307.913 35.7995L307 34.3831L310.08 32.5161L307.018 30.6307L307.913 29.2143L310.643 31.1182L310.589 28H312.37L312.316 31.1182L315.072 29.2235L315.994 30.6384L312.896 32.5053L315.994 34.3923Z" fill="#808080"/>
<path d="M359 33C359 41.2843 352.284 48 344 48C335.716 48 329 41.2843 329 33C329 24.7157 335.716 18 344 18C352.284 18 359 24.7157 359 33Z" fill="url(#paint2_linear)"/>
<path d="M351.296 26.4034C351.172 26.3538 351.03 26.3812 350.936 26.4726L349.562 27.7993C348.089 26.3341 346.12 25.5273 344.018 25.5273C343.573 25.5273 343.125 25.5648 342.685 25.6385C339.694 26.1408 337.27 28.3041 336.511 31.1502C336.485 31.2457 336.507 31.3472 336.569 31.4252C336.632 31.5032 336.728 31.5488 336.83 31.5488H338.934C339.073 31.5488 339.197 31.4652 339.244 31.3394C339.86 29.7132 341.39 28.4723 343.142 28.1783C343.43 28.1299 343.724 28.1055 344.015 28.1055C345.407 28.1055 346.707 28.6438 347.676 29.6211L346.282 30.9683C346.187 31.0595 346.159 31.1967 346.21 31.3159C346.261 31.4353 346.382 31.513 346.515 31.513H351.17C351.352 31.513 351.5 31.37 351.5 31.1939V26.698C351.5 26.5691 351.419 26.4528 351.296 26.4034Z" fill="white"/>
<path d="M351.17 34.5596H349.066C348.927 34.5596 348.803 34.643 348.756 34.7689C348.14 36.3951 346.61 37.6361 344.858 37.9299C344.569 37.9783 344.276 38.0027 343.985 38.0027C342.593 38.0027 341.293 37.4644 340.323 36.4871L341.718 35.14C341.813 35.0487 341.841 34.9115 341.79 34.7924C341.739 34.673 341.618 34.5953 341.484 34.5953H336.83C336.648 34.5953 336.5 34.7383 336.5 34.9144V39.4103C336.5 39.5393 336.58 39.6556 336.704 39.7051C336.827 39.7546 336.969 39.7271 337.064 39.6357L338.437 38.3092C339.911 39.7742 341.88 40.5811 343.982 40.5811C344.427 40.5811 344.875 40.5436 345.314 40.4699C348.306 39.968 350.73 37.8044 351.489 34.9584C351.515 34.8627 351.493 34.7616 351.431 34.6832C351.368 34.6054 351.272 34.5596 351.17 34.5596Z" fill="white"/>
</g>
<g filter="url(#filter3_d)">
<mask id="mask1" mask-type="alpha" maskUnits="userSpaceOnUse" x="202" y="8" width="48" height="48">
<path d="M250 32C250 45.2548 239.255 56 226 56C212.745 56 202 45.2548 202 32C202 18.7452 212.745 8 226 8C239.255 8 250 18.7452 250 32Z" fill="white"/>
</mask>
<g mask="url(#mask1)">
<path d="M250 31.4995C250 45.0305 239.031 55.9995 225.5 55.9995C211.969 55.9995 201 45.0305 201 31.4995C201 17.9685 211.969 6.99951 225.5 6.99951C239.031 6.99951 250 17.9685 250 31.4995Z" fill="url(#paint3_linear)"/>
<path d="M232.62 43.3556V37.8318H218.416V43.3556L225.518 49.6686L232.62 43.3556Z" fill="#F9D5B2"/>
<path d="M243.601 45.9392L233.837 43.6418C233.689 43.6073 233.553 43.5482 233.426 43.4768L225.517 48.0903L217.917 43.2537C217.72 43.439 217.476 43.5766 217.198 43.6418L207.434 45.9392C206.008 46.2747 205 47.547 205 49.012V55.1924C205 56.064 205.707 56.7707 206.578 56.7707H244.456C245.328 56.7707 246.034 56.064 246.034 55.1924V49.012C246.035 47.5472 245.027 46.2749 243.601 45.9392Z" fill="#F5F5F5"/>
<path d="M215.259 19.6815L215.947 34.8102C216.011 36.2236 216.704 37.5339 217.836 38.383L221.099 40.8302C221.918 41.4449 222.915 41.7771 223.939 41.7771H227.096C228.12 41.7771 229.117 41.4447 229.937 40.8302L233.2 38.383C234.331 37.5341 235.024 36.2236 235.089 34.8102L235.776 19.6815H215.259Z" fill="#FFDFB9"/>
<path d="M240.241 51.6484L245.355 47.0549C245.783 47.5975 246.035 48.2802 246.035 49.0111V55.1915C246.035 56.0632 245.328 56.7698 244.456 56.7698H238.933V54.5835C238.933 53.4637 239.409 52.3969 240.241 51.6484Z" fill="#FBECE4"/>
<path d="M210.794 51.6487L205.68 47.0552C205.252 47.5977 205 48.2804 205 49.0114V55.1918C205 56.0634 205.707 56.77 206.579 56.77H212.102V54.5838C212.103 53.4639 211.627 52.3972 210.794 51.6487Z" fill="#FBECE4"/>
<path d="M227.49 56.77H223.545L224.038 49.668H226.997L227.49 56.77Z" fill="#FBECE4"/>
<path d="M227.491 48.0895H223.545V48.5454C223.545 49.6011 224.401 50.457 225.456 50.457H225.579C226.635 50.457 227.49 49.6011 227.49 48.5454L227.491 48.0895Z" fill="#CCCCCC"/>
<path d="M218.305 41.5985L225.518 48.0901C225.518 48.0901 223.498 49.1097 221.005 51.1651C220.491 51.5892 219.713 51.4174 219.437 50.8106L216.048 43.3553L217.12 41.7473C217.387 41.3472 217.947 41.2768 218.305 41.5985Z" fill="#FBECE4"/>
<path d="M232.731 41.5978L225.518 48.0893C225.518 48.0893 227.538 49.109 230.031 51.1644C230.545 51.5884 231.323 51.4167 231.599 50.8098L234.987 43.3546L233.915 41.7466C233.648 41.3465 233.089 41.276 232.731 41.5978Z" fill="#FBECE4"/>
<path d="M230.302 14.454L231.042 19.6821C234.419 20.3574 234.905 25.6572 234.975 27.1709C234.988 27.4456 235.076 27.711 235.225 27.942L236.513 29.9407C236.513 29.9407 236.072 26.6361 238.092 24.4169C238.092 24.4167 238.785 11.2975 230.302 14.454Z" fill="#FFAF76"/>
<path d="M237.305 29.6028L236.414 33.1675C236.308 33.5898 235.929 33.8861 235.494 33.8861C235.015 33.8861 234.611 33.5298 234.552 33.0552L234.096 29.4094C233.975 28.4345 234.735 27.5732 235.717 27.5732H235.721C236.783 27.573 237.563 28.5717 237.305 29.6028Z" fill="#F9D5B2"/>
<path d="M216.015 13.0397L217.183 13.837C211.905 17.7334 212.892 24.4162 212.892 24.4162C214.47 25.9945 214.47 29.94 214.47 29.94L216.048 28.3618C216.048 28.3618 215.439 23.8026 218.416 22.0489C221.178 20.4214 223.594 21.2599 226.06 21.2599C232.669 21.2599 234.519 18.7693 234.198 15.7361C234.032 14.1665 231.633 10.8975 225.518 11.0013C223.05 11.0432 218.416 11.7903 216.015 13.0397Z" fill="#FCA363"/>
<path d="M215.625 20.6265C215.625 20.6265 214.787 17.322 217.253 13.8943C211.976 17.7906 212.962 24.4734 212.962 24.4734C214.54 26.0517 214.54 29.9972 214.54 29.9972L216.119 28.419C216.119 28.419 215.509 23.8599 218.486 22.1062C221.248 20.4787 223.665 21.3171 226.131 21.3171C227.206 21.3171 228.142 21.2451 228.976 21.1218C223.887 21.2922 220.886 17.437 215.625 20.6265Z" fill="#FF8E3D"/>
<path d="M213.73 29.6028L214.622 33.1675C214.727 33.5898 215.107 33.8861 215.542 33.8861C216.021 33.8861 216.424 33.5298 216.484 33.0552L216.939 29.4094C217.061 28.4345 216.301 27.5732 215.318 27.5732H215.315C214.253 27.573 213.473 28.5717 213.73 29.6028Z" fill="#F9D5B2"/>
<path d="M234.987 55.1927H231.042C230.17 55.1927 229.463 55.8994 229.463 56.771H236.566C236.565 55.8994 235.859 55.1927 234.987 55.1927Z" fill="#5B5D6E"/>
</g>
</g>
<g filter="url(#filter4_d)">
<path d="M95 90C95 88.3431 96.3431 87 98 87H204C205.657 87 207 88.3431 207 90V114C207 115.657 205.657 117 204 117H98C96.3431 117 95 115.657 95 114V90Z" fill="white"/>
<path d="M138.994 103.392L138.072 104.79L135.28 102.831L135.379 106.032H133.589L133.643 102.923L130.913 104.799L130 103.383L133.08 101.516L130.018 99.6307L130.913 98.2143L133.643 100.118L133.589 97H135.37L135.316 100.118L138.072 98.2235L138.994 99.6384L135.896 101.505L138.994 103.392Z" fill="#808080"/>
<path d="M152.494 103.392L151.572 104.79L148.78 102.831L148.878 106.032H147.088L147.14 102.923L144.412 104.799L143.499 103.383L146.579 101.516L143.517 99.6307L144.413 98.2143L147.142 100.118L147.089 97H148.872L148.818 100.118L151.575 98.2235L152.497 99.6384L149.399 101.505L152.494 103.392Z" fill="#808080"/>
<path d="M166.495 103.392L165.573 104.79L162.78 102.831L162.879 106.032H161.087L161.141 102.923L158.411 104.799L157.497 103.383L160.577 101.516L157.516 99.6307L158.411 98.2143L161.141 100.118L161.087 97H162.868L162.816 100.117L165.573 98.222L166.495 99.6369L163.397 101.504L166.495 103.392Z" fill="#808080"/>
<path d="M179.994 103.392L179.072 104.79L176.28 102.831L176.379 106.032H174.589L174.643 102.923L171.913 104.799L171 103.383L174.08 101.516L171.018 99.6307L171.913 98.2143L174.643 100.118L174.589 97H176.37L176.316 100.118L179.072 98.2235L179.994 99.6384L176.896 101.505L179.994 103.392Z" fill="#808080"/>
<path d="M223 102C223 110.284 216.284 117 208 117C199.716 117 193 110.284 193 102C193 93.7157 199.716 87 208 87C216.284 87 223 93.7157 223 102Z" fill="url(#paint4_linear)"/>
<path d="M215.296 95.4034C215.172 95.3538 215.03 95.3812 214.936 95.4726L213.562 96.7993C212.089 95.3341 210.12 94.5273 208.018 94.5273C207.573 94.5273 207.125 94.5648 206.685 94.6385C203.694 95.1408 201.27 97.3041 200.511 100.15C200.485 100.246 200.507 100.347 200.569 100.425C200.632 100.503 200.728 100.549 200.83 100.549H202.934C203.073 100.549 203.197 100.465 203.244 100.339C203.86 98.7132 205.39 97.4723 207.142 97.1783C207.43 97.1299 207.724 97.1055 208.015 97.1055C209.407 97.1055 210.707 97.6438 211.676 98.6211L210.282 99.9683C210.187 100.06 210.159 100.197 210.21 100.316C210.261 100.435 210.382 100.513 210.515 100.513H215.17C215.352 100.513 215.5 100.37 215.5 100.194V95.698C215.5 95.5691 215.419 95.4528 215.296 95.4034Z" fill="white"/>
<path d="M215.17 103.56H213.066C212.927 103.56 212.803 103.643 212.756 103.769C212.14 105.395 210.61 106.636 208.858 106.93C208.569 106.978 208.276 107.003 207.985 107.003C206.593 107.003 205.293 106.464 204.323 105.487L205.718 104.14C205.813 104.049 205.841 103.912 205.79 103.792C205.739 103.673 205.618 103.595 205.484 103.595H200.83C200.648 103.595 200.5 103.738 200.5 103.914V108.41C200.5 108.539 200.58 108.656 200.704 108.705C200.827 108.755 200.969 108.727 201.064 108.636L202.437 107.309C203.911 108.774 205.88 109.581 207.982 109.581C208.427 109.581 208.875 109.544 209.314 109.47C212.306 108.968 214.73 106.804 215.489 103.958C215.515 103.863 215.493 103.762 215.431 103.683C215.368 103.605 215.272 103.56 215.17 103.56Z" fill="white"/>
</g>
<path d="M102.767 109.241C103.46 110.448 104.998 110.859 106.203 110.158C107.408 109.458 107.824 107.912 107.132 106.706C106.44 105.499 104.901 105.088 103.696 105.789C102.491 106.489 102.075 108.035 102.767 109.241Z" fill="#808080"/>
<path fill-rule="evenodd" clip-rule="evenodd" d="M111.75 101C112.375 101 112.906 101.219 113.344 101.656C113.781 102.094 114 102.625 114 103.25V116.75C114 117.375 113.781 117.907 113.344 118.344C112.907 118.781 112.375 119 111.75 119H89.25C88.6252 119 88.0938 118.781 87.6562 118.344C87.2188 117.907 87 117.375 87 116.75V103.25C87 102.625 87.2187 102.093 87.6562 101.656C88.0938 101.219 88.6252 101 89.25 101H89.9999V93.5001C89.9999 90.6091 91.0272 88.1367 93.0818 86.0821C95.1368 84.0272 97.6094 83 100.5 83C103.391 83 105.864 84.0272 107.918 86.0821C109.973 88.137 111 90.6092 111 93.5001C111 93.9063 110.851 94.2578 110.555 94.5546C110.258 94.8515 109.907 95.0001 109.501 95.0001H108C107.594 95.0001 107.242 94.8515 106.945 94.5546C106.649 94.2578 106.5 93.9063 106.5 93.5001C106.5 91.8437 105.914 90.4297 104.742 89.2578C103.571 88.086 102.156 87.5001 100.5 87.5001C98.8438 87.5001 97.4299 88.0861 96.2578 89.2578C95.0859 90.4297 94.4998 91.8436 94.4998 93.5001V101H111.75ZM101.897 111.175C103.272 112.497 105.405 112.807 107.143 111.797C109.253 110.572 109.98 107.866 108.769 105.755C107.557 103.643 104.865 102.925 102.756 104.15C100.831 105.268 100.057 107.618 100.856 109.625C100.843 109.632 100.83 109.639 100.817 109.646L97.5434 111.548L96.9167 110.456C96.7436 110.154 96.359 110.051 96.0577 110.226L95.5121 110.543C95.2107 110.718 95.1068 111.105 95.2799 111.407L95.9067 112.499L94.8155 113.133L93.5619 110.948C93.3888 110.646 93.0042 110.544 92.7029 110.719L92.1573 111.036C91.856 111.211 91.752 111.597 91.9251 111.899L93.1787 114.084L92.6331 114.401C92.3317 114.576 92.2278 114.962 92.4009 115.264L92.7143 115.81C92.8873 116.112 93.2719 116.215 93.5733 116.04L101.757 111.285C101.81 111.254 101.857 111.217 101.897 111.175Z" fill="#808080"/>
<defs>
<filter id="filter0_d" x="0" y="69" width="78" height="78" filterUnits="userSpaceOnUse" color-interpolation-filters="sRGB">
<feFlood flood-opacity="0" result="BackgroundImageFix"/>
<feColorMatrix in="SourceAlpha" type="matrix" values="0 0 0 0 0 0 0 0 0 0 0 0 0 0 0 0 0 0 127 0"/>
<feOffset dy="7"/>
<feGaussianBlur stdDeviation="7.5"/>
<feColorMatrix type="matrix" values="0 0 0 0 0.333333 0 0 0 0 0.333333 0 0 0 0 0.333333 0 0 0 0.1 0"/>
<feBlend mode="normal" in2="BackgroundImageFix" result="effect1_dropShadow"/>
<feBlend mode="normal" in="SourceGraphic" in2="effect1_dropShadow" result="shape"/>
</filter>
<filter id="filter1_d" x="241" y="61" width="82" height="96.0002" filterUnits="userSpaceOnUse" color-interpolation-filters="sRGB">
<feFlood flood-opacity="0" result="BackgroundImageFix"/>
<feColorMatrix in="SourceAlpha" type="matrix" values="0 0 0 0 0 0 0 0 0 0 0 0 0 0 0 0 0 0 127 0"/>
<feOffset dy="7"/>
<feGaussianBlur stdDeviation="7.5"/>
<feColorMatrix type="matrix" values="0 0 0 0 0.333333 0 0 0 0 0.333333 0 0 0 0 0.333333 0 0 0 0.1 0"/>
<feBlend mode="normal" in2="BackgroundImageFix" result="effect1_dropShadow"/>
<feBlend mode="normal" in="SourceGraphic" in2="effect1_dropShadow" result="shape"/>
</filter>
<filter id="filter2_d" x="228" y="10" width="146" height="60" filterUnits="userSpaceOnUse" color-interpolation-filters="sRGB">
<feFlood flood-opacity="0" result="BackgroundImageFix"/>
<feColorMatrix in="SourceAlpha" type="matrix" values="0 0 0 0 0 0 0 0 0 0 0 0 0 0 0 0 0 0 127 0"/>
<feOffset dy="7"/>
<feGaussianBlur stdDeviation="7.5"/>
<feColorMatrix type="matrix" values="0 0 0 0 0.333333 0 0 0 0 0.333333 0 0 0 0 0.333333 0 0 0 0.1 0"/>
<feBlend mode="normal" in2="BackgroundImageFix" result="effect1_dropShadow"/>
<feBlend mode="normal" in="SourceGraphic" in2="effect1_dropShadow" result="shape"/>
</filter>
<filter id="filter3_d" x="187" y="0" width="78" height="78" filterUnits="userSpaceOnUse" color-interpolation-filters="sRGB">
<feFlood flood-opacity="0" result="BackgroundImageFix"/>
<feColorMatrix in="SourceAlpha" type="matrix" values="0 0 0 0 0 0 0 0 0 0 0 0 0 0 0 0 0 0 127 0"/>
<feOffset dy="7"/>
<feGaussianBlur stdDeviation="7.5"/>
<feColorMatrix type="matrix" values="0 0 0 0 0.333333 0 0 0 0 0.333333 0 0 0 0 0.333333 0 0 0 0.1 0"/>
<feBlend mode="normal" in2="BackgroundImageFix" result="effect1_dropShadow"/>
<feBlend mode="normal" in="SourceGraphic" in2="effect1_dropShadow" result="shape"/>
</filter>
<filter id="filter4_d" x="80" y="79" width="158" height="60" filterUnits="userSpaceOnUse" color-interpolation-filters="sRGB">
<feFlood flood-opacity="0" result="BackgroundImageFix"/>
<feColorMatrix in="SourceAlpha" type="matrix" values="0 0 0 0 0 0 0 0 0 0 0 0 0 0 0 0 0 0 127 0"/>
<feOffset dy="7"/>
<feGaussianBlur stdDeviation="7.5"/>
<feColorMatrix type="matrix" values="0 0 0 0 0.333333 0 0 0 0 0.333333 0 0 0 0 0.333333 0 0 0 0.1 0"/>
<feBlend mode="normal" in2="BackgroundImageFix" result="effect1_dropShadow"/>
<feBlend mode="normal" in="SourceGraphic" in2="effect1_dropShadow" result="shape"/>
</filter>
<linearGradient id="paint0_linear" x1="38.5" y1="76.0004" x2="38.5" y2="125" gradientUnits="userSpaceOnUse">
<stop stop-color="#4E4E4E"/>
<stop offset="1" stop-color="#616161"/>
</linearGradient>
<linearGradient id="paint1_linear" x1="301.182" y1="75.8182" x2="293.682" y2="81.9545" gradientUnits="userSpaceOnUse">
<stop stop-color="#FF6F3D"/>
<stop offset="1" stop-color="#FF8E3D"/>
</linearGradient>
<linearGradient id="paint2_linear" x1="344" y1="18" x2="344" y2="48" gradientUnits="userSpaceOnUse">
<stop stop-color="#FF8E3D"/>
<stop offset="1" stop-color="#FF6F3D"/>
</linearGradient>
<linearGradient id="paint3_linear" x1="225.5" y1="6.99951" x2="225.5" y2="55.9995" gradientUnits="userSpaceOnUse">
<stop stop-color="#FF6F3D"/>
<stop offset="1" stop-color="#FF8E3D"/>
</linearGradient>
<linearGradient id="paint4_linear" x1="208" y1="87" x2="208" y2="117" gradientUnits="userSpaceOnUse">
<stop stop-color="#FF8E3D"/>
<stop offset="1" stop-color="#FF6F3D"/>
</linearGradient>
</defs>
</svg>
