<svg width="51" height="16" viewBox="0 0 51 16" fill="none" xmlns="http://www.w3.org/2000/svg">
<path fill-rule="evenodd" clip-rule="evenodd" d="M43 1.77778C39.5636 1.77778 36.7778 4.56356 36.7778 8C36.7778 11.4364 39.5636 14.2222 43 14.2222C46.4364 14.2222 49.2222 11.4364 49.2222 8C49.2222 4.56356 46.4364 1.77778 43 1.77778ZM35 8C35 3.58172 38.5817 0 43 0C47.4183 0 51 3.58172 51 8C51 12.4183 47.4183 16 43 16C38.5817 16 35 12.4183 35 8Z" fill="#5DC0E8"/>
<path fill-rule="evenodd" clip-rule="evenodd" d="M46.8335 5.01767C47.1806 5.36481 47.1806 5.92762 46.8335 6.27475L42.677 10.4312C42.3298 10.7784 41.767 10.7784 41.4199 10.4312L39.1664 8.17773C38.8192 7.83059 38.8192 7.26778 39.1664 6.92065C39.5135 6.57351 40.0763 6.57351 40.4234 6.92065L42.0484 8.54563L45.5764 5.01767C45.9235 4.67054 46.4863 4.67054 46.8335 5.01767Z" fill="#5DC0E8"/>
<path fill-rule="evenodd" clip-rule="evenodd" d="M8 1.77778C4.56356 1.77778 1.77778 4.56356 1.77778 8C1.77778 11.4364 4.56356 14.2222 8 14.2222C11.4364 14.2222 14.2222 11.4364 14.2222 8C14.2222 4.56356 11.4364 1.77778 8 1.77778ZM0 8C0 3.58172 3.58172 0 8 0C12.4183 0 16 3.58172 16 8C16 12.4183 12.4183 16 8 16C3.58172 16 0 12.4183 0 8Z" fill="#FF6F3D"/>
<path fill-rule="evenodd" clip-rule="evenodd" d="M4.81748 4.86728C5.16461 4.52015 5.72742 4.52015 6.07456 4.86728L11.1825 9.97527C11.5297 10.3224 11.5297 10.8852 11.1825 11.2323C10.8354 11.5795 10.2726 11.5795 9.92546 11.2323L4.81748 6.12436C4.47035 5.77723 4.47035 5.21442 4.81748 4.86728Z" fill="#FF6F3D"/>
<path fill-rule="evenodd" clip-rule="evenodd" d="M11.1325 4.86728C11.4796 5.21442 11.4796 5.77723 11.1325 6.12436L6.02451 11.2323C5.67738 11.5795 5.11456 11.5795 4.76743 11.2323C4.4203 10.8852 4.4203 10.3224 4.76743 9.97527L9.87541 4.86728C10.2225 4.52015 10.7854 4.52015 11.1325 4.86728Z" fill="#FF6F3D"/>
</svg>
