<svg xmlns="http://www.w3.org/2000/svg" width="304" height="252" viewBox="0 0 304 252" fill="none">
<rect x="24" width="123.542" height="122" rx="61" fill="white"/>
<path d="M63.2464 64.0481C63.2464 62.4578 62.5895 61.6626 61.3086 61.6626C60.0276 61.6626 59.3707 62.4578 59.3707 64.0481V71.6023H55.5279V64.0481C55.5279 62.4578 54.9038 61.6626 53.6229 61.6626C52.3419 61.6626 51.685 62.4578 51.685 64.0481V71.6023H47.875V63.6174C47.875 61.9608 48.4334 60.7349 49.5829 59.8734C50.5683 59.1114 51.9478 58.7469 53.6229 58.7469C55.3636 58.7469 56.6117 59.1776 57.4329 60.0722C58.1226 59.1776 59.4036 58.7469 61.2757 58.7469C62.9836 58.7469 64.3303 59.1114 65.3156 59.8734C66.4652 60.7349 67.0236 61.9608 67.0236 63.6174V71.6355H63.2464V64.0481Z" fill="url(#paint0_linear_4026_184506)"/>
<path d="M74.2822 71.9337C72.3444 71.9337 70.7678 71.3042 69.4869 70.0783C68.2388 68.8524 67.5819 67.262 67.5819 65.3072C67.5819 63.3524 68.2059 61.762 69.4869 60.5361C70.735 59.3102 72.3444 58.6807 74.2822 58.6807C76.2201 58.6807 77.8295 59.3102 79.0776 60.5361C80.3585 61.762 80.9826 63.3524 80.9826 65.3072C80.9826 67.262 80.3585 68.8524 79.0776 70.0783C77.7966 71.3042 76.1872 71.9337 74.2822 71.9337ZM74.2822 61.762C73.3626 61.762 72.64 62.1265 72.1473 62.8223C71.6546 63.5181 71.3919 64.3464 71.3919 65.3403C71.3919 66.3012 71.6218 67.1295 72.0816 67.7921C72.6071 68.5542 73.3297 68.9187 74.2494 68.9187C75.169 68.9187 75.8916 68.5542 76.4171 67.7921C76.9098 67.1295 77.1397 66.3012 77.1397 65.3403C77.1397 64.3795 76.9098 63.5512 76.45 62.8885C75.9573 62.1265 75.2019 61.762 74.2822 61.762Z" fill="url(#paint1_linear_4026_184506)"/>
<path d="M88.0771 71.9337C86.1392 71.9337 84.5627 71.3042 83.2817 70.0783C82.0336 68.8524 81.3767 67.262 81.3767 65.3072C81.3767 63.3524 82.0008 61.762 83.2817 60.5361C84.5298 59.3102 86.1392 58.6807 88.0771 58.6807C90.0149 58.6807 91.6243 59.3102 92.8724 60.5361C94.1534 61.762 94.7774 63.3524 94.7774 65.3072C94.7774 67.262 94.1534 68.8524 92.8724 70.0783C91.5915 71.3042 89.9821 71.9337 88.0771 71.9337ZM88.0771 61.762C87.1574 61.762 86.4348 62.1265 85.9422 62.8223C85.4495 63.5181 85.1867 64.3464 85.1867 65.3403C85.1867 66.3012 85.4166 67.1295 85.8765 67.7921C86.402 68.5542 87.1246 68.9187 88.0442 68.9187C88.9639 68.9187 89.6865 68.5542 90.212 67.7921C90.7047 67.1295 90.9346 66.3012 90.9346 65.3403C90.9346 64.3795 90.7047 63.5512 90.2448 62.8885C89.7522 62.1265 88.9967 61.762 88.0771 61.762Z" fill="url(#paint2_linear_4026_184506)"/>
<path d="M105.09 71.5693V70.3102C104.762 70.7741 104.171 71.1385 103.35 71.4036C102.627 71.6687 101.937 71.7681 101.28 71.7681C99.474 71.7681 97.996 71.1385 96.9121 69.8795C95.7954 68.6205 95.2699 67.0632 95.2699 65.2078C95.2699 63.3855 95.7954 61.8283 96.8793 60.6024C97.9632 59.3765 99.4083 58.747 101.182 58.747C103.218 58.747 104.499 59.3102 105.09 60.4036V50H108.802V71.5693H105.09ZM105.09 64.4126C105.09 63.7169 104.762 63.0542 104.105 62.4247C103.448 61.7952 102.791 61.4638 102.102 61.4638C101.116 61.4638 100.361 61.8614 99.7696 62.6566C99.277 63.3524 99.0142 64.247 99.0142 65.2741C99.0142 66.2681 99.277 67.1295 99.7696 67.8584C100.328 68.6867 101.116 69.0843 102.102 69.0843C102.693 69.0843 103.317 68.8193 104.039 68.256C104.729 67.6928 105.09 67.1295 105.09 66.5331V64.4126Z" fill="url(#paint3_linear_4026_184506)"/>
<path d="M110.149 71.5693V50H113.959V71.5693H110.149Z" fill="url(#paint4_linear_4026_184506)"/>
<path d="M118.524 66.4669C118.688 67.2621 119.082 67.9247 119.674 68.488C120.298 69.0512 120.954 69.3494 121.71 69.3494C122.235 69.3494 122.794 69.2169 123.418 68.9518C124.173 68.6205 124.535 68.256 124.535 67.8253L128.542 67.7922C127.983 69.1506 126.998 70.2108 125.651 70.9398C124.37 71.6355 122.991 72 121.447 72C119.509 72 117.867 71.3705 116.586 70.1777C115.305 68.9518 114.648 67.3615 114.648 65.3735C114.648 63.3193 115.305 61.7289 116.586 60.503C117.867 59.3103 119.542 58.7139 121.579 58.7139C123.812 58.7139 125.553 59.4428 126.801 60.9337C127.95 62.2922 128.542 64.1476 128.542 66.4669H118.524ZM124.764 64.0813C124.6 63.253 124.272 62.5904 123.746 62.0602C123.155 61.497 122.465 61.1988 121.71 61.1988C120.922 61.1988 120.265 61.4639 119.706 62.0271C119.181 62.5904 118.82 63.253 118.622 64.0813H124.764Z" fill="url(#paint5_linear_4026_184506)"/>
<path d="M48.2819 61.6916L47.873 63.7367C51.6211 64.9979 55.1648 63.7708 57.0388 60.4987C54.2789 58.5899 51.7234 60.5328 48.2819 61.6916Z" fill="#58595B"/>
<path d="M48.282 61.181C48.1457 61.965 48.0435 62.7149 47.9072 63.4989C51.4849 64.7261 54.9945 63.6694 56.8686 60.4651C54.4834 57.704 51.8257 59.9879 48.282 61.181" fill="url(#paint6_linear_4026_184506)"/>
<path d="M52.5408 62.101C50.9053 61.7601 49.1335 62.6123 47.9068 63.4987C47.1231 57.7717 50.6668 57.9081 55.3008 59.3398C54.9941 60.7374 54.483 62.6123 53.5971 63.7373C53.563 62.9873 53.2223 62.476 52.5408 62.101" fill="url(#paint7_linear_4026_184506)"/>
<path d="M43 61.181C48.9969 57.5676 52.3702 56.8858 59.3553 56.17C51.2458 62.5786 51.0413 61.181 43 61.181" fill="url(#paint8_linear_4026_184506)"/>
<path d="M59.3554 56.2039L52.9155 60.8738" stroke="#4A4A4C" stroke-width="0.5"/>
<path opacity="0.23" d="M51.6884 58.6931C51.5861 57.9759 51.7565 59.4444 51.6884 58.6931Z" fill="#231F20"/>
<path d="M43 61.1812L52.9154 60.8744" stroke="#A8ABAD" stroke-width="0.5"/>
<path d="M51.0754 58.7603C49.3718 59.2375 43.7837 60.4646 43.7156 61.1805C43.5452 62.5099 43.6815 64.6233 43.6815 64.6233" stroke="#F16922" stroke-width="0.5"/>
<path d="M44.1937 69.7033C43.5802 68.1693 42.8304 66.4648 43.7166 64.3513C44.296 66.3285 44.1937 67.8284 44.1937 69.7033Z" fill="#F16922"/>
<path d="M50.8853 58.786C51.0272 58.7354 51.1217 58.6368 51.0964 58.5656C51.071 58.4945 50.9355 58.4778 50.7936 58.5284C50.6517 58.5789 50.5572 58.6776 50.5825 58.7487C50.6078 58.8199 50.7434 58.8366 50.8853 58.786Z" fill="#6D6E70"/>
<rect x="41" y="135" width="117" height="117" rx="58.5" fill="white"/>
<path fill-rule="evenodd" clip-rule="evenodd" d="M107.845 207.868L112.936 193.193C113.889 190.82 114.202 188.911 114.202 187.233C114.202 186.62 114.161 186.047 114.066 185.515C115.386 187.902 116.108 190.616 116.108 193.507C116.108 199.644 112.8 205.004 107.858 207.895L107.845 207.868ZM101.801 185.72C102.794 185.665 103.706 185.556 103.706 185.556C104.591 185.447 104.496 184.137 103.597 184.192C103.597 184.192 100.902 184.397 99.1597 184.397C97.5261 184.397 94.8035 184.192 94.8035 184.192C93.8915 184.137 93.7962 185.501 94.6946 185.556C94.6946 185.556 95.5386 185.665 96.4371 185.72L99.0235 192.811L95.3889 203.722L89.3311 185.72C90.3249 185.665 91.2369 185.556 91.2369 185.556C92.1218 185.447 92.0265 184.137 91.128 184.192C91.128 184.192 88.4327 184.397 86.6902 184.397C86.3771 184.397 86.0096 184.397 85.6012 184.397C88.596 179.869 93.7009 176.896 99.5136 176.896C103.843 176.896 107.79 178.532 110.744 181.26C110.69 181.26 110.608 181.233 110.554 181.233C108.92 181.233 107.749 182.651 107.749 184.192C107.749 185.556 108.539 186.715 109.383 188.093C110.023 189.184 110.744 190.602 110.744 192.661C110.744 194.08 110.336 195.88 109.492 198.035L107.831 203.572L101.841 185.706L101.801 185.72ZM99.4864 210.132C97.8528 210.132 96.301 209.913 94.8035 209.477L99.8131 194.952L104.918 208.959C104.959 209.041 105 209.122 105.054 209.191C103.312 209.804 101.46 210.145 99.5136 210.145L99.4864 210.132ZM82.8786 193.493C82.8786 191.107 83.3959 188.815 84.3079 186.742L92.2443 208.481C86.7038 205.781 82.8786 200.094 82.8786 193.507V193.493ZM99.4728 175C89.3039 175 81 183.292 81 193.493C81 203.694 89.3039 212 99.5136 212C109.723 212 118 203.681 118 193.493C117.986 183.292 109.682 175 99.4728 175Z" fill="#123C56"/>
<rect x="157" y="54" width="123.066" height="124" rx="61.5332" fill="white"/>
<path fill-rule="evenodd" clip-rule="evenodd" d="M217.902 118.818V118.893C217.902 123.925 213.847 128 208.842 128C203.837 128 199.783 123.925 199.783 118.893C199.783 113.862 203.837 109.786 208.842 109.786C210.894 109.786 212.784 110.478 214.31 111.623V105.811C214.309 105.573 214.355 105.337 214.446 105.117C214.536 104.897 214.668 104.697 214.836 104.528C215.003 104.36 215.203 104.227 215.422 104.136C215.641 104.045 215.875 103.999 216.112 104C217.101 104 217.914 104.818 217.914 105.811V118.73C217.914 118.755 217.914 118.792 217.902 118.818ZM208.842 124.264C211.793 124.264 214.185 121.859 214.185 118.893C214.185 115.927 211.793 113.522 208.842 113.522C205.891 113.522 203.499 115.927 203.499 118.893C203.499 121.859 205.891 124.264 208.842 124.264ZM236.859 118.893C236.859 123.923 232.803 128 227.799 128C222.796 128 218.74 123.923 218.74 118.893C218.74 113.863 222.796 109.786 227.799 109.786C232.803 109.786 236.859 113.863 236.859 118.893ZM233.141 118.893C233.141 121.862 230.751 124.264 227.798 124.264C224.845 124.264 222.455 121.862 222.455 118.893C222.455 115.924 224.845 113.522 227.798 113.522C230.751 113.522 233.141 115.924 233.141 118.893ZM256.066 118.893C256.066 123.923 252.01 128 247.007 128C242.003 128 237.947 123.923 237.947 118.893C237.947 113.863 242.003 109.786 247.007 109.786C252.01 109.786 256.066 113.863 256.066 118.893ZM252.35 118.893C252.35 121.862 249.96 124.264 247.007 124.264C244.054 124.264 241.664 121.862 241.664 118.893C241.664 115.924 244.054 113.522 247.007 113.522C249.96 113.522 252.35 115.924 252.35 118.893Z" fill="#888888"/>
<path fill-rule="evenodd" clip-rule="evenodd" d="M199.119 118.868C199.119 123.898 195.063 127.975 190.059 127.975C185.056 127.975 181 123.898 181 118.868C181 113.838 185.056 109.761 190.059 109.761C195.063 109.761 199.119 113.838 199.119 118.868ZM195.314 118.906C195.314 121.872 192.922 124.277 189.971 124.277C187.02 124.277 184.628 121.872 184.628 118.906C184.628 115.939 187.02 113.535 189.971 113.535C192.922 113.535 195.314 115.939 195.314 118.906Z" fill="#9C5789"/>
<defs>
<linearGradient id="paint0_linear_4026_184506" x1="47.8752" y1="49.1406" x2="58.6876" y2="90.3349" gradientUnits="userSpaceOnUse">
<stop stop-color="#FF8E3D"/>
<stop offset="1" stop-color="#FF6F3D"/>
</linearGradient>
<linearGradient id="paint1_linear_4026_184506" x1="47.8752" y1="49.1406" x2="58.6876" y2="90.3349" gradientUnits="userSpaceOnUse">
<stop stop-color="#FF8E3D"/>
<stop offset="1" stop-color="#FF6F3D"/>
</linearGradient>
<linearGradient id="paint2_linear_4026_184506" x1="47.8752" y1="49.1406" x2="58.6876" y2="90.3349" gradientUnits="userSpaceOnUse">
<stop stop-color="#FF8E3D"/>
<stop offset="1" stop-color="#FF6F3D"/>
</linearGradient>
<linearGradient id="paint3_linear_4026_184506" x1="47.8752" y1="49.1406" x2="58.6876" y2="90.3349" gradientUnits="userSpaceOnUse">
<stop stop-color="#FF8E3D"/>
<stop offset="1" stop-color="#FF6F3D"/>
</linearGradient>
<linearGradient id="paint4_linear_4026_184506" x1="47.8752" y1="49.1406" x2="58.6876" y2="90.3349" gradientUnits="userSpaceOnUse">
<stop stop-color="#FF8E3D"/>
<stop offset="1" stop-color="#FF6F3D"/>
</linearGradient>
<linearGradient id="paint5_linear_4026_184506" x1="47.8752" y1="49.1406" x2="58.6876" y2="90.3349" gradientUnits="userSpaceOnUse">
<stop stop-color="#FF8E3D"/>
<stop offset="1" stop-color="#FF6F3D"/>
</linearGradient>
<linearGradient id="paint6_linear_4026_184506" x1="47.9031" y1="61.5822" x2="56.8512" y2="61.5822" gradientUnits="userSpaceOnUse">
<stop stop-color="#929497"/>
<stop offset="0.1245" stop-color="#757578"/>
<stop offset="0.2792" stop-color="#575658"/>
<stop offset="0.4403" stop-color="#403E3F"/>
<stop offset="0.6085" stop-color="#302D2E"/>
<stop offset="0.7884" stop-color="#262223"/>
<stop offset="1" stop-color="#231F20"/>
</linearGradient>
<linearGradient id="paint7_linear_4026_184506" x1="49.617" y1="58.5936" x2="53.3343" y2="63.9003" gradientUnits="userSpaceOnUse">
<stop stop-color="#231F20"/>
<stop offset="1" stop-color="#231F20" stop-opacity="0"/>
</linearGradient>
<linearGradient id="paint8_linear_4026_184506" x1="42.9888" y1="58.7566" x2="59.3437" y2="58.7566" gradientUnits="userSpaceOnUse">
<stop stop-color="#929497"/>
<stop offset="0.1245" stop-color="#757578"/>
<stop offset="0.2792" stop-color="#575658"/>
<stop offset="0.4403" stop-color="#403E3F"/>
<stop offset="0.6085" stop-color="#302D2E"/>
<stop offset="0.7884" stop-color="#262223"/>
<stop offset="1" stop-color="#231F20"/>
</linearGradient>
</defs>
</svg>