<svg width="68" height="64" viewBox="0 0 68 64" fill="none" xmlns="http://www.w3.org/2000/svg">
<path fill-rule="evenodd" clip-rule="evenodd" d="M31.5553 52.5086L15.0542 44.2542C13.6486 43.5336 13.6486 42.4199 15.0542 41.7648L20.7991 38.8823L31.4942 44.2542C32.8999 44.9748 35.1611 44.9748 36.5057 44.2542L47.2008 38.8823L52.9457 41.7648C54.3513 42.4854 54.3513 43.5991 52.9457 44.2542L36.4446 52.5086C35.1611 53.1637 32.8999 53.1637 31.5553 52.5086Z" fill="white"/>
<path fill-rule="evenodd" clip-rule="evenodd" d="M31.5019 41.8707L15.051 33.6067C13.6497 32.8853 13.6497 31.7703 15.051 31.1144L20.6565 28.2942L31.5019 33.6067C32.9032 34.3282 35.1576 34.3282 36.498 33.6067L47.3434 28.2942L52.9489 31.1144C54.3502 31.8359 54.3502 32.9509 52.9489 33.6067L36.498 41.8707C35.0967 42.5922 32.8423 42.5922 31.5019 41.8707Z" fill="white"/>
<path fill-rule="evenodd" clip-rule="evenodd" d="M31.5019 31.3618L15.051 23.6046C13.6497 22.9274 13.6497 21.8808 15.051 21.2651L31.5019 13.5079C32.9033 12.8307 35.1577 12.8307 36.4981 13.5079L52.949 21.2651C54.3503 21.9423 54.3503 22.989 52.949 23.6046L36.4981 31.3618C35.0967 31.9775 32.8423 31.9775 31.5019 31.3618Z" fill="white"/>
<path d="M59.1538 45.8944C57.7025 45.5106 57.3111 44.5586 57.3274 43.2534C57.36 38.3246 57.3437 33.3804 57.3437 28.4515C57.3437 26.7471 57.8655 26.133 59.7408 25.8105C59.1864 17.9028 55.6968 11.4539 48.7502 6.95495C40.0752 1.35048 30.8294 0.889843 21.5674 5.57302C11.9955 10.3944 8.37547 19.4076 8.34285 25.7644C8.79943 25.918 9.37016 25.9641 9.67998 26.2558C10.104 26.6704 10.5931 27.2538 10.6094 27.7759C10.691 32.9658 10.6747 38.1557 10.6747 43.3609C10.6747 45.2035 9.92458 45.8944 7.96781 45.8944C7.34816 45.8944 6.71221 45.8944 6.09256 45.8944C2.76605 45.8944 0.336387 43.9444 0.14071 40.7967C-0.0549679 37.5261 -0.0386614 34.2402 0.14071 30.9697C0.287468 28.083 2.47253 26.1637 5.58706 25.8259C6.15779 17.2272 9.98981 10.2101 17.4092 5.08167C22.9371 1.243 29.2477 -0.384596 36.1127 0.0760449C50.8701 1.08945 61.9911 12.5748 62.4313 25.6877C63.3282 25.9794 64.2577 26.133 65.0241 26.5475C66.8667 27.5763 67.8288 29.2346 67.9103 31.1847C68.0245 34.3324 68.0408 37.4801 67.894 40.6278C67.7962 42.7007 66.7363 44.405 64.6979 45.4031C64.1109 45.6795 63.4097 45.833 62.7575 45.8637C62.1052 45.8944 61.8932 46.0941 61.7465 46.6622C60.3278 51.8981 57.2296 56.0132 52.4029 58.9613C49.6471 60.6349 46.5326 61.3259 43.3528 61.7866C43.1408 61.8173 42.9288 61.8633 42.7005 61.8633C41.8363 61.8787 41.1514 62.0783 40.6622 62.9074C40.2057 63.6598 39.2925 63.9823 38.3467 63.9823C36.178 63.9976 33.9929 64.013 31.8241 63.9823C30.063 63.9516 28.7422 62.6771 28.6933 61.0495C28.6607 59.4219 29.9978 58.04 31.7915 57.9939C33.9929 57.9479 36.1943 57.9632 38.3956 57.9939C39.3414 58.0093 40.1078 58.4239 40.7438 59.0841C40.9231 59.2837 41.2819 59.4833 41.5265 59.4526C46.663 59.0227 51.294 57.564 54.8325 53.7868C56.8872 51.591 58.7624 48.3051 59.1538 45.8944Z" fill="white"/>
</svg>
