<svg width="544" height="544" viewBox="0 0 544 544" fill="none" xmlns="http://www.w3.org/2000/svg">
<g style="mix-blend-mode:multiply">
<path fill-rule="evenodd" clip-rule="evenodd" d="M271.282 206.343C235.418 206.343 206.344 235.418 206.344 271.282C206.344 307.147 235.418 336.221 271.282 336.221C307.147 336.221 336.221 307.147 336.221 271.282C336.221 235.418 307.147 206.343 271.282 206.343ZM205.344 271.282C205.344 234.865 234.865 205.343 271.282 205.343C307.7 205.343 337.221 234.865 337.221 271.282C337.221 307.7 307.7 337.221 271.282 337.221C234.865 337.221 205.344 307.7 205.344 271.282Z" fill="#EFEFEF"/>
<path fill-rule="evenodd" clip-rule="evenodd" d="M271.282 187.361C224.934 187.361 187.361 224.934 187.361 271.282C187.361 317.631 224.934 355.204 271.282 355.204C317.631 355.204 355.204 317.631 355.204 271.282C355.204 224.934 317.631 187.361 271.282 187.361ZM186.361 271.282C186.361 224.382 224.382 186.361 271.282 186.361C318.183 186.361 356.204 224.382 356.204 271.282C356.204 318.183 318.183 356.204 271.282 356.204C224.382 356.204 186.361 318.183 186.361 271.282Z" fill="#EFEFEF"/>
<path fill-rule="evenodd" clip-rule="evenodd" d="M271.282 131.413C194.035 131.413 131.413 194.035 131.413 271.282C131.413 348.53 194.035 411.151 271.282 411.151C348.53 411.151 411.151 348.53 411.151 271.282C411.151 194.035 348.53 131.413 271.282 131.413ZM130.413 271.282C130.413 193.483 193.483 130.413 271.282 130.413C349.082 130.413 412.151 193.483 412.151 271.282C412.151 349.082 349.082 412.151 271.282 412.151C193.483 412.151 130.413 349.082 130.413 271.282Z" fill="#EFEFEF"/>
<path fill-rule="evenodd" clip-rule="evenodd" d="M272 39C143.318 39 39 143.318 39 272C39 400.682 143.318 505 272 505C400.682 505 505 400.682 505 272C505 143.318 400.682 39 272 39ZM38 272C38 142.765 142.765 38 272 38C401.235 38 506 142.765 506 272C506 401.235 401.235 506 272 506C142.765 506 38 401.235 38 272Z" fill="#EFEFEF"/>
</g>
<path d="M353 320C353 317.791 354.791 316 357 316H407C409.209 316 411 317.791 411 320V356C411 358.761 408.761 361 406 361H357C354.791 361 353 359.209 353 357V320Z" fill="white"/>
<path d="M357.493 316.003C355.011 316.003 352.999 318.023 352.999 320.514V356.486C352.999 358.977 355.011 360.997 357.493 360.997H388.726C389.002 360.997 389.227 361.222 389.227 361.499C389.227 361.776 389.002 362 388.726 362H357.493C354.459 362 352 359.531 352 356.486V320.514C352 317.469 354.459 315 357.493 315H361.5C361.776 315 361.999 315.224 361.999 315.501C361.999 315.778 361.776 316.003 361.5 316.003H357.493Z" fill="#333333"/>
<path d="M411.001 320.514C411.001 318.023 408.989 316.003 406.507 316.003L401.471 315.926C401.195 315.926 400.971 315.702 400.971 315.425C400.971 315.148 401.195 314.924 401.471 314.924L406.507 315C409.541 315 412 317.469 412 320.514V337.243C412 337.518 411.776 337.742 411.501 337.742C411.225 337.742 411.001 337.518 411.001 337.243V320.514Z" fill="#333333"/>
<path fill-rule="evenodd" clip-rule="evenodd" d="M359 323.909C359 322.853 359.816 322 360.824 322H402.176C403.184 322 404 322.853 404 323.909V334.091C404 335.147 403.184 336 402.176 336H360.824C359.816 336 359 335.147 359 334.091V323.909Z" fill="white"/>
<path d="M363.612 322.5H360.365C359.334 322.5 358.5 323.353 358.5 324.409V334.591C358.5 335.647 359.334 336.5 360.365 336.5H402.635C403.666 336.5 404.5 335.647 404.5 334.591V324.409C404.5 323.353 403.666 322.5 402.635 322.5H375.741" stroke="#333333" stroke-linecap="round" stroke-linejoin="round"/>
<path d="M362 334L361.535 333.816C361.474 333.97 361.493 334.144 361.587 334.281C361.68 334.418 361.834 334.5 362 334.5H377C377.276 334.5 377.5 334.276 377.5 334C377.496 333.936 377.48 333.862 377.477 333.85L377.471 333.833L377.468 333.823L377.464 333.813L377.457 333.797C377.453 333.786 377.446 333.771 377.438 333.753C377.422 333.716 377.399 333.666 377.368 333.604C377.306 333.479 377.212 333.307 377.082 333.103C376.82 332.696 376.408 332.159 375.801 331.623C374.576 330.545 372.585 329.5 369.5 329.5C366.415 329.5 364.423 330.546 363.199 331.625C362.592 332.16 362.18 332.698 361.919 333.105C361.788 333.309 361.694 333.481 361.632 333.604C361.601 333.666 361.578 333.716 361.562 333.752C361.554 333.77 361.548 333.785 361.544 333.795L361.538 333.809L361.536 333.813L361.535 333.815L361.535 333.816C361.535 333.816 361.535 333.816 362 334ZM362.464 334.185L362.465 334.184L362.465 334.185L362.464 334.185Z" fill="#D9F4FF" stroke="#333333" stroke-linejoin="round"/>
<path d="M367.5 327.5H371.5V330.762L369.5 332.36L367.5 330.762V327.5Z" fill="white" stroke="#333333"/>
<path d="M372.5 325.5C372.5 327.155 371.155 328.5 369.5 328.5C367.845 328.5 366.5 327.155 366.5 325.5C366.5 323.841 367.845 322.5 369.5 322.5C371.159 322.5 372.5 323.845 372.5 325.5Z" fill="white" stroke="#333333"/>
<path d="M369.503 323.887C370.255 324.895 371.524 325.5 373 325.5C373.276 325.5 373.5 325.276 373.5 325C373.5 323.854 372.938 322.966 372.163 322.378C371.398 321.799 370.415 321.5 369.5 321.5C368.435 321.5 367.442 321.816 366.706 322.42C365.961 323.032 365.5 323.922 365.5 325C365.5 325.276 365.724 325.5 366 325.5C367.533 325.5 368.768 324.893 369.503 323.887Z" fill="#AAAAAA" stroke="#333333" stroke-linejoin="round"/>
<path fill-rule="evenodd" clip-rule="evenodd" d="M380 327C379.724 327 379.5 327.224 379.5 327.5C379.5 327.776 379.724 328 380 328H395C395.276 328 395.5 327.776 395.5 327.5C395.5 327.224 395.276 327 395 327H380ZM380 330C379.724 330 379.5 330.224 379.5 330.5C379.5 330.776 379.724 331 380 331H391C391.276 331 391.5 330.776 391.5 330.5C391.5 330.224 391.276 330 391 330H380Z" fill="#333333"/>
<path d="M363.593 341.5H360.358C359.331 341.5 358.5 342.346 358.5 343.393V353.781C358.5 354.828 359.331 355.5 360.358 355.5H388M393.5 341.5H375.677" stroke="#333333" stroke-linecap="round" stroke-linejoin="round"/>
<path fill-rule="evenodd" clip-rule="evenodd" d="M379 346C378.724 346 378.5 346.224 378.5 346.5C378.5 346.776 378.724 347 379 347H390C390.276 347 390.5 346.776 390.5 346.5C390.5 346.224 390.276 346 390 346H379ZM379 349C378.724 349 378.5 349.224 378.5 349.5C378.5 349.776 378.724 350 379 350H388C388.276 350 388.5 349.776 388.5 349.5C388.5 349.224 388.276 349 388 349H379Z" fill="#333333"/>
<path d="M362 352L361.535 351.816C361.474 351.97 361.493 352.144 361.587 352.281C361.68 352.418 361.834 352.5 362 352.5H377C377.276 352.5 377.5 352.276 377.5 352C377.496 351.936 377.48 351.862 377.477 351.85L377.471 351.833L377.468 351.823L377.464 351.813L377.457 351.797C377.453 351.786 377.446 351.771 377.438 351.753C377.422 351.716 377.399 351.666 377.368 351.604C377.306 351.479 377.212 351.307 377.082 351.103C376.82 350.696 376.408 350.159 375.801 349.623C374.576 348.545 372.585 347.5 369.5 347.5C366.415 347.5 364.423 348.546 363.199 349.625C362.592 350.16 362.18 350.698 361.919 351.105C361.788 351.309 361.694 351.481 361.632 351.604C361.601 351.666 361.578 351.716 361.562 351.752C361.554 351.77 361.548 351.785 361.544 351.795L361.538 351.809L361.536 351.813L361.535 351.815L361.535 351.816C361.535 351.816 361.535 351.816 362 352ZM362.464 352.185L362.465 352.184L362.465 352.185L362.464 352.185Z" fill="#D9F4FF" stroke="#333333" stroke-linejoin="round"/>
<path d="M367.5 345.5H371.5V348.762L369.5 350.36L367.5 348.762V345.5Z" fill="white" stroke="#333333"/>
<path d="M372.5 343.5C372.5 345.155 371.155 346.5 369.5 346.5C367.845 346.5 366.5 345.155 366.5 343.5C366.5 341.841 367.845 340.5 369.5 340.5C371.159 340.5 372.5 341.845 372.5 343.5Z" fill="white" stroke="#333333"/>
<path d="M369.503 341.887C370.255 342.895 371.524 343.5 373 343.5C373.276 343.5 373.5 343.276 373.5 343C373.5 341.854 372.938 340.966 372.163 340.378C371.398 339.799 370.415 339.5 369.5 339.5C368.435 339.5 367.442 339.816 366.706 340.42C365.961 341.032 365.5 341.922 365.5 343C365.5 343.276 365.724 343.5 366 343.5C367.533 343.5 368.768 342.893 369.503 341.887Z" fill="#AAAAAA" stroke="#333333" stroke-linejoin="round"/>
<path d="M384.729 312C384.729 312.276 384.953 312.5 385.229 312.5H394.341C395.031 312.5 395.5 312.993 395.5 313.5V316.5C395.5 317.006 395.027 317.5 394.341 317.5H368.659C367.969 317.5 367.5 317.007 367.5 316.5V313.5C367.5 312.994 367.973 312.5 368.659 312.5H378.601C378.877 312.5 379.101 312.276 379.101 312C379.101 310.666 380.313 309.5 381.915 309.5C383.517 309.5 384.729 310.666 384.729 312Z" fill="url(#paint0_linear_1717_4973)" stroke="#333333" stroke-linejoin="round"/>
<circle cx="405.615" cy="354.335" r="8" transform="rotate(-22.5469 405.615 354.335)" fill="white"/>
<path d="M416.548 362.995C416.998 362.441 416.916 361.636 416.364 361.199C416.339 361.179 416.313 361.16 416.287 361.142C415.758 360.798 415.576 360.112 415.861 359.542C416.169 358.975 416.856 358.724 417.45 358.962C418.115 359.205 418.861 358.864 419.117 358.2C419.129 358.169 419.14 358.138 419.149 358.106C420.062 355.143 419.961 351.98 418.862 349.114C418.734 348.779 418.468 348.516 418.13 348.392C417.792 348.266 417.414 348.288 417.089 348.453C416.49 348.799 415.73 348.602 415.392 348.014C415.075 347.463 415.237 346.756 415.767 346.383C416.053 346.157 416.232 345.824 416.26 345.465C416.289 345.105 416.162 344.754 415.912 344.497C413.774 342.295 410.946 340.874 407.874 340.457C407.171 340.356 406.509 340.841 406.395 341.54C406.39 341.573 406.386 341.605 406.383 341.638C406.36 342.318 405.787 342.86 405.102 342.849C404.484 342.838 403.976 342.378 403.91 341.769C403.798 341.073 403.137 340.609 402.433 340.733C402.402 340.738 402.37 340.745 402.338 340.753C399.294 341.448 396.576 343.184 394.666 345.655C394.216 346.21 394.299 347.014 394.851 347.451C394.875 347.47 394.9 347.488 394.926 347.506C395.506 347.857 395.681 348.614 395.317 349.195C394.991 349.716 394.334 349.929 393.772 349.696C393.107 349.453 392.361 349.794 392.105 350.457C392.093 350.488 392.082 350.52 392.073 350.551C391.16 353.514 391.261 356.678 392.36 359.544C392.487 359.879 392.754 360.141 393.092 360.266C393.431 360.391 393.809 360.369 394.135 360.203C394.746 359.876 395.5 360.098 395.819 360.699C396.103 361.234 395.95 361.901 395.457 362.272C394.934 362.686 394.806 363.421 395.161 363.971C395.207 364.044 395.26 364.111 395.32 364.172C397.458 366.374 400.286 367.795 403.358 368.212C404.061 368.313 404.723 367.828 404.837 367.129C404.842 367.096 404.846 367.063 404.849 367.03C404.876 366.351 405.453 365.813 406.138 365.829C406.751 365.843 407.254 366.3 407.321 366.904C407.435 367.599 408.097 368.062 408.8 367.937C408.831 367.931 408.861 367.925 408.891 367.917C411.936 367.222 414.654 365.486 416.564 363.016L416.548 362.995ZM400.142 357.809C398.251 354.848 399.163 350.886 402.179 348.959C405.195 347.032 409.174 347.87 411.065 350.831C412.956 353.791 412.044 357.753 409.028 359.68C406.012 361.607 402.034 360.769 400.142 357.809Z" fill="url(#paint1_linear_1717_4973)"/>
<path fill-rule="evenodd" clip-rule="evenodd" d="M403.91 341.769C403.798 341.073 403.137 340.609 402.433 340.733C402.402 340.738 402.37 340.745 402.338 340.753C399.294 341.448 396.576 343.184 394.666 345.655C394.216 346.21 394.299 347.014 394.851 347.451C394.875 347.47 394.9 347.488 394.926 347.506C395.506 347.857 395.681 348.614 395.317 349.195C394.991 349.716 394.334 349.929 393.772 349.696C393.107 349.453 392.361 349.794 392.105 350.457C392.093 350.488 392.082 350.52 392.073 350.551C391.16 353.514 391.261 356.678 392.36 359.544C392.487 359.879 392.754 360.141 393.092 360.266C393.431 360.391 393.809 360.369 394.135 360.203C394.746 359.876 395.5 360.098 395.819 360.699C396.103 361.234 395.95 361.901 395.457 362.272C394.934 362.686 394.806 363.421 395.161 363.971C395.207 364.044 395.26 364.111 395.32 364.172C397.458 366.374 400.286 367.795 403.358 368.212C404.061 368.313 404.723 367.828 404.837 367.129C404.842 367.096 404.846 367.063 404.849 367.03C404.876 366.351 405.453 365.813 406.138 365.829C406.751 365.843 407.254 366.3 407.321 366.904C407.435 367.599 408.097 368.062 408.8 367.937C408.831 367.931 408.861 367.925 408.891 367.917C411.936 367.222 414.654 365.486 416.564 363.016L416.548 362.995C416.998 362.441 416.916 361.636 416.364 361.199C416.339 361.179 416.313 361.16 416.287 361.142C415.758 360.798 415.576 360.112 415.861 359.542C416.169 358.975 416.856 358.724 417.45 358.962C418.115 359.205 418.861 358.864 419.117 358.2C419.129 358.169 419.14 358.138 419.149 358.106C420.062 355.143 419.961 351.98 418.862 349.114C418.734 348.779 418.468 348.516 418.13 348.392C417.792 348.266 417.414 348.288 417.089 348.453C416.49 348.799 415.73 348.602 415.392 348.014C415.075 347.463 415.237 346.756 415.767 346.383C416.053 346.157 416.232 345.824 416.26 345.465C416.289 345.105 416.162 344.754 415.912 344.497C413.774 342.295 410.946 340.874 407.874 340.457C407.171 340.356 406.509 340.841 406.395 341.54C406.39 341.573 406.386 341.605 406.383 341.638C406.36 342.318 405.787 342.86 405.102 342.849C404.484 342.838 403.976 342.378 403.91 341.769ZM415.771 362.365L415.272 362.98L415.285 362.996C413.555 364.969 411.238 366.356 408.669 366.942L408.658 366.945L408.648 366.947C408.641 366.949 408.633 366.951 408.624 366.952C408.464 366.98 408.338 366.881 408.31 366.755C408.307 366.727 408.303 366.699 408.298 366.671L406.161 364.829C404.947 364.801 403.917 365.743 403.851 366.959L403.85 366.968C403.824 367.127 403.666 367.246 403.5 367.222L403.493 367.221C400.64 366.834 398.018 365.515 396.037 363.475L396.031 363.469C396.023 363.46 396.015 363.45 396.008 363.439L396.001 363.428C395.934 363.325 395.946 363.164 396.072 363.061C396.936 362.4 397.221 361.206 396.702 360.23C396.118 359.13 394.758 358.745 393.677 359.314C393.598 359.352 393.512 359.355 393.441 359.328L393.437 359.327C393.369 359.302 393.319 359.251 393.295 359.189L393.294 359.185C392.275 356.531 392.18 353.597 393.028 350.846L393.03 350.84C393.033 350.831 393.035 350.823 393.038 350.817C393.098 350.662 393.272 350.585 393.418 350.631C394.431 351.035 395.589 350.646 396.165 349.726C396.812 348.691 396.517 347.325 395.476 346.67L395.472 346.667C395.367 346.584 395.335 346.418 395.443 346.284L395.45 346.275L395.457 346.266C397.226 343.979 399.742 342.371 402.561 341.728L402.573 341.725L402.586 341.722C402.59 341.721 402.597 341.719 402.607 341.718C402.767 341.69 402.893 341.789 402.921 341.916C403.058 343.013 403.983 343.83 405.086 343.848C406.297 343.868 407.321 342.922 407.381 341.709L407.382 341.7C407.408 341.541 407.566 341.423 407.732 341.447L407.739 341.448C410.592 341.835 413.214 343.154 415.195 345.194L415.197 345.196C415.243 345.244 415.269 345.311 415.263 345.384L415.263 345.387C415.257 345.461 415.221 345.535 415.158 345.589C414.245 346.257 413.949 347.512 414.525 348.513C415.141 349.583 416.496 349.925 417.554 349.339C417.63 349.304 417.712 349.303 417.781 349.329L417.785 349.33C417.853 349.356 417.903 349.407 417.927 349.468L417.928 349.472C418.946 352.127 419.041 355.06 418.193 357.812L418.192 357.817C418.189 357.826 418.186 357.833 418.184 357.84C418.123 357.997 417.947 358.074 417.801 358.025C416.735 357.611 415.526 358.064 414.983 359.065L414.975 359.079L414.967 359.094C414.46 360.108 414.777 361.344 415.73 361.973C415.734 361.976 415.739 361.979 415.743 361.983C415.848 362.066 415.88 362.232 415.771 362.365Z" fill="#333333"/>
<path d="M401.641 348.116C398.174 350.331 397.101 354.906 399.299 358.347L400.798 358.665C400.559 358.403 400.339 358.117 400.142 357.809C398.251 354.848 399.163 350.886 402.179 348.959C405.195 347.032 409.174 347.87 411.065 350.831C412.956 353.791 412.044 357.753 409.028 359.68C408.709 359.884 408.379 360.057 408.042 360.2L409.567 360.523C413.033 358.308 414.106 353.733 411.908 350.292C409.71 346.851 405.107 345.902 401.641 348.116Z" fill="#333333"/>
<path d="M399.299 358.347C401.498 361.788 406.1 362.738 409.567 360.523L408.042 360.2C405.526 361.266 402.61 360.648 400.798 358.665L399.299 358.347Z" fill="#333333"/>
<path d="M408.298 366.671C408.123 365.624 407.226 364.853 406.161 364.829L408.298 366.671Z" fill="#333333"/>
<g clip-path="url(#clip0_1717_4973)">
<path fill-rule="evenodd" clip-rule="evenodd" d="M360 180C360 178.896 360.896 178 362 178L418 178C419.105 178 420 178.895 420 180V233C420 234.105 419.105 235 418 235H362C360.895 235 360 234.105 360 233L360 180Z" fill="#FEFEFE"/>
<path fill-rule="evenodd" clip-rule="evenodd" d="M362 177L418 177C419.657 177 421 178.343 421 180V233C421 234.657 419.657 236 418 236H362C360.343 236 359 234.657 359 233L359 180C359 178.343 360.343 177 362 177ZM362 178C360.896 178 360 178.896 360 180L360 233C360 234.105 360.895 235 362 235H418C419.105 235 420 234.105 420 233V180C420 178.895 419.105 178 418 178L362 178Z" fill="#333333"/>
<path d="M415.89 211.7L415.859 211.814L415.882 211.929L417.03 217.696L411.098 216.51L411.05 216.5H411H393.018C389.266 216.5 386.167 213.315 386.167 209.428C386.167 205.553 389.254 202.5 393.018 202.5H409.289C413.017 202.5 416.14 205.963 416.14 209.877C416.14 210.513 416.047 211.121 415.89 211.7Z" fill="url(#paint2_linear_1717_4973)" stroke="#333333"/>
<path fill-rule="evenodd" clip-rule="evenodd" d="M399.667 208C399.667 206.903 398.764 206 397.667 206C396.57 206 395.667 206.903 395.667 208C395.667 209.097 396.57 210 397.667 210C398.764 210 399.667 209.097 399.667 208ZM393.667 210C393.667 208.903 392.764 208 391.667 208C390.57 208 389.667 208.903 389.667 210C389.667 211.097 390.57 212 391.667 212C392.764 212 393.667 211.097 393.667 210ZM405.667 210C405.667 208.903 404.764 208 403.667 208C402.57 208 401.667 208.903 401.667 210C401.667 211.097 402.57 212 403.667 212C404.764 212 405.667 211.097 405.667 210ZM409.667 208C410.764 208 411.667 208.903 411.667 210C411.667 211.097 410.764 212 409.667 212C408.57 212 407.667 211.097 407.667 210C407.667 208.903 408.57 208 409.667 208Z" fill="white"/>
<path fill-rule="evenodd" clip-rule="evenodd" d="M364.91 226H408.09C408.588 226 409 226.679 409 227.5C409 228.321 408.588 229 408.09 229H364.91C364.412 229 364 228.321 364 227.5C364 226.679 364.412 226 364.91 226Z" fill="#E0E0E0"/>
<path fill-rule="evenodd" clip-rule="evenodd" d="M366.031 225H404.049H409.097C409.772 225 410.271 225.436 410.557 225.885C410.848 226.342 411 226.916 411 227.5C411 228.084 410.848 228.658 410.557 229.115C410.271 229.564 409.772 230 409.097 230H404.049H366.031C365.356 230 364.729 229.564 364.443 229.115C364.152 228.658 364 228.084 364 227.5C364 226.916 364.152 226.342 364.443 225.885C364.729 225.436 365.356 225 366.031 225ZM409.097 225.984H404.049H366.188C365.689 225.984 364.993 226.718 364.993 227.5C364.993 228.282 365.533 229.016 366.031 229.016H404.049H409.097C409.595 229.016 410.007 228.282 410.007 227.5C410.007 226.718 409.595 225.984 409.097 225.984Z" fill="#333333"/>
<path d="M407 225H414C415.105 225 416 225.895 416 227V228C416 229.105 415.105 230 414 230H407V225Z" fill="url(#paint3_linear_1717_4973)"/>
<path d="M366.777 193.367L366.807 193.48L366.785 193.595L365.676 199.166L371.803 196.54L371.897 196.5H372H390C391.943 196.5 393.803 195.994 395.163 195.024C396.508 194.065 397.375 192.648 397.375 190.75C397.375 186.952 394.181 184.5 390.333 184.5H372.333C370.442 184.5 368.992 185.184 368.008 186.319C367.016 187.463 366.458 189.11 366.458 191.095C366.458 191.729 366.619 192.785 366.777 193.367Z" fill="#D9F4FF" stroke="#333333"/>
<path d="M373 188.5H390" stroke="#333333" stroke-linecap="round" stroke-linejoin="round"/>
<path d="M373 192.5H384" stroke="#333333" stroke-linecap="round" stroke-linejoin="round"/>
</g>
<path fill-rule="evenodd" clip-rule="evenodd" d="M277.339 259L298.808 259.001C299.527 259.001 299.934 258.97 300.431 259.351C300.941 259.742 300.927 260.643 300.886 260.936L297.461 289.819C297.326 290.715 296.464 292 295 292H248C246.488 292 245.738 291.065 245.677 290.25L243.23 255.559C243.23 255.239 243.097 254.074 244.973 254.074L270.696 253.974C271.449 253.974 271.989 254 272.539 254.558L277.339 259ZM273.754 254.067L278 258H299C300.758 258 302.17 259.205 301.974 260.506L298.269 290.598C298.074 291.899 296.804 293 295.046 293H247.971C246.213 293 244.719 291.868 244.621 290.567L242.007 255.108C241.913 254.074 242.734 253 244.169 253H271.333C272.289 253 273.071 253.366 273.754 254.067Z" fill="#333333"/>
<path d="M246.5 253.563V249.5C246.5 248.395 247.395 247.5 248.5 247.5H296.625C297.73 247.5 298.625 248.395 298.625 249.5V258.625" stroke="#333333"/>
<path d="M240.121 430.115C240.047 429.801 240.286 429.5 240.608 429.5H307.737C308.059 429.5 308.297 429.801 308.223 430.115L308.197 430.228L308.683 430.343L308.197 430.228C307.611 432.711 305.395 434.466 302.844 434.466H245.501C242.95 434.466 240.734 432.711 240.148 430.228L240.121 430.115Z" fill="#D9F4FF" stroke="#333333"/>
<path d="M240 392C240 388.45 243.922 387 245 387H298C301.419 387 304 388.878 304 392.429V430H239.969L240 392Z" fill="white"/>
<path d="M245.688 387H298.071C301.019 387 302.966 389.41 302.966 392.616V429H257.386C257.11 429 256.886 429.224 256.886 429.5C256.886 429.776 257.11 430 257.386 430H304V392.616C304 388.962 301.441 386 298.071 386H245.688C242.318 386 239 389 239 392.5V394C239 394.276 239.224 394.5 239.5 394.5C239.776 394.5 240 394.276 240 394V392.616C240 389.719 242.739 387 245.688 387Z" fill="#333333"/>
<path d="M229.5 400C229.5 398.067 231.067 396.5 233 396.5H248C249.933 396.5 251.5 398.067 251.5 400V432C251.5 433.933 249.933 435.5 248 435.5H233C231.067 435.5 229.5 433.933 229.5 432V400Z" fill="white" stroke="#333333"/>
<circle cx="271.414" cy="408.897" r="11.569" fill="url(#paint4_linear_1717_4973)" stroke="#333333"/>
<path d="M234.905 423L234.777 424.227L236.009 423.877L236.105 424.561L234.954 424.664L235.701 425.663L235.079 426L234.537 424.924L234.052 425.997L233.404 425.663L234.145 424.664L233 424.558L233.109 423.877L234.318 424.227L234.19 423H234.905Z" fill="#333333"/>
<path d="M238.87 423L238.742 424.227L239.974 423.877L240.07 424.561L238.918 424.664L239.666 425.663L239.044 426L238.501 424.924L238.017 425.997L237.369 425.663L238.11 424.664L236.965 424.558L237.074 423.877L238.283 424.227L238.155 423H238.87Z" fill="#333333"/>
<path d="M242.835 423L242.707 424.227L243.939 423.877L244.035 424.561L242.883 424.664L243.631 425.663L243.009 426L242.466 424.924L241.982 425.997L241.334 425.663L242.075 424.664L240.93 424.558L241.039 423.877L242.248 424.227L242.12 423H242.835Z" fill="#333333"/>
<path d="M246.8 423L246.672 424.227L247.904 423.877L248 424.561L246.848 424.664L247.596 425.663L246.974 426L246.431 424.924L245.947 425.997L245.299 425.663L246.04 424.664L244.895 424.558L245.004 423.877L246.213 424.227L246.085 423H246.8Z" fill="#333333"/>
<path d="M270.452 415.448C270.86 415.737 270.86 415.737 270.86 415.737L270.86 415.736L270.861 415.735L270.864 415.732L270.875 415.716L270.917 415.656L271.082 415.422C271.226 415.219 271.434 414.923 271.693 414.555C272.211 413.819 272.933 412.791 273.746 411.626C275.372 409.298 277.367 406.418 278.838 404.221C279.118 403.803 279.215 403.356 279.119 402.941C279.024 402.531 278.753 402.212 278.41 402.027C277.704 401.649 276.748 401.844 276.135 402.726C275.487 403.661 274.897 404.533 274.329 405.374C272.999 407.34 271.784 409.137 270.194 411.171C270.045 410.998 269.86 410.784 269.643 410.54C269.058 409.881 268.245 409 267.341 408.117C266.594 407.388 265.608 407.326 264.952 407.811C264.628 408.052 264.404 408.42 264.367 408.858C264.33 409.295 264.483 409.749 264.81 410.174C264.817 410.184 264.825 410.194 264.834 410.203C266.089 411.603 267.404 413.002 268.405 414.05C268.906 414.574 269.328 415.011 269.625 415.317C269.774 415.47 269.891 415.59 269.972 415.673L270.064 415.766L270.087 415.791L270.093 415.797L270.095 415.798L270.095 415.799L270.095 415.799L270.452 415.448ZM270.452 415.448L270.095 415.799C270.199 415.904 270.345 415.958 270.492 415.947C270.64 415.935 270.775 415.858 270.86 415.737L270.452 415.448Z" fill="white" stroke="#333333" stroke-linejoin="round"/>
<path d="M234.5 396.5H246.5V397C246.5 398.381 245.381 399.5 244 399.5H237C235.619 399.5 234.5 398.381 234.5 397V396.5Z" fill="white" stroke="#333333"/>
<rect x="236" y="432" width="9" height="1" rx="0.5" fill="#333333"/>
<path d="M236.561 413.937L235.808 412.633C235.531 412.152 234.917 411.991 234.438 412.267L234.002 412.519L234.002 412.519C233.524 412.796 233.357 413.408 233.634 413.889L234.067 413.639L233.634 413.889L234.386 415.194L234.383 415.196L234.632 415.628L234.383 415.196C233.905 415.472 233.737 416.084 234.014 416.565L234.265 417C234.542 417.481 235.156 417.641 235.635 417.365L241.997 413.687C243.249 414.663 245.02 414.836 246.482 413.991C248.406 412.879 249.072 410.423 247.965 408.502C246.857 406.581 244.398 405.931 242.475 407.043C240.851 407.981 240.124 409.877 240.602 411.601L238.741 412.676L238.49 412.241C238.213 411.76 237.599 411.599 237.12 411.876L236.684 412.128C236.206 412.404 236.038 413.016 236.316 413.497L236.567 413.933L236.561 413.937ZM245.23 411.822C244.504 412.241 243.581 411.994 243.167 411.275C242.753 410.556 243 409.632 243.727 409.212L243.476 408.779L243.727 409.212C244.453 408.792 245.376 409.039 245.79 409.758C246.205 410.477 245.957 411.402 245.23 411.822Z" fill="url(#paint5_linear_1717_4973)" stroke="#333333"/>
<path fill-rule="evenodd" clip-rule="evenodd" d="M157.088 365.032C131.539 354.592 131 323.721 131 317.961C146.344 303.241 168.081 303.241 183.426 318.602C182.786 324.361 182.649 354.592 157.088 365.032Z" fill="#D9F4FF"/>
<path d="M161.866 362.612C161.866 362.612 159.634 364.331 157.088 365.032C131.539 354.592 131 323.721 131 317.961C146.344 303.241 168.081 303.241 183.426 318.602C183.426 321.617 182.986 324.109 182.557 326.774" stroke="#333333" stroke-linecap="round" stroke-linejoin="round"/>
<path fill-rule="evenodd" clip-rule="evenodd" d="M157.213 360.787C136.808 351.899 135.815 324.478 135.085 320.234C148.356 307.717 165.679 308.357 179.341 320.234C179.341 324.365 177.227 351.258 157.213 360.787Z" fill="#FEFEFE"/>
<path d="M161.06 358.679C161.06 358.679 158.877 359.995 157.213 360.787C136.808 351.899 135.815 324.478 135.085 320.234C148.356 307.717 165.679 308.357 179.341 320.234C179.341 321.188 179.164 324.297 178.463 327.553" stroke="#333333" stroke-linecap="round" stroke-linejoin="round"/>
<path d="M157.274 347.17C156.913 347.517 156.913 347.517 156.913 347.517L156.913 347.517L156.913 347.516L156.91 347.513L156.899 347.502L156.857 347.458L156.694 347.288C156.552 347.139 156.343 346.921 156.08 346.643C155.552 346.087 154.802 345.293 153.914 344.341C152.137 342.437 149.802 339.896 147.576 337.355C147.568 337.345 147.56 337.335 147.552 337.325C147.019 336.615 146.794 335.889 146.848 335.221C146.903 334.551 147.236 333.987 147.728 333.614C148.722 332.861 150.269 332.927 151.479 334.135C153.077 335.731 154.513 337.326 155.55 338.521C156.068 339.118 156.487 339.616 156.777 339.966C156.794 339.987 156.811 340.007 156.828 340.027C159.808 336.159 162.044 332.773 164.489 329.071C165.498 327.544 166.543 325.963 167.69 324.272C168.675 322.819 170.169 322.54 171.235 323.126C171.757 323.413 172.158 323.903 172.298 324.52C172.439 325.141 172.304 325.837 171.857 326.52C169.244 330.513 165.701 335.747 162.812 339.981C161.367 342.099 160.085 343.967 159.165 345.306C158.705 345.975 158.335 346.512 158.08 346.882L157.787 347.307L157.711 347.417L157.692 347.445L157.687 347.452L157.686 347.454L157.685 347.454C157.685 347.454 157.685 347.454 157.274 347.17ZM157.274 347.17L156.913 347.517C157.017 347.625 157.165 347.681 157.314 347.669C157.464 347.656 157.6 347.578 157.685 347.454L157.274 347.17Z" fill="url(#paint6_linear_1717_4973)" stroke="#333333" stroke-linejoin="round"/>
<path d="M184.469 343.853L184.467 344.355H184.969H186.672C187.088 344.355 187.502 344.399 187.889 344.487L188.5 344.627V344V338C188.5 334.41 185.59 331.5 182 331.5H176C172.41 331.5 169.5 334.41 169.5 338V344V344.627L170.111 344.487C170.491 344.401 170.898 344.356 171.307 344.355L173.021 344.498L173.566 344.544L173.562 343.997L173.528 339.024C173.514 337.082 175.085 335.5 177.028 335.5H180.986C182.924 335.5 184.493 337.075 184.486 339.012L184.469 343.853Z" fill="white" stroke="#333333"/>
<path d="M165.5 347.693L165.5 347.691C165.489 344.829 167.761 342.5 170.502 342.5H187.498C190.237 342.5 192.5 344.827 192.5 347.693V361.307C192.5 364.184 190.227 366.5 187.498 366.5H170.502C167.763 366.5 165.5 364.173 165.5 361.307L165.5 347.693Z" fill="url(#paint7_linear_1717_4973)" stroke="#333333"/>
<path d="M181.751 360.5H182.377L182.239 359.889L181.076 354.764C182.434 353.679 182.752 352.17 182.319 350.892C181.867 349.558 180.6 348.5 178.979 348.5C177.382 348.5 176.115 349.452 175.67 350.768C175.244 352.029 175.598 353.527 176.934 354.738L175.712 359.884L175.566 360.5H176.199H181.751Z" fill="white" stroke="#333333"/>
<g clip-path="url(#clip1_1717_4973)">
<path d="M300 142.5H300.5V142L300.5 107.339L300.5 107.335C300.492 106.321 300.089 105.351 299.375 104.633C298.661 103.915 297.694 103.508 296.683 103.5V103.5H296.68H241.32V103.5L241.317 103.5C240.306 103.508 239.339 103.915 238.625 104.633C237.911 105.351 237.508 106.321 237.5 107.335L237.5 107.335V107.339V142V142.5H238H300Z" fill="#FEFEFE" stroke="#333333"/>
<path d="M277.198 151.2H260.558V155.893H277.198V151.2Z" fill="#EFEFEF"/>
<path d="M277.415 155.5H257.103C256.42 155.5 255.761 155.758 255.271 156.224C254.781 156.69 254.5 157.329 254.5 158C254.5 158.671 254.781 159.31 255.271 159.776C255.761 160.242 256.42 160.5 257.103 160.5H280.897C281.58 160.5 282.239 160.242 282.729 159.776C283.219 159.31 283.5 158.671 283.5 158C283.5 157.329 283.219 156.69 282.729 156.224C282.239 155.758 281.58 155.5 280.897 155.5H277.415Z" fill="#EFEFEF" stroke="#333333"/>
<path d="M268.85 148.123C269.844 148.123 270.649 147.316 270.649 146.322C270.649 145.327 269.844 144.52 268.85 144.52C267.856 144.52 267.051 145.327 267.051 146.322C267.051 147.316 267.856 148.123 268.85 148.123Z" fill="#333333"/>
<path d="M243 117C243 114.239 245.239 112 248 112H291C293.761 112 296 114.239 296 117V141H243V117Z" fill="white"/>
<path d="M243 116C243 113.791 244.791 112 247 112H294C295.105 112 296 112.895 296 114V119H243V116Z" fill="#D9F4FF"/>
<path fill-rule="evenodd" clip-rule="evenodd" d="M247 115.5C247 115.224 247.224 115 247.5 115H257.5C257.776 115 258 115.224 258 115.5C258 115.776 257.776 116 257.5 116H247.5C247.224 116 247 115.776 247 115.5Z" fill="#333333"/>
<path d="M296.5 130.5V141.5H242.5L242.526 116.526C242.529 113.767 244.767 111.531 247.526 111.531H293.326C295.079 111.531 296.5 112.952 296.5 114.705V114.705" stroke="#333333" stroke-linecap="round"/>
<path fill-rule="evenodd" clip-rule="evenodd" d="M242.5 119.5C242.5 119.224 242.724 119 243 119H289C289.276 119 289.5 119.224 289.5 119.5C289.5 119.776 289.276 120 289 120H243C242.724 120 242.5 119.776 242.5 119.5Z" fill="#333333"/>
<path d="M263.142 122.5H246.858C246.058 122.5 245.5 123.209 245.5 123.959V134.041C245.5 134.794 246.056 135.5 246.858 135.5H263.142C263.942 135.5 264.5 134.791 264.5 134.041V123.959C264.5 123.209 263.942 122.5 263.142 122.5Z" fill="#D9F4FF" stroke="#333333"/>
<path d="M251.355 129.96L251.016 129.658L250.683 129.967L246.406 133.941L246.746 134.307L246.406 133.941C245.806 134.497 246.2 135.5 247.018 135.5H263C263.828 135.5 264.5 134.828 264.5 134V131.899V131.682L264.341 131.533L260.155 127.634L259.802 127.306L259.461 127.646L254.411 132.675L251.355 129.96Z" fill="white" stroke="#333333"/>
<path d="M249 127.5C249.83 127.5 250.5 126.829 250.5 125.999C250.5 125.168 249.827 124.5 249 124.5C248.171 124.5 247.5 125.171 247.5 125.999C247.5 126.827 248.17 127.5 249 127.5Z" fill="url(#paint8_linear_1717_4973)" stroke="#333333"/>
<path d="M269 128.5H279" stroke="#333333" stroke-linecap="round"/>
<path d="M269 131.5H278" stroke="#333333" stroke-linecap="round"/>
<path d="M269 134.5H275" stroke="#333333" stroke-linecap="round"/>
<path d="M269 124.5H282" stroke="url(#paint9_linear_1717_4973)" stroke-linecap="round"/>
<path d="M300.5 142V141.5H300H238H237.5V142V148.672H237.5L237.5 148.676C237.508 149.687 237.912 150.656 238.626 151.371C239.34 152.087 240.306 152.492 241.317 152.5L241.317 152.5H241.32L296.68 152.5L296.683 152.5C297.694 152.492 298.66 152.087 299.374 151.371L299.02 151.018L299.374 151.371C300.088 150.656 300.492 149.687 300.5 148.676V148.672V142Z" fill="#D9F4FF" stroke="#333333"/>
<path d="M261 152H260V155H261V152Z" fill="#333333"/>
<path d="M278 152H277V155H278V152Z" fill="#333333"/>
<path fill-rule="evenodd" clip-rule="evenodd" d="M241.784 106.827C241.953 106.827 242.118 106.877 242.259 106.97C242.399 107.064 242.508 107.198 242.573 107.353C242.637 107.509 242.654 107.681 242.621 107.846C242.588 108.012 242.507 108.164 242.388 108.283C242.269 108.403 242.116 108.484 241.951 108.517C241.785 108.55 241.614 108.533 241.458 108.468C241.302 108.404 241.169 108.294 241.075 108.154C240.981 108.014 240.931 107.849 240.931 107.68C240.931 107.454 241.021 107.237 241.181 107.077C241.341 106.917 241.558 106.827 241.784 106.827ZM244.515 106.827C244.684 106.827 244.849 106.877 244.989 106.97C245.13 107.064 245.239 107.198 245.304 107.353C245.368 107.509 245.385 107.681 245.352 107.846C245.319 108.012 245.238 108.164 245.119 108.283C244.999 108.403 244.847 108.484 244.682 108.517C244.516 108.55 244.345 108.533 244.189 108.468C244.033 108.404 243.899 108.294 243.806 108.154C243.712 108.014 243.662 107.849 243.662 107.68C243.662 107.454 243.752 107.237 243.912 107.077C244.072 106.917 244.289 106.827 244.515 106.827ZM247.718 106.969C247.577 106.876 247.412 106.826 247.243 106.827C247.017 106.828 246.801 106.918 246.641 107.078C246.482 107.238 246.392 107.454 246.392 107.68C246.392 107.849 246.443 108.014 246.537 108.154C246.63 108.295 246.764 108.404 246.92 108.469C247.076 108.533 247.248 108.55 247.413 108.517C247.579 108.484 247.731 108.402 247.85 108.282C247.97 108.163 248.051 108.01 248.083 107.844C248.116 107.679 248.098 107.507 248.033 107.351C247.968 107.195 247.858 107.062 247.718 106.969Z" fill="url(#paint10_linear_1717_4973)"/>
<rect x="252" y="107" width="33" height="1" rx="0.5" fill="#333333"/>
<rect x="287" y="107" width="9" height="1" rx="0.5" fill="#FF6F3D"/>
<path fill-rule="evenodd" clip-rule="evenodd" d="M298.504 131C298.75 131 299 131.222 299 131.444V138.556C299 138.778 298.779 139 298.504 139C298.229 139 298 138.778 298 138.556V131.444C298 131.222 298.25 131 298.504 131Z" fill="#AAAAAA"/>
<path fill-rule="evenodd" clip-rule="evenodd" d="M292.968 121.622L296.072 124.725L284.305 136.492L281.202 133.388L292.968 121.622Z" fill="url(#paint11_linear_1717_4973)"/>
<path fill-rule="evenodd" clip-rule="evenodd" d="M280.345 137.739C280.235 137.767 280.119 137.735 280.038 137.655C279.958 137.575 279.927 137.459 279.955 137.349L280.9 133.69L284.004 136.793L280.345 137.739Z" fill="white"/>
<path d="M298.287 122.321C298.482 122.125 298.482 121.809 298.287 121.614L296.08 119.407C295.885 119.212 295.568 119.212 295.373 119.407L281.093 133.687L280.122 137.572L284.007 136.601L298.287 122.321ZM279.799 137.652L279.799 137.652L279.799 137.652Z" stroke="#333333"/>
<path fill-rule="evenodd" clip-rule="evenodd" d="M293.862 123L282.398 134.465L283.106 135.172L294.57 123.708L293.862 123Z" fill="white"/>
<path fill-rule="evenodd" clip-rule="evenodd" d="M297.937 121.963L295.701 119.727L293.387 122.041L295.623 124.277L297.937 121.963Z" fill="white"/>
<path fill-rule="evenodd" clip-rule="evenodd" d="M284.513 136.284L281.41 133.181L280.705 133.886L283.808 136.989L284.513 136.284Z" fill="#333333"/>
<path fill-rule="evenodd" clip-rule="evenodd" d="M296.071 124.725L292.968 121.622L292.666 121.924L295.77 125.027L296.071 124.725Z" fill="#333333"/>
<path fill-rule="evenodd" clip-rule="evenodd" d="M297.1 123.103L294.535 120.538L293.831 121.242L296.396 123.807L297.1 123.103Z" fill="#333333"/>
<path fill-rule="evenodd" clip-rule="evenodd" d="M281.719 137.526L280.168 135.975L279.909 137.526L280.168 137.785L281.719 137.526Z" fill="#333333"/>
<circle cx="269.091" cy="146.507" r="1.28" fill="#333333"/>
</g>
<path d="M164.501 183.888C160.519 181.517 156.92 181 152.065 181C140.78 181 131.5 188.86 131.5 201.772M168.359 186.488C172.789 190.215 174.5 195.744 174.5 200.262V217" stroke="#333333" stroke-linecap="round" stroke-linejoin="round"/>
<path d="M124.082 204.5H126.918C127.778 204.5 128.5 205.222 128.5 206.125V217.875C128.5 218.778 127.778 219.5 126.918 219.5H124.082C123.222 219.5 122.5 218.778 122.5 217.875V206.125C122.5 205.222 123.222 204.5 124.082 204.5Z" fill="#D9F4FF" stroke="#333333"/>
<path d="M174.5 222V226.622C174.5 228.099 173.869 229.443 172.85 230.419C171.831 231.395 170.428 232 168.885 232H156.5" stroke="#333333" stroke-linecap="round"/>
<path d="M126.5 204.389V200.992C126.5 186.125 137.525 177 152.942 177C169.605 177 179.5 188.184 179.5 200.992V206" stroke="#333333"/>
<path d="M150.786 215.036C151.044 215.062 151.343 215.072 151.682 215.072C152.301 215.072 152.838 215.018 153.218 214.847C153.402 214.764 153.584 214.646 153.718 214.469C153.859 214.285 153.923 214.073 153.923 213.851L153.994 208.462C155.077 208.361 156.156 208.152 157.09 207.739C158.146 207.273 159.048 206.633 159.806 205.809L159.806 205.809L159.809 205.805C160.558 204.975 161.136 203.984 161.552 202.834C161.973 201.672 162.17 200.354 162.17 198.895C162.17 197.586 161.976 196.339 161.595 195.149L161.595 195.149L161.592 195.14C161.188 193.953 160.574 192.909 159.733 192.015C158.897 191.117 157.834 190.411 156.567 189.901C155.283 189.381 153.764 189.126 152.041 189.126C151.188 189.126 150.364 189.205 149.579 189.349L149.579 189.349L149.574 189.35C148.797 189.5 148.069 189.676 147.407 189.899C146.743 190.112 146.177 190.352 145.693 190.617L145.687 190.621L145.68 190.625C145.266 190.867 144.898 191.093 144.686 191.305C144.446 191.526 144.304 191.8 144.238 192.076C144.172 192.342 144.149 192.681 144.149 193.076C144.149 193.437 144.163 193.765 144.201 194.028C144.236 194.284 144.291 194.516 144.37 194.704L144.37 194.704L144.371 194.706C144.466 194.93 144.614 195.11 144.798 195.22L144.798 195.22L144.801 195.222C144.978 195.327 145.167 195.368 145.354 195.368C145.527 195.368 145.696 195.315 145.841 195.256C145.991 195.194 146.155 195.107 146.328 195.003C146.637 194.825 147.045 194.607 147.534 194.365C148.005 194.14 148.572 193.926 149.238 193.727C149.866 193.539 150.614 193.443 151.49 193.443C152.482 193.443 153.317 193.593 154.013 193.869C154.704 194.148 155.274 194.54 155.729 195.033C156.178 195.535 156.522 196.134 156.754 196.834C156.984 197.552 157.108 198.343 157.108 199.214C157.108 199.974 157.006 200.707 156.817 201.403L156.817 201.404C156.633 202.083 156.333 202.665 155.93 203.149L155.93 203.149L155.924 203.156C155.535 203.64 155.013 204.038 154.351 204.339C153.708 204.631 152.908 204.789 151.938 204.789H151.42C151.115 204.789 150.812 204.815 150.538 204.887C150.235 204.965 149.961 205.121 149.754 205.347C149.553 205.564 149.41 205.823 149.321 206.127C149.228 206.433 149.206 206.801 149.22 207.191L149.365 213.854C149.366 214.051 149.403 214.257 149.535 214.459L149.535 214.459L149.541 214.469C149.679 214.67 149.88 214.796 150.067 214.875L150.067 214.875L150.078 214.88C150.278 214.959 150.513 215.009 150.786 215.036ZM150.786 215.036C150.787 215.036 150.787 215.036 150.788 215.036L150.836 214.539L150.786 215.036C150.786 215.036 150.786 215.036 150.786 215.036ZM154.655 221.683L154.654 221.683C154.568 222.079 154.414 222.447 154.146 222.744C153.879 223.059 153.528 223.249 153.138 223.359L153.135 223.36C152.747 223.466 152.307 223.511 151.803 223.511C151.273 223.511 150.809 223.467 150.431 223.358C150.049 223.247 149.699 223.057 149.423 222.749L149.422 222.748C149.165 222.461 148.989 222.096 148.904 221.677L148.903 221.675C148.824 221.282 148.791 220.812 148.791 220.266C148.791 219.725 148.824 219.242 148.903 218.837L148.904 218.831L148.904 218.831C148.991 218.406 149.16 218.027 149.438 217.743L149.795 218.093L149.438 217.743C149.713 217.463 150.053 217.287 150.432 217.179C150.432 217.179 150.433 217.179 150.433 217.179L150.57 217.66C150.883 217.569 151.294 217.526 151.803 217.526C152.279 217.526 152.672 217.569 153.003 217.66L154.655 221.683ZM154.655 221.683L154.656 221.675C154.735 221.282 154.769 220.812 154.769 220.266C154.769 219.724 154.735 219.247 154.657 218.838L154.657 218.838L154.656 218.831C154.57 218.414 154.409 218.035 154.132 217.75L154.655 221.683Z" fill="url(#paint12_linear_1717_4973)" stroke="#333333"/>
<path d="M158.5 231.999C158.499 230.053 156.831 228.5 154.838 228.5H149.162C147.176 228.5 145.5 230.046 145.5 232C145.5 233.946 147.169 235.5 149.162 235.5H154.838C156.829 235.5 158.507 233.948 158.5 231.999ZM158.5 231.999C158.5 231.999 158.5 231.998 158.5 231.998L158 232H158.5C158.5 232 158.5 231.999 158.5 231.999Z" fill="#D9F4FF" stroke="#333333"/>
<path d="M183.5 206.121H183.5V206.123V217.877C183.5 218.78 182.78 219.5 181.919 219.5H179.081C178.22 219.5 177.5 218.78 177.5 217.877V206.123C177.5 205.225 178.221 204.5 179.081 204.5H181.919C182.782 204.5 183.504 205.222 183.5 206.121Z" fill="#D9F4FF" stroke="#333333"/>
<defs>
<linearGradient id="paint0_linear_1717_4973" x1="369.7" y1="302.899" x2="382.226" y2="317.716" gradientUnits="userSpaceOnUse">
<stop stop-color="#FFC671"/>
<stop offset="1" stop-color="#FF6F3D"/>
</linearGradient>
<linearGradient id="paint1_linear_1717_4973" x1="410.797" y1="334.411" x2="401.354" y2="373.67" gradientUnits="userSpaceOnUse">
<stop stop-color="#FFC671"/>
<stop offset="0.59375" stop-color="#FF7541"/>
<stop offset="1" stop-color="#FF6F3D"/>
</linearGradient>
<linearGradient id="paint2_linear_1717_4973" x1="385.667" y1="201.362" x2="398.604" y2="227.698" gradientUnits="userSpaceOnUse">
<stop stop-color="#FF8E3D"/>
<stop offset="1" stop-color="#FF6F3D"/>
</linearGradient>
<linearGradient id="paint3_linear_1717_4973" x1="407" y1="224.805" x2="411.161" y2="232.587" gradientUnits="userSpaceOnUse">
<stop stop-color="#FF8E3D"/>
<stop offset="1" stop-color="#FF6F3D"/>
</linearGradient>
<linearGradient id="paint4_linear_1717_4973" x1="259.345" y1="395.885" x2="283.483" y2="420.966" gradientUnits="userSpaceOnUse">
<stop stop-color="#FFC671"/>
<stop offset="0.59375" stop-color="#FF7541"/>
<stop offset="1" stop-color="#FF6F3D"/>
</linearGradient>
<linearGradient id="paint5_linear_1717_4973" x1="234" y1="406.609" x2="243.343" y2="420.201" gradientUnits="userSpaceOnUse">
<stop stop-color="#FFC671"/>
<stop offset="0.59375" stop-color="#FF7541"/>
<stop offset="1" stop-color="#FF6F3D"/>
</linearGradient>
<linearGradient id="paint6_linear_1717_4973" x1="147.34" y1="322.41" x2="171.135" y2="347.84" gradientUnits="userSpaceOnUse">
<stop stop-color="#FF8E3D"/>
<stop offset="1" stop-color="#FF6F3D"/>
</linearGradient>
<linearGradient id="paint7_linear_1717_4973" x1="165" y1="341.023" x2="189.733" y2="369.807" gradientUnits="userSpaceOnUse">
<stop stop-color="#FF8E3D"/>
<stop offset="1" stop-color="#FF6F3D"/>
</linearGradient>
<linearGradient id="paint8_linear_1717_4973" x1="248" y1="124.922" x2="250" y2="127" gradientUnits="userSpaceOnUse">
<stop stop-color="#FF8E3D"/>
<stop offset="1" stop-color="#FF6F3D"/>
</linearGradient>
<linearGradient id="paint9_linear_1717_4973" x1="268.574" y1="122.5" x2="282" y2="122.5" gradientUnits="userSpaceOnUse">
<stop stop-color="#FF8E3D"/>
<stop offset="1" stop-color="#FF6F3D"/>
</linearGradient>
<linearGradient id="paint10_linear_1717_4973" x1="240.931" y1="106.76" x2="241.675" y2="110.005" gradientUnits="userSpaceOnUse">
<stop stop-color="#FF8E3D"/>
<stop offset="1" stop-color="#FF6F3D"/>
</linearGradient>
<linearGradient id="paint11_linear_1717_4973" x1="286.353" y1="126.435" x2="289.979" y2="130.275" gradientUnits="userSpaceOnUse">
<stop stop-color="#FFC671"/>
<stop offset="1" stop-color="#FF6F3D"/>
</linearGradient>
<linearGradient id="paint12_linear_1717_4973" x1="144.649" y1="188.322" x2="172.29" y2="202.966" gradientUnits="userSpaceOnUse">
<stop stop-color="#FF8E3D"/>
<stop offset="1" stop-color="#FF6F3D"/>
</linearGradient>
<clipPath id="clip0_1717_4973">
<rect width="64" height="64" fill="white" transform="translate(359 174)"/>
</clipPath>
<clipPath id="clip1_1717_4973">
<rect width="64" height="64" fill="white" transform="translate(237 100)"/>
</clipPath>
</defs>
</svg>
