<svg width="544" height="544" viewBox="0 0 544 544" fill="none" xmlns="http://www.w3.org/2000/svg">
<g clip-path="url(#clip0_1717_5217)">
<g style="mix-blend-mode:multiply">
<path fill-rule="evenodd" clip-rule="evenodd" d="M271.166 195.681C229.477 195.681 195.681 229.477 195.681 271.166C195.681 312.855 229.477 346.651 271.166 346.651C312.855 346.651 346.651 312.855 346.651 271.166C346.651 229.477 312.855 195.681 271.166 195.681ZM194.519 271.166C194.519 228.835 228.835 194.519 271.166 194.519C313.497 194.519 347.813 228.835 347.813 271.166C347.813 313.497 313.497 347.813 271.166 347.813C228.835 347.813 194.519 313.497 194.519 271.166Z" fill="#EFEFEF"/>
<path fill-rule="evenodd" clip-rule="evenodd" d="M271.166 173.616C217.291 173.616 173.616 217.291 173.616 271.166C173.616 325.041 217.291 368.715 271.166 368.715C325.041 368.715 368.716 325.041 368.716 271.166C368.716 217.291 325.041 173.616 271.166 173.616ZM172.454 271.166C172.454 216.649 216.649 172.454 271.166 172.454C325.683 172.454 369.878 216.649 369.878 271.166C369.878 325.683 325.683 369.878 271.166 369.878C216.649 369.878 172.454 325.683 172.454 271.166Z" fill="#EFEFEF"/>
<path fill-rule="evenodd" clip-rule="evenodd" d="M271.166 108.583C181.374 108.583 108.583 181.374 108.583 271.166C108.583 360.958 181.374 433.749 271.166 433.749C360.958 433.749 433.749 360.958 433.749 271.166C433.749 181.374 360.958 108.583 271.166 108.583ZM107.42 271.166C107.42 180.732 180.732 107.421 271.166 107.421C361.6 107.421 434.911 180.732 434.911 271.166C434.911 361.6 361.6 434.911 271.166 434.911C180.732 434.911 107.42 361.6 107.42 271.166Z" fill="#EFEFEF"/>
<path fill-rule="evenodd" clip-rule="evenodd" d="M272 1.16239C122.421 1.16239 1.16239 122.421 1.16239 272C1.16239 421.579 122.421 542.838 272 542.838C421.579 542.838 542.838 421.579 542.838 272C542.838 122.421 421.579 1.16239 272 1.16239ZM0 272C0 121.779 121.779 0 272 0C422.221 0 544 121.779 544 272C544 422.221 422.221 544 272 544C121.779 544 0 422.221 0 272Z" fill="#EFEFEF"/>
</g>
<path fill-rule="evenodd" clip-rule="evenodd" d="M271.995 301.797V244.558H272.883V301.797H271.995Z" fill="#333333"/>
<path fill-rule="evenodd" clip-rule="evenodd" d="M243.808 273.162C243.808 288.731 256.43 301.353 272 301.353C287.571 301.353 300.192 288.731 300.192 273.162C300.192 257.594 287.571 244.972 272 244.972C256.43 244.972 243.808 257.594 243.808 273.162ZM272 302.222C255.952 302.222 242.94 289.212 242.94 273.162C242.94 257.112 255.952 244.103 272 244.103C288.049 244.103 301.06 257.112 301.06 273.162C301.06 289.212 288.049 302.222 272 302.222Z" fill="#333333"/>
<path fill-rule="evenodd" clip-rule="evenodd" d="M301.06 273.162H242.94V272.282H301.06V273.162Z" fill="#333333"/>
<path fill-rule="evenodd" clip-rule="evenodd" d="M250.177 254.046C255.118 258.575 263.086 261.476 272.028 261.476C280.969 261.476 288.94 258.574 293.883 254.155L294.461 254.802C289.329 259.39 281.138 262.344 272.028 262.344C262.918 262.344 254.724 259.39 249.59 254.685L250.177 254.046Z" fill="#333333"/>
<path fill-rule="evenodd" clip-rule="evenodd" d="M271.922 283.9C263.043 283.9 255.14 286.732 250.175 291.218L249.593 290.574C254.75 285.915 262.876 283.032 271.922 283.032C281.079 283.032 289.201 286.032 294.46 290.686L293.885 291.335C288.809 286.844 280.903 283.9 271.922 283.9Z" fill="#333333"/>
<path fill-rule="evenodd" clip-rule="evenodd" d="M261.469 253.13C258.718 258.235 257.004 265.317 257.004 273.162C257.004 281.008 258.718 288.09 261.469 293.195C264.228 298.315 267.97 301.353 272 301.353C276.031 301.353 279.773 298.315 282.532 293.195C285.282 288.09 286.996 281.008 286.996 273.162C286.996 265.317 285.282 258.235 282.532 253.13C279.773 248.01 276.031 244.972 272 244.972C267.97 244.972 264.228 248.01 261.469 253.13ZM260.719 252.713C263.543 247.473 267.513 244.103 272 244.103C276.488 244.103 280.458 247.473 283.281 252.713C286.113 257.968 287.851 265.199 287.851 273.162C287.851 281.126 286.113 288.357 283.281 293.612C280.458 298.852 276.488 302.222 272 302.222C267.513 302.222 263.543 298.852 260.719 293.612C257.888 288.357 256.149 281.126 256.149 273.162C256.149 265.199 257.888 257.968 260.719 252.713Z" fill="#333333"/>
<path fill-rule="evenodd" clip-rule="evenodd" d="M203.081 350.078C201.776 351.023 201 352.555 201 354.189V382.88C201 385.663 203.193 388 205.918 388H256.071C258.796 388 261 385.663 261 382.88V354.189C261 352.555 260.224 351.023 258.919 350.078L233.854 331.928C232.144 330.691 229.856 330.691 228.146 331.928L203.081 350.078Z" fill="white"/>
<path fill-rule="evenodd" clip-rule="evenodd" d="M237.025 367.939C230.605 372.999 229.932 372.221 224.645 368.328L203.873 386.495C204.25 387.402 205.572 387.811 206.327 387.791H254.859C256.827 387.811 257.503 387.402 258.258 386.623L237.025 367.939Z" fill="#EFEFEF"/>
<path fill-rule="evenodd" clip-rule="evenodd" d="M249.696 344.562V359.862L260.5 352L249.696 344.562Z" fill="#BDECFF"/>
<path fill-rule="evenodd" clip-rule="evenodd" d="M212.531 344.339V360.332L201.5 352.5L212.531 344.339Z" fill="#BDECFF"/>
<path fill-rule="evenodd" clip-rule="evenodd" d="M236 334L226 334L230.872 331L236 334Z" fill="#BDECFF"/>
<path fill-rule="evenodd" clip-rule="evenodd" d="M260.013 382.88V354.189C260 352.5 259.393 351.656 258.349 350.9L233.283 332.751C231.915 331.76 230.085 331.76 228.717 332.751L203.651 350.9C202.607 351.656 202 352.5 201.987 354.189V382.88C201.987 385.107 203.738 386.992 205.918 386.992H256.071C258.251 386.992 260.013 385.107 260.013 382.88ZM203.081 350.078C201.776 351.023 201 352 201 354.189V382.88C201 385.663 203.193 388 205.918 388H256.071C258.796 388 261 385.663 261 382.88V354.189C261 352 260.224 351.023 258.919 350.078L233.854 331.928C232.144 330.691 229.856 330.691 228.146 331.928L203.081 350.078Z" fill="#333333"/>
<path fill-rule="evenodd" clip-rule="evenodd" d="M232.205 371.401L250 359.738V334H219.638L212.039 341.554L212 360.178L228.251 371.401C229.699 372.193 230.569 372.207 232.205 371.401ZM219.156 341.239H213.225L219.156 335.206V341.239Z" fill="white"/>
<path d="M240.28 351.023C240.28 352.141 240.104 353.164 239.752 354.094C239.401 355.016 238.904 355.734 238.263 356.25C237.63 356.766 236.895 357.023 236.059 357.023C235.441 357.023 234.905 356.859 234.452 356.531C233.999 356.203 233.694 355.758 233.537 355.195H233.397C233.014 355.805 232.541 356.262 231.978 356.566C231.415 356.871 230.782 357.023 230.078 357.023C228.804 357.023 227.799 356.613 227.064 355.793C226.337 354.973 225.974 353.863 225.974 352.465C225.974 350.855 226.458 349.551 227.428 348.551C228.397 347.543 229.699 347.039 231.333 347.039C231.927 347.039 232.584 347.094 233.303 347.203C234.03 347.305 234.675 347.449 235.238 347.637L234.98 353.086V353.367C234.98 354.617 235.386 355.242 236.199 355.242C236.817 355.242 237.305 354.844 237.665 354.047C238.033 353.25 238.216 352.234 238.216 351C238.216 349.664 237.943 348.492 237.395 347.484C236.848 346.469 236.07 345.688 235.062 345.141C234.053 344.594 232.896 344.32 231.591 344.32C229.926 344.32 228.475 344.664 227.24 345.352C226.013 346.039 225.075 347.023 224.426 348.305C223.777 349.578 223.453 351.059 223.453 352.746C223.453 355.012 224.058 356.754 225.27 357.973C226.482 359.191 228.221 359.801 230.488 359.801C232.216 359.801 234.018 359.449 235.894 358.746V360.668C234.253 361.34 232.466 361.676 230.535 361.676C227.643 361.676 225.387 360.898 223.769 359.344C222.151 357.781 221.342 355.605 221.342 352.816C221.342 350.777 221.78 348.965 222.655 347.379C223.531 345.785 224.742 344.566 226.29 343.723C227.846 342.879 229.605 342.457 231.567 342.457C233.264 342.457 234.773 342.809 236.094 343.512C237.423 344.215 238.451 345.219 239.178 346.523C239.913 347.82 240.28 349.32 240.28 351.023ZM228.225 352.512C228.225 354.332 228.941 355.242 230.371 355.242C231.88 355.242 232.705 354.098 232.845 351.809L232.986 349.008C232.494 348.875 231.966 348.809 231.403 348.809C230.402 348.809 229.621 349.141 229.058 349.805C228.503 350.469 228.225 351.371 228.225 352.512Z" fill="#FF6F3D"/>
<path d="M220 335V342H213L220 335Z" fill="#FF6F3D"/>
<path fill-rule="evenodd" clip-rule="evenodd" d="M213.012 342H220V335.019L249 335V360L250 359V334H219.511L212 341.445V360.32L213 361L213.012 342ZM219 341H214L219 336V341Z" fill="#333333"/>
<path fill-rule="evenodd" clip-rule="evenodd" d="M237.866 367.87L260.5 353L259.952 352.161L236.755 367.397L232.742 370.118C231.208 371.158 229.194 371.158 227.66 370.118L224.459 367.947L202 352.5L201.435 353.328L223.352 368.407L202.522 386L203.175 386.76L224.212 368.991L227.096 370.946C228.97 372.217 231.432 372.217 233.307 370.946L236.995 368.445L258.698 387L259.349 386.238L237.866 367.87Z" fill="#333333"/>
<path d="M363 277.257C363 275.458 364.455 274 366.25 274H398.75C400.545 274 402 275.458 402 277.257V324.743C402 326.542 400.545 328 398.75 328H366.25C364.455 328 363 326.542 363 324.743V277.257Z" fill="#EFEFEF"/>
<path fill-rule="evenodd" clip-rule="evenodd" d="M368 273H366.25C363.901 273 362 274.908 362 277.257V324.743C362 327.092 363.901 329 366.25 329H398.75C401.099 329 403 327.092 403 324.743V277.257C403 274.908 401.099 273 398.75 273H397V274H398.75C400.545 274 402 275.458 402 277.257V324.743C402 326.542 400.545 328 398.75 328H366.25C364.455 328 363 326.542 363 324.743V277.257C363 275.458 364.455 274 366.25 274H368.011L368 273Z" fill="#333333"/>
<path fill-rule="evenodd" clip-rule="evenodd" d="M385.502 271C385.502 269.506 384.049 268 382.445 268C380.84 268 379.502 269.506 379.502 271H371.453C370.65 271 370 271.563 370 272.31V274.647C370 275.394 370.65 276 371.453 276L393.547 276C394.35 276 395 275.394 395 274.647V272.3C395 271.553 394.304 271 393.502 271H385.502Z" fill="url(#paint0_linear_1717_5217)"/>
<path fill-rule="evenodd" clip-rule="evenodd" d="M393 271C393.726 271 394.002 271.5 393.999 272V275C393.999 275.5 393.726 276 393 276L372.316 275.976C371.589 275.976 371.001 275.365 371.001 274.611V272.251C371.001 271.497 371.276 271 372.002 271H380.002C380.002 269.492 380.991 268.024 382.444 268.024C383.897 268.024 385 269.492 385 271H393ZM385.098 268.108C385.502 268.604 385.84 269.356 386.002 270H392.684C393.977 270 395 270.935 395 272.241V274.611C395 275.916 394.292 277 393 277H372.316C371.023 277 370 275.916 370 274.611V272.251C370 270.955 370.7 270 372.002 270H379.002C379.164 269.356 379.437 268.604 379.841 268.108C380.454 267.355 381.348 267 382.444 267C383.541 267 384.484 267.355 385.098 268.108Z" fill="#333333"/>
<path d="M368.011 282.32C368.011 281.591 368.611 281 369.351 281H395.693C396.433 281 397.032 281.591 397.032 282.32V316.113C397.032 316.464 396.891 316.8 396.639 317.047L390.975 322.615C390.724 322.861 390.384 323 390.029 323H369.351C368.611 323 368.011 322.409 368.011 321.681V282.32Z" fill="white"/>
<path fill-rule="evenodd" clip-rule="evenodd" d="M369.341 280H395.683C396.961 280 398.023 281.024 398.023 282.319V316.113C398.023 316.734 397.772 317.326 397.331 317.76L391.667 323.328C391.227 323.76 390.635 324 390.02 324H369.341C368.064 324 367.002 322.976 367.002 321.681V282.319C367.002 281.024 368.064 280 369.341 280ZM369.341 281C368.602 281 368.002 281.591 368.002 282.319V321.681C368.002 322.409 368.602 323 369.341 323H390.02C390.375 323 390.715 322.861 390.966 322.614L396.63 317.047C396.881 316.799 397.023 316.463 397.023 316.113V282.319C397.023 281.591 396.423 281 395.683 281H369.341Z" fill="#333333"/>
<path fill-rule="evenodd" clip-rule="evenodd" d="M374.667 285.5C374.667 285.224 374.816 285 374.999 285H389.335C389.518 285 389.667 285.224 389.667 285.5C389.667 285.776 389.518 286 389.335 286H374.999C374.816 286 374.667 285.776 374.667 285.5Z" fill="#333333"/>
<path d="M372.033 290.632C372.033 290.283 372.312 290 372.656 290H375.033H377.41C377.754 290 378.033 290.283 378.033 290.632V293V295.369C378.033 295.717 377.754 296 377.41 296H372.656C372.312 296 372.033 295.717 372.033 295.369V290.632Z" fill="url(#paint1_linear_1717_5217)"/>
<path d="M372.033 290.632C372.033 290.283 372.312 290 372.656 290H375.033H377.41C377.754 290 378.033 290.283 378.033 290.632V293V295.369C378.033 295.717 377.754 296 377.41 296H372.656C372.312 296 372.033 295.717 372.033 295.369V290.632Z" fill="#BDECFF"/>
<path fill-rule="evenodd" clip-rule="evenodd" d="M378.033 294.205V295.369C378.033 295.717 377.754 296 377.41 296H372.656C372.312 296 372.033 295.717 372.033 295.369V290.632C372.033 290.283 372.312 290 372.656 290H374.632L375.632 289H372.656C371.747 289 371.033 289.743 371.033 290.632V295.369C371.033 296.257 371.747 297 372.656 297H377.41C378.318 297 379.033 296.257 379.033 295.369V293.205L378.033 294.205Z" fill="#333333"/>
<path fill-rule="evenodd" clip-rule="evenodd" d="M382.667 292.5C382.667 292.224 382.817 292 383.002 292H393.331C393.516 292 393.667 292.224 393.667 292.5C393.667 292.776 393.516 293 393.331 293H383.002C382.817 293 382.667 292.776 382.667 292.5Z" fill="#333333"/>
<path fill-rule="evenodd" clip-rule="evenodd" d="M382.667 294.5C382.667 294.224 382.813 294 382.993 294H388.34C388.52 294 388.667 294.224 388.667 294.5C388.667 294.776 388.52 295 388.34 295H382.993C382.813 295 382.667 294.776 382.667 294.5Z" fill="#333333"/>
<path fill-rule="evenodd" clip-rule="evenodd" d="M379.113 290.709L374.982 294.819L372.77 292.567L373.483 291.866L374.99 293.4L378.407 290L379.113 290.709Z" fill="#333333"/>
<path d="M372.033 300.632C372.033 300.283 372.312 300 372.656 300H375.033H377.41C377.754 300 378.033 300.283 378.033 300.632V303V305.369C378.033 305.717 377.754 306 377.41 306H372.656C372.312 306 372.033 305.717 372.033 305.369V300.632Z" fill="url(#paint2_linear_1717_5217)"/>
<path d="M372.033 300.632C372.033 300.283 372.312 300 372.656 300H375.033H377.41C377.754 300 378.033 300.283 378.033 300.632V303V305.369C378.033 305.717 377.754 306 377.41 306H372.656C372.312 306 372.033 305.717 372.033 305.369V300.632Z" fill="#BDECFF"/>
<path fill-rule="evenodd" clip-rule="evenodd" d="M378.033 304.205V305.369C378.033 305.717 377.754 306 377.41 306H372.656C372.312 306 372.033 305.717 372.033 305.369V300.632C372.033 300.283 372.312 300 372.656 300H374.632L375.632 299H372.656C371.747 299 371.033 299.743 371.033 300.632V305.369C371.033 306.257 371.747 307 372.656 307H377.41C378.318 307 379.033 306.257 379.033 305.369V303.205L378.033 304.205Z" fill="#333333"/>
<path fill-rule="evenodd" clip-rule="evenodd" d="M382.667 302.5C382.667 302.224 382.817 302 383.002 302H393.331C393.516 302 393.667 302.224 393.667 302.5C393.667 302.776 393.516 303 393.331 303H383.002C382.817 303 382.667 302.776 382.667 302.5Z" fill="#333333"/>
<path fill-rule="evenodd" clip-rule="evenodd" d="M382.667 304.5C382.667 304.224 382.813 304 382.993 304H388.34C388.52 304 388.667 304.224 388.667 304.5C388.667 304.776 388.52 305 388.34 305H382.993C382.813 305 382.667 304.776 382.667 304.5Z" fill="#333333"/>
<path fill-rule="evenodd" clip-rule="evenodd" d="M379.113 300.709L374.982 304.819L372.77 302.567L373.483 301.866L374.99 303.4L378.407 300L379.113 300.709Z" fill="#333333"/>
<path d="M372.033 310.632C372.033 310.283 372.312 310 372.656 310H375.033H377.41C377.754 310 378.033 310.283 378.033 310.632V313V315.369C378.033 315.718 377.754 316 377.41 316H372.656C372.312 316 372.033 315.718 372.033 315.369V310.632Z" fill="url(#paint3_linear_1717_5217)"/>
<path d="M372.033 310.632C372.033 310.283 372.312 310 372.656 310H375.033H377.41C377.754 310 378.033 310.283 378.033 310.632V313V315.369C378.033 315.718 377.754 316 377.41 316H372.656C372.312 316 372.033 315.718 372.033 315.369V310.632Z" fill="#BDECFF"/>
<path fill-rule="evenodd" clip-rule="evenodd" d="M378.033 314.206V315.369C378.033 315.718 377.754 316 377.41 316H372.656C372.312 316 372.033 315.718 372.033 315.369V310.632C372.033 310.283 372.312 310 372.656 310H374.632L375.632 309H372.656C371.747 309 371.033 309.743 371.033 310.632V315.369C371.033 316.257 371.747 317 372.656 317H377.41C378.318 317 379.033 316.257 379.033 315.369V313.206L378.033 314.206Z" fill="#333333"/>
<path fill-rule="evenodd" clip-rule="evenodd" d="M382.667 312.5C382.667 312.224 382.817 312 383.002 312H393.331C393.516 312 393.667 312.224 393.667 312.5C393.667 312.776 393.516 313 393.331 313H383.002C382.817 313 382.667 312.776 382.667 312.5Z" fill="#333333"/>
<path fill-rule="evenodd" clip-rule="evenodd" d="M382.667 314.5C382.667 314.224 382.813 314 382.993 314H388.34C388.52 314 388.667 314.224 388.667 314.5C388.667 314.776 388.52 315 388.34 315H382.993C382.813 315 382.667 314.776 382.667 314.5Z" fill="#333333"/>
<path fill-rule="evenodd" clip-rule="evenodd" d="M379.113 310.709L374.982 314.819L372.77 312.567L373.483 311.866L374.99 313.4L378.407 310L379.113 310.709Z" fill="#333333"/>
<path fill-rule="evenodd" clip-rule="evenodd" d="M391.24 316.979C391.055 316.979 391.029 316.874 391.029 317.053V323.031H390.019V317.053C390.019 316.516 390.684 315.991 391.24 315.991H397.592L397.032 316.979H391.24Z" fill="#333333"/>
<path fill-rule="evenodd" clip-rule="evenodd" d="M250.31 97.4453V83.8076H247.308C245.522 83.8076 244.44 85.1829 244.44 87.2945V97.4453H250.31Z" fill="#BDECFF"/>
<path d="M250.31 66.7019H279.898L286.215 73.8265V97.2358H250.31V66.7019Z" fill="white"/>
<path d="M278.994 66.0087L286.981 73.9631H278.994V66.0087Z" fill="url(#paint4_linear_1717_5217)"/>
<path fill-rule="evenodd" clip-rule="evenodd" d="M250.005 65.9978L280.011 65.9978L287.006 73L286.983 92.9418H285.991V73.5907L279.503 67.0073H251.035V97.0007H262.802V98.0352H250.005V65.9978Z" fill="#333333"/>
<path fill-rule="evenodd" clip-rule="evenodd" d="M278.994 66.0046L280.004 66.0046L287.002 73V74.0039L278.994 73.9734L278.994 66.0046ZM280.004 67.3397V72.9656L285.514 73.0039L280.004 67.3397Z" fill="#333333"/>
<path fill-rule="evenodd" clip-rule="evenodd" d="M244.984 83.9857C245.67 83.3162 246.608 82.9956 247.636 82.9956H251.004V97.8103H243.972L243.972 86.8998C243.972 85.6267 244.293 84.661 244.984 83.9857ZM244.984 87.2068V97.3208H249.991V83.9857H247.636C245.716 83.9857 244.984 85.4065 244.984 87.2068Z" fill="#333333"/>
<path fill-rule="evenodd" clip-rule="evenodd" d="M286.24 83.4723V92.4742H292.359V86.4046C292.359 84.2655 291.143 83.4723 289.369 83.4723H286.24Z" fill="#BDECFF"/>
<path fill-rule="evenodd" clip-rule="evenodd" d="M285.976 82.9956H289.548C290.508 82.9956 291.372 83.2087 292 83.7632C292.637 84.3269 292.976 85.1939 292.976 86.3724V93.0051H285.976V82.9956ZM287 84.0124V92.3696H292V86.3724C292 84.8758 291.193 84.0124 289.708 84.0124H287Z" fill="#333333"/>
<path fill-rule="evenodd" clip-rule="evenodd" d="M267.058 93.9205L263.637 97.5955H243.843C242.208 97.5955 240.628 98.7019 240.809 99.8504L244.261 119.11C244.442 120.258 245.623 121.23 247.258 121.23H291.036C292.671 121.23 293.942 120.258 294.033 119.11L296.628 94.7099C296.776 93.9885 296.035 92.9786 294.7 92.9786H269.386C268.496 92.9786 267.694 93.302 267.058 93.9205Z" fill="url(#paint5_linear_1717_5217)"/>
<path fill-rule="evenodd" clip-rule="evenodd" d="M263.926 97.9891L243.961 97.9109C243.292 97.9109 242.914 97.8819 242.451 98.239C241.978 98.6051 241.99 99.4487 242.028 99.7234L245.219 119.023C245.345 119.862 246.103 120.973 247.465 120.973H291.038C292.444 120.973 293.319 120.19 293.376 119.427L295.651 94.4266C295.651 94.1268 295.775 93.0359 294.03 93.0359L270.11 92.9422C269.409 92.9422 268.907 92.9665 268.395 93.4891L263.926 97.9891ZM267.265 93.0291L263.34 96.9734H243.664C242.03 96.9734 240.835 98.1018 241.016 99.3202L244.468 119.753C244.649 120.971 245.83 122.002 247.465 122.002H291.243C292.878 122.002 294.267 120.942 294.358 119.723L296.789 94.0047C296.876 93.0359 296.113 92.0298 294.778 92.0298H269.517C268.628 92.0298 267.901 92.373 267.265 93.0291Z" fill="#333333"/>
<path d="M268.595 70.0179H254.729V83.9521H268.595V70.0179Z" fill="white"/>
<path fill-rule="evenodd" clip-rule="evenodd" d="M255.39 83.2888L259.682 78.9758L261.993 81.2982L265.488 76.6534L267.936 80.495V83.2888" fill="#E0E0E0"/>
<path fill-rule="evenodd" clip-rule="evenodd" d="M255.029 70.6815C255.029 70.315 255.326 70.0179 255.691 70.0179H268.143C268.509 70.0179 268.983 70.3642 268.983 70.7306V83.135C268.983 83.5014 268.555 83.9523 268.19 83.9523H255.711C255.346 83.9523 255.029 83.6552 255.029 83.2887V70.6815ZM267.977 70.989V82.9688H256.006V70.989H267.977Z" fill="#333333"/>
<path fill-rule="evenodd" clip-rule="evenodd" d="M255.675 83.2886H267.949V80.4947L265.575 76.6532L262.261 81.7087L259.774 79.2341L255.675 83.2886ZM262.156 80.6805L260.224 78.7575C259.974 78.5088 259.577 78.5082 259.326 78.7561L255.227 82.8106C254.97 83.0648 254.962 83.4848 255.21 83.7488C255.457 84.0128 255.866 84.0207 256.123 83.7665L256.271 83.6203H267.389C267.501 83.8187 267.71 83.9521 267.949 83.9521C268.306 83.9521 268.595 83.655 268.595 83.2886V80.4947C268.595 80.3688 268.56 80.2454 268.494 80.1391L266.12 76.2976C266.004 76.1085 265.802 75.9927 265.584 75.9897C265.366 75.9867 265.161 76.0968 265.039 76.2826L262.156 80.6805Z" fill="#333333"/>
<path fill-rule="evenodd" clip-rule="evenodd" d="M254.962 86.5C254.962 86.2239 255.108 86 255.287 86H282.563C282.743 86 282.888 86.2239 282.888 86.5C282.888 86.7761 282.743 87 282.563 87H255.287C255.108 87 254.962 86.7761 254.962 86.5Z" fill="#333333"/>
<path fill-rule="evenodd" clip-rule="evenodd" d="M270.92 73.5C270.92 73.2239 271.079 73 271.276 73H275.55C275.747 73 275.907 73.2239 275.907 73.5C275.907 73.7761 275.747 74 275.55 74H271.276C271.079 74 270.92 73.7761 270.92 73.5Z" fill="#333333"/>
<path fill-rule="evenodd" clip-rule="evenodd" d="M270.92 76.4851C270.92 76.209 271.064 75.9851 271.243 75.9851H281.568C281.746 75.9851 281.891 76.209 281.891 76.4851C281.891 76.7612 281.746 76.9851 281.568 76.9851H276.405H271.243C271.064 76.9851 270.92 76.7612 270.92 76.4851Z" fill="#333333"/>
<path fill-rule="evenodd" clip-rule="evenodd" d="M270.92 79.5C270.92 79.2239 271.064 79 271.243 79H281.568C281.746 79 281.891 79.2239 281.891 79.5C281.891 79.7761 281.746 80 281.568 80H271.243C271.064 80 270.92 79.7761 270.92 79.5Z" fill="#333333"/>
<path fill-rule="evenodd" clip-rule="evenodd" d="M254.962 89.5C254.962 89.2239 255.117 89 255.308 89H263.593C263.784 89 263.939 89.2239 263.939 89.5C263.939 89.7761 263.784 90 263.593 90H255.308C255.117 90 254.962 89.7761 254.962 89.5Z" fill="#333333"/>
<path d="M259.951 73.5352C259.951 74.3636 259.281 75.0352 258.455 75.0352C257.629 75.0352 256.959 74.3636 256.959 73.5352C256.959 72.7067 257.629 72.0352 258.455 72.0352C259.281 72.0352 259.951 72.7067 259.951 73.5352Z" fill="url(#paint6_linear_1717_5217)"/>
<path d="M119 273C119 270.791 120.791 269 123 269H179C181.209 269 183 270.791 183 273V323C183 325.209 181.209 327 179 327H123C120.791 327 119 325.209 119 323V273Z" fill="white"/>
<path fill-rule="evenodd" clip-rule="evenodd" d="M123 268H179C181.761 268 184 270.239 184 273V323C184 325.761 181.761 328 179 328H123C120.239 328 118 325.761 118 323V273C118 270.239 120.239 268 123 268ZM123 269C120.791 269 119 270.791 119 273V323C119 325.209 120.791 327 123 327H179C181.209 327 183 325.209 183 323V273C183 270.791 181.209 269 179 269H123Z" fill="#333333"/>
<path d="M148 320.5V310.5C148 309.672 147.328 309 146.5 309C145.672 309 145 309.672 145 310.5V320.5C145 321.328 145.672 322 146.5 322C147.328 322 148 321.328 148 320.5Z" fill="url(#paint7_linear_1717_5217)"/>
<path d="M155.01 320.5V308.5C155.01 307.672 154.338 307 153.51 307C152.681 307 152.01 307.672 152.01 308.5V320.5C152.01 321.328 152.681 322 153.51 322C154.338 322 155.01 321.328 155.01 320.5Z" fill="url(#paint8_linear_1717_5217)"/>
<path d="M162 320.5V304.5C162 303.672 161.328 303 160.5 303C159.672 303 159 303.672 159 304.5V320.5C159 321.328 159.672 322 160.5 322C161.328 322 162 321.328 162 320.5Z" fill="url(#paint9_linear_1717_5217)"/>
<path d="M169 320.5V302.5C169 301.672 168.328 301 167.5 301C166.672 301 166 301.672 166 302.5V320.5C166 321.328 166.672 322 167.5 322C168.328 322 169 321.328 169 320.5Z" fill="url(#paint10_linear_1717_5217)"/>
<path d="M175.99 320.5V297.5C175.99 296.671 175.318 296 174.49 296C173.662 296 172.99 296.671 172.99 297.5V320.5C172.99 321.329 173.662 322 174.49 322C175.318 322 175.99 321.329 175.99 320.5Z" fill="url(#paint11_linear_1717_5217)"/>
<path d="M119 274C119 271.239 121.239 269 124 269H136V327H124C121.239 327 119 324.761 119 322V274Z" fill="#EFEFEF"/>
<path d="M154.879 274.472C156.317 274.472 159 276.333 159.333 277.333L153.333 281.333L154.879 274.472Z" fill="#BDECFF"/>
<path fill-rule="evenodd" clip-rule="evenodd" d="M158.604 277.052C158.207 276.614 157.648 276.163 156.993 275.768C156.35 275.38 155.711 275.106 155.177 274.957L154.128 280.226L158.604 277.052ZM159.99 277.295C159.127 275.562 156.108 273.828 154.382 273.828L152.657 282.495L159.99 277.295Z" fill="#333333"/>
<path fill-rule="evenodd" clip-rule="evenodd" d="M159.915 280.492C159.964 280.819 159.99 281.154 159.99 281.495C159.99 285.177 157.005 288.162 153.323 288.162C149.642 288.162 146.657 285.177 146.657 281.495C146.657 278.387 148.783 275.776 151.66 275.038L151.707 273.999C148.249 274.741 145.657 277.815 145.657 281.495C145.657 285.729 149.089 289.162 153.323 289.162C157.558 289.162 160.99 285.729 160.99 281.495C160.99 280.991 160.941 280.498 160.848 280.021L159.915 280.492Z" fill="#333333"/>
<path fill-rule="evenodd" clip-rule="evenodd" d="M174.998 286.034C166.147 296.517 154.228 302.314 143.122 302.937L142.971 301.963C155.205 300.294 165.303 295.329 174.034 285.002L172.403 285.002C172.22 285.021 171.991 284.685 171.973 284.502C171.954 284.318 172.22 283.995 172.403 283.977L175.976 283.977L175.976 284.081L175.976 286.974L175.976 287.974L174.998 287.974L174.998 286.034Z" fill="#333333"/>
<path fill-rule="evenodd" clip-rule="evenodd" d="M131 280H124V279H131V280Z" fill="#333333"/>
<path fill-rule="evenodd" clip-rule="evenodd" d="M131 304H124V303H131V304Z" fill="#333333"/>
<path fill-rule="evenodd" clip-rule="evenodd" d="M131 292H124V291H131V292Z" fill="#333333"/>
<path fill-rule="evenodd" clip-rule="evenodd" d="M131 316H124V315H131V316Z" fill="#333333"/>
<path fill-rule="evenodd" clip-rule="evenodd" d="M131 286H124V285H131V286Z" fill="#333333"/>
<path fill-rule="evenodd" clip-rule="evenodd" d="M131 310H124V309H131V310Z" fill="#333333"/>
<path fill-rule="evenodd" clip-rule="evenodd" d="M131 298H124V297H131V298Z" fill="#333333"/>
<path d="M322.002 191.965C322.002 194.746 324.248 197 327.018 197H377.986C380.756 197 383.002 194.746 383.002 191.965V144.035C383.002 141.254 380.756 139 377.986 139H327.018C324.248 139 322.002 141.254 322.002 144.035V191.965Z" fill="#EFEFEF"/>
<path fill-rule="evenodd" clip-rule="evenodd" d="M377.903 140.007H326.101C323.848 140.007 322.022 141.81 322.022 144.035V191.965C322.022 194.19 323.848 195.993 326.101 195.993H377.903C380.156 195.993 381.982 194.19 381.982 191.965V144.035C381.982 141.81 380.156 140.007 377.903 140.007ZM326.101 139C323.285 139 321.002 141.254 321.002 144.035V191.965C321.002 194.746 323.285 197 326.101 197H377.903C380.719 197 383.002 194.746 383.002 191.965V144.035C383.002 141.254 380.719 139 377.903 139H326.101Z" fill="#333333"/>
<path d="M327.002 177.105C327.002 175.943 327.923 175 329.058 175H375.945C377.081 175 378.002 175.943 378.002 177.105V188.895C378.002 190.057 377.081 191 375.945 191H329.058C327.923 191 327.002 190.057 327.002 188.895V177.105Z" fill="white"/>
<path fill-rule="evenodd" clip-rule="evenodd" d="M375.945 176.053H329.058C328.491 176.053 328.03 176.524 328.03 177.105V188.895C328.03 189.476 328.491 189.947 329.058 189.947H375.945C376.513 189.947 376.974 189.476 376.974 188.895V177.105C376.974 176.524 376.513 176.053 375.945 176.053ZM329.058 175C327.923 175 327.002 175.943 327.002 177.105V188.895C327.002 190.057 327.923 191 329.058 191H375.945C377.081 191 378.002 190.057 378.002 188.895V177.105C378.002 175.943 377.081 175 375.945 175H329.058Z" fill="#333333"/>
<path d="M343.107 175.025H346.107V176.025H343.607L343.107 175.025Z" fill="#EFEFEF"/>
<path d="M336.707 175.025H334.021V176.025H336.259L336.707 175.025Z" fill="#EFEFEF"/>
<path d="M331.002 187L330.546 186.796C330.476 186.951 330.49 187.13 330.582 187.272C330.675 187.414 330.832 187.5 331.002 187.5H348.002C348.171 187.5 348.329 187.414 348.422 187.272C348.514 187.13 348.528 186.951 348.458 186.796L348.002 187C348.458 186.796 348.458 186.795 348.458 186.795L348.458 186.794L348.457 186.793L348.455 186.788L348.448 186.774C348.443 186.763 348.436 186.748 348.427 186.73C348.409 186.694 348.382 186.644 348.347 186.581C348.276 186.457 348.17 186.285 348.022 186.081C347.725 185.673 347.26 185.138 346.575 184.605C345.199 183.535 342.965 182.5 339.502 182.5C336.039 182.5 333.805 183.535 332.429 184.605C331.744 185.138 331.278 185.673 330.982 186.081C330.834 186.285 330.728 186.457 330.657 186.581C330.622 186.644 330.595 186.694 330.577 186.73C330.568 186.748 330.561 186.763 330.556 186.774L330.549 186.788L330.547 186.793L330.546 186.794L330.546 186.795C330.546 186.795 330.546 186.796 331.002 187ZM331.458 187.206L331.458 187.205L331.458 187.205L331.458 187.206Z" fill="url(#paint12_linear_1717_5217)"/>
<path d="M331.002 187L330.546 186.796C330.476 186.951 330.49 187.13 330.582 187.272C330.675 187.414 330.832 187.5 331.002 187.5H348.002C348.171 187.5 348.329 187.414 348.422 187.272C348.514 187.13 348.528 186.951 348.458 186.796L348.002 187C348.458 186.796 348.458 186.795 348.458 186.795L348.458 186.794L348.457 186.793L348.455 186.788L348.448 186.774C348.443 186.763 348.436 186.748 348.427 186.73C348.409 186.694 348.382 186.644 348.347 186.581C348.276 186.457 348.17 186.285 348.022 186.081C347.725 185.673 347.26 185.138 346.575 184.605C345.199 183.535 342.965 182.5 339.502 182.5C336.039 182.5 333.805 183.535 332.429 184.605C331.744 185.138 331.278 185.673 330.982 186.081C330.834 186.285 330.728 186.457 330.657 186.581C330.622 186.644 330.595 186.694 330.577 186.73C330.568 186.748 330.561 186.763 330.556 186.774L330.549 186.788L330.547 186.793L330.546 186.794L330.546 186.795C330.546 186.795 330.546 186.796 331.002 187ZM331.458 187.206L331.458 187.205L331.458 187.205L331.458 187.206Z" fill="#BDECFF"/>
<path d="M331.002 187L330.546 186.796C330.476 186.951 330.49 187.13 330.582 187.272C330.675 187.414 330.832 187.5 331.002 187.5H348.002C348.171 187.5 348.329 187.414 348.422 187.272C348.514 187.13 348.528 186.951 348.458 186.796L348.002 187C348.458 186.796 348.458 186.795 348.458 186.795L348.458 186.794L348.457 186.793L348.455 186.788L348.448 186.774C348.443 186.763 348.436 186.748 348.427 186.73C348.409 186.694 348.382 186.644 348.347 186.581C348.276 186.457 348.17 186.285 348.022 186.081C347.725 185.673 347.26 185.138 346.575 184.605C345.199 183.535 342.965 182.5 339.502 182.5C336.039 182.5 333.805 183.535 332.429 184.605C331.744 185.138 331.278 185.673 330.982 186.081C330.834 186.285 330.728 186.457 330.657 186.581C330.622 186.644 330.595 186.694 330.577 186.73C330.568 186.748 330.561 186.763 330.556 186.774L330.549 186.788L330.547 186.793L330.546 186.794L330.546 186.795C330.546 186.795 330.546 186.796 331.002 187ZM331.458 187.206L331.458 187.205L331.458 187.205L331.458 187.206Z" stroke="#333333" stroke-linecap="round" stroke-linejoin="round"/>
<path d="M338.002 181H341.002V184.333L339.502 186L338.002 184.333V181Z" fill="white"/>
<circle cx="339.502" cy="177.5" r="4.5" fill="white"/>
<circle cx="339.502" cy="177.5" r="4" stroke="#333333"/>
<path d="M336.085 177.693C337.569 177.444 338.73 176.667 339.375 175.516C339.613 175.799 339.884 176.053 340.197 176.271C340.777 176.675 341.477 176.939 342.335 177.055C342.497 177.078 342.66 177.019 342.771 176.898C342.881 176.777 342.926 176.609 342.89 176.449C342.432 174.434 340.828 173.5 339.266 173.5C337.169 173.5 335.502 174.983 335.502 177.2C335.502 177.347 335.567 177.487 335.679 177.582C335.791 177.677 335.94 177.717 336.085 177.693Z" fill="#AAAAAA" stroke="#333333" stroke-linecap="round" stroke-linejoin="round"/>
<path fill-rule="evenodd" clip-rule="evenodd" d="M341.502 181C341.778 181 342.002 181.224 342.002 181.5V183.509C342.002 183.642 341.949 183.769 341.855 183.863L339.855 185.854C339.66 186.049 339.344 186.049 339.149 185.854L337.149 183.863C337.055 183.769 337.002 183.642 337.002 183.509V181.5C337.002 181.224 337.226 181 337.502 181C337.778 181 338.002 181.224 338.002 181.5V183.301L339.502 184.794L341.002 183.301V181.5C341.002 181.224 341.226 181 341.502 181Z" fill="#333333"/>
<path fill-rule="evenodd" clip-rule="evenodd" d="M352.002 180.5C352.002 180.224 352.226 180 352.502 180H370.502C370.778 180 371.002 180.224 371.002 180.5C371.002 180.776 370.778 181 370.502 181H352.502C352.226 181 352.002 180.776 352.002 180.5Z" fill="#333333"/>
<path fill-rule="evenodd" clip-rule="evenodd" d="M352.002 183.5C352.002 183.224 352.226 183 352.502 183H366.502C366.778 183 367.002 183.224 367.002 183.5C367.002 183.776 366.778 184 366.502 184H352.502C352.226 184 352.002 183.776 352.002 183.5Z" fill="#333333"/>
<path d="M327.002 157.105C327.002 155.943 327.923 155 329.058 155H375.945C377.081 155 378.002 155.943 378.002 157.105V168.895C378.002 170.057 377.081 171 375.945 171H329.058C327.923 171 327.002 170.057 327.002 168.895V157.105Z" fill="white"/>
<path fill-rule="evenodd" clip-rule="evenodd" d="M375.945 156.053H329.058C328.491 156.053 328.03 156.524 328.03 157.105V168.895C328.03 169.476 328.491 169.947 329.058 169.947H375.945C376.513 169.947 376.974 169.476 376.974 168.895V157.105C376.974 156.524 376.513 156.053 375.945 156.053ZM329.058 155C327.923 155 327.002 155.943 327.002 157.105V168.895C327.002 170.057 327.923 171 329.058 171H375.945C377.081 171 378.002 170.057 378.002 168.895V157.105C378.002 155.943 377.081 155 375.945 155H329.058Z" fill="#333333"/>
<path d="M343.107 155.025H346.107V156.025H343.607L343.107 155.025Z" fill="#EFEFEF"/>
<path d="M336.707 155.025H334.021V156.025H336.259L336.707 155.025Z" fill="#EFEFEF"/>
<path d="M331.002 167L330.546 166.796C330.476 166.951 330.49 167.13 330.582 167.272C330.675 167.414 330.832 167.5 331.002 167.5H348.002C348.171 167.5 348.329 167.414 348.422 167.272C348.514 167.13 348.528 166.951 348.458 166.796L348.002 167C348.458 166.796 348.458 166.795 348.458 166.795L348.458 166.794L348.457 166.793L348.455 166.788L348.448 166.774C348.443 166.763 348.436 166.748 348.427 166.73C348.409 166.694 348.382 166.644 348.347 166.581C348.276 166.457 348.17 166.285 348.022 166.081C347.725 165.673 347.26 165.138 346.575 164.605C345.199 163.535 342.965 162.5 339.502 162.5C336.039 162.5 333.805 163.535 332.429 164.605C331.744 165.138 331.278 165.673 330.982 166.081C330.834 166.285 330.728 166.457 330.657 166.581C330.622 166.644 330.595 166.694 330.577 166.73C330.568 166.748 330.561 166.763 330.556 166.774L330.549 166.788L330.547 166.793L330.546 166.794L330.546 166.795C330.546 166.795 330.546 166.796 331.002 167ZM331.458 167.206L331.458 167.205L331.458 167.205L331.458 167.206Z" fill="url(#paint13_linear_1717_5217)"/>
<path d="M331.002 167L330.546 166.796C330.476 166.951 330.49 167.13 330.582 167.272C330.675 167.414 330.832 167.5 331.002 167.5H348.002C348.171 167.5 348.329 167.414 348.422 167.272C348.514 167.13 348.528 166.951 348.458 166.796L348.002 167C348.458 166.796 348.458 166.795 348.458 166.795L348.458 166.794L348.457 166.793L348.455 166.788L348.448 166.774C348.443 166.763 348.436 166.748 348.427 166.73C348.409 166.694 348.382 166.644 348.347 166.581C348.276 166.457 348.17 166.285 348.022 166.081C347.725 165.673 347.26 165.138 346.575 164.605C345.199 163.535 342.965 162.5 339.502 162.5C336.039 162.5 333.805 163.535 332.429 164.605C331.744 165.138 331.278 165.673 330.982 166.081C330.834 166.285 330.728 166.457 330.657 166.581C330.622 166.644 330.595 166.694 330.577 166.73C330.568 166.748 330.561 166.763 330.556 166.774L330.549 166.788L330.547 166.793L330.546 166.794L330.546 166.795C330.546 166.795 330.546 166.796 331.002 167ZM331.458 167.206L331.458 167.205L331.458 167.205L331.458 167.206Z" fill="#BDECFF"/>
<path d="M331.002 167L330.546 166.796C330.476 166.951 330.49 167.13 330.582 167.272C330.675 167.414 330.832 167.5 331.002 167.5H348.002C348.171 167.5 348.329 167.414 348.422 167.272C348.514 167.13 348.528 166.951 348.458 166.796L348.002 167C348.458 166.796 348.458 166.795 348.458 166.795L348.458 166.794L348.457 166.793L348.455 166.788L348.448 166.774C348.443 166.763 348.436 166.748 348.427 166.73C348.409 166.694 348.382 166.644 348.347 166.581C348.276 166.457 348.17 166.285 348.022 166.081C347.725 165.673 347.26 165.138 346.575 164.605C345.199 163.535 342.965 162.5 339.502 162.5C336.039 162.5 333.805 163.535 332.429 164.605C331.744 165.138 331.278 165.673 330.982 166.081C330.834 166.285 330.728 166.457 330.657 166.581C330.622 166.644 330.595 166.694 330.577 166.73C330.568 166.748 330.561 166.763 330.556 166.774L330.549 166.788L330.547 166.793L330.546 166.794L330.546 166.795C330.546 166.795 330.546 166.796 331.002 167ZM331.458 167.206L331.458 167.205L331.458 167.205L331.458 167.206Z" stroke="#333333" stroke-linecap="round" stroke-linejoin="round"/>
<path d="M338.002 161H341.002V164.333L339.502 166L338.002 164.333V161Z" fill="white"/>
<circle cx="339.502" cy="157.5" r="4.5" fill="white"/>
<circle cx="339.502" cy="157.5" r="4" stroke="#333333"/>
<path d="M336.085 157.693C337.569 157.444 338.73 156.667 339.375 155.516C339.613 155.799 339.884 156.053 340.197 156.271C340.777 156.675 341.477 156.939 342.335 157.055C342.497 157.078 342.66 157.019 342.771 156.898C342.881 156.777 342.926 156.609 342.89 156.449C342.432 154.434 340.828 153.5 339.266 153.5C337.169 153.5 335.502 154.983 335.502 157.2C335.502 157.347 335.567 157.487 335.679 157.582C335.791 157.677 335.94 157.717 336.085 157.693Z" fill="#AAAAAA" stroke="#333333" stroke-linecap="round" stroke-linejoin="round"/>
<path fill-rule="evenodd" clip-rule="evenodd" d="M341.502 161C341.778 161 342.002 161.224 342.002 161.5V163.509C342.002 163.642 341.949 163.769 341.855 163.863L339.855 165.854C339.66 166.049 339.344 166.049 339.149 165.854L337.149 163.863C337.055 163.769 337.002 163.642 337.002 163.509V161.5C337.002 161.224 337.226 161 337.502 161C337.778 161 338.002 161.224 338.002 161.5V163.301L339.502 164.794L341.002 163.301V161.5C341.002 161.224 341.226 161 341.502 161Z" fill="#333333"/>
<path fill-rule="evenodd" clip-rule="evenodd" d="M352.002 160.5C352.002 160.224 352.226 160 352.502 160H370.502C370.778 160 371.002 160.224 371.002 160.5C371.002 160.776 370.778 161 370.502 161H352.502C352.226 161 352.002 160.776 352.002 160.5Z" fill="#333333"/>
<path fill-rule="evenodd" clip-rule="evenodd" d="M352.002 163.5C352.002 163.224 352.226 163 352.502 163H366.502C366.778 163 367.002 163.224 367.002 163.5C367.002 163.776 366.778 164 366.502 164H352.502C352.226 164 352.002 163.776 352.002 163.5Z" fill="#333333"/>
<path fill-rule="evenodd" clip-rule="evenodd" d="M329.196 145.025H375.847C377.048 145.025 378.021 146.144 378.021 147.525C378.021 148.905 377.048 150.025 375.847 150.025H329.196C327.995 150.025 327.021 148.905 327.021 147.525C327.021 146.144 327.995 145.025 329.196 145.025ZM329.196 146.026C328.549 146.026 328.025 146.781 328.025 147.525C328.025 148.268 328.549 149.019 329.196 149.019H375.847C376.494 149.019 377.018 148.268 377.018 147.525C377.018 146.781 376.494 146.026 375.847 146.026H329.196Z" fill="#333333"/>
<path d="M365.021 145.025H375.988C377.111 145.025 378.021 146.144 378.021 147.525C378.021 148.905 377.111 150.025 375.988 150.025H365.021V145.025Z" fill="url(#paint14_linear_1717_5217)"/>
<rect x="131.02" y="138" width="43" height="60" rx="5" fill="white"/>
<path fill-rule="evenodd" clip-rule="evenodd" d="M131.02 141.644C131.02 139.631 132.433 138 134.493 138H169.926C171.987 138 173.997 140.044 173.997 142.007V169.95H172.979V142.007C172.979 140.667 171.249 139.028 170.049 139.028H134.678C132.992 139.028 132 140.383 132 142.03V164.038H131.02V141.644ZM132.023 188.009V194.356C132.023 196.003 133.754 197.039 135.44 197.039H169.926C171.612 197.039 172.979 195.752 172.979 194.106V188.055H174.02V194.356C174.02 196.369 171.987 198 169.926 198H134.752C132.691 198 131.02 196.369 131.02 194.356V188.009H132.023Z" fill="#333333"/>
<path d="M165.63 144.495H140.306C139.311 144.495 138.473 145.276 138.473 146.279V159.77C138.473 160.773 139.311 161.555 140.306 161.555H165.63C166.625 161.555 167.463 160.773 167.463 159.77V146.279C167.463 145.276 166.625 144.495 165.63 144.495Z" fill="#BDECFF" stroke="#333333" stroke-miterlimit="22.9256" stroke-linecap="round" stroke-linejoin="round"/>
<path fill-rule="evenodd" clip-rule="evenodd" d="M139.52 161.054L147.887 154.166L152.988 158.823L161.558 148.529L166.963 155.352V161.054" fill="white"/>
<path fill-rule="evenodd" clip-rule="evenodd" d="M160.995 148.023C161.101 148.024 161.2 148.072 161.261 148.152L166.887 155.045C166.993 155.183 167.036 155.713 166.887 155.811C166.737 155.91 166.467 156.128 166.361 155.99L160.995 149.163L153.247 158.884C153.191 158.952 153.107 158.997 153.015 159.005C152.923 159.014 152.831 158.987 152.762 158.93L147.53 154.016L139.881 160.907C139.745 161.02 139.312 160.925 139.19 160.799C139.067 160.673 139.054 160.162 139.19 160.049L147.342 153.104C147.467 153 147.657 152.999 147.784 153.102L152.99 157.985L160.726 148.146C160.789 148.067 160.889 148.021 160.995 148.023Z" fill="#333333"/>
<path fill-rule="evenodd" clip-rule="evenodd" d="M144.011 150.022C144.401 150.022 145.02 149.638 145.02 149.015C145.02 148.527 144.65 147.992 144.011 147.992C143.649 147.992 142.976 148.244 142.976 149.015C142.976 149.786 143.621 150.022 144.011 150.022ZM144.011 151.059C145.166 151.059 146.103 150.144 146.103 149.015C146.103 147.886 145.166 146.97 144.011 146.97C142.856 146.97 141.919 147.886 141.919 149.015C141.919 150.144 142.856 151.059 144.011 151.059Z" fill="#333333"/>
<path fill-rule="evenodd" clip-rule="evenodd" d="M151 167.5C151 167.224 151.144 167 151.321 167H164.679C164.856 167 165 167.224 165 167.5C165 167.776 164.856 168 164.679 168H151.321C151.144 168 151 167.776 151 167.5Z" fill="#333333"/>
<path fill-rule="evenodd" clip-rule="evenodd" d="M151 175.499C151 175.223 151.144 175 151.321 175H164.68C164.857 175 165 175.223 165 175.499C165 175.776 164.857 175.999 164.68 175.999H151.321C151.144 175.999 151 175.776 151 175.499Z" fill="#333333"/>
<path fill-rule="evenodd" clip-rule="evenodd" d="M151 183.559C151 183.282 151.139 183.059 151.31 183.059H160.69C160.861 183.059 161 183.282 161 183.559C161 183.835 160.861 184.059 160.69 184.059H151.31C151.139 184.059 151 183.835 151 183.559Z" fill="#333333"/>
<path fill-rule="evenodd" clip-rule="evenodd" d="M151 171.5C151 171.223 151.144 171 151.321 171H164.68C164.857 171 165 171.223 165 171.5C165 171.776 164.857 172 164.68 172H151.321C151.144 172 151 171.776 151 171.5Z" fill="#333333"/>
<path fill-rule="evenodd" clip-rule="evenodd" d="M151.304 179C151.131 179 150.991 179.237 150.991 179.529C150.991 179.821 151.131 180.059 151.304 180.059H156.045C156.218 180.059 156.358 179.821 156.358 179.529C156.358 179.237 156.218 179 156.045 179H151.304ZM158.721 179C158.544 179 158.4 179.237 158.4 179.529C158.4 179.821 158.544 180.059 158.721 180.059H164.796C164.973 180.059 165.116 179.821 165.116 179.529C165.116 179.237 164.973 179 164.796 179H158.721Z" fill="#333333"/>
<path fill-rule="evenodd" clip-rule="evenodd" d="M138.167 187.5C138.167 187.224 138.317 187 138.501 187H143.549C143.733 187 143.883 187.224 143.883 187.5C143.883 187.776 143.733 188 143.549 188H138.501C138.317 188 138.167 187.776 138.167 187.5Z" fill="#333333"/>
<path fill-rule="evenodd" clip-rule="evenodd" d="M146 187.5C146 187.224 146.147 187 146.328 187H156.672C156.853 187 157 187.224 157 187.5C157 187.776 156.853 188 156.672 188H146.328C146.147 188 146 187.776 146 187.5Z" fill="#333333"/>
<path d="M181.063 176.771L176.323 172L160.656 187.333L165.497 192.328L181.063 176.771Z" fill="url(#paint15_linear_1717_5217)"/>
<path fill-rule="evenodd" clip-rule="evenodd" d="M165.724 191.611L184.689 172.814C184.949 172.554 184.964 172.246 184.689 171.972L181.065 168.363C180.791 168.088 180.618 168.103 180.358 168.363L161.291 187.332C161.209 187.414 161.117 187.804 161.089 187.918L159.997 192.39C159.871 192.898 160.326 193.091 160.834 192.964L165.516 191.776C165.63 191.748 165.642 191.693 165.724 191.611ZM185.424 173.286C185.944 172.766 185.92 171.9 185.371 171.351L181.7 167.684C181.151 167.135 180.284 167.112 179.764 167.632L160.659 186.737C160.496 186.9 160.184 187.105 160.128 187.332L159.105 192.22C158.852 193.235 159.818 194.2 160.834 193.947L165.724 192.849C165.951 192.793 166.156 192.554 166.319 192.39L185.424 173.286Z" fill="#333333"/>
<path d="M178.998 174.998L163.442 190.554L162.734 189.847L178.291 174.291L178.998 174.998Z" fill="white"/>
<path fill-rule="evenodd" clip-rule="evenodd" d="M161.131 187.512L165.669 191.975L164.985 192.67L160.447 188.222L161.131 187.512Z" fill="#333333"/>
<path fill-rule="evenodd" clip-rule="evenodd" d="M176.223 171.385L181.49 176.635L180.793 177.348L175.531 172.09L176.223 171.385Z" fill="#333333"/>
<path fill-rule="evenodd" clip-rule="evenodd" d="M160.317 190.685L162.313 192.828L161.674 193.454L159.678 191.31L160.317 190.685Z" fill="#333333"/>
<path fill-rule="evenodd" clip-rule="evenodd" d="M178.627 169.941L183.233 174.548L182.527 175.253L177.921 170.646L178.627 169.941Z" fill="#333333"/>
<path d="M122.004 165.643C122.004 165.284 122.314 164.993 122.698 164.993H146.281C146.664 164.993 146.975 165.284 146.975 165.643V180.341C146.975 180.7 146.664 180.991 146.281 180.991H135.662C135.447 180.991 135.245 181.085 135.113 181.244L131.984 185.043C131.687 185.403 131.096 185.373 130.843 184.984L128.593 181.912C128.247 181.235 127.448 180.991 127.206 180.991H122.698C122.314 180.991 122.004 180.7 122.004 180.341V165.643Z" fill="url(#paint16_linear_1717_5217)"/>
<path fill-rule="evenodd" clip-rule="evenodd" d="M145.051 166.003L124 166C123.415 166 122.989 166.546 122.989 166.916L123 180C123 180.371 123.591 180.991 123.956 180.991H127.993C128.676 180.991 129.31 181.612 129.672 182.2L130.946 184.474C131.188 184.867 131.74 184.898 132.023 184.535L133.964 181.923C134.339 181.441 134.666 181 135.271 181L145.265 181.009C145.63 181.009 146.053 180.413 146.053 180.042L146 167C146 166.629 146 166.003 145.051 166.003ZM123 165C122.602 165 122.004 165.432 122.004 166V181C122.004 181.741 122.728 182 123 182H127C127.455 182 128.4 182.164 128.642 182.556L130.386 185.392C130.87 186.179 131.974 186.241 132.541 185.514L134.94 182.434C135.191 182.113 135.597 182 136 182L145.265 182.012C145.995 182.012 147.003 181.324 147.003 180.583V166.003C147.003 166.003 147.003 164.993 146 164.993L123 165Z" fill="#333333"/>
<path fill-rule="evenodd" clip-rule="evenodd" d="M127.072 171.488C127.072 171.212 127.21 170.988 127.38 170.988H141.764C141.934 170.988 142.072 171.212 142.072 171.488C142.072 171.764 141.934 171.988 141.764 171.988H127.38C127.21 171.988 127.072 171.764 127.072 171.488Z" fill="white"/>
<path fill-rule="evenodd" clip-rule="evenodd" d="M127.072 174.524C127.072 174.247 127.232 174.024 127.43 174.024H138.715C138.912 174.024 139.072 174.247 139.072 174.524C139.072 174.8 138.912 175.024 138.715 175.024H127.43C127.232 175.024 127.072 174.8 127.072 174.524Z" fill="white"/>
</g>
<defs>
<linearGradient id="paint0_linear_1717_5217" x1="370" y1="267.687" x2="374.504" y2="282.312" gradientUnits="userSpaceOnUse">
<stop stop-color="#FFC671"/>
<stop offset="0.59375" stop-color="#FF7541"/>
<stop offset="1" stop-color="#FF6F3D"/>
</linearGradient>
<linearGradient id="paint1_linear_1717_5217" x1="372.033" y1="289.766" x2="378.033" y2="296" gradientUnits="userSpaceOnUse">
<stop stop-color="#FFC671"/>
<stop offset="0.59375" stop-color="#FF7541"/>
<stop offset="1" stop-color="#FF6F3D"/>
</linearGradient>
<linearGradient id="paint2_linear_1717_5217" x1="372.033" y1="299.766" x2="378.033" y2="306" gradientUnits="userSpaceOnUse">
<stop stop-color="#FFC671"/>
<stop offset="0.59375" stop-color="#FF7541"/>
<stop offset="1" stop-color="#FF6F3D"/>
</linearGradient>
<linearGradient id="paint3_linear_1717_5217" x1="372.033" y1="309.766" x2="378.033" y2="316" gradientUnits="userSpaceOnUse">
<stop stop-color="#FFC671"/>
<stop offset="0.59375" stop-color="#FF7541"/>
<stop offset="1" stop-color="#FF6F3D"/>
</linearGradient>
<linearGradient id="paint4_linear_1717_5217" x1="278.994" y1="65.698" x2="286.947" y2="73.9956" gradientUnits="userSpaceOnUse">
<stop stop-color="#FFC671"/>
<stop offset="0.59375" stop-color="#FF7541"/>
<stop offset="1" stop-color="#FF6F3D"/>
</linearGradient>
<linearGradient id="paint5_linear_1717_5217" x1="240.878" y1="98.4612" x2="266.124" y2="139.86" gradientUnits="userSpaceOnUse">
<stop stop-color="#FFC671"/>
<stop offset="0.652615" stop-color="#FF8657"/>
</linearGradient>
<linearGradient id="paint6_linear_1717_5217" x1="258.455" y1="72.0352" x2="258.455" y2="75.0352" gradientUnits="userSpaceOnUse">
<stop stop-color="#FF8E3D"/>
<stop offset="1" stop-color="#FF6F3D"/>
</linearGradient>
<linearGradient id="paint7_linear_1717_5217" x1="146.5" y1="309" x2="146.5" y2="322" gradientUnits="userSpaceOnUse">
<stop stop-color="#FF8E3D"/>
<stop offset="1" stop-color="#FF6F3D"/>
</linearGradient>
<linearGradient id="paint8_linear_1717_5217" x1="153.51" y1="307" x2="153.51" y2="322" gradientUnits="userSpaceOnUse">
<stop stop-color="#FF8E3D"/>
<stop offset="1" stop-color="#FF6F3D"/>
</linearGradient>
<linearGradient id="paint9_linear_1717_5217" x1="160.5" y1="303" x2="160.5" y2="322" gradientUnits="userSpaceOnUse">
<stop stop-color="#FF8E3D"/>
<stop offset="1" stop-color="#FF6F3D"/>
</linearGradient>
<linearGradient id="paint10_linear_1717_5217" x1="167.5" y1="301" x2="167.5" y2="322" gradientUnits="userSpaceOnUse">
<stop stop-color="#FF8E3D"/>
<stop offset="1" stop-color="#FF6F3D"/>
</linearGradient>
<linearGradient id="paint11_linear_1717_5217" x1="174.49" y1="296" x2="174.49" y2="322" gradientUnits="userSpaceOnUse">
<stop stop-color="#FF8E3D"/>
<stop offset="1" stop-color="#FF6F3D"/>
</linearGradient>
<linearGradient id="paint12_linear_1717_5217" x1="339.502" y1="183" x2="339.502" y2="187" gradientUnits="userSpaceOnUse">
<stop stop-color="#FF8E3D"/>
<stop offset="1" stop-color="#FF6F3D"/>
</linearGradient>
<linearGradient id="paint13_linear_1717_5217" x1="339.502" y1="163" x2="339.502" y2="167" gradientUnits="userSpaceOnUse">
<stop stop-color="#FF8E3D"/>
<stop offset="1" stop-color="#FF6F3D"/>
</linearGradient>
<linearGradient id="paint14_linear_1717_5217" x1="365.022" y1="144.829" x2="368.279" y2="153.631" gradientUnits="userSpaceOnUse">
<stop stop-color="#FF8E3D"/>
<stop offset="1" stop-color="#FF6F3D"/>
</linearGradient>
<linearGradient id="paint15_linear_1717_5217" x1="160.656" y1="171.206" x2="180.981" y2="192.407" gradientUnits="userSpaceOnUse">
<stop stop-color="#FFC671"/>
<stop offset="0.59375" stop-color="#FF7541"/>
<stop offset="1" stop-color="#FF6F3D"/>
</linearGradient>
<linearGradient id="paint16_linear_1717_5217" x1="122.004" y1="164.199" x2="141.726" y2="189.403" gradientUnits="userSpaceOnUse">
<stop stop-color="#FFC671"/>
<stop offset="0.59375" stop-color="#FF7541"/>
<stop offset="1" stop-color="#FF6F3D"/>
</linearGradient>
<clipPath id="clip0_1717_5217">
<rect width="544" height="544" fill="white"/>
</clipPath>
</defs>
</svg>
