<svg width="1616" height="738" viewBox="0 0 1616 738" fill="none" xmlns="http://www.w3.org/2000/svg">
<path fill-rule="evenodd" clip-rule="evenodd" d="M766.589 191.978C764.329 191.978 762.153 192.228 760.061 192.73C756.378 187.798 750.101 184.538 743.154 184.538C740.894 184.538 738.718 184.873 736.626 185.542C733.194 171.499 719.468 160.967 703.147 160.967C684.148 160.967 668.831 175.093 668.831 192.479C668.831 192.73 668.831 193.064 668.831 193.315V193.482V193.566C666.404 192.897 663.809 192.479 661.215 192.479C647.154 192.479 635.687 203.011 635.687 215.883C635.687 228.839 647.154 239.287 661.215 239.287H766.673C780.901 239.287 792.535 228.672 792.535 215.549C792.451 202.593 780.901 191.978 766.589 191.978Z" fill="white"/>
<path fill-rule="evenodd" clip-rule="evenodd" d="M766.589 191.978C764.329 191.978 762.153 192.228 760.061 192.73C756.378 187.798 750.101 184.538 743.154 184.538C740.894 184.538 738.718 184.873 736.626 185.542C733.194 171.499 719.468 160.967 703.147 160.967C684.148 160.967 668.831 175.093 668.831 192.479C668.831 192.73 668.831 193.064 668.831 193.315V193.482V193.566C666.404 192.897 663.809 192.479 661.215 192.479C647.154 192.479 635.687 203.011 635.687 215.883C635.687 228.839 647.154 239.287 661.215 239.287H766.673C780.901 239.287 792.535 228.672 792.535 215.549C792.451 202.593 780.901 191.978 766.589 191.978Z" fill="url(#paint0_linear_2632_26423)"/>
<path fill-rule="evenodd" clip-rule="evenodd" d="M1503 101.581C1504.94 101.581 1506.8 101.796 1508.59 102.226C1511.75 98.0009 1517.12 95.2083 1523.08 95.2083C1525.01 95.2083 1526.88 95.4947 1528.67 96.0675C1531.61 84.0379 1543.37 75.0156 1557.35 75.0156C1573.62 75.0156 1586.75 87.1169 1586.75 102.011C1586.75 102.226 1586.75 102.512 1586.75 102.727V102.87V102.942C1588.83 102.369 1591.05 102.011 1593.27 102.011C1605.32 102.011 1615.14 111.033 1615.14 122.06C1615.14 133.159 1605.32 142.11 1593.27 142.11H1502.93C1490.74 142.11 1480.77 133.016 1480.77 121.774C1480.84 110.675 1490.74 101.581 1503 101.581Z" fill="white"/>
<path fill-rule="evenodd" clip-rule="evenodd" d="M1503 101.581C1504.94 101.581 1506.8 101.796 1508.59 102.226C1511.75 98.0009 1517.12 95.2083 1523.08 95.2083C1525.01 95.2083 1526.88 95.4947 1528.67 96.0675C1531.61 84.0379 1543.37 75.0156 1557.35 75.0156C1573.62 75.0156 1586.75 87.1169 1586.75 102.011C1586.75 102.226 1586.75 102.512 1586.75 102.727V102.87V102.942C1588.83 102.369 1591.05 102.011 1593.27 102.011C1605.32 102.011 1615.14 111.033 1615.14 122.06C1615.14 133.159 1605.32 142.11 1593.27 142.11H1502.93C1490.74 142.11 1480.77 133.016 1480.77 121.774C1480.84 110.675 1490.74 101.581 1503 101.581Z" fill="url(#paint1_linear_2632_26423)"/>
<path fill-rule="evenodd" clip-rule="evenodd" d="M476.292 302.817L492.536 308.103V736.244H474.559V302.271L476.292 302.817ZM489.981 310.017L477.205 305.825V733.601H489.981V310.017Z" fill="white"/>
<path fill-rule="evenodd" clip-rule="evenodd" d="M476.292 302.817L492.536 308.103V736.244H474.559V302.271L476.292 302.817ZM489.981 310.017L477.205 305.825V733.601H489.981V310.017Z" fill="url(#paint2_linear_2632_26423)"/>
<path fill-rule="evenodd" clip-rule="evenodd" d="M470.362 281.492L489.616 288.6V309.834L475.654 305.278H468.628V280.854L470.362 281.492ZM487.061 290.514L471.183 284.59V302.726H476.019L486.97 306.28V290.514H487.061Z" fill="white"/>
<path fill-rule="evenodd" clip-rule="evenodd" d="M470.362 281.492L489.616 288.6V309.834L475.654 305.278H468.628V280.854L470.362 281.492ZM487.061 290.514L471.183 284.59V302.726H476.019L486.97 306.28V290.514H487.061Z" fill="url(#paint3_linear_2632_26423)"/>
<path fill-rule="evenodd" clip-rule="evenodd" d="M551.211 733.693H565.264V203.847L550.663 197.285L551.758 194.916L567.91 202.207C568.002 380.189 567.91 558.262 567.91 736.244H551.211V733.693Z" fill="white"/>
<path fill-rule="evenodd" clip-rule="evenodd" d="M551.211 733.693H565.264V203.847L550.663 197.285L551.758 194.916L567.91 202.207C568.002 380.189 567.91 558.262 567.91 736.244H551.211V733.693Z" fill="url(#paint4_linear_2632_26423)"/>
<path fill-rule="evenodd" clip-rule="evenodd" d="M580.687 389.119L567.911 382.558V733.601H580.687V389.119ZM567.181 379.368L583.242 387.57V736.244H565.265V378.366L567.181 379.368Z" fill="white"/>
<path fill-rule="evenodd" clip-rule="evenodd" d="M580.687 389.119L567.911 382.558V733.601H580.687V389.119ZM567.181 379.368L583.242 387.57V736.244H565.265V378.366L567.181 379.368Z" fill="url(#paint5_linear_2632_26423)"/>
<path d="M272.524 415.823H269.969V734.97H272.524V415.823Z" fill="white"/>
<path d="M272.524 415.823H269.969V734.97H272.524V415.823Z" fill="url(#paint6_linear_2632_26423)"/>
<path d="M364.324 415.823H361.769V734.97H364.324V415.823Z" fill="white"/>
<path d="M364.324 415.823H361.769V734.97H364.324V415.823Z" fill="url(#paint7_linear_2632_26423)"/>
<path fill-rule="evenodd" clip-rule="evenodd" d="M364.324 416.548V733.325H397.906V419.33L364.324 416.548Z" fill="white"/>
<path fill-rule="evenodd" clip-rule="evenodd" d="M364.324 416.548V733.325H397.906V419.33L364.324 416.548Z" fill="url(#paint8_linear_2632_26423)"/>
<path fill-rule="evenodd" clip-rule="evenodd" d="M249.985 443.253L271.247 440.428H363.048L399.276 443.162L399.093 445.805L363.048 442.98H271.338L250.35 445.805L249.985 443.253Z" fill="white"/>
<path fill-rule="evenodd" clip-rule="evenodd" d="M249.985 443.253L271.247 440.428H363.048L399.276 443.162L399.093 445.805L363.048 442.98H271.338L250.35 445.805L249.985 443.253Z" fill="url(#paint9_linear_2632_26423)"/>
<path fill-rule="evenodd" clip-rule="evenodd" d="M749.779 595.278V316.032H681.795V575.305H679.24V313.48H752.335V595.278H749.779Z" fill="white"/>
<path fill-rule="evenodd" clip-rule="evenodd" d="M749.779 595.278V316.032H681.795V575.305H679.24V313.48H752.335V595.278H749.779Z" fill="url(#paint10_linear_2632_26423)"/>
<path fill-rule="evenodd" clip-rule="evenodd" d="M726.874 314.756V293.522H707.802V314.756H705.247V290.879H729.429V314.756H726.874Z" fill="white"/>
<path fill-rule="evenodd" clip-rule="evenodd" d="M726.874 314.756V293.522H707.802V314.756H705.247V290.879H729.429V314.756H726.874Z" fill="url(#paint11_linear_2632_26423)"/>
<path fill-rule="evenodd" clip-rule="evenodd" d="M1108.41 481.529V464.761L1159.42 448.083V492.101H1156.77V451.638L1111.05 466.583V481.529H1108.41Z" fill="white"/>
<path fill-rule="evenodd" clip-rule="evenodd" d="M1108.41 481.529V464.761L1159.42 448.083V492.101H1156.77V451.638L1111.05 466.583V481.529H1108.41Z" fill="url(#paint12_linear_2632_26423)"/>
<path d="M1042.34 634.266H1039.78V734.968H1042.34V634.266Z" fill="white"/>
<path d="M1042.34 634.266H1039.78V734.968H1042.34V634.266Z" fill="url(#paint13_linear_2632_26423)"/>
<path fill-rule="evenodd" clip-rule="evenodd" d="M1075.74 537.666V472.415L1166.9 492.92V735.059H1164.34V495.016L1078.29 475.605V537.666H1075.74Z" fill="white"/>
<path fill-rule="evenodd" clip-rule="evenodd" d="M1075.74 537.666V472.415L1166.9 492.92V735.059H1164.34V495.016L1078.29 475.605V537.666H1075.74Z" fill="url(#paint14_linear_2632_26423)"/>
<path fill-rule="evenodd" clip-rule="evenodd" d="M879.33 738H840.456V538.146H889.003V728.876H886.356V540.697H843.011V735.448H879.33V738Z" fill="white"/>
<path fill-rule="evenodd" clip-rule="evenodd" d="M879.33 738H840.456V538.146H889.003V728.876H886.356V540.697H843.011V735.448H879.33V738Z" fill="url(#paint15_linear_2632_26423)"/>
<path fill-rule="evenodd" clip-rule="evenodd" d="M889.002 734.143V538.146L908.805 546.256V733.904H906.118V547.794L890.167 541.244V734.143H889.002Z" fill="white"/>
<path fill-rule="evenodd" clip-rule="evenodd" d="M889.002 734.143V538.146L908.805 546.256V733.904H906.118V547.794L890.167 541.244V734.143H889.002Z" fill="url(#paint16_linear_2632_26423)"/>
<path fill-rule="evenodd" clip-rule="evenodd" d="M1052.74 612.942V536.391H1101.29V734.969H1098.73V538.942H1055.3V612.942H1052.74Z" fill="white"/>
<path fill-rule="evenodd" clip-rule="evenodd" d="M1052.74 612.942V536.391H1101.29V734.969H1098.73V538.942H1055.3V612.942H1052.74Z" fill="url(#paint17_linear_2632_26423)"/>
<path fill-rule="evenodd" clip-rule="evenodd" d="M1173.38 735.059V498.661L1165.17 495.107L1166.17 492.737L1175.93 496.929V735.059H1173.38Z" fill="white"/>
<path fill-rule="evenodd" clip-rule="evenodd" d="M1173.38 735.059V498.661L1165.17 495.107L1166.17 492.737L1175.93 496.929V735.059H1173.38Z" fill="url(#paint18_linear_2632_26423)"/>
<path fill-rule="evenodd" clip-rule="evenodd" d="M1100.65 536.572L1106.49 539.944V734.968H1103.93V541.402L1099.37 538.759L1100.65 536.572Z" fill="white"/>
<path fill-rule="evenodd" clip-rule="evenodd" d="M1100.65 536.572L1106.49 539.944V734.968H1103.93V541.402L1099.37 538.759L1100.65 536.572Z" fill="url(#paint19_linear_2632_26423)"/>
<path d="M731.438 575.305H728.883V734.97H731.438V575.305Z" fill="white"/>
<path d="M731.438 575.305H728.883V734.97H731.438V575.305Z" fill="url(#paint20_linear_2632_26423)"/>
<path fill-rule="evenodd" clip-rule="evenodd" d="M855.086 537.5V455.283L846.782 451.729L847.877 449.36L857.641 453.643V537.5H855.086Z" fill="white"/>
<path fill-rule="evenodd" clip-rule="evenodd" d="M855.086 537.5V455.283L846.782 451.729L847.877 449.36L857.641 453.643V537.5H855.086Z" fill="url(#paint21_linear_2632_26423)"/>
<path fill-rule="evenodd" clip-rule="evenodd" d="M661.263 575.305V508.596L652.959 505.041L653.963 502.672L663.818 506.955V575.305H661.263Z" fill="white"/>
<path fill-rule="evenodd" clip-rule="evenodd" d="M661.263 575.305V508.596L652.959 505.041L653.963 502.672L663.818 506.955V575.305H661.263Z" fill="url(#paint22_linear_2632_26423)"/>
<path fill-rule="evenodd" clip-rule="evenodd" d="M994.248 614.218L965.229 635.36L963.678 633.264L992.696 612.122L994.248 614.218Z" fill="white"/>
<path fill-rule="evenodd" clip-rule="evenodd" d="M994.248 614.218L965.229 635.36L963.678 633.264L992.696 612.122L994.248 614.218Z" fill="url(#paint23_linear_2632_26423)"/>
<path fill-rule="evenodd" clip-rule="evenodd" d="M1039.24 614.218L1010.22 635.36L1008.76 633.264L1037.78 612.122L1039.24 614.218Z" fill="white"/>
<path fill-rule="evenodd" clip-rule="evenodd" d="M1039.24 614.218L1010.22 635.36L1008.76 633.264L1037.78 612.122L1039.24 614.218Z" fill="url(#paint24_linear_2632_26423)"/>
<path fill-rule="evenodd" clip-rule="evenodd" d="M854.015 547.961V733.654H849.653V547.961H854.015ZM880.032 547.961V733.654H875.67V547.961H880.032ZM871.385 547.961V733.654H867.023V547.961H871.385ZM862.662 547.961V733.654H858.3V547.961H862.662Z" fill="white"/>
<path fill-rule="evenodd" clip-rule="evenodd" d="M854.015 547.961V733.654H849.653V547.961H854.015ZM880.032 547.961V733.654H875.67V547.961H880.032ZM871.385 547.961V733.654H867.023V547.961H871.385ZM862.662 547.961V733.654H858.3V547.961H862.662Z" fill="url(#paint25_linear_2632_26423)"/>
<path d="M752.334 385.84H749.779V480.436H752.334V385.84Z" fill="white"/>
<path d="M752.334 385.84H749.779V480.436H752.334V385.84Z" fill="url(#paint26_linear_2632_26423)"/>
<path fill-rule="evenodd" clip-rule="evenodd" d="M779.509 463.095H835.153V473.327H777.748V463.095H779.509Z" fill="white"/>
<path fill-rule="evenodd" clip-rule="evenodd" d="M779.509 463.095H835.153V473.327H777.748V463.095H779.509Z" fill="url(#paint27_linear_2632_26423)"/>
<path fill-rule="evenodd" clip-rule="evenodd" d="M779.509 501.535H835.153V511.767H777.748V501.535H779.509Z" fill="white"/>
<path fill-rule="evenodd" clip-rule="evenodd" d="M779.509 501.535H835.153V511.767H777.748V501.535H779.509Z" fill="url(#paint28_linear_2632_26423)"/>
<path fill-rule="evenodd" clip-rule="evenodd" d="M779.509 482.314H835.153V492.546H777.748V482.314H779.509Z" fill="white"/>
<path fill-rule="evenodd" clip-rule="evenodd" d="M779.509 482.314H835.153V492.546H777.748V482.314H779.509Z" fill="url(#paint29_linear_2632_26423)"/>
<path fill-rule="evenodd" clip-rule="evenodd" d="M779.509 520.757H835.153V530.989H777.748V520.757H779.509Z" fill="white"/>
<path fill-rule="evenodd" clip-rule="evenodd" d="M779.509 520.757H835.153V530.989H777.748V520.757H779.509Z" fill="url(#paint30_linear_2632_26423)"/>
<path fill-rule="evenodd" clip-rule="evenodd" d="M779.509 539.976H835.153V550.208H777.748V539.976H779.509Z" fill="white"/>
<path fill-rule="evenodd" clip-rule="evenodd" d="M779.509 539.976H835.153V550.208H777.748V539.976H779.509Z" fill="url(#paint31_linear_2632_26423)"/>
<path fill-rule="evenodd" clip-rule="evenodd" d="M779.509 578.416H835.153V588.648H777.748V578.416H779.509Z" fill="white"/>
<path fill-rule="evenodd" clip-rule="evenodd" d="M779.509 578.416H835.153V588.648H777.748V578.416H779.509Z" fill="url(#paint32_linear_2632_26423)"/>
<path fill-rule="evenodd" clip-rule="evenodd" d="M779.509 655.297H835.153V665.529H777.748V655.297H779.509Z" fill="white"/>
<path fill-rule="evenodd" clip-rule="evenodd" d="M779.509 655.297H835.153V665.529H777.748V655.297H779.509Z" fill="url(#paint33_linear_2632_26423)"/>
<path fill-rule="evenodd" clip-rule="evenodd" d="M779.509 616.855H835.153V627.087H777.748V616.855H779.509Z" fill="white"/>
<path fill-rule="evenodd" clip-rule="evenodd" d="M779.509 616.855H835.153V627.087H777.748V616.855H779.509Z" fill="url(#paint34_linear_2632_26423)"/>
<path fill-rule="evenodd" clip-rule="evenodd" d="M779.509 693.737H835.153V703.969H777.748V693.737H779.509Z" fill="white"/>
<path fill-rule="evenodd" clip-rule="evenodd" d="M779.509 693.737H835.153V703.969H777.748V693.737H779.509Z" fill="url(#paint35_linear_2632_26423)"/>
<path fill-rule="evenodd" clip-rule="evenodd" d="M779.509 559.195H835.153V569.427H777.748V559.195H779.509Z" fill="white"/>
<path fill-rule="evenodd" clip-rule="evenodd" d="M779.509 559.195H835.153V569.427H777.748V559.195H779.509Z" fill="url(#paint36_linear_2632_26423)"/>
<path fill-rule="evenodd" clip-rule="evenodd" d="M779.509 597.635H835.153V607.867H777.748V597.635H779.509Z" fill="white"/>
<path fill-rule="evenodd" clip-rule="evenodd" d="M779.509 597.635H835.153V607.867H777.748V597.635H779.509Z" fill="url(#paint37_linear_2632_26423)"/>
<path fill-rule="evenodd" clip-rule="evenodd" d="M779.509 674.517H835.153V684.749H777.748V674.517H779.509Z" fill="white"/>
<path fill-rule="evenodd" clip-rule="evenodd" d="M779.509 674.517H835.153V684.749H777.748V674.517H779.509Z" fill="url(#paint38_linear_2632_26423)"/>
<path fill-rule="evenodd" clip-rule="evenodd" d="M779.509 636.076H835.153V646.308H777.748V636.076H779.509Z" fill="white"/>
<path fill-rule="evenodd" clip-rule="evenodd" d="M779.509 636.076H835.153V646.308H777.748V636.076H779.509Z" fill="url(#paint39_linear_2632_26423)"/>
<path fill-rule="evenodd" clip-rule="evenodd" d="M779.509 712.956H835.153V723.188H777.748V712.956H779.509Z" fill="white"/>
<path fill-rule="evenodd" clip-rule="evenodd" d="M779.509 712.956H835.153V723.188H777.748V712.956H779.509Z" fill="url(#paint40_linear_2632_26423)"/>
<path fill-rule="evenodd" clip-rule="evenodd" d="M1077.65 478.065L1143.72 492.92V735.06H1141.08V495.016L1077.11 480.617L1077.65 478.065Z" fill="white"/>
<path fill-rule="evenodd" clip-rule="evenodd" d="M1077.65 478.065L1143.72 492.92V735.06H1141.08V495.016L1077.11 480.617L1077.65 478.065Z" fill="url(#paint41_linear_2632_26423)"/>
<path fill-rule="evenodd" clip-rule="evenodd" d="M1077.38 493.467L1117.26 502.124V735.06H1114.61V504.22L1076.83 496.019L1077.38 493.467Z" fill="white"/>
<path fill-rule="evenodd" clip-rule="evenodd" d="M1077.38 493.467L1117.26 502.124V735.06H1114.61V504.22L1076.83 496.019L1077.38 493.467Z" fill="url(#paint42_linear_2632_26423)"/>
<path fill-rule="evenodd" clip-rule="evenodd" d="M1077.2 508.958L1101.29 513.97V537.938H1098.73V516.066L1076.65 511.51L1077.2 508.958Z" fill="white"/>
<path fill-rule="evenodd" clip-rule="evenodd" d="M1077.2 508.958L1101.29 513.97V537.938H1098.73V516.066L1076.65 511.51L1077.2 508.958Z" fill="url(#paint43_linear_2632_26423)"/>
<path fill-rule="evenodd" clip-rule="evenodd" d="M1132.41 511.783H1125.93V505.313H1132.41V511.783ZM1132.41 731.413H1125.93V724.943H1132.41V731.413ZM1132.41 718.472H1125.93V712.002H1132.41V718.472ZM1132.41 705.532H1125.93V699.061H1132.41V705.532ZM1132.41 692.591H1125.93V686.12H1132.41V692.591ZM1132.41 679.741H1125.93V673.271H1132.41V679.741ZM1132.41 666.8H1125.93V660.33H1132.41V666.8ZM1132.41 653.859H1125.93V647.389H1132.41V653.859ZM1132.41 641.01H1125.93V634.539H1132.41V641.01ZM1132.41 628.069H1125.93V621.598H1132.41V628.069ZM1132.41 615.128H1125.93V608.658H1132.41V615.128ZM1132.41 602.187H1125.93V595.717H1132.41V602.187ZM1132.41 589.337H1125.93V582.867H1132.41V589.337ZM1132.41 576.397H1125.93V569.926H1132.41V576.397ZM1132.41 563.456H1125.93V556.985H1132.41V563.456ZM1132.41 550.515H1125.93V544.044H1132.41V550.515ZM1132.41 537.665H1125.93V531.195H1132.41V537.665ZM1132.41 524.724H1125.93V518.254H1132.41V524.724Z" fill="white"/>
<path fill-rule="evenodd" clip-rule="evenodd" d="M1132.41 511.783H1125.93V505.313H1132.41V511.783ZM1132.41 731.413H1125.93V724.943H1132.41V731.413ZM1132.41 718.472H1125.93V712.002H1132.41V718.472ZM1132.41 705.532H1125.93V699.061H1132.41V705.532ZM1132.41 692.591H1125.93V686.12H1132.41V692.591ZM1132.41 679.741H1125.93V673.271H1132.41V679.741ZM1132.41 666.8H1125.93V660.33H1132.41V666.8ZM1132.41 653.859H1125.93V647.389H1132.41V653.859ZM1132.41 641.01H1125.93V634.539H1132.41V641.01ZM1132.41 628.069H1125.93V621.598H1132.41V628.069ZM1132.41 615.128H1125.93V608.658H1132.41V615.128ZM1132.41 602.187H1125.93V595.717H1132.41V602.187ZM1132.41 589.337H1125.93V582.867H1132.41V589.337ZM1132.41 576.397H1125.93V569.926H1132.41V576.397ZM1132.41 563.456H1125.93V556.985H1132.41V563.456ZM1132.41 550.515H1125.93V544.044H1132.41V550.515ZM1132.41 537.665H1125.93V531.195H1132.41V537.665ZM1132.41 524.724H1125.93V518.254H1132.41V524.724Z" fill="url(#paint44_linear_2632_26423)"/>
<path fill-rule="evenodd" clip-rule="evenodd" d="M1157.5 511.783H1151.02V505.313H1157.5V511.783ZM1157.5 731.413H1151.02V724.943H1157.5V731.413ZM1157.5 718.472H1151.02V712.002H1157.5V718.472ZM1157.5 705.532H1151.02V699.061H1157.5V705.532ZM1157.5 692.591H1151.02V686.12H1157.5V692.591ZM1157.5 679.741H1151.02V673.271H1157.5V679.741ZM1157.5 666.8H1151.02V660.33H1157.5V666.8ZM1157.5 653.859H1151.02V647.389H1157.5V653.859ZM1157.5 641.01H1151.02V634.539H1157.5V641.01ZM1157.5 628.069H1151.02V621.598H1157.5V628.069ZM1157.5 615.128H1151.02V608.658H1157.5V615.128ZM1157.5 602.187H1151.02V595.717H1157.5V602.187ZM1157.5 589.337H1151.02V582.867H1157.5V589.337ZM1157.5 576.397H1151.02V569.926H1157.5V576.397ZM1157.5 563.456H1151.02V556.985H1157.5V563.456ZM1157.5 550.515H1151.02V544.044H1157.5V550.515ZM1157.5 537.665H1151.02V531.195H1157.5V537.665ZM1157.5 524.724H1151.02V518.254H1157.5V524.724Z" fill="white"/>
<path fill-rule="evenodd" clip-rule="evenodd" d="M1157.5 511.783H1151.02V505.313H1157.5V511.783ZM1157.5 731.413H1151.02V724.943H1157.5V731.413ZM1157.5 718.472H1151.02V712.002H1157.5V718.472ZM1157.5 705.532H1151.02V699.061H1157.5V705.532ZM1157.5 692.591H1151.02V686.12H1157.5V692.591ZM1157.5 679.741H1151.02V673.271H1157.5V679.741ZM1157.5 666.8H1151.02V660.33H1157.5V666.8ZM1157.5 653.859H1151.02V647.389H1157.5V653.859ZM1157.5 641.01H1151.02V634.539H1157.5V641.01ZM1157.5 628.069H1151.02V621.598H1157.5V628.069ZM1157.5 615.128H1151.02V608.658H1157.5V615.128ZM1157.5 602.187H1151.02V595.717H1157.5V602.187ZM1157.5 589.337H1151.02V582.867H1157.5V589.337ZM1157.5 576.397H1151.02V569.926H1157.5V576.397ZM1157.5 563.456H1151.02V556.985H1157.5V563.456ZM1157.5 550.515H1151.02V544.044H1157.5V550.515ZM1157.5 537.665H1151.02V531.195H1157.5V537.665ZM1157.5 524.724H1151.02V518.254H1157.5V524.724Z" fill="url(#paint45_linear_2632_26423)"/>
<path d="M1092.71 549.422H1056.94V553.341H1092.71V549.422Z" fill="white"/>
<path d="M1092.71 549.422H1056.94V553.341H1092.71V549.422Z" fill="url(#paint46_linear_2632_26423)"/>
<path d="M1092.71 566.372H1056.94V570.291H1092.71V566.372Z" fill="white"/>
<path d="M1092.71 566.372H1056.94V570.291H1092.71V566.372Z" fill="url(#paint47_linear_2632_26423)"/>
<path d="M1092.71 582.959H1056.94V586.878H1092.71V582.959Z" fill="white"/>
<path d="M1092.71 582.959H1056.94V586.878H1092.71V582.959Z" fill="url(#paint48_linear_2632_26423)"/>
<path d="M1092.71 599.817H1056.94V603.736H1092.71V599.817Z" fill="white"/>
<path d="M1092.71 599.817H1056.94V603.736H1092.71V599.817Z" fill="url(#paint49_linear_2632_26423)"/>
<path d="M1092.71 617.042H1077.65V620.961H1092.71V617.042Z" fill="white"/>
<path d="M1092.71 617.042H1077.65V620.961H1092.71V617.042Z" fill="url(#paint50_linear_2632_26423)"/>
<path d="M1092.71 633.994H1077.65V637.913H1092.71V633.994Z" fill="white"/>
<path d="M1092.71 633.994H1077.65V637.913H1092.71V633.994Z" fill="url(#paint51_linear_2632_26423)"/>
<path d="M1092.71 650.579H1077.65V654.498H1092.71V650.579Z" fill="white"/>
<path d="M1092.71 650.579H1077.65V654.498H1092.71V650.579Z" fill="url(#paint52_linear_2632_26423)"/>
<path d="M1092.71 667.438H1077.65V671.358H1092.71V667.438Z" fill="white"/>
<path d="M1092.71 667.438H1077.65V671.358H1092.71V667.438Z" fill="url(#paint53_linear_2632_26423)"/>
<path d="M1092.71 685.666H1077.65V689.585H1092.71V685.666Z" fill="white"/>
<path d="M1092.71 685.666H1077.65V689.585H1092.71V685.666Z" fill="url(#paint54_linear_2632_26423)"/>
<path d="M1092.71 702.617H1077.65V706.536H1092.71V702.617Z" fill="white"/>
<path d="M1092.71 702.617H1077.65V706.536H1092.71V702.617Z" fill="url(#paint55_linear_2632_26423)"/>
<path d="M1092.71 719.202H1077.65V723.121H1092.71V719.202Z" fill="white"/>
<path d="M1092.71 719.202H1077.65V723.121H1092.71V719.202Z" fill="url(#paint56_linear_2632_26423)"/>
<path fill-rule="evenodd" clip-rule="evenodd" d="M397.907 734.968V419.74L363.048 417.098H271.338L251.444 419.74V625.114H248.889V417.462L271.246 414.546H363.139C375.458 415.184 388.142 416.46 400.553 417.462V735.06H397.907V734.968Z" fill="white"/>
<path fill-rule="evenodd" clip-rule="evenodd" d="M397.907 734.968V419.74L363.048 417.098H271.338L251.444 419.74V625.114H248.889V417.462L271.246 414.546H363.139C375.458 415.184 388.142 416.46 400.553 417.462V735.06H397.907V734.968Z" fill="url(#paint57_linear_2632_26423)"/>
<path fill-rule="evenodd" clip-rule="evenodd" d="M411.228 302.725H477.113V736.152H409.951V302.725H411.228ZM474.558 305.368H412.506V733.692H474.558V305.368Z" fill="white"/>
<path fill-rule="evenodd" clip-rule="evenodd" d="M411.228 302.725H477.113V736.152H409.951V302.725H411.228ZM474.558 305.368H412.506V733.692H474.558V305.368Z" fill="url(#paint58_linear_2632_26423)"/>
<path fill-rule="evenodd" clip-rule="evenodd" d="M416.887 281.491H471.274V305.368H415.61V281.491H416.887ZM468.628 284.043H418.165V302.816H468.628V284.043Z" fill="white"/>
<path fill-rule="evenodd" clip-rule="evenodd" d="M416.887 281.491H471.274V305.368H415.61V281.491H416.887ZM468.628 284.043H418.165V302.816H468.628V284.043Z" fill="url(#paint59_linear_2632_26423)"/>
<path fill-rule="evenodd" clip-rule="evenodd" d="M846.052 539.123V451.909H769.49V734.967H766.935V449.266L848.607 449.266V541.12L846.052 539.123Z" fill="white"/>
<path fill-rule="evenodd" clip-rule="evenodd" d="M846.052 539.123V451.909H769.49V734.967H766.935V449.266L848.607 449.266V541.12L846.052 539.123Z" fill="url(#paint60_linear_2632_26423)"/>
<path fill-rule="evenodd" clip-rule="evenodd" d="M767.573 598.36L729.794 576.579H646.479V734.968H643.924V573.937H730.524L768.851 596.082L767.573 598.36Z" fill="white"/>
<path fill-rule="evenodd" clip-rule="evenodd" d="M767.573 598.36L729.794 576.579H646.479V734.968H643.924V573.937H730.524L768.851 596.082L767.573 598.36Z" fill="url(#paint61_linear_2632_26423)"/>
<path fill-rule="evenodd" clip-rule="evenodd" d="M120.307 611.403V596.467L86.152 576.579H2.83743V734.968H0.282276V573.937H86.8821L122.32 594.867V611.403H120.307Z" fill="white"/>
<path fill-rule="evenodd" clip-rule="evenodd" d="M120.307 611.403V596.467L86.152 576.579H2.83743V734.968H0.282276V573.937H86.8821L122.32 594.867V611.403H120.307Z" fill="url(#paint62_linear_2632_26423)"/>
<path fill-rule="evenodd" clip-rule="evenodd" d="M13.9639 587.324H79.6042V597.556H11.8867V587.324H13.9639Z" fill="white"/>
<path fill-rule="evenodd" clip-rule="evenodd" d="M13.9639 587.324H79.6042V597.556H11.8867V587.324H13.9639Z" fill="url(#paint63_linear_2632_26423)"/>
<path fill-rule="evenodd" clip-rule="evenodd" d="M13.2309 627.761H72.207L55.7068 637.993H11.8867V627.761H13.2309Z" fill="white"/>
<path fill-rule="evenodd" clip-rule="evenodd" d="M13.2309 627.761H72.207L55.7068 637.993H11.8867V627.761H13.2309Z" fill="url(#paint64_linear_2632_26423)"/>
<path fill-rule="evenodd" clip-rule="evenodd" d="M13.9639 607.543H79.6042V617.775H11.8867V607.543H13.9639Z" fill="white"/>
<path fill-rule="evenodd" clip-rule="evenodd" d="M13.9639 607.543H79.6042V617.775H11.8867V607.543H13.9639Z" fill="url(#paint65_linear_2632_26423)"/>
<path fill-rule="evenodd" clip-rule="evenodd" d="M13.2309 647.981H55.7068V658.213H11.8867V647.981H13.2309Z" fill="white"/>
<path fill-rule="evenodd" clip-rule="evenodd" d="M13.2309 647.981H55.7068V658.213H11.8867V647.981H13.2309Z" fill="url(#paint66_linear_2632_26423)"/>
<path fill-rule="evenodd" clip-rule="evenodd" d="M13.2309 668.199H55.7068V678.431H11.8867V668.199H13.2309Z" fill="white"/>
<path fill-rule="evenodd" clip-rule="evenodd" d="M13.2309 668.199H55.7068V678.431H11.8867V668.199H13.2309Z" fill="url(#paint67_linear_2632_26423)"/>
<path fill-rule="evenodd" clip-rule="evenodd" d="M13.2309 688.418H55.7068V698.65H11.8867V688.418H13.2309Z" fill="white"/>
<path fill-rule="evenodd" clip-rule="evenodd" d="M13.2309 688.418H55.7068V698.65H11.8867V688.418H13.2309Z" fill="url(#paint68_linear_2632_26423)"/>
<path fill-rule="evenodd" clip-rule="evenodd" d="M13.2309 708.638H55.7068V718.87H11.8867V708.638H13.2309Z" fill="white"/>
<path fill-rule="evenodd" clip-rule="evenodd" d="M13.2309 708.638H55.7068V718.87H11.8867V708.638H13.2309Z" fill="url(#paint69_linear_2632_26423)"/>
<path fill-rule="evenodd" clip-rule="evenodd" d="M652.23 575.304V505.223H583.333V734.968H580.778V502.58C605.508 502.58 630.146 502.58 654.876 502.58V575.213H652.23V575.304Z" fill="white"/>
<path fill-rule="evenodd" clip-rule="evenodd" d="M652.23 575.304V505.223H583.333V734.968H580.778V502.58C605.508 502.58 630.146 502.58 654.876 502.58V575.213H652.23V575.304Z" fill="url(#paint70_linear_2632_26423)"/>
<path fill-rule="evenodd" clip-rule="evenodd" d="M731.437 577.489V733.691H766.935V597.903L731.437 577.489Z" fill="white"/>
<path fill-rule="evenodd" clip-rule="evenodd" d="M731.437 577.489V733.691H766.935V597.903L731.437 577.489Z" fill="url(#paint71_linear_2632_26423)"/>
<path fill-rule="evenodd" clip-rule="evenodd" d="M1042.43 634.995V733.692H1076.38V615.401L1042.43 634.995Z" fill="white"/>
<path fill-rule="evenodd" clip-rule="evenodd" d="M1042.43 634.995V733.692H1076.38V615.401L1042.43 634.995Z" fill="url(#paint72_linear_2632_26423)"/>
<path fill-rule="evenodd" clip-rule="evenodd" d="M1111.05 480.343L1156.77 490.641V451.636L1111.05 466.582V480.343Z" fill="white"/>
<path fill-rule="evenodd" clip-rule="evenodd" d="M1111.05 480.343L1156.77 490.641V451.636L1111.05 466.582V480.343Z" fill="url(#paint73_linear_2632_26423)"/>
<path fill-rule="evenodd" clip-rule="evenodd" d="M1114.61 504.22L1078.29 496.292V509.233L1101.29 513.972V536.39V536.937L1106.49 539.945V733.693H1114.61V504.22Z" fill="white"/>
<path fill-rule="evenodd" clip-rule="evenodd" d="M1114.61 504.22L1078.29 496.292V509.233L1101.29 513.972V536.39V536.937L1106.49 539.945V733.693H1114.61V504.22Z" fill="url(#paint74_linear_2632_26423)"/>
<path fill-rule="evenodd" clip-rule="evenodd" d="M216.494 615.147L216.494 22.5529C227.992 20.0923 239.582 17.5406 251.08 15.08L260.205 16.3558L260.296 13.0751L316.965 0.863281V416.837H314.41V4.05293L262.851 15.1711L262.76 19.2721L251.262 17.6317L219.141 24.5578V615.056H216.494V615.147Z" fill="white"/>
<path fill-rule="evenodd" clip-rule="evenodd" d="M216.494 615.147L216.494 22.5529C227.992 20.0923 239.582 17.5406 251.08 15.08L260.205 16.3558L260.296 13.0751L316.965 0.863281V416.837H314.41V4.05293L262.851 15.1711L262.76 19.2721L251.262 17.6317L219.141 24.5578V615.056H216.494V615.147Z" fill="url(#paint75_linear_2632_26423)"/>
<path d="M252.448 16.355H249.893V420.071H252.448V16.355Z" fill="white"/>
<path d="M252.448 16.355H249.893V420.071H252.448V16.355Z" fill="url(#paint76_linear_2632_26423)"/>
<path d="M262.761 14.0781H260.205V417.805H262.761V14.0781Z" fill="white"/>
<path d="M262.761 14.0781H260.205V417.805H262.761V14.0781Z" fill="url(#paint77_linear_2632_26423)"/>
<path fill-rule="evenodd" clip-rule="evenodd" d="M217.498 31.2097L251.08 23.9191L260.205 25.1949L260.296 21.9141L315.413 10.0669L315.961 12.5275L262.851 24.0102L262.76 28.1112L251.171 26.5619L218.046 33.6703L217.498 31.2097Z" fill="white"/>
<path fill-rule="evenodd" clip-rule="evenodd" d="M217.498 31.2097L251.08 23.9191L260.205 25.1949L260.296 21.9141L315.413 10.0669L315.961 12.5275L262.851 24.0102L262.76 28.1112L251.171 26.5619L218.046 33.6703L217.498 31.2097Z" fill="url(#paint78_linear_2632_26423)"/>
<path fill-rule="evenodd" clip-rule="evenodd" d="M217.498 22.3701L251.08 15.0795L260.205 16.3554L260.296 13.0746L315.413 1.13623L315.961 3.68794L262.851 15.1707L262.76 19.2716L251.171 17.7224L218.046 24.8307L217.498 22.3701Z" fill="white"/>
<path fill-rule="evenodd" clip-rule="evenodd" d="M217.498 22.3701L251.08 15.0795L260.205 16.3554L260.296 13.0746L315.413 1.13623L315.961 3.68794L262.851 15.1707L262.76 19.2716L251.171 17.7224L218.046 24.8307L217.498 22.3701Z" fill="url(#paint79_linear_2632_26423)"/>
<path fill-rule="evenodd" clip-rule="evenodd" d="M316.965 0.863281V415.823H327.277V5.32015L316.965 0.863281Z" fill="white"/>
<path fill-rule="evenodd" clip-rule="evenodd" d="M316.965 0.863281V415.823H327.277V5.32015L316.965 0.863281Z" fill="url(#paint80_linear_2632_26423)"/>
<path fill-rule="evenodd" clip-rule="evenodd" d="M285.574 40.567V40.6244L262.85 45.489L262.759 47.9496V51.686L286.145 46.6993V46.6413L314.41 40.567V34.2788L285.574 40.567ZM219.051 61.1639L249.894 54.5112V48.223L219.051 54.8757V61.1639ZM260.809 56.2413L250.106 54.6897V48.4015L260.809 49.9531V56.2413ZM217.498 75.106L251.08 67.8154L260.205 69.0913L260.296 65.8105L315.413 53.9633L315.961 56.4238L262.851 67.9066L262.76 72.0075L251.171 70.4583L218.046 77.5666L217.498 75.106ZM217.498 83.9469L251.08 76.6563L260.205 77.9322L260.296 74.6514L315.413 62.8042L315.961 65.3559L262.851 76.7475L262.76 80.9396L251.171 79.2992L218.046 86.4987L217.498 83.9469Z" fill="white"/>
<path fill-rule="evenodd" clip-rule="evenodd" d="M285.574 40.567V40.6244L262.85 45.489L262.759 47.9496V51.686L286.145 46.6993V46.6413L314.41 40.567V34.2788L285.574 40.567ZM219.051 61.1639L249.894 54.5112V48.223L219.051 54.8757V61.1639ZM260.809 56.2413L250.106 54.6897V48.4015L260.809 49.9531V56.2413ZM217.498 75.106L251.08 67.8154L260.205 69.0913L260.296 65.8105L315.413 53.9633L315.961 56.4238L262.851 67.9066L262.76 72.0075L251.171 70.4583L218.046 77.5666L217.498 75.106ZM217.498 83.9469L251.08 76.6563L260.205 77.9322L260.296 74.6514L315.413 62.8042L315.961 65.3559L262.851 76.7475L262.76 80.9396L251.171 79.2992L218.046 86.4987L217.498 83.9469Z" fill="url(#paint81_linear_2632_26423)"/>
<path fill-rule="evenodd" clip-rule="evenodd" d="M285.574 251.344V251.402L262.85 256.267L262.759 258.727V262.464L286.145 257.477V257.418L314.41 251.344V245.056L285.574 251.344ZM219.051 271.941L249.894 265.288V259L219.051 265.653V271.941ZM260.809 267.019L250.106 265.467V259.179L260.809 260.731V267.019ZM217.498 285.883L251.08 278.593L260.205 279.869L260.296 276.588L315.413 264.741L315.961 267.201L262.851 278.684L262.76 282.785L251.171 281.236L218.046 288.344L217.498 285.883ZM217.498 294.724L251.08 287.433L260.205 288.709L260.296 285.428L315.413 273.581L315.961 276.133L262.851 287.524L262.76 291.717L251.171 290.076L218.046 297.276L217.498 294.724Z" fill="white"/>
<path fill-rule="evenodd" clip-rule="evenodd" d="M285.574 251.344V251.402L262.85 256.267L262.759 258.727V262.464L286.145 257.477V257.418L314.41 251.344V245.056L285.574 251.344ZM219.051 271.941L249.894 265.288V259L219.051 265.653V271.941ZM260.809 267.019L250.106 265.467V259.179L260.809 260.731V267.019ZM217.498 285.883L251.08 278.593L260.205 279.869L260.296 276.588L315.413 264.741L315.961 267.201L262.851 278.684L262.76 282.785L251.171 281.236L218.046 288.344L217.498 285.883ZM217.498 294.724L251.08 287.433L260.205 288.709L260.296 285.428L315.413 273.581L315.961 276.133L262.851 287.524L262.76 291.717L251.171 290.076L218.046 297.276L217.498 294.724Z" fill="url(#paint82_linear_2632_26423)"/>
<path fill-rule="evenodd" clip-rule="evenodd" d="M285.574 145.053V145.11L262.85 149.975L262.759 152.436V156.172L286.145 151.185V151.127L314.41 145.053V138.765L285.574 145.053ZM219.051 165.649L249.894 158.997V152.708L219.051 159.361V165.649ZM260.809 160.729L250.106 159.177V152.889L260.809 154.441V160.729ZM217.498 179.593L251.08 172.302L260.205 173.578L260.296 170.297L315.413 158.45L315.961 160.911L262.851 172.394L262.76 176.494L251.171 174.945L218.046 182.054L217.498 179.593ZM217.498 188.434L251.08 181.143L260.205 182.419L260.296 179.138L315.413 167.291L315.961 169.842L262.851 181.234L262.76 185.426L251.171 183.786L218.046 190.985L217.498 188.434Z" fill="white"/>
<path fill-rule="evenodd" clip-rule="evenodd" d="M285.574 145.053V145.11L262.85 149.975L262.759 152.436V156.172L286.145 151.185V151.127L314.41 145.053V138.765L285.574 145.053ZM219.051 165.649L249.894 158.997V152.708L219.051 159.361V165.649ZM260.809 160.729L250.106 159.177V152.889L260.809 154.441V160.729ZM217.498 179.593L251.08 172.302L260.205 173.578L260.296 170.297L315.413 158.45L315.961 160.911L262.851 172.394L262.76 176.494L251.171 174.945L218.046 182.054L217.498 179.593ZM217.498 188.434L251.08 181.143L260.205 182.419L260.296 179.138L315.413 167.291L315.961 169.842L262.851 181.234L262.76 185.426L251.171 183.786L218.046 190.985L217.498 188.434Z" fill="url(#paint83_linear_2632_26423)"/>
<path fill-rule="evenodd" clip-rule="evenodd" d="M285.574 355.83V355.888L262.85 360.752L262.759 363.213V366.949L286.145 361.963V361.905L314.41 355.83V349.542L285.574 355.83ZM219.051 376.427L249.894 369.775V363.486L219.051 370.139V376.427ZM260.809 371.506L250.106 369.954V363.666L260.809 365.218V371.506ZM217.498 390.369L251.08 383.079L260.205 384.355L260.296 381.074L315.413 369.227L315.961 371.687L262.851 383.17L262.76 387.271L251.171 385.722L218.046 392.83L217.498 390.369ZM217.498 399.211L251.08 391.921L260.205 393.197L260.296 389.916L315.413 378.069L315.961 380.62L262.851 392.012L262.76 396.204L251.171 394.564L218.046 401.763L217.498 399.211Z" fill="white"/>
<path fill-rule="evenodd" clip-rule="evenodd" d="M285.574 355.83V355.888L262.85 360.752L262.759 363.213V366.949L286.145 361.963V361.905L314.41 355.83V349.542L285.574 355.83ZM219.051 376.427L249.894 369.775V363.486L219.051 370.139V376.427ZM260.809 371.506L250.106 369.954V363.666L260.809 365.218V371.506ZM217.498 390.369L251.08 383.079L260.205 384.355L260.296 381.074L315.413 369.227L315.961 371.687L262.851 383.17L262.76 387.271L251.171 385.722L218.046 392.83L217.498 390.369ZM217.498 399.211L251.08 391.921L260.205 393.197L260.296 389.916L315.413 378.069L315.961 380.62L262.851 392.012L262.76 396.204L251.171 394.564L218.046 401.763L217.498 399.211Z" fill="url(#paint84_linear_2632_26423)"/>
<path fill-rule="evenodd" clip-rule="evenodd" d="M249.894 423.182L219.051 429.835V423.547L249.894 416.894V423.182ZM217.498 443.777L251.08 436.487L251.171 439.13L218.046 446.238L217.498 443.777ZM217.498 452.329L251.08 445.039L251.171 447.682L218.046 454.79L217.498 452.329Z" fill="white"/>
<path fill-rule="evenodd" clip-rule="evenodd" d="M249.894 423.182L219.051 429.835V423.547L249.894 416.894V423.182ZM217.498 443.777L251.08 436.487L251.171 439.13L218.046 446.238L217.498 443.777ZM217.498 452.329L251.08 445.039L251.171 447.682L218.046 454.79L217.498 452.329Z" fill="url(#paint85_linear_2632_26423)"/>
<path fill-rule="evenodd" clip-rule="evenodd" d="M249.894 523.79L219.051 530.442V524.154L249.894 517.501V523.79ZM217.498 544.384L251.08 537.094L251.171 539.737L218.046 546.845L217.498 544.384ZM217.498 552.937L251.08 545.646L251.171 548.289L218.046 555.397L217.498 552.937Z" fill="white"/>
<path fill-rule="evenodd" clip-rule="evenodd" d="M249.894 523.79L219.051 530.442V524.154L249.894 517.501V523.79ZM217.498 544.384L251.08 537.094L251.171 539.737L218.046 546.845L217.498 544.384ZM217.498 552.937L251.08 545.646L251.171 548.289L218.046 555.397L217.498 552.937Z" fill="url(#paint86_linear_2632_26423)"/>
<path fill-rule="evenodd" clip-rule="evenodd" d="M249.894 472.441L219.051 479.094V472.806L249.894 466.153V472.441ZM217.498 493.037L251.08 485.746L251.171 488.389L218.046 495.497L217.498 493.037ZM217.498 501.589L251.08 494.298L251.171 496.941L218.046 504.049L217.498 501.589Z" fill="white"/>
<path fill-rule="evenodd" clip-rule="evenodd" d="M249.894 472.441L219.051 479.094V472.806L249.894 466.153V472.441ZM217.498 493.037L251.08 485.746L251.171 488.389L218.046 495.497L217.498 493.037ZM217.498 501.589L251.08 494.298L251.171 496.941L218.046 504.049L217.498 501.589Z" fill="url(#paint87_linear_2632_26423)"/>
<path fill-rule="evenodd" clip-rule="evenodd" d="M249.894 573.048L219.051 579.701V573.413L249.894 566.76V573.048ZM217.498 593.644L251.08 586.353L251.171 588.996L218.046 596.104L217.498 593.644ZM217.498 602.196L251.08 594.905L251.171 597.548L218.046 604.656L217.498 602.196Z" fill="white"/>
<path fill-rule="evenodd" clip-rule="evenodd" d="M249.894 573.048L219.051 579.701V573.413L249.894 566.76V573.048ZM217.498 593.644L251.08 586.353L251.171 588.996L218.046 596.104L217.498 593.644ZM217.498 602.196L251.08 594.905L251.171 597.548L218.046 604.656L217.498 602.196Z" fill="url(#paint88_linear_2632_26423)"/>
<path fill-rule="evenodd" clip-rule="evenodd" d="M285.574 92.7867V92.8449L262.85 97.7096L262.759 100.17V103.907L286.145 98.9198V98.8611L314.41 92.7867V86.4985L285.574 92.7867ZM219.051 113.383L249.894 106.731V100.443L219.051 107.095V113.383ZM260.809 108.463L250.106 106.911V100.623L260.809 102.175V108.463ZM217.498 127.327L251.08 120.036L260.205 121.312L260.296 118.031L315.413 106.184L315.961 108.644L262.851 120.127L262.76 124.228L251.171 122.679L218.046 129.787L217.498 127.327ZM217.498 136.169L251.08 128.878L260.205 130.154L260.296 126.873L315.413 115.026L315.961 117.578L262.851 128.969L262.76 133.161L251.171 131.521L218.046 138.721L217.498 136.169Z" fill="white"/>
<path fill-rule="evenodd" clip-rule="evenodd" d="M285.574 92.7867V92.8449L262.85 97.7096L262.759 100.17V103.907L286.145 98.9198V98.8611L314.41 92.7867V86.4985L285.574 92.7867ZM219.051 113.383L249.894 106.731V100.443L219.051 107.095V113.383ZM260.809 108.463L250.106 106.911V100.623L260.809 102.175V108.463ZM217.498 127.327L251.08 120.036L260.205 121.312L260.296 118.031L315.413 106.184L315.961 108.644L262.851 120.127L262.76 124.228L251.171 122.679L218.046 129.787L217.498 127.327ZM217.498 136.169L251.08 128.878L260.205 130.154L260.296 126.873L315.413 115.026L315.961 117.578L262.851 128.969L262.76 133.161L251.171 131.521L218.046 138.721L217.498 136.169Z" fill="url(#paint89_linear_2632_26423)"/>
<path fill-rule="evenodd" clip-rule="evenodd" d="M285.574 303.566V303.622L262.85 308.486L262.759 310.947V314.684L286.145 309.697V309.64L314.41 303.566V297.277L285.574 303.566ZM219.051 324.162L249.894 317.51V311.221L219.051 317.874V324.162ZM260.809 319.24L250.106 317.689V311.4L260.809 312.952V319.24ZM217.498 338.104L251.08 330.814L260.205 332.09L260.296 328.809L315.413 316.962L315.961 319.422L262.851 330.905L262.76 335.006L251.171 333.457L218.046 340.565L217.498 338.104ZM217.498 346.945L251.08 339.655L260.205 340.931L260.296 337.65L315.413 325.802L315.961 328.354L262.851 339.746L262.76 343.938L251.171 342.298L218.046 349.497L217.498 346.945Z" fill="white"/>
<path fill-rule="evenodd" clip-rule="evenodd" d="M285.574 303.566V303.622L262.85 308.486L262.759 310.947V314.684L286.145 309.697V309.64L314.41 303.566V297.277L285.574 303.566ZM219.051 324.162L249.894 317.51V311.221L219.051 317.874V324.162ZM260.809 319.24L250.106 317.689V311.4L260.809 312.952V319.24ZM217.498 338.104L251.08 330.814L260.205 332.09L260.296 328.809L315.413 316.962L315.961 319.422L262.851 330.905L262.76 335.006L251.171 333.457L218.046 340.565L217.498 338.104ZM217.498 346.945L251.08 339.655L260.205 340.931L260.296 337.65L315.413 325.802L315.961 328.354L262.851 339.746L262.76 343.938L251.171 342.298L218.046 349.497L217.498 346.945Z" fill="url(#paint90_linear_2632_26423)"/>
<path fill-rule="evenodd" clip-rule="evenodd" d="M285.574 197.275V197.332L262.85 202.197L262.759 204.657V208.394L286.145 203.407V203.349L314.41 197.275V190.987L285.574 197.275ZM219.051 217.872L249.894 211.219V204.931L219.051 211.584V217.872ZM260.809 212.95L250.106 211.398V205.11L260.809 206.662V212.95ZM217.498 231.814L251.08 224.523L260.205 225.799L260.296 222.518L315.413 210.671L315.961 213.132L262.851 224.615L262.76 228.716L251.171 227.166L218.046 234.275L217.498 231.814ZM217.498 240.654L251.08 233.364L260.205 234.64L260.296 231.359L315.413 219.512L315.961 222.063L262.851 233.455L262.76 237.647L251.171 236.007L218.046 243.206L217.498 240.654Z" fill="white"/>
<path fill-rule="evenodd" clip-rule="evenodd" d="M285.574 197.275V197.332L262.85 202.197L262.759 204.657V208.394L286.145 203.407V203.349L314.41 197.275V190.987L285.574 197.275ZM219.051 217.872L249.894 211.219V204.931L219.051 211.584V217.872ZM260.809 212.95L250.106 211.398V205.11L260.809 206.662V212.95ZM217.498 231.814L251.08 224.523L260.205 225.799L260.296 222.518L315.413 210.671L315.961 213.132L262.851 224.615L262.76 228.716L251.171 227.166L218.046 234.275L217.498 231.814ZM217.498 240.654L251.08 233.364L260.205 234.64L260.296 231.359L315.413 219.512L315.961 222.063L262.851 233.455L262.76 237.647L251.171 236.007L218.046 243.206L217.498 240.654Z" fill="url(#paint91_linear_2632_26423)"/>
<path fill-rule="evenodd" clip-rule="evenodd" d="M552.78 195.235H447.898V200.066H552.78V195.235ZM552.78 211.365H447.898V216.196H552.78V211.365ZM447.898 227.039H552.78V231.87H447.898V227.039ZM552.78 242.897H447.898V247.727H552.78V242.897ZM447.898 258.846H552.78V263.676H447.898V258.846ZM552.78 273.882H496.536V278.713H552.78V273.882ZM496.536 290.012H552.78V294.843H496.536V290.012ZM552.78 305.687H496.536V310.518H552.78V305.687ZM496.536 321.546H552.78V326.376H496.536V321.546ZM552.78 337.493H496.536V342.324H552.78V337.493ZM496.536 353.443H552.78V358.273H496.536V353.443ZM552.78 369.482H496.536V374.312H552.78V369.482ZM496.536 385.247H552.78V390.077H496.536V385.247ZM552.78 401.103H496.536V405.933H552.78V401.103ZM496.536 417.053H552.78V421.884H496.536V417.053ZM552.78 432.089H496.536V436.919H552.78V432.089ZM496.536 448.129H552.78V452.96H496.536V448.129ZM552.78 463.893H496.536V468.724H552.78V463.893ZM496.536 479.75H552.78V484.581H496.536V479.75ZM552.78 495.7H496.536V500.53H552.78V495.7ZM496.536 511.009H552.78V515.84H496.536V511.009ZM552.78 527.14H496.536V531.971H552.78V527.14ZM496.536 542.815H552.78V547.646H496.536V542.815ZM552.78 558.672H496.536V563.502H552.78V558.672ZM496.536 574.619H552.78V579.449H496.536V574.619ZM552.78 589.656H496.536V594.487H552.78V589.656ZM496.536 605.787H552.78V610.618H496.536V605.787ZM552.78 621.462H496.536V626.293H552.78V621.462ZM496.536 637.32H552.78V642.15H496.536V637.32ZM552.78 653.268H496.536V658.099H552.78V653.268ZM496.536 669.398H552.78V674.229H496.536V669.398ZM552.78 685.528H496.536V690.359H552.78V685.528ZM496.536 701.204H552.78V706.035H496.536V701.204Z" fill="white"/>
<path fill-rule="evenodd" clip-rule="evenodd" d="M552.78 195.235H447.898V200.066H552.78V195.235ZM552.78 211.365H447.898V216.196H552.78V211.365ZM447.898 227.039H552.78V231.87H447.898V227.039ZM552.78 242.897H447.898V247.727H552.78V242.897ZM447.898 258.846H552.78V263.676H447.898V258.846ZM552.78 273.882H496.536V278.713H552.78V273.882ZM496.536 290.012H552.78V294.843H496.536V290.012ZM552.78 305.687H496.536V310.518H552.78V305.687ZM496.536 321.546H552.78V326.376H496.536V321.546ZM552.78 337.493H496.536V342.324H552.78V337.493ZM496.536 353.443H552.78V358.273H496.536V353.443ZM552.78 369.482H496.536V374.312H552.78V369.482ZM496.536 385.247H552.78V390.077H496.536V385.247ZM552.78 401.103H496.536V405.933H552.78V401.103ZM496.536 417.053H552.78V421.884H496.536V417.053ZM552.78 432.089H496.536V436.919H552.78V432.089ZM496.536 448.129H552.78V452.96H496.536V448.129ZM552.78 463.893H496.536V468.724H552.78V463.893ZM496.536 479.75H552.78V484.581H496.536V479.75ZM552.78 495.7H496.536V500.53H552.78V495.7ZM496.536 511.009H552.78V515.84H496.536V511.009ZM552.78 527.14H496.536V531.971H552.78V527.14ZM496.536 542.815H552.78V547.646H496.536V542.815ZM552.78 558.672H496.536V563.502H552.78V558.672ZM496.536 574.619H552.78V579.449H496.536V574.619ZM552.78 589.656H496.536V594.487H552.78V589.656ZM496.536 605.787H552.78V610.618H496.536V605.787ZM552.78 621.462H496.536V626.293H552.78V621.462ZM496.536 637.32H552.78V642.15H496.536V637.32ZM552.78 653.268H496.536V658.099H552.78V653.268ZM496.536 669.398H552.78V674.229H496.536V669.398ZM552.78 685.528H496.536V690.359H552.78V685.528ZM496.536 701.204H552.78V706.035H496.536V701.204Z" fill="url(#paint92_linear_2632_26423)"/>
<path d="M160.206 686.718H120.206V715.679H160.206V686.718Z" fill="white"/>
<path d="M160.206 686.718H120.206V715.679H160.206V686.718Z" fill="url(#paint93_linear_2632_26423)"/>
<path d="M110.206 686.718H70.2062V715.679H110.206V686.718Z" fill="white"/>
<path d="M110.206 686.718H70.2062V715.679H110.206V686.718Z" fill="url(#paint94_linear_2632_26423)"/>
<path d="M110.206 649.766H70.2062V678.728H110.206V649.766Z" fill="white"/>
<path d="M110.206 649.766H70.2062V678.728H110.206V649.766Z" fill="url(#paint95_linear_2632_26423)"/>
<path d="M160.206 649.766H120.206V678.728H160.206V649.766Z" fill="white"/>
<path d="M160.206 649.766H120.206V678.728H160.206V649.766Z" fill="url(#paint96_linear_2632_26423)"/>
<path d="M210.206 649.766H170.206V678.728H210.206V649.766Z" fill="white"/>
<path d="M210.206 649.766H170.206V678.728H210.206V649.766Z" fill="url(#paint97_linear_2632_26423)"/>
<path d="M260.205 649.766H220.205V678.728H260.205V649.766Z" fill="white"/>
<path d="M260.205 649.766H220.205V678.728H260.205V649.766Z" fill="url(#paint98_linear_2632_26423)"/>
<path d="M210.206 686.718H170.206V715.679H210.206V686.718Z" fill="white"/>
<path d="M210.206 686.718H170.206V715.679H210.206V686.718Z" fill="url(#paint99_linear_2632_26423)"/>
<path d="M260.205 686.718H220.205V715.679H260.205V686.718Z" fill="white"/>
<path d="M260.205 686.718H220.205V715.679H260.205V686.718Z" fill="url(#paint100_linear_2632_26423)"/>
<path fill-rule="evenodd" clip-rule="evenodd" d="M993.883 614.492L982.933 622.42H1023.63L1034.58 614.492H993.883Z" fill="white"/>
<path fill-rule="evenodd" clip-rule="evenodd" d="M993.883 614.492L982.933 622.42H1023.63L1034.58 614.492H993.883Z" fill="url(#paint101_linear_2632_26423)"/>
<path fill-rule="evenodd" clip-rule="evenodd" d="M1038.96 614.492L1028.01 622.42H1059.04L1072.82 614.492H1038.96Z" fill="white"/>
<path fill-rule="evenodd" clip-rule="evenodd" d="M1038.96 614.492L1028.01 622.42H1059.04L1072.82 614.492H1038.96Z" fill="url(#paint102_linear_2632_26423)"/>
<path fill-rule="evenodd" clip-rule="evenodd" d="M1054.57 625.062H1024.45L1013.5 632.991H1040.79L1054.57 625.062Z" fill="white"/>
<path fill-rule="evenodd" clip-rule="evenodd" d="M1054.57 625.062H1024.45L1013.5 632.991H1040.79L1054.57 625.062Z" fill="url(#paint103_linear_2632_26423)"/>
<path fill-rule="evenodd" clip-rule="evenodd" d="M1009.03 632.991L1020.07 625.062H979.374L968.423 632.991H1009.03Z" fill="white"/>
<path fill-rule="evenodd" clip-rule="evenodd" d="M1009.03 632.991L1020.07 625.062H979.374L968.423 632.991H1009.03Z" fill="url(#paint104_linear_2632_26423)"/>
<path fill-rule="evenodd" clip-rule="evenodd" d="M266.9 632.992L305.408 611.134L108.066 610.648L55.7068 632.992L266.9 632.992Z" fill="white"/>
<path fill-rule="evenodd" clip-rule="evenodd" d="M266.9 632.992L305.408 611.134L108.066 610.648L55.7068 632.992L266.9 632.992Z" fill="url(#paint105_linear_2632_26423)"/>
<path fill-rule="evenodd" clip-rule="evenodd" d="M302.64 734.968V615.402L267.69 635.542H58.1714V734.968H55.6162V632.991H267.051L305.195 610.937V734.968H302.64Z" fill="white"/>
<path fill-rule="evenodd" clip-rule="evenodd" d="M302.64 734.968V615.402L267.69 635.542H58.1714V734.968H55.6162V632.991H267.051L305.195 610.937V734.968H302.64Z" fill="url(#paint106_linear_2632_26423)"/>
<path fill-rule="evenodd" clip-rule="evenodd" d="M766.935 596.117V449.267H803.162V388.39H779.619H778.433H752.334V596.117H766.935Z" fill="white"/>
<path fill-rule="evenodd" clip-rule="evenodd" d="M766.935 596.117V449.267H803.162V388.39H779.619H778.433H752.334V596.117H766.935Z" fill="url(#paint107_linear_2632_26423)"/>
<path fill-rule="evenodd" clip-rule="evenodd" d="M202.782 615.708V299.588L158.615 256.91L120.836 302.423V617.249H123.391V303.152L157.611 262.925L200.227 303.856V615.708H202.782Z" fill="white"/>
<path fill-rule="evenodd" clip-rule="evenodd" d="M202.782 615.708V299.588L158.615 256.91L120.836 302.423V617.249H123.391V303.152L157.611 262.925L200.227 303.856V615.708H202.782Z" fill="url(#paint108_linear_2632_26423)"/>
<path fill-rule="evenodd" clip-rule="evenodd" d="M149.971 272.145V615.454H155.172V266.153L149.971 272.145ZM129.256 296.114V618.45L134.458 616.453V289.123L129.256 296.114ZM139.659 284.129V615.454H144.861V276.14L139.659 284.129Z" fill="white"/>
<path fill-rule="evenodd" clip-rule="evenodd" d="M149.971 272.145V615.454H155.172V266.153L149.971 272.145ZM129.256 296.114V618.45L134.458 616.453V289.123L129.256 296.114ZM139.659 284.129V615.454H144.861V276.14L139.659 284.129Z" fill="url(#paint109_linear_2632_26423)"/>
<path fill-rule="evenodd" clip-rule="evenodd" d="M161.261 612.435V258.599L200.226 295.199V612.435C192.652 612.435 168.835 612.435 161.261 612.435Z" fill="white"/>
<path fill-rule="evenodd" clip-rule="evenodd" d="M161.261 612.435V258.599L200.226 295.199V612.435C192.652 612.435 168.835 612.435 161.261 612.435Z" fill="url(#paint110_linear_2632_26423)"/>
<path fill-rule="evenodd" clip-rule="evenodd" d="M1509.66 642.924C1511.31 644.383 1512.58 646.114 1513.5 647.937C1514.5 650.033 1515.14 652.22 1515.14 654.589C1515.14 657.87 1514.04 660.878 1512.13 663.429C1510.39 665.799 1507.93 667.895 1505.01 669.353V669.809C1505.01 673.089 1502.36 675.915 1498.17 677.919C1495.26 679.271 1491.54 680.272 1487.4 680.699V736.244H1478.36V680.69C1474.25 680.258 1470.55 679.262 1467.6 677.919C1463.4 675.915 1460.75 673.089 1460.75 669.809V669.718C1455.73 668.168 1451.26 664.523 1448.07 659.511C1444.78 654.316 1442.77 647.755 1442.77 640.555C1442.77 632.535 1445.24 625.154 1449.35 619.777C1453.27 614.582 1458.65 611.21 1464.58 610.664C1465.86 604.193 1468.23 598.543 1471.25 594.442C1474.53 590.159 1478.64 587.607 1483.2 587.607C1487.49 587.607 1491.32 589.885 1494.52 593.713C1497.62 597.449 1499.99 602.644 1501.36 608.75C1504.28 610.39 1506.74 613.397 1508.57 617.225C1510.39 621.144 1511.4 625.974 1511.4 631.26C1511.4 633.538 1511.22 635.725 1510.85 637.73C1510.67 639.553 1510.21 641.284 1509.66 642.924ZM1511.93 650.704C1512.31 651.86 1512.49 653.088 1512.49 654.316C1512.49 657.05 1511.58 659.51 1510.03 661.698C1508.39 664.067 1506.01 665.981 1503.09 667.257L1502.09 667.712L1502.36 668.715C1502.36 668.822 1502.4 668.928 1502.42 669.017C1502.44 669.079 1502.45 669.133 1502.45 669.17V669.626C1502.45 671.813 1500.36 673.909 1497.07 675.459C1493.51 677.099 1488.49 678.193 1482.93 678.193C1477.36 678.193 1472.43 677.19 1468.78 675.459C1467.23 674.746 1465.96 673.917 1465.05 673.017C1465.97 673.952 1467.27 674.813 1468.87 675.55C1472.52 677.282 1477.45 678.284 1483.02 678.284C1488.58 678.284 1493.6 677.19 1497.16 675.55C1500.45 674.001 1502.55 671.905 1502.55 669.718V669.262C1502.55 669.224 1502.53 669.171 1502.51 669.108C1502.49 669.02 1502.45 668.913 1502.45 668.806L1502.18 667.804L1503.18 667.348C1506.1 666.072 1508.48 664.158 1510.12 661.789C1511.67 659.602 1512.58 657.141 1512.58 654.407C1512.58 653.21 1512.37 651.925 1511.93 650.704ZM1463.75 667.779L1463.76 667.712L1462.58 667.439C1459.28 666.647 1456.32 664.839 1453.79 662.312C1456.34 664.886 1459.34 666.729 1462.67 667.53L1463.75 667.779ZM1506.62 643.678L1506.93 642.924C1507.57 641.284 1508.11 639.37 1508.48 637.365C1508.84 635.452 1509.03 633.447 1509.03 631.351C1509.03 626.521 1508.02 622.055 1506.38 618.41C1505.35 616.192 1504.08 614.294 1502.65 612.87C1504.04 614.284 1505.28 616.148 1506.29 618.318C1507.93 621.964 1508.93 626.429 1508.93 631.259C1508.93 633.355 1508.75 635.451 1508.39 637.092C1508.02 639.097 1507.47 641.01 1506.84 642.651L1506.47 643.562L1506.62 643.678ZM1499.35 610.523L1499.26 609.934C1497.98 604.011 1495.7 598.907 1492.78 595.444C1492.37 594.955 1491.96 594.497 1491.53 594.07C1491.92 594.471 1492.31 594.899 1492.69 595.353C1495.61 598.816 1497.89 603.919 1499.17 609.843L1499.26 610.481L1499.35 610.523ZM1484.75 681.018H1480.92V733.692H1484.75V681.018Z" fill="white"/>
<path fill-rule="evenodd" clip-rule="evenodd" d="M1509.66 642.924C1511.31 644.383 1512.58 646.114 1513.5 647.937C1514.5 650.033 1515.14 652.22 1515.14 654.589C1515.14 657.87 1514.04 660.878 1512.13 663.429C1510.39 665.799 1507.93 667.895 1505.01 669.353V669.809C1505.01 673.089 1502.36 675.915 1498.17 677.919C1495.26 679.271 1491.54 680.272 1487.4 680.699V736.244H1478.36V680.69C1474.25 680.258 1470.55 679.262 1467.6 677.919C1463.4 675.915 1460.75 673.089 1460.75 669.809V669.718C1455.73 668.168 1451.26 664.523 1448.07 659.511C1444.78 654.316 1442.77 647.755 1442.77 640.555C1442.77 632.535 1445.24 625.154 1449.35 619.777C1453.27 614.582 1458.65 611.21 1464.58 610.664C1465.86 604.193 1468.23 598.543 1471.25 594.442C1474.53 590.159 1478.64 587.607 1483.2 587.607C1487.49 587.607 1491.32 589.885 1494.52 593.713C1497.62 597.449 1499.99 602.644 1501.36 608.75C1504.28 610.39 1506.74 613.397 1508.57 617.225C1510.39 621.144 1511.4 625.974 1511.4 631.26C1511.4 633.538 1511.22 635.725 1510.85 637.73C1510.67 639.553 1510.21 641.284 1509.66 642.924ZM1511.93 650.704C1512.31 651.86 1512.49 653.088 1512.49 654.316C1512.49 657.05 1511.58 659.51 1510.03 661.698C1508.39 664.067 1506.01 665.981 1503.09 667.257L1502.09 667.712L1502.36 668.715C1502.36 668.822 1502.4 668.928 1502.42 669.017C1502.44 669.079 1502.45 669.133 1502.45 669.17V669.626C1502.45 671.813 1500.36 673.909 1497.07 675.459C1493.51 677.099 1488.49 678.193 1482.93 678.193C1477.36 678.193 1472.43 677.19 1468.78 675.459C1467.23 674.746 1465.96 673.917 1465.05 673.017C1465.97 673.952 1467.27 674.813 1468.87 675.55C1472.52 677.282 1477.45 678.284 1483.02 678.284C1488.58 678.284 1493.6 677.19 1497.16 675.55C1500.45 674.001 1502.55 671.905 1502.55 669.718V669.262C1502.55 669.224 1502.53 669.171 1502.51 669.108C1502.49 669.02 1502.45 668.913 1502.45 668.806L1502.18 667.804L1503.18 667.348C1506.1 666.072 1508.48 664.158 1510.12 661.789C1511.67 659.602 1512.58 657.141 1512.58 654.407C1512.58 653.21 1512.37 651.925 1511.93 650.704ZM1463.75 667.779L1463.76 667.712L1462.58 667.439C1459.28 666.647 1456.32 664.839 1453.79 662.312C1456.34 664.886 1459.34 666.729 1462.67 667.53L1463.75 667.779ZM1506.62 643.678L1506.93 642.924C1507.57 641.284 1508.11 639.37 1508.48 637.365C1508.84 635.452 1509.03 633.447 1509.03 631.351C1509.03 626.521 1508.02 622.055 1506.38 618.41C1505.35 616.192 1504.08 614.294 1502.65 612.87C1504.04 614.284 1505.28 616.148 1506.29 618.318C1507.93 621.964 1508.93 626.429 1508.93 631.259C1508.93 633.355 1508.75 635.451 1508.39 637.092C1508.02 639.097 1507.47 641.01 1506.84 642.651L1506.47 643.562L1506.62 643.678ZM1499.35 610.523L1499.26 609.934C1497.98 604.011 1495.7 598.907 1492.78 595.444C1492.37 594.955 1491.96 594.497 1491.53 594.07C1491.92 594.471 1492.31 594.899 1492.69 595.353C1495.61 598.816 1497.89 603.919 1499.17 609.843L1499.26 610.481L1499.35 610.523ZM1484.75 681.018H1480.92V733.692H1484.75V681.018Z" fill="url(#paint111_linear_2632_26423)"/>
<path fill-rule="evenodd" clip-rule="evenodd" d="M1609.3 676.916C1610.3 677.736 1611.12 678.738 1611.67 679.832C1612.22 680.835 1612.49 682.019 1612.49 683.204C1612.49 684.101 1612.33 684.971 1612.02 685.784C1612.33 684.971 1612.49 684.102 1612.49 683.205C1612.49 682.02 1612.22 680.835 1611.67 679.833C1611.12 678.739 1610.3 677.737 1609.3 676.917L1608.57 676.37L1608.57 676.369L1609.3 676.916ZM1608.93 675.459C1609.3 674.456 1609.66 673.271 1609.85 671.996C1610.12 670.811 1610.21 669.535 1610.21 668.168C1610.21 665.161 1609.57 662.335 1608.57 660.057C1608.56 660.044 1608.56 660.031 1608.55 660.018C1608.56 660.031 1608.56 660.043 1608.57 660.056C1609.57 662.335 1610.21 665.16 1610.21 668.167C1610.21 669.534 1610.12 670.81 1609.85 671.995C1609.66 673.271 1609.3 674.455 1608.93 675.458L1608.93 675.459ZM1604.57 655.415C1604.56 655.413 1604.56 655.411 1604.55 655.409L1604.01 655.136L1603.91 654.498C1603.09 650.762 1601.63 647.572 1599.81 645.385C1598.17 643.38 1596.25 642.195 1594.15 642.195C1591.96 642.195 1589.86 643.471 1588.13 645.749C1587.31 646.799 1586.59 648.048 1585.98 649.454C1586.59 648.048 1587.31 646.799 1588.13 645.748C1589.86 643.47 1591.96 642.194 1594.15 642.194C1596.25 642.194 1598.17 643.379 1599.81 645.384C1601.63 647.571 1603.09 650.761 1603.91 654.497L1604.01 655.135L1604.55 655.409C1604.56 655.411 1604.56 655.413 1604.57 655.415ZM1583.93 656.867L1583.93 656.867H1582.83C1579.37 657.05 1576.26 658.964 1573.98 661.971C1573.17 663.037 1572.46 664.244 1571.88 665.562C1572.46 664.244 1573.17 663.037 1573.98 661.97C1576.26 658.963 1579.37 657.049 1582.84 656.867H1583.93ZM1605.85 693.634C1605.96 693.379 1606.01 693.122 1606.01 692.865V692.683C1605.92 692.683 1605.92 692.592 1605.92 692.5V692.5L1605.65 691.498L1605.65 691.498L1605.92 692.5V692.5C1605.92 692.591 1605.92 692.682 1606.01 692.682V692.864C1606.01 693.121 1605.96 693.378 1605.85 693.634ZM1614.04 678.738C1613.5 677.554 1612.68 676.551 1611.67 675.549C1612.04 674.546 1612.31 673.544 1612.49 672.45C1612.77 671.083 1612.86 669.625 1612.86 668.167C1612.86 664.704 1612.13 661.514 1611.03 658.963C1609.94 656.411 1608.3 654.497 1606.38 653.404C1605.47 649.485 1603.91 646.113 1601.91 643.744C1599.72 641.192 1597.16 639.643 1594.24 639.643C1591.14 639.643 1588.4 641.374 1586.21 644.29C1584.2 646.842 1582.74 650.487 1581.83 654.588C1578 655.044 1574.53 657.322 1571.98 660.603C1569.33 664.157 1567.69 668.987 1567.69 674.273C1567.69 679.012 1568.96 683.295 1571.15 686.758C1573.16 689.948 1575.99 692.317 1579.28 693.411C1579.37 695.598 1581.19 697.512 1583.93 698.788C1585.71 699.611 1587.97 700.259 1590.5 700.577V736.243H1597.25V700.615C1599.86 700.327 1602.19 699.696 1604.01 698.788C1606.93 697.421 1608.66 695.416 1608.66 693.137C1610.49 692.135 1612.04 690.859 1613.13 689.31C1614.41 687.578 1615.14 685.482 1615.14 683.295C1615.14 681.564 1614.77 680.105 1614.04 678.738ZM1593.97 700.793C1594.18 700.793 1594.4 700.79 1594.61 700.786V733.692H1593.06V700.778C1593.36 700.788 1593.66 700.793 1593.97 700.793Z" fill="white"/>
<path fill-rule="evenodd" clip-rule="evenodd" d="M1609.3 676.916C1610.3 677.736 1611.12 678.738 1611.67 679.832C1612.22 680.835 1612.49 682.019 1612.49 683.204C1612.49 684.101 1612.33 684.971 1612.02 685.784C1612.33 684.971 1612.49 684.102 1612.49 683.205C1612.49 682.02 1612.22 680.835 1611.67 679.833C1611.12 678.739 1610.3 677.737 1609.3 676.917L1608.57 676.37L1608.57 676.369L1609.3 676.916ZM1608.93 675.459C1609.3 674.456 1609.66 673.271 1609.85 671.996C1610.12 670.811 1610.21 669.535 1610.21 668.168C1610.21 665.161 1609.57 662.335 1608.57 660.057C1608.56 660.044 1608.56 660.031 1608.55 660.018C1608.56 660.031 1608.56 660.043 1608.57 660.056C1609.57 662.335 1610.21 665.16 1610.21 668.167C1610.21 669.534 1610.12 670.81 1609.85 671.995C1609.66 673.271 1609.3 674.455 1608.93 675.458L1608.93 675.459ZM1604.57 655.415C1604.56 655.413 1604.56 655.411 1604.55 655.409L1604.01 655.136L1603.91 654.498C1603.09 650.762 1601.63 647.572 1599.81 645.385C1598.17 643.38 1596.25 642.195 1594.15 642.195C1591.96 642.195 1589.86 643.471 1588.13 645.749C1587.31 646.799 1586.59 648.048 1585.98 649.454C1586.59 648.048 1587.31 646.799 1588.13 645.748C1589.86 643.47 1591.96 642.194 1594.15 642.194C1596.25 642.194 1598.17 643.379 1599.81 645.384C1601.63 647.571 1603.09 650.761 1603.91 654.497L1604.01 655.135L1604.55 655.409C1604.56 655.411 1604.56 655.413 1604.57 655.415ZM1583.93 656.867L1583.93 656.867H1582.83C1579.37 657.05 1576.26 658.964 1573.98 661.971C1573.17 663.037 1572.46 664.244 1571.88 665.562C1572.46 664.244 1573.17 663.037 1573.98 661.97C1576.26 658.963 1579.37 657.049 1582.84 656.867H1583.93ZM1605.85 693.634C1605.96 693.379 1606.01 693.122 1606.01 692.865V692.683C1605.92 692.683 1605.92 692.592 1605.92 692.5V692.5L1605.65 691.498L1605.65 691.498L1605.92 692.5V692.5C1605.92 692.591 1605.92 692.682 1606.01 692.682V692.864C1606.01 693.121 1605.96 693.378 1605.85 693.634ZM1614.04 678.738C1613.5 677.554 1612.68 676.551 1611.67 675.549C1612.04 674.546 1612.31 673.544 1612.49 672.45C1612.77 671.083 1612.86 669.625 1612.86 668.167C1612.86 664.704 1612.13 661.514 1611.03 658.963C1609.94 656.411 1608.3 654.497 1606.38 653.404C1605.47 649.485 1603.91 646.113 1601.91 643.744C1599.72 641.192 1597.16 639.643 1594.24 639.643C1591.14 639.643 1588.4 641.374 1586.21 644.29C1584.2 646.842 1582.74 650.487 1581.83 654.588C1578 655.044 1574.53 657.322 1571.98 660.603C1569.33 664.157 1567.69 668.987 1567.69 674.273C1567.69 679.012 1568.96 683.295 1571.15 686.758C1573.16 689.948 1575.99 692.317 1579.28 693.411C1579.37 695.598 1581.19 697.512 1583.93 698.788C1585.71 699.611 1587.97 700.259 1590.5 700.577V736.243H1597.25V700.615C1599.86 700.327 1602.19 699.696 1604.01 698.788C1606.93 697.421 1608.66 695.416 1608.66 693.137C1610.49 692.135 1612.04 690.859 1613.13 689.31C1614.41 687.578 1615.14 685.482 1615.14 683.295C1615.14 681.564 1614.77 680.105 1614.04 678.738ZM1593.97 700.793C1594.18 700.793 1594.4 700.79 1594.61 700.786V733.692H1593.06V700.778C1593.36 700.788 1593.66 700.793 1593.97 700.793Z" fill="url(#paint112_linear_2632_26423)"/>
<path fill-rule="evenodd" clip-rule="evenodd" d="M745.035 685.938H751.787V736.244H743.94V685.938H745.035ZM749.506 688.217H746.13V733.965H749.506V688.217Z" fill="white"/>
<path fill-rule="evenodd" clip-rule="evenodd" d="M745.035 685.938H751.787V736.244H743.94V685.938H745.035ZM749.506 688.217H746.13V733.965H749.506V688.217Z" fill="url(#paint113_linear_2632_26423)"/>
<path fill-rule="evenodd" clip-rule="evenodd" d="M1057.4 680.015C1056.39 680.926 1055.66 681.929 1055.02 683.022C1054.38 684.298 1054.02 685.574 1054.02 687.032C1054.02 688.946 1054.66 690.769 1055.84 692.409C1056.94 693.867 1058.4 695.052 1060.13 695.963C1060.13 696.054 1060.13 696.146 1060.13 696.237C1060.13 698.242 1061.68 699.973 1064.24 701.158C1066.61 702.251 1069.9 702.981 1073.46 702.981C1077.01 702.981 1080.3 702.251 1082.67 701.158C1085.23 699.973 1086.78 698.242 1086.78 696.237V696.146C1089.79 695.234 1092.53 693.047 1094.44 690.04C1096.45 686.941 1097.64 682.931 1097.64 678.648C1097.64 673.818 1096.18 669.353 1093.71 666.163C1091.34 663.064 1088.15 660.968 1084.5 660.695C1083.77 656.776 1082.31 653.404 1080.48 650.944C1078.47 648.392 1076.01 646.843 1073.27 646.843C1070.72 646.843 1068.35 648.21 1066.43 650.488C1064.6 652.675 1063.14 655.865 1062.32 659.51C1060.59 660.513 1059.04 662.335 1058.03 664.614C1056.94 666.983 1056.3 669.899 1056.3 673.089C1056.3 674.456 1056.39 675.732 1056.67 677.008C1056.76 678.01 1057.03 679.104 1057.4 680.015ZM1056.48 683.752C1057.03 682.658 1057.85 681.656 1058.86 680.835L1059.31 680.471L1059.13 679.924C1058.76 678.922 1058.4 677.828 1058.22 676.552C1058.03 675.367 1057.94 674.183 1057.94 672.907C1057.94 669.991 1058.49 667.257 1059.49 665.16C1060.5 662.973 1061.87 661.424 1063.42 660.604L1063.78 660.422L1063.87 660.057C1064.7 656.503 1066.06 653.404 1067.8 651.308C1069.44 649.303 1071.36 648.21 1073.46 648.21C1075.65 648.21 1077.74 649.486 1079.39 651.764C1081.21 654.133 1082.58 657.505 1083.22 661.424L1083.31 662.062H1083.95C1087.33 662.153 1090.34 664.067 1092.62 666.983C1094.9 669.991 1096.27 674.092 1096.27 678.557C1096.27 682.567 1095.17 686.303 1093.35 689.128C1091.52 692.045 1088.97 694.05 1085.96 694.779L1085.23 694.961L1085.41 695.69C1085.41 695.781 1085.41 695.872 1085.41 695.963C1085.41 696.054 1085.41 696.146 1085.41 696.237C1085.41 697.513 1084.13 698.788 1082.22 699.7C1080.03 700.702 1077.01 701.34 1073.64 701.34C1070.26 701.34 1067.25 700.702 1065.06 699.7C1063.05 698.788 1061.87 697.513 1061.87 696.237C1061.87 696.146 1061.87 696.054 1061.87 695.963C1061.87 695.872 1061.87 695.781 1061.96 695.69L1062.14 695.052L1061.59 694.779C1059.86 693.958 1058.4 692.865 1057.4 691.498C1056.48 690.222 1055.93 688.673 1055.93 687.032C1055.66 685.939 1055.94 684.754 1056.48 683.752Z" fill="white"/>
<path fill-rule="evenodd" clip-rule="evenodd" d="M1057.4 680.015C1056.39 680.926 1055.66 681.929 1055.02 683.022C1054.38 684.298 1054.02 685.574 1054.02 687.032C1054.02 688.946 1054.66 690.769 1055.84 692.409C1056.94 693.867 1058.4 695.052 1060.13 695.963C1060.13 696.054 1060.13 696.146 1060.13 696.237C1060.13 698.242 1061.68 699.973 1064.24 701.158C1066.61 702.251 1069.9 702.981 1073.46 702.981C1077.01 702.981 1080.3 702.251 1082.67 701.158C1085.23 699.973 1086.78 698.242 1086.78 696.237V696.146C1089.79 695.234 1092.53 693.047 1094.44 690.04C1096.45 686.941 1097.64 682.931 1097.64 678.648C1097.64 673.818 1096.18 669.353 1093.71 666.163C1091.34 663.064 1088.15 660.968 1084.5 660.695C1083.77 656.776 1082.31 653.404 1080.48 650.944C1078.47 648.392 1076.01 646.843 1073.27 646.843C1070.72 646.843 1068.35 648.21 1066.43 650.488C1064.6 652.675 1063.14 655.865 1062.32 659.51C1060.59 660.513 1059.04 662.335 1058.03 664.614C1056.94 666.983 1056.3 669.899 1056.3 673.089C1056.3 674.456 1056.39 675.732 1056.67 677.008C1056.76 678.01 1057.03 679.104 1057.4 680.015ZM1056.48 683.752C1057.03 682.658 1057.85 681.656 1058.86 680.835L1059.31 680.471L1059.13 679.924C1058.76 678.922 1058.4 677.828 1058.22 676.552C1058.03 675.367 1057.94 674.183 1057.94 672.907C1057.94 669.991 1058.49 667.257 1059.49 665.16C1060.5 662.973 1061.87 661.424 1063.42 660.604L1063.78 660.422L1063.87 660.057C1064.7 656.503 1066.06 653.404 1067.8 651.308C1069.44 649.303 1071.36 648.21 1073.46 648.21C1075.65 648.21 1077.74 649.486 1079.39 651.764C1081.21 654.133 1082.58 657.505 1083.22 661.424L1083.31 662.062H1083.95C1087.33 662.153 1090.34 664.067 1092.62 666.983C1094.9 669.991 1096.27 674.092 1096.27 678.557C1096.27 682.567 1095.17 686.303 1093.35 689.128C1091.52 692.045 1088.97 694.05 1085.96 694.779L1085.23 694.961L1085.41 695.69C1085.41 695.781 1085.41 695.872 1085.41 695.963C1085.41 696.054 1085.41 696.146 1085.41 696.237C1085.41 697.513 1084.13 698.788 1082.22 699.7C1080.03 700.702 1077.01 701.34 1073.64 701.34C1070.26 701.34 1067.25 700.702 1065.06 699.7C1063.05 698.788 1061.87 697.513 1061.87 696.237C1061.87 696.146 1061.87 696.054 1061.87 695.963C1061.87 695.872 1061.87 695.781 1061.96 695.69L1062.14 695.052L1061.59 694.779C1059.86 693.958 1058.4 692.865 1057.4 691.498C1056.48 690.222 1055.93 688.673 1055.93 687.032C1055.66 685.939 1055.94 684.754 1056.48 683.752Z" fill="url(#paint114_linear_2632_26423)"/>
<path fill-rule="evenodd" clip-rule="evenodd" d="M1075.46 701.433H1070.81V736.245H1076.29V701.433H1075.46ZM1072.36 702.982H1074.73V734.696H1072.36V702.982Z" fill="white"/>
<path fill-rule="evenodd" clip-rule="evenodd" d="M1075.46 701.433H1070.81V736.245H1076.29V701.433H1075.46ZM1072.36 702.982H1074.73V734.696H1072.36V702.982Z" fill="url(#paint115_linear_2632_26423)"/>
<path fill-rule="evenodd" clip-rule="evenodd" d="M1057.76 672.998C1057.76 670.082 1058.31 667.348 1059.31 665.252C1060.32 663.065 1061.68 661.515 1063.24 660.695L1063.6 660.513L1063.69 660.149C1064.51 656.594 1065.88 653.496 1067.62 651.4C1069.26 649.395 1071.18 648.301 1073.27 648.301C1075.46 648.301 1077.56 649.577 1079.21 651.855C1081.03 654.225 1082.4 657.597 1083.04 661.516L1083.13 662.153H1083.77C1087.14 662.245 1090.16 664.158 1092.44 667.075C1094.72 670.082 1096.09 674.183 1096.09 678.648C1096.09 682.658 1094.99 686.395 1093.17 689.22C1091.34 692.136 1088.79 694.141 1085.78 694.87L1085.05 695.052L1085.23 695.781C1085.23 695.873 1085.23 695.964 1085.23 696.055C1085.23 696.146 1085.23 696.237 1085.23 696.328C1085.23 697.604 1083.95 698.88 1082.03 699.791C1079.84 700.794 1076.83 701.432 1073.46 701.432C1070.08 701.432 1067.07 700.794 1064.88 699.791C1062.87 698.88 1061.68 697.604 1061.68 696.328C1061.68 696.237 1061.68 696.146 1061.68 696.055C1061.68 695.964 1061.68 695.873 1061.78 695.781L1061.96 695.143L1061.41 694.87C1059.68 694.05 1058.22 692.956 1057.21 691.589C1056.3 690.313 1055.75 688.764 1055.75 687.124C1055.75 685.939 1056.03 684.845 1056.57 683.843C1057.12 682.749 1057.94 681.747 1058.95 680.927L1059.4 680.562L1059.22 680.015C1058.86 679.013 1058.49 677.919 1058.31 676.644C1057.94 675.55 1057.76 674.274 1057.76 672.998Z" fill="white"/>
<path fill-rule="evenodd" clip-rule="evenodd" d="M1057.76 672.998C1057.76 670.082 1058.31 667.348 1059.31 665.252C1060.32 663.065 1061.68 661.515 1063.24 660.695L1063.6 660.513L1063.69 660.149C1064.51 656.594 1065.88 653.496 1067.62 651.4C1069.26 649.395 1071.18 648.301 1073.27 648.301C1075.46 648.301 1077.56 649.577 1079.21 651.855C1081.03 654.225 1082.4 657.597 1083.04 661.516L1083.13 662.153H1083.77C1087.14 662.245 1090.16 664.158 1092.44 667.075C1094.72 670.082 1096.09 674.183 1096.09 678.648C1096.09 682.658 1094.99 686.395 1093.17 689.22C1091.34 692.136 1088.79 694.141 1085.78 694.87L1085.05 695.052L1085.23 695.781C1085.23 695.873 1085.23 695.964 1085.23 696.055C1085.23 696.146 1085.23 696.237 1085.23 696.328C1085.23 697.604 1083.95 698.88 1082.03 699.791C1079.84 700.794 1076.83 701.432 1073.46 701.432C1070.08 701.432 1067.07 700.794 1064.88 699.791C1062.87 698.88 1061.68 697.604 1061.68 696.328C1061.68 696.237 1061.68 696.146 1061.68 696.055C1061.68 695.964 1061.68 695.873 1061.78 695.781L1061.96 695.143L1061.41 694.87C1059.68 694.05 1058.22 692.956 1057.21 691.589C1056.3 690.313 1055.75 688.764 1055.75 687.124C1055.75 685.939 1056.03 684.845 1056.57 683.843C1057.12 682.749 1057.94 681.747 1058.95 680.927L1059.4 680.562L1059.22 680.015C1058.86 679.013 1058.49 677.919 1058.31 676.644C1057.94 675.55 1057.76 674.274 1057.76 672.998Z" fill="url(#paint116_linear_2632_26423)"/>
<path fill-rule="evenodd" clip-rule="evenodd" d="M749.505 733.692V688.217H747.954H746.129V733.692H749.505Z" fill="white"/>
<path fill-rule="evenodd" clip-rule="evenodd" d="M749.505 733.692V688.217H747.954H746.129V733.692H749.505Z" fill="url(#paint117_linear_2632_26423)"/>
<path fill-rule="evenodd" clip-rule="evenodd" d="M1072.36 702.98V733.692H1074.73V702.98H1073.46H1072.36Z" fill="white"/>
<path fill-rule="evenodd" clip-rule="evenodd" d="M1072.36 702.98V733.692H1074.73V702.98H1073.46H1072.36Z" fill="url(#paint118_linear_2632_26423)"/>
<path fill-rule="evenodd" clip-rule="evenodd" d="M44.7581 733.692H99.5103V736.244H44.7581V733.692ZM149.7 733.692H181.182V736.244H149.7V733.692ZM195.327 733.692H670.028V736.244H195.327V733.692ZM714.834 733.692H910.573V736.244H714.834V733.692ZM958.938 733.692H985.401V736.244H958.938V733.692ZM1001.37 733.692H1205.14V736.244H1001.28V733.692H1001.37Z" fill="white"/>
<path fill-rule="evenodd" clip-rule="evenodd" d="M44.7581 733.692H99.5103V736.244H44.7581V733.692ZM149.7 733.692H181.182V736.244H149.7V733.692ZM195.327 733.692H670.028V736.244H195.327V733.692ZM714.834 733.692H910.573V736.244H714.834V733.692ZM958.938 733.692H985.401V736.244H958.938V733.692ZM1001.37 733.692H1205.14V736.244H1001.28V733.692H1001.37Z" fill="url(#paint119_linear_2632_26423)"/>
<defs>
<linearGradient id="paint0_linear_2632_26423" x1="714.111" y1="160.967" x2="714.111" y2="239.287" gradientUnits="userSpaceOnUse">
<stop stop-color="white"/>
<stop offset="1" stop-color="white" stop-opacity="0"/>
</linearGradient>
<linearGradient id="paint1_linear_2632_26423" x1="1547.96" y1="75.0156" x2="1547.96" y2="142.11" gradientUnits="userSpaceOnUse">
<stop stop-color="white"/>
<stop offset="1" stop-color="white" stop-opacity="0"/>
</linearGradient>
<linearGradient id="paint2_linear_2632_26423" x1="483.547" y1="302.271" x2="483.547" y2="736.244" gradientUnits="userSpaceOnUse">
<stop stop-color="white"/>
<stop offset="1" stop-color="white" stop-opacity="0"/>
</linearGradient>
<linearGradient id="paint3_linear_2632_26423" x1="479.122" y1="280.854" x2="479.122" y2="309.834" gradientUnits="userSpaceOnUse">
<stop stop-color="white"/>
<stop offset="1" stop-color="white" stop-opacity="0"/>
</linearGradient>
<linearGradient id="paint4_linear_2632_26423" x1="559.307" y1="194.916" x2="559.307" y2="736.244" gradientUnits="userSpaceOnUse">
<stop stop-color="white"/>
<stop offset="1" stop-color="white" stop-opacity="0"/>
</linearGradient>
<linearGradient id="paint5_linear_2632_26423" x1="574.253" y1="378.366" x2="574.253" y2="736.244" gradientUnits="userSpaceOnUse">
<stop stop-color="white"/>
<stop offset="1" stop-color="white" stop-opacity="0"/>
</linearGradient>
<linearGradient id="paint6_linear_2632_26423" x1="271.247" y1="415.823" x2="271.247" y2="734.97" gradientUnits="userSpaceOnUse">
<stop stop-color="white"/>
<stop offset="1" stop-color="white" stop-opacity="0"/>
</linearGradient>
<linearGradient id="paint7_linear_2632_26423" x1="363.047" y1="415.823" x2="363.047" y2="734.97" gradientUnits="userSpaceOnUse">
<stop stop-color="white"/>
<stop offset="1" stop-color="white" stop-opacity="0"/>
</linearGradient>
<linearGradient id="paint8_linear_2632_26423" x1="381.115" y1="416.548" x2="381.115" y2="733.325" gradientUnits="userSpaceOnUse">
<stop stop-color="white"/>
<stop offset="1" stop-color="white" stop-opacity="0"/>
</linearGradient>
<linearGradient id="paint9_linear_2632_26423" x1="324.63" y1="440.428" x2="324.63" y2="445.805" gradientUnits="userSpaceOnUse">
<stop stop-color="white"/>
<stop offset="1" stop-color="white" stop-opacity="0"/>
</linearGradient>
<linearGradient id="paint10_linear_2632_26423" x1="741.84" y1="200.931" x2="741.84" y2="575.305" gradientUnits="userSpaceOnUse">
<stop stop-color="white"/>
<stop offset="1" stop-color="white" stop-opacity="0"/>
</linearGradient>
<linearGradient id="paint11_linear_2632_26423" x1="717.338" y1="290.879" x2="717.338" y2="314.756" gradientUnits="userSpaceOnUse">
<stop stop-color="white"/>
<stop offset="1" stop-color="white" stop-opacity="0"/>
</linearGradient>
<linearGradient id="paint12_linear_2632_26423" x1="1133.91" y1="448.083" x2="1133.91" y2="492.101" gradientUnits="userSpaceOnUse">
<stop stop-color="white"/>
<stop offset="1" stop-color="white" stop-opacity="0"/>
</linearGradient>
<linearGradient id="paint13_linear_2632_26423" x1="1041.06" y1="634.266" x2="1041.06" y2="734.968" gradientUnits="userSpaceOnUse">
<stop stop-color="white"/>
<stop offset="1" stop-color="white" stop-opacity="0"/>
</linearGradient>
<linearGradient id="paint14_linear_2632_26423" x1="1121.32" y1="472.415" x2="1121.32" y2="735.059" gradientUnits="userSpaceOnUse">
<stop stop-color="white"/>
<stop offset="1" stop-color="white" stop-opacity="0"/>
</linearGradient>
<linearGradient id="paint15_linear_2632_26423" x1="864.729" y1="538.146" x2="864.729" y2="738" gradientUnits="userSpaceOnUse">
<stop stop-color="white"/>
<stop offset="1" stop-color="white" stop-opacity="0"/>
</linearGradient>
<linearGradient id="paint16_linear_2632_26423" x1="898.904" y1="538.146" x2="898.904" y2="630.281" gradientUnits="userSpaceOnUse">
<stop stop-color="white"/>
<stop offset="1" stop-color="white" stop-opacity="0"/>
</linearGradient>
<linearGradient id="paint17_linear_2632_26423" x1="1077.01" y1="536.391" x2="1077.01" y2="734.969" gradientUnits="userSpaceOnUse">
<stop stop-color="white"/>
<stop offset="1" stop-color="white" stop-opacity="0"/>
</linearGradient>
<linearGradient id="paint18_linear_2632_26423" x1="1170.55" y1="492.737" x2="1170.55" y2="735.059" gradientUnits="userSpaceOnUse">
<stop stop-color="white"/>
<stop offset="1" stop-color="white" stop-opacity="0"/>
</linearGradient>
<linearGradient id="paint19_linear_2632_26423" x1="1102.93" y1="536.572" x2="1102.93" y2="734.968" gradientUnits="userSpaceOnUse">
<stop stop-color="white"/>
<stop offset="1" stop-color="white" stop-opacity="0"/>
</linearGradient>
<linearGradient id="paint20_linear_2632_26423" x1="730.16" y1="575.305" x2="730.16" y2="734.97" gradientUnits="userSpaceOnUse">
<stop stop-color="white"/>
<stop offset="1" stop-color="white" stop-opacity="0"/>
</linearGradient>
<linearGradient id="paint21_linear_2632_26423" x1="852.212" y1="449.36" x2="852.212" y2="541.495" gradientUnits="userSpaceOnUse">
<stop stop-color="white"/>
<stop offset="1" stop-color="white" stop-opacity="0"/>
</linearGradient>
<linearGradient id="paint22_linear_2632_26423" x1="658.389" y1="502.672" x2="658.389" y2="575.305" gradientUnits="userSpaceOnUse">
<stop stop-color="white"/>
<stop offset="1" stop-color="white" stop-opacity="0"/>
</linearGradient>
<linearGradient id="paint23_linear_2632_26423" x1="978.963" y1="612.122" x2="978.963" y2="635.36" gradientUnits="userSpaceOnUse">
<stop stop-color="white"/>
<stop offset="1" stop-color="white" stop-opacity="0"/>
</linearGradient>
<linearGradient id="paint24_linear_2632_26423" x1="1024" y1="612.122" x2="1024" y2="635.36" gradientUnits="userSpaceOnUse">
<stop stop-color="white"/>
<stop offset="1" stop-color="white" stop-opacity="0"/>
</linearGradient>
<linearGradient id="paint25_linear_2632_26423" x1="864.842" y1="547.961" x2="864.842" y2="733.654" gradientUnits="userSpaceOnUse">
<stop stop-color="white"/>
<stop offset="1" stop-color="white" stop-opacity="0"/>
</linearGradient>
<linearGradient id="paint26_linear_2632_26423" x1="751.057" y1="385.84" x2="751.057" y2="480.436" gradientUnits="userSpaceOnUse">
<stop stop-color="white"/>
<stop offset="1" stop-color="white" stop-opacity="0"/>
</linearGradient>
<linearGradient id="paint27_linear_2632_26423" x1="806.451" y1="463.095" x2="806.451" y2="473.327" gradientUnits="userSpaceOnUse">
<stop stop-color="white"/>
<stop offset="1" stop-color="white" stop-opacity="0"/>
</linearGradient>
<linearGradient id="paint28_linear_2632_26423" x1="806.451" y1="501.535" x2="806.451" y2="511.767" gradientUnits="userSpaceOnUse">
<stop stop-color="white"/>
<stop offset="1" stop-color="white" stop-opacity="0"/>
</linearGradient>
<linearGradient id="paint29_linear_2632_26423" x1="806.451" y1="482.314" x2="806.451" y2="492.546" gradientUnits="userSpaceOnUse">
<stop stop-color="white"/>
<stop offset="1" stop-color="white" stop-opacity="0"/>
</linearGradient>
<linearGradient id="paint30_linear_2632_26423" x1="806.451" y1="520.757" x2="806.451" y2="530.989" gradientUnits="userSpaceOnUse">
<stop stop-color="white"/>
<stop offset="1" stop-color="white" stop-opacity="0"/>
</linearGradient>
<linearGradient id="paint31_linear_2632_26423" x1="806.451" y1="539.976" x2="806.451" y2="550.208" gradientUnits="userSpaceOnUse">
<stop stop-color="white"/>
<stop offset="1" stop-color="white" stop-opacity="0"/>
</linearGradient>
<linearGradient id="paint32_linear_2632_26423" x1="806.451" y1="578.416" x2="806.451" y2="588.648" gradientUnits="userSpaceOnUse">
<stop stop-color="white"/>
<stop offset="1" stop-color="white" stop-opacity="0"/>
</linearGradient>
<linearGradient id="paint33_linear_2632_26423" x1="806.451" y1="655.297" x2="806.451" y2="665.529" gradientUnits="userSpaceOnUse">
<stop stop-color="white"/>
<stop offset="1" stop-color="white" stop-opacity="0"/>
</linearGradient>
<linearGradient id="paint34_linear_2632_26423" x1="806.451" y1="616.855" x2="806.451" y2="627.087" gradientUnits="userSpaceOnUse">
<stop stop-color="white"/>
<stop offset="1" stop-color="white" stop-opacity="0"/>
</linearGradient>
<linearGradient id="paint35_linear_2632_26423" x1="806.451" y1="693.737" x2="806.451" y2="703.969" gradientUnits="userSpaceOnUse">
<stop stop-color="white"/>
<stop offset="1" stop-color="white" stop-opacity="0"/>
</linearGradient>
<linearGradient id="paint36_linear_2632_26423" x1="806.451" y1="559.195" x2="806.451" y2="569.427" gradientUnits="userSpaceOnUse">
<stop stop-color="white"/>
<stop offset="1" stop-color="white" stop-opacity="0"/>
</linearGradient>
<linearGradient id="paint37_linear_2632_26423" x1="806.451" y1="597.635" x2="806.451" y2="607.867" gradientUnits="userSpaceOnUse">
<stop stop-color="white"/>
<stop offset="1" stop-color="white" stop-opacity="0"/>
</linearGradient>
<linearGradient id="paint38_linear_2632_26423" x1="806.451" y1="674.517" x2="806.451" y2="684.749" gradientUnits="userSpaceOnUse">
<stop stop-color="white"/>
<stop offset="1" stop-color="white" stop-opacity="0"/>
</linearGradient>
<linearGradient id="paint39_linear_2632_26423" x1="806.451" y1="636.076" x2="806.451" y2="646.308" gradientUnits="userSpaceOnUse">
<stop stop-color="white"/>
<stop offset="1" stop-color="white" stop-opacity="0"/>
</linearGradient>
<linearGradient id="paint40_linear_2632_26423" x1="806.451" y1="712.956" x2="806.451" y2="723.188" gradientUnits="userSpaceOnUse">
<stop stop-color="white"/>
<stop offset="1" stop-color="white" stop-opacity="0"/>
</linearGradient>
<linearGradient id="paint41_linear_2632_26423" x1="1110.41" y1="478.065" x2="1110.41" y2="735.06" gradientUnits="userSpaceOnUse">
<stop stop-color="white"/>
<stop offset="1" stop-color="white" stop-opacity="0"/>
</linearGradient>
<linearGradient id="paint42_linear_2632_26423" x1="1097.04" y1="493.467" x2="1097.04" y2="735.06" gradientUnits="userSpaceOnUse">
<stop stop-color="white"/>
<stop offset="1" stop-color="white" stop-opacity="0"/>
</linearGradient>
<linearGradient id="paint43_linear_2632_26423" x1="1088.97" y1="508.958" x2="1088.97" y2="537.938" gradientUnits="userSpaceOnUse">
<stop stop-color="white"/>
<stop offset="1" stop-color="white" stop-opacity="0"/>
</linearGradient>
<linearGradient id="paint44_linear_2632_26423" x1="1129.17" y1="505.313" x2="1129.17" y2="731.413" gradientUnits="userSpaceOnUse">
<stop stop-color="white"/>
<stop offset="1" stop-color="white" stop-opacity="0"/>
</linearGradient>
<linearGradient id="paint45_linear_2632_26423" x1="1154.26" y1="505.313" x2="1154.26" y2="731.413" gradientUnits="userSpaceOnUse">
<stop stop-color="white"/>
<stop offset="1" stop-color="white" stop-opacity="0"/>
</linearGradient>
<linearGradient id="paint46_linear_2632_26423" x1="1074.82" y1="549.422" x2="1074.82" y2="553.341" gradientUnits="userSpaceOnUse">
<stop stop-color="white"/>
<stop offset="1" stop-color="white" stop-opacity="0"/>
</linearGradient>
<linearGradient id="paint47_linear_2632_26423" x1="1074.82" y1="566.372" x2="1074.82" y2="570.291" gradientUnits="userSpaceOnUse">
<stop stop-color="white"/>
<stop offset="1" stop-color="white" stop-opacity="0"/>
</linearGradient>
<linearGradient id="paint48_linear_2632_26423" x1="1074.82" y1="582.959" x2="1074.82" y2="586.878" gradientUnits="userSpaceOnUse">
<stop stop-color="white"/>
<stop offset="1" stop-color="white" stop-opacity="0"/>
</linearGradient>
<linearGradient id="paint49_linear_2632_26423" x1="1074.82" y1="599.817" x2="1074.82" y2="603.736" gradientUnits="userSpaceOnUse">
<stop stop-color="white"/>
<stop offset="1" stop-color="white" stop-opacity="0"/>
</linearGradient>
<linearGradient id="paint50_linear_2632_26423" x1="1085.18" y1="617.042" x2="1085.18" y2="620.961" gradientUnits="userSpaceOnUse">
<stop stop-color="white"/>
<stop offset="1" stop-color="white" stop-opacity="0"/>
</linearGradient>
<linearGradient id="paint51_linear_2632_26423" x1="1085.18" y1="633.994" x2="1085.18" y2="637.913" gradientUnits="userSpaceOnUse">
<stop stop-color="white"/>
<stop offset="1" stop-color="white" stop-opacity="0"/>
</linearGradient>
<linearGradient id="paint52_linear_2632_26423" x1="1085.18" y1="650.579" x2="1085.18" y2="654.498" gradientUnits="userSpaceOnUse">
<stop stop-color="white"/>
<stop offset="1" stop-color="white" stop-opacity="0"/>
</linearGradient>
<linearGradient id="paint53_linear_2632_26423" x1="1085.18" y1="667.438" x2="1085.18" y2="671.358" gradientUnits="userSpaceOnUse">
<stop stop-color="white"/>
<stop offset="1" stop-color="white" stop-opacity="0"/>
</linearGradient>
<linearGradient id="paint54_linear_2632_26423" x1="1085.18" y1="685.666" x2="1085.18" y2="689.585" gradientUnits="userSpaceOnUse">
<stop stop-color="white"/>
<stop offset="1" stop-color="white" stop-opacity="0"/>
</linearGradient>
<linearGradient id="paint55_linear_2632_26423" x1="1085.18" y1="702.617" x2="1085.18" y2="706.536" gradientUnits="userSpaceOnUse">
<stop stop-color="white"/>
<stop offset="1" stop-color="white" stop-opacity="0"/>
</linearGradient>
<linearGradient id="paint56_linear_2632_26423" x1="1085.18" y1="719.202" x2="1085.18" y2="723.121" gradientUnits="userSpaceOnUse">
<stop stop-color="white"/>
<stop offset="1" stop-color="white" stop-opacity="0"/>
</linearGradient>
<linearGradient id="paint57_linear_2632_26423" x1="324.721" y1="414.546" x2="324.721" y2="735.06" gradientUnits="userSpaceOnUse">
<stop stop-color="white"/>
<stop offset="1" stop-color="white" stop-opacity="0"/>
</linearGradient>
<linearGradient id="paint58_linear_2632_26423" x1="443.532" y1="302.725" x2="443.532" y2="736.152" gradientUnits="userSpaceOnUse">
<stop stop-color="white"/>
<stop offset="1" stop-color="white" stop-opacity="0"/>
</linearGradient>
<linearGradient id="paint59_linear_2632_26423" x1="443.442" y1="281.491" x2="443.442" y2="305.368" gradientUnits="userSpaceOnUse">
<stop stop-color="white"/>
<stop offset="1" stop-color="white" stop-opacity="0"/>
</linearGradient>
<linearGradient id="paint60_linear_2632_26423" x1="807.771" y1="409.259" x2="807.771" y2="734.967" gradientUnits="userSpaceOnUse">
<stop stop-color="white"/>
<stop offset="1" stop-color="white" stop-opacity="0"/>
</linearGradient>
<linearGradient id="paint61_linear_2632_26423" x1="706.387" y1="573.937" x2="706.387" y2="734.968" gradientUnits="userSpaceOnUse">
<stop stop-color="white"/>
<stop offset="1" stop-color="white" stop-opacity="0"/>
</linearGradient>
<linearGradient id="paint62_linear_2632_26423" x1="62.7455" y1="573.937" x2="62.7455" y2="734.968" gradientUnits="userSpaceOnUse">
<stop stop-color="white"/>
<stop offset="1" stop-color="white" stop-opacity="0"/>
</linearGradient>
<linearGradient id="paint63_linear_2632_26423" x1="45.7455" y1="587.324" x2="45.7455" y2="597.556" gradientUnits="userSpaceOnUse">
<stop stop-color="white"/>
<stop offset="1" stop-color="white" stop-opacity="0"/>
</linearGradient>
<linearGradient id="paint64_linear_2632_26423" x1="33.7967" y1="627.761" x2="33.7967" y2="637.993" gradientUnits="userSpaceOnUse">
<stop stop-color="white"/>
<stop offset="1" stop-color="white" stop-opacity="0"/>
</linearGradient>
<linearGradient id="paint65_linear_2632_26423" x1="45.7455" y1="607.543" x2="45.7455" y2="617.775" gradientUnits="userSpaceOnUse">
<stop stop-color="white"/>
<stop offset="1" stop-color="white" stop-opacity="0"/>
</linearGradient>
<linearGradient id="paint66_linear_2632_26423" x1="33.7967" y1="647.981" x2="33.7967" y2="658.213" gradientUnits="userSpaceOnUse">
<stop stop-color="white"/>
<stop offset="1" stop-color="white" stop-opacity="0"/>
</linearGradient>
<linearGradient id="paint67_linear_2632_26423" x1="33.7967" y1="668.199" x2="33.7967" y2="678.431" gradientUnits="userSpaceOnUse">
<stop stop-color="white"/>
<stop offset="1" stop-color="white" stop-opacity="0"/>
</linearGradient>
<linearGradient id="paint68_linear_2632_26423" x1="33.7967" y1="688.418" x2="33.7967" y2="698.65" gradientUnits="userSpaceOnUse">
<stop stop-color="white"/>
<stop offset="1" stop-color="white" stop-opacity="0"/>
</linearGradient>
<linearGradient id="paint69_linear_2632_26423" x1="33.7967" y1="708.638" x2="33.7967" y2="718.87" gradientUnits="userSpaceOnUse">
<stop stop-color="white"/>
<stop offset="1" stop-color="white" stop-opacity="0"/>
</linearGradient>
<linearGradient id="paint70_linear_2632_26423" x1="617.827" y1="502.58" x2="617.827" y2="734.968" gradientUnits="userSpaceOnUse">
<stop stop-color="white"/>
<stop offset="1" stop-color="white" stop-opacity="0"/>
</linearGradient>
<linearGradient id="paint71_linear_2632_26423" x1="749.186" y1="577.489" x2="749.186" y2="733.691" gradientUnits="userSpaceOnUse">
<stop stop-color="white"/>
<stop offset="1" stop-color="white" stop-opacity="0"/>
</linearGradient>
<linearGradient id="paint72_linear_2632_26423" x1="1059.4" y1="615.401" x2="1059.4" y2="733.692" gradientUnits="userSpaceOnUse">
<stop stop-color="white"/>
<stop offset="1" stop-color="white" stop-opacity="0"/>
</linearGradient>
<linearGradient id="paint73_linear_2632_26423" x1="1133.91" y1="451.636" x2="1133.91" y2="490.641" gradientUnits="userSpaceOnUse">
<stop stop-color="white"/>
<stop offset="1" stop-color="white" stop-opacity="0"/>
</linearGradient>
<linearGradient id="paint74_linear_2632_26423" x1="1096.45" y1="496.292" x2="1096.45" y2="733.693" gradientUnits="userSpaceOnUse">
<stop stop-color="white"/>
<stop offset="1" stop-color="white" stop-opacity="0"/>
</linearGradient>
<linearGradient id="paint75_linear_2632_26423" x1="266.73" y1="0.863281" x2="266.73" y2="388.177" gradientUnits="userSpaceOnUse">
<stop stop-color="white"/>
<stop offset="1" stop-color="white" stop-opacity="0"/>
</linearGradient>
<linearGradient id="paint76_linear_2632_26423" x1="251.17" y1="16.355" x2="251.17" y2="420.071" gradientUnits="userSpaceOnUse">
<stop stop-color="white"/>
<stop offset="1" stop-color="white" stop-opacity="0"/>
</linearGradient>
<linearGradient id="paint77_linear_2632_26423" x1="261.483" y1="14.0781" x2="261.483" y2="417.805" gradientUnits="userSpaceOnUse">
<stop stop-color="white"/>
<stop offset="1" stop-color="white" stop-opacity="0"/>
</linearGradient>
<linearGradient id="paint78_linear_2632_26423" x1="266.73" y1="10.0669" x2="266.73" y2="33.6703" gradientUnits="userSpaceOnUse">
<stop stop-color="white"/>
<stop offset="1" stop-color="white" stop-opacity="0"/>
</linearGradient>
<linearGradient id="paint79_linear_2632_26423" x1="266.73" y1="1.13623" x2="266.73" y2="24.8307" gradientUnits="userSpaceOnUse">
<stop stop-color="white"/>
<stop offset="1" stop-color="white" stop-opacity="0"/>
</linearGradient>
<linearGradient id="paint80_linear_2632_26423" x1="322.121" y1="0.863281" x2="322.121" y2="502.366" gradientUnits="userSpaceOnUse">
<stop stop-color="white"/>
<stop offset="1" stop-color="white" stop-opacity="0"/>
</linearGradient>
<linearGradient id="paint81_linear_2632_26423" x1="299.992" y1="34.2788" x2="299.992" y2="46.7638" gradientUnits="userSpaceOnUse">
<stop stop-color="white"/>
<stop offset="1" stop-color="white" stop-opacity="0"/>
</linearGradient>
<linearGradient id="paint82_linear_2632_26423" x1="299.992" y1="245.056" x2="299.992" y2="257.541" gradientUnits="userSpaceOnUse">
<stop stop-color="white"/>
<stop offset="1" stop-color="white" stop-opacity="0"/>
</linearGradient>
<linearGradient id="paint83_linear_2632_26423" x1="299.992" y1="138.765" x2="299.992" y2="151.25" gradientUnits="userSpaceOnUse">
<stop stop-color="white"/>
<stop offset="1" stop-color="white" stop-opacity="0"/>
</linearGradient>
<linearGradient id="paint84_linear_2632_26423" x1="299.992" y1="349.542" x2="299.992" y2="362.027" gradientUnits="userSpaceOnUse">
<stop stop-color="white"/>
<stop offset="1" stop-color="white" stop-opacity="0"/>
</linearGradient>
<linearGradient id="paint85_linear_2632_26423" x1="245.71" y1="416.894" x2="245.71" y2="423.91" gradientUnits="userSpaceOnUse">
<stop stop-color="white"/>
<stop offset="1" stop-color="white" stop-opacity="0"/>
</linearGradient>
<linearGradient id="paint86_linear_2632_26423" x1="245.71" y1="517.501" x2="245.71" y2="524.517" gradientUnits="userSpaceOnUse">
<stop stop-color="white"/>
<stop offset="1" stop-color="white" stop-opacity="0"/>
</linearGradient>
<linearGradient id="paint87_linear_2632_26423" x1="245.71" y1="466.153" x2="245.71" y2="473.169" gradientUnits="userSpaceOnUse">
<stop stop-color="white"/>
<stop offset="1" stop-color="white" stop-opacity="0"/>
</linearGradient>
<linearGradient id="paint88_linear_2632_26423" x1="245.71" y1="566.76" x2="245.71" y2="573.776" gradientUnits="userSpaceOnUse">
<stop stop-color="white"/>
<stop offset="1" stop-color="white" stop-opacity="0"/>
</linearGradient>
<linearGradient id="paint89_linear_2632_26423" x1="299.992" y1="86.4985" x2="299.992" y2="98.984" gradientUnits="userSpaceOnUse">
<stop stop-color="white"/>
<stop offset="1" stop-color="white" stop-opacity="0"/>
</linearGradient>
<linearGradient id="paint90_linear_2632_26423" x1="299.992" y1="297.277" x2="299.992" y2="309.762" gradientUnits="userSpaceOnUse">
<stop stop-color="white"/>
<stop offset="1" stop-color="white" stop-opacity="0"/>
</linearGradient>
<linearGradient id="paint91_linear_2632_26423" x1="299.992" y1="190.987" x2="299.992" y2="203.472" gradientUnits="userSpaceOnUse">
<stop stop-color="white"/>
<stop offset="1" stop-color="white" stop-opacity="0"/>
</linearGradient>
<linearGradient id="paint92_linear_2632_26423" x1="524.658" y1="701.205" x2="524.658" y2="706.035" gradientUnits="userSpaceOnUse">
<stop stop-color="white"/>
<stop offset="1" stop-color="white" stop-opacity="0"/>
</linearGradient>
<linearGradient id="paint93_linear_2632_26423" x1="140.206" y1="686.718" x2="140.206" y2="715.679" gradientUnits="userSpaceOnUse">
<stop stop-color="white"/>
<stop offset="1" stop-color="white" stop-opacity="0"/>
</linearGradient>
<linearGradient id="paint94_linear_2632_26423" x1="90.2062" y1="686.718" x2="90.2062" y2="715.679" gradientUnits="userSpaceOnUse">
<stop stop-color="white"/>
<stop offset="1" stop-color="white" stop-opacity="0"/>
</linearGradient>
<linearGradient id="paint95_linear_2632_26423" x1="90.2062" y1="649.766" x2="90.2062" y2="678.728" gradientUnits="userSpaceOnUse">
<stop stop-color="white"/>
<stop offset="1" stop-color="white" stop-opacity="0"/>
</linearGradient>
<linearGradient id="paint96_linear_2632_26423" x1="140.206" y1="649.766" x2="140.206" y2="678.728" gradientUnits="userSpaceOnUse">
<stop stop-color="white"/>
<stop offset="1" stop-color="white" stop-opacity="0"/>
</linearGradient>
<linearGradient id="paint97_linear_2632_26423" x1="190.206" y1="649.766" x2="190.206" y2="678.728" gradientUnits="userSpaceOnUse">
<stop stop-color="white"/>
<stop offset="1" stop-color="white" stop-opacity="0"/>
</linearGradient>
<linearGradient id="paint98_linear_2632_26423" x1="240.205" y1="649.766" x2="240.205" y2="678.728" gradientUnits="userSpaceOnUse">
<stop stop-color="white"/>
<stop offset="1" stop-color="white" stop-opacity="0"/>
</linearGradient>
<linearGradient id="paint99_linear_2632_26423" x1="190.206" y1="686.718" x2="190.206" y2="715.679" gradientUnits="userSpaceOnUse">
<stop stop-color="white"/>
<stop offset="1" stop-color="white" stop-opacity="0"/>
</linearGradient>
<linearGradient id="paint100_linear_2632_26423" x1="240.205" y1="686.718" x2="240.205" y2="715.679" gradientUnits="userSpaceOnUse">
<stop stop-color="white"/>
<stop offset="1" stop-color="white" stop-opacity="0"/>
</linearGradient>
<linearGradient id="paint101_linear_2632_26423" x1="1008.76" y1="614.492" x2="1008.76" y2="622.42" gradientUnits="userSpaceOnUse">
<stop stop-color="white"/>
<stop offset="1" stop-color="white" stop-opacity="0"/>
</linearGradient>
<linearGradient id="paint102_linear_2632_26423" x1="1050.41" y1="614.492" x2="1050.41" y2="622.42" gradientUnits="userSpaceOnUse">
<stop stop-color="white"/>
<stop offset="1" stop-color="white" stop-opacity="0"/>
</linearGradient>
<linearGradient id="paint103_linear_2632_26423" x1="1034.03" y1="625.062" x2="1034.03" y2="632.991" gradientUnits="userSpaceOnUse">
<stop stop-color="white"/>
<stop offset="1" stop-color="white" stop-opacity="0"/>
</linearGradient>
<linearGradient id="paint104_linear_2632_26423" x1="994.248" y1="625.062" x2="994.248" y2="632.991" gradientUnits="userSpaceOnUse">
<stop stop-color="white"/>
<stop offset="1" stop-color="white" stop-opacity="0"/>
</linearGradient>
<linearGradient id="paint105_linear_2632_26423" x1="164.536" y1="610.648" x2="164.536" y2="632.992" gradientUnits="userSpaceOnUse">
<stop stop-color="white"/>
<stop offset="1" stop-color="white" stop-opacity="0"/>
</linearGradient>
<linearGradient id="paint106_linear_2632_26423" x1="180.406" y1="610.937" x2="180.406" y2="734.968" gradientUnits="userSpaceOnUse">
<stop stop-color="white"/>
<stop offset="1" stop-color="white" stop-opacity="0"/>
</linearGradient>
<linearGradient id="paint107_linear_2632_26423" x1="777.748" y1="388.39" x2="777.748" y2="479.158" gradientUnits="userSpaceOnUse">
<stop stop-color="white"/>
<stop offset="1" stop-color="white" stop-opacity="0"/>
</linearGradient>
<linearGradient id="paint108_linear_2632_26423" x1="161.809" y1="256.91" x2="161.809" y2="617.249" gradientUnits="userSpaceOnUse">
<stop stop-color="white"/>
<stop offset="1" stop-color="white" stop-opacity="0"/>
</linearGradient>
<linearGradient id="paint109_linear_2632_26423" x1="137.058" y1="267.152" x2="137.058" y2="358.795" gradientUnits="userSpaceOnUse">
<stop stop-color="white"/>
<stop offset="1" stop-color="white" stop-opacity="0"/>
</linearGradient>
<linearGradient id="paint110_linear_2632_26423" x1="180.744" y1="275.957" x2="180.744" y2="544.525" gradientUnits="userSpaceOnUse">
<stop stop-color="white"/>
<stop offset="1" stop-color="white" stop-opacity="0"/>
</linearGradient>
<linearGradient id="paint111_linear_2632_26423" x1="1478.96" y1="590.159" x2="1478.96" y2="678.193" gradientUnits="userSpaceOnUse">
<stop stop-color="white"/>
<stop offset="1" stop-color="white" stop-opacity="0"/>
</linearGradient>
<linearGradient id="paint112_linear_2632_26423" x1="1591.32" y1="642.195" x2="1591.32" y2="697.968" gradientUnits="userSpaceOnUse">
<stop stop-color="white"/>
<stop offset="1" stop-color="white" stop-opacity="0"/>
</linearGradient>
<linearGradient id="paint113_linear_2632_26423" x1="747.863" y1="685.938" x2="747.863" y2="736.244" gradientUnits="userSpaceOnUse">
<stop stop-color="white"/>
<stop offset="1" stop-color="white" stop-opacity="0"/>
</linearGradient>
<linearGradient id="paint114_linear_2632_26423" x1="1075.83" y1="646.843" x2="1075.83" y2="702.981" gradientUnits="userSpaceOnUse">
<stop stop-color="white"/>
<stop offset="1" stop-color="white" stop-opacity="0"/>
</linearGradient>
<linearGradient id="paint115_linear_2632_26423" x1="1073.55" y1="701.433" x2="1073.55" y2="736.245" gradientUnits="userSpaceOnUse">
<stop stop-color="white"/>
<stop offset="1" stop-color="white" stop-opacity="0"/>
</linearGradient>
<linearGradient id="paint116_linear_2632_26423" x1="1075.92" y1="648.301" x2="1075.92" y2="701.432" gradientUnits="userSpaceOnUse">
<stop stop-color="white"/>
<stop offset="1" stop-color="white" stop-opacity="0"/>
</linearGradient>
<linearGradient id="paint117_linear_2632_26423" x1="747.817" y1="688.217" x2="747.817" y2="733.692" gradientUnits="userSpaceOnUse">
<stop stop-color="white"/>
<stop offset="1" stop-color="white" stop-opacity="0"/>
</linearGradient>
<linearGradient id="paint118_linear_2632_26423" x1="1073.55" y1="702.98" x2="1073.55" y2="733.692" gradientUnits="userSpaceOnUse">
<stop stop-color="white"/>
<stop offset="1" stop-color="white" stop-opacity="0"/>
</linearGradient>
<linearGradient id="paint119_linear_2632_26423" x1="624.949" y1="733.692" x2="624.949" y2="736.244" gradientUnits="userSpaceOnUse">
<stop stop-color="white"/>
<stop offset="1" stop-color="white" stop-opacity="0"/>
</linearGradient>
</defs>
</svg>
