<svg width="141" height="40" viewBox="0 0 141 40" fill="none" xmlns="http://www.w3.org/2000/svg">
<path fill-rule="evenodd" clip-rule="evenodd" d="M117.393 23.6163C117.393 29.9033 112.301 34.9999 106.019 34.9999C99.7377 34.9999 94.6455 29.9033 94.6455 23.6163C94.6455 17.3293 99.7377 12.2327 106.019 12.2327C112.301 12.2327 117.393 17.3293 117.393 23.6163ZM112.727 23.6163C112.727 27.327 109.727 30.3301 106.019 30.3301C102.312 30.3301 99.3112 27.327 99.3112 23.6163C99.3112 19.9056 102.312 16.9025 106.019 16.9025C109.727 16.9025 112.727 19.9056 112.727 23.6163Z" fill="#888888"/>
<path fill-rule="evenodd" clip-rule="evenodd" d="M93.2789 23.6163C93.2789 29.9033 88.1867 34.9999 81.9052 34.9999C75.6237 34.9999 70.5315 29.9033 70.5315 23.6163C70.5315 17.3293 75.6237 12.2327 81.9052 12.2327C88.1867 12.2327 93.2789 17.3293 93.2789 23.6163ZM88.6131 23.6163C88.6131 27.327 85.6126 30.3301 81.9052 30.3301C78.1977 30.3301 75.1972 27.327 75.1972 23.6163C75.1972 19.9056 78.1977 16.9025 81.9052 16.9025C85.6126 16.9025 88.6131 19.9056 88.6131 23.6163Z" fill="#888888"/>
<path fill-rule="evenodd" clip-rule="evenodd" d="M69.479 23.6164V23.522C69.4948 23.4906 69.4948 23.4434 69.4948 23.412V7.26417C69.4948 6.02203 68.4736 5.00002 67.2326 5.00002C66.9352 4.99877 66.6404 5.05648 66.3654 5.16983C66.0904 5.28317 65.8405 5.4499 65.6302 5.66039C65.4199 5.87089 65.2533 6.12098 65.1401 6.39624C65.0268 6.6715 64.9692 6.96649 64.9704 7.26417V14.5283C63.0539 13.0975 60.6817 12.2327 58.1054 12.2327C51.8216 12.2327 46.7317 17.3271 46.7317 23.6164C46.7317 29.9057 51.8216 35 58.1054 35C64.3892 35 69.479 29.9057 69.479 23.6164ZM64.8133 23.6164C64.8133 27.3243 61.81 30.3302 58.1053 30.3302C54.4006 30.3302 51.3973 27.3243 51.3973 23.6164C51.3973 19.9084 54.4006 16.9025 58.1053 16.9025C61.81 16.9025 64.8133 19.9084 64.8133 23.6164Z" fill="#888888"/>
<path fill-rule="evenodd" clip-rule="evenodd" d="M45.899 23.5849C45.899 29.8719 40.8068 34.9686 34.5253 34.9686C28.2438 34.9686 23.1516 29.8719 23.1516 23.5849C23.1516 17.2979 28.2438 12.2013 34.5253 12.2013C40.8068 12.2013 45.899 17.2979 45.899 23.5849ZM41.1233 23.6321C41.1233 27.34 38.12 30.3459 34.4153 30.3459C30.7106 30.3459 27.7074 27.34 27.7074 23.6321C27.7074 19.9241 30.7106 16.9182 34.4153 16.9182C38.12 16.9182 41.1233 19.9241 41.1233 23.6321Z" fill="#9C5789"/>
</svg>
