<svg xmlns="http://www.w3.org/2000/svg" width="60" height="57" viewBox="886 10 60 57" fill="none">
<defs>
<linearGradient id="paint27_linear_811_2007" x1="924.5" y1="14.5" x2="932.5" y2="14.5" gradientUnits="userSpaceOnUse">
<stop stop-color="#FF8E3D"/>
<stop offset="0.3567" stop-color="#FF883D"/>
<stop offset="0.8477" stop-color="#FF763D"/>
<stop offset="1" stop-color="#FF6F3D"/>
</linearGradient>
<linearGradient id="paint28_linear_811_2007" x1="890.985" y1="54.0002" x2="898.153" y2="54.0002" gradientUnits="userSpaceOnUse">
<stop stop-color="#FFC671"/>
<stop offset="0.5938" stop-color="#FF7541"/>
<stop offset="1" stop-color="#FF6F3D"/>
</linearGradient>
<linearGradient id="paint29_linear_811_2007" x1="903.474" y1="54.0002" x2="910.558" y2="54.0002" gradientUnits="userSpaceOnUse">
<stop stop-color="#FFC671"/>
<stop offset="0.5938" stop-color="#FF7541"/>
<stop offset="1" stop-color="#FF6F3D"/>
</linearGradient>
<linearGradient id="paint30_linear_811_2007" x1="898.452" y1="63.042" x2="915.294" y2="63.042" gradientUnits="userSpaceOnUse">
<stop stop-color="#FFC671"/>
<stop offset="0.5938" stop-color="#FF7541"/>
<stop offset="1" stop-color="#FF6F3D"/>
</linearGradient>
<linearGradient id="paint31_linear_811_2007" x1="886.461" y1="63.042" x2="898.83" y2="63.042" gradientUnits="userSpaceOnUse">
<stop stop-color="#FFC671"/>
<stop offset="0.5938" stop-color="#FF7541"/>
<stop offset="1" stop-color="#FF6F3D"/>
</linearGradient>
</defs>
<path fill-rule="evenodd" clip-rule="evenodd" d="M933 63H895V10H925L933 18V63Z" fill="white"/>
<path fill-rule="evenodd" clip-rule="evenodd" d="M894 10.5C894 10.2239 894.224 10 894.5 10H924.5C924.633 10 924.76 10.0527 924.854 10.1464L932.854 18.1464C932.947 18.2402 933 18.3674 933 18.5V28.5C933 28.7761 932.776 29 932.5 29C932.224 29 932 28.7761 932 28.5V18.7071L924.293 11H895V46C895 46.2761 894.776 46.5 894.5 46.5C894.224 46.5 894 46.2761 894 46V10.5ZM932 63V55.5C932 55.2239 932.224 55 932.5 55C932.776 55 933 55.2239 933 55.5V63.5C933 63.7761 932.776 64 932.5 64H920.5C920.224 64 920 63.7761 920 63.5C920 63.2239 920.224 63 920.5 63H932Z" fill="#333333"/>
<path fill-rule="evenodd" clip-rule="evenodd" d="M932.5 18.5H924.5V10.5L932.5 18.5Z" fill="url(#paint27_linear_811_2007)"/>
<path fill-rule="evenodd" clip-rule="evenodd" d="M924.309 10.0381C924.495 9.96068 924.711 10.0035 924.854 10.1465L932.854 18.1465C932.997 18.2895 933.039 18.5045 932.962 18.6914C932.885 18.8782 932.702 19 932.5 19H924.5C924.224 19 924 18.7762 924 18.5V10.5C924 10.2978 924.122 10.1155 924.309 10.0381ZM925 11.7071V18H931.293L925 11.7071Z" fill="#333333"/>
<path d="M915.5 16H899.5C899.2 16 899 15.8 899 15.5C899 15.2 899.2 15 899.5 15H915.5C915.8 15 916 15.2 916 15.5C916 15.8 915.8 16 915.5 16Z" fill="#333333"/>
<path d="M915.5 20H899.5C899.2 20 899 19.8 899 19.5C899 19.2 899.2 19 899.5 19H915.5C915.8 19 916 19.2 916 19.5C916 19.8 915.8 20 915.5 20Z" fill="#333333"/>
<path d="M927.5 24H899.5C899.2 24 899 23.8 899 23.5C899 23.2 899.2 23 899.5 23H927.5C927.8 23 928 23.2 928 23.5C928 23.8 927.8 24 927.5 24Z" fill="#333333"/>
<path d="M927.5 28H899.5C899.2 28 899 27.8 899 27.5C899 27.2 899.2 27 899.5 27H927.5C927.8 27 928 27.2 928 27.5C928 27.8 927.8 28 927.5 28Z" fill="#333333"/>
<path d="M916.5 32H899.5C899.2 32 899 31.8 899 31.5C899 31.2 899.2 31 899.5 31H916.5C916.8 31 917 31.2 917 31.5C917 31.8 916.8 32 916.5 32Z" fill="#333333"/>
<path d="M908.5 36H899.5C899.2 36 899 35.8 899 35.5C899 35.2 899.2 35 899.5 35H908.5C908.8 35 909 35.2 909 35.5C909 35.8 908.8 36 908.5 36Z" fill="#333333"/>
<path d="M908.5 40H904H899.5C899.2 40 899 39.8 899 39.5C899 39.2 899.2 39 899.5 39H908.5C908.8 39 909 39.2 909 39.5C909 39.8 908.8 40 908.5 40Z" fill="#333333"/>
<path d="M894.553 57.5294C892.577 57.5294 890.977 55.9294 890.977 53.9529C890.977 51.9765 892.577 50.3765 894.553 50.3765C896.53 50.3765 898.13 51.9765 898.13 53.9529C898.13 55.9294 896.53 57.5294 894.553 57.5294Z" fill="url(#paint28_linear_811_2007)"/>
<path d="M894.553 50.9412C896.247 50.9412 897.659 52.3529 897.659 54.0471C897.659 55.7412 896.247 57.0588 894.553 57.0588C892.859 57.0588 891.447 55.6471 891.447 54.0471C891.447 52.3529 892.859 50.9412 894.553 50.9412ZM894.553 50C892.294 50 890.506 51.7882 890.506 54.0471C890.506 56.2118 892.294 58 894.553 58C896.812 58 898.6 56.2118 898.6 54.0471C898.6 51.7882 896.718 50 894.553 50Z" fill="#333333"/>
<path d="M907 57.5294C905.046 57.5294 903.465 55.9294 903.465 53.9529C903.465 51.9765 905.046 50.3765 907 50.3765C908.953 50.3765 910.535 51.9765 910.535 53.9529C910.535 55.9294 908.953 57.5294 907 57.5294Z" fill="url(#paint29_linear_811_2007)"/>
<path d="M907 50.9412C908.674 50.9412 910.07 52.3529 910.07 54.0471C910.07 55.7412 908.674 57.0588 907 57.0588C905.326 57.0588 903.93 55.6471 903.93 54.0471C903.93 52.3529 905.326 50.9412 907 50.9412ZM907 50C904.767 50 903 51.7882 903 54.0471C903 56.2118 904.767 58 907 58C909.233 58 911 56.2118 911 54.0471C911 51.7882 909.14 50 907 50Z" fill="#333333"/>
<path d="M899.066 66.4737C898.855 66.4737 898.75 66.3684 898.645 66.2632C898.54 66.1579 898.434 65.9474 898.54 65.7369C898.961 63.1053 900.54 60.8948 902.961 59.6316C904.119 60.4737 905.487 60.7895 906.961 60.7895C908.329 60.7895 909.698 60.3684 910.961 59.6316C913.382 60.8948 915.066 63.2105 915.382 65.7369C915.382 65.9474 915.382 66.0526 915.277 66.2632C915.171 66.3684 914.961 66.4737 914.855 66.4737H899.066Z" fill="url(#paint30_linear_811_2007)"/>
<path d="M910.856 60.2632C912.961 61.5263 914.434 63.5263 914.75 65.8421V65.9474C914.75 65.9474 914.75 65.9474 914.645 65.9474H899.066C899.066 65.9474 899.066 65.9474 898.961 65.9474C898.961 65.9474 898.961 65.9474 898.961 65.8421C899.277 63.5263 900.75 61.421 902.856 60.2632C904.119 61 905.487 61.4211 906.856 61.4211C908.224 61.3158 909.592 61 910.856 60.2632ZM910.75 59C909.592 59.8421 908.329 60.2632 906.856 60.2632C905.382 60.2632 904.013 59.7368 902.961 59C900.329 60.2632 898.434 62.6842 898.013 65.7368C897.908 66.4737 898.434 67 899.171 67H914.856C915.592 67 916.119 66.3684 916.013 65.7368C915.382 62.6842 913.382 60.2632 910.75 59Z" fill="#333333"/>
<path d="M887.044 66.4737C886.844 66.4737 886.744 66.3684 886.644 66.2632C886.544 66.1579 886.444 65.9474 886.544 65.7369C886.944 63.1053 888.444 60.8947 890.744 59.6316C891.844 60.4737 893.144 60.7895 894.544 60.7895C895.844 60.7895 897.144 60.3684 898.344 59.6316C898.544 59.7369 898.744 59.8421 898.944 60.0526C897.244 61.7369 896.144 64.0526 895.744 66.4737C895.744 66.4737 895.744 66.4737 895.744 66.579H887.044V66.4737Z" fill="url(#paint31_linear_811_2007)"/>
<path d="M890.644 60.2632C891.844 61 893.144 61.4211 894.444 61.4211C895.544 61.4211 896.644 61.1053 897.644 60.5789C896.444 62.1579 895.544 63.9474 895.244 65.9474H887.044C887.044 65.9474 887.044 65.9474 886.944 65.9474C886.944 65.9474 886.944 65.9474 886.944 65.8421C887.244 63.5263 888.644 61.421 890.644 60.2632ZM898.144 59C897.044 59.8421 895.844 60.2632 894.444 60.2632C893.044 60.2632 891.744 59.7368 890.744 59C888.244 60.2632 886.444 62.6842 886.044 65.7368C885.844 66.3684 886.344 67 887.044 67H896.144C896.144 66.7895 896.044 66.6842 896.144 66.4737C896.544 63.8421 897.744 61.6316 899.644 59.9474C899.144 59.6316 898.644 59.3158 898.144 59Z" fill="#333333"/>
<path d="M923 41H940V49.1633C934.5 51.5 928.5 51.5 923 49.1633V41Z" fill="#9ADAF3"/>
<path fill-rule="evenodd" clip-rule="evenodd" d="M922 40H941V49.8249L940.391 50.0836C934.641 52.5265 928.359 52.5265 922.609 50.0836L922 49.8249V40ZM923 41V49.1633C928.5 51.5 934.5 51.5 940 49.1633V41H923Z" fill="#333333"/>
<path d="M931.309 33L945.619 38.7237L931.309 44.4474L917 38.7237L931.309 33Z" fill="#9ADAF3"/>
<path fill-rule="evenodd" clip-rule="evenodd" d="M931.124 32.5358C931.243 32.4881 931.376 32.4881 931.495 32.5358L945.804 38.2595C945.994 38.3354 946.119 38.5193 946.119 38.7237C946.119 38.9282 945.994 39.112 945.804 39.188L931.495 44.9117C931.376 44.9594 931.243 44.9594 931.124 44.9117L916.814 39.188C916.624 39.112 916.5 38.9282 916.5 38.7237C916.5 38.5193 916.624 38.3354 916.814 38.2595L931.124 32.5358ZM918.346 38.7237L931.309 43.9089L944.272 38.7237L931.309 33.5385L918.346 38.7237Z" fill="#333333"/>
</svg>