<svg width="24" height="24" viewBox="0 0 24 24" fill="none" xmlns="http://www.w3.org/2000/svg">
<g clip-path="url(#clip0_1528_2694)">
<path d="M9.5 8.5V3.5C9.5 2.94772 9.94772 2.5 10.5 2.5H18.0858C18.351 2.5 18.6054 2.60536 18.7929 2.79289L23.2071 7.20711C23.3946 7.39464 23.5 7.649 23.5 7.91421V20.5C23.5 21.0523 23.0523 21.5 22.5 21.5H16.5" stroke="#333333" stroke-linecap="round"/>
<path d="M5.5 8.5V3.5C5.5 2.94772 5.94772 2.5 6.5 2.5H8" stroke="#333333" stroke-linecap="round"/>
<path d="M1.5 8.5V3.5C1.5 2.94772 1.94772 2.5 2.5 2.5H4" stroke="#333333" stroke-linecap="round"/>
<path fill-rule="evenodd" clip-rule="evenodd" d="M17.5 4C17.7761 4 18 4.22386 18 4.5V8H21.5C21.7761 8 22 8.22386 22 8.5C22 8.77614 21.7761 9 21.5 9H17.5C17.2239 9 17 8.77614 17 8.5V4.5C17 4.22386 17.2239 4 17.5 4Z" fill="#444444"/>
<path d="M2 11.5H11C11.8284 11.5 12.5 12.1716 12.5 13V22C12.5 22.8284 11.8284 23.5 11 23.5H2C1.17157 23.5 0.5 22.8284 0.5 22V13C0.5 12.1716 1.17157 11.5 2 11.5Z" stroke="#FF6F3D"/>
<g clip-path="url(#clip1_1528_2694)">
<path fill-rule="evenodd" clip-rule="evenodd" d="M6.50001 13C6.71946 13 6.91887 13.1276 7.01079 13.3269L7.98982 15.4494L10.311 15.7247C10.5289 15.7505 10.7119 15.9007 10.7798 16.1094C10.8476 16.3181 10.7878 16.5472 10.6267 16.6962L8.91058 18.2832L9.36613 20.5759C9.40889 20.7911 9.32258 21.0116 9.14504 21.1406C8.9675 21.2696 8.73116 21.2835 8.53966 21.1763L6.50001 20.0346L4.46035 21.1763C4.26886 21.2835 4.03251 21.2696 3.85497 21.1406C3.67743 21.0116 3.59112 20.7911 3.63389 20.5759L4.08943 18.2832L2.37331 16.6962C2.2122 16.5472 2.15244 16.3181 2.22025 16.1094C2.28807 15.9007 2.47107 15.7505 2.68899 15.7247L5.01019 15.4494L5.98923 13.3269C6.08114 13.1276 6.28056 13 6.50001 13ZM6.50001 14.9055L5.89988 16.2066C5.81794 16.3842 5.64959 16.5065 5.45532 16.5295L4.03247 16.6982L5.08442 17.6711C5.22805 17.8039 5.29235 18.0018 5.25423 18.1937L4.97498 19.599L6.22526 18.8992C6.39596 18.8036 6.60405 18.8036 6.77476 18.8992L8.02503 19.599L7.74579 18.1937C7.70766 18.0018 7.77197 17.8039 7.91559 17.6711L8.96755 16.6982L7.54469 16.5295C7.35043 16.5065 7.18208 16.3842 7.10014 16.2066L6.50001 14.9055Z" fill="#FF6F3D"/>
</g>
</g>
<defs>
<clipPath id="clip0_1528_2694">
<rect width="24" height="24" fill="white"/>
</clipPath>
<clipPath id="clip1_1528_2694">
<rect width="9" height="9" fill="white" transform="translate(2 13)"/>
</clipPath>
</defs>
</svg>
