<svg xmlns="http://www.w3.org/2000/svg" width="47" height="58" viewBox="367 9 47 58" fill="none">
<defs>
<linearGradient id="paint9_linear_811_2007" x1="397.5" y1="13.5" x2="405.5" y2="13.5" gradientUnits="userSpaceOnUse">
<stop stop-color="#FF8E3D"/>
<stop offset="0.3567" stop-color="#FF883D"/>
<stop offset="0.8477" stop-color="#FF763D"/>
<stop offset="1" stop-color="#FF6F3D"/>
</linearGradient>
<linearGradient id="paint10_linear_811_2007" x1="390.147" y1="53.47" x2="393.478" y2="50.1394" gradientUnits="userSpaceOnUse">
<stop stop-color="#FF8E3D"/>
<stop offset="0.3567" stop-color="#FF883D"/>
<stop offset="0.8477" stop-color="#FF763D"/>
<stop offset="1" stop-color="#FF6F3D"/>
</linearGradient>
<linearGradient id="paint11_linear_811_2007" x1="400.139" y1="43.4784" x2="403.47" y2="40.1478" gradientUnits="userSpaceOnUse">
<stop stop-color="#FF8E3D"/>
<stop offset="0.3567" stop-color="#FF883D"/>
<stop offset="0.8477" stop-color="#FF763D"/>
<stop offset="1" stop-color="#FF6F3D"/>
</linearGradient>
<linearGradient id="paint12_linear_811_2007" x1="393.478" y1="50.1395" x2="400.139" y2="43.4784" gradientUnits="userSpaceOnUse">
<stop stop-color="#FF8E3D"/>
<stop offset="0.3567" stop-color="#FF883D"/>
<stop offset="0.8477" stop-color="#FF763D"/>
<stop offset="1" stop-color="#FF6F3D"/>
</linearGradient>
<linearGradient id="paint13_linear_811_2007" x1="403.803" y1="56.4675" x2="406.467" y2="53.803" gradientUnits="userSpaceOnUse">
<stop stop-color="#FF8E3D"/>
<stop offset="0.3567" stop-color="#FF883D"/>
<stop offset="0.8477" stop-color="#FF763D"/>
<stop offset="1" stop-color="#FF6F3D"/>
</linearGradient>
</defs>
<path fill-rule="evenodd" clip-rule="evenodd" d="M405.5 62.5H367.5V9.5H397.5L405.5 17.5V62.5Z" fill="white"/>
<path fill-rule="evenodd" clip-rule="evenodd" d="M367 9.5C367 9.22386 367.224 9 367.5 9H397.5C397.633 9 397.76 9.05268 397.854 9.14645L405.854 17.1464C405.947 17.2402 406 17.3674 406 17.5V35.5C406 35.7761 405.776 36 405.5 36C405.224 36 405 35.7761 405 35.5V17.7071L397.293 10H368V62H402.5C402.776 62 403 62.2239 403 62.5C403 62.7761 402.776 63 402.5 63H367.5C367.224 63 367 62.7761 367 62.5V9.5Z" fill="#333333"/>
<path fill-rule="evenodd" clip-rule="evenodd" d="M405.5 17.5H397.5V9.5L405.5 17.5Z" fill="url(#paint9_linear_811_2007)"/>
<path fill-rule="evenodd" clip-rule="evenodd" d="M397.309 9.03807C397.495 8.96068 397.711 9.00346 397.854 9.14646L405.854 17.1465C405.997 17.2895 406.039 17.5045 405.962 17.6914C405.885 17.8782 405.702 18 405.5 18H397.5C397.224 18 397 17.7762 397 17.5V9.50001C397 9.29778 397.122 9.11547 397.309 9.03807ZM398 10.7071V17H404.293L398 10.7071Z" fill="#333333"/>
<path d="M388.5 15H372.5C372.2 15 372 14.8 372 14.5C372 14.2 372.2 14 372.5 14H388.5C388.8 14 389 14.2 389 14.5C389 14.8 388.8 15 388.5 15Z" fill="#333333"/>
<path d="M388.5 19H372.5C372.2 19 372 18.8 372 18.5C372 18.2 372.2 18 372.5 18H388.5C388.8 18 389 18.2 389 18.5C389 18.8 388.8 19 388.5 19Z" fill="#333333"/>
<path d="M400.5 23H372.5C372.2 23 372 22.8 372 22.5C372 22.2 372.2 22 372.5 22H400.5C400.8 22 401 22.2 401 22.5C401 22.8 400.8 23 400.5 23Z" fill="#333333"/>
<path d="M400.5 27H372.5C372.2 27 372 26.8 372 26.5C372 26.2 372.2 26 372.5 26H400.5C400.8 26 401 26.2 401 26.5C401 26.8 400.8 27 400.5 27Z" fill="#333333"/>
<path d="M400.5 31H372.5C372.2 31 372 30.8 372 30.5C372 30.2 372.2 30 372.5 30H400.5C400.8 30 401 30.2 401 30.5C401 30.8 400.8 31 400.5 31Z" fill="#333333"/>
<path d="M388.5 35H372.5C372.2 35 372 34.8 372 34.5C372 34.2 372.2 34 372.5 34H388.5C388.8 34 389 34.2 389 34.5C389 34.8 388.8 35 388.5 35Z" fill="#333333"/>
<path d="M388.5 39H372.5C372.2 39 372 38.8 372 38.5C372 38.2 372.2 38 372.5 38H388.5C388.8 38 389 38.2 389 38.5C389 38.8 388.8 39 388.5 39Z" fill="#333333"/>
<path d="M397.145 53.8333L393.848 57.1304L386.5 49.7826L389.797 46.4855L397.145 53.8333Z" fill="url(#paint10_linear_811_2007)"/>
<path fill-rule="evenodd" clip-rule="evenodd" d="M389.444 46.1319C389.639 45.9367 389.955 45.9367 390.151 46.1319L397.498 53.4797C397.592 53.5735 397.645 53.7007 397.645 53.8333C397.645 53.9659 397.592 54.0931 397.498 54.1869L394.201 57.484C394.006 57.6792 393.69 57.6792 393.494 57.484L386.146 50.1361C386.053 50.0424 386 49.9152 386 49.7826C386 49.65 386.053 49.5228 386.146 49.429L389.444 46.1319ZM389.797 47.1926L387.207 49.7826L393.848 56.4233L396.438 53.8333L389.797 47.1926Z" fill="#333333"/>
<path d="M407.131 43.8478L403.833 47.1449L396.486 39.7971L399.783 36.5L407.131 43.8478Z" fill="url(#paint11_linear_811_2007)"/>
<path fill-rule="evenodd" clip-rule="evenodd" d="M399.783 36C399.915 36 400.042 36.0527 400.136 36.1464L407.484 43.4943C407.679 43.6895 407.679 44.0061 407.484 44.2014L404.187 47.4985C404.093 47.5923 403.966 47.6449 403.833 47.6449C403.701 47.6449 403.574 47.5922 403.48 47.4985L396.132 40.1507C395.937 39.9554 395.937 39.6388 396.132 39.4435L399.429 36.1464C399.523 36.0527 399.65 36 399.783 36ZM397.193 39.7971L403.833 46.4378L406.423 43.8478L399.783 37.2071L397.193 39.7971Z" fill="#333333"/>
<path d="M402.515 45.8261L395.826 52.5145L391.116 47.8044L397.804 41.116L402.515 45.8261Z" fill="url(#paint12_linear_811_2007)"/>
<path fill-rule="evenodd" clip-rule="evenodd" d="M397.451 40.7624C397.646 40.5672 397.963 40.5672 398.158 40.7624L402.868 45.4726C402.962 45.5663 403.015 45.6935 403.015 45.8261C403.015 45.9587 402.962 46.0859 402.868 46.1797L396.18 52.8681C395.984 53.0633 395.668 53.0633 395.473 52.8681L390.762 48.1579C390.567 47.9627 390.567 47.6461 390.762 47.4508L397.451 40.7624ZM397.804 41.8231L391.823 47.8044L395.826 51.8074L401.807 45.8261L397.804 41.8231Z" fill="#333333"/>
<path d="M412.5 59.7681L409.768 62.5L397.804 50.442L400.442 47.8043L412.5 59.7681Z" fill="url(#paint13_linear_811_2007)"/>
<path fill-rule="evenodd" clip-rule="evenodd" d="M400.089 47.4508C400.283 47.256 400.599 47.2554 400.794 47.4494L412.852 59.4131C412.947 59.5068 413 59.6342 413 59.7671C413 59.9001 412.948 60.0276 412.854 60.1216L410.122 62.8535C410.028 62.9475 409.9 63.0002 409.767 63C409.634 62.9997 409.507 62.9465 409.413 62.8521L397.45 50.7942C397.256 50.5987 397.256 50.2832 397.451 50.0884L400.089 47.4508ZM400.444 48.51L398.51 50.4434L409.77 61.7915L411.792 59.7695L400.444 48.51Z" fill="#333333"/>
<path d="M378.5 55.5C380.157 55.5 381.5 54.1569 381.5 52.5C381.5 50.8431 380.157 49.5 378.5 49.5C376.843 49.5 375.5 50.8431 375.5 52.5C375.5 54.1569 376.843 55.5 378.5 55.5Z" fill="#BDECFF"/>
<path fill-rule="evenodd" clip-rule="evenodd" d="M378.5 50C377.119 50 376 51.1193 376 52.5C376 53.8807 377.119 55 378.5 55C379.881 55 381 53.8807 381 52.5C381 51.1193 379.881 50 378.5 50ZM375 52.5C375 50.567 376.567 49 378.5 49C380.433 49 382 50.567 382 52.5C382 54.433 380.433 56 378.5 56C376.567 56 375 54.433 375 52.5Z" fill="#333333"/>
<path fill-rule="evenodd" clip-rule="evenodd" d="M378.5 48C376.015 48 374 50.0147 374 52.5C374 54.9853 376.015 57 378.5 57C380.985 57 383 54.9853 383 52.5C383 50.0147 380.985 48 378.5 48ZM373 52.5C373 49.4624 375.462 47 378.5 47C381.538 47 384 49.4624 384 52.5C384 55.5376 381.538 58 378.5 58C375.462 58 373 55.5376 373 52.5Z" fill="#333333"/>
</svg>