<svg xmlns="http://www.w3.org/2000/svg" width="43" height="55" viewBox="455 9 43 55" fill="none">
<defs>
<linearGradient id="paint14_linear_811_2007" x1="485.5" y1="13.5" x2="493.5" y2="13.5" gradientUnits="userSpaceOnUse">
<stop stop-color="#FF8E3D"/>
<stop offset="0.3567" stop-color="#FF883D"/>
<stop offset="0.8477" stop-color="#FF763D"/>
<stop offset="1" stop-color="#FF6F3D"/>
</linearGradient>
<linearGradient id="paint15_linear_811_2007" x1="480.591" y1="42.7005" x2="494.608" y2="42.7005" gradientUnits="userSpaceOnUse">
<stop stop-color="#FF8E3D"/>
<stop offset="0.3567" stop-color="#FF883D"/>
<stop offset="0.8477" stop-color="#FF763D"/>
<stop offset="1" stop-color="#FF6F3D"/>
</linearGradient>
</defs>
<path fill-rule="evenodd" clip-rule="evenodd" d="M494 63H455V9H485.789L494 17.1509V63Z" fill="white"/>
<path fill-rule="evenodd" clip-rule="evenodd" d="M455 9.5C455 9.22386 455.224 9 455.5 9H485.5C485.633 9 485.76 9.05268 485.854 9.14645L493.854 17.1464C493.947 17.2402 494 17.3674 494 17.5V32.5C494 32.7761 493.776 33 493.5 33C493.224 33 493 32.7761 493 32.5V17.7071L485.293 10H456V62H466.5C466.776 62 467 62.2239 467 62.5C467 62.7761 466.776 63 466.5 63H455.5C455.224 63 455 62.7761 455 62.5V9.5Z" fill="#333333"/>
<path fill-rule="evenodd" clip-rule="evenodd" d="M493.5 17.5H485.5V9.5L493.5 17.5Z" fill="url(#paint14_linear_811_2007)"/>
<path fill-rule="evenodd" clip-rule="evenodd" d="M485.309 9.03807C485.495 8.96068 485.711 9.00346 485.854 9.14646L493.854 17.1465C493.997 17.2895 494.039 17.5045 493.962 17.6914C493.885 17.8782 493.702 18 493.5 18H485.5C485.224 18 485 17.7762 485 17.5V9.50001C485 9.29778 485.122 9.11547 485.309 9.03807ZM486 10.7071V17H492.293L486 10.7071Z" fill="#333333"/>
<path d="M476.5 15H460.5C460.2 15 460 14.8 460 14.5C460 14.2 460.2 14 460.5 14H476.5C476.8 14 477 14.2 477 14.5C477 14.8 476.8 15 476.5 15Z" fill="#333333"/>
<path d="M476.5 19H460.5C460.2 19 460 18.8 460 18.5C460 18.2 460.2 18 460.5 18H476.5C476.8 18 477 18.2 477 18.5C477 18.8 476.8 19 476.5 19Z" fill="#333333"/>
<path d="M488.5 23H460.5C460.2 23 460 22.8 460 22.5C460 22.2 460.2 22 460.5 22H488.5C488.8 22 489 22.2 489 22.5C489 22.8 488.8 23 488.5 23Z" fill="#333333"/>
<path d="M488.5 27H460.5C460.2 27 460 26.8 460 26.5C460 26.2 460.2 26 460.5 26H488.5C488.8 26 489 26.2 489 26.5C489 26.8 488.8 27 488.5 27Z" fill="#333333"/>
<path d="M488.5 31H460.5C460.2 31 460 30.8 460 30.5C460 30.2 460.2 30 460.5 30H488.5C488.8 30 489 30.2 489 30.5C489 30.8 488.8 31 488.5 31Z" fill="#333333"/>
<path d="M476.5 35H460.5C460.2 35 460 34.8 460 34.5C460 34.2 460.2 34 460.5 34H476.5C476.8 34 477 34.2 477 34.5C477 34.8 476.8 35 476.5 35Z" fill="#333333"/>
<path d="M476.5 39H460.5C460.2 39 460 38.8 460 38.5C460 38.2 460.2 38 460.5 38H476.5C476.8 38 477 38.2 477 38.5C477 38.8 476.8 39 476.5 39Z" fill="#333333"/>
<path d="M476.5 43H460.5C460.2 43 460 42.8 460 42.5C460 42.2 460.2 42 460.5 42H476.5C476.8 42 477 42.2 477 42.5C477 42.8 476.8 43 476.5 43Z" fill="#333333"/>
<path d="M476.5 47H460.5C460.2 47 460 46.8 460 46.5C460 46.2 460.2 46 460.5 46H476.5C476.8 46 477 46.2 477 46.5C477 46.8 476.8 47 476.5 47Z" fill="#333333"/>
<path d="M493.4 37.5C492.7 36.8 491.8 36.5 490.8 36.5C489.438 36.5 488.5 37 487.5 38C486.5 37 485.66 36.5 484.5 36.5C483.6 36.5 482.5 36.8 481.8 37.5C480.2 39 480 41.5 481.7 43L487.6 48.5L493 43.5C495 41.5 495 39 493.4 37.5Z" fill="url(#paint15_linear_811_2007)"/>
<path fill-rule="evenodd" clip-rule="evenodd" d="M481.452 37.1407C482.276 36.3214 483.519 36 484.5 36C485.697 36 486.587 36.4736 487.502 37.3094C488.455 36.4575 489.442 36 490.8 36C491.902 36 492.937 36.333 493.748 37.1407C494.65 37.9899 495.106 39.1293 495.049 40.336C494.993 41.5418 494.427 42.7799 493.354 43.8536C493.349 43.8581 493.344 43.8625 493.34 43.8669L487.94 48.8669C487.747 49.0448 487.451 49.0443 487.259 48.8657L481.364 43.3703C479.413 41.643 479.683 38.8051 481.452 37.1407ZM484.5 37C483.684 37 482.73 37.277 482.153 37.8536L482.142 37.8648C480.718 39.1996 480.59 41.3538 482.031 42.6251L482.041 42.6341L482.041 42.6343L487.601 47.8175L492.653 43.1398C493.575 42.2152 494.007 41.206 494.05 40.289C494.094 39.3734 493.752 38.5151 493.058 37.8648L493.046 37.8536C492.458 37.2654 491.695 37 490.8 37C489.603 37 488.786 37.4213 487.854 38.3536C487.658 38.5488 487.342 38.5488 487.146 38.3536C486.191 37.398 485.471 37 484.5 37Z" fill="#333333"/>
<path d="M497 53C496.1 52.4 495.2 52.5 494.4 53C493.5 53.5 488.5 58.5 488.5 58.5H483.4C482.406 58.5 482.265 56.5 483.5 56.5H486.5C487.6 56.5 488.5 56.2 488.5 55C488.5 53.7 487.6 53.5 486.5 53.5C484.6 53.5 484 53.5 484 53.5C482.484 53.5 481.18 52.5 479.5 52.5C477.9 52.5 477 52.9 476 54L471.5 59L476 64.5L478.5 62.5H488C489 62.5 490.2 62.1 491 61.5L497.5 54.5C497.7 54 497.5 53.3 497 53Z" fill="white"/>
<path fill-rule="evenodd" clip-rule="evenodd" d="M477.327 52.3785C477.96 52.1048 478.659 52 479.5 52C480.435 52 481.255 52.2793 481.974 52.5273L481.991 52.5331C482.727 52.7868 483.346 53 484 53H486.5C487.054 53 487.676 53.0446 488.165 53.3312C488.715 53.6532 489 54.2156 489 55C489 55.7483 488.705 56.2963 488.176 56.6248C487.692 56.9251 487.076 57 486.5 57H483.5C483.343 57 483.268 57.0553 483.219 57.1183C483.158 57.1973 483.112 57.3298 483.114 57.4949C483.116 57.6599 483.165 57.8061 483.23 57.8972C483.287 57.9782 483.342 58 483.4 58H488.293L488.364 57.9296C488.503 57.7916 488.702 57.5939 488.944 57.3551C489.428 56.8776 490.082 56.2355 490.766 55.5774C491.448 54.9198 492.162 54.2438 492.763 53.6997C493.063 53.4278 493.338 53.186 493.569 52.9948C493.785 52.8164 493.989 52.6589 494.145 52.5698C494.6 52.287 495.107 52.1031 495.648 52.0877C496.195 52.0721 496.742 52.2296 497.268 52.5778C497.634 52.8014 497.872 53.1572 497.989 53.5234C498.106 53.8913 498.114 54.3121 497.964 54.6857C497.941 54.7428 497.908 54.7952 497.866 54.8402L491.366 61.8402C491.346 61.8621 491.324 61.8821 491.3 61.9C490.413 62.5649 489.108 63 488 63H478.675L476.312 64.8904C476.098 65.0616 475.787 65.0287 475.613 64.8166L471.113 59.3166C470.957 59.1256 470.963 58.849 471.128 58.6655L475.628 53.6655L475.63 53.6637C476.16 53.0802 476.691 52.6529 477.327 52.3785ZM488.854 58.8536C488.76 58.9473 488.633 59 488.5 59H483.4C482.961 59 482.625 58.7718 482.416 58.4778C482.213 58.1939 482.118 57.8401 482.114 57.5051C482.111 57.1702 482.199 56.8027 482.428 56.5067C482.669 56.1946 483.039 56 483.5 56H486.5C487.024 56 487.408 55.9249 487.649 55.7752C487.845 55.6537 488 55.4517 488 55C488 54.4844 487.835 54.2968 487.66 54.1938C487.424 54.0554 487.046 54 486.5 54H484.001C483.176 54 482.416 53.7378 481.73 53.501C481.703 53.4915 481.676 53.4821 481.649 53.4727C480.917 53.2207 480.246 53 479.5 53C478.741 53 478.19 53.0952 477.723 53.2965C477.259 53.497 476.84 53.8195 476.371 54.3354C476.371 54.3357 476.37 54.336 476.37 54.3363L472.159 59.0155L476.074 63.8006L478.188 62.1096C478.276 62.0386 478.386 62 478.5 62H488C488.877 62 489.951 61.6468 490.665 61.1257L497.059 54.2401C497.087 54.1223 497.083 53.9755 497.036 53.8266C496.979 53.6464 496.871 53.5055 496.743 53.4287C496.736 53.4247 496.729 53.4204 496.723 53.416C496.351 53.1686 496.002 53.078 495.677 53.0873C495.347 53.0967 495.007 53.2102 494.665 53.424C494.658 53.4285 494.65 53.4329 494.643 53.4371C494.576 53.4743 494.432 53.5788 494.207 53.7649C493.992 53.9429 493.729 54.1737 493.434 54.4409C492.844 54.9749 492.139 55.6427 491.459 56.2976C490.78 56.952 490.128 57.5911 489.647 58.0668C489.406 58.3046 489.207 58.5014 489.069 58.6387L488.909 58.7977L488.854 58.8527L488.854 58.8536Z" fill="#333333"/>
</svg>