<svg width="47" height="54" viewBox="0 0 47 54" fill="none" xmlns="http://www.w3.org/2000/svg">
<g clip-path="url(#clip0_140_934)">
<path fill-rule="evenodd" clip-rule="evenodd" d="M38.5 53.5H0.5V0.5H30.5L38.5 8.5V53.5Z" fill="white"/>
<path d="M35.5 53.5H0.5V0.5H30.5L38.5 8.5V26.5" stroke="#333333" stroke-miterlimit="10" stroke-linecap="round" stroke-linejoin="round"/>
<path fill-rule="evenodd" clip-rule="evenodd" d="M38.5 8.5H30.5V0.5L38.5 8.5Z" fill="url(#paint0_linear_140_934)" stroke="#333333" stroke-miterlimit="10" stroke-linecap="round" stroke-linejoin="round"/>
<path d="M21.5 6H5.5C5.2 6 5 5.8 5 5.5C5 5.2 5.2 5 5.5 5H21.5C21.8 5 22 5.2 22 5.5C22 5.8 21.8 6 21.5 6Z" fill="#333333"/>
<path d="M21.5 10H5.5C5.2 10 5 9.8 5 9.5C5 9.2 5.2 9 5.5 9H21.5C21.8 9 22 9.2 22 9.5C22 9.8 21.8 10 21.5 10Z" fill="#333333"/>
<path d="M33.5 14H5.5C5.2 14 5 13.8 5 13.5C5 13.2 5.2 13 5.5 13H33.5C33.8 13 34 13.2 34 13.5C34 13.8 33.8 14 33.5 14Z" fill="#333333"/>
<path d="M33.5 18H5.5C5.2 18 5 17.8 5 17.5C5 17.2 5.2 17 5.5 17H33.5C33.8 17 34 17.2 34 17.5C34 17.8 33.8 18 33.5 18Z" fill="#333333"/>
<path d="M33.5 22H5.5C5.2 22 5 21.8 5 21.5C5 21.2 5.2 21 5.5 21H33.5C33.8 21 34 21.2 34 21.5C34 21.8 33.8 22 33.5 22Z" fill="#333333"/>
<path d="M21.5 26H5.5C5.2 26 5 25.8 5 25.5C5 25.2 5.2 25 5.5 25H21.5C21.8 25 22 25.2 22 25.5C22 25.8 21.8 26 21.5 26Z" fill="#333333"/>
<path d="M14.9001 39.9999C12.8001 39.9999 11.1001 38.2999 11.1001 36.1999C11.1001 34.0999 12.8001 32.3999 14.9001 32.3999C17.0001 32.3999 18.7001 34.0999 18.7001 36.1999C18.7001 38.2999 17.0001 39.9999 14.9001 39.9999Z" fill="url(#paint1_linear_140_934)"/>
<path d="M14.9001 33C16.7001 33 18.2001 34.5 18.2001 36.3C18.2001 38.1 16.7001 39.5 14.9001 39.5C13.1001 39.5 11.6001 38 11.6001 36.3C11.6001 34.5 13.1001 33 14.9001 33ZM14.9001 32C12.5001 32 10.6001 33.9 10.6001 36.3C10.6001 38.6 12.5001 40.5 14.9001 40.5C17.3001 40.5 19.2001 38.6 19.2001 36.3C19.2001 33.9 17.2001 32 14.9001 32Z" fill="#333333"/>
<path d="M37.8997 39.9999C35.7997 39.9999 34.0996 38.2999 34.0996 36.1999C34.0996 34.0999 35.7997 32.3999 37.8997 32.3999C39.9997 32.3999 41.6996 34.0999 41.6996 36.1999C41.6996 38.2999 39.9997 39.9999 37.8997 39.9999Z" fill="url(#paint2_linear_140_934)"/>
<path d="M37.8997 33C39.6997 33 41.1996 34.5 41.1996 36.3C41.1996 38.1 39.6997 39.5 37.8997 39.5C36.0997 39.5 34.5996 38 34.5996 36.3C34.5996 34.5 36.0997 33 37.8997 33ZM37.8997 32C35.4997 32 33.5996 33.9 33.5996 36.3C33.5996 38.6 35.4997 40.5 37.8997 40.5C40.2997 40.5 42.1996 38.6 42.1996 36.3C42.1996 33.9 40.1997 32 37.8997 32Z" fill="#333333"/>
<path d="M26.8997 39.9999C24.7997 39.9999 23.0996 38.2999 23.0996 36.1999C23.0996 34.0999 24.7997 32.3999 26.8997 32.3999C28.9997 32.3999 30.6996 34.0999 30.6996 36.1999C30.6996 38.2999 28.9997 39.9999 26.8997 39.9999Z" fill="url(#paint3_linear_140_934)"/>
<path d="M26.8997 33C28.6997 33 30.1996 34.5 30.1996 36.3C30.1996 38.1 28.6997 39.5 26.8997 39.5C25.0997 39.5 23.5996 38 23.5996 36.3C23.5996 34.5 25.0997 33 26.8997 33ZM26.8997 32C24.4997 32 22.5996 33.9 22.5996 36.3C22.5996 38.6 24.4997 40.5 26.8997 40.5C29.2997 40.5 31.1996 38.6 31.1996 36.3C31.1996 33.9 29.1997 32 26.8997 32Z" fill="#333333"/>
<path d="M19.5004 48.5C19.3004 48.5 19.2004 48.4 19.1004 48.3C19.0004 48.2 18.9004 48 19.0004 47.8C19.4004 45.3 20.9004 43.2 23.2004 42C24.3004 42.8 25.6004 43.1 27.0004 43.1C28.3004 43.1 29.6004 42.7 30.8004 42C33.1004 43.2 34.7004 45.4 35.0004 47.8C35.0004 48 35.0004 48.1 34.9004 48.3C34.8004 48.4 34.6004 48.5 34.5004 48.5H19.5004Z" fill="url(#paint4_linear_140_934)"/>
<path d="M30.7001 42.5999C32.7001 43.7999 34.1001 45.6999 34.4001 47.8999V47.9999C34.4001 47.9999 34.4 47.9999 34.3 47.9999H19.5C19.5 47.9999 19.5001 47.9999 19.4001 47.9999C19.4001 47.9999 19.4001 47.9999 19.4001 47.8999C19.7001 45.6999 21.1 43.6999 23.1 42.5999C24.3 43.2999 25.6001 43.6999 26.9001 43.6999C28.2001 43.5999 29.5001 43.2999 30.7001 42.5999ZM30.6 41.3999C29.5 42.1999 28.3001 42.5999 26.9001 42.5999C25.5001 42.5999 24.2001 42.0999 23.2001 41.3999C20.7001 42.5999 18.9 44.8999 18.5 47.7999C18.4 48.4999 18.9 48.9999 19.6 48.9999H34.5C35.2 48.9999 35.7 48.3999 35.6 47.7999C35 44.8999 33.1 42.5999 30.6 41.3999Z" fill="#333333"/>
<path d="M7.49992 48.5C7.29992 48.5 7.1999 48.4 7.0999 48.3C6.9999 48.2 6.89992 48 6.99992 47.8C7.39992 45.3 8.89993 43.2 11.1999 42C12.2999 42.8 13.5999 43.1 14.9999 43.1C16.2999 43.1 17.5999 42.7 18.7999 42C18.9999 42.1 19.1999 42.2 19.3999 42.4C17.6999 44 16.5999 46.2 16.1999 48.5C16.1999 48.5 16.1999 48.5 16.1999 48.6H7.49992V48.5Z" fill="url(#paint5_linear_140_934)"/>
<path d="M11.1 42.5999C12.3 43.2999 13.6 43.6999 14.9 43.6999C16 43.6999 17.1 43.3999 18.1 42.8999C16.9 44.3999 16 46.0999 15.7 47.9999H7.50001C7.50001 47.9999 7.50003 47.9999 7.40003 47.9999C7.40003 47.9999 7.40003 47.9999 7.40003 47.8999C7.70003 45.6999 9.09998 43.6999 11.1 42.5999ZM18.6 41.3999C17.5 42.1999 16.3 42.5999 14.9 42.5999C13.5 42.5999 12.2 42.0999 11.2 41.3999C8.70002 42.5999 6.90001 44.8999 6.50001 47.7999C6.30001 48.3999 6.80001 48.9999 7.50001 48.9999H16.6C16.6 48.7999 16.5 48.6999 16.6 48.4999C17 45.9999 18.2 43.8999 20.1 42.2999C19.6 41.9999 19.1 41.6999 18.6 41.3999Z" fill="#333333"/>
<path d="M37.5004 48.5C37.1004 46 35.9004 43.8 33.9004 42.1C34.0004 42 34.0003 42 34.1003 42C35.2003 42.8 36.5004 43.1 37.9004 43.1C39.3004 43.1 40.5004 42.7 41.7004 42C44.0004 43.2 45.6004 45.4 45.9004 47.8C45.9004 48 45.9004 48.1 45.8004 48.3C45.7004 48.4 45.5004 48.5 45.4004 48.5H37.5004Z" fill="url(#paint6_linear_140_934)"/>
<path d="M41.6996 42.5999C43.6996 43.7999 45.0997 45.6999 45.3997 47.8999V47.9999C45.3997 47.9999 45.3996 47.9999 45.2996 47.9999H37.8997C37.5997 46.2999 36.8996 44.6999 35.7996 43.2999C36.4996 43.4999 37.1997 43.5999 37.8997 43.5999C39.1997 43.5999 40.4996 43.2999 41.6996 42.5999ZM41.5996 41.3999C40.4996 42.1999 39.2997 42.5999 37.8997 42.5999C36.4997 42.5999 35.1996 42.0999 34.1996 41.3999C33.7996 41.5999 33.4996 41.7999 33.0996 41.9999C35.0996 43.5999 36.5996 45.7999 36.9996 48.4999C36.9996 48.6999 36.9996 48.7999 36.9996 48.9999H45.3997C46.0997 48.9999 46.5996 48.3999 46.4996 47.7999C45.9996 44.8999 44.0996 42.5999 41.5996 41.3999Z" fill="#333333"/>
</g>
<defs>
<linearGradient id="paint0_linear_140_934" x1="30.5" y1="4.5" x2="38.5" y2="4.5" gradientUnits="userSpaceOnUse">
<stop stop-color="#FF8E3D"/>
<stop offset="0.3567" stop-color="#FF883D"/>
<stop offset="0.8477" stop-color="#FF763D"/>
<stop offset="1" stop-color="#FF6F3D"/>
</linearGradient>
<linearGradient id="paint1_linear_140_934" x1="11.1091" y1="36.2501" x2="18.7251" y2="36.2501" gradientUnits="userSpaceOnUse">
<stop stop-color="#FFC671"/>
<stop offset="0.5938" stop-color="#FF7541"/>
<stop offset="1" stop-color="#FF6F3D"/>
</linearGradient>
<linearGradient id="paint2_linear_140_934" x1="34.1086" y1="36.2501" x2="41.7246" y2="36.2501" gradientUnits="userSpaceOnUse">
<stop stop-color="#FFC671"/>
<stop offset="0.5938" stop-color="#FF7541"/>
<stop offset="1" stop-color="#FF6F3D"/>
</linearGradient>
<linearGradient id="paint3_linear_140_934" x1="23.1086" y1="36.2501" x2="30.7246" y2="36.2501" gradientUnits="userSpaceOnUse">
<stop stop-color="#FFC671"/>
<stop offset="0.5938" stop-color="#FF7541"/>
<stop offset="1" stop-color="#FF6F3D"/>
</linearGradient>
<linearGradient id="paint4_linear_140_934" x1="18.9174" y1="45.2399" x2="34.9174" y2="45.2399" gradientUnits="userSpaceOnUse">
<stop stop-color="#FFC671"/>
<stop offset="0.5938" stop-color="#FF7541"/>
<stop offset="1" stop-color="#FF6F3D"/>
</linearGradient>
<linearGradient id="paint5_linear_140_934" x1="6.91592" y1="45.2399" x2="19.2859" y2="45.2399" gradientUnits="userSpaceOnUse">
<stop stop-color="#FFC671"/>
<stop offset="0.5938" stop-color="#FF7541"/>
<stop offset="1" stop-color="#FF6F3D"/>
</linearGradient>
<linearGradient id="paint6_linear_140_934" x1="33.9294" y1="45.2399" x2="45.9174" y2="45.2399" gradientUnits="userSpaceOnUse">
<stop stop-color="#FFC671"/>
<stop offset="0.5938" stop-color="#FF7541"/>
<stop offset="1" stop-color="#FF6F3D"/>
</linearGradient>
<clipPath id="clip0_140_934">
<rect width="47" height="54" fill="white"/>
</clipPath>
</defs>
</svg>
