<svg width="65" height="61" viewBox="0 0 65 61" fill="none" xmlns="http://www.w3.org/2000/svg">
<g clip-path="url(#clip0_141_1555)">
<path d="M39.25 55H3.93994C2.26994 55 1 53.7 1 52V40C1 38.3 2.26994 37 3.93994 37H49.0601C50.7201 37 52 38.3 52 40V52C52 53.7 50.7201 55 49.0601 55H38.76" fill="white"/>
<path d="M14.73 36H3.93994C2.26994 36 1 34.7722 1 33.1667V21.8333C1 20.2278 2.26994 19 3.93994 19H26.5H49.0601C50.7301 19 52 20.2278 52 21.8333V33.1667C52 34.7722 50.7301 36 49.0601 36H38.76" fill="white"/>
<path d="M18.5 36.5H3.96997C1.95997 36.5 0.5 34.9942 0.5 33.0853V21.9636C0.5 20.0608 1.99998 18.5 3.97998 18.5H41.24M52.5 27.5V22.013C52.5 19.994 50.98 18.5 49.02 18.5H37.76" stroke="#333333" stroke-miterlimit="10" stroke-linecap="round" stroke-linejoin="round"/>
<path d="M49.03 18.5C51.04 18.5 52.5 16.9942 52.5 15.0853V3.9636C52.5 2.06077 51 0.5 49.02 0.5H3.97998C2.01998 0.5 0.5 1.99405 0.5 4.013V13.5" stroke="#333333" stroke-miterlimit="10" stroke-linecap="round" stroke-linejoin="round"/>
<path d="M15.5 54.5H3.96997C1.95997 54.5 0.5 52.9942 0.5 51.0853V39.9636C0.5 38.0608 1.99998 36.5 3.97998 36.5H19.02" stroke="#333333" stroke-miterlimit="10" stroke-linecap="round" stroke-linejoin="round"/>
<path d="M38.27 18H3.93994C2.26994 18 1 16.7722 1 15.1667V3.8333C1 2.22778 2.26994 1 3.93994 1H49.0601C50.7201 1 52 2.22778 52 3.8333V15.1667C52 16.7722 50.7201 18 49.0601 18H38.76" fill="white"/>
<path d="M9 11.5C10.3807 11.5 11.5 10.3807 11.5 9C11.5 7.61929 10.3807 6.5 9 6.5C7.61929 6.5 6.5 7.61929 6.5 9C6.5 10.3807 7.61929 11.5 9 11.5Z" fill="url(#paint0_linear_141_1555)" stroke="#333333"/>
<path d="M9 29.5C10.3807 29.5 11.5 28.3807 11.5 27C11.5 25.6193 10.3807 24.5 9 24.5C7.61929 24.5 6.5 25.6193 6.5 27C6.5 28.3807 7.61929 29.5 9 29.5Z" fill="url(#paint1_linear_141_1555)" stroke="#333333"/>
<path d="M9 47.5C10.3807 47.5 11.5 46.3807 11.5 45C11.5 43.6193 10.3807 42.5 9 42.5C7.61929 42.5 6.5 43.6193 6.5 45C6.5 46.3807 7.61929 47.5 9 47.5Z" fill="url(#paint2_linear_141_1555)" stroke="#333333"/>
<path d="M45.5 10H33.5C33.2 10 33 9.8 33 9.5C33 9.2 33.2 9 33.5 9H45.5C45.8 9 46 9.2 46 9.5C46 9.8 45.8 10 45.5 10Z" fill="#333333"/>
<path d="M29.09 58V57.9914C24.03 57.7778 20 53.6101 20 48.5C20 43.2533 24.25 39 29.5 39C30.05 39 30.59 39.0464 31.11 39.1355C33.18 34.3486 37.95 31 43.5 31C50.11 31 55.62 35.7573 56.78 42.0371C60.83 42.4273 64 45.8434 64 50C64 54.2869 60.63 57.7862 56.39 57.9906V58H29.09Z" fill="#D9F4FF"/>
<path d="M29.09 58C24.06 58 20 53.6101 20 48.5C20 43.2533 24.25 39 29.5 39C30.05 39 30.59 39.0464 31.11 39.1355C33.18 34.3486 37.95 31 43.5 31C50.11 31 55.62 35.7573 56.78 42.0371C60.83 42.4273 64 45.8434 64 50C64 54.2869 60.63 57.7862 56.39 57.9906" stroke="#333333" stroke-linecap="round"/>
<path d="M38 60.5C36.6 60.5 35.5 59.4 35.5 58V51C35.5 49.6 36.6 48.5 38 48.5H48C49.4 48.5 50.5 49.6 50.5 51V58C50.5 59.4 49.4 60.5 48 60.5H38Z" fill="url(#paint3_linear_141_1555)"/>
<path d="M48 49C49.1 49 50 49.9 50 51V58C50 59.1 49.1 60 48 60H38C36.9 60 36 59.1 36 58V51C36 49.9 36.9 49 38 49H48ZM48 48H38C36.3 48 35 49.3 35 51V58C35 59.7 36.3 61 38 61H48C49.7 61 51 59.7 51 58V51C51 49.3 49.7 48 48 48Z" fill="#333333"/>
<path d="M43 55.5C43.8284 55.5 44.5 54.8284 44.5 54C44.5 53.1716 43.8284 52.5 43 52.5C42.1716 52.5 41.5 53.1716 41.5 54C41.5 54.8284 42.1716 55.5 43 55.5Z" fill="white" stroke="#333333"/>
<path d="M38.21 48.6896V45.0984C38.21 42.4648 40.37 40.3101 43 40.3101C45.63 40.3101 47.79 42.4648 47.79 45.0984V48.6896H45.39L45.47 44.4128L44.41 42.9374L42.9301 42.5029L41.74 42.8465L40.66 43.9075L40.61 48.6896H38.21Z" fill="white"/>
<path d="M43 40C40.2 40 38 42.2 38 45V48V49H39H41H42H44H45H47H48V48V45C48 42.2 45.8 40 43 40ZM39 48V45C39 42.8 40.8 41 43 41C45.2 41 47 42.8 47 45V48H39Z" fill="#333333"/>
<path d="M43 43C44.1 43 45 44.1 45 45V48H41V45C41 44.1 41.9 43 43 43ZM43 42C41.3 42 40 43.6 40 45V48V49H41H45H46V48V45C46 43.6 44.7 42 43 42Z" fill="#333333"/>
</g>
<defs>
<linearGradient id="paint0_linear_141_1555" x1="7" y1="6.8437" x2="11" y2="11" gradientUnits="userSpaceOnUse">
<stop stop-color="#FF8E3D"/>
<stop offset="1" stop-color="#FF6F3D"/>
</linearGradient>
<linearGradient id="paint1_linear_141_1555" x1="7" y1="24.8437" x2="11" y2="29" gradientUnits="userSpaceOnUse">
<stop stop-color="#FF8E3D"/>
<stop offset="1" stop-color="#FF6F3D"/>
</linearGradient>
<linearGradient id="paint2_linear_141_1555" x1="7" y1="42.8437" x2="11" y2="47" gradientUnits="userSpaceOnUse">
<stop stop-color="#FF8E3D"/>
<stop offset="1" stop-color="#FF6F3D"/>
</linearGradient>
<linearGradient id="paint3_linear_141_1555" x1="35.5" y1="54.5002" x2="50.5" y2="54.5002" gradientUnits="userSpaceOnUse">
<stop stop-color="#FFC671"/>
<stop offset="0.5938" stop-color="#FF7541"/>
<stop offset="1" stop-color="#FF6F3D"/>
</linearGradient>
<clipPath id="clip0_141_1555">
<rect width="65" height="61" fill="white"/>
</clipPath>
</defs>
</svg>
