<svg width="736" height="460" viewBox="0 0 736 460" fill="none" xmlns="http://www.w3.org/2000/svg">
<g filter="url(#filter0_d_33_68416)">
<path d="M195 50.9347C195 46.0002 199.018 42 203.975 42H652.025C656.982 42 661 46.0002 661 50.9347V338.065C661 343 656.982 347 652.025 347H203.975C199.018 347 195 343 195 338.065V50.9347Z" fill="white"/>
<path d="M195.5 50.9347C195.5 46.2784 199.292 42.5 203.975 42.5H652.025C656.708 42.5 660.5 46.2784 660.5 50.9347V338.065C660.5 342.722 656.708 346.5 652.025 346.5H203.975C199.292 346.5 195.5 342.722 195.5 338.065V50.9347Z" stroke="#808080"/>
</g>
<rect x="347" y="120" width="294" height="1" fill="#ECEEF1"/>
<rect width="294" height="31" transform="translate(347 121)" fill="white"/>
<path d="M355 128C354.448 128 354 128.448 354 129V133C354 132.448 354.448 132 355 132H372C372.552 132 373 132.448 373 133V132C373 131.448 372.552 131 372 131H362V129C362 128.448 361.552 128 361 128H355Z" fill="#788790"/>
<rect x="354" y="132" width="19" height="12" rx="1" fill="#B2BBC0"/>
<path d="M387 136H495" stroke="#808080" stroke-width="2" stroke-linecap="round"/>
<path d="M511 136.5H596" stroke="#CCCCCC" stroke-linecap="round"/>
<path fill-rule="evenodd" clip-rule="evenodd" d="M637 131.375C637 132.203 636.328 132.875 635.5 132.875C634.672 132.875 634 132.203 634 131.375C634 130.547 634.672 129.875 635.5 129.875C636.328 129.875 637 130.547 637 131.375ZM637 136.375C637 137.203 636.328 137.875 635.5 137.875C634.672 137.875 634 137.203 634 136.375C634 135.547 634.672 134.875 635.5 134.875C636.328 134.875 637 135.547 637 136.375ZM635.5 142.875C636.328 142.875 637 142.203 637 141.375C637 140.547 636.328 139.875 635.5 139.875C634.672 139.875 634 140.547 634 141.375C634 142.203 634.672 142.875 635.5 142.875Z" fill="#A3A9AE"/>
<rect x="347" y="152" width="294" height="1" fill="#ECEEF1"/>
<rect width="294" height="31" transform="translate(347 153)" fill="white"/>
<path d="M355 160C354.448 160 354 160.448 354 161V165C354 164.448 354.448 164 355 164H372C372.552 164 373 164.448 373 165V164C373 163.448 372.552 163 372 163H362V161C362 160.448 361.552 160 361 160H355Z" fill="#788790"/>
<rect x="354" y="164" width="19" height="12" rx="1" fill="#B2BBC0"/>
<path d="M387 168H495" stroke="#808080" stroke-width="2" stroke-linecap="round"/>
<path d="M511 168.5H596" stroke="#CCCCCC" stroke-linecap="round"/>
<path fill-rule="evenodd" clip-rule="evenodd" d="M637 163.375C637 164.203 636.328 164.875 635.5 164.875C634.672 164.875 634 164.203 634 163.375C634 162.547 634.672 161.875 635.5 161.875C636.328 161.875 637 162.547 637 163.375ZM637 168.375C637 169.203 636.328 169.875 635.5 169.875C634.672 169.875 634 169.203 634 168.375C634 167.547 634.672 166.875 635.5 166.875C636.328 166.875 637 167.547 637 168.375ZM635.5 174.875C636.328 174.875 637 174.203 637 173.375C637 172.547 636.328 171.875 635.5 171.875C634.672 171.875 634 172.547 634 173.375C634 174.203 634.672 174.875 635.5 174.875Z" fill="#A3A9AE"/>
<rect x="347" y="184" width="294" height="1" fill="#ECEEF1"/>
<rect width="294" height="31" transform="translate(347 185)" fill="white"/>
<path d="M355 192C354.448 192 354 192.448 354 193V197C354 196.448 354.448 196 355 196H372C372.552 196 373 196.448 373 197V196C373 195.448 372.552 195 372 195H362V193C362 192.448 361.552 192 361 192H355Z" fill="#788790"/>
<rect x="354" y="196" width="19" height="12" rx="1" fill="#B2BBC0"/>
<path d="M387 200H495" stroke="#808080" stroke-width="2" stroke-linecap="round"/>
<path d="M511 200.5H596" stroke="#CCCCCC" stroke-linecap="round"/>
<path fill-rule="evenodd" clip-rule="evenodd" d="M637 195.375C637 196.203 636.328 196.875 635.5 196.875C634.672 196.875 634 196.203 634 195.375C634 194.547 634.672 193.875 635.5 193.875C636.328 193.875 637 194.547 637 195.375ZM637 200.375C637 201.203 636.328 201.875 635.5 201.875C634.672 201.875 634 201.203 634 200.375C634 199.547 634.672 198.875 635.5 198.875C636.328 198.875 637 199.547 637 200.375ZM635.5 206.875C636.328 206.875 637 206.203 637 205.375C637 204.547 636.328 203.875 635.5 203.875C634.672 203.875 634 204.547 634 205.375C634 206.203 634.672 206.875 635.5 206.875Z" fill="#A3A9AE"/>
<rect x="347" y="216" width="294" height="1" fill="#ECEEF1"/>
<rect width="294" height="31" transform="translate(347 217)" fill="white"/>
<path d="M364.293 224.5L368.5 228.707L368.5 238.5L357.5 238.5L357.5 224.5L364.293 224.5Z" stroke="#B4BBBF"/>
<rect x="359" y="233" width="8" height="4" fill="#FF6F3D"/>
<path d="M387 232H495" stroke="#808080" stroke-width="2" stroke-linecap="round"/>
<path d="M511 232.5H596" stroke="#CCCCCC" stroke-linecap="round"/>
<path fill-rule="evenodd" clip-rule="evenodd" d="M637 227.375C637 228.203 636.328 228.875 635.5 228.875C634.672 228.875 634 228.203 634 227.375C634 226.547 634.672 225.875 635.5 225.875C636.328 225.875 637 226.547 637 227.375ZM637 232.375C637 233.203 636.328 233.875 635.5 233.875C634.672 233.875 634 233.203 634 232.375C634 231.547 634.672 230.875 635.5 230.875C636.328 230.875 637 231.547 637 232.375ZM635.5 238.875C636.328 238.875 637 238.203 637 237.375C637 236.547 636.328 235.875 635.5 235.875C634.672 235.875 634 236.547 634 237.375C634 238.203 634.672 238.875 635.5 238.875Z" fill="#A3A9AE"/>
<rect x="347" y="248" width="294" height="1" fill="#ECEEF1"/>
<rect width="294" height="31" transform="translate(347 249)" fill="white"/>
<path d="M364.293 256.5L368.5 260.707L368.5 270.5L357.5 270.5L357.5 256.5L364.293 256.5Z" stroke="#B4BBBF"/>
<rect x="359" y="265" width="8" height="4" fill="#27ABA3"/>
<path d="M387 264H495" stroke="#808080" stroke-width="2" stroke-linecap="round"/>
<path d="M511 264.5H596" stroke="#CCCCCC" stroke-linecap="round"/>
<path fill-rule="evenodd" clip-rule="evenodd" d="M637 259.375C637 260.203 636.328 260.875 635.5 260.875C634.672 260.875 634 260.203 634 259.375C634 258.547 634.672 257.875 635.5 257.875C636.328 257.875 637 258.547 637 259.375ZM637 264.375C637 265.203 636.328 265.875 635.5 265.875C634.672 265.875 634 265.203 634 264.375C634 263.547 634.672 262.875 635.5 262.875C636.328 262.875 637 263.547 637 264.375ZM635.5 270.875C636.328 270.875 637 270.203 637 269.375C637 268.547 636.328 267.875 635.5 267.875C634.672 267.875 634 268.547 634 269.375C634 270.203 634.672 270.875 635.5 270.875Z" fill="#A3A9AE"/>
<rect x="347" y="280" width="294" height="1" fill="#ECEEF1"/>
<rect width="294" height="31" transform="translate(347 281)" fill="white"/>
<path d="M364.293 288.5L368.5 292.707L368.5 302.5L357.5 302.5L357.5 288.5L364.293 288.5Z" stroke="#B4BBBF"/>
<rect x="359" y="297" width="8" height="4" fill="#1E7AAA"/>
<path d="M387 296H495" stroke="#808080" stroke-width="2" stroke-linecap="round"/>
<path d="M511 296.5H596" stroke="#CCCCCC" stroke-linecap="round"/>
<path fill-rule="evenodd" clip-rule="evenodd" d="M637 291.375C637 292.203 636.328 292.875 635.5 292.875C634.672 292.875 634 292.203 634 291.375C634 290.547 634.672 289.875 635.5 289.875C636.328 289.875 637 290.547 637 291.375ZM637 296.375C637 297.203 636.328 297.875 635.5 297.875C634.672 297.875 634 297.203 634 296.375C634 295.547 634.672 294.875 635.5 294.875C636.328 294.875 637 295.547 637 296.375ZM635.5 302.875C636.328 302.875 637 302.203 637 301.375C637 300.547 636.328 299.875 635.5 299.875C634.672 299.875 634 300.547 634 301.375C634 302.203 634.672 302.875 635.5 302.875Z" fill="#A3A9AE"/>
<rect x="347" y="312" width="294" height="1" fill="#ECEEF1"/>
<rect width="294" height="31" transform="translate(347 313)" fill="white"/>
<path d="M364.293 320.5L368.5 324.707L368.5 334.5L357.5 334.5L357.5 320.5L364.293 320.5Z" stroke="#B4BBBF"/>
<rect x="359" y="329" width="8" height="4" fill="#A671D8"/>
<path d="M387 328H495" stroke="#808080" stroke-width="2" stroke-linecap="round"/>
<path d="M511 328.5H596" stroke="#CCCCCC" stroke-linecap="round"/>
<path fill-rule="evenodd" clip-rule="evenodd" d="M637 323.375C637 324.203 636.328 324.875 635.5 324.875C634.672 324.875 634 324.203 634 323.375C634 322.547 634.672 321.875 635.5 321.875C636.328 321.875 637 322.547 637 323.375ZM637 328.375C637 329.203 636.328 329.875 635.5 329.875C634.672 329.875 634 329.203 634 328.375C634 327.547 634.672 326.875 635.5 326.875C636.328 326.875 637 327.547 637 328.375ZM635.5 334.875C636.328 334.875 637 334.203 637 333.375C637 332.547 636.328 331.875 635.5 331.875C634.672 331.875 634 332.547 634 333.375C634 334.203 634.672 334.875 635.5 334.875Z" fill="#A3A9AE"/>
<path d="M344.5 90C344.5 88.6193 345.619 87.5 347 87.5H636C637.381 87.5 638.5 88.6193 638.5 90V99C638.5 100.381 637.381 101.5 636 101.5H347C345.619 101.5 344.5 100.381 344.5 99V90Z" fill="white" stroke="#CCCCCC"/>
<path d="M348.717 61.8628C348.369 61.8628 348.061 61.9312 347.791 62.0679C347.525 62.2007 347.301 62.394 347.117 62.6479C346.938 62.9019 346.801 63.2085 346.707 63.5679C346.613 63.9272 346.566 64.3315 346.566 64.7808C346.566 65.3862 346.641 65.9038 346.789 66.3335C346.941 66.7593 347.176 67.0854 347.492 67.312C347.809 67.5347 348.217 67.646 348.717 67.646C349.064 67.646 349.412 67.6069 349.76 67.5288C350.111 67.4507 350.492 67.3394 350.902 67.1948V68.7183C350.523 68.8745 350.15 68.9858 349.783 69.0522C349.416 69.1226 349.004 69.1577 348.547 69.1577C347.664 69.1577 346.938 68.9761 346.367 68.6128C345.801 68.2456 345.381 67.7339 345.107 67.0776C344.834 66.4175 344.697 65.6479 344.697 64.769C344.697 64.1206 344.785 63.5269 344.961 62.9878C345.137 62.4487 345.395 61.9819 345.734 61.5874C346.074 61.1929 346.494 60.8882 346.994 60.6733C347.494 60.4585 348.068 60.3511 348.717 60.3511C349.143 60.3511 349.568 60.4058 349.994 60.5151C350.424 60.6206 350.834 60.7671 351.225 60.9546L350.639 62.4312C350.318 62.2788 349.996 62.146 349.672 62.0327C349.348 61.9194 349.029 61.8628 348.717 61.8628ZM358.602 62.4897V69.0405H357.23L356.99 68.2026H356.896C356.756 68.4253 356.58 68.6069 356.369 68.7476C356.158 68.8882 355.926 68.9917 355.672 69.0581C355.418 69.1245 355.154 69.1577 354.881 69.1577C354.412 69.1577 354.004 69.0757 353.656 68.9116C353.309 68.7437 353.037 68.4839 352.842 68.1323C352.65 67.7808 352.555 67.3237 352.555 66.7612V62.4897H354.342V66.3159C354.342 66.7847 354.426 67.1382 354.594 67.3765C354.762 67.6147 355.029 67.7339 355.396 67.7339C355.76 67.7339 356.045 67.6519 356.252 67.4878C356.459 67.3198 356.604 67.0757 356.686 66.7554C356.771 66.4312 356.814 66.0366 356.814 65.5718V62.4897H358.602ZM365.047 67.0952C365.047 67.5405 364.941 67.9175 364.73 68.2261C364.523 68.5308 364.213 68.7632 363.799 68.9233C363.385 69.0796 362.869 69.1577 362.252 69.1577C361.795 69.1577 361.402 69.1284 361.074 69.0698C360.75 69.0112 360.422 68.9136 360.09 68.7769V67.3003C360.445 67.4604 360.826 67.5933 361.232 67.6987C361.643 67.8003 362.002 67.8511 362.311 67.8511C362.658 67.8511 362.906 67.8003 363.055 67.6987C363.207 67.5933 363.283 67.4565 363.283 67.2886C363.283 67.1792 363.252 67.0815 363.189 66.9956C363.131 66.9058 363.002 66.8062 362.803 66.6968C362.604 66.5835 362.291 66.437 361.865 66.2573C361.455 66.0854 361.117 65.9116 360.852 65.7358C360.59 65.5601 360.395 65.353 360.266 65.1147C360.141 64.8726 360.078 64.5659 360.078 64.1948C360.078 63.5894 360.312 63.1343 360.781 62.8296C361.254 62.521 361.885 62.3667 362.674 62.3667C363.08 62.3667 363.467 62.4077 363.834 62.4897C364.205 62.5718 364.586 62.7026 364.977 62.8823L364.438 64.1714C364.113 64.0308 363.807 63.9155 363.518 63.8257C363.232 63.7358 362.941 63.6909 362.645 63.6909C362.383 63.6909 362.186 63.7261 362.053 63.7964C361.92 63.8667 361.854 63.9741 361.854 64.1187C361.854 64.2241 361.887 64.3179 361.953 64.3999C362.023 64.4819 362.156 64.5737 362.352 64.6753C362.551 64.7729 362.842 64.8999 363.225 65.0562C363.596 65.2085 363.918 65.3687 364.191 65.5366C364.465 65.7007 364.676 65.9058 364.824 66.1519C364.973 66.394 365.047 66.7085 365.047 67.0952ZM369.201 67.7339C369.396 67.7339 369.586 67.7144 369.77 67.6753C369.957 67.6362 370.143 67.5874 370.326 67.5288V68.8589C370.135 68.9448 369.896 69.0151 369.611 69.0698C369.33 69.1284 369.021 69.1577 368.686 69.1577C368.295 69.1577 367.943 69.0952 367.631 68.9702C367.322 68.8413 367.078 68.6206 366.898 68.3081C366.723 67.9917 366.635 67.5522 366.635 66.9897V63.8315H365.779V63.0757L366.764 62.478L367.279 61.0952H368.422V62.4897H370.256V63.8315H368.422V66.9897C368.422 67.2397 368.492 67.4272 368.633 67.5522C368.777 67.6733 368.967 67.7339 369.201 67.7339ZM377.609 65.7534C377.609 66.3003 377.535 66.7847 377.387 67.2065C377.242 67.6284 377.029 67.9858 376.748 68.2788C376.471 68.5679 376.135 68.7866 375.74 68.9351C375.35 69.0835 374.908 69.1577 374.416 69.1577C373.955 69.1577 373.531 69.0835 373.145 68.9351C372.762 68.7866 372.428 68.5679 372.143 68.2788C371.861 67.9858 371.643 67.6284 371.486 67.2065C371.334 66.7847 371.258 66.3003 371.258 65.7534C371.258 65.0269 371.387 64.4116 371.645 63.9077C371.902 63.4038 372.27 63.021 372.746 62.7593C373.223 62.4976 373.791 62.3667 374.451 62.3667C375.064 62.3667 375.607 62.4976 376.08 62.7593C376.557 63.021 376.93 63.4038 377.199 63.9077C377.473 64.4116 377.609 65.0269 377.609 65.7534ZM373.08 65.7534C373.08 66.1831 373.127 66.5444 373.221 66.8374C373.314 67.1304 373.461 67.3511 373.66 67.4995C373.859 67.6479 374.119 67.7222 374.439 67.7222C374.756 67.7222 375.012 67.6479 375.207 67.4995C375.406 67.3511 375.551 67.1304 375.641 66.8374C375.734 66.5444 375.781 66.1831 375.781 65.7534C375.781 65.3198 375.734 64.9604 375.641 64.6753C375.551 64.3862 375.406 64.1694 375.207 64.0249C375.008 63.8804 374.748 63.8081 374.428 63.8081C373.955 63.8081 373.611 63.9702 373.396 64.2944C373.186 64.6187 373.08 65.105 373.08 65.7534ZM386.779 62.3667C387.521 62.3667 388.082 62.5581 388.461 62.9409C388.844 63.3198 389.035 63.9292 389.035 64.769V69.0405H387.242V65.2144C387.242 64.7456 387.162 64.3921 387.002 64.1538C386.842 63.9155 386.594 63.7964 386.258 63.7964C385.785 63.7964 385.449 63.9663 385.25 64.3062C385.051 64.6421 384.951 65.1245 384.951 65.7534V69.0405H383.164V65.2144C383.164 64.9019 383.129 64.6401 383.059 64.4292C382.988 64.2183 382.881 64.0601 382.736 63.9546C382.592 63.8491 382.406 63.7964 382.18 63.7964C381.848 63.7964 381.586 63.8804 381.395 64.0483C381.207 64.2124 381.072 64.4565 380.99 64.7808C380.912 65.1011 380.873 65.4937 380.873 65.9585V69.0405H379.086V62.4897H380.451L380.691 63.3276H380.791C380.924 63.1011 381.09 62.9175 381.289 62.7769C381.492 62.6362 381.715 62.5327 381.957 62.4663C382.199 62.3999 382.445 62.3667 382.695 62.3667C383.176 62.3667 383.582 62.4448 383.914 62.6011C384.25 62.7573 384.508 62.9995 384.688 63.3276H384.846C385.041 62.9917 385.316 62.7476 385.672 62.5952C386.031 62.4429 386.4 62.3667 386.779 62.3667ZM397.648 62.3667C397.738 62.3667 397.842 62.3726 397.959 62.3843C398.08 62.3921 398.178 62.4038 398.252 62.4194L398.117 64.0952C398.059 64.0757 397.975 64.062 397.865 64.0542C397.76 64.0425 397.668 64.0366 397.59 64.0366C397.359 64.0366 397.135 64.0659 396.916 64.1245C396.701 64.1831 396.508 64.2788 396.336 64.4116C396.164 64.5405 396.027 64.7124 395.926 64.9272C395.828 65.1382 395.779 65.3979 395.779 65.7065V69.0405H393.992V62.4897H395.346L395.609 63.5913H395.697C395.826 63.3687 395.986 63.1655 396.178 62.9819C396.373 62.7944 396.594 62.646 396.84 62.5366C397.09 62.4233 397.359 62.3667 397.648 62.3667ZM405.395 65.7534C405.395 66.3003 405.32 66.7847 405.172 67.2065C405.027 67.6284 404.814 67.9858 404.533 68.2788C404.256 68.5679 403.92 68.7866 403.525 68.9351C403.135 69.0835 402.693 69.1577 402.201 69.1577C401.74 69.1577 401.316 69.0835 400.93 68.9351C400.547 68.7866 400.213 68.5679 399.928 68.2788C399.646 67.9858 399.428 67.6284 399.271 67.2065C399.119 66.7847 399.043 66.3003 399.043 65.7534C399.043 65.0269 399.172 64.4116 399.43 63.9077C399.688 63.4038 400.055 63.021 400.531 62.7593C401.008 62.4976 401.576 62.3667 402.236 62.3667C402.85 62.3667 403.393 62.4976 403.865 62.7593C404.342 63.021 404.715 63.4038 404.984 63.9077C405.258 64.4116 405.395 65.0269 405.395 65.7534ZM400.865 65.7534C400.865 66.1831 400.912 66.5444 401.006 66.8374C401.1 67.1304 401.246 67.3511 401.445 67.4995C401.645 67.6479 401.904 67.7222 402.225 67.7222C402.541 67.7222 402.797 67.6479 402.992 67.4995C403.191 67.3511 403.336 67.1304 403.426 66.8374C403.52 66.5444 403.566 66.1831 403.566 65.7534C403.566 65.3198 403.52 64.9604 403.426 64.6753C403.336 64.3862 403.191 64.1694 402.992 64.0249C402.793 63.8804 402.533 63.8081 402.213 63.8081C401.74 63.8081 401.396 63.9702 401.182 64.2944C400.971 64.6187 400.865 65.105 400.865 65.7534ZM412.824 65.7534C412.824 66.3003 412.75 66.7847 412.602 67.2065C412.457 67.6284 412.244 67.9858 411.963 68.2788C411.686 68.5679 411.35 68.7866 410.955 68.9351C410.564 69.0835 410.123 69.1577 409.631 69.1577C409.17 69.1577 408.746 69.0835 408.359 68.9351C407.977 68.7866 407.643 68.5679 407.357 68.2788C407.076 67.9858 406.857 67.6284 406.701 67.2065C406.549 66.7847 406.473 66.3003 406.473 65.7534C406.473 65.0269 406.602 64.4116 406.859 63.9077C407.117 63.4038 407.484 63.021 407.961 62.7593C408.438 62.4976 409.006 62.3667 409.666 62.3667C410.279 62.3667 410.822 62.4976 411.295 62.7593C411.771 63.021 412.145 63.4038 412.414 63.9077C412.688 64.4116 412.824 65.0269 412.824 65.7534ZM408.295 65.7534C408.295 66.1831 408.342 66.5444 408.436 66.8374C408.529 67.1304 408.676 67.3511 408.875 67.4995C409.074 67.6479 409.334 67.7222 409.654 67.7222C409.971 67.7222 410.227 67.6479 410.422 67.4995C410.621 67.3511 410.766 67.1304 410.855 66.8374C410.949 66.5444 410.996 66.1831 410.996 65.7534C410.996 65.3198 410.949 64.9604 410.855 64.6753C410.766 64.3862 410.621 64.1694 410.422 64.0249C410.223 63.8804 409.963 63.8081 409.643 63.8081C409.17 63.8081 408.826 63.9702 408.611 64.2944C408.4 64.6187 408.295 65.105 408.295 65.7534ZM421.994 62.3667C422.736 62.3667 423.297 62.5581 423.676 62.9409C424.059 63.3198 424.25 63.9292 424.25 64.769V69.0405H422.457V65.2144C422.457 64.7456 422.377 64.3921 422.217 64.1538C422.057 63.9155 421.809 63.7964 421.473 63.7964C421 63.7964 420.664 63.9663 420.465 64.3062C420.266 64.6421 420.166 65.1245 420.166 65.7534V69.0405H418.379V65.2144C418.379 64.9019 418.344 64.6401 418.273 64.4292C418.203 64.2183 418.096 64.0601 417.951 63.9546C417.807 63.8491 417.621 63.7964 417.395 63.7964C417.062 63.7964 416.801 63.8804 416.609 64.0483C416.422 64.2124 416.287 64.4565 416.205 64.7808C416.127 65.1011 416.088 65.4937 416.088 65.9585V69.0405H414.301V62.4897H415.666L415.906 63.3276H416.006C416.139 63.1011 416.305 62.9175 416.504 62.7769C416.707 62.6362 416.93 62.5327 417.172 62.4663C417.414 62.3999 417.66 62.3667 417.91 62.3667C418.391 62.3667 418.797 62.4448 419.129 62.6011C419.465 62.7573 419.723 62.9995 419.902 63.3276H420.061C420.256 62.9917 420.531 62.7476 420.887 62.5952C421.246 62.4429 421.615 62.3667 421.994 62.3667Z" fill="#333333"/>
<path fill-rule="evenodd" clip-rule="evenodd" d="M439 59.0405C438.448 59.0405 438 59.4882 438 60.0405V63.0404H435C434.448 63.0404 434 63.4882 434 64.0404C434 64.5927 434.448 65.0404 435 65.0404H438V68.0405C438 68.5928 438.448 69.0405 439 69.0405C439.552 69.0405 440 68.5928 440 68.0405V65.0404H443C443.552 65.0404 444 64.5927 444 64.0404C444 63.4882 443.552 63.0404 443 63.0404H440V60.0405C440 59.4882 439.552 59.0405 439 59.0405Z" fill="#A3A9AE"/>
<path d="M196 51C196 46.5817 199.582 43 204 43H327V346H205C200.029 346 196 341.971 196 337V51Z" fill="#F8F9F9"/>
<path fill-rule="evenodd" clip-rule="evenodd" d="M219.319 74.3445L212.203 71.0505C211.596 70.7629 211.596 70.3185 212.203 70.057L214.68 68.9067L219.293 71.0505C219.899 71.338 220.874 71.338 221.454 71.0505L226.067 68.9067L228.545 70.057C229.151 70.3446 229.151 70.789 228.545 71.0505L221.428 74.3445C220.874 74.6059 219.899 74.6059 219.319 74.3445Z" fill="#FF6F3D"/>
<path fill-rule="evenodd" clip-rule="evenodd" d="M219.296 70.2682L212.201 66.9704C211.597 66.6825 211.597 66.2375 212.201 65.9758L214.619 64.8503L219.296 67.0227C219.901 67.3106 220.873 67.3106 221.451 67.0227L226.128 64.8503L228.546 65.9758C229.15 66.2637 229.15 66.7086 228.546 66.9704L221.451 70.2682C220.847 70.5561 219.874 70.5561 219.296 70.2682Z" fill="#95C038"/>
<path fill-rule="evenodd" clip-rule="evenodd" d="M219.296 66.2344L212.201 62.984C211.597 62.7002 211.597 62.2617 212.201 62.0037L219.296 58.7533C219.901 58.4696 220.873 58.4696 221.451 58.7533L228.546 62.0037C229.15 62.2875 229.15 62.726 228.546 62.984L221.451 66.2344C220.847 66.4923 219.874 66.4923 219.296 66.2344Z" fill="#5DC0E8"/>
<path d="M212 95C212 93.3431 213.343 92 215 92H298C299.657 92 301 93.3431 301 95V101C301 102.657 299.657 104 298 104H215C213.343 104 212 102.657 212 101V95Z" fill="#FF6F3D"/>
<path d="M218 120L275 120" stroke="#E2E2E2" stroke-width="2" stroke-linecap="round"/>
<path d="M218 132H246.5H265" stroke="#E2E2E2" stroke-width="2" stroke-linecap="round"/>
<path d="M218 144H275" stroke="#E2E2E2" stroke-width="2" stroke-linecap="round"/>
<path d="M218 156H264" stroke="#E2E2E2" stroke-width="2" stroke-linecap="round"/>
<path d="M218 168H275" stroke="#E2E2E2" stroke-width="2" stroke-linecap="round"/>
<path d="M218 188H257" stroke="#E2E2E2" stroke-width="2" stroke-linecap="round"/>
<path d="M218 200H265" stroke="#E2E2E2" stroke-width="2" stroke-linecap="round"/>
<path d="M218 212H282" stroke="#E2E2E2" stroke-width="2" stroke-linecap="round"/>
<path d="M218 236H257" stroke="#E2E2E2" stroke-width="2" stroke-linecap="round"/>
<circle cx="222" cy="248" r="4" fill="#EFEFEF"/>
<circle cx="236" cy="248" r="4" fill="#EFEFEF"/>
<circle cx="250" cy="248" r="4" fill="#EFEFEF"/>
<circle cx="264" cy="248" r="4" fill="#EFEFEF"/>
<circle cx="278" cy="248" r="4" fill="#EFEFEF"/>
<path d="M218 260H282" stroke="#E2E2E2" stroke-width="2" stroke-linecap="round"/>
<circle cx="222" cy="272" r="4" fill="#EFEFEF"/>
<circle cx="238" cy="272" r="4" fill="#EFEFEF"/>
<circle cx="254" cy="272" r="4" fill="#EFEFEF"/>
<circle cx="270" cy="272" r="4" fill="#EFEFEF"/>
<g filter="url(#filter1_d_33_68416)">
<path d="M61 126.935C61 122 65.0182 118 69.9749 118H518.025C522.982 118 527 122 527 126.935V414.065C527 419 522.982 423 518.025 423H69.9748C65.0182 423 61 419 61 414.065V126.935Z" fill="white"/>
<path d="M61.5 126.935C61.5 122.278 65.2922 118.5 69.9749 118.5H518.025C522.708 118.5 526.5 122.278 526.5 126.935V414.065C526.5 418.722 522.708 422.5 518.025 422.5H69.9748C65.2922 422.5 61.5 418.722 61.5 414.065V126.935Z" stroke="#808080"/>
</g>
<rect x="211.5" y="194.5" width="138" height="59" rx="8.5" fill="white"/>
<path fill-rule="evenodd" clip-rule="evenodd" d="M222 204H230C230.552 204 231 204.448 231 205V213C231 213.552 230.552 214 230 214H222C221.448 214 221 213.552 221 213V205C221 204.448 221.448 204 222 204ZM219 205C219 203.343 220.343 202 222 202H230C231.657 202 233 203.343 233 205V213C233 214.657 231.657 216 230 216H222C220.343 216 219 214.657 219 213V205Z" fill="#EB7B0C"/>
<path d="M241 209H320.346" stroke="#808080" stroke-width="2" stroke-linecap="round"/>
<rect x="211" y="224" width="139" height="1" fill="#D0D5DA"/>
<g filter="url(#filter2_b_33_68416)">
<rect x="217" y="231" width="19" height="13" rx="6" fill="#F3F4F4"/>
</g>
<g filter="url(#filter3_b_33_68416)">
<rect x="240" y="232" width="27" height="11" rx="5.5" fill="#F3F4F4"/>
</g>
<rect x="211.5" y="194.5" width="138" height="59" rx="8.5" stroke="#D0D5DA"/>
<rect x="362.5" y="194.5" width="138" height="59" rx="8.5" fill="white"/>
<path fill-rule="evenodd" clip-rule="evenodd" d="M373 204H381C381.552 204 382 204.448 382 205V213C382 213.552 381.552 214 381 214H373C372.448 214 372 213.552 372 213V205C372 204.448 372.448 204 373 204ZM370 205C370 203.343 371.343 202 373 202H381C382.657 202 384 203.343 384 205V213C384 214.657 382.657 216 381 216H373C371.343 216 370 214.657 370 213V205Z" fill="#27ABA3"/>
<path d="M392 209L493 209" stroke="#808080" stroke-width="2" stroke-linecap="round"/>
<rect x="362" y="224" width="139" height="1" fill="#D0D5DA"/>
<g filter="url(#filter4_b_33_68416)">
<rect x="368" y="231" width="19" height="13" rx="6" fill="#F3F4F4"/>
</g>
<g filter="url(#filter5_b_33_68416)">
<rect x="391" y="232" width="27" height="11" rx="5.5" fill="#F3F4F4"/>
</g>
<rect x="362.5" y="194.5" width="138" height="59" rx="8.5" stroke="#D0D5DA"/>
<rect x="211.5" y="266.5" width="138" height="59" rx="8.5" fill="white"/>
<path fill-rule="evenodd" clip-rule="evenodd" d="M222 276H230C230.552 276 231 276.448 231 277V285C231 285.552 230.552 286 230 286H222C221.448 286 221 285.552 221 285V277C221 276.448 221.448 276 222 276ZM219 277C219 275.343 220.343 274 222 274H230C231.657 274 233 275.343 233 277V285C233 286.657 231.657 288 230 288H222C220.343 288 219 286.657 219 285V277Z" fill="#AAAAAA"/>
<path d="M241 281H342" stroke="#808080" stroke-width="2" stroke-linecap="round"/>
<rect x="211" y="296" width="139" height="1" fill="#D0D5DA"/>
<g filter="url(#filter6_b_33_68416)">
<rect x="217" y="303" width="19" height="13" rx="6" fill="#F3F4F4"/>
</g>
<g filter="url(#filter7_b_33_68416)">
<rect x="240" y="304" width="27" height="11" rx="5.5" fill="#F3F4F4"/>
</g>
<rect x="211.5" y="266.5" width="138" height="59" rx="8.5" stroke="#D0D5DA"/>
<rect x="362.5" y="266.5" width="138" height="59" rx="8.5" fill="white"/>
<path fill-rule="evenodd" clip-rule="evenodd" d="M373 276H381C381.552 276 382 276.448 382 277V285C382 285.552 381.552 286 381 286H373C372.448 286 372 285.552 372 285V277C372 276.448 372.448 276 373 276ZM370 277C370 275.343 371.343 274 373 274H381C382.657 274 384 275.343 384 277V285C384 286.657 382.657 288 381 288H373C371.343 288 370 286.657 370 285V277Z" fill="#CB0000"/>
<path d="M392 281H464" stroke="#808080" stroke-width="2" stroke-linecap="round"/>
<rect x="362" y="296" width="139" height="1" fill="#D0D5DA"/>
<g filter="url(#filter8_b_33_68416)">
<rect x="368" y="303" width="19" height="13" rx="6" fill="#F3F4F4"/>
</g>
<g filter="url(#filter9_b_33_68416)">
<rect x="391" y="304" width="27" height="11" rx="5.5" fill="#F3F4F4"/>
</g>
<rect x="362.5" y="266.5" width="138" height="59" rx="8.5" stroke="#D0D5DA"/>
<rect x="211.5" y="338.5" width="138" height="59" rx="8.5" fill="white"/>
<path fill-rule="evenodd" clip-rule="evenodd" d="M222 348H230C230.552 348 231 348.448 231 349V357C231 357.552 230.552 358 230 358H222C221.448 358 221 357.552 221 357V349C221 348.448 221.448 348 222 348ZM219 349C219 347.343 220.343 346 222 346H230C231.657 346 233 347.343 233 349V357C233 358.657 231.657 360 230 360H222C220.343 360 219 358.657 219 357V349Z" fill="#FFA363"/>
<path d="M241 353H317" stroke="#808080" stroke-width="2" stroke-linecap="round"/>
<rect x="211" y="368" width="139" height="1" fill="#D0D5DA"/>
<g filter="url(#filter10_b_33_68416)">
<rect x="217" y="375" width="19" height="13" rx="6" fill="#F3F4F4"/>
</g>
<g filter="url(#filter11_b_33_68416)">
<rect x="240" y="376" width="27" height="11" rx="5.5" fill="#F3F4F4"/>
</g>
<rect x="211.5" y="338.5" width="138" height="59" rx="8.5" stroke="#D0D5DA"/>
<rect x="362.5" y="338.5" width="138" height="59" rx="8.5" fill="white"/>
<path fill-rule="evenodd" clip-rule="evenodd" d="M373 348H381C381.552 348 382 348.448 382 349V357C382 357.552 381.552 358 381 358H373C372.448 358 372 357.552 372 357V349C372 348.448 372.448 348 373 348ZM370 349C370 347.343 371.343 346 373 346H381C382.657 346 384 347.343 384 349V357C384 358.657 382.657 360 381 360H373C371.343 360 370 358.657 370 357V349Z" fill="#0575CC"/>
<path d="M392 353H493" stroke="#808080" stroke-width="2" stroke-linecap="round"/>
<rect x="362" y="368" width="139" height="1" fill="#D0D5DA"/>
<g filter="url(#filter12_b_33_68416)">
<rect x="368" y="375" width="19" height="13" rx="6" fill="#F3F4F4"/>
</g>
<g filter="url(#filter13_b_33_68416)">
<rect x="391" y="376" width="27" height="11" rx="5.5" fill="#F3F4F4"/>
</g>
<rect x="362.5" y="338.5" width="138" height="59" rx="8.5" stroke="#D0D5DA"/>
<path d="M210.5 166C210.5 164.619 211.619 163.5 213 163.5H499C500.381 163.5 501.5 164.619 501.5 166V175C501.5 176.381 500.381 177.5 499 177.5H213C211.619 177.5 210.5 176.381 210.5 175V166Z" fill="white" stroke="#CCCCCC"/>
<path d="M213.19 135.509C213.968 135.509 214.608 135.603 215.112 135.791C215.62 135.978 215.997 136.261 216.243 136.64C216.489 137.019 216.612 137.498 216.612 138.076C216.612 138.466 216.538 138.808 216.39 139.101C216.241 139.394 216.046 139.642 215.804 139.845C215.562 140.048 215.3 140.214 215.019 140.343L217.538 144.076H215.522L213.478 140.789H212.511V144.076H210.694V135.509H213.19ZM213.062 136.998H212.511V139.312H213.097C213.698 139.312 214.128 139.212 214.386 139.013C214.647 138.81 214.778 138.513 214.778 138.123C214.778 137.716 214.638 137.427 214.356 137.255C214.079 137.083 213.647 136.998 213.062 136.998ZM224.429 140.789C224.429 141.335 224.354 141.82 224.206 142.242C224.062 142.664 223.849 143.021 223.567 143.314C223.29 143.603 222.954 143.822 222.56 143.97C222.169 144.119 221.728 144.193 221.235 144.193C220.774 144.193 220.351 144.119 219.964 143.97C219.581 143.822 219.247 143.603 218.962 143.314C218.681 143.021 218.462 142.664 218.306 142.242C218.153 141.82 218.077 141.335 218.077 140.789C218.077 140.062 218.206 139.447 218.464 138.943C218.722 138.439 219.089 138.056 219.565 137.794C220.042 137.533 220.61 137.402 221.271 137.402C221.884 137.402 222.427 137.533 222.899 137.794C223.376 138.056 223.749 138.439 224.019 138.943C224.292 139.447 224.429 140.062 224.429 140.789ZM219.899 140.789C219.899 141.218 219.946 141.58 220.04 141.873C220.134 142.166 220.28 142.386 220.479 142.535C220.679 142.683 220.938 142.757 221.259 142.757C221.575 142.757 221.831 142.683 222.026 142.535C222.226 142.386 222.37 142.166 222.46 141.873C222.554 141.58 222.601 141.218 222.601 140.789C222.601 140.355 222.554 139.996 222.46 139.71C222.37 139.421 222.226 139.205 222.026 139.06C221.827 138.916 221.567 138.843 221.247 138.843C220.774 138.843 220.431 139.005 220.216 139.33C220.005 139.654 219.899 140.14 219.899 140.789ZM231.858 140.789C231.858 141.335 231.784 141.82 231.636 142.242C231.491 142.664 231.278 143.021 230.997 143.314C230.72 143.603 230.384 143.822 229.989 143.97C229.599 144.119 229.157 144.193 228.665 144.193C228.204 144.193 227.78 144.119 227.394 143.97C227.011 143.822 226.677 143.603 226.392 143.314C226.11 143.021 225.892 142.664 225.735 142.242C225.583 141.82 225.507 141.335 225.507 140.789C225.507 140.062 225.636 139.447 225.894 138.943C226.151 138.439 226.519 138.056 226.995 137.794C227.472 137.533 228.04 137.402 228.7 137.402C229.313 137.402 229.856 137.533 230.329 137.794C230.806 138.056 231.179 138.439 231.448 138.943C231.722 139.447 231.858 140.062 231.858 140.789ZM227.329 140.789C227.329 141.218 227.376 141.58 227.47 141.873C227.563 142.166 227.71 142.386 227.909 142.535C228.108 142.683 228.368 142.757 228.688 142.757C229.005 142.757 229.261 142.683 229.456 142.535C229.655 142.386 229.8 142.166 229.89 141.873C229.983 141.58 230.03 141.218 230.03 140.789C230.03 140.355 229.983 139.996 229.89 139.71C229.8 139.421 229.655 139.205 229.456 139.06C229.257 138.916 228.997 138.843 228.677 138.843C228.204 138.843 227.86 139.005 227.646 139.33C227.435 139.654 227.329 140.14 227.329 140.789ZM241.028 137.402C241.771 137.402 242.331 137.593 242.71 137.976C243.093 138.355 243.284 138.964 243.284 139.804V144.076H241.491V140.25C241.491 139.781 241.411 139.427 241.251 139.189C241.091 138.951 240.843 138.832 240.507 138.832C240.034 138.832 239.698 139.001 239.499 139.341C239.3 139.677 239.2 140.16 239.2 140.789V144.076H237.413V140.25C237.413 139.937 237.378 139.675 237.308 139.464C237.237 139.253 237.13 139.095 236.985 138.99C236.841 138.884 236.655 138.832 236.429 138.832C236.097 138.832 235.835 138.916 235.644 139.083C235.456 139.248 235.321 139.492 235.239 139.816C235.161 140.136 235.122 140.529 235.122 140.994V144.076H233.335V137.525H234.7L234.94 138.363H235.04C235.173 138.136 235.339 137.953 235.538 137.812C235.741 137.671 235.964 137.568 236.206 137.501C236.448 137.435 236.694 137.402 236.944 137.402C237.425 137.402 237.831 137.48 238.163 137.636C238.499 137.792 238.757 138.035 238.937 138.363H239.095C239.29 138.027 239.565 137.783 239.921 137.63C240.28 137.478 240.649 137.402 241.028 137.402ZM249.694 142.13C249.694 142.576 249.589 142.953 249.378 143.261C249.171 143.566 248.86 143.798 248.446 143.958C248.032 144.115 247.517 144.193 246.899 144.193C246.442 144.193 246.05 144.164 245.722 144.105C245.397 144.046 245.069 143.949 244.737 143.812V142.335C245.093 142.496 245.474 142.628 245.88 142.734C246.29 142.835 246.649 142.886 246.958 142.886C247.306 142.886 247.554 142.835 247.702 142.734C247.854 142.628 247.931 142.492 247.931 142.324C247.931 142.214 247.899 142.117 247.837 142.031C247.778 141.941 247.649 141.841 247.45 141.732C247.251 141.619 246.938 141.472 246.513 141.292C246.103 141.121 245.765 140.947 245.499 140.771C245.237 140.595 245.042 140.388 244.913 140.15C244.788 139.908 244.726 139.601 244.726 139.23C244.726 138.625 244.96 138.169 245.429 137.865C245.901 137.556 246.532 137.402 247.321 137.402C247.728 137.402 248.114 137.443 248.481 137.525C248.853 137.607 249.233 137.738 249.624 137.917L249.085 139.207C248.761 139.066 248.454 138.951 248.165 138.861C247.88 138.771 247.589 138.726 247.292 138.726C247.03 138.726 246.833 138.761 246.7 138.832C246.567 138.902 246.501 139.009 246.501 139.154C246.501 139.259 246.534 139.353 246.601 139.435C246.671 139.517 246.804 139.609 246.999 139.71C247.198 139.808 247.489 139.935 247.872 140.091C248.243 140.244 248.565 140.404 248.839 140.572C249.112 140.736 249.323 140.941 249.472 141.187C249.62 141.429 249.694 141.744 249.694 142.13Z" fill="#333333"/>
<path fill-rule="evenodd" clip-rule="evenodd" d="M264 135C263.448 135 263 135.448 263 136V139H260C259.448 139 259 139.448 259 140C259 140.552 259.448 141 260 141H263V144C263 144.552 263.448 145 264 145C264.552 145 265 144.552 265 144V141H268C268.552 141 269 140.552 269 140C269 139.448 268.552 139 268 139H265V136C265 135.448 264.552 135 264 135Z" fill="#A3A9AE"/>
<path d="M62 127C62 122.582 65.5817 119 70 119H193V422H71C66.0294 422 62 417.971 62 413V127Z" fill="#F8F9F9"/>
<path fill-rule="evenodd" clip-rule="evenodd" d="M85.3193 150.344L78.2027 147.05C77.5965 146.763 77.5965 146.318 78.2027 146.057L80.6804 144.907L85.293 147.05C85.8992 147.338 86.8744 147.338 87.4543 147.05L92.0669 144.907L94.5446 146.057C95.1508 146.345 95.1508 146.789 94.5446 147.05L87.428 150.344C86.8744 150.606 85.8992 150.606 85.3193 150.344Z" fill="#FF6F3D"/>
<path fill-rule="evenodd" clip-rule="evenodd" d="M85.2963 146.268L78.2013 142.97C77.597 142.682 77.597 142.238 78.2013 141.976L80.6189 140.85L85.2963 143.023C85.9006 143.311 86.8729 143.311 87.451 143.023L92.1284 140.85L94.546 141.976C95.1503 142.264 95.1503 142.709 94.546 142.97L87.451 146.268C86.8466 146.556 85.8744 146.556 85.2963 146.268Z" fill="#95C038"/>
<path fill-rule="evenodd" clip-rule="evenodd" d="M85.2963 142.234L78.2013 138.984C77.597 138.7 77.597 138.262 78.2013 138.004L85.2963 134.753C85.9006 134.47 86.8729 134.47 87.451 134.753L94.546 138.004C95.1503 138.287 95.1503 138.726 94.546 138.984L87.451 142.234C86.8466 142.492 85.8744 142.492 85.2963 142.234Z" fill="#5DC0E8"/>
<path d="M78 171C78 169.343 79.3431 168 81 168H164C165.657 168 167 169.343 167 171V177C167 178.657 165.657 180 164 180H81C79.3431 180 78 178.657 78 177V171Z" fill="#FF6F3D"/>
<path d="M84 196H141" stroke="#E2E2E2" stroke-width="2" stroke-linecap="round"/>
<path d="M84 208H112.5H131" stroke="#E2E2E2" stroke-width="2" stroke-linecap="round"/>
<path d="M84 220H141" stroke="#E2E2E2" stroke-width="2" stroke-linecap="round"/>
<path d="M84 232H130" stroke="#E2E2E2" stroke-width="2" stroke-linecap="round"/>
<path d="M84 244H141" stroke="#E2E2E2" stroke-width="2" stroke-linecap="round"/>
<path d="M84 264H123" stroke="#E2E2E2" stroke-width="2" stroke-linecap="round"/>
<path d="M84 276H131" stroke="#E2E2E2" stroke-width="2" stroke-linecap="round"/>
<path d="M84 288H148" stroke="#E2E2E2" stroke-width="2" stroke-linecap="round"/>
<path d="M84 312H123" stroke="#E2E2E2" stroke-width="2" stroke-linecap="round"/>
<circle cx="88" cy="324" r="4" fill="#EFEFEF"/>
<circle cx="102" cy="324" r="4" fill="#EFEFEF"/>
<circle cx="116" cy="324" r="4" fill="#EFEFEF"/>
<circle cx="130" cy="324" r="4" fill="#EFEFEF"/>
<circle cx="144" cy="324" r="4" fill="#EFEFEF"/>
<path d="M84 336H148" stroke="#E2E2E2" stroke-width="2" stroke-linecap="round"/>
<circle cx="88" cy="348" r="4" fill="#EFEFEF"/>
<circle cx="104" cy="348" r="4" fill="#EFEFEF"/>
<circle cx="120" cy="348" r="4" fill="#EFEFEF"/>
<circle cx="136" cy="348" r="4" fill="#EFEFEF"/>
<defs>
<filter id="filter0_d_33_68416" x="187" y="38" width="482" height="321" filterUnits="userSpaceOnUse" color-interpolation-filters="sRGB">
<feFlood flood-opacity="0" result="BackgroundImageFix"/>
<feColorMatrix in="SourceAlpha" type="matrix" values="0 0 0 0 0 0 0 0 0 0 0 0 0 0 0 0 0 0 127 0" result="hardAlpha"/>
<feOffset dy="4"/>
<feGaussianBlur stdDeviation="4"/>
<feColorMatrix type="matrix" values="0 0 0 0 0.333333 0 0 0 0 0.333333 0 0 0 0 0.333333 0 0 0 0.2 0"/>
<feBlend mode="normal" in2="BackgroundImageFix" result="effect1_dropShadow_33_68416"/>
<feBlend mode="normal" in="SourceGraphic" in2="effect1_dropShadow_33_68416" result="shape"/>
</filter>
<filter id="filter1_d_33_68416" x="53" y="114" width="482" height="321" filterUnits="userSpaceOnUse" color-interpolation-filters="sRGB">
<feFlood flood-opacity="0" result="BackgroundImageFix"/>
<feColorMatrix in="SourceAlpha" type="matrix" values="0 0 0 0 0 0 0 0 0 0 0 0 0 0 0 0 0 0 127 0" result="hardAlpha"/>
<feOffset dy="4"/>
<feGaussianBlur stdDeviation="4"/>
<feColorMatrix type="matrix" values="0 0 0 0 0.333333 0 0 0 0 0.333333 0 0 0 0 0.333333 0 0 0 0.2 0"/>
<feBlend mode="normal" in2="BackgroundImageFix" result="effect1_dropShadow_33_68416"/>
<feBlend mode="normal" in="SourceGraphic" in2="effect1_dropShadow_33_68416" result="shape"/>
</filter>
<filter id="filter2_b_33_68416" x="162.634" y="176.634" width="127.731" height="121.731" filterUnits="userSpaceOnUse" color-interpolation-filters="sRGB">
<feFlood flood-opacity="0" result="BackgroundImageFix"/>
<feGaussianBlur in="BackgroundImageFix" stdDeviation="27.1828"/>
<feComposite in2="SourceAlpha" operator="in" result="effect1_backgroundBlur_33_68416"/>
<feBlend mode="normal" in="SourceGraphic" in2="effect1_backgroundBlur_33_68416" result="shape"/>
</filter>
<filter id="filter3_b_33_68416" x="185.634" y="177.634" width="135.731" height="119.731" filterUnits="userSpaceOnUse" color-interpolation-filters="sRGB">
<feFlood flood-opacity="0" result="BackgroundImageFix"/>
<feGaussianBlur in="BackgroundImageFix" stdDeviation="27.1828"/>
<feComposite in2="SourceAlpha" operator="in" result="effect1_backgroundBlur_33_68416"/>
<feBlend mode="normal" in="SourceGraphic" in2="effect1_backgroundBlur_33_68416" result="shape"/>
</filter>
<filter id="filter4_b_33_68416" x="313.634" y="176.634" width="127.731" height="121.731" filterUnits="userSpaceOnUse" color-interpolation-filters="sRGB">
<feFlood flood-opacity="0" result="BackgroundImageFix"/>
<feGaussianBlur in="BackgroundImageFix" stdDeviation="27.1828"/>
<feComposite in2="SourceAlpha" operator="in" result="effect1_backgroundBlur_33_68416"/>
<feBlend mode="normal" in="SourceGraphic" in2="effect1_backgroundBlur_33_68416" result="shape"/>
</filter>
<filter id="filter5_b_33_68416" x="336.634" y="177.634" width="135.731" height="119.731" filterUnits="userSpaceOnUse" color-interpolation-filters="sRGB">
<feFlood flood-opacity="0" result="BackgroundImageFix"/>
<feGaussianBlur in="BackgroundImageFix" stdDeviation="27.1828"/>
<feComposite in2="SourceAlpha" operator="in" result="effect1_backgroundBlur_33_68416"/>
<feBlend mode="normal" in="SourceGraphic" in2="effect1_backgroundBlur_33_68416" result="shape"/>
</filter>
<filter id="filter6_b_33_68416" x="162.634" y="248.634" width="127.731" height="121.731" filterUnits="userSpaceOnUse" color-interpolation-filters="sRGB">
<feFlood flood-opacity="0" result="BackgroundImageFix"/>
<feGaussianBlur in="BackgroundImageFix" stdDeviation="27.1828"/>
<feComposite in2="SourceAlpha" operator="in" result="effect1_backgroundBlur_33_68416"/>
<feBlend mode="normal" in="SourceGraphic" in2="effect1_backgroundBlur_33_68416" result="shape"/>
</filter>
<filter id="filter7_b_33_68416" x="185.634" y="249.634" width="135.731" height="119.731" filterUnits="userSpaceOnUse" color-interpolation-filters="sRGB">
<feFlood flood-opacity="0" result="BackgroundImageFix"/>
<feGaussianBlur in="BackgroundImageFix" stdDeviation="27.1828"/>
<feComposite in2="SourceAlpha" operator="in" result="effect1_backgroundBlur_33_68416"/>
<feBlend mode="normal" in="SourceGraphic" in2="effect1_backgroundBlur_33_68416" result="shape"/>
</filter>
<filter id="filter8_b_33_68416" x="313.634" y="248.634" width="127.731" height="121.731" filterUnits="userSpaceOnUse" color-interpolation-filters="sRGB">
<feFlood flood-opacity="0" result="BackgroundImageFix"/>
<feGaussianBlur in="BackgroundImageFix" stdDeviation="27.1828"/>
<feComposite in2="SourceAlpha" operator="in" result="effect1_backgroundBlur_33_68416"/>
<feBlend mode="normal" in="SourceGraphic" in2="effect1_backgroundBlur_33_68416" result="shape"/>
</filter>
<filter id="filter9_b_33_68416" x="336.634" y="249.634" width="135.731" height="119.731" filterUnits="userSpaceOnUse" color-interpolation-filters="sRGB">
<feFlood flood-opacity="0" result="BackgroundImageFix"/>
<feGaussianBlur in="BackgroundImageFix" stdDeviation="27.1828"/>
<feComposite in2="SourceAlpha" operator="in" result="effect1_backgroundBlur_33_68416"/>
<feBlend mode="normal" in="SourceGraphic" in2="effect1_backgroundBlur_33_68416" result="shape"/>
</filter>
<filter id="filter10_b_33_68416" x="162.634" y="320.634" width="127.731" height="121.731" filterUnits="userSpaceOnUse" color-interpolation-filters="sRGB">
<feFlood flood-opacity="0" result="BackgroundImageFix"/>
<feGaussianBlur in="BackgroundImageFix" stdDeviation="27.1828"/>
<feComposite in2="SourceAlpha" operator="in" result="effect1_backgroundBlur_33_68416"/>
<feBlend mode="normal" in="SourceGraphic" in2="effect1_backgroundBlur_33_68416" result="shape"/>
</filter>
<filter id="filter11_b_33_68416" x="185.634" y="321.634" width="135.731" height="119.731" filterUnits="userSpaceOnUse" color-interpolation-filters="sRGB">
<feFlood flood-opacity="0" result="BackgroundImageFix"/>
<feGaussianBlur in="BackgroundImageFix" stdDeviation="27.1828"/>
<feComposite in2="SourceAlpha" operator="in" result="effect1_backgroundBlur_33_68416"/>
<feBlend mode="normal" in="SourceGraphic" in2="effect1_backgroundBlur_33_68416" result="shape"/>
</filter>
<filter id="filter12_b_33_68416" x="313.634" y="320.634" width="127.731" height="121.731" filterUnits="userSpaceOnUse" color-interpolation-filters="sRGB">
<feFlood flood-opacity="0" result="BackgroundImageFix"/>
<feGaussianBlur in="BackgroundImageFix" stdDeviation="27.1828"/>
<feComposite in2="SourceAlpha" operator="in" result="effect1_backgroundBlur_33_68416"/>
<feBlend mode="normal" in="SourceGraphic" in2="effect1_backgroundBlur_33_68416" result="shape"/>
</filter>
<filter id="filter13_b_33_68416" x="336.634" y="321.634" width="135.731" height="119.731" filterUnits="userSpaceOnUse" color-interpolation-filters="sRGB">
<feFlood flood-opacity="0" result="BackgroundImageFix"/>
<feGaussianBlur in="BackgroundImageFix" stdDeviation="27.1828"/>
<feComposite in2="SourceAlpha" operator="in" result="effect1_backgroundBlur_33_68416"/>
<feBlend mode="normal" in="SourceGraphic" in2="effect1_backgroundBlur_33_68416" result="shape"/>
</filter>
</defs>
</svg>
