<svg width="736" height="460" viewBox="0 0 736 460" fill="none" xmlns="http://www.w3.org/2000/svg">
<g filter="url(#filter0_d_33_67750)">
<rect x="39" y="134" width="140" height="200" rx="3" fill="white"/>
<rect x="53" y="142" width="112" height="5.99279" fill="#E2E2E2"/>
<rect x="53" y="148.992" width="112" height="7.99039" fill="#EFEFEF"/>
<rect x="74" y="171.372" width="34" height="7.59383" fill="#D7F3FD"/>
<rect x="122" y="235" width="43" height="8" fill="#D7F3FD"/>
<rect x="122" y="245" width="43" height="8" fill="#D7F3FD"/>
<rect x="122" y="255" width="43" height="8" fill="#D7F3FD"/>
<rect x="122" y="265" width="43" height="8" fill="#D7F3FD"/>
<rect x="122" y="275" width="26" height="8" fill="#D7F3FD"/>
<rect x="77" y="235" width="43" height="8" fill="#D7F3FD"/>
<path d="M54.002 239.471C54.002 239.196 54.0746 238.974 54.1642 238.974H69.8397C69.9293 238.974 70.002 239.196 70.002 239.471C70.002 239.745 69.9293 239.968 69.8397 239.968H54.1642C54.0746 239.968 54.002 239.745 54.002 239.471Z" fill="#CCCCCC"/>
<path d="M54.002 248.471C54.002 248.196 54.0746 247.974 54.1642 247.974H69.8397C69.9293 247.974 70.002 248.196 70.002 248.471C70.002 248.745 69.9293 248.968 69.8397 248.968H54.1642C54.0746 248.968 54.002 248.745 54.002 248.471Z" fill="#CCCCCC"/>
<path d="M54.002 258.471C54.002 258.196 54.0746 257.974 54.1642 257.974H69.8397C69.9293 257.974 70.002 258.196 70.002 258.471C70.002 258.745 69.9293 258.968 69.8397 258.968H54.1642C54.0746 258.968 54.002 258.745 54.002 258.471Z" fill="#CCCCCC"/>
<path d="M54.002 279.471C54.002 279.196 54.0746 278.974 54.1642 278.974H69.8397C69.9293 278.974 70.002 279.196 70.002 279.471C70.002 279.745 69.9293 279.968 69.8397 279.968H54.1642C54.0746 279.968 54.002 279.745 54.002 279.471Z" fill="#CCCCCC"/>
<path d="M54.002 268.471C54.002 268.196 54.0746 267.974 54.1642 267.974H69.8397C69.9293 267.974 70.002 268.196 70.002 268.471C70.002 268.745 69.9293 268.968 69.8397 268.968H54.1642C54.0746 268.968 54.002 268.745 54.002 268.471Z" fill="#CCCCCC"/>
<rect x="53" y="310.999" width="112" height="15.0012" fill="#D7F3FD"/>
<rect x="77" y="245" width="43" height="8" fill="#D7F3FD"/>
<rect x="77" y="255" width="43" height="8" fill="#D7F3FD"/>
<rect x="77" y="265" width="43" height="8" fill="#D7F3FD"/>
<rect x="77" y="275" width="26" height="8" fill="#D7F3FD"/>
<rect x="128" y="160.979" width="37" height="8" fill="#D7F3FD"/>
<rect x="128" y="170.979" width="37" height="8" fill="#D7F3FD"/>
<rect x="128" y="180.979" width="37" height="8" fill="#D7F3FD"/>
<rect x="128" y="190.979" width="37" height="8" fill="#D7F3FD"/>
<rect x="105" y="203" width="31" height="7" fill="#D7F3FD"/>
<rect x="105" y="213" width="31" height="7" fill="#D7F3FD"/>
<rect x="74" y="161" width="37" height="8" fill="#D7F3FD"/>
<rect x="53" y="227" width="112" height="6" fill="#E5E5E5"/>
<rect x="53" y="289" width="112" height="6" fill="#E7E7E7"/>
<rect x="53" y="296" width="112" height="14" fill="#EFEFEF"/>
<rect x="74" y="171" width="37" height="8" fill="#D7F3FD"/>
<rect x="74" y="181" width="37" height="8" fill="#D7F3FD"/>
<rect x="74" y="191" width="37" height="8" fill="#D7F3FD"/>
<path d="M54.002 165.471C54.002 165.196 54.0746 164.974 54.1642 164.974H69.8397C69.9293 164.974 70.002 165.196 70.002 165.471C70.002 165.745 69.9293 165.968 69.8397 165.968H54.1642C54.0746 165.968 54.002 165.745 54.002 165.471Z" fill="#CCCCCC"/>
<path d="M54.002 174.471C54.002 174.196 54.0746 173.974 54.1642 173.974H69.8397C69.9293 173.974 70.002 174.196 70.002 174.471C70.002 174.745 69.9293 174.968 69.8397 174.968H54.1642C54.0746 174.968 54.002 174.745 54.002 174.471Z" fill="#CCCCCC"/>
<path d="M54.002 184.471C54.002 184.196 54.0746 183.974 54.1642 183.974H69.8397C69.9293 183.974 70.002 184.196 70.002 184.471C70.002 184.745 69.9293 184.968 69.8397 184.968H54.1642C54.0746 184.968 54.002 184.745 54.002 184.471Z" fill="#CCCCCC"/>
<path d="M54.002 194.471C54.002 194.196 54.0746 193.974 54.1642 193.974H69.8397C69.9293 193.974 70.002 194.196 70.002 194.471C70.002 194.745 69.9293 194.968 69.8397 194.968H54.1642C54.0746 194.968 54.002 194.745 54.002 194.471Z" fill="#CCCCCC"/>
<path d="M115.002 165.474C115.002 165.198 115.052 164.974 115.113 164.974H125.89C125.952 164.974 126.002 165.198 126.002 165.474C126.002 165.75 125.952 165.974 125.89 165.974H115.113C115.052 165.974 115.002 165.75 115.002 165.474Z" fill="#CCCCCC"/>
<path d="M115.002 174.474C115.002 174.198 115.052 173.974 115.113 173.974H125.89C125.952 173.974 126.002 174.198 126.002 174.474C126.002 174.75 125.952 174.974 125.89 174.974H115.113C115.052 174.974 115.002 174.75 115.002 174.474Z" fill="#CCCCCC"/>
<path d="M115.002 184.474C115.002 184.198 115.052 183.974 115.113 183.974H125.89C125.952 183.974 126.002 184.198 126.002 184.474C126.002 184.75 125.952 184.974 125.89 184.974H115.113C115.052 184.974 115.002 184.75 115.002 184.474Z" fill="#CCCCCC"/>
<path d="M115.002 194.474C115.002 194.198 115.052 193.974 115.113 193.974H125.89C125.952 193.974 126.002 194.198 126.002 194.474C126.002 194.75 125.952 194.974 125.89 194.974H115.113C115.052 194.974 115.002 194.75 115.002 194.474Z" fill="#CCCCCC"/>
<path d="M54.875 206.474C54.875 206.198 55.089 205.974 55.3529 205.974H101.524C101.788 205.974 102.002 206.198 102.002 206.474C102.002 206.75 101.788 206.974 101.524 206.974H55.3529C55.089 206.974 54.875 206.75 54.875 206.474Z" fill="#CCCCCC"/>
<path d="M54.875 216.474C54.875 216.198 55.089 215.974 55.3529 215.974H101.524C101.788 215.974 102.002 216.198 102.002 216.474C102.002 216.75 101.788 216.974 101.524 216.974H55.3529C55.089 216.974 54.875 216.75 54.875 216.474Z" fill="#CCCCCC"/>
<path d="M138.875 206.474C138.875 206.198 138.994 205.974 139.14 205.974H164.735C164.881 205.974 165 206.198 165 206.474C165 206.75 164.881 206.974 164.735 206.974H139.14C138.994 206.974 138.875 206.75 138.875 206.474Z" fill="#CCCCCC"/>
<path d="M138.875 216.474C138.875 216.198 138.994 215.974 139.14 215.974H164.735C164.881 215.974 165 216.198 165 216.474C165 216.75 164.881 216.974 164.735 216.974H139.14C138.994 216.974 138.875 216.75 138.875 216.474Z" fill="#CCCCCC"/>
<rect x="39.5" y="134.5" width="139" height="199" rx="2.5" stroke="#333333"/>
</g>
<g filter="url(#filter1_d_33_67750)">
<rect x="210" y="16" width="140" height="200" rx="3" fill="white"/>
<rect x="221.998" y="59" width="116" height="11" fill="#FCF6E1"/>
<path d="M264.998 31C264.998 30.4477 265.446 30 265.998 30H299.998C300.551 30 300.998 30.4477 300.998 31C300.998 31.5523 300.551 32 299.998 32H265.998C265.446 32 264.998 31.5523 264.998 31Z" fill="#666666"/>
<path d="M229.998 39.5C229.998 39.2239 230.089 39 230.201 39H249.795C249.907 39 249.998 39.2239 249.998 39.5C249.998 39.7761 249.907 40 249.795 40H230.201C230.089 40 229.998 39.7761 229.998 39.5Z" fill="#CCCCCC"/>
<path d="M229.845 54.6729C229.845 54.3967 229.893 54.1729 229.953 54.1729H240.366C240.425 54.1729 240.473 54.3967 240.473 54.6729C240.473 54.949 240.425 55.1729 240.366 55.1729H229.953C229.893 55.1729 229.845 54.949 229.845 54.6729Z" fill="#CCCCCC"/>
<path d="M229.845 44.5C229.845 44.2239 229.989 44 230.168 44H261.407C261.586 44 261.73 44.2239 261.73 44.5C261.73 44.7761 261.586 45 261.407 45H230.168C229.989 45 229.845 44.7761 229.845 44.5Z" fill="#CCCCCC"/>
<path d="M229.845 49.5864C229.845 49.3103 229.971 49.0864 230.128 49.0864H257.462C257.618 49.0864 257.745 49.3103 257.745 49.5864C257.745 49.8626 257.618 50.0864 257.462 50.0864H230.128C229.971 50.0864 229.845 49.8626 229.845 49.5864Z" fill="#CCCCCC"/>
<path d="M229.998 76.5C229.998 76.2239 230.057 76 230.13 76H242.866C242.939 76 242.998 76.2239 242.998 76.5C242.998 76.7761 242.939 77 242.866 77H230.13C230.057 77 229.998 76.7761 229.998 76.5Z" fill="#808080"/>
<path d="M229.998 91.5C229.998 91.2239 230.047 91 230.106 91H240.519C240.579 91 240.627 91.2239 240.627 91.5C240.627 91.7761 240.579 92 240.519 92H230.106C230.047 92 229.998 91.7761 229.998 91.5Z" fill="#666666"/>
<path d="M229.998 81.5C229.998 81.2239 230.292 81 230.655 81H294.109C294.472 81 294.766 81.2239 294.766 81.5C294.766 81.7761 294.472 82 294.109 82H230.655C230.292 82 229.998 81.7761 229.998 81.5Z" fill="#CCCCCC"/>
<path d="M229.998 86.5C229.998 86.2239 230.125 86 230.281 86H257.615C257.772 86 257.898 86.2239 257.898 86.5C257.898 86.7761 257.772 87 257.615 87H230.281C230.125 87 229.998 86.7761 229.998 86.5Z" fill="#CCCCCC"/>
<path d="M229.998 101.5C229.998 101.776 230.143 102 230.322 102H261.561C261.739 102 261.884 101.776 261.884 101.5C261.884 101.224 261.739 101 261.561 101H230.322C230.143 101 229.998 101.224 229.998 101.5Z" fill="#CCCCCC"/>
<path d="M229.998 96.5C229.998 96.7761 230.089 97 230.2 97H249.725C249.836 97 249.927 96.7761 249.927 96.5C249.927 96.2239 249.836 96 249.725 96H230.2C230.089 96 229.998 96.2239 229.998 96.5Z" fill="#CCCCCC"/>
<path d="M229.998 106.5C229.998 106.776 230.143 107 230.322 107H261.561C261.739 107 261.884 106.776 261.884 106.5C261.884 106.224 261.739 106 261.561 106H230.322C230.143 106 229.998 106.224 229.998 106.5Z" fill="#CCCCCC"/>
<path d="M229.845 112.5C229.845 112.776 229.893 113 229.953 113H240.366C240.425 113 240.473 112.776 240.473 112.5C240.473 112.224 240.425 112 240.366 112H229.953C229.893 112 229.845 112.224 229.845 112.5Z" fill="#CCCCCC"/>
<path d="M229.998 117.5C229.998 117.776 230.021 118 230.049 118H234.948C234.976 118 234.998 117.776 234.998 117.5C234.998 117.224 234.976 117 234.948 117H230.049C230.021 117 229.998 117.224 229.998 117.5Z" fill="#CCCCCC"/>
<path d="M229.998 121.5C229.998 121.776 230.021 122 230.049 122H234.948C234.976 122 234.998 121.776 234.998 121.5C234.998 121.224 234.976 121 234.948 121H230.049C230.021 121 229.998 121.224 229.998 121.5Z" fill="#CCCCCC"/>
<path d="M229.998 125.5C229.998 125.776 230.021 126 230.049 126H234.948C234.976 126 234.998 125.776 234.998 125.5C234.998 125.224 234.976 125 234.948 125H230.049C230.021 125 229.998 125.224 229.998 125.5Z" fill="#CCCCCC"/>
<path d="M256.998 117.586C256.998 117.863 257.044 118.086 257.1 118.086H266.897C266.953 118.086 266.998 117.863 266.998 117.586C266.998 117.31 266.953 117.086 266.897 117.086H257.1C257.044 117.086 256.998 117.31 256.998 117.586Z" fill="#CCCCCC"/>
<path d="M256.998 122.586C256.998 122.863 257.044 123.086 257.1 123.086H266.897C266.953 123.086 266.998 122.863 266.998 122.586C266.998 122.31 266.953 122.086 266.897 122.086H257.1C257.044 122.086 256.998 122.31 256.998 122.586Z" fill="#CCCCCC"/>
<path d="M256.998 127.586C256.998 127.863 257.044 128.086 257.1 128.086H266.897C266.953 128.086 266.998 127.863 266.998 127.586C266.998 127.31 266.953 127.086 266.897 127.086H257.1C257.044 127.086 256.998 127.31 256.998 127.586Z" fill="#CCCCCC"/>
<path d="M282.998 117.586C282.998 117.863 283.012 118.086 283.029 118.086H285.968C285.985 118.086 285.998 117.863 285.998 117.586C285.998 117.31 285.985 117.086 285.968 117.086H283.029C283.012 117.086 282.998 117.31 282.998 117.586Z" fill="#CCCCCC"/>
<path d="M282.998 122.586C282.998 122.863 283.012 123.086 283.029 123.086H285.968C285.985 123.086 285.998 122.863 285.998 122.586C285.998 122.31 285.985 122.086 285.968 122.086H283.029C283.012 122.086 282.998 122.31 282.998 122.586Z" fill="#CCCCCC"/>
<path d="M282.998 127.586C282.998 127.863 283.012 128.086 283.029 128.086H285.968C285.985 128.086 285.998 127.863 285.998 127.586C285.998 127.31 285.985 127.086 285.968 127.086H283.029C283.012 127.086 282.998 127.31 282.998 127.586Z" fill="#CCCCCC"/>
<path d="M309.559 117.555C309.559 117.832 309.573 118.055 309.589 118.055H312.529C312.545 118.055 312.559 117.832 312.559 117.555C312.559 117.279 312.545 117.055 312.529 117.055H309.589C309.573 117.055 309.559 117.279 309.559 117.555Z" fill="#CCCCCC"/>
<path d="M309.559 122.555C309.559 122.832 309.573 123.055 309.589 123.055H312.529C312.545 123.055 312.559 122.832 312.559 122.555C312.559 122.279 312.545 122.055 312.529 122.055H309.589C309.573 122.055 309.559 122.279 309.559 122.555Z" fill="#CCCCCC"/>
<path d="M309.559 127.555C309.559 127.832 309.573 128.055 309.589 128.055H312.529C312.545 128.055 312.559 127.832 312.559 127.555C312.559 127.279 312.545 127.055 312.529 127.055H309.589C309.573 127.055 309.559 127.279 309.559 127.555Z" fill="#CCCCCC"/>
<path d="M256.416 112.5C256.416 112.776 256.464 113 256.524 113H266.937C266.996 113 267.045 112.776 267.045 112.5C267.045 112.224 266.996 112 266.937 112H256.524C256.464 112 256.416 112.224 256.416 112.5Z" fill="#CCCCCC"/>
<path d="M282.988 112.5C282.988 112.776 283.036 113 283.095 113H293.508C293.568 113 293.616 112.776 293.616 112.5C293.616 112.224 293.568 112 293.508 112H283.095C283.036 112 282.988 112.224 282.988 112.5Z" fill="#CCCCCC"/>
<path d="M309.559 112.5C309.559 112.776 309.627 113 309.711 113H324.354C324.438 113 324.505 112.776 324.505 112.5C324.505 112.224 324.438 112 324.354 112H309.711C309.627 112 309.559 112.224 309.559 112.5Z" fill="#CCCCCC"/>
<path d="M229.998 155.5C229.998 155.776 230.271 156 230.607 156H289.39C289.726 156 289.998 155.776 289.998 155.5C289.998 155.224 289.726 155 289.39 155H230.607C230.271 155 229.998 155.224 229.998 155.5Z" fill="#CCCCCC"/>
<path d="M230.998 160.5C230.998 160.776 231.171 161 231.384 161H268.613C268.826 161 268.998 160.776 268.998 160.5C268.998 160.224 268.826 160 268.613 160H231.384C231.171 160 230.998 160.224 230.998 160.5Z" fill="#CCCCCC"/>
<path d="M229.998 165.5C229.998 165.776 230.439 166 230.982 166H326.015C326.558 166 326.998 165.776 326.998 165.5C326.998 165.224 326.558 165 326.015 165H230.982C230.439 165 229.998 165.224 229.998 165.5Z" fill="#CCCCCC"/>
<path d="M230 184.5C230 184.776 230.449 185 231.004 185H327.996C328.551 185 329 184.776 329 184.5C329 184.224 328.551 184 327.996 184H231.004C230.449 184 230 184.224 230 184.5Z" fill="#CCCCCC"/>
<path d="M230 189.5C230 189.776 230.177 190 230.395 190H268.605C268.823 190 269 189.776 269 189.5C269 189.224 268.823 189 268.605 189H230.395C230.177 189 230 189.224 230 189.5Z" fill="#CCCCCC"/>
<path d="M230 195.5C230 195.776 230.177 196 230.395 196H268.605C268.823 196 269 195.776 269 195.5C269 195.224 268.823 195 268.605 195H230.395C230.177 195 230 195.224 230 195.5Z" fill="#CCCCCC"/>
<path d="M322.224 133.5C322.224 133.776 322.274 134 322.336 134H333.113C333.174 134 333.224 133.776 333.224 133.5C333.224 133.224 333.174 133 333.113 133H322.336C322.274 133 322.224 133.224 322.224 133.5Z" fill="#CCCCCC"/>
<path d="M323.998 151.5C323.998 151.776 324.039 152 324.09 152H332.907C332.957 152 332.998 151.776 332.998 151.5C332.998 151.224 332.957 151 332.907 151H324.09C324.039 151 323.998 151.224 323.998 151.5Z" fill="#CCCCCC"/>
<path d="M318.998 145.5C318.998 145.776 319.062 146 319.14 146H332.856C332.935 146 332.998 145.776 332.998 145.5C332.998 145.224 332.935 145 332.856 145H319.14C319.062 145 318.998 145.224 318.998 145.5Z" fill="#CCCCCC"/>
<path d="M317.998 139.5C317.998 139.776 318.066 140 318.15 140H332.846C332.93 140 332.998 139.776 332.998 139.5C332.998 139.224 332.93 139 332.846 139H318.15C318.066 139 317.998 139.224 317.998 139.5Z" fill="#CCCCCC"/>
<path d="M230 201.5C230 201.776 230.177 202 230.395 202H268.605C268.823 202 269 201.776 269 201.5C269 201.224 268.823 201 268.605 201H230.395C230.177 201 230 201.224 230 201.5Z" fill="#CCCCCC"/>
<path d="M314.998 38.5C314.998 38.2239 315.053 38 315.12 38H326.877C326.944 38 326.998 38.2239 326.998 38.5C326.998 38.7761 326.944 39 326.877 39H315.12C315.053 39 314.998 38.7761 314.998 38.5Z" fill="#CCCCCC"/>
<path d="M314.873 43.5C314.873 43.2239 314.96 43 315.067 43H333.778C333.885 43 333.972 43.2239 333.972 43.5C333.972 43.7761 333.885 44 333.778 44H315.067C314.96 44 314.873 43.7761 314.873 43.5Z" fill="#CCCCCC"/>
<path d="M314.873 48.5C314.873 48.2239 314.949 48 315.043 48H331.415C331.508 48 331.584 48.2239 331.584 48.5C331.584 48.7761 331.508 49 331.415 49H315.043C314.949 49 314.873 48.7761 314.873 48.5Z" fill="#CCCCCC"/>
<rect x="222.002" y="170" width="116" height="11" fill="#FCF6E1"/>
<rect x="210.5" y="16.5" width="139" height="199" rx="2.5" stroke="#333333"/>
</g>
<g filter="url(#filter2_d_33_67750)">
<rect x="381" y="95" width="140" height="200" rx="3" fill="white"/>
<path d="M421.998 111C421.998 110.448 422.446 110 422.998 110H475.998C476.551 110 476.998 110.448 476.998 111C476.998 111.552 476.551 112 475.998 112H422.998C422.446 112 421.998 111.552 421.998 111Z" fill="#AAAAAA"/>
<path d="M399.998 137C399.998 136.448 400.446 136 400.998 136H444.998C445.551 136 445.998 136.448 445.998 137C445.998 137.552 445.551 138 444.998 138H400.998C400.446 138 399.998 137.552 399.998 137Z" fill="#AAAAAA"/>
<path d="M399.998 119.5C399.998 119.224 400.222 119 400.498 119H430.498C430.774 119 430.998 119.224 430.998 119.5C430.998 119.776 430.774 120 430.498 120H400.498C400.222 120 399.998 119.776 399.998 119.5Z" fill="#AAAAAA"/>
<path d="M414.998 123.5C414.998 123.224 415.222 123 415.498 123H444.498C444.774 123 444.998 123.224 444.998 123.5C444.998 123.776 444.774 124 444.498 124H415.498C415.222 124 414.998 123.776 414.998 123.5Z" fill="#AAAAAA"/>
<path d="M422.998 131.5C422.998 131.224 423.222 131 423.498 131H462.498C462.774 131 462.998 131.224 462.998 131.5C462.998 131.776 462.774 132 462.498 132H423.498C423.222 132 422.998 131.776 422.998 131.5Z" fill="#AAAAAA"/>
<path d="M398.998 141.5C398.998 141.224 399.222 141 399.498 141H448.498C448.774 141 448.998 141.224 448.998 141.5C448.998 141.776 448.774 142 448.498 142H399.498C399.222 142 398.998 141.776 398.998 141.5Z" fill="#AAAAAA"/>
<path d="M398.998 141.5C398.998 141.224 399.222 141 399.498 141H448.498C448.774 141 448.998 141.224 448.998 141.5C448.998 141.776 448.774 142 448.498 142H399.498C399.222 142 398.998 141.776 398.998 141.5Z" fill="#AAAAAA"/>
<path d="M420.998 145.5C420.998 145.224 421.222 145 421.498 145H500.498C500.774 145 500.998 145.224 500.998 145.5C500.998 145.776 500.774 146 500.498 146H421.498C421.222 146 420.998 145.776 420.998 145.5Z" fill="#AAAAAA"/>
<path d="M398.998 153.5C398.998 153.224 399.222 153 399.498 153H482.498C482.774 153 482.998 153.224 482.998 153.5C482.998 153.776 482.774 154 482.498 154H399.498C399.222 154 398.998 153.776 398.998 153.5Z" fill="#AAAAAA"/>
<path d="M398.998 149.5C398.998 149.224 399.222 149 399.498 149H500.498C500.774 149 500.998 149.224 500.998 149.5C500.998 149.776 500.774 150 500.498 150H399.498C399.222 150 398.998 149.776 398.998 149.5Z" fill="#AAAAAA"/>
<path d="M465 141.5C465 141.776 465.224 142 465.5 142H471.5C471.776 142 472 141.776 472 141.5C472 141.224 471.776 141 471.5 141H465.5C465.224 141 465 141.224 465 141.5Z" fill="#AAAAAA"/>
<path d="M487 141.5C487 141.776 487.224 142 487.5 142H499.5C499.776 142 500 141.776 500 141.5C500 141.224 499.776 141 499.5 141H487.5C487.224 141 487 141.224 487 141.5Z" fill="#AAAAAA"/>
<path d="M399.998 127.5C399.998 127.224 400.222 127 400.498 127H488.498C488.774 127 488.998 127.224 488.998 127.5C488.998 127.776 488.774 128 488.498 128H400.498C400.222 128 399.998 127.776 399.998 127.5Z" fill="#AAAAAA"/>
<path d="M432 119.5C432 118.672 432.672 118 433.5 118H442.5C443.328 118 444 118.672 444 119.5C444 120.328 443.328 121 442.5 121H433.5C432.672 121 432 120.328 432 119.5Z" fill="#D9F4FF"/>
<path d="M451 141.5C451 140.672 451.672 140 452.5 140H461.5C462.328 140 463 140.672 463 141.5C463 142.328 462.328 143 461.5 143H452.5C451.672 143 451 142.328 451 141.5Z" fill="#D9F4FF"/>
<path d="M399 145.5C399 144.672 399.672 144 400.5 144H418.5C419.328 144 420 144.672 420 145.5C420 146.328 419.328 147 418.5 147H400.5C399.672 147 399 146.328 399 145.5Z" fill="#D9F4FF"/>
<path d="M474 141.5C474 140.672 474.672 140 475.5 140H484.5C485.328 140 486 140.672 486 141.5C486 142.328 485.328 143 484.5 143H475.5C474.672 143 474 142.328 474 141.5Z" fill="#D9F4FF"/>
<path d="M491 127.5C491 126.672 491.672 126 492.5 126H499.5C500.328 126 501 126.672 501 127.5C501 128.328 500.328 129 499.5 129H492.5C491.672 129 491 128.328 491 127.5Z" fill="#D9F4FF"/>
<path d="M399 123.5C399 122.672 399.672 122 400.5 122H412.5C413.328 122 414 122.672 414 123.5C414 124.328 413.328 125 412.5 125H400.5C399.672 125 399 124.328 399 123.5Z" fill="#D9F4FF"/>
<path d="M399 131.5C399 130.672 399.672 130 400.5 130H420.5C421.328 130 422 130.672 422 131.5C422 132.328 421.328 133 420.5 133H400.5C399.672 133 399 132.328 399 131.5Z" fill="#D9F4FF"/>
<path d="M454 119.5C454 118.672 454.672 118 455.5 118H473.5C474.328 118 475 118.672 475 119.5C475 120.328 474.328 121 473.5 121H455.5C454.672 121 454 120.328 454 119.5Z" fill="#D9F4FF"/>
<path d="M447 123.5C447 122.672 447.672 122 448.5 122H469.5C470.328 122 471 122.672 471 123.5C471 124.328 470.328 125 469.5 125H448.5C447.672 125 447 124.328 447 123.5Z" fill="#D9F4FF"/>
<path d="M476 123.5C476 122.672 476.672 122 477.5 122H498.5C499.328 122 500 122.672 500 123.5C500 124.328 499.328 125 498.5 125H477.5C476.672 125 476 124.328 476 123.5Z" fill="#D9F4FF"/>
<path d="M445 119.5C445 119.776 445.224 120 445.5 120H451.5C451.776 120 452 119.776 452 119.5C452 119.224 451.776 119 451.5 119H445.5C445.224 119 445 119.224 445 119.5Z" fill="#AAAAAA"/>
<path d="M472 123.5C472 123.776 472.224 124 472.5 124H474.5C474.776 124 475 123.776 475 123.5C475 123.224 474.776 123 474.5 123H472.5C472.224 123 472 123.224 472 123.5Z" fill="#AAAAAA"/>
<path d="M476 119.5C476 119.776 476.224 120 476.5 120H500.5C500.776 120 501 119.776 501 119.5C501 119.224 500.776 119 500.5 119H476.5C476.224 119 476 119.224 476 119.5Z" fill="#AAAAAA"/>
<path d="M398.998 163C398.998 162.448 399.446 162 399.998 162H412.998C413.551 162 413.998 162.448 413.998 163C413.998 163.552 413.551 164 412.998 164H399.998C399.446 164 398.998 163.552 398.998 163Z" fill="#AAAAAA"/>
<path d="M399.998 188C399.998 187.448 400.446 187 400.998 187H444.998C445.551 187 445.998 187.448 445.998 188C445.998 188.552 445.551 189 444.998 189H400.998C400.446 189 399.998 188.552 399.998 188Z" fill="#AAAAAA"/>
<path d="M399.998 170.5C399.998 170.224 400.222 170 400.498 170H430.498C430.774 170 430.998 170.224 430.998 170.5C430.998 170.776 430.774 171 430.498 171H400.498C400.222 171 399.998 170.776 399.998 170.5Z" fill="#AAAAAA"/>
<path d="M414.998 174.5C414.998 174.224 415.222 174 415.498 174H444.498C444.774 174 444.998 174.224 444.998 174.5C444.998 174.776 444.774 175 444.498 175H415.498C415.222 175 414.998 174.776 414.998 174.5Z" fill="#AAAAAA"/>
<path d="M422.998 182.5C422.998 182.224 423.222 182 423.498 182H462.498C462.774 182 462.998 182.224 462.998 182.5C462.998 182.776 462.774 183 462.498 183H423.498C423.222 183 422.998 182.776 422.998 182.5Z" fill="#AAAAAA"/>
<path d="M398.998 192.5C398.998 192.224 399.222 192 399.498 192H448.498C448.774 192 448.998 192.224 448.998 192.5C448.998 192.776 448.774 193 448.498 193H399.498C399.222 193 398.998 192.776 398.998 192.5Z" fill="#AAAAAA"/>
<path d="M398.998 192.5C398.998 192.224 399.222 192 399.498 192H448.498C448.774 192 448.998 192.224 448.998 192.5C448.998 192.776 448.774 193 448.498 193H399.498C399.222 193 398.998 192.776 398.998 192.5Z" fill="#AAAAAA"/>
<path d="M420.998 196.5C420.998 196.224 421.222 196 421.498 196H500.498C500.774 196 500.998 196.224 500.998 196.5C500.998 196.776 500.774 197 500.498 197H421.498C421.222 197 420.998 196.776 420.998 196.5Z" fill="#AAAAAA"/>
<path d="M398.998 204.5C398.998 204.224 399.222 204 399.498 204H482.498C482.774 204 482.998 204.224 482.998 204.5C482.998 204.776 482.774 205 482.498 205H399.498C399.222 205 398.998 204.776 398.998 204.5Z" fill="#AAAAAA"/>
<path d="M398.998 200.5C398.998 200.224 399.222 200 399.498 200H500.498C500.774 200 500.998 200.224 500.998 200.5C500.998 200.776 500.774 201 500.498 201H399.498C399.222 201 398.998 200.776 398.998 200.5Z" fill="#AAAAAA"/>
<path d="M465 192.5C465 192.776 465.224 193 465.5 193H471.5C471.776 193 472 192.776 472 192.5C472 192.224 471.776 192 471.5 192H465.5C465.224 192 465 192.224 465 192.5Z" fill="#AAAAAA"/>
<path d="M487 192.5C487 192.776 487.224 193 487.5 193H499.5C499.776 193 500 192.776 500 192.5C500 192.224 499.776 192 499.5 192H487.5C487.224 192 487 192.224 487 192.5Z" fill="#AAAAAA"/>
<path d="M399.998 178.5C399.998 178.224 400.222 178 400.498 178H488.498C488.774 178 488.998 178.224 488.998 178.5C488.998 178.776 488.774 179 488.498 179H400.498C400.222 179 399.998 178.776 399.998 178.5Z" fill="#AAAAAA"/>
<path d="M432 170.5C432 169.672 432.672 169 433.5 169H442.5C443.328 169 444 169.672 444 170.5C444 171.328 443.328 172 442.5 172H433.5C432.672 172 432 171.328 432 170.5Z" fill="#D9F4FF"/>
<path d="M451 192.5C451 191.671 451.672 191 452.5 191H461.5C462.328 191 463 191.671 463 192.5C463 193.328 462.328 194 461.5 194H452.5C451.672 194 451 193.328 451 192.5Z" fill="#D9F4FF"/>
<path d="M399 196.5C399 195.672 399.672 195 400.5 195H418.5C419.328 195 420 195.672 420 196.5C420 197.328 419.328 198 418.5 198H400.5C399.672 198 399 197.328 399 196.5Z" fill="#D9F4FF"/>
<path d="M474 192.5C474 191.671 474.672 191 475.5 191H484.5C485.328 191 486 191.671 486 192.5C486 193.328 485.328 194 484.5 194H475.5C474.672 194 474 193.328 474 192.5Z" fill="#D9F4FF"/>
<path d="M491 178.5C491 177.672 491.672 177 492.5 177H499.5C500.328 177 501 177.672 501 178.5C501 179.328 500.328 180 499.5 180H492.5C491.672 180 491 179.328 491 178.5Z" fill="#D9F4FF"/>
<path d="M399 174.5C399 173.672 399.672 173 400.5 173H412.5C413.328 173 414 173.672 414 174.5C414 175.328 413.328 176 412.5 176H400.5C399.672 176 399 175.328 399 174.5Z" fill="#D9F4FF"/>
<path d="M399 182.5C399 181.672 399.672 181 400.5 181H420.5C421.328 181 422 181.672 422 182.5C422 183.328 421.328 184 420.5 184H400.5C399.672 184 399 183.328 399 182.5Z" fill="#D9F4FF"/>
<path d="M454 170.5C454 169.672 454.672 169 455.5 169H473.5C474.328 169 475 169.672 475 170.5C475 171.328 474.328 172 473.5 172H455.5C454.672 172 454 171.328 454 170.5Z" fill="#D9F4FF"/>
<path d="M447 174.5C447 173.672 447.672 173 448.5 173H469.5C470.328 173 471 173.672 471 174.5C471 175.328 470.328 176 469.5 176H448.5C447.672 176 447 175.328 447 174.5Z" fill="#D9F4FF"/>
<path d="M476 174.5C476 173.672 476.672 173 477.5 173H498.5C499.328 173 500 173.672 500 174.5C500 175.328 499.328 176 498.5 176H477.5C476.672 176 476 175.328 476 174.5Z" fill="#D9F4FF"/>
<path d="M445 170.5C445 170.776 445.224 171 445.5 171H451.5C451.776 171 452 170.776 452 170.5C452 170.224 451.776 170 451.5 170H445.5C445.224 170 445 170.224 445 170.5Z" fill="#AAAAAA"/>
<path d="M472 174.5C472 174.776 472.224 175 472.5 175H474.5C474.776 175 475 174.776 475 174.5C475 174.224 474.776 174 474.5 174H472.5C472.224 174 472 174.224 472 174.5Z" fill="#AAAAAA"/>
<path d="M476 170.5C476 170.776 476.224 171 476.5 171H500.5C500.776 171 501 170.776 501 170.5C501 170.224 500.776 170 500.5 170H476.5C476.224 170 476 170.224 476 170.5Z" fill="#AAAAAA"/>
<path d="M398.998 215C398.998 214.448 399.446 214 399.998 214H422.998C423.551 214 423.998 214.448 423.998 215C423.998 215.552 423.551 216 422.998 216H399.998C399.446 216 398.998 215.552 398.998 215Z" fill="#AAAAAA"/>
<path d="M398.998 251C398.998 250.448 399.446 250 399.998 250H443.998C444.551 250 444.998 250.448 444.998 251C444.998 251.552 444.551 252 443.998 252H399.998C399.446 252 398.998 251.552 398.998 251Z" fill="#AAAAAA"/>
<path d="M399.998 222.5C399.998 222.224 400.222 222 400.498 222H430.498C430.774 222 430.998 222.224 430.998 222.5C430.998 222.776 430.774 223 430.498 223H400.498C400.222 223 399.998 222.776 399.998 222.5Z" fill="#AAAAAA"/>
<path d="M415.998 226.5C415.998 226.224 416.222 226 416.498 226H444.498C444.774 226 444.998 226.224 444.998 226.5C444.998 226.776 444.774 227 444.498 227H416.498C416.222 227 415.998 226.776 415.998 226.5Z" fill="#AAAAAA"/>
<path d="M422.998 234.5C422.998 234.224 423.222 234 423.498 234H462.498C462.774 234 462.998 234.224 462.998 234.5C462.998 234.776 462.774 235 462.498 235H423.498C423.222 235 422.998 234.776 422.998 234.5Z" fill="#AAAAAA"/>
<path d="M398.998 238.5C398.998 238.224 399.222 238 399.498 238H448.498C448.774 238 448.998 238.224 448.998 238.5C448.998 238.776 448.774 239 448.498 239H399.498C399.222 239 398.998 238.776 398.998 238.5Z" fill="#AAAAAA"/>
<path d="M398.998 257.5C398.998 257.224 399.222 257 399.498 257H471.5C471.776 257 472 257.224 472 257.5C472 257.776 471.776 258 471.5 258H399.498C399.222 258 398.998 257.776 398.998 257.5Z" fill="#AAAAAA"/>
<path d="M420.998 261.5C420.998 261.224 421.222 261 421.498 261H500.498C500.774 261 500.998 261.224 500.998 261.5C500.998 261.776 500.774 262 500.498 262H421.498C421.222 262 420.998 261.776 420.998 261.5Z" fill="#AAAAAA"/>
<path d="M398.998 269.5C398.998 269.224 399.222 269 399.498 269H414.498C414.774 269 414.998 269.224 414.998 269.5C414.998 269.776 414.774 270 414.498 270H399.498C399.222 270 398.998 269.776 398.998 269.5Z" fill="#AAAAAA"/>
<path d="M398.998 265.5C398.998 265.224 399.222 265 399.498 265H500.498C500.774 265 500.998 265.224 500.998 265.5C500.998 265.776 500.774 266 500.498 266H399.498C399.222 266 398.998 265.776 398.998 265.5Z" fill="#AAAAAA"/>
<path d="M487 257.5C487 257.776 487.224 258 487.5 258H499.5C499.776 258 500 257.776 500 257.5C500 257.224 499.776 257 499.5 257H487.5C487.224 257 487 257.224 487 257.5Z" fill="#AAAAAA"/>
<path d="M399.998 230.5C399.998 230.224 400.222 230 400.498 230H500.498C500.774 230 500.998 230.224 500.998 230.5C500.998 230.776 500.774 231 500.498 231H400.498C400.222 231 399.998 230.776 399.998 230.5Z" fill="#AAAAAA"/>
<path d="M432 222.5C432 221.672 432.672 221 433.5 221H442.5C443.328 221 444 221.672 444 222.5C444 223.328 443.328 224 442.5 224H433.5C432.672 224 432 223.328 432 222.5Z" fill="#D9F4FF"/>
<path d="M399 261.5C399 260.672 399.672 260 400.5 260H418.5C419.328 260 420 260.672 420 261.5C420 262.328 419.328 263 418.5 263H400.5C399.672 263 399 262.328 399 261.5Z" fill="#D9F4FF"/>
<path d="M474 257.5C474 256.672 474.672 256 475.5 256H484.5C485.328 256 486 256.672 486 257.5C486 258.328 485.328 259 484.5 259H475.5C474.672 259 474 258.328 474 257.5Z" fill="#D9F4FF"/>
<path d="M431 230.5C431 229.672 431.672 229 432.5 229H439.5C440.328 229 441 229.672 441 230.5C441 231.328 440.328 232 439.5 232H432.5C431.672 232 431 231.328 431 230.5Z" fill="#D9F4FF"/>
<path d="M399 226.5C399 225.672 399.672 225 400.5 225H412.5C413.328 225 414 225.672 414 226.5C414 227.328 413.328 228 412.5 228H400.5C399.672 228 399 227.328 399 226.5Z" fill="#D9F4FF"/>
<path d="M399 234.5C399 233.672 399.672 233 400.5 233H420.5C421.328 233 422 233.672 422 234.5C422 235.328 421.328 236 420.5 236H400.5C399.672 236 399 235.328 399 234.5Z" fill="#D9F4FF"/>
<path d="M454 222.5C454 221.672 454.672 221 455.5 221H473.5C474.328 221 475 221.672 475 222.5C475 223.328 474.328 224 473.5 224H455.5C454.672 224 454 223.328 454 222.5Z" fill="#D9F4FF"/>
<path d="M447 226.5C447 225.672 447.672 225 448.5 225H469.5C470.328 225 471 225.672 471 226.5C471 227.328 470.328 228 469.5 228H448.5C447.672 228 447 227.328 447 226.5Z" fill="#D9F4FF"/>
<path d="M445 222.5C445 222.776 445.224 223 445.5 223H451.5C451.776 223 452 222.776 452 222.5C452 222.224 451.776 222 451.5 222H445.5C445.224 222 445 222.224 445 222.5Z" fill="#AAAAAA"/>
<path d="M473 226.5C473 226.776 473.224 227 473.5 227H500.5C500.776 227 501 226.776 501 226.5C501 226.224 500.776 226 500.5 226H473.5C473.224 226 473 226.224 473 226.5Z" fill="#AAAAAA"/>
<path d="M476 222.5C476 222.776 476.224 223 476.5 223H500.5C500.776 223 501 222.776 501 222.5C501 222.224 500.776 222 500.5 222H476.5C476.224 222 476 222.224 476 222.5Z" fill="#AAAAAA"/>
<rect x="381.5" y="95.5" width="139" height="199" rx="2.5" stroke="#333333"/>
</g>
<g filter="url(#filter3_d_33_67750)">
<rect x="210" y="244" width="140" height="200" rx="3" fill="white"/>
<rect x="221.503" y="252.5" width="117" height="7.96112" stroke="#AAAAAA"/>
<rect x="221.497" y="408.632" width="117" height="26.8683" stroke="#AAAAAA"/>
<rect x="221.503" y="260.501" width="117" height="174.015" stroke="#AAAAAA"/>
<path d="M233 343.5C233 343.224 233.077 343 233.172 343H249.828C249.923 343 250 343.224 250 343.5C250 343.776 249.923 344 249.828 344H233.172C233.077 344 233 343.776 233 343.5Z" fill="#CCCCCC"/>
<path d="M233 349.5C233 349.224 233.218 349 233.487 349H280.513C280.782 349 281 349.224 281 349.5C281 349.776 280.782 350 280.513 350H233.487C233.218 350 233 349.776 233 349.5Z" fill="#CCCCCC"/>
<path d="M227 415.5C227 415.224 227.218 415 227.487 415H274.513C274.782 415 275 415.224 275 415.5C275 415.776 274.782 416 274.513 416H227.487C227.218 416 227 415.776 227 415.5Z" fill="#CCCCCC"/>
<path d="M227 427.5C227 427.224 227.309 427 227.69 427H294.31C294.691 427 295 427.224 295 427.5C295 427.776 294.691 428 294.31 428H227.69C227.309 428 227 427.776 227 427.5Z" fill="#CCCCCC"/>
<path d="M227 421.5C227 421.224 227.127 421 227.284 421H254.716C254.873 421 255 421.224 255 421.5C255 421.776 254.873 422 254.716 422H227.284C227.127 422 227 421.776 227 421.5Z" fill="#CCCCCC"/>
<path d="M263 421.5C263 421.224 263.309 421 263.69 421H330.31C330.691 421 331 421.224 331 421.5C331 421.776 330.691 422 330.31 422H263.69C263.309 422 263 421.776 263 421.5Z" fill="#CCCCCC"/>
<path d="M232 364.506C232 364.232 232.109 364.01 232.243 364.01H255.757C255.891 364.01 256 364.232 256 364.506C256 364.78 255.891 365.003 255.757 365.003H232.243C232.109 365.003 232 364.78 232 364.506Z" fill="#CCCCCC"/>
<path d="M233 375.511C233 375.235 233.068 375.011 233.152 375.011H247.848C247.932 375.011 248 375.235 248 375.511C248 375.787 247.932 376.011 247.848 376.011H233.152C233.068 376.011 233 375.787 233 375.511Z" fill="#CCCCCC"/>
<path d="M233 391.512C233 391.236 233.068 391.012 233.152 391.012H247.848C247.932 391.012 248 391.236 248 391.512C248 391.789 247.932 392.012 247.848 392.012H233.152C233.068 392.012 233 391.789 233 391.512Z" fill="#CCCCCC"/>
<path d="M233 382.512C233 382.235 233.064 382.012 233.142 382.012H246.858C246.936 382.012 247 382.235 247 382.512C247 382.788 246.936 383.012 246.858 383.012H233.142C233.064 383.012 233 382.788 233 382.512Z" fill="#CCCCCC"/>
<path d="M233 385.512C233 385.236 233.054 385.012 233.122 385.012H244.878C244.946 385.012 245 385.236 245 385.512C245 385.788 244.946 386.012 244.878 386.012H233.122C233.054 386.012 233 385.788 233 385.512Z" fill="#CCCCCC"/>
<rect x="264" y="325.006" width="71" height="5.00044" fill="#E8EEFE"/>
<rect x="268.003" y="310.005" width="8" height="5.00044" fill="#E8EEFE"/>
<rect x="283.954" y="332.007" width="10" height="6.00053" fill="#E8EEFE"/>
<rect x="295.954" y="332.007" width="7" height="6.00053" fill="#E8EEFE"/>
<rect x="304.954" y="332.007" width="12" height="6.00053" fill="#E8EEFE"/>
<rect x="262" y="341.008" width="73" height="5.00044" fill="#E8EEFE"/>
<rect x="284.954" y="348.008" width="10" height="5.00044" fill="#E8EEFE"/>
<rect x="296.954" y="348.008" width="7" height="5.00044" fill="#E8EEFE"/>
<rect x="305.954" y="348.008" width="12" height="5.00044" fill="#E8EEFE"/>
<rect x="260" y="362.01" width="75" height="5.00044" fill="#E8EEFE"/>
<rect x="250.954" y="374.011" width="19" height="5.00044" fill="#E8EEFE"/>
<rect x="251" y="381.011" width="84" height="5.00044" fill="#E8EEFE"/>
<rect x="251" y="389.012" width="84" height="5.00044" fill="#E8EEFE"/>
<rect x="308" y="369.01" width="19" height="5.00044" fill="#E8EEFE"/>
<rect x="257" y="269.001" width="78" height="5.00044" fill="#E7EDFF"/>
<rect x="221.5" y="260.501" width="8" height="148.013" fill="#E2E2E2" stroke="#AAAAAA"/>
<rect x="258.003" y="307.005" width="7" height="13.0012" fill="#E2E2E2"/>
<rect x="270.954" y="374.011" width="8" height="5.00044" fill="#E2E2E2"/>
<rect x="258" y="396" width="8" height="10.0009" fill="#E2E2E2"/>
<rect x="294.003" y="292.004" width="6" height="10.0009" fill="#E2E2E2"/>
<rect x="257" y="277.002" width="78" height="5.00044" fill="#E7EDFF"/>
<rect x="257" y="285.003" width="78" height="5.00044" fill="#E7EDFF"/>
<rect x="245.003" y="293.004" width="47" height="5.00044" fill="#E7EDFF"/>
<rect x="302.003" y="293.004" width="33" height="5.00044" fill="#E7EDFF"/>
<path d="M233 271.502C233 271.226 233.1 271.002 233.223 271.002H254.777C254.9 271.002 255 271.226 255 271.502C255 271.778 254.9 272.002 254.777 272.002H233.223C233.1 272.002 233 271.778 233 271.502Z" fill="#CCCCCC"/>
<path d="M233 279.502C233 279.226 233.1 279.002 233.223 279.002H254.777C254.9 279.002 255 279.226 255 279.502C255 279.779 254.9 280.002 254.777 280.002H233.223C233.1 280.002 233 279.779 233 279.502Z" fill="#CCCCCC"/>
<path d="M233 287.503C233 287.227 233.1 287.003 233.223 287.003H254.777C254.9 287.003 255 287.227 255 287.503C255 287.779 254.9 288.003 254.777 288.003H233.223C233.1 288.003 233 287.779 233 287.503Z" fill="#CCCCCC"/>
<path d="M233 295.504C233 295.228 233.045 295.004 233.101 295.004H242.899C242.955 295.004 243 295.228 243 295.504C243 295.78 242.955 296.004 242.899 296.004H233.101C233.045 296.004 233 295.78 233 295.504Z" fill="#CCCCCC"/>
<path d="M233 303.505C233 303.228 233.163 303.005 233.365 303.005H268.635C268.837 303.005 269 303.228 269 303.505C269 303.781 268.837 304.005 268.635 304.005H233.365C233.163 304.005 233 303.781 233 303.505Z" fill="#CCCCCC"/>
<path d="M232 310.538C232 310.262 232.1 310.038 232.223 310.038H253.777C253.9 310.038 254 310.262 254 310.538C254 310.815 253.9 311.039 253.777 311.039H232.223C232.1 311.039 232 310.815 232 310.538Z" fill="#CCCCCC"/>
<path d="M232 315.539C232 315.263 232.073 315.039 232.162 315.039H247.838C247.927 315.039 248 315.263 248 315.539C248 315.815 247.927 316.039 247.838 316.039H232.162C232.073 316.039 232 315.815 232 315.539Z" fill="#CCCCCC"/>
<path d="M233 334.507C233 334.231 233.213 334.007 233.477 334.007H279.523C279.787 334.007 280 334.231 280 334.507C280 334.783 279.787 335.007 279.523 335.007H233.477C233.213 335.007 233 334.783 233 334.507Z" fill="#CCCCCC"/>
<path d="M279 312.505C279 312.229 279.25 312.005 279.558 312.005H333.442C333.75 312.005 334 312.229 334 312.505C334 312.782 333.75 313.005 333.442 313.005H279.558C279.25 313.005 279 312.782 279 312.505Z" fill="#CCCCCC"/>
<path d="M233 325.506C233 325.23 233.127 325.006 233.284 325.006H260.716C260.873 325.006 261 325.23 261 325.506C261 325.783 260.873 326.007 260.716 326.007H233.284C233.127 326.007 233 325.783 233 325.506Z" fill="#CCCCCC"/>
<path d="M233 329.507C233 329.231 233.109 329.007 233.243 329.007H256.757C256.891 329.007 257 329.231 257 329.507C257 329.783 256.891 330.007 256.757 330.007H233.243C233.109 330.007 233 329.783 233 329.507Z" fill="#CCCCCC"/>
<rect x="210.5" y="244.5" width="139" height="199" rx="2.5" stroke="#333333"/>
</g>
<g filter="url(#filter4_d_33_67750)">
<rect x="551" y="184" width="140" height="200" rx="3" fill="white"/>
<g clip-path="url(#clip0_33_67750)">
<rect x="563" y="217" width="28" height="12" fill="#E8F4E4"/>
<rect x="593" y="217" width="28" height="12" fill="#E8F4E4"/>
<rect x="623" y="217" width="28" height="12" fill="#E8F4E4"/>
<rect x="653" y="217" width="28" height="12" fill="#E8F4E4"/>
<rect x="563" y="231" width="28" height="12" fill="#E8F4E4"/>
<rect x="593" y="231" width="28" height="12" fill="#E8F4E4"/>
<rect x="623" y="231" width="28" height="12" fill="#E8F4E4"/>
<rect x="653" y="231" width="28" height="12" fill="#E8F4E4"/>
<rect x="563" y="245" width="28" height="12" fill="#E8F4E4"/>
<rect x="593" y="245" width="28" height="12" fill="#E8F4E4"/>
<rect x="623" y="245" width="28" height="12" fill="#E8F4E4"/>
<rect x="653" y="245" width="28" height="12" fill="#E8F4E4"/>
<rect x="563" y="259" width="28" height="12" fill="#E8F4E4"/>
<rect x="593" y="259" width="28" height="12" fill="#E8F4E4"/>
<rect x="623" y="259" width="28" height="12" fill="#E8F4E4"/>
<rect x="653" y="259" width="28" height="12" fill="#E8F4E4"/>
<rect x="563" y="273" width="28" height="12" fill="#E8F4E4"/>
<rect x="593" y="273" width="28" height="12" fill="#E8F4E4"/>
<rect x="623" y="273" width="28" height="12" fill="#E8F4E4"/>
<rect x="653" y="273" width="28" height="12" fill="#E8F4E4"/>
<rect x="563" y="287" width="28" height="12" fill="#E8F4E4"/>
<rect x="593" y="287" width="28" height="12" fill="#E8F4E4"/>
<rect x="623" y="287" width="28" height="12" fill="#E8F4E4"/>
<rect x="653" y="287" width="28" height="12" fill="#E8F4E4"/>
<path d="M605.998 199C605.998 198.448 606.446 198 606.998 198H640.998C641.551 198 641.998 198.448 641.998 199C641.998 199.552 641.551 200 640.998 200H606.998C606.446 200 605.998 199.552 605.998 199Z" fill="#666666"/>
<path d="M570.998 210.5C570.998 210.224 571.18 210 571.404 210H610.593C610.817 210 610.998 210.224 610.998 210.5C610.998 210.776 610.817 211 610.593 211H571.404C571.18 211 570.998 210.776 570.998 210.5Z" fill="#CCCCCC"/>
<path d="M635.998 210.5C635.998 210.224 636.157 210 636.353 210H670.643C670.839 210 670.998 210.224 670.998 210.5C670.998 210.776 670.839 211 670.643 211H636.353C636.157 211 635.998 210.776 635.998 210.5Z" fill="#CCCCCC"/>
<path d="M570.998 308.5C570.998 308.776 571.271 309 571.607 309H630.39C630.726 309 630.998 308.776 630.998 308.5C630.998 308.224 630.726 308 630.39 308H571.607C571.271 308 570.998 308.224 570.998 308.5Z" fill="#CCCCCC"/>
<path d="M570.998 313.5C570.998 313.776 571.171 314 571.384 314H608.613C608.826 314 608.998 313.776 608.998 313.5C608.998 313.224 608.826 313 608.613 313H571.384C571.171 313 570.998 313.224 570.998 313.5Z" fill="#CCCCCC"/>
<path d="M570.998 318.5C570.998 318.776 571.439 319 571.982 319H667.015C667.558 319 667.998 318.776 667.998 318.5C667.998 318.224 667.558 318 667.015 318H571.982C571.439 318 570.998 318.224 570.998 318.5Z" fill="#CCCCCC"/>
<path d="M571 337.5C571 337.776 571.449 338 572.004 338H668.996C669.551 338 670 337.776 670 337.5C670 337.224 669.551 337 668.996 337H572.004C571.449 337 571 337.224 571 337.5Z" fill="#CCCCCC"/>
<path d="M571 342.5C571 342.776 571.313 343 571.7 343H639.3C639.687 343 640 342.776 640 342.5C640 342.224 639.687 342 639.3 342H571.7C571.313 342 571 342.224 571 342.5Z" fill="#CCCCCC"/>
<rect x="563.002" y="323" width="116" height="11" fill="#EBF5E7"/>
</g>
<rect x="551.5" y="184.5" width="139" height="199" rx="2.5" stroke="#333333"/>
</g>
<defs>
<filter id="filter0_d_33_67750" x="31" y="130" width="156" height="216" filterUnits="userSpaceOnUse" color-interpolation-filters="sRGB">
<feFlood flood-opacity="0" result="BackgroundImageFix"/>
<feColorMatrix in="SourceAlpha" type="matrix" values="0 0 0 0 0 0 0 0 0 0 0 0 0 0 0 0 0 0 127 0" result="hardAlpha"/>
<feOffset dy="4"/>
<feGaussianBlur stdDeviation="4"/>
<feColorMatrix type="matrix" values="0 0 0 0 0.333333 0 0 0 0 0.333333 0 0 0 0 0.333333 0 0 0 0.2 0"/>
<feBlend mode="normal" in2="BackgroundImageFix" result="effect1_dropShadow_33_67750"/>
<feBlend mode="normal" in="SourceGraphic" in2="effect1_dropShadow_33_67750" result="shape"/>
</filter>
<filter id="filter1_d_33_67750" x="202" y="12" width="156" height="216" filterUnits="userSpaceOnUse" color-interpolation-filters="sRGB">
<feFlood flood-opacity="0" result="BackgroundImageFix"/>
<feColorMatrix in="SourceAlpha" type="matrix" values="0 0 0 0 0 0 0 0 0 0 0 0 0 0 0 0 0 0 127 0" result="hardAlpha"/>
<feOffset dy="4"/>
<feGaussianBlur stdDeviation="4"/>
<feColorMatrix type="matrix" values="0 0 0 0 0.333333 0 0 0 0 0.333333 0 0 0 0 0.333333 0 0 0 0.2 0"/>
<feBlend mode="normal" in2="BackgroundImageFix" result="effect1_dropShadow_33_67750"/>
<feBlend mode="normal" in="SourceGraphic" in2="effect1_dropShadow_33_67750" result="shape"/>
</filter>
<filter id="filter2_d_33_67750" x="373" y="91" width="156" height="216" filterUnits="userSpaceOnUse" color-interpolation-filters="sRGB">
<feFlood flood-opacity="0" result="BackgroundImageFix"/>
<feColorMatrix in="SourceAlpha" type="matrix" values="0 0 0 0 0 0 0 0 0 0 0 0 0 0 0 0 0 0 127 0" result="hardAlpha"/>
<feOffset dy="4"/>
<feGaussianBlur stdDeviation="4"/>
<feColorMatrix type="matrix" values="0 0 0 0 0.333333 0 0 0 0 0.333333 0 0 0 0 0.333333 0 0 0 0.2 0"/>
<feBlend mode="normal" in2="BackgroundImageFix" result="effect1_dropShadow_33_67750"/>
<feBlend mode="normal" in="SourceGraphic" in2="effect1_dropShadow_33_67750" result="shape"/>
</filter>
<filter id="filter3_d_33_67750" x="202" y="240" width="156" height="216" filterUnits="userSpaceOnUse" color-interpolation-filters="sRGB">
<feFlood flood-opacity="0" result="BackgroundImageFix"/>
<feColorMatrix in="SourceAlpha" type="matrix" values="0 0 0 0 0 0 0 0 0 0 0 0 0 0 0 0 0 0 127 0" result="hardAlpha"/>
<feOffset dy="4"/>
<feGaussianBlur stdDeviation="4"/>
<feColorMatrix type="matrix" values="0 0 0 0 0.333333 0 0 0 0 0.333333 0 0 0 0 0.333333 0 0 0 0.2 0"/>
<feBlend mode="normal" in2="BackgroundImageFix" result="effect1_dropShadow_33_67750"/>
<feBlend mode="normal" in="SourceGraphic" in2="effect1_dropShadow_33_67750" result="shape"/>
</filter>
<filter id="filter4_d_33_67750" x="543" y="180" width="156" height="216" filterUnits="userSpaceOnUse" color-interpolation-filters="sRGB">
<feFlood flood-opacity="0" result="BackgroundImageFix"/>
<feColorMatrix in="SourceAlpha" type="matrix" values="0 0 0 0 0 0 0 0 0 0 0 0 0 0 0 0 0 0 127 0" result="hardAlpha"/>
<feOffset dy="4"/>
<feGaussianBlur stdDeviation="4"/>
<feColorMatrix type="matrix" values="0 0 0 0 0.333333 0 0 0 0 0.333333 0 0 0 0 0.333333 0 0 0 0.2 0"/>
<feBlend mode="normal" in2="BackgroundImageFix" result="effect1_dropShadow_33_67750"/>
<feBlend mode="normal" in="SourceGraphic" in2="effect1_dropShadow_33_67750" result="shape"/>
</filter>
<clipPath id="clip0_33_67750">
<rect width="116" height="173" fill="white" transform="translate(563 198)"/>
</clipPath>
</defs>
</svg>
