<svg width="736" height="460" viewBox="0 0 736 460" fill="none" xmlns="http://www.w3.org/2000/svg">
<g filter="url(#filter0_d_33_70695)">
<path d="M473 26.0118C473 24.3484 474.344 23 476.001 23H665.999C667.656 23 669 24.3484 669 26.0118V154.988C669 156.652 667.656 158 665.999 158H476.001C474.344 158 473 156.652 473 154.988V26.0118Z" fill="#F2F2F2"/>
<path d="M473.5 26.0118C473.5 24.6229 474.621 23.5 476.001 23.5H665.999C667.379 23.5 668.5 24.6229 668.5 26.0118V154.988C668.5 156.377 667.379 157.5 665.999 157.5H476.001C474.621 157.5 473.5 156.377 473.5 154.988V26.0118Z" stroke="#808080"/>
</g>
<path d="M473.94 68.5939H667.94V73.5939H473.94V68.5939Z" fill="#E9E9E9"/>
<path d="M523.995 50.6204H660.971V61.641H523.995V50.6204Z" fill="white"/>
<path fill-rule="evenodd" clip-rule="evenodd" d="M660.029 51.5996H524.942V60.6807H660.029V51.5996ZM523.942 50.6394V61.6409H661.028V50.6394H523.942Z" fill="#CCCCCC"/>
<path d="M615.979 51.6204H627.977V60.6216H615.979V51.6204Z" fill="#EBEBEB"/>
<path d="M531.993 51.6204H532.993V60.6216H531.993V51.6204Z" fill="#95C038"/>
<path d="M583.984 51.6204H584.984V60.6216H583.984V51.6204Z" fill="#FF4B55"/>
<path d="M588.984 51.6204H589.984V60.6216H588.984V51.6204Z" fill="#FF4B55"/>
<path d="M592.983 51.6204H593.983V60.6216H592.983V51.6204Z" fill="#FF4B55"/>
<path d="M605.981 51.6204H606.981V60.6216H605.981V51.6204Z" fill="#FF4B55"/>
<path d="M620.978 51.6204H621.978V60.6216H620.978V51.6204Z" fill="#95C038"/>
<path d="M624.977 51.6204H625.977V60.6216H624.977V51.6204Z" fill="#95C038"/>
<path d="M637.975 51.6204H638.975V60.6216H637.975V51.6204Z" fill="#8A8A8A"/>
<path d="M481.002 52.6206C481.002 51.5159 481.897 50.6204 483.002 50.6204H516.996C518.1 50.6204 518.995 51.5159 518.995 52.6206V59.6216C518.995 60.7263 518.1 61.6218 516.996 61.6218H483.002C481.897 61.6218 481.002 60.7263 481.002 59.6216V52.6206Z" fill="url(#paint0_linear_33_70695)"/>
<path fill-rule="evenodd" clip-rule="evenodd" d="M488.001 56.1204C488.001 55.8442 488.23 55.6204 488.513 55.6204H510.485C510.768 55.6204 510.997 55.8442 510.997 56.1204C510.997 56.3965 510.768 56.6204 510.485 56.6204H488.513C488.23 56.6204 488.001 56.3965 488.001 56.1204Z" fill="white"/>
<path d="M667.94 76.5939C667.94 75.4893 667.045 74.5939 665.94 74.5939H525.94C524.836 74.5939 523.94 75.4893 523.94 76.5939V154.594C523.94 155.698 524.836 156.594 525.94 156.594H665.94C667.045 156.594 667.94 155.698 667.94 154.594V76.5939Z" fill="white"/>
<path fill-rule="evenodd" clip-rule="evenodd" d="M545.989 156.634L545.989 74.6235L546.991 74.6235L546.991 156.634L545.989 156.634Z" fill="#EFEFEF"/>
<path fill-rule="evenodd" clip-rule="evenodd" d="M595.982 156.634L595.982 74.6235L596.982 74.6235L596.982 156.634L595.982 156.634Z" fill="#EFEFEF"/>
<path fill-rule="evenodd" clip-rule="evenodd" d="M570.986 156.634L570.986 74.6235L571.986 74.6235L571.986 156.634L570.986 156.634Z" fill="#EFEFEF"/>
<path fill-rule="evenodd" clip-rule="evenodd" d="M645.974 156.634L645.974 74.6235L646.974 74.6235L646.974 156.634L645.974 156.634Z" fill="#EFEFEF"/>
<path fill-rule="evenodd" clip-rule="evenodd" d="M620.978 156.634L620.978 74.6235L621.978 74.6235L621.978 156.634L620.978 156.634Z" fill="#EFEFEF"/>
<path fill-rule="evenodd" clip-rule="evenodd" d="M523.995 83.6247L667.97 83.6247L667.97 84.6247L523.995 84.6247L523.995 83.6247Z" fill="#EFEFEF"/>
<path fill-rule="evenodd" clip-rule="evenodd" d="M523.995 119.63L667.97 119.63L667.97 120.63L523.995 120.63L523.995 119.63Z" fill="#EFEFEF"/>
<path fill-rule="evenodd" clip-rule="evenodd" d="M523.995 101.627L667.97 101.627L667.97 102.627L523.995 102.627L523.995 101.627Z" fill="#EFEFEF"/>
<path fill-rule="evenodd" clip-rule="evenodd" d="M523.995 137.632L667.97 137.632L667.97 138.632L523.995 138.632L523.995 137.632Z" fill="#EFEFEF"/>
<path fill-rule="evenodd" clip-rule="evenodd" d="M523.941 92.6069L667.97 92.6069L667.97 93.6069L523.941 93.6069L523.941 92.6069Z" fill="#EFEFEF"/>
<path fill-rule="evenodd" clip-rule="evenodd" d="M523.995 128.631L667.97 128.631L667.97 129.631L523.995 129.631L523.995 128.631Z" fill="#EFEFEF"/>
<path fill-rule="evenodd" clip-rule="evenodd" d="M523.995 110.628L667.97 110.628L667.97 111.628L523.995 111.628L523.995 110.628Z" fill="#EFEFEF"/>
<path fill-rule="evenodd" clip-rule="evenodd" d="M523.995 146.633L667.97 146.633L667.97 147.633L523.995 147.633L523.995 146.633Z" fill="#EFEFEF"/>
<path d="M523.995 110.609H595.982V117.609H523.995V110.609Z" fill="#BDDA7F"/>
<path d="M523.995 126.63H652.973V133.63H523.995V126.63Z" fill="#BDDA7F"/>
<path d="M553.99 141.632H603.981V148.632H553.99V141.632Z" fill="#BDDA7F"/>
<path d="M595.982 103.628H637.976V110.628H595.982V103.628Z" fill="#BDDA7F"/>
<path fill-rule="evenodd" clip-rule="evenodd" d="M482.002 83.1245C482.002 82.8484 482.226 82.6245 482.503 82.6245H507.496C507.773 82.6245 507.997 82.8484 507.997 83.1245C507.997 83.4007 507.773 83.6245 507.496 83.6245H482.503C482.226 83.6245 482.002 83.4007 482.002 83.1245Z" fill="#333333"/>
<path fill-rule="evenodd" clip-rule="evenodd" d="M486.001 95.1262C486.001 94.8501 486.223 94.6262 486.496 94.6262H507.503C507.776 94.6262 507.997 94.8501 507.997 95.1262C507.997 95.4024 507.776 95.6262 507.503 95.6262H486.496C486.223 95.6262 486.001 95.4024 486.001 95.1262Z" fill="#AAAAAA"/>
<path fill-rule="evenodd" clip-rule="evenodd" d="M486.001 118.129C486.001 117.853 486.242 117.629 486.54 117.629H497.46C497.758 117.629 497.999 117.853 497.999 118.129C497.999 118.405 497.758 118.629 497.46 118.629H486.54C486.242 118.629 486.001 118.405 486.001 118.129Z" fill="#AAAAAA"/>
<path fill-rule="evenodd" clip-rule="evenodd" d="M486.001 135.131C486.001 134.855 486.222 134.631 486.495 134.631H496.505C496.778 134.631 496.999 134.855 496.999 135.131C496.999 135.408 496.778 135.631 496.505 135.631H486.495C486.222 135.631 486.001 135.408 486.001 135.131Z" fill="#AAAAAA"/>
<path fill-rule="evenodd" clip-rule="evenodd" d="M486.001 100.127C486.001 99.8507 486.223 99.6268 486.498 99.6268H499.502C499.776 99.6268 499.999 99.8507 499.999 100.127C499.999 100.403 499.776 100.627 499.502 100.627H486.498C486.223 100.627 486.001 100.403 486.001 100.127Z" fill="#AAAAAA"/>
<path fill-rule="evenodd" clip-rule="evenodd" d="M483.002 140.132C483.002 139.856 483.227 139.632 483.506 139.632H503.494C503.772 139.632 503.998 139.856 503.998 140.132C503.998 140.408 503.772 140.632 503.494 140.632H483.506C483.227 140.632 483.002 140.408 483.002 140.132Z" fill="#FF4B55"/>
<path fill-rule="evenodd" clip-rule="evenodd" d="M486.001 90.1255C486.001 89.8493 486.229 89.6255 486.51 89.6255H498.49C498.771 89.6255 498.999 89.8493 498.999 90.1255C498.999 90.4016 498.771 90.6255 498.49 90.6255H486.51C486.229 90.6255 486.001 90.4016 486.001 90.1255Z" fill="#AAAAAA"/>
<path fill-rule="evenodd" clip-rule="evenodd" d="M486.001 113.129C486.001 112.852 486.228 112.629 486.507 112.629H506.491C506.771 112.629 506.998 112.852 506.998 113.129C506.998 113.405 506.771 113.629 506.491 113.629H486.507C486.228 113.629 486.001 113.405 486.001 113.129Z" fill="#AAAAAA"/>
<path fill-rule="evenodd" clip-rule="evenodd" d="M486.001 130.131C486.001 129.855 486.228 129.631 486.507 129.631H506.491C506.771 129.631 506.998 129.855 506.998 130.131C506.998 130.407 506.771 130.631 506.491 130.631H486.507C486.228 130.631 486.001 130.407 486.001 130.131Z" fill="#AAAAAA"/>
<path fill-rule="evenodd" clip-rule="evenodd" d="M483.002 124.13C483.002 123.854 483.226 123.63 483.504 123.63H504.496C504.773 123.63 504.998 123.854 504.998 124.13C504.998 124.406 504.773 124.63 504.496 124.63H483.504C483.226 124.63 483.002 124.406 483.002 124.13Z" fill="#333333"/>
<path fill-rule="evenodd" clip-rule="evenodd" d="M482.002 107.128C482.002 106.852 482.226 106.628 482.503 106.628H509.495C509.772 106.628 509.997 106.852 509.997 107.128C509.997 107.404 509.772 107.628 509.495 107.628H482.503C482.226 107.628 482.002 107.404 482.002 107.128Z" fill="#333333"/>
<path fill-rule="evenodd" clip-rule="evenodd" d="M483.002 147.133C483.002 146.857 483.226 146.633 483.503 146.633H514.495C514.772 146.633 514.996 146.857 514.996 147.133C514.996 147.409 514.772 147.633 514.495 147.633H483.503C483.226 147.633 483.002 147.409 483.002 147.133Z" fill="#333333"/>
<path d="M485.904 35.9191H489.207V40.162C488.742 40.3022 488.265 40.4152 487.776 40.5009C487.286 40.5788 486.732 40.6178 486.112 40.6178C484.791 40.6178 483.775 40.2438 483.066 39.4957C482.356 38.7477 482.002 37.6879 482.002 36.3165C482.002 35.4516 482.177 34.6996 482.528 34.0607C482.887 33.4139 483.404 32.9152 484.081 32.5646C484.758 32.2139 485.582 32.0386 486.552 32.0386C487.025 32.0386 487.482 32.0853 487.922 32.1788C488.371 32.2723 488.779 32.3931 489.146 32.5412L488.607 33.7684C488.322 33.6438 488 33.5347 487.641 33.4412C487.282 33.3477 486.907 33.3009 486.516 33.3009C485.92 33.3009 485.407 33.4256 484.974 33.6749C484.542 33.9243 484.208 34.2788 483.971 34.7386C483.743 35.1905 483.629 35.7243 483.629 36.3399C483.629 36.9321 483.718 37.4542 483.898 37.9061C484.077 38.3581 484.363 38.7126 484.754 38.9697C485.146 39.2269 485.655 39.3555 486.283 39.3555C486.593 39.3555 486.854 39.3399 487.066 39.3087C487.278 39.2775 487.478 39.2425 487.666 39.2035V37.1931H485.904V35.9191Z" fill="#333333"/>
<path d="M493.789 34.049C494.645 34.049 495.294 34.2282 495.734 34.5866C496.183 34.9451 496.407 35.4983 496.407 36.2464V40.5009H495.318L495.012 39.6243H494.963C494.678 39.9671 494.376 40.2204 494.058 40.384C493.74 40.5399 493.308 40.6178 492.762 40.6178C492.166 40.6178 491.673 40.4581 491.281 40.1386C490.89 39.8191 490.694 39.3243 490.694 38.6542C490.694 37.9996 490.943 37.5087 491.44 37.1814C491.946 36.8542 492.709 36.671 493.728 36.6321L494.878 36.597V36.2814C494.878 35.884 494.776 35.5996 494.572 35.4282C494.368 35.249 494.083 35.1594 493.716 35.1594C493.381 35.1594 493.059 35.2061 492.749 35.2996C492.448 35.3931 492.146 35.5022 491.844 35.6269L491.355 34.5983C491.681 34.4347 492.052 34.3022 492.468 34.2009C492.892 34.0996 493.332 34.049 493.789 34.049ZM494.878 37.5087L494.07 37.5321C493.394 37.5555 492.925 37.6684 492.664 37.871C492.403 38.0659 492.272 38.3308 492.272 38.6659C492.272 38.9697 492.362 39.1879 492.541 39.3204C492.729 39.4451 492.974 39.5074 493.275 39.5074C493.724 39.5074 494.103 39.3866 494.413 39.1451C494.723 38.8957 494.878 38.5295 494.878 38.0464V37.5087Z" fill="#333333"/>
<path d="M501.886 34.049C502.628 34.049 503.207 34.2321 503.623 34.5983C504.047 34.9646 504.259 35.5568 504.259 36.3749V40.5009H502.718V36.6671C502.718 35.7165 502.31 35.2412 501.494 35.2412C500.875 35.2412 500.451 35.4282 500.222 35.8022C499.994 36.1762 499.88 36.71 499.88 37.4035V40.5009H498.338V34.1658H499.525L499.745 34.9957H499.831C500.043 34.6684 500.332 34.4308 500.699 34.2827C501.074 34.1269 501.47 34.049 501.886 34.049Z" fill="#333333"/>
<path d="M508.756 39.4373C508.943 39.4373 509.127 39.4217 509.306 39.3905C509.494 39.3516 509.665 39.3087 509.82 39.262V40.3607C509.657 40.4308 509.445 40.4892 509.184 40.536C508.923 40.5905 508.65 40.6178 508.364 40.6178C507.989 40.6178 507.647 40.5594 507.337 40.4425C507.027 40.3178 506.782 40.1074 506.603 39.8113C506.423 39.5152 506.334 39.1022 506.334 38.5723V35.2762H505.441V34.6334L506.419 34.1191L506.909 32.7749H507.875V34.1658H509.759V35.2762H507.875V38.5607C507.875 38.8568 507.957 39.0788 508.12 39.2269C508.283 39.3671 508.495 39.4373 508.756 39.4373Z" fill="#333333"/>
<path d="M513.725 39.4373C513.913 39.4373 514.097 39.4217 514.276 39.3905C514.464 39.3516 514.635 39.3087 514.79 39.262V40.3607C514.627 40.4308 514.415 40.4892 514.154 40.536C513.893 40.5905 513.619 40.6178 513.334 40.6178C512.959 40.6178 512.616 40.5594 512.306 40.4425C511.997 40.3178 511.752 40.1074 511.572 39.8113C511.393 39.5152 511.303 39.1022 511.303 38.5723V35.2762H510.41V34.6334L511.389 34.1191L511.878 32.7749H512.845V34.1658H514.729V35.2762H512.845V38.5607C512.845 38.8568 512.926 39.0788 513.089 39.2269C513.252 39.3671 513.464 39.4373 513.725 39.4373Z" fill="#333333"/>
<path d="M521.983 40.6178C521.029 40.6178 520.278 40.3568 519.732 39.8347C519.186 39.3126 518.912 38.4905 518.912 37.3684C518.912 36.5892 519.047 35.9581 519.316 35.4749C519.593 34.984 519.973 34.6256 520.454 34.3996C520.935 34.1659 521.485 34.049 522.105 34.049C522.521 34.049 522.892 34.0879 523.218 34.1658C523.545 34.2438 523.822 34.3373 524.05 34.4464L523.598 35.6035C523.345 35.51 523.092 35.4321 522.839 35.3697C522.586 35.2996 522.342 35.2646 522.105 35.2646C521.029 35.2646 520.49 35.962 520.49 37.3568C520.49 38.0347 520.625 38.5451 520.894 38.8879C521.171 39.2308 521.567 39.4022 522.081 39.4022C522.448 39.4022 522.774 39.3594 523.059 39.2736C523.345 39.1879 523.618 39.071 523.879 38.923V40.197C523.626 40.3373 523.353 40.4425 523.059 40.5126C522.774 40.5827 522.415 40.6178 521.983 40.6178Z" fill="#333333"/>
<path d="M526.974 31.6178V33.7334C526.974 33.9827 526.961 34.2282 526.937 34.4697C526.921 34.7035 526.904 34.8788 526.888 34.9957H526.986C527.198 34.6762 527.475 34.4386 527.818 34.2827C528.16 34.1269 528.539 34.049 528.955 34.049C529.706 34.049 530.293 34.2321 530.717 34.5983C531.141 34.9646 531.353 35.5568 531.353 36.3749V40.5009H529.812V36.6671C529.812 35.7165 529.404 35.2412 528.588 35.2412C527.968 35.2412 527.544 35.4282 527.316 35.8022C527.088 36.1762 526.974 36.71 526.974 37.4035V40.5009H525.432V31.6178H526.974Z" fill="#333333"/>
<path d="M535.923 34.049C536.779 34.049 537.428 34.2282 537.868 34.5866C538.317 34.9451 538.541 35.4983 538.541 36.2464V40.5009H537.452L537.146 39.6243H537.097C536.812 39.9671 536.51 40.2204 536.192 40.384C535.874 40.5399 535.442 40.6178 534.896 40.6178C534.3 40.6178 533.807 40.4581 533.415 40.1386C533.024 39.8191 532.828 39.3243 532.828 38.6542C532.828 37.9996 533.077 37.5087 533.574 37.1814C534.08 36.8542 534.843 36.671 535.862 36.6321L537.012 36.597V36.2814C537.012 35.884 536.91 35.5996 536.706 35.4282C536.502 35.249 536.217 35.1594 535.85 35.1594C535.515 35.1594 535.193 35.2061 534.883 35.2996C534.582 35.3931 534.28 35.5022 533.978 35.6269L533.489 34.5983C533.815 34.4347 534.186 34.3022 534.602 34.2009C535.026 34.0996 535.466 34.049 535.923 34.049ZM537.012 37.5087L536.204 37.5321C535.528 37.5555 535.059 37.6684 534.798 37.871C534.537 38.0659 534.406 38.3308 534.406 38.6659C534.406 38.9697 534.496 39.1879 534.675 39.3204C534.863 39.4451 535.108 39.5074 535.409 39.5074C535.858 39.5074 536.237 39.3866 536.547 39.1451C536.857 38.8957 537.012 38.5295 537.012 38.0464V37.5087Z" fill="#333333"/>
<path d="M543.946 34.049C544.052 34.049 544.167 34.0529 544.289 34.0607C544.419 34.0684 544.53 34.084 544.619 34.1074L544.485 35.4749C544.403 35.4594 544.305 35.4477 544.191 35.4399C544.077 35.4243 543.975 35.4165 543.885 35.4165C543.559 35.4165 543.253 35.4827 542.968 35.6152C542.682 35.7399 542.45 35.9386 542.271 36.2113C542.099 36.4762 542.014 36.8113 542.014 37.2165V40.5009H540.472V34.1658H541.659L541.879 35.2646H541.953C542.148 34.9295 542.417 34.6451 542.76 34.4113C543.102 34.1697 543.498 34.049 543.946 34.049Z" fill="#333333"/>
<path d="M548.417 39.4373C548.605 39.4373 548.788 39.4217 548.967 39.3905C549.155 39.3516 549.326 39.3087 549.481 39.262V40.3607C549.318 40.4308 549.106 40.4892 548.845 40.536C548.584 40.5905 548.311 40.6178 548.026 40.6178C547.65 40.6178 547.308 40.5594 546.998 40.4425C546.688 40.3178 546.443 40.1074 546.264 39.8113C546.085 39.5152 545.995 39.1022 545.995 38.5723V35.2762H545.102V34.6334L546.081 34.1191L546.57 32.7749H547.536V34.1658H549.42V35.2762H547.536V38.5607C547.536 38.8568 547.618 39.0788 547.781 39.2269C547.944 39.3671 548.156 39.4373 548.417 39.4373Z" fill="#333333"/>
<g filter="url(#filter1_d_33_70695)">
<path d="M300 34.9377C300 33.3153 301.473 32 303.291 32H436.709C438.527 32 440 33.3153 440 34.9377V155.062C440 156.685 438.527 158 436.709 158H303.291C301.473 158 300 156.685 300 155.062V34.9377Z" fill="white"/>
<path d="M300.5 34.9377C300.5 33.6432 301.695 32.5 303.291 32.5H436.709C438.305 32.5 439.5 33.6432 439.5 34.9377V155.062C439.5 156.357 438.305 157.5 436.709 157.5H303.291C301.695 157.5 300.5 156.357 300.5 155.062V34.9377Z" stroke="#808080"/>
</g>
<path d="M334.994 71.9877C334.994 71.4354 335.441 70.9877 335.994 70.9877H399.983C400.535 70.9877 400.983 71.4354 400.983 71.9877C400.983 72.54 400.535 72.9877 399.983 72.9877H335.994C335.441 72.9877 334.994 72.54 334.994 71.9877Z" fill="#333333"/>
<path fill-rule="evenodd" clip-rule="evenodd" d="M334.994 77.489C334.994 77.2129 335.216 76.989 335.491 76.989H377.489C377.764 76.989 377.986 77.2129 377.986 77.489C377.986 77.7652 377.764 77.989 377.489 77.989H335.491C335.216 77.989 334.994 77.7652 334.994 77.489Z" fill="#AAAAAA"/>
<path d="M313.997 66.9877H329.995V82.9898H313.997V66.9877Z" fill="#FDB5D6"/>
<path fill-rule="evenodd" clip-rule="evenodd" d="M322.109 74.0828C323.631 74.0828 324.864 72.9422 324.864 71.5352C324.864 70.1282 323.631 68.9877 322.109 68.9877C320.587 68.9877 319.354 70.1282 319.354 71.5352C319.354 72.9422 320.587 74.0828 322.109 74.0828ZM321.996 80.9893H327.995C327.995 78.061 325.934 75.6872 321.996 75.6872C318.059 75.6872 315.997 78.061 315.997 80.9893H321.996Z" fill="white"/>
<path d="M334.994 113.993C334.994 113.441 335.441 112.993 335.994 112.993H399.983C400.535 112.993 400.983 113.441 400.983 113.993C400.983 114.545 400.535 114.993 399.983 114.993H335.994C335.441 114.993 334.994 114.545 334.994 113.993Z" fill="#333333"/>
<path fill-rule="evenodd" clip-rule="evenodd" d="M334.994 119.495C334.994 119.218 335.216 118.995 335.491 118.995H377.489C377.764 118.995 377.986 119.218 377.986 119.495C377.986 119.771 377.764 119.995 377.489 119.995H335.491C335.216 119.995 334.994 119.771 334.994 119.495Z" fill="#AAAAAA"/>
<path d="M313.997 108.993H329.995V124.995H313.997V108.993Z" fill="#FDB5D6"/>
<path fill-rule="evenodd" clip-rule="evenodd" d="M322.109 116.088C323.631 116.088 324.864 114.948 324.864 113.541C324.864 112.134 323.631 110.993 322.109 110.993C320.587 110.993 319.354 112.134 319.354 113.541C319.354 114.948 320.587 116.088 322.109 116.088ZM321.996 122.995H327.995C327.995 120.066 325.934 117.693 321.996 117.693C318.059 117.693 315.997 120.066 315.997 122.995H321.996Z" fill="white"/>
<path d="M334.994 92.9905C334.994 92.4382 335.441 91.9905 335.994 91.9905H399.983C400.535 91.9905 400.983 92.4382 400.983 92.9905C400.983 93.5428 400.535 93.9905 399.983 93.9905H335.994C335.441 93.9905 334.994 93.5428 334.994 92.9905Z" fill="#333333"/>
<path fill-rule="evenodd" clip-rule="evenodd" d="M334.994 98.4917C334.994 98.2156 335.216 97.9917 335.491 97.9917H377.489C377.764 97.9917 377.986 98.2156 377.986 98.4917C377.986 98.7678 377.764 98.9917 377.489 98.9917H335.491C335.216 98.9917 334.994 98.7678 334.994 98.4917Z" fill="#AAAAAA"/>
<path d="M313.997 87.9905H329.995V103.993H313.997V87.9905Z" fill="#FDB5D6"/>
<path fill-rule="evenodd" clip-rule="evenodd" d="M322.109 95.0856C323.631 95.0856 324.864 93.945 324.864 92.538C324.864 91.1311 323.631 89.9905 322.109 89.9905C320.587 89.9905 319.354 91.1311 319.354 92.538C319.354 93.945 320.587 95.0856 322.109 95.0856ZM321.996 101.992H327.995C327.995 99.0638 325.934 96.69 321.996 96.69C318.059 96.69 315.997 99.0638 315.997 101.992H321.996Z" fill="white"/>
<path d="M334.994 134.996C334.994 134.444 335.441 133.996 335.994 133.996H399.983C400.535 133.996 400.983 134.444 400.983 134.996C400.983 135.548 400.535 135.996 399.983 135.996H335.994C335.441 135.996 334.994 135.548 334.994 134.996Z" fill="#333333"/>
<path fill-rule="evenodd" clip-rule="evenodd" d="M334.994 140.497C334.994 140.221 335.216 139.997 335.491 139.997H377.489C377.764 139.997 377.986 140.221 377.986 140.497C377.986 140.774 377.764 140.997 377.489 140.997H335.491C335.216 140.997 334.994 140.774 334.994 140.497Z" fill="#AAAAAA"/>
<path d="M313.997 129.996H329.995V145.998H313.997V129.996Z" fill="#FDB5D6"/>
<path fill-rule="evenodd" clip-rule="evenodd" d="M322.109 137.091C323.631 137.091 324.864 135.951 324.864 134.544C324.864 133.137 323.631 131.996 322.109 131.996C320.587 131.996 319.354 133.137 319.354 134.544C319.354 135.951 320.587 137.091 322.109 137.091ZM321.996 143.998H327.995C327.995 141.069 325.934 138.696 321.996 138.696C318.059 138.696 315.997 141.069 315.997 143.998H321.996Z" fill="white"/>
<path d="M317.699 45.4434C317.004 45.4434 316.472 45.7034 316.104 46.2235C315.736 46.7435 315.552 47.4556 315.552 48.3597C315.552 49.2719 315.72 49.98 316.056 50.484C316.4 50.9801 316.948 51.2281 317.699 51.2281C318.051 51.2281 318.399 51.1881 318.743 51.1081C319.095 51.0281 319.475 50.9161 319.883 50.7721V52.2963C319.507 52.4483 319.135 52.5603 318.767 52.6323C318.399 52.7043 317.987 52.7403 317.532 52.7403C316.652 52.7403 315.924 52.5603 315.348 52.2002C314.78 51.8322 314.36 51.3201 314.088 50.664C313.816 50 313.68 49.2279 313.68 48.3477C313.68 47.4836 313.836 46.7195 314.148 46.0554C314.46 45.3913 314.912 44.8713 315.504 44.4952C316.104 44.1192 316.836 43.9312 317.699 43.9312C318.123 43.9312 318.547 43.9872 318.971 44.0992C319.403 44.2032 319.815 44.3472 320.207 44.5312L319.619 46.0074C319.299 45.8554 318.975 45.7234 318.647 45.6114C318.327 45.4994 318.011 45.4434 317.699 45.4434Z" fill="#333333"/>
<path d="M324.199 44.0512C325.367 44.0512 326.227 44.2632 326.779 44.6873C327.338 45.1113 327.618 45.7554 327.618 46.6195C327.618 47.0116 327.542 47.3556 327.39 47.6516C327.246 47.9397 327.051 48.1877 326.803 48.3957C326.563 48.5958 326.303 48.7598 326.023 48.8878L328.542 52.6203H326.527L324.487 49.3319H323.515V52.6203H321.703V44.0512H324.199ZM324.067 45.5394H323.515V47.8557H324.103C324.703 47.8557 325.131 47.7557 325.387 47.5556C325.651 47.3556 325.783 47.0596 325.783 46.6675C325.783 46.2595 325.643 45.9714 325.363 45.8034C325.091 45.6274 324.659 45.5394 324.067 45.5394Z" fill="#333333"/>
<path d="M333.247 52.6203L331.184 45.8994H331.136C331.144 46.0594 331.156 46.2995 331.172 46.6195C331.188 46.9396 331.204 47.2836 331.22 47.6516C331.236 48.0117 331.244 48.3397 331.244 48.6358V52.6203H329.624V44.0512H332.096L334.123 50.604H334.159L336.307 44.0512H338.778V52.6203H337.087V48.5638C337.087 48.2917 337.091 47.9797 337.099 47.6276C337.115 47.2756 337.127 46.9436 337.135 46.6315C337.151 46.3115 337.163 46.0714 337.171 45.9114H337.123L334.915 52.6203H333.247Z" fill="#333333"/>
<g filter="url(#filter2_d_33_70695)">
<path d="M473.002 192.992C473.002 191.34 474.345 190 476.002 190H598.002C599.659 190 601.002 191.34 601.002 192.992V289.008C601.002 290.66 599.659 292 598.002 292H476.002C474.345 292 473.002 290.66 473.002 289.008V192.992Z" fill="white"/>
<path d="M473.502 192.992C473.502 191.617 474.62 190.5 476.002 190.5H598.002C599.384 190.5 600.502 191.617 600.502 192.992V289.008C600.502 290.383 599.384 291.5 598.002 291.5H476.002C474.62 291.5 473.502 290.383 473.502 289.008V192.992Z" stroke="#808080"/>
</g>
<path d="M504.996 226.102C504.996 225.549 505.444 225.102 505.996 225.102H569.985C570.537 225.102 570.985 225.549 570.985 226.102C570.985 226.654 570.537 227.102 569.985 227.102H505.996C505.444 227.102 504.996 226.654 504.996 226.102Z" fill="#333333"/>
<path fill-rule="evenodd" clip-rule="evenodd" d="M504.996 231.603C504.996 231.326 505.219 231.103 505.493 231.103H547.492C547.766 231.103 547.989 231.326 547.989 231.603C547.989 231.879 547.766 232.103 547.492 232.103H505.493C505.219 232.103 504.996 231.879 504.996 231.603Z" fill="#808080"/>
<path d="M484 201.651H486.693C487.849 201.651 488.722 201.811 489.313 202.131C489.903 202.451 490.198 203.015 490.198 203.823C490.198 204.311 490.081 204.723 489.846 205.059C489.62 205.395 489.292 205.599 488.864 205.671V205.731C489.155 205.787 489.418 205.887 489.652 206.031C489.887 206.175 490.073 206.383 490.21 206.655C490.348 206.927 490.416 207.287 490.416 207.735C490.416 208.511 490.133 209.12 489.567 209.56C489.001 210 488.225 210.22 487.238 210.22H484V201.651ZM485.831 205.047H486.899C487.432 205.047 487.8 204.963 488.003 204.795C488.213 204.627 488.318 204.383 488.318 204.063C488.318 203.735 488.197 203.499 487.954 203.355C487.711 203.211 487.327 203.139 486.802 203.139H485.831V205.047ZM485.831 206.487V208.72H487.032C487.582 208.72 487.966 208.616 488.185 208.407C488.403 208.191 488.512 207.907 488.512 207.555C488.512 207.235 488.399 206.979 488.172 206.787C487.954 206.587 487.554 206.487 486.972 206.487H485.831Z" fill="#333333"/>
<path d="M493.811 210.22H492.004V201.099H493.811V210.22Z" fill="#333333"/>
<path d="M501.716 206.931C501.716 208.019 501.425 208.86 500.843 209.452C500.268 210.044 499.484 210.34 498.489 210.34C497.875 210.34 497.325 210.208 496.84 209.944C496.363 209.68 495.987 209.296 495.712 208.792C495.437 208.279 495.299 207.659 495.299 206.931C495.299 205.843 495.586 205.007 496.161 204.423C496.735 203.839 497.523 203.547 498.526 203.547C499.149 203.547 499.698 203.679 500.175 203.943C500.653 204.207 501.029 204.591 501.304 205.095C501.578 205.591 501.716 206.203 501.716 206.931ZM497.143 206.931C497.143 207.579 497.248 208.071 497.458 208.407C497.677 208.736 498.029 208.9 498.514 208.9C498.991 208.9 499.334 208.736 499.545 208.407C499.763 208.071 499.872 207.579 499.872 206.931C499.872 206.283 499.763 205.799 499.545 205.479C499.334 205.151 498.987 204.987 498.502 204.987C498.024 204.987 497.677 205.151 497.458 205.479C497.248 205.799 497.143 206.283 497.143 206.931Z" fill="#333333"/>
<path d="M505.357 203.547C506.173 203.547 506.812 203.867 507.273 204.507H507.322L507.467 203.667H508.995V210.232C508.995 211.168 508.717 211.88 508.159 212.368C507.601 212.856 506.776 213.1 505.684 213.1C505.215 213.1 504.778 213.072 504.374 213.016C503.978 212.96 503.59 212.86 503.21 212.716V211.288C504.026 211.624 504.888 211.792 505.793 211.792C506.723 211.792 507.188 211.296 507.188 210.304V210.172C507.188 210.036 507.192 209.896 507.2 209.752C507.216 209.608 507.229 209.48 507.237 209.368H507.188C506.962 209.712 506.691 209.96 506.375 210.112C506.06 210.264 505.704 210.34 505.308 210.34C504.524 210.34 503.909 210.044 503.464 209.452C503.028 208.852 502.809 208.019 502.809 206.955C502.809 205.883 503.036 205.047 503.489 204.447C503.941 203.847 504.564 203.547 505.357 203.547ZM505.927 204.999C505.078 204.999 504.653 205.659 504.653 206.979C504.653 208.283 505.086 208.936 505.951 208.936C506.412 208.936 506.752 208.808 506.97 208.552C507.196 208.287 507.309 207.831 507.309 207.183V206.967C507.309 206.263 507.2 205.759 506.982 205.455C506.764 205.151 506.412 204.999 505.927 204.999Z" fill="#333333"/>
<path d="M484 220.101H499.997V236.103H484V220.101Z" fill="#FDB5D6"/>
<path fill-rule="evenodd" clip-rule="evenodd" d="M491.61 228.075C493.002 228.075 494.131 226.957 494.131 225.579C494.131 224.2 493.002 223.083 491.61 223.083C490.218 223.083 489.089 224.2 489.089 225.579C489.089 226.957 490.218 228.075 491.61 228.075ZM491.507 234.842H496.996C496.996 231.973 495.11 229.647 491.507 229.647C487.904 229.647 486.019 231.973 486.019 234.842H491.507Z" fill="white"/>
<path fill-rule="evenodd" clip-rule="evenodd" d="M483 244.604C483 244.328 483.224 244.104 483.5 244.104H576.484C576.76 244.104 576.984 244.328 576.984 244.604C576.984 244.88 576.76 245.104 576.484 245.104H483.5C483.224 245.104 483 244.88 483 244.604Z" fill="#AAAAAA"/>
<path fill-rule="evenodd" clip-rule="evenodd" d="M483 250.605C483 250.329 483.223 250.105 483.498 250.105H585.484C585.759 250.105 585.982 250.329 585.982 250.605C585.982 250.881 585.759 251.105 585.484 251.105H483.498C483.223 251.105 483 250.881 483 250.605Z" fill="#AAAAAA"/>
<path fill-rule="evenodd" clip-rule="evenodd" d="M483 256.606C483 256.33 483.223 256.106 483.499 256.106H574.486C574.761 256.106 574.984 256.33 574.984 256.606C574.984 256.882 574.761 257.106 574.486 257.106H483.499C483.223 257.106 483 256.882 483 256.606Z" fill="#AAAAAA"/>
<path d="M533.991 264.107H485V282.109H533.991V264.107Z" fill="#BDECFF"/>
<path fill-rule="evenodd" clip-rule="evenodd" d="M484 264.106C484 263.554 484.443 263.107 484.991 263.107H534C534.547 263.107 534.991 263.554 534.991 264.106V282.11C534.991 282.662 534.547 283.109 534 283.109H484.991C484.443 283.109 484 282.662 484 282.11V264.106ZM534 264.106V282.11H484.991V264.106H534Z" fill="#AAAAAA"/>
<path fill-rule="evenodd" clip-rule="evenodd" d="M538.99 280.609C538.99 280.333 539.216 280.109 539.494 280.109H585.479C585.757 280.109 585.982 280.333 585.982 280.609C585.982 280.885 585.757 281.109 585.479 281.109H539.494C539.216 281.109 538.99 280.885 538.99 280.609Z" fill="#AAAAAA"/>
<path fill-rule="evenodd" clip-rule="evenodd" d="M538.99 274.608C538.99 274.332 539.213 274.108 539.487 274.108H574.488C574.762 274.108 574.984 274.332 574.984 274.608C574.984 274.884 574.762 275.108 574.488 275.108H539.487C539.213 275.108 538.99 274.884 538.99 274.608Z" fill="#AAAAAA"/>
<path fill-rule="evenodd" clip-rule="evenodd" d="M538.99 268.607C538.99 268.331 539.212 268.107 539.485 268.107H591.487C591.76 268.107 591.981 268.331 591.981 268.607C591.981 268.884 591.76 269.107 591.487 269.107H539.485C539.212 269.107 538.99 268.884 538.99 268.607Z" fill="#AAAAAA"/>
<path fill-rule="evenodd" clip-rule="evenodd" d="M538.99 262.607C538.99 262.33 539.213 262.107 539.487 262.107H582.486C582.76 262.107 582.983 262.33 582.983 262.607C582.983 262.883 582.76 263.107 582.486 263.107H539.487C539.213 263.107 538.99 262.883 538.99 262.607Z" fill="#AAAAAA"/>
<g filter="url(#filter3_d_33_70695)">
<path d="M70 19.01C70 17.3476 71.3363 16 72.9847 16H264.015C265.664 16 267 17.3476 267 19.01C267 64.67 267 110.33 267 155.99C267 157.652 265.664 159 264.015 159H72.9847C71.3363 159 70 157.652 70 155.99V19.01Z" fill="white"/>
<path d="M70.5 19.01C70.5 17.6198 71.6164 16.5 72.9847 16.5H264.015C265.384 16.5 266.5 17.6198 266.5 19.01V19.2775V19.5451V19.8126V20.0801V20.3477V20.6152V20.8828V21.1503V21.4178V21.6854V21.9529V22.2205V22.488V22.7555V23.0231V23.2906V23.5581V23.8257V24.0932V24.3608V24.6283V24.8958V25.1634V25.4309V25.6985V25.966V26.2335V26.5011V26.7686V27.0362V27.3037V27.5712V27.8388V28.1063V28.3739V28.6414V28.9089V29.1765V29.444V29.7115V29.9791V30.2466V30.5142V30.7817V31.0492V31.3168V31.5843V31.8519V32.1194V32.3869V32.6545V32.922V33.1896V33.4571V33.7246V33.9922V34.2597V34.5273V34.7948V35.0623V35.3299V35.5974V35.8649V36.1325V36.4V36.6676V36.9351V37.2026V37.4702V37.7377V38.0053V38.2728V38.5403V38.8079V39.0754V39.343V39.6105V39.878V40.1456V40.4131V40.6807V40.9482V41.2157V41.4833V41.7508V42.0183V42.2859V42.5534V42.821V43.0885V43.356V43.6236V43.8911V44.1587V44.4262V44.6937V44.9613V45.2288V45.4964V45.7639V46.0314V46.299V46.5665V46.8341V47.1016V47.3691V47.6367V47.9042V48.1717V48.4393V48.7068V48.9744V49.2419V49.5094V49.777V50.0445V50.3121V50.5796V50.8471V51.1147V51.3822V51.6498V51.9173V52.1848V52.4524V52.7199V52.9874V53.255V53.5225V53.7901V54.0576V54.3251V54.5927V54.8602V55.1278V55.3953V55.6628V55.9304V56.1979V56.4655V56.733V57.0005V57.2681V57.5356V57.8032V58.0707V58.3382V58.6058V58.8733V59.1409V59.4084V59.6759V59.9435V60.211V60.4785V60.7461V61.0136V61.2812V61.5487V61.8162V62.0838V62.3513V62.6189V62.8864V63.1539V63.4215V63.689V63.9566V64.2241V64.4916V64.7592V65.0267V65.2943V65.5618V65.8293V66.0969V66.3644V66.6319V66.8995V67.167V67.4346V67.7021V67.9696V68.2372V68.5047V68.7723V69.0398V69.3073V69.5749V69.8424V70.11V70.3775V70.645V70.9126V71.1801V71.4477V71.7152V71.9827V72.2503V72.5178V72.7853V73.0529V73.3204V73.588V73.8555V74.123V74.3906V74.6581V74.9257V75.1932V75.4607V75.7283V75.9958V76.2634V76.5309V76.7984V77.066V77.3335V77.6011V77.8686V78.1361V78.4037V78.6712V78.9387V79.2063V79.4738V79.7414V80.0089V80.2764V80.544V80.8115V81.0791V81.3466V81.6141V81.8817V82.1492V82.4168V82.6843V82.9518V83.2194V83.4869V83.7544V84.022V84.2895V84.5571V84.8246V85.0921V85.3597V85.6272V85.8948V86.1623V86.4298V86.6974V86.9649V87.2325V87.5V87.7675V88.0351V88.3026V88.5702V88.8377V89.1052V89.3728V89.6403V89.9079V90.1754V90.4429V90.7105V90.978V91.2455V91.5131V91.7806V92.0482V92.3157V92.5832V92.8508V93.1183V93.3859V93.6534V93.9209V94.1885V94.456V94.7236V94.9911V95.2586V95.5262V95.7937V96.0612V96.3288V96.5963V96.8639V97.1314V97.3989V97.6665V97.934V98.2016V98.4691V98.7366V99.0042V99.2717V99.5393V99.8068V100.074V100.342V100.609V100.877V101.144V101.412V101.68V101.947V102.215V102.482V102.75V103.017V103.285V103.552V103.82V104.087V104.355V104.623V104.89V105.158V105.425V105.693V105.96V106.228V106.495V106.763V107.03V107.298V107.565V107.833V108.101V108.368V108.636V108.903V109.171V109.438V109.706V109.973V110.241V110.508V110.776V111.043V111.311V111.579V111.846V112.114V112.381V112.649V112.916V113.184V113.451V113.719V113.986V114.254V114.521V114.789V115.057V115.324V115.592V115.859V116.127V116.394V116.662V116.929V117.197V117.464V117.732V117.999V118.267V118.535V118.802V119.07V119.337V119.605V119.872V120.14V120.407V120.675V120.942V121.21V121.477V121.745V122.013V122.28V122.548V122.815V123.083V123.35V123.618V123.885V124.153V124.42V124.688V124.955V125.223V125.491V125.758V126.026V126.293V126.561V126.828V127.096V127.363V127.631V127.898V128.166V128.433V128.701V128.969V129.236V129.504V129.771V130.039V130.306V130.574V130.841V131.109V131.376V131.644V131.911V132.179V132.447V132.714V132.982V133.249V133.517V133.784V134.052V134.319V134.587V134.854V135.122V135.39V135.657V135.925V136.192V136.46V136.727V136.995V137.262V137.53V137.797V138.065V138.332V138.6V138.868V139.135V139.403V139.67V139.938V140.205V140.473V140.74V141.008V141.275V141.543V141.81V142.078V142.346V142.613V142.881V143.148V143.416V143.683V143.951V144.218V144.486V144.753V145.021V145.288V145.556V145.824V146.091V146.359V146.626V146.894V147.161V147.429V147.696V147.964V148.231V148.499V148.766V149.034V149.302V149.569V149.837V150.104V150.372V150.639V150.907V151.174V151.442V151.709V151.977V152.244V152.512V152.78V153.047V153.315V153.582V153.85V154.117V154.385V154.652V154.92V155.187V155.455V155.722V155.99C266.5 157.38 265.384 158.5 264.015 158.5H72.9847C71.6164 158.5 70.5 157.38 70.5 155.99V19.01Z" stroke="#808080"/>
</g>
<path d="M82 50.9568C82 50.4284 82.4416 50 82.9864 50H109.014C109.558 50 110 50.4284 110 50.9568V58.0432C110 58.5716 109.558 59 109.014 59H82.9864C82.4416 59 82 58.5716 82 58.0432V50.9568Z" fill="#FF6F3D"/>
<path fill-rule="evenodd" clip-rule="evenodd" d="M87 54.5C87 54.2239 87.2104 54 87.4699 54H102.53C102.79 54 103 54.2239 103 54.5C103 54.7761 102.79 55 102.53 55H87.4699C87.2104 55 87 54.7761 87 54.5Z" fill="white"/>
<path fill-rule="evenodd" clip-rule="evenodd" d="M83.0024 67.498C83.0024 67.223 83.2209 67 83.4904 67H99.5145C99.784 67 100.002 67.223 100.002 67.498C100.002 67.773 99.784 67.996 99.5145 67.996H83.4904C83.2209 67.996 83.0024 67.773 83.0024 67.498Z" fill="#AAAAAA"/>
<path fill-rule="evenodd" clip-rule="evenodd" d="M83.0024 88.498C83.0024 88.223 83.2209 88 83.4904 88H99.5145C99.784 88 100.002 88.223 100.002 88.498C100.002 88.773 99.784 88.996 99.5145 88.996H83.4904C83.2209 88.996 83.0024 88.773 83.0024 88.498Z" fill="#AAAAAA"/>
<path fill-rule="evenodd" clip-rule="evenodd" d="M83.0024 74.498C83.0024 74.223 83.2255 74 83.5005 74H101.504C101.779 74 102.002 74.223 102.002 74.498C102.002 74.773 101.779 74.996 101.504 74.996H83.5005C83.2255 74.996 83.0024 74.773 83.0024 74.498Z" fill="#CCCCCC"/>
<path fill-rule="evenodd" clip-rule="evenodd" d="M83.0024 95.4979C83.0024 95.2228 83.2255 94.9999 83.5005 94.9999H101.504C101.779 94.9999 102.002 95.2228 102.002 95.4979C102.002 95.7729 101.779 95.9959 101.504 95.9959H83.5005C83.2255 95.9959 83.0024 95.7729 83.0024 95.4979Z" fill="#CCCCCC"/>
<path fill-rule="evenodd" clip-rule="evenodd" d="M83.0024 81.498C83.0024 81.223 83.2247 81 83.499 81H99.5059C99.7801 81 100.002 81.223 100.002 81.498C100.002 81.773 99.7801 81.996 99.5059 81.996H83.499C83.2247 81.996 83.0024 81.773 83.0024 81.498Z" fill="#CCCCCC"/>
<path fill-rule="evenodd" clip-rule="evenodd" d="M83.0024 102.498C83.0024 102.223 83.2247 102 83.499 102H99.5059C99.7801 102 100.002 102.223 100.002 102.498C100.002 102.773 99.7801 102.996 99.5059 102.996H83.499C83.2247 102.996 83.0024 102.773 83.0024 102.498Z" fill="#CCCCCC"/>
<path d="M84.053 29.5125C83.3553 29.5125 82.822 29.7658 82.4531 30.2724C82.0842 30.7789 81.8998 31.4725 81.8998 32.3532C81.8998 33.2416 82.0682 33.9313 82.405 34.4223C82.7498 34.9055 83.2992 35.147 84.053 35.147C84.4059 35.147 84.7547 35.1081 85.0995 35.0301C85.4524 34.9522 85.8333 34.8431 86.2423 34.7028V36.1874C85.8654 36.3355 85.4925 36.4446 85.1236 36.5148C84.7547 36.5849 84.3417 36.62 83.8846 36.62C83.0024 36.62 82.2727 36.4446 81.6953 36.0939C81.1259 35.7354 80.7049 35.2367 80.4322 34.5976C80.1595 33.9508 80.0232 33.1987 80.0232 32.3415C80.0232 31.4998 80.1796 30.7556 80.4923 30.1087C80.8051 29.4619 81.2582 28.9553 81.8516 28.589C82.4531 28.2228 83.1869 28.0396 84.053 28.0396C84.478 28.0396 84.9031 28.0942 85.3281 28.2033C85.7611 28.3046 86.1742 28.4449 86.5671 28.6241L85.9777 30.062C85.6569 29.9139 85.3321 29.7853 85.0033 29.6762C84.6825 29.5671 84.3658 29.5125 84.053 29.5125Z" fill="#333333"/>
<path d="M90.6176 29.9918C91.4997 29.9918 92.1734 30.1789 92.6385 30.5529C93.1116 30.9192 93.3482 31.4842 93.3482 32.248V36.5031H92.0972L91.7483 35.638H91.7002C91.4195 35.9809 91.1228 36.2303 90.8101 36.3862C90.4973 36.542 90.0682 36.62 89.5229 36.62C88.9375 36.62 88.4523 36.4563 88.0674 36.129C87.6824 35.7939 87.49 35.2834 87.49 34.5976C87.49 33.9196 87.7346 33.4208 88.2238 33.1013C88.713 32.774 89.4467 32.5948 90.4251 32.5636L91.5679 32.5285V32.248C91.5679 31.9129 91.4757 31.6674 91.2912 31.5115C91.1148 31.3556 90.8662 31.2777 90.5454 31.2777C90.2246 31.2777 89.9119 31.3245 89.6071 31.418C89.3024 31.5037 88.9976 31.6128 88.6929 31.7453L88.1035 30.5646C88.4563 30.3854 88.8453 30.2451 89.2703 30.1438C89.7034 30.0425 90.1525 29.9918 90.6176 29.9918ZM91.5679 33.5455L90.8702 33.5689C90.2928 33.5845 89.8918 33.6858 89.6673 33.8729C89.4427 34.0599 89.3305 34.3054 89.3305 34.6093C89.3305 34.8743 89.4106 35.0652 89.571 35.1821C89.7314 35.2912 89.9399 35.3458 90.1966 35.3458C90.5815 35.3458 90.9063 35.2367 91.1709 35.0185C91.4356 34.7925 91.5679 34.4768 91.5679 34.0716V33.5455Z" fill="#333333"/>
<path d="M96.9752 36.5031H95.1829V27.6188H96.9752V36.5031Z" fill="#333333"/>
<path d="M101.555 30.0035C102.461 30.0035 103.179 30.2568 103.708 30.7633C104.237 31.2621 104.502 31.9752 104.502 32.9026V33.7443H100.267C100.284 34.2352 100.432 34.621 100.713 34.9016C101.001 35.1821 101.398 35.3224 101.903 35.3224C102.329 35.3224 102.713 35.2834 103.058 35.2055C103.403 35.1198 103.76 34.9912 104.129 34.8197V36.1641C103.808 36.3199 103.467 36.4329 103.106 36.5031C102.754 36.581 102.324 36.62 101.819 36.62C101.162 36.62 100.58 36.5031 100.075 36.2693C99.5698 36.0277 99.1728 35.6653 98.8841 35.1821C98.5954 34.6989 98.4511 34.0911 98.4511 33.3585C98.4511 32.6103 98.5794 31.9908 98.836 31.4998C99.1007 31.001 99.4655 30.627 99.9307 30.3776C100.396 30.1282 100.937 30.0035 101.555 30.0035ZM101.567 31.2426C101.222 31.2426 100.933 31.3517 100.701 31.5699C100.476 31.7882 100.344 32.1272 100.304 32.587H102.818C102.81 32.1973 102.705 31.8778 102.505 31.6284C102.304 31.3712 101.992 31.2426 101.567 31.2426Z" fill="#333333"/>
<path d="M109.684 30.0035C110.39 30.0035 110.955 30.1905 111.38 30.5646C111.805 30.9309 112.018 31.5232 112.018 32.3415V36.5031H110.226V32.774C110.226 32.3142 110.141 31.9713 109.973 31.7453C109.805 31.5115 109.536 31.3946 109.167 31.3946C108.622 31.3946 108.249 31.5777 108.048 31.944C107.848 32.3025 107.748 32.8208 107.748 33.4988V36.5031H105.955V30.1204H107.326L107.567 30.9387H107.663C107.872 30.6114 108.157 30.3737 108.517 30.2256C108.886 30.0775 109.275 30.0035 109.684 30.0035Z" fill="#333333"/>
<path d="M115.942 36.62C115.212 36.62 114.615 36.3433 114.15 35.79C113.693 35.2289 113.464 34.4067 113.464 33.3234C113.464 32.2324 113.697 31.4063 114.162 30.8452C114.627 30.2841 115.236 30.0035 115.99 30.0035C116.463 30.0035 116.852 30.0931 117.157 30.2724C117.462 30.4516 117.702 30.6737 117.879 30.9387H117.939C117.915 30.814 117.887 30.6348 117.855 30.401C117.823 30.1594 117.807 29.9139 117.807 29.6645V27.6188H119.599V36.5031H118.228L117.879 35.6731H117.807C117.63 35.9381 117.394 36.1641 117.097 36.3511C116.8 36.5303 116.415 36.62 115.942 36.62ZM116.568 35.2289C117.065 35.2289 117.414 35.0886 117.614 34.808C117.815 34.5197 117.919 34.0911 117.927 33.5222V33.3351C117.927 32.7117 117.827 32.2363 117.626 31.909C117.434 31.5816 117.073 31.418 116.544 31.418C116.151 31.418 115.842 31.5855 115.617 31.9206C115.393 32.248 115.281 32.7233 115.281 33.3468C115.281 33.9703 115.393 34.4418 115.617 34.7613C115.842 35.073 116.159 35.2289 116.568 35.2289Z" fill="#333333"/>
<path d="M124.168 29.9918C125.05 29.9918 125.724 30.1789 126.189 30.5529C126.662 30.9192 126.899 31.4842 126.899 32.248V36.5031H125.648L125.299 35.638H125.251C124.97 35.9809 124.673 36.2303 124.36 36.3862C124.048 36.542 123.619 36.62 123.073 36.62C122.488 36.62 122.003 36.4563 121.618 36.129C121.233 35.7939 121.04 35.2834 121.04 34.5976C121.04 33.9196 121.285 33.4208 121.774 33.1013C122.263 32.774 122.997 32.5948 123.975 32.5636L125.118 32.5285V32.248C125.118 31.9129 125.026 31.6674 124.842 31.5115C124.665 31.3556 124.417 31.2777 124.096 31.2777C123.775 31.2777 123.462 31.3245 123.157 31.418C122.853 31.5037 122.548 31.6128 122.243 31.7453L121.654 30.5646C122.007 30.3854 122.396 30.2451 122.821 30.1438C123.254 30.0425 123.703 29.9918 124.168 29.9918ZM125.118 33.5455L124.421 33.5689C123.843 33.5845 123.442 33.6858 123.218 33.8729C122.993 34.0599 122.881 34.3054 122.881 34.6093C122.881 34.8743 122.961 35.0652 123.121 35.1821C123.282 35.2912 123.49 35.3458 123.747 35.3458C124.132 35.3458 124.457 35.2367 124.721 35.0185C124.986 34.7925 125.118 34.4768 125.118 34.0716V33.5455Z" fill="#333333"/>
<path d="M132.402 30.0035C132.49 30.0035 132.595 30.0074 132.715 30.0152C132.835 30.023 132.931 30.0347 133.004 30.0503L132.871 31.6868C132.815 31.6713 132.731 31.6596 132.619 31.6518C132.514 31.6362 132.422 31.6284 132.342 31.6284C132.037 31.6284 131.745 31.683 131.464 31.7921C131.183 31.8934 130.955 32.0609 130.778 32.2947C130.61 32.5285 130.526 32.848 130.526 33.2533V36.5031H128.733V30.1204H130.093L130.357 31.1959H130.441C130.634 30.8686 130.898 30.588 131.235 30.3542C131.572 30.1204 131.961 30.0035 132.402 30.0035Z" fill="#333333"/>
<path opacity="0.5" fill-rule="evenodd" clip-rule="evenodd" d="M118 150V126V125V104V103V82V81V60V59V51V50H119H146H147H174H175H202H203H230H231H258H259V51V150V150.5V151H118L118 150.5L118 150ZM258 150V126H231V150H258ZM258 125V104H231V125H258ZM258 103V82H231L231 103H258ZM258 81V60H231V81H258ZM258 59V51H231V59H258ZM175 51H202V59H175V51ZM175 60H202V81H175V60ZM203 60V81H230V60H203ZM175 82H202L202 103H175L175 82ZM203 82L203 103H230L230 82H203ZM175 104H202V125H175V104ZM203 104V125H230V104H203ZM175 126H202V150H175V126ZM203 126V150H230V126H203ZM203 51V59H230V51H203ZM174 51H147V59H174V51ZM174 60H147L147 81H174V60ZM174 82H147V103H174L174 82ZM174 104H147V125H174V104ZM174 126H147V150H174V126ZM146 150V126H119L119 150H146ZM146 125V104H119L119 125H146ZM146 103V82H119L119 103H146ZM146 81L146 60H119L119 81H146ZM146 59V51H119L119 59H146Z" fill="#CCCCCC"/>
<path d="M148 61.7442C148 61.3332 148.394 61 148.881 61H172.119C172.606 61 173 61.3332 173 61.7442V67.2558C173 67.6668 172.606 68 172.119 68H148.881C148.394 68 148 67.6668 148 67.2558V61.7442Z" fill="#A5D568"/>
<path d="M204 83.3189C204 83.1428 204.394 83 204.881 83H228.119C228.606 83 229 83.1428 229 83.3189V85.6811C229 85.8572 228.606 86 228.119 86H204.881C204.394 86 204 85.8572 204 85.6811V83.3189Z" fill="#A5D568"/>
<path d="M120 83.3189C120 83.1428 120.394 83 120.881 83H144.119C144.606 83 145 83.1428 145 83.3189V85.6811C145 85.8572 144.606 86 144.119 86H120.881C120.394 86 120 85.8572 120 85.6811V83.3189Z" fill="#9ADAF3"/>
<path d="M120 105.319C120 105.143 120.394 105 120.881 105H144.119C144.606 105 145 105.143 145 105.319V107.681C145 107.857 144.606 108 144.119 108H120.881C120.394 108 120 107.857 120 107.681V105.319Z" fill="#9ADAF3"/>
<path d="M232 83.3189C232 83.1428 232.394 83 232.881 83H256.119C256.606 83 257 83.1428 257 83.3189V85.6811C257 85.8572 256.606 86 256.119 86H232.881C232.394 86 232 85.8572 232 85.6811V83.3189Z" fill="#A5D568"/>
<path d="M176 105.319C176 105.143 176.394 105 176.881 105H200.119C200.606 105 201 105.143 201 105.319V107.681C201 107.857 200.606 108 200.119 108H176.881C176.394 108 176 107.857 176 107.681V105.319Z" fill="#FF6F3D"/>
<path d="M148 127.319C148 127.143 148.394 127 148.881 127H172.119C172.606 127 173 127.143 173 127.319V129.681C173 129.857 172.606 130 172.119 130H148.881C148.394 130 148 129.857 148 129.681V127.319Z" fill="#FF6F3D"/>
<path d="M204 127.319C204 127.143 204.394 127 204.881 127H228.119C228.606 127 229 127.143 229 127.319V129.681C229 129.857 228.606 130 228.119 130H204.881C204.394 130 204 129.857 204 129.681V127.319Z" fill="#FF6F3D"/>
<g filter="url(#filter4_d_33_70695)">
<path d="M473.002 330.988C473.002 329.338 474.347 328 476.006 328H625.997C627.657 328 629.002 329.338 629.002 330.988V427.012C629.002 428.662 627.657 430 625.997 430H476.006C474.347 430 473.002 428.662 473.002 427.012V330.988Z" fill="white"/>
<path d="M473.502 330.988C473.502 329.616 474.621 328.5 476.006 328.5H625.997C627.383 328.5 628.502 329.616 628.502 330.988V427.012C628.502 428.384 627.383 429.5 625.997 429.5H476.006C474.621 429.5 473.502 428.383 473.502 427.012V330.988Z" stroke="#808080"/>
</g>
<path fill-rule="evenodd" clip-rule="evenodd" d="M482.002 352.498C482.002 352.223 482.227 352 482.504 352H621.5C621.777 352 622.002 352.223 622.002 352.498C622.002 352.773 621.777 352.996 621.5 352.996H482.504C482.227 352.996 482.002 352.773 482.002 352.498Z" fill="#EFEFEF"/>
<path fill-rule="evenodd" clip-rule="evenodd" d="M516.503 427C516.226 427 516.002 426.778 516.002 426.505V353.495C516.002 353.222 516.226 353 516.503 353C516.779 353 517.003 353.222 517.003 353.495V426.505C517.003 426.778 516.779 427 516.503 427Z" fill="#EFEFEF"/>
<path d="M534.002 362.498C534.002 362.223 534.222 362 534.492 362H545.512C545.783 362 546.002 362.223 546.002 362.498C546.002 362.773 545.783 362.996 545.512 362.996H534.492C534.222 362.996 534.002 362.773 534.002 362.498Z" fill="#333333"/>
<path d="M562.002 362.498C562.002 362.223 562.224 362 562.499 362H610.505C610.779 362 611.002 362.223 611.002 362.498C611.002 362.773 610.779 362.996 610.505 362.996H562.499C562.224 362.996 562.002 362.773 562.002 362.498Z" fill="#CCCCCC"/>
<path fill-rule="evenodd" clip-rule="evenodd" d="M529.834 361H526.17V365H529.834V361ZM525.002 360V366H531.002V360H525.002Z" fill="#CCCCCC"/>
<path d="M550.002 361H557.607L559.002 362.5L557.607 364H550.002V361Z" fill="#9ADAF3"/>
<path d="M534.002 385.498C534.002 385.223 534.222 385 534.492 385H545.512C545.783 385 546.002 385.223 546.002 385.498C546.002 385.773 545.783 385.996 545.512 385.996H534.492C534.222 385.996 534.002 385.773 534.002 385.498Z" fill="#333333"/>
<path d="M562.002 385.498C562.002 385.223 562.224 385 562.499 385H610.505C610.779 385 611.002 385.223 611.002 385.498C611.002 385.773 610.779 385.996 610.505 385.996H562.499C562.224 385.996 562.002 385.773 562.002 385.498Z" fill="#CCCCCC"/>
<path fill-rule="evenodd" clip-rule="evenodd" d="M529.834 383H526.17V387H529.834V383ZM525.002 382V388H531.002V382H525.002Z" fill="#CCCCCC"/>
<path d="M550.002 383.998H557.607L559.002 385.498L557.607 386.998H550.002V383.998Z" fill="#9ADAF3"/>
<path d="M534.002 407.498C534.002 407.223 534.222 407 534.492 407H545.512C545.783 407 546.002 407.223 546.002 407.498C546.002 407.773 545.783 407.996 545.512 407.996H534.492C534.222 407.996 534.002 407.773 534.002 407.498Z" fill="#333333"/>
<path d="M562.002 407.498C562.002 407.223 562.224 407 562.499 407H610.505C610.779 407 611.002 407.223 611.002 407.498C611.002 407.773 610.779 407.996 610.505 407.996H562.499C562.224 407.996 562.002 407.773 562.002 407.498Z" fill="#CCCCCC"/>
<path fill-rule="evenodd" clip-rule="evenodd" d="M529.834 405H526.17V409H529.834V405ZM525.002 404V410H531.002V404H525.002Z" fill="#CCCCCC"/>
<path d="M550.002 405.998H557.607L559.002 407.498L557.607 408.998H550.002V405.998Z" fill="#9ADAF3"/>
<path d="M534.002 374.498C534.002 374.223 534.225 374 534.501 374H552.503C552.779 374 553.002 374.223 553.002 374.498C553.002 374.773 552.779 374.996 552.503 374.996H534.501C534.225 374.996 534.002 374.773 534.002 374.498Z" fill="#333333"/>
<path d="M569.002 374.498C569.002 374.223 569.225 374 569.501 374H606.504C606.779 374 607.002 374.223 607.002 374.498C607.002 374.773 606.779 374.996 606.504 374.996H569.501C569.225 374.996 569.002 374.773 569.002 374.498Z" fill="#CCCCCC"/>
<path fill-rule="evenodd" clip-rule="evenodd" d="M529.834 372H526.17V376H529.834V372ZM525.002 371V377H531.002V371H525.002Z" fill="#CCCCCC"/>
<path d="M557.002 373H564.607L566.002 374.5L564.607 376H557.002V373Z" fill="#9ADAF3"/>
<path d="M534.002 396.498C534.002 396.223 534.225 396 534.501 396H552.503C552.779 396 553.002 396.223 553.002 396.498C553.002 396.773 552.779 396.996 552.503 396.996H534.501C534.225 396.996 534.002 396.773 534.002 396.498Z" fill="#333333"/>
<path d="M569.002 396.498C569.002 396.223 569.225 396 569.501 396H606.504C606.779 396 607.002 396.223 607.002 396.498C607.002 396.773 606.779 396.996 606.504 396.996H569.501C569.225 396.996 569.002 396.773 569.002 396.498Z" fill="#CCCCCC"/>
<path fill-rule="evenodd" clip-rule="evenodd" d="M529.834 394H526.17V398H529.834V394ZM525.002 393V399H531.002V393H525.002Z" fill="#CCCCCC"/>
<path d="M557.002 395H564.607L566.002 396.5L564.607 398H557.002V395Z" fill="#9ADAF3"/>
<path d="M534.002 418.498C534.002 418.223 534.225 418 534.501 418H552.503C552.779 418 553.002 418.223 553.002 418.498C553.002 418.773 552.779 418.996 552.503 418.996H534.501C534.225 418.996 534.002 418.773 534.002 418.498Z" fill="#333333"/>
<path d="M569.002 418.498C569.002 418.223 569.225 418 569.501 418H606.504C606.779 418 607.002 418.223 607.002 418.498C607.002 418.773 606.779 418.996 606.504 418.996H569.501C569.225 418.996 569.002 418.773 569.002 418.498Z" fill="#CCCCCC"/>
<path fill-rule="evenodd" clip-rule="evenodd" d="M529.834 416H526.17V420H529.834V416ZM525.002 415V421H531.002V415H525.002Z" fill="#CCCCCC"/>
<path d="M557.002 417H564.607L566.002 418.5L564.607 420H557.002V417Z" fill="#9ADAF3"/>
<path fill-rule="evenodd" clip-rule="evenodd" d="M486.002 376.498C486.002 376.223 486.221 376 486.49 376H502.514C502.784 376 503.002 376.223 503.002 376.498C503.002 376.773 502.784 376.996 502.514 376.996H486.49C486.221 376.996 486.002 376.773 486.002 376.498Z" fill="#AAAAAA"/>
<path fill-rule="evenodd" clip-rule="evenodd" d="M486.002 397.498C486.002 397.223 486.221 397 486.49 397H502.514C502.784 397 503.002 397.223 503.002 397.498C503.002 397.773 502.784 397.996 502.514 397.996H486.49C486.221 397.996 486.002 397.773 486.002 397.498Z" fill="#AAAAAA"/>
<path fill-rule="evenodd" clip-rule="evenodd" d="M486.002 383.498C486.002 383.223 486.225 383 486.501 383H504.504C504.779 383 505.002 383.223 505.002 383.498C505.002 383.773 504.779 383.996 504.504 383.996H486.501C486.225 383.996 486.002 383.773 486.002 383.498Z" fill="#CCCCCC"/>
<path fill-rule="evenodd" clip-rule="evenodd" d="M486.002 404.498C486.002 404.223 486.225 404 486.501 404H504.504C504.779 404 505.002 404.223 505.002 404.498C505.002 404.773 504.779 404.996 504.504 404.996H486.501C486.225 404.996 486.002 404.773 486.002 404.498Z" fill="#CCCCCC"/>
<path fill-rule="evenodd" clip-rule="evenodd" d="M486.002 390.498C486.002 390.223 486.225 390 486.499 390H502.506C502.78 390 503.002 390.223 503.002 390.498C503.002 390.773 502.78 390.996 502.506 390.996H486.499C486.225 390.996 486.002 390.773 486.002 390.498Z" fill="#CCCCCC"/>
<path fill-rule="evenodd" clip-rule="evenodd" d="M486.002 411.498C486.002 411.223 486.225 411 486.499 411H502.506C502.78 411 503.002 411.223 503.002 411.498C503.002 411.773 502.78 411.996 502.506 411.996H486.499C486.225 411.996 486.002 411.773 486.002 411.498Z" fill="#CCCCCC"/>
<path d="M481 357.957C481 357.428 481.442 357 481.986 357H508.014C508.558 357 509 357.428 509 357.957V365.043C509 365.572 508.558 366 508.014 366H481.986C481.442 366 481 365.572 481 365.043V357.957Z" fill="#FF6F3D"/>
<path fill-rule="evenodd" clip-rule="evenodd" d="M486 361.5C486 361.224 486.21 361 486.47 361H501.53C501.79 361 502 361.224 502 361.5C502 361.776 501.79 362 501.53 362H486.47C486.21 362 486 361.776 486 361.5Z" fill="white"/>
<path d="M486.585 346.125L484.509 339.58H484.461C484.469 339.735 484.481 339.969 484.497 340.281C484.513 340.593 484.529 340.928 484.545 341.286C484.561 341.637 484.57 341.956 484.57 342.245V346.125H482.94V337.78H485.426L487.466 344.161H487.502L489.663 337.78H492.149V346.125H490.447V342.174C490.447 341.909 490.451 341.606 490.459 341.263C490.475 340.92 490.487 340.596 490.495 340.293C490.511 339.981 490.524 339.747 490.532 339.591H490.483L488.263 346.125H486.585Z" fill="#333333"/>
<path d="M496.884 339.615C497.769 339.615 498.445 339.802 498.912 340.176C499.387 340.542 499.624 341.107 499.624 341.871V346.125H498.369L498.019 345.26H497.97C497.689 345.603 497.391 345.852 497.077 346.008C496.764 346.164 496.333 346.242 495.786 346.242C495.199 346.242 494.712 346.078 494.326 345.751C493.939 345.416 493.746 344.906 493.746 344.22C493.746 343.542 493.992 343.043 494.483 342.724C494.973 342.396 495.71 342.217 496.691 342.186L497.838 342.151V341.871C497.838 341.535 497.745 341.29 497.56 341.134C497.383 340.978 497.134 340.9 496.812 340.9C496.49 340.9 496.176 340.947 495.87 341.041C495.565 341.126 495.259 341.235 494.953 341.368L494.362 340.187C494.716 340.008 495.106 339.868 495.533 339.767C495.967 339.665 496.418 339.615 496.884 339.615ZM497.838 343.168L497.138 343.191C496.558 343.207 496.156 343.308 495.931 343.495C495.706 343.682 495.593 343.928 495.593 344.232C495.593 344.496 495.673 344.687 495.834 344.804C495.995 344.913 496.204 344.968 496.462 344.968C496.848 344.968 497.174 344.859 497.439 344.641C497.705 344.415 497.838 344.099 497.838 343.694V343.168Z" fill="#333333"/>
<path d="M502.37 337.242C502.635 337.242 502.865 337.304 503.058 337.429C503.251 337.546 503.347 337.768 503.347 338.095C503.347 338.415 503.251 338.637 503.058 338.761C502.865 338.886 502.635 338.948 502.37 338.948C502.096 338.948 501.863 338.886 501.67 338.761C501.485 338.637 501.392 338.415 501.392 338.095C501.392 337.768 501.485 337.546 501.67 337.429C501.863 337.304 502.096 337.242 502.37 337.242ZM503.263 339.743V346.125H501.465V339.743H503.263Z" fill="#333333"/>
<path d="M506.94 346.125H505.142V337.242H506.94V346.125Z" fill="#333333"/>
<g filter="url(#filter5_d_33_70695)">
<path d="M70 197.089C70 193.174 73.1904 190 77.126 190H432.874C436.81 190 440 193.174 440 197.089V424.911C440 428.826 436.81 432 432.874 432H77.126C73.1904 432 70 428.826 70 424.911V197.089Z" fill="white"/>
<path d="M70.5 197.089C70.5 193.453 73.4641 190.5 77.126 190.5H432.874C436.536 190.5 439.5 193.452 439.5 197.089V424.911C439.5 428.548 436.536 431.5 432.874 431.5H77.126C73.4641 431.5 70.5 428.548 70.5 424.911V197.089Z" stroke="#808080"/>
</g>
<path d="M70 196C70 192.686 72.6863 190 76 190H434C437.314 190 440 192.686 440 196V214H70V196Z" fill="#1B406E"/>
<path d="M190.5 229C190.5 227.619 191.619 226.5 193 226.5H423C424.381 226.5 425.5 227.619 425.5 229V235C425.5 236.381 424.381 237.5 423 237.5H193C191.619 237.5 190.5 236.381 190.5 235V229Z" fill="white" stroke="#CCCCCC"/>
<path d="M90.5254 201.635C90.5254 202.6 90.3398 203.406 89.9688 204.055C89.6016 204.699 89.0684 205.186 88.3691 205.514C87.6699 205.838 86.8281 206 85.8438 206H83.418V197.434H86.1074C87.0059 197.434 87.7852 197.594 88.4453 197.914C89.1055 198.23 89.6172 198.701 89.9805 199.326C90.3438 199.947 90.5254 200.717 90.5254 201.635ZM88.6387 201.682C88.6387 201.049 88.5449 200.529 88.3574 200.123C88.1738 199.713 87.9004 199.41 87.5371 199.215C87.1777 199.02 86.7324 198.922 86.2012 198.922H85.2344V204.5H86.0137C86.9004 204.5 87.5586 204.264 87.9883 203.791C88.4219 203.318 88.6387 202.615 88.6387 201.682ZM98.1133 202.713C98.1133 203.26 98.0391 203.744 97.8906 204.166C97.7461 204.588 97.5332 204.945 97.252 205.238C96.9746 205.527 96.6387 205.746 96.2441 205.895C95.8535 206.043 95.4121 206.117 94.9199 206.117C94.459 206.117 94.0352 206.043 93.6484 205.895C93.2656 205.746 92.9316 205.527 92.6465 205.238C92.3652 204.945 92.1465 204.588 91.9902 204.166C91.8379 203.744 91.7617 203.26 91.7617 202.713C91.7617 201.986 91.8906 201.371 92.1484 200.867C92.4062 200.363 92.7734 199.98 93.25 199.719C93.7266 199.457 94.2949 199.326 94.9551 199.326C95.5684 199.326 96.1113 199.457 96.584 199.719C97.0605 199.98 97.4336 200.363 97.7031 200.867C97.9766 201.371 98.1133 201.986 98.1133 202.713ZM93.584 202.713C93.584 203.143 93.6309 203.504 93.7246 203.797C93.8184 204.09 93.9648 204.311 94.1641 204.459C94.3633 204.607 94.623 204.682 94.9434 204.682C95.2598 204.682 95.5156 204.607 95.7109 204.459C95.9102 204.311 96.0547 204.09 96.1445 203.797C96.2383 203.504 96.2852 203.143 96.2852 202.713C96.2852 202.279 96.2383 201.92 96.1445 201.635C96.0547 201.346 95.9102 201.129 95.7109 200.984C95.5117 200.84 95.252 200.768 94.9316 200.768C94.459 200.768 94.1152 200.93 93.9004 201.254C93.6895 201.578 93.584 202.064 93.584 202.713ZM102.25 206.117C101.602 206.117 101.049 206 100.592 205.766C100.135 205.527 99.7871 205.16 99.5488 204.664C99.3105 204.168 99.1914 203.533 99.1914 202.76C99.1914 201.959 99.3262 201.307 99.5957 200.803C99.8691 200.295 100.246 199.922 100.727 199.684C101.211 199.445 101.771 199.326 102.408 199.326C102.861 199.326 103.252 199.371 103.58 199.461C103.912 199.547 104.201 199.65 104.447 199.771L103.92 201.154C103.639 201.041 103.377 200.949 103.135 200.879C102.893 200.805 102.65 200.768 102.408 200.768C102.096 200.768 101.836 200.842 101.629 200.99C101.422 201.135 101.268 201.354 101.166 201.646C101.064 201.939 101.014 202.307 101.014 202.748C101.014 203.182 101.068 203.541 101.178 203.826C101.287 204.111 101.445 204.324 101.652 204.465C101.859 204.602 102.111 204.67 102.408 204.67C102.779 204.67 103.109 204.621 103.398 204.523C103.688 204.422 103.969 204.281 104.242 204.102V205.631C103.969 205.803 103.682 205.926 103.381 206C103.084 206.078 102.707 206.117 102.25 206.117ZM111.777 199.449V206H110.406L110.166 205.162H110.072C109.932 205.385 109.756 205.566 109.545 205.707C109.334 205.848 109.102 205.951 108.848 206.018C108.594 206.084 108.33 206.117 108.057 206.117C107.588 206.117 107.18 206.035 106.832 205.871C106.484 205.703 106.213 205.443 106.018 205.092C105.826 204.74 105.73 204.283 105.73 203.721V199.449H107.518V203.275C107.518 203.744 107.602 204.098 107.77 204.336C107.938 204.574 108.205 204.693 108.572 204.693C108.936 204.693 109.221 204.611 109.428 204.447C109.635 204.279 109.779 204.035 109.861 203.715C109.947 203.391 109.99 202.996 109.99 202.531V199.449H111.777ZM121.346 199.326C122.088 199.326 122.648 199.518 123.027 199.9C123.41 200.279 123.602 200.889 123.602 201.729V206H121.809V202.174C121.809 201.705 121.729 201.352 121.568 201.113C121.408 200.875 121.16 200.756 120.824 200.756C120.352 200.756 120.016 200.926 119.816 201.266C119.617 201.602 119.518 202.084 119.518 202.713V206H117.73V202.174C117.73 201.861 117.695 201.6 117.625 201.389C117.555 201.178 117.447 201.02 117.303 200.914C117.158 200.809 116.973 200.756 116.746 200.756C116.414 200.756 116.152 200.84 115.961 201.008C115.773 201.172 115.639 201.416 115.557 201.74C115.479 202.061 115.439 202.453 115.439 202.918V206H113.652V199.449H115.018L115.258 200.287H115.357C115.49 200.061 115.656 199.877 115.855 199.736C116.059 199.596 116.281 199.492 116.523 199.426C116.766 199.359 117.012 199.326 117.262 199.326C117.742 199.326 118.148 199.404 118.48 199.561C118.816 199.717 119.074 199.959 119.254 200.287H119.412C119.607 199.951 119.883 199.707 120.238 199.555C120.598 199.402 120.967 199.326 121.346 199.326ZM128.143 199.326C128.748 199.326 129.27 199.443 129.707 199.678C130.145 199.908 130.482 200.244 130.721 200.686C130.959 201.127 131.078 201.666 131.078 202.303V203.17H126.854C126.873 203.674 127.023 204.07 127.305 204.359C127.59 204.645 127.984 204.787 128.488 204.787C128.906 204.787 129.289 204.744 129.637 204.658C129.984 204.572 130.342 204.443 130.709 204.271V205.654C130.385 205.814 130.045 205.932 129.689 206.006C129.338 206.08 128.91 206.117 128.406 206.117C127.75 206.117 127.168 205.996 126.66 205.754C126.156 205.512 125.76 205.143 125.471 204.646C125.186 204.15 125.043 203.525 125.043 202.771C125.043 202.006 125.172 201.369 125.43 200.861C125.691 200.35 126.055 199.967 126.52 199.713C126.984 199.455 127.525 199.326 128.143 199.326ZM128.154 200.598C127.807 200.598 127.518 200.709 127.287 200.932C127.061 201.154 126.93 201.504 126.895 201.98H129.402C129.398 201.715 129.35 201.479 129.256 201.271C129.166 201.064 129.029 200.9 128.846 200.779C128.666 200.658 128.436 200.598 128.154 200.598ZM136.252 199.326C136.951 199.326 137.514 199.518 137.939 199.9C138.365 200.279 138.578 200.889 138.578 201.729V206H136.791V202.174C136.791 201.705 136.705 201.352 136.533 201.113C136.365 200.875 136.1 200.756 135.736 200.756C135.189 200.756 134.816 200.941 134.617 201.312C134.418 201.684 134.318 202.219 134.318 202.918V206H132.531V199.449H133.896L134.137 200.287H134.236C134.377 200.061 134.551 199.877 134.758 199.736C134.969 199.596 135.201 199.492 135.455 199.426C135.713 199.359 135.979 199.326 136.252 199.326ZM143.178 204.693C143.373 204.693 143.562 204.674 143.746 204.635C143.934 204.596 144.119 204.547 144.303 204.488V205.818C144.111 205.904 143.873 205.975 143.588 206.029C143.307 206.088 142.998 206.117 142.662 206.117C142.271 206.117 141.92 206.055 141.607 205.93C141.299 205.801 141.055 205.58 140.875 205.268C140.699 204.951 140.611 204.512 140.611 203.949V200.791H139.756V200.035L140.74 199.438L141.256 198.055H142.398V199.449H144.232V200.791H142.398V203.949C142.398 204.199 142.469 204.387 142.609 204.512C142.754 204.633 142.943 204.693 143.178 204.693ZM150.203 204.055C150.203 204.5 150.098 204.877 149.887 205.186C149.68 205.49 149.369 205.723 148.955 205.883C148.541 206.039 148.025 206.117 147.408 206.117C146.951 206.117 146.559 206.088 146.23 206.029C145.906 205.971 145.578 205.873 145.246 205.736V204.26C145.602 204.42 145.982 204.553 146.389 204.658C146.799 204.76 147.158 204.811 147.467 204.811C147.814 204.811 148.062 204.76 148.211 204.658C148.363 204.553 148.439 204.416 148.439 204.248C148.439 204.139 148.408 204.041 148.346 203.955C148.287 203.865 148.158 203.766 147.959 203.656C147.76 203.543 147.447 203.396 147.021 203.217C146.611 203.045 146.273 202.871 146.008 202.695C145.746 202.52 145.551 202.312 145.422 202.074C145.297 201.832 145.234 201.525 145.234 201.154C145.234 200.549 145.469 200.094 145.938 199.789C146.41 199.48 147.041 199.326 147.83 199.326C148.236 199.326 148.623 199.367 148.99 199.449C149.361 199.531 149.742 199.662 150.133 199.842L149.594 201.131C149.27 200.99 148.963 200.875 148.674 200.785C148.389 200.695 148.098 200.65 147.801 200.65C147.539 200.65 147.342 200.686 147.209 200.756C147.076 200.826 147.01 200.934 147.01 201.078C147.01 201.184 147.043 201.277 147.109 201.359C147.18 201.441 147.312 201.533 147.508 201.635C147.707 201.732 147.998 201.859 148.381 202.016C148.752 202.168 149.074 202.328 149.348 202.496C149.621 202.66 149.832 202.865 149.98 203.111C150.129 203.354 150.203 203.668 150.203 204.055Z" fill="white"/>
<line x1="173.5" y1="226" x2="173.5" y2="416" stroke="#CCCCCC"/>
<path d="M82 229C82 227.343 83.3431 226 85 226H159C160.657 226 162 227.343 162 229V235C162 236.657 160.657 238 159 238H85C83.3431 238 82 236.657 82 235V229Z" fill="#FF6F3D"/>
<path d="M88 254H145" stroke="#E2E2E2" stroke-width="2" stroke-linecap="round"/>
<path d="M88 266H116.5H135" stroke="#E2E2E2" stroke-width="2" stroke-linecap="round"/>
<path d="M88 278H145" stroke="#E2E2E2" stroke-width="2" stroke-linecap="round"/>
<path d="M88 290H134" stroke="#E2E2E2" stroke-width="2" stroke-linecap="round"/>
<path d="M88 302H145" stroke="#E2E2E2" stroke-width="2" stroke-linecap="round"/>
<path d="M88 322H127" stroke="#E2E2E2" stroke-width="2" stroke-linecap="round"/>
<path d="M88 334H135" stroke="#E2E2E2" stroke-width="2" stroke-linecap="round"/>
<path d="M88 346H152" stroke="#E2E2E2" stroke-width="2" stroke-linecap="round"/>
<path d="M88 370H127" stroke="#E2E2E2" stroke-width="2" stroke-linecap="round"/>
<circle cx="92" cy="382" r="4" fill="#EFEFEF"/>
<circle cx="106" cy="382" r="4" fill="#EFEFEF"/>
<circle cx="120" cy="382" r="4" fill="#EFEFEF"/>
<circle cx="134" cy="382" r="4" fill="#EFEFEF"/>
<circle cx="148" cy="382" r="4" fill="#EFEFEF"/>
<path d="M88 394H152" stroke="#E2E2E2" stroke-width="2" stroke-linecap="round"/>
<circle cx="92" cy="406" r="4" fill="#EFEFEF"/>
<circle cx="108" cy="406" r="4" fill="#EFEFEF"/>
<circle cx="124" cy="406" r="4" fill="#EFEFEF"/>
<circle cx="140" cy="406" r="4" fill="#EFEFEF"/>
<path d="M191.5 268.5L425.5 269" stroke="#E2E2E2" stroke-linecap="round"/>
<path d="M190.003 250.697C190.001 249.761 190.785 249 191.753 249H195.22L197.318 250.692H202.25C203.217 250.692 204 251.45 204 252.385V258.308C204 259.242 203.217 260 202.25 260H191.791C190.875 260 190.004 259.288 190 258.311L190 258.307L190.003 250.697Z" fill="#B4BBBF"/>
<path d="M213.562 257.5H371.5" stroke="#CCCCCC" stroke-linecap="round"/>
<path d="M214 252L248.25 252" stroke="#808080" stroke-width="2" stroke-linecap="round"/>
<circle cx="421.5" cy="254.5" r="4" stroke="#AAAAAA"/>
<path d="M191.5 298.5L425.5 299" stroke="#E2E2E2" stroke-linecap="round"/>
<path d="M190.003 280.697C190.001 279.761 190.785 279 191.753 279H195.22L197.318 280.692H202.25C203.217 280.692 204 281.45 204 282.385V288.308C204 289.242 203.217 290 202.25 290H191.791C190.875 290 190.004 289.288 190 288.311L190 288.307L190.003 280.697Z" fill="#B4BBBF"/>
<path d="M213.562 287.5H371.5" stroke="#CCCCCC" stroke-linecap="round"/>
<path d="M214 282H291.25" stroke="#808080" stroke-width="2" stroke-linecap="round"/>
<circle cx="421.5" cy="284.5" r="4" stroke="#AAAAAA"/>
<path d="M191.5 328.5L425.5 329" stroke="#E2E2E2" stroke-linecap="round"/>
<path d="M190.003 310.697C190.001 309.761 190.785 309 191.753 309H195.22L197.318 310.692H202.25C203.217 310.692 204 311.45 204 312.385V318.308C204 319.242 203.217 320 202.25 320H191.791C190.875 320 190.004 319.288 190 318.311L190 318.307L190.003 310.697Z" fill="#B4BBBF"/>
<path d="M213.562 317.5H371.5" stroke="#CCCCCC" stroke-linecap="round"/>
<path d="M214 312H261.25" stroke="#808080" stroke-width="2" stroke-linecap="round"/>
<circle cx="421.5" cy="314.5" r="4" stroke="#AAAAAA"/>
<path d="M191 359.996L425 360.496" stroke="#E2E2E2" stroke-linecap="round"/>
<path d="M197.293 339.5L201.5 343.707L201.5 353.5L190.5 353.5L190.5 339.5L197.293 339.5Z" stroke="#B4BBBF"/>
<rect x="192" y="348" width="8" height="4" fill="#FF6F3D"/>
<path d="M214.562 349.497H372.5" stroke="#CCCCCC" stroke-linecap="round"/>
<path d="M215 343.997H246" stroke="#808080" stroke-width="2" stroke-linecap="round"/>
<circle cx="422.5" cy="344.497" r="4" stroke="#AAAAAA"/>
<path d="M191.5 390.493L425.5 390.993" stroke="#E2E2E2" stroke-linecap="round"/>
<path d="M197.293 370.996L201.5 375.204L201.5 384.996L190.5 384.996L190.5 370.996L197.293 370.996Z" stroke="#B4BBBF"/>
<rect x="192" y="379.496" width="8" height="4" fill="#518AB1"/>
<path d="M213.562 380.493H371.5" stroke="#CCCCCC" stroke-linecap="round"/>
<path d="M214 374.993H286.25" stroke="#808080" stroke-width="2" stroke-linecap="round"/>
<circle cx="421.5" cy="376.493" r="4" stroke="#AAAAAA"/>
<path d="M197.293 401.493L201.5 405.7L201.5 415.493L190.5 415.493L190.5 401.493L197.293 401.493Z" stroke="#B4BBBF"/>
<rect x="192" y="409.993" width="8" height="4" fill="#78A73B"/>
<path d="M213.562 410.989H371.5" stroke="#CCCCCC" stroke-linecap="round"/>
<path d="M214 405.489H256.75" stroke="#808080" stroke-width="2" stroke-linecap="round"/>
<circle cx="421.5" cy="406.989" r="4" stroke="#AAAAAA"/>
<defs>
<filter id="filter0_d_33_70695" x="465" y="19" width="212" height="151" filterUnits="userSpaceOnUse" color-interpolation-filters="sRGB">
<feFlood flood-opacity="0" result="BackgroundImageFix"/>
<feColorMatrix in="SourceAlpha" type="matrix" values="0 0 0 0 0 0 0 0 0 0 0 0 0 0 0 0 0 0 127 0" result="hardAlpha"/>
<feOffset dy="4"/>
<feGaussianBlur stdDeviation="4"/>
<feColorMatrix type="matrix" values="0 0 0 0 0.333333 0 0 0 0 0.333333 0 0 0 0 0.333333 0 0 0 0.2 0"/>
<feBlend mode="normal" in2="BackgroundImageFix" result="effect1_dropShadow_33_70695"/>
<feBlend mode="normal" in="SourceGraphic" in2="effect1_dropShadow_33_70695" result="shape"/>
</filter>
<filter id="filter1_d_33_70695" x="292" y="28" width="156" height="142" filterUnits="userSpaceOnUse" color-interpolation-filters="sRGB">
<feFlood flood-opacity="0" result="BackgroundImageFix"/>
<feColorMatrix in="SourceAlpha" type="matrix" values="0 0 0 0 0 0 0 0 0 0 0 0 0 0 0 0 0 0 127 0" result="hardAlpha"/>
<feOffset dy="4"/>
<feGaussianBlur stdDeviation="4"/>
<feColorMatrix type="matrix" values="0 0 0 0 0.333333 0 0 0 0 0.333333 0 0 0 0 0.333333 0 0 0 0.2 0"/>
<feBlend mode="normal" in2="BackgroundImageFix" result="effect1_dropShadow_33_70695"/>
<feBlend mode="normal" in="SourceGraphic" in2="effect1_dropShadow_33_70695" result="shape"/>
</filter>
<filter id="filter2_d_33_70695" x="465.002" y="186" width="144" height="118" filterUnits="userSpaceOnUse" color-interpolation-filters="sRGB">
<feFlood flood-opacity="0" result="BackgroundImageFix"/>
<feColorMatrix in="SourceAlpha" type="matrix" values="0 0 0 0 0 0 0 0 0 0 0 0 0 0 0 0 0 0 127 0" result="hardAlpha"/>
<feOffset dy="4"/>
<feGaussianBlur stdDeviation="4"/>
<feColorMatrix type="matrix" values="0 0 0 0 0.333333 0 0 0 0 0.333333 0 0 0 0 0.333333 0 0 0 0.2 0"/>
<feBlend mode="normal" in2="BackgroundImageFix" result="effect1_dropShadow_33_70695"/>
<feBlend mode="normal" in="SourceGraphic" in2="effect1_dropShadow_33_70695" result="shape"/>
</filter>
<filter id="filter3_d_33_70695" x="62" y="12" width="213" height="159" filterUnits="userSpaceOnUse" color-interpolation-filters="sRGB">
<feFlood flood-opacity="0" result="BackgroundImageFix"/>
<feColorMatrix in="SourceAlpha" type="matrix" values="0 0 0 0 0 0 0 0 0 0 0 0 0 0 0 0 0 0 127 0" result="hardAlpha"/>
<feOffset dy="4"/>
<feGaussianBlur stdDeviation="4"/>
<feColorMatrix type="matrix" values="0 0 0 0 0.333333 0 0 0 0 0.333333 0 0 0 0 0.333333 0 0 0 0.2 0"/>
<feBlend mode="normal" in2="BackgroundImageFix" result="effect1_dropShadow_33_70695"/>
<feBlend mode="normal" in="SourceGraphic" in2="effect1_dropShadow_33_70695" result="shape"/>
</filter>
<filter id="filter4_d_33_70695" x="465.002" y="324" width="172" height="118" filterUnits="userSpaceOnUse" color-interpolation-filters="sRGB">
<feFlood flood-opacity="0" result="BackgroundImageFix"/>
<feColorMatrix in="SourceAlpha" type="matrix" values="0 0 0 0 0 0 0 0 0 0 0 0 0 0 0 0 0 0 127 0" result="hardAlpha"/>
<feOffset dy="4"/>
<feGaussianBlur stdDeviation="4"/>
<feColorMatrix type="matrix" values="0 0 0 0 0.333333 0 0 0 0 0.333333 0 0 0 0 0.333333 0 0 0 0.2 0"/>
<feBlend mode="normal" in2="BackgroundImageFix" result="effect1_dropShadow_33_70695"/>
<feBlend mode="normal" in="SourceGraphic" in2="effect1_dropShadow_33_70695" result="shape"/>
</filter>
<filter id="filter5_d_33_70695" x="62" y="186" width="386" height="258" filterUnits="userSpaceOnUse" color-interpolation-filters="sRGB">
<feFlood flood-opacity="0" result="BackgroundImageFix"/>
<feColorMatrix in="SourceAlpha" type="matrix" values="0 0 0 0 0 0 0 0 0 0 0 0 0 0 0 0 0 0 127 0" result="hardAlpha"/>
<feOffset dy="4"/>
<feGaussianBlur stdDeviation="4"/>
<feColorMatrix type="matrix" values="0 0 0 0 0.333333 0 0 0 0 0.333333 0 0 0 0 0.333333 0 0 0 0.2 0"/>
<feBlend mode="normal" in2="BackgroundImageFix" result="effect1_dropShadow_33_70695"/>
<feBlend mode="normal" in="SourceGraphic" in2="effect1_dropShadow_33_70695" result="shape"/>
</filter>
<linearGradient id="paint0_linear_33_70695" x1="499.999" y1="50.6204" x2="499.999" y2="61.6218" gradientUnits="userSpaceOnUse">
<stop stop-color="#FF8E3D"/>
<stop offset="1" stop-color="#FF6F3D"/>
</linearGradient>
</defs>
</svg>
