<svg width="276" height="201" viewBox="0 0 276 201" fill="none" xmlns="http://www.w3.org/2000/svg">
<g filter="url(#filter0_d_39_14302)">
<g clip-path="url(#clip0_39_14302)">
<rect x="38.667" y="24.7043" width="201" height="153" rx="3" fill="white"/>
<path fill-rule="evenodd" clip-rule="evenodd" d="M77.667 71.7043C77.667 72.2566 77.2193 72.7043 76.667 72.7043H50.667C50.1147 72.7043 49.667 72.2566 49.667 71.7043C49.667 71.1521 50.1147 70.7043 50.667 70.7043H76.667C77.2193 70.7043 77.667 71.1521 77.667 71.7043Z" fill="#E2E2E2"/>
<path fill-rule="evenodd" clip-rule="evenodd" d="M77.667 85.7043C77.667 86.2566 77.2193 86.7043 76.667 86.7043H50.667C50.1147 86.7043 49.667 86.2566 49.667 85.7043C49.667 85.1521 50.1147 84.7043 50.667 84.7043H76.667C77.2193 84.7043 77.667 85.1521 77.667 85.7043Z" fill="#E2E2E2"/>
<path fill-rule="evenodd" clip-rule="evenodd" d="M77.667 99.7043C77.667 100.257 77.2193 100.704 76.667 100.704H50.667C50.1147 100.704 49.667 100.257 49.667 99.7043C49.667 99.1521 50.1147 98.7043 50.667 98.7043H76.667C77.2193 98.7043 77.667 99.1521 77.667 99.7043Z" fill="#E2E2E2"/>
<path fill-rule="evenodd" clip-rule="evenodd" d="M77.667 113.704C77.667 114.257 77.2193 114.704 76.667 114.704H50.667C50.1147 114.704 49.667 114.257 49.667 113.704C49.667 113.152 50.1147 112.704 50.667 112.704H76.667C77.2193 112.704 77.667 113.152 77.667 113.704Z" fill="#E2E2E2"/>
<path fill-rule="evenodd" clip-rule="evenodd" d="M77.667 127.704C77.667 128.257 77.2193 128.704 76.667 128.704H50.667C50.1147 128.704 49.667 128.257 49.667 127.704C49.667 127.152 50.1147 126.704 50.667 126.704H76.667C77.2193 126.704 77.667 127.152 77.667 127.704Z" fill="#E2E2E2"/>
<path fill-rule="evenodd" clip-rule="evenodd" d="M77.667 141.704C77.667 142.257 77.2193 142.704 76.667 142.704H50.667C50.1147 142.704 49.667 142.257 49.667 141.704C49.667 141.152 50.1147 140.704 50.667 140.704H76.667C77.2193 140.704 77.667 141.152 77.667 141.704Z" fill="#E2E2E2"/>
<path d="M153.237 139.372C153.237 139.88 153.112 140.318 152.862 140.685C152.616 141.052 152.261 141.333 151.796 141.529C151.335 141.724 150.784 141.822 150.144 141.822C149.831 141.822 149.532 141.804 149.247 141.769C148.962 141.734 148.692 141.683 148.438 141.616C148.188 141.546 147.96 141.462 147.753 141.365V140.04C148.101 140.193 148.489 140.331 148.919 140.456C149.349 140.577 149.786 140.638 150.231 140.638C150.595 140.638 150.896 140.591 151.134 140.497C151.376 140.4 151.556 140.263 151.673 140.087C151.79 139.907 151.849 139.698 151.849 139.46C151.849 139.206 151.78 138.991 151.644 138.816C151.507 138.64 151.3 138.48 151.022 138.335C150.749 138.187 150.405 138.029 149.991 137.861C149.71 137.747 149.44 137.618 149.183 137.474C148.929 137.329 148.702 137.159 148.503 136.964C148.304 136.769 148.146 136.538 148.028 136.273C147.915 136.003 147.858 135.687 147.858 135.323C147.858 134.839 147.974 134.425 148.204 134.081C148.438 133.738 148.767 133.474 149.188 133.29C149.614 133.107 150.11 133.015 150.677 133.015C151.126 133.015 151.548 133.062 151.942 133.156C152.341 133.249 152.731 133.382 153.114 133.554L152.669 134.685C152.317 134.54 151.976 134.425 151.644 134.339C151.315 134.253 150.979 134.21 150.636 134.21C150.339 134.21 150.087 134.255 149.88 134.345C149.673 134.435 149.515 134.562 149.405 134.726C149.3 134.886 149.247 135.077 149.247 135.3C149.247 135.55 149.308 135.761 149.429 135.933C149.554 136.101 149.745 136.255 150.003 136.396C150.265 136.536 150.601 136.693 151.011 136.865C151.483 137.06 151.884 137.265 152.212 137.48C152.544 137.695 152.798 137.952 152.974 138.253C153.149 138.55 153.237 138.923 153.237 139.372ZM157.292 135.095C158.112 135.095 158.731 135.277 159.149 135.64C159.571 136.003 159.782 136.57 159.782 137.339V141.704H158.804L158.54 140.784H158.493C158.31 141.019 158.12 141.212 157.925 141.365C157.729 141.517 157.503 141.63 157.245 141.704C156.991 141.782 156.681 141.822 156.313 141.822C155.927 141.822 155.581 141.751 155.276 141.611C154.972 141.466 154.731 141.247 154.556 140.954C154.38 140.661 154.292 140.29 154.292 139.841C154.292 139.173 154.54 138.671 155.036 138.335C155.536 137.999 156.29 137.814 157.298 137.779L158.423 137.738V137.398C158.423 136.948 158.317 136.628 158.106 136.437C157.899 136.245 157.606 136.15 157.228 136.15C156.903 136.15 156.589 136.197 156.284 136.29C155.979 136.384 155.683 136.499 155.394 136.636L154.948 135.663C155.265 135.495 155.624 135.359 156.026 135.253C156.433 135.148 156.854 135.095 157.292 135.095ZM158.417 138.605L157.579 138.634C156.892 138.657 156.409 138.775 156.132 138.986C155.854 139.197 155.716 139.486 155.716 139.853C155.716 140.173 155.812 140.407 156.003 140.556C156.194 140.7 156.446 140.773 156.759 140.773C157.235 140.773 157.63 140.638 157.942 140.368C158.259 140.095 158.417 139.695 158.417 139.167V138.605ZM163.192 141.704L160.726 135.218H162.185L163.521 139.027C163.606 139.269 163.685 139.531 163.755 139.812C163.825 140.093 163.874 140.329 163.901 140.521H163.948C163.976 140.322 164.028 140.083 164.106 139.806C164.185 139.525 164.265 139.265 164.347 139.027L165.683 135.218H167.136L164.669 141.704H163.192ZM170.704 135.095C171.282 135.095 171.778 135.214 172.192 135.452C172.606 135.691 172.925 136.029 173.147 136.466C173.37 136.904 173.481 137.427 173.481 138.036V138.775H169.151C169.167 139.404 169.335 139.888 169.655 140.228C169.979 140.568 170.433 140.738 171.015 140.738C171.429 140.738 171.8 140.698 172.128 140.62C172.46 140.538 172.802 140.419 173.153 140.263V141.382C172.829 141.534 172.499 141.646 172.163 141.716C171.827 141.786 171.425 141.822 170.956 141.822C170.319 141.822 169.759 141.698 169.274 141.452C168.794 141.202 168.417 140.831 168.144 140.339C167.874 139.847 167.739 139.236 167.739 138.505C167.739 137.779 167.862 137.161 168.108 136.654C168.354 136.146 168.7 135.759 169.146 135.493C169.591 135.228 170.11 135.095 170.704 135.095ZM170.704 136.132C170.271 136.132 169.919 136.273 169.649 136.554C169.384 136.835 169.228 137.247 169.181 137.79H172.134C172.13 137.466 172.075 137.179 171.97 136.929C171.868 136.679 171.712 136.484 171.501 136.343C171.294 136.202 171.028 136.132 170.704 136.132Z" fill="white"/>
<path d="M143.602 121.254H171.037L176.673 126.89V166.183C176.673 167.011 176.001 167.683 175.173 167.683H143.602C142.773 167.683 142.102 167.011 142.102 166.183V122.754C142.102 121.926 142.773 121.254 143.602 121.254Z" fill="white" stroke="#AAAAAA"/>
<rect x="159.387" y="148.619" width="14.2286" height="1.18571" rx="0.592857" fill="#CCCCCC"/>
<rect x="145.159" y="145.062" width="12.45" height="1.18571" rx="0.592857" fill="#FF6F3D"/>
<rect x="159.387" y="152.176" width="14.2286" height="1.18571" rx="0.592857" fill="#CCCCCC"/>
<rect x="159.387" y="155.733" width="14.2286" height="1.18571" rx="0.592857" fill="#CCCCCC"/>
<rect x="145.159" y="159.29" width="28.4571" height="1.18571" rx="0.592857" fill="#CCCCCC"/>
<rect x="145.159" y="162.847" width="28.4571" height="1.18571" rx="0.592857" fill="#FF6F3D"/>
<path d="M149.309 152.769L145.751 156.919H157.609L153.459 151.583L151.087 154.547L149.309 152.769Z" fill="#FF6F3D"/>
<ellipse cx="148.123" cy="149.804" rx="1.18571" ry="1.18571" fill="#FF6F3D"/>
<path d="M142.194 141.504C141.819 144.041 139.945 147.663 136.853 148.161C134.909 148.475 133.491 147.904 132.92 147.523" stroke="#AAAAAA" stroke-linecap="round"/>
<path d="M130.084 147.552C130.236 147.849 130.667 148.251 131.254 148.308C132.04 148.383 132.516 147.913 132.92 147.523" stroke="#AAAAAA" stroke-linecap="round"/>
<path d="M176.912 143.013C179.475 143.098 183.374 141.903 184.419 138.951C185.076 137.095 184.768 135.597 184.495 134.968" stroke="#AAAAAA" stroke-linecap="round"/>
<path d="M185.677 132.612C185.888 132.871 186.082 133.427 185.896 133.988C185.648 134.737 185.025 134.983 184.506 135.195" stroke="#AAAAAA" stroke-linecap="round"/>
<path d="M155.83 133.797C155.83 132.815 154.901 132.019 153.755 132.019C152.609 132.019 151.68 132.815 151.68 133.797" stroke="#AAAAAA" stroke-linecap="round"/>
<path d="M167.094 133.797C167.094 132.815 166.165 132.019 165.019 132.019C163.873 132.019 162.944 132.815 162.944 133.797" stroke="#AAAAAA" stroke-linecap="round"/>
<path d="M156.517 140.422C157.252 141.457 158.266 142.097 159.387 142.097C160.508 142.097 161.523 141.457 162.257 140.422C162.664 139.848 162.184 139.133 161.48 139.133H157.294C156.59 139.133 156.11 139.848 156.517 140.422Z" fill="#AAAAAA"/>
<path d="M170.651 121.347L176.58 127.276H171.651C171.099 127.276 170.651 126.828 170.651 126.276V121.347Z" fill="#AAAAAA"/>
<rect x="107.123" y="117.104" width="21.5286" height="21.5286" rx="10.7643" fill="white"/>
<rect x="107.123" y="117.104" width="21.5286" height="21.5286" rx="10.7643" stroke="#9ADAF3"/>
<path d="M111.958 136.109C111.958 133.85 113.79 132.019 116.049 132.019H119.725C121.984 132.019 123.816 133.85 123.816 136.109C123.816 136.625 123.494 137.085 123.009 137.262L122.249 137.54C119.432 138.569 116.342 138.569 113.525 137.54L112.765 137.262C112.281 137.085 111.958 136.625 111.958 136.109Z" fill="#9ADAF3"/>
<ellipse cx="117.887" cy="126.09" rx="3.55714" ry="3.55714" fill="#9ADAF3"/>
<ellipse cx="127.373" cy="118.383" rx="5.92857" ry="5.92857" fill="#FF6F3D"/>
<rect x="126.78" y="115.419" width="1.18571" height="5.92857" rx="0.592857" fill="white"/>
<rect x="124.409" y="118.976" width="1.18571" height="5.92857" rx="0.592857" transform="rotate(-90 124.409 118.976)" fill="white"/>
<path d="M194.045 156.167L200.884 158.657L204.309 157.061L208.015 146.878C208.298 146.1 207.897 145.239 207.118 144.956L199.178 142.066C198.399 141.782 197.539 142.184 197.255 142.962L193.149 154.245L193.103 154.392C192.917 155.129 193.315 155.902 194.045 156.167Z" fill="white" stroke="#9ADAF3"/>
<path d="M200.351 158.995L204.91 156.869L201.568 155.652L200.351 158.995Z" fill="#9ADAF3"/>
<path d="M141.622 102.551C141.542 103.089 140.918 103.346 140.482 103.022L138.472 101.529C138.023 101.196 138.109 100.5 138.626 100.287L141.008 99.3035C141.524 99.0901 142.076 99.5221 141.993 100.075L141.622 102.551Z" fill="#95C03D"/>
<path d="M211.579 122.116C211.499 122.653 210.875 122.91 210.439 122.587L208.429 121.094C207.98 120.76 208.066 120.065 208.583 119.851L210.965 118.868C211.481 118.654 212.033 119.086 211.951 119.639L211.579 122.116Z" fill="#5FC1E8"/>
<path d="M159.153 109.465C159.345 109.974 158.926 110.502 158.387 110.432L155.904 110.108C155.35 110.035 155.086 109.386 155.434 108.948L157.034 106.928C157.382 106.49 158.074 106.599 158.271 107.122L159.153 109.465Z" fill="#5FC1E8"/>
<path d="M197.926 101.36C197.84 101.896 197.214 102.148 196.781 101.82L194.785 100.308C194.34 99.9702 194.433 99.2754 194.952 99.067L197.343 98.1066C197.862 97.8981 198.409 98.3354 198.321 98.8876L197.926 101.36Z" fill="#F36700"/>
<path d="M180.137 116.011L186.066 137.354" stroke="#9ADAF3" stroke-linecap="round"/>
<path d="M180.73 117.874L189.892 115.419L189.125 119.307L191.734 122.291L182.571 124.746L180.73 117.874Z" fill="#D9F4FF" stroke="#9ADAF3" stroke-linejoin="round"/>
<path d="M101.264 77.7043V67.9043H102.944L108.152 74.9883V67.9043H109.776V77.7043H108.152L102.888 70.5363V77.7043H101.264ZM114.933 77.8723C114.252 77.8723 113.645 77.7183 113.113 77.4103C112.591 77.093 112.175 76.659 111.867 76.1083C111.569 75.5577 111.419 74.923 111.419 74.2043C111.419 73.4857 111.573 72.851 111.881 72.3003C112.189 71.7497 112.609 71.3203 113.141 71.0123C113.683 70.695 114.299 70.5363 114.989 70.5363C115.615 70.5363 116.179 70.6997 116.683 71.0263C117.187 71.3437 117.584 71.8057 117.873 72.4123C118.172 73.019 118.321 73.7423 118.321 74.5823H112.819L113.029 74.3863C113.029 74.8157 113.123 75.189 113.309 75.5063C113.496 75.8143 113.743 76.0523 114.051 76.2203C114.359 76.3883 114.7 76.4723 115.073 76.4723C115.503 76.4723 115.857 76.379 116.137 76.1923C116.417 75.9963 116.637 75.7443 116.795 75.4363L118.181 76.0243C117.985 76.3977 117.733 76.7243 117.425 77.0043C117.127 77.2843 116.767 77.499 116.347 77.6483C115.937 77.7977 115.465 77.8723 114.933 77.8723ZM113.127 73.5743L112.903 73.3783H116.851L116.641 73.5743C116.641 73.1917 116.557 72.879 116.389 72.6363C116.221 72.3843 116.007 72.1977 115.745 72.0763C115.493 71.9457 115.227 71.8803 114.947 71.8803C114.667 71.8803 114.387 71.9457 114.107 72.0763C113.827 72.1977 113.594 72.3843 113.407 72.6363C113.221 72.879 113.127 73.1917 113.127 73.5743ZM125.745 77.7043L128.083 70.7043H129.665L127.285 77.7043H125.745ZM121.055 77.7043L123.337 70.7043H124.723L122.469 77.7043H121.055ZM120.915 77.7043L118.535 70.7043H120.117L122.399 77.7043H120.915ZM125.731 77.7043L123.491 70.7043H124.877L127.159 77.7043H125.731ZM130.679 77.7043V67.9043H132.247V76.4023L132.163 77.7043H130.679ZM134.459 77.8723C133.871 77.8723 133.362 77.723 132.933 77.4243C132.513 77.1163 132.191 76.687 131.967 76.1363C131.743 75.5857 131.631 74.9417 131.631 74.2043C131.631 73.4577 131.743 72.8137 131.967 72.2723C132.191 71.7217 132.513 71.297 132.933 70.9983C133.362 70.6903 133.871 70.5363 134.459 70.5363C135.093 70.5363 135.644 70.6903 136.111 70.9983C136.587 71.297 136.955 71.7217 137.217 72.2723C137.487 72.8137 137.623 73.4577 137.623 74.2043C137.623 74.9417 137.487 75.5857 137.217 76.1363C136.955 76.687 136.587 77.1163 136.111 77.4243C135.644 77.723 135.093 77.8723 134.459 77.8723ZM134.067 76.4443C134.44 76.4443 134.771 76.351 135.061 76.1643C135.35 75.9683 135.579 75.7023 135.747 75.3663C135.924 75.0303 136.013 74.643 136.013 74.2043C136.013 73.7657 135.929 73.3783 135.761 73.0423C135.602 72.7063 135.378 72.445 135.089 72.2583C134.799 72.0717 134.463 71.9783 134.081 71.9783C133.726 71.9783 133.409 72.0717 133.129 72.2583C132.849 72.445 132.629 72.7063 132.471 73.0423C132.321 73.3783 132.247 73.7657 132.247 74.2043C132.247 74.643 132.321 75.0303 132.471 75.3663C132.629 75.7023 132.844 75.9683 133.115 76.1643C133.395 76.351 133.712 76.4443 134.067 76.4443ZM142.184 77.8723C141.484 77.8723 140.858 77.7183 140.308 77.4103C139.766 77.093 139.342 76.659 139.034 76.1083C138.726 75.5577 138.572 74.923 138.572 74.2043C138.572 73.4857 138.721 72.851 139.02 72.3003C139.328 71.7497 139.752 71.3203 140.294 71.0123C140.835 70.695 141.456 70.5363 142.156 70.5363C142.856 70.5363 143.476 70.695 144.018 71.0123C144.559 71.3203 144.979 71.7497 145.278 72.3003C145.586 72.851 145.74 73.4857 145.74 74.2043C145.74 74.923 145.59 75.5577 145.292 76.1083C144.993 76.659 144.573 77.093 144.032 77.4103C143.49 77.7183 142.874 77.8723 142.184 77.8723ZM142.184 76.4303C142.566 76.4303 142.907 76.337 143.206 76.1503C143.504 75.9543 143.738 75.693 143.906 75.3663C144.074 75.0303 144.158 74.643 144.158 74.2043C144.158 73.7657 144.069 73.383 143.892 73.0563C143.724 72.7203 143.49 72.459 143.192 72.2723C142.893 72.0763 142.548 71.9783 142.156 71.9783C141.764 71.9783 141.418 72.0717 141.12 72.2583C140.821 72.445 140.588 72.7063 140.42 73.0423C140.252 73.3783 140.168 73.7657 140.168 74.2043C140.168 74.643 140.252 75.0303 140.42 75.3663C140.597 75.693 140.835 75.9543 141.134 76.1503C141.442 76.337 141.792 76.4303 142.184 76.4303ZM151.368 77.7043L151.298 76.3883V74.1063C151.298 73.6303 151.247 73.2337 151.144 72.9163C151.051 72.5897 150.892 72.3423 150.668 72.1743C150.454 71.997 150.164 71.9083 149.8 71.9083C149.464 71.9083 149.17 71.9783 148.918 72.1183C148.666 72.2583 148.452 72.4777 148.274 72.7763L146.902 72.2723C147.052 71.9643 147.248 71.6797 147.49 71.4183C147.742 71.1477 148.055 70.933 148.428 70.7743C148.811 70.6157 149.268 70.5363 149.8 70.5363C150.482 70.5363 151.051 70.6717 151.508 70.9423C151.966 71.2037 152.302 71.5817 152.516 72.0763C152.74 72.571 152.852 73.1683 152.852 73.8683L152.81 77.7043H151.368ZM149.352 77.8723C148.512 77.8723 147.859 77.6857 147.392 77.3123C146.935 76.939 146.706 76.4117 146.706 75.7303C146.706 75.0023 146.949 74.447 147.434 74.0643C147.929 73.6817 148.615 73.4903 149.492 73.4903H151.368V74.6943H149.996C149.371 74.6943 148.932 74.783 148.68 74.9603C148.428 75.1283 148.302 75.371 148.302 75.6883C148.302 75.959 148.41 76.1737 148.624 76.3323C148.848 76.4817 149.156 76.5563 149.548 76.5563C149.903 76.5563 150.211 76.477 150.472 76.3183C150.734 76.1597 150.934 75.9497 151.074 75.6883C151.224 75.427 151.298 75.133 151.298 74.8063H151.76C151.76 75.7583 151.569 76.5097 151.186 77.0603C150.804 77.6017 150.192 77.8723 149.352 77.8723ZM155.476 73.9803C155.476 73.2243 155.621 72.6037 155.91 72.1183C156.2 71.633 156.573 71.2737 157.03 71.0403C157.497 70.7977 157.982 70.6763 158.486 70.6763V72.1743C158.057 72.1743 157.651 72.235 157.268 72.3563C156.895 72.4683 156.592 72.655 156.358 72.9163C156.125 73.1777 156.008 73.523 156.008 73.9523L155.476 73.9803ZM154.44 77.7043V70.7043H156.008V77.7043H154.44ZM164.58 77.7043L164.51 76.4023V67.9043H166.064V77.7043H164.58ZM162.298 77.8723C161.664 77.8723 161.108 77.723 160.632 77.4243C160.166 77.1163 159.797 76.687 159.526 76.1363C159.265 75.5857 159.134 74.9417 159.134 74.2043C159.134 73.4577 159.265 72.8137 159.526 72.2723C159.797 71.7217 160.166 71.297 160.632 70.9983C161.108 70.6903 161.664 70.5363 162.298 70.5363C162.886 70.5363 163.39 70.6903 163.81 70.9983C164.24 71.297 164.566 71.7217 164.79 72.2723C165.014 72.8137 165.126 73.4577 165.126 74.2043C165.126 74.9417 165.014 75.5857 164.79 76.1363C164.566 76.687 164.24 77.1163 163.81 77.4243C163.39 77.723 162.886 77.8723 162.298 77.8723ZM162.69 76.4443C163.045 76.4443 163.358 76.351 163.628 76.1643C163.908 75.9683 164.123 75.7023 164.272 75.3663C164.431 75.0303 164.51 74.643 164.51 74.2043C164.51 73.7657 164.431 73.3783 164.272 73.0423C164.123 72.7063 163.908 72.445 163.628 72.2583C163.358 72.0717 163.04 71.9783 162.676 71.9783C162.303 71.9783 161.972 72.0717 161.682 72.2583C161.393 72.445 161.164 72.7063 160.996 73.0423C160.838 73.3783 160.754 73.7657 160.744 74.2043C160.754 74.643 160.838 75.0303 160.996 75.3663C161.164 75.7023 161.393 75.9683 161.682 76.1643C161.981 76.351 162.317 76.4443 162.69 76.4443Z" fill="#333333"/>
<rect x="39.167" y="24.7043" width="200.5" height="30" rx="3" fill="#ECEFF8"/>
<g clip-path="url(#clip1_39_14302)">
<mask id="mask0_39_14302" style="mask-type:luminance" maskUnits="userSpaceOnUse" x="48" y="31" width="17" height="18">
<path d="M48 31.7043H65V48.7043H48V31.7043Z" fill="white"/>
</mask>
<g mask="url(#mask0_39_14302)">
<path d="M58.4992 34.0887C58.4992 32.979 57.6 32.0793 56.4908 32.0793C55.3816 32.0793 54.4824 32.979 54.4824 34.0887V36.2972C54.4824 37.407 55.3816 38.3066 56.4908 38.3066C57.6 38.3066 58.4992 37.407 58.4992 36.2972V34.0887Z" fill="url(#paint0_linear_39_14302)"/>
<path d="M50.6373 36.9071C49.5819 36.5641 48.4484 37.1412 48.1056 38.1962C47.7629 39.251 48.3406 40.3842 49.3961 40.7272L51.4965 41.4096C52.5519 41.7526 53.6854 41.1754 54.0281 40.1205C54.3709 39.0656 53.7931 37.9324 52.7377 37.5895L50.6373 36.9071Z" fill="url(#paint1_linear_39_14302)"/>
<path d="M50.8836 45.2548C50.2313 46.1527 50.4299 47.409 51.3273 48.0609C52.2246 48.7129 53.4809 48.5136 54.1332 47.6158L55.4313 45.8291C56.0836 44.9313 55.885 43.6749 54.9876 43.023C54.0902 42.371 52.834 42.5703 52.1817 43.4681L50.8836 45.2548Z" fill="url(#paint2_linear_39_14302)"/>
<path d="M58.9019 47.593C59.5542 48.4909 60.8104 48.6902 61.7078 48.0382C62.6052 47.3863 62.8038 46.1299 62.1515 45.2321L60.8534 43.4454C60.2011 42.5476 58.9449 42.3483 58.0475 43.0003C57.1501 43.6522 56.9515 44.9085 57.6038 45.8064L58.9019 47.593Z" fill="url(#paint3_linear_39_14302)"/>
<path d="M56.5096 42.8859C57.6102 42.8859 58.5024 41.9937 58.5024 40.8931C58.5024 39.7925 57.6102 38.9003 56.5096 38.9003C55.409 38.9003 54.5168 39.7925 54.5168 40.8931C54.5168 41.9937 55.409 42.8859 56.5096 42.8859ZM50.0056 40.8132C51.1122 40.8132 52.0092 39.9162 52.0092 38.8096C52.0092 37.703 51.1122 36.8059 50.0056 36.8059C48.899 36.8059 48.002 37.703 48.002 38.8096C48.002 39.9162 48.899 40.8132 50.0056 40.8132ZM56.4898 36.0794C57.5983 36.0794 58.497 35.1807 58.497 34.0721C58.497 32.9636 57.5983 32.0649 56.4898 32.0649C55.3812 32.0649 54.4826 32.9636 54.4826 34.0721C54.4826 35.1807 55.3812 36.0794 56.4898 36.0794ZM52.5119 48.4489C53.6224 48.4489 54.5226 47.5487 54.5226 46.4382C54.5226 45.3278 53.6224 44.4275 52.5119 44.4275C51.4015 44.4275 50.5012 45.3278 50.5012 46.4382C50.5012 47.5487 51.4015 48.4489 52.5119 48.4489ZM60.5307 48.4289C61.6387 48.4289 62.5371 47.5307 62.5371 46.4226C62.5371 45.3145 61.6387 44.4163 60.5307 44.4163C59.4226 44.4163 58.5243 45.3145 58.5243 46.4226C58.5243 47.5307 59.4226 48.4289 60.5307 48.4289Z" fill="#6161FF"/>
<path d="M62.3626 36.9066C63.4181 36.5636 64.5516 37.1408 64.8943 38.1957C65.2371 39.2506 64.6593 40.3837 63.6039 40.7267L61.5035 41.4091C60.4481 41.7521 59.3146 41.1749 58.9718 40.12C58.6291 39.0651 59.2068 37.9319 60.2623 37.589L62.3626 36.9066Z" fill="url(#paint4_linear_39_14302)"/>
<path d="M62.9924 40.8125C61.8858 40.8125 60.9888 39.9154 60.9888 38.8088C60.9888 37.7022 61.8858 36.8052 62.9924 36.8052C64.0989 36.8052 64.996 37.7022 64.996 38.8088C64.996 39.9154 64.0989 40.8125 62.9924 40.8125Z" fill="#6161FF"/>
</g>
</g>
</g>
<rect x="39.167" y="25.2043" width="200" height="152" rx="2.5" stroke="#D9DFED"/>
<rect x="39.167" y="25.2043" width="200" height="152" rx="2.5" stroke="#D3D9E9"/>
</g>
<defs>
<filter id="filter0_d_39_14302" x="23.667" y="16.7043" width="231" height="183" filterUnits="userSpaceOnUse" color-interpolation-filters="sRGB">
<feFlood flood-opacity="0" result="BackgroundImageFix"/>
<feColorMatrix in="SourceAlpha" type="matrix" values="0 0 0 0 0 0 0 0 0 0 0 0 0 0 0 0 0 0 127 0" result="hardAlpha"/>
<feOffset dy="7"/>
<feGaussianBlur stdDeviation="7.5"/>
<feColorMatrix type="matrix" values="0 0 0 0 0.333333 0 0 0 0 0.333333 0 0 0 0 0.333333 0 0 0 0.1 0"/>
<feBlend mode="normal" in2="BackgroundImageFix" result="effect1_dropShadow_39_14302"/>
<feBlend mode="normal" in="SourceGraphic" in2="effect1_dropShadow_39_14302" result="shape"/>
</filter>
<linearGradient id="paint0_linear_39_14302" x1="56.4776" y1="28.2203" x2="56.5219" y2="38.7078" gradientUnits="userSpaceOnUse">
<stop offset="0.411" stop-color="#6C6CFF" stop-opacity="0.9"/>
<stop offset="1" stop-color="#6C6CFF" stop-opacity="0.2"/>
</linearGradient>
<linearGradient id="paint1_linear_39_14302" x1="44.4312" y1="37.0161" x2="54.4195" y2="40.2152" gradientUnits="userSpaceOnUse">
<stop offset="0.411" stop-color="#6C6CFF" stop-opacity="0.9"/>
<stop offset="1" stop-color="#6C6CFF" stop-opacity="0.2"/>
</linearGradient>
<linearGradient id="paint2_linear_39_14302" x1="49.0698" y1="51.1908" x2="55.1985" y2="42.68" gradientUnits="userSpaceOnUse">
<stop offset="0.411" stop-color="#6C6CFF" stop-opacity="0.9"/>
<stop offset="1" stop-color="#6C6CFF" stop-opacity="0.2"/>
</linearGradient>
<linearGradient id="paint3_linear_39_14302" x1="63.987" y1="51.1528" x2="57.7867" y2="42.694" gradientUnits="userSpaceOnUse">
<stop offset="0.411" stop-color="#6C6CFF" stop-opacity="0.9"/>
<stop offset="1" stop-color="#6C6CFF" stop-opacity="0.2"/>
</linearGradient>
<linearGradient id="paint4_linear_39_14302" x1="68.5688" y1="37.0156" x2="58.5805" y2="40.2147" gradientUnits="userSpaceOnUse">
<stop offset="0.411" stop-color="#6C6CFF" stop-opacity="0.9"/>
<stop offset="1" stop-color="#6C6CFF" stop-opacity="0.2"/>
</linearGradient>
<clipPath id="clip0_39_14302">
<rect x="38.667" y="24.7043" width="201" height="153" rx="3" fill="white"/>
</clipPath>
<clipPath id="clip1_39_14302">
<rect width="17" height="17" fill="white" transform="translate(48 31.7043)"/>
</clipPath>
</defs>
</svg>
