<svg width="276" height="201" viewBox="0 0 276 201" fill="none" xmlns="http://www.w3.org/2000/svg">
<g filter="url(#filter0_d_39_13889)">
<rect x="38.667" y="24.7043" width="201" height="153" rx="3" fill="white"/>
<rect x="39.167" y="25.2043" width="200" height="152" rx="2.5" stroke="#D9DFED"/>
<rect x="39.167" y="25.2043" width="200" height="152" rx="2.5" stroke="#D3D9E9"/>
<path d="M48.0938 31.9453C49.1983 31.9453 50.0938 32.8407 50.0938 33.9453C50.0938 35.0499 49.1983 35.9453 48.0938 35.9453C46.9892 35.9453 46.0938 35.0499 46.0938 33.9453C46.0938 32.8407 46.9892 31.9453 48.0938 31.9453ZM54.0938 31.9453C55.1983 31.9453 56.0938 32.8407 56.0938 33.9453C56.0938 35.0499 55.1983 35.9453 54.0938 35.9453C52.9892 35.9453 52.0938 35.0499 52.0938 33.9453C52.0938 32.8407 52.9892 31.9453 54.0938 31.9453ZM60.0938 31.9453C61.1983 31.9453 62.0938 32.8407 62.0938 33.9453C62.0938 35.0499 61.1983 35.9453 60.0938 35.9453C58.9892 35.9453 58.0938 35.0499 58.0938 33.9453C58.0938 32.8407 58.9892 31.9453 60.0938 31.9453Z" fill="#D9D9D9"/>
<g clip-path="url(#clip0_39_13889)">
<path fill-rule="evenodd" clip-rule="evenodd" d="M74.4791 65.6721L67.1049 62.1722C66.4767 61.8667 66.4767 61.3945 67.1049 61.1167L69.6722 59.8945L74.4517 62.1722C75.0799 62.4777 76.0905 62.4777 76.6913 62.1722L81.4709 59.8945L84.0382 61.1167C84.6664 61.4222 84.6664 61.8944 84.0382 62.1722L76.664 65.6721C76.0905 65.9499 75.0799 65.9499 74.4791 65.6721Z" fill="#FF6F3D"/>
<path fill-rule="evenodd" clip-rule="evenodd" d="M74.4552 61.3409L67.1035 57.837C66.4772 57.5311 66.4772 57.0584 67.1035 56.7803L69.6085 55.5845L74.4552 57.8926C75.0814 58.1985 76.0889 58.1985 76.6879 57.8926L81.5346 55.5845L84.0396 56.7803C84.6659 57.0862 84.6659 57.5589 84.0396 57.837L76.6879 61.3409C76.0617 61.6468 75.0542 61.6468 74.4552 61.3409Z" fill="#95C038"/>
<path fill-rule="evenodd" clip-rule="evenodd" d="M74.4552 57.0551L67.1035 53.6016C66.4772 53.3001 66.4772 52.8341 67.1035 52.56L74.4552 49.1065C75.0814 48.805 76.0889 48.805 76.6879 49.1065L84.0396 52.56C84.6659 52.8615 84.6659 53.3275 84.0396 53.6016L76.6879 57.0551C76.0617 57.3292 75.0542 57.3292 74.4552 57.0551Z" fill="#5DC0E8"/>
<path fill-rule="evenodd" clip-rule="evenodd" d="M184.849 61.0096C185.381 60.5862 185.648 59.9963 185.648 59.2398C185.648 58.6518 185.482 58.1736 185.151 57.8052C184.824 57.4367 184.223 57.0917 183.348 56.7703C182.826 56.5782 182.438 56.4038 182.183 56.247C181.932 56.0863 181.754 55.9119 181.647 55.7237C181.54 55.5316 181.487 55.2867 181.487 54.9887C181.487 54.585 181.632 54.2695 181.921 54.0421C182.21 53.8148 182.612 53.7011 183.125 53.7011C183.776 53.7011 184.445 53.85 185.134 54.148L185.436 53.2777C184.74 52.9642 183.977 52.8074 183.148 52.8074C182.353 52.8074 181.713 53.0034 181.23 53.3953C180.747 53.7873 180.506 54.3145 180.506 54.977C180.506 55.6081 180.671 56.1196 181.002 56.5116C181.337 56.9036 181.893 57.2427 182.669 57.5288C183.224 57.7326 183.637 57.9149 183.907 58.0756C184.181 58.2363 184.375 58.4127 184.489 58.6048C184.607 58.7929 184.666 59.036 184.666 59.3339C184.666 59.7846 184.502 60.1374 184.175 60.3922C183.848 60.6431 183.361 60.7685 182.714 60.7685C182.318 60.7685 181.919 60.7254 181.516 60.6392C181.112 60.5529 180.74 60.4353 180.397 60.2864V61.2506C180.93 61.5133 181.69 61.6446 182.68 61.6446C183.593 61.6446 184.316 61.4329 184.849 61.0096ZM165.664 60.404C166.414 59.6514 166.789 58.5656 166.789 57.1466C166.789 55.8178 166.429 54.783 165.71 54.0421C164.991 53.3013 163.983 52.9308 162.685 52.9308H160.128V61.527H162.44C163.844 61.527 164.919 61.1527 165.664 60.404ZM164.939 54.6477C165.488 55.2161 165.761 56.0608 165.761 57.1819C165.761 58.3304 165.47 59.1986 164.888 59.7866C164.306 60.3707 163.436 60.6627 162.28 60.6627H161.099V53.7952H162.509C163.585 53.7952 164.395 54.0794 164.939 54.6477ZM173.023 60.7626C173.537 60.1708 173.794 59.3496 173.794 58.2991C173.794 57.276 173.535 56.4645 173.018 55.8648C172.504 55.2651 171.81 54.9653 170.935 54.9653C170.029 54.9653 169.321 55.2592 168.812 55.8472C168.302 56.4312 168.047 57.2485 168.047 58.2991C168.047 58.9771 168.165 59.5691 168.401 60.0747C168.637 60.5804 168.972 60.9684 169.405 61.2389C169.839 61.5093 170.335 61.6446 170.895 61.6446C171.801 61.6446 172.51 61.3506 173.023 60.7626ZM169.508 60.1805C169.188 59.7494 169.029 59.1222 169.029 58.2991C169.029 57.468 169.187 56.8428 169.502 56.4234C169.818 56.004 170.286 55.7943 170.906 55.7943C171.534 55.7943 172.008 56.0079 172.327 56.4352C172.651 56.8585 172.812 57.4798 172.812 58.2991C172.812 59.1261 172.651 59.7553 172.327 60.1864C172.008 60.6137 171.538 60.8273 170.918 60.8273C170.298 60.8273 169.828 60.6117 169.508 60.1805ZM177.843 61.6446C176.937 61.6446 176.235 61.3585 175.737 60.7862C175.243 60.21 174.995 59.3966 174.995 58.3461C174.995 57.2681 175.246 56.4352 175.748 55.8472C176.255 55.2592 176.974 54.9653 177.906 54.9653C178.206 54.9653 178.507 54.9986 178.808 55.0652C179.108 55.1318 179.344 55.2102 179.516 55.3004L179.224 56.1294C179.015 56.0432 178.787 55.9726 178.539 55.9177C178.292 55.8589 178.073 55.8295 177.883 55.8295C176.612 55.8295 175.977 56.6645 175.977 58.3343C175.977 59.1261 176.131 59.7337 176.439 60.157C176.752 60.5804 177.212 60.7921 177.82 60.7921C178.342 60.7921 178.876 60.6764 179.424 60.4451V61.3094C179.006 61.5329 178.478 61.6446 177.843 61.6446ZM190.005 61.6446C189.598 61.6446 189.225 61.5682 188.886 61.4153C188.552 61.2585 188.27 61.0194 188.042 60.698H187.973C188.019 61.0743 188.042 61.431 188.042 61.7681V64.4198H187.094V55.0828H187.865L187.996 55.9648H188.042C188.285 55.612 188.569 55.3572 188.892 55.2004C189.215 55.0436 189.586 54.9653 190.005 54.9653C190.834 54.9653 191.474 55.2573 191.922 55.8413C192.375 56.4253 192.602 57.2446 192.602 58.2991C192.602 59.3574 192.372 60.1805 191.911 60.7685C191.455 61.3526 190.819 61.6446 190.005 61.6446ZM189.868 55.7943C189.229 55.7943 188.767 55.9765 188.481 56.3411C188.196 56.7056 188.049 57.2858 188.042 58.0815V58.2991C188.042 59.2045 188.188 59.8532 188.481 60.2452C188.774 60.6333 189.244 60.8273 189.891 60.8273C190.431 60.8273 190.854 60.6019 191.158 60.1512C191.466 59.7004 191.62 59.0791 191.62 58.2873C191.62 57.4837 191.466 56.8683 191.158 56.4411C190.854 56.0098 190.424 55.7943 189.868 55.7943ZM197.804 60.6098L197.992 61.527H198.694V57.129C198.694 56.3764 198.513 55.8295 198.152 55.4885C197.794 55.1475 197.242 54.977 196.497 54.977C196.128 54.977 195.758 55.026 195.389 55.124C195.024 55.222 194.687 55.3572 194.379 55.5297L194.67 56.2764C195.329 55.9472 195.918 55.7825 196.44 55.7825C196.904 55.7825 197.241 55.904 197.45 56.1471C197.663 56.3862 197.769 56.7585 197.769 57.2642V57.664L196.708 57.6993C194.687 57.762 193.678 58.4441 193.678 59.7454C193.678 60.353 193.852 60.8214 194.202 61.1507C194.556 61.48 195.043 61.6446 195.664 61.6446C196.128 61.6446 196.514 61.5741 196.822 61.4329C197.134 61.2879 197.446 61.0135 197.758 60.6098H197.804ZM197.239 60.3393C196.904 60.6725 196.442 60.8391 195.852 60.8391C195.479 60.8391 195.188 60.747 194.979 60.5627C194.773 60.3785 194.67 60.11 194.67 59.7572C194.67 59.3064 194.836 58.9752 195.167 58.7635C195.502 58.5479 196.046 58.4265 196.799 58.399L197.746 58.3578V58.9399C197.746 59.5396 197.577 60.0061 197.239 60.3393ZM203.034 61.6446C202.129 61.6446 201.427 61.3585 200.928 60.7862C200.434 60.21 200.187 59.3966 200.187 58.3461C200.187 57.2681 200.437 56.4352 200.94 55.8472C201.445 55.2592 202.165 54.9653 203.097 54.9653C203.398 54.9653 203.698 54.9986 203.999 55.0652C204.299 55.1318 204.535 55.2102 204.706 55.3004L204.415 56.1294C204.206 56.0432 203.977 55.9726 203.73 55.9177C203.483 55.8589 203.265 55.8295 203.074 55.8295C201.803 55.8295 201.168 56.6645 201.168 58.3343C201.168 59.1261 201.322 59.7337 201.63 60.157C201.942 60.5804 202.402 60.7921 203.011 60.7921C203.532 60.7921 204.067 60.6764 204.615 60.4451V61.3094C204.197 61.5329 203.67 61.6446 203.034 61.6446ZM206.438 60.7744C206.975 61.3545 207.705 61.6446 208.63 61.6446C209.052 61.6446 209.412 61.6113 209.709 61.5446C210.009 61.4819 210.327 61.3761 210.661 61.2271V60.3569C210.003 60.647 209.338 60.7921 208.664 60.7921C208.025 60.7921 207.528 60.596 207.175 60.2041C206.824 59.8121 206.64 59.2378 206.621 58.4813H210.93V57.8639C210.93 56.9937 210.702 56.2941 210.245 55.7649C209.788 55.2318 209.168 54.9653 208.384 54.9653C207.548 54.9653 206.88 55.271 206.381 55.8825C205.887 56.494 205.639 57.3191 205.639 58.3578C205.639 59.3888 205.906 60.1942 206.438 60.7744ZM207.169 56.2882C207.469 55.951 207.871 55.7825 208.373 55.7825C208.868 55.7825 209.248 55.9472 209.514 56.2764C209.781 56.6018 209.914 57.0721 209.914 57.6875H206.644C206.697 57.0917 206.872 56.6252 207.169 56.2882ZM88.7964 57.3804C88.7964 54.2981 90.8361 53.036 92.9117 53.036C94.9874 53.036 97.027 54.2981 97.027 57.3804C97.027 60.4628 94.9874 61.7248 92.9117 61.7248C90.8361 61.7248 88.7964 60.4628 88.7964 57.3804ZM95.2273 57.3804C95.2273 54.5043 93.5476 54.2495 92.9117 54.2495C92.2758 54.2495 90.5961 54.5043 90.5961 57.3804C90.5961 60.2565 92.2758 60.5113 92.9117 60.5113C93.5476 60.5113 95.2273 60.2565 95.2273 57.3804ZM100.115 61.6278H98.4112V53.1331H100.619L103.522 58.4847L103.966 59.6376H104.002L103.966 58.1328V53.1331H105.67V61.6278H103.462L100.535 56.0698L100.115 55.1232H100.079L100.115 56.628V61.6278ZM107.351 61.6278H112.39V60.1958H109.055V53.1331H107.351V61.6278ZM114.046 58.1571L110.951 53.1331H112.918L114.646 56.1183L114.91 56.7008H114.946L115.234 56.1183L116.973 53.1331H118.773L115.75 58.1813V61.6278H114.046V58.1571ZM122.743 53.036C120.667 53.036 118.627 54.2981 118.627 57.3804C118.627 60.4628 120.667 61.7248 122.743 61.7248C124.818 61.7248 126.858 60.4628 126.858 57.3804C126.858 54.2981 124.818 53.036 122.743 53.036ZM122.743 54.2495C123.378 54.2495 125.058 54.5043 125.058 57.3804C125.058 60.2565 123.378 60.5113 122.743 60.5113C122.107 60.5113 120.427 60.2565 120.427 57.3804C120.427 54.5043 122.107 54.2495 122.743 54.2495ZM129.946 61.6278H128.242V53.1331H132.946V54.565H129.946V56.628H132.801V58.0236H129.946V61.6278ZM134.147 61.6278H135.851V58.0236H138.707V56.628H135.851V54.565H138.851V53.1331H134.147V61.6278ZM141.756 61.6278H140.053V53.1331H141.756V61.6278ZM149.57 59.9167C149.15 60.1108 148.562 60.2929 147.818 60.2929C146.306 60.2929 144.938 59.4555 144.938 57.4047C144.938 55.6693 146.054 54.4679 147.938 54.4679C148.574 54.4679 149.114 54.5893 149.606 54.7835L149.678 53.3272C149.042 53.1209 148.478 53.036 147.818 53.036C145.178 53.036 143.139 54.5043 143.139 57.4289C143.139 60.5235 145.419 61.7248 147.506 61.7248C148.178 61.7248 148.934 61.6157 149.678 61.3608L149.57 59.9167ZM156.011 61.6278H150.996V53.1331H156.011V54.6378H152.7V56.5552H155.711V57.9508H152.7V60.123H156.011V61.6278Z" fill="#333333"/>
</g>
<rect x="90.4395" y="83.7681" width="99" height="19" rx="2.5" stroke="#CCCCCC"/>
<rect x="90.4395" y="109.768" width="99" height="19" rx="2.5" stroke="#CCCCCC"/>
<rect x="89.9395" y="135.268" width="100" height="20" rx="3" fill="url(#paint0_linear_39_13889)"/>
<rect x="89.9395" y="135.268" width="100" height="20" rx="3" fill="#0073EA"/>
<path d="M122.873 149.268L122.035 146.889H118.76L117.922 149.268H116.439L119.627 140.667H121.186L124.367 149.268H122.873ZM121.672 145.682L120.857 143.338C120.826 143.237 120.781 143.094 120.723 142.911C120.664 142.723 120.605 142.534 120.547 142.342C120.488 142.147 120.439 141.983 120.4 141.85C120.361 142.01 120.312 142.19 120.254 142.389C120.199 142.584 120.145 142.768 120.09 142.94C120.039 143.112 120 143.245 119.973 143.338L119.152 145.682H121.672ZM127.537 149.385C126.764 149.385 126.143 149.104 125.674 148.542C125.209 147.975 124.977 147.141 124.977 146.04C124.977 144.926 125.213 144.084 125.686 143.514C126.162 142.944 126.789 142.659 127.566 142.659C127.895 142.659 128.182 142.704 128.428 142.793C128.674 142.879 128.885 142.997 129.061 143.145C129.24 143.293 129.393 143.459 129.518 143.643H129.582C129.562 143.522 129.539 143.348 129.512 143.122C129.488 142.891 129.477 142.678 129.477 142.483V140.151H130.859V149.268H129.781L129.535 148.383H129.477C129.359 148.571 129.211 148.741 129.031 148.893C128.855 149.042 128.645 149.161 128.398 149.25C128.156 149.34 127.869 149.385 127.537 149.385ZM127.924 148.266C128.514 148.266 128.93 148.096 129.172 147.756C129.414 147.417 129.539 146.907 129.547 146.227V146.045C129.547 145.319 129.43 144.762 129.195 144.375C128.961 143.985 128.533 143.79 127.912 143.79C127.416 143.79 127.037 143.991 126.775 144.393C126.518 144.792 126.389 145.348 126.389 146.063C126.389 146.778 126.518 147.325 126.775 147.704C127.037 148.079 127.42 148.266 127.924 148.266ZM135.014 149.385C134.24 149.385 133.619 149.104 133.15 148.542C132.686 147.975 132.453 147.141 132.453 146.04C132.453 144.926 132.689 144.084 133.162 143.514C133.639 142.944 134.266 142.659 135.043 142.659C135.371 142.659 135.658 142.704 135.904 142.793C136.15 142.879 136.361 142.997 136.537 143.145C136.717 143.293 136.869 143.459 136.994 143.643H137.059C137.039 143.522 137.016 143.348 136.988 143.122C136.965 142.891 136.953 142.678 136.953 142.483V140.151H138.336V149.268H137.258L137.012 148.383H136.953C136.836 148.571 136.688 148.741 136.508 148.893C136.332 149.042 136.121 149.161 135.875 149.25C135.633 149.34 135.346 149.385 135.014 149.385ZM135.4 148.266C135.99 148.266 136.406 148.096 136.648 147.756C136.891 147.417 137.016 146.907 137.023 146.227V146.045C137.023 145.319 136.906 144.762 136.672 144.375C136.438 143.985 136.01 143.79 135.389 143.79C134.893 143.79 134.514 143.991 134.252 144.393C133.994 144.792 133.865 145.348 133.865 146.063C133.865 146.778 133.994 147.325 134.252 147.704C134.514 148.079 134.896 148.266 135.4 148.266ZM145.971 142.659C146.791 142.659 147.41 142.84 147.828 143.204C148.25 143.567 148.461 144.133 148.461 144.903V149.268H147.482L147.219 148.348H147.172C146.988 148.583 146.799 148.776 146.604 148.928C146.408 149.081 146.182 149.194 145.924 149.268C145.67 149.346 145.359 149.385 144.992 149.385C144.605 149.385 144.26 149.315 143.955 149.174C143.65 149.03 143.41 148.811 143.234 148.518C143.059 148.225 142.971 147.854 142.971 147.405C142.971 146.737 143.219 146.235 143.715 145.899C144.215 145.563 144.969 145.377 145.977 145.342L147.102 145.301V144.961C147.102 144.512 146.996 144.192 146.785 144C146.578 143.809 146.285 143.713 145.906 143.713C145.582 143.713 145.268 143.76 144.963 143.854C144.658 143.948 144.361 144.063 144.072 144.2L143.627 143.227C143.943 143.059 144.303 142.922 144.705 142.817C145.111 142.711 145.533 142.659 145.971 142.659ZM147.096 146.168L146.258 146.198C145.57 146.221 145.088 146.338 144.811 146.549C144.533 146.76 144.395 147.049 144.395 147.417C144.395 147.737 144.49 147.971 144.682 148.12C144.873 148.264 145.125 148.336 145.438 148.336C145.914 148.336 146.309 148.202 146.621 147.932C146.938 147.659 147.096 147.258 147.096 146.731V146.168ZM153.717 142.659C154.486 142.659 155.104 142.94 155.568 143.502C156.037 144.065 156.271 144.901 156.271 146.01C156.271 146.745 156.162 147.364 155.943 147.868C155.729 148.368 155.426 148.747 155.035 149.004C154.648 149.258 154.197 149.385 153.682 149.385C153.354 149.385 153.068 149.342 152.826 149.256C152.584 149.17 152.377 149.059 152.205 148.922C152.033 148.782 151.889 148.629 151.771 148.465H151.689C151.709 148.622 151.727 148.795 151.742 148.987C151.762 149.174 151.771 149.346 151.771 149.502V152.145H150.389V142.782H151.514L151.707 143.678H151.771C151.893 143.495 152.039 143.325 152.211 143.168C152.387 143.012 152.598 142.889 152.844 142.799C153.094 142.706 153.385 142.659 153.717 142.659ZM153.348 143.784C152.969 143.784 152.664 143.86 152.434 144.012C152.207 144.161 152.041 144.385 151.936 144.686C151.834 144.987 151.779 145.364 151.771 145.817V146.01C151.771 146.491 151.82 146.899 151.918 147.235C152.02 147.567 152.186 147.821 152.416 147.997C152.65 148.168 152.967 148.254 153.365 148.254C153.701 148.254 153.979 148.163 154.197 147.979C154.42 147.795 154.586 147.534 154.695 147.194C154.805 146.854 154.859 146.454 154.859 145.993C154.859 145.293 154.734 144.75 154.484 144.364C154.238 143.977 153.859 143.784 153.348 143.784ZM161.193 142.659C161.963 142.659 162.58 142.94 163.045 143.502C163.514 144.065 163.748 144.901 163.748 146.01C163.748 146.745 163.639 147.364 163.42 147.868C163.205 148.368 162.902 148.747 162.512 149.004C162.125 149.258 161.674 149.385 161.158 149.385C160.83 149.385 160.545 149.342 160.303 149.256C160.061 149.17 159.854 149.059 159.682 148.922C159.51 148.782 159.365 148.629 159.248 148.465H159.166C159.186 148.622 159.203 148.795 159.219 148.987C159.238 149.174 159.248 149.346 159.248 149.502V152.145H157.865V142.782H158.99L159.184 143.678H159.248C159.369 143.495 159.516 143.325 159.688 143.168C159.863 143.012 160.074 142.889 160.32 142.799C160.57 142.706 160.861 142.659 161.193 142.659ZM160.824 143.784C160.445 143.784 160.141 143.86 159.91 144.012C159.684 144.161 159.518 144.385 159.412 144.686C159.311 144.987 159.256 145.364 159.248 145.817V146.01C159.248 146.491 159.297 146.899 159.395 147.235C159.496 147.567 159.662 147.821 159.893 147.997C160.127 148.168 160.443 148.254 160.842 148.254C161.178 148.254 161.455 148.163 161.674 147.979C161.896 147.795 162.062 147.534 162.172 147.194C162.281 146.854 162.336 146.454 162.336 145.993C162.336 145.293 162.211 144.75 161.961 144.364C161.715 143.977 161.336 143.784 160.824 143.784Z" fill="white"/>
</g>
<defs>
<filter id="filter0_d_39_13889" x="23.667" y="16.7043" width="231" height="183" filterUnits="userSpaceOnUse" color-interpolation-filters="sRGB">
<feFlood flood-opacity="0" result="BackgroundImageFix"/>
<feColorMatrix in="SourceAlpha" type="matrix" values="0 0 0 0 0 0 0 0 0 0 0 0 0 0 0 0 0 0 127 0" result="hardAlpha"/>
<feOffset dy="7"/>
<feGaussianBlur stdDeviation="7.5"/>
<feColorMatrix type="matrix" values="0 0 0 0 0.333333 0 0 0 0 0.333333 0 0 0 0 0.333333 0 0 0 0.1 0"/>
<feBlend mode="normal" in2="BackgroundImageFix" result="effect1_dropShadow_39_13889"/>
<feBlend mode="normal" in="SourceGraphic" in2="effect1_dropShadow_39_13889" result="shape"/>
</filter>
<linearGradient id="paint0_linear_39_13889" x1="89.9396" y1="134.487" x2="97.3693" y2="173.086" gradientUnits="userSpaceOnUse">
<stop stop-color="#FF8E3D"/>
<stop offset="1" stop-color="#FF6F3D"/>
</linearGradient>
<clipPath id="clip0_39_13889">
<rect width="145.067" height="17" fill="white" transform="translate(66.6338 48.8804)"/>
</clipPath>
</defs>
</svg>
