<svg width="2401" height="1854" viewBox="0 0 2401 1854" fill="none" xmlns="http://www.w3.org/2000/svg">
<path opacity="0.2" fill-rule="evenodd" clip-rule="evenodd" d="M990.064 3.87311L1899.94 168.476C1977.67 183.304 1991.44 234.715 1930.73 283.394L1225.06 880.884C1165.16 932.587 1054.47 962.248 979.734 946.618L69.8556 782.016C-7.86865 767.187 -21.6442 715.776 39.0632 667.097L744.739 69.6077C805.446 20.9283 916.142 -8.73249 990.064 3.87311Z" fill="#CCCCCC"/>
<path opacity="0.4" fill-rule="evenodd" clip-rule="evenodd" d="M1211.87 1153.67L648.874 1818.61C600.155 1875.05 551.711 1862.06 540.589 1789.59L385.488 932.238C371.516 859 399.464 754.695 447.428 701.075L1010.43 36.1349C1059.14 -20.3046 1107.59 -7.32427 1118.71 65.1497L1273.81 922.503C1284.93 994.977 1256.99 1099.28 1211.87 1153.67Z" fill="white"/>
<path opacity="0.4" fill-rule="evenodd" clip-rule="evenodd" d="M2041.36 377.575L2385.38 873.558C2414.42 916.281 2397.04 946.371 2346.55 940.819L1745 890.88C1693.49 887.097 1628.7 849.692 1601.42 807.98L1257.4 311.997C1228.36 269.274 1245.74 239.184 1296.23 244.736L1897.78 294.675C1948.27 300.227 2013.06 337.633 2041.36 377.575Z" fill="white"/>
</svg>
