<svg width="60" height="59" viewBox="0 0 60 59" fill="none" xmlns="http://www.w3.org/2000/svg">
<path d="M2.89181 22.6785C-0.297271 26.6792 -0.297271 32.31 2.89181 36.3107L17.6149 54.781C20.5698 58.4881 25.5883 59.936 30.1056 58.3848L52.0395 50.8531C56.5582 49.3015 59.577 45.0919 59.5525 40.3766L59.5239 38.3242C59.5239 35.862 58.2389 35.5171 57.539 35.1723C55.7893 34.8275 53.8676 35.5644 52.7821 37.2371C51.3933 38.946 49.4902 39.9999 47.3909 39.9999C43.1391 39.9999 39.6924 35.6771 39.6924 30.3448C39.6924 25.0124 43.1391 20.6896 47.3909 20.6896C49.5492 20.6896 51.5001 21.8035 52.898 23.598L52.9553 23.5904C54.3896 25.1723 55.9739 25.6729 57.539 25.1723C59.104 24.6718 59.4757 23.4482 59.4757 20.7946L59.4387 18.5138C59.4144 13.8468 56.4131 9.69947 51.9432 8.15646L30.1144 0.621161C25.5933 -0.939542 20.5654 0.506665 17.6063 4.21899L2.89181 22.6785Z" fill="#5EC0CF"/>
</svg>
