<svg width="736" height="420" viewBox="0 0 736 420" fill="none" xmlns="http://www.w3.org/2000/svg">
<path d="M167 123H568C571.866 123 575 126.134 575 130V390H160V130C160 126.134 163.134 123 167 123Z" fill="white" stroke="#9ADAF3" stroke-width="2"/>
<rect x="174" y="138" width="387" height="237" stroke="#D9F4FF" stroke-width="2"/>
<rect x="116.082" y="390.019" width="502.975" height="8.89873" rx="1" fill="white" stroke="#9ADAF3" stroke-width="2"/>
<path d="M617.643 399.101L613.137 403.606C610.324 406.419 606.509 408 602.531 408H132.609C128.63 408 124.815 406.419 122.002 403.606L117.496 399.101H617.643Z" fill="#9ADAF3" stroke="#9ADAF3" stroke-width="2"/>
<rect x="173" y="347" width="389" height="29" fill="#D9F4FF"/>
<rect x="216.5" y="358.5" width="327" height="5" rx="2.5" fill="white" stroke="#9ADAF3"/>
<rect x="216" y="358" width="29" height="6" rx="3" fill="#9ADAF3"/>
<circle cx="246" cy="361" r="5" fill="#9ADAF3"/>
<path d="M200 361L189 367L189 355L200 361Z" fill="white"/>
<path d="M286.777 310.69C286.777 310.69 273.417 319.78 268.037 319.17C267.447 319.14 266.887 318.9 266.457 318.5C262.947 314.88 260.127 308.52 260.127 308.52C260.127 308.52 261.797 306.21 266.957 312.35L270.227 309.35L263.487 302.54C263.487 302.54 267.297 299.52 273.767 303.37C273.547 302.9 269.377 293.82 272.517 281.46L256.787 266.28L270.747 254.12L271.867 253.18C271.867 253.18 272.747 254.05 274.117 255.43C275.487 256.81 277.387 258.48 279.447 260.28C284.367 264.61 290.327 269.27 292.927 269.27C297.627 269.12 286.777 310.69 286.777 310.69Z" fill="white"/>
<path d="M286.777 310.69C286.777 310.69 273.417 319.78 268.037 319.17C267.447 319.14 266.887 318.9 266.457 318.5C262.947 314.88 260.127 308.52 260.127 308.52C260.127 308.52 261.797 306.21 266.957 312.35L270.227 309.35L263.487 302.54C263.487 302.54 267.297 299.52 273.767 303.37C273.547 302.9 269.377 293.82 272.517 281.46L256.787 266.28L270.747 254.12L271.867 253.18C271.867 253.18 272.747 254.05 274.117 255.43C275.487 256.81 277.387 258.48 279.447 260.28C284.367 264.61 290.327 269.27 292.927 269.27C297.627 269.12 286.777 310.69 286.777 310.69Z" stroke="#333333" stroke-width="2" stroke-linecap="round" stroke-linejoin="round"/>
<path d="M270.277 309.36C271.017 307.15 272.217 305.11 273.797 303.39" stroke="#333333" stroke-width="2" stroke-linecap="round" stroke-linejoin="round"/>
<path d="M519.497 204.87C517.387 207.94 514.837 210.69 511.937 213.03C487.377 233.37 430.727 231.21 430.727 231.21C430.727 231.21 399.497 278.03 397.467 277.66L408.097 316.91L417 348C417 348 376.5 348 282.917 348C282.917 348 279.527 319.99 280.237 317.66C280.237 317.55 280.307 317.44 280.347 317.31C281.197 315.76 282.307 314.37 283.627 313.2C283.627 313.2 283.157 306.19 282.917 299.05C282.647 294.5 282.707 289.94 283.087 285.4C283.687 281.8 286.307 273.11 287.637 268.84L288.417 266.36L284.257 227.44L283.067 216.2L282.997 215.62C282.997 215.54 282.997 215.45 282.997 215.34L282.347 209.33L260.867 215.89C260.867 215.89 261.987 218.41 263.537 221.94C266.357 228.4 270.507 238.23 271.407 242.17C271.477 242.49 271.567 242.81 271.677 243.11C273.667 248.78 281.237 253.94 281.237 253.94L260.887 277.7L254.877 273.5C254.107 274.07 253.297 274.58 252.447 275.03C248.487 277.18 240.197 280.33 231.097 275.51C227.157 273.29 223.727 270.26 221.047 266.61C205.097 245.89 198.157 228.93 200.417 209.08C202.677 189.23 292.027 127.95 309.767 128.59L336.137 134.41C336.707 133.94 338.247 132.72 339.437 132.78C344.237 133.03 344.357 138.6 344.357 138.6L403.467 148.2C403.467 148.2 409.587 145.13 410.657 145.18C412.227 145.29 413.637 146.18 414.397 147.55C414.397 147.55 429.697 138.38 434.627 140.52C450.827 147.5 531.457 186.68 519.497 204.87Z" fill="url(#paint0_linear_233_738)" stroke="#333333" stroke-width="2" stroke-miterlimit="10" stroke-linecap="round" stroke-linejoin="round"/>
<path d="M457.027 208.81C484.157 226.72 506.017 223.42 523.137 200.36C523.137 200.36 537.387 181.99 536.377 162.15C535.367 142.32 530.637 77.7099 468.887 94.2199C458.717 96.9399 434.997 128.71 433.007 137.44C432.087 141.43 422.567 161.73 413.317 182.76" fill="url(#paint1_linear_233_738)"/>
<path d="M457.027 208.81C484.157 226.72 506.017 223.42 523.137 200.36C523.137 200.36 537.387 181.99 536.377 162.15C535.367 142.32 530.637 77.7099 468.887 94.2199C458.717 96.9399 434.997 128.71 433.007 137.44C432.087 141.43 422.567 161.73 413.317 182.76" stroke="#333333" stroke-width="2" stroke-miterlimit="10" stroke-linecap="round" stroke-linejoin="round"/>
<path d="M382.127 18.9899C382.127 18.9899 399.937 16.3699 412.307 27.1099C427.957 40.6999 445.527 77.3299 420.507 138.03C420.507 138.03 380.857 122.13 317.787 138.06C317.787 138.06 325.907 115.92 316.377 71.0999C312.067 50.8199 322.907 4.09994 382.127 18.9899Z" fill="#333333"/>
<path d="M357.447 171.31C383.017 175.46 410.197 147.14 410.197 147.14C410.197 147.14 396.297 145.43 395.047 138.9C391.057 118.3 407.107 92.8301 407.107 92.8301C407.107 92.8301 345.017 94.5501 355.867 108.56C357.887 111.12 359.537 113.96 360.777 116.98C364.537 126.23 361.897 133.21 359.937 134.96C359.797 135.08 359.637 135.18 359.477 135.26C355.727 136.97 340.297 134.42 340.297 134.42C340.297 134.42 334.107 167.53 357.447 171.31Z" fill="white" stroke="#333333" stroke-width="2" stroke-linecap="round" stroke-linejoin="round"/>
<path d="M408.207 80.04C412.827 54.07 407.687 22.91 368.157 25.5C339.917 27.34 340.157 58.3 342.017 67.55C345.167 83.09 340.657 89.2 345.497 102.26C348.977 111.64 357.057 122.14 366.577 126.07C372.427 128.49 396.127 111.86 397.887 104.25" fill="white"/>
<path d="M408.207 80.04C412.827 54.07 407.687 22.91 368.157 25.5C339.917 27.34 340.157 58.3 342.017 67.55C345.167 83.09 340.657 89.2 345.497 102.26C348.977 111.64 357.057 122.14 366.577 126.07C372.427 128.49 396.127 111.86 397.887 104.25" stroke="#333333" stroke-width="2" stroke-linecap="round" stroke-linejoin="round"/>
<path d="M357.387 103.8C364.317 102.95 370.967 100.8 376.887 97.48C376.957 98.58 376.857 99.69 376.637 100.77C376.247 102.77 375.637 103.32 374.017 104.42C371.047 106.44 367.637 107.73 364.107 108.33C361.737 108.74 359.687 105.6 358.867 103.6" stroke="#333333" stroke-width="2" stroke-linecap="round" stroke-linejoin="round"/>
<path d="M383.037 35.38C383.037 35.38 380.547 66.16 407.697 77.34L420.427 47.75L401.167 26.4L372.167 18.02C328.827 20.73 310.177 47.65 334.227 119.4C334.237 119.43 327.497 33.99 383.037 35.38Z" fill="#333333"/>
<path d="M401.747 78.6399C401.367 75.1799 410.117 66.3699 413.077 72.0199C418.127 81.6599 414.447 89.9999 409.237 93.3699C406.897 94.8399 403.937 97.6099 401.857 94.9999" fill="white"/>
<path d="M401.747 78.6399C401.367 75.1799 410.117 66.3699 413.077 72.0199C418.127 81.6599 414.447 89.9999 409.237 93.3699C406.897 94.8399 403.937 97.6099 401.857 94.9999" stroke="#333333" stroke-width="2" stroke-linecap="round" stroke-linejoin="round"/>
<path d="M500.077 192.7C499.447 192.83 498.817 192.95 498.167 193.04C481.177 195.47 462.117 181.38 455.687 164.46C450.607 151.1 455.047 135.94 457.477 129.46C458.237 127.43 458.787 126.25 458.787 126.25C469.037 111.64 528.617 140.24 529.307 156.02C529.997 171.8 517.487 188.88 500.077 192.7Z" fill="#333333"/>
<path d="M459.037 132.28L455.287 143.06C455.287 143.06 447.157 169.44 477.417 187.81C485.317 192.61 514.297 163.48 514.297 163.48L459.037 132.28Z" fill="#D3D3D3" stroke="#333333" stroke-width="2" stroke-miterlimit="10"/>
<path d="M448.457 171.35C448.457 171.35 467.807 199.13 490.407 201.44C513.007 203.75 527.487 184.72 528.377 170.37" stroke="#333333" stroke-width="2" stroke-linecap="round" stroke-linejoin="round"/>
<path d="M437.577 46C439.277 41.25 451.477 42.84 455.357 57.68C459.237 72.51 474.457 108.57 474.457 108.57C474.457 108.57 535.137 19.34 545.967 15.9C556.797 12.46 552.537 27.92 538.007 49.37C538.007 49.37 551.617 46.98 555.187 49.37C558.757 51.76 557.017 66.23 558.917 71.24C562.107 79.7 555.017 81.49 555.017 81.49C558.497 81.57 561.837 82.84 564.487 85.1C568.387 88.75 566.427 103.84 567.547 108.11C568.667 112.38 561.217 115.98 561.217 115.98C561.217 115.98 579.097 125.72 575.057 128.17C568.247 132.28 564.367 128.07 564.367 128.07C564.367 128.07 536.897 162.57 516.177 170.25C495.457 177.93 455.127 147.39 450.787 130.76C446.447 114.13 451.627 115.15 448.337 87.48C445.057 59.8 437.577 46 437.577 46Z" fill="white" stroke="#333333" stroke-width="2" stroke-linecap="round" stroke-linejoin="round"/>
<path d="M430.727 231.21C430.727 231.21 417.087 204.98 423.987 173.18" stroke="#333333" stroke-width="2" stroke-linecap="round" stroke-linejoin="round"/>
<path d="M282.307 209.39C282.307 209.39 282.177 164.85 291.017 151.07" stroke="#333333" stroke-width="2" stroke-linecap="round" stroke-linejoin="round"/>
<path d="M272.437 244.85C272.437 244.85 253.467 255.54 252.487 261.65" stroke="#333333" stroke-width="2" stroke-linecap="round" stroke-linejoin="round"/>
<path d="M303.417 215.29C303.417 215.29 339.727 270.16 359.757 265.13" stroke="#333333" stroke-width="2" stroke-linecap="round" stroke-linejoin="round"/>
<path d="M345.947 73.2C346.087 72.47 346.337 71.66 347.537 71.38C348.237 71.21 349.187 71.28 349.977 71.54C350.767 71.8 351.357 72.25 351.507 72.7" stroke="#333333" stroke-width="3" stroke-linecap="round" stroke-linejoin="round"/>
<path d="M352.037 74.54C352.367 75.32 352.697 76.15 352.547 76.98C352.397 77.81 351.537 78.56 350.747 78.27C350.027 78.01 349.797 77.13 349.717 76.37C349.627 75.54 349.597 74.7 349.627 73.86C349.657 73.17 349.827 72.34 350.487 72.14C350.957 71.99 351.477 72.28 351.757 72.68C352.037 73.08 352.137 73.58 352.227 74.07C352.337 74.67 352.447 75.32 352.197 75.87C351.947 76.43 351.167 76.78 350.697 76.39C350.377 76.13 350.337 75.65 350.477 75.26C350.617 74.87 350.907 74.57 351.187 74.27" stroke="#333333" stroke-width="3" stroke-linecap="round" stroke-linejoin="round"/>
<path d="M366.547 70.75C366.677 69.37 366.897 67.85 368.187 66.96C369.587 65.99 371.837 66.1501 373.487 66.9101C375.147 67.6801 376.347 68.93 377.507 70.15" stroke="#333333" stroke-width="3" stroke-linecap="round" stroke-linejoin="round"/>
<path d="M371.017 69.1401C371.607 70.5501 372.197 71.9601 372.777 73.3701C373.427 72.9001 374.077 72.4301 374.547 71.8101C375.017 71.1901 375.297 70.4101 375.097 69.6801C374.897 68.9401 374.117 68.3101 373.297 68.3801C372.667 68.4301 372.137 68.8501 371.847 69.3701C371.557 69.8801 371.477 70.4701 371.437 71.0401C371.387 71.7301 371.387 72.4501 371.697 73.0801C372.007 73.7101 372.707 74.2401 373.457 74.2101C374.447 74.1601 375.097 73.1701 375.057 72.2701C375.017 71.3701 374.477 70.5501 373.947 69.7801" stroke="#333333" stroke-width="3" stroke-linecap="round" stroke-linejoin="round"/>
<path d="M359.357 81.8401C359.207 83.4101 357.937 87.2601 356.927 88.2301C356.547 88.5901 356.117 88.8901 355.787 89.3201C355.457 89.7501 355.217 90.3601 355.337 90.9401C355.457 91.4801 355.867 91.8601 356.297 92.0001C356.727 92.1501 357.187 92.1001 357.637 92.0301C359.817 91.7201 361.967 91.1201 364.037 90.2301C364.507 90.0301 364.977 89.8101 365.347 89.4101" stroke="#333333" stroke-width="2" stroke-linecap="round" stroke-linejoin="round"/>
<rect x="444.186" y="23.7013" width="94" height="158" rx="5" transform="rotate(-11.9824 444.186 23.7013)" fill="#D9D9D9" stroke="#333333" stroke-width="2"/>
<rect x="452.694" y="30.0736" width="80" height="139" rx="5" transform="rotate(-11.9824 452.694 30.0736)" fill="white" stroke="#AAAAAA" stroke-width="2"/>
<path fill-rule="evenodd" clip-rule="evenodd" d="M507.671 103.491L494.477 100.399C493.351 100.123 493.189 99.3625 494.116 98.6981L497.875 95.8424L506.43 97.8618C507.557 98.1372 509.201 97.7882 510.074 97.0885L517.071 91.7683L521.666 92.851C522.793 93.1263 522.954 93.8871 522.027 94.5516L511.226 102.737C510.388 103.382 508.744 103.731 507.671 103.491Z" fill="#FF6F3D"/>
<path fill-rule="evenodd" clip-rule="evenodd" d="M506.152 96.5217L492.992 93.4148C491.869 93.1382 491.707 92.3765 492.631 91.7122L496.298 88.9206L504.973 90.9658C506.096 91.2424 507.735 90.8946 508.605 90.1949L515.701 84.8025L520.186 85.8641C521.309 86.1407 521.471 86.9024 520.547 87.5667L509.784 95.7507C508.87 96.4598 507.231 96.8077 506.152 96.5217Z" fill="#95C038"/>
<path fill-rule="evenodd" clip-rule="evenodd" d="M504.686 89.6161L491.544 86.5905C490.422 86.3209 490.263 85.5702 491.188 84.9124L501.968 76.8096C502.884 76.1076 504.523 75.7597 505.601 76.0386L518.743 79.0643C519.865 79.3338 520.024 80.0845 519.099 80.7424L508.319 88.8451C507.394 89.503 505.754 89.8509 504.686 89.6161Z" fill="#5DC0E8"/>
<path d="M727 165H684C682.895 165 682 165.895 682 167V194.765C682 195.869 682.895 196.765 684 196.765H688.533V201.325C688.533 202.782 690.042 203.749 691.366 203.143L705.083 196.855L705.281 196.765H727C728.105 196.765 729 195.869 729 194.765V167C729 165.895 728.105 165 727 165Z" stroke="#9ADAF3" stroke-width="2"/>
<path d="M27 37H101C102.105 37 103 37.8954 103 39V87.667C103 88.7714 102.104 89.667 101 89.667H92.333V99.3408C92.333 100.795 90.83 101.764 89.5059 101.162L64.4141 89.7559L64.2168 89.667H27C25.8955 89.667 25.0002 88.7714 25 87.667V39C25 37.8954 25.8954 37 27 37Z" stroke="#9ADAF3" stroke-width="2"/>
<circle cx="45.3333" cy="62.6666" r="4.33333" stroke="#9ADAF3" stroke-width="2"/>
<circle cx="64.0001" cy="62.6666" r="4.33333" stroke="#9ADAF3" stroke-width="2"/>
<circle cx="82.6666" cy="62.6666" r="4.33333" stroke="#9ADAF3" stroke-width="2"/>
<path d="M663.896 271.027C663.094 266.983 659.115 264.338 655.029 265.145C651.866 265.762 649.446 268.311 649.002 271.478C648.415 267.386 644.605 264.54 640.471 265.121C637.259 265.572 634.683 268.003 634.096 271.17C633.737 273.732 634.396 276.341 635.917 278.44C637.427 280.527 639.213 282.413 641.214 284.05C643.97 286.363 646.474 288.687 649.182 291C651.866 288.592 654.155 286.363 656.851 283.908C658.84 282.271 660.613 280.385 662.123 278.298C663.633 276.175 664.268 273.577 663.896 271.027Z" stroke="#9ADAF3" stroke-width="2" stroke-miterlimit="10" stroke-linecap="round" stroke-linejoin="round"/>
<path d="M91 216H101V233H91C89.8954 233 89 232.105 89 231V218C89 216.895 89.8954 216 91 216Z" stroke="#9ADAF3" stroke-width="2"/>
<mask id="path-49-inside-1_233_738" fill="white">
<path fill-rule="evenodd" clip-rule="evenodd" d="M107.235 206C105.602 206 104.138 207.006 103.551 208.53L100.958 215.273H100.364V216.818V233.818H118C120.209 233.818 122 232.027 122 229.818V219.273C122 217.064 120.209 215.273 118 215.273H111.182V209.947C111.182 207.767 109.415 206 107.235 206Z"/>
</mask>
<path d="M103.551 208.53L101.685 207.812L103.551 208.53ZM100.958 215.273V217.273H102.332L102.825 215.991L100.958 215.273ZM100.364 215.273V213.273H98.3635V215.273H100.364ZM100.364 233.818H98.3635V235.818H100.364V233.818ZM111.182 215.273H109.182V217.273H111.182V215.273ZM105.418 209.248C105.707 208.496 106.429 208 107.235 208V204C104.774 204 102.568 205.515 101.685 207.812L105.418 209.248ZM102.825 215.991L105.418 209.248L101.685 207.812L99.0912 214.555L102.825 215.991ZM100.364 217.273H100.958V213.273H100.364V217.273ZM102.364 216.818V215.273H98.3635V216.818H102.364ZM102.364 233.818V216.818H98.3635V233.818H102.364ZM118 231.818H100.364V235.818H118V231.818ZM120 229.818C120 230.923 119.104 231.818 118 231.818V235.818C121.314 235.818 124 233.132 124 229.818H120ZM120 219.273V229.818H124V219.273H120ZM118 217.273C119.104 217.273 120 218.168 120 219.273H124C124 215.959 121.314 213.273 118 213.273V217.273ZM111.182 217.273H118V213.273H111.182V217.273ZM109.182 209.947V215.273H113.182V209.947H109.182ZM107.235 208C108.31 208 109.182 208.872 109.182 209.947H113.182C113.182 206.662 110.519 204 107.235 204V208Z" fill="#9ADAF3" mask="url(#path-49-inside-1_233_738)"/>
<defs>
<linearGradient id="paint0_linear_233_738" x1="199.997" y1="235.586" x2="520.699" y2="235.586" gradientUnits="userSpaceOnUse">
<stop stop-color="#FFA363"/>
<stop offset="0.9127" stop-color="#FF7743"/>
</linearGradient>
<linearGradient id="paint1_linear_233_738" x1="413.317" y1="155.909" x2="536.422" y2="155.909" gradientUnits="userSpaceOnUse">
<stop stop-color="#FF814A"/>
<stop offset="0.9127" stop-color="#FF7743"/>
</linearGradient>
</defs>
</svg>
