<svg width="139" height="44" viewBox="0 0 139 44" fill="none" xmlns="http://www.w3.org/2000/svg">
<path d="M23.3646 0C23.3102 0 0.0438105 8.82842 0.0120857 8.86203C0 8.87273 -0.00302141 14.8256 0.00302141 22.0894L0.0151071 35.2953L2.91566 34.1479C4.51097 33.5168 6.29058 32.8124 6.86767 32.5817L7.91913 32.1646V21.414C7.91913 13.999 7.93423 10.6543 7.97049 10.6329C8.05811 10.5779 23.3132 6.90169 23.3525 6.92461C23.4009 6.95517 23.4009 38.5147 23.3525 38.5437C23.3329 38.556 18.1285 37.8424 11.7865 36.9593C5.4461 36.0746 0.241713 35.3565 0.223585 35.3626C0.203945 35.3702 5.37056 37.3137 11.705 39.6851C18.0378 42.0549 23.274 43.9969 23.3404 44C23.4069 44.0015 26.3498 43.1963 29.8788 42.2093L36.2962 40.4139L36.2842 22.0833L36.2721 3.75261L29.8425 1.87631C26.3075 0.844949 23.3918 0 23.3646 0ZM85.1948 6.92308C84.0331 6.92308 83.3064 7.07893 82.4347 7.51287C81.0917 8.1821 80.0373 9.44112 79.5614 10.94C79.2819 11.8262 79.2638 12.0172 79.2396 14.2893L79.2169 16.3795H76.0339V18.922H79.2245V35.2526H82.1734V18.922H89.4731V35.2526H92.422V18.922H96.8212V16.3795H92.422V14.7538C92.4251 12.4817 92.5112 11.811 92.913 10.9599C93.2711 10.2051 93.9403 9.68559 94.7908 9.50377C95.5356 9.34639 96.643 9.47626 97.3062 9.79866L97.5479 9.91631V7.19964L97.2684 7.12324C96.7472 6.97503 96.2653 6.92308 95.4435 6.92461C94.2817 6.92461 93.5551 7.0774 92.6834 7.51287C91.3404 8.1821 90.2859 9.44112 89.81 10.94C89.5305 11.8262 89.5124 12.0172 89.4882 14.2893L89.4656 16.3795H82.1734V14.7538C82.1764 12.4817 82.2625 11.811 82.6644 10.9599C83.0224 10.2051 83.6917 9.68559 84.5422 9.50377C85.287 9.34639 86.3943 9.47626 87.0575 9.79866L87.2992 9.91631V7.19964L87.0198 7.12324C86.4986 6.97503 86.0166 6.92308 85.1948 6.92461V6.92308ZM101.075 7.68705C100.35 7.70997 99.7384 8.09654 99.4136 8.75355C99.0359 9.51752 99.1764 10.4618 99.752 11.0271C100.015 11.2776 100.339 11.4527 100.692 11.5344C102.284 11.8507 103.523 10.4037 102.962 8.88648C102.739 8.28447 102.062 7.77109 101.393 7.69927C101.287 7.68705 101.18 7.68399 101.075 7.68705ZM62.2381 8.37462C61.0488 8.36104 59.862 8.49081 58.7031 8.76119C56.9058 9.17972 55.2315 10.0209 53.8159 11.2166C51.6058 13.0944 50.1177 16.0464 49.6192 19.5576C49.3457 21.495 49.4001 23.9428 49.7597 25.7457C50.3398 28.6488 51.7886 31.2555 53.7449 32.9148C55.0505 34.0074 56.5729 34.8036 58.2091 35.2495C58.9668 35.4402 59.7381 35.571 60.5159 35.6407C61.241 35.7002 62.7518 35.6636 63.5071 35.5688C67.0724 35.1212 69.976 33.3426 71.8402 30.4609C72.335 29.6463 72.7596 28.79 73.1092 27.9017C73.5324 26.6873 73.8271 25.4309 73.9884 24.1536C74.0594 23.6219 74.076 23.1544 74.076 21.7578C74.076 19.8907 74.0382 19.4231 73.7784 18.1672C72.7496 13.1754 69.4669 9.6642 64.8909 8.65729C64.0183 8.4733 63.1295 8.37911 62.2381 8.37615V8.37462ZM61.8287 11.1463C62.5674 11.1402 63.3228 11.2074 64.0207 11.3495C67.3594 12.0233 69.7373 14.5979 70.5712 18.4391C71.0788 20.7861 71.0516 23.764 70.5017 25.9306C69.4668 29.9995 66.8035 32.4137 62.8605 32.8552C62.2683 32.9225 60.9797 32.9087 60.4192 32.8323C56.0714 32.2257 53.1512 28.6947 52.6829 23.4752C52.6074 22.6333 52.6481 20.7005 52.7554 19.9976C53.0757 17.9242 53.7071 16.2756 54.7631 14.7538C55.1665 14.1731 56.1575 13.1708 56.7452 12.7506C57.652 12.1159 58.6657 11.6535 59.7364 11.3862C60.3679 11.2334 61.09 11.1524 61.8287 11.1463ZM115.491 15.9517C115.181 15.9471 114.868 15.9578 114.554 15.9807C112.56 16.1243 111.137 16.5858 109.724 17.5453C107.488 19.0656 106.086 21.5515 105.736 24.6242C105.627 25.5807 105.662 27.4662 105.804 28.2607C106.171 30.3051 107.058 32.0393 108.393 33.3304C109.837 34.7254 111.471 35.4283 113.814 35.6636C114.182 35.7002 115.652 35.6422 116.149 35.5704C117.167 35.4364 118.156 35.1273 119.071 34.6567L119.639 34.3648V31.4908L119.16 31.8071C118.341 32.3546 117.43 32.7465 116.472 32.9637C115.827 33.1043 114.643 33.1364 113.939 33.0309C112.629 32.8354 111.593 32.3357 110.702 31.4663C109.49 30.2868 108.863 28.7955 108.712 26.7297C108.593 25.1178 108.901 23.327 109.504 22.1154C109.969 21.1833 110.896 20.0878 111.664 19.5713C112.788 18.812 113.986 18.4911 115.481 18.5476C116.8 18.5823 118.084 18.9789 119.196 19.6951C119.417 19.8341 119.607 19.9487 119.619 19.9487C119.63 19.9487 119.639 19.2581 119.639 18.4147V16.8791L119.24 16.708C118.125 16.2252 116.834 15.9669 115.491 15.9517ZM130.232 15.9517C128.295 15.9685 126.428 16.6911 124.975 17.9869C123.324 19.4338 122.141 21.8953 121.866 24.4577C121.79 25.1712 121.802 26.9543 121.89 27.7229C122.171 30.1645 122.984 32.0393 124.375 33.445C125.123 34.2276 126.045 34.8184 127.064 35.1685C127.833 35.439 128.374 35.5475 129.527 35.6636C129.916 35.7033 131.581 35.6422 132.164 35.5673C133.823 35.3534 135.306 34.837 136.426 34.0791L136.752 33.8591V31.0538L136.136 31.474C134.535 32.568 132.838 33.1012 130.959 33.1012C129.181 33.1012 127.771 32.597 126.729 31.5886C125.611 30.5068 125.046 29.095 124.883 26.9773L124.849 26.5494H138.073L138.042 25.1437C138.027 24.3431 137.982 23.4752 137.937 23.1269C137.659 20.8915 136.932 19.2413 135.668 17.967C134.444 16.734 133.074 16.1396 131.086 15.9807C130.799 15.9578 130.513 15.9486 130.232 15.9517ZM99.6251 16.3795V35.2526H102.574V16.3795H101.1H99.6251ZM130.305 18.5385C130.403 18.5385 130.501 18.5415 130.602 18.5461C131.826 18.598 132.673 18.9281 133.427 19.6462C134.362 20.5385 134.852 21.77 134.991 23.5791L135.024 24.0069H124.904L124.935 23.8236C125.182 22.3797 125.786 21.1008 126.667 20.1596C127.702 19.0518 128.842 18.5415 130.305 18.54V18.5385Z" fill="#FF3D00"/>
</svg>
