<svg width="80" height="40" viewBox="0 0 80 40" fill="none" xmlns="http://www.w3.org/2000/svg">
  <path d="M40 8L46.5 14.5H33.5L40 8Z" fill="#FF9D28"/>
  <path d="M46.5 14.5L53 21H40L46.5 14.5Z" fill="#68C5ED"/>
  <path d="M33.5 14.5L40 21H27L33.5 14.5Z" fill="#044D80"/>
  <path d="M40 21L46.5 27.5H33.5L40 21Z" fill="#FF9D28"/>
  <path d="M46.5 27.5L53 34H40L46.5 27.5Z" fill="#68C5ED"/>
  <path d="M33.5 27.5L40 34H27L33.5 27.5Z" fill="#044D80"/>
  <path d="M14 20C14 13.4 19.4 8 26 8H20C13.4 8 8 13.4 8 20C8 26.6 13.4 32 20 32H26C19.4 32 14 26.6 14 20Z" fill="#044D80"/>
  <path d="M66 20C66 26.6 60.6 32 54 32H60C66.6 32 72 26.6 72 20C72 13.4 66.6 8 60 8H54C60.6 8 66 13.4 66 20Z" fill="#044D80"/>
</svg>
