<svg width="448" height="254" viewBox="0 0 448 254" fill="none" xmlns="http://www.w3.org/2000/svg">
<path d="M222.431 253.553C332.682 253.553 422.059 251.414 422.059 248.776C422.059 246.138 332.682 244 222.431 244C112.18 244 22.8032 246.138 22.8032 248.776C22.8032 251.414 112.18 253.553 222.431 253.553Z" fill="#EFEFEF"/>
<path fill-rule="evenodd" clip-rule="evenodd" d="M295.28 72.465L272.497 95.232C270.614 97.1146 270.279 100.066 271.763 102.316L276.517 109.735C278.576 112.941 278.719 116.978 277.267 120.488C275.815 124.014 272.848 126.742 269.131 127.556L260.515 129.422C257.899 129.997 256.032 132.294 256.032 134.975L256 167.171C256 169.851 257.851 172.164 260.467 172.723L269.083 174.589C272.8 175.403 275.752 178.147 277.203 181.657C278.655 185.167 278.496 189.204 276.438 192.411L271.667 199.829C270.215 202.079 270.535 205.031 272.417 206.913L295.168 229.68C297.051 231.563 300.002 231.898 302.252 230.446L309.671 225.676C312.878 223.618 316.914 223.474 320.424 224.926C323.934 226.394 326.678 229.345 327.476 233.063L329.343 241.678C329.917 244.279 332.214 246.145 334.895 246.145H367.059C369.723 246.145 372.037 244.294 372.611 241.678L374.494 233.063C375.307 229.345 378.052 226.378 381.562 224.926C385.072 223.474 389.108 223.618 392.315 225.676L399.718 230.446C401.967 231.882 404.919 231.563 406.801 229.68L429.584 206.913C431.467 205.031 431.786 202.079 430.35 199.829L425.596 192.411C423.538 189.204 423.378 185.167 424.846 181.657C426.298 178.131 429.265 175.403 432.983 174.589L441.598 172.723C444.215 172.148 446.081 169.835 446.081 167.171L446.097 134.975C446.097 132.294 444.247 129.997 441.63 129.422L433.031 127.556C429.313 126.742 426.362 123.998 424.91 120.488C423.458 116.978 423.617 112.941 425.676 109.735L430.446 102.316C431.898 100.066 431.579 97.1146 429.696 95.232L406.945 72.465C405.062 70.5664 402.111 70.2473 399.861 71.6992L392.442 76.4696C389.236 78.5277 385.199 78.6713 381.689 77.2194C378.179 75.7676 375.435 72.8 374.637 69.0827L372.771 60.4672C372.196 57.8667 369.899 56 367.218 56H335.022C332.358 56 330.045 57.8507 329.47 60.4672L327.588 69.0827C326.774 72.8 324.03 75.7676 320.52 77.2194C317.01 78.6713 312.973 78.5277 309.766 76.4696L302.364 71.6992C300.13 70.2633 297.178 70.5824 295.28 72.465ZM351.049 191.265C372.642 191.265 390.146 173.761 390.146 152.168C390.146 130.575 372.642 113.071 351.049 113.071C329.456 113.071 311.952 130.575 311.952 152.168C311.952 173.761 329.456 191.265 351.049 191.265Z" fill="#EFEFEF"/>
<path d="M307.495 16.4962V188.5H6.5V16.4962C6.5 12.5941 9.59981 9.5 13.5052 9.5H300.495C304.315 9.5 307.358 12.4541 307.495 16.23V16.4962Z" fill="#AAAAAA" stroke="#333333"/>
<path d="M12.5 182.5V15.5H301.5V182.5H12.5Z" fill="white" stroke="#333333"/>
<path d="M30.7972 23.452C29.6512 22.3117 28.5578 21.2254 28.232 20C27.9068 21.2254 26.8128 22.3117 25.6673 23.452C23.9489 25.1607 22 27.0977 22 30.0031C22 33.4281 24.7905 36.2047 28.2326 36.2047C31.6747 36.2047 34.4652 33.4281 34.4652 30.0031C34.4646 27.0983 32.5163 25.1607 30.7972 23.452ZM24.649 31.448C24.2666 31.4354 22.8566 29.0162 25.4727 26.4407L27.2044 28.3225C27.2627 28.3794 27.2633 28.4731 27.2056 28.5306C27.2015 28.5346 27.1975 28.5386 27.1929 28.542C26.7799 28.9639 25.0187 30.721 24.7998 31.3285C24.7547 31.4543 24.6888 31.4492 24.649 31.448ZM28.2326 34.6362C27.049 34.6362 26.089 33.6815 26.089 32.5033C26.089 31.963 26.305 31.4819 26.6233 31.0945C27.0097 30.6244 28.232 29.3019 28.232 29.3019C28.232 29.3019 29.4358 30.6439 29.8378 31.0905C30.1884 31.4779 30.3802 31.9825 30.3756 32.5039C30.3762 33.681 29.4161 34.6362 28.2326 34.6362ZM32.3349 31.1773C32.2887 31.2779 32.1841 31.4457 32.0426 31.4509C31.7908 31.4601 31.7636 31.3313 31.577 31.0572C31.1681 30.4548 27.5972 26.7419 26.9295 26.0235C26.3426 25.3918 26.8469 24.9464 27.0814 24.713C27.3748 24.4205 28.2326 23.5675 28.2326 23.5675C28.2326 23.5675 30.7892 25.9809 31.8537 27.6299C32.9183 29.2789 32.5515 30.7066 32.3349 31.1773Z" fill="#009CDE"/>
<path d="M52.8474 26.4658H51.5521L51.5542 28.8893C51.5542 29.5976 51.2506 30.1706 50.5423 30.1706C49.8338 30.1706 49.5274 29.5976 49.5274 28.8893V26.4682H48.2355L48.2351 28.8893C48.2351 30.2889 49.1347 31.4232 50.5345 31.4232C51.9339 31.4232 52.847 30.2889 52.847 28.8893L52.8474 26.4658Z" fill="#009CDE"/>
<path d="M65.8157 24.9893H64.5269V31.2983H65.8157V24.9893Z" fill="#009CDE"/>
<path d="M66.7673 25.1085V24.9951H67.2696V25.1084H67.0859V25.6079H66.9511V25.1085H66.7673Z" fill="#009CDE"/>
<path d="M67.5297 24.9951L67.6731 25.4165H67.6748L67.8103 24.9951H68.0001V25.6079H67.8739V25.1736H67.8722L67.722 25.6079H67.6181L67.4679 25.1779H67.4663V25.6079H67.3401V24.9951H67.5297Z" fill="#009CDE"/>
<path d="M47.1818 26.4131C46.0707 26.1567 45.3699 27.2604 45.3408 27.3196C45.3264 27.3486 45.3259 27.3656 45.2767 27.3643C45.236 27.3634 45.2313 27.3196 45.2313 27.3196L45.0935 26.4753H43.939V31.2939H45.2332V28.6857C45.2332 28.4726 45.8072 27.4506 46.9192 27.7137C47.4816 27.8467 47.7201 28.0854 47.7201 28.0854C47.7201 28.0854 47.7201 27.1553 47.7201 26.6175C47.512 26.5089 47.3692 26.4563 47.1818 26.4131Z" fill="#009CDE"/>
<path d="M54.6037 32.881V31.1472C54.6038 31.1472 54.604 31.1474 54.6041 31.1475L54.6043 30.4982C54.6043 30.4982 54.6063 30.4463 54.6531 30.4456C54.6949 30.4452 54.7042 30.4728 54.7144 30.4982C54.8125 30.7424 55.3522 31.6727 56.5499 31.3809C57.622 31.0789 58.4084 30.0944 58.4084 28.9251C58.4084 27.5165 57.2661 26.374 55.8571 26.374C54.4481 26.374 53.3059 27.5165 53.3059 28.9251C53.3059 28.9251 53.3059 32.4126 53.3059 32.881L54.6037 32.881ZM55.8582 27.6341C56.5715 27.6341 57.1497 28.2124 57.1497 28.9252C57.1497 29.6386 56.5715 30.2169 55.8582 30.2169C55.145 30.2169 54.567 29.6387 54.567 28.9252C54.567 28.2124 55.145 27.6341 55.8582 27.6341Z" fill="#009CDE"/>
<path d="M62.7058 31.296H64.0036V28.9251C64.0036 27.5165 62.8615 26.374 61.4525 26.374C60.0434 26.374 58.9011 27.5165 58.9011 28.9251C58.9011 30.0943 59.6876 31.0788 60.7597 31.3809C61.9574 31.6727 62.4969 30.7424 62.5952 30.4982C62.6054 30.4728 62.6145 30.4452 62.6564 30.4456C62.7032 30.4463 62.7052 30.4982 62.7052 30.4982M62.7426 28.9251C62.7426 29.6385 62.1644 30.2169 61.4513 30.2169C60.7381 30.2169 60.1598 29.6386 60.1598 28.9251C60.1598 28.2123 60.7381 27.634 61.4513 27.634C62.1645 27.634 62.7426 28.2123 62.7426 28.9251Z" fill="#009CDE"/>
<path d="M39.8848 31.2859H38.4126V24.9863H39.9923C41.9051 24.9863 43.3558 25.3373 43.3558 28.1362C43.3558 30.9079 41.8191 31.2859 39.8848 31.2859ZM40.2363 26.0783H39.7159V30.1929L40.2503 30.2066C41.3464 30.2066 42.0523 30.1068 42.0523 28.1361C42.0523 26.2462 41.4291 26.0783 40.2363 26.0783Z" fill="#009CDE"/>
<line x1="14" y1="41.5" x2="300" y2="41.5" stroke="#E2E2E2"/>
<g clip-path="url(#clip0_8088_164673)">
<path d="M194.602 105.657H194.859V105.915V141.916V142.173H194.602H165.287H165.03V141.916V111.708V111.602L165.105 111.527L170.874 105.733L170.95 105.657H171.057H194.602Z" fill="white" stroke="#333333" stroke-width="0.514301"/>
<path d="M170.762 105.733C170.836 105.659 170.946 105.637 171.042 105.677C171.139 105.717 171.201 105.811 171.201 105.915V111.572C171.201 111.714 171.086 111.829 170.944 111.829H165.287C165.183 111.829 165.089 111.766 165.049 111.67C165.009 111.574 165.031 111.464 165.105 111.39L170.762 105.733Z" fill="#D9F4FF" stroke="#333333" stroke-width="0.514301" stroke-linejoin="round"/>
<path d="M199.231 108.743H199.488V109V145.002V145.259H199.231H169.401H169.144V145.002V114.794V114.687L169.221 114.611L175.092 108.817L175.167 108.743H175.272H199.231Z" fill="white" stroke="#333333" stroke-width="0.514301"/>
<path d="M174.877 108.819C174.95 108.745 175.061 108.723 175.157 108.763C175.253 108.803 175.316 108.896 175.316 109V114.658C175.316 114.8 175.201 114.915 175.059 114.915H169.401C169.297 114.915 169.204 114.852 169.164 114.756C169.124 114.66 169.146 114.55 169.219 114.476L174.877 108.819Z" fill="#D9F4FF" stroke="#333333" stroke-width="0.514301" stroke-linejoin="round"/>
<path d="M203.345 111.829H203.602V112.086V148.087V148.345H203.345H173.516H173.258V148.087V117.831V117.723L173.336 117.647L179.207 111.903L179.282 111.829H179.386H203.345Z" fill="white" stroke="#333333" stroke-width="0.514301"/>
<path d="M179.094 111.905C179.167 111.831 179.278 111.809 179.374 111.849C179.47 111.889 179.533 111.982 179.533 112.086V117.641C179.533 117.783 179.418 117.898 179.276 117.898H173.721C173.617 117.898 173.523 117.835 173.484 117.739C173.444 117.643 173.466 117.533 173.539 117.459L179.094 111.905Z" fill="url(#paint0_linear_8088_164673)" stroke="#333333" stroke-width="0.514301" stroke-linejoin="round"/>
<path fill-rule="evenodd" clip-rule="evenodd" d="M198.459 121.344C198.601 121.344 198.716 121.459 198.716 121.601C198.716 121.743 198.601 121.858 198.459 121.858H183.03C182.888 121.858 182.773 121.743 182.773 121.601C182.773 121.459 182.888 121.344 183.03 121.344H198.459ZM188.945 128.287C188.945 128.145 188.829 128.03 188.687 128.03H178.916C178.774 128.03 178.659 128.145 178.659 128.287C178.659 128.429 178.774 128.544 178.916 128.544H188.687C188.829 128.544 188.945 128.429 188.945 128.287ZM185.859 139.087C185.859 138.945 185.744 138.83 185.602 138.83H178.916C178.774 138.83 178.659 138.945 178.659 139.087C178.659 139.229 178.774 139.344 178.916 139.344H185.602C185.744 139.344 185.859 139.229 185.859 139.087ZM189.973 131.887C189.973 132.029 189.858 132.144 189.716 132.144H178.916C178.774 132.144 178.659 132.029 178.659 131.887C178.659 131.745 178.774 131.63 178.916 131.63H189.716C189.858 131.63 189.973 131.745 189.973 131.887ZM198.459 124.944C198.601 124.944 198.716 125.059 198.716 125.201C198.716 125.343 198.601 125.458 198.459 125.458H178.916C178.774 125.458 178.659 125.343 178.659 125.201C178.659 125.059 178.774 124.944 178.916 124.944H198.459ZM187.402 135.487C187.402 135.345 187.287 135.23 187.145 135.23H178.916C178.774 135.23 178.659 135.345 178.659 135.487C178.659 135.629 178.774 135.744 178.916 135.744H187.145C187.287 135.744 187.402 135.629 187.402 135.487ZM185.602 141.916C185.744 141.916 185.859 142.031 185.859 142.173C185.859 142.315 185.744 142.43 185.602 142.43H178.916C178.774 142.43 178.659 142.315 178.659 142.173C178.659 142.031 178.774 141.916 178.916 141.916H185.602ZM198.716 128.287C198.716 128.145 198.601 128.03 198.459 128.03H190.745C190.603 128.03 190.487 128.145 190.487 128.287C190.487 128.429 190.603 128.544 190.745 128.544H198.459C198.601 128.544 198.716 128.429 198.716 128.287ZM198.435 138.539C198.577 138.539 198.692 138.654 198.692 138.796C198.692 138.938 198.577 139.054 198.435 139.054H190.578C190.436 139.054 190.321 138.938 190.321 138.796C190.321 138.654 190.436 138.539 190.578 138.539H198.435Z" fill="#333333"/>
<path d="M197.585 117.229H187.402" stroke="url(#paint1_linear_8088_164673)" stroke-width="1.0286" stroke-linecap="round"/>
<path d="M197.945 150.916C203.609 150.916 208.231 146.297 208.231 140.63C208.231 134.963 203.612 130.344 197.945 130.344C192.278 130.344 187.659 134.963 187.659 140.63C187.659 146.297 192.278 150.916 197.945 150.916Z" fill="#D9F4FF" stroke="#333333" stroke-width="0.514301"/>
<path d="M195.566 141.353L195.566 141.353L195.567 141.352L195.615 141.295C195.64 141.265 195.673 141.219 195.689 141.15C195.699 141.104 195.699 141.057 195.699 141.03C195.699 141.029 195.699 141.028 195.699 141.027V140.831V139.627V139.211L195.327 139.397C195.087 139.517 194.87 139.521 194.539 139.521C194.22 139.521 193.962 139.496 193.746 139.394L193.38 139.223V139.627V140.838V141.027C193.38 141.029 193.38 141.031 193.38 141.033C193.379 141.056 193.379 141.1 193.387 141.14C193.4 141.21 193.432 141.259 193.461 141.295L193.509 141.352L193.509 141.352L193.51 141.353C193.62 141.482 193.735 141.602 193.846 141.717C193.852 141.723 193.858 141.729 193.864 141.736C193.982 141.858 194.095 141.976 194.204 142.108L194.204 142.108C194.234 142.143 194.276 142.191 194.329 142.227C194.38 142.263 194.452 142.295 194.539 142.291C194.626 142.295 194.699 142.263 194.75 142.227C194.802 142.191 194.845 142.143 194.874 142.108C194.984 141.977 195.097 141.858 195.214 141.736C195.219 141.731 195.223 141.726 195.228 141.722C195.339 141.605 195.456 141.484 195.566 141.353Z" fill="white" stroke="#333333" stroke-width="0.514301"/>
<circle cx="194.539" cy="137.521" r="2.40693" fill="white" stroke="#333333" stroke-width="0.514301"/>
<path fill-rule="evenodd" clip-rule="evenodd" d="M194.635 136.195C195.095 136.983 196.179 137.895 196.934 137.786C196.943 137.707 196.946 137.629 196.946 137.547C196.946 136.204 195.868 135.114 194.539 135.114C193.21 135.114 192.132 136.204 192.132 137.547C192.132 137.641 192.138 137.731 192.147 137.822C192.873 137.813 194.061 137.321 194.635 136.195Z" fill="#AAAAAA" stroke="#333333" stroke-width="0.514301"/>
<path d="M194.508 142.027C194.358 141.833 194.177 141.651 194.011 141.486L194.001 141.475C193.846 141.32 193.706 141.18 193.593 141.042V140.68V140.374L193.291 140.427C192.265 140.608 191.429 141.029 190.764 141.563L190.56 141.726L190.726 141.927C191.625 143.018 192.984 143.712 194.508 143.712C196.022 143.712 197.376 143.024 198.274 141.946L198.441 141.745L198.239 141.581C197.583 141.05 196.821 140.616 195.789 140.427L195.485 140.372V140.68V141.027L194.508 142.027Z" fill="#D9F4FF" stroke="#333333" stroke-width="0.514301"/>
<path d="M202.718 141.353L202.718 141.353L202.719 141.352L202.767 141.295C202.791 141.265 202.825 141.219 202.84 141.15C202.851 141.104 202.851 141.057 202.851 141.03C202.851 141.029 202.851 141.028 202.851 141.027V140.831V139.627V139.211L202.479 139.397C202.239 139.517 202.022 139.521 201.691 139.521C201.372 139.521 201.114 139.496 200.897 139.394L200.531 139.223V139.627V140.838V141.027C200.531 141.029 200.531 141.031 200.531 141.033C200.531 141.056 200.531 141.1 200.539 141.14C200.552 141.21 200.584 141.259 200.613 141.295L200.661 141.352L200.661 141.352L200.662 141.353C200.771 141.482 200.887 141.602 200.998 141.717C201.004 141.723 201.01 141.729 201.016 141.736C201.133 141.858 201.247 141.976 201.356 142.108L201.356 142.108C201.386 142.143 201.428 142.191 201.48 142.227C201.532 142.263 201.604 142.295 201.691 142.291C201.778 142.295 201.851 142.263 201.902 142.227C201.954 142.191 201.996 142.143 202.026 142.108C202.136 141.977 202.249 141.858 202.366 141.736C202.371 141.731 202.375 141.726 202.379 141.722C202.491 141.605 202.607 141.484 202.718 141.353Z" fill="white" stroke="#333333" stroke-width="0.514301"/>
<circle cx="201.691" cy="137.521" r="2.40693" fill="white" stroke="#333333" stroke-width="0.514301"/>
<path fill-rule="evenodd" clip-rule="evenodd" d="M201.787 136.195C202.247 136.983 203.331 137.895 204.086 137.786C204.095 137.707 204.098 137.629 204.098 137.547C204.098 136.204 203.02 135.114 201.691 135.114C200.362 135.114 199.284 136.204 199.284 137.547C199.284 137.641 199.29 137.731 199.299 137.822C200.025 137.813 201.214 137.321 201.787 136.195Z" fill="#AAAAAA" stroke="#333333" stroke-width="0.514301"/>
<path d="M201.66 142.027C201.51 141.833 201.329 141.651 201.164 141.486L201.153 141.475C200.998 141.32 200.858 141.18 200.745 141.042V140.68V140.374L200.443 140.427C199.417 140.608 198.581 141.029 197.916 141.563L197.713 141.726L197.878 141.927C198.777 143.018 200.137 143.712 201.66 143.712C203.174 143.712 204.528 143.024 205.426 141.946L205.593 141.745L205.391 141.581C204.735 141.05 203.973 140.616 202.941 140.427L202.637 140.372V140.68V141.027L201.66 142.027Z" fill="#D9F4FF" stroke="#333333" stroke-width="0.514301"/>
<path d="M199.176 144.963L199.176 144.963L199.177 144.962L199.225 144.905C199.25 144.875 199.283 144.829 199.299 144.76C199.309 144.714 199.309 144.667 199.309 144.64C199.309 144.639 199.309 144.638 199.309 144.636V144.441V143.237V142.821L198.937 143.007C198.698 143.127 198.481 143.131 198.15 143.131C197.831 143.131 197.572 143.105 197.356 143.004L196.99 142.833V143.237V144.448V144.636C196.99 144.638 196.99 144.641 196.99 144.643C196.99 144.666 196.99 144.71 196.997 144.75C197.01 144.82 197.042 144.869 197.072 144.905L197.12 144.962L197.12 144.962L197.121 144.963C197.23 145.092 197.345 145.212 197.456 145.327C197.462 145.333 197.468 145.339 197.474 145.345C197.592 145.468 197.705 145.586 197.814 145.717L197.815 145.718C197.844 145.753 197.886 145.801 197.939 145.837C197.99 145.873 198.063 145.905 198.15 145.901C198.237 145.905 198.309 145.873 198.36 145.837C198.413 145.801 198.455 145.753 198.484 145.718C198.594 145.587 198.707 145.468 198.825 145.346C198.829 145.341 198.834 145.336 198.838 145.332C198.95 145.215 199.066 145.094 199.176 144.963Z" fill="white" stroke="#333333" stroke-width="0.514301"/>
<circle cx="198.15" cy="141.132" r="2.40693" fill="white" stroke="#333333" stroke-width="0.514301"/>
<path fill-rule="evenodd" clip-rule="evenodd" d="M198.245 139.805C198.705 140.593 199.789 141.505 200.545 141.396C200.554 141.318 200.557 141.239 200.557 141.158C200.557 139.814 199.478 138.725 198.15 138.725C196.821 138.725 195.743 139.814 195.743 141.158C195.743 141.251 195.749 141.342 195.758 141.432C196.483 141.423 197.672 140.931 198.245 139.805Z" fill="#AAAAAA" stroke="#333333" stroke-width="0.514301"/>
<path d="M198.119 145.637C197.968 145.443 197.788 145.261 197.622 145.096L197.611 145.085C197.457 144.931 197.316 144.79 197.203 144.653V144.291V143.984L196.901 144.037C195.876 144.219 195.039 144.64 194.374 145.173L194.171 145.336L194.337 145.537C195.235 146.628 196.595 147.322 198.119 147.322C199.633 147.322 200.986 146.634 201.885 145.556L202.052 145.356L201.849 145.192C201.193 144.66 200.431 144.226 199.399 144.038L199.096 143.982V144.291V144.637L198.119 145.637Z" fill="url(#paint2_linear_8088_164673)" stroke="#333333" stroke-width="0.514301"/>
</g>
<line x1="163.059" y1="167.373" x2="216.059" y2="167.373" stroke="#666666" stroke-width="0.514301" stroke-dasharray="1.03 1.03"/>
<path d="M158.975 162.937H160.336V163.707H158.975V165.061H158.205V163.707H156.844V162.937H158.205V161.566H158.975V162.937ZM165.356 161.552C165.147 161.552 164.962 161.593 164.801 161.675C164.641 161.755 164.506 161.871 164.396 162.023C164.288 162.176 164.206 162.36 164.15 162.575C164.094 162.791 164.066 163.033 164.066 163.303C164.066 163.666 164.11 163.977 164.199 164.235C164.291 164.49 164.431 164.686 164.621 164.822C164.811 164.955 165.056 165.022 165.356 165.022C165.565 165.022 165.773 164.999 165.982 164.952C166.193 164.905 166.421 164.838 166.667 164.751V165.666C166.44 165.759 166.216 165.826 165.996 165.866C165.776 165.908 165.528 165.929 165.254 165.929C164.724 165.929 164.288 165.82 163.946 165.602C163.606 165.382 163.354 165.075 163.19 164.681C163.026 164.285 162.944 163.823 162.944 163.296C162.944 162.907 162.997 162.551 163.102 162.227C163.208 161.904 163.363 161.624 163.567 161.387C163.77 161.15 164.022 160.967 164.322 160.838C164.622 160.71 164.967 160.645 165.356 160.645C165.611 160.645 165.867 160.678 166.122 160.744C166.38 160.807 166.626 160.895 166.861 161.007L166.509 161.893C166.317 161.802 166.124 161.722 165.929 161.654C165.735 161.586 165.544 161.552 165.356 161.552ZM169.874 161.854C169.928 161.854 169.99 161.858 170.06 161.865C170.133 161.87 170.191 161.877 170.236 161.886L170.155 162.892C170.12 162.88 170.069 162.872 170.004 162.867C169.941 162.86 169.885 162.856 169.839 162.856C169.7 162.856 169.566 162.874 169.434 162.909C169.305 162.944 169.189 163.002 169.086 163.081C168.983 163.159 168.901 163.262 168.84 163.391C168.782 163.517 168.752 163.673 168.752 163.858V165.859H167.68V161.928H168.492L168.65 162.589H168.703C168.78 162.456 168.876 162.334 168.991 162.224C169.108 162.111 169.241 162.022 169.389 161.956C169.539 161.888 169.7 161.854 169.874 161.854ZM172.57 161.854C172.934 161.854 173.246 161.925 173.509 162.065C173.772 162.204 173.974 162.405 174.117 162.67C174.26 162.935 174.332 163.258 174.332 163.64V164.161H171.797C171.809 164.463 171.899 164.701 172.068 164.874C172.239 165.046 172.475 165.131 172.778 165.131C173.029 165.131 173.258 165.105 173.467 165.054C173.675 165.002 173.89 164.925 174.11 164.822V165.651C173.916 165.748 173.712 165.818 173.498 165.862C173.288 165.907 173.031 165.929 172.729 165.929C172.335 165.929 171.986 165.857 171.681 165.711C171.378 165.566 171.141 165.344 170.967 165.047C170.796 164.749 170.71 164.374 170.71 163.922C170.71 163.462 170.788 163.08 170.943 162.776C171.1 162.469 171.318 162.239 171.596 162.087C171.875 161.932 172.2 161.854 172.57 161.854ZM172.577 162.617C172.369 162.617 172.195 162.684 172.057 162.818C171.921 162.951 171.843 163.161 171.821 163.447H173.326C173.324 163.288 173.295 163.146 173.238 163.022C173.184 162.897 173.102 162.799 172.992 162.726C172.884 162.654 172.746 162.617 172.577 162.617ZM173.899 160.343V160.417C173.831 160.482 173.742 160.563 173.632 160.659C173.522 160.755 173.404 160.856 173.277 160.961C173.15 161.065 173.026 161.164 172.904 161.26C172.782 161.354 172.676 161.433 172.584 161.496H171.871V161.401C171.948 161.312 172.037 161.206 172.138 161.085C172.241 160.96 172.343 160.833 172.444 160.701C172.545 160.57 172.629 160.451 172.697 160.343H173.899ZM176.824 161.854C177.188 161.854 177.501 161.925 177.763 162.065C178.026 162.204 178.228 162.405 178.371 162.67C178.514 162.935 178.586 163.258 178.586 163.64V164.161H176.051C176.063 164.463 176.153 164.701 176.322 164.874C176.493 165.046 176.729 165.131 177.032 165.131C177.283 165.131 177.512 165.105 177.721 165.054C177.929 165.002 178.144 164.925 178.364 164.822V165.651C178.17 165.748 177.966 165.818 177.752 165.862C177.542 165.907 177.285 165.929 176.983 165.929C176.589 165.929 176.24 165.857 175.935 165.711C175.632 165.566 175.395 165.344 175.221 165.047C175.05 164.749 174.965 164.374 174.965 163.922C174.965 163.462 175.042 163.08 175.197 162.776C175.354 162.469 175.572 162.239 175.85 162.087C176.129 161.932 176.454 161.854 176.824 161.854ZM176.831 162.617C176.623 162.617 176.449 162.684 176.311 162.818C176.175 162.951 176.097 163.161 176.075 163.447H177.58C177.578 163.288 177.549 163.146 177.492 163.022C177.438 162.897 177.356 162.799 177.246 162.726C177.138 162.654 177 162.617 176.831 162.617ZM181.651 161.854C181.705 161.854 181.767 161.858 181.838 161.865C181.91 161.87 181.969 161.877 182.014 161.886L181.933 162.892C181.898 162.88 181.847 162.872 181.782 162.867C181.718 162.86 181.663 162.856 181.616 162.856C181.478 162.856 181.343 162.874 181.212 162.909C181.083 162.944 180.967 163.002 180.864 163.081C180.761 163.159 180.679 163.262 180.618 163.391C180.559 163.517 180.53 163.673 180.53 163.858V165.859H179.458V161.928H180.27L180.428 162.589H180.481C180.558 162.456 180.654 162.334 180.769 162.224C180.886 162.111 181.019 162.022 181.166 161.956C181.316 161.888 181.478 161.854 181.651 161.854ZM188.205 161.928V165.859H187.382L187.238 165.356H187.182C187.097 165.49 186.992 165.599 186.865 165.683C186.739 165.767 186.599 165.83 186.447 165.869C186.295 165.909 186.136 165.929 185.972 165.929C185.691 165.929 185.446 165.88 185.237 165.782C185.029 165.681 184.866 165.525 184.749 165.314C184.634 165.103 184.577 164.829 184.577 164.491V161.928H185.649V164.224C185.649 164.505 185.699 164.717 185.8 164.86C185.901 165.003 186.061 165.075 186.282 165.075C186.5 165.075 186.671 165.026 186.795 164.927C186.919 164.826 187.006 164.68 187.055 164.488C187.107 164.293 187.132 164.056 187.132 163.778V161.928H188.205ZM191.562 161.854C191.982 161.854 192.319 161.969 192.575 162.199C192.83 162.426 192.958 162.792 192.958 163.296V165.859H191.886V163.563C191.886 163.282 191.834 163.07 191.731 162.927C191.63 162.784 191.471 162.712 191.253 162.712C190.925 162.712 190.701 162.824 190.581 163.046C190.462 163.269 190.402 163.59 190.402 164.01V165.859H189.33V161.928H190.149L190.293 162.431H190.353C190.437 162.295 190.542 162.185 190.666 162.101C190.792 162.016 190.932 161.954 191.084 161.914C191.239 161.874 191.398 161.854 191.562 161.854ZM195.683 161.854C196.046 161.854 196.359 161.925 196.621 162.065C196.884 162.204 197.087 162.405 197.23 162.67C197.373 162.935 197.444 163.258 197.444 163.64V164.161H194.909C194.921 164.463 195.011 164.701 195.18 164.874C195.351 165.046 195.588 165.131 195.89 165.131C196.141 165.131 196.371 165.105 196.579 165.054C196.788 165.002 197.002 164.925 197.223 164.822V165.651C197.028 165.748 196.824 165.818 196.611 165.862C196.4 165.907 196.143 165.929 195.841 165.929C195.447 165.929 195.098 165.857 194.793 165.711C194.491 165.566 194.253 165.344 194.08 165.047C193.908 164.749 193.823 164.374 193.823 163.922C193.823 163.462 193.9 163.08 194.055 162.776C194.212 162.469 194.43 162.239 194.709 162.087C194.988 161.932 195.312 161.854 195.683 161.854ZM195.69 162.617C195.481 162.617 195.308 162.684 195.169 162.818C195.033 162.951 194.955 163.161 194.934 163.447H196.439C196.436 163.288 196.407 163.146 196.351 163.022C196.297 162.897 196.215 162.799 196.105 162.726C195.997 162.654 195.858 162.617 195.69 162.617ZM202.929 164.692C202.929 164.959 202.865 165.185 202.739 165.37C202.615 165.553 202.428 165.692 202.18 165.789C201.931 165.882 201.622 165.929 201.252 165.929C200.977 165.929 200.742 165.912 200.545 165.876C200.35 165.841 200.154 165.783 199.954 165.701V164.815C200.168 164.911 200.396 164.991 200.64 165.054C200.886 165.115 201.102 165.145 201.287 165.145C201.495 165.145 201.644 165.115 201.733 165.054C201.825 164.991 201.87 164.908 201.87 164.808C201.87 164.742 201.852 164.683 201.814 164.632C201.779 164.578 201.702 164.518 201.582 164.453C201.463 164.385 201.275 164.297 201.02 164.189C200.773 164.086 200.571 163.981 200.411 163.876C200.254 163.771 200.137 163.646 200.06 163.503C199.985 163.358 199.947 163.174 199.947 162.951C199.947 162.588 200.088 162.315 200.369 162.132C200.653 161.947 201.031 161.854 201.505 161.854C201.748 161.854 201.981 161.879 202.201 161.928C202.424 161.978 202.652 162.056 202.886 162.164L202.563 162.937C202.368 162.853 202.184 162.784 202.011 162.73C201.84 162.676 201.665 162.649 201.487 162.649C201.33 162.649 201.212 162.67 201.132 162.712C201.052 162.754 201.013 162.819 201.013 162.906C201.013 162.969 201.032 163.025 201.072 163.074C201.114 163.124 201.194 163.179 201.311 163.24C201.431 163.298 201.606 163.374 201.835 163.468C202.058 163.56 202.251 163.656 202.415 163.756C202.579 163.855 202.706 163.978 202.795 164.126C202.884 164.271 202.929 164.46 202.929 164.692ZM205.376 161.847C205.903 161.847 206.307 161.962 206.588 162.192C206.87 162.422 207.01 162.771 207.01 163.24V165.859H206.262L206.054 165.324H206.026C205.913 165.465 205.799 165.58 205.681 165.669C205.564 165.758 205.429 165.824 205.277 165.866C205.125 165.908 204.94 165.929 204.722 165.929C204.49 165.929 204.281 165.885 204.096 165.796C203.913 165.707 203.769 165.571 203.663 165.388C203.558 165.203 203.505 164.968 203.505 164.685C203.505 164.267 203.652 163.96 203.945 163.764C204.238 163.564 204.677 163.454 205.263 163.433L205.945 163.412V163.24C205.945 163.033 205.891 162.882 205.783 162.786C205.676 162.69 205.526 162.642 205.333 162.642C205.144 162.642 204.957 162.669 204.774 162.723C204.592 162.777 204.409 162.845 204.226 162.927L203.871 162.203C204.079 162.092 204.313 162.006 204.57 161.942C204.831 161.879 205.099 161.847 205.376 161.847ZM205.945 164.038L205.53 164.052C205.183 164.061 204.942 164.123 204.806 164.238C204.672 164.353 204.606 164.504 204.606 164.692C204.606 164.856 204.654 164.973 204.75 165.043C204.846 165.111 204.971 165.145 205.126 165.145C205.356 165.145 205.549 165.077 205.706 164.941C205.865 164.805 205.945 164.612 205.945 164.361V164.038ZM209.19 165.859H208.118V160.388H209.19V165.859ZM211.391 165.859H210.319V160.388H211.391V165.859ZM214.14 161.854C214.504 161.854 214.816 161.925 215.079 162.065C215.341 162.204 215.544 162.405 215.687 162.67C215.83 162.935 215.902 163.258 215.902 163.64V164.161H213.367C213.379 164.463 213.469 164.701 213.638 164.874C213.809 165.046 214.045 165.131 214.348 165.131C214.598 165.131 214.828 165.105 215.037 165.054C215.245 165.002 215.46 164.925 215.68 164.822V165.651C215.486 165.748 215.282 165.818 215.068 165.862C214.857 165.907 214.601 165.929 214.298 165.929C213.905 165.929 213.555 165.857 213.251 165.711C212.948 165.566 212.711 165.344 212.537 165.047C212.366 164.749 212.28 164.374 212.28 163.922C212.28 163.462 212.358 163.08 212.512 162.776C212.67 162.469 212.887 162.239 213.166 162.087C213.445 161.932 213.77 161.854 214.14 161.854ZM214.147 162.617C213.939 162.617 213.765 162.684 213.627 162.818C213.491 162.951 213.413 163.161 213.391 163.447H214.896C214.894 163.288 214.865 163.146 214.808 163.022C214.754 162.897 214.672 162.799 214.562 162.726C214.454 162.654 214.316 162.617 214.147 162.617Z" fill="#666666"/>
<path d="M194 248.5H194.561L194.497 247.943L190.831 215.943L190.78 215.5H190.334H122.4H121.964L121.905 215.932L117.505 247.932L117.427 248.5H118H194Z" fill="#CCCCCC" stroke="#333333"/>
<path d="M6.5 208.442V188.5H307.5V208.442C307.5 212.382 304.396 215.5 300.495 215.5H13.5054C9.59909 215.5 6.5 212.383 6.5 208.442Z" fill="#E2E2E2" stroke="#333333"/>
<path d="M107.333 251.5L117.106 248.5H194.894L204.667 251.5H107.333Z" fill="#E2E2E2" stroke="#333333"/>
<path d="M207.281 252.5L206.909 253.5H104.986L104.677 252.5H207.281Z" fill="#AAAAAA" stroke="#333333"/>
<path d="M162.5 201.497C162.5 204.26 160.259 206.5 157.5 206.5C154.741 206.5 152.5 204.26 152.5 201.497C152.5 198.74 154.74 196.5 157.5 196.5C160.26 196.5 162.5 198.735 162.5 201.497Z" fill="#AAAAAA" stroke="#333333"/>
<rect x="13" y="41" width="288" height="9" fill="#0F0F0F"/>
<rect x="63" y="50" width="132" height="0.999994" transform="rotate(90 63 50)" fill="#D4D4D4"/>
<rect x="13" y="62" width="49" height="1" fill="#D4D4D4"/>
<rect x="63" y="50" width="238" height="41" fill="#F3F4F9"/>
<mask id="path-48-inside-1_8088_164673" fill="white">
<path d="M70 97H128V182H70V97Z"/>
</mask>
<path d="M70 97H128V182H70V97Z" fill="#F8F9F9"/>
<path d="M127 97V182H129V97H127Z" fill="#F2F3F5" mask="url(#path-48-inside-1_8088_164673)"/>
<rect x="17" y="55" width="41" height="2" rx="1" fill="#E5E5E5"/>
<rect x="70" y="57" width="100" height="2" rx="1" fill="#DADADA"/>
<rect x="70" y="83" width="30" height="2" rx="1" fill="#DADADA"/>
<rect x="77" y="132" width="45" height="2" rx="1" fill="#D4D4D4"/>
<rect x="77" y="141" width="45" height="2" rx="1" fill="#D4D4D4"/>
<rect x="77" y="150" width="45" height="2" rx="1" fill="#D4D4D4"/>
<rect x="77" y="172" width="45" height="2" rx="1" fill="#D4D4D4"/>
<rect x="77" y="163" width="45" height="2" rx="1" fill="#D4D4D4"/>
<rect x="77" y="114" width="45" height="9" rx="1" fill="#4781D1"/>
<rect x="107" y="83" width="30" height="2" rx="1" fill="#DADADA"/>
<rect x="144" y="83" width="30" height="2" rx="1" fill="#DADADA"/>
<rect x="181" y="83" width="30" height="2" rx="1" fill="#DADADA"/>
<rect x="218" y="83" width="30" height="2" rx="1" fill="#173DC4"/>
<rect x="214" y="90" width="38" height="1" fill="#173DC4"/>
<rect x="70" y="66" width="41" height="2" rx="1" fill="#0F0F0F"/>
<rect x="17" y="68" width="41" height="2" rx="1" fill="#E5E5E5"/>
<rect x="17" y="81" width="41" height="2" rx="1" fill="#E5E5E5"/>
<rect x="17" y="94" width="41" height="2" rx="1" fill="#E5E5E5"/>
<rect x="17" y="107" width="41" height="2" rx="1" fill="#E5E5E5"/>
<rect x="17" y="120" width="41" height="2" rx="1" fill="#E5E5E5"/>
<rect x="13" y="75" width="49" height="1" fill="#D4D4D4"/>
<rect x="13" y="88" width="49" height="1" fill="#D4D4D4"/>
<rect x="13" y="101" width="49" height="1" fill="#D4D4D4"/>
<rect x="13" y="114" width="49" height="1" fill="#D4D4D4"/>
<rect x="13" y="127" width="49" height="55" fill="#F5F5F5"/>
<rect x="13" y="127" width="49" height="1" fill="#D4D4D4"/>
<path fill-rule="evenodd" clip-rule="evenodd" d="M79.4336 107.939L77.1461 106.909C76.9513 106.819 76.9513 106.68 77.1461 106.599L77.9425 106.239L79.4252 106.909C79.62 106.999 79.9335 106.999 80.1199 106.909L81.6025 106.239L82.3989 106.599C82.5937 106.689 82.5937 106.827 82.3989 106.909L80.1114 107.939C79.9335 108.02 79.62 108.02 79.4336 107.939Z" fill="#FF6F3D"/>
<path fill-rule="evenodd" clip-rule="evenodd" d="M79.4262 106.665L77.1457 105.634C76.9514 105.544 76.9514 105.405 77.1457 105.323L77.9228 104.972L79.4262 105.651C79.6205 105.741 79.933 105.741 80.1188 105.651L81.6223 104.972L82.3993 105.323C82.5936 105.413 82.5936 105.552 82.3993 105.634L80.1188 106.665C79.9245 106.755 79.612 106.755 79.4262 106.665Z" fill="#95C038"/>
<path fill-rule="evenodd" clip-rule="evenodd" d="M79.4262 105.404L77.1457 104.389C76.9514 104.3 76.9514 104.163 77.1457 104.082L79.4262 103.067C79.6205 102.978 79.933 102.978 80.1188 103.067L82.3993 104.082C82.5936 104.171 82.5936 104.308 82.3993 104.389L80.1188 105.404C79.9245 105.485 79.612 105.485 79.4262 105.404Z" fill="#5DC0E8"/>
<path fill-rule="evenodd" clip-rule="evenodd" d="M113.48 106.541C113.645 106.418 113.727 106.245 113.727 106.025C113.727 105.853 113.676 105.713 113.574 105.606C113.473 105.498 113.287 105.397 113.017 105.304C112.856 105.247 112.737 105.197 112.658 105.151C112.58 105.104 112.525 105.053 112.492 104.998C112.459 104.942 112.443 104.87 112.443 104.783C112.443 104.665 112.488 104.573 112.577 104.507C112.666 104.441 112.79 104.407 112.948 104.407C113.149 104.407 113.356 104.451 113.568 104.538L113.662 104.284C113.447 104.192 113.211 104.146 112.956 104.146C112.71 104.146 112.513 104.204 112.364 104.318C112.215 104.433 112.14 104.587 112.14 104.78C112.14 104.964 112.191 105.114 112.293 105.228C112.397 105.342 112.568 105.441 112.808 105.525C112.979 105.584 113.106 105.638 113.19 105.685C113.274 105.732 113.334 105.783 113.369 105.839C113.406 105.894 113.424 105.965 113.424 106.052C113.424 106.184 113.373 106.287 113.273 106.361C113.172 106.434 113.021 106.471 112.822 106.471C112.7 106.471 112.576 106.458 112.452 106.433C112.327 106.408 112.212 106.374 112.107 106.33V106.612C112.271 106.688 112.506 106.727 112.811 106.727C113.093 106.727 113.316 106.665 113.48 106.541ZM107.56 106.364C107.791 106.145 107.907 105.828 107.907 105.413C107.907 105.025 107.796 104.723 107.574 104.507C107.352 104.291 107.041 104.183 106.641 104.183H105.852V106.692H106.565C106.998 106.692 107.33 106.583 107.56 106.364ZM107.337 104.684C107.506 104.85 107.59 105.096 107.59 105.424C107.59 105.759 107.5 106.012 107.321 106.184C107.141 106.355 106.873 106.44 106.516 106.44H106.151V104.435H106.586C106.919 104.435 107.169 104.518 107.337 104.684ZM109.831 106.469C109.99 106.296 110.069 106.057 110.069 105.75C110.069 105.451 109.989 105.214 109.829 105.039C109.671 104.864 109.457 104.776 109.187 104.776C108.907 104.776 108.689 104.862 108.531 105.034C108.374 105.205 108.295 105.443 108.295 105.75C108.295 105.948 108.332 106.121 108.405 106.268C108.477 106.416 108.581 106.529 108.715 106.608C108.848 106.687 109.002 106.727 109.174 106.727C109.454 106.727 109.673 106.641 109.831 106.469ZM108.746 106.299C108.648 106.173 108.598 105.99 108.598 105.75C108.598 105.507 108.647 105.325 108.745 105.202C108.842 105.08 108.986 105.019 109.178 105.019C109.372 105.019 109.518 105.081 109.616 105.206C109.716 105.329 109.766 105.511 109.766 105.75C109.766 105.991 109.716 106.175 109.616 106.301C109.518 106.426 109.373 106.488 109.181 106.488C108.99 106.488 108.845 106.425 108.746 106.299ZM111.319 106.727C111.039 106.727 110.822 106.643 110.669 106.476C110.516 106.308 110.44 106.07 110.44 105.764C110.44 105.449 110.517 105.206 110.672 105.034C110.828 104.862 111.05 104.776 111.338 104.776C111.431 104.776 111.523 104.786 111.616 104.806C111.709 104.825 111.782 104.848 111.835 104.874L111.745 105.116C111.68 105.091 111.61 105.071 111.533 105.055C111.457 105.037 111.39 105.029 111.331 105.029C110.939 105.029 110.743 105.273 110.743 105.76C110.743 105.991 110.79 106.169 110.885 106.292C110.982 106.416 111.124 106.478 111.311 106.478C111.472 106.478 111.637 106.444 111.806 106.376V106.629C111.677 106.694 111.515 106.727 111.319 106.727ZM115.072 106.727C114.946 106.727 114.831 106.704 114.726 106.66C114.623 106.614 114.536 106.544 114.466 106.45H114.445C114.459 106.56 114.466 106.664 114.466 106.763V107.537H114.173V104.811H114.411L114.452 105.068H114.466C114.541 104.965 114.628 104.891 114.728 104.845C114.828 104.799 114.942 104.776 115.072 104.776C115.328 104.776 115.525 104.862 115.663 105.032C115.803 105.203 115.873 105.442 115.873 105.75C115.873 106.059 115.802 106.299 115.66 106.471C115.519 106.641 115.323 106.727 115.072 106.727ZM115.029 105.019C114.832 105.019 114.689 105.072 114.601 105.178C114.513 105.285 114.468 105.454 114.466 105.686V105.75C114.466 106.014 114.511 106.204 114.601 106.318C114.692 106.431 114.837 106.488 115.036 106.488C115.203 106.488 115.333 106.422 115.427 106.291C115.522 106.159 115.57 105.978 115.57 105.746C115.57 105.512 115.522 105.332 115.427 105.207C115.333 105.081 115.201 105.019 115.029 105.019ZM117.478 106.424L117.536 106.692H117.753V105.408C117.753 105.188 117.697 105.029 117.586 104.929C117.475 104.83 117.305 104.78 117.075 104.78C116.961 104.78 116.847 104.794 116.733 104.823C116.621 104.851 116.517 104.891 116.421 104.941L116.511 105.159C116.714 105.063 116.896 105.015 117.057 105.015C117.201 105.015 117.304 105.051 117.369 105.122C117.435 105.191 117.468 105.3 117.468 105.448V105.564L117.14 105.575C116.517 105.593 116.205 105.792 116.205 106.172C116.205 106.35 116.259 106.486 116.367 106.582C116.476 106.679 116.626 106.727 116.818 106.727C116.961 106.727 117.08 106.706 117.175 106.665C117.272 106.622 117.368 106.542 117.464 106.424H117.478ZM117.304 106.346C117.201 106.443 117.058 106.491 116.876 106.491C116.761 106.491 116.671 106.465 116.606 106.411C116.543 106.357 116.511 106.279 116.511 106.176C116.511 106.044 116.562 105.947 116.665 105.885C116.768 105.823 116.936 105.787 117.168 105.779L117.461 105.767V105.937C117.461 106.112 117.408 106.248 117.304 106.346ZM119.092 106.727C118.813 106.727 118.596 106.643 118.442 106.476C118.29 106.308 118.213 106.07 118.213 105.764C118.213 105.449 118.291 105.206 118.446 105.034C118.602 104.862 118.824 104.776 119.112 104.776C119.204 104.776 119.297 104.786 119.39 104.806C119.483 104.825 119.555 104.848 119.608 104.874L119.518 105.116C119.454 105.091 119.383 105.071 119.307 105.055C119.231 105.037 119.163 105.029 119.105 105.029C118.712 105.029 118.516 105.273 118.516 105.76C118.516 105.991 118.564 106.169 118.659 106.292C118.755 106.416 118.897 106.478 119.085 106.478C119.246 106.478 119.411 106.444 119.58 106.376V106.629C119.451 106.694 119.288 106.727 119.092 106.727ZM120.143 106.473C120.308 106.642 120.534 106.727 120.819 106.727C120.949 106.727 121.06 106.717 121.152 106.697C121.245 106.679 121.343 106.648 121.446 106.605V106.351C121.243 106.435 121.038 106.478 120.83 106.478C120.632 106.478 120.479 106.42 120.37 106.306C120.262 106.192 120.205 106.024 120.199 105.803H121.529V105.623C121.529 105.369 121.458 105.164 121.318 105.01C121.177 104.854 120.985 104.776 120.743 104.776C120.485 104.776 120.279 104.866 120.125 105.044C119.973 105.223 119.896 105.464 119.896 105.767C119.896 106.068 119.978 106.303 120.143 106.473ZM120.368 105.163C120.461 105.064 120.585 105.015 120.74 105.015C120.893 105.015 121.01 105.063 121.092 105.159C121.174 105.254 121.215 105.392 121.215 105.571H120.206C120.223 105.397 120.277 105.261 120.368 105.163ZM83.8391 105.482C83.8391 104.582 84.4685 104.213 85.1091 104.213C85.7496 104.213 86.379 104.582 86.379 105.482C86.379 106.382 85.7496 106.75 85.1091 106.75C84.4685 106.75 83.8391 106.382 83.8391 105.482ZM85.8237 105.482C85.8237 104.642 85.3053 104.568 85.1091 104.568C84.9128 104.568 84.3945 104.642 84.3945 105.482C84.3945 106.321 84.9128 106.396 85.1091 106.396C85.3053 106.396 85.8237 106.321 85.8237 105.482ZM87.3319 106.722H86.8062V104.242H87.4874L88.3835 105.804L88.5205 106.141H88.5316L88.5205 105.701V104.242H89.0462V106.722H88.3649L87.4615 105.099L87.3319 104.823H87.3208L87.3319 105.262V106.722ZM89.565 106.722H91.1201V106.304H90.0908V104.242H89.565V106.722ZM91.631 105.708L90.6757 104.242H91.283L91.8161 105.113L91.8976 105.283H91.9087L91.9975 105.113L92.5344 104.242H93.0898L92.1568 105.715V106.722H91.631V105.708ZM94.3147 104.213C93.6742 104.213 93.0448 104.582 93.0448 105.482C93.0448 106.382 93.6742 106.75 94.3147 106.75C94.9553 106.75 95.5847 106.382 95.5847 105.482C95.5847 104.582 94.9553 104.213 94.3147 104.213ZM94.3147 104.568C94.511 104.568 95.0293 104.642 95.0293 105.482C95.0293 106.321 94.511 106.396 94.3147 106.396C94.1185 106.396 93.6002 106.321 93.6002 105.482C93.6002 104.642 94.1185 104.568 94.3147 104.568ZM96.5376 106.722H96.0119V104.242H97.4632V104.66H96.5376V105.262H97.4188V105.669H96.5376V106.722ZM97.8342 106.722H98.3599V105.669H99.2411V105.262H98.3599V104.66H99.2856V104.242H97.8342V106.722ZM100.182 106.722H99.6565V104.242H100.182V106.722ZM102.593 106.222C102.464 106.279 102.282 106.332 102.053 106.332C101.586 106.332 101.164 106.088 101.164 105.489C101.164 104.982 101.509 104.631 102.09 104.631C102.286 104.631 102.453 104.667 102.605 104.723L102.627 104.298C102.431 104.238 102.257 104.213 102.053 104.213C101.238 104.213 100.609 104.642 100.609 105.496C100.609 106.399 101.312 106.75 101.957 106.75C102.164 106.75 102.397 106.718 102.627 106.644L102.593 106.222ZM104.581 106.722H103.034V104.242H104.581V104.681H103.559V105.241H104.489V105.648H103.559V106.282H104.581V106.722Z" fill="#333333"/>
<path fill-rule="evenodd" clip-rule="evenodd" d="M338.881 77.7538C339.415 77.7538 339.852 77.317 339.852 76.7841C339.852 76.2513 339.415 75.8145 338.881 75.8145C338.348 75.8145 337.911 76.2513 337.911 76.7841C337.916 77.3218 338.348 77.7538 338.881 77.7538Z" fill="#FEFEFE"/>
<mask id="path-81-inside-2_8088_164673" fill="white">
<path fill-rule="evenodd" clip-rule="evenodd" d="M429.237 12.8389L437.441 19.5899C438.119 20.1482 438.323 21.1066 437.907 21.8925L436.582 24.4796C436.009 25.598 436.09 26.9279 436.678 28.0342C437.267 29.1458 438.328 29.9472 439.575 30.0962L442.463 30.4351C443.34 30.5405 444.026 31.2355 444.111 32.1155L445.146 42.686C445.231 43.566 444.697 44.3845 443.855 44.6511L441.086 45.5379C439.891 45.9233 439.009 46.9182 438.644 48.1169C438.279 49.3155 438.46 50.6358 439.238 51.6233L441.04 53.9075C441.588 54.6 441.577 55.5793 441.019 56.2573L434.273 64.4563C433.715 65.1343 432.756 65.3381 431.971 64.933L429.384 63.6026C428.265 63.0288 426.935 63.11 425.829 63.6983C424.723 64.2919 423.916 65.3483 423.772 66.5942L423.433 69.4824C423.327 70.3546 422.632 71.0405 421.752 71.1258L411.191 72.1486C410.317 72.2334 409.498 71.6992 409.226 70.8584L408.334 68.0894C407.949 66.8947 406.953 66.0076 405.755 65.6425C404.556 65.2774 403.235 65.4529 402.248 66.2307L399.969 68.0324C399.276 68.5755 398.297 68.5645 397.619 68.0063L389.414 61.2553C388.736 60.6971 388.537 59.7381 388.937 58.9538L390.262 56.3666C390.836 55.2482 390.76 53.9178 390.167 52.812C389.578 51.7004 388.517 50.899 387.27 50.7501L384.382 50.4111C383.505 50.3057 382.818 49.6055 382.733 48.7307L381.704 38.1597C381.619 37.2797 382.154 36.4665 382.994 36.1947L385.759 35.3083C386.953 34.9229 387.835 33.928 388.2 32.7293C388.565 31.5307 388.385 30.2104 387.607 29.2229L385.805 26.9387C385.256 26.2462 385.267 25.2669 385.826 24.5889L392.572 16.39C393.13 15.7067 394.089 15.5081 394.873 15.9132L397.461 17.2437C398.579 17.8174 399.909 17.7362 401.016 17.1479C402.122 16.5596 402.929 15.4979 403.072 14.252L403.411 11.3638C403.517 10.4916 404.212 9.80567 405.092 9.72043L415.664 8.69658C416.539 8.61185 417.357 9.14595 417.629 9.98681L418.521 12.7558C418.906 13.9505 419.902 14.8376 421.1 15.2027C422.299 15.5678 423.62 15.3923 424.607 14.6145L426.886 12.8128C427.574 12.2703 428.553 12.2812 429.237 12.8389ZM414.276 53.6545C407.168 54.112 401.035 48.7203 400.577 41.612C400.12 34.5037 405.511 28.3704 412.62 27.9129C419.728 27.4555 425.861 32.8471 426.319 39.9555C426.776 47.0638 421.384 53.1971 414.276 53.6545Z"/>
</mask>
<path d="M437.441 19.5899L438.077 18.8177L438.077 18.8179L437.441 19.5899ZM429.237 12.8389L429.869 12.0643L429.872 12.0667L429.237 12.8389ZM437.907 21.8925L437.017 21.4365L437.024 21.4249L437.907 21.8925ZM436.582 24.4796L437.472 24.9355L437.472 24.9361L436.582 24.4796ZM436.678 28.0342L437.561 27.5647L437.562 27.5661L436.678 28.0342ZM439.575 30.0962L439.458 31.0893L439.456 31.0891L439.575 30.0962ZM442.463 30.4351L442.579 29.4419L442.582 29.4422L442.463 30.4351ZM444.111 32.1155L443.116 32.2129L443.116 32.2119L444.111 32.1155ZM445.146 42.686L446.141 42.5886L446.141 42.5896L445.146 42.686ZM443.855 44.6511L443.55 43.6987L443.553 43.6978L443.855 44.6511ZM441.086 45.5379L440.779 44.5862L440.781 44.5856L441.086 45.5379ZM438.644 48.1169L439.601 48.4082L439.601 48.4082L438.644 48.1169ZM439.238 51.6233L438.453 52.2427L438.452 52.242L439.238 51.6233ZM441.04 53.9075L440.256 54.5283L440.255 54.527L441.04 53.9075ZM441.019 56.2573L440.247 55.6219L440.247 55.6217L441.019 56.2573ZM434.273 64.4563L435.045 65.0916L435.045 65.0919L434.273 64.4563ZM431.971 64.933L432.428 64.0436L432.43 64.0444L431.971 64.933ZM429.384 63.6026L429.84 62.7128L429.841 62.7132L429.384 63.6026ZM425.829 63.6983L425.356 62.8172L425.359 62.8154L425.829 63.6983ZM423.772 66.5942L424.766 66.7088L424.765 66.7108L423.772 66.5942ZM423.433 69.4824L424.427 69.599L424.426 69.603L423.433 69.4824ZM421.752 71.1258L421.849 72.1211L421.849 72.1211L421.752 71.1258ZM411.191 72.1486L411.095 71.1533L411.191 72.1486ZM409.226 70.8584L408.275 71.166L408.274 71.1651L409.226 70.8584ZM408.334 68.0894L409.286 67.7824L409.286 67.7828L408.334 68.0894ZM405.755 65.6425L405.463 66.5991L405.755 65.6425ZM402.248 66.2307L401.628 65.4462L401.629 65.4451L402.248 66.2307ZM399.969 68.0324L400.589 68.8169L400.586 68.8196L399.969 68.0324ZM397.619 68.0063L398.254 67.2341L398.254 67.2343L397.619 68.0063ZM389.414 61.2553L388.778 62.0275L388.778 62.0273L389.414 61.2553ZM388.937 58.9538L388.046 58.4995L388.047 58.4979L388.937 58.9538ZM390.262 56.3666L389.372 55.9107L389.373 55.9102L390.262 56.3666ZM390.167 52.812L389.285 53.2849L389.283 53.2801L390.167 52.812ZM387.27 50.7501L387.387 49.7569L387.389 49.7571L387.27 50.7501ZM384.382 50.4111L384.265 51.4043L384.263 51.404L384.382 50.4111ZM382.733 48.7307L383.729 48.6338L383.729 48.6343L382.733 48.7307ZM381.704 38.1597L380.709 38.2566L380.709 38.2561L381.704 38.1597ZM382.994 36.1947L382.687 35.2431L382.689 35.2424L382.994 36.1947ZM385.759 35.3083L386.066 36.26L386.064 36.2605L385.759 35.3083ZM387.607 29.2229L388.392 28.6035L388.393 28.6042L387.607 29.2229ZM385.805 26.9387L386.589 26.3179L386.59 26.3193L385.805 26.9387ZM385.826 24.5889L386.598 25.2243L386.598 25.2245L385.826 24.5889ZM392.572 16.39L393.347 17.0224L393.344 17.0253L392.572 16.39ZM394.873 15.9132L394.416 16.8026L394.415 16.8018L394.873 15.9132ZM397.461 17.2437L397.005 18.1334L397.004 18.133L397.461 17.2437ZM401.016 17.1479L400.546 16.265L400.546 16.265L401.016 17.1479ZM403.072 14.252L402.079 14.1374L402.079 14.1354L403.072 14.252ZM403.411 11.3638L402.418 11.2472L402.419 11.2433L403.411 11.3638ZM405.092 9.72043L404.996 8.72509L405.092 9.72043ZM415.664 8.69658L415.567 7.70123L415.664 8.69658ZM417.629 9.98681L418.58 9.67925L418.581 9.68015L417.629 9.98681ZM418.521 12.7558L417.569 13.0628L417.569 13.0624L418.521 12.7558ZM421.1 15.2027L420.809 16.1593L420.809 16.1593L421.1 15.2027ZM424.607 14.6145L425.227 15.399L425.226 15.4001L424.607 14.6145ZM426.886 12.8128L426.266 12.0283L426.267 12.0276L426.886 12.8128ZM436.806 20.3621L428.601 13.6111L429.872 12.0667L438.077 18.8177L436.806 20.3621ZM437.024 21.4249C437.213 21.0663 437.124 20.6237 436.806 20.3618L438.077 18.8179C439.115 19.6726 439.433 21.1469 438.791 22.36L437.024 21.4249ZM435.692 24.0237L437.017 21.4366L438.798 22.3483L437.472 24.9355L435.692 24.0237ZM435.795 28.5038C435.074 27.1479 434.95 25.4702 435.693 24.0231L437.472 24.9361C437.067 25.7257 437.105 26.708 437.561 27.5647L435.795 28.5038ZM439.456 31.0891C437.847 30.8969 436.519 29.8696 435.794 28.5023L437.562 27.5661C438.015 28.422 438.809 28.9975 439.693 29.1032L439.456 31.0891ZM442.346 31.4283L439.458 31.0893L439.691 29.103L442.579 29.4419L442.346 31.4283ZM443.116 32.2119C443.076 31.8041 442.759 31.4779 442.343 31.428L442.582 29.4422C443.921 29.603 444.976 30.6668 445.107 32.0191L443.116 32.2119ZM444.15 42.7834L443.116 32.2129L445.107 32.0182L446.141 42.5886L444.15 42.7834ZM443.553 43.6978C443.939 43.5755 444.191 43.1989 444.15 42.7824L446.141 42.5896C446.271 43.9332 445.454 45.1935 444.157 45.6044L443.553 43.6978ZM440.781 44.5856L443.55 43.6987L444.16 45.6034L441.391 46.4903L440.781 44.5856ZM437.688 47.8255C438.135 46.3552 439.234 45.0847 440.779 44.5862L441.393 46.4896C440.549 46.7619 439.883 47.4813 439.601 48.4082L437.688 47.8255ZM438.452 52.242C437.448 50.9667 437.239 49.2978 437.688 47.8255L439.601 48.4082C439.319 49.3332 439.472 50.3049 440.023 51.0046L438.452 52.242ZM440.255 54.527L438.453 52.2427L440.023 51.0039L441.825 53.2881L440.255 54.527ZM440.247 55.6217C440.506 55.3073 440.512 54.8514 440.256 54.5283L441.824 53.2868C442.665 54.3486 442.649 55.8512 441.791 56.893L440.247 55.6217ZM433.501 63.8209L440.247 55.6219L441.791 56.8927L435.045 65.0916L433.501 63.8209ZM432.43 64.0444C432.791 64.231 433.239 64.1391 433.501 63.8206L435.045 65.0919C434.19 66.1295 432.721 66.4453 431.512 65.8215L432.43 64.0444ZM429.841 62.7132L432.428 64.0436L431.514 65.8223L428.926 64.4919L429.841 62.7132ZM425.359 62.8154C426.715 62.0943 428.393 61.9704 429.84 62.7128L428.927 64.4923C428.137 64.0872 427.155 64.1256 426.298 64.5812L425.359 62.8154ZM422.779 66.4796C422.965 64.8641 424.003 63.5433 425.356 62.8172L426.302 64.5794C425.443 65.0405 424.867 65.8325 424.766 66.7088L422.779 66.4796ZM422.44 69.3659L422.779 66.4777L424.765 66.7108L424.426 69.599L422.44 69.3659ZM421.656 70.1304C422.065 70.0908 422.391 69.7721 422.441 69.3619L424.426 69.603C424.264 70.9371 423.2 71.9903 421.849 72.1211L421.656 70.1304ZM411.095 71.1533L421.656 70.1304L421.849 72.1211L411.288 73.144L411.095 71.1533ZM410.178 70.5508C410.305 70.9437 410.687 71.1928 411.095 71.1533L411.288 73.144C409.947 73.2739 408.691 72.4548 408.275 71.166L410.178 70.5508ZM409.286 67.7828L410.178 70.5517L408.274 71.1651L407.382 68.3961L409.286 67.7828ZM406.046 64.6859C407.519 65.1344 408.788 66.239 409.286 67.7824L407.382 68.3964C407.11 67.5505 406.388 66.8808 405.463 66.5991L406.046 64.6859ZM401.629 65.4451C402.907 64.4387 404.577 64.2385 406.046 64.6859L405.463 66.5991C404.535 66.3164 403.564 66.4671 402.867 67.0163L401.629 65.4451ZM399.349 67.248L401.628 65.4462L402.868 67.0151L400.589 68.8169L399.349 67.248ZM398.254 67.2343C398.569 67.4933 399.027 67.4999 399.352 67.2453L400.586 68.8196C399.525 69.651 398.024 69.6358 396.983 68.7782L398.254 67.2343ZM390.049 60.4831L398.254 67.2341L396.983 68.7785L388.778 62.0275L390.049 60.4831ZM389.828 59.408C389.64 59.7758 389.735 60.2244 390.049 60.4834L388.778 62.0273C387.737 61.1697 387.434 59.7003 388.046 58.4995L389.828 59.408ZM391.152 56.8225L389.827 59.4097L388.047 58.4979L389.372 55.9107L391.152 56.8225ZM391.048 52.339C391.778 53.6993 391.893 55.3785 391.152 56.8231L389.373 55.9102C389.779 55.1179 389.742 54.1363 389.285 53.2849L391.048 52.339ZM387.389 49.7571C388.997 49.9494 390.326 50.9766 391.05 52.3439L389.283 53.2801C388.829 52.4242 388.036 51.8487 387.151 51.743L387.389 49.7571ZM384.498 49.4179L387.387 49.7569L387.154 51.7432L384.265 51.4043L384.498 49.4179ZM383.729 48.6343C383.768 49.0385 384.087 49.3685 384.501 49.4183L384.263 51.404C382.922 51.243 381.868 50.1725 381.738 48.8271L383.729 48.6343ZM382.7 38.0628L383.729 48.6338L381.738 48.8276L380.709 38.2566L382.7 38.0628ZM383.302 37.1462C382.908 37.2737 382.66 37.6513 382.7 38.0633L380.709 38.2561C380.578 36.908 381.4 35.6592 382.687 35.2431L383.302 37.1462ZM386.064 36.2605L383.3 37.1469L382.689 35.2424L385.453 34.356L386.064 36.2605ZM389.157 33.0207C388.709 34.4911 387.611 35.7615 386.066 36.26L385.452 34.3566C386.296 34.0843 386.961 33.3649 387.244 32.438L389.157 33.0207ZM388.393 28.6042C389.397 29.8795 389.605 31.5484 389.157 33.0207L387.244 32.438C387.525 31.513 387.372 30.5413 386.821 29.8416L388.393 28.6042ZM386.59 26.3193L388.392 28.6035L386.822 29.8423L385.02 27.5581L386.59 26.3193ZM386.598 25.2245C386.339 25.5389 386.333 25.9948 386.589 26.3179L385.021 27.5594C384.18 26.4976 384.196 24.995 385.054 23.9533L386.598 25.2245ZM393.344 17.0253L386.598 25.2243L385.053 23.9535L391.8 15.7546L393.344 17.0253ZM394.415 16.8018C394.049 16.613 393.605 16.706 393.346 17.0223L391.797 15.7576C392.654 14.7074 394.128 14.4031 395.332 15.0247L394.415 16.8018ZM397.004 18.133L394.416 16.8026L395.331 15.0239L397.918 16.3543L397.004 18.133ZM401.485 18.0308C400.129 18.7519 398.452 18.8758 397.005 18.1334L397.918 16.3539C398.707 16.7591 399.689 16.7206 400.546 16.265L401.485 18.0308ZM404.066 14.3666C403.88 15.9798 402.844 17.3083 401.485 18.0308L400.546 16.265C401.4 15.8108 401.978 15.0161 402.079 14.1374L404.066 14.3666ZM404.404 11.4803L404.066 14.3685L402.079 14.1354L402.418 11.2472L404.404 11.4803ZM405.189 10.7158C404.779 10.7554 404.454 11.0741 404.404 11.4843L402.419 11.2433C402.581 9.90914 403.645 8.85592 404.996 8.72509L405.189 10.7158ZM415.76 9.69192L405.189 10.7158L404.996 8.72509L415.567 7.70123L415.76 9.69192ZM416.677 10.2944C416.55 9.90146 416.169 9.65236 415.76 9.69192L415.567 7.70123C416.909 7.57133 418.164 8.39045 418.58 9.67925L416.677 10.2944ZM417.569 13.0624L416.677 10.2935L418.581 9.68015L419.473 12.4491L417.569 13.0624ZM420.809 16.1593C419.336 15.7108 418.067 14.6062 417.569 13.0628L419.473 12.4488C419.746 13.2947 420.467 13.9644 421.392 14.2461L420.809 16.1593ZM425.226 15.4001C423.948 16.4065 422.278 16.6067 420.809 16.1593L421.392 14.2461C422.32 14.5288 423.291 14.3781 423.989 13.8289L425.226 15.4001ZM427.506 13.5972L425.227 15.399L423.987 13.8301L426.266 12.0283L427.506 13.5972ZM428.604 13.6136C428.28 13.3493 427.822 13.3487 427.506 13.5979L426.267 12.0276C427.327 11.1918 428.826 11.213 429.869 12.0643L428.604 13.6136ZM401.575 41.5478C401.997 48.105 407.655 53.0785 414.212 52.6566L414.34 54.6524C406.681 55.1454 400.072 49.3357 399.579 41.6762L401.575 41.5478ZM412.684 28.9109C406.127 29.3328 401.153 34.9906 401.575 41.5478L399.579 41.6762C399.086 34.0167 404.896 27.4079 412.555 26.915L412.684 28.9109ZM425.321 40.0197C424.899 33.4625 419.241 28.4889 412.684 28.9109L412.555 26.915C420.215 26.4221 426.824 32.2317 427.317 39.8912L425.321 40.0197ZM414.212 52.6566C420.769 52.2346 425.743 46.5769 425.321 40.0197L427.317 39.8912C427.81 47.5507 422 54.1595 414.34 54.6524L414.212 52.6566Z" fill="#CCCCCC" mask="url(#path-81-inside-2_8088_164673)"/>
<path fill-rule="evenodd" clip-rule="evenodd" d="M358.579 47.1132C358.238 48.947 357.589 51.5152 356.441 52.144C355.663 52.5761 354.472 51.8896 352.652 48.8749C354.477 48.7837 356.427 48.2461 358.161 47.3388C358.3 47.2668 358.44 47.19 358.579 47.1132ZM350.034 48.6685C349.159 49.715 348.376 50.4255 347.694 50.8911C346.681 51.5776 345.984 51.6832 345.595 51.5488C345.264 51.4288 345.096 50.8671 345.033 50.1615C344.918 48.9182 345.153 47.3676 345.341 46.5036C345.701 46.4555 346.076 46.4075 346.455 46.3691L346.647 46.638C347.454 47.6892 348.645 48.3517 350.034 48.6685Z" fill="#CCCCCC" stroke="#CCCCCC" stroke-width="0.216" stroke-miterlimit="22.9256"/>
<path fill-rule="evenodd" clip-rule="evenodd" d="M358.646 23.639C358.685 21.8244 358.617 20.3075 358.469 19.045C358.281 17.5041 357.959 16.3184 357.537 15.4207C357.224 14.7582 356.754 14.1198 356.182 13.6061C355.639 13.1117 354.996 12.7181 354.304 12.5068C353.439 12.2428 352.599 12.2956 351.782 12.5452C351.018 12.7757 350.288 13.1789 349.573 13.6493C349.217 13.8798 348.91 14.1006 348.617 14.3118C347.401 15.1807 346.431 15.8767 344.687 15.4063C344.567 15.3727 344.452 15.3151 344.356 15.2335C344.217 15.1135 344.106 14.9502 344.049 14.7582C343.986 14.5518 343.981 14.3118 344.053 14.043C344.125 13.7645 344.289 13.4621 344.553 13.1501L344.587 13.1021C344.683 12.9677 344.803 12.8333 344.942 12.6989C346.114 11.5564 348.453 10.6731 351.114 10.4907C353.795 10.3083 356.773 10.8603 359.175 12.5981C359.636 12.9293 360.073 13.3037 360.486 13.7309C361.461 14.7342 362.21 16.1311 362.6 18.0321C362.936 19.6786 363.003 21.6996 362.715 24.167C362.58 23.9222 362.417 23.7062 362.225 23.5238C361.855 23.1781 361.384 22.9669 360.827 22.9381C360.207 22.9045 359.472 23.1109 358.646 23.639Z" fill="#666666" stroke="#666666" stroke-width="0.216" stroke-miterlimit="22.9256"/>
<path fill-rule="evenodd" clip-rule="evenodd" d="M342.944 14.3838C342.079 15.3535 341.373 16.5968 340.84 18.0225C339.682 21.1331 339.341 25.1367 339.975 28.9626C340.614 32.8221 342.247 36.528 345.019 39.005C346.095 39.9651 347.344 40.7428 348.77 41.2756C348.982 41.3572 352.128 42.2405 355.865 39.029C357.709 37.4401 359.741 34.8335 361.677 30.5947L360.351 29.9899C358.516 34.0126 356.624 36.456 354.919 37.9201C351.792 40.6084 349.433 39.9651 349.279 39.9075C348.03 39.4467 346.94 38.765 345.999 37.9201C343.491 35.6783 342.012 32.2845 341.421 28.7274C340.825 25.1415 341.138 21.4068 342.209 18.5313C342.679 17.2736 343.289 16.1839 344.034 15.3535L342.944 14.3838Z" fill="#333333"/>
<path fill-rule="evenodd" clip-rule="evenodd" d="M358.613 24.6759C358.704 22.3909 358.646 20.538 358.464 19.045C358.276 17.5041 357.955 16.3184 357.532 15.4207C357.22 14.7583 356.749 14.1198 356.177 13.6062C355.635 13.1118 354.991 12.7181 354.299 12.5069C353.435 12.2429 352.594 12.2957 351.777 12.5453C351.014 12.7757 350.283 13.179 349.568 13.6494C349.212 13.8798 348.905 14.1006 348.612 14.3119C347.397 15.1807 346.426 15.8768 344.683 15.4063C344.562 15.3727 344.447 15.3151 344.351 15.2335C344.212 15.1135 344.101 14.9503 344.044 14.7583C343.981 14.5519 343.976 14.3119 344.049 14.043C344.121 13.7646 344.284 13.4622 344.548 13.1502L344.582 13.1022C344.678 12.9677 344.798 12.8333 344.937 12.6989C346.109 11.5564 348.449 10.6732 351.11 10.4907C353.79 10.3083 356.768 10.8604 359.17 12.5981C359.631 12.9293 360.068 13.3038 360.481 13.731C361.456 14.7343 362.206 16.1312 362.595 18.0322C362.955 19.8035 363.003 22.0021 362.643 24.7239L362.59 25.1367C362.407 26.5625 362.292 27.4505 361.413 28.6698C361.288 28.8427 361.144 29.0299 360.976 29.2315C360.832 29.4091 360.664 29.6011 360.472 29.8027L360.64 30.4076L361.538 30.7964C361.725 30.5948 361.913 30.3836 362.095 30.158C362.263 29.9563 362.427 29.7451 362.59 29.5195C363.68 28.0026 363.815 26.9753 364.031 25.324L364.084 24.9111C364.468 22.0213 364.41 19.6595 364.017 17.7393C363.57 15.5408 362.681 13.9038 361.519 12.7133C361.048 12.2285 360.544 11.8013 360.015 11.4172C357.306 9.45386 353.982 8.83461 350.999 9.03622C347.997 9.23784 345.307 10.2891 343.904 11.6524C343.722 11.8301 343.559 12.0173 343.414 12.2093C343.001 12.6941 342.747 13.1886 342.622 13.6638C342.478 14.2062 342.497 14.7247 342.636 15.1807C342.78 15.6512 343.049 16.0496 343.395 16.3424C343.659 16.5632 343.967 16.7265 344.293 16.8177C346.705 17.4657 347.92 16.592 349.452 15.4976C349.745 15.2911 350.048 15.0703 350.355 14.8687C350.966 14.4655 351.58 14.1246 352.19 13.9374C352.748 13.7694 353.305 13.731 353.862 13.899C354.333 14.043 354.784 14.3215 355.178 14.6815C355.606 15.0703 355.961 15.5504 356.197 16.04C356.557 16.7985 356.831 17.8353 356.999 19.2131C357.157 20.5332 357.22 22.1461 357.157 24.1095L357.527 24.6279L358.613 24.6759Z" fill="#333333"/>
<path fill-rule="evenodd" clip-rule="evenodd" d="M358.291 25.1274C359.314 24.2249 360.15 23.8745 360.784 23.9033C361.101 23.9177 361.36 24.0377 361.567 24.2249C361.788 24.4313 361.946 24.7241 362.042 25.0746C362.297 25.9866 362.105 27.2395 361.384 28.3676C361.202 28.6557 360.894 28.9773 360.52 29.2365C360.337 29.3613 360.14 29.4669 359.938 29.5437C359.175 29.827 359.554 30.667 360.015 30.5422C360.395 30.4366 360.755 30.259 361.072 30.043C361.557 29.7118 361.961 29.2797 362.206 28.8957C363.08 27.5276 363.301 25.977 362.984 24.8201C362.84 24.2969 362.585 23.8457 362.23 23.5192C361.86 23.1736 361.389 22.9624 360.832 22.9336C359.953 22.8904 358.848 23.3224 357.58 24.4553C357.128 24.8633 357.676 25.6698 358.291 25.1274Z" fill="#333333"/>
<path fill-rule="evenodd" clip-rule="evenodd" d="M360.044 25.6072C360.188 25.5784 360.313 25.5784 360.419 25.6024C360.539 25.6312 360.635 25.6984 360.692 25.7896C360.76 25.9 360.798 26.0488 360.798 26.2216C360.798 26.5817 360.649 27.0425 360.342 27.5177C360.236 27.681 360.063 27.8682 359.847 28.0122C359.765 28.0698 359.674 28.1226 359.578 28.161C359.064 28.3818 359.232 28.7994 359.645 28.6554C359.813 28.5978 359.977 28.5114 360.121 28.4154C360.39 28.233 360.616 27.993 360.75 27.7818C361.106 27.2249 361.283 26.6729 361.283 26.2216C361.283 25.9528 361.221 25.7128 361.101 25.5256C360.971 25.324 360.779 25.1848 360.524 25.1271C360.375 25.0935 360.203 25.0887 360.006 25.1175C359.367 25.2232 359.439 25.7272 360.044 25.6072Z" fill="#333333"/>
<path fill-rule="evenodd" clip-rule="evenodd" d="M359.545 46.0807L359.007 35.1694L357.546 35.2366L358.089 46.1479L359.545 46.0807Z" fill="#333333"/>
<path fill-rule="evenodd" clip-rule="evenodd" d="M347.766 46.0231L348.564 40.1714L347.118 39.9746L346.316 45.8263L347.766 46.0231Z" fill="#333333"/>
<path fill-rule="evenodd" clip-rule="evenodd" d="M358.843 45.4858L358.829 45.5674C358.632 46.902 357.988 51.2943 356.441 52.144C355.577 52.624 354.203 51.7263 352.022 47.7804L350.74 48.4813C353.454 53.3969 355.558 54.2994 357.143 53.4209C359.328 52.216 360.054 47.2716 360.275 45.7739L360.289 45.6923L358.843 45.4858Z" fill="#333333"/>
<path fill-rule="evenodd" clip-rule="evenodd" d="M344.044 45.6538C343.847 46.3643 343.415 48.5724 343.578 50.2958C343.693 51.5295 344.121 52.5712 345.11 52.9216C345.86 53.1856 347.046 53.0944 348.516 52.0959C349.505 51.4191 350.673 50.3102 351.965 48.5676L350.793 47.6988C349.606 49.2925 348.564 50.2958 347.69 50.891C346.676 51.5775 345.98 51.6831 345.591 51.5487C345.259 51.4287 345.091 50.867 345.029 50.1614C344.884 48.6445 345.273 46.6811 345.446 46.0474L344.044 45.6538Z" fill="#333333"/>
<path fill-rule="evenodd" clip-rule="evenodd" d="M349.275 28.9866C346.887 29.9322 346.047 28.8233 346.08 27.7913C346.119 26.3991 347.425 26.6776 347.161 24.4214C348.295 26.0103 345.739 27.7721 347.267 28.6025C347.593 28.7801 348.112 28.9626 349.275 28.9866Z" fill="#333333"/>
<path fill-rule="evenodd" clip-rule="evenodd" d="M347.997 32.3423C350.788 34.5937 351.801 30.5998 352.291 29.9854C352.152 34.9442 348.348 34.5985 347.997 32.3423Z" fill="#333333"/>
<path fill-rule="evenodd" clip-rule="evenodd" d="M350.178 23.6007C351.662 20.0916 355.601 22.0934 355.615 23.9703C355.428 23.7639 354.602 23.2695 354.131 23.2119C353.968 25.3 351.47 25.7369 350.797 23.5095C350.533 23.4951 350.375 23.4807 350.178 23.6007Z" fill="#333333"/>
<path fill-rule="evenodd" clip-rule="evenodd" d="M341.685 23.4518C343.035 19.8899 347.051 21.7429 347.137 23.6198C346.94 23.423 346.099 22.9574 345.624 22.919C345.542 25.012 343.059 25.54 342.305 23.3414C342.036 23.3318 341.877 23.327 341.685 23.4518Z" fill="#333333"/>
<path fill-rule="evenodd" clip-rule="evenodd" d="M308.555 46.4504C307.767 42.9509 307.969 40.938 308.267 39.4595L308.31 39.2531C308.401 38.7922 308.541 38.2786 308.67 37.7889C308.935 36.7905 309.175 35.888 309.06 35.2303C308.915 34.3999 308.435 33.9726 307.383 34.155C305.678 34.4479 304.861 36.0272 304.174 37.3473C303.809 38.053 303.502 38.6434 303.411 38.629C303.315 38.5954 303.219 38.5522 303.122 38.4994C303.017 38.4418 302.911 38.365 302.796 38.2834C302.594 38.1346 302.263 37.8417 301.854 37.4865C299.544 35.4511 295.005 31.4524 291.849 34.1214C290.974 34.8607 290.513 36.3008 290.998 38.293C291.354 39.7427 292.219 41.5332 293.818 43.5926C293.881 43.6694 294.15 43.967 294.721 44.3943C295.029 44.6199 295.437 44.8983 295.98 45.2199C296.537 45.5512 297.2 45.796 297.997 46.0936C299.193 46.5401 300.721 47.1065 302.508 48.201L303.719 47.0938C301.807 45.9225 299.765 45.1911 298.506 44.7255C297.767 44.4519 297.157 44.2215 296.724 43.967C296.239 43.679 295.869 43.4294 295.591 43.223C295.168 42.911 295.009 42.7477 294.976 42.7045C293.511 40.8132 292.728 39.2195 292.415 37.957C292.074 36.5696 292.305 35.6528 292.79 35.2399C294.981 33.387 298.895 36.8337 300.884 38.5858C301.312 38.9602 301.657 39.2675 301.922 39.4643C302.075 39.5747 302.234 39.6803 302.397 39.7763C302.575 39.8771 302.757 39.9587 302.945 40.0211C304.213 40.434 304.78 39.3395 305.462 38.0242C305.995 36.9969 306.634 35.7728 307.619 35.6C307.628 35.6 307.604 35.4127 307.614 35.4847C307.671 35.8304 307.47 36.5888 307.249 37.4289C307.119 37.9186 306.984 38.4322 306.874 38.9842L306.831 39.1907C306.494 40.8564 306.269 42.9941 307.119 46.7816L308.555 46.4504Z" fill="#333333"/>
<path fill-rule="evenodd" clip-rule="evenodd" d="M305.125 47.3438C304.433 47.6174 304.43 47.0173 303.906 47.3438C302.177 46.3309 299.669 45.143 298.506 44.711C297.767 44.4374 297.156 44.2069 296.724 43.9525C296.239 43.6645 295.869 43.4149 295.591 43.2085C295.168 42.8964 295.009 42.7332 294.976 42.69C294.841 42.5172 294.716 42.3492 294.591 42.1812C293.371 40.5106 292.694 39.0897 292.415 37.9376C292.074 36.5503 292.305 35.6334 292.79 35.2206C293.011 35.0334 293.251 34.899 293.501 34.8126C295.749 34.0445 299.092 36.9871 300.884 38.5665C301.311 38.9409 301.657 39.2481 301.922 39.445C302.075 39.5554 302.234 39.661 302.397 39.757C302.575 39.8578 302.757 39.9394 302.945 40.0018C304.213 40.4146 304.78 39.3201 305.462 38.0048C305.995 36.9775 306.634 35.7534 307.623 35.5806C307.628 35.9599 307.45 36.6511 307.249 37.4096C307.119 37.8992 306.984 38.4129 306.874 38.9649L306.831 39.1713C306.518 40.7315 306.364 43.4629 307.031 46.6984C306.349 46.8808 305.874 47.0509 305.125 47.3438Z" fill="#FEFEFE"/>
<path fill-rule="evenodd" clip-rule="evenodd" d="M351.196 88.2956C350.034 88.0844 348.914 87.6715 347.387 86.9083C346.316 86.3706 345.446 85.809 344.75 85.2425C344.154 84.7577 343.684 84.268 343.323 83.7832C343.487 85.3433 343.919 87.0619 344.495 88.7852C345.321 91.2526 346.436 93.7296 347.483 95.8034C347.987 94.4209 348.66 92.9568 349.414 91.4974C349.976 90.4126 350.581 89.3325 351.196 88.2956Z" fill="#FF6F3D" stroke="#FF6F3D" stroke-width="0.5669" stroke-miterlimit="22.9256"/>
<path fill-rule="evenodd" clip-rule="evenodd" d="M343.251 82.4102C343.237 84.2967 343.746 86.5337 344.495 88.7851C345.321 91.2525 346.436 93.7295 347.483 95.8033C347.987 94.4207 348.66 92.9566 349.414 91.4973C350.74 88.9387 352.315 86.3945 353.694 84.3591L354.823 85.1176C353.463 87.1241 351.912 89.6251 350.62 92.1214C349.611 94.0751 348.756 96.0289 348.28 97.7378L347.829 99.3652L347.027 97.877C345.768 95.5344 344.255 92.3758 343.203 89.2219C342.411 86.8457 341.873 84.4647 341.887 82.415L343.251 82.4102Z" fill="#333333"/>
<path fill-rule="evenodd" clip-rule="evenodd" d="M336.44 63.1799C334.148 66.3721 330.267 70.0156 326.136 72.5502C322.543 74.7536 318.787 76.1025 315.818 75.5313C315.492 75.4689 314.108 75.0177 311.928 71.5614C309.655 67.9563 306.711 61.2549 303.608 48.8171C304.074 48.6155 304.698 48.4283 305.352 48.2794C306.283 48.0634 307.263 47.9194 307.989 47.8666C308.45 48.9611 308.945 50.214 309.459 51.5149C311.543 56.8097 313.974 62.9879 317.961 67.1882L318.393 67.6442L318.907 67.2842C320.252 66.3481 323.84 62.1094 327.174 58.1635C329.907 54.9328 332.467 51.9037 333.341 51.2077C334.59 50.2092 336.137 49.1723 338.284 48.2938C340.355 47.4442 342.987 46.7433 346.455 46.3641L346.647 46.6329C347.786 48.1258 349.697 48.8315 351.84 48.8843C353.886 48.9323 356.168 48.3803 358.161 47.3386C358.718 47.0505 359.251 46.7241 359.751 46.3641C362.018 46.8009 365.208 48.2074 368.268 49.9932C371.356 51.7933 374.282 53.9631 375.977 55.9073C376.63 57.6834 377.404 59.6756 378.225 61.8022C382.443 72.6847 388.067 87.1963 386.021 94.7665C386.007 94.8145 385.743 95.1793 384.287 95.3761C383.346 95.5009 381.996 95.4865 380.07 95.1505C377.999 94.7905 375.233 93.9264 371.659 92.5487C368.042 91.1566 363.618 89.246 358.272 86.8074L357.666 88.1323C363.051 90.5901 367.504 92.5103 371.135 93.912C374.81 95.3281 377.668 96.2162 379.83 96.5906C381.914 96.9507 383.413 96.9651 384.489 96.821C386.804 96.509 387.395 95.3137 387.438 95.1505C389.609 87.1242 383.884 72.3534 379.589 61.2789C378.749 59.1091 377.961 57.0834 377.303 55.2832L377.255 55.1584L377.168 55.0576C375.382 52.9646 372.269 50.6364 369.002 48.7307C365.674 46.7865 362.148 45.2696 359.684 44.8712L359.376 44.8232L359.127 45.0152C358.613 45.404 358.065 45.7544 357.489 46.0521C355.706 46.9785 353.684 47.4778 351.873 47.4298C350.158 47.3866 348.66 46.8585 347.81 45.7496C347.689 45.5912 347.584 45.428 347.493 45.2552L347.262 44.8184L346.772 44.8664C342.92 45.2456 340.009 46.0089 337.732 46.9449C335.436 47.8858 333.774 48.9995 332.434 50.07C331.43 50.8717 328.831 53.9439 326.059 57.2226C323.158 60.6549 320.055 64.3224 318.561 65.6809C315.04 61.6966 312.773 55.9409 310.823 50.9821C310.256 49.5371 309.713 48.1594 309.137 46.8297L308.945 46.3881H308.464C307.643 46.3929 306.283 46.5657 305.035 46.8537C303.987 47.0985 302.988 47.4298 302.373 47.8234L301.936 48.1066L302.061 48.6107C305.26 61.5861 308.335 68.5755 310.703 72.339C313.2 76.3042 315.098 76.8802 315.554 76.9666C318.917 77.6147 323.028 76.1697 326.905 73.7935C331.233 71.1389 335.311 67.2986 337.698 63.9335C338.51 62.791 337.304 61.9798 336.44 63.1799Z" fill="#333333"/>
<path fill-rule="evenodd" clip-rule="evenodd" d="M375.972 55.9025C376.625 57.6786 377.399 59.6708 378.22 61.7974C382.438 72.6799 388.063 87.1915 386.016 94.7617C386.002 94.8097 385.738 95.1745 384.282 95.3713C383.341 95.4961 381.991 95.4817 380.065 95.1457C377.994 94.7857 375.228 93.9216 371.654 92.5439C368.205 91.2142 364.021 89.414 359.002 87.1338C359.583 86.7018 360.106 86.1834 360.567 85.6073C360.913 85.1753 361.221 84.7144 361.495 84.2296C363.627 84.8825 366.769 85.6073 369.833 86.169C372.586 86.6778 375.285 87.057 377.149 87.1434C378.302 87.1963 378.46 85.7417 377.163 85.6793C377.01 85.6697 376.856 85.6649 376.693 85.6505C376.112 84.9305 374.656 82.4919 373.215 79.8708C371.846 77.3746 370.506 74.7392 369.968 73.2751C370.016 70.9853 370.131 68.6667 370.309 66.3145C370.395 65.1864 368.945 64.9512 368.853 66.1801C368.613 69.3388 368.488 72.4686 368.484 75.5841C368.479 78.5939 368.589 81.5606 368.805 84.4936C366.322 84.004 363.945 83.3982 362.187 82.875C357.147 82.125 346.353 73.0349 345.105 64.3125C344.672 61.2875 347.114 49.125 351.125 49.125C352.437 52.9214 356.254 53.9199 357.147 53.4255C359.069 52.3646 359.75 48.0788 360.062 46.125C362.812 47.1875 365.39 48.3179 368.263 49.9932C371.351 51.7885 374.277 53.9583 375.972 55.9025ZM345.5 68.4651C345.5 68.4651 348.064 54.2223 347.978 53.8671C347.877 53.4447 347.781 53.0174 347.689 52.5806C346.599 53.1182 345.71 53.1375 345.105 52.9214C344.116 52.571 343.693 51.5293 343.573 50.2956C343.462 49.1243 343.626 47.737 343.803 46.7385C341.594 47.1322 339.788 47.6746 338.279 48.2891C336.132 49.1675 334.585 50.2044 333.337 51.2029C332.462 51.8989 329.902 54.928 327.169 58.1587C323.835 62.0998 320.247 66.3433 318.902 67.2794L318.388 67.6394L317.956 67.1834C313.974 62.9831 311.538 56.805 309.454 51.5101C308.94 50.2092 308.45 48.9563 307.984 47.8618C307.258 47.9098 306.283 48.0586 305.347 48.2746C304.693 48.4283 304.069 48.6107 303.603 48.8123C306.711 61.2549 309.651 67.9515 311.923 71.5566C314.099 75.0128 315.482 75.4641 315.813 75.5265C318.782 76.0977 322.534 74.7488 326.131 72.5454C330.262 70.0108 334.144 66.3721 336.435 63.1751C337.299 61.9702 338.505 62.7814 337.688 63.9287C336.853 65.1 335.815 66.3337 334.633 67.553L334.585 68.4651L334.537 69.5836C334.388 74.0144 334.422 82.9767 334.888 91.4446C335.205 97.2051 335.714 102.73 336.492 106.412C341.594 109.292 347.358 110.565 353.06 110.809C360.236 111.117 367.331 109.806 372.936 108.04C372.274 105.62 371.688 103.23 371.174 100.853C370.636 98.362 370.179 95.8706 369.805 93.384C366.591 92.1071 362.625 90.0625 358.334 88.4347C354.043 86.807 345.5 68.4651 345.5 68.4651Z" fill="#EFEFEF"/>
<path fill-rule="evenodd" clip-rule="evenodd" d="M377.38 55.3846L377.285 55.125L379.619 61.2553L379.384 60.6481L379.384 60.6469C378.65 58.7467 377.966 56.9773 377.38 55.3846ZM379.634 61.2948L379.619 61.2568L377.017 58.6754C377.327 59.4851 377.651 60.3246 377.985 61.1881L378.22 61.7973L378.223 61.8039C382.44 72.6856 388.062 87.1929 386.016 94.7616C386.002 94.8096 385.738 95.1745 384.282 95.3713C383.341 95.4961 381.991 95.4817 380.065 95.1456C377.994 94.7856 375.228 93.9216 371.654 92.5438C371.493 92.4818 371.331 92.4188 371.166 92.3547C370.896 92.2492 370.622 92.1409 370.343 92.0298C367.534 90.9114 364.278 89.5109 360.528 87.8238C360.028 87.5989 359.519 87.3689 359.002 87.1338L359.046 87.1007C359.463 86.7858 359.85 86.4262 360.206 86.0328C360.33 85.8949 360.451 85.7529 360.567 85.6073C360.904 85.1865 361.205 84.7383 361.473 84.2673L361.495 84.2295C361.581 84.2562 361.67 84.2829 361.76 84.3097L361.88 84.3452C363.676 84.873 366.075 85.4379 368.524 85.92C368.96 86.0058 369.398 86.089 369.833 86.1689C370.036 86.2064 370.239 86.2432 370.441 86.2793C372.415 86.6314 374.332 86.91 375.898 87.0542C376.128 87.0753 376.35 87.0936 376.564 87.1087C376.708 87.1189 376.848 87.1277 376.984 87.1351L377.072 87.1397L377.093 87.1407L377.149 87.1434C378.286 87.1955 378.456 85.7819 377.217 85.6827C377.2 85.6813 377.181 85.6801 377.164 85.6793C377.131 85.6772 377.098 85.6754 377.065 85.6736L377.004 85.6704C376.902 85.6652 376.8 85.6599 376.693 85.6505C376.683 85.6381 376.673 85.6253 376.662 85.6119C376.062 84.8468 374.631 82.4469 373.215 79.8708C371.878 77.4334 370.569 74.8632 370.007 73.3804C370 73.3603 369.992 73.3403 369.985 73.3206C369.979 73.3053 369.973 73.2901 369.968 73.275C370.015 71.0227 370.127 68.7424 370.3 66.4297L370.309 66.3145L370.311 66.2908L370.311 66.2883C370.373 65.1828 368.944 64.9607 368.853 66.18L368.852 66.2028L368.852 66.2044L368.839 66.3679C368.667 68.6734 368.557 70.9637 368.51 73.2445C368.507 73.3748 368.504 73.5051 368.502 73.6353C368.491 74.2856 368.485 74.9351 368.484 75.584C368.48 78.0646 368.554 80.5158 368.701 82.943C368.732 83.445 368.765 83.9459 368.802 84.4459L368.805 84.4936C368.29 84.392 367.78 84.2855 367.279 84.1757C365.363 83.7562 363.581 83.2897 362.187 82.8749C362.101 82.8621 362.013 82.8468 361.923 82.8291C361.558 82.7569 361.165 82.6447 360.751 82.4955C357.662 81.3823 353.372 78.2086 350.046 74.208C348.603 72.4722 347.342 70.5807 346.44 68.6343C346.363 68.4671 346.288 68.2995 346.216 68.1316C346.051 67.7483 345.901 67.3632 345.766 66.9771C345.901 66.2244 346.077 65.2389 346.27 64.1457C346.387 63.4878 346.51 62.7908 346.634 62.0821C346.875 60.7061 347.122 59.2858 347.338 58.0209C347.651 56.1831 347.897 54.6733 347.962 54.1039C347.978 53.9716 347.983 53.8901 347.978 53.8671C347.877 53.4446 347.781 53.0174 347.689 52.5805C347.648 52.6011 347.606 52.6208 347.565 52.6399L347.583 52.6028C347.602 52.5622 347.621 52.5219 347.641 52.4818C347.995 51.747 348.383 51.0918 348.8 50.5597C349.091 50.188 349.396 49.8763 349.716 49.6394C349.74 49.6215 349.764 49.6041 349.788 49.5871C350.211 49.2902 350.657 49.1249 351.125 49.1249C352.437 52.9214 356.254 53.9199 357.147 53.4254C358.66 52.5901 359.404 49.7554 359.805 47.634C359.912 47.0667 359.994 46.5505 360.06 46.1371L360.062 46.1249C360.543 46.3106 361.018 46.4984 361.491 46.6907C363.722 47.5991 365.892 48.6106 368.263 49.9931L369.018 48.6974L369.017 48.6969C366.054 46.9687 363.398 45.8057 360.603 44.7257L358.874 44.0576L358.581 45.8882C358.423 46.8765 358.189 48.3342 357.776 49.6654C357.57 50.3294 357.335 50.9088 357.074 51.3565C356.861 51.7214 356.671 51.9304 356.526 52.0428C356.465 52.0419 356.376 52.0354 356.259 52.0161C355.93 51.9616 355.485 51.8223 355.004 51.5636C354.054 51.0515 353.058 50.125 352.542 48.6348L352.193 47.6249H351.125C349.324 47.6249 348.028 48.965 347.18 50.2445C346.932 50.6197 346.697 51.0263 346.476 51.4557C345.995 51.6002 345.71 51.5447 345.609 51.5087L345.606 51.5074C345.528 51.4799 345.44 51.4272 345.337 51.2341C345.219 51.0128 345.115 50.6585 345.066 50.1524C344.975 49.1824 345.111 47.953 345.28 47.0013L345.657 44.8846L343.54 45.2617C341.234 45.6726 339.326 46.2431 337.713 46.8998L337.711 46.9007C335.405 47.8444 333.736 48.9634 332.401 50.0306C331.833 50.4832 330.875 51.5361 329.82 52.743C328.739 53.9799 327.435 55.5219 326.096 57.1039L326.024 57.1899L326.01 57.2062C324.344 59.1757 322.631 61.2004 321.168 62.8505C320.434 63.6778 319.773 64.3989 319.22 64.9651C318.961 65.2296 318.74 65.4457 318.556 65.6166C315.094 61.6834 312.867 56.0855 310.849 50.9605L310.849 50.9589L310.67 50.5071C310.222 49.372 309.784 48.261 309.364 47.2742L308.947 46.2947L307.885 46.365C307.064 46.4193 306.008 46.5826 305.01 46.8129L305.003 46.8144C304.318 46.9755 303.594 47.1819 303.007 47.4356L301.839 47.941L302.148 49.1757C305.273 61.6885 308.26 68.5588 310.654 72.3563C312.92 75.9553 314.601 76.8232 315.533 76.9999C319.079 77.6812 323.249 76.0695 326.915 73.8246L326.916 73.8239C329.086 72.4922 331.191 70.8683 333.055 69.1518L333.039 69.5192L333.038 69.5332C332.888 74.0117 332.922 83.0185 333.39 91.527C333.708 97.2954 334.221 102.919 335.025 106.722L335.165 107.385L335.755 107.718C341.112 110.743 347.122 112.056 352.995 112.308C360.382 112.624 367.654 111.277 373.387 109.47L374.765 109.036L374.383 107.643C373.727 105.249 373.148 102.885 372.64 100.536C372.173 98.3773 371.769 96.2187 371.428 94.0637C374.881 95.3833 377.655 96.249 379.808 96.6235C381.835 96.9771 383.345 97.0087 384.479 96.8583L384.483 96.8577C385.309 96.7461 385.907 96.5734 386.347 96.3589C386.57 96.2504 386.77 96.1223 386.94 95.9706C387.025 95.895 387.111 95.807 387.188 95.7052C387.241 95.6372 387.374 95.456 387.453 95.1929L387.459 95.173L387.464 95.153C388.046 92.9995 388.06 90.4584 387.744 87.7722C387.426 85.0703 386.762 82.1237 385.911 79.1135C384.214 73.1134 381.734 66.714 379.634 61.2948ZM347.565 52.6399C347.084 52.8633 346.643 52.9847 346.251 53.0297C346.075 53.0498 345.91 53.0546 345.754 53.0464C345.512 53.0335 345.295 52.989 345.105 52.9214C344.116 52.5709 343.693 51.5293 343.573 50.2956C343.513 49.6627 343.533 48.9668 343.593 48.3032C343.643 47.7386 343.722 47.1975 343.803 46.7385C343.255 46.8361 342.732 46.943 342.232 47.0578C340.716 47.4057 339.413 47.827 338.279 48.289C336.132 49.1675 334.585 50.2043 333.337 51.2028C332.469 51.8932 329.944 54.8785 327.236 58.0792L327.147 58.1842C323.82 62.1181 320.244 66.3453 318.902 67.2793L318.388 67.6394L317.956 67.1833C313.974 62.983 311.538 56.8049 309.454 51.5101L309.275 51.0576C308.826 49.9194 308.395 48.8288 307.984 47.8618C307.258 47.9098 306.283 48.0586 305.347 48.2746C304.693 48.4282 304.069 48.6106 303.603 48.8122C306.711 61.2549 309.651 67.9514 311.923 71.5565C314.099 75.0128 315.482 75.464 315.813 75.5264C318.782 76.0977 322.534 74.7488 326.131 72.5454C328.674 70.9855 331.121 69.0075 333.162 66.9716C333.306 66.8279 333.448 66.6839 333.588 66.5398C334.687 65.4077 335.653 64.2656 336.435 63.175C336.444 63.1621 336.453 63.1494 336.463 63.1369C336.476 63.1191 336.49 63.1018 336.503 63.0849L336.504 63.0835C337.362 62.0133 338.483 62.8117 337.689 63.9287L337.619 64.025L337.611 64.037C336.789 65.1759 335.779 66.3712 334.634 67.553L334.585 68.465L334.537 69.5835C334.389 74.0143 334.422 82.9766 334.888 91.4445C335.205 97.205 335.714 102.73 336.492 106.412C341.594 109.292 347.358 110.564 353.06 110.809C360.236 111.117 367.331 109.806 372.936 108.039C372.274 105.62 371.688 103.23 371.174 100.853C370.639 98.3783 370.185 95.9033 369.812 93.433L369.805 93.3839C368.423 92.8349 366.902 92.1439 365.276 91.4051C363.139 90.4345 360.821 89.3815 358.399 88.4595L358.334 88.4347C357.794 88.2299 357.187 87.7604 356.538 87.0962C354.095 84.5967 351.06 79.339 348.791 75.0443C346.871 71.4098 345.5 68.465 345.5 68.465C345.5 68.465 345.603 67.8937 345.766 66.9771C345.458 66.0912 345.232 65.1999 345.105 64.3124C345.026 63.7615 345.043 62.9074 345.147 61.8789C345.269 60.6653 345.514 59.2089 345.867 57.721C346.128 56.6217 346.449 55.5051 346.823 54.4568C346.864 54.3429 346.905 54.2299 346.947 54.1178L346.949 54.1126C347.142 53.599 347.347 53.1046 347.565 52.6399ZM357.622 86.0593C357.667 86.1054 357.711 86.1496 357.754 86.192L358.107 85.9299C358.574 85.5829 359.006 85.1572 359.396 84.6698C359.612 84.4006 359.812 84.1155 359.997 83.8153C358.957 83.4156 357.86 82.8405 356.769 82.1546C355.468 81.3369 354.115 80.3236 352.794 79.1651C353.769 80.8251 354.773 82.4159 355.735 83.7507C356.413 84.6918 357.05 85.476 357.622 86.0593ZM374.712 85.4168C373.385 85.2535 371.877 85.0173 370.327 84.7345L370.301 84.3833C370.121 81.9342 370.015 79.4616 369.99 76.9598C370.569 78.1218 371.238 79.3852 371.9 80.5921L371.901 80.5935C372.628 81.9171 373.362 83.1988 373.99 84.2455C374.243 84.6659 374.487 85.0633 374.712 85.4168Z" fill="#333333"/>
<path fill-rule="evenodd" clip-rule="evenodd" d="M368.854 66.1803C368.613 69.339 368.489 72.4688 368.484 75.5843C368.479 78.9301 368.613 82.2184 368.882 85.4683L370.343 85.3483C370.074 82.0984 369.939 78.8485 369.944 75.5843C369.949 72.5504 370.069 69.4686 370.314 66.3195C370.396 65.1914 368.945 64.9514 368.854 66.1803ZM369.757 93.0433L371.202 92.8321C371.587 95.4051 372.053 97.9781 372.61 100.561C373.167 103.153 373.811 105.745 374.536 108.337L374.723 109.009L374.061 109.225C368.22 111.146 360.668 112.605 353.002 112.278C346.974 112.019 340.878 110.651 335.484 107.526L335.21 107.368L335.138 107.051C334.297 103.283 333.755 97.5221 333.428 91.5264C332.962 83.0249 332.924 74.0145 333.077 69.5454L333.125 68.4029L333.188 67.2028L334.648 67.294L334.586 68.4701L334.538 69.5886C334.389 74.0193 334.422 82.9817 334.888 91.4496C335.205 97.21 335.714 102.735 336.493 106.417C341.594 109.297 347.358 110.57 353.06 110.814C360.236 111.122 367.331 109.811 372.937 108.045C372.274 105.625 371.688 103.235 371.174 100.858C370.621 98.2517 370.146 95.6499 369.757 93.0433Z" fill="#333333"/>
<path fill-rule="evenodd" clip-rule="evenodd" d="M382.971 236.57C381.828 237.861 380.377 239.248 378.888 240.669C376.477 242.974 373.969 245.369 372.716 247.419C371.774 248.96 371.601 250.294 372.937 251.173C373.748 251.273 376.65 250.049 380.012 248.35C383.773 246.449 388.01 243.953 390.609 241.98C390.628 241.961 390.681 241.922 390.7 241.913C390.753 241.874 390.839 241.817 390.94 241.73C391.478 241.265 392.328 240.002 389.696 236.944L390.806 235.994C394.302 240.06 392.789 242.062 391.886 242.839C391.757 242.95 391.627 243.041 391.54 243.103L391.473 243.151C388.793 245.182 384.484 247.726 380.67 249.651C376.899 251.557 373.513 252.872 372.447 252.56L372.355 252.536L372.274 252.483C369.901 251.038 370.05 248.984 371.472 246.66C372.826 244.447 375.401 241.985 377.884 239.613C379.354 238.207 380.79 236.839 381.881 235.605L382.971 236.57Z" fill="#333333"/>
<path fill-rule="evenodd" clip-rule="evenodd" d="M342.026 235.615C340.552 236.22 338.755 236.839 336.92 237.468C333.231 238.73 329.384 240.05 327.174 241.663C325.214 243.099 324.455 244.74 325.906 246.713L325.963 246.79L326.04 246.852C326.919 247.558 331.276 247.673 336.19 247.371C340.945 247.078 346.306 246.435 349.476 245.595L349.553 245.576C350.288 245.412 353.252 244.736 351.835 239.522C351.782 239.33 351.398 238.485 351.042 237.689C350.749 237.04 350.471 236.421 350.437 236.325L349.049 236.781C349.097 236.93 349.395 237.593 349.712 238.289C350.048 239.037 350.408 239.83 350.428 239.902C351.446 243.655 349.673 244.054 349.236 244.15L349.131 244.174C346.052 244.99 340.792 245.619 336.108 245.907C331.656 246.18 327.798 246.176 327.025 245.748C326.309 244.678 326.833 243.718 328.048 242.83C330.07 241.351 333.812 240.07 337.405 238.836C339.231 238.212 341.022 237.597 342.593 236.949L342.026 235.615Z" fill="#333333"/>
<path fill-rule="evenodd" clip-rule="evenodd" d="M378.888 240.669C376.477 242.974 373.969 245.369 372.716 247.419C371.774 248.96 371.601 250.294 372.937 251.173C373.748 251.273 376.65 250.049 380.012 248.35C383.773 246.449 388.01 243.953 390.609 241.98C390.628 241.961 390.681 241.922 390.7 241.913C390.753 241.874 390.839 241.817 390.94 241.73C391.233 241.481 391.612 241.001 391.488 240.132C391.396 239.469 391.007 238.576 390.061 237.386C389.076 237.813 387.832 237.996 386.588 237.962C385.137 237.924 383.648 237.597 382.563 237.026C381.66 238.01 380.598 239.037 379.498 240.093C379.292 240.285 379.09 240.477 378.888 240.669Z" fill="#FEFEFE"/>
<path fill-rule="evenodd" clip-rule="evenodd" d="M350.418 239.906C350.442 239.992 350.466 240.079 350.485 240.165C351.355 243.679 349.654 244.063 349.227 244.159L349.121 244.183C346.042 244.999 340.782 245.628 336.099 245.916C331.646 246.19 327.789 246.185 327.015 245.758C326.3 244.687 326.823 243.727 328.038 242.839C329.268 241.937 331.142 241.111 333.226 240.324C334.566 239.82 335.988 239.33 337.396 238.85C339.029 238.288 340.633 237.741 342.079 237.165C342.977 237.755 344.366 238.365 345.96 238.471C347.065 238.543 348.271 238.375 349.476 237.794C349.548 237.952 349.625 238.125 349.702 238.293C350.038 239.042 350.394 239.834 350.418 239.906Z" fill="#FEFEFE"/>
<path fill-rule="evenodd" clip-rule="evenodd" d="M371.159 110.099C374.546 121.173 378.331 141.177 381.645 163.796C386.425 187.092 389.504 213.331 389.46 235.562C388.581 236.047 387.299 236.33 386.021 236.359C384.753 236.388 383.523 236.176 382.74 235.682C381.64 231.496 377.207 213.519 371.25 192.666C366.226 175.067 359.621 155.952 356.153 142.545L354.765 137.48C354.679 150.072 353.833 163.297 353.286 171.875C353.122 174.458 352.983 176.618 352.896 178.264C352.892 178.375 352.896 178.797 352.906 179.503C352.988 185.614 353.353 213.629 349.015 236.388C347.997 236.92 346.974 237.074 346.042 237.016C344.774 236.935 343.664 236.46 342.939 235.989C342.857 229.408 342.636 219.951 342.017 209.87C341.382 199.564 340.321 188.571 338.553 179.253C338.409 178.495 335.748 163.239 335.594 142.602C335.517 132.291 336.07 120.636 337.876 108.774C342.646 111.016 347.848 112.048 352.997 112.273C359.453 112.552 365.823 111.563 371.159 110.099Z" fill="#404040" stroke="#404040" stroke-width="0.216" stroke-miterlimit="22.9256"/>
<path fill-rule="evenodd" clip-rule="evenodd" d="M354.77 137.336C354.688 149.971 353.838 163.263 353.29 171.875C353.127 174.458 352.988 176.618 352.901 178.264C352.897 178.375 352.901 178.797 352.911 179.503C352.993 185.614 353.358 213.629 349.02 236.387C348.002 236.92 346.979 237.074 346.047 237.016C344.779 236.935 343.669 236.459 342.944 235.989C342.862 229.408 342.641 219.951 342.021 209.87C341.387 199.564 340.326 188.571 338.558 179.253C338.414 178.495 335.753 163.239 335.599 142.602C335.522 132.003 336.104 119.992 338.035 107.794L336.594 107.569C334.653 119.843 334.067 131.94 334.144 142.602C334.297 163.378 336.978 178.749 337.122 179.512C338.88 188.763 339.932 199.693 340.566 209.947C341.2 220.234 341.416 229.82 341.493 236.378L341.498 236.738L341.786 236.954C342.656 237.602 344.178 238.351 345.96 238.466C347.243 238.548 348.655 238.308 350.053 237.482L350.336 237.314L350.399 236.992C354.828 214.042 354.453 185.647 354.376 179.479C354.366 178.826 354.362 178.427 354.366 178.331C354.448 176.776 354.587 174.582 354.756 171.961C355.236 164.463 355.942 153.427 356.168 142.338L354.77 137.336Z" fill="#333333"/>
<path fill-rule="evenodd" clip-rule="evenodd" d="M346.364 123.367C347.296 124.202 348.348 124.947 349.515 125.494C350.721 126.055 352.056 126.415 353.507 126.459L354.097 126.478L354.165 127.059C356.057 143.284 361.182 159.365 367.235 178.341C372.403 194.552 378.244 212.875 383.331 235.212C384.234 235.62 385.214 235.72 386.17 235.653C387.083 235.586 387.981 235.36 388.769 235.087C388.601 228.467 388.221 218.453 387.366 207.816C386.761 200.265 385.92 192.421 384.748 185.302C384.585 184.318 384.427 183.382 384.263 182.489C384.1 181.586 383.927 180.698 383.754 179.829C383.615 179.148 383.432 178.289 383.25 177.453C382.769 175.231 382.327 173.195 382.078 170.661C381.91 168.947 381.722 167.18 381.52 165.38C381.314 163.532 381.098 161.761 380.882 160.057C379.681 150.71 378.144 141.638 376.41 133.299C374.608 124.649 372.591 116.805 370.511 110.296L371.803 109.888C373.897 116.455 375.929 124.342 377.735 133.026C379.479 141.378 381.021 150.489 382.227 159.889C382.462 161.722 382.678 163.508 382.875 165.231C383.067 166.945 383.254 168.712 383.432 170.531C383.668 172.951 384.105 174.967 384.58 177.16C384.729 177.852 384.883 178.567 385.085 179.561C385.262 180.439 385.435 181.337 385.599 182.244C385.772 183.209 385.94 184.15 386.089 185.076C387.265 192.258 388.116 200.135 388.721 207.705C389.595 218.583 390.633 229.326 390.796 235.984L390.806 236.465L390.354 236.637C388.173 237.463 383.586 237.977 381.938 235.908L381.871 235.6C376.775 213.159 371.121 195.004 365.938 178.745C359.934 159.908 354.837 143.918 352.877 127.774C351.451 127.659 350.139 127.275 348.934 126.713C347.608 126.094 346.421 125.254 345.389 124.313C344.471 123.478 345.446 122.542 346.364 123.367Z" fill="#333333"/>
<path fill-rule="evenodd" clip-rule="evenodd" d="M351.869 47.425C353.675 47.4682 355.702 46.9737 357.484 46.0472C357.681 45.9464 357.873 45.836 358.065 45.7208L357.642 37.2241C357.037 37.9394 356.442 38.5346 355.865 39.0291C352.123 42.2453 348.982 41.3573 348.77 41.2757C348.655 41.2324 348.54 41.1892 348.429 41.1412L347.8 45.7352C347.8 45.7352 347.8 45.74 347.805 45.74C348.655 46.8537 350.154 47.3865 351.869 47.425Z" fill="#FEFEFE"/>
<path fill-rule="evenodd" clip-rule="evenodd" d="M350.178 23.6007C351.662 20.0916 355.601 22.0934 355.615 23.9703C355.428 23.7639 354.602 23.2694 354.131 23.2118C353.968 25.3 351.47 25.7369 350.797 23.5095C350.528 23.4951 350.375 23.4807 350.178 23.6007ZM349.28 39.9076C349.433 39.9652 351.792 40.6085 354.919 37.9203C356.552 36.5185 358.353 34.224 360.107 30.5132C360.078 30.5228 360.044 30.5324 360.015 30.5421C359.554 30.6669 359.175 29.8316 359.938 29.5436C360.14 29.4668 360.342 29.3612 360.52 29.2363C360.899 28.9771 361.202 28.6555 361.384 28.3675C362.105 27.2394 362.292 25.9865 362.042 25.0744C361.946 24.724 361.783 24.4263 361.567 24.2247C361.365 24.0327 361.101 23.9175 360.784 23.9031C360.15 23.8743 359.309 24.2199 358.291 25.1272C357.724 25.6312 357.22 24.9832 357.494 24.5608L357.176 24.1143C357.239 22.151 357.176 20.538 357.018 19.2179C356.85 17.8402 356.576 16.8033 356.216 16.0449C355.985 15.5552 355.63 15.0752 355.197 14.6863C354.804 14.3263 354.352 14.0479 353.881 13.9039C353.324 13.7311 352.762 13.7743 352.21 13.9423C351.6 14.1295 350.985 14.4703 350.375 14.8736C350.067 15.0752 349.765 15.2912 349.472 15.5024C347.944 16.5969 346.729 17.4658 344.313 16.8225C343.986 16.7361 343.679 16.5729 343.415 16.3473C343.386 16.3233 343.357 16.2993 343.333 16.2753C342.896 16.9377 342.521 17.701 342.204 18.5411C341.133 21.4213 340.821 25.1512 341.416 28.7371C342.007 32.2942 343.487 35.6881 345.994 37.9299C346.94 38.7651 348.031 39.4468 349.28 39.9076ZM360.044 25.6072C359.439 25.7273 359.372 25.2232 360.006 25.1176C360.198 25.0888 360.371 25.0888 360.525 25.1272C360.779 25.1848 360.971 25.324 361.101 25.5256C361.221 25.7129 361.283 25.9529 361.283 26.2217C361.283 26.6681 361.111 27.225 360.75 27.7818C360.616 27.993 360.39 28.2331 360.121 28.4155C359.977 28.5163 359.818 28.5979 359.645 28.6555C359.232 28.7995 359.064 28.3819 359.578 28.1611C359.669 28.1226 359.761 28.0698 359.847 28.0122C360.063 27.8682 360.236 27.681 360.342 27.5178C360.649 27.0378 360.798 26.5817 360.798 26.2217C360.798 26.0441 360.765 25.8953 360.693 25.7897C360.63 25.6937 360.539 25.6312 360.419 25.6024C360.313 25.5784 360.188 25.5784 360.044 25.6072ZM341.685 23.4519C343.035 19.89 347.051 21.7429 347.137 23.6199C346.94 23.4231 346.1 22.9574 345.624 22.919C345.542 25.012 343.059 25.54 342.305 23.3415C342.036 23.3319 341.877 23.3271 341.685 23.4519ZM347.997 32.3422C350.788 34.5936 351.801 30.5997 352.291 29.9852C352.152 34.944 348.348 34.5984 347.997 32.3422ZM347.267 28.6027C347.594 28.7803 348.117 28.9627 349.275 28.9867C346.887 29.9324 346.047 28.8235 346.08 27.7914C346.119 26.3993 347.425 26.6777 347.161 24.4215C348.295 26.0057 345.735 27.7722 347.267 28.6027Z" fill="#FEFEFE"/>
<path d="M319.673 60.93C316.952 56.4988 316.72 51.2436 318.583 46.7831C319.003 47.4672 319.423 48.1512 319.843 48.835L319.844 48.8364C320.507 49.9156 321.17 50.9943 321.832 52.0731L321.832 52.074C323.895 55.4287 328.324 56.491 331.681 54.4269C331.681 54.4268 331.681 54.4268 331.681 54.4267L334.927 52.4329L334.927 52.4327C338.283 50.3691 339.344 45.94 337.28 42.5782C336.502 41.3066 335.719 40.032 334.936 38.7572C334.636 38.2684 334.336 37.7795 334.036 37.2908C338.856 37.6414 343.441 40.23 346.162 44.6572C349.704 50.4244 349.03 57.594 345.006 62.5689L344.674 62.9802L344.949 63.4316C346.483 65.9419 348.005 68.4651 349.528 70.9906C352.63 76.1341 355.738 81.287 358.965 86.3588L358.965 86.3594C360.003 87.9875 360.322 89.3553 360.126 90.4655C359.934 91.5579 359.215 92.5563 357.839 93.4014L357.839 93.4014L357.829 93.4077C357.123 93.8566 356.004 94.3104 354.819 94.2171C353.687 94.1277 352.377 93.5298 351.229 91.6521C348.853 87.7662 346.477 83.8803 344.1 79.9946L344.09 79.9779C341.717 76.0977 339.343 72.2175 336.972 68.3373L336.694 67.8837L336.174 67.9952C329.913 69.3377 323.215 66.697 319.673 60.93Z" fill="#FF6F3D" stroke="#333333" stroke-width="1.5"/>
<path d="M361.011 84.3797C361.039 84.8431 360.816 85.4526 360.262 86.1682C359.72 86.869 358.925 87.5863 357.988 88.2407C356.096 89.5622 353.786 90.5168 352.121 90.6172C350.656 90.7055 349.508 89.8366 348.654 88.4438C347.799 87.0485 347.34 85.2644 347.258 83.9144C347.203 82.9978 347.937 82.1822 349.583 81.5258C351.162 80.8962 353.241 80.5676 355.055 80.4583C356.693 80.3595 358.176 80.964 359.268 81.8197C360.395 82.7024 360.972 83.7376 361.011 84.3797Z" fill="white" stroke="#333333" stroke-width="1.5"/>
<defs>
<linearGradient id="paint0_linear_8088_164673" x1="179.276" y1="111.869" x2="173.721" y2="117.641" gradientUnits="userSpaceOnUse">
<stop stop-color="#FF8E3D"/>
<stop offset="1" stop-color="#FF6F3D"/>
</linearGradient>
<linearGradient id="paint1_linear_8088_164673" x1="197.585" y1="117.19" x2="197.397" y2="119.174" gradientUnits="userSpaceOnUse">
<stop stop-color="#FF8E3D"/>
<stop offset="1" stop-color="#FF6F3D"/>
</linearGradient>
<linearGradient id="paint2_linear_8088_164673" x1="194.535" y1="144.182" x2="196.355" y2="149.056" gradientUnits="userSpaceOnUse">
<stop stop-color="#FF8E3D"/>
<stop offset="1" stop-color="#FF6F3D"/>
</linearGradient>
<clipPath id="clip0_8088_164673">
<rect width="46.2871" height="46.2871" fill="white" transform="translate(163.229 105.4)"/>
</clipPath>
</defs>
</svg>
