<svg width="448" height="360" viewBox="0 0 448 360" fill="none" xmlns="http://www.w3.org/2000/svg">
<path fill-rule="evenodd" clip-rule="evenodd" d="M424.85 278.058C422.42 281.538 414.35 276.848 407.63 272.148C400.91 267.448 394.5 262.068 396.93 258.588C399.36 255.108 404.35 250.078 411.07 254.778C417.79 259.478 427.29 274.578 424.85 278.058Z" fill="white" stroke="#333333" stroke-width="1.5" stroke-miterlimit="10" stroke-linecap="round" stroke-linejoin="round"/>
<path d="M182.67 77.3381H162.68V117.898H182.67V77.3381Z" fill="white" stroke="#333333" stroke-width="1.5" stroke-miterlimit="10" stroke-linecap="round" stroke-linejoin="round"/>
<path d="M292.41 237.268C292.24 239.108 269.17 316.288 269.17 316.288H274.67L299.17 239.068L292.41 237.268Z" fill="#CCCCCC"/>
<path d="M318.25 235.208C318.58 237.028 317 316.298 317 316.298H322.71L325.17 235.138L318.25 235.208Z" fill="#CCCCCC"/>
<path d="M348.46 238.178C348.63 240.018 371.15 316.288 371.15 316.288H365.67L340.93 239.068L348.46 238.178Z" fill="#CCCCCC"/>
<path d="M253.15 176.928C253.5 177.838 269.17 222.828 278.1 234.218C287.03 245.618 299.35 250.588 314.14 251.158C327.93 251.688 371.23 242.848 371.23 242.848C371.23 242.848 380.99 227.138 381.6 225.598C382.22 224.058 373.28 183.398 369.28 178.158C365.28 172.918 335.09 176.148 327.08 170.528C319.07 164.908 305.52 152.278 297.82 150.738C290.11 149.208 245.92 158.118 253.15 176.928Z" fill="#EFEFEF" stroke="#CCCCCC" stroke-width="1.5"/>
<path d="M304.3 131.638C304.3 131.638 311.54 132.028 316.13 140.608C320.72 149.188 331.85 170.648 331.85 170.648L366.62 193.018L358.22 202.198C358.22 202.198 324.22 189.568 322.82 187.578C321.42 185.578 313.13 159.158 313.13 159.158L303.27 132.428" fill="#9ADAF3"/>
<path d="M304.3 131.638C304.3 131.638 311.54 132.028 316.13 140.608C320.72 149.188 331.85 170.648 331.85 170.648L366.62 193.018L358.22 202.198C358.22 202.198 324.22 189.568 322.82 187.578C321.42 185.578 313.13 159.158 313.13 159.158L303.27 132.428" stroke="#333333" stroke-width="2.5" stroke-miterlimit="10" stroke-linecap="round" stroke-linejoin="round"/>
<path d="M269.09 125.698L265.54 131.058L256.97 136.218L273.62 178.318L276.84 190.678C276.84 190.678 279.83 198.428 285.61 200.558C291.39 202.688 328.62 193.548 328.62 193.548L319.63 170.668C319.63 170.668 319.66 157.598 318.99 153.298C318.33 148.988 304.29 131.638 304.29 131.638L295.48 129.288L290.84 125.308L269.09 125.698Z" fill="#9ADAF3" stroke="#333333" stroke-width="2.5" stroke-miterlimit="10" stroke-linecap="round" stroke-linejoin="round"/>
<path d="M258.21 135.698C258.21 135.698 248.1 140.548 250.49 151.898C252.36 160.818 262.96 185.318 268.56 190.008C277.56 197.548 285.18 189.728 285.18 189.728C285.35 189.228 290.8 174.458 290.8 174.458L273.46 162.858L267.93 153.008" fill="#9ADAF3"/>
<path d="M258.21 135.698C258.21 135.698 248.1 140.548 250.49 151.898C252.36 160.818 262.96 185.318 268.56 190.008C277.56 197.548 285.18 189.728 285.18 189.728C285.35 189.228 290.8 174.458 290.8 174.458L273.46 162.858L267.93 153.008" stroke="#333333" stroke-width="2.5" stroke-miterlimit="10" stroke-linecap="round" stroke-linejoin="round"/>
<path d="M268.93 66.458C274.31 64.748 280.57 65.198 284.55 68.988C288.29 72.558 290.07 78.328 294.99 80.168C298.36 81.428 302.35 80.428 305.68 81.788C312.73 84.658 312.77 96.008 320.02 98.368C317.25 102.438 313.5 105.878 309.16 108.318C308.34 106.898 307.08 105.728 305.58 104.998C307.4 107.288 306.86 110.778 305.09 113.178C303.32 115.578 300.59 117.128 297.91 118.518C291.44 121.868 284.58 124.768 277.34 125.478C270.1 126.188 262.38 124.428 257.29 119.498C256 118.248 254.85 116.778 253.18 116.058C251.37 115.268 249.27 115.488 247.28 115.298C241.83 114.768 237.01 110.698 235.72 105.548C240.13 103.848 241.89 98.698 242.44 94.148C242.99 89.598 243.03 84.648 245.94 80.998C247.87 78.578 250.97 77.058 254.09 77.008C257.21 76.958 260.3 78.368 262.21 80.728C262.19 80.708 260.15 69.248 268.93 66.458Z" fill="white" stroke="#333333" stroke-width="1.5" stroke-miterlimit="10" stroke-linecap="round" stroke-linejoin="round"/>
<path d="M259.76 92.8781L258.97 89.7681L276.89 81.8181C282.53 79.8581 290.13 84.1881 291.86 89.9081C293.77 96.2581 295.06 99.9081 295.42 104.898C296.14 114.928 289.82 122.078 289.82 122.078L292.47 133.918L295.45 146.978L269.58 126.898L259.76 92.8781Z" fill="white" stroke="#333333" stroke-width="1.5" stroke-miterlimit="10" stroke-linecap="round" stroke-linejoin="round"/>
<path d="M275.43 81.0581C276.08 85.3581 273.83 89.9581 270.02 92.0681C268.5 92.9081 266.53 93.7081 266.33 95.4281C266.12 97.2181 268 98.4381 269.06 99.8981C270.36 101.688 270.43 104.278 269.23 106.138C268.55 107.188 267.51 107.998 266.89 109.078C266.06 110.518 266.05 112.358 266.68 113.898C267.31 115.438 268.53 116.698 269.94 117.568C266.14 118.558 261.53 117.458 259.54 114.068C258.36 112.048 258.27 109.598 258.11 107.268C257.76 101.948 256.91 96.6581 255.6 91.4981C255.38 90.6181 255.14 89.6681 255.5 88.8381" fill="white"/>
<path d="M275.43 81.0581C276.08 85.3581 273.83 89.9581 270.02 92.0681C268.5 92.9081 266.53 93.7081 266.33 95.4281C266.12 97.2181 268 98.4381 269.06 99.8981C270.36 101.688 270.43 104.278 269.23 106.138C268.55 107.188 267.51 107.998 266.89 109.078C266.06 110.518 266.05 112.358 266.68 113.898C267.31 115.438 268.53 116.698 269.94 117.568C266.14 118.558 261.53 117.458 259.54 114.068C258.36 112.048 258.27 109.598 258.11 107.268C257.76 101.948 256.91 96.6581 255.6 91.4981C255.38 90.6181 255.14 89.6681 255.5 88.8381" stroke="#333333" stroke-width="1.5" stroke-miterlimit="10" stroke-linecap="round" stroke-linejoin="round"/>
<path d="M272.86 80.0381C274.32 81.7681 276.15 84.1981 278.07 85.3981C279.99 86.5981 282.45 87.1581 284.55 86.3181C284.02 85.7381 283.5 85.1581 282.97 84.5681C286.7 87.1281 290.97 88.8981 295.41 89.7281C292.61 86.3181 289.73 82.8381 285.91 80.6381" fill="white"/>
<path d="M272.86 80.0381C274.32 81.7681 276.15 84.1981 278.07 85.3981C279.99 86.5981 282.45 87.1581 284.55 86.3181C284.02 85.7381 283.5 85.1581 282.97 84.5681C286.7 87.1281 290.97 88.8981 295.41 89.7281C292.61 86.3181 289.73 82.8381 285.91 80.6381" stroke="#333333" stroke-width="1.5" stroke-miterlimit="10" stroke-linecap="round" stroke-linejoin="round"/>
<path d="M286.46 120.878C286.46 120.878 284.35 118.888 282.98 119.388C282.45 119.578 281.79 119.958 281.18 120.358C280.05 121.088 279.26 122.238 278.99 123.548L276.89 133.928C276.89 133.928 275.4 144.368 274.78 148.838C274.16 153.308 273.46 162.858 273.46 162.858L289.14 173.148L285.34 142.258C285.34 142.258 289.07 137.538 289.81 134.928C290.56 132.318 290.93 131.198 290.93 131.198L291.31 129.348L292.83 129.438C293.51 130.058 294.66 129.498 294.5 128.588C294.48 128.488 294.45 128.408 294.41 128.368C294.09 128.088 292.01 126.308 292.01 126.308C292.01 126.308 291.92 124.358 291.05 123.738C290.7 123.488 290.19 123.298 289.7 123.158C288.9 122.928 288.03 123.088 287.34 123.548L286.2 124.318L286.74 123.428C287.24 122.608 287.13 121.568 286.46 120.878Z" fill="white" stroke="#333333" stroke-width="1.5" stroke-miterlimit="10" stroke-linecap="round" stroke-linejoin="round"/>
<path d="M301.06 199.048C301.06 199.048 312.69 195.308 328.41 193.018C348.94 190.028 375.23 188.348 379.53 188.868C387.12 189.798 390.63 195.718 394.34 200.338C398.04 204.968 411.94 253.768 411.94 253.768L398.93 257.708L397.3 223.258C397.3 223.258 390.69 209.768 374.77 214.018C374.77 214.018 346.22 231.978 338.82 233.828C331.42 235.678 312.36 242.898 299.4 233.088C286.45 223.278 285.61 200.548 285.61 200.548L301.06 199.048Z" fill="#666666" stroke="#333333" stroke-width="2.5"/>
<path d="M344.16 231.348L369.52 234.178C369.52 234.178 371.92 236.628 372.09 240.528L384.43 295.438H400.01L398 225.478C398 225.478 398.15 210.138 381.83 212.298C365.52 214.468 356.25 222.918 356.25 222.918L344.16 231.348Z" fill="#444444" stroke="#333333" stroke-width="2.5"/>
<path d="M265.75 190.918C265.75 190.918 284.66 198.868 309.11 202.318C333.56 205.768 345.96 202.988 348.56 210.268C350.52 215.748 352.75 244.218 352.75 244.218C352.75 244.218 312.69 252.408 298.72 243.768C284.75 235.138 278.33 222.478 273.47 210.118C267.84 195.858 265.75 190.918 265.75 190.918Z" fill="#EFEFEF" stroke="#CCCCCC" stroke-width="1.5"/>
<path d="M373.31 191.648L338.84 190.298L303.27 196.038L345.18 197.418L373.31 191.648Z" fill="#F2F2F2" stroke="#333333" stroke-width="1.5" stroke-miterlimit="10"/>
<path d="M303.27 196.038H345.34L355.93 154.058C356.25 152.788 357.39 151.898 358.7 151.898H383.33C385.21 151.898 386.58 153.688 386.09 155.508L375.97 192.728L345.16 198.858L303.25 197.868V196.038H303.27Z" fill="#F2F2F2" stroke="#333333" stroke-width="1.5" stroke-miterlimit="10"/>
<path d="M142.64 232.258C142.64 232.258 161.2 240.728 179.26 240.728C195.98 240.728 214.69 232.308 214.69 232.308L142.64 232.258Z" fill="#CCCCCC"/>
<path d="M181.15 233.068H173.99V308.088H181.15V233.068Z" fill="#CCCCCC"/>
<path d="M209.67 304.978H146.11V309.378H209.67V304.978Z" fill="#CCCCCC"/>
<path d="M148.71 316.118C151.389 316.118 153.56 313.947 153.56 311.268C153.56 308.589 151.389 306.418 148.71 306.418C146.031 306.418 143.86 308.589 143.86 311.268C143.86 313.947 146.031 316.118 148.71 316.118Z" fill="#CCCCCC"/>
<path d="M181.81 311.268C181.81 313.948 179.64 316.118 176.96 316.118C174.28 316.118 172.11 313.948 172.11 311.268C172.11 308.588 174.28 306.418 176.96 306.418C179.64 306.418 181.81 308.588 181.81 311.268Z" fill="#CCCCCC"/>
<path d="M209.67 316.118C212.349 316.118 214.52 313.947 214.52 311.268C214.52 308.589 212.349 306.418 209.67 306.418C206.991 306.418 204.82 308.589 204.82 311.268C204.82 313.947 206.991 316.118 209.67 316.118Z" fill="#CCCCCC"/>
<path d="M179.26 260.068H169.52V264.098H179.26V260.068Z" fill="#CCCCCC"/>
<path d="M171.29 257.238H167.74V266.918H171.29V257.238Z" fill="#CCCCCC"/>
<path d="M216.29 232.258H136.76C133.79 232.258 131.38 229.848 131.38 226.878C131.38 223.908 133.79 221.498 136.76 221.498H223.27V225.288C223.27 229.138 220.14 232.258 216.29 232.258Z" fill="#EFEFEF" stroke="#CCCCCC" stroke-width="1.5"/>
<path d="M161.32 116.668L217.45 117.358C220.22 117.388 222.46 119.638 222.48 122.408L223.27 221.478L147.65 222.508L156.18 121.318C156.41 118.678 158.65 116.638 161.32 116.668Z" fill="#EFEFEF" stroke="#CCCCCC" stroke-width="1.5"/>
<path d="M157.81 187.778C157.81 187.778 146.82 189.428 135.49 191.538C121.91 194.058 107.46 197.208 105.53 198.738C101.98 201.528 101.22 209.148 99.69 218.538C98.17 227.928 97.82 297.788 97.82 297.788L117.73 298.368L128.03 225.228C128.03 225.228 164.85 225.228 172.42 225.168C178.53 225.128 194.97 225.808 201.21 222.518C211.02 217.348 209.19 197.648 209.19 197.648C209.66 188.508 165.95 180.238 164.76 183.108L157.81 187.778Z" fill="#444444" stroke="#333333" stroke-width="2.5"/>
<path d="M113.78 173.478C113.78 173.478 105.1 172.858 103.23 180.298C100.64 190.598 85.56 260.058 85.56 260.058L101.86 263.208L128.46 197.048L152.78 193.088L162.8 189.078C162.8 189.078 157.14 183.038 145.41 179.308C137.41 176.768 113.78 173.478 113.78 173.478Z" fill="#666666" stroke="#333333" stroke-width="2.5"/>
<path d="M172.37 46.3081C171.33 44.5281 169.18 43.5981 167.33 44.1081C164.95 42.3781 161.5 42.7081 159.52 44.8581C157.76 43.9081 155.56 44.0281 153.93 45.1681C152.3 46.2981 151.31 48.4081 151.4 50.5181C149.43 50.3281 147.44 51.6281 146.69 53.5881C145.94 55.5481 146.49 58.0281 148 59.4481C145.95 60.3481 144.77 63.0781 145.44 65.3981C146.11 67.7181 148.52 69.3081 150.71 68.8681L172.01 52.1181C173.25 50.5581 173.41 48.0781 172.37 46.3081Z" fill="#333333"/>
<path d="M153.28 61.6681C153.28 61.6681 155.22 55.7881 157.86 54.2381C161.05 52.3681 162.78 55.8981 165.87 54.7581C168.97 53.6181 172.02 51.8281 175.45 54.0181C179.21 56.4181 177.7 58.4281 178.24 62.4381C180.43 78.7181 183.79 83.1081 184.02 75.3381C184.05 74.4881 186.33 73.6281 186.4 70.0381C186.48 65.3781 186.21 59.7481 184.92 56.5581C183.83 53.8581 182.1 52.0781 179.11 50.1981C174.38 47.2281 168.25 47.6481 164.12 48.3981C159.98 49.1381 152.34 54.5681 153.28 61.6681Z" fill="#333333"/>
<path d="M182.67 75.1381C182.62 73.7281 183.74 72.5281 185.14 72.5481C186.85 72.5781 188.81 73.3881 188.98 76.8981C189.28 83.1281 182.96 82.1381 182.94 81.9681C182.94 81.8381 182.78 77.7381 182.67 75.1381Z" fill="white" stroke="#333333" stroke-width="1.5" stroke-miterlimit="10" stroke-linecap="round" stroke-linejoin="round"/>
<path d="M120.96 154.898H116.37C116.37 154.898 106.02 151.158 103.89 151.518C101.97 151.838 94.96 156.498 93.58 157.428C93.43 157.528 93.31 157.678 93.25 157.848C92.97 158.608 93.34 159.448 94.09 159.758L94.24 159.818L94.18 160.028C94.1 160.288 94.06 160.578 94.07 160.868C94.12 161.858 95.45 162.158 95.95 161.308L95.69 161.778C95.58 161.968 95.53 162.188 95.54 162.408L95.56 162.838C95.59 163.308 95.9 163.718 96.35 163.868C96.78 164.008 97.25 163.888 97.55 163.548C98.44 162.568 100.47 161.138 101.77 160.918C102.93 160.728 104.75 160.168 105.91 160.178C106.5 160.178 107.03 160.548 107.25 161.098C106.48 161.158 102.5 162.968 100.59 163.968C100 164.278 99.56 164.838 99.48 165.498C99.41 166.098 99.71 166.718 100.89 166.438C103.42 165.848 106.57 164.748 106.57 164.748C106.57 164.748 108.92 164.078 110.44 165.148C112.58 166.658 113.56 167.208 115.4 166.598C117.24 165.988 118.59 165.118 118.59 165.118L122.21 164.758C122.22 164.768 125.64 156.208 120.96 154.898Z" fill="white" stroke="#333333" stroke-width="1.5" stroke-miterlimit="10" stroke-linecap="round" stroke-linejoin="round"/>
<path d="M235.3 135.708C231.32 130.168 220.73 120.198 215.11 113.538C212.53 110.478 208.14 107.108 208.14 107.108C207.86 107.018 206.3 106.178 206.04 106.048V106.038L205.94 105.998C205.87 105.968 205.8 105.938 205.73 105.918L186.11 98.6279L170.81 112.408L163.01 100.128L160.29 103.148C160.01 103.248 155.67 105.638 153.34 106.558C150.02 107.868 145.05 114.798 143.76 122.618C142.52 130.178 139.48 150.908 139.48 150.908L120.02 153.628L120.43 165.668L137.68 169.828C142.1 169.668 150.27 167.148 151.99 164.078L151.88 181.858C155.6 184.048 160.72 189.748 165.92 188.788C182.52 185.738 201.97 189.328 208.77 196.768C208.77 196.768 206.97 180.648 207.09 165.408C211.88 163.578 218.65 161.838 223.52 159.468C239.7 151.568 240.23 142.568 235.3 135.708ZM207.18 147.378C207.2 142.438 207.19 138.478 207.16 136.438L213.66 142.728L207.18 147.378Z" fill="url(#paint0_linear_1732_4424)" stroke="#333333" stroke-width="2.5" stroke-miterlimit="10" stroke-linecap="round" stroke-linejoin="round"/>
<path d="M170.8 112.398L176.42 105.288L184.88 95.188L189.37 99.408L181.5 111.598L175.9 108.238L170.8 112.398Z" fill="white" stroke="#333333" stroke-width="1.5" stroke-miterlimit="10" stroke-linecap="round" stroke-linejoin="round"/>
<path d="M170.71 112.358L162.82 98.8979L159.99 101.498L162.67 113.538L166.45 108.658L170.71 112.358Z" fill="white" stroke="#333333" stroke-width="1.5" stroke-miterlimit="10" stroke-linecap="round" stroke-linejoin="round"/>
<path d="M182.43 156.768C181.99 156.868 181.55 156.978 181.17 157.228C180.25 157.848 180.04 159.098 179.92 160.208C179.88 160.558 179.87 160.968 180.16 161.168C180.4 161.338 180.73 161.258 181.01 161.168C182.9 160.568 184.72 159.768 186.43 158.758C187.34 158.228 188.28 157.558 188.59 156.548L188.65 156.118C186.7 156.028 184.33 156.358 182.43 156.768Z" fill="white" stroke="#333333" stroke-width="1.5" stroke-miterlimit="10" stroke-linecap="round" stroke-linejoin="round"/>
<path d="M192.43 147.598C191.85 147.158 191.03 147.248 190.57 147.798C190.38 148.018 190.16 148.288 189.93 148.568L189.65 148.908C185.36 154.048 174.66 166.828 174.66 166.828L174.18 168.978C174.15 169.108 174.28 169.228 174.41 169.178L176.43 168.378L191.41 150.968L191.92 150.368L192.63 149.548C193.13 148.958 193.04 148.068 192.43 147.598Z" fill="#333333"/>
<path d="M195.45 156.548L193.55 157.208C193.55 157.208 190.65 156.478 189.44 156.198C188.6 155.998 187.72 156.158 186.99 156.628C186.29 157.088 185.34 157.698 184.45 158.278C184.46 158.268 184.48 158.258 184.47 158.248C184.46 158.228 184.07 158.448 183.46 158.828C182.85 159.208 182 159.738 181.11 160.388C180.21 161.038 179.46 161.698 178.95 162.218C178.9 162.268 178.87 162.308 178.83 162.348C178.81 162.368 178.78 162.388 178.78 162.388C178.78 162.388 178.74 162.428 178.69 162.498C178.57 162.638 178.46 162.758 178.38 162.848C178.25 163.008 178.19 163.098 178.2 163.108C178.21 163.118 178.24 163.078 178.3 163.028C177.85 163.698 177.29 164.738 177.64 165.448C178.19 166.568 179.73 166.398 179.73 166.398C179.73 166.398 180.03 167.858 181.57 168.128C181.57 168.128 181.18 168.738 182.63 169.118C184.08 169.498 187.45 169.118 187.45 169.118C187.45 169.118 193.64 169.378 194.24 169.078L199.54 166.668L195.45 156.548Z" fill="white" stroke="#333333" stroke-width="1.5" stroke-miterlimit="10" stroke-linecap="round" stroke-linejoin="round"/>
<path d="M238.39 175.838H232V177.278L246.06 316.288H252.62L238.39 175.838Z" fill="#EFEFEF" stroke="#CCCCCC" stroke-width="1.5"/>
<path d="M45.37 175.838H51.76V177.278L37.85 316.108L30.65 316.288L45.37 175.838Z" fill="#EFEFEF" stroke="#CCCCCC" stroke-width="1.5"/>
<path d="M22 177.448L263.32 177.698L263.41 171.558H22V177.448Z" fill="#EFEFEF" stroke="#CCCCCC" stroke-width="1.5"/>
<path d="M212.16 171.558H161.06C161.06 169.738 162.53 168.268 164.35 168.268H208.87C210.68 168.268 212.16 169.738 212.16 171.558Z" fill="#333333"/>
<path d="M102.46 168.918H61.05V140.688C61.05 138.248 62.73 136.258 64.79 136.258H98.72C100.79 136.258 102.46 138.238 102.46 140.688V168.918Z" fill="#F2F2F2" stroke="#333333" stroke-width="1.5" stroke-miterlimit="10"/>
<path d="M122.28 168.848H61.05V171.558H122.28V168.848Z" fill="white" stroke="#333333" stroke-width="1.5" stroke-miterlimit="10" stroke-linecap="round" stroke-linejoin="round"/>
<path d="M81.75 154.588C82.8546 154.588 83.75 153.693 83.75 152.588C83.75 151.484 82.8546 150.588 81.75 150.588C80.6454 150.588 79.75 151.484 79.75 152.588C79.75 153.693 80.6454 154.588 81.75 154.588Z" fill="url(#paint1_linear_1732_4424)" stroke="#333333" stroke-width="1.5" stroke-miterlimit="10" stroke-linecap="round" stroke-linejoin="round"/>
<path d="M369.76 173.438C369.48 174.838 368.38 175.808 367.3 175.598C366.22 175.388 365.56 174.068 365.84 172.668C366.12 171.268 367.22 170.298 368.3 170.508C369.38 170.718 370.04 172.028 369.76 173.438Z" fill="url(#paint2_linear_1732_4424)" stroke="#333333" stroke-width="1.5" stroke-miterlimit="10" stroke-linecap="round" stroke-linejoin="round"/>
<path d="M184.47 69.8882C186.65 83.8982 175.31 92.6582 166.35 93.9882C157.39 95.3282 153.68 85.8382 152.02 74.7182C150.36 63.6082 156.29 53.5082 165.25 52.1782C174.21 50.8482 182.74 58.7882 184.47 69.8882Z" fill="white" stroke="#333333" stroke-width="1.5" stroke-miterlimit="10" stroke-linecap="round" stroke-linejoin="round"/>
<path d="M187.36 65.3981C186.45 66.1381 185.48 66.8981 184.33 67.0981C183.18 67.3081 181.79 66.7481 181.51 65.6081C181.38 65.0981 181.46 64.4881 181.09 64.1181C180.65 63.6781 179.91 63.8781 179.29 63.9981C177.15 64.3981 174.81 63.0481 174.1 60.9881C173.61 61.8581 172.33 61.9281 171.45 61.4481C170.57 60.9781 169.97 60.1381 169.25 59.4481C168.54 58.7481 167.57 58.1581 166.6 58.3781C166.06 58.4981 165.57 58.8681 165.01 58.8581C164.03 58.8481 163.46 57.7481 163.24 56.7881C163.01 55.8281 162.81 54.7081 161.94 54.2481C161.14 53.8181 160.17 54.1781 159.28 54.3881C158.39 54.5881 157.22 54.4781 156.92 53.6181C156.76 53.1681 156.92 52.6681 157.14 52.2481C158.15 50.3381 160.61 49.3281 162.67 49.9781C163.2 47.4681 165.34 45.3681 167.87 44.8981C170.39 44.4281 173.15 45.6081 174.55 47.7581C176.01 46.2081 178.24 45.4281 180.35 45.7381C182.45 46.0481 184.37 47.4281 185.33 49.3281C187.1 48.7081 189.22 49.2381 190.48 50.6281C191.74 52.0181 192.08 54.1681 191.3 55.8781C192.7 56.5381 193.95 57.7681 194.1 59.3081C194.25 60.8481 192.87 62.4981 191.36 62.2081C192.06 63.3581 191.7 65.0181 190.59 65.7881C189.48 66.5481 187.8 66.2881 186.98 65.2281" fill="#333333"/>
<path d="M160.69 69.5181C160.38 68.7981 159.95 68.0381 159.14 67.8381C158.41 67.6481 157.58 67.908 157.01 68.398C156.7 68.668 156.51 69.0381 156.39 69.4281C156.17 70.1181 156.2 70.9481 156.6 71.5681C156.82 71.9181 157.22 72.0781 157.63 72.0981C158.29 72.1281 159.05 71.8281 159.39 71.2381C159.55 70.9481 159.64 70.6081 159.64 70.2781C159.65 69.8881 159.6 69.558 159.39 69.218C159.42 69.268 159.45 69.3181 159.47 69.3681C159.42 69.0381 159.17 68.808 158.85 68.718C158.23 68.548 157.42 68.8181 157.04 69.3381C156.8 69.6681 156.8 70.228 157.06 70.548C157.19 70.708 157.46 70.7681 157.66 70.7781C157.93 70.7981 158.27 70.7381 158.51 70.6181C158.82 70.4681 159.4 70.0581 159.07 69.6581C159.05 69.6381 159.04 69.6181 159.03 69.5981C159.06 69.6481 159.09 69.6981 159.11 69.7481C159.07 69.6581 159.06 69.558 159.05 69.468C159.05 69.528 159.05 69.588 159.05 69.638C159.05 69.548 159.06 69.458 159.09 69.378C159.07 69.438 159.04 69.498 159.02 69.558C159.04 69.518 159.05 69.488 159.08 69.458C159.03 69.518 158.99 69.568 158.94 69.628C158.73 69.738 158.52 69.858 158.31 69.968C158.12 69.988 157.93 70.0081 157.74 70.0281C157.54 69.9781 157.48 69.9681 157.56 70.0081C157.49 69.9781 157.42 69.9581 157.36 69.9281C157.38 69.9381 157.39 69.948 157.4 69.958C157.35 69.918 157.3 69.8781 157.25 69.8381C157.27 69.8581 157.29 69.8881 157.31 69.9081C157.28 69.8581 157.25 69.8081 157.23 69.7581C157.25 69.8081 157.27 69.8481 157.28 69.8981C157.31 69.988 157.35 70.058 157.4 70.138C157.37 70.088 157.34 70.0381 157.32 69.9881C157.41 70.1681 157.45 70.3681 157.45 70.5681C157.45 70.5081 157.45 70.4481 157.45 70.3981C157.46 70.6581 157.42 70.9181 157.33 71.1581C157.35 71.0981 157.38 71.038 157.4 70.978C157.37 71.058 157.33 71.1281 157.28 71.1981C157.33 71.1381 157.37 71.0881 157.42 71.0281C157.41 71.0481 157.39 71.0581 157.37 71.0781C157.33 71.1181 157.35 71.0981 157.43 71.0281C157.51 70.9581 157.6 70.8981 157.7 70.8581C157.92 70.7681 158.17 70.6981 158.41 70.728C158.42 70.728 158.7 70.7881 158.56 70.7481C158.63 70.7781 158.7 70.7981 158.76 70.8281C158.71 70.8081 158.66 70.7781 158.62 70.7481C158.67 70.7881 158.72 70.8281 158.77 70.8681C158.68 70.7881 158.61 70.6881 158.55 70.5781C158.58 70.6281 158.61 70.6781 158.63 70.728C158.5 70.4681 158.45 70.1881 158.44 69.8981C158.44 69.9581 158.44 70.0181 158.44 70.0681C158.43 69.7081 158.49 69.3581 158.62 69.0181C158.6 69.0781 158.57 69.1381 158.55 69.1981C158.6 69.0681 158.67 68.9381 158.76 68.8281C158.71 68.8881 158.67 68.9381 158.62 68.9981C158.65 68.9581 158.82 68.8081 158.68 68.9181C158.52 69.0481 158.67 68.9481 158.68 68.9281C158.62 68.9581 158.56 68.9881 158.5 69.0281C158.57 68.9981 158.55 69.008 158.43 69.048C158.36 69.078 158.29 69.0981 158.21 69.1081C158.09 69.1281 158.06 69.138 158.12 69.128C158.24 69.118 157.82 69.118 157.97 69.128C158.09 69.138 157.83 69.1081 157.83 69.1081C157.86 69.1181 157.91 69.128 157.94 69.138C157.87 69.108 157.8 69.088 157.74 69.058C157.83 69.098 157.92 69.148 158 69.208C157.95 69.168 157.9 69.1281 157.85 69.0881C158.08 69.2781 158.25 69.538 158.4 69.798C158.37 69.748 158.34 69.698 158.32 69.648C158.39 69.788 158.46 69.9281 158.52 70.0781C158.71 70.5281 159.37 70.518 159.77 70.3981C160.03 70.3181 160.31 70.2081 160.49 70.0081C160.6 69.9081 160.76 69.7081 160.69 69.5181Z" fill="#333333"/>
<path d="M171.96 69.918C171.96 69.798 171.95 69.678 171.95 69.548C171.95 69.488 171.95 69.438 171.94 69.378C171.94 69.348 171.94 69.318 171.94 69.298C171.94 69.208 171.93 69.178 171.89 69.078C171.86 68.978 171.83 68.908 171.78 68.828C171.7 68.718 171.6 68.608 171.5 68.508C171.47 68.478 171.45 68.458 171.42 68.438C171.15 68.258 170.97 68.178 170.65 68.088C170.64 68.088 170.62 68.078 170.61 68.078C170.54 68.058 170.23 68.008 170.15 68.008C170.14 68.008 170.14 68.008 170.13 68.008C170.04 67.998 169.72 67.998 169.62 68.008C169.61 68.008 169.61 68.008 169.6 68.008C169.59 68.008 169.59 68.008 169.58 68.008C169.45 68.018 169.19 68.048 169.07 68.078C168.92 68.118 168.75 68.168 168.6 68.218C168.59 68.228 168.57 68.228 168.56 68.238C168.25 68.368 168.09 68.478 167.84 68.688C167.81 68.718 167.78 68.738 167.76 68.768C167.68 68.878 167.6 68.988 167.53 69.108C167.49 69.178 167.46 69.248 167.43 69.328C167.4 69.418 167.38 69.508 167.36 69.598C167.33 69.778 167.29 69.948 167.27 70.128C167.25 70.328 167.25 70.538 167.28 70.738C167.28 70.748 167.28 70.758 167.29 70.768C167.3 70.818 167.35 70.998 167.38 71.038C167.39 71.048 167.4 71.068 167.41 71.078C167.48 71.188 167.58 71.278 167.67 71.368C167.69 71.388 167.71 71.408 167.73 71.418C167.82 71.478 167.96 71.568 168.06 71.618C168.07 71.628 168.08 71.628 168.1 71.638C168.22 71.688 168.39 71.748 168.51 71.778C168.52 71.778 168.52 71.778 168.53 71.778C168.57 71.788 168.95 71.848 168.99 71.848C169.08 71.858 169.16 71.848 169.27 71.848C169.38 71.848 169.46 71.858 169.56 71.848C169.6 71.848 170.02 71.788 170.06 71.778C170.07 71.778 170.07 71.778 170.08 71.778C170.21 71.748 170.41 71.688 170.54 71.638C170.55 71.638 170.56 71.628 170.57 71.628C170.58 71.628 170.58 71.618 170.59 71.618C170.7 71.568 170.87 71.488 170.97 71.428C170.98 71.418 170.99 71.408 171.01 71.408C171.11 71.338 171.23 71.248 171.32 71.158C171.34 71.138 171.37 71.108 171.39 71.088C171.48 70.988 171.55 70.868 171.62 70.758C171.64 70.718 171.66 70.688 171.68 70.648C171.72 70.568 171.75 70.478 171.77 70.388C171.82 70.198 171.85 69.998 171.87 69.798C171.84 69.598 171.75 69.428 171.58 69.308C171.37 69.148 171.14 69.048 170.88 68.988C170.72 68.938 170.57 68.888 170.41 68.828C170.18 68.768 169.94 68.748 169.71 68.758C169.46 68.748 169.21 68.768 168.97 68.828C168.75 68.868 168.54 68.938 168.35 69.048C168.17 69.118 168.02 69.228 167.89 69.368C167.83 69.448 167.78 69.538 167.72 69.618C167.64 69.798 167.66 69.978 167.76 70.158C167.83 70.238 167.9 70.308 167.96 70.388C168.17 70.548 168.4 70.648 168.66 70.708C168.82 70.758 168.97 70.808 169.13 70.868C168.8 70.598 168.47 70.328 168.14 70.058C168.14 70.128 168.13 70.198 168.12 70.268C168.14 70.178 168.15 70.088 168.17 69.998C168.14 70.178 168.08 70.348 167.98 70.498C168.04 70.418 168.09 70.328 168.15 70.248C168.11 70.298 168.07 70.348 168.02 70.388C168.11 70.318 168.21 70.238 168.3 70.168C168.28 70.188 168.26 70.198 168.24 70.208C168.36 70.148 168.49 70.088 168.61 70.028C168.59 70.038 168.57 70.048 168.56 70.048C168.71 70.008 168.85 69.958 169 69.918C168.99 69.918 168.98 69.928 168.97 69.928C169.13 69.908 169.3 69.878 169.46 69.858C169.45 69.858 169.43 69.858 169.42 69.858C169.59 69.858 169.75 69.858 169.92 69.858C169.91 69.858 169.9 69.858 169.89 69.858C170.04 69.878 170.19 69.908 170.34 69.928C170.33 69.928 170.32 69.928 170.31 69.918C170.44 69.958 170.57 70.008 170.7 70.048C170.68 70.038 170.66 70.038 170.65 70.028C170.75 70.088 170.85 70.148 170.96 70.208C170.93 70.188 170.9 70.168 170.88 70.138C170.95 70.218 171.02 70.288 171.08 70.368C171.05 70.338 171.03 70.298 171.01 70.268C171.04 70.358 171.07 70.448 171.09 70.528C171.04 70.238 171.05 69.938 171.1 69.648C171.08 69.738 171.07 69.828 171.05 69.918C171.09 69.718 171.14 69.518 171.25 69.348C171.19 69.428 171.14 69.518 171.08 69.598C171.11 69.558 171.14 69.518 171.19 69.478C171.1 69.548 171 69.628 170.91 69.698C170.93 69.678 170.96 69.668 170.98 69.648C170.86 69.708 170.73 69.768 170.61 69.828C170.62 69.818 170.64 69.818 170.65 69.808C170.5 69.848 170.36 69.898 170.21 69.938C170.22 69.938 170.24 69.928 170.25 69.928C170.09 69.948 169.92 69.978 169.76 69.998C169.77 69.998 169.79 69.998 169.8 69.998C169.63 69.998 169.47 69.998 169.3 69.998C169.31 69.998 169.32 69.998 169.33 69.998C169.18 69.978 169.03 69.948 168.88 69.928C168.9 69.928 168.92 69.938 168.94 69.938C168.81 69.898 168.68 69.848 168.55 69.808C168.57 69.818 168.59 69.828 168.61 69.838C168.51 69.778 168.41 69.718 168.3 69.658C168.34 69.688 168.38 69.718 168.41 69.748C168.34 69.668 168.27 69.598 168.21 69.518C168.26 69.578 168.3 69.638 168.33 69.708C168.3 69.618 168.27 69.528 168.25 69.448C168.26 69.678 168.27 69.918 168.28 70.148C168.29 70.308 168.35 70.428 168.47 70.528C168.57 70.668 168.71 70.768 168.88 70.828C169.08 70.918 169.28 70.978 169.5 70.998C169.74 71.048 169.98 71.058 170.23 71.038C170.39 71.018 170.56 70.988 170.72 70.968C171.01 70.908 171.28 70.808 171.53 70.648C171.71 70.498 171.97 70.268 171.96 69.918Z" fill="#333333"/>
<path d="M161.4 73.958C161.65 74.258 161.62 74.718 161.48 75.068C161.35 75.428 161.09 75.738 160.88 75.998C160.66 76.248 160.48 76.498 160.43 76.708C160.38 76.918 160.41 77.088 160.52 77.258C160.63 77.428 160.81 77.578 161.01 77.668C161.21 77.758 161.36 77.818 161.61 77.908C162.08 78.098 162.73 78.168 163.46 78.458L163.49 78.608C162.91 79.128 162.21 79.428 161.35 79.388C160.94 79.368 160.45 79.178 160.11 78.858C159.78 78.538 159.52 78.148 159.39 77.688C159.24 77.238 159.3 76.688 159.54 76.288C159.78 75.888 160.09 75.658 160.36 75.458C160.64 75.258 160.88 75.098 161.06 74.858C161.23 74.628 161.36 74.338 161.26 74.048L161.4 73.958Z" fill="#333333"/>
<path d="M160.29 83.438C162.77 83.858 165.77 84.588 168.01 83.028C167.55 82.878 167.09 82.738 166.63 82.588C166.83 84.598 165.12 87.578 162.75 86.768C162.58 86.708 162.03 86.568 161.94 86.828C161.86 87.088 162.42 87.288 162.56 87.338C164 87.828 165.55 87.718 166.69 86.638C167.71 85.668 168.19 84.268 168.05 82.878C168.03 82.658 167.59 82.498 167.43 82.448C167.21 82.378 166.88 82.298 166.67 82.438C164.74 83.778 162.2 83.128 160.07 82.768C159.9 82.738 159.43 82.668 159.46 82.958C159.5 83.218 160.09 83.398 160.29 83.438Z" fill="#333333"/>
<path d="M278.36 101.068C278.27 100.858 278.23 100.648 278.22 100.418C278.22 100.478 278.22 100.528 278.22 100.588C278.22 100.328 278.27 100.078 278.37 99.8382C278.35 99.8982 278.32 99.9481 278.3 100.008C278.37 99.8581 278.45 99.7181 278.55 99.5981C278.5 99.6481 278.46 99.7081 278.41 99.7581C278.46 99.7081 278.5 99.6582 278.55 99.6082C278.61 99.5482 278.72 99.5081 278.46 99.6681C278.48 99.6481 278.51 99.6381 278.53 99.6181C278.57 99.5881 278.71 99.5181 278.51 99.6181C278.33 99.7181 278.43 99.6581 278.48 99.6381C278.62 99.5681 278.16 99.7281 278.32 99.6881C278.35 99.6781 278.38 99.6781 278.41 99.6681C278.39 99.6781 278.06 99.7282 278.24 99.6982C278.27 99.6982 278.29 99.6981 278.32 99.6881C278.44 99.6781 278.01 99.6882 278.16 99.6982C278.19 99.6982 278.23 99.6982 278.26 99.6982C278.41 99.6982 278 99.6482 278.14 99.6782C278.17 99.6882 278.2 99.6882 278.24 99.6982C278.3 99.7082 278.37 99.7281 278.43 99.7581C278.36 99.7381 278.3 99.7081 278.23 99.6881C278.36 99.7381 278.48 99.8081 278.6 99.8881C278.55 99.8481 278.5 99.8181 278.45 99.7781C278.59 99.8881 278.71 100.018 278.8 100.178C278.77 100.128 278.75 100.078 278.72 100.028C278.8 100.178 278.84 100.338 278.85 100.508C278.85 100.448 278.85 100.398 278.85 100.338C278.85 100.498 278.81 100.658 278.75 100.808C278.77 100.748 278.8 100.698 278.82 100.638C278.77 100.758 278.7 100.858 278.62 100.958C278.67 100.908 278.71 100.848 278.76 100.798C278.73 100.838 278.7 100.868 278.67 100.898C278.65 100.918 278.64 100.928 278.62 100.948C278.54 101.028 278.73 100.858 278.73 100.858C278.69 100.878 278.65 100.908 278.62 100.938C278.51 101.008 278.78 100.858 278.77 100.858C278.74 100.868 278.72 100.878 278.69 100.888C278.59 100.938 278.99 100.788 278.88 100.818C278.83 100.828 278.73 100.848 278.95 100.808C279.29 100.748 278.75 100.808 279.07 100.798C279.27 100.788 279.17 100.798 279.12 100.788C279.02 100.778 279.36 100.838 279.26 100.808C279.21 100.798 279.16 100.788 279.11 100.768C279.18 100.788 279.24 100.818 279.31 100.838C279.23 100.808 279.16 100.768 279.09 100.718C279.14 100.758 279.19 100.788 279.24 100.828C279.12 100.738 279.02 100.618 278.95 100.488C278.98 100.538 279 100.588 279.03 100.638C278.95 100.488 278.91 100.318 278.9 100.148C278.9 100.208 278.9 100.258 278.9 100.318C278.9 100.198 278.92 100.088 278.97 99.9781C278.95 100.038 278.92 100.088 278.9 100.148C278.93 100.078 278.97 100.018 279.01 99.9581C278.96 100.008 278.92 100.068 278.87 100.118C278.9 100.088 278.92 100.068 278.95 100.038C278.79 100.158 278.75 100.188 278.82 100.138C278.91 100.088 278.85 100.118 278.65 100.228C278.76 100.188 278.8 100.198 278.47 100.288C278.49 100.278 278.51 100.278 278.52 100.268C278.63 100.248 278.56 100.258 278.31 100.308C278.42 100.298 278.52 100.338 278.18 100.308C278.21 100.308 278.24 100.308 278.27 100.308C277.95 100.298 278.07 100.278 278.17 100.298C278.21 100.308 278.24 100.318 278.28 100.328C278.21 100.308 278.15 100.278 278.08 100.258C278.16 100.288 278.23 100.328 278.3 100.378C278.25 100.338 278.2 100.308 278.15 100.268C278.22 100.328 278.28 100.388 278.32 100.468C278.29 100.418 278.27 100.368 278.24 100.318C278.27 100.378 278.29 100.438 278.3 100.498C278.34 100.688 278.57 100.788 278.73 100.828C278.98 100.888 279.3 100.868 279.54 100.798C279.8 100.718 280.07 100.618 280.26 100.418C280.39 100.278 280.51 100.118 280.47 99.9181C280.37 99.4181 279.86 99.1081 279.39 99.0281C278.52 98.8781 277.53 99.1381 276.97 99.8481C276.65 100.258 276.65 100.828 276.89 101.268C277.22 101.858 277.85 102.098 278.51 102.068C279.35 102.038 280.17 101.658 280.68 100.978C280.98 100.588 281.13 100.018 280.95 99.5481C280.78 99.0881 280.4 98.7382 279.94 98.5582C279.19 98.2682 278.4 98.3081 277.65 98.5981C276.96 98.8581 276.43 99.3782 276.16 100.058C275.97 100.538 275.97 101.118 276.17 101.588C276.36 102.038 277.03 101.998 277.41 101.888C277.67 101.808 277.94 101.708 278.13 101.508C278.27 101.448 278.44 101.248 278.36 101.068Z" fill="#333333"/>
<path d="M288.21 98.0181C288.19 97.8481 288.18 97.6781 288.19 97.5181C288.19 97.5781 288.18 97.6381 288.18 97.6981C288.2 97.3181 288.28 96.9181 288.48 96.5881C288.44 96.6481 288.41 96.7081 288.37 96.7681C288.42 96.6881 288.47 96.6081 288.54 96.5481C288.48 96.6081 288.41 96.6681 288.35 96.7281C288.38 96.6981 288.41 96.6781 288.44 96.6481C288.35 96.7081 288.26 96.7681 288.17 96.8181C288.19 96.8081 288.21 96.7881 288.24 96.7781C288.13 96.8281 288.02 96.8781 287.91 96.9281C287.92 96.9281 287.93 96.9181 287.94 96.9181C287.81 96.9581 287.69 96.9981 287.56 97.0481C287.58 97.0381 287.59 97.0381 287.61 97.0381C287.48 97.0681 287.35 97.0881 287.22 97.1181C287.23 97.1181 287.23 97.1181 287.24 97.1181C286.83 97.0181 286.43 96.9181 286.02 96.8181C286.22 97.2781 286.38 97.7381 286.37 98.2381C286.37 98.1781 286.38 98.1181 286.38 98.0581C286.37 98.2681 286.34 98.4781 286.24 98.6681C286.28 98.6081 286.31 98.5481 286.35 98.4881C286.33 98.5181 286.31 98.5481 286.28 98.5781C286.34 98.5181 286.41 98.4581 286.47 98.3981C286.46 98.4081 286.45 98.4181 286.44 98.4281C286.53 98.3681 286.62 98.3081 286.71 98.2581C286.7 98.2681 286.69 98.2681 286.68 98.2781C286.79 98.2281 286.9 98.1781 287.01 98.1281C287 98.1281 287 98.1281 286.99 98.1381C287.12 98.0981 287.24 98.0581 287.37 98.0081C287.36 98.0081 287.36 98.0081 287.35 98.0181C287.48 97.9881 287.61 97.9681 287.74 97.9381C287.73 97.9381 287.73 97.9381 287.72 97.9381C287.84 97.9281 287.96 97.9181 288.08 97.9081C288.07 97.9081 288.06 97.9081 288.04 97.9081C288.15 97.9181 288.25 97.9181 288.36 97.9281C288.35 97.9281 288.34 97.9281 288.32 97.9181C288.41 97.9381 288.49 97.9581 288.58 97.9781C288.56 97.9681 288.54 97.9681 288.53 97.9581C288.59 97.9981 288.65 98.0281 288.72 98.0681C288.66 98.0281 288.61 97.9781 288.57 97.9181C288.6 97.9681 288.63 98.0181 288.67 98.0681C288.55 97.8681 288.52 97.6281 288.52 97.3881C288.52 97.4481 288.51 97.5081 288.51 97.5681C288.52 97.3481 288.57 97.1181 288.67 96.9181C288.63 96.9781 288.6 97.0381 288.56 97.0981C288.59 97.0381 288.63 96.9981 288.68 96.9481C288.62 97.0081 288.55 97.0681 288.49 97.1281C288.51 97.1181 288.52 97.0981 288.54 97.0881C288.45 97.1481 288.36 97.2081 288.27 97.2581C288.29 97.2481 288.3 97.2381 288.32 97.2281C288.21 97.2781 288.1 97.3281 287.99 97.3781C288 97.3781 288.01 97.3681 288.02 97.3681C287.89 97.4081 287.77 97.4481 287.64 97.4981C287.66 97.4881 287.67 97.4881 287.69 97.4881C287.56 97.5181 287.43 97.5381 287.3 97.5681C287.31 97.5681 287.32 97.5681 287.33 97.5681C287.21 97.5781 287.09 97.5881 286.97 97.5981C286.99 97.5981 287.01 97.5981 287.02 97.5981C286.91 97.5881 286.81 97.5881 286.7 97.5781C286.72 97.5781 286.74 97.5781 286.75 97.5881C286.66 97.5681 286.58 97.5481 286.49 97.5281C286.53 97.5381 286.56 97.5581 286.59 97.5781C286.53 97.5381 286.47 97.5081 286.4 97.4681C286.46 97.5081 286.5 97.5481 286.55 97.5981C286.64 97.6781 286.75 97.7181 286.86 97.7381C287.01 97.7781 287.16 97.7981 287.31 97.7881C287.68 97.7881 288.1 97.6981 288.44 97.5481C288.55 97.4981 288.66 97.4481 288.77 97.3981C288.95 97.3081 289.1 97.1881 289.23 97.0381C289.27 96.9781 289.3 96.9181 289.34 96.8581C289.38 96.7281 289.35 96.6281 289.25 96.5381C288.9 96.1181 288.24 96.1281 287.75 96.1981C287.32 96.2581 286.89 96.3981 286.51 96.6181C286.29 96.7481 286.05 96.9081 285.9 97.1381C285.76 97.3481 285.67 97.5581 285.63 97.8081C285.59 98.0481 285.58 98.3081 285.63 98.5381C285.65 98.6281 285.68 98.7181 285.72 98.8081C285.78 98.9181 285.84 99.0381 285.94 99.1181C286.1 99.2581 286.3 99.3181 286.51 99.3481C286.63 99.3681 286.76 99.3681 286.88 99.3681C287.27 99.3681 287.7 99.2681 288.06 99.1181C288.52 98.9381 288.96 98.6481 289.15 98.1781C289.24 97.9581 289.25 97.6981 289.25 97.4681C289.26 96.9781 289.1 96.5281 288.9 96.0781C288.82 95.8981 288.67 95.8381 288.49 95.7881C288.23 95.7281 287.94 95.7281 287.68 95.7681C287 95.8781 286.33 96.1381 285.84 96.6381C285.67 96.8181 285.55 97.0481 285.46 97.2781C285.27 97.7581 285.23 98.3181 285.29 98.8281C285.32 99.0381 285.68 99.1281 285.83 99.1481C286.17 99.1981 286.58 99.1481 286.9 99.0481C287.24 98.9481 287.61 98.8281 287.88 98.5981C288.07 98.4181 288.24 98.2581 288.21 98.0181Z" fill="#333333"/>
<path d="M285.37 102.338C285.31 102.948 285.69 103.508 286.13 103.928C286.57 104.348 287.09 104.688 287.46 105.178C287.83 105.668 288.02 106.358 287.69 106.878C287.33 107.448 286.55 107.538 285.88 107.568C285.38 107.588 284.87 107.608 284.37 107.628" stroke="#333333" stroke-linecap="round" stroke-linejoin="round"/>
<path d="M281.69 111.038C281.9 111.608 282.65 111.788 283.23 111.608C283.81 111.428 284.28 111.028 284.8 110.708C285.32 110.398 285.98 110.188 286.52 110.448C286.78 110.568 286.97 110.788 287.2 110.958C287.43 111.128 287.72 111.258 287.99 111.168C287.89 111.748 287.78 112.348 287.55 112.888C286.88 114.418 284.22 114.668 282.82 113.998C282.01 113.618 280.74 112.178 280.25 111.408" fill="#333333"/>
<path fill-rule="evenodd" clip-rule="evenodd" d="M66.95 270.578C67.17 274.818 76.5 275.108 84.69 274.678C92.88 274.248 101.16 273.078 100.94 268.838C100.72 264.598 99.15 257.688 90.96 258.118C82.78 258.558 66.73 266.338 66.95 270.578Z" fill="white" stroke="#333333" stroke-width="1.5" stroke-miterlimit="10" stroke-linecap="round" stroke-linejoin="round"/>
<path fill-rule="evenodd" clip-rule="evenodd" d="M416.33 310.508C415.54 314.678 406.26 313.718 398.2 312.198C390.14 310.678 382.09 308.408 382.87 304.238C383.66 300.068 386.13 293.428 394.19 294.948C402.25 296.468 417.11 306.328 416.33 310.508Z" fill="white" stroke="#333333" stroke-width="1.5" stroke-miterlimit="10" stroke-linecap="round" stroke-linejoin="round"/>
<path fill-rule="evenodd" clip-rule="evenodd" d="M95.21 306.158C94.59 310.158 97.81 310.858 104.65 311.198C112.58 311.598 119.33 310.158 119.96 306.158C120.58 302.158 116.13 296.328 108.3 295.108C100.47 293.888 95.83 302.158 95.21 306.158Z" fill="white" stroke="#333333" stroke-width="1.5" stroke-miterlimit="10" stroke-linecap="round" stroke-linejoin="round"/>
<defs>
<linearGradient id="paint0_linear_1732_4424" x1="120.012" y1="147.687" x2="238.032" y2="147.687" gradientUnits="userSpaceOnUse">
<stop stop-color="#FFA363"/>
<stop offset="0.9127" stop-color="#FF7743"/>
</linearGradient>
<linearGradient id="paint1_linear_1732_4424" x1="79.755" y1="152.592" x2="83.7529" y2="152.592" gradientUnits="userSpaceOnUse">
<stop stop-color="#FF985B"/>
<stop offset="1" stop-color="#FF7F49"/>
</linearGradient>
<linearGradient id="paint2_linear_1732_4424" x1="365.851" y1="172.658" x2="369.773" y2="173.434" gradientUnits="userSpaceOnUse">
<stop stop-color="#FF985B"/>
<stop offset="1" stop-color="#FF7F49"/>
</linearGradient>
</defs>
</svg>
