<svg width="448" height="361" viewBox="0 0 448 361" fill="none" xmlns="http://www.w3.org/2000/svg">
<path d="M174.419 219.258C177.891 219.033 180.904 219.906 183.808 221.165C185.104 221.723 186.633 222.136 188.072 222.136L191.876 222.055V177.303C191.876 173.597 188.62 170.593 184.6 170.593H137.428H103.665H57.6716C53.6514 170.593 50.3957 173.597 50.3957 177.303V295.3C50.3957 298.313 53.0489 300.759 56.3226 300.759H185.94C189.214 300.759 191.867 298.313 191.867 295.3V252.661H186.624C185.409 252.661 184.213 252.886 183.089 253.299C180.832 254.145 178.367 254.613 175.777 254.613C164.661 254.613 155.712 246.104 156.153 235.762C156.549 226.651 164.553 219.897 174.419 219.258Z" fill="#F5F5F5"/>
<path d="M189.951 121.371C188.656 121.371 187.811 121.659 186.624 122.171C184.33 123.16 181.794 123.718 179.123 123.718C168.132 123.718 157.583 117.207 157.583 103.734C157.583 95.7026 165.812 87.5453 173.915 86.1963C177.999 85.5218 183.988 87.5184 187.19 89.0743C188.458 89.6858 189.834 90.0276 191.246 90.0276H193.234L193.369 45.7246C193.369 42.7117 190.68 40.2654 188.233 40.2654H56.8622C52.6891 40.2654 50 42.7117 50 45.7246V91.4306L55.2793 91.1518C56.5114 91.1518 57.7256 90.927 58.8588 90.5133C61.1522 89.6679 63.5355 88.2019 66.1527 88.2019C77.4128 88.2019 85.2644 94.5604 84.8147 104.903C84.4189 114.014 77.6647 121.128 67.6727 121.766C64.1471 121.991 61.1072 121.119 58.1573 119.86C56.8442 119.302 55.2973 118.888 53.8403 118.888L50 118.969V163.722C50 167.428 53.3007 170.431 57.3659 170.431H105.158H139.371H185.976C190.05 170.431 193.351 167.428 193.351 163.722V121.362L189.951 121.371Z" fill="#EFEFEF"/>
<path d="M128.794 206.784H101.885V254.064H128.794V206.784Z" fill="white" stroke="#333333" stroke-width="1.5" stroke-miterlimit="10" stroke-linecap="round" stroke-linejoin="round"/>
<path d="M133.291 75.6198H106.382V122.9H133.291V75.6198Z" fill="white" stroke="#333333" stroke-width="1.5" stroke-miterlimit="10" stroke-linecap="round" stroke-linejoin="round"/>
<path d="M371.516 187.717H325.415H291.166H243.94C239.938 187.717 236.692 190.964 236.692 194.966V241.994H233.508C232.024 241.994 230.576 241.617 229.245 240.969C225.746 239.278 221.681 238.586 217.4 239.314C208.892 240.762 202.255 247.822 201.31 256.402C200.015 268.211 209.225 278.194 220.773 278.194C223.579 278.194 226.241 277.6 228.651 276.53C229.901 275.982 231.232 275.658 232.599 275.658H236.683V321.526C236.683 325.528 239.929 328.775 243.931 328.775H371.516C374.781 328.775 377.425 326.131 377.425 322.866V193.617C377.425 190.361 374.781 187.717 371.516 187.717Z" fill="#EFEFEF"/>
<path d="M332.753 238.172C333.059 248.866 328.499 259.604 320.567 266.835C318.75 261.61 316.933 256.375 315.117 251.15" fill="#1A2E35"/>
<path d="M340.75 266.625C340.288 253.862 339.241 240.459 335.074 228.27C331.249 215.734 319.794 207.611 307.229 205.102C299.112 203.481 290.321 205.572 285.455 212.612H285.437C265.937 217.75 280.5 256.437 279.232 265.495C278.845 270.927 276.543 276 274.834 281.171C273.134 286.342 272.037 292.089 274.06 297.144C274.573 298.421 275.311 299.662 276.471 300.409C277.892 301.326 279.681 301.362 281.381 301.362C301.473 301.389 321.565 300.93 341.639 299.986C341.216 288.744 341.155 277.885 340.75 266.625Z" fill="white" stroke="#333333" stroke-width="2.5" stroke-miterlimit="10" stroke-linecap="round" stroke-linejoin="round"/>
<path d="M348.492 307.01L371.606 331.626C375.42 335.691 378.19 339.396 383.595 340.817C387.381 341.807 393.326 341.294 395.287 338.794C397.976 335.367 399.262 328.352 396.312 323.828C393.362 319.305 372.668 299.168 372.668 299.168L348.492 307.01Z" fill="white" stroke="#333333" stroke-width="1.5" stroke-miterlimit="10" stroke-linecap="round" stroke-linejoin="round"/>
<path d="M322.456 251.159H294.674V296.424H322.456V251.159Z" fill="white" stroke="#333333" stroke-width="1.5" stroke-miterlimit="10" stroke-linecap="round" stroke-linejoin="round"/>
<path d="M380.51 304.86C380.51 304.86 356.488 276.368 347.359 276.368C347.359 276.368 347.341 276.395 347.323 276.431L347.296 276.305L322.6 276.054C313.498 286.342 304.207 293.717 293.613 281.881L267.603 292.107C258.816 295.714 250.11 327.264 250.11 328.784L274.357 328.811V328.829L352.8 328.775C354.626 322.749 355.022 318.702 355.049 316.408C357.801 320.42 359.86 323.271 359.86 323.271L380.51 304.86Z" fill="url(#paint0_linear_1732_4422)" stroke="#333333" stroke-width="2.5" stroke-miterlimit="10" stroke-linecap="round" stroke-linejoin="round"/>
<path d="M263.565 283.186C263.583 283.285 264.05 283.356 264.95 283.347C265.849 283.338 267.171 283.195 268.754 282.808C270.319 282.403 272.118 281.738 273.773 280.73C275.436 279.732 276.974 278.356 277.964 276.746C278.989 275.136 279.529 273.292 279.726 271.368C279.924 269.434 279.852 267.429 279.717 265.306C279.421 261.061 278.512 256.447 277.505 251.645C275.83 243.659 274.298 234.831 275.625 226.656C276.605 220.451 278.938 216.75 278.938 216.75C272.474 222.607 270.056 229.689 270.31 238.262C270.427 242.516 271.227 247.157 272.235 251.968C273.242 256.78 274.276 261.322 274.834 265.45C275.104 267.51 275.329 269.488 275.329 271.278C275.329 273.077 275.041 274.705 274.375 276.126C273.116 278.977 270.112 280.847 267.72 281.81C265.292 282.772 263.502 282.952 263.565 283.186Z" fill="white" stroke="#333333" stroke-width="2.5" stroke-miterlimit="10" stroke-linecap="round" stroke-linejoin="round"/>
<path d="M321.403 251.528C320.531 254.019 318.534 267.743 318.094 271.17C317.644 274.597 317.455 278.365 317.329 282.277C317.212 286.18 317.086 289.859 316.772 293.178C316.466 296.487 315.989 299.437 315.387 301.857C314.208 306.722 312.643 309.492 313.039 309.735C313.201 309.834 313.804 309.267 314.64 308.053C315.485 306.839 316.484 304.941 317.383 302.459C318.04 300.651 318.597 298.529 319.038 296.19C319.434 299.743 319.982 303.421 320.711 307.271C324.731 307.46 336.036 304.636 338.276 301.317C340.515 297.998 340.875 293.51 339.184 289.886C340.578 292.962 341.981 296.038 343.375 299.122C346.424 291.307 346.073 283.441 343.375 275.5C341.875 268.5 341 262.75 340 254.125" fill="white"/>
<path d="M321.403 251.528C320.531 254.019 318.534 267.743 318.094 271.17C317.644 274.597 317.455 278.365 317.329 282.277C317.212 286.18 317.086 289.859 316.772 293.178C316.466 296.487 315.989 299.437 315.387 301.857C314.208 306.722 312.643 309.492 313.039 309.735C313.201 309.834 313.804 309.267 314.64 308.053C315.485 306.839 316.484 304.941 317.383 302.459C318.04 300.651 318.597 298.529 319.038 296.19C319.434 299.743 319.982 303.421 320.711 307.271C324.731 307.46 336.036 304.636 338.276 301.317C340.515 297.998 340.875 293.51 339.184 289.886C340.578 292.962 341.981 296.038 343.375 299.122C346.424 291.307 346.073 283.441 343.375 275.5C341.875 268.5 341 262.75 340 254.125" stroke="#333333" stroke-width="2.5" stroke-miterlimit="10" stroke-linecap="round" stroke-linejoin="round"/>
<path d="M397.706 327.237L380.285 274.974L380.24 274.992L379.737 273.49L378.999 264.11L377.083 252.265L374.107 242.561C374.107 242.561 373.504 241.644 372.326 242.516C371.148 243.389 372.82 248.677 372.82 248.677L373.459 252.724C373.459 252.724 373.063 255.944 372.793 255.701C372.533 255.458 371.148 250.062 371.148 250.062L367.586 238.523C367.586 238.523 366.903 237.309 365.5 237.92C364.717 238.262 364.321 239.485 364.609 241.221C364.897 242.957 365.985 245.817 366.174 246.806C366.363 247.786 367.64 253.443 367.64 253.443L362.208 240.69C362.208 240.69 361.003 236.481 359.267 237.291C357.54 238.1 359.069 241.05 359.294 242.372C359.519 243.694 363.098 252.382 363.143 254.909C363.197 257.437 362.658 256.223 362.658 256.223C362.658 256.223 361.165 252.202 359.995 249.037C358.817 245.871 357.378 244.117 355.93 244.036C354.482 243.955 357.207 251.285 357.207 251.285L360.751 261.565L360.517 264.982L357.828 262.212C357.828 262.212 357.333 258.264 354.662 256.879C351.955 255.476 351.559 257.419 351.559 257.419L357.855 272.231C359.222 274.615 366.849 278.725 366.849 278.725L369.781 293.942L373.558 314.96" fill="white"/>
<path d="M397.706 327.237L380.285 274.974L380.24 274.992L379.737 273.49L378.999 264.11L377.083 252.265L374.107 242.561C374.107 242.561 373.504 241.644 372.326 242.516C371.148 243.389 372.82 248.677 372.82 248.677L373.459 252.724C373.459 252.724 373.063 255.944 372.793 255.701C372.533 255.458 371.148 250.062 371.148 250.062L367.586 238.523C367.586 238.523 366.903 237.309 365.5 237.92C364.717 238.262 364.321 239.485 364.609 241.221C364.897 242.957 365.985 245.817 366.174 246.806C366.363 247.786 367.64 253.443 367.64 253.443L362.208 240.69C362.208 240.69 361.003 236.481 359.267 237.291C357.54 238.1 359.069 241.05 359.294 242.372C359.519 243.694 363.098 252.382 363.143 254.909C363.197 257.437 362.658 256.223 362.658 256.223C362.658 256.223 361.165 252.202 359.995 249.037C358.817 245.871 357.378 244.117 355.93 244.036C354.482 243.955 357.207 251.285 357.207 251.285L360.751 261.565L360.517 264.982L357.828 262.212C357.828 262.212 357.333 258.264 354.662 256.879C351.955 255.476 351.559 257.419 351.559 257.419L357.855 272.231C359.222 274.615 366.849 278.725 366.849 278.725L369.781 293.942L373.558 314.96" stroke="#333333" stroke-width="1.5" stroke-miterlimit="10" stroke-linecap="round" stroke-linejoin="round"/>
<path d="M351.316 87.1318C348.555 87.1318 345.938 87.6894 343.564 88.6787C342.332 89.1914 341.019 89.4882 339.679 89.4882L334.588 89.1824L334.336 46.4443C334.336 42.7209 331.144 39.699 327.204 39.699L321.556 39.717H277.658H245.047H201.283H200.087C196.274 39.717 193.18 42.7388 193.18 46.4622V88.9306H190.149C188.737 88.9306 187.352 88.5888 186.093 87.9772C182.882 86.4213 176.901 84.4247 172.818 85.0992C164.715 86.4483 156.486 94.5966 156.486 102.637C156.486 116.11 167.035 124.546 178.026 124.546C180.697 124.546 183.233 123.988 185.526 122.999C186.713 122.486 187.559 122.198 188.854 122.198L193.18 122.189V164.244C193.18 167.967 196.274 170.989 200.087 170.989H201.283H246.639H280.329H321.565H326.988C330.928 170.989 334.12 167.967 334.12 164.244L334.345 120.508L338.806 120.822C340.263 120.822 341.684 121.173 342.997 121.776C346.433 123.35 350.435 123.997 354.653 123.314C363.026 121.964 369.556 115.399 370.473 107.413C371.732 96.4313 362.676 87.1318 351.316 87.1318Z" fill="#F5F5F5"/>
<path d="M324.227 158.991C323.715 157.813 322.447 154.243 321.493 153.37C318.561 150.699 315.665 149.404 312.616 147.758L312.518 145.483C312.518 145.483 293.901 124.294 287.551 120.399C283.036 117.629 268.242 115.003 264.923 114.706L260.777 111.307L231.592 109.544L227.311 115.453L212.355 119.437C208.424 120.48 204.899 122.693 202.255 125.778L193.351 132.784L193.369 163.111C193.369 167.778 195.752 170.89 200.42 170.89L290.087 170.665C295.277 179.785 301.779 184.848 312.41 184.677C312.85 184.704 313.3 184.677 313.759 184.623C313.939 184.614 314.1 184.614 314.28 184.605V184.543C314.874 184.435 315.458 184.264 316.007 184.066C318.327 183.211 320.072 181.233 321.277 179.083C323.895 174.389 324.893 170.647 325.253 165.287C325.325 163.767 324.83 160.376 324.227 158.991Z" fill="#9ADAF3" stroke="#333333" stroke-width="2.5" stroke-miterlimit="10" stroke-linecap="round" stroke-linejoin="round"/>
<path d="M323.067 79.5678C321.772 80.0265 321.781 85.2518 321.781 85.2518L321.214 89.0741C321.214 89.0741 319.955 91.8622 319.784 91.5744C319.614 91.2866 319.892 86.0343 319.892 86.0343L319.946 74.6482C319.946 74.6482 319.677 73.3621 318.247 73.524C317.455 73.6139 316.745 74.6033 316.52 76.2491C316.295 77.895 316.457 80.7819 316.349 81.7173C316.241 82.6526 315.8 88.1118 315.8 88.1118L314.514 75.1069C314.514 75.1069 314.613 70.9788 312.841 71.2216C311.061 71.4644 311.609 74.5493 311.438 75.8084C311.267 77.0585 312.032 85.8904 311.366 88.1838C310.701 90.4772 310.566 89.236 310.566 89.236C310.566 89.236 310.359 85.1978 310.197 82.0231C310.035 78.8393 309.235 76.8607 307.967 76.375C306.699 75.8983 307.067 83.2642 307.067 83.2642L307.355 93.517L306.285 96.2871C305.961 95.7835 305.655 95.3338 305.404 94.938C305.377 94.8931 305.35 94.8571 305.323 94.8121L304.549 93.2832C304.549 93.2832 305.215 89.5868 303.209 87.5992C301.176 85.5756 300.277 87.2214 300.277 87.2214L301.752 102.331C302.211 104.426 306.159 108.761 307.526 110.2L301.788 148.738L299.836 158.677C299.432 160.736 298.613 164.783 300.511 167.634C304.162 174.344 315.971 174.335 319.991 167.841C322.348 164.037 322.105 158.2 322.267 154.728C322.519 149.269 321.979 137.676 321.367 127.288H321.376L321.008 109.562L322.977 100.901L324.587 89.6947L324.65 80.1254C324.65 80.1164 324.371 79.1181 323.067 79.5678Z" fill="white" stroke="#333333" stroke-width="1.5" stroke-miterlimit="10" stroke-linecap="round" stroke-linejoin="round"/>
<path d="M231.52 161.303C229.461 159.486 226.133 163.848 226.133 163.848C225.512 162.535 221.474 162.643 220.611 164.415C220.584 164.361 220.557 164.325 220.539 164.325C220.512 164.325 220.494 164.379 220.476 164.46C220.107 163.542 220.134 162.958 219.28 162.364C218.38 161.744 217.202 161.492 216.177 161.87C215.278 162.202 214.576 163.093 214.531 164.037C214.495 164.037 214.468 164.136 214.441 164.289C213.416 163.039 211.599 162.49 210.061 162.985C209.099 163.3 208.289 164.001 207.795 164.864C207.543 165.305 207.381 165.782 207.3 166.276C207.291 166.33 207.282 166.393 207.264 166.456C207.084 166.357 206.913 166.276 206.742 166.213C206.302 166.061 205.942 166.025 205.672 166.034C204.899 165.809 204.098 165.701 203.298 165.746C202.363 165.8 201.364 166.079 200.807 166.825C200.141 167.715 200.186 169.784 200.366 170.881C200.366 170.917 203.595 170.872 203.595 170.872H204.395C205.025 171.241 205.016 172.581 205.321 173.256C205.843 174.416 207.426 174.865 208.577 174.317C208.928 174.146 209.234 173.903 209.486 173.606C209.513 173.651 209.647 173.606 209.809 173.462C209.989 174.344 210.016 175.279 210.061 176.143C210.151 177.654 210.313 179.254 211.212 180.478C212.112 181.701 214.018 182.294 215.188 181.323C215.08 182.285 215.907 183.194 216.86 183.347C217.814 183.508 218.794 183.032 219.424 182.294C220.035 181.575 220.35 180.648 220.503 179.713C220.521 179.821 220.539 179.893 220.557 179.92C220.755 180.918 221.843 181.647 222.877 181.566C224.01 181.485 224.982 180.639 225.485 179.623C225.854 178.886 226.016 178.067 226.097 177.249C226.133 177.42 226.169 177.51 226.214 177.51C226.448 177.51 226.735 174.641 226.879 171.052C226.879 170.962 226.888 170.881 226.888 170.791C226.969 170.791 228.75 170.782 229.389 170.782L229.883 169.559C230.621 167.617 231.205 166.375 231.745 164.631C232.15 163.353 232.375 162.058 231.52 161.303Z" fill="white" stroke="#333333" stroke-width="1.5" stroke-miterlimit="10" stroke-linecap="round" stroke-linejoin="round"/>
<path d="M258.115 28.7624C257.791 24.967 253.762 21.9272 250.02 22.6647C247.898 18.5006 242.097 16.7288 238.014 19.0042C236.071 20.0835 234.605 21.8642 232.707 23.0244C230.882 24.1396 228.75 24.6163 226.825 25.5426C224.901 26.469 223.057 28.0609 222.814 30.1834C222.544 32.5398 224.424 34.7162 226.628 35.5976C228.831 36.479 231.286 36.3621 233.661 36.2272C232.626 36.8208 232.402 38.3227 232.932 39.393C233.463 40.4632 234.551 41.1467 235.657 41.5964C239.336 43.0714 243.833 42.235 246.747 39.5459L251.18 36.1462C254.985 36.2272 258.447 32.5577 258.115 28.7624Z" fill="#666666" stroke="#333333" stroke-width="2.5" stroke-miterlimit="10" stroke-linecap="round" stroke-linejoin="round"/>
<path d="M240.244 38.3587C236.844 34.5724 228.399 35.076 226.376 37.5403C223.453 35.9934 219.379 37.3155 217.922 40.2834C214.918 40.9129 211.923 41.5515 208.919 42.1811C207.381 42.5048 205.78 42.8646 204.593 43.8899C203.406 44.9151 202.839 46.8398 203.802 48.0809C200.627 48.8814 199.359 53.5851 201.688 55.8785C200.384 57.2275 200.627 59.7278 202.156 60.807C199.655 63.766 197.668 67.1476 196.301 70.7721C195.725 72.292 195.267 73.9828 195.815 75.5028C196.364 77.0227 198.36 78.084 199.682 77.1486C198.774 78.3718 198.684 80.1435 199.467 81.4476C197.947 81.4746 197.479 83.822 198.513 84.9372C199.548 86.0524 201.247 86.1783 202.767 86.1513C204.287 86.1243 205.933 86.0614 207.174 86.9338C207.111 87.3835 206.931 87.6803 206.671 87.8961C204.044 90.0006 203.28 93.6521 205.214 96.4042C205.393 96.656 205.564 96.8988 205.708 97.1057C206.581 98.3648 208.748 99.525 210.106 100.235C213.533 102.052 215.583 101.728 219.415 102.313C218.353 104.777 224.541 110.308 231.709 104.966C245.91 108.887 256.163 110.416 270.895 110.56C272.999 110.578 275.526 110.317 276.471 108.438C278.171 108.905 280.014 108.123 281.282 106.9C282.551 105.677 283.351 104.058 284.133 102.475C287.785 101.522 290.609 98.032 290.78 94.2727C293.262 92.366 294.872 89.3711 295.106 86.2503C298.649 85.198 300.637 80.6202 298.982 77.3105C298.254 72.9665 296.797 68.7485 294.701 64.8722C297.111 64.3686 298.047 61.1218 297.066 58.8554C296.095 56.589 293.91 55.123 291.841 53.7829C293.64 54.2776 295.223 52.0202 294.809 50.2035C294.395 48.3867 292.767 47.1186 291.175 46.1473C288.846 44.7263 286.337 43.5841 283.729 42.7656C282.892 39.5909 278.863 35.9484 275.904 34.5184C263.978 28.7804 255.596 27.2875 240.244 38.3587Z" fill="#666666" stroke="#333333" stroke-width="2.5" stroke-miterlimit="10" stroke-linecap="round" stroke-linejoin="round"/>
<path d="M270.301 60.8698C269.986 61.3195 268.655 60.9238 267.072 60.9778C265.489 60.9688 264.167 61.4005 263.844 60.9598C263.7 60.7439 263.889 60.3032 264.455 59.8715C265.013 59.4398 265.957 59.0621 267.045 59.0441C268.134 59.0261 269.087 59.3769 269.654 59.7996C270.238 60.2133 270.445 60.654 270.301 60.8698Z" fill="#1A2E35"/>
<path d="M231.817 80.7551C231.619 77.7962 227.986 77.2296 225.449 78.7495C224.055 79.586 223.003 81.2408 223.192 84.3796C223.678 92.7528 231.988 90.5403 231.988 90.2975" fill="white"/>
<path d="M231.817 80.7551C231.619 77.7962 227.986 77.2296 225.449 78.7495C224.055 79.586 223.003 81.2408 223.192 84.3796C223.678 92.7528 231.988 90.5403 231.988 90.2975" stroke="#333333" stroke-width="1.5" stroke-miterlimit="10" stroke-linecap="round" stroke-linejoin="round"/>
<path d="M187.226 153.074C187.226 153.074 165.093 119.455 158.554 117.98L152.726 116.316L135.081 111.532C135.081 111.532 135.206 118.331 125.376 118.547C114.053 118.799 104.547 108.833 104.547 108.833C104.547 108.833 81.0013 116.172 76.0548 120.157C71.1083 124.141 79.2476 170.288 79.2476 170.288H165.407L165.344 169.784L187.226 153.074Z" fill="white" stroke="#333333" stroke-width="2.5" stroke-miterlimit="10" stroke-linecap="round" stroke-linejoin="round"/>
<path d="M75.821 120.13C75.821 120.13 68.3742 125.193 66.3056 135.554C64.2371 145.915 59.9201 170.278 59.9201 170.278L95.9309 170.296C95.9309 170.296 98.1883 141.409 89.6623 127.711C83.1868 117.297 75.821 120.13 75.821 120.13Z" fill="white" stroke="#333333" stroke-width="2.5" stroke-miterlimit="10" stroke-linecap="round" stroke-linejoin="round"/>
<path d="M181.65 157.337L185.985 170.431L165.416 170.296L165.353 169.793L181.65 157.337Z" fill="white" stroke="#333333" stroke-width="1.5" stroke-miterlimit="10" stroke-linecap="round" stroke-linejoin="round"/>
<g opacity="0.3">
<path d="M121.689 251.168C120.565 249.288 119.288 247.912 118.172 246.042C118.082 245.898 117.534 245.313 117.606 245.151C117.651 245.043 117.048 245.754 116.85 246.068C115.708 247.831 113.9 249.441 112.695 250.997L97.4239 237.12C101.615 243.11 106.391 248.704 111.544 253.479C111.931 253.839 112.452 254.1 112.983 254.046C113.55 253.983 113.981 253.506 114.341 253.066C115.114 252.13 115.888 251.186 116.67 250.251C116.85 250.035 117.048 249.81 117.318 249.738C117.696 249.648 118.055 249.9 118.37 250.134C119.153 250.736 119.935 251.339 120.718 251.941C121.05 252.193 121.554 252.436 121.833 252.13C122.04 251.878 121.869 251.474 121.689 251.168Z" fill="black"/>
</g>
<path d="M91.8927 235.681H95.823L100.32 229.115L117.543 243.218L123.227 251.672L125.997 243.343L131.996 240.367L133.543 244.917L138.552 247.22L132.275 262.932L127.229 269.047C127.229 269.047 119.422 274.812 109.062 265.315C98.701 255.818 98.701 255.818 98.701 255.818L91.8927 235.681Z" fill="white" stroke="#333333" stroke-width="1.5" stroke-miterlimit="10" stroke-linecap="round" stroke-linejoin="round"/>
<path d="M91.8927 235.681C91.8927 235.681 112.497 266.835 120.843 263.894C129.181 260.953 137.464 246.374 137.464 246.374C137.464 246.374 155.595 252.121 161.243 258.246C166.882 264.38 176.326 300.364 176.326 300.364L89.6083 294.05C89.6083 294.05 76.6933 274.687 76.6933 273.212C76.6933 271.737 80.4977 237.255 80.4977 237.255L91.8927 235.681Z" fill="#9ADAF3" stroke="#333333" stroke-width="2.5" stroke-miterlimit="10" stroke-linecap="round" stroke-linejoin="round"/>
<path d="M126.051 287.674C126.051 287.674 137.734 283.321 142.914 283.86C148.094 284.391 168.321 300.373 168.321 300.373L141.997 300.22L139.712 298.133L133.848 304.465L126.051 287.674Z" fill="white" stroke="#333333" stroke-width="1.5" stroke-miterlimit="10" stroke-linecap="round" stroke-linejoin="round"/>
<path d="M91.8927 235.681C91.8927 235.681 77.143 232.056 64.9116 245.898C60.3428 251.069 58.2113 257.958 58.6879 264.847C59.0117 269.569 59.4794 276.377 59.8931 282.646C60.6216 293.699 63.0499 320.995 68.8868 327.507C74.7327 334.018 90.4447 330.852 95.9669 328.685C101.48 326.517 110.042 327.129 114.269 323.127C118.496 319.125 124.837 316.66 131.465 314.007C138.093 311.363 135.44 307.846 135.44 307.846L125.529 286.873L89.5993 294.05C89.5993 294.05 88.1243 280.218 89.6533 276.054" fill="#9ADAF3"/>
<path d="M91.8927 235.681C91.8927 235.681 77.143 232.056 64.9116 245.898C60.3428 251.069 58.2113 257.958 58.6879 264.847C59.0117 269.569 59.4794 276.377 59.8931 282.646C60.6216 293.699 63.0499 320.995 68.8868 327.507C74.7327 334.018 90.4447 330.852 95.9669 328.685C101.48 326.517 110.042 327.129 114.269 323.127C118.496 319.125 124.837 316.66 131.465 314.007C138.093 311.363 135.44 307.846 135.44 307.846L125.529 286.873L89.5993 294.05C89.5993 294.05 88.1243 280.218 89.6533 276.054" stroke="#333333" stroke-width="2.5" stroke-miterlimit="10" stroke-linecap="round" stroke-linejoin="round"/>
<path d="M258.753 120.444L252.682 131.012L234.02 120.813V87.5364H258.753V120.444Z" fill="white" stroke="#333333" stroke-width="1.5" stroke-miterlimit="10" stroke-linecap="round" stroke-linejoin="round"/>
<path d="M142.752 202.035C141.889 217.81 130.161 229.017 117.696 229.017C105.23 229.017 97.5947 217.828 97.5947 202.035C97.5947 186.242 107.704 173.435 120.178 173.435C132.652 173.435 143.903 180.945 142.752 202.035Z" fill="white" stroke="#333333" stroke-width="1.5" stroke-miterlimit="10" stroke-linecap="round" stroke-linejoin="round"/>
<path d="M147.258 69.414C146.368 85.7646 140.18 101.486 127.247 101.486C114.314 101.486 100.446 85.7916 100.446 69.414C100.446 53.0364 110.923 39.7617 123.847 39.7617C136.771 39.7617 148.445 47.5503 147.258 69.414Z" fill="white" stroke="#333333" stroke-width="1.5" stroke-miterlimit="10" stroke-linecap="round" stroke-linejoin="round"/>
<path d="M145.177 177.3C146.652 174.988 148.711 171.193 148.756 171.184C142.748 172.299 138.431 170.42 133.215 168.036C132.001 167.488 117.818 163.009 117.773 163.908C117.791 163.494 118.133 159.231 118.375 159.222C115.722 159.321 113.132 160.598 111.441 162.64C111.81 160.095 112.179 157.55 112.547 155.004C104.291 160.185 99.8483 168.45 95.0007 176.499C91.5651 182.192 88.9659 190.934 90.4049 197.626C91.2144 201.385 95.2795 211.431 100.559 208.256C101.872 207.465 102.528 205.945 103.032 204.506C104.345 200.71 105.379 196.825 105.299 192.895C105.218 189.333 103.626 185.799 105.577 182.363C107.538 178.919 112.601 177.983 116.766 178.757C120.102 179.377 123.187 180.798 126.371 181.914C129.555 183.029 133.017 183.847 136.354 183.2C139.016 182.678 141.849 180.636 143.945 178.946C144.214 178.739 144.664 178.109 145.177 177.3Z" fill="white" stroke="#333333" stroke-width="2.5" stroke-miterlimit="10" stroke-linecap="round" stroke-linejoin="round"/>
<path d="M251.432 108.887C263.711 108.887 273.665 96.2195 273.665 80.5931C273.665 64.9666 263.711 52.2988 251.432 52.2988C239.154 52.2988 229.2 64.9666 229.2 80.5931C229.2 96.2195 239.154 108.887 251.432 108.887Z" fill="white" stroke="#333333" stroke-width="1.5" stroke-miterlimit="10" stroke-linecap="round" stroke-linejoin="round"/>
<path d="M324.857 239.737C326.665 254.739 313.858 269.101 302.067 270.532C290.276 271.962 283.963 259.901 282.146 244.89C280.329 229.88 288.423 216.569 300.223 215.139C312.023 213.718 323.049 224.727 324.857 239.737Z" fill="white" stroke="#333333" stroke-width="1.5" stroke-miterlimit="10" stroke-linecap="round" stroke-linejoin="round"/>
<path d="M240.613 54.8533C242.295 57.4795 247.727 55.5998 250.686 55.7077C252.979 55.7887 255.677 55.1232 257.251 56.9039C258.897 58.7836 258.151 62.2012 259.482 64.3687C261.397 67.4715 265.975 66.1225 268.907 67.9842C271.173 69.4232 272.064 72.481 273.152 75.1342C274.24 77.7873 276.174 80.5394 278.845 80.3146C279.304 77.7513 279.771 75.1701 279.699 72.589C279.628 70.0167 278.98 67.4086 277.451 65.5739C276.615 64.5666 275.535 63.8111 274.807 62.7139C273.215 60.3305 273.539 56.9399 272.918 54.0079C272.118 50.2216 269.546 47.0738 266.263 45.8596C263.529 44.8433 260.399 45.0952 257.854 43.6382C255.965 42.5589 254.562 40.6343 252.619 39.6899" fill="#666666"/>
<path d="M240.613 54.8533C242.295 57.4795 247.727 55.5998 250.686 55.7077C252.979 55.7887 255.677 55.1232 257.251 56.9039C258.897 58.7836 258.151 62.2012 259.482 64.3687C261.397 67.4715 265.975 66.1225 268.907 67.9842C271.173 69.4232 272.064 72.481 273.152 75.1342C274.24 77.7873 276.174 80.5394 278.845 80.3146C279.304 77.7513 279.771 75.1701 279.699 72.5889C279.628 70.0167 278.98 67.4086 277.451 65.5739C276.615 64.5666 275.535 63.8111 274.807 62.7139C273.215 60.3305 273.539 56.9399 272.918 54.0079C272.118 50.2216 269.546 47.0738 266.263 45.8596C263.529 44.8433 260.399 45.0952 257.854 43.6382C255.965 42.5589 254.562 40.6343 252.619 39.6899" stroke="#333333" stroke-width="2.5" stroke-miterlimit="10" stroke-linecap="round" stroke-linejoin="round"/>
<path d="M224.127 57.1375C223.255 58.5405 223.147 60.2763 223.165 61.9222C223.228 67.0935 225.315 73.4251 227.293 78.2008L233.751 82.0591C238.724 80.8809 236.431 72.2919 236.188 67.9929C239.659 66.464 242.079 62.8035 242.115 59.0172C244.957 57.1915 246.872 54.0077 247.16 50.644" fill="#666666"/>
<path d="M224.127 57.1375C223.255 58.5405 223.147 60.2763 223.165 61.9222C223.228 67.0935 225.315 73.4251 227.293 78.2008L233.751 82.0591C238.724 80.8809 236.431 72.2919 236.188 67.9929C239.659 66.464 242.079 62.8035 242.115 59.0172C244.957 57.1915 246.872 54.0077 247.16 50.644" stroke="#333333" stroke-width="2.5" stroke-miterlimit="10" stroke-linecap="round" stroke-linejoin="round"/>
<path d="M284.385 226.939C285.24 225.122 287.803 221.237 290.069 221.138C292.336 221.039 294.557 221.785 296.518 222.766C304.846 226.93 309.127 236.985 317.356 241.293C319.38 242.354 322.015 241.383 323.733 242.786C325.45 244.189 326.575 246.428 325.621 248.308C326.728 246.995 327.852 245.664 328.472 244.135C329.102 242.606 329.183 240.825 328.239 239.422C327.528 238.352 326.269 237.542 325.927 236.346C325.621 235.294 326.107 234.197 326.053 233.109C325.999 232.002 325.397 230.986 324.776 230.024C321.556 225.095 318.157 218.89 312.446 216.119C308.713 214.312 303.344 213.745 299.063 213.871C294.782 213.997 290.519 215.355 287.38 217.882" fill="white"/>
<path d="M284.385 226.939C285.24 225.122 287.803 221.237 290.069 221.138C292.336 221.039 294.557 221.785 296.518 222.766C304.846 226.93 309.127 236.985 317.356 241.293C319.38 242.354 322.015 241.383 323.733 242.786C325.45 244.189 326.575 246.428 325.621 248.308C326.728 246.995 327.852 245.664 328.472 244.135C329.102 242.606 329.183 240.825 328.239 239.422C327.528 238.352 326.269 237.542 325.927 236.346C325.621 235.294 326.107 234.197 326.053 233.109C325.999 232.002 325.397 230.986 324.776 230.024C321.556 225.095 318.157 218.89 312.446 216.119C308.713 214.312 303.344 213.745 299.063 213.871C294.782 213.997 290.519 215.355 287.38 217.882" stroke="#333333" stroke-width="2.5" stroke-miterlimit="10" stroke-linecap="round" stroke-linejoin="round"/>
<path d="M160.272 45.9763C159.615 44.2945 157.907 43.7998 156.171 43.584C153.886 43.3052 151.728 42.6306 149.668 41.5604C150.532 41.1377 151.332 40.616 152.016 39.9505C153.437 38.5655 154.264 36.443 153.644 34.5633C153.527 34.2125 153.329 33.8438 152.969 33.7269C152.411 33.547 151.908 34.0956 151.512 34.5273C150.208 35.9573 149.003 36.5599 147.087 36.344C145.891 36.2091 144.74 35.9303 143.804 35.3277C143.768 35.2918 143.733 35.2468 143.697 35.2018C143.247 34.7341 142.815 34.2845 142.383 33.8438C139.164 30.5701 136.385 28.3036 133.507 27.1075C129.307 25.3627 122.238 24.5892 117.813 25.6955C113.388 26.8017 109.386 30.3362 108.72 34.8511C105.995 32.4947 100.922 32.6116 97.8556 34.3474C94.5369 36.2181 93.4756 42.037 93.3137 45.4636C93.1069 49.7626 93.9883 53.9357 95.0136 58.0369C95.814 61.2476 95.5892 64.7552 96.7403 67.894C99.0427 67.9569 99.6003 67.7141 100.761 68.1188C102.253 68.6315 101.651 71.2846 103.612 70.5471C105.419 69.8636 107.083 64.7192 107.857 63.0464C110.132 58.1268 108.873 51.8402 112.776 47.7481C115.195 45.2028 118.928 43.9797 122.381 44.6003C125.457 45.1489 128.11 47.0016 130.845 48.5125C136.915 51.8582 143.84 53.6479 150.775 53.6659C153.05 53.6749 155.406 53.4591 157.385 52.3438C159.364 51.2196 160.857 48.9712 160.47 46.7318C160.434 46.453 160.362 46.2011 160.272 45.9763Z" fill="#333333"/>
<path d="M102.406 69.1172C102.227 66.4101 98.8988 65.8885 96.5784 67.2825C95.3013 68.0469 94.339 69.5669 94.5099 72.4359C94.9596 80.0985 102.559 78.0749 102.559 77.8501" fill="white"/>
<path d="M102.406 69.1172C102.227 66.4101 98.8988 65.8885 96.5784 67.2825C95.3013 68.0469 94.339 69.5669 94.5099 72.4359C94.9596 80.0985 102.559 78.0749 102.559 77.8501" stroke="#333333" stroke-width="1.5" stroke-miterlimit="10" stroke-linecap="round" stroke-linejoin="round"/>
<path d="M121.617 65.9335C122.004 65.4748 122.39 65.0071 122.822 64.5844C122.876 64.5305 122.921 64.4855 122.975 64.4405C123.011 64.4135 123.146 64.2966 122.984 64.4315C123.092 64.3416 123.2 64.2517 123.308 64.1707C123.416 64.0898 123.533 64.0088 123.65 63.9279C123.704 63.8919 123.856 63.82 123.632 63.9369C123.712 63.9009 123.784 63.8559 123.865 63.82C123.928 63.793 123.991 63.766 124.045 63.739C124.207 63.6581 123.775 63.82 123.946 63.775C124.054 63.739 124.171 63.712 124.279 63.6851C124.468 63.6311 123.928 63.721 124.225 63.6941C124.279 63.6851 124.342 63.6761 124.396 63.6761C124.45 63.6671 124.513 63.6671 124.567 63.6671C124.801 63.6491 124.378 63.6401 124.531 63.6671C124.63 63.6851 124.765 63.703 124.873 63.703C125.035 63.712 124.675 63.6401 124.819 63.6941C124.873 63.712 124.927 63.721 124.981 63.739C125.026 63.757 125.313 63.8739 125.205 63.82C125.08 63.748 125.232 63.8379 125.259 63.8559C125.313 63.8919 125.376 63.9279 125.43 63.9639C125.475 63.9998 125.52 64.0268 125.556 64.0628C125.412 63.9459 125.52 64.0358 125.547 64.0628C125.619 64.1527 125.691 64.2337 125.754 64.3236C125.853 64.4495 125.799 64.4046 125.781 64.3506C125.808 64.4046 125.826 64.4675 125.844 64.5215C125.862 64.5754 125.871 64.6384 125.889 64.7013C125.943 64.8902 125.916 64.6294 125.907 64.8183C125.898 64.9442 125.88 65.0611 125.862 65.178C125.862 65.205 125.817 65.3579 125.862 65.205C125.844 65.259 125.817 65.3219 125.79 65.3759C125.763 65.4388 125.592 65.7266 125.718 65.5468C125.682 65.6007 125.646 65.6367 125.61 65.6907C125.484 65.8615 125.709 65.6367 125.601 65.7086C125.457 65.8076 125.826 65.6097 125.664 65.6817C125.493 65.7536 125.934 65.6007 125.763 65.6457C125.592 65.6907 126.051 65.6187 125.871 65.6277C125.7 65.6367 126.123 65.6547 125.952 65.6367C125.898 65.6277 125.835 65.6187 125.781 65.6187C125.619 65.6007 125.97 65.6907 125.826 65.6277C125.772 65.6007 125.709 65.5827 125.655 65.5737C125.538 65.5468 125.79 65.6547 125.619 65.5647C125.511 65.5018 125.412 65.4478 125.322 65.3759C125.277 65.3399 125.232 65.2949 125.187 65.268C125.349 65.3849 125.268 65.3399 125.232 65.3039C125.098 65.142 124.936 64.9981 124.81 64.8273C124.729 64.7193 124.648 64.6114 124.576 64.4945C124.549 64.4495 124.522 64.4046 124.495 64.3596C124.558 64.4675 124.513 64.4135 124.486 64.3326C124.45 64.2337 124.423 64.1347 124.405 64.0268C124.432 64.1977 124.423 64.1437 124.423 64.0718C124.441 63.9908 124.441 63.9908 124.423 64.0718C124.414 64.1437 124.378 64.1977 124.324 64.2517C124.297 64.2876 124.126 64.3866 124.306 64.2786C124.153 64.3686 124.207 64.3506 124.333 64.2786C124.495 64.1797 124.108 64.3326 124.288 64.2876C124.522 64.2337 124.36 64.1977 124.297 64.2696C124.315 64.2517 124.468 64.2517 124.504 64.2427C124.81 64.2067 124.288 64.1977 124.594 64.2427C124.666 64.2517 124.729 64.2607 124.801 64.2696C124.594 64.2337 124.846 64.2966 124.909 64.3146C124.72 64.0718 124.54 63.82 124.351 63.5771C124.261 63.9099 124.198 64.2517 124.108 64.5754C124.045 64.8093 124.243 65.0791 124.414 65.196C124.648 65.3579 125.017 65.4118 125.295 65.3759C125.925 65.3039 126.555 64.9981 126.743 64.3506C126.833 64.0178 126.896 63.6761 126.986 63.3523C127.085 62.9925 126.707 62.7137 126.429 62.6148C125.367 62.2551 124.162 62.354 123.155 62.8307C122.327 63.2264 121.545 63.9639 121.869 64.9532C122.309 66.3202 123.757 67.4354 125.178 67.4804C126.249 67.5074 127.328 67.0937 127.967 66.2033C128.461 65.5198 128.749 64.5934 128.443 63.757C127.868 62.1741 125.916 61.6705 124.396 61.8953C122.265 62.2101 120.772 63.6671 119.449 65.25C119.081 65.6907 119.189 66.2842 119.773 66.4551C120.376 66.608 121.203 66.4281 121.617 65.9335Z" fill="#333333"/>
<path d="M136.627 64.2788C136.627 64.0449 136.627 63.8201 136.663 63.5862C136.672 63.5233 136.681 63.4603 136.699 63.3884C136.708 63.3524 136.717 63.3254 136.726 63.2894C136.744 63.2175 136.735 63.2445 136.699 63.3704C136.69 63.3614 136.762 63.2355 136.762 63.2265C136.852 63.0556 136.78 63.2355 136.717 63.2715C136.735 63.2445 136.753 63.2265 136.78 63.1995C136.843 63.1366 136.807 63.1635 136.672 63.2984C136.852 63.1545 136.394 63.4154 136.609 63.3344C136.663 63.3164 136.861 63.2355 136.618 63.3254C136.385 63.4154 136.582 63.3434 136.636 63.3344C136.888 63.2715 136.645 63.3704 136.547 63.3434C136.591 63.3524 136.708 63.3254 136.753 63.3164C136.879 63.2984 136.996 63.2894 137.122 63.2805C137.356 63.2535 137.59 63.2085 137.824 63.1995C138.066 63.1905 137.734 63.2175 137.716 63.1995C137.725 63.2085 137.896 63.2085 137.914 63.2085C137.968 63.2175 138.048 63.2445 138.102 63.2355C138.039 63.2445 137.824 63.1725 138.021 63.2175C138.129 63.2445 138.246 63.3074 138.354 63.3344C138.309 63.3164 138.264 63.2895 138.219 63.2715C138.255 63.2895 138.291 63.3074 138.327 63.3344C138.372 63.3614 138.417 63.3884 138.462 63.4244C138.471 63.4333 138.597 63.5143 138.588 63.5233C138.489 63.4333 138.471 63.4154 138.525 63.4603C138.552 63.4783 138.57 63.5053 138.588 63.5323C138.678 63.6312 138.75 63.7391 138.822 63.8561C138.786 63.7841 138.75 63.7122 138.714 63.6402C138.804 63.8201 138.858 64.0089 138.876 64.2158C138.867 64.1349 138.867 64.0539 138.858 63.973C138.858 64.0719 138.858 64.1708 138.849 64.2698C138.84 64.3597 138.777 64.4856 138.786 64.5666C138.822 64.4496 138.831 64.4227 138.804 64.4856C138.795 64.5036 138.786 64.5306 138.777 64.5486C138.75 64.6025 138.732 64.6475 138.705 64.7015C138.687 64.7374 138.651 64.7824 138.633 64.8184C138.66 64.7374 138.768 64.6475 138.651 64.7824C138.615 64.8274 138.57 64.8634 138.534 64.9083C138.561 64.8723 138.741 64.7464 138.606 64.8274C138.66 64.7914 138.894 64.6835 138.705 64.7644C138.552 64.8274 139.029 64.6565 138.867 64.7015C138.714 64.7464 139.227 64.6745 139.011 64.6745C138.831 64.6835 139.155 64.6925 139.164 64.6835C139.128 64.7015 139.056 64.6655 139.011 64.6745C138.912 64.6925 139.29 64.7554 139.101 64.6925C139.011 64.6655 138.921 64.6295 138.831 64.6025C138.714 64.5576 139.02 64.7105 138.912 64.6385C138.867 64.6115 138.822 64.5845 138.777 64.5576C138.741 64.5306 138.705 64.5126 138.669 64.4856C138.651 64.4676 138.507 64.3417 138.615 64.4496C138.723 64.5576 138.57 64.4047 138.543 64.3777C138.3 64.1259 138.075 63.8561 137.914 63.5413C137.95 63.6132 137.986 63.6852 138.021 63.7571C137.95 63.6132 137.905 63.4693 137.887 63.3164C137.896 63.3974 137.896 63.4783 137.905 63.5593C137.905 63.5413 137.923 63.3794 137.923 63.3794C137.86 63.5413 137.851 63.5772 137.896 63.4873C137.77 63.6492 137.752 63.6852 137.833 63.5862C137.68 63.7122 137.653 63.7481 137.761 63.6762C137.572 63.7841 137.536 63.8021 137.662 63.7391C137.707 63.7122 137.752 63.6942 137.806 63.6762C137.599 63.7481 137.545 63.7661 137.653 63.7391C137.689 63.7301 137.725 63.7211 137.761 63.7122C137.905 63.6852 137.86 63.6852 137.635 63.7301C137.689 63.7211 137.734 63.7211 137.788 63.7122C137.923 63.7032 137.887 63.7032 137.68 63.7032C137.698 63.7122 137.986 63.7122 137.986 63.7301C137.815 63.6942 137.788 63.6852 137.914 63.7211C137.959 63.7391 138.012 63.7481 138.057 63.7661C137.869 63.5233 137.689 63.2715 137.5 63.0286C137.374 63.4783 137.221 63.964 137.284 64.4227C137.356 64.9353 137.761 65.385 138.165 65.6818C138.39 65.8527 138.777 65.8886 139.047 65.8617C139.371 65.8347 139.766 65.7088 140.027 65.5109C140.468 65.1691 140.702 64.6115 140.18 64.2248C140.144 64.1978 140.036 64.0719 140.117 64.1798C140.207 64.2967 140.072 64.1259 140.063 64.1079C139.991 64.0179 139.928 63.919 139.874 63.8111C139.91 63.883 139.946 63.955 139.982 64.0269C139.928 63.901 139.892 63.7751 139.883 63.6402C139.892 63.7211 139.892 63.8021 139.901 63.883C139.91 63.7122 139.964 63.5413 140.009 63.3704C140.054 63.1905 140.09 63.0017 140.144 62.8218C140.243 62.462 139.865 62.1832 139.586 62.0843C138.615 61.7515 137.5 61.8505 136.574 62.2822C135.8 62.6419 135.045 63.3524 135.35 64.2788C135.746 65.4749 137.005 66.4822 138.264 66.5452C139.335 66.5991 140.387 66.1854 141.007 65.2861C141.421 64.6835 141.655 63.883 141.412 63.1635C140.872 61.6256 139.029 61.2839 137.608 61.4727C136.672 61.5986 135.683 61.6526 134.919 62.2822C134.496 62.6329 134.244 63.0376 134.1 63.5683C134.01 63.883 134.01 64.2158 134.001 64.5486C134.001 65.1691 134.64 65.412 135.188 65.349C135.53 65.313 135.899 65.2141 136.169 64.9983C136.358 64.7914 136.627 64.5486 136.627 64.2788Z" fill="#333333"/>
<path d="M133.624 69.1353C133.857 70.0166 134.064 70.898 134.262 71.7614L134.901 74.3516C135.35 76.0604 135.818 77.7602 136.358 79.4421L136.367 79.478C136.475 79.8018 136.295 80.1436 135.971 80.2515L135.908 80.2695C133.812 80.7102 131.609 80.6652 129.603 80.0176C131.699 79.8737 133.687 79.5949 135.611 79.0463L135.17 79.8738C134.505 78.1739 134.001 76.4022 133.741 74.5944C133.597 73.6951 133.507 72.7867 133.489 71.8693C133.462 70.952 133.498 70.0436 133.624 69.1353Z" fill="#333333"/>
<path d="M121.212 84.0377C121.806 85.9264 123.335 87.4373 125.232 88.0129C127.562 88.7144 130.386 88.0939 132.328 86.6729C132.436 86.5919 132.67 86.421 132.625 86.2502C132.58 86.0793 132.284 86.0433 132.158 86.0253C131.573 85.9714 130.8 86.1692 130.314 86.52C130.179 86.6189 130.044 86.7178 129.918 86.7898C129.729 86.8977 129.657 86.9247 129.522 86.9787C129.459 87.0056 129.325 87.0506 129.468 87.0056C129.477 87.0056 129.127 87.0956 129.244 87.0686C129.352 87.0416 129.1 87.0956 129.082 87.0956C129.001 87.1046 128.992 87.1136 129.064 87.1046C129.019 87.1046 128.974 87.1136 128.929 87.1136C128.2 87.1675 127.445 87.0236 126.761 86.7088C125.358 86.0703 124.297 84.7932 123.838 83.3362C123.605 82.6707 121.014 83.4082 121.212 84.0377Z" fill="#333333"/>
<path d="M248.725 78.5967C248.905 78.2999 249.139 78.057 249.418 77.8502C249.346 77.9041 249.274 77.9581 249.193 78.0031C249.346 77.8951 249.499 77.8052 249.669 77.7333C249.714 77.7153 249.75 77.6973 249.795 77.6793C249.912 77.6343 249.876 77.6433 249.687 77.7063C249.777 77.6973 249.867 77.6523 249.948 77.6343C249.993 77.6253 250.038 77.6163 250.083 77.6073C250.227 77.5894 250.173 77.5894 249.921 77.6253C249.984 77.6343 250.056 77.6253 250.128 77.6163C250.389 77.6073 249.669 77.5804 250.056 77.6163C250.335 77.6433 249.562 77.4994 249.948 77.5983C250.218 77.6613 249.481 77.4005 249.849 77.5624C250.2 77.7243 249.571 77.3825 249.786 77.5264C249.84 77.5624 249.894 77.6073 249.957 77.6433C249.58 77.4005 249.831 77.5444 249.93 77.6343C249.993 77.6973 250.047 77.7782 250.119 77.8322C249.993 77.6703 249.966 77.6433 250.047 77.7422C250.074 77.7782 250.101 77.8142 250.128 77.8502C250.227 78.0031 250.308 78.165 250.38 78.3358C250.344 78.2549 250.308 78.165 250.272 78.084C250.362 78.3178 250.425 78.5607 250.443 78.8125C250.488 78.6596 250.533 78.5067 250.578 78.3628C250.542 78.4078 250.515 78.4438 250.47 78.4797C250.542 78.4258 250.614 78.3718 250.695 78.3268C250.524 78.4258 251.01 78.2549 250.812 78.2999C251.099 78.2369 251.414 78.2729 251.693 78.3538C251.45 78.2909 252.08 78.5157 251.9 78.4348C251.837 78.4078 251.603 78.2819 251.873 78.4348C252.233 78.6326 251.72 78.3358 251.729 78.3268C251.792 78.3808 251.864 78.4258 251.927 78.4797C251.837 78.3898 251.864 78.4258 252.008 78.5877C251.999 78.5427 251.945 78.4707 251.918 78.4258C251.954 78.5067 251.99 78.5966 252.026 78.6776C251.972 78.5427 251.945 78.4078 251.945 78.2639C251.945 78.3448 251.936 78.4258 251.936 78.5067C251.945 78.3358 251.981 78.1919 252.062 78.039C252.017 78.111 251.981 78.1829 251.936 78.2459C251.972 78.1919 252.008 78.147 252.044 78.102C252.538 77.5534 251.666 76.9148 251.216 76.726C250.821 76.5551 250.38 76.4292 249.939 76.4472C249.634 76.4651 249.265 76.5011 249.049 76.7439C248.734 77.0947 248.599 77.5804 248.698 78.048C248.833 78.6506 249.283 79.0823 249.777 79.4061C250.434 79.8468 251.207 80.1436 251.999 80.1885C252.646 80.2335 253.771 80.0806 253.681 79.1992C253.582 78.2369 252.943 77.3825 252.206 76.7979C251.099 75.9255 249.669 75.5658 248.275 75.7277C247.295 75.8446 246.261 76.3752 245.73 77.2296C245.577 77.4814 245.541 77.6613 245.703 77.9311C245.874 78.2279 246.261 78.4707 246.558 78.6056C246.953 78.7765 247.394 78.9024 247.835 78.8845C248.096 78.8755 248.563 78.8575 248.725 78.5967Z" fill="#333333"/>
<path d="M262.89 78.2638C263.34 77.9041 263.79 77.5443 264.311 77.2925C264.239 77.3285 264.158 77.3644 264.086 77.4004C264.302 77.3015 264.518 77.2385 264.743 77.1846C264.878 77.1486 264.464 77.2115 264.662 77.1936C264.716 77.1936 264.77 77.1846 264.824 77.1846C265.058 77.1756 264.734 77.1936 264.689 77.1756C264.725 77.1936 264.842 77.1936 264.878 77.1936C264.788 77.1756 264.689 77.1576 264.599 77.1396C264.716 77.1666 264.68 77.1576 264.509 77.1036C264.338 77.0407 264.302 77.0317 264.419 77.0766C264.32 77.0317 264.221 76.9867 264.131 76.9417C264.167 76.9777 264.41 77.1036 264.113 76.9238C263.969 76.8338 263.942 76.8158 264.023 76.8788C263.96 76.8248 263.898 76.7709 263.835 76.7079C263.853 76.7259 263.925 76.8158 263.942 76.8248C263.907 76.8068 263.754 76.564 263.871 76.7349C263.925 76.8158 263.969 76.9058 264.005 76.9957C263.978 76.9148 263.943 76.8428 263.916 76.7619C263.987 76.9507 264.014 77.1306 264.005 77.3285C264.014 77.2565 264.014 77.1846 264.023 77.1216C264.005 77.3195 263.934 77.4904 263.817 77.6522C263.862 77.5983 263.907 77.5443 263.951 77.4814C263.853 77.6073 263.736 77.6972 263.592 77.7692C263.664 77.7332 263.745 77.6972 263.817 77.6612C263.763 77.6882 263.709 77.7062 263.646 77.7242C263.592 77.7422 263.394 77.7782 263.619 77.7422C263.736 77.7242 263.754 77.7242 263.664 77.7332C263.529 77.7332 263.592 77.7422 263.871 77.7422C263.853 77.7422 263.835 77.7422 263.817 77.7332C264.032 77.7602 264.248 77.8141 264.446 77.9041C264.347 77.8591 264.383 77.8771 264.554 77.958C264.707 78.021 264.842 78.0929 264.968 78.1919C264.788 78.057 265.229 78.4527 265.085 78.2908C265.328 78.5696 265.202 78.4527 265.148 78.3627C265.112 78.2998 265.085 78.2368 265.058 78.1739C265.085 78.2548 265.121 78.3268 265.148 78.4077C265.094 78.2368 265.067 78.0749 265.085 77.8951C265.076 77.967 265.076 78.039 265.067 78.1019C265.094 77.9221 265.148 77.7692 265.247 77.6253C265.202 77.6792 265.157 77.7332 265.112 77.7961C265.22 77.6612 265.355 77.5533 265.516 77.4814C265.444 77.5173 265.364 77.5533 265.292 77.5893C265.355 77.5623 265.417 77.5443 265.489 77.5173C265.678 77.4544 265.175 77.5353 265.417 77.5263C265.525 77.5263 265.453 77.5173 265.184 77.5173C265.337 77.5353 265.256 77.5173 264.932 77.4634C265.094 77.5083 265.004 77.4724 264.653 77.3734C264.329 77.2116 264.239 77.1666 264.383 77.2565C264.743 77.4634 265.202 77.6163 265.624 77.6612C265.849 77.6882 266.317 77.7062 266.515 77.5173C267.018 77.0227 266.119 76.4111 265.768 76.2133C264.977 75.7636 263.916 75.4758 263.016 75.7456C262.566 75.8805 262.117 76.2043 261.973 76.6629C261.82 77.1396 261.928 77.6612 262.198 78.066C262.773 78.9383 263.889 79.46 264.905 79.5769C265.498 79.6488 266.191 79.5859 266.668 79.1902C267.054 78.8664 267.225 78.3717 267.162 77.8771C267.09 77.3644 266.776 76.8698 266.398 76.528C265.642 75.8445 264.635 75.3948 263.619 75.3049C262.827 75.2419 262.108 75.3678 261.397 75.7186C260.885 75.9704 260.444 76.3212 260.012 76.6719C259.814 76.8338 259.841 77.0766 259.949 77.2835C260.111 77.5713 260.48 77.8321 260.759 77.985C261.136 78.1829 261.568 78.3538 262 78.3897C262.288 78.4257 262.656 78.4527 262.89 78.2638Z" fill="#333333"/>
<path d="M255.812 89.524C256.99 89.2272 258.106 88.9754 259.257 88.7775C259.545 88.7236 259.832 88.6696 260.12 88.6426C260.417 88.6066 260.741 88.5707 260.786 88.5257C260.822 88.4717 260.723 88.5797 260.777 88.4717C260.804 88.3728 260.813 88.2289 260.777 88.058C260.723 87.7163 260.453 87.1137 260.282 86.5651C260.111 86.0075 259.913 85.4588 259.778 84.8922C259.473 83.768 259.23 82.6078 259.149 81.3937C259.922 82.338 260.534 83.3453 261.083 84.3796C261.37 84.8922 261.604 85.4229 261.865 85.9445C262.099 86.4841 262.36 86.9338 262.54 87.7342C262.611 88.121 262.62 88.5797 262.459 89.0383C262.378 89.2722 262.252 89.515 262.027 89.7398C261.811 89.9647 261.523 90.1086 261.271 90.1715C260.75 90.2795 260.489 90.2255 260.201 90.2255C259.913 90.2255 259.626 90.2075 259.329 90.1895C258.169 90.1086 256.954 89.9737 255.812 89.524Z" fill="#333333"/>
<path d="M253.6 94.0837C253.771 94.1286 253.941 94.2186 254.094 94.3894C254.796 95.1269 255.192 96.3771 256.325 95.5766C256.631 95.3608 256.927 95.1269 257.233 94.9381C257.71 94.6413 257.818 94.5423 258.24 94.9021C258.582 95.1899 258.933 95.4867 259.302 95.7205C259.644 95.9364 260.129 96.0173 260.426 96.2871C259.868 96.7548 259.482 97.4383 258.987 97.9959C257.584 99.5698 255.794 100.334 253.852 99.8127C251.765 99.255 249.66 96.9347 249.382 94.2725C249.454 94.992 252.053 94.2545 252.431 94.1736C252.844 94.0927 253.24 93.9847 253.6 94.0837Z" fill="#333333"/>
<path d="M117.804 200.066C118.082 198.861 119.054 197.844 120.232 197.494C121.41 197.143 122.777 197.476 123.668 198.339" stroke="#333333" stroke-width="2.5" stroke-miterlimit="10" stroke-linecap="round" stroke-linejoin="round"/>
<path d="M130.161 197.008C131.285 195.596 133.372 195.029 135.063 195.677" stroke="#333333" stroke-width="2.5" stroke-miterlimit="10" stroke-linecap="round" stroke-linejoin="round"/>
<path d="M128.164 212.621C131.384 211.704 130.907 207.944 129.837 205.354" stroke="#333333" stroke-width="2.5" stroke-miterlimit="10" stroke-linecap="round" stroke-linejoin="round"/>
<path d="M115.096 213.88C115.393 215.643 116.67 217.181 118.244 217.99C120.133 218.97 122.282 219.096 124.243 218.26C124.711 218.062 125.241 217.441 124.864 216.938C124.468 216.407 123.614 216.533 123.101 216.758C122.795 216.884 123.083 216.812 123.092 216.767C123.083 216.794 122.867 216.839 122.831 216.848C122.741 216.875 122.651 216.893 122.561 216.911C122.273 216.983 122.831 216.884 122.561 216.911C122.381 216.929 122.202 216.947 122.022 216.947C121.716 216.956 122.3 216.974 121.995 216.947C121.905 216.938 121.815 216.938 121.725 216.929C121.545 216.911 121.365 216.875 121.185 216.839C121.482 216.902 121.176 216.83 121.131 216.821C121.041 216.794 120.951 216.767 120.87 216.74C120.7 216.686 120.529 216.605 120.358 216.542C120.079 216.434 120.538 216.65 120.277 216.506C120.196 216.461 120.115 216.416 120.034 216.371C119.71 216.182 119.422 215.967 119.135 215.733C118.973 215.598 119.216 215.823 119.054 215.661C118.991 215.598 118.928 215.535 118.865 215.463C118.739 215.328 118.622 215.184 118.514 215.04C118.406 214.896 118.307 214.743 118.208 214.59C118.172 214.528 118.136 214.456 118.1 214.393C118.073 214.33 118.073 214.339 118.109 214.411C118.091 214.366 118.073 214.33 118.055 214.285C117.912 213.925 117.795 213.565 117.732 213.187C117.624 212.567 116.652 212.522 116.194 212.657C115.618 212.819 114.989 213.232 115.096 213.88Z" fill="#333333"/>
<path d="M288.99 239.278C289.035 239.036 289.08 238.793 289.179 238.559C289.152 238.622 289.116 238.685 289.089 238.757C289.134 238.667 289.179 238.595 289.233 238.514C289.296 238.415 289.098 238.658 289.188 238.577C289.278 238.496 288.936 238.73 289.116 238.631C288.909 238.748 288.648 238.847 288.405 238.874C288.432 238.874 287.794 238.811 288.019 238.874C287.938 238.856 287.83 238.793 287.965 238.865C288.01 238.892 288.046 238.919 288.091 238.946C288.037 238.901 287.974 238.865 287.92 238.82C288.217 239.045 288.477 239.368 288.675 239.683C288.648 239.629 288.612 239.575 288.585 239.521C288.684 239.701 288.756 239.881 288.756 240.088C288.756 240.025 288.756 239.962 288.756 239.899C288.747 240.016 288.729 240.115 288.684 240.223C288.711 240.16 288.747 240.097 288.774 240.025C288.756 240.052 288.738 240.088 288.72 240.115C288.837 239.989 288.855 239.971 288.783 240.034C288.981 239.854 289.242 239.755 289.503 239.701C289.62 239.674 289.736 239.656 289.853 239.665C290.06 239.692 290.105 239.701 289.997 239.674C290.258 239.737 290.123 239.71 290.042 239.656C290.096 239.701 290.159 239.737 290.213 239.782C290.132 239.719 290.069 239.647 290.015 239.557C290.042 239.611 290.078 239.665 290.105 239.719C290.033 239.584 290.006 239.44 290.006 239.287C290.006 239.35 290.006 239.413 290.006 239.476C290.006 239.35 290.033 239.233 290.087 239.126C290.06 239.188 290.024 239.251 289.997 239.323C290.024 239.269 290.132 239.135 290.006 239.278C289.88 239.413 289.961 239.332 289.997 239.305C289.826 239.44 289.656 239.539 289.449 239.611C289.269 239.674 289.089 239.71 288.9 239.719C288.756 239.719 288.729 239.728 288.81 239.728C288.738 239.719 288.675 239.71 288.603 239.71C288.729 239.728 288.459 239.674 288.468 239.665C288.477 239.656 288.558 239.71 288.558 239.719C288.504 239.674 288.441 239.638 288.387 239.593C288.468 239.656 288.522 239.719 288.576 239.809C288.549 239.755 288.513 239.701 288.486 239.647C288.684 240.007 288.702 240.457 288.702 240.861C288.702 240.798 288.702 240.735 288.702 240.672C288.702 240.987 288.729 241.329 288.603 241.617C288.63 241.554 288.666 241.491 288.693 241.419C288.675 241.446 288.657 241.473 288.639 241.5C288.945 241.104 289.404 240.915 290.006 240.951C290.123 240.951 290.231 240.969 290.33 241.014C290.294 240.996 290.267 240.978 290.231 240.96C290.285 241.005 290.348 241.041 290.402 241.086C290.303 241.014 290.24 240.933 290.177 240.825C290.204 240.879 290.24 240.933 290.267 240.987C290.159 240.771 290.123 240.538 290.087 240.304C290.033 240.007 289.988 239.701 289.934 239.404C289.844 238.856 289.7 238.298 289.673 237.741C289.673 237.803 289.673 237.866 289.673 237.929C289.673 237.812 289.682 237.705 289.736 237.597C289.709 237.66 289.673 237.723 289.647 237.794C289.656 237.776 289.665 237.758 289.673 237.75C289.593 237.848 289.494 237.929 289.377 237.974C289.107 238.136 288.738 238.271 288.405 238.262C288.333 238.262 288.136 238.262 288.082 238.19C288.1 238.208 288.199 238.244 288.226 238.262C288.172 238.217 288.109 238.181 288.055 238.136C288.235 238.271 288.36 238.442 288.468 238.631C288.441 238.577 288.405 238.523 288.378 238.469C288.603 238.874 288.837 239.287 288.864 239.764C288.864 239.701 288.864 239.638 288.864 239.575C288.864 239.737 288.837 239.881 288.774 240.025C288.801 239.962 288.837 239.899 288.864 239.827C288.846 239.872 288.819 239.908 288.801 239.953C288.756 240.025 288.675 240.079 288.855 239.917C288.747 240.016 288.954 239.854 288.972 239.845C288.855 239.917 288.918 239.89 289.17 239.773C289.404 239.647 289.665 239.593 289.934 239.602C289.575 239.62 289.242 239.665 288.909 239.8C288.684 239.899 288.342 240.088 288.217 240.313C288.118 240.484 288.055 240.699 288.226 240.861C288.405 241.032 288.693 241.113 288.927 241.095C289.79 241.059 290.834 240.762 291.274 239.944C291.526 239.467 291.535 238.955 291.328 238.451C291.238 238.235 291.13 238.028 291.023 237.821C290.888 237.579 290.753 237.327 290.537 237.147C289.862 236.589 288.864 236.688 288.109 237.021C287.686 237.201 287.272 237.516 287.119 237.974C287.038 238.217 287.074 238.487 287.11 238.739C287.191 239.26 287.281 239.782 287.371 240.304C287.461 240.825 287.488 241.392 287.767 241.86C288.181 242.543 289.152 242.534 289.835 242.354C290.555 242.165 291.274 241.653 291.31 240.852C291.328 240.538 291.328 240.214 291.31 239.899C291.301 239.602 291.265 239.296 291.139 239.027C290.942 238.604 290.627 238.352 290.159 238.271C289.017 238.064 287.299 238.703 287.407 240.079C287.434 240.448 287.668 240.744 287.974 240.942C288.226 241.104 288.558 241.158 288.855 241.176C289.422 241.203 290.033 241.032 290.519 240.753C291.13 240.403 291.589 239.728 291.283 239.018C291.068 238.496 290.636 238.001 290.168 237.687C289.377 237.156 288.172 237.399 287.425 237.893C287.11 238.1 286.831 238.361 286.67 238.703C286.526 239 286.445 239.296 286.391 239.611C286.193 240.609 288.819 240.187 288.99 239.278Z" fill="#333333"/>
<path d="M303.065 240.259C303.317 239.845 303.497 239.377 303.632 238.91C303.767 238.433 303.839 237.92 303.74 237.426C303.623 236.823 303.146 236.409 302.579 236.247C301.5 235.933 300.133 236.247 299.36 237.048C299.027 237.399 298.775 237.857 298.703 238.334C298.622 238.829 298.712 239.35 298.856 239.827C298.991 240.304 299.153 240.78 299.396 241.221C299.648 241.68 300.07 242.003 300.565 242.165C301.842 242.57 303.452 241.824 303.92 240.564C304.171 239.881 304.18 239.134 303.812 238.487C303.2 237.444 301.752 237.57 300.79 237.938C299.702 238.361 299.027 239.233 298.478 240.214C298.173 240.753 298.748 241.131 299.234 241.158C299.836 241.185 300.619 240.96 300.943 240.403C301.033 240.241 301.123 240.088 301.221 239.935C301.266 239.863 301.311 239.8 301.356 239.737C301.374 239.71 301.392 239.683 301.41 239.656C301.473 239.566 301.464 239.584 301.374 239.701C301.365 239.674 301.527 239.521 301.554 239.494C301.608 239.431 301.707 239.377 301.743 239.305C301.698 239.341 301.662 239.377 301.617 239.413C301.653 239.386 301.689 239.359 301.725 239.332C301.761 239.305 301.797 239.287 301.842 239.26C301.653 239.368 301.617 239.386 301.734 239.332C302.058 239.206 301.464 239.395 301.671 239.35C301.896 239.296 301.302 239.395 301.527 239.377C301.734 239.359 301.149 239.395 301.428 239.377C301.203 239.332 301.149 239.323 301.257 239.35C301.284 239.359 301.311 239.368 301.338 239.377C301.167 239.395 301.114 239.26 301.239 239.341C301.428 239.458 301.132 239.197 301.221 239.314C301.293 239.404 301.365 239.485 301.428 239.584C301.392 239.521 301.356 239.458 301.329 239.386C301.446 239.611 301.5 239.854 301.509 240.106C301.509 240.034 301.5 239.962 301.5 239.89C301.5 240.097 301.482 240.304 301.428 240.51C301.419 240.555 301.383 240.618 301.383 240.663C301.437 240.528 301.437 240.501 301.401 240.6C301.392 240.618 301.383 240.636 301.374 240.654C301.365 240.672 301.266 240.798 301.275 240.816C301.374 240.69 301.392 240.672 301.32 240.753C301.302 240.78 301.275 240.798 301.248 240.816C301.185 240.879 301.221 240.843 301.356 240.726C301.275 240.78 301.284 240.771 301.392 240.708C301.5 240.654 301.518 240.645 301.428 240.681C301.536 240.627 301.653 240.591 301.77 240.582C301.878 240.555 301.986 240.546 302.094 240.564C302.004 240.555 302.004 240.555 302.112 240.573C302.22 240.591 302.229 240.591 302.139 240.564C302.274 240.627 302.31 240.636 302.238 240.6C302.211 240.582 302.022 240.492 302.139 240.555C302.193 240.609 302.193 240.6 302.13 240.546C302.103 240.519 302.085 240.501 302.058 240.475C301.959 240.358 301.878 240.232 301.806 240.097C301.842 240.16 301.878 240.223 301.905 240.295C301.752 239.989 301.653 239.656 301.545 239.332C301.437 238.982 301.347 238.622 301.32 238.244C301.32 238.316 301.329 238.388 301.329 238.46C301.329 238.262 301.356 238.082 301.392 237.893C301.428 237.722 301.311 238.055 301.41 237.848C301.437 237.785 301.482 237.722 301.518 237.659C301.581 237.57 301.563 237.588 301.464 237.722C301.491 237.695 301.518 237.659 301.545 237.632C301.635 237.552 301.599 237.579 301.455 237.704C301.563 237.632 301.518 237.65 301.32 237.776C301.527 237.677 300.97 237.875 301.203 237.812C300.754 237.92 301.006 237.848 301.123 237.839C301.419 237.812 300.835 237.821 301.033 237.839C301.078 237.839 301.123 237.848 301.159 237.848C301.338 237.857 300.826 237.767 301.06 237.839C301.275 237.902 300.853 237.722 300.979 237.803C301.006 237.821 301.033 237.839 301.069 237.857C301.239 237.947 300.934 237.704 301.015 237.803C301.069 237.866 301.123 237.929 301.159 238.001C301.123 237.938 301.087 237.875 301.06 237.803C301.149 237.983 301.194 238.181 301.203 238.388C301.203 238.316 301.194 238.244 301.194 238.172C301.203 238.559 301.123 238.946 301.006 239.305C300.988 239.35 300.979 239.395 300.961 239.44C300.916 239.584 301.06 239.197 300.97 239.404C300.934 239.485 300.907 239.566 300.871 239.647C300.799 239.8 300.727 239.944 300.637 240.079C300.313 240.609 300.916 240.996 301.392 241.023C301.977 241.05 302.723 240.816 303.065 240.259Z" fill="#333333"/>
<path d="M292.273 257.32C294.818 257.662 297.426 257.644 299.962 257.248C299.567 256.987 299.171 256.726 298.775 256.465C298.793 256.996 298.739 257.518 298.604 258.03C298.541 258.264 298.46 258.471 298.352 258.696C298.299 258.804 298.245 258.903 298.191 259.011C298.119 259.137 298.083 259.19 298.056 259.226C297.912 259.424 297.732 259.622 297.543 259.793C297.696 259.658 297.417 259.883 297.417 259.883C297.381 259.91 297.057 260.108 297.174 260.045C297.3 259.982 296.949 260.144 296.913 260.162C297.129 260.063 296.958 260.153 296.833 260.18C296.707 260.216 296.518 260.234 296.752 260.207C296.608 260.225 296.464 260.234 296.311 260.243C295.762 260.261 294.944 260.647 294.863 261.25C294.773 261.907 295.573 262.041 296.05 262.032C299.09 261.943 301.5 259.244 301.401 256.241C301.383 255.638 300.781 255.368 300.214 255.458C299.018 255.647 297.813 255.746 296.608 255.764C296.23 255.773 295.555 255.746 295.025 255.719C294.413 255.683 293.802 255.62 293.19 255.53C292.596 255.449 291.769 255.746 291.49 256.303C291.211 256.888 291.76 257.248 292.273 257.32Z" fill="#333333"/>
<path d="M291.706 244.98C291.436 245.934 291.166 246.878 290.897 247.831C290.771 248.281 290.636 248.74 290.51 249.189C290.384 249.63 290.258 250.071 290.276 250.539C290.303 251.285 290.807 251.915 291.499 252.175C292.533 252.562 293.658 252.166 294.611 251.726C294.872 251.609 295.42 251.258 295.124 250.916C294.845 250.592 294.152 250.736 293.829 250.88C293.649 250.961 293.478 251.042 293.298 251.114C293.208 251.15 293.145 251.186 293.028 251.186C292.974 251.186 292.803 251.105 292.686 251.024C292.147 250.601 292.21 249.927 292.372 249.333C292.785 247.804 293.235 246.276 293.667 244.756C293.793 244.324 293.073 244.279 292.812 244.315C292.417 244.342 291.823 244.549 291.706 244.98Z" fill="#333333"/>
<defs>
<linearGradient id="paint0_linear_1732_4422" x1="250.111" y1="302.446" x2="380.512" y2="302.446" gradientUnits="userSpaceOnUse">
<stop stop-color="#FFA363"/>
<stop offset="0.9127" stop-color="#FF7743"/>
</linearGradient>
</defs>
</svg>
