<svg width="544" height="280" viewBox="0 0 544 280" fill="none" xmlns="http://www.w3.org/2000/svg">
<path d="M407.288 228.369H136.668C129.116 228.369 123 222.252 123 214.701V31.7528C123 24.2012 129.116 18.0847 136.668 18.0847H407.288C414.84 18.0847 420.957 24.2012 420.957 31.7528V214.701C420.957 222.252 414.832 228.369 407.288 228.369Z" fill="white" stroke="#CCCCCC" stroke-width="2" stroke-miterlimit="10"/>
<path d="M315.618 247.538V228.369H228.33V247.538C228.33 254.031 223.068 259.293 216.575 259.293V264.265H327.373V259.293C320.88 259.293 315.618 254.031 315.618 247.538Z" fill="white" stroke="#CCCCCC" stroke-width="2" stroke-miterlimit="10"/>
<path d="M327.373 259.293H216.575V264.265H327.373V259.293Z" fill="white" stroke="#AAAAAA" stroke-miterlimit="10"/>
<path d="M411.56 28.5494H132.388V201.186H411.56V28.5494Z" stroke="#CCCCCC" stroke-miterlimit="10"/>
<path d="M271.974 217.879C274.692 217.879 276.895 215.676 276.895 212.958C276.895 210.24 274.692 208.037 271.974 208.037C269.256 208.037 267.053 210.24 267.053 212.958C267.053 215.676 269.256 217.879 271.974 217.879Z" stroke="#CCCCCC" stroke-miterlimit="10"/>
<path d="M188.077 41.3974H139.556V194.31H188.077V41.3974Z" fill="#F5F5F5"/>
<path d="M180.158 181.222H146.765V186.561H180.158V181.222Z" fill="white"/>
<path d="M180.158 95.3865H146.765V100.726H180.158V95.3865Z" fill="white"/>
<path d="M180.158 86.9464H146.765V92.2855H180.158V86.9464Z" fill="white"/>
<path d="M180.158 49.3249H146.765V82.7178H180.158V49.3249Z" fill="white"/>
<path d="M295.355 41.5426H199.157V112.258H295.355V41.5426Z" fill="white" stroke="#CCCCCC" stroke-miterlimit="10"/>
<path d="M399.07 41.5426H302.872V50.5379H399.07V41.5426Z" fill="white" stroke="#CCCCCC" stroke-miterlimit="10"/>
<path d="M399.07 56.9705H302.872V65.9659H399.07V56.9705Z" fill="white" stroke="#CCCCCC" stroke-miterlimit="10"/>
<path d="M399.07 72.3984H302.872V81.3937H399.07V72.3984Z" fill="white" stroke="#CCCCCC" stroke-miterlimit="10"/>
<path d="M399.07 87.8348H302.872V96.8302H399.07V87.8348Z" fill="white" stroke="#CCCCCC" stroke-miterlimit="10"/>
<path d="M399.07 103.263H302.872V112.258H399.07V103.263Z" fill="white" stroke="#CCCCCC" stroke-miterlimit="10"/>
<path d="M295.355 120.356H199.157V129.352H295.355V120.356Z" fill="#F5F5F5"/>
<path d="M295.355 135.793H199.157V144.788H295.355V135.793Z" fill="#F5F5F5"/>
<path d="M295.355 151.221H199.157V160.216H295.355V151.221Z" fill="#F5F5F5"/>
<path d="M295.355 166.649H199.157V175.644H295.355V166.649Z" fill="#F5F5F5"/>
<path d="M295.355 182.085H199.157V191.08H295.355V182.085Z" fill="#F5F5F5"/>
<path d="M399.07 120.356H302.872V191.072H399.07V120.356Z" fill="#F5F5F5"/>
<path d="M220.716 59.8994C218.879 61.7869 217.39 64.2583 214.901 65.1216C212.709 65.8833 210.289 65.1977 207.995 65.494C204.914 65.8918 202.273 68.0839 200.699 70.7584C199.116 73.4329 198.465 76.5476 198.101 79.6368C197.762 82.4637 197.542 85.5784 195.579 87.6435C193.666 89.6579 190.636 90.0811 188.257 91.5199C183.78 94.2198 182.324 100.898 185.278 105.206C186.218 106.577 187.572 107.846 187.682 109.505C187.783 111.02 186.802 112.375 186.336 113.83C185.151 117.563 188.215 122.006 192.125 122.235C194.097 122.345 196.213 121.575 197.991 122.463C199.751 123.344 200.403 125.459 201.529 127.076C203.738 130.25 208.367 131.443 211.846 129.742C213.302 129.031 214.673 127.855 216.289 127.965C217.897 128.075 219.167 129.446 220.758 129.759C222.832 130.157 224.804 128.633 226.04 126.915C227.275 125.197 228.13 123.174 229.713 121.769C231.778 119.933 234.689 119.476 237.305 118.57C243.085 116.581 247.91 111.994 250.195 106.331C252.48 100.661 252.184 94.0167 249.399 88.5745C247.994 85.8238 245.895 83.8941 244.211 81.3042C242.214 78.2403 241.037 74.3893 242.358 70.8515C243.602 67.5337 242.264 63.4288 240.572 60.4073C236.391 52.9592 225.946 54.5081 220.716 59.8994Z" fill="#333333"/>
<path fill-rule="evenodd" clip-rule="evenodd" d="M107.183 269.157C107.268 273.524 116.849 274.133 125.279 273.964C133.709 273.795 142.266 272.872 142.181 268.505C142.096 264.138 140.717 256.986 132.287 257.155C123.857 257.324 107.099 264.798 107.183 269.157Z" fill="white" stroke="#333333" stroke-width="1.5" stroke-miterlimit="10" stroke-linecap="round" stroke-linejoin="round"/>
<path d="M242.603 104.055H220.547V146.653H242.603V104.055Z" fill="white" stroke="#333333" stroke-width="1.5" stroke-miterlimit="10" stroke-linecap="round" stroke-linejoin="round"/>
<path d="M246.903 93.2973C248.604 107.415 236.551 120.931 225.456 122.277C214.36 123.614 208.418 112.273 206.708 98.147C204.999 84.0211 212.616 71.4948 223.72 70.149C234.825 68.8202 245.201 79.1798 246.903 93.2973Z" fill="white" stroke="#333333" stroke-width="1.5" stroke-miterlimit="10" stroke-linecap="round" stroke-linejoin="round"/>
<path d="M268.037 77.8679C266.344 76.6576 263.906 76.5645 261.993 75.6251C260.123 74.7025 258.904 73.0606 257.626 71.5455C256.348 70.0305 254.816 68.524 252.7 68.1093C251.405 67.8554 249.882 68.2024 248.824 68.9641C247.038 66.5689 243.678 65.1385 240.242 65.1978C236.831 65.2655 233.479 66.6451 230.788 68.7017C228.57 69.802 226.979 71.9179 226.81 74.0847C226.632 76.3699 228.037 78.5874 230.297 79.5861C232.997 80.771 236.831 80.4155 238.566 82.5568C239.903 84.2073 239.294 86.594 238.405 88.6084C237.508 90.6143 236.357 92.7133 236.729 94.7615C237.466 98.731 243.543 100.458 243.864 104.495C244.067 107.085 241.791 109.412 240.36 111.807C238.71 114.584 238.16 117.884 239.395 120.627C240.631 123.369 243.813 125.375 247.283 125.129C250.195 124.926 252.81 123.301 255.248 121.735C258.362 119.73 272.514 111.418 269.966 100.957C269.501 99.0442 268.003 97.4699 267.579 95.5487C266.919 92.561 268.477 89.4632 269.458 86.4502C270.44 83.4117 270.643 79.73 268.037 77.8679Z" fill="#333333"/>
<path d="M232.193 65.8325C240.005 64.3514 245.684 75.1003 242.925 81.592C241.63 84.6305 237.872 86.7295 234.876 85.3329C233.276 84.5881 232.201 83.0731 230.779 82.0321C228.79 80.5763 226.099 80.1362 223.754 80.881C221.469 81.6089 219.717 83.2678 219.032 85.5361C218.464 87.4066 217.703 88.2529 215.604 88.5492C211.964 89.0654 208.088 87.1442 205.879 91.2152C205.041 92.7556 204.584 94.4907 203.695 96.0057C203.213 96.8182 202.595 97.5799 201.766 98.0455C200.945 98.511 199.887 98.6294 199.049 98.1978C197.771 97.5376 197.381 95.8957 197.356 94.4568C197.271 90.5635 198.837 86.6871 201.495 83.8603C202.578 82.7092 203.602 81.9559 204.305 80.534C205.27 78.5874 205.904 76.4714 206.945 74.5671C208.782 71.2239 212.32 68.871 216.12 68.4817C219.277 68.1601 222.536 69.108 225.616 68.3293C227.902 67.7538 229.882 66.2726 232.193 65.8325Z" fill="#333333"/>
<path d="M161.918 187.473L182.358 185.603C182.358 185.603 194.935 152.467 210.441 144.435L220.487 161.98L198.981 202.386H157.009L161.918 187.473Z" fill="url(#paint0_linear_1732_4425)" stroke="#333333" stroke-width="2.5" stroke-miterlimit="10" stroke-linecap="round" stroke-linejoin="round"/>
<path d="M169.993 196.826C169.891 196.766 170.661 195.277 171.719 193.516C172.777 191.747 173.717 190.368 173.818 190.435C173.92 190.495 173.15 191.984 172.092 193.745C171.042 195.505 170.103 196.893 169.993 196.826Z" fill="#FAFAFA"/>
<path d="M230.398 199.754L240.944 157.173C242.781 149.759 250.06 145.044 257.575 146.399C265.311 147.795 270.525 155.108 269.323 162.869L262.865 204.485C261.282 213.203 254.351 219.965 245.591 221.328L237.212 222.631L230.398 199.754Z" fill="url(#paint1_linear_1732_4425)" stroke="#333333" stroke-width="2.5" stroke-miterlimit="10" stroke-linecap="round" stroke-linejoin="round"/>
<path d="M271.456 153.144C270.296 145.527 266.09 143.707 261.739 141.329C260.318 140.55 253.343 140.339 247.901 139.01C247.385 135.709 246.454 129.81 246.242 128.566C245.955 126.814 218.625 129.64 218.278 130.301C218.05 130.732 217.415 137.571 217.017 142.133L210.449 144.427L201.876 155.328L197.415 161.667C194.825 165.34 192.862 169.445 191.888 173.83C190.805 178.679 190.661 183.419 190.661 188.573L189.332 216.529L246.742 232.762L251.185 204.451L265.997 184.291C267.258 176.132 272.878 162.505 271.456 153.144Z" fill="url(#paint2_linear_1732_4425)" stroke="#333333" stroke-width="2.5" stroke-miterlimit="10" stroke-linecap="round" stroke-linejoin="round"/>
<path d="M244.55 208.742C244.558 208.869 242.442 209.073 239.878 209.504C237.305 209.927 235.24 210.41 235.206 210.291C235.172 210.181 237.203 209.496 239.802 209.073C242.4 208.632 244.541 208.624 244.55 208.742Z" fill="#FAFAFA"/>
<path d="M220.614 214.633C220.487 214.659 220.115 213.135 219.472 211.324C218.837 209.504 218.177 208.082 218.287 208.023C218.388 207.964 219.235 209.318 219.886 211.171C220.547 213.025 220.733 214.616 220.614 214.633Z" fill="#FAFAFA"/>
<path d="M235.798 219.864C235.747 219.974 233.852 219.237 231.549 218.222C229.256 217.206 227.436 216.284 227.478 216.174C227.529 216.064 229.425 216.8 231.727 217.816C234.029 218.831 235.849 219.754 235.798 219.864Z" fill="#FAFAFA"/>
<path d="M209.332 218.323C209.214 218.281 209.569 216.902 210.128 215.226C210.686 213.55 211.228 212.23 211.338 212.272C211.457 212.314 211.101 213.694 210.542 215.37C209.992 217.045 209.451 218.366 209.332 218.323Z" fill="#FAFAFA"/>
<path d="M226.776 221.277C226.75 221.404 224.347 221.015 221.351 220.863C218.354 220.693 215.925 220.829 215.917 220.702C215.9 220.592 218.346 220.262 221.376 220.422C224.398 220.583 226.801 221.167 226.776 221.277Z" fill="#FAFAFA"/>
<path d="M209.247 214.371C208.308 214.684 148.072 197.799 123.705 190.952C117.306 189.149 110.442 190.19 104.864 193.804L104.568 193.99C96.3753 199.288 92.3889 209.157 94.6064 218.662C96.0114 224.697 103.129 228.344 108.411 231.578C124.475 241.421 172.786 265.695 173.827 265.289C175.189 264.764 193.285 256.85 193.285 256.85L148.893 224.925L173.192 240.634L209.247 214.371Z" fill="#444444" stroke="#333333" stroke-width="2.5" stroke-linecap="round" stroke-linejoin="round"/>
<path d="M158.956 196.038L171.762 189.411L184.322 197.283L231.338 198.814L238.143 221.7L170.094 205.924C170.094 205.924 157.712 207.016 156.781 204.24C155.85 201.464 158.956 196.038 158.956 196.038Z" fill="white" stroke="#333333" stroke-width="1.5" stroke-miterlimit="10" stroke-linecap="round" stroke-linejoin="round"/>
<path d="M197.474 232.72L191.144 253.507L191.931 259.838C203.458 271.459 221.841 272.703 234.825 262.732C242.721 256.672 247.326 247.269 247.283 237.316L247.19 215.598L197.474 232.72Z" fill="#666666" stroke="#333333" stroke-width="2.5" stroke-linecap="round" stroke-linejoin="round"/>
<path d="M152.659 169.911L166.201 204.942L200.2 207.49V211.688L110.307 209.995L96.1637 172.949C95.1227 170.216 97.137 167.296 100.057 167.287L148.757 167.236C150.484 167.245 152.033 168.303 152.659 169.911Z" fill="#F2F2F2" stroke="#333333" stroke-width="1.5" stroke-miterlimit="10" stroke-linecap="round" stroke-linejoin="round"/>
<path d="M220.496 239.11L143.789 272.601L134.487 257.299C134.487 257.299 197.652 209.36 221.342 199.568C243.923 190.232 251.228 211.637 247.258 230.85" fill="#666666"/>
<path d="M220.496 239.11L143.789 272.601L134.487 257.299C134.487 257.299 197.652 209.36 221.342 199.568C243.923 190.232 251.228 211.637 247.258 230.85" stroke="#333333" stroke-width="2.5" stroke-linecap="round" stroke-linejoin="round"/>
<path d="M134.242 188.083C134.834 189.454 134.581 190.884 133.675 191.282C132.761 191.68 131.542 190.892 130.95 189.521C130.357 188.15 130.611 186.72 131.517 186.322C132.431 185.924 133.65 186.711 134.242 188.083Z" fill="url(#paint3_linear_1732_4425)" stroke="#333333" stroke-width="1.5" stroke-miterlimit="10" stroke-linecap="round" stroke-linejoin="round"/>
<path fill-rule="evenodd" clip-rule="evenodd" d="M175.215 268.623C174.538 272.999 178.059 273.761 185.549 274.142C194.224 274.582 201.622 273.007 202.307 268.632C202.984 264.256 198.109 257.866 189.544 256.537C180.962 255.2 175.9 264.239 175.215 268.623Z" fill="white" stroke="#333333" stroke-width="1.5" stroke-miterlimit="10" stroke-linecap="round" stroke-linejoin="round"/>
<path d="M212.582 97.6815C212.514 97.5037 212.472 97.326 212.464 97.1398C212.464 97.2075 212.464 97.2752 212.472 97.3345C212.464 97.1059 212.506 96.8774 212.582 96.6658C212.557 96.7335 212.531 96.8013 212.506 96.869C212.557 96.7335 212.633 96.6151 212.718 96.4966C212.667 96.5643 212.616 96.6235 212.565 96.6912C212.633 96.6151 212.701 96.5389 212.777 96.4712C212.701 96.5304 212.633 96.5897 212.557 96.6489C212.608 96.6066 212.667 96.5727 212.726 96.5304C212.633 96.5812 212.54 96.632 212.455 96.6828C212.514 96.6489 212.582 96.6235 212.641 96.5981C212.531 96.632 212.43 96.6743 212.32 96.7082C212.388 96.6828 212.455 96.6658 212.523 96.6574C212.413 96.6743 212.303 96.6997 212.193 96.7166C212.269 96.6997 212.345 96.6912 212.43 96.6912C212.328 96.6912 212.218 96.6997 212.117 96.6997C212.201 96.6997 212.294 96.7082 212.379 96.7166C212.286 96.6997 212.193 96.6912 212.1 96.6743C212.193 96.6912 212.286 96.7166 212.379 96.7505C212.303 96.7166 212.227 96.6912 212.151 96.6574C212.261 96.6997 212.362 96.7589 212.447 96.8351C212.388 96.7928 212.337 96.742 212.278 96.6997C212.388 96.7928 212.472 96.8944 212.54 97.0213C212.506 96.9621 212.481 96.9028 212.447 96.8436C212.523 96.9959 212.565 97.1652 212.574 97.3345C212.574 97.2668 212.574 97.199 212.565 97.1398C212.565 97.3091 212.54 97.4784 212.481 97.6392C212.506 97.5715 212.531 97.5037 212.557 97.436C212.514 97.5376 212.464 97.6222 212.396 97.7069C212.447 97.6392 212.498 97.5799 212.548 97.5122C212.506 97.563 212.455 97.6138 212.396 97.6646C212.472 97.6053 212.54 97.5461 212.616 97.4868C212.574 97.5207 212.531 97.5461 212.481 97.5715C212.574 97.5207 212.667 97.4699 212.751 97.4191C212.743 97.4191 212.735 97.4276 212.726 97.4276C212.946 97.3683 213.158 97.3091 213.378 97.2498C213.132 97.2837 212.887 97.3175 212.641 97.3514C212.972 97.436 213.302 97.5291 213.632 97.6138C213.623 97.6053 213.623 97.5884 213.615 97.5799C213.649 97.6392 213.674 97.6984 213.708 97.7577C213.572 97.5037 213.471 97.2414 213.454 96.9536C213.454 97.0213 213.454 97.089 213.462 97.1483C213.462 97.0128 213.471 96.8774 213.522 96.742C213.496 96.8097 213.471 96.8774 213.445 96.9451C213.479 96.8605 213.522 96.7759 213.581 96.6997C213.53 96.7674 213.479 96.8266 213.429 96.8944C213.471 96.8436 213.513 96.8013 213.556 96.7589C213.479 96.8182 213.412 96.8774 213.335 96.9367C213.369 96.9113 213.403 96.8859 213.437 96.869C213.344 96.9197 213.251 96.9705 213.166 97.0213C213.2 97.0044 213.234 96.9875 213.276 96.9705C213.166 97.0044 213.065 97.0467 212.955 97.0806C212.98 97.0721 213.014 97.0636 213.039 97.0552C212.929 97.0721 212.819 97.0975 212.709 97.1144C212.743 97.1059 212.768 97.106 212.802 97.106C212.701 97.106 212.591 97.1144 212.489 97.1144C212.514 97.1144 212.548 97.1144 212.574 97.1229C212.481 97.1059 212.388 97.0975 212.294 97.0806C212.337 97.089 212.371 97.0975 212.404 97.1144C212.328 97.0806 212.252 97.0552 212.176 97.0213C212.227 97.0467 212.277 97.0721 212.328 97.1144C212.269 97.0721 212.218 97.0213 212.159 96.979C212.218 97.0298 212.269 97.089 212.311 97.1567C212.277 97.0975 212.252 97.0382 212.218 96.979C212.252 97.0467 212.278 97.1144 212.278 97.1906C212.278 97.1229 212.277 97.0552 212.269 96.9959C212.269 97.0552 212.261 97.1059 212.244 97.1567C212.269 97.089 212.294 97.0213 212.32 96.9536C212.32 96.9621 212.311 96.9705 212.311 96.979C212.218 97.1737 212.184 97.3683 212.337 97.5545C212.481 97.7323 212.794 97.8169 213.014 97.8254C213.335 97.8423 213.682 97.783 213.979 97.6392C214.072 97.5884 214.165 97.5376 214.25 97.4868C214.402 97.3937 214.529 97.2668 214.622 97.1144C214.724 96.8774 214.8 96.6151 214.698 96.3696C214.588 96.1072 214.453 95.9549 214.216 95.8025C213.894 95.5909 213.471 95.5571 213.098 95.5825C212.658 95.6163 212.218 95.7687 211.846 96.0141C211.431 96.285 211.059 96.742 211.016 97.2583C210.999 97.4868 211.016 97.7238 211.076 97.9523C211.143 98.1893 211.27 98.4094 211.389 98.6294C211.499 98.7479 211.634 98.8156 211.787 98.8579C211.981 98.9087 212.176 98.9172 212.379 98.8918C212.548 98.8664 212.726 98.841 212.895 98.8156C212.963 98.8072 213.039 98.7987 213.107 98.7818C213.479 98.7225 213.809 98.6125 214.123 98.4009C214.41 98.2062 214.698 97.9354 214.85 97.6138C215.003 97.2837 215.054 97.0129 215.028 96.6489C215.011 96.3781 214.91 96.1326 214.757 95.9041C214.605 95.6756 214.36 95.4894 214.106 95.3794C213.649 95.1762 213.192 95.1254 212.701 95.1424C212.278 95.1593 211.812 95.2862 211.44 95.4809C210.999 95.7094 210.636 95.9972 210.356 96.4035C209.992 96.9367 209.891 97.7069 210.128 98.3078C210.212 98.5279 210.39 98.6463 210.619 98.7056C210.898 98.7818 211.262 98.7648 211.541 98.6802C211.829 98.5956 212.142 98.4686 212.354 98.2401C212.489 98.1216 212.667 97.8931 212.582 97.6815Z" fill="#333333"/>
<path d="M226.073 94.5753C225.667 93.2719 224.194 92.798 222.95 93.0265C221.571 93.2888 219.988 94.186 220.081 95.7856C220.106 96.285 220.377 96.8097 220.8 97.0806C221.486 97.5207 222.349 97.5038 223.12 97.3006C223.822 97.1144 224.711 96.6659 224.905 95.8957C225.024 95.4386 224.888 94.9223 224.55 94.5923C224.254 94.3045 223.839 94.2199 223.441 94.2029C222.857 94.1775 222.205 94.3637 221.706 94.6684C221.342 94.8885 221.029 95.1847 220.868 95.5825C220.767 95.828 220.758 96.1411 220.894 96.3696C221.004 96.5558 221.139 96.6235 221.359 96.6574C221.647 96.7082 221.994 96.6659 222.265 96.5812C222.552 96.4966 222.866 96.3866 223.086 96.1919C223.187 96.0988 223.441 95.8787 223.34 95.7095C223.272 95.5994 223.246 95.481 223.246 95.354C223.246 95.4048 223.246 95.4556 223.238 95.5063C223.246 95.3794 223.28 95.2609 223.34 95.1509C223.306 95.2016 223.28 95.2609 223.246 95.3117C223.289 95.2355 223.357 95.1763 223.39 95.1001C223.28 95.2016 223.255 95.2355 223.306 95.1847C223.323 95.1678 223.34 95.1593 223.357 95.1424C223.196 95.244 223.145 95.2778 223.221 95.2355C223.306 95.1847 223.238 95.2186 223.035 95.3201C223.052 95.3117 223.06 95.3117 223.077 95.3032C222.916 95.3709 222.756 95.4132 222.586 95.4386C222.51 95.4471 222.434 95.4471 222.358 95.4556C222.459 95.4556 222.417 95.4556 222.214 95.4471C222.358 95.464 222.053 95.3794 222.129 95.4217C222.163 95.4471 222.214 95.4556 222.256 95.4809C222.205 95.4471 222.155 95.4132 222.095 95.3878C222.222 95.464 222.315 95.5656 222.4 95.6925C222.375 95.6502 222.349 95.6079 222.315 95.5571C222.426 95.7433 222.485 95.9549 222.476 96.175C222.476 96.1242 222.476 96.0734 222.485 96.0226C222.476 96.175 222.442 96.3104 222.375 96.4458C222.409 96.395 222.434 96.3358 222.468 96.285C222.442 96.3358 222.383 96.3866 222.358 96.4374C222.332 96.5051 222.485 96.3273 222.426 96.3696C222.4 96.3866 222.375 96.4035 222.358 96.4289C222.273 96.5051 222.595 96.285 222.459 96.3612C222.451 96.3612 222.764 96.2258 222.62 96.285C222.468 96.3442 222.832 96.2173 222.815 96.2173C222.637 96.2681 223.136 96.158 222.993 96.1834C222.781 96.2173 223.297 96.1834 223.077 96.175C222.967 96.1665 223.365 96.2173 223.196 96.1834C223.17 96.175 223.136 96.175 223.111 96.1665C222.984 96.1496 223.196 96.1919 223.204 96.1919C223.187 96.1919 223.136 96.1665 223.12 96.1665C223.052 96.1411 222.984 96.1073 222.925 96.0649C222.976 96.0988 223.026 96.1327 223.086 96.158C222.925 96.0565 222.789 95.9211 222.688 95.7603C222.713 95.8026 222.739 95.8449 222.773 95.8957C222.603 95.6164 222.527 95.2947 222.536 94.9647C222.536 95.0154 222.536 95.0662 222.527 95.117C222.544 94.8631 222.603 94.6346 222.722 94.4061C222.688 94.4568 222.662 94.5161 222.629 94.5669C222.688 94.4653 222.747 94.3722 222.823 94.2791C222.857 94.2452 222.899 94.2114 222.925 94.1691C222.823 94.2622 222.798 94.2876 222.849 94.2452C222.866 94.2283 222.883 94.2114 222.908 94.1945C222.942 94.1606 222.993 94.1352 223.026 94.1014C222.866 94.2029 222.832 94.2283 222.925 94.1691C222.942 94.1521 222.967 94.1437 222.993 94.1352C223.204 94.0167 222.722 94.2368 222.916 94.1691C223.026 94.1268 223.187 94.1098 222.781 94.2114C222.908 94.186 223.018 94.1945 222.646 94.2368C222.883 94.2114 222.561 94.2537 222.536 94.2368C222.544 94.2452 222.84 94.2452 222.595 94.2283C222.392 94.2114 222.612 94.2368 222.654 94.2452C222.73 94.2622 222.849 94.3214 222.629 94.2283C222.671 94.2452 222.722 94.2622 222.773 94.2791C222.883 94.3214 222.984 94.3722 223.086 94.4314C223.035 94.3976 222.984 94.3637 222.925 94.3383C223.179 94.4992 223.39 94.7107 223.551 94.9647C223.526 94.9223 223.5 94.88 223.467 94.8292C223.543 94.9562 223.602 95.0916 223.644 95.2355C223.704 95.4217 223.941 95.4979 224.11 95.5233C224.398 95.574 224.745 95.5317 225.015 95.4471C225.303 95.3625 225.616 95.2524 225.836 95.0578C225.946 94.9477 226.133 94.77 226.073 94.5753Z" fill="#333333"/>
<path d="M217.093 100.779C216.738 102.049 216.145 105.163 215.79 106.433C217.237 107.076 219.074 106.653 220.098 105.443" stroke="#333333" stroke-width="1.5" stroke-miterlimit="10" stroke-linecap="round" stroke-linejoin="round"/>
<path fill-rule="evenodd" clip-rule="evenodd" d="M219.751 110.233C220.132 110.149 220.547 110.216 220.911 110.369C221.401 110.58 221.808 111.113 222.366 111.113C222.883 111.105 223.551 110.606 223.627 110.089C224.237 111.274 224.025 112.823 223.136 113.813C221.528 115.599 218.329 115.041 216.628 113.72C216.196 113.382 215.781 112.925 215.79 112.374C215.798 111.816 216.23 111.359 216.636 110.97C216.941 110.682 217.347 110.369 217.728 110.538C217.923 110.623 218.05 110.826 218.253 110.893C218.642 111.02 218.972 110.614 219.319 110.402C219.455 110.326 219.599 110.267 219.751 110.233Z" fill="#333333"/>
<defs>
<linearGradient id="paint0_linear_1732_4425" x1="157.006" y1="173.404" x2="220.493" y2="173.404" gradientUnits="userSpaceOnUse">
<stop stop-color="#FFA363"/>
<stop offset="0.9127" stop-color="#FF7743"/>
</linearGradient>
<linearGradient id="paint1_linear_1732_4425" x1="230.396" y1="184.411" x2="269.483" y2="184.411" gradientUnits="userSpaceOnUse">
<stop stop-color="#FFA363"/>
<stop offset="0.9127" stop-color="#FF7743"/>
</linearGradient>
<linearGradient id="paint2_linear_1732_4425" x1="189.33" y1="180.383" x2="271.682" y2="180.383" gradientUnits="userSpaceOnUse">
<stop stop-color="#FFA363"/>
<stop offset="0.9127" stop-color="#FF7743"/>
</linearGradient>
<linearGradient id="paint3_linear_1732_4425" x1="130.945" y1="189.509" x2="134.245" y2="188.072" gradientUnits="userSpaceOnUse">
<stop stop-color="#FF985B"/>
<stop offset="1" stop-color="#FF7F49"/>
</linearGradient>
</defs>
</svg>
