<svg width="328" height="440" viewBox="0 0 328 440" fill="none" xmlns="http://www.w3.org/2000/svg">
<g clip-path="url(#clip0_8378_45263)">
<rect width="110" height="110" transform="translate(328 -45) rotate(90)" fill="white"/>
<rect x="228.751" y="-33.55" width="88.4976" height="88.4976" rx="44.2488" stroke="#EFEFEF"/>
<rect x="242.176" y="-20.1254" width="61.6483" height="61.6483" rx="30.8241" stroke="#EFEFEF"/>
<rect x="228.751" y="-33.2303" width="88.4976" height="88.4976" stroke="#EFEFEF"/>
<rect x="251.573" y="-9.83325" width="41.9588" height="41.9588" stroke="#EFEFEF"/>
<g clip-path="url(#clip1_8378_45263)">
<rect width="110" height="110" transform="matrix(-4.37114e-08 -1 -1 4.37114e-08 328 205)" fill="white"/>
<rect x="273" y="123.943" width="36.8497" height="36.8497" transform="rotate(45 273 123.943)" stroke="#EFEFEF"/>
<rect x="273" y="95.5528" width="77" height="77" transform="rotate(45 273 95.5528)" stroke="#EFEFEF"/>
</g>
<g clip-path="url(#clip2_8378_45263)">
<rect width="110" height="110" transform="translate(328 235) rotate(90)" fill="white"/>
<rect x="218.5" y="235.5" width="109" height="109" rx="54.5" stroke="#EFEFEF"/>
<rect x="221.107" y="290" width="73.3871" height="73.3871" transform="rotate(-45 221.107 290)" stroke="#EFEFEF"/>
</g>
<g clip-path="url(#clip3_8378_45263)">
<rect width="110" height="110" transform="translate(328 375) rotate(90)" fill="white"/>
<rect x="218.5" y="375.5" width="109" height="109" rx="54.5" stroke="#EFEFEF"/>
<rect x="235" y="392" width="76" height="76" rx="38" stroke="#EFEFEF"/>
<rect x="235" y="392" width="76" height="76" stroke="#EFEFEF"/>
</g>
<g clip-path="url(#clip4_8378_45263)">
<rect width="110" height="110" transform="translate(142 25) rotate(90)" fill="white"/>
<rect x="60.2009" y="52.8695" width="53.6574" height="53.6574" stroke="#EAEAEA"/>
<rect x="87" y="25.7071" width="76.7817" height="76.7817" transform="rotate(45 87 25.7071)" stroke="#EAEAEA"/>
</g>
<rect x="141.5" y="165.5" width="109" height="109" transform="rotate(90 141.5 165.5)" fill="white"/>
<rect x="141.5" y="165.5" width="109" height="109" transform="rotate(90 141.5 165.5)" stroke="#CCCCCC"/>
<path fill-rule="evenodd" clip-rule="evenodd" d="M84.822 245.372L63.3705 235.29C61.5432 234.41 61.5432 233.049 63.3705 232.249L70.8388 228.729L84.7426 235.29C86.5699 236.17 89.5096 236.17 91.2574 235.29L105.161 228.729L112.629 232.249C114.457 233.129 114.457 234.49 112.629 235.29L91.178 245.372C89.5096 246.172 86.5699 246.172 84.822 245.372Z" fill="#FF6F3D"/>
<path fill-rule="evenodd" clip-rule="evenodd" d="M84.7525 232.896L63.3663 222.802C61.5446 221.921 61.5446 220.559 63.3663 219.758L70.6535 216.313L84.7525 222.962C86.5743 223.843 89.505 223.843 91.2475 222.962L105.347 216.313L112.634 219.758C114.455 220.639 114.455 222.001 112.634 222.802L91.2475 232.896C89.4257 233.777 86.4951 233.777 84.7525 232.896Z" fill="#95C038"/>
<path fill-rule="evenodd" clip-rule="evenodd" d="M84.7525 220.549L63.3663 210.6C61.5446 209.732 61.5446 208.39 63.3663 207.6L84.7525 197.651C86.5743 196.783 89.505 196.783 91.2475 197.651L112.634 207.6C114.455 208.469 114.455 209.811 112.634 210.6L91.2475 220.549C89.4257 221.339 86.4951 221.339 84.7525 220.549Z" fill="#5DC0E8"/>
<g clip-path="url(#clip5_8378_45263)" filter="url(#filter0_d_8378_45263)">
<rect width="110" height="110" transform="translate(142 305) rotate(90)" fill="white"/>
<rect x="32.0984" y="305.5" width="109" height="109" rx="54.5" stroke="#EAEAEA"/>
<rect x="56.9878" y="330.389" width="59.2214" height="59.2214" rx="29.6107" stroke="#EAEAEA"/>
</g>
<rect x="87" y="135" width="1" height="30" fill="#CCCCCC"/>
<circle cx="87.5" cy="149.5" r="7" fill="white" stroke="#CCCCCC"/>
<rect x="87" y="146" width="1" height="7" rx="0.5" fill="#333333"/>
<rect x="91" y="149" width="1" height="7" rx="0.5" transform="rotate(90 91 149)" fill="#333333"/>
<rect x="87" y="275" width="1" height="30" fill="#CCCCCC"/>
<circle cx="87.5" cy="289.5" r="7" fill="white" stroke="#CCCCCC"/>
<rect x="87" y="286" width="1" height="7" rx="0.5" fill="#333333"/>
<rect x="91" y="289" width="1" height="7" rx="0.5" transform="rotate(90 91 289)" fill="#333333"/>
<rect x="87" y="275" width="1" height="30" fill="#CCCCCC"/>
<circle cx="87.5" cy="289.5" r="7" fill="white" stroke="#CCCCCC"/>
<rect x="87" y="286" width="1" height="7" rx="0.5" fill="#333333"/>
<rect x="91" y="289" width="1" height="7" rx="0.5" transform="rotate(90 91 289)" fill="#333333"/>
<rect x="142" y="220" width="1" height="46" transform="rotate(-90 142 220)" fill="#CCCCCC"/>
<circle cx="156" cy="220" r="7" transform="rotate(-90 156 220)" fill="white" stroke="#CCCCCC"/>
<rect x="152.5" y="220.5" width="1" height="7" rx="0.5" transform="rotate(-90 152.5 220.5)" fill="#333333"/>
<rect x="155.5" y="216.5" width="1" height="7" rx="0.5" fill="#333333"/>
<rect x="188" y="430" width="1" height="30" transform="rotate(-90 188 430)" fill="#CCCCCC"/>
<circle cx="202.5" cy="429.5" r="7" transform="rotate(-90 202.5 429.5)" fill="white" stroke="#CCCCCC"/>
<rect x="199" y="430" width="1" height="7" rx="0.5" transform="rotate(-90 199 430)" fill="#333333"/>
<rect x="202" y="426" width="1" height="7" rx="0.5" fill="#333333"/>
<rect x="188" y="290" width="1" height="30" transform="rotate(-90 188 290)" fill="#CCCCCC"/>
<circle cx="202.5" cy="289.5" r="7" transform="rotate(-90 202.5 289.5)" fill="white" stroke="#CCCCCC"/>
<rect x="199" y="290" width="1" height="7" rx="0.5" transform="rotate(-90 199 290)" fill="#333333"/>
<rect x="202" y="286" width="1" height="7" rx="0.5" fill="#333333"/>
<rect x="188" y="151" width="1" height="30" transform="rotate(-90 188 151)" fill="#CCCCCC"/>
<circle cx="202.5" cy="150.5" r="7" transform="rotate(-90 202.5 150.5)" fill="white" stroke="#CCCCCC"/>
<rect x="199" y="151" width="1" height="7" rx="0.5" transform="rotate(-90 199 151)" fill="#333333"/>
<rect x="202" y="147" width="1" height="7" rx="0.5" fill="#333333"/>
<rect x="188" y="10" width="1" height="30" transform="rotate(-90 188 10)" fill="#CCCCCC"/>
<circle cx="202.5" cy="9.5" r="7" transform="rotate(-90 202.5 9.5)" fill="white" stroke="#CCCCCC"/>
<rect x="199" y="10" width="1" height="7" rx="0.5" transform="rotate(-90 199 10)" fill="#333333"/>
<rect x="202" y="6" width="1" height="7" rx="0.5" fill="#333333"/>
<rect x="187" y="9" width="1" height="421" fill="#CCCCCC"/>
</g>
<defs>
<filter id="filter0_d_8378_45263" x="17" y="297" width="140" height="140" filterUnits="userSpaceOnUse" color-interpolation-filters="sRGB">
<feFlood flood-opacity="0" result="BackgroundImageFix"/>
<feColorMatrix in="SourceAlpha" type="matrix" values="0 0 0 0 0 0 0 0 0 0 0 0 0 0 0 0 0 0 127 0" result="hardAlpha"/>
<feOffset dy="7"/>
<feGaussianBlur stdDeviation="7.5"/>
<feColorMatrix type="matrix" values="0 0 0 0 0.333333 0 0 0 0 0.333333 0 0 0 0 0.333333 0 0 0 0.1 0"/>
<feBlend mode="normal" in2="BackgroundImageFix" result="effect1_dropShadow_8378_45263"/>
<feBlend mode="normal" in="SourceGraphic" in2="effect1_dropShadow_8378_45263" result="shape"/>
</filter>
<clipPath id="clip0_8378_45263">
<rect width="328" height="440" fill="white"/>
</clipPath>
<clipPath id="clip1_8378_45263">
<rect width="110" height="110" fill="white" transform="matrix(-4.37114e-08 -1 -1 4.37114e-08 328 205)"/>
</clipPath>
<clipPath id="clip2_8378_45263">
<rect width="110" height="110" fill="white" transform="translate(328 235) rotate(90)"/>
</clipPath>
<clipPath id="clip3_8378_45263">
<rect width="110" height="110" fill="white" transform="translate(328 375) rotate(90)"/>
</clipPath>
<clipPath id="clip4_8378_45263">
<rect width="110" height="110" fill="white" transform="translate(142 25) rotate(90)"/>
</clipPath>
<clipPath id="clip5_8378_45263">
<rect width="110" height="110" fill="white" transform="translate(142 305) rotate(90)"/>
</clipPath>
</defs>
</svg>
