<svg width="224" height="120" viewBox="0 0 224 120" fill="none" xmlns="http://www.w3.org/2000/svg">
<path fill-rule="evenodd" clip-rule="evenodd" d="M112.565 15.4748C111.834 15.4748 111.239 14.8746 111.239 14.1296C111.239 13.3829 111.834 12.7878 112.565 12.7878C113.298 12.7878 113.895 13.3829 113.895 14.1296C113.895 14.8746 113.298 15.4748 112.565 15.4748ZM103.545 15.523C103.343 14.7504 103.796 13.9623 104.556 13.7571C104.681 13.7226 104.808 13.7054 104.931 13.7054C105.558 13.7054 106.132 14.1279 106.303 14.7746C106.506 15.549 106.053 16.3388 105.291 16.5458C104.535 16.751 103.75 16.2974 103.545 15.523ZM119.838 16.5458C119.08 16.3388 118.627 15.549 118.831 14.7763C119 14.1279 119.577 13.7071 120.204 13.7071C120.325 13.7071 120.449 13.7226 120.573 13.7571C121.336 13.9641 121.79 14.7522 121.587 15.5247C121.383 16.2974 120.599 16.7527 119.838 16.5458ZM96.0159 18.5204C95.8051 17.5149 96.4357 16.5406 97.4226 16.3284C97.5511 16.2991 97.6796 16.2854 97.8064 16.2854C98.6477 16.2854 99.4017 16.8769 99.5833 17.7478C99.7941 18.7481 99.1652 19.7294 98.1783 19.9415C97.193 20.1537 96.2249 19.5172 96.0159 18.5204ZM126.952 19.9415C125.966 19.7294 125.337 18.7481 125.547 17.7478C125.729 16.8769 126.481 16.2871 127.322 16.2871C127.451 16.2871 127.582 16.3009 127.709 16.3302C128.696 16.5406 129.327 17.5149 129.113 18.5204C128.906 19.5172 127.936 20.1537 126.952 19.9415ZM89.508 23.2458C89.3161 22.0162 90.1386 20.878 91.3431 20.6849C91.4614 20.6658 91.5779 20.6572 91.6944 20.6572C92.762 20.6572 93.6992 21.4368 93.8723 22.544C94.0625 23.7667 93.24 24.917 92.0337 25.1101C90.8292 25.3033 89.6982 24.4669 89.508 23.2458ZM133.097 25.1118C131.892 24.9187 131.072 23.7684 131.261 22.5457C131.435 21.4368 132.374 20.6589 133.441 20.6589C133.557 20.6589 133.674 20.6675 133.791 20.6866C134.991 20.8797 135.819 22.0179 135.625 23.2475C135.436 24.4686 134.3 25.3051 133.097 25.1118ZM137.844 31.8741C136.337 31.712 135.234 30.3374 135.392 28.806C135.542 27.3659 136.741 26.3036 138.129 26.3036C138.228 26.3036 138.323 26.3088 138.422 26.3191C139.934 26.4812 141.032 27.847 140.871 29.3871C140.711 30.9186 139.359 32.0362 137.844 31.8741ZM84.2579 29.3871C84.0986 27.847 85.1918 26.4812 86.7082 26.3191C86.8076 26.3088 86.9053 26.3036 87.003 26.3036C88.3909 26.3036 89.5868 27.3659 89.7359 28.806C89.8953 30.3374 88.7953 31.712 87.284 31.8724C85.7675 32.0362 84.4156 30.9186 84.2579 29.3871ZM140.928 39.3899C139.259 39.3003 137.972 37.8498 138.059 36.151C138.145 34.5006 139.485 33.2348 141.085 33.2348C141.14 33.2348 141.195 33.2365 141.25 33.2399C142.92 33.3279 144.213 34.7662 144.125 36.4736C144.037 38.1723 142.605 39.4761 140.928 39.3899ZM81.0041 36.4736C80.9149 34.7662 82.2086 33.3279 83.8758 33.2399C83.9306 33.2365 83.9855 33.2348 84.0403 33.2348C85.6492 33.2348 86.9876 34.5006 87.0732 36.151C87.1606 37.8498 85.8737 39.3003 84.1997 39.3899C82.5256 39.4761 81.0914 38.1723 81.0041 36.4736ZM142.086 47.4145C140.263 47.4145 138.786 45.9124 138.786 44.0601C138.786 42.2027 140.263 40.7143 142.091 40.7143C143.914 40.7143 145.395 42.2027 145.395 44.0636C145.395 45.9124 143.914 47.4145 142.086 47.4145ZM83.0431 47.4145C81.2217 47.4145 79.7344 45.9124 79.7344 44.0636C79.7344 42.2027 81.2217 40.7143 83.0431 40.7143C84.8611 40.7143 86.3416 42.2027 86.3416 44.0601C86.3416 45.9124 84.8611 47.4145 83.0431 47.4145ZM138.059 51.9726C137.972 50.2756 139.259 48.8269 140.928 48.7372L140.932 48.7371C140.985 48.7354 141.037 48.7338 141.088 48.7338C142.695 48.7338 144.04 50.01 144.123 51.6501C144.211 53.3592 142.92 54.7958 141.25 54.8854C139.577 54.9717 138.148 53.6817 138.059 51.9726ZM83.8775 54.8854C82.2086 54.7958 80.9184 53.3592 81.0058 51.6501C81.0897 50.01 82.4365 48.7338 84.0403 48.7338C84.0918 48.7338 84.1435 48.7354 84.1966 48.7371L84.2014 48.7372C85.8737 48.8269 87.1606 50.2756 87.0749 51.9726C86.9841 53.6817 85.5567 54.9734 83.8775 54.8854ZM135.392 59.3228C135.234 57.7879 136.336 56.4135 137.844 56.2531C137.942 56.2428 138.041 56.2376 138.135 56.2376C139.526 56.2376 140.722 57.3051 140.871 58.7382C141.032 60.28 139.934 61.6441 138.421 61.8063C136.913 61.9667 135.552 60.8629 135.392 59.3228ZM86.7082 61.8063C85.1935 61.6441 84.0986 60.28 84.2579 58.7382C84.4053 57.3051 85.5978 56.2376 86.9893 56.2376C87.0869 56.2376 87.1846 56.2428 87.284 56.2531C88.7953 56.4135 89.8953 57.7879 89.7359 59.3228C89.5766 60.8629 88.2195 61.9667 86.7082 61.8063ZM131.261 65.5797C131.068 64.3587 131.892 63.2118 133.099 63.017C133.214 62.9997 133.33 62.9894 133.443 62.9894C134.509 62.9894 135.452 63.7758 135.625 64.8795C135.816 66.1075 134.991 67.2475 133.79 67.4406C132.585 67.6337 131.452 66.8076 131.261 65.5797ZM91.3431 67.4406C90.1403 67.2492 89.3162 66.1075 89.5097 64.8795C89.6794 63.7775 90.6201 62.9911 91.6859 62.9911C91.8007 62.9911 91.9155 63.0015 92.0337 63.0187C93.24 63.2118 94.0625 64.3604 93.874 65.5797C93.6804 66.8076 92.5478 67.6337 91.3431 67.4406ZM125.546 70.3758C125.336 69.3807 125.966 68.3961 126.952 68.1839C127.078 68.1546 127.205 68.1425 127.329 68.1425C128.172 68.1425 128.932 68.7409 129.113 69.6067C129.326 70.6121 128.696 71.5917 127.709 71.8021C126.723 72.016 125.757 71.3813 125.546 70.3758ZM97.4209 71.8038C96.4355 71.5917 95.8051 70.6121 96.0175 69.6084C96.1992 68.7409 96.9582 68.1425 97.8013 68.1425C97.9264 68.1425 98.0532 68.1546 98.1783 68.1839C99.1652 68.3961 99.7941 69.3807 99.5833 70.3758C99.3743 71.3813 98.4061 72.016 97.4209 71.8038ZM118.827 73.3525C118.627 72.5782 119.08 71.7883 119.837 71.5814C119.96 71.5469 120.085 71.5313 120.207 71.5313C120.837 71.5313 121.416 71.9574 121.586 72.6023C121.789 73.3766 121.337 74.1648 120.573 74.37C119.816 74.577 119.033 74.1235 118.827 73.3525ZM104.556 74.37C103.797 74.1648 103.343 73.3766 103.545 72.6058C103.716 71.9574 104.297 71.5313 104.924 71.5313C105.045 71.5313 105.169 71.5486 105.291 71.5814C106.053 71.7883 106.506 72.5782 106.303 73.3508C106.099 74.1235 105.318 74.577 104.556 74.37ZM112.475 75.3376C111.787 75.291 111.239 74.7116 111.239 73.9976C111.239 73.2543 111.834 72.6523 112.565 72.6523C113.298 72.6523 113.895 73.2543 113.895 73.9958C113.895 74.7116 113.346 75.291 112.655 75.3376H112.475ZM114.965 19.4327C114.192 19.5879 113.692 20.3415 113.846 21.1297C114 21.9092 114.753 22.4163 115.524 22.2592C116.295 22.1023 116.793 21.3435 116.639 20.564C116.502 19.8725 115.911 19.4034 115.248 19.4034C115.155 19.4034 115.061 19.4137 114.965 19.4327ZM109.064 19.8241C108.459 19.9155 108.036 20.4847 108.125 21.1038C108.215 21.7213 108.781 22.1438 109.388 22.0558C109.996 21.9643 110.419 21.3952 110.329 20.7761C110.249 20.2139 109.773 19.812 109.228 19.812C109.174 19.812 109.121 19.8172 109.064 19.8241ZM120.652 20.6502C119.731 20.8882 119.17 21.8367 119.408 22.7767C119.642 23.7115 120.585 24.2806 121.507 24.0374C122.427 23.7993 122.985 22.8457 122.75 21.9127C122.549 21.1177 121.848 20.5951 121.08 20.5951C120.939 20.5951 120.796 20.6123 120.652 20.6502ZM103.027 21.6402C102.503 21.8696 102.258 22.4852 102.486 23.0216C102.71 23.5527 103.323 23.7959 103.848 23.5683C104.373 23.3372 104.617 22.7198 104.391 22.1886C104.221 21.7902 103.84 21.554 103.44 21.554C103.302 21.554 103.16 21.5816 103.027 21.6402ZM125.691 23.2371C124.562 23.5942 123.923 24.8151 124.279 25.9672C124.632 27.1158 125.843 27.7574 126.971 27.3986C128.108 27.0382 128.739 25.8154 128.385 24.6685C128.096 23.7339 127.249 23.1372 126.337 23.1372C126.121 23.1372 125.906 23.1699 125.691 23.2371ZM97.5784 24.8463C97.0986 25.2342 97.0147 25.9379 97.3951 26.4293C97.7772 26.9192 98.478 27.0003 98.9578 26.6157C99.441 26.2276 99.525 25.5205 99.1428 25.029C98.9235 24.7479 98.5996 24.6013 98.2723 24.6013C98.0308 24.6013 97.7858 24.6823 97.5784 24.8463ZM129.833 27.3107C128.604 27.7711 127.972 29.1473 128.432 30.3977C128.886 31.6463 130.251 32.2809 131.475 31.8205C132.703 31.3618 133.334 29.9752 132.877 28.7301C132.521 27.7539 131.616 27.1607 130.657 27.1607C130.383 27.1607 130.104 27.2089 129.833 27.3107ZM93.2502 28.9266C92.6077 29.3871 92.4518 30.2838 92.9109 30.9392C93.3667 31.5877 94.2543 31.7412 94.8934 31.2807C95.536 30.8185 95.6885 29.9183 95.2327 29.2698C94.9551 28.8715 94.5181 28.6593 94.0744 28.6593C93.7883 28.6593 93.5004 28.7456 93.2502 28.9266ZM132.713 32.4068C131.402 32.9811 130.798 34.5092 131.363 35.8423C131.929 37.1703 133.445 37.7825 134.754 37.2116C136.062 36.6391 136.668 35.0973 136.1 33.7728C135.68 32.7811 134.732 32.193 133.737 32.193C133.394 32.193 133.046 32.2603 132.713 32.4068ZM90.2191 33.9538C89.4171 34.473 89.1722 35.5456 89.6862 36.3666C90.1951 37.1823 91.2608 37.4254 92.0645 36.9098C92.8732 36.3959 93.1097 35.3112 92.5991 34.4937C92.2701 33.9676 91.7149 33.6813 91.1443 33.6813C90.8274 33.6813 90.507 33.7711 90.2191 33.9538ZM134.328 38.5241C133.157 39.1121 132.676 40.5556 133.254 41.7404C133.841 42.9408 135.259 43.4185 136.433 42.8304C137.605 42.244 138.088 40.8057 137.504 39.6123C137.091 38.7655 136.25 38.2757 135.376 38.2757C135.023 38.2757 134.665 38.3551 134.328 38.5241ZM88.6153 39.4501C87.5786 40.0383 87.2103 41.3645 87.7945 42.4165C88.3754 43.4633 89.6845 43.841 90.7212 43.2495C91.7578 42.6614 92.1262 41.33 91.5436 40.2797C91.1477 39.5674 90.4213 39.169 89.669 39.169H89.6604C89.3057 39.169 88.946 39.2604 88.6153 39.4501ZM134.408 44.8792C133.377 45.4655 133.004 46.797 133.585 47.8507C134.17 48.9027 135.482 49.2666 136.512 48.6785C137.548 48.0887 137.919 46.766 137.334 45.7122C136.94 44.9999 136.21 44.5981 135.46 44.5981C135.103 44.5981 134.742 44.6878 134.408 44.8792ZM88.6958 45.2983C87.5289 45.8829 87.0406 47.3212 87.6231 48.5182C88.2057 49.7081 89.6313 50.1944 90.8051 49.6046C91.9771 49.0165 92.4569 47.573 91.8743 46.3831C91.4596 45.5329 90.6252 45.043 89.7564 45.043C89.4 45.043 89.0385 45.1258 88.6958 45.2983ZM90.3767 50.9187C89.0711 51.4879 88.4611 53.0228 89.0283 54.356C89.5902 55.6822 91.1152 56.2927 92.4209 55.7218C93.7248 55.1492 94.328 53.6109 93.7625 52.2829C93.341 51.293 92.3935 50.7049 91.3979 50.7049C91.0569 50.7049 90.7109 50.7721 90.3767 50.9187ZM133.068 51.2172C132.263 51.7328 132.022 52.8159 132.533 53.6281C133.044 54.449 134.108 54.6871 134.912 54.1714C135.716 53.6558 135.96 52.5796 135.448 51.7586C135.119 51.2344 134.557 50.9464 133.985 50.9464C133.671 50.9464 133.354 51.0343 133.068 51.2172ZM93.6546 56.3082C92.4277 56.7686 91.7972 58.1552 92.253 59.3953C92.7104 60.6524 94.0761 61.2768 95.2978 60.8146C96.5299 60.3523 97.1586 58.9813 96.7011 57.7258C96.3464 56.7583 95.4417 56.1564 94.4771 56.1564C94.2046 56.1564 93.9253 56.2047 93.6546 56.3082ZM130.237 56.848C129.593 57.3084 129.444 58.2087 129.898 58.8589C130.354 59.5124 131.242 59.6642 131.886 59.2055C132.525 58.745 132.677 57.8465 132.22 57.1894C131.943 56.7927 131.503 56.5824 131.058 56.5807C130.774 56.5807 130.485 56.6687 130.237 56.848ZM98.1577 60.7301C97.0233 61.087 96.3927 62.3081 96.7474 63.4584C97.1021 64.6156 98.3032 65.2503 99.4376 64.8881C100.57 64.5329 101.205 63.3135 100.851 62.1632C100.565 61.2284 99.7135 60.63 98.7967 60.63C98.5859 60.63 98.37 60.6629 98.1577 60.7301ZM126.17 61.513C125.691 61.9011 125.609 62.6099 125.988 63.0963C126.37 63.5895 127.071 63.667 127.552 63.2808C128.033 62.8944 128.116 62.1891 127.738 61.6976C127.518 61.4165 127.192 61.2699 126.864 61.2699C126.622 61.2699 126.377 61.3492 126.17 61.513ZM103.627 64.0914C102.705 64.331 102.149 65.2796 102.385 66.2143C102.619 67.1577 103.559 67.7165 104.48 67.4784C105.404 67.2387 105.962 66.2919 105.726 65.352C105.529 64.5622 104.825 64.0361 104.057 64.0361C103.914 64.0361 103.771 64.0551 103.627 64.0914ZM121.284 64.5622C120.76 64.7898 120.516 65.4072 120.743 65.9383C120.972 66.4764 121.58 66.7179 122.105 66.4902C122.631 66.2609 122.877 65.6417 122.65 65.1089C122.48 64.7122 122.097 64.4759 121.696 64.4759C121.559 64.4759 121.419 64.5035 121.284 64.5622ZM109.606 65.8677C108.838 66.0246 108.337 66.7886 108.491 67.5664C108.645 68.3528 109.398 68.8582 110.167 68.7012C110.937 68.5443 111.44 67.7837 111.284 66.9973C111.147 66.3143 110.553 65.8401 109.886 65.8401C109.794 65.8401 109.702 65.8487 109.606 65.8677ZM115.741 66.0711C115.138 66.1643 114.714 66.7369 114.804 67.3525C114.893 67.9716 115.462 68.3943 116.065 68.3045C116.675 68.2131 117.099 67.644 117.008 67.0249C116.929 66.4627 116.451 66.0608 115.901 66.0608C115.849 66.0608 115.797 66.0625 115.741 66.0711ZM113.658 27.6883C112.994 27.0554 112.964 25.9983 113.585 25.3291C113.911 24.9824 114.349 24.8065 114.788 24.8065C115.19 24.8065 115.595 24.9565 115.912 25.2583C116.571 25.893 116.606 26.945 115.982 27.6194C115.363 28.2903 114.32 28.3213 113.658 27.6883ZM108.43 27.5987C107.906 27.0985 107.882 26.2689 108.372 25.7378C108.627 25.4653 108.972 25.3274 109.317 25.3274C109.635 25.3274 109.954 25.4429 110.205 25.6826C110.725 26.1776 110.748 27.0141 110.262 27.54C109.768 28.066 108.946 28.0936 108.43 27.5987ZM118.766 29.3905C118.022 28.6748 117.992 27.49 118.692 26.7364C119.058 26.3449 119.546 26.1449 120.037 26.1449C120.491 26.1449 120.95 26.3156 121.311 26.6605C122.055 27.3676 122.085 28.5592 121.386 29.3147C120.691 30.0649 119.51 30.1028 118.766 29.3905ZM103.441 29.2818C103.021 28.8732 103.002 28.2057 103.398 27.778C103.605 27.5572 103.883 27.4435 104.161 27.4435C104.419 27.4435 104.679 27.54 104.883 27.7349C105.302 28.1367 105.324 28.8093 104.926 29.2353C104.529 29.663 103.868 29.682 103.441 29.2818ZM123.099 32.7224C122.236 31.9016 122.203 30.5391 123.014 29.6751C123.432 29.2215 123.996 28.9938 124.565 28.9938C125.085 28.9938 125.609 29.1853 126.022 29.5786C126.876 30.3977 126.916 31.7619 126.105 32.6414C125.304 33.5003 123.953 33.5451 123.099 32.7224ZM99.2978 32.481C98.9825 32.1792 98.9672 31.6808 99.267 31.36C99.4195 31.1962 99.6251 31.1134 99.8308 31.1134C100.024 31.1134 100.218 31.1841 100.372 31.3273C100.686 31.6291 100.699 32.1309 100.401 32.45C100.11 32.7673 99.6166 32.7863 99.2978 32.481ZM126.642 36.9098C125.892 36.1976 125.86 35.0075 126.563 34.2556C126.927 33.8624 127.421 33.6641 127.914 33.6641C128.371 33.6641 128.822 33.8331 129.176 34.1729C129.928 34.8921 129.96 36.0734 129.256 36.8287C128.559 37.5789 127.387 37.6238 126.642 36.9098ZM96.0354 37.2582C95.6087 36.8511 95.5865 36.1821 95.9875 35.7544C96.1948 35.5353 96.4723 35.4232 96.7516 35.4232C97.0086 35.4232 97.2674 35.5198 97.4696 35.7146C97.8928 36.1182 97.9083 36.7891 97.5159 37.2185C97.1149 37.6411 96.4517 37.6583 96.0354 37.2582ZM128.625 41.9784C127.961 41.349 127.928 40.2917 128.555 39.6209C128.878 39.2708 129.315 39.0966 129.752 39.0966C130.156 39.0966 130.563 39.2466 130.883 39.5484C131.545 40.1832 131.58 41.2403 130.951 41.9078C130.33 42.5768 129.285 42.6166 128.625 41.9784ZM94.334 42.7683C93.8079 42.2699 93.7959 41.4472 94.2774 40.9144C94.5309 40.6384 94.8754 40.4987 95.2198 40.4987C95.5402 40.4987 95.8607 40.6176 96.1124 40.8574C96.6282 41.3524 96.6574 42.1923 96.1657 42.7183C95.6756 43.2408 94.8497 43.2684 94.334 42.7683ZM129.026 47.2643C128.509 46.7693 128.48 45.9381 128.968 45.4104C129.224 45.1362 129.569 44.9982 129.915 44.9982C130.235 44.9982 130.553 45.1155 130.802 45.3535C131.331 45.8536 131.348 46.6832 130.86 47.2092C130.366 47.7386 129.555 47.7661 129.026 47.2643ZM94.2551 48.5733C93.5937 47.9421 93.5628 46.8797 94.1832 46.2124C94.5086 45.8639 94.949 45.6863 95.3877 45.6863C95.7921 45.6863 96.1948 45.8346 96.5117 46.1399C97.1749 46.778 97.2057 47.8369 96.5819 48.5044C95.9583 49.1752 94.9199 49.208 94.2551 48.5733ZM127.664 52.4175C127.243 52.0104 127.224 51.3344 127.621 50.9084C127.828 50.686 128.11 50.5721 128.388 50.5721C128.646 50.5721 128.905 50.667 129.109 50.8601C129.532 51.2654 129.548 51.9398 129.153 52.3658C128.756 52.7969 128.093 52.8193 127.664 52.4175ZM95.9532 53.9524C95.2043 53.2367 95.1821 52.0466 95.8829 51.2982C96.2479 50.9084 96.7413 50.7066 97.2348 50.7066C97.6855 50.7066 98.1395 50.8739 98.4976 51.2189C99.2396 51.9243 99.2722 53.1194 98.573 53.8713C97.8774 54.6215 96.7019 54.6595 95.9532 53.9524ZM99.1197 58.5433C98.2612 57.7172 98.2234 56.365 99.0271 55.4872C99.4452 55.0371 100.011 54.8078 100.576 54.8078C101.099 54.8095 101.624 55.0044 102.037 55.3976C102.894 56.2203 102.935 57.5826 102.127 58.4518C101.323 59.3228 99.9746 59.3607 99.1197 58.5433ZM124.765 56.7996C124.451 56.4996 124.437 55.9977 124.731 55.677C124.884 55.5113 125.091 55.4269 125.302 55.4269C125.494 55.4269 125.688 55.4993 125.835 55.6441C126.155 55.9409 126.166 56.4444 125.869 56.76C125.574 57.086 125.082 57.0963 124.765 56.7996ZM103.833 61.4647C103.085 60.7507 103.052 59.5608 103.749 58.8175C104.112 58.4243 104.603 58.2241 105.094 58.2241H105.102C105.556 58.2241 106.013 58.3932 106.368 58.733C107.119 59.4452 107.145 60.6283 106.447 61.3889C105.751 62.1408 104.577 62.1804 103.833 61.4647ZM120.251 60.3921C119.83 59.9902 119.812 59.3159 120.211 58.8882C120.417 58.6657 120.694 58.5536 120.971 58.5536C121.232 58.5536 121.491 58.6501 121.692 58.8451C122.116 59.2504 122.135 59.9229 121.738 60.3472C121.344 60.7749 120.678 60.7955 120.251 60.3921ZM109.22 62.86C108.557 62.2357 108.526 61.1715 109.15 60.5041C109.474 60.1575 109.913 59.9816 110.354 59.9816C110.759 59.9816 111.164 60.1299 111.482 60.4369C112.147 61.0663 112.173 62.127 111.548 62.7944C110.925 63.467 109.891 63.498 109.22 62.86ZM114.932 62.4426C114.412 61.946 114.387 61.1078 114.875 60.5869C115.132 60.311 115.476 60.1713 115.823 60.1713C116.141 60.1713 116.46 60.2886 116.711 60.5283C117.237 61.0267 117.255 61.8614 116.765 62.3823C116.274 62.9099 115.455 62.9411 114.932 62.4426ZM110.811 30.3528C110.582 31.1289 111.019 31.9378 111.786 32.1706C112.552 32.3999 113.351 31.9498 113.578 31.1824C113.808 30.4063 113.368 29.5872 112.606 29.3629C112.467 29.3198 112.329 29.3009 112.192 29.3009C111.565 29.3009 110.998 29.7164 110.811 30.3528ZM114.678 30.8254C114.422 31.7221 114.909 32.65 115.802 32.9156C116.681 33.1795 117.601 32.6724 117.857 31.786C118.124 30.8858 117.62 29.9475 116.736 29.6837C116.58 29.6389 116.424 29.6165 116.27 29.6165C115.55 29.6165 114.886 30.0941 114.678 30.8254ZM106.928 31.1669C106.729 31.8584 107.122 32.5793 107.802 32.7828C108.48 32.9863 109.198 32.5966 109.395 31.9016C109.589 31.2152 109.198 30.4908 108.525 30.2873C108.405 30.2528 108.285 30.2356 108.166 30.2356C107.608 30.2356 107.096 30.6047 106.928 31.1669ZM118.593 32.6741C118.365 33.4486 118.808 34.2608 119.572 34.4902C120.337 34.7195 121.14 34.2677 121.364 33.4951C121.592 32.7207 121.155 31.9067 120.389 31.6773C120.254 31.636 120.118 31.617 119.983 31.617C119.356 31.617 118.782 32.0378 118.593 32.6741ZM103.591 33.2433C103.432 33.79 103.734 34.3539 104.273 34.516C104.809 34.6747 105.37 34.3608 105.53 33.821C105.686 33.2795 105.377 32.7103 104.84 32.5482C104.746 32.5189 104.65 32.5052 104.556 32.5052C104.118 32.5052 103.717 32.7966 103.591 33.2433ZM121.729 35.5732C121.525 36.2717 121.919 36.9874 122.596 37.1909C123.28 37.3927 123.987 36.9925 124.191 36.3044C124.395 35.6215 124.006 34.8972 123.32 34.6971C123.2 34.6609 123.079 34.6437 122.959 34.6437C122.409 34.6437 121.899 35.011 121.729 35.5732ZM100.949 36.32C100.819 36.7546 101.073 37.2185 101.505 37.3444C101.938 37.4738 102.387 37.2237 102.52 36.7856C102.653 36.351 102.397 35.8889 101.967 35.7543C101.894 35.7337 101.818 35.7232 101.743 35.7232C101.385 35.7232 101.056 35.9544 100.949 36.32ZM123.958 39.3035C123.791 39.8571 124.111 40.4228 124.642 40.5814C125.182 40.7418 125.74 40.4314 125.898 39.8864C126.056 39.3415 125.75 38.7741 125.216 38.6172C125.12 38.5878 125.022 38.574 124.926 38.574C124.488 38.574 124.083 38.8637 123.958 39.3035ZM99.3955 40.1399C99.3012 40.4711 99.4795 40.8195 99.8051 40.9144C100.132 41.0109 100.47 40.8195 100.566 40.4918C100.66 40.1641 100.477 39.8209 100.149 39.7209C100.091 39.7054 100.035 39.6967 99.978 39.6967C99.7141 39.6967 99.4726 39.8709 99.3955 40.1399ZM124.904 43.4529C124.774 43.8892 125.021 44.3567 125.459 44.4826C125.895 44.6137 126.346 44.3601 126.476 43.9186C126.6 43.4858 126.357 43.0218 125.92 42.889C125.845 42.8683 125.768 42.8562 125.694 42.8562C125.336 42.8562 125.004 43.0908 124.904 43.4529ZM98.6621 44.2084C98.5318 44.6447 98.7872 45.1034 99.219 45.2345C99.6508 45.3656 100.105 45.1189 100.233 44.6757C100.364 44.2377 100.117 43.7772 99.6815 43.6444C99.6062 43.6203 99.5309 43.6117 99.4555 43.6117C99.1008 43.6117 98.7735 43.8496 98.6621 44.2084ZM124.571 47.642C124.482 47.968 124.662 48.318 124.982 48.4095C125.312 48.5061 125.648 48.3197 125.74 47.9887C125.839 47.6627 125.655 47.3143 125.329 47.2178C125.274 47.2023 125.218 47.1954 125.162 47.1954C124.901 47.1954 124.651 47.3713 124.571 47.642ZM99.2464 48.2474C99.0956 48.7889 99.3852 49.3615 99.93 49.5201C100.46 49.684 101.025 49.3666 101.183 48.8199C101.339 48.2784 101.03 47.7093 100.499 47.5592C100.4 47.5282 100.3 47.5144 100.201 47.5144C99.7655 47.5144 99.3681 47.8024 99.2464 48.2474ZM122.62 51.3412C122.493 51.7827 122.742 52.245 123.169 52.3692C123.609 52.5003 124.064 52.2467 124.191 51.8104C124.317 51.3758 124.07 50.9084 123.636 50.7773C123.56 50.7549 123.483 50.7445 123.406 50.7445C123.052 50.7445 122.725 50.9791 122.62 51.3412ZM100.946 51.8225C100.743 52.5106 101.129 53.2315 101.813 53.4384C102.5 53.6437 103.206 53.247 103.412 52.5571C103.612 51.869 103.217 51.1412 102.537 50.936C102.417 50.8998 102.294 50.8825 102.174 50.8825C101.621 50.8825 101.114 51.2533 100.946 51.8225ZM119.609 54.3093C119.456 54.8491 119.767 55.42 120.298 55.5821C120.831 55.7425 121.391 55.4286 121.548 54.8922C121.711 54.3438 121.404 53.7747 120.868 53.616C120.771 53.5867 120.675 53.5729 120.581 53.5729C120.143 53.5729 119.74 53.8661 119.609 54.3093ZM103.776 54.6404C103.554 55.4079 103.985 56.222 104.753 56.453C105.521 56.6772 106.32 56.2323 106.549 55.4596C106.768 54.6905 106.334 53.8696 105.564 53.6437C105.427 53.6022 105.29 53.5833 105.156 53.5833C104.53 53.5833 103.96 53.9972 103.776 54.6404ZM107.279 56.3512C107.025 57.2533 107.519 58.1793 108.405 58.4449C109.284 58.7019 110.212 58.1897 110.462 57.305C110.722 56.4116 110.223 55.4751 109.337 55.2113C109.181 55.1647 109.023 55.144 108.869 55.144C108.149 55.144 107.488 55.6166 107.279 56.3512ZM115.742 56.227C115.543 56.9186 115.939 57.643 116.614 57.8431C117.3 58.0465 118.009 57.6533 118.209 56.9601C118.409 56.2771 118.025 55.5511 117.341 55.3492C117.219 55.3113 117.095 55.2941 116.974 55.2941C116.419 55.2941 115.905 55.6632 115.742 56.227ZM111.556 56.9566C111.333 57.7258 111.773 58.5329 112.537 58.7657C113.305 58.9985 114.109 58.5519 114.327 57.7809C114.549 57.0032 114.119 56.1891 113.354 55.9615C113.214 55.9218 113.077 55.9011 112.943 55.9011C112.317 55.9011 111.743 56.315 111.556 56.9566ZM110.307 33.5002C109.755 33.802 109.558 34.5057 109.849 35.0593C110.142 35.6267 110.839 35.8284 111.392 35.5318C111.943 35.2249 112.146 34.5281 111.85 33.9641C111.649 33.5814 111.255 33.3606 110.848 33.3606C110.665 33.3606 110.478 33.4054 110.307 33.5002ZM113.362 33.5485C112.868 33.8141 112.694 34.4332 112.953 34.9334C113.213 35.43 113.825 35.6164 114.312 35.3439C114.813 35.0731 114.988 34.4557 114.728 33.9572C114.551 33.6175 114.205 33.4191 113.845 33.4191C113.682 33.4191 113.516 33.4623 113.362 33.5485ZM107.408 34.3729C106.784 34.716 106.548 35.5094 106.891 36.1389C107.229 36.7718 108.007 37.0184 108.64 36.6735C109.265 36.3304 109.493 35.537 109.157 34.9075C108.926 34.4661 108.48 34.2142 108.019 34.2142C107.813 34.2142 107.603 34.2659 107.408 34.3729ZM116.294 34.5178C115.862 34.761 115.696 35.311 115.927 35.7423C116.158 36.1769 116.707 36.3372 117.123 36.0992C117.562 35.8629 117.719 35.3197 117.482 34.8869C117.327 34.5832 117.018 34.4125 116.701 34.4125C116.563 34.4125 116.422 34.447 116.294 34.5178ZM105.108 36.3459C104.547 36.6563 104.342 37.3444 104.643 37.9153C104.946 38.4706 105.624 38.6792 106.177 38.3774C106.739 38.0756 106.943 37.372 106.645 36.8184C106.441 36.4303 106.045 36.2062 105.641 36.2062C105.46 36.2062 105.276 36.251 105.108 36.3459ZM118.816 36.3597C118.44 36.5683 118.305 37.0323 118.5 37.403C118.699 37.7738 119.157 37.9101 119.536 37.7186C119.9 37.5082 120.044 37.0443 119.844 36.6701C119.703 36.4131 119.441 36.2648 119.174 36.2648C119.052 36.2648 118.93 36.2958 118.816 36.3597ZM120.68 38.8775C120.385 39.0518 120.264 39.4501 120.434 39.7537C120.598 40.0658 120.984 40.178 121.282 40.0123C121.592 39.845 121.706 39.4621 121.539 39.15C121.422 38.9293 121.202 38.8069 120.974 38.8069C120.875 38.8069 120.774 38.8293 120.68 38.8775ZM103.466 38.9586C102.977 39.2294 102.795 39.8537 103.052 40.3487C103.322 40.8419 103.935 41.0334 104.423 40.7609C104.914 40.497 105.103 39.8726 104.837 39.3725C104.65 39.0327 104.3 38.8379 103.943 38.8379C103.782 38.8379 103.619 38.8775 103.466 38.9586ZM121.629 41.6335C121.254 41.8318 121.114 42.306 121.318 42.6786C121.509 43.0511 121.979 43.189 122.333 42.9976C122.707 42.7786 122.849 42.3112 122.654 41.9422C122.516 41.6852 122.253 41.5403 121.986 41.5403C121.865 41.5403 121.741 41.5714 121.629 41.6335ZM102.665 41.9853C102.24 42.2164 102.082 42.7614 102.31 43.1926C102.547 43.6323 103.079 43.7927 103.511 43.5581C103.938 43.3218 104.1 42.77 103.869 42.3423C103.709 42.0423 103.408 41.8714 103.095 41.8714C102.949 41.8714 102.802 41.9095 102.665 41.9853ZM121.632 44.555C121.201 44.7964 121.048 45.3344 121.271 45.7777C121.499 46.2053 122.051 46.3624 122.476 46.133C122.906 45.8967 123.06 45.3518 122.827 44.9189C122.669 44.617 122.369 44.448 122.055 44.448C121.912 44.448 121.769 44.4843 121.632 44.555ZM102.791 45.1241C102.428 45.3293 102.291 45.8001 102.49 46.1709C102.692 46.5486 103.152 46.6797 103.515 46.4727C103.883 46.283 104.032 45.8053 103.823 45.4345C103.681 45.181 103.422 45.0326 103.151 45.0326C103.031 45.0326 102.908 45.062 102.791 45.1241ZM120.716 47.347C120.221 47.6109 120.043 48.2456 120.303 48.7423C120.572 49.2356 121.184 49.4218 121.665 49.1562C122.169 48.8802 122.342 48.2646 122.086 47.7627C121.902 47.4212 121.554 47.2247 121.194 47.2247C121.032 47.2247 120.868 47.2626 120.716 47.347ZM103.85 48.1008C103.542 48.2646 103.431 48.6544 103.596 48.9751C103.762 49.2804 104.142 49.3994 104.456 49.2356C104.76 49.0597 104.876 48.6716 104.707 48.3612C104.592 48.1473 104.372 48.0248 104.145 48.0248C104.046 48.0248 103.945 48.049 103.85 48.1008ZM118.956 49.7357C118.402 50.0409 118.199 50.7411 118.497 51.2982C118.789 51.8587 119.48 52.0674 120.037 51.7586C120.589 51.4689 120.794 50.7566 120.494 50.2013C120.284 49.8185 119.894 49.5942 119.491 49.5942C119.311 49.5942 119.127 49.639 118.956 49.7357ZM105.608 50.3997C105.238 50.5962 105.101 51.0687 105.3 51.4396C105.494 51.8138 105.954 51.9518 106.323 51.7448C106.689 51.5517 106.828 51.0844 106.631 50.7101C106.498 50.4548 106.235 50.3117 105.965 50.3117C105.843 50.3117 105.721 50.3392 105.608 50.3997ZM116.497 51.4447C115.872 51.7827 115.632 52.5744 115.98 53.2107C116.32 53.8437 117.101 54.0766 117.729 53.7419C118.352 53.3936 118.583 52.5968 118.249 51.9777C118.016 51.5362 117.572 51.2826 117.112 51.2826C116.905 51.2826 116.694 51.3343 116.497 51.4447ZM108.014 52.0121C107.576 52.2519 107.419 52.7883 107.656 53.2229C107.879 53.6609 108.419 53.8282 108.847 53.5936C109.278 53.347 109.44 52.8003 109.208 52.3692C109.046 52.0743 108.739 51.9035 108.429 51.9035C108.289 51.9035 108.144 51.9363 108.014 52.0121ZM113.745 52.5847C113.191 52.8831 112.997 53.5798 113.3 54.1472C113.588 54.7025 114.275 54.9232 114.83 54.6077C115.387 54.3128 115.586 53.6108 115.292 53.0521C115.082 52.6658 114.692 52.4467 114.288 52.4467C114.104 52.4467 113.919 52.4915 113.745 52.5847ZM110.812 52.764C110.321 53.0331 110.145 53.6592 110.406 54.1524C110.675 54.6526 111.286 54.8388 111.779 54.5715C112.276 54.3093 112.456 53.6816 112.19 53.178C112.01 52.8365 111.659 52.6469 111.296 52.6469C111.131 52.6469 110.966 52.683 110.812 52.764Z" fill="url(#paint0_linear_2172_2022)"/>
<path d="M171.465 103.561C171.465 105.051 171.519 105.091 172.848 105.091H177.287C177.476 105.091 177.635 105.251 177.635 105.446V106.581C177.635 106.832 177.547 106.921 177.287 106.955C176.723 107.045 175.583 107.204 173.499 107.204C170.584 107.204 169.043 107.224 169.043 103.561V97.9381C169.043 94.2761 170.584 94.2974 173.499 94.2974C175.583 94.2974 176.723 94.4576 177.287 94.5444C177.547 94.5783 177.635 94.6691 177.635 94.9193V96.0542C177.635 96.2484 177.476 96.411 177.287 96.411H172.848C171.519 96.411 171.465 96.4511 171.465 97.9381V99.5679H177.075C177.269 99.5679 177.423 99.7296 177.423 99.9222V101.206C177.423 101.399 177.269 101.559 177.075 101.559H171.465V103.561ZM197.389 107.212C195.839 107.212 194.269 106.942 193.427 106.745C193.254 106.71 193.094 106.587 193.094 106.391V105.111C193.094 104.917 193.254 104.773 193.427 104.773H193.462C194.164 104.862 195.804 105.094 197.425 105.094C198.983 105.094 199.462 104.528 199.462 103.497C199.462 102.164 196.323 101.427 194.791 100.786C193.266 100.148 192.726 98.9222 192.726 97.68C192.726 95.7234 194.278 94.3029 197.537 94.3029C199.208 94.3029 200.738 94.6249 201.334 94.7693C201.51 94.8041 201.649 94.9287 201.649 95.1056V96.4211C201.649 96.5972 201.529 96.7408 201.351 96.7408H201.317C200.159 96.6351 198.959 96.418 197.435 96.418C196.136 96.418 195.165 96.8805 195.165 97.68C195.165 98.2648 195.823 98.8022 196.601 99.1156C197.38 99.4266 198.4 99.8298 199.566 100.305C201.042 100.911 202 101.793 202 103.497C202 105.291 200.896 107.212 197.389 107.212ZM188.069 98.313C188.069 96.9799 187.049 96.411 185.292 96.411C184.926 96.411 183.331 96.4464 183.015 96.4819V100.336C183.299 100.354 185 100.389 185.292 100.389C187.102 100.389 188.069 100.037 188.069 98.4739V98.313ZM190.7 107.063H188.559C188.365 107.063 188.297 106.882 188.21 106.707L185.682 102.397H185.292C184.839 102.397 183.42 102.347 183.015 102.326V106.707C183.015 106.901 182.877 107.063 182.685 107.063H180.933C180.741 107.063 180.582 106.901 180.582 106.707V95.0597C180.582 94.703 180.791 94.5784 181.141 94.5271C182.052 94.385 184.016 94.2974 185.292 94.2974C187.994 94.2974 190.486 95.2753 190.486 98.313V98.4739C190.486 100.355 189.555 101.385 188.118 101.951L190.874 106.707C190.909 106.761 190.909 106.811 190.909 106.851C190.909 106.972 190.838 107.063 190.7 107.063ZM166.892 96.4986H163.395V106.707C163.395 106.901 163.234 107.063 163.041 107.063H161.306C161.113 107.063 160.955 106.901 160.955 106.707V96.4986H157.455C157.265 96.4986 157.106 96.3762 157.106 96.1797V94.7757C157.106 94.5783 157.265 94.4379 157.455 94.4379H166.892C167.082 94.4379 167.241 94.5783 167.241 94.7757V96.1797C167.241 96.3762 167.082 96.4986 166.892 96.4986ZM150.111 107.204C147.291 107.204 144.862 105.96 144.862 102.172V94.7757C144.862 94.5783 145.02 94.4379 145.214 94.4379H146.946C147.141 94.4379 147.297 94.5783 147.297 94.7757V102.172C147.297 104.2 148.221 105.16 150.111 105.16C152.006 105.16 152.928 104.2 152.928 102.172V94.7757C152.928 94.5783 153.085 94.4379 153.278 94.4379H155.013C155.208 94.4379 155.365 94.5783 155.365 94.7757V102.172C155.365 105.96 152.935 107.204 150.111 107.204ZM136.069 103.561C136.069 105.051 136.125 105.091 137.45 105.091H141.889C142.083 105.091 142.24 105.251 142.24 105.446V106.581C142.24 106.832 142.152 106.921 141.889 106.955C141.328 107.045 140.186 107.204 138.101 107.204C135.192 107.204 133.649 107.224 133.649 103.561V97.9381C133.649 94.2761 135.192 94.2974 138.101 94.2974C140.186 94.2974 141.328 94.4576 141.889 94.5444C142.152 94.5783 142.24 94.6691 142.24 94.9193V96.0542C142.24 96.2484 142.083 96.411 141.889 96.411H137.45C136.125 96.411 136.069 96.4511 136.069 97.9381V99.5679H141.678C141.872 99.5679 142.031 99.7296 142.031 99.9222V101.206C142.031 101.399 141.872 101.559 141.678 101.559H136.069V103.561ZM128.555 98.313C128.555 96.9799 127.534 96.411 125.782 96.411C125.413 96.411 123.818 96.4464 123.504 96.4819V100.336C123.783 100.354 125.48 100.389 125.782 100.389C127.585 100.389 128.555 100.037 128.555 98.4739V98.313ZM131.185 107.063H129.045C128.853 107.063 128.782 106.882 128.695 106.707L126.169 102.397H125.782C125.323 102.397 123.907 102.347 123.504 102.326V106.707C123.504 106.901 123.363 107.063 123.17 107.063H121.417C121.225 107.063 121.067 106.901 121.067 106.707V95.0597C121.067 94.703 121.275 94.5784 121.627 94.5271C122.54 94.385 124.5 94.2974 125.782 94.2974C128.481 94.2974 130.974 95.2753 130.974 98.313V98.4739C130.974 100.355 130.045 101.385 128.608 101.951L131.358 106.707C131.395 106.761 131.395 106.811 131.395 106.851C131.395 106.972 131.325 107.063 131.185 107.063ZM97.1249 99.8409C97.1249 97.4954 95.726 96.4464 94.0079 96.4464C92.2899 96.4464 90.891 97.4954 90.891 99.8409V101.659C90.891 104.006 92.2899 105.053 94.0079 105.053C95.726 105.053 97.1249 104.006 97.1249 101.659V99.8409ZM94.0079 107.204C91.116 107.204 88.4381 105.569 88.4381 101.659V99.8409C88.4381 95.9319 91.116 94.2974 94.0079 94.2974C96.8999 94.2974 99.577 95.9319 99.577 99.8409V101.659C99.577 105.569 96.8999 107.204 94.0079 107.204ZM81.6165 107.212C80.0689 107.212 78.4965 106.942 77.6542 106.745C77.4789 106.71 77.321 106.587 77.321 106.391V105.111C77.321 104.917 77.4789 104.773 77.6542 104.773H77.6892C78.3898 104.862 80.0308 105.094 81.6515 105.094C83.2131 105.094 83.6857 104.528 83.6857 103.497C83.6857 102.164 80.5523 101.427 79.0212 100.786C77.493 100.148 76.9535 98.9222 76.9535 97.68C76.9535 95.7234 78.5073 94.3029 81.7667 94.3029C83.4381 94.3029 84.9677 94.6249 85.5617 94.7693C85.7385 94.8041 85.8762 94.9287 85.8762 95.1056V96.4211C85.8762 96.5972 85.7547 96.7408 85.5804 96.7408H85.5453C84.3862 96.6351 83.1866 96.418 81.66 96.418C80.3663 96.418 79.3901 96.8805 79.3901 97.68C79.3901 98.2648 80.0502 98.8038 80.8256 99.1156C81.604 99.4266 82.6277 99.8298 83.7923 100.305C85.2729 100.911 86.2297 101.793 86.2297 103.497C86.2297 105.291 85.1258 107.212 81.6165 107.212ZM112.305 107.063H110.532C110.111 107.063 109.742 107.063 109.465 106.424L104.711 98.3485C104.66 98.2428 104.605 98.2041 104.553 98.2041C104.503 98.2041 104.465 98.2428 104.465 98.3485V106.707C104.465 106.901 104.325 107.063 104.131 107.063H102.645C102.448 107.063 102.294 106.901 102.294 106.707V95.1481C102.294 94.7567 102.606 94.4379 102.992 94.4379H104.886C105.254 94.4379 105.445 94.5444 105.659 95.0092L110.603 103.561C110.637 103.648 110.689 103.704 110.743 103.704C110.778 103.704 110.828 103.648 110.828 103.543V94.7757C110.828 94.5783 110.969 94.4379 111.162 94.4379H112.67C112.864 94.4379 113.005 94.5783 113.005 94.7757V106.351C113.005 106.744 112.689 107.063 112.305 107.063ZM73.7977 107.063H72.0266C71.8702 107.063 71.7488 106.882 71.7488 106.707V99.0224C71.7488 98.8986 71.73 98.8457 71.692 98.8457C71.6788 98.8457 71.6429 98.8986 71.6055 98.9514L68.7751 105.306C68.6715 105.5 68.445 105.609 68.2177 105.609H67.3061C67.078 105.609 66.85 105.5 66.7472 105.306L63.898 98.9514C63.8614 98.8986 63.8249 98.8457 63.81 98.8457C63.7751 98.8457 63.7564 98.8986 63.7564 99.0224V106.707C63.7564 106.882 63.6334 107.063 63.4754 107.063H61.7068C61.5479 107.063 61.4062 106.972 61.4062 106.796V95.1481C61.4062 94.7567 61.7231 94.4379 62.1084 94.4379H63.5461C63.8249 94.4379 64.0717 94.6147 64.1946 94.8641L67.5583 101.807C67.6447 101.966 67.6814 102.055 67.7545 102.055C67.823 102.055 67.8581 101.966 67.9468 101.807L71.3082 94.8641C71.4312 94.6147 71.6787 94.4379 71.9574 94.4379H73.396C73.7814 94.4379 74.0966 94.7567 74.0966 95.1481V106.796C74.0966 106.972 73.9557 107.063 73.7977 107.063ZM56.2372 99.8409C56.2372 97.4954 54.8399 96.4464 53.1211 96.4464C51.4038 96.4464 50.0049 97.4954 50.0049 99.8409V101.659C50.0049 104.006 51.4038 105.053 53.1211 105.053C54.8399 105.053 56.2372 104.006 56.2372 101.659V99.8409ZM53.1211 107.204C50.2292 107.204 47.5521 105.569 47.5521 101.659V99.8409C47.5521 95.9319 50.2292 94.2974 53.1211 94.2974C56.0147 94.2974 58.6933 95.9319 58.6933 99.8409V101.659C58.6933 105.569 56.0147 107.204 53.1211 107.204ZM44.4335 107.063H42.6999C42.5045 107.063 42.3458 106.901 42.3458 106.707V101.559H36.7931V106.707C36.7931 106.901 36.6357 107.063 36.4459 107.063H34.709C34.5144 107.063 34.3572 106.901 34.3572 106.707V94.7757C34.3572 94.5783 34.5144 94.4379 34.709 94.4379H36.4459C36.6357 94.4379 36.7931 94.5783 36.7931 94.7757V99.391H42.3458V94.7757C42.3458 94.5783 42.5045 94.4379 42.6999 94.4379H44.4335C44.6243 94.4379 44.7831 94.5783 44.7831 94.7757V106.707C44.7831 106.901 44.6243 107.063 44.4335 107.063ZM31.7852 96.4986H28.2875V106.707C28.2875 106.901 28.1303 107.063 27.9349 107.063H26.2028C26.0098 107.063 25.8526 106.901 25.8526 106.707V96.4986H22.3511C22.1588 96.4986 22 96.3762 22 96.1797V94.7757C22 94.5783 22.1588 94.4379 22.3511 94.4379H31.7852C31.9782 94.4379 32.1363 94.5783 32.1363 94.7757V96.1797C32.1363 96.3762 31.9782 96.4986 31.7852 96.4986Z" fill="#656565"/>
<defs>
<linearGradient id="paint0_linear_2172_2022" x1="112.565" y1="75.3406" x2="112.565" y2="12.7868" gradientUnits="userSpaceOnUse">
<stop stop-color="#F79210"/>
<stop offset="0.5" stop-color="#F35C19"/>
<stop offset="1" stop-color="#F79210"/>
</linearGradient>
</defs>
</svg>
