<svg width="130" height="24" viewBox="0 0 130 24" fill="none" xmlns="http://www.w3.org/2000/svg">
<path fill-rule="evenodd" clip-rule="evenodd" d="M11.1327 23.7058L0.668542 18.7648C-0.222847 18.3335 -0.222847 17.6668 0.668542 17.2747L4.31161 15.5493L11.0939 18.7648C11.9853 19.1962 13.4193 19.1962 14.2719 18.7648L21.0542 15.5493L24.6973 17.2747C25.5887 17.706 25.5887 18.3727 24.6973 18.7648L14.2332 23.7058C13.4193 24.098 11.9853 24.098 11.1327 23.7058Z" fill="#FF6F3D"/>
<path fill-rule="evenodd" clip-rule="evenodd" d="M11.0988 17.5916L0.666506 12.6448C-0.222169 12.213 -0.222169 11.5456 0.666506 11.153L4.2212 9.46478L11.0988 12.7234C11.9874 13.1552 13.4171 13.1552 14.2671 12.7234L21.1447 9.46478L24.6993 11.153C25.588 11.5848 25.588 12.2522 24.6993 12.6448L14.2671 17.5916C13.3784 18.0234 11.9488 18.0234 11.0988 17.5916Z" fill="#95C038"/>
<path fill-rule="evenodd" clip-rule="evenodd" d="M11.0988 11.5408L0.666506 6.6652C-0.222169 6.23956 -0.222169 5.58174 0.666506 5.19479L11.0988 0.319233C11.9874 -0.106411 13.4171 -0.106411 14.2671 0.319233L24.6993 5.19479C25.588 5.62044 25.588 6.27825 24.6993 6.6652L14.2671 11.5408C13.3784 11.9277 11.9488 11.9277 11.0988 11.5408Z" fill="#5DC0E8"/>
<path d="M37.693 5.86664C34.674 5.86664 31.7073 7.64839 31.7073 12C31.7073 16.3515 34.674 18.1333 37.693 18.1333C40.712 18.1333 43.6787 16.3515 43.6787 12C43.6787 7.64839 40.712 5.86664 37.693 5.86664ZM37.693 7.57986C38.6179 7.57986 41.0611 7.93963 41.0611 12C41.0611 16.0603 38.6179 16.4201 37.693 16.4201C36.7681 16.4201 34.3249 16.0603 34.3249 12C34.3249 7.93963 36.7681 7.57986 37.693 7.57986Z" fill="white"/>
<path d="M45.692 6.0037V17.9962H48.1701V10.9378L48.1177 8.81338H48.1701L48.7809 10.1497L53.0389 17.9962H56.2499V6.0037H53.7719V13.0622L53.8242 15.1866H53.7719L53.1262 13.559L48.903 6.0037H45.692Z" fill="white"/>
<path d="M58.6951 6.0037V17.9962H66.0246V15.9746H61.1732V6.0037H58.6951Z" fill="white"/>
<path d="M63.9305 6.0037L68.4329 13.0964V17.9962H70.9109V13.1307L75.3086 6.0037H72.6909L70.1605 10.2182L69.7417 11.0406H69.6893L69.3054 10.2182L66.7924 6.0037H63.9305Z" fill="white"/>
<path d="M81.0822 5.86664C78.0631 5.86664 75.0964 7.64839 75.0964 12C75.0964 16.3515 78.0631 18.1333 81.0822 18.1333C84.1012 18.1333 87.0679 16.3515 87.0679 12C87.0679 7.64839 84.1012 5.86664 81.0822 5.86664ZM81.0822 7.57986C82.0071 7.57986 84.4502 7.93963 84.4502 12C84.4502 16.0603 82.0071 16.4201 81.0822 16.4201C80.1573 16.4201 77.7141 16.0603 77.7141 12C77.7141 7.93963 80.1573 7.57986 81.0822 7.57986Z" fill="white"/>
<path d="M89.0812 6.0037V17.9962H91.5592V12.908H95.7126V10.9378H91.5592V8.02529H95.922V6.0037H89.0812Z" fill="white"/>
<path d="M97.6704 6.0037V17.9962H100.148V12.908H104.302V10.9378H100.148V8.02529H104.511V6.0037H97.6704Z" fill="white"/>
<path d="M106.26 17.9962H108.738V6.0037H106.26V17.9962Z" fill="white"/>
<path d="M120.102 15.5806C119.492 15.8547 118.636 16.1117 117.554 16.1117C115.356 16.1117 113.366 14.9296 113.366 12.0342C113.366 9.58432 114.989 7.88824 117.729 7.88824C118.654 7.88824 119.439 8.05956 120.155 8.33367L120.259 6.27781C119.334 5.98656 118.514 5.86664 117.554 5.86664C113.715 5.86664 110.749 7.93963 110.749 12.0685C110.749 16.4372 114.064 18.1333 117.101 18.1333C118.078 18.1333 119.177 17.9791 120.259 17.6193L120.102 15.5806Z" fill="white"/>
<path d="M122.177 6.0037V17.9962H129.471V15.8718H124.655V12.8052H129.035V10.835H124.655V8.12809H129.471V6.0037H122.177Z" fill="white"/>
</svg>
