<svg width="224" height="120" viewBox="0 0 224 120" fill="none" xmlns="http://www.w3.org/2000/svg">
<path d="M86.0469 44.9936C86.0469 43.7308 86.0469 42.4679 86.0469 41.205C86.0469 40.7696 86.1704 40.6389 86.5822 40.6389C87.1999 40.6389 87.8176 40.6389 88.4352 40.6389C89.5882 40.6825 90.3706 41.5099 90.3706 42.7292C90.3706 44.2533 90.3706 45.7339 90.3706 47.2581C90.3706 48.4338 89.5882 49.2612 88.4764 49.3483C87.8176 49.3919 87.1175 49.3483 86.4587 49.3483C86.1704 49.3483 86.0469 49.1741 86.0469 48.8258C86.0469 47.5629 86.0469 46.2565 86.0469 44.9936ZM86.9528 48.4338C87.0763 48.4338 87.1999 48.4338 87.3234 48.4338C87.694 48.4338 88.0646 48.4338 88.4764 48.4338C89.0941 48.3903 89.5059 47.9548 89.5059 47.3016C89.5059 45.7775 89.5059 44.2969 89.5059 42.7727C89.5059 42.2066 89.2176 41.7711 88.7235 41.684C88.147 41.597 87.5705 41.597 86.9528 41.5534C86.9528 43.8614 86.9528 46.1258 86.9528 48.4338Z" fill="#FF030E"/>
<path d="M134.887 45.2984C134.434 45.2984 134.022 45.2984 133.61 45.2984C133.281 45.2984 133.116 45.0807 133.116 44.8194C133.116 44.5581 133.24 44.384 133.487 44.384C134.146 44.384 134.804 44.384 135.463 44.384C135.546 44.384 135.71 44.5581 135.71 44.6452C135.71 45.6468 135.793 46.692 135.669 47.6935C135.504 48.8693 134.64 49.479 133.528 49.4354C132.169 49.3483 131.428 48.5209 131.428 47.0839C131.428 45.6033 131.428 44.1662 131.428 42.6856C131.428 41.8147 131.757 41.1179 132.498 40.6825C133.569 40.1163 134.969 40.5083 135.463 41.5534C135.546 41.7276 135.587 41.9018 135.628 42.1195C135.669 42.3372 135.587 42.555 135.34 42.6421C135.134 42.7292 134.887 42.5985 134.804 42.3808C134.804 42.3372 134.763 42.3372 134.763 42.2937C134.598 41.3792 133.528 41.2486 132.91 41.5534C132.498 41.7711 132.292 42.1631 132.292 42.6421C132.292 43.1211 132.292 43.6001 132.292 44.0356C132.292 45.0372 132.292 46.0823 132.292 47.0839C132.292 47.5629 132.416 47.9984 132.828 48.2596C133.322 48.5209 133.816 48.5209 134.269 48.2596C134.599 48.0419 134.763 47.6935 134.804 47.3016C134.887 46.6484 134.887 45.9952 134.887 45.2984Z" fill="#FF030E"/>
<path d="M179.358 48.9563C178.7 49.5659 177.67 49.6095 176.97 49.0869C176.311 48.6079 176.064 47.6063 176.352 46.7789C176.599 46.0386 177.217 45.6032 178.041 45.5596C178.494 45.5596 178.905 45.5596 179.358 45.5596C179.564 44.8193 179.276 44.1226 178.7 43.9919C177.958 43.7742 177.341 44.1226 177.217 44.8629C177.176 45.1677 176.97 45.2983 176.723 45.2548C176.476 45.2112 176.352 44.9935 176.394 44.6887C176.435 43.8613 177.094 43.1645 177.917 43.0339C178.823 42.8597 179.605 43.2081 180.017 43.9048C180.223 44.2968 180.347 44.6887 180.347 45.1241C180.347 46.387 180.347 47.6063 180.347 48.8692C180.347 49.2176 180.223 49.3918 180.017 49.4353C179.688 49.3918 179.482 49.2611 179.358 48.9563ZM179.358 46.4306C178.864 46.4306 178.411 46.387 177.999 46.4306C177.341 46.5177 176.97 47.0838 177.135 47.6934C177.299 48.2595 177.835 48.5644 178.494 48.4337C179.029 48.3466 179.358 47.9983 179.358 47.3886C179.358 47.1273 179.358 46.7789 179.358 46.4306Z" fill="#FF030E"/>
<path d="M118.411 43.3389C119.07 42.8164 119.728 42.8164 120.387 43.0777C121.087 43.3825 121.417 43.9922 121.458 44.7325C121.499 46.126 121.499 47.4759 121.499 48.8694C121.499 49.1307 121.293 49.3484 121.046 49.3049C120.799 49.3049 120.634 49.0872 120.634 48.7823C120.634 47.6066 120.634 46.4308 120.634 45.255C120.634 45.0808 120.634 44.8631 120.593 44.6889C120.47 44.1228 120.058 43.818 119.522 43.818C118.905 43.8615 118.534 44.2099 118.452 44.8195C118.452 44.9502 118.452 45.1244 118.452 45.255C118.452 46.3872 118.452 47.563 118.452 48.6952C118.452 48.8694 118.411 49.0872 118.287 49.1743C118.164 49.2613 117.958 49.3049 117.793 49.2613C117.587 49.2178 117.546 49.0001 117.546 48.7823C117.546 47.4324 117.546 46.0824 117.546 44.7325C117.546 43.4696 117.546 42.2067 117.546 40.9439C117.546 40.639 117.669 40.4648 117.917 40.4648C118.205 40.4648 118.369 40.5955 118.411 40.9003C118.411 40.9874 118.411 41.0745 118.411 41.118C118.411 41.7277 118.411 42.3374 118.411 42.947C118.411 43.1212 118.411 43.2083 118.411 43.3389Z" fill="#FF030E"/>
<path d="M171.453 43.3831C171.865 42.9912 172.276 42.9041 172.771 42.9477C173.841 43.0347 174.541 43.775 174.541 44.9073C174.582 46.2137 174.541 47.5636 174.541 48.87C174.541 49.1749 174.335 49.3491 174.088 49.3491C173.8 49.3491 173.635 49.1749 173.635 48.8265C173.635 47.6507 173.635 46.475 173.635 45.3427C173.635 45.2121 173.635 45.125 173.635 44.9944C173.553 44.1234 172.976 43.6879 172.194 43.9057C171.782 44.0363 171.494 44.4283 171.453 44.9508C171.412 45.4298 171.453 45.9524 171.453 46.4314C171.453 47.2153 171.453 47.9991 171.453 48.8265C171.453 49.1313 171.288 49.3491 171.041 49.3491C170.794 49.3926 170.588 49.2184 170.547 48.9136C170.547 48.87 170.547 48.8265 170.547 48.8265C170.547 46.2137 170.547 43.6444 170.547 41.0316C170.547 40.5961 170.835 40.3784 171.165 40.5526C171.37 40.6832 171.453 40.8574 171.453 41.1187C171.453 41.7719 171.453 42.3815 171.453 43.0347C171.453 43.1654 171.453 43.2089 171.453 43.3831Z" fill="#FF030E"/>
<path d="M92.8397 46.7358C92.8397 47.0406 92.8397 47.3455 92.8809 47.6503C93.0044 48.1729 93.375 48.4777 93.9103 48.5212C94.4456 48.5212 94.8574 48.26 95.0221 47.7374C95.1045 47.4326 95.3104 47.3019 95.5575 47.389C95.7634 47.4326 95.8869 47.6938 95.8457 47.9987C95.681 48.9132 94.8986 49.5664 93.9103 49.5228C92.6338 49.4793 91.9338 48.6954 91.8926 47.3455C91.8926 46.6052 91.8926 45.9084 91.8926 45.1681C91.8926 44.3843 92.1396 43.644 92.8809 43.2956C93.6221 42.9037 94.3633 42.9037 95.1045 43.3827C95.7222 43.7746 96.0104 44.5585 95.8869 45.3423C95.7634 46.1261 95.228 46.6923 94.4868 46.8229C94.2809 46.8665 94.0339 46.8664 93.828 46.8664C93.5397 46.7358 93.2103 46.7358 92.8397 46.7358ZM92.7985 45.7778C93.2103 45.7778 93.5809 45.7778 93.9103 45.7778C93.9927 45.7778 94.1162 45.7778 94.1986 45.7778C94.6927 45.7342 95.0221 45.4294 95.0633 44.9939C95.1045 44.4714 94.8574 44.0794 94.4045 43.9488C93.7868 43.7746 93.1691 43.9923 93.0044 44.5149C92.8809 44.9068 92.8809 45.3423 92.7985 45.7778Z" fill="#FF030E"/>
<path d="M124.26 46.7351C124.26 47.0835 124.26 47.3448 124.301 47.6496C124.425 48.1722 124.795 48.477 125.331 48.5206C125.866 48.5206 126.278 48.2593 126.443 47.7367C126.484 47.5625 126.566 47.3884 126.772 47.3448C127.101 47.3013 127.349 47.5625 127.266 47.9545C127.143 48.7383 126.566 49.348 125.784 49.4351C125.413 49.4786 125.001 49.4786 124.631 49.348C123.889 49.1302 123.437 48.5641 123.395 47.7367C123.313 46.7351 123.272 45.69 123.395 44.6884C123.519 43.4256 124.466 42.8159 125.701 42.9466C126.896 43.1207 127.554 44.0788 127.307 45.2981C127.143 46.1255 126.443 46.7351 125.495 46.7351C125.125 46.7351 124.713 46.7351 124.26 46.7351ZM124.219 45.7771C124.754 45.7771 125.248 45.8207 125.701 45.7771C126.154 45.7336 126.443 45.4287 126.484 44.9933C126.525 44.4707 126.278 44.0788 125.784 43.9481C125.166 43.7739 124.548 43.9917 124.384 44.5578C124.26 44.9062 124.26 45.3416 124.219 45.7771Z" fill="#FF030E"/>
<path d="M138.222 46.7356C138.263 47.0839 138.263 47.4323 138.304 47.6936C138.428 48.2162 138.839 48.4774 139.334 48.4774C139.869 48.4774 140.239 48.1726 140.404 47.6936C140.445 47.5194 140.528 47.3452 140.734 47.3017C141.063 47.2581 141.31 47.5194 141.269 47.8678C141.145 48.6516 140.569 49.2613 139.828 49.3484C139.457 49.3919 139.045 49.3919 138.675 49.2613C137.933 49.0436 137.48 48.4339 137.439 47.6501C137.357 46.6485 137.316 45.6033 137.439 44.6018C137.604 43.3389 138.51 42.7292 139.704 42.8599C140.898 43.0341 141.557 43.9921 141.351 45.2114C141.187 46.0388 140.487 46.6049 139.581 46.6485C139.128 46.7356 138.716 46.7356 138.222 46.7356ZM138.222 45.7775C138.757 45.7775 139.251 45.8211 139.704 45.7775C140.157 45.734 140.404 45.4292 140.445 44.9937C140.487 44.4711 140.239 44.0792 139.786 43.9486C139.169 43.7744 138.551 43.9921 138.386 44.5147C138.263 44.9066 138.263 45.3421 138.222 45.7775Z" fill="#FF030E"/>
<path d="M148.886 46.7365C148.927 47.0849 148.927 47.4333 149.01 47.7381C149.133 48.2171 149.504 48.4784 150.039 48.4784C150.575 48.4784 150.986 48.2171 151.11 47.7381C151.151 47.5639 151.233 47.3462 151.439 47.3462C151.769 47.3026 152.016 47.5639 151.933 47.9558C151.81 48.7397 151.233 49.3493 150.451 49.4364C150.08 49.48 149.669 49.48 149.298 49.3493C148.598 49.1752 148.145 48.6526 148.063 47.9123C147.98 46.8672 147.939 45.7785 148.021 44.6898C148.145 43.4269 149.051 42.7737 150.286 42.9479C151.48 43.1221 152.139 44.0802 151.892 45.2995C151.728 46.1269 151.027 46.693 150.122 46.7365C149.751 46.7365 149.339 46.7365 148.886 46.7365ZM148.845 45.7785C149.38 45.7785 149.792 45.7785 150.245 45.7785C150.739 45.7349 151.069 45.4301 151.11 44.9946C151.151 44.4721 150.904 44.0802 150.451 43.9495C149.833 43.7753 149.216 43.9931 149.051 44.5156C148.927 44.9075 148.927 45.343 148.845 45.7785Z" fill="#FF030E"/>
<path d="M108.816 42.947C109.928 42.947 110.669 43.4696 110.875 44.297C110.957 44.6454 110.875 44.9066 110.586 44.9937C110.339 45.0373 110.133 44.9502 110.051 44.6889C109.845 43.8615 108.898 43.7309 108.28 44.1228C107.992 44.297 107.869 44.5583 107.869 44.9066C107.869 45.2115 108.116 45.3857 108.322 45.4727C108.61 45.5598 108.898 45.6469 109.145 45.734C109.351 45.8211 109.598 45.8647 109.804 45.9518C110.875 46.4308 111.204 47.5195 110.586 48.5646C109.886 49.7404 107.992 49.7839 107.251 48.6517C107.127 48.4775 107.086 48.3033 107.004 48.0856C106.922 47.8243 107.004 47.6066 107.21 47.5195C107.457 47.4324 107.704 47.5195 107.827 47.7372C107.869 47.8243 107.869 47.8678 107.91 47.9549C108.075 48.3469 108.569 48.6081 109.022 48.521C109.516 48.4775 109.804 48.2162 109.886 47.7372C109.969 47.3888 109.845 47.1275 109.557 46.9533C109.351 46.8227 109.104 46.7356 108.857 46.6485C108.528 46.5179 108.157 46.4308 107.827 46.2566C107.251 46.0389 106.922 45.6034 106.88 44.9502C106.839 44.2534 107.086 43.7309 107.622 43.3389C108.116 43.0341 108.569 42.947 108.816 42.947Z" fill="#FF030E"/>
<path d="M144.56 49.4352C143.572 49.4352 142.913 48.9562 142.707 48.0853C142.625 47.7804 142.707 47.5627 142.913 47.4756C143.202 47.3885 143.449 47.4756 143.531 47.7804C143.737 48.4772 144.643 48.6514 145.178 48.3465C145.755 47.9982 145.796 47.2143 145.219 46.866C144.972 46.7353 144.684 46.6482 144.396 46.5176C144.107 46.4305 143.819 46.3434 143.531 46.2127C142.584 45.7773 142.296 44.6015 142.913 43.7306C143.407 43.0338 144.107 42.8596 144.89 42.9467C145.59 43.0338 146.084 43.3822 146.413 44.0789C146.455 44.2096 146.496 44.3402 146.537 44.4709C146.578 44.7321 146.496 44.9063 146.249 44.9499C146.043 45.037 145.837 44.9499 145.713 44.7321C145.713 44.6886 145.672 44.6886 145.672 44.6451C145.508 43.8612 144.602 43.687 143.984 44.0354C143.737 44.166 143.572 44.3838 143.531 44.6886C143.49 44.9934 143.613 45.2547 143.86 45.3418C144.19 45.4724 144.519 45.5595 144.849 45.6902C145.137 45.8208 145.466 45.9079 145.755 46.0386C146.413 46.3869 146.702 47.0837 146.537 47.8675C146.29 48.8256 145.549 49.4352 144.56 49.4352Z" fill="#FF030E"/>
<path d="M161.898 42.947C163.01 42.947 163.752 43.4696 163.957 44.297C164.04 44.6889 163.957 44.9066 163.628 44.9937C163.381 45.0373 163.175 44.9066 163.134 44.6454C162.928 43.818 161.981 43.6873 161.363 44.0792C161.075 44.2534 160.951 44.5147 160.993 44.8631C160.993 45.1679 161.24 45.3421 161.446 45.4292C161.734 45.5163 162.022 45.6034 162.269 45.6905C162.599 45.8211 162.928 45.9082 163.216 46.0824C163.875 46.4308 164.163 47.1275 163.957 47.9114C163.71 49.0436 162.681 49.6533 161.528 49.4355C160.828 49.3049 160.334 48.8694 160.128 48.1291C160.045 47.8243 160.128 47.6066 160.334 47.5195C160.581 47.4324 160.869 47.5195 160.951 47.7807C161.116 48.3904 161.775 48.6081 162.31 48.4775C162.722 48.3904 163.01 48.0856 163.051 47.6501C163.093 47.3017 162.887 46.9969 162.516 46.8227C162.146 46.6485 161.775 46.5614 161.404 46.4308C161.281 46.3872 161.116 46.3001 160.993 46.2566C160.416 45.9953 160.087 45.6034 160.045 44.9502C160.004 44.2534 160.251 43.7309 160.787 43.3389C161.198 43.0341 161.61 42.947 161.898 42.947Z" fill="#FF030E"/>
<path d="M100.58 49.0446C99.5503 49.9155 97.9855 49.3929 97.5737 48.0865C97.4914 47.8688 97.4502 47.6075 97.4502 47.3898C97.4502 46.1269 97.4502 44.864 97.4502 43.6447C97.4502 43.427 97.4914 43.2093 97.6973 43.1222C97.8208 43.0786 98.0679 43.0786 98.1502 43.1657C98.2738 43.2963 98.3149 43.5141 98.3149 43.6883C98.3149 44.864 98.3149 46.0398 98.3149 47.2591C98.3149 47.3898 98.3149 47.564 98.3561 47.6946C98.4797 48.2607 98.8914 48.522 99.4679 48.522C100.003 48.4784 100.415 48.1301 100.497 47.6075C100.497 47.4769 100.539 47.3462 100.539 47.2156C100.539 46.0834 100.539 44.9076 100.539 43.7754C100.539 43.6883 100.539 43.5576 100.539 43.4705C100.58 43.2093 100.744 43.1222 100.95 43.0786C101.197 43.0786 101.321 43.2093 101.362 43.427C101.403 43.5141 101.362 43.6447 101.362 43.7318C101.362 45.3866 101.362 47.0414 101.362 48.6962C101.362 48.7833 101.362 48.8704 101.362 48.9575C101.321 49.2187 101.197 49.3929 100.992 49.4365C100.827 49.4365 100.662 49.3494 100.58 49.0446Z" fill="#FF030E"/>
<path d="M112.361 46.169C112.361 45.6464 112.32 45.1674 112.361 44.6448C112.526 43.4255 113.391 42.7723 114.585 42.9029C115.202 42.99 115.738 43.2078 116.026 43.8174C116.108 43.9481 116.15 44.0787 116.191 44.2529C116.273 44.5577 116.15 44.7319 115.944 44.819C115.697 44.9061 115.491 44.819 115.367 44.5577C115.12 44.0352 114.708 43.8174 114.132 43.9045C113.596 43.9916 113.267 44.34 113.267 44.9061C113.267 45.7335 113.226 46.6044 113.267 47.4318C113.267 47.9979 113.638 48.3899 114.214 48.4334C114.791 48.5205 115.202 48.2592 115.408 47.7367C115.449 47.5625 115.573 47.3883 115.738 47.3447C116.026 47.2141 116.314 47.4754 116.273 47.8237C116.191 48.477 115.861 48.956 115.326 49.2173C113.885 49.9576 112.361 48.956 112.361 47.2576C112.361 46.9093 112.361 46.5609 112.361 46.169Z" fill="#FF030E"/>
<path d="M166.304 46.1697C166.304 46.5616 166.304 46.9536 166.304 47.389C166.304 47.9987 166.633 48.3906 167.168 48.4777C167.786 48.5648 168.198 48.3471 168.445 47.7374C168.486 47.6068 168.61 47.4326 168.733 47.3455C169.021 47.2148 169.31 47.4761 169.268 47.8245C169.186 48.4777 168.857 48.9567 168.321 49.218C166.88 49.9583 165.356 48.9567 165.356 47.2584C165.356 46.5181 165.356 45.8213 165.356 45.081C165.356 43.3827 166.798 42.4247 168.239 43.0779C168.733 43.2956 169.104 43.6875 169.186 44.2972C169.268 44.6891 168.939 44.9504 168.61 44.7762C168.486 44.7327 168.404 44.602 168.362 44.5149C168.074 43.9488 167.621 43.7311 167.004 43.9053C166.509 44.0359 166.262 44.4278 166.221 45.0375C166.304 45.4294 166.304 45.8213 166.304 46.1697Z" fill="#FF030E"/>
<path d="M183.477 44.0357C183.477 44.2534 183.477 44.4712 183.477 44.6454C183.477 45.9953 183.477 47.3888 183.477 48.7388C183.477 49.1307 183.313 49.3484 183.024 49.3484C182.736 49.3484 182.571 49.1307 182.571 48.7388C182.571 47.2582 182.571 45.8211 182.571 44.3405C182.571 44.2534 182.571 44.1663 182.571 44.0357C182.242 43.9922 181.83 44.0792 181.789 43.5567C181.789 43.0341 182.201 43.1212 182.53 43.0777C182.53 42.6857 182.53 42.3374 182.571 41.989C182.695 41.1616 183.23 40.639 184.013 40.5084C184.219 40.4648 184.424 40.4648 184.63 40.4648C184.919 40.4648 185.083 40.6826 185.083 40.9439C185.083 41.2487 184.919 41.4229 184.63 41.4229C183.724 41.3793 183.436 41.7713 183.477 42.6857C183.477 42.7728 183.477 42.9035 183.477 43.0341C183.683 43.0341 183.889 43.0341 184.095 43.0341C184.383 43.0341 184.548 43.2083 184.548 43.4696C184.548 43.7309 184.383 43.9486 184.095 43.9486C183.889 44.0357 183.683 44.0357 183.477 44.0357Z" fill="#FF030E"/>
<path d="M103.589 44.08C103.218 43.993 102.683 44.1671 102.683 43.5575C102.683 42.9478 103.218 43.122 103.547 43.0785C103.547 42.9914 103.547 42.9043 103.547 42.8172C103.547 42.2511 103.547 41.6414 103.547 41.0753C103.547 40.7269 103.671 40.5527 103.959 40.5527C104.247 40.5527 104.412 40.7269 104.412 41.1188C104.412 41.7721 104.412 42.4253 104.412 43.122C104.618 43.122 104.783 43.122 104.947 43.122C105.277 43.122 105.442 43.2962 105.483 43.5575C105.483 43.8623 105.277 44.0365 104.989 44.0365C104.824 44.0365 104.659 44.0365 104.453 44.0365C104.453 44.1671 104.453 44.2542 104.453 44.3413C104.453 45.2994 104.453 46.2574 104.453 47.2154C104.453 47.9122 104.7 48.2606 105.318 48.4783C105.606 48.5654 105.73 48.7396 105.689 49.0009C105.647 49.2621 105.483 49.3928 105.153 49.3928C104.536 49.3492 104.083 49.0009 103.794 48.4348C103.63 48.0864 103.547 47.6944 103.547 47.3025C103.506 46.3009 103.547 45.3429 103.547 44.3413C103.589 44.2978 103.589 44.1671 103.589 44.08Z" fill="#FF030E"/>
<path d="M186.565 44.08C186.195 43.993 185.618 44.1671 185.659 43.5139C185.7 42.9478 186.195 43.122 186.524 43.0785C186.524 42.9914 186.524 42.9043 186.524 42.8172C186.524 42.2511 186.524 41.6414 186.524 41.0753C186.524 40.7269 186.648 40.5527 186.936 40.5527C187.224 40.5527 187.389 40.7269 187.389 41.1188C187.389 41.7721 187.389 42.4253 187.389 43.122C187.595 43.122 187.759 43.122 187.924 43.122C188.254 43.122 188.418 43.2962 188.459 43.5575C188.459 43.8623 188.254 44.0365 187.965 44.0365C187.801 44.0365 187.636 44.0365 187.43 44.0365C187.43 44.1671 187.43 44.2542 187.43 44.3413C187.43 45.2994 187.43 46.2574 187.43 47.2154C187.43 47.9122 187.677 48.2606 188.295 48.4783C188.583 48.5654 188.707 48.7396 188.665 49.0009C188.624 49.2621 188.459 49.3928 188.171 49.3928C187.554 49.3492 187.101 49.0009 186.812 48.4348C186.648 48.0864 186.565 47.6944 186.565 47.3025C186.524 46.3009 186.565 45.3429 186.565 44.3413C186.565 44.2978 186.565 44.1671 186.565 44.08Z" fill="#FF030E"/>
<path d="M153.701 44.2542C153.701 43.2091 153.701 42.164 153.701 41.1188C153.701 40.7269 153.825 40.5527 154.113 40.5527C154.401 40.5527 154.607 40.7269 154.607 41.1188C154.607 43.122 154.607 45.1687 154.607 47.1719C154.607 47.8686 154.896 48.3912 155.472 48.5218C155.76 48.5654 155.884 48.8267 155.801 49.088C155.76 49.3492 155.472 49.4799 155.184 49.4363C154.484 49.2621 153.99 48.8267 153.784 48.0864C153.701 47.738 153.66 47.3896 153.66 47.0412C153.701 46.1268 153.701 45.1687 153.701 44.2542Z" fill="#FF030E"/>
<path d="M156.998 44.2542C156.998 43.2091 156.998 42.164 156.998 41.1188C156.998 40.7269 157.122 40.5527 157.41 40.5527C157.698 40.5527 157.863 40.7269 157.863 41.1188C157.863 43.122 157.863 45.1687 157.863 47.1719C157.863 47.8251 158.11 48.3912 158.728 48.5218C159.016 48.5654 159.14 48.8267 159.057 49.088C159.016 49.3492 158.728 49.4799 158.44 49.4363C157.74 49.2621 157.245 48.8267 157.04 48.0864C156.957 47.738 156.916 47.3896 156.916 47.0412C156.998 46.0832 156.998 45.1687 156.998 44.2542Z" fill="#FF030E"/>
<path d="M134.021 58.7537C134.021 58.4924 134.062 58.2747 134.021 58.0134C133.938 57.4473 133.609 57.1424 133.033 57.0989C132.456 57.0554 132.044 57.3602 131.88 57.8827C131.88 57.9698 131.838 58.0134 131.838 58.1005C131.756 58.3182 131.591 58.4053 131.385 58.4053C131.179 58.4053 131.015 58.2311 131.015 58.0134C131.015 57.7521 131.056 57.4473 131.179 57.2295C131.55 56.4457 132.168 56.1409 132.95 56.1409C134.186 56.1409 134.968 56.9683 134.968 58.2747C134.968 59.494 134.968 60.7133 134.968 61.9762C134.968 62.3245 134.886 62.4987 134.638 62.5858C134.391 62.6729 134.186 62.5423 134.021 62.1939C133.444 62.76 132.785 62.76 132.085 62.5423C131.303 62.281 130.809 61.4536 130.85 60.5827C130.932 59.6246 131.468 58.9714 132.332 58.7972C132.58 58.7537 132.868 58.7537 133.115 58.7537C133.444 58.7537 133.733 58.7537 134.021 58.7537ZM134.021 59.6682C133.527 59.7117 132.991 59.6682 132.497 59.7553C132.003 59.8424 131.756 60.2343 131.756 60.7133C131.756 61.1923 132.044 61.6278 132.497 61.7149C132.744 61.7584 132.991 61.7584 133.238 61.7149C133.691 61.6278 133.98 61.3665 134.021 60.8875C134.062 60.4956 134.021 60.1036 134.021 59.6682Z" fill="#FF030E"/>
<path d="M158.109 58.7534C158.109 58.4921 158.15 58.2743 158.109 58.0566C158.027 57.4905 157.697 57.1857 157.121 57.1421C156.544 57.0986 156.132 57.4034 155.968 57.926C155.926 58.0131 155.926 58.1002 155.926 58.1437C155.844 58.3614 155.679 58.4485 155.473 58.4485C155.268 58.4485 155.103 58.3179 155.103 58.1002C155.103 57.8389 155.144 57.534 155.226 57.2728C155.597 56.4889 156.256 56.1841 157.038 56.1841C158.274 56.2276 159.015 57.0115 159.015 58.3179C159.015 59.5808 159.015 60.8001 159.015 62.0629C159.015 62.4984 158.644 62.7597 158.315 62.542C158.232 62.4984 158.15 62.3678 158.068 62.2371C157.45 62.8468 156.709 62.8032 155.968 62.4984C155.268 62.1936 154.856 61.3226 154.938 60.4952C155.062 59.5808 155.556 58.9711 156.379 58.8405C156.626 58.7969 156.915 58.7969 157.162 58.7969C157.491 58.7534 157.779 58.7534 158.109 58.7534ZM158.109 59.7114C157.615 59.7114 157.162 59.6678 156.75 59.7114C156.297 59.7549 156.009 59.9727 155.885 60.4517C155.803 60.8436 155.926 61.2791 156.256 61.4968C156.544 61.7146 156.915 61.7581 157.285 61.7146C157.821 61.6275 158.15 61.2791 158.15 60.6694C158.15 60.3646 158.109 60.0598 158.109 59.7114Z" fill="#FF030E"/>
<path d="M116.396 60.0172C116.437 60.3656 116.396 60.6704 116.478 60.9752C116.602 61.4978 116.972 61.7591 117.508 61.7591C118.043 61.7591 118.455 61.4978 118.578 60.9752C118.619 60.801 118.702 60.6269 118.908 60.5833C119.237 60.5398 119.484 60.801 119.402 61.193C119.278 61.9768 118.702 62.5865 117.919 62.6736C117.549 62.7171 117.137 62.7171 116.766 62.5865C115.984 62.3687 115.572 61.7591 115.531 60.9752C115.449 59.9301 115.449 58.8414 115.572 57.7963C115.655 56.7947 116.396 56.2721 117.466 56.2286C118.372 56.1851 119.155 56.7076 119.402 57.535C119.772 58.8414 118.99 59.9736 117.672 60.0607C117.261 60.0172 116.849 60.0172 116.396 60.0172ZM116.396 59.0592C116.931 59.0592 117.384 59.1027 117.837 59.0592C118.166 59.0156 118.455 58.8414 118.578 58.493C118.702 58.1447 118.661 57.7963 118.414 57.535C117.919 56.9254 116.725 57.1431 116.519 57.9269C116.396 58.2318 116.396 58.6237 116.396 59.0592Z" fill="#FF030E"/>
<path d="M165.111 60.0171C165.111 60.3655 165.111 60.6268 165.152 60.9316C165.275 61.4542 165.646 61.759 166.181 61.8026C166.717 61.8026 167.128 61.5413 167.293 61.0187C167.334 60.8445 167.417 60.6703 167.623 60.6268C167.952 60.5832 168.199 60.8445 168.117 61.2364C167.993 62.0203 167.417 62.6299 166.634 62.717C166.264 62.7606 165.852 62.7606 165.481 62.6299C164.74 62.4122 164.287 61.8461 164.246 61.0187C164.164 60.0171 164.122 58.972 164.246 57.9704C164.369 56.7075 165.317 56.0979 166.511 56.2285C167.705 56.4027 168.405 57.3608 168.158 58.6236C167.993 59.451 167.293 60.0171 166.387 60.0607C165.975 60.0171 165.564 60.0171 165.111 60.0171ZM165.07 59.0591C165.605 59.0591 166.017 59.0591 166.47 59.0591C166.964 59.0155 167.293 58.7107 167.334 58.2752C167.376 57.7527 167.128 57.3608 166.675 57.2301C166.058 57.0559 165.44 57.2737 165.275 57.7962C165.152 58.1446 165.152 58.5801 165.07 59.0591Z" fill="#FF030E"/>
<path d="M143.654 59.4072C143.695 58.8846 143.654 58.3621 143.737 57.8395C143.943 56.7073 144.684 56.1412 145.754 56.1847C146.907 56.2283 147.649 56.9686 147.69 58.2314C147.731 59.0588 147.731 59.8427 147.69 60.6701C147.649 62.4119 145.919 63.3264 144.56 62.4119C143.984 62.02 143.737 61.4539 143.695 60.7571C143.654 60.3217 143.695 59.8427 143.654 59.4072ZM146.784 59.4507C146.784 59.0588 146.784 58.6669 146.784 58.2314C146.784 58.1879 146.784 58.1443 146.784 58.0572C146.702 57.4476 146.29 57.0992 145.713 57.0992C145.096 57.0992 144.643 57.4911 144.643 58.1008C144.601 58.9717 144.601 59.8427 144.643 60.7571C144.643 61.1926 144.931 61.541 145.343 61.6716C146.166 61.9329 146.825 61.4539 146.825 60.5394C146.784 60.191 146.784 59.8427 146.784 59.4507Z" fill="#FF030E"/>
<path d="M106.675 56.6204C107.128 56.185 107.664 56.0979 108.24 56.2285C109.146 56.4027 109.764 57.143 109.764 58.1881C109.805 59.4945 109.764 60.801 109.764 62.1074C109.764 62.4122 109.599 62.6299 109.352 62.6299C109.064 62.6299 108.899 62.4557 108.899 62.1074C108.899 60.888 108.899 59.6252 108.899 58.4059C108.899 57.4914 108.322 57.0124 107.499 57.1866C107.005 57.3172 106.716 57.7091 106.716 58.2752C106.716 58.8849 106.716 59.4945 106.716 60.1042C106.716 60.7139 106.716 61.3671 106.716 61.9767C106.716 62.0638 106.716 62.1945 106.675 62.2816C106.634 62.4993 106.428 62.6735 106.222 62.6299C105.975 62.6299 105.852 62.4557 105.811 62.238C105.811 62.1509 105.811 62.1074 105.811 62.0203C105.811 60.3219 105.811 58.6236 105.811 56.9253C105.811 56.664 105.852 56.4463 106.14 56.3592C106.305 56.2721 106.511 56.3592 106.675 56.6204Z" fill="#FF030E"/>
<path d="M126.276 56.6204C126.729 56.185 127.264 56.0979 127.841 56.2285C128.747 56.4027 129.364 57.143 129.364 58.1881C129.405 59.4945 129.364 60.801 129.364 62.1074C129.364 62.4122 129.2 62.6299 128.952 62.6299C128.664 62.6299 128.5 62.4557 128.5 62.1074C128.5 60.888 128.5 59.6252 128.5 58.4059C128.5 57.4914 127.923 57.0124 127.099 57.1866C126.605 57.3172 126.317 57.7091 126.317 58.2752C126.317 58.8849 126.317 59.4945 126.317 60.1042C126.317 60.7139 126.317 61.3671 126.317 61.9767C126.317 62.0638 126.317 62.1945 126.276 62.2816C126.235 62.4993 126.029 62.6735 125.823 62.6299C125.576 62.6299 125.452 62.4557 125.411 62.238C125.411 62.1509 125.411 62.1074 125.411 62.0203C125.411 60.3219 125.411 58.6236 125.411 56.9253C125.411 56.664 125.452 56.4463 125.741 56.3592C125.905 56.2721 126.111 56.3592 126.276 56.6204Z" fill="#FF030E"/>
<path d="M150.366 56.6202C150.984 56.0541 151.684 56.0976 152.384 56.4024C153.084 56.7073 153.413 57.3605 153.454 58.1443C153.495 59.4943 153.454 60.8442 153.454 62.1942C153.454 62.499 153.248 62.6732 153.001 62.6732C152.713 62.6732 152.548 62.499 152.548 62.1507C152.548 60.9313 152.548 59.712 152.548 58.4927C152.548 58.3185 152.548 58.1443 152.507 58.0137C152.342 57.4476 151.89 57.1427 151.313 57.2298C150.695 57.3169 150.366 57.7089 150.366 58.3621C150.366 59.5814 150.366 60.8007 150.366 62.02C150.366 62.1071 150.366 62.2377 150.366 62.3248C150.325 62.5861 150.119 62.7603 149.872 62.7168C149.666 62.7168 149.501 62.5426 149.46 62.2813C149.46 62.2377 149.46 62.1942 149.46 62.1942C149.46 60.4523 149.46 58.7104 149.46 56.9686C149.46 56.5331 149.789 56.3153 150.16 56.4895C150.201 56.446 150.284 56.5331 150.366 56.6202Z" fill="#FF030E"/>
<path d="M112.809 56.3591C113.056 56.3591 113.221 56.3591 113.426 56.3591C113.715 56.3591 113.879 56.5333 113.879 56.7945C113.879 57.0558 113.715 57.2736 113.468 57.2736C113.262 57.3171 113.056 57.2736 112.85 57.2736C112.85 57.3607 112.809 57.3607 112.809 57.4042C112.809 58.4929 112.809 59.538 112.809 60.6267C112.809 61.1928 113.097 61.5847 113.632 61.7589C113.962 61.846 114.085 62.0202 114.044 62.2815C114.003 62.5427 113.797 62.6734 113.509 62.6734C112.85 62.6298 112.397 62.1944 112.15 61.6283C112.026 61.3234 111.944 60.9315 111.944 60.5831C111.903 59.6251 111.944 58.6235 111.944 57.6655C111.944 57.5784 111.944 57.4913 111.944 57.3171C111.779 57.3171 111.656 57.3171 111.532 57.3171C111.203 57.3171 111.038 57.1429 111.038 56.8381C111.038 56.5768 111.203 56.3591 111.532 56.3591C111.656 56.3591 111.779 56.3591 111.944 56.3591C111.944 56.2284 111.944 56.1413 111.944 56.0542C111.944 55.4881 111.944 54.8785 111.944 54.3124C111.944 53.964 112.109 53.7898 112.356 53.7898C112.644 53.7898 112.809 53.964 112.809 54.3124C112.809 54.8785 112.809 55.4881 112.809 56.0542C112.809 56.1413 112.809 56.2284 112.809 56.3591Z" fill="#FF030E"/>
<path d="M137.272 57.3171C137.107 57.3171 136.943 57.3171 136.819 57.3171C136.531 57.2736 136.366 57.0994 136.366 56.8381C136.366 56.5768 136.531 56.4026 136.86 56.3591C136.984 56.3591 137.107 56.3591 137.272 56.3591C137.272 55.9236 137.272 55.4881 137.272 55.0962C137.272 54.8349 137.272 54.5301 137.272 54.2688C137.272 53.964 137.437 53.7898 137.725 53.7898C137.972 53.7898 138.178 53.964 138.178 54.2688C138.178 54.8785 138.178 55.5317 138.178 56.1413C138.178 56.2284 138.178 56.272 138.219 56.3591C138.425 56.3591 138.59 56.3591 138.755 56.3591C139.043 56.3591 139.249 56.5333 139.249 56.7945C139.249 57.0558 139.084 57.2736 138.755 57.3171C138.59 57.3171 138.384 57.3171 138.178 57.3171C138.178 57.4477 138.178 57.5348 138.178 57.6219C138.178 58.58 138.178 59.5816 138.178 60.5396C138.178 61.2363 138.425 61.5847 139.043 61.8025C139.331 61.8895 139.455 62.0637 139.413 62.325C139.372 62.5863 139.208 62.7605 138.919 62.7169C138.26 62.6734 137.807 62.2815 137.519 61.6718C137.355 61.367 137.313 60.9751 137.272 60.5831C137.231 59.6251 137.272 58.6235 137.272 57.6655C137.272 57.5348 137.272 57.4477 137.272 57.3171Z" fill="#FF030E"/>
<path d="M160.95 57.4913C160.95 56.4462 160.95 55.401 160.95 54.3559C160.95 53.964 161.074 53.7898 161.362 53.7898C161.65 53.7898 161.856 53.964 161.856 54.3559C161.856 56.3591 161.856 58.4058 161.856 60.4089C161.856 61.1057 162.145 61.6283 162.721 61.7589C163.009 61.8025 163.133 62.0637 163.05 62.325C163.009 62.5863 162.721 62.7169 162.433 62.6734C161.733 62.4992 161.239 62.0637 161.033 61.2799C160.95 60.9315 160.909 60.5831 160.909 60.2348C160.95 59.3638 160.95 58.4493 160.95 57.4913Z" fill="#FF030E"/>
<path d="M102.764 58.2307C102.764 56.9678 102.764 55.705 102.764 54.3985C102.764 54.0066 102.929 53.876 103.258 53.876C103.505 53.876 103.629 54.0066 103.67 54.2679C103.67 54.355 103.67 54.4421 103.67 54.5727C103.67 57.0114 103.67 59.45 103.67 61.8886C103.67 62.0193 103.67 62.1064 103.629 62.237C103.587 62.4983 103.382 62.6289 103.134 62.6289C102.887 62.6289 102.764 62.4547 102.723 62.1935C102.723 61.8451 102.723 61.4967 102.723 61.1048C102.764 60.1467 102.764 59.1887 102.764 58.2307Z" fill="#FF030E"/>
<path d="M122.203 56.7937C122.574 56.4454 122.985 56.2276 123.48 56.1841C123.603 56.1841 123.727 56.1841 123.85 56.2276C124.056 56.2712 124.18 56.4018 124.18 56.6196C124.18 56.8373 124.056 57.0115 123.85 57.055C123.727 57.0986 123.603 57.0986 123.438 57.0986C122.697 57.2728 122.162 57.9695 122.162 58.7534C122.162 59.842 122.162 60.9307 122.162 62.0194C122.162 62.2807 122.121 62.4984 121.874 62.5855C121.544 62.7161 121.256 62.4984 121.256 62.0629C121.256 60.4517 121.256 58.884 121.256 57.2728C121.256 57.0986 121.256 56.9244 121.256 56.7502C121.256 56.4454 121.379 56.2712 121.626 56.2276C121.915 56.1841 122.079 56.3147 122.162 56.6631C122.162 56.7502 122.203 56.7502 122.203 56.7937Z" fill="#FF030E"/>
<path d="M141.06 59.4943C141.06 58.6233 141.06 57.7524 141.06 56.925C141.06 56.5766 141.224 56.3589 141.472 56.3589C141.76 56.3589 141.924 56.5766 141.924 56.925C141.924 58.6669 141.924 60.3652 141.924 62.1071C141.924 62.5426 141.636 62.7603 141.266 62.6297C141.06 62.5426 141.019 62.3684 141.019 62.1506C141.06 61.2361 141.06 60.3652 141.06 59.4943Z" fill="#FF030E"/>
<path d="M141.966 55.0964C141.966 55.4012 141.76 55.6189 141.513 55.6189C141.224 55.6189 141.019 55.4012 141.019 55.0964C141.019 54.8351 141.224 54.6174 141.513 54.6174C141.76 54.5738 141.966 54.7916 141.966 55.0964Z" fill="#FF030E"/>
<path d="M92.4694 62.2824C91.4811 63.1533 89.8752 62.6307 89.4634 61.3679C89.381 61.1501 89.3398 60.9324 89.3398 60.6711C89.3398 59.4083 89.3398 58.1454 89.3398 56.8825C89.3398 56.6648 89.381 56.447 89.5869 56.36C89.7104 56.3164 89.9575 56.3164 90.0399 56.4035C90.1634 56.5341 90.2046 56.7519 90.2046 56.9261C90.2046 58.1018 90.2046 59.2776 90.2046 60.4534C90.2046 60.584 90.2046 60.7582 90.2458 60.8889C90.3693 61.455 90.7811 61.7598 91.3576 61.7162C91.9341 61.6727 92.3047 61.3243 92.3871 60.8018C92.3871 60.6711 92.4282 60.5405 92.4282 60.4098C92.4282 59.2776 92.4282 58.1018 92.4282 56.9696C92.4282 56.8825 92.4282 56.7519 92.4694 56.6648C92.5106 56.4035 92.6753 56.3164 92.9224 56.3164C93.1695 56.3164 93.293 56.447 93.3342 56.6648C93.3754 56.7519 93.3754 56.839 93.3754 56.9261C93.3754 58.6244 93.3754 60.3227 93.3754 62.0646C93.3754 62.5436 93.2106 62.7178 92.8812 62.6743C92.6341 62.6743 92.4694 62.5436 92.4694 62.2824Z" fill="#FF030E"/>
<path d="M85.922 57.362C85.3044 57.2749 85.1396 57.1878 85.1396 56.8394C85.1396 56.5346 85.2632 56.4475 85.922 56.3604C85.922 56.1427 85.922 55.9685 85.922 55.7508C85.8809 54.4443 86.7456 53.7476 87.981 53.8347C88.2692 53.8347 88.4339 54.0524 88.4339 54.3137C88.4339 54.575 88.2692 54.7492 87.981 54.7927C87.8163 54.7927 87.6927 54.7927 87.528 54.8363C87.1162 54.8798 86.8692 55.1846 86.828 55.6201C86.828 55.8814 86.828 56.1427 86.828 56.4475C87.0339 56.4475 87.1986 56.4475 87.4045 56.4475C87.7339 56.4475 87.8986 56.6217 87.8986 56.9265C87.8986 57.1878 87.6927 57.4055 87.4045 57.4055C87.2398 57.4055 87.075 57.4055 86.9103 57.4055C86.9103 57.4055 86.8692 57.4055 86.828 57.4491C86.828 57.5362 86.828 57.6233 86.828 57.7104C86.828 59.191 86.828 60.6716 86.828 62.1522C86.828 62.3699 86.7868 62.5876 86.5397 62.6747C86.2103 62.8054 85.922 62.5876 85.922 62.1957C85.922 61.499 85.922 60.8022 85.922 60.1055C85.922 59.1474 85.922 58.2329 85.922 57.362Z" fill="#FF030E"/>
<path d="M96.2967 56.8382C96.7085 56.4463 97.2026 56.2285 97.738 56.2285C98.0674 56.2285 98.2321 56.4027 98.2321 56.6204C98.2733 56.9253 98.0674 57.0995 97.738 57.143C97.3262 57.1866 96.9968 57.3607 96.7497 57.622C96.4203 57.9269 96.2555 58.3188 96.2555 58.7978C96.2555 59.8865 96.2555 60.9751 96.2555 62.0638C96.2555 62.2816 96.2144 62.4993 95.9673 62.5864C95.6379 62.717 95.3496 62.4993 95.3496 62.1074C95.3496 60.801 95.3496 59.451 95.3496 58.1446C95.3496 57.7527 95.3496 57.3172 95.3496 56.9253C95.3496 56.5333 95.4731 56.3592 95.7202 56.3156C96.0497 56.2285 96.1732 56.4027 96.2967 56.8382Z" fill="#FF030E"/>
<path d="M90.325 55.227C90.325 55.5318 90.1191 55.7496 89.8721 55.7496C89.5838 55.7496 89.3779 55.5318 89.3779 55.227C89.3779 54.9657 89.5838 54.748 89.8721 54.748C90.1191 54.7044 90.325 54.9222 90.325 55.227Z" fill="#FF030E"/>
<path d="M93.3358 55.2268C93.3358 55.5316 93.1299 55.7493 92.8828 55.7493C92.5946 55.7493 92.3887 55.5316 92.3887 55.2268C92.3887 54.9655 92.5946 54.7477 92.8828 54.7477C93.1299 54.7042 93.3358 54.9219 93.3358 55.2268Z" fill="#FF030E"/>
<path d="M108.657 68.902C109.316 68.2923 110.674 68.3794 111.333 69.2939C111.333 69.2939 111.375 69.2939 111.416 69.2504C111.951 68.5101 112.816 68.3794 113.639 68.6407C114.381 68.902 114.834 69.5987 114.875 70.5132C114.916 71.8196 114.875 73.126 114.875 74.476C114.875 74.7808 114.71 74.955 114.422 74.955C114.133 74.955 113.969 74.7808 113.969 74.4325C113.969 73.2567 113.969 72.0374 113.969 70.8616C113.969 70.6439 113.969 70.4697 113.886 70.2519C113.763 69.7294 113.31 69.4245 112.775 69.4681C112.239 69.5116 111.827 69.9036 111.786 70.4697C111.786 70.6003 111.745 70.7745 111.745 70.9051C111.745 72.0374 111.745 73.1696 111.745 74.3018C111.745 74.3889 111.745 74.5195 111.745 74.6066C111.704 74.8679 111.539 74.955 111.333 74.955C111.086 74.955 110.963 74.8679 110.88 74.6066C110.88 74.5195 110.88 74.3889 110.88 74.3018C110.88 73.1696 110.88 72.0374 110.88 70.9051C110.88 70.731 110.88 70.5132 110.839 70.339C110.716 69.7729 110.304 69.4681 109.727 69.5116C109.151 69.5552 108.739 69.9036 108.698 70.4697C108.698 70.6003 108.698 70.7745 108.698 70.9051C108.698 72.0374 108.698 73.126 108.698 74.2583C108.698 74.3454 108.698 74.476 108.698 74.5631C108.657 74.8244 108.451 74.955 108.204 74.955C107.998 74.955 107.833 74.7808 107.792 74.5195C107.792 74.476 107.792 74.476 107.792 74.4325C107.792 72.6906 107.792 70.9487 107.792 69.1633C107.792 68.7278 108.163 68.5101 108.533 68.6842C108.533 68.7278 108.616 68.8149 108.657 68.902Z" fill="#FF030E"/>
<path d="M117.468 68.8593C118.086 68.2932 119.445 68.3803 120.104 69.2948C120.104 69.2948 120.145 69.2948 120.186 69.2512C120.722 68.5109 121.586 68.3803 122.41 68.6416C123.151 68.9028 123.604 69.5996 123.645 70.5141C123.686 71.8205 123.645 73.1269 123.645 74.4769C123.645 74.7817 123.481 74.9559 123.192 74.9559C122.904 74.9559 122.739 74.7817 122.739 74.4333C122.739 73.2575 122.739 72.0382 122.739 70.8625C122.739 70.6447 122.739 70.4705 122.657 70.2528C122.533 69.7302 122.08 69.4254 121.545 69.469C121.01 69.5125 120.598 69.9044 120.557 70.4705C120.557 70.6012 120.516 70.7754 120.516 70.906C120.516 72.0382 120.516 73.1705 120.516 74.3027C120.516 74.3898 120.516 74.5204 120.516 74.6075C120.474 74.8688 120.31 74.9559 120.104 74.9559C119.857 74.9559 119.733 74.8688 119.651 74.6075C119.651 74.5204 119.651 74.3898 119.651 74.3027C119.651 73.1705 119.651 72.0382 119.651 70.906C119.651 70.7318 119.651 70.5141 119.61 70.3399C119.486 69.7738 119.074 69.469 118.498 69.5125C117.921 69.556 117.51 69.9044 117.468 70.4705C117.468 70.6012 117.468 70.7754 117.468 70.906C117.468 72.0382 117.468 73.1269 117.468 74.2591C117.468 74.3462 117.468 74.4769 117.468 74.564C117.427 74.8252 117.221 74.9559 116.974 74.9559C116.768 74.9559 116.604 74.7817 116.562 74.5204C116.562 74.4769 116.562 74.4769 116.562 74.4333C116.562 72.6914 116.562 70.9496 116.562 69.1641C116.562 68.7287 116.933 68.5109 117.304 68.6851C117.263 68.7287 117.345 68.8157 117.468 68.8593Z" fill="#FF030E"/>
<path d="M147.324 68.9454C148.147 68.3793 149.095 68.3793 149.712 68.9454C150.124 69.2937 150.371 69.7728 150.412 70.3389C150.453 71.2969 150.495 72.2985 150.412 73.2565C150.33 74.5194 149.342 75.2597 148.147 75.042C147.859 74.9984 147.612 74.7807 147.324 74.65C147.283 74.8678 147.077 74.9984 146.83 74.9984C146.583 74.9984 146.459 74.8678 146.418 74.6065C146.418 74.5629 146.418 74.4758 146.418 74.4323C146.418 71.863 146.418 69.3373 146.418 66.768C146.418 66.3761 146.541 66.2019 146.871 66.2019C147.159 66.2019 147.324 66.3761 147.324 66.768C147.324 67.4212 147.324 68.0744 147.324 68.7276C147.324 68.6841 147.324 68.8147 147.324 68.9454ZM147.324 71.7759C147.324 72.1678 147.324 72.5598 147.324 72.9081C147.324 73.6049 147.736 74.0404 148.436 74.0839C149.095 74.0839 149.548 73.692 149.548 72.9952C149.589 72.2114 149.589 71.384 149.548 70.6002C149.548 69.9034 149.053 69.4679 148.436 69.5115C147.777 69.5115 147.365 69.9469 147.324 70.6437C147.324 70.9921 147.324 71.384 147.324 71.7759Z" fill="#FF030E"/>
<path d="M139.461 74.52C138.802 75.1296 137.772 75.1732 137.072 74.6506C136.413 74.1716 136.125 73.2135 136.413 72.3426C136.66 71.6023 137.278 71.1233 138.143 71.0797C138.555 71.0797 139.008 71.0797 139.419 71.0797C139.625 69.9475 139.049 69.3379 138.143 69.4685C137.69 69.512 137.443 69.8169 137.278 70.2523C137.278 70.2959 137.237 70.3394 137.237 70.4265C137.155 70.6878 136.99 70.8185 136.743 70.7749C136.537 70.7314 136.372 70.5572 136.372 70.2523C136.372 69.7733 136.578 69.3814 136.907 69.0766C137.607 68.4234 138.431 68.3798 139.255 68.7282C140.037 69.0766 140.325 69.7733 140.366 70.6443C140.366 71.9071 140.366 73.1265 140.366 74.3893C140.366 74.7377 140.243 74.9119 140.037 74.9554C139.79 74.999 139.584 74.8683 139.461 74.52ZM139.461 71.9942C139.008 71.9942 138.596 71.9942 138.184 71.9942C137.69 72.0378 137.36 72.2991 137.237 72.7781C137.155 73.17 137.278 73.649 137.607 73.8668C137.937 74.0845 138.266 74.128 138.637 74.0409C139.131 73.9538 139.419 73.649 139.461 73.1265C139.502 72.7345 139.461 72.3862 139.461 71.9942Z" fill="#FF030E"/>
<path d="M104.95 74.5634C104.415 75.1296 103.756 75.1296 103.097 74.9118C102.274 74.6505 101.78 73.8667 101.821 72.9522C101.862 71.9942 102.438 71.2974 103.344 71.1668C103.591 71.1232 103.839 71.1232 104.086 71.1232C104.374 71.1232 104.662 71.1232 104.992 71.1232C104.992 70.862 105.033 70.6007 104.992 70.3829C104.909 69.8168 104.539 69.5555 104.003 69.512C103.468 69.4684 103.015 69.7733 102.85 70.2958C102.809 70.3829 102.809 70.47 102.768 70.5571C102.686 70.7749 102.521 70.8619 102.315 70.8184C102.109 70.8184 101.944 70.6878 101.944 70.47C101.944 70.1652 101.985 69.8604 102.109 69.6426C102.48 68.8588 103.138 68.554 103.921 68.554C105.156 68.554 105.897 69.3814 105.897 70.6878C105.897 71.9506 105.897 73.2135 105.897 74.4328C105.897 74.8683 105.568 75.086 105.197 74.8683C105.115 74.7812 105.033 74.6941 104.95 74.5634ZM104.992 71.9942C104.497 71.9942 104.044 71.9506 103.633 71.9942C103.18 72.0377 102.891 72.2555 102.768 72.7345C102.686 73.1264 102.809 73.5619 103.138 73.8232C103.427 74.0409 103.797 74.0844 104.168 74.0409C104.703 73.9538 105.033 73.6054 105.033 72.9958C104.992 72.6909 104.992 72.3861 104.992 71.9942Z" fill="#FF030E"/>
<path d="M126.035 72.2991C126.077 72.6474 126.077 72.9958 126.159 73.3007C126.283 73.7797 126.694 74.041 127.188 74.041C127.724 74.041 128.094 73.7361 128.259 73.3007C128.383 72.9087 128.547 72.8216 128.836 72.9087C129.083 72.9958 129.165 73.2571 129.124 73.5619C128.918 74.4764 128.136 75.0861 127.188 74.999C125.912 74.9119 125.212 74.128 125.212 72.7781C125.212 72.0378 125.212 71.341 125.212 70.6007C125.212 69.8169 125.459 69.1201 126.159 68.7282C126.9 68.3363 127.683 68.3363 128.383 68.8153C129 69.2072 129.289 69.9911 129.124 70.8185C129 71.5588 128.465 72.0813 127.724 72.212C127.518 72.2555 127.312 72.2555 127.106 72.2555C126.777 72.3426 126.447 72.2991 126.035 72.2991ZM126.035 71.341C126.571 71.341 127.065 71.3846 127.518 71.341C127.971 71.2975 128.218 70.9927 128.259 70.5572C128.3 70.0346 128.053 69.6427 127.6 69.5121C126.983 69.3379 126.365 69.5556 126.2 70.0782C126.077 70.4701 126.077 70.9056 126.035 71.341Z" fill="#FF030E"/>
<path d="M152.844 72.2988C152.885 72.6472 152.885 72.9955 152.926 73.2568C153.05 73.7794 153.461 74.0407 153.956 74.0407C154.491 74.0407 154.862 73.7358 155.026 73.2568C155.067 73.0826 155.15 72.9085 155.356 72.8649C155.685 72.8214 155.932 73.0826 155.891 73.431C155.767 74.2149 155.191 74.8245 154.45 74.9116C154.079 74.9552 153.667 74.9552 153.297 74.8245C152.556 74.6068 152.103 73.9971 152.061 73.2133C151.979 72.2117 151.938 71.1666 152.061 70.165C152.226 68.9021 153.132 68.2925 154.326 68.4231C155.52 68.5973 156.179 69.5553 155.932 70.8182C155.767 71.6456 155.067 72.2117 154.12 72.2117C153.709 72.3423 153.338 72.2988 152.844 72.2988ZM152.844 71.3408C153.379 71.3408 153.832 71.3843 154.285 71.3408C154.614 71.2972 154.903 71.123 155.026 70.7747C155.15 70.4263 155.109 70.0779 154.862 69.8166C154.532 69.4682 154.12 69.4247 153.709 69.5118C153.338 69.5989 153.05 69.8166 152.967 70.2085C152.885 70.5569 152.885 70.9488 152.844 71.3408Z" fill="#FF030E"/>
<path d="M86.8748 73.9975C87.0807 73.9975 87.2455 73.9975 87.4513 73.9975C88.1102 73.9975 88.7279 73.9975 89.3867 73.9975C89.5103 73.9975 89.6338 73.9975 89.7162 74.041C89.9221 74.0846 90.0044 74.2587 90.0456 74.4765C90.0456 74.6942 89.9632 74.8249 89.7574 74.912C89.6338 74.9555 89.5103 74.9555 89.4279 74.9555C88.3573 74.9555 87.2866 74.9555 86.216 74.9555C85.763 74.9555 85.6395 74.7813 85.8454 74.3458C86.7925 72.0814 87.7396 69.817 88.7279 67.5525C88.7691 67.4654 88.8102 67.3348 88.8514 67.2041C88.7279 67.2041 88.6455 67.2041 88.5632 67.2041C87.822 67.2041 87.1219 67.2041 86.3807 67.2041C86.2572 67.2041 86.1748 67.2041 86.0513 67.1606C85.8454 67.117 85.6807 66.8993 85.6807 66.6816C85.6807 66.4203 85.8454 66.2896 86.0513 66.2461C86.1336 66.2461 86.216 66.2461 86.2983 66.2461C87.369 66.2461 88.3985 66.2461 89.4691 66.2461C89.9632 66.2461 90.0868 66.4638 89.8809 66.9428C88.9338 69.2073 87.9867 71.4717 86.9984 73.7797C86.9572 73.7797 86.916 73.8668 86.8748 73.9975Z" fill="#FF030E"/>
<path d="M98.4061 68.5105C99.5179 68.5105 100.259 69.0331 100.465 69.8605C100.547 70.2524 100.465 70.4701 100.136 70.5572C99.8886 70.6008 99.6827 70.4701 99.6415 70.2088C99.4356 69.3814 98.4473 69.2508 97.8708 69.6427C97.6237 69.8169 97.5002 70.0782 97.5002 70.4266C97.5002 70.7314 97.7061 70.862 97.9532 70.9927C98.2414 71.1233 98.5297 71.1669 98.8179 71.254C99.1473 71.3846 99.4356 71.4717 99.7238 71.6023C100.383 71.9507 100.671 72.691 100.506 73.4313C100.259 74.5635 99.2297 75.1732 98.0767 74.9555C97.3767 74.8248 96.8825 74.3893 96.6766 73.649C96.5943 73.3442 96.6354 73.1265 96.8825 73.0394C97.1296 72.9087 97.4178 73.0394 97.5002 73.3442C97.6649 73.9539 98.4061 74.2152 98.9826 73.9974C99.3532 73.8668 99.6003 73.562 99.6003 73.17C99.6003 72.7781 99.3944 72.5168 99.1062 72.3862C98.8591 72.2555 98.612 72.212 98.3649 72.1249C98.0767 72.0378 97.7884 71.9507 97.5414 71.8201C96.9649 71.6023 96.6354 71.1669 96.5943 70.5137C96.5531 69.8169 96.8002 69.2943 97.3355 68.9024C97.7061 68.5976 98.159 68.5105 98.4061 68.5105Z" fill="#FF030E"/>
<path d="M94.2458 74.6064C93.2575 75.4774 91.6515 74.9548 91.2397 73.6484C91.1574 73.4306 91.1162 73.2129 91.1162 72.9516C91.1162 71.6888 91.1162 70.4259 91.1162 69.163C91.1162 68.9453 91.1574 68.7276 91.3633 68.6405C91.4868 68.5969 91.7339 68.5969 91.8163 68.684C91.9398 68.8147 91.981 69.0324 91.981 69.2066C91.981 70.3824 91.981 71.5581 91.981 72.7339C91.981 72.8645 91.981 73.0387 92.0221 73.1694C92.1457 73.7355 92.5575 74.0403 93.134 73.9968C93.7105 73.9532 94.0811 73.6048 94.1634 73.0823C94.1634 72.9516 94.2046 72.821 94.2046 72.6903C94.2046 71.5581 94.2046 70.3824 94.2046 69.2501C94.2046 69.163 94.2046 69.0324 94.2458 68.9453C94.287 68.684 94.4517 68.5969 94.6988 68.5969C94.9458 68.5969 95.0694 68.7276 95.1105 68.9453C95.1517 69.0324 95.1517 69.163 95.1517 69.2501C95.1517 70.9049 95.1517 72.6032 95.1517 74.258C95.1517 74.3016 95.1517 74.3451 95.1517 74.4322C95.1517 74.7371 95.0282 74.9112 94.7811 74.9548C94.534 75.0419 94.3693 74.9112 94.2458 74.6064Z" fill="#FF030E"/>
<path d="M131.719 68.9452C132.337 68.3791 133.037 68.3791 133.737 68.6839C134.437 68.9887 134.766 69.5984 134.808 70.3822C134.849 71.1661 134.849 71.9499 134.849 72.7773C134.849 73.3434 134.849 73.9095 134.849 74.4757C134.849 74.8676 134.519 75.0853 134.19 74.9111C133.984 74.7805 133.943 74.6063 133.943 74.345C133.943 73.2128 133.943 72.0806 133.943 70.9483C133.943 70.8177 133.943 70.6435 133.943 70.5129C133.902 69.8161 133.449 69.4242 132.831 69.4242C132.172 69.4242 131.76 69.8597 131.76 70.5564C131.76 71.4274 131.76 72.3418 131.76 73.2128C131.76 73.5612 131.76 73.9531 131.76 74.3015C131.76 74.6934 131.596 74.9111 131.266 74.8676C130.978 74.8676 130.854 74.6498 130.854 74.3015C130.854 72.5596 130.854 70.8612 130.854 69.1194C130.854 68.8581 130.937 68.6839 131.184 68.5968C131.349 68.5968 131.555 68.6839 131.719 68.9452Z" fill="#FF030E"/>
<path d="M160.749 69.5988C160.543 69.5988 160.419 69.5988 160.255 69.5988C159.966 69.5553 159.843 69.3811 159.843 69.1198C159.843 68.8585 160.007 68.6844 160.296 68.6844C160.419 68.6844 160.584 68.6844 160.749 68.6844C160.749 68.5102 160.749 68.3795 160.749 68.2053C160.749 67.6828 160.749 67.1602 160.749 66.6376C160.749 66.2457 160.872 66.0715 161.16 66.0715C161.449 66.0715 161.613 66.2457 161.613 66.6376C161.613 67.2038 161.613 67.7699 161.613 68.336C161.613 68.4231 161.613 68.5102 161.613 68.6408C161.819 68.6408 161.984 68.6408 162.149 68.6408C162.478 68.6408 162.643 68.815 162.643 69.1198C162.643 69.3811 162.437 69.5988 162.149 69.5988C161.984 69.5988 161.819 69.5988 161.655 69.5988C161.613 69.6424 161.613 69.6424 161.613 69.6424C161.613 70.7746 161.572 71.9504 161.613 73.0826C161.613 73.6052 161.943 73.91 162.396 74.0406C162.602 74.0842 162.766 74.1713 162.808 74.4326C162.849 74.7374 162.643 74.9987 162.313 74.9551C161.613 74.9551 161.16 74.5197 160.872 73.91C160.749 73.6052 160.666 73.2132 160.666 72.8649C160.625 71.9068 160.666 70.9053 160.666 69.9472C160.749 69.8601 160.749 69.773 160.749 69.5988Z" fill="#FF030E"/>
<path d="M143.205 69.1202C143.617 68.7282 144.07 68.5105 144.605 68.5105C144.934 68.5105 145.14 68.6411 145.181 68.9024C145.223 69.2072 145.058 69.3814 144.687 69.425C144.317 69.4685 143.987 69.5992 143.74 69.8605C143.369 70.1653 143.205 70.6008 143.205 71.0798C143.205 72.1684 143.205 73.2571 143.205 74.3458C143.205 74.5635 143.164 74.7813 142.917 74.8684C142.587 74.999 142.299 74.7813 142.299 74.3894C142.299 73.3442 142.299 72.2991 142.299 71.254C142.299 70.5572 142.299 69.8605 142.299 69.1637C142.299 68.7718 142.422 68.5976 142.711 68.554C142.999 68.554 143.122 68.6847 143.205 69.1202Z" fill="#FF030E"/>
<path d="M157.579 71.7758C157.579 70.9048 157.579 70.0774 157.579 69.2065C157.579 68.8146 157.744 68.6404 158.032 68.6404C158.32 68.6404 158.485 68.8581 158.485 69.2065C158.485 70.9048 158.485 72.6467 158.485 74.345C158.485 74.3886 158.485 74.4321 158.485 74.5192C158.444 74.7805 158.238 74.9547 157.991 74.9112C157.744 74.9112 157.62 74.737 157.62 74.4321C157.579 73.5612 157.579 72.6903 157.579 71.7758Z" fill="#FF030E"/>
<path d="M158.526 67.4222C158.526 67.6835 158.32 67.9448 158.032 67.9448C157.785 67.9448 157.538 67.7271 157.538 67.4222C157.538 67.1174 157.744 66.8997 158.032 66.8997C158.32 66.8997 158.526 67.1174 158.526 67.4222Z" fill="#FF030E"/>
<path d="M199.21 68.9026C199.827 68.293 201.145 68.293 201.928 69.2946C202.298 68.8155 202.751 68.5543 203.328 68.5107C204.522 68.4672 205.387 69.251 205.387 70.5139C205.428 71.8203 205.387 73.1267 205.387 74.4331C205.387 74.7379 205.222 74.9121 204.934 74.9121C204.645 74.9121 204.481 74.7379 204.481 74.3896C204.481 73.2138 204.481 72.038 204.481 70.8623C204.481 70.6881 204.481 70.4703 204.44 70.2961C204.316 69.73 203.863 69.4252 203.328 69.4687C202.792 69.5123 202.339 69.9042 202.298 70.4703C202.257 70.9929 202.257 71.4719 202.257 71.9945C202.257 72.8219 202.257 73.6057 202.257 74.4331C202.257 74.7815 202.133 74.9557 201.845 74.9557C201.598 74.9992 201.392 74.825 201.351 74.5638C201.351 74.4767 201.351 74.3896 201.351 74.2589C201.351 73.1267 201.351 71.9945 201.351 70.8623C201.351 70.6881 201.351 70.4703 201.31 70.2961C201.186 69.73 200.775 69.4252 200.198 69.4687C199.622 69.5123 199.21 69.9042 199.169 70.4703C199.127 71.0364 199.169 71.6026 199.169 72.1687C199.169 72.909 199.169 73.6057 199.169 74.346C199.169 74.5638 199.127 74.7815 198.88 74.8686C198.592 74.9992 198.304 74.825 198.263 74.4767C198.263 74.4331 198.263 74.3896 198.263 74.346C198.263 72.6477 198.263 70.9058 198.263 69.2075C198.263 68.7284 198.551 68.4672 198.963 68.6849C199.086 68.7284 199.127 68.8155 199.21 68.9026Z" fill="#FF030E"/>
<path d="M174.629 70.8623C174.176 70.8623 173.764 70.8623 173.352 70.8623C173.023 70.8623 172.817 70.6446 172.858 70.3398C172.899 70.122 173.023 69.9478 173.229 69.9478C173.888 69.9478 174.546 69.9043 175.205 69.9478C175.288 69.9478 175.494 70.122 175.494 70.2091C175.494 71.2107 175.576 72.2558 175.452 73.2574C175.288 74.4332 174.423 75.0428 173.311 74.9993C171.993 74.9122 171.211 74.0848 171.211 72.6913C171.211 71.2543 171.211 69.8172 171.211 68.3802C171.211 67.5092 171.458 66.7689 172.24 66.377C173.064 65.9415 173.888 65.9851 174.711 66.5076C175.082 66.7689 175.329 67.1608 175.452 67.6399C175.535 67.9882 175.411 68.206 175.164 68.2931C174.917 68.3802 174.67 68.206 174.588 67.9011C174.382 67.335 173.97 67.0737 173.311 67.1173C172.735 67.1173 172.323 67.4657 172.199 67.9882C172.158 68.1189 172.158 68.2931 172.158 68.4237C172.158 69.8607 172.158 71.2978 172.158 72.7349C172.158 73.2139 172.282 73.6493 172.693 73.9106C173.188 74.1719 173.682 74.1719 174.135 73.9106C174.505 73.6929 174.629 73.3445 174.67 72.9526C174.67 72.2123 174.629 71.5591 174.629 70.8623Z" fill="#FF030E"/>
<path d="M195.793 70.8619C195.381 70.8619 194.969 70.8619 194.557 70.8619C194.187 70.8619 194.022 70.6006 194.104 70.2958C194.146 70.078 194.269 69.9909 194.475 69.9474C195.134 69.9474 195.793 69.9038 196.452 69.9474C196.534 69.9474 196.74 70.1216 196.74 70.2087C196.74 71.2102 196.822 72.2118 196.699 73.2134C196.575 74.3892 195.669 75.0859 194.516 74.9988C193.198 74.9117 192.416 74.0843 192.416 72.6908C192.416 71.2538 192.416 69.8167 192.416 68.3797C192.416 67.5087 192.663 66.7684 193.445 66.3765C194.269 65.941 195.093 65.941 195.916 66.4636C196.328 66.7249 196.575 67.1168 196.657 67.5958C196.74 67.9442 196.657 68.1619 196.369 68.249C196.122 68.3361 195.875 68.1619 195.793 67.8571C195.587 67.291 195.175 67.0297 194.516 67.0297C193.94 67.0297 193.528 67.3346 193.404 67.9007C193.363 68.0313 193.363 68.2055 193.363 68.3797C193.363 69.8167 193.363 71.2538 193.363 72.6908C193.363 73.1699 193.487 73.6053 193.898 73.8666C194.393 74.1279 194.887 74.1279 195.34 73.8666C195.669 73.6924 195.834 73.344 195.834 72.9957C195.793 72.2554 195.793 71.6022 195.793 70.8619Z" fill="#FF030E"/>
<path d="M216.095 69.9037C216.095 68.9021 216.095 67.9006 216.095 66.899C216.095 66.8119 216.095 66.6812 216.095 66.5941C216.136 66.3764 216.259 66.2022 216.506 66.2022C216.753 66.2022 216.877 66.2893 216.959 66.5506C216.959 66.6377 217.001 66.7248 217.001 66.8119C217.001 69.2941 217.001 71.8198 217.001 74.302C217.001 74.6939 216.877 74.8681 216.63 74.9116C216.3 74.9552 216.136 74.7374 216.136 74.3891C216.136 73.3004 216.136 72.2553 216.136 71.1666C216.136 71.0795 216.136 70.9924 216.136 70.8618C215.312 70.8618 214.447 70.8618 213.583 70.8618C213.583 70.9488 213.583 71.0795 213.583 71.1666C213.583 72.2117 213.583 73.2568 213.583 74.302C213.583 74.6939 213.418 74.9116 213.089 74.8681C212.841 74.8681 212.718 74.6939 212.677 74.4762C212.677 74.4326 212.677 74.3455 212.677 74.302C212.677 71.7762 212.677 69.2941 212.677 66.7683C212.677 66.3764 212.8 66.2022 213.089 66.1587C213.377 66.1151 213.583 66.2893 213.583 66.6377C213.583 66.9861 213.583 67.3344 213.583 67.6828C213.583 68.3796 213.583 69.1199 213.583 69.8166C214.406 69.9037 215.23 69.9037 216.095 69.9037Z" fill="#FF030E"/>
<path d="M207.983 74.5636C207.942 74.6072 207.86 74.7814 207.777 74.8249C207.448 75.0427 207.077 74.8249 207.077 74.3895C207.077 73.3879 207.077 72.3863 207.077 71.3847C207.077 69.7735 207.077 68.2058 207.077 66.5945C207.077 66.2026 207.242 66.0284 207.571 66.072C207.818 66.072 207.983 66.2462 207.983 66.5945C207.983 67.2477 207.983 67.9009 207.983 68.5541C207.983 68.6412 207.983 68.7283 207.983 68.9025C208.477 68.4235 209.013 68.38 209.548 68.467C210.413 68.5977 210.989 69.2509 211.072 70.2089C211.154 71.167 211.154 72.1686 211.072 73.1266C210.989 74.3894 210.001 75.1297 208.807 74.912C208.518 74.912 208.23 74.6943 207.983 74.5636ZM207.983 71.7331C207.983 72.125 207.983 72.5169 207.983 72.8653C207.983 73.5621 208.395 73.9975 209.054 74.0411C209.713 74.0846 210.166 73.6491 210.166 72.9524C210.207 72.1685 210.207 71.3412 210.166 70.5573C210.166 69.8606 209.713 69.4251 209.054 69.4686C208.395 69.4686 207.983 69.9041 207.942 70.6009C207.983 70.9928 207.983 71.3412 207.983 71.7331Z" fill="#FF030E"/>
<path d="M181.627 73.9539C181.998 73.9539 182.327 73.9539 182.657 73.9539C183.151 73.9539 183.645 73.9539 184.139 73.9539C184.263 73.9539 184.427 73.9539 184.551 73.9974C184.716 74.0409 184.839 74.2151 184.798 74.3893C184.757 74.52 184.675 74.6941 184.551 74.7812C184.469 74.8683 184.304 74.8683 184.18 74.8683C183.11 74.8683 181.998 74.8683 180.927 74.8683C180.515 74.8683 180.392 74.6942 180.557 74.2587C181.504 71.9942 182.492 69.6862 183.439 67.4218C183.48 67.3347 183.522 67.2476 183.563 67.117C183.439 67.117 183.357 67.117 183.274 67.117C182.533 67.117 181.833 67.117 181.092 67.117C180.968 67.117 180.886 67.117 180.763 67.0734C180.557 67.0299 180.392 66.8121 180.433 66.5944C180.433 66.3331 180.598 66.2025 180.804 66.1589C180.886 66.1589 180.968 66.1589 181.051 66.1589C182.121 66.1589 183.151 66.1589 184.222 66.1589C184.716 66.1589 184.839 66.3767 184.633 66.8557C183.686 69.1201 182.739 71.3846 181.751 73.6926C181.71 73.7797 181.668 73.8668 181.627 73.9539Z" fill="#FF030E"/>
<path d="M177.716 70.5578C177.716 69.2949 177.716 68.032 177.716 66.7256C177.716 66.3337 177.881 66.1595 178.21 66.2031C178.457 66.2031 178.581 66.3337 178.622 66.595C178.622 66.6821 178.622 66.7692 178.622 66.8998C178.622 69.3385 178.622 71.7771 178.622 74.2157C178.622 74.3464 178.622 74.4335 178.581 74.5641C178.54 74.8254 178.334 74.956 178.087 74.956C177.84 74.956 177.716 74.7818 177.675 74.5206C177.675 74.2157 177.675 73.8673 177.675 73.5625C177.716 72.5174 177.716 71.5158 177.716 70.5578Z" fill="#FF030E"/>
<path d="M168.45 75.173C168.244 74.7811 168.08 74.3456 167.915 73.9102C167.75 73.4747 167.668 72.9957 167.544 72.5167C167.462 72.0376 167.421 71.5151 167.421 70.949C167.421 70.3829 167.462 69.8603 167.544 69.3813C167.627 68.9023 167.75 68.4232 167.874 67.9878C168.039 67.5523 168.203 67.1168 168.368 66.7249C168.574 66.333 168.78 65.9846 168.986 65.6362L169.439 65.854C169.068 66.5507 168.78 67.3781 168.533 68.2491C168.327 69.12 168.203 70.0345 168.203 70.9054C168.203 71.8635 168.327 72.7344 168.533 73.6489C168.739 74.5198 169.027 75.3037 169.397 76.0004L168.986 76.3053C168.862 75.9569 168.656 75.565 168.45 75.173Z" fill="#FF030E"/>
<path d="M186.528 76.3053L186.116 76.0004C186.487 75.3037 186.775 74.5198 186.981 73.6489C187.187 72.7779 187.311 71.8635 187.311 70.9054C187.311 70.0345 187.187 69.1635 186.981 68.2491C186.775 67.3781 186.487 66.5507 186.075 65.854L186.528 65.6362C186.734 65.9846 186.94 66.333 187.146 66.7249C187.352 67.1168 187.516 67.5523 187.64 67.9878C187.805 68.4232 187.887 68.9023 187.969 69.3813C188.052 69.8603 188.093 70.3829 188.093 70.949C188.093 71.4715 188.052 71.9941 187.969 72.5167C187.887 72.9957 187.764 73.4747 187.599 73.9102C187.434 74.3456 187.269 74.7811 187.063 75.173C186.981 75.565 186.775 75.9569 186.528 76.3053Z" fill="#FF030E"/>
<path d="M8.13872 84.4916L12.0507 79.8321C12.0507 79.8321 13.9861 81.3998 14.5626 81.6175C15.345 81.9659 16.5392 82.3578 17.3627 82.4885C18.3099 82.532 19.257 82.6191 20.1629 82.3578C20.8629 82.0965 23.4984 80.4417 23.6219 78.4386C23.7454 76.7402 23.6631 75.0419 23.6631 73.3871C22.5924 73.692 21.6041 74.0403 20.5747 74.2145C13.6155 75.4338 7.06807 69.9469 7.02689 62.3697C7.02689 59.0602 6.94453 55.7506 7.06807 52.4846C7.31514 46.0831 12.9154 40.8575 19.0922 41.293C20.6159 41.3801 22.0983 41.8155 23.6631 42.1204C23.6631 42.0333 23.7454 41.772 23.7866 41.4236C25.9279 41.4236 28.0692 41.4236 30.2929 41.4236C30.2929 41.7284 30.2929 41.9897 30.2929 42.251C30.2929 54.0522 30.2929 65.897 30.2929 77.6983C30.2929 83.011 27.2456 87.3657 22.4277 88.3673C17.5686 89.3689 12.7919 89.0641 8.96229 85.1448C8.83875 85.1013 8.13872 84.4916 8.13872 84.4916ZM13.6155 57.8408C13.6155 59.365 13.5743 60.8891 13.6155 62.3697C13.6978 65.7228 16.498 68.0744 19.6276 67.4647C21.6865 67.0728 23.4572 65.2438 23.5395 63.11C23.6631 59.5827 23.5807 56.099 23.5807 52.5716C23.5807 52.3975 23.5395 52.1797 23.4984 52.0055C22.8395 49.4363 20.5747 47.8686 17.9804 48.1734C15.5509 48.4347 13.6978 50.612 13.6155 53.3119C13.5743 54.7925 13.6155 56.3167 13.6155 57.8408Z" fill="#FF030E"/>
<path d="M73.8582 41.4236C73.8582 41.4236 60.887 68.4663 60.6399 68.8582C64.7166 68.8582 69.4933 68.9018 73.5288 68.9018C73.5288 71.2533 73.5288 72.342 73.5288 74.65C66.8579 74.65 50.2217 74.65 50.2217 74.65C50.2217 74.65 63.7695 48.2169 64.0165 47.8685C60.1457 47.8685 55.2455 47.825 51.457 47.825C51.457 45.4735 51.457 43.7316 51.457 41.4236C57.9221 41.4236 73.8582 41.4236 73.8582 41.4236Z" fill="#FF030E"/>
<path d="M37.79 41.3799C39.9725 41.3799 42.0726 41.3799 44.2551 41.3799C44.2551 52.3537 44.2551 63.2405 44.2551 74.2579C42.1138 74.2579 39.9725 74.2579 37.79 74.2579C37.79 63.3276 37.79 52.3973 37.79 41.3799Z" fill="#FF030E"/>
<path d="M44.0038 31.1462C44.0038 33.4542 44.0038 35.7187 44.0038 38.0267C41.9449 38.0267 39.9271 38.0267 37.8682 38.0267C37.8682 37.3735 37.8682 36.0235 37.8682 36.0235L41.9037 31.1462C41.9037 31.1462 41.9037 31.1462 44.0038 31.1462Z" fill="#FF030E"/>
</svg>
