<svg width="224" height="120" viewBox="0 0 224 120" fill="none" xmlns="http://www.w3.org/2000/svg">
<path d="M173.741 10H50.2598V110H173.741V10Z" fill="white"/>
<path d="M94.0648 93.602C94.3263 93.602 94.5443 93.7862 94.4135 94.2929L93.2367 94.5693C93.4546 94.0165 93.8033 93.602 94.0648 93.602ZM94.7186 95.5826H94.5007C94.1956 95.9511 93.8905 96.2275 93.5854 96.2275C93.2803 96.2275 93.1059 96.0432 93.1059 95.5826C93.1059 95.3984 93.1059 95.2141 93.1495 95.0299L95.0237 94.385C95.3724 93.4638 94.9366 93.0492 94.4135 93.0492C93.5418 93.0492 92.4957 94.6153 92.4957 95.9972C92.4957 96.596 92.7572 96.9645 93.1931 96.9645C93.7597 96.9645 94.2828 96.4117 94.7186 95.5826ZM94.3699 92.6807L95.6775 91.391V91.2528H94.9801L94.152 92.7268H94.3699V92.6807ZM90.2728 93.602H90.883L89.8805 96.4578C89.7933 96.6881 89.9241 96.9645 90.142 96.9645C90.7086 96.9645 91.624 96.3657 91.9291 95.5826H91.7547C91.4932 95.859 91.0137 96.2275 90.6215 96.3196L91.5368 93.648H92.4521L92.5829 93.2335H91.6675L92.0162 92.2201H91.6675L91.0137 93.2335L90.2292 93.3256V93.602H90.2728ZM89.4446 93.4638C89.5318 93.1874 89.3574 93.0492 89.2267 93.0492C88.7036 93.0492 88.0498 93.5559 87.7883 94.2929H87.9627C88.137 94.0165 88.4421 93.7401 88.7036 93.6941L87.6576 96.5499C87.5704 96.8263 87.7447 96.9645 87.8755 96.9645C88.3985 96.9645 89.0087 96.4578 89.2703 95.7208H89.0959C88.9216 95.9972 88.6165 96.2735 88.3549 96.3196L89.4446 93.4638ZM89.619 92.0359C89.8805 92.0359 90.0548 91.8056 90.0548 91.5752C90.0548 91.2989 89.8369 91.1146 89.619 91.1146C89.3574 91.1146 89.1831 91.3449 89.1831 91.5752C89.1831 91.8056 89.401 92.0359 89.619 92.0359ZM83.6476 96.4117C83.5168 96.7342 83.6476 96.9645 83.9527 96.9645C84.127 96.9645 84.2142 96.9184 84.3014 96.6881L85.0423 94.6614C85.391 94.2468 86.0448 93.7862 86.3499 93.7862C86.5679 93.7862 86.5243 93.9705 86.3935 94.2008L85.3039 96.4578C85.2167 96.6881 85.3474 96.9645 85.5654 96.9645C86.0884 96.9645 86.7422 96.4578 87.0037 95.7208H86.8294C86.6551 95.9972 86.3499 96.2735 86.0884 96.3196L87.0473 94.2929C87.1781 94.0165 87.2217 93.7862 87.2217 93.602C87.2217 93.2795 87.0473 93.0492 86.6986 93.0492C86.2192 93.0492 85.7397 93.602 85.1731 94.2929V93.7401C85.1731 93.3717 85.0423 93.0032 84.7372 93.0032C84.5193 93.0032 84.3449 93.1874 84.1706 93.4638V93.5559C84.5193 93.5559 84.6936 94.1086 84.4321 94.6614L83.6476 96.4117ZM83.6476 93.9244C83.7783 93.4638 83.6911 93.0492 83.386 93.0492C82.9938 93.0492 82.863 93.3717 82.4707 94.2929V93.7401C82.4707 93.3717 82.34 93.0032 82.0348 93.0032C81.6426 93.0032 81.2939 93.648 81.0323 94.2468H81.2067C81.381 93.9705 81.5554 93.7862 81.6861 93.7862C81.8605 93.7862 81.9477 94.0626 81.6861 94.6614L80.9452 96.3657C80.8144 96.6881 80.9452 96.9184 81.2503 96.9184C81.4246 96.9184 81.5118 96.8723 81.599 96.642L82.34 94.6153C82.5579 94.3389 82.7322 94.1086 82.9502 93.8783H83.6476V93.9244ZM79.4632 93.602C79.7247 93.602 79.9427 93.7862 79.8119 94.2929L78.6351 94.5693C78.853 94.0165 79.2017 93.602 79.4632 93.602ZM80.117 95.5826H79.8991C79.594 95.9511 79.2889 96.2275 78.9838 96.2275C78.6787 96.2275 78.5043 96.0432 78.5043 95.5826C78.5043 95.3984 78.5043 95.2141 78.5479 95.0299L80.4221 94.385C80.7708 93.4638 80.335 93.0492 79.8119 93.0492C78.9402 93.0492 77.8941 94.6153 77.8941 95.9972C77.8941 96.596 78.1556 96.9645 78.5915 96.9645C79.1581 96.9645 79.6812 96.4117 80.117 95.5826ZM75.6712 93.602H76.2814L75.2789 96.4578C75.1917 96.6881 75.3225 96.9645 75.5404 96.9645C76.107 96.9645 77.0224 96.3657 77.3275 95.5826H77.1531C76.8916 95.859 76.4121 96.2275 76.0199 96.3196L76.9352 93.648H77.8505L77.9813 93.2335H77.0659L77.4146 92.2201H77.0659L76.4121 93.2335L75.6276 93.3256V93.602H75.6712ZM72.2714 95.8129C72.2714 94.9378 73.1867 93.7401 73.7097 93.7401C73.8405 93.7401 73.9277 93.7401 74.0149 93.7862L73.4918 95.3062C73.1867 95.7208 72.7073 96.1814 72.4893 96.1814C72.3586 96.2275 72.2714 96.0893 72.2714 95.8129ZM75.1045 92.865H74.7994L74.4943 93.1874H74.4071C72.838 93.1874 71.5304 95.0299 71.5304 96.3657C71.5304 96.7342 71.7483 96.9645 72.097 96.9645C72.4893 96.9645 72.8816 96.3657 73.3175 95.7208V95.9511C73.2739 96.596 73.4482 96.9645 73.7969 96.9645C74.1892 96.9645 74.5379 96.3196 74.7994 95.7208H74.6251C74.4507 95.9972 74.2764 96.1814 74.1456 96.1814C74.0149 96.1814 73.8841 95.905 74.1456 95.3062L75.1045 92.865ZM71.8355 93.9244C71.9663 93.4638 71.8791 93.0492 71.574 93.0492C71.1817 93.0492 71.051 93.3717 70.6587 94.2929V93.7401C70.6587 93.3717 70.5279 93.0032 70.2228 93.0032C69.8305 93.0032 69.4818 93.648 69.2203 94.2468H69.3946C69.569 93.9705 69.7433 93.7862 69.8741 93.7862C70.0485 93.7862 70.1356 94.0626 69.8741 94.6614L69.1331 96.3657C69.0024 96.6881 69.1331 96.9184 69.4382 96.9184C69.6126 96.9184 69.6998 96.8723 69.7869 96.642L70.5279 94.6153C70.7458 94.3389 70.9202 94.1086 71.1381 93.8783H71.8355V93.9244ZM66.6051 96.8263L66.6923 96.596C65.7769 96.4117 65.6898 96.4117 66.0385 95.3984L66.3872 94.2929H67.3897C67.8255 94.2929 67.8255 94.4771 67.7819 94.9838H68.0435L68.6537 93.2335H68.3921C68.1742 93.648 67.9999 93.9244 67.5204 93.9244H66.5179L67.041 92.4044C67.2153 91.9437 67.3025 91.8056 67.9127 91.8056H68.3486C68.9588 91.8056 69.046 91.9898 69.046 92.6807H69.3075L69.5254 91.4831H65.7769L65.6898 91.7134C66.4307 91.8516 66.4743 91.9437 66.1256 92.911L65.2975 95.2602C64.9488 96.2275 64.818 96.3196 63.9899 96.4578L63.9463 96.6881H66.6051V96.8263ZM84.9987 84.6199C85.2603 84.6199 85.4782 84.8042 85.3474 85.3109L84.1706 85.5872C84.3885 85.0345 84.7372 84.6199 84.9987 84.6199ZM85.6526 86.6006H85.4346C85.1295 86.9691 84.8244 87.2454 84.5193 87.2454C84.2142 87.2454 84.0398 87.0612 84.0398 86.6006C84.0398 86.4163 84.0398 86.2321 84.0834 86.0478L85.9577 85.403C86.3064 84.4817 85.8705 84.0672 85.3474 84.0672C84.4757 84.0672 83.4296 85.6333 83.4296 87.0151C83.4296 87.6139 83.6911 87.9824 84.127 87.9824C84.6501 87.9824 85.2167 87.4758 85.6526 86.6006ZM85.2603 83.6987L86.5679 82.409V82.2708H85.8705L85.0423 83.7448H85.2603V83.6987ZM81.2067 84.6199H81.8169L80.8144 87.4758C80.7272 87.7061 80.858 87.9824 81.0759 87.9824C81.6426 87.9824 82.5579 87.3836 82.863 86.6006H82.6886C82.4271 86.877 81.9477 87.2454 81.5554 87.3376L82.4707 84.666H83.386L83.5168 84.2514H82.6015L82.9502 83.2381H82.6015L81.9477 84.2514L81.1631 84.3436V84.6199H81.2067ZM80.3785 84.4817C80.4657 84.2054 80.2914 84.0672 80.1606 84.0672C79.6376 84.0672 78.9838 84.5739 78.7222 85.3109H78.8966C79.0709 85.0345 79.376 84.7581 79.6376 84.712L78.5915 87.5679C78.5043 87.8442 78.6787 87.9824 78.8094 87.9824C79.3325 87.9824 79.9427 87.4758 80.2042 86.7388H80.0298C79.8555 87.0151 79.5504 87.2915 79.2889 87.3376L80.3785 84.4817ZM80.5529 83.0538C80.8144 83.0538 80.9888 82.8235 80.9888 82.5932C80.9888 82.3168 80.7708 82.1326 80.5529 82.1326C80.2914 82.1326 80.117 82.3629 80.117 82.5932C80.117 82.8696 80.2914 83.0538 80.5529 83.0538ZM76.9352 87.3376L78.8094 82.0865L78.7658 81.9944L77.589 82.1326V82.2708L77.8069 82.455C78.0249 82.6393 77.9377 82.7775 77.7633 83.3302L76.2814 87.4297C76.1942 87.66 76.325 87.9364 76.5429 87.9364C77.0659 87.9364 77.6762 87.4297 77.9377 86.6927H77.7633C77.589 87.0151 77.1967 87.2915 76.9352 87.3376ZM73.3175 86.8769C73.3175 86.0018 74.2328 84.8042 74.7558 84.8042C74.8866 84.8042 74.9738 84.8042 75.0609 84.8502L74.5379 86.3703C74.2328 86.7848 73.7533 87.2454 73.5354 87.2454C73.4046 87.2454 73.3175 87.1073 73.3175 86.8769ZM76.1942 83.929H75.8891L75.584 84.2514H75.5404C73.9713 84.2514 72.6637 86.0939 72.6637 87.4297C72.6637 87.7982 72.8816 88.0285 73.2303 88.0285C73.6226 88.0285 74.0149 87.4297 74.4507 86.7848V87.0151C74.4071 87.66 74.5815 88.0285 74.9302 88.0285C75.3225 88.0285 75.6712 87.3836 75.9327 86.7848H75.7583C75.584 87.0612 75.4096 87.2454 75.2789 87.2454C75.1481 87.2454 75.0174 86.9691 75.2789 86.3703L76.1942 83.929ZM69.2639 88.6734C69.2639 88.3049 69.6126 88.0746 70.092 87.8442C70.2664 87.9364 70.4843 88.0285 70.833 88.1206C71.3561 88.3049 71.5304 88.3509 71.5304 88.5352C71.5304 88.9037 70.9638 89.134 70.1792 89.134C69.6126 89.18 69.2639 89.0419 69.2639 88.6734ZM70.7023 86.3703C70.4843 86.3703 70.3971 86.186 70.3971 85.9557C70.3971 85.3108 70.7023 84.3896 71.2253 84.3896C71.4432 84.3896 71.5304 84.5739 71.5304 84.8042C71.5304 85.403 71.1817 86.3703 70.7023 86.3703ZM72.1842 88.3049C72.1842 87.8442 71.7919 87.66 71.1817 87.4758C70.6587 87.2915 70.3971 87.2454 70.3971 87.0612C70.3971 86.923 70.5279 86.7388 70.7458 86.6006C71.6176 86.5545 72.2278 85.7254 72.2278 84.9884C72.2278 84.8502 72.1842 84.712 72.1406 84.5739H72.8816L73.0124 84.1593H71.8355C71.7048 84.0672 71.5304 84.0211 71.3561 84.0211C70.3971 84.0211 69.7869 84.8963 69.7869 85.5872C69.7869 86.14 70.092 86.4624 70.5279 86.5545C70.092 86.7848 69.8305 87.0151 69.8305 87.2915C69.8305 87.4758 69.8741 87.5679 70.0049 87.66C69.0024 87.9824 68.5665 88.3509 68.5665 88.8576C68.5665 89.3643 69.1767 89.5485 69.9177 89.5485C71.1381 89.6407 72.1842 88.9037 72.1842 88.3049ZM67.4332 85.2648C67.8691 85.2648 67.8691 85.449 67.8255 85.9557H68.087L68.6973 84.2054H68.4357C68.2178 84.6199 68.0435 84.8963 67.564 84.8963H66.5615L67.041 83.4684C67.2153 83.0078 67.3025 82.9156 67.9127 82.9156H68.3486C68.9588 82.9156 69.046 83.0999 69.046 83.7448H69.3075L69.5254 82.5471H65.7769L65.6898 82.7775C66.4307 82.9156 66.4743 83.0078 66.1256 83.9751L65.2975 86.3242C64.9488 87.2915 64.818 87.3836 63.9899 87.5218L63.9463 87.7521H68.1306L68.8716 86.5085H68.5665C68.087 86.9691 67.4768 87.4297 66.6487 87.4297C65.559 87.4297 65.6462 87.3836 65.9949 86.3242L66.3872 85.1727H67.4332V85.2648ZM67.9563 82.2708L69.2639 81.3035V81.1653H68.4793L67.7383 82.2708H67.9563ZM84.5629 75.6379C84.8244 75.6379 85.0423 75.8221 84.9116 76.3288L83.7347 76.6052C83.9527 76.0524 84.2578 75.6379 84.5629 75.6379ZM85.1731 77.6185H84.9552C84.6501 77.987 84.3449 78.2634 84.0398 78.2634C83.7347 78.2634 83.5604 78.0792 83.5604 77.6185C83.5604 77.4343 83.5604 77.2501 83.604 77.0658L85.4782 76.4209C85.8269 75.4997 85.391 75.0851 84.868 75.0851C83.9963 75.0851 82.9502 76.6512 82.9502 78.0331C82.9502 78.6319 83.2117 79.0004 83.6476 79.0004C84.2142 79.0004 84.7372 78.4937 85.1731 77.6185ZM84.8244 74.7627L86.132 73.473V73.3348H85.4346L84.6065 74.8088H84.8244V74.7627ZM80.9452 75.684H81.4246L80.4221 78.5398C80.335 78.7701 80.4657 79.0465 80.6837 79.0465C81.2503 79.0465 82.1656 78.4476 82.4707 77.6646H82.2964C82.0348 77.941 81.5554 78.3095 81.1631 78.4016L82.0784 75.73H82.9938L83.1245 75.3155H82.2092L82.5579 74.3021H82.2092L81.5554 75.3155L80.9016 75.4076V75.684H80.9452ZM80.4221 76.0064C80.5529 75.5458 80.4657 75.1312 80.1606 75.1312C79.7683 75.1312 79.6376 75.4536 79.2453 76.3749V75.8221C79.2453 75.4536 79.1145 75.0851 78.8094 75.0851C78.4171 75.0851 78.0684 75.73 77.8069 76.3288H77.9813C78.1556 76.0524 78.33 75.8682 78.4607 75.8682C78.6351 75.8682 78.7222 76.1446 78.4607 76.7434L77.7197 78.4477C77.589 78.7701 77.7197 79.0004 78.0249 79.0004C78.1992 79.0004 78.2864 78.9543 78.3735 78.724L79.1145 76.6973C79.3325 76.4209 79.5068 76.1906 79.7247 75.9603H80.4221V76.0064ZM76.2814 75.6379C76.5429 75.6379 76.7608 75.8221 76.6301 76.3288L75.4532 76.6052C75.6712 76.0524 76.0199 75.6379 76.2814 75.6379ZM76.9352 77.6185H76.7172C76.4121 77.987 76.107 78.2634 75.8019 78.2634C75.4968 78.2634 75.3225 78.0792 75.3225 77.6185C75.3225 77.4343 75.3225 77.2501 75.3661 77.0658L77.2403 76.4209C77.589 75.4997 77.1531 75.0851 76.6301 75.0851C75.7583 75.0851 74.7122 76.6512 74.7122 78.0331C74.7122 78.6319 74.9738 79.0004 75.4096 79.0004C75.9327 79.0004 76.4993 78.4937 76.9352 77.6185ZM72.315 78.4477C72.1406 78.4477 71.8791 78.2634 71.8791 78.1252C71.8791 78.0792 71.9663 77.8488 72.0534 77.5725L72.3586 76.6973C72.6637 76.2828 73.1867 75.8682 73.4482 75.8682C73.6226 75.8682 73.7533 75.9603 73.7533 76.2367C73.7533 77.0197 73.0559 78.4477 72.315 78.4477ZM74.4507 75.9143C74.4507 75.3155 74.2328 75.1312 73.8841 75.1312C73.4046 75.1312 72.9688 75.6839 72.5329 76.3288L73.6662 73.1966L73.6226 73.1045L72.4457 73.2427V73.3809L72.6637 73.5651C72.8816 73.7494 72.7944 73.9336 72.6201 74.4403L71.3996 77.7567C71.3125 77.987 71.1817 78.3095 71.1817 78.3555C71.1817 78.678 71.6176 79.0004 72.0099 79.0004C72.9252 79.0004 74.4507 77.2501 74.4507 75.9143ZM70.7458 75.5458C70.833 75.2694 70.6587 75.1312 70.5279 75.1312C70.0049 75.1312 69.3511 75.6379 69.0895 76.3749H69.2639C69.4382 76.0985 69.7433 75.8221 70.0049 75.7761L68.9588 78.6319C68.8716 78.9083 69.046 79.0465 69.1767 79.0465C69.6998 79.0465 70.31 78.5398 70.5715 77.8028H70.3971C70.2228 78.0792 69.9177 78.3555 69.6562 78.4016L70.7458 75.5458ZM70.9202 74.0718C71.1817 74.0718 71.3561 73.8415 71.3561 73.6112C71.3561 73.3348 71.1381 73.1506 70.9202 73.1506C70.6587 73.1506 70.4843 73.3809 70.4843 73.6112C70.4843 73.8875 70.7023 74.0718 70.9202 74.0718ZM68.2178 73.6112H65.7334L65.6462 73.8415C66.3872 73.9797 66.4307 74.0718 66.082 75.0391L65.2975 77.3882C64.9488 78.3555 64.818 78.4476 63.9899 78.5858L63.9463 78.8161H67.6948L68.5229 77.2961H68.2178C67.7383 77.8489 67.2153 78.4937 66.3872 78.4937C65.7769 78.4937 65.6898 78.4016 66.0385 77.3882L66.823 75.0391C67.1717 74.0718 67.3025 73.9797 68.1306 73.8415L68.2178 73.6112Z" fill="black"/>
<path d="M63.9463 52.1466V42.6579H66.2564L68.4357 46.5732L70.6151 42.6579H72.9252V52.1927H71.0945V45.3756L69.0895 48.8762H67.8255L65.8205 45.3756V52.1466H63.9463ZM75.4096 52.1466V42.6579H77.2403V52.1927H75.4096V52.1466ZM79.7247 52.1466V42.6579H82.0784L86.0884 49.475V42.6579H87.9191V52.1927H85.5654L81.5554 45.3756V52.1927H79.7247V52.1466ZM90.4471 52.1466V42.6579H92.2778V52.1927H90.4471V52.1466ZM93.9776 50.8569L95.2853 49.5672C95.5468 49.9357 95.8519 50.212 96.2006 50.4423C96.5493 50.6726 96.898 50.7648 97.2902 50.7648C97.6389 50.7648 97.944 50.6726 98.1184 50.4884C98.3363 50.3042 98.4235 50.0278 98.4235 49.6593C98.4235 49.2447 98.2056 48.9223 97.7697 48.692C97.3338 48.4617 96.8544 48.2314 96.3749 47.955C95.8955 47.6786 95.3724 47.3562 94.9801 46.9416C94.5879 46.5271 94.3263 45.9283 94.3263 45.1452C94.3263 44.7767 94.4135 44.4083 94.5443 44.0858C94.675 43.7634 94.893 43.441 95.1545 43.2106C95.416 42.9803 95.7211 42.75 96.0698 42.6118C96.4185 42.4737 96.8108 42.3815 97.2467 42.3815C97.9005 42.3815 98.5107 42.5197 99.0337 42.8422C99.5568 43.1185 99.9926 43.5331 100.385 43.9937L99.0337 45.2374C98.7722 44.8689 98.4671 44.5925 98.2056 44.3622C97.9005 44.1319 97.5954 44.0398 97.2467 44.0398C96.9416 44.0398 96.68 44.1319 96.5057 44.3161C96.3313 44.5004 96.2442 44.7307 96.2442 45.0071C96.2442 45.4216 96.4621 45.744 96.898 45.9744C97.3338 46.2047 97.8133 46.435 98.2927 46.7113C98.7722 46.9877 99.2952 47.3101 99.6875 47.7247C100.123 48.1393 100.341 48.7381 100.341 49.5672C100.341 50.0278 100.254 50.3963 100.08 50.7648C99.9055 51.1333 99.6875 51.4096 99.426 51.6399C99.1645 51.8703 98.8594 52.0545 98.4671 52.1927C98.0748 52.3309 97.7261 52.3769 97.2902 52.3769C96.5493 52.3769 95.8955 52.2387 95.3288 51.9624C94.8494 51.7321 94.3699 51.3636 93.9776 50.8569ZM101.257 44.4083V42.6579H108.623V44.4083H105.833V52.1466H104.003V44.4083H101.257ZM110.236 52.1466V42.6579H115.466V44.3161H112.066V46.5271H114.987V48.1853H112.066V50.5345H115.466V52.1927H110.236V52.1466ZM112.023 41.8288L110.366 39.9863H112.241L113.679 41.8288H112.023ZM117.602 52.1466V42.6579H120.348C121.35 42.6579 122.135 42.9343 122.701 43.441C123.268 43.9476 123.573 44.6386 123.573 45.5137C123.573 46.0665 123.442 46.5732 123.181 46.9877C122.919 47.4023 122.571 47.7247 122.135 47.955L124.968 52.1466H122.789L120.391 48.3235H119.432V52.1466H117.602ZM120.435 44.3161H119.389V46.7113H120.435C120.827 46.7113 121.132 46.6192 121.35 46.3889C121.568 46.1586 121.655 45.8822 121.655 45.5137C121.655 45.1452 121.568 44.8689 121.35 44.6386C121.132 44.4083 120.827 44.3161 120.435 44.3161ZM126.058 52.1466V42.6579H131.288V44.3161H127.888V46.5271H130.809V48.1853H127.888V50.5345H131.288V52.1927H126.058V52.1466ZM63.9463 66.5179V56.9831H67.4768C68.1742 56.9831 68.828 57.1213 69.4382 57.3516C70.0485 57.628 70.5279 57.9504 70.9638 58.365C71.3996 58.7795 71.7048 59.2862 71.9227 59.885C72.1406 60.4377 72.2714 61.0826 72.2714 61.7275C72.2714 62.3723 72.1406 62.9711 71.9227 63.5699C71.7048 64.1227 71.3561 64.6293 70.9638 65.09C70.5279 65.5045 70.0485 65.873 69.4382 66.1033C68.828 66.3797 68.1742 66.4718 67.4768 66.4718H63.9463V66.5179ZM67.5204 58.7795H65.7769V64.7675H67.5204C67.9563 64.7675 68.305 64.6754 68.6973 64.5372C69.046 64.399 69.3511 64.1687 69.6126 63.8924C69.8741 63.616 70.0485 63.2936 70.2228 62.9251C70.3536 62.5566 70.4407 62.1881 70.4407 61.7275C70.4407 61.3129 70.3536 60.8983 70.2228 60.5299C70.092 60.1614 69.8741 59.8389 69.6126 59.5626C69.3511 59.2862 69.046 59.1019 68.6973 58.9177C68.305 58.8716 67.9127 58.7795 67.5204 58.7795ZM74.0149 66.5179V56.9831H79.2453V58.6413H75.8455V60.8523H78.7658V62.5105H75.8455V64.9057H79.2453V66.5639H74.0149V66.5179ZM84.7372 66.5179V56.9831H86.5679V64.7215H89.9677V66.4718H84.7372V66.5179ZM91.1009 60.9444H89.5754L90.7522 57.0292H92.5829L91.1009 60.9444ZM94.0212 66.5179V56.9831H95.8519V66.5179H94.0212ZM98.3799 66.5179V56.9831H100.734L104.744 63.8002V56.9831H106.574V66.5179H104.221L100.211 59.7007V66.5179H98.3799ZM108.143 58.7795V57.0292H115.51V58.7795H112.72V66.5179H110.889V58.7795H108.143ZM117.122 66.5179V56.9831H122.353V58.6413H118.953V60.8523H121.873V62.5105H118.953V64.9057H122.353V66.5639H117.122V66.5179ZM120.566 56.2001H118.909L120.348 54.3576H122.222L120.566 56.2001ZM124.488 66.5179V56.9831H127.234C128.237 56.9831 129.021 57.2595 129.588 57.7662C130.155 58.2728 130.46 58.9638 130.46 59.8389C130.46 60.3917 130.329 60.8984 130.068 61.3129C129.806 61.7275 129.457 62.0499 129.021 62.2802L131.855 66.4718H129.675L127.278 62.6487H126.319V66.4718H124.488V66.5179ZM127.365 58.6874H126.319V61.0826H127.365C127.757 61.0826 128.063 60.9905 128.281 60.7602C128.498 60.5299 128.586 60.2535 128.586 59.885C128.586 59.5165 128.498 59.2401 128.281 59.0098C128.063 58.7795 127.757 58.6874 127.365 58.6874ZM132.988 66.5179V56.9831H134.819V66.5179H132.988ZM137.303 66.5179V56.9831H142.533V58.6413H139.134V60.8523H142.054V62.5105H139.134V64.9057H142.533V66.5639H137.303V66.5179ZM149.943 62.9711V57.0292H151.774V62.8329C151.774 64.0766 151.425 65.0439 150.771 65.7809C150.118 66.4718 149.246 66.8403 148.113 66.8403C146.979 66.8403 146.108 66.4718 145.454 65.7809C144.8 65.09 144.495 64.0766 144.495 62.8329V57.0292H146.325V62.9711C146.325 63.616 146.5 64.1227 146.805 64.4451C147.11 64.8136 147.59 64.9978 148.156 64.9978C148.723 64.9978 149.159 64.8136 149.464 64.4451C149.769 64.1227 149.943 63.616 149.943 62.9711ZM154.04 66.5179V56.9831H156.786C157.789 56.9831 158.573 57.2595 159.14 57.7662C159.707 58.2728 160.012 58.9638 160.012 59.8389C160.012 60.3917 159.881 60.8984 159.619 61.3129C159.358 61.7275 159.009 62.0499 158.573 62.2802L161.407 66.4718H159.227L156.83 62.6487H155.871V66.4718H154.04V66.5179ZM156.874 58.6874H155.827V61.0826H156.874C157.266 61.0826 157.571 60.9905 157.789 60.7602C158.007 60.5299 158.094 60.2535 158.094 59.885C158.094 59.5165 158.007 59.2401 157.789 59.0098C157.571 58.7795 157.266 58.6874 156.874 58.6874Z" fill="black"/>
<path d="M77.9809 34.597C78.1117 34.4588 78.2424 34.3206 78.3732 34.1364C78.6347 33.86 78.8526 33.5376 79.1577 33.3072C79.2449 33.2151 79.3321 33.1691 79.4193 33.0769C79.4629 33.0309 79.4628 32.9848 79.4628 32.9848C79.3321 33.0309 79.2885 33.123 79.1577 33.1691C79.1142 33.1691 79.1142 33.123 79.1142 33.123C79.2013 33.0769 79.2885 32.9848 79.3757 32.9388C79.3321 32.9388 79.3321 32.8927 79.3321 32.8927C79.027 32.8466 78.809 33.0769 78.5911 33.2612C78.5475 33.3072 78.5039 33.2151 78.4604 33.2151C78.1117 33.3533 77.8501 33.6757 77.5014 33.8139V33.7679C77.3707 33.8139 77.2399 33.906 77.0656 33.9521C76.8476 33.9982 76.6733 33.9982 76.4989 33.9982C76.2374 34.0442 75.9323 34.0903 75.6708 34.1364C75.6708 34.1364 75.6708 34.1364 75.6272 34.1364C75.4964 34.1824 75.3221 34.2285 75.1913 34.3206L75.1477 34.3667C75.1042 34.4127 75.0606 34.4588 74.9734 34.5049C74.8426 34.597 74.7119 34.7352 74.5811 34.8273H74.5375C74.4068 34.9655 74.276 35.1037 74.1453 35.1958C74.1453 35.1958 74.1017 35.1958 74.0581 35.1958C74.0581 35.1958 74.0581 35.1958 74.0581 35.1497C74.0581 35.1037 74.1017 35.0576 74.1017 35.0576C74.1453 35.0115 74.1453 34.9655 74.1888 34.9655C74.2324 34.9194 74.2324 34.8733 74.276 34.8273V34.7812C74.276 34.7812 74.276 34.7812 74.2324 34.7812C74.3632 34.643 74.4939 34.5509 74.6247 34.4588C74.6247 34.4588 74.5811 34.4588 74.5811 34.4127L74.6247 34.3667C74.5811 34.4127 74.5375 34.4127 74.4939 34.4588C74.4504 34.5048 74.4068 34.643 74.3196 34.597H74.276C74.276 34.597 74.276 34.597 74.2324 34.597C74.2324 34.597 74.2324 34.597 74.2324 34.5509C74.2324 34.5509 74.2324 34.5049 74.276 34.5049C74.276 34.5049 74.276 34.5048 74.276 34.4588C74.276 34.4588 74.276 34.4127 74.3196 34.4127V34.3667C74.3632 34.3206 74.4068 34.2745 74.4939 34.2285C74.5811 34.1824 74.6683 34.1364 74.7555 34.0903L74.7991 34.0442C74.6683 34.0903 74.5375 34.1364 74.4068 34.2285H74.3632H74.3196C74.3632 34.1824 74.4068 34.1364 74.4504 34.0903C74.4939 34.0903 74.4939 34.0903 74.4939 34.1364C75.2349 33.5376 76.281 33.6757 77.1527 33.3533C77.2399 33.3072 77.2835 33.2612 77.3707 33.2151C77.5014 33.1691 77.5886 33.0309 77.7194 32.9848C77.8937 32.8466 78.0245 32.6624 78.1117 32.4321C78.1117 32.386 78.0681 32.386 78.0681 32.386C77.763 32.7545 77.4143 32.9848 77.022 33.2151C76.5425 33.4915 75.9759 33.4454 75.4964 33.4915C75.54 33.4454 75.5836 33.4454 75.6272 33.4454C75.6272 33.3533 75.6708 33.3533 75.7144 33.3072H75.9759C76.0195 33.3072 76.0195 33.2612 76.0195 33.2612C76.0631 33.2612 76.1502 33.2151 76.1067 33.2151C76.0195 33.123 75.8887 33.3072 75.758 33.2151C75.8016 33.1691 75.8016 33.0769 75.8451 33.0769H75.9323C75.9323 33.0309 75.9759 32.9848 75.9759 32.9848C76.3246 32.7545 76.6733 32.5703 76.9784 32.386C76.8912 32.386 76.8476 32.4781 76.8041 32.4321C76.8476 32.4321 76.8041 32.3399 76.8476 32.3399C77.1092 32.2478 77.3271 32.1096 77.5886 32.0175C77.5014 32.0175 77.4143 32.1096 77.3271 32.0175C77.3707 31.9715 77.4143 31.9254 77.4579 31.9254V31.8333C77.4579 31.7872 77.5014 31.7872 77.5014 31.7872C77.4579 31.7872 77.4579 31.7411 77.4579 31.7411C77.5014 31.6951 77.545 31.6951 77.5886 31.649C77.545 31.649 77.5014 31.649 77.5014 31.603C77.5886 31.5108 77.6758 31.4648 77.8065 31.4648C77.763 31.4187 77.7194 31.4648 77.7194 31.4187C77.7194 31.3727 77.763 31.3727 77.763 31.3727H77.7194C77.6758 31.3266 77.6758 31.2805 77.6758 31.2805C77.8065 31.0963 77.8065 30.866 77.8937 30.6817C77.8501 30.6817 77.8501 30.6817 77.8501 30.6357C77.6322 30.912 77.2399 31.0042 76.8912 31.0963H76.7605C76.6297 31.1423 76.4989 31.1423 76.3682 31.0502C76.281 31.0042 76.2374 30.912 76.1502 30.866C75.9759 30.7278 75.758 30.6357 75.5836 30.5896C75.017 30.4054 74.4068 30.3132 73.7966 30.3132C74.0581 30.175 74.3196 30.175 74.6247 30.0829C75.017 29.9447 75.4093 29.8066 75.8016 29.8526C75.7144 29.8066 75.6272 29.8526 75.5836 29.8526C75.2349 29.8066 74.9298 29.9447 74.5811 29.9908C74.3632 30.0369 74.1453 30.129 73.8837 30.175C73.753 30.2211 73.6658 30.3593 73.4914 30.3593V30.2672C73.7094 29.9908 74.0145 29.6684 74.3632 29.6684C74.7991 29.5762 75.1913 29.6684 75.5836 29.7144C75.8887 29.7605 76.1502 29.8066 76.4554 29.8987C76.5861 29.8987 76.5861 30.0829 76.6733 30.129C76.8041 30.175 76.9348 30.129 77.1092 30.2211C77.1092 30.175 77.0656 30.129 77.1092 30.0829C77.1963 29.9908 77.3271 30.129 77.4143 30.0369C77.5886 29.8987 77.2399 29.7144 77.1527 29.5302C77.1527 29.4841 77.1963 29.4841 77.1963 29.4841C77.3707 29.6684 77.5014 29.8526 77.763 29.9908C77.8937 30.0369 78.1552 30.129 78.1117 29.9447C77.9809 29.6684 77.763 29.4381 77.5886 29.2078V29.1156C77.545 29.1156 77.545 29.0696 77.5014 29.0696V28.9774C77.4143 28.9314 77.4143 28.8393 77.3707 28.7471C77.2835 28.609 77.3271 28.4708 77.2835 28.2865C77.3271 28.1023 77.2835 27.9641 77.2835 27.8259C77.1963 27.4113 77.1092 27.0429 77.0656 26.6283C77.022 26.1677 77.3271 25.7992 77.545 25.3846C77.7194 25.1083 77.8937 24.7858 78.1988 24.6016C78.286 24.3252 78.4604 24.0488 78.6347 23.8185C78.809 23.5882 79.1142 23.45 79.3757 23.3119C79.6808 23.1737 79.9859 23.0815 79.9859 23.0815H84.6497C84.6497 23.0815 84.6933 23.0815 84.7804 23.1276C84.8676 23.1737 85.042 23.2658 85.1291 23.3119C85.3035 23.404 85.4778 23.5422 85.565 23.7264C85.6086 23.8185 85.6958 23.9567 85.6522 24.0488C85.6086 24.187 85.565 24.3713 85.4778 24.4173C85.3471 24.5095 85.1727 24.5095 84.9984 24.4634C84.9112 24.4634 84.824 24.4173 84.7369 24.4173C85.0856 24.5555 85.4342 24.7398 85.6522 25.0622C85.6958 25.1083 85.7829 25.1543 85.8701 25.1543C85.9137 25.1543 85.9137 25.2004 85.9137 25.2464C85.8701 25.2925 85.8265 25.3386 85.8265 25.3846H85.9137C86.0445 25.3386 86.0009 25.1083 86.1752 25.1543C86.306 25.2464 86.3496 25.3846 86.2624 25.5228C86.1752 25.6149 86.0881 25.7071 86.0009 25.7531C85.9573 25.7992 85.9573 25.8913 86.0009 25.9374C86.0881 26.0295 86.0881 26.1216 86.1316 26.2137C86.2188 26.398 86.2188 26.5822 86.306 26.7665C86.3932 27.135 86.4803 27.5035 86.4803 27.872C86.4803 28.0562 86.3932 28.2405 86.4367 28.4247C86.4803 28.6089 86.6111 28.7932 86.6983 28.9314C86.7854 29.0696 86.8726 29.1617 86.9598 29.3459C87.0906 29.5762 87.3521 29.8526 87.2213 30.129C87.1341 30.3132 86.8726 30.2672 86.7419 30.3593C86.6111 30.4975 86.6983 30.6817 86.7854 30.8199C86.9162 31.0502 86.6547 31.1884 86.4803 31.2805C86.5239 31.3727 86.6111 31.3266 86.6547 31.3727C86.6983 31.5108 86.7854 31.5569 86.7419 31.6951C86.6547 31.8333 86.3496 31.9254 86.5239 32.1557C86.6111 32.3399 86.5675 32.5242 86.4803 32.7084C86.3932 32.9388 86.2188 33.0309 86.0445 33.0769C85.9137 33.123 85.7394 33.123 85.6086 33.123C85.565 33.0769 85.5214 33.0769 85.4778 33.0769C85.0856 33.0309 84.6933 32.8927 84.301 32.8927C84.1702 32.9388 84.0831 32.9388 83.9959 32.9848C83.9087 33.0769 83.778 33.1691 83.7344 33.2612L83.6908 33.3072C83.6908 33.3072 83.6908 33.3533 83.6472 33.3533C83.6472 33.3533 83.6472 33.3533 83.6472 33.3994C83.56 33.4915 83.5164 33.5836 83.4728 33.6757V33.7218C83.3857 33.86 83.3421 34.0442 83.2985 34.1824C83.1241 34.7352 83.2113 35.2418 83.3421 35.334C83.3857 35.38 84.1266 35.6103 84.6061 35.8406C84.8676 35.9328 84.9984 36.0249 85.1727 36.117H75.5836C76.0195 35.7946 76.4554 35.6103 77.1092 35.2879C77.1092 35.1497 77.763 34.8273 77.9809 34.597ZM74.4068 32.8006C74.3632 32.8006 74.276 32.8466 74.276 32.7545C74.3196 32.6163 74.4504 32.6163 74.5375 32.5703C74.5811 32.5242 74.6683 32.4781 74.7119 32.5242C74.7555 32.6163 74.8426 32.5703 74.8862 32.6163C74.7555 32.8006 74.5375 32.7545 74.4068 32.8006ZM70.8327 32.2478L70.7891 32.2018C71.0942 31.7872 71.3121 31.3727 71.53 30.9581C71.8351 30.7739 72.0967 30.5435 72.3146 30.2672C72.7069 29.8066 73.1428 29.4381 73.6222 29.1617C73.7966 29.0696 74.0581 29.1156 74.2324 29.2078C74.1453 29.2999 74.0581 29.2999 73.9709 29.3459C73.9273 29.3459 73.9273 29.3459 73.8837 29.2999C73.9273 29.2538 73.9273 29.2538 73.9273 29.2078C73.7094 29.4841 73.3607 29.6223 73.1863 29.9447C73.0556 30.175 72.9684 30.4975 72.6633 30.5896C72.5761 30.6357 72.7069 30.4975 72.6197 30.5435C71.8787 31.0502 71.3993 31.603 70.8327 32.2478ZM72.7505 30.6357C72.7069 30.6817 72.7069 30.6817 72.6633 30.7278C72.6197 30.7739 72.6197 30.8199 72.5761 30.8199C72.5325 30.8199 72.5325 30.8199 72.5325 30.7738C72.5761 30.6817 72.6197 30.5896 72.7069 30.5435C72.7505 30.5896 72.7505 30.6357 72.7505 30.6357ZM73.8401 34.3206C73.8401 34.3667 73.7966 34.3667 73.7966 34.4127C73.8401 34.4127 73.8401 34.4127 73.8401 34.4588C73.7966 34.5048 73.753 34.5509 73.6658 34.597C73.6658 34.597 73.6658 34.597 73.6222 34.597C73.5786 34.643 73.5786 34.643 73.535 34.6891C73.4914 34.7352 73.3607 34.6891 73.4043 34.643C73.4479 34.597 73.535 34.5048 73.5786 34.4588C73.6222 34.4127 73.6658 34.4127 73.6658 34.3667L73.7094 34.3206C73.753 34.3206 73.8837 34.2745 73.8401 34.3206ZM73.4479 34.1364C73.4043 34.1364 73.4043 34.1364 73.4479 34.1364C73.3607 34.2285 73.2735 34.2745 73.1863 34.3206C73.0992 34.3667 72.9684 34.4127 72.8812 34.4588H72.8376C72.7505 34.5048 72.6633 34.597 72.6197 34.643C72.6197 34.643 72.6197 34.643 72.5761 34.6891L72.5325 34.7352L72.489 34.7812C72.489 34.7812 72.489 34.8273 72.4454 34.8273H72.4018H72.3582H72.3146C72.271 34.8733 72.271 34.8733 72.2274 34.9194C72.1838 34.9655 72.1403 35.0115 72.0967 35.0576C72.0967 35.0576 72.0967 35.0576 72.0967 35.1037V35.0576C72.1403 35.0115 72.1403 35.0115 72.1838 34.9655C72.1838 34.9655 72.1838 34.9655 72.2274 34.9194L72.271 34.8733C72.3146 34.8273 72.3146 34.7812 72.3582 34.7812L72.4018 34.7352C72.4018 34.7352 72.4018 34.6891 72.4454 34.6891C72.4454 34.6891 72.4454 34.643 72.489 34.643C72.489 34.643 72.489 34.643 72.489 34.597V34.5509C72.5325 34.5048 72.5325 34.4588 72.5761 34.4127C72.5325 34.4127 72.5325 34.4588 72.489 34.5049C72.4454 34.5049 72.4018 34.5048 72.4454 34.4588L72.489 34.4127C72.5325 34.3667 72.5761 34.3206 72.6197 34.2745C72.6633 34.2745 72.6633 34.2285 72.7069 34.2285L72.7505 34.1824C72.9684 33.9521 73.3607 33.9521 73.6658 33.8139C73.7966 33.7679 73.9273 33.86 74.0581 33.8139C74.1453 33.8139 74.1888 33.8139 74.276 33.86C73.7966 33.86 73.6222 33.9982 73.4479 34.1364ZM73.8837 32.4321C73.8401 32.386 73.9709 32.4321 73.9709 32.386H73.7966C73.753 32.386 73.753 32.3399 73.753 32.3399C73.6222 32.386 73.4914 32.4321 73.3607 32.4321C73.1863 32.4781 73.0556 32.6163 72.8812 32.6624C72.6197 32.7545 72.4018 32.9848 72.1403 33.0769C72.0967 33.0769 72.0967 33.0309 72.0967 33.0309C72.1403 32.9388 72.2274 32.9388 72.271 32.8466C72.271 32.8006 72.271 32.8006 72.2274 32.8006C72.4018 32.5242 72.6633 32.386 72.9248 32.1557V32.0636C73.012 31.9715 73.0992 31.9254 73.1428 31.7872C73.1863 31.6951 73.2735 31.603 73.3607 31.5569C73.3171 31.5108 73.2735 31.5108 73.2735 31.4648C73.1863 31.4648 73.0992 31.5108 73.012 31.4187C73.0556 31.3727 73.0992 31.3266 73.1428 31.3266C73.1428 31.3266 73.0992 31.3266 73.0992 31.2805C73.0556 31.2345 73.1428 31.1884 73.2299 31.1423C73.3171 31.0963 73.4479 31.0963 73.4914 31.0502C73.3171 31.0042 73.1428 31.0963 72.9684 31.0042C73.0992 30.6817 73.2735 30.4054 73.535 30.2672C73.5786 30.2672 73.6222 30.2672 73.6222 30.3132C73.6222 30.4514 73.535 30.5435 73.4479 30.5435C73.6222 30.5896 73.8401 30.5896 74.0145 30.6817C73.9709 30.7278 73.9273 30.7278 73.9273 30.7278C74.0581 30.8199 74.1888 30.7739 74.3196 30.866C74.2324 30.9581 74.1888 30.866 74.1017 30.866C74.8426 31.0963 75.5836 31.2805 76.1938 31.7411C75.6708 32.0175 75.1477 32.1557 74.5811 32.2478C74.4939 32.2478 74.4504 32.2478 74.4068 32.2018C74.4068 32.2478 74.4068 32.2939 74.3632 32.2939C74.276 32.2939 74.1888 32.2939 74.1453 32.3399C74.1017 32.4781 73.9709 32.4781 73.8837 32.4321Z" fill="white"/>
<path d="M77.9813 34.597C78.112 34.4588 78.2428 34.3206 78.3735 34.1364C78.6351 33.86 78.853 33.5376 79.1581 33.3072C79.2453 33.2151 79.3325 33.1691 79.4196 33.0769C79.4632 33.0309 79.4632 32.9848 79.4632 32.9848C79.3325 33.0309 79.2889 33.123 79.1581 33.1691C79.1145 33.1691 79.1145 33.123 79.1145 33.123C79.2017 33.0769 79.2889 32.9848 79.376 32.9388C79.3325 32.9388 79.3325 32.8927 79.3325 32.8927C79.0273 32.8466 78.8094 33.0769 78.5915 33.2612C78.5479 33.3072 78.5043 33.2151 78.4607 33.2151C78.112 33.3533 77.8505 33.6757 77.5018 33.8139V33.7679C77.371 33.8139 77.2403 33.906 77.0659 33.9521C76.848 33.9982 76.6737 33.9982 76.4993 33.9982C76.2378 34.0442 75.9327 34.0903 75.6712 34.1364C75.6712 34.1364 75.6712 34.1364 75.6276 34.1364C75.4968 34.1824 75.3225 34.2285 75.1917 34.3206L75.1481 34.3667C75.1045 34.4127 75.0609 34.4588 74.9738 34.5049C74.843 34.597 74.7122 34.7352 74.5815 34.8273H74.5379C74.4071 34.9655 74.2764 35.1037 74.1456 35.1958C74.1456 35.1958 74.102 35.1958 74.0584 35.1958C74.0584 35.1958 74.0584 35.1958 74.0584 35.1497C74.0584 35.1037 74.102 35.0576 74.102 35.0576C74.1456 35.0115 74.1456 34.9655 74.1892 34.9655C74.2328 34.9194 74.2328 34.8733 74.2764 34.8273V34.7812C74.2764 34.7812 74.2764 34.7812 74.2328 34.7812C74.3636 34.643 74.4943 34.5509 74.6251 34.4588C74.6251 34.4588 74.5815 34.4588 74.5815 34.4127L74.6251 34.3667C74.5815 34.4127 74.5379 34.4127 74.4943 34.4588C74.4507 34.5048 74.4071 34.643 74.32 34.597H74.2764C74.2764 34.597 74.2764 34.597 74.2328 34.597C74.2328 34.597 74.2328 34.597 74.2328 34.5509C74.2328 34.5509 74.2328 34.5049 74.2764 34.5049C74.2764 34.5049 74.2764 34.5048 74.2764 34.4588C74.2764 34.4588 74.2764 34.4127 74.32 34.4127V34.3667C74.3636 34.3206 74.4071 34.2745 74.4943 34.2285C74.5815 34.1824 74.6687 34.1364 74.7558 34.0903L74.7994 34.0442C74.6687 34.0903 74.5379 34.1364 74.4071 34.2285H74.3636H74.32C74.3636 34.1824 74.4071 34.1364 74.4507 34.0903C74.4943 34.0903 74.4943 34.0903 74.4943 34.1364C75.2353 33.5376 76.2814 33.6757 77.1531 33.3533C77.2403 33.3072 77.2839 33.2612 77.371 33.2151C77.5018 33.1691 77.589 33.0309 77.7197 32.9848C77.8941 32.8466 78.0248 32.6624 78.112 32.4321C78.112 32.386 78.0684 32.386 78.0684 32.386C77.7633 32.7545 77.4146 32.9848 77.0224 33.2151C76.5429 33.4915 75.9763 33.4454 75.4968 33.4915C75.5404 33.4454 75.584 33.4454 75.6276 33.4454C75.6276 33.3533 75.6712 33.3533 75.7147 33.3072H75.9763C76.0199 33.3072 76.0199 33.2612 76.0199 33.2612C76.0634 33.2612 76.1506 33.2151 76.107 33.2151C76.0199 33.123 75.8891 33.3072 75.7583 33.2151C75.8019 33.1691 75.8019 33.0769 75.8455 33.0769H75.9327C75.9327 33.0309 75.9763 32.9848 75.9763 32.9848C76.325 32.7545 76.6737 32.5703 76.9788 32.386C76.8916 32.386 76.848 32.4781 76.8044 32.4321C76.848 32.4321 76.8044 32.3399 76.848 32.3399C77.1095 32.2478 77.3275 32.1096 77.589 32.0175C77.5018 32.0175 77.4146 32.1096 77.3275 32.0175C77.371 31.9715 77.4146 31.9254 77.4582 31.9254V31.8333C77.4582 31.7872 77.5018 31.7872 77.5018 31.7872C77.4582 31.7872 77.4582 31.7411 77.4582 31.7411C77.5018 31.6951 77.5454 31.6951 77.589 31.649C77.5454 31.649 77.5018 31.649 77.5018 31.603C77.589 31.5108 77.6762 31.4648 77.8069 31.4648C77.7633 31.4187 77.7197 31.4648 77.7197 31.4187C77.7197 31.3727 77.7633 31.3727 77.7633 31.3727H77.7197C77.6762 31.3266 77.6762 31.2805 77.6762 31.2805C77.8069 31.0963 77.8069 30.866 77.8941 30.6817C77.8505 30.6817 77.8505 30.6817 77.8505 30.6357C77.6326 30.912 77.2403 31.0042 76.8916 31.0963H76.7608C76.6301 31.1423 76.4993 31.1423 76.3685 31.0502C76.2814 31.0042 76.2378 30.912 76.1506 30.866C75.9763 30.7278 75.7583 30.6357 75.584 30.5896C75.0174 30.4054 74.4071 30.3132 73.7969 30.3132C74.0584 30.175 74.32 30.175 74.6251 30.0829C75.0174 29.9447 75.4096 29.8066 75.8019 29.8526C75.7147 29.8066 75.6276 29.8526 75.584 29.8526C75.2353 29.8066 74.9302 29.9447 74.5815 29.9908C74.3636 30.0369 74.1456 30.129 73.8841 30.175C73.7533 30.2211 73.6662 30.3593 73.4918 30.3593V30.2672C73.7097 29.9908 74.0149 29.6684 74.3636 29.6684C74.7994 29.5762 75.1917 29.6684 75.584 29.7144C75.8891 29.7605 76.1506 29.8066 76.4557 29.8987C76.5865 29.8987 76.5865 30.0829 76.6737 30.129C76.8044 30.175 76.9352 30.129 77.1095 30.2211C77.1095 30.175 77.0659 30.129 77.1095 30.0829C77.1967 29.9908 77.3275 30.129 77.4146 30.0369C77.589 29.8987 77.2403 29.7144 77.1531 29.5302C77.1531 29.4841 77.1967 29.4841 77.1967 29.4841C77.371 29.6684 77.5018 29.8526 77.7633 29.9908C77.8941 30.0369 78.1556 30.129 78.112 29.9447C77.9813 29.6684 77.7633 29.4381 77.589 29.2078V29.1156C77.5454 29.1156 77.5454 29.0696 77.5018 29.0696V28.9774C77.4146 28.9314 77.4146 28.8393 77.371 28.7471C77.2839 28.609 77.3275 28.4708 77.2839 28.2865C77.3275 28.1023 77.2839 27.9641 77.2839 27.8259C77.1967 27.4113 77.1095 27.0429 77.0659 26.6283C77.0224 26.1677 77.3275 25.7992 77.5454 25.3846C77.7197 25.1083 77.8941 24.7858 78.1992 24.6016C78.2864 24.3252 78.4607 24.0488 78.6351 23.8185C78.8094 23.5882 79.1145 23.45 79.376 23.3119C79.6812 23.1737 79.9863 23.0815 79.9863 23.0815H63.9463V36.117H75.2789C75.7147 35.7946 76.1506 35.6103 76.8044 35.2879C77.1095 35.1497 77.7633 34.8273 77.9813 34.597ZM74.4071 32.8006C74.3636 32.8006 74.2764 32.8466 74.2764 32.7545C74.32 32.6163 74.4507 32.6163 74.5379 32.5703C74.5815 32.5242 74.6687 32.4781 74.7122 32.5242C74.7558 32.6163 74.843 32.5703 74.8866 32.6163C74.7558 32.8006 74.5815 32.7545 74.4071 32.8006ZM70.833 32.2478L70.7894 32.2018C71.0945 31.7872 71.3125 31.3727 71.5304 30.9581C71.8355 30.7739 72.097 30.5435 72.315 30.2672C72.7072 29.8066 73.1431 29.4381 73.6226 29.1617C73.7969 29.0696 74.0584 29.1156 74.2328 29.2078C74.1456 29.2999 74.0584 29.2999 73.9713 29.3459C73.9277 29.3459 73.9277 29.3459 73.8841 29.2999C73.9277 29.2538 73.9277 29.2538 73.9277 29.2078C73.7097 29.4841 73.3611 29.6223 73.1867 29.9447C73.0559 30.175 72.9688 30.4975 72.6637 30.5896C72.5765 30.6357 72.7072 30.4975 72.6201 30.5435C71.8791 31.0502 71.3996 31.603 70.833 32.2478ZM72.7508 30.6357C72.7072 30.6817 72.7073 30.6817 72.6637 30.7278C72.6201 30.7739 72.6201 30.8199 72.5765 30.8199C72.5329 30.8199 72.5329 30.8199 72.5329 30.7738C72.5765 30.6817 72.6201 30.5896 72.7073 30.5435C72.7508 30.5896 72.7508 30.6357 72.7508 30.6357ZM73.8405 34.3206C73.8405 34.3667 73.7969 34.3667 73.7969 34.4127C73.8405 34.4127 73.8405 34.4127 73.8405 34.4588C73.7969 34.5048 73.7533 34.5509 73.6662 34.597C73.6662 34.597 73.6662 34.597 73.6226 34.597C73.579 34.643 73.579 34.643 73.5354 34.6891C73.4918 34.7352 73.3611 34.6891 73.4046 34.643C73.4482 34.597 73.5354 34.5048 73.579 34.4588C73.6226 34.4127 73.6662 34.4127 73.6662 34.3667L73.7097 34.3206C73.7533 34.3206 73.8841 34.2745 73.8405 34.3206ZM73.4482 34.1364C73.4046 34.1364 73.4046 34.1364 73.4482 34.1364C73.3611 34.2285 73.2739 34.2745 73.1867 34.3206C73.0995 34.3667 72.9688 34.4127 72.8816 34.4588H72.838C72.7508 34.5048 72.6637 34.597 72.6201 34.643C72.6201 34.643 72.6201 34.643 72.5765 34.6891L72.5329 34.7352L72.4893 34.7812C72.4893 34.7812 72.4893 34.8273 72.4457 34.8273H72.4021H72.3586H72.315C72.2714 34.8733 72.2714 34.8733 72.2278 34.9194C72.1842 34.9655 72.1406 35.0115 72.097 35.0576C72.097 35.0576 72.097 35.0576 72.097 35.1037V35.0576C72.1406 35.0115 72.1406 35.0115 72.1842 34.9655C72.1842 34.9655 72.1842 34.9655 72.2278 34.9194L72.2714 34.8733C72.315 34.8273 72.315 34.7812 72.3586 34.7812L72.4021 34.7352C72.4021 34.7352 72.4021 34.6891 72.4457 34.6891C72.4457 34.6891 72.4457 34.643 72.4893 34.643C72.4893 34.643 72.4893 34.643 72.4893 34.597V34.5509C72.5329 34.5048 72.5329 34.4588 72.5765 34.4127C72.5329 34.4127 72.5329 34.4588 72.4893 34.5049C72.4457 34.5049 72.4021 34.5048 72.4457 34.4588L72.4893 34.4127C72.5329 34.3667 72.5765 34.3206 72.6201 34.2745C72.6637 34.2745 72.6637 34.2285 72.7073 34.2285L72.7508 34.1824C72.9688 33.9521 73.3611 33.9521 73.6662 33.8139C73.7969 33.7679 73.9277 33.86 74.0584 33.8139C74.1456 33.8139 74.1892 33.8139 74.2764 33.86C73.7969 33.86 73.6226 33.9982 73.4482 34.1364ZM73.9277 32.4321C73.8841 32.386 74.0149 32.4321 74.0149 32.386H73.7969C73.7533 32.386 73.7533 32.3399 73.7533 32.3399C73.6226 32.386 73.4918 32.4321 73.3611 32.4321C73.1867 32.4781 73.0559 32.6163 72.8816 32.6624C72.6201 32.7545 72.4021 32.9848 72.1406 33.0769C72.097 33.0769 72.097 33.0309 72.097 33.0309C72.1406 32.9388 72.2278 32.9388 72.2714 32.8466C72.2714 32.8006 72.2714 32.8006 72.2278 32.8006C72.4021 32.5242 72.6637 32.386 72.9252 32.1557V32.0636C73.0124 31.9715 73.0995 31.9254 73.1431 31.7872C73.1867 31.6951 73.2739 31.603 73.3611 31.5569C73.3175 31.5108 73.2739 31.5108 73.2739 31.4648C73.1867 31.4648 73.0995 31.5108 73.0124 31.4187C73.0559 31.3727 73.0995 31.3266 73.1431 31.3266C73.1431 31.3266 73.0995 31.3266 73.0995 31.2805C73.0559 31.2345 73.1431 31.1884 73.2303 31.1423C73.3175 31.0963 73.4482 31.0963 73.4918 31.0502C73.3175 31.0042 73.1431 31.0963 72.9688 31.0042C73.0995 30.6817 73.2739 30.4054 73.5354 30.2672C73.579 30.2672 73.6226 30.2672 73.6226 30.3132C73.6226 30.4514 73.5354 30.5435 73.4482 30.5435C73.6226 30.5896 73.8405 30.5896 74.0149 30.6817C73.9713 30.7278 73.9277 30.7278 73.9277 30.7278C74.0584 30.8199 74.1892 30.7739 74.32 30.866C74.2328 30.9581 74.1892 30.866 74.102 30.866C74.843 31.0963 75.584 31.2805 76.1942 31.7411C75.6712 32.0175 75.1481 32.1557 74.5815 32.2478C74.4943 32.2478 74.4507 32.2478 74.4071 32.2018C74.4071 32.2478 74.4071 32.2939 74.3636 32.2939C74.2764 32.2939 74.1892 32.2939 74.1456 32.3399C74.102 32.4781 73.9713 32.4781 73.9277 32.4321Z" fill="#000091"/>
<path d="M97.9001 23.0815H84.6061C84.6061 23.0815 84.6496 23.0815 84.7368 23.1276C84.824 23.1737 84.9983 23.2658 85.0855 23.3119C85.2599 23.404 85.4342 23.5422 85.5214 23.7264C85.565 23.8185 85.6521 23.9567 85.6086 24.0488C85.565 24.187 85.5214 24.3713 85.4342 24.4173C85.3034 24.5095 85.1291 24.5095 84.9547 24.4634C84.8676 24.4634 84.7804 24.4173 84.6932 24.4173C85.0419 24.5555 85.3906 24.7398 85.6086 25.0622C85.6521 25.1083 85.7393 25.1543 85.8265 25.1543C85.8701 25.1543 85.8701 25.2004 85.8701 25.2464C85.8265 25.2925 85.7829 25.3386 85.7829 25.3846H85.8701C86.0008 25.3386 85.9572 25.1083 86.1316 25.1543C86.2624 25.2464 86.3059 25.3846 86.2188 25.5228C86.1316 25.6149 86.0444 25.7071 85.9572 25.7531C85.9137 25.7992 85.9137 25.8913 85.9572 25.9374C86.0444 26.0295 86.0444 26.1216 86.088 26.2137C86.1752 26.398 86.1752 26.5822 86.2624 26.7665C86.3495 27.135 86.4367 27.5035 86.4367 27.872C86.4367 28.0562 86.3495 28.2405 86.3931 28.4247C86.4367 28.6089 86.5675 28.7932 86.6546 28.9314C86.7418 29.0696 86.829 29.1617 86.9162 29.3459C87.0469 29.5762 87.3084 29.8526 87.1777 30.129C87.0905 30.3132 86.829 30.2672 86.6982 30.3593C86.5675 30.4975 86.6546 30.6817 86.7418 30.8199C86.8726 31.0502 86.6111 31.1884 86.4367 31.2805C86.4803 31.3727 86.5675 31.3266 86.6111 31.3727C86.6546 31.5108 86.7418 31.5569 86.6982 31.6951C86.6111 31.8333 86.3059 31.9254 86.4803 32.1557C86.5675 32.3399 86.5239 32.5242 86.4367 32.7084C86.3495 32.9388 86.1752 33.0309 86.0008 33.0769C85.8701 33.123 85.6957 33.123 85.565 33.123C85.5214 33.0769 85.4778 33.0769 85.4342 33.0769C85.0419 33.0309 84.6496 32.8927 84.2574 32.8927C84.1266 32.9388 84.0394 32.9388 83.9523 32.9848C83.8651 33.0769 83.7343 33.1691 83.6907 33.2612L83.6471 33.3072C83.6471 33.3072 83.6471 33.3533 83.6036 33.3533C83.6036 33.3533 83.6036 33.3533 83.6036 33.3994C83.5164 33.4915 83.4728 33.5836 83.4292 33.6757V33.7218C83.342 33.86 83.2984 34.0442 83.2549 34.1824C83.0805 34.7352 83.1677 35.2418 83.2984 35.334C83.342 35.38 84.083 35.6103 84.5625 35.8406C84.824 35.9328 84.9547 36.0249 85.1291 36.117H98.1616V23.0815H97.9001Z" fill="#E1000F"/>
<path d="M85.4345 27.8257C85.5217 27.8718 85.6524 27.8718 85.6524 27.9178C85.6088 28.1021 85.3473 28.1482 85.173 28.3785H85.1294C85.0422 28.4245 85.0858 28.5627 84.9986 28.5627C84.9115 28.5166 84.8679 28.5627 84.7807 28.6088C84.8679 28.7009 84.9986 28.793 85.1294 28.747C85.173 28.747 85.2166 28.793 85.2166 28.8391C85.2166 28.8391 85.2602 28.8391 85.2602 28.793C85.3037 28.793 85.3037 28.793 85.3037 28.8391V28.8851C85.2166 28.9773 85.1294 28.9312 85.0422 28.9773C85.2166 29.0233 85.4345 29.0233 85.5653 28.9773C85.696 28.9312 85.5653 28.7009 85.6524 28.5627C85.6088 28.5627 85.6524 28.4706 85.6088 28.4706C85.6524 28.4245 85.696 28.3324 85.7396 28.3324C85.7832 28.3324 85.8704 28.2863 85.8704 28.2403C85.8704 28.1942 85.7832 28.1482 85.7832 28.1021C85.914 28.01 86.0447 27.8718 86.0011 27.6875C85.9575 27.5954 85.7832 27.5954 85.6524 27.5494C85.5217 27.5033 85.3909 27.5494 85.2602 27.5954C85.1294 27.5954 85.0422 27.6875 84.9115 27.6875C84.7371 27.7336 84.6063 27.8257 84.4756 27.9178C84.6499 27.8257 84.8243 27.8257 84.9986 27.7797C85.173 27.8257 85.2602 27.7797 85.4345 27.8257Z" fill="#9C9B9B"/>
</svg>
