<svg width="224" height="120" viewBox="0 0 224 120" fill="none" xmlns="http://www.w3.org/2000/svg">
<path fill-rule="evenodd" clip-rule="evenodd" d="M67 15H157V105H67V15Z" fill="#CC2229"/>
<path fill-rule="evenodd" clip-rule="evenodd" d="M97.5438 72.5354H109.417C116.242 72.5354 118.023 77.4451 118.023 81.3241C118.023 86.5412 115.837 90.3976 109.081 90.3976H105.189V99.1909H97.5438V72.5354ZM105.122 84.6525H105.714C108.247 84.6525 110.745 84.7974 110.745 81.5369C110.745 78.4268 108.426 78.4259 105.714 78.4259H105.122V84.6525ZM119.707 72.5354H131.038C138.493 72.5354 143.025 78.3535 143.025 85.8299C143.025 93.3064 138.458 99.1909 131.038 99.1909H119.707V72.5354ZM127.396 93.0968H128.226C132.38 93.0968 135.491 90.6681 135.491 85.8299C135.491 81.764 132.771 78.8603 128.298 78.8603H127.396V93.0968H127.396ZM91.5043 79.9122C90.0425 78.9729 87.6779 78.4176 86.56 78.4176C85.1916 78.4176 83.438 78.7989 83.438 80.28C83.438 81.8314 85.1707 82.1263 86.7458 82.5445C86.7458 82.5445 88.6792 82.9645 89.5044 83.2331C93.0622 84.3917 95.7186 85.6374 95.7186 90.338C95.7186 92.9828 95.0342 95.5533 92.7533 97.3515C90.5099 99.1138 87.5065 100 84.6168 100C81.0051 100 77.4204 99.1299 74.3955 96.6772L77.7354 91.1052C79.5986 92.6214 81.8034 94.0015 84.351 94.0015C86.1 94.0015 87.8164 93.4804 87.8164 91.6115C87.8164 89.6725 85.0392 89.5658 83.4385 89.1601C79.9829 88.2822 75.6826 87.1292 75.6826 80.9221C75.6826 75.5268 79.8268 72 85.5675 72C88.4571 72 92.1385 73.3187 94.6862 74.6595L91.5043 79.9122Z" fill="white"/>
</svg>
