<svg width="310" height="324" viewBox="0 0 310 324" fill="none" xmlns="http://www.w3.org/2000/svg">
<g clip-path="url(#clip0_2643_26440)">
<path fill-rule="evenodd" clip-rule="evenodd" d="M242.635 17C261.491 17 277.103 30.5451 277.623 47.7705C279.542 47.3715 281.544 47.1563 283.598 47.1563C298.008 47.1563 310 57.7089 310 71.0808C310 84.4474 298.008 95 283.598 95H180.699C166.117 95 154 84.3319 154 70.8183C154 57.3046 166.122 46.6365 180.699 46.6365C182.68 46.6365 184.604 46.8308 186.466 47.2035C190.434 42.5257 196.648 39.5595 203.585 39.5595C205.426 39.5595 207.215 39.7695 208.921 40.1632C213.045 26.7126 226.659 17 242.635 17Z" fill="#F9F9F9"/>
<path fill-rule="evenodd" clip-rule="evenodd" d="M101 124.758C101 113.578 91.9955 104.507 80.8777 104.507C77.0393 104.507 73.4447 105.589 70.392 107.47C66.2375 98.3444 57.0795 92 46.4493 92C32.0982 92 20.4294 103.562 20.1314 117.941C18.307 117.078 16.2749 116.578 14.1254 116.578C6.3221 116.578 0 122.94 0 130.784C0 138.637 6.3221 145 14.1254 145H84.0207V144.755C93.6393 143.237 101 134.865 101 124.758Z" fill="white"/>
<path d="M136.625 289.926L9.14837 231.348C-1.71612 226.278 -1.71612 218.311 9.14837 213.693L136.625 155.206C147.49 150.136 164.963 150.136 175.375 155.206L302.852 213.693C313.716 218.764 313.716 226.731 302.852 231.348L175.375 289.835C164.511 294.543 147.037 294.543 136.625 289.926Z" fill="#E6E6E6"/>
<path d="M121.867 238.953L115.62 280.238L136.715 289.926C147.127 294.543 164.601 294.543 175.465 289.926L198.009 279.605L182.075 237.143L149.028 243.752L121.867 238.953Z" fill="#666666"/>
<path fill-rule="evenodd" clip-rule="evenodd" d="M143.325 58.8745C143.325 58.8745 153.103 41.1292 179.358 44.9318C187.326 46.1087 197.375 50.4545 201.54 56.2489C203.894 59.5988 206.61 66.5702 208.149 67.5661C209.598 68.562 213.129 69.739 213.944 71.2781C214.94 73.0889 215.392 75.2618 215.121 77.3442C215.03 78.5211 214.849 78.7022 215.573 79.7887C216.026 80.513 216.569 81.3278 217.022 82.0521C219.104 85.5831 220.462 89.5667 220.553 93.7314C220.915 108.127 209.87 118.267 209.87 118.267C209.87 118.267 222.998 142.803 195.384 155.116C187.96 158.375 137.53 166.795 131.826 158.013C126.123 149.231 127.481 135.198 127.481 135.198C127.481 135.198 122.139 138.547 112.27 121.526C102.764 105.049 115.167 91.3774 115.167 91.3774C115.167 91.3774 103.307 75.9861 116.073 64.9405C129.835 53.0801 143.325 58.8745 143.325 58.8745Z" fill="#AAAAAA"/>
<path fill-rule="evenodd" clip-rule="evenodd" d="M58.4007 130.671C58.4007 130.671 57.2237 126.868 56.4089 123.518C55.5035 119.987 55.0508 116.094 56.4089 112.744C57.4048 110.209 59.6682 107.855 62.3843 107.312C63.9235 106.95 66.0964 106.497 67.4544 107.765C67.6355 107.946 67.8166 108.127 68.0882 108.217C68.4503 108.308 68.8125 107.946 68.9936 107.674C69.0841 107.312 69.0841 106.95 69.0841 106.497C68.9936 104.867 69.1746 103.147 69.8084 101.608C70.08 100.884 70.3516 100.25 70.8948 99.7974C71.4381 99.3447 72.2529 99.0731 72.8867 99.4352C73.4299 99.7068 73.792 100.25 74.0637 100.703C75.5123 103.419 76.5987 106.316 77.0514 109.394C77.5041 112.382 76.5082 114.827 75.9649 117.814C74.6974 124.061 73.5204 126.687 71.5286 132.662C67.2734 131.938 62.3843 131.576 58.4007 130.671Z" fill="white"/>
<path d="M71.3475 133.568C71.257 133.568 71.257 133.568 71.1664 133.568C69.9895 133.387 68.7219 133.296 67.4544 133.115C64.2856 132.753 60.9357 132.391 58.0385 131.667C57.4048 131.485 57.0426 131.395 55.1413 123.699C54.417 120.711 53.6022 116.275 55.1413 112.201C56.3183 109.123 58.9439 106.678 61.9316 106.044C63.5613 105.682 65.9153 105.139 67.726 106.497V106.407C67.6355 104.596 67.9071 102.695 68.5409 101.065C68.8125 100.341 69.1746 99.4352 69.9895 98.8014C70.8948 97.9866 72.1624 97.715 73.2488 98.2582C74.0636 98.6204 74.5163 99.3447 74.8785 100.069C76.4176 102.876 77.5041 105.954 78.0473 109.123C78.5 111.658 77.9567 113.831 77.4135 115.913C77.2324 116.547 77.0514 117.271 76.9608 117.905C75.9649 122.884 74.969 125.691 73.7015 129.494C73.3393 130.49 72.9772 131.667 72.5245 132.934C72.2529 133.296 71.8907 133.568 71.3475 133.568ZM59.306 129.675C61.9316 130.218 64.9194 130.58 67.8166 130.852C68.8125 130.942 69.7178 131.033 70.6232 131.123C70.8948 130.218 71.257 129.403 71.5286 128.588C72.8867 124.695 73.792 122.16 74.7879 117.271C74.969 116.547 75.1501 115.822 75.2406 115.189C75.7838 113.106 76.2365 111.386 75.8744 109.304C75.4217 106.407 74.4258 103.6 72.9772 100.974C72.8867 100.703 72.615 100.25 72.3434 100.159C72.1624 100.069 71.8002 100.159 71.5286 100.431C71.257 100.703 70.9854 101.155 70.7138 101.789C70.1705 103.238 69.9895 104.777 70.08 106.225V106.316C70.08 106.769 70.1705 107.312 69.8989 107.855C69.5368 108.761 68.6314 109.394 67.726 109.123C67.1828 109.032 66.8206 108.67 66.6396 108.489L66.549 108.398C65.6437 107.584 63.8329 107.946 62.4749 108.217C60.302 108.67 58.2196 110.571 57.3142 112.925C56.0467 116.275 56.6805 120.078 57.4048 123.065C58.0385 125.782 58.9439 128.498 59.306 129.675Z" fill="#333333"/>
<path d="M148.938 163.807C139.885 163.807 132.551 162.54 130.288 159.099C125.399 151.585 125.308 141.535 125.489 137.733C121.868 136.374 112.271 131.938 108.649 121.255C103.217 105.411 110.37 94.5462 113.086 91.2869C110.913 87.0316 104.756 72.6362 117.25 60.9569C124.674 54.076 138.346 55.9773 142.601 56.7921C145.589 52.5369 157.63 37.8698 179.902 43.121C210.232 50.1829 209.598 69.3768 209.508 70.1917C209.417 71.1876 208.603 72.0024 207.607 71.9119C206.611 71.8213 205.796 71.0065 205.886 70.0106C205.886 69.2863 206.249 52.9896 179.087 46.652C156 41.3102 145.407 58.965 145.045 59.7799C144.683 60.5042 143.868 60.8663 143.054 60.6852C142.872 60.6852 127.028 56.9732 119.785 63.673C107.291 75.2618 116.526 89.9288 116.888 90.5626C117.341 91.2869 117.25 92.1923 116.617 92.826C116.164 93.2787 106.476 103.509 112.18 120.168C115.983 131.304 127.934 134.745 128.024 134.745C128.839 135.016 129.382 135.831 129.382 136.646C129.382 136.737 128.205 148.959 133.547 157.108C135.086 159.462 143.597 161.272 162.972 159.371C177.729 157.922 191.672 154.935 194.841 153.577C202.899 149.955 208.059 144.976 210.232 138.728C213.582 129.041 208.512 119.353 208.422 119.263C208.059 118.539 208.15 117.633 208.784 117.09C208.874 117 219.195 107.312 218.924 93.9125C218.652 82.8669 210.504 79.0643 210.142 78.8833C209.236 78.4306 208.784 77.4347 209.236 76.5293C209.689 75.6239 210.685 75.1712 211.59 75.6239C212.043 75.805 222.274 80.5129 222.545 93.9125C222.817 106.588 215.031 115.913 212.224 118.901C213.582 122.07 216.751 130.852 213.673 139.996C211.228 147.239 205.343 153.033 196.289 157.017C191.4 158.918 166.865 163.807 148.938 163.807Z" fill="#333333"/>
<path fill-rule="evenodd" clip-rule="evenodd" d="M123.951 136.465C116.526 138.004 77.0522 191.693 77.0522 191.693C77.0522 191.693 65.2823 167.7 71.3483 133.93C71.9821 130.308 58.6731 129.856 57.8582 130.49C45.9978 192.055 67.8174 216.41 71.6199 215.776C89.5463 212.788 109.646 183.273 109.646 183.273L112.271 190.063C112.543 201.29 115.44 211.973 121.778 238.863C121.778 238.863 131.465 246.558 148.486 245.2C165.507 243.842 182.166 238.863 182.166 238.863C179.269 202.105 190.586 181.281 190.586 181.281C190.586 181.281 219.739 229.628 220.644 231.439C221.55 233.159 230.151 242.032 235.13 240.402C240.11 238.772 238.209 235.151 238.209 231.529C238.299 227.908 204.438 143.799 196.652 138.819C187.96 133.296 134.634 134.202 123.951 136.465Z" fill="#9ADAF3"/>
<path d="M144.502 247.283C129.563 247.283 121.053 240.674 120.691 240.311L120.238 239.949L120.057 239.315C119.333 236.147 118.608 233.159 117.884 230.352C112.995 209.891 110.732 200.384 110.46 190.425L109.193 187.075C103.579 194.681 87.2825 215.051 71.9817 217.587C70.5331 217.858 68.8129 216.862 66.8211 214.78C64.5576 212.426 44.6394 189.882 56.1377 130.127L56.2282 129.494L56.6809 129.041C58.3106 127.683 67.817 128.498 70.9858 130.308C73.2492 131.576 73.2492 133.206 73.1587 134.111C68.4507 160.276 74.6978 180.647 77.5045 187.89C87.1014 174.943 116.526 136.012 123.588 134.564C134.452 132.3 188.413 131.304 197.738 137.189C201.45 139.543 209.689 155.568 222.183 184.903C229.517 202.195 240.2 228.723 240.11 231.529C240.11 232.254 240.2 232.978 240.291 233.793C240.562 236.418 241.015 240.492 235.764 242.122C229.426 244.114 220.191 234.245 219.105 232.254C218.381 230.896 199.911 200.203 190.948 185.174C188.051 192.146 181.894 210.796 184.158 238.682L184.248 240.13L182.89 240.583C182.709 240.674 165.778 245.653 148.757 247.011C147.218 247.192 145.86 247.283 144.502 247.283ZM123.407 237.867C125.489 239.315 134.362 244.657 148.395 243.48C162.247 242.394 176.009 238.772 180.355 237.595C177.82 201.652 188.594 181.372 189.137 180.466L190.676 177.66L192.306 180.376C195.294 185.355 221.459 228.904 222.364 230.624C223.36 232.435 231.146 239.859 234.677 238.682C237.031 237.957 237.031 237.052 236.669 234.155C236.579 233.34 236.488 232.435 236.488 231.529C235.673 226.007 202.537 144.613 195.746 140.358C187.96 135.469 135.901 135.741 124.312 138.185L123.95 136.374L124.312 138.185C120.148 139.091 97.6943 166.614 78.5004 192.689L76.6896 195.133L75.3316 192.417C74.8789 191.421 63.3807 167.61 69.4467 133.749C68.2697 132.572 62.0226 131.848 59.397 132.029C48.2609 191.15 68.4508 213.06 71.4385 213.965C88.2784 211.068 107.925 182.549 108.106 182.186L110.098 179.289L114.082 189.61V189.882C114.263 199.57 116.526 208.895 121.415 229.356C122.049 232.072 122.773 234.879 123.407 237.867ZM236.488 231.529C236.488 231.529 236.488 231.62 236.488 231.529C236.488 231.529 236.488 231.62 236.488 231.529Z" fill="#333333"/>
<path fill-rule="evenodd" clip-rule="evenodd" d="M143.415 135.469C143.506 135.288 147.399 134.111 147.399 134.111C148.667 127.773 147.852 113.469 147.761 112.11C147.761 112.11 166.955 108.851 170.033 109.938C170.124 109.938 169.762 135.469 169.762 135.469C166.412 139 151.926 157.017 150.206 158.918C144.049 165.799 142.329 164.894 142.057 164.894C141.605 164.803 141.333 164.351 141.242 163.988C139.613 160.005 139.703 155.478 140.156 151.132C140.518 146.605 142.963 136.556 143.415 135.469Z" fill="white"/>
<path d="M142.51 166.071C142.238 166.071 142.057 166.071 141.876 165.98C141.152 165.89 140.518 165.346 140.156 164.351C138.436 160.005 138.617 155.116 138.979 150.951C139.432 146.424 141.876 136.284 142.329 135.016C142.51 134.473 142.6 134.383 146.403 133.206C147.489 126.868 146.765 114.012 146.584 112.201C146.493 111.658 146.946 111.115 147.489 111.024C150.749 110.481 167.227 107.765 170.395 108.942C171.21 109.213 171.21 109.213 171.12 114.012C171.12 116.366 171.029 119.625 171.029 122.794C170.939 129.132 170.848 135.56 170.848 135.56C170.848 135.831 170.757 136.103 170.576 136.284C168.403 138.547 161.523 146.967 156.453 153.124C153.736 156.383 151.654 159.009 151.02 159.643C146.312 164.984 143.868 166.071 142.51 166.071ZM142.329 163.807C142.419 163.807 142.419 163.807 142.329 163.807C142.419 163.807 144.049 164.169 149.3 158.194C149.843 157.56 152.016 154.935 154.642 151.675C159.44 145.79 166.05 137.733 168.494 135.016C168.585 126.415 168.766 114.193 168.766 110.843C165.597 110.571 155.547 111.929 148.757 113.016C148.938 116.637 149.572 128.498 148.304 134.292C148.214 134.654 147.942 135.016 147.489 135.107C146.222 135.469 144.773 135.922 144.049 136.193C143.415 138.366 141.333 147.058 140.971 151.132C140.608 155.025 140.427 159.552 141.967 163.445C142.329 163.626 142.329 163.717 142.329 163.807Z" fill="#333333"/>
<path d="M195.021 190.244C194.387 190.244 193.844 189.973 193.482 189.429C189.227 182.639 185.967 177.569 182.617 173.223C181.984 172.408 182.165 171.322 182.98 170.688C183.794 170.054 184.881 170.236 185.515 171.05C188.955 175.487 192.305 180.647 196.56 187.528C197.103 188.343 196.832 189.52 196.017 190.063C195.745 190.154 195.383 190.244 195.021 190.244Z" fill="#333333"/>
<path fill-rule="evenodd" clip-rule="evenodd" d="M187.326 90.472C187.326 85.4925 185.425 85.0398 182.618 84.8587C181.169 84.7682 178.815 84.9492 177.819 85.8546C173.383 75.8955 159.44 63.854 149.3 64.0351C135.086 64.3067 128.205 78.2495 128.476 95.18C128.839 112.11 140.608 125.601 154.823 125.329C169.037 125.057 179.992 109.756 180.626 97.4434C180.717 97.3529 187.326 95.7232 187.326 90.472Z" fill="white"/>
<path d="M154.461 126.415C147.399 126.415 140.79 123.247 135.629 117.362C130.469 111.477 127.571 103.6 127.39 95.0895C127.209 86.1263 129.02 78.4306 132.46 72.6362C136.354 66.2986 142.148 62.9487 149.21 62.7676C159.531 62.5866 173.112 73.9943 178.272 84.1345C179.902 83.5007 182.075 83.5912 182.618 83.5912C185.515 83.7723 188.412 84.4061 188.412 90.291C188.412 95.18 183.705 97.3529 181.803 98.0772C180.717 111.296 169.219 125.963 154.914 126.234C154.733 126.415 154.642 126.415 154.461 126.415ZM149.572 65.1216C149.481 65.1216 149.391 65.1216 149.3 65.1216C142.963 65.2121 137.893 68.2904 134.362 73.9037C131.102 79.1549 129.382 86.6695 129.563 95.0895C129.744 102.966 132.46 110.39 137.259 115.913C141.967 121.345 148.214 124.243 154.733 124.152C167.951 123.88 178.816 109.485 179.449 97.3529V96.5381L180.264 96.357C180.355 96.357 185.968 94.8179 185.968 90.4721C185.968 86.2168 184.61 86.1263 182.346 86.0357C180.626 85.9452 178.906 86.2168 178.453 86.6695L177.276 87.756L176.643 86.3074C172.568 76.7104 159.259 65.1216 149.572 65.1216Z" fill="#333333"/>
<path d="M135.448 95.2706C136.082 94.5463 136.535 93.6409 137.621 93.3693C138.617 93.0977 139.522 93.4598 140.337 94.1841C141.786 95.3611 143.778 93.4598 142.419 92.1018C141.061 90.8342 139.07 90.2005 137.259 90.6532C135.629 91.1059 133.818 92.4639 133.547 94.1841C133.366 95.18 134.633 96.2665 135.448 95.2706Z" fill="#333333"/>
<path d="M153.646 91.649C154.642 91.1058 155.186 90.1099 156.363 89.8383C157.992 89.4761 159.531 90.291 160.98 90.8342C162.61 91.3774 163.787 88.7518 162.157 88.0275C159.984 87.0316 157.358 86.4884 155.095 87.4843C153.737 88.1181 151.926 89.7478 152.832 91.3774C153.013 91.649 153.375 91.7396 153.646 91.649Z" fill="#333333"/>
<circle cx="157.702" cy="91.0221" r="2.47744" fill="#333333"/>
<circle cx="138.781" cy="94.2633" r="2.5795" fill="#333333"/>
<path d="M145.227 97.8961C144.321 99.3447 143.416 100.703 142.873 102.423C142.239 104.777 144.593 106.95 146.675 105.23C147.218 104.777 147.037 103.872 146.494 103.6C145.951 103.238 145.408 103.419 145.317 102.785C145.227 102.242 145.589 101.518 145.679 101.065C145.951 99.9784 146.041 99.073 145.86 98.0771C145.77 97.6244 145.317 97.6244 145.227 97.8961Z" fill="#333333"/>
<path fill-rule="evenodd" clip-rule="evenodd" d="M116.073 75.5334C116.073 75.5334 116.979 86.9411 128.567 84.1344C140.156 81.2372 145.226 65.3932 145.226 65.3932C145.226 65.3932 157.902 76.5293 167.136 81.5994C188.322 93.1882 196.652 87.2127 196.652 87.2127L193.302 65.2121L166.774 50.9072L144.321 60.8663L117.884 69.3769L116.073 75.5334Z" fill="#AAAAAA"/>
<path d="M214.306 80.8751C213.944 80.8751 213.582 80.7845 213.31 80.5129C212.495 79.9697 212.314 78.7927 212.857 77.9779C214.034 76.3482 214.125 73.8131 213.129 72.0024C212.224 70.3727 210.594 69.5579 207.968 69.3768C206.972 69.2863 206.248 68.3809 206.339 67.385C206.429 66.3891 207.244 65.6648 208.331 65.7553C212.133 66.0269 214.849 67.5661 216.388 70.2822C218.109 73.3605 217.927 77.3441 215.936 80.0602C215.392 80.6034 214.849 80.8751 214.306 80.8751Z" fill="#333333"/>
<path fill-rule="evenodd" clip-rule="evenodd" d="M187.325 234.064C188.049 234.789 224.355 263.398 224.355 263.398L303.666 229.809L266.998 205.545C266.998 205.545 186.601 233.431 187.325 234.064Z" fill="url(#paint0_linear_2643_26440)"/>
<path d="M224.355 264.757C224.084 264.757 223.722 264.666 223.541 264.485C215.03 257.785 187.145 235.785 186.42 235.06C186.058 234.698 185.968 234.245 186.058 233.793C186.239 232.797 186.33 232.706 199.458 227.908C206.067 225.463 215.302 222.204 226.8 218.13C246.446 211.158 266.365 204.278 266.546 204.278C266.908 204.096 267.361 204.187 267.723 204.459L304.39 228.723C304.843 228.994 305.024 229.447 305.024 229.99C304.934 230.533 304.662 230.896 304.209 231.077L224.899 264.666C224.718 264.757 224.536 264.757 224.355 264.757ZM189.861 234.427C195.655 239.044 215.573 254.797 224.536 261.859L300.769 229.537L266.727 206.994C239.022 216.681 198.824 230.805 189.861 234.427Z" fill="#333333"/>
<path fill-rule="evenodd" clip-rule="evenodd" d="M192.305 225.373L191.219 230.624L226.528 256.518L296.423 227.184L296.695 223.019L266.999 200.837L236.669 217.043L192.305 225.373Z" fill="white"/>
<path fill-rule="evenodd" clip-rule="evenodd" d="M232.866 214.237C231.87 213.603 222.907 207.356 207.787 213.241C198.371 216.862 190.313 223.653 190.313 223.653L227.343 252.534C227.343 252.534 242.191 236.962 249.253 235.694C259.212 233.883 264.373 237.776 264.373 237.776L232.866 214.237Z" fill="white"/>
<path d="M227.253 253.439C227.071 253.439 226.89 253.349 226.709 253.258L189.68 224.377C189.498 224.196 189.317 223.924 189.317 223.653C189.317 223.381 189.408 223.109 189.68 222.928C190.042 222.657 198.009 216.047 207.425 212.335C221.639 206.813 230.784 211.792 233.228 213.422L233.319 213.512L264.735 237.052C265.097 237.324 265.188 237.958 264.916 238.32C264.644 238.682 264.011 238.772 263.649 238.501C263.558 238.41 258.578 234.879 249.253 236.599C242.553 237.776 227.977 253.077 227.796 253.168C227.796 253.349 227.524 253.439 227.253 253.439ZM191.762 223.562L227.162 251.267C229.969 248.369 242.463 235.875 248.982 234.698C252.875 233.974 256.134 234.155 258.578 234.608L232.323 214.961C230.059 213.422 221.549 208.895 208.149 214.056C200.725 216.953 194.116 221.751 191.762 223.562Z" fill="#AAAAAA"/>
<path fill-rule="evenodd" clip-rule="evenodd" d="M234.224 215.233C238.932 208.533 248.981 204.459 255.772 202.648C262.471 200.837 266.364 194.047 266.364 194.047L299.773 222.476C299.773 222.476 292.349 223.29 285.287 227.184C278.225 231.077 264.282 237.776 264.282 237.776L234.224 215.233Z" fill="white"/>
<path d="M264.282 238.591C264.101 238.591 263.92 238.501 263.739 238.41L233.681 215.957C233.319 215.685 233.228 215.142 233.5 214.689C238.932 206.994 250.702 203.101 255.5 201.743C261.747 200.022 265.459 193.685 265.55 193.594C265.641 193.323 265.912 193.232 266.184 193.141C266.455 193.051 266.727 193.141 266.908 193.323L300.316 221.751C300.588 222.023 300.678 222.385 300.588 222.747C300.497 223.109 300.226 223.381 299.864 223.381C299.773 223.381 292.53 224.286 285.74 227.998C278.768 231.801 264.826 238.501 264.735 238.591C264.554 238.591 264.373 238.591 264.282 238.591ZM235.492 215.052L264.373 236.69C266.908 235.422 278.678 229.809 284.834 226.369C289.814 223.653 294.884 222.385 297.6 221.842L266.455 195.405C265.097 197.397 261.476 201.924 255.862 203.463C251.517 204.73 240.743 208.261 235.492 215.052Z" fill="#AAAAAA"/>
<path fill-rule="evenodd" clip-rule="evenodd" d="M275.962 237.867C275.329 235.241 273.427 233.34 270.892 233.34C266.818 233.34 262.11 235.06 259.032 239.768C252.875 249.365 254.958 253.802 255.773 253.983C261.476 255.25 265.551 249.818 271.164 248.279C276.143 246.921 276.958 242.303 275.962 237.867Z" fill="white"/>
<path d="M257.493 255.25C256.859 255.25 256.225 255.16 255.501 255.069C254.867 254.979 254.415 254.435 254.052 253.62C253.6 252.443 252.423 248.007 258.127 239.225C260.933 234.789 265.551 232.254 270.711 232.254C270.802 232.254 270.802 232.254 270.892 232.254C273.88 232.254 276.325 234.427 277.049 237.686C278.407 243.661 276.325 248.098 271.436 249.456C269.444 249.999 267.543 251.176 265.732 252.262C263.197 253.711 260.571 255.25 257.493 255.25ZM256.225 252.896C259.213 253.439 261.658 251.991 264.555 250.18C266.456 249.003 268.538 247.826 270.802 247.192C275.781 245.834 275.419 240.945 274.786 238.139C274.242 235.966 272.703 234.517 270.802 234.427C268.72 234.427 263.378 234.97 259.937 240.311C255.139 248.007 255.682 252.081 256.225 252.896Z" fill="#333333"/>
<path d="M144.864 64.0351C145.317 67.7471 148.124 70.6443 150.568 73.2699C154.823 77.7062 160.075 81.4183 165.416 84.4965C170.849 87.6653 177.005 90.0193 183.252 90.9247C187.326 91.4679 195.837 91.9206 197.919 87.3032C198.191 86.6694 197.829 86.0357 197.195 85.9451C195.113 85.6735 193.03 86.76 191.038 87.1221C188.322 87.5748 185.606 87.3937 182.89 86.941C177.096 85.8546 171.663 83.4101 166.503 80.6034C161.704 78.0684 157.358 74.9901 153.103 71.6402C150.387 69.5579 146.947 66.9323 145.226 63.854C145.226 63.7635 144.864 63.854 144.864 64.0351Z" fill="#333333"/>
<path d="M117.612 161.725C115.53 167.791 110.912 173.042 109.283 179.289C107.11 187.619 111.908 197.125 120.238 199.389C120.781 199.57 121.324 198.936 120.962 198.393C119.966 196.944 118.517 195.858 117.25 194.681C115.077 192.689 114.172 190.516 113.447 187.709C112.451 183.997 112.451 180.919 113.538 177.388C115.077 172.408 117.884 167.067 118.065 161.725C118.065 161.453 117.703 161.453 117.612 161.725Z" fill="#333333"/>
<path d="M146.674 110.662C147.217 109.666 151.563 110.119 152.469 110.119C154.189 110.028 156.181 109.485 157.901 109.757C157.629 109.575 157.358 109.394 157.086 109.304C157.629 110.3 155.185 112.382 154.551 112.835C153.283 113.559 151.473 114.012 150.024 114.193C149.481 114.283 149.119 115.008 149.752 115.279C152.197 116.366 154.46 116.004 156.543 114.193C157.81 113.106 159.712 110.481 159.168 108.761C158.897 108.036 158.444 107.855 157.629 107.765C156 107.584 153.736 107.946 152.106 108.217C150.386 108.489 146.584 108.398 145.859 110.39C145.588 110.843 146.403 111.205 146.674 110.662Z" fill="#333333"/>
<path d="M196.289 280.238L180.535 239.497C180.173 238.591 180.626 237.505 181.531 237.143C182.436 236.78 183.523 237.233 183.885 238.139L199.548 278.609L196.289 280.238Z" fill="#333333"/>
<path d="M113.719 279.424L119.966 238.682C120.147 237.686 121.052 237.052 122.048 237.143C123.044 237.324 123.678 238.229 123.587 239.225L117.159 281.053L113.719 279.424Z" fill="#333333"/>
<path d="M123.588 84.4966C129.744 85.9452 134.543 82.5953 138.889 78.7022C142.239 75.7145 147.58 71.2781 146.222 66.1175C146.041 65.3932 145.045 65.4837 144.864 66.1175C141.605 74.4469 133.185 83.2291 123.678 84.0439C123.407 84.0439 123.316 84.4061 123.588 84.4966Z" fill="#333333"/>
<path fill-rule="evenodd" clip-rule="evenodd" d="M274.485 285L282.971 293.485L291.456 285L282.971 276.515L274.485 285ZM267.414 283.586C266.633 284.367 266.633 285.633 267.414 286.414L281.556 300.556C282.337 301.337 283.604 301.337 284.385 300.556L298.527 286.414C299.308 285.633 299.308 284.367 298.527 283.586L284.385 269.444C283.604 268.663 282.337 268.663 281.556 269.444L267.414 283.586Z" fill="#DEDEDE"/>
<path fill-rule="evenodd" clip-rule="evenodd" d="M15 119C10.0294 119 6 123.029 6 128C6 132.971 10.0294 137 15 137C19.9706 137 24 132.971 24 128C24 123.029 19.9706 119 15 119ZM0 128C0 119.716 6.71573 113 15 113C23.2843 113 30 119.716 30 128C30 136.284 23.2843 143 15 143C6.71573 143 0 136.284 0 128Z" fill="#DEDEDE"/>
<path fill-rule="evenodd" clip-rule="evenodd" d="M244.576 1.68265C244.576 0.755141 245.33 0 246.257 0C247.184 0 247.938 0.755141 247.938 1.68265V5.58146H251.833C252.76 5.58146 253.514 6.3366 253.514 7.26411C253.514 8.19161 252.76 8.94675 251.833 8.94675H247.938V12.8456C247.938 13.7731 247.184 14.5282 246.257 14.5282C245.33 14.5282 244.576 13.7731 244.576 12.8456V8.94675H240.681C239.754 8.94675 239 8.19161 239 7.26411C239 6.3366 239.754 5.58146 240.681 5.58146H244.576V1.68265Z" fill="url(#paint1_linear_2643_26440)"/>
<path fill-rule="evenodd" clip-rule="evenodd" d="M67.1561 250.683C67.1561 249.755 67.9105 249 68.8371 249C69.7637 249 70.5181 249.755 70.5181 250.683V254.581H74.4131C75.3397 254.581 76.0941 255.337 76.0941 256.264C76.0941 257.192 75.3397 257.947 74.4131 257.947H70.5181V261.846C70.5181 262.773 69.7637 263.528 68.8371 263.528C67.9105 263.528 67.1561 262.773 67.1561 261.846V257.947H63.2611C62.3345 257.947 61.5801 257.192 61.5801 256.264C61.5801 255.337 62.3345 254.581 63.2611 254.581H67.1561V250.683Z" fill="url(#paint2_linear_2643_26440)"/>
<path d="M245.793 141.707C246.183 141.317 246.817 141.317 247.207 141.707L250.293 144.793C250.683 145.183 250.683 145.817 250.293 146.207L247.207 149.293C246.817 149.683 246.183 149.683 245.793 149.293L242.707 146.207C242.317 145.817 242.317 145.183 242.707 144.793L245.793 141.707Z" fill="url(#paint3_linear_2643_26440)"/>
<path d="M245.793 315.707C246.183 315.317 246.817 315.317 247.207 315.707L250.293 318.793C250.683 319.183 250.683 319.817 250.293 320.207L247.207 323.293C246.817 323.683 246.183 323.683 245.793 323.293L242.707 320.207C242.317 319.817 242.317 319.183 242.707 318.793L245.793 315.707Z" fill="url(#paint4_linear_2643_26440)"/>
<path d="M27.7929 66.7071C28.1834 66.3166 28.8166 66.3166 29.2071 66.7071L32.2929 69.7929C32.6834 70.1834 32.6834 70.8166 32.2929 71.2071L29.2071 74.2929C28.8166 74.6834 28.1834 74.6834 27.7929 74.2929L24.7071 71.2071C24.3166 70.8166 24.3166 70.1834 24.7071 69.7929L27.7929 66.7071Z" fill="url(#paint5_linear_2643_26440)"/>
</g>
<defs>
<linearGradient id="paint0_linear_2643_26440" x1="187.308" y1="234.496" x2="303.653" y2="234.496" gradientUnits="userSpaceOnUse">
<stop stop-color="#FFA363"/>
<stop offset="0.9127" stop-color="#FF7743"/>
</linearGradient>
<linearGradient id="paint1_linear_2643_26440" x1="239" y1="-0.567508" x2="253.529" y2="14.5141" gradientUnits="userSpaceOnUse">
<stop stop-color="#FFC671"/>
<stop offset="0.59375" stop-color="#FF7541"/>
<stop offset="1" stop-color="#FF6F3D"/>
</linearGradient>
<linearGradient id="paint2_linear_2643_26440" x1="61.5801" y1="248.432" x2="76.1089" y2="263.514" gradientUnits="userSpaceOnUse">
<stop stop-color="#FFC671"/>
<stop offset="0.59375" stop-color="#FF7541"/>
<stop offset="1" stop-color="#FF6F3D"/>
</linearGradient>
<linearGradient id="paint3_linear_2643_26440" x1="242" y1="140.648" x2="251" y2="150" gradientUnits="userSpaceOnUse">
<stop stop-color="#FFC671"/>
<stop offset="0.59375" stop-color="#FF7541"/>
<stop offset="1" stop-color="#FF6F3D"/>
</linearGradient>
<linearGradient id="paint4_linear_2643_26440" x1="242" y1="314.648" x2="251" y2="324" gradientUnits="userSpaceOnUse">
<stop stop-color="#FFC671"/>
<stop offset="0.59375" stop-color="#FF7541"/>
<stop offset="1" stop-color="#FF6F3D"/>
</linearGradient>
<linearGradient id="paint5_linear_2643_26440" x1="24" y1="65.6484" x2="33" y2="75" gradientUnits="userSpaceOnUse">
<stop stop-color="#FFC671"/>
<stop offset="0.59375" stop-color="#FF7541"/>
<stop offset="1" stop-color="#FF6F3D"/>
</linearGradient>
<clipPath id="clip0_2643_26440">
<rect width="310" height="324" fill="white"/>
</clipPath>
</defs>
</svg>
