<svg width="152" height="75" viewBox="0 0 152 75" fill="none" xmlns="http://www.w3.org/2000/svg">
<path fill-rule="evenodd" clip-rule="evenodd" d="M37.5781 29.6336L46.626 33.7546C47.3633 34.0817 48.6032 34.0817 49.374 33.7546L58.4219 29.6336C59.1927 29.3066 59.1927 28.7506 58.4219 28.3908L49.374 24.2698C48.6367 23.9101 47.3968 23.9101 46.626 24.2698L37.5781 28.3908C36.8073 28.7179 36.8073 29.2739 37.5781 29.6336ZM46.626 38.7441L37.5781 34.8417C36.8073 34.501 36.8073 33.9745 37.5781 33.6648L40.6611 32.333L46.626 34.9036C47.3968 35.2443 48.6367 35.2443 49.374 34.9036L55.3389 32.333L58.4219 33.6648C59.1927 34.0055 59.1927 34.532 58.4219 34.8417L49.374 38.7441C48.6032 39.0848 47.3633 39.0848 46.626 38.7441ZM46.6555 43.7681L37.5798 39.8702C36.8067 39.5299 36.8067 39.004 37.5798 38.6947L40.7395 37.3335L46.6218 39.8702C47.395 40.2105 48.6387 40.2105 49.3782 39.8702L55.2605 37.3335L58.4202 38.6947C59.1933 39.035 59.1933 39.5609 58.4202 39.8702L49.3445 43.7681C48.6387 44.0775 47.395 44.0775 46.6555 43.7681Z" fill="white"/>
<path fill-rule="evenodd" clip-rule="evenodd" d="M97 3H3V63H57V66H41V73H72.045C74.6516 73 74.6517 75 72.0453 75H28C28 75 27 75 27 74C27 73 28 73 28 73H39V66H2.01143C0.90055 66 0 65.0994 0 63.9886V2.01143C0 0.900552 0.900548 0 2.01143 0H97.9886C99.0994 0 100 0.900548 100 2.01143V17H97V3Z" fill="white"/>
<path fill-rule="evenodd" clip-rule="evenodd" d="M73 17C71.3431 17 70 18.3431 70 20V26H73V21C73 20.4477 73.4477 20 74 20L148 20.0001C148.552 20.0001 149 20.4478 149 21.0001V71C149 71.5523 148.552 72 148 72H82.8702C82.4468 73.6148 81.0083 74.9973 78.8524 75H149C150.657 75 152 73.6568 152 72V20.0001C152 18.3432 150.657 17.0001 149 17.0001L73 17Z" fill="white"/>
<path d="M101.499 43.0703L109.313 46.7792C109.95 47.0735 111.021 47.0735 111.687 46.7792L119.501 43.0703C120.166 42.7759 120.166 42.2755 119.501 41.9517L111.687 38.2428C111.05 37.9191 109.979 37.9191 109.313 38.2428L101.499 41.9517C100.834 42.2461 100.834 42.7465 101.499 43.0703Z" fill="white"/>
<path d="M109.313 51.2696L101.499 47.7575C100.834 47.4508 100.834 46.977 101.499 46.6982L104.162 45.4996L109.313 47.8132C109.979 48.1198 111.05 48.1198 111.687 47.8132L116.838 45.4996L119.501 46.6982C120.166 47.0049 120.166 47.4787 119.501 47.7575L111.687 51.2696C111.021 51.5762 109.95 51.5762 109.313 51.2696Z" fill="white"/>
<path d="M109.339 55.7914L101.501 52.2833C100.833 51.977 100.833 51.5037 101.501 51.2253L104.23 50.0002L109.31 52.2833C109.977 52.5896 111.052 52.5896 111.69 52.2833L116.77 50.0002L119.499 51.2253C120.167 51.5316 120.167 52.0049 119.499 52.2833L111.661 55.7914C111.052 56.0698 109.977 56.0698 109.339 55.7914Z" fill="white"/>
<path fill-rule="evenodd" clip-rule="evenodd" d="M64.2921 47.0985L69.2274 49.365C69.6295 49.5449 70.3058 49.5449 70.7262 49.365L75.6615 47.0985C76.0819 46.9186 76.0819 46.6128 75.6615 46.4149L70.7262 44.1484C70.3241 43.9505 69.6478 43.9505 69.2274 44.1484L64.2921 46.4149C63.8717 46.5948 63.8717 46.9006 64.2921 47.0985ZM69.2274 52.1092L64.2921 49.9629C63.8717 49.7755 63.8717 49.4859 64.2921 49.3156L65.9738 48.5831L69.2274 49.997C69.6478 50.1843 70.3241 50.1843 70.7262 49.997L73.9799 48.5831L75.6615 49.3156C76.0819 49.503 76.0819 49.7926 75.6615 49.9629L70.7262 52.1092C70.3058 52.2966 69.6295 52.2966 69.2274 52.1092ZM69.2434 54.8724L64.2931 52.7286C63.8714 52.5414 63.8714 52.2521 64.2931 52.082L66.0165 51.3334L69.2251 52.7286C69.6468 52.9157 70.3252 52.9157 70.7285 52.7286L73.9371 51.3334L75.6605 52.082C76.0822 52.2692 76.0822 52.5584 75.6605 52.7286L70.7102 54.8724C70.3252 55.0425 69.6468 55.0425 69.2434 54.8724Z" fill="white"/>
<rect x="65" y="71" width="10" height="1" rx="0.5" fill="white"/>
<path fill-rule="evenodd" clip-rule="evenodd" d="M79 26H61C58.7909 26 57 27.7909 57 30V71C57 73.2091 58.7909 75 61 75H79C81.2091 75 83 73.2091 83 71V30C83 27.7909 81.2091 26 79 26ZM59 30C59 28.8954 59.8954 28 61 28H65L65.5335 28.6402C65.7235 28.8682 66.0049 29 66.3017 29H73.6983C73.9951 29 74.2765 28.8682 74.4665 28.6402L75 28H79C80.1046 28 81 28.8954 81 30V71C81 72.1046 80.1046 73 79 73H61C59.8954 73 59 72.1046 59 71V30Z" fill="white"/>
</svg>
