<svg xmlns="http://www.w3.org/2000/svg" width="102" height="84" viewBox="0 0 102 84" fill="none" data-locator-target="vscode" data-locator-mouse-modifiers="">
<path d="M98 0C99 0 99.8889 0.618474 100.667 1.85542C101.444 2.97992 101.889 4.10442 102 5.22892C102 6.12851 101.667 6.85944 101 7.42169C93.7778 12.8193 88.6111 17.5422 85.5 21.5904C82.3889 25.6386 80.8333 30.249 80.8333 35.4217C80.8333 38.4578 81.6667 40.9317 83.3333 42.8434C85 44.6426 87.7222 46.2731 91.5 47.7349C98.5 50.6586 102 56.3373 102 64.7711C102 70.1687 100.222 74.7229 96.6667 78.4337C93.1111 82.1446 87.9445 84 81.1667 84C73.7222 84 67.7778 81.245 63.3333 75.7349C58.8889 70.2249 56.6667 63.3092 56.6667 54.988C56.6667 45.4297 59 36.5462 63.6667 28.3373C68.3333 20.1285 74.6667 13.3815 82.6667 8.09639C90.6667 2.69879 95.7778 0 98 0ZM41.3333 0C42.3333 0 43.2222 0.618474 44 1.85542C44.7778 2.97992 45.2222 4.10442 45.3333 5.22892C45.3333 6.12851 45 6.85944 44.3333 7.42169C37.1111 12.8193 31.9444 17.5422 28.8333 21.5904C25.7222 25.6386 24.1667 30.249 24.1667 35.4217C24.1667 38.4578 25 40.9317 26.6667 42.8434C28.3333 44.6426 31.0556 46.2731 34.8333 47.7349C41.8333 50.6586 45.3333 56.3373 45.3333 64.7711C45.3333 70.1687 43.5556 74.7229 40 78.4337C36.4444 82.1446 31.2778 84 24.5 84C17.0556 84 11.1111 81.245 6.66667 75.7349C2.22222 70.2249 0 63.3092 0 54.988C0 45.4297 2.33333 36.5462 7 28.3373C11.6667 20.1285 18 13.3815 26 8.09639C34 2.69879 39.1111 0 41.3333 0Z" fill="white"/>
</svg>