<svg width="449" height="254" viewBox="0 0 449 254" fill="none" xmlns="http://www.w3.org/2000/svg">
<g clip-path="url(#clip0_2052_129380)">
<path d="M368.444 253C409.59 253 442.944 250.761 442.944 248C442.944 245.239 409.59 243 368.444 243C327.299 243 293.944 245.239 293.944 248C293.944 250.761 327.299 253 368.444 253Z" fill="#EFEFEF"/>
<path opacity="0.2392" fill-rule="evenodd" clip-rule="evenodd" d="M420.932 162.093C419.859 160.379 419.623 158.299 419.382 156.224C419.145 154.025 419.145 151.7 419.618 149.621C420.214 147.416 421.405 145.461 423.315 144.606C424.27 144.117 425.461 144.117 426.416 143.507C427.489 142.897 428.203 141.547 429.158 140.447C430.944 138.248 433.45 136.778 435.955 135.798C438.461 134.943 441.203 134.574 443.944 134.208C440.607 136.533 437.147 139.103 435.242 142.892C434.287 144.847 433.691 147.051 432.977 149.131C432.022 151.82 430.949 154.39 429.522 156.714C428.567 158.304 427.494 159.894 426.066 160.993C424.634 162.093 422.728 162.708 421.178 162.093H420.932Z" fill="#C8C8C8"/>
<path opacity="0.2392" fill-rule="evenodd" clip-rule="evenodd" d="M421.012 161.363C420.302 160.182 419.948 158.88 419.712 157.579C419.475 156.042 419.357 154.62 419.357 153.083C419.357 150.365 419.948 147.286 422.075 145.634C423.021 144.808 424.321 144.688 425.384 144.217C426.566 143.862 427.275 143.036 428.102 142.09C428.93 141.028 429.757 139.962 430.702 139.131C431.766 138.305 432.83 137.594 434.012 137.119C436.966 135.817 440.157 135.342 443.348 134.991C443.348 134.756 443.23 134.521 443.112 134.28C439.566 136.763 435.784 139.482 433.893 143.742C432.83 146.105 432.239 148.708 431.175 151.076C430.23 153.439 429.048 155.806 427.512 157.819C426.093 160.182 423.612 162.074 421.012 161.363C420.539 161.128 420.302 161.839 420.775 161.954C425.621 163.376 428.93 157.934 430.939 153.914C432.121 151.551 432.948 149.063 433.775 146.58C434.602 144.097 435.666 141.85 437.439 139.957C439.212 137.945 441.457 136.408 443.584 134.871C443.821 134.636 443.821 134.16 443.348 134.16C437.912 134.871 431.884 135.817 428.102 140.663C427.275 141.845 426.448 142.911 425.03 143.382C423.73 143.852 422.548 143.972 421.484 144.919C419.593 146.576 418.766 149.294 418.53 151.897C418.412 153.669 418.53 155.446 418.766 157.103C419.002 158.64 419.357 160.297 420.184 161.599C420.657 162.189 421.248 161.834 421.012 161.363Z" fill="#C8C8C8"/>
<path opacity="0.2392" fill-rule="evenodd" clip-rule="evenodd" d="M412.707 127.965C411.993 110.228 410.083 92.6117 407.105 75.2449C410.802 76.2246 413.78 79.4041 415.454 83.1982C417.122 86.9924 417.482 91.3918 417.359 95.551C417.359 97.1407 417.122 98.7304 417.718 100.2C418.314 101.425 419.268 102.4 419.982 103.624C421.292 105.829 421.533 108.883 420.814 111.453C420.219 114.022 418.904 116.467 417.595 118.792C415.926 121.851 414.617 125.03 412.825 128.09L412.707 127.965Z" fill="#C8C8C8"/>
<path opacity="0.2392" fill-rule="evenodd" clip-rule="evenodd" d="M413.061 127.965C412.466 114.143 411.151 100.32 409.246 86.7428C408.651 82.8285 408.055 79.0343 407.459 75.2449C407.341 75.365 407.223 75.61 407.1 75.7348C410.201 76.5897 412.82 78.9143 414.494 81.9736C416.399 85.398 417.117 89.6821 417.235 93.7164C417.235 95.6759 416.876 97.7555 417.354 99.5902C417.831 101.425 419.14 102.525 420.095 103.994C422.123 107.544 420.932 111.948 419.259 115.372C418.304 117.452 417.112 119.411 416.039 121.486C414.966 123.69 414.011 125.77 412.82 127.97C412.584 128.34 413.179 128.825 413.416 128.34C414.489 126.38 415.444 124.425 416.399 122.466C417.354 120.511 418.427 118.672 419.377 116.717C421.164 113.292 422.596 109.258 421.287 105.339C421.045 104.484 420.691 103.749 420.095 103.015C419.5 102.28 418.904 101.545 418.427 100.69C417.354 98.8553 417.831 96.4107 417.831 94.2062C417.831 90.0471 417.235 85.8879 415.448 82.2186C413.662 78.7942 410.802 75.9798 407.341 75C407.105 75 406.864 75.2449 406.982 75.4899C409.369 88.9472 411.038 102.645 411.988 116.347C412.224 120.261 412.466 124.176 412.584 127.97C412.347 128.455 413.061 128.455 413.061 127.965Z" fill="#C8C8C8"/>
<path opacity="0.2392" fill-rule="evenodd" clip-rule="evenodd" d="M405.553 130.29C401.738 123.931 397.205 118.422 392.08 113.163C388.625 109.614 385.283 106.069 381.827 102.52C379.322 99.9505 376.939 97.381 374.434 94.8115C379.563 95.5463 384.569 97.0112 389.457 99.0908C391.244 99.8256 393.154 100.805 394.108 102.64C394.586 103.62 394.94 104.844 395.541 105.699C396.732 107.169 398.76 107.169 400.429 107.779C402.934 108.759 404.721 111.573 405.558 114.508C406.395 117.442 406.272 120.501 406.154 123.561C406.035 125.765 406.035 127.965 405.917 130.29H405.553Z" fill="#C8C8C8"/>
<path opacity="0.2392" fill-rule="evenodd" clip-rule="evenodd" d="M405.792 130.169C402.69 125.155 399.117 120.506 395.302 116.222C391.128 111.573 386.599 107.169 382.188 102.645C379.683 100.075 377.182 97.3857 374.677 94.8162C374.558 95.0611 374.436 95.3061 374.436 95.4261C378.132 96.0361 381.829 96.8958 385.403 98.1157C387.072 98.7256 388.74 99.3404 390.409 100.075C391.718 100.685 393.151 101.665 393.865 103.135C394.578 104.604 394.82 106.069 396.247 106.929C397.438 107.664 398.989 107.784 400.298 108.274C403.158 109.498 404.827 112.923 405.427 116.102C405.787 118.427 405.787 120.871 405.669 123.196C405.55 125.64 405.55 127.965 405.427 130.289C405.427 130.779 406.141 130.779 406.141 130.289C406.26 128.09 406.26 125.885 406.382 123.561C406.382 121.361 406.501 119.281 406.264 117.202C405.905 113.777 404.714 110.473 402.213 108.394C400.904 107.414 399.471 107.169 398.039 106.679C397.325 106.434 396.488 106.189 395.893 105.579C395.297 104.969 395.056 103.989 394.701 103.135C393.392 99.8303 389.813 98.7304 386.953 97.6306C382.902 96.0409 378.61 95.0611 374.436 94.4512C374.076 94.4512 373.958 94.9411 374.199 95.0611C378.61 99.7102 383.02 104.234 387.431 108.763C391.605 113.047 395.774 117.327 399.471 122.096C401.499 124.665 403.404 127.48 405.073 130.289C405.55 130.904 406.151 130.534 405.792 130.169Z" fill="#C8C8C8"/>
<path opacity="0.2392" fill-rule="evenodd" clip-rule="evenodd" d="M366.209 133.229C367.518 134.084 369.187 133.964 370.62 133.474C372.052 132.864 373.361 132.004 374.794 131.269C376.103 130.534 377.777 130.045 379.204 130.414C380.637 130.779 381.71 132.004 383.137 132.494C385.997 133.719 389.217 132.369 392.199 133.229C395.182 134.209 397.329 137.268 398.161 140.567C398.997 143.872 399.115 147.296 398.997 150.841C398.638 149.496 397.328 148.516 396.137 148.271C395.064 148.026 393.991 148.516 393.036 148.761C389.817 149.496 386.357 148.396 383.856 145.946C382.423 144.602 381.35 142.767 379.923 141.297C375.985 137.508 370.26 136.898 366.209 133.229Z" fill="#C8C8C8"/>
<path opacity="0.2392" fill-rule="evenodd" clip-rule="evenodd" d="M366.091 133.594C368.714 135.308 371.692 133.594 374.08 132.124C375.512 131.269 377.058 130.534 378.731 130.779C380.282 131.024 381.473 132.124 382.782 132.859C385.642 134.204 388.625 132.979 391.604 133.594C394.227 134.204 396.255 136.408 397.328 139.098C398.879 142.767 398.879 147.046 398.638 150.965C398.879 150.965 399.115 150.965 399.352 150.84C398.992 149.616 398.16 148.886 397.205 148.396C396.014 147.786 394.818 148.031 393.509 148.396C390.885 149.006 388.261 148.761 385.879 147.296C383.496 145.826 382.064 143.137 380.036 141.177C378.249 139.343 376.103 138.363 373.957 137.263C371.451 136.038 368.709 134.938 366.563 132.979C366.209 132.614 365.731 133.104 366.091 133.594C369.787 136.898 374.675 137.633 378.608 140.812C380.755 142.527 382.064 145.096 384.092 146.926C385.997 148.516 388.384 149.371 390.767 149.496C391.362 149.496 392.076 149.496 392.672 149.371C393.509 149.251 394.341 148.881 395.177 148.761C396.61 148.641 398.278 149.496 398.633 151.085C398.751 151.45 399.229 151.45 399.347 150.965C399.706 144.971 399.229 136.528 393.745 133.474C391.003 131.884 387.902 132.984 385.042 132.619C383.492 132.374 382.182 131.394 380.868 130.659C379.558 129.924 378.126 129.804 376.576 130.169C373.475 131.149 369.901 135.063 366.559 132.859C366.091 132.739 365.731 133.349 366.091 133.594Z" fill="#C8C8C8"/>
<path opacity="0.2392" fill-rule="evenodd" clip-rule="evenodd" d="M394.465 145.461C399.353 151.945 403.409 159.164 406.505 166.867C409.606 174.576 411.753 182.769 412.703 191.088C413.298 195.857 413.539 200.631 413.539 205.4C413.539 206.38 414.849 206.38 414.849 205.4C415.085 196.837 414.012 188.153 411.989 179.71C409.961 171.391 406.86 163.438 402.927 156.099C400.662 151.94 398.157 148.026 395.297 144.357C394.942 143.627 393.869 144.727 394.465 145.461Z" fill="#C8C8C8"/>
<path opacity="0.2392" fill-rule="evenodd" clip-rule="evenodd" d="M402.689 122.951C405.667 133.104 408.65 143.257 411.032 153.655C413.415 163.928 415.206 174.451 415.802 184.969C416.161 190.963 416.161 196.957 415.566 202.826C415.448 203.805 416.875 203.805 416.875 202.826C417.712 192.183 417.112 181.54 415.566 171.022C414.015 160.504 411.51 150.106 408.768 139.828C407.217 133.954 405.549 128.33 403.88 122.581C403.762 121.606 402.452 122.096 402.689 122.951Z" fill="#C8C8C8"/>
<path opacity="0.2392" fill-rule="evenodd" clip-rule="evenodd" d="M412.346 120.261C412.228 131.149 413.183 142.037 414.133 152.92C415.088 163.808 416.043 174.691 416.161 185.579C416.161 191.693 415.925 197.811 415.088 203.925C415.088 204.29 415.206 204.78 415.565 204.905C415.925 205.025 416.397 204.785 416.397 204.415C417.707 193.527 417.707 182.64 416.993 171.756C416.279 160.749 415.083 149.981 414.369 138.973C414.01 132.859 413.656 126.62 413.774 120.381C413.66 119.281 412.346 119.281 412.346 120.261Z" fill="#C8C8C8"/>
<path opacity="0.2392" fill-rule="evenodd" clip-rule="evenodd" d="M417.594 207.354C417.712 192.922 417.83 178.365 421.527 164.418C422.482 160.624 423.673 156.954 425.224 153.41C425.583 152.555 424.387 151.695 424.032 152.675C418.431 165.642 416.88 180.32 416.403 194.507C416.284 198.791 416.166 203.07 416.166 207.35C416.28 208.334 417.594 208.334 417.594 207.354Z" fill="#C8C8C8"/>
<path fill-rule="evenodd" clip-rule="evenodd" d="M423.792 159.039C424.151 157.939 424.865 157.079 425.579 156.224C426.411 155.49 427.248 154.88 428.203 154.51C427.366 155.245 426.652 155.979 425.938 156.714C425.224 157.449 424.629 158.304 423.792 159.039Z" fill="#C8C8C8"/>
<path fill-rule="evenodd" clip-rule="evenodd" d="M425.582 153.775C426.06 152.305 426.892 151.085 427.965 150.106C428.92 149.126 430.111 148.271 431.42 147.906C430.347 148.761 429.274 149.621 428.319 150.596C427.369 151.575 426.414 152.675 425.582 153.775Z" fill="#C8C8C8"/>
<path fill-rule="evenodd" clip-rule="evenodd" d="M428.679 147.661C429.039 146.681 429.752 145.826 430.466 145.216C431.18 144.606 432.017 144.117 432.972 143.872C432.258 144.482 431.539 145.096 430.826 145.706C430.112 146.316 429.516 147.051 428.679 147.661Z" fill="#C8C8C8"/>
<path fill-rule="evenodd" clip-rule="evenodd" d="M421.168 148.886C422.123 150.355 422.596 151.945 422.955 153.78C423.191 155.494 423.314 157.329 422.955 159.039C422.837 157.324 422.719 155.614 422.478 153.9C422.005 152.065 421.646 150.475 421.168 148.886Z" fill="#C8C8C8"/>
<path fill-rule="evenodd" clip-rule="evenodd" d="M423.674 146.316C424.388 147.171 424.866 148.276 425.107 149.376C425.343 150.475 425.343 151.7 425.107 152.8C424.87 151.7 424.747 150.6 424.511 149.496C424.27 148.516 423.911 147.416 423.674 146.316Z" fill="#C8C8C8"/>
<path fill-rule="evenodd" clip-rule="evenodd" d="M428.084 143.502C428.443 144.112 428.561 144.971 428.561 145.701C428.561 146.436 428.32 147.291 427.966 147.906C427.966 147.051 427.966 146.436 427.966 145.701C428.084 144.971 428.084 144.237 428.084 143.502Z" fill="#C8C8C8"/>
<path fill-rule="evenodd" clip-rule="evenodd" d="M413.062 123.441C414.494 120.626 415.804 117.937 416.995 115.122C418.186 112.308 419.141 109.253 419.973 106.194C419.614 109.373 418.664 112.433 417.468 115.367C416.404 118.302 414.853 120.996 413.062 123.441Z" fill="#C8C8C8"/>
<path fill-rule="evenodd" clip-rule="evenodd" d="M412.824 118.671C414.015 116.227 415.206 113.777 416.161 111.208C417.116 108.638 417.948 106.069 418.785 103.379C418.426 106.194 417.712 108.883 416.757 111.453C415.684 114.022 414.493 116.467 412.824 118.671Z" fill="#C8C8C8"/>
<path fill-rule="evenodd" clip-rule="evenodd" d="M412.706 114.143C413.543 111.938 414.257 109.858 415.089 107.659C415.925 105.454 416.521 103.375 417.235 101.175C416.998 103.5 416.28 105.824 415.566 107.904C414.852 110.108 413.897 112.188 412.706 114.143Z" fill="#C8C8C8"/>
<path fill-rule="evenodd" clip-rule="evenodd" d="M411.988 107.664C412.943 105.459 413.775 103.38 414.493 101.305C415.325 99.1051 416.044 97.0255 416.639 94.7009C416.398 97.0255 415.803 99.35 414.971 101.55C414.257 103.745 413.184 105.824 411.988 107.664Z" fill="#C8C8C8"/>
<path fill-rule="evenodd" clip-rule="evenodd" d="M411.635 101.425C412.589 98.7351 413.303 95.9207 413.899 93.1063C414.495 90.2919 414.854 87.4775 415.09 84.543C415.327 87.4775 414.972 90.4119 414.376 93.2264C413.899 96.1609 412.944 98.9753 411.635 101.425Z" fill="#C8C8C8"/>
<path fill-rule="evenodd" clip-rule="evenodd" d="M410.914 96.7757C411.273 93.9612 411.869 91.2717 412.224 88.4573C412.583 85.6428 412.701 82.8284 412.46 80.0188C412.819 81.3636 413.056 82.8332 413.056 84.2981C413.056 85.7677 413.056 87.1125 412.814 88.5773C412.583 91.2717 411.869 94.0813 410.914 96.7757Z" fill="#C8C8C8"/>
<path fill-rule="evenodd" clip-rule="evenodd" d="M380.755 97.2656C382.542 98.8553 383.974 100.69 385.284 102.525C386.593 104.484 387.789 106.564 388.739 108.763C387.43 106.804 386.116 104.724 384.806 102.89C383.497 100.935 382.065 99.1003 380.755 97.2656Z" fill="#C8C8C8"/>
<path fill-rule="evenodd" clip-rule="evenodd" d="M385.88 98.2405C387.785 100.2 389.335 102.52 390.531 104.969C391.723 107.414 392.678 110.228 393.037 113.043C392.2 110.353 391.25 107.784 390.059 105.334C388.74 102.769 387.43 100.445 385.88 98.2405Z" fill="#C8C8C8"/>
<path fill-rule="evenodd" clip-rule="evenodd" d="M391.008 100.81C392.44 103.255 393.513 105.704 394.463 108.394C395.418 111.083 396.25 113.778 396.609 116.587C395.654 113.898 394.822 111.328 393.868 108.634C393.031 106.069 392.081 103.38 391.008 100.81Z" fill="#C8C8C8"/>
<path fill-rule="evenodd" clip-rule="evenodd" d="M397.089 107.904C398.044 109.738 398.876 111.818 399.235 113.898C399.712 116.102 399.949 118.182 399.83 120.381C399.471 118.182 399.235 116.102 398.757 114.023C398.28 111.943 397.684 109.863 397.089 107.904Z" fill="#C8C8C8"/>
<path fill-rule="evenodd" clip-rule="evenodd" d="M400.066 108.394C401.021 110.598 401.734 112.918 402.094 115.367C402.453 117.817 402.571 120.261 402.212 122.706C402.094 120.261 401.853 117.812 401.498 115.487C401.139 113.168 400.543 110.843 400.066 108.394Z" fill="#C8C8C8"/>
<path fill-rule="evenodd" clip-rule="evenodd" d="M402.93 111.698C403.766 113.778 404.239 115.977 404.48 118.182C404.717 120.381 404.717 122.706 404.362 124.91C404.244 122.711 404.121 120.506 404.003 118.307C403.643 115.977 403.284 113.898 402.93 111.698Z" fill="#C8C8C8"/>
<path fill-rule="evenodd" clip-rule="evenodd" d="M379.085 131.759C380.636 132.369 381.945 133.349 383.259 134.449C384.569 135.548 385.642 136.898 386.597 138.488C385.406 137.263 384.214 136.043 383.018 134.938C381.827 133.839 380.513 132.739 379.085 131.759Z" fill="#C8C8C8"/>
<path fill-rule="evenodd" clip-rule="evenodd" d="M385.88 133.839C386.953 134.573 387.908 135.673 388.622 136.773C389.458 137.873 389.931 139.218 390.409 140.567C389.695 139.343 389.099 138.243 388.262 137.143C387.43 135.918 386.717 134.818 385.88 133.839Z" fill="#C8C8C8"/>
<path fill-rule="evenodd" clip-rule="evenodd" d="M389.217 133.349C390.409 134.329 391.363 135.793 392.195 137.263C392.909 138.853 393.387 140.443 393.387 142.157C393.027 140.567 392.432 138.978 391.836 137.508C391.127 136.038 390.172 134.694 389.217 133.349Z" fill="#C8C8C8"/>
<path fill-rule="evenodd" clip-rule="evenodd" d="M393.626 135.183C394.817 136.653 395.536 138.363 396.132 140.197C396.727 142.032 396.968 143.992 396.968 145.946C396.732 144.112 396.373 142.157 395.777 140.442C395.177 138.608 394.463 136.898 393.626 135.183Z" fill="#C8C8C8"/>
<path fill-rule="evenodd" clip-rule="evenodd" d="M378.962 139.952C379.799 139.463 380.749 139.098 381.586 138.973C382.541 138.848 383.496 138.848 384.328 139.093C383.373 139.213 382.541 139.338 381.586 139.458C380.754 139.587 379.917 139.712 378.962 139.952Z" fill="#C8C8C8"/>
<path fill-rule="evenodd" clip-rule="evenodd" d="M392.795 149.251C393.75 149.006 394.705 148.641 395.655 148.761C393.39 146.806 392.436 143.132 389.812 141.787C388.857 141.297 387.666 141.177 386.474 141.177C385.401 141.177 384.328 141.542 383.137 141.667C381.946 141.787 380.754 141.912 379.681 141.912C380.991 143.382 382.187 145.091 383.614 146.561C385.997 148.886 389.576 149.986 392.795 149.251Z" fill="#C8C8C8"/>
<path fill-rule="evenodd" clip-rule="evenodd" d="M443.704 134.329C441.558 135.063 439.412 136.288 437.384 137.508C435.478 138.733 433.45 139.833 431.782 141.547C430.349 143.017 429.276 144.851 428.326 146.686C425.584 151.335 422.724 156.229 421.651 161.733L421.056 160.878C421.056 161.368 421.174 161.858 421.292 162.223C422.843 162.588 424.629 162.098 425.944 160.998C427.376 159.899 428.449 158.309 429.399 156.719C430.709 154.395 431.905 151.825 432.855 149.136C433.569 147.056 434.046 144.856 435.119 142.897C437.147 139.098 440.485 136.653 443.704 134.329Z" fill="#C8C8C8"/>
<path d="M432.442 236.305H432.442L432.442 236.314C432.559 243.096 427.608 248.5 421.44 248.5H409.447C403.408 248.5 398.444 243.099 398.444 236.305V208.695C398.444 201.896 403.403 196.5 409.447 196.5H421.44C427.478 196.5 432.442 201.901 432.442 208.695V236.305Z" fill="#F5F5F5" stroke="#CCCCCC"/>
<path fill-rule="evenodd" clip-rule="evenodd" d="M367.34 132.657C368.531 133.022 369.486 133.637 370.559 134.492C371.632 135.347 372.469 136.082 373.301 137.181C372.346 136.447 371.391 135.712 370.318 134.982C369.368 134.007 368.295 133.392 367.34 132.657Z" fill="#C8C8C8"/>
<path fill-rule="evenodd" clip-rule="evenodd" d="M432.257 141.912C432.853 140.812 433.689 139.832 434.64 139.098C435.594 138.363 436.667 137.873 437.74 137.628C436.786 138.238 435.835 138.973 434.881 139.708C433.926 140.322 433.089 141.177 432.257 141.912Z" fill="#C8C8C8"/>
<path fill-rule="evenodd" clip-rule="evenodd" d="M430.827 141.057C431.063 141.667 431.186 142.282 431.063 142.892C430.945 143.502 430.704 144.116 430.227 144.482C430.227 143.872 430.345 143.257 430.463 142.767C430.591 142.157 430.709 141.667 430.827 141.057Z" fill="#C8C8C8"/>
<g clip-path="url(#clip1_2052_129380)">
<rect x="0.944336" width="288" height="254" rx="4" fill="white"/>
<path fill-rule="evenodd" clip-rule="evenodd" d="M70.4625 60.8453L61.5159 56.709C60.7538 56.3479 60.7538 55.7898 61.5159 55.4615L64.6307 54.0171L70.4294 56.709C71.1915 57.0701 72.4175 57.0701 73.1465 56.709L78.9452 54.0171L82.06 55.4615C82.8221 55.8226 82.8221 56.3807 82.06 56.709L73.1134 60.8453C72.4175 61.1736 71.1915 61.1736 70.4625 60.8453Z" fill="#FF6F3D"/>
<path fill-rule="evenodd" clip-rule="evenodd" d="M70.4335 55.7266L61.5142 51.5855C60.7544 51.224 60.7544 50.6652 61.5142 50.3366L64.5534 48.9233L70.4335 51.6512C71.1933 52.0127 72.4156 52.0127 73.1424 51.6512L79.0225 48.9233L82.0617 50.3366C82.8215 50.6981 82.8215 51.2568 82.0617 51.5855L73.1424 55.7266C72.3826 56.0881 71.1603 56.0881 70.4335 55.7266Z" fill="#95C038"/>
<path fill-rule="evenodd" clip-rule="evenodd" d="M70.4335 50.6612L61.5142 46.5797C60.7544 46.2234 60.7544 45.6727 61.5142 45.3488L70.4335 41.2672C71.1933 40.9109 72.4156 40.9109 73.1424 41.2672L82.0617 45.3488C82.8215 45.7051 82.8215 46.2558 82.0617 46.5797L73.1424 50.6612C72.3826 50.9851 71.1603 50.9851 70.4335 50.6612Z" fill="#5DC0E8"/>
<path fill-rule="evenodd" clip-rule="evenodd" d="M203.623 55.2299C204.266 54.7332 204.588 54.0411 204.588 53.1536C204.588 52.4638 204.388 51.9028 203.989 51.4705C203.594 51.0382 202.868 50.6335 201.812 50.2564C201.183 50.0311 200.714 49.8265 200.407 49.6425C200.104 49.454 199.888 49.2493 199.759 49.0286C199.631 48.8033 199.566 48.5158 199.566 48.1663C199.566 47.6927 199.741 47.3225 200.09 47.0558C200.439 46.789 200.923 46.6557 201.543 46.6557C202.329 46.6557 203.137 46.8304 203.968 47.1799L204.333 46.159C203.493 45.7911 202.572 45.6072 201.571 45.6072C200.611 45.6072 199.84 45.8371 199.256 46.297C198.673 46.7568 198.382 47.3754 198.382 48.1525C198.382 48.8929 198.581 49.4931 198.981 49.9529C199.385 50.4128 200.055 50.8106 200.992 51.1463C201.663 51.3854 202.161 51.5992 202.487 51.7878C202.818 51.9763 203.052 52.1833 203.19 52.4086C203.332 52.6293 203.403 52.9145 203.403 53.264C203.403 53.7928 203.206 54.2067 202.811 54.5056C202.416 54.7999 201.828 54.9471 201.047 54.9471C200.57 54.9471 200.088 54.8965 199.601 54.7953C199.114 54.6942 198.664 54.5562 198.251 54.3814V55.5127C198.894 55.8208 199.812 55.9749 201.006 55.9749C202.108 55.9749 202.981 55.7266 203.623 55.2299ZM180.469 54.5194C181.374 53.6365 181.826 52.3626 181.826 50.6979C181.826 49.139 181.392 47.9249 180.524 47.0558C179.656 46.1866 178.439 45.752 176.874 45.752H173.788V55.8369H176.577C178.272 55.8369 179.569 55.3977 180.469 54.5194ZM179.594 47.7663C180.256 48.4331 180.586 49.4241 180.586 50.7393C180.586 52.0867 180.235 53.1053 179.532 53.7951C178.83 54.4803 177.78 54.8229 176.384 54.8229H174.959V46.766H176.66C177.96 46.766 178.938 47.0994 179.594 47.7663ZM189.351 54.9402C189.971 54.2458 190.281 53.2824 190.281 52.0499C190.281 50.8497 189.969 49.8977 189.344 49.1941C188.724 48.4905 187.886 48.1387 186.83 48.1387C185.737 48.1387 184.883 48.4836 184.268 49.1734C183.653 49.8586 183.345 50.8175 183.345 52.0499C183.345 52.8455 183.487 53.5399 183.772 54.1331C184.057 54.7263 184.461 55.1816 184.984 55.4989C185.508 55.8162 186.107 55.9749 186.782 55.9749C187.875 55.9749 188.731 55.63 189.351 54.9402ZM185.108 54.2573C184.723 53.7514 184.53 53.0156 184.53 52.0499C184.53 51.075 184.72 50.3415 185.101 49.8495C185.482 49.3574 186.047 49.1114 186.796 49.1114C187.553 49.1114 188.125 49.362 188.511 49.8632C188.901 50.3599 189.096 51.0888 189.096 52.0499C189.096 53.0202 188.901 53.7583 188.511 54.2642C188.125 54.7654 187.558 55.0161 186.81 55.0161C186.061 55.0161 185.494 54.7631 185.108 54.2573ZM195.168 55.9749C194.075 55.9749 193.228 55.6392 192.627 54.9678C192.03 54.2918 191.731 53.3375 191.731 52.1051C191.731 50.8405 192.034 49.8632 192.64 49.1734C193.251 48.4836 194.119 48.1387 195.244 48.1387C195.607 48.1387 195.97 48.1778 196.332 48.256C196.695 48.3342 196.98 48.4262 197.187 48.5319L196.835 49.5046C196.583 49.4034 196.307 49.3206 196.009 49.2562C195.71 49.1872 195.446 49.1528 195.217 49.1528C193.683 49.1528 192.916 50.1323 192.916 52.0913C192.916 53.0202 193.102 53.733 193.474 54.2297C193.85 54.7263 194.406 54.9747 195.141 54.9747C195.77 54.9747 196.415 54.839 197.076 54.5677V55.5817C196.571 55.8438 195.935 55.9749 195.168 55.9749ZM209.847 55.9749C209.356 55.9749 208.906 55.8852 208.497 55.7059C208.093 55.5219 207.753 55.2414 207.477 54.8643H207.395C207.45 55.3058 207.477 55.7243 207.477 56.1197V59.2307H206.334V48.2767H207.264L207.422 49.3114H207.477C207.771 48.8975 208.113 48.5986 208.504 48.4147C208.894 48.2307 209.342 48.1387 209.847 48.1387C210.848 48.1387 211.619 48.4813 212.161 49.1665C212.708 49.8518 212.981 50.8129 212.981 52.0499C212.981 53.2916 212.703 54.2573 212.148 54.9471C211.596 55.6323 210.83 55.9749 209.847 55.9749ZM209.682 49.1114C208.91 49.1114 208.352 49.3252 208.008 49.7529C207.663 50.1806 207.487 50.8612 207.477 51.7947V52.0499C207.477 53.1122 207.654 53.8733 208.008 54.3332C208.361 54.7884 208.929 55.0161 209.709 55.0161C210.361 55.0161 210.871 54.7516 211.238 54.2228C211.61 53.6939 211.796 52.9651 211.796 52.0361C211.796 51.0934 211.61 50.3714 211.238 49.8701C210.871 49.3643 210.352 49.1114 209.682 49.1114ZM219.259 54.7608L219.487 55.8369H220.334V50.6772C220.334 49.7943 220.116 49.1528 219.68 48.7527C219.248 48.3526 218.582 48.1525 217.682 48.1525C217.237 48.1525 216.791 48.21 216.346 48.325C215.905 48.44 215.499 48.5986 215.127 48.801L215.478 49.677C216.272 49.2907 216.984 49.0976 217.613 49.0976C218.173 49.0976 218.58 49.2401 218.832 49.5252C219.09 49.8058 219.218 50.2426 219.218 50.8359V51.3049L217.937 51.3463C215.499 51.4199 214.279 52.2201 214.279 53.7468C214.279 54.4596 214.491 55.0092 214.913 55.3954C215.34 55.7817 215.928 55.9749 216.676 55.9749C217.237 55.9749 217.703 55.8921 218.075 55.7266C218.451 55.5564 218.828 55.2345 219.204 54.7608H219.259ZM218.578 54.4435C218.173 54.8344 217.616 55.0299 216.904 55.0299C216.454 55.0299 216.103 54.9218 215.85 54.7056C215.602 54.4895 215.478 54.1745 215.478 53.7606C215.478 53.2318 215.678 52.8432 216.077 52.5949C216.481 52.3419 217.138 52.1994 218.047 52.1672L219.191 52.1189V52.8018C219.191 53.5054 218.986 54.0526 218.578 54.4435ZM225.572 55.9749C224.48 55.9749 223.632 55.6392 223.031 54.9678C222.434 54.2918 222.135 53.3375 222.135 52.1051C222.135 50.8405 222.438 49.8632 223.045 49.1734C223.655 48.4836 224.523 48.1387 225.648 48.1387C226.011 48.1387 226.374 48.1778 226.737 48.256C227.099 48.3342 227.384 48.4262 227.591 48.5319L227.239 49.5046C226.987 49.4034 226.711 49.3206 226.413 49.2562C226.114 49.1872 225.85 49.1528 225.621 49.1528C224.087 49.1528 223.32 50.1323 223.32 52.0913C223.32 53.0202 223.506 53.733 223.878 54.2297C224.255 54.7263 224.81 54.9747 225.545 54.9747C226.174 54.9747 226.819 54.839 227.48 54.5677V55.5817C226.975 55.8438 226.339 55.9749 225.572 55.9749ZM229.681 54.954C230.329 55.6346 231.21 55.9749 232.326 55.9749C232.836 55.9749 233.27 55.9358 233.628 55.8576C233.991 55.784 234.374 55.6599 234.778 55.4851V54.4642C233.984 54.8045 233.18 54.9747 232.368 54.9747C231.596 54.9747 230.997 54.7447 230.57 54.2849C230.147 53.825 229.925 53.1513 229.902 52.2638H235.102V51.5395C235.102 50.5186 234.827 49.6977 234.276 49.0769C233.725 48.4515 232.976 48.1387 232.03 48.1387C231.02 48.1387 230.214 48.4974 229.612 49.2148C229.015 49.9322 228.717 50.9002 228.717 52.1189C228.717 53.3283 229.038 54.2734 229.681 54.954ZM230.563 49.6908C230.926 49.2953 231.41 49.0976 232.016 49.0976C232.613 49.0976 233.073 49.2907 233.394 49.677C233.715 50.0587 233.876 50.6105 233.876 51.3325H229.929C229.994 50.6335 230.205 50.0863 230.563 49.6908ZM87.6934 50.9722C87.6934 47.356 90.1551 45.8754 92.6603 45.8754C95.1655 45.8754 97.6273 47.356 97.6273 50.9722C97.6273 54.5884 95.1655 56.069 92.6603 56.069C90.1551 56.069 87.6934 54.5884 87.6934 50.9722ZM95.4551 50.9722C95.4551 47.598 93.4278 47.2991 92.6603 47.2991C91.8928 47.2991 89.8655 47.598 89.8655 50.9722C89.8655 54.3464 91.8928 54.6453 92.6603 54.6453C93.4278 54.6453 95.4551 54.3464 95.4551 50.9722ZM101.354 55.9551H99.2979V45.9893H101.962L105.467 52.2678L106.003 53.6203H106.046L106.003 51.8549V45.9893H108.059V55.9551H105.394L101.861 49.4346L101.354 48.3241H101.311L101.354 50.0895V55.9551ZM110.088 55.9551H116.17V54.2752H112.144V45.9893H110.088V55.9551ZM118.168 51.8834L114.432 45.9893H116.807L118.892 49.4916L119.211 50.1749H119.254L119.602 49.4916L121.702 45.9893H123.874L120.225 51.9118V55.9551H118.168V51.8834ZM128.665 45.8754C126.16 45.8754 123.698 47.356 123.698 50.9722C123.698 54.5884 126.16 56.069 128.665 56.069C131.17 56.069 133.632 54.5884 133.632 50.9722C133.632 47.356 131.17 45.8754 128.665 45.8754ZM128.665 47.2991C129.432 47.2991 131.46 47.598 131.46 50.9722C131.46 54.3464 129.432 54.6453 128.665 54.6453C127.897 54.6453 125.87 54.3464 125.87 50.9722C125.87 47.598 127.897 47.2991 128.665 47.2991ZM137.359 55.9551H135.302V45.9893H140.979V47.6692H137.359V50.0895H140.805V51.7268H137.359V55.9551ZM142.43 55.9551H144.486V51.7268H147.932V50.0895H144.486V47.6692H148.106V45.9893H142.43V55.9551ZM151.613 55.9551H149.557V45.9893H151.613V55.9551ZM161.044 53.9477C160.537 54.1755 159.827 54.3891 158.929 54.3891C157.105 54.3891 155.454 53.4067 155.454 51.0007C155.454 48.9648 156.801 47.5553 159.074 47.5553C159.842 47.5553 160.493 47.6977 161.087 47.9255L161.174 46.2171C160.407 45.975 159.726 45.8754 158.929 45.8754C155.744 45.8754 153.282 47.598 153.282 51.0291C153.282 54.6596 156.033 56.069 158.553 56.069C159.364 56.069 160.276 55.9409 161.174 55.6419L161.044 53.9477ZM168.818 55.9551H162.765V45.9893H168.818V47.7546H164.822V50.0041H168.456V51.6413H164.822V54.1898H168.818V55.9551Z" fill="#333333"/>
<path opacity="0.5" fill-rule="evenodd" clip-rule="evenodd" d="M41.068 156.056L-161.387 217.09C-178.956 222.482 -180.832 234.698 -165.58 244.395L12.5104 364.425C30.6775 377.792 47.9526 382.772 74.5554 373.093L276.717 312.336C294.286 306.944 296.162 294.729 280.91 285.031L110.871 164.797C92.6011 150.761 74.2919 147.215 41.068 156.056Z" fill="#D9F4FF"/>
<path opacity="0.3" fill-rule="evenodd" clip-rule="evenodd" d="M232.654 87.8653L442.327 125.769C460.238 129.184 463.411 141.029 449.42 152.246L286.788 289.924C272.984 301.838 247.474 308.674 230.253 305.075L20.5801 267.171C2.66929 263.756 -0.504059 251.911 13.4867 240.694L176.119 103.016C192.168 89.046 215.62 84.9626 232.654 87.8653Z" fill="#D9F4FF"/>
<path opacity="0.5" fill-rule="evenodd" clip-rule="evenodd" d="M182.877 179.404L165.217 391.772C163.879 409.959 174.497 416.09 188.951 405.477L364.011 283.997C379.09 273.745 392.295 250.87 393.275 233.301L410.935 20.933C412.273 2.74613 401.655 -3.38521 387.201 7.22765L212.141 128.708C194.495 140.597 184.482 162.196 182.877 179.404Z" fill="#D9F4FF"/>
<g filter="url(#filter0_d_2052_129380)">
<rect x="56.9443" y="86" width="176" height="126" rx="4" fill="white"/>
<path d="M212.444 122C212.444 122.828 211.773 123.5 210.944 123.5H78.9443C78.1159 123.5 77.4443 122.828 77.4443 122V108C77.4443 107.172 78.1159 106.5 78.9443 106.5H210.944C211.773 106.5 212.444 107.172 212.444 108L212.444 122Z" fill="white" stroke="#CCCCCC"/>
<path d="M212.444 152C212.444 152.828 211.773 153.5 210.944 153.5H78.9443C78.1159 153.5 77.4443 152.828 77.4443 152V138C77.4443 137.172 78.1159 136.5 78.9443 136.5H210.944C211.773 136.5 212.444 137.172 212.444 138L212.444 152Z" fill="white" stroke="#CCCCCC"/>
<rect x="76.9443" y="166" width="136" height="26" rx="2" fill="#5399DF"/>
<path d="M127.483 181.891C127.483 182.568 127.317 183.151 126.983 183.641C126.655 184.13 126.181 184.505 125.562 184.766C124.947 185.026 124.213 185.156 123.358 185.156C122.942 185.156 122.543 185.133 122.163 185.086C121.783 185.039 121.424 184.971 121.085 184.883C120.752 184.789 120.447 184.677 120.171 184.547V182.781C120.634 182.984 121.153 183.169 121.726 183.336C122.299 183.497 122.882 183.578 123.476 183.578C123.96 183.578 124.361 183.516 124.679 183.391C125.002 183.26 125.241 183.078 125.397 182.844C125.554 182.604 125.632 182.326 125.632 182.008C125.632 181.669 125.541 181.383 125.358 181.148C125.176 180.914 124.9 180.701 124.53 180.508C124.166 180.31 123.707 180.099 123.155 179.875C122.78 179.724 122.421 179.552 122.077 179.359C121.739 179.167 121.437 178.94 121.171 178.68C120.905 178.419 120.694 178.112 120.538 177.758C120.387 177.398 120.312 176.977 120.312 176.492C120.312 175.846 120.465 175.294 120.772 174.836C121.085 174.378 121.522 174.026 122.085 173.781C122.653 173.536 123.314 173.414 124.069 173.414C124.668 173.414 125.231 173.477 125.757 173.602C126.288 173.727 126.809 173.904 127.319 174.133L126.726 175.641C126.257 175.448 125.801 175.294 125.358 175.18C124.921 175.065 124.473 175.008 124.015 175.008C123.619 175.008 123.283 175.068 123.007 175.188C122.731 175.307 122.52 175.477 122.374 175.695C122.233 175.909 122.163 176.164 122.163 176.461C122.163 176.794 122.244 177.076 122.405 177.305C122.572 177.529 122.827 177.734 123.171 177.922C123.52 178.109 123.968 178.318 124.515 178.547C125.145 178.807 125.679 179.081 126.116 179.367C126.559 179.654 126.897 179.997 127.132 180.398C127.366 180.794 127.483 181.292 127.483 181.891ZM131.335 176.352V185H129.499V176.352H131.335ZM130.429 173.039C130.71 173.039 130.952 173.115 131.155 173.266C131.364 173.417 131.468 173.677 131.468 174.047C131.468 174.411 131.364 174.672 131.155 174.828C130.952 174.979 130.71 175.055 130.429 175.055C130.137 175.055 129.89 174.979 129.687 174.828C129.489 174.672 129.39 174.411 129.39 174.047C129.39 173.677 129.489 173.417 129.687 173.266C129.89 173.115 130.137 173.039 130.429 173.039ZM136.437 188.844C135.265 188.844 134.366 188.633 133.741 188.211C133.116 187.789 132.804 187.198 132.804 186.438C132.804 185.906 132.97 185.456 133.304 185.086C133.637 184.721 134.114 184.469 134.733 184.328C134.499 184.224 134.296 184.062 134.124 183.844C133.957 183.62 133.874 183.372 133.874 183.102C133.874 182.779 133.965 182.503 134.147 182.273C134.33 182.044 134.603 181.823 134.968 181.609C134.515 181.417 134.15 181.104 133.874 180.672C133.603 180.234 133.468 179.721 133.468 179.133C133.468 178.508 133.601 177.977 133.866 177.539C134.132 177.096 134.52 176.76 135.03 176.531C135.541 176.297 136.158 176.18 136.882 176.18C137.038 176.18 137.207 176.19 137.39 176.211C137.577 176.227 137.749 176.247 137.905 176.273C138.067 176.294 138.189 176.318 138.272 176.344H141.265V177.367L139.796 177.641C139.937 177.839 140.049 178.065 140.132 178.32C140.215 178.57 140.257 178.844 140.257 179.141C140.257 180.036 139.947 180.742 139.327 181.258C138.713 181.768 137.864 182.023 136.78 182.023C136.52 182.013 136.267 181.992 136.022 181.961C135.835 182.076 135.692 182.203 135.593 182.344C135.494 182.479 135.444 182.633 135.444 182.805C135.444 182.945 135.494 183.06 135.593 183.148C135.692 183.232 135.838 183.294 136.03 183.336C136.228 183.378 136.468 183.398 136.749 183.398H138.241C139.189 183.398 139.913 183.599 140.413 184C140.913 184.401 141.163 184.99 141.163 185.766C141.163 186.75 140.757 187.508 139.944 188.039C139.132 188.576 137.963 188.844 136.437 188.844ZM136.507 187.555C137.147 187.555 137.687 187.492 138.124 187.367C138.562 187.242 138.892 187.062 139.116 186.828C139.34 186.599 139.452 186.326 139.452 186.008C139.452 185.727 139.382 185.51 139.241 185.359C139.101 185.208 138.89 185.104 138.608 185.047C138.327 184.99 137.978 184.961 137.562 184.961H136.202C135.864 184.961 135.564 185.013 135.304 185.117C135.043 185.227 134.84 185.383 134.694 185.586C134.554 185.789 134.483 186.034 134.483 186.32C134.483 186.716 134.658 187.021 135.007 187.234C135.361 187.448 135.861 187.555 136.507 187.555ZM136.866 180.82C137.403 180.82 137.801 180.674 138.062 180.383C138.322 180.086 138.452 179.669 138.452 179.133C138.452 178.549 138.317 178.112 138.046 177.82C137.78 177.529 137.384 177.383 136.858 177.383C136.343 177.383 135.95 177.531 135.679 177.828C135.413 178.125 135.28 178.565 135.28 179.148C135.28 179.674 135.413 180.086 135.679 180.383C135.95 180.674 136.345 180.82 136.866 180.82ZM147.351 176.188C148.325 176.188 149.082 176.44 149.624 176.945C150.171 177.445 150.444 178.25 150.444 179.359V185H148.608V179.703C148.608 179.031 148.47 178.529 148.194 178.195C147.918 177.857 147.491 177.688 146.913 177.688C146.075 177.688 145.491 177.945 145.163 178.461C144.84 178.977 144.679 179.724 144.679 180.703V185H142.843V176.352H144.272L144.53 177.523H144.632C144.819 177.221 145.051 176.974 145.327 176.781C145.608 176.583 145.921 176.435 146.265 176.336C146.614 176.237 146.976 176.188 147.351 176.188ZM159.007 176.352V185H157.171V176.352H159.007ZM158.101 173.039C158.382 173.039 158.624 173.115 158.827 173.266C159.035 173.417 159.14 173.677 159.14 174.047C159.14 174.411 159.035 174.672 158.827 174.828C158.624 174.979 158.382 175.055 158.101 175.055C157.809 175.055 157.562 174.979 157.358 174.828C157.16 174.672 157.062 174.411 157.062 174.047C157.062 173.677 157.16 173.417 157.358 173.266C157.562 173.115 157.809 173.039 158.101 173.039ZM166.147 176.188C167.121 176.188 167.879 176.44 168.421 176.945C168.968 177.445 169.241 178.25 169.241 179.359V185H167.405V179.703C167.405 179.031 167.267 178.529 166.991 178.195C166.715 177.857 166.288 177.688 165.71 177.688C164.871 177.688 164.288 177.945 163.96 178.461C163.637 178.977 163.476 179.724 163.476 180.703V185H161.64V176.352H163.069L163.327 177.523H163.429C163.616 177.221 163.848 176.974 164.124 176.781C164.405 176.583 164.718 176.435 165.062 176.336C165.41 176.237 165.772 176.188 166.147 176.188Z" fill="white"/>
</g>
<path d="M231.098 197.394L232.15 197.105L231.244 196.497L208.28 181.085L207.117 180.304L207.523 181.645L215.742 208.799L216.035 209.768L216.626 208.947L217.594 207.602L217.594 207.602L217.596 207.598C217.848 207.242 218.1 206.863 218.356 206.48C218.412 206.396 218.468 206.311 218.525 206.227C218.841 205.754 219.167 205.272 219.522 204.792L219.522 204.793L219.528 204.784C220.17 203.875 220.629 203.281 221.415 203.281C222.092 203.281 222.558 203.776 223.182 204.659L223.187 204.666L223.193 204.673L231.291 215.316L231.614 215.74L232.017 215.391L234.556 213.192L234.919 212.878L234.62 212.502L226.055 201.75C226.027 201.71 225.998 201.667 225.967 201.623C225.668 201.193 225.249 200.589 225.414 199.835C225.494 199.516 225.715 199.272 226.021 199.066C226.25 198.912 226.469 198.81 226.684 198.711C226.767 198.673 226.849 198.635 226.931 198.595C227.682 198.344 228.367 198.153 229.006 197.975C229.269 197.902 229.525 197.83 229.774 197.758L231.098 197.394Z" fill="white" stroke="#333333"/>
</g>
<rect x="1.44434" y="0.5" width="287" height="253" rx="3.5" stroke="#333333"/>
<path fill-rule="evenodd" clip-rule="evenodd" d="M352.001 100.921C352.427 102.57 353.135 104.386 353.91 106.362C355.102 109.404 356.442 112.831 357.131 116.633C357.958 121.214 358.681 126.284 359.341 131.72C360.002 137.151 360.595 142.948 361.16 148.994C361.294 150.407 361.275 151.835 361.26 153.282C361.241 154.945 361.227 156.622 361.433 158.295C363.629 171.032 365.428 184.591 366.658 197.981C367.83 210.756 368.481 223.378 368.462 234.976V235.005L368.438 235.019C368.046 235.279 367.562 235.481 367.036 235.63C366.495 235.779 365.907 235.865 365.318 235.884C364.725 235.903 364.141 235.851 363.615 235.721C363.122 235.601 362.681 235.413 362.337 235.149L362.323 235.139L362.318 235.12C362.131 234.274 361.839 232.919 361.456 231.126C359.786 223.335 356.336 207.257 351.987 189.166C349.953 180.697 347.622 171.887 345.397 163.457C342.684 153.19 340.124 143.486 338.406 135.618L337.258 130.639C337.167 143.953 336.42 157.872 335.932 166.932L335.918 167.182C335.774 169.84 335.655 172.065 335.583 173.771C335.578 173.887 335.583 174.319 335.592 175.035V175.088C335.664 181.62 335.994 211.55 332.095 235.87L332.09 235.894L332.071 235.908C331.63 236.182 331.19 236.365 330.759 236.471C330.281 236.591 329.812 236.62 329.367 236.586C328.845 236.548 328.352 236.418 327.907 236.245C327.372 236.033 326.907 235.754 326.544 235.481L326.525 235.466V235.442C326.486 231.929 326.419 227.641 326.29 222.893C326.161 218.144 325.974 212.924 325.692 207.541C325.405 202.033 325.027 196.347 324.515 190.791C324.008 185.235 323.371 179.813 322.577 174.838C322.567 174.766 322.519 174.56 322.448 174.223C321.72 170.859 318.246 154.738 318.122 134.681C318.083 128.5 318.294 120.988 319.017 113.816C319.581 108.207 320.457 102.805 321.768 98.4072L321.787 98.3447L321.845 98.3784C323.988 99.5752 326.276 100.729 328.606 101.608C330.937 102.488 333.31 103.098 335.616 103.218C338.339 103.358 341.048 103.199 343.651 102.824C346.584 102.406 349.388 101.719 351.929 100.892L351.982 100.873L352.001 100.921ZM353.81 106.4C353.044 104.439 352.336 102.642 351.91 101.003C349.379 101.825 346.589 102.507 343.665 102.925C341.057 103.295 338.344 103.459 335.612 103.319C333.291 103.199 330.908 102.589 328.568 101.704C326.252 100.83 323.979 99.6857 321.849 98.4985C320.548 102.877 319.677 108.246 319.117 113.826C318.394 120.992 318.184 128.5 318.222 134.681C318.347 154.724 321.821 170.835 322.543 174.199C322.615 174.536 322.658 174.742 322.672 174.819C323.467 179.799 324.103 185.22 324.61 190.781C325.118 196.342 325.501 202.028 325.788 207.536C326.065 212.919 326.257 218.139 326.386 222.893C326.515 227.632 326.582 231.909 326.62 235.418C326.974 235.682 327.419 235.952 327.936 236.153C328.372 236.322 328.855 236.447 329.367 236.485C329.802 236.519 330.262 236.49 330.726 236.37C331.142 236.264 331.563 236.091 331.989 235.831C335.884 211.521 335.554 181.615 335.482 175.088V175.035C335.473 174.314 335.468 173.882 335.473 173.767C335.545 172.055 335.664 169.83 335.808 167.177L335.822 166.927C336.315 157.761 337.076 143.64 337.152 130.197L337.157 129.754L338.507 135.594C340.22 143.457 342.785 153.166 345.493 163.433C347.718 171.858 350.044 180.659 352.082 189.142C356.437 207.243 359.882 223.316 361.552 231.107C361.935 232.895 362.227 234.25 362.409 235.082C362.739 235.327 363.16 235.509 363.634 235.625C364.151 235.75 364.725 235.803 365.309 235.788C365.888 235.769 366.471 235.687 367.003 235.538C367.51 235.399 367.974 235.202 368.352 234.957C368.371 223.368 367.72 210.761 366.548 198C365.323 184.615 363.524 171.056 361.322 158.319V158.314C361.117 156.632 361.131 154.95 361.15 153.287C361.165 151.845 361.179 150.417 361.05 149.014C360.485 142.977 359.892 137.18 359.231 131.739C358.571 126.308 357.848 121.238 357.021 116.662C356.341 112.855 355.001 109.438 353.81 106.4Z" fill="#404040"/>
<path fill-rule="evenodd" clip-rule="evenodd" d="M337.209 130.033C337.137 143.53 336.372 157.732 335.879 166.932C335.73 169.691 335.606 172.003 335.529 173.757C335.525 173.877 335.529 174.329 335.539 175.079C335.611 181.606 335.941 211.535 332.041 235.855C331.122 236.423 330.203 236.591 329.366 236.528C328.222 236.442 327.227 235.932 326.572 235.432C326.495 228.401 326.299 218.298 325.744 207.527C325.169 196.515 324.217 184.773 322.629 174.819C319.011 152.075 316.752 120.036 322.16 98.4793L320.863 98.239C314.9 121.141 317.7 152.186 321.341 175.103C322.92 184.985 323.868 196.659 324.437 207.618C325.007 218.61 325.198 228.848 325.27 235.855L325.275 236.245L325.533 236.475C326.313 237.168 327.686 237.965 329.29 238.09C330.443 238.177 331.711 237.922 332.969 237.038L333.223 236.86L333.28 236.514C337.262 211.997 336.927 181.659 336.855 175.069C336.845 174.372 336.841 173.944 336.845 173.843C336.917 172.18 337.042 169.84 337.195 167.038C337.625 159.03 338.262 147.235 338.468 135.388L337.209 130.033Z" fill="#333333"/>
<path fill-rule="evenodd" clip-rule="evenodd" d="M325.585 235.433C324.021 236.081 322.107 236.74 320.154 237.413C316.23 238.763 312.144 240.172 309.794 241.897C307.708 243.43 306.904 245.185 308.445 247.295L308.507 247.377L308.588 247.439C309.522 248.189 314.154 248.314 319.374 247.992C324.432 247.679 330.127 246.987 333.5 246.093L333.581 246.074C334.361 245.896 336.266 245.492 334.759 239.917C334.701 239.71 334.294 238.812 333.916 237.956C333.605 237.264 333.309 236.601 333.275 236.5L331.797 236.99C331.849 237.153 332.165 237.86 332.5 238.6C332.859 239.398 333.237 240.244 333.261 240.326C334.347 244.334 333.706 244.449 333.242 244.555L333.127 244.579C329.854 245.449 324.265 246.127 319.288 246.43C314.551 246.723 310.455 246.718 309.636 246.261C308.876 245.117 309.435 244.094 310.723 243.142C312.871 241.561 316.848 240.191 320.666 238.879C322.609 238.211 324.514 237.552 326.179 236.865L325.585 235.433Z" fill="#333333"/>
<path fill-rule="evenodd" clip-rule="evenodd" d="M329.653 115.114C330.49 116.008 331.438 116.801 332.486 117.383C333.572 117.984 334.768 118.368 336.079 118.416L336.611 118.435L336.673 119.06C338.376 136.397 342.984 153.575 348.425 173.848C353.072 191.166 358.326 210.742 362.9 234.606C363.714 235.043 364.594 235.149 365.456 235.077C366.279 235.005 367.083 234.764 367.796 234.476C367.647 227.401 367.303 216.707 366.532 205.34C365.987 197.27 365.231 188.892 364.178 181.284C364.034 180.231 363.886 179.231 363.743 178.28C363.594 177.318 363.441 176.367 363.283 175.439C363.159 174.713 362.991 173.79 362.829 172.896C362.398 170.522 362.001 168.35 361.776 165.644C360.001 144.087 359.517 122.521 351.373 101.156L352.536 100.719C360.661 119.911 361.273 144.63 362.991 165.509C363.207 168.095 363.594 170.243 364.025 172.594C364.159 173.334 364.298 174.098 364.479 175.155C364.637 176.098 364.795 177.054 364.944 178.025C365.102 179.053 365.25 180.063 365.384 181.048C366.446 188.719 367.207 197.135 367.753 205.224C368.537 216.846 369.475 228.324 369.619 235.437L369.628 235.951L369.222 236.134C367.264 237.014 363.135 237.562 361.651 235.355L361.589 235.029C357.01 211.054 351.923 191.656 347.262 174.29C341.86 154.166 337.28 137.084 335.52 119.834C334.237 119.709 333.055 119.3 331.974 118.7C330.782 118.036 329.715 117.142 328.782 116.133C327.945 115.229 328.825 114.23 329.653 115.114Z" fill="#333333"/>
<path fill-rule="evenodd" clip-rule="evenodd" d="M351.948 100.935C353.025 105.122 355.944 110.37 357.078 116.647C358.733 125.808 359.978 136.921 361.107 149.004C361.389 152.037 360.992 155.171 361.38 158.304C365.677 183.192 368.447 211.228 368.409 234.976C367.62 235.495 366.466 235.793 365.313 235.831C364.174 235.865 363.069 235.639 362.365 235.106C361.375 230.636 357.389 211.425 352.034 189.147C347.512 170.344 341.578 149.922 338.459 135.599L337.21 130.192C337.133 143.645 336.372 157.771 335.879 166.937C335.731 169.696 335.607 172.007 335.53 173.762C335.525 173.882 335.53 174.334 335.54 175.083C335.611 181.611 335.942 211.54 332.042 235.86C331.123 236.427 330.204 236.596 329.367 236.533C328.223 236.447 327.228 235.937 326.572 235.437C326.496 228.406 326.299 218.303 325.744 207.531C325.17 196.52 324.218 184.778 322.629 174.824C322.5 174.016 318.313 156.723 318.174 134.676C318.107 123.66 318.83 108.429 321.82 98.4216C326.108 100.82 330.984 103.031 335.616 103.266C341.421 103.56 347.148 102.497 351.948 100.935Z" fill="#404040"/>
<path fill-rule="evenodd" clip-rule="evenodd" d="M316.733 65.6035C317.302 63.2052 318.24 61.3114 319.412 59.4225C320.245 58.0864 321.03 56.8175 321.642 56.0436C322.633 54.7892 323.035 55.1112 322.111 56.284C321.532 57.0193 320.896 58.0383 320.101 59.3168C319.001 61.0855 317.761 63.407 317.235 65.618C316.771 67.5694 316.551 69.8236 317.393 71.5539C318.125 73.0583 319.939 74.9424 322.006 75.8796C323.791 76.5573 324.705 77.8454 325.911 79.2056C326.537 79.9122 327.394 80.3928 328.155 81.0465L328.585 81.0993C335.304 81.902 342.151 81.2916 346.678 80.513C346.989 78.4895 347.678 76.5429 348.21 74.8655C348.688 73.3418 349.301 71.6884 349.985 70.6118C348.798 68.1846 347.142 65.3536 345.07 62.167C344.214 60.85 344.74 61.0423 345.539 62.2727C351.861 71.9768 352.693 77.1965 353.153 78.9317L353.421 79.9362L352.531 80.0275C351.679 80.114 350.478 80.3495 349.023 80.6331C344.401 81.5367 337.385 82.2481 328.868 81.3781C328.858 81.7097 328.834 82.0462 328.782 82.4163C328.71 82.9161 328.595 85.2376 328.394 85.9057C342.52 88.6598 351.621 89.001 356.502 88.6021C359.488 88.357 361.919 87.5447 362.809 87.0112C363.412 86.6459 363.589 86.3767 363.637 86.2518C360.699 51.1267 346.956 47.7622 344.085 47.2576C343.721 47.1951 343.477 47.1518 343.286 47.0413L343.219 46.998C342.821 46.7096 342.271 46.2771 341.663 45.806C340.687 45.0466 339.295 43.9364 338.591 43.4653C337.074 44.5275 334.864 45.633 332.782 45.9358C330.782 46.2242 328.475 45.9214 327.083 44.6814C326.82 45.0082 326.528 45.3302 326.241 45.6234C325.609 46.2627 323.953 47.0893 323.556 47.2912L323.48 47.3297L323.403 47.3489C315.9 49.257 312.876 55.265 309.564 60.4175C307.483 63.657 304.698 67.7039 302.171 69.3141C304.554 69.2035 308.148 69.0786 310.689 68.9584L316.57 75.5143C317.178 75.4278 319.168 75.3221 319.752 75.3269C319.02 74.6059 317.613 72.9429 317.201 72.097C316.187 70.0206 316.192 67.8818 316.733 65.6035ZM328.207 88.5108L325.518 85.0838C325.796 85.1079 326.064 85.1463 326.322 85.204L327.136 85.1367L328.073 86.0019C335.218 87.4197 342.85 88.6165 347.425 89.0683C347.41 90.2507 348.501 91.4811 348.54 92.5145C348.583 93.6248 351.478 99.4886 351.602 100.536C348.779 102.714 338.328 102.161 333.557 102.44C329.921 102.651 324.633 100.421 321.35 98.037C321.69 96.7153 322.657 94.3938 322.905 93.1009C323.149 91.8176 323.556 90.3276 323.638 89.0251L328.207 88.5108ZM293.716 66.983C290.706 65.7718 287.06 63.8636 283.71 61.446C283.418 61.8738 282.566 62.5707 282.126 62.9648C281.695 63.3493 280.628 64.1232 280.068 64.4452C281.049 65.4353 282.829 66.8772 283.892 67.8241C284.681 68.5306 285.605 69.3718 286.457 70.0831C287.428 70.035 288.902 69.9197 289.873 69.8716C289.897 69.862 289.907 69.8572 289.907 69.8572L290.017 69.8091C292.677 69.6746 297.104 69.3814 299.597 69.2612C298.286 68.968 295.113 67.5453 293.716 66.983Z" fill="url(#paint0_linear_2052_129380)"/>
<path fill-rule="evenodd" clip-rule="evenodd" d="M331.217 14.2906C333.777 14.8385 336.945 16.2756 339.313 18.5539C341.055 20.2313 342.376 22.3605 342.735 24.9271C342.931 24.9896 343.108 25.0857 343.285 25.2011C343.62 25.427 343.864 25.7731 344.017 26.196C344.151 26.5853 344.209 27.0419 344.175 27.5322C344.094 28.6857 343.5 30.07 342.252 31.1514C342.161 31.6993 342.084 32.2136 342.017 32.7087C342.003 32.8 341.993 32.8913 341.979 32.9778C344.63 29.7576 345.965 26.4171 346.228 23.2785C346.525 19.7699 345.477 16.5063 343.429 13.959C342.433 12.7189 341.223 11.6375 339.888 10.7483C337.433 9.12374 334.538 8.14323 331.671 8.05191C328.843 7.96059 326.049 8.72961 323.757 10.5897C322.838 11.3347 321.996 12.2623 321.259 13.3822C320.221 14.9587 319.574 16.7947 319.546 18.7509C319.522 20.3034 319.886 21.9424 320.752 23.6054C322.546 22.8075 327.862 20.3707 330.365 14.728L330.619 14.1608L331.217 14.2906Z" fill="#666666"/>
<path fill-rule="evenodd" clip-rule="evenodd" d="M331.231 14.2427C332.595 14.5359 334.131 15.0791 335.624 15.8625C336.945 16.5594 338.237 17.4438 339.352 18.5156C340.266 19.3952 341.065 20.4045 341.673 21.5292C342.218 22.5482 342.611 23.6681 342.783 24.8841C342.869 24.9129 342.955 24.9514 343.041 24.9946C343.132 25.0427 343.223 25.0956 343.314 25.1581C343.486 25.2734 343.635 25.4176 343.759 25.5906C343.883 25.7637 343.989 25.9607 344.065 26.1818C344.137 26.3789 344.185 26.6 344.209 26.8259C344.238 27.0518 344.242 27.2921 344.223 27.5372C344.18 28.1524 343.993 28.8349 343.639 29.503C343.328 30.0894 342.883 30.6662 342.3 31.1805C342.256 31.4448 342.213 31.7044 342.175 31.9591L342.055 32.805C343.285 31.291 344.223 29.7481 344.893 28.2101C345.625 26.5423 346.042 24.8793 346.176 23.2739C346.319 21.5485 346.142 19.8806 345.673 18.333C345.195 16.7421 344.419 15.2761 343.386 13.9928C342.893 13.3824 342.347 12.8056 341.764 12.2769C341.17 11.7386 340.529 11.2436 339.854 10.7966C338.62 9.97948 337.275 9.32582 335.883 8.86921C334.509 8.41741 333.083 8.15306 331.667 8.1098C330.217 8.06174 328.777 8.24438 327.408 8.68176C326.116 9.09511 324.891 9.73916 323.786 10.638C323.321 11.0129 322.876 11.4358 322.455 11.9068C322.044 12.3635 321.656 12.8681 321.297 13.4161C320.766 14.2187 320.34 15.0935 320.044 16.0163C319.766 16.8911 319.603 17.8091 319.589 18.7559C319.575 19.549 319.666 20.3613 319.871 21.1928C320.063 21.9666 320.359 22.7549 320.766 23.5431C321.675 23.1394 323.422 22.3319 325.255 20.9477C327.116 19.5394 329.064 17.5255 330.313 14.7138L330.581 14.1082L331.231 14.2427ZM335.576 15.9538C334.088 15.1704 332.562 14.6321 331.207 14.3437L330.643 14.2235L330.408 14.7522C329.155 17.5832 327.193 19.6115 325.317 21.0294C323.446 22.4473 321.666 23.2595 320.766 23.6585L320.723 23.6777L320.699 23.6344C320.273 22.8221 319.972 22.0147 319.776 21.2168C319.57 20.3805 319.479 19.5538 319.488 18.7559C319.503 17.7995 319.666 16.8718 319.948 15.9875C320.245 15.055 320.675 14.1707 321.211 13.3584C321.575 12.8056 321.967 12.2962 322.379 11.8347C322.805 11.3589 323.25 10.936 323.719 10.5563C324.834 9.64784 326.073 8.99898 327.374 8.58083C328.753 8.13864 330.207 7.956 331.672 8.00406C333.098 8.05212 334.528 8.31647 335.916 8.76828C337.318 9.22969 338.672 9.88816 339.912 10.7101C340.586 11.157 341.232 11.6569 341.831 12.2C342.419 12.7335 342.969 13.3151 343.467 13.9303C344.51 15.2233 345.29 16.7036 345.774 18.3041C346.242 19.8662 346.424 21.5436 346.276 23.2836C346.142 24.8985 345.721 26.5711 344.984 28.2534C344.285 29.8443 343.304 31.4448 342.012 33.0117L341.898 33.1511L342.07 31.9399C342.108 31.6851 342.151 31.416 342.194 31.142L342.199 31.1228L342.213 31.1084C342.797 30.6037 343.233 30.0317 343.544 29.4502C343.888 28.7965 344.075 28.1284 344.118 27.5228C344.137 27.2825 344.127 27.0518 344.104 26.8307C344.08 26.6096 344.032 26.3981 343.965 26.2058C343.893 25.9944 343.792 25.8069 343.673 25.6435C343.553 25.4801 343.414 25.3455 343.257 25.235C343.17 25.1773 343.084 25.1244 342.993 25.0812C342.907 25.0379 342.812 24.9994 342.721 24.9658L342.687 24.9562L342.682 24.9225C342.51 23.7065 342.127 22.5866 341.577 21.5677C340.979 20.4478 340.184 19.4529 339.275 18.5781C338.175 17.5255 336.892 16.6459 335.576 15.9538Z" fill="#666666"/>
<path fill-rule="evenodd" clip-rule="evenodd" d="M337.049 7.60031C338.336 8.08095 339.575 8.71059 340.724 9.4748C342.111 10.3976 343.375 11.5079 344.432 12.772C345.853 12.9642 346.863 12.3298 347.461 11.2916C347.811 10.686 348.031 9.94583 348.122 9.14316C348.213 8.32127 348.169 7.43689 347.983 6.57655C347.471 4.21181 345.901 2.01048 343.231 1.62117C341.944 1.43372 340.719 1.54907 339.69 2.0201C338.771 2.44306 337.991 3.16402 337.451 4.22623C337.101 4.91354 336.891 5.64411 336.852 6.3122C336.824 6.79284 336.886 7.23983 337.049 7.60031Z" fill="#666666"/>
<path fill-rule="evenodd" clip-rule="evenodd" d="M337.087 7.56186C337.729 7.80218 338.355 8.07614 338.963 8.38856C339.58 8.70097 340.179 9.05184 340.753 9.43154C341.456 9.89776 342.121 10.412 342.748 10.9648C343.361 11.5079 343.935 12.0991 344.456 12.7191C345.117 12.8056 345.686 12.7095 346.165 12.474C346.691 12.2192 347.107 11.7915 347.414 11.2628C347.586 10.9648 347.725 10.6379 347.83 10.2823C347.94 9.92179 348.021 9.53248 348.064 9.13355C348.112 8.725 348.122 8.29723 348.098 7.86947C348.074 7.4417 348.017 7.00912 347.926 6.58135C347.658 5.33169 347.088 4.12529 346.213 3.21688C345.447 2.41902 344.452 1.84706 343.217 1.66923C342.566 1.5731 341.93 1.55868 341.332 1.62597C340.753 1.69326 340.207 1.83745 339.705 2.06335C339.241 2.27483 338.81 2.56802 338.432 2.94292C338.068 3.29859 337.752 3.73597 337.489 4.25026C337.317 4.59151 337.178 4.94238 337.078 5.28844C336.977 5.6345 336.915 5.98056 336.896 6.3122C336.882 6.55252 336.891 6.78803 336.925 7.00432C336.963 7.20618 337.011 7.39363 337.087 7.56186ZM338.915 8.47988C338.303 8.16746 337.671 7.88869 337.03 7.64837L337.011 7.63876L337.001 7.61953C336.92 7.43689 336.862 7.23502 336.829 7.01873C336.795 6.79764 336.786 6.55732 336.8 6.30739C336.819 5.97094 336.882 5.61527 336.982 5.2644C337.082 4.90873 337.226 4.55306 337.398 4.207C337.666 3.6831 337.987 3.24092 338.36 2.87563C338.748 2.49593 339.183 2.19793 339.662 1.97684C340.174 1.74132 340.729 1.59713 341.317 1.52984C341.925 1.46255 342.571 1.47697 343.227 1.5731C344.485 1.75574 345.504 2.34212 346.284 3.1544C347.17 4.08203 347.749 5.30286 348.021 6.57174C348.112 7.00432 348.175 7.4417 348.198 7.87427C348.222 8.31165 348.208 8.73942 348.165 9.15758C348.117 9.56612 348.041 9.96024 347.926 10.3255C347.816 10.686 347.672 11.0225 347.5 11.3253C347.184 11.8732 346.753 12.3106 346.208 12.5797C345.705 12.8249 345.112 12.9258 344.423 12.8297L344.404 12.8248L344.389 12.8104C343.868 12.1856 343.294 11.5944 342.681 11.0513C342.059 10.4986 341.394 9.98427 340.695 9.52286C340.121 9.13835 339.528 8.79229 338.915 8.47988Z" fill="#666666"/>
<path fill-rule="evenodd" clip-rule="evenodd" d="M321.2 24.6147C321.2 26.6142 321.464 30.7717 323.009 34.4919C323.966 36.7893 325.411 38.9137 327.598 40.2307C328.933 41.0334 330.087 41.3842 331.221 41.3314C332.369 41.2785 333.546 40.8123 334.91 39.9808C336.14 39.231 337.36 38.2312 338.485 37.1354C339.724 35.9242 340.829 34.5976 341.686 33.3431L342.193 33.2326L342.944 34.2083C342.04 35.5397 340.863 36.9479 339.547 38.2312C338.351 39.3992 337.035 40.471 335.695 41.2881C334.111 42.2542 332.709 42.7973 331.283 42.8646C329.838 42.9319 328.417 42.5089 326.813 41.5476C324.306 40.0384 322.665 37.6497 321.598 35.0831C319.947 31.1178 319.669 26.7296 319.669 24.6196H321.2V24.6147Z" fill="#333333"/>
<path fill-rule="evenodd" clip-rule="evenodd" d="M341.735 33.2709C344.544 29.9642 345.955 26.5132 346.228 23.2785C346.525 19.7698 345.477 16.5063 343.429 13.9589C342.434 12.7188 341.223 11.6374 339.888 10.7482C337.433 9.12366 334.538 8.14316 331.672 8.05184C328.844 7.96052 326.049 8.72954 323.757 10.5896C322.838 11.3346 321.996 12.2622 321.259 13.3821C320.221 14.9586 319.575 16.7947 319.546 18.7509C319.522 20.3033 319.886 21.9423 320.752 23.6053C322.546 22.8074 327.863 20.3706 330.365 14.7279L330.619 14.1608L331.222 14.2905C333.782 14.8385 336.95 16.2756 339.318 18.5538C341.199 20.361 342.582 22.6969 342.802 25.5423L341.429 25.6865C341.419 25.5471 341.252 25.3789 341.232 25.2443C340.95 23.0045 339.792 21.1348 338.256 19.6593C336.285 17.7655 333.701 16.5111 331.485 15.9343C328.609 21.7933 323.058 24.2638 321.278 25.052C321.077 25.1385 321.12 24.9799 321.034 25.0905L320.35 25.9652L319.781 25.0088C318.512 22.8795 317.986 20.7503 318.02 18.7316C318.053 16.4678 318.8 14.3482 319.986 12.541C320.809 11.2865 321.757 10.2435 322.8 9.39763C325.394 7.29243 328.547 6.41767 331.724 6.52341C334.868 6.62915 338.046 7.69616 340.725 9.47453C342.199 10.4502 343.525 11.6422 344.62 13.0024C346.913 15.8526 348.085 19.4958 347.755 23.4082C347.458 26.9457 345.932 30.6995 342.898 34.2707L341.735 33.2709Z" fill="#333333"/>
<path fill-rule="evenodd" clip-rule="evenodd" d="M341.495 25.0379C342.227 24.7014 342.787 24.8697 343.285 25.2061C343.62 25.432 343.864 25.7781 344.017 26.201C344.151 26.5903 344.208 27.047 344.175 27.5372C344.074 28.9551 343.208 30.7094 341.303 31.8437C340.768 32.1609 340.189 31.3294 340.835 30.9353C342.38 29.9981 343.084 28.5946 343.16 27.4651C343.184 27.1142 343.151 26.797 343.06 26.5375C342.983 26.3164 342.868 26.1482 342.725 26.052C342.528 25.9175 342.241 25.9126 341.873 26.0761C341.524 26.2299 340.964 25.2782 341.495 25.0379Z" fill="#333333"/>
<path fill-rule="evenodd" clip-rule="evenodd" d="M341.271 26.6431C341.592 26.5325 341.869 26.5758 342.085 26.7248C342.257 26.8402 342.386 27.018 342.463 27.2391C342.534 27.4409 342.563 27.6765 342.544 27.9312C342.491 28.6522 342.056 29.5461 341.104 30.1325C340.745 30.3536 340.472 29.9258 340.86 29.6855C341.635 29.1953 341.994 28.4791 342.032 27.8976C342.046 27.7149 342.027 27.5467 341.979 27.4121C341.941 27.2968 341.879 27.2054 341.802 27.1526C341.721 27.0997 341.616 27.0853 341.486 27.1189C340.994 27.2343 340.797 26.8017 341.271 26.6431Z" fill="#333333"/>
<path fill-rule="evenodd" clip-rule="evenodd" d="M342.256 31.1129C342.16 31.6753 342.084 32.2088 342.012 32.7135C341.84 33.9439 341.682 35.035 341.318 36.0635L340.117 35.6357C340.442 34.7177 340.586 33.6892 340.749 32.5308C340.82 32.0069 340.902 31.459 340.997 30.8918L342.256 31.1129Z" fill="#333333"/>
<path fill-rule="evenodd" clip-rule="evenodd" d="M335.867 8.63352C335.446 7.96544 335.278 7.11951 335.331 6.22072C335.384 5.34115 335.647 4.3991 336.087 3.52914C336.79 2.1401 337.824 1.18843 339.054 0.626086C340.36 0.0252875 341.877 -0.128517 343.442 0.10219C346.854 0.597247 348.844 3.33208 349.476 6.25436C349.696 7.27812 349.749 8.33072 349.639 9.31603C349.524 10.3254 349.237 11.2722 348.782 12.0653C347.83 13.7187 346.184 14.704 343.877 14.2426L344.169 12.7334C345.724 13.0458 346.825 12.3969 347.461 11.2963C347.811 10.6907 348.031 9.95047 348.122 9.14781C348.213 8.32592 348.17 7.44154 347.983 6.5812C347.471 4.21646 345.901 2.01513 343.231 1.62581C341.944 1.43836 340.719 1.55372 339.69 2.02474C338.771 2.44771 337.991 3.16866 337.451 4.23088C337.101 4.91819 336.891 5.64876 336.853 6.31685C336.819 6.90323 336.915 7.42712 337.159 7.81644L335.867 8.63352Z" fill="#333333"/>
<path fill-rule="evenodd" clip-rule="evenodd" d="M298.228 80.5372L305.497 87.569L304.616 88.4918L297.347 81.46L298.228 80.5372ZM321.503 88.2659L326.733 88.0063L324.436 85.4013L325.389 84.5553L329.442 89.1551L321.565 89.5444L321.503 88.2659ZM318.756 78.9607L310.488 69.5787L288.04 70.6985L288.38 71.0254L287.5 71.9482L285.035 69.569C293.701 69.1365 302.367 68.6991 311.033 68.2761L319.704 78.1148L318.756 78.9607Z" fill="#333333"/>
<path fill-rule="evenodd" clip-rule="evenodd" d="M316.977 79.2683C315.221 77.985 313.331 76.7161 311.665 75.6011C309.292 74.0101 307.344 72.7076 306.813 72.0347C306.11 71.1407 306.339 70.3525 306.832 69.7421L290.075 70.5399C289.424 70.8668 285.964 72.8566 290.371 76.173C292.85 78.0379 295.764 79.4125 298.329 80.6189C301.707 82.2098 304.521 83.5316 305.282 85.4878C306.081 87.5401 305.622 89.2512 305.119 90.299L320.107 89.6117C320.642 89.0974 322.365 87.2806 322.298 85.2379L323.571 85.1994C323.671 88.2226 320.791 90.7171 320.781 90.7219L320.614 90.8661C314.556 91.1305 308.493 91.4189 302.435 91.6976L303.473 90.5585C303.478 90.5537 305.153 88.6696 304.1 85.954C303.526 84.4736 300.923 83.248 297.798 81.7773C295.176 80.542 292.194 79.1386 289.615 77.1968C283.045 72.251 289.644 69.3335 289.658 69.3239L289.768 69.2759C297.205 68.9058 303.602 68.627 311.043 68.2761L309.163 69.5835C309.158 69.5883 307.21 70.4678 307.818 71.2465C308.22 71.7607 310.091 73.0104 312.378 74.5436C314.082 75.6828 316.006 76.9757 317.733 78.235L316.977 79.2683Z" fill="#333333"/>
<path fill-rule="evenodd" clip-rule="evenodd" d="M328.389 41.1537L328.255 44.72L326.733 44.6624L326.867 41.1008L328.389 41.1537Z" fill="#333333"/>
<path fill-rule="evenodd" clip-rule="evenodd" d="M338.896 38.4331L339.307 43.0088C340.083 43.5135 341.303 44.4651 342.356 45.287C342.944 45.7436 343.48 46.1618 343.82 46.4165C343.863 46.4261 343.916 46.4117 344.088 46.4405C347.174 46.9789 361.257 49.4493 364.277 85.8625C364.281 85.9058 364.277 86.0115 364.257 86.1221C364.21 86.3816 363.932 87.2083 362.697 87.9533C361.645 88.5877 359.788 89.2366 356.52 89.5058C351.433 89.9239 342.753 89.4385 327.952 86.5018L327.091 86.3287L327.378 85.4972C327.713 84.5215 327.885 83.8198 327.967 83.2238C328.048 82.6278 328.048 82.1231 328.034 81.556L328.014 80.6716L328.89 80.7774C337.546 81.8059 344.949 80.364 349.639 79.4508C350.691 79.2441 351.61 79.0663 352.39 78.9461C351.72 76.5574 349.782 70.5686 344.27 62.1046C343.413 60.7876 344.734 60.0138 345.533 61.2442C351.859 70.9531 353.596 77.5234 354.06 79.2585L354.328 80.2631L353.438 80.3544C352.586 80.4409 351.385 80.6764 349.931 80.96C345.308 81.8636 338.087 83.2719 329.57 82.4019C329.56 82.7336 329.536 83.07 329.483 83.4401C329.412 83.94 329.297 84.4975 329.096 85.1656C343.222 87.9196 351.529 88.3811 356.41 87.9773C359.396 87.7322 361.032 87.1747 361.922 86.6412C362.525 86.2759 362.702 86.0067 362.75 85.8817C359.812 50.7567 346.715 48.4592 343.839 47.9594C343.475 47.8969 343.231 47.8536 343.04 47.7431L342.973 47.6998C342.576 47.4114 342.025 46.9789 341.418 46.5078C340.226 45.5754 338.81 44.4747 338.216 44.1431L337.862 43.946L337.379 38.5773L338.896 38.4331Z" fill="#333333"/>
<path fill-rule="evenodd" clip-rule="evenodd" d="M321.024 79.2443C319.459 79.3068 316.875 79.5615 314.732 80.1815C313.693 80.4795 312.779 80.864 312.186 81.3351C311.731 81.7004 311.487 82.1185 311.583 82.5992C311.64 82.8731 311.789 83.1807 312.052 83.5364C314.296 86.228 317.756 85.5262 321.129 84.8389C323.737 84.3102 326.297 83.7863 328.499 84.6515L327.944 86.0838C326.154 85.382 323.809 85.8579 321.426 86.3433C317.608 87.122 313.693 87.915 310.865 84.5025L310.841 84.4736C310.43 83.9257 310.186 83.4018 310.085 82.9116C309.851 81.7725 310.324 80.864 311.234 80.1383C311.999 79.5279 313.1 79.0568 314.31 78.706C316.617 78.0379 319.431 77.7687 321.086 77.7111C322.68 77.6582 322.637 79.1818 321.024 79.2443Z" fill="#333333"/>
<path fill-rule="evenodd" clip-rule="evenodd" d="M350.601 71.0495C349.907 72.0444 349.314 73.3854 348.816 74.9523C348.261 76.7066 347.84 78.7205 347.534 80.8497L346.022 80.6334C346.342 78.4177 346.782 76.3125 347.357 74.4909C347.897 72.7846 348.558 71.2994 349.347 70.1699L350.601 71.0495ZM324.326 88.8331C324.263 90.3279 324.062 91.8035 323.785 93.279C323.536 94.5719 323.019 96.3167 322.679 97.6384C329.044 103.728 348.807 102.204 351.046 100.479C350.759 98.0566 346.706 90.9383 346.754 88.5015L348.275 88.6024C348.228 91.1113 352.29 98.2248 352.611 100.715L352.663 101.137C341.973 105.237 325.029 103.358 320.942 98.2392L321.072 97.749C321.45 96.2974 322.009 94.4229 322.282 92.9906C322.555 91.5776 322.746 90.1693 322.799 88.7706L324.326 88.8331Z" fill="#333333"/>
<path fill-rule="evenodd" clip-rule="evenodd" d="M279.89 64.6854C278.981 64.0318 277.306 63.7914 275.478 63.5319C272.871 63.1618 269.971 62.7485 267.927 60.9989C266.827 60.0617 265.506 58.168 265.085 55.9378C264.774 54.2988 264.937 52.4676 265.999 50.6796L266.023 50.6412C267.497 48.4735 269.621 49.949 272.138 51.6938C273.579 52.6935 275.177 53.799 276.708 54.1883L276.718 54.1066C276.78 53.6259 276.809 52.8473 276.761 51.588L276.737 51.242C276.68 50.5643 276.627 49.8866 277.172 49.2233C277.33 49.0358 277.507 48.8916 277.713 48.8003C278.053 48.6465 278.417 48.6369 278.79 48.7619C279.072 48.8532 279.364 49.0262 279.656 49.2665C280.589 50.0404 281.661 51.6697 282.522 53.6019C282.781 54.1787 283.006 54.7122 283.183 55.2697C283.364 55.8417 283.498 56.4281 283.57 57.0961C283.613 57.4999 283.632 57.894 283.656 58.2833C283.709 59.259 283.766 60.2011 284.125 60.9124L282.761 61.6093C282.259 60.6144 282.197 59.5089 282.13 58.3698C282.111 57.9949 282.087 57.6152 282.048 57.2548C281.991 56.702 281.881 56.2118 281.728 55.7407C281.57 55.2457 281.364 54.7602 281.13 54.2315C280.359 52.506 279.445 51.0834 278.689 50.4585C278.555 50.348 278.431 50.2663 278.33 50.2326C278.206 50.4249 278.235 50.7757 278.263 51.1266C278.273 51.242 278.283 51.3477 278.287 51.54C278.34 52.8858 278.302 53.7509 278.23 54.3036C278.172 54.765 278.086 55.0534 278.005 55.2313C277.79 55.6975 277.416 55.8176 277.211 55.8273C277.158 55.8321 277.129 55.8273 277.077 55.8224C275.009 55.5485 273.033 54.1787 271.272 52.9578C269.449 51.6938 267.904 50.6219 267.291 51.5015C266.468 52.9098 266.344 54.3565 266.588 55.659C266.937 57.5095 268.018 59.062 268.913 59.831C270.626 61.2921 273.292 61.6718 275.694 62.0179C277.723 62.3063 279.579 62.5706 280.785 63.4406L279.89 64.6854Z" fill="#333333"/>
<path fill-rule="evenodd" clip-rule="evenodd" d="M326.513 25.9414C327.216 26.0663 328.092 25.975 328.666 25.8548C327.398 25.7635 326.81 23.9227 325.293 23.8362C324.565 23.7929 323.441 24.1005 322.757 25.2973C322.958 25.4271 323.336 25.3694 323.407 25.3646C323.364 27.3737 325.819 27.6524 326.513 25.9414Z" fill="#333333"/>
<path fill-rule="evenodd" clip-rule="evenodd" d="M335.963 25.6385C336.676 25.6241 337.518 25.355 338.054 25.1291C336.791 25.2877 335.853 23.6054 334.351 23.8217C333.628 23.9275 332.59 24.4514 332.154 25.7587C332.374 25.8452 332.738 25.7154 332.805 25.6962C333.164 27.6668 335.624 27.4554 335.963 25.6385Z" fill="#333333"/>
<path fill-rule="evenodd" clip-rule="evenodd" d="M330.174 34.2132C330.982 34.1747 331.686 35.0063 331.743 36.0781C331.801 37.1451 331.188 38.0439 330.379 38.0871C329.571 38.1256 328.867 37.2941 328.81 36.2223C328.752 35.1504 329.36 34.2516 330.174 34.2132Z" fill="#333333"/>
<path fill-rule="evenodd" clip-rule="evenodd" d="M333.25 33.9729C332.044 35.3427 329.077 35.4244 327.594 34.8381C327.546 35.6936 328.613 36.7125 330.197 36.5155C333.322 36.1214 333.202 34.4295 333.25 33.9729Z" fill="#333333"/>
<path fill-rule="evenodd" clip-rule="evenodd" d="M330.279 31.6512C329.288 31.7137 327.958 30.7428 327.896 29.8584C327.762 27.9551 330.145 27.8061 330.178 25.9893C330.762 27.9887 326.881 29.4739 330.279 31.6512Z" fill="#333333"/>
<path fill-rule="evenodd" clip-rule="evenodd" d="M339.044 44.0757L338.848 44.2247C337.321 45.3542 335.063 46.3636 332.876 46.6808C330.876 46.9692 328.909 46.6952 327.516 45.4551C327.253 45.782 326.961 46.104 326.674 46.3972C326.043 47.0364 325.382 47.5651 324.98 47.7622L324.904 47.8007L324.827 47.8199C317.324 49.728 313.51 55.6687 310.199 60.8212C307.811 64.5365 305.672 67.8673 302.538 69.2371L302.418 69.29L302.294 69.2996C299.604 69.5015 296.609 68.9247 293.384 67.627C290.369 66.4158 287.153 64.5749 283.799 62.1573C283.507 62.5899 283.129 63.0081 282.684 63.407C282.253 63.7915 281.751 64.152 281.196 64.474C282.172 65.4641 283.186 66.4206 284.249 67.3675C285.555 68.5354 286.943 69.6937 288.426 70.8953L287.469 72.0921C285.99 70.8953 284.588 69.7226 283.234 68.5162C281.894 67.3242 280.612 66.0986 279.368 64.7912L278.616 64.003L279.617 63.5608C280.42 63.2051 281.119 62.7533 281.674 62.2631C282.229 61.768 282.636 61.2393 282.851 60.7346L283.234 59.8455L284.009 60.4222C287.507 63.0129 290.847 64.9643 293.953 66.2091C296.905 67.3963 299.633 67.9394 302.054 67.7808C304.705 66.5552 306.696 63.4503 308.921 59.9945C312.371 54.6257 316.348 48.4399 324.372 46.3539C324.645 46.1953 325.109 45.8012 325.597 45.3158C326.052 44.8592 326.502 44.3304 326.803 43.845L327.387 42.903L328.119 43.869C329.115 45.1475 330.856 45.4311 332.67 45.1716C334.603 44.8928 336.599 44.0036 337.943 43.0087L338.135 42.8645L339.044 44.0757Z" fill="#333333"/>
<path fill-rule="evenodd" clip-rule="evenodd" d="M322.598 56.6444C322.019 57.3798 321.23 58.4468 320.436 59.7253C319.335 61.494 318.239 63.6617 317.713 65.8727C317.249 67.8241 317.325 69.8235 318.167 71.5538C318.899 73.0582 320.225 74.38 322.292 75.3172C324.077 75.9949 325.206 77.2638 326.417 78.624C327.25 79.5612 328.121 80.5418 329.24 81.33L328.369 82.5845C327.087 81.6857 326.159 80.6379 325.273 79.643C324.187 78.4173 323.168 77.2734 321.728 76.7351C320.943 76.4419 320.11 76.2448 319.249 76.1631C318.431 76.0862 317.574 76.1103 316.689 76.2593L316.445 74.7453C317.143 74.6299 317.828 74.577 318.502 74.5866C317.77 73.8657 317.206 73.0678 316.794 72.2171C315.784 70.1455 315.689 67.7904 316.229 65.5122C316.799 63.1138 317.971 60.7971 319.144 58.9082C319.976 57.572 320.809 56.4425 321.421 55.6639C322.407 54.419 323.517 55.4716 322.598 56.6444Z" fill="#333333"/>
<path fill-rule="evenodd" clip-rule="evenodd" d="M362.401 234.961C361.004 235.923 358.511 237.533 356.74 238.6C353.185 240.743 349.481 242.983 347.548 245.16C345.83 247.097 345.409 248.982 347.351 250.721L347.428 250.789L347.519 250.837C348.586 251.375 353.146 250.524 358.185 249.111C363.066 247.742 368.492 245.872 371.603 244.291L371.679 244.257C372.407 243.92 374.187 243.123 371.55 237.989C371.45 237.802 370.866 237.004 370.316 236.249C369.866 235.639 369.44 235.053 369.383 234.957L368.038 235.745C368.124 235.889 368.579 236.519 369.062 237.172C369.579 237.879 370.129 238.629 370.162 238.701C372.057 242.392 371.454 242.642 371.024 242.839L370.919 242.887C367.899 244.425 362.573 246.261 357.769 247.607C353.199 248.885 349.189 249.746 348.294 249.472C347.313 248.515 347.643 247.391 348.706 246.194C350.476 244.199 354.084 242.022 357.539 239.936C359.3 238.874 361.788 237.268 363.277 236.245L362.401 234.961Z" fill="#333333"/>
<path fill-rule="evenodd" clip-rule="evenodd" d="M311.014 243.002C310.942 243.05 310.87 243.103 310.799 243.156C309.511 244.103 308.952 245.132 309.712 246.276C310.531 246.732 314.632 246.732 319.364 246.444C324.346 246.136 329.935 245.463 333.203 244.593L333.318 244.569C333.619 244.502 334.002 244.43 333.921 243.262C333.878 242.647 333.71 241.724 333.337 240.34C333.318 240.263 332.935 239.412 332.576 238.614C332.409 238.239 332.241 237.874 332.117 237.581C331.169 238.028 330.231 238.158 329.36 238.09C328.092 237.994 326.968 237.47 326.164 236.917C324.518 237.595 322.647 238.239 320.738 238.898C317.048 240.162 313.201 241.484 311.014 243.002Z" fill="#FEFEFE"/>
<path fill-rule="evenodd" clip-rule="evenodd" d="M357.543 239.941C355.591 241.119 353.59 242.325 351.901 243.512C350.6 244.43 349.48 245.329 348.705 246.199C347.643 247.396 347.312 248.516 348.293 249.477C349.188 249.751 353.198 248.891 357.768 247.612C361.63 246.531 365.831 245.132 368.898 243.825C369.645 243.508 370.324 243.195 370.918 242.892L371.023 242.844C371.454 242.642 372.057 242.397 370.162 238.706C370.123 238.634 369.578 237.884 369.061 237.178C368.865 236.913 368.678 236.654 368.515 236.428C366.917 236.937 364.62 237.173 363.022 236.428C361.515 237.451 359.204 238.937 357.543 239.941Z" fill="#FEFEFE"/>
<path fill-rule="evenodd" clip-rule="evenodd" d="M289.954 70.6022C289.122 71.0588 286.394 72.89 289.954 75.8459C290.084 75.9517 290.222 76.0622 290.371 76.1728C292.806 78.0088 295.668 79.3642 298.204 80.561L298.228 80.537L298.3 80.6043C298.309 80.6091 298.319 80.6139 298.333 80.6187C301.712 82.2096 304.525 83.5314 305.281 85.4876C306.081 87.5399 305.621 89.251 305.119 90.2987L320.106 89.6114C320.556 89.1789 321.848 87.8235 322.207 86.1893C321.948 86.2422 321.69 86.2902 321.436 86.3431C317.618 87.1217 313.703 87.9148 310.875 84.5022L310.851 84.4734C310.44 83.9255 310.196 83.4016 310.095 82.9113C309.861 81.7722 310.335 80.8638 311.244 80.138C312.009 79.5228 313.11 79.0566 314.321 78.7057C314.771 78.576 315.239 78.4606 315.718 78.3597C314.345 77.3936 312.943 76.4516 311.67 75.6008C309.296 74.0099 307.349 72.7074 306.818 72.0345C306.124 71.1549 306.339 70.3715 306.818 69.7659L289.954 70.6022Z" fill="#FEFEFE"/>
<path fill-rule="evenodd" clip-rule="evenodd" d="M280.368 63.1764C280.857 62.8977 281.297 62.5852 281.665 62.2584C282.043 61.922 282.35 61.5711 282.579 61.2202C282.235 60.3311 282.177 59.365 282.125 58.37C282.106 57.9951 282.082 57.6154 282.043 57.255C281.991 56.7407 281.89 56.2793 281.751 55.8323C281.742 55.7986 281.732 55.7698 281.723 55.7361C281.565 55.2411 281.359 54.7556 281.125 54.2269C280.354 52.5014 279.44 51.0788 278.684 50.4539C278.55 50.3434 278.426 50.2617 278.325 50.228C278.201 50.4203 278.229 50.7711 278.258 51.122C278.268 51.2374 278.277 51.3431 278.282 51.5354C278.335 52.8812 278.296 53.7463 278.225 54.299C278.167 54.7605 278.081 55.0488 278 55.2267C277.784 55.6929 277.411 55.813 277.205 55.8227C277.153 55.8275 277.124 55.8227 277.071 55.8179C275.004 55.5439 273.028 54.1741 271.267 52.9533C269.444 51.6892 267.898 50.6173 267.286 51.4969C266.463 52.9052 266.338 54.3519 266.582 55.6544C266.592 55.7121 266.606 55.7746 266.621 55.8323C267.003 57.6058 268.042 59.0814 268.913 59.8264C270.626 61.2875 273.291 61.6672 275.693 62.0133C277.502 62.2728 279.172 62.5083 280.368 63.1764Z" fill="#FEFEFE"/>
<path fill-rule="evenodd" clip-rule="evenodd" d="M323.009 34.4919C323.966 36.7893 325.412 38.9137 327.598 40.2307C328.933 41.0334 330.087 41.3842 331.221 41.3314C332.369 41.2785 333.546 40.8123 334.91 39.9808C336.14 39.231 337.36 38.2312 338.485 37.1354C339.112 36.5202 339.71 35.8761 340.255 35.2224C340.49 34.415 340.614 33.5258 340.753 32.5405C340.782 32.3194 340.815 32.0983 340.849 31.8724C340.528 31.7186 340.37 31.2187 340.829 30.9399C342.375 30.0027 343.078 28.5992 343.155 27.4697C343.179 27.1189 343.145 26.8016 343.055 26.5421C342.978 26.321 342.863 26.1528 342.72 26.0567C342.523 25.9221 342.236 25.9173 341.868 26.0807C341.624 26.1912 341.265 25.725 341.279 25.3693C341.255 25.3261 341.241 25.2876 341.236 25.2492C340.954 23.0094 339.796 21.1397 338.26 19.6642C336.288 17.7704 333.704 16.516 331.489 15.9392C328.613 21.7982 323.062 24.2687 321.282 25.0569C321.253 25.0713 321.224 25.0762 321.205 25.081C321.244 27.2054 321.574 31.0409 323.009 34.4919ZM333.25 33.9728C333.211 34.3333 333.278 35.4772 331.742 36.126C331.776 37.169 331.173 38.039 330.374 38.0774C329.599 38.1159 328.924 37.3565 328.814 36.3567C328.024 36.0539 327.56 35.4051 327.589 34.8331C327.972 34.9869 328.455 35.0927 328.981 35.1455C329.216 34.6024 329.646 34.2323 330.163 34.2083C330.661 34.1843 331.12 34.4919 331.412 34.9773C332.154 34.7947 332.819 34.4678 333.25 33.9728ZM341.485 27.1141C340.992 27.239 340.796 26.8016 341.27 26.643C341.59 26.5325 341.868 26.5757 342.083 26.7247C342.255 26.8401 342.385 27.0179 342.461 27.239C342.533 27.4409 342.562 27.6764 342.543 27.9311C342.49 28.6521 342.054 29.5461 341.102 30.1325C340.743 30.3536 340.471 29.9258 340.858 29.6855C341.633 29.1952 341.992 28.4791 342.031 27.8975C342.045 27.7149 342.026 27.5466 341.978 27.4121C341.94 27.2967 341.877 27.2054 341.801 27.1525C341.724 27.0948 341.619 27.0804 341.485 27.1141ZM330.178 25.9846C330.761 27.984 326.881 29.474 330.278 31.6465C329.288 31.709 327.957 30.7381 327.895 29.8537C327.761 27.9552 330.144 27.8014 330.178 25.9846ZM326.512 25.9413C325.823 27.6524 323.368 27.3736 323.407 25.3645C323.335 25.3693 322.957 25.427 322.756 25.2972C323.44 24.1053 324.565 23.7977 325.292 23.8361C326.809 23.9226 327.397 25.7635 328.665 25.8548C328.091 25.9749 327.216 26.0711 326.512 25.9413ZM338.059 25.129C337.523 25.3597 336.681 25.6241 335.968 25.6385C335.628 27.4505 333.168 27.6668 332.809 25.6914C332.742 25.7106 332.379 25.8404 332.159 25.7538C332.594 24.4465 333.632 23.9226 334.355 23.8169C335.858 23.6054 336.796 25.2924 338.059 25.129Z" fill="#FEFEFE"/>
<path fill-rule="evenodd" clip-rule="evenodd" d="M335.699 41.2883C334.115 42.2544 332.713 42.7975 331.287 42.8648C330.321 42.9081 329.359 42.735 328.349 42.3265L328.282 44.0664C329.297 45.1719 330.948 45.4074 332.661 45.1623C334.527 44.8931 336.446 44.0568 337.786 43.1051L337.508 40.0291C336.915 40.4857 336.307 40.9134 335.699 41.2883Z" fill="#FEFEFE"/>
<path fill-rule="evenodd" clip-rule="evenodd" d="M321.024 79.2441C319.459 79.3066 316.875 79.5613 314.731 80.1814C313.693 80.4794 312.779 80.8639 312.186 81.3349C311.731 81.7002 311.487 82.1183 311.583 82.599C311.64 82.8729 311.789 83.1854 312.052 83.5362C314.296 86.2278 317.756 85.5261 321.129 84.8388C323.431 84.3725 325.699 83.9063 327.714 84.4014C327.838 83.9496 327.915 83.5651 327.963 83.219C328.006 82.9114 328.025 82.6278 328.034 82.3442C326.919 81.5031 326.077 80.5515 325.268 79.643C324.182 78.4222 323.163 77.2735 321.723 76.7352C320.938 76.442 320.105 76.2449 319.244 76.1632C318.828 76.1248 318.397 76.1103 317.961 76.1296L319.445 77.8118C320.062 77.7589 320.622 77.7253 321.091 77.7061C322.68 77.658 322.637 79.1816 321.024 79.2441Z" fill="#FEFEFE"/>
<path fill-rule="evenodd" clip-rule="evenodd" d="M312.372 74.5386C313.989 75.6249 315.817 76.8457 317.473 78.0473C317.617 78.0281 317.76 78.0088 317.899 77.9896L310.487 69.5833L309.003 69.6553C308.558 69.8812 307.304 70.5974 307.812 71.2463C308.214 71.7557 310.085 73.0102 312.372 74.5386Z" fill="#FEFEFE"/>
<path fill-rule="evenodd" clip-rule="evenodd" d="M324.764 85.781C324.362 85.8195 323.946 85.8771 323.525 85.9444C323.424 86.7663 323.128 87.5353 322.759 88.2034L326.721 88.0064L324.764 85.781Z" fill="#FEFEFE"/>
<path fill-rule="evenodd" clip-rule="evenodd" d="M304.093 85.954C303.758 85.0889 302.73 84.3102 301.308 83.522L304.227 86.3481C304.189 86.2136 304.146 86.0838 304.093 85.954Z" fill="#FEFEFE"/>
</g>
<defs>
<filter id="filter0_d_2052_129380" x="41.9443" y="78" width="206" height="156" filterUnits="userSpaceOnUse" color-interpolation-filters="sRGB">
<feFlood flood-opacity="0" result="BackgroundImageFix"/>
<feColorMatrix in="SourceAlpha" type="matrix" values="0 0 0 0 0 0 0 0 0 0 0 0 0 0 0 0 0 0 127 0" result="hardAlpha"/>
<feOffset dy="7"/>
<feGaussianBlur stdDeviation="7.5"/>
<feColorMatrix type="matrix" values="0 0 0 0 0.333333 0 0 0 0 0.333333 0 0 0 0 0.333333 0 0 0 0.1 0"/>
<feBlend mode="normal" in2="BackgroundImageFix" result="effect1_dropShadow_2052_129380"/>
<feBlend mode="normal" in="SourceGraphic" in2="effect1_dropShadow_2052_129380" result="shape"/>
</filter>
<linearGradient id="paint0_linear_2052_129380" x1="302.38" y1="42.9481" x2="346.862" y2="91.7278" gradientUnits="userSpaceOnUse">
<stop stop-color="#FFC671"/>
<stop offset="1" stop-color="#FF6F3D"/>
</linearGradient>
<clipPath id="clip0_2052_129380">
<rect width="448" height="254" fill="white" transform="translate(0.944336)"/>
</clipPath>
<clipPath id="clip1_2052_129380">
<rect x="0.944336" width="288" height="254" rx="4" fill="white"/>
</clipPath>
</defs>
</svg>
