<svg xmlns="http://www.w3.org/2000/svg" width="640" height="500" viewBox="0 0 640 500" fill="none">
<g clip-path="url(#clip0_490_92845)">
<path d="M63.3792 454.892L56.265 447.819C60.197 444.233 66.2933 444.33 70.1083 448.123L79.6358 457.596C87.3675 465.282 87.4039 477.781 79.7171 485.513C72.0303 493.245 59.5313 493.281 51.7997 485.594L42.2928 476.143C38.4663 472.338 38.3336 466.224 41.9075 462.26L49.0428 469.353L58.5497 478.805C62.5316 482.764 68.9688 482.745 72.9277 478.763C76.8865 474.781 76.8677 468.344 72.8858 464.385L63.8665 455.418L63.8854 455.409L63.4044 454.917L63.384 454.896L63.384 454.896L63.3792 454.892ZM32.752 453.199C28.82 456.784 22.7237 456.687 18.9087 452.894L9.38116 443.422C1.64953 435.735 1.61315 423.236 9.29991 415.505C16.9867 407.773 29.4857 407.737 37.2174 415.423L46.7242 424.875C50.5507 428.679 50.6834 434.793 47.1096 438.758L39.9742 431.664L30.4673 422.213C26.4854 418.254 20.0482 418.273 16.0893 422.255C12.1305 426.236 12.1493 432.674 16.1312 436.633L25.1505 445.599L25.1315 445.609L25.6126 446.1L25.633 446.121L25.633 446.121L25.6378 446.126L32.752 453.199ZM56.6858 469.366L25.5811 438.441L32.3312 431.652L63.4359 462.576L56.6858 469.366Z" fill="#F2F2F2" stroke="#AAAAAA"/>
<path d="M348.547 208.175C348.765 207.971 348.942 207.802 349.077 207.67C349.248 207.807 349.479 207.991 349.768 208.217C350.447 208.749 351.446 209.514 352.726 210.45C355.286 212.323 358.974 214.884 363.488 217.638C372.512 223.142 384.86 229.431 398.118 232.526C403.105 233.691 408.226 234.404 413.351 234.452C411.941 239.797 410.814 244.896 409.868 249.768C408.468 256.969 407.462 263.677 406.522 269.945L406.521 269.949C404.03 286.56 402.002 300.032 394.4 311.693C386.829 323.31 373.679 333.192 348.816 342.468C324.468 333.919 311.345 323.766 303.754 311.981C296.133 300.15 294.04 286.613 291.873 271.174L291.872 271.17C290.944 264.562 289.954 257.51 288.426 249.951C287.44 245.075 286.23 239.988 284.668 234.67C289.718 234.598 294.848 233.814 299.894 232.558C315.544 229.279 327.914 222.984 336.371 217.508C340.601 214.769 343.854 212.234 346.052 210.382C347.151 209.456 347.986 208.7 348.547 208.175Z" fill="url(#paint0_linear_490_92845)" stroke="#E2E2E2"/>
<path d="M354.781 269.413L354.52 269.601L354.582 269.916L359.601 295.473C357.163 298.016 353.104 299.478 348.987 299.637C344.868 299.797 340.828 298.647 338.4 296.135L343.581 269.916L343.642 269.606L343.388 269.418C342.075 268.445 341.032 267.153 340.359 265.663C339.686 264.174 339.406 262.537 339.545 260.909C339.684 259.28 340.237 257.714 341.152 256.36C342.067 255.006 343.313 253.909 344.772 253.173C346.231 252.437 347.854 252.087 349.487 252.156C351.119 252.225 352.707 252.712 354.099 253.568C355.49 254.425 356.639 255.624 357.436 257.05C358.234 258.477 358.653 260.084 358.653 261.719H358.653L358.653 261.726C358.675 263.225 358.335 264.706 357.661 266.045C356.986 267.384 355.998 268.539 354.781 269.413Z" fill="white" stroke="#E2E2E2"/>
<g filter="url(#filter0_d_490_92845)">
<g clip-path="url(#clip1_490_92845)">
<rect x="50" y="56" width="540" height="388" rx="5" fill="white"/>
<rect width="383" height="48" transform="translate(205 56)" fill="white"/>
<rect width="48" height="48" transform="translate(225 56)" fill="white"/>
<path d="M229.17 75.0059C230.077 75.0059 230.824 75.1152 231.412 75.334C232.005 75.5527 232.444 75.8831 232.731 76.3252C233.019 76.7673 233.162 77.3255 233.162 78C233.162 78.4557 233.076 78.8545 232.902 79.1963C232.729 79.5381 232.501 79.8275 232.219 80.0645C231.936 80.3014 231.631 80.4951 231.303 80.6455L234.242 85H231.891L229.505 81.165H228.377V85H226.258V75.0059H229.17ZM229.02 76.7422H228.377V79.4424H229.061C229.762 79.4424 230.264 79.3262 230.564 79.0938C230.87 78.8568 231.022 78.5104 231.022 78.0547C231.022 77.5807 230.858 77.2435 230.53 77.043C230.207 76.8424 229.703 76.7422 229.02 76.7422ZM242.281 81.165C242.281 81.8031 242.195 82.3682 242.021 82.8604C241.853 83.3525 241.604 83.7695 241.276 84.1113C240.953 84.4486 240.561 84.7038 240.101 84.877C239.645 85.0501 239.13 85.1367 238.556 85.1367C238.018 85.1367 237.523 85.0501 237.072 84.877C236.626 84.7038 236.236 84.4486 235.903 84.1113C235.575 83.7695 235.32 83.3525 235.138 82.8604C234.96 82.3682 234.871 81.8031 234.871 81.165C234.871 80.3174 235.021 79.5996 235.322 79.0117C235.623 78.4238 236.051 77.9772 236.607 77.6719C237.163 77.3665 237.826 77.2139 238.597 77.2139C239.312 77.2139 239.946 77.3665 240.497 77.6719C241.053 77.9772 241.488 78.4238 241.803 79.0117C242.122 79.5996 242.281 80.3174 242.281 81.165ZM236.997 81.165C236.997 81.6663 237.052 82.0879 237.161 82.4297C237.271 82.7715 237.441 83.029 237.674 83.2021C237.906 83.3753 238.209 83.4619 238.583 83.4619C238.952 83.4619 239.251 83.3753 239.479 83.2021C239.711 83.029 239.88 82.7715 239.984 82.4297C240.094 82.0879 240.148 81.6663 240.148 81.165C240.148 80.6592 240.094 80.2399 239.984 79.9072C239.88 79.57 239.711 79.3171 239.479 79.1484C239.246 78.9798 238.943 78.8955 238.569 78.8955C238.018 78.8955 237.617 79.0846 237.366 79.4629C237.12 79.8411 236.997 80.4085 236.997 81.165ZM250.949 81.165C250.949 81.8031 250.863 82.3682 250.689 82.8604C250.521 83.3525 250.272 83.7695 249.944 84.1113C249.621 84.4486 249.229 84.7038 248.769 84.877C248.313 85.0501 247.798 85.1367 247.224 85.1367C246.686 85.1367 246.191 85.0501 245.74 84.877C245.294 84.7038 244.904 84.4486 244.571 84.1113C244.243 83.7695 243.988 83.3525 243.806 82.8604C243.628 82.3682 243.539 81.8031 243.539 81.165C243.539 80.3174 243.689 79.5996 243.99 79.0117C244.291 78.4238 244.719 77.9772 245.275 77.6719C245.831 77.3665 246.494 77.2139 247.265 77.2139C247.98 77.2139 248.614 77.3665 249.165 77.6719C249.721 77.9772 250.156 78.4238 250.471 79.0117C250.79 79.5996 250.949 80.3174 250.949 81.165ZM245.665 81.165C245.665 81.6663 245.72 82.0879 245.829 82.4297C245.938 82.7715 246.109 83.029 246.342 83.2021C246.574 83.3753 246.877 83.4619 247.251 83.4619C247.62 83.4619 247.919 83.3753 248.146 83.2021C248.379 83.029 248.548 82.7715 248.652 82.4297C248.762 82.0879 248.816 81.6663 248.816 81.165C248.816 80.6592 248.762 80.2399 248.652 79.9072C248.548 79.57 248.379 79.3171 248.146 79.1484C247.914 78.9798 247.611 78.8955 247.237 78.8955C246.686 78.8955 246.285 79.0846 246.034 79.4629C245.788 79.8411 245.665 80.4085 245.665 81.165ZM261.647 77.2139C262.513 77.2139 263.167 77.4372 263.609 77.8838C264.056 78.3258 264.279 79.0368 264.279 80.0166V85H262.188V80.5361C262.188 79.9893 262.094 79.5768 261.907 79.2988C261.72 79.0208 261.431 78.8818 261.039 78.8818C260.488 78.8818 260.096 79.0801 259.863 79.4766C259.631 79.8685 259.515 80.4313 259.515 81.165V85H257.43V80.5361C257.43 80.1715 257.389 79.8662 257.307 79.6201C257.225 79.374 257.099 79.1895 256.931 79.0664C256.762 78.9434 256.546 78.8818 256.281 78.8818C255.894 78.8818 255.589 78.9798 255.365 79.1758C255.146 79.3672 254.989 79.652 254.894 80.0303C254.802 80.404 254.757 80.862 254.757 81.4043V85H252.672V77.3574H254.265L254.545 78.335H254.661C254.816 78.0706 255.01 77.8564 255.242 77.6924C255.479 77.5283 255.739 77.4076 256.021 77.3301C256.304 77.2526 256.591 77.2139 256.883 77.2139C257.443 77.2139 257.917 77.305 258.305 77.4873C258.697 77.6696 258.997 77.9521 259.207 78.335H259.392C259.619 77.943 259.941 77.6582 260.355 77.4805C260.775 77.3027 261.205 77.2139 261.647 77.2139ZM271.758 82.7305C271.758 83.25 271.635 83.6898 271.389 84.0498C271.147 84.4053 270.785 84.6764 270.302 84.8633C269.819 85.0456 269.217 85.1367 268.497 85.1367C267.964 85.1367 267.506 85.1025 267.123 85.0342C266.745 84.9658 266.362 84.8519 265.975 84.6924V82.9697C266.389 83.1566 266.834 83.3115 267.308 83.4346C267.786 83.5531 268.205 83.6123 268.565 83.6123C268.971 83.6123 269.26 83.5531 269.434 83.4346C269.611 83.3115 269.7 83.152 269.7 82.9561C269.7 82.8285 269.664 82.7145 269.591 82.6143C269.522 82.5094 269.372 82.3932 269.14 82.2656C268.907 82.1335 268.543 81.9626 268.046 81.7529C267.567 81.5524 267.173 81.3496 266.863 81.1445C266.558 80.9395 266.33 80.6979 266.18 80.4199C266.034 80.1374 265.961 79.7796 265.961 79.3467C265.961 78.6403 266.234 78.1094 266.781 77.7539C267.333 77.3939 268.069 77.2139 268.989 77.2139C269.463 77.2139 269.914 77.2617 270.343 77.3574C270.776 77.4531 271.22 77.6058 271.676 77.8154L271.047 79.3193C270.669 79.1553 270.311 79.0208 269.974 78.916C269.641 78.8112 269.301 78.7588 268.955 78.7588C268.65 78.7588 268.42 78.7998 268.265 78.8818C268.11 78.9639 268.032 79.0892 268.032 79.2578C268.032 79.3809 268.071 79.4902 268.148 79.5859C268.23 79.6816 268.385 79.7887 268.613 79.9072C268.846 80.0212 269.185 80.1693 269.632 80.3516C270.065 80.5293 270.441 80.7161 270.76 80.9121C271.079 81.1035 271.325 81.3428 271.498 81.6299C271.671 81.9124 271.758 82.2793 271.758 82.7305Z" fill="#333333"/>
<rect width="251" height="48" transform="translate(273 56)" fill="white"/>
<path fill-rule="evenodd" clip-rule="evenodd" d="M289.5 72.5C288.672 72.5 288 73.1716 288 74V78.5H283.5C282.672 78.5 282 79.1716 282 80C282 80.8284 282.672 81.5 283.5 81.5H288V86C288 86.8284 288.672 87.5 289.5 87.5C290.328 87.5 291 86.8284 291 86V81.5H295.5C296.328 81.5 297 80.8284 297 80C297 79.1716 296.328 78.5 295.5 78.5H291V74C291 73.1716 290.328 72.5 289.5 72.5Z" fill="#A3A9AE"/>
<rect width="44" height="48" transform="translate(524 56)" fill="white"/>
<path fill-rule="evenodd" clip-rule="evenodd" d="M544 75.5C544 74.6716 544.672 74 545.5 74H558.5C559.328 74 560 74.6716 560 75.5V84.5C560 85.3284 559.328 86 558.5 86H545.5C544.672 86 544 85.3284 544 84.5V75.5ZM546 77C546 76.4477 546.448 76 547 76H553V84H547C546.448 84 546 83.5523 546 83V77ZM555 84H557C557.552 84 558 83.5523 558 83V77C558 76.4477 557.552 76 557 76H555V84Z" fill="#A3A9AE"/>
<g clip-path="url(#clip2_490_92845)">
<rect x="225" y="153" width="165" height="82" rx="9" fill="white"/>
<path fill-rule="evenodd" clip-rule="evenodd" d="M239 164.25H251C252.657 164.25 254 165.593 254 167.25V179.25C254 180.907 252.657 182.25 251 182.25H239C237.343 182.25 236 180.907 236 179.25V167.25C236 165.593 237.343 164.25 239 164.25ZM235 167.25C235 165.041 236.791 163.25 239 163.25H251C253.209 163.25 255 165.041 255 167.25V179.25C255 181.459 253.209 183.25 251 183.25H239C236.791 183.25 235 181.459 235 179.25V167.25Z" fill="#9ADAF3"/>
<rect x="263" y="170.75" width="93" height="5" rx="2.5" fill="#EFEFEF"/>
<g clip-path="url(#clip3_490_92845)">
<path fill-rule="evenodd" clip-rule="evenodd" d="M370 167.25C370 166.145 370.895 165.25 372 165.25C373.105 165.25 374 166.145 374 167.25C374 168.355 373.105 169.25 372 169.25C370.895 169.25 370 168.355 370 167.25ZM370 173.25C370 172.145 370.895 171.25 372 171.25C373.105 171.25 374 172.145 374 173.25C374 174.355 373.105 175.25 372 175.25C370.895 175.25 370 174.355 370 173.25ZM372 177.25C370.895 177.25 370 178.145 370 179.25C370 180.355 370.895 181.25 372 181.25C373.105 181.25 374 180.355 374 179.25C374 178.145 373.105 177.25 372 177.25Z" fill="#A3A9AE"/>
</g>
<rect x="225" y="193.5" width="165" height="1" fill="#D0D5DA"/>
<g filter="url(#filter1_b_490_92845)">
<rect x="235" y="204.5" width="24" height="20" rx="3" fill="#F3F4F4"/>
</g>
<g filter="url(#filter2_b_490_92845)">
<rect x="263" y="204.5" width="54" height="20" rx="3" fill="#F3F4F4"/>
</g>
</g>
<rect x="225.5" y="153.5" width="164" height="81" rx="8.5" stroke="#D0D5DA"/>
<g clip-path="url(#clip4_490_92845)">
<rect x="402" y="153" width="165" height="82" rx="9" fill="white"/>
<path fill-rule="evenodd" clip-rule="evenodd" d="M416 164.25H428C429.657 164.25 431 165.593 431 167.25V179.25C431 180.907 429.657 182.25 428 182.25H416C414.343 182.25 413 180.907 413 179.25V167.25C413 165.593 414.343 164.25 416 164.25ZM412 167.25C412 165.041 413.791 163.25 416 163.25H428C430.209 163.25 432 165.041 432 167.25V179.25C432 181.459 430.209 183.25 428 183.25H416C413.791 183.25 412 181.459 412 179.25V167.25Z" fill="#27ABA3"/>
<rect x="440" y="170.75" width="68" height="5" rx="2.5" fill="#EFEFEF"/>
<rect x="516" y="167.25" width="17" height="12" rx="6" fill="#2DB382"/>
<g clip-path="url(#clip5_490_92845)">
<path fill-rule="evenodd" clip-rule="evenodd" d="M547 167.25C547 166.145 547.895 165.25 549 165.25C550.105 165.25 551 166.145 551 167.25C551 168.355 550.105 169.25 549 169.25C547.895 169.25 547 168.355 547 167.25ZM547 173.25C547 172.145 547.895 171.25 549 171.25C550.105 171.25 551 172.145 551 173.25C551 174.355 550.105 175.25 549 175.25C547.895 175.25 547 174.355 547 173.25ZM549 177.25C547.895 177.25 547 178.145 547 179.25C547 180.355 547.895 181.25 549 181.25C550.105 181.25 551 180.355 551 179.25C551 178.145 550.105 177.25 549 177.25Z" fill="#A3A9AE"/>
</g>
<rect x="402" y="193.5" width="165" height="1" fill="#D0D5DA"/>
<g filter="url(#filter3_b_490_92845)">
<rect x="412" y="204.5" width="36" height="20.5" rx="3" fill="#F3F4F4"/>
</g>
</g>
<rect x="402.5" y="153.5" width="164" height="81" rx="8.5" stroke="#D0D5DA"/>
<g clip-path="url(#clip6_490_92845)">
<rect x="225" y="247" width="165" height="82" rx="9" fill="white"/>
<path fill-rule="evenodd" clip-rule="evenodd" d="M237.66 276.235L237.469 276.696C237.94 276.892 238.458 277 239 277H242V276.5V276H239C238.591 276 238.204 275.919 237.852 275.773L237.66 276.235ZM248 276.5V277H251C251.542 277 252.06 276.892 252.531 276.696L252.34 276.235L252.148 275.773C251.796 275.919 251.409 276 251 276H248V276.5ZM254.5 264H255V261C255 260.458 254.892 259.94 254.696 259.469L254.235 259.66L253.773 259.852C253.919 260.204 254 260.591 254 261V264H254.5ZM239 257H242V257.5V258H239C238.591 258 238.204 258.081 237.852 258.227L237.66 257.765L237.469 257.304C237.94 257.108 238.458 257 239 257ZM235.5 270H235V273C235 273.542 235.108 274.06 235.304 274.531L235.765 274.34L236.227 274.148C236.081 273.796 236 273.409 236 273V270H235.5ZM235.5 264H235V261C235 260.458 235.108 259.94 235.304 259.469L235.765 259.66L236.227 259.852C236.081 260.204 236 260.591 236 261V264H235.5ZM248 257.5V257H251C251.542 257 252.06 257.108 252.531 257.304L252.34 257.765L252.148 258.227C251.796 258.081 251.409 258 251 258H248V257.5ZM254.5 270H255V273C255 273.542 254.892 274.06 254.696 274.531L254.235 274.34L253.773 274.148C253.919 273.796 254 273.409 254 273V270H254.5Z" fill="#F2557C"/>
<path fill-rule="evenodd" clip-rule="evenodd" d="M251 258H239C237.343 258 236 259.343 236 261V273C236 274.657 237.343 276 239 276H251C252.657 276 254 274.657 254 273V261C254 259.343 252.657 258 251 258ZM239 257C236.791 257 235 258.791 235 261V273C235 275.209 236.791 277 239 277H251C253.209 277 255 275.209 255 273V261C255 258.791 253.209 257 251 257H239Z" fill="#F2557C"/>
<rect x="263" y="264" width="68" height="6" rx="3" fill="#EFEFEF"/>
<rect x="339" y="261" width="17" height="12" rx="6" fill="#2DB382"/>
<path fill-rule="evenodd" clip-rule="evenodd" d="M370 261C370 259.895 370.895 259 372 259C373.105 259 374 259.895 374 261C374 262.105 373.105 263 372 263C370.895 263 370 262.105 370 261ZM370 267C370 265.895 370.895 265 372 265C373.105 265 374 265.895 374 267C374 268.105 373.105 269 372 269C370.895 269 370 268.105 370 267ZM372 271C370.895 271 370 271.895 370 273C370 274.105 370.895 275 372 275C373.105 275 374 274.105 374 273C374 271.895 373.105 271 372 271Z" fill="#A3A9AE"/>
<rect x="225" y="287" width="165" height="1" fill="#D0D5DA"/>
<g filter="url(#filter4_b_490_92845)">
<rect x="235" y="298" width="54" height="20" rx="3" fill="#F3F4F4"/>
</g>
<g filter="url(#filter5_b_490_92845)">
<rect x="293" y="298" width="54" height="20" rx="3" fill="#F3F4F4"/>
</g>
</g>
<rect x="225.5" y="247.5" width="164" height="81" rx="8.5" stroke="#D0D5DA"/>
<g clip-path="url(#clip7_490_92845)">
<rect x="402" y="247" width="165" height="82" rx="9" fill="white"/>
<path fill-rule="evenodd" clip-rule="evenodd" d="M414.469 276.946L414.852 276.023C415.204 276.169 415.591 276.25 416 276.25H417.5V277.25H416C415.458 277.25 414.94 277.142 414.469 276.946ZM426.5 277.25V276.25H428C428.409 276.25 428.796 276.169 429.148 276.023L429.531 276.946C429.06 277.142 428.542 277.25 428 277.25H426.5ZM432 262.75H431V261.25C431 260.841 430.919 260.454 430.773 260.102L431.696 259.719C431.892 260.19 432 260.708 432 261.25V262.75ZM417.5 257.25H416C415.458 257.25 414.94 257.358 414.469 257.554L414.852 258.477C415.204 258.331 415.591 258.25 416 258.25H417.5V257.25ZM412 271.75H413V273.25C413 273.659 413.081 274.046 413.227 274.398L412.304 274.781C412.108 274.31 412 273.792 412 273.25V271.75ZM412 268.75H413V265.75H412V268.75ZM412 262.75H413V261.25C413 260.841 413.081 260.454 413.227 260.102L412.304 259.719C412.108 260.19 412 260.708 412 261.25V262.75ZM420.5 257.25V258.25H423.5V257.25H420.5ZM426.5 257.25V258.25H428C428.409 258.25 428.796 258.331 429.148 258.477L429.531 257.554C429.06 257.358 428.542 257.25 428 257.25H426.5ZM432 265.75H431V268.75H432V265.75ZM432 271.75H431V273.25C431 273.659 430.919 274.046 430.773 274.398L431.696 274.781C431.892 274.31 432 273.792 432 273.25V271.75ZM423.5 277.25V276.25H420.5V277.25H423.5Z" fill="#FBC90A"/>
<rect x="440" y="264.75" width="68" height="5" rx="2.5" fill="#EFEFEF"/>
<rect x="516" y="261.25" width="17" height="12" rx="6" fill="#2DB382"/>
<g clip-path="url(#clip8_490_92845)">
<path fill-rule="evenodd" clip-rule="evenodd" d="M547 261.25C547 260.145 547.895 259.25 549 259.25C550.105 259.25 551 260.145 551 261.25C551 262.355 550.105 263.25 549 263.25C547.895 263.25 547 262.355 547 261.25ZM547 267.25C547 266.145 547.895 265.25 549 265.25C550.105 265.25 551 266.145 551 267.25C551 268.355 550.105 269.25 549 269.25C547.895 269.25 547 268.355 547 267.25ZM549 271.25C547.895 271.25 547 272.145 547 273.25C547 274.355 547.895 275.25 549 275.25C550.105 275.25 551 274.355 551 273.25C551 272.145 550.105 271.25 549 271.25Z" fill="#A3A9AE"/>
</g>
<rect x="402" y="287.5" width="165" height="1" fill="#D0D5DA"/>
<g filter="url(#filter6_b_490_92845)">
<rect x="412" y="298.5" width="54" height="20" rx="3" fill="#F3F4F4"/>
</g>
</g>
<rect x="402.5" y="247.5" width="164" height="81" rx="8.5" stroke="#D0D5DA"/>
<g clip-path="url(#clip9_490_92845)">
<rect x="225" y="341" width="165" height="82" rx="9" fill="white"/>
<path fill-rule="evenodd" clip-rule="evenodd" d="M239 352.25H251C252.657 352.25 254 353.593 254 355.25V367.25C254 368.907 252.657 370.25 251 370.25H239C237.343 370.25 236 368.907 236 367.25V355.25C236 353.593 237.343 352.25 239 352.25ZM235 355.25C235 353.041 236.791 351.25 239 351.25H251C253.209 351.25 255 353.041 255 355.25V367.25C255 369.459 253.209 371.25 251 371.25H239C236.791 371.25 235 369.459 235 367.25V355.25Z" fill="#8BB825"/>
<rect x="263" y="358.75" width="73" height="5" rx="2.5" fill="#EFEFEF"/>
<rect x="344" y="355.25" width="12" height="12" rx="6" fill="#2DB382"/>
<g clip-path="url(#clip10_490_92845)">
<path fill-rule="evenodd" clip-rule="evenodd" d="M370 355.25C370 354.145 370.895 353.25 372 353.25C373.105 353.25 374 354.145 374 355.25C374 356.355 373.105 357.25 372 357.25C370.895 357.25 370 356.355 370 355.25ZM370 361.25C370 360.145 370.895 359.25 372 359.25C373.105 359.25 374 360.145 374 361.25C374 362.355 373.105 363.25 372 363.25C370.895 363.25 370 362.355 370 361.25ZM372 365.25C370.895 365.25 370 366.145 370 367.25C370 368.355 370.895 369.25 372 369.25C373.105 369.25 374 368.355 374 367.25C374 366.145 373.105 365.25 372 365.25Z" fill="#A3A9AE"/>
</g>
<rect x="225" y="381.5" width="165" height="1" fill="#D0D5DA"/>
<g filter="url(#filter7_b_490_92845)">
<rect x="235" y="392.5" width="54" height="20" rx="3" fill="#F3F4F4"/>
</g>
<g filter="url(#filter8_b_490_92845)">
<rect x="293" y="392.5" width="24" height="20" rx="3" fill="#F3F4F4"/>
</g>
</g>
<rect x="225.5" y="341.5" width="164" height="81" rx="8.5" stroke="#D0D5DA"/>
<g clip-path="url(#clip11_490_92845)">
<rect x="402" y="341" width="165" height="82" rx="9" fill="white"/>
<rect width="165" height="40.5" transform="translate(402 341)" fill="#F9F9F9"/>
<path fill-rule="evenodd" clip-rule="evenodd" d="M416 352.25H428C429.657 352.25 431 353.593 431 355.25V367.25C431 368.907 429.657 370.25 428 370.25H416C414.343 370.25 413 368.907 413 367.25V355.25C413 353.593 414.343 352.25 416 352.25ZM412 355.25C412 353.041 413.791 351.25 416 351.25H428C430.209 351.25 432 353.041 432 355.25V367.25C432 369.459 430.209 371.25 428 371.25H416C413.791 371.25 412 369.459 412 367.25V355.25Z" fill="#F2557C"/>
<rect x="440" y="358.75" width="93" height="5" rx="2.5" fill="#EFEFEF"/>
<g clip-path="url(#clip12_490_92845)">
<path fill-rule="evenodd" clip-rule="evenodd" d="M547 355.25C547 354.145 547.895 353.25 549 353.25C550.105 353.25 551 354.145 551 355.25C551 356.355 550.105 357.25 549 357.25C547.895 357.25 547 356.355 547 355.25ZM547 361.25C547 360.145 547.895 359.25 549 359.25C550.105 359.25 551 360.145 551 361.25C551 362.355 550.105 363.25 549 363.25C547.895 363.25 547 362.355 547 361.25ZM549 365.25C547.895 365.25 547 366.145 547 367.25C547 368.355 547.895 369.25 549 369.25C550.105 369.25 551 368.355 551 367.25C551 366.145 550.105 365.25 549 365.25Z" fill="#A3A9AE"/>
</g>
<rect x="402" y="381.5" width="165" height="1" fill="#D0D5DA"/>
<g filter="url(#filter9_b_490_92845)">
<rect x="412" y="392.5" width="54" height="20" rx="3" fill="#F3F4F4"/>
</g>
</g>
<rect x="402.5" y="341.5" width="164" height="81" rx="8.5" stroke="#D0D5DA"/>
<rect width="383" height="32" transform="translate(205 104)" fill="white"/>
<g clip-path="url(#clip13_490_92845)">
<rect x="225" y="104" width="223" height="32" rx="3" fill="white"/>
</g>
<rect x="225.5" y="104.5" width="222" height="31" rx="2.5" stroke="#D0D5DA"/>
<rect x="456.5" y="104.5" width="31" height="31" rx="2.5" fill="white"/>
<rect x="456.5" y="104.5" width="31" height="31" rx="2.5" stroke="#D0D5DA"/>
<g clip-path="url(#clip14_490_92845)">
<path fill-rule="evenodd" clip-rule="evenodd" d="M464.094 114.576C464.259 114.224 464.612 114 465 114H479C479.388 114 479.741 114.224 479.906 114.576C480.07 114.927 480.017 115.342 479.768 115.64L475 121.362V125C475 125.379 474.786 125.725 474.447 125.894L470.447 127.894C470.137 128.049 469.769 128.033 469.474 127.851C469.179 127.668 469 127.347 469 127V121.362L464.232 115.64C463.983 115.342 463.93 114.927 464.094 114.576ZM467.135 116L470.768 120.36C470.918 120.54 471 120.766 471 121V125.382L473 124.382V121C473 120.766 473.082 120.54 473.232 120.36L476.865 116H467.135Z" fill="#A3A9AE"/>
</g>
<rect x="496.5" y="104.5" width="31" height="31" rx="2.5" fill="white"/>
<rect x="496.5" y="104.5" width="31" height="31" rx="2.5" stroke="#D0D5DA"/>
<g clip-path="url(#clip15_490_92845)">
<path fill-rule="evenodd" clip-rule="evenodd" d="M512 114.414L507.707 118.707L506.293 117.293L511.293 112.293C511.683 111.902 512.317 111.902 512.707 112.293L517.707 117.293L516.293 118.707L512 114.414ZM512 125.586L507.707 121.293L506.293 122.707L511.293 127.707C511.683 128.098 512.317 128.098 512.707 127.707L517.707 122.707L516.293 121.293L512 125.586ZM512 122.757L513 121.757L513 118.243L512 117.243L511 118.243V121.757L512 122.757Z" fill="#A3A9AE"/>
</g>
<rect x="536.5" y="104.5" width="31" height="31" rx="2.5" fill="white"/>
<rect x="536.5" y="104.5" width="31" height="31" rx="2.5" stroke="#D0D5DA"/>
<path fill-rule="evenodd" clip-rule="evenodd" d="M546 113C545.448 113 545 113.448 545 114V118C545 118.552 545.448 119 546 119H550C550.552 119 551 118.552 551 118V114C551 113.448 550.552 113 550 113H546ZM547.5 117C547.224 117 547 116.776 547 116.5V115.5C547 115.224 547.224 115 547.5 115H548.5C548.776 115 549 115.224 549 115.5V116.5C549 116.776 548.776 117 548.5 117H547.5ZM546 121C545.448 121 545 121.448 545 122V126C545 126.552 545.448 127 546 127H550C550.552 127 551 126.552 551 126V122C551 121.448 550.552 121 550 121H546ZM547.5 125C547.224 125 547 124.776 547 124.5V123.5C547 123.224 547.224 123 547.5 123H548.5C548.776 123 549 123.224 549 123.5V124.5C549 124.776 548.776 125 548.5 125H547.5ZM553 114C553 113.448 553.448 113 554 113H558C558.552 113 559 113.448 559 114V118C559 118.552 558.552 119 558 119H554C553.448 119 553 118.552 553 118V114ZM555.5 115C555.224 115 555 115.224 555 115.5V116.5C555 116.776 555.224 117 555.5 117H556.5C556.776 117 557 116.776 557 116.5V115.5C557 115.224 556.776 115 556.5 115H555.5ZM554 121C553.448 121 553 121.448 553 122V126C553 126.552 553.448 127 554 127H558C558.552 127 559 126.552 559 126V122C559 121.448 558.552 121 558 121H554ZM555.5 125C555.224 125 555 124.776 555 124.5V123.5C555 123.224 555.224 123 555.5 123H556.5C556.776 123 557 123.224 557 123.5V124.5C557 124.776 556.776 125 556.5 125H555.5Z" fill="#A3A9AE"/>
<rect width="155" height="388" transform="translate(50 56)" fill="#F8F9F9"/>
<rect width="154" height="388" transform="translate(50 56)" fill="#F8F9F9"/>
<rect width="154" height="59" transform="translate(50 56)" fill="#F8F9F9"/>
<g filter="url(#filter10_d_490_92845)">
<rect x="67.5" y="72.5" width="119" height="26" rx="4.5" stroke="#AAAAAA" stroke-dasharray="7 7"/>
<path fill-rule="evenodd" clip-rule="evenodd" d="M80.0981 92.8161L73.4263 89.728C72.8579 89.4584 72.8579 89.0417 73.4263 88.7967L75.749 87.7183L80.0734 89.728C80.6417 89.9976 81.556 89.9976 82.0996 89.728L86.4239 87.7183L88.7467 88.7967C89.3151 89.0663 89.3151 89.4829 88.7467 89.728L82.0749 92.8161C81.556 93.0612 80.6417 93.0612 80.0981 92.8161Z" fill="#FF6F3D"/>
<path fill-rule="evenodd" clip-rule="evenodd" d="M80.0764 88.9948L73.425 85.9031C72.8583 85.6331 72.8583 85.216 73.425 84.9706L75.6914 83.9155L80.0764 85.9521C80.6431 86.222 81.5546 86.222 82.0965 85.9521L86.4816 83.9155L88.748 84.9706C89.3146 85.2405 89.3146 85.6577 88.748 85.9031L82.0965 88.9948C81.5299 89.2647 80.6184 89.2647 80.0764 88.9948Z" fill="#95C038"/>
<path fill-rule="evenodd" clip-rule="evenodd" d="M80.0764 85.213L73.425 82.1658C72.8583 81.8997 72.8583 81.4886 73.425 81.2467L80.0764 78.1995C80.6431 77.9335 81.5546 77.9335 82.0965 78.1995L88.748 81.2467C89.3146 81.5128 89.3146 81.9239 88.748 82.1658L82.0965 85.213C81.5299 85.4548 80.6184 85.4548 80.0764 85.213Z" fill="#5DC0E8"/>
<path fill-rule="evenodd" clip-rule="evenodd" d="M94.1729 85.5C94.1729 81.9525 96.5799 80.5 99.0294 80.5C101.479 80.5 103.886 81.9525 103.886 85.5C103.886 89.0475 101.479 90.5 99.0294 90.5C96.5799 90.5 94.1729 89.0475 94.1729 85.5ZM101.762 85.5C101.762 82.1899 99.7798 81.8966 99.0294 81.8966C98.279 81.8966 96.2967 82.1899 96.2967 85.5C96.2967 88.8101 98.279 89.1034 99.0294 89.1034C99.7798 89.1034 101.762 88.8101 101.762 85.5ZM107.53 90.3883H105.519V80.6117H108.125L111.551 86.771L112.075 88.0978H112.118L112.075 86.3659V80.6117H114.086V90.3883H111.48L108.026 83.9916L107.53 82.9022H107.488L107.53 84.6341V90.3883ZM116.07 90.3883H122.016V88.7402H118.08V80.6117H116.07V90.3883ZM123.97 86.3939L120.317 80.6117H122.639L124.678 84.0475L124.99 84.7179H125.032L125.372 84.0475L127.425 80.6117H129.549L125.981 86.4218V90.3883H123.97V86.3939ZM134.233 80.5C131.784 80.5 129.377 81.9525 129.377 85.5C129.377 89.0475 131.784 90.5 134.233 90.5C136.683 90.5 139.09 89.0475 139.09 85.5C139.09 81.9525 136.683 80.5 134.233 80.5ZM134.233 81.8966C134.984 81.8966 136.966 82.1899 136.966 85.5C136.966 88.8101 134.984 89.1034 134.233 89.1034C133.483 89.1034 131.501 88.8101 131.501 85.5C131.501 82.1899 133.483 81.8966 134.233 81.8966ZM142.734 90.3883H140.723V80.6117H146.274V82.2598H142.734V84.6341H146.104V86.2402H142.734V90.3883ZM147.692 90.3883H149.703V86.2402H153.073V84.6341H149.703V82.2598H153.243V80.6117H147.692V90.3883ZM156.672 90.3883H154.661V80.6117H156.672V90.3883ZM165.893 88.419C165.397 88.6425 164.703 88.852 163.825 88.852C162.041 88.852 160.427 87.8883 160.427 85.5279C160.427 83.5307 161.744 82.148 163.967 82.148C164.717 82.148 165.355 82.2877 165.935 82.5112L166.02 80.8352C165.27 80.5978 164.604 80.5 163.825 80.5C160.71 80.5 158.303 82.1899 158.303 85.5559C158.303 89.1173 160.994 90.5 163.457 90.5C164.25 90.5 165.142 90.3743 166.02 90.081L165.893 88.419ZM173.494 90.3883H167.576V80.6117H173.494V82.3436H169.586V84.5503H173.14V86.1564H169.586V88.6564H173.494V90.3883Z" fill="#333333"/>
</g>
<rect width="154" height="37" transform="translate(50 115)" fill="#F8F9F9"/>
<rect x="66" y="115" width="122" height="25" rx="3" fill="#2DB382"/>
<rect width="154" height="32" transform="translate(50 152)" fill="#F8F9F9"/>
<path fill-rule="evenodd" clip-rule="evenodd" d="M81 160C79.8954 160 79 160.895 79 162V174C79 175.105 79.8954 176 81 176H91C92.1046 176 93 175.105 93 174V164.111C93 163.852 92.8996 163.603 92.7198 163.417L89.7198 160.306C89.5314 160.11 89.2715 160 89 160H81ZM81 162L88.5751 162L91 164.515V174H81V162ZM82 166H88V164H82V166ZM82 169H90V167H82V169ZM82 172H90V170H82V172Z" fill="#657077"/>
<rect x="102" y="165.5" width="74" height="5" rx="2.5" fill="#DFE2E3"/>
<rect width="154" height="32" transform="translate(50 184)" fill="#F8F9F9"/>
<rect x="66" y="188" width="122" height="24" rx="3" fill="#DFE2E3"/>
<path fill-rule="evenodd" clip-rule="evenodd" d="M78 196C78 194.343 79.3431 193 81 193H90C91.6569 193 93 194.343 93 196V205C93 206.657 91.6569 208 90 208H81C79.3431 208 78 206.657 78 205V196ZM81 195C80.4477 195 80 195.448 80 196V205C80 205.552 80.4477 206 81 206H90C90.5523 206 91 205.552 91 205V196C91 195.448 90.5523 195 90 195H81ZM82 198C82 197.448 82.4477 197 83 197H84C84.5523 197 85 197.448 85 198V199C85 199.552 84.5523 200 84 200H83C82.4477 200 82 199.552 82 199V198ZM83 201C82.4477 201 82 201.448 82 202V203C82 203.552 82.4477 204 83 204H84C84.5523 204 85 203.552 85 203V202C85 201.448 84.5523 201 84 201H83ZM86 198C86 197.448 86.4477 197 87 197H88C88.5523 197 89 197.448 89 198V199C89 199.552 88.5523 200 88 200H87C86.4477 200 86 199.552 86 199V198ZM87 201C86.4477 201 86 201.448 86 202V203C86 203.552 86.4477 204 87 204H88C88.5523 204 89 203.552 89 203V202C89 201.448 88.5523 201 88 201H87Z" fill="#657077"/>
<rect x="102" y="197.5" width="64" height="5" rx="2.5" fill="white"/>
<rect width="154" height="32" transform="translate(50 216)" fill="#F8F9F9"/>
<path fill-rule="evenodd" clip-rule="evenodd" d="M79 229C78.4477 229 78 228.552 78 228V226C78 225.448 78.4477 225 79 225H93C93.5523 225 94 225.448 94 226V228C94 228.552 93.5523 229 93 229V238C93 238.552 92.5523 239 92 239H80C79.4477 239 79 238.552 79 238V229ZM81 230V237H91V230H81ZM83 233C83 232.448 83.4477 232 84 232H88C88.5523 232 89 232.448 89 233C89 233.552 88.5523 234 88 234H84C83.4477 234 83 233.552 83 233ZM81.5 227C81.2239 227 81 227.224 81 227.5C81 227.776 81.2239 228 81.5 228H90.5C90.7761 228 91 227.776 91 227.5C91 227.224 90.7761 227 90.5 227H81.5Z" fill="#657077"/>
<rect x="102" y="229.5" width="50" height="5" rx="2.5" fill="#DFE2E3"/>
<rect width="154" height="8" transform="translate(50 248)" fill="#F8F9F9"/>
<rect x="50" y="256" width="154" height="32" rx="3" fill="#F8F9F9"/>
<path fill-rule="evenodd" clip-rule="evenodd" d="M86.0005 267C85.4482 267 85.0005 267.448 85.0005 268V268.5C85.0005 269.14 85.1942 269.69 85.4475 270.056C85.719 270.448 85.9516 270.5 86 270.5C86.0486 270.5 86.2815 270.448 86.5532 270.055C86.8067 269.689 87.0004 269.14 87.0005 268.5V268.5V268.5L87.0004 268C87.0003 267.448 86.5526 267 86.0005 267ZM83.0005 268C83.0005 266.343 84.3437 265 86.0005 265C87.6571 265 89 266.343 89.0004 267.999L89.0005 268.5V268.5C89.0005 269.527 88.694 270.477 88.1973 271.194C87.7188 271.885 86.9514 272.5 86 272.5C85.0484 272.5 84.2812 271.885 83.803 271.194C83.3066 270.477 83.0005 269.526 83.0005 268.5V268ZM83.9102 275.075C83.8518 275.137 83.7708 275.244 83.6784 275.425C83.5266 275.723 83.3943 276.119 83.2877 276.575C83.0744 277.487 83 278.476 83 279H81C81 278.349 81.0867 277.204 81.3403 276.119C81.4671 275.577 81.6447 275.01 81.8973 274.516C82.1412 274.038 82.514 273.512 83.0921 273.218C83.8407 272.837 84.5765 273.17 84.8695 273.316L85.5528 273.658C85.8343 273.799 86.1657 273.799 86.4472 273.658L87.1305 273.316C87.4235 273.17 88.1593 272.837 88.9079 273.218C89.486 273.512 89.8588 274.038 90.1027 274.516C90.3553 275.01 90.5329 275.577 90.6597 276.119C90.9133 277.204 91 278.349 91 279H89C89 278.476 88.9256 277.487 88.7123 276.575C88.6057 276.119 88.4734 275.723 88.3216 275.425C88.2292 275.244 88.1482 275.137 88.0898 275.075C88.0703 275.083 88.0488 275.093 88.0249 275.105L87.3416 275.447C86.4971 275.869 85.5029 275.869 84.6584 275.447L83.9751 275.105C83.9512 275.093 83.9297 275.083 83.9102 275.075ZM82.0005 268C82.0005 267.656 82.0439 267.322 82.1256 267.004C82.084 267.001 82.0421 267 81.9999 267C80.8954 267 80 267.895 79.9999 268.999L79.9998 269.599V269.6C79.9998 270.561 80.3504 271.257 80.7317 271.715C80.9175 271.938 81.1052 272.098 81.2524 272.206C81.3264 272.26 81.3913 272.302 81.4426 272.333C81.4682 272.348 81.4906 272.361 81.5091 272.371L81.534 272.384L81.5442 272.39L81.5487 272.392L81.5508 272.393L81.5518 272.394C81.5523 272.394 81.5528 272.394 82 271.5L81.5528 272.394C81.8344 272.535 82.1658 272.535 82.4473 272.394L82 271.5C82.4473 272.394 82.4478 272.394 82.4483 272.394L82.4493 272.393L82.4514 272.392L82.4559 272.39L82.4661 272.384L82.491 272.371C82.5095 272.361 82.5319 272.348 82.5575 272.333C82.6088 272.302 82.6737 272.26 82.7477 272.206C82.8471 272.133 82.9651 272.036 83.0884 271.912C83.051 271.862 83.0151 271.813 82.9808 271.763C82.3628 270.87 82.0005 269.719 82.0005 268.5V268ZM89.0194 271.764C88.9851 271.813 88.9492 271.863 88.9118 271.913C89.0351 272.036 89.153 272.133 89.2524 272.206C89.3264 272.26 89.3913 272.302 89.4426 272.333C89.4682 272.348 89.4906 272.361 89.5091 272.371L89.534 272.384L89.5442 272.39L89.5487 272.392L89.5508 272.393L89.5518 272.394C89.5523 272.394 89.5528 272.394 90 271.5L89.5528 272.394C89.8344 272.535 90.1658 272.535 90.4473 272.394L90 271.5C90.4473 272.394 90.4478 272.394 90.4483 272.394L90.4493 272.393L90.4514 272.392L90.4559 272.39L90.4661 272.384L90.491 272.371C90.5095 272.361 90.5319 272.348 90.5575 272.333C90.6088 272.302 90.6737 272.26 90.7477 272.206C90.8949 272.098 91.0825 271.938 91.2683 271.715C91.6495 271.257 92 270.561 92 269.6V269C92 267.895 91.1045 267 89.9999 267C89.9581 267 89.9165 267.001 89.8753 267.003C89.9569 267.322 90.0003 267.655 90.0004 267.999L90.0005 268.5V268.5C90.0005 269.72 89.6377 270.871 89.0194 271.764ZM91.6286 275.946C91.7137 276.299 91.7815 276.655 91.8347 277H93.5C93.5 276.484 93.433 275.735 93.2243 275.039C93.0365 274.413 92.6307 273.482 91.7089 273.129C91.1679 272.922 90.6681 273.072 90.3727 273.2C90.638 273.516 90.8388 273.849 90.9913 274.149C91.2886 274.735 91.4894 275.369 91.6286 275.946ZM81.0087 274.149C81.1612 273.849 81.362 273.516 81.6273 273.2C81.3319 273.072 80.8321 272.922 80.2911 273.129C79.3693 273.482 78.9635 274.413 78.7757 275.039C78.567 275.735 78.5 276.484 78.5 277H80.1653C80.2185 276.655 80.2863 276.299 80.3714 275.946C80.5106 275.369 80.7114 274.735 81.0087 274.149ZM81.9999 269L82 269V269.6L81.9999 269.62L81.9998 269.6V269.6V269.6L81.9999 269L81.9999 269ZM89.9999 269L90 269V269.6L89.9999 269.62L89.9998 269.6V269.6V269.6L89.9999 269L89.9999 269Z" fill="#657077"/>
<rect x="102" y="269.5" width="54" height="5" rx="2.5" fill="#DFE2E3"/>
<rect x="50" y="288" width="154" height="32" rx="3" fill="#F8F9F9"/>
<g clip-path="url(#clip16_490_92845)">
<path fill-rule="evenodd" clip-rule="evenodd" d="M81.8437 297.946C81.4934 297.711 81.0295 297.717 80.7132 297.996C80.4592 298.22 80.2195 298.459 79.9957 298.713C79.717 299.029 79.7112 299.493 79.9457 299.844L80.6387 300.879C80.6853 300.948 80.7218 301.021 80.7489 301.095C80.5322 301.486 80.358 301.903 80.2322 302.341C80.1609 302.374 80.0839 302.4 80.0019 302.416L78.7798 302.658C78.3661 302.74 78.0421 303.072 78.0158 303.493C78.0053 303.661 78 303.83 78 304C78 304.17 78.0053 304.339 78.0158 304.507C78.0421 304.928 78.3661 305.26 78.7798 305.342L80.0019 305.584C80.0839 305.6 80.1609 305.626 80.2322 305.659C80.358 306.097 80.5322 306.514 80.7489 306.905C80.7218 306.979 80.6853 307.052 80.6387 307.121L79.9457 308.156C79.7112 308.507 79.717 308.971 79.9957 309.287C80.2195 309.541 80.4592 309.78 80.7132 310.004C81.0295 310.283 81.4934 310.289 81.8437 310.054L82.8787 309.361C82.9484 309.315 83.0209 309.278 83.095 309.251C83.4858 309.468 83.9033 309.642 84.3413 309.768C84.3744 309.839 84.3998 309.916 84.416 309.998L84.658 311.22C84.7399 311.634 85.0723 311.958 85.4932 311.984C85.6608 311.995 85.8298 312 86 312C86.1702 312 86.3392 311.995 86.5068 311.984C86.9277 311.958 87.2601 311.634 87.342 311.22L87.584 309.998C87.6002 309.916 87.6256 309.839 87.6587 309.768C88.0967 309.642 88.5142 309.468 88.905 309.251C88.9791 309.278 89.0516 309.315 89.1213 309.361L90.1563 310.054C90.5066 310.289 90.9705 310.283 91.2868 310.004C91.5408 309.78 91.7805 309.541 92.0043 309.287C92.283 308.971 92.2888 308.507 92.0543 308.156L91.3613 307.121C91.3147 307.052 91.2782 306.979 91.2511 306.905C91.4678 306.514 91.642 306.097 91.7678 305.659C91.8391 305.626 91.9161 305.6 91.9981 305.584L93.2202 305.342C93.6339 305.26 93.9579 304.928 93.9842 304.507C93.9947 304.339 94 304.17 94 304C94 303.83 93.9947 303.661 93.9842 303.493C93.9579 303.072 93.6339 302.74 93.2202 302.658L91.9981 302.416C91.9161 302.4 91.8391 302.374 91.7678 302.341C91.642 301.903 91.4678 301.486 91.2511 301.095C91.2782 301.021 91.3147 300.948 91.3613 300.879L92.0543 299.844C92.2888 299.493 92.283 299.029 92.0043 298.713C91.7805 298.459 91.5408 298.22 91.2868 297.996C90.9705 297.717 90.5066 297.711 90.1563 297.946L89.1213 298.639C89.0516 298.685 88.9791 298.722 88.905 298.749C88.5142 298.532 88.0967 298.358 87.6587 298.232C87.6256 298.161 87.6002 298.084 87.584 298.002L87.342 296.78C87.2601 296.366 86.9277 296.042 86.5068 296.016C86.3392 296.005 86.1702 296 86 296C85.8298 296 85.6608 296.005 85.4932 296.016C85.0723 296.042 84.7399 296.366 84.658 296.78L84.416 298.002C84.3998 298.084 84.3744 298.161 84.3413 298.232C83.9033 298.358 83.4858 298.532 83.095 298.749C83.0209 298.722 82.9484 298.685 82.8787 298.639L81.8437 297.946ZM90.5 304C90.5 306.485 88.4853 308.5 86 308.5C83.5147 308.5 81.5 306.485 81.5 304C81.5 301.515 83.5147 299.5 86 299.5C88.4853 299.5 90.5 301.515 90.5 304ZM86 306C87.1046 306 88 305.105 88 304C88 302.895 87.1046 302 86 302C84.8954 302 84 302.895 84 304C84 305.105 84.8954 306 86 306Z" fill="#657077"/>
</g>
<rect x="102" y="301.5" width="74" height="5" rx="2.5" fill="#DFE2E3"/>
<rect x="50" y="320" width="154" height="32" rx="3" fill="#F8F9F9"/>
<g clip-path="url(#clip17_490_92845)">
<path fill-rule="evenodd" clip-rule="evenodd" d="M85.4999 328H86.4999C87.3284 328 87.9999 328.672 87.9999 329.5V330H88.001H91.001C92.1058 330 93.001 330.896 93.001 332H91.001V332H88.001H86.4999H85.4999H84.001H81.001V332H79.001C79.001 330.896 79.8961 330 81.001 330H83.9999V329.5C83.9999 328.672 84.6715 328 85.4999 328ZM81.001 333V341C81.001 342.657 82.3441 344 84.001 344H88.001C89.6578 344 91.001 342.657 91.001 341V333H89.001V341C89.001 341.553 88.5533 342 88.001 342H84.001C83.4487 342 83.001 341.553 83.001 341V333H81.001ZM85.001 334V342H87.001V334H85.001Z" fill="#657077"/>
</g>
<rect x="102" y="333.5" width="54" height="5" rx="2.5" fill="#DFE2E3"/>
<rect width="154" height="56" transform="translate(50 388)" fill="#F3F4F4"/>
<rect x="50" y="388" width="154" height="1" fill="#ECEEF1"/>
<rect x="66" y="400.5" width="32" height="32" rx="16" fill="#DFE2E3"/>
<rect x="110" y="414" width="50" height="5" rx="2.5" fill="#DFE2E3"/>
<g clip-path="url(#clip18_490_92845)">
<path fill-rule="evenodd" clip-rule="evenodd" d="M178 410.5C178 409.395 178.895 408.5 180 408.5C181.105 408.5 182 409.395 182 410.5C182 411.605 181.105 412.5 180 412.5C178.895 412.5 178 411.605 178 410.5ZM178 416.5C178 415.395 178.895 414.5 180 414.5C181.105 414.5 182 415.395 182 416.5C182 417.605 181.105 418.5 180 418.5C178.895 418.5 178 417.605 178 416.5ZM180 420.5C178.895 420.5 178 421.395 178 422.5C178 423.605 178.895 424.5 180 424.5C181.105 424.5 182 423.605 182 422.5C182 421.395 181.105 420.5 180 420.5Z" fill="#657077"/>
</g>
<rect x="204" y="56" width="1" height="388" fill="#ECEEF1"/>
</g>
<rect x="50.5" y="56.5" width="539" height="387" rx="4.5" stroke="#E2E2E2"/>
</g>
<g style="mix-blend-mode:multiply">
<path d="M431.97 260.092C446.181 271.284 466.397 278.014 499 280.5L435.5 349C430.831 306.468 422.542 287.404 415.909 277.3L427.97 277.3C430.179 277.3 431.97 275.509 431.97 273.3L431.97 260.092Z" fill="#E2E2E2"/>
</g>
<g style="mix-blend-mode:multiply">
<path d="M187 75C196 87 228.397 97.0136 261 99.5L197.5 168C192.831 125.468 179.5 107 166 99L182 99C184.761 99 187 96.7614 187 94L187 75Z" fill="#E2E2E2"/>
</g>
<g filter="url(#filter11_d_490_92845)">
<rect x="434" y="280" width="113" height="113" rx="4" fill="white"/>
<rect x="434.5" y="280.5" width="112" height="112" rx="3.5" stroke="#FBC90A" stroke-dasharray="6 6"/>
<path d="M455.185 371.209C454.096 371.209 453.551 370.116 454.096 369.206L479.697 333.163C480.241 332.435 481.331 332.435 481.694 333.163L497.309 355.736C497.854 356.464 498.761 356.464 499.306 355.918L509.292 344.996C509.837 344.449 510.927 344.449 511.29 345.178L526.905 369.57C527.449 370.481 526.905 371.573 525.815 371.573H455.185V371.209Z" fill="#2DB382"/>
<path d="M524.253 307.75C524.253 311.183 521.362 313.893 517.93 313.893C514.497 313.893 511.787 311.002 511.787 307.57C511.787 304.137 514.678 301.427 518.11 301.427C521.543 301.427 524.253 304.318 524.253 307.75Z" fill="#2DB382"/>
</g>
<g filter="url(#filter12_d_490_92845)">
<rect x="197" y="98" width="151.111" height="80" rx="4" fill="white"/>
<rect x="197.5" y="98.5" width="150.111" height="79" rx="3.5" stroke="#2DB382" stroke-dasharray="6 6"/>
<path d="M227.273 128.121L229.358 124.006H231.641L228.326 130.11V134H226.221V130.179L222.905 124.006H225.202L227.273 128.121ZM244.471 128.989C244.471 130.644 244.06 131.915 243.24 132.804C242.42 133.692 241.244 134.137 239.713 134.137C238.181 134.137 237.006 133.692 236.185 132.804C235.365 131.915 234.955 130.639 234.955 128.976C234.955 127.312 235.365 126.043 236.185 125.168C237.01 124.288 238.191 123.849 239.726 123.849C241.262 123.849 242.436 124.291 243.247 125.175C244.063 126.059 244.471 127.33 244.471 128.989ZM237.177 128.989C237.177 130.106 237.389 130.947 237.812 131.512C238.236 132.077 238.87 132.359 239.713 132.359C241.403 132.359 242.249 131.236 242.249 128.989C242.249 126.738 241.408 125.612 239.726 125.612C238.883 125.612 238.248 125.897 237.819 126.467C237.391 127.032 237.177 127.873 237.177 128.989ZM257.177 124.006V130.473C257.177 131.211 257.01 131.858 256.678 132.414C256.349 132.97 255.873 133.396 255.249 133.692C254.625 133.989 253.886 134.137 253.034 134.137C251.749 134.137 250.751 133.809 250.04 133.152C249.329 132.492 248.973 131.589 248.973 130.445V124.006H251.086V130.124C251.086 130.894 251.241 131.459 251.551 131.819C251.861 132.179 252.373 132.359 253.089 132.359C253.781 132.359 254.283 132.179 254.593 131.819C254.907 131.455 255.064 130.885 255.064 130.11V124.006H257.177ZM264.243 128.442H264.927C265.597 128.442 266.091 128.331 266.41 128.107C266.729 127.884 266.889 127.533 266.889 127.055C266.889 126.581 266.724 126.243 266.396 126.043C266.073 125.842 265.569 125.742 264.886 125.742H264.243V128.442ZM264.243 130.165V134H262.124V124.006H265.036C266.394 124.006 267.399 124.254 268.051 124.751C268.702 125.243 269.028 125.993 269.028 127C269.028 127.588 268.866 128.112 268.543 128.572C268.219 129.028 267.761 129.386 267.169 129.646C268.673 131.892 269.653 133.344 270.108 134H267.757L265.371 130.165H264.243ZM280.003 134V124.006H282.122V132.25H286.176V134H280.003ZM299.49 128.989C299.49 130.644 299.08 131.915 298.26 132.804C297.439 133.692 296.264 134.137 294.732 134.137C293.201 134.137 292.025 133.692 291.205 132.804C290.385 131.915 289.974 130.639 289.974 128.976C289.974 127.312 290.385 126.043 291.205 125.168C292.03 124.288 293.21 123.849 294.746 123.849C296.282 123.849 297.455 124.291 298.266 125.175C299.082 126.059 299.49 127.33 299.49 128.989ZM292.196 128.989C292.196 130.106 292.408 130.947 292.832 131.512C293.256 132.077 293.889 132.359 294.732 132.359C296.423 132.359 297.268 131.236 297.268 128.989C297.268 126.738 296.428 125.612 294.746 125.612C293.903 125.612 293.267 125.897 292.839 126.467C292.41 127.032 292.196 127.873 292.196 128.989ZM307.855 128.388H311.82V133.569C311.178 133.779 310.571 133.925 310.002 134.007C309.437 134.093 308.858 134.137 308.265 134.137C306.757 134.137 305.604 133.695 304.806 132.811C304.014 131.922 303.617 130.648 303.617 128.989C303.617 127.376 304.077 126.118 304.998 125.216C305.923 124.313 307.204 123.862 308.84 123.862C309.865 123.862 310.854 124.067 311.806 124.478L311.102 126.173C310.373 125.808 309.614 125.626 308.826 125.626C307.91 125.626 307.176 125.934 306.625 126.549C306.073 127.164 305.798 127.991 305.798 129.03C305.798 130.115 306.019 130.944 306.461 131.519C306.907 132.088 307.555 132.373 308.402 132.373C308.844 132.373 309.293 132.327 309.749 132.236V130.151H307.855V128.388ZM325.777 128.989C325.777 130.644 325.367 131.915 324.547 132.804C323.726 133.692 322.551 134.137 321.019 134.137C319.488 134.137 318.312 133.692 317.492 132.804C316.672 131.915 316.262 130.639 316.262 128.976C316.262 127.312 316.672 126.043 317.492 125.168C318.317 124.288 319.497 123.849 321.033 123.849C322.569 123.849 323.742 124.291 324.554 125.175C325.369 126.059 325.777 127.33 325.777 128.989ZM318.483 128.989C318.483 130.106 318.695 130.947 319.119 131.512C319.543 132.077 320.176 132.359 321.019 132.359C322.71 132.359 323.556 131.236 323.556 128.989C323.556 126.738 322.715 125.612 321.033 125.612C320.19 125.612 319.554 125.897 319.126 126.467C318.697 127.032 318.483 127.873 318.483 128.989ZM236.821 146.626C236.024 146.626 235.406 146.927 234.969 147.528C234.531 148.125 234.312 148.959 234.312 150.03C234.312 152.259 235.149 153.373 236.821 153.373C237.523 153.373 238.373 153.198 239.371 152.847V154.624C238.551 154.966 237.635 155.137 236.623 155.137C235.169 155.137 234.057 154.697 233.287 153.817C232.517 152.933 232.132 151.666 232.132 150.017C232.132 148.978 232.321 148.068 232.699 147.289C233.077 146.505 233.62 145.906 234.326 145.491C235.037 145.072 235.869 144.862 236.821 144.862C237.792 144.862 238.767 145.097 239.747 145.566L239.063 147.289C238.69 147.111 238.314 146.956 237.935 146.824C237.557 146.692 237.186 146.626 236.821 146.626ZM253.075 149.989C253.075 151.644 252.665 152.915 251.845 153.804C251.024 154.692 249.848 155.137 248.317 155.137C246.786 155.137 245.61 154.692 244.79 153.804C243.97 152.915 243.559 151.639 243.559 149.976C243.559 148.312 243.97 147.043 244.79 146.168C245.615 145.288 246.795 144.849 248.331 144.849C249.867 144.849 251.04 145.291 251.851 146.175C252.667 147.059 253.075 148.33 253.075 149.989ZM245.781 149.989C245.781 151.106 245.993 151.947 246.417 152.512C246.841 153.077 247.474 153.359 248.317 153.359C250.008 153.359 250.853 152.236 250.853 149.989C250.853 147.738 250.013 146.612 248.331 146.612C247.488 146.612 246.852 146.897 246.424 147.467C245.995 148.032 245.781 148.873 245.781 149.989ZM261.878 155L259.472 147.159H259.41C259.497 148.754 259.54 149.818 259.54 150.352V155H257.646V145.006H260.531L262.896 152.648H262.937L265.446 145.006H268.331V155H266.355V150.27C266.355 150.046 266.358 149.789 266.362 149.497C266.371 149.205 266.403 148.431 266.458 147.173H266.396L263.819 155H261.878ZM275.473 149.709H276.17C276.821 149.709 277.309 149.581 277.633 149.326C277.956 149.066 278.118 148.69 278.118 148.198C278.118 147.701 277.981 147.335 277.708 147.098C277.439 146.861 277.015 146.742 276.436 146.742H275.473V149.709ZM280.258 148.123C280.258 149.199 279.92 150.021 279.246 150.591C278.576 151.16 277.621 151.445 276.382 151.445H275.473V155H273.353V145.006H276.546C277.758 145.006 278.679 145.268 279.307 145.792C279.941 146.312 280.258 147.089 280.258 148.123ZM290.763 155L290.038 152.621H286.394L285.67 155H283.387L286.914 144.965H289.505L293.046 155H290.763ZM289.532 150.844C288.862 148.688 288.484 147.469 288.397 147.187C288.315 146.904 288.256 146.681 288.22 146.517C288.069 147.1 287.639 148.542 286.928 150.844H289.532ZM305.677 155H302.983L298.636 147.439H298.574C298.661 148.775 298.704 149.727 298.704 150.297V155H296.81V145.006H299.483L303.824 152.491H303.872C303.804 151.192 303.769 150.274 303.769 149.736V145.006H305.677V155ZM313.809 149.121L315.894 145.006H318.178L314.862 151.11V155H312.757V151.179L309.441 145.006H311.738L313.809 149.121Z" fill="#444444"/>
</g>
<g filter="url(#filter13_d_490_92845)">
<rect x="435" y="19" width="172" height="124" rx="6" fill="white"/>
<rect x="435.5" y="19.5" width="171" height="123" rx="5.5" stroke="#CCCCCC"/>
</g>
<rect x="455" y="39" width="36" height="36" rx="8" fill="#4781D1"/>
<rect x="503" y="39" width="36" height="36" rx="8" fill="#F97A0B"/>
<rect x="551" y="39" width="36" height="36" rx="8" fill="#2DB482"/>
<path fill-rule="evenodd" clip-rule="evenodd" d="M567.207 63.2069L576.707 53.7069L575.293 52.2927L566.5 61.0856L562.707 57.2927L561.293 58.7069L565.793 63.2069C566.183 63.5975 566.817 63.5975 567.207 63.2069Z" fill="white"/>
<rect x="455" y="87" width="36" height="36" rx="8" fill="#F2675A"/>
<rect x="503" y="87" width="36" height="36" rx="8" fill="#6D4EC2"/>
<rect x="551" y="87" width="36" height="36" rx="8" fill="#11A4D4"/>
</g>
<defs>
<filter id="filter0_d_490_92845" x="0" y="26" width="640" height="488" filterUnits="userSpaceOnUse" color-interpolation-filters="sRGB">
<feFlood flood-opacity="0" result="BackgroundImageFix"/>
<feColorMatrix in="SourceAlpha" type="matrix" values="0 0 0 0 0 0 0 0 0 0 0 0 0 0 0 0 0 0 127 0" result="hardAlpha"/>
<feOffset dy="20"/>
<feGaussianBlur stdDeviation="25"/>
<feColorMatrix type="matrix" values="0 0 0 0 0.333333 0 0 0 0 0.333333 0 0 0 0 0.333333 0 0 0 0.15 0"/>
<feBlend mode="normal" in2="BackgroundImageFix" result="effect1_dropShadow_490_92845"/>
<feBlend mode="normal" in="SourceGraphic" in2="effect1_dropShadow_490_92845" result="shape"/>
</filter>
<filter id="filter1_b_490_92845" x="180.634" y="150.134" width="132.731" height="128.731" filterUnits="userSpaceOnUse" color-interpolation-filters="sRGB">
<feFlood flood-opacity="0" result="BackgroundImageFix"/>
<feGaussianBlur in="BackgroundImageFix" stdDeviation="27.1828"/>
<feComposite in2="SourceAlpha" operator="in" result="effect1_backgroundBlur_490_92845"/>
<feBlend mode="normal" in="SourceGraphic" in2="effect1_backgroundBlur_490_92845" result="shape"/>
</filter>
<filter id="filter2_b_490_92845" x="208.634" y="150.134" width="162.731" height="128.731" filterUnits="userSpaceOnUse" color-interpolation-filters="sRGB">
<feFlood flood-opacity="0" result="BackgroundImageFix"/>
<feGaussianBlur in="BackgroundImageFix" stdDeviation="27.1828"/>
<feComposite in2="SourceAlpha" operator="in" result="effect1_backgroundBlur_490_92845"/>
<feBlend mode="normal" in="SourceGraphic" in2="effect1_backgroundBlur_490_92845" result="shape"/>
</filter>
<filter id="filter3_b_490_92845" x="357.634" y="150.134" width="144.731" height="129.231" filterUnits="userSpaceOnUse" color-interpolation-filters="sRGB">
<feFlood flood-opacity="0" result="BackgroundImageFix"/>
<feGaussianBlur in="BackgroundImageFix" stdDeviation="27.1828"/>
<feComposite in2="SourceAlpha" operator="in" result="effect1_backgroundBlur_490_92845"/>
<feBlend mode="normal" in="SourceGraphic" in2="effect1_backgroundBlur_490_92845" result="shape"/>
</filter>
<filter id="filter4_b_490_92845" x="180.634" y="243.634" width="162.731" height="128.731" filterUnits="userSpaceOnUse" color-interpolation-filters="sRGB">
<feFlood flood-opacity="0" result="BackgroundImageFix"/>
<feGaussianBlur in="BackgroundImageFix" stdDeviation="27.1828"/>
<feComposite in2="SourceAlpha" operator="in" result="effect1_backgroundBlur_490_92845"/>
<feBlend mode="normal" in="SourceGraphic" in2="effect1_backgroundBlur_490_92845" result="shape"/>
</filter>
<filter id="filter5_b_490_92845" x="238.634" y="243.634" width="162.731" height="128.731" filterUnits="userSpaceOnUse" color-interpolation-filters="sRGB">
<feFlood flood-opacity="0" result="BackgroundImageFix"/>
<feGaussianBlur in="BackgroundImageFix" stdDeviation="27.1828"/>
<feComposite in2="SourceAlpha" operator="in" result="effect1_backgroundBlur_490_92845"/>
<feBlend mode="normal" in="SourceGraphic" in2="effect1_backgroundBlur_490_92845" result="shape"/>
</filter>
<filter id="filter6_b_490_92845" x="357.634" y="244.134" width="162.731" height="128.731" filterUnits="userSpaceOnUse" color-interpolation-filters="sRGB">
<feFlood flood-opacity="0" result="BackgroundImageFix"/>
<feGaussianBlur in="BackgroundImageFix" stdDeviation="27.1828"/>
<feComposite in2="SourceAlpha" operator="in" result="effect1_backgroundBlur_490_92845"/>
<feBlend mode="normal" in="SourceGraphic" in2="effect1_backgroundBlur_490_92845" result="shape"/>
</filter>
<filter id="filter7_b_490_92845" x="180.634" y="338.134" width="162.731" height="128.731" filterUnits="userSpaceOnUse" color-interpolation-filters="sRGB">
<feFlood flood-opacity="0" result="BackgroundImageFix"/>
<feGaussianBlur in="BackgroundImageFix" stdDeviation="27.1828"/>
<feComposite in2="SourceAlpha" operator="in" result="effect1_backgroundBlur_490_92845"/>
<feBlend mode="normal" in="SourceGraphic" in2="effect1_backgroundBlur_490_92845" result="shape"/>
</filter>
<filter id="filter8_b_490_92845" x="238.634" y="338.134" width="132.731" height="128.731" filterUnits="userSpaceOnUse" color-interpolation-filters="sRGB">
<feFlood flood-opacity="0" result="BackgroundImageFix"/>
<feGaussianBlur in="BackgroundImageFix" stdDeviation="27.1828"/>
<feComposite in2="SourceAlpha" operator="in" result="effect1_backgroundBlur_490_92845"/>
<feBlend mode="normal" in="SourceGraphic" in2="effect1_backgroundBlur_490_92845" result="shape"/>
</filter>
<filter id="filter9_b_490_92845" x="357.634" y="338.134" width="162.731" height="128.731" filterUnits="userSpaceOnUse" color-interpolation-filters="sRGB">
<feFlood flood-opacity="0" result="BackgroundImageFix"/>
<feGaussianBlur in="BackgroundImageFix" stdDeviation="27.1828"/>
<feComposite in2="SourceAlpha" operator="in" result="effect1_backgroundBlur_490_92845"/>
<feBlend mode="normal" in="SourceGraphic" in2="effect1_backgroundBlur_490_92845" result="shape"/>
</filter>
<filter id="filter10_d_490_92845" x="42" y="54" width="170" height="77" filterUnits="userSpaceOnUse" color-interpolation-filters="sRGB">
<feFlood flood-opacity="0" result="BackgroundImageFix"/>
<feColorMatrix in="SourceAlpha" type="matrix" values="0 0 0 0 0 0 0 0 0 0 0 0 0 0 0 0 0 0 127 0" result="hardAlpha"/>
<feOffset dy="7"/>
<feGaussianBlur stdDeviation="12.5"/>
<feColorMatrix type="matrix" values="0 0 0 0 0.333333 0 0 0 0 0.333333 0 0 0 0 0.333333 0 0 0 0.15 0"/>
<feBlend mode="normal" in2="BackgroundImageFix" result="effect1_dropShadow_490_92845"/>
<feBlend mode="normal" in="SourceGraphic" in2="effect1_dropShadow_490_92845" result="shape"/>
</filter>
<filter id="filter11_d_490_92845" x="409" y="262" width="163" height="163" filterUnits="userSpaceOnUse" color-interpolation-filters="sRGB">
<feFlood flood-opacity="0" result="BackgroundImageFix"/>
<feColorMatrix in="SourceAlpha" type="matrix" values="0 0 0 0 0 0 0 0 0 0 0 0 0 0 0 0 0 0 127 0" result="hardAlpha"/>
<feOffset dy="7"/>
<feGaussianBlur stdDeviation="12.5"/>
<feColorMatrix type="matrix" values="0 0 0 0 0.333333 0 0 0 0 0.333333 0 0 0 0 0.333333 0 0 0 0.15 0"/>
<feBlend mode="normal" in2="BackgroundImageFix" result="effect1_dropShadow_490_92845"/>
<feBlend mode="normal" in="SourceGraphic" in2="effect1_dropShadow_490_92845" result="shape"/>
</filter>
<filter id="filter12_d_490_92845" x="172" y="80" width="201.111" height="130" filterUnits="userSpaceOnUse" color-interpolation-filters="sRGB">
<feFlood flood-opacity="0" result="BackgroundImageFix"/>
<feColorMatrix in="SourceAlpha" type="matrix" values="0 0 0 0 0 0 0 0 0 0 0 0 0 0 0 0 0 0 127 0" result="hardAlpha"/>
<feOffset dy="7"/>
<feGaussianBlur stdDeviation="12.5"/>
<feColorMatrix type="matrix" values="0 0 0 0 0.333333 0 0 0 0 0.333333 0 0 0 0 0.333333 0 0 0 0.15 0"/>
<feBlend mode="normal" in2="BackgroundImageFix" result="effect1_dropShadow_490_92845"/>
<feBlend mode="normal" in="SourceGraphic" in2="effect1_dropShadow_490_92845" result="shape"/>
</filter>
<filter id="filter13_d_490_92845" x="385" y="-11" width="272" height="224" filterUnits="userSpaceOnUse" color-interpolation-filters="sRGB">
<feFlood flood-opacity="0" result="BackgroundImageFix"/>
<feColorMatrix in="SourceAlpha" type="matrix" values="0 0 0 0 0 0 0 0 0 0 0 0 0 0 0 0 0 0 127 0" result="hardAlpha"/>
<feOffset dy="20"/>
<feGaussianBlur stdDeviation="25"/>
<feColorMatrix type="matrix" values="0 0 0 0 0.333333 0 0 0 0 0.333333 0 0 0 0 0.333333 0 0 0 0.15 0"/>
<feBlend mode="normal" in2="BackgroundImageFix" result="effect1_dropShadow_490_92845"/>
<feBlend mode="normal" in="SourceGraphic" in2="effect1_dropShadow_490_92845" result="shape"/>
</filter>
<linearGradient id="paint0_linear_490_92845" x1="349" y1="207" x2="349" y2="343" gradientUnits="userSpaceOnUse">
<stop stop-color="#FF6F3D"/>
<stop offset="1" stop-color="#FF8E3D"/>
</linearGradient>
<clipPath id="clip0_490_92845">
<rect width="640" height="500" fill="white"/>
</clipPath>
<clipPath id="clip1_490_92845">
<rect x="50" y="56" width="540" height="388" rx="5" fill="white"/>
</clipPath>
<clipPath id="clip2_490_92845">
<rect x="225" y="153" width="165" height="82" rx="9" fill="white"/>
</clipPath>
<clipPath id="clip3_490_92845">
<rect width="16" height="16" fill="white" transform="translate(364 165.25)"/>
</clipPath>
<clipPath id="clip4_490_92845">
<rect x="402" y="153" width="165" height="82" rx="9" fill="white"/>
</clipPath>
<clipPath id="clip5_490_92845">
<rect width="16" height="16" fill="white" transform="translate(541 165.25)"/>
</clipPath>
<clipPath id="clip6_490_92845">
<rect x="225" y="247" width="165" height="82" rx="9" fill="white"/>
</clipPath>
<clipPath id="clip7_490_92845">
<rect x="402" y="247" width="165" height="82" rx="9" fill="white"/>
</clipPath>
<clipPath id="clip8_490_92845">
<rect width="16" height="16" fill="white" transform="translate(541 259.25)"/>
</clipPath>
<clipPath id="clip9_490_92845">
<rect x="225" y="341" width="165" height="82" rx="9" fill="white"/>
</clipPath>
<clipPath id="clip10_490_92845">
<rect width="16" height="16" fill="white" transform="translate(364 353.25)"/>
</clipPath>
<clipPath id="clip11_490_92845">
<rect x="402" y="341" width="165" height="82" rx="9" fill="white"/>
</clipPath>
<clipPath id="clip12_490_92845">
<rect width="16" height="16" fill="white" transform="translate(541 353.25)"/>
</clipPath>
<clipPath id="clip13_490_92845">
<rect x="225" y="104" width="223" height="32" rx="3" fill="white"/>
</clipPath>
<clipPath id="clip14_490_92845">
<rect width="16" height="16" fill="white" transform="translate(464 112)"/>
</clipPath>
<clipPath id="clip15_490_92845">
<rect width="16" height="16" fill="white" transform="translate(504 112)"/>
</clipPath>
<clipPath id="clip16_490_92845">
<rect width="16" height="16" fill="white" transform="translate(78 296)"/>
</clipPath>
<clipPath id="clip17_490_92845">
<rect width="16" height="16" fill="white" transform="translate(78 328)"/>
</clipPath>
<clipPath id="clip18_490_92845">
<rect width="16" height="16" fill="white" transform="translate(172 408.5)"/>
</clipPath>
</defs>
</svg>