<svg xmlns="http://www.w3.org/2000/svg" width="640" height="500" viewBox="0 0 640 500" fill="none">
<g clip-path="url(#clip0_490_37757)">
<path d="M348.547 188.175C348.765 187.971 348.942 187.802 349.077 187.67C349.248 187.807 349.479 187.991 349.768 188.217C350.447 188.749 351.446 189.514 352.726 190.45C355.286 192.323 358.974 194.884 363.488 197.638C372.512 203.142 384.86 209.431 398.118 212.526C403.105 213.691 408.226 214.404 413.351 214.452C411.941 219.797 410.814 224.896 409.868 229.768C408.468 236.969 407.462 243.677 406.522 249.945L406.521 249.949C404.03 266.56 402.002 280.032 394.4 291.693C386.829 303.31 373.679 313.192 348.816 322.468C324.468 313.919 311.345 303.766 303.754 291.981C296.133 280.15 294.04 266.613 291.873 251.174L291.872 251.17C290.944 244.562 289.954 237.51 288.426 229.951C287.44 225.075 286.23 219.988 284.668 214.67C289.718 214.598 294.848 213.814 299.894 212.558C315.544 209.279 327.914 202.984 336.371 197.508C340.601 194.769 343.854 192.234 346.052 190.382C347.151 189.456 347.986 188.7 348.547 188.175Z" fill="url(#paint0_linear_490_37757)" stroke="#E2E2E2"/>
<path d="M354.781 249.413L354.52 249.601L354.582 249.916L359.601 275.473C357.163 278.016 353.104 279.478 348.987 279.637C344.868 279.797 340.828 278.647 338.4 276.135L343.581 249.916L343.642 249.606L343.388 249.418C342.075 248.445 341.032 247.153 340.359 245.664C339.686 244.174 339.406 242.537 339.545 240.909C339.684 239.28 340.237 237.714 341.152 236.36C342.067 235.006 343.313 233.909 344.772 233.173C346.231 232.437 347.854 232.087 349.487 232.156C351.119 232.226 352.707 232.712 354.099 233.568C355.49 234.425 356.639 235.624 357.436 237.05C358.234 238.477 358.653 240.084 358.653 241.719H358.653L358.653 241.726C358.675 243.225 358.335 244.706 357.661 246.045C356.986 247.384 355.998 248.539 354.781 249.413Z" fill="white" stroke="#E2E2E2"/>
<g filter="url(#filter0_d_490_37757)">
<g clip-path="url(#clip1_490_37757)">
<rect x="50" y="36" width="540" height="388" rx="5" fill="white"/>
<rect width="383" height="48" transform="translate(205 36)" fill="white"/>
<rect width="48" height="48" transform="translate(225 36)" fill="white"/>
<path d="M229.17 55.0059C230.077 55.0059 230.824 55.1152 231.412 55.334C232.005 55.5527 232.444 55.8831 232.731 56.3252C233.019 56.7673 233.162 57.3255 233.162 58C233.162 58.4557 233.076 58.8545 232.902 59.1963C232.729 59.5381 232.501 59.8275 232.219 60.0645C231.936 60.3014 231.631 60.4951 231.303 60.6455L234.242 65H231.891L229.505 61.165H228.377V65H226.258V55.0059H229.17ZM229.02 56.7422H228.377V59.4424H229.061C229.762 59.4424 230.264 59.3262 230.564 59.0938C230.87 58.8568 231.022 58.5104 231.022 58.0547C231.022 57.5807 230.858 57.2435 230.53 57.043C230.207 56.8424 229.703 56.7422 229.02 56.7422ZM242.281 61.165C242.281 61.8031 242.195 62.3682 242.021 62.8604C241.853 63.3525 241.604 63.7695 241.276 64.1113C240.953 64.4486 240.561 64.7038 240.101 64.877C239.645 65.0501 239.13 65.1367 238.556 65.1367C238.018 65.1367 237.523 65.0501 237.072 64.877C236.626 64.7038 236.236 64.4486 235.903 64.1113C235.575 63.7695 235.32 63.3525 235.138 62.8604C234.96 62.3682 234.871 61.8031 234.871 61.165C234.871 60.3174 235.021 59.5996 235.322 59.0117C235.623 58.4238 236.051 57.9772 236.607 57.6719C237.163 57.3665 237.826 57.2139 238.597 57.2139C239.312 57.2139 239.946 57.3665 240.497 57.6719C241.053 57.9772 241.488 58.4238 241.803 59.0117C242.122 59.5996 242.281 60.3174 242.281 61.165ZM236.997 61.165C236.997 61.6663 237.052 62.0879 237.161 62.4297C237.271 62.7715 237.441 63.029 237.674 63.2021C237.906 63.3753 238.209 63.4619 238.583 63.4619C238.952 63.4619 239.251 63.3753 239.479 63.2021C239.711 63.029 239.88 62.7715 239.984 62.4297C240.094 62.0879 240.148 61.6663 240.148 61.165C240.148 60.6592 240.094 60.2399 239.984 59.9072C239.88 59.57 239.711 59.3171 239.479 59.1484C239.246 58.9798 238.943 58.8955 238.569 58.8955C238.018 58.8955 237.617 59.0846 237.366 59.4629C237.12 59.8411 236.997 60.4085 236.997 61.165ZM250.949 61.165C250.949 61.8031 250.863 62.3682 250.689 62.8604C250.521 63.3525 250.272 63.7695 249.944 64.1113C249.621 64.4486 249.229 64.7038 248.769 64.877C248.313 65.0501 247.798 65.1367 247.224 65.1367C246.686 65.1367 246.191 65.0501 245.74 64.877C245.294 64.7038 244.904 64.4486 244.571 64.1113C244.243 63.7695 243.988 63.3525 243.806 62.8604C243.628 62.3682 243.539 61.8031 243.539 61.165C243.539 60.3174 243.689 59.5996 243.99 59.0117C244.291 58.4238 244.719 57.9772 245.275 57.6719C245.831 57.3665 246.494 57.2139 247.265 57.2139C247.98 57.2139 248.614 57.3665 249.165 57.6719C249.721 57.9772 250.156 58.4238 250.471 59.0117C250.79 59.5996 250.949 60.3174 250.949 61.165ZM245.665 61.165C245.665 61.6663 245.72 62.0879 245.829 62.4297C245.938 62.7715 246.109 63.029 246.342 63.2021C246.574 63.3753 246.877 63.4619 247.251 63.4619C247.62 63.4619 247.919 63.3753 248.146 63.2021C248.379 63.029 248.548 62.7715 248.652 62.4297C248.762 62.0879 248.816 61.6663 248.816 61.165C248.816 60.6592 248.762 60.2399 248.652 59.9072C248.548 59.57 248.379 59.3171 248.146 59.1484C247.914 58.9798 247.611 58.8955 247.237 58.8955C246.686 58.8955 246.285 59.0846 246.034 59.4629C245.788 59.8411 245.665 60.4085 245.665 61.165ZM261.647 57.2139C262.513 57.2139 263.167 57.4372 263.609 57.8838C264.056 58.3258 264.279 59.0368 264.279 60.0166V65H262.188V60.5361C262.188 59.9893 262.094 59.5768 261.907 59.2988C261.72 59.0208 261.431 58.8818 261.039 58.8818C260.488 58.8818 260.096 59.0801 259.863 59.4766C259.631 59.8685 259.515 60.4313 259.515 61.165V65H257.43V60.5361C257.43 60.1715 257.389 59.8662 257.307 59.6201C257.225 59.374 257.099 59.1895 256.931 59.0664C256.762 58.9434 256.546 58.8818 256.281 58.8818C255.894 58.8818 255.589 58.9798 255.365 59.1758C255.146 59.3672 254.989 59.652 254.894 60.0303C254.802 60.404 254.757 60.862 254.757 61.4043V65H252.672V57.3574H254.265L254.545 58.335H254.661C254.816 58.0706 255.01 57.8564 255.242 57.6924C255.479 57.5283 255.739 57.4076 256.021 57.3301C256.304 57.2526 256.591 57.2139 256.883 57.2139C257.443 57.2139 257.917 57.305 258.305 57.4873C258.697 57.6696 258.997 57.9521 259.207 58.335H259.392C259.619 57.943 259.941 57.6582 260.355 57.4805C260.775 57.3027 261.205 57.2139 261.647 57.2139ZM271.758 62.7305C271.758 63.25 271.635 63.6898 271.389 64.0498C271.147 64.4053 270.785 64.6764 270.302 64.8633C269.819 65.0456 269.217 65.1367 268.497 65.1367C267.964 65.1367 267.506 65.1025 267.123 65.0342C266.745 64.9658 266.362 64.8519 265.975 64.6924V62.9697C266.389 63.1566 266.834 63.3115 267.308 63.4346C267.786 63.5531 268.205 63.6123 268.565 63.6123C268.971 63.6123 269.26 63.5531 269.434 63.4346C269.611 63.3115 269.7 63.152 269.7 62.9561C269.7 62.8285 269.664 62.7145 269.591 62.6143C269.522 62.5094 269.372 62.3932 269.14 62.2656C268.907 62.1335 268.543 61.9626 268.046 61.7529C267.567 61.5524 267.173 61.3496 266.863 61.1445C266.558 60.9395 266.33 60.6979 266.18 60.4199C266.034 60.1374 265.961 59.7796 265.961 59.3467C265.961 58.6403 266.234 58.1094 266.781 57.7539C267.333 57.3939 268.069 57.2139 268.989 57.2139C269.463 57.2139 269.914 57.2617 270.343 57.3574C270.776 57.4531 271.22 57.6058 271.676 57.8154L271.047 59.3193C270.669 59.1553 270.311 59.0208 269.974 58.916C269.641 58.8112 269.301 58.7588 268.955 58.7588C268.65 58.7588 268.42 58.7998 268.265 58.8818C268.11 58.9639 268.032 59.0892 268.032 59.2578C268.032 59.3809 268.071 59.4902 268.148 59.5859C268.23 59.6816 268.385 59.7887 268.613 59.9072C268.846 60.0212 269.185 60.1693 269.632 60.3516C270.065 60.5293 270.441 60.7161 270.76 60.9121C271.079 61.1035 271.325 61.3428 271.498 61.6299C271.671 61.9124 271.758 62.2793 271.758 62.7305Z" fill="#333333"/>
<rect width="251" height="48" transform="translate(273 36)" fill="white"/>
<path fill-rule="evenodd" clip-rule="evenodd" d="M289.5 52.5C288.672 52.5 288 53.1716 288 54V58.5H283.5C282.672 58.5 282 59.1716 282 60C282 60.8284 282.672 61.5 283.5 61.5H288V66C288 66.8284 288.672 67.5 289.5 67.5C290.328 67.5 291 66.8284 291 66V61.5H295.5C296.328 61.5 297 60.8284 297 60C297 59.1716 296.328 58.5 295.5 58.5H291V54C291 53.1716 290.328 52.5 289.5 52.5Z" fill="#A3A9AE"/>
<rect width="44" height="48" transform="translate(524 36)" fill="white"/>
<path fill-rule="evenodd" clip-rule="evenodd" d="M544 55.5C544 54.6716 544.672 54 545.5 54H558.5C559.328 54 560 54.6716 560 55.5V64.5C560 65.3284 559.328 66 558.5 66H545.5C544.672 66 544 65.3284 544 64.5V55.5ZM546 57C546 56.4477 546.448 56 547 56H553V64H547C546.448 64 546 63.5523 546 63V57ZM555 64H557C557.552 64 558 63.5523 558 63V57C558 56.4477 557.552 56 557 56H555V64Z" fill="#A3A9AE"/>
<g clip-path="url(#clip2_490_37757)">
<rect x="225" y="133" width="165" height="82" rx="9" fill="white"/>
<rect x="235" y="143.25" width="20" height="20" rx="4" fill="#EFF6FD"/>
<path fill-rule="evenodd" clip-rule="evenodd" d="M239 144.25H251C252.657 144.25 254 145.593 254 147.25V159.25C254 160.907 252.657 162.25 251 162.25H239C237.343 162.25 236 160.907 236 159.25V147.25C236 145.593 237.343 144.25 239 144.25ZM235 147.25C235 145.041 236.791 143.25 239 143.25H251C253.209 143.25 255 145.041 255 147.25V159.25C255 161.459 253.209 163.25 251 163.25H239C236.791 163.25 235 161.459 235 159.25V147.25Z" fill="#4781D1"/>
<rect x="263" y="150.75" width="93" height="5" rx="2.5" fill="#EFEFEF"/>
<g clip-path="url(#clip3_490_37757)">
<path fill-rule="evenodd" clip-rule="evenodd" d="M370 147.25C370 146.145 370.895 145.25 372 145.25C373.105 145.25 374 146.145 374 147.25C374 148.355 373.105 149.25 372 149.25C370.895 149.25 370 148.355 370 147.25ZM370 153.25C370 152.145 370.895 151.25 372 151.25C373.105 151.25 374 152.145 374 153.25C374 154.355 373.105 155.25 372 155.25C370.895 155.25 370 154.355 370 153.25ZM372 157.25C370.895 157.25 370 158.145 370 159.25C370 160.355 370.895 161.25 372 161.25C373.105 161.25 374 160.355 374 159.25C374 158.145 373.105 157.25 372 157.25Z" fill="#A3A9AE"/>
</g>
<rect x="225" y="173.5" width="165" height="1" fill="#D0D5DA"/>
<g filter="url(#filter1_b_490_37757)">
<rect x="235" y="184.5" width="24" height="20" rx="3" fill="#F3F4F4"/>
</g>
<g filter="url(#filter2_b_490_37757)">
<rect x="263" y="184.5" width="54" height="20" rx="3" fill="#F3F4F4"/>
</g>
</g>
<rect x="225.5" y="133.5" width="164" height="81" rx="8.5" stroke="#D0D5DA"/>
<g clip-path="url(#clip4_490_37757)">
<rect x="402" y="133" width="165" height="82" rx="9" fill="white"/>
<rect x="412.5" y="143.5" width="19" height="19" rx="3.5" fill="#EBF9F3"/>
<rect x="412.5" y="143.5" width="19" height="19" rx="3.5" stroke="#64C391"/>
<rect x="440" y="150.5" width="68" height="5" rx="2.5" fill="#EFEFEF"/>
<rect x="516" y="147" width="17" height="12" rx="6" fill="#2DB382"/>
<path fill-rule="evenodd" clip-rule="evenodd" d="M547 147C547 145.895 547.895 145 549 145C550.105 145 551 145.895 551 147C551 148.105 550.105 149 549 149C547.895 149 547 148.105 547 147ZM547 153C547 151.895 547.895 151 549 151C550.105 151 551 151.895 551 153C551 154.105 550.105 155 549 155C547.895 155 547 154.105 547 153ZM549 157C547.895 157 547 157.895 547 159C547 160.105 547.895 161 549 161C550.105 161 551 160.105 551 159C551 157.895 550.105 157 549 157Z" fill="#A3A9AE"/>
<rect x="402" y="173" width="165" height="1" fill="#D0D5DA"/>
<g filter="url(#filter3_b_490_37757)">
<rect x="412" y="184" width="36" height="21" rx="3" fill="#F3F4F4"/>
</g>
</g>
<rect x="402.5" y="133.5" width="164" height="81" rx="8.5" stroke="#D0D5DA"/>
<g clip-path="url(#clip5_490_37757)">
<rect x="225" y="227" width="165" height="82" rx="9" fill="white"/>
<rect x="235" y="237" width="20" height="20" rx="4" fill="#FBEEF2"/>
<path fill-rule="evenodd" clip-rule="evenodd" d="M237.66 256.235L237.469 256.696C237.94 256.892 238.458 257 239 257H242V256.5V256H239C238.591 256 238.204 255.919 237.852 255.773L237.66 256.235ZM248 256.5V257H251C251.542 257 252.06 256.892 252.531 256.696L252.34 256.235L252.148 255.773C251.796 255.919 251.409 256 251 256H248V256.5ZM254.5 244H255V241C255 240.458 254.892 239.94 254.696 239.469L254.235 239.66L253.773 239.852C253.919 240.204 254 240.591 254 241V244H254.5ZM239 237H242V237.5V238H239C238.591 238 238.204 238.081 237.852 238.227L237.66 237.765L237.469 237.304C237.94 237.108 238.458 237 239 237ZM235.5 250H235V253C235 253.542 235.108 254.06 235.304 254.531L235.765 254.34L236.227 254.148C236.081 253.796 236 253.409 236 253V250H235.5ZM235.5 244H235V241C235 240.458 235.108 239.94 235.304 239.469L235.765 239.66L236.227 239.852C236.081 240.204 236 240.591 236 241V244H235.5ZM248 237.5V237H251C251.542 237 252.06 237.108 252.531 237.304L252.34 237.765L252.148 238.227C251.796 238.081 251.409 238 251 238H248V237.5ZM254.5 250H255V253C255 253.542 254.892 254.06 254.696 254.531L254.235 254.34L253.773 254.148C253.919 253.796 254 253.409 254 253V250H254.5Z" fill="#F2557C"/>
<path fill-rule="evenodd" clip-rule="evenodd" d="M251 238H239C237.343 238 236 239.343 236 241V253C236 254.657 237.343 256 239 256H251C252.657 256 254 254.657 254 253V241C254 239.343 252.657 238 251 238ZM239 237C236.791 237 235 238.791 235 241V253C235 255.209 236.791 257 239 257H251C253.209 257 255 255.209 255 253V241C255 238.791 253.209 237 251 237H239Z" fill="#F2557C"/>
<rect x="263" y="244" width="68" height="6" rx="3" fill="#EFEFEF"/>
<rect x="339" y="241" width="17" height="12" rx="6" fill="#2DB382"/>
<path fill-rule="evenodd" clip-rule="evenodd" d="M370 241C370 239.895 370.895 239 372 239C373.105 239 374 239.895 374 241C374 242.105 373.105 243 372 243C370.895 243 370 242.105 370 241ZM370 247C370 245.895 370.895 245 372 245C373.105 245 374 245.895 374 247C374 248.105 373.105 249 372 249C370.895 249 370 248.105 370 247ZM372 251C370.895 251 370 251.895 370 253C370 254.105 370.895 255 372 255C373.105 255 374 254.105 374 253C374 251.895 373.105 251 372 251Z" fill="#A3A9AE"/>
<rect x="225" y="267" width="165" height="1" fill="#D0D5DA"/>
<g filter="url(#filter4_b_490_37757)">
<rect x="235" y="278" width="54" height="20" rx="3" fill="#F3F4F4"/>
</g>
<g filter="url(#filter5_b_490_37757)">
<rect x="293" y="278" width="54" height="20" rx="3" fill="#F3F4F4"/>
</g>
</g>
<rect x="225.5" y="227.5" width="164" height="81" rx="8.5" stroke="#D0D5DA"/>
<g clip-path="url(#clip6_490_37757)">
<rect x="402" y="227" width="165" height="82" rx="9" fill="white"/>
<rect x="412.5" y="237.75" width="19" height="19" rx="3.5" fill="#FBF1E7"/>
<rect x="412.5" y="237.75" width="19" height="19" rx="3.5" stroke="#DC8132"/>
<rect x="440" y="244.75" width="68" height="5" rx="2.5" fill="#EFEFEF"/>
<rect x="516" y="241.25" width="17" height="12" rx="6" fill="#2DB382"/>
<g clip-path="url(#clip7_490_37757)">
<path fill-rule="evenodd" clip-rule="evenodd" d="M547 241.25C547 240.145 547.895 239.25 549 239.25C550.105 239.25 551 240.145 551 241.25C551 242.355 550.105 243.25 549 243.25C547.895 243.25 547 242.355 547 241.25ZM547 247.25C547 246.145 547.895 245.25 549 245.25C550.105 245.25 551 246.145 551 247.25C551 248.355 550.105 249.25 549 249.25C547.895 249.25 547 248.355 547 247.25ZM549 251.25C547.895 251.25 547 252.145 547 253.25C547 254.355 547.895 255.25 549 255.25C550.105 255.25 551 254.355 551 253.25C551 252.145 550.105 251.25 549 251.25Z" fill="#A3A9AE"/>
</g>
<rect x="402" y="267.5" width="165" height="1" fill="#D0D5DA"/>
<g filter="url(#filter6_b_490_37757)">
<rect x="412" y="278.5" width="54" height="20" rx="3" fill="#F3F4F4"/>
</g>
</g>
<rect x="402.5" y="227.5" width="164" height="81" rx="8.5" stroke="#D0D5DA"/>
<g clip-path="url(#clip8_490_37757)">
<rect x="225" y="321" width="165" height="82" rx="9" fill="white"/>
<rect x="235" y="331" width="20" height="20" rx="4" fill="#F2FCDA"/>
<path fill-rule="evenodd" clip-rule="evenodd" d="M239 332H251C252.657 332 254 333.343 254 335V347C254 348.657 252.657 350 251 350H239C237.343 350 236 348.657 236 347V335C236 333.343 237.343 332 239 332ZM235 335C235 332.791 236.791 331 239 331H251C253.209 331 255 332.791 255 335V347C255 349.209 253.209 351 251 351H239C236.791 351 235 349.209 235 347V335Z" fill="#8BB825"/>
<rect x="263" y="338.5" width="73" height="5" rx="2.5" fill="#EFEFEF"/>
<rect x="344" y="335" width="12" height="12" rx="6" fill="#2DB382"/>
<path fill-rule="evenodd" clip-rule="evenodd" d="M370 335C370 333.895 370.895 333 372 333C373.105 333 374 333.895 374 335C374 336.105 373.105 337 372 337C370.895 337 370 336.105 370 335ZM370 341C370 339.895 370.895 339 372 339C373.105 339 374 339.895 374 341C374 342.105 373.105 343 372 343C370.895 343 370 342.105 370 341ZM372 345C370.895 345 370 345.895 370 347C370 348.105 370.895 349 372 349C373.105 349 374 348.105 374 347C374 345.895 373.105 345 372 345Z" fill="#A3A9AE"/>
<rect x="225" y="361" width="165" height="1" fill="#D0D5DA"/>
<g filter="url(#filter7_b_490_37757)">
<rect x="235" y="372" width="54" height="20" rx="3" fill="#F3F4F4"/>
</g>
<g filter="url(#filter8_b_490_37757)">
<rect x="293" y="372" width="24" height="20" rx="3" fill="#F3F4F4"/>
</g>
</g>
<rect x="225.5" y="321.5" width="164" height="81" rx="8.5" stroke="#D0D5DA"/>
<g clip-path="url(#clip9_490_37757)">
<rect x="402" y="321" width="165" height="82" rx="9" fill="white"/>
<rect width="165" height="40" transform="translate(402 321)" fill="#F9F9F9"/>
<rect x="412.5" y="331.5" width="19" height="19" rx="3.5" fill="#F2F2F2"/>
<rect x="412.5" y="331.5" width="19" height="19" rx="3.5" stroke="#808080"/>
<rect x="440" y="338" width="93" height="6" rx="3" fill="#EFEFEF"/>
<path fill-rule="evenodd" clip-rule="evenodd" d="M547 335C547 333.895 547.895 333 549 333C550.105 333 551 333.895 551 335C551 336.105 550.105 337 549 337C547.895 337 547 336.105 547 335ZM547 341C547 339.895 547.895 339 549 339C550.105 339 551 339.895 551 341C551 342.105 550.105 343 549 343C547.895 343 547 342.105 547 341ZM549 345C547.895 345 547 345.895 547 347C547 348.105 547.895 349 549 349C550.105 349 551 348.105 551 347C551 345.895 550.105 345 549 345Z" fill="#A3A9AE"/>
<rect x="402" y="361" width="165" height="1" fill="#D0D5DA"/>
<g filter="url(#filter9_b_490_37757)">
<rect x="412" y="372" width="54" height="20" rx="3" fill="#F3F4F4"/>
</g>
</g>
<rect x="402.5" y="321.5" width="164" height="81" rx="8.5" stroke="#D0D5DA"/>
<rect width="383" height="32" transform="translate(205 84)" fill="white"/>
<g clip-path="url(#clip10_490_37757)">
<rect x="225" y="84" width="223" height="32" rx="3" fill="white"/>
</g>
<rect x="225.5" y="84.5" width="222" height="31" rx="2.5" stroke="#D0D5DA"/>
<rect x="456.5" y="84.5" width="31" height="31" rx="2.5" fill="white"/>
<rect x="456.5" y="84.5" width="31" height="31" rx="2.5" stroke="#D0D5DA"/>
<g clip-path="url(#clip11_490_37757)">
<path fill-rule="evenodd" clip-rule="evenodd" d="M464.094 94.5758C464.259 94.2245 464.612 94 465 94H479C479.388 94 479.741 94.2245 479.906 94.5758C480.07 94.9272 480.017 95.3421 479.768 95.6402L475 101.362V105C475 105.379 474.786 105.725 474.447 105.894L470.447 107.894C470.137 108.049 469.769 108.033 469.474 107.851C469.179 107.668 469 107.347 469 107V101.362L464.232 95.6402C463.983 95.3421 463.93 94.9272 464.094 94.5758ZM467.135 96L470.768 100.36C470.918 100.54 471 100.766 471 101V105.382L473 104.382V101C473 100.766 473.082 100.54 473.232 100.36L476.865 96H467.135Z" fill="#A3A9AE"/>
</g>
<rect x="496.5" y="84.5" width="31" height="31" rx="2.5" fill="white"/>
<rect x="496.5" y="84.5" width="31" height="31" rx="2.5" stroke="#D0D5DA"/>
<g clip-path="url(#clip12_490_37757)">
<path fill-rule="evenodd" clip-rule="evenodd" d="M512 94.4142L507.707 98.7071L506.293 97.2929L511.293 92.2929C511.683 91.9024 512.317 91.9024 512.707 92.2929L517.707 97.2929L516.293 98.7071L512 94.4142ZM512 105.586L507.707 101.293L506.293 102.707L511.293 107.707C511.683 108.098 512.317 108.098 512.707 107.707L517.707 102.707L516.293 101.293L512 105.586ZM512 102.757L513 101.757L513 98.2426L512 97.2426L511 98.2427V101.757L512 102.757Z" fill="#A3A9AE"/>
</g>
<rect x="536.5" y="84.5" width="31" height="31" rx="2.5" fill="white"/>
<rect x="536.5" y="84.5" width="31" height="31" rx="2.5" stroke="#D0D5DA"/>
<path fill-rule="evenodd" clip-rule="evenodd" d="M546 93C545.448 93 545 93.4477 545 94V98C545 98.5523 545.448 99 546 99H550C550.552 99 551 98.5523 551 98V94C551 93.4477 550.552 93 550 93H546ZM547.5 97C547.224 97 547 96.7761 547 96.5V95.5C547 95.2239 547.224 95 547.5 95H548.5C548.776 95 549 95.2239 549 95.5V96.5C549 96.7761 548.776 97 548.5 97H547.5ZM546 101C545.448 101 545 101.448 545 102V106C545 106.552 545.448 107 546 107H550C550.552 107 551 106.552 551 106V102C551 101.448 550.552 101 550 101H546ZM547.5 105C547.224 105 547 104.776 547 104.5V103.5C547 103.224 547.224 103 547.5 103H548.5C548.776 103 549 103.224 549 103.5V104.5C549 104.776 548.776 105 548.5 105H547.5ZM553 94C553 93.4477 553.448 93 554 93H558C558.552 93 559 93.4477 559 94V98C559 98.5523 558.552 99 558 99H554C553.448 99 553 98.5523 553 98V94ZM555.5 95C555.224 95 555 95.2239 555 95.5V96.5C555 96.7761 555.224 97 555.5 97H556.5C556.776 97 557 96.7761 557 96.5V95.5C557 95.2239 556.776 95 556.5 95H555.5ZM554 101C553.448 101 553 101.448 553 102V106C553 106.552 553.448 107 554 107H558C558.552 107 559 106.552 559 106V102C559 101.448 558.552 101 558 101H554ZM555.5 105C555.224 105 555 104.776 555 104.5V103.5C555 103.224 555.224 103 555.5 103H556.5C556.776 103 557 103.224 557 103.5V104.5C557 104.776 556.776 105 556.5 105H555.5Z" fill="#A3A9AE"/>
<rect width="155" height="388" transform="translate(50 36)" fill="#F8F9F9"/>
<rect width="154" height="388" transform="translate(50 36)" fill="#F8F9F9"/>
<rect width="154" height="59" transform="translate(50 36)" fill="#F8F9F9"/>
<g filter="url(#filter10_d_490_37757)">
<path fill-rule="evenodd" clip-rule="evenodd" d="M80.0981 72.8162L73.4263 69.7281C72.8579 69.4585 72.8579 69.0418 73.4263 68.7967L75.749 67.7183L80.0734 69.7281C80.6417 69.9977 81.556 69.9977 82.0996 69.7281L86.4239 67.7183L88.7467 68.7967C89.3151 69.0663 89.3151 69.483 88.7467 69.7281L82.0749 72.8162C81.556 73.0613 80.6417 73.0613 80.0981 72.8162Z" fill="#FF6F3D"/>
<path fill-rule="evenodd" clip-rule="evenodd" d="M80.0764 68.9947L73.425 65.903C72.8583 65.6331 72.8583 65.216 73.425 64.9706L75.6914 63.9155L80.0764 65.9521C80.6431 66.222 81.5546 66.222 82.0965 65.9521L86.4816 63.9155L88.748 64.9706C89.3146 65.2405 89.3146 65.6576 88.748 65.903L82.0965 68.9947C81.5299 69.2646 80.6184 69.2646 80.0764 68.9947Z" fill="#95C038"/>
<path fill-rule="evenodd" clip-rule="evenodd" d="M80.0764 65.213L73.425 62.1658C72.8583 61.8997 72.8583 61.4886 73.425 61.2467L80.0764 58.1995C80.6431 57.9335 81.5546 57.9335 82.0965 58.1995L88.748 61.2467C89.3146 61.5128 89.3146 61.9239 88.748 62.1658L82.0965 65.213C81.5299 65.4548 80.6184 65.4548 80.0764 65.213Z" fill="#5DC0E8"/>
<path fill-rule="evenodd" clip-rule="evenodd" d="M94.1729 65.5C94.1729 61.9525 96.5799 60.5 99.0294 60.5C101.479 60.5 103.886 61.9525 103.886 65.5C103.886 69.0475 101.479 70.5 99.0294 70.5C96.5799 70.5 94.1729 69.0475 94.1729 65.5ZM101.762 65.5C101.762 62.1899 99.7798 61.8966 99.0294 61.8966C98.279 61.8966 96.2967 62.1899 96.2967 65.5C96.2967 68.8101 98.279 69.1034 99.0294 69.1034C99.7798 69.1034 101.762 68.8101 101.762 65.5ZM107.53 70.3883H105.519V60.6117H108.125L111.551 66.771L112.075 68.0978H112.118L112.075 66.3659V60.6117H114.086V70.3883H111.48L108.026 63.9916L107.53 62.9022H107.488L107.53 64.6341V70.3883ZM116.07 70.3883H122.016V68.7402H118.08V60.6117H116.07V70.3883ZM123.97 66.3939L120.317 60.6117H122.639L124.678 64.0475L124.99 64.7179H125.032L125.372 64.0475L127.425 60.6117H129.549L125.981 66.4218V70.3883H123.97V66.3939ZM134.233 60.5C131.784 60.5 129.377 61.9525 129.377 65.5C129.377 69.0475 131.784 70.5 134.233 70.5C136.683 70.5 139.09 69.0475 139.09 65.5C139.09 61.9525 136.683 60.5 134.233 60.5ZM134.233 61.8966C134.984 61.8966 136.966 62.1899 136.966 65.5C136.966 68.8101 134.984 69.1034 134.233 69.1034C133.483 69.1034 131.501 68.8101 131.501 65.5C131.501 62.1899 133.483 61.8966 134.233 61.8966ZM142.734 70.3883H140.723V60.6117H146.274V62.2598H142.734V64.6341H146.104V66.2402H142.734V70.3883ZM147.692 70.3883H149.703V66.2402H153.073V64.6341H149.703V62.2598H153.243V60.6117H147.692V70.3883ZM156.672 70.3883H154.661V60.6117H156.672V70.3883ZM165.893 68.419C165.397 68.6425 164.703 68.852 163.825 68.852C162.041 68.852 160.427 67.8883 160.427 65.5279C160.427 63.5307 161.744 62.148 163.967 62.148C164.717 62.148 165.355 62.2877 165.935 62.5112L166.02 60.8352C165.27 60.5978 164.604 60.5 163.825 60.5C160.71 60.5 158.303 62.1899 158.303 65.5559C158.303 69.1173 160.994 70.5 163.457 70.5C164.25 70.5 165.142 70.3743 166.02 70.081L165.893 68.419ZM173.494 70.3883H167.576V60.6117H173.494V62.3436H169.586V64.5503H173.14V66.1564H169.586V68.6564H173.494V70.3883Z" fill="#333333"/>
</g>
<rect width="154" height="37" transform="translate(50 95)" fill="#F8F9F9"/>
<rect x="66" y="95" width="122" height="25" rx="3" fill="#FF6F3D"/>
<rect width="154" height="32" transform="translate(50 132)" fill="#F8F9F9"/>
<path fill-rule="evenodd" clip-rule="evenodd" d="M81 140C79.8954 140 79 140.895 79 142V154C79 155.105 79.8954 156 81 156H91C92.1046 156 93 155.105 93 154V144.111C93 143.852 92.8996 143.603 92.7198 143.417L89.7198 140.306C89.5314 140.11 89.2715 140 89 140H81ZM81 142L88.5751 142L91 144.515V154H81V142ZM82 146H88V144H82V146ZM82 149H90V147H82V149ZM82 152H90V150H82V152Z" fill="#657077"/>
<rect x="102" y="145.5" width="74" height="5" rx="2.5" fill="#DFE2E3"/>
<rect width="154" height="32" transform="translate(50 164)" fill="#F8F9F9"/>
<rect x="66" y="168" width="122" height="24" rx="3" fill="#DFE2E3"/>
<path fill-rule="evenodd" clip-rule="evenodd" d="M78 176C78 174.343 79.3431 173 81 173H90C91.6569 173 93 174.343 93 176V185C93 186.657 91.6569 188 90 188H81C79.3431 188 78 186.657 78 185V176ZM81 175C80.4477 175 80 175.448 80 176V185C80 185.552 80.4477 186 81 186H90C90.5523 186 91 185.552 91 185V176C91 175.448 90.5523 175 90 175H81ZM82 178C82 177.448 82.4477 177 83 177H84C84.5523 177 85 177.448 85 178V179C85 179.552 84.5523 180 84 180H83C82.4477 180 82 179.552 82 179V178ZM83 181C82.4477 181 82 181.448 82 182V183C82 183.552 82.4477 184 83 184H84C84.5523 184 85 183.552 85 183V182C85 181.448 84.5523 181 84 181H83ZM86 178C86 177.448 86.4477 177 87 177H88C88.5523 177 89 177.448 89 178V179C89 179.552 88.5523 180 88 180H87C86.4477 180 86 179.552 86 179V178ZM87 181C86.4477 181 86 181.448 86 182V183C86 183.552 86.4477 184 87 184H88C88.5523 184 89 183.552 89 183V182C89 181.448 88.5523 181 88 181H87Z" fill="#657077"/>
<rect x="102" y="177.5" width="64" height="5" rx="2.5" fill="white"/>
<rect width="154" height="32" transform="translate(50 196)" fill="#F8F9F9"/>
<path fill-rule="evenodd" clip-rule="evenodd" d="M79 209C78.4477 209 78 208.552 78 208V206C78 205.448 78.4477 205 79 205H93C93.5523 205 94 205.448 94 206V208C94 208.552 93.5523 209 93 209V218C93 218.552 92.5523 219 92 219H80C79.4477 219 79 218.552 79 218V209ZM81 210V217H91V210H81ZM83 213C83 212.448 83.4477 212 84 212H88C88.5523 212 89 212.448 89 213C89 213.552 88.5523 214 88 214H84C83.4477 214 83 213.552 83 213ZM81.5 207C81.2239 207 81 207.224 81 207.5C81 207.776 81.2239 208 81.5 208H90.5C90.7761 208 91 207.776 91 207.5C91 207.224 90.7761 207 90.5 207H81.5Z" fill="#657077"/>
<rect x="102" y="209.5" width="50" height="5" rx="2.5" fill="#DFE2E3"/>
<rect width="154" height="8" transform="translate(50 228)" fill="#F8F9F9"/>
<rect x="50" y="236" width="154" height="32" rx="3" fill="#F8F9F9"/>
<path fill-rule="evenodd" clip-rule="evenodd" d="M86.0005 247C85.4482 247 85.0005 247.448 85.0005 248V248.5C85.0005 249.14 85.1942 249.69 85.4475 250.056C85.719 250.448 85.9516 250.5 86 250.5C86.0486 250.5 86.2815 250.448 86.5532 250.055C86.8067 249.689 87.0004 249.14 87.0005 248.5V248.5V248.5L87.0004 248C87.0003 247.448 86.5526 247 86.0005 247ZM83.0005 248C83.0005 246.343 84.3437 245 86.0005 245C87.6571 245 89 246.343 89.0004 247.999L89.0005 248.5V248.5C89.0005 249.527 88.694 250.477 88.1973 251.194C87.7188 251.885 86.9514 252.5 86 252.5C85.0484 252.5 84.2812 251.885 83.803 251.194C83.3066 250.477 83.0005 249.526 83.0005 248.5V248ZM83.9102 255.075C83.8518 255.137 83.7708 255.244 83.6784 255.425C83.5266 255.723 83.3943 256.119 83.2877 256.575C83.0744 257.487 83 258.476 83 259H81C81 258.349 81.0867 257.204 81.3403 256.119C81.4671 255.577 81.6447 255.01 81.8973 254.516C82.1412 254.038 82.514 253.512 83.0921 253.218C83.8407 252.837 84.5765 253.17 84.8695 253.316L85.5528 253.658C85.8343 253.799 86.1657 253.799 86.4472 253.658L87.1305 253.316C87.4235 253.17 88.1593 252.837 88.9079 253.218C89.486 253.512 89.8588 254.038 90.1027 254.516C90.3553 255.01 90.5329 255.577 90.6597 256.119C90.9133 257.204 91 258.349 91 259H89C89 258.476 88.9256 257.487 88.7123 256.575C88.6057 256.119 88.4734 255.723 88.3216 255.425C88.2292 255.244 88.1482 255.137 88.0898 255.075C88.0703 255.083 88.0488 255.093 88.0249 255.105L87.3416 255.447C86.4971 255.869 85.5029 255.869 84.6584 255.447L83.9751 255.105C83.9512 255.093 83.9297 255.083 83.9102 255.075ZM82.0005 248C82.0005 247.656 82.0439 247.322 82.1256 247.004C82.084 247.001 82.0421 247 81.9999 247C80.8954 247 80 247.895 79.9999 248.999L79.9998 249.599V249.6C79.9998 250.561 80.3504 251.257 80.7317 251.715C80.9175 251.938 81.1052 252.098 81.2524 252.206C81.3264 252.26 81.3913 252.302 81.4426 252.333C81.4682 252.348 81.4906 252.361 81.5091 252.371L81.534 252.384L81.5442 252.39L81.5487 252.392L81.5508 252.393L81.5518 252.394C81.5523 252.394 81.5528 252.394 82 251.5L81.5528 252.394C81.8344 252.535 82.1658 252.535 82.4473 252.394L82 251.5C82.4473 252.394 82.4478 252.394 82.4483 252.394L82.4493 252.393L82.4514 252.392L82.4559 252.39L82.4661 252.384L82.491 252.371C82.5095 252.361 82.5319 252.348 82.5575 252.333C82.6088 252.302 82.6737 252.26 82.7477 252.206C82.8471 252.133 82.9651 252.036 83.0884 251.912C83.051 251.862 83.0151 251.813 82.9808 251.763C82.3628 250.87 82.0005 249.719 82.0005 248.5V248ZM89.0194 251.764C88.9851 251.813 88.9492 251.863 88.9118 251.913C89.0351 252.036 89.153 252.133 89.2524 252.206C89.3264 252.26 89.3913 252.302 89.4426 252.333C89.4682 252.348 89.4906 252.361 89.5091 252.371L89.534 252.384L89.5442 252.39L89.5487 252.392L89.5508 252.393L89.5518 252.394C89.5523 252.394 89.5528 252.394 90 251.5L89.5528 252.394C89.8344 252.535 90.1658 252.535 90.4473 252.394L90 251.5C90.4473 252.394 90.4478 252.394 90.4483 252.394L90.4493 252.393L90.4514 252.392L90.4559 252.39L90.4661 252.384L90.491 252.371C90.5095 252.361 90.5319 252.348 90.5575 252.333C90.6088 252.302 90.6737 252.26 90.7477 252.206C90.8949 252.098 91.0825 251.938 91.2683 251.715C91.6495 251.257 92 250.561 92 249.6V249C92 247.895 91.1045 247 89.9999 247C89.9581 247 89.9165 247.001 89.8753 247.003C89.9569 247.322 90.0003 247.655 90.0004 247.999L90.0005 248.5V248.5C90.0005 249.72 89.6377 250.871 89.0194 251.764ZM91.6286 255.946C91.7137 256.299 91.7815 256.655 91.8347 257H93.5C93.5 256.484 93.433 255.735 93.2243 255.039C93.0365 254.413 92.6307 253.482 91.7089 253.129C91.1679 252.922 90.6681 253.072 90.3727 253.2C90.638 253.516 90.8388 253.849 90.9913 254.149C91.2886 254.735 91.4894 255.369 91.6286 255.946ZM81.0087 254.149C81.1612 253.849 81.362 253.516 81.6273 253.2C81.3319 253.072 80.8321 252.922 80.2911 253.129C79.3693 253.482 78.9635 254.413 78.7757 255.039C78.567 255.735 78.5 256.484 78.5 257H80.1653C80.2185 256.655 80.2863 256.299 80.3714 255.946C80.5106 255.369 80.7114 254.735 81.0087 254.149ZM81.9999 249L82 249V249.6L81.9999 249.62L81.9998 249.6V249.6V249.6L81.9999 249L81.9999 249ZM89.9999 249L90 249V249.6L89.9999 249.62L89.9998 249.6V249.6V249.6L89.9999 249L89.9999 249Z" fill="#657077"/>
<rect x="102" y="249.5" width="54" height="5" rx="2.5" fill="#DFE2E3"/>
<rect x="50" y="268" width="154" height="32" rx="3" fill="#F8F9F9"/>
<g clip-path="url(#clip13_490_37757)">
<path fill-rule="evenodd" clip-rule="evenodd" d="M81.8437 277.946C81.4934 277.711 81.0295 277.717 80.7132 277.996C80.4592 278.22 80.2195 278.459 79.9957 278.713C79.717 279.029 79.7112 279.493 79.9457 279.844L80.6387 280.879C80.6853 280.948 80.7218 281.021 80.7489 281.095C80.5322 281.486 80.358 281.903 80.2322 282.341C80.1609 282.374 80.0839 282.4 80.0019 282.416L78.7798 282.658C78.3661 282.74 78.0421 283.072 78.0158 283.493C78.0053 283.661 78 283.83 78 284C78 284.17 78.0053 284.339 78.0158 284.507C78.0421 284.928 78.3661 285.26 78.7798 285.342L80.0019 285.584C80.0839 285.6 80.1609 285.626 80.2322 285.659C80.358 286.097 80.5322 286.514 80.7489 286.905C80.7218 286.979 80.6853 287.052 80.6387 287.121L79.9457 288.156C79.7112 288.507 79.717 288.971 79.9957 289.287C80.2195 289.541 80.4592 289.78 80.7132 290.004C81.0295 290.283 81.4934 290.289 81.8437 290.054L82.8787 289.361C82.9484 289.315 83.0209 289.278 83.095 289.251C83.4858 289.468 83.9033 289.642 84.3413 289.768C84.3744 289.839 84.3998 289.916 84.416 289.998L84.658 291.22C84.7399 291.634 85.0723 291.958 85.4932 291.984C85.6608 291.995 85.8298 292 86 292C86.1702 292 86.3392 291.995 86.5068 291.984C86.9277 291.958 87.2601 291.634 87.342 291.22L87.584 289.998C87.6002 289.916 87.6256 289.839 87.6587 289.768C88.0967 289.642 88.5142 289.468 88.905 289.251C88.9791 289.278 89.0516 289.315 89.1213 289.361L90.1563 290.054C90.5066 290.289 90.9705 290.283 91.2868 290.004C91.5408 289.78 91.7805 289.541 92.0043 289.287C92.283 288.971 92.2888 288.507 92.0543 288.156L91.3613 287.121C91.3147 287.052 91.2782 286.979 91.2511 286.905C91.4678 286.514 91.642 286.097 91.7678 285.659C91.8391 285.626 91.9161 285.6 91.9981 285.584L93.2202 285.342C93.6339 285.26 93.9579 284.928 93.9842 284.507C93.9947 284.339 94 284.17 94 284C94 283.83 93.9947 283.661 93.9842 283.493C93.9579 283.072 93.6339 282.74 93.2202 282.658L91.9981 282.416C91.9161 282.4 91.8391 282.374 91.7678 282.341C91.642 281.903 91.4678 281.486 91.2511 281.095C91.2782 281.021 91.3147 280.948 91.3613 280.879L92.0543 279.844C92.2888 279.493 92.283 279.029 92.0043 278.713C91.7805 278.459 91.5408 278.22 91.2868 277.996C90.9705 277.717 90.5066 277.711 90.1563 277.946L89.1213 278.639C89.0516 278.685 88.9791 278.722 88.905 278.749C88.5142 278.532 88.0967 278.358 87.6587 278.232C87.6256 278.161 87.6002 278.084 87.584 278.002L87.342 276.78C87.2601 276.366 86.9277 276.042 86.5068 276.016C86.3392 276.005 86.1702 276 86 276C85.8298 276 85.6608 276.005 85.4932 276.016C85.0723 276.042 84.7399 276.366 84.658 276.78L84.416 278.002C84.3998 278.084 84.3744 278.161 84.3413 278.232C83.9033 278.358 83.4858 278.532 83.095 278.749C83.0209 278.722 82.9484 278.685 82.8787 278.639L81.8437 277.946ZM90.5 284C90.5 286.485 88.4853 288.5 86 288.5C83.5147 288.5 81.5 286.485 81.5 284C81.5 281.515 83.5147 279.5 86 279.5C88.4853 279.5 90.5 281.515 90.5 284ZM86 286C87.1046 286 88 285.105 88 284C88 282.895 87.1046 282 86 282C84.8954 282 84 282.895 84 284C84 285.105 84.8954 286 86 286Z" fill="#657077"/>
</g>
<rect x="102" y="281.5" width="74" height="5" rx="2.5" fill="#DFE2E3"/>
<rect x="50" y="300" width="154" height="32" rx="3" fill="#F8F9F9"/>
<g clip-path="url(#clip14_490_37757)">
<path fill-rule="evenodd" clip-rule="evenodd" d="M85.4999 308H86.4999C87.3284 308 87.9999 308.672 87.9999 309.5V310H88.001H91.001C92.1058 310 93.001 310.896 93.001 312H91.001V312H88.001H86.4999H85.4999H84.001H81.001V312H79.001C79.001 310.896 79.8961 310 81.001 310H83.9999V309.5C83.9999 308.672 84.6715 308 85.4999 308ZM81.001 313V321C81.001 322.657 82.3441 324 84.001 324H88.001C89.6578 324 91.001 322.657 91.001 321V313H89.001V321C89.001 321.553 88.5533 322 88.001 322H84.001C83.4487 322 83.001 321.553 83.001 321V313H81.001ZM85.001 314V322H87.001V314H85.001Z" fill="#657077"/>
</g>
<rect x="102" y="313.5" width="54" height="5" rx="2.5" fill="#DFE2E3"/>
<rect width="154" height="56" transform="translate(50 368)" fill="#F3F4F4"/>
<rect x="50" y="368" width="154" height="1" fill="#ECEEF1"/>
<rect x="66" y="380.5" width="32" height="32" rx="16" fill="#DFE2E3"/>
<rect x="110" y="394" width="50" height="5" rx="2.5" fill="#DFE2E3"/>
<g clip-path="url(#clip15_490_37757)">
<path fill-rule="evenodd" clip-rule="evenodd" d="M178 390.5C178 389.395 178.895 388.5 180 388.5C181.105 388.5 182 389.395 182 390.5C182 391.605 181.105 392.5 180 392.5C178.895 392.5 178 391.605 178 390.5ZM178 396.5C178 395.395 178.895 394.5 180 394.5C181.105 394.5 182 395.395 182 396.5C182 397.605 181.105 398.5 180 398.5C178.895 398.5 178 397.605 178 396.5ZM180 400.5C178.895 400.5 178 401.395 178 402.5C178 403.605 178.895 404.5 180 404.5C181.105 404.5 182 403.605 182 402.5C182 401.395 181.105 400.5 180 400.5Z" fill="#657077"/>
</g>
<rect x="204" y="36" width="1" height="388" fill="#ECEEF1"/>
</g>
<rect x="50.5" y="36.5" width="539" height="387" rx="4.5" stroke="#E2E2E2"/>
</g>
<path d="M433.866 0.859695C432.463 0.575509 431.093 1.46787 430.823 2.87107L429.904 7.63762C429.098 11.8158 425.322 14.7949 420.94 15.4289C420.77 15.4535 420.6 15.4789 420.43 15.5053C416.409 16.1276 412.302 14.3168 410.714 10.7364L409.396 7.76586C408.817 6.46101 407.283 5.88568 405.976 6.46511L392.466 12.4537C391.158 13.0332 390.555 14.556 391.134 15.861L393.116 20.3289C394.715 23.9326 393.63 28.133 390.86 31.0831C390.752 31.1982 390.644 31.3139 390.537 31.43C387.188 35.0625 381.75 36.3923 377.564 33.9149L376.097 33.0463C374.865 32.3173 373.281 32.7197 372.564 33.9566L365.103 46.8307C364.388 48.0644 364.813 49.6498 366.042 50.3771L374.515 55.3923C376.389 56.5016 377.353 58.623 377.106 60.7896C376.821 63.2943 374.982 65.4168 372.497 65.8188L364.335 67.1388C362.922 67.3674 361.951 68.6842 362.186 70.0929L364.586 84.4645C364.82 85.8711 366.165 86.8103 367.576 86.582L376.155 85.1944C378.301 84.8474 380.402 86.1022 381.284 88.0988C382.138 90.0315 381.675 92.2789 380.049 93.599L373.36 99.0275C372.252 99.9275 372.074 101.558 372.968 102.67L382.084 114.007C382.979 115.121 384.607 115.289 385.717 114.388L390.198 110.751C393.028 108.454 397.153 108.561 400.254 110.628C403.508 112.798 405.12 116.772 403.751 120.297L402.47 123.599C401.954 124.928 402.623 126.427 403.95 126.957L417.358 132.313C418.687 132.844 420.193 132.207 420.71 130.875L422.821 125.434C424.239 121.783 427.973 119.533 432.031 119.296C433.663 119.2 435.306 119.026 436.954 118.771C438.075 118.597 439.157 119.212 439.52 120.226L442.6 128.854C443.08 130.198 444.567 130.885 445.915 130.407L459.43 125.609C460.778 125.13 461.497 123.658 461.016 122.314L459.36 117.675C457.996 113.853 459.52 109.621 462.681 106.885L462.81 106.772C466.281 103.747 471.336 102.889 475.169 105.293L478.976 107.68C480.188 108.441 481.782 108.078 482.53 106.86L490.092 94.5593C490.839 93.3444 490.455 91.7484 489.246 90.9898L483.879 87.624C480.422 85.4559 478.96 81.239 479.718 77.2037C479.772 76.9142 479.824 76.6239 479.874 76.3329C480.568 72.2558 483.445 68.7609 487.489 67.91L491.434 67.0798C492.834 66.7851 493.743 65.4238 493.443 64.0276L490.289 49.3515C489.989 47.957 488.603 47.0811 487.204 47.3755L484.258 47.9954C480.36 48.8157 476.438 46.569 474.575 43.0161C472.877 39.7782 473.131 35.87 475.564 33.2053L479.566 28.8232C480.529 27.7694 480.458 26.1304 479.411 25.1605L468.436 14.9964C467.387 14.0246 465.753 14.0911 464.789 15.1469L460.554 19.7833C458.568 21.9584 455.231 22.3375 452.552 20.9202C450.028 19.5841 448.53 16.8854 449.05 14.1846L450.467 6.83878C450.736 5.43935 449.806 4.08686 448.405 3.80336L433.866 0.859695ZM433.085 94.5658C418.055 96.8918 403.898 86.5009 401.473 71.3479C399.048 56.1969 409.272 42.0362 424.299 39.7105C439.329 37.3845 453.486 47.7754 455.911 62.9284C458.336 78.0794 448.112 92.2401 433.085 94.5658Z" fill="url(#paint1_linear_490_37757)" stroke="#333333"/>
<g style="mix-blend-mode:multiply">
<path d="M255.061 145.592C269.272 156.784 326.345 166.47 352.756 166.47L258.057 261.169C258.057 216.437 245.633 172.904 239 162.8L251.061 162.8C253.27 162.8 255.061 161.009 255.061 158.8L255.061 145.592Z" fill="#E2E2E2"/>
</g>
<g filter="url(#filter11_d_490_37757)">
<rect x="258" y="166" width="114" height="114" rx="16" fill="white"/>
<rect x="295.5" y="191.5" width="39" height="59" rx="1.5" fill="#EFF6FD" stroke="#4781D1"/>
<rect x="274.5" y="249.504" width="81" height="5" rx="1.5" fill="#9ADAF3" stroke="#4781D1"/>
<rect x="303.5" y="198.5" width="9" height="5" stroke="#4781D1"/>
<rect x="317.5" y="198.5" width="9" height="5" stroke="#4781D1"/>
<rect x="303.5" y="207.5" width="9" height="5" stroke="#4781D1"/>
<rect x="317.5" y="207.5" width="9" height="5" stroke="#4781D1"/>
<rect x="303.5" y="216.5" width="9" height="5" stroke="#4781D1"/>
<rect x="317.5" y="216.5" width="9" height="5" stroke="#4781D1"/>
<rect x="303.5" y="225.5" width="9" height="5" stroke="#4781D1"/>
<rect x="317.5" y="225.5" width="9" height="5" stroke="#4781D1"/>
<rect x="310.5" y="238.5" width="9" height="11" fill="#9ADAF3" stroke="#4781D1"/>
<rect x="307.5" y="235.5" width="15" height="3" fill="#9ADAF3" stroke="#4781D1"/>
</g>
<g style="mix-blend-mode:multiply">
<path d="M251.956 350.961C220.126 371.136 200.043 418.606 197.374 438.83L141.966 338.668C158.591 340.166 214.424 341.853 237.509 331.31C236.243 331.909 235.657 332.489 234.998 334.3L234.998 346.961C234.998 349.17 236.789 350.961 238.998 350.961L251.956 350.961Z" fill="#E2E2E2"/>
</g>
<g filter="url(#filter12_d_490_37757)">
<rect width="113" height="113" rx="16" transform="matrix(-1 0 0 1 198 333)" fill="white"/>
<rect x="106.5" y="418.504" width="72" height="4" rx="1.5" fill="#D0E59D" stroke="#8BB825"/>
<rect x="110.5" y="414.504" width="64" height="4" rx="1.5" fill="#F2FCDA" stroke="#8BB825"/>
<path d="M141.379 353.737L141.586 354.19L141.379 353.737L109.379 368.282C108.844 368.525 108.5 369.059 108.5 369.648V370.004C108.5 370.832 109.172 371.504 110 371.504H174C174.828 371.504 175.5 370.832 175.5 370.004V369.648C175.5 369.059 175.156 368.525 174.621 368.282L142.621 353.737C142.226 353.557 141.774 353.557 141.379 353.737Z" fill="#D0E59D" stroke="#8BB825"/>
<mask id="path-121-outside-1_490_37757" maskUnits="userSpaceOnUse" x="154" y="371.004" width="17" height="44" fill="black">
<rect fill="white" x="154" y="371.004" width="17" height="44"/>
<path fill-rule="evenodd" clip-rule="evenodd" d="M155 373.004C155 372.451 155.448 372.004 156 372.004H169C169.552 372.004 170 372.451 170 373.004V374.004C170 374.556 169.552 375.004 169 375.004H156C155.448 375.004 155 374.556 155 374.004V373.004ZM155 412.004C155 411.451 155.448 411.004 156 411.004H169C169.552 411.004 170 411.451 170 412.004V413.004C170 413.556 169.552 414.004 169 414.004H156C155.448 414.004 155 413.556 155 413.004V412.004ZM166 376.004H159V410.004H166V376.004Z"/>
</mask>
<path fill-rule="evenodd" clip-rule="evenodd" d="M155 373.004C155 372.451 155.448 372.004 156 372.004H169C169.552 372.004 170 372.451 170 373.004V374.004C170 374.556 169.552 375.004 169 375.004H156C155.448 375.004 155 374.556 155 374.004V373.004ZM155 412.004C155 411.451 155.448 411.004 156 411.004H169C169.552 411.004 170 411.451 170 412.004V413.004C170 413.556 169.552 414.004 169 414.004H156C155.448 414.004 155 413.556 155 413.004V412.004ZM166 376.004H159V410.004H166V376.004Z" fill="#F2FCDA"/>
<path d="M159 376.004H158V375.004H159V376.004ZM166 376.004V375.004H167V376.004H166ZM159 410.004V411.004H158V410.004H159ZM166 410.004H167V411.004H166V410.004ZM156 373.004V373.004H154C154 371.899 154.895 371.004 156 371.004V373.004ZM169 373.004H156V371.004H169V373.004ZM169 373.004H169V371.004C170.105 371.004 171 371.899 171 373.004H169ZM169 374.004V373.004H171V374.004H169ZM169 374.004H171C171 375.108 170.105 376.004 169 376.004V374.004ZM156 374.004H169V376.004H156V374.004ZM156 374.004V376.004C154.895 376.004 154 375.108 154 374.004H156ZM156 373.004V374.004H154V373.004H156ZM156 412.004H154C154 410.899 154.895 410.004 156 410.004V412.004ZM169 412.004H156V410.004H169V412.004ZM169 412.004H169V410.004C170.105 410.004 171 410.899 171 412.004H169ZM169 413.004V412.004H171V413.004H169ZM169 413.004H171C171 414.108 170.105 415.004 169 415.004V413.004ZM156 413.004H169V415.004H156V413.004ZM156 413.004V415.004C154.895 415.004 154 414.108 154 413.004H156ZM156 412.004V413.004H154V412.004H156ZM159 375.004H166V377.004H159V375.004ZM158 410.004V376.004H160V410.004H158ZM166 411.004H159V409.004H166V411.004ZM167 376.004V410.004H165V376.004H167Z" fill="#8BB825" mask="url(#path-121-outside-1_490_37757)"/>
<mask id="path-123-outside-2_490_37757" maskUnits="userSpaceOnUse" x="134" y="371.004" width="17" height="44" fill="black">
<rect fill="white" x="134" y="371.004" width="17" height="44"/>
<path fill-rule="evenodd" clip-rule="evenodd" d="M135 373.004C135 372.451 135.448 372.004 136 372.004H149C149.552 372.004 150 372.451 150 373.004V374.004C150 374.556 149.552 375.004 149 375.004H136C135.448 375.004 135 374.556 135 374.004V373.004ZM135 412.004C135 411.451 135.448 411.004 136 411.004H149C149.552 411.004 150 411.451 150 412.004V413.004C150 413.556 149.552 414.004 149 414.004H136C135.448 414.004 135 413.556 135 413.004V412.004ZM146 376.004H139V410.004H146V376.004Z"/>
</mask>
<path fill-rule="evenodd" clip-rule="evenodd" d="M135 373.004C135 372.451 135.448 372.004 136 372.004H149C149.552 372.004 150 372.451 150 373.004V374.004C150 374.556 149.552 375.004 149 375.004H136C135.448 375.004 135 374.556 135 374.004V373.004ZM135 412.004C135 411.451 135.448 411.004 136 411.004H149C149.552 411.004 150 411.451 150 412.004V413.004C150 413.556 149.552 414.004 149 414.004H136C135.448 414.004 135 413.556 135 413.004V412.004ZM146 376.004H139V410.004H146V376.004Z" fill="#F2FCDA"/>
<path d="M139 376.004H138V375.004H139V376.004ZM146 376.004V375.004H147V376.004H146ZM139 410.004V411.004H138V410.004H139ZM146 410.004H147V411.004H146V410.004ZM136 373.004V373.004H134C134 371.899 134.895 371.004 136 371.004V373.004ZM149 373.004H136V371.004H149V373.004ZM149 373.004H149V371.004C150.105 371.004 151 371.899 151 373.004H149ZM149 374.004V373.004H151V374.004H149ZM149 374.004H151C151 375.108 150.105 376.004 149 376.004V374.004ZM136 374.004H149V376.004H136V374.004ZM136 374.004V376.004C134.895 376.004 134 375.108 134 374.004H136ZM136 373.004V374.004H134V373.004H136ZM136 412.004H134C134 410.899 134.895 410.004 136 410.004V412.004ZM149 412.004H136V410.004H149V412.004ZM149 412.004H149V410.004C150.105 410.004 151 410.899 151 412.004H149ZM149 413.004V412.004H151V413.004H149ZM149 413.004H151C151 414.108 150.105 415.004 149 415.004V413.004ZM136 413.004H149V415.004H136V413.004ZM136 413.004V415.004C134.895 415.004 134 414.108 134 413.004H136ZM136 412.004V413.004H134V412.004H136ZM139 375.004H146V377.004H139V375.004ZM138 410.004V376.004H140V410.004H138ZM146 411.004H139V409.004H146V411.004ZM147 376.004V410.004H145V376.004H147Z" fill="#8BB825" mask="url(#path-123-outside-2_490_37757)"/>
<mask id="path-125-outside-3_490_37757" maskUnits="userSpaceOnUse" x="114" y="371.004" width="17" height="44" fill="black">
<rect fill="white" x="114" y="371.004" width="17" height="44"/>
<path fill-rule="evenodd" clip-rule="evenodd" d="M115 373.004C115 372.451 115.448 372.004 116 372.004H129C129.552 372.004 130 372.451 130 373.004V374.004C130 374.556 129.552 375.004 129 375.004H116C115.448 375.004 115 374.556 115 374.004V373.004ZM115 412.004C115 411.451 115.448 411.004 116 411.004H129C129.552 411.004 130 411.451 130 412.004V413.004C130 413.556 129.552 414.004 129 414.004H116C115.448 414.004 115 413.556 115 413.004V412.004ZM126 376.004H119V410.004H126V376.004Z"/>
</mask>
<path fill-rule="evenodd" clip-rule="evenodd" d="M115 373.004C115 372.451 115.448 372.004 116 372.004H129C129.552 372.004 130 372.451 130 373.004V374.004C130 374.556 129.552 375.004 129 375.004H116C115.448 375.004 115 374.556 115 374.004V373.004ZM115 412.004C115 411.451 115.448 411.004 116 411.004H129C129.552 411.004 130 411.451 130 412.004V413.004C130 413.556 129.552 414.004 129 414.004H116C115.448 414.004 115 413.556 115 413.004V412.004ZM126 376.004H119V410.004H126V376.004Z" fill="#F2FCDA"/>
<path d="M119 376.004H118V375.004H119V376.004ZM126 376.004V375.004H127V376.004H126ZM119 410.004V411.004H118V410.004H119ZM126 410.004H127V411.004H126V410.004ZM116 373.004V373.004H114C114 371.899 114.895 371.004 116 371.004V373.004ZM129 373.004H116V371.004H129V373.004ZM129 373.004H129V371.004C130.105 371.004 131 371.899 131 373.004H129ZM129 374.004V373.004H131V374.004H129ZM129 374.004H131C131 375.108 130.105 376.004 129 376.004V374.004ZM116 374.004H129V376.004H116V374.004ZM116 374.004V376.004C114.895 376.004 114 375.108 114 374.004H116ZM116 373.004V374.004H114V373.004H116ZM116 412.004H114C114 410.899 114.895 410.004 116 410.004V412.004ZM129 412.004H116V410.004H129V412.004ZM129 412.004H129V410.004C130.105 410.004 131 410.899 131 412.004H129ZM129 413.004V412.004H131V413.004H129ZM129 413.004H131C131 414.108 130.105 415.004 129 415.004V413.004ZM116 413.004H129V415.004H116V413.004ZM116 413.004V415.004C114.895 415.004 114 414.108 114 413.004H116ZM116 412.004V413.004H114V412.004H116ZM119 375.004H126V377.004H119V375.004ZM118 410.004V376.004H120V410.004H118ZM126 411.004H119V409.004H126V411.004ZM127 376.004V410.004H125V376.004H127Z" fill="#8BB825" mask="url(#path-125-outside-3_490_37757)"/>
<circle cx="142" cy="363.113" r="3" fill="white" stroke="#8BB825"/>
</g>
<ellipse cx="579.098" cy="489.194" rx="60.9024" ry="8.82336" fill="#E2E2E2"/>
<path fill-rule="evenodd" clip-rule="evenodd" d="M569.057 223.541C568.748 224.1 567.449 224.691 567.201 224.909C567.078 225.002 567.016 225.064 566.954 225.033C566.923 225.033 566.861 224.971 566.738 224.878C566.521 224.66 565.717 224.038 565.47 223.478C565.191 222.825 564.542 221.924 564.325 221.022C564.14 220.276 564.449 218.41 564.263 217.508C565.222 216.762 567.078 215.86 568.222 214.461C568.964 215.674 570.634 217.633 571.284 218.441C571.005 219.374 570.263 220.338 569.923 221.177C569.614 222.079 569.428 222.857 569.057 223.541ZM562.593 274.224L573.665 273.944C573.294 274.722 571.222 276.96 570.603 277.893C570.078 278.67 568.562 280.163 567.944 280.754C566.985 279.883 565.222 278.235 564.202 276.867C563.923 276.525 562.841 274.566 562.593 274.224ZM570.387 230.101C570.201 227.956 570.047 225.997 569.923 224.256C569.737 224.473 569.552 224.66 569.366 224.815C568.871 225.251 568.315 225.437 567.758 225.437C567.201 225.406 566.676 225.189 566.181 224.691C566.026 224.567 564.449 223.789 564.325 223.603C561.975 230.941 560.274 244.218 559.965 247.576L571.748 247.141C571.407 241.42 570.758 234.517 570.387 230.101Z" fill="url(#paint2_linear_490_37757)"/>
<path fill-rule="evenodd" clip-rule="evenodd" d="M578.149 211.849C577.686 214.43 576.758 218.037 575.18 218.908C574.098 219.498 572.428 218.566 569.892 214.306C572.428 214.181 575.15 213.435 577.562 212.16C577.778 212.067 577.964 211.974 578.149 211.849ZM566.243 214.026C565.037 215.487 563.923 216.482 562.995 217.135C561.573 218.099 560.614 218.255 560.057 218.068C559.593 217.913 559.377 217.104 559.284 216.109C559.13 214.368 559.47 212.191 559.717 210.979C560.212 210.916 560.738 210.854 561.263 210.792L561.542 211.165C562.655 212.658 564.294 213.591 566.243 214.026Z" fill="#CCCCCC" stroke="#CCCCCC" stroke-width="0.216" stroke-miterlimit="22.9256"/>
<path fill-rule="evenodd" clip-rule="evenodd" d="M602.427 224.194C603.324 226.681 604.406 229.48 605.55 232.465C611.427 247.732 619.282 268.099 616.437 278.733C616.406 278.795 616.035 279.324 614.024 279.572C612.725 279.759 610.839 279.728 608.148 279.261C605.272 278.764 601.406 277.551 596.427 275.623C591.602 273.758 585.788 271.239 578.768 268.036C579.572 267.446 580.314 266.699 580.964 265.891C581.428 265.3 581.861 264.647 582.263 263.963C585.232 264.865 589.623 265.891 593.891 266.699C597.726 267.415 601.499 267.943 604.097 268.068C605.705 268.13 605.922 266.109 604.128 266.015C603.911 266.015 603.695 265.984 603.478 265.984C602.674 264.958 600.633 261.538 598.623 257.869C596.705 254.355 594.85 250.655 594.108 248.603C594.169 245.4 594.324 242.135 594.571 238.839C594.695 237.253 592.685 236.911 592.53 238.652C592.19 243.099 592.005 247.483 592.005 251.836C592.005 256.065 592.159 260.232 592.438 264.336C588.974 263.652 585.603 262.844 583.129 262.097C583.345 261.6 583.531 261.102 583.685 260.605C584.273 258.739 584.551 256.874 584.489 255.288C584.427 253.422 583.933 251.93 582.974 251.152C582.757 250.966 582.51 250.841 582.294 250.748L582.572 249.349C582.603 249.193 582.634 249.007 582.634 248.851C582.634 248.354 582.448 247.887 582.139 247.483C581.83 247.11 581.428 246.83 580.964 246.706C580.809 246.675 580.624 246.644 580.469 246.644L572.799 246.675C572.428 240.767 571.995 235.512 571.655 231.128C571.345 227.365 571.098 224.256 570.974 222.017C571.036 221.893 571.067 221.737 571.129 221.582C571.345 221.022 571.531 220.431 571.717 219.841C573.449 221.302 574.933 221.395 576.17 220.711C578.861 219.219 579.943 213.684 580.407 210.917C583.531 211.632 587.675 213.528 591.695 215.892C595.963 218.41 600.045 221.457 602.427 224.194ZM563.768 222.732C563.645 222.297 563.521 221.831 563.397 221.333C563.243 220.742 563.119 220.151 562.995 219.53C561.48 220.276 560.243 220.307 559.408 219.996C558.016 219.499 557.428 218.037 557.274 216.327C557.119 214.679 557.336 212.72 557.583 211.352C554.49 211.912 551.985 212.658 549.882 213.528C546.882 214.772 544.718 216.234 542.986 217.633C541.78 218.597 538.192 222.857 534.388 227.396C529.749 232.931 524.739 238.87 522.852 240.207L522.141 240.705L521.553 240.052C515.987 234.144 512.616 225.5 509.709 218.068C508.997 216.234 508.317 214.492 507.667 212.938C506.647 213 505.286 213.217 503.987 213.528C503.059 213.746 502.193 213.995 501.544 214.275C505.874 231.718 509.987 241.14 513.141 246.177C516.172 251.028 518.121 251.65 518.554 251.743C522.698 252.552 527.924 250.655 532.934 247.545C538.687 244.001 544.099 238.87 547.315 234.393C548.522 232.714 550.192 233.833 549.078 235.45C547.903 237.098 546.48 238.839 544.81 240.549L544.748 241.824L544.687 243.379C544.47 249.598 544.532 262.16 545.181 274.069C545.614 282.153 546.326 289.896 547.408 295.057C554.521 299.099 562.562 300.872 570.51 301.245C580.531 301.68 590.427 299.846 598.252 297.358C597.324 293.969 596.52 290.611 595.809 287.284C595.066 283.77 594.417 280.287 593.891 276.805C589.407 275.001 584.118 272.701 577.902 269.871L577.129 272.856C576.974 273.447 576.665 273.944 576.201 274.317C575.768 274.691 575.18 274.908 574.593 274.908H573.325C572.923 275.903 572.211 277.365 571.284 278.733C570.48 279.945 569.521 281.096 568.5 281.842L567.913 282.278L567.325 281.873C565.995 281.003 564.48 278.982 563.15 277.178C562.5 276.307 561.882 275.499 561.387 274.939L557.367 274.97C556.717 274.97 556.068 274.722 555.604 274.286C555.14 273.851 554.8 273.26 554.738 272.607L552.047 249.193L552.016 248.914C552.016 248.354 552.202 247.856 552.542 247.483C552.882 247.079 553.346 246.83 553.903 246.768C553.996 246.768 554.088 246.737 554.181 246.737L559.284 246.706C559.562 243.286 560.769 230.381 563.768 222.732Z" fill="#EFEFEF" stroke="#EFEFEF" stroke-width="0.216" stroke-miterlimit="22.9256"/>
<path fill-rule="evenodd" clip-rule="evenodd" d="M595.715 300.25C600.447 315.797 605.704 343.844 610.343 375.591C615.137 408.489 619.219 445.335 621.229 476.305C619.992 476.989 618.23 477.393 616.436 477.424C614.673 477.455 612.941 477.175 611.859 476.46C610.034 471.485 602.395 445.553 594.107 416.293C587.086 391.604 579.633 364.584 574.778 345.772C574.932 337.998 574.932 330.225 574.654 323.011C576.355 322.669 577.963 322.078 579.478 321.301C581.087 320.492 582.602 319.435 583.932 318.316C585.478 317.01 583.901 315.673 582.695 316.699C581.458 317.756 580.066 318.72 578.551 319.466C576.942 320.275 575.242 320.865 573.448 321.145L572.52 321.27L572.551 322.202C573.479 343.782 571.747 371.051 570.757 386.94C570.541 390.578 570.324 393.594 570.231 395.895C570.231 396.051 570.231 396.642 570.231 397.637C570.355 406.219 570.85 445.522 564.819 477.455C563.397 478.202 561.974 478.419 560.675 478.326C558.912 478.202 557.366 477.549 556.345 476.896C556.222 467.661 555.912 454.383 555.046 440.236C554.15 425.777 552.696 410.354 550.222 397.264C550.036 396.206 546.294 374.783 546.109 345.834C546.016 331.375 546.758 315.02 549.294 298.353C555.943 301.494 563.211 302.955 570.386 303.266C579.386 303.67 588.262 302.302 595.715 300.25Z" fill="#404040" stroke="#404040" stroke-width="0.216" stroke-miterlimit="22.9256"/>
<path d="M553.482 247.128H553.48C553.449 247.128 553.437 247.128 553.424 247.129C553.413 247.13 553.398 247.132 553.379 247.137L553.33 247.149L553.28 247.155C552.927 247.194 552.619 247.37 552.376 247.632C552.155 247.899 552.035 248.218 552.027 248.557L552.053 248.793L552.053 248.796L554.791 272.63L554.792 272.637L554.793 272.645C554.837 273.109 555.086 273.568 555.42 273.86L555.423 273.862C555.799 274.193 556.255 274.371 556.72 274.371C556.72 274.371 556.721 274.371 556.721 274.371L574.217 274.276H574.221C574.625 274.276 575.025 274.129 575.377 273.849C575.71 273.559 575.96 273.186 576.074 272.755L581.168 251.252L581.637 248.891C581.667 248.738 581.686 248.61 581.686 248.531C581.686 248.222 581.573 247.907 581.345 247.605C581.123 247.341 580.853 247.159 580.563 247.077C580.423 247.049 580.307 247.033 580.233 247.033C580.233 247.033 580.233 247.033 580.232 247.033L553.482 247.128Z" fill="#FF6F3D" stroke="#333333" stroke-width="1.5"/>
<path d="M553.011 175.856C553.011 186.588 556.207 202.461 567.154 202.461C575.024 202.461 585.777 185.546 583.557 179.645C581.824 176.992 577.599 179.645 577.599 179.645C575.256 175.462 578.195 165.245 570.017 164.974C562.147 164.974 553.011 165.123 553.011 175.856Z" fill="white"/>
<path fill-rule="evenodd" clip-rule="evenodd" d="M577.561 211.177L576.818 195.847C572.637 202.117 569.654 203.697 563.302 203.031L562.76 210.827C568.536 214.423 571.778 213.495 577.561 211.177Z" fill="white"/>
<path fill-rule="evenodd" clip-rule="evenodd" d="M556.346 165.923C555.14 167.291 554.15 169.033 553.408 171.023C551.799 175.376 551.305 181.004 552.201 186.383C553.098 191.794 555.356 196.986 559.253 200.469C560.768 201.806 562.5 202.894 564.479 203.64C564.789 203.765 569.149 205.009 574.376 200.5C576.943 198.261 579.788 194.623 582.479 188.653L580.623 187.814C578.056 193.442 575.427 196.893 573.046 198.945C568.685 202.708 565.407 201.806 565.191 201.744C563.459 201.091 561.912 200.127 560.614 198.945C557.119 195.805 555.047 191.047 554.243 186.041C553.408 181.004 553.841 175.78 555.356 171.738C556.005 169.966 556.871 168.442 557.892 167.291L556.346 165.923Z" fill="#333333"/>
<path fill-rule="evenodd" clip-rule="evenodd" d="M578.242 178.921C578.304 176.371 578.211 174.257 577.994 172.484C577.747 170.308 577.283 168.66 576.695 167.385C576.262 166.452 575.613 165.55 574.809 164.835C574.036 164.151 573.139 163.591 572.18 163.28C570.974 162.907 569.799 162.969 568.654 163.343C567.603 163.653 566.582 164.244 565.562 164.897C565.067 165.208 564.634 165.519 564.232 165.83C562.531 167.043 561.201 168.038 558.758 167.354C558.572 167.323 558.418 167.229 558.294 167.105C558.108 166.949 557.954 166.701 557.861 166.421C557.768 166.141 557.768 165.799 557.861 165.426C557.954 165.022 558.201 164.617 558.572 164.182L558.634 164.12C558.758 163.933 558.943 163.747 559.129 163.56C560.768 161.943 564.015 160.731 567.727 160.451C571.469 160.202 575.613 160.979 578.984 163.405C579.633 163.871 580.252 164.4 580.809 164.991C582.169 166.39 583.221 168.349 583.747 171.023C584.211 173.324 584.303 176.184 583.901 179.636C583.716 179.294 583.499 178.983 583.221 178.734C582.695 178.237 582.046 177.957 581.272 177.926C580.437 177.895 579.417 178.174 578.242 178.921Z" fill="#666666" stroke="#666666" stroke-width="0.216" stroke-miterlimit="22.9256"/>
<path fill-rule="evenodd" clip-rule="evenodd" d="M578.211 180.382C578.335 177.179 578.242 174.567 577.995 172.484C577.747 170.307 577.283 168.659 576.696 167.384C576.263 166.452 575.613 165.55 574.809 164.835C574.036 164.151 573.139 163.591 572.18 163.28C570.974 162.907 569.799 162.969 568.655 163.342C567.603 163.653 566.583 164.244 565.562 164.897C565.067 165.208 564.634 165.519 564.232 165.83C562.531 167.042 561.201 168.037 558.758 167.353C558.573 167.322 558.418 167.229 558.294 167.104C558.109 166.949 557.954 166.7 557.861 166.42C557.769 166.141 557.769 165.799 557.861 165.425C557.954 165.021 558.201 164.617 558.573 164.182L558.634 164.119C558.758 163.933 558.944 163.746 559.129 163.56C560.768 161.943 564.016 160.73 567.727 160.45C571.469 160.202 575.613 160.979 578.984 163.404C579.634 163.871 580.252 164.399 580.809 164.99C582.17 166.389 583.221 168.348 583.747 171.022C584.242 173.51 584.304 176.588 583.809 180.413L583.747 181.004C583.5 182.994 583.314 184.237 582.108 185.948C581.922 186.196 581.737 186.445 581.489 186.725C581.304 186.974 581.056 187.253 580.778 187.533L581.025 188.373L582.293 188.933C582.541 188.653 582.819 188.342 583.067 188.031C583.314 187.751 583.53 187.44 583.747 187.129C585.262 185.015 585.448 183.553 585.757 181.252L585.819 180.662C586.345 176.619 586.283 173.292 585.726 170.587C585.108 167.509 583.871 165.208 582.232 163.529C581.582 162.845 580.871 162.254 580.129 161.725C576.355 158.958 571.716 158.087 567.541 158.398C563.366 158.678 559.593 160.171 557.645 162.067C557.397 162.316 557.15 162.565 556.964 162.845C556.377 163.529 556.037 164.213 555.851 164.897C555.635 165.674 555.665 166.389 555.882 167.042C556.068 167.695 556.47 168.255 556.933 168.659C557.305 168.97 557.738 169.188 558.171 169.312C561.542 170.214 563.243 169.001 565.377 167.447C565.779 167.167 566.212 166.856 566.644 166.576C567.48 166.016 568.345 165.519 569.211 165.27C569.985 165.021 570.758 164.99 571.531 165.208C572.18 165.394 572.83 165.799 573.356 166.296C573.943 166.856 574.438 167.509 574.778 168.193C575.273 169.25 575.675 170.711 575.892 172.639C576.108 174.505 576.201 176.744 576.108 179.511L576.634 180.226L578.211 180.382Z" fill="#333333"/>
<path fill-rule="evenodd" clip-rule="evenodd" d="M577.747 181.004C579.17 179.729 580.345 179.231 581.211 179.294C581.644 179.325 582.015 179.48 582.293 179.76C582.603 180.04 582.819 180.475 582.974 180.942C583.314 182.217 583.067 183.989 582.046 185.575C581.799 185.979 581.366 186.445 580.84 186.787C580.592 186.974 580.314 187.098 580.036 187.223C578.953 187.627 579.51 188.808 580.128 188.622C580.654 188.466 581.149 188.218 581.613 187.907C582.293 187.44 582.85 186.85 583.19 186.29C584.427 184.362 584.706 182.185 584.273 180.569C584.087 179.822 583.716 179.2 583.221 178.734C582.695 178.236 582.046 177.957 581.273 177.926C580.036 177.863 578.489 178.485 576.727 180.071C576.139 180.631 576.912 181.781 577.747 181.004Z" fill="#333333"/>
<path fill-rule="evenodd" clip-rule="evenodd" d="M580.19 181.688C580.406 181.657 580.561 181.657 580.715 181.688C580.901 181.719 581.025 181.812 581.087 181.937C581.179 182.092 581.241 182.31 581.241 182.559C581.241 183.056 581.025 183.709 580.592 184.393C580.437 184.611 580.19 184.891 579.911 185.077C579.788 185.17 579.664 185.233 579.54 185.295C578.829 185.606 579.045 186.197 579.633 185.979C579.88 185.886 580.097 185.792 580.282 185.637C580.654 185.388 580.963 185.046 581.148 184.735C581.643 183.958 581.891 183.18 581.891 182.559C581.891 182.185 581.798 181.843 581.643 181.595C581.458 181.315 581.179 181.128 580.839 181.035C580.623 180.973 580.375 180.973 580.128 181.035C579.262 181.128 579.355 181.843 580.19 181.688Z" fill="#333333"/>
<path fill-rule="evenodd" clip-rule="evenodd" d="M547.284 234.392C544.099 238.869 538.686 243.969 532.903 247.545C527.893 250.654 522.666 252.52 518.522 251.742C518.058 251.649 516.141 251.027 513.11 246.177C509.956 241.108 505.842 231.718 501.513 214.274C502.162 213.994 503.028 213.714 503.956 213.528C505.255 213.217 506.615 213.03 507.636 212.937C508.285 214.461 508.966 216.233 509.677 218.067C512.584 225.499 515.986 234.174 521.522 240.051L522.11 240.704L522.821 240.206C524.708 238.901 529.718 232.93 534.357 227.396C538.161 222.856 541.748 218.596 542.954 217.632C544.686 216.233 546.851 214.772 549.851 213.528C552.727 212.346 556.407 211.351 561.232 210.823L561.51 211.196C563.088 213.279 565.778 214.274 568.747 214.367C571.592 214.429 574.778 213.652 577.561 212.191C578.334 211.786 579.077 211.32 579.788 210.823C582.943 211.444 587.396 213.403 591.664 215.922C595.963 218.441 600.045 221.488 602.426 224.224C603.323 226.712 604.406 229.51 605.55 232.495C611.426 247.762 619.281 268.129 616.436 278.763C616.405 278.825 616.034 279.354 614.024 279.603C612.725 279.789 610.838 279.758 608.148 279.292C605.272 278.794 601.406 277.582 596.427 275.654C591.386 273.695 585.2 271.021 577.747 267.6L576.912 269.466C584.427 272.917 590.643 275.623 595.684 277.582C600.818 279.572 604.808 280.815 607.808 281.344C610.715 281.841 612.818 281.873 614.302 281.655C617.519 281.22 618.354 279.541 618.416 279.323C621.446 268.067 613.467 247.327 607.467 231.78C606.292 228.733 605.21 225.903 604.282 223.353L604.22 223.167L604.096 223.011C601.591 220.057 597.262 216.793 592.715 214.15C588.076 211.413 583.159 209.299 579.726 208.739L579.293 208.677L578.953 208.957C578.242 209.517 577.469 209.983 576.664 210.418C574.19 211.724 571.345 212.408 568.84 212.346C566.459 212.284 564.356 211.538 563.18 209.983C563.026 209.765 562.871 209.517 562.747 209.299L562.438 208.677L561.758 208.739C556.377 209.268 552.325 210.356 549.14 211.662C545.923 212.968 543.635 214.554 541.748 216.046C540.356 217.166 536.738 221.488 532.872 226.09C528.821 230.909 524.491 236.04 522.419 237.968C517.502 232.371 514.347 224.317 511.626 217.352C510.821 215.331 510.079 213.403 509.275 211.538L508.997 210.916H508.316C507.172 210.916 505.286 211.165 503.523 211.569C502.069 211.911 500.678 212.377 499.812 212.937L499.193 213.341L499.379 214.056C503.832 232.277 508.131 242.072 511.44 247.358C514.935 252.924 517.563 253.732 518.213 253.857C522.914 254.759 528.635 252.737 534.047 249.41C540.078 245.679 545.769 240.3 549.109 235.573C550.16 233.863 548.49 232.713 547.284 234.392Z" fill="#333333"/>
<path fill-rule="evenodd" clip-rule="evenodd" d="M592.499 238.621C592.159 243.068 591.974 247.452 591.974 251.805C591.974 256.5 592.159 261.102 592.53 265.673L594.571 265.517C594.2 260.947 594.015 256.407 594.015 251.805C594.015 247.545 594.2 243.223 594.541 238.808C594.633 237.222 592.623 236.88 592.499 238.621ZM593.767 276.307L595.778 275.996C596.303 279.603 596.953 283.21 597.726 286.848C598.499 290.486 599.396 294.124 600.417 297.762L600.664 298.695L599.736 299.006C591.603 301.711 581.057 303.763 570.356 303.297C561.944 302.924 553.439 301.027 545.924 296.643L545.553 296.425L545.46 295.99C544.285 290.704 543.543 282.619 543.079 274.193C542.429 262.253 542.367 249.628 542.584 243.347L542.646 241.762L542.739 240.082L544.78 240.207L544.687 241.855L544.625 243.41C544.409 249.628 544.47 262.19 545.12 274.099C545.553 282.184 546.264 289.926 547.347 295.088C554.46 299.13 562.501 300.903 570.449 301.276C580.469 301.711 590.366 299.876 598.19 297.389C597.262 294 596.458 290.642 595.747 287.314C594.943 283.614 594.293 279.945 593.767 276.307Z" fill="#333333"/>
<path fill-rule="evenodd" clip-rule="evenodd" d="M604.096 265.984C601.591 265.859 597.942 265.331 594.231 264.647C589.592 263.776 584.829 262.657 581.984 261.724L581.334 263.652C584.272 264.647 589.128 265.797 593.86 266.668C597.695 267.383 601.468 267.912 604.066 268.036C605.674 268.098 605.89 266.077 604.096 265.984Z" fill="#333333"/>
<path fill-rule="evenodd" clip-rule="evenodd" d="M582.943 251.121C581.52 250.002 580.283 250.623 579.231 251.961C578.211 253.266 577.376 255.35 576.912 256.531C576.757 256.905 576.664 257.184 576.634 257.215C576.417 257.589 576.077 257.962 575.644 258.242C575.304 258.49 574.871 258.646 574.407 258.708C573.108 258.895 571.902 258.677 570.757 258.242C569.551 257.806 568.376 257.122 567.17 256.407L566.984 256.283C566.428 255.972 565.902 255.661 565.376 255.381C564.665 255.008 563.954 254.697 563.273 254.479C561.665 253.951 560.242 253.826 559.067 254.106C557.768 254.417 556.779 255.194 556.129 256.438C556.005 256.687 555.913 256.936 555.82 257.215C555.511 258.148 555.387 259.081 555.511 259.983C555.603 260.885 555.913 261.755 556.438 262.626C556.964 263.528 557.768 264.429 558.882 265.331C559.84 266.139 561.077 266.917 562.562 267.663C564.727 268.751 566.273 269.342 567.912 269.622C569.52 269.902 571.19 269.902 573.541 269.84C576.695 269.746 579.17 268.13 580.963 265.86C582.2 264.305 583.128 262.439 583.716 260.574C584.303 258.708 584.582 256.842 584.52 255.257C584.427 253.391 583.901 251.898 582.943 251.121Z" fill="white"/>
<path fill-rule="evenodd" clip-rule="evenodd" d="M582.943 251.121C581.52 250.002 580.283 250.623 579.231 251.961C578.211 253.266 577.376 255.35 576.912 256.531C576.757 256.905 576.664 257.184 576.634 257.215C576.417 257.589 576.077 257.962 575.644 258.242C575.304 258.49 574.871 258.646 574.407 258.708C573.108 258.895 571.902 258.677 570.757 258.242C569.551 257.806 568.376 257.122 567.17 256.407L566.984 256.283C566.428 255.972 565.902 255.661 565.376 255.381C564.665 255.008 563.954 254.697 563.273 254.479C561.665 253.951 560.242 253.826 559.067 254.106C557.768 254.417 556.779 255.194 556.129 256.438C556.006 256.687 555.913 256.936 555.82 257.215C555.511 258.148 555.387 259.081 555.511 259.983C555.603 260.885 555.913 261.755 556.438 262.626C556.964 263.528 557.768 264.429 558.882 265.331C559.84 266.139 561.077 266.917 562.562 267.663C564.727 268.751 566.273 269.342 567.912 269.622C569.52 269.902 571.19 269.902 573.541 269.84C576.695 269.746 579.17 268.13 580.963 265.86C582.2 264.305 583.128 262.439 583.716 260.574C584.303 258.708 584.582 256.842 584.52 255.257C584.427 253.391 583.901 251.898 582.943 251.121ZM580.84 253.235C581.18 252.831 581.489 252.582 581.675 252.738C582.139 253.111 582.386 254.075 582.448 255.319C582.479 256.687 582.262 258.304 581.736 259.983C581.211 261.631 580.407 263.279 579.355 264.616C577.902 266.45 575.953 267.756 573.479 267.819C571.283 267.881 569.737 267.881 568.283 267.632C566.83 267.383 565.438 266.855 563.49 265.86C562.129 265.176 561.047 264.46 560.181 263.776C559.284 263.03 558.634 262.315 558.201 261.6C557.83 261.009 557.614 260.418 557.552 259.796C557.49 259.205 557.552 258.552 557.768 257.9C557.83 257.744 557.892 257.557 557.954 257.402C558.294 256.718 558.851 256.283 559.531 256.127C560.335 255.941 561.387 256.034 562.624 256.438C563.18 256.625 563.799 256.904 564.448 257.215C564.974 257.495 565.469 257.775 565.964 258.055L566.149 258.179C567.448 258.926 568.716 259.672 570.077 260.169C571.5 260.698 572.984 260.947 574.685 260.729C575.52 260.605 576.232 260.325 576.819 259.921C577.53 259.454 578.056 258.832 578.427 258.242C578.52 258.055 578.675 257.713 578.86 257.247C579.262 256.189 580.005 254.293 580.84 253.235Z" fill="#333333"/>
<path fill-rule="evenodd" clip-rule="evenodd" d="M592.066 249.1C592.809 251.245 594.788 255.163 596.798 258.832C599.087 263.061 601.499 267.01 602.272 267.725L603.633 266.202C603.014 265.642 600.788 261.911 598.561 257.869C596.582 254.262 594.695 250.468 593.984 248.447L592.066 249.1Z" fill="#333333"/>
<path fill-rule="evenodd" clip-rule="evenodd" d="M579.51 210.419L578.768 195.09L576.726 195.183L577.469 210.512L579.51 210.419Z" fill="#333333"/>
<path fill-rule="evenodd" clip-rule="evenodd" d="M563.088 210.325L564.201 202.117L562.191 201.837L561.047 210.046L563.088 210.325Z" fill="#333333"/>
<path fill-rule="evenodd" clip-rule="evenodd" d="M578.52 209.579L578.489 209.703C578.211 211.569 577.314 217.726 575.149 218.938C573.943 219.622 572.025 218.348 568.995 212.813L567.201 213.808C570.974 220.711 573.912 221.954 576.139 220.742C579.169 219.063 580.19 212.129 580.499 210.014L580.53 209.89L578.52 209.579Z" fill="#333333"/>
<path fill-rule="evenodd" clip-rule="evenodd" d="M557.892 209.797C557.614 210.792 557.026 213.902 557.242 216.296C557.397 218.037 557.985 219.498 559.376 219.965C560.428 220.338 562.067 220.214 564.139 218.814C565.531 217.882 567.139 216.296 568.964 213.87L567.325 212.658C565.686 214.897 564.232 216.296 562.995 217.135C561.572 218.099 560.614 218.255 560.057 218.068C559.593 217.913 559.376 217.104 559.284 216.109C559.098 213.995 559.624 211.227 559.871 210.326L557.892 209.797Z" fill="#333333"/>
<path fill-rule="evenodd" clip-rule="evenodd" d="M570.232 217.664C569.923 218.752 569.583 219.872 569.212 220.867C568.871 221.768 568.531 222.577 568.16 223.261C567.851 223.821 567.573 224.225 567.294 224.443C567.171 224.536 567.109 224.598 567.047 224.567C567.016 224.567 566.954 224.505 566.83 224.411C566.614 224.194 566.366 223.79 566.119 223.23C565.841 222.577 565.593 221.768 565.377 220.836C565.16 219.934 564.944 218.846 564.727 217.695L562.717 218.099C562.934 219.219 563.15 220.307 563.397 221.333C563.645 222.359 563.923 223.292 564.263 224.069C564.604 224.878 565.006 225.469 565.408 225.904C565.872 226.37 566.428 226.619 566.985 226.65C567.542 226.681 568.067 226.464 568.593 226.028C569.057 225.624 569.521 225.033 569.923 224.256C570.325 223.51 570.727 222.608 571.098 221.582C571.5 220.525 571.871 219.343 572.181 218.193L570.232 217.664Z" fill="#333333"/>
<path fill-rule="evenodd" clip-rule="evenodd" d="M568.902 221.892C569.026 224.318 569.273 227.489 569.583 231.314C569.954 235.947 570.449 241.544 570.789 247.607L572.83 247.483C572.459 241.264 571.995 235.729 571.624 231.127C571.315 227.272 571.036 224.038 570.944 221.799L568.902 221.892Z" fill="#333333"/>
<path fill-rule="evenodd" clip-rule="evenodd" d="M563.892 222.39C560.768 230.07 559.531 243.565 559.222 246.861L559.16 247.483L561.201 247.67L561.263 247.048C561.573 243.814 562.779 230.599 565.81 223.136L563.892 222.39Z" fill="#333333"/>
<path fill-rule="evenodd" clip-rule="evenodd" d="M571.5 273.758C571.222 274.566 570.51 276.152 569.521 277.613C568.995 278.391 568.407 279.137 567.82 279.728C566.861 278.857 565.748 277.364 564.727 275.996C563.985 275.001 563.304 274.1 562.686 273.447L561.201 274.846C561.696 275.374 562.377 276.276 563.088 277.24C564.418 279.044 565.933 281.034 567.263 281.935L567.851 282.339L568.438 281.904C569.459 281.158 570.417 279.976 571.222 278.795C572.304 277.147 573.139 275.374 573.448 274.41L571.5 273.758Z" fill="#333333"/>
<path fill-rule="evenodd" clip-rule="evenodd" d="M508.811 211.787C508.44 206.781 508.935 205.413 509.646 203.423L509.739 203.143C509.955 202.521 510.265 201.837 510.543 201.184C511.1 199.847 511.625 198.665 511.594 197.701C511.563 196.52 510.976 195.836 509.491 195.867C507.079 195.929 505.626 197.95 504.419 199.629C503.77 200.531 503.213 201.277 503.09 201.246C502.966 201.184 502.842 201.091 502.718 200.997C502.595 200.904 502.44 200.78 502.316 200.624C502.069 200.375 501.667 199.909 501.172 199.318C498.389 196.022 492.946 189.524 488.059 192.602C486.699 193.441 485.771 195.338 486.049 198.23C486.235 200.313 487.07 202.987 488.863 206.159C488.925 206.283 489.234 206.75 489.946 207.465C490.317 207.838 490.843 208.304 491.523 208.864C492.234 209.424 493.1 209.921 494.121 210.481C495.667 211.352 497.677 212.44 499.904 214.337L501.203 212.751C498.822 210.73 496.719 209.579 495.08 208.677C494.121 208.149 493.317 207.714 492.76 207.247C492.142 206.75 491.678 206.314 491.337 205.972C490.812 205.444 490.626 205.195 490.595 205.133C488.956 202.21 488.214 199.847 488.028 198.012C487.843 196.022 488.338 194.778 489.111 194.312C492.513 192.198 497.214 197.763 499.595 200.624C500.121 201.246 500.523 201.744 500.863 202.054C501.048 202.241 501.234 202.428 501.45 202.583C501.667 202.77 501.914 202.925 502.162 203.049C503.832 203.889 504.821 202.49 506.059 200.811C507.017 199.505 508.131 197.919 509.522 197.888C509.553 197.888 509.553 197.639 509.553 197.732C509.553 198.23 509.12 199.225 508.656 200.344C508.378 200.997 508.1 201.681 507.821 202.428L507.729 202.707C506.924 204.946 506.368 206.47 506.77 211.911L508.811 211.787Z" fill="#333333"/>
<path fill-rule="evenodd" clip-rule="evenodd" d="M595.406 299.286C600.2 314.615 605.612 343.191 610.313 375.591C615.106 408.488 619.189 445.335 621.199 476.305C619.962 476.989 618.199 477.393 616.405 477.424C614.642 477.455 612.91 477.175 611.828 476.46C610.003 471.485 602.364 445.553 594.076 416.293C587.056 391.542 579.541 364.428 574.716 345.616L572.737 346.145C577.623 365.112 585.107 392.195 592.097 416.853C600.602 446.796 608.395 473.257 610.003 477.486L610.096 477.766L610.344 477.953C611.797 479.072 614.117 479.538 616.436 479.476C618.848 479.414 621.292 478.792 622.838 477.673L623.302 477.331L623.271 476.771C621.261 445.646 617.147 408.457 612.323 375.28C607.591 342.786 602.148 314.087 597.323 298.664L595.406 299.286Z" fill="#333333"/>
<path fill-rule="evenodd" clip-rule="evenodd" d="M582.695 316.699C581.458 317.756 580.067 318.72 578.551 319.466C576.943 320.275 575.242 320.865 573.448 321.145L572.521 321.27L572.551 322.202C573.479 343.782 571.747 371.051 570.758 386.94C570.541 390.578 570.325 393.594 570.232 395.895C570.232 396.051 570.232 396.642 570.232 397.637C570.356 406.219 570.851 445.521 564.82 477.455C563.397 478.201 561.975 478.419 560.676 478.326C558.913 478.201 557.367 477.548 556.346 476.895C556.222 467.66 555.913 454.383 555.047 440.236C554.15 425.777 552.697 410.354 550.223 397.263C550.037 396.206 546.295 374.782 546.109 345.834C546.016 330.971 546.821 314.118 549.511 296.985L547.501 296.674C544.81 313.9 543.975 330.878 544.099 345.834C544.316 375 548.058 396.548 548.243 397.637C550.686 410.603 552.171 425.963 553.037 440.329C553.934 454.756 554.212 468.22 554.336 477.424V477.922L554.738 478.232C555.944 479.134 558.078 480.191 560.552 480.347C562.346 480.471 564.325 480.129 566.273 478.948L566.675 478.699L566.768 478.232C572.954 446.019 572.428 406.187 572.304 397.543C572.304 396.642 572.273 396.082 572.304 395.926C572.428 393.75 572.613 390.672 572.83 386.971C573.819 371.269 575.52 344.466 574.655 322.918C576.355 322.575 577.964 321.985 579.479 321.207C581.087 320.399 582.603 319.342 583.932 318.222C585.51 317.01 583.902 315.673 582.695 316.699Z" fill="#333333"/>
<path fill-rule="evenodd" clip-rule="evenodd" d="M621.539 477.517C623.147 479.321 625.157 481.28 627.23 483.27C630.601 486.504 634.095 489.862 635.827 492.753C637.126 494.93 637.374 496.796 635.518 498.008C634.374 498.164 630.353 496.423 625.652 494.059C620.395 491.385 614.488 487.903 610.869 485.104C610.838 485.073 610.777 485.011 610.746 485.011C610.684 484.949 610.56 484.887 610.405 484.762C609.663 484.109 608.457 482.337 612.137 478.046L610.591 476.709C605.705 482.399 607.808 485.229 609.076 486.317C609.261 486.472 609.447 486.597 609.57 486.69L609.663 486.752C613.405 489.613 619.405 493.158 624.724 495.863C629.982 498.537 634.714 500.372 636.198 499.936L636.322 499.905L636.446 499.843C639.755 497.822 639.538 494.93 637.559 491.665C635.673 488.556 632.085 485.104 628.621 481.777C626.58 479.818 624.57 477.89 623.054 476.149L621.539 477.517Z" fill="#333333"/>
<path fill-rule="evenodd" clip-rule="evenodd" d="M555.078 476.367C553.036 477.206 550.5 478.077 547.964 478.978C542.831 480.751 537.449 482.616 534.388 484.855C531.666 486.876 530.584 489.177 532.625 491.945L532.718 492.038L532.81 492.131C534.047 493.126 540.109 493.282 546.975 492.846C553.624 492.442 561.077 491.54 565.5 490.359L565.593 490.328C566.613 490.11 570.757 489.146 568.778 481.839C568.716 481.559 568.16 480.378 567.665 479.258C567.263 478.357 566.861 477.486 566.83 477.33L564.881 477.983C564.943 478.201 565.376 479.134 565.809 480.098C566.273 481.155 566.768 482.274 566.799 482.368C568.221 487.623 565.747 488.182 565.129 488.338L564.974 488.369C560.675 489.519 553.346 490.39 546.82 490.794C540.604 491.167 535.223 491.167 534.14 490.577C533.151 489.084 533.862 487.716 535.563 486.472C538.377 484.389 543.604 482.585 548.614 480.875C551.15 480.005 553.655 479.134 555.851 478.232L555.078 476.367Z" fill="#333333"/>
<path fill-rule="evenodd" clip-rule="evenodd" d="M565.19 186.414C561.85 187.751 560.706 186.197 560.737 184.735C560.799 182.776 562.623 183.181 562.252 180.009C563.83 182.248 560.273 184.704 562.407 185.886C562.84 186.135 563.582 186.383 565.19 186.414Z" fill="#333333"/>
<path fill-rule="evenodd" clip-rule="evenodd" d="M563.397 191.14C567.294 194.312 568.716 188.684 569.396 187.844C569.211 194.778 563.892 194.281 563.397 191.14Z" fill="#333333"/>
<path fill-rule="evenodd" clip-rule="evenodd" d="M566.459 178.858C568.531 173.945 574.036 176.744 574.036 179.387C573.758 179.107 572.613 178.392 571.964 178.33C571.748 181.252 568.253 181.874 567.325 178.734C566.954 178.703 566.738 178.703 566.459 178.858Z" fill="#333333"/>
<path fill-rule="evenodd" clip-rule="evenodd" d="M554.614 178.641C556.5 173.634 562.098 176.246 562.222 178.889C561.943 178.609 560.768 177.956 560.119 177.894C559.995 180.848 556.531 181.563 555.48 178.485C555.078 178.485 554.861 178.485 554.614 178.641Z" fill="#333333"/>
<path fill-rule="evenodd" clip-rule="evenodd" d="M503.461 211.476C502.441 211.725 501.482 212.005 500.678 212.347C498.482 210.574 496.595 209.517 495.08 208.678C494.121 208.149 493.317 207.714 492.76 207.247C492.142 206.75 491.678 206.314 491.338 205.972C490.812 205.444 490.626 205.195 490.596 205.133C490.441 204.853 490.317 204.604 490.163 204.355C488.833 201.775 488.183 199.66 488.029 198.012C487.843 196.022 488.338 194.778 489.111 194.312C489.451 194.094 489.822 193.97 490.163 193.908C493.41 193.286 497.43 198.074 499.595 200.624C500.121 201.246 500.523 201.744 500.863 202.054C501.049 202.241 501.234 202.428 501.451 202.583C501.667 202.77 501.915 202.925 502.162 203.05C503.832 203.889 504.822 202.49 506.059 200.811C507.018 199.505 508.131 197.919 509.554 197.888C509.492 198.416 509.09 199.349 508.657 200.344C508.378 200.997 508.1 201.681 507.822 202.428L507.729 202.707C506.987 204.822 506.461 206.283 506.708 210.916C505.719 211.041 504.574 211.227 503.461 211.476Z" fill="#FEFEFE"/>
<path fill-rule="evenodd" clip-rule="evenodd" d="M627.229 483.269C630.6 486.503 634.095 489.861 635.827 492.753C637.126 494.93 637.373 496.795 635.518 498.008C634.373 498.163 630.353 496.422 625.652 494.059C620.395 491.385 614.488 487.902 610.869 485.104C610.838 485.073 610.776 485.011 610.745 485.011C610.684 484.949 610.56 484.886 610.405 484.762C610.003 484.42 609.477 483.736 609.632 482.523C609.756 481.59 610.312 480.347 611.611 478.668C612.972 479.258 614.704 479.507 616.467 479.476C618.477 479.414 620.549 478.979 622.096 478.17C623.364 479.538 624.848 481 626.363 482.461C626.673 482.71 626.951 482.99 627.229 483.269Z" fill="#FEFEFE"/>
<path fill-rule="evenodd" clip-rule="evenodd" d="M566.768 482.399C566.799 482.524 566.83 482.648 566.861 482.772C568.067 487.716 565.686 488.245 565.098 488.369L564.944 488.4C560.645 489.551 553.315 490.422 546.79 490.826C540.573 491.199 535.192 491.199 534.11 490.608C533.12 489.116 533.831 487.747 535.532 486.504C537.264 485.229 539.862 484.078 542.769 482.959C544.625 482.244 546.635 481.56 548.583 480.876C550.872 480.098 553.099 479.321 555.109 478.513C556.346 479.352 558.294 480.192 560.521 480.347C562.067 480.44 563.737 480.223 565.438 479.383C565.531 479.601 565.655 479.85 565.748 480.098C566.242 481.187 566.737 482.275 566.768 482.399Z" fill="#FEFEFE"/>
</g>
<defs>
<filter id="filter0_d_490_37757" x="0" y="6" width="640" height="488" filterUnits="userSpaceOnUse" color-interpolation-filters="sRGB">
<feFlood flood-opacity="0" result="BackgroundImageFix"/>
<feColorMatrix in="SourceAlpha" type="matrix" values="0 0 0 0 0 0 0 0 0 0 0 0 0 0 0 0 0 0 127 0" result="hardAlpha"/>
<feOffset dy="20"/>
<feGaussianBlur stdDeviation="25"/>
<feColorMatrix type="matrix" values="0 0 0 0 0.333333 0 0 0 0 0.333333 0 0 0 0 0.333333 0 0 0 0.15 0"/>
<feBlend mode="normal" in2="BackgroundImageFix" result="effect1_dropShadow_490_37757"/>
<feBlend mode="normal" in="SourceGraphic" in2="effect1_dropShadow_490_37757" result="shape"/>
</filter>
<filter id="filter1_b_490_37757" x="180.634" y="130.134" width="132.731" height="128.731" filterUnits="userSpaceOnUse" color-interpolation-filters="sRGB">
<feFlood flood-opacity="0" result="BackgroundImageFix"/>
<feGaussianBlur in="BackgroundImageFix" stdDeviation="27.1828"/>
<feComposite in2="SourceAlpha" operator="in" result="effect1_backgroundBlur_490_37757"/>
<feBlend mode="normal" in="SourceGraphic" in2="effect1_backgroundBlur_490_37757" result="shape"/>
</filter>
<filter id="filter2_b_490_37757" x="208.634" y="130.134" width="162.731" height="128.731" filterUnits="userSpaceOnUse" color-interpolation-filters="sRGB">
<feFlood flood-opacity="0" result="BackgroundImageFix"/>
<feGaussianBlur in="BackgroundImageFix" stdDeviation="27.1828"/>
<feComposite in2="SourceAlpha" operator="in" result="effect1_backgroundBlur_490_37757"/>
<feBlend mode="normal" in="SourceGraphic" in2="effect1_backgroundBlur_490_37757" result="shape"/>
</filter>
<filter id="filter3_b_490_37757" x="357.634" y="129.634" width="144.731" height="129.731" filterUnits="userSpaceOnUse" color-interpolation-filters="sRGB">
<feFlood flood-opacity="0" result="BackgroundImageFix"/>
<feGaussianBlur in="BackgroundImageFix" stdDeviation="27.1828"/>
<feComposite in2="SourceAlpha" operator="in" result="effect1_backgroundBlur_490_37757"/>
<feBlend mode="normal" in="SourceGraphic" in2="effect1_backgroundBlur_490_37757" result="shape"/>
</filter>
<filter id="filter4_b_490_37757" x="180.634" y="223.634" width="162.731" height="128.731" filterUnits="userSpaceOnUse" color-interpolation-filters="sRGB">
<feFlood flood-opacity="0" result="BackgroundImageFix"/>
<feGaussianBlur in="BackgroundImageFix" stdDeviation="27.1828"/>
<feComposite in2="SourceAlpha" operator="in" result="effect1_backgroundBlur_490_37757"/>
<feBlend mode="normal" in="SourceGraphic" in2="effect1_backgroundBlur_490_37757" result="shape"/>
</filter>
<filter id="filter5_b_490_37757" x="238.634" y="223.634" width="162.731" height="128.731" filterUnits="userSpaceOnUse" color-interpolation-filters="sRGB">
<feFlood flood-opacity="0" result="BackgroundImageFix"/>
<feGaussianBlur in="BackgroundImageFix" stdDeviation="27.1828"/>
<feComposite in2="SourceAlpha" operator="in" result="effect1_backgroundBlur_490_37757"/>
<feBlend mode="normal" in="SourceGraphic" in2="effect1_backgroundBlur_490_37757" result="shape"/>
</filter>
<filter id="filter6_b_490_37757" x="357.634" y="224.134" width="162.731" height="128.731" filterUnits="userSpaceOnUse" color-interpolation-filters="sRGB">
<feFlood flood-opacity="0" result="BackgroundImageFix"/>
<feGaussianBlur in="BackgroundImageFix" stdDeviation="27.1828"/>
<feComposite in2="SourceAlpha" operator="in" result="effect1_backgroundBlur_490_37757"/>
<feBlend mode="normal" in="SourceGraphic" in2="effect1_backgroundBlur_490_37757" result="shape"/>
</filter>
<filter id="filter7_b_490_37757" x="180.634" y="317.634" width="162.731" height="128.731" filterUnits="userSpaceOnUse" color-interpolation-filters="sRGB">
<feFlood flood-opacity="0" result="BackgroundImageFix"/>
<feGaussianBlur in="BackgroundImageFix" stdDeviation="27.1828"/>
<feComposite in2="SourceAlpha" operator="in" result="effect1_backgroundBlur_490_37757"/>
<feBlend mode="normal" in="SourceGraphic" in2="effect1_backgroundBlur_490_37757" result="shape"/>
</filter>
<filter id="filter8_b_490_37757" x="238.634" y="317.634" width="132.731" height="128.731" filterUnits="userSpaceOnUse" color-interpolation-filters="sRGB">
<feFlood flood-opacity="0" result="BackgroundImageFix"/>
<feGaussianBlur in="BackgroundImageFix" stdDeviation="27.1828"/>
<feComposite in2="SourceAlpha" operator="in" result="effect1_backgroundBlur_490_37757"/>
<feBlend mode="normal" in="SourceGraphic" in2="effect1_backgroundBlur_490_37757" result="shape"/>
</filter>
<filter id="filter9_b_490_37757" x="357.634" y="317.634" width="162.731" height="128.731" filterUnits="userSpaceOnUse" color-interpolation-filters="sRGB">
<feFlood flood-opacity="0" result="BackgroundImageFix"/>
<feGaussianBlur in="BackgroundImageFix" stdDeviation="27.1828"/>
<feComposite in2="SourceAlpha" operator="in" result="effect1_backgroundBlur_490_37757"/>
<feBlend mode="normal" in="SourceGraphic" in2="effect1_backgroundBlur_490_37757" result="shape"/>
</filter>
<filter id="filter10_d_490_37757" x="42" y="34" width="170" height="77" filterUnits="userSpaceOnUse" color-interpolation-filters="sRGB">
<feFlood flood-opacity="0" result="BackgroundImageFix"/>
<feColorMatrix in="SourceAlpha" type="matrix" values="0 0 0 0 0 0 0 0 0 0 0 0 0 0 0 0 0 0 127 0" result="hardAlpha"/>
<feOffset dy="7"/>
<feGaussianBlur stdDeviation="12.5"/>
<feColorMatrix type="matrix" values="0 0 0 0 0.333333 0 0 0 0 0.333333 0 0 0 0 0.333333 0 0 0 0.15 0"/>
<feBlend mode="normal" in2="BackgroundImageFix" result="effect1_dropShadow_490_37757"/>
<feBlend mode="normal" in="SourceGraphic" in2="effect1_dropShadow_490_37757" result="shape"/>
</filter>
<filter id="filter11_d_490_37757" x="233" y="148" width="164" height="164" filterUnits="userSpaceOnUse" color-interpolation-filters="sRGB">
<feFlood flood-opacity="0" result="BackgroundImageFix"/>
<feColorMatrix in="SourceAlpha" type="matrix" values="0 0 0 0 0 0 0 0 0 0 0 0 0 0 0 0 0 0 127 0" result="hardAlpha"/>
<feOffset dy="7"/>
<feGaussianBlur stdDeviation="12.5"/>
<feColorMatrix type="matrix" values="0 0 0 0 0.333333 0 0 0 0 0.333333 0 0 0 0 0.333333 0 0 0 0.15 0"/>
<feBlend mode="normal" in2="BackgroundImageFix" result="effect1_dropShadow_490_37757"/>
<feBlend mode="normal" in="SourceGraphic" in2="effect1_dropShadow_490_37757" result="shape"/>
</filter>
<filter id="filter12_d_490_37757" x="35" y="303" width="213" height="213" filterUnits="userSpaceOnUse" color-interpolation-filters="sRGB">
<feFlood flood-opacity="0" result="BackgroundImageFix"/>
<feColorMatrix in="SourceAlpha" type="matrix" values="0 0 0 0 0 0 0 0 0 0 0 0 0 0 0 0 0 0 127 0" result="hardAlpha"/>
<feOffset dy="20"/>
<feGaussianBlur stdDeviation="25"/>
<feColorMatrix type="matrix" values="0 0 0 0 0.333333 0 0 0 0 0.333333 0 0 0 0 0.333333 0 0 0 0.15 0"/>
<feBlend mode="normal" in2="BackgroundImageFix" result="effect1_dropShadow_490_37757"/>
<feBlend mode="normal" in="SourceGraphic" in2="effect1_dropShadow_490_37757" result="shape"/>
</filter>
<linearGradient id="paint0_linear_490_37757" x1="349" y1="187" x2="349" y2="323" gradientUnits="userSpaceOnUse">
<stop stop-color="#FF6F3D"/>
<stop offset="1" stop-color="#FF8E3D"/>
</linearGradient>
<linearGradient id="paint1_linear_490_37757" x1="362.652" y1="-3.79825" x2="493.357" y2="131.655" gradientUnits="userSpaceOnUse">
<stop stop-color="#FF8E3D"/>
<stop offset="1" stop-color="#FF6F3D"/>
</linearGradient>
<linearGradient id="paint2_linear_490_37757" x1="584.648" y1="228.68" x2="555.416" y2="260.704" gradientUnits="userSpaceOnUse">
<stop stop-color="#FFC671"/>
<stop offset="1" stop-color="#FF6F3D"/>
</linearGradient>
<clipPath id="clip0_490_37757">
<rect width="640" height="500" fill="white"/>
</clipPath>
<clipPath id="clip1_490_37757">
<rect x="50" y="36" width="540" height="388" rx="5" fill="white"/>
</clipPath>
<clipPath id="clip2_490_37757">
<rect x="225" y="133" width="165" height="82" rx="9" fill="white"/>
</clipPath>
<clipPath id="clip3_490_37757">
<rect width="16" height="16" fill="white" transform="translate(364 145.25)"/>
</clipPath>
<clipPath id="clip4_490_37757">
<rect x="402" y="133" width="165" height="82" rx="9" fill="white"/>
</clipPath>
<clipPath id="clip5_490_37757">
<rect x="225" y="227" width="165" height="82" rx="9" fill="white"/>
</clipPath>
<clipPath id="clip6_490_37757">
<rect x="402" y="227" width="165" height="82" rx="9" fill="white"/>
</clipPath>
<clipPath id="clip7_490_37757">
<rect width="16" height="16" fill="white" transform="translate(541 239.25)"/>
</clipPath>
<clipPath id="clip8_490_37757">
<rect x="225" y="321" width="165" height="82" rx="9" fill="white"/>
</clipPath>
<clipPath id="clip9_490_37757">
<rect x="402" y="321" width="165" height="82" rx="9" fill="white"/>
</clipPath>
<clipPath id="clip10_490_37757">
<rect x="225" y="84" width="223" height="32" rx="3" fill="white"/>
</clipPath>
<clipPath id="clip11_490_37757">
<rect width="16" height="16" fill="white" transform="translate(464 92)"/>
</clipPath>
<clipPath id="clip12_490_37757">
<rect width="16" height="16" fill="white" transform="translate(504 92)"/>
</clipPath>
<clipPath id="clip13_490_37757">
<rect width="16" height="16" fill="white" transform="translate(78 276)"/>
</clipPath>
<clipPath id="clip14_490_37757">
<rect width="16" height="16" fill="white" transform="translate(78 308)"/>
</clipPath>
<clipPath id="clip15_490_37757">
<rect width="16" height="16" fill="white" transform="translate(172 388.5)"/>
</clipPath>
</defs>
</svg>