<svg width="611" height="430" viewBox="0 0 611 430" fill="none" xmlns="http://www.w3.org/2000/svg">
<path d="M241.628 254.053C241.628 254.053 200.724 267.098 192.525 257.78C184.325 248.463 206.873 219.579 206.873 219.579L241.628 254.053Z" fill="#91231E" stroke="#5F1B12" stroke-width="3" stroke-miterlimit="10"/>
<path d="M229.608 172.245C229.608 172.245 187.773 167.214 183.394 178.674C179.014 190.135 205.476 215.385 205.476 215.385L229.608 172.245Z" fill="#91231E" stroke="#5F1B12" stroke-width="3" stroke-miterlimit="10"/>
<path d="M229.608 235.325C229.608 235.325 179.294 244.549 172.026 230.293C164.759 216.037 215.725 179.606 215.725 179.606L229.608 235.325Z" fill="#BC422A" stroke="#5F1B12" stroke-width="3" stroke-miterlimit="10" stroke-linecap="round" stroke-linejoin="round"/>
<path d="M362.196 138.423C363.501 135.814 404.87 119.881 412.604 133.019C420.244 146.249 380.925 175.599 380.925 175.599L362.196 138.423Z" fill="#91231E" stroke="#5F1B12" stroke-width="3" stroke-miterlimit="10"/>
<path d="M291.197 130.783C291.197 130.783 300.701 93.699 316.261 90.4379C331.821 87.1768 348.5 126.683 348.5 126.683L291.197 130.783Z" fill="#91231E" stroke="#5F1B12" stroke-width="3" stroke-miterlimit="10"/>
<path d="M231.099 156.033C230.726 153.89 214.328 113.824 222.434 107.023C230.54 100.221 273.773 119.788 273.773 119.788L231.099 156.033Z" fill="#91231E" stroke="#5F1B12" stroke-width="3" stroke-miterlimit="10"/>
<path d="M364.619 209.422C364.619 209.422 416.051 204.111 416.61 220.883C417.17 237.654 361.917 248.928 361.917 248.928L364.619 209.422Z" fill="#91231E" stroke="#5F1B12" stroke-width="3" stroke-miterlimit="10"/>
<path d="M378.875 165.444C378.875 165.444 378.129 91.7422 363.873 85.5927C349.618 79.4431 307.689 125.192 307.689 125.192L378.875 165.444Z" fill="#F04E26" stroke="#5F1B12" stroke-width="3" stroke-miterlimit="10" stroke-linecap="round" stroke-linejoin="round"/>
<path d="M243.957 141.684C243.957 141.684 246.753 70.7778 262.686 68.0757C278.618 65.3736 320.92 135.907 320.92 135.907L243.957 141.684Z" fill="#F04E26" stroke="#5F1B12" stroke-width="3" stroke-miterlimit="10" stroke-linecap="round" stroke-linejoin="round"/>
<path d="M212.371 193.489C212.371 193.489 170.163 146.249 180.132 133.857C190.102 121.464 247.312 136.466 247.312 136.466L212.371 193.489Z" fill="#F04E26" stroke="#5F1B12" stroke-width="3" stroke-miterlimit="10" stroke-linecap="round" stroke-linejoin="round"/>
<path d="M383.254 214.733C383.72 214.361 439.159 190.881 435.805 172.898C432.45 154.915 368.905 148.579 368.905 148.579L383.254 214.733Z" fill="#BC422A" stroke="#5F1B12" stroke-width="3" stroke-miterlimit="10" stroke-linecap="round" stroke-linejoin="round"/>
<path d="M366.575 249.766C366.575 249.766 409.25 267.19 414.374 255.264C419.499 243.337 385.956 214.826 385.956 214.826L366.575 249.766Z" fill="#BC422A" stroke="#5F1B12" stroke-width="3" stroke-miterlimit="10" stroke-linecap="round" stroke-linejoin="round"/>
<path d="M248.989 261.879C248.989 261.879 218.055 284.8 211.532 276.228C204.917 267.656 226.161 237.654 226.161 237.654L248.989 261.879Z" fill="#BC422A" stroke="#5F1B12" stroke-width="3" stroke-miterlimit="10" stroke-linecap="round" stroke-linejoin="round"/>
<path opacity="0.3" d="M229.049 162.928C203.519 162.928 182.648 148.672 181.437 130.689C180.878 131.062 180.505 131.528 180.039 131.993C170.069 144.386 212.278 191.625 212.278 191.625L229.888 162.834C229.608 162.928 229.329 162.928 229.049 162.928Z" fill="#5F1B12"/>
<path d="M319.243 367.54C319.243 378.162 328.56 412.078 335.082 415.525C340.58 418.507 379.993 418.786 382.136 414.966C383.999 411.519 365.551 393.815 362.848 388.411C359.96 382.541 340.673 352.539 338.623 351.793C334.989 350.582 319.243 353.005 319.243 367.54Z" fill="#F04E26" stroke="#5F1B12" stroke-width="3" stroke-miterlimit="10" stroke-linecap="round" stroke-linejoin="round"/>
<path opacity="0.3" d="M319.988 371.826C319.988 378.815 321.945 385.989 323.808 392.698C325.858 400.245 326.883 407.419 331.542 413.941C330.61 409.003 330.051 403.785 330.796 398.847C331.542 393.816 333.592 388.877 337.226 385.337C340.859 381.796 346.077 379.746 351.109 380.678C356.14 381.61 360.519 385.709 361.171 390.741C360.612 386.548 353.158 374.528 351.202 372.385C348.313 369.218 346.17 365.118 343.748 361.67C342.816 360.273 341.139 356.918 339.369 356.266C335.735 354.775 319.988 357.291 319.988 371.826Z" fill="#5F1B12"/>
<path d="M336.666 340.147C337.505 339.308 338.903 338.842 339.928 339.401C340.487 339.774 342.071 341.172 342.35 341.731C344.027 345.644 345.984 372.106 320.268 370.615C316.541 370.429 308.621 368.379 308.155 363.627C307.503 358.409 335.735 340.985 336.666 340.147Z" fill="#91231E" stroke="#5F1B12" stroke-width="3" stroke-miterlimit="10"/>
<path d="M396.671 276.135C402.914 273.061 415.027 280.887 408.411 295.609C407.107 298.59 405.057 301.013 401.982 302.224C389.217 307.163 375.241 308.653 361.73 306.51C355.301 305.485 347.847 303.995 342.164 300.64C337.039 297.566 338.437 290.671 342.909 287.223C346.357 284.614 348.034 287.223 351.109 287.782C355.022 288.434 373.377 287.689 396.671 276.135Z" fill="#F04E26" stroke="#5F1B12" stroke-width="3" stroke-miterlimit="10" stroke-linecap="round" stroke-linejoin="round"/>
<path d="M260.263 359.061C260.263 359.061 258.772 383.752 247.777 394.281C236.783 404.81 236.596 406.301 236.876 408.91C237.249 411.519 244.33 416.643 258.586 415.432C272.842 414.221 279.923 410.4 280.948 406.86C281.973 403.319 281.6 363.068 281.6 363.068L260.263 359.061Z" fill="#AA3F25" stroke="#5F1B12" stroke-width="3" stroke-miterlimit="10"/>
<path d="M258.213 350.583C258.213 350.583 255.791 363.254 267.158 367.075C276.289 370.149 283.184 367.261 286.445 363.813C287.843 362.323 290.265 358.689 290.265 358.689L258.213 350.583Z" fill="#91231E" stroke="#5F1B12" stroke-width="3" stroke-miterlimit="10"/>
<path d="M225.881 409.19C225.881 408.351 231.472 401.829 236.597 400.152C241.721 398.568 247.498 405.835 246.566 408.537C245.635 411.239 240.044 411.892 236.317 412.078C227.372 412.544 225.788 410.587 225.881 409.19Z" fill="#91231E" stroke="#5F1B12" stroke-width="3" stroke-miterlimit="10"/>
<path d="M232.031 412.731C232.031 411.892 237.621 405.37 242.746 403.693C247.871 402.109 253.647 409.376 252.716 412.078C251.784 414.78 246.193 415.433 242.466 415.619C233.522 416.085 232.031 414.035 232.031 412.731Z" fill="#91231E" stroke="#5F1B12" stroke-width="3" stroke-miterlimit="10"/>
<path d="M338.25 258.525C343.375 265.979 351.388 270.359 350.456 277.44C349.245 285.826 345.332 339.867 331.914 358.595C327.349 364.838 298.744 364.279 280.761 361.484C257.188 357.85 255.79 343.594 254.3 331.109C249.641 293.187 246.566 275.297 254.579 264.675C262.592 254.053 274.612 258.525 274.612 258.525H338.25Z" fill="#AA3F25" stroke="#5F1B12" stroke-width="3" stroke-miterlimit="10"/>
<path d="M202.308 307.07C198.581 307.909 191.034 302.318 190.568 298.871C190.195 295.423 197.556 296.262 200.165 296.262C202.774 296.262 208.364 297.1 208.551 300.92C208.83 304.834 205.383 306.418 202.308 307.07Z" fill="#91231E" stroke="#5F1B12" stroke-width="3" stroke-miterlimit="10"/>
<path d="M247.498 279.956C247.498 279.956 235.944 296.541 197.929 305.113C194.015 305.951 194.295 319.369 198.861 324.586C201.469 327.568 225.602 341.451 242.839 314.244C248.43 305.392 250.479 295.982 250.759 291.509C251.039 286.944 247.498 279.956 247.498 279.956Z" fill="#AA3F25" stroke="#5F1B12" stroke-width="3" stroke-miterlimit="10"/>
<path d="M253.741 310.89C255.604 309.12 261.661 291.789 254.113 279.677C249.734 272.595 233.056 268.03 237.621 289.646C242.932 314.71 251.97 312.567 253.741 310.89Z" fill="#91231E" stroke="#5F1B12" stroke-width="3" stroke-miterlimit="10"/>
<path d="M214.048 328.966C211.532 331.854 197.929 333.252 195.6 330.643C193.27 328.034 200.351 321.512 202.401 320.021C204.451 318.53 212.837 316.574 215.259 319.555C217.775 322.444 216.098 326.637 214.048 328.966Z" fill="#91231E" stroke="#5F1B12" stroke-width="3" stroke-miterlimit="10"/>
<path d="M382.695 276.974C382.322 273.713 389.031 264.023 392.012 263.929C394.994 263.836 395.273 272.222 395.087 274.458C394.901 276.694 391.453 283.31 388.099 283.124C384.838 283.03 383.067 279.583 382.695 276.974Z" fill="#91231E" stroke="#5F1B12" stroke-width="3" stroke-miterlimit="10"/>
<path d="M195.227 313.779C191.966 315.735 183.021 312.847 181.53 309.679C180.039 306.511 187.4 305.02 189.823 304.182C192.245 303.343 197.836 302.411 199.233 306.045C200.724 309.586 197.929 312.195 195.227 313.779Z" fill="#91231E" stroke="#5F1B12" stroke-width="3" stroke-miterlimit="10"/>
<path d="M409.529 288.435C413.163 289.646 421.269 284.708 421.921 281.354C422.574 277.999 415.12 278.092 412.604 277.906C410.088 277.627 404.405 277.999 403.846 281.819C403.286 285.64 406.641 287.503 409.529 288.435Z" fill="#91231E" stroke="#5F1B12" stroke-width="3" stroke-miterlimit="10"/>
<path d="M342.909 292.255C343.095 298.032 343.282 303.809 343.561 309.586C343.561 310.61 343.654 311.635 344.027 312.474C344.773 314.151 346.543 314.617 348.034 314.337C351.015 313.778 353.345 311.076 354.742 307.815C357.258 302.038 360.612 287.596 355.674 282.378C353.531 280.049 349.431 279.583 346.822 280.888C343.095 282.844 342.723 287.689 342.909 292.255Z" fill="#91231E" stroke="#5F1B12" stroke-width="3" stroke-miterlimit="10"/>
<path d="M276.568 290.392C228.49 274.738 201.656 224.89 216.564 179.048C231.472 133.206 282.532 108.701 330.61 124.354C378.688 140.007 405.523 189.856 390.615 235.698C381.111 265.048 356.792 285.64 327.908 292.535" fill="#F04E26"/>
<path d="M276.568 290.392C228.49 274.738 201.656 224.89 216.564 179.048C231.472 133.206 282.532 108.701 330.61 124.354C378.688 140.007 405.523 189.856 390.615 235.698C381.111 265.048 356.792 285.64 327.908 292.535" stroke="#5F1B12" stroke-width="3" stroke-miterlimit="10" stroke-linecap="round" stroke-linejoin="round"/>
<path opacity="0.3" d="M393.969 187.806C393.596 195.074 392.292 202.435 389.962 209.609C380.459 238.959 356.419 275.391 284.675 262.532C250.2 256.383 223.459 228.244 215.166 196.285C210.973 236.816 236.783 276.695 278.805 290.392L330.144 292.535C359.028 285.547 383.347 264.955 392.851 235.698C397.975 219.672 398.069 203.18 393.969 187.806Z" fill="#5F1B12"/>
<path d="M408.132 297.566C411.3 299.709 420.431 297.379 422.015 294.305C423.692 291.23 416.424 289.273 414.095 288.341C411.765 287.41 406.175 286.105 404.591 289.646C403.007 293.186 405.616 295.889 408.132 297.566Z" fill="#91231E" stroke="#5F1B12" stroke-width="3" stroke-miterlimit="10"/>
<path d="M289.481 212.998C300.955 203.216 301.893 185.476 291.577 173.376C281.26 161.275 263.596 159.396 252.122 169.178C240.648 178.961 239.709 196.7 250.026 208.801C260.342 220.901 278.007 222.781 289.481 212.998Z" fill="#742015" stroke="#5F1B12" stroke-width="3" stroke-miterlimit="10"/>
<path d="M372.319 197.522C380.49 185.718 377.338 169.383 365.28 161.036C353.222 152.69 336.823 155.493 328.652 167.298C320.482 179.102 323.633 195.437 335.691 203.784C347.75 212.13 364.148 209.327 372.319 197.522Z" fill="#742015" stroke="#5F1B12" stroke-width="3" stroke-miterlimit="10"/>
<path d="M318.777 251.257C333.803 251.257 345.984 239.076 345.984 224.05C345.984 209.024 333.803 196.843 318.777 196.843C303.751 196.843 291.57 209.024 291.57 224.05C291.57 239.076 303.751 251.257 318.777 251.257Z" fill="#611B0E" stroke="#5F1B12" stroke-width="3" stroke-miterlimit="10"/>
<path d="M365.353 172.714C366.764 170.084 363.902 165.802 358.96 163.149C354.018 160.496 348.867 160.477 347.456 163.107C346.044 165.736 348.906 170.019 353.848 172.672C358.79 175.325 363.941 175.344 365.353 172.714Z" fill="white"/>
<path d="M280.715 175.471C281.416 172.57 277.564 169.15 272.111 167.834C266.659 166.517 261.671 167.802 260.97 170.704C260.27 173.605 264.122 177.024 269.574 178.341C275.027 179.657 280.015 178.372 280.715 175.471Z" fill="white"/>
<path d="M333.522 212.286C334.764 209.973 332.352 206.264 328.135 204C323.918 201.737 319.494 201.776 318.252 204.088C317.011 206.401 319.423 210.11 323.64 212.374C327.856 214.638 332.281 214.598 333.522 212.286Z" fill="white"/>
<path d="M367.694 184.544C369.906 184.544 371.7 182.751 371.7 180.538C371.7 178.325 369.906 176.531 367.694 176.531C365.481 176.531 363.687 178.325 363.687 180.538C363.687 182.751 365.481 184.544 367.694 184.544Z" fill="white"/>
<path d="M285.513 185.663C287.726 185.663 289.52 183.869 289.52 181.656C289.52 179.444 287.726 177.65 285.513 177.65C283.3 177.65 281.507 179.444 281.507 181.656C281.507 183.869 283.3 185.663 285.513 185.663Z" fill="white"/>
<path d="M307.782 262.439C306.105 262.812 304.148 263.464 303.776 265.141C303.589 265.794 303.682 266.446 304.055 267.005C304.614 268.123 306.012 269.055 307.316 269.427C317.472 272.689 318.684 259.83 307.782 262.439Z" fill="#611B0E" stroke="#5F1B12" stroke-width="3" stroke-miterlimit="10"/>
<path d="M225.043 138.423C221.409 142.523 219.545 148.206 220.011 153.611C220.198 155.847 221.129 158.363 223.272 158.922C224.95 159.387 226.627 158.363 228.118 157.431C232.963 154.077 237.528 150.443 241.814 146.436C246.1 142.43 244.982 136.001 239.578 133.205C234.64 130.596 228.304 134.789 225.043 138.423Z" fill="#742015" stroke="#5F1B12" stroke-width="3" stroke-miterlimit="10"/>
<path d="M358.19 128.081C355.767 128.081 352.879 128.919 352.32 131.342C351.947 132.832 352.786 134.416 353.624 135.721C356.885 140.659 361.544 144.573 366.203 148.113C367.88 149.418 369.744 150.722 371.793 151.188C373.843 151.747 376.266 151.374 377.757 149.697C379.62 147.647 379.061 144.293 377.663 141.87C373.098 134.137 368.066 128.081 358.19 128.081Z" fill="#742015" stroke="#5F1B12" stroke-width="3" stroke-miterlimit="10"/>
<path d="M372.166 407.698C372.166 407.698 371.514 402.574 373.75 401.549C375.986 400.524 388.378 410.773 387.819 414.407C387.26 418.041 372.632 412.73 372.632 412.73L372.166 407.698Z" fill="#91231E" stroke="#5F1B12" stroke-width="3" stroke-miterlimit="10"/>
<path d="M360.053 415.992C360.053 415.992 358.656 403.786 364.246 402.854C369.837 401.922 374.682 411.333 374.682 411.333C374.682 411.333 376.545 420.371 373.936 421.489C371.327 422.514 360.053 415.992 360.053 415.992Z" fill="#91231E" stroke="#5F1B12" stroke-width="3" stroke-miterlimit="10"/>
<path d="M344.214 417.669C344.214 417.669 344.307 405.649 350.084 404.251C355.954 402.854 361.358 412.451 361.358 412.451C361.358 412.451 362.103 422.141 358.283 422.886C354.37 423.632 344.214 417.669 344.214 417.669Z" fill="#91231E" stroke="#5F1B12" stroke-width="3" stroke-miterlimit="10"/>
<path d="M165.5 114.297C194.001 124.476 249.835 116.574 280.455 105.39C315.29 92.6662 346.007 60.2207 308.006 55.7673C270.004 51.314 200.484 59.7713 193.684 80.2606C188.301 96.4834 234.536 90.1215 263.671 80.2606C286.978 72.3718 327.64 42.7257 280.455 37" stroke="#CCCCCC" stroke-width="3"/>
<path d="M274 21L274.682 25.6755C275.448 30.9273 279.573 35.0522 284.824 35.8181L289.5 36.5L284.824 37.1819C279.573 37.9478 275.448 42.0727 274.682 47.3245L274 52L273.318 47.3245C272.552 42.0727 268.427 37.9478 263.176 37.1819L258.5 36.5L263.176 35.8181C268.427 35.0522 272.552 30.9273 273.318 25.6755L274 21Z" fill="#CCCCCC"/>
<path d="M163 101L163.682 105.676C164.448 110.927 168.573 115.052 173.824 115.818L178.5 116.5L173.824 117.182C168.573 117.948 164.448 122.073 163.682 127.324L163 132L162.318 127.324C161.552 122.073 157.427 117.948 152.176 117.182L147.5 116.5L152.176 115.818C157.427 115.052 161.552 110.927 162.318 105.676L163 101Z" fill="#CCCCCC"/>
<path d="M115.5 116L117.2 127.657C117.966 132.909 122.091 137.034 127.343 137.8L139 139.5L127.343 141.2C122.091 141.966 117.966 146.091 117.2 151.343L115.5 163L113.8 151.343C113.034 146.091 108.909 141.966 103.657 141.2L92 139.5L103.657 137.8C108.909 137.034 113.034 132.909 113.8 127.657L115.5 116Z" fill="#CCCCCC"/>
<path d="M397.5 46L399.073 56.7846C399.839 62.0364 403.964 66.1612 409.215 66.9272L420 68.5L409.215 70.0728C403.964 70.8388 399.839 74.9636 399.073 80.2154L397.5 91L395.927 80.2154C395.161 74.9636 391.036 70.8388 385.785 70.0728L375 68.5L385.785 66.9272C391.036 66.1612 395.161 62.0364 395.927 56.7846L397.5 46Z" fill="#CCCCCC"/>
<path d="M326 15L326.109 15.7483C326.875 21.0001 331 25.1249 336.252 25.8909L337 26L336.252 26.1091C331 26.8751 326.875 30.9999 326.109 36.2517L326 37L325.891 36.2517C325.125 30.9999 321 26.8751 315.748 26.1091L315 26L315.748 25.8909C321 25.1249 325.125 21.0001 325.891 15.7483L326 15Z" fill="#CCCCCC"/>
<path d="M141.5 52L142.309 57.5482C143.075 62.8 147.2 66.9249 152.452 67.6908L158 68.5L152.452 69.3092C147.2 70.0751 143.075 74.2 142.309 79.4518L141.5 85L140.691 79.4518C139.925 74.2 135.8 70.0751 130.548 69.3092L125 68.5L130.548 67.6908C135.8 66.9249 139.925 62.8 140.691 57.5482L141.5 52Z" fill="#CCCCCC"/>
</svg>
