<svg width="170" height="64" viewBox="0 0 170 64" fill="none" xmlns="http://www.w3.org/2000/svg">
<path d="M40.6723 31.275C40.6859 30.2167 40.967 29.179 41.4894 28.2586C42.0119 27.3381 42.7586 26.5648 43.6602 26.0105C43.0875 25.1925 42.3318 24.5193 41.4534 24.0444C40.5749 23.5695 39.5979 23.3059 38.5997 23.2747C36.4706 23.0512 34.4065 24.5487 33.3215 24.5487C32.2155 24.5487 30.545 23.2969 28.7462 23.3339C27.5826 23.3715 26.4487 23.7098 25.4548 24.316C24.4609 24.9221 23.6409 25.7754 23.0749 26.7926C20.6227 31.0382 22.4518 37.2777 24.8008 40.7095C25.976 42.3899 27.3495 44.267 29.1467 44.2005C30.9054 44.1275 31.5623 43.079 33.6851 43.079C35.7883 43.079 36.4046 44.2005 38.2383 44.1581C40.1254 44.1275 41.3144 42.4702 42.4484 40.7739C43.2928 39.5765 43.9426 38.2531 44.3737 36.8528C43.2773 36.3891 42.3417 35.6129 41.6834 34.621C41.0252 33.6291 40.6736 32.4654 40.6723 31.275Z" fill="white"/>
<path d="M37.2088 21.0179C38.2378 19.7827 38.7447 18.195 38.6219 16.592C37.0499 16.7572 35.5978 17.5085 34.555 18.6963C34.0451 19.2766 33.6546 19.9517 33.4057 20.683C33.1569 21.4143 33.0547 22.1875 33.1048 22.9583C33.8911 22.9664 34.669 22.796 35.3799 22.4599C36.0907 22.1237 36.7161 21.6307 37.2088 21.0179Z" fill="white"/>
<path d="M62.9033 39.9466H56.9017L55.4604 44.2024H52.9184L58.603 28.4573H61.2441L66.9287 44.2024H64.3433L62.9033 39.9466ZM57.5233 37.9828H62.2805L59.9354 31.0761H59.8697L57.5233 37.9828Z" fill="white"/>
<path d="M79.2055 38.4632C79.2055 42.0304 77.2962 44.3224 74.4149 44.3224C73.685 44.3605 72.9591 44.1924 72.3204 43.8372C71.6816 43.482 71.1557 42.9541 70.803 42.314H70.7485V47.9998H68.3922V32.7228H70.673V34.6321H70.7164C71.0853 33.995 71.62 33.4699 72.2636 33.1125C72.9073 32.7552 73.6358 32.579 74.3716 32.6027C77.285 32.6027 79.2055 34.9058 79.2055 38.4632ZM76.7836 38.4632C76.7836 36.139 75.5825 34.6111 73.75 34.6111C71.9496 34.6111 70.7386 36.1712 70.7386 38.4632C70.7386 40.7761 71.9496 42.3251 73.75 42.3251C75.5825 42.3251 76.7836 40.8083 76.7836 38.4632Z" fill="white"/>
<path d="M91.8402 38.4631C91.8402 42.0304 89.9309 44.3223 87.0496 44.3223C86.3197 44.3605 85.5938 44.1924 84.9551 43.8372C84.3163 43.482 83.7904 42.9541 83.4378 42.3139H83.3832V47.9998H81.0269V32.7228H83.3077V34.6321H83.351C83.7199 33.995 84.2547 33.4699 84.8983 33.1125C85.5419 32.7552 86.2704 32.579 87.0062 32.6027C89.9198 32.6027 91.8402 34.9058 91.8402 38.4631ZM89.4183 38.4631C89.4183 36.139 88.2172 34.6111 86.3847 34.6111C84.5843 34.6111 83.3734 36.1712 83.3734 38.4631C83.3734 40.7761 84.5843 42.3251 86.3847 42.3251C88.2172 42.3251 89.4183 40.8083 89.4183 38.4631H89.4183Z" fill="white"/>
<path d="M100.191 39.8155C100.365 41.3769 101.882 42.402 103.955 42.402C105.941 42.402 107.37 41.3768 107.37 39.969C107.37 38.7468 106.508 38.0151 104.467 37.5136L102.427 37.022C99.5357 36.3237 98.1935 34.9715 98.1935 32.7774C98.1935 30.0608 100.561 28.1948 103.923 28.1948C107.25 28.1948 109.53 30.0608 109.607 32.7774H107.229C107.086 31.2061 105.787 30.2577 103.889 30.2577C101.991 30.2577 100.692 31.2173 100.692 32.614C100.692 33.7271 101.522 34.3822 103.551 34.8836L105.286 35.3095C108.516 36.0735 109.859 37.3712 109.859 39.6742C109.859 42.6199 107.512 44.4648 103.78 44.4648C100.288 44.4648 97.9309 42.6632 97.7786 39.8154L100.191 39.8155Z" fill="white"/>
<path d="M114.944 30.0063V32.723H117.127V34.589H114.944V40.9174C114.944 41.9006 115.381 42.3587 116.341 42.3587C116.6 42.3542 116.859 42.336 117.116 42.3042V44.159C116.684 44.2396 116.246 44.2762 115.807 44.268C113.483 44.268 112.577 43.3951 112.577 41.1688V34.589H110.907V32.723H112.576V30.0063H114.944Z" fill="white"/>
<path d="M118.391 38.4633C118.391 34.8514 120.518 32.5818 123.836 32.5818C127.164 32.5818 129.281 34.8514 129.281 38.4633C129.281 42.085 127.175 44.3448 123.836 44.3448C120.497 44.3448 118.391 42.085 118.391 38.4633ZM126.88 38.4633C126.88 35.9856 125.745 34.5233 123.836 34.5233C121.926 34.5233 120.792 35.9968 120.792 38.4633C120.792 40.9508 121.926 42.402 123.836 42.402C125.745 42.402 126.88 40.9508 126.88 38.4633H126.88Z" fill="white"/>
<path d="M131.224 32.7232H133.471V34.6771H133.526C133.678 34.0668 134.035 33.5275 134.538 33.1498C135.041 32.7722 135.659 32.5791 136.287 32.6031C136.559 32.6021 136.829 32.6316 137.094 32.691V34.895C136.751 34.7902 136.394 34.7421 136.036 34.7526C135.693 34.7387 135.352 34.7991 135.035 34.9295C134.718 35.06 134.434 35.2574 134.2 35.5084C133.967 35.7593 133.791 36.0577 133.684 36.3831C133.577 36.7086 133.541 37.0533 133.58 37.3937V44.2026H131.224L131.224 32.7232Z" fill="white"/>
<path d="M147.958 40.8307C147.641 42.9146 145.612 44.3448 143.015 44.3448C139.676 44.3448 137.603 42.1073 137.603 38.5178C137.603 34.9171 139.687 32.5818 142.916 32.5818C146.092 32.5818 148.09 34.7635 148.09 38.2441V39.0514H139.982V39.1938C139.944 39.6163 139.997 40.0419 140.137 40.4423C140.277 40.8428 140.5 41.209 140.792 41.5165C141.084 41.824 141.438 42.0659 141.831 42.226C142.224 42.3862 142.646 42.4609 143.07 42.4453C143.627 42.4975 144.185 42.3686 144.663 42.0776C145.141 41.7867 145.512 41.3494 145.721 40.8307L147.958 40.8307ZM139.993 37.4046H145.732C145.753 37.0247 145.696 36.6446 145.563 36.2881C145.43 35.9315 145.225 35.6062 144.961 35.3327C144.696 35.0591 144.378 34.8431 144.026 34.6983C143.675 34.5535 143.297 34.4829 142.916 34.4911C142.533 34.4888 142.152 34.5625 141.797 34.708C141.442 34.8535 141.119 35.0679 140.848 35.3387C140.576 35.6096 140.36 35.9316 140.214 36.2862C140.067 36.6408 139.992 37.0209 139.993 37.4046V37.4046Z" fill="white"/>
<path d="M55.3038 22.1366C55.4029 22.8548 56.1049 23.311 57.1178 23.311C58.0613 23.311 58.7534 22.8238 58.7534 22.1527C58.7534 21.5757 58.3126 21.2296 57.3109 20.9937L56.3364 20.7579C54.9682 20.4378 54.3441 19.7772 54.3441 18.6659C54.3441 17.3181 55.4449 16.4217 57.0967 16.4217C57.7458 16.3493 58.3972 16.5371 58.9082 16.9439C59.4192 17.3507 59.7482 17.9434 59.8232 18.5923H58.6791C58.6038 18.2372 58.3975 17.9234 58.1013 17.7136C57.8051 17.5037 57.4407 17.4131 57.0807 17.4599C56.152 17.4599 55.5341 17.9056 55.5341 18.5873C55.5341 19.1271 55.9328 19.4367 56.9184 19.667L57.7518 19.8719C59.3032 20.2335 59.9434 20.8625 59.9434 22.0004C59.9434 23.4472 58.8216 24.3542 57.0287 24.3542C55.3509 24.3542 54.2229 23.4893 54.1387 22.1366L55.3038 22.1366Z" fill="white"/>
<path d="M65.2516 20.3277C65.1797 20.0316 65.0042 19.7711 64.7569 19.5932C64.5095 19.4154 64.2067 19.332 63.9032 19.3582C62.9596 19.3582 62.3826 20.0813 62.3826 21.2978C62.3826 22.5354 62.9646 23.2746 63.9032 23.2746C64.2037 23.3094 64.5066 23.2333 64.7549 23.0604C65.0032 22.8876 65.1799 22.63 65.2516 22.3361H66.3474C66.2749 22.9142 65.9794 23.4411 65.524 23.8045C65.0685 24.1679 64.4891 24.339 63.9094 24.2813C63.5276 24.2933 63.1478 24.2218 62.7966 24.0718C62.4453 23.9218 62.1311 23.6968 61.8759 23.4126C61.6207 23.1284 61.4306 22.792 61.319 22.4267C61.2075 22.0614 61.177 21.6761 61.2299 21.2979C61.1797 20.9224 61.2121 20.5405 61.3247 20.1788C61.4374 19.8171 61.6277 19.4844 61.8822 19.2038C62.1368 18.9233 62.4495 18.7016 62.7985 18.5544C63.1476 18.4072 63.5246 18.338 63.9032 18.3515C64.4877 18.2977 65.0702 18.4741 65.5267 18.8432C65.9832 19.2122 66.2776 19.7449 66.3474 20.3277L65.2516 20.3277Z" fill="white"/>
<path d="M67.4655 22.5563C67.4655 21.5285 68.2307 20.9361 69.589 20.8519L71.1355 20.7627V20.2699C71.1355 19.6669 70.7368 19.3264 69.9666 19.3264C69.3376 19.3264 68.9018 19.5573 68.7767 19.961H67.6859C67.801 18.9803 68.7235 18.3513 70.0186 18.3513C71.45 18.3513 72.2573 19.0639 72.2573 20.2699V24.1709H71.1727V23.3685H71.0835C70.9026 23.6563 70.6485 23.891 70.3472 24.0485C70.0459 24.206 69.7082 24.2807 69.3686 24.265C69.1289 24.2899 68.8867 24.2643 68.6575 24.1899C68.4283 24.1155 68.2172 23.9938 68.0379 23.8329C67.8586 23.6719 67.715 23.4751 67.6164 23.2552C67.5178 23.0353 67.4664 22.7972 67.4655 22.5563ZM71.1355 22.0684V21.5911L69.7413 21.6802C68.955 21.7329 68.5984 22.0003 68.5984 22.5036C68.5984 23.0175 69.0442 23.3165 69.6571 23.3165C69.8367 23.3347 70.0181 23.3166 70.1906 23.2632C70.363 23.2098 70.523 23.1223 70.6609 23.0059C70.7988 22.8894 70.9119 22.7464 70.9935 22.5854C71.075 22.4243 71.1233 22.2485 71.1355 22.0684Z" fill="white"/>
<path d="M74.0218 18.4618H75.1065V19.3372H75.1907C75.3121 19.0333 75.5267 18.7757 75.8037 18.6014C76.0806 18.4271 76.4057 18.345 76.7322 18.367C76.901 18.3648 77.0695 18.3805 77.2349 18.4141V19.5261C77.0282 19.4819 76.8174 19.459 76.6059 19.4579C76.4201 19.4413 76.2328 19.4636 76.0562 19.5236C75.8795 19.5836 75.7173 19.6799 75.5801 19.8063C75.4428 19.9327 75.3335 20.0864 75.2592 20.2576C75.1849 20.4287 75.1472 20.6135 75.1486 20.8001V24.1711H74.0218L74.0218 18.4618Z" fill="white"/>
<path d="M78.4174 16.7734C78.4087 16.6274 78.4441 16.4822 78.5188 16.3566C78.5936 16.231 78.7044 16.1307 78.8368 16.0688C78.9692 16.0068 79.1172 15.9861 79.2616 16.0092C79.4059 16.0323 79.54 16.0983 79.6465 16.1985C79.7529 16.2987 79.8268 16.4285 79.8586 16.5712C79.8904 16.7139 79.8786 16.8629 79.8248 16.9988C79.7709 17.1347 79.6775 17.2514 79.5566 17.3336C79.4357 17.4158 79.2929 17.4598 79.1467 17.4599C79.0533 17.4647 78.9599 17.4505 78.872 17.4183C78.7842 17.386 78.7038 17.3363 78.6357 17.2722C78.5676 17.208 78.5131 17.1308 78.4756 17.0451C78.4381 16.9593 78.4183 16.8669 78.4174 16.7734ZM78.5846 18.4617H79.7076V24.171H78.5846V18.4617Z" fill="white"/>
<path d="M85.2635 20.3277C85.1916 20.0316 85.0161 19.7711 84.7688 19.5932C84.5214 19.4154 84.2186 19.332 83.915 19.3582C82.9715 19.3582 82.3945 20.0813 82.3945 21.2978C82.3945 22.5354 82.9765 23.2746 83.915 23.2746C84.2156 23.3094 84.5185 23.2333 84.7668 23.0604C85.0151 22.8876 85.1917 22.63 85.2635 22.3361H86.3593C86.2868 22.9142 85.9913 23.4411 85.5359 23.8045C85.0804 24.1679 84.501 24.339 83.9213 24.2813C83.5395 24.2933 83.1597 24.2218 82.8085 24.0718C82.4572 23.9218 82.143 23.6968 81.8878 23.4126C81.6326 23.1284 81.4425 22.792 81.3309 22.4267C81.2194 22.0614 81.1889 21.6761 81.2418 21.2979C81.1916 20.9224 81.224 20.5405 81.3366 20.1788C81.4493 19.8171 81.6395 19.4844 81.8941 19.2038C82.1487 18.9233 82.4614 18.7016 82.8104 18.5544C83.1595 18.4072 83.5365 18.338 83.9151 18.3515C84.4996 18.2977 85.0821 18.4741 85.5386 18.8432C85.9951 19.2122 86.2895 19.7449 86.3593 20.3277L85.2635 20.3277Z" fill="white"/>
<path d="M87.4774 22.5563C87.4774 21.5285 88.2426 20.9361 89.6009 20.8519L91.1475 20.7627V20.2699C91.1475 19.6669 90.7488 19.3264 89.9786 19.3264C89.3496 19.3264 88.9137 19.5573 88.7887 19.961H87.6978C87.813 18.9803 88.7354 18.3513 90.0306 18.3513C91.462 18.3513 92.2699 19.0639 92.2699 20.2699V24.1709H91.1846V23.3685H91.0954C90.9145 23.6563 90.6604 23.891 90.3591 24.0485C90.0578 24.206 89.7201 24.2807 89.3805 24.265C89.1408 24.2899 88.8986 24.2643 88.6694 24.1899C88.4402 24.1154 88.2292 23.9938 88.0499 23.8328C87.8706 23.6718 87.727 23.4751 87.6284 23.2552C87.5298 23.0353 87.4784 22.7972 87.4774 22.5563ZM91.1475 22.0684V21.5911L89.7532 21.6802C88.967 21.7329 88.6104 22.0003 88.6104 22.5036C88.6104 23.0175 89.0561 23.3165 89.6691 23.3165C89.8487 23.3347 90.0301 23.3166 90.2025 23.2632C90.375 23.2098 90.5349 23.1223 90.6729 23.0059C90.8108 22.8894 90.9239 22.7464 91.0054 22.5854C91.087 22.4243 91.1353 22.2485 91.1475 22.0684H91.1475Z" fill="white"/>
<path d="M99.2175 18.3513C100.502 18.3513 101.341 18.9488 101.451 19.9554H100.37C100.266 19.5363 99.8564 19.2688 99.2175 19.2688C98.5885 19.2688 98.1106 19.5672 98.1106 20.013C98.1106 20.3541 98.3991 20.569 99.0182 20.7107L99.9666 20.9305C101.053 21.1825 101.561 21.6493 101.561 22.4882C101.561 23.5629 100.56 24.2811 99.1965 24.2811C97.8382 24.2811 96.9528 23.6676 96.8525 22.6559H97.9805C98.0777 22.8967 98.253 23.0979 98.4782 23.2271C98.7035 23.3563 98.9656 23.4061 99.2225 23.3685C99.9245 23.3685 100.424 23.0541 100.424 22.5977C100.424 22.2572 100.156 22.0368 99.584 21.9006L98.5885 21.6697C97.5026 21.4128 96.9999 20.9255 96.9999 20.0761C96.9999 19.0639 97.9273 18.3513 99.2175 18.3513Z" fill="white"/>
<path d="M107.892 24.171H106.806V23.2641H106.717C106.573 23.5932 106.329 23.8686 106.019 24.0511C105.71 24.2337 105.35 24.3142 104.993 24.2813C104.716 24.3008 104.439 24.2583 104.182 24.1569C103.924 24.0554 103.693 23.8976 103.504 23.6949C103.316 23.4923 103.175 23.25 103.092 22.9858C103.009 22.7216 102.987 22.4423 103.026 22.1683V18.4617H104.154V21.8748C104.154 22.7973 104.526 23.2381 105.354 23.2381C105.546 23.2563 105.74 23.2314 105.921 23.1652C106.102 23.0991 106.266 22.9933 106.402 22.8556C106.537 22.7179 106.639 22.5518 106.702 22.3694C106.765 22.1869 106.786 21.9928 106.764 21.8011V18.4617H107.892V24.171Z" fill="white"/>
</svg>
