
<svg width="170" height="51" viewBox="0 0 170 51" fill="none" xmlns="http://www.w3.org/2000/svg">
<path fill-rule="evenodd" clip-rule="evenodd" d="M117.417 21.2076V34.562C117.417 36.4995 118.301 37.4682 120.071 37.572C120.377 37.572 120.717 37.5374 121.058 37.4682C121.398 37.399 121.704 37.3298 121.942 37.226L121.636 35.3578C121.33 35.427 121.126 35.4616 120.956 35.4616C120.581 35.4616 120.343 35.3578 120.173 35.1502C120.003 34.9426 119.935 34.5966 119.935 34.1123V21L117.417 21.2076ZM92.2013 33.8699C92.7798 35.0462 93.6305 35.9112 94.7194 36.5339C95.8424 37.1567 97.1355 37.468 98.7008 37.468C99.6196 37.468 100.538 37.3642 101.491 37.1566C102.444 36.9491 103.329 36.6377 104.179 36.2225V29.8221H98.2584V31.8287H101.695V34.9078C101.253 35.0808 100.811 35.2192 100.3 35.2884C99.7897 35.3922 99.3133 35.4268 98.8029 35.4268C97.714 35.4268 96.7952 35.1846 96.0806 34.7003C95.366 34.1813 94.8555 33.524 94.5152 32.6936C94.175 31.8633 94.0048 30.8946 94.0048 29.8221C94.0048 28.6112 94.209 27.5387 94.6514 26.6737C95.0597 25.8088 95.6722 25.1515 96.4549 24.7017C97.2376 24.2519 98.1563 24.0098 99.1772 24.0098C100.402 24.0098 101.695 24.3211 103.057 24.9785L103.703 22.9718C103.022 22.6259 102.308 22.3837 101.525 22.1761C100.743 22.0031 99.9258 21.8993 99.0751 21.8993C97.6119 21.8993 96.2847 22.2107 95.1278 22.7989C93.9368 23.387 93.018 24.2865 92.3374 25.4628C91.6568 26.6391 91.3165 28.0922 91.3165 29.7875C91.3165 31.3443 91.6228 32.7282 92.2013 33.8699ZM57.0835 33.2125H63.0726L64.5698 37.2603H67.3262L61.3371 22.0722H58.853L53 37.2603H55.6202L57.0835 33.2125ZM62.2899 31.1367H57.8321L59.4315 26.7428L60.044 24.7708C60.2482 25.4973 60.4864 26.1893 60.6905 26.7774L62.2899 31.1367ZM68.3202 26.1618V26.1619V26.1619V26.1619V26.162V26.162V26.162V26.162V26.162C68.3516 27.0839 68.3809 27.944 68.3809 28.7147H68.3469V41.9654L70.8991 41.7578V37.018C71.6477 37.2602 72.3963 37.3985 73.145 37.3985C74.1999 37.3985 75.1186 37.1564 75.9013 36.672C76.718 36.2222 77.3305 35.4957 77.7729 34.5616C78.2153 33.6275 78.4535 32.4858 78.4535 31.1711C78.4535 29.9256 78.2493 28.8877 77.875 28.0573C77.5007 27.227 76.9902 26.6388 76.3437 26.2583C75.6971 25.8777 75.0166 25.7047 74.2679 25.7047C72.9748 25.7047 71.8519 26.2583 70.865 27.3654C70.831 26.881 70.797 26.4313 70.6949 25.9469H68.3129L68.3202 26.1618ZM75.8673 31.3786C75.8673 32.7625 75.595 33.8004 75.0846 34.4924C74.5402 35.2189 73.7915 35.5649 72.8387 35.5649C72.5324 35.5649 72.1922 35.5303 71.8519 35.4611C71.5116 35.3919 71.2053 35.2881 70.9671 35.1497V29.0952C71.3414 28.6801 71.7498 28.3687 72.1581 28.1265C72.5665 27.8843 73.0089 27.7805 73.5193 27.7805C74.2339 27.7805 74.7784 28.0919 75.2207 28.6455C75.6631 29.199 75.8673 30.0986 75.8673 31.3786ZM79.9849 28.7147C79.9849 27.9439 79.9556 27.0837 79.9242 26.1618L79.9169 25.9469H82.2989C82.401 26.4313 82.435 26.881 82.469 27.3654C83.4559 26.2583 84.5788 25.7047 85.8719 25.7047C86.6206 25.7047 87.3012 25.8777 87.9477 26.2583C88.5943 26.6388 89.1047 27.227 89.479 28.0573C89.8533 28.8877 90.0575 29.9256 90.0575 31.1711C90.0575 32.4858 89.8193 33.6275 89.3769 34.5616C88.9345 35.4957 88.322 36.2222 87.5053 36.672C86.7227 37.1564 85.8039 37.3985 84.749 37.3985C84.0003 37.3985 83.2517 37.2602 82.5031 37.018V41.7578L79.9509 41.9654V28.7147H79.9849ZM86.6886 34.4924C87.1991 33.8004 87.4713 32.7625 87.4713 31.3786C87.4713 30.0986 87.2671 29.199 86.8247 28.6455C86.3824 28.0919 85.8379 27.7805 85.1233 27.7805C84.6129 27.7805 84.1705 27.8843 83.7621 28.1265C83.3538 28.3687 82.9454 28.6801 82.5711 29.0952V35.1497C82.8093 35.2881 83.1156 35.3919 83.4559 35.4611C83.7962 35.5303 84.1365 35.5649 84.4427 35.5649C85.3955 35.5649 86.1782 35.2189 86.6886 34.4924ZM113.129 37.2601C113.027 36.8103 112.993 36.3259 112.959 35.7724C112.551 36.2567 112.074 36.6373 111.428 36.9833C110.815 37.3293 110.101 37.4676 109.284 37.4676C108.637 37.4676 108.059 37.3293 107.548 37.0871C107.038 36.8449 106.596 36.4643 106.289 35.9454C105.983 35.4264 105.813 34.8037 105.813 34.0771C105.813 32.97 106.187 32.1051 106.97 31.4477C107.753 30.7904 109.046 30.479 110.849 30.479C111.53 30.479 112.21 30.5136 112.857 30.6174V30.4098C112.857 29.4065 112.653 28.7146 112.244 28.2994C111.836 27.8842 111.224 27.6767 110.441 27.6767C109.896 27.6767 109.318 27.7459 108.705 27.9188C108.093 28.0918 107.548 28.2648 107.072 28.507L106.664 26.6388C107.106 26.4312 107.719 26.2236 108.467 26.0506C109.216 25.8776 109.999 25.7738 110.815 25.7738C111.768 25.7738 112.585 25.9122 113.265 26.2236C113.946 26.535 114.456 27.0193 114.831 27.7459C115.205 28.4724 115.409 29.4411 115.409 30.652V35.1496C115.409 35.5042 115.427 35.97 115.45 36.5607C115.459 36.7769 115.468 37.0098 115.477 37.2601H113.129ZM111.632 35.1496C112.176 34.9075 112.585 34.5615 112.925 34.1809V32.0705C112.244 32.0013 111.666 31.9667 111.224 31.9667C110.169 31.9667 109.454 32.1397 109.046 32.4857C108.637 32.8316 108.433 33.2814 108.433 33.8695C108.433 34.4231 108.569 34.8383 108.876 35.115C109.182 35.3918 109.556 35.5302 110.067 35.5302C110.577 35.5648 111.087 35.4264 111.632 35.1496ZM123.746 34.562V21.2076L126.264 21V34.1123C126.264 34.5966 126.332 34.9426 126.502 35.1502C126.672 35.3578 126.911 35.4616 127.285 35.4616C127.455 35.4616 127.659 35.427 127.965 35.3578L128.272 37.226C128.034 37.3298 127.727 37.399 127.387 37.4682C127.047 37.5374 126.706 37.572 126.4 37.572C124.631 37.4682 123.746 36.4995 123.746 34.562ZM131.403 31.9322H138.651V31.2403C138.651 30.2369 138.481 29.3028 138.14 28.4725C137.8 27.6422 137.29 26.9502 136.575 26.4659C135.894 25.9469 135.01 25.7047 133.955 25.7047C132.934 25.7047 132.049 25.9469 131.266 26.4313C130.484 26.9156 129.905 27.6076 129.463 28.5071C129.021 29.4066 128.816 30.4791 128.816 31.7246C128.816 32.9355 129.021 33.9388 129.429 34.8038C129.837 35.6687 130.45 36.326 131.266 36.7758C132.083 37.2256 133.07 37.4677 134.261 37.4677C135.792 37.4677 137.188 37.1564 138.447 36.5336L137.902 34.7692C137.392 34.9767 136.881 35.1497 136.337 35.2881C135.792 35.4265 135.248 35.4957 134.737 35.4957C132.628 35.4957 131.505 34.2848 131.403 31.9322ZM136.199 30.2715C136.161 29.3889 135.923 28.7089 135.52 28.2649C135.112 27.8151 134.601 27.573 133.921 27.573C133.274 27.573 132.73 27.8151 132.321 28.2649C131.879 28.7147 131.607 29.4066 131.471 30.2715H136.199ZM140.591 28.7838C140.591 28.3382 140.573 27.7331 140.551 26.956L140.551 26.9529C140.542 26.6448 140.532 26.3097 140.523 25.9468H142.905C142.939 26.2582 142.973 26.6387 143.007 27.0885C143.014 27.1898 143.022 27.2859 143.029 27.3771C143.054 27.6906 143.075 27.9466 143.075 28.161C143.381 27.6767 143.653 27.2615 143.959 26.9155C144.232 26.5696 144.572 26.2928 144.946 26.0852C145.321 25.8776 145.763 25.7738 146.239 25.7738C146.648 25.7738 146.954 25.8084 147.26 25.9122L146.954 28.161C146.716 28.0918 146.444 28.0572 146.137 28.0572C145.525 28.0572 145.014 28.1956 144.572 28.507C144.13 28.8184 143.653 29.3373 143.143 30.0293V37.2947H140.625V28.7838H140.591ZM147.77 41.654C148.009 41.7578 148.315 41.827 148.689 41.8962C149.063 41.9654 149.472 42 149.88 42C150.765 42 151.48 41.827 152.092 41.5156C152.671 41.1697 153.215 40.6853 153.657 40.028C154.1 39.3706 154.542 38.4711 154.916 37.3986L159 25.947H156.448L154.372 32.382C154.1 33.2123 153.896 34.0081 153.691 34.8384C153.589 34.2849 153.385 33.4199 153.045 32.3474L150.969 25.9815H148.247L152.33 37.364L152.16 37.7792C151.616 39.2668 150.765 39.9934 149.642 39.9934C149.431 39.9934 149.219 39.9661 148.984 39.9358C148.954 39.932 148.924 39.9281 148.893 39.9242C148.712 39.9011 148.561 39.8627 148.43 39.8294C148.364 39.8127 148.303 39.7973 148.247 39.7858L147.77 41.654Z" fill="white"/>
<path d="M64.7366 13.4225C64.6285 14.246 64.2859 14.8824 63.709 15.3316C63.1361 15.7772 62.3729 16 61.4194 16C60.3858 16 59.5565 15.6702 58.9315 15.0107C58.3105 14.3512 58 13.4688 58 12.3636V11.615C58 10.8913 58.1442 10.2549 58.4327 9.70588C58.7251 9.15686 59.1378 8.73619 59.6706 8.44385C60.2035 8.14795 60.8204 8 61.5216 8C62.451 8 63.1962 8.23173 63.7571 8.69519C64.318 9.15508 64.6445 9.79323 64.7366 10.6096H63.5768C63.4766 9.98931 63.2583 9.54011 62.9218 9.26203C62.5892 8.98396 62.1225 8.84492 61.5216 8.84492C60.7844 8.84492 60.2055 9.08734 59.7848 9.57219C59.3682 10.057 59.1598 10.7469 59.1598 11.6417V12.3957C59.1598 13.2406 59.3581 13.9127 59.7548 14.4118C60.1514 14.9109 60.7063 15.1604 61.4194 15.1604C62.0604 15.1604 62.5512 15.0321 62.8917 14.7754C63.2363 14.5152 63.4646 14.0642 63.5768 13.4225H64.7366Z" fill="white"/>
<path d="M73.0477 12.2513C73.0477 13.0143 72.9035 13.6809 72.615 14.2513C72.3266 14.8182 71.9179 15.2513 71.3891 15.5508C70.8603 15.8503 70.2433 16 69.5382 16C68.8491 16 68.2381 15.8503 67.7053 15.5508C67.1725 15.2478 66.7578 14.8182 66.4613 14.262C66.1689 13.7023 66.0186 13.0553 66.0106 12.3209V11.7594C66.0106 11.0107 66.1569 10.3494 66.4493 9.7754C66.7418 9.20143 67.1544 8.76292 67.6873 8.45989C68.2241 8.1533 68.8371 8 69.5262 8C70.2273 8 70.8443 8.15152 71.3771 8.45455C71.9139 8.75401 72.3266 9.19073 72.615 9.76471C72.9035 10.3351 73.0477 11 73.0477 11.7594V12.2513ZM71.8999 11.7487C71.8999 10.8253 71.6916 10.1176 71.2749 9.62567C70.8583 9.13012 70.2754 8.88235 69.5262 8.88235C68.797 8.88235 68.2221 9.13012 67.8015 9.62567C67.3848 10.1176 67.1705 10.8021 67.1584 11.6791V12.2513C67.1584 13.1462 67.3688 13.8503 67.7894 14.3636C68.2141 14.8734 68.797 15.1283 69.5382 15.1283C70.2834 15.1283 70.8603 14.8877 71.2689 14.4064C71.6776 13.9216 71.8879 13.2282 71.8999 12.3262V11.7487Z" fill="white"/>
<path d="M75.9323 12.8449V15.893H74.7785V8.10695H78.0055C78.9631 8.10695 79.7122 8.32442 80.2531 8.75936C80.7979 9.1943 81.0704 9.77005 81.0704 10.4866C81.0704 11.2424 80.804 11.8253 80.2711 12.2353C79.7423 12.6417 78.9831 12.8449 77.9935 12.8449H75.9323ZM75.9323 12.0053H78.0055C78.6225 12.0053 79.0953 11.877 79.4238 11.6203C79.7523 11.3601 79.9166 10.9857 79.9166 10.4973C79.9166 10.0339 79.7523 9.6631 79.4238 9.38503C79.0953 9.10695 78.6446 8.96257 78.0717 8.95187H75.9323V12.0053Z" fill="white"/>
<path d="M85.7518 12.7433H83.6965V15.893H82.5367V8.10695H85.4333C86.4188 8.10695 87.176 8.3066 87.7048 8.70588C88.2377 9.10517 88.5041 9.68627 88.5041 10.4492C88.5041 10.934 88.3559 11.3565 88.0594 11.7166C87.7669 12.0766 87.3583 12.3458 86.8335 12.5241L88.8887 15.8289V15.893H87.6508L85.7518 12.7433ZM83.6965 11.9037H85.4693C86.0422 11.9037 86.4969 11.7718 86.8335 11.508C87.174 11.2442 87.3443 10.8913 87.3443 10.4492C87.3443 9.96791 87.182 9.59893 86.8575 9.34225C86.537 9.08556 86.0723 8.95544 85.4633 8.95187H83.6965V11.9037Z" fill="white"/>
<path d="M91.3646 15.893H90.2108V8.10695H91.3646V15.893Z" fill="white"/>
<path d="M110 8.10695V13.4011C109.996 14.1355 109.736 14.7362 109.219 15.2032C108.706 15.6702 108.009 15.9323 107.127 15.9893L106.821 16C105.863 16 105.1 15.7701 104.531 15.3102C103.962 14.8503 103.674 14.2175 103.666 13.4118V8.10695H104.808V13.3797C104.808 13.943 104.982 14.3815 105.331 14.6952C105.679 15.0053 106.176 15.1604 106.821 15.1604C107.474 15.1604 107.973 15.0053 108.317 14.6952C108.666 14.385 108.84 13.9483 108.84 13.385V8.10695H110Z" fill="white"/>
<path fill-rule="evenodd" clip-rule="evenodd" d="M102.44 10.4582H101.08V10.4062C101.08 9.96285 100.923 9.57598 100.613 9.32954C100.301 9.07783 99.8507 8.94482 99.2512 8.94482C98.6939 8.94482 98.2721 9.05504 97.9744 9.26361C97.6855 9.46539 97.5423 9.74283 97.5423 10.1069C97.5423 10.3863 97.6721 10.6275 97.9517 10.8334C98.2403 11.0393 98.7395 11.2352 99.4617 11.4163C100.194 11.5989 100.772 11.8027 101.191 12.0293C101.614 12.252 101.932 12.5166 102.14 12.8261C102.353 13.1369 102.458 13.5011 102.458 13.9143C102.458 14.5807 102.163 15.1167 101.586 15.5154C101.011 15.9082 100.249 16.0999 99.3112 16.0999C98.6988 16.0999 98.1255 15.9963 97.5922 15.7882C97.0589 15.5765 96.6401 15.2854 96.3425 14.9125C96.0702 14.5664 95.9227 14.1747 95.9024 13.7409C95.9008 13.7063 95.9 13.6714 95.9 13.6363V13.5363H97.2599V13.6363C97.2599 14.0738 97.4379 14.4159 97.8 14.6719C98.1707 14.9276 98.6715 15.0603 99.3112 15.0603C99.9104 15.0603 100.354 14.9512 100.655 14.7461C100.953 14.5431 101.098 14.2723 101.098 13.925C101.098 13.5747 100.963 13.3122 100.691 13.1251C100.406 12.9259 99.8763 12.7222 99.088 12.5192C98.0935 12.2648 97.3559 11.9502 96.8865 11.5695C96.4168 11.1814 96.1765 10.697 96.1765 10.1229C96.1765 9.47396 96.4694 8.93911 97.0409 8.52334C97.6152 8.10488 98.3547 7.8999 99.2512 7.8999C99.8636 7.8999 100.412 8.00528 100.896 8.21851C101.382 8.43136 101.762 8.72714 102.031 9.10777C102.282 9.45792 102.418 9.84039 102.438 10.2534C102.439 10.2882 102.44 10.3231 102.44 10.3582V10.4582Z" fill="white"/>
<path fill-rule="evenodd" clip-rule="evenodd" d="M64.8506 13.3224L64.8358 13.4354C64.7247 14.2811 64.371 14.9428 63.7705 15.4104C63.1752 15.8734 62.3882 16.0999 61.4194 16.0999C60.3625 16.0999 59.5055 15.7617 58.8589 15.0794C58.2168 14.3974 57.9 13.4883 57.9 12.3635V11.6149C57.9 10.8777 58.047 10.2249 58.3442 9.65927C58.6455 9.09359 59.0721 8.65812 59.6223 8.3562C60.1721 8.05097 60.8062 7.8999 61.5216 7.8999C62.4676 7.8999 63.2373 8.13597 63.8206 8.61785C64.4043 9.09649 64.7414 9.75981 64.836 10.5983L64.8486 10.7095H63.4917L63.4781 10.6255C63.3801 10.0187 63.1691 9.59605 62.8581 9.33902C62.5494 9.0809 62.1081 8.94482 61.5216 8.94482C60.8087 8.94482 60.2593 9.17798 59.8605 9.63744C59.4648 10.0981 59.2599 10.7613 59.2599 11.6416V12.3956C59.2599 13.2253 59.4545 13.873 59.8331 14.3495C60.2083 14.8216 60.7327 15.0603 61.4194 15.0603C62.049 15.0603 62.5151 14.934 62.8315 14.6955M59.7848 9.57209C60.2055 9.08725 60.7844 8.84482 61.5216 8.84482C62.1225 8.84482 62.5893 8.98386 62.9218 9.26193C63.2583 9.54001 63.4767 9.98921 63.5768 10.6095H64.7366C64.7329 10.5759 64.7287 10.5426 64.7241 10.5095C64.6172 9.74085 64.2949 9.13603 63.7571 8.69509C63.1962 8.23163 62.451 7.9999 61.5216 7.9999C60.8205 7.9999 60.2035 8.14785 59.6707 8.44375C59.1378 8.73609 58.7252 9.15677 58.4327 9.70578C58.1443 10.2548 58 10.8912 58 11.6149V12.3635C58 13.4687 58.3105 14.3511 58.9315 15.0106C59.5565 15.6701 60.3858 15.9999 61.4194 15.9999C62.3729 15.9999 63.1361 15.7771 63.709 15.3315C64.2624 14.9006 64.6001 14.2976 64.7222 13.5224C64.7274 13.4893 64.7322 13.456 64.7366 13.4224H63.5768C63.4646 14.0641 63.2363 14.5151 62.8917 14.7753C62.5512 15.032 62.0604 15.1603 61.4194 15.1603C60.7063 15.1603 60.1514 14.9108 59.7548 14.4117C59.3582 13.9126 59.1599 13.2405 59.1599 12.3956V11.6416C59.1599 10.7468 59.3682 10.0569 59.7848 9.57209ZM62.8315 14.6955C63.1476 14.4567 63.3683 14.0342 63.4783 13.4051L63.4928 13.3224H64.8506M72.7042 14.2966C72.4073 14.8801 71.9852 15.3281 71.4384 15.6377C70.8923 15.947 70.2578 16.0999 69.5382 16.0999C68.8342 16.0999 68.206 15.9468 67.6563 15.6379C67.1066 15.3252 66.6782 14.8813 66.3731 14.309C66.0723 13.7332 65.9188 13.0694 65.9107 12.3218L65.9107 12.3208L65.9107 11.7593C65.9107 10.9974 66.0595 10.3201 66.3602 9.7299C66.6611 9.13947 67.0871 8.68612 67.6378 8.37291C68.1914 8.05676 68.8218 7.8999 69.5262 7.8999C70.242 7.8999 70.8763 8.05469 71.4262 8.36732C71.9811 8.67696 72.4074 9.12873 72.7043 9.71952C73.0011 10.3063 73.1478 10.9872 73.1478 11.7593V12.2512C73.1478 13.0268 73.001 13.7097 72.7042 14.2966ZM72.6151 14.2512C72.3266 14.8181 71.918 15.2512 71.3891 15.5507C70.8603 15.8502 70.2433 15.9999 69.5382 15.9999C68.8491 15.9999 68.2382 15.8502 67.7053 15.5507C67.1725 15.2477 66.7578 14.8181 66.4614 14.2619C66.1689 13.7022 66.0187 13.0552 66.0107 12.3208V11.7593C66.0107 11.0106 66.1569 10.3493 66.4493 9.7753C66.7418 9.20133 67.1545 8.76283 67.6873 8.4598C68.2241 8.1532 68.8371 7.9999 69.5262 7.9999C70.2273 7.9999 70.8443 8.15142 71.3771 8.45445M71.1984 9.68993C70.8039 9.22066 70.251 8.98226 69.5262 8.98226C68.8224 8.98226 68.2769 9.22001 67.8777 9.69029C67.4808 10.159 67.2704 10.818 67.2585 11.6797V12.2512C67.2585 13.1308 67.4651 13.8097 67.8666 14.2998C68.2698 14.7838 68.823 15.0282 69.5382 15.0282C70.2599 15.0282 70.8065 14.7964 71.1927 14.3416C71.581 13.8808 71.788 13.2134 71.7999 12.3255V11.7486C71.7999 10.8388 71.5943 10.1574 71.1984 9.68993ZM71.8999 12.3261C71.8879 13.2281 71.6776 13.9215 71.2689 14.4063C70.8603 14.8876 70.2834 15.1282 69.5382 15.1282C68.7971 15.1282 68.2141 14.8733 67.7895 14.3635C67.3688 13.8502 67.1585 13.1461 67.1585 12.2512V11.679C67.1705 10.802 67.3848 10.1175 67.8015 9.62557C68.2221 9.13003 68.7971 8.88226 69.5262 8.88226C70.2754 8.88226 70.8583 9.13003 71.275 9.62557C71.6916 10.1175 71.8999 10.8252 71.8999 11.7486V12.3261ZM76.0323 15.993H74.6785V8.00685H78.0056C78.9773 8.00685 79.7515 8.22754 80.3158 8.68133C80.885 9.13583 81.1704 9.74065 81.1704 10.4865C81.1704 11.269 80.8929 11.883 80.3321 12.3145C79.7792 12.7394 78.9949 12.9448 77.9936 12.9448H76.0323V15.993ZM75.9323 12.8448H77.9936C78.9831 12.8448 79.7423 12.6416 80.2711 12.2352C80.804 11.8252 81.0704 11.2423 81.0704 10.4865C81.0704 9.76996 80.798 9.1942 80.2531 8.75926C79.7123 8.32432 78.9631 8.10685 78.0056 8.10685H74.7785V15.893H75.9323V12.8448ZM88.8887 15.8288V15.893H87.6508L85.7518 12.7432H83.6965V15.893H82.5367V8.10685H85.4333C86.4188 8.10685 87.176 8.3065 87.7049 8.70578C88.2377 9.10507 88.5041 9.68618 88.5041 10.4491C88.5041 10.9339 88.3559 11.3564 88.0594 11.7165C87.7851 12.0542 87.4086 12.3119 86.9299 12.4897C86.8982 12.5015 86.8661 12.5129 86.8335 12.524L88.8887 15.8288ZM86.9838 12.5763L88.9887 15.8002V15.993H87.5943L85.6953 12.8432H83.7965V15.993H82.4367V8.00685H85.4333C86.4304 8.00685 87.2122 8.20854 87.765 8.62587C88.3268 9.04697 88.6041 9.65999 88.6041 10.4491C88.6041 10.9561 88.4485 11.4012 88.1368 11.7798M86.9838 12.5763C87.4672 12.3937 87.8531 12.129 88.1368 11.7798L86.9838 12.5763ZM91.4646 15.993H90.1108V8.00685H91.4646V15.993ZM110.1 8.00685V13.401C110.096 14.1617 109.825 14.7903 109.286 15.2773C108.752 15.7632 108.032 16.0309 107.134 16.089L107.131 16.0892L106.821 16.1C105.848 16.1 105.06 15.866 104.469 15.3878C103.874 14.9071 103.574 14.2448 103.566 13.4127L103.566 8.00685H104.908V13.3796C104.908 13.9205 105.074 14.3294 105.397 14.6204C105.721 14.9089 106.191 15.0603 106.821 15.0603C107.459 15.0603 107.931 14.9087 108.25 14.6208C108.573 14.3335 108.74 13.9261 108.74 13.3849V8.00685H110.1ZM105.331 14.6951C104.982 14.3814 104.808 13.9429 104.808 13.3796V8.10685H103.666V13.4117C103.674 14.2174 103.963 14.8502 104.531 15.3101C105.1 15.77 105.863 15.9999 106.821 15.9999L107.127 15.9892C108.009 15.9322 108.706 15.6701 109.219 15.2031C109.736 14.7361 109.996 14.1354 110 13.401V8.10685H108.84V13.3849C108.84 13.9482 108.666 14.3849 108.317 14.6951C107.973 15.0052 107.474 15.1603 106.821 15.1603C106.176 15.1603 105.679 15.0052 105.331 14.6951ZM76.0323 11.9053H78.0056C78.6104 11.9053 79.0578 11.7792 79.362 11.5416C79.6623 11.3036 79.8166 10.9606 79.8166 10.4972C79.8166 10.0606 79.6634 9.71873 79.3592 9.46126C79.0535 9.20249 78.6278 9.06232 78.0707 9.05177H76.0323V11.9053ZM75.9323 8.95177H78.0717C78.6446 8.96247 79.0953 9.10685 79.4238 9.38493C79.7523 9.663 79.9166 10.0338 79.9166 10.4972C79.9166 10.9856 79.7523 11.36 79.4238 11.6202C79.0953 11.8769 78.6225 12.0052 78.0056 12.0052H75.9323V8.95177ZM90.2108 15.893V8.10685H91.3646V15.893H90.2108Z" fill="white"/>
<path d="M34.3502 9.3501H20.2266C15.2074 9.3501 11.1384 13.419 11.1384 18.4383V32.5619C11.1384 37.5812 15.2074 41.6501 20.2266 41.6501H34.3502C39.3695 41.6501 43.4384 37.5812 43.4384 32.5619V18.4383C43.4384 13.419 39.3695 9.3501 34.3502 9.3501Z" fill="#C8102E"/>
<path d="M17.5338 25.5H18.3906V29.7262H17.5338V28.0092H15.5992V29.7262H14.7424V25.5H15.5992V27.2H17.5338V25.5ZM22.3618 27.9174C22.3618 28.5974 22.0218 28.9714 21.403 28.9714C20.7842 28.9714 20.4374 28.5974 20.4374 27.88V25.5H19.5806V27.914C19.5806 29.1006 20.2402 29.7806 21.3894 29.7806C22.5386 29.7806 23.2186 29.1006 23.2186 27.8766V25.5H22.3618V27.9174ZM32.2626 28.4036L31.3038 25.5H30.6L29.648 28.407L28.713 25.5H27.8018L29.274 29.7262H29.9846L30.94 26.9518L31.8988 29.7262H32.6162L34.0884 25.5H33.1976L32.2626 28.4036ZM35.6218 27.9038H37.1824V27.1388H35.6218V26.2752H37.8862V25.5H34.7786V29.716H37.9678V28.9544H35.6218V27.9038ZM38.9878 29.716H39.8344V25.5H38.9878V29.716ZM24.9118 28.8422L24.5276 29.7194H23.6538L25.5 25.5H26.2548L28.1078 29.7194H27.2238L26.86 28.8456L24.9118 28.8422ZM25.2314 28.0806H26.52L25.874 26.571L25.2314 28.0806Z" fill="white"/>
<path d="M27.2885 20.1247C25.8631 20.1238 24.4964 19.5571 23.4885 18.5493C22.4806 17.5414 21.914 16.1746 21.9131 14.7493H22.6713C22.6713 15.9738 23.1577 17.1482 24.0236 18.0141C24.8895 18.88 26.0639 19.3665 27.2885 19.3665C28.513 19.3665 29.6874 18.88 30.5533 18.0141C31.4192 17.1482 31.9057 15.9738 31.9057 14.7493H32.6639C32.663 16.1746 32.0964 17.5414 31.0885 18.5493C30.0806 19.5571 28.7139 20.1238 27.2885 20.1247Z" fill="white"/>
</svg>
