<svg width="544" height="384" viewBox="0 0 544 384" fill="none" xmlns="http://www.w3.org/2000/svg">
<ellipse cx="472" cy="362" rx="69" ry="5" fill="#444444"/>
<path d="M255.071 102.307L236.262 98.2183C235.916 98.1428 235.635 97.889 235.523 97.5521C233.931 92.7671 231.993 88.0935 229.728 83.5776C229.569 83.2601 229.587 82.8819 229.779 82.583L240.192 66.3869C242.107 63.4069 241.685 59.4944 239.182 56.9911L209.009 26.8177C206.506 24.3145 202.593 23.8935 199.613 25.8084L183.417 36.2205C183.118 36.4127 182.74 36.4315 182.422 36.2722C177.907 34.0074 173.233 32.069 168.448 30.4771C168.111 30.3651 167.857 30.0845 167.782 29.7375L163.693 10.9293C162.941 7.46863 159.877 5 156.335 5H113.665C110.123 5 107.059 7.46863 106.307 10.9293L102.218 29.7375C102.143 30.0845 101.889 30.3651 101.552 30.4771C96.7671 32.069 92.0935 34.0074 87.5776 36.2722C87.2601 36.4315 86.8819 36.4127 86.583 36.2205L70.3869 25.8084C67.4069 23.8935 63.4944 24.3145 60.9911 26.8177L30.8177 56.9911C28.3145 59.4944 27.8935 63.4069 29.8084 66.3869L40.2205 82.583C40.4127 82.8819 40.4315 83.2601 40.2722 83.5776C38.0074 88.0935 36.069 92.7671 34.4771 97.5521C34.3651 97.889 34.0845 98.1428 33.7375 98.2183L14.9293 102.307C11.4686 103.061 9 106.123 9 109.665V152.335C9 155.877 11.4686 158.939 14.9293 159.693L33.7375 163.782C34.0845 163.857 34.3651 164.111 34.4771 164.448C36.069 169.233 38.0074 173.907 40.2722 178.422C40.4315 178.74 40.4127 179.118 40.2205 179.417L29.8084 195.613C27.8935 198.593 28.3145 202.506 30.8177 205.009L60.9911 235.182C63.4944 237.685 67.4069 238.107 70.3869 236.192L86.583 225.779C86.8819 225.587 87.2601 225.569 87.5776 225.728C92.0935 227.993 96.7671 229.931 101.552 231.523C101.889 231.635 102.143 231.916 102.218 232.262L106.307 251.071C107.059 254.531 110.123 257 113.665 257H156.335C159.877 257 162.941 254.531 163.693 251.071L167.782 232.262C167.857 231.916 168.111 231.635 168.448 231.523C173.233 229.931 177.907 227.993 182.422 225.728C182.74 225.569 183.118 225.587 183.417 225.779L199.613 236.192C202.593 238.107 206.506 237.687 209.009 235.182L239.182 205.009C241.685 202.506 242.107 198.593 240.192 195.613L229.779 179.417C229.587 179.118 229.569 178.74 229.728 178.422C231.993 173.907 233.931 169.233 235.523 164.448C235.635 164.111 235.916 163.857 236.262 163.782L255.071 159.693C258.531 158.939 261 155.877 261 152.335V109.665C261 106.123 258.531 103.061 255.071 102.307ZM180.179 131C180.179 155.911 159.911 176.179 135 176.179C110.089 176.179 89.8206 155.911 89.8206 131C89.8206 106.089 110.089 85.8206 135 85.8206C159.911 85.8206 180.179 106.089 180.179 131Z" fill="url(#paint0_linear_489_4176)"/>
<path d="M374.744 360.996H376V359.745V166.262C376 160.004 370.977 154.997 364.699 154.997H70.301C64.0227 154.997 59 160.004 59 166.262V359.745V360.996H60.2557H374.744Z" fill="#808080"/>
<path d="M69 163H367V357H69V163Z" fill="#444444" stroke="#333333"/>
<rect x="69" y="163" width="297" height="49" fill="#333333"/>
<path fill-rule="evenodd" clip-rule="evenodd" d="M94.8499 199.687L83.7116 194.425C82.7628 193.965 82.7628 193.255 83.7116 192.838L87.5894 191L94.8086 194.425C95.7574 194.884 97.2838 194.884 98.1914 194.425L105.411 191L109.288 192.838C110.237 193.297 110.237 194.007 109.288 194.425L98.1501 199.687C97.2838 200.104 95.7574 200.104 94.8499 199.687Z" fill="white" fill-opacity="0.5"/>
<path fill-rule="evenodd" clip-rule="evenodd" d="M94.8138 193.655L83.7094 188.387C82.7635 187.927 82.7635 187.216 83.7094 186.798L87.4931 185L94.8138 188.47C95.7597 188.93 97.2814 188.93 98.1862 188.47L105.507 185L109.291 186.798C110.236 187.258 110.236 187.969 109.291 188.387L98.1862 193.655C97.2403 194.115 95.7186 194.115 94.8138 193.655Z" fill="white" fill-opacity="0.75"/>
<path fill-rule="evenodd" clip-rule="evenodd" d="M94.8138 187.681L83.7094 182.324C82.7635 181.856 82.7635 181.133 83.7094 180.708L94.8138 175.351C95.7597 174.883 97.2814 174.883 98.1862 175.351L109.291 180.708C110.236 181.176 110.236 181.899 109.291 182.324L98.1862 187.681C97.2403 188.106 95.7186 188.106 94.8138 187.681Z" fill="white"/>
<path d="M28 356.996H408C408 362.519 403.523 366.996 398 366.996H38C32.4772 366.996 28 362.519 28 356.996Z" fill="#808080" stroke="#333333"/>
<path d="M142.797 122.029C142.797 114.353 137.791 107.854 130.937 105.5H279.827C288.928 105.5 296.358 112.923 296.5 122.033V316.5H142.797V122.029Z" fill="#AAAAAA" stroke="#333333"/>
<path d="M273.104 171H160.896C158.753 171 157 169.875 157 168.5C157 167.125 158.753 166 160.896 166H273.104C275.247 166 277 167.125 277 168.5C277 169.875 275.247 171 273.104 171Z" fill="#CCCCCC"/>
<path d="M273.104 205H160.896C158.753 205 157 203.875 157 202.5C157 201.125 158.753 200 160.896 200H273.104C275.247 200 277 201.125 277 202.5C277 203.875 275.247 205 273.104 205Z" fill="#CCCCCC"/>
<path d="M273.104 239H160.896C158.753 239 157 237.875 157 236.5C157 235.125 158.753 234 160.896 234H273.104C275.247 234 277 235.125 277 236.5C277 237.875 275.247 239 273.104 239Z" fill="#CCCCCC"/>
<path d="M273.104 273H160.896C158.753 273 157 271.875 157 270.5C157 269.125 158.753 268 160.896 268H273.104C275.247 268 277 269.125 277 270.5C277 271.875 275.247 273 273.104 273Z" fill="#CCCCCC"/>
<path d="M242.114 184H201.5H160.886C158.748 184 157 182.875 157 181.5C157 180.125 158.748 179 160.886 179H242.114C244.252 179 246 180.125 246 181.5C246 182.875 244.252 184 242.114 184Z" fill="#CCCCCC"/>
<path d="M242.114 218H201.5H160.886C158.748 218 157 216.875 157 215.5C157 214.125 158.748 213 160.886 213H242.114C244.252 213 246 214.125 246 215.5C246 216.875 244.252 218 242.114 218Z" fill="#CCCCCC"/>
<path d="M242.114 252H201.5H160.886C158.748 252 157 250.875 157 249.5C157 248.125 158.748 247 160.886 247H242.114C244.252 247 246 248.125 246 249.5C246 250.875 244.252 252 242.114 252Z" fill="#CCCCCC"/>
<path d="M242.114 286H201.5H160.886C158.748 286 157 284.875 157 283.5C157 282.125 158.748 281 160.886 281H242.114C244.252 281 246 282.125 246 283.5C246 284.875 244.252 286 242.114 286Z" fill="#CCCCCC"/>
<path d="M127.927 105C120.157 105 114 111.079 114 118.429C114 125.356 119.424 131.152 126.461 131.859V132H142V118.571C141.853 111.079 135.696 105 127.927 105Z" fill="#282828"/>
<path d="M158 122H232V149H158V122Z" fill="#818181" stroke="#CCCCCC" stroke-width="2"/>
<path d="M404.699 301.49H339.699C339.199 301.49 338.699 301.091 338.699 300.491V254.699C338.699 254.099 339.199 253.699 339.699 253.699H404.699C405.299 253.699 405.699 254.099 405.699 254.699V300.491C405.699 300.991 405.199 301.49 404.699 301.49Z" fill="url(#paint1_linear_489_4176)"/>
<path d="M405 302.191H339.4C338.6 302.191 338 301.591 338 300.791V254.4C338 253.6 338.6 253 339.4 253H405C405.8 253 406.4 253.6 406.4 254.4V300.791C406.4 301.491 405.7 302.191 405 302.191ZM405 300.791V301.491V300.791ZM339.4 254.4V300.791H405V254.4H339.4Z" fill="#333333"/>
<path d="M379.801 286.72L393.801 280.221V276.122L379.801 269.623V274.522L388.301 278.121L379.801 281.721V286.72Z" fill="white"/>
<path d="M370.6 267.924H368L372.5 288.62H375L370.6 267.924Z" fill="white"/>
<path d="M363.5 281.92L355 278.321L363.5 274.722V269.723L349.5 276.221V280.321L363.5 286.82V281.92Z" fill="white"/>
<circle cx="371.025" cy="132.036" r="54.3598" transform="rotate(180 371.025 132.036)" fill="url(#paint2_linear_489_4176)"/>
<path d="M346.478 143.758V124.907C346.478 121.242 348.311 119.409 351.976 119.409H356.846C360.512 119.409 362.344 121.242 362.344 124.907V142.344L359.36 143.758H359.202V132.699H349.62V142.344L346.635 143.758H346.478ZM349.62 129.84H359.202V124.907C359.202 123.127 358.417 122.237 356.846 122.237H351.976C350.405 122.237 349.62 123.127 349.62 124.907V129.84Z" fill="#FF6F3D"/>
<path d="M370.558 143.758V120.194L372.223 119.409H380.612C384.277 119.409 386.11 121.242 386.11 124.907V129.62C386.11 133.285 384.277 135.118 380.612 135.118H373.7V142.344L370.715 143.758H370.558ZM373.7 122.237V132.29H380.612C382.183 132.29 382.968 131.4 382.968 129.62V124.907C382.968 123.127 382.183 122.237 380.612 122.237H373.7Z" fill="#FF6F3D"/>
<path d="M393.539 143.758V120.194L396.523 118.781H396.68V142.344L393.696 143.758H393.539Z" fill="#FF6F3D"/>
<path d="M425.385 132.036C425.385 145.33 420.513 158.163 411.691 168.108C402.87 178.053 390.71 184.421 377.511 186.007C364.311 187.593 350.989 184.288 340.062 176.716C329.135 169.144 321.362 157.83 318.213 144.914" stroke="white" stroke-linecap="round" stroke-dasharray="5 5"/>
<path d="M316.281 135.032C316.406 134.668 316.878 134.575 317.131 134.865L322.307 140.8C322.56 141.09 322.404 141.545 322.027 141.619L314.298 143.135C313.921 143.209 313.604 142.846 313.729 142.482L316.281 135.032Z" fill="#FF6F3D"/>
<path d="M425.606 127.749C425.855 128.043 426.328 127.957 426.458 127.595L429.116 120.181C429.246 119.819 428.934 119.452 428.556 119.52L420.807 120.926C420.428 120.995 420.266 121.448 420.514 121.741L425.606 127.749Z" fill="#FF6F3D"/>
<path d="M316.665 132.035C316.665 118.295 321.869 105.064 331.229 95.0047C361.888 62.0567 418.51 80.6716 424.823 124.24" stroke="white" stroke-linecap="round" stroke-dasharray="5 5"/>
<path d="M381.704 79.1216C381.959 79.4096 381.807 79.8661 381.43 79.9433L373.715 81.523C373.338 81.6002 373.018 81.2403 373.14 80.8751L375.63 73.4035C375.751 73.0383 376.223 72.9418 376.478 73.2298L381.704 79.1216Z" fill="#FF6F3D"/>
<path d="M106.109 231.918C106.109 230.952 105.315 230.168 104.335 230.168H80.3863H13.8623C12.8826 230.168 12.0884 230.952 12.0884 231.918V268.085C12.0884 269.051 12.8826 269.835 13.8623 269.835H104.335C105.315 269.835 106.109 269.051 106.109 268.085V256.71V231.918Z" fill="#333333"/>
<path fill-rule="evenodd" clip-rule="evenodd" d="M11 231.918V268.085C11 269.696 12.3184 271.001 13.9448 271.001H104.055C105.682 271.001 107 269.696 107 268.085V231.918C107 230.307 105.682 229.001 104.055 229.001H13.9448C12.3184 229.001 11 230.307 11 231.918ZM104.055 230.168C105.031 230.168 105.822 230.952 105.822 231.918V268.085C105.822 269.051 105.031 269.835 104.055 269.835H13.9448C12.969 269.835 12.1779 269.051 12.1779 268.085V231.918C12.1779 230.952 12.969 230.168 13.9448 230.168H104.055Z" fill="#808080"/>
<rect width="4.71166" height="1.16667" rx="0.583333" transform="matrix(-1 0 0 1 42.8036 240.085)" fill="#FF6F3D"/>
<path d="M69.3066 240.668C69.3066 240.346 69.0455 240.085 68.7233 240.085L49.2765 240.085C48.9543 240.085 48.6931 240.346 48.6931 240.668C48.6931 240.99 48.9543 241.251 49.2765 241.251H68.7233C69.0455 241.251 69.3066 240.99 69.3066 240.668Z" fill="#FF6F3D"/>
<path d="M69.3066 246.501C69.3066 246.179 69.0455 245.918 68.7233 245.918H49.2765C48.9543 245.918 48.6931 246.179 48.6931 246.501C48.6931 246.823 48.9543 247.085 49.2765 247.085H68.7233C69.0455 247.085 69.3066 246.823 69.3066 246.501Z" fill="#9ADAF3"/>
<path d="M69.3066 252.335C69.3066 252.012 69.0455 251.751 68.7233 251.751H49.2765C48.9543 251.751 48.6931 252.012 48.6931 252.335C48.6931 252.657 48.9543 252.918 49.2765 252.918H68.7233C69.0455 252.918 69.3066 252.657 69.3066 252.335Z" fill="#FF6F3D"/>
<path d="M69.3066 258.168C69.3066 257.846 69.0455 257.585 68.7233 257.585H49.2765C48.9543 257.585 48.6931 257.846 48.6931 258.168C48.6931 258.49 48.9543 258.751 49.2765 258.751H68.7233C69.0455 258.751 69.3066 258.49 69.3066 258.168Z" fill="#FF6F3D"/>
<rect width="4.71166" height="1.16667" rx="0.583333" transform="matrix(-1 0 0 1 34.5583 240.085)" fill="#FF6F3D"/>
<rect width="4.71166" height="1.16667" rx="0.583333" transform="matrix(-1 0 0 1 26.3127 240.085)" fill="#9ADAF3"/>
<rect width="4.71166" height="1.16667" rx="0.583333" transform="matrix(-1 0 0 1 42.8037 251.751)" fill="#9ADAF3"/>
<rect width="4.71166" height="1.16667" rx="0.583333" transform="matrix(-1 0 0 1 34.5583 251.751)" fill="#FF6F3D"/>
<rect width="4.71166" height="1.16667" rx="0.583333" transform="matrix(-1 0 0 1 26.3127 251.751)" fill="#FF6F3D"/>
<rect width="4.71166" height="1.16667" rx="0.583333" transform="matrix(-1 0 0 1 42.8037 245.918)" fill="#FF6F3D"/>
<rect width="4.71166" height="1.16667" rx="0.583333" transform="matrix(-1 0 0 1 34.5583 245.918)" fill="#9ADAF3"/>
<rect width="4.71166" height="1.16667" rx="0.583333" transform="matrix(-1 0 0 1 26.3127 245.918)" fill="#9ADAF3"/>
<rect width="4.71166" height="1.16667" rx="0.583333" transform="matrix(-1 0 0 1 42.8037 257.585)" fill="#FF6F3D"/>
<rect width="4.71166" height="1.16667" rx="0.583333" transform="matrix(-1 0 0 1 34.5583 257.585)" fill="#FF6F3D"/>
<rect width="4.71166" height="1.16667" rx="0.583333" transform="matrix(-1 0 0 1 26.3127 257.585)" fill="#9ADAF3"/>
<path d="M11.8911 279.918C11.8911 278.952 12.6853 278.168 13.6651 278.168H37.6137H104.138C105.117 278.168 105.912 278.952 105.912 279.918V316.085C105.912 317.051 105.117 317.835 104.138 317.835H13.6651C12.6853 317.835 11.8911 317.051 11.8911 316.085V304.71V279.918Z" fill="#333333"/>
<path fill-rule="evenodd" clip-rule="evenodd" d="M107 279.918V316.085C107 317.696 105.682 319.001 104.055 319.001H13.9448C12.3184 319.001 11 317.696 11 316.085V279.918C11 278.307 12.3184 277.001 13.9448 277.001H104.055C105.682 277.001 107 278.307 107 279.918ZM13.9448 278.168C12.969 278.168 12.1779 278.952 12.1779 279.918V316.085C12.1779 317.051 12.969 317.835 13.9448 317.835H104.055C105.031 317.835 105.822 317.051 105.822 316.085V279.918C105.822 278.952 105.031 278.168 104.055 278.168H13.9448Z" fill="#808080"/>
<rect x="75.1964" y="288.085" width="4.71166" height="1.16667" rx="0.583333" fill="#FF6F3D"/>
<path d="M24.5459 288.668C24.5459 288.346 24.8071 288.085 25.1292 288.085L68.7233 288.085C69.0455 288.085 69.3066 288.346 69.3066 288.668C69.3066 288.99 69.0455 289.251 68.7233 289.251H25.1292C24.8071 289.251 24.5459 288.99 24.5459 288.668Z" fill="#FF6F3D"/>
<path d="M24.5459 294.501C24.5459 294.179 24.8071 293.918 25.1292 293.918H68.7233C69.0455 293.918 69.3066 294.179 69.3066 294.501C69.3066 294.823 69.0455 295.085 68.7233 295.085H25.1292C24.8071 295.085 24.5459 294.823 24.5459 294.501Z" fill="#9ADAF3"/>
<path d="M24.5459 300.335C24.5459 300.013 24.8071 299.751 25.1292 299.751H68.7233C69.0455 299.751 69.3066 300.013 69.3066 300.335C69.3066 300.657 69.0455 300.918 68.7233 300.918H25.1292C24.8071 300.918 24.5459 300.657 24.5459 300.335Z" fill="#FF6F3D"/>
<path d="M24.5459 306.168C24.5459 305.846 24.8071 305.585 25.1292 305.585H68.7233C69.0455 305.585 69.3066 305.846 69.3066 306.168C69.3066 306.49 69.0455 306.751 68.7233 306.751H25.1292C24.8071 306.751 24.5459 306.49 24.5459 306.168Z" fill="#FF6F3D"/>
<rect x="83.4417" y="288.085" width="4.71166" height="1.16667" rx="0.583333" fill="#FF6F3D"/>
<rect x="91.6873" y="288.085" width="4.71166" height="1.16667" rx="0.583333" fill="#9ADAF3"/>
<rect x="75.1963" y="299.751" width="4.71166" height="1.16667" rx="0.583333" fill="#9ADAF3"/>
<rect x="83.4417" y="299.751" width="4.71166" height="1.16667" rx="0.583333" fill="#FF6F3D"/>
<rect x="91.6873" y="299.751" width="4.71166" height="1.16667" rx="0.583333" fill="#FF6F3D"/>
<rect x="75.1963" y="293.918" width="4.71166" height="1.16667" rx="0.583333" fill="#FF6F3D"/>
<rect x="83.4417" y="293.918" width="4.71166" height="1.16667" rx="0.583333" fill="#9ADAF3"/>
<rect x="91.6873" y="293.918" width="4.71166" height="1.16667" rx="0.583333" fill="#9ADAF3"/>
<rect x="75.1963" y="305.585" width="4.71166" height="1.16667" rx="0.583333" fill="#FF6F3D"/>
<rect x="83.4417" y="305.585" width="4.71166" height="1.16667" rx="0.583333" fill="#FF6F3D"/>
<rect x="91.6873" y="305.585" width="4.71166" height="1.16667" rx="0.583333" fill="#9ADAF3"/>
<path d="M106.109 327.918C106.109 326.952 105.315 326.168 104.335 326.168H80.3863H13.8623C12.8826 326.168 12.0884 326.952 12.0884 327.918V364.085C12.0884 365.051 12.8826 365.835 13.8623 365.835H104.335C105.315 365.835 106.109 365.051 106.109 364.085V352.71V327.918Z" fill="#333333"/>
<path fill-rule="evenodd" clip-rule="evenodd" d="M11 327.918V364.085C11 365.696 12.3184 367.001 13.9448 367.001H104.055C105.682 367.001 107 365.696 107 364.085V327.918C107 326.307 105.682 325.001 104.055 325.001H13.9448C12.3184 325.001 11 326.307 11 327.918ZM104.055 326.168C105.031 326.168 105.822 326.952 105.822 327.918V364.085C105.822 365.051 105.031 365.835 104.055 365.835H13.9448C12.969 365.835 12.1779 365.051 12.1779 364.085V327.918C12.1779 326.952 12.969 326.168 13.9448 326.168H104.055Z" fill="#808080"/>
<rect width="4.71166" height="1.16667" rx="0.583333" transform="matrix(-1 0 0 1 42.8036 336.085)" fill="#FF6F3D"/>
<path d="M69.3066 336.668C69.3066 336.346 69.0455 336.085 68.7233 336.085L49.2765 336.085C48.9543 336.085 48.6931 336.346 48.6931 336.668C48.6931 336.99 48.9543 337.251 49.2765 337.251H68.7233C69.0455 337.251 69.3066 336.99 69.3066 336.668Z" fill="#FF6F3D"/>
<path d="M69.3066 342.501C69.3066 342.179 69.0455 341.918 68.7233 341.918H49.2765C48.9543 341.918 48.6931 342.179 48.6931 342.501C48.6931 342.823 48.9543 343.085 49.2765 343.085H68.7233C69.0455 343.085 69.3066 342.823 69.3066 342.501Z" fill="#9ADAF3"/>
<path d="M69.3066 348.335C69.3066 348.012 69.0455 347.751 68.7233 347.751H49.2765C48.9543 347.751 48.6931 348.012 48.6931 348.335C48.6931 348.657 48.9543 348.918 49.2765 348.918H68.7233C69.0455 348.918 69.3066 348.657 69.3066 348.335Z" fill="#FF6F3D"/>
<path d="M69.3066 354.168C69.3066 353.846 69.0455 353.585 68.7233 353.585H49.2765C48.9543 353.585 48.6931 353.846 48.6931 354.168C48.6931 354.49 48.9543 354.751 49.2765 354.751H68.7233C69.0455 354.751 69.3066 354.49 69.3066 354.168Z" fill="#FF6F3D"/>
<rect width="4.71166" height="1.16667" rx="0.583333" transform="matrix(-1 0 0 1 34.5583 336.085)" fill="#FF6F3D"/>
<rect width="4.71166" height="1.16667" rx="0.583333" transform="matrix(-1 0 0 1 26.3127 336.085)" fill="#9ADAF3"/>
<rect width="4.71166" height="1.16667" rx="0.583333" transform="matrix(-1 0 0 1 42.8037 347.751)" fill="#9ADAF3"/>
<rect width="4.71166" height="1.16667" rx="0.583333" transform="matrix(-1 0 0 1 34.5583 347.751)" fill="#FF6F3D"/>
<rect width="4.71166" height="1.16667" rx="0.583333" transform="matrix(-1 0 0 1 26.3127 347.751)" fill="#FF6F3D"/>
<rect width="4.71166" height="1.16667" rx="0.583333" transform="matrix(-1 0 0 1 42.8037 341.918)" fill="#FF6F3D"/>
<rect width="4.71166" height="1.16667" rx="0.583333" transform="matrix(-1 0 0 1 34.5583 341.918)" fill="#9ADAF3"/>
<rect width="4.71166" height="1.16667" rx="0.583333" transform="matrix(-1 0 0 1 26.3127 341.918)" fill="#9ADAF3"/>
<rect width="4.71166" height="1.16667" rx="0.583333" transform="matrix(-1 0 0 1 42.8037 353.585)" fill="#FF6F3D"/>
<rect width="4.71166" height="1.16667" rx="0.583333" transform="matrix(-1 0 0 1 34.5583 353.585)" fill="#FF6F3D"/>
<rect width="4.71166" height="1.16667" rx="0.583333" transform="matrix(-1 0 0 1 26.3127 353.585)" fill="#9ADAF3"/>
<path d="M514.605 213.879C515.18 214.297 515.12 216.423 515.168 217.044C515.384 219.506 515.552 221.979 515.719 224.451C516.855 241.016 514.661 258.027 516.917 274.413C517.963 282.039 523.81 287.402 527.003 294.077C528.716 297.673 529.806 301.532 530.633 305.403C532.921 316.238 534.862 327.146 536.97 338.017C537.257 339.511 537.545 341.04 537.317 342.533C536.517 347.816 520.595 350.449 520.595 345.305C520.595 335.088 519.618 323.065 513.934 314.327C509.993 308.246 502.087 292.154 499.068 285.559C494.505 275.596 496.445 274.747 492.264 264.64C491.31 262.332 481.21 242.005 478.728 245.239C469.624 257.066 460.52 268.905 451.416 280.733C449.068 283.779 450.997 287.757 451.788 291.162C455.866 308.595 454.276 327.456 454.734 345.293C450.937 347.502 437.654 353.277 435.844 346.512C434.395 341.144 437.903 334.227 437.772 328.639C437.357 310.144 428.08 292.774 430.082 273.923C430.357 271.354 431.399 268.941 432.43 266.576C442.336 243.829 450.494 220.413 458.101 196.807C458.496 195.576 458.891 194.334 459.466 193.175C460.005 192.076 468.678 181.324 469.121 181.634C469.121 181.634 514.246 213.616 514.641 213.891L514.605 213.879Z" fill="#666666" stroke="#333333" stroke-width="2" stroke-linecap="round" stroke-linejoin="round"/>
<path d="M475.075 206.71C475.075 206.71 463.096 217.463 455.908 210.294C448.721 203.126 465.491 179.233 465.491 179.233L475.075 206.71Z" fill="url(#paint3_linear_489_4176)" stroke="#333333" stroke-width="2" stroke-linecap="round" stroke-linejoin="round"/>
<path d="M436.335 143.213L427.59 130.849C427.315 130.454 426.967 130.096 426.572 129.809L424.068 127.945C421.732 126.201 420.93 123.298 419.852 120.73C419.552 120.013 419.217 119.284 418.678 118.711C417.959 117.946 416.869 117.492 415.827 117.408C414.557 117.301 413.239 117.755 411.994 117.337C411.802 117.277 411.598 117.181 411.502 116.99C411.383 116.739 411.526 116.441 411.682 116.202C412.353 115.258 413.359 114.565 414.473 114.219C415.587 113.872 416.785 113.848 417.923 114.063C418.63 114.195 420.535 114.971 420.786 113.789C420.858 113.43 420.738 113.072 420.606 112.725C420.439 112.259 420.247 111.758 419.84 111.447C419.456 111.148 418.941 111.089 418.462 111.077C416.881 111.041 415.24 111.423 413.766 110.85C413.491 110.742 413.227 110.599 413.048 110.372C412.868 110.145 412.784 109.81 412.916 109.559C413.012 109.356 413.215 109.225 413.419 109.117C414.88 108.305 416.773 107.803 418.45 107.708C419.121 107.672 419.804 107.708 420.451 107.875C421.086 108.03 421.625 108.532 422.248 108.64C422.307 108.64 421.924 107.505 421.852 107.397C421.613 107.039 421.289 106.764 420.93 106.549C419.972 105.975 418.869 105.796 417.803 105.533C416.989 105.342 416.162 105.032 415.599 104.422C415.24 104.028 415.012 103.49 415.144 102.977C415.336 102.26 416.15 101.89 416.905 101.83C418.067 101.746 419.193 102.14 420.247 102.594C420.786 102.821 421.313 103.084 421.864 103.311C422.26 103.479 423.146 104.064 423.553 103.956C422.906 103.55 422.176 102.798 421.732 102.164C421.361 101.627 421.074 100.982 421.05 100.325C421.026 99.775 421.265 98.8073 422.02 98.9985C422.26 99.0582 422.451 99.2135 422.643 99.3808C424.703 101.197 425.925 103.765 427.135 106.226C428.453 108.902 429.83 111.555 430.932 114.338C432.13 117.361 432.921 120.503 433.795 123.633C433.951 124.218 434.119 124.792 434.394 125.329C434.933 126.38 435.88 127.193 436.67 128.053C437.617 129.092 438.551 130.132 439.497 131.183C441.354 133.238 443.211 135.305 445.079 137.36L445.127 137.407L437.94 145.77L436.323 143.201L436.335 143.213Z" fill="white" stroke="#333333" stroke-linecap="round" stroke-linejoin="round"/>
<path d="M394.816 178.038L398.409 186.401L399.607 191.18L434.346 176.844L451.117 160.118C451.117 160.118 452.315 160.118 454.71 167.286C457.106 174.454 454.71 200.737 454.71 200.737L446.325 229.409L449.919 230.604L460.7 203.126L464.294 186.401L471.481 219.852C471.481 219.852 475.075 230.604 483.46 229.409C490.526 228.403 512.056 223.153 518.653 221.527C519.726 221.263 520.377 220.177 520.108 219.104L507.418 168.481L512.209 124.278C512.209 124.278 513.407 111.136 502.626 107.552C491.845 103.968 481.064 107.349 481.064 107.349L474.009 116.572C470.487 119.32 464.294 120.694 464.294 120.694C464.294 117.11 464.893 115.318 465.491 114.422V112.044L465.072 111.817L452.842 118.003C449.411 119.739 446.72 122.652 445.261 126.209L442.133 133.835L444.528 135.03C444.528 135.03 437.94 137.419 435.544 145.782L428.357 157.729L422.367 163.702L394.816 178.038Z" fill="#808080" stroke="#333333" stroke-width="2" stroke-linecap="round" stroke-linejoin="round"/>
<path d="M464.294 120.694L463.096 144.588L474.009 116.572L469.085 115.915L464.294 120.694Z" fill="url(#paint4_linear_489_4176)" stroke="#333333" stroke-width="2" stroke-linecap="round" stroke-linejoin="round"/>
<path d="M505.022 142.198L467.887 164.897C467.887 164.897 459.502 169.676 451.117 160.118L434.981 146.379" stroke="#333333" stroke-width="2" stroke-linecap="round" stroke-linejoin="round"/>
<path d="M445.127 135.03L463.096 144.587L482.262 127.862" stroke="#333333" stroke-width="2" stroke-linecap="round" stroke-linejoin="round"/>
<path d="M505.641 183.895C505.262 183.235 504.545 182.847 503.786 182.906C499.747 183.217 486.862 184.387 481.024 187.001C480.3 187.325 479.93 188.104 480.029 188.891L480.477 192.446C480.789 194.919 483.196 196.556 485.616 195.935C490.072 194.788 497.152 193.079 503.872 191.98C506.711 191.514 508.208 188.36 506.771 185.864L505.641 183.895Z" fill="#666666" stroke="#333333" stroke-width="2" stroke-linecap="round" stroke-linejoin="round"/>
<path d="M464.329 186.998L463.132 166.689" stroke="#333333" stroke-width="2"/>
<path d="M479.902 244.94L473.314 229.409H466.126" stroke="#333333" stroke-width="2" stroke-linecap="round" stroke-linejoin="round"/>
<path d="M361.311 192.374L374.452 191.18C382.415 189.182 390.238 187.389 398.242 185.541V185.529L395.415 178.313C389.796 180.733 382.154 185.91 376.105 186.58C375.362 186.676 374.835 186.054 374.296 185.66C373.983 185.426 373.536 185.313 373.193 185.257C372.872 185.206 372.547 185.199 372.222 185.192L372.186 185.191C371.79 185.182 371.25 185.178 370.894 185.206L369.772 184.46C369.339 184.173 368.801 184.049 368.332 184.273C367.616 184.614 367.007 185.138 366.701 185.206C365.522 185.471 365.507 184.5 364.305 184.609C363.401 184.691 363.2 185.742 361.91 185.66C360.979 185.601 360.704 184.935 360.113 185.206C358.639 185.875 358.256 186.592 358.999 188.444C359.256 189.081 359.514 192.374 361.311 192.374Z" fill="white" stroke="#333333" stroke-width="2" stroke-linecap="round" stroke-linejoin="round"/>
<path d="M464.294 120.694C464.294 120.694 470.487 119.32 474.008 116.572C474.284 116.369 474.536 116.142 474.775 115.915L481.064 107.349V98.8433C478.549 101.675 475.314 103.371 471.78 103.371C469.528 103.371 467.396 102.678 465.491 101.448V114.422C464.893 115.318 464.294 117.11 464.294 120.694Z" fill="white" stroke="#333333" stroke-width="2" stroke-linecap="round" stroke-linejoin="round"/>
<path d="M456.544 354.784L456.567 354.762L456.588 354.74C457.282 354.012 457.773 353.376 458.15 352.715L458.189 352.648L458.217 352.575C458.443 351.981 458.648 351.296 458.484 350.547C458.232 348.878 457.603 347.691 456.742 346.658L456.72 346.632L456.698 346.608C455.927 345.799 455.044 345.28 454.148 344.81L453.638 344.543L453.151 344.85C451.714 345.754 449.62 346.3 447.334 346.412C446.18 346.411 444.118 346.287 442.06 346.024C439.944 345.753 438.011 345.353 437.037 344.866L436.726 344.711L436.385 344.782L436.353 344.789C435.834 344.897 435.221 345.026 434.598 345.284C434.323 345.378 434.042 345.453 433.719 345.537L433.704 345.541C433.392 345.623 433.04 345.715 432.682 345.839C426.196 347.803 422.408 350.824 418.74 353.75C418.223 354.162 417.708 354.573 417.189 354.978L417.182 354.983L417.176 354.988C415.724 356.16 414.508 357.407 413.867 358.617L413.857 358.636L413.848 358.655C413.661 359.047 413.509 359.461 413.448 359.866C413.388 360.264 413.4 360.769 413.688 361.224C414.005 361.722 414.462 362.175 415.24 362.588C416.119 363.114 417.359 363.316 418.662 363.388C420.02 363.463 421.622 363.402 423.323 363.287C426.982 363.055 431.063 362.359 434.767 361.673L436.935 361.332L436.955 361.329L436.975 361.325C437.371 361.246 437.779 361.166 438.196 361.083C441.093 360.513 444.459 359.849 447.574 358.975C451.099 357.986 454.499 356.677 456.544 354.784Z" fill="white" stroke="#333333" stroke-width="2"/>
<path d="M539.595 354.394L539.618 354.373L539.639 354.35C540.333 353.622 540.824 352.986 541.201 352.326L541.24 352.258L541.267 352.185C541.494 351.592 541.698 350.906 541.535 350.157C541.283 348.489 540.654 347.301 539.792 346.268L539.771 346.242L539.748 346.218C538.977 345.409 538.094 344.891 537.199 344.421L536.689 344.153L536.201 344.46C534.764 345.365 532.67 345.911 530.385 346.023C529.23 346.021 527.168 345.898 525.111 345.634C522.994 345.363 521.062 344.963 520.088 344.477L519.776 344.321L519.435 344.392L519.404 344.399C518.885 344.508 518.272 344.636 517.649 344.894C517.374 344.989 517.092 345.063 516.77 345.148L516.755 345.152C516.443 345.233 516.091 345.326 515.733 345.45C509.247 347.413 505.459 350.435 501.791 353.36C501.274 353.773 500.759 354.183 500.24 354.588L500.233 354.594L500.227 354.599C498.775 355.77 497.558 357.017 496.918 358.228L496.908 358.246L496.899 358.265C496.712 358.657 496.56 359.071 496.499 359.477C496.439 359.874 496.451 360.38 496.739 360.834C497.056 361.332 497.512 361.785 498.29 362.199C499.17 362.725 500.41 362.927 501.713 362.999C503.07 363.074 504.673 363.013 506.373 362.898C510.033 362.665 514.114 361.969 517.818 361.284L519.986 360.942L520.006 360.939L520.026 360.935C520.422 360.856 520.829 360.776 521.247 360.694C524.144 360.123 527.51 359.46 530.625 358.586C534.15 357.596 537.55 356.288 539.595 354.394Z" fill="white" stroke="#333333" stroke-width="2"/>
<path d="M455.909 85.7496C455.909 93.73 459.335 100.623 464.294 103.837C466.198 105.068 468.331 105.76 470.583 105.76C474.117 105.76 477.351 104.064 479.866 101.233C482.25 98.5924 483.999 94.9367 484.79 90.7672C484.946 90.8031 485.101 90.827 485.257 90.827C486.91 90.827 488.252 88.6885 488.252 86.0483C488.252 83.408 486.91 81.2696 485.257 81.2696C485.137 81.2696 485.005 81.2815 484.886 81.3054C483.412 72.3931 477.566 65.7388 470.583 65.7388C462.473 65.7388 455.909 74.6988 455.909 85.7496Z" fill="white" stroke="#333333" stroke-width="2" stroke-linecap="round" stroke-linejoin="round"/>
<path d="M485.293 84.8535C486.122 85.681 486.12 87.0153 485.293 87.8402" stroke="#333333" stroke-linecap="round"/>
<path fill-rule="evenodd" clip-rule="evenodd" d="M471.803 92.6782C468.983 93.359 468.25 91.9884 468.443 90.8274C468.719 89.2736 470.128 89.8058 470.199 87.2357C471.199 89.2013 468.077 90.7492 469.643 91.9365C469.96 92.1845 470.523 92.4682 471.803 92.6782Z" fill="#333333"/>
<path fill-rule="evenodd" clip-rule="evenodd" d="M467.822 96.8187C470.877 101.432 474.229 95.9864 475.222 95.3279C472.741 102.553 467.307 100.281 467.822 96.8187Z" fill="#333333"/>
<path fill-rule="evenodd" clip-rule="evenodd" d="M473.038 85.9C474.74 82.195 478.886 84.4641 478.823 86.4838C478.617 86.2633 477.758 85.6897 477.262 85.6267C477.027 87.8551 474.338 88.2474 473.703 85.8255C473.42 85.7929 473.254 85.7878 473.038 85.9Z" fill="#333333"/>
<path fill-rule="evenodd" clip-rule="evenodd" d="M461.089 86.3364C462.652 82.5556 466.873 84.684 466.905 86.7066C466.699 86.4861 465.815 85.9593 465.319 85.8965C465.154 88.1508 462.487 88.6153 461.755 86.2381C461.448 86.2286 461.282 86.2234 461.089 86.3364Z" fill="#333333"/>
<path d="M484.198 94.2781L483.508 96.0085L485.331 95.6275C487.529 95.1685 490.073 93.65 491.464 90.4541C492.845 87.2834 493.027 82.6121 490.876 75.9433C488.164 67.5386 484.136 64.1269 480.117 62.7397C478.154 62.0621 476.257 61.8913 474.673 61.7926C474.449 61.7786 474.234 61.7662 474.026 61.7542C473.486 61.7231 472.999 61.695 472.545 61.6499C471.918 61.5878 471.444 61.5002 471.088 61.3661C468.348 60.336 467.506 58.4153 467.405 57.8094L467.086 55.8884L465.711 57.2672C465.105 57.8749 464.411 58.9523 464.207 60.3004C464.068 61.2157 464.16 62.2254 464.618 63.254C460.804 63.5766 456.78 65.5042 454.318 68.4553C452.867 70.1947 451.93 72.3266 451.95 74.718C451.97 77.112 452.947 79.6449 455.103 82.1877L455.428 82.5715L455.93 82.539C458.557 82.3691 462.228 81.4032 465.386 79.6014C467.737 78.2605 469.914 76.3892 471.09 73.939C472.366 76.4558 473.901 78.4456 475.799 79.7547C478.323 81.4962 481.355 81.9427 484.937 81.0449C485.075 81.0102 485.455 80.9813 485.966 81.0818C486.458 81.1786 487.001 81.3824 487.484 81.7374C488.385 82.3987 489.279 83.7358 488.932 86.5219L488.918 86.6332L488.929 86.7449C488.989 87.346 488.839 88.4559 488.328 89.4421C487.831 90.4023 487.071 91.1126 485.962 91.2516L485.376 91.325L485.157 91.8733L484.198 94.2781Z" fill="#808080" stroke="#333333" stroke-width="2"/>
<path d="M329.2 41.6462C329.2 42.0461 329 42.446 328.7 42.746C328.4 43.0459 328 43.2459 327.6 43.1459C326.7 43.1459 326 42.446 326 41.6462V38.1468C326 37.7469 326.2 37.347 326.5 37.047C326.8 36.7471 327.2 36.5471 327.6 36.6471C328.5 36.6471 329.2 37.347 329.2 38.1468V41.6462ZM328.2 38.0468C328.2 37.8469 328.1 37.7469 328 37.6469C327.9 37.5469 327.8 37.447 327.6 37.447C327.5 37.447 327.3 37.5469 327.2 37.6469C327.1 37.7469 327 37.9469 327 38.0468V41.5462C327 41.6462 327.1 41.8462 327.2 41.9461C327.3 42.0461 327.4 42.1461 327.6 42.1461C327.9 42.1461 328.2 41.8462 328.2 41.5462V38.0468Z" fill="#666666"/>
<path d="M378 48.8447C378 49.2446 377.8 49.6445 377.5 49.9445C377.2 50.2444 376.8 50.4444 376.4 50.3444C375.5 50.3444 374.8 49.6445 374.8 48.8447V45.3453C374.8 44.9454 375 44.5455 375.3 44.2455C375.6 43.9456 376 43.7456 376.4 43.8456C377.3 43.8456 378 44.5455 378 45.3453V48.8447ZM376.9 45.3453C376.9 45.0454 376.6 44.7454 376.3 44.7454C376.1 44.7454 376 44.8454 375.9 44.9454C375.8 45.0454 375.7 45.2453 375.7 45.3453V48.8447C375.7 48.9447 375.8 49.1446 375.9 49.2446C376 49.3446 376.1 49.4446 376.3 49.4446C376.6 49.4446 376.9 49.1446 376.9 48.8447V45.3453Z" fill="#666666"/>
<path d="M351.7 17.1505C351.7 17.5505 351.5 17.9504 351.2 18.2503C350.6 18.8502 349.6 18.8502 349 18.2503C348.7 17.9504 348.6 17.5505 348.6 17.1505V13.5512C348.6 13.1513 348.8 12.7513 349.1 12.4514C349.7 11.8515 350.7 11.8515 351.3 12.4514C351.6 12.7513 351.8 13.1513 351.8 13.5512V17.1505H351.7ZM350.7 13.5512C350.7 13.2512 350.5 12.9513 350.1 12.9513C349.9 12.9513 349.8 13.0513 349.7 13.1513C349.6 13.2512 349.5 13.3512 349.5 13.5512V17.1505C349.5 17.4505 349.7 17.7504 350 17.7504C350.3 17.7504 350.6 17.4505 350.6 17.1505L350.7 13.5512Z" fill="#666666"/>
<path d="M329.4 65.1417C329.4 65.5416 329.2 65.9415 328.9 66.2415C328.6 66.5414 328.2 66.7414 327.8 66.6414C327.4 66.6414 327 66.5414 326.7 66.2415C326.4 65.9415 326.2 65.5416 326.2 65.1417V61.6423C326.2 60.7425 326.9 60.1426 327.8 60.1426C328.2 60.1426 328.6 60.3425 328.9 60.6425C329.2 60.9424 329.4 61.3424 329.4 61.7423V65.1417ZM328.4 61.5423C328.4 61.4423 328.3 61.2424 328.2 61.1424C328 60.9424 327.6 60.9424 327.4 61.1424C327.3 61.2424 327.2 61.3424 327.2 61.5423V65.0417C327.2 65.1417 327.3 65.3416 327.4 65.4416C327.6 65.6416 328 65.6416 328.2 65.4416C328.3 65.3416 328.4 65.2416 328.4 65.0417V61.5423Z" fill="#666666"/>
<path d="M337.4 65.1417C337.4 65.5416 337.2 65.9415 336.9 66.2415C336.6 66.5414 336.2 66.7414 335.8 66.6414C334.9 66.6414 334.2 65.9415 334.2 65.1417V61.6423C334.2 60.7425 334.9 60.1426 335.8 60.1426C336.7 60.1426 337.4 60.8425 337.4 61.6423V65.1417ZM336.3 61.5423C336.3 61.4423 336.2 61.2424 336.1 61.1424C336 61.0424 335.9 60.9424 335.7 60.9424C335.5 60.9424 335.4 61.0424 335.3 61.1424C335.2 61.2424 335.1 61.3424 335.1 61.5423V65.0417C335.1 65.1417 335.2 65.3416 335.3 65.4416C335.4 65.5416 335.5 65.6416 335.7 65.6416C336 65.6416 336.3 65.3416 336.3 65.0417V61.5423Z" fill="#666666"/>
<path d="M339 66.6414V61.6423H338.2V60.9424C338.5 60.9424 338.7 60.8425 338.9 60.6425C339.1 60.5425 339.3 60.3425 339.4 60.1426H340.1V66.6414H339Z" fill="#666666"/>
<path d="M341.6 66.6414V61.6423H340.8V60.9424C341.1 60.9424 341.3 60.8425 341.5 60.6425C341.7 60.5425 341.9 60.3425 342 60.1426H342.7V66.6414H341.6Z" fill="#666666"/>
<path d="M344.2 66.6414V61.6423H343.4V60.9424C343.7 60.9424 343.9 60.8425 344.1 60.6425C344.3 60.5425 344.5 60.3425 344.6 60.1426H345.3V66.6414H344.2Z" fill="#666666"/>
<path d="M358 43.0459V38.0468H357.2V37.347C357.5 37.347 357.7 37.247 357.9 37.047C358.1 36.947 358.3 36.7471 358.4 36.5471H359.1V43.0459H358Z" fill="#666666"/>
<path d="M329.2 41.6462C329.2 42.0461 329 42.446 328.7 42.746C328.4 43.0459 328 43.2459 327.6 43.1459C326.7 43.1459 326 42.446 326 41.6462V38.1468C326 37.7469 326.2 37.347 326.5 37.047C326.8 36.7471 327.2 36.5471 327.6 36.6471C328.5 36.6471 329.2 37.347 329.2 38.1468V41.6462ZM328.2 38.0468C328.2 37.8469 328.1 37.7469 328 37.6469C327.9 37.5469 327.8 37.447 327.6 37.447C327.5 37.447 327.3 37.5469 327.2 37.6469C327.1 37.7469 327 37.9469 327 38.0468V41.5462C327 41.6462 327.1 41.8462 327.2 41.9461C327.3 42.0461 327.4 42.1461 327.6 42.1461C327.9 42.1461 328.2 41.8462 328.2 41.5462V38.0468Z" fill="#666666"/>
<path d="M378 48.8447C378 49.2446 377.8 49.6445 377.5 49.9445C377.2 50.2444 376.8 50.4444 376.4 50.3444C375.5 50.3444 374.8 49.6445 374.8 48.8447V45.3453C374.8 44.9454 375 44.5455 375.3 44.2455C375.6 43.9456 376 43.7456 376.4 43.8456C377.3 43.8456 378 44.5455 378 45.3453V48.8447ZM376.9 45.3453C376.9 45.0454 376.6 44.7454 376.3 44.7454C376.1 44.7454 376 44.8454 375.9 44.9454C375.8 45.0454 375.7 45.2453 375.7 45.3453V48.8447C375.7 48.9447 375.8 49.1446 375.9 49.2446C376 49.3446 376.1 49.4446 376.3 49.4446C376.6 49.4446 376.9 49.1446 376.9 48.8447V45.3453Z" fill="#666666"/>
<path d="M351.7 17.1505C351.7 17.5505 351.5 17.9504 351.2 18.2503C350.6 18.8502 349.6 18.8502 349 18.2503C348.7 17.9504 348.6 17.5505 348.6 17.1505V13.5512C348.6 13.1513 348.8 12.7513 349.1 12.4514C349.7 11.8515 350.7 11.8515 351.3 12.4514C351.6 12.7513 351.8 13.1513 351.8 13.5512V17.1505H351.7ZM350.7 13.5512C350.7 13.2512 350.5 12.9513 350.1 12.9513C349.9 12.9513 349.8 13.0513 349.7 13.1513C349.6 13.2512 349.5 13.3512 349.5 13.5512V17.1505C349.5 17.4505 349.7 17.7504 350 17.7504C350.3 17.7504 350.6 17.4505 350.6 17.1505L350.7 13.5512Z" fill="#666666"/>
<path d="M329.4 65.1417C329.4 65.5416 329.2 65.9415 328.9 66.2415C328.6 66.5414 328.2 66.7414 327.8 66.6414C327.4 66.6414 327 66.5414 326.7 66.2415C326.4 65.9415 326.2 65.5416 326.2 65.1417V61.6423C326.2 60.7425 326.9 60.1426 327.8 60.1426C328.2 60.1426 328.6 60.3425 328.9 60.6425C329.2 60.9424 329.4 61.3424 329.4 61.7423V65.1417ZM328.4 61.5423C328.4 61.4423 328.3 61.2424 328.2 61.1424C328 60.9424 327.6 60.9424 327.4 61.1424C327.3 61.2424 327.2 61.3424 327.2 61.5423V65.0417C327.2 65.1417 327.3 65.3416 327.4 65.4416C327.6 65.6416 328 65.6416 328.2 65.4416C328.3 65.3416 328.4 65.2416 328.4 65.0417V61.5423Z" fill="#666666"/>
<path d="M337.4 65.1417C337.4 65.5416 337.2 65.9415 336.9 66.2415C336.6 66.5414 336.2 66.7414 335.8 66.6414C334.9 66.6414 334.2 65.9415 334.2 65.1417V61.6423C334.2 60.7425 334.9 60.1426 335.8 60.1426C336.7 60.1426 337.4 60.8425 337.4 61.6423V65.1417ZM336.3 61.5423C336.3 61.4423 336.2 61.2424 336.1 61.1424C336 61.0424 335.9 60.9424 335.7 60.9424C335.5 60.9424 335.4 61.0424 335.3 61.1424C335.2 61.2424 335.1 61.3424 335.1 61.5423V65.0417C335.1 65.1417 335.2 65.3416 335.3 65.4416C335.4 65.5416 335.5 65.6416 335.7 65.6416C336 65.6416 336.3 65.3416 336.3 65.0417V61.5423Z" fill="#666666"/>
<path d="M339 66.6414V61.6423H338.2V60.9424C338.5 60.9424 338.7 60.8425 338.9 60.6425C339.1 60.5425 339.3 60.3425 339.4 60.1426H340.1V66.6414H339Z" fill="#666666"/>
<path d="M341.6 66.6414V61.6423H340.8V60.9424C341.1 60.9424 341.3 60.8425 341.5 60.6425C341.7 60.5425 341.9 60.3425 342 60.1426H342.7V66.6414H341.6Z" fill="#666666"/>
<path d="M344.2 66.6414V61.6423H343.4V60.9424C343.7 60.9424 343.9 60.8425 344.1 60.6425C344.3 60.5425 344.5 60.3425 344.6 60.1426H345.3V66.6414H344.2Z" fill="#666666"/>
<path d="M358 43.0459V38.0468H357.2V37.347C357.5 37.347 357.7 37.247 357.9 37.047C358.1 36.947 358.3 36.7471 358.4 36.5471H359.1V43.0459H358Z" fill="#666666"/>
<path d="M452.2 321.646C452.2 322.046 452 322.446 451.7 322.746C451.4 323.046 451 323.246 450.6 323.146C449.7 323.146 449 322.446 449 321.646V318.147C449 317.747 449.2 317.347 449.5 317.047C449.8 316.747 450.2 316.547 450.6 316.647C451.5 316.647 452.2 317.347 452.2 318.147V321.646ZM451.2 318.047C451.2 317.847 451.1 317.747 451 317.647C450.9 317.547 450.8 317.447 450.6 317.447C450.5 317.447 450.3 317.547 450.2 317.647C450.1 317.747 450 317.947 450 318.047V321.546C450 321.646 450.1 321.846 450.2 321.946C450.3 322.046 450.4 322.146 450.6 322.146C450.9 322.146 451.2 321.846 451.2 321.546V318.047Z" fill="#666666"/>
<path d="M501 328.845C501 329.245 500.8 329.645 500.5 329.944C500.2 330.244 499.8 330.444 499.4 330.344C498.5 330.344 497.8 329.645 497.8 328.845V325.345C497.8 324.945 498 324.545 498.3 324.246C498.6 323.946 499 323.746 499.4 323.846C500.3 323.846 501 324.545 501 325.345V328.845ZM499.9 325.345C499.9 325.045 499.6 324.745 499.3 324.745C499.1 324.745 499 324.845 498.9 324.945C498.8 325.045 498.7 325.245 498.7 325.345V328.845C498.7 328.945 498.8 329.145 498.9 329.245C499 329.345 499.1 329.445 499.3 329.445C499.6 329.445 499.9 329.145 499.9 328.845V325.345Z" fill="#666666"/>
<path d="M454.7 277.151C454.7 277.55 454.5 277.95 454.2 278.25C453.6 278.85 452.6 278.85 452 278.25C451.7 277.95 451.6 277.55 451.6 277.151V273.551C451.6 273.151 451.8 272.751 452.1 272.451C452.7 271.851 453.7 271.851 454.3 272.451C454.6 272.751 454.8 273.151 454.8 273.551V277.151H454.7ZM453.7 273.551C453.7 273.251 453.5 272.951 453.1 272.951C452.9 272.951 452.8 273.051 452.7 273.151C452.6 273.251 452.5 273.351 452.5 273.551V277.151C452.5 277.45 452.7 277.75 453 277.75C453.3 277.75 453.6 277.45 453.6 277.151L453.7 273.551Z" fill="#666666"/>
<path d="M452.4 345.142C452.4 345.542 452.2 345.942 451.9 346.241C451.6 346.541 451.2 346.741 450.8 346.641C450.4 346.641 450 346.541 449.7 346.241C449.4 345.942 449.2 345.542 449.2 345.142V341.642C449.2 340.742 449.9 340.143 450.8 340.143C451.2 340.143 451.6 340.343 451.9 340.642C452.2 340.942 452.4 341.342 452.4 341.742V345.142ZM451.4 341.542C451.4 341.442 451.3 341.242 451.2 341.142C451 340.942 450.6 340.942 450.4 341.142C450.3 341.242 450.2 341.342 450.2 341.542V345.042C450.2 345.142 450.3 345.342 450.4 345.442C450.6 345.642 451 345.642 451.2 345.442C451.3 345.342 451.4 345.242 451.4 345.042V341.542Z" fill="#666666"/>
<path d="M420.4 345.142C420.4 345.542 420.2 345.942 419.9 346.241C419.6 346.541 419.2 346.741 418.8 346.641C417.9 346.641 417.2 345.942 417.2 345.142V341.642C417.2 340.742 417.9 340.143 418.8 340.143C419.7 340.143 420.4 340.842 420.4 341.642V345.142ZM419.3 341.542C419.3 341.442 419.2 341.242 419.1 341.142C419 341.042 418.9 340.942 418.7 340.942C418.5 340.942 418.4 341.042 418.3 341.142C418.2 341.242 418.1 341.342 418.1 341.542V345.042C418.1 345.142 418.2 345.342 418.3 345.442C418.4 345.542 418.5 345.642 418.7 345.642C419 345.642 419.3 345.342 419.3 345.042V341.542Z" fill="#666666"/>
<path d="M422 346.641V341.642H421.2V340.942C421.5 340.942 421.7 340.842 421.9 340.642C422.1 340.543 422.3 340.343 422.4 340.143H423.1V346.641H422Z" fill="#666666"/>
<path d="M464.6 346.641V341.642H463.8V340.942C464.1 340.942 464.3 340.842 464.5 340.642C464.7 340.543 464.9 340.343 465 340.143H465.7V346.641H464.6Z" fill="#666666"/>
<path d="M467.2 346.641V341.642H466.4V340.942C466.7 340.942 466.9 340.842 467.1 340.642C467.3 340.543 467.5 340.343 467.6 340.143H468.3V346.641H467.2Z" fill="#666666"/>
<path d="M481 323.046V318.047H480.2V317.347C480.5 317.347 480.7 317.247 480.9 317.047C481.1 316.947 481.3 316.747 481.4 316.547H482.1V323.046H481Z" fill="#666666"/>
<path d="M452.2 321.646C452.2 322.046 452 322.446 451.7 322.746C451.4 323.046 451 323.246 450.6 323.146C449.7 323.146 449 322.446 449 321.646V318.147C449 317.747 449.2 317.347 449.5 317.047C449.8 316.747 450.2 316.547 450.6 316.647C451.5 316.647 452.2 317.347 452.2 318.147V321.646ZM451.2 318.047C451.2 317.847 451.1 317.747 451 317.647C450.9 317.547 450.8 317.447 450.6 317.447C450.5 317.447 450.3 317.547 450.2 317.647C450.1 317.747 450 317.947 450 318.047V321.546C450 321.646 450.1 321.846 450.2 321.946C450.3 322.046 450.4 322.146 450.6 322.146C450.9 322.146 451.2 321.846 451.2 321.546V318.047Z" fill="#666666"/>
<path d="M501 328.845C501 329.245 500.8 329.645 500.5 329.944C500.2 330.244 499.8 330.444 499.4 330.344C498.5 330.344 497.8 329.645 497.8 328.845V325.345C497.8 324.945 498 324.545 498.3 324.246C498.6 323.946 499 323.746 499.4 323.846C500.3 323.846 501 324.545 501 325.345V328.845ZM499.9 325.345C499.9 325.045 499.6 324.745 499.3 324.745C499.1 324.745 499 324.845 498.9 324.945C498.8 325.045 498.7 325.245 498.7 325.345V328.845C498.7 328.945 498.8 329.145 498.9 329.245C499 329.345 499.1 329.445 499.3 329.445C499.6 329.445 499.9 329.145 499.9 328.845V325.345Z" fill="#666666"/>
<path d="M484.7 297.151C484.7 297.55 484.5 297.95 484.2 298.25C483.6 298.85 482.6 298.85 482 298.25C481.7 297.95 481.6 297.55 481.6 297.151V293.551C481.6 293.151 481.8 292.751 482.1 292.451C482.7 291.851 483.7 291.851 484.3 292.451C484.6 292.751 484.8 293.151 484.8 293.551V297.151H484.7ZM483.7 293.551C483.7 293.251 483.5 292.951 483.1 292.951C482.9 292.951 482.8 293.051 482.7 293.151C482.6 293.251 482.5 293.351 482.5 293.551V297.151C482.5 297.45 482.7 297.75 483 297.75C483.3 297.75 483.6 297.45 483.6 297.151L483.7 293.551Z" fill="#666666"/>
<path d="M452.4 345.142C452.4 345.542 452.2 345.942 451.9 346.241C451.6 346.541 451.2 346.741 450.8 346.641C450.4 346.641 450 346.541 449.7 346.241C449.4 345.942 449.2 345.542 449.2 345.142V341.642C449.2 340.742 449.9 340.143 450.8 340.143C451.2 340.143 451.6 340.343 451.9 340.642C452.2 340.942 452.4 341.342 452.4 341.742V345.142ZM451.4 341.542C451.4 341.442 451.3 341.242 451.2 341.142C451 340.942 450.6 340.942 450.4 341.142C450.3 341.242 450.2 341.342 450.2 341.542V345.042C450.2 345.142 450.3 345.342 450.4 345.442C450.6 345.642 451 345.642 451.2 345.442C451.3 345.342 451.4 345.242 451.4 345.042V341.542Z" fill="#666666"/>
<path d="M489.4 345.142C489.4 345.542 489.2 345.942 488.9 346.241C488.6 346.541 488.2 346.741 487.8 346.641C486.9 346.641 486.2 345.942 486.2 345.142V341.642C486.2 340.742 486.9 340.143 487.8 340.143C488.7 340.143 489.4 340.842 489.4 341.642V345.142ZM488.3 341.542C488.3 341.442 488.2 341.242 488.1 341.142C488 341.042 487.9 340.942 487.7 340.942C487.5 340.942 487.4 341.042 487.3 341.142C487.2 341.242 487.1 341.342 487.1 341.542V345.042C487.1 345.142 487.2 345.342 487.3 345.442C487.4 345.542 487.5 345.642 487.7 345.642C488 345.642 488.3 345.342 488.3 345.042V341.542Z" fill="#666666"/>
<path d="M491 346.641V341.642H490.2V340.942C490.5 340.942 490.7 340.842 490.9 340.642C491.1 340.543 491.3 340.343 491.4 340.143H492.1V346.641H491Z" fill="#666666"/>
<path d="M493.6 346.641V341.642H492.8V340.942C493.1 340.942 493.3 340.842 493.5 340.642C493.7 340.543 493.9 340.343 494 340.143H494.7V346.641H493.6Z" fill="#666666"/>
<path d="M496.2 346.641V341.642H495.4V340.942C495.7 340.942 495.9 340.842 496.1 340.642C496.3 340.543 496.5 340.343 496.6 340.143H497.3V346.641H496.2Z" fill="#666666"/>
<path d="M481 323.046V318.047H480.2V317.347C480.5 317.347 480.7 317.247 480.9 317.047C481.1 316.947 481.3 316.747 481.4 316.547H482.1V323.046H481Z" fill="#666666"/>
<defs>
<linearGradient id="paint0_linear_489_4176" x1="135" y1="5" x2="134.874" y2="217.39" gradientUnits="userSpaceOnUse">
<stop stop-color="#4B4B4B"/>
<stop offset="1" stop-color="#333333"/>
</linearGradient>
<linearGradient id="paint1_linear_489_4176" x1="338.699" y1="251.832" x2="383.331" y2="316.846" gradientUnits="userSpaceOnUse">
<stop stop-color="#FF8E3D"/>
<stop offset="1" stop-color="#FF6F3D"/>
</linearGradient>
<linearGradient id="paint2_linear_489_4176" x1="371.025" y1="77.6759" x2="370.971" y2="169.307" gradientUnits="userSpaceOnUse">
<stop stop-color="#4B4B4B"/>
<stop offset="1" stop-color="#333333"/>
</linearGradient>
<linearGradient id="paint3_linear_489_4176" x1="475.075" y1="177.923" x2="444.423" y2="197.832" gradientUnits="userSpaceOnUse">
<stop stop-color="#FFC671"/>
<stop offset="0.59375" stop-color="#FF7541"/>
<stop offset="1" stop-color="#FF6F3D"/>
</linearGradient>
<linearGradient id="paint4_linear_489_4176" x1="474.009" y1="114.795" x2="454.383" y2="122.557" gradientUnits="userSpaceOnUse">
<stop stop-color="#FFC671"/>
<stop offset="0.59375" stop-color="#FF7541"/>
<stop offset="1" stop-color="#FF6F3D"/>
</linearGradient>
</defs>
</svg>
