<svg width="24" height="28" viewBox="0 0 24 28" fill="none" xmlns="http://www.w3.org/2000/svg">
<path fill-rule="evenodd" clip-rule="evenodd" d="M16.3978 2.00017C16.1638 1.99432 15.9332 2.13952 15.8417 2.35038C15.7502 2.56125 15.8037 2.82448 15.9705 2.98515L20.9935 7.9844C21.1555 8.14539 21.4193 8.19879 21.6333 8.11384C21.8472 8.02891 21.9984 7.81074 22 7.58484V2.57631C22.0007 2.27452 21.7197 1.99965 21.4113 2.00017H16.3978Z" fill="black"/>
<path fill-rule="evenodd" clip-rule="evenodd" d="M2.58625 2C2.27734 2.00431 1.99946 2.28464 2 2.59116V25.4089C1.99938 25.7154 2.27734 25.9955 2.58625 26H21.4041C21.7162 26 22.0005 25.7185 22 25.4089V10.7151C22.0009 10.5601 21.9372 10.4056 21.827 10.2956L13.6867 2.18119C13.5774 2.06842 13.4215 2.00157 13.2638 2H2.58625Z" fill="white"/>
<path fill-rule="evenodd" clip-rule="evenodd" d="M2.58625 2C2.42981 2.00225 2.28057 2.06558 2.17084 2.17623C2.06111 2.28688 1.99973 2.43594 2 2.59116V25.4089C1.99974 25.5641 2.06111 25.7132 2.17084 25.8238C2.28057 25.9344 2.42982 25.9977 2.58625 26H21.4041C21.4824 26.0001 21.5599 25.9849 21.6323 25.9553C21.7046 25.9256 21.7704 25.8821 21.8257 25.8271C21.8811 25.7722 21.925 25.707 21.9549 25.6353C21.9848 25.5635 22.0001 25.4865 22 25.4089V10.7151C22.0004 10.6373 21.9854 10.5602 21.9557 10.4882C21.926 10.4162 21.8823 10.3508 21.827 10.2956L13.6867 2.18119C13.6319 2.12462 13.5662 2.07945 13.4936 2.04834C13.421 2.01723 13.3429 2.00079 13.2638 2H2.58625ZM3.18212 3.18236H13.0139L20.8083 10.9536V24.8177H3.18212V3.18236Z" fill="black"/>
</svg>
