<svg width="64" height="28" viewBox="0 0 64 28" fill="none" xmlns="http://www.w3.org/2000/svg">
<path d="M62.5 7.41659V21.9208L60.4858 23.8749V9.69113L62.5 7.41651" fill="#E79224"/>
<path d="M60.5179 9.69134H47.1802V23.8924H60.5179V9.69134Z" fill="url(#paint0_linear_1317_8385)"/>
<path d="M49.2693 7.42685L47.1802 9.69189H60.5179L62.4996 7.41727L49.269 7.42685" fill="#FEF26F"/>
<path d="M32.7501 8.04875L45.8699 6.23533L44.7722 9.3633L32.343 11.3232L32.3959 9.08736L32.7501 8.04875Z" fill="#91C9ED"/>
<path d="M44.7721 9.36252L46.5897 22.0852L33.6531 23.8926L31.9062 11.5928L32.6616 11.0059L44.7725 9.36285" fill="url(#paint1_linear_1317_8385)"/>
<path d="M45.8704 6.2349L45.8805 6.31172L47.5821 19.3392L46.5903 22.0854L44.7727 9.36271" fill="#0B9AD6"/>
<path d="M21.6765 6.92032L33.34 12.1918L28.2505 24L16.5869 18.5176L21.6765 6.92032Z" fill="url(#paint2_linear_1317_8385)"/>
<path d="M20.4631 2.91393L21.6688 6.96332L33.2836 12.1744L32.3072 8.30505L20.4631 2.91393Z" fill="#98D0A0"/>
<path d="M20.4632 2.91394L15.7883 13.9458L16.4279 18.7938L21.6688 6.96332L20.4632 2.91394Z" fill="#68BF6B"/>
<path d="M13.9833 9.3461L15.8977 21.8656L3.06168 23.8668L1 11.3234L13.9831 9.34676" fill="url(#paint3_linear_1317_8385)"/>
<path d="M1.00024 11.3211L1.90167 6.85124L14.8621 4.78558L13.9837 9.34448L1.00024 11.3211Z" fill="#EF463D"/>
<path d="M14.8621 4.7855L16.7623 17.4257L15.898 21.8636L13.9836 9.3444L14.8621 4.7855Z" fill="#761116"/>
<path d="M42.5718 11.8009C42.5134 11.4058 42.3777 11.1043 42.1578 10.9068C41.9829 10.7491 41.7629 10.6694 41.5123 10.6698C41.4483 10.6698 41.3824 10.6749 41.3141 10.6848C40.9782 10.7328 40.721 10.8875 40.5633 11.1429C40.4487 11.3274 40.393 11.55 40.393 11.806C40.393 11.9041 40.4013 12.0074 40.4174 12.1158L40.8893 15.4262L37.1696 15.9705L36.6977 12.6594C36.6407 12.2745 36.5068 11.9761 36.2899 11.7733C36.1147 11.6088 35.8962 11.5247 35.6499 11.5253C35.5917 11.5253 35.532 11.5299 35.471 11.5388C35.1209 11.589 34.8543 11.7408 34.6924 11.9924C34.5749 12.1736 34.5183 12.3972 34.5183 12.6573C34.5183 12.7572 34.5268 12.8627 34.543 12.9741L35.8157 21.5836C35.8741 21.9795 36.0134 22.2803 36.2423 22.4747C36.4208 22.6266 36.6446 22.703 36.9009 22.7025C36.9709 22.7025 37.0438 22.697 37.1189 22.686C37.4392 22.6399 37.6865 22.4858 37.8357 22.2308C37.9426 22.0495 37.9946 21.8317 37.9946 21.5824C37.9946 21.4827 37.9864 21.3781 37.9701 21.2686L37.45 17.8671L41.1695 17.3235L41.6899 20.725C41.7472 21.1156 41.8851 21.4147 42.1107 21.6117C42.29 21.7684 42.5116 21.8473 42.7628 21.8469C42.8273 21.8469 42.8935 21.842 42.9617 21.832C43.2963 21.7836 43.5526 21.6312 43.7056 21.3779C43.8158 21.1972 43.869 20.9781 43.869 20.7255C43.869 20.6256 43.8609 20.5205 43.8446 20.41L42.5718 11.8009ZM27.444 16.563C27.0063 17.588 26.4286 18.2912 25.7138 18.6808C25.3307 18.8895 24.9381 18.9927 24.532 18.9929C24.1791 18.9929 23.8154 18.9145 23.4398 18.7564C22.6269 18.4118 22.1205 17.8581 21.9013 17.077C21.8281 16.8149 21.7912 16.5395 21.7912 16.25C21.7912 15.6767 21.9359 15.0477 22.2278 14.3635C22.6753 13.3142 23.2595 12.5984 23.975 12.2064C24.357 11.997 24.7499 11.893 25.1573 11.893C25.5141 11.893 25.8827 11.9724 26.2646 12.1335C27.0723 12.4752 27.5736 13.0302 27.7888 13.8149C27.8588 14.0714 27.894 14.3414 27.894 14.6257C27.894 15.2111 27.7452 15.8571 27.444 16.563ZM28.7164 11.4097C28.26 10.9311 27.7058 10.5548 27.0557 10.2806C26.4104 10.0081 25.758 9.87212 25.1006 9.87212L25.0703 9.87228C24.4027 9.87658 23.7429 10.0243 23.0926 10.3144C22.4118 10.609 21.8186 11.021 21.3153 11.5504C20.8119 12.0795 20.402 12.716 20.0855 13.4573C19.7734 14.1901 19.6001 14.9231 19.5679 15.6563C19.5642 15.7392 19.5625 15.8222 19.5625 15.9049C19.5625 16.5519 19.674 17.1858 19.897 17.8052C20.1335 18.459 20.4823 19.025 20.9423 19.5021C21.402 19.9791 21.9676 20.3588 22.6369 20.6404C23.277 20.9108 23.927 21.0459 24.5853 21.0456H24.6022C25.2662 21.0425 25.9248 20.901 26.5758 20.6229L26.5768 20.6225C27.2617 20.3186 27.859 19.9008 28.3684 19.3721C28.8775 18.8428 29.2891 18.2082 29.6037 17.471C29.9183 16.734 30.0896 16.0001 30.1178 15.2702C30.1205 15.1998 30.1218 15.1296 30.1218 15.0596C30.1218 14.4032 30.0052 13.76 29.7717 13.1308C29.5247 12.4623 29.1725 11.8881 28.7164 11.4097ZM12.6043 19.8705C12.5031 19.7504 12.3669 19.6616 12.2009 19.6038C12.0302 19.5446 11.824 19.5161 11.581 19.5161C11.3521 19.5161 11.0904 19.5415 10.7952 19.5918L7.40721 20.1675C7.44301 19.9079 7.57268 19.5667 7.80127 19.151C8.05662 18.6851 8.43298 18.1257 8.93021 17.4743C9.10083 17.2476 9.23149 17.0741 9.32162 16.9545C9.38632 16.8748 9.47645 16.7576 9.59324 16.6026C10.3682 15.5917 10.8479 14.7686 11.0318 14.1225C11.1371 13.7562 11.2011 13.3871 11.2243 13.0154C11.2306 12.9136 11.2335 12.8126 11.2335 12.7123C11.2335 12.446 11.2116 12.1837 11.1672 11.9256C11.1269 11.6903 11.0686 11.4947 10.9906 11.3377C10.9125 11.181 10.8134 11.0618 10.691 10.9866C10.5531 10.9031 10.3589 10.8677 10.105 10.8673C9.89535 10.8673 9.64391 10.8926 9.34961 10.9424L5.43433 11.6086C4.9602 11.6893 4.61008 11.8281 4.38672 12.0372C4.20921 12.2028 4.1175 12.4173 4.11841 12.6635C4.11841 12.7278 4.12431 12.7943 4.13627 12.8631C4.19135 13.1939 4.3647 13.4364 4.64422 13.5598C4.80918 13.6338 5.00854 13.6692 5.24121 13.6692C5.39969 13.6692 5.5738 13.6527 5.76402 13.6205L9.04102 13.071C9.04658 13.1286 9.05041 13.1861 9.05041 13.2431C9.05041 13.4467 9.01494 13.6455 8.94392 13.8412C8.84665 14.1109 8.6036 14.4964 8.21627 14.9865C8.10654 15.1203 7.93841 15.3288 7.71189 15.6113C6.82816 16.6757 6.19521 17.5833 5.8122 18.3382C5.8122 18.3385 5.81244 18.3378 5.8122 18.3382C5.8122 18.3382 5.81195 18.3392 5.81186 18.3392C5.53999 18.8588 5.35127 19.3706 5.24777 19.8744C5.18746 20.1683 5.15698 20.4504 5.15698 20.7212C5.15698 20.915 5.17259 21.1027 5.20391 21.2843C5.24876 21.5449 5.31347 21.7598 5.40061 21.9302C5.48774 22.0997 5.59889 22.2265 5.73611 22.3015C5.86386 22.3704 6.05159 22.3977 6.31001 22.3985C6.63803 22.3985 7.0796 22.3504 7.63855 22.2556L11.1911 21.6516C11.8202 21.5439 12.2577 21.3948 12.512 21.1871C12.7152 21.0212 12.8204 20.7934 12.8193 20.5251C12.8193 20.4572 12.813 20.3871 12.8003 20.3141C12.7705 20.1399 12.7054 19.9905 12.6043 19.8705ZM9.59324 16.6026C9.59299 16.6028 9.59332 16.6026 9.59324 16.6026V16.6026ZM55.741 19.4801C55.23 20.0942 54.5418 20.399 53.6535 20.3999C52.7591 20.399 52.0681 20.0952 51.5542 19.4842C51.0419 18.8728 50.7826 18.0322 50.7822 16.9532C50.7826 15.8536 51.0409 15.0004 51.5505 14.3842C52.0614 13.7682 52.7544 13.4624 53.6535 13.4612C54.5418 13.4624 55.2297 13.768 55.741 14.3842C56.2509 15.0004 56.5097 15.8536 56.5097 16.9532C56.5097 18.0271 56.2515 18.8669 55.741 19.4801ZM58.4822 14.8004C58.2182 14.141 57.8275 13.5497 57.3108 13.0281C56.8163 12.5267 56.2603 12.1482 55.6466 11.8942C55.0321 11.6401 54.3679 11.5132 53.6545 11.5134C52.9361 11.5132 52.2654 11.64 51.6463 11.8941C51.0273 12.1481 50.4717 12.5268 49.9819 13.0283C49.466 13.5448 49.0768 14.1339 48.8184 14.7931C48.5602 15.4529 48.4308 16.1725 48.4308 16.951C48.4308 17.7195 48.5605 18.4366 48.8226 19.1007C49.0834 19.7649 49.4705 20.3612 49.9819 20.8877C50.4613 21.3802 51.011 21.7527 51.6273 22.0041C52.2439 22.2552 52.9204 22.3809 53.6545 22.3809C54.3622 22.3809 55.0257 22.2552 55.642 22.0041C56.2586 21.7529 56.8157 21.3806 57.3105 20.8884C57.8275 20.3614 58.2182 19.7669 58.4822 19.1047C58.7464 18.4432 58.8783 17.7246 58.8783 16.951C58.8783 16.1775 58.7464 15.46 58.4822 14.8004Z" fill="white"/>
<defs>
<linearGradient id="paint0_linear_1317_8385" x1="53.8495" y1="9.88791" x2="53.8495" y2="23.458" gradientUnits="userSpaceOnUse">
<stop stop-color="#FFE500"/>
<stop offset="1" stop-color="#FCB822"/>
</linearGradient>
<linearGradient id="paint1_linear_1317_8385" x1="32.569" y1="11.3233" x2="45.8893" y2="22.0816" gradientUnits="userSpaceOnUse">
<stop stop-color="#168CCC"/>
<stop offset="1" stop-color="#00649E"/>
</linearGradient>
<linearGradient id="paint2_linear_1317_8385" x1="24.8556" y1="11.6969" x2="24.8556" y2="23.5854" gradientUnits="userSpaceOnUse">
<stop stop-color="#25A149"/>
<stop offset="1" stop-color="#008A52"/>
</linearGradient>
<linearGradient id="paint3_linear_1317_8385" x1="7.51139" y1="10.5346" x2="9.54491" y2="22.8811" gradientUnits="userSpaceOnUse">
<stop stop-color="#D92231"/>
<stop offset="1" stop-color="#BA2234"/>
</linearGradient>
</defs>
</svg>
