<svg width="600" height="600" viewBox="0 0 600 600" fill="none" xmlns="http://www.w3.org/2000/svg">
<g clip-path="url(#clip0_1779_19906)">
<path opacity="0.05" fill-rule="evenodd" clip-rule="evenodd" d="M44.2463 0C19.9352 0 0 19.4489 0 44.2463V555.753C0 580.065 19.4489 600 44.2463 600H555.754C580.065 600 600 580.551 600 555.753V44.2463C600 19.9351 580.551 0 555.754 0H44.2463ZM88.978 100.162C88.978 93.8414 93.8402 88.9791 100.161 88.9791H166.774C173.095 88.9791 177.957 93.8414 177.957 100.162V166.775C177.957 173.096 173.095 177.958 166.774 177.958H100.161C93.8402 177.958 88.978 173.096 88.978 166.775V100.162ZM211.019 88.9791C204.698 88.9791 199.836 93.8414 199.836 100.162V166.775C199.836 173.096 204.698 177.958 211.019 177.958H277.632C283.953 177.958 288.815 173.096 288.815 166.775V100.162C288.815 93.8414 283.953 88.9791 277.632 88.9791H211.019ZM311.183 100.162C311.183 93.8414 316.045 88.9791 322.366 88.9791H388.979C395.3 88.9791 400.162 93.8414 400.162 100.162V166.775C400.162 173.096 395.3 177.958 388.979 177.958H322.366C316.045 177.958 311.183 173.096 311.183 166.775V100.162ZM100.161 200.324C93.8402 200.324 88.978 205.186 88.978 211.507V278.12C88.978 284.44 93.8402 289.303 100.161 289.303H166.774C173.095 289.303 177.957 284.44 177.957 278.12V211.507C177.957 205.186 173.095 200.324 166.774 200.324H100.161ZM199.836 211.02C199.836 204.7 204.698 199.837 211.019 199.837H277.632C283.953 199.837 288.815 204.7 288.815 211.02V278.119C288.815 284.44 283.953 289.302 277.632 289.302H211.019C204.698 289.302 199.836 284.44 199.836 278.119V211.02ZM433.711 200.324C427.39 200.324 422.528 205.186 422.528 211.507V278.12C422.528 284.44 427.39 289.303 433.711 289.303H500.324C506.645 289.303 511.507 284.44 511.507 278.12V211.507C511.507 205.186 506.645 200.324 500.324 200.324H433.711ZM88.978 322.366C88.978 316.045 93.8402 311.183 100.161 311.183H166.774C173.095 311.183 177.957 316.045 177.957 322.366V388.979C177.957 395.3 173.095 400.162 166.774 400.162H100.161C93.8402 400.162 88.978 395.3 88.978 388.979V322.366ZM322.366 311.183C316.045 311.183 311.183 316.045 311.183 322.366V388.979C311.183 395.3 316.045 400.162 322.366 400.162H388.979C395.3 400.162 400.162 395.3 400.162 388.979V322.366C400.162 316.045 395.3 311.183 388.979 311.183H322.366ZM422.528 322.366C422.528 316.045 427.39 311.183 433.711 311.183H500.324C506.645 311.183 511.507 316.045 511.507 322.366V388.979C511.507 395.3 506.645 400.162 500.324 400.162H433.711C427.39 400.162 422.528 395.3 422.528 388.979V322.366ZM211.019 422.528C204.698 422.528 199.836 427.39 199.836 433.711V500.324C199.836 506.644 204.698 511.507 211.019 511.507H277.632C283.953 511.507 288.815 506.644 288.815 500.324V433.711C288.815 427.39 283.953 422.528 277.632 422.528H211.019ZM311.183 433.711C311.183 427.39 316.045 422.528 322.366 422.528H388.979C395.3 422.528 400.162 427.39 400.162 433.711V500.324C400.162 506.644 395.3 511.507 388.979 511.507H322.366C316.045 511.507 311.183 506.644 311.183 500.324V433.711ZM433.711 422.528C427.39 422.528 422.528 427.39 422.528 433.711V500.324C422.528 506.644 427.39 511.507 433.711 511.507H500.324C506.645 511.507 511.507 506.644 511.507 500.324V433.711C511.507 427.39 506.645 422.528 500.324 422.528H433.711Z" fill="white"/>
</g>
<defs>
<clipPath id="clip0_1779_19906">
<rect width="600" height="600" fill="white"/>
</clipPath>
</defs>
</svg>
