<svg width="56" height="126" viewBox="0 0 56 126" fill="none" xmlns="http://www.w3.org/2000/svg">
<g clip-path="url(#clip0_109_22661)">
<path fill-rule="evenodd" clip-rule="evenodd" d="M1 35.8363V49.1248C1 50.7085 2.28252 52 3.84034 52H38.377C39.9416 52 41 51.2049 41 49.628V47.249V15.982L40.9729 5.73845V4.8752C40.9729 3.29146 39.6904 2 38.1326 2H10.8573L1 11.9782V35.8363Z" fill="#FEFEFE"/>
<path d="M40.9729 4.8752V5.73845L41 15.982V28H40L40 15.9846L40 15.982L39.9729 5.73845L39.9729 4.8752C39.9729 3.83376 39.1282 3 38.1326 3H11.2751L2 12.3889V49.1248C2 50.1662 2.84474 51 3.84034 51H14V52H3.84034C2.28252 52 1 50.7085 1 49.1248V11.9782L10.8573 2H38.1326C39.6904 2 40.9729 3.29146 40.9729 4.8752Z" fill="#333333"/>
<rect x="16" y="14" width="20" height="1" rx="0.5" fill="#333333"/>
<rect x="7" y="17" width="29" height="1" rx="0.5" fill="#333333"/>
<rect x="7" y="20" width="29" height="1" rx="0.5" fill="#333333"/>
<rect x="7" y="23" width="29" height="1" rx="0.5" fill="#333333"/>
<rect x="7" y="26" width="29" height="1" rx="0.5" fill="#333333"/>
<path d="M10.6465 3.06055C10.9614 2.74571 11.4999 2.96875 11.5 3.41406V9.25C11.5 10.039 11.1128 10.8559 10.4863 11.4834C9.85998 12.1108 9.04331 12.5 8.25 12.5H2.41406C1.99657 12.4999 1.77451 12.0267 2.00781 11.708L2.06055 11.6465L10.6465 3.06055Z" fill="url(#paint0_linear_109_22661)" stroke="#333333"/>
<path fill-rule="evenodd" clip-rule="evenodd" d="M17.0002 8H35C36.3333 8 36.3333 10 35 10H17.0005C15.6666 10 15.6667 8 17.0002 8Z" fill="url(#paint1_linear_109_22661)"/>
<path d="M45 36.5C46.3807 36.5 47.5 37.6193 47.5 39V55.5H22.5V39C22.5 37.6193 23.6193 36.5 25 36.5H45Z" fill="white" stroke="#333333"/>
<path d="M45 36.5C46.3807 36.5 47.5 37.6193 47.5 39V40.5H22.5V39L22.5127 38.7441C22.6408 37.4836 23.7057 36.5 25 36.5H45Z" fill="url(#paint2_linear_109_22661)" stroke="#333333"/>
<path d="M32.7155 50.8892L27.8906 48.4925V47.71L32.7155 44.9959V46.3092L29.392 48.0438L32.7155 49.5814V50.8892Z" fill="#333333"/>
<path d="M36.1264 44C36.5619 44 36.8698 44.4262 36.7329 44.8396L34.5078 51.5619C34.4212 51.8234 34.1768 52 33.9013 52V52C33.4658 52 33.158 51.5738 33.2948 51.1604L35.52 44.4381C35.6065 44.1766 35.851 44 36.1264 44V44Z" fill="#333333"/>
<path d="M37.288 49.5814L40.6115 48.0438L37.288 46.3092V44.9959L42.1128 47.71V48.4925L37.288 50.8892V49.5814Z" fill="#333333"/>
<path d="M9.47754 87.5H45.5225C46.6143 87.5 47.5 88.3852 47.5 89.4707V107.529C47.5 108.638 46.6774 109.5 45.6084 109.5H9.47754C8.38573 109.5 7.5 108.615 7.5 107.529V89.4707C7.5 88.3852 8.38573 87.5 9.47754 87.5Z" fill="#F5F5F5" stroke="#333333" stroke-miterlimit="10"/>
<path d="M13 72.5H36.2217C36.5709 72.5 36.9075 72.6218 37.1748 72.8418L37.2842 72.9414L43.0635 78.7461C43.3432 79.0272 43.5 79.4081 43.5 79.8047V111C43.5 111.828 42.8284 112.5 42 112.5H13C12.1716 112.5 11.5 111.828 11.5 111V74C11.5 73.2233 12.0903 72.5846 12.8467 72.5078L13 72.5Z" fill="white" stroke="#333333" stroke-miterlimit="10" stroke-linecap="round" stroke-linejoin="round"/>
<path fill-rule="evenodd" clip-rule="evenodd" d="M45.9165 122H8.67562C7.46594 122 6.42907 121.143 6.16986 120.029L3.05925 106.314C2.71362 104.686 3.9233 103.143 5.56501 103.143H19.3899L22.9326 98.9429C23.451 98.3429 24.1423 98 24.9199 98H49.3728C51.0145 98 52.2242 99.4571 51.9649 101L48.5951 119.857C48.2495 121.143 47.2126 122 45.9165 122Z" fill="#D9F4FF"/>
<path d="M19.3899 103.143H5.56501C3.9233 103.143 2.71362 104.686 3.05925 106.314L6.16986 120.029C6.42907 121.143 7.46594 122 8.67562 122H22V121H8.67562C7.93634 121 7.30022 120.469 7.14439 119.804L7.14385 119.802L4.03619 106.101C3.82092 105.069 4.58923 104.143 5.56501 104.143H19.3899C19.6846 104.143 19.9643 104.013 20.1543 103.788L23.6928 99.5926C24.0386 99.1943 24.4608 99 24.9199 99H49.3728C50.4027 99 51.1318 99.9067 50.9795 100.83L50.9788 100.834L50.7031 102.377L51.6949 102.511L51.9649 101C52.2242 99.4571 51.0145 98 49.3728 98H24.9199C24.1423 98 23.451 98.3429 22.9326 98.9429L19.3899 103.143Z" fill="#333333"/>
<path d="M35.5 73.2451C35.5002 72.8394 35.9511 72.6131 36.2725 72.8252L36.335 72.874L42.7285 78.6279C43.0691 78.9345 42.8518 79.5 42.3936 79.5H36C35.7239 79.5 35.5 79.2761 35.5 79V73.2451Z" fill="url(#paint3_linear_109_22661)" stroke="#333333" stroke-miterlimit="10" stroke-linecap="round" stroke-linejoin="round"/>
<path d="M24 77.5L24.1006 77.5098C24.3286 77.5563 24.5 77.7583 24.5 78V86C24.5 86.2761 24.2761 86.5 24 86.5H16C15.7239 86.5 15.5 86.2761 15.5 86V78L15.5098 77.8994C15.5563 77.6714 15.7583 77.5 16 77.5H24Z" fill="white" stroke="#333333" stroke-miterlimit="10" stroke-linecap="round" stroke-linejoin="round"/>
<path d="M24.5 86C24.5 86.2761 24.2761 86.5 24 86.5H16C15.8039 86.5 15.626 86.3855 15.5449 86.207C15.4639 86.0287 15.4944 85.8195 15.623 85.6719L18.4805 82.3984L18.5547 82.3301C18.6348 82.2691 18.7319 82.2333 18.834 82.2285C18.9703 82.2223 19.1034 82.272 19.2021 82.3662L19.9463 83.0762L21.3213 81.3281L21.3994 81.248C21.4854 81.1784 21.5933 81.1386 21.7061 81.1367C21.8567 81.1343 22.0009 81.2 22.0977 81.3154L24.3828 84.043C24.4583 84.133 24.5 84.2468 24.5 84.3643V86Z" fill="#EFEFEF" stroke="#333333" stroke-miterlimit="10" stroke-linecap="round" stroke-linejoin="round"/>
<path d="M17.8175 80.9084C18.42 80.9084 18.9084 80.42 18.9084 79.8175C18.9084 79.215 18.42 78.7266 17.8175 78.7266C17.215 78.7266 16.7266 79.215 16.7266 79.8175C16.7266 80.42 17.215 80.9084 17.8175 80.9084Z" fill="#FF6F3D"/>
<rect x="15.5" y="90.5" width="24" height="3" rx="0.5" fill="#D9F4FF" stroke="#333333"/>
<rect x="28.5" y="83.5" width="11" height="3" rx="0.5" fill="#D9F4FF" stroke="#333333"/>
<path d="M48 106.5C49.3807 106.5 50.5 107.619 50.5 109V125.5H25.5V109C25.5 107.619 26.6193 106.5 28 106.5H48Z" fill="white" stroke="#333333"/>
<path d="M48 106.5C49.3807 106.5 50.5 107.619 50.5 109V110.5H25.5V109L25.5127 108.744C25.6408 107.484 26.7057 106.5 28 106.5H48Z" fill="url(#paint4_linear_109_22661)" stroke="#333333"/>
<path d="M35.7155 120.889L30.8906 118.492V117.71L35.7155 114.996V116.309L32.392 118.044L35.7155 119.581V120.889Z" fill="#333333"/>
<path d="M39.1264 114C39.5619 114 39.8698 114.426 39.7329 114.84L37.5078 121.562C37.4212 121.823 37.1768 122 36.9013 122V122C36.4658 122 36.158 121.574 36.2948 121.16L38.52 114.438C38.6065 114.177 38.851 114 39.1264 114V114Z" fill="#333333"/>
<path d="M40.288 119.581L43.6115 118.044L40.288 116.309V114.996L45.1128 117.71V118.492L40.288 120.889V119.581Z" fill="#333333"/>
</g>
<defs>
<linearGradient id="paint0_linear_109_22661" x1="4.39059" y1="5.2251" x2="8.80864" y2="10.0947" gradientUnits="userSpaceOnUse">
<stop stop-color="#FFC671"/>
<stop offset="1" stop-color="#FF6F3D"/>
</linearGradient>
<linearGradient id="paint1_linear_109_22661" x1="16" y1="7.92187" x2="16.3817" y2="11.8881" gradientUnits="userSpaceOnUse">
<stop stop-color="#FF8E3D"/>
<stop offset="1" stop-color="#FF6F3D"/>
</linearGradient>
<linearGradient id="paint2_linear_109_22661" x1="35" y1="37" x2="35" y2="40" gradientUnits="userSpaceOnUse">
<stop stop-color="#FF8E3D"/>
<stop offset="1" stop-color="#FF6F3D"/>
</linearGradient>
<linearGradient id="paint3_linear_109_22661" x1="35.6786" y1="76.0625" x2="45.6786" y2="76.0625" gradientUnits="userSpaceOnUse">
<stop stop-color="#FF8E3D"/>
<stop offset="0.3567" stop-color="#FF883D"/>
<stop offset="0.8477" stop-color="#FF763D"/>
<stop offset="1" stop-color="#FF6F3D"/>
</linearGradient>
<linearGradient id="paint4_linear_109_22661" x1="38" y1="107" x2="38" y2="110" gradientUnits="userSpaceOnUse">
<stop stop-color="#FF8E3D"/>
<stop offset="1" stop-color="#FF6F3D"/>
</linearGradient>
<clipPath id="clip0_109_22661">
<rect width="56" height="126" rx="5" fill="white"/>
</clipPath>
</defs>
</svg>
