<svg width="89" height="664" viewBox="0 0 89 664" fill="none" xmlns="http://www.w3.org/2000/svg">
<g clip-path="url(#clip0_3907_9245)">
<rect x="0.75" width="88" height="88" rx="9" fill="#1B406D"/>
<path fill-rule="evenodd" clip-rule="evenodd" d="M41.8165 65.8699L22.0151 56.6773C20.3283 55.8748 20.3283 54.6345 22.0151 53.905L28.9089 50.6948L41.7431 56.6773C43.4299 57.4799 46.1435 57.4799 47.7569 56.6773L60.5911 50.6948L67.4849 53.905C69.1717 54.7075 69.1717 55.9478 67.4849 56.6773L47.6835 65.8699C46.1435 66.5995 43.4299 66.5995 41.8165 65.8699Z" fill="#FF6F3D"/>
<path fill-rule="evenodd" clip-rule="evenodd" d="M41.7523 54.4228L22.0112 45.2196C20.3296 44.4161 20.3296 43.1744 22.0112 42.444L28.7378 39.3032L41.7523 45.3657C43.4339 46.1691 46.1392 46.1691 47.7477 45.3657L60.7622 39.3032L67.4888 42.444C69.1704 43.2475 69.1704 44.4892 67.4888 45.2196L47.7477 54.4228C46.0661 55.2263 43.3608 55.2263 41.7523 54.4228Z" fill="#95C038"/>
<path fill-rule="evenodd" clip-rule="evenodd" d="M41.7523 43.0537L22.0112 33.9829C20.3296 33.191 20.3296 31.9672 22.0112 31.2473L41.7523 22.1764C43.4339 21.3845 46.1392 21.3845 47.7477 22.1764L67.4888 31.2473C69.1704 32.0392 69.1704 33.263 67.4888 33.9829L47.7477 43.0537C46.0661 43.7737 43.3608 43.7737 41.7523 43.0537Z" fill="#5DC0E8"/>
<rect x="0.75" y="96" width="88" height="88" rx="9" fill="#000E9C"/>
<path d="M20.75 123.614L40.3789 121.05V139.105H20.75V123.614ZM42.7431 120.694L68.75 117.078V138.953H42.7431V120.694ZM20.75 141.015H40.3789V159.123L20.75 156.506V141.015ZM42.7431 141.256H68.75V162.923L42.7431 159.416" fill="white"/>
<rect x="0.75" y="192" width="88" height="88" rx="9" fill="#F5F5F5"/>
<g clip-path="url(#clip1_3907_9245)">
<path d="M40.1043 233.955L42.2374 235.969L40.1043 237.983H25.0885V244.693L15.9312 235.969L25.0885 227.392V233.955H40.1043ZM46.7047 216.82H64.9496V234.144H46.7047V216.82Z" fill="#932279"/>
<path d="M46.9037 231.589L44.7828 233.614L42.6619 231.589V217.331H35.5947L44.7828 208.636L53.8158 217.331H46.9037V231.589ZM46.7047 237.856H64.9496V255.18H46.7047V237.856Z" fill="#EFA724"/>
<path d="M49.3962 238.045L47.2626 236.031L49.3962 234.018H64.4116V227.307L73.5693 236.031L64.4116 244.608V238.045H49.3962ZM24.5504 237.856H42.7953V255.181H24.5504V237.856Z" fill="#262577"/>
<path d="M42.5964 240.411L44.7172 238.385L46.8385 240.411V254.669H53.9053L44.7172 263.364L35.6846 254.669H42.5964V240.411ZM24.5504 216.82H42.7953V234.144H24.5504V216.82Z" fill="#9CCD2A"/>
<path d="M23.8987 216.202H43.447V234.763H23.8987V216.202ZM25.2017 233.526H42.1436V217.439H25.2017V233.526ZM46.0535 216.202H65.6018V234.763H46.0535V216.202ZM47.3565 233.526H64.2984V217.439H47.3565V233.526ZM46.0535 237.238H65.6018V255.8H46.0535V237.238ZM47.3565 254.562H64.2984V238.475H47.3565V254.562ZM23.8987 237.238H43.447V255.8H23.8987V237.238ZM25.2017 254.562H42.1436V238.475H25.2017V254.562Z" fill="white"/>
<path d="M29.0845 249.125L15.2614 236L29.0841 222.875L42.9072 236L29.0845 249.125ZM17.1045 236L29.0845 247.375L41.064 236L29.0841 224.625L17.1045 236ZM44.75 234.25L30.9273 221.125L44.75 208L58.5727 221.125L44.75 234.25ZM32.7704 221.125L44.75 232.5L56.7299 221.125L44.75 209.75L32.7704 221.125ZM60.4159 249.125L46.5932 236L60.4159 222.875L74.2386 236L60.4159 249.125ZM48.4359 236L60.4159 247.375L72.3954 236L60.4159 224.625L48.4359 236ZM44.75 264L30.9273 250.875L44.75 237.75L58.5727 250.875L44.75 264ZM32.7704 250.875L44.75 262.25L56.7299 250.875L44.75 239.5L32.7704 250.875Z" fill="white"/>
</g>
<rect x="0.75" y="288" width="88" height="88" rx="9" fill="#F5F5F5"/>
<g clip-path="url(#clip2_3907_9245)">
<path d="M24.3643 314.806C21.8119 315.331 19.0705 317.37 17.9313 319.605C16.792 321.839 16.75 322.389 16.75 331.796C16.75 336.816 16.834 340.95 16.96 341.596C17.709 345.425 20.7032 348.419 24.5322 349.168C25.6925 349.378 40.7941 349.485 40.7941 349.252C40.7941 349.083 39.5079 344.022 39.444 343.959C39.423 343.917 36.7438 343.326 33.4958 342.629C25.9235 340.984 26.1458 341.047 25.5227 340.287L24.9741 339.633V324.321L25.5227 323.656C26.1554 322.896 25.9235 322.96 33.4958 321.314L39.444 319.984C39.5088 319.941 40.795 314.878 40.795 314.719C40.795 314.517 25.3775 314.614 24.3643 314.824V314.806ZM48.81 314.838C48.831 315.217 50.0123 319.858 50.14 319.984C50.182 320.047 53.0713 320.702 56.531 321.44C59.9907 322.177 63.0699 322.927 63.3438 323.085C63.7148 323.3 64.0263 323.604 64.2511 323.97C64.5889 324.561 64.6309 325.193 64.6309 331.985C64.6309 338.777 64.5889 339.409 64.2511 340C64.0211 340.361 63.7105 340.664 63.3438 340.886C63.0699 341.034 60.0187 341.771 56.531 342.531L50.14 343.996C50.0131 344.123 48.8319 348.763 48.81 349.143C48.81 349.375 50.329 349.417 56.9939 349.353C66.1814 349.269 66.2951 349.248 68.6366 347.666C70.3184 346.508 71.5889 344.847 72.2644 342.92C72.7491 341.507 72.7491 341.38 72.7491 331.994C72.7491 322.608 72.7491 322.481 72.2644 321.068C71.5885 319.141 70.3182 317.479 68.6366 316.322C66.2951 314.741 66.1901 314.719 56.9939 314.636C50.329 314.573 48.81 314.604 48.81 314.846V314.838ZM39.395 331.552C39.3274 331.777 39.313 332.016 39.353 332.248C39.416 332.598 39.7957 332.627 44.7518 332.69L50.0674 332.732V331.256H44.8025C40.3942 331.256 39.4869 331.298 39.4038 331.551L39.395 331.552Z" fill="#373C41"/>
</g>
<rect x="0.75" y="384" width="88" height="88" rx="9" fill="#F39D39"/>
<g clip-path="url(#clip3_3907_9245)">
<path fill-rule="evenodd" clip-rule="evenodd" d="M38.2548 406.845H51.1407V421.778H38.2548V406.845ZM54.9589 421.778V406.845H68.9318V421.778H54.9589ZM34.4366 406.845H20.5682V421.778H34.4366V406.845ZM16.75 403.111H20.5682H68.9318H72.75V406.845V421.778V425.511H68.9318H20.5682H16.75V421.778V406.845V403.111ZM38.2548 434.222H51.1407V449.156H38.2548V434.222ZM54.9589 449.156V434.222H68.9318V449.156H54.9589ZM34.4366 434.222H20.5682V449.156H34.4366V434.222ZM16.75 430.489H20.5682H68.9318H72.75V434.222V449.156V452.889H68.9318H20.5682H16.75V449.156V434.222V430.489Z" fill="white"/>
</g>
<rect x="0.75" y="480" width="88" height="88" rx="9" fill="#099CEC"/>
<g clip-path="url(#clip4_3907_9245)">
<path d="M47.3118 511.037H41.6522V516.184H47.3118V511.037Z" fill="white"/>
<path d="M47.3118 517.22H41.6522V522.308H47.3118V517.22Z" fill="white"/>
<path d="M40.6275 511.037H34.9679V516.184H40.6275V511.037Z" fill="white"/>
<path d="M54.0081 517.208H48.3485V522.296H54.0081V517.208Z" fill="white"/>
<path d="M47.3118 504.817H41.6522V510.012H47.3118V504.817Z" fill="white"/>
<path d="M33.9316 511.037H28.272V516.184H33.9316V511.037Z" fill="white"/>
<path d="M40.6275 517.208H34.9679V522.296H40.6275V517.208Z" fill="white"/>
<path d="M71.0105 519.604C69.7713 518.769 66.9356 518.472 64.7552 518.889C64.4692 516.839 63.3254 515.04 61.2403 513.432L60.0369 512.633L59.2386 513.837C57.6658 516.22 57.2369 520.14 58.9169 522.725C58.1662 523.13 56.7126 523.678 54.7705 523.643H17.5603C16.8096 527.992 18.0607 533.639 21.3254 537.524C24.4948 541.277 29.2607 543.183 35.4922 543.183C48.9679 543.183 58.9526 536.975 63.6113 525.692C65.4462 525.728 69.402 525.704 71.4275 521.82C71.5586 521.605 71.9875 520.688 72.1543 520.354L71.0105 519.604Z" fill="white"/>
<path d="M27.2592 517.208H27.2473H21.5996V522.296H27.2592V517.208Z" fill="white"/>
<path d="M33.9316 517.208H28.272V522.296H33.9316V517.208Z" fill="white"/>
</g>
<rect x="0.75" y="576" width="88" height="88" rx="9" fill="#F5F5F5"/>
<path d="M62.0174 615.968C62.0737 617.479 61.5765 618.214 61.1267 619.512L60.3181 619.914C59.657 621.199 60.3837 620.73 59.9103 621.751C58.877 622.669 56.7793 624.621 56.1075 624.8C55.6165 624.79 56.4397 624.221 56.5473 623.999C55.1656 624.947 55.4383 625.423 53.3249 626L53.2636 625.862C48.0537 628.313 40.816 623.455 40.9111 616.828C40.856 617.249 40.7528 617.143 40.6378 617.312C40.3688 613.903 42.2127 610.479 45.3223 609.078C48.3639 607.574 51.9296 608.19 54.1068 610.222C52.9109 608.655 50.5286 606.993 47.7072 607.147C44.9421 607.192 42.3546 608.949 41.4915 610.857C40.0755 611.748 39.9104 614.295 39.2936 614.761C38.4625 620.866 40.8555 623.502 44.904 626.605C45.5394 627.034 45.0829 627.099 45.1679 627.426C43.8232 626.797 42.5923 625.846 41.5791 624.682C42.117 625.468 42.6967 626.232 43.4466 626.833C42.1776 626.404 40.4833 623.76 39.9898 623.653C42.1758 627.567 48.8574 630.517 52.358 629.053C50.7381 629.113 48.681 629.086 46.8622 628.413C46.096 628.02 45.0585 627.206 45.2442 627.054C50.0201 628.837 54.9523 628.404 59.084 625.092C60.1361 624.273 61.2844 622.88 61.6165 622.861C61.1168 623.613 61.7022 623.223 61.3182 623.886C62.3639 622.197 60.8622 623.198 62.4002 620.969L62.9681 621.751C62.7555 620.348 64.71 618.645 64.5111 616.427C64.9595 615.749 65.0108 617.158 64.5354 618.718C65.1953 616.987 64.7099 616.709 64.8788 615.28C65.0608 615.761 65.3029 616.27 65.4261 616.778C64.9958 615.105 65.8658 613.961 66.0822 612.989C65.8683 612.895 65.4186 613.728 65.3148 611.753C65.3304 610.895 65.5543 611.303 65.64 611.092C65.4724 610.995 65.0302 610.337 64.7619 609.075C64.9551 608.778 65.2822 609.844 65.5474 609.887C65.3767 608.884 65.0833 608.12 65.0708 607.35C64.2952 605.73 64.7962 607.566 64.1683 606.654C63.3427 604.081 64.8526 606.057 64.9552 604.888C66.2048 606.699 66.9172 609.507 67.2455 610.67C66.9953 609.252 66.5919 607.878 66.0985 606.549C66.4793 606.71 65.4862 603.633 66.5932 605.67C65.4117 601.327 61.5408 597.267 57.9789 595.364C58.4136 595.762 58.9634 596.262 58.767 596.341C56.9945 595.287 57.306 595.204 57.052 594.759C55.6103 594.171 55.514 594.807 54.5602 594.76C51.8395 593.317 51.3154 593.47 48.8117 592.567L48.9255 593.099C47.1237 592.499 46.8259 593.326 44.8789 593.101C44.7607 593.009 45.5031 592.766 46.1148 592.677C44.3723 592.908 44.4536 592.333 42.7486 592.741C43.1683 592.446 43.6136 592.25 44.0615 592C42.6411 592.086 40.669 592.827 41.2776 592.153C38.9603 593.187 34.8443 594.639 32.5345 596.805L32.4619 596.319C31.4037 597.59 27.8467 600.113 27.5634 601.76L27.2801 601.826C26.7303 602.758 26.3732 603.815 25.9367 604.773C25.2167 606.001 24.8809 605.246 24.9835 605.439C23.5669 608.311 22.862 610.724 22.2546 612.704C22.6875 613.352 22.2653 616.602 22.4285 619.203C21.718 632.052 31.4462 644.527 42.0801 647.406C43.6387 647.965 45.9559 647.945 47.9274 648C45.6019 647.335 45.3017 647.648 43.0351 646.858C41.4008 646.087 41.0431 645.209 39.8847 644.204L40.3432 645.013C38.0728 644.21 39.0229 644.019 37.1753 643.434L37.665 642.796C36.9289 642.739 35.7155 641.556 35.384 640.899L34.5784 640.931C33.6115 639.738 33.0955 638.877 33.1337 638.21L32.8735 638.674C32.5789 638.168 29.3141 634.197 31.0078 635.121C30.6932 634.835 30.2747 634.654 29.8213 633.829L30.1659 633.436C29.3522 632.387 28.6661 631.043 28.7186 630.595C29.1533 631.182 29.4548 631.292 29.7538 631.393C27.6954 626.286 27.5797 631.112 26.0217 626.195L26.3507 626.169C26.0986 625.787 25.9441 625.374 25.7415 624.969L25.8854 623.539C24.4043 621.828 25.4713 616.256 25.6858 613.201C25.8328 611.959 26.9224 610.636 27.7498 608.561L27.2457 608.475C28.2101 606.794 32.7509 601.721 34.8549 601.981C35.8738 600.701 34.6522 601.976 34.4527 601.654C36.6912 599.338 37.3948 600.018 38.9053 599.601C40.5333 598.635 37.5074 599.979 38.2792 599.233C41.0956 598.514 40.2744 597.598 43.9477 597.233C44.3354 597.453 43.0488 597.573 42.7261 597.859C45.0716 596.711 50.1496 596.973 53.4495 598.496C57.2753 600.285 61.5765 605.572 61.7466 610.546L61.9399 610.598C61.8423 612.576 62.2426 614.863 61.5477 616.963L62.0174 615.968" fill="#D70751"/>
</g>
<defs>
<clipPath id="clip0_3907_9245">
<rect x="0.75" width="88" height="664" rx="5" fill="white"/>
</clipPath>
<clipPath id="clip1_3907_9245">
<rect width="56" height="56" fill="white" transform="translate(16.75 208)"/>
</clipPath>
<clipPath id="clip2_3907_9245">
<rect width="56" height="56" fill="white" transform="translate(16.75 304)"/>
</clipPath>
<clipPath id="clip3_3907_9245">
<rect width="56" height="56" fill="white" transform="translate(16.75 400)"/>
</clipPath>
<clipPath id="clip4_3907_9245">
<rect width="56" height="56" fill="white" transform="translate(16.75 496)"/>
</clipPath>
</defs>
</svg>
