<svg width="81" height="81" viewBox="0 0 81 81" fill="none" xmlns="http://www.w3.org/2000/svg">
<path d="M40.0218 80.3354V64.8318C56.4408 64.8318 69.1859 48.5575 62.8814 31.2859C60.5682 24.8941 55.443 19.7716 49.0477 17.4596C31.767 11.2038 15.4841 23.8968 15.4841 40.307H0.0175781C0.0175781 14.1504 25.3264 -6.24914 52.7669 2.31865C64.741 6.08122 74.3112 15.601 78.0304 27.5687C86.6027 55.04 66.2378 80.3354 40.0218 80.3354Z" fill="white"/>
<path d="M40.0666 64.8771H24.6455V49.4642H40.0666V64.8771Z" fill="white"/>
<path d="M24.646 76.7541H12.7627V64.8771H24.646V76.7541Z" fill="white"/>
<path d="M12.7631 64.8771H2.83008V54.9493H12.7631V64.8771Z" fill="white"/>
</svg>
