<svg width="232" height="56" viewBox="0 0 232 56" fill="none" xmlns="http://www.w3.org/2000/svg">
<path fill-rule="evenodd" clip-rule="evenodd" d="M18 19H5V55H18V19ZM4 18V56H19V18H4Z" fill="#333333"/>
<path fill-rule="evenodd" clip-rule="evenodd" d="M38 25V56H54V31L38 25ZM39 26.443V55H53V31.693L39 26.443Z" fill="#333333"/>
<path fill-rule="evenodd" clip-rule="evenodd" d="M38 7H19V55H38V7ZM18 6V56H39V6H18Z" fill="#333333"/>
<path fill-rule="evenodd" clip-rule="evenodd" d="M7.9961 23L14.9961 23L14.9961 24L7.9961 24L7.9961 23Z" fill="#333333"/>
<path fill-rule="evenodd" clip-rule="evenodd" d="M7.9961 31L14.9961 31L14.9961 32L7.9961 32L7.9961 31Z" fill="#333333"/>
<path fill-rule="evenodd" clip-rule="evenodd" d="M7.9961 39L14.9961 39L14.9961 40L7.9961 40L7.9961 39Z" fill="#333333"/>
<path fill-rule="evenodd" clip-rule="evenodd" d="M42.0039 39.0039L50.0039 39.0039L50.0039 40.0039L42.0039 40.0039L42.0039 39.0039Z" fill="#333333"/>
<path fill-rule="evenodd" clip-rule="evenodd" d="M7.9961 51L14.9961 51L14.9961 52L7.9961 52L7.9961 51Z" fill="#333333"/>
<path fill-rule="evenodd" clip-rule="evenodd" d="M42.0039 48.0039L50.0039 48.0039L50.0039 49.0039L42.0039 49.0039L42.0039 48.0039Z" fill="#333333"/>
<path fill-rule="evenodd" clip-rule="evenodd" d="M7.9961 27L14.9961 27L14.9961 28L7.9961 28L7.9961 27Z" fill="#333333"/>
<path fill-rule="evenodd" clip-rule="evenodd" d="M7.9961 35L14.9961 35L14.9961 36L7.9961 36L7.9961 35Z" fill="#333333"/>
<path fill-rule="evenodd" clip-rule="evenodd" d="M42.0039 36.0039L50.0039 36.0039L50.0039 37.0039L42.0039 37.0039L42.0039 36.0039Z" fill="#333333"/>
<path fill-rule="evenodd" clip-rule="evenodd" d="M42 33.0039L47 33.0039L47 34.0039L42 34.0039L42 33.0039Z" fill="#333333"/>
<path fill-rule="evenodd" clip-rule="evenodd" d="M7.9961 47L14.9961 47L14.9961 48L7.9961 48L7.9961 47Z" fill="#333333"/>
<path fill-rule="evenodd" clip-rule="evenodd" d="M42.0039 45.0039L50.0039 45.0039L50.0039 46.0039L42.0039 46.0039L42.0039 45.0039Z" fill="#333333"/>
<path fill-rule="evenodd" clip-rule="evenodd" d="M42.0039 51.0039L50.0039 51.0039L50.0039 52.0039L42.0039 52.0039L42.0039 51.0039Z" fill="#333333"/>
<path fill-rule="evenodd" clip-rule="evenodd" d="M7.9961 43L14.9961 43L14.9961 44L7.9961 44L7.9961 43Z" fill="#333333"/>
<path fill-rule="evenodd" clip-rule="evenodd" d="M42.0039 42.0039L50.0039 42.0039L50.0039 43.0039L42.0039 43.0039L42.0039 42.0039Z" fill="#333333"/>
<path fill-rule="evenodd" clip-rule="evenodd" d="M22 55L22 10L23 10L23 55L22 55Z" fill="#333333"/>
<path fill-rule="evenodd" clip-rule="evenodd" d="M26 55L26 10L27 10L27 55L26 55Z" fill="#333333"/>
<path fill-rule="evenodd" clip-rule="evenodd" d="M30 55L30 10L31 10L31 55L30 55Z" fill="#333333"/>
<path fill-rule="evenodd" clip-rule="evenodd" d="M34 55L34 10L35 10L35 55L34 55Z" fill="#333333"/>
<path fill-rule="evenodd" clip-rule="evenodd" d="M139 9H93C92.4477 9 92 9.44772 92 10V47C92 47.5523 92.4477 48 93 48H139C139.552 48 140 47.5523 140 47V10C140 9.44772 139.552 9 139 9ZM93 8C91.8954 8 91 8.89543 91 10V47C91 48.1046 91.8954 49 93 49H139C140.105 49 141 48.1046 141 47V10C141 8.89543 140.105 8 139 8H93Z" fill="#333333"/>
<path fill-rule="evenodd" clip-rule="evenodd" d="M96 20H97V21H96V20ZM133 21V20H131V21H133ZM99 20V21H101V20H99ZM103 20V21H105V20H103Z" fill="#FF6F3D"/>
<path d="M109 21H107V20H109V21Z" fill="#FF6F3D"/>
<path d="M113 21H111V20H113V21Z" fill="#FF6F3D"/>
<path d="M109 21H107V20H109V21Z" fill="#FF6F3D"/>
<path d="M113 21H111V20H113V21Z" fill="#FF6F3D"/>
<path d="M117 21H115V20H117V21Z" fill="#FF6F3D"/>
<path d="M121 21H119V20H121V21Z" fill="#FF6F3D"/>
<path d="M117 21H115V20H117V21Z" fill="#FF6F3D"/>
<path d="M121 21H119V20H121V21Z" fill="#FF6F3D"/>
<path d="M125 21H123V20H125V21Z" fill="#FF6F3D"/>
<path d="M129 21H127V20H129V21Z" fill="#FF6F3D"/>
<path d="M125 21H123V20H125V21Z" fill="#FF6F3D"/>
<path d="M129 21H127V20H129V21Z" fill="#FF6F3D"/>
<path d="M136 20V21H135V20H136Z" fill="#FF6F3D"/>
<path fill-rule="evenodd" clip-rule="evenodd" d="M96 43H97V44H96V43ZM133 44V43H131V44H133ZM99 43V44H101V43H99ZM103 43V44H105V43H103Z" fill="#FF6F3D"/>
<path d="M109 44H107V43H109V44Z" fill="#FF6F3D"/>
<path d="M113 44H111V43H113V44Z" fill="#FF6F3D"/>
<path d="M109 44H107V43H109V44Z" fill="#FF6F3D"/>
<path d="M113 44H111V43H113V44Z" fill="#FF6F3D"/>
<path d="M117 44H115V43H117V44Z" fill="#FF6F3D"/>
<path d="M121 44H119V43H121V44Z" fill="#FF6F3D"/>
<path d="M117 44H115V43H117V44Z" fill="#FF6F3D"/>
<path d="M121 44H119V43H121V44Z" fill="#FF6F3D"/>
<path d="M125 44H123V43H125V44Z" fill="#FF6F3D"/>
<path d="M129 44H127V43H129V44Z" fill="#FF6F3D"/>
<path d="M125 44H123V43H125V44Z" fill="#FF6F3D"/>
<path d="M129 44H127V43H129V44Z" fill="#FF6F3D"/>
<path d="M136 43V44H135V43H136Z" fill="#FF6F3D"/>
<path fill-rule="evenodd" clip-rule="evenodd" d="M97 23H96V25H97V23Z" fill="#FF6F3D"/>
<path d="M97 39V41H96V39H97Z" fill="#FF6F3D"/>
<path d="M97 35V37H96V35H97Z" fill="#FF6F3D"/>
<path d="M97 39V41H96V39H97Z" fill="#FF6F3D"/>
<path d="M97 35V37H96V35H97Z" fill="#FF6F3D"/>
<path d="M97 31V33H96V31H97Z" fill="#FF6F3D"/>
<path d="M97 27V29H96V27H97Z" fill="#FF6F3D"/>
<path d="M97 31V33H96V31H97Z" fill="#FF6F3D"/>
<path d="M97 27V29H96V27H97Z" fill="#FF6F3D"/>
<path d="M96 20H97V21H96V20Z" fill="#FF6F3D"/>
<path fill-rule="evenodd" clip-rule="evenodd" d="M136 23H135V25H136V23Z" fill="#FF6F3D"/>
<path d="M136 39V41H135V39H136Z" fill="#FF6F3D"/>
<path d="M136 35V37H135V35H136Z" fill="#FF6F3D"/>
<path d="M136 39V41H135V39H136Z" fill="#FF6F3D"/>
<path d="M136 35V37H135V35H136Z" fill="#FF6F3D"/>
<path d="M136 31V33H135V31H136Z" fill="#FF6F3D"/>
<path d="M136 27V29H135V27H136Z" fill="#FF6F3D"/>
<path d="M136 31V33H135V31H136Z" fill="#FF6F3D"/>
<path d="M136 27V29H135V27H136Z" fill="#FF6F3D"/>
<path d="M135 20H136V21H135V20Z" fill="#FF6F3D"/>
<path d="M92 15H140V16H92V15Z" fill="#333333"/>
<path d="M111.324 35.1585C111.372 35.0749 111.396 34.9311 111.396 34.727C111.396 34.6249 111.386 34.5228 111.367 34.4208C111.348 34.3187 111.319 34.2398 111.28 34.1842L106.253 32.1938L111.28 30.2034C111.319 30.157 111.348 30.0828 111.367 29.9807C111.386 29.8694 111.396 29.7627 111.396 29.6606C111.396 29.5678 111.386 29.4843 111.367 29.4101C111.357 29.3266 111.343 29.2662 111.324 29.2291L105.101 31.7762C105.034 31.869 105 32.0082 105 32.1938C105 32.3887 105.034 32.5278 105.101 32.6113L111.324 35.1585Z" fill="#333333"/>
<path d="M114.367 39C113.944 39 113.622 38.8933 113.402 38.6799L117.637 26C117.829 26 117.997 26.0232 118.141 26.0696C118.285 26.116 118.438 26.1995 118.602 26.3201L114.367 39Z" fill="#333333"/>
<path d="M120.676 35.1585C120.628 35.0749 120.604 34.9311 120.604 34.727C120.604 34.6249 120.614 34.5228 120.633 34.4208C120.652 34.3187 120.681 34.2398 120.72 34.1842L125.747 32.1938L120.72 30.2034C120.681 30.157 120.652 30.0828 120.633 29.9807C120.614 29.8694 120.604 29.7627 120.604 29.6606C120.604 29.5678 120.609 29.4843 120.619 29.4101C120.638 29.3266 120.657 29.2662 120.676 29.2291L126.899 31.7762C126.966 31.869 127 32.0082 127 32.1938C127 32.3887 126.966 32.5278 126.899 32.6113L120.676 35.1585Z" fill="#333333"/>
<path d="M230.796 28C230.796 36.8366 223.472 44 214.439 44C205.405 44 198.082 36.8366 198.082 28C198.082 19.1634 205.405 12 214.439 12C223.472 12 230.796 19.1634 230.796 28Z" fill="white"/>
<path d="M214.719 12.0024C205.687 11.853 198.239 18.8211 198.085 27.566C197.997 32.5244 200.07 37.0364 203.705 40C203.942 39.7992 204.406 39.5596 204.69 39.4102L209.57 36.8326C210.21 36.4944 210.609 35.8448 210.609 35.1384V33.2021C210.609 33.2021 209.176 31.5432 208.63 29.2382C208.177 28.9543 207.873 28.4637 207.873 27.9049V25.7857C207.873 25.3196 208.088 24.9031 208.42 24.6114V21.5481C208.42 21.5481 207.77 16.7809 214.438 16.7809C221.106 16.7809 220.456 21.5481 220.456 21.5481V24.6114C220.79 24.9031 221.003 25.3196 221.003 25.7857V27.9049C221.003 28.6172 220.51 29.2166 219.839 29.4168C219.466 30.541 218.927 31.6125 218.215 32.5866C218.035 32.8322 217.867 33.0402 217.72 33.2021V35.1874C217.72 35.9183 218.147 36.587 218.822 36.9133L224.048 39.443C224.362 39.5948 224.912 39.7867 225.173 40C228.698 37.1542 230.707 32.8991 230.792 28.1075C230.948 19.3626 223.751 12.1518 214.719 12.0024Z" fill="url(#paint0_linear_122_22733)"/>
<path fill-rule="evenodd" clip-rule="evenodd" d="M206.873 13.9532C205.353 14.7394 202.706 16.6621 201.031 19.7356L200.148 19.2586C201.942 15.9666 204.762 13.9185 206.41 13.0658C214.672 8.7924 224.836 11.9707 229.112 20.1703C233.388 28.37 230.153 38.4799 221.892 42.7533C219.893 43.7871 216.491 44.9521 211.647 44.5367L211.733 43.5403C216.364 43.9376 219.578 42.8235 221.429 41.8658C229.201 37.8453 232.24 28.3374 228.221 20.6312C224.203 12.925 214.646 9.93267 206.873 13.9532Z" fill="#333333"/>
<path d="M211.792 28C211.792 36.8366 204.468 44 195.435 44C186.401 44 179.078 36.8366 179.078 28C179.078 19.1634 186.401 12 195.435 12C204.468 12 211.792 19.1634 211.792 28Z" fill="white"/>
<path d="M195.676 12.0024C186.644 11.853 179.196 18.8211 179.042 27.566C178.954 32.5244 181.027 37.0364 184.662 40C184.899 39.7992 185.363 39.5596 185.647 39.4102L190.527 36.8326C191.167 36.4944 191.566 35.8448 191.566 35.1384V33.2021C191.566 33.2021 190.133 31.5432 189.587 29.2382C189.134 28.9543 188.83 28.4637 188.83 27.9049V25.7857C188.83 25.3196 189.045 24.9031 189.377 24.6114V21.5481C189.377 21.5481 188.727 16.7809 195.395 16.7809C202.063 16.7809 201.413 21.5481 201.413 21.5481V24.6114C201.747 24.9031 201.96 25.3196 201.96 25.7857V27.9049C201.96 28.6172 201.467 29.2166 200.796 29.4168C200.423 30.541 199.884 31.6125 199.172 32.5866C198.992 32.8322 198.824 33.0402 198.677 33.2021V35.1874C198.677 35.9183 199.104 36.587 199.779 36.9133L205.005 39.443C205.319 39.5948 205.869 39.7867 206.13 40C209.655 37.1542 211.665 32.8991 211.749 28.1075C211.905 19.3626 204.708 12.1518 195.676 12.0024Z" fill="url(#paint1_linear_122_22733)"/>
<path fill-rule="evenodd" clip-rule="evenodd" d="M212.722 28C212.722 37.4058 204.932 45 195.361 45C185.79 45 178 37.4058 178 28C178 18.5942 185.79 11 195.361 11C204.932 11 212.722 18.5942 212.722 28ZM195.361 44C204.394 44 211.718 36.8366 211.718 28C211.718 19.1634 204.394 12 195.361 12C186.327 12 179.004 19.1634 179.004 28C179.004 36.8366 186.327 44 195.361 44Z" fill="#333333"/>
<defs>
<linearGradient id="paint0_linear_122_22733" x1="230.796" y1="28.8605" x2="198.082" y2="28.8605" gradientUnits="userSpaceOnUse">
<stop stop-color="#FF6F3D"/>
<stop offset="1" stop-color="#FF8E3D"/>
</linearGradient>
<linearGradient id="paint1_linear_122_22733" x1="211.753" y1="28.8605" x2="179.039" y2="28.8605" gradientUnits="userSpaceOnUse">
<stop stop-color="#FF6F3D"/>
<stop offset="1" stop-color="#FF8E3D"/>
</linearGradient>
</defs>
</svg>
