<svg width="352" height="274" viewBox="0 0 352 274" fill="none" xmlns="http://www.w3.org/2000/svg">
<g clip-path="url(#clip0_36_3152)">
<path d="M14.7113 99.5705C23.7259 99.5705 32.0965 101.517 39.8232 104.762C49.8036 58.0407 91.0128 23 140.271 23C189.207 23 230.094 57.3918 240.396 103.464C247.157 100.868 254.562 99.5705 262.289 99.5705C298.025 99.5705 327 128.771 327 164.785C327 200.799 298.025 230 262.289 230H14.7113C-21.0248 230 -50 200.799 -50 164.785C-50 128.771 -21.0248 99.5705 14.7113 99.5705Z" fill="#F5F5F5"/>
<path d="M264.454 248.888C266.289 248.888 267.776 247.401 267.776 245.566C267.776 243.732 266.289 242.245 264.454 242.245C262.619 242.245 261.132 243.732 261.132 245.566C261.132 247.401 262.619 248.888 264.454 248.888Z" fill="#CCCCCC"/>
<path fill-rule="evenodd" clip-rule="evenodd" d="M286.665 186.519H281.761V189.884L260.29 189.869C260.29 189.869 270.647 194.596 281.761 195.516V210.498H279.919V208.567H277.488V215.197H279.919V213.259H281.761V241.258H262.673V244.272H280.735C280.567 244.67 280.474 245.107 280.474 245.566C280.474 247.402 281.96 248.888 283.795 248.888C285.631 248.888 287.117 247.402 287.117 245.566C287.117 245.107 287.024 244.67 286.856 244.272H303.145C302.976 244.67 302.883 245.107 302.883 245.566C302.883 247.401 304.37 248.888 306.205 248.888C308.039 248.888 309.526 247.401 309.526 245.566C309.526 243.732 308.039 242.245 306.205 242.245H306.205V241.258H286.665V195.646C297.766 195.245 309.636 189.903 309.636 189.903L286.665 189.887V186.519Z" fill="white"/>
<path d="M281.761 186.519V186.019H281.261V186.519H281.761ZM286.665 186.519H287.165V186.019H286.665V186.519ZM281.761 189.884L281.761 190.384L282.261 190.384V189.884H281.761ZM260.29 189.869L260.29 189.369L260.082 190.324L260.29 189.869ZM281.761 195.516H282.261V195.055L281.802 195.018L281.761 195.516ZM281.761 210.498V210.998H282.261V210.498H281.761ZM279.919 210.498H279.419V210.998H279.919V210.498ZM279.919 208.567H280.419V208.067H279.919V208.567ZM277.488 208.567V208.067H276.988V208.567H277.488ZM277.488 215.197H276.988V215.697H277.488V215.197ZM279.919 215.197V215.697H280.419V215.197H279.919ZM279.919 213.259V212.759H279.419V213.259H279.919ZM281.761 213.259H282.261V212.759H281.761V213.259ZM281.761 241.258V241.758H282.261V241.258H281.761ZM262.673 241.258V240.758H262.173V241.258H262.673ZM262.673 244.272H262.173V244.772H262.673V244.272ZM280.735 244.272L281.195 244.467L281.489 243.772H280.735V244.272ZM286.856 244.272V243.772H286.101L286.395 244.467L286.856 244.272ZM303.145 244.272L303.605 244.467L303.899 243.772H303.145V244.272ZM306.205 242.245H305.705V242.745H306.205V242.245ZM306.205 241.258H306.705V240.758H306.205V241.258ZM286.665 241.258H286.165V241.758H286.665V241.258ZM286.665 195.646L286.647 195.147L286.165 195.164V195.646H286.665ZM309.636 189.903L309.841 190.359L309.636 189.403L309.636 189.903ZM286.665 189.887H286.165V190.387L286.665 190.387L286.665 189.887ZM281.761 187.019H286.665V186.019H281.761V187.019ZM282.261 189.884V186.519H281.261V189.884H282.261ZM260.29 190.369L281.761 190.384L281.762 189.384L260.29 189.369L260.29 190.369ZM281.802 195.018C276.298 194.562 270.971 193.162 267.013 191.872C265.036 191.227 263.404 190.612 262.268 190.157C261.7 189.93 261.256 189.744 260.954 189.614C260.804 189.549 260.689 189.499 260.612 189.465C260.573 189.448 260.544 189.435 260.525 189.426C260.516 189.422 260.509 189.419 260.504 189.417C260.502 189.416 260.5 189.415 260.499 189.414C260.498 189.414 260.498 189.414 260.498 189.414C260.498 189.414 260.498 189.414 260.498 189.414C260.498 189.414 260.498 189.414 260.29 189.869C260.082 190.324 260.083 190.324 260.083 190.324C260.083 190.324 260.083 190.324 260.083 190.324C260.084 190.324 260.084 190.324 260.085 190.325C260.086 190.325 260.088 190.326 260.091 190.328C260.097 190.33 260.105 190.334 260.115 190.338C260.136 190.348 260.166 190.361 260.206 190.379C260.287 190.415 260.405 190.467 260.559 190.533C260.868 190.666 261.32 190.855 261.896 191.086C263.049 191.547 264.702 192.17 266.703 192.823C270.702 194.126 276.11 195.55 281.72 196.014L281.802 195.018ZM282.261 210.498V195.516H281.261V210.498H282.261ZM279.919 210.998H281.761V209.998H279.919V210.998ZM280.419 210.498V208.567H279.419V210.498H280.419ZM279.919 208.067H277.488V209.067H279.919V208.067ZM276.988 208.567V215.197H277.988V208.567H276.988ZM277.488 215.697H279.919V214.697H277.488V215.697ZM280.419 215.197V213.259H279.419V215.197H280.419ZM281.761 212.759H279.919V213.759H281.761V212.759ZM282.261 241.258V213.259H281.261V241.258H282.261ZM262.673 241.758H281.761V240.758H262.673V241.758ZM263.173 244.272V241.258H262.173V244.272H263.173ZM280.735 243.772H262.673V244.772H280.735V243.772ZM280.974 245.566C280.974 245.175 281.053 244.804 281.195 244.467L280.274 244.077C280.08 244.535 279.974 245.039 279.974 245.566H280.974ZM283.795 248.388C282.236 248.388 280.974 247.126 280.974 245.566H279.974C279.974 247.678 281.684 249.388 283.795 249.388V248.388ZM286.617 245.566C286.617 247.126 285.355 248.388 283.795 248.388V249.388C285.907 249.388 287.617 247.678 287.617 245.566H286.617ZM286.395 244.467C286.538 244.804 286.617 245.175 286.617 245.566H287.617C287.617 245.039 287.51 244.535 287.316 244.077L286.395 244.467ZM303.145 243.772H286.856V244.772H303.145V243.772ZM303.383 245.566C303.383 245.175 303.462 244.804 303.605 244.467L302.684 244.077C302.49 244.535 302.383 245.039 302.383 245.566H303.383ZM306.205 248.388C304.646 248.388 303.383 247.125 303.383 245.566H302.383C302.383 247.677 304.094 249.388 306.205 249.388V248.388ZM309.026 245.566C309.026 247.125 307.763 248.388 306.205 248.388V249.388C308.315 249.388 310.026 247.677 310.026 245.566H309.026ZM306.205 242.745C307.763 242.745 309.026 244.008 309.026 245.566H310.026C310.026 243.456 308.315 241.745 306.205 241.745V242.745ZM306.205 242.745H306.205V241.745H306.205V242.745ZM305.705 241.258V242.245H306.705V241.258H305.705ZM286.665 241.758H306.205V240.758H286.665V241.758ZM286.165 195.646V241.258H287.165V195.646H286.165ZM309.636 189.903C309.431 189.447 309.431 189.447 309.431 189.447C309.431 189.447 309.431 189.447 309.431 189.447C309.43 189.447 309.43 189.447 309.429 189.448C309.428 189.448 309.426 189.449 309.423 189.45C309.418 189.453 309.41 189.456 309.399 189.461C309.377 189.471 309.344 189.486 309.3 189.505C309.212 189.543 309.08 189.6 308.909 189.673C308.566 189.818 308.063 190.027 307.424 190.279C306.147 190.783 304.327 191.459 302.162 192.148C297.826 193.527 292.132 194.948 286.647 195.147L286.683 196.146C292.298 195.943 298.09 194.492 302.465 193.101C304.655 192.404 306.497 191.719 307.791 191.209C308.439 190.954 308.95 190.742 309.3 190.594C309.474 190.519 309.609 190.461 309.7 190.421C309.746 190.401 309.781 190.386 309.804 190.375C309.816 190.37 309.825 190.366 309.831 190.363C309.834 190.362 309.837 190.361 309.838 190.36C309.839 190.36 309.84 190.359 309.84 190.359C309.841 190.359 309.841 190.359 309.841 190.359C309.841 190.359 309.841 190.359 309.636 189.903ZM286.665 190.387L309.636 190.403L309.636 189.403L286.665 189.387L286.665 190.387ZM286.165 186.519V189.887H287.165V186.519H286.165Z" fill="#CCCCCC"/>
<path d="M310.732 189.869H256.263C254.229 189.869 252.578 188.218 252.578 186.184C252.578 184.15 254.229 182.499 256.263 182.499H315.512V185.095C315.512 187.732 313.375 189.869 310.732 189.869Z" fill="white" stroke="#CCCCCC"/>
<path d="M273.091 110.705L311.533 111.178C313.43 111.199 314.964 112.74 314.978 114.637L315.519 182.492L263.728 183.198L269.57 113.89C269.728 112.075 271.262 110.678 273.091 110.705Z" fill="white" stroke="#CCCCCC"/>
<path fill-rule="evenodd" clip-rule="evenodd" d="M144.736 247.155C144.311 249.895 146.517 250.375 151.201 250.607C156.633 250.881 161.256 249.895 161.687 247.155C162.118 244.416 159.064 240.423 153.701 239.587C148.332 238.758 145.168 244.416 144.736 247.155Z" fill="white" stroke="#333333" stroke-miterlimit="10" stroke-linecap="round" stroke-linejoin="round"/>
<path fill-rule="evenodd" clip-rule="evenodd" d="M183.035 245.683C182.61 248.422 184.815 248.902 189.5 249.135C194.931 249.409 199.554 248.422 199.986 245.683C200.417 242.943 197.363 238.95 192 238.114C186.63 237.286 183.459 242.943 183.035 245.683Z" fill="white" stroke="#333333" stroke-miterlimit="10" stroke-linecap="round" stroke-linejoin="round"/>
<path d="M174.261 75.1787L174.816 63.2816L185.651 66.1788L183.72 78.9526L174.261 75.1787Z" fill="white" stroke="#333333" stroke-miterlimit="10" stroke-linecap="round" stroke-linejoin="round"/>
<path d="M190.822 58.0694C190.151 65.1788 187.014 70.3774 180.658 69.7815C174.303 69.1856 167.139 63.0076 167.81 55.905C168.481 48.8024 174.173 43.5216 180.528 44.1175C186.884 44.7134 191.486 50.9599 190.822 58.0694Z" fill="white" stroke="#333333" stroke-miterlimit="10" stroke-linecap="round" stroke-linejoin="round"/>
<path fill-rule="evenodd" clip-rule="evenodd" d="M182.986 49.727C181.246 49.6928 178.555 50.2544 177.343 51.6242C176.822 52.2064 176.507 53.0215 176.014 53.6516C175.267 54.6036 174.548 55.5694 173.959 56.631C173.411 57.631 172.973 58.7063 172.761 59.8296C172.562 60.8638 172.706 61.4734 171.781 62.0624C170.651 62.7816 169.083 63.0898 167.782 63.3638C167.782 63.3638 163.857 57.1858 167.199 51.453C170.542 45.7202 177.377 42.5353 178.349 41.8915C179.322 41.2477 181.37 39.0833 181.575 37.7477C181.787 36.4053 183.527 40.9806 183.527 40.9806L185.424 39.508C185.424 39.508 188.568 44.3915 189.643 47.2202C190.609 49.7544 189.705 51.0695 189.705 51.0695C189.705 51.0695 186.123 49.7887 182.986 49.727Z" fill="white" stroke="#333333" stroke-miterlimit="10" stroke-linecap="round" stroke-linejoin="round"/>
<path d="M172.481 61.5282C171.597 62.5693 167.776 63.3638 167.776 63.3638C167.776 63.3638 163.851 57.1858 167.194 51.453C170.536 45.7202 177.371 42.5353 178.343 41.8915C179.316 41.2477 181.364 39.0833 181.569 37.7477C181.782 36.4053 183.521 40.9806 183.521 40.9806L185.418 39.508C185.418 39.508 188.562 44.3915 189.637 47.2202C190.603 49.7544 189.699 51.0695 189.699 51.0695C189.699 51.0695 186.11 49.7818 182.973 49.7202C180.131 49.6654 176.912 51.3297 176.186 52.7681" stroke="#333333" stroke-miterlimit="10" stroke-linecap="round" stroke-linejoin="round"/>
<path fill-rule="evenodd" clip-rule="evenodd" d="M174.07 61.4189C172.864 61.4737 171.837 60.5422 171.775 59.3368C171.721 58.1313 172.652 57.1039 173.857 57.0423" fill="white"/>
<path d="M174.07 61.4189C172.864 61.4737 171.837 60.5422 171.775 59.3368C171.721 58.1313 172.652 57.1039 173.857 57.0423" stroke="#333333" stroke-miterlimit="10" stroke-linecap="round" stroke-linejoin="round"/>
<path d="M180.85 57.0763C181.158 56.501 181.658 56.0695 182.302 55.9188C182.487 55.8777 183.247 55.8366 183.227 56.0969C183.206 56.3024 182.843 56.3846 182.713 56.4599C182.706 56.4668 182.603 56.4804 182.603 56.4736C182.631 56.3914 182.918 56.7065 182.871 56.6928C182.891 56.6996 182.802 56.1037 182.871 55.9736C182.932 55.8435 182.877 55.6996 182.74 55.6585C181.734 55.3161 181.234 57.1174 182.138 57.5763C182.823 57.9256 183.734 57.3845 184.103 56.7955C184.624 55.9668 183.96 55.0284 183.028 55.0079C181.871 54.9805 180.843 55.8914 180.501 56.9462C180.432 57.138 180.747 57.2681 180.85 57.0763Z" fill="#333333"/>
<path d="M187.178 56.3982C187.363 56.138 187.596 55.7613 187.939 55.6859C187.966 55.6791 188.069 55.6928 188.089 55.6791C188.096 55.6791 188.103 55.6791 188.117 55.6859C188.13 55.7065 188.124 55.6859 188.089 55.638C188.048 55.5558 188.048 55.5695 188.076 55.6585C188.069 55.6448 188.069 55.6311 188.062 55.6243C188.082 55.5421 188.103 55.4256 188.185 55.3845C188.391 55.3572 188.603 55.3298 188.808 55.3024C188.781 55.2955 188.754 55.2887 188.726 55.2818C188.035 55.1106 187.576 55.816 187.856 56.4119C187.87 56.4393 187.884 56.4667 187.898 56.4941C188.137 57.001 188.815 56.9736 189.171 56.6585C189.993 55.9462 189.48 54.5626 188.452 54.4188C187.363 54.2681 186.809 55.2407 186.521 56.1243C186.384 56.5284 186.952 56.7133 187.178 56.3982Z" fill="#333333"/>
<path d="M186.35 58.1651C186.158 58.8706 186.418 59.6788 186.528 60.3843C186.555 60.5555 186.569 60.7336 186.61 60.8979C186.815 60.9116 186.856 60.9322 186.726 60.9527C186.678 60.9664 186.637 60.9733 186.589 60.987C186.343 61.1103 186.185 61.1377 186.048 61.4048C185.939 61.624 186.021 61.9527 186.295 62.0075C186.952 62.1377 187.733 61.8979 187.747 61.1308C187.761 60.5966 187.473 60.0076 187.322 59.5007C187.172 58.987 187.069 58.487 186.72 58.0761C186.603 57.9391 186.391 58.0144 186.35 58.1651Z" fill="#333333"/>
<path d="M182.172 61.9666C181.823 62.0283 181.624 62.3981 181.48 62.6926C181.281 63.1036 181.295 63.6104 181.439 64.0419C181.686 64.7748 182.692 65.6857 183.411 64.9049C183.562 64.7406 183.658 64.494 183.576 64.2748C183.459 63.9597 183.275 63.8365 183.055 63.6036C182.925 63.4598 182.932 63.3091 182.912 63.1173C182.87 62.6926 182.788 61.8639 182.172 61.9666Z" fill="#333333"/>
<path d="M74.7886 75.4801C74.7886 75.4801 73.5832 71.8294 71.9464 70.8705C69.967 69.7062 68.8986 71.8979 66.9741 71.1924C65.0564 70.487 63.1593 69.3706 61.0361 70.7335C58.7075 72.2198 59.6458 73.4664 59.3102 75.9595C57.9542 86.0552 55.8721 88.7812 55.7214 83.9594C55.7077 83.432 54.2832 82.8978 54.2489 80.6718C54.201 77.7814 54.3654 74.2883 55.1667 72.3089C55.8447 70.6377 56.9131 69.5281 58.776 68.3637C61.7073 66.5213 65.5153 66.7815 68.0768 67.2473C70.6314 67.7062 75.3708 71.076 74.7886 75.4801Z" fill="#333333"/>
<path d="M161.762 125L147.38 240.567L158.79 241.587L179.337 150.732L185.274 239.533H198.76L197.602 124.76L161.762 125Z" fill="#444444" stroke="#333333"/>
<path d="M168.639 73.4596C170.241 73.1514 173.679 72.4939 173.679 72.4939C177.884 79.3637 185.124 79.1513 185.85 72.5007C186.343 72.5624 187.028 72.6309 187.891 72.7268C193.178 73.3501 195.205 74.4665 198.999 78.1993L198.582 99.5962C198.582 99.5962 199.856 123.938 199.76 127.877H163.639L163.611 111.37L163.618 106.877C163.618 106.877 155.927 115.438 153.098 113.993C151.085 112.966 152.804 104.952 152.804 104.952C152.804 104.952 158.126 84.2745 158.954 81.4869C159.975 78.0966 163.605 74.4254 168.639 73.4596Z" fill="#9ADAF3" stroke="#333333" stroke-miterlimit="10" stroke-linecap="round" stroke-linejoin="round"/>
<path d="M160.078 103.808L174.981 102.774L178.364 108.836L161.817 116.294C160.893 116.712 159.893 116.925 158.879 116.925C155.982 116.925 153.373 115.171 152.27 112.493" fill="#9ADAF3"/>
<path d="M160.078 103.808L174.981 102.774L178.364 108.836L161.817 116.294C160.893 116.712 159.893 116.925 158.879 116.925C155.982 116.925 153.373 115.171 152.27 112.493" stroke="#333333" stroke-miterlimit="10" stroke-linecap="round" stroke-linejoin="round"/>
<path d="M191.021 99.8632L190.637 99.5755C188.637 98.0755 186.089 97.4865 183.631 97.9591C181.624 98.3427 179.747 99.2262 178.172 100.521L175.124 103.034L178.371 108.849L180.576 105.76C180.576 105.76 182.638 108.555 183.001 108.26C183.37 107.966 183.809 107.082 183.809 107.082L182.336 105.021L185.87 105.754L191.021 103.397L188.815 100.603L191.021 101.336V99.8632Z" fill="white" stroke="#333333" stroke-miterlimit="10" stroke-linecap="round" stroke-linejoin="round"/>
<path d="M193.555 74.0897C193.555 74.0897 198.582 75.802 200.698 80.6444C202.075 83.8019 204.102 99.0003 204.102 99.0003L206.657 103.932C207.266 105.117 207.588 106.425 207.588 107.754V108.507C207.588 110.418 206.931 112.267 205.725 113.754C204.307 115.493 202.253 116.589 200.013 116.788C197.465 117.014 194.377 117.116 193.719 116.363C192.555 115.034 190.815 111.466 190.815 111.466L198.253 107.514L194.151 93.6305" fill="#9ADAF3"/>
<path d="M193.555 74.0897C193.555 74.0897 198.582 75.802 200.698 80.6444C202.075 83.8019 204.102 99.0003 204.102 99.0003L206.657 103.932C207.266 105.117 207.588 106.425 207.588 107.754V108.507C207.588 110.418 206.931 112.267 205.725 113.754C204.307 115.493 202.253 116.589 200.013 116.788C197.465 117.014 194.377 117.116 193.719 116.363C192.555 115.034 190.815 111.466 190.815 111.466L198.253 107.514L194.151 93.6305" stroke="#333333" stroke-miterlimit="10" stroke-linecap="round" stroke-linejoin="round"/>
<path d="M185.583 99.3288L174.248 113.048L175.118 113.993L193.507 111.185L202.623 97.4658L201.78 96.7055L185.583 99.3288Z" fill="#F2F2F2" stroke="#333333" stroke-miterlimit="10"/>
<path d="M197.602 102.952C196.876 102.952 196.226 103.391 195.966 104.069C195.692 104.781 195.294 105.61 194.849 105.849C194.034 106.295 192.623 106.651 191.877 106.288C191.137 105.925 188.165 103.247 187.644 103.548C187.124 103.843 186.679 104.514 187.199 105.11C187.72 105.706 190.466 107.486 189.945 108.082C189.425 108.678 183.631 106.062 182.74 106.295C181.85 106.528 181.33 107.076 181.85 107.432C182.371 107.788 186.309 109.274 186.528 109.795C186.528 109.795 180.583 108.233 180.364 108.603C180.138 108.973 179.768 109.569 180.364 109.795C180.96 110.021 186.083 111.356 186.528 111.575C186.973 111.801 188.507 112.247 188.815 112.247C188.98 112.247 190.144 112.637 191.206 113.007C192.411 113.425 193.719 113.39 194.904 112.911L195.507 112.664C196.445 112.281 197.034 111.349 196.972 110.336L196.849 108.308L197.5 106.637L197.602 102.952Z" fill="white" stroke="#333333" stroke-miterlimit="10" stroke-linecap="round" stroke-linejoin="round"/>
<path d="M267.699 87.7314C263.911 87.7177 260.261 90.3615 259.103 93.971C257.946 97.5737 259.363 101.854 262.445 104.053C258.781 106.806 259.11 112.841 262.13 116.279C265.151 119.724 269.931 121.032 274.493 121.457C280.026 121.964 285.656 121.409 290.985 119.82C293.615 119.039 296.231 117.964 298.238 116.094C300.244 114.224 301.552 111.43 301.052 108.731C304.217 107.361 306.306 103.848 305.997 100.416C305.689 96.9846 303.011 93.8957 299.655 93.108C303.08 89.2861 302.908 82.7862 299.292 79.1424C295.45 75.2795 289.512 75.6493 285.327 78.5945C281.999 75.4987 277.116 74.2795 273.034 76.3822C268.931 78.5055 264.452 82.8547 267.699 87.7314Z" fill="#333333"/>
<path fill-rule="evenodd" clip-rule="evenodd" d="M245.158 249.705C245.124 252.609 251.487 253.211 257.103 253.273C262.719 253.335 268.431 252.889 268.465 249.985C268.499 247.081 267.725 242.287 262.109 242.225C256.5 242.164 245.193 246.794 245.158 249.705Z" fill="white" stroke="#333333" stroke-miterlimit="10" stroke-linecap="round" stroke-linejoin="round"/>
<path fill-rule="evenodd" clip-rule="evenodd" d="M218.962 222.952C220.468 225.438 226.194 222.595 230.995 219.684C235.796 216.774 240.419 213.383 238.912 210.897C237.406 208.411 234.221 204.746 229.42 207.657C224.619 210.568 217.455 220.465 218.962 222.952Z" fill="white" stroke="#333333" stroke-miterlimit="10" stroke-linecap="round" stroke-linejoin="round"/>
<path d="M298.086 131.604H304.997L302.545 119.296C300.737 109.221 286.615 108.529 286.615 108.529L275.533 108.351C275.533 108.351 267.315 107.248 262.246 112.96C261.205 114.131 260.116 115.351 259.041 116.549L247.021 129.124L245.748 113.344L235.454 114.96L236.892 134.775C237.207 137.967 239.275 140.83 242.337 141.795C244.563 142.501 246.83 141.884 249.09 140.754C255.089 137.761 266.328 128.255 267.191 127.522C266.671 128.59 265.637 130.994 265.637 133.282C265.637 136.563 269.006 139.021 269.006 139.021L270.054 149.008L266.575 165.131L302.764 163.679C302.059 157.829 300.189 152.823 297.429 148.467L298.086 131.604ZM267.198 127.481C267.171 127.453 267.13 127.371 267.082 127.234L267.472 126.96C267.465 126.96 267.363 127.152 267.198 127.481Z" fill="url(#paint0_linear_36_3152)" stroke="#333333" stroke-miterlimit="10" stroke-linecap="round" stroke-linejoin="round"/>
<path d="M281.889 159.548C279.868 160.884 277.41 162.445 276.033 163.103C273.465 164.322 273.348 164.096 273.246 163.774C272.978 162.911 277.677 161.452 276.471 161.192C275.266 160.925 270.951 163.637 270.705 162.719C270.39 161.534 275.334 160.096 275.745 159.945C276.143 159.795 275.93 159.206 275.574 159.356C275.054 159.582 269.533 161.815 269.212 160.651C269.033 160.007 270.239 159.822 270.239 159.822C270.239 159.822 275.567 158.11 275.396 157.562C275.225 157.007 272.061 157.911 271.013 158.288C269.979 158.665 269.369 158.329 269.575 157.74C269.712 157.336 272.883 156.103 273.924 155.754C274.965 155.404 277.841 154.493 276.026 153.802C274.211 153.11 273.074 151.911 272.992 151.384C272.91 150.85 273.629 150.562 274.054 150.987C274.396 151.329 275.143 151.733 275.718 152.007C276.191 152.24 276.697 152.391 277.218 152.452C277.67 152.507 278.074 152.541 278.43 152.562L282.279 152.85L284.217 157.945L281.889 159.548Z" fill="white" stroke="#333333" stroke-miterlimit="10" stroke-linecap="round" stroke-linejoin="round"/>
<path d="M298.751 113.111C298.751 113.111 301.894 115.303 303.305 119.926C304.161 122.72 306.613 132.186 308.414 139.227C309.592 143.823 307.01 148.549 302.504 150.042L282.135 161.049L278.807 152.439L296.682 140.693L291.299 128.624" fill="url(#paint1_linear_36_3152)"/>
<path d="M298.751 113.111C298.751 113.111 301.894 115.303 303.305 119.926C304.161 122.72 306.613 132.186 308.414 139.227C309.592 143.823 307.01 148.549 302.504 150.042L282.135 161.049L278.807 152.439L296.682 140.693L291.299 128.624" stroke="#333333" stroke-miterlimit="10" stroke-linecap="round" stroke-linejoin="round"/>
<path d="M237.063 114.611L235.926 111.426C235.344 109.159 237.022 108.919 237.282 108.604C238.097 107.638 238.714 107.433 238.714 107.433L238.522 106.522C238.522 106.522 237.858 104.186 237.844 103.556C237.83 103.022 238.755 103.049 238.919 103.577C239.303 104.775 239.967 106.816 240.296 107.57C240.734 108.563 241.734 111.159 242.508 109.645C243.282 108.125 243.131 107.2 243.255 106.72C243.378 106.214 244.474 106.193 244.33 107.248C244.268 107.686 244.268 108.481 244.07 109.536C243.98 110.008 243.761 110.577 243.665 111.049C243.549 111.597 243.617 113.666 243.563 114.063L237.063 114.611Z" fill="white" stroke="#333333" stroke-miterlimit="10" stroke-linecap="round" stroke-linejoin="round"/>
<path d="M281.704 164.856C280.978 165.096 253.603 176.349 251.672 179.973C249.74 183.589 254.48 243.663 254.48 243.663L265.821 242.896L269.088 190.274L299.477 182.575L281.704 164.856Z" fill="#444444" stroke="#333333"/>
<path d="M302.566 162.37C302.566 162.37 255.528 152.158 250.946 154.329C246.364 156.5 230.187 207.281 230.187 207.281L237.974 212.883L259.384 172.35C259.384 172.35 293.744 183.986 299.484 182.575C312.12 179.452 302.566 162.37 302.566 162.37Z" fill="#666666" stroke="#333333"/>
<path d="M287.162 109.748C287.162 109.748 284.485 115.405 279.04 114.891C275.41 114.549 276.163 109.748 276.163 109.748V95.6657H287.169V109.748H287.162Z" fill="white" stroke="#333333" stroke-miterlimit="10" stroke-linecap="round" stroke-linejoin="round"/>
<path d="M289.902 90.9465C291.19 99.2409 284.478 104.426 279.17 105.213C273.862 106.001 271.67 100.385 270.691 93.8095C269.712 87.2274 273.218 81.2549 278.519 80.4604C283.827 79.6727 288.882 84.3781 289.902 90.9465Z" fill="white" stroke="#333333" stroke-miterlimit="10" stroke-linecap="round" stroke-linejoin="round"/>
<path d="M283.571 88.0859C284.537 87.9558 285.489 87.6202 286.386 87.2366C286.509 87.6818 286.632 88.1339 286.763 88.5791C287.009 89.4695 287.297 90.2777 287.221 91.2023C287.167 91.9078 287.228 92.579 287.29 93.2776C287.427 94.7639 287.55 96.257 287.701 97.7433C287.762 98.3187 288.091 103.695 289.091 103.545C290.303 103.36 291.749 91.1544 292.057 89.9695C292.913 86.6955 291.844 83.0929 289.666 80.497C287.084 77.4217 282.776 74.8053 278.777 75.0861C277.003 75.2094 275.209 75.73 273.811 76.8327C272.962 77.4834 272.421 78.2847 272.195 79.3121C271.907 80.634 271.072 81.7299 270.935 83.1066C270.798 84.4969 271.401 86.0586 272.688 86.5997C273.366 86.8873 274.14 86.8531 274.866 86.7161C276.291 86.4353 277.633 85.7298 278.674 84.7161C278.599 86.3394 280.071 87.7161 281.66 88.038C282.297 88.175 282.934 88.175 283.571 88.0859Z" fill="#333333"/>
<path d="M275.889 93.7549C275.663 94.3919 275.437 95.0288 275.211 95.6658C275.156 95.8234 275.102 95.9877 275.129 96.1521C275.191 96.4672 275.554 96.6384 275.869 96.5973C276.184 96.5562 276.451 96.3644 276.711 96.1727" stroke="#333333" stroke-miterlimit="10" stroke-linecap="round" stroke-linejoin="round"/>
<path d="M273.814 91.0633C273.896 90.7825 273.643 90.4743 273.348 90.4537C273.054 90.4332 272.78 90.6523 272.67 90.9263C272.561 91.2003 272.595 91.5085 272.691 91.7893C272.787 92.0633 273.054 92.351 273.314 92.2345C273.527 92.1386 273.547 91.851 273.54 91.6181C273.533 91.4674 273.533 91.303 273.465 91.166C273.396 91.0291 273.246 90.9195 273.095 90.9537C272.944 90.988 272.855 91.2003 272.965 91.303" stroke="#333333" stroke-miterlimit="10" stroke-linecap="round" stroke-linejoin="round"/>
<path d="M278.862 90.8916C279.053 90.8026 279.108 90.5149 278.985 90.3437C278.862 90.1656 278.601 90.1176 278.41 90.2067C278.218 90.2957 278.088 90.5012 278.067 90.7135C278.04 90.9738 278.143 91.2272 278.273 91.4532C278.369 91.6108 278.492 91.7683 278.67 91.8025C278.937 91.8573 279.184 91.5902 279.218 91.3231C279.252 91.056 279.136 90.7888 279.019 90.5423C278.923 90.5217 278.821 90.5012 278.725 90.4806C278.519 90.7752 278.485 91.1793 278.643 91.5012" stroke="#333333" stroke-miterlimit="10" stroke-linecap="round" stroke-linejoin="round"/>
<path d="M276.156 98.8714C276.417 99.0768 276.65 99.5015 276.93 99.3782C277.163 99.2755 277.252 98.8577 277.444 98.6453C277.691 98.3782 278.026 98.5015 278.321 98.618C278.615 98.7344 278.971 98.8097 279.184 98.4878C279.047 99.296 278.711 100.029 278.252 100.515C277.663 101.138 276.848 101.33 276.198 100.858C275.965 100.686 275.074 99.7618 275.122 99.3029C275.177 98.7138 275.882 98.6522 276.156 98.8714Z" fill="#333333"/>
<path fill-rule="evenodd" clip-rule="evenodd" d="M78.5069 188.359C89.6208 187.439 99.9787 182.711 99.9787 182.711L50.6327 182.746C50.6327 182.746 62.5026 188.088 73.6031 188.489V241.306H54.0626V242.293C52.2287 242.294 50.7423 243.781 50.7423 245.615C50.7423 247.449 52.2295 248.937 54.064 248.937C55.8985 248.937 57.3857 247.449 57.3857 245.615C57.3857 245.155 57.2925 244.718 57.1238 244.32H73.4074C73.2384 244.718 73.1449 245.155 73.1449 245.615C73.1449 247.45 74.6311 248.937 76.4665 248.937C78.302 248.937 79.7882 247.45 79.7882 245.615C79.7882 245.155 79.6951 244.718 79.5267 244.32H92.7548C92.5862 244.718 92.4929 245.155 92.4929 245.615C92.4929 247.449 93.9801 248.937 95.8146 248.937C97.6491 248.937 99.1363 247.449 99.1363 245.615C99.1363 244.435 98.5211 243.398 97.5939 242.809V241.306H78.5069V213.309H80.3502V215.24H82.7815V208.61H80.3502V210.549H78.5069V188.359Z" fill="white"/>
<path d="M99.9787 182.711L100.186 183.166L99.9783 182.211L99.9787 182.711ZM78.5069 188.359L78.4656 187.86L78.0069 187.898V188.359H78.5069ZM50.6327 182.746L50.6323 182.246L50.4275 183.202L50.6327 182.746ZM73.6031 188.489H74.1031V188.007L73.6211 187.989L73.6031 188.489ZM73.6031 241.306V241.806H74.1031V241.306H73.6031ZM54.0626 241.306V240.806H53.5626V241.306H54.0626ZM54.0626 242.293L54.0628 242.793L54.5626 242.793V242.293H54.0626ZM57.1238 244.32V243.82H56.3689L56.6634 244.515L57.1238 244.32ZM73.4074 244.32L73.8676 244.515L74.163 243.82H73.4074V244.32ZM79.5267 244.32V243.82H78.772L79.0662 244.515L79.5267 244.32ZM92.7548 244.32L93.2152 244.515L93.5097 243.82H92.7548V244.32ZM97.5939 242.809H97.0939V243.084L97.3257 243.231L97.5939 242.809ZM97.5939 241.306H98.0939V240.806H97.5939V241.306ZM78.5069 241.306H78.0069V241.806H78.5069V241.306ZM78.5069 213.309V212.809H78.0069V213.309H78.5069ZM80.3502 213.309H80.8502V212.809H80.3502V213.309ZM80.3502 215.24H79.8502V215.74H80.3502V215.24ZM82.7815 215.24V215.74H83.2815V215.24H82.7815ZM82.7815 208.61H83.2815V208.11H82.7815V208.61ZM80.3502 208.61V208.11H79.8502V208.61H80.3502ZM80.3502 210.549V211.049H80.8502V210.549H80.3502ZM78.5069 210.549H78.0069V211.049H78.5069V210.549ZM99.9787 182.711C99.7711 182.256 99.7711 182.256 99.7711 182.256C99.7711 182.257 99.771 182.257 99.7709 182.257C99.7707 182.257 99.7703 182.257 99.7698 182.257C99.7687 182.258 99.767 182.258 99.7647 182.259C99.7601 182.261 99.753 182.265 99.7434 182.269C99.7243 182.278 99.6954 182.291 99.6569 182.308C99.5801 182.342 99.4651 182.392 99.3145 182.457C99.0132 182.586 98.5691 182.773 98.001 183C96.8647 183.454 95.233 184.07 93.2556 184.715C89.2973 186.005 83.9698 187.405 78.4656 187.86L78.5481 188.857C84.1578 188.392 89.5663 186.969 93.5654 185.665C95.5667 185.013 97.2191 184.39 98.3722 183.929C98.9488 183.698 99.4008 183.508 99.7093 183.376C99.8636 183.309 99.9821 183.257 100.062 183.222C100.102 183.204 100.133 183.19 100.154 183.181C100.164 183.176 100.172 183.173 100.178 183.17C100.18 183.169 100.182 183.168 100.184 183.167C100.185 183.167 100.185 183.167 100.186 183.167C100.186 183.166 100.186 183.166 100.186 183.166C100.186 183.166 100.186 183.166 99.9787 182.711ZM50.633 183.246L99.979 183.211L99.9783 182.211L50.6323 182.246L50.633 183.246ZM73.6211 187.989C68.1359 187.791 62.4426 186.37 58.1068 184.99C55.9419 184.302 54.1221 183.625 52.8442 183.121C52.2054 182.87 51.7023 182.661 51.3596 182.516C51.1883 182.443 51.0571 182.386 50.9691 182.348C50.9251 182.328 50.8919 182.314 50.8699 182.304C50.8589 182.299 50.8507 182.295 50.8454 182.293C50.8427 182.292 50.8407 182.291 50.8395 182.29C50.8389 182.29 50.8384 182.29 50.8381 182.29C50.838 182.29 50.838 182.29 50.8379 182.29C50.8379 182.29 50.8379 182.29 50.6327 182.746C50.4275 183.202 50.4276 183.202 50.4278 183.202C50.4279 183.202 50.4281 183.202 50.4283 183.202C50.4288 183.202 50.4294 183.202 50.4302 183.203C50.4319 183.204 50.4342 183.205 50.4373 183.206C50.4434 183.209 50.4524 183.213 50.4642 183.218C50.4878 183.228 50.5226 183.244 50.5683 183.264C50.6596 183.304 50.7942 183.362 50.9692 183.436C51.319 183.585 51.83 183.797 52.4774 184.052C53.772 184.562 55.6134 185.246 57.8036 185.943C62.1779 187.335 67.9697 188.786 73.585 188.989L73.6211 187.989ZM74.1031 241.306V188.489H73.1031V241.306H74.1031ZM54.0626 241.806H73.6031V240.806H54.0626V241.806ZM54.5626 242.293V241.306H53.5626V242.293H54.5626ZM51.2423 245.615C51.2423 244.057 52.505 242.793 54.0628 242.793L54.0624 241.793C51.9525 241.794 50.2423 243.504 50.2423 245.615H51.2423ZM54.064 248.437C52.5057 248.437 51.2423 247.173 51.2423 245.615H50.2423C50.2423 247.725 51.9533 249.437 54.064 249.437V248.437ZM56.8857 245.615C56.8857 247.173 55.6224 248.437 54.064 248.437V249.437C56.1747 249.437 57.8857 247.725 57.8857 245.615H56.8857ZM56.6634 244.515C56.8064 244.852 56.8857 245.223 56.8857 245.615H57.8857C57.8857 245.087 57.7785 244.583 57.5842 244.125L56.6634 244.515ZM73.4074 243.82H57.1238V244.82H73.4074V243.82ZM73.6449 245.615C73.6449 245.224 73.7244 244.852 73.8676 244.515L72.9472 244.124C72.7525 244.583 72.6449 245.087 72.6449 245.615H73.6449ZM76.4665 248.437C74.9072 248.437 73.6449 247.174 73.6449 245.615H72.6449C72.6449 247.726 74.3549 249.437 76.4665 249.437V248.437ZM79.2882 245.615C79.2882 247.174 78.0259 248.437 76.4665 248.437V249.437C78.5782 249.437 80.2882 247.726 80.2882 245.615H79.2882ZM79.0662 244.515C79.209 244.852 79.2882 245.223 79.2882 245.615H80.2882C80.2882 245.087 80.1812 244.583 79.9871 244.125L79.0662 244.515ZM92.7548 243.82H79.5267V244.82H92.7548V243.82ZM92.9929 245.615C92.9929 245.223 93.0722 244.852 93.2152 244.515L92.2944 244.125C92.1001 244.583 91.9929 245.087 91.9929 245.615H92.9929ZM95.8146 248.437C94.2562 248.437 92.9929 247.173 92.9929 245.615H91.9929C91.9929 247.725 93.7039 249.437 95.8146 249.437V248.437ZM98.6363 245.615C98.6363 247.173 97.3729 248.437 95.8146 248.437V249.437C97.9253 249.437 99.6363 247.725 99.6363 245.615H98.6363ZM97.3257 243.231C98.1146 243.732 98.6363 244.613 98.6363 245.615H99.6363C99.6363 244.257 98.9276 243.064 97.8621 242.387L97.3257 243.231ZM97.0939 241.306V242.809H98.0939V241.306H97.0939ZM78.5069 241.806H97.5939V240.806H78.5069V241.806ZM78.0069 213.309V241.306H79.0069V213.309H78.0069ZM80.3502 212.809H78.5069V213.809H80.3502V212.809ZM79.8502 213.309V215.24H80.8502V213.309H79.8502ZM80.3502 215.74H82.7815V214.74H80.3502V215.74ZM83.2815 215.24V208.61H82.2815V215.24H83.2815ZM82.7815 208.11H80.3502V209.11H82.7815V208.11ZM79.8502 208.61V210.549H80.8502V208.61H79.8502ZM78.5069 211.049H80.3502V210.049H78.5069V211.049ZM78.0069 188.359V210.549H79.0069V188.359H78.0069Z" fill="#CCCCCC"/>
<path d="M49.53 182.711H103.999C106.033 182.711 107.684 181.061 107.684 179.026C107.684 176.992 106.033 175.342 103.999 175.342H44.7495V177.937C44.7495 180.574 46.8932 182.711 49.53 182.711Z" fill="white" stroke="#CCCCCC"/>
<path d="M87.1778 103.548L48.742 104.021C46.8449 104.041 45.3107 105.582 45.297 107.479L44.756 175.335L96.547 176.04L90.7049 106.733C90.5406 104.918 89.0064 103.521 87.1778 103.548Z" fill="white" stroke="#CCCCCC"/>
<path d="M56.5569 110.358L68.9602 110.358L68.9602 85.2008L56.5569 85.2008L56.5569 110.358Z" fill="white" stroke="#333333" stroke-miterlimit="10" stroke-linecap="round" stroke-linejoin="round"/>
<path d="M62.947 65.946C63.5908 64.8432 64.9263 64.2611 66.0769 64.583C67.5494 63.5077 69.6931 63.7131 70.9259 65.0487C72.0217 64.4597 73.3846 64.535 74.3914 65.2405C75.3982 65.946 76.0146 67.2473 75.9598 68.5555C77.1858 68.4391 78.4186 69.2404 78.8843 70.4596C79.35 71.6788 79.0076 73.213 78.0761 74.0965C79.35 74.6582 80.076 76.3499 79.665 77.7883C79.2541 79.2266 77.7542 80.2129 76.3981 79.9389L63.1867 69.5487C62.3991 68.5898 62.3032 67.0555 62.947 65.946Z" fill="#333333"/>
<path d="M56.5569 83.8293C56.5912 82.9595 55.8926 82.2129 55.0228 82.2198C53.9612 82.2335 52.749 82.7403 52.6394 84.9184C52.4545 88.7813 56.372 88.1717 56.3857 88.0622C56.3926 87.9868 56.4953 85.4458 56.5569 83.8293Z" fill="white" stroke="#333333" stroke-miterlimit="10" stroke-linecap="round" stroke-linejoin="round"/>
<path d="M55.4475 80.5826C54.0982 89.2743 61.132 94.7057 66.6864 95.5345C72.2409 96.3632 74.5421 90.4797 75.5694 83.5826C76.5967 76.6854 72.9257 70.4252 67.3645 69.6033C61.8101 68.7677 56.5159 73.6923 55.4475 80.5826Z" fill="white" stroke="#333333" stroke-miterlimit="10" stroke-linecap="round" stroke-linejoin="round"/>
<path d="M53.653 77.795C54.2215 78.2539 54.8173 78.7197 55.5296 78.8498C56.2419 78.9799 57.1049 78.6306 57.2829 77.9251C57.3651 77.6101 57.3172 77.2334 57.5432 77.0005C57.8171 76.7265 58.276 76.8567 58.6595 76.9252C59.9882 77.1717 61.4333 76.3361 61.8785 75.0622C62.1799 75.6033 62.9812 75.6444 63.5222 75.3498C64.0633 75.0553 64.44 74.5416 64.8851 74.1101C65.3235 73.6786 65.9262 73.3088 66.5289 73.4458C66.8645 73.5211 67.1658 73.7471 67.5151 73.7471C68.1247 73.7403 68.4739 73.0554 68.6178 72.4663C68.7548 71.8704 68.8849 71.1787 69.4259 70.891C69.9259 70.6239 70.5286 70.8499 71.0765 70.98C71.6244 71.1033 72.3573 71.0348 72.5422 70.5006C72.6381 70.2198 72.5422 69.9116 72.4052 69.6513C71.7751 68.4664 70.2547 67.8362 68.9739 68.2404C68.6452 66.6787 67.3165 65.3842 65.7481 65.0897C64.1797 64.7952 62.4744 65.5281 61.6045 66.8637C60.7005 65.9048 59.317 65.4185 58.0089 65.6103C56.7008 65.802 55.5159 66.6582 54.9201 67.8363C53.8243 67.4527 52.5093 67.7815 51.7285 68.6445C50.9477 69.5006 50.7354 70.8431 51.2217 71.8978C50.3587 72.3019 49.578 73.069 49.4889 74.0211C49.393 74.9731 50.2491 76.0005 51.1874 75.8224C50.756 76.5347 50.982 77.569 51.6669 78.0416C52.3517 78.5142 53.3996 78.3498 53.9064 77.6923" fill="#333333"/>
<path d="M71.5765 80.6032C71.645 80.4457 71.7203 80.2882 71.8162 80.1443C71.7888 80.1854 71.7546 80.2334 71.7272 80.2745C71.782 80.1923 71.8436 80.1169 71.9189 80.0485C71.8778 80.0895 71.8299 80.1238 71.7888 80.1649C71.823 80.1375 71.8573 80.1101 71.8984 80.0827C71.8436 80.1169 71.7888 80.1443 71.734 80.1786C71.7614 80.1649 71.7888 80.1512 71.8162 80.1375C71.7546 80.158 71.6861 80.1854 71.6244 80.206C71.6518 80.1923 71.6792 80.1854 71.7135 80.1786C71.645 80.1923 71.5765 80.1991 71.508 80.2128C71.5285 80.2128 71.5491 80.206 71.5765 80.206C71.5148 80.206 71.4464 80.206 71.3847 80.206C71.4121 80.206 71.4464 80.206 71.4738 80.2128C71.419 80.1991 71.3573 80.1854 71.3025 80.1786C71.3299 80.1854 71.3573 80.1923 71.3916 80.206C71.3436 80.1854 71.2957 80.158 71.2477 80.1375C71.2957 80.158 71.3299 80.1854 71.371 80.2197C71.3368 80.1854 71.3025 80.1512 71.2614 80.1238C71.3299 80.1923 71.3847 80.2676 71.4258 80.3498C71.4053 80.3087 71.3847 80.2676 71.3642 80.2265C71.4532 80.4115 71.5012 80.6169 71.508 80.8224C71.508 80.7745 71.5011 80.7334 71.5011 80.6854C71.508 80.8498 71.4943 81.0142 71.4532 81.1717C71.4669 81.1238 71.4806 81.0827 71.4943 81.0347C71.4669 81.1169 71.4327 81.1991 71.3847 81.2745C71.4121 81.2334 71.4464 81.1854 71.4738 81.1443C71.4532 81.1786 71.4258 81.206 71.3984 81.2334C71.4395 81.1923 71.4875 81.158 71.5285 81.1169C71.508 81.1306 71.4943 81.1443 71.4738 81.158C71.5285 81.1238 71.5833 81.0964 71.6381 81.0621C71.6244 81.069 71.6107 81.0758 71.597 81.0827C71.6587 81.0621 71.7272 81.0347 71.7888 81.0142C71.782 81.021 71.7683 81.021 71.7614 81.021C71.8299 81.0073 71.8984 81.0005 71.9669 80.9868C71.9532 80.9868 71.9395 80.9936 71.9189 80.9936C71.9806 80.9936 72.0491 80.9936 72.1107 80.9936C72.1038 80.9936 72.0902 80.9936 72.0833 80.9936C72.1381 81.0073 72.1997 81.021 72.2545 81.0279C72.2408 81.021 72.2271 81.021 72.2134 81.0142C72.2614 81.0347 72.3093 81.0621 72.3573 81.0827C72.3299 81.069 72.3093 81.0553 72.2888 81.0347C72.323 81.069 72.3573 81.1032 72.3983 81.1306C72.3641 81.0964 72.3367 81.0553 72.3162 81.0142C72.3367 81.0553 72.3573 81.0964 72.3778 81.1375C72.323 81.0142 72.2956 80.8772 72.2819 80.7471C72.2819 80.795 72.2888 80.8361 72.2888 80.8841C72.2819 80.7539 72.2888 80.6169 72.3299 80.4936C72.3162 80.5416 72.3025 80.5827 72.2888 80.6306C72.3025 80.5964 72.3093 80.569 72.3299 80.5416C72.3641 80.4731 72.3847 80.3909 72.4052 80.3156C72.3915 80.3635 72.3778 80.4046 72.3641 80.4526C72.371 80.4252 72.3847 80.3978 72.4052 80.3704C72.3778 80.4115 72.3436 80.4594 72.3162 80.5005C72.323 80.4936 72.3299 80.4799 72.3436 80.4731C72.3025 80.5142 72.2545 80.5484 72.2134 80.5895C72.2203 80.5827 72.2203 80.5827 72.2271 80.5758C72.1723 80.6101 72.1175 80.6375 72.0628 80.6717C72.0696 80.6649 72.0833 80.658 72.0902 80.658C72.0285 80.6786 71.96 80.706 71.8984 80.7265C71.9052 80.7265 71.9052 80.7265 71.9121 80.7265C71.8436 80.7402 71.7751 80.7471 71.7066 80.7608C71.7135 80.7608 71.7135 80.7608 71.7203 80.7608C71.6587 80.7608 71.5902 80.7608 71.5285 80.7608C71.5354 80.7608 71.5354 80.7608 71.5422 80.7608C71.4875 80.7471 71.4258 80.7334 71.371 80.7265C71.3779 80.7265 71.3779 80.7334 71.3847 80.7334C71.3368 80.7128 71.2888 80.6854 71.2409 80.6649C71.2477 80.6649 71.2477 80.6717 71.2546 80.6717C71.2203 80.6375 71.1861 80.6032 71.145 80.5758C71.1656 80.5895 71.1724 80.6101 71.1861 80.6306C71.1656 80.5895 71.145 80.5484 71.1245 80.5073C71.145 80.5484 71.1519 80.5964 71.1519 80.6443C71.1519 80.5964 71.145 80.5553 71.145 80.5073C71.145 80.569 71.145 80.6306 71.1245 80.6923C71.1382 80.6443 71.1519 80.6032 71.1656 80.5553C71.1587 80.5758 71.145 80.5964 71.1382 80.6169C71.1656 80.5758 71.1998 80.5279 71.2272 80.4868C71.2272 80.4936 71.2203 80.4936 71.2203 80.5005C71.1313 80.6101 71.056 80.7608 71.0971 80.9046C71.1313 81.0484 71.2751 81.1512 71.4053 81.1923C71.5833 81.2471 71.7888 81.2471 71.9669 81.1991C72.1449 81.1443 72.3299 81.0621 72.4531 80.9114C72.6723 80.6443 72.7339 80.2402 72.5216 79.9457C72.4189 79.795 72.2271 79.7265 72.0559 79.706C71.8367 79.6786 71.6107 79.7197 71.4121 79.8156C71.1382 79.9457 70.9327 80.1786 70.8848 80.4799C70.8985 80.432 70.9121 80.3909 70.9258 80.343C70.83 80.5005 70.782 80.706 70.782 80.8909C70.7752 81.0827 70.7889 81.295 70.8642 81.4799C70.9669 81.7334 71.1245 81.9183 71.3916 82.0005C71.8436 82.1375 72.371 81.9594 72.6792 81.6101C73.0284 81.2197 73.0764 80.6443 72.9737 80.1512C72.9257 79.9457 72.8435 79.7197 72.7134 79.5553C72.4805 79.2539 72.0902 79.117 71.7203 79.1512C71.2888 79.1854 70.8985 79.3909 70.6108 79.7128C70.4259 79.9252 70.2821 80.1786 70.1725 80.4389C70.1177 80.5758 70.1108 80.7197 70.1999 80.8361C70.2889 80.9594 70.4738 81.0279 70.6176 81.0416C70.8163 81.0553 71.0286 81.0279 71.2067 80.9388C71.3436 80.8772 71.508 80.7676 71.5765 80.6032Z" fill="#333333"/>
<path d="M65.6455 80.5895C65.6523 80.4457 65.6592 80.3019 65.666 80.1512C65.6523 80.2128 65.6455 80.2745 65.6318 80.3361C65.6455 80.3087 65.6592 80.2813 65.6729 80.2608C65.6318 80.3156 65.5975 80.3772 65.5564 80.432C65.577 80.4046 65.6044 80.3772 65.6318 80.3498C65.5701 80.3978 65.5016 80.4525 65.44 80.5005C65.4537 80.4868 65.4674 80.4799 65.4811 80.4731C65.3989 80.5142 65.3099 80.5553 65.2277 80.5964C65.2345 80.5895 65.2482 80.5895 65.2551 80.5827C65.1523 80.6101 65.0565 80.6443 64.9537 80.6717C64.9606 80.6717 64.9743 80.6649 64.9811 80.6649C64.8715 80.6786 64.7551 80.6991 64.6455 80.7128C64.6524 80.7128 64.6661 80.7128 64.6729 80.7128C64.5565 80.7128 64.4469 80.7128 64.3305 80.7128C64.3373 80.7128 64.3442 80.7128 64.351 80.7128C64.2483 80.6991 64.1456 80.6786 64.0428 80.6649C64.0565 80.6649 64.0702 80.6717 64.0771 80.6717C63.988 80.6443 63.899 80.6101 63.81 80.5827C63.8237 80.5895 63.8374 80.5964 63.8442 80.6032C63.7757 80.5621 63.7072 80.521 63.6319 80.4799C63.6524 80.4936 63.673 80.5142 63.6935 80.5279C63.6456 80.4731 63.5976 80.4251 63.5566 80.3704C63.6113 80.432 63.6456 80.5142 63.673 80.5964C63.6524 80.5347 63.6319 80.4731 63.6182 80.4183C63.6935 80.6443 63.7072 80.8977 63.6661 81.1375C63.6798 81.0758 63.6867 81.0142 63.7004 80.9525C63.6935 80.9594 63.6867 80.9731 63.6867 80.9799C63.7278 80.9251 63.762 80.8635 63.8031 80.8087C63.7894 80.8293 63.7689 80.8498 63.7483 80.8703C63.81 80.8224 63.8785 80.7676 63.9401 80.7197C63.9264 80.7265 63.9127 80.7402 63.899 80.7471C63.9812 80.706 64.0702 80.6649 64.1524 80.6238C64.1456 80.6238 64.1387 80.6306 64.1319 80.6306C64.2346 80.6032 64.3305 80.569 64.4332 80.5416C64.4264 80.5416 64.4127 80.5484 64.4058 80.5484C64.5154 80.5347 64.6318 80.5142 64.7414 80.5005C64.7346 80.5005 64.7277 80.5005 64.7209 80.5005C64.8373 80.5005 64.9469 80.5005 65.0633 80.5005C65.0565 80.5005 65.0496 80.5005 65.0428 80.5005C65.1455 80.5142 65.2482 80.5347 65.351 80.5484C65.3441 80.5484 65.3304 80.5416 65.3236 80.5416C65.4126 80.569 65.5016 80.6032 65.5907 80.6306C65.577 80.6238 65.5633 80.6169 65.5496 80.6101C65.6181 80.6512 65.6865 80.6923 65.7619 80.7334C65.7345 80.7197 65.7139 80.6991 65.6934 80.6717C65.7413 80.7265 65.7893 80.7745 65.8304 80.8293C65.7756 80.7608 65.7345 80.6854 65.7071 80.6032C65.7276 80.6649 65.7482 80.7265 65.7619 80.7813C65.7345 80.6991 65.7208 80.6101 65.7139 80.521C65.5153 80.7334 65.3167 80.9457 65.1181 81.158C65.214 81.1238 65.3099 81.0964 65.4057 81.0621C65.5359 81.021 65.6523 80.9525 65.755 80.8567C65.8509 80.795 65.9194 80.7128 65.9674 80.6032C66.0153 80.5073 66.0153 80.4183 65.9742 80.3293C65.9537 80.2265 65.8989 80.1443 65.803 80.0827C65.7345 80.0416 65.666 80.0005 65.5907 79.9594C65.4057 79.8772 65.214 79.8361 65.0154 79.8224C64.8989 79.8224 64.7894 79.8224 64.6729 79.8224C64.4538 79.8361 64.2414 79.8841 64.036 79.9594C63.9401 79.9936 63.8442 80.021 63.7483 80.0553C63.5771 80.1169 63.4333 80.2128 63.3031 80.3361C63.2004 80.432 63.1525 80.5553 63.1525 80.6991C63.1662 80.8703 63.2141 81.0416 63.2826 81.1991C63.3031 81.2402 63.3237 81.2881 63.3511 81.3224C63.3785 81.3635 63.4196 81.4046 63.4538 81.4388C63.4881 81.4731 63.5223 81.521 63.5634 81.5553C63.5703 81.5621 63.5771 81.5621 63.584 81.569C63.6524 81.6169 63.7346 81.6649 63.81 81.706C63.8168 81.7128 63.8237 81.7128 63.8305 81.7128C63.8305 81.7128 63.8374 81.7128 63.8374 81.7197C63.899 81.747 64.0428 81.795 64.1113 81.8155C64.1182 81.8155 64.125 81.8224 64.1319 81.8224C64.1798 81.8361 64.3784 81.8635 64.2962 81.8498C64.2757 81.8498 64.4058 81.8703 64.4606 81.8772C64.4675 81.8772 64.4675 81.8772 64.4743 81.8772C64.5017 81.8772 64.7962 81.8772 64.8167 81.8772H64.8236C64.8989 81.8703 65.0975 81.8429 65.166 81.8292C65.1729 81.8292 65.1797 81.8292 65.1866 81.8224C65.2345 81.8155 65.44 81.747 65.3441 81.7744C65.3167 81.7813 65.4537 81.747 65.5016 81.7265C65.5907 81.6923 65.6865 81.6375 65.7687 81.5964C65.7756 81.5895 65.7824 81.5895 65.7893 81.5827C65.8578 81.5347 65.9331 81.4731 65.9947 81.4183C66.0016 81.4114 66.0084 81.4046 66.0153 81.4046C66.0495 81.3703 66.0838 81.3155 66.1112 81.2745C66.1317 81.2471 66.166 81.1991 66.1865 81.1649C66.2002 81.1443 66.2208 81.0005 66.2208 80.9731C66.2208 80.9662 66.2208 80.9594 66.2208 80.9525C66.2276 80.9183 66.2276 80.884 66.2345 80.8498C66.2413 80.7882 66.2413 80.7265 66.2413 80.6649C66.2345 80.5416 66.2208 80.4183 66.1865 80.3019C66.1591 80.1991 66.1249 80.0895 66.0838 79.9868C66.0632 79.9457 66.0427 79.8978 66.0084 79.8635C65.9605 79.8019 65.9057 79.7402 65.8509 79.6854C65.8441 79.6786 65.8372 79.6717 65.8235 79.658C65.8167 79.6512 65.8098 79.6443 65.7961 79.6375C65.7482 79.6032 65.6318 79.5348 65.5838 79.5074C65.577 79.5005 65.5701 79.5005 65.5633 79.4937C65.5564 79.4937 65.5564 79.4868 65.5496 79.4868C65.5016 79.4663 65.3236 79.4115 65.2756 79.3978C65.2688 79.3978 65.2551 79.3909 65.2482 79.3909C65.0154 79.343 64.7894 79.3293 64.5565 79.3361C64.5017 79.3361 64.3305 79.3704 64.3784 79.3635C64.3373 79.3704 64.2551 79.3772 64.1935 79.3909C64.1867 79.3909 64.1867 79.3909 64.1798 79.3978C64.0771 79.4252 63.9812 79.4594 63.8785 79.4868C63.8716 79.4868 63.8716 79.4868 63.8648 79.4937C63.8579 79.4937 63.8579 79.5005 63.8511 79.5005C63.7757 79.5348 63.6593 79.5895 63.5908 79.6306C63.5771 79.6375 63.5703 79.6443 63.5634 79.6512C63.4881 79.6991 63.4196 79.7608 63.3511 79.8224C63.3374 79.8293 63.3305 79.843 63.3237 79.8498C63.3168 79.8635 63.3031 79.8704 63.2963 79.8841C63.2484 79.9526 63.2004 80.021 63.1593 80.0964C63.1319 80.1443 63.1319 80.1649 63.1251 80.2265C63.1182 80.2813 63.1114 80.3224 63.1045 80.3704C63.1045 80.4114 63.1045 80.4525 63.0977 80.4936C63.0908 80.5827 63.0908 80.6649 63.084 80.7539C63.0908 80.8635 63.1319 80.9457 63.2141 81.0142C63.2826 81.1101 63.3785 81.1786 63.4949 81.2197C63.6319 81.2813 63.7689 81.3224 63.9195 81.3361C64.0839 81.3703 64.2483 81.3772 64.4195 81.3635C64.5291 81.3498 64.6455 81.3292 64.7551 81.3155C64.9537 81.2745 65.1386 81.206 65.3099 81.0964C65.3715 81.0484 65.44 80.9936 65.5016 80.9457C65.5975 80.8498 65.6455 80.7334 65.6455 80.5895Z" fill="#333333"/>
<path d="M69.8368 83.1443C69.782 83.3292 69.8642 83.5004 69.967 83.6374C70.0834 83.7813 70.2272 83.8771 70.4053 83.9936C70.5697 84.1169 70.7751 84.2607 70.9258 84.5141C71.0833 84.7675 71.1176 85.1237 71.0285 85.4114C70.9464 85.7059 70.782 85.9525 70.5765 86.1579C70.3642 86.3634 70.0491 86.4867 69.7889 86.4935C69.241 86.5141 68.8095 86.3155 68.4534 85.9662L68.4739 85.8634C68.9328 85.6579 69.3369 85.6031 69.6108 85.4799L69.9601 85.3429C70.0834 85.3018 70.193 85.2127 70.2615 85.1168C70.33 85.0141 70.3505 84.9251 70.3231 84.8018C70.2957 84.6785 70.1861 84.5278 70.056 84.3703C69.9327 84.2128 69.7683 84.0141 69.693 83.7881C69.604 83.5689 69.5903 83.2813 69.7478 83.0895L69.8368 83.1443Z" fill="#333333"/>
<path d="M70.1999 88.521C69.4808 88.6443 68.7616 88.7813 68.0288 88.8224C67.433 88.8498 66.8577 88.8019 66.3577 88.4526C66.2687 88.3909 65.5906 88.1375 65.5701 88.3841C65.481 89.3087 65.8303 90.1991 66.5084 90.8292C67.2617 91.5278 68.385 91.7881 69.3575 91.4525C69.5698 91.3772 69.378 91.1991 69.2685 91.1306C69.0904 91.021 68.789 90.9114 68.5767 90.9868C68.3165 91.0758 68.0014 91.158 67.7412 91.0758C67.5015 91.0005 67.2823 90.7881 67.1179 90.5895C66.6864 90.069 66.4878 89.3772 66.5495 88.6991C66.2892 88.6786 66.0221 88.658 65.7618 88.6306C67.2549 89.6717 69.1383 89.3019 70.8026 89.021C70.9875 88.9868 71.0492 88.8772 70.8916 88.7471C70.7341 88.6032 70.4191 88.4868 70.1999 88.521Z" fill="#333333"/>
<path fill-rule="evenodd" clip-rule="evenodd" d="M99.3417 243.245C97.7391 245.669 92.1299 242.601 87.4453 239.505C82.7607 236.409 78.2747 232.841 79.8773 230.416C81.4799 227.991 84.8016 224.457 89.4862 227.553C94.1777 230.649 100.944 240.82 99.3417 243.245Z" fill="white" stroke="#333333" stroke-miterlimit="10" stroke-linecap="round" stroke-linejoin="round"/>
<path fill-rule="evenodd" clip-rule="evenodd" d="M153.208 249.971C153.174 252.875 146.798 253.341 141.188 253.272C135.579 253.204 129.867 252.642 129.901 249.731C129.936 246.827 130.812 242.053 136.428 242.115C142.044 242.176 153.235 247.067 153.208 249.971Z" fill="white" stroke="#333333" stroke-miterlimit="10" stroke-linecap="round" stroke-linejoin="round"/>
<path d="M112.053 133.972C112.053 133.739 114.224 131.685 114.574 131.568C114.923 131.452 121.251 128.815 121.368 129.109C121.484 129.404 122.244 130.842 120.957 131.527L119.964 131.863L123.594 132.157C123.594 132.157 127.634 135.144 127.58 135.787C127.518 136.431 126.991 136.842 126.641 136.548C126.292 136.253 127.58 138.596 127.58 138.596C127.58 138.596 127.58 139.589 127.052 139.417C126.525 139.239 125.703 138.301 125.703 138.301C125.703 138.301 126.463 139.534 126.23 139.767C125.997 140 124.826 140.061 124.71 139.767C124.593 139.472 124.415 138.945 124.415 138.945L123.71 139.006V139.965L112.985 140.294L112.053 133.972Z" fill="white" stroke="#333333" stroke-miterlimit="10" stroke-linecap="round" stroke-linejoin="round"/>
<path d="M70.4944 104.384L73.7681 108.26L86.8632 131.178L112.403 133.705L112.964 141.095L83.5483 143.876L67.1248 114.151L70.4944 104.384Z" fill="white" stroke="#333333" stroke-miterlimit="10" stroke-linecap="round" stroke-linejoin="round"/>
<path d="M73.0833 115.561L70.5492 106L70.4945 102.884L56.2831 96.4316L53.5504 99.8288L53.8791 100C52.7628 101.178 44.4825 110.116 44.9756 116.712C45.4208 122.657 57.9405 160.109 57.9405 160.109L86.466 151.773L73.0833 115.561Z" fill="white" stroke="#333333" stroke-miterlimit="10" stroke-linecap="round" stroke-linejoin="round"/>
<path d="M70.2342 106.13L69.4397 110.041L71.5286 113.959V116.856L79.9253 151.171L90.8972 153.246L91.6437 150.253C91.6437 150.253 79.1993 129.014 77.0488 123.027C74.8982 117.041 71.7135 108.432 71.7135 108.432L70.2342 106.13Z" fill="url(#paint2_linear_36_3152)" stroke="#333333" stroke-miterlimit="10" stroke-linecap="round" stroke-linejoin="round"/>
<path d="M48.6946 121.102C48.6946 121.376 59.9062 135.691 65.8441 143.246C68.0631 146.075 71.6245 147.492 75.1791 146.972L108.115 142.17L106.999 134.739L83.2333 135.383C80.6376 135.486 78.5693 134.623 76.9803 132.561C71.8848 125.938 60.8307 111.582 60.5431 111.205C60.3513 110.952 58.3172 106.979 51.4273 108.424" fill="white"/>
<path d="M48.6946 121.102C48.6946 121.376 59.9062 135.691 65.8441 143.246C68.0631 146.075 71.6245 147.492 75.1791 146.972L108.115 142.17L106.999 134.739L83.2333 135.383C80.6376 135.486 78.5693 134.623 76.9803 132.561C71.8848 125.938 60.8307 111.582 60.5431 111.205C60.3513 110.952 58.3172 106.979 51.4273 108.424" stroke="#333333" stroke-miterlimit="10" stroke-linecap="round" stroke-linejoin="round"/>
<path d="M121.929 134.753L115.717 133.055L110.56 135.63H107.629L107.163 135.822L107.999 141.383L108.738 141.486C108.738 141.486 109.567 142.075 111.211 142.424C112.855 142.774 115.252 141.719 115.252 141.719L118.532 139.904L120.875 139.24L122.628 140.26C122.628 140.26 122.806 140.966 122.806 141.198C122.806 141.431 123.45 141.726 123.799 141.726C124.148 141.726 124.265 140.904 124.265 140.904L123.854 139.15L124.676 139.911H126.724V138.623L121.929 134.753Z" fill="white" stroke="#333333" stroke-miterlimit="10" stroke-linecap="round" stroke-linejoin="round"/>
<path d="M108.122 175.554L84.103 224.82L94.6434 230.971L122.607 195.355L115.327 175.554H108.122Z" fill="#444444" stroke="#333333"/>
<path d="M57.9404 160.109C57.9404 160.109 54.8653 173.054 63.2072 175.691C71.5423 178.321 111.546 179.574 111.546 179.574L130.703 244.888L140.983 242.292L132.935 172.958C132.059 167.965 128.155 164.047 123.162 163.157C110.3 160.855 87.0001 156.636 86.6782 156.164C86.2399 155.506 84.4866 151.773 84.4866 151.773L57.9404 160.109Z" fill="#666666" stroke="#333333"/>
<path d="M277.8 144.691L105.39 144.079L105.37 149.159L115.61 149.193L115.247 256.699L118.866 256.712L119.222 149.207L261.678 149.717L261.322 257.222L264.934 257.236L265.291 149.731L277.779 149.772L277.8 144.691Z" fill="#F1F2F4" stroke="#CCCCCC"/>
<path d="M172.104 118.833L163.969 143.405H120.188L120.875 141.586H138.374L145.818 117.073C146.188 115.888 147.277 115.087 148.517 115.087L169.44 115.1C171.371 115.094 172.734 116.998 172.104 118.833Z" fill="#F2F2F2" stroke="#333333" stroke-miterlimit="10"/>
<path d="M154.098 129.253C153.811 130.397 154.304 131.52 155.194 131.753C156.084 131.993 157.036 131.26 157.324 130.109C157.612 128.966 157.119 127.842 156.228 127.609C155.338 127.377 154.386 128.109 154.098 129.253Z" fill="url(#paint3_linear_36_3152)" stroke="#333333" stroke-miterlimit="10" stroke-linecap="round" stroke-linejoin="round"/>
<path d="M221.628 121.794L229.196 143.904H269.488L269.193 142.561L252.9 142.054L246.394 121.103C245.798 119.185 244.024 117.884 242.024 117.884L224.416 117.89C222.388 117.897 220.971 119.884 221.628 121.794Z" fill="#F2F2F2" stroke="#333333" stroke-miterlimit="10"/>
<path d="M237.648 129.089C237.935 130.233 237.442 131.356 236.552 131.589C235.661 131.829 234.709 131.096 234.422 129.945C234.134 128.801 234.627 127.678 235.518 127.445C236.408 127.212 237.36 127.945 237.648 129.089Z" fill="url(#paint4_linear_36_3152)" stroke="#333333" stroke-miterlimit="10" stroke-linecap="round" stroke-linejoin="round"/>
</g>
<defs>
<linearGradient id="paint0_linear_36_3152" x1="235.439" y1="136.702" x2="304.995" y2="136.702" gradientUnits="userSpaceOnUse">
<stop stop-color="#FFA363"/>
<stop offset="0.9127" stop-color="#FF7743"/>
</linearGradient>
<linearGradient id="paint1_linear_36_3152" x1="278.803" y1="137.082" x2="308.696" y2="137.082" gradientUnits="userSpaceOnUse">
<stop stop-color="#FF7B46"/>
<stop offset="0.9127" stop-color="#FF7743"/>
</linearGradient>
<linearGradient id="paint2_linear_36_3152" x1="69.4369" y1="129.693" x2="91.6355" y2="129.693" gradientUnits="userSpaceOnUse">
<stop stop-color="#FFA363"/>
<stop offset="0.9127" stop-color="#FF7743"/>
</linearGradient>
<linearGradient id="paint3_linear_36_3152" x1="154.018" y1="129.687" x2="157.405" y2="129.687" gradientUnits="userSpaceOnUse">
<stop stop-color="#FF985B"/>
<stop offset="1" stop-color="#FF7F49"/>
</linearGradient>
<linearGradient id="paint4_linear_36_3152" x1="234.343" y1="129.523" x2="237.729" y2="129.523" gradientUnits="userSpaceOnUse">
<stop stop-color="#FF985B"/>
<stop offset="1" stop-color="#FF7F49"/>
</linearGradient>
<clipPath id="clip0_36_3152">
<rect width="352" height="274" fill="white"/>
</clipPath>
</defs>
</svg>
