<svg width="352" height="274" viewBox="0 0 352 274" fill="none" xmlns="http://www.w3.org/2000/svg">
<path d="M196.28 227H117.72C111.797 227 107 222.15 107 216.174V37.8262C107 31.8499 111.802 27 117.72 27H196.28C202.203 27 207 31.8499 207 37.8262V216.174C207 222.15 202.203 227 196.28 227Z" fill="#F5F5F5"/>
<path d="M166.59 32.5C167.07 32.5001 167.526 32.6384 167.875 32.8858C168.223 33.1322 168.5 33.5188 168.5 34C168.5 34.4813 168.223 34.8678 167.875 35.1143C167.526 35.3617 167.07 35.5 166.59 35.5H148.41C147.93 35.5 147.474 35.3617 147.125 35.1143C146.777 34.8678 146.5 34.4813 146.5 34C146.5 33.5188 146.777 33.1322 147.125 32.8858C147.474 32.6384 147.93 32.5001 148.41 32.5H166.59Z" stroke="#CCCCCC" stroke-miterlimit="10"/>
<path d="M118.793 32.5H132.979C134.272 32.5 135.153 32.9435 135.857 33.6104C136.586 34.3005 137.131 35.2308 137.726 36.2442C138.305 37.2303 138.933 38.296 139.813 39.1035C140.718 39.9323 141.878 40.4825 143.491 40.4825H170.338C171.953 40.4824 173.053 39.9302 173.856 39.0782C174.631 38.2562 175.107 37.1749 175.538 36.1924C175.985 35.1745 176.385 34.2591 176.999 33.583C177.546 32.9803 178.278 32.5557 179.431 32.5049L179.667 32.5H194.922C197.197 32.5001 199.087 33.2359 200.403 34.4981C201.718 35.7582 202.5 37.5792 202.5 39.8272V215.098C202.5 217.306 201.784 218.88 200.576 219.911C199.355 220.953 197.561 221.5 195.299 221.5H118.827C116.328 221.5 114.518 220.859 113.331 219.679C112.145 218.499 111.5 216.7 111.5 214.216V40.3682C111.5 37.9924 112.12 36.0314 113.312 34.6709C114.496 33.3206 116.296 32.5001 118.793 32.5Z" fill="white" stroke="white" stroke-miterlimit="10"/>
<path d="M196 70H118V126H196V70Z" fill="#F1F2F4"/>
<path d="M196 139H118V144H196V139Z" fill="#F1F2F4"/>
<path d="M196 153H118V159H196V153Z" fill="#F1F2F4"/>
<path d="M196 168H118V173H196V168Z" fill="#F1F2F4"/>
<path d="M196 182H118V188H196V182Z" fill="#F1F2F4"/>
<path d="M196 197H118V202H196V197Z" fill="#F1F2F4"/>
<path d="M73.7541 147.774C74.5841 157.395 76.2682 167.443 77.0981 177.065C77.2512 178.821 77.3963 180.634 76.8322 182.302C75.7847 185.397 68.9918 187.548 65.8573 186.637" fill="white"/>
<path d="M73.7541 147.774C74.5841 157.395 76.2682 167.443 77.0981 177.065C77.2512 178.821 77.3963 180.634 76.8322 182.302C75.7847 185.397 68.9918 187.548 65.8573 186.637" stroke="#333333" stroke-miterlimit="10" stroke-linecap="round" stroke-linejoin="round"/>
<path d="M38.6699 140.981C38.6699 140.981 33.6982 153.705 33.4887 155.421C31.4258 172.101 45.8576 240.191 45.8576 240.191L58.42 239.014L52.8519 162.585L55.229 146.453L38.6699 140.981Z" fill="#444444" stroke="#333333" stroke-linecap="round" stroke-linejoin="round"/>
<path d="M73.3594 146.251C73.3594 146.251 69.8219 175.832 68.1539 187.234C66.4134 199.16 62.9968 201.416 62.9968 201.416L32.836 236.468L22.1592 227.499L49.0244 188.161C49.0244 188.161 55.4627 145.292 55.237 146.453C55.0114 147.613 73.3594 146.251 73.3594 146.251Z" fill="#666666" stroke="#333333" stroke-linecap="round" stroke-linejoin="round"/>
<path d="M78.99 87.2913L70.1442 84.1165L55.5351 84.5436C49.9995 86.321 43.2274 87.717 40.0881 93.2945C38.5006 96.1148 30.0237 116.783 30.3782 120.144C30.7328 123.496 38.6779 125.623 38.6779 125.623L42.9809 120.039C42.3121 124.543 41.6674 128.113 41.1517 129.507C39.2097 134.809 38.6699 140.989 38.6699 140.989C38.6699 140.989 39.7738 151.312 51.7882 152.722C63.8026 154.132 73.3513 147.017 73.3513 147.017C73.3513 147.017 80.539 128.806 82.6582 113.262C84.7774 97.7103 78.99 87.2913 78.99 87.2913ZM42.03 111.481L44.5522 108.331C44.3668 109.829 44.1734 111.328 43.9801 112.803L42.03 111.481Z" fill="url(#paint0_linear_36_2893)" stroke="#333333" stroke-miterlimit="10" stroke-linecap="round" stroke-linejoin="round"/>
<path d="M75.1398 102.877L70.6935 111.21L63.3159 112.989L66.84 128.831C66.84 128.831 74.5948 127.403 80.1615 120.408C86.7148 112.173 87.074 103.367 87.074 103.367C87.074 103.367 88.4519 90.2201 78.6373 87.1703" fill="url(#paint1_linear_36_2893)"/>
<path d="M75.1398 102.877L70.6935 111.21L63.3159 112.989L66.84 128.831C66.84 128.831 74.5948 127.403 80.1615 120.408C86.7148 112.173 87.074 103.367 87.074 103.367C87.074 103.367 88.4519 90.2201 78.6373 87.1703" stroke="#333333" stroke-miterlimit="10" stroke-linecap="round" stroke-linejoin="round"/>
<path d="M38.6698 125.615C38.6698 125.615 57.9122 129.459 64.8984 121.183L62.8759 114.148C62.8759 114.148 50.1604 117.154 46.1959 115.865L38.6698 125.615Z" fill="white" stroke="#333333" stroke-miterlimit="10" stroke-linecap="round" stroke-linejoin="round"/>
<path d="M65.4952 111.988C65.4952 111.988 68.4203 105.444 68.8071 105.356C69.1938 105.267 74.8425 103.285 74.8425 103.285C74.8425 103.285 75.1406 104.059 74.8425 104.711L76.8731 104.977C76.8731 104.977 76.5749 106.226 75.8819 106.403L76.6152 107.048C76.6152 107.048 76.0109 107.878 75.2373 108.216C74.4637 108.555 73.8997 108.216 73.8997 108.216C73.8997 108.216 73.7641 109.159 72.6037 109.893C71.4434 110.626 69.8546 111.23 69.8546 111.23L65.4952 111.988Z" fill="white" stroke="#333333" stroke-miterlimit="10" stroke-linecap="round" stroke-linejoin="round"/>
<path d="M43.5631 114.147L34.643 113.027L32.2981 96.3788L42.8782 96.7253L44.9974 112.382C45.2311 113.309 44.5139 114.195 43.5631 114.147Z" fill="#F2F2F2" stroke="#333333" stroke-miterlimit="10" stroke-linecap="round" stroke-linejoin="round"/>
<path d="M35.9705 108.113C36.3412 108.242 38.581 108.814 38.9436 108.411C37.198 107.025 35.6035 105.59 35.189 104.623C34.9777 103.672 34.931 102.908 35.5676 102.561C36.2042 102.215 39.5563 105.792 40.4185 106.3C41.2726 106.808 42.9729 106.437 43.972 105.921L43.6417 102.9C44.2894 102.701 44.6894 102.775 45.5353 103.568C46.3527 105.516 46.6788 106.753 46.9469 109.3L63.4147 114.537L66.5107 128.337C66.5107 128.337 56.4653 126.789 42.5665 115.426C38.0348 115.138 33.877 114.495 30.7973 110.804C30.483 110.522 30.1849 110.216 29.9996 109.838C29.8223 109.459 29.7739 108.991 29.9834 108.629C30.2494 108.161 30.8618 107.944 31.0874 107.452C31.2566 107.09 31.176 106.671 31.1438 106.276C31.0874 105.51 31.8529 104.318 32.28 103.681C32.3364 103.601 32.4008 103.512 32.4975 103.488C32.6909 103.44 32.844 103.665 32.9004 103.859C33.0616 104.382 33.0535 104.938 33.0938 105.486C33.1341 106.034 33.2227 106.598 33.5209 107.058C34.0124 107.799 35.1889 107.831 35.9705 108.113Z" fill="white" stroke="#333333" stroke-miterlimit="10" stroke-linecap="round" stroke-linejoin="round"/>
<path d="M62.7309 91.3122C66.4214 91.3122 69.419 88.3146 69.419 84.6241V64.2939C69.4351 58.7983 64.9146 54.3665 59.4191 54.5035L59.266 54.5196C53.9558 54.9628 49.8785 59.4027 49.8946 64.729C49.9107 69.3945 49.9913 73.4477 50.225 75.9215C50.7245 81.1753 56.0025 81.2639 56.0025 81.2639C56.0025 81.2639 56.0428 83.4476 56.0428 84.6563C56.0509 88.3227 59.0403 91.3122 62.7309 91.3122Z" fill="white" stroke="#333333" stroke-miterlimit="10" stroke-linecap="round" stroke-linejoin="round"/>
<path d="M63.2305 58.9996C63.2385 59.0077 63.2546 59.0157 63.2627 59.0238C64.1571 59.612 64.7857 60.5226 65.0193 61.5701C65.0274 61.6104 65.0354 61.6426 65.0435 61.6749C65.3739 63.1575 65.4625 64.6885 65.809 66.1631C66.1555 67.6458 66.091 68.7739 67.5737 69.1043C68.5084 69.3138 69.3062 68.7981 69.6365 68.2662C69.7655 68.0648 69.7655 67.8069 69.7655 67.5652C69.7493 63.923 70.4826 62.5048 70.1603 58.7176C70.0717 57.6862 69.5076 56.7595 68.6212 56.2277C67.7832 55.7281 66.7679 55.2124 65.9218 55.7039C65.0757 56.1954 64.0685 57.936 63.448 58.6934" fill="#333333"/>
<path d="M66.083 56.252C66.8485 54.7371 64.2538 52.8757 62.4327 52.4648C60.6116 52.0538 58.3473 53.1094 56.631 53.8427C55.5512 54.302 54.4795 54.9144 53.3031 54.9627C52.5134 54.995 51.7398 54.7693 50.9743 54.5679C50.2088 54.3664 49.4191 54.1892 48.6375 54.302C47.8559 54.4228 47.0823 54.9063 46.8487 55.6557C46.615 56.4051 47.1226 57.3721 47.9123 57.4123C46.8728 56.945 45.4949 57.783 45.4224 58.9192C45.3499 60.0554 46.623 61.0545 47.7109 60.7161C47.171 60.3696 46.4377 61.0787 46.5505 61.7072C46.6633 62.3438 47.2838 62.7548 47.8881 62.9643C49.4433 63.4961 51.1677 63.1415 52.6826 62.4969C54.1894 61.8442 55.5593 60.9176 57.05 60.2246C58.5407 59.5396 61.0306 58.3148 62.6261 58.7338C63.7945 59.04 64.697 60.3454 65.3175 59.9909C65.9138 59.6444 66.2522 58.9675 66.3247 58.2826C66.3892 57.6138 66.2361 56.9289 66.083 56.252Z" fill="#333333"/>
<path d="M72.0782 145.486C71.0468 146.243 70.0234 147.017 69.0564 147.629C67.606 148.556 65.4384 148.991 63.8107 149.595C60.4344 150.86 56.8003 152.166 53.1339 151.763C49.7496 151.392 47.0421 148.612 44.8826 146.219C43.6175 144.817 42.441 143.35 41.2243 141.908C40.7086 141.304 39.9834 140.683 39.6288 139.974C39.2501 139.209 39.2582 138.338 38.7263 137.589C38.2509 136.912 37.4612 136.396 36.6313 136.477C35.5757 136.582 34.8424 137.581 34.4314 138.564C33.6901 140.377 33.5773 142.44 34.1333 144.317C34.9391 147.057 37.4129 149.337 39.7416 150.909C42.5136 152.778 46.0027 153.495 49.2661 153.922C49.242 154.092 49.2258 154.253 49.2339 154.422C49.2661 155.059 49.5643 155.655 50.0155 156.106C49.9591 156.187 49.9269 156.243 49.9269 156.259C48.4442 158.072 47.437 160.272 47.0744 162.585C46.8246 164.196 46.8729 165.848 46.5506 167.444C46.2283 169.039 45.4547 170.659 44.0204 171.448C43.6014 171.674 43.1099 171.859 42.8842 172.27C42.6747 172.657 42.7472 173.141 42.9406 173.535C43.6739 175.026 45.8093 175.373 47.2839 174.615C48.7665 173.858 49.6851 172.335 50.3459 170.804C51.8286 167.371 52.3684 163.616 52.8841 159.909C52.8922 159.869 52.8922 159.829 52.9003 159.781C53.1903 160.055 53.5449 160.264 53.9317 160.377C54.6488 160.586 55.5594 160.538 55.9865 161.158C56.2362 161.529 56.2121 162.013 56.2362 162.464C56.2604 162.915 56.3974 163.423 56.8084 163.608C57.2274 163.793 57.7028 163.552 58.0896 163.31C59.0888 162.698 60.096 162.093 61.0952 161.481C61.2563 161.384 61.4336 161.255 61.4417 161.07C61.4497 160.868 61.2322 160.715 61.0307 160.683C60.8293 160.651 60.6198 160.691 60.4183 160.659C60.0235 160.594 59.7253 160.256 59.5642 159.893C59.403 159.531 59.3386 159.128 59.2096 158.749C58.7262 157.323 57.3482 156.356 55.8978 155.961C55.3015 155.8 54.6811 155.719 54.0687 155.687C54.2298 155.453 54.3507 155.204 54.4232 154.93C54.4313 154.914 54.4232 154.897 54.4313 154.881C54.4635 154.833 54.5118 154.656 54.528 154.358C57.2677 154.47 62.6343 154.478 68.1942 153.31C71.0951 152.698 73.8912 154.358 76.1071 151.723C77.0983 150.538 77.622 149.047 78.0974 147.581C78.3231 146.88 78.5487 146.155 78.5406 145.413C78.5326 144.672 78.2344 143.898 77.622 143.479C77.058 143.101 76.3005 143.084 75.6478 143.278C74.9951 143.471 74.4069 143.85 73.8348 144.229C73.2546 144.632 72.6664 145.059 72.0782 145.486Z" fill="white" stroke="#333333" stroke-miterlimit="10" stroke-linecap="round" stroke-linejoin="round"/>
<path fill-rule="evenodd" clip-rule="evenodd" d="M32.7311 231.835C29.508 227.161 23.3678 227.757 20.9424 229.425C18.5169 231.093 20.8376 249.659 27.1631 249.659C30.4185 249.659 35.9543 236.508 32.7311 231.835Z" fill="white" stroke="#333333" stroke-miterlimit="10" stroke-linecap="round" stroke-linejoin="round"/>
<path fill-rule="evenodd" clip-rule="evenodd" d="M44.544 246.677C43.9074 249.562 46.0267 250.175 50.5794 250.65C55.8654 251.206 60.4665 250.376 61.1031 247.491C61.7397 244.607 59.0805 240.223 53.9073 239.079C48.7341 237.935 45.1806 243.785 44.544 246.677Z" fill="white" stroke="#333333" stroke-miterlimit="10" stroke-linecap="round" stroke-linejoin="round"/>
<path d="M58.9356 64.8901C58.5891 64.9787 58.2588 65.1721 58.0331 65.4541C57.9445 65.5589 57.8639 65.6878 57.8156 65.8168C57.7672 65.9457 57.7269 66.0827 57.7269 66.2197C57.7269 66.4936 57.7994 66.7676 57.9848 66.9771C58.0895 67.098 58.2023 67.1866 58.3474 67.2591C58.5488 67.3639 58.7583 67.3881 58.9759 67.3881C59.1854 67.3881 59.3869 67.3236 59.5803 67.243C59.7656 67.1705 59.9187 67.0496 60.0557 66.9126C60.2652 66.7031 60.378 66.3889 60.3135 66.0988C60.2974 66.0182 60.2571 65.9457 60.2168 65.8812C60.1927 65.8409 60.1685 65.8087 60.1443 65.7765C60.0234 65.6395 59.8945 65.5589 59.7253 65.4864C59.3143 65.3172 58.8309 65.4219 58.4763 65.6637C58.1943 65.857 58.0412 66.2116 58.1298 66.55C58.2185 66.8885 58.5327 67.1141 58.8712 67.1383C59.0565 67.1544 59.2499 67.1221 59.4272 67.0416C59.5561 66.9771 59.7253 66.8482 59.7898 66.7031C59.8381 66.5742 59.8542 66.4211 59.7575 66.3083C59.6608 66.1874 59.5077 66.1149 59.3546 66.1068C59.3385 66.1068 59.3224 66.1068 59.3143 66.0988C59.3707 66.1149 59.4191 66.123 59.4755 66.1391C59.4513 66.131 59.4272 66.123 59.411 66.1149C59.4594 66.1391 59.4997 66.1632 59.548 66.1874C59.5238 66.1713 59.4997 66.1552 59.4836 66.1391C59.5158 66.1713 59.548 66.2035 59.5883 66.2358C59.5561 66.2035 59.5319 66.1713 59.5158 66.131C59.5319 66.1713 59.5561 66.2116 59.5722 66.2519C59.548 66.2035 59.5319 66.1471 59.5319 66.0907C59.5319 66.1391 59.54 66.1794 59.54 66.2277C59.54 66.1874 59.54 66.1391 59.5561 66.0988C59.54 66.1471 59.5319 66.1874 59.5158 66.2358C59.5238 66.2035 59.54 66.1713 59.5561 66.1471C59.5319 66.1874 59.4997 66.2358 59.4755 66.2761C59.4836 66.2599 59.4997 66.2438 59.5158 66.2358C59.4755 66.2761 59.4352 66.3083 59.3949 66.3486C59.411 66.3325 59.4352 66.3164 59.4594 66.3002C59.411 66.3325 59.3546 66.3647 59.3063 66.3969C59.3305 66.3889 59.3466 66.3728 59.3707 66.3647C59.3063 66.3889 59.2499 66.413 59.1854 66.4292C59.2015 66.4211 59.2176 66.4211 59.2338 66.413C59.1693 66.4211 59.1048 66.4372 59.0404 66.4453C59.0645 66.4372 59.0968 66.4372 59.121 66.4372C59.0645 66.4372 59.0001 66.4372 58.9437 66.4292C58.9759 66.4292 59.0001 66.4372 59.0243 66.4372C58.9678 66.4211 58.9195 66.413 58.8631 66.3969C58.8953 66.405 58.9276 66.4211 58.9598 66.4292C58.9114 66.405 58.8712 66.3808 58.8228 66.3566C58.8712 66.3808 58.9114 66.413 58.9517 66.4453C58.9195 66.413 58.8873 66.3808 58.847 66.3486C58.8873 66.3889 58.9276 66.4372 58.9517 66.4856C58.9356 66.4453 58.9114 66.405 58.8953 66.3647C58.9195 66.413 58.9356 66.4614 58.9356 66.5178C58.9356 66.4695 58.9276 66.4292 58.9276 66.3808C58.9276 66.4292 58.9276 66.4775 58.9114 66.5259C58.9276 66.4775 58.9356 66.4372 58.9517 66.3889C58.9356 66.4292 58.9195 66.4695 58.8953 66.5017C58.9195 66.4614 58.9517 66.413 58.9759 66.3728C58.9517 66.405 58.9276 66.4372 58.8953 66.4695C58.9356 66.4292 58.9759 66.3969 59.0162 66.3566C58.984 66.3889 58.9517 66.413 58.9114 66.4372C58.9598 66.405 59.0162 66.3728 59.0645 66.3405C59.0323 66.3566 59.0001 66.3728 58.9598 66.3889C59.0243 66.3647 59.0807 66.3405 59.1451 66.3244C59.1129 66.3405 59.0726 66.3486 59.0323 66.3566C59.0968 66.3486 59.1612 66.3325 59.2257 66.3244C59.1854 66.3325 59.1532 66.3325 59.1129 66.3325C59.1693 66.3325 59.2338 66.3325 59.2902 66.3405C59.2499 66.3405 59.2176 66.3325 59.1774 66.3244C59.2338 66.3405 59.2821 66.3486 59.3385 66.3647C59.2982 66.3566 59.266 66.3405 59.2257 66.3244C59.2741 66.3486 59.3143 66.3728 59.3627 66.3969C59.3063 66.3728 59.266 66.3325 59.2176 66.3002C59.2499 66.3325 59.2821 66.3647 59.3224 66.3969C59.2579 66.3405 59.2096 66.268 59.1693 66.1874C59.1854 66.2277 59.2096 66.268 59.2257 66.3083C59.1854 66.2197 59.1532 66.123 59.1451 66.0182C59.1451 66.0666 59.1532 66.1068 59.1532 66.1552C59.1451 66.0666 59.1532 65.9779 59.1774 65.8893C59.1612 65.9376 59.1532 65.9779 59.1371 66.0263C59.1612 65.9457 59.1935 65.8732 59.2418 65.8006C59.2176 65.8409 59.1854 65.8893 59.1612 65.9296C59.2015 65.8732 59.2418 65.8168 59.2982 65.7684C59.2579 65.8087 59.2176 65.8409 59.1774 65.8812C59.2176 65.8409 59.266 65.8087 59.3143 65.7765C59.266 65.8087 59.2096 65.8409 59.1612 65.8732C59.2096 65.8409 59.2579 65.8168 59.3143 65.8006C59.2499 65.8248 59.1935 65.849 59.129 65.8651C59.1532 65.857 59.1854 65.849 59.2096 65.8409C59.3707 65.8006 59.5561 65.6959 59.6689 65.567C59.7495 65.4703 59.8301 65.301 59.7817 65.1721C59.6528 64.8498 59.2338 64.8176 58.9356 64.8901Z" fill="#333333"/>
<path d="M52.9807 66.8161C53.0291 66.5825 53.0935 66.3488 53.2063 66.1312C53.1902 66.1634 53.1741 66.1957 53.158 66.2279C53.2063 66.1312 53.2708 66.0506 53.3433 65.9701C53.3111 66.0023 53.2788 66.0345 53.2547 66.0667C53.2708 66.0506 53.295 66.0265 53.3111 66.0103C53.3353 65.9942 53.3917 65.9539 53.295 66.0184C53.1983 66.0829 53.2466 66.0506 53.2708 66.0345C53.2788 66.0265 53.295 66.0184 53.303 66.0184C53.3594 65.9862 53.1338 66.0909 53.1983 66.0667C53.2063 66.0587 53.2224 66.0587 53.2305 66.0506C53.2386 66.0506 53.2386 66.0426 53.2466 66.0426C53.303 66.0184 53.2547 66.0345 53.1096 66.0909C53.1257 66.0909 53.1338 66.0829 53.1499 66.0829C53.166 66.0748 52.9324 66.1232 53.021 66.107C53.0371 66.107 53.0452 66.107 53.0613 66.099C53.0693 66.099 52.8598 66.107 52.9404 66.107C52.9565 66.107 52.9646 66.107 52.9807 66.107C53.0613 66.107 52.8437 66.0909 52.8921 66.099C52.9162 66.107 52.9485 66.107 52.9726 66.1151C52.9324 66.107 52.8921 66.0909 52.8437 66.0829C52.8921 66.099 52.9324 66.1151 52.9807 66.1393C52.9485 66.1232 52.9162 66.099 52.8921 66.0829C52.9565 66.1232 53.0129 66.1796 53.0532 66.2521C53.0371 66.2279 53.021 66.2037 53.0049 66.1715C53.0774 66.2924 53.0935 66.4374 53.0935 66.5744C53.0935 66.5422 53.0935 66.518 53.0935 66.4858C53.0855 66.7033 53.0532 66.9289 52.9485 67.1223C52.9646 67.0901 52.9807 67.0579 52.9968 67.0256C52.9646 67.082 52.9324 67.1304 52.884 67.1787C52.9162 67.1465 52.9485 67.1143 52.9726 67.082C52.9485 67.1062 52.9243 67.1223 52.9001 67.1385C52.9968 67.074 53.021 67.0579 52.9726 67.0901C53.1016 67.0337 53.1338 67.0176 53.0693 67.0418C53.158 67.0015 53.2547 66.9773 53.3594 66.9692C53.295 66.9773 53.3272 66.9773 53.4722 66.9612C53.6737 66.9612 53.585 66.9773 53.5286 66.9612C53.5689 66.9692 53.6092 66.9854 53.6576 66.9934C53.6173 66.9854 53.5851 66.9692 53.5448 66.9451C53.577 66.9612 53.6092 66.9854 53.6334 67.0015C53.5689 66.9612 53.5206 66.9048 53.4803 66.8403C53.4964 66.8645 53.5125 66.8887 53.5286 66.9209C53.4884 66.8484 53.4642 66.7678 53.4642 66.6872C53.4642 66.7194 53.4642 66.7436 53.4642 66.7758C53.4722 66.6953 53.4884 66.6227 53.5286 66.5583C53.5125 66.5905 53.4964 66.6227 53.4803 66.655C53.5045 66.6147 53.5367 66.5744 53.5689 66.5341C53.5367 66.5663 53.5045 66.5986 53.4803 66.6308C53.4964 66.6147 53.5125 66.5986 53.5286 66.5905C53.5931 66.5341 53.3997 66.663 53.4642 66.6308C53.5528 66.5825 53.3755 66.6711 53.3675 66.6711C53.4642 66.6308 53.166 66.7275 53.2708 66.7033C53.2224 66.7114 53.1741 66.7194 53.1257 66.7356C53.166 66.7275 53.158 66.7275 53.0855 66.7356C52.9485 66.7436 53.0371 66.7436 53.0613 66.7356C52.9162 66.7517 52.9324 66.7194 52.9968 66.7356C53.021 66.7356 53.0452 66.7436 53.0613 66.7517C53.021 66.7436 52.9807 66.7275 52.9324 66.7194C52.9968 66.7356 53.0613 66.7678 53.1177 66.8C53.0855 66.7839 53.0532 66.7597 53.0291 66.7436C53.0452 66.7597 53.0693 66.7678 53.0855 66.7839C53.1902 66.8645 53.3272 66.8887 53.4561 66.8887C53.6334 66.8887 53.8429 66.8484 54.0041 66.7758C54.133 66.7194 54.3022 66.6469 54.3828 66.518C54.4311 66.4455 54.4795 66.3246 54.3908 66.2601C54.0524 66.0023 53.6173 65.9781 53.2144 66.0587C52.7712 66.1473 52.32 66.3649 52.1266 66.792C52.0138 67.0256 52.0782 67.3077 52.2635 67.4849C52.3844 67.5978 52.5456 67.6622 52.6987 67.6945C52.9968 67.7509 53.3433 67.6864 53.6253 67.5655C53.9879 67.4124 54.3022 67.1626 54.4231 66.7758C54.4634 66.655 54.4795 66.5261 54.4875 66.4052C54.4956 66.2682 54.5037 66.1312 54.4795 65.9942C54.4231 65.7444 54.2377 65.543 53.996 65.4624C53.577 65.3335 53.1257 65.406 52.7228 65.5591C52.3844 65.688 52.0702 65.9136 51.8929 66.236C51.7478 66.4858 51.6673 66.7517 51.6109 67.0337C51.5464 67.3238 52.0299 67.3157 52.2071 67.2916C52.3925 67.2593 52.5778 67.211 52.739 67.1143C52.8115 67.0256 52.9565 66.9451 52.9807 66.8161Z" fill="#333333"/>
<path d="M55.1 69.4107C55.2209 70.0795 54.9389 70.8048 54.399 71.2157C54.2539 71.3285 54.0686 71.4494 54.0686 71.6347C54.0686 71.8523 54.3184 71.9732 54.5198 72.0376C54.8422 72.1424 55.1725 72.2471 55.5029 72.2068C55.8333 72.1666 56.1717 71.9248 56.204 71.5944" stroke="#333333" stroke-miterlimit="10" stroke-linecap="round" stroke-linejoin="round"/>
<path d="M54.9308 75.8569C56.0992 76.0987 57.3159 76.0906 58.4763 75.8408C58.7341 75.7844 59.0162 75.6877 59.1129 75.446C59.2096 75.2042 59.0162 74.898 58.7583 74.8819" stroke="#333333" stroke-miterlimit="10" stroke-linecap="round" stroke-linejoin="round"/>
<path d="M274.649 93.0954C273.198 96.0571 270.844 108.245 270.844 108.245C269.582 114.733 268.159 122.155 270.213 124.466C271.759 126.206 274.649 126.628 277.254 125.963C285.3 127.243 280.035 111.399 280.035 108.245C280.035 103.666 281.232 93.7694 280.035 90.5833C278.971 87.7505 275.562 91.23 274.649 93.0954Z" fill="white"/>
<path d="M277.254 125.963C277.711 122.998 277.254 129.071 277.254 125.963ZM277.254 125.963C274.649 126.628 271.759 126.206 270.213 124.466C268.159 122.155 269.582 114.733 270.844 108.245C270.844 108.245 273.198 96.0571 274.649 93.0954C275.562 91.23 278.971 87.7505 280.035 90.5833C281.232 93.7694 280.035 103.666 280.035 108.245C280.035 111.399 285.3 127.243 277.254 125.963Z" stroke="#333333" stroke-miterlimit="10" stroke-linecap="round" stroke-linejoin="round"/>
<path d="M289.46 96.8438L288.271 108.729V126.374L291.654 129.391L295.585 127.288L295.128 109.095V96.8438L292.705 92.3639L295.128 88.7526H290.191L292.157 92.3639L289.46 96.8438Z" fill="url(#paint2_linear_36_2893)" stroke="#333333" stroke-miterlimit="10" stroke-linecap="round" stroke-linejoin="round"/>
<path fill-rule="evenodd" clip-rule="evenodd" d="M326.083 247.775C326.083 249.769 322.335 250.132 319.011 250.132C315.687 250.132 312.302 249.769 312.302 247.775C312.302 245.78 314.599 242.395 317.923 242.395C321.187 242.395 326.083 245.78 326.083 247.775Z" fill="white" stroke="#333333" stroke-miterlimit="10" stroke-linecap="round" stroke-linejoin="round"/>
<path d="M276.037 243.12C280.691 244.208 282.807 247.23 281.96 249.225C281.296 250.797 276.46 252.005 271.021 251.28C262.982 250.253 271.383 242.033 276.037 243.12Z" fill="white" stroke="#333333" stroke-miterlimit="10" stroke-linecap="round" stroke-linejoin="round"/>
<path d="M276.465 133.665C276.465 133.665 274.712 147.446 274.228 153.128C272.476 174.947 268.249 245.491 268.249 245.491C273.887 246.924 277.086 247.228 282.968 245.491L292.482 155.122L311.106 246.212C316.769 246.434 319.49 245.981 323.723 244.383C323.723 244.383 315.993 173.919 312.669 152.402C311.883 147.144 308.257 134.935 308.257 134.935L276.465 133.665Z" fill="#333333"/>
<path d="M290.988 105.703L291.293 106.699L291.88 105.838L305.257 86.2007L314.128 90.8051L309.814 112.012L309.802 112.072L309.805 112.132L311.02 141.088C306.648 141.857 300.625 142.348 296.207 142.537L291.987 140.199L291.531 139.947L291.298 140.413L290.207 142.595C284.898 142.452 280.781 141.738 274.603 140.765L276.402 124.554L278.254 109.338L278.26 109.285L278.255 109.231L276.436 89.8364L284.938 85.9516L290.988 105.703Z" fill="#666666" stroke="#333333"/>
<path d="M289.641 87.9752H299.795L300.4 75.8832H289.641V87.9752Z" fill="white" stroke="#333333" stroke-miterlimit="10" stroke-linecap="round" stroke-linejoin="round"/>
<path d="M282.449 111.181L282.811 110.879C284.685 109.488 286.921 109.434 289.218 109.917C291.092 110.28 293.848 111.444 297.962 114.505L309.025 115.22V108.911L312.956 91.1749C312.956 91.1749 315.882 92.1806 317.802 96.2033C319.722 100.226 322.033 115.898 321.001 120.34C319.97 124.781 316.522 125.368 314.327 125.368C312.473 125.368 304.744 123.801 298.586 122.102C297.456 121.79 296.38 121.474 295.403 121.162L291.654 118.011C291.654 118.011 290.367 119.401 290.004 119.099C289.641 118.796 289.218 118.011 289.218 118.011L290.608 116.077L287.284 116.741L282.449 114.505L284.504 111.846L282.449 112.511V111.181Z" fill="white"/>
<path d="M297.962 114.505C293.848 111.444 291.092 110.28 289.218 109.917C286.921 109.434 284.685 109.488 282.811 110.879L282.449 111.181V112.511L284.504 111.846L282.449 114.505L287.284 116.741L290.608 116.077L289.218 118.011C289.218 118.011 289.641 118.796 290.004 119.099C290.367 119.401 291.654 118.011 291.654 118.011L295.403 121.162C296.38 121.474 297.456 121.79 298.586 122.102M297.962 114.505L309.025 115.22V108.911L312.956 91.1749C312.956 91.1749 315.882 92.1806 317.802 96.2033C319.722 100.226 322.033 115.898 321.001 120.34C319.97 124.781 316.522 125.368 314.327 125.368C312.473 125.368 304.744 123.801 298.586 122.102M297.962 114.505L298.586 122.102" stroke="#333333" stroke-miterlimit="10" stroke-linecap="round" stroke-linejoin="round"/>
<path d="M287.586 110.637L298.284 123.632L297.499 124.478L282.333 122.258L272.355 108.219L287.586 110.637Z" fill="white" stroke="#333333" stroke-miterlimit="10" stroke-linecap="round" stroke-linejoin="round"/>
<path d="M276.284 113.762C276.949 113.762 277.553 114.185 277.855 114.79C278.097 115.455 278.46 116.24 278.883 116.482C279.668 116.905 280.998 117.268 281.663 116.905C282.388 116.543 285.169 114.064 285.652 114.306C286.136 114.608 286.559 115.213 286.075 115.757C285.592 116.301 282.993 117.993 283.476 118.537C283.96 119.081 289.46 116.603 290.246 116.845C291.092 117.087 291.575 117.57 291.092 117.933C290.608 118.295 286.861 119.686 286.68 120.169C286.68 120.169 292.301 118.718 292.482 119.021C292.663 119.383 293.026 119.927 292.482 120.169C291.938 120.411 287.103 121.62 286.68 121.861C286.257 122.043 284.806 122.466 284.504 122.466C284.322 122.466 283.234 122.828 282.267 123.191C281.119 123.614 279.91 123.554 278.762 123.07L278.218 122.828C277.311 122.466 276.767 121.559 276.828 120.653L276.949 118.718L276.344 117.147L276.284 113.762Z" fill="white" stroke="#333333" stroke-miterlimit="10" stroke-linecap="round" stroke-linejoin="round"/>
<path d="M280.125 124.285L276.611 119.104L272.431 122.35L275.62 125.547C277.556 125.007 278.513 125.695 280.125 124.285Z" fill="white"/>
<path d="M276.284 126.106C277.602 125.772 278.323 125.502 280.306 124.646C278.092 122.261 277.201 120.815 276.284 117.707" stroke="#333333" stroke-miterlimit="10" stroke-linecap="round" stroke-linejoin="round"/>
<path d="M301.071 83.3127L304.636 85.7811L296.042 92.3638L294.214 88.4325L301.071 83.3127Z" fill="url(#paint3_linear_36_2893)" stroke="#333333" stroke-miterlimit="10" stroke-linecap="round" stroke-linejoin="round"/>
<path d="M289.567 83.3359L292.468 88.1712L290.191 91.1753L286.717 85.4155L289.567 83.3359Z" fill="url(#paint4_linear_36_2893)" stroke="#333333" stroke-miterlimit="10" stroke-linecap="round" stroke-linejoin="round"/>
<path d="M282.694 65.4938C282.694 72.3079 287.257 80.3825 290.887 80.3825C295.896 81.0814 302.143 75.5536 303.133 68.7975C304.123 62.0414 299.684 54.4457 294.676 53.6885C289.667 52.9896 283.684 58.6794 282.694 65.4938Z" fill="white" stroke="#333333" stroke-miterlimit="10" stroke-linecap="round" stroke-linejoin="round"/>
<path d="M301.611 71.5259C302.922 71.7946 304.283 70.9615 304.544 69.5908C304.805 68.2201 303.98 66.9192 302.609 66.6577" fill="white"/>
<path d="M301.611 71.5259C302.922 71.7946 304.283 70.9615 304.544 69.5908C304.805 68.2201 303.98 66.9192 302.609 66.6577" stroke="#333333" stroke-miterlimit="10" stroke-linecap="round" stroke-linejoin="round"/>
<path fill-rule="evenodd" clip-rule="evenodd" d="M297.296 60.7915C294.695 64.5422 292.404 64.6482 290.162 64.368C288.729 60.119 286.135 66.3083 281.722 65.5956C277.067 62.7444 278.673 57.738 279.403 55.8147C281.977 55.8147 282.928 55.4554 283.64 53.5575C284.115 52.2903 284.076 51.934 285.778 50.9044C289.144 50.0728 288.867 52.1822 291.877 50.35C293.698 49.2412 295.502 49.6511 297.539 51.3796C300.153 53.5971 301.42 50.9836 303.479 53.0823C304.92 54.2051 304.509 57.9134 305.34 61.7149C305.821 63.9145 304.786 66.1103 302.925 66.3083C302.2 63.646 300.925 60.903 297.296 60.7915Z" fill="#333333"/>
<path d="M290.374 69.5987C289.963 70.6043 288.803 71.9545 289.226 72.4381C289.649 72.9216 290.495 72.8007 291.039 72.7403" stroke="#333333" stroke-miterlimit="10" stroke-linecap="round" stroke-linejoin="round"/>
<path d="M294.825 68.5175C295.128 67.913 295.067 67.1877 294.765 66.5229C294.705 66.3416 294.584 66.2207 294.463 66.0394C294.342 65.858 294.161 65.7371 293.858 65.6767C293.556 65.6163 293.194 65.6767 292.952 65.9185C292.71 66.1602 292.589 66.402 292.529 66.5833C292.468 66.7647 292.468 67.0064 292.468 67.1273C292.468 67.3086 292.468 67.5504 292.589 67.8526C292.71 68.0944 292.952 68.3966 293.375 68.3966C293.798 68.3966 294.04 68.1548 294.161 67.9735C294.463 67.49 294.342 67.0064 294.1 66.7042C293.858 66.402 293.435 66.2811 293.133 66.402C293.435 66.5229 293.617 66.7647 293.617 67.0064C293.677 67.1877 293.556 67.4295 293.435 67.4295C293.375 67.4295 293.375 67.3691 293.496 67.3691C293.617 67.3691 293.617 67.4295 293.617 67.3691C293.617 67.3691 293.617 67.3086 293.617 67.1877C293.617 67.0669 293.617 66.946 293.677 66.8855C293.677 66.8251 293.738 66.7647 293.677 66.7647H293.556C293.556 66.7647 293.617 66.7647 293.677 66.8251C293.738 66.8855 293.858 66.946 293.919 67.0669C294.342 67.4295 294.584 67.913 294.825 68.5175Z" fill="#333333"/>
<path d="M288.1 68.4497C288.1 67.7848 287.737 67.1804 287.193 66.7573C287.072 66.6365 286.951 66.5156 286.589 66.4551C286.407 66.4551 286.166 66.5156 286.045 66.576C285.864 66.6969 285.803 66.8178 285.743 66.9387C285.622 67.1804 285.561 67.3618 285.561 67.4826C285.501 67.664 285.501 67.8453 285.501 68.0871C285.501 68.3288 285.622 68.631 285.803 68.8124C285.984 69.0541 286.347 69.2354 286.71 69.175C287.072 69.1146 287.314 68.8728 287.435 68.6915C287.556 68.4497 287.616 68.2684 287.616 68.0266C287.616 67.8453 287.556 67.6035 287.435 67.4222C287.314 67.2409 287.133 67.0596 286.951 66.9991C286.77 66.9387 286.468 66.9387 286.347 67.0596C286.166 67.1804 286.105 67.3618 286.166 67.5431C286.226 67.4222 286.407 67.3618 286.468 67.3618C286.589 67.3618 286.649 67.4222 286.649 67.4826C286.77 67.6035 286.71 67.7849 286.649 67.9057C286.649 67.9662 286.589 68.0266 286.528 68.0266C286.468 68.0266 286.468 68.0266 286.589 67.9662C286.77 67.9662 286.71 68.0266 286.71 67.9057C286.71 67.8453 286.77 67.4222 286.77 67.3618C286.77 67.3618 286.77 67.3618 286.71 67.3618C286.649 67.3618 286.589 67.4222 286.589 67.3618C286.528 67.3013 286.649 67.3618 286.77 67.4222C287.133 67.7849 287.616 68.0266 288.1 68.4497Z" fill="#333333"/>
<path d="M289.43 76.2242C289.671 76.6473 290.034 76.889 290.397 77.0704C290.82 77.2517 291.182 77.3726 291.666 77.3121C291.908 77.3121 292.149 77.2517 292.452 77.1308C292.693 77.0099 292.935 76.7682 293.056 76.5264C293.298 76.0429 293.237 75.6198 293.117 75.1967C292.754 75.4989 292.512 75.8011 292.27 75.9824C292.029 76.1033 291.908 76.1033 291.605 76.1637H290.578C290.276 76.1637 289.913 76.1637 289.43 76.2242Z" fill="#333333"/>
<path d="M243.063 138.957C243.063 138.957 251.896 137.21 252.345 142.488C252.345 142.488 254.263 181.002 254.688 198.538C253.688 202.001 251.985 239.81 251.985 239.81L256.49 246.208L249.552 244.315L246.127 239.81V237.196L243.063 197.817L243.965 190.068L223.689 240.531L217.832 244.946L217.291 237.827L219.905 232.24C219.905 232.24 224.32 213.497 225.942 203.945C227.564 194.393 232.61 190.068 232.61 190.068C232.61 190.068 230.538 166.203 231.709 154.924C232.439 150.038 231.709 140.145 231.709 140.145L243.063 138.957Z" fill="white" stroke="#333333" stroke-miterlimit="10" stroke-linecap="round" stroke-linejoin="round"/>
<path d="M245.357 250.576C245.992 244.858 241.926 240.411 245.992 238.696L249.264 243.175C251.138 245.97 254.282 247.304 255.839 245.08C258.444 246.16 260.254 247.272 260.858 249.273V250.893H254.346L247.262 245.08L246.627 250.576H245.357Z" fill="#333333" stroke="#333333"/>
<path d="M215.607 240.686C216.376 238.828 218.234 235.816 218.234 235.816C218.234 235.816 217.086 241.638 218.747 242.544C220.408 243.45 224.257 238.764 224.257 238.764L222.719 245.043C222.719 245.043 217.017 249.528 215.607 248.823C214.197 248.118 214.838 242.544 215.607 240.686Z" fill="#333333" stroke="#333333"/>
<path d="M223.779 72.8306C222.338 74.6329 219.95 77.0209 218.553 80.9408C216.706 87.1586 219.099 90.4433 219.724 93.8269C220.716 99.1886 215.83 102.626 218.553 105.722C221.276 108.824 227.101 106.067 231.213 106.45C236.202 106.906 241.278 106.406 246.082 104.976C248.453 104.273 254.276 111.081 256.085 106.713C257.894 105.029 256.536 100.852 256.085 98.4227C256.085 94.4577 256.851 93.6467 257.752 88.285C258.067 83.8695 255.159 81.076 255.159 76.7956C255.452 73.8094 255.425 69.5332 252.165 66.2524C248.701 62.7743 243.478 61.7808 240.991 63.5941C237.99 60.8066 233.407 61.7008 229.727 63.5941C225.501 65.586 225.537 71.1185 223.779 72.8306Z" fill="#333333"/>
<path d="M250.919 137.802L250.92 137.803C250.92 137.803 250.92 137.804 250.921 137.805C250.922 137.808 250.923 137.811 250.925 137.815C250.928 137.824 250.933 137.837 250.939 137.854C250.952 137.889 250.972 137.939 250.997 138.006C251.048 138.139 251.122 138.336 251.216 138.59C251.404 139.097 251.673 139.834 251.995 140.754C252.639 142.593 253.498 145.164 254.357 148.092C256.071 153.932 257.802 161.245 257.802 166.999C257.802 172.706 256.976 181.818 256.153 189.482C255.741 193.319 255.329 196.801 255.02 199.323C254.866 200.584 254.737 201.605 254.647 202.311C254.602 202.664 254.567 202.939 254.543 203.125C254.531 203.218 254.522 203.289 254.516 203.337C254.512 203.361 254.51 203.379 254.509 203.391C254.508 203.397 254.507 203.402 254.507 203.405C254.507 203.406 254.506 203.407 254.506 203.408V203.409L254.011 203.345L254.506 203.41L254.458 203.772L254.098 203.837C240.369 206.278 234.03 203.437 220.998 201.375L220.429 201.285L220.599 200.734V200.732C220.599 200.731 220.6 200.728 220.6 200.725C220.602 200.72 220.605 200.712 220.608 200.701C220.615 200.679 220.625 200.646 220.639 200.602C220.665 200.516 220.703 200.387 220.753 200.221C220.852 199.888 220.995 199.405 221.169 198.805C221.516 197.603 221.985 195.928 222.474 194.042C223.453 190.259 224.502 185.653 224.813 182.272C225.12 178.944 224.31 175.358 223.394 171.505C222.485 167.68 221.477 163.61 221.477 159.43C221.477 155.218 223.131 149.939 224.755 145.757C225.571 143.656 226.386 141.815 226.998 140.499C227.304 139.841 227.559 139.312 227.738 138.949C227.828 138.768 227.898 138.627 227.946 138.531C227.97 138.484 227.988 138.447 228.001 138.423C228.007 138.41 228.012 138.401 228.016 138.394L228.02 138.385V138.384L228.156 138.122L228.451 138.113L250.438 137.482L250.791 137.472L250.919 137.802Z" fill="#9ADAF3" stroke="#333333"/>
<path d="M243.875 97.2513C244.843 103.822 243.925 107.169 238.648 112.3L232.791 97.8821C234.017 93.7913 234.278 91.8446 234.278 89.4116H243.875V97.2513Z" fill="white" stroke="#333333" stroke-miterlimit="10" stroke-linecap="round" stroke-linejoin="round"/>
<path d="M255.499 103.829C258.258 108.621 261.861 122.271 261.861 122.271C262.708 126.898 261.492 131.718 260.05 133.32C258.608 134.921 254.598 134.648 251.894 129.602C251.084 134.828 251.218 136.545 251.174 137.892C241.892 140.505 232.43 138.703 227.744 137.892L227.744 134.288C221.617 136.991 215.94 136.45 215.489 129.602C214.725 124.582 218.184 106.092 220.806 102.478C223.428 98.8636 227.114 98.8732 232.07 97.8369C232.881 98.9633 234.863 106.172 239.639 106.172C244.415 106.172 244.415 97.8369 244.415 97.8369C249.547 98.8357 252.075 97.882 255.499 103.829Z" fill="#D9F4FF"/>
<path d="M227.744 134.288L227.744 137.892C232.43 138.703 241.892 140.505 251.174 137.892C251.218 136.545 251.084 134.828 251.894 129.602C254.598 134.648 258.608 134.921 260.05 133.32C261.492 131.718 262.708 126.898 261.861 122.271C261.861 122.271 258.258 108.621 255.499 103.829C252.075 97.882 249.547 98.8357 244.415 97.8369C244.415 97.8369 244.415 106.172 239.639 106.172C234.863 106.172 232.881 98.9633 232.07 97.8369C227.114 98.8732 223.428 98.8636 220.806 102.478C218.184 106.092 214.725 124.582 215.489 129.602C215.94 136.45 221.617 136.991 227.744 134.288ZM227.744 134.288L237.477 130.593L235.584 122.271L228.555 124.736M228.555 124.736C228.555 120.906 227.869 118.44 227.744 116.896L225.492 125.907L228.555 124.736ZM251.894 120.906C252.345 119.779 253.066 117.977 251.894 115.724" stroke="#333333" stroke-miterlimit="10" stroke-linecap="round" stroke-linejoin="round"/>
<path d="M250.194 124.882L249.941 124.523C248.592 122.826 246.567 121.704 244.39 121.587C242.621 121.463 240.791 121.787 239.199 122.524L236.029 123.944L237.476 129.62L240.017 127.509C240.017 127.509 241.115 130.36 241.513 130.176C241.911 129.992 242.479 129.388 242.479 129.388L241.695 127.318L244.52 128.713L249.396 127.865L248.19 124.985L249.875 126.075L250.194 124.882Z" fill="white" stroke="#333333" stroke-miterlimit="10" stroke-linecap="round" stroke-linejoin="round"/>
<path d="M249.598 121.166L242.975 130.968L243.705 131.754L250.814 130.968L256.248 121.166L255.462 120.548L249.598 121.166Z" fill="url(#paint5_linear_36_2893)" stroke="#333333" stroke-miterlimit="10" stroke-linecap="round" stroke-linejoin="round"/>
<path d="M255.822 123.779C255.204 123.779 254.642 124.172 254.362 124.734C254.137 125.351 253.8 126.081 253.407 126.306C252.677 126.699 251.442 127.036 250.824 126.699C250.15 126.362 247.567 124.06 247.118 124.284C246.668 124.565 246.275 125.127 246.725 125.632C247.174 126.137 249.588 127.71 249.139 128.215C248.69 128.721 243.58 126.418 242.85 126.643C242.064 126.867 241.615 127.317 242.064 127.654C242.513 127.991 245.995 129.282 246.163 129.731C246.163 129.731 240.941 128.384 240.772 128.664C240.604 129.001 240.267 129.507 240.772 129.731C241.278 129.956 245.77 131.079 246.163 131.304C246.556 131.472 247.904 131.865 248.185 131.865C248.353 131.865 249.364 132.202 250.262 132.539C251.329 132.932 252.452 132.876 253.519 132.427L254.025 132.202C254.867 131.865 255.372 131.023 255.316 130.181L255.204 128.384L255.765 126.924L255.822 123.779Z" fill="white" stroke="#333333" stroke-miterlimit="10" stroke-linecap="round" stroke-linejoin="round"/>
<path d="M249.313 79.4091C249.67 87.7399 245.348 93.5117 242.104 93.2414C236.99 92.8152 234.413 89.8171 234.413 89.8171C234.413 89.8171 236.62 84.3202 234.413 77.2914C238.963 76.7507 240.495 74.6331 241.622 71.5692C243.514 75.0386 249.056 73.4166 249.313 79.4091Z" fill="white" stroke="#333333" stroke-miterlimit="10" stroke-linecap="round" stroke-linejoin="round"/>
<path d="M243.109 83.3288C243.311 84.9058 244.151 85.555 243.758 86.0042C243.365 86.4534 242.957 86.2631 242.452 86.207" stroke="#333333" stroke-miterlimit="10" stroke-linecap="round" stroke-linejoin="round"/>
<path d="M238.527 81.9799C238.197 81.5512 238.263 81.0368 238.593 80.5653C238.659 80.4367 238.791 80.351 238.923 80.2224C239.055 80.0938 239.253 80.008 239.583 79.9652C239.914 79.9223 240.31 79.9652 240.574 80.1366C240.838 80.3081 240.97 80.4796 241.036 80.6082C241.102 80.7368 241.102 80.9082 241.102 80.994C241.102 81.1226 241.102 81.294 240.97 81.5083C240.838 81.6798 240.574 81.8941 240.112 81.8941C239.649 81.8941 239.385 81.7227 239.253 81.5941C238.923 81.2512 239.055 80.9082 239.319 80.6939C239.583 80.4796 240.046 80.3938 240.376 80.4796C240.046 80.5653 239.848 80.7368 239.848 80.9082C239.781 81.0368 239.914 81.2083 240.046 81.2083C240.112 81.2083 240.112 81.1654 239.98 81.1654C239.848 81.1654 239.848 81.2083 239.848 81.1654C239.848 81.1654 239.848 81.1226 239.848 81.0368C239.848 80.9511 239.847 80.8654 239.781 80.8225C239.781 80.7796 239.715 80.7368 239.781 80.7368H239.914C239.914 80.7368 239.847 80.7368 239.781 80.7796C239.715 80.8225 239.583 80.8654 239.517 80.9511C239.055 81.2083 238.791 81.5512 238.527 81.9799Z" fill="#333333"/>
<path d="M244.888 81.8857C244.888 81.413 245.241 80.9833 245.77 80.6825C245.888 80.5966 246.005 80.5106 246.358 80.4677C246.534 80.4677 246.769 80.5106 246.887 80.5536C247.063 80.6395 247.122 80.7255 247.181 80.8114C247.298 80.9833 247.357 81.1122 247.357 81.1981C247.416 81.3271 247.416 81.456 247.416 81.6279C247.416 81.7997 247.298 82.0146 247.122 82.1435C246.946 82.3154 246.593 82.4443 246.24 82.4013C245.888 82.3583 245.652 82.1865 245.535 82.0576C245.417 81.8857 245.359 81.7568 245.359 81.5849C245.359 81.456 245.417 81.2841 245.535 81.1552C245.652 81.0263 245.829 80.8974 246.005 80.8544C246.181 80.8114 246.475 80.8114 246.593 80.8974C246.769 80.9833 246.828 81.1122 246.769 81.2411C246.71 81.1552 246.534 81.1122 246.475 81.1122C246.358 81.1122 246.299 81.1552 246.299 81.1981C246.181 81.2841 246.24 81.413 246.299 81.4989C246.299 81.5419 246.358 81.5849 246.417 81.5849C246.475 81.5849 246.475 81.5849 246.358 81.5419C246.181 81.5419 246.24 81.5849 246.24 81.4989C246.24 81.456 246.181 81.1552 246.181 81.1122C246.181 81.1122 246.181 81.1122 246.24 81.1122C246.299 81.1122 246.358 81.1552 246.358 81.1122C246.417 81.0692 246.299 81.1122 246.181 81.1552C245.829 81.413 245.359 81.5849 244.888 81.8857Z" fill="#333333"/>
<path d="M244.213 88.7051C243.989 89.0982 243.652 89.3228 243.315 89.4913C242.922 89.6597 242.585 89.772 242.136 89.7159C241.911 89.7159 241.687 89.6597 241.406 89.5474C241.181 89.4351 240.957 89.2105 240.844 88.9859C240.62 88.5366 240.676 88.1436 240.788 87.7505C241.125 88.0313 241.35 88.312 241.574 88.4805C241.799 88.5928 241.911 88.5928 242.192 88.6489H243.147C243.427 88.6489 243.764 88.6489 244.213 88.7051Z" fill="#333333"/>
<defs>
<linearGradient id="paint0_linear_36_2893" x1="30.3637" y1="118.508" x2="83.8058" y2="118.508" gradientUnits="userSpaceOnUse">
<stop stop-color="#FFA363"/>
<stop offset="0.9127" stop-color="#FF7743"/>
</linearGradient>
<linearGradient id="paint1_linear_36_2893" x1="62.8752" y1="107.977" x2="88.3077" y2="107.977" gradientUnits="userSpaceOnUse">
<stop stop-color="#FF7A45"/>
<stop offset="0.9127" stop-color="#FF7743"/>
</linearGradient>
<linearGradient id="paint2_linear_36_2893" x1="295.585" y1="130.979" x2="280.888" y2="128.23" gradientUnits="userSpaceOnUse">
<stop stop-color="#FF8E3D"/>
<stop offset="1" stop-color="#FF6F3D"/>
</linearGradient>
<linearGradient id="paint3_linear_36_2893" x1="304.636" y1="82.9591" x2="295.722" y2="93.6246" gradientUnits="userSpaceOnUse">
<stop stop-color="#FF8E3D"/>
<stop offset="1" stop-color="#FF6F3D"/>
</linearGradient>
<linearGradient id="paint4_linear_36_2893" x1="292.468" y1="83.0297" x2="284.904" y2="88.7962" gradientUnits="userSpaceOnUse">
<stop stop-color="#FF8E3D"/>
<stop offset="1" stop-color="#FF6F3D"/>
</linearGradient>
<linearGradient id="paint5_linear_36_2893" x1="242.975" y1="120.111" x2="253.951" y2="133.62" gradientUnits="userSpaceOnUse">
<stop stop-color="#FF8E3D"/>
<stop offset="1" stop-color="#FF6F3D"/>
</linearGradient>
</defs>
</svg>
