<svg width="160" height="52" viewBox="0 0 160 52" fill="none" xmlns="http://www.w3.org/2000/svg">
<g clip-path="url(#clip0_2096_146766)">
<path d="M153.109 0.399902H20.7666C16.3205 0.399902 12.6523 3.84761 12.275 8.19497L2.28013 11.9387C1.15411 12.3624 0.416971 13.442 0.434384 14.6435C0.451797 15.8449 1.22376 16.9071 2.36719 17.2902L12.2344 20.6334V43.8735C12.2344 48.5633 16.0709 52.3999 20.7608 52.3999H153.103C157.793 52.3999 161.629 48.5633 161.629 43.8735V8.9263C161.635 4.23649 157.798 0.399902 153.109 0.399902Z" fill="#002E47"/>
<path d="M142.972 30.4743H141.263V33.4743H137.126V30.4743H130.943V27.4L137.389 17.9714H141.257V27.3486H142.966V30.4743H142.972ZM137.126 27.3486V25.5429C137.126 25.2057 137.137 24.7486 137.166 24.1714C137.189 23.5943 137.212 23.2914 137.223 23.2629H137.109C136.869 23.8057 136.594 24.3143 136.292 24.7886L134.572 27.3429H137.126V27.3486Z" fill="#68C5ED"/>
<path d="M32.5373 13.9256C32.8402 13.4514 33.2402 13.0628 33.7373 12.7656C34.2345 12.4685 34.8516 12.3199 35.5888 12.3199C36.0059 12.3199 36.3888 12.3656 36.7259 12.4628C37.0631 12.5542 37.3659 12.6742 37.6345 12.8114C37.9031 12.9485 38.1431 13.1085 38.3602 13.2856C38.5773 13.4685 38.7716 13.6456 38.9431 13.8171C39.2002 13.5714 39.4402 13.3028 39.6574 13.0171C39.8745 12.7314 39.9831 12.4399 39.9831 12.1485C39.9831 11.9599 39.9374 11.7885 39.8402 11.6285C39.7488 11.4685 39.6345 11.3314 39.5031 11.2171C39.3888 11.1142 39.2173 10.9885 38.9945 10.8399C38.7716 10.6856 38.4916 10.5428 38.1488 10.4056C37.8116 10.2685 37.4116 10.1485 36.9602 10.0456C36.5031 9.94279 35.9945 9.89136 35.4345 9.89136C34.2916 9.89136 33.3031 10.0856 32.4573 10.4628C31.6116 10.8456 30.9088 11.3771 30.3488 12.0514C29.7888 12.7314 29.3659 13.5371 29.0802 14.4628C28.8002 15.3942 28.6573 16.4056 28.6573 17.5028C28.6573 18.5999 28.7888 19.6056 29.0459 20.5199C29.3031 21.4342 29.7145 22.2285 30.2688 22.9028C30.8231 23.5714 31.5259 24.0971 32.3773 24.4742C33.2288 24.8514 34.2402 25.0342 35.4059 25.0342C36.0116 25.0342 36.5488 24.9885 37.0173 24.8914C37.4859 24.7999 37.8859 24.6856 38.2059 24.5542C38.5316 24.4228 38.7945 24.2971 38.9945 24.1656C39.1945 24.0342 39.3431 23.9256 39.4288 23.8399C39.5888 23.6799 39.7031 23.5371 39.7774 23.4056C39.8516 23.2742 39.8859 23.1199 39.8859 22.9314C39.8859 22.7999 39.8516 22.6571 39.7774 22.4971C39.7031 22.3371 39.6173 22.1771 39.5202 22.0228C39.4173 21.8628 39.3088 21.7142 39.1945 21.5656C39.0802 21.4228 38.9773 21.2971 38.8916 21.1999C38.7602 21.3142 38.6002 21.4514 38.4059 21.6114C38.2116 21.7714 37.9831 21.9199 37.7259 22.0685C37.4688 22.2114 37.1659 22.3371 36.8288 22.4342C36.4916 22.5371 36.1202 22.5885 35.7145 22.5885C34.9488 22.5885 34.3088 22.4456 33.8002 22.1542C33.2859 21.8685 32.8745 21.4856 32.5545 21.0056C32.2345 20.5314 32.0116 19.9828 31.8859 19.3599C31.7545 18.7371 31.6916 18.0914 31.6916 17.4114C31.6916 16.7771 31.7545 16.1542 31.8859 15.5371C32.0173 14.9485 32.2345 14.4056 32.5373 13.9256Z" fill="#002E47" stroke="#002E47" stroke-width="3.2622" stroke-miterlimit="10" stroke-linejoin="round"/>
<path d="M50.6002 18.1084C50.6002 17.4399 50.5259 16.857 50.3831 16.3542C50.2402 15.8513 49.9945 15.4342 49.6517 15.1027C49.3088 14.7713 48.8688 14.5199 48.3202 14.3599C47.7774 14.1999 47.1088 14.1199 46.3259 14.1199C45.7602 14.1199 45.2231 14.1656 44.7145 14.2627C44.2059 14.3599 43.7545 14.4799 43.3659 14.6342C42.9717 14.7884 42.6631 14.9599 42.4402 15.1484C42.2174 15.337 42.1031 15.5313 42.1031 15.737C42.1031 15.8799 42.1659 16.1027 42.2859 16.3999C42.4117 16.697 42.5717 16.9713 42.7774 17.217C43.2402 16.9542 43.7145 16.7256 44.2059 16.5199C44.6917 16.3142 45.2459 16.217 45.8745 16.217C46.5431 16.217 47.0231 16.337 47.3202 16.5713C47.6174 16.8056 47.7659 17.1999 47.7659 17.7599V18.1542C47.6231 18.1542 47.4631 18.1542 47.2974 18.1542C47.1317 18.1542 46.9602 18.1599 46.7831 18.177C46.2631 18.2056 45.6859 18.2684 45.0631 18.3713C44.4402 18.4742 43.8574 18.657 43.3202 18.9256C42.7831 19.1942 42.3374 19.5599 41.9831 20.0227C41.6288 20.4856 41.4517 21.0856 41.4517 21.8227C41.4517 22.417 41.5545 22.9199 41.7545 23.3313C41.9602 23.7427 42.2174 24.0742 42.5374 24.3199C42.8574 24.5656 43.2117 24.7427 43.6059 24.8513C44.0002 24.9599 44.3888 25.0113 44.7831 25.0113C45.5374 25.0113 46.1774 24.897 46.6974 24.6627C47.2174 24.4284 47.6402 24.1484 47.9602 23.8113C48.0345 24.1884 48.2059 24.4799 48.4745 24.6799C48.7431 24.8856 49.1374 24.9827 49.6631 24.9827C49.9088 24.9827 50.1431 24.9599 50.3717 24.9199C50.5945 24.8742 50.8402 24.8056 51.1031 24.7027C50.7717 24.1827 50.6002 23.3427 50.6002 22.1999V18.1084ZM47.8117 21.9027C47.8117 22.017 47.7545 22.1484 47.6459 22.2856C47.5374 22.4227 47.3888 22.5484 47.2002 22.6684C47.0117 22.7827 46.7945 22.8799 46.5488 22.9542C46.3031 23.0284 46.0402 23.0627 45.7659 23.0627C45.2117 23.0627 44.8231 22.9199 44.5888 22.6399C44.3545 22.3542 44.2402 22.0113 44.2402 21.6056C44.2402 21.2456 44.3259 20.9427 44.5031 20.7142C44.6745 20.4799 44.9031 20.2913 45.1774 20.1484C45.4517 20.0056 45.7659 19.9027 46.1259 19.8456C46.4802 19.7884 46.8402 19.7427 47.2059 19.7142C47.3088 19.697 47.4117 19.6913 47.5088 19.6913H47.8117V21.9027Z" fill="#002E47" stroke="#002E47" stroke-width="3.2622" stroke-miterlimit="10" stroke-linejoin="round"/>
<path d="M61.7945 15.28C61.4173 14.8743 60.9887 14.5772 60.503 14.4C60.0173 14.2172 59.5087 14.1257 58.9716 14.1257C58.2173 14.1257 57.5945 14.2686 57.103 14.5486C56.6116 14.8343 56.2516 15.1143 56.0173 15.3886C55.9316 15.0114 55.7145 14.7429 55.383 14.5829C55.0459 14.4229 54.6345 14.3429 54.1545 14.3429C53.9945 14.3429 53.8573 14.3486 53.7373 14.3543C53.623 14.36 53.5202 14.3714 53.4288 14.3886C53.3259 14.4057 53.2402 14.4172 53.1659 14.4343V29.3715H56.1259V24.0172C56.1545 24.0629 56.2287 24.1429 56.343 24.2572C56.4573 24.3715 56.623 24.4915 56.8402 24.6057C57.0573 24.72 57.3202 24.8286 57.6345 24.92C57.943 25.0115 58.3087 25.0629 58.7316 25.0629C59.2402 25.0629 59.743 24.9772 60.2516 24.8C60.7602 24.6286 61.2173 24.3257 61.6287 23.8972C62.0402 23.4686 62.3773 22.8857 62.6402 22.1543C62.903 21.4229 63.0287 20.4857 63.0287 19.3543C63.0287 18.3829 62.9145 17.56 62.6916 16.8914C62.4745 16.2229 62.1716 15.6857 61.7945 15.28ZM59.423 21.8572C59.0745 22.44 58.5373 22.7257 57.8002 22.7257C57.4116 22.7257 57.0687 22.6457 56.7716 22.4857C56.4745 22.3257 56.2687 22.1886 56.1545 22.0743V17.4572C56.1545 17.1829 56.2745 16.9257 56.5145 16.6972C56.7545 16.4629 57.1773 16.3486 57.783 16.3486C58.1887 16.3486 58.5316 16.4229 58.8116 16.5772C59.0916 16.7314 59.3145 16.9429 59.4859 17.2172C59.6516 17.4914 59.7716 17.8172 59.8459 18.2C59.9202 18.5772 59.9545 18.9829 59.9545 19.4172C59.943 20.4629 59.7716 21.2743 59.423 21.8572Z" fill="#002E47" stroke="#002E47" stroke-width="3.2622" stroke-miterlimit="10" stroke-linejoin="round"/>
<path d="M70.9602 21.9886C70.9145 22.0343 70.8402 22.0972 70.7316 22.1829C70.6231 22.2686 70.4973 22.3543 70.3488 22.4343C70.2059 22.5143 70.0402 22.5886 69.8573 22.6515C69.6745 22.7143 69.4859 22.7486 69.2802 22.7486C68.4516 22.7486 68.0402 22.24 68.0402 21.2286V16.5829H71.0916V14.3829H68.0402V12.8343C68.0402 12.4743 67.9831 12.1772 67.8688 11.9543C67.7545 11.7315 67.6002 11.5486 67.4116 11.4229C67.2231 11.2915 67.0116 11.2057 66.7773 11.16C66.5431 11.1143 66.3145 11.0972 66.0802 11.0972C65.9659 11.0972 65.8459 11.1029 65.7316 11.1086C65.6173 11.1143 65.5088 11.1257 65.4059 11.1429C65.2916 11.16 65.1831 11.1715 65.0802 11.1886V21.2915C65.0802 21.6115 65.0973 21.9315 65.1259 22.2515C65.1545 22.5715 65.2173 22.8743 65.3202 23.1657C65.5259 23.7315 65.8745 24.1886 66.3773 24.5372C66.8802 24.8857 67.5773 25.0572 68.4802 25.0572C68.9431 25.0572 69.3716 25.0115 69.7659 24.9143C70.1602 24.8172 70.4916 24.6972 70.7659 24.5429C71.0402 24.3886 71.2573 24.2229 71.4059 24.04C71.5602 23.8572 71.6345 23.6686 71.6345 23.48C71.6345 23.2743 71.5773 23.0572 71.4631 22.8229C71.3488 22.5829 71.1773 22.3086 70.9602 21.9886Z" fill="#002E47" stroke="#002E47" stroke-width="3.2622" stroke-miterlimit="10" stroke-linejoin="round"/>
<path d="M81.2516 15.5314C80.8973 15.1029 80.4345 14.76 79.8687 14.5086C79.303 14.2572 78.6116 14.1257 77.8002 14.1257C77.1773 14.1257 76.5659 14.2286 75.9716 14.4286C75.3773 14.6343 74.8402 14.9486 74.3716 15.3886C73.8973 15.8229 73.5202 16.3714 73.2402 17.0343C72.9602 17.6972 72.8173 18.48 72.8173 19.4C72.8173 20.52 72.9773 21.4457 73.2973 22.1772C73.6173 22.9086 74.0345 23.4972 74.5487 23.9314C75.063 24.3657 75.6516 24.6743 76.3145 24.8457C76.9773 25.0172 77.6459 25.1086 78.3316 25.1086C79.0859 25.1086 79.743 25.0229 80.303 24.8572C80.863 24.6914 81.2916 24.4914 81.6002 24.2572C81.9602 23.9943 82.143 23.7029 82.143 23.3886C82.143 23.1714 82.0459 22.8914 81.8573 22.5486C81.6687 22.2057 81.4859 21.9257 81.3087 21.7086C81.1773 21.8229 81.0345 21.9543 80.8687 22.0914C80.7087 22.2286 80.5202 22.3543 80.303 22.4743C80.0859 22.5886 79.8345 22.6914 79.5602 22.7657C79.2859 22.8457 78.9602 22.8857 78.6002 22.8857C77.6516 22.8857 76.9602 22.6229 76.5259 22.0914C76.0916 21.56 75.8402 20.8972 75.783 20.0972H82.2059C82.2173 20.0229 82.2287 19.9257 82.2402 19.8057C82.2459 19.68 82.2573 19.5543 82.263 19.4229C82.2687 19.2914 82.2745 19.1714 82.2745 19.0514C82.2745 18.9372 82.2745 18.8343 82.2745 18.7486C82.2745 18.1372 82.1945 17.56 82.0345 17.0057C81.8688 16.4457 81.6116 15.96 81.2516 15.5314ZM75.7545 18.4572C75.7545 17.7143 75.9316 17.1372 76.2916 16.7257C76.6516 16.3143 77.1259 16.1029 77.7259 16.1029C78.4287 16.1029 78.9145 16.32 79.183 16.7543C79.4516 17.1886 79.5887 17.7543 79.5887 18.4514H75.7545V18.4572Z" fill="#002E47" stroke="#002E47" stroke-width="3.2622" stroke-miterlimit="10" stroke-linejoin="round"/>
<path d="M90.9145 14.3314C90.7488 14.2514 90.5659 14.2 90.3716 14.1714C90.1773 14.1429 89.9888 14.1257 89.8173 14.1257C89.5259 14.1257 89.2516 14.1714 89.0002 14.2572C88.7488 14.3429 88.5145 14.4514 88.303 14.5829C88.0916 14.7143 87.9145 14.8572 87.7716 15.0172C87.6288 15.1772 87.5088 15.32 87.4231 15.4514C87.3373 15.08 87.1202 14.8 86.7831 14.6229C86.4402 14.4457 86.0402 14.3543 85.5716 14.3543C85.4116 14.3543 85.2745 14.36 85.1602 14.3657C85.0459 14.3714 84.943 14.3829 84.8573 14.4C84.7545 14.4172 84.6688 14.4286 84.5945 14.4457V25.0743H87.5545V18.0057C87.5545 17.64 87.7088 17.3257 88.0116 17.0686C88.3145 16.8057 88.6916 16.6743 89.143 16.6743C89.4745 16.6743 89.7659 16.7314 90.0116 16.84C90.2573 16.9486 90.5031 17.1029 90.7545 17.3086C90.9145 17.0172 91.0745 16.6686 91.2345 16.2572C91.3945 15.8457 91.4745 15.48 91.4745 15.1657C91.4745 14.9657 91.4231 14.7943 91.3202 14.6572C91.2173 14.5143 91.0859 14.4114 90.9145 14.3314Z" fill="#002E47" stroke="#002E47" stroke-width="3.2622" stroke-miterlimit="10" stroke-linejoin="round"/>
<path d="M99.3373 14.3314C99.1716 14.2514 98.9888 14.2 98.7945 14.1714C98.6002 14.1429 98.4116 14.1257 98.2402 14.1257C97.9488 14.1257 97.6802 14.1714 97.4231 14.2572C97.1716 14.3429 96.9373 14.4514 96.7259 14.5829C96.5145 14.7143 96.3373 14.8572 96.1945 15.0172C96.0516 15.1772 95.9316 15.32 95.8459 15.4514C95.7602 15.08 95.543 14.8 95.2059 14.6229C94.863 14.4457 94.4631 14.3543 93.9945 14.3543C93.8345 14.3543 93.6973 14.36 93.5831 14.3657C93.4688 14.3714 93.3659 14.3829 93.2802 14.4C93.1773 14.4172 93.0916 14.4286 93.0173 14.4457V25.0743H95.9773V18.0057C95.9773 17.64 96.1316 17.3257 96.4345 17.0686C96.7373 16.8057 97.1145 16.6743 97.5659 16.6743C97.8973 16.6743 98.1888 16.7314 98.4345 16.84C98.6802 16.9486 98.9259 17.1029 99.1773 17.3086C99.3373 17.0172 99.4973 16.6686 99.6573 16.2572C99.8173 15.8457 99.8973 15.48 99.8973 15.1657C99.8973 14.9657 99.8459 14.7943 99.743 14.6572C99.6402 14.5143 99.5031 14.4114 99.3373 14.3314Z" fill="#002E47" stroke="#002E47" stroke-width="3.2622" stroke-miterlimit="10" stroke-linejoin="round"/>
<path d="M109.977 22.2056V18.1084C109.977 17.4399 109.903 16.857 109.76 16.3542C109.617 15.8513 109.372 15.4342 109.029 15.1027C108.686 14.7713 108.246 14.5199 107.703 14.3599C107.16 14.1999 106.492 14.1199 105.709 14.1199C105.143 14.1199 104.606 14.1656 104.097 14.2627C103.589 14.3599 103.137 14.4799 102.749 14.6342C102.354 14.7884 102.046 14.9599 101.823 15.1484C101.6 15.337 101.486 15.5313 101.486 15.737C101.486 15.8799 101.549 16.1027 101.669 16.3999C101.794 16.697 101.954 16.9713 102.16 17.217C102.623 16.9542 103.097 16.7256 103.589 16.5199C104.074 16.3142 104.629 16.217 105.257 16.217C105.926 16.217 106.406 16.337 106.703 16.5713C107 16.8056 107.149 17.1999 107.149 17.7599V18.1542C107.006 18.1542 106.846 18.1542 106.68 18.1542C106.514 18.1542 106.343 18.1599 106.166 18.177C105.646 18.2056 105.069 18.2684 104.446 18.3713C103.823 18.4742 103.24 18.657 102.703 18.9256C102.166 19.1942 101.72 19.5599 101.366 20.0227C101.012 20.4856 100.834 21.0856 100.834 21.8227C100.834 22.417 100.937 22.9199 101.137 23.3313C101.343 23.7427 101.6 24.0742 101.92 24.3199C102.24 24.5656 102.594 24.7427 102.989 24.8513C103.383 24.9599 103.772 25.0113 104.166 25.0113C104.92 25.0113 105.56 24.897 106.08 24.6627C106.6 24.4284 107.023 24.1484 107.343 23.8113C107.417 24.1884 107.589 24.4799 107.857 24.6799C108.126 24.8856 108.52 24.9827 109.046 24.9827C109.292 24.9827 109.526 24.9599 109.754 24.9199C109.977 24.8742 110.223 24.8056 110.486 24.7027C110.143 24.1884 109.977 23.3542 109.977 22.2056ZM107.189 21.9027C107.189 22.017 107.132 22.1484 107.023 22.2856C106.914 22.4227 106.766 22.5484 106.577 22.6684C106.389 22.7827 106.172 22.8799 105.926 22.9542C105.68 23.0284 105.417 23.0627 105.143 23.0627C104.589 23.0627 104.2 22.9199 103.966 22.6399C103.732 22.3542 103.617 22.0113 103.617 21.6056C103.617 21.2456 103.703 20.9427 103.88 20.7142C104.052 20.4799 104.28 20.2913 104.554 20.1484C104.829 20.0056 105.149 19.9027 105.503 19.8456C105.857 19.7884 106.217 19.7427 106.583 19.7142C106.686 19.697 106.789 19.6913 106.886 19.6913H107.189V21.9027Z" fill="#002E47" stroke="#002E47" stroke-width="3.2622" stroke-miterlimit="10" stroke-linejoin="round"/>
<path d="M14.5945 18.2285L3.2345 14.3827L19.0402 8.46274L26.5031 5.66846L19.0402 29.3656L14.5945 18.2285Z" fill="#002E47"/>
<path d="M3.2345 14.4801H13.0631L19.0402 14.4858V8.56006L3.2345 14.4801Z" fill="#FF9D28"/>
<path d="M19.0402 8.55991V29.4685L26.503 5.76562L19.0402 8.55991Z" fill="#69C3EA"/>
<path d="M19.0401 14.4857L13.063 14.48L19.0401 29.4685V14.4857Z" fill="#004F80"/>
<path d="M3.2345 14.48L14.5945 18.3257L13.0631 14.48H3.2345Z" fill="#E14748"/>
<path d="M39.4401 23.9658C39.3544 24.0515 39.2116 24.16 39.0058 24.2915C38.8058 24.4229 38.543 24.5486 38.2173 24.68C37.8916 24.8115 37.4973 24.92 37.0287 25.0172C36.5601 25.1086 36.023 25.16 35.4173 25.16C34.2458 25.16 33.2401 24.9715 32.3887 24.6C31.5373 24.2229 30.8344 23.7029 30.2801 23.0286C29.7258 22.36 29.3144 21.5658 29.0573 20.6458C28.8001 19.7315 28.6687 18.72 28.6687 17.6229C28.6687 16.5258 28.8116 15.5143 29.0916 14.5829C29.3716 13.6515 29.7944 12.8458 30.3601 12.1715C30.9258 11.4915 31.6287 10.96 32.4687 10.5829C33.3144 10.2 34.303 10.0115 35.4458 10.0115C36.0116 10.0115 36.5201 10.0629 36.9716 10.1658C37.4287 10.2686 37.823 10.3886 38.1601 10.5258C38.4973 10.6629 38.783 10.8058 39.0058 10.96C39.2287 11.1143 39.4001 11.24 39.5144 11.3372C39.6458 11.4515 39.7544 11.5886 39.8516 11.7486C39.943 11.9086 39.9944 12.08 39.9944 12.2686C39.9944 12.56 39.8858 12.8458 39.6687 13.1372C39.4516 13.4286 39.2116 13.6915 38.9544 13.9372C38.783 13.7658 38.5887 13.5886 38.3716 13.4058C38.1544 13.2229 37.9144 13.0686 37.6458 12.9315C37.3773 12.7943 37.0744 12.68 36.7373 12.5829C36.4001 12.4915 36.0173 12.44 35.6001 12.44C34.863 12.44 34.2458 12.5886 33.7487 12.8858C33.2516 13.1829 32.8516 13.5658 32.5487 14.0458C32.2458 14.52 32.0287 15.0686 31.8973 15.68C31.7658 16.2915 31.703 16.92 31.703 17.5543C31.703 18.2343 31.7658 18.88 31.8973 19.5029C32.0287 20.1258 32.2516 20.6743 32.5658 21.1486C32.8858 21.6229 33.2973 22.0058 33.8116 22.2972C34.3258 22.5886 34.9601 22.7315 35.7258 22.7315C36.1316 22.7315 36.503 22.68 36.8401 22.5772C37.1773 22.4743 37.4801 22.3543 37.7373 22.2115C37.9944 22.0686 38.223 21.9143 38.4173 21.7543C38.6116 21.5943 38.7773 21.4572 38.903 21.3429C38.9887 21.4458 39.0916 21.5658 39.2058 21.7086C39.3201 21.8515 39.4287 22.0058 39.5316 22.1658C39.6344 22.3258 39.7201 22.4858 39.7887 22.64C39.863 22.8 39.8973 22.9429 39.8973 23.0743C39.8973 23.2629 39.863 23.4229 39.7887 23.5486C39.7144 23.6629 39.6001 23.8058 39.4401 23.9658Z" fill="white"/>
<path d="M50.6002 22.3029C50.6002 23.4515 50.7659 24.2858 51.103 24.8058C50.8402 24.9086 50.6002 24.9772 50.3716 25.0229C50.1487 25.0686 49.9087 25.0858 49.663 25.0858C49.143 25.0858 48.743 24.9829 48.4745 24.7829C48.2059 24.5772 48.0345 24.2915 47.9602 23.9143C47.6402 24.2515 47.2173 24.5315 46.6973 24.7658C46.1773 25 45.5373 25.1143 44.783 25.1143C44.3887 25.1143 44.0002 25.0572 43.6059 24.9543C43.2116 24.8458 42.8573 24.6686 42.5373 24.4229C42.2173 24.1772 41.9545 23.8458 41.7545 23.4343C41.5487 23.0229 41.4516 22.52 41.4516 21.9258C41.4516 21.1886 41.6287 20.5886 41.983 20.1258C42.3373 19.6629 42.783 19.2972 43.3202 19.0286C43.8573 18.76 44.4402 18.5772 45.063 18.4743C45.6859 18.3715 46.263 18.3086 46.783 18.28C46.9602 18.2629 47.1259 18.2572 47.2973 18.2572H47.7659V17.8629C47.7659 17.3029 47.6173 16.9086 47.3202 16.6743C47.023 16.44 46.5373 16.32 45.8745 16.32C45.2516 16.32 44.6973 16.4229 44.2059 16.6229C43.7202 16.8286 43.2459 17.0572 42.7773 17.32C42.5716 17.0743 42.4116 16.8 42.2859 16.5029C42.1602 16.2058 42.103 15.9829 42.103 15.84C42.103 15.6343 42.2173 15.44 42.4402 15.2515C42.663 15.0629 42.9716 14.8915 43.3659 14.7372C43.7602 14.5829 44.2059 14.4629 44.7145 14.3658C45.223 14.2686 45.7602 14.2229 46.3259 14.2229C47.1087 14.2229 47.7716 14.3029 48.3202 14.4629C48.863 14.6229 49.3087 14.8686 49.6516 15.2058C49.9945 15.5372 50.2345 15.9543 50.383 16.4572C50.5259 16.96 50.6002 17.5429 50.6002 18.2115V22.3029ZM47.8116 19.7772C47.7087 19.7772 47.6059 19.7772 47.5087 19.7772C47.4059 19.7772 47.303 19.7829 47.2059 19.8C46.8402 19.8286 46.4859 19.8743 46.1259 19.9315C45.7716 19.9886 45.4516 20.0915 45.1773 20.2343C44.903 20.3772 44.6745 20.5658 44.503 20.8C44.3259 21.0343 44.2402 21.3315 44.2402 21.6915C44.2402 22.0972 44.3545 22.44 44.5887 22.7258C44.823 23.0115 45.2116 23.1486 45.7659 23.1486C46.0402 23.1486 46.303 23.1143 46.5487 23.04C46.7945 22.9658 47.0116 22.8743 47.2002 22.7543C47.3887 22.64 47.5373 22.5086 47.6459 22.3715C47.7545 22.2343 47.8116 22.1086 47.8116 21.9886V19.7772Z" fill="white"/>
<path d="M56.023 15.4858C56.2516 15.2115 56.6173 14.9315 57.1087 14.6458C57.6002 14.36 58.223 14.2229 58.9773 14.2229C59.5144 14.2229 60.023 14.3143 60.5087 14.4972C60.9944 14.68 61.423 14.9715 61.8002 15.3772C62.1773 15.7829 62.4744 16.32 62.703 16.9886C62.9259 17.6572 63.0402 18.4743 63.0402 19.4515C63.0402 20.5829 62.9087 21.5143 62.6516 22.2515C62.3887 22.9829 62.0573 23.5658 61.6402 23.9943C61.2287 24.4229 60.7659 24.7258 60.263 24.8972C59.7544 25.0686 59.2516 25.16 58.743 25.16C58.3259 25.16 57.9602 25.1143 57.6459 25.0172C57.3373 24.92 57.0687 24.8172 56.8516 24.7029C56.6344 24.5886 56.4687 24.4686 56.3544 24.3543C56.2402 24.24 56.1659 24.16 56.1373 24.1143V29.4686H53.1773V14.5258C53.2516 14.5143 53.3373 14.4972 53.4402 14.48C53.5259 14.4686 53.6287 14.4572 53.7487 14.4458C53.863 14.44 54.0059 14.4343 54.1659 14.4343C54.6459 14.4343 55.0573 14.5143 55.3944 14.6743C55.7202 14.84 55.9316 15.1086 56.023 15.4858ZM59.943 19.5143C59.943 19.08 59.9087 18.6743 59.8344 18.2972C59.7602 17.92 59.6459 17.5943 59.4744 17.3143C59.3087 17.04 59.0859 16.8229 58.8002 16.6743C58.5202 16.52 58.1773 16.4458 57.7716 16.4458C57.1659 16.4458 56.743 16.56 56.503 16.7943C56.263 17.0286 56.143 17.28 56.143 17.5543V22.1715C56.2573 22.2858 56.463 22.4229 56.7602 22.5829C57.0573 22.7429 57.4002 22.8229 57.7887 22.8229C58.5259 22.8229 59.0687 22.5315 59.4116 21.9543C59.7716 21.3715 59.943 20.56 59.943 19.5143Z" fill="white"/>
<path d="M65.3201 23.2628C65.2173 22.9713 65.1544 22.6685 65.1259 22.3485C65.0973 22.0285 65.0801 21.7085 65.0801 21.3885V11.2799C65.183 11.2685 65.2916 11.2513 65.4059 11.2342C65.5087 11.2228 65.6173 11.2113 65.7316 11.1999C65.8459 11.1942 65.9659 11.1885 66.0801 11.1885C66.3144 11.1885 66.543 11.2113 66.7773 11.2513C67.0116 11.297 67.2173 11.3828 67.4116 11.5142C67.6001 11.6456 67.7544 11.8228 67.8687 12.0456C67.983 12.2685 68.0401 12.5656 68.0401 12.9256V14.4742H71.0916V16.6742H68.0401V21.3199C68.0401 22.3313 68.4516 22.8399 69.2801 22.8399C69.4859 22.8399 69.6744 22.8056 69.8573 22.7428C70.0401 22.6799 70.2001 22.6056 70.3487 22.5256C70.4916 22.4456 70.623 22.3599 70.7316 22.2742C70.8401 22.1885 70.9144 22.1199 70.9601 22.0799C71.1773 22.3999 71.343 22.6742 71.463 22.9085C71.5773 23.1428 71.6344 23.3599 71.6344 23.5656C71.6344 23.7542 71.5601 23.9428 71.4059 24.1256C71.2516 24.3085 71.0401 24.4799 70.7659 24.6285C70.4916 24.7828 70.1544 24.9085 69.7659 24.9999C69.3716 25.097 68.943 25.1428 68.4801 25.1428C67.5773 25.1428 66.8801 24.9656 66.3773 24.6228C65.8744 24.2856 65.5259 23.8285 65.3201 23.2628Z" fill="white"/>
<path d="M78.5944 22.977C78.9602 22.977 79.2802 22.937 79.5544 22.857C79.8287 22.777 80.0802 22.6799 80.2973 22.5656C80.5144 22.4513 80.703 22.3199 80.863 22.1828C81.023 22.0456 81.1716 21.9199 81.303 21.7999C81.4802 22.017 81.6573 22.297 81.8516 22.6399C82.0402 22.9828 82.1373 23.2628 82.1373 23.4799C82.1373 23.7999 81.9544 24.0913 81.5944 24.3485C81.2916 24.5828 80.8573 24.7828 80.2973 24.9485C79.7373 25.1142 79.0802 25.1999 78.3259 25.1999C77.6459 25.1999 76.9716 25.1142 76.3087 24.937C75.6459 24.7656 75.0573 24.457 74.543 24.0228C74.0287 23.5885 73.6116 23.0056 73.2916 22.2685C72.9716 21.537 72.8116 20.6113 72.8116 19.4913C72.8116 18.577 72.9544 17.7885 73.2344 17.1256C73.5202 16.4628 73.8973 15.9142 74.3659 15.4799C74.8402 15.0456 75.3716 14.7256 75.9659 14.5199C76.5602 14.3142 77.1716 14.217 77.7944 14.217C78.6059 14.217 79.2973 14.3428 79.863 14.5999C80.4287 14.8513 80.8916 15.1942 81.2459 15.6228C81.6002 16.0513 81.8573 16.5428 82.0173 17.0913C82.1773 17.6456 82.2573 18.2228 82.2573 18.8342V19.137C82.2573 19.2513 82.2516 19.377 82.2459 19.5085C82.2402 19.6399 82.2287 19.7656 82.223 19.8913C82.2173 20.017 82.2059 20.1142 82.1887 20.1828H75.7659C75.823 20.9828 76.0744 21.6456 76.5087 22.177C76.9544 22.7142 77.6459 22.977 78.5944 22.977ZM79.5887 18.5542C79.5887 17.857 79.4516 17.2913 79.183 16.857C78.9144 16.4228 78.4287 16.2056 77.7259 16.2056C77.1259 16.2056 76.6459 16.4113 76.2916 16.8285C75.9316 17.2399 75.7544 17.817 75.7544 18.5599H79.5887V18.5542Z" fill="white"/>
<path d="M87.423 15.5428C87.5087 15.4113 87.6287 15.2685 87.7716 15.1085C87.9144 14.9485 88.0973 14.8056 88.303 14.6742C88.5144 14.5428 88.743 14.4342 89.0001 14.3485C89.2516 14.2628 89.5258 14.217 89.8173 14.217C89.9887 14.217 90.1773 14.2342 90.3716 14.2628C90.5659 14.2913 90.7487 14.3485 90.9144 14.4228C91.0801 14.5028 91.2173 14.6113 91.3201 14.7485C91.423 14.8856 91.4744 15.057 91.4744 15.257C91.4744 15.5713 91.3944 15.937 91.2344 16.3485C91.0744 16.7599 90.9144 17.1085 90.7544 17.3999C90.5087 17.1942 90.263 17.0399 90.0116 16.9313C89.7658 16.8228 89.4744 16.7656 89.143 16.7656C88.6916 16.7656 88.3144 16.897 88.0116 17.1599C87.7087 17.4228 87.5544 17.737 87.5544 18.097V25.1485H84.5944V14.5199C84.6687 14.5085 84.7544 14.4913 84.8573 14.4742C84.943 14.4628 85.0458 14.4513 85.1601 14.4399C85.2744 14.4342 85.4116 14.4285 85.5716 14.4285C86.0344 14.4285 86.4401 14.5199 86.783 14.697C87.1201 14.8913 87.3316 15.1656 87.423 15.5428Z" fill="white"/>
<path d="M95.8402 15.5428C95.9259 15.4113 96.0459 15.2685 96.1887 15.1085C96.3316 14.9485 96.5145 14.8056 96.7202 14.6742C96.9316 14.5428 97.1602 14.4342 97.4173 14.3485C97.6687 14.2628 97.943 14.217 98.2345 14.217C98.4059 14.217 98.5945 14.2342 98.7887 14.2628C98.983 14.2913 99.1659 14.3485 99.3316 14.4228C99.4973 14.5028 99.6345 14.6113 99.7373 14.7485C99.8402 14.8856 99.8916 15.057 99.8916 15.257C99.8916 15.5713 99.8116 15.937 99.6516 16.3485C99.4916 16.7599 99.3316 17.1085 99.1716 17.3999C98.9259 17.1942 98.6802 17.0399 98.4287 16.9313C98.183 16.8228 97.8916 16.7656 97.5602 16.7656C97.1087 16.7656 96.7316 16.897 96.4287 17.1599C96.1259 17.4228 95.9716 17.737 95.9716 18.097V25.1485H93.0116V14.5199C93.0859 14.5085 93.1716 14.4913 93.2745 14.4742C93.3602 14.4628 93.463 14.4513 93.5773 14.4399C93.6916 14.4342 93.8287 14.4285 93.9887 14.4285C94.4516 14.4285 94.8573 14.5199 95.2002 14.697C95.543 14.8913 95.7545 15.1656 95.8402 15.5428Z" fill="white"/>
<path d="M109.977 22.3029C109.977 23.4515 110.143 24.2858 110.48 24.8058C110.217 24.9086 109.977 24.9772 109.749 25.0229C109.526 25.0686 109.286 25.0858 109.04 25.0858C108.514 25.0858 108.12 24.9829 107.852 24.7829C107.583 24.5772 107.412 24.2915 107.337 23.9143C107.017 24.2515 106.594 24.5315 106.074 24.7658C105.554 25 104.914 25.1143 104.16 25.1143C103.766 25.1143 103.377 25.0572 102.983 24.9543C102.589 24.8458 102.234 24.6686 101.914 24.4229C101.594 24.1772 101.332 23.8458 101.132 23.4343C100.926 23.0229 100.829 22.52 100.829 21.9258C100.829 21.1886 101.006 20.5886 101.36 20.1258C101.714 19.6629 102.16 19.2972 102.697 19.0286C103.234 18.76 103.817 18.5772 104.44 18.4743C105.063 18.3715 105.64 18.3086 106.16 18.28C106.337 18.2629 106.503 18.2572 106.674 18.2572H107.143V17.8629C107.143 17.3029 106.994 16.9086 106.697 16.6743C106.4 16.44 105.914 16.32 105.252 16.32C104.629 16.32 104.074 16.4229 103.583 16.6229C103.097 16.8286 102.623 17.0572 102.154 17.32C101.949 17.0743 101.789 16.8 101.663 16.5029C101.537 16.2058 101.48 15.9829 101.48 15.84C101.48 15.6343 101.594 15.44 101.817 15.2515C102.04 15.0629 102.349 14.8915 102.743 14.7372C103.137 14.5829 103.583 14.4629 104.092 14.3658C104.6 14.2686 105.137 14.2229 105.703 14.2229C106.486 14.2229 107.149 14.3029 107.697 14.4629C108.24 14.6229 108.686 14.8686 109.023 15.2058C109.366 15.5372 109.606 15.9543 109.754 16.4572C109.897 16.96 109.972 17.5429 109.972 18.2115V22.3029H109.977ZM107.189 19.7772C107.086 19.7772 106.983 19.7772 106.886 19.7772C106.783 19.7772 106.68 19.7829 106.583 19.8C106.217 19.8286 105.863 19.8743 105.503 19.9315C105.149 19.9886 104.829 20.0915 104.554 20.2343C104.28 20.3772 104.052 20.5658 103.88 20.8C103.709 21.0343 103.617 21.3315 103.617 21.6915C103.617 22.0972 103.732 22.44 103.966 22.7258C104.2 23.0115 104.589 23.1486 105.143 23.1486C105.417 23.1486 105.68 23.1143 105.926 23.04C106.172 22.9658 106.389 22.8743 106.577 22.7543C106.766 22.64 106.914 22.5086 107.023 22.3715C107.132 22.2343 107.189 22.1086 107.189 21.9886V19.7772Z" fill="white"/>
<path d="M105.109 31.5087C105.446 31.5087 105.777 31.6858 105.954 32.0344L106.892 33.9315C107.029 34.2115 107.292 34.4001 107.6 34.4458L109.692 34.7487C110.463 34.863 110.772 35.8115 110.212 36.3544L108.697 37.8287C108.474 38.0458 108.377 38.3544 108.429 38.663L108.789 40.7487C108.892 41.3544 108.412 41.8515 107.863 41.8515C107.72 41.8515 107.572 41.8173 107.423 41.743L105.554 40.7601C105.417 40.6858 105.269 40.6515 105.114 40.6515C104.966 40.6515 104.812 40.6858 104.674 40.7601L102.806 41.743C102.663 41.8173 102.514 41.8515 102.366 41.8515C101.817 41.8515 101.337 41.3601 101.44 40.7487L101.8 38.663C101.852 38.3601 101.749 38.0458 101.532 37.8287L100.017 36.3544C99.4573 35.8115 99.7659 34.863 100.537 34.7487L102.629 34.4458C102.937 34.4001 103.2 34.2115 103.337 33.9315L104.274 32.0344C104.434 31.6858 104.772 31.5087 105.109 31.5087ZM105.109 30.9373C104.532 30.9373 104.012 31.263 103.754 31.7773L102.817 33.6744C102.766 33.783 102.657 33.8573 102.537 33.8744L100.446 34.1773C99.8745 34.263 99.4059 34.6573 99.223 35.2058C99.0459 35.7544 99.1888 36.3487 99.6059 36.7544L101.12 38.2287C101.206 38.3144 101.246 38.4344 101.229 38.5544L100.869 40.6401C100.794 41.0801 100.914 41.5258 101.2 41.8687C101.492 42.2115 101.914 42.4115 102.36 42.4115C102.606 42.4115 102.84 42.3544 103.063 42.2344L104.932 41.2515C104.983 41.223 105.046 41.2115 105.103 41.2115C105.16 41.2115 105.223 41.2287 105.274 41.2515L107.143 42.2344C107.366 42.3487 107.6 42.4115 107.846 42.4115C108.292 42.4115 108.714 42.2115 109.006 41.8687C109.292 41.5315 109.412 41.0801 109.337 40.6401L108.977 38.5544C108.954 38.4344 108.994 38.3144 109.086 38.2287L110.6 36.7544C111.017 36.3487 111.16 35.7544 110.983 35.2058C110.806 34.6573 110.337 34.2573 109.76 34.1773L107.669 33.8744C107.549 33.8573 107.446 33.783 107.389 33.6744L106.452 31.7773C106.206 31.263 105.686 30.9373 105.109 30.9373Z" fill="#FF9D28"/>
<path d="M93.5602 42.1315C93.3602 42.1315 93.1716 42.0858 92.9887 41.9886L91.1202 41.0058C91.0287 40.9543 90.9202 40.9315 90.8173 40.9315C90.7087 40.9315 90.6059 40.96 90.5145 41.0058L88.6402 41.9886C88.4573 42.0858 88.2687 42.1315 88.0687 42.1315C87.7087 42.1315 87.3659 41.9715 87.1259 41.6915C86.8916 41.4115 86.7944 41.0629 86.8573 40.6972L87.2116 38.6115C87.2459 38.4 87.1773 38.1829 87.023 38.0343L85.5087 36.56C85.1716 36.2343 85.0516 35.7486 85.2002 35.3029C85.343 34.8572 85.7259 34.5372 86.1887 34.4686L88.2802 34.1658C88.4916 34.1372 88.6802 34 88.7716 33.8058L89.7087 31.9086C89.9145 31.4858 90.3373 31.2229 90.8059 31.2229C91.2745 31.2229 91.6973 31.4858 91.903 31.9086L92.8402 33.8058C92.9373 34 93.1202 34.1315 93.3316 34.1658L95.423 34.4686C95.8859 34.5372 96.2687 34.8572 96.4116 35.3029C96.5544 35.7486 96.4402 36.2343 96.103 36.56L94.5887 38.0343C94.4344 38.1829 94.3659 38.4 94.4002 38.6115L94.7602 40.6972C94.823 41.0629 94.7259 41.4115 94.4916 41.6915C94.2687 41.9715 93.9259 42.1315 93.5602 42.1315Z" fill="#FF9D28"/>
<path d="M90.8173 31.5087C91.1545 31.5087 91.4859 31.6858 91.663 32.0344L92.6002 33.9315C92.7373 34.2115 93.0002 34.4001 93.3087 34.4458L95.4002 34.7487C96.1716 34.863 96.4802 35.8115 95.9202 36.3544L94.4059 37.8287C94.183 38.0458 94.0859 38.3544 94.1373 38.663L94.4973 40.7487C94.6002 41.3544 94.1202 41.8515 93.5716 41.8515C93.4287 41.8515 93.2802 41.8173 93.1316 41.743L91.263 40.7601C91.1259 40.6858 90.9773 40.6515 90.823 40.6515C90.6745 40.6515 90.5202 40.6858 90.383 40.7601L88.5145 41.743C88.3716 41.8173 88.223 41.8515 88.0745 41.8515C87.5259 41.8515 87.0459 41.3601 87.1487 40.7487L87.5087 38.663C87.5602 38.3601 87.4573 38.0458 87.2402 37.8287L85.7259 36.3544C85.1659 35.8115 85.4745 34.863 86.2459 34.7487L88.3373 34.4458C88.6459 34.4001 88.9087 34.2115 89.0459 33.9315L89.983 32.0344C90.143 31.6858 90.4802 31.5087 90.8173 31.5087ZM90.8173 30.9373C90.2402 30.9373 89.7202 31.263 89.463 31.783L88.5259 33.6801C88.4745 33.7887 88.3659 33.863 88.2459 33.8801L86.1545 34.183C85.583 34.2687 85.1145 34.663 84.9316 35.2115C84.7545 35.7601 84.8973 36.3544 85.3145 36.7601L86.8287 38.2344C86.9145 38.3201 86.9545 38.4401 86.9373 38.5601L86.5773 40.6458C86.503 41.0858 86.623 41.5315 86.9087 41.8744C87.2002 42.2173 87.623 42.4173 88.0687 42.4173C88.3145 42.4173 88.5487 42.3601 88.7716 42.2401L90.6402 41.2573C90.6916 41.2287 90.7545 41.2173 90.8116 41.2173C90.8687 41.2173 90.9316 41.2344 90.983 41.2573L92.8516 42.2401C93.0745 42.3544 93.3087 42.4173 93.5545 42.4173C94.0002 42.4173 94.423 42.2173 94.7145 41.8744C95.0002 41.5373 95.1202 41.0858 95.0459 40.6458L94.6916 38.5601C94.6687 38.4401 94.7087 38.3201 94.8002 38.2344L96.3145 36.7601C96.7316 36.3544 96.8745 35.7601 96.6973 35.2115C96.5202 34.663 96.0516 34.2687 95.4745 34.183L93.383 33.8801C93.263 33.863 93.1602 33.7887 93.103 33.6801L92.1659 31.783C91.9145 31.263 91.3945 30.9373 90.8173 30.9373Z" fill="#FF9D28"/>
<path d="M79.2687 42.1315C79.0687 42.1315 78.8802 42.0858 78.6973 41.9886L76.8287 41.0058C76.7373 40.9543 76.6287 40.9315 76.5259 40.9315C76.4173 40.9315 76.3145 40.96 76.223 41.0058L74.3487 41.9886C74.1659 42.0858 73.9773 42.1315 73.7773 42.1315C73.4173 42.1315 73.0745 41.9715 72.8345 41.6915C72.6002 41.4115 72.503 41.0629 72.5659 40.6972L72.9259 38.6115C72.9602 38.4 72.8916 38.1829 72.7373 38.0343L71.223 36.56C70.8859 36.2343 70.7659 35.7486 70.9145 35.3029C71.0573 34.8572 71.4402 34.5372 71.903 34.4686L73.9945 34.1658C74.2059 34.1372 74.3945 34 74.4859 33.8058L75.423 31.9086C75.6287 31.4858 76.0516 31.2229 76.5202 31.2229C76.9887 31.2229 77.4116 31.4858 77.6173 31.9086L78.5545 33.8058C78.6516 34 78.8345 34.1315 79.0459 34.1658L81.1373 34.4686C81.6002 34.5372 81.983 34.8572 82.1259 35.3029C82.2687 35.7486 82.1545 36.2343 81.8173 36.56L80.303 38.0343C80.1487 38.1829 80.0802 38.4 80.1145 38.6115L80.4687 40.6972C80.5316 41.0629 80.4345 41.4115 80.2002 41.6915C79.9716 41.9715 79.6287 42.1315 79.2687 42.1315Z" fill="#FF9D28"/>
<path d="M76.5202 31.5087C76.8573 31.5087 77.1888 31.6858 77.3659 32.0344L78.303 33.9315C78.4402 34.2115 78.703 34.4001 79.0116 34.4458L81.1031 34.7487C81.8745 34.863 82.1831 35.8115 81.6231 36.3544L80.1088 37.8287C79.8859 38.0458 79.7888 38.3544 79.8402 38.663L80.2002 40.7487C80.3031 41.3544 79.8231 41.8515 79.2745 41.8515C79.1316 41.8515 78.9831 41.8173 78.8345 41.743L76.9659 40.7601C76.8288 40.6858 76.6802 40.6515 76.5259 40.6515C76.3773 40.6515 76.2231 40.6858 76.0859 40.7601L74.2173 41.743C74.0745 41.8173 73.9259 41.8515 73.7773 41.8515C73.2288 41.8515 72.7488 41.3601 72.8516 40.7487L73.2116 38.663C73.263 38.3601 73.1602 38.0458 72.9431 37.8287L71.4288 36.3544C70.8688 35.8115 71.1773 34.863 71.9488 34.7487L74.0402 34.4458C74.3488 34.4001 74.6116 34.2115 74.7488 33.9315L75.6859 32.0344C75.8516 31.6858 76.1888 31.5087 76.5202 31.5087ZM76.5202 30.9373C75.943 30.9373 75.4231 31.263 75.1659 31.783L74.2288 33.6801C74.1773 33.7887 74.0688 33.863 73.9488 33.8801L71.8573 34.183C71.2859 34.2687 70.8173 34.663 70.6345 35.2115C70.4573 35.7601 70.6002 36.3544 71.0173 36.7601L72.5316 38.2344C72.6173 38.3201 72.6573 38.4401 72.6402 38.5601L72.2802 40.6458C72.2059 41.0858 72.3259 41.5315 72.6116 41.8744C72.9031 42.2173 73.3259 42.4173 73.7716 42.4173C74.0173 42.4173 74.2516 42.3601 74.4745 42.2401L76.3431 41.2573C76.3945 41.2287 76.4573 41.2173 76.5145 41.2173C76.5716 41.2173 76.6345 41.2344 76.6859 41.2573L78.5545 42.2401C78.7773 42.3544 79.0116 42.4173 79.2573 42.4173C79.7031 42.4173 80.1259 42.2173 80.4173 41.8744C80.7031 41.5373 80.8231 41.0858 80.7488 40.6458L80.3888 38.5601C80.3659 38.4401 80.4059 38.3201 80.4973 38.2344L82.0116 36.7601C82.4288 36.3544 82.5716 35.7601 82.3945 35.2115C82.2173 34.663 81.7488 34.263 81.1716 34.183L79.0802 33.8801C78.9602 33.863 78.8573 33.7887 78.8002 33.6801L77.8631 31.783C77.6231 31.263 77.103 30.9373 76.5202 30.9373Z" fill="#FF9D28"/>
<path d="M64.9773 42.1315C64.7773 42.1315 64.5887 42.0858 64.4059 41.9886L62.5316 41.0058C62.4402 40.9543 62.3316 40.9315 62.2287 40.9315C62.1259 40.9315 62.0173 40.96 61.9259 41.0058L60.0516 41.9886C59.8687 42.0858 59.6802 42.1315 59.4802 42.1315C59.1202 42.1315 58.7773 41.9715 58.5373 41.6915C58.303 41.4115 58.2059 41.0572 58.2687 40.6972L58.623 38.6115C58.6573 38.4 58.5887 38.1829 58.4345 38.0343L56.9202 36.56C56.583 36.2343 56.463 35.7486 56.6116 35.3029C56.7545 34.8572 57.1373 34.5372 57.6002 34.4686L59.6916 34.1658C59.903 34.1372 60.0916 34 60.183 33.8058L61.1202 31.9086C61.3259 31.4858 61.7487 31.2229 62.2173 31.2229C62.6859 31.2229 63.1087 31.4858 63.3145 31.9086L64.2516 33.8058C64.3487 34 64.5316 34.1315 64.743 34.1658L66.8345 34.4686C67.2973 34.5372 67.6802 34.8572 67.823 35.3029C67.9659 35.7486 67.8516 36.2343 67.5145 36.56L66.0002 38.0343C65.8459 38.1829 65.7773 38.4 65.8116 38.6115L66.1659 40.6972C66.2287 41.0629 66.1316 41.4115 65.8973 41.6915C65.6802 41.9715 65.3373 42.1315 64.9773 42.1315Z" fill="#FF9D28"/>
<path d="M62.2287 31.5087C62.5659 31.5087 62.8973 31.6858 63.0745 32.0344L64.0116 33.9315C64.1487 34.2115 64.4116 34.4001 64.7202 34.4458L66.8116 34.7487C67.583 34.863 67.8916 35.8115 67.3316 36.3544L65.8173 37.8287C65.5945 38.0458 65.4973 38.3544 65.5487 38.663L65.9087 40.7487C66.0116 41.3544 65.5316 41.8515 64.983 41.8515C64.8402 41.8515 64.6916 41.8173 64.543 41.743L62.6745 40.7601C62.5373 40.6858 62.3887 40.6515 62.2345 40.6515C62.0859 40.6515 61.9316 40.6858 61.7945 40.7601L59.9259 41.743C59.783 41.8173 59.6345 41.8515 59.4859 41.8515C58.9373 41.8515 58.4573 41.3601 58.5602 40.7487L58.9202 38.663C58.9716 38.3601 58.8687 38.0458 58.6516 37.8287L57.1373 36.3544C56.5773 35.8115 56.8859 34.863 57.6573 34.7487L59.7487 34.4458C60.0573 34.4001 60.3202 34.2115 60.4573 33.9315L61.3945 32.0344C61.5602 31.6858 61.8973 31.5087 62.2287 31.5087ZM62.2287 30.9373C61.6516 30.9373 61.1316 31.263 60.8745 31.7773L59.9373 33.6744C59.8859 33.783 59.7773 33.8573 59.6573 33.8744L57.5659 34.1773C56.9945 34.263 56.5259 34.6573 56.343 35.2058C56.1602 35.7544 56.3087 36.3487 56.7259 36.7544L58.2402 38.2287C58.3259 38.3144 58.3659 38.4344 58.3487 38.5544L57.9945 40.6458C57.9202 41.0858 58.0402 41.5315 58.3259 41.8744C58.6173 42.2173 59.0402 42.4173 59.4859 42.4173C59.7316 42.4173 59.9659 42.3601 60.1887 42.2401L62.0573 41.2573C62.1087 41.2287 62.1716 41.2173 62.2287 41.2173C62.2859 41.2173 62.3487 41.2344 62.4002 41.2573L64.2687 42.2401C64.4916 42.3544 64.7259 42.4173 64.9716 42.4173C65.4173 42.4173 65.8402 42.2173 66.1316 41.8744C66.4173 41.5373 66.5373 41.0858 66.463 40.6458L66.103 38.5601C66.0802 38.4401 66.1202 38.3201 66.2116 38.2344L67.7259 36.7601C68.143 36.3544 68.2859 35.7601 68.1087 35.2115C67.9316 34.663 67.463 34.263 66.8859 34.183L64.7945 33.8801C64.6745 33.863 64.5716 33.7887 64.5145 33.6801L63.5773 31.783C63.3316 31.263 62.8116 30.9373 62.2287 30.9373Z" fill="#FF9D28"/>
<path d="M50.6859 42.1315C50.4859 42.1315 50.2973 42.0858 50.1145 41.9886L48.2459 41.0058C48.1545 40.9543 48.0459 40.9315 47.943 40.9315C47.8402 40.9315 47.7316 40.96 47.6402 41.0058L45.7659 41.9886C45.583 42.0858 45.3945 42.1315 45.1945 42.1315C44.8345 42.1315 44.4916 41.9715 44.2516 41.6915C44.0173 41.4115 43.9202 41.0572 43.983 40.6972L44.3373 38.6115C44.3716 38.4 44.303 38.1829 44.1488 38.0343L42.6345 36.56C42.2973 36.2343 42.1773 35.7486 42.3259 35.3029C42.4688 34.8572 42.8516 34.5372 43.3145 34.4686L45.4059 34.1658C45.6173 34.1372 45.8059 34 45.8973 33.8058L46.8345 31.9086C47.0402 31.4858 47.463 31.2229 47.9316 31.2229C48.4002 31.2229 48.823 31.4858 49.0288 31.9086L49.9659 33.8058C50.063 34 50.2459 34.1315 50.4573 34.1658L52.5488 34.4686C53.0116 34.5372 53.3945 34.8572 53.5373 35.3029C53.6802 35.7486 53.5659 36.2343 53.2288 36.56L51.7145 38.0343C51.5602 38.1829 51.4916 38.4 51.5259 38.6115L51.8859 40.6972C51.9488 41.0629 51.8516 41.4115 51.6173 41.6915C51.3888 41.9715 51.0459 42.1315 50.6859 42.1315Z" fill="#FF9D28"/>
<path d="M47.9373 31.5087C48.2745 31.5087 48.6059 31.6858 48.783 32.0344L49.7202 33.9315C49.8573 34.2115 50.1202 34.4001 50.4287 34.4458L52.5202 34.7487C53.2916 34.863 53.6002 35.8115 53.0402 36.3544L51.5259 37.8287C51.303 38.0458 51.2059 38.3544 51.2573 38.663L51.6173 40.7487C51.7202 41.3544 51.2402 41.8515 50.6916 41.8515C50.5487 41.8515 50.4002 41.8173 50.2516 41.743L48.383 40.7601C48.2459 40.6858 48.0973 40.6515 47.943 40.6515C47.7945 40.6515 47.6402 40.6858 47.503 40.7601L45.6345 41.743C45.4916 41.8173 45.343 41.8515 45.1945 41.8515C44.6459 41.8515 44.1659 41.3601 44.2687 40.7487L44.6287 38.663C44.6802 38.3601 44.5773 38.0458 44.3602 37.8287L42.8459 36.3544C42.2859 35.8115 42.5945 34.863 43.3659 34.7487L45.4573 34.4458C45.7659 34.4001 46.0287 34.2115 46.1659 33.9315L47.103 32.0344C47.2687 31.6858 47.6002 31.5087 47.9373 31.5087ZM47.9373 30.9373C47.3602 30.9373 46.8402 31.263 46.583 31.783L45.6459 33.6801C45.5945 33.7887 45.4859 33.863 45.3659 33.8801L43.2745 34.183C42.703 34.2687 42.2345 34.663 42.0516 35.2115C41.8745 35.7601 42.0173 36.3544 42.4345 36.7601L43.9487 38.2344C44.0345 38.3201 44.0745 38.4401 44.0573 38.5601L43.6973 40.6458C43.623 41.0858 43.743 41.5315 44.0287 41.8744C44.3202 42.2173 44.743 42.4173 45.1887 42.4173C45.4345 42.4173 45.6687 42.3601 45.8916 42.2401L47.7602 41.2573C47.8116 41.2287 47.8745 41.2173 47.9316 41.2173C47.9887 41.2173 48.0516 41.2344 48.103 41.2573L49.9716 42.2401C50.1945 42.3544 50.4287 42.4173 50.6745 42.4173C51.1202 42.4173 51.543 42.2173 51.8345 41.8744C52.1202 41.5373 52.2402 41.0858 52.1659 40.6458L51.8116 38.5601C51.7887 38.4401 51.8287 38.3201 51.9202 38.2344L53.4345 36.7601C53.8516 36.3544 53.9945 35.7601 53.8173 35.2115C53.6402 34.663 53.1716 34.2687 52.5945 34.183L50.503 33.8801C50.383 33.863 50.2802 33.7887 50.223 33.6801L49.2859 31.783C49.0345 31.263 48.5145 30.9373 47.9373 30.9373Z" fill="#FF9D28"/>
<path d="M116.492 9.88574V42.1143" stroke="#68C5ED" stroke-width="0.4078" stroke-miterlimit="10" stroke-linecap="round"/>
</g>
<defs>
<clipPath id="clip0_2096_146766">
<rect width="158.857" height="52" fill="white" transform="translate(0.280151)"/>
</clipPath>
</defs>
</svg>
