<svg width="130" height="34" viewBox="0 0 130 34" fill="none" xmlns="http://www.w3.org/2000/svg">
<path d="M19.8363 16.3102C19.8502 15.232 20.1366 14.1748 20.6689 13.237C21.2011 12.2991 21.962 11.5112 22.8806 10.9464C22.297 10.113 21.5271 9.42711 20.6321 8.94325C19.7371 8.45939 18.7416 8.19089 17.7247 8.15907C15.5554 7.93137 13.4523 9.45715 12.3469 9.45715C11.22 9.45715 9.51804 8.18168 7.68528 8.21939C6.49979 8.25769 5.34444 8.60242 4.3318 9.21999C3.31916 9.83756 2.48376 10.7069 1.90699 11.7433C-0.591418 16.069 1.27217 22.4262 3.66544 25.9227C4.86285 27.6348 6.26227 29.5473 8.09338 29.4795C9.88524 29.4051 10.5545 28.3369 12.7174 28.3369C14.8602 28.3369 15.4881 29.4795 17.3564 29.4363C19.2791 29.4051 20.4905 27.7166 21.6459 25.9883C22.5063 24.7683 23.1683 23.42 23.6075 21.9932C22.4904 21.5208 21.5371 20.7299 20.8665 19.7193C20.1959 18.7087 19.8376 17.5231 19.8363 16.3102Z" fill="white"/>
<path d="M16.3074 5.8596C17.3558 4.60108 17.8723 2.98347 17.7472 1.35029C16.1455 1.51851 14.6661 2.284 13.6035 3.49423C13.084 4.08546 12.6861 4.77328 12.4326 5.51838C12.1791 6.26347 12.0749 7.05122 12.126 7.8366C12.9272 7.84485 13.7197 7.67121 14.444 7.32876C15.1683 6.98631 15.8054 6.48398 16.3074 5.8596Z" fill="white"/>
<path d="M42.4866 25.1452H36.3718L34.9033 29.4812H32.3134L38.1052 13.4392H40.7961L46.5879 29.4812H43.9537L42.4866 25.1452ZM37.0051 23.1444H41.8521L39.4627 16.1074H39.3958L37.0051 23.1444Z" fill="white"/>
<path d="M59.0962 23.6338C59.0962 27.2684 57.1509 29.6035 54.2152 29.6035C53.4716 29.6424 52.732 29.4711 52.0812 29.1092C51.4304 28.7473 50.8946 28.2095 50.5353 27.5572H50.4797V33.3503H48.079V17.7852H50.4028V19.7305H50.447C50.8228 19.0814 51.3676 18.5464 52.0234 18.1823C52.6792 17.8182 53.4214 17.6387 54.1711 17.6628C57.1395 17.6628 59.0962 20.0093 59.0962 23.6338ZM56.6286 23.6338C56.6286 21.2659 55.4049 19.7091 53.5378 19.7091C51.7035 19.7091 50.4697 21.2987 50.4697 23.6338C50.4697 25.9904 51.7035 27.5686 53.5378 27.5686C55.4049 27.5686 56.6286 26.0232 56.6286 23.6338Z" fill="white"/>
<path d="M71.9691 23.6338C71.9691 27.2683 70.0238 29.6035 67.0882 29.6035C66.3445 29.6424 65.6049 29.4711 64.9541 29.1092C64.3033 28.7473 63.7675 28.2094 63.4082 27.5572H63.3527V33.3503H60.9519V17.7852H63.2757V19.7305H63.3198C63.6957 19.0814 64.2405 18.5464 64.8963 18.1823C65.5521 17.8182 66.2943 17.6387 67.044 17.6628C70.0125 17.6628 71.9691 20.0093 71.9691 23.6338ZM69.5015 23.6338C69.5015 21.2659 68.2778 19.7091 66.4107 19.7091C64.5764 19.7091 63.3426 21.2986 63.3426 23.6338C63.3426 25.9904 64.5764 27.5686 66.4107 27.5686C68.2778 27.5686 69.5015 26.0232 69.5015 23.6338H69.5015Z" fill="white"/>
<path d="M80.4772 25.0115C80.6551 26.6024 82.2005 27.6469 84.3124 27.6469C86.3359 27.6469 87.7917 26.6023 87.7917 25.1679C87.7917 23.9227 86.9137 23.1772 84.8346 22.6662L82.7556 22.1654C79.8099 21.4539 78.4423 20.0762 78.4423 17.8408C78.4423 15.0729 80.8544 13.1717 84.2796 13.1717C87.6693 13.1717 89.9931 15.0729 90.0714 17.8408H87.6479C87.5028 16.2398 86.1794 15.2735 84.2455 15.2735C82.3115 15.2735 80.9881 16.2512 80.9881 17.6742C80.9881 18.8084 81.8334 19.4758 83.9011 19.9866L85.6685 20.4206C88.9599 21.199 90.3274 22.5211 90.3274 24.8676C90.3274 27.8689 87.9368 29.7486 84.1344 29.7486C80.5768 29.7486 78.1748 27.913 78.0197 25.0114L80.4772 25.0115Z" fill="white"/>
<path d="M95.5087 15.0174V17.7853H97.7328V19.6864H95.5087V26.1343C95.5087 27.1359 95.954 27.6027 96.9317 27.6027C97.1957 27.5981 97.4594 27.5796 97.7214 27.5472V29.437C97.2819 29.5191 96.8351 29.5563 96.388 29.548C94.02 29.548 93.0966 28.6586 93.0966 26.3903V19.6864H91.396V17.7853H93.0965V15.0174H95.5087Z" fill="white"/>
<path d="M99.0209 23.6338C99.0209 19.9539 101.188 17.6414 104.568 17.6414C107.959 17.6414 110.116 19.9538 110.116 23.6338C110.116 27.3239 107.97 29.6262 104.568 29.6262C101.167 29.6262 99.0209 27.3239 99.0209 23.6338ZM107.67 23.6338C107.67 21.1095 106.513 19.6196 104.568 19.6196C102.623 19.6196 101.467 21.1208 101.467 23.6338C101.467 26.1683 102.623 27.6469 104.568 27.6469C106.513 27.6469 107.67 26.1683 107.67 23.6338H107.67Z" fill="white"/>
<path d="M112.096 17.7854H114.385V19.7761H114.441C114.596 19.1544 114.96 18.6049 115.472 18.2201C115.985 17.8353 116.614 17.6386 117.254 17.663C117.531 17.6621 117.807 17.6921 118.077 17.7526V19.9982C117.727 19.8915 117.363 19.8424 116.998 19.8531C116.649 19.839 116.302 19.9005 115.979 20.0334C115.656 20.1663 115.366 20.3675 115.128 20.6231C114.891 20.8787 114.711 21.1828 114.602 21.5144C114.493 21.8459 114.457 22.1972 114.496 22.544V29.4813H112.096L112.096 17.7854Z" fill="white"/>
<path d="M129.146 26.0459C128.823 28.1691 126.755 29.6262 124.109 29.6262C120.707 29.6262 118.595 27.3466 118.595 23.6893C118.595 20.0207 120.718 17.6414 124.009 17.6414C127.244 17.6414 129.279 19.8643 129.279 23.4105V24.2331H121.019V24.3782C120.981 24.8086 121.034 25.2422 121.177 25.6502C121.319 26.0583 121.547 26.4313 121.844 26.7446C122.142 27.058 122.503 27.3044 122.903 27.4676C123.303 27.6307 123.733 27.7069 124.165 27.691C124.732 27.7442 125.302 27.6128 125.788 27.3164C126.275 27.02 126.653 26.5744 126.866 26.0459L129.146 26.0459ZM121.03 22.5552H126.877C126.899 22.1682 126.84 21.7809 126.705 21.4176C126.57 21.0543 126.361 20.7229 126.092 20.4442C125.822 20.1654 125.498 19.9454 125.14 19.7978C124.781 19.6503 124.396 19.5784 124.009 19.5868C123.618 19.5844 123.23 19.6595 122.868 19.8078C122.507 19.956 122.178 20.1744 121.901 20.4504C121.624 20.7264 121.404 21.0545 121.255 21.4157C121.105 21.777 121.029 22.1643 121.03 22.5552V22.5552Z" fill="white"/>
<path d="M25.2378 4.34638C25.2378 2.41132 26.2671 1.21601 27.9253 1.21601C28.5229 1.18641 29.1099 1.38263 29.5696 1.7657C30.0292 2.14877 30.3281 2.6907 30.4067 3.28388H29.4839C29.4065 2.93235 29.208 2.6192 28.923 2.39919C28.6381 2.17918 28.285 2.0663 27.9253 2.08027C26.854 2.08027 26.1841 2.95283 26.1841 4.34638C26.1841 5.73603 26.854 6.6081 27.9292 6.6081C28.2757 6.63404 28.6205 6.53846 28.9042 6.33779C29.1879 6.13712 29.3929 5.84389 29.4839 5.50849H30.4067C30.3167 6.08756 30.0117 6.61138 29.5524 6.97541C29.0932 7.33944 28.5135 7.5169 27.9292 7.47236C26.271 7.47236 25.2378 6.27753 25.2378 4.34638Z" fill="white"/>
<path d="M31.4204 5.07442C31.3921 4.7785 31.426 4.47993 31.5198 4.19786C31.6137 3.91579 31.7654 3.65645 31.9654 3.43647C32.1653 3.21648 32.409 3.04072 32.6809 2.92044C32.9527 2.80017 33.2467 2.73804 33.544 2.73804C33.8412 2.73804 34.1352 2.80017 34.4071 2.92044C34.6789 3.04072 34.9227 3.21648 35.1226 3.43647C35.3225 3.65645 35.4743 3.91579 35.5681 4.19786C35.662 4.47993 35.6958 4.7785 35.6675 5.07442C35.6964 5.37064 35.6629 5.66962 35.5693 5.95214C35.4757 6.23467 35.3241 6.49449 35.1241 6.7149C34.9241 6.93532 34.6802 7.11145 34.4081 7.23198C34.1359 7.35252 33.8416 7.41479 33.544 7.41479C33.2464 7.41479 32.952 7.35252 32.6799 7.23198C32.4078 7.11145 32.1639 6.93532 31.9639 6.7149C31.7639 6.49449 31.6122 6.23467 31.5186 5.95214C31.425 5.66962 31.3916 5.37064 31.4204 5.07442ZM34.7534 5.07442C34.7534 4.09835 34.315 3.52755 33.5454 3.52755C32.773 3.52755 32.3384 4.09835 32.3384 5.07443C32.3384 6.05832 32.773 6.62472 33.5454 6.62472C34.315 6.62471 34.7535 6.0544 34.7535 5.07442H34.7534Z" fill="white"/>
<path d="M36.8599 2.82489H37.7153V3.54022H37.7817C37.8944 3.2833 38.0844 3.06793 38.3253 2.92412C38.5661 2.78032 38.8459 2.71524 39.1255 2.73797C39.3446 2.7215 39.5646 2.75453 39.7692 2.83463C39.9738 2.91473 40.1577 3.03983 40.3074 3.20067C40.4571 3.36152 40.5687 3.55398 40.6339 3.7638C40.6991 3.97362 40.7162 4.19542 40.6841 4.41277V7.32777H39.7954V4.63593C39.7954 3.9123 39.481 3.55243 38.8237 3.55243C38.675 3.5455 38.5265 3.57082 38.3884 3.62665C38.2504 3.68248 38.126 3.7675 38.0239 3.87589C37.9218 3.98427 37.8443 4.11346 37.7968 4.25459C37.7492 4.39572 37.7328 4.54546 37.7485 4.69354V7.32782H36.8599V2.82489Z" fill="white"/>
<path d="M43.7046 2.73798C44.7173 2.73798 45.3794 3.20917 45.4663 4.00312H44.6138C44.5318 3.67255 44.2085 3.46162 43.7046 3.46162C43.2085 3.46162 42.8316 3.69697 42.8316 4.04853C42.8316 4.31753 43.0591 4.48701 43.5474 4.59882L44.2954 4.77216C45.1519 4.97089 45.5532 5.33905 45.5532 6.00068C45.5532 6.84834 44.7632 7.41474 43.688 7.41474C42.6167 7.41474 41.9185 6.93085 41.8394 6.133H42.729C42.8057 6.3229 42.9439 6.48153 43.1216 6.58345C43.2992 6.68536 43.5059 6.72465 43.7085 6.695C44.2622 6.695 44.6558 6.447 44.6558 6.08709C44.6558 5.81854 44.4449 5.64471 43.9937 5.53729L43.2085 5.35516C42.3521 5.15252 41.9556 4.76825 41.9556 4.09832C41.9556 3.29999 42.687 2.73798 43.7046 2.73798Z" fill="white"/>
<path d="M46.6753 2.07196L47.7134 0.649605H48.7554L47.5933 2.07196H46.6753ZM46.7671 2.82489H47.6519V7.32782H46.7671V2.82489Z" fill="white"/>
<path d="M49.0356 7.77851H49.9448C50.02 8.10517 50.396 8.31611 50.9956 8.31611C51.7358 8.31611 52.1743 7.96455 52.1743 7.36933V6.50507H52.1079C51.9685 6.747 51.765 6.94568 51.5197 7.07916C51.2745 7.21264 50.9971 7.27572 50.7183 7.26142C49.5688 7.26142 48.8579 6.37275 48.8579 5.0246C48.8579 3.6516 49.5767 2.75019 50.7271 2.75019C51.0129 2.74024 51.2959 2.80903 51.5453 2.94905C51.7947 3.08907 52.0008 3.29493 52.1411 3.54414H52.2114V2.8249H53.063V7.3649C53.063 8.39469 52.2563 9.04801 50.9829 9.04801C49.8579 9.04807 49.1304 8.54364 49.0356 7.77851ZM52.1909 5.02021C52.1909 4.12321 51.727 3.54853 50.9702 3.54853C50.2056 3.54853 49.7759 4.12324 49.7759 5.02021C49.7759 5.91767 50.2056 6.49238 50.9702 6.49238C51.7319 6.49237 52.1909 5.92207 52.1909 5.02021Z" fill="white"/>
<path d="M58.2754 7.32782H57.419V6.61249H57.3487C57.2348 6.87208 57.0422 7.08926 56.798 7.23325C56.5539 7.37724 56.2706 7.44074 55.9883 7.41474C55.7705 7.4302 55.552 7.3967 55.3489 7.31669C55.1457 7.23668 54.963 7.1122 54.8143 6.95237C54.6655 6.79255 54.5544 6.60144 54.4891 6.39308C54.4238 6.18472 54.4061 5.96438 54.4371 5.74824V2.82489H55.3272V5.51678C55.3272 6.24432 55.6202 6.59198 56.2735 6.59198C56.425 6.60636 56.5777 6.58674 56.7207 6.53455C56.8636 6.48237 56.9931 6.39894 57.0997 6.29035C57.2062 6.18175 57.2872 6.05074 57.3367 5.90686C57.3862 5.76298 57.403 5.60986 57.3858 5.45868V2.82489H58.2754V7.32782Z" fill="white"/>
<path d="M63.4991 6.11201C63.3783 6.52355 63.1167 6.87953 62.76 7.11768C62.4033 7.35583 61.9743 7.46098 61.5479 7.41474C61.2512 7.42257 60.9564 7.36575 60.6839 7.24822C60.4114 7.13069 60.1677 6.95527 59.9698 6.73413C59.7719 6.51299 59.6245 6.25143 59.5378 5.96761C59.4511 5.68378 59.4272 5.3845 59.4678 5.09052C59.4283 4.79563 59.4526 4.4957 59.5391 4.21103C59.6256 3.92635 59.7722 3.66359 59.9691 3.44051C60.166 3.21744 60.4085 3.03927 60.6802 2.91806C60.9519 2.79685 61.2465 2.73544 61.544 2.73798C62.7969 2.73798 63.5528 3.59398 63.5528 5.00798V5.31808H60.3731V5.36788C60.3591 5.53312 60.3799 5.69945 60.434 5.8562C60.4882 6.01295 60.5744 6.15666 60.6873 6.27812C60.8003 6.39957 60.9373 6.49609 61.0897 6.56149C61.2421 6.62689 61.4065 6.65972 61.5723 6.65788C61.7849 6.68339 62.0002 6.64512 62.191 6.54791C62.3817 6.4507 62.5393 6.29896 62.6436 6.11198L63.4991 6.11201ZM60.3731 4.66084H62.6475C62.6587 4.50971 62.6381 4.35791 62.5872 4.21519C62.5362 4.07247 62.456 3.94199 62.3516 3.83213C62.2472 3.72228 62.121 3.63547 61.9811 3.5773C61.8411 3.51912 61.6906 3.49086 61.5391 3.49434C61.3854 3.4924 61.2328 3.52126 61.0905 3.5792C60.9481 3.63714 60.8188 3.723 60.7101 3.83172C60.6014 3.94043 60.5156 4.0698 60.4577 4.2122C60.3999 4.35459 60.3711 4.50714 60.3731 4.66084Z" fill="white"/>
<path d="M64.7871 1.06707H65.6758V7.32781H64.7871V1.06707Z" fill="white"/>
<path d="M66.9112 5.07442C66.8829 4.7785 66.9167 4.47993 67.0105 4.19786C67.1044 3.91579 67.2561 3.65645 67.4561 3.43647C67.656 3.21648 67.8997 3.04072 68.1716 2.92044C68.4434 2.80017 68.7374 2.73804 69.0347 2.73804C69.332 2.73804 69.626 2.80017 69.8978 2.92044C70.1697 3.04072 70.4134 3.21648 70.6133 3.43647C70.8133 3.65645 70.965 3.91579 71.0589 4.19786C71.1527 4.47993 71.1865 4.7785 71.1582 5.07442C71.1871 5.37064 71.1536 5.66962 71.06 5.95214C70.9665 6.23467 70.8148 6.49449 70.6148 6.7149C70.4148 6.93532 70.1709 7.11145 69.8988 7.23198C69.6267 7.35252 69.3323 7.41479 69.0347 7.41479C68.7371 7.41479 68.4428 7.35252 68.1706 7.23198C67.8985 7.11145 67.6546 6.93532 67.4546 6.7149C67.2546 6.49449 67.103 6.23467 67.0094 5.95214C66.9158 5.66962 66.8823 5.37064 66.9112 5.07442ZM70.2442 5.07442C70.2442 4.09835 69.8057 3.52755 69.0362 3.52755C68.2637 3.52755 67.8292 4.09835 67.8292 5.07443C67.8292 6.05832 68.2637 6.62472 69.0362 6.62472C69.8057 6.62471 70.2442 6.0544 70.2442 5.07442H70.2442Z" fill="white"/>
<path d="M78.6016 6.11201C78.4809 6.52355 78.2193 6.87953 77.8626 7.11768C77.5059 7.35583 77.0768 7.46098 76.6504 7.41474C76.3538 7.42257 76.059 7.36575 75.7865 7.24822C75.514 7.13069 75.2703 6.95527 75.0724 6.73413C74.8745 6.51299 74.727 6.25143 74.6404 5.96761C74.5537 5.68378 74.5298 5.3845 74.5704 5.09052C74.5308 4.79563 74.5552 4.4957 74.6416 4.21103C74.7281 3.92635 74.8748 3.66359 75.0716 3.44051C75.2685 3.21744 75.511 3.03927 75.7827 2.91806C76.0544 2.79685 76.349 2.73544 76.6465 2.73798C77.8995 2.73798 78.6553 3.59398 78.6553 5.00798V5.31808H75.4756V5.36788C75.4617 5.53312 75.4825 5.69945 75.5366 5.8562C75.5907 6.01295 75.677 6.15666 75.7899 6.27812C75.9028 6.39957 76.0399 6.49609 76.1923 6.56149C76.3447 6.62689 76.509 6.65972 76.6749 6.65788C76.8874 6.68339 77.1028 6.64512 77.2935 6.54791C77.4843 6.4507 77.6419 6.29896 77.7461 6.11198L78.6016 6.11201ZM75.4756 4.66084H77.7501C77.7613 4.50971 77.7407 4.35791 77.6898 4.21519C77.6388 4.07247 77.5586 3.94199 77.4542 3.83213C77.3498 3.72228 77.2236 3.63547 77.0837 3.5773C76.9437 3.51912 76.7932 3.49086 76.6417 3.49434C76.488 3.4924 76.3354 3.52125 76.1931 3.57919C76.0507 3.63713 75.9213 3.72299 75.8127 3.8317C75.704 3.94042 75.6182 4.06979 75.5603 4.21219C75.5024 4.35459 75.4736 4.50713 75.4756 4.66084H75.4756Z" fill="white"/>
<path d="M79.8486 2.82489H80.7041V3.54022H80.7705C80.8832 3.2833 81.0732 3.06793 81.314 2.92412C81.5549 2.78032 81.8347 2.71524 82.1143 2.73797C82.3334 2.7215 82.5534 2.75453 82.758 2.83463C82.9626 2.91473 83.1465 3.03983 83.2962 3.20067C83.4459 3.36152 83.5575 3.55398 83.6227 3.7638C83.6879 3.97362 83.705 4.19542 83.6729 4.41277V7.32777H82.7842V4.63593C82.7842 3.9123 82.4697 3.55243 81.8125 3.55243C81.6637 3.5455 81.5152 3.57082 81.3772 3.62665C81.2391 3.68248 81.1148 3.7675 81.0127 3.87589C80.9105 3.98427 80.833 4.11346 80.7855 4.25459C80.738 4.39572 80.7215 4.54546 80.7373 4.69354V7.32782H79.8486V2.82489Z" fill="white"/>
<path d="M91.2978 6.11201C91.1771 6.52355 90.9155 6.87953 90.5588 7.11768C90.2021 7.35583 89.773 7.46098 89.3467 7.41474C89.05 7.42257 88.7552 7.36575 88.4827 7.24822C88.2102 7.13069 87.9665 6.95527 87.7686 6.73413C87.5707 6.51299 87.4233 6.25143 87.3366 5.96761C87.2499 5.68378 87.226 5.3845 87.2666 5.09052C87.2271 4.79563 87.2514 4.4957 87.3379 4.21103C87.4244 3.92635 87.571 3.66359 87.7679 3.44051C87.9647 3.21744 88.2072 3.03927 88.479 2.91806C88.7507 2.79685 89.0452 2.73544 89.3428 2.73798C90.5957 2.73798 91.3515 3.59398 91.3515 5.00798V5.31808H88.1719V5.36788C88.1579 5.53312 88.1787 5.69945 88.2328 5.8562C88.287 6.01295 88.3732 6.15666 88.4862 6.27812C88.5991 6.39957 88.7361 6.49609 88.8885 6.56149C89.0409 6.62689 89.2053 6.65972 89.3711 6.65788C89.5837 6.68339 89.799 6.64512 89.9898 6.54791C90.1805 6.4507 90.3381 6.29896 90.4424 6.11198L91.2978 6.11201ZM88.1718 4.66084H90.4462C90.4574 4.50971 90.4369 4.35791 90.3859 4.21519C90.335 4.07247 90.2547 3.94199 90.1504 3.83213C90.046 3.72228 89.9198 3.63547 89.7798 3.5773C89.6399 3.51912 89.4893 3.49086 89.3378 3.49434C89.1841 3.49241 89.0316 3.52126 88.8892 3.57921C88.7469 3.63715 88.6175 3.72301 88.5089 3.83173C88.4002 3.94044 88.3144 4.06981 88.2565 4.2122C88.1987 4.3546 88.1699 4.50714 88.1719 4.66084H88.1718Z" fill="white"/>
<path d="M92.5859 1.06707H93.4746V7.32781H92.5859V1.06707Z" fill="white"/>
</svg>
