<svg width="640" height="354" viewBox="0 0 640 354" fill="none" xmlns="http://www.w3.org/2000/svg">
<g clip-path="url(#clip0_36_1980)">
<path opacity="0.1" d="M524.137 110.888C523.973 49.5247 473.662 0.0455924 411.599 0.211204C373.683 0.312384 340.343 19.053 320.046 47.6442C299.597 19.1618 266.158 0.59931 228.241 0.700489C166.178 0.866101 116.132 50.613 116.296 111.976C116.39 147.041 142.921 192.667 161.48 219.476C199.543 274.396 320.511 363.228 320.511 363.228C320.511 363.228 441.183 270.581 478.976 224.224C504.36 193.008 524.422 147.258 524.326 111.074L524.137 110.888Z" fill="#FF6F3D"/>
<path d="M434.53 320.741C422.45 320.741 412.7 315.901 409.66 311.351C408.47 309.571 408.16 307.951 408.75 306.531C410.05 303.421 415.18 302.441 422.28 301.071C435.5 298.531 453.59 295.061 455.69 276.731C458.01 256.441 452.85 244.871 447.87 233.691C442.15 220.861 436.74 208.741 444.43 185.791L445.68 182.041C454.72 155.011 458.46 143.821 475.18 128.311C486.63 117.691 501.01 111.601 514.65 111.601C528.99 111.601 542.42 117.941 554.58 130.461C554.8 130.691 575.14 155.521 553.14 181.111C549.68 185.131 542.87 189.191 535.43 189.191C528.24 189.191 522.3 185.281 518.69 178.191C513.74 168.471 518.66 161.901 521.92 157.551C522.92 156.211 524.16 154.551 524.05 153.941C524.03 153.831 523.86 153.661 523.6 153.491C520.2 151.311 516.48 150.211 512.57 150.211C498.78 150.211 479.4 164.951 470.16 206.501C468.96 211.881 471.69 219.111 474.84 227.471C480.94 243.661 489.3 265.841 475.95 292.741C463.85 317.101 444.81 320.741 434.53 320.741Z" fill="#A47FB8"/>
<path d="M514.65 113.111C527 113.111 540.43 118.061 553.5 131.511C555.02 133.071 572.47 156.321 552 180.131C548.51 184.191 541.99 187.681 535.42 187.681C529.63 187.681 523.81 184.961 520.02 177.501C512.46 162.651 530.08 155.841 524.4 152.211C520.76 149.891 516.74 148.691 512.56 148.691C496.28 148.691 477.46 166.711 468.69 206.151C464.97 222.881 494.62 251.691 474.6 292.051C464.3 312.811 448.12 319.231 434.53 319.231C423.27 319.231 413.79 314.821 410.9 310.511C402.44 297.861 453.47 309.351 457.18 276.901C462.26 232.461 431.8 228.191 445.85 186.261C455.89 156.291 459.03 145.341 476.2 129.401C485.41 120.871 499.18 113.111 514.65 113.111ZM514.65 110.111C500.64 110.111 485.88 116.351 474.16 127.221C457.16 142.991 453.38 154.291 444.26 181.581L443.01 185.331C435.13 208.831 440.66 221.211 446.5 234.321C451.41 245.321 456.48 256.691 454.2 276.581C452.23 293.811 434.75 297.171 422 299.621C414.44 301.071 408.98 302.121 407.37 305.971C406.57 307.881 406.92 309.981 408.41 312.201C412.31 318.021 423.29 322.251 434.53 322.251C445.15 322.251 464.83 318.501 477.28 293.401C490.92 265.911 482.43 243.381 476.23 226.931C473.16 218.791 470.51 211.761 471.61 206.811C475.58 188.961 481.97 174.351 490.11 164.551C497 156.261 504.97 151.691 512.56 151.691C515.99 151.691 519.26 152.611 522.28 154.421C521.9 155.051 521.24 155.931 520.71 156.631C517.44 160.991 511.98 168.301 517.35 178.851C521.23 186.471 527.65 190.671 535.43 190.671C543.35 190.671 550.6 186.351 554.28 182.071C565.76 168.711 565.86 155.521 563.93 146.811C561.83 137.341 556.79 130.571 555.66 129.401C543.21 116.601 529.42 110.111 514.65 110.111Z" fill="#512A75"/>
<path d="M522.62 151.201C526.36 141.561 533.18 132.741 547.44 125.891C538.47 118.451 529.44 114.701 520.81 113.531C513.18 123.101 510.4 134.941 511.78 148.721C514.77 148.291 521.48 150.601 522.62 151.201Z" fill="#7E499B"/>
<path d="M522.71 158.991C534.38 148.931 549.44 151.111 561.67 159.201C563.3 144.701 555.14 133.371 553.64 131.651C544.45 133.671 534.07 141.891 523.4 151.621C525.86 151.121 524.9 158.281 522.71 158.991Z" fill="#7E499B"/>
<path d="M502.76 150.831C499.66 137.131 499.48 124.611 504.49 114.211C493.21 116.651 483.34 122.801 476.2 129.411C478.91 140.071 486.08 148.301 494.82 155.671C497.44 153.581 500.1 151.971 502.76 150.831Z" fill="#7E499B"/>
<path d="M519.02 165.281C517.78 168.601 517.54 172.621 520.03 177.511C528.13 193.431 545.45 187.771 552.01 180.131C554.16 177.631 555.89 175.131 557.27 172.661C552.75 164.931 525.63 155.081 519.02 165.281Z" fill="#7E499B"/>
<path d="M488.18 162.211L466.39 139.831C461.08 146.511 457.62 153.301 454.14 162.341C462.65 165.041 471.48 168.441 480.81 172.891C483.14 168.801 485.61 165.241 488.18 162.211Z" fill="#7E499B"/>
<path d="M472.81 191.231C465.81 185.061 457.29 181.911 447.55 181.231C447.01 182.851 446.45 184.531 445.86 186.271C443.16 194.321 442.11 200.981 442.13 206.801C449.42 202.971 458.36 202.421 468.94 205.121C470.08 200.151 471.37 195.511 472.81 191.231Z" fill="#7E499B"/>
<path d="M480.45 250.981C470.6 249.621 463.29 251.711 456.68 254.781C457.37 258.531 457.77 262.641 457.77 267.221C467.41 266.311 475.29 268.571 480.26 276.121C482.19 267.051 481.86 258.661 480.45 250.981Z" fill="#7E499B"/>
<path d="M451.33 290.411C458.56 291.451 462.55 297.381 464.21 306.851C468.04 303.021 471.57 298.171 474.6 292.071C475.79 289.681 476.8 287.331 477.65 285.021C470.95 280.201 464.13 277.421 457.18 276.921C456.53 282.671 454.38 287.041 451.33 290.411Z" fill="#7E499B"/>
<path d="M410.91 310.52C415.37 317.19 435.62 324.09 453.82 314.54C453.9 307.48 450.42 301.57 440.62 297.69C425.15 304.28 405.39 302.28 410.91 310.52Z" fill="#7E499B"/>
<path d="M470.48 219.831C461.71 217.001 453.08 217.931 444.54 221.451C447.04 229.161 450.97 236.021 453.9 244.411C460.69 240.021 468.65 238.691 477.86 240.581C475.47 232.801 472.47 225.881 470.48 219.831Z" fill="#7E499B"/>
<path d="M317.16 219.601C314.71 219.991 311.53 222.961 311.55 228.871C311.57 240.381 317.45 246.781 317.45 246.781C327.61 255.671 342.48 258.581 353.94 258.471C358.02 258.431 359.82 258.191 360.07 256.171C361.63 243.761 349.01 254.141 333.94 239.981C333.94 239.981 330.04 236.291 324.15 225.141C321.93 220.951 321.62 218.891 317.16 219.601Z" fill="#A47FB8"/>
<path d="M317.1 219.291C314.65 219.681 311.47 222.651 311.49 228.561C311.51 240.071 317.39 246.471 317.39 246.471C327.55 255.361 342.42 258.271 353.88 258.161C357.96 258.121 359.76 257.881 360.01 255.861C361.57 243.451 348.95 253.831 333.88 239.671C333.88 239.671 329.98 235.981 324.09 224.831C321.88 220.641 321.56 218.591 317.1 219.291Z" stroke="#512A75" stroke-width="3" stroke-miterlimit="10" stroke-linecap="round" stroke-linejoin="round"/>
<path opacity="0.3" d="M315.11 220.471C312.39 222.471 312.17 223.591 311.68 226.841C310.16 236.821 317.45 246.771 317.45 246.771C327.61 255.661 345.84 260.221 355.68 258.421C361.89 257.291 360.12 253.231 358.26 253.241C352.09 253.271 332.92 253.311 318.57 242.181C318.57 242.181 307.78 220.991 322.15 221.131C322.13 221.131 318.35 218.091 315.11 220.471Z" fill="#612D8F"/>
<path d="M366.824 265.963C370.143 259.201 369.232 251.951 364.79 249.771C360.348 247.591 354.056 251.305 350.737 258.068C347.418 264.83 348.328 272.08 352.77 274.26C357.213 276.441 363.505 272.726 366.824 265.963Z" fill="#A02525" stroke="#512A75" stroke-width="3" stroke-miterlimit="10"/>
<path d="M316.06 218.181C316.95 220.951 316.39 225.261 317.89 224.831C319.39 224.401 320.74 217.511 319.85 214.741C318.96 211.971 316.99 209.941 315.53 210.501C313.07 211.441 315.17 215.411 316.06 218.181Z" fill="#6A3D89" stroke="#512A75" stroke-width="2" stroke-miterlimit="10"/>
<path d="M318.05 217.061C318.32 220.001 316.53 224.031 318.35 224.031C320.17 224.021 323.54 217.701 323.28 214.761C323.01 211.821 321.31 209.311 319.5 209.451C316.45 209.691 317.78 214.121 318.05 217.061Z" fill="#6A3D89" stroke="#512A75" stroke-width="2" stroke-miterlimit="10"/>
<path d="M312.36 231.291C311.45 230.591 304.55 230.891 305.81 227.221C307.43 222.501 312.23 230.451 315.96 226.871C316.3 226.541 318.91 224.801 319 224.291C320.03 219.021 316.26 211.451 321.47 212.851C322.29 213.071 324.15 213.871 324.58 217.311C324.95 220.311 323.96 222.541 323.99 223.081C324.13 225.261 324.11 230.051 321.27 233.601C318.43 237.161 314.79 233.161 312.36 231.291Z" fill="#7E499B" stroke="#512A75" stroke-width="3" stroke-miterlimit="10"/>
<path d="M313 222.311C322.251 222.311 329.75 214.812 329.75 205.561C329.75 196.311 322.251 188.811 313 188.811C303.749 188.811 296.25 196.311 296.25 205.561C296.25 214.812 303.749 222.311 313 222.311Z" fill="#FF5B00" stroke="#CE0000" stroke-width="2" stroke-miterlimit="10"/>
<path d="M302.07 198.121C289.35 195.301 276.85 193.241 265.16 193.901C263.99 186.521 266.33 180.801 273.11 177.171C283.4 179.491 292.85 188.011 302.07 198.121Z" fill="#FF5B00" stroke="#CE0000" stroke-width="2" stroke-miterlimit="10"/>
<path d="M301.38 202.291C292.23 211.561 283.84 221.051 278.19 231.311C271.32 228.371 267.71 223.361 268.25 215.681C275.68 208.201 287.91 204.731 301.38 202.291Z" fill="#FF5B00" stroke="#CE0000" stroke-width="2" stroke-miterlimit="10"/>
<path d="M306.22 211.571C304.71 222.451 303.93 233.081 305.78 242.821C298.56 244.401 292.63 242.911 288.33 237.521C289.59 228.721 297.1 220.121 306.22 211.571Z" fill="#FF5B00" stroke="#CE0000" stroke-width="2" stroke-miterlimit="10"/>
<path d="M310.92 195.631C304.12 187.001 297 179.071 288.69 173.661C292.56 167.361 297.74 164.111 304.6 164.751C310.08 171.751 311.07 183.121 310.92 195.631Z" fill="#FF5B00" stroke="#CE0000" stroke-width="2" stroke-miterlimit="10"/>
<path d="M315.87 199.591C318.94 190.811 321.25 182.121 320.84 173.701C328.17 173.671 333.8 175.951 337.24 181.191C334.73 188.281 326.09 194.101 315.87 199.591Z" fill="#FF5B00" stroke="#CE0000" stroke-width="2" stroke-miterlimit="10"/>
<path d="M315.45 203.391C322.76 197.651 329.39 191.561 333.58 184.251C339.78 188.171 343.29 193.131 343.37 199.391C337.43 204.021 327.02 204.271 315.45 203.391Z" fill="#FF5B00" stroke="#CE0000" stroke-width="2" stroke-miterlimit="10"/>
<path d="M316.16 211.001C325.14 213.401 333.99 215.041 342.36 213.991C342.95 221.301 341.1 227.081 336.14 230.911C328.87 228.941 322.41 220.771 316.16 211.001Z" fill="#FF5B00" stroke="#CE0000" stroke-width="2" stroke-miterlimit="10"/>
<path d="M311.04 202.641C299.39 195.121 287.64 188.551 275.55 185.371C277.5 176.521 282.28 170.751 290.67 168.881C300.08 175.001 306.01 187.941 311.04 202.641Z" fill="#0089E5" stroke="#003A8E" stroke-width="2" stroke-miterlimit="10"/>
<path d="M310 202.172C296.5 205.192 283.54 208.782 272.5 214.472C268.27 208.382 268.12 202.242 273.17 196.052C284.1 193.642 296.82 197.142 310 202.172Z" fill="#0089E5" stroke="#003A8E" stroke-width="2" stroke-miterlimit="10"/>
<path d="M306.16 205.781C298.62 213.261 291.75 220.951 287.28 229.411C281.22 226.651 277.9 222.251 278.06 215.781C284.17 209.741 294.61 207.301 306.16 205.781Z" fill="#0089E5" stroke="#003A8E" stroke-width="2" stroke-miterlimit="10"/>
<path d="M309.86 205.571C314.73 215.011 320 223.871 326.72 230.681C322.27 235.631 317.08 237.481 310.95 235.391C307.03 227.731 307.84 217.041 309.86 205.571Z" fill="#0089E5" stroke="#003A8E" stroke-width="2" stroke-miterlimit="10"/>
<path d="M311.72 203.771C311.16 194.081 310 184.731 306.64 176.641C312.81 173.981 318.37 174.201 323.14 178.091C323.56 185.931 318.36 194.721 311.72 203.771Z" fill="#0089E5" stroke="#003A8E" stroke-width="2" stroke-miterlimit="10"/>
<path d="M310.95 204.231C320.65 203.801 330.01 202.751 338.14 199.491C340.72 205.691 340.43 211.251 336.48 215.971C328.63 216.301 319.9 210.991 310.95 204.231Z" fill="#0089E5" stroke="#003A8E" stroke-width="2" stroke-miterlimit="10"/>
<path d="M311.02 205.791C316.24 197.601 320.76 189.341 322.77 180.811C329.33 182.261 333.71 185.691 335.31 191.641C331.06 198.251 321.7 202.341 311.02 205.791Z" fill="#6FE200" stroke="#568C00" stroke-width="2" stroke-miterlimit="10"/>
<path d="M309.49 206.321C306.84 198.691 303.69 191.541 298.75 186.111C303.96 181.951 309.23 180.311 314.58 181.891C316.7 188.071 313.75 196.861 309.49 206.321Z" fill="#6FE200" stroke="#568C00" stroke-width="2" stroke-miterlimit="10"/>
<path d="M311.05 205.421C308.4 212.391 306.44 219.311 306.94 226.091C300.29 225.921 295.16 223.941 291.95 219.641C294.12 214.011 301.87 209.561 311.05 205.421Z" fill="#6FE200" stroke="#568C00" stroke-width="2" stroke-miterlimit="10"/>
<path d="M310.39 205.241C316.99 208.701 323.63 211.471 330.42 211.781C329.46 218.361 326.88 223.221 322.23 225.891C316.89 223.061 313.4 214.841 310.39 205.241Z" fill="#00E0BA" stroke="#008978" stroke-width="2" stroke-miterlimit="10"/>
<path d="M308.47 205.781C301.14 204.441 293.97 203.761 287.4 205.481C286.36 198.911 287.38 193.501 291.03 189.571C296.96 190.691 302.73 197.501 308.47 205.781Z" fill="#00E0BA" stroke="#008978" stroke-width="2" stroke-miterlimit="10"/>
<path d="M420.01 290.871C423.74 258.181 406.99 240.321 391.48 238.541C374.15 236.561 345.29 262.351 342.84 282.031C339.98 305.041 360.14 319.501 381.95 321.991C403.76 324.481 417.38 313.921 420.01 290.871Z" fill="#A47FB8"/>
<path opacity="0.3" d="M420.01 290.871C423.74 258.181 406.99 240.321 391.48 238.541C374.15 236.561 404.37 251.811 397.53 298.091C394.14 321.031 360.14 319.501 381.94 321.991C403.74 324.481 417.38 313.921 420.01 290.871Z" fill="#612D8F"/>
<path d="M412.21 255.551C416.03 263.001 420.28 276.791 419.75 290.451C419.33 301.251 419.47 312.271 416.79 314.111L407.91 318.831C354.47 334.841 340.12 292.481 342.85 282.021C345.83 270.631 356.31 254.441 363.75 248.621" stroke="#512A75" stroke-width="4" stroke-miterlimit="10" stroke-linecap="round" stroke-linejoin="round"/>
<path d="M339.58 103.391C332.05 118.691 333.91 131.961 333.91 131.961C333.91 131.961 345.17 143.141 357.98 146.211C388 153.401 389.36 130.241 388.83 104.411C388.17 72.4707 388.54 56.2107 388.54 56.2107C376.64 53.5807 352.77 76.5907 339.58 103.391Z" fill="#A47FB8"/>
<path d="M387.88 127.341C386.47 90.5207 388.54 56.2107 388.54 56.2107C381.73 52.8207 333.23 90.8607 333.92 131.961C333.97 134.911 348.35 144.531 356.34 145.761" stroke="#512A75" stroke-width="4" stroke-miterlimit="10" stroke-linecap="round" stroke-linejoin="round"/>
<path opacity="0.3" d="M371.23 114.191C369.73 118.301 375.39 127.621 387.3 125.301C387.3 125.301 366.07 132.621 358.07 139.271C356.34 140.711 347.19 134.021 346.39 132.031C344.95 128.481 344.12 132.981 346.92 124.361C352.46 107.311 369.27 82.9807 377.6 84.7807C377.61 84.7807 377.42 97.2707 371.23 114.191Z" fill="#612D8F"/>
<path d="M377.61 84.7808C377.61 84.7808 376.69 101.041 370.04 119.831C368.19 125.051 365.9 130.461 363.06 135.781" stroke="#512A75" stroke-width="3" stroke-linecap="round" stroke-linejoin="round"/>
<path d="M471.93 193.961C473.49 217.621 466.05 237.301 466.05 237.301C466.05 237.301 437.12 265.461 386.81 255.611C348.11 248.031 325.89 208.021 325.89 208.021C325.89 208.021 325.28 185.271 338.66 162.721C361.04 125.001 375.59 116.831 401.26 120.781C402.87 121.031 424.08 125.721 425.69 126.071C454.96 132.371 469.06 150.351 471.93 193.961Z" fill="#A47FB8"/>
<path opacity="0.3" d="M473.01 194.051C474.57 217.711 467.13 237.391 467.13 237.391C467.13 237.391 443.65 263.031 387.89 255.701C348.8 250.561 325.88 208.021 325.88 208.021C325.88 208.021 372.33 283.421 434.76 229.001C465.62 202.101 460.99 133.691 402.33 120.881C400.74 120.531 425.15 125.821 426.76 126.171C452.54 131.851 470.15 150.441 473.01 194.051Z" fill="#612D8F"/>
<path d="M365.31 247.281C342.95 234.181 326.53 208.091 326.53 208.091L326.16 206.751C331.27 155.491 366.53 117.781 389.73 119.641C407.51 121.071 427.42 124.311 444.52 131.751L462.24 151.391C472.63 171.661 478.52 204.471 466.06 237.291C462.96 245.451 417.66 262.281 398.9 257.591" stroke="#512A75" stroke-width="4" stroke-linecap="round" stroke-linejoin="round"/>
<path d="M455.31 198.301C450.86 218.841 436.83 230.141 421.97 226.921C416.13 225.651 399.26 206.491 402.3 192.441C406.75 171.901 432.27 152.991 434.81 153.541C446.47 156.061 459.76 177.751 455.31 198.301Z" fill="#7E499B"/>
<path d="M337.82 172.381C333.37 192.921 341.47 209.011 356.32 212.231C362.16 213.501 385.45 203.031 388.49 188.981C392.94 168.441 377.54 140.661 374.99 140.111C363.36 137.591 342.27 151.831 337.82 172.381Z" fill="#7E499B"/>
<path d="M367.01 206.771C364.33 219.121 369.96 234.851 380.09 237.041C388.87 238.941 399.7 231.971 401.53 223.521C404.21 211.171 388.34 189.271 387.16 190.741C377.16 203.171 367.01 206.771 367.01 206.771Z" fill="#7E499B"/>
<path d="M387.17 190.741C375.88 207.691 371.69 202.091 367.9 207.891C366.37 210.231 362.1 233.091 380.09 237.041C387.35 238.631 391.11 236.611 395.52 233.271" stroke="#512A75" stroke-width="3" stroke-miterlimit="10" stroke-linecap="round" stroke-linejoin="round"/>
<path d="M392.47 196.511C402 211.251 402.88 219.821 400.64 226.171" stroke="#512A75" stroke-width="3" stroke-miterlimit="10" stroke-linecap="round" stroke-linejoin="round"/>
<path d="M495.8 137.171C496.33 154.181 489.16 165.451 489.16 165.451C489.16 165.451 475.01 171.401 462.08 168.891L443.3 136.231C457.1 107.501 470.75 74.101 470.75 74.101C482.65 76.631 494.87 107.391 495.8 137.171Z" fill="#A47FB8"/>
<path d="M441.94 138.941C458.44 106.101 470.74 74.101 470.74 74.101C478.35 73.841 506.78 128.421 489.16 165.451C487.9 168.101 470.83 170.901 463.05 168.721" stroke="#512A75" stroke-width="4" stroke-miterlimit="10" stroke-linecap="round" stroke-linejoin="round"/>
<path d="M468.88 104.551C468.88 104.551 462.99 119.691 461.29 139.511C460.82 145.011 460.66 150.881 461.05 156.871" stroke="#512A75" stroke-width="3" stroke-linecap="round" stroke-linejoin="round"/>
<path opacity="0.3" d="M462.52 133.891C462.19 138.241 453.85 144.451 443.97 137.411C443.97 137.411 456.19 159.081 461.64 168.131C462.8 170.061 464.83 170.121 466.6 169.591C469.12 168.831 491.27 165.411 489.16 165.451C477.43 165.681 479.64 154.631 480.45 153.161C489.14 137.561 477.21 106.351 468.88 104.551C468.88 104.551 463.89 115.971 462.52 133.891Z" fill="#612D8F"/>
<path d="M442.777 197.576C445.381 185.556 439.419 174.063 429.46 171.906C419.502 169.749 409.318 177.744 406.715 189.764C404.111 201.785 410.073 213.278 420.031 215.435C429.99 217.592 440.173 209.596 442.777 197.576Z" fill="#502975"/>
<path d="M436.06 203.431C437.87 211.491 424.64 214.961 417.48 212.011C410.32 209.061 404.58 198.841 410.13 192.741C415.06 187.331 415.74 200.291 421.52 201.981C430.97 204.761 434.68 197.321 436.06 203.431Z" fill="#73449A"/>
<path d="M414.1 189.631C408.79 187.001 410.93 180.501 415.72 177.041C420.51 173.591 426.82 170.961 427.98 176.671C428.97 181.591 423.77 180.111 420.33 183.151C414.71 188.121 417.57 191.351 414.1 189.631Z" fill="white"/>
<path d="M384.544 184.917C387.147 172.897 381.185 161.404 371.227 159.247C361.269 157.09 351.085 165.085 348.481 177.106C345.877 189.126 351.839 200.619 361.798 202.776C371.756 204.933 381.94 196.938 384.544 184.917Z" fill="#502975"/>
<path d="M352.32 185.341C347.33 191.931 357.94 200.561 365.68 200.841C373.42 201.121 382.88 194.191 380.35 186.341C378.11 179.371 372.12 190.891 366.15 190.041C356.4 188.651 356.1 180.351 352.32 185.341Z" fill="#73449A"/>
<path d="M367.45 165.631C366.83 160.311 358.76 162.731 355.92 166.731C353.08 170.731 351.12 176.051 356.49 177.151C361.12 178.101 359.36 173.651 361.92 170.781C366.1 166.121 367.94 169.741 367.45 165.631Z" fill="white"/>
<path d="M374.17 228.141C373.34 232.221 382.21 235.031 381.15 228.141" stroke="#512A75" stroke-width="3" stroke-miterlimit="10" stroke-linecap="round" stroke-linejoin="round"/>
<path d="M375.61 216.221C375.19 220.991 375.61 225.501 378.45 227.221C381.48 229.051 384.39 226.141 384.48 223.891" stroke="#512A75" stroke-width="3" stroke-miterlimit="10" stroke-linecap="round" stroke-linejoin="round"/>
<path d="M376.1 224.691C376.7 230.041 370.74 225.671 370.54 223.111" stroke="#512A75" stroke-width="3" stroke-miterlimit="10" stroke-linecap="round" stroke-linejoin="round"/>
<path d="M382.81 210.401C382.46 214.061 377.17 216.591 375.7 216.451C373.11 216.211 369.51 212.901 369.86 209.241C370.21 205.581 372.64 205.941 376.21 206.261C379.79 206.581 383.16 206.741 382.81 210.401Z" fill="#612D8F"/>
<path d="M380.36 214.341C379.66 214.871 376.25 216.821 375.7 216.451C375.28 216.171 375.97 214.151 377.58 213.211C380.72 211.381 383.28 212.151 380.36 214.341Z" fill="#5C2F84"/>
<path d="M370.48 212.271C372.19 215.061 373.47 216.001 374.02 215.931C374.44 215.881 373.94 213.661 373 212.421C371.19 210.031 368.91 209.721 370.48 212.271Z" fill="#5C2F84"/>
<path d="M382.81 210.401C378.16 211.951 370.44 210.011 370.17 207.811C370.67 205.281 372.64 205.941 376.22 206.261C379.79 206.581 383.16 206.741 382.81 210.401Z" fill="#5C2F84"/>
<path d="M380.996 209.499C381.049 209.077 379.998 208.599 378.65 208.431C377.301 208.264 376.166 208.47 376.113 208.892C376.061 209.314 377.112 209.792 378.46 209.96C379.808 210.127 380.944 209.921 380.996 209.499Z" fill="white"/>
<path d="M375.23 148.941C374.49 146.121 370.11 145.341 364.9 146.821C362.85 147.401 356.35 151.431 356.85 153.361C357.59 156.181 369.31 155.681 370.2 155.431C374.29 154.281 375.97 151.771 375.23 148.941Z" fill="#663A84" stroke="#612D8F" stroke-width="2" stroke-miterlimit="10"/>
<path d="M426.6 161.951C427.78 159.271 432.23 159.141 437.14 161.351C439.07 162.221 444.87 167.151 444.06 168.991C442.88 171.671 431.37 169.481 430.53 169.101C426.68 167.361 425.42 164.631 426.6 161.951Z" fill="#663A84" stroke="#612D8F" stroke-width="2" stroke-miterlimit="10"/>
<path d="M415.99 286.061C420.938 286.061 424.95 279.954 424.95 272.421C424.95 264.888 420.938 258.781 415.99 258.781C411.041 258.781 407.03 264.888 407.03 272.421C407.03 279.954 411.041 286.061 415.99 286.061Z" fill="#7E499B" stroke="#512A75" stroke-width="3" stroke-miterlimit="10"/>
<path d="M471.38 257.621C473.41 259.041 474.95 263.121 472.33 268.411C467.23 278.741 459.14 281.891 459.14 281.891C446.1 285.391 431.48 281.451 421.23 276.301C417.59 274.471 416.07 273.451 416.73 271.541C420.8 259.711 427.55 274.591 447.32 268.521C447.32 268.521 452.44 266.931 462.65 259.521C466.5 256.731 467.69 255.031 471.38 257.621Z" fill="#A47FB8"/>
<path d="M471.57 257.381C473.6 258.801 475.14 262.881 472.52 268.171C467.42 278.501 459.33 281.651 459.33 281.651C446.29 285.151 431.67 281.211 421.42 276.061C417.78 274.231 416.26 273.211 416.92 271.301C420.99 259.471 427.74 274.351 447.51 268.281C447.51 268.281 452.63 266.691 462.84 259.281C466.68 256.481 467.87 254.781 471.57 257.381Z" stroke="#512A75" stroke-width="3" stroke-miterlimit="10" stroke-linecap="round" stroke-linejoin="round"/>
<path opacity="0.3" d="M472.84 259.311C474.4 262.301 474.1 263.411 473.11 266.541C470.08 276.161 459.15 281.881 459.15 281.881C446.11 285.381 427.74 281.441 419.7 275.491C414.63 271.741 418 268.871 419.67 269.701C425.19 272.441 442.39 280.931 460.17 277.271C460.17 277.271 479.19 263.011 466.24 256.801C466.24 256.811 470.98 255.751 472.84 259.311Z" fill="#612D8F"/>
<path d="M477.94 248.872C476.17 251.182 475.25 255.422 473.99 254.522C472.72 253.612 473.77 246.672 475.53 244.362C477.3 242.052 479.84 240.802 481.02 241.822C483.02 243.532 479.71 246.552 477.94 248.872Z" fill="#6A3D89" stroke="#512A75" stroke-width="2" stroke-miterlimit="10"/>
<path d="M476.45 247.141C475.21 249.821 475.54 254.221 473.83 253.601C472.12 252.981 471.07 245.891 472.3 243.211C473.54 240.531 475.99 238.741 477.64 239.481C480.43 240.741 477.69 244.471 476.45 247.141Z" fill="#6A3D89" stroke="#512A75" stroke-width="2" stroke-miterlimit="10"/>
<path d="M477.02 262.461C478.11 262.111 484.51 264.711 484.56 260.831C484.63 255.841 477.43 261.711 475.12 257.091C474.91 256.671 473.04 254.151 473.12 253.641C473.92 248.331 480.02 242.471 474.64 242.041C473.8 241.971 471.78 242.101 470.21 245.201C468.85 247.901 469.04 250.331 468.82 250.831C467.96 252.841 466.36 257.351 467.84 261.661C469.33 265.951 474.1 263.401 477.02 262.461Z" fill="#7E499B" stroke="#512A75" stroke-width="3" stroke-miterlimit="10"/>
<path d="M482.3 257.711C491.551 257.711 499.05 250.212 499.05 240.961C499.05 231.71 491.551 224.211 482.3 224.211C473.049 224.211 465.55 231.71 465.55 240.961C465.55 250.212 473.049 257.711 482.3 257.711Z" fill="#FF5B00" stroke="#CE0000" stroke-width="2" stroke-miterlimit="10"/>
<path d="M494.63 236.181C507.66 236.301 520.3 237.111 531.54 240.401C534.34 233.481 533.36 227.371 527.56 222.311C517.01 222.241 505.89 228.401 494.63 236.181Z" fill="#FF5B00" stroke="#CE0000" stroke-width="2" stroke-miterlimit="10"/>
<path d="M494.36 240.4C501.19 251.5 507.22 262.63 510.41 273.9C517.76 272.59 522.41 268.51 523.62 260.91C518.07 251.95 506.93 245.81 494.36 240.4Z" fill="#FF5B00" stroke="#CE0000" stroke-width="2" stroke-miterlimit="10"/>
<path d="M487.56 248.341C486.58 259.281 484.94 269.821 480.94 278.881C487.62 282.041 493.73 281.931 499.13 277.651C499.89 268.801 494.51 258.731 487.56 248.341Z" fill="#FF5B00" stroke="#CE0000" stroke-width="2" stroke-miterlimit="10"/>
<path d="M486.57 231.751C495.14 224.871 503.87 218.761 513.18 215.361C510.83 208.351 506.52 204.021 499.69 203.091C492.78 208.681 489.24 219.541 486.57 231.751Z" fill="#FF5B00" stroke="#CE0000" stroke-width="2" stroke-miterlimit="10"/>
<path d="M480.86 234.501C479.85 225.261 479.56 216.261 481.86 208.151C474.72 206.461 468.73 207.421 464.19 211.741C465.03 219.221 472.14 226.841 480.86 234.501Z" fill="#FF5B00" stroke="#CE0000" stroke-width="2" stroke-miterlimit="10"/>
<path d="M480.41 238.291C474.58 231.051 469.49 223.621 467.06 215.551C460.14 217.971 455.6 222.011 454.11 228.101C458.85 233.951 468.94 236.541 480.41 238.291Z" fill="#FF5B00" stroke="#CE0000" stroke-width="2" stroke-miterlimit="10"/>
<path d="M478 245.541C468.71 245.851 459.72 245.451 451.8 242.551C449.58 249.541 450.08 255.591 454.05 260.441C461.57 260.161 469.71 253.661 478 245.541Z" fill="#FF5B00" stroke="#CE0000" stroke-width="2" stroke-miterlimit="10"/>
<path d="M484.87 238.561C497.92 233.861 510.84 230.111 523.34 229.741C523.44 220.681 520.08 213.971 512.33 210.261C501.78 214.101 493.08 225.371 484.87 238.561Z" fill="#0089E5" stroke="#003A8E" stroke-width="2" stroke-miterlimit="10"/>
<path d="M485.99 238.331C498.46 244.311 510.28 250.741 519.75 258.771C525.24 253.791 526.77 247.851 523.25 240.671C513.15 235.861 499.97 236.401 485.99 238.331Z" fill="#0089E5" stroke="#003A8E" stroke-width="2" stroke-miterlimit="10"/>
<path d="M488.92 242.721C494.58 251.711 499.54 260.751 501.99 269.991C508.51 268.671 512.74 265.131 514.05 258.791C509.45 251.541 499.83 246.801 488.92 242.721Z" fill="#0089E5" stroke="#003A8E" stroke-width="2" stroke-miterlimit="10"/>
<path d="M485.36 241.681C478.49 249.781 471.35 257.221 463.27 262.341C466.49 268.161 471.13 271.141 477.57 270.481C483.12 263.911 484.74 253.311 485.36 241.681Z" fill="#0089E5" stroke="#003A8E" stroke-width="2" stroke-miterlimit="10"/>
<path d="M483.96 239.501C486.69 230.181 489.93 221.341 495.03 214.211C489.62 210.221 484.16 209.191 478.62 211.901C476.44 219.451 479.52 229.191 483.96 239.501Z" fill="#0089E5" stroke="#003A8E" stroke-width="2" stroke-miterlimit="10"/>
<path d="M484.61 240.121C475.26 237.511 466.38 234.381 459.18 229.371C455.26 234.831 454.29 240.311 457.08 245.801C464.65 247.901 474.36 244.691 484.61 240.121Z" fill="#0089E5" stroke="#003A8E" stroke-width="2" stroke-miterlimit="10"/>
<path d="M484.18 241.631C480.94 232.481 478.4 223.411 478.36 214.651C471.64 214.581 466.6 216.941 463.7 222.371C466.36 229.771 474.55 235.871 484.18 241.631Z" fill="#6FE200" stroke="#568C00" stroke-width="2" stroke-miterlimit="10"/>
<path d="M485.55 242.491C489.85 235.651 494.54 229.391 500.57 225.221C496.43 219.991 491.67 217.211 486.1 217.541C482.64 223.091 483.54 232.311 485.55 242.491Z" fill="#6FE200" stroke="#568C00" stroke-width="2" stroke-miterlimit="10"/>
<path d="M484.24 241.271C485.25 248.661 485.6 255.841 483.58 262.331C490.1 263.671 495.54 262.89 499.63 259.43C498.79 253.45 492.25 247.371 484.24 241.271Z" fill="#6FE200" stroke="#568C00" stroke-width="2" stroke-miterlimit="10"/>
<path d="M484.92 241.23C477.71 243.11 470.61 244.31 463.93 243.08C463.38 249.71 464.8 255.03 468.73 258.67C474.56 257.13 479.82 249.91 484.92 241.23Z" fill="#00E0BA" stroke="#008978" stroke-width="2" stroke-miterlimit="10"/>
<path d="M486.67 242.2C494.12 242.55 501.25 243.5 507.26 246.66C509.75 240.49 509.98 235 507.31 230.34C501.28 230.09 494.12 235.43 486.67 242.2Z" fill="#00E0BA" stroke="#008978" stroke-width="2" stroke-miterlimit="10"/>
<path d="M173.11 257.481C177.89 264.631 168.08 279.771 152.87 283.871C126.85 290.891 132.12 263.261 143.3 261.421C159.07 258.821 167.38 248.911 173.11 257.481Z" fill="#EF4B24" stroke="#5F190F" stroke-width="3" stroke-miterlimit="10"/>
<path d="M190.169 268.824C193.484 260.223 191.396 251.41 185.506 249.14C179.615 246.87 172.153 252.002 168.839 260.603C165.524 269.204 167.612 278.017 173.502 280.287C179.393 282.557 186.855 277.425 190.169 268.824Z" fill="#892A09" stroke="#5F190F" stroke-width="3" stroke-miterlimit="10"/>
<path d="M249.7 251.001L256.84 276.961C265.99 274.021 272.3 268.671 272.51 258.191C268.28 252.671 259.28 251.571 249.7 251.001Z" fill="#A84E26" stroke="#5F190F" stroke-width="3" stroke-miterlimit="10"/>
<path d="M256.79 271.471L255.34 293.821C264.89 293.421 272.5 290.481 276 282.121C273.76 276.781 265.63 273.971 256.79 271.471Z" fill="#AA3C24" stroke="#5F190F" stroke-width="3" stroke-miterlimit="10" stroke-linecap="round"/>
<path d="M260.58 264.151C261.94 284.751 249.92 314.661 221.73 316.521C193.85 318.361 178.49 287.971 176.58 267.411C173.61 235.571 194.16 243.421 216.81 241.921C239.46 240.421 259.22 243.551 260.58 264.151Z" fill="#EF4B24"/>
<path opacity="0.3" d="M241.88 253.761C245.89 256.851 245.22 293.391 234.92 302.431C227.19 311.831 208.56 311.691 205.48 311.431C206.24 315.501 234.86 319.931 246.8 307.431C257.99 292.431 267.28 273.331 255.81 250.461L241.88 253.761Z" fill="#5F190F"/>
<path d="M178.41 244.991C162.91 331.171 270.68 343.371 259 256.561C258.1 249.841 250.58 243.531 243.52 243.991" stroke="#5F190F" stroke-width="4" stroke-miterlimit="10" stroke-linecap="round" stroke-linejoin="round"/>
<path d="M253.786 281.549C260.428 281.044 265.27 273.51 264.602 264.721C263.933 255.932 258.008 249.217 251.367 249.722C244.726 250.226 239.883 257.761 240.552 266.549C241.22 275.338 247.145 282.054 253.786 281.549Z" fill="#90211D" stroke="#5F190F" stroke-width="3" stroke-miterlimit="10"/>
<path d="M250.66 257.421C259.95 250.751 275.19 273.841 276.52 303.551C278.8 354.381 244.01 342.851 247.28 314.051C250.53 285.551 239.52 265.431 250.66 257.421Z" fill="#EF4B24"/>
<path d="M250.68 256.841C259.97 250.171 275.21 273.261 276.54 302.971C278.82 353.801 244.03 342.271 247.3 313.471C250.55 284.961 239.53 264.851 250.68 256.841Z" stroke="#5F190F" stroke-width="4" stroke-miterlimit="10"/>
<path opacity="0.3" d="M272.58 328.271C277.19 303.301 264.15 256.401 250.96 256.161C257.35 254.321 263.53 260.071 269.49 273.541C275.94 290.851 279.91 304.191 272.58 328.271Z" fill="#5F190F"/>
<path d="M238.221 327.878C238.446 323.277 236.441 319.441 233.744 319.309C231.047 319.177 228.678 322.8 228.453 327.4C228.228 332.001 230.233 335.837 232.93 335.969C235.627 336.101 237.996 332.478 238.221 327.878Z" fill="#90211D" stroke="#5F190F" stroke-width="3" stroke-miterlimit="10"/>
<path d="M272.11 322.511C273.93 329.241 265.66 340.511 256.05 339.661C222.16 342.431 228.55 304.261 254.54 303.851" fill="#EF4B24"/>
<path d="M272.11 322.511C273.93 329.241 265.66 340.511 256.05 339.661C222.16 342.431 228.55 304.261 254.54 303.851" stroke="#5F190F" stroke-width="4" stroke-miterlimit="10" stroke-linecap="round" stroke-linejoin="round"/>
<path d="M247.394 345.461C250.588 344.643 251.993 339.356 250.533 333.653C249.072 327.95 245.299 323.99 242.105 324.808C238.911 325.626 237.506 330.912 238.967 336.615C240.427 342.318 244.2 346.279 247.394 345.461Z" fill="#90211D" stroke="#5F190F" stroke-width="3" stroke-miterlimit="10"/>
<path d="M263.539 334.104C263.764 329.504 261.759 325.667 259.062 325.536C256.364 325.404 253.996 329.027 253.771 333.627C253.546 338.228 255.55 342.064 258.248 342.196C260.945 342.327 263.314 338.705 263.539 334.104Z" fill="#90211D" stroke="#5F190F" stroke-width="3" stroke-miterlimit="10"/>
<path d="M494.34 353.091H75L134.76 289.201H554.1L494.34 353.091Z" fill="white"/>
<path d="M133.2 288.791L554.1 289.131" stroke="#5D757C" stroke-width="3" stroke-miterlimit="10" stroke-linecap="round" stroke-linejoin="round"/>
<path d="M131.31 139.551C128.15 145.031 139.52 162.021 148.34 174.341L168.48 139.671C154.06 134.941 134.49 134.021 131.31 139.551Z" fill="#AA3C24" stroke="#5F190F" stroke-width="3" stroke-miterlimit="10"/>
<path d="M182.35 128.881L216.1 116.861C207.27 105.741 201.4 97.0209 193.21 97.0209C184.9 97.5809 182.04 111.491 182.35 128.881Z" fill="#AA3C24" stroke="#5F190F" stroke-width="3" stroke-miterlimit="10"/>
<path d="M262.19 96.8909C255.65 94.9909 241.41 107.551 232.91 121.321L269.96 135.701C270.24 119.731 270.03 99.6509 262.19 96.8909Z" fill="#AA3C24" stroke="#5F190F" stroke-width="3" stroke-miterlimit="10"/>
<path d="M273.33 142.291L285.9 183.171C300.98 170.741 320.55 150.631 315.83 138.601C307.44 132.651 290.89 136.851 273.33 142.291Z" fill="#AA3C24" stroke="#5F190F" stroke-width="3" stroke-miterlimit="10"/>
<path d="M282.91 201.121L264.94 239.941C278.88 243.081 295.94 243.791 300.13 234.571C302.69 223.221 293.27 211.621 282.91 201.121Z" fill="#AA3C24" stroke="#5F190F" stroke-width="3" stroke-miterlimit="10"/>
<path d="M153.47 199.211L170.27 234.221C156.33 237.361 139.31 238.181 134.84 229.321C131.63 223.351 143.11 209.711 153.47 199.211Z" fill="#AA3C24" stroke="#5F190F" stroke-width="3" stroke-miterlimit="10"/>
<path d="M291.08 108.321C277.89 109.541 265.38 115.591 253.55 126.471C253.59 126.621 253 127.411 253.05 127.561C250.02 125.681 247.43 124.651 244.02 123.251C238.31 94.9811 232.48 81.5811 224.96 82.6211C214.86 85.7311 203.37 100.271 196.52 121.151C196.52 121.151 188.01 124.341 183.01 126.871C157.21 114.561 152.42 113.141 148.33 117.811C144.32 122.391 142.61 141.371 150.87 159.021C149.74 160.951 146.91 163.661 145.95 165.671C131.57 164.291 126.57 165.051 119.62 173.781C116.97 185.231 124.52 200.571 138.36 212.791C143.06 225.701 144.63 231.841 153.02 241.391C188.44 281.681 244.54 264.181 264.33 243.241C264.33 243.241 273.35 228.311 276.76 222.981L280.21 215.041C299.86 205.931 319.46 185.911 317.81 178.641C311.16 168.391 299.1 171.591 287.24 168.551C287.24 168.551 284.59 167.001 281.39 160.861C291.26 145.001 299.85 111.321 291.08 108.321Z" fill="#EF4B24"/>
<path opacity="0.3" d="M240.01 258.831C273.33 250.381 294.38 193.821 283.13 162.041C289.91 141.611 298.4 115.431 292.31 109.571C287.67 109.631 282.06 112.491 253.04 127.581C253.04 127.581 248.5 127.051 244.03 123.081C240.62 103.911 234.56 83.5309 229.49 84.6909C232.55 99.6809 235.8 116.761 223.68 128.421C267.99 152.411 259.46 231.921 240.01 258.831Z" fill="#7A1C13"/>
<path opacity="0.3" d="M152.28 115.461C165.2 114.961 169.3 118.011 182.62 128.051C179.72 134.731 174.35 141.351 166.39 147.921C167.83 138.111 165.81 123.971 152.28 115.461Z" fill="#5F190F"/>
<path opacity="0.3" d="M118.14 180.431C127.64 189.761 136.31 186.391 141.15 178.241C138.56 185.981 135.67 204.071 138.34 212.801C128.01 205.501 121.62 192.731 118.14 180.431Z" fill="#5F190F"/>
<path opacity="0.3" d="M287.54 180.751C295.46 175.421 319.18 174.941 315.99 181.801C313.35 190.231 299.03 204.601 282.06 213.951L287.54 180.751Z" fill="#5F190F"/>
<path d="M138.34 212.801C100.01 175.501 123.77 162.501 145.94 165.681" stroke="#5F190F" stroke-width="4" stroke-miterlimit="10" stroke-linecap="round"/>
<path d="M284.16 168.401C332.89 168.401 322.74 190.301 280.2 215.051" stroke="#5F190F" stroke-width="4" stroke-miterlimit="10" stroke-linecap="round"/>
<path d="M188.42 263.991C156.79 253.401 122.5 223.501 145.94 165.681L149.13 160.321C141.15 117.591 146.3 103.011 183 126.891L197.4 120.531C218.85 71.2812 234.69 68.7312 242.99 123.921L252.62 127.231C294 94.1512 306.91 101.031 282.21 162.781C294.38 192.221 275.8 251.471 235.78 260.061" stroke="#5F190F" stroke-width="4" stroke-miterlimit="10" stroke-linecap="round"/>
<path d="M159.22 152.671C169.94 146.711 180.92 134.501 183.01 126.891" stroke="#5F190F" stroke-width="3" stroke-miterlimit="10" stroke-linecap="round" stroke-linejoin="round"/>
<path d="M213.4 126.891C227.5 130.441 237.28 128.761 243 123.921" stroke="#5F190F" stroke-width="3" stroke-miterlimit="10" stroke-linecap="round" stroke-linejoin="round"/>
<path d="M258.23 147.391C264.48 160.951 275.63 164.361 282.75 162.041" stroke="#5F190F" stroke-width="3" stroke-miterlimit="10" stroke-linecap="round" stroke-linejoin="round"/>
<path d="M226.22 220.471C238.232 220.471 247.97 210.093 247.97 197.291C247.97 184.489 238.232 174.111 226.22 174.111C214.208 174.111 204.47 184.489 204.47 197.291C204.47 210.093 214.208 220.471 226.22 220.471Z" fill="#751A06"/>
<path d="M226.22 220.471C238.232 220.471 247.97 210.093 247.97 197.291C247.97 184.489 238.232 174.111 226.22 174.111C214.208 174.111 204.47 184.489 204.47 197.291C204.47 210.093 214.208 220.471 226.22 220.471Z" stroke="#451004" stroke-width="3" stroke-miterlimit="10"/>
<path opacity="0.3" d="M237.532 215.152C245.57 208.935 246.803 197.064 240.285 188.637C233.767 180.21 221.967 178.418 213.929 184.635C205.891 190.853 204.658 202.724 211.176 211.151C217.694 219.578 229.494 221.369 237.532 215.152Z" fill="#5F190F"/>
<path d="M222.804 213.06C225.586 211.722 226.251 207.329 224.288 203.248C222.326 199.166 218.48 196.942 215.698 198.28C212.915 199.618 212.251 204.011 214.213 208.092C216.175 212.173 220.021 214.397 222.804 213.06Z" fill="white"/>
<path d="M221.485 189.154C222.775 186.737 222.229 183.928 220.265 182.88C218.301 181.833 215.664 182.942 214.374 185.359C213.084 187.776 213.631 190.585 215.594 191.633C217.558 192.681 220.196 191.571 221.485 189.154Z" fill="white"/>
<path d="M159.29 220.471C171.026 220.471 180.54 210.093 180.54 197.291C180.54 184.489 171.026 174.111 159.29 174.111C147.554 174.111 138.04 184.489 138.04 197.291C138.04 210.093 147.554 220.471 159.29 220.471Z" fill="#751A06"/>
<path d="M159.02 220.471C170.756 220.471 180.27 210.093 180.27 197.291C180.27 184.489 170.756 174.111 159.02 174.111C147.284 174.111 137.77 184.489 137.77 197.291C137.77 210.093 147.284 220.471 159.02 220.471Z" stroke="#451004" stroke-width="3" stroke-miterlimit="10"/>
<path opacity="0.3" d="M167.233 217.112C176.207 212.722 179.714 201.457 175.064 191.952C170.414 182.446 159.37 178.299 150.395 182.689C141.42 187.079 137.914 198.344 142.563 207.849C147.213 217.355 158.258 221.502 167.233 217.112Z" fill="#5F190F"/>
<path d="M155.044 214.166C157.747 212.932 158.391 208.543 156.482 204.363C154.573 200.183 150.834 197.795 148.131 199.029C145.429 200.263 144.785 204.652 146.693 208.832C148.602 213.012 152.341 215.4 155.044 214.166Z" fill="white"/>
<path d="M152.671 191.398C153.844 188.941 153.199 186.187 151.231 185.247C149.262 184.307 146.715 185.537 145.542 187.994C144.369 190.451 145.013 193.205 146.982 194.145C148.951 195.085 151.498 193.855 152.671 191.398Z" fill="white"/>
<path d="M145.19 202.111C146.76 224.401 175.17 221.641 178.46 202.111" stroke="#5F190F" stroke-width="4" stroke-miterlimit="10" stroke-linecap="round" stroke-linejoin="round"/>
<path d="M209.25 202.571C215.2 226.931 247.76 218.341 247.97 196.101" stroke="#5F190F" stroke-width="4" stroke-miterlimit="10" stroke-linecap="round" stroke-linejoin="round"/>
<path d="M248.96 162.321C248.16 165.831 243.41 165.191 235.74 163.431C228.07 161.671 219.76 164.461 221.19 155.961C222.61 147.481 231.79 147.221 238.87 150.651C247.37 154.771 249.76 158.811 248.96 162.321Z" fill="#722000" stroke="#451004" stroke-width="3" stroke-miterlimit="10"/>
<path d="M180.73 153.531C182.33 159.501 178.96 160.411 171.58 162.081C164.92 163.591 159.43 165.581 157.93 162.741C156.43 159.901 160.1 155.011 166.14 151.811C172.18 148.611 179.17 147.691 180.73 153.531Z" fill="#722000" stroke="#451004" stroke-width="3" stroke-miterlimit="10"/>
<path d="M182.62 250.621C180.71 255.351 181.63 256.501 182.56 257.911C184.29 260.551 187.45 260.491 190.2 258.661C193.49 256.471 193.34 251.741 192.27 246.091C193.86 256.511 206.66 262.581 209.9 254.551C210.55 252.941 210.75 248.851 207.37 246.231" stroke="#5F190F" stroke-width="3" stroke-miterlimit="10" stroke-linecap="round"/>
<path d="M189.1 247.511C200.88 247.511 210.43 237.961 210.43 226.181C210.43 214.4 200.88 204.851 189.1 204.851C177.32 204.851 167.77 214.4 167.77 226.181C167.77 237.961 177.32 247.511 189.1 247.511Z" fill="#751A06"/>
<path d="M189.29 247.511C201.07 247.511 210.62 237.961 210.62 226.181C210.62 214.4 201.07 204.851 189.29 204.851C177.51 204.851 167.96 214.4 167.96 226.181C167.96 237.961 177.51 247.511 189.29 247.511Z" stroke="#451004" stroke-width="3" stroke-miterlimit="10"/>
<path opacity="0.3" d="M205.967 235.06C209.312 226.116 204.258 215.961 194.678 212.378C185.098 208.795 174.62 213.141 171.275 222.085C167.93 231.028 172.985 241.183 182.565 244.766C192.144 248.349 202.622 244.003 205.967 235.06Z" fill="#4C1700"/>
<path d="M202.115 229.599C205.051 229.108 206.832 225.129 206.093 220.711C205.355 216.294 202.376 213.11 199.44 213.601C196.504 214.092 194.723 218.071 195.461 222.489C196.2 226.907 199.179 230.09 202.115 229.599Z" fill="white"/>
<path d="M180.273 287.77C182.868 286.289 182.753 281.203 180.017 276.412C177.281 271.621 172.96 268.938 170.365 270.42C167.77 271.901 167.885 276.987 170.621 281.778C173.357 286.569 177.678 289.252 180.273 287.77Z" fill="#892A09" stroke="#5F190F" stroke-width="3" stroke-miterlimit="10"/>
<path d="M134.54 267.811C130.04 278.531 140.49 297.701 155.92 300.671C182.31 305.741 180.03 263.881 164.59 266.431C149.3 268.961 139.95 254.941 134.54 267.811Z" fill="#EF4B24"/>
<path d="M134.08 267.751C129.58 278.471 140.03 297.641 155.46 300.611C181.85 305.681 179.57 263.821 164.13 266.371C148.83 268.901 139.48 254.881 134.08 267.751Z" stroke="#5F190F" stroke-width="4" stroke-miterlimit="10"/>
<path opacity="0.3" d="M163.5 300.321C150.71 298.141 132.4 283.731 133.7 268.051C132.04 275.551 134.39 283.161 140.8 290.871C149.17 299.331 152.28 300.771 163.5 300.321Z" fill="#5F190F"/>
<path d="M173.236 298.929C176.701 297.797 178.065 292.454 176.282 286.994C174.499 281.534 170.245 278.025 166.78 279.156C163.315 280.288 161.951 285.631 163.734 291.091C165.517 296.551 169.771 300.06 173.236 298.929Z" fill="#892A09" stroke="#5F190F" stroke-width="3" stroke-miterlimit="10"/>
<path d="M164.667 301.272C167.285 299.777 167.525 295.268 165.203 291.201C162.88 287.134 158.875 285.049 156.256 286.544C153.637 288.04 153.397 292.549 155.72 296.616C158.042 300.683 162.048 302.768 164.667 301.272Z" fill="#90211D" stroke="#5F190F" stroke-width="3" stroke-miterlimit="10"/>
<path d="M213.07 308.001L147.17 304.771C146.95 304.761 146.73 304.801 146.53 304.891L109.47 321.701C108.21 322.271 108.54 324.111 109.92 324.231L171.99 329.691C172.23 329.711 172.47 329.671 172.69 329.571L213.58 310.531C214.85 309.931 214.47 308.071 213.07 308.001Z" fill="#A5C6C3" stroke="#6A9393" stroke-width="3" stroke-miterlimit="10"/>
<path d="M200.13 311.981L189.83 311.321L192.91 310.011L203.21 310.661L200.13 311.981Z" fill="#6D9B96"/>
<path d="M194.14 313.951L183.84 313.291L186.92 311.981L197.22 312.631L194.14 313.951Z" fill="#6D9B96"/>
<path d="M189.29 316.041L179 315.381L182.08 314.071L192.37 314.731L189.29 316.041Z" fill="#6D9B96"/>
<path d="M184.46 318.391L174.16 317.731L177.24 316.421L187.54 317.081L184.46 318.391Z" fill="#6D9B96"/>
<path d="M178.17 320.741L167.87 320.081L170.95 318.771L181.25 319.431L178.17 320.741Z" fill="#6D9B96"/>
<path d="M188.3 310.741L178 310.081L181.08 308.771L191.38 309.431L188.3 310.741Z" fill="#6D9B96"/>
<path d="M182.31 312.711L172.01 312.051L175.09 310.741L185.39 311.391L182.31 312.711Z" fill="#6D9B96"/>
<path d="M177.46 314.801L167.17 314.151L170.25 312.831L180.54 313.491L177.46 314.801Z" fill="#6D9B96"/>
<path d="M172.63 317.151L162.33 316.501L165.41 315.181L175.71 315.841L172.63 317.151Z" fill="#86C4BE"/>
<path d="M176 309.711L165.7 309.051L168.78 307.741L179.08 308.391L176 309.711Z" fill="#6D9B96"/>
<path d="M170.01 311.681L159.71 311.021L162.79 309.711L173.09 310.361L170.01 311.681Z" fill="#86C4BE"/>
<path d="M169.65 326.461C169.5 326.461 169.34 326.451 169.18 326.441L109.67 321.001C107.72 320.821 105.21 319.331 104.22 313.281L88.6799 260.281L88.7099 260.001C89.0799 255.961 91.8299 252.921 95.1099 252.921C95.2599 252.921 95.4199 252.931 95.5799 252.941L153.74 258.421C156 258.631 159.01 260.121 160.53 266.071L176.08 319.111L176.05 319.391C175.68 323.421 172.93 326.461 169.65 326.461Z" fill="white"/>
<path d="M95.1099 254.411C95.2199 254.411 95.3299 254.411 95.4399 254.431L153.6 259.911C156.18 260.151 158.06 262.451 159.07 266.431L174.56 319.251C174.26 322.491 172.1 324.971 169.65 324.971C169.54 324.971 169.43 324.961 169.32 324.951L109.81 319.511C107.23 319.271 106.13 315.701 105.69 312.951L90.1999 260.131C90.4999 256.891 92.6599 254.411 95.1099 254.411ZM95.1099 251.411C91.0499 251.411 87.6599 255.041 87.2199 259.861L87.1699 260.431L87.3299 260.981L102.76 313.621C103.97 320.911 107.52 322.321 109.53 322.501L169.04 327.941C169.24 327.961 169.44 327.971 169.64 327.971C173.7 327.971 177.09 324.341 177.53 319.521L177.58 318.951L177.42 318.401L161.95 265.631C160.12 258.531 156.1 257.121 153.86 256.911L95.7099 251.431C95.5099 251.421 95.3099 251.411 95.1099 251.411Z" fill="#6A9393"/>
<path d="M131.07 260.421L151.51 262.451C153.68 263.211 154.9 264.351 155.73 266.651L161.01 284.991" stroke="#6A9393" stroke-width="2" stroke-miterlimit="10" stroke-linecap="round" stroke-linejoin="round"/>
<path d="M165.62 300.041L171.04 318.981" stroke="#6A9393" stroke-width="2" stroke-miterlimit="10" stroke-linecap="round" stroke-linejoin="round"/>
<path d="M172.21 325.961L199.16 313.551" stroke="#6A9393" stroke-width="2" stroke-miterlimit="10" stroke-linecap="round" stroke-linejoin="round"/>
<path fill-rule="evenodd" clip-rule="evenodd" d="M130.17 302.781L117.9 298.331C116.85 297.941 116.66 297.291 117.47 296.871L120.74 295.031L128.7 297.921C129.75 298.311 131.23 298.251 131.99 297.801L138.08 294.381L142.35 295.931C143.4 296.321 143.59 296.971 142.78 297.391L133.38 302.651C132.65 303.081 131.17 303.131 130.17 302.781Z" fill="#FF6F3D"/>
<path fill-rule="evenodd" clip-rule="evenodd" d="M128.4 296.811L116.13 292.361C115.08 291.971 114.89 291.321 115.7 290.901L118.9 289.111L126.99 292.041C128.04 292.431 129.52 292.371 130.28 291.921L136.48 288.461L140.66 289.981C141.71 290.371 141.9 291.021 141.09 291.441L131.69 296.701C130.9 297.141 129.41 297.201 128.4 296.811Z" fill="url(#paint0_linear_36_1980)"/>
<path fill-rule="evenodd" clip-rule="evenodd" d="M128.4 296.811L116.13 292.361C115.08 291.971 114.89 291.321 115.7 290.901L118.9 289.111L126.99 292.041C128.04 292.431 129.52 292.371 130.28 291.921L136.48 288.461L140.66 289.981C141.71 290.371 141.9 291.021 141.09 291.441L131.69 296.701C130.9 297.141 129.41 297.201 128.4 296.811Z" fill="#95C038"/>
<path fill-rule="evenodd" clip-rule="evenodd" d="M126.68 290.991L114.41 286.541C113.36 286.151 113.17 285.501 113.98 285.081L123.38 279.821C124.18 279.361 125.66 279.311 126.67 279.701L138.94 284.151C139.99 284.541 140.18 285.191 139.37 285.611L129.97 290.871C129.17 291.291 127.68 291.351 126.68 290.991Z" fill="#5DC0E8"/>
<path d="M204.222 295.948C208.039 292.783 209.151 287.824 206.705 284.874C204.258 281.923 199.18 282.098 195.362 285.263C191.544 288.429 190.433 293.387 192.879 296.338C195.326 299.288 200.404 299.114 204.222 295.948Z" fill="#892A09" stroke="#5F190F" stroke-width="3" stroke-miterlimit="10"/>
<path d="M265.546 273.632C267.663 263.947 263.29 254.765 255.779 253.123C248.268 251.482 240.463 258.003 238.347 267.689C236.23 277.374 240.603 286.556 248.114 288.198C255.625 289.839 263.43 283.318 265.546 273.632Z" fill="#892A09" stroke="#5F190F" stroke-width="3" stroke-miterlimit="10"/>
<path d="M256.73 262.421C265.53 270.491 252.43 286.901 239.52 300.541C226.87 313.891 203.22 313.491 197.2 298.201C188.2 275.331 213.39 279.621 223.54 276.001C249.26 266.801 246.17 252.741 256.73 262.421Z" fill="#EF4B24"/>
<path opacity="0.3" d="M213.24 308.772C226.61 311.762 253.03 292.832 259.25 272.142C240.29 286.052 214.12 298.002 199.79 296.052C200.19 300.942 203.42 306.622 213.24 308.772Z" fill="#5F190F"/>
<path d="M256.73 262.421C265.53 270.491 252.43 286.901 239.52 300.541C226.87 313.891 203.22 313.491 197.2 298.201C188.2 275.331 213.39 279.621 223.54 276.001C249.26 266.801 246.17 252.741 256.73 262.421Z" stroke="#5F190F" stroke-width="4" stroke-miterlimit="10"/>
<path d="M204.897 302.134C207.404 297.225 207.02 292.012 204.039 290.49C201.058 288.967 196.61 291.713 194.103 296.622C191.596 301.531 191.98 306.744 194.961 308.266C197.942 309.788 202.39 307.043 204.897 302.134Z" fill="#892A09" stroke="#5F190F" stroke-width="3" stroke-miterlimit="10"/>
<path d="M217.103 305.999C219.432 301.57 218.946 296.732 216.018 295.192C213.09 293.652 208.829 295.995 206.5 300.423C204.171 304.852 204.657 309.691 207.585 311.23C210.513 312.77 214.775 310.428 217.103 305.999Z" fill="#892A09" stroke="#5F190F" stroke-width="3" stroke-miterlimit="10"/>
<path d="M229.52 282.651C224.58 278.921 207.74 276.911 202.85 280.011" stroke="#5F190F" stroke-width="3" stroke-miterlimit="10" stroke-linecap="round" stroke-linejoin="round"/>
<circle cx="19.5" cy="20.5" r="2.5" fill="#FF6F3D"/>
<path d="M314.194 77.2718C314.099 75.4628 312.544 74.0778 310.714 74.1737C309.596 74.2323 308.641 74.8337 308.084 75.7064C307.44 74.8966 306.427 74.3984 305.309 74.457C303.479 74.5528 302.077 76.0929 302.171 77.9019C302.226 78.9356 303.075 80.2418 303.661 81.005C304.864 82.5685 308.561 85.0101 308.561 85.0101C308.561 85.0101 311.983 82.1017 313.029 80.6795C313.732 79.7219 314.256 78.3437 314.2 77.277L314.194 77.2718Z" fill="#FF6F3D"/>
<path d="M493.604 34.2243C494.848 33.1428 494.97 31.2511 493.876 29.9929C493.208 29.2242 492.241 28.876 491.304 28.9659C491.523 28.0499 491.313 27.0443 490.645 26.2755C489.551 25.0173 487.661 24.8744 486.417 25.9558C485.706 26.5738 485.245 27.9145 485.026 28.7627C484.579 30.5011 484.899 34.5199 484.899 34.5199C484.899 34.5199 488.902 35.3443 490.508 35.2978C491.588 35.2652 492.87 34.8691 493.604 34.2314L493.604 34.2243Z" fill="#FF6F3D"/>
<path d="M39.9459 300.408C38.1913 301.043 37.2915 302.991 37.9332 304.765C38.3253 305.849 39.2038 306.611 40.2304 306.899C39.6251 307.776 39.4371 308.924 39.8291 310.008C40.4708 311.783 42.4082 312.704 44.1628 312.07C45.1654 311.707 46.199 310.48 46.7758 309.673C47.957 308.02 49.2579 303.647 49.2579 303.647C49.2579 303.647 45.3678 301.144 43.6531 300.538C42.4992 300.132 40.9839 300.027 39.9493 300.401L39.9459 300.408Z" fill="#FF6F3D"/>
<path d="M206.57 52.0201C205.93 50.9042 204.501 50.5252 203.373 51.1722C202.683 51.5675 202.271 52.2548 202.199 52.9862C201.531 52.6797 200.729 52.6886 200.04 53.0839C198.912 53.731 198.518 55.1564 199.158 56.2723C199.523 56.9099 200.48 57.4656 201.096 57.7613C202.359 58.3665 205.484 58.7291 205.484 58.7291C205.484 58.7291 206.718 55.7894 206.925 54.5529C207.063 53.721 206.953 52.6796 206.576 52.0215L206.57 52.0201Z" fill="#95C03D"/>
<path d="M577.443 53.6874C577.302 51.7174 575.578 50.2397 573.587 50.3819C572.37 50.4688 571.342 51.1442 570.754 52.107C570.035 51.2375 568.92 50.7153 567.704 50.8022C565.713 50.9444 564.216 52.6522 564.357 54.6222C564.437 55.7479 565.39 57.1544 566.044 57.9743C567.387 59.6538 571.465 62.2393 571.465 62.2393C571.465 62.2393 575.133 58.9981 576.244 57.4263C576.989 56.3679 577.532 54.8546 577.449 53.693L577.443 53.6874Z" fill="#95C03D"/>
<path d="M73.4151 230.872C74.4901 232.025 76.3016 232.078 77.467 230.992C78.179 230.328 78.4791 229.393 78.3617 228.5C79.2443 228.679 80.198 228.445 80.91 227.781C82.0754 226.694 82.1484 224.884 81.0733 223.731C80.4589 223.072 79.1624 222.676 78.3447 222.495C76.6688 222.125 72.8398 222.564 72.8398 222.564C72.8398 222.564 72.1868 226.416 72.2852 227.949C72.3527 228.98 72.7743 230.192 73.4082 230.872L73.4151 230.872Z" fill="#95C03D"/>
<path d="M582.975 249.799C582.589 248.252 581.013 247.316 579.449 247.706C578.493 247.945 577.769 248.625 577.435 249.472C576.742 248.881 575.784 248.62 574.828 248.858C573.264 249.248 572.312 250.814 572.698 252.362C572.918 253.246 573.871 254.232 574.505 254.793C575.807 255.942 579.409 257.431 579.409 257.431C579.409 257.431 581.876 254.344 582.541 252.939C582.987 251.994 583.208 250.715 582.981 249.803L582.975 249.799Z" fill="#95C03D"/>
<path d="M104.269 31.0476C103.45 29.5754 101.584 29.0551 100.095 29.8836C99.1858 30.3898 98.634 31.2831 98.5265 32.2397C97.6568 31.827 96.6069 31.8253 95.6975 32.3315C94.209 33.1601 93.668 35.0202 94.4875 36.4924C94.9557 37.3336 96.1994 38.0774 97.0015 38.4749C98.6456 39.2888 102.732 39.8159 102.732 39.8159C102.732 39.8159 104.399 35.9866 104.691 34.3707C104.886 33.2834 104.759 31.9177 104.276 31.0496L104.269 31.0476Z" fill="#60C1E8"/>
<path d="M620.067 304.503C619.4 302.567 617.279 301.547 615.322 302.221C614.126 302.633 613.276 303.583 612.943 304.705C611.991 304.026 610.735 303.8 609.54 304.212C607.582 304.886 606.539 306.996 607.205 308.931C607.586 310.037 608.915 311.192 609.79 311.839C611.583 313.162 616.359 314.664 616.359 314.664C616.359 314.664 619.169 310.439 619.863 308.568C620.328 307.309 620.468 305.648 620.075 304.507L620.067 304.503Z" fill="#60C1E8"/>
<path d="M75.8498 142.733C74.2506 142.004 72.362 142.722 71.6254 144.339C71.1753 145.327 71.2651 146.419 71.767 147.288C70.7815 147.48 69.8991 148.129 69.449 149.117C68.7124 150.734 69.4098 152.63 71.009 153.358C71.9228 153.775 73.4272 153.629 74.3466 153.466C76.2306 153.132 79.987 151.045 79.987 151.045C79.987 151.045 79.0161 146.798 78.2607 145.261C77.7512 144.228 76.7999 143.16 75.8569 142.73L75.8498 142.733Z" fill="#60C1E8"/>
<path d="M437.188 52.9019C436.697 51.2146 434.92 50.2519 433.214 50.7485C432.172 51.0519 431.404 51.8319 431.072 52.7796C430.283 52.158 429.216 51.9123 428.174 52.2157C426.468 52.7123 425.486 54.478 425.977 56.1653C426.258 57.1295 427.349 58.1747 428.072 58.7653C429.555 59.9748 433.587 61.4602 433.587 61.4602C433.587 61.4602 436.172 57.954 436.844 56.3787C437.295 55.3185 437.484 53.9005 437.195 52.9055L437.188 52.9019Z" fill="#60C1E8"/>
<path d="M608.076 154.573C609.017 152.734 608.274 150.479 606.414 149.528C605.279 148.947 603.992 148.995 602.945 149.538C602.772 148.371 602.057 147.3 600.921 146.719C599.062 145.769 596.799 146.487 595.858 148.326C595.321 149.376 595.412 151.15 595.554 152.238C595.847 154.468 598.098 158.989 598.098 158.989C598.098 158.989 603.135 158.075 604.98 157.27C606.22 156.726 607.525 155.666 608.079 154.582L608.076 154.573Z" fill="#60C1E8"/>
<circle cx="68.3185" cy="80.3186" r="1.84" transform="rotate(-162 68.3185 80.3186)" fill="#60C1E8"/>
<circle cx="323.038" cy="3.03796" r="2.16" transform="rotate(-141 323.038 3.03796)" fill="#60C1E8"/>
<circle cx="13.9779" cy="249.978" r="2.18" transform="rotate(-30 13.9779 249.978)" fill="#60C1E8"/>
<circle cx="623.145" cy="200.145" r="1.54" transform="rotate(35 623.145 200.145)" fill="#60C1E8"/>
<circle cx="21.708" cy="143.708" r="1.44" transform="rotate(102 21.708 143.708)" fill="#FF6F3D"/>
<circle cx="620.259" cy="19.2584" r="2.22" transform="rotate(-179 620.259 19.2584)" fill="#FF6F3D"/>
<circle cx="557.258" cy="328.258" r="2.22" transform="rotate(-179 557.258 328.258)" fill="#FF6F3D"/>
<circle cx="159.325" cy="28.3247" r="1.66" transform="rotate(53 159.325 28.3247)" fill="#FF6F3D"/>
<circle cx="417.325" cy="102.325" r="1.66" transform="rotate(53 417.325 102.325)" fill="#95C03D"/>
<circle cx="511.415" cy="210.48" r="2.32" transform="rotate(173 511.415 210.48)" fill="#FF6F3D"/>
</g>
<defs>
<linearGradient id="paint0_linear_36_1980" x1="130.907" y1="299.649" x2="130.467" y2="287.884" gradientUnits="userSpaceOnUse">
<stop stop-color="#DEEDC9"/>
<stop offset="0.6606" stop-color="#8BBA25"/>
</linearGradient>
<clipPath id="clip0_36_1980">
<rect width="640" height="354" fill="white"/>
</clipPath>
</defs>
</svg>
