<svg width="640" height="464" viewBox="0 0 640 464" fill="none" xmlns="http://www.w3.org/2000/svg">
<path d="M435.295 53H464.276C465.841 53 467.201 54.09 467.53 55.6055L469.216 63.375L469.217 63.376C470.086 67.3704 473.004 70.4715 476.636 71.9932L476.64 71.9951C480.274 73.4996 484.528 73.3675 487.968 71.1533L487.969 71.1543L494.64 66.8643L494.641 66.8652C495.965 66.0163 497.682 66.2015 498.794 67.3154L519.279 87.833C520.392 88.9476 520.577 90.6699 519.729 91.998L515.432 98.6611L515.429 98.665C513.218 102.128 513.107 106.387 514.607 110.024L514.609 110.028C516.128 113.664 519.223 116.588 523.213 117.459H523.214L530.971 119.147C532.484 119.477 533.572 120.823 533.572 122.408V151.437C533.572 153.002 532.486 154.351 530.971 154.681L523.214 156.369H523.213C519.223 157.24 516.128 160.164 514.609 163.8L514.607 163.804C513.107 167.44 513.217 171.718 515.43 175.165L515.431 175.166L519.73 181.851L519.731 181.852C520.577 183.161 520.39 184.895 519.283 185.99L519.278 185.995L498.799 206.525C497.686 207.627 495.966 207.812 494.641 206.963H494.64L487.968 202.674C484.636 200.529 480.538 200.338 476.979 201.714L476.64 201.851C473.004 203.355 470.086 206.458 469.217 210.452L469.216 210.453L467.53 218.223C467.2 219.744 465.835 220.846 464.276 220.846H435.295C433.741 220.846 432.39 219.749 432.059 218.223L430.373 210.453V210.452L430.285 210.08C429.32 206.266 426.471 203.308 422.949 201.851C419.313 200.329 415.042 200.46 411.604 202.674L404.931 206.964L404.928 206.966C403.621 207.812 401.889 207.626 400.795 206.53L380.293 185.995C379.199 184.899 379.013 183.162 379.858 181.852L379.859 181.849L384.142 175.164L384.143 175.165C386.284 171.828 386.474 167.708 385.101 164.143L384.963 163.8C383.46 160.162 380.364 157.24 376.376 156.369H376.375L368.618 154.681C367.097 154.349 366 152.996 366 151.437V122.408C366 120.829 367.099 119.478 368.618 119.147L376.375 117.459H376.376C380.365 116.588 383.463 113.664 384.965 110.024L384.964 110.023C386.484 106.381 386.351 102.124 384.144 98.665L384.142 98.6631L379.859 91.9961C379.013 90.6692 379.196 88.9478 380.292 87.833L380.293 87.834L400.795 67.3154L400.8 67.3115C401.893 66.2032 403.622 66.0166 404.928 66.8623L404.931 66.8643L411.604 71.1533C415.043 73.3681 419.315 73.4997 422.95 71.9951L422.954 71.9932C426.585 70.4715 429.504 67.3704 430.373 63.376V63.375L432.059 55.6055C432.389 54.0854 433.735 53.0002 435.295 53ZM449.795 104.388C431.887 104.388 417.302 118.98 417.302 136.914C417.302 154.847 431.887 169.458 449.795 169.458C467.704 169.458 482.271 154.847 482.271 136.914C482.27 118.981 467.703 104.388 449.795 104.388Z" fill="url(#paint0_linear_4767_4916)" fill-opacity="0.2" stroke="url(#paint1_linear_4767_4916)" stroke-width="2"/>
<path d="M331.907 277H351.089C352.439 277 353.596 277.936 353.878 279.257L354.99 284.381C355.524 286.787 357.29 288.688 359.515 289.609C361.755 290.544 364.336 290.455 366.413 289.119L370.819 286.282C371.961 285.554 373.445 285.718 374.394 286.653L387.953 300.242C388.903 301.193 389.066 302.678 388.339 303.807L385.491 308.232C384.155 310.296 384.081 312.895 385.001 315.123C385.921 317.366 387.82 319.133 390.223 319.653L395.356 320.767C396.661 321.049 397.596 322.222 397.596 323.559V342.761C397.596 344.098 396.661 345.271 395.356 345.553L390.223 346.667C387.82 347.187 385.921 348.954 385.001 351.197C384.081 353.425 384.155 356.024 385.491 358.088L388.339 362.513C389.066 363.642 388.903 365.127 387.953 366.078L374.394 379.652C373.445 380.602 371.961 380.766 370.819 380.038L366.413 377.201C364.336 375.865 361.755 375.776 359.515 376.711C357.29 377.632 355.524 379.533 354.99 381.939L353.878 387.063C353.596 388.384 352.439 389.32 351.089 389.32H331.907C330.572 389.32 329.4 388.384 329.118 387.063L328.006 381.939C327.487 379.533 325.721 377.632 323.481 376.711C321.256 375.776 318.66 375.865 316.598 377.201L312.177 380.038C311.05 380.766 309.566 380.602 308.617 379.652L295.058 366.078C294.108 365.127 293.945 363.642 294.672 362.513L297.506 358.088C298.841 356.024 298.93 353.425 297.995 351.197C297.075 348.954 295.191 347.187 292.788 346.667L287.655 345.553C286.335 345.271 285.4 344.098 285.4 342.761V323.559C285.4 322.222 286.335 321.049 287.655 320.767L292.788 319.653C295.191 319.133 297.075 317.366 297.995 315.123C298.93 312.895 298.841 310.296 297.506 308.232L294.672 303.807C293.945 302.678 294.108 301.193 295.058 300.242L308.617 286.653C309.566 285.718 311.05 285.554 312.177 286.282L316.598 289.119C318.66 290.455 321.256 290.544 323.481 289.609C325.721 288.688 327.487 286.787 328.006 284.381L329.118 279.257C329.4 277.936 330.572 277 331.907 277ZM341.505 312.301C330.023 312.301 320.677 321.658 320.677 333.153C320.677 344.662 330.023 354.019 341.505 354.019C352.988 354.019 362.333 344.662 362.333 333.153C362.333 321.658 352.988 312.301 341.505 312.301Z" stroke="url(#paint2_linear_4767_4916)" stroke-width="2" stroke-miterlimit="22.9256"/>
<path d="M472.354 293.105C472.74 293.595 473.407 293.743 473.971 293.476L476.537 292.199C477.813 291.575 479.297 291.694 480.513 292.362C481.729 293.045 482.62 294.233 482.768 295.659L483.05 298.51C483.124 299.134 483.599 299.624 484.222 299.699L494.606 300.887C495.229 300.946 495.808 300.59 496.015 299.996L496.935 297.278C497.395 295.926 498.537 294.961 499.872 294.575C501.208 294.189 502.676 294.411 503.789 295.317L505.999 297.129C506.489 297.515 507.171 297.515 507.661 297.129L515.849 290.61C516.294 290.253 516.458 289.644 516.25 289.11L516.205 289.006L514.945 286.421C514.307 285.144 514.425 283.659 515.108 282.441C515.775 281.224 516.977 280.332 518.401 280.184L521.249 279.902C521.858 279.828 522.347 279.352 522.421 278.729L523.608 268.333C523.682 267.709 523.311 267.13 522.718 266.922L520.003 266.001C518.653 265.541 517.689 264.397 517.303 263.06C516.918 261.739 517.14 260.254 518.045 259.14L519.855 256.927C520.241 256.437 520.255 255.754 519.87 255.264L513.357 247.066C512.971 246.59 512.289 246.442 511.74 246.709L509.174 247.972C507.883 248.61 506.4 248.491 505.183 247.808C503.967 247.14 503.077 245.937 502.928 244.511L502.646 241.66C502.587 241.051 502.098 240.561 501.489 240.487L491.09 239.298C490.467 239.224 489.889 239.595 489.696 240.19L488.776 242.907C488.316 244.259 487.174 245.224 485.839 245.61C484.504 245.996 483.02 245.774 481.922 244.868L479.697 243.056C479.222 242.67 478.525 242.655 478.036 243.041L469.862 249.561C469.372 249.947 469.224 250.63 469.491 251.179L470.767 253.749C471.39 255.041 471.271 256.526 470.603 257.744C469.921 258.962 468.734 259.853 467.31 260.001L464.462 260.283C463.839 260.343 463.349 260.833 463.275 261.457L462.088 271.852C462.029 272.476 462.4 273.055 462.978 273.248L465.693 274.169C467.043 274.63 468.007 275.788 468.393 277.11C468.779 278.446 468.556 279.931 467.651 281.045L465.841 283.258C465.456 283.733 465.456 284.431 465.841 284.922L472.354 293.105ZM500.08 279.174C495.066 283.169 487.752 282.337 483.777 277.318C479.786 272.313 480.617 264.991 485.631 260.996C490.63 257.016 497.944 257.848 501.934 262.853C505.91 267.872 505.079 275.194 500.08 279.174Z" fill="url(#paint3_linear_4767_4916)"/>
<mask id="path-4-inside-1_4767_4916" fill="white">
<path d="M582.062 16.625L606.438 41H607V110C607 118.837 599.837 126 591 126H539C530.163 126 523 118.837 523 110V32C523 23.1634 530.163 16 539 16H582.062V16.625Z"/>
</mask>
<path d="M582.062 16.625L606.438 41H607V110C607 118.837 599.837 126 591 126H539C530.163 126 523 118.837 523 110V32C523 23.1634 530.163 16 539 16H582.062V16.625Z" fill="white"/>
<path d="M582.062 16.625H580.062V17.4534L580.648 18.0392L582.062 16.625ZM606.438 41L605.023 42.4142L605.609 43H606.438V41ZM607 41H609V39H607V41ZM591 126V128V126ZM539 16V14V16ZM582.062 16H584.062V14H582.062V16ZM582.062 16.625L580.648 18.0392L605.023 42.4142L606.438 41L607.852 39.5858L583.477 15.2108L582.062 16.625ZM606.438 41V43H607V41V39H606.438V41ZM607 41H605V110H607H609V41H607ZM607 110H605C605 117.732 598.732 124 591 124V126V128C600.941 128 609 119.941 609 110H607ZM591 126V124H539V126V128H591V126ZM539 126V124C531.268 124 525 117.732 525 110H523H521C521 119.941 529.059 128 539 128V126ZM523 110H525V32H523H521V110H523ZM523 32H525C525 24.268 531.268 18 539 18V16V14C529.059 14 521 22.0589 521 32H523ZM539 16V18H582.062V16V14H539V16ZM582.062 16H580.062V16.625H582.062H584.062V16H582.062Z" fill="url(#paint4_linear_4767_4916)" mask="url(#path-4-inside-1_4767_4916)"/>
<mask id="path-6-inside-2_4767_4916" fill="white">
<path d="M607 40.9258V42H588C584.134 42 581 38.866 581 35V16H582.074L607 40.9258Z"/>
</mask>
<path d="M607 40.9258V42H588C584.134 42 581 38.866 581 35V16H582.074L607 40.9258Z" fill="url(#paint5_linear_4767_4916)"/>
<path d="M607 40.9258H609V40.0974L608.414 39.5116L607 40.9258ZM607 42V44H609V42H607ZM588 42V44V42ZM581 35H579H581ZM581 16V14H579V16H581ZM582.074 16L583.488 14.5858L582.903 14H582.074V16ZM607 40.9258H605V42H607H609V40.9258H607ZM607 42V40H588V42V44H607V42ZM588 42V40C585.239 40 583 37.7614 583 35H581H579C579 39.9706 583.029 44 588 44V42ZM581 35H583V16H581H579V35H581ZM581 16V18H582.074V16V14H581V16ZM582.074 16L580.66 17.4142L605.586 42.34L607 40.9258L608.414 39.5116L583.488 14.5858L582.074 16Z" fill="url(#paint6_linear_4767_4916)" mask="url(#path-6-inside-2_4767_4916)"/>
<path d="M553.071 47H577.514C578.757 47 580 47.8571 580 48.7143V55.2857C580 56.1429 578.757 57 577.514 57H553.071C551.829 57 551 56.1429 551 55.2857V48.7143C551 47.8571 551.829 47 553.071 47Z" fill="#705BF4"/>
<path d="M539.286 86H550.257C551.629 86 553 87.3714 553 88.7429V99.7143C553 101.086 551.629 102 550.257 102H539.286C537.914 102 537 101.086 537 99.7143V88.7429C537 87.3714 537.914 86 539.286 86Z" fill="#705BF4"/>
<path d="M580.286 86H591.257C592.629 86 594 87.3714 594 88.7429V99.7143C594 101.086 592.629 102 591.257 102H580.286C578.914 102 578 101.086 578 99.7143V88.7429C578 87.3714 578.914 86 580.286 86Z" fill="#705BF4"/>
<path d="M555.623 70.3839L564.34 61.6256C565.17 60.7915 566.83 60.7915 567.66 61.6256L576.377 70.3839C577.208 71.218 577.208 72.8863 576.377 73.7204L567.66 82.0616C566.83 83.3128 565.17 83.3128 564.34 82.0616L555.623 73.7204C554.792 72.8863 554.792 71.218 555.623 70.3839Z" fill="#705BF4"/>
<path d="M545 86V77C545 74.2386 547.239 72 550 72H581C583.761 72 586 74.2386 586 77V86" stroke="#705BF4" stroke-width="4"/>
<mask id="path-13-inside-3_4767_4916" fill="white">
<path d="M383.062 16.625L407.438 41H408V110C408 118.837 400.837 126 392 126H340C331.163 126 324 118.837 324 110V32C324 23.1634 331.163 16 340 16H383.062V16.625Z"/>
</mask>
<path d="M383.062 16.625L407.438 41H408V110C408 118.837 400.837 126 392 126H340C331.163 126 324 118.837 324 110V32C324 23.1634 331.163 16 340 16H383.062V16.625Z" fill="white"/>
<path d="M383.062 16.625H381.062V17.4534L381.648 18.0392L383.062 16.625ZM407.438 41L406.023 42.4142L406.609 43H407.438V41ZM408 41H410V39H408V41ZM392 126V128V126ZM340 16V14V16ZM383.062 16H385.062V14H383.062V16ZM383.062 16.625L381.648 18.0392L406.023 42.4142L407.438 41L408.852 39.5858L384.477 15.2108L383.062 16.625ZM407.438 41V43H408V41V39H407.438V41ZM408 41H406V110H408H410V41H408ZM408 110H406C406 117.732 399.732 124 392 124V126V128C401.941 128 410 119.941 410 110H408ZM392 126V124H340V126V128H392V126ZM340 126V124C332.268 124 326 117.732 326 110H324H322C322 119.941 330.059 128 340 128V126ZM324 110H326V32H324H322V110H324ZM324 32H326C326 24.268 332.268 18 340 18V16V14C330.059 14 322 22.0589 322 32H324ZM340 16V18H383.062V16V14H340V16ZM383.062 16H381.062V16.625H383.062H385.062V16H383.062Z" fill="url(#paint7_linear_4767_4916)" mask="url(#path-13-inside-3_4767_4916)"/>
<mask id="path-15-inside-4_4767_4916" fill="white">
<path d="M408 40.9258V42H389C385.134 42 382 38.866 382 35V16H383.074L408 40.9258Z"/>
</mask>
<path d="M408 40.9258V42H389C385.134 42 382 38.866 382 35V16H383.074L408 40.9258Z" fill="url(#paint8_linear_4767_4916)"/>
<path d="M408 40.9258H410V40.0974L409.414 39.5116L408 40.9258ZM408 42V44H410V42H408ZM389 42V44V42ZM382 35H380H382ZM382 16V14H380V16H382ZM383.074 16L384.488 14.5858L383.903 14H383.074V16ZM408 40.9258H406V42H408H410V40.9258H408ZM408 42V40H389V42V44H408V42ZM389 42V40C386.239 40 384 37.7614 384 35H382H380C380 39.9706 384.029 44 389 44V42ZM382 35H384V16H382H380V35H382ZM382 16V18H383.074V16V14H382V16ZM383.074 16L381.66 17.4142L406.586 42.34L408 40.9258L409.414 39.5116L384.488 14.5858L383.074 16Z" fill="url(#paint9_linear_4767_4916)" mask="url(#path-15-inside-4_4767_4916)"/>
<path fill-rule="evenodd" clip-rule="evenodd" d="M367.686 73.7934C366.033 73.7934 365.207 72.9669 365.207 71.3141V51.4794C365.207 50.2397 363.967 49 362.727 49C349.917 50.2397 340 60.9835 340 73.7934C340 87.843 351.157 99 365.207 99C378.017 99 388.76 89.0826 390 76.2727C390 75.0331 389.174 73.7934 387.934 73.7934H367.686Z" fill="#F3954F"/>
<path fill-rule="evenodd" clip-rule="evenodd" d="M372 65.9322C372 67.1729 373.222 68 374.444 68H391.963C393.185 68 394 67.1729 394 65.9322C392.778 55.1795 384.63 46.9082 374.444 46.0811C373.222 45.6676 372 46.9083 372 48.1489V65.9322Z" fill="#F3954F"/>
<mask id="path-19-inside-5_4767_4916" fill="white">
<path d="M283.062 16.625L307.438 41H308V110C308 118.837 300.837 126 292 126H240C231.163 126 224 118.837 224 110V32C224 23.1634 231.163 16 240 16H283.062V16.625Z"/>
</mask>
<path d="M283.062 16.625L307.438 41H308V110C308 118.837 300.837 126 292 126H240C231.163 126 224 118.837 224 110V32C224 23.1634 231.163 16 240 16H283.062V16.625Z" fill="white"/>
<path d="M283.062 16.625H281.062V17.4534L281.648 18.0392L283.062 16.625ZM307.438 41L306.023 42.4142L306.609 43H307.438V41ZM308 41H310V39H308V41ZM292 126V128V126ZM240 16V14V16ZM283.062 16H285.062V14H283.062V16ZM283.062 16.625L281.648 18.0392L306.023 42.4142L307.438 41L308.852 39.5858L284.477 15.2108L283.062 16.625ZM307.438 41V43H308V41V39H307.438V41ZM308 41H306V110H308H310V41H308ZM308 110H306C306 117.732 299.732 124 292 124V126V128C301.941 128 310 119.941 310 110H308ZM292 126V124H240V126V128H292V126ZM240 126V124C232.268 124 226 117.732 226 110H224H222C222 119.941 230.059 128 240 128V126ZM224 110H226V32H224H222V110H224ZM224 32H226C226 24.268 232.268 18 240 18V16V14C230.059 14 222 22.0589 222 32H224ZM240 16V18H283.062V16V14H240V16ZM283.062 16H281.062V16.625H283.062H285.062V16H283.062Z" fill="url(#paint10_linear_4767_4916)" mask="url(#path-19-inside-5_4767_4916)"/>
<mask id="path-21-inside-6_4767_4916" fill="white">
<path d="M308 40.9258V42H289C285.134 42 282 38.866 282 35V16H283.074L308 40.9258Z"/>
</mask>
<path d="M308 40.9258V42H289C285.134 42 282 38.866 282 35V16H283.074L308 40.9258Z" fill="url(#paint11_linear_4767_4916)"/>
<path d="M308 40.9258H310V40.0974L309.414 39.5116L308 40.9258ZM308 42V44H310V42H308ZM289 42V44V42ZM282 35H280H282ZM282 16V14H280V16H282ZM283.074 16L284.488 14.5858L283.903 14H283.074V16ZM308 40.9258H306V42H308H310V40.9258H308ZM308 42V40H289V42V44H308V42ZM289 42V40C286.239 40 284 37.7614 284 35H282H280C280 39.9706 284.029 44 289 44V42ZM282 35H284V16H282H280V35H282ZM282 16V18H283.074V16V14H282V16ZM283.074 16L281.66 17.4142L306.586 42.34L308 40.9258L309.414 39.5116L284.488 14.5858L283.074 16Z" fill="url(#paint12_linear_4767_4916)" mask="url(#path-21-inside-6_4767_4916)"/>
<path d="M241.418 56H290.582C292.194 56 293 56.8172 293 58.043V91.5484C293 92.7742 292.194 94 290.582 94H241.418C240.209 94 239 92.7742 239 91.5484V58.043C239 56.8172 240.209 56 241.418 56Z" fill="#73C405"/>
<path d="M293 70H239V80H293V70Z" fill="white"/>
<path d="M255 56L255 94L265 94L265 56L255 56Z" fill="white"/>
<mask id="path-26-inside-7_4767_4916" fill="white">
<path d="M483.062 16.625L507.438 41H508V110C508 118.837 500.837 126 492 126H440C431.163 126 424 118.837 424 110V32C424 23.1634 431.163 16 440 16H483.062V16.625Z"/>
</mask>
<path d="M483.062 16.625L507.438 41H508V110C508 118.837 500.837 126 492 126H440C431.163 126 424 118.837 424 110V32C424 23.1634 431.163 16 440 16H483.062V16.625Z" fill="white"/>
<path d="M483.062 16.625H481.062V17.4534L481.648 18.0392L483.062 16.625ZM507.438 41L506.023 42.4142L506.609 43H507.438V41ZM508 41H510V39H508V41ZM492 126V128V126ZM440 16V14V16ZM483.062 16H485.062V14H483.062V16ZM483.062 16.625L481.648 18.0392L506.023 42.4142L507.438 41L508.852 39.5858L484.477 15.2108L483.062 16.625ZM507.438 41V43H508V41V39H507.438V41ZM508 41H506V110H508H510V41H508ZM508 110H506C506 117.732 499.732 124 492 124V126V128C501.941 128 510 119.941 510 110H508ZM492 126V124H440V126V128H492V126ZM440 126V124C432.268 124 426 117.732 426 110H424H422C422 119.941 430.059 128 440 128V126ZM424 110H426V32H424H422V110H424ZM424 32H426C426 24.268 432.268 18 440 18V16V14C430.059 14 422 22.0589 422 32H424ZM440 16V18H483.062V16V14H440V16ZM483.062 16H481.062V16.625H483.062H485.062V16H483.062Z" fill="url(#paint13_linear_4767_4916)" mask="url(#path-26-inside-7_4767_4916)"/>
<mask id="path-28-inside-8_4767_4916" fill="white">
<path d="M508 40.9258V42H489C485.134 42 482 38.866 482 35V16H483.074L508 40.9258Z"/>
</mask>
<path d="M508 40.9258V42H489C485.134 42 482 38.866 482 35V16H483.074L508 40.9258Z" fill="url(#paint14_linear_4767_4916)"/>
<path d="M508 40.9258H510V40.0974L509.414 39.5116L508 40.9258ZM508 42V44H510V42H508ZM489 42V44V42ZM482 35H480H482ZM482 16V14H480V16H482ZM483.074 16L484.488 14.5858L483.903 14H483.074V16ZM508 40.9258H506V42H508H510V40.9258H508ZM508 42V40H489V42V44H508V42ZM489 42V40C486.239 40 484 37.7614 484 35H482H480C480 39.9706 484.029 44 489 44V42ZM482 35H484V16H482H480V35H482ZM482 16V18H483.074V16V14H482V16ZM483.074 16L481.66 17.4142L506.586 42.34L508 40.9258L509.414 39.5116L484.488 14.5858L483.074 16Z" fill="url(#paint15_linear_4767_4916)" mask="url(#path-28-inside-8_4767_4916)"/>
<path d="M450.5 80C456.851 80 462 74.8513 462 68.5C462 62.1487 456.851 57 450.5 57C444.149 57 439 62.1487 439 68.5C439 74.8513 444.149 80 450.5 80Z" fill="#F86356"/>
<rect x="439" y="89" width="54" height="6" rx="3" fill="#F86356"/>
<rect x="468" y="73" width="25" height="6" rx="3" fill="#F86356"/>
<rect x="468" y="57" width="25" height="6" rx="3" fill="#F86356"/>
<mask id="path-34-inside-9_4767_4916" fill="white">
<path d="M183.062 16.625L207.438 41H208V110C208 118.837 200.837 126 192 126H140C131.163 126 124 118.837 124 110V32C124 23.1634 131.163 16 140 16H183.062V16.625Z"/>
</mask>
<path d="M183.062 16.625L207.438 41H208V110C208 118.837 200.837 126 192 126H140C131.163 126 124 118.837 124 110V32C124 23.1634 131.163 16 140 16H183.062V16.625Z" fill="white"/>
<path d="M183.062 16.625H181.062V17.4534L181.648 18.0392L183.062 16.625ZM207.438 41L206.023 42.4142L206.609 43H207.438V41ZM208 41H210V39H208V41ZM192 126V128V126ZM140 16V14V16ZM183.062 16H185.062V14H183.062V16ZM183.062 16.625L181.648 18.0392L206.023 42.4142L207.438 41L208.852 39.5858L184.477 15.2108L183.062 16.625ZM207.438 41V43H208V41V39H207.438V41ZM208 41H206V110H208H210V41H208ZM208 110H206C206 117.732 199.732 124 192 124V126V128C201.941 128 210 119.941 210 110H208ZM192 126V124H140V126V128H192V126ZM140 126V124C132.268 124 126 117.732 126 110H124H122C122 119.941 130.059 128 140 128V126ZM124 110H126V32H124H122V110H124ZM124 32H126C126 24.268 132.268 18 140 18V16V14C130.059 14 122 22.0589 122 32H124ZM140 16V18H183.062V16V14H140V16ZM183.062 16H181.062V16.625H183.062H185.062V16H183.062Z" fill="url(#paint16_linear_4767_4916)" mask="url(#path-34-inside-9_4767_4916)"/>
<mask id="path-36-inside-10_4767_4916" fill="white">
<path d="M208 40.9258V42H189C185.134 42 182 38.866 182 35V16H183.074L208 40.9258Z"/>
</mask>
<path d="M208 40.9258V42H189C185.134 42 182 38.866 182 35V16H183.074L208 40.9258Z" fill="url(#paint17_linear_4767_4916)"/>
<path d="M208 40.9258H210V40.0974L209.414 39.5116L208 40.9258ZM208 42V44H210V42H208ZM189 42V44V42ZM182 35H180H182ZM182 16V14H180V16H182ZM183.074 16L184.488 14.5858L183.903 14H183.074V16ZM208 40.9258H206V42H208H210V40.9258H208ZM208 42V40H189V42V44H208V42ZM189 42V40C186.239 40 184 37.7614 184 35H182H180C180 39.9706 184.029 44 189 44V42ZM182 35H184V16H182H180V35H182ZM182 16V18H183.074V16V14H182V16ZM183.074 16L181.66 17.4142L206.586 42.34L208 40.9258L209.414 39.5116L184.488 14.5858L183.074 16Z" fill="url(#paint18_linear_4767_4916)" mask="url(#path-36-inside-10_4767_4916)"/>
<rect x="139" y="88" width="28" height="6" rx="3" fill="#5FC1E8"/>
<rect x="139" y="72" width="54" height="6" rx="3" fill="#5FC1E8"/>
<rect x="139" y="56" width="54" height="6" rx="3" fill="#5FC1E8"/>
<mask id="path-41-inside-11_4767_4916" fill="white">
<path d="M341.633 177.189C343.018 179.813 345.741 181.455 348.708 181.455H472.141C479.872 181.455 486.14 187.722 486.141 195.454V313.455C486.14 321.187 479.872 327.455 472.141 327.455H259.141C251.409 327.455 245.141 321.187 245.141 313.455V212.986C245.049 212.338 245 211.675 245 211.001V170C245 162.268 251.268 156 259 156H325.626C328.593 156 331.316 157.642 332.701 160.266L341.633 177.189Z"/>
</mask>
<path d="M341.633 177.189C343.018 179.813 345.741 181.455 348.708 181.455H472.141C479.872 181.455 486.14 187.722 486.141 195.454V313.455C486.14 321.187 479.872 327.455 472.141 327.455H259.141C251.409 327.455 245.141 321.187 245.141 313.455V212.986C245.049 212.338 245 211.675 245 211.001V170C245 162.268 251.268 156 259 156H325.626C328.593 156 331.316 157.642 332.701 160.266L341.633 177.189Z" fill="#9ADAF3"/>
<path d="M486.141 195.454H490.141V195.454L486.141 195.454ZM486.141 313.455L490.141 313.455V313.455H486.141ZM472.141 327.455V331.455V327.455ZM245.141 313.455H241.141V313.455L245.141 313.455ZM245.141 212.986H249.141V212.704L249.101 212.424L245.141 212.986ZM245 211.001H241V211.001L245 211.001ZM245 170H241H245ZM348.708 181.455V185.455H472.141V181.455V177.455H348.708V181.455ZM472.141 181.455V185.455C477.664 185.455 482.14 189.932 482.141 195.454L486.141 195.454L490.141 195.454C490.14 185.513 482.081 177.455 472.141 177.455V181.455ZM486.141 195.454H482.141V313.455H486.141H490.141V195.454H486.141ZM486.141 313.455L482.141 313.455C482.14 318.978 477.663 323.455 472.141 323.455V327.455V331.455C482.082 331.455 490.14 323.396 490.141 313.455L486.141 313.455ZM472.141 327.455V323.455H259.141V327.455V331.455H472.141V327.455ZM259.141 327.455V323.455C253.618 323.455 249.141 318.978 249.141 313.455L245.141 313.455L241.141 313.455C241.141 323.396 249.2 331.455 259.141 331.455V327.455ZM245.141 313.455H249.141V212.986H245.141H241.141V313.455H245.141ZM245.141 212.986L249.101 212.424C249.035 211.958 249 211.483 249 211.001L245 211.001L241 211.001C241 211.867 241.062 212.718 241.18 213.549L245.141 212.986ZM245 211.001H249V170H245H241V211.001H245ZM245 170H249C249 164.477 253.477 160 259 160V156V152C249.059 152 241 160.059 241 170H245ZM259 156V160H325.626V156V152H259V156ZM332.701 160.266L329.163 162.133L338.096 179.056L341.633 177.189L345.171 175.322L336.238 158.399L332.701 160.266ZM325.626 156V160C327.109 160 328.471 160.821 329.163 162.133L332.701 160.266L336.238 158.399C334.161 154.463 330.076 152 325.626 152V156ZM348.708 181.455V177.455C347.225 177.455 345.863 176.634 345.171 175.322L341.633 177.189L338.096 179.056C340.173 182.992 344.258 185.455 348.708 185.455V181.455Z" fill="#385362" mask="url(#path-41-inside-11_4767_4916)"/>
<defs>
<linearGradient id="paint0_linear_4767_4916" x1="405.349" y1="85.6913" x2="510.489" y2="200.706" gradientUnits="userSpaceOnUse">
<stop stop-color="white"/>
<stop offset="1" stop-color="white" stop-opacity="0.2"/>
</linearGradient>
<linearGradient id="paint1_linear_4767_4916" x1="388.503" y1="76.3972" x2="588.908" y2="246.016" gradientUnits="userSpaceOnUse">
<stop stop-color="white"/>
<stop offset="1" stop-color="#FF6F3D"/>
</linearGradient>
<linearGradient id="paint2_linear_4767_4916" x1="285.401" y1="272.612" x2="397.725" y2="389.195" gradientUnits="userSpaceOnUse">
<stop stop-color="#FFC671"/>
<stop offset="0.59375" stop-color="#FF7541"/>
<stop offset="1" stop-color="#FF6F3D"/>
</linearGradient>
<linearGradient id="paint3_linear_4767_4916" x1="462.082" y1="236.883" x2="523.689" y2="300.824" gradientUnits="userSpaceOnUse">
<stop stop-color="#FFC671"/>
<stop offset="0.59375" stop-color="#FF7541"/>
<stop offset="1" stop-color="#FF6F3D"/>
</linearGradient>
<linearGradient id="paint4_linear_4767_4916" x1="523" y1="11.7031" x2="630.199" y2="96.7621" gradientUnits="userSpaceOnUse">
<stop stop-color="#FFC671"/>
<stop offset="0.59375" stop-color="#FF7541"/>
<stop offset="1" stop-color="#FF6F3D"/>
</linearGradient>
<linearGradient id="paint5_linear_4767_4916" x1="581" y1="14.9844" x2="607" y2="42" gradientUnits="userSpaceOnUse">
<stop stop-color="#FFC671"/>
<stop offset="0.59375" stop-color="#FF7541"/>
<stop offset="1" stop-color="#FF6F3D"/>
</linearGradient>
<linearGradient id="paint6_linear_4767_4916" x1="581" y1="14.9844" x2="607" y2="42" gradientUnits="userSpaceOnUse">
<stop stop-color="#FFC671"/>
<stop offset="0.59375" stop-color="#FF7541"/>
<stop offset="1" stop-color="#FF6F3D"/>
</linearGradient>
<linearGradient id="paint7_linear_4767_4916" x1="324" y1="11.7031" x2="431.199" y2="96.7621" gradientUnits="userSpaceOnUse">
<stop stop-color="#FFC671"/>
<stop offset="0.59375" stop-color="#FF7541"/>
<stop offset="1" stop-color="#FF6F3D"/>
</linearGradient>
<linearGradient id="paint8_linear_4767_4916" x1="382" y1="14.9844" x2="408" y2="42" gradientUnits="userSpaceOnUse">
<stop stop-color="#FFC671"/>
<stop offset="0.59375" stop-color="#FF7541"/>
<stop offset="1" stop-color="#FF6F3D"/>
</linearGradient>
<linearGradient id="paint9_linear_4767_4916" x1="382" y1="14.9844" x2="408" y2="42" gradientUnits="userSpaceOnUse">
<stop stop-color="#FFC671"/>
<stop offset="0.59375" stop-color="#FF7541"/>
<stop offset="1" stop-color="#FF6F3D"/>
</linearGradient>
<linearGradient id="paint10_linear_4767_4916" x1="224" y1="11.7031" x2="331.199" y2="96.7621" gradientUnits="userSpaceOnUse">
<stop stop-color="#FFC671"/>
<stop offset="0.59375" stop-color="#FF7541"/>
<stop offset="1" stop-color="#FF6F3D"/>
</linearGradient>
<linearGradient id="paint11_linear_4767_4916" x1="282" y1="14.9844" x2="308" y2="42" gradientUnits="userSpaceOnUse">
<stop stop-color="#FFC671"/>
<stop offset="0.59375" stop-color="#FF7541"/>
<stop offset="1" stop-color="#FF6F3D"/>
</linearGradient>
<linearGradient id="paint12_linear_4767_4916" x1="282" y1="14.9844" x2="308" y2="42" gradientUnits="userSpaceOnUse">
<stop stop-color="#FFC671"/>
<stop offset="0.59375" stop-color="#FF7541"/>
<stop offset="1" stop-color="#FF6F3D"/>
</linearGradient>
<linearGradient id="paint13_linear_4767_4916" x1="424" y1="11.7031" x2="531.199" y2="96.7621" gradientUnits="userSpaceOnUse">
<stop stop-color="#FFC671"/>
<stop offset="0.59375" stop-color="#FF7541"/>
<stop offset="1" stop-color="#FF6F3D"/>
</linearGradient>
<linearGradient id="paint14_linear_4767_4916" x1="482" y1="14.9844" x2="508" y2="42" gradientUnits="userSpaceOnUse">
<stop stop-color="#FFC671"/>
<stop offset="0.59375" stop-color="#FF7541"/>
<stop offset="1" stop-color="#FF6F3D"/>
</linearGradient>
<linearGradient id="paint15_linear_4767_4916" x1="482" y1="14.9844" x2="508" y2="42" gradientUnits="userSpaceOnUse">
<stop stop-color="#FFC671"/>
<stop offset="0.59375" stop-color="#FF7541"/>
<stop offset="1" stop-color="#FF6F3D"/>
</linearGradient>
<linearGradient id="paint16_linear_4767_4916" x1="124" y1="11.7031" x2="231.199" y2="96.7621" gradientUnits="userSpaceOnUse">
<stop stop-color="#FFC671"/>
<stop offset="0.59375" stop-color="#FF7541"/>
<stop offset="1" stop-color="#FF6F3D"/>
</linearGradient>
<linearGradient id="paint17_linear_4767_4916" x1="182" y1="14.9844" x2="208" y2="42" gradientUnits="userSpaceOnUse">
<stop stop-color="#FFC671"/>
<stop offset="0.59375" stop-color="#FF7541"/>
<stop offset="1" stop-color="#FF6F3D"/>
</linearGradient>
<linearGradient id="paint18_linear_4767_4916" x1="182" y1="14.9844" x2="208" y2="42" gradientUnits="userSpaceOnUse">
<stop stop-color="#FFC671"/>
<stop offset="0.59375" stop-color="#FF7541"/>
<stop offset="1" stop-color="#FF6F3D"/>
</linearGradient>
</defs>
</svg>
