<svg width="640" height="464" viewBox="0 0 640 464" fill="none" xmlns="http://www.w3.org/2000/svg">
<g clip-path="url(#clip0_4767_7258)">
<path d="M115.04 299.606C128.869 333.63 252.066 315.696 390.209 259.55C528.352 203.404 629.128 130.306 615.299 96.2819" stroke="url(#paint0_radial_4767_7258)" stroke-width="2"/>
<path d="M115.04 96.2817C128.869 62.2576 252.066 80.1913 390.209 136.338C528.352 192.484 629.128 265.582 615.299 299.606" stroke="url(#paint1_radial_4767_7258)" stroke-width="2"/>
<path d="M460.295 16H489.276C490.841 16 492.201 17.09 492.53 18.6055L494.216 26.375L494.217 26.376C495.086 30.3704 498.004 33.4715 501.636 34.9932L501.64 34.9951C505.274 36.4996 509.528 36.3675 512.968 34.1533L512.969 34.1543L519.64 29.8643L519.641 29.8652C520.965 29.0163 522.682 29.2015 523.794 30.3154L544.279 50.833C545.392 51.9476 545.577 53.6699 544.729 54.998L540.432 61.6611L540.429 61.665C538.218 65.1277 538.107 69.3872 539.607 73.0244L539.609 73.0283C541.128 76.6642 544.223 79.5877 548.213 80.459H548.214L555.971 82.1475C557.484 82.4769 558.572 83.8231 558.572 85.4082V114.437C558.572 116.002 557.486 117.351 555.971 117.681L548.214 119.369H548.213C544.223 120.24 541.128 123.164 539.609 126.8L539.607 126.804C538.107 130.44 538.217 134.718 540.43 138.165L540.431 138.166L544.73 144.851L544.731 144.852C545.577 146.161 545.39 147.895 544.283 148.99L544.278 148.995L523.799 169.525C522.686 170.627 520.966 170.812 519.641 169.963H519.64L512.968 165.674C509.636 163.529 505.538 163.338 501.979 164.714L501.64 164.851C498.004 166.355 495.086 169.458 494.217 173.452L494.216 173.453L492.53 181.223C492.2 182.744 490.835 183.846 489.276 183.846H460.295C458.741 183.846 457.39 182.749 457.059 181.223L455.373 173.453V173.452L455.285 173.08C454.32 169.266 451.471 166.308 447.949 164.851C444.313 163.329 440.042 163.46 436.604 165.674L429.931 169.964L429.928 169.966C428.621 170.812 426.889 170.626 425.795 169.53L405.293 148.995C404.199 147.899 404.013 146.162 404.858 144.852L404.859 144.849L409.142 138.164L409.143 138.165C411.284 134.828 411.474 130.708 410.101 127.143L409.963 126.8C408.46 123.162 405.364 120.24 401.376 119.369H401.375L393.618 117.681C392.097 117.349 391 115.996 391 114.437V85.4082C391 83.8291 392.099 82.4782 393.618 82.1475L401.375 80.459H401.376C405.365 79.5879 408.463 76.6643 409.965 73.0244L409.964 73.0234C411.484 69.3814 411.351 65.1235 409.144 61.665L409.142 61.6631L404.859 54.9961C404.013 53.6692 404.196 51.9478 405.292 50.833L405.293 50.834L425.795 30.3154L425.8 30.3115C426.893 29.2032 428.622 29.0166 429.928 29.8623L429.931 29.8643L436.604 34.1533C440.043 36.3681 444.315 36.4997 447.95 34.9951L447.954 34.9932C451.585 33.4715 454.504 30.3704 455.373 26.376V26.375L457.059 18.6055C457.389 17.0854 458.735 16.0002 460.295 16ZM474.795 67.3877C456.887 67.3877 442.302 81.9801 442.302 99.9141C442.302 117.847 456.887 132.458 474.795 132.458C492.704 132.458 507.271 117.847 507.271 99.9141C507.27 81.9809 492.703 67.3878 474.795 67.3877Z" fill="url(#paint2_linear_4767_7258)" fill-opacity="0.2" stroke="url(#paint3_linear_4767_7258)" stroke-width="2"/>
<path d="M246.507 365.32H265.688C267.038 365.32 268.195 364.384 268.477 363.062L269.59 357.939C270.124 355.533 271.889 353.632 274.114 352.711C276.355 351.775 278.936 351.865 281.013 353.201L285.419 356.038C286.561 356.766 288.044 356.602 288.994 355.667L302.553 342.078C303.502 341.127 303.665 339.642 302.938 338.513L300.09 334.088C298.755 332.023 298.681 329.424 299.601 327.197C300.52 324.954 302.419 323.187 304.822 322.667L309.955 321.553C311.261 321.271 312.195 320.098 312.195 318.761V299.558C312.195 298.222 311.261 297.049 309.955 296.766L304.822 295.653C302.419 295.133 300.52 293.366 299.601 291.123C298.681 288.895 298.755 286.296 300.09 284.232L302.938 279.806C303.665 278.678 303.502 277.193 302.553 276.242L288.994 262.668C288.044 261.718 286.561 261.554 285.419 262.282L281.013 265.118C278.936 266.455 276.355 266.544 274.114 265.609C271.889 264.688 270.124 262.787 269.59 260.381L268.477 255.257C268.195 253.935 267.038 253 265.688 253H246.507C245.172 253 244 253.935 243.718 255.257L242.605 260.381C242.086 262.787 240.321 264.688 238.081 265.609C235.856 266.544 233.26 266.455 231.198 265.118L226.777 262.282C225.649 261.554 224.166 261.718 223.216 262.668L209.657 276.242C208.708 277.193 208.545 278.678 209.272 279.806L212.105 284.232C213.44 286.296 213.529 288.895 212.595 291.123C211.675 293.366 209.791 295.133 207.388 295.653L202.255 296.766C200.935 297.049 200 298.222 200 299.558V318.761C200 320.098 200.935 321.271 202.255 321.553L207.388 322.667C209.791 323.187 211.675 324.954 212.595 327.197C213.529 329.424 213.44 332.023 212.105 334.088L209.272 338.513C208.545 339.642 208.708 341.127 209.657 342.078L223.216 355.667C224.166 356.602 225.649 356.766 226.777 356.038L231.198 353.201C233.26 351.865 235.856 351.775 238.081 352.711C240.321 353.632 242.086 355.533 242.605 357.939L243.718 363.062C244 364.384 245.172 365.32 246.507 365.32ZM256.105 330.018C244.623 330.018 235.277 320.662 235.277 309.167C235.277 297.658 244.623 288.301 256.105 288.301C267.587 288.301 276.933 297.658 276.933 309.167C276.933 320.662 267.587 330.018 256.105 330.018Z" stroke="url(#paint4_linear_4767_7258)" stroke-width="2" stroke-miterlimit="22.9256"/>
<path d="M319.953 332.172C320.339 331.682 321.007 331.533 321.57 331.801L324.137 333.078C325.413 333.701 326.896 333.583 328.113 332.914C329.329 332.231 330.219 331.043 330.368 329.617L330.649 326.766C330.724 326.142 331.198 325.652 331.821 325.578L342.206 324.39C342.829 324.33 343.407 324.687 343.615 325.281L344.535 327.999C344.995 329.35 346.137 330.315 347.472 330.702C348.807 331.088 350.276 330.865 351.388 329.959L353.599 328.147C354.088 327.761 354.771 327.761 355.26 328.147L363.449 334.667C363.894 335.023 364.057 335.632 363.85 336.167L363.805 336.271L362.544 338.855C361.906 340.132 362.025 341.617 362.707 342.835C363.375 344.053 364.576 344.944 366.001 345.092L368.849 345.375C369.457 345.449 369.947 345.924 370.021 346.548L371.208 356.944C371.282 357.567 370.911 358.147 370.318 358.355L367.603 359.275C366.253 359.736 365.289 360.879 364.903 362.216C364.517 363.538 364.74 365.023 365.645 366.137L367.454 368.349C367.84 368.84 367.855 369.523 367.469 370.013L360.957 378.211C360.571 378.686 359.889 378.834 359.34 378.567L356.773 377.305C355.483 376.666 353.999 376.785 352.783 377.468C351.566 378.136 350.676 379.339 350.528 380.765L350.246 383.617C350.187 384.225 349.697 384.716 349.089 384.79L338.69 385.978C338.067 386.052 337.488 385.681 337.295 385.087L336.376 382.369C335.916 381.018 334.773 380.052 333.438 379.666C332.103 379.28 330.62 379.503 329.522 380.409L327.297 382.221C326.822 382.607 326.125 382.622 325.635 382.235L317.461 375.716C316.972 375.33 316.823 374.646 317.09 374.097L318.366 371.528C318.989 370.236 318.871 368.75 318.203 367.533C317.521 366.315 316.334 365.424 314.91 365.275L312.061 364.993C311.438 364.934 310.949 364.444 310.875 363.82L309.688 353.424C309.629 352.8 309.999 352.221 310.578 352.028L313.293 351.107C314.643 350.647 315.607 349.488 315.993 348.167C316.378 346.83 316.156 345.345 315.251 344.231L313.441 342.018C313.055 341.543 313.055 340.845 313.441 340.355L319.953 332.172ZM347.68 346.102C342.666 342.107 335.352 342.939 331.376 347.959C327.386 352.964 328.216 360.285 333.231 364.28C338.23 368.26 345.543 367.429 349.534 362.424C353.51 357.404 352.679 350.082 347.68 346.102Z" fill="url(#paint5_linear_4767_7258)"/>
<path fill-rule="evenodd" clip-rule="evenodd" d="M493.001 98.8613L473.916 88.3349H472.156L471.804 88.4042H464.55L460.888 88.2657L457.226 88.0579L453.564 87.7117L449.973 87.3654L446.381 86.8806L442.79 86.3266L439.268 85.7034L435.818 85.0108L432.297 84.1798L428.846 83.3488L422.085 81.4097L418.705 80.3017L415.395 79.1244L412.156 77.8779L408.916 76.5621L405.747 75.177L402.578 73.7227L399.48 72.1992L396.381 70.6064L393.353 69.0136L390.325 67.2823L387.367 65.4818L384.48 63.6119L381.663 61.7421L376.029 57.7255L373.353 55.648L370.677 53.5011L368.072 51.2851L365.536 48.9998L365.466 52.6009L368.494 55.2324L371.593 57.864L374.691 60.3571L377.931 62.8502L381.17 65.274L384.48 67.5593L387.79 69.7754L391.24 71.9914L394.691 74.069L398.212 76.0773L401.804 78.0164L405.395 79.8862L409.057 81.6867L412.79 83.418L420.395 86.6036L424.198 88.0579L428.142 89.3737L432.015 90.6895L436.029 91.8668L440.043 92.9748L444.057 94.0136L448.142 94.9139L452.297 95.7449L456.451 96.5067L460.606 97.13L464.832 97.684L469.127 98.1687L473.353 98.515L477.719 98.792L482.015 98.9305L486.381 98.9998H487.649L488.071 98.9305H490.958L491.381 98.8613H493.001Z" fill="#385362"/>
<path fill-rule="evenodd" clip-rule="evenodd" d="M365.464 52.6009L365.535 48.9998L362.929 51.2851L360.324 53.5011L357.647 55.648L354.971 57.7255L352.225 59.7338L349.408 61.7421L343.633 65.4818L340.676 67.2823L337.648 69.0136L331.591 72.1992L328.422 73.7227L325.324 75.177L322.084 76.5621L318.845 77.8779L315.605 79.1244L312.296 80.3017L308.915 81.4097L302.155 83.3488L295.253 85.0108L291.732 85.7034L288.211 86.3266L284.62 86.8806L281.028 87.3654L277.436 87.7117L273.775 88.0579L270.113 88.2657L266.451 88.4042H259.197L258.845 88.3349H257.084L238 98.8613H239.62L240.042 98.9305H242.93L243.352 98.9998H244.62L248.986 98.9305L253.282 98.792L257.577 98.515L261.873 98.1687L266.099 97.684L270.324 97.13L274.549 96.5067L278.704 95.7449L282.789 94.9139L286.873 94.0136L290.958 92.9748L294.972 91.8668L298.915 90.6895L302.859 89.3737L306.732 88.0579L310.605 86.6036L318.211 83.418L321.873 81.6867L325.535 79.8862L329.197 78.0164L332.788 76.0773L336.31 74.069L339.76 71.9914L346.521 67.5593L349.831 65.274L353.07 62.8502L359.408 57.864L362.507 55.2324L365.464 52.6009Z" fill="#385362"/>
<path fill-rule="evenodd" clip-rule="evenodd" d="M493.001 98.8613L473.916 88.3349H472.156L471.804 88.4042H464.55L460.888 88.2657L457.226 88.0579L453.564 87.7117L449.973 87.3654L446.381 86.8806L442.79 86.3266L439.268 85.7034L435.818 85.0108L432.297 84.1798L428.846 83.3488L422.085 81.4097L418.705 80.3017L415.395 79.1244L412.156 77.8779L408.916 76.5621L405.747 75.177L402.578 73.7227L399.48 72.1992L396.381 70.6064L393.353 69.0136L390.325 67.2823L387.367 65.4818L384.48 63.6119L381.663 61.7421L376.029 57.7255L373.353 55.648L370.677 53.5011L368.072 51.2851L365.536 48.9998L365.466 52.6009L368.494 55.2324L371.593 57.864L374.691 60.3571L377.931 62.8502L381.17 65.274L384.48 67.5593L387.79 69.7754L391.24 71.9914L394.691 74.069L398.212 76.0773L401.804 78.0164L405.395 79.8862L409.057 81.6867L412.79 83.418L420.395 86.6036L424.198 88.0579L428.142 89.3737L432.015 90.6895L436.029 91.8668L440.043 92.9748L444.057 94.0136L448.142 94.9139L452.297 95.7449L456.451 96.5067L460.606 97.13L464.832 97.684L469.127 98.1687L473.353 98.515L477.719 98.792L482.015 98.9305L486.381 98.9998H487.649L488.071 98.9305H490.958L491.381 98.8613H493.001Z" stroke="#385362" stroke-width="2" stroke-miterlimit="22.9256" stroke-linecap="round" stroke-linejoin="round"/>
<path fill-rule="evenodd" clip-rule="evenodd" d="M365.464 52.6009L365.535 48.9998L362.929 51.2851L360.324 53.5011L357.647 55.648L354.971 57.7255L352.225 59.7338L349.408 61.7421L343.633 65.4818L340.676 67.2823L337.648 69.0136L331.591 72.1992L328.422 73.7227L325.324 75.177L322.084 76.5621L318.845 77.8779L315.605 79.1244L312.296 80.3017L308.915 81.4097L302.155 83.3488L295.253 85.0108L291.732 85.7034L288.211 86.3266L284.62 86.8806L281.028 87.3654L277.436 87.7117L273.775 88.0579L270.113 88.2657L266.451 88.4042H259.197L258.845 88.3349H257.084L238 98.8613H239.62L240.042 98.9305H242.93L243.352 98.9998H244.62L248.986 98.9305L253.282 98.792L257.577 98.515L261.873 98.1687L266.099 97.684L270.324 97.13L274.549 96.5067L278.704 95.7449L282.789 94.9139L286.873 94.0136L290.958 92.9748L294.972 91.8668L298.915 90.6895L302.859 89.3737L306.732 88.0579L310.605 86.6036L318.211 83.418L321.873 81.6867L325.535 79.8862L329.197 78.0164L332.788 76.0773L336.31 74.069L339.76 71.9914L346.521 67.5593L349.831 65.274L353.07 62.8502L359.408 57.864L362.507 55.2324L365.464 52.6009Z" stroke="#385362" stroke-width="2" stroke-miterlimit="22.9256" stroke-linecap="round" stroke-linejoin="round"/>
<path d="M365.467 54.7097C333.503 83.7006 291.103 101.35 244.62 101.35C243.06 101.35 241.536 101.314 240.034 101.27C240.138 106.324 240.392 111.399 240.7 116.603C244.379 171.845 259.568 222.579 281.964 262.592C304.21 302.336 333.472 331.339 365.465 343.851C397.458 331.338 426.738 302.336 448.992 262.592C471.397 222.579 486.585 171.846 490.229 116.604L490.23 116.594L490.378 114.39C490.656 109.975 490.826 105.623 490.946 101.271C489.451 101.314 487.933 101.35 486.38 101.35C439.896 101.35 397.497 83.6995 365.467 54.7097Z" fill="#89DCF4" stroke="white" stroke-width="4" stroke-miterlimit="22.9256" stroke-linecap="round" stroke-linejoin="round"/>
<path d="M365.149 144.552C355.362 144.552 347.408 152.507 347.408 162.294C347.408 168.684 350.74 174.265 355.769 177.398L344.606 252.068C344.52 252.644 344.689 253.229 345.069 253.67C345.449 254.111 346.002 254.364 346.584 254.364H384.49C385.072 254.364 385.626 254.111 386.006 253.67C386.386 253.229 386.554 252.644 386.468 252.068L375.226 176.973C379.893 173.748 382.891 168.389 382.891 162.294C382.891 152.507 374.936 144.553 365.149 144.552Z" fill="#333333" stroke="white" stroke-width="4" stroke-miterlimit="22.9256" stroke-linecap="round" stroke-linejoin="round"/>
<path d="M115.039 299.606C101.21 265.582 201.987 192.484 340.13 136.338C478.273 80.1916 601.47 62.2579 615.298 96.282" stroke="url(#paint6_radial_4767_7258)" stroke-width="2"/>
<path d="M115.039 96.2819C101.21 130.306 201.987 203.404 340.13 259.55C478.273 315.696 601.47 333.63 615.298 299.606" stroke="url(#paint7_radial_4767_7258)" stroke-width="2"/>
</g>
<defs>
<radialGradient id="paint0_radial_4767_7258" cx="0" cy="0" r="1" gradientUnits="userSpaceOnUse" gradientTransform="translate(377.689 228.747) rotate(157.42) scale(389.724 194.101)">
<stop offset="0.387031" stop-color="#333333"/>
<stop offset="1" stop-color="white"/>
</radialGradient>
<radialGradient id="paint1_radial_4767_7258" cx="0" cy="0" r="1" gradientUnits="userSpaceOnUse" gradientTransform="translate(377.689 167.141) rotate(-157.42) scale(389.724 194.101)">
<stop offset="0.387031" stop-color="#333333"/>
<stop offset="1" stop-color="white"/>
</radialGradient>
<linearGradient id="paint2_linear_4767_7258" x1="430.349" y1="48.6913" x2="535.489" y2="163.706" gradientUnits="userSpaceOnUse">
<stop stop-color="white"/>
<stop offset="1" stop-color="white" stop-opacity="0.2"/>
</linearGradient>
<linearGradient id="paint3_linear_4767_7258" x1="413.503" y1="39.3972" x2="613.908" y2="209.016" gradientUnits="userSpaceOnUse">
<stop stop-color="white"/>
<stop offset="1" stop-color="#FF6F3D"/>
</linearGradient>
<linearGradient id="paint4_linear_4767_7258" x1="200" y1="369.707" x2="312.325" y2="253.124" gradientUnits="userSpaceOnUse">
<stop stop-color="#FFC671"/>
<stop offset="0.59375" stop-color="#FF7541"/>
<stop offset="1" stop-color="#FF6F3D"/>
</linearGradient>
<linearGradient id="paint5_linear_4767_7258" x1="309.682" y1="388.394" x2="371.288" y2="324.452" gradientUnits="userSpaceOnUse">
<stop stop-color="#FFC671"/>
<stop offset="0.59375" stop-color="#FF7541"/>
<stop offset="1" stop-color="#FF6F3D"/>
</linearGradient>
<radialGradient id="paint6_radial_4767_7258" cx="0" cy="0" r="1" gradientUnits="userSpaceOnUse" gradientTransform="translate(352.649 167.141) rotate(-22.1187) scale(270 109.969)">
<stop stop-color="white"/>
<stop offset="1" stop-color="#9F9F9F"/>
</radialGradient>
<radialGradient id="paint7_radial_4767_7258" cx="0" cy="0" r="1" gradientUnits="userSpaceOnUse" gradientTransform="translate(352.649 228.747) rotate(22.1187) scale(270 109.969)">
<stop stop-color="white"/>
<stop offset="1" stop-color="#9F9F9F"/>
</radialGradient>
<clipPath id="clip0_4767_7258">
<rect width="640" height="464" fill="white"/>
</clipPath>
</defs>
</svg>
