<svg width="640" height="464" viewBox="0 0 640 464" fill="none" xmlns="http://www.w3.org/2000/svg">
<path d="M372.295 7H401.276C402.841 7 404.201 8.09003 404.53 9.60547L406.216 17.375L406.217 17.376C407.086 21.3704 410.004 24.4715 413.636 25.9932L413.64 25.9951C417.274 27.4996 421.528 27.3675 424.968 25.1533L424.969 25.1543L431.64 20.8643L431.641 20.8652C432.965 20.0163 434.682 20.2015 435.794 21.3154L456.279 41.833C457.392 42.9476 457.577 44.6699 456.729 45.998L452.432 52.6611L452.429 52.665C450.218 56.1277 450.107 60.3872 451.607 64.0244L451.609 64.0283C453.128 67.6642 456.223 70.5877 460.213 71.459H460.214L467.971 73.1475C469.484 73.4769 470.572 74.8231 470.572 76.4082V105.437C470.572 107.002 469.486 108.351 467.971 108.681L460.214 110.369H460.213C456.223 111.24 453.128 114.164 451.609 117.8L451.607 117.804C450.107 121.44 450.217 125.718 452.43 129.165L452.431 129.166L456.73 135.851L456.731 135.852C457.577 137.161 457.39 138.895 456.283 139.99L456.278 139.995L435.799 160.525C434.686 161.627 432.966 161.812 431.641 160.963H431.64L424.968 156.674C421.636 154.529 417.538 154.338 413.979 155.714L413.64 155.851C410.004 157.355 407.086 160.458 406.217 164.452L406.216 164.453L404.53 172.223C404.2 173.744 402.835 174.846 401.276 174.846H372.295C370.741 174.846 369.39 173.749 369.059 172.223L367.373 164.453V164.452L367.285 164.08C366.32 160.266 363.471 157.308 359.949 155.851C356.313 154.329 352.042 154.46 348.604 156.674L341.931 160.964L341.928 160.966C340.621 161.812 338.889 161.626 337.795 160.53L317.293 139.995C316.199 138.899 316.013 137.162 316.858 135.852L316.859 135.849L321.142 129.164L321.143 129.165C323.284 125.828 323.474 121.708 322.101 118.143L321.963 117.8C320.46 114.162 317.364 111.24 313.376 110.369H313.375L305.618 108.681C304.097 108.349 303 106.996 303 105.437V76.4082C303 74.8291 304.099 73.4782 305.618 73.1475L313.375 71.459H313.376C317.365 70.5879 320.463 67.6643 321.965 64.0244L321.964 64.0234C323.484 60.3814 323.351 56.1235 321.144 52.665L321.142 52.6631L316.859 45.9961C316.013 44.6692 316.196 42.9478 317.292 41.833L317.293 41.834L337.795 21.3154L337.8 21.3115C338.893 20.2032 340.622 20.0166 341.928 20.8623L341.931 20.8643L348.604 25.1533C352.043 27.3681 356.315 27.4997 359.95 25.9951L359.954 25.9932C363.585 24.4715 366.504 21.3704 367.373 17.376V17.375L369.059 9.60547C369.389 8.0854 370.735 7.00016 372.295 7ZM386.795 58.3877C368.887 58.3877 354.302 72.9801 354.302 90.9141C354.302 108.847 368.887 123.458 386.795 123.458C404.704 123.458 419.271 108.847 419.271 90.9141C419.27 72.9809 404.703 58.3878 386.795 58.3877Z" fill="url(#paint0_linear_4767_9558)" fill-opacity="0.2" stroke="url(#paint1_linear_4767_9558)" stroke-width="2"/>
<path d="M433.507 285.667H452.688C454.038 285.667 455.195 286.603 455.477 287.924L456.59 293.048C457.124 295.454 458.889 297.355 461.114 298.276C463.355 299.211 465.936 299.122 468.013 297.786L472.419 294.949C473.561 294.221 475.044 294.385 475.994 295.32L489.553 308.909C490.502 309.86 490.665 311.345 489.938 312.473L487.09 316.899C485.755 318.963 485.681 321.562 486.601 323.79C487.52 326.033 489.419 327.8 491.822 328.32L496.955 329.434C498.261 329.716 499.195 330.889 499.195 332.226V351.428C499.195 352.765 498.261 353.938 496.955 354.22L491.822 355.334C489.419 355.854 487.52 357.621 486.601 359.864C485.681 362.092 485.755 364.69 487.09 366.755L489.938 371.18C490.665 372.309 490.502 373.794 489.553 374.745L475.994 388.319C475.044 389.269 473.561 389.433 472.419 388.705L468.013 385.868C465.936 384.532 463.355 384.443 461.114 385.378C458.889 386.299 457.124 388.2 456.59 390.606L455.477 395.73C455.195 397.051 454.038 397.987 452.688 397.987H433.507C432.172 397.987 431 397.051 430.718 395.73L429.605 390.606C429.086 388.2 427.321 386.299 425.081 385.378C422.856 384.443 420.26 384.532 418.198 385.868L413.777 388.705C412.649 389.433 411.166 389.269 410.216 388.319L396.657 374.745C395.708 373.794 395.545 372.309 396.272 371.18L399.105 366.755C400.44 364.69 400.529 362.092 399.595 359.864C398.675 357.621 396.791 355.854 394.388 355.334L389.255 354.22C387.935 353.938 387 352.765 387 351.428V332.226C387 330.889 387.935 329.716 389.255 329.434L394.388 328.32C396.791 327.8 398.675 326.033 399.595 323.79C400.529 321.562 400.44 318.963 399.105 316.899L396.272 312.473C395.545 311.345 395.708 309.86 396.657 308.909L410.216 295.32C411.166 294.385 412.649 294.221 413.777 294.949L418.198 297.786C420.26 299.122 422.856 299.211 425.081 298.276C427.321 297.355 429.086 295.454 429.605 293.048L430.718 287.924C431 286.603 432.172 285.667 433.507 285.667ZM443.105 320.968C431.623 320.968 422.277 330.325 422.277 341.82C422.277 353.329 431.623 362.686 443.105 362.686C454.587 362.686 463.933 353.329 463.933 341.82C463.933 330.325 454.587 320.968 443.105 320.968Z" stroke="url(#paint2_linear_4767_9558)" stroke-width="2" stroke-miterlimit="22.9256"/>
<path d="M506.953 318.815C507.339 319.306 508.007 319.454 508.57 319.187L511.137 317.91C512.413 317.286 513.896 317.405 515.113 318.073C516.329 318.756 517.219 319.944 517.368 321.37L517.649 324.221C517.724 324.845 518.198 325.335 518.821 325.409L529.206 326.598C529.829 326.657 530.407 326.301 530.615 325.706L531.535 322.989C531.995 321.637 533.137 320.672 534.472 320.286C535.807 319.9 537.276 320.122 538.388 321.028L540.599 322.84C541.088 323.226 541.771 323.226 542.26 322.84L550.449 316.32C550.894 315.964 551.057 315.355 550.85 314.82L550.805 314.717L549.544 312.132C548.906 310.855 549.025 309.37 549.707 308.152C550.375 306.934 551.576 306.043 553.001 305.895L555.849 305.613C556.457 305.538 556.947 305.063 557.021 304.439L558.208 294.044C558.282 293.42 557.911 292.841 557.318 292.633L554.603 291.712C553.253 291.252 552.289 290.108 551.903 288.771C551.517 287.45 551.74 285.965 552.645 284.851L554.454 282.638C554.84 282.148 554.855 281.465 554.469 280.975L547.957 272.777C547.571 272.301 546.889 272.153 546.34 272.42L543.773 273.683C542.483 274.321 540.999 274.202 539.783 273.519C538.566 272.851 537.676 271.648 537.528 270.222L537.246 267.371C537.187 266.762 536.697 266.272 536.089 266.197L525.69 265.009C525.067 264.935 524.488 265.306 524.295 265.9L523.376 268.618C522.916 269.97 521.773 270.935 520.438 271.321C519.103 271.707 517.62 271.485 516.522 270.579L514.297 268.767C513.822 268.381 513.125 268.366 512.635 268.752L504.461 275.272C503.972 275.658 503.823 276.341 504.09 276.89L505.366 279.46C505.989 280.752 505.871 282.237 505.203 283.455C504.521 284.672 503.334 285.564 501.91 285.712L499.061 285.994C498.438 286.054 497.949 286.544 497.875 287.167L496.688 297.563C496.629 298.187 496.999 298.766 497.578 298.959L500.293 299.88C501.643 300.341 502.607 301.499 502.993 302.821C503.378 304.157 503.156 305.642 502.251 306.756L500.441 308.969C500.055 309.444 500.055 310.142 500.441 310.632L506.953 318.815ZM534.68 304.885C529.666 308.88 522.352 308.048 518.376 303.029C514.386 298.024 515.216 290.702 520.231 286.707C525.23 282.727 532.543 283.559 536.534 288.563C540.51 293.583 539.679 300.905 534.68 304.885Z" fill="url(#paint3_linear_4767_9558)"/>
<rect x="317" y="95" width="321" height="161" rx="18" fill="#9ADAF3" stroke="white" stroke-width="4"/>
<rect x="344" y="137" width="267" height="7" rx="3.5" fill="white" stroke="#385362" stroke-width="2"/>
<rect x="344" y="172" width="267" height="7" rx="3.5" fill="white" stroke="#385362" stroke-width="2"/>
<rect x="344" y="207" width="267" height="7" rx="3.5" fill="white" stroke="#385362" stroke-width="2"/>
<rect x="375" y="129" width="23" height="23" rx="11.5" fill="white" stroke="#385362" stroke-width="2"/>
<rect x="444" y="164" width="23" height="23" rx="11.5" fill="white" stroke="#385362" stroke-width="2"/>
<rect x="413" y="198" width="23" height="23" rx="11.5" fill="white" stroke="#385362" stroke-width="2"/>
<rect x="-1" y="-1" width="212" height="10" rx="5" transform="matrix(0 1 1 0 165 40)" fill="#333333" stroke="url(#paint4_linear_4767_9558)" stroke-width="2"/>
<rect x="-1" y="-1" width="212" height="10" rx="5" transform="matrix(0 1 1 0 206 40)" fill="#333333" stroke="url(#paint5_linear_4767_9558)" stroke-width="2"/>
<rect x="-1" y="-1" width="212" height="10" rx="5" transform="matrix(0 1 1 0 247 40)" fill="#333333" stroke="url(#paint6_linear_4767_9558)" stroke-width="2"/>
<rect width="21" height="22" rx="8" transform="matrix(0 1 1 0 240 87)" fill="url(#paint7_linear_4767_9558)"/>
<rect width="22" height="22" rx="8" transform="matrix(0 1 1 0 199 35)" fill="url(#paint8_linear_4767_9558)"/>
<rect width="22" height="22" rx="8" transform="matrix(0 1 1 0 158 114)" fill="url(#paint9_linear_4767_9558)"/>
<rect x="228" y="229" width="109.895" height="48" rx="24" fill="#333333" stroke="url(#paint10_linear_4767_9558)" stroke-width="2"/>
<rect width="109.895" height="48" rx="24" transform="matrix(-1 0 0 1 337.895 294)" fill="#333333" stroke="white" stroke-width="2" stroke-linecap="round" stroke-dasharray="6 8"/>
<rect x="293.684" y="234.053" width="37.8947" height="37.8947" rx="18.9474" fill="url(#paint11_linear_4767_9558)"/>
<rect x="234.316" y="299.053" width="37.8947" height="37.8947" rx="18.9474" stroke="white" stroke-width="2"/>
<defs>
<linearGradient id="paint0_linear_4767_9558" x1="342.349" y1="39.6913" x2="447.489" y2="154.706" gradientUnits="userSpaceOnUse">
<stop stop-color="white"/>
<stop offset="1" stop-color="white" stop-opacity="0.2"/>
</linearGradient>
<linearGradient id="paint1_linear_4767_9558" x1="325.503" y1="30.3972" x2="525.908" y2="200.016" gradientUnits="userSpaceOnUse">
<stop stop-color="white"/>
<stop offset="1" stop-color="#FF6F3D"/>
</linearGradient>
<linearGradient id="paint2_linear_4767_9558" x1="387" y1="281.279" x2="499.325" y2="397.862" gradientUnits="userSpaceOnUse">
<stop stop-color="#FFC671"/>
<stop offset="0.59375" stop-color="#FF7541"/>
<stop offset="1" stop-color="#FF6F3D"/>
</linearGradient>
<linearGradient id="paint3_linear_4767_9558" x1="496.682" y1="262.594" x2="558.288" y2="326.535" gradientUnits="userSpaceOnUse">
<stop stop-color="#FFC671"/>
<stop offset="0.59375" stop-color="#FF7541"/>
<stop offset="1" stop-color="#FF6F3D"/>
</linearGradient>
<linearGradient id="paint4_linear_4767_9558" x1="0.000404315" y1="-0.3125" x2="0.586656" y2="15.6778" gradientUnits="userSpaceOnUse">
<stop stop-color="#FFC671"/>
<stop offset="0.59375" stop-color="#FF7541"/>
<stop offset="1" stop-color="#FF6F3D"/>
</linearGradient>
<linearGradient id="paint5_linear_4767_9558" x1="0.000404315" y1="-0.3125" x2="0.586656" y2="15.6778" gradientUnits="userSpaceOnUse">
<stop stop-color="#FFC671"/>
<stop offset="0.59375" stop-color="#FF7541"/>
<stop offset="1" stop-color="#FF6F3D"/>
</linearGradient>
<linearGradient id="paint6_linear_4767_9558" x1="0.000404315" y1="-0.3125" x2="0.586656" y2="15.6778" gradientUnits="userSpaceOnUse">
<stop stop-color="#FFC671"/>
<stop offset="0.59375" stop-color="#FF7541"/>
<stop offset="1" stop-color="#FF6F3D"/>
</linearGradient>
<linearGradient id="paint7_linear_4767_9558" x1="4.04315e-05" y1="-0.859375" x2="22.0155" y2="20.9762" gradientUnits="userSpaceOnUse">
<stop stop-color="#FFC671"/>
<stop offset="0.59375" stop-color="#FF7541"/>
<stop offset="1" stop-color="#FF6F3D"/>
</linearGradient>
<linearGradient id="paint8_linear_4767_9558" x1="4.23568e-05" y1="-0.859375" x2="22" y2="22" gradientUnits="userSpaceOnUse">
<stop stop-color="#FFC671"/>
<stop offset="0.59375" stop-color="#FF7541"/>
<stop offset="1" stop-color="#FF6F3D"/>
</linearGradient>
<linearGradient id="paint9_linear_4767_9558" x1="4.23568e-05" y1="-0.859375" x2="22" y2="22" gradientUnits="userSpaceOnUse">
<stop stop-color="#FFC671"/>
<stop offset="0.59375" stop-color="#FF7541"/>
<stop offset="1" stop-color="#FF6F3D"/>
</linearGradient>
<linearGradient id="paint10_linear_4767_9558" x1="228" y1="227.125" x2="262.32" y2="308.769" gradientUnits="userSpaceOnUse">
<stop stop-color="#FFC671"/>
<stop offset="0.59375" stop-color="#FF7541"/>
<stop offset="1" stop-color="#FF6F3D"/>
</linearGradient>
<linearGradient id="paint11_linear_4767_9558" x1="293.684" y1="232.572" x2="331.578" y2="271.947" gradientUnits="userSpaceOnUse">
<stop stop-color="#FFC671"/>
<stop offset="0.59375" stop-color="#FF7541"/>
<stop offset="1" stop-color="#FF6F3D"/>
</linearGradient>
</defs>
</svg>
