<svg width="640" height="464" viewBox="0 0 640 464" fill="none" xmlns="http://www.w3.org/2000/svg">
<path d="M509.295 10H538.276C539.841 10 541.201 11.09 541.53 12.6055L543.216 20.375L543.217 20.376C544.086 24.3704 547.004 27.4715 550.636 28.9932L550.64 28.9951C554.274 30.4996 558.528 30.3675 561.968 28.1533L561.969 28.1543L568.64 23.8643L568.641 23.8652C569.965 23.0163 571.682 23.2015 572.794 24.3154L593.279 44.833C594.392 45.9476 594.577 47.6699 593.729 48.998L589.432 55.6611L589.429 55.665C587.218 59.1277 587.107 63.3872 588.607 67.0244L588.609 67.0283C590.128 70.6642 593.223 73.5877 597.213 74.459H597.214L604.971 76.1475C606.484 76.4769 607.572 77.8231 607.572 79.4082V108.437C607.572 110.002 606.486 111.351 604.971 111.681L597.214 113.369H597.213C593.223 114.24 590.128 117.164 588.609 120.8L588.607 120.804C587.107 124.44 587.217 128.718 589.43 132.165L589.431 132.166L593.73 138.851L593.731 138.852C594.577 140.161 594.39 141.895 593.283 142.99L593.278 142.995L572.799 163.525C571.686 164.627 569.966 164.812 568.641 163.963H568.64L561.968 159.674C558.636 157.529 554.538 157.338 550.979 158.714L550.64 158.851C547.004 160.355 544.086 163.458 543.217 167.452L543.216 167.453L541.53 175.223C541.2 176.744 539.835 177.846 538.276 177.846H509.295C507.741 177.846 506.39 176.749 506.059 175.223L504.373 167.453V167.452L504.285 167.08C503.32 163.266 500.471 160.308 496.949 158.851C493.313 157.329 489.042 157.46 485.604 159.674L478.931 163.964L478.928 163.966C477.621 164.812 475.889 164.626 474.795 163.53L454.293 142.995C453.199 141.899 453.013 140.162 453.858 138.852L453.859 138.849L458.142 132.164L458.143 132.165C460.284 128.828 460.474 124.708 459.101 121.143L458.963 120.8C457.46 117.162 454.364 114.24 450.376 113.369H450.375L442.618 111.681C441.097 111.349 440 109.996 440 108.437V79.4082C440 77.8291 441.099 76.4782 442.618 76.1475L450.375 74.459H450.376C454.365 73.5879 457.463 70.6643 458.965 67.0244L458.964 67.0234C460.484 63.3814 460.351 59.1235 458.144 55.665L458.142 55.6631L453.859 48.9961C453.013 47.6692 453.196 45.9478 454.292 44.833L454.293 44.834L474.795 24.3154L474.8 24.3115C475.893 23.2032 477.622 23.0166 478.928 23.8623L478.931 23.8643L485.604 28.1533C489.043 30.3681 493.315 30.4997 496.95 28.9951L496.954 28.9932C500.585 27.4715 503.504 24.3704 504.373 20.376V20.375L506.059 12.6055C506.389 11.0854 507.735 10.0002 509.295 10ZM523.795 61.3877C505.887 61.3877 491.302 75.9801 491.302 93.9141C491.302 111.847 505.887 126.458 523.795 126.458C541.704 126.458 556.271 111.847 556.271 93.9141C556.27 75.9809 541.703 61.3878 523.795 61.3877Z" fill="url(#paint0_linear_4767_8403)" fill-opacity="0.2" stroke="url(#paint1_linear_4767_8403)" stroke-width="2"/>
<path d="M580.429 213.775C580.727 214.323 581.36 214.581 581.961 214.412L584.705 213.582C586.067 213.18 587.51 213.545 588.597 214.407C589.682 215.284 590.361 216.604 590.269 218.035L590.07 220.893C590.039 221.521 590.425 222.083 591.027 222.261L601.067 225.168C601.671 225.331 602.301 225.076 602.605 224.525L603.966 222C604.646 220.744 605.933 219.983 607.314 219.826C608.695 219.668 610.106 220.133 611.051 221.213L612.928 223.368C613.346 223.831 614.019 223.945 614.566 223.646L623.729 218.587C624.228 218.31 624.49 217.737 624.375 217.176L624.348 217.066L623.537 214.307C623.122 212.941 623.487 211.497 624.364 210.41C625.225 209.321 626.559 208.643 627.988 208.735L630.843 208.933C631.455 208.962 632.018 208.575 632.195 207.972L635.103 197.921C635.281 197.319 635.012 196.686 634.461 196.381L631.939 195.02C630.685 194.34 629.925 193.051 629.769 191.669C629.609 190.302 630.077 188.875 631.155 187.928L633.31 186.049C633.772 185.63 633.901 184.959 633.602 184.411L628.552 175.24C628.251 174.707 627.603 174.446 627.018 174.618L624.276 175.434C622.897 175.847 621.454 175.482 620.369 174.605C619.281 173.743 618.605 172.408 618.697 170.978L618.896 168.119C618.939 167.509 618.539 166.944 617.951 166.769L607.897 163.859C607.295 163.682 606.663 163.951 606.373 164.504L605.012 167.03C604.333 168.286 603.045 169.047 601.664 169.204C600.283 169.362 598.858 168.894 597.927 167.817L596.036 165.659C595.633 165.199 594.948 165.068 594.401 165.366L585.252 170.428C584.704 170.727 584.444 171.375 584.615 171.962L585.444 174.708C585.842 176.086 585.477 177.531 584.615 178.62C583.738 179.706 582.419 180.386 580.99 180.295L578.135 180.097C577.511 180.051 576.946 180.452 576.769 181.055L573.861 191.106C573.698 191.711 573.967 192.344 574.505 192.631L577.028 193.993C578.281 194.673 579.039 195.976 579.198 197.343C579.355 198.726 578.887 200.153 577.809 201.1L575.654 202.979C575.194 203.383 575.078 204.071 575.376 204.619L580.429 213.775ZM610.094 204.676C604.482 207.777 597.411 205.734 594.33 200.12C591.233 194.519 593.276 187.439 598.887 184.339C604.482 181.25 611.553 183.293 614.651 188.895C617.731 194.508 615.688 201.588 610.094 204.676Z" fill="url(#paint2_linear_4767_8403)"/>
<path d="M335 387V359L341 359.032V362H338V384.023H341V387L335 387Z" fill="#9ADAF3"/>
<path d="M244 361L243 370L241 370L240 361H244ZM250 361L249 370H247L246 361H250ZM308 361L307 370H305L304 361H308ZM314 361L313 370H311L310 361H314Z" fill="#9ADAF3"/>
<path d="M243 370L244 361H240L241 370L243 370Z" fill="#9ADAF3"/>
<path d="M249 370L250 361H246L247 370H249Z" fill="#9ADAF3"/>
<path d="M243 370L244 361H240L241 370L243 370Z" fill="#9ADAF3"/>
<path d="M249 370L250 361H246L247 370H249Z" fill="#9ADAF3"/>
<path d="M244 361L243 370L241 370L240 361H244ZM250 361L249 370H247L246 361H250ZM308 361L307 370H305L304 361H308ZM314 361L313 370H311L310 361H314Z" fill="#9ADAF3"/>
<path d="M243 370L244 361H240L241 370L243 370Z" fill="#9ADAF3"/>
<path d="M249 370L250 361H246L247 370H249Z" fill="#9ADAF3"/>
<path d="M243 370L244 361H240L241 370L243 370Z" fill="#9ADAF3"/>
<path d="M249 370L250 361H246L247 370H249Z" fill="#9ADAF3"/>
<path d="M317 368.5C317 366.567 318.567 365 320.5 365C322.433 365 324 366.567 324 368.5C324 370.433 322.433 372 320.5 372C318.567 372 317 370.433 317 368.5Z" fill="#9ADAF3"/>
<path d="M317 368.5C317 366.567 318.567 365 320.5 365C322.433 365 324 366.567 324 368.5C324 370.433 322.433 372 320.5 372C318.567 372 317 370.433 317 368.5Z" fill="#9ADAF3"/>
<path d="M317 379.5C317 377.567 318.567 376 320.5 376C322.433 376 324 377.567 324 379.5C324 381.433 322.433 383 320.5 383C318.567 383 317 381.433 317 379.5Z" fill="#9ADAF3"/>
<path d="M317 379.5C317 377.567 318.567 376 320.5 376C322.433 376 324 377.567 324 379.5C324 381.433 322.433 383 320.5 383C318.567 383 317 381.433 317 379.5Z" fill="#9ADAF3"/>
<path d="M253 374C253 369.029 256.801 365 261.49 365H293.51C298.199 365 302 369.029 302 374C302 378.971 298.199 383 293.51 383H261.49C256.801 383 253 378.971 253 374Z" fill="#9ADAF3"/>
<path d="M349 361L348 370L346 370L345 361H349ZM355 361L354 370H352L351 361H355Z" fill="#9ADAF3"/>
<path d="M348 370L349 361H345L346 370L348 370Z" fill="#9ADAF3"/>
<path d="M354 370L355 361H351L352 370H354Z" fill="#9ADAF3"/>
<path d="M348 370L349 361H345L346 370L348 370Z" fill="#9ADAF3"/>
<path d="M354 370L355 361H351L352 370H354Z" fill="#9ADAF3"/>
<path d="M349 361L348 370L346 370L345 361H349ZM355 361L354 370H352L351 361H355Z" fill="#9ADAF3"/>
<path d="M348 370L349 361H345L346 370L348 370Z" fill="#9ADAF3"/>
<path d="M354 370L355 361H351L352 370H354Z" fill="#9ADAF3"/>
<path d="M348 370L349 361H345L346 370L348 370Z" fill="#9ADAF3"/>
<path d="M354 370L355 361H351L352 370H354Z" fill="#9ADAF3"/>
<path d="M358 374C358 369.029 361.801 365 366.49 365H382C382 365 382 369.029 382 374C382 378.971 382 383 382 383H366.49C361.801 383 358 378.971 358 374Z" fill="#9ADAF3"/>
<path d="M590 338C590 341 589 343 587 347H583C584 344 585 341 585 338H590Z" fill="#9ADAF3"/>
<path d="M244 321L243 330L241 330L240 321H244ZM250 321L249 330H247L246 321H250ZM386 321L385 330H383L382 321H386ZM392 321L391 330H389L388 321H392Z" fill="#9ADAF3"/>
<path d="M243 330L244 321H240L241 330L243 330Z" fill="#9ADAF3"/>
<path d="M249 330L250 321H246L247 330H249Z" fill="#9ADAF3"/>
<path d="M243 330L244 321H240L241 330L243 330Z" fill="#9ADAF3"/>
<path d="M249 330L250 321H246L247 330H249Z" fill="#9ADAF3"/>
<path d="M244 321L243 330L241 330L240 321H244ZM250 321L249 330H247L246 321H250ZM386 321L385 330H383L382 321H386ZM392 321L391 330H389L388 321H392Z" fill="#9ADAF3"/>
<path d="M243 330L244 321H240L241 330L243 330Z" fill="#9ADAF3"/>
<path d="M249 330L250 321H246L247 330H249Z" fill="#9ADAF3"/>
<path d="M243 330L244 321H240L241 330L243 330Z" fill="#9ADAF3"/>
<path d="M249 330L250 321H246L247 330H249Z" fill="#9ADAF3"/>
<path d="M395 328.5C395 326.567 396.567 325 398.5 325C400.433 325 402 326.567 402 328.5C402 330.433 400.433 332 398.5 332C396.567 332 395 330.433 395 328.5Z" fill="#9ADAF3"/>
<path d="M395 328.5C395 326.567 396.567 325 398.5 325C400.433 325 402 326.567 402 328.5C402 330.433 400.433 332 398.5 332C396.567 332 395 330.433 395 328.5Z" fill="#9ADAF3"/>
<path d="M395 339.5C395 337.567 396.567 336 398.5 336C400.433 336 402 337.567 402 339.5C402 341.433 400.433 343 398.5 343C396.567 343 395 341.433 395 339.5Z" fill="#9ADAF3"/>
<path d="M395 339.5C395 337.567 396.567 336 398.5 336C400.433 336 402 337.567 402 339.5C402 341.433 400.433 343 398.5 343C396.567 343 395 341.433 395 339.5Z" fill="#9ADAF3"/>
<path d="M253 334C253 329.029 256.801 325 261.49 325H371.51C376.199 325 380 329.029 380 334C380 338.971 376.199 343 371.51 343H261.49C256.801 343 253 338.971 253 334Z" fill="#9ADAF3"/>
<path d="M416 321L415 330L413 330L412 321H416ZM422 321L421 330H419L418 321H422ZM576 321L575 330H573L572 321H576ZM582 321L581 330H579L578 321H582Z" fill="#9ADAF3"/>
<path d="M415 330L416 321H412L413 330L415 330Z" fill="#9ADAF3"/>
<path d="M421 330L422 321H418L419 330H421Z" fill="#9ADAF3"/>
<path d="M415 330L416 321H412L413 330L415 330Z" fill="#9ADAF3"/>
<path d="M421 330L422 321H418L419 330H421Z" fill="#9ADAF3"/>
<path d="M416 321L415 330L413 330L412 321H416ZM422 321L421 330H419L418 321H422ZM576 321L575 330H573L572 321H576ZM582 321L581 330H579L578 321H582Z" fill="#9ADAF3"/>
<path d="M415 330L416 321H412L413 330L415 330Z" fill="#9ADAF3"/>
<path d="M421 330L422 321H418L419 330H421Z" fill="#9ADAF3"/>
<path d="M415 330L416 321H412L413 330L415 330Z" fill="#9ADAF3"/>
<path d="M421 330L422 321H418L419 330H421Z" fill="#9ADAF3"/>
<path d="M425 334C425 329.029 428.801 325 433.49 325H561.51C566.199 325 570 329.029 570 334C570 338.971 566.199 343 561.51 343H433.49C428.801 343 425 338.971 425 334Z" fill="#9ADAF3"/>
<path d="M249 293.087V291.023C247.962 291.023 247.242 290.786 246.84 290.314C246.438 289.841 246.237 289.078 246.237 288.023V285.753C246.237 284.486 246.084 283.472 245.778 282.712C245.466 281.945 245.034 281.366 244.482 280.976C243.924 280.586 243.264 280.325 242.502 280.195C241.74 280.065 240.906 280 240 280V283.267C240.708 283.267 241.248 283.373 241.62 283.585C241.986 283.791 242.235 284.112 242.367 284.551C242.499 284.982 242.565 285.53 242.565 286.194V289.194C242.565 289.714 242.649 290.211 242.817 290.684C242.985 291.149 243.297 291.564 243.753 291.927C244.209 292.283 244.86 292.567 245.706 292.779C246.552 292.985 247.65 293.087 249 293.087ZM240 306C240.906 306 241.74 305.935 242.502 305.805C243.264 305.675 243.924 305.414 244.482 305.024C245.034 304.634 245.466 304.055 245.778 303.288C246.084 302.528 246.237 301.514 246.237 300.247V297.967C246.237 296.912 246.438 296.149 246.84 295.676C247.242 295.203 247.962 294.967 249 294.967V292.902C247.65 292.902 246.552 293.009 245.706 293.221C244.86 293.426 244.209 293.711 243.753 294.073C243.297 294.43 242.985 294.844 242.817 295.316C242.649 295.782 242.565 296.279 242.565 296.806V299.806C242.565 300.463 242.499 301.008 242.367 301.439C242.235 301.877 241.986 302.199 241.62 302.405C241.248 302.617 240.708 302.723 240 302.723V306ZM249 294.967V291.023H245.769V294.967H249Z" fill="#9ADAF3"/>
<path d="M262 299C262 302 261 304 259 308H255C256 305 257 302 257 299H262Z" fill="#9ADAF3"/>
<path d="M309 246L308 255L306 255L305 246H309ZM315 246L314 255H312L311 246H315ZM451 246L450 255H448L447 246H451ZM457 246L456 255H454L453 246H457Z" fill="#9ADAF3"/>
<path d="M308 255L309 246H305L306 255L308 255Z" fill="#9ADAF3"/>
<path d="M314 255L315 246H311L312 255H314Z" fill="#9ADAF3"/>
<path d="M308 255L309 246H305L306 255L308 255Z" fill="#9ADAF3"/>
<path d="M314 255L315 246H311L312 255H314Z" fill="#9ADAF3"/>
<path d="M309 246L308 255L306 255L305 246H309ZM315 246L314 255H312L311 246H315ZM451 246L450 255H448L447 246H451ZM457 246L456 255H454L453 246H457Z" fill="#9ADAF3"/>
<path d="M308 255L309 246H305L306 255L308 255Z" fill="#9ADAF3"/>
<path d="M314 255L315 246H311L312 255H314Z" fill="#9ADAF3"/>
<path d="M308 255L309 246H305L306 255L308 255Z" fill="#9ADAF3"/>
<path d="M314 255L315 246H311L312 255H314Z" fill="#9ADAF3"/>
<path d="M460 253.5C460 251.567 461.567 250 463.5 250C465.433 250 467 251.567 467 253.5C467 255.433 465.433 257 463.5 257C461.567 257 460 255.433 460 253.5Z" fill="#9ADAF3"/>
<path d="M460 253.5C460 251.567 461.567 250 463.5 250C465.433 250 467 251.567 467 253.5C467 255.433 465.433 257 463.5 257C461.567 257 460 255.433 460 253.5Z" fill="#9ADAF3"/>
<path d="M460 264.5C460 262.567 461.567 261 463.5 261C465.433 261 467 262.567 467 264.5C467 266.433 465.433 268 463.5 268C461.567 268 460 266.433 460 264.5Z" fill="#9ADAF3"/>
<path d="M460 264.5C460 262.567 461.567 261 463.5 261C465.433 261 467 262.567 467 264.5C467 266.433 465.433 268 463.5 268C461.567 268 460 266.433 460 264.5Z" fill="#9ADAF3"/>
<path d="M318 259C318 254.029 321.801 250 326.49 250H436.51C441.199 250 445 254.029 445 259C445 263.971 441.199 268 436.51 268H326.49C321.801 268 318 263.971 318 259Z" fill="#9ADAF3"/>
<path d="M481 246L480 255L478 255L477 246H481ZM487 246L486 255H484L483 246H487ZM593 246L592 255H590L589 246H593ZM599 246L598 255H596L595 246H599Z" fill="#9ADAF3"/>
<path d="M480 255L481 246H477L478 255L480 255Z" fill="#9ADAF3"/>
<path d="M486 255L487 246H483L484 255H486Z" fill="#9ADAF3"/>
<path d="M480 255L481 246H477L478 255L480 255Z" fill="#9ADAF3"/>
<path d="M486 255L487 246H483L484 255H486Z" fill="#9ADAF3"/>
<path d="M481 246L480 255L478 255L477 246H481ZM487 246L486 255H484L483 246H487ZM593 246L592 255H590L589 246H593ZM599 246L598 255H596L595 246H599Z" fill="#9ADAF3"/>
<path d="M480 255L481 246H477L478 255L480 255Z" fill="#9ADAF3"/>
<path d="M486 255L487 246H483L484 255H486Z" fill="#9ADAF3"/>
<path d="M480 255L481 246H477L478 255L480 255Z" fill="#9ADAF3"/>
<path d="M486 255L487 246H483L484 255H486Z" fill="#9ADAF3"/>
<path d="M490 259C490 254.029 493.801 250 498.49 250H578.51C583.199 250 587 254.029 587 259C587 263.971 583.199 268 578.51 268H498.49C493.801 268 490 263.971 490 259Z" fill="#9ADAF3"/>
<path d="M334.001 225C334.001 228 333.001 230 331.001 234H327.001C328.001 231 329.001 228 329.001 225H334.001Z" fill="#9ADAF3"/>
<path d="M317.991 207L316.991 216H314.991L313.991 207H317.991ZM323.991 207L322.991 216H320.991L319.991 207H323.991Z" fill="#9ADAF3"/>
<path d="M317.991 207L316.991 216H314.991L313.991 207H317.991ZM323.991 207L322.991 216H320.991L319.991 207H323.991Z" fill="#9ADAF3"/>
<path d="M90.5098 220C90.5098 215.029 94.3109 211 98.9998 211H303.501C308.19 211 311.991 215.029 311.991 220C311.991 224.971 308.19 229 303.501 229H98.9998C94.3109 229 90.5098 224.971 90.5098 220Z" fill="#9ADAF3"/>
<path d="M440.598 177.86H449.134V182.128H440.598V177.86Z" fill="#9ADAF3"/>
<path d="M272 167L271 176L269 176L268 167H272ZM278 167L277 176H275L274 167H278ZM357 167L356 176H354L353 167H357ZM363 167L362 176H360L359 167H363Z" fill="#9ADAF3"/>
<path d="M271 176L272 167H268L269 176L271 176Z" fill="#9ADAF3"/>
<path d="M277 176L278 167H274L275 176H277Z" fill="#9ADAF3"/>
<path d="M271 176L272 167H268L269 176L271 176Z" fill="#9ADAF3"/>
<path d="M277 176L278 167H274L275 176H277Z" fill="#9ADAF3"/>
<path d="M272 167L271 176L269 176L268 167H272ZM278 167L277 176H275L274 167H278ZM357 167L356 176H354L353 167H357ZM363 167L362 176H360L359 167H363Z" fill="#9ADAF3"/>
<path d="M271 176L272 167H268L269 176L271 176Z" fill="#9ADAF3"/>
<path d="M277 176L278 167H274L275 176H277Z" fill="#9ADAF3"/>
<path d="M271 176L272 167H268L269 176L271 176Z" fill="#9ADAF3"/>
<path d="M277 176L278 167H274L275 176H277Z" fill="#9ADAF3"/>
<path d="M366 174.5C366 172.567 367.567 171 369.5 171C371.433 171 373 172.567 373 174.5C373 176.433 371.433 178 369.5 178C367.567 178 366 176.433 366 174.5Z" fill="#9ADAF3"/>
<path d="M366 174.5C366 172.567 367.567 171 369.5 171C371.433 171 373 172.567 373 174.5C373 176.433 371.433 178 369.5 178C367.567 178 366 176.433 366 174.5Z" fill="#9ADAF3"/>
<path d="M366 185.5C366 183.567 367.567 182 369.5 182C371.433 182 373 183.567 373 185.5C373 187.433 371.433 189 369.5 189C367.567 189 366 187.433 366 185.5Z" fill="#9ADAF3"/>
<path d="M366 185.5C366 183.567 367.567 182 369.5 182C371.433 182 373 183.567 373 185.5C373 187.433 371.433 189 369.5 189C367.567 189 366 187.433 366 185.5Z" fill="#9ADAF3"/>
<path d="M281 180C281 175.029 284.801 171 289.49 171H342.51C347.199 171 351 175.029 351 180C351 184.971 347.199 189 342.51 189H289.49C284.801 189 281 184.971 281 180Z" fill="#9ADAF3"/>
<path d="M387 167L386 176L384 176L383 167H387ZM393 167L392 176H390L389 167H393Z" fill="#9ADAF3"/>
<path d="M386 176L387 167H383L384 176L386 176Z" fill="#9ADAF3"/>
<path d="M392 176L393 167H389L390 176H392Z" fill="#9ADAF3"/>
<path d="M386 176L387 167H383L384 176L386 176Z" fill="#9ADAF3"/>
<path d="M392 176L393 167H389L390 176H392Z" fill="#9ADAF3"/>
<path d="M387 167L386 176L384 176L383 167H387ZM393 167L392 176H390L389 167H393Z" fill="#9ADAF3"/>
<path d="M386 176L387 167H383L384 176L386 176Z" fill="#9ADAF3"/>
<path d="M392 176L393 167H389L390 176H392Z" fill="#9ADAF3"/>
<path d="M386 176L387 167H383L384 176L386 176Z" fill="#9ADAF3"/>
<path d="M392 176L393 167H389L390 176H392Z" fill="#9ADAF3"/>
<path d="M396 180C396 175.029 399.801 171 404.49 171H425.51C430.199 171 434 175.029 434 180C434 184.971 430.199 189 425.51 189H404.49C399.801 189 396 184.971 396 180Z" fill="#9ADAF3"/>
<path d="M216 126L215 135L213 135L212 126H216ZM222 126L221 135H219L218 126H222ZM273 126L272 135H270L269 126H273ZM279 126L278 135H276L275 126H279Z" fill="#9ADAF3"/>
<path d="M215 135L216 126H212L213 135L215 135Z" fill="#9ADAF3"/>
<path d="M221 135L222 126H218L219 135H221Z" fill="#9ADAF3"/>
<path d="M215 135L216 126H212L213 135L215 135Z" fill="#9ADAF3"/>
<path d="M221 135L222 126H218L219 135H221Z" fill="#9ADAF3"/>
<path d="M216 126L215 135L213 135L212 126H216ZM222 126L221 135H219L218 126H222ZM273 126L272 135H270L269 126H273ZM279 126L278 135H276L275 126H279Z" fill="#9ADAF3"/>
<path d="M215 135L216 126H212L213 135L215 135Z" fill="#9ADAF3"/>
<path d="M221 135L222 126H218L219 135H221Z" fill="#9ADAF3"/>
<path d="M215 135L216 126H212L213 135L215 135Z" fill="#9ADAF3"/>
<path d="M221 135L222 126H218L219 135H221Z" fill="#9ADAF3"/>
<path d="M282 133.5C282 131.567 283.567 130 285.5 130C287.433 130 289 131.567 289 133.5C289 135.433 287.433 137 285.5 137C283.567 137 282 135.433 282 133.5Z" fill="#9ADAF3"/>
<path d="M282 133.5C282 131.567 283.567 130 285.5 130C287.433 130 289 131.567 289 133.5C289 135.433 287.433 137 285.5 137C283.567 137 282 135.433 282 133.5Z" fill="#9ADAF3"/>
<path d="M282 144.5C282 142.567 283.567 141 285.5 141C287.433 141 289 142.567 289 144.5C289 146.433 287.433 148 285.5 148C283.567 148 282 146.433 282 144.5Z" fill="#9ADAF3"/>
<path d="M282 144.5C282 142.567 283.567 141 285.5 141C287.433 141 289 142.567 289 144.5C289 146.433 287.433 148 285.5 148C283.567 148 282 146.433 282 144.5Z" fill="#9ADAF3"/>
<path d="M296 139.087V137.023C297.038 137.023 297.758 136.786 298.16 136.314C298.562 135.841 298.763 135.078 298.763 134.023V131.753C298.763 130.486 298.916 129.472 299.222 128.712C299.534 127.945 299.966 127.366 300.518 126.976C301.076 126.586 301.736 126.325 302.498 126.195C303.26 126.065 304.094 126 305 126V129.267C304.292 129.267 303.752 129.373 303.38 129.585C303.014 129.791 302.765 130.112 302.633 130.551C302.501 130.982 302.435 131.53 302.435 132.194V135.194C302.435 135.714 302.351 136.211 302.183 136.684C302.015 137.149 301.703 137.564 301.247 137.927C300.791 138.283 300.14 138.567 299.294 138.779C298.448 138.985 297.35 139.087 296 139.087ZM305 152C304.094 152 303.26 151.935 302.498 151.805C301.736 151.675 301.076 151.414 300.518 151.024C299.966 150.634 299.534 150.055 299.222 149.288C298.916 148.528 298.763 147.514 298.763 146.247V143.967C298.763 142.912 298.562 142.149 298.16 141.676C297.758 141.203 297.038 140.967 296 140.967V138.902C297.35 138.902 298.448 139.009 299.294 139.221C300.14 139.426 300.791 139.711 301.247 140.073C301.703 140.43 302.015 140.844 302.183 141.316C302.351 141.782 302.435 142.279 302.435 142.806V145.806C302.435 146.463 302.501 147.008 302.633 147.439C302.765 147.877 303.014 148.199 303.38 148.405C303.752 148.617 304.292 148.723 305 148.723V152ZM296 140.967V137.023H299.231V140.967H296Z" fill="#9ADAF3"/>
<path d="M225 139C225 134.029 228.801 130 233.49 130H258.51C263.199 130 267 134.029 267 139C267 143.971 263.199 148 258.51 148H233.49C228.801 148 225 143.971 225 139Z" fill="#9ADAF3"/>
<path d="M165 86L164 95L162 95L161 86H165ZM171 86L170 95H168L167 86H171ZM303 86L302 95H300L299 86H303ZM309 86L308 95H306L305 86H309Z" fill="#9ADAF3"/>
<path d="M164 95L165 86H161L162 95L164 95Z" fill="#9ADAF3"/>
<path d="M170 95L171 86H167L168 95H170Z" fill="#9ADAF3"/>
<path d="M164 95L165 86H161L162 95L164 95Z" fill="#9ADAF3"/>
<path d="M170 95L171 86H167L168 95H170Z" fill="#9ADAF3"/>
<path d="M165 86L164 95L162 95L161 86H165ZM171 86L170 95H168L167 86H171ZM303 86L302 95H300L299 86H303ZM309 86L308 95H306L305 86H309Z" fill="#9ADAF3"/>
<path d="M164 95L165 86H161L162 95L164 95Z" fill="#9ADAF3"/>
<path d="M170 95L171 86H167L168 95H170Z" fill="#9ADAF3"/>
<path d="M164 95L165 86H161L162 95L164 95Z" fill="#9ADAF3"/>
<path d="M170 95L171 86H167L168 95H170Z" fill="#9ADAF3"/>
<path d="M312 93.5C312 91.567 313.567 90 315.5 90C317.433 90 319 91.567 319 93.5C319 95.433 317.433 97 315.5 97C313.567 97 312 95.433 312 93.5Z" fill="#9ADAF3"/>
<path d="M312 93.5C312 91.567 313.567 90 315.5 90C317.433 90 319 91.567 319 93.5C319 95.433 317.433 97 315.5 97C313.567 97 312 95.433 312 93.5Z" fill="#9ADAF3"/>
<path d="M312 104.5C312 102.567 313.567 101 315.5 101C317.433 101 319 102.567 319 104.5C319 106.433 317.433 108 315.5 108C313.567 108 312 106.433 312 104.5Z" fill="#9ADAF3"/>
<path d="M312 104.5C312 102.567 313.567 101 315.5 101C317.433 101 319 102.567 319 104.5C319 106.433 317.433 108 315.5 108C313.567 108 312 106.433 312 104.5Z" fill="#9ADAF3"/>
<path d="M326 99.0873V97.0225C327.038 97.0225 327.758 96.7863 328.16 96.3137C328.562 95.8412 328.763 95.0776 328.763 94.0229V91.7527C328.763 90.4857 328.916 89.4721 329.222 88.712C329.534 87.9449 329.966 87.3663 330.518 86.9759C331.076 86.5855 331.736 86.3253 332.498 86.1952C333.26 86.0651 334.094 86 335 86V89.2667C334.292 89.2667 333.752 89.3728 333.38 89.5851C333.014 89.7906 332.765 90.1125 332.633 90.5508C332.501 90.9822 332.435 91.5301 332.435 92.1944V95.194C332.435 95.7145 332.351 96.211 332.183 96.6835C332.015 97.1492 331.703 97.5635 331.247 97.9265C330.791 98.2826 330.14 98.5668 329.294 98.7791C328.448 98.9846 327.35 99.0873 326 99.0873ZM335 112C334.094 112 333.26 111.935 332.498 111.805C331.736 111.675 331.076 111.414 330.518 111.024C329.966 110.634 329.534 110.055 329.222 109.288C328.916 108.528 328.763 107.514 328.763 106.247V103.967C328.763 102.912 328.562 102.149 328.16 101.676C327.758 101.203 327.038 100.967 326 100.967V98.9024C327.35 98.9024 328.448 99.0086 329.294 99.2209C330.14 99.4263 330.791 99.7105 331.247 100.073C331.703 100.43 332.015 100.844 332.183 101.316C332.351 101.782 332.435 102.279 332.435 102.806V105.806C332.435 106.463 332.501 107.008 332.633 107.439C332.765 107.877 333.014 108.199 333.38 108.405C333.752 108.617 334.292 108.723 335 108.723V112ZM326 100.967V97.0225H329.231V100.967H326Z" fill="#9ADAF3"/>
<path d="M174 99C174 94.0294 177.801 90 182.49 90H288.51C293.199 90 297 94.0294 297 99C297 103.971 293.199 108 288.51 108H182.49C177.801 108 174 103.971 174 99Z" fill="#9ADAF3"/>
<path d="M124 46L123 55L121 55L120 46H124ZM130 46L129 55H127L126 46H130ZM179 46L178 55H176L175 46H179ZM185 46L184 55H182L181 46H185Z" fill="#9ADAF3"/>
<path d="M123 55L124 46H120L121 55L123 55Z" fill="#9ADAF3"/>
<path d="M129 55L130 46H126L127 55H129Z" fill="#9ADAF3"/>
<path d="M123 55L124 46H120L121 55L123 55Z" fill="#9ADAF3"/>
<path d="M129 55L130 46H126L127 55H129Z" fill="#9ADAF3"/>
<path d="M124 46L123 55L121 55L120 46H124ZM130 46L129 55H127L126 46H130ZM179 46L178 55H176L175 46H179ZM185 46L184 55H182L181 46H185Z" fill="#9ADAF3"/>
<path d="M123 55L124 46H120L121 55L123 55Z" fill="#9ADAF3"/>
<path d="M129 55L130 46H126L127 55H129Z" fill="#9ADAF3"/>
<path d="M123 55L124 46H120L121 55L123 55Z" fill="#9ADAF3"/>
<path d="M129 55L130 46H126L127 55H129Z" fill="#9ADAF3"/>
<path d="M188 53.5C188 51.567 189.567 50 191.5 50C193.433 50 195 51.567 195 53.5C195 55.433 193.433 57 191.5 57C189.567 57 188 55.433 188 53.5Z" fill="#9ADAF3"/>
<path d="M188 53.5C188 51.567 189.567 50 191.5 50C193.433 50 195 51.567 195 53.5C195 55.433 193.433 57 191.5 57C189.567 57 188 55.433 188 53.5Z" fill="#9ADAF3"/>
<path d="M188 64.5C188 62.567 189.567 61 191.5 61C193.433 61 195 62.567 195 64.5C195 66.433 193.433 68 191.5 68C189.567 68 188 66.433 188 64.5Z" fill="#9ADAF3"/>
<path d="M188 64.5C188 62.567 189.567 61 191.5 61C193.433 61 195 62.567 195 64.5C195 66.433 193.433 68 191.5 68C189.567 68 188 66.433 188 64.5Z" fill="#9ADAF3"/>
<path d="M202 59.0873V57.0225C203.038 57.0225 203.758 56.7863 204.16 56.3137C204.562 55.8412 204.763 55.0776 204.763 54.0229V51.7527C204.763 50.4857 204.916 49.4721 205.222 48.712C205.534 47.9449 205.966 47.3663 206.518 46.9759C207.076 46.5855 207.736 46.3253 208.498 46.1952C209.26 46.0651 210.094 46 211 46V49.2667C210.292 49.2667 209.752 49.3728 209.38 49.5851C209.014 49.7906 208.765 50.1125 208.633 50.5508C208.501 50.9822 208.435 51.5301 208.435 52.1944V55.194C208.435 55.7145 208.351 56.211 208.183 56.6835C208.015 57.1492 207.703 57.5635 207.247 57.9265C206.791 58.2826 206.14 58.5668 205.294 58.7791C204.448 58.9846 203.35 59.0873 202 59.0873ZM211 72C210.094 72 209.26 71.9349 208.498 71.8048C207.736 71.6747 207.076 71.4145 206.518 71.0241C205.966 70.6337 205.534 70.0551 205.222 69.288C204.916 68.5279 204.763 67.5143 204.763 66.2473V63.9668C204.763 62.9122 204.562 62.1486 204.16 61.676C203.758 61.2035 203.038 60.9672 202 60.9672V58.9024C203.35 58.9024 204.448 59.0086 205.294 59.2209C206.14 59.4263 206.791 59.7105 207.247 60.0735C207.703 60.4296 208.015 60.8439 208.183 61.3165C208.351 61.7822 208.435 62.2787 208.435 62.806V65.8056C208.435 66.4631 208.501 67.0075 208.633 67.439C208.765 67.8773 209.014 68.1991 209.38 68.4046C209.752 68.6169 210.292 68.723 211 68.723V72ZM202 60.9672V57.0225H205.231V60.9672H202Z" fill="#9ADAF3"/>
<path d="M133 59C133 54.0294 136.801 50 141.49 50H164.51C169.199 50 173 54.0294 173 59C173 63.9706 169.199 68 164.51 68H141.49C136.801 68 133 63.9706 133 59Z" fill="#9ADAF3"/>
<path d="M90 22.0873V20.0225C91.038 20.0225 91.758 19.7863 92.16 19.3137C92.562 18.8412 92.763 18.0776 92.763 17.0229V14.7527C92.763 13.4857 92.916 12.4721 93.222 11.712C93.534 10.9449 93.966 10.3663 94.518 9.9759C95.076 9.58554 95.736 9.3253 96.498 9.19518C97.26 9.06506 98.094 9 99 9V12.2667C98.292 12.2667 97.752 12.3728 97.38 12.5851C97.014 12.7906 96.765 13.1125 96.633 13.5508C96.501 13.9822 96.435 14.5301 96.435 15.1944V18.194C96.435 18.7145 96.351 19.211 96.183 19.6835C96.015 20.1492 95.703 20.5635 95.247 20.9265C94.791 21.2826 94.14 21.5668 93.294 21.7791C92.448 21.9846 91.35 22.0873 90 22.0873ZM99 35C98.094 35 97.26 34.9349 96.498 34.8048C95.736 34.6747 95.076 34.4145 94.518 34.0241C93.966 33.6337 93.534 33.0551 93.222 32.288C92.916 31.5279 92.763 30.5143 92.763 29.2473V26.9668C92.763 25.9122 92.562 25.1486 92.16 24.676C91.758 24.2035 91.038 23.9672 90 23.9672V21.9024C91.35 21.9024 92.448 22.0086 93.294 22.2209C94.14 22.4263 94.791 22.7105 95.247 23.0735C95.703 23.4296 96.015 23.8439 96.183 24.3165C96.351 24.7822 96.435 25.2787 96.435 25.806V28.8056C96.435 29.4631 96.501 30.0075 96.633 30.439C96.765 30.8773 97.014 31.1991 97.38 31.4046C97.752 31.6169 98.292 31.723 99 31.723V35ZM90 23.9672V20.0225H93.231V23.9672H90Z" fill="#9ADAF3"/>
<rect x="378" y="353" width="4" height="42" rx="2" fill="white"/>
<mask id="path-14-outside-1_4767_8403" maskUnits="userSpaceOnUse" x="378" y="98.0002" width="149" height="289" fill="black">
<rect fill="white" x="378" y="98.0002" width="149" height="289"/>
<path d="M458.568 191.288C458.568 191.288 458.278 191.578 458.278 191.868C456.828 194.479 455.378 197.379 453.928 200.28C453.348 201.73 452.478 203.47 451.607 205.21C449.577 209.851 447.257 214.492 445.227 219.132C442.906 223.773 440.876 228.413 438.846 233.344C436.815 237.985 434.785 242.625 433.045 247.266C431.015 251.906 428.984 256.547 427.244 261.188C425.214 266.118 423.474 270.759 421.733 275.4C421.153 276.56 420.863 277.72 420.283 278.59C418.833 282.36 417.673 286.129 416.224 289.899L416.225 289.901C415.935 291.061 415.644 291.931 415.354 292.801C413.614 296.861 412.164 300.922 411.004 304.693C410.714 304.983 410.714 305.273 410.424 305.563C410.134 306.723 409.844 307.593 409.264 308.753C396.212 345.878 387.511 374.302 386.351 378.653C385.48 380.683 384.32 382.133 382 382.713C389.251 358.93 396.502 336.307 403.463 316.004C399.112 315.134 392.731 316.294 384.9 319.485C390.121 315.424 395.632 312.234 400.562 311.654C398.822 311.364 394.762 309.913 389.251 304.983C394.472 306.723 399.112 307.593 402.593 307.013C401.723 298.312 397.082 289.32 390.701 280.039C390.701 280.039 399.402 284.97 402.593 290.481C402.883 290.191 402.883 289.901 402.883 289.611C403.173 283.23 404.333 276.559 405.493 269.888C405.493 269.599 405.493 269.598 405.782 269.021L405.781 269.019C406.941 263.508 408.102 257.997 409.842 252.777C410.422 250.456 411.002 248.136 411.872 245.816C412.742 242.915 413.612 240.305 414.772 237.115C416.513 232.764 418.253 228.123 420.283 223.193C422.023 218.842 424.344 214.201 426.374 209.561C426.954 208.981 427.244 208.111 427.534 207.24C429.274 203.76 431.305 199.989 433.335 196.219C435.655 192.159 437.976 187.808 440.296 183.457C442.616 179.397 445.227 175.336 447.547 171.276C447.837 171.275 447.837 170.696 448.127 170.696L458.568 191.288ZM501.495 103.406C510.473 97.9032 518.005 110.33 518.027 110.366C518.027 110.366 524.118 118.198 521.218 135.6C521.131 135.615 521.043 135.629 520.955 135.644C521.044 135.629 521.133 135.616 521.221 135.601C520.931 137.051 520.641 139.081 520.061 140.822C519.48 142.852 518.61 145.172 517.74 147.782C516.29 151.843 514.26 156.194 511.939 160.834C509.329 165.475 506.719 170.116 504.108 174.466C503.238 175.626 502.078 177.077 501.208 178.527C498.018 183.167 494.537 186.357 486.707 189.837C486.995 189.834 487.286 189.548 487.862 189.548C491.923 188.968 496.563 187.228 499.463 185.778C500.043 185.488 500.333 185.197 500.623 184.907C500.333 185.488 500.333 186.358 500.043 187.518L499.173 190.128C499.173 190.708 498.883 190.998 498.883 191.288C498.593 192.158 498.303 193.029 497.723 194.189C496.853 196.219 495.982 198.539 494.532 201.15C494.242 201.73 493.952 202.6 493.662 203.18C493.372 203.47 493.082 204.05 492.792 204.34C492.212 205.5 491.053 206.661 490.183 207.821C489.893 208.4 489.313 208.981 489.022 209.271C488.442 210.141 487.862 210.721 486.992 211.301C486.412 211.591 486.122 212.171 485.542 212.461C483.222 214.491 480.321 215.942 477.131 217.102H477.711C478.291 217.102 478.871 217.102 479.451 216.812C484.382 215.652 488.442 213.621 491.053 211.881C486.702 220.582 480.611 227.543 471.33 231.024C471.91 231.024 472.49 231.024 472.78 230.734C473.36 230.734 473.941 230.444 474.521 230.444C477.421 229.864 480.031 228.993 482.352 227.833C480.611 233.344 478.871 238.275 476.841 243.205C474.521 248.716 472.2 253.357 469.59 257.997C466.399 263.798 462.919 269.019 458.858 273.079C450.157 282.361 436.815 290.192 426.664 291.352H426.946L426.956 291.351C437.977 293.381 448.709 290.481 457.99 281.199C456.83 283.23 455.67 285.26 454.8 287C450.159 294.541 444.648 299.182 434.207 303.823C441.458 304.112 445.229 302.372 448.419 298.602C447.839 299.762 447.259 300.632 446.679 301.792C440.008 312.814 426.956 316.584 411.584 316.004C415.064 319.195 416.805 323.255 417.095 327.606C414.774 323.255 412.164 319.775 409.264 318.324C411.004 312.814 411.874 310.493 412.744 307.593C413.034 307.303 413.324 306.723 413.324 306.143C413.614 306.143 413.614 306.143 413.614 305.853C414.774 302.082 416.225 298.022 417.675 294.251C417.965 293.671 418.255 292.801 418.255 292.221L418.575 292.189L418.833 291.932C420.283 287.001 422.314 282.361 424.054 277.72C424.054 277.43 424.054 277.43 424.344 277.14C426.084 272.499 427.824 267.859 429.564 263.508C431.305 258.577 433.335 253.647 435.365 249.006C437.105 244.075 439.136 239.435 441.166 234.794C443.196 229.864 445.227 225.513 447.257 220.872C448.707 217.392 450.447 213.911 451.897 210.431L453.638 206.95C454.508 204.92 455.668 202.6 456.538 200.57C457.408 198.539 458.278 196.799 459.148 194.769L460.019 193.029C460.019 192.739 460.309 192.738 460.309 192.448L460.458 192.432C462.73 187.627 464.995 183.373 466.983 179.397C469.594 174.466 471.914 170.115 474.234 165.765C476.845 160.834 479.455 156.484 481.775 152.423C481.776 152.133 482.066 152.133 482.355 151.843C484.966 146.913 487.576 142.852 489.896 139.371C489.909 139.37 489.922 139.369 489.935 139.368C489.921 139.369 489.907 139.37 489.894 139.37C497.557 127.875 502.746 121.33 505.262 118.545C499.754 124.439 494.258 131.365 489.024 139.077L489.026 139.081C486.416 142.852 483.806 146.912 481.195 150.973C480.905 151.263 480.615 151.553 480.615 151.843C477.715 155.903 475.394 160.254 472.784 164.895C470.174 169.245 467.853 173.596 465.243 178.237C462.923 182.297 460.603 186.938 458.572 191.288L448.131 170.696C448.131 170.406 448.131 170.405 448.421 170.115C450.741 166.345 453.062 162.864 455.092 159.384C457.992 155.034 460.603 151.263 463.503 147.202C466.403 143.142 469.014 139.081 471.914 135.311C474.524 132.12 476.845 128.93 479.165 126.03C479.744 125.45 480.324 124.581 480.903 124.001L480.902 123.998C489.603 113.267 496.855 106.016 501.495 103.406Z"/>
</mask>
<path d="M458.568 191.288C458.568 191.288 458.278 191.578 458.278 191.868C456.828 194.479 455.378 197.379 453.928 200.28C453.348 201.73 452.478 203.47 451.607 205.21C449.577 209.851 447.257 214.492 445.227 219.132C442.906 223.773 440.876 228.413 438.846 233.344C436.815 237.985 434.785 242.625 433.045 247.266C431.015 251.906 428.984 256.547 427.244 261.188C425.214 266.118 423.474 270.759 421.733 275.4C421.153 276.56 420.863 277.72 420.283 278.59C418.833 282.36 417.673 286.129 416.224 289.899L416.225 289.901C415.935 291.061 415.644 291.931 415.354 292.801C413.614 296.861 412.164 300.922 411.004 304.693C410.714 304.983 410.714 305.273 410.424 305.563C410.134 306.723 409.844 307.593 409.264 308.753C396.212 345.878 387.511 374.302 386.351 378.653C385.48 380.683 384.32 382.133 382 382.713C389.251 358.93 396.502 336.307 403.463 316.004C399.112 315.134 392.731 316.294 384.9 319.485C390.121 315.424 395.632 312.234 400.562 311.654C398.822 311.364 394.762 309.913 389.251 304.983C394.472 306.723 399.112 307.593 402.593 307.013C401.723 298.312 397.082 289.32 390.701 280.039C390.701 280.039 399.402 284.97 402.593 290.481C402.883 290.191 402.883 289.901 402.883 289.611C403.173 283.23 404.333 276.559 405.493 269.888C405.493 269.599 405.493 269.598 405.782 269.021L405.781 269.019C406.941 263.508 408.102 257.997 409.842 252.777C410.422 250.456 411.002 248.136 411.872 245.816C412.742 242.915 413.612 240.305 414.772 237.115C416.513 232.764 418.253 228.123 420.283 223.193C422.023 218.842 424.344 214.201 426.374 209.561C426.954 208.981 427.244 208.111 427.534 207.24C429.274 203.76 431.305 199.989 433.335 196.219C435.655 192.159 437.976 187.808 440.296 183.457C442.616 179.397 445.227 175.336 447.547 171.276C447.837 171.275 447.837 170.696 448.127 170.696L458.568 191.288ZM501.495 103.406C510.473 97.9032 518.005 110.33 518.027 110.366C518.027 110.366 524.118 118.198 521.218 135.6C521.131 135.615 521.043 135.629 520.955 135.644C521.044 135.629 521.133 135.616 521.221 135.601C520.931 137.051 520.641 139.081 520.061 140.822C519.48 142.852 518.61 145.172 517.74 147.782C516.29 151.843 514.26 156.194 511.939 160.834C509.329 165.475 506.719 170.116 504.108 174.466C503.238 175.626 502.078 177.077 501.208 178.527C498.018 183.167 494.537 186.357 486.707 189.837C486.995 189.834 487.286 189.548 487.862 189.548C491.923 188.968 496.563 187.228 499.463 185.778C500.043 185.488 500.333 185.197 500.623 184.907C500.333 185.488 500.333 186.358 500.043 187.518L499.173 190.128C499.173 190.708 498.883 190.998 498.883 191.288C498.593 192.158 498.303 193.029 497.723 194.189C496.853 196.219 495.982 198.539 494.532 201.15C494.242 201.73 493.952 202.6 493.662 203.18C493.372 203.47 493.082 204.05 492.792 204.34C492.212 205.5 491.053 206.661 490.183 207.821C489.893 208.4 489.313 208.981 489.022 209.271C488.442 210.141 487.862 210.721 486.992 211.301C486.412 211.591 486.122 212.171 485.542 212.461C483.222 214.491 480.321 215.942 477.131 217.102H477.711C478.291 217.102 478.871 217.102 479.451 216.812C484.382 215.652 488.442 213.621 491.053 211.881C486.702 220.582 480.611 227.543 471.33 231.024C471.91 231.024 472.49 231.024 472.78 230.734C473.36 230.734 473.941 230.444 474.521 230.444C477.421 229.864 480.031 228.993 482.352 227.833C480.611 233.344 478.871 238.275 476.841 243.205C474.521 248.716 472.2 253.357 469.59 257.997C466.399 263.798 462.919 269.019 458.858 273.079C450.157 282.361 436.815 290.192 426.664 291.352H426.946L426.956 291.351C437.977 293.381 448.709 290.481 457.99 281.199C456.83 283.23 455.67 285.26 454.8 287C450.159 294.541 444.648 299.182 434.207 303.823C441.458 304.112 445.229 302.372 448.419 298.602C447.839 299.762 447.259 300.632 446.679 301.792C440.008 312.814 426.956 316.584 411.584 316.004C415.064 319.195 416.805 323.255 417.095 327.606C414.774 323.255 412.164 319.775 409.264 318.324C411.004 312.814 411.874 310.493 412.744 307.593C413.034 307.303 413.324 306.723 413.324 306.143C413.614 306.143 413.614 306.143 413.614 305.853C414.774 302.082 416.225 298.022 417.675 294.251C417.965 293.671 418.255 292.801 418.255 292.221L418.575 292.189L418.833 291.932C420.283 287.001 422.314 282.361 424.054 277.72C424.054 277.43 424.054 277.43 424.344 277.14C426.084 272.499 427.824 267.859 429.564 263.508C431.305 258.577 433.335 253.647 435.365 249.006C437.105 244.075 439.136 239.435 441.166 234.794C443.196 229.864 445.227 225.513 447.257 220.872C448.707 217.392 450.447 213.911 451.897 210.431L453.638 206.95C454.508 204.92 455.668 202.6 456.538 200.57C457.408 198.539 458.278 196.799 459.148 194.769L460.019 193.029C460.019 192.739 460.309 192.738 460.309 192.448L460.458 192.432C462.73 187.627 464.995 183.373 466.983 179.397C469.594 174.466 471.914 170.115 474.234 165.765C476.845 160.834 479.455 156.484 481.775 152.423C481.776 152.133 482.066 152.133 482.355 151.843C484.966 146.913 487.576 142.852 489.896 139.371C489.909 139.37 489.922 139.369 489.935 139.368C489.921 139.369 489.907 139.37 489.894 139.37C497.557 127.875 502.746 121.33 505.262 118.545C499.754 124.439 494.258 131.365 489.024 139.077L489.026 139.081C486.416 142.852 483.806 146.912 481.195 150.973C480.905 151.263 480.615 151.553 480.615 151.843C477.715 155.903 475.394 160.254 472.784 164.895C470.174 169.245 467.853 173.596 465.243 178.237C462.923 182.297 460.603 186.938 458.572 191.288L448.131 170.696C448.131 170.406 448.131 170.405 448.421 170.115C450.741 166.345 453.062 162.864 455.092 159.384C457.992 155.034 460.603 151.263 463.503 147.202C466.403 143.142 469.014 139.081 471.914 135.311C474.524 132.12 476.845 128.93 479.165 126.03C479.744 125.45 480.324 124.581 480.903 124.001L480.902 123.998C489.603 113.267 496.855 106.016 501.495 103.406Z" fill="#333333"/>
<path d="M458.568 191.288L461.398 194.116C462.62 192.893 462.918 191.022 462.136 189.479L458.568 191.288ZM458.278 191.868L461.775 193.811C462.105 193.217 462.278 192.549 462.278 191.87L458.278 191.868ZM453.928 200.28L450.35 198.491C450.3 198.59 450.255 198.691 450.214 198.794L453.928 200.28ZM451.607 205.21L448.03 203.421C447.999 203.482 447.97 203.544 447.943 203.607L451.607 205.21ZM445.227 219.132L448.804 220.921C448.835 220.86 448.864 220.798 448.891 220.735L445.227 219.132ZM438.846 233.344L442.51 234.947C442.522 234.921 442.533 234.894 442.544 234.867L438.846 233.344ZM433.045 247.266L436.71 248.869C436.738 248.804 436.765 248.737 436.79 248.67L433.045 247.266ZM427.244 261.188L430.943 262.711C430.959 262.671 430.975 262.632 430.989 262.592L427.244 261.188ZM421.733 275.4L425.311 277.188C425.374 277.063 425.43 276.935 425.479 276.804L421.733 275.4ZM420.283 278.59L416.955 276.371C416.792 276.617 416.656 276.879 416.55 277.154L420.283 278.59ZM416.224 289.899L412.49 288.463C412.087 289.512 412.143 290.682 412.646 291.688L416.224 289.899ZM416.225 289.901L420.105 290.871C420.337 289.944 420.229 288.966 419.802 288.112L416.225 289.901ZM415.354 292.801L419.031 294.377C419.075 294.275 419.114 294.171 419.149 294.066L415.354 292.801ZM411.004 304.693L413.832 307.521C414.294 307.06 414.635 306.493 414.827 305.869L411.004 304.693ZM410.424 305.563L407.595 302.735C407.082 303.248 406.719 303.89 406.543 304.593L410.424 305.563ZM409.264 308.753L405.686 306.964C405.611 307.114 405.546 307.269 405.49 307.427L409.264 308.753ZM386.351 378.653L390.027 380.228C390.103 380.051 390.166 379.869 390.216 379.683L386.351 378.653ZM382 382.713L378.174 381.547C377.754 382.925 378.107 384.424 379.1 385.469C380.093 386.513 381.572 386.943 382.97 386.594L382 382.713ZM403.463 316.004L407.247 317.301C407.621 316.21 407.506 315.011 406.931 314.011C406.356 313.011 405.378 312.308 404.247 312.082L403.463 316.004ZM384.9 319.485L382.445 316.327C380.868 317.554 380.437 319.756 381.437 321.486C382.437 323.216 384.559 323.943 386.41 323.189L384.9 319.485ZM400.562 311.654L401.03 315.626C403.008 315.393 404.514 313.741 404.561 311.75C404.609 309.758 403.185 308.035 401.22 307.708L400.562 311.654ZM389.251 304.983L390.516 301.188C388.717 300.588 386.743 301.334 385.791 302.975C384.839 304.615 385.17 306.699 386.584 307.964L389.251 304.983ZM402.593 307.013L403.25 310.959C405.329 310.612 406.783 308.712 406.573 306.615L402.593 307.013ZM390.701 280.039L392.673 276.559C391.052 275.641 389.012 275.963 387.753 277.336C386.494 278.709 386.349 280.77 387.405 282.305L390.701 280.039ZM402.593 290.481L399.131 292.485C399.754 293.561 400.841 294.286 402.074 294.447C403.306 294.608 404.543 294.187 405.422 293.308L402.593 290.481ZM402.883 289.611L398.887 289.429C398.884 289.489 398.883 289.55 398.883 289.611H402.883ZM405.493 269.888L409.434 270.573C409.473 270.347 409.493 270.118 409.493 269.888H405.493ZM405.782 269.021L409.36 270.81C409.923 269.684 409.923 268.358 409.36 267.232L405.782 269.021ZM405.781 269.019L401.867 268.195C401.681 269.079 401.8 270 402.204 270.808L405.781 269.019ZM409.842 252.777L413.637 254.042C413.669 253.944 413.698 253.846 413.722 253.747L409.842 252.777ZM411.872 245.816L415.617 247.22C415.649 247.136 415.678 247.051 415.703 246.965L411.872 245.816ZM414.772 237.115L411.059 235.629C411.043 235.668 411.028 235.708 411.013 235.748L414.772 237.115ZM420.283 223.193L423.982 224.716C423.987 224.703 423.992 224.691 423.997 224.678L420.283 223.193ZM426.374 209.561L423.545 206.733C423.193 207.085 422.909 207.501 422.709 207.958L426.374 209.561ZM427.534 207.24L423.956 205.452C423.872 205.621 423.799 205.796 423.739 205.976L427.534 207.24ZM433.335 196.219L429.862 194.234C429.845 194.264 429.829 194.293 429.813 194.323L433.335 196.219ZM440.296 183.457L436.823 181.473C436.804 181.507 436.785 181.541 436.766 181.575L440.296 183.457ZM447.547 171.276L447.542 167.276C446.109 167.277 444.785 168.046 444.074 169.291L447.547 171.276ZM448.127 170.696L451.695 168.887C451.013 167.543 449.634 166.696 448.127 166.696V170.696ZM501.495 103.406L503.456 106.892C503.5 106.867 503.543 106.842 503.585 106.816L501.495 103.406ZM518.027 110.366L514.606 112.438C514.686 112.571 514.774 112.699 514.87 112.822L518.027 110.366ZM521.218 135.6L521.894 139.542C523.572 139.255 524.883 137.937 525.163 136.257L521.218 135.6ZM520.955 135.644L520.282 131.701C518.108 132.072 516.645 134.132 517.01 136.307C517.376 138.482 519.433 139.95 521.609 139.59L520.955 135.644ZM521.221 135.601L525.143 136.385C525.401 135.096 525.009 133.763 524.094 132.818C523.18 131.874 521.86 131.439 520.563 131.655L521.221 135.601ZM520.061 140.822L516.266 139.557C516.247 139.612 516.23 139.667 516.214 139.723L520.061 140.822ZM517.74 147.782L521.507 149.128C521.517 149.101 521.526 149.074 521.535 149.047L517.74 147.782ZM511.939 160.834L515.426 162.795C515.458 162.739 515.488 162.681 515.517 162.623L511.939 160.834ZM504.108 174.466L507.308 176.866C507.391 176.756 507.468 176.642 507.538 176.524L504.108 174.466ZM501.208 178.527L504.504 180.793C504.551 180.725 504.596 180.655 504.638 180.585L501.208 178.527ZM486.707 189.837L485.082 186.182C483.348 186.953 482.394 188.837 482.799 190.691C483.205 192.546 484.858 193.86 486.756 193.837L486.707 189.837ZM487.862 189.548V193.548C488.052 193.548 488.241 193.535 488.428 193.508L487.862 189.548ZM499.463 185.778L501.252 189.355L501.252 189.355L499.463 185.778ZM500.623 184.907L504.201 186.696C505.078 184.942 504.553 182.81 502.962 181.662C501.37 180.515 499.182 180.692 497.795 182.079L500.623 184.907ZM500.043 187.518L503.838 188.783C503.87 188.686 503.899 188.587 503.924 188.488L500.043 187.518ZM499.173 190.128L495.378 188.863C495.242 189.271 495.173 189.698 495.173 190.128H499.173ZM498.883 191.288L502.678 192.553C502.813 192.146 502.883 191.719 502.883 191.29L498.883 191.288ZM497.723 194.189L494.145 192.4C494.11 192.47 494.077 192.541 494.046 192.613L497.723 194.189ZM494.532 201.15L491.036 199.207C491.007 199.258 490.98 199.309 490.954 199.361L494.532 201.15ZM493.662 203.18L496.491 206.008C496.795 205.704 497.048 205.353 497.24 204.969L493.662 203.18ZM492.792 204.34L489.964 201.512C489.66 201.816 489.407 202.167 489.214 202.551L492.792 204.34ZM490.183 207.821L486.983 205.42C486.839 205.612 486.712 205.817 486.605 206.032L490.183 207.821ZM489.022 209.271L486.194 206.442C486.008 206.629 485.84 206.833 485.694 207.052L489.022 209.271ZM486.992 211.301L488.781 214.879C488.929 214.805 489.073 214.721 489.211 214.629L486.992 211.301ZM485.542 212.461L483.752 208.884C483.448 209.036 483.164 209.227 482.908 209.451L485.542 212.461ZM477.131 217.102L475.764 213.343C473.939 214.006 472.855 215.884 473.192 217.796C473.528 219.708 475.189 221.102 477.131 221.102V217.102ZM477.711 217.102V221.102V217.102ZM479.451 216.812L478.535 212.918C478.233 212.989 477.94 213.095 477.662 213.234L479.451 216.812ZM491.053 211.881L494.63 213.67C495.442 212.048 495.06 210.083 493.7 208.882C492.34 207.682 490.343 207.547 488.834 208.553L491.053 211.881ZM471.33 231.024L469.926 227.278C468.115 227.957 467.049 229.835 467.394 231.737C467.739 233.64 469.396 235.024 471.33 235.024V231.024ZM472.78 230.734L472.779 226.734C471.719 226.734 470.702 227.155 469.952 227.905L472.78 230.734ZM474.521 230.444V234.444C474.784 234.444 475.047 234.418 475.305 234.366L474.521 230.444ZM482.352 227.833L486.166 229.038C486.65 227.506 486.17 225.834 484.948 224.791C483.727 223.748 481.999 223.537 480.563 224.256L482.352 227.833ZM476.841 243.205L480.527 244.758C480.531 244.748 480.536 244.738 480.54 244.728L476.841 243.205ZM469.59 257.997L466.104 256.036C466.097 256.047 466.091 256.058 466.085 256.07L469.59 257.997ZM458.858 273.079L456.03 270.251C456 270.281 455.97 270.312 455.94 270.344L458.858 273.079ZM426.664 291.352L426.21 287.378C424.103 287.618 422.55 289.462 422.671 291.579C422.791 293.697 424.543 295.352 426.664 295.352V291.352ZM426.946 291.352V295.352C427.079 295.352 427.212 295.345 427.344 295.332L426.946 291.352ZM426.956 291.351L427.681 287.417C427.311 287.349 426.933 287.333 426.558 287.371L426.956 291.351ZM457.99 281.199L461.463 283.184C462.457 281.444 462.011 279.237 460.418 278.021C458.826 276.804 456.579 276.954 455.162 278.371L457.99 281.199ZM454.8 287L458.206 289.097C458.268 288.997 458.325 288.894 458.377 288.789L454.8 287ZM434.207 303.823L432.582 300.167C430.884 300.922 429.929 302.748 430.278 304.575C430.628 306.401 432.189 307.745 434.047 307.819L434.207 303.823ZM448.419 298.602L451.997 300.391C452.902 298.579 452.311 296.377 450.621 295.262C448.93 294.148 446.673 294.472 445.365 296.018L448.419 298.602ZM446.679 301.792L450.101 303.863C450.156 303.771 450.208 303.677 450.256 303.581L446.679 301.792ZM411.584 316.004L411.735 312.007C410.059 311.944 408.521 312.933 407.884 314.484C407.247 316.035 407.645 317.819 408.881 318.953L411.584 316.004ZM417.095 327.606L413.565 329.488C414.452 331.152 416.381 331.97 418.193 331.452C420.006 330.934 421.211 329.221 421.086 327.34L417.095 327.606ZM409.264 318.324L405.449 317.12C404.857 318.995 405.716 321.023 407.475 321.902L409.264 318.324ZM412.744 307.593L409.915 304.765C409.447 305.233 409.103 305.81 408.913 306.444L412.744 307.593ZM413.324 306.143V302.143C411.115 302.143 409.324 303.934 409.324 306.143H413.324ZM413.614 305.853L409.791 304.676C409.674 305.058 409.614 305.454 409.614 305.853H413.614ZM417.675 294.251L414.097 292.463C414.039 292.578 413.988 292.695 413.941 292.815L417.675 294.251ZM418.255 292.221L417.854 288.241C415.811 288.447 414.255 290.167 414.255 292.221H418.255ZM418.575 292.189L418.976 296.169C419.891 296.077 420.747 295.672 421.398 295.023L418.575 292.189ZM418.833 291.932L421.656 294.766C422.132 294.292 422.481 293.705 422.67 293.061L418.833 291.932ZM424.054 277.72L427.799 279.124C427.967 278.675 428.054 278.2 428.054 277.72H424.054ZM424.344 277.14L427.172 279.968C427.576 279.565 427.889 279.079 428.089 278.544L424.344 277.14ZM429.564 263.508L433.278 264.994C433.299 264.943 433.318 264.891 433.336 264.839L429.564 263.508ZM435.365 249.006L439.03 250.609C439.069 250.52 439.105 250.429 439.137 250.337L435.365 249.006ZM441.166 234.794L444.831 236.397C444.842 236.371 444.854 236.344 444.865 236.317L441.166 234.794ZM447.257 220.872L450.921 222.476C450.931 222.454 450.94 222.432 450.949 222.411L447.257 220.872ZM451.897 210.431L448.32 208.642C448.279 208.724 448.24 208.808 448.205 208.892L451.897 210.431ZM453.638 206.95L457.215 208.739C457.25 208.669 457.283 208.598 457.314 208.526L453.638 206.95ZM456.538 200.57L452.862 198.994L452.862 198.994L456.538 200.57ZM459.148 194.769L455.571 192.98C455.536 193.05 455.503 193.121 455.472 193.193L459.148 194.769ZM460.019 193.029L463.596 194.817C463.874 194.263 464.018 193.651 464.019 193.03L460.019 193.029ZM460.309 192.448L459.867 188.473C457.841 188.698 456.309 190.41 456.309 192.448H460.309ZM460.458 192.432L460.9 196.407C462.279 196.254 463.481 195.397 464.074 194.142L460.458 192.432ZM466.983 179.397L463.448 177.525C463.434 177.553 463.42 177.58 463.406 177.608L466.983 179.397ZM474.234 165.765L477.764 167.647L477.77 167.636L474.234 165.765ZM481.775 152.423L485.248 154.408C485.593 153.804 485.775 153.121 485.775 152.426L481.775 152.423ZM482.355 151.843L485.184 154.671C485.466 154.389 485.704 154.067 485.891 153.715L482.355 151.843ZM489.896 139.371L489.621 135.381C488.384 135.466 487.256 136.121 486.568 137.153L489.896 139.371ZM489.935 139.368L490.211 143.359C492.388 143.208 494.043 141.34 493.929 139.16C493.816 136.981 491.976 135.295 489.795 135.371L489.935 139.368ZM489.894 139.37L486.565 137.152C485.733 138.4 485.669 140.008 486.4 141.318C487.13 142.628 488.532 143.42 490.031 143.368L489.894 139.37ZM505.262 118.545L508.23 121.227C509.702 119.597 509.585 117.085 507.968 115.6C506.351 114.114 503.839 114.21 502.339 115.814L505.262 118.545ZM489.024 139.077L485.715 136.831C484.902 138.029 484.8 139.572 485.447 140.866L489.024 139.077ZM489.026 139.081L492.315 141.358C493.146 140.157 493.257 138.599 492.604 137.292L489.026 139.081ZM481.195 150.973L484.024 153.801C484.226 153.599 484.406 153.376 484.56 153.136L481.195 150.973ZM480.615 151.843L483.87 154.168C484.354 153.49 484.615 152.679 484.615 151.846L480.615 151.843ZM472.784 164.895L476.214 166.953C476.233 166.921 476.252 166.888 476.27 166.856L472.784 164.895ZM465.243 178.237L468.716 180.221C468.721 180.213 468.725 180.205 468.729 180.198L465.243 178.237ZM458.572 191.288L455.005 193.097C455.697 194.462 457.107 195.313 458.638 195.288C460.168 195.263 461.55 194.367 462.197 192.98L458.572 191.288ZM448.131 170.696H444.131C444.131 171.324 444.279 171.944 444.563 172.504L448.131 170.696ZM448.421 170.115L451.249 172.944C451.47 172.723 451.664 172.478 451.828 172.212L448.421 170.115ZM455.092 159.384L451.764 157.165C451.719 157.232 451.677 157.3 451.637 157.369L455.092 159.384ZM463.503 147.202L466.758 149.527V149.527L463.503 147.202ZM471.914 135.311L468.818 132.778C468.793 132.809 468.768 132.84 468.744 132.872L471.914 135.311ZM479.165 126.03L476.336 123.201C476.232 123.306 476.134 123.416 476.042 123.531L479.165 126.03ZM480.903 124.001L483.733 126.828C484.803 125.757 485.177 124.173 484.698 122.736L480.903 124.001ZM480.902 123.998L477.795 121.479C476.935 122.54 476.676 123.967 477.108 125.263L480.902 123.998ZM458.568 191.288C455.739 188.461 455.738 188.462 455.738 188.462C455.737 188.462 455.737 188.463 455.736 188.464C455.735 188.465 455.734 188.465 455.733 188.466C455.732 188.468 455.73 188.47 455.728 188.472C455.724 188.476 455.72 188.48 455.716 188.484C455.707 188.493 455.699 188.502 455.69 188.511C455.672 188.529 455.652 188.55 455.631 188.573C455.589 188.618 455.539 188.673 455.485 188.736C455.381 188.858 455.241 189.032 455.095 189.251C454.89 189.559 454.279 190.52 454.278 191.867L458.278 191.868L462.278 191.87C462.278 192.449 462.138 192.891 462.037 193.141C461.934 193.4 461.821 193.584 461.752 193.688C461.678 193.798 461.611 193.882 461.561 193.941C461.534 193.972 461.507 194.002 461.481 194.03C461.468 194.044 461.454 194.058 461.44 194.072C461.433 194.08 461.426 194.087 461.419 194.094C461.416 194.098 461.412 194.101 461.409 194.105C461.407 194.107 461.405 194.109 461.403 194.11C461.402 194.111 461.401 194.112 461.4 194.113C461.4 194.114 461.399 194.114 461.399 194.114C461.398 194.115 461.398 194.116 458.568 191.288ZM458.278 191.868L454.782 189.926C453.281 192.626 451.791 195.608 450.35 198.491L453.928 200.28L457.505 202.068C458.964 199.15 460.375 196.331 461.775 193.811L458.278 191.868ZM453.928 200.28L450.214 198.794C449.709 200.056 448.924 201.633 448.03 203.421L451.607 205.21L455.185 206.999C456.031 205.308 456.987 203.403 457.642 201.765L453.928 200.28ZM451.607 205.21L447.943 203.607C446.952 205.872 445.887 208.145 444.795 210.473C443.711 212.785 442.601 215.153 441.562 217.529L445.227 219.132L448.891 220.735C449.882 218.471 450.947 216.197 452.039 213.869C453.123 211.557 454.233 209.189 455.272 206.813L451.607 205.21ZM445.227 219.132L441.649 217.343C439.269 222.103 437.198 226.841 435.147 231.821L438.846 233.344L442.544 234.867C444.554 229.986 446.544 225.442 448.804 220.921L445.227 219.132ZM438.846 233.344L435.181 231.741C433.159 236.363 431.084 241.103 429.3 245.861L433.045 247.266L436.79 248.67C438.486 244.148 440.472 239.606 442.51 234.947L438.846 233.344ZM433.045 247.266L429.38 245.663C427.358 250.285 425.283 255.025 423.499 259.783L427.244 261.188L430.989 262.592C432.686 258.069 434.671 253.528 436.71 248.869L433.045 247.266ZM427.244 261.188L423.545 259.665C421.487 264.663 419.726 269.361 417.988 273.995L421.733 275.4L425.479 276.804C427.221 272.157 428.94 267.574 430.943 262.711L427.244 261.188ZM421.733 275.4L418.156 273.611C417.77 274.382 417.47 275.179 417.294 275.618C417.077 276.161 416.991 276.318 416.955 276.371L420.283 278.59L423.611 280.809C424.156 279.992 424.504 279.134 424.722 278.589C424.982 277.94 425.117 277.577 425.311 277.188L421.733 275.4ZM420.283 278.59L416.55 277.154C415.797 279.113 415.122 281.061 414.473 282.936C413.817 284.831 413.187 286.652 412.49 288.463L416.224 289.899L419.957 291.334C420.71 289.376 421.384 287.428 422.033 285.553C422.689 283.658 423.32 281.837 424.017 280.026L420.283 278.59ZM416.224 289.899L412.646 291.688L412.647 291.689L416.225 289.901L419.802 288.112L419.801 288.11L416.224 289.899ZM416.225 289.901L412.344 288.93C412.095 289.928 411.848 290.672 411.56 291.536L415.354 292.801L419.149 294.066C419.441 293.191 419.775 292.193 420.105 290.871L416.225 289.901ZM415.354 292.801L411.678 291.225C409.876 295.43 408.378 299.626 407.181 303.516L411.004 304.693L414.827 305.869C415.95 302.219 417.353 298.293 419.031 294.377L415.354 292.801ZM411.004 304.693L408.175 301.864C407.526 302.513 407.21 303.192 407.136 303.338C407.064 303.482 407.236 303.094 407.595 302.735L410.424 305.563L413.253 308.39C413.902 307.741 414.218 307.063 414.291 306.917C414.363 306.774 414.192 307.162 413.832 307.521L411.004 304.693ZM410.424 305.563L406.543 304.593C406.309 305.531 406.11 306.117 405.686 306.964L409.264 308.753L412.841 310.542C413.578 309.07 413.959 307.914 414.304 306.533L410.424 305.563ZM409.264 308.753L405.49 307.427C392.428 344.581 383.686 373.12 382.486 377.622L386.351 378.653L390.216 379.683C391.335 375.484 399.996 347.175 413.037 310.08L409.264 308.753ZM386.351 378.653L382.674 377.077C382.347 377.841 382.084 378.205 381.891 378.398C381.746 378.543 381.531 378.707 381.03 378.833L382 382.713L382.97 386.594C384.79 386.139 386.315 385.288 387.548 384.055C388.732 382.871 389.485 381.494 390.027 380.228L386.351 378.653ZM382 382.713L385.826 383.88C393.067 360.129 400.304 337.551 407.247 317.301L403.463 316.004L399.679 314.707C392.7 335.063 385.435 357.731 378.174 381.547L382 382.713ZM403.463 316.004L404.247 312.082C398.713 310.975 391.421 312.509 383.391 315.78L384.9 319.485L386.41 323.189C394.042 320.08 399.512 319.293 402.678 319.926L403.463 316.004ZM384.9 319.485L387.356 322.642C392.462 318.671 397.242 316.072 401.03 315.626L400.562 311.654L400.095 307.681C394.022 308.395 387.78 312.177 382.445 316.327L384.9 319.485ZM400.562 311.654L401.22 307.708C400.424 307.575 397.034 306.579 391.918 302.002L389.251 304.983L386.584 307.964C392.49 313.248 397.22 315.152 399.905 315.599L400.562 311.654ZM389.251 304.983L387.986 308.777C393.331 310.559 398.757 311.707 403.25 310.959L402.593 307.013L401.935 303.067C399.468 303.479 395.612 302.887 390.516 301.188L389.251 304.983ZM402.593 307.013L406.573 306.615C405.599 296.874 400.472 287.191 393.997 277.773L390.701 280.039L387.405 282.305C393.692 291.45 397.846 299.749 398.613 307.411L402.593 307.013ZM390.701 280.039C388.729 283.519 388.729 283.519 388.728 283.519C388.728 283.519 388.728 283.518 388.727 283.518C388.727 283.518 388.726 283.518 388.726 283.518C388.726 283.518 388.726 283.518 388.727 283.518C388.728 283.519 388.731 283.52 388.736 283.523C388.747 283.529 388.765 283.54 388.791 283.555C388.843 283.585 388.924 283.633 389.033 283.697C389.249 283.827 389.571 284.022 389.97 284.275C390.771 284.783 391.871 285.513 393.058 286.399C395.55 288.259 397.964 290.469 399.131 292.485L402.593 290.481L406.054 288.476C404.031 284.982 400.499 281.971 397.843 279.988C396.456 278.952 395.181 278.106 394.251 277.517C393.785 277.221 393.402 276.988 393.13 276.826C392.994 276.745 392.886 276.682 392.808 276.637C392.77 276.615 392.739 276.597 392.716 276.584C392.705 276.577 392.696 276.572 392.688 276.568C392.685 276.566 392.682 276.564 392.679 276.563C392.678 276.562 392.677 276.561 392.676 276.561C392.675 276.56 392.675 276.56 392.674 276.56C392.674 276.56 392.673 276.559 390.701 280.039ZM402.593 290.481L405.422 293.308C406.954 291.776 406.883 289.962 406.883 289.611H402.883H398.883C398.883 289.828 398.864 289.483 398.966 289.075C399.102 288.533 399.385 288.032 399.764 287.653L402.593 290.481ZM402.883 289.611L406.879 289.792C407.155 283.711 408.265 277.297 409.434 270.573L405.493 269.888L401.552 269.203C400.401 275.82 399.191 282.749 398.887 289.429L402.883 289.611ZM405.493 269.888H409.493C409.493 269.842 409.493 269.852 409.493 269.871C409.492 269.896 409.491 269.972 409.481 270.075C409.471 270.186 409.453 270.316 409.423 270.459C409.394 270.602 409.358 270.726 409.324 270.828C409.264 271.006 409.209 271.116 409.23 271.072C409.248 271.033 409.28 270.97 409.36 270.81L405.782 269.021L402.205 267.232C402.14 267.36 402.063 267.513 402 267.647C401.94 267.773 401.831 268.01 401.735 268.297C401.62 268.643 401.547 268.99 401.514 269.348C401.49 269.617 401.493 269.87 401.493 269.888H405.493ZM405.782 269.021L409.36 267.232L409.359 267.23L405.781 269.019L402.204 270.808L402.205 270.81L405.782 269.021ZM405.781 269.019L409.695 269.843C410.864 264.291 411.981 259.008 413.637 254.042L409.842 252.777L406.047 251.512C404.222 256.987 403.018 262.726 401.867 268.195L405.781 269.019ZM409.842 252.777L413.722 253.747C414.31 251.395 414.84 249.293 415.617 247.22L411.872 245.816L408.127 244.411C407.164 246.978 406.533 249.517 405.961 251.806L409.842 252.777ZM411.872 245.816L415.703 246.965C416.549 244.146 417.395 241.608 418.532 238.481L414.772 237.115L411.013 235.748C409.83 239.001 408.935 241.685 408.041 244.666L411.872 245.816ZM414.772 237.115L418.486 238.6C420.282 234.112 421.949 229.653 423.982 224.716L420.283 223.193L416.584 221.67C414.557 226.593 412.744 231.416 411.059 235.629L414.772 237.115ZM420.283 223.193L423.997 224.678C425.728 220.351 427.869 216.123 430.039 211.164L426.374 209.561L422.709 207.958C420.819 212.279 418.319 217.333 416.569 221.707L420.283 223.193ZM426.374 209.561L429.203 212.389C430.58 211.011 431.121 209.129 431.329 208.505L427.534 207.24L423.739 205.976C423.664 206.201 423.608 206.371 423.551 206.528C423.495 206.681 423.454 206.783 423.421 206.854C423.35 207.011 423.372 206.906 423.545 206.733L426.374 209.561ZM427.534 207.24L431.112 209.029C432.82 205.613 434.82 201.899 436.857 198.115L433.335 196.219L429.813 194.323C427.79 198.08 425.729 201.907 423.956 205.452L427.534 207.24ZM433.335 196.219L436.808 198.204C439.162 194.083 441.511 189.68 443.825 185.34L440.296 183.457L436.766 181.575C434.441 185.936 432.148 190.234 429.862 194.234L433.335 196.219ZM440.296 183.457L443.769 185.442C444.898 183.465 446.103 181.481 447.341 179.442C448.568 177.42 449.829 175.344 451.02 173.26L447.547 171.276L444.074 169.291C442.945 171.267 441.74 173.252 440.502 175.291C439.274 177.313 438.014 179.389 436.823 181.473L440.296 183.457ZM447.547 171.276L447.551 175.276C447.908 175.275 448.27 175.23 448.629 175.134C448.986 175.039 449.312 174.901 449.6 174.739C450.17 174.42 450.555 174.03 450.792 173.745C451.027 173.464 451.18 173.207 451.261 173.065C451.34 172.925 451.405 172.794 451.414 172.776C451.441 172.721 451.413 172.78 451.372 172.852C451.329 172.927 451.216 173.121 451.027 173.348C450.834 173.579 450.498 173.923 449.984 174.211C449.723 174.357 449.428 174.482 449.102 174.568C448.775 174.655 448.447 174.696 448.127 174.696V170.696V166.696C447.771 166.696 447.409 166.741 447.05 166.836C446.692 166.931 446.366 167.068 446.077 167.23C445.507 167.549 445.12 167.939 444.883 168.224C444.648 168.506 444.494 168.763 444.413 168.906C444.334 169.046 444.269 169.177 444.26 169.195C444.233 169.25 444.261 169.191 444.302 169.119C444.344 169.045 444.457 168.851 444.646 168.625C444.837 168.395 445.173 168.05 445.686 167.762C445.946 167.616 446.241 167.491 446.567 167.404C446.894 167.317 447.222 167.276 447.542 167.276L447.547 171.276ZM448.127 170.696L444.559 172.504L455.001 193.097L458.568 191.288L462.136 189.479L451.695 168.887L448.127 170.696ZM501.495 103.406L503.585 106.816C504.956 105.976 506.082 105.891 507.082 106.09C508.201 106.312 509.402 106.95 510.61 107.924C513.063 109.9 514.662 112.53 514.606 112.438L518.027 110.366L521.449 108.295C521.371 108.166 519.192 104.564 515.629 101.694C513.829 100.244 511.463 98.8047 508.643 98.2437C505.705 97.6589 502.523 98.084 499.405 99.9951L501.495 103.406ZM518.027 110.366C514.87 112.822 514.868 112.82 514.867 112.818C514.866 112.818 514.865 112.816 514.864 112.814C514.862 112.812 514.86 112.81 514.858 112.807C514.855 112.803 514.852 112.799 514.849 112.795C514.844 112.788 514.84 112.783 514.837 112.779C514.832 112.772 514.832 112.772 514.838 112.78C514.848 112.795 514.879 112.839 514.927 112.913C515.023 113.061 515.186 113.327 515.388 113.714C515.793 114.489 516.358 115.754 516.859 117.538C517.856 121.09 518.629 126.804 517.272 134.942L521.218 135.6L525.163 136.257C526.707 126.993 525.885 120.091 524.561 115.376C523.902 113.028 523.126 111.247 522.479 110.01C522.156 109.391 521.866 108.909 521.64 108.561C521.527 108.386 521.43 108.245 521.353 108.137C521.314 108.083 521.28 108.037 521.252 108C521.238 107.981 521.226 107.964 521.214 107.949C521.209 107.942 521.203 107.935 521.198 107.928C521.196 107.925 521.194 107.922 521.191 107.919C521.19 107.918 521.189 107.916 521.188 107.915C521.186 107.913 521.185 107.911 518.027 110.366ZM521.218 135.6L520.542 131.657C520.269 131.704 520.613 131.644 520.282 131.701L520.955 135.644L521.628 139.587C521.66 139.581 521.693 139.576 521.739 139.568C521.782 139.561 521.837 139.552 521.894 139.542L521.218 135.6ZM520.955 135.644L521.609 139.59C521.639 139.585 521.671 139.58 521.718 139.572C521.761 139.565 521.819 139.556 521.878 139.546L521.221 135.601L520.563 131.655C520.29 131.701 520.643 131.641 520.301 131.698L520.955 135.644ZM521.221 135.601L517.298 134.816C516.943 136.592 516.741 138.132 516.266 139.557L520.061 140.822L523.855 142.086C524.54 140.031 524.918 137.51 525.143 136.385L521.221 135.601ZM520.061 140.822L516.214 139.723C515.663 141.652 514.887 143.693 513.946 146.518L517.74 147.782L521.535 149.047C522.333 146.652 523.298 144.052 523.907 141.92L520.061 140.822ZM517.74 147.782L513.973 146.437C512.607 150.264 510.664 154.44 508.362 159.045L511.939 160.834L515.517 162.623C517.855 157.947 519.974 153.422 521.507 149.128L517.74 147.782ZM511.939 160.834L508.453 158.873C505.837 163.524 503.255 168.114 500.678 172.408L504.108 174.466L507.538 176.524C510.183 172.117 512.821 167.426 515.426 162.795L511.939 160.834ZM504.108 174.466L500.908 172.066C500.151 173.075 498.788 174.786 497.778 176.469L501.208 178.527L504.638 180.585C505.368 179.367 506.325 178.177 507.308 176.866L504.108 174.466ZM501.208 178.527L497.912 176.26C495.185 180.227 492.314 182.968 485.082 186.182L486.707 189.837L488.332 193.492C496.76 189.746 500.851 186.107 504.504 180.793L501.208 178.527ZM486.707 189.837L486.756 193.837C487.466 193.828 488.016 193.649 488.267 193.56C488.4 193.513 488.512 193.467 488.565 193.445C488.643 193.413 488.635 193.416 488.654 193.408C488.657 193.407 488.557 193.448 488.404 193.484C488.243 193.523 488.058 193.548 487.862 193.548V189.548V185.548C487.378 185.548 486.941 185.609 486.554 185.701C486.176 185.791 485.877 185.904 485.699 185.974C485.628 186.002 485.534 186.041 485.53 186.043C485.5 186.056 485.533 186.041 485.59 186.021C485.687 185.987 486.093 185.844 486.658 185.837L486.707 189.837ZM487.862 189.548L488.428 193.508C493.034 192.85 498.093 190.934 501.252 189.355L499.463 185.778L497.674 182.2C495.032 183.521 490.811 185.086 487.297 185.588L487.862 189.548ZM499.463 185.778L501.252 189.355C502.421 188.771 503.079 188.108 503.451 187.736L500.623 184.907L497.795 182.079C497.757 182.117 497.731 182.142 497.707 182.166C497.685 182.188 497.67 182.202 497.66 182.212C497.64 182.23 497.641 182.229 497.653 182.219C497.666 182.208 497.68 182.198 497.692 182.191C497.702 182.184 497.699 182.188 497.674 182.2L499.463 185.778ZM500.623 184.907L497.045 183.119C496.593 184.023 496.45 184.963 496.387 185.338C496.299 185.87 496.258 186.166 496.162 186.548L500.043 187.518L503.924 188.488C504.118 187.71 504.222 186.991 504.279 186.653C504.294 186.559 504.306 186.493 504.316 186.441C504.321 186.416 504.324 186.398 504.327 186.386C504.33 186.373 504.331 186.367 504.331 186.367C504.331 186.367 504.33 186.375 504.326 186.388C504.322 186.402 504.315 186.423 504.305 186.451C504.287 186.505 504.254 186.591 504.201 186.696L500.623 184.907ZM500.043 187.518L496.248 186.253L495.378 188.863L499.173 190.128L502.968 191.393L503.838 188.783L500.043 187.518ZM499.173 190.128H495.173C495.173 189.93 495.199 189.743 495.238 189.58C495.275 189.427 495.316 189.326 495.314 189.332C495.304 189.356 495.309 189.342 495.275 189.427C495.252 189.481 495.205 189.597 495.156 189.735C495.064 189.995 494.883 190.56 494.883 191.287L498.883 191.288L502.883 191.29C502.883 191.872 502.738 192.291 502.7 192.398C502.679 192.458 502.663 192.495 502.675 192.467C502.682 192.449 502.683 192.446 502.698 192.41C502.709 192.383 502.725 192.345 502.742 192.302C502.812 192.127 502.926 191.826 503.017 191.447C503.111 191.057 503.173 190.616 503.173 190.128H499.173ZM498.883 191.288L495.088 190.023C494.807 190.867 494.59 191.509 494.145 192.4L497.723 194.189L501.3 195.978C502.015 194.548 502.379 193.45 502.678 192.553L498.883 191.288ZM497.723 194.189L494.046 192.613C493.099 194.823 492.355 196.833 491.036 199.207L494.532 201.15L498.029 203.092C499.61 200.246 500.606 197.615 501.399 195.764L497.723 194.189ZM494.532 201.15L490.954 199.361C490.72 199.831 490.51 200.364 490.383 200.679C490.22 201.089 490.14 201.281 490.084 201.391L493.662 203.18L497.24 204.969C497.475 204.499 497.685 203.966 497.811 203.65C497.975 203.241 498.055 203.049 498.11 202.938L494.532 201.15ZM493.662 203.18L490.833 200.352C490.547 200.638 490.334 200.919 490.21 201.09C490.081 201.268 489.962 201.447 489.899 201.541C489.817 201.664 489.791 201.703 489.775 201.724C489.754 201.753 489.822 201.653 489.964 201.512L492.792 204.34L495.62 207.169C495.907 206.882 496.12 206.601 496.244 206.43C496.374 206.253 496.492 206.074 496.555 205.979C496.637 205.856 496.664 205.817 496.68 205.795C496.7 205.767 496.632 205.867 496.491 206.008L493.662 203.18ZM492.792 204.34L489.214 202.551C489.133 202.714 488.937 203.009 488.491 203.559C488.156 203.972 487.472 204.768 486.983 205.42L490.183 207.821L493.383 210.221C493.763 209.713 494.094 209.349 494.701 208.602C495.197 207.991 495.871 207.126 496.37 206.129L492.792 204.34ZM490.183 207.821L486.605 206.032C486.647 205.947 486.673 205.914 486.658 205.936C486.645 205.954 486.616 205.993 486.566 206.051C486.459 206.176 486.34 206.296 486.194 206.442L489.022 209.271L491.851 212.099C492.041 211.909 493.128 210.874 493.76 209.609L490.183 207.821ZM489.022 209.271L485.694 207.052C485.407 207.482 485.204 207.686 484.773 207.973L486.992 211.301L489.211 214.629C490.52 213.756 491.478 212.799 492.351 211.49L489.022 209.271ZM486.992 211.301L485.203 207.723C484.697 207.976 484.305 208.268 484.019 208.51C483.753 208.735 483.528 208.963 483.439 209.052C483.311 209.181 483.318 209.17 483.348 209.145C483.398 209.103 483.536 208.992 483.752 208.884L485.542 212.461L487.332 216.038C487.838 215.785 488.23 215.493 488.516 215.252C488.781 215.027 489.006 214.799 489.095 214.71C489.223 214.582 489.216 214.592 489.186 214.618C489.136 214.66 488.997 214.771 488.781 214.879L486.992 211.301ZM485.542 212.461L482.908 209.451C481.106 211.028 478.714 212.27 475.764 213.343L477.131 217.102L478.498 220.861C481.928 219.614 485.338 217.955 488.176 215.471L485.542 212.461ZM477.131 217.102V221.102H477.711V217.102V213.102H477.131V217.102ZM477.711 217.102V221.102C478.19 221.102 479.699 221.16 481.24 220.389L479.451 216.812L477.662 213.234C477.759 213.186 477.852 213.152 477.933 213.129C478.012 213.107 478.067 213.099 478.085 213.096C478.1 213.095 478.086 213.097 478.021 213.099C477.989 213.1 477.95 213.101 477.897 213.101C477.843 213.102 477.786 213.102 477.711 213.102V217.102ZM479.451 216.812L480.367 220.705C485.807 219.425 490.304 217.187 493.272 215.209L491.053 211.881L488.834 208.553C486.581 210.055 482.956 211.878 478.535 212.918L479.451 216.812ZM491.053 211.881L487.475 210.092C483.416 218.209 477.973 224.26 469.926 227.278L471.33 231.024L472.735 234.769C483.249 230.826 489.988 222.955 494.63 213.67L491.053 211.881ZM471.33 231.024V235.024C471.546 235.024 472.139 235.032 472.73 234.947C473.267 234.87 474.541 234.63 475.609 233.562L472.78 230.734L469.952 227.905C470.357 227.5 470.775 227.286 471.055 227.176C471.327 227.07 471.531 227.037 471.598 227.028C471.671 227.017 471.694 227.019 471.631 227.021C471.567 227.023 471.487 227.024 471.33 227.024V231.024ZM472.78 230.734L472.781 234.734C473.253 234.734 473.658 234.675 473.953 234.62C474.235 234.567 474.496 234.5 474.62 234.469C474.698 234.45 474.741 234.439 474.78 234.43C474.816 234.421 474.827 234.42 474.822 234.42C474.818 234.421 474.702 234.444 474.521 234.444V230.444V226.444C474.049 226.444 473.643 226.502 473.349 226.557C473.066 226.61 472.805 226.677 472.681 226.708C472.603 226.727 472.559 226.738 472.52 226.747C472.484 226.756 472.473 226.758 472.478 226.757C472.483 226.756 472.598 226.734 472.779 226.734L472.78 230.734ZM474.521 230.444L475.305 234.366C478.506 233.726 481.461 232.75 484.14 231.411L482.352 227.833L480.563 224.256C478.601 225.236 476.335 226.001 473.736 226.521L474.521 230.444ZM482.352 227.833L478.537 226.629C476.822 232.06 475.119 236.88 473.142 241.682L476.841 243.205L480.54 244.728C482.623 239.669 484.401 234.628 486.166 229.038L482.352 227.833ZM476.841 243.205L473.154 241.653C470.897 247.013 468.645 251.518 466.104 256.036L469.59 257.997L473.076 259.958C475.755 255.196 478.144 250.419 480.527 244.758L476.841 243.205ZM469.59 257.997L466.085 256.07C462.98 261.716 459.711 266.569 456.03 270.251L458.858 273.079L461.687 275.908C466.126 271.468 469.819 265.88 473.095 259.925L469.59 257.997ZM458.858 273.079L455.94 270.344C451.882 274.672 446.691 278.709 441.316 281.791C435.902 284.894 430.56 286.88 426.21 287.378L426.664 291.352L427.118 295.326C432.919 294.663 439.324 292.154 445.294 288.731C451.303 285.287 457.134 280.768 461.777 275.815L458.858 273.079ZM426.664 291.352V295.352H426.946V291.352V287.352H426.664V291.352ZM426.946 291.352L427.344 295.332L427.354 295.331L426.956 291.351L426.558 287.371L426.548 287.372L426.946 291.352ZM426.956 291.351L426.231 295.285C438.554 297.555 450.612 294.234 460.819 284.028L457.99 281.199L455.162 278.371C446.806 286.727 437.4 289.207 427.681 287.417L426.956 291.351ZM457.99 281.199L454.517 279.215C453.374 281.216 452.152 283.351 451.222 285.211L454.8 287L458.377 288.789C459.188 287.169 460.287 285.243 461.463 283.184L457.99 281.199ZM454.8 287L451.393 284.904C447.261 291.619 442.449 295.782 432.582 300.167L434.207 303.823L435.832 307.478C446.847 302.582 453.058 297.463 458.206 289.097L454.8 287ZM434.207 303.823L434.047 307.819C437.994 307.977 441.346 307.601 444.28 306.465C447.279 305.304 449.543 303.466 451.472 301.186L448.419 298.602L445.365 296.018C444.105 297.508 442.888 298.425 441.392 299.005C439.83 299.609 437.671 299.958 434.367 299.826L434.207 303.823ZM448.419 298.602L444.841 296.813C444.608 297.28 444.371 297.696 444.076 298.213C443.791 298.712 443.448 299.31 443.101 300.003L446.679 301.792L450.256 303.581C450.49 303.114 450.727 302.698 451.022 302.182C451.307 301.682 451.65 301.084 451.997 300.391L448.419 298.602ZM446.679 301.792L443.257 299.721C437.725 308.86 426.597 312.568 411.735 312.007L411.584 316.004L411.433 320.001C427.315 320.601 442.291 316.767 450.101 303.863L446.679 301.792ZM411.584 316.004L408.881 318.953C411.544 321.394 412.876 324.465 413.104 327.872L417.095 327.606L421.086 327.34C420.733 322.045 418.585 316.995 414.287 313.056L411.584 316.004ZM417.095 327.606L420.624 325.723C418.263 321.295 415.159 316.8 411.053 314.747L409.264 318.324L407.475 321.902C409.169 322.749 411.286 325.215 413.565 329.488L417.095 327.606ZM409.264 318.324L413.078 319.529C414.728 314.305 415.721 311.59 416.575 308.742L412.744 307.593L408.913 306.444C408.027 309.396 407.28 311.322 405.449 317.12L409.264 318.324ZM412.744 307.593L415.573 310.421C416.562 309.432 417.324 307.853 417.324 306.143H413.324H409.324C409.324 305.789 409.406 305.542 409.466 305.401C409.519 305.277 409.637 305.043 409.915 304.765L412.744 307.593ZM413.324 306.143V310.143C413.348 310.143 413.425 310.143 413.502 310.141C413.575 310.14 413.737 310.136 413.934 310.114C414.22 310.082 415.397 309.944 416.406 308.936C417.415 307.927 417.553 306.749 417.585 306.463C417.607 306.267 417.611 306.104 417.613 306.031C417.614 305.953 417.614 305.877 417.614 305.853H413.614H409.614C409.614 306.022 409.608 305.811 409.634 305.577C409.657 305.373 409.777 304.25 410.75 303.278C411.723 302.305 412.846 302.185 413.05 302.163C413.283 302.137 413.494 302.143 413.324 302.143V306.143ZM413.614 305.853L417.437 307.029C418.563 303.372 419.98 299.402 421.408 295.687L417.675 294.251L413.941 292.815C412.47 296.642 410.986 300.793 409.791 304.676L413.614 305.853ZM417.675 294.251L421.253 296.04C421.656 295.234 422.255 293.707 422.255 292.221H418.255H414.255C414.255 292.13 414.26 292.065 414.264 292.031C414.268 291.995 414.271 291.977 414.271 291.977C414.271 291.976 414.27 291.986 414.264 292.007C414.259 292.027 414.252 292.054 414.242 292.087C414.222 292.154 414.196 292.228 414.167 292.302C414.138 292.377 414.112 292.433 414.097 292.463L417.675 294.251ZM418.255 292.221L418.655 296.201L418.976 296.169L418.575 292.189L418.175 288.209L417.854 288.241L418.255 292.221ZM418.575 292.189L421.398 295.023L421.656 294.766L418.833 291.932L416.01 289.098L415.752 289.355L418.575 292.189ZM418.833 291.932L422.67 293.061C424.067 288.311 425.957 284.035 427.799 279.124L424.054 277.72L420.308 276.315C418.67 280.686 416.499 285.691 414.996 290.803L418.833 291.932ZM424.054 277.72H428.054C428.054 277.574 428.058 277.748 428.038 277.946C428.008 278.254 427.919 278.716 427.668 279.219C427.45 279.653 427.203 279.928 427.149 279.988C427.103 280.039 427.069 280.071 427.172 279.968L424.344 277.14L421.515 274.311C421.473 274.354 421.331 274.494 421.203 274.636C421.067 274.787 420.766 275.134 420.512 275.641C420.225 276.216 420.118 276.751 420.078 277.149C420.061 277.321 420.057 277.464 420.055 277.543C420.054 277.62 420.054 277.695 420.054 277.72H424.054ZM424.344 277.14L428.089 278.544C429.832 273.895 431.557 269.297 433.278 264.994L429.564 263.508L425.851 262.022C424.091 266.421 422.335 271.103 420.598 275.735L424.344 277.14ZM429.564 263.508L433.336 264.839C435.033 260.033 437.022 255.199 439.03 250.609L435.365 249.006L431.701 247.403C429.648 252.094 427.577 257.121 425.792 262.177L429.564 263.508ZM435.365 249.006L439.137 250.337C440.821 245.567 442.792 241.057 444.831 236.397L441.166 234.794L437.501 233.191C435.48 237.812 433.39 242.584 431.593 247.675L435.365 249.006ZM441.166 234.794L444.865 236.317C446.876 231.433 448.84 227.234 450.921 222.476L447.257 220.872L443.592 219.269C441.613 223.792 439.517 228.294 437.467 233.271L441.166 234.794ZM447.257 220.872L450.949 222.411C451.643 220.746 452.411 219.07 453.213 217.318C454.006 215.589 454.833 213.785 455.59 211.969L451.897 210.431L448.205 208.892C447.512 210.557 446.744 212.233 445.941 213.985C445.148 215.714 444.321 217.518 443.565 219.334L447.257 220.872ZM451.897 210.431L455.475 212.22L457.215 208.739L453.638 206.95L450.06 205.162L448.32 208.642L451.897 210.431ZM453.638 206.95L457.314 208.526C457.72 207.58 458.199 206.552 458.713 205.452C459.214 204.377 459.75 203.23 460.215 202.145L456.538 200.57L452.862 198.994C452.456 199.94 451.977 200.968 451.463 202.068C450.962 203.143 450.426 204.29 449.961 205.375L453.638 206.95ZM456.538 200.57L460.215 202.145C460.625 201.188 461.037 200.294 461.475 199.345C461.907 198.409 462.365 197.418 462.825 196.344L459.148 194.769L455.472 193.193C455.062 194.15 454.649 195.044 454.211 195.993C453.779 196.93 453.321 197.921 452.862 198.994L456.538 200.57ZM459.148 194.769L462.726 196.558L463.596 194.817L460.019 193.029L456.441 191.24L455.571 192.98L459.148 194.769ZM460.019 193.029L464.019 193.03C464.018 193.334 463.979 193.667 463.882 194.012C463.785 194.359 463.646 194.661 463.494 194.915C463.346 195.16 463.201 195.337 463.11 195.44C463.031 195.53 462.96 195.599 462.993 195.566C462.997 195.562 463.104 195.457 463.217 195.328C463.342 195.187 463.519 194.969 463.694 194.678C463.873 194.379 464.035 194.027 464.148 193.623C464.261 193.221 464.309 192.824 464.309 192.448H460.309H456.309C456.309 192.145 456.347 191.812 456.444 191.467C456.541 191.12 456.681 190.817 456.833 190.564C456.98 190.318 457.126 190.141 457.217 190.038C457.296 189.948 457.367 189.878 457.334 189.911C457.331 189.914 457.224 190.02 457.111 190.148C456.986 190.289 456.809 190.508 456.634 190.798C456.455 191.097 456.293 191.449 456.18 191.852C456.067 192.255 456.019 192.651 456.019 193.027L460.019 193.029ZM460.309 192.448L460.75 196.424L460.9 196.407L460.458 192.432L460.016 188.456L459.867 188.473L460.309 192.448ZM460.458 192.432L464.074 194.142C466.326 189.38 468.51 185.288 470.561 181.186L466.983 179.397L463.406 177.608C461.481 181.457 459.134 185.875 456.842 190.722L460.458 192.432ZM466.983 179.397L470.519 181.268C473.126 176.344 475.443 171.998 477.764 167.647L474.234 165.765L470.705 163.883C468.385 168.233 466.062 172.588 463.448 177.525L466.983 179.397ZM474.234 165.765L477.77 167.636C480.34 162.781 482.876 158.56 485.248 154.408L481.775 152.423L478.302 150.439C476.034 154.408 473.35 158.887 470.699 163.893L474.234 165.765ZM481.775 152.423L485.775 152.426C485.775 152.727 485.737 153.088 485.619 153.479C485.499 153.877 485.319 154.236 485.101 154.546C484.698 155.122 484.24 155.418 484.177 155.46C484.135 155.489 484.098 155.511 484.149 155.479C484.18 155.46 484.265 155.407 484.363 155.343C484.573 155.202 484.87 154.985 485.184 154.671L482.355 151.843L479.527 149.015C479.755 148.787 480.284 148.441 479.737 148.806C479.565 148.92 479.016 149.29 478.549 149.956C478.004 150.734 477.776 151.606 477.775 152.42L481.775 152.423ZM482.355 151.843L485.891 153.715C488.409 148.958 490.935 145.025 493.225 141.59L489.896 139.371L486.568 137.153C484.218 140.679 481.522 144.868 478.82 149.971L482.355 151.843ZM489.896 139.371L490.172 143.362C490.19 143.361 490.206 143.359 490.216 143.359C490.227 143.358 490.236 143.357 490.238 143.357C490.242 143.357 490.239 143.357 490.236 143.357C490.232 143.357 490.223 143.358 490.211 143.359L489.935 139.368L489.659 135.378C489.64 135.379 489.625 135.38 489.614 135.381C489.604 135.382 489.595 135.383 489.593 135.383C489.589 135.383 489.592 135.383 489.596 135.383C489.6 135.382 489.609 135.382 489.621 135.381L489.896 139.371ZM489.935 139.368L489.795 135.371C489.766 135.372 489.743 135.373 489.727 135.374C489.719 135.374 489.713 135.374 489.708 135.375C489.703 135.375 489.699 135.375 489.698 135.375C489.696 135.375 489.697 135.375 489.698 135.375C489.699 135.375 489.703 135.375 489.708 135.375C489.717 135.374 489.734 135.373 489.756 135.373L489.894 139.37L490.031 143.368C490.06 143.367 490.084 143.366 490.1 143.365C490.115 143.364 490.128 143.364 490.13 143.364C490.135 143.363 490.129 143.364 490.121 143.364C490.113 143.364 490.096 143.365 490.074 143.366L489.935 139.368ZM489.894 139.37L493.222 141.589C500.834 130.171 505.9 123.806 508.23 121.227L505.262 118.545L502.294 115.864C499.592 118.854 494.281 125.579 486.565 137.152L489.894 139.37ZM505.262 118.545L502.339 115.814C496.674 121.876 491.051 128.968 485.715 136.831L489.024 139.077L492.334 141.323C497.465 133.763 502.833 127.002 508.184 121.276L505.262 118.545ZM489.024 139.077L485.447 140.866L485.449 140.87L489.026 139.081L492.604 137.292L492.602 137.289L489.024 139.077ZM489.026 139.081L485.738 136.804C483.081 140.641 480.433 144.761 477.831 148.81L481.195 150.973L484.56 153.136C487.178 149.064 489.751 145.062 492.315 141.358L489.026 139.081ZM481.195 150.973L478.367 148.144C478.273 148.238 477.909 148.592 477.596 149.008C477.316 149.383 476.616 150.392 476.615 151.84L480.615 151.843L484.615 151.846C484.615 152.448 484.463 152.924 484.329 153.23C484.2 153.526 484.06 153.723 483.997 153.807C483.902 153.934 483.827 153.998 484.024 153.801L481.195 150.973ZM480.615 151.843L477.36 149.518C474.3 153.803 471.843 158.409 469.298 162.934L472.784 164.895L476.27 166.856C478.946 162.1 481.13 158.004 483.87 154.168L480.615 151.843ZM472.784 164.895L469.354 162.837C466.707 167.249 464.309 171.739 461.757 176.276L465.243 178.237L468.729 180.198C471.398 175.453 473.641 171.242 476.214 166.953L472.784 164.895ZM465.243 178.237L461.77 176.252C459.377 180.44 457.005 185.187 454.948 189.597L458.572 191.288L462.197 192.98C464.2 188.688 466.469 184.154 468.716 180.221L465.243 178.237ZM458.572 191.288L462.14 189.479L451.698 168.887L448.131 170.696L444.563 172.504L455.005 193.097L458.572 191.288ZM448.131 170.696H452.131C452.131 170.549 452.135 170.724 452.115 170.922C452.085 171.23 451.996 171.692 451.745 172.194C451.528 172.628 451.281 172.903 451.227 172.963C451.181 173.014 451.147 173.046 451.249 172.944L448.421 170.115L445.592 167.287C445.55 167.33 445.407 167.47 445.28 167.612C445.144 167.763 444.843 168.11 444.589 168.617C444.302 169.192 444.195 169.726 444.155 170.125C444.138 170.297 444.134 170.44 444.132 170.519C444.131 170.596 444.131 170.671 444.131 170.696H448.131ZM448.421 170.115L451.828 172.212C454.027 168.638 456.503 164.904 458.547 161.4L455.092 159.384L451.637 157.369C449.621 160.825 447.455 164.052 445.014 168.019L448.421 170.115ZM455.092 159.384L458.42 161.603C461.295 157.29 463.881 153.555 466.758 149.527L463.503 147.202L460.248 144.877C457.324 148.971 454.689 152.777 451.764 157.165L455.092 159.384ZM463.503 147.202L466.758 149.527C469.832 145.224 472.219 141.474 475.085 137.75L471.914 135.311L468.744 132.872C465.808 136.688 462.975 141.06 460.248 144.877L463.503 147.202ZM471.914 135.311L475.01 137.844C477.514 134.784 480.244 131.084 482.289 128.528L479.165 126.03L476.042 123.531C473.445 126.776 471.535 129.457 468.818 132.778L471.914 135.311ZM479.165 126.03L481.994 128.858C482.47 128.381 482.904 127.832 483.158 127.514C483.483 127.107 483.63 126.932 483.733 126.828L480.903 124.001L478.074 121.174C477.597 121.651 477.165 122.2 476.911 122.517C476.585 122.924 476.439 123.099 476.336 123.201L479.165 126.03ZM480.903 124.001L484.698 122.736L484.697 122.733L480.902 123.998L477.108 125.263L477.109 125.266L480.903 124.001ZM480.902 123.998L484.009 126.517C488.302 121.223 492.196 116.839 495.55 113.485C498.958 110.077 501.621 107.924 503.456 106.892L501.495 103.406L499.534 99.9192C496.729 101.497 493.446 104.275 489.893 107.828C486.286 111.435 482.203 116.042 477.795 121.479L480.902 123.998Z" fill="url(#paint3_linear_4767_8403)" mask="url(#path-14-outside-1_4767_8403)"/>
<defs>
<linearGradient id="paint0_linear_4767_8403" x1="479.349" y1="42.6913" x2="584.489" y2="157.706" gradientUnits="userSpaceOnUse">
<stop stop-color="white"/>
<stop offset="1" stop-color="white" stop-opacity="0.2"/>
</linearGradient>
<linearGradient id="paint1_linear_4767_8403" x1="462.503" y1="33.3972" x2="662.908" y2="203.016" gradientUnits="userSpaceOnUse">
<stop stop-color="white"/>
<stop offset="1" stop-color="#FF6F3D"/>
</linearGradient>
<linearGradient id="paint2_linear_4767_8403" x1="579.701" y1="156.627" x2="629.75" y2="229.969" gradientUnits="userSpaceOnUse">
<stop stop-color="#FFC671"/>
<stop offset="0.59375" stop-color="#FF7541"/>
<stop offset="1" stop-color="#FF6F3D"/>
</linearGradient>
<linearGradient id="paint3_linear_4767_8403" x1="382" y1="91.0349" x2="611.517" y2="209.974" gradientUnits="userSpaceOnUse">
<stop stop-color="#FFC671"/>
<stop offset="0.59375" stop-color="#FF7541"/>
<stop offset="1" stop-color="#FF6F3D"/>
</linearGradient>
</defs>
</svg>
