<svg width="60" height="78" fill="none" xmlns="http://www.w3.org/2000/svg"><path d="M42.088 16.547C36.687 11.083 31.534 5.875 30 0c-1.534 5.875-6.689 11.083-12.09 16.547C9.81 24.74.626 34.027.626 47.953A30.042 30.042 0 0 0 2.834 59.36a29.757 29.757 0 0 0 6.36 9.678 29.356 29.356 0 0 0 9.543 6.47A29.073 29.073 0 0 0 30 77.78c3.866 0 7.694-.773 11.264-2.273a29.356 29.356 0 0 0 9.542-6.47 29.758 29.758 0 0 0 6.361-9.677 30.042 30.042 0 0 0 2.209-11.407c0-13.926-9.184-23.213-17.288-31.406ZM13.111 54.881c-1.802-.062-8.45-11.658 3.883-24.004l8.16 9.02a.708.708 0 0 1 .131.826.704.704 0 0 1-.185.229c-1.947 2.02-10.247 10.444-11.279 13.357-.213.6-.524.578-.71.572M30 70.163a9.998 9.998 0 0 1-3.867-.778 10.097 10.097 0 0 1-3.277-2.216 10.237 10.237 0 0 1-2.19-3.317 10.332 10.332 0 0 1-.77-3.913c.038-2.48.928-4.868 2.519-6.754 1.822-2.254 7.583-8.595 7.583-8.595s5.674 6.434 7.57 8.574a10.068 10.068 0 0 1 2.534 6.775c0 2.712-1.064 5.312-2.959 7.23a10.043 10.043 0 0 1-7.143 2.994Zm19.336-16.58c-.217.482-.711 1.286-1.378 1.31-1.188.045-1.315-.572-2.194-1.887-1.928-2.888-18.757-20.688-21.905-24.13-2.768-3.028-.39-5.163.714-6.282 1.384-1.403 5.425-5.49 5.425-5.49s12.05 11.57 17.069 19.475c5.019 7.905 3.29 14.746 2.27 17.004Z" fill="#009CDE"/></svg>