<svg width="56" height="272" viewBox="0 0 56 272" fill="none" xmlns="http://www.w3.org/2000/svg">
<path fill-rule="evenodd" clip-rule="evenodd" d="M5.51099 35.9843L5.51101 48.9117C5.51101 50.7521 7.37335 50.5778 9.06204 50.5778H48.2009C50.1221 50.5778 50.5001 49.0866 50.5001 49.0866V36L5.51099 35.9843Z" fill="#D9F4FF"/>
<path d="M11.5 31C11.5 30.7239 11.7239 30.5 12 30.5H20C20.2761 30.5 20.5 30.7239 20.5 31V37C20.5 37.2761 20.2761 37.5 20 37.5H12C11.7239 37.5 11.5 37.2761 11.5 37V31Z" fill="url(#paint0_linear_1800_164547)" stroke="#333333"/>
<path d="M34.5 31C34.5 30.7239 34.7239 30.5 35 30.5H43C43.2761 30.5 43.5 30.7239 43.5 31V37C43.5 37.2761 43.2761 37.5 43 37.5H35C34.7239 37.5 34.5 37.2761 34.5 37V31Z" fill="url(#paint1_linear_1800_164547)" stroke="#333333"/>
<path fill-rule="evenodd" clip-rule="evenodd" d="M21.5 6C20.1193 6 19 7.11929 19 8.5V11.5C19 11.7761 19.2239 12 19.5 12C19.7761 12 20 11.7761 20 11.5V8.5C20 7.67157 20.6716 7 21.5 7H33.5C34.3284 7 35 7.67157 35 8.5V11.5C35 11.7761 35.2239 12 35.5 12C35.7761 12 36 11.7761 36 11.5V8.5C36 7.11929 34.8807 6 33.5 6H21.5ZM3 17.5C3 15.567 4.567 14 6.5 14H49.5C51.433 14 53 15.567 53 17.5V30.5C53 32.433 51.433 34 49.5 34H46.5616C46.2855 34 46.0616 33.7761 46.0616 33.5C46.0616 33.2239 46.2855 33 46.5616 33H49.5C50.8807 33 52 31.8807 52 30.5V17.5C52 16.1193 50.8807 15 49.5 15H6.5C5.11929 15 4 16.1193 4 17.5V30.5C4 31.8807 5.11929 33 6.5 33H8.5138C8.78994 33 9.0138 33.2239 9.0138 33.5C9.0138 33.7761 8.78994 34 8.5138 34H6.5C4.567 34 3 32.433 3 30.5V17.5ZM23.0549 33.5C23.0549 33.2239 23.2788 33 23.5549 33H31.4689C31.7451 33 31.9689 33.2239 31.9689 33.5C31.9689 33.7761 31.7451 34 31.4689 34H23.5549C23.2788 34 23.0549 33.7761 23.0549 33.5ZM5.5 36C5.77614 36 6 36.2239 6 36.5V48.5C6 49.3284 6.67157 50 7.5 50H48.5C49.3284 50 50 49.3284 50 48.5V36.5C50 36.2239 50.2239 36 50.5 36C50.7761 36 51 36.2239 51 36.5V48.5C51 49.8807 49.8807 51 48.5 51H7.5C6.11929 51 5 49.8807 5 48.5V36.5C5 36.2239 5.22386 36 5.5 36Z" fill="#333333"/>
<rect x="4.5" y="90.5" width="14" height="37" fill="white" stroke="#333333"/>
<path d="M53.5 103.347V127.5H38.5V97.7215L53.5 103.347Z" fill="white" stroke="#333333"/>
<mask id="path-7-inside-1_1800_164547" fill="white">
<path d="M18 78H39V128H18V78Z"/>
</mask>
<path d="M18 78H39V128H18V78Z" fill="white"/>
<path d="M18 78V77H17V78H18ZM39 78H40V77H39V78ZM39 128V129H40V128H39ZM18 128H17V129H18V128ZM18 79H39V77H18V79ZM38 78V128H40V78H38ZM39 127H18V129H39V127ZM19 128V78H17V128H19Z" fill="#333333" mask="url(#path-7-inside-1_1800_164547)"/>
<path d="M15 95L11.5 95L8 95" stroke="#333333"/>
<path d="M15 103L11.5 103L8 103" stroke="#333333"/>
<path d="M15 111L11.5 111L8 111" stroke="#333333"/>
<path d="M49.5 111L46 111L42.5 111" stroke="#333333"/>
<path d="M15 123L11.5 123L8 123" stroke="#333333"/>
<path d="M49.5 120L46 120L42.5 120" stroke="#333333"/>
<path d="M15 99L11.5 99L8 99" stroke="#333333"/>
<path d="M15 107L11.5 107L8 107" stroke="#333333"/>
<path d="M49.5 108L46 108L42.5 108" stroke="#333333"/>
<path d="M46 105L42.5 105" stroke="#333333"/>
<path d="M15 119L11.5 119L8 119" stroke="#333333"/>
<path d="M49.5 117L46 117L42.5 117" stroke="#333333"/>
<path d="M49.5 123L46 123L42.5 123" stroke="#333333"/>
<path d="M15 115L11.5 115L8 115" stroke="#333333"/>
<path d="M49.5 114L46 114L42.5 114" stroke="#333333"/>
<line x1="22.5" y1="82" x2="22.5" y2="126.982" stroke="#333333"/>
<line x1="26.5" y1="82" x2="26.5" y2="126.982" stroke="#333333"/>
<line x1="30.5" y1="82" x2="30.5" y2="126.982" stroke="#333333"/>
<line x1="34.5" y1="82" x2="34.5" y2="126.982" stroke="#333333"/>
<g clip-path="url(#clip0_1800_164547)">
<path d="M9.48379 182.458C10.3074 182.458 11.1068 182.556 11.8685 182.738C13.2336 180.915 15.5104 179.721 18.0897 179.721C18.9277 179.721 19.7321 179.848 20.4856 180.081C21.7555 174.883 26.7759 171 32.7795 171C39.7423 171 43.8312 176.221 43.8312 182.661C43.8312 182.794 43.8249 182.925 43.8206 183.057C44.7067 182.8 45.6493 182.661 46.627 182.661C51.8034 182.661 56 186.542 56 191.331C56 196.119 51.8032 200 46.627 200H9.48343C4.24598 200 0 196.073 0 191.229C0.000359037 186.385 4.24634 182.458 9.48379 182.458Z" fill="#D9F4FF"/>
<path fill-rule="evenodd" clip-rule="evenodd" d="M34.6986 171.14C35.4736 171.256 36.2048 171.444 36.89 171.695C38.7474 172.376 40.2669 173.526 41.4056 175.004C42.8686 176.902 43.703 179.341 43.8175 182.02C43.8266 182.232 43.8312 182.446 43.8312 182.661C43.8312 182.762 43.8275 182.863 43.8239 182.963C43.8227 182.994 43.8216 183.026 43.8206 183.057C44.1493 182.961 44.4858 182.882 44.829 182.821C45.4109 182.716 46.012 182.661 46.627 182.661C51.8034 182.661 56 186.542 56 191.331C56 196.119 51.8032 200 46.627 200H9.48343C4.24598 200 0 196.073 0 191.229C0.000359037 186.385 4.24634 182.458 9.48379 182.458C10.3074 182.458 11.1068 182.556 11.8685 182.738C13.2336 180.915 15.5104 179.721 18.0897 179.721C18.5884 179.721 19.0751 179.766 19.5464 179.852C19.867 179.91 20.1805 179.987 20.4856 180.081C20.565 179.756 20.6592 179.436 20.7673 179.121C22.3876 174.412 27.1515 171 32.7795 171C33.4459 171 34.0859 171.048 34.6986 171.14ZM1 191.229C1.00004 195.449 4.72331 199 9.48343 199H46.627C51.3259 199 55 195.494 55 191.331C55 187.166 51.326 183.661 46.627 183.661C45.7441 183.661 44.8952 183.786 44.099 184.017L42.7759 184.401L42.8211 183.024C42.8224 182.984 42.8237 182.948 42.825 182.914C42.8284 182.819 42.8312 182.743 42.8312 182.661C42.8312 179.93 42.0461 177.485 40.6304 175.636C39.5227 174.378 38.1224 173.344 36.5213 172.625C35.4125 172.222 34.1634 172 32.7795 172C27.1974 172 22.6085 175.605 21.457 180.318L21.205 181.35L20.1906 181.036C19.5306 180.833 18.8256 180.721 18.0897 180.721C15.8196 180.721 13.8418 181.771 12.669 183.338L12.2749 183.864L11.6353 183.711C10.9494 183.546 10.2283 183.458 9.48379 183.458C4.72367 183.458 1.00035 187.009 1 191.229Z" fill="#333333"/>
<path d="M19.5 159.392C19.5 153.371 22.7738 147.819 28.0406 144.899C28.4047 144.697 28.8482 144.699 29.2096 144.905C34.3353 147.827 37.5 153.273 37.5 159.173V191.5H19.5L19.5 159.392Z" fill="url(#paint2_linear_1800_164547)" stroke="#333333"/>
<path d="M32.5 158.5C32.5 160.709 30.7091 162.5 28.5 162.5C26.2909 162.5 24.5 160.709 24.5 158.5C24.5 156.291 26.2909 154.5 28.5 154.5C30.7091 154.5 32.5 156.291 32.5 158.5Z" fill="white" stroke="#333333"/>
<path d="M28.5 168V187" stroke="white" stroke-linecap="round"/>
<path d="M18.736 199.5C19.5918 198.583 19.9697 197.248 20.1348 195.975C20.3179 194.562 20.259 193.044 20.2167 191.953C20.2105 191.792 20.2046 191.641 20.1999 191.5L36.7561 191.5C36.7533 191.656 36.7496 191.819 36.7458 191.988C36.7185 193.199 36.6841 194.727 36.8999 196.129C37.0904 197.368 37.4908 198.614 38.3323 199.5H18.736Z" fill="white" stroke="#333333"/>
<path d="M44.4093 191.432L37.5 174.543L37.5 193.5H43.0209C44.0871 193.5 44.813 192.419 44.4093 191.432Z" fill="url(#paint3_linear_1800_164547)" stroke="#333333"/>
<path d="M12.5907 191.432L19.5 174.543L19.5 193.5H13.9791C12.9129 193.5 12.187 192.419 12.5907 191.432Z" fill="url(#paint4_linear_1800_164547)" stroke="#333333"/>
</g>
<g clip-path="url(#clip1_1800_164547)">
<path d="M43.8044 235.546L34.539 244.285C33.3535 245.867 31.6108 247.214 29.8686 248.196C28.1107 249.187 26.0403 249.983 24.0518 250.207L16.0813 252.314C17.9244 254.017 20.8904 257.611 21.5745 262.363C21.6285 262.738 21.9841 262.948 22.2786 262.857C34.6594 259.034 41.1311 255.44 50.1002 246.992C50.3057 246.799 50.3078 246.467 50.0964 246.267C47.6674 243.966 44.8865 241 43.8044 235.546Z" fill="url(#paint5_linear_1800_164547)" stroke="#333333"/>
<path d="M35.5635 246.401L35.5635 246.401L35.5608 246.404C34.8557 247.199 33.7924 247.988 32.6618 248.625C31.5303 249.263 30.2895 249.773 29.2117 249.985L29.2117 249.985L29.201 249.987L5.22133 254.171C4.68418 254.276 4.2049 254.301 3.80788 254.227C3.40921 254.153 3.03414 253.965 2.82707 253.598C2.62131 253.233 2.65151 252.814 2.78735 252.431C2.92373 252.047 3.18523 251.638 3.5463 251.217L3.54886 251.214L19.5431 232.865C20.2347 232.036 21.2927 231.232 22.4246 230.594C23.5588 229.955 24.8116 229.457 25.911 229.274C25.9117 229.274 25.9123 229.274 25.913 229.273L49.8888 225.09C50.426 224.985 50.9053 224.96 51.3023 225.034C51.701 225.108 52.076 225.296 52.2831 225.663C52.4889 226.028 52.4587 226.447 52.3228 226.83C52.1864 227.214 51.9249 227.623 51.5639 228.044L51.5613 228.047L35.5635 246.401Z" fill="url(#paint6_linear_1800_164547)" stroke="#333333"/>
<path d="M24.718 240.5L13.4991 252L13.4991 258.227M13.4991 258.227L10.4989 265.5L16.4979 265.5L13.4991 258.227Z" stroke="#333333" stroke-linecap="round" stroke-linejoin="round"/>
</g>
<defs>
<linearGradient id="paint0_linear_1800_164547" x1="11" y1="29.6875" x2="18.7398" y2="39.7402" gradientUnits="userSpaceOnUse">
<stop stop-color="#FF8E3D"/>
<stop offset="1" stop-color="#FF6F3D"/>
</linearGradient>
<linearGradient id="paint1_linear_1800_164547" x1="34" y1="29.6875" x2="41.7398" y2="39.7402" gradientUnits="userSpaceOnUse">
<stop stop-color="#FF8E3D"/>
<stop offset="1" stop-color="#FF6F3D"/>
</linearGradient>
<linearGradient id="paint2_linear_1800_164547" x1="19" y1="142.125" x2="52.7963" y2="156.025" gradientUnits="userSpaceOnUse">
<stop stop-color="#FF8E3D"/>
<stop offset="1" stop-color="#FF6F3D"/>
</linearGradient>
<linearGradient id="paint3_linear_1800_164547" x1="46" y1="171.141" x2="30.1474" y2="177.879" gradientUnits="userSpaceOnUse">
<stop stop-color="#FF8E3D"/>
<stop offset="1" stop-color="#FF6F3D"/>
</linearGradient>
<linearGradient id="paint4_linear_1800_164547" x1="11" y1="171.141" x2="26.8526" y2="177.879" gradientUnits="userSpaceOnUse">
<stop stop-color="#FF8E3D"/>
<stop offset="1" stop-color="#FF6F3D"/>
</linearGradient>
<linearGradient id="paint5_linear_1800_164547" x1="30.5065" y1="236.419" x2="31.6986" y2="261.472" gradientUnits="userSpaceOnUse">
<stop stop-color="#FF8A3F"/>
<stop offset="1" stop-color="#FF763F"/>
</linearGradient>
<linearGradient id="paint6_linear_1800_164547" x1="22.6979" y1="231.014" x2="32.3885" y2="248.205" gradientUnits="userSpaceOnUse">
<stop stop-color="#FF8E3D"/>
<stop offset="1" stop-color="#FF6F3D"/>
</linearGradient>
<clipPath id="clip0_1800_164547">
<rect width="56" height="56" fill="white" transform="translate(0 144)"/>
</clipPath>
<clipPath id="clip1_1800_164547">
<rect width="56" height="56" fill="white" transform="translate(0 216)"/>
</clipPath>
</defs>
</svg>
