<svg width="50" height="45" viewBox="0 0 50 45" fill="none" xmlns="http://www.w3.org/2000/svg">
<path fill-rule="evenodd" clip-rule="evenodd" d="M2.51099 29.9843L2.51101 42.9117C2.51101 44.7521 4.37335 44.5778 6.06204 44.5778H45.2009C47.1221 44.5778 47.5001 43.0866 47.5001 43.0866V30L2.51099 29.9843Z" fill="#D9F4FF"/>
<path d="M8.5 25C8.5 24.7239 8.7239 24.5 9 24.5H17C17.2761 24.5 17.5 24.7239 17.5 25V31C17.5 31.2761 17.2761 31.5 17 31.5H9C8.7239 31.5 8.5 31.2761 8.5 31V25Z" fill="url(#paint0_linear_12_89)" stroke="#333333"/>
<path d="M31.5 25C31.5 24.7239 31.7239 24.5 32 24.5H40C40.2761 24.5 40.5 24.7239 40.5 25V31C40.5 31.2761 40.2761 31.5 40 31.5H32C31.7239 31.5 31.5 31.2761 31.5 31V25Z" fill="url(#paint1_linear_12_89)" stroke="#333333"/>
<path fill-rule="evenodd" clip-rule="evenodd" d="M18.5 0C17.1193 0 16 1.11929 16 2.5V5.5C16 5.7761 16.2239 6 16.5 6C16.7761 6 17 5.7761 17 5.5V2.5C17 1.67157 17.6716 1 18.5 1H30.5C31.3284 1 32 1.67157 32 2.5V5.5C32 5.7761 32.2239 6 32.5 6C32.7761 6 33 5.7761 33 5.5V2.5C33 1.11929 31.8807 0 30.5 0H18.5ZM0 11.5C0 9.567 1.567 8 3.5 8H46.5C48.433 8 50 9.567 50 11.5V24.5C50 26.433 48.433 28 46.5 28H43.5616C43.2855 28 43.0616 27.7761 43.0616 27.5C43.0616 27.2239 43.2855 27 43.5616 27H46.5C47.8807 27 49 25.8807 49 24.5V11.5C49 10.1193 47.8807 9 46.5 9H3.5C2.11929 9 1 10.1193 1 11.5V24.5C1 25.8807 2.11929 27 3.5 27H5.5138C5.78994 27 6.0138 27.2239 6.0138 27.5C6.0138 27.7761 5.78994 28 5.5138 28H3.5C1.567 28 0 26.433 0 24.5V11.5ZM20.0549 27.5C20.0549 27.2239 20.2788 27 20.5549 27H28.4689C28.7451 27 28.9689 27.2239 28.9689 27.5C28.9689 27.7761 28.7451 28 28.4689 28H20.5549C20.2788 28 20.0549 27.7761 20.0549 27.5ZM2.5 30C2.77614 30 3 30.2239 3 30.5V42.5C3 43.3284 3.67157 44 4.5 44H45.5C46.3284 44 47 43.3284 47 42.5V30.5C47 30.2239 47.2239 30 47.5 30C47.7761 30 48 30.2239 48 30.5V42.5C48 43.8807 46.8807 45 45.5 45H4.5C3.11929 45 2 43.8807 2 42.5V30.5C2 30.2239 2.22386 30 2.5 30Z" fill="#333333"/>
<defs>
<linearGradient id="paint0_linear_12_89" x1="8" y1="23.6875" x2="15.7398" y2="33.7402" gradientUnits="userSpaceOnUse">
<stop stop-color="#FF8E3D"/>
<stop offset="1" stop-color="#FF6F3D"/>
</linearGradient>
<linearGradient id="paint1_linear_12_89" x1="31" y1="23.6875" x2="38.7398" y2="33.7402" gradientUnits="userSpaceOnUse">
<stop stop-color="#FF8E3D"/>
<stop offset="1" stop-color="#FF6F3D"/>
</linearGradient>
</defs>
</svg>
