<svg width="56" height="56" viewBox="0 0 56 56" fill="none" xmlns="http://www.w3.org/2000/svg">
<mask id="mask0_12_88" style="mask-type:luminance" maskUnits="userSpaceOnUse" x="0" y="0" width="56" height="56">
<path d="M56 0H0V56H56V0Z" fill="white"/>
</mask>
<g mask="url(#mask0_12_88)">
<path d="M43.8044 19.546L34.539 28.285C33.3535 29.867 31.6108 31.214 29.8686 32.196C28.1107 33.187 26.0403 33.983 24.0518 34.207L16.0813 36.314C17.9244 38.017 20.8904 41.611 21.5745 46.363C21.6285 46.738 21.9841 46.948 22.2786 46.857C34.6594 43.034 41.1311 39.44 50.1002 30.992C50.3057 30.799 50.3078 30.467 50.0964 30.267C47.6674 27.966 44.8865 25 43.8044 19.546Z" fill="url(#paint0_linear_12_88)" stroke="#333333"/>
<path d="M35.5635 30.401L35.5608 30.404C34.8557 31.199 33.7924 31.988 32.6618 32.625C31.5303 33.263 30.2895 33.773 29.2117 33.985L29.201 33.987L5.22132 38.171C4.68417 38.276 4.20489 38.301 3.80787 38.227C3.4092 38.153 3.03413 37.965 2.82706 37.598C2.6213 37.233 2.6515 36.814 2.78734 36.431C2.92372 36.047 3.18522 35.638 3.54629 35.217L3.54885 35.214L19.5431 16.865C20.2347 16.036 21.2927 15.232 22.4246 14.594C23.5588 13.955 24.8116 13.457 25.911 13.274L25.913 13.273L49.8888 9.08999C50.426 8.98499 50.9053 8.95999 51.3023 9.03399C51.701 9.10799 52.076 9.29599 52.2831 9.66299C52.4889 10.028 52.4587 10.447 52.3228 10.83C52.1864 11.214 51.9249 11.623 51.5639 12.044L51.5613 12.047L35.5635 30.401Z" fill="url(#paint1_linear_12_88)" stroke="#333333"/>
<path d="M24.718 24.5L13.4991 36V42.227M13.4991 42.227L10.4989 49.5H16.4979L13.4991 42.227Z" stroke="#333333" stroke-linecap="round" stroke-linejoin="round"/>
</g>
<defs>
<linearGradient id="paint0_linear_12_88" x1="30.5065" y1="20.419" x2="31.6986" y2="45.472" gradientUnits="userSpaceOnUse">
<stop stop-color="#FF8A3F"/>
<stop offset="1" stop-color="#FF763F"/>
</linearGradient>
<linearGradient id="paint1_linear_12_88" x1="22.6979" y1="15.014" x2="32.3885" y2="32.205" gradientUnits="userSpaceOnUse">
<stop stop-color="#FF8E3D"/>
<stop offset="1" stop-color="#FF6F3D"/>
</linearGradient>
</defs>
</svg>
