<svg width="224" height="120" viewBox="0 0 224 120" fill="none" xmlns="http://www.w3.org/2000/svg">
<path fill-rule="evenodd" clip-rule="evenodd" d="M27 50.667C27 46.7399 27.9818 43.7946 38.7812 40.8493C49.5807 37.904 61.3619 38.8857 65.2889 39.8675C69.216 40.8493 74.6157 43.7946 75.5975 50.1761C76.5793 56.5576 71.6704 68.3388 69.216 71.775C66.7616 75.2112 60.3801 81.1018 54.4895 81.1018C48.5989 81.1018 42.7083 76.6838 41.2356 75.2112C39.763 73.7385 27.4909 60.9755 27 50.667ZM35.4023 51.755C35.64 49.1191 36.4843 47.2022 43.9898 45.8858C51.4953 44.5695 59.4292 45.9492 62.0343 46.8484C64.6393 47.7477 68.1247 50.055 68.4046 54.3985C68.6845 58.742 64.6409 66.3496 62.7677 68.5059C60.8944 70.6622 56.2082 74.2258 52.2115 73.8655C48.2148 73.5051 44.4855 70.1793 43.5755 69.1007C42.6655 68.0221 35.1115 58.7045 35.4023 51.755Z" fill="#3FB3E8"/>
<path d="M46.5387 54.3601C43.4223 56.1783 43.3624 57.1774 43.6901 58.4004C44.7031 61.5697 49.5888 64.5207 50.1702 64.8564C50.7515 65.1922 52.9541 66.0767 54.788 65.5853C56.6219 65.0939 58.1171 62.7271 58.5945 61.4522C59.0719 60.1774 59.6171 56.0989 58.7789 54.1935C57.9407 52.2881 56.0139 51.8213 54.7094 51.8431C53.4048 51.865 49.6551 52.542 46.5387 54.3601Z" fill="#3FB3E8"/>
<path d="M194.793 43.7944C196.019 43.7944 197 44.7762 197 46.0014V65.8332C197 67.0584 196.019 68.0402 194.793 68.0402C193.592 68.0402 192.602 67.0584 192.602 65.8332V65.7232C191.502 67.2862 189.806 68.2522 187.473 68.2522C182.894 68.2522 179.808 64.5922 179.808 59.864C179.808 55.1437 182.894 51.4758 187.473 51.4758C189.806 51.4758 191.502 52.4418 192.602 54.0048V46.0014C192.602 44.7762 193.592 43.7944 194.793 43.7944ZM188.565 64.278C191.015 64.278 192.759 62.3145 192.759 59.864C192.759 57.4135 191.015 55.45 188.565 55.45C186.107 55.45 184.363 57.4135 184.363 59.864C184.363 62.3145 186.107 64.278 188.565 64.278Z" fill="#3FB3E8"/>
<path d="M177.898 51.688C179.445 51.688 180.396 52.6462 180.396 54.0599C180.396 55.4187 179.359 56.6597 177.584 56.4869C174.748 56.1491 173.358 57.8142 173.358 61.2543V65.8333C173.358 67.0585 172.377 68.0403 171.167 68.0403C169.95 68.0403 168.96 67.0585 168.96 65.8333V53.895C168.96 52.6698 169.95 51.688 171.167 51.688C172.377 51.688 173.358 52.6698 173.358 53.895V55.4266C174.104 53.4159 175.809 51.688 177.898 51.688Z" fill="#3FB3E8"/>
<path d="M157.867 68.2523C152.84 68.2523 149.22 64.5373 149.22 59.8641C149.22 55.1908 152.84 51.4758 157.867 51.4758C162.886 51.4758 166.507 55.1908 166.507 59.8641C166.507 64.5373 162.886 68.2523 157.867 68.2523ZM157.867 64.2231C160.263 64.2231 162.006 62.3617 162.006 59.8641C162.006 57.3586 160.263 55.4971 157.867 55.4971C155.464 55.4971 153.72 57.3586 153.72 59.8641C153.72 62.3617 155.464 64.2231 157.867 64.2231Z" fill="#3FB3E8"/>
<path d="M139.011 68.2523C133.984 68.2523 130.363 64.5373 130.363 59.8641C130.363 55.1908 133.984 51.4758 139.011 51.4758C144.029 51.4758 147.65 55.1908 147.65 59.8641C147.65 64.5373 144.029 68.2523 139.011 68.2523ZM139.011 64.2231C141.406 64.2231 143.15 62.3617 143.15 59.8641C143.15 57.3586 141.406 55.4971 139.011 55.4971C136.607 55.4971 134.864 57.3586 134.864 59.8641C134.864 62.3617 136.607 64.2231 139.011 64.2231Z" fill="#3FB3E8"/>
<path d="M126.845 63.6735C128.102 63.2572 129.398 64.2154 129.398 65.5349C129.398 66.3674 128.88 67.0743 128.165 67.3571C126.885 67.8754 125.487 68.1425 124.049 68.1425C118.748 68.1425 115.284 64.5924 115.284 59.8642C115.284 55.136 118.748 51.5859 124.049 51.5859C125.487 51.5859 126.885 51.8451 128.165 52.3714C128.88 52.6541 129.398 53.361 129.398 54.1935C129.398 55.513 128.102 56.4712 126.845 56.0549C126.052 55.7565 125.283 55.6073 124.45 55.6073C121.63 55.6073 119.84 57.1781 119.84 59.8642C119.84 62.5503 121.63 64.1212 124.45 64.1212C125.283 64.1212 126.06 63.9798 126.845 63.6735Z" fill="#3FB3E8"/>
<path d="M111.766 63.6735C113.023 63.2572 114.319 64.2154 114.319 65.5349C114.319 66.3674 113.801 67.0743 113.086 67.3571C111.806 67.8754 110.408 68.1425 108.97 68.1425C103.669 68.1425 100.205 64.5924 100.205 59.8642C100.205 55.136 103.669 51.5859 108.97 51.5859C110.408 51.5859 111.806 51.8451 113.086 52.3714C113.801 52.6541 114.319 53.361 114.319 54.1935C114.319 55.513 113.023 56.4712 111.766 56.0549C110.973 55.7565 110.203 55.6073 109.371 55.6073C106.551 55.6073 104.76 57.1781 104.76 59.8642C104.76 62.5503 106.551 64.1212 109.371 64.1212C110.203 64.1212 110.981 63.9798 111.766 63.6735Z" fill="#3FB3E8"/>
<path d="M90.7837 51.5859C95.4255 51.5859 97.7581 53.4081 97.7581 57.9478V65.8334C97.7581 67.0586 96.7764 68.0404 95.5668 68.0404C94.3494 68.0404 93.3598 67.0586 93.3598 65.8334V65.5977C92.3074 67.3649 90.5716 68.2524 88.4667 68.2524C85.4821 68.2524 82.9609 66.5088 82.9609 63.2572C82.9609 59.9663 85.8198 58.1206 89.6998 58.1206C90.8779 58.1206 92.0403 58.3169 93.3441 58.7411V58.3326C93.3441 56.4477 92.4173 55.4109 89.9825 55.4109C88.7259 55.4109 87.7834 55.7172 87.1001 55.9607C86.5267 56.1806 86.1183 56.3298 85.5214 56.3298C84.7281 56.3298 83.8956 55.7015 83.8956 54.6176C83.8956 53.7458 84.4218 53.0468 85.38 52.6305C86.6524 52.0965 88.4667 51.5859 90.7837 51.5859ZM89.5898 64.9851C91.6005 64.9851 93.2891 63.5792 93.352 61.3565V61.2387C92.276 60.7831 91.2156 60.5946 90.2967 60.5946C88.1997 60.5946 87.1158 61.3722 87.1158 62.8566C87.1158 64.3175 88.1133 64.9851 89.5898 64.9851Z" fill="#3FB3E8"/>
</svg>
