<svg width="224" height="120" viewBox="0 0 224 120" fill="none" xmlns="http://www.w3.org/2000/svg">
<g clip-path="url(#clip0_2180_2145)">
<path d="M47.3037 91.4718V90.6412C48.1174 90.5786 48.6675 90.3872 48.954 90.0671C49.2405 89.7469 49.3837 89.1113 49.3837 88.1604V79.0243C49.2566 78.7963 49.0514 78.6219 48.8059 78.5332C48.4253 78.4286 48.03 78.3871 47.6359 78.4104H47.3037V77.5112H51.0845L58.787 88.0521V80.8298C58.787 79.8211 58.6294 79.1579 58.314 78.8401C57.9986 78.5223 57.3871 78.3574 56.4795 78.3454V77.5112H61.8962V78.3454C61.0777 78.3839 60.5204 78.5681 60.2243 78.8979C59.9282 79.2277 59.7801 79.8717 59.7801 80.8298V91.8401H58.9965L50.3876 80.0751V88.1604C50.3876 89.145 50.5513 89.8035 50.8787 90.1357C51.2061 90.4679 51.808 90.6352 52.6843 90.6376V91.4682H47.3037V91.4718Z" fill="#EF404E"/>
<path d="M64.5649 87.1348C64.5649 87.1853 64.5649 87.2539 64.5649 87.337C64.5649 87.4201 64.5649 87.485 64.5649 87.5212C64.519 88.3656 64.7665 89.2 65.2655 89.8828C65.4885 90.1657 65.7751 90.3919 66.102 90.5431C66.4289 90.6943 66.7869 90.7663 67.1469 90.7531C67.7771 90.7646 68.3957 90.5832 68.9199 90.2331C69.4811 89.8299 69.9288 89.2889 70.2199 88.6623L70.8988 89.0487C70.5466 89.8715 69.9728 90.5804 69.2413 91.0962C68.5212 91.5638 67.6766 91.8029 66.8182 91.7823C66.2468 91.8008 65.6784 91.6918 65.1543 91.4632C64.6302 91.2346 64.1637 90.8921 63.7885 90.4606C63.0311 89.4636 62.6211 88.246 62.6211 86.9939C62.6211 85.7419 63.0311 84.5243 63.7885 83.5273C64.1627 83.0941 64.6288 82.75 65.153 82.52C65.6772 82.2901 66.2461 82.1802 66.8182 82.1984C67.3757 82.1711 67.9322 82.267 68.4484 82.4792C68.9645 82.6914 69.4276 83.0147 69.8046 83.4262C70.5269 84.2447 70.888 85.3629 70.888 86.7809V87.142H64.5649V87.1348ZM64.5938 86.3042H68.1832C68.3751 86.3265 68.5687 86.2791 68.7285 86.1706C68.8359 86.0335 68.8852 85.8598 68.8657 85.6867C68.9124 84.9757 68.7274 84.2688 68.3385 83.6717C68.1601 83.4404 67.9283 83.2558 67.6629 83.1338C67.3974 83.0117 67.1064 82.9559 66.8146 82.9712C66.4927 82.9529 66.1716 83.0193 65.8833 83.1637C65.595 83.3082 65.3496 83.5257 65.1716 83.7945C64.8057 84.3458 64.6131 85.1824 64.5938 86.3042Z" fill="#EF404E"/>
<path d="M75.8885 82.5125V83.325L75.4913 83.3611C75.321 83.3632 75.1537 83.4066 75.0038 83.4875C74.9571 83.517 74.9188 83.5581 74.8929 83.6069C74.8669 83.6556 74.8541 83.7103 74.8557 83.7655C74.8664 83.8706 74.8945 83.9731 74.9388 84.0689C74.9499 84.0936 74.9595 84.1189 74.9677 84.1447L76.831 88.9005L78.5318 84.383L78.456 84.1014C78.4029 83.8581 78.2597 83.644 78.0552 83.5019C77.7856 83.3678 77.4852 83.308 77.1849 83.3286H77.0549V82.5161H81.3052V83.3286L80.6985 83.3647C80.5491 83.3639 80.4021 83.4025 80.2724 83.4767C80.2277 83.5106 80.1921 83.555 80.1688 83.6061C80.1454 83.6571 80.1351 83.7132 80.1388 83.7692C80.1425 83.8466 80.1571 83.9232 80.1821 83.9967C80.211 84.0905 80.2543 84.2205 80.3193 84.383L82.0563 88.8644L83.5007 84.7622C83.515 84.7318 83.5271 84.7004 83.5368 84.6683C83.6279 84.4487 83.6828 84.2158 83.6993 83.9786C83.7019 83.8845 83.6803 83.7913 83.6367 83.7079C83.5931 83.6245 83.5289 83.5536 83.4502 83.5019C83.2422 83.3748 83.0002 83.3143 82.7568 83.3286H82.6196V82.5161H86.126V83.3178C85.772 83.3262 85.4312 83.4533 85.1582 83.6789C84.8617 83.9553 84.6415 84.3035 84.5191 84.69L81.9696 91.7714H81.3268L79.0193 85.5711L76.7407 91.7714H76.1377L73.1224 84.0869C73.0426 83.8466 72.8883 83.6378 72.6818 83.4911C72.4366 83.361 72.1611 83.2987 71.8838 83.3105V82.498H75.8885V82.5125Z" fill="#EF404E"/>
<path d="M96.7898 79.3384C96.817 79.0812 96.7461 78.8232 96.5912 78.6161C96.3522 78.4564 96.0641 78.3872 95.7787 78.4211H94.6665V77.5039H100.986V78.4103H99.9748C99.6871 78.3766 99.3967 78.4456 99.1551 78.6053C98.9972 78.811 98.9248 79.0697 98.9528 79.3275V87.1997C98.9528 88.7621 98.6014 89.9213 97.8984 90.6772C97.1954 91.4332 96.1121 91.8111 94.6484 91.8111C93.628 91.8634 92.626 91.5251 91.8462 90.865C91.4999 90.5487 91.2271 90.1605 91.0468 89.7276C90.8665 89.2946 90.7831 88.8275 90.8026 88.3589C90.7783 87.7405 90.9698 87.1328 91.3442 86.64C91.5023 86.4274 91.7082 86.2551 91.9454 86.1371C92.1826 86.0192 92.4443 85.9589 92.7092 85.9611C92.9075 85.9519 93.1055 85.9827 93.2916 86.0515C93.4777 86.1204 93.6481 86.226 93.7926 86.362C94.0474 86.6519 94.1916 87.0226 94.1995 87.4085C94.2075 87.7944 94.0787 88.1707 93.8359 88.4708C93.7073 88.6008 93.5526 88.7021 93.3821 88.7681C93.2116 88.8341 93.029 88.8632 92.8465 88.8536C92.6914 88.8525 92.5368 88.838 92.3842 88.8103L92.1098 88.767C92.0758 88.7665 92.042 88.7734 92.0109 88.7871C91.9798 88.8008 91.9519 88.821 91.9292 88.8464C91.9043 88.8723 91.8847 88.9028 91.8717 88.9363C91.8587 88.9698 91.8525 89.0055 91.8534 89.0414C91.8604 89.2845 91.9274 89.5222 92.0483 89.7332C92.1693 89.9443 92.3405 90.1222 92.5467 90.2511C93.0515 90.6038 93.6574 90.7826 94.2728 90.7603C95.1564 90.7603 95.7943 90.5316 96.1867 90.0742C96.5791 89.6168 96.7765 88.8717 96.779 87.8389V79.3384H96.7898Z" fill="#EF404E"/>
<path d="M103.59 87.1348C103.59 87.1853 103.59 87.2539 103.59 87.337C103.59 87.4201 103.59 87.485 103.59 87.5212C103.544 88.3656 103.792 89.2 104.291 89.8828C104.514 90.1657 104.8 90.3919 105.127 90.5431C105.454 90.6943 105.812 90.7663 106.172 90.7531C106.802 90.7646 107.421 90.5832 107.945 90.2331C108.506 89.8299 108.954 89.2889 109.245 88.6623L109.924 89.0487C109.571 89.872 108.996 90.5809 108.263 91.0962C107.543 91.5638 106.698 91.8029 105.84 91.7823C105.268 91.8008 104.7 91.6918 104.176 91.4632C103.652 91.2346 103.185 90.8921 102.81 90.4606C102.052 89.4638 101.642 88.2461 101.642 86.9939C101.642 85.7417 102.052 84.524 102.81 83.5273C103.184 83.0939 103.65 82.7496 104.174 82.5197C104.699 82.2897 105.268 82.18 105.84 82.1984C106.397 82.1711 106.954 82.267 107.47 82.4792C107.986 82.6914 108.449 83.0147 108.826 83.4262C109.548 84.2447 109.909 85.3629 109.909 86.7809V87.142H103.59V87.1348ZM103.619 86.3042H107.212C107.403 86.326 107.595 86.2786 107.754 86.1706C107.861 86.0335 107.91 85.8598 107.891 85.6867C107.937 84.9753 107.75 84.2682 107.36 83.6717C107.182 83.4409 106.951 83.2566 106.686 83.1346C106.421 83.0126 106.131 82.9565 105.84 82.9712C105.517 82.9522 105.195 83.0183 104.906 83.1628C104.617 83.3073 104.371 83.5251 104.193 83.7945C103.829 84.3458 103.638 85.1824 103.619 86.3042Z" fill="#EF404E"/>
<path d="M114.474 89.9046C114.451 90.1019 114.494 90.3014 114.597 90.4715C114.746 90.5826 114.931 90.6364 115.117 90.6232L116.29 90.6629V91.4754H111.199V90.6629L112.105 90.6232C112.291 90.6367 112.475 90.5829 112.625 90.4715C112.728 90.3016 112.771 90.102 112.748 89.9046V84.0257C112.763 83.9153 112.753 83.8027 112.718 83.6968C112.683 83.5909 112.624 83.4946 112.545 83.4154C112.244 83.2861 111.915 83.2351 111.589 83.2673H111.011V82.5126L114.376 82.2743V85.0043C114.599 84.2287 115.001 83.5163 115.55 82.9243C115.762 82.698 116.018 82.5172 116.303 82.3931C116.587 82.2689 116.894 82.2039 117.204 82.2021C117.673 82.1853 118.129 82.3539 118.475 82.6715C118.636 82.8213 118.764 83.0038 118.849 83.2068C118.935 83.4098 118.976 83.6286 118.97 83.8487C118.982 84.1671 118.868 84.4774 118.652 84.7118C118.549 84.8221 118.423 84.9091 118.284 84.967C118.144 85.0249 117.994 85.0524 117.843 85.0476C117.691 85.0564 117.538 85.0347 117.394 84.9839C117.25 84.933 117.118 84.8541 117.005 84.7515C116.901 84.645 116.82 84.5182 116.767 84.379C116.715 84.2399 116.691 84.0913 116.698 83.9426C116.695 83.7754 116.731 83.6098 116.803 83.4587C116.866 83.3162 116.964 83.192 117.088 83.0976H116.973C116.299 83.0976 115.715 83.5514 115.221 84.459C114.696 85.4946 114.44 86.6459 114.477 87.8065V89.8757L114.474 89.9046Z" fill="#EF404E"/>
<path d="M120.306 87.9293H121.006C121.174 88.7798 121.583 89.5643 122.183 90.1898C122.448 90.4466 122.762 90.6481 123.105 90.7827C123.448 90.9172 123.815 90.9821 124.184 90.9734C124.712 90.9999 125.234 90.8444 125.661 90.5329C125.839 90.3962 125.982 90.2191 126.078 90.0163C126.174 89.8135 126.22 89.5908 126.213 89.3665C126.227 89.1957 126.201 89.0241 126.139 88.8646C126.076 88.7051 125.978 88.5619 125.852 88.4457C125.612 88.2338 125.06 88.0424 124.198 87.8715C122.614 87.5441 121.592 87.1649 121.133 86.734C120.89 86.4848 120.703 86.187 120.583 85.8603C120.464 85.5335 120.415 85.1852 120.439 84.8382C120.421 84.4882 120.476 84.1383 120.6 83.8107C120.725 83.4831 120.916 83.1849 121.161 82.9351C121.423 82.6905 121.731 82.5006 122.067 82.3766C122.403 82.2525 122.761 82.1969 123.119 82.2129C123.568 82.2037 124.016 82.2621 124.448 82.3862C124.848 82.5159 125.225 82.7124 125.56 82.9676L126.127 82.2887H126.723V85.5026H126.127C125.927 84.7797 125.535 84.1245 124.993 83.6068C124.508 83.1804 123.88 82.9522 123.234 82.9676C122.783 82.9428 122.337 83.0699 121.967 83.3287C121.814 83.4361 121.689 83.5789 121.604 83.745C121.518 83.911 121.474 84.0953 121.476 84.2821C121.476 85.0259 122.247 85.5496 123.79 85.8529L123.895 85.8709C125.267 86.1406 126.188 86.4872 126.658 86.9109C126.903 87.1519 127.093 87.4434 127.215 87.7651C127.336 88.0869 127.386 88.4312 127.362 88.7743C127.384 89.1839 127.318 89.5936 127.169 89.9759C127.02 90.3582 126.792 90.7044 126.499 90.9915C125.844 91.559 124.995 91.8492 124.13 91.8004C123.68 91.8034 123.234 91.7251 122.812 91.5693C122.368 91.3949 121.955 91.1511 121.588 90.8471L120.934 91.7715H120.306V87.9293Z" fill="#EF404E"/>
<path d="M130.72 87.1348C130.72 87.1854 130.72 87.254 130.72 87.337C130.72 87.4201 130.72 87.4851 130.72 87.5212C130.674 88.3657 130.921 89.2001 131.42 89.8829C131.643 90.1657 131.93 90.3919 132.257 90.5431C132.584 90.6944 132.942 90.7663 133.302 90.7532C133.932 90.7647 134.551 90.5832 135.075 90.2332C135.636 89.83 136.084 89.289 136.375 88.6623L137.054 89.0487C136.7 89.872 136.125 90.5809 135.393 91.0962C134.664 91.5649 133.81 91.8005 132.944 91.7715C132.373 91.79 131.804 91.681 131.28 91.4524C130.756 91.2238 130.29 90.8813 129.914 90.4498C129.156 89.4531 128.746 88.2354 128.746 86.9832C128.746 85.731 129.156 84.5133 129.914 83.5165C130.29 83.0857 130.757 82.7442 131.281 82.5168C131.805 82.2894 132.373 82.1819 132.944 82.202C133.502 82.1748 134.058 82.2707 134.574 82.4829C135.09 82.6951 135.554 83.0184 135.931 83.4298C136.653 84.2483 137.014 85.3666 137.014 86.7845V87.1457H130.72V87.1348ZM130.749 86.3043H134.342C134.532 86.326 134.725 86.2786 134.883 86.1707C134.991 86.0336 135.04 85.8598 135.021 85.6868C135.066 84.9754 134.88 84.2683 134.49 83.6718C134.312 83.441 134.08 83.2567 133.816 83.1347C133.551 83.0127 133.261 82.9566 132.969 82.9712C132.647 82.9523 132.325 83.0184 132.036 83.1629C131.747 83.3073 131.501 83.5252 131.323 83.7945C130.959 84.3458 130.768 85.1824 130.749 86.3043Z" fill="#EF404E"/>
<path d="M142.333 91.2369L139.26 84.1592C139.195 84.0208 139.119 83.8879 139.033 83.762C138.974 83.6709 138.896 83.5933 138.805 83.5344C138.679 83.4577 138.539 83.4051 138.394 83.3792C138.186 83.3414 137.976 83.3245 137.765 83.3286V82.5161H142.272V83.3286H141.792C141.58 83.3114 141.367 83.3397 141.167 83.4117C141.114 83.446 141.072 83.4942 141.046 83.5509C141.019 83.6077 141.008 83.6707 141.015 83.7331C141.019 83.7896 141.03 83.8455 141.048 83.8992C141.069 83.9714 141.125 84.1182 141.214 84.3397L143.265 89.0558L145.193 84.4047C145.206 84.387 145.216 84.3676 145.222 84.3469C145.268 84.2317 145.293 84.1096 145.298 83.9858C145.308 83.8866 145.288 83.7866 145.241 83.6986C145.194 83.6106 145.122 83.5384 145.034 83.4911C144.687 83.3708 144.319 83.3181 143.951 83.3358V82.5233H147.692V83.3358C147.382 83.3237 147.077 83.4096 146.818 83.5814C146.556 83.7885 146.355 84.0632 146.237 84.3758L142.965 91.9844C142.586 92.9909 142.011 93.9116 141.272 94.6928C140.719 95.2237 139.98 95.5167 139.213 95.5089C138.742 95.5367 138.276 95.3959 137.899 95.1117C137.743 94.9784 137.62 94.8118 137.538 94.6242C137.456 94.4366 137.418 94.2329 137.426 94.0283C137.423 93.8774 137.451 93.7274 137.508 93.5877C137.565 93.4479 137.65 93.3214 137.758 93.2158C137.866 93.1067 137.996 93.0209 138.139 92.9638C138.282 92.9066 138.435 92.8794 138.589 92.8836C138.854 92.8735 139.113 92.9667 139.311 93.1436C139.403 93.2332 139.475 93.3414 139.522 93.4609C139.57 93.5804 139.591 93.7086 139.585 93.8369C139.584 93.9615 139.557 94.0845 139.506 94.1981C139.452 94.3136 139.426 94.375 139.426 94.3822C139.425 94.4154 139.433 94.4482 139.45 94.4769C139.467 94.5057 139.491 94.5292 139.52 94.5447C139.599 94.5866 139.688 94.6065 139.777 94.6025C140.116 94.6025 140.509 94.3269 140.954 93.7756C141.47 93.0982 141.888 92.3519 142.196 91.5583L142.333 91.2369Z" fill="#EF404E"/>
<path d="M98.6754 58.7009C95.8768 58.7009 94.862 57.3648 94.862 54.6312V39.8834C94.862 37.1498 95.8804 35.8137 98.6754 35.8137H100.084C102.882 35.8137 103.897 37.1498 103.897 39.8834V42.9998H115.214V51.5184H103.886V54.6348C103.886 57.3684 102.868 58.7045 100.073 58.7045H98.6754V58.7009ZM62.6257 51.9011L65.677 35.3695H66.3126L69.429 51.9011H62.6257ZM47.3037 69.5089H59.3179L60.7804 61.6909H71.2526L72.7151 69.5089H85.177L83.7795 62.7706C86.004 67.6673 90.7093 70.2745 98.0832 70.2745H99.4807C109.209 70.2745 114.358 65.7606 115.185 57.9967V69.5053H144.175V62.2C146.656 67.6673 151.549 70.2745 159.053 70.2745H160.768C171.45 70.2745 176.982 64.8073 176.982 54.317V25.0056H164.361V54.8225C164.361 57.3503 163.408 58.7009 160.675 58.7009H159.23C156.431 58.7009 155.543 57.3648 155.543 54.8225V25.0056H142.904V57.3684H127.857V25.0056H115.218V36.07C114.376 28.6312 109.545 24.2437 100.084 24.2437H98.112C87.2281 24.2437 82.2701 29.7759 82.2701 39.8834V55.4581L75.9759 25.0056H56.5229L47.3037 69.5089Z" fill="#0055AA"/>
</g>
<defs>
<clipPath id="clip0_2180_2145">
<rect width="130" height="71.5" fill="white" transform="translate(47 24.2437)"/>
</clipPath>
</defs>
</svg>
