<svg width="224" height="120" viewBox="0 0 224 120" fill="none" xmlns="http://www.w3.org/2000/svg">
<path d="M153.916 27.0083C153.812 27.0083 153.847 27.1484 153.847 27.2535V51.7378C151.408 49.3559 148.655 46.939 143.394 47.2893C138.376 47.6045 134.892 50.2666 132.732 53.5592C130.432 57.027 129.491 62.3512 130.78 67.3952C131.895 71.6335 134.544 75.0312 138.237 76.8526C142.174 78.7792 148.028 78.7791 151.547 76.012C152.383 75.3815 152.976 74.4357 153.812 73.8052V77.343H162V27.0083H153.916ZM109.944 47.2543C109.631 47.2543 109.317 47.2543 108.969 47.2893C105.066 47.5695 101.965 49.5661 99.9094 51.983C97.8188 54.47 96.2509 57.5874 96.0418 61.6506C95.5192 71.1081 100.99 78.9543 111.059 78.2888C115.101 78.0085 117.296 75.8718 119.526 73.6651C119.456 77.1328 119.875 80.0401 118.69 82.4921C117.122 85.7847 111.582 87.2558 108.098 84.8739C106.774 83.9632 106.112 82.4921 105.554 80.7057H96.7735C97.5052 86.6604 101.373 90.3383 106.495 92.0546C114.927 94.8218 123.463 91.0388 126.355 85.1542C128.481 80.7757 127.749 73.6301 127.749 67.3952V48.2351H119.561V51.8429C117.296 49.2508 114.683 47.2192 109.944 47.2543ZM84.6481 47.9198C84.5436 47.9198 84.5784 48.0249 84.5784 48.13V71.1431C84.5784 75.4865 85.0314 79.7599 83.4286 82.422C81.1986 86.0999 73.9512 86.3801 71.5819 82.2469C71.1638 81.5463 71.1638 80.8107 70.6411 80.0752H62C62.8711 86.24 66.7735 89.988 72.2439 91.5642C78.6899 93.4207 85.4843 91.319 88.9338 87.7462C90.8502 85.7146 91.9652 83.648 92.4181 80.3554C92.8362 77.273 92.7317 73.6651 92.7317 69.742C92.7317 62.5263 92.5575 55.0654 92.6272 47.9198H84.6481ZM72.5226 48.2351C72.4181 48.2351 72.4181 48.3401 72.4181 48.4452V77.343H80.6063V48.2351H72.5226ZM112.662 54.6801C117.296 54.7152 120.955 58.5682 120.502 63.6472C120.153 67.7104 116.634 71.2832 111.791 70.933C107.749 70.6177 104.3 67.3952 104.3 62.8065C104.3 61.1602 105.101 59.0936 105.624 58.2529C106.808 56.4315 108.899 55.0304 111.686 54.7502C112.07 54.7152 112.383 54.6801 112.662 54.6801ZM146.808 54.6801C151.268 54.7152 154.753 58.288 154.787 62.8065C154.822 67.6404 150.606 71.2482 146.077 70.933C142.105 70.6527 138.132 67.22 138.62 61.8608C138.829 59.584 139.735 58.2179 140.955 57.027C142.07 55.9061 143.638 54.9954 145.937 54.7502C146.216 54.7152 146.53 54.6801 146.808 54.6801Z" fill="#006699"/>
<path d="M76.7042 30.5813C74.0213 30.5813 71.8262 32.788 71.8262 35.4852C71.8262 38.1823 74.0213 40.389 76.7042 40.389C79.3871 40.389 81.5823 38.1823 81.5823 35.4852C81.5823 32.753 79.3871 30.5813 76.7042 30.5813ZM88.8297 30.7214C86.1467 30.7214 83.9516 32.9282 83.9516 35.6253C83.9516 38.3224 86.1467 40.5292 88.8297 40.5292C91.5126 40.5292 93.7077 38.3224 93.7077 35.6253C93.7077 32.9282 91.5126 30.7214 88.8297 30.7214Z" fill="#009933"/>
</svg>
