<svg width="260" height="260" viewBox="0 0 260 260" fill="none" xmlns="http://www.w3.org/2000/svg">
<g style="mix-blend-mode:multiply">
<path d="M130 166.385C150.095 166.385 166.385 150.095 166.385 130C166.385 109.905 150.095 93.6154 130 93.6154C109.905 93.6154 93.6155 109.905 93.6155 130C93.6155 150.095 109.905 166.385 130 166.385Z" stroke="#EFEFEF" stroke-miterlimit="10"/>
<path d="M130 176.859C104.121 176.859 83.1414 155.88 83.1414 130C83.1414 104.121 104.121 83.1411 130 83.1411C155.88 83.1411 176.859 104.121 176.859 130C176.859 155.88 155.88 176.859 130 176.859Z" stroke="#EFEFEF" stroke-miterlimit="10"/>
<path d="M130 207.731C172.93 207.731 207.731 172.93 207.731 130C207.731 87.0705 172.93 52.2692 130 52.2692C87.0708 52.2692 52.2695 87.0705 52.2695 130C52.2695 172.93 87.0708 207.731 130 207.731Z" stroke="#EFEFEF" stroke-miterlimit="10"/>
<path d="M130 259C201.245 259 259 201.245 259 130C259 58.7553 201.245 1 130 1C58.7553 1 1 58.7553 1 130C1 201.245 58.7553 259 130 259Z" stroke="#EFEFEF" stroke-miterlimit="10"/>
</g>
</svg>
