<svg width="572" height="673" viewBox="0 0 572 673" fill="none" xmlns="http://www.w3.org/2000/svg">
<path d="M28.1644 173.068C28.1454 171.858 28.128 170.644 28.1123 169.428C28.0747 166.516 28.0466 163.586 28.0279 160.635C135.614 156.246 215.621 125.189 285.105 50.2143C287.218 47.9343 289.318 45.6171 291.406 43.2628C293.477 45.4224 295.548 47.5506 297.622 49.6475L317.284 30.2056L297.622 49.6475C336.395 88.8599 375.788 117.152 420.771 135.409C458.304 150.642 498.573 158.418 543.901 160.562C545.543 284.217 526.779 376.992 487.024 451.398C446.618 527.023 383.011 586.504 290.529 640.241C197.504 585.185 134.777 531.044 93.8786 463.038C51.01 391.756 30.1901 302 28.1644 173.068Z" stroke="url(#paint0_linear_1794_223711)" stroke-width="56"/>
<defs>
<linearGradient id="paint0_linear_1794_223711" x1="286" y1="171.556" x2="295.544" y2="681.564" gradientUnits="userSpaceOnUse">
<stop stop-color="#474747"/>
<stop offset="1" stop-color="#343434"/>
</linearGradient>
</defs>
</svg>
