<svg width="56" height="56" viewBox="0 0 56 56" fill="none" xmlns="http://www.w3.org/2000/svg">
<path d="M56 28C56 43.464 43.464 56 28 56C12.536 56 0 43.464 0 28C0 12.536 12.536 0 28 0C43.464 0 56 12.536 56 28Z" fill="url(#paint0_linear_9_37)"/>
<path d="M23.3562 42.072C24.7392 43.073 32.504 43.525 34.3905 42.072C32.5514 41.103 33.2104 38.443 33.2104 35.918C33.2104 34.158 32.6513 33.006 32.0245 32.423C35.9162 31.955 40 30.359 40 23.108C40 21.047 39.3252 19.362 38.2049 18.041C38.3839 17.564 38.9823 15.646 38.0302 13.046C38.0302 13.046 36.5648 12.538 33.23 14.981C31.8345 14.56 30.3386 14.353 28.8557 14.344C27.3685 14.351 25.8748 14.56 24.4814 14.978C21.1445 12.536 19.6769 13.044 19.6769 13.044C18.727 15.641 19.3253 17.561 19.5066 18.038C18.3885 19.359 17.7071 21.045 17.7071 23.106C17.7071 30.338 21.7866 31.958 25.6651 32.435C25.165 32.907 24.7129 33.739 24.5557 34.959C23.5599 35.443 21.0288 36.275 19.4695 33.391C19.4695 33.391 18.5479 31.579 16.7942 31.445C16.7942 31.445 15.0886 31.422 16.6763 32.592C16.6763 32.592 17.8228 33.173 18.6156 35.354C18.6156 35.354 19.642 39.025 24.5011 37.885C24.5098 39.46 24.5557 40.26 24.5557 40.709C24.5557 41.966 23.3562 42.072 23.3562 42.072Z" fill="white"/>
<defs>
<linearGradient id="paint0_linear_9_37" x1="10" y1="7" x2="45.5" y2="49" gradientUnits="userSpaceOnUse">
<stop stop-color="#FF8E3D"/>
<stop offset="1" stop-color="#FF6E3D"/>
</linearGradient>
</defs>
</svg>
