<svg width="61" height="59" viewBox="0 0 61 59" fill="none" xmlns="http://www.w3.org/2000/svg">
<path d="M41.2315 18.971C42.8734 19.317 44.5588 19.541 46.2511 19.586C45.8071 21.147 45.445 22.642 45.1368 24.074C44.8831 25.253 44.6681 27.07 44.4766 28.816C44.4405 29.145 44.4052 29.471 44.3706 29.791C44.2198 31.188 44.0826 32.458 43.9496 33.258C43.9212 33.43 43.893 33.6 43.8648 33.77C43.0173 38.887 42.2695 43.403 39.7068 47.382C37.0896 51.446 32.534 55.007 23.8462 57.952C15.3481 55.238 10.8021 51.593 8.17695 47.475C5.52143 43.309 4.78762 38.601 4.01869 33.654C3.89655 32.868 3.77127 31.679 3.63224 30.36C3.58708 29.932 3.54047 29.489 3.49205 29.043C3.29672 27.241 3.07182 25.368 2.79476 24.13C2.474 22.697 2.08636 21.206 1.59692 19.653C3.26621 19.597 4.95226 19.352 6.60845 18.98C11.2022 17.946 15.6056 15.919 18.8507 14.16C20.4756 13.279 21.8154 12.462 22.7498 11.865C23.2171 11.566 23.5833 11.322 23.8334 11.153C23.8654 11.131 23.8955 11.11 23.9237 11.091C23.9497 11.11 23.9772 11.129 24.0065 11.15C24.2493 11.321 24.6054 11.568 25.0615 11.869C25.9733 12.472 27.2856 13.295 28.8916 14.18C32.0995 15.948 36.4991 17.973 41.2315 18.971Z" fill="url(#paint0_linear_9_38)" stroke="#333333"/>
<path fill-rule="evenodd" clip-rule="evenodd" d="M32.7994 27.681C33.5458 28.381 33.5733 29.542 32.8608 30.275L23.1229 41.215C22.7703 41.577 22.282 41.783 21.7714 41.783C21.2609 41.783 20.7725 41.577 20.42 41.215L15.4945 36.148C14.7821 35.416 14.8096 34.255 15.5559 33.555C16.3023 32.855 17.4849 32.883 18.1974 33.615L21.7714 37.292L30.1579 27.742C30.8704 27.009 32.053 26.982 32.7994 27.681Z" fill="white"/>
<path d="M44 1.15499C45.2376 0.439994 46.7624 0.439994 48 1.15499L58.7224 7.345C59.96 8.06 60.7224 9.38 60.7224 10.809V23.191C60.7224 24.62 59.96 25.94 58.7224 26.655L48 32.845C46.7624 33.56 45.2376 33.56 44 32.845L33.2776 26.655C32.04 25.94 31.2776 24.62 31.2776 23.191V10.809C31.2776 9.38 32.04 8.06 33.2776 7.345L44 1.15499Z" fill="white"/>
<path d="M44.9121 4.068C45.5754 3.692 46.4212 3.69 47.068 4.068L56.9718 9.65101C57.5912 9.99901 58.0057 10.69 57.9999 11.403V22.597C58.0041 23.341 57.5489 24.047 56.8955 24.388L47.0448 29.946C46.7078 30.132 46.3272 30.224 45.9424 30.214C45.5576 30.203 45.1827 30.09 44.8565 29.885L41.9005 28.177C41.699 28.057 41.4726 27.961 41.33 27.767C41.4561 27.597 41.6799 27.576 41.8624 27.501C42.2736 27.37 42.6501 27.17 43.0282 26.957C43.1235 26.891 43.2405 26.916 43.3317 26.976L45.8524 28.433C46.0323 28.537 46.2147 28.4 46.369 28.313L56.0414 22.855C56.1608 22.796 56.2271 22.67 56.2172 22.539V11.453C56.2305 11.304 56.1451 11.168 56.0099 11.107L46.1841 5.57401C46.1274 5.53501 46.0603 5.51401 45.9914 5.51401C45.9226 5.51401 45.8553 5.535 45.7985 5.573L35.9868 11.118C35.8541 11.179 35.7629 11.313 35.7795 11.462V22.549C35.7678 22.68 35.8375 22.803 35.9577 22.859L38.5796 24.34C39.0721 24.605 39.6766 24.754 40.2189 24.559C40.4562 24.47 40.6605 24.31 40.8044 24.101C40.9483 23.892 41.025 23.645 41.024 23.391L41.0265 12.371C41.0149 12.208 41.1692 12.073 41.3275 12.089H42.5879C42.7537 12.085 42.8839 12.261 42.8615 12.425L42.859 23.515C42.8599 24.5 42.4552 25.571 41.5439 26.054C40.4212 26.635 39.0332 26.513 37.9237 25.955L35.1045 24.396C34.4412 24.064 33.9959 23.348 34 22.605V11.411C34.0028 11.047 34.1028 10.691 34.2897 10.378C34.4766 10.066 34.7436 9.81001 35.063 9.63601L44.9121 4.068ZM47.7678 11.827C49.1998 11.744 50.733 11.772 52.0215 12.478C53.019 13.019 53.5721 14.153 53.5903 15.262C53.5621 15.412 53.4063 15.495 53.2636 15.484C52.849 15.483 52.4328 15.49 52.0165 15.481C51.8399 15.488 51.7379 15.326 51.7156 15.17C51.5961 14.639 51.3068 14.114 50.8076 13.858C50.0414 13.474 49.1525 13.493 48.3167 13.501C47.7064 13.534 47.0506 13.587 46.534 13.945C46.136 14.217 46.0166 14.774 46.1584 15.207C46.291 15.525 46.6584 15.627 46.9577 15.721C48.6841 16.172 50.5124 16.136 52.2064 16.722C52.9071 16.964 53.5928 17.435 53.8333 18.169C54.1467 19.152 54.0099 20.328 53.3109 21.117C52.7437 21.767 51.9179 22.112 51.0928 22.313C49.9958 22.558 48.8582 22.563 47.7446 22.454C46.6973 22.335 45.6078 22.059 44.7993 21.346C44.1078 20.746 43.7711 19.811 43.8043 18.908C43.8126 18.756 43.9643 18.65 44.1111 18.662H45.3549C45.5224 18.651 45.6451 18.795 45.6534 18.952C45.7305 19.45 45.9204 19.989 46.3615 20.279C47.2123 20.828 48.2794 20.79 49.2529 20.806C50.0597 20.77 50.9651 20.759 51.6243 20.225C51.9726 19.921 52.0746 19.413 51.9809 18.975C51.8789 18.605 51.4834 18.433 51.1517 18.311C49.4477 17.772 47.5987 17.968 45.9113 17.358C45.2264 17.116 44.5638 16.658 44.301 15.954C43.9337 14.959 44.102 13.726 44.8756 12.963C45.6219 12.204 46.7164 11.912 47.7529 11.807L47.7678 11.827Z" fill="#333333"/>
<defs>
<linearGradient id="paint0_linear_9_38" x1="0.914253" y1="8.603" x2="48.9491" y2="56.435" gradientUnits="userSpaceOnUse">
<stop stop-color="#FF8E3D"/>
<stop offset="1" stop-color="#FF6F3D"/>
</linearGradient>
</defs>
</svg>
