<svg width="48" height="48" viewBox="0 0 48 48" fill="none" xmlns="http://www.w3.org/2000/svg">
<path fill-rule="evenodd" clip-rule="evenodd" d="M38.3565 9.67479L38.1037 4.58056C46.3828 10.5896 50.1797 21.494 46.7273 31.6931C42.478 44.2448 28.8585 50.9756 16.3068 46.7266C3.75505 42.4774 -2.97558 28.8578 1.27342 16.3062C4.73168 6.09057 14.3972 -0.268524 24.6421 0.00875854L21.3583 3.88867C15.2806 4.98758 10.0329 9.13805 7.97025 15.231C4.90152 24.2959 10.0452 34.2282 19.4589 37.4147C28.8727 40.6016 38.9917 35.8363 42.0605 26.7712C44.1163 20.6986 42.4862 14.2372 38.3565 9.67479ZM32.0472 12.4905L32.221 19.6118C32.221 19.6118 32.2955 22.8871 30.0244 25.1119C27.7531 27.3367 24.9635 27.1335 23.1485 26.5189C21.3334 25.9046 18.9939 24.3715 18.5412 21.2246C18.0886 18.0777 20.1371 15.5211 20.1371 15.5211L24.601 9.96958L27.201 6.79909L29.4324 4.03649C29.4324 4.03649 30.4565 2.66468 30.7484 2.38126C30.8063 2.32516 30.8656 2.28865 30.9237 2.2603L30.9661 2.23868L30.9737 2.23547C31.0964 2.18258 31.2378 2.17118 31.3743 2.21735C31.5078 2.26264 31.6112 2.35468 31.6767 2.46746L31.6904 2.48938L31.7024 2.51479C31.7343 2.57469 31.7608 2.64365 31.7734 2.72838C31.833 3.13072 31.8134 4.84233 31.8134 4.84233L31.9078 8.39266L32.0472 12.4905Z" fill="#0F5BC8"/>
</svg>
