<svg width="2787" height="1099" viewBox="0 0 2787 1099" fill="none" xmlns="http://www.w3.org/2000/svg">
<g clip-path="url(#clip0_9012_99556)">
<rect width="2787" height="1099" fill="#017737"/>
<g style="mix-blend-mode:soft-light" opacity="0.3">
<path fill-rule="evenodd" clip-rule="evenodd" d="M1288.81 8.49911L1562.73 1226.59C1585.17 1331.05 1528.48 1375.22 1436.01 1325.33L321.791 762.056C225.987 714.766 130.874 592.709 111 491.552L-162.914 -726.538C-185.358 -830.994 -128.67 -875.168 -36.2006 -825.28L1078.02 -262.005C1170.49 -212.116 1265.6 -90.0598 1288.81 8.49911Z" fill="#333333"/>
</g>
<g style="mix-blend-mode:soft-light" opacity="0.2">
<path fill-rule="evenodd" clip-rule="evenodd" d="M2484.68 823.914L2975.54 -515.864C3016.42 -631.032 2956.37 -697.206 2841.32 -663.782L1460.31 -304.934C1341.73 -275.404 1213.47 -159.016 1176.06 -46.9946L685.197 1292.78C644.324 1407.95 704.373 1474.13 819.424 1440.7L2200.43 1081.85C2315.48 1048.43 2443.74 932.043 2484.68 823.914Z" fill="black"/>
</g>
<g style="mix-blend-mode:soft-light" opacity="0.2">
<path fill-rule="evenodd" clip-rule="evenodd" d="M1368.17 -263.927L2111.77 310.798C2174.93 360.585 2163.27 413.411 2085.71 428.881L1169.28 637.231C1091.03 655.808 977.287 630.704 917.199 581.596L173.596 6.87107C110.434 -42.9157 122.093 -95.7422 199.657 -111.212L1116.09 -319.562C1193.65 -335.031 1307.39 -309.928 1368.17 -263.927Z" fill="#333333"/>
</g>
</g>
<defs>
<clipPath id="clip0_9012_99556">
<rect width="2787" height="1099" fill="white"/>
</clipPath>
</defs>
</svg>
