<svg width="141" height="141" viewBox="0 0 141 141" fill="none" xmlns="http://www.w3.org/2000/svg">
<g clip-path="url(#clip0_4616_9468)">
<path fill-rule="evenodd" clip-rule="evenodd" d="M1 60.541C1 57.1072 4.16405 53.5 7.67351 53.5H113.65C117.159 53.5 120 56.2892 120 59.723V120.277C120 123.711 117.159 126.5 113.65 126.5H7.66157C4.15211 126.5 1 123.331 1 119.898V60.541Z" fill="white"/>
<path fill-rule="evenodd" clip-rule="evenodd" d="M72.3396 87.3135C57.3261 97.8388 58.1811 96.4047 46.3933 88.1397L4.09961 124.562C4.60954 125.681 7.26595 126.446 8.84319 126.4H110.617C114.744 126.435 116.511 126.161 118.1 124.62L72.3396 87.3135Z" fill="#EFEFEF"/>
<path d="M72.1695 87.1128L83.545 96.4593M46.8004 87.5086L3.49707 124.644" stroke="#333333" stroke-linecap="round" stroke-linejoin="round"/>
<path fill-rule="evenodd" clip-rule="evenodd" d="M97.1416 38.8604V69.1913L118.809 55.1055L97.1416 38.8604Z" fill="#D9F4FF"/>
<path fill-rule="evenodd" clip-rule="evenodd" d="M53.9775 17.8002C52.8606 18.4432 55.3091 18.6158 56.6042 18.6158H65.3963C66.6913 18.6158 69.0675 18.276 67.9507 17.633L64.2413 14.901C62.6795 13.8416 60.0019 13.3958 57.7707 14.9009L53.9775 17.8002Z" fill="#D9F4FF"/>
<path fill-rule="evenodd" clip-rule="evenodd" d="M23.2765 40.4111V71.1796L2.76758 55.7589L23.2765 40.4111Z" fill="#D9F4FF"/>
<path d="M120.5 90.3299V59.8168C120.5 57.8583 119.524 55.9809 117.894 54.822L64.7184 15.2368C62.2051 13.5053 59.4948 13.6723 57.2816 15.2368L3.65712 54.822C2.01509 55.9809 1 57.9909 1 59.9494V120.843C1 124.239 4.34382 127.008 7.83017 127.008H61H85.6015" stroke="#333333" stroke-linecap="round"/>
<path d="M71.855 86.7632L118.606 55.3239M46.7929 87.7812L2.64844 55.7785" stroke="#333333"/>
<path d="M95.2715 18C96.2298 18.0002 97 18.7945 97 19.7637V69.8535L96.7842 70.0029L62.2236 93.8301L62.2139 93.8369L62.2031 93.8438C60.701 94.7752 59.3739 95.1035 58.1172 94.9717C56.8731 94.8411 55.7643 94.2656 54.6875 93.5195L54.6787 93.5137L22.2061 69.9443L22 69.7939V32.7705L22.1445 32.625L36.4668 18.1484L36.6143 18H95.2715Z" fill="white" stroke="#333333"/>
<path fill-rule="evenodd" clip-rule="evenodd" d="M74.6607 51.2004C74.6607 53.0346 74.3807 54.7185 73.8207 56.242C73.2607 57.7555 72.4707 58.9382 71.4407 59.7801C70.4307 60.622 69.2607 61.053 67.9207 61.053C66.9307 61.053 66.0807 60.7824 65.3607 60.2411C64.6407 59.6999 64.1507 58.9682 63.9007 58.0461H63.6807C63.0707 59.0484 62.3207 59.8001 61.4207 60.3013C60.5207 60.8024 59.5107 61.053 58.3907 61.053C56.3607 61.053 54.7507 60.3815 53.5807 59.0284C52.4207 57.6853 51.8407 55.8611 51.8407 53.5658C51.8407 50.9198 52.6107 48.7849 54.1607 47.1411C55.7107 45.4873 57.7807 44.6554 60.3907 44.6554C61.3407 44.6554 62.3907 44.7456 63.5307 44.926C64.6907 45.0964 65.7207 45.327 66.6207 45.6377L66.2107 54.5882V55.0492C66.2107 57.104 66.8607 58.1263 68.1607 58.1263C69.1507 58.1263 69.9307 57.4748 70.5007 56.1618C71.0907 54.8488 71.3807 53.185 71.3807 51.1603C71.3807 48.9653 70.9407 47.0409 70.0707 45.3871C69.2007 43.7233 67.9607 42.4403 66.3507 41.5383C64.7407 40.6462 62.8907 40.1952 60.8107 40.1952C58.1507 40.1952 55.8407 40.7565 53.8707 41.8891C51.9107 43.0217 50.4107 44.6354 49.3807 46.7402C48.3407 48.835 47.8307 51.2606 47.8307 54.0269C47.8307 57.7454 48.8007 60.612 50.7307 62.6066C52.6607 64.6112 55.4407 65.6135 59.0607 65.6135C61.8207 65.6135 64.6907 65.0321 67.6907 63.8795V67.0367C65.0707 68.1393 62.2207 68.6905 59.1407 68.6905C54.5207 68.6905 50.9307 67.4176 48.3407 64.8617C45.7607 62.2959 44.4707 58.7277 44.4707 54.1472C44.4707 50.7995 45.1707 47.8227 46.5707 45.2167C47.9707 42.6007 49.9007 40.5961 52.3707 39.2129C54.8507 37.8298 57.6607 37.1382 60.7907 37.1382C63.5007 37.1382 65.9007 37.7195 68.0107 38.8722C70.1307 40.0248 71.7707 41.6786 72.9307 43.8135C74.0807 45.9384 74.6607 48.404 74.6607 51.2004ZM55.4207 53.636C55.4207 56.6229 56.5607 58.1163 58.8407 58.1163C61.2507 58.1163 62.5607 56.242 62.7907 52.4834L63.0107 47.8828C62.2207 47.6623 61.3807 47.5521 60.4807 47.5521C58.8807 47.5521 57.6407 48.0933 56.7407 49.1858C55.8707 50.2883 55.4207 51.7617 55.4207 53.636Z" fill="url(#paint0_linear_4616_9468)"/>
<path d="M36.1465 18.1465C36.2894 18.0036 36.5046 17.9608 36.6914 18.0381C36.8782 18.1155 37 18.2978 37 18.5V32.5322C37 32.8083 36.7761 33.0322 36.5 33.0322H22.5C22.2979 33.0322 22.1155 32.9103 22.0381 32.7236C21.9607 32.537 22.0038 32.3218 22.1465 32.1787L36.1465 18.1465Z" fill="url(#paint1_linear_4616_9468)" stroke="#333333" stroke-linejoin="round"/>
<path d="M81.3105 117.161C79.5512 115.359 79.5759 112.589 81.3076 110.963L81.3115 110.959C88.9335 103.645 98.9898 95.7653 105.565 90.3213L105.572 90.3154L105.58 90.3086C106.11 89.8337 106.881 89.9127 107.662 90.5244C108.436 91.1304 109 92.1194 109 93.001L109 98.9678L133.941 98.9678C135.7 98.9678 137.215 99.7395 138.296 100.852C139.383 101.97 140 103.402 140 104.675L140 123.292C140 126.216 137.493 128.997 133.941 128.997L109 128.997L109 135.5C109 136.355 108.454 137.194 107.704 137.665C106.958 138.134 106.152 138.165 105.577 137.656C101.57 134.094 97.466 130.762 93.3857 127.428C89.3049 124.093 85.2463 120.753 81.3105 117.161Z" fill="#D9F4FF" stroke="#333333"/>
</g>
<defs>
<linearGradient id="paint0_linear_4616_9468" x1="49.1729" y1="36.8615" x2="62.6471" y2="57.6061" gradientUnits="userSpaceOnUse">
<stop stop-color="#FFC671"/>
<stop offset="1" stop-color="#FF6F3D"/>
</linearGradient>
<linearGradient id="paint1_linear_4616_9468" x1="27.3465" y1="23.1254" x2="33.5113" y2="29.8656" gradientUnits="userSpaceOnUse">
<stop stop-color="#FFC671"/>
<stop offset="1" stop-color="#FF6F3D"/>
</linearGradient>
<clipPath id="clip0_4616_9468">
<rect width="140" height="140" fill="white" transform="translate(0.5 0.5)"/>
</clipPath>
</defs>
</svg>
