<svg width="24" height="25" viewBox="0 0 24 25" fill="none" xmlns="http://www.w3.org/2000/svg">
<path d="M21.0002 12.7069C21.0002 12.0951 20.9496 11.48 20.8416 10.8782H12.1807V14.3439H17.1404C16.9346 15.4617 16.2733 16.4505 15.3049 17.0788V19.3276H18.2639C20.0015 17.76 21.0002 15.4451 21.0002 12.7069Z" fill="#4285F4"/>
<path d="M12.18 21.5C14.6565 21.5 16.745 20.703 18.2666 19.3273L15.3077 17.0786C14.4844 17.6275 13.4217 17.9384 12.1834 17.9384C9.78792 17.9384 7.7568 16.3543 7.02803 14.2246H3.97461V16.5428C5.53337 19.582 8.70826 21.5 12.18 21.5Z" fill="#34A853"/>
<path d="M7.02485 14.2248C6.64022 13.107 6.64022 11.8967 7.02485 10.7789V8.46069H3.9748C2.67246 11.0038 2.67246 13.9999 3.9748 16.543L7.02485 14.2248Z" fill="#FBBC04"/>
<path d="M12.18 7.06176C13.4891 7.04192 14.7543 7.52474 15.7024 8.41101L18.324 5.84147C16.664 4.31364 14.4608 3.47366 12.18 3.50012C8.70825 3.50012 5.53337 5.41818 3.97461 8.46062L7.02465 10.7788C7.75005 8.64581 9.78453 7.06176 12.18 7.06176Z" fill="#EA4335"/>
</svg>
