<svg width="472" height="48" viewBox="0 0 472 48" fill="none" xmlns="http://www.w3.org/2000/svg">
<rect width="48" height="48" rx="6" fill="#EB7B0C" fill-opacity="0.1"/>
<g clip-path="url(#clip0_3893_28172)">
<path fill-rule="evenodd" clip-rule="evenodd" d="M26.8661 15.6164C28.3898 14.0927 30.8602 14.0927 32.3839 15.6164C33.9076 17.1401 33.9076 19.6105 32.3839 21.1342L21.1339 32.3842C20.9737 32.5444 20.773 32.658 20.5532 32.713L15.5532 33.963C15.1272 34.0695 14.6766 33.9446 14.3661 33.6342C14.0557 33.3237 13.9309 32.8731 14.0373 32.4471L15.2873 27.4471C15.3423 27.2273 15.4559 27.0266 15.6161 26.8664L26.8661 15.6164ZM30.6161 17.3842C30.0688 16.8368 29.1813 16.8368 28.6339 17.3842L27.6428 18.3753L29.625 20.3575L30.6161 19.3664C31.1635 18.819 31.1635 17.9315 30.6161 17.3842ZM27.8573 22.1253L25.875 20.143L17.6287 28.3893L16.968 31.0323L19.611 30.3716L27.8573 22.1253Z" fill="#EB7B0C"/>
</g>
<rect x="72" width="48" height="48" rx="6" fill="#F2557C" fill-opacity="0.1"/>
<g clip-path="url(#clip1_3893_28172)">
<path fill-rule="evenodd" clip-rule="evenodd" d="M96 14C96.4877 14 96.9308 14.2836 97.1351 14.7264L99.3107 19.4432L104.469 20.0548C104.953 20.1122 105.36 20.446 105.511 20.9098C105.661 21.3736 105.528 21.8827 105.17 22.2138L101.357 25.7405L102.369 30.8353C102.464 31.3136 102.272 31.8035 101.878 32.0902C101.483 32.3768 100.958 32.4078 100.533 32.1696L96 29.6325L91.4674 32.1696C91.0419 32.4078 90.5167 32.3768 90.1222 32.0902C89.7276 31.8035 89.5358 31.3136 89.6309 30.8353L90.6432 25.7405L86.8296 22.2138C86.4715 21.8827 86.3387 21.3736 86.4894 20.9098C86.6401 20.446 87.0468 20.1122 87.5311 20.0548L92.6893 19.4432L94.8649 14.7264C95.0692 14.2836 95.5123 14 96 14ZM96 18.2344L94.6664 21.1257C94.4843 21.5204 94.1102 21.7922 93.6785 21.8434L90.5166 22.2183L92.8543 24.3801C93.1734 24.6753 93.3163 25.1151 93.2316 25.5415L92.6111 28.6645L95.3895 27.1093C95.7688 26.8969 96.2312 26.8969 96.6106 27.1093L99.389 28.6645L98.7684 25.5415C98.6837 25.1151 98.8266 24.6753 99.1458 24.3801L101.483 22.2183L98.3215 21.8434C97.8898 21.7922 97.5157 21.5204 97.3336 21.1257L96 18.2344Z" fill="#F2557C"/>
</g>
<rect x="144" width="48" height="48" rx="6" fill="#56A8F4" fill-opacity="0.1"/>
<path fill-rule="evenodd" clip-rule="evenodd" d="M159 17C159.112 15.996 159.967 15 161 15H175C176.087 15 177 15.996 177 17V31.0841C177 32.1121 176.081 33 175 33H169V31H175V17H161V25H159V17ZM167 25H169H173V23H167V25ZM173 21H163V19H173V21ZM173 29H170V27H173V29Z" fill="#56A8F4"/>
<path fill-rule="evenodd" clip-rule="evenodd" d="M160.708 27.2985L163 29.5914V23.0001H165V29.5914L167.293 27.2985L168.708 28.7127L164.708 32.7127C164.52 32.9003 164.266 33.0056 164 33.0056C163.735 33.0056 163.481 32.9003 163.293 32.7127L159.293 28.7127L160.708 27.2985Z" fill="#56A8F4"/>
<rect x="216" width="48" height="48" rx="6" fill="#2D8CFF" fill-opacity="0.1"/>
<path d="M236.067 18.5303C234.374 18.5303 232.68 18.5303 230.986 18.5303C230.172 18.5303 230.001 18.6996 230.001 19.493C230.001 21.7543 229.999 24.0157 230.001 26.2771C230.002 28.1503 231.314 29.4644 233.199 29.4677C236.585 29.4734 239.973 29.4701 243.36 29.4685C244.086 29.4685 244.301 29.2521 244.301 28.5221C244.303 26.2876 244.304 24.0531 244.301 21.8186C244.298 19.816 242.999 18.5303 240.984 18.5295C239.345 18.5287 237.707 18.5303 236.067 18.5303ZM249.998 24.0002C249.998 22.4029 250.006 20.8055 249.988 19.209C249.986 19.0031 249.902 18.7004 249.758 18.6215C249.623 18.5474 249.322 18.6613 249.156 18.7793C247.791 19.755 246.434 20.7437 245.092 21.7511C244.94 21.8658 244.818 22.1213 244.813 22.315C244.787 23.4241 244.811 24.5349 244.793 25.644C244.788 25.954 244.901 26.1403 245.143 26.3129C246.025 26.9419 246.893 27.5896 247.767 28.2276C248.27 28.5946 248.766 28.9713 249.283 29.318C249.678 29.5832 249.958 29.4278 249.994 28.9526C250.003 28.8314 249.998 28.7093 249.998 28.5872C249.998 27.0574 249.998 25.5284 249.998 23.9986V24.0002Z" fill="#2D8CFF"/>
<rect x="288" width="48" height="48" rx="6" fill="#22C386" fill-opacity="0.1"/>
<path fill-rule="evenodd" clip-rule="evenodd" d="M304.922 31.0465C304.021 30.1418 303.309 29.0888 302.788 27.8875C302.263 26.6792 302 25.3833 302 24C302 22.6167 302.263 21.3208 302.788 20.1125C303.313 18.9042 304.029 17.8458 304.938 16.9375C305.846 16.0292 306.908 15.3125 308.125 14.7875C309.342 14.2625 310.633 14 312 14C313.383 14 314.679 14.2625 315.887 14.7875C317.096 15.3125 318.154 16.0292 319.062 16.9375C319.971 17.8458 320.688 18.9042 321.212 20.1125C321.737 21.3208 322 22.6167 322 24C322 25.3833 321.737 26.6792 321.212 27.8875C320.688 29.0958 319.971 30.1542 319.062 31.0625C318.154 31.9708 317.092 32.6875 315.875 33.2125C314.658 33.7375 313.367 34 312 34C310.617 34 309.321 33.7375 308.113 33.2125C306.911 32.6906 305.858 31.9792 304.953 31.0784C304.948 31.0731 304.943 31.0678 304.938 31.0625C304.932 31.0572 304.927 31.0519 304.922 31.0465ZM308.613 29.8375C308.838 30.4292 309.1 31 309.4 31.55C309.342 31.5312 309.284 31.5119 309.226 31.4919C308.363 31.1921 307.592 30.7531 306.912 30.175C306.822 30.0979 306.733 30.0191 306.646 29.9387C306.038 29.3754 305.523 28.7292 305.1 28H308.05C308.2 28.6333 308.388 29.2458 308.613 29.8375ZM307.537 25.0125C307.562 25.3375 307.6 25.6667 307.65 26H304.25C304.167 25.6667 304.104 25.3375 304.062 25.0125C304.057 24.9719 304.052 24.9311 304.048 24.89C304.016 24.6029 304 24.3062 304 24C304 23.7468 304.011 23.5002 304.033 23.2602C304.043 23.1746 304.057 23.0879 304.075 23H304.061C304.061 22.9958 304.062 22.9917 304.062 22.9875C304.104 22.6625 304.167 22.3333 304.25 22H307.65C307.6 22.3333 307.562 22.6625 307.537 22.9875C307.537 22.9917 307.537 22.9958 307.537 23H307.525C307.508 23.1667 307.5 23.3292 307.5 23.4875L307.5 24C307.5 24.35 307.512 24.6875 307.537 25.0125ZM313 30.3244C313.043 30.2417 313.084 30.1585 313.125 30.075C313.442 29.425 313.7 28.7333 313.9 28H310.1C310.275 28.6417 310.495 29.2514 310.759 29.8293C310.797 29.9118 310.835 29.9937 310.875 30.075C311.152 30.6438 311.474 31.1934 311.84 31.7238C311.893 31.7996 311.946 31.875 312 31.95C312 31.95 312 31.95 312 31.95C312.183 31.6833 312.358 31.4125 312.525 31.1375C312.692 30.8625 312.85 30.5833 313 30.3V30.3244ZM314.35 26C314.4 25.6667 314.438 25.3375 314.462 25.0125C314.487 24.6875 314.5 24.35 314.5 24C314.5 23.65 314.488 23.3125 314.463 22.9875C314.438 22.6625 314.4 22.3333 314.35 22H309.65C309.6 22.3333 309.562 22.6625 309.538 22.9875C309.513 23.3125 309.5 23.65 309.5 24C309.5 24.3062 309.51 24.6029 309.529 24.89C309.531 24.9311 309.534 24.9719 309.538 25.0125C309.562 25.3375 309.6 25.6667 309.65 26H314.35ZM313.9 20C313.7 19.2667 313.442 18.575 313.125 17.925C312.808 17.275 312.433 16.65 312 16.05C311.817 16.3167 311.642 16.5875 311.475 16.8625C311.308 17.1375 311.15 17.4167 311 17.7V17.6756C310.957 17.7583 310.916 17.8415 310.875 17.925C310.558 18.575 310.3 19.2667 310.1 20H313.9ZM316.463 25C316.463 25.0042 316.463 25.0083 316.462 25.0125C316.438 25.3375 316.4 25.6667 316.35 26H319.75C319.833 25.6667 319.896 25.3375 319.938 25.0125C319.938 25.0083 319.939 25.0042 319.939 25H319.925C319.943 24.9121 319.957 24.8254 319.967 24.7398C319.989 24.4998 320 24.2532 320 24C320 23.65 319.979 23.3125 319.938 22.9875C319.896 22.6625 319.833 22.3333 319.75 22H316.35C316.394 22.2917 316.428 22.5801 316.453 22.8654C316.456 22.9062 316.459 22.9469 316.463 22.9875C316.488 23.3125 316.5 23.65 316.5 24V24.5125C316.5 24.6708 316.492 24.8333 316.475 25H316.463ZM308.05 20H305.1C305.583 19.1667 306.188 18.4417 306.912 17.825C307.638 17.2083 308.467 16.75 309.4 16.45C309.1 17 308.838 17.5708 308.613 18.1625C308.388 18.7542 308.2 19.3667 308.05 20ZM317.088 17.825C317.813 18.4417 318.417 19.1667 318.9 20H315.95C315.8 19.3667 315.613 18.7542 315.387 18.1625C315.373 18.1255 315.359 18.0886 315.345 18.0518C315.13 17.4996 314.881 16.9656 314.6 16.45C315.533 16.75 316.363 17.2083 317.088 17.825ZM315.95 28H318.9C318.417 28.8333 317.812 29.5583 317.087 30.175C316.362 30.7917 315.533 31.25 314.6 31.55C314.9 31 315.162 30.4292 315.387 29.8375C315.612 29.2458 315.8 28.6333 315.95 28Z" fill="#22C386"/>
<rect x="360" width="48" height="48" rx="8" fill="#657077" fill-opacity="0.1"/>
<path fill-rule="evenodd" clip-rule="evenodd" d="M378.286 14C377.023 14 376 15.1193 376 16.5V31.5C376 32.8807 377.023 34 378.286 34H389.714C390.977 34 392 32.8807 392 31.5V19.1389C392 18.8152 391.885 18.5042 391.68 18.2712L388.251 14.3823C388.036 14.138 387.739 14 387.429 14H378.286ZM378 16H387L390 19.3893V32H378V16ZM380 21H386V19H380V21ZM380 25H388V23H380V25ZM380 29H388V27H380V29Z" fill="#657077"/>
<defs>
<clipPath id="clip0_3893_28172">
<rect width="20" height="20" fill="white" transform="translate(14 14)"/>
</clipPath>
<clipPath id="clip1_3893_28172">
<rect width="20" height="20" fill="white" transform="translate(86 14)"/>
</clipPath>
</defs>
</svg>
