<svg width="72" height="65" viewBox="0 0 72 65" fill="none" xmlns="http://www.w3.org/2000/svg">
<path fill-rule="evenodd" clip-rule="evenodd" d="M27.649 5.57954H44.2166V24.7795H27.649V5.57954ZM49.1257 24.7795V5.57954H67.0909V24.7795H49.1257ZM22.7399 5.57954H4.90909V24.7795H22.7399V5.57954ZM0 0.779541H4.90909H67.0909H72V5.57954V24.7795V29.5795H67.0909H4.90909H0V24.7795V5.57954V0.779541ZM27.649 40.7795H44.2166V59.9795H27.649V40.7795ZM49.1257 59.9795V40.7795H67.0909V59.9795H49.1257ZM22.7399 40.7795H4.90909V59.9795H22.7399V40.7795ZM0 35.9795H4.90909H67.0909H72V40.7795V59.9795V64.7795H67.0909H4.90909H0V59.9795V40.7795V35.9795Z" fill="white"/>
</svg>
