<svg width="232" height="101" viewBox="0 0 232 101" fill="none" xmlns="http://www.w3.org/2000/svg">
<path d="M74.5591 44.5763C74.6391 46.735 73.9318 47.784 73.2921 49.6389L72.1417 50.2134C71.2013 52.0486 72.2351 51.3785 71.5617 52.8376C70.0918 54.1484 67.1078 56.9378 66.1522 57.1934C65.4538 57.1782 66.6247 56.366 66.7777 56.0488C64.8123 57.4034 65.2002 58.0824 62.1939 58.9071L62.1067 58.7096C54.6955 62.2121 44.3998 55.2724 44.5351 45.8049C44.4568 46.4053 44.31 46.2552 44.1463 46.4964C43.7637 41.626 46.3866 36.7341 50.8101 34.7336C55.1368 32.5838 60.209 33.4648 63.3061 36.3678C61.605 34.1287 58.2161 31.7547 54.2027 31.9745C50.2693 32.0388 46.5885 34.5486 45.3608 37.2747C43.3464 38.5479 43.1115 42.1853 42.2342 42.8519C41.0519 51.5724 44.4559 55.3385 50.215 59.7711C51.1189 60.3841 50.4695 60.4779 50.5905 60.9443C48.6776 60.0454 46.9266 58.6873 45.4853 57.0245C46.2505 58.1476 47.0751 59.2395 48.1419 60.0972C46.3368 59.4852 43.9266 55.7075 43.2245 55.5538C46.3341 61.1453 55.8388 65.3599 60.8184 63.2683C58.5141 63.354 55.5878 63.3156 53.0006 62.3551C51.9107 61.7931 50.4348 60.6307 50.6989 60.4135C57.4928 62.9609 64.5089 62.3417 70.3863 57.6106C71.8828 56.4402 73.5163 54.4504 73.9888 54.4235C73.2779 55.4975 74.1106 54.94 73.5643 55.888C75.052 53.4746 72.9157 54.9051 75.1035 51.7207L75.9115 52.8376C75.6089 50.8326 78.3892 48.4005 78.1063 45.2322C78.7442 44.2636 78.8172 46.2758 78.141 48.5041C79.0796 46.0318 78.3892 45.6342 78.6294 43.5935C78.8883 44.2797 79.2327 45.0079 79.4079 45.7325C78.7958 43.3424 80.0334 41.7091 80.3413 40.3197C80.037 40.1857 79.3973 41.3758 79.2496 38.5542C79.2718 37.3283 79.5903 37.9117 79.7122 37.6097C79.4738 37.4713 78.8448 36.5313 78.4631 34.7291C78.738 34.3047 79.2033 35.8272 79.5805 35.8889C79.3376 34.4566 78.9203 33.3639 78.9026 32.264C77.7993 29.9498 78.512 32.5731 77.6187 31.2704C76.4443 27.5946 78.5921 30.4171 78.738 28.7481C80.5157 31.3347 81.529 35.3465 81.9961 37.0075C81.6402 34.982 81.0663 33.019 80.3644 31.1203C80.9061 31.3499 79.4934 26.9539 81.0681 29.8649C79.3875 23.6596 73.8811 17.8608 68.8142 15.141C69.4326 15.7102 70.2146 16.425 69.9353 16.5376C67.4138 15.032 67.857 14.9132 67.4957 14.277C65.4449 13.438 65.3079 14.3458 63.951 14.2789C60.0808 12.2167 59.3353 12.4356 55.7738 11.1454L55.9357 11.9066C53.3725 11.0489 52.949 12.2301 50.1794 11.9085C50.0112 11.7771 51.0673 11.4296 51.9374 11.3036C49.4587 11.6324 49.5744 10.8122 47.149 11.3938C47.746 10.973 48.3795 10.6933 49.0165 10.3359C46.996 10.4592 44.1908 11.5171 45.0565 10.5539C41.7601 12.0318 35.905 14.1056 32.6193 17.1998L32.5161 16.5064C31.0107 18.3211 25.9509 21.9264 25.5479 24.2789L25.1448 24.3727C24.3628 25.7049 23.8548 27.2141 23.2338 28.5838C22.2097 30.3377 21.7319 29.2593 21.8779 29.5345C19.8627 33.6374 18.86 37.0845 17.9961 39.9133C18.6118 40.8381 18.0113 45.4816 18.2434 49.1976C17.2327 67.5536 31.0712 85.3744 46.198 89.488C48.4151 90.2859 51.7114 90.2573 54.5158 90.3359C51.2078 89.3853 50.7808 89.8329 47.5565 88.7044C45.2318 87.6036 44.7228 86.3483 43.0751 84.9124L43.7272 86.0695C40.4976 84.9214 41.8491 84.6488 39.2209 83.8134L39.9175 82.9012C38.8703 82.8208 37.1443 81.1303 36.6728 80.1912L35.5268 80.2368C34.1513 78.5338 33.4174 77.3034 33.4716 76.3501L33.1015 77.013C32.6824 76.2902 28.0382 70.6174 30.4475 71.938C30 71.5288 29.4048 71.2705 28.7598 70.092L29.25 69.53C28.0925 68.0316 27.1164 66.1115 27.1912 65.4717C27.8095 66.3098 28.2384 66.4671 28.6637 66.611C25.7356 59.3165 25.571 66.2098 23.3548 59.186L23.8228 59.1485C23.4642 58.6026 23.2444 58.0137 22.9562 57.4339L23.1609 55.3922C21.054 52.9476 22.5718 44.9875 22.877 40.6228C23.0861 38.8483 24.636 36.9585 25.813 33.9948L25.096 33.8715C26.4679 31.4698 32.9272 24.2226 35.9201 24.5943C37.3695 22.7662 35.6318 24.5872 35.348 24.1279C38.5322 20.8193 39.5332 21.7905 41.6819 21.1946C43.9977 19.8141 39.6933 21.7343 40.7912 20.6683C44.7976 19.6417 43.6294 18.3327 48.8546 17.8118C49.4063 18.1263 47.5761 18.2979 47.117 18.7062C50.4534 17.0657 57.6769 17.4401 62.371 19.6158C67.8134 22.1721 73.9318 29.7248 74.1738 36.8308L74.4488 36.9049C74.31 39.7301 74.8793 42.9977 73.8909 45.998L74.5591 44.5765" fill="#D70751"/>
<path d="M159.102 50.8467C159.102 54.9831 155.702 58.3004 151.555 58.3004C147.367 58.3004 144.008 54.9422 144.008 50.8467C144.008 46.7103 147.408 43.393 151.555 43.393C155.702 43.393 159.102 46.7512 159.102 50.8467ZM202.104 87.1325C204.177 90.6955 208.821 91.9242 212.429 89.8764C216.037 87.8287 217.281 83.2418 215.207 79.6787C213.134 76.1157 208.489 74.8871 204.882 76.9348C201.233 79.0235 199.989 83.5694 202.104 87.1325ZM215.166 22.0556C217.239 18.4926 216.037 13.9057 212.387 11.8579C208.78 9.81021 204.135 11.0388 202.062 14.6019C199.989 18.1649 201.233 22.7519 204.84 24.7996C208.448 26.8473 213.092 25.6187 215.166 22.0556ZM189.58 29.5913C200.859 29.5913 210.065 38.1098 211.06 49.0038L222.008 48.8399C221.469 40.7719 217.944 33.482 212.47 28.1169C209.568 29.2227 206.209 29.0589 203.306 27.4207C200.403 25.7825 198.579 22.9566 198.123 19.926C195.386 19.1888 192.566 18.8202 189.58 18.8202C184.397 18.8202 179.504 20.0079 175.191 22.1375L180.499 31.5571C183.277 30.2875 186.346 29.5913 189.58 29.5913ZM168.059 50.8467C168.059 43.6387 171.667 37.2907 177.223 33.441L171.584 24.1853C165.073 28.4445 160.263 34.9973 158.19 42.6967C160.595 44.6216 162.17 47.5703 162.17 50.8877C162.17 54.205 160.636 57.1537 158.19 59.0786C160.222 66.7371 165.073 73.2898 171.584 77.5901L177.182 68.3343C171.667 64.4436 168.059 58.0547 168.059 50.8467ZM189.58 72.1431C186.346 72.1431 183.277 71.4469 180.499 70.1773L175.191 79.5968C179.545 81.7265 184.438 82.9142 189.58 82.9142C192.525 82.9142 195.386 82.5456 198.123 81.8084C198.62 78.7777 200.403 75.9928 203.306 74.3137C206.209 72.6755 209.568 72.5117 212.47 73.6175C217.944 68.2524 221.469 61.0034 222.008 52.8944L211.06 52.7306C210.107 63.6245 200.859 72.1431 189.58 72.1431Z" fill="#E95420"/>
</svg>
