<svg width="100" height="101" viewBox="0 0 100 101" fill="none" xmlns="http://www.w3.org/2000/svg">
<path d="M54.5712 27.1865H44.4648V36.378H54.5712V27.1865Z" fill="white"/>
<path d="M54.5712 38.229H44.4648V47.3141H54.5712V38.229Z" fill="white"/>
<path d="M42.6347 27.1865H32.5283V36.378H42.6347V27.1865Z" fill="white"/>
<path d="M66.5282 38.2077H56.4219V47.2928H66.5282V38.2077Z" fill="white"/>
<path d="M54.5712 16.0801H44.4648V25.3567H54.5712V16.0801Z" fill="white"/>
<path d="M30.6777 27.1865H20.5713V36.378H30.6777V27.1865Z" fill="white"/>
<path d="M42.6347 38.2077H32.5283V47.2928H42.6347V38.2077Z" fill="white"/>
<path d="M96.8901 42.4843C94.6773 40.995 89.6135 40.4631 85.7199 41.2077C85.2092 37.5482 83.1667 34.3354 79.4433 31.4631L77.2943 30.0375L75.8688 32.1865C73.0603 36.4418 72.2943 43.4418 75.2943 48.0588C73.9539 48.7822 71.3582 49.7609 67.8901 49.6971H1.44326C0.102835 57.4631 2.33688 67.5482 8.16667 74.4843C13.8262 81.1865 22.3369 84.5907 33.4645 84.5907C57.5284 84.5907 75.3582 73.5056 83.6773 53.3567C86.9539 53.4205 94.0177 53.378 97.6348 46.4418C97.8688 46.0588 98.6348 44.4205 98.9326 43.8248L96.8901 42.4843Z" fill="white"/>
<path d="M18.7626 38.2077H18.7414H8.65625V47.2928H18.7626V38.2077Z" fill="white"/>
<path d="M30.6777 38.2077H20.5713V47.2928H30.6777V38.2077Z" fill="white"/>
</svg>
