<svg width="24" height="24" viewBox="0 0 24 24" fill="none" xmlns="http://www.w3.org/2000/svg">
<g clip-path="url(#clip0_33_27970)">
<path d="M9.5 8.5V3.5C9.5 2.94772 9.94772 2.5 10.5 2.5H18.0858C18.351 2.5 18.6054 2.60536 18.7929 2.79289L23.2071 7.20711C23.3946 7.39464 23.5 7.649 23.5 7.91421V20.5C23.5 21.0523 23.0523 21.5 22.5 21.5H16.5" stroke="#333333" stroke-linecap="round"/>
<path d="M5.5 8.5V3.5C5.5 2.94772 5.94772 2.5 6.5 2.5H8" stroke="#333333" stroke-linecap="round"/>
<path d="M1.5 8.5V3.5C1.5 2.94772 1.94772 2.5 2.5 2.5H4" stroke="#333333" stroke-linecap="round"/>
<path fill-rule="evenodd" clip-rule="evenodd" d="M17.5 4C17.7761 4 18 4.22386 18 4.5V8H21.5C21.7761 8 22 8.22386 22 8.5C22 8.77614 21.7761 9 21.5 9H17.5C17.2239 9 17 8.77614 17 8.5V4.5C17 4.22386 17.2239 4 17.5 4Z" fill="#444444"/>
<path d="M2 11.5H11C11.8284 11.5 12.5 12.1716 12.5 13V22C12.5 22.8284 11.8284 23.5 11 23.5H2C1.17157 23.5 0.5 22.8284 0.5 22V13C0.5 12.1716 1.17157 11.5 2 11.5Z" stroke="#FF6F3D"/>
<g clip-path="url(#clip1_33_27970)">
<path fill-rule="evenodd" clip-rule="evenodd" d="M6.50002 13C6.71947 13 6.91889 13.1276 7.01081 13.3269L7.98984 15.4494L10.311 15.7247C10.529 15.7505 10.712 15.9007 10.7798 16.1094C10.8476 16.3181 10.7878 16.5472 10.6267 16.6962L8.9106 18.2832L9.36614 20.5759C9.40891 20.7911 9.3226 21.0116 9.14506 21.1406C8.96752 21.2696 8.73117 21.2835 8.53968 21.1763L6.50002 20.0346L4.46037 21.1763C4.26887 21.2835 4.03253 21.2696 3.85499 21.1406C3.67745 21.0116 3.59114 20.7911 3.6339 20.5759L4.08945 18.2832L2.37333 16.6962C2.21221 16.5472 2.15245 16.3181 2.22027 16.1094C2.28808 15.9007 2.47108 15.7505 2.68901 15.7247L5.01021 15.4494L5.98924 13.3269C6.08116 13.1276 6.28057 13 6.50002 13ZM6.50002 14.9055L5.89989 16.2066C5.81795 16.3842 5.64961 16.5065 5.45534 16.5295L4.03248 16.6982L5.08444 17.6711C5.22806 17.8039 5.29237 18.0018 5.25424 18.1937L4.975 19.599L6.22527 18.8992C6.39598 18.8036 6.60407 18.8036 6.77477 18.8992L8.02505 19.599L7.74581 18.1937C7.70768 18.0018 7.77198 17.8039 7.91561 17.6711L8.96756 16.6982L7.54471 16.5295C7.35044 16.5065 7.18209 16.3842 7.10016 16.2066L6.50002 14.9055Z" fill="#FF6F3D"/>
</g>
</g>
<defs>
<clipPath id="clip0_33_27970">
<rect width="24" height="24" fill="white"/>
</clipPath>
<clipPath id="clip1_33_27970">
<rect width="9" height="9" fill="white" transform="translate(2 13)"/>
</clipPath>
</defs>
</svg>
