<svg width="2464" height="983" viewBox="0 0 2464 983" fill="none" xmlns="http://www.w3.org/2000/svg">
<g clip-path="url(#clip0_32_57594)">
<path opacity="0.8" fill-rule="evenodd" clip-rule="evenodd" d="M1410.31 -472.236L2258.56 -72.2531C2330.82 -37.334 2330.82 16.632 2258.56 48.3767L1410.31 448.36C1338.05 483.279 1221.81 483.279 1152.69 448.36L304.44 48.3768C232.182 13.4577 232.182 -40.5082 304.44 -72.2529L1152.69 -472.236C1224.95 -503.98 1341.19 -503.981 1410.31 -472.236Z" fill="white"/>
<path opacity="0.12" fill-rule="evenodd" clip-rule="evenodd" d="M1214.69 41.7759L1749.31 812.297C1794.43 878.667 1767.44 925.403 1688.99 916.765L754.397 839.035C674.36 833.147 573.691 775.026 531.294 710.227L-3.32206 -60.2944C-48.4402 -126.665 -21.4573 -173.4 56.9928 -164.763L991.591 -87.0326C1070.04 -78.3951 1170.71 -20.2742 1214.69 41.7759Z" fill="#CCCCCC"/>
</g>
<defs>
<clipPath id="clip0_32_57594">
<rect width="2464" height="983" fill="white"/>
</clipPath>
</defs>
</svg>
