<svg width="36" height="38" viewBox="0 0 36 38" fill="none" xmlns="http://www.w3.org/2000/svg">
<path d="M36 0H0.00124486V29.9615C-0.0225057 30.3366 0.293625 30.7079 0.947137 30.9803L15.7524 37.6056C17.0136 38.1315 19.0425 38.1315 20.2488 37.6056L35.0541 30.9803C35.6847 30.6911 36 30.323 36 29.9615V0Z" fill="#BBBBBB"/>
<path d="M36 0H0.00124486V29.9615C-0.0225057 30.3366 0.293625 30.7079 0.947137 30.9803L15.7524 37.6056C17.0136 38.1315 19.0425 38.1315 20.2488 37.6056L35.0541 30.9803C35.6847 30.6911 36 30.323 36 29.9615V0Z" fill="url(#paint0_linear_3598_11070)"/>
<mask id="mask0_3598_11070" style="mask-type:alpha" maskUnits="userSpaceOnUse" x="0" y="0" width="36" height="38">
<path d="M36 0H0.00124486V29.9615C-0.0225057 30.3366 0.293625 30.7079 0.947137 30.9803L15.7524 37.6056C17.0136 38.1315 19.0425 38.1315 20.2488 37.6056L35.0541 30.9803C35.6847 30.6911 36 30.323 36 29.9615V0Z" fill="#BBBBBB"/>
<path d="M36 0H0.00124486V29.9615C-0.0225057 30.3366 0.293625 30.7079 0.947137 30.9803L15.7524 37.6056C17.0136 38.1315 19.0425 38.1315 20.2488 37.6056L35.0541 30.9803C35.6847 30.6911 36 30.323 36 29.9615V0Z" fill="url(#paint1_linear_3598_11070)"/>
</mask>
<g mask="url(#mask0_3598_11070)">
<circle cx="12" cy="7" r="18" fill="url(#paint2_linear_3598_11070)" fill-opacity="0.4"/>
</g>
<g filter="url(#filter0_i_3598_11070)">
<path fill-rule="evenodd" clip-rule="evenodd" d="M1.00124 29.8743C1.05449 29.9172 1.15627 29.9841 1.33195 30.0573L1.34384 30.0623L16.1481 36.6872C16.6226 36.8825 17.3008 37 18.0212 37C18.7473 37 19.4071 36.8806 19.8452 36.6907C19.8466 36.6901 19.8479 36.6895 19.8493 36.6889L34.6372 30.0713C34.6386 30.0707 34.6399 30.0701 34.6412 30.0695C34.8378 29.9789 34.9469 29.8983 35 29.849V1H1.00124V29.8743ZM15.7524 37.6056L0.947137 30.9803C0.293625 30.7078 -0.0225057 30.3366 0.00124486 29.9615V0H36V29.9615C36 30.323 35.6847 30.6911 35.0541 30.9803L20.2488 37.6056C19.0425 38.1315 17.0136 38.1315 15.7524 37.6056Z" fill="url(#paint3_linear_3598_11070)" fill-opacity="0.39"/>
</g>
<rect x="1" y="1" width="34" height="1" fill="url(#paint4_linear_3598_11070)"/>
<path fill-rule="evenodd" clip-rule="evenodd" d="M16.751 27.46L8.52551 23.5467C7.82483 23.2051 7.82483 22.6771 8.52551 22.3665L11.3892 21L16.7205 23.5467C17.4212 23.8884 18.5484 23.8884 19.2186 23.5467L24.5499 21L27.4136 22.3665C28.1142 22.7082 28.1142 23.2362 27.4136 23.5467L19.1881 27.46C18.5484 27.7706 17.4212 27.7706 16.751 27.46Z" fill="url(#paint5_linear_3598_11070)"/>
<path fill-rule="evenodd" clip-rule="evenodd" d="M16.751 27.7671L8.52551 23.8538C7.82483 23.5122 7.82483 22.9842 8.52551 22.6736L11.3892 21.3071L16.7205 23.8538C17.4212 24.1954 18.5484 24.1954 19.2186 23.8538L24.5499 21.3071L27.4136 22.6736C28.1142 23.0152 28.1142 23.5432 27.4136 23.8538L19.1881 27.7671C18.5484 28.0776 17.4212 28.0776 16.751 27.7671Z" fill="url(#paint6_linear_3598_11070)"/>
<path fill-rule="evenodd" clip-rule="evenodd" d="M16.751 22.9527L8.52551 19.0394C7.82483 18.6978 7.82483 18.1698 8.52551 17.8592L11.3283 16.5238L16.751 19.1016C17.4516 19.4432 18.5788 19.4432 19.249 19.1016L24.6717 16.5238L27.4745 17.8592C28.1752 18.2009 28.1752 18.7289 27.4745 19.0394L19.249 22.9527C18.5484 23.2943 17.4212 23.2943 16.751 22.9527Z" fill="url(#paint7_linear_3598_11070)"/>
<path fill-rule="evenodd" clip-rule="evenodd" d="M16.751 18.263L8.52551 14.3497C7.82483 14.0081 7.82483 13.4801 8.52551 13.1695L16.751 9.25623C17.4516 8.91459 18.5788 8.91459 19.249 9.25623L27.4745 13.1695C28.1752 13.5111 28.1752 14.0391 27.4745 14.3497L19.249 18.263C18.5484 18.5735 17.4212 18.5735 16.751 18.263Z" fill="url(#paint8_linear_3598_11070)"/>
<path fill-rule="evenodd" clip-rule="evenodd" d="M16.3213 28.6701L8.08724 24.7527C7.62813 24.5288 7 24.0535 7 23.2521C7 22.4411 7.63746 21.9771 8.10584 21.7658L10.0143 20.8551L8.08724 19.9383C7.62813 19.7145 7 19.2392 7 18.4377C7 17.6266 7.63773 17.1625 8.10614 16.9514L9.88486 16.1038L8.08724 15.2486C7.62812 15.0247 7 14.5494 7 13.7479C7 12.9367 7.63801 12.4726 8.10645 12.2615L16.3175 8.35506C16.8383 8.10231 17.4525 8 18.0114 8C18.5647 8 19.176 8.10032 19.6896 8.3584L27.9128 12.2706C28.3719 12.4945 29 12.9698 29 13.7712C29 14.5825 28.362 15.0466 27.8936 15.2577L26.1151 16.1038L27.9128 16.9604C28.3719 17.1842 29 17.6595 29 18.461C29 19.2723 28.362 19.7364 27.8936 19.9475L25.9552 20.8696L27.8518 21.7747C28.3109 21.9986 28.9391 22.4739 28.9391 23.2753C28.9391 24.0866 28.3011 24.5507 27.8327 24.7618L19.6209 28.6686C19.1209 28.9102 18.5172 29 17.981 29C17.4403 29 16.8363 28.9088 16.3305 28.6744L16.3213 28.6701ZM27.4136 23.8538C28.1142 23.5432 28.1142 23.0152 27.4136 22.6736L24.5499 21.3071L19.2186 23.8538C18.5484 24.1954 17.4212 24.1954 16.7205 23.8538L11.3892 21.3071L8.52551 22.6736C7.82483 22.9842 7.82483 23.5122 8.52551 23.8538L16.751 27.7671C17.4212 28.0776 18.5484 28.0776 19.1881 27.7671L27.4136 23.8538ZM16.751 22.9527C16.8535 23.005 16.9667 23.0493 17.0875 23.0855C17.0897 23.0862 17.0919 23.0868 17.0941 23.0875C17.6202 23.2439 18.2874 23.2492 18.8361 23.1035C18.8433 23.1016 18.8504 23.0997 18.8574 23.0978C18.9975 23.0594 19.1295 23.011 19.249 22.9527L27.4745 19.0394C28.1752 18.7289 28.1752 18.2009 27.4745 17.8592L24.6717 16.5238L19.249 19.1016C18.5788 19.4432 17.4516 19.4432 16.751 19.1016L11.3283 16.5238L8.52551 17.8592C7.82483 18.1698 7.82483 18.6978 8.52551 19.0394L16.751 22.9527ZM27.4745 14.3497C28.1752 14.0391 28.1752 13.5111 27.4745 13.1695L19.249 9.25623C18.5788 8.91459 17.4516 8.91459 16.751 9.25623L8.52551 13.1695C7.82483 13.4801 7.82483 14.0081 8.52551 14.3497L16.751 18.263C16.8547 18.311 16.9693 18.3517 17.0917 18.3848C17.0942 18.3855 17.0968 18.3862 17.0994 18.3869C17.6404 18.5319 18.3294 18.5322 18.8852 18.3878C18.8925 18.3859 18.8998 18.384 18.907 18.382C19.0287 18.3494 19.1437 18.3097 19.249 18.263L27.4745 14.3497Z" fill="url(#paint9_linear_3598_11070)" style="mix-blend-mode:multiply"/>
<g style="mix-blend-mode:multiply" opacity="0.3">
<path fill-rule="evenodd" clip-rule="evenodd" d="M16.751 22.9289L8.52551 19.0157C7.82483 18.674 7.82483 18.1461 8.52551 17.8355L11.3283 16.5L16.751 19.0778C17.4516 19.4194 18.5788 19.4194 19.249 19.0778L24.6717 16.5L27.4745 17.8355C28.1752 18.1771 28.1752 18.7051 27.4745 19.0157L19.249 22.9289C18.5484 23.2706 17.4212 23.2706 16.751 22.9289Z" fill="url(#paint10_linear_3598_11070)"/>
</g>
<g style="mix-blend-mode:multiply" opacity="0.5">
<path fill-rule="evenodd" clip-rule="evenodd" d="M16.751 27.729L8.52551 23.8157C7.82483 23.4741 7.82483 22.9461 8.52551 22.6355L11.3283 21.3L16.751 23.8778C17.4516 24.2195 18.5788 24.2195 19.249 23.8778L24.6717 21.3L27.4745 22.6355C28.1752 22.9772 28.1752 23.5051 27.4745 23.8157L19.249 27.729C18.5484 28.0706 17.4212 28.0706 16.751 27.729Z" fill="url(#paint11_linear_3598_11070)"/>
</g>
<defs>
<filter id="filter0_i_3598_11070" x="0" y="0" width="36" height="38" filterUnits="userSpaceOnUse" color-interpolation-filters="sRGB">
<feFlood flood-opacity="0" result="BackgroundImageFix"/>
<feBlend mode="normal" in="SourceGraphic" in2="BackgroundImageFix" result="shape"/>
<feColorMatrix in="SourceAlpha" type="matrix" values="0 0 0 0 0 0 0 0 0 0 0 0 0 0 0 0 0 0 127 0" result="hardAlpha"/>
<feOffset dy="-1"/>
<feComposite in2="hardAlpha" operator="arithmetic" k2="-1" k3="1"/>
<feColorMatrix type="matrix" values="0 0 0 0 0.262745 0 0 0 0 0.298039 0 0 0 0 0.333333 0 0 0 0.7 0"/>
<feBlend mode="normal" in2="shape" result="effect1_innerShadow_3598_11070"/>
</filter>
<linearGradient id="paint0_linear_3598_11070" x1="18" y1="0" x2="18" y2="38" gradientUnits="userSpaceOnUse">
<stop stop-color="#EFF0F3"/>
<stop offset="0.598958" stop-color="#CCCED3"/>
<stop offset="1" stop-color="#BABCC1"/>
</linearGradient>
<linearGradient id="paint1_linear_3598_11070" x1="18" y1="0" x2="18" y2="38" gradientUnits="userSpaceOnUse">
<stop stop-color="#EFF0F3"/>
<stop offset="0.598958" stop-color="#CCCED3"/>
<stop offset="1" stop-color="#BABCC1"/>
</linearGradient>
<linearGradient id="paint2_linear_3598_11070" x1="23.5" y1="26.5" x2="0.500001" y2="1" gradientUnits="userSpaceOnUse">
<stop stop-color="#F0F1F5"/>
<stop offset="1" stop-color="#F0F1F5" stop-opacity="0.86"/>
</linearGradient>
<linearGradient id="paint3_linear_3598_11070" x1="0" y1="0" x2="6.34861e-07" y2="38" gradientUnits="userSpaceOnUse">
<stop stop-color="#4A4F57"/>
<stop offset="0.0474816" stop-color="#5E636A"/>
<stop offset="0.354167" stop-color="#DEE1E5"/>
<stop offset="1" stop-color="#414A54"/>
</linearGradient>
<linearGradient id="paint4_linear_3598_11070" x1="0.5" y1="2.00001" x2="35" y2="2.00001" gradientUnits="userSpaceOnUse">
<stop offset="0.015625" stop-color="#EBECEF"/>
<stop offset="0.520624" stop-color="white"/>
<stop offset="1" stop-color="#EAECEF"/>
</linearGradient>
<linearGradient id="paint5_linear_3598_11070" x1="18" y1="8.69312" x2="18" y2="27.6931" gradientUnits="userSpaceOnUse">
<stop stop-color="#EDEFF3"/>
<stop offset="1" stop-color="#BBBCC0"/>
</linearGradient>
<linearGradient id="paint6_linear_3598_11070" x1="18" y1="9" x2="18" y2="28" gradientUnits="userSpaceOnUse">
<stop stop-color="#EDEFF3"/>
<stop offset="1" stop-color="#BBBCC0"/>
</linearGradient>
<linearGradient id="paint7_linear_3598_11070" x1="18" y1="9" x2="18" y2="28" gradientUnits="userSpaceOnUse">
<stop stop-color="#EDEFF3"/>
<stop offset="1" stop-color="#BBBCC0"/>
</linearGradient>
<linearGradient id="paint8_linear_3598_11070" x1="18" y1="9" x2="18" y2="28" gradientUnits="userSpaceOnUse">
<stop stop-color="#EDEFF3"/>
<stop offset="1" stop-color="#BBBCC0"/>
</linearGradient>
<linearGradient id="paint9_linear_3598_11070" x1="18" y1="9" x2="25.5" y2="26.5" gradientUnits="userSpaceOnUse">
<stop stop-color="#AAACB4"/>
<stop offset="1" stop-color="#414953"/>
</linearGradient>
<linearGradient id="paint10_linear_3598_11070" x1="18" y1="8.97632" x2="18" y2="27.9763" gradientUnits="userSpaceOnUse">
<stop stop-color="#EDEFF3"/>
<stop offset="1" stop-color="#BBBCC0"/>
</linearGradient>
<linearGradient id="paint11_linear_3598_11070" x1="18" y1="13.7764" x2="18" y2="32.7764" gradientUnits="userSpaceOnUse">
<stop stop-color="#EDEFF3"/>
<stop offset="1" stop-color="#BBBCC0"/>
</linearGradient>
</defs>
</svg>
