<svg width="88" height="88" viewBox="0 0 88 88" fill="none" xmlns="http://www.w3.org/2000/svg">
<rect width="88" height="88" rx="9" fill="#F9F9F9"/>
<path d="M55.3135 44.1486L43.9999 32.835L32.6863 44.1486L43.9999 55.4621L55.3135 44.1486Z" fill="#0069B5"/>
<path d="M41.9042 12L32.6082 21.296L38.3362 27.024L53.3602 12H41.9042Z" fill="#003F85"/>
<path d="M45.9361 75.9999L55.2321 66.7039L49.6481 61.1199L34.7681 75.9999H45.9361Z" fill="#5696E8"/>
<path d="M21.2961 44.064L32.6721 32.688L26.9441 26.944L15.5521 38.336L12.0001 41.904V46.08L32.6081 66.704L38.2561 61.04L21.2961 44.064Z" fill="#003F85"/>
<path d="M55.3118 21.376L49.6478 27.024L66.7038 44.064L55.3758 55.392L61.0398 61.04L72.3519 49.728L75.9999 46.08V42.048L55.3118 21.376Z" fill="#5696E8"/>
</svg>
