<svg width="88" height="88" viewBox="0 0 88 88" fill="none" xmlns="http://www.w3.org/2000/svg">
<rect width="88" height="88" rx="9" fill="#F5F5F5"/>
<g clip-path="url(#clip0_85_12992)">
<path fill-rule="evenodd" clip-rule="evenodd" d="M35.1756 52.363L42.0788 45.5077H31.7044H31.6781C25.932 45.5077 21.2773 50.1301 21.2773 55.8363C21.2773 61.5425 25.932 66.1649 31.6781 66.1649C32.112 66.1649 32.5459 66.1388 32.9666 66.0866C30.6919 61.647 31.4282 56.0713 35.1625 52.363H35.1756Z" fill="#8BDC01"/>
<path fill-rule="evenodd" clip-rule="evenodd" d="M43.6034 55.824V46.1221L36.2663 53.4083L36.2532 53.4214C32.1902 57.4562 32.1902 63.9981 36.2532 68.0329C40.3162 72.0678 46.9038 72.0678 50.9668 68.0329C51.2692 67.7326 51.5585 67.4062 51.8215 67.0667C47.0484 65.5259 43.6034 61.0732 43.6034 55.8109V55.824Z" fill="#8BDC01"/>
<path fill-rule="evenodd" clip-rule="evenodd" d="M52.0174 52.3632L45.1143 45.5077V55.8236C45.1143 61.53 49.7689 66.1526 55.5149 66.1526C61.261 66.1526 65.9156 61.53 65.9156 55.8236C65.9156 55.3927 65.8893 54.9618 65.8367 54.5439C61.3662 56.803 55.7516 56.0717 52.0174 52.3632Z" fill="#8BDC01"/>
<path fill-rule="evenodd" clip-rule="evenodd" d="M67.7991 36.681C67.4967 36.3806 67.168 36.0934 66.8261 35.8322C65.2745 40.5721 60.7907 43.9931 55.4916 43.9931H45.7219L53.0591 51.2792L53.0722 51.2922C57.1353 55.327 63.7229 55.327 67.786 51.2922C71.849 47.2575 71.849 40.7157 67.786 36.681H67.7991Z" fill="#8BDC01"/>
<path fill-rule="evenodd" clip-rule="evenodd" d="M55.5018 21.8334C55.0679 21.8334 54.634 21.8595 54.2132 21.9117C56.4879 26.3515 55.7516 31.9274 52.0174 35.6359L45.1143 42.4914H55.5018C61.2478 42.4914 65.9025 37.8688 65.9025 32.1624C65.9025 26.456 61.2478 21.8334 55.5018 21.8334Z" fill="#FBA100"/>
<path fill-rule="evenodd" clip-rule="evenodd" d="M50.9413 19.9671C46.8784 15.9322 40.2908 15.9322 36.2278 19.9671C35.9254 20.2674 35.6361 20.5938 35.3732 20.9333C40.1462 22.4742 43.5912 26.9269 43.5912 32.1891V41.891L50.9282 34.6048L50.9413 34.5918C55.0043 30.5569 55.0043 24.015 50.9413 19.9801V19.9671Z" fill="#33AAFF"/>
<path fill-rule="evenodd" clip-rule="evenodd" d="M35.1878 35.6489L35.4902 35.9493L42.0779 42.4914H42.091V32.1885V32.1624C42.091 26.456 37.4362 21.8334 31.6901 21.8334C25.944 21.8334 21.2892 26.456 21.2892 32.1624C21.2892 32.5933 21.3155 33.0242 21.3681 33.4421C25.8388 31.183 31.4534 31.9274 35.2009 35.6359L35.1878 35.6489Z" fill="#33AAFF"/>
<path fill-rule="evenodd" clip-rule="evenodd" d="M20.395 52.0623C20.4739 51.8273 20.566 51.5792 20.658 51.3572C20.6712 51.3311 20.6843 51.2919 20.6975 51.2658C20.8026 51.0177 20.921 50.7696 21.0393 50.5345C21.0656 50.4823 21.0919 50.4301 21.1182 50.3778C21.2497 50.1428 21.3812 49.9077 21.5127 49.6727C21.5258 49.6466 21.539 49.6205 21.5653 49.6074C21.6968 49.3985 21.8414 49.1895 21.9861 48.9806C22.0124 48.9414 22.0518 48.9023 22.0781 48.85C22.2359 48.6411 22.4068 48.4322 22.5778 48.2232C22.6172 48.1841 22.6435 48.1449 22.683 48.1057C22.8539 47.9099 23.0248 47.727 23.2089 47.5442C23.2221 47.5312 23.2352 47.5051 23.2615 47.492C23.4587 47.2961 23.656 47.1133 23.8532 46.9436C23.8927 46.9044 23.9453 46.8652 23.9847 46.826C24.1951 46.6563 24.3923 46.4865 24.6159 46.3298C24.6422 46.3037 24.6685 46.2907 24.7079 46.2645C24.9051 46.1209 25.1155 45.9773 25.3259 45.8467C25.3653 45.8206 25.4048 45.7945 25.4574 45.7683C25.6809 45.6247 25.9176 45.4941 26.1543 45.3766C26.2069 45.3505 26.2595 45.3244 26.2989 45.2983C26.5356 45.1807 26.7723 45.0632 27.0221 44.9587C27.0353 44.9587 27.0484 44.9457 27.0616 44.9457C27.3114 44.8412 27.5744 44.7498 27.8374 44.6584C27.89 44.6453 27.9557 44.6192 28.0083 44.6062C28.2713 44.5278 28.5343 44.4495 28.7972 44.3711C28.8367 44.3581 28.8761 44.3581 28.9156 44.345C29.1654 44.2797 29.4152 44.2406 29.6651 44.1883C29.7177 44.1753 29.7571 44.1753 29.8097 44.1622C30.0858 44.123 30.362 44.0839 30.6381 44.0577C30.7038 44.0577 30.7564 44.0447 30.8222 44.0447C31.1115 44.0186 31.4007 44.0055 31.7032 44.0055H41.4729L34.1226 36.7061C30.0595 32.6711 23.4719 32.6711 19.4089 36.7061C15.3458 40.741 15.3458 47.2831 19.4089 51.318C19.7113 51.6183 20.04 51.9056 20.3687 52.1668C20.3819 52.1407 20.395 52.1015 20.4082 52.0754L20.395 52.0623Z" fill="#33AAFF"/>
<path fill-rule="evenodd" clip-rule="evenodd" d="M34.1386 36.707L39.9635 42.4916H32.1399L31.6929 42.5047C26.9329 42.5047 22.9094 39.3316 21.6865 34.9833C25.6444 32.7766 30.7593 33.3511 34.1254 36.6939L34.1386 36.707Z" fill="#017DFF"/>
<path fill-rule="evenodd" clip-rule="evenodd" d="M42.0787 32.1751V40.3491L36.543 34.8519L36.2274 34.5516C32.8613 31.2089 32.2828 26.1426 34.5049 22.2123C38.8835 23.4397 42.0787 27.4222 42.0787 32.1621V32.1882V32.1751Z" fill="#017DFF"/>
<path fill-rule="evenodd" clip-rule="evenodd" d="M50.9823 34.5654L45.1573 40.3499V32.5806L45.1442 32.1367C45.1442 27.4098 48.3394 23.4142 52.718 22.1998C54.9401 26.1302 54.3616 31.2096 50.9955 34.5523L50.9823 34.5654Z" fill="#017DFF"/>
<path fill-rule="evenodd" clip-rule="evenodd" d="M55.491 42.4783H47.2598L52.7955 36.9804L53.0979 36.667C56.464 33.3239 61.5658 32.7493 65.5237 34.9562C64.2877 39.3049 60.2772 42.4783 55.5042 42.4783H55.4779H55.491Z" fill="#FFE912"/>
<path fill-rule="evenodd" clip-rule="evenodd" d="M53.0688 51.2533L47.2438 45.4681H55.0675L55.5146 45.455C60.2745 45.455 64.2982 48.6284 65.521 52.9771C61.5632 55.184 56.4482 54.6094 53.082 51.2663L53.0688 51.2533Z" fill="#47B41B"/>
<path fill-rule="evenodd" clip-rule="evenodd" d="M45.1271 55.771V47.5966L50.6628 53.0941L50.9784 53.3944C54.3446 56.7373 54.9232 61.8038 52.701 65.7343C48.3223 64.5068 45.1271 60.5241 45.1271 55.784V55.7579V55.771Z" fill="#47B41B"/>
<path fill-rule="evenodd" clip-rule="evenodd" d="M36.2913 53.4342L42.1162 47.6499V55.4188L42.1294 55.8628C42.1294 60.5894 38.9342 64.5848 34.5556 65.7991C32.3334 61.869 32.912 56.7898 36.2781 53.4472L36.2913 53.4342Z" fill="#47B41B"/>
<path fill-rule="evenodd" clip-rule="evenodd" d="M31.7296 45.52H39.9608L34.4251 51.0179L34.1227 51.3313C30.7565 54.6744 25.6547 55.249 21.6969 53.0421C22.9329 48.6934 26.9433 45.52 31.7164 45.52H31.7427H31.7296Z" fill="#47B41B"/>
</g>
<defs>
<clipPath id="clip0_85_12992">
<rect width="56" height="56" fill="white" transform="translate(16 16)"/>
</clipPath>
</defs>
</svg>
