<svg width="88" height="88" viewBox="0 0 88 88" fill="none" xmlns="http://www.w3.org/2000/svg">
<rect width="88" height="88" rx="9" fill="#0071F7"/>
<g clip-path="url(#clip0_89_13339)">
<path d="M74.7099 57.5595C75.4903 58.6908 75.3339 60.1454 74.3976 60.9534C73.3048 61.7615 71.7438 61.5999 70.9633 60.6302L65.4998 53.3574L60.1925 60.4686C59.4121 61.5999 57.8511 61.5999 56.7584 60.7918C55.6657 59.9837 55.5096 58.5292 56.2901 57.3979L62.534 48.9938L56.2901 40.5898C55.5096 39.4585 55.8218 37.8423 56.7584 37.0342C57.8511 36.2261 59.4121 36.5494 60.1925 37.5191L65.4998 44.7918L70.9633 37.8423C71.7438 36.711 73.1484 36.5494 74.3976 37.3574C75.4903 38.1656 75.4903 39.7817 74.7099 40.913L68.6218 49.1554L74.7099 57.5595ZM46.2998 56.5898C42.2414 56.5898 38.9633 53.3574 38.9633 49.1554C38.9633 45.115 42.2414 41.7211 46.2998 41.7211C50.3584 41.7211 53.6364 45.115 53.6364 49.1554C53.4804 53.3574 50.2023 56.5898 46.2998 56.5898ZM24.7584 56.5898C20.6998 56.5898 17.4218 53.3574 17.4218 49.1554C17.4218 45.115 20.6998 41.7211 24.7584 41.7211C28.8169 41.7211 32.095 45.115 32.095 49.1554C32.095 53.3574 28.8169 56.5898 24.7584 56.5898ZM46.2998 36.8726C41.773 36.8726 37.7145 39.4585 35.6853 43.3372C33.656 39.4585 29.5974 36.8726 24.9145 36.8726C22.1048 36.8726 19.6072 37.8423 17.5779 39.2969V28.9534C17.5779 27.6605 16.4852 26.5292 15.2365 26.5292C13.8316 26.5292 12.7389 27.6605 12.7389 28.9534V49.317C12.895 56.1049 18.2023 61.4383 24.7584 61.4383C29.4414 61.4383 33.4998 58.6908 35.5291 54.812C37.5584 58.6908 41.6169 61.4383 46.1438 61.4383C52.856 61.4383 58.3194 55.9433 58.3194 48.9938C58.4755 42.3676 53.0121 36.8726 46.2998 36.8726Z" fill="white"/>
</g>
<defs>
<clipPath id="clip0_89_13339">
<rect width="64" height="64" fill="white" transform="translate(12 12)"/>
</clipPath>
</defs>
</svg>
