<svg width="88" height="88" viewBox="0 0 88 88" fill="none" xmlns="http://www.w3.org/2000/svg">
<rect width="88" height="88" rx="9" fill="#F5F5F5"/>
<circle cx="44" cy="44" r="31.5" fill="#D32E2E" stroke="white"/>
<path fill-rule="evenodd" clip-rule="evenodd" d="M41.4283 64C41.4283 47.6 41.4283 37.856 37.1426 25.0534C40.9998 23.8559 46.1426 23.456 51.714 25.0534C47.8569 37.856 47.4049 47.4777 46.9997 64H41.4283ZM35.0005 64.0006C34.1434 50.8006 32.0005 44.0005 26.8576 34.8005C28.1434 33.6005 31.5719 31.2005 33.7148 30.4005C36.7148 36.0005 39.2862 49.2005 39.2862 64.0006H35.0005ZM61.5714 34.8005C56.4286 44.0005 54.2857 50.8006 53.4286 64.0006H49.1429C49.1429 49.2005 51.7143 36.0005 54.7143 30.4005C56.8572 31.2005 60.2857 33.6005 61.5714 34.8005ZM59.1471 64.0002C59.7048 58.0986 63.4375 50.6232 67.9998 47.8691C67.1703 45.9019 64.6818 41.574 63.4375 40.0002C59.2901 44.3281 55.9721 52.5904 55.1426 64.0002H59.1471ZM19.9998 47.8691C24.562 50.6232 28.2947 58.0986 28.8524 64.0002H32.8569C32.0274 52.5904 28.7094 44.3281 24.562 40.0002C23.3177 41.574 20.8292 45.9019 19.9998 47.8691Z" fill="white"/>
</svg>
