<svg width="88" height="88" viewBox="0 0 88 88" fill="none" xmlns="http://www.w3.org/2000/svg">
<rect width="88" height="88" rx="9" fill="#F47F29"/>
<path d="M62.3115 45.4438C62.3115 41.7617 60.7906 39.9207 57.8249 39.9207C54.8592 39.9207 53.3384 41.7617 53.3384 45.4438V62.9335H44.4413V45.4438C44.4413 41.7617 42.9964 39.9207 40.0307 39.9207C37.0651 39.9207 35.5442 41.7617 35.5442 45.4438V62.9335H26.7231V44.4466C26.7231 40.6111 28.0159 37.7728 30.6774 35.7784C32.9587 34.0141 36.1525 33.1703 40.0307 33.1703C44.061 33.1703 46.9507 34.1675 48.8518 36.2387C50.4487 34.1675 53.4144 33.1703 57.7489 33.1703C61.7031 33.1703 64.8209 34.0141 67.1022 35.7784C69.7637 37.7728 71.0565 40.6111 71.0565 44.4466V63.0102H62.3115V45.4438Z" fill="white"/>
<path d="M29.3229 38.2545L28.3861 42.9401C36.9735 45.8295 45.0924 43.0182 49.3861 35.5212C43.0627 31.148 37.2077 35.5993 29.3229 38.2545Z" fill="#58595B"/>
<path d="M29.3338 37.1475C29.0144 38.9847 28.7748 40.7422 28.4554 42.5794C36.8395 45.4552 45.0638 42.9788 49.4554 35.4699C43.8661 28.9995 37.638 34.3516 29.3338 37.1475Z" fill="url(#paint0_linear_85_12991)"/>
<path d="M39.5463 39.25C35.7315 38.4549 31.5989 40.4427 28.7378 42.5099C26.9099 29.1522 35.1752 29.4703 45.9836 32.8097C45.2684 36.0696 44.0763 40.4427 42.01 43.0665C41.9305 41.3173 41.1357 40.1246 39.5463 39.25Z" fill="url(#paint1_linear_85_12991)"/>
<path d="M17.25 37.1292C31.3667 28.6234 39.3073 27.0185 55.75 25.3334C36.6604 40.4192 36.1792 37.1292 17.25 37.1292Z" fill="url(#paint2_linear_85_12991)"/>
<path d="M54.2012 25.415L39.0345 36.4133" stroke="#4A4A4C" stroke-width="0.5"/>
<path opacity="0.23" d="M37.5604 30.825C37.5602 30.8236 37.5605 30.8265 37.5604 30.825V30.825Z" fill="#231F20"/>
<path d="M18.3334 37.1916L41.6667 36.4696" stroke="#A8ABAD" stroke-width="0.5"/>
<path d="M37.5273 31.4664C33.523 32.5881 20.3889 35.4724 20.2287 37.1549C19.8283 40.2796 20.1487 45.247 20.1487 45.247" stroke="#F16922" stroke-width="0.5"/>
<path d="M21.7014 51.7115C20.8977 49.702 19.9155 47.4693 21.0763 44.7007C21.8353 47.2907 21.7014 49.2555 21.7014 51.7115Z" fill="#F16922"/>
<path d="M35.9437 31.4884C36.2472 31.3803 36.4493 31.1693 36.3951 31.0172C36.3409 30.865 36.051 30.8294 35.7475 30.9375C35.444 31.0456 35.2419 31.2566 35.2961 31.4088C35.3503 31.5609 35.6403 31.5966 35.9437 31.4884Z" fill="#6D6E70"/>
<defs>
<linearGradient id="paint0_linear_85_12991" x1="28.4459" y1="38.0877" x2="49.4147" y2="38.0877" gradientUnits="userSpaceOnUse">
<stop stop-color="#929497"/>
<stop offset="0.1245" stop-color="#757578"/>
<stop offset="0.2792" stop-color="#575658"/>
<stop offset="0.4403" stop-color="#403E3F"/>
<stop offset="0.6085" stop-color="#302D2E"/>
<stop offset="0.7884" stop-color="#262223"/>
<stop offset="1" stop-color="#231F20"/>
</linearGradient>
<linearGradient id="paint1_linear_85_12991" x1="32.7266" y1="31.0692" x2="41.397" y2="43.4468" gradientUnits="userSpaceOnUse">
<stop stop-color="#231F20"/>
<stop offset="1" stop-color="#231F20" stop-opacity="0"/>
</linearGradient>
<linearGradient id="paint2_linear_85_12991" x1="17.2235" y1="31.4223" x2="55.7227" y2="31.4223" gradientUnits="userSpaceOnUse">
<stop stop-color="#929497"/>
<stop offset="0.1245" stop-color="#757578"/>
<stop offset="0.2792" stop-color="#575658"/>
<stop offset="0.4403" stop-color="#403E3F"/>
<stop offset="0.6085" stop-color="#302D2E"/>
<stop offset="0.7884" stop-color="#262223"/>
<stop offset="1" stop-color="#231F20"/>
</linearGradient>
</defs>
</svg>
