<svg width="88" height="88" viewBox="0 0 88 88" fill="none" xmlns="http://www.w3.org/2000/svg">
<rect width="88" height="88" rx="9" fill="#F5F5F5"/>
<path d="M62.3115 45.4439C62.3115 41.7619 60.7906 39.9208 57.8249 39.9208C54.8592 39.9208 53.3384 41.7619 53.3384 45.4439V62.9336H44.4413V45.4439C44.4413 41.7619 42.9964 39.9208 40.0307 39.9208C37.0651 39.9208 35.5442 41.7619 35.5442 45.4439V62.9336H26.7231V44.4467C26.7231 40.6112 28.0159 37.773 30.6774 35.7785C32.9587 34.0142 36.1525 33.1704 40.0307 33.1704C44.061 33.1704 46.9507 34.1676 48.8518 36.2388C50.4487 34.1676 53.4144 33.1704 57.7489 33.1704C61.7031 33.1704 64.8209 34.0142 67.1022 35.7785C69.7637 37.773 71.0565 40.6112 71.0565 44.4467V63.0103H62.3115V45.4439Z" fill="#F47F29"/>
<path d="M29.3229 38.2544L28.3861 42.9399C36.9735 45.8294 45.0924 43.018 49.3861 35.5211C43.0627 31.1479 37.2077 35.5992 29.3229 38.2544Z" fill="#58595B"/>
<path d="M29.3338 37.1475C29.0144 38.9847 28.7748 40.7422 28.4554 42.5794C36.8395 45.4552 45.0638 42.9788 49.4554 35.4699C43.8661 28.9995 37.638 34.3516 29.3338 37.1475Z" fill="url(#paint0_linear_96_13830)"/>
<path d="M39.5463 39.2499C35.7315 38.4548 31.5989 40.4426 28.7378 42.5098C26.9099 29.1521 35.1752 29.4702 45.9836 32.8096C45.2684 36.0695 44.0763 40.4426 42.01 43.0664C41.9305 41.3172 41.1357 40.1245 39.5463 39.2499Z" fill="url(#paint1_linear_96_13830)"/>
<path d="M17.25 37.1291C31.3667 28.6232 39.3073 27.0184 55.75 25.3333C36.6604 40.4191 36.1792 37.1291 17.25 37.1291Z" fill="url(#paint2_linear_96_13830)"/>
<path d="M54.2012 25.415L39.0345 36.4133" stroke="#4A4A4C" stroke-width="0.5"/>
<path opacity="0.23" d="M37.5604 30.8251C37.5602 30.8237 37.5605 30.8266 37.5604 30.8251V30.8251Z" fill="#231F20"/>
<path d="M18.3334 37.1918L41.6667 36.4697" stroke="#A8ABAD" stroke-width="0.5"/>
<path d="M37.5273 31.4666C33.523 32.5882 20.3889 35.4725 20.2287 37.155C19.8283 40.2797 20.1487 45.2471 20.1487 45.2471" stroke="#F16922" stroke-width="0.5"/>
<path d="M21.7014 51.7115C20.8977 49.702 19.9155 47.4693 21.0763 44.7007C21.8353 47.2907 21.7014 49.2555 21.7014 51.7115Z" fill="#F16922"/>
<path d="M35.9437 31.4884C36.2472 31.3803 36.4493 31.1693 36.3951 31.0172C36.3409 30.865 36.051 30.8294 35.7475 30.9375C35.444 31.0456 35.2419 31.2566 35.2961 31.4088C35.3503 31.5609 35.6403 31.5966 35.9437 31.4884Z" fill="#6D6E70"/>
<defs>
<linearGradient id="paint0_linear_96_13830" x1="28.4459" y1="38.0877" x2="49.4147" y2="38.0877" gradientUnits="userSpaceOnUse">
<stop stop-color="#929497"/>
<stop offset="0.1245" stop-color="#757578"/>
<stop offset="0.2792" stop-color="#575658"/>
<stop offset="0.4403" stop-color="#403E3F"/>
<stop offset="0.6085" stop-color="#302D2E"/>
<stop offset="0.7884" stop-color="#262223"/>
<stop offset="1" stop-color="#231F20"/>
</linearGradient>
<linearGradient id="paint1_linear_96_13830" x1="32.7266" y1="31.0691" x2="41.397" y2="43.4467" gradientUnits="userSpaceOnUse">
<stop stop-color="#231F20"/>
<stop offset="1" stop-color="#231F20" stop-opacity="0"/>
</linearGradient>
<linearGradient id="paint2_linear_96_13830" x1="17.2235" y1="31.4222" x2="55.7227" y2="31.4222" gradientUnits="userSpaceOnUse">
<stop stop-color="#929497"/>
<stop offset="0.1245" stop-color="#757578"/>
<stop offset="0.2792" stop-color="#575658"/>
<stop offset="0.4403" stop-color="#403E3F"/>
<stop offset="0.6085" stop-color="#302D2E"/>
<stop offset="0.7884" stop-color="#262223"/>
<stop offset="1" stop-color="#231F20"/>
</linearGradient>
</defs>
</svg>
