<svg width="88" height="88" viewBox="0 0 88 88" fill="none" xmlns="http://www.w3.org/2000/svg">
<rect width="88" height="88" rx="9" fill="#1C1C73"/>
<mask id="mask0_97_13929" style="mask-type:luminance" maskUnits="userSpaceOnUse" x="8" y="32" width="72" height="24">
<path d="M79.7539 32H8.677V56H79.7539V32Z" fill="white"/>
</mask>
<g mask="url(#mask0_97_13929)">
<path d="M21.2381 56C18.0641 56 15.2655 55.2182 13.1391 53.7329C10.6375 51.9818 9.13647 49.3706 8.69869 45.9622C8.38599 43.5856 11.5443 38.6606 12.3886 37.488C11.9664 37.1127 11.2472 36.1902 11.044 35.3147C10.8876 34.6111 11.0752 34.0013 11.5756 33.5479C11.685 33.4384 12.7951 32.3909 15.1248 32.0156C15.2029 32 15.2967 32 15.3749 32C16.0316 32 16.3443 32.4847 16.5163 32.7818L16.5945 32.9225C16.7977 33.2508 17.2042 33.8762 17.3137 34.4235C17.986 34.2358 19.7527 33.798 22.0824 33.798C24.0993 33.798 26.0224 34.1264 27.8049 34.7674C27.9612 34.142 28.4616 32.5785 29.384 32.2033C29.4622 32.172 29.5717 32.1564 29.6968 32.1564C30.5567 32.1564 33.4023 32.9694 34.1215 34.5016C34.3404 34.9707 34.4499 35.7212 33.6993 36.6124C33.0426 37.3941 32.6049 37.8007 32.3548 38.0039C32.8864 38.6919 34.5905 41.0997 34.8251 44.4926C35.3098 51.3251 31.9951 52.9824 30.0251 53.9674C27.4453 55.2651 24.2557 56 21.2381 56Z" fill="white"/>
<path d="M30.1032 37.5656C23.6459 33.1565 16.9228 35.5799 14.7339 37.0965C12.2322 38.8164 10.6687 42.5532 10.3716 44.6327C10.184 45.993 9.77751 52.763 19.3149 54.3734C20.8629 54.6393 29.3997 54.4672 32.4954 49.9643C33.2459 48.8854 34.3403 40.4581 30.1032 37.5656Z" fill="#1C1C73"/>
<path d="M21.9573 52.2323C20.8315 52.2323 19.4869 51.8727 18.0328 50.7313L18.7208 49.8714C20.253 51.0909 21.8165 51.4349 23.3331 50.9033C24.4745 50.5124 25.1781 49.762 25.1781 49.762L25.9911 50.5124C25.9599 50.5437 25.0999 51.4661 23.6928 51.9509C23.2081 52.1072 22.6296 52.2323 21.9573 52.2323Z" fill="white"/>
<path d="M17.2041 48.8246L18.0797 50.0286C18.1578 50.138 18.0484 50.2787 17.9233 50.2474L16.5005 49.8096C16.094 49.6845 15.922 49.1842 16.1722 48.8246C16.4223 48.4807 16.9539 48.4807 17.2041 48.8246Z" fill="white"/>
<path d="M16.4849 50.497L17.939 50.1374C18.064 50.1062 18.1579 50.2624 18.0797 50.3563L17.126 51.5133C16.8445 51.8416 16.3286 51.8103 16.094 51.4507C15.8595 51.0912 16.0628 50.6065 16.4849 50.497Z" fill="white"/>
<path d="M19.6276 50.7167L18.1891 50.3257C18.0641 50.2944 18.0485 50.1069 18.1735 50.06L19.5651 49.4971C19.9716 49.3407 20.4093 49.6065 20.4406 50.0443C20.4563 50.4821 20.0498 50.826 19.6276 50.7167Z" fill="white"/>
<path d="M19.0959 48.9342L18.2359 50.1537C18.1578 50.2632 17.9858 50.2163 17.9858 50.0755L17.9389 48.5746C17.9232 48.1368 18.3453 47.8241 18.7519 47.9492C19.1741 48.0743 19.346 48.5746 19.0959 48.9342Z" fill="white"/>
<path d="M18.0797 51.8261L18.0171 50.3407C18.0171 50.2 18.1735 50.1374 18.2672 50.2469L19.221 51.4039C19.5024 51.7322 19.3617 52.2482 18.9552 52.4046C18.5331 52.5453 18.0953 52.2638 18.0797 51.8261Z" fill="white"/>
<path d="M18.7052 52.5454C18.5644 52.5454 18.4237 52.4984 18.2987 52.4203C18.0954 52.2796 17.9703 52.0763 17.9546 51.8261L17.9077 50.7317L17.2042 51.5916C17.0478 51.7793 16.8289 51.873 16.5788 51.8574C16.3442 51.8417 16.1253 51.7167 16.0003 51.5134C15.8752 51.3102 15.8439 51.06 15.9377 50.8411C16.0315 50.6223 16.2192 50.4503 16.4537 50.3877L17.3136 50.1689L16.4693 49.903C16.2348 49.8248 16.0628 49.6529 15.9846 49.434C15.9065 49.1994 15.9377 48.9649 16.0784 48.7616C16.2192 48.5584 16.4381 48.449 16.6882 48.449C16.9384 48.449 17.1573 48.5584 17.2979 48.7616L17.8608 49.5434L17.8295 48.5897C17.8295 48.3395 17.9234 48.1206 18.1267 47.9799C18.3143 47.8392 18.5644 47.7923 18.799 47.8548C19.0335 47.9174 19.2055 48.0893 19.2837 48.3239C19.3619 48.5584 19.3306 48.7929 19.1899 48.9962L18.6583 49.7623L19.5182 49.4027C19.7371 49.3089 19.9872 49.3401 20.1905 49.4653C20.3938 49.5904 20.5188 49.8092 20.5344 50.0438C20.5501 50.2939 20.4563 50.5128 20.2687 50.6692C20.081 50.8255 19.8309 50.8724 19.5963 50.8098L18.6583 50.5597L19.2837 51.3102C19.44 51.4978 19.4869 51.7324 19.4243 51.9669C19.3619 52.2014 19.2055 52.389 18.9709 52.4672C18.8927 52.5297 18.799 52.5454 18.7052 52.5454ZM18.0172 50.3251C18.0328 50.3251 18.0328 50.3251 18.0485 50.3251C18.0954 50.3408 18.1267 50.3721 18.1267 50.419L18.1892 51.8105C18.2049 51.9825 18.283 52.1389 18.4237 52.2327C18.5644 52.3265 18.7365 52.3421 18.9084 52.2796C19.0648 52.2171 19.1899 52.092 19.2211 51.9199C19.268 51.748 19.2211 51.5916 19.1117 51.4509L18.2674 50.4346C18.2361 50.4033 18.2361 50.3408 18.2518 50.3095C18.283 50.2626 18.3299 50.247 18.3768 50.2626L19.6433 50.591C19.8153 50.6379 19.9872 50.591 20.1123 50.4815C20.2374 50.3721 20.3156 50.2157 20.3 50.0438C20.2843 49.8717 20.2061 49.731 20.0498 49.6373C19.9091 49.5434 19.7371 49.5278 19.5807 49.5904L18.3611 50.0907C18.3143 50.1063 18.2674 50.0907 18.2361 50.0594C18.2049 50.0281 18.2049 49.9656 18.2361 49.9343L18.9866 48.8711C19.0804 48.7304 19.1117 48.5584 19.0491 48.4021C18.9866 48.2457 18.8615 48.1206 18.7052 48.0737C18.5488 48.0268 18.3768 48.0581 18.2361 48.1675C18.0954 48.277 18.0328 48.4333 18.0328 48.6053L18.0798 49.9187C18.0798 49.9656 18.0485 50.0125 18.0016 50.0281C17.9546 50.0438 17.9077 50.0281 17.8765 49.9812L17.1104 48.918C17.0166 48.7773 16.8602 48.6991 16.6882 48.6991C16.5162 48.6991 16.3599 48.7773 16.2661 48.918C16.1723 49.0588 16.141 49.2307 16.1879 49.3871C16.2348 49.5434 16.3599 49.6685 16.5319 49.7154L17.7515 50.0907C17.7983 50.1063 17.8295 50.1532 17.8295 50.2001C17.8295 50.247 17.7983 50.2939 17.7515 50.3095L16.5006 50.6223C16.3286 50.6692 16.2035 50.7786 16.141 50.9349C16.0784 51.0913 16.0941 51.2633 16.1879 51.4196C16.2817 51.5604 16.4224 51.6542 16.5944 51.6698C16.7664 51.6855 16.9227 51.6073 17.0322 51.4822L17.9234 50.4033C17.939 50.3408 17.9703 50.3251 18.0172 50.3251Z" fill="#1C1C73"/>
<path d="M27.2265 45.0549C27.9691 45.0549 28.5712 44.5649 28.5712 43.9605C28.5712 43.3559 27.9691 42.866 27.2265 42.866C26.4839 42.866 25.882 43.3559 25.882 43.9605C25.882 44.5649 26.4839 45.0549 27.2265 45.0549Z" fill="white"/>
<path d="M14.046 44.0556L14.3431 45.1188C14.906 44.384 17.4702 41.773 19.2525 45.6348L19.7685 44.7123C19.7685 44.728 17.8923 39.5215 14.046 44.0556Z" fill="white"/>
<path d="M20.7378 47.4165H23.8336L22.2857 49.0894L20.7378 47.4165Z" fill="white"/>
<path d="M27.2268 47.276C25.1316 47.276 23.4274 45.7907 23.4274 43.9614C23.4274 42.1321 25.1316 40.6467 27.2268 40.6467C29.3219 40.6467 31.026 42.1321 31.026 43.9614C31.026 45.7907 29.3219 47.276 27.2268 47.276ZM27.2268 41.7568C25.7413 41.7568 24.5375 42.7418 24.5375 43.9614C24.5375 45.1809 25.7413 46.1659 27.2268 46.1659C28.7121 46.1659 29.916 45.1809 29.916 43.9614C29.9316 42.7418 28.7121 41.7568 27.2268 41.7568Z" fill="white"/>
<path d="M56.0575 55.3444C55.6667 55.3444 55.3383 55.2036 55.0725 54.9534C54.8067 54.6877 54.6816 54.3594 54.6816 53.9684V43.9932C54.6816 42.0388 53.9781 40.3658 52.6178 39.0212C51.2419 37.6297 49.5689 36.9261 47.6302 36.9261C45.707 36.9261 44.0184 37.6297 42.6425 39.0212C41.251 40.3971 40.5787 42.0232 40.5787 43.9932V53.9528C40.5787 54.3437 40.438 54.672 40.1879 54.9378C39.922 55.2036 39.5937 55.3287 39.2028 55.3287C38.8119 55.3287 38.4836 55.188 38.2178 54.9378C37.952 54.672 37.8269 54.3437 37.8269 53.9528V35.5502C37.8269 35.175 37.9676 34.831 38.2178 34.5652C38.4836 34.2994 38.8119 34.1743 39.2028 34.1743C39.5937 34.1743 39.922 34.315 40.1879 34.5652C40.4536 34.831 40.5787 35.1593 40.5787 35.5502V37.145C42.7676 35.175 45.1441 34.1743 47.6302 34.1743C50.3351 34.1743 52.6647 35.1437 54.5722 37.0512C56.4953 38.9587 57.4647 41.3039 57.4647 44.0088V53.9684C57.4647 54.375 57.324 54.6877 57.0425 54.9534C56.7612 55.2193 56.4484 55.3444 56.0575 55.3444Z" fill="white"/>
<path d="M69.285 55.0936C67.6277 55.0936 66.0017 54.6715 64.4382 53.8585C61.8739 52.5138 60.1229 50.4187 59.2472 47.6356C58.3873 44.8526 58.6374 42.1321 59.9821 39.5679C61.3267 37.0038 63.4218 35.2526 66.2049 34.377C67.2993 34.0487 68.3782 33.8767 69.4257 33.8767C71.0831 33.8767 72.7091 34.2989 74.2726 35.1119C76.8368 36.4565 78.588 38.5516 79.4635 41.3347C79.573 41.7255 79.5417 42.0696 79.3698 42.3979C79.2134 42.7262 78.9319 42.9607 78.5567 43.0702L62.3899 48.1047C63.2499 49.5901 64.3756 50.7002 65.7358 51.4037C66.9085 52.0135 68.1124 52.3263 69.3319 52.3263C70.1137 52.3263 70.9111 52.2012 71.7085 51.951C72.6309 51.6696 73.4597 51.2474 74.1632 50.7002C74.8668 50.153 75.4766 49.4806 75.9613 48.7145C76.1176 48.4487 76.3678 48.2611 76.6805 48.1672C76.8212 48.1203 76.9619 48.1047 77.1026 48.1047C77.3215 48.1047 77.5248 48.1516 77.7281 48.2611C78.0876 48.4644 78.3066 48.7301 78.4159 49.0898C78.5254 49.465 78.5098 49.8089 78.3535 50.1061V50.1217V50.1373C76.9775 52.3418 75.0232 53.8585 72.5371 54.6246C71.4114 54.9217 70.3326 55.0936 69.285 55.0936ZM69.3788 36.6441C68.5971 36.6441 67.7997 36.7692 67.0023 37.0194C64.9698 37.6448 63.4218 38.9425 62.4055 40.8656C61.6864 42.2259 61.4049 43.7426 61.53 45.478L76.3052 40.8813C75.4766 39.3959 74.3508 38.2858 72.975 37.5666C71.8023 36.9412 70.5984 36.6441 69.3788 36.6441Z" fill="white"/>
</g>
</svg>
