<svg width="88" height="88" viewBox="0 0 88 88" fill="none" xmlns="http://www.w3.org/2000/svg">
<rect width="88" height="88" rx="9" fill="#F5F5F5"/>
<path fill-rule="evenodd" clip-rule="evenodd" d="M41.0679 43.8319V32.1328L44 29.5736V18.6056C44 18.6056 43.7509 17.5612 43.267 17.1432C42.6088 16.5747 41.0679 16.7776 41.0679 16.7776C41.0679 16.7776 16.4707 32.864 16.1448 33.5951C15.819 34.3263 16.1448 56.6278 16.1448 56.6278L38.5023 71.2517C38.5023 71.2517 39.7587 71.3331 40.3348 70.8861C40.7422 70.5701 41.0679 69.7893 41.0679 69.7893V49.6815C41.0679 49.6815 37.0362 47.4879 37.0362 46.7567C37.0362 46.0255 41.0679 43.8319 41.0679 43.8319ZM35.9361 47.8535C35.2031 47.8535 20.9089 56.9934 20.9089 57.7246C20.9089 58.1709 38.8682 69.7894 38.8682 69.7894L39.6012 69.4238C39.6012 69.4238 40.7327 51.1291 39.9677 50.4127C39.2027 49.6963 36.669 47.8535 35.9361 47.8535Z" fill="#3F8EAF"/>
<path fill-rule="evenodd" clip-rule="evenodd" d="M46.9321 44.1681V55.8672L44 58.4264V69.3944C44 69.3944 44.2491 70.4388 44.733 70.8568C45.3912 71.4253 46.9321 71.2224 46.9321 71.2224C46.9321 71.2224 71.5293 55.136 71.8552 54.4049C72.181 53.6737 71.8552 31.3722 71.8552 31.3722L49.4977 16.7483C49.4977 16.7483 48.2413 16.6669 47.6652 17.1139C47.2578 17.4299 46.9321 18.2107 46.9321 18.2107V38.3185C46.9321 38.3185 50.9638 40.5121 50.9638 41.2433C50.9638 41.9745 46.9321 44.1681 46.9321 44.1681ZM52.0639 40.1465C52.7969 40.1465 67.0911 31.0065 67.0911 30.2754C67.0911 29.829 49.1318 18.2106 49.1318 18.2106L48.3988 18.5762C48.3988 18.5762 47.2673 36.8709 48.0323 37.5873C48.7973 38.3037 51.3309 40.1465 52.0639 40.1465Z" fill="#3F8EAF"/>
</svg>
