<svg width="88" height="88" viewBox="0 0 88 88" fill="none" xmlns="http://www.w3.org/2000/svg">
<rect x="0.5" y="0.5" width="87" height="87" rx="8.5" fill="white"/>
<rect x="0.5" y="0.5" width="87" height="87" rx="8.5" stroke="black"/>
<path d="M60.7881 29.3222L66.4487 20.7756H49.9056L49.3757 21.8371C47.9574 24.6684 45.6596 28.9161 44.4197 32.2772C43.36 29.0035 41.0586 24.6684 39.6439 21.8371L39.1141 20.7756H21.7698L35.8386 42.9813L20 67.2244H36.4576L38.8464 62.9803C40.3503 60.2364 42.2075 56.5203 43.7114 53.2484C45.1261 56.5203 47.0725 60.2364 48.5801 62.9803L50.8815 67.2244H53.6053H68L52.2033 42.2767L60.7881 29.3222Z" fill="#C5004A"/>
</svg>
