<svg width="88" height="88" viewBox="0 0 88 88" fill="none" xmlns="http://www.w3.org/2000/svg">
<rect width="88" height="88" rx="9" fill="#017737"/>
<path fill-rule="evenodd" clip-rule="evenodd" d="M63.8989 37.4718C63.8989 47.8491 57.1985 54.9467 47.6178 54.9467C43.0631 54.9467 39.3094 53.0712 37.904 50.7275L37.9705 53.1375V68H28.1904V29.571C28.1904 29.0364 28.0574 28.9005 27.4529 28.9005H24.1012V20.7339H32.2765C36.0272 20.7339 36.9671 23.9474 37.2331 25.3548C38.708 22.8783 42.5916 20 48.0862 20C57.5338 19.997 63.8989 27.025 63.8989 37.4718ZM53.9161 37.5383C53.9161 31.9812 50.2984 28.1666 45.7409 28.1666C41.9902 28.1666 37.768 30.6432 37.768 37.6077C37.768 42.1591 40.3128 46.913 45.6079 46.913C49.4945 46.91 53.9161 44.0981 53.9161 37.5383Z" fill="white"/>
</svg>
