<svg width="88" height="88" viewBox="0 0 88 88" fill="none" xmlns="http://www.w3.org/2000/svg">
<rect width="88" height="88" rx="9" fill="url(#paint0_linear_131_15360)"/>
<path d="M24.0463 63.7262C20.8906 62.5916 19.098 59.5177 19.902 56.6255C20.2895 55.2312 21.6255 52.7469 24.7332 51.54C23.4832 48.258 24.2822 44.442 26.7375 41.9684C32.2629 36.4019 39.208 41.1042 39.8931 42.3007C40.6433 38.4292 44.298 34.8962 45.6092 34.0194C54.1203 28.3278 65.3623 34.4937 65.7245 44.0388C65.8017 46.0746 65.4024 48.4026 65.1141 49.8667C65.4024 49.7928 66.7704 48.6366 69.7083 49.0977C77.6025 50.3366 78.3202 62.1306 70.426 64.3896C63.2494 64.3896 53.2023 64.3896 53.2023 64.3896C53.2023 64.3896 48.245 62.3043 48.245 57.6926C48.245 54.1371 50.8904 51.4888 53.9552 51.4888H54.9266C53.0228 52.3994 51.7677 54.7547 52.8798 57.116C54.2787 59.524 58.1085 59.5273 59.5244 57.188C60.2076 56.0592 60.5348 53.7449 59.8406 51.878C58.6033 48.5465 54.9103 46.3645 51.3117 46.3772C41.3285 46.4123 37.999 60.7662 29.4363 63.6561C27.9165 64.169 25.3661 64.2027 24.0459 63.7273L24.0463 63.7262ZM14.449 42.842C12.1166 42.842 11.5784 40.7567 12.296 39.7141C12.5879 39.1402 13.4066 38.6714 14.0901 38.6714C14.9872 38.6714 15.346 39.019 15.5255 39.1928C15.5255 36.76 16.4257 35.0103 18.0373 33.9795C19.8346 32.8299 21.9844 32.7631 23.8694 33.1646C23.8694 32.4156 23.9898 31.9883 24.1373 31.1992C24.6988 28.1943 26.8834 25.8334 29.5768 24.4261C31.4933 23.4247 35.0281 23.3965 36.7898 24.0653C39.6744 25.1605 41.6602 27.2615 42.5762 30.1876C42.8635 31.1052 43.0323 32.1094 43.1551 32.4157C41.0022 33.8058 39.5668 36.0648 38.6973 38.0029C31.8521 35.5436 25.752 36.9337 23.0608 42.842C20.1304 42.842 17.3794 42.842 14.449 42.842Z" fill="white"/>
<defs>
<linearGradient id="paint0_linear_131_15360" x1="44" y1="0" x2="44" y2="88" gradientUnits="userSpaceOnUse">
<stop stop-color="#FBD44E"/>
<stop offset="1" stop-color="#FFA613"/>
</linearGradient>
</defs>
</svg>
