<svg width="88" height="88" viewBox="0 0 88 88" fill="none" xmlns="http://www.w3.org/2000/svg">
<rect width="88" height="88" rx="9" fill="#F5F5F5"/>
<mask id="mask0_97_14598" style="mask-type:luminance" maskUnits="userSpaceOnUse" x="16" y="16" width="56" height="56">
<path d="M72 16H16V72H72V16Z" fill="white"/>
</mask>
<g mask="url(#mask0_97_14598)">
<path d="M72 39.8928H16V71.9994H72V39.8928Z" fill="#5D566A"/>
<path d="M44.2801 45.3054C69.5895 45.3054 90.1067 36.4466 90.1067 25.5188C90.1067 14.591 69.5895 5.73218 44.2801 5.73218C18.9708 5.73218 -1.54651 14.591 -1.54651 25.5188C-1.54651 36.4466 18.9708 45.3054 44.2801 45.3054Z" fill="#EA6552"/>
<path d="M36.0171 58.6506C36.0746 58.6506 36.1321 58.6618 36.1895 58.6856C36.2471 58.7052 36.3022 58.7416 36.3549 58.7934L37.3179 59.807C36.8963 60.3586 36.3669 60.7744 35.7296 61.0572C35.0973 61.3358 34.3474 61.4744 33.4803 61.4744C32.6849 61.4744 31.9711 61.34 31.3385 61.0726C30.7109 60.7996 30.1768 60.4258 29.736 59.9512C29.3 59.4724 28.9646 58.9068 28.7298 58.2544C28.4951 57.5978 28.3777 56.8866 28.3777 56.1208C28.3777 55.3396 28.5047 54.6228 28.7586 53.9718C29.0126 53.3152 29.3694 52.7496 29.8293 52.275C30.2894 51.8018 30.8403 51.4322 31.4823 51.169C32.1244 50.9058 32.8311 50.7742 33.6023 50.7742C33.9953 50.7742 34.3642 50.8092 34.7092 50.882C35.0589 50.9478 35.3847 51.0444 35.6865 51.169C35.9884 51.288 36.2663 51.435 36.5202 51.6072C36.7742 51.7794 36.9993 51.967 37.1957 52.1672L36.3764 53.2676C36.3238 53.3348 36.2615 53.3964 36.1895 53.4538C36.1177 53.507 36.0171 53.5336 35.8877 53.5336C35.8015 53.5336 35.7201 53.514 35.6434 53.4762C35.5668 53.437 35.4853 53.3922 35.3991 53.339C35.3129 53.2816 35.217 53.2214 35.1115 53.1598C35.011 53.0926 34.8888 53.0324 34.745 52.9792C34.6061 52.9218 34.4408 52.8742 34.2491 52.8364C34.0624 52.7972 33.842 52.779 33.5881 52.779C33.1856 52.779 32.8167 52.8532 32.4812 53.0016C32.1507 53.15 31.8633 53.3684 31.6188 53.6554C31.3793 53.9382 31.1925 54.2882 31.0583 54.704C30.9289 55.117 30.8642 55.5888 30.8642 56.1208C30.8642 56.657 30.9362 57.1344 31.0798 57.5502C31.2284 57.9674 31.4273 58.3202 31.6764 58.6072C31.9303 58.89 32.225 59.1056 32.5603 59.254C32.8958 59.4024 33.255 59.4766 33.6383 59.4766C33.8587 59.4766 34.06 59.4668 34.242 59.4472C34.4241 59.4234 34.5941 59.3884 34.7523 59.3394C34.9104 59.2876 35.0589 59.2204 35.1978 59.1392C35.3368 59.0524 35.4781 58.9446 35.6218 58.8158C35.6794 58.7682 35.7417 58.729 35.8087 58.701C35.8758 58.6674 35.9452 58.6506 36.0171 58.6506Z" fill="white"/>
<path d="M41.7848 55.8118C42.1153 55.8118 42.3956 55.7712 42.6256 55.69C42.8604 55.6032 43.0521 55.4856 43.2005 55.3372C43.349 55.1888 43.4568 55.0166 43.5239 54.8206C43.5911 54.619 43.6245 54.4034 43.6245 54.1738C43.6245 53.7132 43.4736 53.3534 43.1718 53.0958C42.8747 52.8368 42.4124 52.7066 41.7848 52.7066H40.8073V55.8118H41.7848ZM46.9448 61.36H44.7456C44.3384 61.36 44.0462 61.206 43.8688 60.8994L42.1297 57.86C42.0483 57.7312 41.9573 57.6374 41.8566 57.58C41.7559 57.517 41.6123 57.4862 41.4254 57.4862H40.8073V61.36H38.3783V50.8894H41.7848C42.5418 50.8894 43.1862 50.9678 43.7179 51.126C44.2545 51.28 44.6906 51.4956 45.0259 51.7728C45.3661 52.0514 45.6128 52.379 45.7661 52.757C45.9195 53.1364 45.9961 53.548 45.9961 53.9932C45.9961 54.3334 45.9506 54.6554 45.8596 54.9564C45.7686 55.2588 45.6344 55.5388 45.4571 55.7978C45.2799 56.0512 45.0595 56.2794 44.7959 56.4796C44.5372 56.6812 44.2379 56.8464 43.8977 56.9766C44.0557 57.0578 44.2043 57.16 44.3431 57.2846C44.4822 57.405 44.6068 57.5492 44.7169 57.7158L46.9448 61.36Z" fill="white"/>
<path d="M59.5965 50.8894V61.36H57.4549V55.3372C57.4549 55.1986 57.4573 55.0474 57.462 54.885C57.4717 54.7212 57.486 54.556 57.5051 54.3894L54.7239 59.771C54.6377 59.939 54.5203 60.0664 54.3718 60.1532C54.228 60.2386 54.0627 60.282 53.8759 60.282H53.5452C53.3585 60.282 53.1908 60.2386 53.0422 60.1532C52.8984 60.0664 52.7835 59.939 52.6973 59.771L49.916 54.374C49.9304 54.5476 49.9423 54.717 49.952 54.885C49.9615 55.0474 49.9663 55.1986 49.9663 55.3372V61.36H47.8247V50.8894H49.6789C49.7843 50.8894 49.8753 50.8908 49.952 50.8964C50.0335 50.9006 50.1053 50.9146 50.1676 50.9398C50.2299 50.9636 50.2849 51.0014 50.3328 51.0546C50.3856 51.1022 50.4358 51.1722 50.4837 51.2632L53.1787 56.5734C53.2746 56.7554 53.3656 56.9444 53.4519 57.1418C53.5429 57.3378 53.6291 57.5394 53.7106 57.7452C53.7921 57.5338 53.8759 57.328 53.9622 57.1264C54.0532 56.9262 54.1489 56.7344 54.2496 56.5524L56.9375 51.2632C56.9853 51.1722 57.0332 51.1022 57.0811 51.0546C57.1339 51.0014 57.1914 50.9636 57.2536 50.9398C57.3159 50.9146 57.3854 50.9006 57.462 50.8964C57.5435 50.8908 57.6369 50.8894 57.7423 50.8894H59.5965Z" fill="white"/>
<path d="M31.2839 32.4638C31.2488 32.5254 31.2107 32.5702 31.1698 32.5996C31.1318 32.6262 31.0836 32.6388 31.0251 32.6388C30.9636 32.6388 30.8964 32.6178 30.8233 32.573C30.7531 32.5268 30.6684 32.475 30.5688 32.4204C30.4694 32.3644 30.3525 32.314 30.218 32.2706C30.0864 32.2244 29.9299 32.2006 29.7486 32.2006C29.5848 32.2006 29.4415 32.2216 29.3186 32.2622C29.1958 32.3 29.092 32.3546 29.0073 32.4246C28.9254 32.4946 28.8639 32.5786 28.823 32.678C28.782 32.7746 28.7616 32.8824 28.7616 32.9986C28.7616 33.1484 28.8024 33.273 28.8843 33.3724C28.9692 33.4718 29.0803 33.5558 29.2178 33.6258C29.3552 33.6958 29.5117 33.7588 29.6871 33.8148C29.8627 33.8708 30.0424 33.931 30.2267 33.994C30.4109 34.0556 30.5908 34.1298 30.7662 34.2138C30.9418 34.2964 31.0982 34.4014 31.2356 34.5302C31.3731 34.6562 31.4827 34.8102 31.5646 34.995C31.6495 35.1784 31.6919 35.4024 31.6919 35.6656C31.6919 35.9526 31.6422 36.2214 31.5427 36.4734C31.4462 36.7212 31.3028 36.9396 31.1129 37.1272C30.9257 37.3106 30.6961 37.4576 30.4241 37.5654C30.1522 37.6704 29.8407 37.7236 29.4897 37.7236C29.288 37.7236 29.0892 37.7026 28.8932 37.662C28.6972 37.6242 28.5086 37.5682 28.3273 37.4954C28.1489 37.4226 27.9808 37.3344 27.8229 37.2322C27.6649 37.13 27.5245 37.0152 27.4017 36.8892L27.7482 36.3236C27.7775 36.283 27.8154 36.2494 27.8623 36.2228C27.9091 36.1934 27.9588 36.1794 28.0114 36.1794C28.0845 36.1794 28.1635 36.2102 28.2483 36.2718C28.3332 36.3292 28.434 36.395 28.551 36.4692C28.668 36.542 28.804 36.6092 28.959 36.6708C29.1169 36.7296 29.3055 36.7576 29.5248 36.7576C29.8611 36.7576 30.1214 36.6792 30.3056 36.521C30.4899 36.36 30.582 36.1304 30.582 35.8322C30.582 35.6656 30.5396 35.5298 30.4549 35.4248C30.373 35.3198 30.2632 35.2316 30.1259 35.1616C29.9884 35.0888 29.8319 35.0272 29.6564 34.9768C29.481 34.9278 29.3025 34.8732 29.1212 34.8144C28.9399 34.757 28.7616 34.687 28.5861 34.6044C28.4106 34.5232 28.2542 34.4154 28.1167 34.2838C27.9792 34.1522 27.8681 33.9884 27.7834 33.7924C27.7015 33.5936 27.6605 33.35 27.6605 33.0602C27.6605 32.8292 27.7058 32.6038 27.7965 32.3854C27.8901 32.1656 28.0246 31.971 28.2 31.8016C28.3756 31.6322 28.5919 31.4964 28.8493 31.3928C29.1067 31.2906 29.4021 31.2402 29.7354 31.2402C30.1098 31.2402 30.4549 31.299 30.7707 31.4152C31.0865 31.5328 31.3555 31.6966 31.5778 31.9066L31.2839 32.4638Z" fill="white"/>
<path d="M37.643 36.7012C37.8712 36.7012 38.0743 36.6634 38.2528 36.5864C38.4341 36.5108 38.5862 36.4044 38.7089 36.2672C38.8319 36.1286 38.9254 35.962 38.9898 35.766C39.057 35.57 39.0906 35.3516 39.0906 35.108V31.3098H40.2706V35.108C40.2706 35.486 40.2092 35.8346 40.0864 36.1566C39.9664 36.4758 39.7925 36.7516 39.5643 36.9854C39.3392 37.2164 39.0643 37.3984 38.7397 37.53C38.4151 37.6588 38.0495 37.7232 37.643 37.7232C37.2336 37.7232 36.8665 37.6588 36.542 37.53C36.2174 37.3984 35.941 37.2164 35.7129 36.9854C35.4877 36.7516 35.3137 36.4758 35.1909 36.1566C35.0709 35.8346 35.011 35.486 35.011 35.108V31.3098H36.191V35.1038C36.191 35.3474 36.2232 35.5658 36.2875 35.7618C36.3548 35.9578 36.4499 36.1258 36.5727 36.2672C36.6984 36.4044 36.8504 36.5108 37.0289 36.5864C37.2102 36.6634 37.4149 36.7012 37.643 36.7012Z" fill="white"/>
<path d="M45.1549 37.6532H43.9705V31.3098H45.1549V37.6532Z" fill="white"/>
<path d="M53.3742 32.2786H51.4616V37.6532H50.2816V32.2786H48.369V31.3098H53.3742V32.2786Z" fill="white"/>
<path d="M57.7574 32.2478V34.0076H59.9771V34.9148H57.7574V36.7096H60.5736V37.6532H56.573V31.3098H60.5736V32.2478H57.7574Z" fill="white"/>
</g>
</svg>
