<svg width="88" height="88" viewBox="0 0 88 88" fill="none" xmlns="http://www.w3.org/2000/svg">
<rect width="88" height="88" rx="9" fill="#101830"/>
<path d="M62.5834 39.73C60.9764 39.73 59.614 39.2364 58.1918 38.7124V54.822L52.7704 49.5208C51.861 48.6391 50.6731 47.9179 49.3699 47.9179H25.2055V31.8083H50.5205C50.0512 30.512 49.7128 28.698 49.7128 27.25C49.7128 25.5676 50.2784 24.0645 50.9041 22.6028H20.6027C18.0713 22.6028 16 24.7954 16 27.25V52.1371C16 54.5917 18.4548 57.1234 20.9863 57.1234H47.4521L59.3124 68.7303L59.3267 68.7441C59.3978 68.8131 59.4831 68.882 59.5684 68.951C59.5969 68.9785 59.6395 69.0061 59.668 69.0475C59.7817 69.144 59.8955 69.2268 60.0235 69.3095C60.0946 69.3509 60.1515 69.3922 60.2226 69.4336C60.2795 69.475 60.3506 69.5163 60.4075 69.5439C60.4786 69.5853 60.5355 69.6129 60.6066 69.6405C60.6777 69.668 60.7488 69.7094 60.8199 69.737C60.8768 69.7646 60.9479 69.7784 61.0048 69.8059C61.0759 69.8335 61.1613 69.8611 61.2466 69.8887C61.3035 69.9025 61.3746 69.9163 61.4315 69.93C61.5168 69.9576 61.6021 69.9714 61.6875 69.9852C61.7586 69.999 61.8297 70.0128 61.915 70.0128C61.9861 70.0266 62.0714 70.0404 62.1426 70.0404C62.2848 70.0542 62.4412 70.0679 62.5977 70.0679C62.7541 70.0679 62.8963 70.0542 63.0527 70.0404C63.1096 70.0404 63.1807 70.0266 63.2376 70.0128L63.4936 69.9714C63.5647 69.9576 63.6358 69.9438 63.7069 69.9163C63.7781 69.9025 63.8492 69.8887 63.9203 69.8611C63.9914 69.8473 64.0625 69.8197 64.1336 69.7921C64.2047 69.7646 64.2758 69.7508 64.3469 69.7232C64.418 69.6956 64.4749 69.668 64.546 69.6405C64.6171 69.6129 64.6882 69.5715 64.7593 69.5439C64.8162 69.5163 64.8873 69.475 64.9442 69.4474C65.0153 69.406 65.0722 69.3784 65.1433 69.3371C65.2002 69.2957 65.2713 69.2543 65.3282 69.213L65.4989 69.0889C65.57 69.0337 65.6269 68.9785 65.698 68.9234C65.7407 68.882 65.7833 68.8544 65.826 68.8131L65.8402 68.7993C65.9113 68.7303 65.9682 68.6614 66.0393 68.5924C66.082 68.551 66.1104 68.5097 66.1531 68.4821C66.21 68.4131 66.2526 68.3442 66.3095 68.2752C66.3948 68.1649 66.4802 68.0408 66.5513 67.9167C66.6224 67.7926 66.6935 67.6685 66.7646 67.5306L66.8499 67.3651C66.8784 67.3099 66.8926 67.241 66.921 67.1858C66.9779 67.0479 67.0206 66.91 67.049 66.7721C67.0917 66.6342 67.1202 66.4963 67.1344 66.3584L67.177 66.1102C67.177 66.0551 67.177 65.9999 67.1913 65.9585C67.1913 65.862 67.3973 65.1782 67.3973 65.1782V38.7124C65.9324 39.2364 64.2047 39.73 62.5834 39.73Z" fill="white"/>
<path d="M20.5782 22.6028C18.0475 22.6028 16.0001 24.588 16.0001 27.0419C16.0001 29.4958 18.0475 31.4948 20.5782 31.4948H25.1564V27.0557C25.1564 24.6018 23.109 22.6028 20.5782 22.6028ZM25.2056 52.9042V47.9179H20.6029C18.0721 47.9179 16.0001 50.0667 16.0001 52.5206C16.0001 54.9745 18.0721 57.1234 20.6029 57.1234C23.1336 57.1234 25.2056 55.3581 25.2056 52.9042ZM58.1843 54.8207V65.5617C58.1843 68.1266 61.0222 70.1645 63.5618 70.1645C65.6249 70.2196 67.3974 68.0605 67.3974 65.7667C67.3974 64.6363 66.9709 63.5058 66.0894 62.6373L58.1843 54.8207ZM49.37 47.9179C45.1508 47.9179 43.4071 53.0989 46.3015 55.9727L47.4522 57.1643H49.6963C55.5598 57.1643 55.8905 47.9179 49.37 47.9179Z" fill="#CDCDCD"/>
<path d="M62.7946 36.411C67.8786 36.411 72.0001 32.2895 72.0001 27.2055C72.0001 22.1214 67.8786 18 62.7946 18C57.7105 18 53.5891 22.1214 53.5891 27.2055C53.5891 32.2895 57.7105 36.411 62.7946 36.411Z" fill="#FF6363"/>
</svg>
