<svg width="88" height="88" viewBox="0 0 88 88" fill="none" xmlns="http://www.w3.org/2000/svg">
<rect width="88" height="88" rx="9" fill="#253858"/>
<path d="M62.2986 20H25.7014C22.5425 20 20 22.5385 20 25.6923V62.3077C20 65.4615 22.5425 68 25.7014 68H62.2986C65.4575 68 68 65.4615 68 62.3077V25.6923C68 22.5385 65.4575 20 62.2986 20ZM40.6485 54.5385C40.6485 55.6154 39.801 56.4615 38.7223 56.4615H30.7095C29.6308 56.4615 28.7833 55.6154 28.7833 54.5385V30.7692C28.7833 29.6923 29.6308 28.8462 30.7095 28.8462H38.7223C39.801 28.8462 40.6485 29.6923 40.6485 30.7692V54.5385ZM59.1396 43.6154C59.1396 44.6923 58.2921 45.5385 57.2905 45.5385H49.2006C48.122 45.5385 47.2745 44.6923 47.2745 43.6154V30.7692C47.2745 29.6923 48.122 28.8462 49.2006 28.8462H57.2135C58.2921 28.8462 59.1396 29.6923 59.1396 30.7692V43.6154Z" fill="url(#paint0_linear_97_14815)"/>
<defs>
<linearGradient id="paint0_linear_97_14815" x1="44" y1="20" x2="44" y2="68" gradientUnits="userSpaceOnUse">
<stop offset="0.51" stop-color="white"/>
<stop offset="1" stop-color="white" stop-opacity="0.3"/>
</linearGradient>
</defs>
</svg>
