<svg width="88" height="88" viewBox="0 0 88 88" fill="none" xmlns="http://www.w3.org/2000/svg">
<rect x="0.5" y="0.5" width="87" height="87" rx="8.5" fill="white"/>
<rect x="0.5" y="0.5" width="87" height="87" rx="8.5" stroke="#03AAFD"/>
<path d="M16 16V33.6717C17.4965 31.1775 19.6131 29.113 22.144 27.6791C24.6748 26.2452 27.5336 25.4908 30.4424 25.4892C33.979 25.433 37.4414 26.5056 40.3268 28.5512C43.2123 30.5968 45.3706 33.5089 46.4883 36.8647L46.5097 36.9319L46.5359 36.9972C46.5499 37.0308 46.562 37.0663 46.5741 37.1017L46.9951 38.3524L48.312 38.4299L59.5895 39.0897C59.5982 39.0904 59.6064 39.0938 59.613 39.0995C59.6195 39.1052 59.6241 39.1129 59.6259 39.1215C59.6259 39.1392 60.0552 39.1569 60.0393 39.1653L46.8485 46.632C46.8485 46.5452 46.8485 46.5881 46.8485 46.632L36.6267 72H72V16H16Z" fill="#03AAFD"/>
</svg>
