<svg width="88" height="88" viewBox="0 0 88 88" fill="none" xmlns="http://www.w3.org/2000/svg">
<rect width="88" height="88" rx="9" fill="#F5F5F5"/>
<path fill-rule="evenodd" clip-rule="evenodd" d="M28.7308 16C24.3126 16 20.7308 19.5817 20.7308 24V64.0001C20.7308 68.4184 24.3126 72.0001 28.7308 72.0001H59.2693C63.6876 72.0001 67.2693 68.4184 67.2693 64.0001V29.5795C67.2693 27.3703 65.4784 25.5795 63.2693 25.5795H58.3597V20C58.3597 17.7909 56.5689 16 54.3597 16H28.7308ZM26.7308 24C26.7308 22.8954 27.6263 22 28.7308 22H52.3597V27.5795C52.3597 29.7886 54.1506 31.5795 56.3597 31.5795H61.2693V64.0001C61.2693 65.1047 60.3739 66.0001 59.2693 66.0001H28.7308C27.6263 66.0001 26.7308 65.1047 26.7308 64.0001V24ZM39.3922 29.3929C38.8306 28.8244 38.0656 28.5035 37.2666 28.5011C36.4675 28.4988 35.7006 28.8153 35.1358 29.3805L29.1158 35.4045C27.9543 36.5668 27.9439 38.4473 29.0926 39.6223L47.6815 58.6378C48.1131 59.0793 48.6703 59.3769 49.2772 59.49L56.4437 60.8255C57.3504 60.9945 58.2845 60.737 58.9765 60.1273C59.6686 59.5175 60.0417 58.6234 59.9883 57.7026L59.5943 50.9078C59.552 50.1797 59.2461 49.492 58.7336 48.9732L39.3922 29.3929ZM51.3089 53.7653L35.4559 37.5484L37.2455 35.7575L53.6698 52.3847L53.7766 54.2252L51.3089 53.7653Z" fill="#EB8169"/>
</svg>
