<svg width="167" height="206" viewBox="0 0 167 206" fill="none" xmlns="http://www.w3.org/2000/svg">
<path d="M73.5935 195.019C76.9213 194.094 78.0145 182.773 75.2498 161.382C72.5996 162.526 68.8472 161.144 65.432 157.238C66.4529 169.79 60.7369 181.755 54.6475 193.525C59.2763 197.488 66.1096 200.325 73.5935 195.019Z" fill="#EF4B25"/>
<path d="M65.4286 157.238C64.6004 171.323 61.1642 183.725 54.644 194.139C58.9597 197.548 68.4191 199.946 73.593 195.019C76.8185 190.61 76.8004 174.618 75.1019 160.472" stroke="#5F190F" stroke-width="2" stroke-miterlimit="10" stroke-linecap="round" stroke-linejoin="round"/>
<path d="M77.7406 160.003C78.909 157.979 76.7584 154.55 72.9371 152.343C69.1157 150.137 65.0707 149.989 63.9023 152.013C62.7338 154.037 64.8844 157.466 68.7058 159.672C72.5271 161.878 76.5721 162.026 77.7406 160.003Z" fill="#91211D" stroke="#5F190F" stroke-width="2" stroke-miterlimit="10"/>
<path d="M55.5693 194.516C56.1577 192.399 55.6266 190.403 54.383 190.057C53.1394 189.711 51.6543 191.147 51.0659 193.264C50.4775 195.381 51.0086 197.377 52.2522 197.723C53.4958 198.069 54.9809 196.633 55.5693 194.516Z" fill="#91211D" stroke="#5F190F" stroke-width="2" stroke-miterlimit="10"/>
<path d="M60.6341 196.5C62.0466 194.523 61.9487 192.032 60.4153 190.937C58.8819 189.841 56.4937 190.556 55.0811 192.533C53.6686 194.511 53.7665 197.002 55.2999 198.097C56.8333 199.192 59.2215 198.478 60.6341 196.5Z" fill="#91211D" stroke="#5F190F" stroke-width="2" stroke-miterlimit="10"/>
<path opacity="0.3" d="M70.8256 161.283C73.3854 163.752 65.9859 196.193 61.6221 193.227C57.3818 194.495 56.2072 195.994 56.6921 191.974C54.2798 194.793 53.0541 194.323 50.9219 193.901C51.1387 196.802 52.247 197.735 54.2075 196.925C57.5263 198.874 57.8606 197.741 60.6373 196.491C64.2061 197.943 70.8256 196.847 73.6023 193.904C75.9393 185.857 76.0176 176.702 74.7527 162.572L70.8256 161.283Z" fill="#5F190F"/>
<path d="M116.548 127.071C116.548 141.584 106.736 162.005 86.8714 162.005C67.2297 162.005 54.6141 139.864 54.2226 125.354C53.6143 102.882 70.9129 109.45 86.8714 109.45C102.83 109.45 116.548 112.558 116.548 127.071Z" fill="#EF4B25"/>
<path d="M56.689 110.013C41.8238 169.745 119.966 183.111 115.786 121.674C115.463 116.919 110.482 112.142 105.51 112.142" stroke="#5F190F" stroke-width="2" stroke-miterlimit="10" stroke-linecap="round" stroke-linejoin="round"/>
<path d="M99.7173 162.151C104.796 160.109 108.028 156.253 106.937 153.539C105.846 150.824 100.844 150.279 95.7654 152.321C90.6868 154.362 87.4545 158.218 88.5458 160.933C89.637 163.647 94.6387 164.192 99.7173 162.151Z" fill="#91211D" stroke="#5F190F" stroke-width="2" stroke-miterlimit="10"/>
<path d="M96.1564 156.822C89.4043 161.147 92.2202 203.09 101.418 201.819C108.959 201.798 115.072 200.355 118.412 196.157C120.174 186.52 108.576 174.109 102.869 156.822C100.836 155.052 98.6168 154.901 96.1564 156.822Z" fill="#EF4B25"/>
<path d="M98.0538 155.437C89.1455 158.837 92.9431 196.509 99.2253 201.265C105.508 206.02 118.409 196.157 118.409 196.157C120.376 186.655 108.278 171.64 102.647 155.856" stroke="#5F190F" stroke-width="2" stroke-miterlimit="10" stroke-linecap="round" stroke-linejoin="round"/>
<path d="M116.821 202.403C118.398 202.306 119.553 200.222 119.401 197.749C119.249 195.275 117.848 193.348 116.271 193.445C114.694 193.542 113.538 195.626 113.69 198.099C113.842 200.573 115.244 202.5 116.821 202.403Z" fill="#91211D" stroke="#5F190F" stroke-width="2" stroke-miterlimit="10"/>
<path d="M106.519 204.593C107.985 204.004 108.424 201.662 107.499 199.363C106.575 197.064 104.637 195.677 103.171 196.267C101.705 196.856 101.266 199.198 102.19 201.497C103.115 203.797 105.053 205.183 106.519 204.593Z" fill="#91211D" stroke="#5F190F" stroke-width="2" stroke-miterlimit="10"/>
<path d="M113.083 204.121C115.135 203.296 115.841 200.245 114.66 197.307C113.479 194.369 110.858 192.656 108.805 193.481C106.753 194.306 106.046 197.357 107.228 200.295C108.409 203.234 111.03 204.947 113.083 204.121Z" fill="#91211D" stroke="#5F190F" stroke-width="2" stroke-miterlimit="10"/>
<path opacity="0.3" d="M102.044 156.5C100.667 162.879 118.029 196.344 113.229 194.495C114.238 197.094 113.235 206.869 106.736 197.838C107.151 201.991 104.851 203.021 102.652 200.819C104.625 206.622 108.088 204.108 108.064 200.702C110.121 204.159 113.434 205.342 115.28 201.497C117.924 203.219 119.023 199.641 118.812 194.495C120.791 186.86 106.736 170.57 103.14 157.596C102.514 155.35 101.86 156.404 102.044 156.5Z" fill="#5F190F"/>
<path d="M30.6388 40.0807C28.5547 47.8084 30.1238 55.1537 33.021 62.3605L49.5968 41.198C39.2369 36.0813 32.9186 35.7078 30.6388 40.0807Z" fill="#AA3C24"/>
<path d="M64.4047 9.69056C61.1672 11.2686 59.8601 19.7192 59.1675 30.3502L79.6524 24.3239C73.9123 15.3283 68.374 7.60653 64.4047 9.69056Z" fill="#AA3C24"/>
<path d="M95.4668 22.8633L119.171 31.3681C119.325 21.3846 119.171 12.2143 116.69 9.19665C110.206 7.8595 103.047 13.2683 95.4668 22.8633Z" fill="#AA3C24"/>
<path d="M153.006 41.7401C148.04 37.4576 138.25 39.8247 127.492 43.5229L139.28 65.7666C146.547 57.2046 152.076 48.998 153.006 41.7401Z" fill="#AA3C24"/>
<path d="M140.219 72.1542L132.856 99.1622C146.505 100.623 158.021 98.587 164.975 89.0854C163.059 82.1105 152.187 77.0179 140.219 72.1542Z" fill="#AA3C24"/>
<path d="M165.001 61.5896C157.286 56.3765 147.79 54.0907 136.512 54.7352C136.467 54.8376 136.424 54.94 136.382 55.0423C135.572 52.6722 134.56 50.3262 133.328 48.0464C142.821 30.1334 146.619 18.355 142.062 15.5693C135.181 12.7594 123.595 18.4514 110.561 26.7544C110.561 26.7544 104.619 24.9173 100.77 24.065C92.2231 5.88094 88.7447 0.369701 82.5317 2.21581C75.7827 4.2637 71.0063 12.8618 67.6363 26.134C66.1637 26.6821 64.7181 27.2904 63.3026 27.953C56.0326 22.6465 48.9463 19.4753 42.2335 20.6137C37.7673 25.7696 37.3637 35.6687 39.4447 48.4771C34.6141 55.8856 31.7983 64.285 31.8013 72.8379C31.8073 107.354 54.5329 121.469 94.1927 121.671C110.085 121.752 119.999 117.732 126.504 109.754L126.402 109.935C131.85 112.561 137.298 112.892 142.743 110.841C143.393 105.637 141.171 99.5659 136.075 92.6272C136.075 92.6272 135.322 90.6034 136.322 85.839C148.76 81.6107 160.165 73.9462 165.001 61.5896Z" fill="#EF4B25"/>
<path opacity="0.3" d="M103.797 121.138C114.663 116.985 125.453 117.253 136.753 87.2545C150.1 82.0775 160.063 74.419 165.125 62.8123C162.574 60.7765 143.044 57.551 136.536 59.9242C136.647 53.1451 135.729 51.6423 132.853 48.6457C140.279 38.322 146.559 20.1801 143.288 18.5508C138.274 28.0614 134.009 37.8883 122.216 38.8279C135.617 71.6182 115.084 102.749 103.797 121.138Z" fill="#5F190F"/>
<path opacity="0.3" d="M86.0853 1.42377C93.1747 4.62209 97.7704 11.9885 99.8785 23.5289L82.1221 22.6315C89.5698 20.9871 89.0277 12.2685 86.0853 1.42377Z" fill="#5F190F"/>
<path opacity="0.3" d="M40.803 23.4085C41.8149 32.7144 44.3025 38.7586 50.5696 36.4849C45.7119 39.5417 42.1582 44.1554 39.7158 50.0913C37.3487 41.5203 37.7944 32.618 40.803 23.4085Z" fill="#5F190F"/>
<path opacity="0.3" d="M133.533 97.1747C137.488 100.024 140.451 104.77 142.412 111.432C137.223 114.838 133.416 111.703 126.504 109.757L133.533 97.1747Z" fill="#5F190F"/>
<path d="M69.2355 119.171C34.8701 116.434 6.50379 57.8432 63.5104 28.1066L67.5159 26.6128C77.6499 -3.78327 88.3501 -8.86686 99.8816 23.529L110.558 26.7574C143.095 5.31779 153.127 9.63342 132.856 48.6457L136.512 54.7382C172.69 55.1869 176.533 64.6795 136.756 87.2575C128.748 110.835 117.825 121.713 99.8846 121.141" stroke="#5F190F" stroke-width="2" stroke-miterlimit="10" stroke-linecap="round"/>
<path d="M39.6406 48.1819C34.9515 22.24 39.5563 10.4435 63.5075 28.1066" stroke="#5F190F" stroke-width="2" stroke-miterlimit="10" stroke-linecap="round"/>
<path d="M136.075 92.6302C149.829 114.693 141.586 115.988 126.402 109.938" stroke="#5F190F" stroke-width="2" stroke-miterlimit="10" stroke-linecap="round"/>
<path d="M32.4339 60.4241C27.2419 43.8151 28.4736 36.0181 38.0023 36.7529" stroke="#5F190F" stroke-width="2" stroke-miterlimit="10" stroke-linecap="round"/>
<path d="M59.1675 25.0889C61.3449 9.14851 63.5072 5.68818 72.2981 12.7715" stroke="#5F190F" stroke-width="2" stroke-miterlimit="10" stroke-linecap="round"/>
<path d="M98.7163 18.4454C111.754 6.2815 119.611 5.07987 119.21 21.3516" stroke="#5F190F" stroke-width="2" stroke-miterlimit="10" stroke-linecap="round"/>
<path d="M137.37 39.4483C154.91 37.2468 155.425 42.7791 147.296 55.2201" stroke="#5F190F" stroke-width="2" stroke-miterlimit="10" stroke-linecap="round"/>
<path d="M153.006 77.1595C171.371 88.4651 166.357 95.8134 140.249 99.587" stroke="#5F190F" stroke-width="2" stroke-miterlimit="10" stroke-linecap="round"/>
<path d="M60.7939 98.6835C63.0858 106.866 72.6115 106.116 72.6115 99.081C69.2023 96.9307 66.1094 93.9372 65.4288 91.0039L60.7939 98.6835Z" fill="#811818"/>
<path d="M53.3131 91.0039C52.0513 98.6353 56.5476 100.259 60.553 98.2076C63.6761 96.6084 66.5009 92.7777 66.0582 87.8236C66.6274 98.7467 82.1251 105.688 82.1251 91.0008" stroke="#5F190F" stroke-width="2" stroke-miterlimit="10" stroke-linecap="round"/>
<path d="M72.6113 99.0809C68.7715 106.691 64.751 106.45 60.5498 98.2075" stroke="#5F190F" stroke-width="2" stroke-miterlimit="10" stroke-linecap="round"/>
<path d="M66.0557 87.8267C74.3354 87.8267 81.0475 81.1146 81.0475 72.8349C81.0475 64.5552 74.3354 57.8431 66.0557 57.8431C57.776 57.8431 51.064 64.5552 51.064 72.8349C51.064 81.1146 57.776 87.8267 66.0557 87.8267Z" fill="#91211D" stroke="#5F190F" stroke-width="2" stroke-miterlimit="10"/>
<path opacity="0.3" d="M66.3326 86.6822C73.5229 86.6822 79.3518 81.2416 79.3518 74.5304C79.3518 67.8191 73.5229 62.3785 66.3326 62.3785C59.1424 62.3785 53.3135 67.8191 53.3135 74.5304C53.3135 81.2416 59.1424 86.6822 66.3326 86.6822Z" fill="#5F190F"/>
<path d="M75.4604 71.8766C77.2724 70.8304 77.4651 67.7719 75.8909 65.0453C74.3166 62.3186 71.5714 60.9564 69.7594 62.0026C67.9474 63.0487 67.7547 66.1072 69.329 68.8339C70.9033 71.5605 73.6484 72.9228 75.4604 71.8766Z" fill="white"/>
<path d="M86.7869 77.6173C110.913 80.4633 122.679 77.8221 123.294 64.6283C122.336 55.5091 114.822 54.958 105.579 56.6596C108.732 46.5316 106.154 40.9179 96.0867 41.204C86.7869 42.0262 80.6101 53.8136 86.7869 77.6173Z" fill="#E1214B" stroke="#5F190F" stroke-width="2" stroke-miterlimit="10"/>
<path opacity="0.3" d="M86.7873 77.6172C110.913 80.4632 120.424 79.7916 121.728 65.7003C119.213 56.6896 114.103 57.8431 104.604 57.8431C104.845 51.8349 107.492 48.8715 99.8818 45.8298C90.5819 46.6489 84.8749 53.8135 86.7873 77.6172Z" fill="#5F190F"/>
<path d="M98.4134 52.9697C100.221 50.1888 100.091 46.8984 98.125 45.6205C96.1585 44.3426 93.0994 45.5611 91.2922 48.342C89.485 51.1229 89.6141 54.4133 91.5806 55.6912C93.547 56.9691 96.6062 55.7506 98.4134 52.9697Z" fill="white"/>
<path d="M90.6874 66.0075C92.3706 66.0075 93.7351 64.3747 93.7351 62.3605C93.7351 60.3463 92.3706 58.7134 90.6874 58.7134C89.0042 58.7134 87.6396 60.3463 87.6396 62.3605C87.6396 64.3747 89.0042 66.0075 90.6874 66.0075Z" fill="white"/>
<path d="M38.5145 79.7948C20.4268 70.1847 13.7109 62.5172 20.1798 52.4554C25.6007 46.1732 31.0608 49.4137 36.5298 55.1598C39.6499 46.1371 44.354 43.2309 51.1331 48.3355C57.1021 53.4553 55.1958 65.1764 38.5145 79.7948Z" fill="#E1214B" stroke="#5F190F" stroke-width="2" stroke-miterlimit="10"/>
<path opacity="0.3" d="M37.9903 79.2165C50.0638 66.1581 56.1442 59.7284 47.8563 52.6089C41.1314 50.0461 40.0954 54.2774 36.0448 59.9241C32.3766 57.0752 28.7808 53.9702 23.6279 57.1233C20.1766 63.017 22.2396 69.6335 37.9903 79.2165Z" fill="#5F190F"/>
<path d="M46.9076 60.135C48.9285 60.135 50.5667 57.673 50.5667 54.6358C50.5667 51.5987 48.9285 49.1367 46.9076 49.1367C44.8868 49.1367 43.2485 51.5987 43.2485 54.6358C43.2485 57.673 44.8868 60.135 46.9076 60.135Z" fill="white"/>
<path d="M46.8377 66.8442C47.6165 65.2015 47.1696 63.3586 45.8395 62.728C44.5094 62.0974 42.7998 62.9179 42.021 64.5605C41.2422 66.2032 41.6891 68.0461 43.0192 68.6767C44.3493 69.3073 46.0589 68.4868 46.8377 66.8442Z" fill="white"/>
<path d="M80.9957 185.023C87.5791 183.132 93.7077 179.072 99.3303 172.594C117.906 170.929 129.931 162.692 128.287 148.345C150.443 135.452 146.929 121.849 133.976 107.986C127.6 84.8933 103.797 88.2693 91.9158 102.315C82.0046 97.9727 73.3281 104.315 67.1152 116.946C65.6546 106.721 60.0169 102.33 52.0542 101.183C33.2708 84.0982 16.8696 93.5968 12.3823 111.627C5.35325 122.047 2.31153 132.16 15.3036 141.024C16.8214 156.723 25.2298 163.499 38.7339 163.677C44.1306 172.326 51.0754 175.446 59.782 172.272C65.754 178.888 72.4668 183.915 80.9957 185.023Z" fill="#98D9E8" stroke="#4EA2AC" stroke-width="2" stroke-miterlimit="10" stroke-linecap="round" stroke-linejoin="round"/>
<path opacity="0.2" d="M80.996 185.023C87.5793 183.132 93.4821 176.018 99.1047 169.541C117.68 167.875 129.133 160.569 127.492 146.222C149.648 133.329 146.932 121.852 133.979 107.989C126.074 97.7981 110.986 98.6865 99.1047 112.736C89.1936 108.393 76.3009 126.035 70.0879 138.663C66.7059 129.037 50.4764 121.677 44.3899 126.176C42.0349 112.736 16.4483 99.2346 11.964 117.265C4.87468 123.37 2.31181 132.161 15.3039 141.024C16.8217 156.723 23.5858 161.828 37.0868 162.006C42.4836 170.655 50.0819 173.534 58.7884 170.36C64.7634 176.973 72.4671 183.915 80.996 185.023Z" fill="#4EA2AD"/>
<path d="M123.655 103.836H118.698L122.24 100.906C122.755 100.481 122.827 99.7194 122.402 99.2045C121.978 98.6925 121.216 98.6172 120.701 99.0418L116.551 102.475V96.5392C116.551 95.8706 116.009 95.3315 115.343 95.3315C114.677 95.3315 114.135 95.8736 114.135 96.5392V102.084L110.642 98.5208C110.175 98.045 109.41 98.036 108.934 98.5028C108.458 98.9696 108.449 99.7345 108.916 100.21L112.467 103.83H107.028C106.359 103.83 105.82 104.372 105.82 105.038C105.82 105.703 106.362 106.246 107.028 106.246H111.985L108.443 109.173C107.928 109.598 107.856 110.359 108.281 110.874C108.519 111.164 108.865 111.311 109.211 111.311C109.482 111.311 109.756 111.221 109.979 111.034L114.129 107.601V113.537C114.129 114.205 114.671 114.744 115.337 114.744C116.003 114.744 116.545 114.202 116.545 113.537V107.992L120.038 111.555C120.276 111.796 120.586 111.916 120.899 111.916C121.204 111.916 121.511 111.802 121.746 111.57C122.222 111.103 122.231 110.338 121.764 109.863L118.213 106.243H123.652C124.321 106.243 124.86 105.7 124.86 105.035C124.86 104.369 124.321 103.836 123.655 103.836Z" fill="white"/>
<path d="M130.684 115.256L128.462 117.449L128.754 114.57C128.796 114.151 128.492 113.778 128.073 113.735C127.655 113.693 127.281 113.997 127.239 114.416L126.896 117.789L124.269 115.127C123.974 114.829 123.493 114.826 123.194 115.121C122.896 115.416 122.893 115.898 123.188 116.196L125.64 118.681L122.499 118.629C122.077 118.623 121.731 118.958 121.725 119.376C121.719 119.798 122.053 120.141 122.472 120.15L125.664 120.204L123.224 122.611C122.926 122.906 122.923 123.388 123.218 123.686C123.514 123.984 123.995 123.987 124.294 123.692L126.516 121.499L126.224 124.378C126.182 124.797 126.486 125.171 126.905 125.213C127.14 125.237 127.359 125.149 127.516 124.996C127.636 124.875 127.721 124.716 127.739 124.532L128.082 121.159L130.708 123.821C131.003 124.119 131.485 124.122 131.783 123.827C132.082 123.532 132.085 123.05 131.789 122.752L129.338 120.265L132.479 120.316C132.693 120.319 132.886 120.235 133.027 120.096C133.163 119.96 133.25 119.774 133.253 119.566C133.259 119.144 132.925 118.801 132.506 118.792L129.314 118.738L131.753 116.334C132.051 116.039 132.054 115.557 131.759 115.259C131.464 114.961 130.982 114.961 130.684 115.256Z" fill="white"/>
<path d="M34.9938 147.285L32.7712 149.477L33.0633 146.598C33.1055 146.18 32.8013 145.806 32.3827 145.764C31.9641 145.722 31.5907 146.026 31.5485 146.445L31.2052 149.818L28.5791 147.155C28.2839 146.857 27.8021 146.854 27.5039 147.149C27.2058 147.444 27.2028 147.926 27.4979 148.224L29.9493 150.709L26.8082 150.658C26.3866 150.652 26.0403 150.986 26.0343 151.405C26.0282 151.826 26.3625 152.17 26.7811 152.179L29.9734 152.233L27.534 154.639C27.2359 154.934 27.2329 155.416 27.528 155.714C27.8232 156.012 28.305 156.015 28.6032 155.72L30.8257 153.528L30.5336 156.407C30.4914 156.826 30.7956 157.199 31.2142 157.241C31.4491 157.265 31.669 157.178 31.8256 157.024C31.946 156.904 32.0304 156.744 32.0484 156.561L32.3918 153.188L35.0179 155.85C35.313 156.148 35.7949 156.151 36.093 155.856C36.3912 155.561 36.3942 155.079 36.099 154.781L33.6476 152.293L36.7887 152.344C37.0025 152.347 37.1953 152.263 37.3368 152.124C37.4723 151.989 37.5597 151.802 37.5627 151.594C37.5687 151.173 37.2344 150.829 36.8158 150.82L33.6235 150.766L36.0629 148.363C36.361 148.068 36.3641 147.586 36.0689 147.288C35.7738 146.99 35.2949 146.99 34.9938 147.285Z" fill="white"/>
<path d="M47.4134 159.048L45.227 158.635L47.0339 157.639C47.2959 157.494 47.3923 157.163 47.2477 156.901C47.1032 156.639 46.7719 156.542 46.5099 156.687L44.3927 157.855L44.8866 155.235C44.9408 154.94 44.7481 154.657 44.453 154.603C44.1578 154.549 43.8747 154.741 43.8205 155.037L43.3598 157.482L42.116 155.621C41.9503 155.371 41.613 155.305 41.3631 155.47C41.1131 155.636 41.0468 155.973 41.2125 156.223L42.4774 158.117L40.0771 157.666C39.782 157.611 39.4989 157.804 39.4447 158.099C39.3905 158.394 39.5832 158.678 39.8783 158.732L42.0648 159.144L40.2578 160.141C39.9958 160.286 39.8994 160.617 40.044 160.879C40.1253 161.027 40.2638 161.12 40.4174 161.15C40.5379 161.171 40.6644 161.156 40.7788 161.093L42.896 159.924L42.4021 162.544C42.3479 162.84 42.5406 163.123 42.8357 163.177C43.1309 163.231 43.414 163.038 43.4682 162.743L43.9289 160.298L45.1727 162.159C45.2571 162.285 45.3836 162.364 45.5221 162.391C45.6576 162.415 45.8022 162.391 45.9226 162.31C46.1726 162.144 46.2389 161.807 46.0732 161.557L44.8083 159.662L47.2086 160.114C47.5037 160.168 47.7868 159.976 47.841 159.68C47.9013 159.388 47.7085 159.105 47.4134 159.048Z" fill="white"/>
<path d="M28.0883 142.436L26.5704 142.15L27.8233 141.457C28.004 141.358 28.0702 141.129 27.9708 140.945C27.8715 140.765 27.6426 140.698 27.4589 140.798L25.9922 141.608L26.3355 139.792C26.3747 139.587 26.2392 139.391 26.0344 139.352C25.8296 139.313 25.6338 139.448 25.5947 139.653L25.2754 141.349L24.4111 140.057C24.2967 139.885 24.0618 139.837 23.8901 139.954C23.7185 140.069 23.6703 140.304 23.7877 140.475L24.6641 141.788L22.9987 141.475C22.7939 141.436 22.5981 141.572 22.559 141.776C22.5198 141.981 22.6554 142.177 22.8601 142.216L24.378 142.502L23.1252 143.195C22.9445 143.294 22.8782 143.523 22.9776 143.707C23.0348 143.809 23.1312 143.876 23.2366 143.894C23.3209 143.909 23.4083 143.897 23.4866 143.854L24.9532 143.044L24.6099 144.86C24.5707 145.065 24.7063 145.261 24.911 145.3C25.1158 145.339 25.3116 145.204 25.3507 144.999L25.67 143.303L26.5343 144.595C26.5915 144.683 26.6819 144.737 26.7782 144.755C26.8716 144.773 26.971 144.755 27.0583 144.698C27.23 144.583 27.2782 144.348 27.1607 144.177L26.2843 142.864L27.9467 143.177C28.1515 143.216 28.3473 143.08 28.3864 142.876C28.4256 142.671 28.2931 142.475 28.0883 142.436Z" fill="white"/>
<path d="M15.9349 120.025C17.1739 117.689 15.1442 114.186 11.4014 112.201C7.65861 110.216 3.62007 110.502 2.38108 112.838C1.14209 115.175 3.17183 118.678 6.91463 120.662C10.6574 122.647 14.696 122.362 15.9349 120.025Z" fill="#91211D" stroke="#5F190F" stroke-width="2" stroke-miterlimit="10"/>
<path d="M9.08069 130.873C12.3818 130.277 14.7497 128.088 14.3694 125.985C13.9892 123.882 11.0049 122.661 7.70378 123.257C4.40265 123.854 2.0348 126.043 2.41502 128.146C2.79524 130.249 5.77957 131.47 9.08069 130.873Z" fill="#91211D" stroke="#5F190F" stroke-width="2" stroke-miterlimit="10"/>
<path d="M143.859 131.646C147.899 130.372 150.529 127.294 149.733 124.772C148.938 122.249 145.017 121.238 140.977 122.513C136.937 123.788 134.307 126.866 135.102 129.388C135.898 131.91 139.819 132.921 143.859 131.646Z" fill="#91211D" stroke="#5F190F" stroke-width="2" stroke-miterlimit="10"/>
<path d="M146.92 139.822C147.675 137.822 145.742 135.241 142.604 134.056C139.465 132.872 136.309 133.532 135.554 135.532C134.799 137.532 136.732 140.113 139.871 141.297C143.009 142.482 146.166 141.821 146.92 139.822Z" fill="#91211D" stroke="#5F190F" stroke-width="2" stroke-miterlimit="10"/>
</svg>
