<svg width="64" height="62" viewBox="0 0 64 62" fill="none" xmlns="http://www.w3.org/2000/svg">
<path d="M1 6.86207C1 4.72911 2.79086 3 5 3H59C61.2091 3 63 4.72911 63 6.86207V55.1379C63 57.2709 61.2091 59 59 59H5C2.79086 59 1 57.2709 1 55.1379V6.86207Z" fill="white"/>
<path fill-rule="evenodd" clip-rule="evenodd" d="M5 2H59C61.7614 2 64 4.16396 64 6.83333V55.1667C64 57.836 61.7614 60 59 60H5C2.23858 60 0 57.836 0 55.1667V6.83333C0 4.16395 2.23858 2 5 2ZM5 2.96667C2.79086 2.96667 1 4.69783 1 6.83333V55.1667C1 57.3022 2.79086 59.0333 5 59.0333H59C61.2091 59.0333 63 57.3022 63 55.1667V6.83333C63 4.69783 61.2091 2.96667 59 2.96667H5Z" fill="#333333"/>
<path d="M30 52.5V42.5C30 41.6716 29.3284 41 28.5 41C27.6716 41 27 41.6716 27 42.5V52.5C27 53.3284 27.6716 54 28.5 54C29.3284 54 30 53.3284 30 52.5Z" fill="url(#paint0_linear_1133_7173)"/>
<path d="M37 52.5V40.5C37 39.6716 36.3284 39 35.5 39C34.6716 39 34 39.6716 34 40.5V52.5C34 53.3284 34.6716 54 35.5 54C36.3284 54 37 53.3284 37 52.5Z" fill="url(#paint1_linear_1133_7173)"/>
<path d="M44 52.5789V37.4211C44 36.6362 43.3284 36 42.5 36C41.6716 36 41 36.6362 41 37.4211V52.5789C41 53.3638 41.6716 54 42.5 54C43.3284 54 44 53.3638 44 52.5789Z" fill="url(#paint2_linear_1133_7173)"/>
<path d="M51 52.5714V35.4286C51 34.6396 50.3284 34 49.5 34C48.6716 34 48 34.6396 48 35.4286V52.5714C48 53.3604 48.6716 54 49.5 54C50.3284 54 51 53.3604 51 52.5714Z" fill="url(#paint3_linear_1133_7173)"/>
<path d="M57.9993 52.558V30.442C57.9993 29.6456 57.3279 29 56.4997 29C55.6714 29 55 29.6456 55 30.442V52.558C55 53.3544 55.6714 54 56.4997 54C57.3279 54 57.9993 53.3544 57.9993 52.558Z" fill="url(#paint4_linear_1133_7173)"/>
<path d="M1 6.86207C1 4.93103 2.5 3 5 3H18V59H5C3 59 1 57.6382 1 54.972V6.86207Z" fill="#EFEFEF"/>
<path d="M36.8788 8.20703C38.3167 8.20703 40.9997 10.0104 41.333 10.9791L35.333 14.8541L36.8788 8.20703Z" fill="#BDECFF"/>
<path fill-rule="evenodd" clip-rule="evenodd" d="M40.6035 10.7066C40.2069 10.2825 39.6473 9.84497 38.993 9.46291C38.3496 9.08727 37.7107 8.82114 37.1766 8.6772L36.1277 13.7812L40.6035 10.7066ZM41.9896 10.9421C41.1268 9.2629 38.1072 7.58374 36.3817 7.58374L34.6562 15.9796L41.9896 10.9421Z" fill="#333333"/>
<path fill-rule="evenodd" clip-rule="evenodd" d="M41.9484 14.4235C41.9967 14.7471 42.0217 15.0784 42.0217 15.4156C42.0217 19.058 39.1019 22.0107 35.5 22.0107C31.8981 22.0107 28.9783 19.058 28.9783 15.4156C28.9783 12.3413 31.0584 9.75822 33.8731 9.02734L33.9192 8C30.5362 8.73397 28 11.7753 28 15.4156C28 19.6044 31.3579 23 35.5 23C39.6421 23 43 19.6044 43 15.4156C43 14.9167 42.9524 14.4291 42.8614 13.9571L41.9484 14.4235Z" fill="#333333"/>
<path fill-rule="evenodd" clip-rule="evenodd" d="M57.0004 19.375C48.1492 29.5303 36.5004 34.875 25.0001 35.8438C24.5005 35.8438 24.1811 34.9971 25.0001 34.875C38.0004 32.9375 47.2688 28.4107 56.0004 18.4062L54.5004 18.4063C53.5004 18.4063 53.5004 17.4375 54.5004 17.4375L58.0004 17.4375L58.0004 20.8281C58.0004 21.7969 57.0004 21.7969 57.0004 20.8281L57.0004 19.375Z" fill="#333333"/>
<path fill-rule="evenodd" clip-rule="evenodd" d="M12 13.5C12 13.7761 11.7761 14 11.5 14H5.5C5.22386 14 5 13.7761 5 13.5C5 13.2239 5.22386 13 5.5 13H11.5C11.7761 13 12 13.2239 12 13.5Z" fill="#333333"/>
<path fill-rule="evenodd" clip-rule="evenodd" d="M12 37.5C12 37.7761 11.7761 38 11.5 38H5.5C5.22386 38 5 37.7761 5 37.5C5 37.2239 5.22386 37 5.5 37H11.5C11.7761 37 12 37.2239 12 37.5Z" fill="#333333"/>
<path fill-rule="evenodd" clip-rule="evenodd" d="M12 25.5C12 25.7761 11.7761 26 11.5 26H5.5C5.22386 26 5 25.7761 5 25.5C5 25.2239 5.22386 25 5.5 25H11.5C11.7761 25 12 25.2239 12 25.5Z" fill="#333333"/>
<path fill-rule="evenodd" clip-rule="evenodd" d="M12 49.5C12 49.7761 11.7761 50 11.5 50H5.5C5.22386 50 5 49.7761 5 49.5C5 49.2239 5.22386 49 5.5 49H11.5C11.7761 49 12 49.2239 12 49.5Z" fill="#333333"/>
<path fill-rule="evenodd" clip-rule="evenodd" d="M12 19.5C12 19.7761 11.7761 20 11.5 20H5.5C5.22386 20 5 19.7761 5 19.5C5 19.2239 5.22386 19 5.5 19H11.5C11.7761 19 12 19.2239 12 19.5Z" fill="#333333"/>
<path fill-rule="evenodd" clip-rule="evenodd" d="M12 43.5C12 43.7761 11.7761 44 11.5 44H5.5C5.22386 44 5 43.7761 5 43.5C5 43.2239 5.22386 43 5.5 43H11.5C11.7761 43 12 43.2239 12 43.5Z" fill="#333333"/>
<path fill-rule="evenodd" clip-rule="evenodd" d="M12 31.5C12 31.7761 11.7761 32 11.5 32H5.5C5.22386 32 5 31.7761 5 31.5C5 31.2239 5.22386 31 5.5 31H11.5C11.7761 31 12 31.2239 12 31.5Z" fill="#333333"/>
<defs>
<linearGradient id="paint0_linear_1133_7173" x1="28.5" y1="41" x2="28.5" y2="54" gradientUnits="userSpaceOnUse">
<stop stop-color="#FF8E3D"/>
<stop offset="1" stop-color="#FF6F3D"/>
</linearGradient>
<linearGradient id="paint1_linear_1133_7173" x1="35.5" y1="39" x2="35.5" y2="54" gradientUnits="userSpaceOnUse">
<stop stop-color="#FF8E3D"/>
<stop offset="1" stop-color="#FF6F3D"/>
</linearGradient>
<linearGradient id="paint2_linear_1133_7173" x1="42.5" y1="36" x2="42.5" y2="54" gradientUnits="userSpaceOnUse">
<stop stop-color="#FF8E3D"/>
<stop offset="1" stop-color="#FF6F3D"/>
</linearGradient>
<linearGradient id="paint3_linear_1133_7173" x1="49.5" y1="34" x2="49.5" y2="54" gradientUnits="userSpaceOnUse">
<stop stop-color="#FF8E3D"/>
<stop offset="1" stop-color="#FF6F3D"/>
</linearGradient>
<linearGradient id="paint4_linear_1133_7173" x1="56.4997" y1="29" x2="56.4997" y2="54" gradientUnits="userSpaceOnUse">
<stop stop-color="#FF8E3D"/>
<stop offset="1" stop-color="#FF6F3D"/>
</linearGradient>
</defs>
</svg>
