<svg width="64" height="62" viewBox="0 0 64 62" fill="none" xmlns="http://www.w3.org/2000/svg">
<path fill-rule="evenodd" clip-rule="evenodd" d="M13.861 34.1496V21H10.8623C9.07759 21 7.99707 22.326 7.99707 24.3621V34.1496H13.861Z" fill="#BDECFF"/>
<path d="M13.5063 4.67896H43.0658L49.3763 11.5485V34.1201H13.5063V4.67896Z" fill="white"/>
<path d="M42.9626 5L48.9568 11H42.9626V5Z" fill="url(#paint0_linear_1133_7165)"/>
<path fill-rule="evenodd" clip-rule="evenodd" d="M12.9922 4L42.9681 4L49.9559 10.7755L49.9331 30.0715H48.9417V11.3471L42.4603 4.9768H14.0208V33.9991H25.7757V35H12.9922V4Z" fill="#333333"/>
<path fill-rule="evenodd" clip-rule="evenodd" d="M41.9636 4L42.9719 4.00464L49.9557 11L49.9558 12H41.9636V4ZM42.9626 5L42.9626 11H48.9568L42.9626 5Z" fill="#333333"/>
<path fill-rule="evenodd" clip-rule="evenodd" d="M8.00929 20.9547C8.69393 20.3091 9.6309 20 10.6586 20H14.0226V34.2845H6.99805L6.99817 23.7645C6.99817 22.5369 7.31879 21.6058 8.00929 20.9547ZM8.00929 24.0605V33.8125H13.0114V20.9547H10.6586C8.74049 20.9547 8.00929 22.3246 8.00929 24.0605Z" fill="#333333"/>
<path fill-rule="evenodd" clip-rule="evenodd" d="M49.4016 20.8491V29.5289H55.5144V23.6765C55.5144 21.614 54.2994 20.8491 52.5276 20.8491H49.4016Z" fill="#BDECFF"/>
<path fill-rule="evenodd" clip-rule="evenodd" d="M48.9568 20H52.5257C53.4847 20 54.348 20.2129 54.9748 20.7669C55.6119 21.3301 55.9499 22.1962 55.9499 23.3736V30H48.9568V20ZM49.9801 21.0158V29.3651H54.9748V23.3736C54.9748 21.8784 54.1687 21.0158 52.6858 21.0158H49.9801Z" fill="#333333"/>
<path d="M58.0312 28.5C58.8721 28.5001 59.5304 28.9078 59.9482 29.4141C60.3371 29.8853 60.5701 30.5123 60.4775 31.0547L57.8604 54.9375C57.7403 56.4397 56.1392 57.5 54.3604 57.5H10.5088C8.69335 57.4999 7.24321 56.4196 7.0127 54.9775L7.01074 54.9648V54.9639L4.53809 36.5664L4.53906 36.5654C4.43693 35.909 4.52549 35.1591 4.91309 34.5537C5.31984 33.9185 6.01986 33.5 6.99805 33.5H26.7441L29.958 29.6152L29.9756 29.5928L29.9961 29.5732C30.7274 28.8695 31.6553 28.5 32.6738 28.5H58.0312Z" fill="url(#paint1_linear_1133_7165)" stroke="#333333"/>
<path d="M31.9736 8H17.9873V21H31.9736V8Z" fill="white"/>
<mask id="path-11-outside-1_1133_7165" maskUnits="userSpaceOnUse" x="17.9863" y="13" width="14" height="8" fill="black">
<rect fill="white" x="17.9863" y="13" width="14" height="8"/>
<path fill-rule="evenodd" clip-rule="evenodd" d="M18.9863 20L23.0876 16.0248L25.2959 18.0497L28.6354 14L30.9746 17.3493V20"/>
</mask>
<path fill-rule="evenodd" clip-rule="evenodd" d="M18.9863 20L23.0876 16.0248L25.2959 18.0497L28.6354 14L30.9746 17.3493V20" fill="#E0E0E0"/>
<path d="M18.2903 19.2819C17.8938 19.6663 17.8839 20.2994 18.2683 20.696C18.6527 21.0926 19.2857 21.1024 19.6823 20.7181L18.2903 19.2819ZM23.0876 16.0248L23.7634 15.2878C23.3732 14.93 22.7717 14.9383 22.3916 15.3068L23.0876 16.0248ZM25.2959 18.0497L24.6201 18.7868C24.8223 18.9721 25.0918 19.0663 25.3654 19.0473C25.6391 19.0282 25.8929 18.8975 26.0674 18.6859L25.2959 18.0497ZM28.6354 14L29.4552 13.4274C29.2762 13.1711 28.9877 13.0133 28.6753 13.0008C28.363 12.9883 28.0628 13.1226 27.8639 13.3638L28.6354 14ZM30.9746 17.3493H31.9746C31.9746 17.1445 31.9117 16.9447 31.7944 16.7768L30.9746 17.3493ZM29.9746 20C29.9746 20.5523 30.4223 21 30.9746 21C31.5268 21 31.9746 20.5523 31.9746 20H29.9746ZM19.6823 20.7181L23.7835 16.7429L22.3916 15.3068L18.2903 19.2819L19.6823 20.7181ZM22.4117 16.7619L24.6201 18.7868L25.9717 17.3126L23.7634 15.2878L22.4117 16.7619ZM26.0674 18.6859L29.4069 14.6362L27.8639 13.3638L24.5244 17.4135L26.0674 18.6859ZM27.8155 14.5726L30.1547 17.9219L31.7944 16.7768L29.4552 13.4274L27.8155 14.5726ZM29.9746 17.3493V20H31.9746V17.3493H29.9746Z" fill="#333333" mask="url(#path-11-outside-1_1133_7165)"/>
<path fill-rule="evenodd" clip-rule="evenodd" d="M17.9873 8.61905C17.9873 8.27716 18.2842 8 18.6505 8H31.2282C31.5945 8 31.9736 8.32299 31.9736 8.66488V20.3108C31.9736 20.6527 31.614 21 31.2477 21H18.671C18.3047 21 17.9873 20.7228 17.9873 20.381V8.61905ZM30.9746 8.92857V20H18.9863V8.92857H30.9746Z" fill="#333333"/>
<path fill-rule="evenodd" clip-rule="evenodd" d="M17.9873 24.4821C17.9873 24.2158 18.1329 24 18.3126 24H45.6346C45.8142 24 45.9598 24.2158 45.9598 24.4821C45.9598 24.7484 45.8142 24.9642 45.6346 24.9642H18.3126C18.1329 24.9642 17.9873 24.7484 17.9873 24.4821Z" fill="#333333"/>
<path fill-rule="evenodd" clip-rule="evenodd" d="M33.9714 11.4821C33.9714 11.2158 34.1312 11 34.3282 11H38.6097C38.8068 11 38.9665 11.2158 38.9665 11.4821C38.9665 11.7484 38.8068 11.9642 38.6097 11.9642H34.3282C34.1312 11.9642 33.9714 11.7484 33.9714 11.4821Z" fill="#333333"/>
<path fill-rule="evenodd" clip-rule="evenodd" d="M33.9714 14.4821C33.9714 14.2158 34.1161 14 34.2946 14H44.6374C44.8159 14 44.9606 14.2158 44.9606 14.4821C44.9606 14.7484 44.8159 14.9642 44.6374 14.9642H39.466H34.2946C34.1161 14.9642 33.9714 14.7484 33.9714 14.4821Z" fill="#333333"/>
<path fill-rule="evenodd" clip-rule="evenodd" d="M33.9714 17.4821C33.9714 17.2158 34.1161 17 34.2946 17H44.6374C44.8159 17 44.9606 17.2158 44.9606 17.4821C44.9606 17.7484 44.8159 17.9642 44.6374 17.9642H34.2946C34.1161 17.9642 33.9714 17.7484 33.9714 17.4821Z" fill="#333333"/>
<path fill-rule="evenodd" clip-rule="evenodd" d="M17.9873 27.4821C17.9873 27.2158 18.1421 27 18.3331 27H26.6327C26.8236 27 26.9785 27.2158 26.9785 27.4821C26.9785 27.7484 26.8236 27.9642 26.6327 27.9642H18.3331C18.1421 27.9642 17.9873 27.7484 17.9873 27.4821Z" fill="#333333"/>
<path d="M23.1383 11.2676C23.1383 12.0664 22.4691 12.7139 21.6437 12.7139C20.8183 12.7139 20.1492 12.0664 20.1492 11.2676C20.1492 10.4688 20.8183 9.82129 21.6437 9.82129C22.4691 9.82129 23.1383 10.4688 23.1383 11.2676Z" fill="url(#paint2_linear_1133_7165)"/>
<defs>
<linearGradient id="paint0_linear_1133_7165" x1="42.9627" y1="4.76562" x2="48.9629" y2="10.9941" gradientUnits="userSpaceOnUse">
<stop stop-color="#FFC671"/>
<stop offset="0.59375" stop-color="#FF7541"/>
<stop offset="1" stop-color="#FF6F3D"/>
</linearGradient>
<linearGradient id="paint1_linear_1133_7165" x1="4.12004" y1="34.4337" x2="29.0187" y2="75.699" gradientUnits="userSpaceOnUse">
<stop stop-color="#FFC671"/>
<stop offset="0.652615" stop-color="#FF8657"/>
</linearGradient>
<linearGradient id="paint2_linear_1133_7165" x1="21.6437" y1="9.82129" x2="21.6437" y2="12.7139" gradientUnits="userSpaceOnUse">
<stop stop-color="#FF8E3D"/>
<stop offset="1" stop-color="#FF6F3D"/>
</linearGradient>
</defs>
</svg>
