<svg width="64" height="62" viewBox="0 0 64 62" fill="none" xmlns="http://www.w3.org/2000/svg">
<path fill-rule="evenodd" clip-rule="evenodd" d="M4.08059 22.895C2.77554 23.8001 2 25.268 2 26.8331V54.3145C2 56.9805 4.19283 59.2187 6.91792 59.2187H57.0708C59.7959 59.2187 62 56.9805 62 54.3145V26.8331C62 25.268 61.2245 23.8001 59.9194 22.895L34.8536 5.51052C33.1442 4.32494 30.8558 4.32494 29.1464 5.51052L4.08059 22.895Z" fill="white"/>
<path fill-rule="evenodd" clip-rule="evenodd" d="M38.0702 39.7847C31.5138 44.6869 30.827 43.9327 25.4276 40.1618L4.21582 57.7612C4.60149 58.6394 5.95133 59.0361 6.72267 59.0165H56.2812C58.2909 59.0361 58.9809 58.6394 59.7522 57.8852L38.0702 39.7847Z" fill="#EFEFEF"/>
<path fill-rule="evenodd" clip-rule="evenodd" d="M50.6961 17.1387V31.9601L61.5 24.3439L50.6961 17.1387Z" fill="#BDECFF"/>
<path fill-rule="evenodd" clip-rule="evenodd" d="M13.5308 16.9221V32.4157L2.5 24.8282L13.5308 16.9221Z" fill="#BDECFF"/>
<path fill-rule="evenodd" clip-rule="evenodd" d="M37 7.18557L27 7.18557L31.8718 4L37 7.18557Z" fill="#BDECFF"/>
<path fill-rule="evenodd" clip-rule="evenodd" d="M61.0132 54.9698V26.7824C61 25.1228 60.3927 24.2937 59.3487 23.551L34.2829 5.71988C32.9154 4.74705 31.0847 4.74705 29.7171 5.71988L4.65132 23.551C3.60728 24.2937 3 25.1228 2.98684 26.7824V54.9698C2.98684 57.1574 4.73785 59.0097 6.91792 59.0097H57.0708C59.2509 59.0097 61.0132 57.1574 61.0132 54.9698ZM4.08059 22.7431C2.77554 23.6715 2 24.6316 2 26.7824V54.9698C2 57.7043 4.19283 60 6.91792 60H57.0708C59.7959 60 62 57.7043 62 54.9698V26.7824C62 24.6316 61.2245 23.6715 59.9194 22.7431L34.8536 4.91203C33.1442 3.69599 30.8558 3.69599 29.1464 4.91203L4.08059 22.7431Z" fill="#333333"/>
<path fill-rule="evenodd" clip-rule="evenodd" d="M33.2055 43.2319L51 31.9338V7H20.6379L13.0386 14.3176L13 32.3602L29.2512 43.2319C30.699 43.9994 31.5693 44.0126 33.2055 43.2319ZM20.1563 14.0126H14.2249L20.1563 8.16877V14.0126Z" fill="white"/>
<path d="M41.2801 23.3978C41.2801 24.4801 41.1042 25.4716 40.7524 26.3722C40.4006 27.2653 39.9042 27.9615 39.2631 28.4611C38.6299 28.9606 37.8951 29.2103 37.0586 29.2103C36.441 29.2103 35.9055 29.0514 35.452 28.7335C34.9986 28.4156 34.6937 27.9843 34.5374 27.4393H34.3966C34.0136 28.0297 33.5406 28.4724 32.9777 28.7676C32.4149 29.0627 31.7816 29.2103 31.078 29.2103C29.8038 29.2103 28.7992 28.813 28.0643 28.0183C27.3373 27.2236 26.9738 26.1489 26.9738 24.7942C26.9738 23.2351 27.4585 21.9712 28.4279 21.0024C29.3972 20.0261 30.6989 19.538 32.3328 19.538C32.9269 19.538 33.5836 19.5909 34.3028 19.6969C35.0299 19.7953 35.6748 19.9353 36.2377 20.1169L35.9797 25.3959V25.6683C35.9797 26.8793 36.3862 27.4847 37.1993 27.4847C37.8169 27.4847 38.3055 27.0988 38.6651 26.3268C39.0325 25.5548 39.2162 24.5709 39.2162 23.3751C39.2162 22.0809 38.9426 20.9457 38.3954 19.9694C37.8481 18.9855 37.0703 18.2286 36.0618 17.6989C35.0533 17.1691 33.8963 16.9042 32.5908 16.9042C30.9256 16.9042 29.4754 17.2372 28.2402 17.9032C27.0129 18.5692 26.0747 19.5228 25.4259 20.764C24.777 21.9977 24.4526 23.4319 24.4526 25.0667C24.4526 27.2615 25.0584 28.9492 26.2702 30.1299C27.4819 31.3105 29.2213 31.9009 31.4885 31.9009C33.2162 31.9009 35.0182 31.5603 36.8944 30.8792V32.741C35.2527 33.3918 33.4663 33.7173 31.5354 33.7173C28.6428 33.7173 26.3874 32.9642 24.7692 31.4581C23.1509 29.9445 22.3418 27.8367 22.3418 25.1348C22.3418 23.1594 22.7796 21.4036 23.6552 19.8672C24.5307 18.3232 25.7425 17.1426 27.2904 16.3252C28.8461 15.5078 30.6051 15.0991 32.5673 15.0991C34.2637 15.0991 35.7726 15.4397 37.0937 16.1208C38.4227 16.802 39.4508 17.7745 40.1778 19.0385C40.9127 20.2948 41.2801 21.7479 41.2801 23.3978ZM29.2253 24.8396C29.2253 26.603 29.9406 27.4847 31.3712 27.4847C32.88 27.4847 33.7048 26.376 33.8455 24.1584L33.9862 21.4452C33.4937 21.3165 32.966 21.2522 32.4031 21.2522C31.4025 21.2522 30.6207 21.5739 30.0578 22.2172C29.5028 22.8605 29.2253 23.7346 29.2253 24.8396Z" fill="#FF6F3D"/>
<path d="M21 7.875V14.6563H14L21 7.875Z" fill="#FF6F3D"/>
<path fill-rule="evenodd" clip-rule="evenodd" d="M14.0121 15H21V7.98103L50 7.96296V32.037L51 31.0741V7H20.5108L13 14.1696V32.3455L14 33L14.0121 15ZM20 14H14.7171L20 8.92593V14Z" fill="#333333"/>
<path fill-rule="evenodd" clip-rule="evenodd" d="M38.8658 39.7179L61.4997 25.3125L60.9515 24.4998L37.7545 39.2596L33.7414 41.8959C32.208 42.9032 30.1932 42.9032 28.6598 41.8959L25.4584 39.7927L2.99951 24.8282L2.43449 25.6301L24.3514 40.2382L3.52108 57.2811L4.175 58.0172L25.2113 40.8035L28.0952 42.698C29.9693 43.9293 32.4319 43.9293 34.306 42.698L37.9944 40.275L59.6972 58.2501L60.3484 57.5116L38.8658 39.7179Z" fill="#333333"/>
</svg>
