<svg width="2053" height="1854" viewBox="0 0 2053 1854" fill="none" xmlns="http://www.w3.org/2000/svg">
<path opacity="0.05" fill-rule="evenodd" clip-rule="evenodd" d="M1062.94 3.87311L153.058 168.476C75.3342 183.304 61.5586 234.715 122.266 283.394L827.942 880.884C887.839 932.587 998.534 962.248 1073.27 946.618L1983.14 782.016C2060.87 767.187 2074.64 715.776 2013.94 667.097L1308.26 69.6077C1247.55 20.9283 1136.86 -8.73249 1062.94 3.87311Z" fill="#0B63CE"/>
<path opacity="0.3" fill-rule="evenodd" clip-rule="evenodd" d="M579.29 1153.67L1142.29 1818.61C1191.01 1875.04 1239.45 1862.06 1250.57 1789.59L1405.67 932.237C1419.65 859 1391.7 754.695 1343.73 701.074L780.736 36.1348C732.017 -20.3047 683.574 -7.32439 672.451 65.1496L517.35 922.503C506.228 994.977 534.176 1099.28 579.29 1153.67Z" fill="white"/>
<path opacity="0.3" fill-rule="evenodd" clip-rule="evenodd" d="M358.653 383.575L14.6317 879.559C-14.4013 922.281 2.97136 952.371 53.4647 946.819L655.009 896.88C706.525 893.098 771.313 855.692 798.595 813.981L1142.62 317.997C1171.65 275.275 1154.28 245.184 1103.78 250.736L502.239 300.676C451.746 306.228 386.957 343.634 358.653 383.575Z" fill="white"/>
</svg>
