<svg width="80" height="80" viewBox="0 0 80 80" fill="none" xmlns="http://www.w3.org/2000/svg">
<path fill-rule="evenodd" clip-rule="evenodd" d="M5.89951 0C2.65802 0 0 2.59318 0 5.89951V74.1005C0 77.342 2.59319 80 5.89951 80H74.1005C77.342 80 80 77.4068 80 74.1005V5.89951C80 2.65802 77.4068 0 74.1005 0H5.89951ZM11.8637 13.355C11.8637 12.5122 12.512 11.8639 13.3548 11.8639H22.2365C23.0793 11.8639 23.7276 12.5122 23.7276 13.355V22.2367C23.7276 23.0794 23.0793 23.7277 22.2365 23.7277H13.3548C12.512 23.7277 11.8637 23.0794 11.8637 22.2367V13.355ZM28.1359 11.8639C27.2931 11.8639 26.6448 12.5122 26.6448 13.355V22.2367C26.6448 23.0794 27.2931 23.7277 28.1359 23.7277H37.0176C37.8604 23.7277 38.5087 23.0794 38.5087 22.2367V13.355C38.5087 12.5122 37.8604 11.8639 37.0176 11.8639H28.1359ZM41.4911 13.355C41.4911 12.5122 42.1394 11.8639 42.9822 11.8639H51.8639C52.7066 11.8639 53.3549 12.5122 53.3549 13.355V22.2367C53.3549 23.0794 52.7066 23.7277 51.8639 23.7277H42.9822C42.1394 23.7277 41.4911 23.0794 41.4911 22.2367V13.355ZM13.3548 26.7099C12.512 26.7099 11.8637 27.3581 11.8637 28.2009V37.0826C11.8637 37.9254 12.512 38.5737 13.3548 38.5737H22.2365C23.0793 38.5737 23.7276 37.9254 23.7276 37.0826V28.2009C23.7276 27.3581 23.0793 26.7099 22.2365 26.7099H13.3548ZM26.6448 28.1361C26.6448 27.2933 27.2931 26.645 28.1359 26.645H37.0176C37.8604 26.645 38.5087 27.2933 38.5087 28.1361V37.0826C38.5087 37.9253 37.8604 38.5736 37.0176 38.5736H28.1359C27.2931 38.5736 26.6448 37.9253 26.6448 37.0826V28.1361ZM57.8281 26.7099C56.9853 26.7099 56.337 27.3581 56.337 28.2009V37.0826C56.337 37.9254 56.9853 38.5737 57.8281 38.5737H66.7098C67.5526 38.5737 68.2009 37.9254 68.2009 37.0826V28.2009C68.2009 27.3581 67.5526 26.7099 66.7098 26.7099H57.8281ZM11.8637 42.9822C11.8637 42.1394 12.512 41.4911 13.3548 41.4911H22.2365C23.0793 41.4911 23.7276 42.1394 23.7276 42.9822V51.8638C23.7276 52.7066 23.0793 53.3549 22.2365 53.3549H13.3548C12.512 53.3549 11.8637 52.7066 11.8637 51.8638V42.9822ZM42.9822 41.4911C42.1394 41.4911 41.4911 42.1394 41.4911 42.9822V51.8638C41.4911 52.7066 42.1394 53.3549 42.9822 53.3549H51.8639C52.7066 53.3549 53.3549 52.7066 53.3549 51.8638V42.9822C53.3549 42.1394 52.7066 41.4911 51.8639 41.4911H42.9822ZM56.337 42.9822C56.337 42.1394 56.9853 41.4911 57.8281 41.4911H66.7098C67.5526 41.4911 68.2009 42.1394 68.2009 42.9822V51.8638C68.2009 52.7066 67.5526 53.3549 66.7098 53.3549H57.8281C56.9853 53.3549 56.337 52.7066 56.337 51.8638V42.9822ZM28.1359 56.337C27.2931 56.337 26.6448 56.9853 26.6448 57.8281V66.7098C26.6448 67.5526 27.2931 68.2009 28.1359 68.2009H37.0176C37.8604 68.2009 38.5087 67.5526 38.5087 66.7098V57.8281C38.5087 56.9853 37.8604 56.337 37.0176 56.337H28.1359ZM41.4911 57.8281C41.4911 56.9853 42.1394 56.337 42.9822 56.337H51.8639C52.7066 56.337 53.3549 56.9853 53.3549 57.8281V66.7098C53.3549 67.5526 52.7066 68.2009 51.8639 68.2009H42.9822C42.1394 68.2009 41.4911 67.5526 41.4911 66.7098V57.8281ZM57.8281 56.337C56.9853 56.337 56.337 56.9853 56.337 57.8281V66.7098C56.337 67.5526 56.9853 68.2009 57.8281 68.2009H66.7098C67.5526 68.2009 68.2009 67.5526 68.2009 66.7098V57.8281C68.2009 56.9853 67.5526 56.337 66.7098 56.337H57.8281Z" fill="#0B63CE"/>
</svg>
