<svg width="504" height="64" viewBox="0 0 504 64" fill="none" xmlns="http://www.w3.org/2000/svg">
<g clip-path="url(#clip0)">
<circle cx="32" cy="31" r="32" fill="#F5F5F5"/>
<path fill-rule="evenodd" clip-rule="evenodd" d="M23.1051 28.0497L24 28.5L19.8748 30.583C19.6942 30.6638 19.5914 30.7437 19.5399 30.8008C19.5159 30.8275 19.5061 30.8453 19.5024 30.8542C19.5061 30.8632 19.5159 30.8812 19.5403 30.9083C19.5919 30.9657 19.6945 31.0457 19.8749 31.1268L30.5746 35.8907C30.9401 36.0554 31.4566 36.1497 32.0009 36.1497C32.545 36.1497 33.0622 36.0555 33.4289 35.8905L33.4306 35.8898L44.1248 31.1271C44.3055 31.0459 44.409 30.9656 44.4607 30.9081C44.4849 30.8811 44.4948 30.8632 44.4986 30.8542C44.4948 30.8453 44.485 30.8276 44.4611 30.801C44.4094 30.7438 44.3067 30.664 44.1256 30.5831L40 28.5L40.9003 28.0498L44.5332 29.6699C45.0319 29.8927 45.5 30.2828 45.5 30.8542C45.5 31.425 45.0327 31.8157 44.5343 32.0394L44.533 32.04L33.8392 36.8025L33.8382 36.8029C33.3062 37.042 32.6398 37.1497 32.0009 37.1497C31.3621 37.1497 30.696 37.042 30.1649 36.8029L30.1637 36.8023L19.4673 32.04L19.4657 32.0393C18.9676 31.8154 18.501 31.4247 18.501 30.8542C18.501 30.2831 18.9689 29.8927 19.4673 29.6698L23.1051 28.0497ZM44.5008 30.8611L44.5002 30.8587ZM44.5002 30.8497L44.5007 30.8474ZM19.5003 30.8475L19.5008 30.8498ZM19.5008 30.8586L19.5003 30.861ZM19.4667 37.505L23.1051 35.8907L24 36.5L19.8742 38.4182C19.6939 38.4991 19.5909 38.5792 19.5393 38.6366C19.5148 38.6639 19.505 38.682 19.5013 38.691C19.505 38.6998 19.5147 38.7177 19.539 38.7447C19.5904 38.8018 19.6928 38.8814 19.8732 38.9619L30.5717 43.7302C30.9376 43.8939 31.4552 43.9878 31.9999 43.9878C32.5445 43.9878 33.0621 43.8942 33.4292 43.7303L44.1248 38.962C44.306 38.8811 44.409 38.8012 44.4607 38.7439C44.4849 38.7172 44.4947 38.6994 44.4985 38.6904C44.4947 38.6814 44.4849 38.6636 44.4607 38.6367C44.4091 38.5794 44.3064 38.4995 44.1257 38.4185L40 36.5L40.9003 35.8907L44.5339 37.5056C45.0326 37.7289 45.5001 38.1196 45.4999 38.6909C45.4996 39.2622 45.0316 39.6524 44.5323 39.8752L33.8369 44.6434C33.3052 44.8808 32.6388 44.9878 31.9999 44.9878C31.361 44.9878 30.695 44.8808 30.164 44.6433L19.4662 39.8753C18.9671 39.6527 18.5 39.2622 18.5 38.691C18.5 38.1203 18.9663 37.7293 19.4652 37.5057L19.4667 37.505ZM44.5006 38.6972L44.5001 38.6948ZM44.5001 38.6859L44.5006 38.6836ZM19.4993 38.6844L19.4998 38.6868ZM19.4998 38.6952L19.4993 38.6975Z" fill="#333333"/>
<path fill-rule="evenodd" clip-rule="evenodd" d="M33.8385 18.0648C33.8386 18.0649 33.8383 18.0647 33.8385 18.0648L44.5326 22.8314C45.0315 23.0531 45.5 23.4426 45.5 24.0144C45.5 24.5848 45.0333 24.976 44.5352 25.2008L44.5332 25.2016L33.8366 29.9724C33.3052 30.2078 32.6394 30.314 32.0009 30.314C31.3624 30.314 30.6968 30.2079 30.1662 29.9722L19.4671 25.2017L19.4649 25.2007C18.967 24.9758 18.501 24.5845 18.501 24.0144C18.501 23.443 18.9686 23.0535 19.4672 22.8316C19.4673 22.8316 19.4671 22.8317 19.4672 22.8316L30.1645 18.0649C30.1648 18.0648 30.1643 18.065 30.1645 18.0649C30.6955 17.8269 31.3624 17.7194 32.0012 17.7194C32.6401 17.7194 33.307 17.8268 33.8385 18.0648ZM32.0012 18.7194C31.4565 18.7194 30.9395 18.8132 30.5738 18.9773L30.5727 18.9778L19.8742 23.745C19.6935 23.8254 19.5909 23.905 19.5396 23.9618C19.5158 23.9882 19.5061 24.0057 19.5024 24.0146C19.5061 24.0236 19.516 24.0418 19.5406 24.0693C19.5924 24.127 19.6951 24.2073 19.8754 24.2888C19.8758 24.289 19.8761 24.2892 19.8765 24.2893L30.5721 29.0583C30.5721 29.0583 30.572 29.0583 30.5721 29.0583C30.9384 29.2209 31.4558 29.314 32.0009 29.314C32.5457 29.314 33.0637 29.221 33.4312 29.0583C33.4313 29.0582 33.431 29.0583 33.4312 29.0583L44.1239 24.2892C44.1242 24.2891 44.1236 24.2894 44.1239 24.2892C44.3047 24.2076 44.4084 24.1269 44.4604 24.0691C44.4849 24.0418 44.4948 24.0236 44.4986 24.0146C44.4948 24.0057 44.485 23.9882 44.4614 23.962C44.41 23.9051 44.3075 23.8257 44.1265 23.7453L33.4305 18.9778C33.0641 18.8136 32.5459 18.7194 32.0012 18.7194ZM44.5002 24.01C44.5004 24.0085 44.5006 24.0077 44.5007 24.0077L44.5002 24.01ZM19.5003 24.0078C19.5004 24.0078 19.5006 24.0086 19.5008 24.0101L19.5003 24.0078Z" fill="#333333"/>
<circle cx="142" cy="32" r="32" fill="#F5F5F5"/>
<path d="M132 19.5C131.172 19.5 130.5 20.1716 130.5 21V25.75V31.5V37.25V42C130.5 42.8284 131.172 43.5 132 43.5H153C153.828 43.5 154.5 42.8284 154.5 42V21C154.5 20.1716 153.828 19.5 153 19.5H132Z" stroke="#333333"/>
<path d="M135 37L138 33H131.5H127C124.858 33 124.858 30 127 30H138L135 26H139L143.096 31.5L139 37H135Z" fill="url(#paint0_linear)"/>
<circle cx="252" cy="31" r="32" fill="#F5F5F5"/>
<path fill-rule="evenodd" clip-rule="evenodd" d="M251.421 37.8292C251.723 38.1515 252.212 38.1515 252.514 37.8292L258.728 31.1803C259.029 30.858 259.029 30.3332 258.728 30.0109L254.975 29.9931V19L248.984 19.0179V30.0109H245.207C244.906 30.3332 244.906 30.858 245.207 31.1803L251.421 37.8292Z" fill="url(#paint1_linear)"/>
<path d="M238.5 37.9952L238.508 41.4984C238.508 42.0523 238.959 42.5 239.515 42.5H264.496C265.052 42.5 265.504 42.0523 265.504 41.4984V38" stroke="#333333"/>
<circle cx="362" cy="32" r="32" fill="#F5F5F5"/>
<path d="M353.189 29.5626V30.3706L352.466 30.0101C351.597 29.5767 350.628 29.3106 349.614 29.3106C346.227 29.3106 343.447 32.0439 343.501 35.3973L343.501 35.3973V35.4053C343.501 38.7723 346.234 41.5 349.614 41.5H372.646C376.957 41.5 380.5 38.018 380.5 33.6699C380.5 29.3261 376.96 25.838 372.585 25.7819C371.339 25.7824 370.14 26.1065 369.04 26.6549L368.553 26.8977L368.352 26.3921C367.207 23.5092 364.372 21.4468 361.051 21.501V21.5011H361.043C356.733 21.5011 353.189 24.9831 353.189 29.3313V29.3316V29.3319V29.3323V29.3326V29.333V29.3333V29.3337V29.334V29.3344V29.3347V29.3351V29.3354V29.3358V29.3361V29.3365V29.3368V29.3372V29.3376V29.3379V29.3383V29.3387V29.339V29.3394V29.3398V29.3401V29.3405V29.3409V29.3412V29.3416V29.342V29.3424V29.3427V29.3431V29.3435V29.3439V29.3443V29.3447V29.345V29.3454V29.3458V29.3462V29.3466V29.347V29.3474V29.3478V29.3482V29.3486V29.349V29.3493V29.3497V29.3501V29.3505V29.3509V29.3513V29.3518V29.3522V29.3526V29.353V29.3534V29.3538V29.3542V29.3546V29.355V29.3554V29.3558V29.3563V29.3567V29.3571V29.3575V29.3579V29.3583V29.3588V29.3592V29.3596V29.36V29.3605V29.3609V29.3613V29.3617V29.3622V29.3626V29.363V29.3635V29.3639V29.3643V29.3647V29.3652V29.3656V29.3661V29.3665V29.3669V29.3674V29.3678V29.3682V29.3687V29.3691V29.3696V29.37V29.3705V29.3709V29.3714V29.3718V29.3722V29.3727V29.3731V29.3736V29.374V29.3745V29.3749V29.3754V29.3759V29.3763V29.3768V29.3772V29.3777V29.3781V29.3786V29.379V29.3795V29.38V29.3804V29.3809V29.3814V29.3818V29.3823V29.3827V29.3832V29.3837V29.3841V29.3846V29.3851V29.3855V29.386V29.3865V29.387V29.3874V29.3879V29.3884V29.3888V29.3893V29.3898V29.3903V29.3907V29.3912V29.3917V29.3922V29.3926V29.3931V29.3936V29.3941V29.3946V29.395V29.3955V29.396V29.3965V29.397V29.3974V29.3979V29.3984V29.3989V29.3994V29.3999V29.4004V29.4008V29.4013V29.4018V29.4023V29.4028V29.4033V29.4038V29.4043V29.4047V29.4052V29.4057V29.4062V29.4067V29.4072V29.4077V29.4082V29.4087V29.4092V29.4097V29.4102V29.4107V29.4112V29.4117V29.4121V29.4126V29.4131V29.4136V29.4141V29.4146V29.4151V29.4156V29.4161V29.4166V29.4171V29.4176V29.4181V29.4186V29.4191V29.4196V29.4201V29.4206V29.4211V29.4216V29.4221V29.4226V29.4231V29.4236V29.4241V29.4246V29.4252V29.4257V29.4262V29.4267V29.4272V29.4277V29.4282V29.4287V29.4292V29.4297V29.4302V29.4307V29.4312V29.4317V29.4322V29.4327V29.4332V29.4337V29.4342V29.4348V29.4353V29.4358V29.4363V29.4368V29.4373V29.4378V29.4383V29.4388V29.4393V29.4398V29.4403V29.4408V29.4414V29.4419V29.4424V29.4429V29.4434V29.4439V29.4444V29.4449V29.4454V29.4459V29.4464V29.4469V29.4475V29.448V29.4485V29.449V29.4495V29.45V29.4505V29.451V29.4515V29.452V29.4525V29.453V29.4536V29.4541V29.4546V29.4551V29.4556V29.4561V29.4566V29.4571V29.4576V29.4581V29.4586V29.4591V29.4596V29.4602V29.4607V29.4612V29.4617V29.4622V29.4627V29.4632V29.4637V29.4642V29.4647V29.4652V29.4657V29.4662V29.4667V29.4672V29.4677V29.4682V29.4687V29.4692V29.4697V29.4703V29.4708V29.4713V29.4718V29.4723V29.4728V29.4733V29.4738V29.4743V29.4748V29.4753V29.4758V29.4763V29.4768V29.4773V29.4778V29.4783V29.4788V29.4793V29.4798V29.4803V29.4808V29.4812V29.4817V29.4822V29.4827V29.4832V29.4837V29.4842V29.4847V29.4852V29.4857V29.4862V29.4867V29.4872V29.4877V29.4882V29.4887V29.4891V29.4896V29.4901V29.4906V29.4911V29.4916V29.4921V29.4926V29.4931V29.4935V29.494V29.4945V29.495V29.4955V29.496V29.4964V29.4969V29.4974V29.4979V29.4984V29.4989V29.4993V29.4998V29.5003V29.5008V29.5012V29.5017V29.5022V29.5027V29.5032V29.5036V29.5041V29.5046V29.5051V29.5055V29.506V29.5065V29.5069V29.5074V29.5079V29.5083V29.5088V29.5093V29.5098V29.5102V29.5107V29.5111V29.5116V29.5121V29.5125V29.513V29.5135V29.5139V29.5144V29.5148V29.5153V29.5158V29.5162V29.5167V29.5171V29.5176V29.518V29.5185V29.5189V29.5194V29.5199V29.5203V29.5208V29.5212V29.5216V29.5221V29.5225V29.523V29.5234V29.5239V29.5243V29.5248V29.5252V29.5256V29.5261V29.5265V29.527V29.5274V29.5278V29.5283V29.5287V29.5291V29.5296V29.53V29.5304V29.5309V29.5313V29.5317V29.5322V29.5326V29.533V29.5334V29.5339V29.5343V29.5347V29.5351V29.5355V29.536V29.5364V29.5368V29.5372V29.5376V29.5381V29.5385V29.5389V29.5393V29.5397V29.5401V29.5405V29.5409V29.5413V29.5417V29.5421V29.5425V29.5429V29.5433V29.5437V29.5441V29.5445V29.5449V29.5453V29.5457V29.5461V29.5465V29.5469V29.5473V29.5477V29.5481V29.5485V29.5489V29.5492V29.5496V29.55V29.5504V29.5508V29.5511V29.5515V29.5519V29.5523V29.5527V29.553V29.5534V29.5538V29.5541V29.5545V29.5549V29.5552V29.5556V29.556V29.5563V29.5567V29.5571V29.5574V29.5578V29.5581V29.5585V29.5588V29.5592V29.5595V29.5599V29.5602V29.5606V29.5609V29.5613V29.5616V29.562V29.5623V29.5626Z" stroke="#333333"/>
<circle cx="472" cy="32" r="32" fill="#F5F5F5"/>
<path fill-rule="evenodd" clip-rule="evenodd" d="M480.068 29.297L474.623 24.0704L478.52 20.1761L483.891 25.4023L480.068 29.297Z" fill="url(#paint2_linear)"/>
<mask id="path-14-outside-1" maskUnits="userSpaceOnUse" x="459" y="19.9989" width="25" height="25" fill="black">
<rect fill="white" x="459" y="19.9989" width="25" height="25"/>
<path fill-rule="evenodd" clip-rule="evenodd" d="M479.053 29.8994L467.31 41.5236C467.184 41.6481 467.028 41.7371 466.856 41.7812L462.251 42.9685C461.52 43.1569 460.851 42.4983 461.029 41.7645L462.19 36.9768C462.234 36.7967 462.327 36.6322 462.458 36.5018L474.014 25.0627L479.053 29.8994ZM479.885 29.0758L482.703 26.2863C483.093 25.9006 483.099 25.273 482.718 24.8794L479.249 21.3027C478.862 20.9034 478.223 20.8969 477.828 21.2882L474.847 24.2391L479.885 29.0758Z"/>
</mask>
<path d="M467.31 41.5236L466.607 40.8129L466.607 40.8129L467.31 41.5236ZM479.053 29.8994L479.757 30.6101L480.486 29.8884L479.746 29.1779L479.053 29.8994ZM466.856 41.7812L466.607 40.8129L466.607 40.8129L466.856 41.7812ZM462.251 42.9685L462.5 43.9368H462.5L462.251 42.9685ZM461.029 41.7645L460.057 41.5289H460.057L461.029 41.7645ZM462.19 36.9768L463.162 37.2125L462.19 36.9768ZM462.458 36.5018L463.162 37.2125L463.162 37.2125L462.458 36.5018ZM474.014 25.0627L474.707 24.3413L474.004 23.6663L473.311 24.352L474.014 25.0627ZM479.885 29.0758L479.193 29.7972L479.896 30.4722L480.589 29.7865L479.885 29.0758ZM482.703 26.2863L482 25.5756V25.5756L482.703 26.2863ZM482.718 24.8794L483.436 24.1833V24.1833L482.718 24.8794ZM479.249 21.3027L478.531 21.9989V21.9989L479.249 21.3027ZM477.828 21.2882L477.124 20.5775V20.5775L477.828 21.2882ZM474.847 24.2391L474.143 23.5284L473.414 24.2501L474.154 24.9605L474.847 24.2391ZM468.014 42.2343L479.757 30.6101L478.35 29.1887L466.607 40.8129L468.014 42.2343ZM467.106 42.7496C467.449 42.6612 467.762 42.4834 468.014 42.2343L466.607 40.8129L466.607 40.8129L467.106 42.7496ZM462.5 43.9368L467.106 42.7496L466.607 40.8129L462.001 42.0001L462.5 43.9368ZM460.057 41.5289C459.702 42.9964 461.038 44.3138 462.5 43.9368L462.001 42.0001L462.001 42.0001L460.057 41.5289ZM461.218 36.7412L460.057 41.5289L462.001 42.0001L463.162 37.2125L461.218 36.7412ZM461.755 35.7911C461.491 36.0519 461.306 36.3809 461.218 36.7412L463.162 37.2125L463.162 37.2125L461.755 35.7911ZM473.311 24.352L461.755 35.7911L463.162 37.2125L474.718 25.7734L473.311 24.352ZM479.746 29.1779L474.707 24.3413L473.322 25.7842L478.361 30.6208L479.746 29.1779ZM480.589 29.7865L483.407 26.997L482 25.5756L479.182 28.3651L480.589 29.7865ZM483.407 26.997C484.186 26.2256 484.199 24.9705 483.436 24.1833L482 25.5756L482 25.5756L483.407 26.997ZM483.436 24.1833L479.967 20.6065L478.531 21.9989L482 25.5756L483.436 24.1833ZM479.967 20.6065C479.192 19.8079 477.915 19.7948 477.124 20.5775L478.531 21.9989V21.9989L479.967 20.6065ZM477.124 20.5775L474.143 23.5284L475.55 24.9498L478.531 21.9989L477.124 20.5775ZM474.154 24.9605L479.193 29.7972L480.578 28.3543L475.539 23.5177L474.154 24.9605Z" fill="#333333" mask="url(#path-14-outside-1)"/>
</g>
<defs>
<linearGradient id="paint0_linear" x1="125.394" y1="25.5703" x2="135.091" y2="41.7871" gradientUnits="userSpaceOnUse">
<stop stop-color="#FF8E3D"/>
<stop offset="1" stop-color="#FF6F3D"/>
</linearGradient>
<linearGradient id="paint1_linear" x1="244.981" y1="18.255" x2="263.378" y2="32.2599" gradientUnits="userSpaceOnUse">
<stop stop-color="#FF8E3D"/>
<stop offset="1" stop-color="#FF6F3D"/>
</linearGradient>
<linearGradient id="paint2_linear" x1="474.623" y1="19.8199" x2="483.737" y2="29.4429" gradientUnits="userSpaceOnUse">
<stop stop-color="#FF8E3D"/>
<stop offset="1" stop-color="#FF6F3D"/>
</linearGradient>
<clipPath id="clip0">
<rect width="504" height="64" fill="white"/>
</clipPath>
</defs>
</svg>
