<svg width="72" height="72" viewBox="0 0 72 72" fill="none" xmlns="http://www.w3.org/2000/svg">
<path d="M23.4999 17.5H12.4999C10.7999 17.5 9.49994 18.8 9.49994 20.5V50.5C9.49994 52.2 10.7999 53.5 12.4999 53.5H58.4999C60.1999 53.5 61.4999 52.2 61.4999 50.5V20.5C61.4999 18.8 60.1999 17.5 58.4999 17.5H47.9999" fill="white"/>
<path d="M23.4999 17.5H12.4999C10.7999 17.5 9.49994 18.8 9.49994 20.5V50.5C9.49994 52.2 10.7999 53.5 12.4999 53.5H58.4999C60.1999 53.5 61.4999 52.2 61.4999 50.5V20.5C61.4999 18.8 60.1999 17.5 58.4999 17.5H47.9999" stroke="#333333" stroke-miterlimit="10" stroke-linecap="round" stroke-linejoin="round"/>
<path d="M61.4999 47.5H9.49994V50.5C9.49994 52.2 10.7999 53.5 12.4999 53.5H58.4999C60.1999 53.5 61.4999 52.2 61.4999 50.5V47.5Z" fill="#EFEFEF" stroke="#333333" stroke-miterlimit="10" stroke-linecap="round" stroke-linejoin="round"/>
<path d="M43.5 53.5H27.5V61.5H43.5V53.5Z" fill="white" stroke="#333333" stroke-miterlimit="10" stroke-linecap="round" stroke-linejoin="round"/>
<path d="M47.9999 64.5H22.9999C22.1999 64.5 21.4999 63.8 21.4999 63C21.4999 62.2 22.1999 61.5 22.9999 61.5H47.9999C48.7999 61.5 49.4999 62.2 49.4999 63C49.4999 63.8 48.7999 64.5 47.9999 64.5Z" fill="#EFEFEF" stroke="#333333" stroke-miterlimit="10" stroke-linecap="round" stroke-linejoin="round"/>
<path d="M26.4999 33.5H16.4999V43.5H26.4999V33.5Z" fill="#BDECFF" stroke="#333333" stroke-miterlimit="10" stroke-linecap="round" stroke-linejoin="round"/>
<path d="M54.4999 35H30.4999C30.1999 35 29.9999 34.8 29.9999 34.5C29.9999 34.2 30.1999 34 30.4999 34H54.4999C54.7999 34 54.9999 34.2 54.9999 34.5C54.9999 34.8 54.7999 35 54.4999 35Z" fill="#333333"/>
<path d="M54.4999 39H30.4999C30.1999 39 29.9999 38.8 29.9999 38.5C29.9999 38.2 30.1999 38 30.4999 38H54.4999C54.7999 38 54.9999 38.2 54.9999 38.5C54.9999 38.8 54.7999 39 54.4999 39Z" fill="#333333"/>
<path d="M54.4999 43H30.4999C30.1999 43 29.9999 42.8 29.9999 42.5C29.9999 42.2 30.1999 42 30.4999 42H54.4999C54.7999 42 54.9999 42.2 54.9999 42.5C54.9999 42.8 54.7999 43 54.4999 43Z" fill="#333333"/>
<path d="M30.9999 27.5C29.5999 27.5 28.4999 26.4 28.4999 25V18C28.4999 16.6 29.5999 15.5 30.9999 15.5H40.9999C42.3999 15.5 43.4999 16.6 43.4999 18V25C43.4999 26.4 42.3999 27.5 40.9999 27.5H30.9999Z" fill="url(#paint0_linear_603_40)"/>
<path d="M40.9999 16C42.0999 16 42.9999 16.9 42.9999 18V25C42.9999 26.1 42.0999 27 40.9999 27H30.9999C29.8999 27 28.9999 26.1 28.9999 25V18C28.9999 16.9 29.8999 16 30.9999 16H40.9999ZM40.9999 15H30.9999C29.2999 15 27.9999 16.3 27.9999 18V25C27.9999 26.7 29.2999 28 30.9999 28H40.9999C42.6999 28 43.9999 26.7 43.9999 25V18C43.9999 16.3 42.6999 15 40.9999 15Z" fill="#333333"/>
<circle cx="35.9999" cy="21" r="1.5" fill="white" stroke="#333333"/>
<path d="M35.9999 7C33.1999 7 30.9999 9.2 30.9999 12V15V16H31.9999H33.9999H34.9999H36.9999H37.9999H39.9999H40.9999V15V12C40.9999 9.2 38.7999 7 35.9999 7ZM31.9999 15V12C31.9999 9.8 33.7999 8 35.9999 8C38.1999 8 39.9999 9.8 39.9999 12V15H31.9999Z" fill="#333333"/>
<path d="M35.9999 10C37.0999 10 37.9999 11.1 37.9999 12V15H33.9999V12C33.9999 11.1 34.8999 10 35.9999 10ZM35.9999 9C34.2999 9 32.9999 10.6 32.9999 12V15V16H33.9999H37.9999H38.9999V15V12C38.9999 10.6 37.6999 9 35.9999 9Z" fill="#333333"/>
<defs>
<linearGradient id="paint0_linear_603_40" x1="28.4999" y1="21.5002" x2="43.4999" y2="21.5002" gradientUnits="userSpaceOnUse">
<stop stop-color="#FFC671"/>
<stop offset="0.5938" stop-color="#FF7541"/>
<stop offset="1" stop-color="#FF6F3D"/>
</linearGradient>
</defs>
</svg>
