<svg width="640" height="500" viewBox="0 0 640 500" fill="none" xmlns="http://www.w3.org/2000/svg">
<g clip-path="url(#clip0_490_125581)">
<path d="M110.372 296.936L110.647 296.977L132.8 301.42C134.184 301.698 135.106 302.948 134.989 304.269L134.952 304.533L132.793 315.621C131.907 320.177 134.36 324.617 138.386 326.92L138.781 327.136C143.151 329.427 148.664 328.955 152.16 325.501L152.492 325.157L158.944 318.159C159.877 317.147 161.421 317.022 162.505 317.832L162.716 318.007L179.439 333.348C180.457 334.282 180.583 335.82 179.775 336.897L179.601 337.106L173.502 343.721C169.511 348.05 169.037 354.274 171.555 359.463L171.808 359.961C174.766 365.549 180.951 369.256 187.322 368.234L187.939 368.12L192.427 367.185C193.809 366.897 195.152 367.685 195.566 368.945L195.636 369.204L200.441 391.355C200.727 392.673 199.937 393.988 198.625 394.4L198.355 394.471L192.344 395.724C185.804 397.087 181.181 402.526 179.872 408.84L179.755 409.453L179.522 410.747C178.328 417.049 180.506 423.746 185.902 427.425L186.434 427.771L194.611 432.852C195.795 433.588 196.211 435.077 195.625 436.28L195.496 436.517L183.974 455.083C183.254 456.243 181.765 456.649 180.541 456.049L180.299 455.916L174.5 452.312C168.296 448.458 160.306 449.726 154.706 454.218L154.171 454.662L153.978 454.828C149.017 459.083 146.427 465.699 148.354 471.891L148.554 472.488L151.078 479.49C151.536 480.763 150.928 482.172 149.685 482.753L149.428 482.857L128.834 490.1C127.507 490.566 126.074 489.961 125.496 488.763L125.392 488.516L120.698 475.493C119.949 473.416 117.803 472.211 115.62 472.452L115.408 472.479C113.245 472.811 111.089 473.05 108.944 473.2L108.026 473.259C101.672 473.627 95.6554 477.033 93.1245 482.761L92.8911 483.322L89.6733 491.533C89.1791 492.795 87.7899 493.459 86.4712 493.083L86.2085 492.994L65.7778 484.91C64.4717 484.393 63.7921 483 64.147 481.718L64.2319 481.463L66.1841 476.479C68.4521 470.691 65.8998 464.33 60.8726 460.725L60.3784 460.385C55.4367 457.121 48.806 456.788 44.021 460.288L43.564 460.639L36.7358 466.129C35.6544 466.998 34.1068 466.897 33.1567 465.943L32.9751 465.741L19.0854 448.629C18.221 447.564 18.3242 446.028 19.2896 445.077L19.4946 444.896L29.6851 436.701C32.5481 434.399 33.3902 430.56 32.063 427.235L31.9282 426.915C30.4215 423.537 26.8741 421.32 23.1226 421.751L22.7593 421.801L9.68701 423.896C8.29202 424.119 6.98819 423.269 6.6333 421.992L6.57471 421.73L2.91943 400.039C2.69558 398.711 3.54644 397.434 4.87744 397.083L5.1499 397.026L17.5854 395.033C21.8487 394.35 24.9709 390.856 25.6089 386.746L25.6626 386.346C26.0766 382.738 24.5203 379.153 21.4067 377.164L21.1011 376.977L8.18994 369.406C6.98574 368.7 6.53207 367.221 7.08545 366.005L7.20947 365.766L18.5786 346.334C19.2671 345.157 20.7446 344.713 21.9849 345.282L22.23 345.409L24.4653 346.721C31.2406 350.693 39.8266 348.697 45.2817 343.276L45.7993 342.741L46.2837 342.226C50.6375 337.633 52.5219 331.044 50.1948 325.188L49.9565 324.623L46.936 317.879C46.3817 316.641 46.8824 315.189 48.0747 314.518L48.3218 314.395L68.9077 305.355C70.1927 304.791 71.667 305.287 72.3345 306.441L72.4565 306.682L74.4653 311.165C77.0804 317.004 83.624 319.915 89.9995 319.176L90.6157 319.093L91.3804 318.979C98.3452 317.981 104.548 313.315 106.031 306.54L106.097 306.216L107.498 299.021C107.755 297.698 109.002 296.799 110.372 296.936ZM145.732 389.233C141.927 365.686 119.719 349.531 96.1265 353.147C72.8997 356.708 56.9895 378.105 60.1274 401.236L60.2915 402.34C64.0965 425.887 86.3048 442.041 109.897 438.425C133.124 434.864 149.034 413.467 145.896 390.336L145.732 389.233Z" fill="#F2F2F2" stroke="#AAAAAA"/>
<g opacity="0.5">
<g clip-path="url(#clip1_490_125581)">
<g clip-path="url(#clip2_490_125581)">
<rect x="72.5" y="58" width="93" height="12" fill="#D9D9D9"/>
<rect x="86.2998" y="62" width="1" height="4" fill="#555555"/>
<path d="M76.2998 61H77.2998V67H76.2998V61Z" fill="#555555"/>
<path d="M94.1588 67H93.2799V61.3994C93.0683 61.6012 92.79 61.8031 92.4449 62.0049C92.1031 62.2067 91.7955 62.3581 91.5221 62.459V61.6094C92.0136 61.3783 92.4433 61.0983 92.8111 60.7695C93.179 60.4408 93.4394 60.1217 93.5924 59.8125H94.1588V67ZM96.6146 63.4697C96.6146 62.6234 96.7009 61.943 96.8734 61.4287C97.0492 60.9111 97.308 60.5124 97.6498 60.2324C97.9949 59.9525 98.4278 59.8125 98.9486 59.8125C99.3327 59.8125 99.6697 59.8906 99.9594 60.0469C100.249 60.1999 100.488 60.4229 100.677 60.7158C100.866 61.0055 101.014 61.3604 101.121 61.7803C101.229 62.1969 101.283 62.7601 101.283 63.4697C101.283 64.3096 101.196 64.9883 101.024 65.5059C100.851 66.0202 100.593 66.4189 100.247 66.7021C99.9057 66.9821 99.4727 67.1221 98.9486 67.1221C98.2585 67.1221 97.7165 66.8747 97.3227 66.3799C96.8507 65.7842 96.6146 64.8141 96.6146 63.4697ZM97.518 63.4697C97.518 64.6449 97.6547 65.4277 97.9281 65.8184C98.2048 66.2057 98.545 66.3994 98.9486 66.3994C99.3523 66.3994 99.6908 66.2041 99.9643 65.8135C100.241 65.4229 100.379 64.6416 100.379 63.4697C100.379 62.2913 100.241 61.5085 99.9643 61.1211C99.6908 60.7337 99.349 60.54 98.9389 60.54C98.5352 60.54 98.213 60.7109 97.9721 61.0527C97.6693 61.4889 97.518 62.2946 97.518 63.4697Z" fill="#555555"/>
<rect x="124.1" y="62" width="1" height="4" fill="#555555"/>
<path d="M114.1 61H115.1V67H114.1V61Z" fill="#555555"/>
<rect x="105.1" y="62" width="1" height="4" fill="#555555"/>
<path d="M131.663 65.3447L132.508 65.2666C132.579 65.6637 132.716 65.9518 132.918 66.1309C133.12 66.3099 133.379 66.3994 133.694 66.3994C133.965 66.3994 134.201 66.3376 134.402 66.2139C134.607 66.0902 134.775 65.9258 134.905 65.7207C135.035 65.5124 135.145 65.2324 135.232 64.8809C135.32 64.5293 135.364 64.1712 135.364 63.8066C135.364 63.7676 135.363 63.709 135.359 63.6309C135.184 63.9108 134.943 64.1387 134.637 64.3145C134.334 64.487 134.005 64.5732 133.65 64.5732C133.058 64.5732 132.557 64.3584 132.146 63.9287C131.736 63.499 131.531 62.9326 131.531 62.2295C131.531 61.5036 131.744 60.9193 132.171 60.4766C132.601 60.0339 133.138 59.8125 133.782 59.8125C134.248 59.8125 134.673 59.9378 135.057 60.1885C135.444 60.4391 135.737 60.7972 135.936 61.2627C136.137 61.7249 136.238 62.3955 136.238 63.2744C136.238 64.1891 136.139 64.9183 135.94 65.4619C135.742 66.0023 135.446 66.4141 135.052 66.6973C134.661 66.9805 134.202 67.1221 133.675 67.1221C133.115 67.1221 132.658 66.9674 132.303 66.6582C131.948 66.3457 131.735 65.9079 131.663 65.3447ZM135.262 62.1855C135.262 61.681 135.127 61.2806 134.856 60.9844C134.59 60.6882 134.267 60.54 133.89 60.54C133.499 60.54 133.159 60.6995 132.869 61.0186C132.579 61.3376 132.435 61.751 132.435 62.2588C132.435 62.7145 132.571 63.0856 132.845 63.3721C133.121 63.6553 133.462 63.7969 133.865 63.7969C134.272 63.7969 134.606 63.6553 134.866 63.3721C135.13 63.0856 135.262 62.6901 135.262 62.1855Z" fill="#555555"/>
<rect x="161.899" y="62" width="1" height="4" fill="#555555"/>
<path d="M151.899 61H152.899V67H151.899V61Z" fill="#555555"/>
<rect x="142.899" y="62" width="1" height="4" fill="#555555"/>
<path d="M170.684 63.1182C170.319 62.9847 170.049 62.7943 169.874 62.5469C169.698 62.2995 169.61 62.0033 169.61 61.6582C169.61 61.1374 169.797 60.6995 170.171 60.3447C170.546 59.9899 171.044 59.8125 171.666 59.8125C172.291 59.8125 172.793 59.9948 173.174 60.3594C173.555 60.7207 173.746 61.1618 173.746 61.6826C173.746 62.0146 173.658 62.3044 173.482 62.5518C173.309 62.7959 173.046 62.9847 172.691 63.1182C173.13 63.2614 173.464 63.4925 173.692 63.8115C173.923 64.1305 174.039 64.5114 174.039 64.9541C174.039 65.5661 173.822 66.0804 173.389 66.4971C172.956 66.9137 172.387 67.1221 171.68 67.1221C170.974 67.1221 170.404 66.9137 169.971 66.4971C169.538 66.0771 169.322 65.5547 169.322 64.9297C169.322 64.4642 169.439 64.0752 169.673 63.7627C169.911 63.4469 170.248 63.2321 170.684 63.1182ZM170.508 61.6289C170.508 61.9674 170.617 62.2441 170.835 62.459C171.054 62.6738 171.337 62.7812 171.685 62.7812C172.024 62.7812 172.3 62.6755 172.515 62.4639C172.733 62.249 172.842 61.987 172.842 61.6777C172.842 61.3555 172.73 61.0853 172.505 60.8672C172.284 60.6458 172.007 60.5352 171.675 60.5352C171.34 60.5352 171.062 60.6426 170.84 60.8574C170.619 61.0723 170.508 61.3294 170.508 61.6289ZM170.225 64.9346C170.225 65.1852 170.284 65.4277 170.401 65.6621C170.521 65.8965 170.699 66.0788 170.933 66.209C171.167 66.3359 171.42 66.3994 171.69 66.3994C172.11 66.3994 172.457 66.2643 172.73 65.9941C173.003 65.724 173.14 65.3805 173.14 64.9639C173.14 64.5407 172.999 64.1908 172.715 63.9141C172.435 63.6374 172.084 63.499 171.661 63.499C171.247 63.499 170.904 63.6357 170.63 63.9092C170.36 64.1826 170.225 64.5244 170.225 64.9346Z" fill="#555555"/>
<rect x="199.7" y="62" width="1" height="4" fill="#555555"/>
<path d="M189.7 61H190.7V67H189.7V61Z" fill="#555555"/>
<rect x="180.7" y="62" width="1" height="4" fill="#555555"/>
<path d="M207.19 60.7793V59.9346H211.824V60.6182C211.368 61.1032 210.916 61.7477 210.466 62.5518C210.02 63.3558 209.675 64.1826 209.431 65.0322C209.255 65.6312 209.143 66.2871 209.094 67H208.191C208.201 66.4368 208.311 65.7565 208.523 64.959C208.735 64.1615 209.037 63.3932 209.431 62.6543C209.828 61.9121 210.25 61.2871 210.696 60.7793H207.19Z" fill="#555555"/>
<rect x="237.5" y="62" width="1" height="4" fill="#555555"/>
<path d="M227.5 61H228.5V67H227.5V61Z" fill="#555555"/>
<rect x="218.5" y="62" width="1" height="4" fill="#555555"/>
<path d="M249.492 61.5947L248.618 61.6631C248.54 61.318 248.429 61.0674 248.286 60.9111C248.049 60.6605 247.756 60.5352 247.407 60.5352C247.127 60.5352 246.882 60.6133 246.67 60.7695C246.393 60.9714 246.175 61.266 246.016 61.6533C245.856 62.0407 245.773 62.5924 245.767 63.3086C245.978 62.9863 246.237 62.7471 246.543 62.5908C246.849 62.4346 247.17 62.3564 247.505 62.3564C248.091 62.3564 248.589 62.5729 248.999 63.0059C249.412 63.4355 249.619 63.9922 249.619 64.6758C249.619 65.125 249.521 65.5433 249.326 65.9307C249.134 66.3148 248.869 66.6094 248.53 66.8145C248.192 67.0195 247.808 67.1221 247.378 67.1221C246.646 67.1221 246.048 66.8535 245.586 66.3164C245.124 65.776 244.893 64.8874 244.893 63.6504C244.893 62.2669 245.148 61.2611 245.659 60.6328C246.105 60.0859 246.706 59.8125 247.461 59.8125C248.024 59.8125 248.485 59.9704 248.843 60.2861C249.204 60.6019 249.421 61.0381 249.492 61.5947ZM245.903 64.6807C245.903 64.9834 245.967 65.2731 246.094 65.5498C246.224 65.8265 246.405 66.0381 246.636 66.1846C246.867 66.3278 247.109 66.3994 247.363 66.3994C247.734 66.3994 248.053 66.2497 248.32 65.9502C248.587 65.6507 248.721 65.2438 248.721 64.7295C248.721 64.2347 248.589 63.8457 248.325 63.5625C248.062 63.276 247.729 63.1328 247.329 63.1328C246.932 63.1328 246.595 63.276 246.318 63.5625C246.042 63.8457 245.903 64.2184 245.903 64.6807Z" fill="#555555"/>
<rect x="275.3" y="62" width="1" height="4" fill="#555555"/>
<path d="M265.3 61H266.3V67H265.3V61Z" fill="#555555"/>
<rect x="256.3" y="62" width="1" height="4" fill="#555555"/>
<path d="M282.731 65.125L283.654 65.0469C283.723 65.4961 283.881 65.8346 284.128 66.0625C284.379 66.2871 284.68 66.3994 285.031 66.3994C285.454 66.3994 285.812 66.2399 286.105 65.9209C286.398 65.6019 286.545 65.1787 286.545 64.6514C286.545 64.1501 286.403 63.7546 286.12 63.4648C285.84 63.1751 285.472 63.0303 285.017 63.0303C284.733 63.0303 284.478 63.0954 284.25 63.2256C284.022 63.3525 283.843 63.5186 283.713 63.7236L282.888 63.6162L283.581 59.9395H287.141V60.7793H284.284L283.898 62.7031C284.328 62.4036 284.779 62.2539 285.251 62.2539C285.876 62.2539 286.403 62.4704 286.833 62.9033C287.263 63.3363 287.478 63.8929 287.478 64.5732C287.478 65.221 287.289 65.7809 286.911 66.2529C286.452 66.8324 285.826 67.1221 285.031 67.1221C284.38 67.1221 283.848 66.9398 283.435 66.5752C283.024 66.2106 282.79 65.7272 282.731 65.125Z" fill="#555555"/>
<rect x="313.1" y="62" width="1" height="4" fill="#555555"/>
<path d="M303.1 61H304.1V67H303.1V61Z" fill="#555555"/>
<rect x="294.1" y="62" width="1" height="4" fill="#555555"/>
<path d="M323.349 67V65.2861H320.243V64.4805L323.51 59.8418H324.228V64.4805H325.194V65.2861H324.228V67H323.349ZM323.349 64.4805V61.2529L321.107 64.4805H323.349Z" fill="#555555"/>
<rect x="350.899" y="62" width="1" height="4" fill="#555555"/>
<path d="M340.899 61H341.899V67H340.899V61Z" fill="#555555"/>
<rect x="331.899" y="62" width="1" height="4" fill="#555555"/>
<path d="M358.336 65.1104L359.215 64.9932C359.316 65.4912 359.487 65.8509 359.728 66.0723C359.972 66.2904 360.268 66.3994 360.617 66.3994C361.03 66.3994 361.378 66.2562 361.662 65.9697C361.948 65.6833 362.091 65.3285 362.091 64.9053C362.091 64.5016 361.959 64.1696 361.696 63.9092C361.432 63.6455 361.097 63.5137 360.69 63.5137C360.524 63.5137 360.317 63.5462 360.07 63.6113L360.167 62.8398C360.226 62.8464 360.273 62.8496 360.309 62.8496C360.683 62.8496 361.02 62.752 361.32 62.5566C361.619 62.3613 361.769 62.0602 361.769 61.6533C361.769 61.3311 361.66 61.0641 361.442 60.8525C361.224 60.641 360.942 60.5352 360.597 60.5352C360.255 60.5352 359.971 60.6426 359.743 60.8574C359.515 61.0723 359.368 61.3945 359.303 61.8242L358.424 61.668C358.532 61.0788 358.776 60.623 359.157 60.3008C359.538 59.9753 360.011 59.8125 360.578 59.8125C360.968 59.8125 361.328 59.8971 361.657 60.0664C361.986 60.2324 362.236 60.4603 362.409 60.75C362.584 61.0397 362.672 61.3473 362.672 61.6729C362.672 61.9821 362.589 62.2637 362.423 62.5176C362.257 62.7715 362.012 62.9733 361.686 63.123C362.109 63.2207 362.438 63.4242 362.672 63.7334C362.907 64.0394 363.024 64.4235 363.024 64.8857C363.024 65.5107 362.796 66.0413 362.34 66.4775C361.885 66.9105 361.308 67.127 360.612 67.127C359.984 67.127 359.461 66.9398 359.044 66.5654C358.631 66.1911 358.395 65.7061 358.336 65.1104Z" fill="#555555"/>
<rect x="388.7" y="62" width="1" height="4" fill="#555555"/>
<path d="M378.7 61H379.7V67H378.7V61Z" fill="#555555"/>
<rect x="369.7" y="62" width="1" height="4" fill="#555555"/>
<path d="M400.75 66.1553V67H396.019C396.013 66.7884 396.047 66.585 396.122 66.3896C396.242 66.0674 396.434 65.75 396.698 65.4375C396.965 65.125 397.349 64.7637 397.85 64.3535C398.628 63.7155 399.154 63.2109 399.427 62.8398C399.701 62.4655 399.837 62.1123 399.837 61.7803C399.837 61.432 399.712 61.139 399.461 60.9014C399.214 60.6605 398.89 60.54 398.49 60.54C398.067 60.54 397.728 60.667 397.474 60.9209C397.22 61.1748 397.092 61.5264 397.088 61.9756L396.185 61.8828C396.247 61.209 396.48 60.6963 396.883 60.3447C397.287 59.9899 397.829 59.8125 398.509 59.8125C399.196 59.8125 399.74 60.0029 400.14 60.3838C400.541 60.7646 400.741 61.2367 400.741 61.7998C400.741 62.0863 400.682 62.3678 400.565 62.6445C400.448 62.9212 400.252 63.2126 399.979 63.5186C399.709 63.8245 399.258 64.2445 398.626 64.7783C398.099 65.221 397.761 65.5221 397.611 65.6816C397.461 65.8379 397.337 65.9958 397.24 66.1553H400.75Z" fill="#555555"/>
<rect x="426.5" y="62" width="1" height="4" fill="#555555"/>
<path d="M416.5 61H417.5V67H416.5V61Z" fill="#555555"/>
<rect x="407.5" y="62" width="1" height="4" fill="#555555"/>
<path d="M437.242 67H436.363V61.3994C436.152 61.6012 435.873 61.8031 435.528 62.0049C435.187 62.2067 434.879 62.3581 434.605 62.459V61.6094C435.097 61.3783 435.527 61.0983 435.895 60.7695C436.262 60.4408 436.523 60.1217 436.676 59.8125H437.242V67Z" fill="#555555"/>
<rect x="464.3" y="62" width="1" height="4" fill="#555555"/>
<path d="M454.3 61H455.3V67H454.3V61Z" fill="#555555"/>
<rect x="445.3" y="62" width="1" height="4" fill="#555555"/>
</g>
<g clip-path="url(#clip3_490_125581)">
<path d="M513.442 67H512.563V61.3994C512.352 61.6012 512.074 61.8031 511.729 62.0049C511.387 62.2067 511.079 62.3581 510.806 62.459V61.6094C511.297 61.3783 511.727 61.0983 512.095 60.7695C512.463 60.4408 512.723 60.1217 512.876 59.8125H513.442V67Z" fill="#555555"/>
<rect x="502.5" y="62" width="1" height="4" fill="#555555"/>
<path d="M492.5 61H493.5V67H492.5V61Z" fill="#555555"/>
<rect x="483.5" y="62" width="1" height="4" fill="#555555"/>
<path d="M552.551 66.1553V67H547.819C547.813 66.7884 547.847 66.585 547.922 66.3896C548.042 66.0674 548.234 65.75 548.498 65.4375C548.765 65.125 549.149 64.7637 549.65 64.3535C550.428 63.7155 550.954 63.2109 551.228 62.8398C551.501 62.4655 551.638 62.1123 551.638 61.7803C551.638 61.432 551.512 61.139 551.262 60.9014C551.014 60.6605 550.69 60.54 550.29 60.54C549.867 60.54 549.528 60.667 549.274 60.9209C549.021 61.1748 548.892 61.5264 548.889 61.9756L547.985 61.8828C548.047 61.209 548.28 60.6963 548.684 60.3447C549.087 59.9899 549.629 59.8125 550.31 59.8125C550.996 59.8125 551.54 60.0029 551.94 60.3838C552.341 60.7646 552.541 61.2367 552.541 61.7998C552.541 62.0863 552.482 62.3678 552.365 62.6445C552.248 62.9212 552.053 63.2126 551.779 63.5186C551.509 63.8245 551.058 64.2445 550.427 64.7783C549.899 65.221 549.561 65.5221 549.411 65.6816C549.261 65.8379 549.138 65.9958 549.04 66.1553H552.551Z" fill="#555555"/>
<rect x="540.3" y="62" width="1" height="4" fill="#555555"/>
<path d="M530.3 61H531.3V67H530.3V61Z" fill="#555555"/>
<rect x="521.3" y="62" width="1" height="4" fill="#555555"/>
<rect x="559.1" y="62" width="1" height="4" fill="#555555"/>
</g>
</g>
<rect x="72" y="57.5" width="496" height="13" rx="3.5" stroke="#CBCBCB"/>
</g>
<path fill-rule="evenodd" clip-rule="evenodd" d="M165 126.725H490V328.725H165V126.725ZM166 127.725V327.725H489V127.725H166Z" fill="#CCCCCC"/>
<mask id="path-57-inside-1_490_125581" fill="white">
<path d="M166.269 308.429H230.504V327.586H169.269C167.612 327.586 166.269 326.243 166.269 324.586V308.429Z"/>
</mask>
<path d="M166.269 308.429H230.504V327.586H169.269C167.612 327.586 166.269 326.243 166.269 324.586V308.429Z" fill="#F3F4F4"/>
<path d="M166.269 307.429H230.504V309.429H166.269V307.429ZM230.504 327.586H166.269H230.504ZM166.269 327.586V308.429V327.586ZM230.504 308.429V327.586V308.429Z" fill="#ECEEF1" mask="url(#path-57-inside-1_490_125581)"/>
<rect opacity="0.1" x="188" y="313.725" width="21" height="2" rx="1" fill="#555F65"/>
<rect opacity="0.1" x="188" y="320.725" width="26" height="2" rx="1" fill="#555F65"/>
<circle opacity="0.1" cx="179.5" cy="318.225" r="4.5" fill="#555F65"/>
<g filter="url(#filter0_d_490_125581)">
<rect x="55" y="91" width="530" height="340" rx="3" fill="white"/>
<rect x="55.5" y="91.5" width="529" height="339" rx="2.5" stroke="#E2E2E2"/>
</g>
<g style="mix-blend-mode:exclusion" opacity="0.8">
<path d="M340.598 260.308L562.167 114.121L570.5 108.623V418.22H70.5L340.598 260.308Z" fill="white"/>
</g>
<path d="M353.708 199.93C352.013 198.086 349.058 198.236 347.559 200.244L298.444 266H414.444L382.444 231.19L353.708 199.93Z" fill="#FF6F3D" fill-opacity="0.2"/>
<path d="M382.444 231.19L414.444 266H528.222L432.255 159.561C430.464 157.575 427.266 157.871 425.872 160.153L382.444 231.19Z" fill="#FF6F3D" fill-opacity="0.4"/>
<path d="M304.733 147.777C303.667 146.879 302.11 146.879 301.045 147.777C299.686 148.921 299.686 151.012 301.045 152.156C302.11 153.054 303.667 153.054 304.733 152.156C306.091 151.012 306.091 148.921 304.733 147.777Z" fill="#FF6F3D" fill-opacity="0.23"/>
<path d="M282 132.5H530C531.933 132.5 533.5 134.067 533.5 136V262C533.5 263.933 531.933 265.5 530 265.5H528.445L432.627 159.227L432.433 159.024C430.454 157.08 427.184 157.383 425.598 159.658L425.445 159.893L382.363 230.362L354.076 199.592L353.894 199.404C352.025 197.59 348.996 197.744 347.321 199.739L347.158 199.944L298.194 265.5H282C280.067 265.5 278.5 263.933 278.5 262V136C278.5 134.067 280.067 132.5 282 132.5ZM426.298 160.414C427.48 158.48 430.143 158.176 431.733 159.738L431.884 159.896L527.098 265.5H414.664L383.067 231.129L426.298 160.414ZM347.959 200.543C349.23 198.841 351.696 198.664 353.198 200.122L353.34 200.269L382.076 231.528L413.305 265.5H299.441L347.959 200.543ZM304.814 147.209C303.66 146.402 302.119 146.402 300.964 147.209L300.723 147.395C299.177 148.696 299.129 151.042 300.578 152.409L300.723 152.539C301.896 153.527 303.577 153.589 304.814 152.724L305.056 152.539C306.601 151.237 306.649 148.89 305.2 147.523L305.056 147.395L304.814 147.209ZM301.367 148.159C302.192 147.465 303.372 147.422 304.241 148.029L304.411 148.159C305.497 149.074 305.531 150.723 304.513 151.684L304.411 151.773C303.532 152.514 302.247 152.514 301.367 151.773L301.265 151.684C300.279 150.754 300.28 149.18 301.265 148.25L301.367 148.159Z" stroke="#FF6F3D"/>
<g style="mix-blend-mode:difference">
<rect x="99.5" y="281.5" width="434" height="107" rx="3.5" stroke="#FF6F3D"/>
<rect x="115" y="373" width="403" height="2" rx="1" fill="#D9D9D9"/>
<rect x="115" y="302" width="2" height="73" fill="#D9D9D9"/>
<rect x="139" y="309" width="16" height="64" fill="#FF6F3D"/>
<rect x="204.382" y="325.419" width="16" height="47.5805" fill="#FF6F3D"/>
<rect x="269.915" y="336.084" width="16.1457" height="36.9159" fill="#FF6F3D"/>
<rect x="335.447" y="325.419" width="16.1457" height="47.5805" fill="#FF6F3D"/>
<rect x="400.979" y="325.419" width="16.1457" height="47.5805" fill="#FF6F3D"/>
<rect x="466.512" y="321.318" width="16.1457" height="51.6823" fill="#FF6F3D"/>
<rect x="163" y="336" width="16" height="37" fill="#9ADAF3"/>
<rect x="228.125" y="314.755" width="16" height="58.2451" fill="#9ADAF3"/>
<rect x="293.658" y="336.084" width="16.1457" height="36.9159" fill="#9ADAF3"/>
<rect x="359.191" y="311.473" width="16.1457" height="61.5266" fill="#9ADAF3"/>
<rect x="424.724" y="331.162" width="16.1457" height="41.8381" fill="#9ADAF3"/>
<rect x="490.256" y="309.012" width="16.1457" height="63.9876" fill="#9ADAF3"/>
</g>
<ellipse cx="556.2" cy="495" rx="77.5" ry="4.99984" fill="#E2E2E2"/>
<path d="M598.005 493.12C598.309 494.333 597.391 495.508 596.14 495.508C595.344 495.508 594.63 495.017 594.345 494.273L584.978 469.787L591.79 468.274L598.005 493.12Z" fill="#FAFAFA" stroke="#777777" stroke-linecap="round" stroke-linejoin="round"/>
<path d="M510.211 493.577C509.94 494.783 510.856 495.928 512.092 495.928C512.915 495.928 513.647 495.406 513.914 494.628L523.307 467.35L516.495 465.669L510.211 493.577Z" fill="#FAFAFA" stroke="#777777" stroke-linecap="round" stroke-linejoin="round"/>
<path d="M503.023 474.337C507.299 476.847 512.575 476.753 517.507 477.269C534.929 479.094 578.272 483.065 595.618 479.478C608.179 476.881 619.995 465.368 627.807 455.992C634.597 447.843 640.559 438.141 639.961 427.551C639.532 419.955 635.416 413.089 620.545 416.326L617.206 416.557C616.4 416.613 615.849 415.744 616.242 415.038C620.235 407.875 635.128 379.281 625.896 366.761C615.299 352.387 541.118 359.952 541.118 359.952C541.118 359.952 512.354 363.735 514.625 381.134C516.532 395.743 518.438 407.077 519.001 410.337C519.093 410.869 518.747 411.376 518.218 411.488L498.764 415.581C489.251 417.583 478.002 420.738 476.601 430.357C475.824 435.688 477.164 443.076 483.59 453.001C491.881 465.806 498.483 471.673 503.023 474.337Z" fill="#FAFAFA" stroke="#777777" stroke-linecap="round" stroke-linejoin="round"/>
<path d="M554.607 301.015C548.063 304.298 544.791 309.868 543.648 314.755C542.457 319.843 545.149 324.743 547.159 329.567C549.554 335.31 551.828 342.148 552.767 345.99C554.314 352.321 549.254 362.384 547.507 366.508C569.839 373.645 610.37 397.611 610.392 387.835C610.419 375.615 599.827 357.99 595.273 354.558C591.629 351.813 592.742 342.018 593.319 339.223C597.648 326.98 594.192 310.593 580.943 303.104C586.704 302.528 584.87 295.388 578.639 293.311C575.183 292.159 565.966 292.735 569.998 300.224C566.225 299.591 559.629 298.496 554.607 301.015Z" fill="#333333" stroke="#333333" stroke-width="2"/>
<path d="M537.735 401.896C533.739 401.896 531.927 395.729 531.777 392.872L537.616 395.128C540.011 399.038 539.167 401.896 537.735 401.896Z" fill="#9ADAF3" stroke="#333333" stroke-width="2" stroke-linecap="round" stroke-linejoin="round"/>
<path d="M549.696 455.594L564.966 462.814L567.661 450.179L558.679 447.471L551.439 448.527L549.696 455.594Z" fill="white" stroke="#333333" stroke-width="2" stroke-linecap="round" stroke-linejoin="round"/>
<path d="M600.12 394.664C603.056 394.912 605.27 397.183 606.023 400.032C609.29 412.388 616.318 446.272 597.301 452.886C581.54 458.368 569.87 453.984 563.948 450.554C561.087 448.898 557.478 447.943 554.803 449.886C552.151 451.813 550.376 454.767 555.879 458.286C559.902 460.858 538.067 454.491 533.468 453.134C532.901 452.967 532.377 452.753 531.856 452.475C526.769 449.762 498.257 434.433 495.804 430.324C492.04 426.5 489.159 417.872 499.266 412.358C500.562 411.65 502.056 411.434 503.527 411.567C508.959 412.058 523.028 413.449 531.459 415.37C532.828 415.682 534.245 415.741 535.621 415.464L545.42 413.495C546.466 413.285 547.444 412.903 548.364 412.362C554.759 408.598 582.238 393.152 600.12 394.664Z" fill="#808080" stroke="#333333" stroke-width="2" stroke-linecap="round" stroke-linejoin="round"/>
<path d="M547.002 424.007L536.224 433.032C541.613 433.934 543.286 443.954 543.286 443.954C543.286 443.954 594.607 413.177 595.505 406.86" stroke="#333333" stroke-width="2" stroke-linecap="round" stroke-linejoin="round"/>
<path d="M560.206 448.844C558.62 446.853 555.268 443.225 551.987 440.919M535.326 424.91L521.852 424.007C521.852 424.007 528.985 427.379 537.167 431.883" stroke="#333333" stroke-width="2" stroke-linecap="round" stroke-linejoin="round"/>
<path d="M571.514 402.772C566.787 405.684 563.516 408.89 560.578 412.614C556.691 417.542 553.732 424.746 547.456 424.843C547.37 424.844 547.282 424.845 547.193 424.845C541.051 424.845 537.159 424.845 540.415 416.431C541.737 413.013 543.127 409.393 545.708 406.791C548.744 403.731 554.855 399.337 567.148 394.225C591.023 384.298 571.514 402.772 571.514 402.772Z" fill="white" stroke="#333333" stroke-width="2" stroke-linecap="round" stroke-linejoin="round"/>
<path d="M534.427 394.225C534.427 394.225 526.837 392.231 520.55 395.128C516.886 396.816 511.948 398.51 510.565 402.831C510.205 403.954 510.497 405.217 511.445 405.918C512.642 406.803 514.769 407.547 518.044 405.958L526.343 402.348C526.343 402.348 525.319 406.86 528.077 406.86C530.834 406.86 532.819 398.584 537.212 397.754C541.604 396.924 534.427 394.225 534.427 394.225Z" fill="white" stroke="#333333" stroke-width="2" stroke-linecap="round" stroke-linejoin="round"/>
<path d="M544.559 443.04L534.023 451.081L527.25 438.447L536.232 433.032C536.232 433.032 545.708 431.389 544.559 443.04Z" fill="white" stroke="#333333" stroke-width="2" stroke-linecap="round" stroke-linejoin="round"/>
<path d="M520.056 451.081C520.056 451.081 518.78 448.374 516.274 447.471" stroke="#333333" stroke-width="2" stroke-linecap="round" stroke-linejoin="round"/>
<path d="M522.75 448.374C522.75 448.374 521.475 445.666 518.969 444.764" stroke="#333333" stroke-width="2" stroke-linecap="round" stroke-linejoin="round"/>
<path d="M526.344 445.667C526.344 445.667 525.068 442.959 522.562 442.057" stroke="#333333" stroke-width="2" stroke-linecap="round" stroke-linejoin="round"/>
<path d="M576.185 457.191C576.185 457.191 574.954 461.703 576.697 464.068" stroke="#333333" stroke-width="2" stroke-linecap="round" stroke-linejoin="round"/>
<path d="M572.592 457.191C572.592 457.191 571.361 461.703 573.104 464.068" stroke="#333333" stroke-width="2" stroke-linecap="round" stroke-linejoin="round"/>
<path d="M568.999 456.289C568.999 456.289 567.769 460.801 569.511 463.165" stroke="#333333" stroke-width="2" stroke-linecap="round" stroke-linejoin="round"/>
<path d="M488.575 408.946C487.494 408.773 486.593 408.024 486.225 406.993L475.68 377.478C474.982 375.524 476.43 373.469 478.505 373.469H492.222C493.523 373.469 494.675 374.306 495.076 375.543L506.861 411.878L488.575 408.946Z" fill="#F2F2F2" stroke="#333333" stroke-width="2" stroke-linecap="round" stroke-linejoin="round"/>
<path d="M541.9 413.385L507.077 411.372L506.179 408.214L531.068 410.813L541.9 413.385Z" fill="#333333" stroke="#333333" stroke-width="2" stroke-linecap="round" stroke-linejoin="round"/>
<path d="M560.879 351.358C560.879 351.358 555.984 349.038 547.002 354.941C539.428 359.918 538.975 377.409 539.019 382.769C539.028 383.782 538.688 384.771 538.031 385.542L531.777 392.872C531.777 392.872 536.183 396.308 538.02 401.016C538.928 403.342 548.19 394.196 547.002 396.883L540.76 414.08L565.011 395.128C565.011 395.128 569.119 398.115 569.344 404.433C569.344 404.433 615.266 392.42 616.164 385.201C616.785 380.206 610.528 366.572 606.613 358.643C604.689 354.748 601.559 351.597 597.653 349.695C592.197 347.039 584.473 343.603 581.179 343.687L560.879 351.358Z" fill="url(#paint0_linear_490_125581)" stroke="#333333" stroke-width="2" stroke-linecap="round" stroke-linejoin="round"/>
<path d="M577.586 336.918C577.586 336.918 577.586 343.687 583.828 344.589C586.523 346.394 576.643 366.249 566.762 364.444C559.963 363.198 561.194 356.484 560.879 351.358C566.762 350.455 563.987 344.698 562.316 343.687C556.981 340.447 577.586 336.918 577.586 336.918Z" fill="white" stroke="#333333" stroke-width="2" stroke-linecap="round" stroke-linejoin="round"/>
<path d="M549.863 326.77C551.16 337.658 562.51 345.732 568.221 344.558C578.687 343.299 580.398 333.192 579.215 323.266C577.918 312.378 573.377 303.945 563.522 305.131C553.668 306.316 548.566 315.883 549.863 326.77Z" fill="white" stroke="#333333" stroke-width="2" stroke-linecap="round" stroke-linejoin="round"/>
<path d="M564.71 395.378L593.681 377.558L592.183 373.819" stroke="#333333" stroke-width="2" stroke-linecap="round" stroke-linejoin="round"/>
<path d="M549.836 322.114C560.781 320.962 566.734 309.249 574.03 310.017H577.227H578.063L569.422 302.528L551.565 308.289C550.22 317.697 538.233 323.335 549.836 322.114Z" fill="#333333"/>
<path d="M563.662 310.017C568.731 304.487 576.911 309.249 580.367 312.321C584.399 315.969 590.275 323.611 581.519 324.994M574.03 310.017C566.734 309.249 560.781 320.962 549.836 322.114C538.233 323.335 550.22 317.697 551.565 308.289L569.422 302.528L578.063 310.017H574.03Z" stroke="#333333" stroke-width="2"/>
<path d="M580.635 322.785C576.027 321.633 569.039 311.361 565.39 310.017C565.39 308.634 574.607 308.289 579.216 308.289C581.712 315.969 588.456 324.74 580.635 322.785Z" fill="#333333" stroke="#333333" stroke-width="2"/>
<path d="M546.38 397L552.122 391.74C553.777 390.225 554.719 388.085 554.719 385.841V377.072" stroke="#333333" stroke-width="2" stroke-linecap="round" stroke-linejoin="round"/>
<path d="M537.166 449.95L537.747 448.67C538.089 447.914 537.93 447.026 537.347 446.436L529.183 438.19C528.656 437.658 527.879 437.459 527.172 437.708C519.699 440.334 507.601 447.09 509.77 454.755C511.625 461.314 522.187 459.437 530.081 456.698C533.295 455.583 535.761 453.047 537.166 449.95Z" fill="white" stroke="#333333" stroke-width="2"/>
<path d="M584.891 466.085C570.537 469.554 563.294 464.639 561.466 461.748C560.698 459.15 564.182 454.556 566.222 452.355C566.368 452.197 566.569 452.102 566.784 452.084C574.093 451.47 581.831 452.107 587.644 456.58C592.16 460.054 593.804 463.93 584.891 466.085Z" fill="white" stroke="#333333" stroke-width="2"/>
<path d="M488.885 389.13C487.462 389.586 486.885 391.153 487.307 392.471C487.73 393.788 489.11 394.729 490.533 394.273C491.956 393.817 492.532 392.25 492.11 390.932C491.687 389.614 490.308 388.674 488.885 389.13Z" fill="url(#paint1_linear_490_125581)" stroke="#333333" stroke-width="2"/>
<path fill-rule="evenodd" clip-rule="evenodd" d="M565.191 331.682C564.445 332.024 563.113 331.537 562.775 330.779C562.057 329.141 563.853 328.347 563.289 326.746C564.395 328.335 561.887 330.732 565.191 331.682Z" fill="#333333"/>
<path fill-rule="evenodd" clip-rule="evenodd" d="M571.147 323.384C571.969 323.37 572.969 323.101 573.616 322.866C572.13 323.017 571.136 321.206 569.355 321.407C568.518 321.498 567.262 322.037 566.701 323.435C566.967 323.54 567.382 323.395 567.462 323.381C567.767 325.51 570.65 325.323 571.147 323.384Z" fill="#333333"/>
<path fill-rule="evenodd" clip-rule="evenodd" d="M558.343 326.497C559.165 326.483 560.164 326.214 560.812 325.979C559.325 326.13 558.331 324.318 556.551 324.52C555.714 324.611 554.458 325.149 553.897 326.548C554.163 326.653 554.578 326.508 554.658 326.494C554.963 328.623 557.846 328.436 558.343 326.497Z" fill="#333333"/>
<path d="M569.998 317.505C567.694 312.897 566.35 312.513 565.966 312.897C566.158 311.937 566.887 310.362 568.27 311.745C569.652 313.127 569.998 316.161 569.998 317.505Z" fill="#333333" stroke="#333333" stroke-width="2" stroke-linejoin="round"/>
<path fill-rule="evenodd" clip-rule="evenodd" d="M566.194 339.482C565.544 339.444 564.873 339.105 564.363 338.646C564.199 338.508 563.297 337.747 563.077 337.477C563.331 337.577 563.881 337.501 563.934 337.376C564.227 336.941 564.906 336.293 566.277 336.286C566.724 335.839 567.435 335.644 568.048 335.593C568.093 335.574 569.049 335.586 569.57 335.315C569.929 335.164 569.494 336.643 569.23 337.272C568.515 338.713 567.405 339.594 566.194 339.482Z" fill="#333333"/>
<g filter="url(#filter1_d_490_125581)">
<path d="M225.802 69.1388L217.678 77.2612L236.43 96.0103C241.905 101.484 242.571 109.776 237.1 115.246L217.204 135.139L225.825 143.759C232.793 150.726 232.796 161.67 225.832 168.632C218.869 175.595 207.923 175.592 200.955 168.625L192.334 160.005L172.438 179.898C166.966 185.368 158.011 185.365 152.536 179.892L134.778 162.138L142.239 154.678C149.7 147.218 149.697 135.279 142.231 127.815C134.766 120.351 122.825 120.347 115.364 127.807L107.903 135.266L88.9899 116.357C83.5152 110.883 83.5125 101.929 88.9839 96.4582L107.885 77.5602L115.351 85.0244C122.816 92.4887 134.757 92.4923 142.218 85.0325C149.679 77.5728 149.676 65.6336 142.21 58.1693L134.745 50.705L153.646 31.8069C159.117 26.3364 167.468 26.9449 172.942 32.4186L192.85 52.3234L200.917 44.2579C207.881 37.2954 218.827 37.1725 225.795 44.1391C232.762 51.1058 232.766 62.1763 225.802 69.1388Z" fill="url(#paint2_linear_490_125581)"/>
<path d="M226.479 44.1243C233.309 51.302 233.203 62.4463 226.156 69.4924L218.386 77.2603L236.783 95.6568L237.044 95.9233C242.442 101.561 243.062 109.992 237.453 115.6L217.911 135.139L226.178 143.406L226.508 143.744C233.339 150.918 233.233 161.941 226.186 168.987C219.139 176.032 208.115 176.138 200.94 169.308L200.602 168.978L192.334 160.711L172.792 180.251L172.523 180.513C166.926 185.83 158.051 185.827 152.451 180.507L152.183 180.245L134.425 162.491L134.071 162.138L134.425 161.784L141.886 154.325L142.221 153.981C149.04 146.814 149.037 135.684 142.213 128.512L141.878 128.168C134.608 120.899 122.983 120.896 115.718 128.16L108.256 135.62L107.903 135.974L107.549 135.62L88.6363 116.711C82.9666 111.042 82.9635 101.771 88.6301 96.1049L107.531 77.2064L107.885 76.8528L108.239 77.2064L115.705 84.6711L116.048 85.0067C123.337 91.9384 134.713 91.8298 141.865 84.6794L142.2 84.3355C149.019 77.1683 149.015 66.039 142.192 58.8672L141.857 58.5226L134.392 51.0586L134.038 50.7051L134.392 50.3515L153.292 31.4537L153.562 31.1913C159.258 25.7811 167.744 26.5146 173.296 32.0655L192.85 51.6159L200.564 43.904L200.902 43.5739C208.069 36.7487 219.092 36.7312 226.148 43.7852L226.479 44.1243Z" stroke="#333333"/>
</g>
</g>
<defs>
<filter id="filter0_d_490_125581" x="5" y="61" width="630" height="440" filterUnits="userSpaceOnUse" color-interpolation-filters="sRGB">
<feFlood flood-opacity="0" result="BackgroundImageFix"/>
<feColorMatrix in="SourceAlpha" type="matrix" values="0 0 0 0 0 0 0 0 0 0 0 0 0 0 0 0 0 0 127 0" result="hardAlpha"/>
<feOffset dy="20"/>
<feGaussianBlur stdDeviation="25"/>
<feColorMatrix type="matrix" values="0 0 0 0 0.333333 0 0 0 0 0.333333 0 0 0 0 0.333333 0 0 0 0.15 0"/>
<feBlend mode="normal" in2="BackgroundImageFix" result="effect1_dropShadow_490_125581"/>
<feBlend mode="normal" in="SourceGraphic" in2="effect1_dropShadow_490_125581" result="shape"/>
</filter>
<filter id="filter1_d_490_125581" x="33.8823" y="-3.00464" width="258.003" height="258.003" filterUnits="userSpaceOnUse" color-interpolation-filters="sRGB">
<feFlood flood-opacity="0" result="BackgroundImageFix"/>
<feColorMatrix in="SourceAlpha" type="matrix" values="0 0 0 0 0 0 0 0 0 0 0 0 0 0 0 0 0 0 127 0" result="hardAlpha"/>
<feOffset dy="20"/>
<feGaussianBlur stdDeviation="25"/>
<feColorMatrix type="matrix" values="0 0 0 0 0.333333 0 0 0 0 0.333333 0 0 0 0 0.333333 0 0 0 0.15 0"/>
<feBlend mode="normal" in2="BackgroundImageFix" result="effect1_dropShadow_490_125581"/>
<feBlend mode="normal" in="SourceGraphic" in2="effect1_dropShadow_490_125581" result="shape"/>
</filter>
<linearGradient id="paint0_linear_490_125581" x1="616.207" y1="340.936" x2="547.434" y2="426.643" gradientUnits="userSpaceOnUse">
<stop stop-color="#FF8E3D"/>
<stop offset="1" stop-color="#FF6F3D"/>
</linearGradient>
<linearGradient id="paint1_linear_490_125581" x1="490.598" y1="389.491" x2="488.328" y2="393.532" gradientUnits="userSpaceOnUse">
<stop stop-color="#FFC671"/>
<stop offset="0.59375" stop-color="#FF7541"/>
<stop offset="1" stop-color="#FF6F3D"/>
</linearGradient>
<linearGradient id="paint2_linear_490_125581" x1="187.632" y1="-2.18896" x2="183.549" y2="210.916" gradientUnits="userSpaceOnUse">
<stop stop-color="#FF8E3D"/>
<stop offset="1" stop-color="#FF6F3D"/>
</linearGradient>
<clipPath id="clip0_490_125581">
<rect width="640" height="500" fill="white"/>
</clipPath>
<clipPath id="clip1_490_125581">
<rect x="72.5" y="58" width="495" height="12" rx="3" fill="white"/>
</clipPath>
<clipPath id="clip2_490_125581">
<rect width="403" height="14" fill="white" transform="translate(71.5 57)"/>
</clipPath>
<clipPath id="clip3_490_125581">
<rect width="95" height="14" fill="white" transform="translate(473.5 57)"/>
</clipPath>
</defs>
</svg>
