<svg width="640" height="500" viewBox="0 0 640 500" fill="none" xmlns="http://www.w3.org/2000/svg">
<g clip-path="url(#clip0_490_140260)">
<path d="M70.8179 5.49219L70.9771 5.5166L85.1948 8.37598C85.9953 8.53701 86.5233 9.26044 86.4565 10.0186L86.4351 10.1709L85.0503 17.3066C84.4647 20.3249 86.0862 23.2526 88.7261 24.7666L88.9849 24.9082C91.8491 26.4137 95.4759 26.1103 97.7817 23.8252L98.0005 23.5977L102.141 19.0938C102.677 18.5107 103.563 18.4393 104.187 18.9062L104.308 19.0068L115.041 28.8799C115.626 29.4188 115.699 30.3054 115.235 30.9268L115.134 31.0469L111.22 35.3037C108.602 38.1512 108.299 42.237 109.942 45.6328L110.107 45.959C112.035 49.6109 116.073 52.0482 120.25 51.376L120.655 51.3018L123.536 50.6992C124.335 50.5323 125.105 50.9902 125.342 51.7139L125.382 51.8613L128.466 66.1182C128.629 66.8729 128.179 67.6318 127.421 67.8701L127.266 67.9102L123.408 68.7168C119.129 69.6114 116.117 73.1755 115.265 77.2969L115.189 77.6973L115.04 78.5264C114.262 82.639 115.678 87.0253 119.208 89.4395L119.557 89.667L124.805 92.9365C125.488 93.3621 125.726 94.2228 125.39 94.915L125.315 95.0508L117.92 107C117.508 107.666 116.653 107.901 115.949 107.555L115.81 107.478L112.087 105.159C108.027 102.63 102.817 103.468 99.1753 106.397L98.8286 106.688L98.7046 106.794C95.4785 109.568 93.7787 113.897 95.0405 117.962L95.1724 118.354L96.7925 122.86C97.0548 123.59 96.7073 124.403 95.9907 124.739L95.8423 124.8L82.6245 129.461C81.858 129.731 81.0348 129.379 80.7036 128.691L80.644 128.549L77.6323 120.168C77.138 118.793 75.7544 117.984 74.3267 118.081L74.0405 118.113C72.8553 118.295 71.673 118.434 70.4956 118.53L69.3198 118.612C65.1901 118.853 61.2598 121.073 59.603 124.833L59.4497 125.202L57.3853 130.486C57.1026 131.21 56.3057 131.594 55.5454 131.377L55.394 131.325L42.2817 126.123C41.5273 125.824 41.1389 125.018 41.3423 124.281L41.3901 124.135L42.644 120.928C44.1347 117.113 42.4524 112.938 39.1724 110.579L38.8501 110.356C35.6269 108.222 31.2878 107.995 28.147 110.299L27.8462 110.53L23.4644 114.063C22.842 114.565 21.9522 114.506 21.4067 113.957L21.3032 113.841L12.3882 102.828C11.8918 102.215 11.9509 101.329 12.5063 100.78L12.6245 100.675L19.1646 95.4014C21.0676 93.8671 21.623 91.3123 20.7446 89.1055L20.6548 88.8936C19.6589 86.6543 17.3116 85.178 14.8198 85.4648L14.5786 85.498L6.18896 86.8457C5.38203 86.9754 4.63337 86.4823 4.43018 85.749L4.39697 85.5996L2.05029 71.6387C1.92264 70.8779 2.40874 70.141 3.17725 69.9385L3.33447 69.9053L11.3149 68.623C14.1357 68.1698 16.1927 65.8546 16.6128 63.1406L16.6479 62.877C16.9209 60.4933 15.8957 58.1172 13.8364 56.7979L13.6333 56.6729L5.34814 51.8018C4.65345 51.3933 4.39319 50.5389 4.71045 49.8389L4.78174 49.7012L12.0786 37.1953C12.4729 36.5196 13.3205 36.2621 14.0347 36.5908L14.1763 36.6641L15.6108 37.5078C20.044 40.1143 25.642 38.7977 29.189 35.2637L29.5259 34.915L29.8354 34.584C32.6672 31.5884 33.9051 27.2768 32.3813 23.4316L32.2251 23.0615L30.2866 18.7207C29.9696 18.0103 30.2554 17.1733 30.9429 16.7852L31.0854 16.7139L44.2974 10.8965C45.0391 10.57 45.8854 10.8584 46.2681 11.5215L46.3384 11.6592L47.6274 14.5449C49.344 18.3883 53.6288 20.2876 57.7827 19.8047L58.1841 19.751L58.6733 19.6777C63.1274 19.0374 67.1253 16.0788 68.1763 11.7451L68.2681 11.3213L69.1675 6.69141C69.3146 5.9336 70.0276 5.41313 70.8179 5.49219ZM93.7065 64.6865C91.2876 49.675 77.3509 39.2997 62.3794 41.2139L61.6655 41.3145C46.6612 43.6211 36.385 57.4818 38.4116 72.4629L38.5181 73.1777C40.9372 88.1891 54.8737 98.5636 69.8452 96.6494L70.5591 96.5488C85.5633 94.2421 95.8398 80.3815 93.813 65.4004L93.7065 64.6865Z" fill="#F2F2F2" stroke="#AAAAAA"/>
<path d="M349.769 212.217C350.448 212.748 351.446 213.514 352.727 214.45C355.287 216.323 358.974 218.884 363.488 221.638C372.23 226.97 384.092 233.039 396.878 236.227L398.118 236.526C403.106 237.691 408.227 238.401 413.353 238.449C412.126 243.101 411.112 247.567 410.246 251.858L409.867 253.768C408.817 259.17 407.989 264.295 407.244 269.164L406.521 273.949C404.03 290.56 402.002 304.032 394.4 315.693C386.829 327.31 373.678 337.19 348.814 346.467C324.468 337.918 311.345 327.766 303.754 315.981C296.609 304.89 294.323 292.298 292.279 278.047L291.872 275.175C291.002 268.979 290.078 262.392 288.706 255.363L288.426 253.951C287.44 249.074 286.227 243.986 284.664 238.667C289.718 238.596 294.853 237.814 299.903 236.556L299.902 236.555C315.549 233.276 327.915 226.983 336.371 221.508C340.601 218.769 343.854 216.234 346.052 214.382C347.151 213.456 347.986 212.7 348.548 212.175C348.766 211.971 348.942 211.8 349.077 211.669C349.248 211.806 349.479 211.99 349.769 212.217Z" fill="url(#paint0_linear_490_140260)" stroke="#E2E2E2"/>
<path d="M349.487 256.156C351.018 256.221 352.508 256.653 353.835 257.412L354.099 257.569C355.403 258.372 356.495 259.475 357.283 260.785L357.437 261.05C358.184 262.388 358.599 263.884 358.648 265.412L358.653 265.719V266.006C358.633 267.315 358.337 268.606 357.783 269.792L357.66 270.045C356.986 271.384 355.998 272.539 354.781 273.413L354.521 273.601L354.582 273.916L359.601 299.471C357.163 302.014 353.104 303.479 348.986 303.638C344.867 303.797 340.828 302.646 338.399 300.133L343.581 273.916L343.643 273.606L343.388 273.417C342.157 272.506 341.163 271.313 340.489 269.941L340.359 269.663C339.729 268.267 339.442 266.741 339.523 265.214L339.545 264.908C339.675 263.382 340.169 261.91 340.984 260.616L341.152 260.36C342.01 259.09 343.159 258.046 344.501 257.315L344.772 257.173C346.14 256.483 347.652 256.133 349.181 256.149L349.487 256.156Z" fill="white" stroke="#E2E2E2"/>
<g filter="url(#filter0_d_490_140260)">
<g clip-path="url(#clip1_490_140260)">
<rect x="50" y="60" width="540" height="380" rx="5" fill="white"/>
<rect width="385" height="46" transform="translate(205 60)" fill="white"/>
<rect width="95" height="46" transform="translate(225 60)" fill="white"/>
<path d="M232.014 88H226.258V78.0059H232.014V79.7422H228.377V81.9365H231.761V83.6729H228.377V86.25H232.014V88ZM236.026 80.3574V88H233.941V80.3574H236.026ZM234.987 77.3633C235.297 77.3633 235.564 77.4362 235.787 77.582C236.01 77.7233 236.122 77.9899 236.122 78.3818C236.122 78.7692 236.01 79.0381 235.787 79.1885C235.564 79.3343 235.297 79.4072 234.987 79.4072C234.673 79.4072 234.404 79.3343 234.181 79.1885C233.962 79.0381 233.853 78.7692 233.853 78.3818C233.853 77.9899 233.962 77.7233 234.181 77.582C234.404 77.4362 234.673 77.3633 234.987 77.3633ZM242.562 80.2139C243.377 80.2139 244.034 80.4372 244.53 80.8838C245.027 81.3258 245.275 82.0368 245.275 83.0166V88H243.19V83.5361C243.19 82.9893 243.09 82.5768 242.89 82.2988C242.694 82.0208 242.384 81.8818 241.96 81.8818C241.322 81.8818 240.887 82.0983 240.654 82.5312C240.422 82.9642 240.306 83.5885 240.306 84.4043V88H238.221V80.3574H239.813L240.094 81.335H240.21C240.374 81.0706 240.577 80.8564 240.818 80.6924C241.064 80.5283 241.336 80.4076 241.632 80.3301C241.933 80.2526 242.243 80.2139 242.562 80.2139ZM252.754 85.7305C252.754 86.25 252.631 86.6898 252.385 87.0498C252.143 87.4053 251.781 87.6764 251.298 87.8633C250.815 88.0456 250.213 88.1367 249.493 88.1367C248.96 88.1367 248.502 88.1025 248.119 88.0342C247.741 87.9658 247.358 87.8519 246.971 87.6924V85.9697C247.385 86.1566 247.83 86.3115 248.304 86.4346C248.782 86.5531 249.201 86.6123 249.562 86.6123C249.967 86.6123 250.257 86.5531 250.43 86.4346C250.607 86.3115 250.696 86.152 250.696 85.9561C250.696 85.8285 250.66 85.7145 250.587 85.6143C250.519 85.5094 250.368 85.3932 250.136 85.2656C249.903 85.1335 249.539 84.9626 249.042 84.7529C248.563 84.5524 248.169 84.3496 247.859 84.1445C247.554 83.9395 247.326 83.6979 247.176 83.4199C247.03 83.1374 246.957 82.7796 246.957 82.3467C246.957 81.6403 247.23 81.1094 247.777 80.7539C248.329 80.3939 249.065 80.2139 249.985 80.2139C250.459 80.2139 250.91 80.2617 251.339 80.3574C251.772 80.4531 252.216 80.6058 252.672 80.8154L252.043 82.3193C251.665 82.1553 251.307 82.0208 250.97 81.916C250.637 81.8112 250.298 81.7588 249.951 81.7588C249.646 81.7588 249.416 81.7998 249.261 81.8818C249.106 81.9639 249.028 82.0892 249.028 82.2578C249.028 82.3809 249.067 82.4902 249.145 82.5859C249.227 82.6816 249.382 82.7887 249.609 82.9072C249.842 83.0212 250.181 83.1693 250.628 83.3516C251.061 83.5293 251.437 83.7161 251.756 83.9121C252.075 84.1035 252.321 84.3428 252.494 84.6299C252.667 84.9124 252.754 85.2793 252.754 85.7305ZM257.601 86.4756C257.828 86.4756 258.049 86.4528 258.264 86.4072C258.482 86.3617 258.699 86.3047 258.913 86.2363V87.7881C258.69 87.8883 258.412 87.9704 258.079 88.0342C257.751 88.1025 257.391 88.1367 256.999 88.1367C256.543 88.1367 256.133 88.0638 255.769 87.918C255.409 87.7676 255.124 87.5101 254.914 87.1455C254.709 86.7764 254.606 86.2637 254.606 85.6074V81.9229H253.608V81.041L254.757 80.3438L255.358 78.7305H256.691V80.3574H258.831V81.9229H256.691V85.6074C256.691 85.8991 256.773 86.1178 256.938 86.2637C257.106 86.4049 257.327 86.4756 257.601 86.4756ZM263.616 80.2139C264.323 80.2139 264.931 80.3506 265.441 80.624C265.952 80.8929 266.346 81.2848 266.624 81.7998C266.902 82.3148 267.041 82.9437 267.041 83.6865V84.6982H262.112C262.135 85.2861 262.311 85.7487 262.639 86.0859C262.971 86.4186 263.432 86.585 264.02 86.585C264.507 86.585 264.954 86.5348 265.359 86.4346C265.765 86.3343 266.182 86.1839 266.61 85.9834V87.5967C266.232 87.7835 265.836 87.9202 265.421 88.0068C265.011 88.0934 264.512 88.1367 263.924 88.1367C263.158 88.1367 262.479 87.9954 261.887 87.7129C261.299 87.4303 260.836 86.9997 260.499 86.4209C260.166 85.8421 260 85.113 260 84.2334C260 83.3402 260.15 82.5973 260.451 82.0049C260.757 81.4079 261.18 80.9613 261.723 80.665C262.265 80.3643 262.896 80.2139 263.616 80.2139ZM263.63 81.6973C263.224 81.6973 262.887 81.8271 262.618 82.0869C262.354 82.3467 262.201 82.7546 262.16 83.3105H265.086C265.081 83.0007 265.024 82.7249 264.915 82.4834C264.81 82.2419 264.651 82.0505 264.437 81.9092C264.227 81.7679 263.958 81.6973 263.63 81.6973ZM270.821 88H268.736V77.3633H270.821V88ZM275.101 88H273.016V77.3633H275.101V88ZM284.309 80.3574V88H282.709L282.429 87.0225H282.319C282.155 87.2822 281.95 87.4941 281.704 87.6582C281.458 87.8223 281.187 87.943 280.891 88.0205C280.594 88.098 280.287 88.1367 279.968 88.1367C279.421 88.1367 278.945 88.041 278.539 87.8496C278.133 87.6536 277.817 87.3506 277.589 86.9404C277.366 86.5303 277.254 85.9971 277.254 85.3408V80.3574H279.339V84.8213C279.339 85.3682 279.437 85.7806 279.633 86.0586C279.829 86.3366 280.141 86.4756 280.569 86.4756C280.993 86.4756 281.326 86.3799 281.567 86.1885C281.809 85.9925 281.978 85.7077 282.073 85.334C282.174 84.9557 282.224 84.4954 282.224 83.9531V80.3574H284.309ZM290.837 80.2139C291.653 80.2139 292.309 80.4372 292.806 80.8838C293.302 81.3258 293.551 82.0368 293.551 83.0166V88H291.466V83.5361C291.466 82.9893 291.366 82.5768 291.165 82.2988C290.969 82.0208 290.659 81.8818 290.235 81.8818C289.597 81.8818 289.162 82.0983 288.93 82.5312C288.697 82.9642 288.581 83.5885 288.581 84.4043V88H286.496V80.3574H288.089L288.369 81.335H288.485C288.649 81.0706 288.852 80.8564 289.094 80.6924C289.34 80.5283 289.611 80.4076 289.907 80.3301C290.208 80.2526 290.518 80.2139 290.837 80.2139ZM297.933 91.3633C296.866 91.3633 296.05 91.1764 295.485 90.8027C294.925 90.4336 294.645 89.9141 294.645 89.2441C294.645 88.7839 294.788 88.3988 295.075 88.0889C295.362 87.779 295.784 87.5579 296.34 87.4258C296.126 87.3346 295.939 87.1865 295.779 86.9814C295.62 86.7718 295.54 86.5508 295.54 86.3184C295.54 86.0267 295.624 85.7852 295.793 85.5938C295.962 85.3978 296.205 85.2064 296.524 85.0195C296.123 84.8464 295.804 84.5684 295.567 84.1855C295.335 83.8027 295.219 83.3516 295.219 82.832C295.219 82.276 295.34 81.8044 295.581 81.417C295.827 81.0251 296.183 80.7266 296.647 80.5215C297.117 80.3164 297.687 80.2139 298.356 80.2139C298.498 80.2139 298.662 80.223 298.849 80.2412C299.035 80.2594 299.206 80.2799 299.361 80.3027C299.521 80.3255 299.628 80.3438 299.683 80.3574H302.349V81.417L301.152 81.7246C301.262 81.8932 301.344 82.0732 301.398 82.2646C301.453 82.4561 301.48 82.6589 301.48 82.873C301.48 83.6934 301.193 84.3337 300.619 84.7939C300.049 85.2497 299.257 85.4775 298.24 85.4775C297.999 85.4639 297.771 85.4456 297.557 85.4229C297.452 85.5049 297.372 85.5915 297.317 85.6826C297.263 85.7738 297.235 85.8695 297.235 85.9697C297.235 86.07 297.276 86.1543 297.358 86.2227C297.445 86.2865 297.573 86.3366 297.741 86.373C297.914 86.4049 298.129 86.4209 298.384 86.4209H299.683C300.521 86.4209 301.159 86.6009 301.597 86.9609C302.039 87.321 302.26 87.8496 302.26 88.5469C302.26 89.4401 301.886 90.1328 301.139 90.625C300.396 91.1172 299.327 91.3633 297.933 91.3633ZM298.021 90.0029C298.518 90.0029 298.944 89.9551 299.3 89.8594C299.66 89.7682 299.936 89.6361 300.127 89.4629C300.318 89.2943 300.414 89.0915 300.414 88.8545C300.414 88.6631 300.357 88.5104 300.243 88.3965C300.134 88.2871 299.965 88.2096 299.737 88.1641C299.514 88.1185 299.227 88.0957 298.876 88.0957H297.796C297.541 88.0957 297.311 88.1367 297.105 88.2188C296.905 88.3008 296.745 88.4147 296.627 88.5605C296.508 88.7109 296.449 88.8841 296.449 89.0801C296.449 89.3672 296.586 89.5928 296.859 89.7568C297.137 89.9209 297.525 90.0029 298.021 90.0029ZM298.356 84.2061C298.748 84.2061 299.035 84.0853 299.218 83.8438C299.4 83.6022 299.491 83.2741 299.491 82.8594C299.491 82.3991 299.396 82.055 299.204 81.8271C299.017 81.5947 298.735 81.4785 298.356 81.4785C297.974 81.4785 297.687 81.5947 297.495 81.8271C297.304 82.055 297.208 82.3991 297.208 82.8594C297.208 83.2741 297.301 83.6022 297.488 83.8438C297.68 84.0853 297.969 84.2061 298.356 84.2061ZM306.765 80.2139C307.471 80.2139 308.079 80.3506 308.59 80.624C309.1 80.8929 309.494 81.2848 309.772 81.7998C310.05 82.3148 310.189 82.9437 310.189 83.6865V84.6982H305.261C305.284 85.2861 305.459 85.7487 305.787 86.0859C306.12 86.4186 306.58 86.585 307.168 86.585C307.656 86.585 308.102 86.5348 308.508 86.4346C308.913 86.3343 309.33 86.1839 309.759 85.9834V87.5967C309.381 87.7835 308.984 87.9202 308.569 88.0068C308.159 88.0934 307.66 88.1367 307.072 88.1367C306.307 88.1367 305.628 87.9954 305.035 87.7129C304.447 87.4303 303.985 86.9997 303.647 86.4209C303.315 85.8421 303.148 85.113 303.148 84.2334C303.148 83.3402 303.299 82.5973 303.6 82.0049C303.905 81.4079 304.329 80.9613 304.871 80.665C305.413 80.3643 306.045 80.2139 306.765 80.2139ZM306.778 81.6973C306.373 81.6973 306.035 81.8271 305.767 82.0869C305.502 82.3467 305.35 82.7546 305.309 83.3105H308.234C308.23 83.0007 308.173 82.7249 308.063 82.4834C307.959 82.2419 307.799 82.0505 307.585 81.9092C307.375 81.7679 307.106 81.6973 306.778 81.6973ZM316.226 80.2139C317.041 80.2139 317.698 80.4372 318.194 80.8838C318.691 81.3258 318.939 82.0368 318.939 83.0166V88H316.854V83.5361C316.854 82.9893 316.754 82.5768 316.554 82.2988C316.358 82.0208 316.048 81.8818 315.624 81.8818C314.986 81.8818 314.551 82.0983 314.318 82.5312C314.086 82.9642 313.97 83.5885 313.97 84.4043V88H311.885V80.3574H313.478L313.758 81.335H313.874C314.038 81.0706 314.241 80.8564 314.482 80.6924C314.729 80.5283 315 80.4076 315.296 80.3301C315.597 80.2526 315.907 80.2139 316.226 80.2139Z" fill="#333333"/>
<rect width="155" height="380" transform="translate(50 60)" fill="#F8F9F9"/>
<rect width="154" height="380" transform="translate(50 60)" fill="#F8F9F9"/>
<rect width="154" height="51" transform="translate(50 60)" fill="#F8F9F9"/>
<path fill-rule="evenodd" clip-rule="evenodd" d="M77.0981 94.8161L70.4263 91.728C69.8579 91.4584 69.8579 91.0417 70.4263 90.7967L72.749 89.7183L77.0734 91.728C77.6417 91.9976 78.556 91.9976 79.0996 91.728L83.4239 89.7183L85.7467 90.7967C86.3151 91.0663 86.3151 91.4829 85.7467 91.728L79.0749 94.8161C78.556 95.0612 77.6417 95.0612 77.0981 94.8161Z" fill="#FF6F3D"/>
<path fill-rule="evenodd" clip-rule="evenodd" d="M77.0764 90.9948L70.425 87.9031C69.8583 87.6331 69.8583 87.216 70.425 86.9706L72.6914 85.9155L77.0764 87.9521C77.6431 88.222 78.5546 88.222 79.0965 87.9521L83.4816 85.9155L85.748 86.9706C86.3146 87.2405 86.3146 87.6577 85.748 87.9031L79.0965 90.9948C78.5299 91.2647 77.6184 91.2647 77.0764 90.9948Z" fill="#95C038"/>
<path fill-rule="evenodd" clip-rule="evenodd" d="M77.0764 87.213L70.425 84.1658C69.8583 83.8997 69.8583 83.4886 70.425 83.2467L77.0764 80.1995C77.6431 79.9335 78.5546 79.9335 79.0965 80.1995L85.748 83.2467C86.3146 83.5128 86.3146 83.9239 85.748 84.1658L79.0965 87.213C78.5299 87.4548 77.6184 87.4548 77.0764 87.213Z" fill="#5DC0E8"/>
<rect width="154" height="37" transform="translate(50 111)" fill="#F8F9F9"/>
<rect x="66" y="111" width="122" height="25" rx="3" fill="#ED7309"/>
<rect width="154" height="32" transform="translate(50 148)" fill="#F8F9F9"/>
<path fill-rule="evenodd" clip-rule="evenodd" d="M81 156C79.8954 156 79 156.895 79 158V170C79 171.105 79.8954 172 81 172H91C92.1046 172 93 171.105 93 170V160.111C93 159.852 92.8996 159.603 92.7198 159.417L89.7198 156.306C89.5314 156.11 89.2715 156 89 156H81ZM81 158L88.5751 158L91 160.515V170H81V158ZM82 162H88V160H82V162ZM82 165H90V163H82V165ZM82 168H90V166H82V168Z" fill="#657077"/>
<rect x="102" y="161.5" width="74" height="5" rx="2.5" fill="#DFE2E3"/>
<rect width="154" height="32" transform="translate(50 180)" fill="#F8F9F9"/>
<path fill-rule="evenodd" clip-rule="evenodd" d="M78 192C78 190.343 79.3431 189 81 189H90C91.6569 189 93 190.343 93 192V201C93 202.657 91.6569 204 90 204H81C79.3431 204 78 202.657 78 201V192ZM81 191C80.4477 191 80 191.448 80 192V201C80 201.552 80.4477 202 81 202H90C90.5523 202 91 201.552 91 201V192C91 191.448 90.5523 191 90 191H81ZM82 194C82 193.448 82.4477 193 83 193H84C84.5523 193 85 193.448 85 194V195C85 195.552 84.5523 196 84 196H83C82.4477 196 82 195.552 82 195V194ZM83 197C82.4477 197 82 197.448 82 198V199C82 199.552 82.4477 200 83 200H84C84.5523 200 85 199.552 85 199V198C85 197.448 84.5523 197 84 197H83ZM86 194C86 193.448 86.4477 193 87 193H88C88.5523 193 89 193.448 89 194V195C89 195.552 88.5523 196 88 196H87C86.4477 196 86 195.552 86 195V194ZM87 197C86.4477 197 86 197.448 86 198V199C86 199.552 86.4477 200 87 200H88C88.5523 200 89 199.552 89 199V198C89 197.448 88.5523 197 88 197H87Z" fill="#657077"/>
<rect x="102" y="193.5" width="64" height="5" rx="2.5" fill="#DFE2E3"/>
<rect width="154" height="32" transform="translate(50 212)" fill="#F8F9F9"/>
<path fill-rule="evenodd" clip-rule="evenodd" d="M79 225C78.4477 225 78 224.552 78 224V222C78 221.448 78.4477 221 79 221H93C93.5523 221 94 221.448 94 222V224C94 224.552 93.5523 225 93 225V234C93 234.552 92.5523 235 92 235H80C79.4477 235 79 234.552 79 234V225ZM81 226V233H91V226H81ZM83 229C83 228.448 83.4477 228 84 228H88C88.5523 228 89 228.448 89 229C89 229.552 88.5523 230 88 230H84C83.4477 230 83 229.552 83 229ZM81.5 223C81.2239 223 81 223.224 81 223.5C81 223.776 81.2239 224 81.5 224H90.5C90.7761 224 91 223.776 91 223.5C91 223.224 90.7761 223 90.5 223H81.5Z" fill="#657077"/>
<rect x="102" y="225.5" width="50" height="5" rx="2.5" fill="#DFE2E3"/>
<rect width="154" height="8" transform="translate(50 244)" fill="#F8F9F9"/>
<rect x="50" y="252" width="154" height="32" rx="3" fill="#F8F9F9"/>
<path fill-rule="evenodd" clip-rule="evenodd" d="M86.0005 263C85.4482 263 85.0005 263.448 85.0005 264V264.5C85.0005 265.14 85.1942 265.69 85.4475 266.056C85.719 266.448 85.9516 266.5 86 266.5C86.0486 266.5 86.2815 266.448 86.5532 266.055C86.8067 265.689 87.0004 265.14 87.0005 264.5V264.5V264.5L87.0004 264C87.0003 263.448 86.5526 263 86.0005 263ZM83.0005 264C83.0005 262.343 84.3437 261 86.0005 261C87.6571 261 89 262.343 89.0004 263.999L89.0005 264.5V264.5C89.0005 265.527 88.694 266.477 88.1973 267.194C87.7188 267.885 86.9514 268.5 86 268.5C85.0484 268.5 84.2812 267.885 83.803 267.194C83.3066 266.477 83.0005 265.526 83.0005 264.5V264ZM83.9102 271.075C83.8518 271.137 83.7708 271.244 83.6784 271.425C83.5266 271.723 83.3943 272.119 83.2877 272.575C83.0744 273.487 83 274.476 83 275H81C81 274.349 81.0867 273.204 81.3403 272.119C81.4671 271.577 81.6447 271.01 81.8973 270.516C82.1412 270.038 82.514 269.512 83.0921 269.218C83.8407 268.837 84.5765 269.17 84.8695 269.316L85.5528 269.658C85.8343 269.799 86.1657 269.799 86.4472 269.658L87.1305 269.316C87.4235 269.17 88.1593 268.837 88.9079 269.218C89.486 269.512 89.8588 270.038 90.1027 270.516C90.3553 271.01 90.5329 271.577 90.6597 272.119C90.9133 273.204 91 274.349 91 275H89C89 274.476 88.9256 273.487 88.7123 272.575C88.6057 272.119 88.4734 271.723 88.3216 271.425C88.2292 271.244 88.1482 271.137 88.0898 271.075C88.0703 271.083 88.0488 271.093 88.0249 271.105L87.3416 271.447C86.4971 271.869 85.5029 271.869 84.6584 271.447L83.9751 271.105C83.9512 271.093 83.9297 271.083 83.9102 271.075ZM82.0005 264C82.0005 263.656 82.0439 263.322 82.1256 263.004C82.084 263.001 82.0421 263 81.9999 263C80.8954 263 80 263.895 79.9999 264.999L79.9998 265.599V265.6C79.9998 266.561 80.3504 267.257 80.7317 267.715C80.9175 267.938 81.1052 268.098 81.2524 268.206C81.3264 268.26 81.3913 268.302 81.4426 268.333C81.4682 268.348 81.4906 268.361 81.5091 268.371L81.534 268.384L81.5442 268.39L81.5487 268.392L81.5508 268.393L81.5518 268.394C81.5523 268.394 81.5528 268.394 82 267.5L81.5528 268.394C81.8344 268.535 82.1658 268.535 82.4473 268.394L82 267.5C82.4473 268.394 82.4478 268.394 82.4483 268.394L82.4493 268.393L82.4514 268.392L82.4559 268.39L82.4661 268.384L82.491 268.371C82.5095 268.361 82.5319 268.348 82.5575 268.333C82.6088 268.302 82.6737 268.26 82.7477 268.206C82.8471 268.133 82.9651 268.036 83.0884 267.912C83.051 267.862 83.0151 267.813 82.9808 267.763C82.3628 266.87 82.0005 265.719 82.0005 264.5V264ZM89.0194 267.764C88.9851 267.813 88.9492 267.863 88.9118 267.913C89.0351 268.036 89.153 268.133 89.2524 268.206C89.3264 268.26 89.3913 268.302 89.4426 268.333C89.4682 268.348 89.4906 268.361 89.5091 268.371L89.534 268.384L89.5442 268.39L89.5487 268.392L89.5508 268.393L89.5518 268.394C89.5523 268.394 89.5528 268.394 90 267.5L89.5528 268.394C89.8344 268.535 90.1658 268.535 90.4473 268.394L90 267.5C90.4473 268.394 90.4478 268.394 90.4483 268.394L90.4493 268.393L90.4514 268.392L90.4559 268.39L90.4661 268.384L90.491 268.371C90.5095 268.361 90.5319 268.348 90.5575 268.333C90.6088 268.302 90.6737 268.26 90.7477 268.206C90.8949 268.098 91.0825 267.938 91.2683 267.715C91.6495 267.257 92 266.561 92 265.6V265C92 263.895 91.1045 263 89.9999 263C89.9581 263 89.9165 263.001 89.8753 263.003C89.9569 263.322 90.0003 263.655 90.0004 263.999L90.0005 264.5V264.5C90.0005 265.72 89.6377 266.871 89.0194 267.764ZM91.6286 271.946C91.7137 272.299 91.7815 272.655 91.8347 273H93.5C93.5 272.484 93.433 271.735 93.2243 271.039C93.0365 270.413 92.6307 269.482 91.7089 269.129C91.1679 268.922 90.6681 269.072 90.3727 269.2C90.638 269.516 90.8388 269.849 90.9913 270.149C91.2886 270.735 91.4894 271.369 91.6286 271.946ZM81.0087 270.149C81.1612 269.849 81.362 269.516 81.6273 269.2C81.3319 269.072 80.8321 268.922 80.2911 269.129C79.3693 269.482 78.9635 270.413 78.7757 271.039C78.567 271.735 78.5 272.484 78.5 273H80.1653C80.2185 272.655 80.2863 272.299 80.3714 271.946C80.5106 271.369 80.7114 270.735 81.0087 270.149ZM81.9999 265L82 265V265.6L81.9999 265.62L81.9998 265.6V265.6V265.6L81.9999 265L81.9999 265ZM89.9999 265L90 265V265.6L89.9999 265.62L89.9998 265.6V265.6V265.6L89.9999 265L89.9999 265Z" fill="#657077"/>
<rect x="102" y="265.5" width="54" height="5" rx="2.5" fill="#DFE2E3"/>
<rect width="154" height="32" transform="translate(50 284)" fill="#F8F9F9"/>
<rect x="66" y="288" width="122" height="24" rx="3" fill="#DFE2E3"/>
<g clip-path="url(#clip2_490_140260)">
<path fill-rule="evenodd" clip-rule="evenodd" d="M81.8437 293.946C81.4934 293.711 81.0295 293.717 80.7132 293.996C80.4592 294.22 80.2195 294.459 79.9957 294.713C79.717 295.029 79.7112 295.493 79.9457 295.844L80.6387 296.879C80.6853 296.948 80.7218 297.021 80.7489 297.095C80.5322 297.486 80.358 297.903 80.2322 298.341C80.1609 298.374 80.0839 298.4 80.0019 298.416L78.7798 298.658C78.3661 298.74 78.0421 299.072 78.0158 299.493C78.0053 299.661 78 299.83 78 300C78 300.17 78.0053 300.339 78.0158 300.507C78.0421 300.928 78.3661 301.26 78.7798 301.342L80.0019 301.584C80.0839 301.6 80.1609 301.626 80.2322 301.659C80.358 302.097 80.5322 302.514 80.7489 302.905C80.7218 302.979 80.6853 303.052 80.6387 303.121L79.9457 304.156C79.7112 304.507 79.717 304.971 79.9957 305.287C80.2195 305.541 80.4592 305.78 80.7132 306.004C81.0295 306.283 81.4934 306.289 81.8437 306.054L82.8787 305.361C82.9484 305.315 83.0209 305.278 83.095 305.251C83.4858 305.468 83.9033 305.642 84.3413 305.768C84.3744 305.839 84.3998 305.916 84.416 305.998L84.658 307.22C84.7399 307.634 85.0723 307.958 85.4932 307.984C85.6608 307.995 85.8298 308 86 308C86.1702 308 86.3392 307.995 86.5068 307.984C86.9277 307.958 87.2601 307.634 87.342 307.22L87.584 305.998C87.6002 305.916 87.6256 305.839 87.6587 305.768C88.0967 305.642 88.5142 305.468 88.905 305.251C88.9791 305.278 89.0516 305.315 89.1213 305.361L90.1563 306.054C90.5066 306.289 90.9705 306.283 91.2868 306.004C91.5408 305.78 91.7805 305.541 92.0043 305.287C92.283 304.971 92.2888 304.507 92.0543 304.156L91.3613 303.121C91.3147 303.052 91.2782 302.979 91.2511 302.905C91.4678 302.514 91.642 302.097 91.7678 301.659C91.8391 301.626 91.9161 301.6 91.9981 301.584L93.2202 301.342C93.6339 301.26 93.9579 300.928 93.9842 300.507C93.9947 300.339 94 300.17 94 300C94 299.83 93.9947 299.661 93.9842 299.493C93.9579 299.072 93.6339 298.74 93.2202 298.658L91.9981 298.416C91.9161 298.4 91.8391 298.374 91.7678 298.341C91.642 297.903 91.4678 297.486 91.2511 297.095C91.2782 297.021 91.3147 296.948 91.3613 296.879L92.0543 295.844C92.2888 295.493 92.283 295.029 92.0043 294.713C91.7805 294.459 91.5408 294.22 91.2868 293.996C90.9705 293.717 90.5066 293.711 90.1563 293.946L89.1213 294.639C89.0516 294.685 88.9791 294.722 88.905 294.749C88.5142 294.532 88.0967 294.358 87.6587 294.232C87.6256 294.161 87.6002 294.084 87.584 294.002L87.342 292.78C87.2601 292.366 86.9277 292.042 86.5068 292.016C86.3392 292.005 86.1702 292 86 292C85.8298 292 85.6608 292.005 85.4932 292.016C85.0723 292.042 84.7399 292.366 84.658 292.78L84.416 294.002C84.3998 294.084 84.3744 294.161 84.3413 294.232C83.9033 294.358 83.4858 294.532 83.095 294.749C83.0209 294.722 82.9484 294.685 82.8787 294.639L81.8437 293.946ZM90.5 300C90.5 302.485 88.4853 304.5 86 304.5C83.5147 304.5 81.5 302.485 81.5 300C81.5 297.515 83.5147 295.5 86 295.5C88.4853 295.5 90.5 297.515 90.5 300ZM86 302C87.1046 302 88 301.105 88 300C88 298.895 87.1046 298 86 298C84.8954 298 84 298.895 84 300C84 301.105 84.8954 302 86 302Z" fill="#657077"/>
</g>
<rect x="102" y="297.5" width="64" height="5" rx="2.5" fill="white"/>
<rect x="50" y="316" width="154" height="32" rx="3" fill="#F8F9F9"/>
<g clip-path="url(#clip3_490_140260)">
<path fill-rule="evenodd" clip-rule="evenodd" d="M85.4995 324H86.4995C87.3279 324 87.9995 324.672 87.9995 325.5V326H88.0005H91.0005C92.1053 326 93.0005 326.896 93.0005 328H91.0005V328H88.0005H86.4995H85.4995H84.0005H81.0005V328H79.0005C79.0005 326.896 79.8956 326 81.0005 326H83.9995V325.5C83.9995 324.672 84.671 324 85.4995 324ZM81.0005 329V337C81.0005 338.657 82.3436 340 84.0005 340H88.0005C89.6573 340 91.0005 338.657 91.0005 337V329H89.0005V337C89.0005 337.553 88.5528 338 88.0005 338H84.0005C83.4482 338 83.0005 337.553 83.0005 337V329H81.0005ZM85.0005 330V338H87.0005V330H85.0005Z" fill="#657077"/>
</g>
<rect x="102" y="329.5" width="54" height="5" rx="2.5" fill="#DFE2E3"/>
<rect width="154" height="56" transform="translate(50 384)" fill="#F3F4F4"/>
<rect x="50" y="384" width="154" height="1" fill="#ECEEF1"/>
<rect x="66" y="396.5" width="32" height="32" rx="16" fill="#DFE2E3"/>
<rect x="110" y="410" width="50" height="5" rx="2.5" fill="#DFE2E3"/>
<g clip-path="url(#clip4_490_140260)">
<path fill-rule="evenodd" clip-rule="evenodd" d="M178 406.5C178 405.395 178.895 404.5 180 404.5C181.105 404.5 182 405.395 182 406.5C182 407.605 181.105 408.5 180 408.5C178.895 408.5 178 407.605 178 406.5ZM178 412.5C178 411.395 178.895 410.5 180 410.5C181.105 410.5 182 411.395 182 412.5C182 413.605 181.105 414.5 180 414.5C178.895 414.5 178 413.605 178 412.5ZM180 416.5C178.895 416.5 178 417.395 178 418.5C178 419.605 178.895 420.5 180 420.5C181.105 420.5 182 419.605 182 418.5C182 417.395 181.105 416.5 180 416.5Z" fill="#657077"/>
</g>
<rect x="204" y="60" width="1" height="380" fill="#ECEEF1"/>
<rect x="225" y="137" width="345" height="1" fill="#ECEEF1"/>
<path d="M229.582 120.348H232.781V124.648C232.332 124.797 231.867 124.912 231.387 124.994C230.906 125.076 230.367 125.117 229.77 125.117C228.898 125.117 228.16 124.945 227.555 124.602C226.953 124.254 226.496 123.752 226.184 123.096C225.871 122.436 225.715 121.641 225.715 120.711C225.715 119.816 225.889 119.041 226.236 118.385C226.584 117.725 227.09 117.215 227.754 116.855C228.418 116.492 229.223 116.311 230.168 116.311C230.633 116.311 231.082 116.357 231.516 116.451C231.953 116.541 232.354 116.666 232.717 116.826L232.225 117.986C231.936 117.85 231.611 117.734 231.252 117.641C230.893 117.547 230.52 117.5 230.133 117.5C229.52 117.5 228.99 117.633 228.545 117.898C228.104 118.164 227.764 118.539 227.525 119.023C227.287 119.504 227.168 120.072 227.168 120.729C227.168 121.365 227.264 121.924 227.455 122.404C227.646 122.885 227.945 123.26 228.352 123.529C228.762 123.795 229.291 123.928 229.939 123.928C230.264 123.928 230.539 123.91 230.766 123.875C230.992 123.84 231.201 123.801 231.393 123.758V121.549H229.582V120.348ZM237.275 118.391C237.854 118.391 238.35 118.51 238.764 118.748C239.178 118.986 239.496 119.324 239.719 119.762C239.941 120.199 240.053 120.723 240.053 121.332V122.07H235.723C235.738 122.699 235.906 123.184 236.227 123.523C236.551 123.863 237.004 124.033 237.586 124.033C238 124.033 238.371 123.994 238.699 123.916C239.031 123.834 239.373 123.715 239.725 123.559V124.678C239.4 124.83 239.07 124.941 238.734 125.012C238.398 125.082 237.996 125.117 237.527 125.117C236.891 125.117 236.33 124.994 235.846 124.748C235.365 124.498 234.988 124.127 234.715 123.635C234.445 123.143 234.311 122.531 234.311 121.801C234.311 121.074 234.434 120.457 234.68 119.949C234.926 119.441 235.271 119.055 235.717 118.789C236.162 118.523 236.682 118.391 237.275 118.391ZM237.275 119.428C236.842 119.428 236.49 119.568 236.221 119.85C235.955 120.131 235.799 120.543 235.752 121.086H238.705C238.701 120.762 238.646 120.475 238.541 120.225C238.439 119.975 238.283 119.779 238.072 119.639C237.865 119.498 237.6 119.428 237.275 119.428ZM244.986 118.391C245.717 118.391 246.285 118.58 246.691 118.959C247.102 119.334 247.307 119.938 247.307 120.77V125H245.93V121.027C245.93 120.523 245.826 120.146 245.619 119.896C245.412 119.643 245.092 119.516 244.658 119.516C244.029 119.516 243.592 119.709 243.346 120.096C243.104 120.482 242.982 121.043 242.982 121.777V125H241.605V118.514H242.678L242.871 119.393H242.947C243.088 119.166 243.262 118.98 243.469 118.836C243.68 118.688 243.914 118.576 244.172 118.502C244.434 118.428 244.705 118.391 244.986 118.391ZM251.818 118.391C252.396 118.391 252.893 118.51 253.307 118.748C253.721 118.986 254.039 119.324 254.262 119.762C254.484 120.199 254.596 120.723 254.596 121.332V122.07H250.266C250.281 122.699 250.449 123.184 250.77 123.523C251.094 123.863 251.547 124.033 252.129 124.033C252.543 124.033 252.914 123.994 253.242 123.916C253.574 123.834 253.916 123.715 254.268 123.559V124.678C253.943 124.83 253.613 124.941 253.277 125.012C252.941 125.082 252.539 125.117 252.07 125.117C251.434 125.117 250.873 124.994 250.389 124.748C249.908 124.498 249.531 124.127 249.258 123.635C248.988 123.143 248.854 122.531 248.854 121.801C248.854 121.074 248.977 120.457 249.223 119.949C249.469 119.441 249.814 119.055 250.26 118.789C250.705 118.523 251.225 118.391 251.818 118.391ZM251.818 119.428C251.385 119.428 251.033 119.568 250.764 119.85C250.498 120.131 250.342 120.543 250.295 121.086H253.248C253.244 120.762 253.189 120.475 253.084 120.225C252.982 119.975 252.826 119.779 252.615 119.639C252.408 119.498 252.143 119.428 251.818 119.428ZM259.436 118.391C259.545 118.391 259.664 118.396 259.793 118.408C259.922 118.42 260.033 118.436 260.127 118.455L259.998 119.744C259.916 119.721 259.814 119.703 259.693 119.691C259.576 119.68 259.471 119.674 259.377 119.674C259.131 119.674 258.896 119.715 258.674 119.797C258.451 119.875 258.254 119.996 258.082 120.16C257.91 120.32 257.775 120.521 257.678 120.764C257.58 121.006 257.531 121.287 257.531 121.607V125H256.148V118.514H257.227L257.414 119.656H257.479C257.607 119.426 257.768 119.215 257.959 119.023C258.15 118.832 258.369 118.68 258.615 118.566C258.865 118.449 259.139 118.391 259.436 118.391ZM263.871 118.391C264.691 118.391 265.311 118.572 265.729 118.936C266.15 119.299 266.361 119.865 266.361 120.635V125H265.383L265.119 124.08H265.072C264.889 124.314 264.699 124.508 264.504 124.66C264.309 124.812 264.082 124.926 263.824 125C263.57 125.078 263.26 125.117 262.893 125.117C262.506 125.117 262.16 125.047 261.855 124.906C261.551 124.762 261.311 124.543 261.135 124.25C260.959 123.957 260.871 123.586 260.871 123.137C260.871 122.469 261.119 121.967 261.615 121.631C262.115 121.295 262.869 121.109 263.877 121.074L265.002 121.033V120.693C265.002 120.244 264.896 119.924 264.686 119.732C264.479 119.541 264.186 119.445 263.807 119.445C263.482 119.445 263.168 119.492 262.863 119.586C262.559 119.68 262.262 119.795 261.973 119.932L261.527 118.959C261.844 118.791 262.203 118.654 262.605 118.549C263.012 118.443 263.434 118.391 263.871 118.391ZM264.996 121.9L264.158 121.93C263.471 121.953 262.988 122.07 262.711 122.281C262.434 122.492 262.295 122.781 262.295 123.148C262.295 123.469 262.391 123.703 262.582 123.852C262.773 123.996 263.025 124.068 263.338 124.068C263.814 124.068 264.209 123.934 264.521 123.664C264.838 123.391 264.996 122.99 264.996 122.463V121.9ZM269.672 125H268.289V115.883H269.672V125Z" fill="#316DAA"/>
<path d="M271 138H225V137C225 135.343 226.343 134 228 134H268C269.657 134 271 135.343 271 137V138Z" fill="#316DAA"/>
<path d="M294.615 116.434C295.721 116.434 296.527 116.66 297.035 117.113C297.543 117.566 297.797 118.201 297.797 119.018C297.797 119.389 297.738 119.742 297.621 120.078C297.508 120.41 297.32 120.705 297.059 120.963C296.797 121.217 296.451 121.418 296.021 121.566C295.596 121.715 295.07 121.789 294.445 121.789H293.531V125H292.125V116.434H294.615ZM294.521 117.6H293.531V120.617H294.299C294.74 120.617 295.115 120.566 295.424 120.465C295.732 120.359 295.967 120.193 296.127 119.967C296.287 119.74 296.367 119.441 296.367 119.07C296.367 118.574 296.217 118.205 295.916 117.963C295.619 117.721 295.154 117.6 294.521 117.6ZM301.951 118.391C302.529 118.391 303.025 118.51 303.439 118.748C303.854 118.986 304.172 119.324 304.395 119.762C304.617 120.199 304.729 120.723 304.729 121.332V122.07H300.398C300.414 122.699 300.582 123.184 300.902 123.523C301.227 123.863 301.68 124.033 302.262 124.033C302.676 124.033 303.047 123.994 303.375 123.916C303.707 123.834 304.049 123.715 304.4 123.559V124.678C304.076 124.83 303.746 124.941 303.41 125.012C303.074 125.082 302.672 125.117 302.203 125.117C301.566 125.117 301.006 124.994 300.521 124.748C300.041 124.498 299.664 124.127 299.391 123.635C299.121 123.143 298.986 122.531 298.986 121.801C298.986 121.074 299.109 120.457 299.355 119.949C299.602 119.441 299.947 119.055 300.393 118.789C300.838 118.523 301.357 118.391 301.951 118.391ZM301.951 119.428C301.518 119.428 301.166 119.568 300.896 119.85C300.631 120.131 300.475 120.543 300.428 121.086H303.381C303.377 120.762 303.322 120.475 303.217 120.225C303.115 119.975 302.959 119.779 302.748 119.639C302.541 119.498 302.275 119.428 301.951 119.428ZM309.568 118.391C309.678 118.391 309.797 118.396 309.926 118.408C310.055 118.42 310.166 118.436 310.26 118.455L310.131 119.744C310.049 119.721 309.947 119.703 309.826 119.691C309.709 119.68 309.604 119.674 309.51 119.674C309.264 119.674 309.029 119.715 308.807 119.797C308.584 119.875 308.387 119.996 308.215 120.16C308.043 120.32 307.908 120.521 307.811 120.764C307.713 121.006 307.664 121.287 307.664 121.607V125H306.281V118.514H307.359L307.547 119.656H307.611C307.74 119.426 307.9 119.215 308.092 119.023C308.283 118.832 308.502 118.68 308.748 118.566C308.998 118.449 309.271 118.391 309.568 118.391ZM315.82 123.148C315.82 123.574 315.717 123.934 315.51 124.227C315.303 124.52 315 124.742 314.602 124.895C314.207 125.043 313.723 125.117 313.148 125.117C312.695 125.117 312.305 125.084 311.977 125.018C311.652 124.955 311.346 124.857 311.057 124.725V123.535C311.365 123.68 311.711 123.805 312.094 123.91C312.48 124.016 312.846 124.068 313.189 124.068C313.643 124.068 313.969 123.998 314.168 123.857C314.367 123.713 314.467 123.521 314.467 123.283C314.467 123.143 314.426 123.018 314.344 122.908C314.266 122.795 314.117 122.68 313.898 122.562C313.684 122.441 313.367 122.297 312.949 122.129C312.539 121.965 312.193 121.801 311.912 121.637C311.631 121.473 311.418 121.275 311.273 121.045C311.129 120.811 311.057 120.512 311.057 120.148C311.057 119.574 311.283 119.139 311.736 118.842C312.193 118.541 312.797 118.391 313.547 118.391C313.945 118.391 314.32 118.432 314.672 118.514C315.027 118.592 315.375 118.707 315.715 118.859L315.281 119.896C314.988 119.768 314.693 119.662 314.396 119.58C314.104 119.494 313.805 119.451 313.5 119.451C313.145 119.451 312.873 119.506 312.686 119.615C312.502 119.725 312.41 119.881 312.41 120.084C312.41 120.236 312.455 120.365 312.545 120.471C312.635 120.576 312.789 120.682 313.008 120.787C313.23 120.893 313.539 121.023 313.934 121.18C314.32 121.328 314.654 121.484 314.936 121.648C315.221 121.809 315.439 122.006 315.592 122.24C315.744 122.475 315.82 122.777 315.82 123.148ZM323.051 121.742C323.051 122.281 322.98 122.76 322.84 123.178C322.699 123.596 322.494 123.949 322.225 124.238C321.955 124.523 321.631 124.742 321.252 124.895C320.873 125.043 320.445 125.117 319.969 125.117C319.523 125.117 319.115 125.043 318.744 124.895C318.373 124.742 318.051 124.523 317.777 124.238C317.508 123.949 317.299 123.596 317.15 123.178C317.002 122.76 316.928 122.281 316.928 121.742C316.928 121.027 317.051 120.422 317.297 119.926C317.547 119.426 317.902 119.045 318.363 118.783C318.824 118.521 319.373 118.391 320.01 118.391C320.607 118.391 321.135 118.521 321.592 118.783C322.049 119.045 322.406 119.426 322.664 119.926C322.922 120.426 323.051 121.031 323.051 121.742ZM318.346 121.742C318.346 122.215 318.402 122.619 318.516 122.955C318.633 123.291 318.812 123.549 319.055 123.729C319.297 123.904 319.609 123.992 319.992 123.992C320.375 123.992 320.688 123.904 320.93 123.729C321.172 123.549 321.35 123.291 321.463 122.955C321.576 122.619 321.633 122.215 321.633 121.742C321.633 121.27 321.576 120.869 321.463 120.541C321.35 120.209 321.172 119.957 320.93 119.785C320.688 119.609 320.373 119.521 319.986 119.521C319.416 119.521 319 119.713 318.738 120.096C318.477 120.479 318.346 121.027 318.346 121.742ZM318.158 116.797C318.158 116.562 318.223 116.393 318.352 116.287C318.48 116.178 318.639 116.123 318.826 116.123C319.014 116.123 319.174 116.178 319.307 116.287C319.443 116.393 319.512 116.562 319.512 116.797C319.512 117.023 319.443 117.193 319.307 117.307C319.174 117.42 319.014 117.477 318.826 117.477C318.639 117.477 318.48 117.42 318.352 117.307C318.223 117.193 318.158 117.023 318.158 116.797ZM320.461 116.797C320.461 116.562 320.525 116.393 320.654 116.287C320.787 116.178 320.947 116.123 321.135 116.123C321.322 116.123 321.482 116.178 321.615 116.287C321.752 116.393 321.82 116.562 321.82 116.797C321.82 117.023 321.752 117.193 321.615 117.307C321.482 117.42 321.322 117.477 321.135 117.477C320.947 117.477 320.787 117.42 320.654 117.307C320.525 117.193 320.461 117.023 320.461 116.797ZM328.014 118.391C328.744 118.391 329.312 118.58 329.719 118.959C330.129 119.334 330.334 119.938 330.334 120.77V125H328.957V121.027C328.957 120.523 328.854 120.146 328.646 119.896C328.439 119.643 328.119 119.516 327.686 119.516C327.057 119.516 326.619 119.709 326.373 120.096C326.131 120.482 326.01 121.043 326.01 121.777V125H324.633V118.514H325.705L325.898 119.393H325.975C326.115 119.166 326.289 118.98 326.496 118.836C326.707 118.688 326.941 118.576 327.199 118.502C327.461 118.428 327.732 118.391 328.014 118.391ZM333.645 125H332.262V115.883H333.645V125ZM336.99 118.514V125H335.613V118.514H336.99ZM336.311 116.029C336.521 116.029 336.703 116.086 336.855 116.199C337.012 116.312 337.09 116.508 337.09 116.785C337.09 117.059 337.012 117.254 336.855 117.371C336.703 117.484 336.521 117.541 336.311 117.541C336.092 117.541 335.906 117.484 335.754 117.371C335.605 117.254 335.531 117.059 335.531 116.785C335.531 116.508 335.605 116.312 335.754 116.199C335.906 116.086 336.092 116.029 336.311 116.029ZM341.578 125.117C340.965 125.117 340.434 124.998 339.984 124.76C339.535 124.521 339.189 124.156 338.947 123.664C338.705 123.172 338.584 122.547 338.584 121.789C338.584 121 338.717 120.355 338.982 119.855C339.248 119.355 339.615 118.986 340.084 118.748C340.557 118.51 341.098 118.391 341.707 118.391C342.094 118.391 342.443 118.43 342.756 118.508C343.072 118.582 343.34 118.674 343.559 118.783L343.148 119.885C342.91 119.787 342.666 119.705 342.416 119.639C342.166 119.572 341.926 119.539 341.695 119.539C341.316 119.539 341 119.623 340.746 119.791C340.496 119.959 340.309 120.209 340.184 120.541C340.062 120.873 340.002 121.285 340.002 121.777C340.002 122.254 340.064 122.656 340.189 122.984C340.314 123.309 340.5 123.555 340.746 123.723C340.992 123.887 341.295 123.969 341.654 123.969C342.01 123.969 342.328 123.926 342.609 123.84C342.891 123.754 343.156 123.643 343.406 123.506V124.701C343.16 124.842 342.896 124.945 342.615 125.012C342.334 125.082 341.988 125.117 341.578 125.117ZM346.307 115.883V118.174C346.307 118.412 346.299 118.645 346.283 118.871C346.271 119.098 346.258 119.273 346.242 119.398H346.318C346.455 119.172 346.623 118.986 346.822 118.842C347.021 118.693 347.244 118.582 347.49 118.508C347.74 118.434 348.006 118.396 348.287 118.396C348.783 118.396 349.205 118.48 349.553 118.648C349.9 118.812 350.166 119.068 350.35 119.416C350.537 119.764 350.631 120.215 350.631 120.77V125H349.254V121.027C349.254 120.523 349.15 120.146 348.943 119.896C348.736 119.643 348.416 119.516 347.982 119.516C347.564 119.516 347.232 119.604 346.986 119.779C346.744 119.951 346.57 120.207 346.465 120.547C346.359 120.883 346.307 121.293 346.307 121.777V125H344.93V115.883H346.307Z" fill="#657077"/>
<rect x="225" y="158" width="28" height="16" rx="8" fill="#4781D1"/>
<path fill-rule="evenodd" clip-rule="evenodd" d="M245 172C248.314 172 251 169.314 251 166C251 162.686 248.314 160 245 160C241.686 160 239 162.686 239 166C239 169.314 241.686 172 245 172Z" fill="white"/>
<rect x="225" y="222" width="28" height="16" rx="8" fill="#D0D5DA"/>
<path fill-rule="evenodd" clip-rule="evenodd" d="M233 236C236.314 236 239 233.314 239 230C239 226.686 236.314 224 233 224C229.686 224 227 226.686 227 230C227 233.314 229.686 236 233 236Z" fill="white"/>
<rect x="225" y="190" width="28" height="16" rx="8" fill="#D0D5DA"/>
<path fill-rule="evenodd" clip-rule="evenodd" d="M233 204C236.314 204 239 201.314 239 198C239 194.686 236.314 192 233 192C229.686 192 227 194.686 227 198C227 201.314 229.686 204 233 204Z" fill="white"/>
<rect x="225" y="254" width="28" height="16" rx="8" fill="#D0D5DA"/>
<path fill-rule="evenodd" clip-rule="evenodd" d="M233 268C236.314 268 239 265.314 239 262C239 258.686 236.314 256 233 256C229.686 256 227 258.686 227 262C227 265.314 229.686 268 233 268Z" fill="white"/>
<rect x="261" y="163" width="120" height="5" rx="2.5" fill="#EFEFEF"/>
<rect x="261" y="195" width="66" height="5" rx="2.5" fill="#EFEFEF"/>
<rect x="261" y="227" width="137" height="5" rx="2.5" fill="#EFEFEF"/>
<rect x="261" y="259" width="64" height="5" rx="2.5" fill="#EFEFEF"/>
<rect x="334" y="259" width="64" height="5" rx="2.5" fill="#EFEFEF"/>
</g>
<rect x="50.5" y="60.5" width="539" height="379" rx="4.5" stroke="#E2E2E2"/>
</g>
<g filter="url(#filter1_d_490_140260)">
<rect x="410" y="50" width="220" height="64" rx="6" fill="white"/>
<rect x="410.5" y="50.5" width="219" height="63" rx="5.5" stroke="#D0D5DA"/>
<path d="M526.937 88.2232L530.916 82.7589L527.175 77.6964H530.359L532.508 80.9107L534.657 77.6964H537.761L534.02 82.7589L538 88.2232H534.896L532.429 84.7679L530.12 88.2232" fill="black"/>
<path d="M521.763 88.5446C518.42 88.5446 516.431 86.6964 516.431 83.1607V82.8393C516.431 79.2232 518.659 77.2946 521.763 77.2946C524.867 77.2946 527.255 78.9018 527.255 82.8393V83.1607C527.255 86.6964 524.947 88.5446 521.763 88.5446ZM521.763 86.1339C523.355 86.1339 524.39 85.0893 524.39 83.1607V82.9196C524.39 80.9107 523.355 79.7857 521.843 79.7857C520.331 79.7857 519.455 80.9107 519.455 83V83.2411C519.375 85.1696 520.171 86.1339 521.763 86.1339ZM510.78 88.5446C509.029 88.5446 507.914 87.6607 507.357 86.375L507.118 88.2232H504.651V74H507.357V79.625C507.994 78.1786 509.267 77.4554 510.859 77.4554C513.326 77.4554 515.077 79.2232 515.077 82.7589V83.0804C515.157 86.9375 513.486 88.5446 510.78 88.5446ZM509.984 86.2143C511.576 86.2143 512.451 85.1696 512.451 83.0804V82.8393C512.451 80.9107 511.496 79.7857 510.063 79.7857C508.551 79.7857 507.516 80.9911 507.516 82.8393V83.0804C507.437 85.0089 508.471 86.2143 509.984 86.2143ZM492.633 92V77.6964H494.941L495.18 79.625C495.737 78.2589 496.612 77.375 498.682 77.375C501.388 77.375 503.059 78.9821 503.059 82.9196V83.2411C503.059 87.0982 501.149 88.5446 498.682 88.5446C497.01 88.5446 495.896 87.8214 495.339 86.5357V92H492.633ZM497.727 86.1339C499.318 86.1339 500.273 85.0893 500.273 83.1607V82.9196C500.273 80.8304 499.239 79.7857 497.806 79.7857C496.294 79.7857 495.259 80.9911 495.259 82.9196V83.0804C495.259 84.9286 496.214 86.1339 497.727 86.1339ZM485.469 88.5446C482.126 88.5446 480.137 86.6964 480.137 83.1607V82.8393C480.137 79.2232 482.365 77.2946 485.469 77.2946C488.573 77.2946 490.961 78.9018 490.961 82.8393V83.1607C490.961 86.6964 488.653 88.5446 485.469 88.5446ZM485.469 86.1339C487.061 86.1339 488.096 85.0893 488.096 83.1607V82.9196C488.096 80.9107 487.061 79.7857 485.549 79.7857C484.037 79.7857 483.161 80.9107 483.161 83V83.2411C483.082 85.1696 483.878 86.1339 485.469 86.1339ZM472.735 88.2232H475.52V83.4821C475.52 81.3125 476.635 80.5893 478.625 80.5893H479.42V77.6964H478.704C476.714 77.6964 475.998 78.5804 475.52 80.1875L475.122 77.6964H472.735V88.2232ZM460 88.2232V74.6429H464.935C468.118 74.6429 471.143 76.6518 471.143 80.8304V82.0357C471.143 86.2143 468.278 88.1429 465.014 88.1429H460V88.2232ZM464.776 77.375H462.865V85.4911H464.855C466.288 85.4911 468.198 84.6071 468.198 81.9554V80.9107C468.198 78.4196 466.447 77.375 464.776 77.375Z" fill="black"/>
<path d="M436.256 71L430 74.9298L436.256 78.8597L442.488 74.9298L436.256 71ZM448.744 71L442.512 74.9298L448.744 78.8597L455 74.9298L448.744 71Z" fill="#0062FF"/>
<path d="M430 82.8137L436.256 86.7436L442.488 82.8137L436.256 78.8594L430 82.8137ZM448.744 78.8594L442.488 82.8137L448.744 86.7436L455 82.8137L448.744 78.8594ZM436.256 88.0699L442.488 91.9997L448.744 88.0699L442.488 84.1155L436.256 88.0699Z" fill="#0062FF"/>
<rect x="582" y="74" width="28" height="16" rx="8" fill="#4781D1"/>
<path fill-rule="evenodd" clip-rule="evenodd" d="M602 88C605.314 88 608 85.3137 608 82C608 78.6863 605.314 76 602 76C598.686 76 596 78.6863 596 82C596 85.3137 598.686 88 602 88Z" fill="white"/>
</g>
<g filter="url(#filter2_d_490_140260)">
<rect x="410" y="134" width="220" height="64" rx="6" fill="white"/>
<rect x="410.5" y="134.5" width="219" height="63" rx="5.5" stroke="#D0D5DA"/>
<path d="M501.208 154.958C501.208 153.954 502.043 153.14 503.072 153.14H524.569C525.599 153.14 526.433 153.954 526.433 154.958V176.706C526.433 177.711 525.599 178.525 524.569 178.525H503.072C502.043 178.525 501.208 177.711 501.208 176.706V154.958Z" fill="#006699"/>
<path fill-rule="evenodd" clip-rule="evenodd" d="M430.595 174.403H441.122V170.947H434.404V157.761H430.595V174.403Z" fill="black"/>
<path fill-rule="evenodd" clip-rule="evenodd" d="M446.451 174.402V162.94H442.641V174.402H446.451ZM444.546 161.375C445.875 161.375 446.702 160.495 446.702 159.394C446.677 158.269 445.875 157.414 444.572 157.414C443.268 157.414 442.416 158.269 442.416 159.394C442.416 160.495 443.243 161.375 444.521 161.375H444.546H444.546Z" fill="black"/>
<path fill-rule="evenodd" clip-rule="evenodd" d="M448.221 174.403H452.031V168.002C452.031 167.659 452.056 167.317 452.156 167.072C452.432 166.388 453.058 165.679 454.111 165.679C455.49 165.679 456.041 166.73 456.041 168.27V174.403H459.851V167.83C459.851 164.309 457.971 162.671 455.464 162.671C453.409 162.671 452.507 163.82 452.005 164.602H452.031V162.94H448.221C448.271 164.016 448.221 174.403 448.221 174.403Z" fill="black"/>
<path fill-rule="evenodd" clip-rule="evenodd" d="M465.225 157.761H461.415V174.403H465.225V170.687L466.177 169.488L469.16 174.403H473.847L468.834 167.287L473.221 162.446H468.634C468.634 162.446 465.501 166.778 465.225 167.291V157.761Z" fill="black"/>
<path fill-rule="evenodd" clip-rule="evenodd" d="M484.037 169.621C484.087 169.327 484.162 168.762 484.162 168.124C484.162 165.16 482.658 162.152 478.698 162.152C474.462 162.152 472.507 165.503 472.507 168.541C472.507 172.299 474.888 174.647 479.049 174.647C480.703 174.647 482.232 174.402 483.485 173.889L482.984 171.373C481.956 171.714 480.904 171.884 479.6 171.884C477.821 171.884 476.267 171.154 476.141 169.597L484.037 169.62V169.621ZM476.116 167.044C476.217 166.065 476.868 164.622 478.498 164.622C480.227 164.622 480.628 166.163 480.628 167.044H476.116Z" fill="black"/>
<path fill-rule="evenodd" clip-rule="evenodd" d="M493.566 157.761V163.522H493.516C492.965 162.715 491.811 162.177 490.283 162.177C487.35 162.177 484.768 164.525 484.793 168.534C484.793 172.251 487.124 174.672 490.032 174.672C491.611 174.672 493.115 173.987 493.867 172.666H493.942L494.092 174.403H497.476C497.426 173.596 497.376 172.202 497.376 170.833V157.761H493.566ZM493.566 169.097C493.566 169.39 493.541 169.684 493.491 169.928C493.265 170.98 492.363 171.713 491.26 171.713C489.681 171.713 488.653 170.442 488.653 168.437C488.653 166.554 489.531 165.038 491.285 165.038C492.463 165.038 493.29 165.845 493.516 166.847C493.566 167.068 493.566 167.312 493.566 167.532V169.097Z" fill="black"/>
<path fill-rule="evenodd" clip-rule="evenodd" d="M508.855 174.389V162.926H505.045V174.389H508.855ZM506.95 161.361C508.278 161.361 509.105 160.481 509.105 159.381C509.08 158.256 508.278 157.401 506.975 157.401C505.672 157.401 504.819 158.256 504.819 159.381C504.819 160.481 505.646 161.361 506.925 161.361H506.95H506.95Z" fill="white"/>
<path fill-rule="evenodd" clip-rule="evenodd" d="M510.963 174.389H514.773V167.988C514.773 167.645 514.798 167.303 514.898 167.058C515.174 166.374 515.801 165.665 516.853 165.665C518.232 165.665 518.783 166.716 518.783 168.257V174.389H522.593V167.817C522.593 164.296 520.713 162.657 518.207 162.657C516.151 162.657 515.249 163.806 514.747 164.589H514.773V162.926H510.963C511.013 164.002 510.963 174.389 510.963 174.389H510.963Z" fill="white"/>
<rect x="582" y="158" width="28" height="16" rx="8" fill="#4781D1"/>
<path fill-rule="evenodd" clip-rule="evenodd" d="M602 172C605.314 172 608 169.314 608 166C608 162.686 605.314 160 602 160C598.686 160 596 162.686 596 166C596 169.314 598.686 172 602 172Z" fill="white"/>
</g>
<g filter="url(#filter3_d_490_140260)">
<rect x="410" y="218" width="220" height="64" rx="6" fill="white"/>
<rect x="410.5" y="218.5" width="219" height="63" rx="5.5" stroke="#D0D5DA"/>
<path d="M527.016 255.938C526.188 255.952 525.366 255.799 524.599 255.487C523.833 255.176 523.136 254.713 522.553 254.126C521.969 253.539 521.511 252.84 521.204 252.072C520.897 251.303 520.749 250.48 520.768 249.653C520.749 248.825 520.897 248.003 521.204 247.234C521.511 246.465 521.969 245.766 522.553 245.179C523.136 244.592 523.833 244.129 524.599 243.818C525.366 243.507 526.188 243.354 527.016 243.368C527.853 243.342 528.686 243.505 529.452 243.846C530.217 244.187 530.895 244.696 531.436 245.336L530.363 246.38C529.966 245.88 529.456 245.482 528.876 245.216C528.296 244.95 527.661 244.826 527.023 244.852C526.409 244.838 525.799 244.948 525.229 245.176C524.659 245.404 524.141 245.745 523.706 246.179C523.253 246.633 522.9 247.177 522.668 247.775C522.436 248.372 522.329 249.012 522.356 249.653C522.329 250.294 522.436 250.933 522.668 251.531C522.9 252.129 523.253 252.672 523.706 253.127C524.141 253.56 524.659 253.901 525.229 254.129C525.799 254.357 526.409 254.468 527.023 254.454C527.736 254.462 528.441 254.309 529.086 254.007C529.732 253.705 530.3 253.262 530.75 252.709L531.824 253.783C531.262 254.455 530.556 254.993 529.759 255.356C528.9 255.753 527.962 255.952 527.016 255.938Z" fill="#5F6368"/>
<path d="M534.709 255.669H533.166V243.629H534.709V255.669Z" fill="#5F6368"/>
<path d="M537.229 248.423C538.038 247.62 539.131 247.169 540.271 247.169C541.411 247.169 542.504 247.62 543.313 248.423C543.708 248.84 544.017 249.332 544.222 249.869C544.426 250.407 544.523 250.979 544.505 251.554C544.523 252.129 544.426 252.701 544.222 253.239C544.017 253.776 543.708 254.268 543.313 254.685C542.504 255.488 541.411 255.939 540.271 255.939C539.131 255.939 538.038 255.488 537.229 254.685C536.834 254.268 536.525 253.776 536.32 253.239C536.115 252.701 536.019 252.129 536.036 251.554C536.019 250.979 536.115 250.407 536.32 249.869C536.525 249.332 536.834 248.84 537.229 248.423ZM538.377 253.716C538.62 253.973 538.913 254.178 539.238 254.318C539.563 254.457 539.913 254.53 540.267 254.53C540.621 254.53 540.971 254.457 541.296 254.318C541.621 254.178 541.914 253.973 542.157 253.716C542.427 253.427 542.636 253.086 542.773 252.715C542.91 252.344 542.972 251.949 542.955 251.554C542.972 251.159 542.91 250.764 542.773 250.393C542.636 250.022 542.427 249.681 542.157 249.392C541.914 249.135 541.621 248.93 541.296 248.79C540.971 248.65 540.621 248.578 540.267 248.578C539.913 248.578 539.563 248.65 539.238 248.79C538.913 248.93 538.62 249.135 538.377 249.392C538.107 249.681 537.898 250.022 537.761 250.393C537.624 250.764 537.562 251.159 537.58 251.554C537.564 251.948 537.628 252.342 537.766 252.712C537.904 253.082 538.115 253.421 538.385 253.709L538.377 253.716Z" fill="#5F6368"/>
<path d="M553.057 255.669H551.566V254.528H551.521C551.255 254.962 550.88 255.317 550.432 255.557C549.968 255.826 549.441 255.968 548.904 255.967C548.468 255.997 548.031 255.928 547.626 255.765C547.221 255.603 546.857 255.351 546.563 255.028C545.998 254.314 545.715 253.417 545.765 252.508V247.438H547.309V252.225C547.309 253.76 547.987 254.528 549.344 254.528C549.645 254.538 549.945 254.475 550.217 254.345C550.489 254.216 550.727 254.023 550.91 253.783C551.31 253.276 551.523 252.647 551.513 252.001V247.438H553.057V255.669Z" fill="#5F6368"/>
<path d="M558.298 255.938C557.774 255.939 557.257 255.828 556.78 255.61C556.304 255.393 555.881 255.074 555.539 254.678C554.766 253.824 554.352 252.705 554.384 251.554C554.352 250.403 554.766 249.284 555.539 248.43C555.881 248.033 556.304 247.715 556.78 247.498C557.257 247.28 557.774 247.168 558.298 247.17C558.884 247.161 559.464 247.299 559.983 247.573C560.439 247.802 560.825 248.15 561.101 248.579H561.168L561.101 247.439V243.629H562.644V255.669H561.153V254.529H561.086C560.81 254.958 560.424 255.306 559.968 255.535C559.453 255.806 558.879 255.944 558.298 255.938ZM558.551 254.529C558.9 254.534 559.246 254.464 559.566 254.326C559.886 254.187 560.173 253.982 560.408 253.723C560.932 253.126 561.2 252.347 561.153 251.554C561.2 250.761 560.932 249.981 560.408 249.384C560.171 249.125 559.884 248.917 559.563 248.776C559.242 248.634 558.895 248.56 558.544 248.56C558.193 248.56 557.846 248.634 557.525 248.776C557.204 248.917 556.916 249.125 556.68 249.384C556.42 249.678 556.22 250.02 556.092 250.391C555.964 250.762 555.91 251.155 555.934 251.546C555.91 251.938 555.964 252.331 556.092 252.702C556.22 253.073 556.42 253.415 556.68 253.708C556.915 253.971 557.204 254.18 557.526 254.322C557.849 254.463 558.199 254.534 558.551 254.529Z" fill="#5F6368"/>
<path d="M469.356 255.938C468.442 255.95 467.535 255.777 466.69 255.429C465.844 255.082 465.078 254.568 464.436 253.918C463.773 253.295 463.248 252.541 462.892 251.704C462.537 250.867 462.359 249.966 462.371 249.057C462.36 248.148 462.538 247.246 462.893 246.41C463.249 245.573 463.774 244.819 464.436 244.196C465.075 243.539 465.84 243.018 466.686 242.664C467.531 242.31 468.44 242.131 469.356 242.138C470.23 242.127 471.096 242.289 471.907 242.615C472.717 242.941 473.454 243.426 474.075 244.039L472.748 245.389C471.84 244.51 470.62 244.028 469.356 244.047C468.701 244.039 468.051 244.167 467.447 244.424C466.844 244.681 466.301 245.06 465.852 245.538C465.386 246.001 465.018 246.553 464.771 247.161C464.523 247.77 464.402 248.422 464.413 249.079C464.408 249.728 464.532 250.372 464.779 250.973C465.027 251.573 465.391 252.118 465.852 252.576C466.775 253.496 468.021 254.019 469.325 254.034C470.628 254.05 471.886 253.556 472.83 252.658C473.415 252.017 473.774 251.203 473.852 250.339H469.379V248.43H475.708C475.77 248.815 475.795 249.204 475.783 249.594C475.822 250.399 475.698 251.204 475.417 251.96C475.136 252.716 474.705 253.407 474.15 253.992C473.532 254.635 472.786 255.141 471.96 255.476C471.134 255.811 470.247 255.969 469.356 255.938ZM484.073 254.671C483.223 255.485 482.092 255.939 480.916 255.939C479.739 255.939 478.608 255.485 477.758 254.671C477.336 254.261 477.003 253.767 476.781 253.222C476.558 252.676 476.452 252.091 476.469 251.502C476.453 250.913 476.559 250.328 476.781 249.783C477.003 249.237 477.336 248.744 477.758 248.334C478.609 247.521 479.739 247.068 480.916 247.068C482.092 247.068 483.223 247.521 484.073 248.334C484.495 248.744 484.828 249.237 485.05 249.783C485.272 250.328 485.379 250.913 485.363 251.502C485.378 252.091 485.271 252.677 485.047 253.223C484.824 253.768 484.49 254.261 484.065 254.671H484.073ZM479.152 253.426C479.378 253.667 479.651 253.859 479.955 253.991C480.258 254.122 480.585 254.19 480.916 254.19C481.246 254.19 481.573 254.122 481.876 253.991C482.18 253.859 482.453 253.667 482.679 253.426C482.925 253.171 483.118 252.87 483.246 252.539C483.374 252.209 483.435 251.856 483.424 251.502C483.435 251.147 483.375 250.793 483.247 250.461C483.119 250.13 482.926 249.827 482.679 249.571C482.45 249.332 482.175 249.142 481.871 249.012C481.566 248.883 481.239 248.816 480.908 248.816C480.577 248.816 480.25 248.883 479.946 249.012C479.641 249.142 479.366 249.332 479.138 249.571C478.891 249.827 478.697 250.13 478.569 250.461C478.441 250.793 478.381 251.147 478.392 251.502C478.383 251.857 478.444 252.21 478.574 252.54C478.703 252.87 478.897 253.172 479.145 253.426H479.152ZM493.78 254.671C492.93 255.485 491.799 255.939 490.622 255.939C489.446 255.939 488.315 255.485 487.465 254.671C487.042 254.261 486.709 253.767 486.487 253.222C486.265 252.676 486.159 252.091 486.175 251.502C486.159 250.913 486.266 250.328 486.488 249.783C486.71 249.237 487.043 248.744 487.465 248.334C488.315 247.519 489.446 247.065 490.622 247.065C491.799 247.065 492.93 247.519 493.78 248.334C494.202 248.744 494.535 249.237 494.757 249.783C494.979 250.328 495.085 250.913 495.069 251.502C495.086 252.091 494.979 252.676 494.757 253.222C494.535 253.767 494.202 254.261 493.78 254.671ZM488.859 253.426C489.085 253.667 489.358 253.859 489.661 253.991C489.965 254.122 490.292 254.19 490.622 254.19C490.953 254.19 491.28 254.122 491.583 253.991C491.887 253.859 492.16 253.667 492.386 253.426C492.632 253.171 492.825 252.87 492.953 252.539C493.081 252.209 493.141 251.856 493.131 251.502C493.142 251.147 493.082 250.793 492.954 250.461C492.826 250.13 492.632 249.827 492.386 249.571C492.157 249.332 491.882 249.142 491.577 249.012C491.273 248.883 490.946 248.816 490.615 248.816C490.284 248.816 489.957 248.883 489.652 249.012C489.348 249.142 489.073 249.332 488.844 249.571C488.597 249.827 488.404 250.13 488.276 250.461C488.148 250.793 488.088 251.147 488.099 251.502C488.089 251.857 488.151 252.21 488.28 252.54C488.41 252.87 488.604 253.172 488.852 253.426H488.859ZM500.161 259.919C499.268 259.947 498.392 259.669 497.679 259.129C497.046 258.653 496.548 258.021 496.232 257.295L497.932 256.587C498.117 257.021 498.407 257.402 498.775 257.697C499.169 258.015 499.663 258.182 500.169 258.167C500.49 258.187 500.811 258.137 501.111 258.021C501.41 257.905 501.682 257.726 501.906 257.496C502.355 256.954 502.577 256.26 502.525 255.558V254.917H502.458C502.174 255.254 501.815 255.521 501.41 255.695C501.005 255.87 500.564 255.948 500.124 255.923C499.564 255.925 499.01 255.81 498.497 255.587C497.984 255.364 497.522 255.036 497.142 254.626C496.729 254.218 496.403 253.732 496.184 253.195C495.965 252.658 495.857 252.082 495.867 251.502C495.857 250.919 495.964 250.34 496.184 249.799C496.403 249.258 496.729 248.767 497.142 248.356C497.521 247.944 497.982 247.615 498.496 247.39C499.009 247.165 499.564 247.05 500.124 247.051C500.598 247.05 501.067 247.155 501.496 247.357C501.867 247.519 502.198 247.761 502.465 248.065H502.532V247.357H504.381V255.297C504.43 255.925 504.35 256.556 504.146 257.152C503.942 257.748 503.619 258.297 503.196 258.763C502.793 259.149 502.317 259.45 501.795 259.648C501.274 259.847 500.719 259.939 500.161 259.919ZM500.296 254.193C500.614 254.2 500.93 254.137 501.221 254.008C501.512 253.88 501.772 253.688 501.98 253.448C502.44 252.921 502.683 252.239 502.659 251.539C502.687 250.828 502.444 250.133 501.98 249.594C501.772 249.353 501.513 249.161 501.221 249.032C500.93 248.903 500.614 248.84 500.296 248.848C499.969 248.841 499.644 248.904 499.343 249.033C499.042 249.161 498.772 249.353 498.551 249.594C498.058 250.114 497.79 250.808 497.806 251.524C497.798 251.876 497.86 252.226 497.988 252.553C498.116 252.881 498.307 253.18 498.551 253.433C498.771 253.676 499.041 253.87 499.341 254.001C499.642 254.132 499.967 254.198 500.296 254.193ZM507.669 242.638V255.67H505.723V242.638H507.669ZM513.007 255.938C512.424 255.953 511.845 255.847 511.304 255.628C510.764 255.409 510.275 255.08 509.868 254.663C509.455 254.249 509.13 253.755 508.914 253.212C508.697 252.669 508.593 252.087 508.608 251.502C508.586 250.916 508.682 250.331 508.891 249.783C509.1 249.235 509.417 248.734 509.823 248.311C510.206 247.907 510.669 247.588 511.183 247.374C511.697 247.159 512.249 247.055 512.806 247.066C513.317 247.061 513.824 247.16 514.297 247.357C514.722 247.529 515.109 247.782 515.437 248.102C515.719 248.374 515.969 248.677 516.183 249.005C516.356 249.281 516.503 249.573 516.623 249.877L516.824 250.384L510.86 252.837C511.04 253.251 511.342 253.601 511.725 253.841C512.108 254.08 512.555 254.198 513.007 254.178C513.446 254.18 513.878 254.067 514.261 253.851C514.644 253.636 514.964 253.325 515.191 252.948L516.682 253.955C516.302 254.499 515.815 254.961 515.251 255.312C514.58 255.735 513.8 255.953 513.007 255.938ZM510.517 251.368L514.483 249.72C514.361 249.43 514.142 249.19 513.864 249.042C513.553 248.866 513.2 248.776 512.843 248.781C512.236 248.797 511.66 249.051 511.24 249.489C510.988 249.73 510.793 250.023 510.668 250.348C510.543 250.672 510.492 251.021 510.517 251.368Z" fill="#5F6368"/>
<path d="M446.29 244.68H447.035L449.16 242.555L449.264 241.653C448.047 240.579 446.576 239.832 444.99 239.485C443.405 239.137 441.756 239.199 440.201 239.665C438.646 240.132 437.236 240.987 436.103 242.15C434.97 243.313 434.153 244.746 433.728 246.313C433.964 246.216 434.226 246.2 434.473 246.268L438.723 245.567C438.723 245.567 438.939 245.209 439.051 245.232C439.961 244.232 441.22 243.617 442.568 243.515C443.917 243.412 445.253 243.829 446.305 244.68H446.29Z" fill="#EA4335"/>
<path d="M452.187 246.312C451.698 244.514 450.696 242.897 449.302 241.66L446.319 244.642C446.941 245.15 447.439 245.792 447.776 246.521C448.113 247.249 448.28 248.045 448.265 248.847V249.376C448.614 249.376 448.959 249.445 449.281 249.578C449.603 249.712 449.896 249.907 450.142 250.154C450.388 250.4 450.584 250.693 450.717 251.015C450.851 251.337 450.919 251.682 450.919 252.03C450.919 252.379 450.851 252.724 450.717 253.046C450.584 253.368 450.388 253.661 450.142 253.907C449.896 254.154 449.603 254.349 449.281 254.482C448.959 254.616 448.614 254.685 448.265 254.685H442.957L442.428 255.221V258.405L442.957 258.934H448.265C449.748 258.946 451.194 258.48 452.391 257.605C453.588 256.731 454.472 255.495 454.912 254.079C455.352 252.663 455.324 251.144 454.833 249.745C454.343 248.346 453.415 247.143 452.187 246.312Z" fill="#4285F4"/>
<path d="M437.642 258.904H442.95V254.655H437.642C437.264 254.655 436.89 254.573 436.546 254.416L435.801 254.647L433.661 256.772L433.475 257.517C434.674 258.423 436.139 258.911 437.642 258.904Z" fill="#34A853"/>
<path d="M437.642 245.12C436.203 245.129 434.804 245.586 433.638 246.429C432.473 247.272 431.599 248.457 431.14 249.82C430.681 251.183 430.659 252.656 431.078 254.032C431.496 255.408 432.334 256.619 433.474 257.496L436.553 254.417C436.162 254.24 435.819 253.971 435.555 253.633C435.29 253.294 435.112 252.897 435.035 252.475C434.958 252.052 434.984 251.618 435.112 251.208C435.24 250.798 435.466 250.425 435.769 250.121C436.073 249.818 436.446 249.592 436.855 249.465C437.265 249.337 437.7 249.31 438.122 249.387C438.545 249.464 438.942 249.643 439.28 249.907C439.619 250.172 439.888 250.514 440.065 250.905L443.144 247.826C442.497 246.982 441.664 246.298 440.71 245.828C439.755 245.359 438.705 245.116 437.642 245.12Z" fill="#FBBC05"/>
<rect x="582" y="242" width="28" height="16" rx="8" fill="#D0D5DA"/>
<path fill-rule="evenodd" clip-rule="evenodd" d="M590 256C593.314 256 596 253.314 596 250C596 246.686 593.314 244 590 244C586.686 244 584 246.686 584 250C584 253.314 586.686 256 590 256Z" fill="white"/>
</g>
<g filter="url(#filter4_d_490_140260)">
<rect x="410" y="386" width="220" height="64" rx="6" fill="white"/>
<rect x="410.5" y="386.5" width="219" height="63" rx="5.5" stroke="#D0D5DA"/>
<path d="M474.107 425.552C472.176 425.552 470.629 424.916 469.467 423.644C468.306 422.371 467.725 420.715 467.725 418.676C467.725 416.486 468.317 414.738 469.501 413.434C470.685 412.13 472.296 411.478 474.335 411.478C476.215 411.478 477.73 412.111 478.879 413.377C480.028 414.643 480.603 416.299 480.603 418.344C480.603 420.566 480.014 422.323 478.836 423.615C477.659 424.907 476.082 425.552 474.107 425.552ZM474.221 412.921C472.79 412.921 471.628 413.437 470.735 414.469C469.843 415.501 469.396 416.856 469.396 418.534C469.396 420.212 469.831 421.562 470.702 422.585C471.573 423.607 472.707 424.118 474.107 424.118C475.601 424.118 476.779 423.631 477.64 422.656C478.501 421.681 478.931 420.316 478.931 418.563C478.931 416.764 478.513 415.375 477.678 414.393C476.842 413.412 475.69 412.921 474.221 412.921Z" fill="#094AB1"/>
<path d="M491.145 425.324H489.587V419.778C489.587 417.714 488.834 416.682 487.327 416.682C486.548 416.682 485.904 416.975 485.394 417.56C484.885 418.146 484.63 418.885 484.63 419.778V425.324H483.072V415.599H484.63V417.214H484.668C485.402 415.985 486.466 415.371 487.859 415.371C488.922 415.371 489.736 415.715 490.3 416.402C490.863 417.088 491.145 418.081 491.145 419.379V425.324Z" fill="#094AB1"/>
<path d="M501.905 420.851H495.038C495.064 421.934 495.355 422.769 495.912 423.358C496.469 423.947 497.235 424.241 498.21 424.241C499.306 424.241 500.313 423.881 501.231 423.159V424.621C500.376 425.242 499.246 425.552 497.84 425.552C496.466 425.552 495.387 425.11 494.602 424.227C493.816 423.344 493.424 422.101 493.424 420.5C493.424 418.986 493.853 417.753 494.711 416.8C495.569 415.848 496.634 415.371 497.907 415.371C499.179 415.371 500.164 415.783 500.86 416.606C501.557 417.429 501.905 418.572 501.905 420.034V420.851ZM500.309 419.531C500.303 418.632 500.086 417.932 499.659 417.432C499.231 416.932 498.638 416.682 497.878 416.682C497.144 416.682 496.52 416.944 496.007 417.47C495.494 417.995 495.178 418.682 495.057 419.531H500.309Z" fill="#094AB1"/>
<path d="M504.479 425.325V411.706H508.239C513.039 411.706 515.438 413.919 515.438 418.345C515.438 420.447 514.772 422.136 513.439 423.411C512.106 424.687 510.322 425.325 508.087 425.325H504.479ZM506.074 413.15V423.881H508.106C509.892 423.881 511.282 423.403 512.276 422.447C513.27 421.491 513.767 420.136 513.767 418.383C513.767 414.894 511.912 413.15 508.201 413.15H506.074Z" fill="#094AB1"/>
<path d="M522.98 417.176C522.708 416.967 522.315 416.863 521.802 416.863C521.137 416.863 520.582 417.176 520.135 417.803C519.689 418.43 519.466 419.285 519.466 420.367V425.325H517.908V415.6H519.466V417.604H519.504C519.725 416.92 520.064 416.386 520.52 416.003C520.976 415.62 521.486 415.429 522.049 415.429C522.454 415.429 522.765 415.473 522.98 415.562V417.176Z" fill="#094AB1"/>
<path d="M525.468 413.13C525.189 413.13 524.952 413.035 524.755 412.845C524.559 412.655 524.461 412.415 524.461 412.123C524.461 411.832 524.559 411.59 524.755 411.397C524.952 411.204 525.189 411.107 525.468 411.107C525.753 411.107 525.995 411.204 526.194 411.397C526.394 411.59 526.493 411.832 526.493 412.123C526.493 412.402 526.394 412.639 526.194 412.836C525.995 413.032 525.753 413.13 525.468 413.13ZM526.227 425.324H524.67V415.599H526.227V425.324Z" fill="#094AB1"/>
<path d="M537.026 415.6L533.151 425.325H531.622L527.938 415.6H529.647L532.116 422.666C532.299 423.185 532.413 423.637 532.458 424.024H532.496C532.559 423.536 532.66 423.096 532.8 422.704L535.383 415.6H537.026Z" fill="#094AB1"/>
<path d="M546.504 420.851H539.638C539.663 421.934 539.954 422.769 540.511 423.358C541.069 423.947 541.835 424.241 542.81 424.241C543.905 424.241 544.912 423.881 545.83 423.159V424.621C544.975 425.242 543.845 425.552 542.439 425.552C541.065 425.552 539.986 425.11 539.201 424.227C538.416 423.344 538.023 422.101 538.023 420.5C538.023 418.986 538.452 417.753 539.31 416.8C540.168 415.848 541.233 415.371 542.506 415.371C543.778 415.371 544.763 415.783 545.459 416.606C546.156 417.429 546.504 418.572 546.504 420.034V420.851ZM544.909 419.531C544.902 418.632 544.685 417.932 544.258 417.432C543.831 416.932 543.237 416.682 542.477 416.682C541.743 416.682 541.119 416.944 540.606 417.47C540.094 417.995 539.777 418.682 539.657 419.531H544.909Z" fill="#094AB1"/>
<path d="M440.806 427.478C438.809 426.979 437.697 425.392 437.693 423.037C437.692 422.284 437.747 421.923 437.935 421.439C438.395 420.252 439.615 419.356 441.22 419.026C442.019 418.862 442.265 418.686 442.265 418.278C442.265 418.151 442.36 417.77 442.476 417.432C443.004 415.898 443.981 414.619 445.025 414.096C446.118 413.548 446.67 413.425 447.992 413.432C449.869 413.442 450.806 413.849 452.116 415.225L452.837 415.982L453.482 415.759C456.606 414.677 459.721 416.518 459.972 419.593L460.04 420.435L460.656 420.655C462.412 421.285 463.238 422.606 463.089 424.549C462.991 425.82 462.396 426.835 461.455 427.338L461.013 427.575L451.18 427.594C443.623 427.609 441.221 427.582 440.806 427.478Z" fill="#094AB1"/>
<path d="M433.435 426.12C432.269 425.843 431.034 424.813 430.454 423.635C430.126 422.968 430.108 422.869 430.108 421.688C430.108 420.564 430.136 420.383 430.398 419.825C430.949 418.649 432.006 417.799 433.331 417.465C433.611 417.395 433.874 417.282 433.916 417.215C433.957 417.148 434.003 416.783 434.018 416.404C434.11 414.051 435.655 411.977 437.811 411.311C438.976 410.951 440.44 411.04 441.707 411.546C442.109 411.707 442.063 411.742 442.913 410.627C443.416 409.969 444.431 409.149 445.262 408.732C446.159 408.281 447.092 408.073 448.208 408.076C451.326 408.084 454.014 410.034 455.007 413.011C455.325 413.962 455.309 414.228 454.935 414.236C454.771 414.24 454.303 414.33 453.894 414.436L453.15 414.63L452.472 413.952C450.559 412.039 447.437 411.625 444.784 412.933C443.723 413.456 442.872 414.206 442.228 415.184C441.769 415.881 441.184 417.181 441.184 417.504C441.184 417.733 440.999 417.847 440.207 418.107C437.755 418.911 436.324 420.768 436.325 423.145C436.325 424.01 436.548 425.068 436.857 425.674C436.973 425.903 437.038 426.12 437.001 426.157C436.907 426.252 433.856 426.22 433.435 426.12Z" fill="#094AB1"/>
<rect x="582" y="410" width="28" height="16" rx="8" fill="#D0D5DA"/>
<path fill-rule="evenodd" clip-rule="evenodd" d="M590 424C593.314 424 596 421.314 596 418C596 414.686 593.314 412 590 412C586.686 412 584 414.686 584 418C584 421.314 586.686 424 590 424Z" fill="white"/>
</g>
<g filter="url(#filter5_d_490_140260)">
<rect x="410" y="302" width="220" height="64" rx="6" fill="white"/>
<rect x="410.5" y="302.5" width="219" height="63" rx="5.5" stroke="#D0D5DA"/>
<path fill-rule="evenodd" clip-rule="evenodd" d="M482.776 329.982C481.333 329.834 480.085 330.254 479.03 331.472V324L475.209 324.444V341.74H479.03V340.713C479.545 341.066 480.046 341.491 480.632 341.693C482.859 342.459 485.794 341.834 486.821 338.976C487.48 337.141 487.463 335.261 486.967 333.406C486.416 331.346 484.988 330.208 482.776 329.982ZM483.347 337.473C483.179 338.613 482.233 339.211 481.111 339.127C480.83 339.106 480.577 339.05 480.349 338.965C479.444 338.466 479.171 337.632 479.092 337.107C479.091 337.108 479.09 337.108 479.09 337.108C479.028 336.297 478.961 334.601 479.373 333.799C479.723 333.185 480.334 332.85 481.143 332.824C482.294 332.788 483.164 333.336 483.335 334.457C483.487 335.445 483.494 336.486 483.347 337.473Z" fill="#3B5998"/>
<path fill-rule="evenodd" clip-rule="evenodd" d="M496.316 330.196C494.988 329.855 493.648 329.86 492.323 330.198C490.339 330.705 489.01 331.911 488.581 333.828C488.347 334.874 488.301 335.986 488.363 337.058C488.504 339.512 490.084 341.26 492.537 341.802C492.571 341.81 492.607 341.816 492.642 341.824H492.641C492.641 341.824 492.648 341.825 492.659 341.827C492.754 341.845 492.848 341.862 492.943 341.876C492.974 341.879 493.007 341.881 493.038 341.884C493.039 341.884 493.04 341.884 493.041 341.884C493.16 341.905 493.302 341.921 493.452 341.932C493.932 341.981 494.544 342.016 495.054 341.958C495.057 341.958 495.059 341.957 495.061 341.957C495.087 341.957 495.114 341.957 495.14 341.955C497.672 341.829 499.594 340.295 500.154 337.943C500.462 336.653 500.462 335.357 500.165 334.066C499.699 332.04 498.419 330.737 496.316 330.196ZM496.478 337.287C496.465 337.364 496.452 337.439 496.434 337.514C496.18 338.596 495.362 339.182 494.27 339.133C493.096 339.082 492.291 338.423 492.178 337.297C492.097 336.474 492.09 335.634 492.161 334.811C492.273 333.512 493.119 332.801 494.388 332.826C495.431 332.845 496.174 333.413 496.439 334.376C496.68 335.344 496.501 337.067 496.478 337.287Z" fill="#3B5998"/>
<path fill-rule="evenodd" clip-rule="evenodd" d="M436.235 330.135V328.393C436.434 326.747 439.266 327.06 439.266 327.06L439.267 326.948L439.266 326.935V324.231H439.265V324.231H439.263C439.166 324.208 433.63 322.947 432.531 326.992C432.531 326.993 432.531 326.994 432.529 326.995C432.527 327.004 432.525 327.013 432.522 327.022C432.349 327.527 432.361 329.844 432.364 330.135H430V333.232H432.51V341.656H436.165V333.232H438.961L439.276 330.135H436.235Z" fill="#3B5998"/>
<path fill-rule="evenodd" clip-rule="evenodd" d="M447.679 331.617C447.634 331.569 447.59 331.523 447.552 331.485C447.546 331.479 447.541 331.473 447.535 331.467C447.482 331.414 447.444 331.379 447.444 331.379C446.584 330.539 446.259 330.33 445.585 330.139C442.992 329.405 440.468 330.709 439.669 333.213C439.177 334.753 439.17 336.337 439.458 337.895C440.08 341.27 442.695 342.401 445.482 341.844C446.337 341.672 446.972 341.161 447.561 340.449C447.561 340.449 447.615 340.387 447.68 340.266V341.751H451.245V330.148H447.68L447.679 331.617ZM447.365 337.456C447.246 338.529 446.342 339.173 445.273 339.132C444.178 339.092 443.453 338.529 443.217 337.52C442.933 336.084 443.265 334.379 443.293 334.24C443.579 333.277 444.309 332.8 445.38 332.824C446.432 332.847 447.242 333.445 447.361 334.491C447.472 335.469 447.475 336.477 447.365 337.456Z" fill="#3B5998"/>
<path fill-rule="evenodd" clip-rule="evenodd" d="M462.135 340.92C461.969 340.338 461.781 339.765 461.599 339.211L461.427 338.596C461.427 338.596 456.958 340.656 456.261 336.741C456.196 336.095 456.216 335.429 456.309 334.791C456.482 333.588 457.247 332.944 458.463 332.833C458.874 332.796 459.302 332.815 459.708 332.881C460.262 332.97 460.803 333.131 461.409 333.274C461.62 332.655 461.835 332.043 462.036 331.426C462.067 331.33 462.094 331.246 462.114 331.172L462.215 330.801C462.19 330.752 462.129 330.701 462.048 330.651C462.048 330.651 462.048 330.651 462.048 330.652C461.945 330.569 461.77 330.501 461.496 330.404C461.387 330.366 461.277 330.332 461.168 330.299C461.069 330.269 461.005 330.251 461.005 330.251C459.831 329.929 458.626 329.904 457.402 330.028C454.821 330.29 453.069 331.752 452.584 334.166C452.329 335.436 452.34 336.722 452.633 337.996C453.072 339.904 454.276 341.137 456.234 341.688C457.512 342.047 458.821 342.065 460.124 341.87C460.671 341.788 461.457 341.515 462.021 341.321L462.236 341.249L462.134 340.919L462.135 340.92Z" fill="#3B5998"/>
<path fill-rule="evenodd" clip-rule="evenodd" d="M473.9 336.38C473.882 335.577 473.894 334.77 473.775 333.981C473.449 331.816 472.077 330.447 469.857 330.089C469.01 329.953 468.114 329.971 467.254 330.05C464.898 330.265 463.11 331.674 462.744 333.794C462.521 335.081 462.492 336.446 462.672 337.737C462.944 339.681 463.929 340.918 465.634 341.512C465.635 341.512 465.635 341.512 465.635 341.512C465.642 341.513 465.65 341.514 465.657 341.515C465.657 341.516 465.657 341.516 465.657 341.516C466.435 341.74 470.243 342.696 473.6 341.076L473.466 340.602C473.464 340.603 473.462 340.603 473.461 340.603C473.305 339.97 473.118 339.343 472.942 338.716L472.923 338.654C472.923 338.654 472.854 338.678 472.73 338.716C472.727 338.717 472.724 338.717 472.721 338.717C472.575 338.754 472.43 338.797 472.286 338.843C472.259 338.852 472.233 338.86 472.206 338.867C471.698 339.005 470.971 339.174 470.204 339.269C469.56 339.331 468.91 339.334 468.253 339.28C467.187 339.11 466.371 338.562 466.41 337.266H467.019C469.109 337.266 471.199 337.266 473.29 337.265C473.339 337.265 473.39 337.266 473.439 337.265L473.439 337.266C473.439 337.266 473.888 337.26 473.907 337.256C473.907 337.256 473.906 337.142 473.907 337.128L473.9 336.38ZM470.463 334.798H466.335C466.356 334.01 466.459 333.277 467.189 332.831C467.964 332.358 468.82 332.34 469.617 332.764C470.423 333.191 470.486 333.963 470.463 334.798Z" fill="#3B5998"/>
<path fill-rule="evenodd" clip-rule="evenodd" d="M526 330.269H521.947L518.427 335.553V324.01L514.606 324.455V341.751H518.427V336.458L521.947 341.759H526L522.18 336.004L526 330.269Z" fill="#3B5998"/>
<path fill-rule="evenodd" clip-rule="evenodd" d="M509.347 330.194C508.02 329.852 506.678 329.857 505.353 330.195C503.37 330.703 502.041 331.908 501.613 333.824C501.379 334.871 501.332 335.982 501.394 337.055C501.534 339.509 503.115 341.257 505.567 341.799C505.602 341.807 505.638 341.813 505.673 341.821H505.672C505.672 341.821 505.679 341.822 505.69 341.824C505.784 341.842 505.879 341.859 505.974 341.873C506.006 341.876 506.038 341.879 506.069 341.88C506.07 341.881 506.071 341.881 506.072 341.881C506.192 341.902 506.333 341.918 506.483 341.93C506.964 341.979 507.576 342.014 508.085 341.956C508.087 341.955 508.089 341.955 508.093 341.954C508.119 341.954 508.145 341.954 508.17 341.952C510.703 341.826 512.625 340.292 513.186 337.941C513.493 336.651 513.493 335.354 513.197 334.063C512.729 332.037 511.45 330.734 509.347 330.194ZM509.509 337.284C509.496 337.361 509.483 337.436 509.465 337.511C509.21 338.594 508.392 339.179 507.301 339.131C506.127 339.078 505.322 338.42 505.209 337.294C505.127 336.472 505.12 335.632 505.191 334.809C505.304 333.509 506.15 332.799 507.42 332.823C508.461 332.842 509.205 333.41 509.47 334.373C509.71 335.341 509.533 337.064 509.509 337.284Z" fill="#3B5998"/>
<rect x="582" y="326" width="28" height="16" rx="8" fill="#4781D1"/>
<path fill-rule="evenodd" clip-rule="evenodd" d="M602 340C605.314 340 608 337.314 608 334C608 330.686 605.314 328 602 328C598.686 328 596 330.686 596 334C596 337.314 598.686 340 602 340Z" fill="white"/>
</g>
<ellipse cx="161.703" cy="479.974" rx="52.203" ry="4.99984" fill="#E2E2E2"/>
<path d="M190.833 301.909L195.792 313.722L196.334 315.173C201.633 329.356 203.389 344.618 201.45 359.634L195.792 403.447L183.168 472.686C183.168 472.686 175.919 475.814 167.575 472.686L173.681 404.208L145.671 467.617C145.671 467.617 133.741 471.783 131.534 460.924L153.147 390.038C154.24 386.455 154.399 382.653 153.611 378.991L146.505 345.986C145.29 340.343 144.888 334.545 145.852 328.854C147.175 321.046 149.824 309.079 154.813 297.856C163.157 279.088 190.833 301.909 190.833 301.909Z" fill="#808080" stroke="#333333" stroke-width="2" stroke-linecap="round" stroke-linejoin="round"/>
<path d="M173.551 404.728L176.129 399.116C177.805 395.47 178.539 391.462 178.265 387.458L175.627 348.911C175.547 347.741 175.88 346.581 176.568 345.632L181.356 339.036" stroke="#333333" stroke-width="2" stroke-linecap="round" stroke-linejoin="round"/>
<path d="M125.055 465.229C127.827 459.703 132.305 459.541 132.305 459.541C136.067 472.242 142.143 464.632 146.711 468.093C151.198 471.493 153.384 475.184 154.13 478.279C154.926 481.583 151.342 483.138 148.197 481.848C137.323 477.388 122.547 470.228 125.055 465.229Z" fill="white" stroke="#333333" stroke-width="2"/>
<path d="M165.075 477.585C164.634 471.419 168.401 468.993 168.401 468.993C178.126 477.993 179.46 468.349 185.156 468.993C190.75 469.626 194.515 471.684 196.739 473.964C199.112 476.398 196.825 479.565 193.462 480.061C181.836 481.777 165.474 483.163 165.075 477.585Z" fill="white" stroke="#333333" stroke-width="2"/>
<path d="M224.028 257.096L229.465 244.585C230.397 242.44 227.779 240.517 226.012 242.048C225.383 242.592 224.442 241.943 224.727 241.162L227.635 233.206C228.225 231.591 227.363 229.808 225.731 229.267C224.723 228.933 223.617 229.078 222.728 229.66L221.673 230.35C220.997 230.793 220.419 231.373 219.978 232.051L219.151 233.323C217.532 235.811 216.616 238.691 216.5 241.657L216.346 245.562L217.127 255.892C217.127 255.892 221.031 259.121 224.028 257.096Z" fill="white" stroke="#333333" stroke-width="2" stroke-linecap="round" stroke-linejoin="round"/>
<path d="M148.244 209.744C149.071 199.887 162.354 190.928 170.427 193.527C189.008 188.854 197.373 202.868 198.381 216.399C199.187 227.224 192.76 243.612 200.895 252.042C193.008 255.862 163.802 261.601 152.237 253.373C137.779 243.089 147.209 222.064 148.244 209.744Z" fill="#333333" stroke="#333333"/>
<path d="M182.421 244.23C182.421 244.23 178.276 243.753 178.073 236.383C177.87 229.013 164.602 234.836 164.602 234.836C164.602 234.836 164.805 242.206 160.304 244.837C155.802 247.469 159.436 261.53 159.436 261.53L183.709 269.567L182.421 244.23Z" fill="white" stroke="#333333" stroke-width="2" stroke-linecap="round" stroke-linejoin="round"/>
<path fill-rule="evenodd" clip-rule="evenodd" d="M186.864 220.619C186.052 231.819 179.107 240.442 171.351 239.879C165.196 239.433 160.38 233.336 159.059 225.24C158.808 225.324 158.549 225.36 158.287 225.341C156.563 225.216 155.335 222.787 155.543 219.915C155.751 217.043 157.317 214.816 159.04 214.941C159.116 214.947 159.19 214.957 159.263 214.971C161.133 205.587 167.391 198.82 174.29 199.321C182.046 199.883 187.675 209.419 186.864 220.619Z" fill="white"/>
<path d="M171.351 239.879L171.423 238.882L171.423 238.882L171.351 239.879ZM186.864 220.619L185.867 220.547L185.867 220.547L186.864 220.619ZM159.059 225.24L160.046 225.079C159.999 224.79 159.827 224.536 159.576 224.384C159.325 224.233 159.02 224.199 158.742 224.292L159.059 225.24ZM158.287 225.341L158.359 224.344L158.359 224.344L158.287 225.341ZM155.543 219.915L154.545 219.842L155.543 219.915ZM159.04 214.941L159.113 213.944L159.113 213.944L159.04 214.941ZM159.263 214.971L159.074 215.953C159.614 216.057 160.136 215.705 160.244 215.166L159.263 214.971ZM174.29 199.321L174.217 200.318L174.29 199.321ZM171.278 240.877C175.576 241.189 179.543 238.947 182.49 235.287C185.441 231.625 187.443 226.468 187.861 220.691L185.867 220.547C185.474 225.969 183.597 230.725 180.933 234.033C178.265 237.345 174.882 239.133 171.423 238.882L171.278 240.877ZM158.072 225.401C159.426 233.698 164.446 240.381 171.278 240.877L171.423 238.882C165.946 238.485 161.334 232.973 160.046 225.079L158.072 225.401ZM158.214 226.338C158.617 226.368 159.008 226.312 159.377 226.189L158.742 224.292C158.609 224.337 158.482 224.353 158.359 224.344L158.214 226.338ZM154.545 219.842C154.43 221.428 154.707 222.94 155.298 224.109C155.879 225.258 156.865 226.24 158.214 226.338L158.359 224.344C157.985 224.316 157.495 224.022 157.083 223.207C156.681 222.412 156.447 221.273 156.54 219.987L154.545 219.842ZM159.113 213.944C157.763 213.846 156.646 214.676 155.905 215.729C155.151 216.801 154.66 218.257 154.545 219.842L156.54 219.987C156.633 218.701 157.029 217.608 157.541 216.879C158.066 216.132 158.594 215.912 158.968 215.939L159.113 213.944ZM159.452 213.989C159.341 213.967 159.227 213.952 159.113 213.944L158.968 215.939C159.004 215.941 159.039 215.946 159.074 215.953L159.452 213.989ZM174.362 198.323C170.542 198.046 166.977 199.79 164.165 202.751C161.356 205.71 159.249 209.928 158.282 214.775L160.244 215.166C161.148 210.63 163.105 206.773 165.616 204.128C168.126 201.484 171.138 200.095 174.217 200.318L174.362 198.323ZM187.861 220.691C188.28 214.914 187.042 209.523 184.651 205.472C182.262 201.426 178.66 198.635 174.362 198.323L174.217 200.318C177.676 200.569 180.766 202.827 182.928 206.489C185.088 210.147 186.259 215.124 185.867 220.547L187.861 220.691Z" fill="#333333"/>
<path fill-rule="evenodd" clip-rule="evenodd" d="M182.421 244.23L192.773 247.116C194.962 247.727 197.015 248.748 198.823 250.126C200.341 251.283 201.665 252.675 202.744 254.25L209.999 264.838L214.447 253.801C214.447 253.801 223.89 258.453 228.392 255.821L222.118 278.511C219.52 287.342 213.981 288.641 212.163 288.641C211.467 288.568 210.891 288.488 210.359 288.38C208.421 287.985 206.787 286.758 205.291 285.464L196.087 277.5L192.442 305.402C183.651 314.687 168.417 312.478 156.601 307.593L153.087 306.14L148.958 271.889L143.16 280.734C142.199 282.201 141.927 284.015 142.417 285.699L145.667 296.875C145.667 296.875 140.586 296.299 138.145 303.44C137.876 304.225 136.826 304.473 136.298 303.832L131.194 297.632C126.812 292.309 125.657 285.03 128.177 278.612L133.972 263.853L138.911 253.821C140.138 251.328 142.253 249.382 144.839 248.365C145.39 248.149 145.957 247.977 146.535 247.85L160.304 244.837L174.029 261.021C174.515 261.594 175.436 261.446 175.718 260.75L182.421 244.23Z" fill="url(#paint1_linear_490_140260)"/>
<path d="M153.087 306.14L156.601 307.593C168.417 312.478 183.651 314.687 192.442 305.402V305.402L196.087 277.5L205.291 285.464C206.787 286.758 208.421 287.985 210.359 288.38C210.891 288.488 211.467 288.568 212.163 288.641C213.981 288.641 219.52 287.342 222.118 278.511L228.392 255.821C223.89 258.453 214.447 253.801 214.447 253.801L209.999 264.838L202.744 254.25C201.665 252.675 200.341 251.283 198.823 250.126V250.126C197.015 248.748 194.962 247.727 192.773 247.116L182.421 244.23L175.718 260.75C175.436 261.446 174.515 261.594 174.029 261.021L160.304 244.837L146.535 247.85C145.957 247.977 145.39 248.149 144.839 248.365V248.365C142.253 249.382 140.138 251.328 138.911 253.821L133.972 263.853L128.177 278.612C125.657 285.03 126.812 292.309 131.194 297.632L136.298 303.832C136.826 304.473 137.876 304.225 138.145 303.44C140.586 296.299 145.667 296.875 145.667 296.875M153.087 306.14L145.667 296.875M153.087 306.14L148.958 271.889M145.667 296.875L142.417 285.699C141.927 284.015 142.199 282.201 143.16 280.734L148.958 271.889M148.958 271.889L148.958 266.033" stroke="#333333" stroke-width="2" stroke-linecap="round" stroke-linejoin="round"/>
<path d="M175.172 261.627L175.172 311.417" stroke="#333333" stroke-width="2" stroke-linecap="round" stroke-linejoin="round"/>
<path d="M203.437 283.937L191.812 273.625" stroke="#333333" stroke-width="2" stroke-linecap="round" stroke-linejoin="round"/>
<path d="M210.404 263.782L208.472 268.218" stroke="#333333" stroke-width="2" stroke-linecap="round" stroke-linejoin="round"/>
<path d="M137.275 303.238L143.749 305.045C145.632 305.571 147.158 306.951 147.87 308.772L151.634 318.401C152.871 321.566 156.108 323.479 159.478 323.037C160.881 322.853 161.94 321.673 161.974 320.259L162.177 311.679L166.181 314.752C166.568 315.049 167.079 315.128 167.537 314.961C168.181 314.726 168.373 313.908 167.9 313.412L163.513 308.814L157.248 303.803C154.35 301.486 151.112 299.631 147.648 298.303L143.554 296.734C143.554 296.734 138.953 297.394 137.275 303.238Z" fill="white" stroke="#333333" stroke-width="2" stroke-linecap="round" stroke-linejoin="round"/>
<path d="M173.288 202.217C169.992 208.109 162.975 218.461 158.706 217.105C154.284 215.701 156.972 208.216 158.869 204.649L172.196 196.479L184.911 206.49L189.24 218.758C182.46 215.968 170.109 208.866 173.288 202.217Z" fill="#333333" stroke="#333333"/>
<path d="M165.945 219.329C165.069 219.398 164.022 219.175 163.295 218.887C164.877 219.002 165.884 216.839 167.807 216.993C168.705 217.028 170.051 217.626 170.69 219.129C170.391 219.298 169.921 219.176 169.921 219.176C169.512 221.544 166.392 221.524 165.945 219.329Z" fill="#333333"/>
<path d="M178.23 220.546C177.354 220.615 176.307 220.392 175.58 220.104C177.162 220.218 178.169 218.055 180.092 218.209C180.99 218.245 182.336 218.842 182.976 220.345C182.676 220.515 182.206 220.392 182.206 220.392C181.798 222.761 178.677 222.741 178.23 220.546Z" fill="#333333"/>
<path fill-rule="evenodd" clip-rule="evenodd" d="M171.359 231.016C170.419 230.829 169.566 230.471 168.987 229.894C168.993 229.928 168.998 229.969 169.004 230.015C169.071 230.527 169.226 231.724 170.928 232.394C170.968 233.639 171.784 234.627 172.74 234.576C173.664 234.526 174.452 233.644 174.657 232.538C175.596 232.137 176.123 231.385 176.08 230.679C175.599 230.869 175.002 231.014 174.352 231.097C174.031 230.484 173.508 230.047 172.876 230.014C172.269 230.047 171.722 230.438 171.359 231.016Z" fill="#333333"/>
<path d="M172.381 225.991C173.266 226.236 174.632 225.529 174.936 224.744C175.4 222.895 173.317 222.204 173.611 220.432C172.657 222.245 175.935 224.549 172.381 225.991Z" fill="#333333"/>
</g>
<defs>
<filter id="filter0_d_490_140260" x="0" y="30" width="640" height="480" filterUnits="userSpaceOnUse" color-interpolation-filters="sRGB">
<feFlood flood-opacity="0" result="BackgroundImageFix"/>
<feColorMatrix in="SourceAlpha" type="matrix" values="0 0 0 0 0 0 0 0 0 0 0 0 0 0 0 0 0 0 127 0" result="hardAlpha"/>
<feOffset dy="20"/>
<feGaussianBlur stdDeviation="25"/>
<feColorMatrix type="matrix" values="0 0 0 0 0.333333 0 0 0 0 0.333333 0 0 0 0 0.333333 0 0 0 0.15 0"/>
<feBlend mode="normal" in2="BackgroundImageFix" result="effect1_dropShadow_490_140260"/>
<feBlend mode="normal" in="SourceGraphic" in2="effect1_dropShadow_490_140260" result="shape"/>
</filter>
<filter id="filter1_d_490_140260" x="395" y="42" width="250" height="94" filterUnits="userSpaceOnUse" color-interpolation-filters="sRGB">
<feFlood flood-opacity="0" result="BackgroundImageFix"/>
<feColorMatrix in="SourceAlpha" type="matrix" values="0 0 0 0 0 0 0 0 0 0 0 0 0 0 0 0 0 0 127 0" result="hardAlpha"/>
<feOffset dy="7"/>
<feGaussianBlur stdDeviation="7.5"/>
<feColorMatrix type="matrix" values="0 0 0 0 0.333333 0 0 0 0 0.333333 0 0 0 0 0.333333 0 0 0 0.1 0"/>
<feBlend mode="normal" in2="BackgroundImageFix" result="effect1_dropShadow_490_140260"/>
<feBlend mode="normal" in="SourceGraphic" in2="effect1_dropShadow_490_140260" result="shape"/>
</filter>
<filter id="filter2_d_490_140260" x="395" y="126" width="250" height="94" filterUnits="userSpaceOnUse" color-interpolation-filters="sRGB">
<feFlood flood-opacity="0" result="BackgroundImageFix"/>
<feColorMatrix in="SourceAlpha" type="matrix" values="0 0 0 0 0 0 0 0 0 0 0 0 0 0 0 0 0 0 127 0" result="hardAlpha"/>
<feOffset dy="7"/>
<feGaussianBlur stdDeviation="7.5"/>
<feColorMatrix type="matrix" values="0 0 0 0 0.333333 0 0 0 0 0.333333 0 0 0 0 0.333333 0 0 0 0.1 0"/>
<feBlend mode="normal" in2="BackgroundImageFix" result="effect1_dropShadow_490_140260"/>
<feBlend mode="normal" in="SourceGraphic" in2="effect1_dropShadow_490_140260" result="shape"/>
</filter>
<filter id="filter3_d_490_140260" x="395" y="210" width="250" height="94" filterUnits="userSpaceOnUse" color-interpolation-filters="sRGB">
<feFlood flood-opacity="0" result="BackgroundImageFix"/>
<feColorMatrix in="SourceAlpha" type="matrix" values="0 0 0 0 0 0 0 0 0 0 0 0 0 0 0 0 0 0 127 0" result="hardAlpha"/>
<feOffset dy="7"/>
<feGaussianBlur stdDeviation="7.5"/>
<feColorMatrix type="matrix" values="0 0 0 0 0.333333 0 0 0 0 0.333333 0 0 0 0 0.333333 0 0 0 0.1 0"/>
<feBlend mode="normal" in2="BackgroundImageFix" result="effect1_dropShadow_490_140260"/>
<feBlend mode="normal" in="SourceGraphic" in2="effect1_dropShadow_490_140260" result="shape"/>
</filter>
<filter id="filter4_d_490_140260" x="395" y="378" width="250" height="94" filterUnits="userSpaceOnUse" color-interpolation-filters="sRGB">
<feFlood flood-opacity="0" result="BackgroundImageFix"/>
<feColorMatrix in="SourceAlpha" type="matrix" values="0 0 0 0 0 0 0 0 0 0 0 0 0 0 0 0 0 0 127 0" result="hardAlpha"/>
<feOffset dy="7"/>
<feGaussianBlur stdDeviation="7.5"/>
<feColorMatrix type="matrix" values="0 0 0 0 0.333333 0 0 0 0 0.333333 0 0 0 0 0.333333 0 0 0 0.1 0"/>
<feBlend mode="normal" in2="BackgroundImageFix" result="effect1_dropShadow_490_140260"/>
<feBlend mode="normal" in="SourceGraphic" in2="effect1_dropShadow_490_140260" result="shape"/>
</filter>
<filter id="filter5_d_490_140260" x="395" y="294" width="250" height="94" filterUnits="userSpaceOnUse" color-interpolation-filters="sRGB">
<feFlood flood-opacity="0" result="BackgroundImageFix"/>
<feColorMatrix in="SourceAlpha" type="matrix" values="0 0 0 0 0 0 0 0 0 0 0 0 0 0 0 0 0 0 127 0" result="hardAlpha"/>
<feOffset dy="7"/>
<feGaussianBlur stdDeviation="7.5"/>
<feColorMatrix type="matrix" values="0 0 0 0 0.333333 0 0 0 0 0.333333 0 0 0 0 0.333333 0 0 0 0.1 0"/>
<feBlend mode="normal" in2="BackgroundImageFix" result="effect1_dropShadow_490_140260"/>
<feBlend mode="normal" in="SourceGraphic" in2="effect1_dropShadow_490_140260" result="shape"/>
</filter>
<linearGradient id="paint0_linear_490_140260" x1="349" y1="211" x2="349" y2="347" gradientUnits="userSpaceOnUse">
<stop stop-color="#FF6F3D"/>
<stop offset="1" stop-color="#FF8E3D"/>
</linearGradient>
<linearGradient id="paint1_linear_490_140260" x1="130.251" y1="235.429" x2="185.471" y2="339.365" gradientUnits="userSpaceOnUse">
<stop stop-color="#FF8E3D"/>
<stop offset="1" stop-color="#FF6F3D"/>
</linearGradient>
<clipPath id="clip0_490_140260">
<rect width="640" height="500" fill="white"/>
</clipPath>
<clipPath id="clip1_490_140260">
<rect x="50" y="60" width="540" height="380" rx="5" fill="white"/>
</clipPath>
<clipPath id="clip2_490_140260">
<rect width="16" height="16" fill="white" transform="translate(78 292)"/>
</clipPath>
<clipPath id="clip3_490_140260">
<rect width="16" height="16" fill="white" transform="translate(78 324)"/>
</clipPath>
<clipPath id="clip4_490_140260">
<rect width="16" height="16" fill="white" transform="translate(172 404.5)"/>
</clipPath>
</defs>
</svg>
