<svg width="334" height="208" viewBox="0 0 334 208" fill="none" xmlns="http://www.w3.org/2000/svg">
<path d="M50.1938 60C50.1938 55.5817 53.7756 52 58.1938 52H260.742C265.161 52 268.742 55.5817 268.742 60V197.838H50.1938V60Z" fill="#F5F5F5"/>
<path fill-rule="evenodd" clip-rule="evenodd" d="M271 199H48V59.944C48 54.4521 52.4862 50 58.0203 50H260.98C266.514 50 271 54.4521 271 59.944V199ZM58.0203 51.9888C53.593 51.9888 50.0041 55.5505 50.0041 59.944V197.011H268.996V59.944C268.996 55.5505 265.407 51.9888 260.98 51.9888H58.0203Z" fill="#333333"/>
<path fill-rule="evenodd" clip-rule="evenodd" d="M263 192V58H56V192H263Z" fill="white"/>
<path fill-rule="evenodd" clip-rule="evenodd" d="M263 58V192H56V58H263ZM57.0037 59.0025V190.998H261.996V59.0025H57.0037Z" fill="#333333"/>
<path fill-rule="evenodd" clip-rule="evenodd" d="M279.252 207.4C281.487 207.4 284.502 206.9 287.309 206.1C288.609 205.7 289.856 204.55 291 204H25C25.8317 204.8 27.3912 206.35 28.7428 206.8C31.7059 207.7 35.4487 207.7 37.8399 207.7L279.252 207.4Z" fill="#AAAAAA"/>
<path fill-rule="evenodd" clip-rule="evenodd" d="M290.702 204L292 203H25L25.8829 204H290.702Z" fill="#333333"/>
<path fill-rule="evenodd" clip-rule="evenodd" d="M25.041 199.022V203.62V203.669C26.7587 205.324 30.9228 207.221 39.1469 206.978H277.5C279.738 206.978 283.631 206.345 286.442 205.713C287.743 205.421 291.959 203.912 292.011 203.474V199.022C203.004 199.168 114.048 199.022 25.041 199.022ZM39.1469 208C34.5664 208 29.7777 208 24.8849 204.983C24.4164 204.594 24.0521 204.35 24 203.669V199.363C24 199.363 24 198 25.5615 198L291.595 198.024C292.479 198.024 293 198.56 293 199.435V203.474V203.62L292.948 203.669C292.844 204.01 292.427 204.448 291.907 204.691C290.293 205.567 288.367 206.345 286.181 206.832C283.319 207.513 280.051 208 277.708 208H39.1469Z" fill="#333333"/>
<path opacity="0.6" d="M106.067 103.772H68.6588C68.3734 103.772 68.1421 104.003 68.1421 104.288C68.1421 104.574 68.3734 104.805 68.6588 104.805H106.067C106.353 104.805 106.584 104.574 106.584 104.288C106.584 104.003 106.353 103.772 106.067 103.772Z" fill="white"/>
<path fill-rule="evenodd" clip-rule="evenodd" d="M254.568 64.0271H94.4323C93.6408 64.0271 92.9992 64.6865 92.9992 65.5C92.9992 66.3135 93.6408 66.9729 94.4322 66.9729H254.568C255.359 66.9729 256.001 66.3135 256.001 65.5C256.001 64.6865 255.359 64.0271 254.568 64.0271ZM94.4323 63H254.568C255.911 63 257 64.1193 257 65.5C257 66.8807 255.911 68 254.568 68H94.4322C93.0889 68 92 66.8807 92 65.5C92 64.1193 93.089 63 94.4323 63Z" fill="#CCCCCC"/>
<path fill-rule="evenodd" clip-rule="evenodd" d="M25 199L25 203H292V199C203 199 114 199 25 199Z" fill="#FEFEFE"/>
<path d="M70 65C70 66.1046 69.1046 67 68 67C66.8954 67 66 66.1046 66 65C66 63.8954 66.8954 63 68 63C69.1046 63 70 63.8954 70 65Z" fill="#CCCCCC"/>
<path d="M76 65C76 66.1046 75.1046 67 74 67C72.8954 67 72 66.1046 72 65C72 63.8954 72.8954 63 74 63C75.1046 63 76 63.8954 76 65Z" fill="#CCCCCC"/>
<path d="M82 65C82 66.1046 81.1046 67 80 67C78.8954 67 78 66.1046 78 65C78 63.8954 78.8954 63 80 63C81.1046 63 82 63.8954 82 65Z" fill="#CCCCCC"/>
<path d="M150 82C150 81.4477 150.448 81 151 81H228C228.552 81 229 81.4477 229 82C229 82.5523 228.552 83 228 83H151C150.448 83 150 82.5523 150 82Z" fill="url(#paint0_linear)"/>
<path d="M134 91.5C134 91.2239 134.224 91 134.5 91H252.5C252.776 91 253 91.2239 253 91.5C253 91.7761 252.776 92 252.5 92H134.5C134.224 92 134 91.7761 134 91.5Z" fill="#CCCCCC"/>
<path d="M127 97.5C127 97.2239 127.224 97 127.5 97H252.5C252.776 97 253 97.2239 253 97.5C253 97.7761 252.776 98 252.5 98H127.5C127.224 98 127 97.7761 127 97.5Z" fill="#CCCCCC"/>
<path d="M127 115.5C127 115.224 127.224 115 127.5 115H252.5C252.776 115 253 115.224 253 115.5C253 115.776 252.776 116 252.5 116H127.5C127.224 116 127 115.776 127 115.5Z" fill="#CCCCCC"/>
<path d="M127 103.5C127 103.224 127.224 103 127.5 103H252.5C252.776 103 253 103.224 253 103.5C253 103.776 252.776 104 252.5 104H127.5C127.224 104 127 103.776 127 103.5Z" fill="#CCCCCC"/>
<path d="M127 121.5C127 121.224 127.224 121 127.5 121H238.5C238.776 121 239 121.224 239 121.5C239 121.776 238.776 122 238.5 122H127.5C127.224 122 127 121.776 127 121.5Z" fill="#CCCCCC"/>
<path d="M127 109.5C127 109.224 127.224 109 127.5 109H252.5C252.776 109 253 109.224 253 109.5C253 109.776 252.776 110 252.5 110H127.5C127.224 110 127 109.776 127 109.5Z" fill="#CCCCCC"/>
<path opacity="0.5" d="M67 144.5C67 143.672 67.6716 143 68.5 143H117.5C118.328 143 119 143.672 119 144.5C119 145.328 118.328 146 117.5 146H68.5C67.6716 146 67 145.328 67 144.5Z" fill="#CCCCCC"/>
<path opacity="0.5" d="M67 153.5C67 152.672 67.6716 152 68.5 152H117.5C118.328 152 119 152.672 119 153.5C119 154.328 118.328 155 117.5 155H68.5C67.6716 155 67 154.328 67 153.5Z" fill="#CCCCCC"/>
<path opacity="0.5" d="M67 162.5C67 161.672 67.6716 161 68.5 161H117.5C118.328 161 119 161.672 119 162.5C119 163.328 118.328 164 117.5 164H68.5C67.6716 164 67 163.328 67 162.5Z" fill="#CCCCCC"/>
<path opacity="0.5" d="M67 171.5C67 170.672 67.6716 170 68.5 170H117.5C118.328 170 119 170.672 119 171.5C119 172.328 118.328 173 117.5 173H68.5C67.6716 173 67 172.328 67 171.5Z" fill="#CCCCCC"/>
<path opacity="0.5" d="M67 180.5C67 179.672 67.6716 179 68.5 179H117.5C118.328 179 119 179.672 119 180.5C119 181.328 118.328 182 117.5 182H68.5C67.6716 182 67 181.328 67 180.5Z" fill="#CCCCCC"/>
<path d="M66.0002 77H118V133H66.0002V77Z" fill="#EFEFEF"/>
<path opacity="0.5" fill-rule="evenodd" clip-rule="evenodd" d="M117.004 77.9898H66.9963V132.01H117.004V77.9898ZM66.0002 77V133H118V77H66.0002Z" fill="#808080"/>
<path d="M67 132L80.9706 94L93.7666 115.332L103.765 103.161L117 132H103.765H80.9706H67Z" fill="url(#paint1_linear)"/>
<path fill-rule="evenodd" clip-rule="evenodd" d="M80.8619 92.8467L93.8305 114.467L103.886 102.226L117.78 132.5H66.2834L80.8619 92.8467ZM93.1565 115.287L81.0793 95.1532L67.7165 131.5H80.7117L86.0874 123.893L93.1565 115.287ZM81.9362 131.5H102.882L93.7027 116.198L86.8832 124.5L81.9362 131.5ZM104.048 131.5L94.3767 115.377L103.644 104.096L116.22 131.5H104.048Z" fill="url(#paint2_linear)"/>
<path d="M82.4146 114L74.5 109L81 92.5L90.5 108.5L82.4146 114Z" fill="white"/>
<path d="M102.189 117L95 112.213L104.081 102L109 112.213L102.189 117Z" fill="white"/>
<path fill-rule="evenodd" clip-rule="evenodd" d="M125 143C125 142.448 125.448 142 126 142H164C164.552 142 165 142.448 165 143C165 143.552 164.552 144 164 144H126C125.448 144 125 143.552 125 143ZM169 143C169 142.448 169.448 142 170 142H209C209.552 142 210 142.448 210 143C210 143.552 209.552 144 209 144H170C169.448 144 169 143.552 169 143ZM214 142C213.448 142 213 142.448 213 143C213 143.552 213.448 144 214 144H253C253.552 144 254 143.552 254 143C254 142.448 253.552 142 253 142H214Z" fill="url(#paint3_linear)"/>
<path d="M213 151.5C213 151.224 213.224 151 213.5 151H252.5C252.776 151 253 151.224 253 151.5C253 151.776 252.776 152 252.5 152H213.5C213.224 152 213 151.776 213 151.5Z" fill="#CCCCCC"/>
<path d="M213 166.5C213 166.224 213.224 166 213.5 166H252.5C252.776 166 253 166.224 253 166.5C253 166.776 252.776 167 252.5 167H213.5C213.224 167 213 166.776 213 166.5Z" fill="#CCCCCC"/>
<path d="M213 156.5C213 156.224 213.224 156 213.5 156H252.5C252.776 156 253 156.224 253 156.5C253 156.776 252.776 157 252.5 157H213.5C213.224 157 213 156.776 213 156.5Z" fill="#CCCCCC"/>
<path d="M213 171.5C213 171.224 213.224 171 213.5 171H252.5C252.776 171 253 171.224 253 171.5C253 171.776 252.776 172 252.5 172H213.5C213.224 172 213 171.776 213 171.5Z" fill="#CCCCCC"/>
<path d="M213 161.5C213 161.224 213.224 161 213.5 161H252.5C252.776 161 253 161.224 253 161.5C253 161.776 252.776 162 252.5 162H213.5C213.224 162 213 161.776 213 161.5Z" fill="#CCCCCC"/>
<path d="M213 176.5C213 176.224 213.224 176 213.5 176H252.5C252.776 176 253 176.224 253 176.5C253 176.776 252.776 177 252.5 177H213.5C213.224 177 213 176.776 213 176.5Z" fill="#CCCCCC"/>
<path d="M213 166.5C213 166.224 213.224 166 213.5 166H252.5C252.776 166 253 166.224 253 166.5C253 166.776 252.776 167 252.5 167H213.5C213.224 167 213 166.776 213 166.5Z" fill="#CCCCCC"/>
<path d="M213 181.5C213 181.224 213.224 181 213.5 181H252.5C252.776 181 253 181.224 253 181.5C253 181.776 252.776 182 252.5 182H213.5C213.224 182 213 181.776 213 181.5Z" fill="#CCCCCC"/>
<path d="M169 151.5C169 151.224 169.224 151 169.5 151H208.5C208.776 151 209 151.224 209 151.5C209 151.776 208.776 152 208.5 152H169.5C169.224 152 169 151.776 169 151.5Z" fill="#CCCCCC"/>
<path d="M169 166.5C169 166.224 169.224 166 169.5 166H208.5C208.776 166 209 166.224 209 166.5C209 166.776 208.776 167 208.5 167H169.5C169.224 167 169 166.776 169 166.5Z" fill="#CCCCCC"/>
<path d="M169 156.5C169 156.224 169.224 156 169.5 156H208.5C208.776 156 209 156.224 209 156.5C209 156.776 208.776 157 208.5 157H169.5C169.224 157 169 156.776 169 156.5Z" fill="#CCCCCC"/>
<path d="M169 171.5C169 171.224 169.224 171 169.5 171H208.5C208.776 171 209 171.224 209 171.5C209 171.776 208.776 172 208.5 172H169.5C169.224 172 169 171.776 169 171.5Z" fill="#CCCCCC"/>
<path d="M169 161.5C169 161.224 169.224 161 169.5 161H208.5C208.776 161 209 161.224 209 161.5C209 161.776 208.776 162 208.5 162H169.5C169.224 162 169 161.776 169 161.5Z" fill="#CCCCCC"/>
<path d="M169 176.5C169 176.224 169.224 176 169.5 176H208.5C208.776 176 209 176.224 209 176.5C209 176.776 208.776 177 208.5 177H169.5C169.224 177 169 176.776 169 176.5Z" fill="#CCCCCC"/>
<path d="M169 166.5C169 166.224 169.224 166 169.5 166H208.5C208.776 166 209 166.224 209 166.5C209 166.776 208.776 167 208.5 167H169.5C169.224 167 169 166.776 169 166.5Z" fill="#CCCCCC"/>
<path d="M169 181.5C169 181.224 169.224 181 169.5 181H208.5C208.776 181 209 181.224 209 181.5C209 181.776 208.776 182 208.5 182H169.5C169.224 182 169 181.776 169 181.5Z" fill="#CCCCCC"/>
<path d="M125 151.5C125 151.224 125.224 151 125.5 151H164.5C164.776 151 165 151.224 165 151.5C165 151.776 164.776 152 164.5 152H125.5C125.224 152 125 151.776 125 151.5Z" fill="#CCCCCC"/>
<path d="M125 166.5C125 166.224 125.224 166 125.5 166H164.5C164.776 166 165 166.224 165 166.5C165 166.776 164.776 167 164.5 167H125.5C125.224 167 125 166.776 125 166.5Z" fill="#CCCCCC"/>
<path d="M125 156.5C125 156.224 125.224 156 125.5 156H164.5C164.776 156 165 156.224 165 156.5C165 156.776 164.776 157 164.5 157H125.5C125.224 157 125 156.776 125 156.5Z" fill="#CCCCCC"/>
<path d="M125 171.5C125 171.224 125.224 171 125.5 171H164.5C164.776 171 165 171.224 165 171.5C165 171.776 164.776 172 164.5 172H125.5C125.224 172 125 171.776 125 171.5Z" fill="#CCCCCC"/>
<path d="M125 161.5C125 161.224 125.224 161 125.5 161H164.5C164.776 161 165 161.224 165 161.5C165 161.776 164.776 162 164.5 162H125.5C125.224 162 125 161.776 125 161.5Z" fill="#CCCCCC"/>
<path d="M125 176.5C125 176.224 125.224 176 125.5 176H164.5C164.776 176 165 176.224 165 176.5C165 176.776 164.776 177 164.5 177H125.5C125.224 177 125 176.776 125 176.5Z" fill="#CCCCCC"/>
<path d="M125 166.5C125 166.224 125.224 166 125.5 166H164.5C164.776 166 165 166.224 165 166.5C165 166.776 164.776 167 164.5 167H125.5C125.224 167 125 166.776 125 166.5Z" fill="#CCCCCC"/>
<path d="M125 181.5C125 181.224 125.224 181 125.5 181H164.5C164.776 181 165 181.224 165 181.5C165 181.776 164.776 182 164.5 182H125.5C125.224 182 125 181.776 125 181.5Z" fill="#CCCCCC"/>
<path d="M24 5C24 2.23858 26.2386 0 29 0H254C256.761 0 259 2.23858 259 5V27C259 29.7614 256.761 32 254 32H29C26.2386 32 24 29.7614 24 27V5Z" fill="white"/>
<path fill-rule="evenodd" clip-rule="evenodd" d="M254 1H29C26.7909 1 25 2.79086 25 5V27C25 29.2091 26.7909 31 29 31H254C256.209 31 258 29.2091 258 27V5C258 2.79086 256.209 1 254 1ZM29 0C26.2386 0 24 2.23858 24 5V27C24 29.7614 26.2386 32 29 32H254C256.761 32 259 29.7614 259 27V5C259 2.23858 256.761 0 254 0H29Z" fill="#CCCCCC"/>
<path d="M35 7H54V8H35V7Z" fill="#CCCCCC"/>
<path d="M35 10H46.0833V11H35V10Z" fill="#CCCCCC"/>
<path d="M50.8333 13H35V14H50.8333V13Z" fill="#CCCCCC"/>
<path d="M35 16H46.0833V17H35V16Z" fill="#CCCCCC"/>
<path d="M46.0833 19H35V20H46.0833V19Z" fill="#CCCCCC"/>
<path d="M35 22H54V23H35V22Z" fill="#CCCCCC"/>
<path d="M75 7H94V8H75V7Z" fill="#CCCCCC"/>
<path d="M79.75 10H89.25V11H79.75V10Z" fill="#CCCCCC"/>
<path d="M92.4167 13H76.5833V14H92.4167V13Z" fill="#CCCCCC"/>
<path d="M79.75 16H89.25V17H79.75V16Z" fill="#CCCCCC"/>
<path d="M89.25 19H79.75V20H89.25V19Z" fill="#CCCCCC"/>
<path d="M75 22H94V23H75V22Z" fill="#CCCCCC"/>
<path d="M134 7H115V8H134V7Z" fill="#CCCCCC"/>
<path d="M134 10H122.917V11H134V10Z" fill="#CCCCCC"/>
<path d="M118.167 13H134V14H118.167V13Z" fill="#CCCCCC"/>
<path d="M134 16H122.917V17H134V16Z" fill="#CCCCCC"/>
<path d="M122.917 19H134V20H122.917V19Z" fill="#CCCCCC"/>
<path d="M134 22H115V23H134V22Z" fill="#CCCCCC"/>
<path d="M154 7H173V8H154V7Z" fill="#CCCCCC"/>
<path d="M173 10H154V11H173V10Z" fill="#CCCCCC"/>
<path d="M154 13H173V14H154V13Z" fill="#CCCCCC"/>
<path d="M173 16H154V17H173V16Z" fill="#CCCCCC"/>
<path d="M154 19H173V20H154V19Z" fill="#CCCCCC"/>
<path d="M154 22H173V23H154V22Z" fill="#CCCCCC"/>
<path d="M198.74 17C199.018 17 199.732 17.0389 200 17V25H201V6H204V25H205V6H207V5C203.991 5 201.656 5 198.74 5C195.57 5 193 7.61167 193 10.8333C193 14.055 195.57 17 198.74 17Z" fill="#CCCCCC"/>
<path d="M227.5 9L231.5 5L235.5 9L235 10L232 7V23L235 20L235.5 21L231.5 25L227.5 21L228 20L231 23V7L228 10L227.5 9Z" fill="#CCCCCC"/>
<path d="M250 7H239V8H250V7Z" fill="#CCCCCC"/>
<path d="M239 12H250V13H239V12Z" fill="#CCCCCC"/>
<path d="M250 17H239V18H250V17Z" fill="#CCCCCC"/>
<path d="M239 22H250V23H239V22Z" fill="#CCCCCC"/>
<path d="M284 38C284 35.2386 286.239 33 289 33H329C331.761 33 334 35.2386 334 38V78C334 80.7614 331.761 83 329 83H289C286.239 83 284 80.7614 284 78V38Z" fill="white"/>
<path fill-rule="evenodd" clip-rule="evenodd" d="M329 34H289C286.791 34 285 35.7909 285 38V78C285 80.2091 286.791 82 289 82H329C331.209 82 333 80.2091 333 78V38C333 35.7909 331.209 34 329 34ZM289 33C286.239 33 284 35.2386 284 38V78C284 80.7614 286.239 83 289 83H329C331.761 83 334 80.7614 334 78V38C334 35.2386 331.761 33 329 33H289Z" fill="#CCCCCC"/>
<path fill-rule="evenodd" clip-rule="evenodd" d="M301.916 37.9625C300.633 36.6792 298.552 36.6791 297.269 37.9625L289.156 46.0753C287.873 47.3587 287.873 49.4395 289.156 50.7229L291.433 53L304.193 53V51.6855H298.55L304.771 45.4648C306.054 44.1814 306.054 42.1006 304.771 40.8172L301.916 37.9625ZM296.691 51.6855L301.292 47.0846L295.649 41.4414L290.085 47.0048C289.315 47.7749 289.315 49.0234 290.085 49.7934L291.977 51.6855L296.691 51.6855ZM296.578 40.5119L302.222 46.1551L303.841 44.5352C304.611 43.7652 304.611 42.5167 303.841 41.7467L300.987 38.8921C300.217 38.122 298.968 38.122 298.198 38.8921L296.578 40.5119Z" fill="#CCCCCC"/>
<path fill-rule="evenodd" clip-rule="evenodd" d="M311.365 54.1716V38.1716H327.365V54.1716H311.365ZM319.365 39.3145H326.222V46.1716H319.365V39.3145Z" fill="#CCCCCC"/>
<path fill-rule="evenodd" clip-rule="evenodd" d="M291.479 62.1429C291.479 61.5117 291.991 61 292.622 61H301.765C302.396 61 302.908 61.5117 302.908 62.1429V65.5714C302.908 66.2026 302.396 66.7143 301.765 66.7143H292.622C291.991 66.7143 291.479 66.2026 291.479 65.5714V64.4286H290.336V67.8571H297.193V70.1429H298.336V77H294.908V70.1429H296.051V69H290.336C289.705 69 289.193 68.4883 289.193 67.8571V64.4286C289.193 63.7974 289.705 63.2857 290.336 63.2857H291.479V62.1429ZM292.622 62.1429H301.765V65.5714H292.622V62.1429Z" fill="#CCCCCC"/>
<path fill-rule="evenodd" clip-rule="evenodd" d="M310.193 64.1818C310.193 63.5291 310.731 63 311.393 63H326.993C327.656 63 328.193 63.5291 328.193 64.1818V74.8182C328.193 75.4709 327.656 76 326.993 76H311.393C310.731 76 310.193 75.4709 310.193 74.8182V64.1818ZM312.242 64.1818L319.193 71.028L326.145 64.1818H312.242ZM311.393 65.0175L311.393 73.9826L315.945 69.5L311.393 65.0175ZM326.145 74.8182H312.242L316.793 70.3357L319.193 72.6994L321.593 70.3357L326.145 74.8182ZM326.993 73.9825V65.0175L322.442 69.5L326.993 73.9825Z" fill="#CCCCCC"/>
<path d="M0 45C0 42.2386 2.23858 40 5 40H27C29.7614 40 32 42.2386 32 45V167C32 169.761 29.7614 172 27 172H5C2.23858 172 0 169.761 0 167V45Z" fill="white"/>
<path fill-rule="evenodd" clip-rule="evenodd" d="M27 41H5C2.79086 41 1 42.7909 1 45V167C1 169.209 2.79086 171 5 171H27C29.2091 171 31 169.209 31 167V45C31 42.7909 29.2091 41 27 41ZM5 40C2.23858 40 0 42.2386 0 45V167C0 169.761 2.23858 172 5 172H27C29.7614 172 32 169.761 32 167V45C32 42.2386 29.7614 40 27 40H5Z" fill="#CCCCCC"/>
<path fill-rule="evenodd" clip-rule="evenodd" d="M20.3279 59.042C18.951 60.1898 17.1795 60.8804 15.2468 60.8804C10.8616 60.8804 7.30664 57.3254 7.30664 52.9402C7.30664 48.5549 10.8616 45 15.2468 45C19.6321 45 23.187 48.5549 23.187 52.9402C23.187 54.8729 22.4965 56.6443 21.3487 58.0212L27.3066 63.9792L26.2858 65L20.3279 59.042ZM21.7433 52.9402C21.7433 56.5281 18.8347 59.4367 15.2468 59.4367C11.6589 59.4367 8.75031 56.5281 8.75031 52.9402C8.75031 49.3523 11.6589 46.4437 15.2468 46.4437C18.8347 46.4437 21.7433 49.3523 21.7433 52.9402Z" fill="#CCCCCC"/>
<path d="M11.0566 76.75H23.5566V78H11.0566V76.75Z" fill="#CCCCCC"/>
<path d="M11.0566 79.25H23.5566V80.5H11.0566V79.25Z" fill="#CCCCCC"/>
<path d="M19.8066 81.75H11.0566V83H19.8066V81.75Z" fill="#CCCCCC"/>
<path fill-rule="evenodd" clip-rule="evenodd" d="M11.0566 88L14.1816 91.125L17.3066 88H26.0566C26.747 88 27.3066 87.4404 27.3066 86.75V74.25C27.3066 73.5596 26.747 73 26.0566 73H8.55664C7.86628 73 7.30664 73.5596 7.30664 74.25V86.75C7.30664 87.4404 7.86628 88 8.55664 88H11.0566ZM14.1816 89.3572L11.5744 86.75H8.55664V74.25H26.0566V86.75H16.7889L14.1816 89.3572Z" fill="#CCCCCC"/>
<path d="M21.1528 99.125H7.30664V100.625H21.1528V99.125Z" fill="#CCCCCC"/>
<path d="M24.2297 103.625H10.3836V105.125H24.2297V103.625Z" fill="#CCCCCC"/>
<path d="M13.4605 108.125H27.3066V109.625H13.4605V108.125Z" fill="#CCCCCC"/>
<path d="M21.1528 112.625H7.30664V114.125H21.1528V112.625Z" fill="#CCCCCC"/>
<path fill-rule="evenodd" clip-rule="evenodd" d="M15.3066 127.356H7.30664V133.894H11.3066V137.817H12.64V133.894H15.3066L20.64 139.125V122.125L15.3066 127.356ZM19.3066 125.282L15.8589 128.663H8.63997V132.587H15.8589L19.3066 135.968V125.282Z" fill="#CCCCCC"/>
<path d="M21.9733 137.547C25.0513 136.693 27.3066 133.917 27.3066 130.625C27.3066 127.333 25.0513 124.557 21.9733 123.703V125.075C24.3037 125.883 25.9733 128.063 25.9733 130.625C25.9733 133.187 24.3037 135.367 21.9733 136.175V137.547Z" fill="#CCCCCC"/>
<path d="M24.64 130.625C24.64 132.451 23.5499 134.027 21.9733 134.761V133.241C22.7829 132.644 23.3066 131.695 23.3066 130.625C23.3066 129.555 22.7829 128.606 21.9733 128.009V126.488C23.5499 127.223 24.64 128.799 24.64 130.625Z" fill="#CCCCCC"/>
<path d="M11.0566 153.247H9.80664V154.472H11.0566V153.247Z" fill="#CCCCCC"/>
<path d="M13.5566 158.145H21.0566V159.37H13.5566V158.145Z" fill="#CCCCCC"/>
<path d="M21.0566 160.594H13.5566V161.819H21.0566V160.594Z" fill="#CCCCCC"/>
<path fill-rule="evenodd" clip-rule="evenodd" d="M11.0566 150.798V148.349C11.0566 147.673 11.6163 147.125 12.3066 147.125H22.3066C22.997 147.125 23.5566 147.673 23.5566 148.349V150.798H26.0566C26.747 150.798 27.3066 151.347 27.3066 152.023V159.37C27.3066 160.046 26.747 160.594 26.0566 160.594H23.5566V163.043C23.5566 163.72 22.997 164.268 22.3066 164.268H12.3066C11.6163 164.268 11.0566 163.72 11.0566 163.043V160.594H8.55664C7.86628 160.594 7.30664 160.046 7.30664 159.37V152.023C7.30664 151.347 7.86628 150.798 8.55664 150.798H11.0566ZM12.3066 148.349H22.3066V150.798H12.3066V148.349ZM11.0566 159.37V156.921C11.0566 156.245 11.6163 155.696 12.3066 155.696H22.3066C22.997 155.696 23.5566 156.245 23.5566 156.921V159.37H26.0566V152.023H8.55664V159.37H11.0566ZM22.3066 156.921H12.3066V163.043H22.3066V156.921Z" fill="#CCCCCC"/>
<defs>
<linearGradient id="paint0_linear" x1="150" y1="80.9219" x2="150.098" y2="84.9224" gradientUnits="userSpaceOnUse">
<stop stop-color="#FF8E3D"/>
<stop offset="1" stop-color="#FF6F3D"/>
</linearGradient>
<linearGradient id="paint1_linear" x1="67.0001" y1="92.5156" x2="103.241" y2="142.064" gradientUnits="userSpaceOnUse">
<stop stop-color="#FFC671"/>
<stop offset="0.59375" stop-color="#FF7541"/>
<stop offset="1" stop-color="#FF6F3D"/>
</linearGradient>
<linearGradient id="paint2_linear" x1="66.2835" y1="91.2977" x2="104.249" y2="142.527" gradientUnits="userSpaceOnUse">
<stop stop-color="#FFC671"/>
<stop offset="0.59375" stop-color="#FF7541"/>
<stop offset="1" stop-color="#FF6F3D"/>
</linearGradient>
<linearGradient id="paint3_linear" x1="125" y1="141.922" x2="125.06" y2="145.924" gradientUnits="userSpaceOnUse">
<stop stop-color="#FF8E3D"/>
<stop offset="1" stop-color="#FF6F3D"/>
</linearGradient>
</defs>
</svg>
