<svg width="280" height="24" viewBox="0 0 280 24" fill="none" xmlns="http://www.w3.org/2000/svg">
<path fill-rule="evenodd" clip-rule="evenodd" d="M32.3001 1.20477C35.7538 7.46955 35.1113 15.1801 30.6135 20.8023H21.136L24.1077 15.662H20.2525L24.7503 7.63019H28.6858L32.3001 1.20477ZM13.5861 20.8023H3.94798C-0.630131 15.1801 -1.27267 7.38923 2.26131 1.12445L8.52609 12.0477L15.4334 0H25.6338L13.5861 20.8023Z" fill="white"/>
<path d="M40.2516 10.6822C40.2516 5.14023 43.0627 2.48975 47.5605 2.48975C52.0583 2.48975 54.8694 5.14023 54.8694 10.6822C54.8694 16.2241 52.1386 18.9549 47.5605 18.9549C42.9824 18.9549 40.2516 16.2241 40.2516 10.6822ZM41.9383 10.6822C41.9383 15.2603 44.0265 17.4288 47.5605 17.4288C51.0945 17.4288 53.2631 15.2603 53.2631 10.6822C53.2631 6.10404 51.1748 3.93547 47.5605 3.93547C43.9462 3.93547 41.9383 6.10404 41.9383 10.6822Z" fill="white"/>
<path d="M66.8368 3.13224C66.9974 2.89128 67.2384 2.65033 67.5596 2.65033C67.9612 2.57001 68.2825 2.89128 68.3628 3.29287C68.3628 3.37319 68.3628 3.37319 68.3628 3.45351C68.3628 3.53382 68.3628 3.69446 68.2825 3.77478L62.8209 18.232C62.8209 18.6336 62.4996 18.9548 62.098 18.9548C61.6964 18.9548 61.3752 18.6336 61.3752 18.232L55.8332 3.77478C55.8332 3.69446 55.7529 3.53382 55.7529 3.45351C55.7529 2.9716 56.0742 2.65033 56.5561 2.65033C56.8774 2.65033 57.1986 2.81096 57.3593 3.13224L62.098 15.7421L66.8368 3.13224Z" fill="white"/>
<path d="M71.7361 11.2443V17.991C71.7361 18.3926 71.3345 18.7942 70.9329 18.7942C70.451 18.7942 70.1297 18.4729 70.1297 17.991V3.45351C70.0494 3.05192 70.3706 2.73065 70.7722 2.65033C70.8526 2.65033 70.8526 2.65033 70.9329 2.65033C71.4148 2.65033 71.7361 2.9716 71.7361 3.45351V9.79861H79.8481V3.45351C79.8481 2.9716 80.1694 2.65033 80.6513 2.65033C81.0529 2.57001 81.3742 2.89128 81.4545 3.29287C81.4545 3.37319 81.4545 3.37319 81.4545 3.45351V17.991C81.4545 18.4729 81.1332 18.7942 80.6513 18.7942C80.2497 18.7942 79.8481 18.3926 79.8481 17.991V11.2443H71.7361Z" fill="white"/>
<path d="M89.0045 7.63013C90.3699 7.63013 91.7353 8.19235 92.6188 9.23648C92.6991 9.39712 92.7794 9.55775 92.7794 9.71839C92.7794 10.0397 92.4581 10.3609 92.1369 10.3609H92.0566C91.8156 10.3609 91.655 10.2806 91.4943 10.12C90.9321 9.3168 89.9683 8.91521 89.0045 8.99553C86.8359 8.99553 85.7115 10.3609 85.7115 13.2524C85.7115 16.1438 86.8359 17.5092 89.0045 17.5092C89.9683 17.5092 90.9321 17.1879 91.7353 16.5454C91.8156 16.4651 91.9762 16.3848 92.1369 16.3848C92.5385 16.3848 92.7794 16.6257 92.8597 17.0273C92.8597 17.2683 92.7794 17.5092 92.5385 17.6698C91.4943 18.473 90.2896 18.8746 89.0045 18.8746C85.9524 18.8746 84.1854 17.1076 84.1854 13.2524C84.1854 9.39712 85.9524 7.63013 89.0045 7.63013Z" fill="white"/>
<path d="M96.474 2.65059V16.0637C96.474 16.9472 96.7953 17.3487 97.4379 17.3487C97.8394 17.3487 98.1607 17.67 98.1607 18.0716C98.1607 18.4732 97.8394 18.7945 97.4379 18.7945C95.8315 18.7945 94.948 17.8306 94.948 16.0637V2.65059C95.0283 2.24901 95.3496 1.92773 95.7512 1.92773C96.1528 1.92773 96.474 2.24901 96.474 2.65059Z" fill="white"/>
<path d="M109.245 13.2524C109.245 17.1076 107.397 18.8746 104.345 18.8746C101.293 18.8746 99.3655 17.1076 99.3655 13.2524C99.3655 9.39712 101.293 7.63013 104.345 7.63013C107.397 7.63013 109.245 9.39712 109.245 13.2524ZM107.719 13.2524C107.719 10.2806 106.433 8.99553 104.345 8.99553C102.257 8.99553 100.892 10.2806 100.892 13.2524C100.892 16.2241 102.177 17.5092 104.345 17.5092C106.514 17.5092 107.719 16.2241 107.719 13.2524Z" fill="white"/>
<path d="M112.859 8.51363V14.6178C112.859 16.1438 113.341 17.4289 115.67 17.4289C117.999 17.4289 118.561 16.1438 118.561 14.6178V8.51363C118.561 8.11204 118.883 7.79077 119.284 7.79077H119.365C119.766 7.79077 120.087 8.11204 120.087 8.51363V14.6178C120.087 16.8667 119.365 18.8746 115.67 18.8746C111.975 18.8746 111.333 16.8667 111.333 14.6178V8.51363C111.333 8.11204 111.654 7.79077 112.056 7.79077H112.136C112.538 7.79077 112.859 8.11204 112.859 8.51363Z" fill="white"/>
<path d="M130.047 9.15633V2.65059C130.047 2.24901 130.368 1.92773 130.77 1.92773H130.85C131.252 1.92773 131.573 2.24901 131.573 2.65059V14.2967C131.573 17.3487 129.645 18.8748 126.995 18.8748C124.344 18.8748 122.176 17.1078 122.176 13.2525C122.176 9.39728 123.862 7.63029 126.914 7.63029C128.119 7.63029 129.324 8.19252 130.047 9.15633ZM130.047 11.084C129.485 9.87919 128.36 9.07601 126.995 8.99569C124.826 8.99569 123.702 10.3611 123.702 13.2525C123.702 16.144 124.826 17.5094 126.995 17.5094C129.163 17.5094 130.047 16.5456 130.047 14.2967V11.084Z" fill="white"/>
<path d="M155.427 18.714V2.89136H158.56L161.371 10.6019L161.853 12.2082C162.013 12.6901 162.174 13.172 162.415 13.7343H162.495L162.977 12.2082L163.459 10.6019L166.19 2.89136H169.403V18.714H166.832V10.2806C166.832 9.879 166.913 9.39709 166.913 8.99551C166.913 8.5136 166.993 8.11201 167.073 7.6301C167.073 7.22852 167.154 6.82693 167.154 6.50566H167.073L165.788 10.12L163.218 17.1879H161.531L158.961 10.12L157.676 6.50566H157.596C157.596 6.82693 157.676 7.22852 157.676 7.6301C157.676 8.03169 157.756 8.5136 157.837 8.99551C157.917 9.47741 157.917 9.879 157.917 10.2806V18.714H155.427Z" fill="white"/>
<path d="M175.989 18.955C175.025 19.0353 174.141 18.6337 173.499 17.9912C172.856 17.3486 172.455 16.4651 172.535 15.5013C172.455 14.9391 172.615 14.2966 172.936 13.8147C173.258 13.3327 173.659 12.8508 174.141 12.5296C174.864 12.128 175.587 11.887 176.31 11.6461C177.354 11.4051 178.398 11.1642 179.442 11.0839C179.442 10.8429 179.442 10.5216 179.362 10.2807C179.282 9.9594 179.121 9.71845 178.96 9.4775C178.8 9.23654 178.559 9.07591 178.318 8.99559C177.996 8.83495 177.595 8.75464 177.274 8.83495C176.711 8.83495 176.149 8.91527 175.587 9.15622L173.981 9.9594L172.936 8.11209L175.185 6.98765C176.069 6.74669 176.952 6.58606 177.836 6.58606C179.041 6.50574 180.326 6.98765 181.129 7.87114C181.932 8.99559 182.334 10.2807 182.253 11.6461V18.714H179.924L179.763 17.429H179.683L177.996 18.5534C177.354 18.7944 176.711 18.955 175.989 18.955ZM176.872 16.7864C177.354 16.7864 177.836 16.7061 178.237 16.4651C178.639 16.2242 179.121 15.9029 179.442 15.5013V12.8508L177.434 13.2524C176.952 13.3327 176.551 13.5737 176.149 13.8147C175.828 13.9753 175.587 14.2162 175.426 14.4572C175.266 14.6981 175.185 14.9391 175.185 15.2604C175.185 15.7423 175.346 16.1439 175.667 16.4651C176.069 16.7061 176.47 16.7864 176.872 16.7864Z" fill="white"/>
<path d="M185.546 18.7139V6.82689H187.876L188.036 8.91515H188.197C188.518 8.19229 189 7.63007 189.643 7.14816C190.205 6.74657 190.847 6.58594 191.49 6.58594C191.972 6.58594 192.454 6.66626 192.855 6.82689L192.373 9.23642L191.811 9.07579H191.169C190.606 9.15611 190.125 9.31674 189.643 9.63801C189.08 10.2002 188.598 10.8428 188.358 11.5656V18.7942L185.546 18.7139Z" fill="white"/>
<path d="M194.542 18.7141V1.68677H197.273V12.2887H197.353L201.77 6.8271H204.823L200.726 11.6462L205.224 18.7141H202.172L199.12 13.5738L197.273 15.6621V18.7141H194.542Z" fill="white"/>
<path d="M211.65 18.9549C210.846 18.9549 210.124 18.8746 209.401 18.5533C208.678 18.3123 208.035 17.9107 207.553 17.3485C206.991 16.7863 206.59 16.1437 206.268 15.4209C205.947 14.5374 205.867 13.6539 205.867 12.7704C205.786 11.8869 205.947 11.0034 206.268 10.2002C206.59 9.47738 206.991 8.75452 207.473 8.19229C208.035 7.71039 208.598 7.3088 209.24 6.98753C209.883 6.74657 210.525 6.58594 211.248 6.58594C211.971 6.58594 212.774 6.66626 213.417 6.98753C213.979 7.22848 214.541 7.63007 214.943 8.11197C215.344 8.59388 215.666 9.23642 215.826 9.87896C216.067 10.6018 216.147 11.405 216.147 12.2082V12.931C216.147 13.0917 216.067 13.3326 216.067 13.4933H208.517C208.598 14.4571 208.999 15.3406 209.642 15.9831C210.284 16.5453 211.168 16.8666 212.051 16.8666C212.533 16.8666 213.015 16.7863 213.497 16.6257L214.782 15.9831L215.746 17.6698C215.184 18.0714 214.541 18.3926 213.818 18.6336C213.095 18.8746 212.373 18.9549 211.65 18.9549ZM208.517 11.646H213.738C213.818 10.8428 213.577 10.1199 213.176 9.47738C212.694 8.91515 212.051 8.6742 211.328 8.6742C210.606 8.75452 209.963 8.99547 209.481 9.47738C208.919 10.1199 208.598 10.8428 208.517 11.646Z" fill="white"/>
<path d="M222.733 18.9552C222.171 18.9552 221.609 18.8749 221.047 18.6339C220.565 18.4733 220.163 18.152 219.842 17.7504C219.521 17.3488 219.28 16.9472 219.199 16.4653C219.039 15.9031 219.039 15.2606 219.039 14.6984V9.07611H217.272V6.98785L219.119 6.82721L219.521 3.6145H221.77V6.82721H224.822V9.07611H221.77V14.6984C221.77 16.0638 222.332 16.7866 223.456 16.7866H224.099L224.661 16.5457L225.143 18.6339L224.099 18.9552H222.733Z" fill="white"/>
<path d="M227.312 23.3725V6.82709H229.56L229.801 8.11218H229.882C230.364 7.71059 230.926 7.309 231.568 6.98773C232.131 6.74678 232.773 6.58614 233.416 6.58614C234.139 6.50582 234.781 6.66646 235.424 6.98773C235.986 7.309 236.468 7.71059 236.869 8.1925C237.271 8.75472 237.592 9.39726 237.753 10.1201C237.994 10.9233 238.074 11.8068 238.074 12.61C238.074 13.5738 237.913 14.4573 237.673 15.3408C237.432 16.0636 237.03 16.7062 236.548 17.2684C236.146 17.8306 235.584 18.2322 234.942 18.5535C234.379 18.8748 233.657 18.9551 233.014 18.9551C232.452 18.9551 231.97 18.8748 231.488 18.6338C230.926 18.3928 230.444 18.0716 229.962 17.67V23.3725H227.312ZM232.452 16.7062C233.255 16.7062 233.978 16.3046 234.46 15.662C235.022 14.7786 235.343 13.6541 235.263 12.61C235.343 11.6462 235.102 10.6823 234.62 9.87917C234.219 9.15631 233.496 8.75472 232.693 8.83504C231.649 8.91536 230.685 9.39726 230.042 10.2004V15.662C230.444 15.9833 230.846 16.3046 231.327 16.4652L232.452 16.7062Z" fill="white"/>
<path d="M243.616 18.9551C242.813 19.1157 242.01 18.7141 241.528 18.0716C241.046 17.3487 240.805 16.5455 240.885 15.6621V1.68677H243.696V15.8227C243.696 16.144 243.696 16.3849 243.857 16.5455L244.259 16.7062H244.741L245.062 18.7141C244.58 18.8748 244.098 18.9551 243.616 18.9551Z" fill="white"/>
<path d="M250.282 18.955C249.319 19.0353 248.435 18.6337 247.793 17.9912C247.15 17.3486 246.748 16.4651 246.829 15.5013C246.748 14.9391 246.909 14.2966 247.23 13.8147C247.552 13.3327 247.953 12.8508 248.435 12.5296C249.158 12.128 249.881 11.887 250.604 11.6461C251.648 11.4051 252.692 11.1642 253.736 11.0839C253.736 10.8429 253.736 10.5216 253.656 10.2807C253.576 9.9594 253.415 9.71845 253.254 9.4775C253.094 9.23654 252.853 9.07591 252.612 8.99559C252.29 8.83495 251.889 8.75464 251.568 8.83495C251.005 8.83495 250.443 8.91527 249.881 9.15622L248.275 9.9594L247.23 8.11209L249.479 6.98765C250.363 6.74669 251.246 6.58606 252.13 6.58606C253.335 6.50574 254.62 6.98765 255.423 7.87114C256.226 8.99559 256.628 10.2807 256.547 11.6461V18.714H254.218L254.057 17.429H253.977L252.29 18.5534C251.648 18.7944 251.005 18.955 250.282 18.955ZM251.166 16.7864C251.648 16.7864 252.13 16.7061 252.531 16.4651C252.933 16.2242 253.415 15.9029 253.736 15.5013V12.8508L251.728 13.2524C251.246 13.3327 250.845 13.5737 250.443 13.8147C250.122 13.895 249.881 14.1359 249.72 14.4572C249.56 14.6981 249.479 14.9391 249.479 15.2604C249.479 15.7423 249.64 16.1439 249.961 16.4651C250.363 16.7061 250.764 16.7864 251.166 16.7864Z" fill="white"/>
<path d="M264.82 18.9549C264.017 18.9549 263.294 18.8746 262.571 18.5533C261.848 18.3123 261.206 17.9107 260.724 17.3485C260.162 16.7863 259.76 16.1437 259.519 15.4209C259.278 14.5374 259.117 13.6539 259.117 12.7704C259.117 11.8869 259.278 11.0034 259.599 10.1199C259.921 9.39706 260.322 8.75452 260.884 8.19229C261.447 7.71039 262.089 7.22848 262.812 6.98753C263.535 6.66626 264.258 6.58594 265.061 6.58594C265.703 6.58594 266.426 6.66626 266.989 6.98753C267.551 7.22848 268.033 7.54975 268.515 7.87102L267.149 9.71833C266.828 9.47738 266.507 9.23642 266.185 9.07579C265.864 8.91515 265.543 8.83483 265.141 8.83483C264.258 8.83483 263.374 9.15611 262.812 9.87896C262.17 10.6821 261.848 11.7263 261.929 12.7704C261.848 13.8145 262.17 14.8587 262.812 15.6618C263.374 16.3847 264.177 16.706 265.061 16.706C265.543 16.706 266.025 16.6257 266.426 16.3847C266.828 16.2241 267.23 15.9831 267.551 15.6618L268.675 17.5091C268.113 17.9911 267.47 18.3926 266.828 18.6336C266.185 18.8746 265.543 18.9549 264.82 18.9549Z" fill="white"/>
<path d="M275.502 18.9551C274.699 18.9551 273.896 18.8748 273.173 18.5535C272.45 18.3125 271.888 17.9109 271.326 17.3487C270.844 16.7865 270.362 16.144 270.121 15.4211C269.8 14.5376 269.639 13.6541 269.639 12.7706C269.639 11.8871 269.8 11.0036 270.121 10.2004C270.442 9.47758 270.844 8.75472 271.326 8.1925C271.888 7.71059 272.45 7.309 273.093 6.98773C273.735 6.74678 274.378 6.58614 275.101 6.58614C275.823 6.50582 276.546 6.66646 277.189 6.98773C277.831 7.22868 278.313 7.63027 278.795 8.11218C279.197 8.59409 279.518 9.23663 279.679 9.87917C279.92 10.602 280 11.4052 280 12.2084V12.9312C279.92 13.0919 279.92 13.3328 279.92 13.4935H272.37C272.37 14.4573 272.771 15.3408 273.494 15.9833C274.137 16.5455 274.94 16.8668 275.823 16.8668C276.305 16.8668 276.787 16.7865 277.269 16.6259L278.635 15.9833L279.518 17.67C278.956 18.0716 278.313 18.3928 277.671 18.6338C276.948 18.8748 276.225 18.9551 275.502 18.9551ZM272.37 11.6462H277.59C277.671 10.843 277.43 10.1201 277.028 9.47758C276.546 8.91536 275.904 8.6744 275.181 8.6744C274.458 8.6744 273.816 8.99567 273.334 9.47758C272.771 10.0398 272.37 10.843 272.37 11.6462Z" fill="white"/>
<path d="M144.183 0H142.817V21.4448H144.183V0Z" fill="white"/>
</svg>
