<svg width="416" height="106" viewBox="0 0 416 106" fill="none" xmlns="http://www.w3.org/2000/svg">
<g clip-path="url(#clip0_101_0)">
<path d="M414.237 68.8873C409.198 96.3029 374.116 103.403 348.268 98.6517C322.42 93.9004 292.521 81.6795 297.561 54.2638C302.6 26.8482 358.078 0.813007 383.926 5.56426C409.774 10.3155 419.276 41.4716 414.237 68.8873Z" fill="#F6F6F6"/>
<path fill-rule="evenodd" clip-rule="evenodd" d="M407.891 55.9206L406.893 55.8571C406.964 54.7474 407 53.628 407 52.5C407 51.372 406.964 50.2526 406.893 49.1429L407.891 49.0793C407.963 50.2102 408 51.3508 408 52.5C408 53.6492 407.963 54.7898 407.891 55.9206ZM407.019 42.3008L406.038 42.4922C405.606 40.2762 405.033 38.1114 404.329 36.0076L405.277 35.6903C405.995 37.8351 406.579 40.0419 407.019 42.3008ZM402.691 29.364L401.792 29.8018C400.809 27.7822 399.698 25.8371 398.47 23.9772L399.305 23.4264C400.556 25.3223 401.689 27.3052 402.691 29.364ZM395.177 17.9776C393.684 16.2518 392.081 14.6255 390.379 13.1099L389.714 13.8568C391.384 15.3435 392.956 16.9388 394.421 18.6319L395.177 17.9776ZM384.988 8.90758L384.426 9.73483C382.581 8.48165 380.65 7.34713 378.645 6.34202L379.093 5.44804C381.138 6.47301 383.106 7.62986 384.988 8.90758ZM372.793 2.79793L372.467 3.74345C370.369 3.02106 368.21 2.4329 365.998 1.98911L366.195 1.00867C368.45 1.46129 370.653 2.06115 372.793 2.79793ZM359.421 0.111771L359.355 1.10963C358.246 1.03693 357.127 1 356 1C354.873 1 353.754 1.03693 352.645 1.10963L352.579 0.111772C353.71 0.037642 354.851 0 356 0C357.149 0 358.29 0.0376419 359.421 0.111771ZM345.805 1.00867L346.002 1.98911C343.79 2.4329 341.631 3.02106 339.533 3.74345L339.207 2.79792C341.347 2.06115 343.55 1.46129 345.805 1.00867ZM332.907 5.44803L333.355 6.34202C331.35 7.34713 329.419 8.48165 327.574 9.73483L327.012 8.90757C328.894 7.62986 330.862 6.47301 332.907 5.44803ZM321.621 13.1099L322.286 13.8568C320.616 15.3435 319.044 16.9388 317.579 18.6319L316.823 17.9776C318.316 16.2518 319.919 14.6255 321.621 13.1099ZM312.695 23.4264L313.53 23.9772C312.302 25.8371 311.191 27.7822 310.208 29.8018L309.309 29.364C310.311 27.3052 311.444 25.3223 312.695 23.4264ZM306.723 35.6903L307.671 36.0076C306.967 38.1114 306.394 40.2762 305.962 42.4922L304.981 42.3008C305.421 40.0419 306.005 37.8351 306.723 35.6903ZM304.109 49.0793C304.037 50.2102 304 51.3508 304 52.5C304 53.6492 304.037 54.7898 304.109 55.9207L305.107 55.8571C305.036 54.7474 305 53.628 305 52.5C305 51.372 305.036 50.2526 305.107 49.1429L304.109 49.0793ZM304.981 62.6992L305.962 62.5078C306.394 64.7238 306.967 66.8886 307.671 68.9924L306.723 69.3097C306.005 67.1649 305.421 64.9581 304.981 62.6992ZM309.309 75.636L310.208 75.1982C311.191 77.2178 312.302 79.1629 313.53 81.0228L312.695 81.5736C311.444 79.6777 310.311 77.6948 309.309 75.636ZM316.823 87.0224L317.579 86.3681C319.044 88.0612 320.616 89.6565 322.286 91.1432L321.621 91.8901C319.919 90.3745 318.316 88.7482 316.823 87.0224ZM327.012 96.0924L327.574 95.2652C329.419 96.5183 331.35 97.6529 333.355 98.658L332.907 99.552C330.862 98.527 328.894 97.3701 327.012 96.0924ZM339.207 102.202L339.533 101.257C341.631 101.979 343.79 102.567 346.002 103.011L345.805 103.991C343.55 103.539 341.347 102.939 339.207 102.202ZM352.579 104.888L352.645 103.89C353.754 103.963 354.873 104 356 104C357.127 104 358.246 103.963 359.355 103.89L359.421 104.888C358.29 104.962 357.149 105 356 105C354.851 105 353.71 104.962 352.579 104.888ZM366.195 103.991L365.998 103.011C368.21 102.567 370.369 101.979 372.467 101.257L372.793 102.202C370.653 102.939 368.45 103.539 366.195 103.991ZM379.093 99.552L378.645 98.658C380.65 97.6529 382.581 96.5183 384.426 95.2652L384.988 96.0924C383.106 97.3701 381.138 98.527 379.093 99.552ZM390.379 91.8901L389.714 91.1432C391.384 89.6565 392.956 88.0612 394.421 86.3681L395.177 87.0224C393.684 88.7482 392.081 90.3745 390.379 91.8901ZM399.305 81.5736L398.47 81.0228C399.698 79.1629 400.809 77.2178 401.792 75.1982L402.691 75.636C401.689 77.6948 400.556 79.6777 399.305 81.5736ZM405.277 69.3097L404.329 68.9924C405.033 66.8886 405.606 64.7238 406.038 62.5078L407.019 62.6992C406.579 64.9581 405.995 67.1649 405.277 69.3097Z" fill="#CCCCCC"/>
<path d="M362.962 68.2381C362.953 66.7316 362.94 64.6833 362.962 63.1768C362.986 61.4445 362.949 59.7343 361.72 58.3051C362.451 58.1646 363.101 58.0663 363.737 57.9095C367.949 56.8712 370.137 54.0198 370.416 49.2873C370.559 46.8784 370.159 44.6684 368.667 42.771C368.559 42.6375 368.553 42.3344 368.604 42.1401C369.001 40.5715 368.886 39.0393 368.423 37.5059C368.309 37.1232 368.119 37.0049 367.767 37.0295C366.53 37.1033 365.397 37.5691 364.398 38.2855C363.435 38.9796 362.538 39.1306 361.394 38.8497C358.875 38.2398 356.339 38.4178 353.825 39.0428C353.54 39.1154 353.158 39.0182 352.897 38.8544C351.717 38.1123 350.537 37.3912 349.176 37.1033C348.123 36.8832 348.031 36.9394 347.752 38.0315C347.401 39.408 347.366 40.7857 347.725 42.1705C347.776 42.3718 347.723 42.6949 347.597 42.8435C344.809 46.1831 345.819 52.4934 347.698 54.9106C349.159 56.7881 351.101 57.6332 353.256 58.0722C353.632 58.1471 354.006 58.2044 354.382 58.2747C354.059 59.176 353.769 60.0269 353.441 60.8639C353.377 61.0254 353.173 61.1612 353.006 61.2291C350.892 62.1093 349.075 61.462 347.866 59.4031C347.219 58.3051 346.389 57.4846 345.152 57.2469C345.113 57.2387 345.073 57.2165 345.037 57.2224C344.704 57.316 344.375 57.4143 344.043 57.5103C344.229 57.7889 344.361 58.1635 344.611 58.3308C345.659 59.0425 346.341 60.0574 346.791 61.2548C347.499 63.1324 348.873 63.9693 350.659 64.1332C351.53 64.2093 352.41 64.1449 353.365 64.1449C353.365 65.3107 353.311 66.913 353.256 68.2381C355.792 69.018 357.976 69 357.976 69C358.781 69 361.758 68.9231 362.962 68.2381ZM354.395 58.2302C354.389 58.2466 354.384 58.2583 354.378 58.2747C354.398 58.2782 354.417 58.2817 354.438 58.2852C354.453 58.2864 354.466 58.3156 354.395 58.2302Z" fill="#FF6F3D"/>
<path d="M263 48.5865C263 75.3047 225.978 99.0866 196.417 99.0866C166.856 99.0866 145 95.3047 145 68.5866C145 41.8684 149.46 7.97581 179.022 7.97581C218.273 2.3317 263 21.8684 263 48.5865Z" fill="#F6F6F6"/>
<path fill-rule="evenodd" clip-rule="evenodd" d="M255.891 55.9206L254.893 55.8571C254.964 54.7474 255 53.628 255 52.5C255 51.372 254.964 50.2526 254.893 49.1429L255.891 49.0793C255.963 50.2102 256 51.3508 256 52.5C256 53.6492 255.963 54.7898 255.891 55.9206ZM255.019 42.3008L254.038 42.4922C253.606 40.2762 253.033 38.1114 252.329 36.0076L253.277 35.6903C253.995 37.8351 254.579 40.0419 255.019 42.3008ZM250.691 29.364L249.792 29.8018C248.809 27.7822 247.698 25.8371 246.47 23.9772L247.305 23.4264C248.556 25.3223 249.689 27.3052 250.691 29.364ZM243.177 17.9776C241.684 16.2518 240.081 14.6255 238.379 13.1099L237.714 13.8568C239.384 15.3435 240.956 16.9388 242.421 18.6319L243.177 17.9776ZM232.988 8.90758L232.426 9.73483C230.581 8.48165 228.65 7.34713 226.645 6.34202L227.093 5.44804C229.138 6.47301 231.106 7.62986 232.988 8.90758ZM220.793 2.79793L220.467 3.74345C218.369 3.02106 216.21 2.4329 213.998 1.98911L214.195 1.00867C216.45 1.46129 218.653 2.06115 220.793 2.79793ZM207.421 0.111771L207.355 1.10963C206.246 1.03693 205.127 1 204 1C202.873 1 201.754 1.03693 200.645 1.10963L200.579 0.111772C201.71 0.037642 202.851 0 204 0C205.149 0 206.29 0.0376419 207.421 0.111771ZM193.805 1.00867L194.002 1.98911C191.79 2.4329 189.631 3.02106 187.533 3.74345L187.207 2.79792C189.347 2.06115 191.55 1.46129 193.805 1.00867ZM180.907 5.44803L181.355 6.34202C179.35 7.34713 177.419 8.48165 175.574 9.73483L175.012 8.90757C176.894 7.62986 178.862 6.47301 180.907 5.44803ZM169.621 13.1099L170.286 13.8568C168.616 15.3435 167.044 16.9388 165.579 18.6319L164.823 17.9776C166.316 16.2518 167.919 14.6255 169.621 13.1099ZM160.695 23.4264L161.53 23.9772C160.302 25.8371 159.191 27.7822 158.208 29.8018L157.309 29.364C158.311 27.3052 159.444 25.3223 160.695 23.4264ZM154.723 35.6903L155.671 36.0076C154.967 38.1114 154.394 40.2762 153.962 42.4922L152.981 42.3008C153.421 40.0419 154.005 37.8351 154.723 35.6903ZM152.109 49.0793C152.037 50.2102 152 51.3508 152 52.5C152 53.6492 152.037 54.7898 152.109 55.9207L153.107 55.8571C153.036 54.7474 153 53.628 153 52.5C153 51.372 153.036 50.2526 153.107 49.1429L152.109 49.0793ZM152.981 62.6992L153.962 62.5078C154.394 64.7238 154.967 66.8886 155.671 68.9924L154.723 69.3097C154.005 67.1649 153.421 64.9581 152.981 62.6992ZM157.309 75.636L158.208 75.1982C159.191 77.2178 160.302 79.1629 161.53 81.0228L160.695 81.5736C159.444 79.6777 158.311 77.6948 157.309 75.636ZM164.823 87.0224L165.579 86.3681C167.044 88.0612 168.616 89.6565 170.286 91.1432L169.621 91.8901C167.919 90.3745 166.316 88.7482 164.823 87.0224ZM175.012 96.0924L175.574 95.2652C177.419 96.5183 179.35 97.6529 181.355 98.658L180.907 99.552C178.862 98.527 176.894 97.3701 175.012 96.0924ZM187.207 102.202L187.533 101.257C189.631 101.979 191.79 102.567 194.002 103.011L193.805 103.991C191.55 103.539 189.347 102.939 187.207 102.202ZM200.579 104.888L200.645 103.89C201.754 103.963 202.873 104 204 104C205.127 104 206.246 103.963 207.355 103.89L207.421 104.888C206.29 104.962 205.149 105 204 105C202.851 105 201.71 104.962 200.579 104.888ZM214.195 103.991L213.998 103.011C216.21 102.567 218.369 101.979 220.467 101.257L220.793 102.202C218.653 102.939 216.45 103.539 214.195 103.991ZM227.093 99.552L226.645 98.658C228.65 97.6529 230.581 96.5183 232.426 95.2652L232.988 96.0924C231.106 97.3701 229.138 98.527 227.093 99.552ZM238.379 91.8901L237.714 91.1432C239.384 89.6565 240.956 88.0612 242.421 86.3681L243.177 87.0224C241.684 88.7482 240.081 90.3745 238.379 91.8901ZM247.305 81.5736L246.47 81.0228C247.698 79.1629 248.809 77.2178 249.792 75.1982L250.691 75.636C249.689 77.6948 248.556 79.6777 247.305 81.5736ZM253.277 69.3097L252.329 68.9924C253.033 66.8886 253.606 64.7238 254.038 62.5078L255.019 62.6992C254.579 64.9581 253.995 67.1649 253.277 69.3097Z" fill="#CCCCCC"/>
<path d="M218.904 49.9231H215.796C214.184 49.9231 213.377 47.9742 214.516 46.8351L216.714 44.6369C217.142 44.2092 217.142 43.5151 216.714 43.0874L213.913 40.2855C213.485 39.8578 212.791 39.8578 212.363 40.2855L210.165 42.4837C209.025 43.6228 207.077 42.816 207.077 41.2043V38.096C207.077 37.4905 206.586 37 205.981 37H202.018C201.414 37 200.923 37.4905 200.923 38.096V41.2049C200.923 42.8166 198.975 43.6234 197.835 42.4843L195.637 40.2855C195.209 39.8578 194.515 39.8578 194.087 40.2855L191.286 43.0874C190.858 43.5151 190.858 44.2092 191.286 44.6369L193.484 46.8351C194.623 47.9742 193.816 49.9231 192.204 49.9231H189.096C188.49 49.9231 188 50.4135 188 51.0191V54.9815C188 55.5865 188.49 56.0769 189.096 56.0769H192.204C193.816 56.0769 194.623 58.0258 193.484 59.1649L191.286 61.3631C190.858 61.7914 190.858 62.4849 191.286 62.9126L194.087 65.7145C194.515 66.1422 195.209 66.1422 195.637 65.7145L197.835 63.5163C198.975 62.3766 200.923 63.184 200.923 64.7957V67.904C200.923 68.5095 201.414 69 202.019 69H205.982C206.586 69 207.077 68.5095 207.077 67.904V64.7957C207.077 63.184 209.025 62.3766 210.165 63.5163L212.363 65.7145C212.791 66.1422 213.485 66.1422 213.913 65.7145L216.714 62.9126C217.142 62.4849 217.142 61.7908 216.714 61.3631L214.516 59.1649C213.377 58.0258 214.184 56.0769 215.796 56.0769H218.904C219.51 56.0769 220 55.5865 220 54.9809V51.0185C220 50.4135 219.51 49.9231 218.904 49.9231ZM204 57.9231C201.281 57.9231 199.077 55.7188 199.077 53C199.077 50.2812 201.281 48.0769 204 48.0769C206.719 48.0769 208.923 50.2812 208.923 53C208.923 55.7188 206.719 57.9231 204 57.9231Z" fill="#FF6F3D"/>
<path d="M111.5 37C111.5 63.7556 79.0963 102 45.927 102C12.7577 102 0 65.0349 0 38.2794C0 11.5238 27.8307 3 61 3C94.1693 3 111.5 10.2444 111.5 37Z" fill="#F6F6F6"/>
<path fill-rule="evenodd" clip-rule="evenodd" d="M107.89 56.4534L106.892 56.3898C106.964 55.2693 107 54.139 107 53C107 51.861 106.964 50.7307 106.892 49.6102L107.89 49.5466C107.963 50.6883 108 51.8398 108 53C108 54.1602 107.963 55.3117 107.89 56.4534ZM107.01 42.7032L106.028 42.8946C105.592 40.6571 105.013 38.4712 104.303 36.3468L105.251 36.0295C105.975 38.1948 106.565 40.4227 107.01 42.7032ZM102.64 29.6428L101.741 30.0807C100.748 28.0415 99.6258 26.0774 98.3862 24.1994L99.2208 23.6485C100.484 25.5626 101.628 27.5643 102.64 29.6428ZM95.0534 18.1479L94.2972 18.8023C92.818 17.0928 91.2298 15.482 89.5436 13.9809L90.2085 13.234C91.9271 14.764 93.5458 16.4057 95.0534 18.1479ZM84.7654 8.99179L84.2036 9.81908C82.3404 8.5538 80.3909 7.40832 78.366 6.3935L78.814 5.4995C80.8785 6.53417 82.866 7.70198 84.7654 8.99179ZM72.4538 2.82433L72.1283 3.76987C70.0096 3.04052 67.8289 2.4467 65.5961 1.99863L65.7928 1.01818C68.0696 1.47507 70.2934 2.0806 72.4538 2.82433ZM58.9533 0.112825L58.8879 1.11068C57.7681 1.03728 56.6384 1 55.5 1C54.3616 1 53.2319 1.03728 52.1121 1.11068L52.0467 0.112826C53.1883 0.037997 54.3397 0 55.5 0C56.6603 0 57.8117 0.0379968 58.9533 0.112825ZM45.2072 1.01818L45.4039 1.99864C43.1711 2.4467 40.9904 3.04052 38.8717 3.76987L38.5462 2.82433C40.7066 2.0806 42.9304 1.47507 45.2072 1.01818ZM32.186 5.49949C30.1215 6.53417 28.134 7.70197 26.2346 8.99179L26.7964 9.81907C28.6596 8.55379 30.6091 7.40831 32.634 6.3935L32.186 5.49949ZM20.7915 13.234L21.4564 13.9809C19.7702 15.482 18.182 17.0928 16.7028 18.8022L15.9466 18.1479C17.4542 16.4057 19.0729 14.764 20.7915 13.234ZM11.7792 23.6485L12.6138 24.1994C11.3742 26.0774 10.2524 28.0415 9.2591 30.0807L8.36009 29.6428C9.3725 27.5643 10.5158 25.5626 11.7792 23.6485ZM5.74902 36.0295L6.69734 36.3468C5.98658 38.4712 5.40804 40.6571 4.97165 42.8946L3.99014 42.7032C4.4349 40.4228 5.02455 38.1948 5.74902 36.0295ZM3.10966 49.5466C3.03693 50.6883 3 51.8398 3 53C3 54.1602 3.03693 55.3117 3.10966 56.4534L4.10764 56.3898C4.03625 55.2693 4 54.139 4 53C4 51.861 4.03625 50.7307 4.10764 49.6102L3.10966 49.5466ZM3.99014 63.2968L4.97165 63.1054C5.40804 65.3429 5.98658 67.5288 6.69735 69.6532L5.74902 69.9705C5.02456 67.8052 4.4349 65.5772 3.99014 63.2968ZM8.36009 76.3572L9.2591 75.9193C10.2524 77.9585 11.3742 79.9226 12.6138 81.8006L11.7792 82.3515C10.5158 80.4374 9.3725 78.4357 8.36009 76.3572ZM15.9466 87.8521C17.4542 89.5943 19.0729 91.236 20.7915 92.766L21.4564 92.0191C19.7702 90.518 18.182 88.9072 16.7028 87.1977L15.9466 87.8521ZM26.2346 97.0082L26.7964 96.1809C28.6596 97.4462 30.6091 98.5917 32.634 99.6065L32.186 100.501C30.1215 99.4658 28.134 98.298 26.2346 97.0082ZM38.5462 103.176L38.8717 102.23C40.9904 102.959 43.1711 103.553 45.4039 104.001L45.2072 104.982C42.9304 104.525 40.7066 103.919 38.5462 103.176ZM52.0467 105.887L52.1121 104.889C53.2319 104.963 54.3616 105 55.5 105C56.6384 105 57.7681 104.963 58.8879 104.889L58.9533 105.887C57.8117 105.962 56.6603 106 55.5 106C54.3397 106 53.1883 105.962 52.0467 105.887ZM65.7928 104.982L65.5961 104.001C67.8289 103.553 70.0097 102.959 72.1283 102.23L72.4538 103.176C70.2934 103.919 68.0696 104.525 65.7928 104.982ZM78.814 100.501L78.366 99.6065C80.3909 98.5917 82.3404 97.4462 84.2036 96.1809L84.7654 97.0082C82.866 98.298 80.8785 99.4658 78.814 100.501ZM90.2085 92.766C91.9271 91.236 93.5458 89.5943 95.0534 87.8521L94.2972 87.1977C92.818 88.9072 91.2298 90.518 89.5436 92.0191L90.2085 92.766ZM99.2208 82.3515L98.3862 81.8006C99.6258 79.9226 100.748 77.9585 101.741 75.9193L102.64 76.3572C101.628 78.4357 100.484 80.4374 99.2208 82.3515ZM105.251 69.9705L104.303 69.6532C105.013 67.5288 105.592 65.3429 106.028 63.1054L107.01 63.2968C106.565 65.5772 105.975 67.8052 105.251 69.9705Z" fill="#CCCCCC"/>
<path fill-rule="evenodd" clip-rule="evenodd" d="M55 69C63.8366 69 71 61.8366 71 53C71 44.1634 63.8366 37 55 37C46.1634 37 39 44.1634 39 53C39 61.8366 46.1634 69 55 69ZM62.8125 47.4577C63.1762 46.9067 62.9948 46.1835 62.4073 45.8425C61.8198 45.5014 61.0488 45.6715 60.6851 46.2225L53.5002 57.1079L49.2386 52.3891C48.8144 51.8776 48.0284 51.7855 47.483 52.1833C46.9376 52.5811 46.8394 53.3183 47.2636 53.8298L52.6296 59.8803C52.881 60.1835 53.2748 60.3521 53.6838 60.3316C54.0928 60.3111 54.4652 60.1041 54.6808 59.7775L62.8125 47.4577Z" fill="#FF6F3D"/>
</g>
<defs>
<clipPath id="clip0_101_0">
<rect width="415.537" height="106" fill="white"/>
</clipPath>
</defs>
</svg>
