<svg width="204" height="60" viewBox="0 0 204 60" fill="none" xmlns="http://www.w3.org/2000/svg">
<path d="M43.8239 20.868H46.3478V33.6788C46.3478 37.0727 44.8628 39.4149 41.3829 39.4149C40.3538 39.4304 39.3297 39.2687 38.3555 38.9369V36.4831C39.1865 36.8052 40.071 36.9673 40.9622 36.9611C43.0942 36.9611 43.8303 35.6864 43.8303 33.8477L43.8239 20.868Z" fill="#253858"/>
<path d="M50.9464 19.8836C51.3626 19.8537 51.7736 19.9904 52.0891 20.2635C52.4046 20.5366 52.5988 20.9237 52.629 21.3399C52.6354 21.4152 52.6354 21.4909 52.629 21.5662C52.629 22.0124 52.4517 22.4404 52.1362 22.7559C51.8206 23.0715 51.3927 23.2488 50.9464 23.2488C50.5001 23.2488 50.0722 23.0715 49.7566 22.7559C49.4411 22.4404 49.2638 22.0124 49.2638 21.5662C49.234 21.15 49.3706 20.7389 49.6437 20.4234C49.9168 20.1079 50.304 19.9137 50.7201 19.8836C50.7954 19.8772 50.8711 19.8772 50.9464 19.8836ZM49.7131 25.2692H52.1255V39.2909H49.7131V25.2692Z" fill="#253858"/>
<path d="M55.7666 25.2657H58.1216V27.7322C58.9342 26.0783 60.3523 24.8992 63.0866 25.0681V27.4231C60.0018 27.1044 58.1216 28.0413 58.1216 31.0114V39.2969H55.7666V25.2657Z" fill="#253858"/>
<path d="M74.3884 36.7636C73.4897 38.6151 71.8071 39.5679 69.6497 39.5679C65.9212 39.5679 64.041 36.4003 64.041 32.2766C64.041 28.3219 66.0041 24.9854 69.9301 24.9854C71.976 24.9854 73.5471 25.9095 74.3916 27.7323V25.2658H76.804V39.2875H74.3916L74.3884 36.7636ZM70.2934 37.3244C72.454 37.3244 74.3884 35.951 74.3884 32.8375V31.703C74.3884 28.5896 72.6229 27.2161 70.5643 27.2161C67.8428 27.2161 66.4406 29.0102 66.4406 32.2639C66.4406 35.6418 67.7982 37.3244 70.2966 37.3244H70.2934Z" fill="#253858"/>
<path d="M91.0733 39.5679C87.5106 39.5679 85.8566 38.8669 84.4258 38.1371V35.559C86.1371 36.4577 88.7725 37.1014 91.2104 37.1014C93.986 37.1014 95.0345 36.0083 95.0345 34.3799C95.0345 32.7515 94.0243 31.8847 90.5188 31.0434C86.3761 30.0332 84.5182 28.6023 84.5182 25.5749C84.5182 22.7068 86.7043 20.5845 90.9969 20.5845C93.661 20.5845 95.3723 21.2218 96.6342 21.9293V24.4532C94.8795 23.4875 92.9004 23.0037 90.8981 23.051C88.4857 23.051 87.0549 23.8923 87.0549 25.5749C87.0549 27.0886 88.2339 27.8471 91.4844 28.6597C95.3818 29.6412 97.5711 30.8904 97.5711 34.211C97.552 37.4073 95.6463 39.5679 91.0733 39.5679Z" fill="#253858"/>
<path d="M99.6846 32.248C99.6846 28.0414 102.151 24.9854 106.358 24.9854C110.564 24.9854 112.977 28.0414 112.977 32.248C112.977 36.4545 110.535 39.5775 106.358 39.5775C102.18 39.5775 99.6846 36.4545 99.6846 32.248ZM102.04 32.248C102.04 34.9121 103.359 37.3244 106.358 37.3244C109.356 37.3244 110.622 34.9121 110.622 32.248C110.622 29.5838 109.331 27.2416 106.358 27.2416C103.384 27.2416 102.052 29.5838 102.052 32.248H102.04Z" fill="#253858"/>
<path d="M119.117 25.2659H122.734V27.4967H119.117V39.2876H116.762V27.4967H114.48V25.2659H116.753V23.7363C116.753 21.1295 118.212 19.3609 121.214 19.3609C121.764 19.3585 122.311 19.4336 122.839 19.584V21.8147C122.341 21.7188 121.834 21.6718 121.326 21.6745C119.841 21.6745 119.095 22.5445 119.095 23.8064L119.117 25.2659Z" fill="#253858"/>
<path d="M130.896 36.9323C131.406 36.916 131.913 36.8498 132.409 36.7347V39.061C131.881 39.2114 131.334 39.2865 130.784 39.2841C127.782 39.2841 126.323 37.5187 126.323 34.9087V27.5091H124.041V25.2783H126.313V22.2924H128.668V25.2656H132.397V27.4963H128.668V34.8577C128.681 36.091 129.411 36.9323 130.896 36.9323Z" fill="#253858"/>
<path d="M133.085 25.2659H135.749L139.787 37.1556L143.878 25.2659H146.179L150.274 37.1556L154.315 25.2659H156.979L151.82 39.2876H148.735L146.323 32.503L145.048 28.1849L143.773 32.503L141.329 39.2876H138.244L133.085 25.2659Z" fill="#253858"/>
<path d="M167.995 36.7636C167.096 38.6151 165.414 39.5679 163.256 39.5679C159.528 39.5679 157.647 36.4003 157.647 32.2766C157.647 28.3219 159.611 24.9854 163.537 24.9854C165.582 24.9854 167.154 25.9095 167.998 27.7323V25.2658H170.41V39.2875H167.998L167.995 36.7636ZM163.9 37.3244C166.06 37.3244 167.995 35.951 167.995 32.8375V31.703C167.995 28.5896 166.229 27.2161 164.171 27.2161C161.462 27.2416 160.05 29.023 160.05 32.2766C160.05 35.6418 161.405 37.3244 163.903 37.3244H163.9Z" fill="#253858"/>
<path d="M174.054 25.2657H176.409V27.7322C177.221 26.0783 178.639 24.8992 181.374 25.0681V27.4231C178.289 27.1044 176.409 28.0413 176.409 31.0114V39.2969H174.054V25.2657Z" fill="#253858"/>
<path d="M189.869 39.5681C184.624 39.5681 182.326 36.5407 182.326 32.2386C182.326 28.0034 184.681 24.976 188.945 24.976C193.263 24.976 195 27.9779 195 32.2386V33.3316H184.767C185.105 35.7153 186.647 37.2577 189.955 37.2577C191.41 37.2568 192.853 37 194.219 36.4992V38.73C193.069 39.3514 191.3 39.5681 189.869 39.5681ZM184.739 31.2825H192.556C192.415 28.6758 191.236 27.1876 188.827 27.1876C186.278 27.1876 185.003 28.8351 184.739 31.2666V31.2825Z" fill="#253858"/>
<path d="M32.7126 29.3284L22.035 19.0011L21 18L12.9623 25.774L9.28737 29.3284C9.10336 29.5066 9 29.7482 9 30C9 30.2518 9.10336 30.4934 9.28737 30.6716L16.6307 37.774L21 42L29.0377 34.226L29.1622 34.1056L32.7126 30.6716C32.8966 30.4934 33 30.2518 33 30C33 29.7482 32.8966 29.5066 32.7126 29.3284ZM21 33.548L17.3316 30L21 26.452L24.6684 30L21 33.548Z" fill="#2684FF"/>
<path d="M21.0004 26.4518C19.8466 25.3357 19.1963 23.8235 19.1914 22.2453C19.1865 20.667 19.8274 19.1511 20.9742 18.0283L12.9463 25.7897L17.3156 30.0156L21.0004 26.4518Z" fill="url(#paint0_linear)"/>
<path d="M24.6782 29.9907L21 33.5483C22.1583 34.6687 22.809 36.1883 22.809 37.7727C22.809 39.3571 22.1583 40.8766 21 41.9971L29.0475 34.2167L24.6782 29.9907Z" fill="url(#paint1_linear)"/>
<defs>
<linearGradient id="paint0_linear" x1="20.342" y1="22.8625" x2="15.3902" y2="27.9823" gradientUnits="userSpaceOnUse">
<stop offset="0.18" stop-color="#0052CC"/>
<stop offset="1" stop-color="#2684FF"/>
</linearGradient>
<linearGradient id="paint1_linear" x1="333.083" y1="217.41" x2="506.442" y2="333.608" gradientUnits="userSpaceOnUse">
<stop offset="0.18" stop-color="#0052CC"/>
<stop offset="1" stop-color="#2684FF"/>
</linearGradient>
</defs>
</svg>
