<svg width="163" height="30" viewBox="0 0 163 30" fill="none" xmlns="http://www.w3.org/2000/svg">
<path fill-rule="evenodd" clip-rule="evenodd" d="M0 0.000244141H7.55042H7.55151H22.6534L30.205 7.5001V29.9997H22.6534V7.5001L7.55151 7.5001V29.9997H0V0.000244141Z" fill="#0067FF"/>
<path fill-rule="evenodd" clip-rule="evenodd" d="M55.5265 29.9995H40.4235L32.872 22.4997V0.000101089H40.4235V22.4997L55.5265 22.4997L55.5265 29.9995ZM63.0781 29.9994H55.5266V-5.72205e-06H63.0781V29.9994Z" fill="#0067FF"/>
<path fill-rule="evenodd" clip-rule="evenodd" d="M132.002 22.4996L139.502 29.9994H154.502V29.9994H162.002V7.49988L154.502 2.09808e-05H139.502V0H132.002V22.4996ZM154.502 7.49988L139.502 7.49987L139.502 22.4996H154.502V7.49988Z" fill="#0067FF"/>
<path fill-rule="evenodd" clip-rule="evenodd" d="M106.397 7.5001V11.4709H129.01V18.5296H106.397V22.4994H129.01V29.9993H106.397V29.9997L99.0059 29.9997L99.0059 0.000244141H99.0087H106.397H129.008V7.5001H106.397Z" fill="#0067FF"/>
<path fill-rule="evenodd" clip-rule="evenodd" d="M96.2024 0.000732422V6.17709L87.3143 15.0045L96.1944 23.8238V30.0002H89.9755L81.0954 21.1808L72.2153 30.0002L65.9964 30.0002L65.9964 23.8238L74.8765 15.0045L65.9883 6.1771L65.9883 0.000745773H72.2072L81.0954 8.82812L89.9835 0.000732422H96.2024Z" fill="#1F4CBF"/>
</svg>
