<svg width="107" height="29" viewBox="0 0 107 29" fill="none" xmlns="http://www.w3.org/2000/svg">
<path d="M44.7117 16.4372H40.2026V24.2307H37.1988V4.41528H44.7117C48.5776 4.41528 51.0545 6.97431 51.0545 10.4228C51.0545 13.8714 48.5776 16.4372 44.7117 16.4372ZM44.5406 7.118H40.1957V13.714H44.5406C46.6275 13.714 48.0439 12.5166 48.0439 10.4297C48.0507 8.34278 46.6275 7.118 44.5406 7.118Z" fill="#006C9D"/>
<path d="M57.4668 24.2307C54.7983 24.2307 53.6009 22.4243 53.6009 20.3374V4.41528H56.4405V20.1663C56.4405 21.2542 56.8305 21.8085 57.9731 21.8085H59.2253V24.2307H57.4668Z" fill="#006C9D"/>
<path d="M71.6916 22.7258C70.7747 23.67 69.3789 24.3953 67.463 24.3953C65.5403 24.3953 64.1787 23.67 63.2618 22.7258C61.9276 21.3368 61.5923 19.5509 61.5923 17.163C61.5923 14.7955 61.9276 13.0165 63.2618 11.6275C64.1787 10.6833 65.5472 9.95801 67.463 9.95801C69.3857 9.95801 70.7747 10.6833 71.6916 11.6275C73.0258 13.0165 73.3611 14.8024 73.3611 17.163C73.3611 19.5578 73.0258 21.3368 71.6916 22.7258ZM69.5499 13.2971C69.0231 12.7702 68.2978 12.4897 67.463 12.4897C66.6283 12.4897 65.9304 12.7702 65.4035 13.2971C64.5414 14.1592 64.4319 15.6371 64.4319 17.163C64.4319 18.6888 64.5414 20.1668 65.4035 21.0289C65.9304 21.5557 66.6283 21.8636 67.463 21.8636C68.2978 21.8636 69.0231 21.5557 69.5499 21.0289C70.4121 20.1668 70.5215 18.6888 70.5215 17.163C70.5215 15.6371 70.4121 14.1592 69.5499 13.2971Z" fill="#006C9D"/>
<path d="M84.6099 24.2306V15.6298C84.6099 13.4334 83.3577 12.4823 81.7703 12.4823C80.1829 12.4823 78.8487 13.454 78.8487 15.6298V24.2306H76.0091V10.1217H78.7939V11.5381C79.7724 10.4775 81.134 9.95068 82.5504 9.95068C83.9941 9.95068 85.1915 10.4228 86.0263 11.2302C87.1142 12.2839 87.4426 13.625 87.4426 15.2056V24.2238L84.6099 24.2306Z" fill="#006C9D"/>
<path d="M92.9105 17.9977C92.9105 20.4199 94.19 21.9458 96.5027 21.9458C98.0901 21.9458 98.9249 21.501 99.9238 20.502L101.73 22.1989C100.28 23.6427 98.918 24.3953 96.4411 24.3953C92.9036 24.3953 90.0983 22.5342 90.0983 17.163C90.0983 12.5991 92.4657 9.95801 96.0785 9.95801C99.8623 9.95801 102.059 12.7428 102.059 16.7456V17.9977C102.065 17.9977 92.9105 17.9977 92.9105 17.9977ZM98.8701 14.1045C98.4254 13.0439 97.4264 12.3255 96.0853 12.3255C94.751 12.3255 93.7179 13.0507 93.2731 14.1045C92.9926 14.7476 92.9378 15.165 92.9105 16.0271H99.2533C99.2259 15.1582 99.1438 14.7408 98.8701 14.1045Z" fill="#006C9D"/>
<path d="M12.2046 11.4497C13.8673 11.4497 15.2152 10.1018 15.2152 8.43909C15.2152 6.77637 13.8673 5.42847 12.2046 5.42847C10.5419 5.42847 9.194 6.77637 9.194 8.43909C9.194 10.1018 10.5419 11.4497 12.2046 11.4497Z" fill="#006C9D"/>
<path d="M21.3382 14.4599C21.3382 16.1226 19.9902 17.4705 18.3275 17.4705C16.6649 17.4705 15.3169 16.1226 15.3169 14.4599C15.3169 12.7972 16.6717 11.4492 18.3275 11.4492C19.9902 11.4424 21.3382 12.7903 21.3382 14.4599Z" fill="#006C9D"/>
<path d="M12.1914 23.5056C13.8541 23.5056 15.202 22.1577 15.202 20.495C15.202 18.8323 13.8541 17.4844 12.1914 17.4844C10.5287 17.4844 9.18079 18.8323 9.18079 20.495C9.18079 22.1577 10.5287 23.5056 12.1914 23.5056Z" fill="#006C9D"/>
<path d="M13.9972 0.528809C6.31328 0.528809 0.0799255 6.76216 0.0799255 14.4461C0.0799255 22.13 6.31328 28.3634 13.9972 28.3634C21.6811 28.3634 27.9145 22.13 27.9145 14.4461C27.9145 6.76216 21.688 0.528809 13.9972 0.528809ZM21.8317 22.2806C19.82 24.2854 17.0626 25.5238 13.9972 25.5238C10.9318 25.5238 8.17439 24.2854 6.16275 22.2806C4.15795 20.2689 2.91949 17.5115 2.91949 14.4461C2.91949 11.3807 4.15795 8.62328 6.16275 6.61163C8.17439 4.60683 10.9318 3.36837 13.9972 3.36837C17.0626 3.36837 19.82 4.60683 21.8317 6.61163C23.8365 8.62328 25.0749 11.3807 25.0749 14.4461C25.0749 17.5115 23.8433 20.2689 21.8317 22.2806Z" fill="#006C9D"/>
<path d="M105.377 7.36475C104.556 7.36475 103.899 8.02845 103.899 8.84953C103.899 9.67061 104.563 10.3343 105.377 10.3343C106.198 10.3343 106.862 9.67061 106.862 8.84953C106.862 8.02845 106.198 7.36475 105.377 7.36475ZM105.377 10.1154C104.679 10.1154 104.111 9.54745 104.111 8.84953C104.111 8.15161 104.672 7.5837 105.377 7.5837C106.075 7.5837 106.643 8.15161 106.643 8.84953C106.643 9.55429 106.075 10.1154 105.377 10.1154Z" fill="#006C9D"/>
<path d="M105.732 9.7321L105.363 8.99313H105.028V9.7321H104.761V7.98047H105.438C105.767 7.98047 105.986 8.19258 105.986 8.49364C105.986 8.74681 105.835 8.90418 105.637 8.95892L106.04 9.73894L105.732 9.7321ZM105.425 8.21995H105.034V8.76734H105.425C105.602 8.76734 105.726 8.6647 105.726 8.49364C105.726 8.32258 105.602 8.21995 105.425 8.21995Z" fill="#006C9D"/>
</svg>
