<svg width="48" height="48" viewBox="0 0 48 48" fill="none" xmlns="http://www.w3.org/2000/svg">
<circle cx="24" cy="24" r="23.5" fill="url(#paint0_linear_462_3436)" stroke="#333333"/>
<path d="M21.176 28.596C20.9893 27.98 20.896 27.476 20.896 27.084C20.896 26.692 20.9707 26.2813 21.12 25.852C21.2693 25.4227 21.624 24.928 22.184 24.368C22.7627 23.7893 23.3507 23.304 23.948 22.912C24.564 22.52 25.1053 22.0347 25.572 21.456C26.0387 20.8773 26.272 20.2613 26.272 19.608C26.272 18.208 25.32 17.508 23.416 17.508C22.632 17.508 21.8853 17.6573 21.176 17.956C21.12 18.9267 20.9427 19.7013 20.644 20.28H17.984C17.7413 19.7947 17.5547 19.1787 17.424 18.432C17.2933 17.6667 17.228 17.1253 17.228 16.808C17.228 16.4907 17.228 16.276 17.228 16.164C18.0307 15.6227 19.0107 15.2027 20.168 14.904C21.344 14.6053 22.4733 14.456 23.556 14.456C25.628 14.456 27.3267 14.932 28.652 15.884C29.9773 16.8173 30.64 18.1613 30.64 19.916C30.64 20.6813 30.472 21.3907 30.136 22.044C29.8187 22.6787 29.4173 23.2013 28.932 23.612C28.4653 24.004 27.952 24.4053 27.392 24.816C26.8507 25.2267 26.3467 25.6 25.88 25.936C24.8907 26.608 24.396 27.4107 24.396 28.344C24.396 28.4187 24.4053 28.5027 24.424 28.596H21.176ZM22.716 34.224C21.1667 34.224 20.392 33.524 20.392 32.124C20.392 30.7053 21.1667 29.996 22.716 29.996C24.284 29.996 25.068 30.7053 25.068 32.124C25.068 33.524 24.284 34.224 22.716 34.224Z" fill="white"/>
<defs>
<linearGradient id="paint0_linear_462_3436" x1="9.24149e-05" y1="-1.875" x2="48.0001" y2="48" gradientUnits="userSpaceOnUse">
<stop stop-color="#FF8E3D"/>
<stop offset="1" stop-color="#FF6F3D"/>
</linearGradient>
</defs>
</svg>
