<svg width="448" height="254" viewBox="0 0 448 254" fill="none" xmlns="http://www.w3.org/2000/svg">
<path d="M391.395 19.6011H315.604V70.3988H391.395V19.6011Z" fill="white"/>
<path d="M391.5 70.5H315.5V19.5H391.5V70.5Z" stroke="#CCCCCC"/>
<path d="M381 30H365V31H381V30Z" fill="#CCCCCC"/>
<path d="M381 37H365V38H381V37Z" fill="#CCCCCC"/>
<path d="M381 44H365V45H381V44Z" fill="#CCCCCC"/>
<path d="M381 51H365V52H381V51Z" fill="#CCCCCC"/>
<path d="M381 58H365V59H381V58Z" fill="#CCCCCC"/>
<path d="M355 30H324V60H355V30Z" fill="white"/>
<path d="M355.5 60.5H324.5V29.5H355.5V60.5Z" stroke="#CCCCCC"/>
<path d="M324.429 53.5815L331.54 46.6413L336.321 51.3678L347.111 40.8379L355.57 49.0943" fill="white"/>
<path d="M324.858 54L324 53.1624L331.54 45.8034L336.322 50.4701L347.111 40L356 48.6752L355.142 49.5128L347.111 41.6752L336.322 52.2051L331.54 47.5385L324.858 54Z" fill="#CCCCCC"/>
<path d="M334.499 40.377C336.087 40.377 337.374 39.0894 337.374 37.501C337.374 35.9126 336.087 34.625 334.499 34.625C332.911 34.625 331.624 35.9126 331.624 37.501C331.624 39.0894 332.911 40.377 334.499 40.377Z" fill="white"/>
<path d="M334.5 41.0025C332.562 41.0025 331 39.4394 331 37.5012C331 35.5631 332.562 34 334.5 34C336.437 34 338 35.5631 338 37.5012C338 39.4394 336.437 41.0025 334.5 41.0025ZM334.5 35.313C333.25 35.313 332.25 36.3133 332.25 37.5638C332.25 38.8142 333.25 39.8146 334.5 39.8146C335.75 39.8146 336.75 38.8142 336.75 37.5638C336.75 36.3133 335.75 35.313 334.5 35.313Z" fill="#CCCCCC"/>
<path d="M365 227H357.154L357 226H364V170H323V178L322 177.772V169H365V227Z" fill="#CCCCCC"/>
<path d="M357.073 235.597H314.763V177.85H345.028L357.073 189.835V235.597Z" fill="white"/>
<path d="M357.5 235.5H314.5V177.5H345.189L357.5 189.796V235.5Z" stroke="#CCCCCC"/>
<path d="M345.354 177.646C345.211 177.503 344.995 177.461 344.809 177.538C344.622 177.615 344.5 177.798 344.5 178V190C344.5 190.276 344.724 190.5 345 190.5H357C357.202 190.5 357.385 190.378 357.462 190.191C357.539 190.005 357.497 189.789 357.354 189.646L345.354 177.646Z" fill="white" stroke="#CCCCCC" stroke-linejoin="round"/>
<path d="M336.925 192H322V193H336.925V192Z" fill="#CCCCCC"/>
<path d="M349 199H322V200H349V199Z" fill="#CCCCCC"/>
<path d="M349 206H322V207H349V206Z" fill="#CCCCCC"/>
<path d="M349 213H322V214H349V213Z" fill="#CCCCCC"/>
<path d="M349 220H322V221H349V220Z" fill="#CCCCCC"/>
<path d="M442.177 100.785C442.177 100.065 441.696 99.4245 441.056 99.1044L412.881 85.0203C412.321 84.7003 411.681 84.7003 411.12 85.0203L382.865 99.1044C382.225 99.4245 381.825 100.065 381.745 100.785C381.745 101.185 381.265 110.948 384.626 122.311C386.627 129.033 389.509 134.875 393.271 139.756C397.993 145.838 404.077 150.399 411.28 153.12C411.521 153.2 411.761 153.28 412.001 153.28C412.241 153.28 412.481 153.2 412.721 153.12C419.925 150.399 426.008 145.838 430.731 139.756C434.493 134.875 437.374 129.033 439.375 122.311C442.657 110.948 442.177 101.185 442.177 100.785ZM432.972 121.031C429.29 133.434 422.246 141.757 411.921 145.918C401.595 141.757 394.552 133.434 390.87 121.031C388.629 113.428 388.388 106.466 388.388 103.906L411.841 92.1424L435.293 103.906C435.453 106.466 435.293 113.428 432.972 121.031Z" fill="white"/>
<path d="M412 154C411.68 154 411.36 153.92 411.039 153.84C403.676 151.039 397.512 146.478 392.63 140.236C388.788 135.275 385.906 129.353 383.905 122.551C380.543 111.108 381.024 101.185 381.024 100.785C381.104 99.7445 381.664 98.8642 382.545 98.3841L410.719 84.3001C411.52 83.9 412.48 83.9 413.201 84.3001L441.455 98.3841C442.336 98.8642 442.976 99.7445 442.976 100.785C442.976 101.185 443.457 111.108 440.095 122.551C438.094 129.353 435.132 135.275 431.37 140.236C426.568 146.478 420.404 151.039 412.961 153.84C412.64 153.92 412.32 154 412 154ZM412 85.5805C411.84 85.5805 411.6 85.6605 411.44 85.7405L383.265 99.8245C382.865 99.9846 382.625 100.385 382.625 100.865C382.625 101.265 382.144 110.948 385.426 122.151C387.347 128.793 390.229 134.554 393.91 139.276C398.553 145.278 404.476 149.679 411.6 152.4C411.84 152.48 412.16 152.48 412.48 152.4C419.604 149.679 425.527 145.278 430.17 139.276C433.851 134.474 436.733 128.713 438.654 122.151C441.936 110.948 441.455 101.345 441.455 100.865C441.455 100.465 441.215 100.065 440.815 99.8245L412.56 85.7405C412.32 85.6605 412.16 85.5805 412 85.5805ZM412 146.798L411.68 146.638C401.194 142.397 393.91 133.914 390.229 121.271C387.987 113.588 387.747 106.546 387.747 103.906V103.426L412 91.2621L436.253 103.426V103.906C436.253 106.546 436.013 113.588 433.771 121.271C430.009 133.914 422.806 142.397 412.32 146.638L412 146.798ZM389.348 104.386C389.348 107.267 389.668 113.748 391.749 120.791C395.271 132.794 402.075 140.956 412 145.037C421.845 140.956 428.649 132.794 432.251 120.791C434.332 113.668 434.652 107.267 434.652 104.386L412 93.0226L389.348 104.386Z" fill="#CCCCCC"/>
<path d="M409.919 125.272C409.679 125.272 409.519 125.192 409.359 125.032L402.155 117.83C401.835 117.51 401.835 117.029 402.155 116.709C402.475 116.389 402.955 116.389 403.276 116.709L409.919 123.351L424.247 109.027C424.567 108.707 425.047 108.707 425.367 109.027C425.687 109.347 425.687 109.827 425.367 110.147L410.479 125.032C410.319 125.192 410.079 125.272 409.919 125.272Z" fill="#CCCCCC"/>
<rect x="0.5" y="0.5" width="287" height="253" rx="3.5" fill="white"/>
<rect x="0.5" y="0.5" width="287" height="253" rx="3.5" stroke="#333333"/>
<path d="M4 254C1.79086 254 0 252.209 0 250L0 4C0 1.79086 1.79086 0 4 0H57L57 254H4Z" fill="#1E1E1E"/>
<path d="M14.1321 30.9996C14.1321 36.093 17.092 40.4947 21.3841 42.5806L15.2461 25.7627C14.5322 27.363 14.1321 29.1341 14.1321 30.9996Z" fill="white"/>
<path d="M35.6862 30.3504C35.6862 28.7601 35.115 27.6588 34.6251 26.8016C33.9728 25.7416 33.3614 24.844 33.3614 23.784C33.3614 22.6011 34.2585 21.5 35.5222 21.5C35.5792 21.5 35.6333 21.5071 35.6889 21.5103C33.3996 19.4129 30.3496 18.1323 26.9996 18.1323C22.5043 18.1323 18.5493 20.4388 16.2485 23.9324C16.5504 23.9414 16.8349 23.9478 17.0766 23.9478C18.4225 23.9478 20.5059 23.7845 20.5059 23.7845C21.1995 23.7436 21.2813 24.7624 20.5884 24.8445C20.5884 24.8445 19.8913 24.9265 19.1157 24.9671L23.8015 38.9053L26.6174 30.4596L24.6127 24.9666C23.9197 24.926 23.2633 24.844 23.2633 24.844C22.5699 24.8033 22.6512 23.7431 23.3446 23.784C23.3446 23.784 25.4696 23.9473 26.734 23.9473C28.0796 23.9473 30.1633 23.784 30.1633 23.784C30.8574 23.7431 30.9389 24.7619 30.2458 24.844C30.2458 24.844 29.5472 24.926 28.773 24.9666L33.4231 38.7993L34.7066 34.5102C35.2629 32.7304 35.6862 31.452 35.6862 30.3504Z" fill="white"/>
<path d="M27.2254 32.125L23.3647 43.3439C24.5175 43.6827 25.7366 43.8681 26.9997 43.8681C28.4981 43.8681 29.9351 43.609 31.2727 43.1387C31.2382 43.0836 31.2069 43.0251 31.1811 42.9614L27.2254 32.125Z" fill="white"/>
<path d="M38.2902 24.8262C38.3456 25.2361 38.3769 25.6761 38.3769 26.1494C38.3769 27.4551 38.133 28.923 37.3985 30.7584L33.468 42.1228C37.2935 39.8919 39.8665 35.7473 39.8665 31.0001C39.8668 28.7629 39.2953 26.6591 38.2902 24.8262Z" fill="white"/>
<path d="M26.9996 16C18.729 16 12 22.7288 12 30.9996C12 39.2715 18.729 46 26.9996 46C35.27 46 42 39.2715 42 30.9996C41.9998 22.7288 35.27 16 26.9996 16ZM26.9996 45.3125C19.1083 45.3125 12.6878 38.8917 12.6878 30.9996C12.6878 23.1081 19.1081 16.6878 26.9996 16.6878C34.8907 16.6878 41.3108 23.1081 41.3108 30.9996C41.3108 38.8917 34.8907 45.3125 26.9996 45.3125Z" fill="white"/>
<rect width="57" height="48.2857" transform="translate(0 60)" fill="#3858E9"/>
<path opacity="0.5" fill-rule="evenodd" clip-rule="evenodd" d="M26.6665 97.9393L14.2907 92.116C13.2364 91.6076 13.2364 90.8219 14.2907 90.3597L18.5993 88.3262L26.6207 92.116C27.6749 92.6244 29.3709 92.6244 30.3793 92.116L38.4007 88.3262L42.7093 90.3597C43.7636 90.8681 43.7636 91.6538 42.7093 92.116L30.3335 97.9393C29.3709 98.4015 27.6749 98.4015 26.6665 97.9393Z" fill="white"/>
<path opacity="0.75" fill-rule="evenodd" clip-rule="evenodd" d="M26.6264 90.7328L14.2883 84.9027C13.2372 84.3937 13.2372 83.6071 14.2883 83.1444L18.4924 81.1548L26.6264 84.9952C27.6775 85.5042 29.3682 85.5042 30.3736 84.9952L38.5076 81.1548L42.7117 83.1444C43.7628 83.6534 43.7628 84.44 42.7117 84.9027L30.3736 90.7328C29.3225 91.2418 27.6318 91.2418 26.6264 90.7328Z" fill="white"/>
<path fill-rule="evenodd" clip-rule="evenodd" d="M26.6264 83.6016L14.2883 77.8554C13.2372 77.3538 13.2372 76.5785 14.2883 76.1224L26.6264 70.3762C27.6775 69.8746 29.3682 69.8746 30.3736 70.3762L42.7117 76.1224C43.7628 76.6241 43.7628 77.3994 42.7117 77.8554L30.3736 83.6016C29.3225 84.0577 27.6318 84.0577 26.6264 83.6016Z" fill="white"/>
<g filter="url(#filter0_d_7089_261375)">
<rect x="79" y="147" width="107" height="44" rx="4" fill="white"/>
<rect x="78.5" y="146.5" width="108" height="45" rx="4.5" stroke="#AAAAAA"/>
<rect width="107" height="28" transform="translate(79 155)" fill="#F3F0EE"/>
<path d="M105.186 168.989C105.186 169.759 105.088 170.461 104.892 171.095C104.7 171.724 104.411 172.266 104.023 172.722C103.636 173.173 103.151 173.521 102.567 173.768C101.984 174.014 101.3 174.137 100.517 174.137C99.7191 174.137 99.0264 174.014 98.4385 173.768C97.8551 173.521 97.3698 173.171 96.9824 172.715C96.5996 172.259 96.3125 171.715 96.1211 171.081C95.9297 170.448 95.834 169.746 95.834 168.976C95.834 167.946 96.0026 167.048 96.3398 166.282C96.6816 165.512 97.1989 164.915 97.8916 164.491C98.5889 164.063 99.4684 163.849 100.53 163.849C101.569 163.849 102.433 164.061 103.121 164.484C103.809 164.908 104.324 165.505 104.666 166.275C105.012 167.041 105.186 167.946 105.186 168.989ZM97.5566 168.989C97.5566 169.759 97.6615 170.427 97.8711 170.992C98.0807 171.553 98.402 171.986 98.835 172.291C99.2725 172.592 99.833 172.742 100.517 172.742C101.205 172.742 101.765 172.592 102.198 172.291C102.631 171.986 102.95 171.553 103.155 170.992C103.36 170.427 103.463 169.759 103.463 168.989C103.463 167.818 103.228 166.902 102.759 166.241C102.294 165.576 101.551 165.243 100.53 165.243C99.8467 165.243 99.2839 165.394 98.8418 165.694C98.4043 165.995 98.0807 166.426 97.8711 166.986C97.6615 167.542 97.5566 168.21 97.5566 168.989ZM111.051 166.289C111.949 166.289 112.669 166.617 113.211 167.273C113.758 167.93 114.031 168.905 114.031 170.199C114.031 171.056 113.904 171.778 113.648 172.366C113.398 172.95 113.045 173.392 112.589 173.692C112.138 173.989 111.611 174.137 111.01 174.137C110.627 174.137 110.294 174.087 110.012 173.986C109.729 173.886 109.488 173.756 109.287 173.597C109.087 173.433 108.918 173.255 108.781 173.063H108.686C108.708 173.246 108.729 173.449 108.747 173.672C108.77 173.891 108.781 174.091 108.781 174.273V177.356H107.168V166.433H108.48L108.706 167.479H108.781C108.923 167.264 109.093 167.066 109.294 166.884C109.499 166.701 109.745 166.558 110.032 166.453C110.324 166.344 110.663 166.289 111.051 166.289ZM110.62 167.602C110.178 167.602 109.823 167.69 109.554 167.868C109.289 168.041 109.096 168.303 108.973 168.654C108.854 169.005 108.79 169.445 108.781 169.974V170.199C108.781 170.76 108.838 171.236 108.952 171.628C109.071 172.015 109.264 172.312 109.533 172.517C109.807 172.717 110.176 172.817 110.641 172.817C111.033 172.817 111.356 172.71 111.611 172.496C111.871 172.282 112.065 171.977 112.192 171.58C112.32 171.184 112.384 170.716 112.384 170.179C112.384 169.363 112.238 168.729 111.946 168.278C111.659 167.827 111.217 167.602 110.62 167.602ZM118.905 166.289C119.58 166.289 120.159 166.428 120.642 166.706C121.125 166.984 121.496 167.378 121.756 167.889C122.016 168.399 122.146 169.01 122.146 169.721V170.582H117.094C117.112 171.316 117.308 171.881 117.682 172.277C118.06 172.674 118.589 172.872 119.268 172.872C119.751 172.872 120.184 172.826 120.566 172.735C120.954 172.64 121.353 172.501 121.763 172.318V173.624C121.384 173.802 120.999 173.932 120.607 174.014C120.215 174.096 119.746 174.137 119.199 174.137C118.456 174.137 117.802 173.993 117.237 173.706C116.677 173.414 116.237 172.981 115.918 172.407C115.604 171.833 115.446 171.12 115.446 170.268C115.446 169.42 115.59 168.7 115.877 168.107C116.164 167.515 116.567 167.064 117.087 166.754C117.606 166.444 118.213 166.289 118.905 166.289ZM118.905 167.499C118.399 167.499 117.989 167.663 117.675 167.991C117.365 168.319 117.183 168.8 117.128 169.434H120.573C120.569 169.055 120.505 168.72 120.382 168.429C120.263 168.137 120.081 167.909 119.835 167.745C119.593 167.581 119.284 167.499 118.905 167.499ZM127.901 166.289C128.754 166.289 129.417 166.51 129.891 166.952C130.369 167.39 130.608 168.094 130.608 169.064V174H129.002V169.365C129.002 168.777 128.881 168.338 128.64 168.046C128.398 167.75 128.024 167.602 127.519 167.602C126.785 167.602 126.274 167.827 125.987 168.278C125.705 168.729 125.563 169.383 125.563 170.24V174H123.957V166.433H125.208L125.434 167.458H125.522C125.687 167.194 125.889 166.977 126.131 166.809C126.377 166.635 126.65 166.506 126.951 166.419C127.257 166.332 127.573 166.289 127.901 166.289ZM138.101 166.433V174H136.494V166.433H138.101ZM137.308 163.534C137.554 163.534 137.766 163.6 137.943 163.732C138.126 163.865 138.217 164.092 138.217 164.416C138.217 164.735 138.126 164.963 137.943 165.1C137.766 165.232 137.554 165.298 137.308 165.298C137.052 165.298 136.836 165.232 136.658 165.1C136.485 164.963 136.398 164.735 136.398 164.416C136.398 164.092 136.485 163.865 136.658 163.732C136.836 163.6 137.052 163.534 137.308 163.534ZM144.349 166.289C145.201 166.289 145.864 166.51 146.338 166.952C146.816 167.39 147.056 168.094 147.056 169.064V174H145.449V169.365C145.449 168.777 145.328 168.338 145.087 168.046C144.845 167.75 144.472 167.602 143.966 167.602C143.232 167.602 142.722 167.827 142.435 168.278C142.152 168.729 142.011 169.383 142.011 170.24V174H140.404V166.433H141.655L141.881 167.458H141.97C142.134 167.194 142.337 166.977 142.578 166.809C142.824 166.635 143.098 166.506 143.398 166.419C143.704 166.332 144.021 166.289 144.349 166.289Z" fill="#333333"/>
<path d="M167 166L170 169L167 172" stroke="#333333" stroke-width="2" stroke-linecap="round"/>
</g>
<g filter="url(#filter1_d_7089_261375)">
<rect x="176" y="166" width="141" height="34" rx="2" fill="white"/>
<rect x="175.5" y="165.5" width="142" height="35" rx="2.5" stroke="#333333"/>
<g clip-path="url(#clip0_7089_261375)">
<path fill-rule="evenodd" clip-rule="evenodd" d="M195.481 182.648L202.276 179.812C202.841 179.569 202.868 179.145 202.317 178.886L195.634 175.759C195.305 175.603 194.831 175.525 194.381 175.54C194.083 175.552 193.797 175.605 193.571 175.7L192.967 175.953L186.776 178.536C186.211 178.778 186.183 179.203 186.732 179.462L189.73 180.865L190.518 181.234L193.414 182.589C193.884 182.862 194.831 182.901 195.481 182.648Z" fill="#5DC0E8"/>
<path fill-rule="evenodd" clip-rule="evenodd" d="M198.008 182.281L196.827 182.767L195.487 183.316C194.922 183.558 193.975 183.519 193.424 183.256L190.2 181.723L189.414 181.348L189.026 181.163L186.678 182.146C186.114 182.389 186.086 182.813 186.635 183.073L187.875 183.652L188.666 184.021L193.32 186.196C193.526 186.293 193.775 186.364 194.047 186.395C194.442 186.444 194.879 186.419 195.288 186.299C195.349 186.283 195.407 186.264 195.465 186.242L195.633 186.171L196.471 185.822L202.26 183.406C202.825 183.163 202.852 182.739 202.304 182.479L200.019 181.444L198.008 182.281Z" fill="#95C038"/>
<path fill-rule="evenodd" clip-rule="evenodd" d="M199.758 185.088L196.534 186.429L195.701 186.775L195.306 186.938C195.1 187.027 194.842 187.079 194.571 187.093C194.202 187.114 193.811 187.07 193.489 186.972C193.402 186.944 193.32 186.913 193.243 186.878L188.939 184.859L187.674 185.39L186.592 185.846C186.551 185.862 186.514 185.882 186.476 185.901C186.457 185.912 186.439 185.923 186.42 185.934C186.026 186.181 186.061 186.541 186.548 186.772L186.6 186.796L191.205 188.95L192.083 189.36L193.234 189.898C193.785 190.16 194.647 190.211 195.212 189.969L196.064 189.615L196.891 189.27L199.919 188.006L202.01 187.133C202.263 187.025 202.407 186.879 202.441 186.73C202.484 186.544 202.356 186.349 202.052 186.207L199.758 185.088Z" fill="#FF6F3D"/>
</g>
<path d="M215.854 183.705C215.854 185.123 215.502 186.213 214.799 186.975C214.096 187.736 213.088 188.117 211.775 188.117C210.463 188.117 209.455 187.736 208.752 186.975C208.049 186.213 207.697 185.119 207.697 183.693C207.697 182.268 208.049 181.18 208.752 180.43C209.459 179.676 210.471 179.299 211.787 179.299C213.104 179.299 214.109 179.678 214.805 180.436C215.504 181.193 215.854 182.283 215.854 183.705ZM209.602 183.705C209.602 184.662 209.783 185.383 210.146 185.867C210.51 186.352 211.053 186.594 211.775 186.594C213.225 186.594 213.949 185.631 213.949 183.705C213.949 181.775 213.229 180.811 211.787 180.811C211.064 180.811 210.52 181.055 210.152 181.543C209.785 182.027 209.602 182.748 209.602 183.705ZM224.629 188H222.32L218.593 181.52H218.541C218.615 182.664 218.652 183.48 218.652 183.969V188H217.029V179.434H219.32L223.041 185.85H223.082C223.023 184.736 222.994 183.949 222.994 183.488V179.434H224.629V188ZM226.191 188V179.434H228.007V186.5H231.482V188H226.191ZM235.042 182.961L236.829 179.434H238.786L235.944 184.666V188H234.139V184.725L231.298 179.434H233.266L235.042 182.961ZM247.039 183.705C247.039 185.123 246.688 186.213 245.985 186.975C245.282 187.736 244.274 188.117 242.961 188.117C241.649 188.117 240.641 187.736 239.938 186.975C239.235 186.213 238.883 185.119 238.883 183.693C238.883 182.268 239.235 181.18 239.938 180.43C240.645 179.676 241.657 179.299 242.973 179.299C244.289 179.299 245.295 179.678 245.991 180.436C246.69 181.193 247.039 182.283 247.039 183.705ZM240.788 183.705C240.788 184.662 240.969 185.383 241.332 185.867C241.696 186.352 242.239 186.594 242.961 186.594C244.411 186.594 245.135 185.631 245.135 183.705C245.135 181.775 244.414 180.811 242.973 180.811C242.25 180.811 241.705 181.055 241.338 181.543C240.971 182.027 240.788 182.748 240.788 183.705ZM250.002 188H248.215V179.434H253.125V180.922H250.002V183.131H252.908V184.613H250.002V188ZM255.988 188H254.201V179.434H259.111V180.922H255.988V183.131H258.894V184.613H255.988V188ZM260.187 188V179.434H262.003V188H260.187ZM267.198 180.822C266.514 180.822 265.985 181.08 265.61 181.596C265.235 182.107 265.048 182.822 265.048 183.74C265.048 185.65 265.764 186.605 267.198 186.605C267.8 186.605 268.528 186.455 269.384 186.154V187.678C268.68 187.971 267.895 188.117 267.028 188.117C265.782 188.117 264.829 187.74 264.169 186.986C263.509 186.229 263.179 185.143 263.179 183.729C263.179 182.838 263.341 182.059 263.665 181.391C263.989 180.719 264.454 180.205 265.059 179.85C265.669 179.49 266.382 179.311 267.198 179.311C268.03 179.311 268.866 179.512 269.706 179.914L269.12 181.391C268.8 181.238 268.477 181.105 268.153 180.992C267.829 180.879 267.511 180.822 267.198 180.822ZM275.545 188H270.612V179.434H275.545V180.922H272.428V182.803H275.329V184.291H272.428V186.5H275.545V188ZM286.857 183.635C286.857 184.6 286.678 185.406 286.318 186.055C285.959 186.699 285.438 187.186 284.754 187.514C284.07 187.838 283.246 188 282.281 188H279.902V179.434H282.539C283.426 179.434 284.191 179.594 284.836 179.914C285.48 180.23 285.979 180.701 286.33 181.326C286.682 181.947 286.857 182.717 286.857 183.635ZM285.393 183.676C285.393 182.973 285.281 182.395 285.059 181.941C284.84 181.488 284.516 181.152 284.086 180.934C283.66 180.711 283.135 180.6 282.51 180.6H281.309V186.822H282.305C283.34 186.822 284.113 186.559 284.625 186.031C285.137 185.504 285.393 184.719 285.393 183.676ZM294.305 184.742C294.305 185.281 294.234 185.76 294.094 186.178C293.953 186.596 293.748 186.949 293.479 187.238C293.209 187.523 292.885 187.742 292.506 187.895C292.127 188.043 291.699 188.117 291.223 188.117C290.777 188.117 290.369 188.043 289.998 187.895C289.627 187.742 289.305 187.523 289.031 187.238C288.762 186.949 288.553 186.596 288.404 186.178C288.256 185.76 288.182 185.281 288.182 184.742C288.182 184.027 288.305 183.422 288.551 182.926C288.801 182.426 289.156 182.045 289.617 181.783C290.078 181.521 290.627 181.391 291.264 181.391C291.861 181.391 292.389 181.521 292.846 181.783C293.303 182.045 293.66 182.426 293.918 182.926C294.176 183.426 294.305 184.031 294.305 184.742ZM289.6 184.742C289.6 185.215 289.656 185.619 289.77 185.955C289.887 186.291 290.066 186.549 290.309 186.729C290.551 186.904 290.863 186.992 291.246 186.992C291.629 186.992 291.941 186.904 292.184 186.729C292.426 186.549 292.604 186.291 292.717 185.955C292.83 185.619 292.887 185.215 292.887 184.742C292.887 184.27 292.83 183.869 292.717 183.541C292.604 183.209 292.426 182.957 292.184 182.785C291.941 182.609 291.627 182.521 291.24 182.521C290.67 182.521 290.254 182.713 289.992 183.096C289.73 183.479 289.6 184.027 289.6 184.742ZM298.5 188.117C297.887 188.117 297.355 187.998 296.906 187.76C296.457 187.521 296.111 187.156 295.869 186.664C295.627 186.172 295.506 185.547 295.506 184.789C295.506 184 295.639 183.355 295.904 182.855C296.17 182.355 296.537 181.986 297.006 181.748C297.479 181.51 298.02 181.391 298.629 181.391C299.016 181.391 299.365 181.43 299.678 181.508C299.994 181.582 300.262 181.674 300.48 181.783L300.07 182.885C299.832 182.787 299.588 182.705 299.338 182.639C299.088 182.572 298.848 182.539 298.617 182.539C298.238 182.539 297.922 182.623 297.668 182.791C297.418 182.959 297.23 183.209 297.105 183.541C296.984 183.873 296.924 184.285 296.924 184.777C296.924 185.254 296.986 185.656 297.111 185.984C297.236 186.309 297.422 186.555 297.668 186.723C297.914 186.887 298.217 186.969 298.576 186.969C298.932 186.969 299.25 186.926 299.531 186.84C299.812 186.754 300.078 186.643 300.328 186.506V187.701C300.082 187.842 299.818 187.945 299.537 188.012C299.256 188.082 298.91 188.117 298.5 188.117ZM306.211 186.148C306.211 186.574 306.107 186.934 305.9 187.227C305.693 187.52 305.391 187.742 304.992 187.895C304.598 188.043 304.113 188.117 303.539 188.117C303.086 188.117 302.695 188.084 302.367 188.018C302.043 187.955 301.736 187.857 301.447 187.725V186.535C301.756 186.68 302.102 186.805 302.484 186.91C302.871 187.016 303.236 187.068 303.58 187.068C304.033 187.068 304.359 186.998 304.559 186.857C304.758 186.713 304.857 186.521 304.857 186.283C304.857 186.143 304.816 186.018 304.734 185.908C304.656 185.795 304.508 185.68 304.289 185.562C304.074 185.441 303.758 185.297 303.34 185.129C302.93 184.965 302.584 184.801 302.303 184.637C302.021 184.473 301.809 184.275 301.664 184.045C301.52 183.811 301.447 183.512 301.447 183.148C301.447 182.574 301.674 182.139 302.127 181.842C302.584 181.541 303.188 181.391 303.938 181.391C304.336 181.391 304.711 181.432 305.062 181.514C305.418 181.592 305.766 181.707 306.105 181.859L305.672 182.896C305.379 182.768 305.084 182.662 304.787 182.58C304.494 182.494 304.195 182.451 303.891 182.451C303.535 182.451 303.264 182.506 303.076 182.615C302.893 182.725 302.801 182.881 302.801 183.084C302.801 183.236 302.846 183.365 302.936 183.471C303.025 183.576 303.18 183.682 303.398 183.787C303.621 183.893 303.93 184.023 304.324 184.18C304.711 184.328 305.045 184.484 305.326 184.648C305.611 184.809 305.83 185.006 305.982 185.24C306.135 185.475 306.211 185.777 306.211 186.148Z" fill="#333333"/>
</g>
<path d="M113.333 25H97.1979C96.0781 25 95.5208 25 95.0938 25.214C94.7135 25.4037 94.4115 25.705 94.2188 26.0754C94 26.4958 94 27.0469 94 28.1505V63.8495C94 64.9531 94 65.5042 94.2188 65.9247C94.4115 66.295 94.7135 66.5962 95.0938 66.786C95.5208 67 96.0781 67 97.1979 67H122.802C123.922 67 124.479 67 124.906 66.786C125.286 66.5962 125.589 66.295 125.781 65.9247C126 65.5042 126 64.9531 126 63.8495V37.4688C126 36.9419 125.875 36.4447 125.651 36.0038C125.49 35.6871 125.276 35.4 125.026 35.1514L123.255 33.4057C120.729 30.9114 118.526 28.735 115.682 25.9549C115.078 25.3653 114.25 25 113.333 25Z" fill="#1E7AAA"/>
<path fill-rule="evenodd" clip-rule="evenodd" d="M97.2 25H113.333C114.25 25 115.08 25.3648 115.683 25.955C118.524 28.7356 120.729 30.9115 123.256 33.4052L125.026 35.1515C125.628 35.745 126 36.5641 126 37.4688V63.85C126 64.9526 126 65.5039 125.782 65.9251C125.59 66.2955 125.284 66.5967 124.908 66.7854C124.48 67 123.92 67 122.8 67H97.2C96.0799 67 95.5198 67 95.092 66.7854C94.7157 66.5967 94.4097 66.2955 94.218 65.9251C94 65.5039 94 64.9526 94 63.85V28.15C94 27.0474 94 26.4961 94.218 26.075C94.4097 25.7045 94.7157 25.4033 95.092 25.2146C95.5198 25 96.0799 25 97.2 25ZM124.667 37.4688C124.667 36.3818 123.771 35.5 122.667 35.5L118.533 35.5002C117.413 35.5002 116.853 35.5002 116.425 35.2857C116.049 35.0969 115.743 34.7957 115.551 34.4252C115.333 34.0041 115.333 33.4528 115.333 32.3502V28.2812C115.333 27.1943 114.438 26.3125 113.333 26.3125H97.2C96.618 26.3125 96.2616 26.3135 95.995 26.335C95.8708 26.345 95.7956 26.3575 95.75 26.3681C95.7283 26.3731 95.7149 26.3773 95.7077 26.3799C95.7008 26.3823 95.6973 26.384 95.6973 26.384C95.5719 26.4469 95.4699 26.5473 95.406 26.6708C95.406 26.6708 95.4042 26.6742 95.4018 26.681C95.3992 26.6881 95.3949 26.7013 95.3898 26.7227C95.379 26.7676 95.3663 26.8415 95.3562 26.9638C95.3344 27.2263 95.3333 27.577 95.3333 28.15V63.85C95.3333 64.423 95.3344 64.7738 95.3562 65.0362C95.3663 65.1585 95.379 65.2324 95.3898 65.2773C95.3949 65.2987 95.3992 65.3119 95.4018 65.3189C95.4042 65.3258 95.406 65.3292 95.406 65.3292C95.4699 65.4526 95.5719 65.553 95.6973 65.616C95.6973 65.616 95.7008 65.6177 95.7077 65.6202C95.7149 65.6227 95.7283 65.6269 95.75 65.6319C95.7956 65.6425 95.8708 65.655 95.995 65.665C96.2616 65.6865 96.6179 65.6875 97.2 65.6875H122.8C123.382 65.6875 123.738 65.6865 124.005 65.665C124.129 65.655 124.204 65.6425 124.25 65.6319C124.272 65.6269 124.285 65.6227 124.292 65.6202L124.299 65.6176L124.303 65.616C124.428 65.553 124.53 65.4526 124.594 65.3292C124.594 65.3292 124.596 65.3258 124.598 65.3189C124.601 65.3119 124.605 65.2987 124.61 65.2773C124.621 65.2324 124.634 65.1585 124.644 65.0362C124.666 64.7738 124.667 64.423 124.667 63.85V37.4688Z" fill="black" fill-opacity="0.3"/>
<path d="M120 43H100V44H120V43Z" fill="white" fill-opacity="0.95"/>
<path d="M120 47H100V48H120V47Z" fill="white" fill-opacity="0.95"/>
<path d="M100 51H120V52H100V51Z" fill="white" fill-opacity="0.95"/>
<path d="M115 55H100V56H115V55Z" fill="white" fill-opacity="0.95"/>
<path d="M173.333 25H157.198C156.078 25 155.521 25 155.094 25.214C154.714 25.4037 154.411 25.705 154.219 26.0754C154 26.4958 154 27.0469 154 28.1505V63.8495C154 64.9531 154 65.5042 154.219 65.9247C154.411 66.295 154.714 66.5962 155.094 66.786C155.521 67 156.078 67 157.198 67H182.802C183.922 67 184.479 67 184.906 66.786C185.286 66.5962 185.589 66.295 185.781 65.9247C186 65.5042 186 64.9531 186 63.8495V37.4688C186 36.9419 185.875 36.4447 185.651 36.0038C185.49 35.6871 185.276 35.4 185.026 35.1514L183.255 33.4057C180.729 30.9114 178.526 28.735 175.682 25.9549C175.078 25.3653 174.25 25 173.333 25Z" fill="#B80B00"/>
<path fill-rule="evenodd" clip-rule="evenodd" d="M157.2 25H173.333C174.25 25 175.08 25.3648 175.683 25.955C178.524 28.7356 180.729 30.9115 183.256 33.4052L185.026 35.1515C185.628 35.745 186 36.5641 186 37.4688V63.85C186 64.9526 186 65.5039 185.782 65.9251C185.59 66.2955 185.284 66.5967 184.908 66.7854C184.48 67 183.92 67 182.8 67H157.2C156.08 67 155.52 67 155.092 66.7854C154.716 66.5967 154.41 66.2955 154.218 65.9251C154 65.5039 154 64.9526 154 63.85V28.15C154 27.0474 154 26.4961 154.218 26.075C154.41 25.7045 154.716 25.4033 155.092 25.2146C155.52 25 156.08 25 157.2 25ZM184.667 37.4688C184.667 36.3818 183.771 35.5 182.667 35.5L178.533 35.5002C177.413 35.5002 176.853 35.5002 176.425 35.2857C176.049 35.0969 175.743 34.7957 175.551 34.4252C175.333 34.0041 175.333 33.4528 175.333 32.3502V28.2812C175.333 27.1943 174.438 26.3125 173.333 26.3125H157.2C156.618 26.3125 156.262 26.3135 155.995 26.335C155.871 26.345 155.796 26.3575 155.75 26.3681C155.728 26.3731 155.715 26.3773 155.708 26.3799C155.701 26.3823 155.697 26.384 155.697 26.384C155.572 26.4469 155.47 26.5473 155.406 26.6708C155.406 26.6708 155.404 26.6742 155.402 26.681C155.399 26.6881 155.395 26.7013 155.39 26.7227C155.379 26.7676 155.366 26.8415 155.356 26.9638C155.334 27.2263 155.333 27.577 155.333 28.15V63.85C155.333 64.423 155.334 64.7738 155.356 65.0362C155.366 65.1585 155.379 65.2324 155.39 65.2773C155.395 65.2987 155.399 65.3119 155.402 65.3189C155.404 65.3258 155.406 65.3292 155.406 65.3292C155.47 65.4526 155.572 65.5531 155.697 65.616C155.697 65.616 155.701 65.6177 155.708 65.6202C155.715 65.6227 155.728 65.6269 155.75 65.6319C155.796 65.6425 155.871 65.655 155.995 65.665C156.262 65.6865 156.618 65.6875 157.2 65.6875H182.8C183.382 65.6875 183.738 65.6865 184.005 65.665C184.129 65.655 184.204 65.6425 184.25 65.6319C184.272 65.6269 184.285 65.6227 184.292 65.6202L184.299 65.6176L184.303 65.616C184.428 65.5531 184.53 65.4526 184.594 65.3292C184.594 65.3292 184.596 65.3258 184.598 65.3189C184.601 65.3119 184.605 65.2987 184.61 65.2773C184.621 65.2324 184.634 65.1585 184.644 65.0362C184.666 64.7738 184.667 64.423 184.667 63.85V37.4688Z" fill="black" fill-opacity="0.3"/>
<rect x="160.5" y="43.5" width="9" height="8" stroke="white"/>
<path d="M173 51H180V52H173V51Z" fill="white" fill-opacity="0.95"/>
<path d="M173 47H180V48H173V47Z" fill="white" fill-opacity="0.95"/>
<path d="M173 43H180V44H173V43Z" fill="white" fill-opacity="0.95"/>
<path d="M180 55H160V56H180V55Z" fill="white" fill-opacity="0.95"/>
<path d="M233.333 25H217.198C216.078 25 215.521 25 215.094 25.2141C214.714 25.4037 214.411 25.705 214.219 26.0754C214 26.4958 214 27.0469 214 28.1505V63.8495C214 64.9531 214 65.5042 214.219 65.9247C214.411 66.295 214.714 66.5962 215.094 66.786C215.521 67 216.078 67 217.198 67H242.802C243.922 67 244.479 67 244.906 66.786C245.287 66.5962 245.589 66.295 245.781 65.9247C246 65.5042 246 64.9531 246 63.8495V37.4688C246 36.9419 245.875 36.4447 245.651 36.0038C245.49 35.6871 245.276 35.4 245.026 35.1514L243.255 33.4057C240.729 30.9114 238.526 28.735 235.682 25.9549C235.078 25.3653 234.25 25 233.333 25Z" fill="#6AAA1E"/>
<path fill-rule="evenodd" clip-rule="evenodd" d="M217.2 25H233.333C234.25 25 235.08 25.3648 235.683 25.955C238.524 28.7356 240.729 30.9115 243.256 33.4052L245.026 35.1515C245.628 35.745 246 36.5641 246 37.4688V63.85C246 64.9526 246 65.5039 245.782 65.9251C245.59 66.2955 245.284 66.5967 244.908 66.7854C244.48 67 243.92 67 242.8 67H217.2C216.08 67 215.52 67 215.092 66.7854C214.716 66.5967 214.41 66.2955 214.218 65.9251C214 65.5039 214 64.9526 214 63.85V28.15C214 27.0474 214 26.4961 214.218 26.075C214.41 25.7045 214.716 25.4033 215.092 25.2146C215.52 25 216.08 25 217.2 25ZM244.667 37.4688C244.667 36.3818 243.771 35.5 242.667 35.5L238.533 35.5002C237.413 35.5002 236.853 35.5002 236.425 35.2857C236.049 35.0969 235.743 34.7957 235.551 34.4252C235.333 34.0041 235.333 33.4528 235.333 32.3502V28.2812C235.333 27.1943 234.438 26.3125 233.333 26.3125H217.2C216.618 26.3125 216.262 26.3135 215.995 26.335C215.871 26.345 215.796 26.3575 215.75 26.3681C215.728 26.3731 215.715 26.3773 215.708 26.3799C215.701 26.3823 215.697 26.384 215.697 26.384C215.572 26.4469 215.47 26.5473 215.406 26.6708C215.406 26.6708 215.404 26.6742 215.402 26.681C215.399 26.6881 215.395 26.7013 215.39 26.7227C215.379 26.7676 215.366 26.8415 215.356 26.9638C215.334 27.2263 215.333 27.577 215.333 28.15V63.85C215.333 64.423 215.334 64.7738 215.356 65.0362C215.366 65.1585 215.379 65.2324 215.39 65.2773C215.395 65.2987 215.399 65.3119 215.402 65.3189C215.404 65.3258 215.406 65.3292 215.406 65.3292C215.47 65.4526 215.572 65.5531 215.697 65.616C215.697 65.616 215.701 65.6177 215.708 65.6202C215.715 65.6227 215.728 65.6269 215.75 65.6319C215.796 65.6425 215.871 65.655 215.995 65.665C216.262 65.6865 216.618 65.6875 217.2 65.6875H242.8C243.382 65.6875 243.738 65.6865 244.005 65.665C244.129 65.655 244.204 65.6425 244.25 65.6319C244.272 65.6269 244.285 65.6227 244.292 65.6202L244.299 65.6176L244.303 65.616C244.428 65.5531 244.53 65.4526 244.594 65.3292C244.594 65.3292 244.596 65.3258 244.598 65.3189C244.601 65.3119 244.605 65.2987 244.61 65.2773C244.621 65.2324 244.634 65.1585 244.644 65.0362C244.666 64.7738 244.667 64.423 244.667 63.85V37.4688Z" fill="black" fill-opacity="0.3"/>
<path fill-rule="evenodd" clip-rule="evenodd" d="M240 41H221V57H240V41ZM227 42H222V46H227V42ZM222 47H227V51H222V47ZM227 52H222V56H227V52ZM228 42H233V46H228V42ZM233 47H228V51H233V47ZM228 52H233V56H228V52ZM239 42H234V46H239V42ZM234 47H239V51H234V47ZM239 52H234V56H239V52Z" fill="white"/>
<path d="M113.333 85H97.1979C96.0781 85 95.5208 85 95.0938 85.2141C94.7135 85.4037 94.4115 85.705 94.2188 86.0754C94 86.4958 94 87.0469 94 88.1505V123.85C94 124.953 94 125.504 94.2188 125.925C94.4115 126.295 94.7135 126.596 95.0938 126.786C95.5208 127 96.0781 127 97.1979 127H122.802C123.922 127 124.479 127 124.906 126.786C125.287 126.596 125.589 126.295 125.781 125.925C126 125.504 126 124.953 126 123.85V97.4688C126 96.9419 125.875 96.4447 125.651 96.0038C125.49 95.6871 125.276 95.4 125.026 95.1514L123.255 93.4057C120.729 90.9114 118.526 88.735 115.682 85.9549C115.078 85.3653 114.25 85 113.333 85Z" fill="#F36700"/>
<path fill-rule="evenodd" clip-rule="evenodd" d="M97.2 85H113.333C114.25 85 115.08 85.3648 115.683 85.955C118.524 88.7356 120.729 90.9115 123.256 93.4052L125.026 95.1515C125.628 95.745 126 96.5641 126 97.4688V123.85C126 124.953 126 125.504 125.782 125.925C125.59 126.296 125.284 126.597 124.908 126.785C124.48 127 123.92 127 122.8 127H97.2C96.0799 127 95.5198 127 95.092 126.785C94.7157 126.597 94.4097 126.296 94.218 125.925C94 125.504 94 124.953 94 123.85V88.15C94 87.0474 94 86.4961 94.218 86.075C94.4097 85.7045 94.7157 85.4033 95.092 85.2146C95.5198 85 96.0799 85 97.2 85ZM124.667 97.4688C124.667 96.3818 123.771 95.5 122.667 95.5L118.533 95.5002C117.413 95.5002 116.853 95.5002 116.425 95.2857C116.049 95.0969 115.743 94.7957 115.551 94.4252C115.333 94.0041 115.333 93.4528 115.333 92.3502V88.2812C115.333 87.1943 114.438 86.3125 113.333 86.3125H97.2C96.618 86.3125 96.2616 86.3135 95.995 86.335C95.8708 86.345 95.7956 86.3575 95.75 86.3681C95.7283 86.3731 95.7149 86.3773 95.7077 86.3799C95.7008 86.3823 95.6973 86.384 95.6973 86.384C95.5719 86.4469 95.4699 86.5473 95.406 86.6708C95.406 86.6708 95.4042 86.6742 95.4018 86.681C95.3992 86.6881 95.3949 86.7013 95.3898 86.7227C95.379 86.7676 95.3663 86.8415 95.3562 86.9638C95.3344 87.2263 95.3333 87.577 95.3333 88.15V123.85C95.3333 124.423 95.3344 124.774 95.3562 125.036C95.3663 125.158 95.379 125.232 95.3898 125.277C95.3949 125.299 95.3992 125.312 95.4018 125.319C95.4042 125.326 95.406 125.329 95.406 125.329C95.4699 125.453 95.5719 125.553 95.6973 125.616C95.6973 125.616 95.7008 125.618 95.7077 125.62C95.7149 125.623 95.7283 125.627 95.75 125.632C95.7956 125.642 95.8708 125.655 95.995 125.665C96.2616 125.687 96.6179 125.688 97.2 125.688H122.8C123.382 125.688 123.738 125.687 124.005 125.665C124.129 125.655 124.204 125.642 124.25 125.632C124.272 125.627 124.285 125.623 124.292 125.62L124.299 125.618L124.303 125.616C124.428 125.553 124.53 125.453 124.594 125.329C124.594 125.329 124.596 125.326 124.598 125.319C124.601 125.312 124.605 125.299 124.61 125.277C124.621 125.232 124.634 125.158 124.644 125.036C124.666 124.774 124.667 124.423 124.667 123.85V97.4688Z" fill="black" fill-opacity="0.3"/>
<path d="M119.5 100V99.5H119H101H100.5V100V117V117.5H101H119H119.5V117V100Z" stroke="white" stroke-opacity="0.95"/>
<path d="M173.333 85H157.198C156.078 85 155.521 85 155.094 85.2141C154.714 85.4037 154.411 85.705 154.219 86.0754C154 86.4958 154 87.0469 154 88.1505V123.85C154 124.953 154 125.504 154.219 125.925C154.411 126.295 154.714 126.596 155.094 126.786C155.521 127 156.078 127 157.198 127H182.802C183.922 127 184.479 127 184.906 126.786C185.287 126.596 185.589 126.295 185.781 125.925C186 125.504 186 124.953 186 123.85V97.4688C186 96.9419 185.875 96.4447 185.651 96.0038C185.49 95.6871 185.276 95.4 185.026 95.1514L183.255 93.4057C180.729 90.9114 178.526 88.735 175.682 85.9549C175.078 85.3653 174.25 85 173.333 85Z" fill="#25A29A"/>
<path fill-rule="evenodd" clip-rule="evenodd" d="M157.2 85H173.333C174.25 85 175.08 85.3648 175.683 85.955C178.524 88.7356 180.729 90.9115 183.256 93.4052L185.026 95.1515C185.628 95.745 186 96.5641 186 97.4688V123.85C186 124.953 186 125.504 185.782 125.925C185.59 126.296 185.284 126.597 184.908 126.785C184.48 127 183.92 127 182.8 127H157.2C156.08 127 155.52 127 155.092 126.785C154.716 126.597 154.41 126.296 154.218 125.925C154 125.504 154 124.953 154 123.85V88.15C154 87.0474 154 86.4961 154.218 86.075C154.41 85.7045 154.716 85.4033 155.092 85.2146C155.52 85 156.08 85 157.2 85ZM184.667 97.4688C184.667 96.3818 183.771 95.5 182.667 95.5L178.533 95.5002C177.413 95.5002 176.853 95.5002 176.425 95.2857C176.049 95.0969 175.743 94.7957 175.551 94.4252C175.333 94.0041 175.333 93.4528 175.333 92.3502V88.2812C175.333 87.1943 174.438 86.3125 173.333 86.3125H157.2C156.618 86.3125 156.262 86.3135 155.995 86.335C155.871 86.345 155.796 86.3575 155.75 86.3681C155.728 86.3731 155.715 86.3773 155.708 86.3799C155.701 86.3823 155.697 86.384 155.697 86.384C155.572 86.4469 155.47 86.5473 155.406 86.6708C155.406 86.6708 155.404 86.6742 155.402 86.681C155.399 86.6881 155.395 86.7013 155.39 86.7227C155.379 86.7676 155.366 86.8415 155.356 86.9638C155.334 87.2263 155.333 87.577 155.333 88.15V123.85C155.333 124.423 155.334 124.774 155.356 125.036C155.366 125.158 155.379 125.232 155.39 125.277C155.395 125.299 155.399 125.312 155.402 125.319C155.404 125.326 155.406 125.329 155.406 125.329C155.47 125.453 155.572 125.553 155.697 125.616C155.697 125.616 155.701 125.618 155.708 125.62C155.715 125.623 155.728 125.627 155.75 125.632C155.796 125.642 155.871 125.655 155.995 125.665C156.262 125.687 156.618 125.688 157.2 125.688H182.8C183.382 125.688 183.738 125.687 184.005 125.665C184.129 125.655 184.204 125.642 184.25 125.632C184.272 125.627 184.285 125.623 184.292 125.62L184.299 125.618L184.303 125.616C184.428 125.553 184.53 125.453 184.594 125.329C184.594 125.329 184.596 125.326 184.598 125.319C184.601 125.312 184.605 125.299 184.61 125.277C184.621 125.232 184.634 125.158 184.644 125.036C184.666 124.774 184.667 124.423 184.667 123.85V97.4688Z" fill="black" fill-opacity="0.3"/>
<path d="M179.5 101V100.5H179H161H160.5V101V108V108.5H161H179H179.5V108V101Z" stroke="white" stroke-opacity="0.95"/>
<path d="M179.5 112V111.5H179H161H160.5V112V118V118.5H161H179H179.5V118V112Z" stroke="white" stroke-opacity="0.95"/>
<path d="M233.333 85H217.198C216.078 85 215.521 85 215.094 85.214C214.714 85.4037 214.411 85.705 214.219 86.0754C214 86.4958 214 87.0469 214 88.1505V123.85C214 124.953 214 125.504 214.219 125.925C214.411 126.295 214.714 126.596 215.094 126.786C215.521 127 216.078 127 217.198 127H242.802C243.922 127 244.479 127 244.906 126.786C245.286 126.596 245.589 126.295 245.781 125.925C246 125.504 246 124.953 246 123.85V97.4688C246 96.9419 245.875 96.4447 245.651 96.0038C245.49 95.6871 245.276 95.4 245.026 95.1514L243.255 93.4057C240.729 90.9114 238.526 88.735 235.682 85.9549C235.078 85.3653 234.25 85 233.333 85Z" fill="#C8A428"/>
<path fill-rule="evenodd" clip-rule="evenodd" d="M217.2 85H233.333C234.25 85 235.08 85.3648 235.683 85.955C238.524 88.7356 240.729 90.9115 243.256 93.4052L245.026 95.1515C245.628 95.745 246 96.5641 246 97.4688V123.85C246 124.953 246 125.504 245.782 125.925C245.59 126.296 245.284 126.597 244.908 126.785C244.48 127 243.92 127 242.8 127H217.2C216.08 127 215.52 127 215.092 126.785C214.716 126.597 214.41 126.296 214.218 125.925C214 125.504 214 124.953 214 123.85V88.15C214 87.0474 214 86.4961 214.218 86.075C214.41 85.7045 214.716 85.4033 215.092 85.2146C215.52 85 216.08 85 217.2 85ZM244.667 97.4688C244.667 96.3818 243.771 95.5 242.667 95.5L238.533 95.5002C237.413 95.5002 236.853 95.5002 236.425 95.2857C236.049 95.0969 235.743 94.7957 235.551 94.4252C235.333 94.0041 235.333 93.4528 235.333 92.3502V88.2812C235.333 87.1943 234.438 86.3125 233.333 86.3125H217.2C216.618 86.3125 216.262 86.3135 215.995 86.335C215.871 86.345 215.796 86.3575 215.75 86.3681C215.728 86.3731 215.715 86.3773 215.708 86.3799C215.701 86.3823 215.697 86.384 215.697 86.384C215.572 86.4469 215.47 86.5473 215.406 86.6708C215.406 86.6708 215.404 86.6742 215.402 86.681C215.399 86.6881 215.395 86.7013 215.39 86.7227C215.379 86.7676 215.366 86.8415 215.356 86.9638C215.334 87.2263 215.333 87.577 215.333 88.15V123.85C215.333 124.423 215.334 124.774 215.356 125.036C215.366 125.158 215.379 125.232 215.39 125.277C215.395 125.299 215.399 125.312 215.402 125.319C215.404 125.326 215.406 125.329 215.406 125.329C215.47 125.453 215.572 125.553 215.697 125.616C215.697 125.616 215.701 125.618 215.708 125.62C215.715 125.623 215.728 125.627 215.75 125.632C215.796 125.642 215.871 125.655 215.995 125.665C216.262 125.687 216.618 125.688 217.2 125.688H242.8C243.382 125.688 243.738 125.687 244.005 125.665C244.129 125.655 244.204 125.642 244.25 125.632C244.272 125.627 244.285 125.623 244.292 125.62L244.299 125.618L244.303 125.616C244.428 125.553 244.53 125.453 244.594 125.329C244.594 125.329 244.596 125.326 244.598 125.319C244.601 125.312 244.605 125.299 244.61 125.277C244.621 125.232 244.634 125.158 244.644 125.036C244.666 124.774 244.667 124.423 244.667 123.85V97.4688Z" fill="black" fill-opacity="0.3"/>
<path d="M220.5 117V117.89L221.26 117.427L229.893 112.168L230 112.103L230.107 112.168L238.74 117.427L239.5 117.89V117V100V99.5H239H221H220.5V100V117Z" stroke="white" stroke-opacity="0.95"/>
<defs>
<filter id="filter0_d_7089_261375" x="63" y="138" width="139" height="76" filterUnits="userSpaceOnUse" color-interpolation-filters="sRGB">
<feFlood flood-opacity="0" result="BackgroundImageFix"/>
<feColorMatrix in="SourceAlpha" type="matrix" values="0 0 0 0 0 0 0 0 0 0 0 0 0 0 0 0 0 0 127 0" result="hardAlpha"/>
<feOffset dy="7"/>
<feGaussianBlur stdDeviation="7.5"/>
<feColorMatrix type="matrix" values="0 0 0 0 0.333333 0 0 0 0 0.333333 0 0 0 0 0.333333 0 0 0 0.1 0"/>
<feBlend mode="normal" in2="BackgroundImageFix" result="effect1_dropShadow_7089_261375"/>
<feBlend mode="normal" in="SourceGraphic" in2="effect1_dropShadow_7089_261375" result="shape"/>
</filter>
<filter id="filter1_d_7089_261375" x="160" y="157" width="173" height="66" filterUnits="userSpaceOnUse" color-interpolation-filters="sRGB">
<feFlood flood-opacity="0" result="BackgroundImageFix"/>
<feColorMatrix in="SourceAlpha" type="matrix" values="0 0 0 0 0 0 0 0 0 0 0 0 0 0 0 0 0 0 127 0" result="hardAlpha"/>
<feOffset dy="7"/>
<feGaussianBlur stdDeviation="7.5"/>
<feColorMatrix type="matrix" values="0 0 0 0 0.333333 0 0 0 0 0.333333 0 0 0 0 0.333333 0 0 0 0.1 0"/>
<feBlend mode="normal" in2="BackgroundImageFix" result="effect1_dropShadow_7089_261375"/>
<feBlend mode="normal" in="SourceGraphic" in2="effect1_dropShadow_7089_261375" result="shape"/>
</filter>
<clipPath id="clip0_7089_261375">
<rect width="17" height="15" fill="white" transform="translate(186 175.5)"/>
</clipPath>
</defs>
</svg>
