<svg width="448" height="254" viewBox="0 0 448 254" fill="none" xmlns="http://www.w3.org/2000/svg">
<rect x="0.5" y="0.5" width="287" height="253" rx="3.5" fill="white"/>
<rect x="0.5" y="0.5" width="287" height="253" rx="3.5" stroke="#333333"/>
<path d="M5 254C2.23858 254 0 251.761 0 249L0 5C0 2.23857 2.23858 0 5 0H57L57 254H5Z" fill="#1E1E1E"/>
<g clip-path="url(#clip0_7089_261802)">
<path d="M14.1287 30.9996C14.1287 36.093 17.0838 40.4947 21.3689 42.5806L15.2409 25.7627C14.5281 27.363 14.1287 29.1341 14.1287 30.9996Z" fill="white"/>
<path d="M35.6477 30.3502C35.6477 28.7599 35.0774 27.6585 34.5882 26.8013C33.937 25.7413 33.3267 24.8437 33.3267 23.7838C33.3267 22.6009 34.2223 21.4998 35.4839 21.4998C35.5408 21.4998 35.5949 21.5069 35.6503 21.5101C33.3648 19.4127 30.3197 18.1321 26.9753 18.1321C22.4873 18.1321 18.5387 20.4386 16.2417 23.9321C16.5431 23.9412 16.8271 23.9476 17.0684 23.9476C18.4121 23.9476 20.4921 23.7842 20.4921 23.7842C21.1846 23.7434 21.2663 24.7622 20.5745 24.8442C20.5745 24.8442 19.8785 24.9262 19.1041 24.9669L23.7823 38.9051L26.5937 30.4594L24.5922 24.9664C23.9004 24.9257 23.245 24.8437 23.245 24.8437C22.5528 24.8031 22.6339 23.7429 23.3262 23.7838C23.3262 23.7838 25.4477 23.9471 26.71 23.9471C28.0535 23.9471 30.1337 23.7838 30.1337 23.7838C30.8267 23.7429 30.9081 24.7617 30.2161 24.8437C30.2161 24.8437 29.5187 24.9257 28.7458 24.9664L33.3883 38.7991L34.6696 34.51C35.225 32.7302 35.6477 31.4518 35.6477 30.3502Z" fill="white"/>
<path d="M27.2006 32.1252L23.3462 43.3441C24.497 43.683 25.7141 43.8683 26.9752 43.8683C28.4712 43.8683 29.9059 43.6093 31.2413 43.1389C31.2068 43.0838 31.1755 43.0253 31.1498 42.9617L27.2006 32.1252Z" fill="white"/>
<path d="M38.2474 24.8259C38.3027 25.2358 38.334 25.6758 38.334 26.1491C38.334 27.4549 38.0905 28.9228 37.3572 30.7582L33.4331 42.1225C37.2523 39.8917 39.8212 35.7471 39.8212 30.9999C39.8214 28.7627 39.2509 26.6589 38.2474 24.8259Z" fill="white"/>
<path d="M26.9752 16C18.7181 16 12 22.7288 12 30.9996C12 39.2715 18.7181 46 26.9752 46C35.232 46 41.951 39.2715 41.951 30.9996C41.9508 22.7288 35.232 16 26.9752 16ZM26.9752 45.3125C19.0967 45.3125 12.6866 38.8917 12.6866 30.9996C12.6866 23.1081 19.0965 16.6878 26.9752 16.6878C34.8534 16.6878 41.2629 23.1081 41.2629 30.9996C41.2629 38.8917 34.8534 45.3125 26.9752 45.3125Z" fill="white"/>
</g>
<rect width="57" height="48" transform="translate(0 60)" fill="#3858E9"/>
<path opacity="0.5" fill-rule="evenodd" clip-rule="evenodd" d="M26.6665 97.6569L14.2907 91.8924C13.2364 91.3891 13.2364 90.6114 14.2907 90.1539L18.5993 88.1409L26.6207 91.8924C27.6749 92.3956 29.3709 92.3956 30.3793 91.8924L38.4007 88.1409L42.7093 90.1539C43.7636 90.6571 43.7636 91.4349 42.7093 91.8924L30.3335 97.6569C29.3709 98.1144 27.6749 98.1144 26.6665 97.6569Z" fill="white"/>
<path opacity="0.75" fill-rule="evenodd" clip-rule="evenodd" d="M26.6264 90.5235L14.2883 84.7523C13.2372 84.2485 13.2372 83.4698 14.2883 83.0118L18.4924 81.0422L26.6264 84.8439C27.6775 85.3477 29.3682 85.3477 30.3736 84.8439L38.5076 81.0422L42.7117 83.0118C43.7628 83.5156 43.7628 84.2943 42.7117 84.7523L30.3736 90.5235C29.3225 91.0273 27.6318 91.0273 26.6264 90.5235Z" fill="white"/>
<path fill-rule="evenodd" clip-rule="evenodd" d="M26.6264 83.4642L14.2883 77.7761C13.2372 77.2795 13.2372 76.512 14.2883 76.0606L26.6264 70.3724C27.6775 69.8759 29.3682 69.8759 30.3736 70.3724L42.7117 76.0606C43.7628 76.5572 43.7628 77.3246 42.7117 77.7761L30.3736 83.4642C29.3225 83.9157 27.6318 83.9157 26.6264 83.4642Z" fill="white"/>
<path d="M90.1726 38H87.0701L85.3298 31.25C85.2654 31.0098 85.1541 30.5146 84.9959 29.7646C84.8435 29.0088 84.7556 28.502 84.7322 28.2441C84.697 28.5605 84.6091 29.0703 84.4685 29.7734C84.3279 30.4707 84.2195 30.9688 84.1433 31.2676L82.4119 38H79.3181L76.0398 25.1504H78.7205L80.364 32.1641C80.6511 33.459 80.8591 34.5811 80.988 35.5303C81.0232 35.1963 81.1023 34.6807 81.2253 33.9834C81.3543 33.2803 81.4744 32.7354 81.5857 32.3486L83.4578 25.1504H86.033L87.905 32.3486C87.9871 32.6709 88.0896 33.1631 88.2127 33.8252C88.3357 34.4873 88.4295 35.0557 88.4939 35.5303C88.5525 35.0732 88.6462 34.5049 88.7752 33.8252C88.9041 33.1396 89.0212 32.5859 89.1267 32.1641L90.7615 25.1504H93.4421L90.1726 38ZM98.5577 29.8965C97.9894 29.8965 97.5441 30.0781 97.2218 30.4414C96.8995 30.7988 96.715 31.3086 96.6681 31.9707H100.43C100.418 31.3086 100.245 30.7988 99.9112 30.4414C99.5773 30.0781 99.1261 29.8965 98.5577 29.8965ZM98.9357 38.1758C97.3536 38.1758 96.1173 37.7393 95.2267 36.8662C94.3361 35.9932 93.8907 34.7568 93.8907 33.1572C93.8907 31.5107 94.3009 30.2393 95.1212 29.3428C95.9474 28.4404 97.087 27.9893 98.5402 27.9893C99.9288 27.9893 101.01 28.3848 101.783 29.1758C102.557 29.9668 102.943 31.0596 102.943 32.4541V33.7549H96.6066C96.6359 34.5166 96.8614 35.1113 97.2833 35.5391C97.7052 35.9668 98.297 36.1807 99.0587 36.1807C99.6505 36.1807 100.21 36.1191 100.737 35.9961C101.265 35.873 101.816 35.6768 102.39 35.4072V37.4814C101.921 37.7158 101.42 37.8887 100.887 38C100.354 38.1172 99.7032 38.1758 98.9357 38.1758ZM107.444 38H104.763V24.3242H107.444V38ZM113.895 38.1758C110.837 38.1758 109.307 36.4971 109.307 33.1396C109.307 31.4697 109.723 30.1953 110.556 29.3164C111.388 28.4316 112.58 27.9893 114.133 27.9893C115.269 27.9893 116.289 28.2119 117.191 28.6572L116.4 30.7314C115.978 30.5615 115.586 30.4238 115.222 30.3184C114.859 30.207 114.496 30.1514 114.133 30.1514C112.738 30.1514 112.041 31.1416 112.041 33.1221C112.041 35.0439 112.738 36.0049 114.133 36.0049C114.648 36.0049 115.126 35.9375 115.565 35.8027C116.005 35.6621 116.444 35.4453 116.884 35.1523V37.4463C116.45 37.7217 116.011 37.9121 115.565 38.0176C115.126 38.123 114.569 38.1758 113.895 38.1758ZM120.945 33.0693C120.945 34.042 121.103 34.7773 121.419 35.2754C121.741 35.7734 122.263 36.0225 122.984 36.0225C123.698 36.0225 124.211 35.7764 124.522 35.2842C124.838 34.7861 124.996 34.0479 124.996 33.0693C124.996 32.0967 124.838 31.3672 124.522 30.8809C124.205 30.3945 123.687 30.1514 122.966 30.1514C122.251 30.1514 121.736 30.3945 121.419 30.8809C121.103 31.3613 120.945 32.0908 120.945 33.0693ZM127.738 33.0693C127.738 34.6689 127.317 35.9199 126.473 36.8223C125.629 37.7246 124.454 38.1758 122.948 38.1758C122.005 38.1758 121.173 37.9707 120.452 37.5605C119.732 37.1445 119.178 36.5498 118.791 35.7764C118.404 35.0029 118.211 34.1006 118.211 33.0693C118.211 31.4639 118.63 30.2158 119.468 29.3252C120.306 28.4346 121.484 27.9893 123.001 27.9893C123.945 27.9893 124.777 28.1943 125.497 28.6045C126.218 29.0146 126.772 29.6035 127.158 30.3711C127.545 31.1387 127.738 32.0381 127.738 33.0693ZM138.391 38H135.711V32.2607C135.711 31.5518 135.59 31.0215 135.35 30.6699C135.116 30.3125 134.744 30.1338 134.234 30.1338C133.548 30.1338 133.05 30.3857 132.74 30.8896C132.429 31.3936 132.274 32.2227 132.274 33.377V38H129.593V28.1738H131.641L132.002 29.4307H132.151C132.415 28.9795 132.795 28.6279 133.294 28.376C133.792 28.1182 134.363 27.9893 135.007 27.9893C136.478 27.9893 137.474 28.4697 137.996 29.4307H138.233C138.497 28.9736 138.883 28.6191 139.393 28.3672C139.909 28.1152 140.489 27.9893 141.133 27.9893C142.247 27.9893 143.087 28.2764 143.656 28.8506C144.23 29.4189 144.517 30.333 144.517 31.5928V38H141.828V32.2607C141.828 31.5518 141.708 31.0215 141.467 30.6699C141.233 30.3125 140.861 30.1338 140.351 30.1338C139.695 30.1338 139.203 30.3682 138.875 30.8369C138.552 31.3057 138.391 32.0498 138.391 33.0693V38ZM150.986 29.8965C150.418 29.8965 149.973 30.0781 149.65 30.4414C149.328 30.7988 149.143 31.3086 149.097 31.9707H152.858C152.847 31.3086 152.674 30.7988 152.34 30.4414C152.006 30.0781 151.555 29.8965 150.986 29.8965ZM151.364 38.1758C149.782 38.1758 148.546 37.7393 147.655 36.8662C146.765 35.9932 146.319 34.7568 146.319 33.1572C146.319 31.5107 146.729 30.2393 147.55 29.3428C148.376 28.4404 149.516 27.9893 150.969 27.9893C152.357 27.9893 153.438 28.3848 154.212 29.1758C154.985 29.9668 155.372 31.0596 155.372 32.4541V33.7549H149.035C149.064 34.5166 149.29 35.1113 149.712 35.5391C150.134 35.9668 150.726 36.1807 151.487 36.1807C152.079 36.1807 152.639 36.1191 153.166 35.9961C153.693 35.873 154.244 35.6768 154.818 35.4072V37.4814C154.35 37.7158 153.849 37.8887 153.315 38C152.782 38.1172 152.132 38.1758 151.364 38.1758ZM165.647 36.04C166.116 36.04 166.678 35.9375 167.335 35.7324V37.7275C166.667 38.0264 165.846 38.1758 164.874 38.1758C163.801 38.1758 163.019 37.9062 162.527 37.3672C162.041 36.8223 161.798 36.0078 161.798 34.9238V30.1865H160.514V29.0527L161.991 28.1562L162.764 26.082H164.478V28.1738H167.229V30.1865H164.478V34.9238C164.478 35.3047 164.584 35.5859 164.795 35.7676C165.011 35.9492 165.296 36.04 165.647 36.04ZM171.105 33.0693C171.105 34.042 171.264 34.7773 171.58 35.2754C171.902 35.7734 172.424 36.0225 173.145 36.0225C173.859 36.0225 174.372 35.7764 174.683 35.2842C174.999 34.7861 175.157 34.0479 175.157 33.0693C175.157 32.0967 174.999 31.3672 174.683 30.8809C174.366 30.3945 173.848 30.1514 173.127 30.1514C172.412 30.1514 171.896 30.3945 171.58 30.8809C171.264 31.3613 171.105 32.0908 171.105 33.0693ZM177.899 33.0693C177.899 34.6689 177.478 35.9199 176.634 36.8223C175.79 37.7246 174.615 38.1758 173.109 38.1758C172.166 38.1758 171.334 37.9707 170.613 37.5605C169.893 37.1445 169.339 36.5498 168.952 35.7764C168.565 35.0029 168.372 34.1006 168.372 33.0693C168.372 31.4639 168.791 30.2158 169.629 29.3252C170.467 28.4346 171.645 27.9893 173.162 27.9893C174.105 27.9893 174.938 28.1943 175.658 28.6045C176.379 29.0146 176.933 29.6035 177.319 30.3711C177.706 31.1387 177.899 32.0381 177.899 33.0693ZM194.942 31.4521C194.942 33.5674 194.339 35.1875 193.132 36.3125C191.93 37.4375 190.193 38 187.92 38H184.281V25.1504H188.315C190.413 25.1504 192.042 25.7041 193.202 26.8115C194.362 27.9189 194.942 29.4658 194.942 31.4521ZM192.112 31.5225C192.112 28.7627 190.893 27.3828 188.456 27.3828H187.006V35.75H188.175C190.8 35.75 192.112 34.3408 192.112 31.5225ZM199.17 33.0693C199.17 34.042 199.328 34.7773 199.645 35.2754C199.967 35.7734 200.488 36.0225 201.209 36.0225C201.924 36.0225 202.437 35.7764 202.747 35.2842C203.064 34.7861 203.222 34.0479 203.222 33.0693C203.222 32.0967 203.064 31.3672 202.747 30.8809C202.431 30.3945 201.912 30.1514 201.191 30.1514C200.477 30.1514 199.961 30.3945 199.645 30.8809C199.328 31.3613 199.17 32.0908 199.17 33.0693ZM205.964 33.0693C205.964 34.6689 205.542 35.9199 204.698 36.8223C203.855 37.7246 202.68 38.1758 201.174 38.1758C200.231 38.1758 199.399 37.9707 198.678 37.5605C197.957 37.1445 197.403 36.5498 197.017 35.7764C196.63 35.0029 196.437 34.1006 196.437 33.0693C196.437 31.4639 196.856 30.2158 197.693 29.3252C198.531 28.4346 199.709 27.9893 201.227 27.9893C202.17 27.9893 203.002 28.1943 203.723 28.6045C204.443 29.0146 204.997 29.6035 205.384 30.3711C205.771 31.1387 205.964 32.0381 205.964 33.0693ZM211.809 38.1758C208.75 38.1758 207.221 36.4971 207.221 33.1396C207.221 31.4697 207.637 30.1953 208.469 29.3164C209.301 28.4316 210.494 27.9893 212.046 27.9893C213.183 27.9893 214.203 28.2119 215.105 28.6572L214.314 30.7314C213.892 30.5615 213.499 30.4238 213.136 30.3184C212.773 30.207 212.41 30.1514 212.046 30.1514C210.652 30.1514 209.955 31.1416 209.955 33.1221C209.955 35.0439 210.652 36.0049 212.046 36.0049C212.562 36.0049 213.039 35.9375 213.479 35.8027C213.918 35.6621 214.358 35.4453 214.797 35.1523V37.4463C214.364 37.7217 213.924 37.9121 213.479 38.0176C213.039 38.123 212.483 38.1758 211.809 38.1758ZM224.518 34.4316C224.518 35.5918 224.099 36.5059 223.262 37.1738C222.43 37.8418 221.269 38.1758 219.781 38.1758C218.41 38.1758 217.197 37.918 216.142 37.4023V34.8711C217.01 35.2578 217.742 35.5303 218.34 35.6885C218.943 35.8467 219.494 35.9258 219.992 35.9258C220.59 35.9258 221.047 35.8115 221.363 35.583C221.685 35.3545 221.846 35.0146 221.846 34.5635C221.846 34.3115 221.776 34.0889 221.636 33.8955C221.495 33.6963 221.287 33.5059 221.012 33.3242C220.742 33.1426 220.188 32.8525 219.35 32.4541C218.565 32.085 217.976 31.7305 217.584 31.3906C217.191 31.0508 216.878 30.6553 216.643 30.2041C216.409 29.7529 216.292 29.2256 216.292 28.6221C216.292 27.4854 216.676 26.5918 217.443 25.9414C218.217 25.291 219.283 24.9658 220.642 24.9658C221.31 24.9658 221.946 25.0449 222.55 25.2031C223.159 25.3613 223.795 25.584 224.457 25.8711L223.578 27.9893C222.892 27.708 222.324 27.5117 221.873 27.4004C221.428 27.2891 220.988 27.2334 220.555 27.2334C220.039 27.2334 219.643 27.3535 219.368 27.5938C219.093 27.834 218.955 28.1475 218.955 28.5342C218.955 28.7744 219.011 28.9854 219.122 29.167C219.233 29.3428 219.409 29.5156 219.649 29.6855C219.895 29.8496 220.472 30.1484 221.381 30.582C222.582 31.1562 223.405 31.7334 223.85 32.3135C224.296 32.8877 224.518 33.5938 224.518 34.4316ZM231.673 38.1758C230.519 38.1758 229.613 37.7568 228.957 36.9189H228.817C228.91 37.7393 228.957 38.2139 228.957 38.3428V42.3242H226.277V28.1738H228.456L228.834 29.4482H228.957C229.584 28.4756 230.513 27.9893 231.743 27.9893C232.903 27.9893 233.812 28.4375 234.468 29.334C235.124 30.2305 235.452 31.4756 235.452 33.0693C235.452 34.1182 235.297 35.0293 234.986 35.8027C234.682 36.5762 234.245 37.165 233.677 37.5693C233.109 37.9736 232.441 38.1758 231.673 38.1758ZM230.882 30.1338C230.22 30.1338 229.736 30.3389 229.432 30.749C229.127 31.1533 228.969 31.8242 228.957 32.7617V33.0518C228.957 34.1064 229.112 34.8623 229.423 35.3193C229.739 35.7764 230.237 36.0049 230.917 36.0049C232.118 36.0049 232.719 35.0146 232.719 33.0342C232.719 32.0674 232.569 31.3438 232.271 30.8633C231.978 30.377 231.515 30.1338 230.882 30.1338ZM243.547 38L243.029 36.6641H242.959C242.507 37.2324 242.042 37.6279 241.561 37.8506C241.086 38.0674 240.465 38.1758 239.698 38.1758C238.754 38.1758 238.01 37.9062 237.465 37.3672C236.926 36.8281 236.657 36.0605 236.657 35.0645C236.657 34.0215 237.02 33.2539 237.747 32.7617C238.479 32.2637 239.581 31.9883 241.051 31.9355L242.756 31.8828V31.4521C242.756 30.4561 242.247 29.958 241.227 29.958C240.442 29.958 239.519 30.1953 238.459 30.6699L237.571 28.8594C238.702 28.2676 239.956 27.9717 241.333 27.9717C242.651 27.9717 243.662 28.2588 244.365 28.833C245.068 29.4072 245.419 30.2803 245.419 31.4521V38H243.547ZM242.756 33.4473L241.719 33.4824C240.94 33.5059 240.36 33.6465 239.979 33.9043C239.598 34.1621 239.408 34.5547 239.408 35.082C239.408 35.8379 239.841 36.2158 240.709 36.2158C241.33 36.2158 241.825 36.0371 242.194 35.6797C242.569 35.3223 242.756 34.8477 242.756 34.2559V33.4473ZM251.818 38.1758C248.76 38.1758 247.23 36.4971 247.23 33.1396C247.23 31.4697 247.646 30.1953 248.478 29.3164C249.31 28.4316 250.503 27.9893 252.056 27.9893C253.192 27.9893 254.212 28.2119 255.114 28.6572L254.323 30.7314C253.901 30.5615 253.509 30.4238 253.145 30.3184C252.782 30.207 252.419 30.1514 252.056 30.1514C250.661 30.1514 249.964 31.1416 249.964 33.1221C249.964 35.0439 250.661 36.0049 252.056 36.0049C252.571 36.0049 253.049 35.9375 253.488 35.8027C253.928 35.6621 254.367 35.4453 254.807 35.1523V37.4463C254.373 37.7217 253.933 37.9121 253.488 38.0176C253.049 38.123 252.492 38.1758 251.818 38.1758ZM260.801 29.8965C260.233 29.8965 259.787 30.0781 259.465 30.4414C259.143 30.7988 258.958 31.3086 258.911 31.9707H262.673C262.661 31.3086 262.489 30.7988 262.155 30.4414C261.821 30.0781 261.369 29.8965 260.801 29.8965ZM261.179 38.1758C259.597 38.1758 258.361 37.7393 257.47 36.8662C256.579 35.9932 256.134 34.7568 256.134 33.1572C256.134 31.5107 256.544 30.2393 257.365 29.3428C258.191 28.4404 259.33 27.9893 260.783 27.9893C262.172 27.9893 263.253 28.3848 264.027 29.1758C264.8 29.9668 265.187 31.0596 265.187 32.4541V33.7549H258.85C258.879 34.5166 259.105 35.1113 259.527 35.5391C259.948 35.9668 260.54 36.1807 261.302 36.1807C261.894 36.1807 262.453 36.1191 262.981 35.9961C263.508 35.873 264.059 35.6768 264.633 35.4072V37.4814C264.164 37.7158 263.663 37.8887 263.13 38C262.597 38.1172 261.947 38.1758 261.179 38.1758Z" fill="#333333"/>
<path d="M187 83.5H187.5V84V154V154.5H187H130H129.5V154V95.2654V95.0589L129.646 94.9126L140.864 83.6472L141.011 83.5H141.219H187Z" fill="white" stroke="#333333"/>
<path d="M140.646 83.6464C140.789 83.5034 141.005 83.4607 141.191 83.5381C141.378 83.6155 141.5 83.7978 141.5 84V95C141.5 95.2761 141.276 95.5 141 95.5H130C129.798 95.5 129.615 95.3782 129.538 95.1913C129.461 95.0045 129.503 94.7894 129.646 94.6464L140.646 83.6464Z" fill="#D9F4FF" stroke="#333333" stroke-linejoin="round"/>
<path d="M196 89.5H196.5V90V160V160.5H196H138H137.5V160V101.265V101.056L137.649 100.909L149.064 89.6441L149.21 89.5H149.415H196Z" fill="white" stroke="#333333"/>
<path d="M148.646 89.6464C148.789 89.5034 149.005 89.4607 149.191 89.5381C149.378 89.6155 149.5 89.7978 149.5 90V101C149.5 101.276 149.276 101.5 149 101.5H138C137.798 101.5 137.615 101.378 137.538 101.191C137.461 101.005 137.503 100.789 137.646 100.646L148.646 89.6464Z" fill="#D9F4FF" stroke="#333333" stroke-linejoin="round"/>
<path d="M204 94.5H204.5V95V165V165.5H204H146H145.5V165V106.169V105.959L145.65 105.812L157.066 94.6426L157.211 94.5H157.415H204Z" fill="white" stroke="#333333"/>
<path d="M156.846 94.6464C156.989 94.5034 157.204 94.4607 157.391 94.5381C157.578 94.6155 157.7 94.7978 157.7 95V105.8C157.7 106.076 157.476 106.3 157.2 106.3H146.4C146.198 106.3 146.015 106.178 145.938 105.991C145.861 105.805 145.903 105.589 146.046 105.446L156.846 94.6464Z" fill="url(#paint0_linear_7089_261802)" stroke="#333333" stroke-linejoin="round"/>
<path fill-rule="evenodd" clip-rule="evenodd" d="M194.5 113C194.776 113 195 113.224 195 113.5C195 113.776 194.776 114 194.5 114H164.5C164.224 114 164 113.776 164 113.5C164 113.224 164.224 113 164.5 113H194.5ZM176 126.5C176 126.224 175.776 126 175.5 126H156.5C156.224 126 156 126.224 156 126.5C156 126.776 156.224 127 156.5 127H175.5C175.776 127 176 126.776 176 126.5ZM170 147.5C170 147.224 169.776 147 169.5 147H156.5C156.224 147 156 147.224 156 147.5C156 147.776 156.224 148 156.5 148H169.5C169.776 148 170 147.776 170 147.5ZM178 133.5C178 133.776 177.776 134 177.5 134H156.5C156.224 134 156 133.776 156 133.5C156 133.224 156.224 133 156.5 133H177.5C177.776 133 178 133.224 178 133.5ZM194.5 120C194.776 120 195 120.224 195 120.5C195 120.776 194.776 121 194.5 121H156.5C156.224 121 156 120.776 156 120.5C156 120.224 156.224 120 156.5 120H194.5ZM173 140.5C173 140.224 172.776 140 172.5 140H156.5C156.224 140 156 140.224 156 140.5C156 140.776 156.224 141 156.5 141H172.5C172.776 141 173 140.776 173 140.5ZM169.5 153C169.776 153 170 153.224 170 153.5C170 153.776 169.776 154 169.5 154H156.5C156.224 154 156 153.776 156 153.5C156 153.224 156.224 153 156.5 153H169.5ZM195 126.5C195 126.224 194.776 126 194.5 126H179.5C179.224 126 179 126.224 179 126.5C179 126.776 179.224 127 179.5 127H194.5C194.776 127 195 126.776 195 126.5ZM194.452 146.435C194.728 146.435 194.952 146.658 194.952 146.935C194.952 147.211 194.728 147.435 194.452 147.435H179.176C178.9 147.435 178.676 147.211 178.676 146.935C178.676 146.658 178.9 146.435 179.176 146.435H194.452Z" fill="#333333"/>
<path d="M192.8 105H173" stroke="url(#paint1_linear_7089_261802)" stroke-width="2" stroke-linecap="round"/>
<path d="M193.5 171.5C204.513 171.5 213.5 162.519 213.5 151.5C213.5 140.481 204.519 131.5 193.5 131.5C182.481 131.5 173.5 140.481 173.5 151.5C173.5 162.519 182.481 171.5 193.5 171.5Z" fill="#D9F4FF" stroke="#333333"/>
<path d="M188.874 152.906L188.874 152.906L188.876 152.903L188.969 152.792C189.017 152.734 189.082 152.645 189.113 152.511C189.133 152.421 189.133 152.329 189.133 152.278C189.133 152.275 189.133 152.273 189.133 152.271V151.89V149.55V148.741L188.409 149.103C187.944 149.336 187.522 149.343 186.878 149.343C186.258 149.343 185.755 149.294 185.335 149.097L184.623 148.764V149.55V151.904V152.271C184.623 152.274 184.623 152.279 184.623 152.283C184.623 152.328 184.622 152.414 184.637 152.491C184.663 152.628 184.724 152.723 184.782 152.792L184.875 152.903L184.875 152.903L184.877 152.906C185.09 153.157 185.314 153.39 185.53 153.613C185.541 153.625 185.553 153.637 185.564 153.649C185.794 153.887 186.014 154.117 186.226 154.372L186.227 154.373C186.284 154.442 186.366 154.535 186.468 154.605C186.568 154.675 186.709 154.737 186.878 154.729C187.047 154.737 187.188 154.675 187.288 154.605C187.39 154.535 187.472 154.442 187.529 154.373L187.146 154.052L187.529 154.374C187.742 154.119 187.962 153.888 188.191 153.649C188.199 153.64 188.208 153.631 188.216 153.622C188.434 153.395 188.66 153.159 188.874 152.906Z" fill="white" stroke="#333333"/>
<circle cx="186.878" cy="145.455" r="4.68" fill="white" stroke="#333333"/>
<path fill-rule="evenodd" clip-rule="evenodd" d="M187.064 142.876C187.958 144.408 190.066 146.181 191.535 145.969C191.552 145.817 191.558 145.664 191.558 145.506C191.558 142.894 189.462 140.775 186.878 140.775C184.294 140.775 182.198 142.894 182.198 145.506C182.198 145.688 182.21 145.864 182.227 146.04C183.638 146.022 185.949 145.066 187.064 142.876Z" fill="#AAAAAA" stroke="#333333"/>
<path d="M186.818 154.216C186.525 153.839 186.174 153.486 185.852 153.164L185.831 153.143C185.53 152.842 185.258 152.569 185.038 152.302V151.598V151.001L184.451 151.105C182.457 151.458 180.83 152.276 179.537 153.313L179.142 153.63L179.464 154.021C181.211 156.142 183.855 157.493 186.818 157.493C189.762 157.493 192.393 156.155 194.14 154.058L194.465 153.669L194.071 153.35C192.796 152.316 191.314 151.473 189.308 151.106L188.718 150.998V151.598V152.271L186.818 154.216Z" fill="#D9F4FF" stroke="#333333"/>
<path d="M202.781 152.906L202.781 152.906L202.783 152.903L202.876 152.792C202.924 152.734 202.988 152.645 203.019 152.511C203.04 152.421 203.04 152.329 203.04 152.278C203.04 152.275 203.04 152.273 203.04 152.271V151.89V149.55V148.741L202.316 149.103C201.85 149.336 201.428 149.343 200.785 149.343C200.164 149.343 199.662 149.294 199.241 149.097L198.53 148.764V149.55V151.904V152.271C198.53 152.274 198.53 152.279 198.529 152.283C198.529 152.328 198.529 152.414 198.543 152.491C198.569 152.628 198.631 152.723 198.689 152.792L198.782 152.903L198.782 152.903L198.784 152.906C198.996 153.157 199.221 153.39 199.436 153.613C199.448 153.625 199.459 153.637 199.471 153.649C199.7 153.887 199.921 154.117 200.133 154.372L200.134 154.373C200.191 154.442 200.273 154.535 200.375 154.605C200.475 154.675 200.615 154.737 200.785 154.729C200.954 154.737 201.095 154.675 201.194 154.605C201.296 154.535 201.378 154.442 201.436 154.373L201.052 154.052L201.435 154.374C201.648 154.119 201.869 153.888 202.097 153.649C202.106 153.64 202.114 153.631 202.123 153.622C202.34 153.395 202.566 153.159 202.781 152.906Z" fill="white" stroke="#333333"/>
<circle cx="200.784" cy="145.455" r="4.68" fill="white" stroke="#333333"/>
<path fill-rule="evenodd" clip-rule="evenodd" d="M200.97 142.876C201.864 144.408 203.972 146.181 205.441 145.969C205.459 145.817 205.464 145.664 205.464 145.506C205.464 142.894 203.368 140.775 200.784 140.775C198.201 140.775 196.104 142.894 196.104 145.506C196.104 145.688 196.116 145.864 196.134 146.04C197.544 146.022 199.855 145.066 200.97 142.876Z" fill="#AAAAAA" stroke="#333333"/>
<path d="M200.724 154.216C200.432 153.839 200.08 153.486 199.758 153.164L199.738 153.143C199.437 152.842 199.164 152.569 198.944 152.302V151.598V151.001L198.357 151.105C196.363 151.458 194.737 152.276 193.444 153.313L193.048 153.63L193.37 154.021C195.118 156.142 197.762 157.493 200.724 157.493C203.668 157.493 206.3 156.155 208.047 154.058L208.371 153.669L207.977 153.35C206.702 152.316 205.221 151.473 203.214 151.106L202.624 150.998V151.598V152.271L200.724 154.216Z" fill="#D9F4FF" stroke="#333333"/>
<path d="M195.894 159.925L195.894 159.925L195.896 159.923L195.989 159.812C196.037 159.754 196.102 159.665 196.133 159.53C196.153 159.441 196.153 159.349 196.153 159.298C196.153 159.295 196.153 159.293 196.153 159.29V158.91V156.57V155.761L195.429 156.123C194.964 156.355 194.542 156.362 193.898 156.362C193.278 156.362 192.775 156.313 192.355 156.117L191.643 155.784V156.57V158.924V159.29C191.643 159.294 191.643 159.298 191.643 159.303C191.643 159.348 191.642 159.433 191.657 159.511C191.683 159.648 191.745 159.743 191.802 159.812L191.895 159.923L191.895 159.923L191.897 159.925C192.11 160.177 192.334 160.41 192.55 160.633C192.561 160.645 192.573 160.657 192.584 160.669C192.814 160.907 193.034 161.137 193.246 161.392L193.247 161.393C193.304 161.462 193.386 161.555 193.488 161.625C193.588 161.694 193.729 161.757 193.898 161.749C194.067 161.757 194.208 161.694 194.308 161.625C194.41 161.555 194.492 161.462 194.549 161.393L194.166 161.072L194.549 161.394C194.762 161.139 194.982 160.908 195.211 160.669C195.219 160.66 195.228 160.651 195.236 160.642C195.454 160.415 195.68 160.179 195.894 159.925Z" fill="white" stroke="#333333"/>
<circle cx="193.898" cy="152.475" r="4.68" fill="white" stroke="#333333"/>
<path fill-rule="evenodd" clip-rule="evenodd" d="M194.084 149.896C194.978 151.428 197.086 153.201 198.555 152.99C198.572 152.837 198.578 152.685 198.578 152.526C198.578 149.914 196.482 147.795 193.898 147.795C191.314 147.795 189.218 149.914 189.218 152.526C189.218 152.708 189.23 152.884 189.247 153.06C190.658 153.043 192.969 152.086 194.084 149.896Z" fill="#AAAAAA" stroke="#333333"/>
<path d="M193.838 161.235C193.545 160.858 193.194 160.505 192.872 160.183L192.851 160.163C192.55 159.862 192.278 159.589 192.058 159.321V158.617V158.021L191.471 158.125C189.477 158.478 187.85 159.296 186.557 160.333L186.162 160.65L186.484 161.041C188.231 163.162 190.875 164.512 193.838 164.512C196.782 164.512 199.413 163.174 201.16 161.078L201.485 160.689L201.091 160.37C199.816 159.336 198.334 158.493 196.328 158.126L195.738 158.018V158.617V159.291L193.838 161.235Z" fill="url(#paint2_linear_7089_261802)" stroke="#333333"/>
<line x1="134" y1="203.5" x2="221" y2="203.5" stroke="#666666" stroke-dasharray="2 2"/>
<path d="M124.7 195.816H122.055V194.319H124.7V191.653H126.197V194.319H128.843V195.816H126.197V198.448H124.7V195.816ZM138.591 191.626C137.793 191.626 137.176 191.927 136.738 192.528C136.301 193.125 136.082 193.959 136.082 195.03C136.082 197.259 136.918 198.373 138.591 198.373C139.293 198.373 140.143 198.198 141.141 197.847V199.624C140.32 199.966 139.404 200.137 138.393 200.137C136.939 200.137 135.827 199.697 135.057 198.817C134.286 197.933 133.901 196.666 133.901 195.017C133.901 193.978 134.09 193.068 134.469 192.289C134.847 191.505 135.389 190.906 136.096 190.491C136.807 190.072 137.638 189.862 138.591 189.862C139.562 189.862 140.537 190.097 141.517 190.566L140.833 192.289C140.459 192.111 140.083 191.956 139.705 191.824C139.327 191.692 138.955 191.626 138.591 191.626ZM147.375 192.214C147.658 192.214 147.892 192.234 148.079 192.275L147.922 194.23C147.753 194.185 147.548 194.162 147.307 194.162C146.641 194.162 146.122 194.333 145.748 194.675C145.379 195.017 145.194 195.495 145.194 196.11V200H143.109V192.357H144.688L144.996 193.643H145.099C145.336 193.214 145.655 192.87 146.056 192.61C146.461 192.346 146.901 192.214 147.375 192.214ZM152.632 193.697C152.19 193.697 151.843 193.839 151.593 194.121C151.342 194.399 151.199 194.796 151.162 195.311H154.088C154.079 194.796 153.944 194.399 153.685 194.121C153.425 193.839 153.074 193.697 152.632 193.697ZM152.926 200.137C151.695 200.137 150.734 199.797 150.041 199.118C149.348 198.439 149.002 197.478 149.002 196.233C149.002 194.953 149.321 193.964 149.959 193.267C150.602 192.565 151.488 192.214 152.618 192.214C153.698 192.214 154.539 192.521 155.141 193.137C155.742 193.752 156.043 194.602 156.043 195.687V196.698H151.114C151.137 197.291 151.312 197.753 151.641 198.086C151.969 198.419 152.429 198.585 153.021 198.585C153.482 198.585 153.917 198.537 154.327 198.441C154.737 198.346 155.166 198.193 155.612 197.983V199.597C155.248 199.779 154.858 199.913 154.443 200C154.029 200.091 153.523 200.137 152.926 200.137ZM162.592 200L162.188 198.961H162.134C161.783 199.403 161.421 199.711 161.047 199.884C160.678 200.052 160.195 200.137 159.598 200.137C158.864 200.137 158.285 199.927 157.861 199.508C157.442 199.089 157.232 198.492 157.232 197.717C157.232 196.906 157.515 196.309 158.08 195.926C158.65 195.538 159.507 195.324 160.65 195.283L161.977 195.242V194.907C161.977 194.132 161.58 193.745 160.787 193.745C160.176 193.745 159.459 193.93 158.634 194.299L157.943 192.891C158.823 192.43 159.798 192.2 160.869 192.2C161.895 192.2 162.681 192.424 163.228 192.87C163.774 193.317 164.048 193.996 164.048 194.907V200H162.592ZM161.977 196.459L161.17 196.486C160.564 196.505 160.113 196.614 159.816 196.814C159.52 197.015 159.372 197.32 159.372 197.73C159.372 198.318 159.709 198.612 160.384 198.612C160.867 198.612 161.252 198.473 161.539 198.195C161.831 197.917 161.977 197.548 161.977 197.088V196.459ZM169.421 198.476C169.785 198.476 170.223 198.396 170.733 198.236V199.788C170.214 200.021 169.576 200.137 168.819 200.137C167.985 200.137 167.377 199.927 166.994 199.508C166.616 199.084 166.427 198.451 166.427 197.607V193.923H165.429V193.041L166.577 192.344L167.179 190.73H168.512V192.357H170.651V193.923H168.512V197.607C168.512 197.904 168.594 198.122 168.758 198.264C168.926 198.405 169.147 198.476 169.421 198.476ZM175.45 193.697C175.008 193.697 174.662 193.839 174.411 194.121C174.16 194.399 174.017 194.796 173.98 195.311H176.906C176.897 194.796 176.763 194.399 176.503 194.121C176.243 193.839 175.892 193.697 175.45 193.697ZM175.744 200.137C174.514 200.137 173.552 199.797 172.859 199.118C172.167 198.439 171.82 197.478 171.82 196.233C171.82 194.953 172.139 193.964 172.777 193.267C173.42 192.565 174.306 192.214 175.437 192.214C176.517 192.214 177.357 192.521 177.959 193.137C178.561 193.752 178.861 194.602 178.861 195.687V196.698H173.933C173.955 197.291 174.131 197.753 174.459 198.086C174.787 198.419 175.247 198.585 175.84 198.585C176.3 198.585 176.735 198.537 177.146 198.441C177.556 198.346 177.984 198.193 178.431 197.983V199.597C178.066 199.779 177.676 199.913 177.262 200C176.847 200.091 176.341 200.137 175.744 200.137ZM188.459 192.214C188.742 192.214 188.976 192.234 189.163 192.275L189.006 194.23C188.837 194.185 188.632 194.162 188.391 194.162C187.725 194.162 187.206 194.333 186.832 194.675C186.463 195.017 186.278 195.495 186.278 196.11V200H184.193V192.357H185.772L186.08 193.643H186.183C186.42 193.214 186.739 192.87 187.14 192.61C187.545 192.346 187.985 192.214 188.459 192.214ZM192.212 196.165C192.212 196.922 192.335 197.493 192.581 197.881C192.832 198.268 193.237 198.462 193.798 198.462C194.354 198.462 194.753 198.271 194.994 197.888C195.24 197.5 195.363 196.926 195.363 196.165C195.363 195.409 195.24 194.841 194.994 194.463C194.748 194.085 194.345 193.896 193.784 193.896C193.228 193.896 192.827 194.085 192.581 194.463C192.335 194.837 192.212 195.404 192.212 196.165ZM197.496 196.165C197.496 197.409 197.168 198.382 196.512 199.084C195.855 199.786 194.942 200.137 193.771 200.137C193.037 200.137 192.39 199.977 191.829 199.658C191.269 199.335 190.838 198.872 190.537 198.271C190.236 197.669 190.086 196.967 190.086 196.165C190.086 194.916 190.412 193.946 191.063 193.253C191.715 192.56 192.631 192.214 193.812 192.214C194.545 192.214 195.192 192.373 195.753 192.692C196.313 193.011 196.744 193.469 197.045 194.066C197.346 194.663 197.496 195.363 197.496 196.165ZM200.88 196.165C200.88 196.922 201.003 197.493 201.249 197.881C201.5 198.268 201.905 198.462 202.466 198.462C203.022 198.462 203.421 198.271 203.662 197.888C203.908 197.5 204.031 196.926 204.031 196.165C204.031 195.409 203.908 194.841 203.662 194.463C203.416 194.085 203.013 193.896 202.452 193.896C201.896 193.896 201.495 194.085 201.249 194.463C201.003 194.837 200.88 195.404 200.88 196.165ZM206.164 196.165C206.164 197.409 205.836 198.382 205.18 199.084C204.523 199.786 203.61 200.137 202.438 200.137C201.705 200.137 201.058 199.977 200.497 199.658C199.937 199.335 199.506 198.872 199.205 198.271C198.904 197.669 198.754 196.967 198.754 196.165C198.754 194.916 199.08 193.946 199.731 193.253C200.383 192.56 201.299 192.214 202.479 192.214C203.213 192.214 203.86 192.373 204.421 192.692C204.981 193.011 205.412 193.469 205.713 194.066C206.014 194.663 206.164 195.363 206.164 196.165ZM214.729 200H212.645V195.536C212.645 194.985 212.551 194.572 212.364 194.299C212.182 194.021 211.893 193.882 211.496 193.882C210.963 193.882 210.576 194.078 210.334 194.47C210.092 194.862 209.972 195.507 209.972 196.404V200H207.887V192.357H209.479L209.76 193.335H209.876C210.081 192.984 210.377 192.711 210.765 192.515C211.152 192.314 211.596 192.214 212.098 192.214C213.242 192.214 214.016 192.588 214.422 193.335H214.606C214.812 192.979 215.112 192.704 215.509 192.508C215.91 192.312 216.361 192.214 216.862 192.214C217.728 192.214 218.382 192.437 218.824 192.884C219.271 193.326 219.494 194.037 219.494 195.017V200H217.402V195.536C217.402 194.985 217.309 194.572 217.122 194.299C216.94 194.021 216.65 193.882 216.254 193.882C215.743 193.882 215.361 194.064 215.105 194.429C214.855 194.793 214.729 195.372 214.729 196.165V200Z" fill="#666666"/>
<path d="M390.395 19.6011H314.604V70.3988H390.395V19.6011Z" fill="white"/>
<path d="M390.5 70.5H314.5V19.5H390.5V70.5Z" stroke="#CCCCCC"/>
<path d="M380 30H364V31H380V30Z" fill="#CCCCCC"/>
<path d="M380 37H364V38H380V37Z" fill="#CCCCCC"/>
<path d="M380 44H364V45H380V44Z" fill="#CCCCCC"/>
<path d="M380 51H364V52H380V51Z" fill="#CCCCCC"/>
<path d="M380 58H364V59H380V58Z" fill="#CCCCCC"/>
<path d="M354 30H323V60H354V30Z" fill="white"/>
<path d="M354.5 60.5H323.5V29.5H354.5V60.5Z" stroke="#CCCCCC"/>
<path d="M323.429 53.5815L330.54 46.6413L335.321 51.3678L346.111 40.8379L354.57 49.0943" fill="white"/>
<path d="M323.858 54L323 53.1624L330.54 45.8034L335.322 50.4701L346.111 40L355 48.6752L354.142 49.5128L346.111 41.6752L335.322 52.2051L330.54 47.5385L323.858 54Z" fill="#CCCCCC"/>
<path d="M333.736 40.401C335.265 40.401 336.504 39.1629 336.504 37.6357C336.504 36.1084 335.265 34.8704 333.736 34.8704C332.208 34.8704 330.968 36.1084 330.968 37.6357C330.968 39.1629 332.208 40.401 333.736 40.401Z" fill="white"/>
<path d="M333.5 41C331.562 41 330 39.4375 330 37.5C330 35.5625 331.562 34 333.5 34C335.437 34 337 35.5625 337 37.5C337 39.4375 335.437 41 333.5 41ZM333.5 35.3125C332.25 35.3125 331.25 36.3125 331.25 37.5625C331.25 38.8125 332.25 39.8125 333.5 39.8125C334.75 39.8125 335.75 38.8125 335.75 37.5625C335.75 36.3125 334.75 35.3125 333.5 35.3125Z" fill="#CCCCCC"/>
<path d="M364 227H356.154L356 226H363V170H322V178L321 177.772V169H364V227Z" fill="#CCCCCC"/>
<path d="M356.073 235.597H313.763V177.849H344.028L356.073 189.834V235.597Z" fill="white"/>
<path d="M356.5 235.5H313.5V177.5H344.189L356.5 189.795V235.5Z" stroke="#CCCCCC"/>
<path d="M344.354 177.646C344.211 177.503 343.995 177.46 343.809 177.538C343.622 177.615 343.5 177.798 343.5 178V190C343.5 190.276 343.724 190.5 344 190.5H356C356.202 190.5 356.385 190.378 356.462 190.191C356.539 190.004 356.497 189.789 356.354 189.646L344.354 177.646Z" fill="white" stroke="#CCCCCC" stroke-linejoin="round"/>
<path d="M335.925 192H321V193H335.925V192Z" fill="#CCCCCC"/>
<path d="M348 199H321V200H348V199Z" fill="#CCCCCC"/>
<path d="M348 206H321V207H348V206Z" fill="#CCCCCC"/>
<path d="M348 213H321V214H348V213Z" fill="#CCCCCC"/>
<path d="M348 220H321V221H348V220Z" fill="#CCCCCC"/>
<path d="M440.976 100.888C440.976 100.173 440.499 99.5374 439.864 99.2196L411.913 85.2383C411.357 84.9206 410.722 84.9206 410.166 85.2383L382.135 99.2196C381.5 99.5374 381.103 100.173 381.024 100.888C381.024 101.285 380.547 110.977 383.882 122.257C385.867 128.93 388.726 134.729 392.458 139.575C397.143 145.612 403.178 150.14 410.325 152.841C410.563 152.921 410.801 153 411.039 153C411.277 153 411.516 152.921 411.754 152.841C418.901 150.14 424.935 145.612 429.62 139.575C433.353 134.729 436.211 128.93 438.196 122.257C441.452 110.977 440.976 101.285 440.976 100.888ZM431.844 120.986C428.191 133.299 421.203 141.561 410.96 145.692C400.716 141.561 393.729 133.299 390.076 120.986C387.853 113.439 387.614 106.528 387.614 103.986L410.88 92.3084L434.147 103.986C434.305 106.528 434.147 113.439 431.844 120.986Z" fill="white"/>
<path d="M411 154C410.68 154 410.36 153.92 410.039 153.84C402.676 151.039 396.512 146.478 391.63 140.236C387.788 135.275 384.906 129.353 382.905 122.551C379.543 111.108 380.024 101.185 380.024 100.785C380.104 99.7445 380.664 98.8642 381.545 98.3841L409.719 84.3001C410.52 83.9 411.48 83.9 412.201 84.3001L440.455 98.3841C441.336 98.8642 441.976 99.7445 441.976 100.785C441.976 101.185 442.457 111.108 439.095 122.551C437.094 129.353 434.132 135.275 430.37 140.236C425.568 146.478 419.404 151.039 411.961 153.84C411.64 153.92 411.32 154 411 154ZM411 85.5805C410.84 85.5805 410.6 85.6605 410.44 85.7405L382.265 99.8245C381.865 99.9846 381.625 100.385 381.625 100.865C381.625 101.265 381.144 110.948 384.426 122.151C386.347 128.793 389.229 134.554 392.91 139.276C397.553 145.278 403.476 149.679 410.6 152.4C410.84 152.48 411.16 152.48 411.48 152.4C418.604 149.679 424.527 145.278 429.17 139.276C432.851 134.474 435.733 128.713 437.654 122.151C440.936 110.948 440.455 101.345 440.455 100.865C440.455 100.465 440.215 100.065 439.815 99.8245L411.56 85.7405C411.32 85.6605 411.16 85.5805 411 85.5805ZM411 146.798L410.68 146.638C400.194 142.397 392.91 133.914 389.229 121.271C386.987 113.588 386.747 106.546 386.747 103.906V103.426L411 91.2621L435.253 103.426V103.906C435.253 106.546 435.013 113.588 432.771 121.271C429.009 133.914 421.806 142.397 411.32 146.638L411 146.798ZM388.348 104.386C388.348 107.267 388.668 113.748 390.749 120.791C394.271 132.794 401.075 140.956 411 145.037C420.845 140.956 427.649 132.794 431.251 120.791C433.332 113.668 433.652 107.267 433.652 104.386L411 93.0226L388.348 104.386Z" fill="#CCCCCC"/>
<path d="M409.108 125C408.865 125 408.703 124.922 408.541 124.767L401.243 117.777C400.919 117.466 400.919 117 401.243 116.689C401.568 116.379 402.054 116.379 402.378 116.689L409.108 123.136L423.622 109.233C423.946 108.922 424.432 108.922 424.757 109.233C425.081 109.544 425.081 110.01 424.757 110.32L409.676 124.767C409.514 124.922 409.27 125 409.108 125Z" fill="#CCCCCC"/>
<defs>
<linearGradient id="paint0_linear_7089_261802" x1="157.2" y1="94.5781" x2="146.4" y2="105.8" gradientUnits="userSpaceOnUse">
<stop stop-color="#FF8E3D"/>
<stop offset="1" stop-color="#FF6F3D"/>
</linearGradient>
<linearGradient id="paint1_linear_7089_261802" x1="192.8" y1="104.961" x2="192.703" y2="106.958" gradientUnits="userSpaceOnUse">
<stop stop-color="#FF8E3D"/>
<stop offset="1" stop-color="#FF6F3D"/>
</linearGradient>
<linearGradient id="paint2_linear_7089_261802" x1="186.87" y1="158.407" x2="190.408" y2="167.883" gradientUnits="userSpaceOnUse">
<stop stop-color="#FF8E3D"/>
<stop offset="1" stop-color="#FF6F3D"/>
</linearGradient>
<clipPath id="clip0_7089_261802">
<rect width="30" height="30" fill="white" transform="translate(12 16)"/>
</clipPath>
</defs>
</svg>
