<svg width="432" height="48" viewBox="0 0 432 48" fill="none" xmlns="http://www.w3.org/2000/svg">
<path d="M8 8.46917C8 7.10549 9.11929 6 10.5 6H35.5C36.8807 6 38 7.10548 38 8.46917V43.5039C38 44.8676 36.9625 46 35.5818 46H10.5C9.11929 46 8 44.8945 8 43.5308V8.46917Z" fill="#EFEFEF"/>
<path fill-rule="evenodd" clip-rule="evenodd" d="M10.5 5H35.5C37.4213 5 39 6.54154 39 8.46917V43.5039C39 45.3733 37.5602 47 35.5818 47H10.5C8.57874 47 7 45.4585 7 43.5308V8.46917C7 6.54154 8.57874 5 10.5 5ZM10.5 6C9.11929 6 8 7.10549 8 8.46917V43.5308C8 44.8945 9.11929 46 10.5 46H35.5818C36.9625 46 38 44.8676 38 43.5039V8.46917C38 7.10548 36.8807 6 35.5 6H10.5Z" fill="#333333"/>
<path fill-rule="evenodd" clip-rule="evenodd" d="M26.0088 3.23078C25.7399 0.279044 21 1 20.72 3.23078H14.3029C13.5833 3.23078 13 3.72862 13 4.34275V6.88803C13 7.50216 13.5833 8 14.3029 8H31.6971C32.4167 8 33 7.50216 33 6.88803V4.34275C33 3.72862 32.4167 3.23078 31.6971 3.23078H26.0088Z" fill="url(#paint0_linear)"/>
<path fill-rule="evenodd" clip-rule="evenodd" d="M25.0919 3.99997V3.40622C25.0121 2.48711 24.3573 2.00404 23.5 1.99997C22.6492 1.99594 21.7197 2.55129 21.6286 3.49997V3.99997H14.3029C14.1848 3.99997 14.0978 4.04269 14.0487 4.08665C14.0013 4.12905 14 4.15882 14 4.16664V6.83714C14 6.84495 14.0013 6.87473 14.0487 6.91712C14.0978 6.96109 14.1848 7.0038 14.3029 7.0038H31.6971C31.8152 7.0038 31.9022 6.96109 31.9513 6.91712C31.9987 6.87473 32 6.84495 32 6.83714V4.16664C32 4.15882 31.9987 4.12905 31.9513 4.08665C31.9022 4.04269 31.8152 3.99997 31.6971 3.99997H25.0919ZM26.0088 2.99997C25.5 0.5 21.6286 0.234375 20.72 2.99997H14.3029C13.5833 2.99997 13 3.52231 13 4.16664V6.83714C13 7.48147 13.5833 8.0038 14.3029 8.0038H31.6971C32.4167 8.0038 33 7.48147 33 6.83714V4.16664C33 3.52231 32.4167 2.99997 31.6971 2.99997H26.0088Z" fill="#333333"/>
<path d="M12 11.0053C12 10.4501 12.4753 10 13.0616 10H33.9384C34.5247 10 35 10.4501 35 11.0053V36.7528C35 37.0198 34.8879 37.2758 34.6883 37.4644L30.1997 41.7063C30.0007 41.8944 29.731 42 29.4498 42H13.0616C12.4753 42 12 41.5499 12 40.9947V11.0053Z" fill="white"/>
<path fill-rule="evenodd" clip-rule="evenodd" d="M33.9384 11H13.0616C13.0288 11 13.0091 11.0113 13 11.0192V40.9808C13.0091 40.9887 13.0288 41 13.0616 41H29.4498C29.4831 41 29.5049 40.987 29.5128 40.9795L34 36.739V11.0192C33.9909 11.0113 33.9712 11 33.9384 11ZM13.0616 10C12.4753 10 12 10.4501 12 11.0053V40.9947C12 41.5499 12.4753 42 13.0616 42H29.4498C29.731 42 30.0007 41.8944 30.1997 41.7063L34.6883 37.4644C34.8879 37.2758 35 37.0198 35 36.7528V11.0053C35 10.4501 34.5247 10 33.9384 10H13.0616Z" fill="#333333"/>
<path d="M15.5 19.2367C15.5 18.8298 15.8255 18.5 16.227 18.5H21.773C22.1745 18.5 22.5 18.8298 22.5 19.2367V24.7633C22.5 25.1702 22.1745 25.5 21.773 25.5H16.227C15.8255 25.5 15.5 25.1702 15.5 24.7633V19.2367Z" fill="#BDECFF"/>
<path fill-rule="evenodd" clip-rule="evenodd" d="M15 19.2367C15 18.5599 15.5431 18 16.227 18H19.3958C19.6719 18 19.8958 18.2239 19.8958 18.5C19.8958 18.7761 19.6719 19 19.3958 19H16.227C16.1078 19 16 19.0997 16 19.2367V24.7633C16 24.9003 16.1078 25 16.227 25H21.773C21.8922 25 22 24.9003 22 24.7633V24.1061C22 23.83 22.2239 23.6061 22.5 23.6061C22.7761 23.6061 23 23.83 23 24.1061V24.7633C23 25.4401 22.4569 26 21.773 26H16.227C15.5431 26 15 25.4401 15 24.7633V19.2367Z" fill="#333333"/>
<path fill-rule="evenodd" clip-rule="evenodd" d="M23.2649 18.6488C23.5283 18.878 23.5853 19.2229 23.3594 19.4902L20.153 23.2774C20.0396 23.4117 19.8763 23.4921 19.7022 23.4994C19.5282 23.5068 19.3589 23.4404 19.2349 23.3162L17.6869 21.7314C17.44 21.4841 17.4374 21.0804 17.6811 20.8297C17.9247 20.5791 18.3225 20.5764 18.5694 20.8238L19.7022 21.9527L22.3821 18.7293C22.608 18.462 23.0016 18.4196 23.2649 18.6488Z" fill="#333333"/>
<path fill-rule="evenodd" clip-rule="evenodd" d="M25 20.5C25 20.2239 25.2239 20 25.5 20H31.5C31.7761 20 32 20.2239 32 20.5C32 20.7761 31.7761 21 31.5 21H25.5C25.2239 21 25 20.7761 25 20.5Z" fill="#333333"/>
<path fill-rule="evenodd" clip-rule="evenodd" d="M25 22.5C25 22.2239 25.2239 22 25.5 22H28.5C28.7761 22 29 22.2239 29 22.5C29 22.7761 28.7761 23 28.5 23H25.5C25.2239 23 25 22.7761 25 22.5Z" fill="#333333"/>
<path d="M15.5 29.2367C15.5 28.8298 15.8255 28.5 16.227 28.5H21.773C22.1745 28.5 22.5 28.8298 22.5 29.2367V34.7633C22.5 35.1702 22.1745 35.5 21.773 35.5H16.227C15.8255 35.5 15.5 35.1702 15.5 34.7633V29.2367Z" fill="#BDECFF"/>
<path fill-rule="evenodd" clip-rule="evenodd" d="M15 29.2367C15 28.5599 15.5431 28 16.227 28H19.3958C19.6719 28 19.8958 28.2239 19.8958 28.5C19.8958 28.7761 19.6719 29 19.3958 29H16.227C16.1078 29 16 29.0997 16 29.2367V34.7633C16 34.9003 16.1078 35 16.227 35H21.773C21.8922 35 22 34.9003 22 34.7633V34.1061C22 33.83 22.2239 33.6061 22.5 33.6061C22.7761 33.6061 23 33.83 23 34.1061V34.7633C23 35.4401 22.4569 36 21.773 36H16.227C15.5431 36 15 35.4401 15 34.7633V29.2367Z" fill="#333333"/>
<path fill-rule="evenodd" clip-rule="evenodd" d="M23.2649 28.6488C23.5283 28.878 23.5853 29.2229 23.3594 29.4902L20.153 33.2774C20.0396 33.4117 19.8763 33.4921 19.7022 33.4994C19.5282 33.5068 19.3589 33.4404 19.2349 33.3162L17.6869 31.7314C17.44 31.4841 17.4374 31.0804 17.6811 30.8297C17.9247 30.5791 18.3225 30.5764 18.5694 30.8238L19.7022 31.9527L22.3821 28.7293C22.608 28.462 23.0016 28.4196 23.2649 28.6488Z" fill="#333333"/>
<path fill-rule="evenodd" clip-rule="evenodd" d="M25 30.5C25 30.2239 25.2239 30 25.5 30H31.5C31.7761 30 32 30.2239 32 30.5C32 30.7761 31.7761 31 31.5 31H25.5C25.2239 31 25 30.7761 25 30.5Z" fill="#333333"/>
<path fill-rule="evenodd" clip-rule="evenodd" d="M25 32.5C25 32.2239 25.2239 32 25.5 32H28.5C28.7761 32 29 32.2239 29 32.5C29 32.7761 28.7761 33 28.5 33H25.5C25.2239 33 25 32.7761 25 32.5Z" fill="#333333"/>
<path fill-rule="evenodd" clip-rule="evenodd" d="M29 36L35 36L34.5 37H30V41.5L29 42V36Z" fill="#333333"/>
<path fill-rule="evenodd" clip-rule="evenodd" d="M18 14.5C18 14.2239 18.2526 14 18.4231 14L27.5308 14C27.7404 14 28 14.2239 28 14.5C28 14.7761 27.7404 15 27.5308 15H18.4231C18.2526 15 18 14.7761 18 14.5Z" fill="#333333"/>
<path d="M68 8C68 6.89543 68.8954 6 70 6H106C107.105 6 108 6.89543 108 8V40C108 41.1046 107.105 42 106 42H70C68.8954 42 68 41.1046 68 40V8Z" fill="white"/>
<path fill-rule="evenodd" clip-rule="evenodd" d="M106 7H70C69.4477 7 69 7.44772 69 8V40C69 40.5523 69.4477 41 70 41H106C106.552 41 107 40.5523 107 40V8C107 7.44772 106.552 7 106 7ZM70 6C68.8954 6 68 6.89543 68 8V40C68 41.1046 68.8954 42 70 42H106C107.105 42 108 41.1046 108 40V8C108 6.89543 107.105 6 106 6H70Z" fill="#333333"/>
<path d="M78 14.5C78 14.2239 78.2239 14 78.5 14C78.7761 14 79 14.2239 79 14.5V33.5C79 33.7761 78.7761 34 78.5 34C78.2239 34 78 33.7761 78 33.5V14.5Z" fill="#333333"/>
<path d="M98 14.5C98 14.2239 98.2239 14 98.5 14C98.7761 14 99 14.2239 99 14.5V33.5C99 33.7761 98.7761 34 98.5 34C98.2239 34 98 33.7761 98 33.5V14.5Z" fill="#333333"/>
<path d="M88 14.5C88 14.2239 88.2239 14 88.5 14C88.7761 14 89 14.2239 89 14.5V33.5C89 33.7761 88.7761 34 88.5 34C88.2239 34 88 33.7761 88 33.5V14.5Z" fill="#333333"/>
<path d="M76 27.5C76 26.6716 76.6716 26 77.5 26H79.5C80.3284 26 81 26.6716 81 27.5C81 28.3284 80.3284 29 79.5 29H77.5C76.6716 29 76 28.3284 76 27.5Z" fill="url(#paint1_linear)"/>
<path fill-rule="evenodd" clip-rule="evenodd" d="M77.5 25H79.5C80.8807 25 82 26.1193 82 27.5C82 28.8807 80.8807 30 79.5 30H77.5C76.1193 30 75 28.8807 75 27.5C75 26.1193 76.1193 25 77.5 25ZM77.5 26C76.6716 26 76 26.6716 76 27.5C76 28.3284 76.6716 29 77.5 29H79.5C80.3284 29 81 28.3284 81 27.5C81 26.6716 80.3284 26 79.5 26H77.5Z" fill="#333333"/>
<path d="M86 21.5C86 20.6716 86.6716 20 87.5 20H89.5C90.3284 20 91 20.6716 91 21.5C91 22.3284 90.3284 23 89.5 23H87.5C86.6716 23 86 22.3284 86 21.5Z" fill="url(#paint2_linear)"/>
<path fill-rule="evenodd" clip-rule="evenodd" d="M87.5 19H89.5C90.8807 19 92 20.1193 92 21.5C92 22.8807 90.8807 24 89.5 24H87.5C86.1193 24 85 22.8807 85 21.5C85 20.1193 86.1193 19 87.5 19ZM87.5 20C86.6716 20 86 20.6716 86 21.5C86 22.3284 86.6716 23 87.5 23H89.5C90.3284 23 91 22.3284 91 21.5C91 20.6716 90.3284 20 89.5 20H87.5Z" fill="#333333"/>
<path d="M96 26.5C96 25.6716 96.6716 25 97.5 25H99.5C100.328 25 101 25.6716 101 26.5C101 27.3284 100.328 28 99.5 28H97.5C96.6716 28 96 27.3284 96 26.5Z" fill="url(#paint3_linear)"/>
<path fill-rule="evenodd" clip-rule="evenodd" d="M97.5 24H99.5C100.881 24 102 25.1193 102 26.5C102 27.8807 100.881 29 99.5 29H97.5C96.1193 29 95 27.8807 95 26.5C95 25.1193 96.1193 24 97.5 24ZM97.5 25C96.6716 25 96 25.6716 96 26.5C96 27.3284 96.6716 28 97.5 28H99.5C100.328 28 101 27.3284 101 26.5C101 25.6716 100.328 25 99.5 25H97.5Z" fill="#333333"/>
<g clip-path="url(#clip0)">
<path fill-rule="evenodd" clip-rule="evenodd" d="M137 24.9971V13.9971H134.001C132.175 13.9971 131 15.296 131 16.9992V24.9971H137Z" fill="#BDECFF"/>
<path fill-rule="evenodd" clip-rule="evenodd" d="M134.001 13.9971C132.175 13.9971 131 15.296 131 16.9992V24.9971H137V13.9971H134.001ZM136 14.9971H134.001C133.335 14.9971 132.851 15.2285 132.533 15.5561C132.211 15.8882 132 16.3802 132 16.9992V23.9971H136V14.9971Z" fill="#333333"/>
<path d="M136 4.00076C136 2.89577 136.895 2 138 2H158.023C158.023 2 158.252 2.21099 158.627 2.58652L162.414 6.37823C162.789 6.7534 163 7.01515 163 7.01515V27.9992C163 29.1084 162.098 30.0059 160.989 30L137.989 29.8778C136.889 29.8719 136 28.9779 136 27.877V4.00076Z" fill="white"/>
<path fill-rule="evenodd" clip-rule="evenodd" d="M137.994 28.8778L160.994 29C161.548 29.0029 162 28.5544 162 27.9992V7.39032C161.921 7.30469 161.823 7.20106 161.707 7.08494L157.919 3.29324C157.805 3.17903 157.706 3.08081 157.623 3H138C137.448 3 137 3.4477 137 4.00076V27.877C137 28.428 137.445 28.8749 137.994 28.8778ZM158.023 2H138C136.895 2 136 2.89577 136 4.00076V27.877C136 28.9779 136.889 29.8719 137.989 29.8778L160.989 30C162.098 30.0059 163 29.1084 163 27.9992V7.01515C163 7.01515 162.789 6.7534 162.414 6.37823L158.627 2.58652C158.252 2.21099 158.023 2 158.023 2Z" fill="#333333"/>
<path d="M158 3L162 7H158V3Z" fill="url(#paint4_linear)"/>
<path fill-rule="evenodd" clip-rule="evenodd" d="M157.617 2.07615C157.991 1.92137 158.421 2.00692 158.707 2.29292L162.707 6.29292C162.993 6.57892 163.078 7.00904 162.924 7.38271C162.769 7.75639 162.404 8.00003 162 8.00003H158C157.447 8.00003 157 7.55231 157 7.00003V3.00003C157 2.59557 157.243 2.23093 157.617 2.07615ZM162 7.00003L158 3.00003V7.00003H162Z" fill="#333333"/>
<path fill-rule="evenodd" clip-rule="evenodd" d="M162 13.9971V20.9971H168V16.7149C168 15.0516 166.663 13.9971 165.214 13.9971H162Z" fill="#BDECFF"/>
<path fill-rule="evenodd" clip-rule="evenodd" d="M162 20.9971V13.9971H165.214C166.663 13.9971 168 15.0516 168 16.7149V20.9971H162ZM167 19.9971V16.7149C167 15.6854 166.196 14.9971 165.214 14.9971H163V19.9971H167Z" fill="#333333"/>
<path fill-rule="evenodd" clip-rule="evenodd" d="M148.633 21.7196L145.5 25H131.061C129.825 25 129 25.5 129 27L131.454 41.38C131.592 42.2575 132.484 43 133.72 43H166.814C168.05 43 169.011 42.2575 169.08 41.38L170.986 22.3228C171.098 21.7716 170.537 21 169.529 21H150.392C149.719 21 149.113 21.2471 148.633 21.7196Z" fill="url(#paint5_linear)"/>
<path fill-rule="evenodd" clip-rule="evenodd" d="M147.92 21.0176L147.932 21.0065C148.6 20.3497 149.458 20 150.392 20H169.529C170.971 20 172.2 21.1537 171.977 22.4633L170.076 41.4702C169.944 43.0547 168.348 44 166.814 44H133.72C132.114 44 130.702 43.0114 130.468 41.5423L128 27.0847L128 27C128 26.0699 128.261 25.2459 128.912 24.6817C129.535 24.1424 130.335 24 131.061 24H145.072L147.92 21.0176ZM145.5 25H131.061C129.825 25 129 25.5 129 27L131.454 41.38C131.592 42.2575 132.484 43 133.72 43H166.814C168.05 43 169.011 42.2575 169.08 41.38L170.986 22.3228C171.098 21.7716 170.537 21 169.529 21H150.392C149.719 21 149.113 21.2471 148.633 21.7196L145.5 25Z" fill="#333333"/>
<path d="M150.247 5.67664H139.783V14.3094H150.247V5.67664Z" fill="white"/>
<path fill-rule="evenodd" clip-rule="evenodd" d="M139 5.69777C139 5.31244 139.317 5.00006 139.708 5.00006H150.292C150.683 5.00006 151 5.31244 151 5.69777V14.3024C151 14.6877 150.683 15.0001 150.292 15.0001H139.708C139.317 15.0001 139 14.6877 139 14.3024V5.69777Z" fill="white"/>
<path fill-rule="evenodd" clip-rule="evenodd" d="M140 6.00006V14.0001H150V6.00006H140ZM139.708 5.00006C139.317 5.00006 139 5.31244 139 5.69777V14.3024C139 14.6877 139.317 15.0001 139.708 15.0001H150.292C150.683 15.0001 151 14.6877 151 14.3024V5.69777C151 5.31244 150.683 5.00006 150.292 5.00006H139.708Z" fill="#333333"/>
<path fill-rule="evenodd" clip-rule="evenodd" d="M140 14.0001L142.397 11.9249L144.393 13.7591L148.072 10.0001L150 11.8824V14" fill="#E0E0E0"/>
<path fill-rule="evenodd" clip-rule="evenodd" d="M140 14.0001L150 14V11.8824L148.072 10.0001L144.393 13.7591L142.397 11.9249L140 14.0001ZM144.356 12.367L143.074 11.1888C142.7 10.8447 142.127 10.8362 141.743 11.1688L139.346 13.244C138.928 13.6054 138.882 14.2369 139.244 14.6545C139.605 15.0721 140.237 15.1176 140.654 14.7562L140.95 14.5001L143.721 14.5001C144.104 14.8472 144.686 14.8437 145.064 14.5001L149.134 14.5C149.307 14.7989 149.63 15 150 15C150.552 15 151 14.5523 151 14V11.8824C151 11.613 150.891 11.355 150.699 11.1669L148.771 9.28457C148.376 8.89908 147.744 8.90622 147.358 9.30054L144.356 12.367Z" fill="#333333"/>
<path fill-rule="evenodd" clip-rule="evenodd" d="M139 17.5C139 17.2239 139.114 17 139.256 17H159.744C159.885 17 160 17.2239 160 17.5C160 17.7761 159.885 18 159.744 18H139.256C139.114 18 139 17.7761 139 17.5Z" fill="#333333"/>
<path fill-rule="evenodd" clip-rule="evenodd" d="M153 9.5C153 9.22386 153.128 9 153.285 9H156.714C156.872 9 157 9.22386 157 9.5C157 9.77614 156.872 10 156.714 10H153.285C153.128 10 153 9.77614 153 9.5Z" fill="#333333"/>
<path fill-rule="evenodd" clip-rule="evenodd" d="M153 12.5C153 12.2239 153.105 12 153.235 12H159.764C159.894 12 160 12.2239 160 12.5C160 12.7761 159.894 13 159.764 13H153.235C153.105 13 153 12.7761 153 12.5Z" fill="#333333"/>
<path fill-rule="evenodd" clip-rule="evenodd" d="M139 20.5C139 20.2239 139.12 20 139.269 20H145.731C145.879 20 146 20.2239 146 20.5C146 20.7761 145.879 21 145.731 21H139.269C139.12 21 139 20.7761 139 20.5Z" fill="#333333"/>
<path d="M143 8C143 8.55228 142.552 9 142 9C141.447 9 141 8.55228 141 8C141 7.44772 141.447 7 142 7C142.552 7 143 7.44772 143 8Z" fill="url(#paint6_linear)"/>
<path d="M176 35.5C176 41.8513 170.851 47 164.5 47C158.149 47 153 41.8513 153 35.5C153 29.1487 158.149 24 164.5 24C170.851 24 176 29.1487 176 35.5Z" fill="white"/>
<path fill-rule="evenodd" clip-rule="evenodd" d="M164.5 46C170.299 46 175 41.299 175 35.5C175 29.701 170.299 25 164.5 25C158.701 25 154 29.701 154 35.5C154 41.299 158.701 46 164.5 46ZM164.5 47C170.851 47 176 41.8513 176 35.5C176 29.1487 170.851 24 164.5 24C158.149 24 153 29.1487 153 35.5C153 41.8513 158.149 47 164.5 47Z" fill="#333333"/>
<path d="M164.014 36.5495C163.627 36.9355 163.002 36.9398 162.61 36.559L161.119 35.11C160.734 34.736 160.122 34.7356 159.736 35.1091C159.333 35.4994 159.334 36.1455 159.737 36.5355L162.612 39.3183C163.004 39.697 163.626 39.693 164.012 39.3093L170.282 33.0839C170.676 32.6929 170.67 32.0543 170.27 31.6699C169.882 31.2977 169.268 31.3037 168.887 31.6835L164.014 36.5495Z" fill="#333333"/>
</g>
<g clip-path="url(#clip1)">
<path d="M239.187 24C239.187 32.8366 231.893 40 222.896 40C213.899 40 206.605 32.8366 206.605 24C206.605 15.1634 213.899 8 222.896 8C231.893 8 239.187 15.1634 239.187 24Z" fill="white"/>
<path d="M222.783 8.00236C213.671 7.85295 206.158 14.8211 206.003 23.566C205.914 28.5244 208.006 33.0364 211.672 36C211.912 35.7992 212.38 35.5596 212.666 35.4102L217.589 32.8326C218.235 32.4944 218.637 31.8448 218.637 31.1384V29.2021C218.637 29.2021 217.192 27.5432 216.641 25.2382C216.184 24.9543 215.877 24.4637 215.877 23.9049V21.7857C215.877 21.3196 216.093 20.9031 216.429 20.6114V17.5481C216.429 17.5481 215.773 12.7809 222.5 12.7809C229.227 12.7809 228.571 17.5481 228.571 17.5481V20.6114C228.907 20.9031 229.123 21.3196 229.123 21.7857V23.9049C229.123 24.6172 228.625 25.2166 227.948 25.4168C227.572 26.541 227.028 27.6125 226.309 28.5866C226.128 28.8322 225.959 29.0402 225.811 29.2021V31.1874C225.811 31.9183 226.241 32.587 226.922 32.9133L232.194 35.443C232.511 35.5948 233.066 35.7867 233.329 36C236.885 33.1542 238.912 28.8991 238.997 24.1075C239.154 15.3626 231.895 8.15176 222.783 8.00236Z" fill="url(#paint7_linear)"/>
<path fill-rule="evenodd" clip-rule="evenodd" d="M214.975 9.83244C213.399 10.6314 210.653 12.5853 208.915 15.7087L208 15.2239C209.861 11.8785 212.785 9.79716 214.495 8.93059C223.064 4.58785 233.607 7.81774 238.042 16.1505C242.477 24.4832 239.122 34.7572 230.553 39.1C228.48 40.1506 224.951 41.3345 219.927 40.9123L220.016 39.8998C224.82 40.3035 228.153 39.1713 230.073 38.1981C238.135 34.1123 241.286 24.4501 237.118 16.6189C232.95 8.78758 223.037 5.74664 214.975 9.83244Z" fill="#333333"/>
<path d="M225.26 24C225.26 32.8366 217.966 40 208.969 40C199.972 40 192.678 32.8366 192.678 24C192.678 15.1634 199.972 8 208.969 8C217.966 8 225.26 15.1634 225.26 24Z" fill="white"/>
<path d="M208.783 8.00236C199.671 7.85295 192.158 14.8211 192.003 23.566C191.914 28.5244 194.006 33.0364 197.672 36C197.912 35.7992 198.38 35.5596 198.666 35.4102L203.589 32.8326C204.235 32.4944 204.637 31.8448 204.637 31.1384V29.2021C204.637 29.2021 203.192 27.5432 202.641 25.2382C202.184 24.9543 201.877 24.4637 201.877 23.9049V21.7857C201.877 21.3196 202.093 20.9031 202.429 20.6114V17.5481C202.429 17.5481 201.773 12.7809 208.5 12.7809C215.227 12.7809 214.571 17.5481 214.571 17.5481V20.6114C214.907 20.9031 215.123 21.3196 215.123 21.7857V23.9049C215.123 24.6172 214.625 25.2166 213.948 25.4168C213.572 26.541 213.028 27.6125 212.309 28.5866C212.128 28.8322 211.959 29.0402 211.811 29.2021V31.1874C211.811 31.9183 212.241 32.587 212.922 32.9133L218.194 35.443C218.511 35.5948 219.066 35.7867 219.329 36C222.885 33.1542 224.912 28.8991 224.997 24.1075C225.154 15.3626 217.895 8.15176 208.783 8.00236Z" fill="url(#paint8_linear)"/>
<path fill-rule="evenodd" clip-rule="evenodd" d="M225 24C225 33.4058 217.596 41 208.5 41C199.404 41 192 33.4058 192 24C192 14.5942 199.404 7 208.5 7C217.596 7 225 14.5942 225 24ZM208.5 40C217.086 40 224.046 32.8366 224.046 24C224.046 15.1634 217.086 8 208.5 8C199.914 8 192.954 15.1634 192.954 24C192.954 32.8366 199.914 40 208.5 40Z" fill="#333333"/>
</g>
<circle cx="280" cy="24" r="19" fill="#BDECFF"/>
<path fill-rule="evenodd" clip-rule="evenodd" d="M279.997 25.5L279.997 8.5C279.997 8.22386 280.221 8 280.497 8C280.773 8 280.997 8.22386 280.997 8.5L280.997 25.5C280.997 25.7761 280.773 26 280.497 26C280.221 26 279.997 25.7761 279.997 25.5Z" fill="#333333"/>
<path fill-rule="evenodd" clip-rule="evenodd" d="M290.631 24C290.631 24.5523 290.183 25 289.631 25L278.631 25C278.079 25 277.631 24.5523 277.631 24C277.631 23.4477 278.079 23 278.631 23L289.631 23C290.183 23 290.631 23.4477 290.631 24Z" fill="#333333"/>
<path d="M297.682 27.1696C296.555 33.8979 291.473 39.619 284.5 41.5C274.968 44.0713 265.168 38.252 262.614 28.6558C260.06 19.0596 265.716 9.19586 275.248 6.62456C283.444 4.41363 292.185 8.26171 296 15.5C296.129 15.7456 296.432 15.8391 296.676 15.7088C296.92 15.5785 297.013 15.2737 296.883 15.0281C292.855 7.38455 283.646 3.31698 274.989 5.65201C264.924 8.36723 258.951 18.783 261.648 28.9164C264.345 39.0497 274.693 45.1878 284.759 42.4725C292.04 40.5084 297.361 34.578 298.627 27.5782L300.211 32.1889C300.302 32.4516 300.586 32.5909 300.847 32.5C301.108 32.4091 301.247 32.1224 301.156 31.8596L299.049 25.7277C298.997 25.5769 298.877 25.4598 298.726 25.412C298.575 25.3642 298.41 25.3913 298.282 25.4852L293.11 29.2734C292.887 29.4369 292.838 29.7518 293 29.9766C293.162 30.2015 293.475 30.2511 293.699 30.0876L297.682 27.1696Z" fill="#333333"/>
<g clip-path="url(#clip2)">
<path d="M355.497 21.7082V14.2918L352.374 13.5762L351.268 10.974L352.96 8.24164L347.69 2.97212L345.023 4.66357L342.421 3.62268L341.705 0.5H334.289L333.573 3.62268L330.971 4.72862L328.239 3.03717L322.969 8.30669L324.661 10.974L323.62 13.5762L320.497 14.2918V21.7082L323.62 22.4238L324.726 25.026L323.034 27.7584L328.304 33.0279L330.971 31.3364L333.573 32.3773L334.289 35.5H341.705L342.421 32.3773L345.023 31.2714L347.755 32.9628L353.025 27.6933L351.333 25.026L352.374 22.4238L355.497 21.7082ZM337.997 24.7007C334.289 24.7007 331.296 21.7082 331.296 18C331.296 14.2918 334.289 11.2993 337.997 11.2993C341.705 11.2993 344.698 14.2918 344.698 18C344.698 21.7082 341.705 24.7007 337.997 24.7007Z" fill="#BDECFF"/>
<path fill-rule="evenodd" clip-rule="evenodd" d="M333.89 0H342.104L342.85 3.25571L344.971 4.10434L347.761 2.33541L353.593 8.1681L351.83 11.0169L352.735 13.1458L355.997 13.8934V22.1066L352.741 22.8527L351.893 24.9742L353.662 27.7637L347.829 33.5964L344.98 31.8329L342.851 32.7377L342.104 36H333.89L333.144 32.7443L331.023 31.8957L328.233 33.6646L322.401 27.8319L324.164 24.9831L323.259 22.8542L319.997 22.1066V13.8934L323.253 13.1473L324.101 11.0258L322.332 8.23629L328.165 2.4036L331.014 4.16712L333.143 3.2623L333.89 0ZM334.687 1L334.004 3.98305L330.928 5.29013L328.312 3.67075L323.606 8.37709L325.22 10.9222L323.987 14.0051L320.997 14.6902V21.3098L323.98 21.9934L325.287 25.0689L323.668 27.6848L328.374 32.3912L330.919 30.7772L334.002 32.0104L334.687 35H341.307L341.99 32.017L345.066 30.7099L347.682 32.3293L352.388 27.6229L350.774 25.0778L352.007 21.9949L354.997 21.3098V14.6902L352.014 14.0066L350.707 10.9311L352.326 8.31517L347.62 3.60882L345.075 5.2228L341.992 3.98965L341.307 1H334.687ZM337.997 12.0169C334.565 12.0169 332 14.568 332 18C332 21.432 334.565 23.9742 337.997 23.9742C341.429 23.9742 344 21.432 344 18C344 14.568 341.429 12.0169 337.997 12.0169ZM331 18C331 14.0157 334.013 11.0169 337.997 11.0169C341.981 11.0169 345 14.0157 345 18C345 21.9843 341.981 24.9742 337.997 24.9742C334.013 24.9742 331 21.9843 331 18Z" fill="#333333"/>
<path d="M366.668 20.1039L361.25 25.5225L356.714 24.2856L355.478 19.7505L360.896 14.3319C358.01 13.5073 354.771 14.2141 352.474 16.5111C349.175 19.8094 349.175 25.228 352.474 28.5263C355.772 31.8246 361.191 31.8246 364.489 28.5263C366.786 26.2293 367.493 22.9899 366.668 20.1039Z" fill="#EFEFEF"/>
<path fill-rule="evenodd" clip-rule="evenodd" d="M351.761 15.659C354.328 13.2267 357.949 12.4783 361.173 13.3514C361.309 13.3881 361.414 13.4893 361.449 13.6176C361.485 13.7459 361.446 13.8823 361.346 13.9764L355.707 19.3209L356.912 23.5067L361.321 24.6465L366.958 19.3044C367.058 19.2096 367.204 19.1718 367.342 19.2052C367.48 19.2385 367.588 19.338 367.627 19.4664C368.547 22.5183 367.759 25.9471 365.193 28.3789C361.505 31.8737 355.449 31.8737 351.761 28.3789C348.076 24.8859 348.076 19.152 351.761 15.659ZM360.282 13.9181C357.505 13.384 354.505 14.1254 352.329 16.1876C348.952 19.3879 348.952 24.65 352.329 27.8503C355.704 31.0487 361.25 31.0487 364.625 27.8503C366.8 25.7888 367.584 22.9448 367.022 20.3107L361.725 25.3311C361.623 25.4274 361.474 25.4647 361.335 25.4288L356.479 24.1738C356.343 24.1385 356.236 24.0381 356.199 23.9097L354.875 19.3081C354.838 19.1789 354.877 19.0409 354.977 18.9458L360.282 13.9181Z" fill="#333333"/>
<path d="M334.733 46.2479C332.947 44.4306 332.947 41.4228 334.733 39.6055L347.916 26.1954C348.408 25.6941 349.148 25.6941 349.64 26.1954L354.445 31.0832C354.938 31.5845 354.938 32.3365 354.445 32.8378L341.263 46.2479C339.415 48.0652 336.52 48.0652 334.733 46.2479Z" fill="url(#paint9_linear)"/>
<path fill-rule="evenodd" clip-rule="evenodd" d="M349 26L347.5 27L335.019 39.8756C333.381 41.5421 333.381 44.3113 335.019 45.9778C336.646 47.633 339.284 47.6406 340.98 45.9754L354.16 32.6211C354.504 32.2706 354.504 31.7039 354.16 31.3533L349 26ZM347.5 26C348.149 25.34 349.277 25.2653 349.926 25.9253L354.731 30.8131C355.372 31.4651 355.372 32.5159 354.731 33.168L341.544 46.5228C339.544 48.4898 336.393 48.4966 334.448 46.518C332.513 44.55 332.513 41.3034 334.448 39.3354L347.5 26Z" fill="#333333"/>
<path d="M356.101 31.2329L349.389 24.6487L347.165 26.8692L353.877 33.4534L356.101 31.2329Z" fill="white"/>
<path fill-rule="evenodd" clip-rule="evenodd" d="M349.211 24.3043C349.365 24.151 349.616 24.1507 349.771 24.3037L356.472 30.8765C356.628 31.0294 356.63 31.2777 356.476 31.431L354.252 33.6517C354.099 33.805 353.848 33.8053 353.692 33.6523L346.991 27.0795C346.836 26.9266 346.834 26.6783 346.987 26.525L349.211 24.3043ZM349.498 25.1358L347.83 26.8013L353.966 32.8202L355.634 31.1547L349.498 25.1358Z" fill="#333333"/>
<path d="M337.849 44.5193C338.506 44.5193 339.039 43.9968 339.039 43.3522C339.039 42.7076 338.506 42.185 337.849 42.185C337.191 42.185 336.659 42.7076 336.659 43.3522C336.659 43.9968 337.191 44.5193 337.849 44.5193Z" fill="white"/>
<path fill-rule="evenodd" clip-rule="evenodd" d="M337.848 42.5739C337.41 42.5739 337.055 42.9223 337.055 43.352C337.055 43.7817 337.41 44.1301 337.848 44.1301C338.287 44.1301 338.642 43.7817 338.642 43.352C338.642 42.9223 338.287 42.5739 337.848 42.5739ZM336.262 43.352C336.262 42.4925 336.972 41.7958 337.848 41.7958C338.725 41.7958 339.435 42.4925 339.435 43.352C339.435 44.2115 338.725 44.9082 337.848 44.9082C336.972 44.9082 336.262 44.2115 336.262 43.352Z" fill="#333333"/>
</g>
<g clip-path="url(#clip3)">
<path fill-rule="evenodd" clip-rule="evenodd" d="M385.997 41.67C385.997 42.9568 387.076 44 388.407 44H415.586C416.918 44 417.997 42.9568 417.997 41.67V35.1094L417 32L418 29L417.997 6.33C417.997 5.04317 416.918 4 415.586 4H393.972C393.326 4 392.706 4.25117 392.253 4.69706L386.688 10.1719C386.245 10.6076 385.997 11.194 385.997 11.8048V41.67Z" fill="white"/>
<path fill-rule="evenodd" clip-rule="evenodd" d="M415.586 45H388.407C386.556 45 384.997 43.5409 384.997 41.67V11.8048C384.997 11.7375 384.999 11.6704 385.003 11.6037C384.999 11.5831 384.997 11.5627 384.997 11.5429C384.997 11.4977 385.006 11.4454 385.023 11.3914C385.117 10.6614 385.456 9.98155 385.987 9.45904L391.551 3.98422C392.195 3.3508 393.068 3 393.972 3H415.586C417.438 3 418.997 4.45914 418.997 6.33L419 18H418L417.997 6.33C417.997 5.04318 416.918 4 415.586 4H393.997L393.997 12H385.997V41.67C385.997 42.9568 387.076 44 388.407 44H415.586C416.918 44 418 42.7868 418 41.5H419C419 43.3709 417.438 45 415.586 45ZM392.988 11H386.145C386.262 10.6927 386.446 10.4098 386.688 10.1719L392.253 4.69706C392.466 4.48735 392.716 4.32071 392.988 4.20302V11ZM399.997 12.5024C399.997 12.7799 400.222 13.0048 400.499 13.0048H411.495C411.772 13.0048 411.997 12.7799 411.997 12.5024C411.997 12.2249 411.772 12 411.495 12H400.499C400.222 12 399.997 12.2249 399.997 12.5024ZM392.499 17C392.222 17 391.997 16.7751 391.997 16.4976C391.997 16.2202 392.222 15.9952 392.499 15.9952H411.495C411.772 15.9952 411.997 16.2202 411.997 16.4976C411.997 16.7751 411.772 17 411.495 17H392.499ZM391.997 20.4976C391.997 20.7751 392.222 21 392.499 21H411.495C411.772 21 411.997 20.7751 411.997 20.4976C411.997 20.2202 411.772 19.9952 411.495 19.9952H392.499C392.222 19.9952 391.997 20.2202 391.997 20.4976ZM392.5 29C392.224 29 392 28.7761 392 28.5C392 28.2239 392.224 28 392.5 28H408.5C408.776 28 409 28.2239 409 28.5C409 28.7761 408.776 29 408.5 29H392.5ZM392.5 37C392.224 37 392 36.7762 392 36.5C392 36.2239 392.224 36 392.5 36H409.5C409.776 36 410 36.2239 410 36.5C410 36.7762 409.776 37 409.5 37H392.5ZM392 32.5C392 32.7762 392.224 33 392.5 33H408.5C408.776 33 409 32.7762 409 32.5C409 32.2239 408.776 32 408.5 32H392.5C392.224 32 392 32.2239 392 32.5ZM392.5 25C392.224 25 392 24.7761 392 24.5C392 24.2239 392.224 24 392.5 24H409.5C409.776 24 410 24.2239 410 24.5C410 24.7761 409.776 25 409.5 25H392.5Z" fill="#333333"/>
<path fill-rule="evenodd" clip-rule="evenodd" d="M429.629 32.474L430.533 32.2771C430.807 32.2173 431.002 31.9742 431 31.6932L430.983 28.3067C430.981 28.0256 430.784 27.7825 430.509 27.7227L429.603 27.5258C429.212 27.4408 428.9 27.1527 428.745 26.783C428.59 26.4131 428.603 25.9886 428.818 25.6517L429.315 24.8719C429.465 24.6354 429.43 24.3249 429.231 24.1262L426.826 21.7316C426.626 21.5327 426.316 21.4995 426.08 21.6514L425.304 22.1528C424.968 22.3693 424.544 22.3852 424.174 22.2318C423.804 22.0785 423.514 21.7674 423.427 21.3764L423.226 20.4706C423.165 20.1959 422.921 20 422.64 20H419.256C418.975 20 418.733 20.1959 418.675 20.4706L418.483 21.3764C418.4 21.7674 418.114 22.0785 417.745 22.2318C417.377 22.3852 416.952 22.3693 416.615 22.1528L415.833 21.6514C415.596 21.4995 415.286 21.5329 415.088 21.7316L412.708 24.1262C412.511 24.3249 412.479 24.6354 412.632 24.8719L413.137 25.6517C413.355 25.9886 413.373 26.4131 413.222 26.783C413.071 27.1527 412.761 27.4408 412.371 27.5258L411.467 27.7227C411.193 27.7825 410.999 28.0256 411 28.3067L411.018 31.6932C411.019 31.9742 411.216 32.2173 411.491 32.2771L412.397 32.474C412.788 32.559 413.1 32.8471 413.255 33.2168C413.411 33.5867 413.397 34.0112 413.182 34.3481L412.686 35.1279C412.535 35.3644 412.57 35.6749 412.77 35.8736L415.175 38.2683C415.374 38.4669 415.685 38.5003 415.92 38.3484L416.697 37.847C417.032 37.6305 417.456 37.6146 417.826 37.768C418.197 37.9213 418.486 38.2324 418.573 38.6235L418.775 39.5292C418.836 39.8039 419.08 39.9998 419.36 39.9998H422.744C423.025 39.9998 423.267 39.8039 423.325 39.5292L423.517 38.6235C423.6 38.2324 423.886 37.9213 424.255 37.768C424.623 37.6146 425.048 37.6305 425.385 37.847L426.167 38.3484C426.404 38.5003 426.714 38.4669 426.912 38.2683L429.292 35.8736C429.489 35.6749 429.521 35.3644 429.368 35.1279L428.863 34.3481C428.645 34.0112 428.627 33.5867 428.778 33.2168C428.929 32.8471 429.239 32.559 429.629 32.474ZM417.111 29.8953C417.122 32.0788 418.908 33.857 421.09 33.857C423.271 33.857 425.039 32.0788 425.027 29.8953C425.016 27.7118 423.23 25.9337 421.049 25.9337C418.867 25.9337 417.1 27.7118 417.111 29.8953Z" fill="#9ADAF3"/>
<path fill-rule="evenodd" clip-rule="evenodd" d="M426.776 21.7315L429.183 24.1262C429.383 24.3248 429.418 24.6353 429.267 24.8719L428.77 25.6517C428.555 25.9885 428.542 26.413 428.697 26.7829C428.852 27.1526 429.165 27.4407 429.556 27.5257L430.463 27.7226C430.738 27.7824 430.935 28.0255 430.937 28.3066L430.954 31.6931C430.956 31.9742 430.761 32.2172 430.487 32.277L429.582 32.4739C429.191 32.559 428.882 32.847 428.73 33.2167C428.579 33.5866 428.597 34.0112 428.815 34.348L429.32 35.1278C429.474 35.3643 429.442 35.6748 429.244 35.8735L426.862 38.2682C426.664 38.4669 426.354 38.5003 426.116 38.3483L425.334 37.847C424.996 37.6304 424.571 37.6145 424.202 37.7679C423.833 37.9212 423.547 38.2323 423.464 38.6234L423.272 39.5292C423.213 39.8038 422.971 39.9998 422.69 39.9998H419.304C419.023 39.9998 418.778 39.8038 418.717 39.5292L418.516 38.6234C418.429 38.2323 418.139 37.9212 417.769 37.7679C417.398 37.6145 416.973 37.6304 416.638 37.847L415.86 38.3483C415.625 38.5003 415.314 38.4669 415.114 38.2682L412.707 35.8735C412.508 35.6748 412.473 35.3643 412.623 35.1278L413.121 34.348C413.335 34.0112 413.349 33.5866 413.194 33.2167C413.039 32.847 412.726 32.559 412.334 32.4739L411.428 32.277C411.153 32.2172 410.956 31.9742 410.954 31.6931L410.937 28.3066C410.935 28.0255 411.13 27.7824 411.404 27.7226L412.309 27.5257C412.7 27.4407 413.009 27.1526 413.161 26.7829C413.312 26.413 413.294 25.9885 413.076 25.6517L412.57 24.8719C412.417 24.6353 412.449 24.3248 412.647 24.1262L415.029 21.7315C415.227 21.5328 415.537 21.4994 415.774 21.6514L416.557 22.1527C416.895 22.3692 417.319 22.3851 417.688 22.2317C418.057 22.0784 418.344 21.7673 418.427 21.3763L418.619 20.4705C418.677 20.1958 418.919 19.9999 419.2 19.9999H422.587C422.868 19.9999 423.112 20.1958 423.173 20.4705L423.375 21.3763C423.462 21.7673 423.752 22.0784 424.122 22.2317C424.493 22.3851 424.917 22.3692 425.253 22.1527L426.03 21.6514C426.266 21.4994 426.577 21.5326 426.776 21.7315ZM415.51 22.6549L416.026 22.9853C416.672 23.3994 417.444 23.4072 418.072 23.146C418.701 22.8848 419.236 22.3339 419.395 21.5865L419.522 20.9897H422.276L422.409 21.5865C422.575 22.3339 423.117 22.8848 423.748 23.146C424.379 23.4072 425.151 23.3994 425.793 22.9853L426.305 22.6549L428.263 24.6025L427.935 25.1164C427.524 25.7606 427.52 26.5322 427.785 27.1621C428.049 27.7919 428.603 28.3304 429.351 28.4929L429.948 28.6227L429.963 31.377L429.366 31.5068C428.62 31.6692 428.072 32.2077 427.814 32.8376C427.556 33.4674 427.568 34.2391 427.985 34.8833L428.318 35.3972L426.381 37.3448L425.865 37.0144C425.219 36.6003 424.447 36.5925 423.818 36.8537C423.19 37.1148 422.654 37.6658 422.496 38.4131L422.369 39.01H419.615L419.482 38.4131C419.316 37.6658 418.774 37.1148 418.143 36.8537C417.512 36.5925 416.74 36.6003 416.098 37.0144L415.586 37.3448L413.628 35.3972L413.956 34.8833C414.367 34.2391 414.371 33.4674 414.106 32.8376C413.842 32.2077 413.288 31.6692 412.54 31.5068L411.942 31.377L411.928 28.6227L412.524 28.4929C413.271 28.3304 413.819 27.7919 414.077 27.1621C414.335 26.5322 414.323 25.7606 413.906 25.1164L413.572 24.6025L415.51 22.6549ZM425.521 29.9998C425.508 27.4761 423.445 25.4244 420.922 25.4244C418.398 25.4244 416.357 27.4761 416.37 29.9998C416.383 32.5235 418.445 34.5752 420.969 34.5752C423.493 34.5752 425.534 32.5235 425.521 29.9998ZM420.927 26.4142C422.904 26.4142 424.521 28.0228 424.531 29.9998C424.541 31.9769 422.941 33.5855 420.964 33.5855C418.987 33.5855 417.37 31.9769 417.36 29.9998C417.349 28.0228 418.95 26.4142 420.927 26.4142Z" fill="#333333"/>
</g>
<defs>
<linearGradient id="paint0_linear" x1="13" y1="1.01544" x2="16.9397" y2="13.1949" gradientUnits="userSpaceOnUse">
<stop stop-color="#FFC671"/>
<stop offset="0.59375" stop-color="#FF7541"/>
<stop offset="1" stop-color="#FF6F3D"/>
</linearGradient>
<linearGradient id="paint1_linear" x1="76" y1="25.8828" x2="78.6002" y2="30.3858" gradientUnits="userSpaceOnUse">
<stop stop-color="#FF8E3D"/>
<stop offset="1" stop-color="#FF6F3D"/>
</linearGradient>
<linearGradient id="paint2_linear" x1="86" y1="19.8828" x2="88.6002" y2="24.3858" gradientUnits="userSpaceOnUse">
<stop stop-color="#FF8E3D"/>
<stop offset="1" stop-color="#FF6F3D"/>
</linearGradient>
<linearGradient id="paint3_linear" x1="96" y1="24.8828" x2="98.6002" y2="29.3858" gradientUnits="userSpaceOnUse">
<stop stop-color="#FF8E3D"/>
<stop offset="1" stop-color="#FF6F3D"/>
</linearGradient>
<linearGradient id="paint4_linear" x1="158" y1="2.84375" x2="162" y2="7" gradientUnits="userSpaceOnUse">
<stop stop-color="#FFC671"/>
<stop offset="0.59375" stop-color="#FF7541"/>
<stop offset="1" stop-color="#FF6F3D"/>
</linearGradient>
<linearGradient id="paint5_linear" x1="128.842" y1="25.1888" x2="148.224" y2="56.6356" gradientUnits="userSpaceOnUse">
<stop stop-color="#FFC671"/>
<stop offset="0.652615" stop-color="#FF8657"/>
</linearGradient>
<linearGradient id="paint6_linear" x1="142" y1="7" x2="142" y2="9" gradientUnits="userSpaceOnUse">
<stop stop-color="#FF8E3D"/>
<stop offset="1" stop-color="#FF6F3D"/>
</linearGradient>
<linearGradient id="paint7_linear" x1="239.001" y1="24.8605" x2="206" y2="24.8605" gradientUnits="userSpaceOnUse">
<stop stop-color="#FF6F3D"/>
<stop offset="1" stop-color="#FF8E3D"/>
</linearGradient>
<linearGradient id="paint8_linear" x1="225.001" y1="24.8605" x2="192" y2="24.8605" gradientUnits="userSpaceOnUse">
<stop stop-color="#FF6F3D"/>
<stop offset="1" stop-color="#FF8E3D"/>
</linearGradient>
<linearGradient id="paint9_linear" x1="333.372" y1="36.7216" x2="354.822" y2="36.7216" gradientUnits="userSpaceOnUse">
<stop stop-color="#FF8E3D"/>
<stop offset="1" stop-color="#FF6F3D"/>
</linearGradient>
<clipPath id="clip0">
<rect width="48" height="48" fill="white" transform="translate(128)"/>
</clipPath>
<clipPath id="clip1">
<rect width="47.997" height="48" fill="white" transform="translate(192)"/>
</clipPath>
<clipPath id="clip2">
<rect width="47.9999" height="48" fill="white" transform="translate(319.997)"/>
</clipPath>
<clipPath id="clip3">
<rect width="48" height="48" fill="white" transform="translate(383.997)"/>
</clipPath>
</defs>
</svg>
