<svg xmlns="http://www.w3.org/2000/svg" width="96" height="96" viewBox="0 0 96 96" fill="none">
<g clip-path="url(#clip0_7899_410824)">
<path fill-rule="evenodd" clip-rule="evenodd" d="M3 66.6856V7.24178C3 6.92878 3.22924 6.66301 3.53883 6.61704L48.0651 0.00681632C48.1266 -0.0023128 48.1891 -0.0023128 48.2506 0.00681632L92.777 6.61704C93.0866 6.66301 93.3158 6.92878 93.3158 7.24178V66.6856C93.3158 66.9019 93.2051 67.1031 93.0225 67.219L48.4962 95.4627C48.2897 95.5937 48.0261 95.5937 47.8196 95.4627L3.29328 67.219C3.11065 67.1031 3 66.9019 3 66.6856Z" fill="url(#paint0_linear_7899_410824)"/>
<path fill-rule="evenodd" clip-rule="evenodd" d="M91.5951 8.92024C91.5638 8.71094 91.3698 8.32458 91.2279 8.18951L48.7681 1.82138C48.7224 1.80312 48.6881 1.82138 48.1579 1.82138C47.6277 1.82138 47.5477 1.82138 47.5477 1.82138L5.00681 8.18951C4.86598 8.32337 4.67254 8.70729 4.64066 8.91415V65.424C4.67148 65.6327 4.86651 66.0178 5.00841 66.1517L48.1579 93.8489L91.229 66.148C91.3698 66.0154 91.5611 65.6339 91.5924 65.4289L91.5951 8.92024Z" fill="#F06A2B"/>
<path fill-rule="evenodd" clip-rule="evenodd" d="M6.76149 9.74395V64.5978L48.1579 92.0205L89.4716 64.5966L89.4743 9.74456L48.1579 3.64972L6.76149 9.74395Z" fill="url(#paint1_radial_7899_410824)"/>
<path fill-rule="evenodd" clip-rule="evenodd" d="M6.66145 64.5951L48.1579 92.0205V3.64972L6.76149 9.74425L6.66145 64.5951Z" fill="url(#paint2_linear_7899_410824)"/>
<path d="M13.55 16.2244H16.9219V29.4603H24.9138V32.3614H13.55V16.2244ZM37.2191 28.8581C37.1388 29.5661 36.7702 30.285 36.1133 31.0148C35.0915 32.1753 33.661 32.7555 31.8218 32.7555C30.3037 32.7555 28.9644 32.2665 27.804 31.2885C26.6435 30.3105 26.0633 28.7195 26.0633 26.5153C26.0633 24.4498 26.5851 22.866 27.6288 21.764C28.6798 20.6619 30.041 20.1109 31.7123 20.1109C32.7049 20.1109 33.599 20.297 34.3945 20.6692C35.1901 21.0414 35.8469 21.6289 36.3651 22.4318C36.8322 23.1397 37.1351 23.9608 37.2738 24.895C37.3541 25.4424 37.3869 26.2307 37.3723 27.2598H29.2053C29.2491 28.4567 29.625 29.296 30.3329 29.7777C30.7635 30.077 31.2817 30.2266 31.8875 30.2266C32.5298 30.2266 33.0516 30.0441 33.453 29.6792C33.672 29.4822 33.8654 29.2085 34.0333 28.8581H37.2191ZM34.1318 25.2016C34.0807 24.3768 33.8289 23.7528 33.3764 23.3295C32.9312 22.8989 32.3765 22.6836 31.7123 22.6836C30.9898 22.6836 30.4278 22.9098 30.0264 23.3623C29.6323 23.8149 29.3841 24.4279 29.2819 25.2016H34.1318ZM39.9341 21.7202C40.7588 20.6692 42.1748 20.1437 44.1818 20.1437C45.4883 20.1437 46.6487 20.4028 47.6632 20.921C48.6777 21.4392 49.185 22.4172 49.185 23.855V29.3289C49.185 29.7084 49.1923 30.1682 49.2069 30.7083C49.2288 31.117 49.2908 31.3944 49.393 31.5403C49.4952 31.6863 49.6484 31.8067 49.8528 31.9016V32.3614H46.459C46.3641 32.1206 46.2984 31.8943 46.2619 31.6827C46.2254 31.471 46.1962 31.2301 46.1743 30.9601C45.7437 31.4272 45.2474 31.825 44.6854 32.1534C44.014 32.5402 43.2549 32.7336 42.4083 32.7336C41.3281 32.7336 40.4341 32.4271 39.7261 31.814C39.0254 31.1937 38.6751 30.3178 38.6751 29.1866C38.6751 27.7196 39.2408 26.6576 40.372 26.0008C40.9924 25.6431 41.9047 25.3877 43.109 25.2344L44.1709 25.103C44.7475 25.0301 45.1599 24.9388 45.408 24.8293C45.8532 24.6396 46.0758 24.344 46.0758 23.9426C46.0758 23.4536 45.9043 23.1178 45.5613 22.9354C45.2255 22.7456 44.7292 22.6507 44.0724 22.6507C43.3352 22.6507 42.8134 22.8332 42.5068 23.1981C42.2879 23.4682 42.1419 23.8331 42.0689 24.2929H39.0583C39.124 23.2492 39.4159 22.3916 39.9341 21.7202ZM42.255 30.1062C42.547 30.347 42.9046 30.4675 43.3279 30.4675C43.9994 30.4675 44.6161 30.2704 45.1781 29.8763C45.7474 29.4822 46.043 28.7632 46.0649 27.7196V26.5591C45.8678 26.6832 45.6671 26.7854 45.4627 26.8656C45.2657 26.9386 44.992 27.008 44.6417 27.0736L43.941 27.205C43.2841 27.3218 42.8134 27.4641 42.5287 27.632C42.047 27.9166 41.8062 28.3582 41.8062 28.9567C41.8062 29.4895 41.9558 29.8726 42.255 30.1062ZM62.8259 16.2463V32.3614H59.7934V30.7083C59.3482 31.4163 58.8409 31.9308 58.2716 32.2519C57.7024 32.5731 56.9944 32.7336 56.1478 32.7336C54.7538 32.7336 53.5787 32.1717 52.6226 31.0477C51.6738 29.9164 51.1994 28.4677 51.1994 26.7014C51.1994 24.6651 51.6665 23.0631 52.6007 21.8953C53.5422 20.7276 54.7975 20.1437 56.3667 20.1437C57.0893 20.1437 57.7316 20.3043 58.2935 20.6254C58.8555 20.9392 59.3117 21.3771 59.662 21.9391V16.2463H62.8259ZM54.418 26.4715C54.418 27.5736 54.637 28.4531 55.0749 29.1099C55.5055 29.7741 56.1624 30.1062 57.0455 30.1062C57.9286 30.1062 58.6001 29.7777 59.0599 29.1209C59.5197 28.464 59.7496 27.6137 59.7496 26.57C59.7496 25.1103 59.381 24.0667 58.6439 23.439C58.1914 23.0595 57.6659 22.8697 57.0674 22.8697C56.1551 22.8697 55.4836 23.2164 55.053 23.9097C54.6297 24.5958 54.418 25.4497 54.418 26.4715ZM75.8866 28.8581C75.8063 29.5661 75.4378 30.285 74.7809 31.0148C73.7591 32.1753 72.3286 32.7555 70.4894 32.7555C68.9713 32.7555 67.632 32.2665 66.4715 31.2885C65.3111 30.3105 64.7308 28.7195 64.7308 26.5153C64.7308 24.4498 65.2527 22.866 66.2964 21.764C67.3474 20.6619 68.7085 20.1109 70.3799 20.1109C71.3725 20.1109 72.2666 20.297 73.0621 20.6692C73.8576 21.0414 74.5145 21.6289 75.0327 22.4318C75.4998 23.1397 75.8027 23.9608 75.9414 24.895C76.0216 25.4424 76.0545 26.2307 76.0399 27.2598H67.8728C67.9166 28.4567 68.2925 29.296 69.0005 29.7777C69.4311 30.077 69.9493 30.2266 70.555 30.2266C71.1973 30.2266 71.7192 30.0441 72.1206 29.6792C72.3395 29.4822 72.5329 29.2085 72.7008 28.8581H75.8866ZM72.7993 25.2016C72.7483 24.3768 72.4965 23.7528 72.0439 23.3295C71.5987 22.8989 71.0441 22.6836 70.3799 22.6836C69.6573 22.6836 69.0953 22.9098 68.6939 23.3623C68.2998 23.8149 68.0517 24.4279 67.9495 25.2016H72.7993ZM84.1522 23.3076C82.8968 23.3076 82.0539 23.7163 81.6233 24.5338C81.3824 24.9936 81.262 25.7015 81.262 26.6576V32.3614H78.12V20.4283H81.0978V22.5084C81.5795 21.7129 81.9991 21.1691 82.3568 20.8772C82.9406 20.3882 83.6997 20.1437 84.6339 20.1437C84.6923 20.1437 84.7397 20.1473 84.7762 20.1546C84.82 20.1546 84.9112 20.1583 85.0499 20.1656V23.3623C84.8528 23.3404 84.6777 23.3259 84.5244 23.3186C84.3711 23.3113 84.2471 23.3076 84.1522 23.3076Z" fill="white"/>
<path fill-rule="evenodd" clip-rule="evenodd" d="M83.684 40.0983L84.6112 42.0732L86.6842 42.3902L85.1838 43.9272L85.5385 46.0983L83.684 45.0735L81.8299 46.0983L82.1841 43.9272L80.6842 42.3902L82.7572 42.0732L83.684 40.0983Z" fill="#FFCB00"/>
<path fill-rule="evenodd" clip-rule="evenodd" d="M12.6313 40.0983L13.5586 42.0732L15.6316 42.3902L14.1312 43.9272L14.4859 46.0983L12.6313 45.0735L10.7773 46.0983L11.1315 43.9272L9.63158 42.3902L11.7045 42.0732L12.6313 40.0983Z" fill="#FFCB00"/>
<path fill-rule="evenodd" clip-rule="evenodd" d="M8.68421 51.7825H87.9474V63.6485L75.5625 71.3614H21.0691L8.68421 63.6485V51.7825Z" fill="url(#paint3_linear_7899_410824)"/>
<path fill-rule="evenodd" clip-rule="evenodd" d="M8.68421 51.7825H87.9474L21.0691 71.3614L8.68421 63.6485V51.7825Z" fill="url(#paint4_linear_7899_410824)"/>
<path d="M75.4908 39.8396H79.7359V41.101H76.8676V42.2572H79.577V43.5185H76.8676V44.7798H79.8947V46.0411H75.4908V39.8396Z" fill="white"/>
<path d="M74.4025 45.6031C73.9965 45.8134 73.5729 45.9652 73.1316 46.0586C72.6903 46.152 72.2402 46.1987 71.7813 46.1987C71.293 46.1987 70.8429 46.1228 70.431 45.971C70.0192 45.8192 69.6632 45.6031 69.3632 45.3228C69.0631 45.0367 68.8277 44.6922 68.6571 44.2893C68.4924 43.8864 68.41 43.4367 68.41 42.9404C68.41 42.444 68.4924 41.9944 68.6571 41.5915C68.8277 41.1886 69.0631 40.8469 69.3632 40.5667C69.6632 40.2805 70.0192 40.0616 70.431 39.9097C70.8429 39.7579 71.293 39.682 71.7813 39.682C72.2814 39.682 72.7404 39.7433 73.1581 39.8659C73.5817 39.9827 73.9524 40.1871 74.2701 40.4791L73.2993 41.5302C73.111 41.3375 72.8992 41.1915 72.6639 41.0922C72.4285 40.9929 72.1343 40.9433 71.7813 40.9433C71.4871 40.9433 71.2194 40.9929 70.9782 41.0922C70.7429 41.1915 70.5399 41.3316 70.3693 41.5126C70.1986 41.6878 70.0662 41.898 69.9721 42.1433C69.8839 42.3885 69.8397 42.6542 69.8397 42.9404C69.8397 43.2323 69.8839 43.501 69.9721 43.7462C70.0662 43.9856 70.1986 44.1958 70.3693 44.3769C70.5399 44.552 70.7429 44.6893 70.9782 44.7885C71.2194 44.8878 71.4871 44.9374 71.7813 44.9374C72.0814 44.9374 72.3403 44.9053 72.558 44.8411C72.7757 44.771 72.9492 44.7009 73.0787 44.6309V43.6236H71.9578V42.3623H74.4025V45.6031Z" fill="white"/>
<path d="M63.1991 39.8396H65.6173C65.935 39.8396 66.2351 39.8718 66.5175 39.936C66.8058 39.9944 67.0559 40.0966 67.2677 40.2426C67.4854 40.3827 67.656 40.5754 67.7795 40.8207C67.909 41.0601 67.9737 41.3608 67.9737 41.7228C67.9737 42.1608 67.859 42.5345 67.6295 42.844C67.4001 43.1477 67.0647 43.3404 66.6234 43.4221L68.212 46.0411H66.5616L65.2555 43.5623H64.5759V46.0411H63.1991V39.8396ZM64.5759 42.4061H65.3879C65.5114 42.4061 65.6408 42.4031 65.7762 42.3973C65.9174 42.3856 66.0439 42.3593 66.1557 42.3185C66.2675 42.2718 66.3587 42.2017 66.4293 42.1082C66.5057 42.0148 66.544 41.8834 66.544 41.7141C66.544 41.5564 66.5116 41.4309 66.4469 41.3374C66.3822 41.244 66.2998 41.1739 66.1998 41.1272C66.0998 41.0747 65.985 41.0396 65.8556 41.0221C65.7262 41.0046 65.5997 40.9958 65.4761 40.9958H64.5759V42.4061Z" fill="white"/>
<path d="M55.6972 42.9404C55.6972 42.444 55.7796 41.9944 55.9443 41.5915C56.115 41.1886 56.3503 40.8469 56.6504 40.5667C56.9504 40.2805 57.3064 40.0616 57.7183 39.9097C58.1301 39.7579 58.5802 39.682 59.0686 39.682C59.5569 39.682 60.007 39.7579 60.4188 39.9097C60.8307 40.0616 61.1867 40.2805 61.4867 40.5667C61.7868 40.8469 62.0192 41.1886 62.1839 41.5915C62.3546 41.9944 62.4399 42.444 62.4399 42.9404C62.4399 43.4367 62.3546 43.8864 62.1839 44.2893C62.0192 44.6922 61.7868 45.0367 61.4867 45.3228C61.1867 45.6031 60.8307 45.8192 60.4188 45.971C60.007 46.1228 59.5569 46.1987 59.0686 46.1987C58.5802 46.1987 58.1301 46.1228 57.7183 45.971C57.3064 45.8192 56.9504 45.6031 56.6504 45.3228C56.3503 45.0367 56.115 44.6922 55.9443 44.2893C55.7796 43.8864 55.6972 43.4367 55.6972 42.9404ZM57.127 42.9404C57.127 43.2323 57.1711 43.501 57.2593 43.7462C57.3535 43.9856 57.4859 44.1958 57.6565 44.3769C57.8271 44.552 58.0301 44.6893 58.2654 44.7885C58.5067 44.8878 58.7744 44.9374 59.0686 44.9374C59.3627 44.9374 59.6275 44.8878 59.8628 44.7885C60.1041 44.6893 60.31 44.552 60.4806 44.3769C60.6513 44.1958 60.7807 43.9856 60.8689 43.7462C60.9631 43.501 61.0101 43.2323 61.0101 42.9404C61.0101 42.6542 60.9631 42.3885 60.8689 42.1433C60.7807 41.898 60.6513 41.6878 60.4806 41.5126C60.31 41.3316 60.1041 41.1915 59.8628 41.0922C59.6275 40.9929 59.3627 40.9433 59.0686 40.9433C58.7744 40.9433 58.5067 40.9929 58.2654 41.0922C58.0301 41.1915 57.8271 41.3316 57.6565 41.5126C57.4859 41.6878 57.3535 41.898 57.2593 42.1433C57.1711 42.3885 57.127 42.6542 57.127 42.9404Z" fill="white"/>
<path d="M51.0306 39.8396H55.2227V41.101H52.4073V42.3623H55.0109V43.6236H52.4073V46.0411H51.0306V39.8396Z" fill="white"/>
<path d="M46.1433 39.8396H49.9647V40.3652H46.7257V42.5725H49.7617V43.098H46.7257V45.5155H50.1059V46.0411H46.1433V39.8396Z" fill="white"/>
<path d="M45.251 45.0688C44.951 45.4717 44.6038 45.7608 44.2096 45.936C43.8154 46.1112 43.3888 46.1987 42.9299 46.1987C42.4534 46.1987 42.015 46.1199 41.6149 45.9623C41.2207 45.7988 40.8824 45.5739 40.6 45.2878C40.3176 44.9958 40.097 44.6513 39.9381 44.2542C39.7792 43.8513 39.6998 43.4134 39.6998 42.9404C39.6998 42.4674 39.7792 42.0323 39.9381 41.6353C40.097 41.2382 40.3176 40.8966 40.6 40.6105C40.8824 40.3185 41.2207 40.0907 41.6149 39.9272C42.015 39.7637 42.4534 39.682 42.9299 39.682C43.3535 39.682 43.7477 39.7579 44.1125 39.9097C44.4832 40.0557 44.8068 40.3039 45.0833 40.6542L44.6068 41.0484C44.4126 40.7564 44.1625 40.5433 43.8566 40.409C43.5565 40.2747 43.2476 40.2075 42.9299 40.2075C42.524 40.2075 42.1562 40.2776 41.8267 40.4178C41.5031 40.5579 41.2266 40.7506 40.9972 40.9959C40.7677 41.2411 40.5912 41.5302 40.4676 41.863C40.3441 42.1958 40.2823 42.555 40.2823 42.9404C40.2823 43.3258 40.3441 43.6849 40.4676 44.0177C40.5912 44.3506 40.7677 44.6396 40.9972 44.8849C41.2266 45.1301 41.5031 45.3228 41.8267 45.463C42.1562 45.6031 42.524 45.6732 42.9299 45.6732C43.0888 45.6732 43.2535 45.6557 43.4241 45.6206C43.5948 45.5798 43.7595 45.5214 43.9184 45.4455C44.0831 45.3637 44.239 45.2644 44.3861 45.1477C44.5332 45.025 44.6627 44.879 44.7744 44.7097L45.251 45.0688Z" fill="white"/>
<path d="M35.6333 42.5725H36.8689C37.1748 42.5725 37.4219 42.5345 37.6102 42.4586C37.8043 42.3827 37.9544 42.2893 38.0603 42.1783C38.1662 42.0674 38.2368 41.9477 38.2721 41.8192C38.3133 41.6907 38.3339 41.5739 38.3339 41.4688C38.3339 41.3637 38.3133 41.2469 38.2721 41.1185C38.2368 40.99 38.1662 40.8703 38.0603 40.7593C37.9544 40.6484 37.8043 40.555 37.6102 40.4791C37.4219 40.4031 37.1748 40.3652 36.8689 40.3652H35.6333V42.5725ZM35.0508 39.8396H36.6923C36.7747 39.8396 36.8865 39.8426 37.0277 39.8484C37.1689 39.8542 37.3219 39.8718 37.4866 39.901C37.6514 39.9302 37.8191 39.9769 37.9897 40.0411C38.1603 40.1053 38.3133 40.1988 38.4486 40.3214C38.5839 40.444 38.6957 40.5988 38.784 40.7856C38.8722 40.9725 38.9164 41.2002 38.9164 41.4688C38.9164 41.7666 38.8634 42.0119 38.7575 42.2046C38.6575 42.3973 38.528 42.555 38.3692 42.6776C38.2162 42.7944 38.0456 42.882 37.8573 42.9404C37.669 42.9988 37.4896 43.0396 37.319 43.063L39.137 46.0411H38.4751L36.7188 43.098H35.6333V46.0411H35.0508V39.8396Z" fill="white"/>
<path d="M33.6335 43.6674C33.6335 44.0002 33.5953 44.3185 33.5188 44.6221C33.4423 44.9258 33.3128 45.1944 33.1305 45.4279C32.9539 45.6615 32.7186 45.8484 32.4244 45.9885C32.1361 46.1287 31.7802 46.1987 31.3565 46.1987C30.9329 46.1987 30.574 46.1287 30.2798 45.9885C29.9915 45.8484 29.7562 45.6615 29.5738 45.4279C29.3973 45.1944 29.2708 44.9258 29.1943 44.6221C29.1178 44.3185 29.0796 44.0002 29.0796 43.6674V39.8396H29.6621V43.5185C29.6621 43.7404 29.6826 43.9769 29.7238 44.2279C29.765 44.479 29.8444 44.7126 29.9621 44.9287C30.0857 45.1447 30.2563 45.3228 30.474 45.463C30.6976 45.6031 30.9918 45.6732 31.3565 45.6732C31.7213 45.6732 32.0126 45.6031 32.2303 45.463C32.4538 45.3228 32.6245 45.1447 32.7421 44.9287C32.8657 44.7126 32.9481 44.479 32.9892 44.2279C33.0304 43.9769 33.051 43.7404 33.051 43.5185V39.8396H33.6335V43.6674Z" fill="white"/>
<path d="M21.6046 42.9404C21.6046 42.4674 21.684 42.0323 21.8428 41.6353C22.0017 41.2382 22.2223 40.8966 22.5048 40.6105C22.7872 40.3185 23.1255 40.0907 23.5197 39.9272C23.9198 39.7637 24.3581 39.682 24.8347 39.682C25.3112 39.682 25.7466 39.7637 26.1408 39.9272C26.5409 40.0907 26.8822 40.3185 27.1646 40.6105C27.447 40.8966 27.6676 41.2382 27.8265 41.6353C27.9854 42.0323 28.0648 42.4674 28.0648 42.9404C28.0648 43.4134 27.9854 43.8513 27.8265 44.2542C27.6676 44.6513 27.447 44.9958 27.1646 45.2878C26.8822 45.5739 26.5409 45.7988 26.1408 45.9623C25.7466 46.1199 25.3112 46.1987 24.8347 46.1987C24.3581 46.1987 23.9198 46.1199 23.5197 45.9623C23.1255 45.7988 22.7872 45.5739 22.5048 45.2878C22.2223 44.9958 22.0017 44.6513 21.8428 44.2542C21.684 43.8513 21.6046 43.4134 21.6046 42.9404ZM22.187 42.9404C22.187 43.3258 22.2488 43.6849 22.3724 44.0177C22.4959 44.3506 22.6724 44.6396 22.9019 44.8849C23.1314 45.1301 23.4079 45.3228 23.7315 45.463C24.061 45.6031 24.4287 45.6732 24.8347 45.6732C25.2406 45.6732 25.6054 45.6031 25.929 45.463C26.2585 45.3228 26.538 45.1301 26.7674 44.8849C26.9969 44.6396 27.1734 44.3506 27.297 44.0177C27.4205 43.6849 27.4823 43.3258 27.4823 42.9404C27.4823 42.555 27.4205 42.1958 27.297 41.863C27.1734 41.5302 26.9969 41.2411 26.7674 40.9959C26.538 40.7506 26.2585 40.5579 25.929 40.4178C25.6054 40.2776 25.2406 40.2075 24.8347 40.2075C24.4287 40.2075 24.061 40.2776 23.7315 40.4178C23.4079 40.5579 23.1314 40.7506 22.9019 40.9959C22.6724 41.2411 22.4959 41.5302 22.3724 41.863C22.2488 42.1958 22.187 42.555 22.187 42.9404Z" fill="white"/>
<path d="M17.4507 44.8936C17.6037 45.1564 17.8008 45.352 18.042 45.4805C18.2892 45.609 18.5686 45.6732 18.8805 45.6732C19.0746 45.6732 19.257 45.644 19.4276 45.5856C19.5983 45.5272 19.7454 45.4455 19.8689 45.3404C19.9984 45.2353 20.0984 45.1097 20.169 44.9637C20.2455 44.8119 20.2837 44.6426 20.2837 44.4557C20.2837 44.2396 20.2366 44.0615 20.1425 43.9214C20.0542 43.7812 19.9336 43.6674 19.7807 43.5798C19.6277 43.4864 19.4541 43.4075 19.26 43.3433C19.0717 43.2791 18.8746 43.2148 18.6687 43.1506C18.4686 43.0864 18.2715 43.0134 18.0773 42.9316C17.8891 42.8499 17.7184 42.7448 17.5655 42.6163C17.4125 42.482 17.2889 42.3156 17.1948 42.117C17.1065 41.9185 17.0624 41.6732 17.0624 41.3813C17.0624 41.1068 17.1154 40.8645 17.2213 40.6542C17.3331 40.4382 17.4802 40.2601 17.6626 40.1199C17.8508 39.974 18.0656 39.8659 18.3068 39.7959C18.548 39.7199 18.801 39.682 19.0658 39.682C19.407 39.682 19.7218 39.7433 20.0101 39.8659C20.3043 39.9827 20.5573 40.1813 20.7691 40.4615L20.2661 40.8207C20.119 40.6163 19.9454 40.4645 19.7454 40.3652C19.5512 40.2601 19.3188 40.2075 19.0481 40.2075C18.8599 40.2075 18.6804 40.2338 18.5098 40.2864C18.3392 40.3331 18.1891 40.4061 18.0597 40.5053C17.9361 40.5988 17.8361 40.7185 17.7596 40.8645C17.6831 41.0105 17.6449 41.1827 17.6449 41.3813C17.6449 41.6907 17.7243 41.9302 17.8832 42.0995C18.042 42.263 18.2391 42.3944 18.4745 42.4937C18.7157 42.5871 18.9746 42.6718 19.2511 42.7477C19.5335 42.8177 19.7924 42.9141 20.0278 43.0367C20.269 43.1593 20.469 43.3316 20.6279 43.5535C20.7868 43.7696 20.8662 44.0703 20.8662 44.4557C20.8662 44.736 20.8132 44.9842 20.7073 45.2002C20.6014 45.4163 20.4573 45.6002 20.2749 45.752C20.0984 45.898 19.8924 46.009 19.6571 46.0849C19.4218 46.1608 19.1776 46.1987 18.9246 46.1987C18.5127 46.1987 18.1332 46.1287 17.7861 45.9885C17.439 45.8425 17.1418 45.6002 16.8947 45.2615L17.4507 44.8936Z" fill="white"/>
<path fill-rule="evenodd" clip-rule="evenodd" d="M47.2587 4.72984H48.9509C49.0362 4.72984 49.1053 4.79893 49.1053 4.88416V4.91482C49.1053 4.99431 49.0753 5.07089 49.0213 5.12925L43.654 10.932C43.5423 11.0528 43.542 11.2391 43.6534 11.3602L47.8534 15.9261C47.9637 16.0459 47.9647 16.23 47.8558 16.3511L47.1786 17.1038C47.062 17.2334 46.8623 17.244 46.7327 17.1273C46.7254 17.1208 46.7184 17.1139 46.7118 17.1067L41.408 11.3598C41.2964 11.2389 41.2963 11.0526 41.4078 10.9317L47.0265 4.83169C47.0863 4.76677 47.1705 4.72984 47.2587 4.72984Z" fill="#F06A2A"/>
<path fill-rule="evenodd" clip-rule="evenodd" d="M49.3656 18.3087H47.683C47.5965 18.3087 47.5263 18.2386 47.5263 18.152V18.1164C47.5263 18.0385 47.5551 17.9633 47.6072 17.9054L52.9782 11.9244C53.0859 11.8044 53.086 11.6227 52.9784 11.5026L48.7762 6.81251C48.6693 6.69318 48.6687 6.5127 48.7748 6.39265L49.4521 5.62622C49.5676 5.49553 49.7672 5.48322 49.8979 5.59872C49.9068 5.60658 49.9152 5.61493 49.9232 5.62373L55.2307 11.5027C55.3389 11.6226 55.3392 11.8049 55.2314 11.9251L49.6007 18.2037C49.5408 18.2705 49.4553 18.3087 49.3656 18.3087Z" fill="#F06A2A"/>
<path fill-rule="evenodd" clip-rule="evenodd" d="M48.371 14.5192C49.544 14.5192 50.4693 13.2241 50.3596 11.8393C50.3108 11.2232 49.9299 10.1202 49.8008 10.3165C49.737 10.4134 49.8817 11.1701 49.8343 11.633C49.7555 12.4026 49.4587 12.8712 49.307 12.5972C49.1553 12.3232 49.2074 11.7825 49.1705 11.2134C49.1306 10.5963 49.0265 9.98165 48.8971 9.60046C48.8407 9.4342 48.3098 8.02105 47.9269 7.88763C47.9021 7.88763 47.8865 7.88763 47.8802 7.88763C47.8678 7.88763 47.8327 7.89944 47.8113 7.91816C47.7269 7.99188 47.8538 8.47693 47.5024 9.06771C47.2717 9.45553 46.8222 9.96117 46.6018 10.4577C46.3034 11.1299 46.2502 11.7887 46.2655 12.1365C46.3325 13.654 47.198 14.5192 48.371 14.5192Z" fill="#F06A2A"/>
<path d="M38.7156 81.3088C38.7275 80.8437 38.8274 80.4189 39.0152 80.0344C39.1971 79.6021 39.6263 79.1445 40.303 78.6616C40.8903 78.2413 41.2704 77.9402 41.4433 77.7583C41.7086 77.4751 41.8413 77.1651 41.8413 76.8282C41.8413 76.554 41.7653 76.3259 41.6132 76.1441C41.4612 75.9622 41.2436 75.8713 40.9604 75.8713C40.5728 75.8713 40.309 76.0159 40.1689 76.305C40.0884 76.472 40.0407 76.7373 40.0258 77.101H38.7872C38.808 76.5495 38.9079 76.1038 39.0868 75.764C39.4266 75.1171 40.0303 74.7936 40.8978 74.7936C41.5834 74.7936 42.129 74.9844 42.5344 75.366C42.9398 75.7446 43.1425 76.2469 43.1425 76.8729C43.1425 77.3529 42.9994 77.7792 42.7132 78.1518C42.5254 78.3993 42.2169 78.675 41.7876 78.9791L41.2779 79.3413C40.9589 79.5678 40.7398 79.7318 40.6205 79.8332C40.5043 79.9345 40.4059 80.0523 40.3254 80.1864H43.1559V81.3088H38.7156ZM45.1145 78.1295C45.1145 78.8747 45.1756 79.4456 45.2978 79.8421C45.4201 80.2356 45.6705 80.4324 46.0491 80.4324C46.4277 80.4324 46.6751 80.2356 46.7914 79.8421C46.9106 79.4456 46.9702 78.8747 46.9702 78.1295C46.9702 77.3484 46.9106 76.7701 46.7914 76.3945C46.6751 76.0189 46.4277 75.831 46.0491 75.831C45.6705 75.831 45.4201 76.0189 45.2978 76.3945C45.1756 76.7701 45.1145 77.3484 45.1145 78.1295ZM46.0491 74.7802C46.8748 74.7802 47.4532 75.0709 47.7841 75.6522C48.118 76.2335 48.2849 77.0593 48.2849 78.1295C48.2849 79.1997 48.118 80.0239 47.7841 80.6023C47.4532 81.1806 46.8748 81.4698 46.0491 81.4698C45.2233 81.4698 44.6435 81.1806 44.3096 80.6023C43.9787 80.0239 43.8133 79.1997 43.8133 78.1295C43.8133 77.0593 43.9787 76.2335 44.3096 75.6522C44.6435 75.0709 45.2233 74.7802 46.0491 74.7802ZM48.9109 81.3088C48.9228 80.8437 49.0227 80.4189 49.2105 80.0344C49.3924 79.6021 49.8216 79.1445 50.4984 78.6616C51.0856 78.2413 51.4657 77.9402 51.6386 77.7583C51.9039 77.4751 52.0366 77.1651 52.0366 76.8282C52.0366 76.554 51.9606 76.3259 51.8085 76.1441C51.6565 75.9622 51.4389 75.8713 51.1557 75.8713C50.7681 75.8713 50.5043 76.0159 50.3642 76.305C50.2837 76.472 50.236 76.7373 50.2211 77.101H48.9825C49.0033 76.5495 49.1032 76.1038 49.2821 75.764C49.6219 75.1171 50.2256 74.7936 51.0931 74.7936C51.7787 74.7936 52.3243 74.9844 52.7297 75.366C53.1351 75.7446 53.3378 76.2469 53.3378 76.8729C53.3378 77.3529 53.1947 77.7792 52.9086 78.1518C52.7208 78.3993 52.4122 78.675 51.9829 78.9791L51.4732 79.3413C51.1542 79.5678 50.9351 79.7318 50.8158 79.8332C50.6996 79.9345 50.6012 80.0523 50.5207 80.1864H53.3513V81.3088H48.9109ZM55.2338 79.5738C55.2845 79.851 55.3814 80.0657 55.5245 80.2177C55.6676 80.3668 55.8762 80.4413 56.1505 80.4413C56.4665 80.4413 56.7065 80.331 56.8704 80.1104C57.0374 79.8868 57.1208 79.6066 57.1208 79.2697C57.1208 78.9388 57.0433 78.6601 56.8883 78.4335C56.7333 78.204 56.4918 78.0892 56.1639 78.0892C56.0089 78.0892 55.8747 78.1086 55.7615 78.1474C55.5617 78.2189 55.4112 78.3516 55.3098 78.5453L54.1651 78.4917L54.6212 74.9099H58.194V75.992H55.5423L55.3098 77.4095C55.5066 77.2813 55.6601 77.1964 55.7704 77.1546C55.9552 77.0861 56.1803 77.0518 56.4456 77.0518C56.9822 77.0518 57.4502 77.2322 57.8497 77.5929C58.2492 77.9536 58.4489 78.4783 58.4489 79.1669C58.4489 79.7661 58.2566 80.3012 57.8721 80.7722C57.4875 81.2432 56.9122 81.4787 56.146 81.4787C55.5289 81.4787 55.0221 81.3133 54.6257 80.9824C54.2292 80.6515 54.0086 80.1819 53.9639 79.5738H55.2338Z" fill="white"/>
<path d="M20.8185 61.0872C20.856 61.7553 21.0137 62.2979 21.2916 62.7148C21.8208 63.4953 22.7536 63.8855 24.0899 63.8855C24.6886 63.8855 25.2338 63.8 25.7256 63.6289C26.6771 63.2975 27.1528 62.7041 27.1528 61.8489C27.1528 61.2074 26.9524 60.7504 26.5515 60.4778C26.1452 60.2105 25.5091 59.978 24.6432 59.7802L23.0476 59.4194C22.0052 59.1842 21.2676 58.925 20.8346 58.6416C20.0862 58.1499 19.7121 57.4149 19.7121 56.4367C19.7121 55.3783 20.0782 54.5097 20.8105 53.8308C21.5429 53.1519 22.5799 52.8125 23.9216 52.8125C25.1563 52.8125 26.204 53.1118 27.0646 53.7105C27.9306 54.3039 28.3636 55.2553 28.3636 56.565H26.8642C26.784 55.9342 26.613 55.4504 26.351 55.1137C25.8646 54.499 25.0387 54.1916 23.8734 54.1916C22.9327 54.1916 22.2565 54.3894 21.8449 54.7849C21.4333 55.1805 21.2275 55.6402 21.2275 56.1641C21.2275 56.7414 21.468 57.1636 21.9491 57.4309C22.2645 57.602 22.9781 57.8158 24.0899 58.0724L25.7417 58.4492C26.5381 58.631 27.1528 58.8795 27.5858 59.1949C28.3342 59.7455 28.7084 60.5446 28.7084 61.5923C28.7084 62.8966 28.2326 63.8294 27.2811 64.3906C26.335 64.9519 25.2338 65.2325 23.9777 65.2325C22.513 65.2325 21.3665 64.8583 20.5379 64.11C19.7094 63.367 19.3031 62.3594 19.3192 61.0872H20.8185ZM31.9797 56.3004V62.0012C31.9797 62.4396 32.0492 62.7977 32.1882 63.0757C32.4448 63.5888 32.9232 63.8454 33.6234 63.8454C34.6284 63.8454 35.3126 63.3964 35.6761 62.4983C35.8739 62.0173 35.9727 61.3571 35.9727 60.5179V56.3004H37.416V64.8877H36.0529L36.069 63.6209C35.8819 63.947 35.6493 64.2222 35.3714 64.4467C34.8208 64.8958 34.1526 65.1203 33.3669 65.1203C32.1428 65.1203 31.3089 64.7113 30.8652 63.8935C30.6247 63.4552 30.5044 62.8699 30.5044 62.1375V56.3004H31.9797ZM39.6771 56.3004H41.1043V57.5191C41.4464 57.0968 41.7565 56.7895 42.0344 56.597C42.5102 56.271 43.05 56.1079 43.6541 56.1079C44.3383 56.1079 44.8889 56.2763 45.3058 56.6131C45.541 56.8055 45.7548 57.0888 45.9472 57.463C46.268 57.0033 46.6448 56.6639 47.0778 56.4447C47.5108 56.2202 47.9972 56.1079 48.5371 56.1079C49.6917 56.1079 50.4775 56.5249 50.8944 57.3588C51.1189 57.8078 51.2312 58.4118 51.2312 59.1708V64.8877H49.7318V58.9223C49.7318 58.3503 49.5875 57.9574 49.2988 57.7436C49.0155 57.5298 48.6681 57.4229 48.2565 57.4229C47.6898 57.4229 47.2007 57.6127 46.7891 57.9922C46.3829 58.3717 46.1798 59.0051 46.1798 59.8925V64.8877H44.7125V59.2831C44.7125 58.7004 44.643 58.2755 44.504 58.0082C44.2848 57.6073 43.8759 57.4069 43.2772 57.4069C42.732 57.4069 42.2349 57.618 41.7859 58.0403C41.3422 58.4626 41.1204 59.227 41.1204 60.3335V64.8877H39.6771V56.3004ZM53.356 56.3004H54.7832V57.5191C55.1253 57.0968 55.4353 56.7895 55.7133 56.597C56.189 56.271 56.7289 56.1079 57.3329 56.1079C58.0171 56.1079 58.5677 56.2763 58.9847 56.6131C59.2199 56.8055 59.4337 57.0888 59.6261 57.463C59.9468 57.0033 60.3237 56.6639 60.7567 56.4447C61.1896 56.2202 61.6761 56.1079 62.216 56.1079C63.3706 56.1079 64.1563 56.5249 64.5733 57.3588C64.7978 57.8078 64.91 58.4118 64.91 59.1708V64.8877H63.4107V58.9223C63.4107 58.3503 63.2663 57.9574 62.9777 57.7436C62.6944 57.5298 62.3469 57.4229 61.9353 57.4229C61.3687 57.4229 60.8796 57.6127 60.468 57.9922C60.0618 58.3717 59.8586 59.0051 59.8586 59.8925V64.8877H58.3913V59.2831C58.3913 58.7004 58.3218 58.2755 58.1829 58.0082C57.9637 57.6073 57.5548 57.4069 56.9561 57.4069C56.4109 57.4069 55.9137 57.618 55.4647 58.0403C55.0211 58.4626 54.7992 59.227 54.7992 60.3335V64.8877H53.356V56.3004ZM70.6109 56.1079C71.2203 56.1079 71.8109 56.2523 72.3829 56.5409C72.9549 56.8242 73.3905 57.193 73.6898 57.6474C73.9785 58.0804 74.1709 58.5855 74.2671 59.1628C74.3527 59.5584 74.3954 60.1891 74.3954 61.0551H68.1012C68.128 61.9264 68.3338 62.6266 68.7186 63.1558C69.1035 63.6797 69.6995 63.9416 70.5067 63.9416C71.2604 63.9416 71.8617 63.693 72.3107 63.1959C72.5673 62.9073 72.7491 62.5732 72.856 62.1937H74.2752C74.2377 62.509 74.1121 62.8618 73.8983 63.2521C73.6898 63.6369 73.4546 63.9523 73.1927 64.1982C72.7544 64.6258 72.2118 64.9145 71.5651 65.0641C71.2176 65.1497 70.8247 65.1924 70.3864 65.1924C69.3173 65.1924 68.4113 64.8049 67.6683 64.0298C66.9252 63.2494 66.5537 62.1589 66.5537 60.7584C66.5537 59.3793 66.9279 58.2595 67.6763 57.3988C68.4246 56.5382 69.4028 56.1079 70.6109 56.1079ZM72.9121 59.9085C72.8533 59.2831 72.717 58.7833 72.5032 58.4091C72.1076 57.7142 71.4475 57.3668 70.5227 57.3668C69.8599 57.3668 69.3039 57.6073 68.8549 58.0884C68.4059 58.5641 68.1681 59.1708 68.1413 59.9085H72.9121ZM76.2155 56.3004H77.5866V57.7837C77.6989 57.4951 77.9742 57.1449 78.4125 56.7333C78.8508 56.3164 79.356 56.1079 79.9279 56.1079C79.9546 56.1079 80.0001 56.1106 80.0642 56.1159C80.1284 56.1213 80.238 56.132 80.393 56.148V57.6715C80.3074 57.6554 80.2273 57.6447 80.1524 57.6394C80.0829 57.634 80.0054 57.6314 79.9199 57.6314C79.1929 57.6314 78.6343 57.8666 78.2441 58.337C77.8539 58.802 77.6588 59.3392 77.6588 59.9486V64.8877H76.2155V56.3004Z" fill="white"/>
</g>
<defs>
<linearGradient id="paint0_linear_7899_410824" x1="3401.64" y1="8588.3" x2="22202.4" y2="20514" gradientUnits="userSpaceOnUse">
<stop stop-color="#C2C2BD"/>
<stop offset="1" stop-color="#F06A2A"/>
</linearGradient>
<radialGradient id="paint1_radial_7899_410824" cx="0" cy="0" r="1" gradientUnits="userSpaceOnUse" gradientTransform="translate(28328.1 17367.1) rotate(102.423) scale(38653 43868.9)">
<stop stop-color="white"/>
<stop offset="1"/>
</radialGradient>
<linearGradient id="paint2_linear_7899_410824" x1="-1019.24" y1="32417.9" x2="12619.5" y2="5022.18" gradientUnits="userSpaceOnUse">
<stop stop-color="white"/>
<stop offset="1"/>
</linearGradient>
<linearGradient id="paint3_linear_7899_410824" x1="8042.8" y1="854.32" x2="7596.05" y2="1769.89" gradientUnits="userSpaceOnUse">
<stop stop-color="#FFCB00"/>
<stop offset="1" stop-color="#F06A2B"/>
</linearGradient>
<linearGradient id="paint4_linear_7899_410824" x1="3971.84" y1="4420.66" x2="3971.84" y2="51.7825" gradientUnits="userSpaceOnUse">
<stop stop-color="#FFCB00"/>
<stop offset="1" stop-color="#F06A2B"/>
</linearGradient>
<clipPath id="clip0_7899_410824">
<rect width="96" height="96" fill="white"/>
</clipPath>
</defs>
</svg>