<svg xmlns="http://www.w3.org/2000/svg" width="96" height="96" viewBox="0 0 96 96" fill="none">
<rect y="0.00195312" width="96" height="95.9964" rx="16" fill="#FBEEF2"/>
<g transform="translate(-120, 0)">
<path d="M185.959 33.21L185.96 33.2112C186.306 33.5543 186.5 34.0187 186.5 34.502V74.6744C186.5 75.6796 185.677 76.502 184.652 76.502H149.348C148.323 76.502 147.5 75.6796 147.5 74.6744V25.3295C147.5 24.3243 148.323 23.502 149.348 23.502H175.462C175.953 23.502 176.424 23.6953 176.77 24.0382C176.77 24.0384 176.77 24.0386 176.77 24.0388L185.959 33.21Z" fill="#F2557C" stroke="#333333"/>
<path d="M153.996 56.0098C153.121 56.0098 153.102 55.2175 153.289 54.9043L160.108 43.9872C160.268 43.7738 160.564 43.7422 160.725 43.8924C160.783 43.9461 160.821 44.0178 160.872 44.0782L168.169 52.7547C168.356 53.0053 168.669 53.0053 168.856 52.8174L172.293 49.0589C172.448 48.903 172.733 48.8764 172.896 49.015C172.965 49.0734 173.011 49.1556 173.071 49.2228L177.961 54.6486C178.356 55.0688 178.183 56.0098 177.54 56.0098H153.996Z" fill="white"/>
<path d="M176.354 23.6484C176.211 23.5054 175.995 23.4626 175.809 23.54C175.622 23.6174 175.5 23.7997 175.5 24.002V32.1839C175.5 32.8597 175.664 33.4594 176.073 33.8897C176.487 34.3244 177.072 34.5021 177.732 34.5021H186C186.202 34.5021 186.385 34.3803 186.462 34.1934C186.539 34.0066 186.497 33.7915 186.354 33.6485L176.354 23.6484Z" fill="white" stroke="#333333" stroke-linecap="round" stroke-linejoin="round"/>
<path d="M154 34.001C154 33.4487 154.448 33.001 155 33.001H168C168.552 33.001 169 33.4487 169 34.001C169 34.5533 168.552 35.001 168 35.001H155C154.448 35.001 154 34.5533 154 34.001Z" fill="white"/>
<path d="M154 39.001C154 38.4487 154.448 38.001 155 38.001H171C171.552 38.001 172 38.4487 172 39.001C172 39.5533 171.552 40.001 171 40.001H155C154.448 40.001 154 39.5533 154 39.001Z" fill="white"/>
<path d="M154 63.002C154 62.4497 154.448 62.002 155 62.002H169C169.552 62.002 170 62.4497 170 63.002C170 63.5542 169.552 64.002 169 64.002H155C154.448 64.002 154 63.5542 154 63.002Z" fill="white"/>
<path d="M154 68.002C154 67.4497 154.448 67.002 155 67.002H164C164.552 67.002 165 67.4497 165 68.002C165 68.5542 164.552 69.002 164 69.002H155C154.448 69.002 154 68.5542 154 68.002Z" fill="white"/>
<path d="M141.5 56.7667V21.502C141.5 19.8451 142.843 18.502 144.5 18.502H178.5C180.157 18.502 181.5 19.8451 181.5 21.502V24.5509M141.5 55.7372V71.502C141.5 73.1588 142.843 74.502 144.5 74.502H145" stroke="#333333"/>
<path d="M174.483 65.401L175.162 64.6668L174.483 65.401L179.411 69.9584L178.102 76.542C177.893 77.5943 178.315 78.6721 179.183 79.3027C180.051 79.9333 181.207 80.0016 182.143 79.4776L188 76.199L193.857 79.4776C194.793 80.0016 195.949 79.9333 196.817 79.3027C197.685 78.6721 198.107 77.5943 197.898 76.542L196.59 69.9584L201.518 65.401C202.305 64.6726 202.597 63.5526 202.266 62.5322C201.934 61.5119 201.04 60.7775 199.974 60.6511L193.309 59.8608L190.497 53.7657C190.048 52.7914 189.073 52.1675 188 52.1675C186.927 52.1675 185.952 52.7914 185.503 53.7657L182.692 59.8608L176.026 60.6511C174.96 60.7775 174.066 61.5119 173.734 62.5322C173.403 63.5526 173.695 64.6726 174.483 65.401Z" fill="#F2557C" stroke="#FBEEF2" stroke-width="2"/>
</g>
<defs>
<linearGradient id="paint0_linear_490_40992" x1="30.0001" y1="19.9297" x2="81.5095" y2="60.3233" gradientUnits="userSpaceOnUse">
<stop stop-color="#FF8E3D"/>
<stop offset="1" stop-color="#FF6F3D"/>
</linearGradient>
<linearGradient id="paint1_linear_490_40992" x1="413.053" y1="49.0469" x2="436.903" y2="75.8941" gradientUnits="userSpaceOnUse">
<stop stop-color="#FF8E3D"/>
<stop offset="1" stop-color="#FF6F3D"/>
</linearGradient>
<linearGradient id="paint2_linear_490_40992" x1="538.5" y1="58" x2="538.5" y2="76.3328" gradientUnits="userSpaceOnUse">
<stop stop-color="#FF8E3D"/>
<stop offset="1" stop-color="#FF6F3D"/>
</linearGradient>
</defs>
</svg>