<svg xmlns="http://www.w3.org/2000/svg" width="96" height="96" viewBox="0 0 96 96" fill="none">
<rect width="96" height="96" rx="16" fill="#F5F5F5"/>
<g transform="translate(-360, 0)">
<path fill-rule="evenodd" clip-rule="evenodd" d="M406.163 21.9844C404.445 21.9844 403.052 23.0265 403.052 24.312L383.052 70.6568C383.052 71.9423 384.445 72.9844 386.163 72.9844H429.89C431.608 72.9844 433 71.9423 433 70.6568V33.4844C433 32.8671 432.672 32.275 432.089 31.8385L421.1 22.6661C420.517 22.2296 419.726 21.9844 418.901 21.9844H406.163Z" fill="#9ADAF3"/>
<path d="M396.5 22C396.224 22 396 22.2239 396 22.5C396 22.7761 396.224 23 396.5 23V22ZM432.5 33.0661H433V32.8747L432.872 32.7322L432.5 33.0661ZM431.813 32.3541L431.459 32.708L431.46 32.7092L431.813 32.3541ZM422.625 23.1817L422.978 22.8279L422.977 22.8267L422.625 23.1817ZM421.865 22.5L422.17 22.1035L422.035 22H421.865V22.5ZM396.5 23H398.857V22H396.5V23ZM430.153 73H390.036V74H430.153V73ZM432 71.1724C432 72.1778 431.177 73 430.153 73V74C431.721 74 433 72.738 433 71.1724H432ZM432 33.0661V71.1724H433V33.0661H432ZM431.46 32.7092C431.676 32.9234 431.845 33.0976 431.958 33.2176C432.015 33.2775 432.058 33.3239 432.087 33.355C432.101 33.3705 432.112 33.3822 432.119 33.3898C432.122 33.3936 432.124 33.3963 432.126 33.3981C432.127 33.399 432.127 33.3996 432.128 33.3999C432.128 33.4001 432.128 33.4002 432.128 33.4002C432.128 33.4002 432.128 33.4002 432.128 33.4002C432.128 33.4002 432.128 33.4002 432.128 33.4002C432.128 33.4002 432.128 33.4002 432.128 33.4002C432.128 33.4002 432.128 33.4001 432.5 33.0661C432.872 32.7322 432.872 32.7321 432.872 32.7321C432.872 32.7321 432.872 32.7321 432.872 32.7321C432.872 32.732 432.872 32.732 432.872 32.732C432.872 32.7319 432.872 32.7318 432.872 32.7317C432.871 32.7314 432.871 32.7311 432.871 32.7308C432.87 32.7301 432.869 32.7291 432.868 32.7278C432.866 32.7253 432.863 32.7217 432.859 32.7172C432.85 32.708 432.838 32.6947 432.822 32.6776C432.791 32.6433 432.745 32.5936 432.684 32.5301C432.564 32.4032 432.389 32.2214 432.165 31.9991L431.46 32.7092ZM422.272 23.5356L431.459 32.708L432.166 32.0003L422.978 22.8279L422.272 23.5356ZM421.865 22.5C421.561 22.8965 421.561 22.8965 421.561 22.8965C421.561 22.8965 421.561 22.8964 421.561 22.8964C421.561 22.8964 421.561 22.8964 421.561 22.8963C421.561 22.8963 421.561 22.8963 421.561 22.8962C421.56 22.8962 421.561 22.8962 421.561 22.8963C421.561 22.8965 421.561 22.8969 421.562 22.8975C421.564 22.8988 421.567 22.901 421.571 22.9041C421.578 22.9103 421.591 22.9202 421.608 22.9337C421.641 22.9606 421.691 23.0018 421.754 23.0564C421.881 23.1656 422.062 23.328 422.273 23.5368L422.977 22.8267C422.747 22.599 422.549 22.4205 422.406 22.298C422.335 22.2367 422.277 22.1892 422.237 22.1566C422.217 22.1402 422.201 22.1276 422.19 22.1187C422.184 22.1142 422.179 22.1107 422.176 22.1082C422.175 22.1069 422.173 22.1059 422.172 22.1051C422.172 22.1047 422.171 22.1044 422.171 22.1041C422.171 22.104 422.171 22.1038 422.17 22.1037C422.17 22.1037 422.17 22.1036 422.17 22.1036C422.17 22.1036 422.17 22.1035 422.17 22.1035C422.17 22.1035 422.17 22.1035 421.865 22.5ZM398.857 23H421.865V22H398.857V23Z" fill="#333333"/>
<path d="M422.354 22.6464C422.211 22.5034 421.995 22.4607 421.809 22.5381C421.622 22.6154 421.5 22.7978 421.5 23V31.182C421.5 31.8578 421.664 32.4574 422.073 32.8877C422.487 33.3225 423.072 33.5001 423.732 33.5001H432C432.202 33.5001 432.385 33.3783 432.462 33.1915C432.539 33.0046 432.497 32.7896 432.354 32.6466L422.354 22.6464Z" fill="white" stroke="#333333" stroke-linecap="round" stroke-linejoin="round"/>
<rect x="413.553" y="50.4844" width="25" height="23" rx="4.5" fill="url(#paint1_linear_490_40992)"/>
<rect x="413.553" y="50.4844" width="25" height="23" rx="4.5" stroke="#333333"/>
<path d="M420.053 66.9531V63.9844M427.053 66.9531V59.4219C427.053 57.6094 425.941 55.9844 423.544 55.9844C421.147 55.9844 420.053 57.7344 420.053 59.4219V63.9844M420.053 63.9844H427.053M431.053 56.1557V66.9531" stroke="white" stroke-width="2" stroke-linecap="round" stroke-linejoin="round"/>
<rect width="34.1603" height="5" rx="2.5" transform="matrix(1 0 0 -1 370.544 63)" fill="#9ADAF3"/>
<rect width="29.1693" height="5" rx="2.5" transform="matrix(1 0 0 -1 376 43)" fill="#9ADAF3"/>
<path d="M383.403 50.5C383.403 51.8807 384.523 53 385.903 53H400.5C401.881 53 403 51.8807 403 50.5C403 49.1193 401.881 48 400.5 48H385.903C384.523 48 383.403 49.1193 383.403 50.5Z" fill="#9ADAF3"/>
<path d="M377 70.5C377 71.8807 378.119 73 379.5 73H406.889V72C406.889 69.7909 405.098 68 402.889 68H379.5C378.119 68 377 69.1193 377 70.5Z" fill="#9ADAF3"/>
<path d="M388.456 30.5C388.456 31.8807 389.575 33 390.956 33H400.5C401.881 33 403 31.8807 403 30.5C403 29.1193 401.881 28 400.5 28H390.956C389.575 28 388.456 29.1193 388.456 30.5Z" fill="#9ADAF3"/>
<rect width="25.1693" height="5" rx="2.5" transform="matrix(1 0 0 -1 370 58)" fill="#F5F5F5"/>
<rect width="23" height="5" rx="2.5" transform="matrix(1 0 0 -1 384 38)" fill="#F5F5F5"/>
<rect width="24.1693" height="5" rx="2.5" transform="matrix(1 0 0 -1 388 48)" fill="#F5F5F5"/>
<rect width="28.5801" height="5" rx="2.5" transform="matrix(1 0 0 -1 378.309 68)" fill="#F5F5F5"/>
<rect width="31.6186" height="5" rx="2.5" transform="matrix(1 0 0 -1 379 28)" fill="#F5F5F5"/>
</g>
<defs>
<linearGradient id="paint0_linear_490_40992" x1="30.0001" y1="19.9297" x2="81.5095" y2="60.3233" gradientUnits="userSpaceOnUse">
<stop stop-color="#FF8E3D"/>
<stop offset="1" stop-color="#FF6F3D"/>
</linearGradient>
<linearGradient id="paint1_linear_490_40992" x1="413.053" y1="49.0469" x2="436.903" y2="75.8941" gradientUnits="userSpaceOnUse">
<stop stop-color="#FF8E3D"/>
<stop offset="1" stop-color="#FF6F3D"/>
</linearGradient>
<linearGradient id="paint2_linear_490_40992" x1="538.5" y1="58" x2="538.5" y2="76.3328" gradientUnits="userSpaceOnUse">
<stop stop-color="#FF8E3D"/>
<stop offset="1" stop-color="#FF6F3D"/>
</linearGradient>
</defs>
</svg>