<svg xmlns="http://www.w3.org/2000/svg" width="96" height="96" viewBox="0 0 96 96" fill="none">
<rect width="96" height="96" rx="16" fill="#FFF7EC"/>
<path d="M68.9591 32.208L68.9603 32.2092C69.3064 32.5523 69.5 33.0167 69.5 33.5V72.6724C69.5 73.6777 68.6768 74.5 67.6522 74.5H32.3478C31.3232 74.5 30.5 73.6777 30.5 72.6724V24.3276C30.5 23.3223 31.3232 22.5 32.3478 22.5H58.4623C58.9535 22.5 59.4237 22.6934 59.7698 23.0362C59.77 23.0364 59.7702 23.0366 59.7704 23.0368L68.9591 32.208Z" fill="url(#paint0_linear_490_40992)" stroke="#333333"/>
<path d="M59.3536 22.6464C59.2106 22.5034 58.9955 22.4607 58.8087 22.5381C58.6218 22.6154 58.5 22.7978 58.5 23V31.182C58.5 31.8578 58.6636 32.4574 59.0734 32.8877C59.4874 33.3225 60.072 33.5001 60.7316 33.5001H69C69.2022 33.5001 69.3845 33.3783 69.4619 33.1915C69.5393 33.0046 69.4966 32.7896 69.3536 32.6466L59.3536 22.6464Z" fill="white" stroke="#333333" stroke-linecap="round" stroke-linejoin="round"/>
<path d="M36 32C36 31.4477 36.4477 31 37 31H50C50.5523 31 51 31.4477 51 32C51 32.5523 50.5523 33 50 33H37C36.4477 33 36 32.5523 36 32Z" fill="white"/>
<path d="M36 37C36 36.4477 36.4477 36 37 36H53C53.5523 36 54 36.4477 54 37C54 37.5523 53.5523 38 53 38H37C36.4477 38 36 37.5523 36 37Z" fill="white"/>
<path d="M40.7071 47.7071C40.0771 47.0771 40.5233 46 41.4142 46H61.5858C62.4767 46 62.9229 47.0771 62.2929 47.7071C62.1054 47.8946 61.851 48 61.5858 48H41.4142C41.149 48 40.8946 47.8946 40.7071 47.7071Z" fill="white"/>
<path d="M37.7071 42.7071C37.0771 42.0771 37.5233 41 38.4142 41H63C63.5523 41 64 41.4477 64 42C64 42.5523 63.5523 43 63 43H38.4142C38.149 43 37.8946 42.8946 37.7071 42.7071Z" fill="white"/>
<path d="M74.8919 44.9389L74.8919 44.939L74.8965 44.9343C75.4435 44.3705 76.0993 44.1071 76.6939 44.0468C77.299 43.9855 77.7894 44.1371 78.0379 44.3333L78.9572 45.1521C78.9602 45.1557 78.9647 45.1615 78.9706 45.17C78.9818 45.1863 78.9958 45.2092 79.0116 45.2396C79.0434 45.3008 79.0776 45.3835 79.1092 45.4865C79.1725 45.6926 79.2189 45.9593 79.2217 46.2583C79.2272 46.8507 79.0623 47.535 78.5642 48.1212L64.5986 62.0086C64.0588 62.4538 62.7596 63.2228 61.3604 63.969C59.9568 64.7176 58.5276 65.4036 57.7912 65.6733L57.7911 65.6733L57.7818 65.6769C57.6809 65.7162 57.6005 65.741 57.5381 65.7561C57.5562 65.6671 57.5909 65.5491 57.6494 65.3989L57.6523 65.3914L57.6549 65.3839C57.9213 64.6282 58.5378 63.3865 59.2285 62.1015C59.8996 60.8529 60.6235 59.5946 61.1201 58.7654L74.8919 44.9389ZM57.5234 65.9109C57.5234 65.9109 57.5232 65.9102 57.523 65.9086C57.5233 65.9101 57.5234 65.9109 57.5234 65.9109Z" fill="white" stroke="#333333"/>
<path fill-rule="evenodd" clip-rule="evenodd" d="M79.7813 51.3682L71.3105 59.8217L72.0014 60.541L80.469 52.0774L79.7813 51.3682Z" fill="#333333"/>
<path fill-rule="evenodd" clip-rule="evenodd" d="M75.2385 48.1434L79.7472 52.7056L80.4625 52.0108L75.9452 47.4534L75.2385 48.1434Z" fill="#333333"/>
<path fill-rule="evenodd" clip-rule="evenodd" d="M73.3676 45.2641C73.7483 44.8767 74.3691 44.8649 74.7643 45.2375L78.1233 48.404C78.5299 48.7873 78.5422 49.4296 78.1507 49.8283L71.6811 56.4149C71.296 56.8069 70.6662 56.8139 70.2725 56.4306L66.9644 53.2092C66.5686 52.8237 66.5616 52.1901 66.9489 51.796L73.3676 45.2641Z" fill="#D9F4FF" stroke="#333333"/>
<path d="M21.4827 34.9389L21.4827 34.939L21.4782 34.9343C20.9311 34.3705 20.2753 34.1071 19.6807 34.0468C19.0757 33.9855 18.5852 34.1371 18.3367 34.3333L17.4174 35.1521C17.4144 35.1557 17.4099 35.1615 17.4041 35.17C17.3928 35.1863 17.3788 35.2092 17.363 35.2396C17.3313 35.3008 17.297 35.3835 17.2654 35.4865C17.2021 35.6926 17.1557 35.9593 17.1529 36.2583C17.1474 36.8507 17.3123 37.535 17.8104 38.1212L31.776 52.0086C32.3158 52.4538 33.615 53.2228 35.0142 53.969C36.4178 54.7176 37.847 55.4036 38.5835 55.6733L38.5835 55.6733L38.5928 55.6769C38.6937 55.7162 38.7741 55.741 38.8365 55.7561C38.8184 55.6671 38.7837 55.5491 38.7253 55.3989L38.7224 55.3914L38.7197 55.3839C38.4533 54.6282 37.8368 53.3865 37.1461 52.1015C36.475 50.8529 35.7511 49.5946 35.2545 48.7654L21.4827 34.9389ZM38.8512 55.9109C38.8512 55.9109 38.8514 55.9102 38.8516 55.9086C38.8513 55.9101 38.8512 55.9109 38.8512 55.9109Z" fill="white" stroke="#333333"/>
<path fill-rule="evenodd" clip-rule="evenodd" d="M16.5932 41.3682L25.0641 49.8217L24.3731 50.541L15.9055 42.0774L16.5932 41.3682Z" fill="#333333"/>
<path fill-rule="evenodd" clip-rule="evenodd" d="M21.1362 38.1434L16.6274 42.7056L15.9121 42.0108L20.4294 37.4534L21.1362 38.1434Z" fill="#333333"/>
<path fill-rule="evenodd" clip-rule="evenodd" d="M23.007 35.2641C22.6263 34.8767 22.0055 34.8649 21.6103 35.2375L18.2514 38.404C17.8448 38.7873 17.8324 39.4296 18.224 39.8283L24.6936 46.4149C25.0787 46.8069 25.7084 46.8139 26.1021 46.4306L29.4102 43.2092C29.8061 42.8237 29.8131 42.1901 29.4258 41.796L23.007 35.2641Z" fill="#9ADAF3" stroke="#333333"/>
<path d="M35.4973 69.3597C44.9953 66.0635 48.5177 59.6589 45.1549 58.9693C41.792 58.2797 39.3256 67.9315 42.5249 68.67C45.7242 69.4084 49.763 63.7804 51.6936 63.7804C53.6242 63.7804 51.9695 66.2334 53.6976 67.5859C55.4256 68.9384 57.6704 67.1288 57.6704 67.1288" stroke="white"/>
<path d="M25.5 31.7648V19.5C25.5 18.3954 26.3954 17.5 27.5 17.5H63.5C64.6046 17.5 65.5 18.3954 65.5 19.5V24.549M25.5 54.7353V71.5C25.5 72.6046 26.3954 73.5 27.5 73.5H28.4223" stroke="#333333"/>
<defs>
<linearGradient id="paint0_linear_490_40992" x1="30.0001" y1="19.9297" x2="81.5095" y2="60.3233" gradientUnits="userSpaceOnUse">
<stop stop-color="#FF8E3D"/>
<stop offset="1" stop-color="#FF6F3D"/>
</linearGradient>
<linearGradient id="paint1_linear_490_40992" x1="413.053" y1="49.0469" x2="436.903" y2="75.8941" gradientUnits="userSpaceOnUse">
<stop stop-color="#FF8E3D"/>
<stop offset="1" stop-color="#FF6F3D"/>
</linearGradient>
<linearGradient id="paint2_linear_490_40992" x1="538.5" y1="58" x2="538.5" y2="76.3328" gradientUnits="userSpaceOnUse">
<stop stop-color="#FF8E3D"/>
<stop offset="1" stop-color="#FF6F3D"/>
</linearGradient>
</defs>
</svg>