<svg width="449" height="254" viewBox="0 0 449 254" fill="none" xmlns="http://www.w3.org/2000/svg">
<g clip-path="url(#clip0_7868_204479)">
<path d="M391.593 19.6011H315.803V70.3988H391.593V19.6011Z" fill="white"/>
<path d="M391.699 70.5H315.699V19.5H391.699V70.5Z" stroke="#CCCCCC"/>
<path d="M381.199 30H365.199V31H381.199V30Z" fill="#CCCCCC"/>
<path d="M381.199 37H365.199V38H381.199V37Z" fill="#CCCCCC"/>
<path d="M381.199 44H365.199V45H381.199V44Z" fill="#CCCCCC"/>
<path d="M381.199 51H365.199V52H381.199V51Z" fill="#CCCCCC"/>
<path d="M381.199 58H365.199V59H381.199V58Z" fill="#CCCCCC"/>
<path d="M355.199 30H324.199V60H355.199V30Z" fill="white"/>
<path d="M355.699 60.5H324.699V29.5H355.699V60.5Z" stroke="#CCCCCC"/>
<path d="M324.628 53.5815L331.739 46.6413L336.521 51.3678L347.31 40.8379L355.77 49.0943" fill="white"/>
<path d="M325.057 54L324.199 53.1624L331.739 45.8034L336.521 50.4701L347.31 40L356.199 48.6752L355.341 49.5128L347.31 41.6752L336.521 52.2051L331.739 47.5385L325.057 54Z" fill="#CCCCCC"/>
<path d="M334.699 40.377C336.287 40.377 337.574 39.0894 337.574 37.501C337.574 35.9126 336.287 34.625 334.699 34.625C333.111 34.625 331.824 35.9126 331.824 37.501C331.824 39.0894 333.111 40.377 334.699 40.377Z" fill="white"/>
<path d="M334.699 41.0025C332.762 41.0025 331.199 39.4394 331.199 37.5012C331.199 35.5631 332.762 34 334.699 34C336.637 34 338.199 35.5631 338.199 37.5012C338.199 39.4394 336.637 41.0025 334.699 41.0025ZM334.699 35.313C333.449 35.313 332.449 36.3133 332.449 37.5638C332.449 38.8142 333.449 39.8146 334.699 39.8146C335.949 39.8146 336.949 38.8142 336.949 37.5638C336.949 36.3133 335.949 35.313 334.699 35.313Z" fill="#CCCCCC"/>
<path d="M365.199 227H357.354L357.199 226H364.199V170H323.199V178L322.199 177.772V169H365.199V227Z" fill="#CCCCCC"/>
<path d="M357.272 235.597H314.962V177.85H345.227L357.272 189.835V235.597Z" fill="white"/>
<path d="M357.699 235.5H314.699V177.5H345.388L357.699 189.796V235.5Z" stroke="#CCCCCC"/>
<path d="M345.553 177.646C345.41 177.503 345.195 177.461 345.008 177.538C344.821 177.615 344.699 177.798 344.699 178V190C344.699 190.276 344.923 190.5 345.199 190.5H357.199C357.401 190.5 357.584 190.378 357.661 190.191C357.739 190.005 357.696 189.789 357.553 189.646L345.553 177.646Z" fill="white" stroke="#CCCCCC" stroke-linejoin="round"/>
<path d="M337.124 192H322.199V193H337.124V192Z" fill="#CCCCCC"/>
<path d="M349.199 199H322.199V200H349.199V199Z" fill="#CCCCCC"/>
<path d="M349.199 206H322.199V207H349.199V206Z" fill="#CCCCCC"/>
<path d="M349.199 213H322.199V214H349.199V213Z" fill="#CCCCCC"/>
<path d="M349.199 220H322.199V221H349.199V220Z" fill="#CCCCCC"/>
<path d="M442.376 100.785C442.376 100.065 441.896 99.4245 441.255 99.1044L413.08 85.0203C412.52 84.7003 411.88 84.7003 411.32 85.0203L383.065 99.1044C382.424 99.4245 382.024 100.065 381.944 100.785C381.944 101.185 381.464 110.948 384.826 122.311C386.827 129.033 389.708 134.875 393.47 139.756C398.193 145.838 404.276 150.399 411.48 153.12C411.72 153.2 411.96 153.28 412.2 153.28C412.44 153.28 412.68 153.2 412.92 153.12C420.124 150.399 426.207 145.838 430.93 139.756C434.692 134.875 437.573 129.033 439.574 122.311C442.856 110.948 442.376 101.185 442.376 100.785ZM433.171 121.031C429.489 133.434 422.445 141.757 412.12 145.918C401.795 141.757 394.751 133.434 391.069 121.031C388.828 113.428 388.588 106.466 388.588 103.906L412.04 92.1424L435.492 103.906C435.652 106.466 435.492 113.428 433.171 121.031Z" fill="white"/>
<path d="M412.199 154C411.879 154 411.559 153.92 411.239 153.84C403.875 151.039 397.712 146.478 392.829 140.236C388.987 135.275 386.106 129.353 384.104 122.551C380.743 111.108 381.223 101.185 381.223 100.785C381.303 99.7445 381.863 98.8642 382.744 98.3841L410.919 84.3001C411.719 83.9 412.679 83.9 413.4 84.3001L441.655 98.3841C442.535 98.8642 443.175 99.7445 443.175 100.785C443.175 101.185 443.656 111.108 440.294 122.551C438.293 129.353 435.331 135.275 431.569 140.236C426.767 146.478 420.604 151.039 413.16 153.84C412.84 153.92 412.519 154 412.199 154ZM412.199 85.5805C412.039 85.5805 411.799 85.6605 411.639 85.7405L383.464 99.8245C383.064 99.9846 382.824 100.385 382.824 100.865C382.824 101.265 382.344 110.948 385.625 122.151C387.546 128.793 390.428 134.554 394.11 139.276C398.752 145.278 404.675 149.679 411.799 152.4C412.039 152.48 412.359 152.48 412.679 152.4C419.803 149.679 425.726 145.278 430.369 139.276C434.051 134.474 436.932 128.713 438.853 122.151C442.135 110.948 441.655 101.345 441.655 100.865C441.655 100.465 441.415 100.065 441.014 99.8245L412.76 85.7405C412.519 85.6605 412.359 85.5805 412.199 85.5805ZM412.199 146.798L411.879 146.638C401.394 142.397 394.11 133.914 390.428 121.271C388.187 113.588 387.946 106.546 387.946 103.906V103.426L412.199 91.2621L436.452 103.426V103.906C436.452 106.546 436.212 113.588 433.971 121.271C430.209 133.914 423.005 142.397 412.519 146.638L412.199 146.798ZM389.547 104.386C389.547 107.267 389.867 113.748 391.949 120.791C395.47 132.794 402.274 140.956 412.199 145.037C422.044 140.956 428.848 132.794 432.45 120.791C434.531 113.668 434.851 107.267 434.851 104.386L412.199 93.0226L389.547 104.386Z" fill="#CCCCCC"/>
<path d="M410.118 125.272C409.878 125.272 409.718 125.192 409.558 125.032L402.354 117.83C402.034 117.51 402.034 117.029 402.354 116.709C402.674 116.389 403.154 116.389 403.474 116.709L410.118 123.351L424.446 109.027C424.766 108.707 425.246 108.707 425.566 109.027C425.886 109.347 425.886 109.827 425.566 110.147L410.678 125.032C410.518 125.192 410.278 125.272 410.118 125.272Z" fill="#CCCCCC"/>
<rect x="0.699219" y="0.5" width="287" height="253" rx="3.5" fill="white"/>
<rect x="0.699219" y="0.5" width="287" height="253" rx="3.5" stroke="#333333"/>
<path d="M4.19922 254C1.99008 254 0.199219 252.209 0.199219 250L0.199219 4C0.199219 1.79086 1.99008 0 4.19922 0H57.1992L57.1992 254H4.19922Z" fill="#1E1E1E"/>
<g clip-path="url(#clip1_7868_204479)">
<path d="M14.3315 30.9996C14.3315 36.093 17.2915 40.4947 21.5836 42.5806L15.4456 25.7627C14.7316 27.363 14.3315 29.1341 14.3315 30.9996Z" fill="white"/>
<path d="M35.8854 30.3504C35.8854 28.7601 35.3142 27.6588 34.8243 26.8016C34.172 25.7416 33.5606 24.844 33.5606 23.784C33.5606 22.6011 34.4577 21.5 35.7214 21.5C35.7784 21.5 35.8325 21.5071 35.8881 21.5103C33.5988 19.4129 30.5488 18.1323 27.1989 18.1323C22.7035 18.1323 18.7486 20.4388 16.4478 23.9324C16.7496 23.9414 17.0342 23.9478 17.2758 23.9478C18.6217 23.9478 20.7051 23.7845 20.7051 23.7845C21.3987 23.7436 21.4805 24.7624 20.7876 24.8445C20.7876 24.8445 20.0905 24.9265 19.3149 24.9671L24.0007 38.9053L26.8167 30.4596L24.8119 24.9666C24.119 24.926 23.4625 24.844 23.4625 24.844C22.7691 24.8033 22.8504 23.7431 23.5438 23.784C23.5438 23.784 25.6688 23.9473 26.9332 23.9473C28.2789 23.9473 30.3625 23.784 30.3625 23.784C31.0566 23.7431 31.1381 24.7619 30.445 24.844C30.445 24.844 29.7465 24.926 28.9723 24.9666L33.6223 38.7993L34.9058 34.5102C35.4621 32.7304 35.8854 31.452 35.8854 30.3504Z" fill="white"/>
<path d="M27.4247 32.125L23.564 43.3439C24.7167 43.6827 25.9358 43.8681 27.1989 43.8681C28.6974 43.8681 30.1344 43.609 31.4719 43.1387C31.4374 43.0836 31.4061 43.0251 31.3804 42.9614L27.4247 32.125Z" fill="white"/>
<path d="M38.4897 24.8262C38.545 25.2361 38.5764 25.6761 38.5764 26.1494C38.5764 27.4551 38.3325 28.923 37.598 30.7584L33.6675 42.1228C37.4929 39.8919 40.066 35.7473 40.066 31.0001C40.0662 28.7629 39.4948 26.6591 38.4897 24.8262Z" fill="white"/>
<path d="M27.1989 16C18.9283 16 12.1992 22.7288 12.1992 30.9996C12.1992 39.2715 18.9283 46 27.1989 46C35.4692 46 42.1992 39.2715 42.1992 30.9996C42.199 22.7288 35.4692 16 27.1989 16ZM27.1989 45.3125C19.3075 45.3125 12.887 38.8917 12.887 30.9996C12.887 23.1081 19.3073 16.6878 27.1989 16.6878C35.0899 16.6878 41.51 23.1081 41.51 30.9996C41.51 38.8917 35.0899 45.3125 27.1989 45.3125Z" fill="white"/>
</g>
<rect width="57" height="48.2857" transform="translate(0.199219 60)" fill="#3858E9"/>
<path opacity="0.5" fill-rule="evenodd" clip-rule="evenodd" d="M26.8658 97.9393L14.4899 92.116C13.4357 91.6076 13.4357 90.8219 14.4899 90.3597L18.7985 88.3262L26.8199 92.116C27.8742 92.6244 29.5701 92.6244 30.5785 92.116L38.5999 88.3262L42.9085 90.3597C43.9628 90.8681 43.9628 91.6538 42.9085 92.116L30.5327 97.9393C29.5701 98.4015 27.8742 98.4015 26.8658 97.9393Z" fill="white"/>
<path opacity="0.75" fill-rule="evenodd" clip-rule="evenodd" d="M26.8256 90.7328L14.4875 84.9027C13.4365 84.3937 13.4365 83.6071 14.4875 83.1444L18.6916 81.1548L26.8256 84.9952C27.8767 85.5042 29.5675 85.5042 30.5728 84.9952L38.7068 81.1548L42.9109 83.1444C43.962 83.6534 43.962 84.44 42.9109 84.9027L30.5728 90.7328C29.5218 91.2418 27.831 91.2418 26.8256 90.7328Z" fill="white"/>
<path fill-rule="evenodd" clip-rule="evenodd" d="M26.8256 83.6016L14.4875 77.8554C13.4365 77.3538 13.4365 76.5785 14.4875 76.1224L26.8256 70.3762C27.8767 69.8746 29.5675 69.8746 30.5728 70.3762L42.9109 76.1224C43.962 76.6241 43.962 77.3994 42.9109 77.8554L30.5728 83.6016C29.5218 84.0577 27.831 84.0577 26.8256 83.6016Z" fill="white"/>
<g filter="url(#filter0_d_7868_204479)">
<rect x="79.1992" y="147" width="107" height="44" rx="4" fill="white"/>
<rect x="78.6992" y="146.5" width="108" height="45" rx="4.5" stroke="#AAAAAA"/>
<rect width="107" height="28" transform="translate(79.1992 155)" fill="#F3F0EE"/>
<path d="M98.0412 166.51C97.2012 166.519 96.5292 166.561 96.0252 166.636V165.516C96.2772 165.553 96.5666 165.581 96.8932 165.6C97.2292 165.609 97.6119 165.619 98.0412 165.628C98.0412 164.825 98.0272 164.205 97.9992 163.766C97.9712 163.327 97.9339 162.996 97.8872 162.772C98.4006 162.865 98.8532 162.907 99.2452 162.898C99.5159 162.889 99.6652 162.921 99.6932 162.996C99.7212 163.061 99.6466 163.164 99.4692 163.304C99.3666 163.388 99.2919 163.463 99.2452 163.528C99.2079 163.593 99.1892 163.687 99.1892 163.808V165.628C99.6372 165.619 100.029 165.609 100.365 165.6C100.701 165.581 101 165.553 101.261 165.516V166.636C100.739 166.561 100.048 166.519 99.1892 166.51V169.212C99.5066 169.109 99.8239 168.997 100.141 168.876C100.468 168.755 100.804 168.619 101.149 168.47C101.14 168.685 101.135 168.881 101.135 169.058C101.145 169.235 101.159 169.408 101.177 169.576C100.935 169.641 100.641 169.73 100.295 169.842C99.9499 169.954 99.5812 170.075 99.1892 170.206V173.888C99.1892 174.168 99.1612 174.397 99.1052 174.574C99.0586 174.761 98.9512 174.91 98.7832 175.022C98.6152 175.134 98.3679 175.223 98.0412 175.288C97.7239 175.353 97.2946 175.409 96.7532 175.456C96.7066 175.204 96.6412 174.98 96.5572 174.784C96.4732 174.588 96.3286 174.345 96.1232 174.056C96.5339 174.084 96.8652 174.093 97.1172 174.084C97.3692 174.075 97.5606 174.047 97.6912 174C97.8312 173.944 97.9246 173.869 97.9712 173.776C98.0179 173.683 98.0412 173.566 98.0412 173.426V170.626C97.6492 170.775 97.2852 170.92 96.9492 171.06C96.6226 171.2 96.3519 171.326 96.1372 171.438C96.0999 171.223 96.0486 170.985 95.9832 170.724C95.9272 170.453 95.8712 170.211 95.8152 169.996C96.2166 169.949 96.5992 169.889 96.9632 169.814C97.3272 169.739 97.6866 169.655 98.0412 169.562V166.51ZM106.091 173.79C106.091 174.098 106.045 174.355 105.951 174.56C105.867 174.775 105.718 174.947 105.503 175.078C105.298 175.218 105.018 175.316 104.663 175.372C104.309 175.437 103.87 175.47 103.347 175.47C103.301 175.199 103.231 174.952 103.137 174.728C103.053 174.513 102.913 174.257 102.717 173.958C103.203 174.07 103.585 174.14 103.865 174.168C104.155 174.205 104.374 174.201 104.523 174.154C104.682 174.117 104.785 174.033 104.831 173.902C104.878 173.771 104.901 173.599 104.901 173.384V165.18C104.005 165.18 103.282 165.189 102.731 165.208C102.181 165.227 101.733 165.255 101.387 165.292V164.074C101.761 164.111 102.269 164.139 102.913 164.158C103.557 164.177 104.411 164.186 105.475 164.186C106.147 164.186 106.74 164.181 107.253 164.172C107.776 164.153 108.219 164.121 108.583 164.074V165.292C108.275 165.255 107.911 165.231 107.491 165.222C107.081 165.203 106.614 165.189 106.091 165.18V173.79ZM119.097 168.722C119.387 168.722 119.681 168.717 119.979 168.708C120.287 168.699 120.581 168.689 120.861 168.68C121.151 168.671 121.417 168.661 121.659 168.652C121.911 168.633 122.131 168.615 122.317 168.596V169.898C122.131 169.889 121.911 169.879 121.659 169.87C121.417 169.861 121.155 169.851 120.875 169.842C120.595 169.833 120.301 169.823 119.993 169.814C119.685 169.805 119.387 169.8 119.097 169.8V173.076C119.097 173.421 119.107 173.809 119.125 174.238C119.153 174.677 119.191 175.106 119.237 175.526H117.697C117.744 175.106 117.777 174.677 117.795 174.238C117.823 173.809 117.837 173.421 117.837 173.076V169.786H114.939C114.902 170.365 114.785 170.939 114.589 171.508C114.403 172.068 114.155 172.6 113.847 173.104C113.549 173.608 113.194 174.07 112.783 174.49C112.382 174.919 111.948 175.283 111.481 175.582C111.332 175.386 111.117 175.195 110.837 175.008C110.567 174.831 110.31 174.705 110.067 174.63C110.562 174.425 111.024 174.159 111.453 173.832C111.883 173.505 112.256 173.137 112.573 172.726C112.9 172.306 113.161 171.849 113.357 171.354C113.553 170.859 113.675 170.337 113.721 169.786C112.993 169.795 112.307 169.814 111.663 169.842C111.019 169.87 110.487 169.903 110.067 169.94V168.638C110.534 168.675 111.061 168.703 111.649 168.722C112.247 168.731 112.942 168.736 113.735 168.736V164.83C113.035 164.839 112.461 164.853 112.013 164.872C111.575 164.891 111.211 164.923 110.921 164.97V163.654C111.276 163.701 111.901 163.738 112.797 163.766C113.693 163.785 114.837 163.794 116.227 163.794C117.077 163.794 117.805 163.794 118.411 163.794C119.018 163.785 119.531 163.775 119.951 163.766C120.371 163.757 120.707 163.743 120.959 163.724C121.211 163.705 121.407 163.682 121.547 163.654V164.97C121.445 164.951 121.305 164.937 121.127 164.928C120.95 164.909 120.749 164.895 120.525 164.886C120.311 164.877 120.077 164.867 119.825 164.858C119.583 164.849 119.34 164.844 119.097 164.844V168.722ZM117.837 168.736V164.83H114.953V168.736H117.837ZM129.695 165.096C129.658 164.947 129.607 164.783 129.541 164.606C129.485 164.429 129.42 164.256 129.345 164.088C129.28 163.911 129.21 163.747 129.135 163.598C129.061 163.439 128.991 163.304 128.925 163.192L130.437 162.716C130.465 162.847 130.503 162.991 130.549 163.15C130.605 163.309 130.666 163.472 130.731 163.64C130.797 163.808 130.867 163.971 130.941 164.13C131.016 164.289 131.091 164.433 131.165 164.564L129.695 165.096ZM133.013 168.106C133.293 168.106 133.559 168.101 133.811 168.092C134.063 168.073 134.273 168.055 134.441 168.036L133.993 173.146C133.965 173.519 133.914 173.827 133.839 174.07C133.774 174.313 133.648 174.513 133.461 174.672C133.275 174.831 133.009 174.957 132.663 175.05C132.318 175.153 131.851 175.251 131.263 175.344C131.226 175.073 131.128 174.784 130.969 174.476C130.811 174.177 130.605 173.902 130.353 173.65C130.764 173.743 131.109 173.795 131.389 173.804C131.679 173.813 131.917 173.785 132.103 173.72C132.29 173.655 132.43 173.552 132.523 173.412C132.617 173.272 132.677 173.104 132.705 172.908L133.139 169.198H129.289C129.205 169.889 129.089 170.495 128.939 171.018C128.79 171.531 128.58 172.017 128.309 172.474C128.048 172.931 127.717 173.384 127.315 173.832C126.914 174.271 126.415 174.756 125.817 175.288C125.668 175.036 125.472 174.826 125.229 174.658C124.996 174.499 124.739 174.383 124.459 174.308C124.973 174.056 125.435 173.753 125.845 173.398C126.265 173.034 126.629 172.633 126.937 172.194C127.245 171.755 127.497 171.284 127.693 170.78C127.889 170.267 128.025 169.73 128.099 169.17C128.155 168.759 128.197 168.325 128.225 167.868C128.253 167.401 128.277 166.888 128.295 166.328C127.847 166.328 127.437 166.333 127.063 166.342C126.69 166.351 126.335 166.361 125.999 166.37C125.673 166.37 125.36 166.379 125.061 166.398C124.763 166.407 124.469 166.417 124.179 166.426V165.166C124.907 165.203 125.761 165.231 126.741 165.25C127.731 165.259 128.879 165.264 130.185 165.264C131.511 165.264 132.668 165.259 133.657 165.25C134.656 165.231 135.505 165.203 136.205 165.166V166.426C135.86 166.407 135.445 166.393 134.959 166.384C134.474 166.365 133.942 166.356 133.363 166.356C132.794 166.347 132.187 166.342 131.543 166.342C130.899 166.333 130.251 166.328 129.597 166.328C129.569 166.645 129.541 166.949 129.513 167.238C129.485 167.518 129.453 167.807 129.415 168.106H133.013ZM147.643 164.984C147.503 164.797 147.331 164.606 147.125 164.41C146.929 164.214 146.71 164.023 146.467 163.836L147.377 163.08C147.592 163.248 147.802 163.425 148.007 163.612C148.213 163.789 148.413 163.971 148.609 164.158L147.643 164.984ZM141.917 172.698C142.459 172.577 142.958 172.451 143.415 172.32C143.873 172.189 144.232 172.068 144.493 171.956C144.465 172.18 144.447 172.381 144.437 172.558C144.437 172.726 144.447 172.917 144.465 173.132C144.064 173.216 143.588 173.333 143.037 173.482C142.487 173.631 141.931 173.79 141.371 173.958C140.821 174.117 140.293 174.275 139.789 174.434C139.295 174.602 138.893 174.747 138.585 174.868C138.539 174.579 138.483 174.308 138.417 174.056C138.352 173.804 138.268 173.566 138.165 173.342C138.511 173.314 138.912 173.267 139.369 173.202C139.827 173.127 140.307 173.039 140.811 172.936V169.576C140.335 169.585 139.925 169.599 139.579 169.618C139.243 169.637 138.935 169.669 138.655 169.716V168.4C138.982 168.447 139.341 168.484 139.733 168.512C140.125 168.531 140.62 168.54 141.217 168.54C141.815 168.54 142.314 168.531 142.715 168.512C143.117 168.484 143.476 168.447 143.793 168.4V169.716C143.327 169.632 142.701 169.585 141.917 169.576V172.698ZM144.409 165.32C144.353 164.695 144.307 164.158 144.269 163.71C144.232 163.262 144.195 162.889 144.157 162.59C144.26 162.618 144.377 162.641 144.507 162.66C144.638 162.679 144.773 162.697 144.913 162.716C145.053 162.725 145.184 162.735 145.305 162.744C145.436 162.744 145.548 162.744 145.641 162.744C145.94 162.744 145.977 162.851 145.753 163.066C145.66 163.15 145.59 163.383 145.543 163.766C145.497 164.139 145.487 164.648 145.515 165.292C146.523 165.264 147.368 165.227 148.049 165.18C148.731 165.133 149.291 165.082 149.729 165.026L149.757 166.412C149.281 166.375 148.712 166.356 148.049 166.356C147.396 166.356 146.584 166.365 145.613 166.384C145.716 167.551 145.856 168.507 146.033 169.254C146.211 170.001 146.402 170.584 146.607 171.004C147.027 171.9 147.429 172.558 147.811 172.978C148.203 173.389 148.493 173.585 148.679 173.566C148.763 173.557 148.833 173.533 148.889 173.496C148.945 173.449 148.997 173.37 149.043 173.258C149.09 173.146 149.132 172.987 149.169 172.782C149.207 172.577 149.239 172.311 149.267 171.984C149.454 172.199 149.669 172.39 149.911 172.558C150.154 172.726 150.355 172.833 150.513 172.88C150.364 173.496 150.215 173.981 150.065 174.336C149.916 174.7 149.757 174.961 149.589 175.12C149.431 175.279 149.267 175.353 149.099 175.344C148.931 175.335 148.754 175.279 148.567 175.176C147.97 174.84 147.396 174.331 146.845 173.65C146.295 172.969 145.842 172.171 145.487 171.256C145.357 170.92 145.24 170.584 145.137 170.248C145.035 169.912 144.941 169.553 144.857 169.17C144.783 168.778 144.713 168.358 144.647 167.91C144.591 167.462 144.54 166.963 144.493 166.412L142.281 166.468C140.247 166.515 138.781 166.599 137.885 166.72L137.871 165.348C138.319 165.367 138.898 165.381 139.607 165.39C140.317 165.399 141.194 165.395 142.239 165.376L144.409 165.32Z" fill="#333333"/>
<path d="M167.199 166L170.199 169L167.199 172" stroke="#333333" stroke-width="2" stroke-linecap="round"/>
</g>
<g filter="url(#filter1_d_7868_204479)">
<rect x="176.199" y="166" width="141" height="34" rx="2" fill="white"/>
<rect x="175.699" y="165.5" width="142" height="35" rx="2.5" stroke="#333333"/>
<g clip-path="url(#clip2_7868_204479)">
<path fill-rule="evenodd" clip-rule="evenodd" d="M195.68 182.648L202.475 179.812C203.04 179.569 203.068 179.145 202.516 178.886L195.834 175.759C195.504 175.603 195.03 175.525 194.58 175.54C194.282 175.552 193.996 175.605 193.77 175.7L193.167 175.953L186.975 178.536C186.41 178.778 186.383 179.203 186.931 179.462L189.929 180.865L190.717 181.234L193.614 182.589C194.083 182.862 195.03 182.901 195.68 182.648Z" fill="#5DC0E8"/>
<path fill-rule="evenodd" clip-rule="evenodd" d="M198.207 182.281L197.026 182.767L195.686 183.316C195.121 183.558 194.174 183.519 193.623 183.256L190.399 181.723L189.613 181.348L189.225 181.163L186.878 182.146C186.313 182.389 186.285 182.813 186.834 183.073L188.074 183.652L188.865 184.021L193.519 186.196C193.725 186.293 193.974 186.364 194.246 186.395C194.641 186.444 195.078 186.419 195.488 186.299C195.549 186.283 195.606 186.264 195.664 186.242L195.832 186.171L196.67 185.822L202.459 183.406C203.024 183.163 203.052 182.739 202.503 182.479L200.218 181.444L198.207 182.281Z" fill="#95C038"/>
<path fill-rule="evenodd" clip-rule="evenodd" d="M199.957 185.088L196.733 186.429L195.9 186.775L195.505 186.938C195.299 187.027 195.042 187.079 194.77 187.093C194.402 187.114 194.01 187.07 193.688 186.972C193.601 186.944 193.519 186.913 193.442 186.878L189.138 184.859L187.874 185.39L186.791 185.846C186.751 185.862 186.713 185.882 186.675 185.901C186.657 185.912 186.638 185.923 186.619 185.934C186.225 186.181 186.261 186.541 186.747 186.772L186.8 186.796L191.405 188.95L192.282 189.36L193.433 189.898C193.985 190.16 194.846 190.211 195.411 189.969L196.263 189.615L197.09 189.27L200.118 188.006L202.21 187.133C202.462 187.025 202.606 186.879 202.64 186.73C202.683 186.544 202.556 186.349 202.251 186.207L199.957 185.088Z" fill="#FF6F3D"/>
</g>
<path d="M216.053 183.705C216.053 185.123 215.701 186.213 214.998 186.975C214.295 187.736 213.287 188.117 211.975 188.117C210.662 188.117 209.654 187.736 208.951 186.975C208.248 186.213 207.896 185.119 207.896 183.693C207.896 182.268 208.248 181.18 208.951 180.43C209.658 179.676 210.67 179.299 211.986 179.299C213.303 179.299 214.309 179.678 215.004 180.436C215.703 181.193 216.053 182.283 216.053 183.705ZM209.801 183.705C209.801 184.662 209.982 185.383 210.346 185.867C210.709 186.352 211.252 186.594 211.975 186.594C213.424 186.594 214.148 185.631 214.148 183.705C214.148 181.775 213.428 180.811 211.986 180.811C211.264 180.811 210.719 181.055 210.352 181.543C209.984 182.027 209.801 182.748 209.801 183.705ZM224.828 188H222.519L218.793 181.52H218.74C218.814 182.664 218.851 183.48 218.851 183.969V188H217.228V179.434H219.519L223.24 185.85H223.281C223.222 184.736 223.193 183.949 223.193 183.488V179.434H224.828V188ZM226.39 188V179.434H228.206V186.5H231.681V188H226.39ZM235.241 182.961L237.028 179.434H238.985L236.143 184.666V188H234.339V184.725L231.497 179.434H233.466L235.241 182.961ZM247.239 183.705C247.239 185.123 246.887 186.213 246.184 186.975C245.481 187.736 244.473 188.117 243.161 188.117C241.848 188.117 240.84 187.736 240.137 186.975C239.434 186.213 239.082 185.119 239.082 183.693C239.082 182.268 239.434 181.18 240.137 180.43C240.844 179.676 241.856 179.299 243.172 179.299C244.489 179.299 245.495 179.678 246.19 180.436C246.889 181.193 247.239 182.283 247.239 183.705ZM240.987 183.705C240.987 184.662 241.168 185.383 241.532 185.867C241.895 186.352 242.438 186.594 243.161 186.594C244.61 186.594 245.334 185.631 245.334 183.705C245.334 181.775 244.614 180.811 243.172 180.811C242.45 180.811 241.905 181.055 241.538 181.543C241.17 182.027 240.987 182.748 240.987 183.705ZM250.201 188H248.414V179.434H253.324V180.922H250.201V183.131H253.107V184.613H250.201V188ZM256.187 188H254.4V179.434H259.31V180.922H256.187V183.131H259.093V184.613H256.187V188ZM260.386 188V179.434H262.202V188H260.386ZM267.397 180.822C266.714 180.822 266.184 181.08 265.809 181.596C265.434 182.107 265.247 182.822 265.247 183.74C265.247 185.65 265.964 186.605 267.397 186.605C267.999 186.605 268.727 186.455 269.583 186.154V187.678C268.88 187.971 268.095 188.117 267.227 188.117C265.981 188.117 265.028 187.74 264.368 186.986C263.708 186.229 263.378 185.143 263.378 183.729C263.378 182.838 263.54 182.059 263.864 181.391C264.188 180.719 264.653 180.205 265.259 179.85C265.868 179.49 266.581 179.311 267.397 179.311C268.229 179.311 269.065 179.512 269.905 179.914L269.319 181.391C268.999 181.238 268.677 181.105 268.352 180.992C268.028 180.879 267.71 180.822 267.397 180.822ZM275.745 188H270.811V179.434H275.745V180.922H272.627V182.803H275.528V184.291H272.627V186.5H275.745V188ZM287.057 183.635C287.057 184.6 286.877 185.406 286.518 186.055C286.158 186.699 285.637 187.186 284.953 187.514C284.27 187.838 283.445 188 282.48 188H280.102V179.434H282.738C283.625 179.434 284.391 179.594 285.035 179.914C285.68 180.23 286.178 180.701 286.529 181.326C286.881 181.947 287.057 182.717 287.057 183.635ZM285.592 183.676C285.592 182.973 285.48 182.395 285.258 181.941C285.039 181.488 284.715 181.152 284.285 180.934C283.859 180.711 283.334 180.6 282.709 180.6H281.508V186.822H282.504C283.539 186.822 284.312 186.559 284.824 186.031C285.336 185.504 285.592 184.719 285.592 183.676ZM294.504 184.742C294.504 185.281 294.434 185.76 294.293 186.178C294.152 186.596 293.947 186.949 293.678 187.238C293.408 187.523 293.084 187.742 292.705 187.895C292.326 188.043 291.898 188.117 291.422 188.117C290.977 188.117 290.568 188.043 290.197 187.895C289.826 187.742 289.504 187.523 289.23 187.238C288.961 186.949 288.752 186.596 288.604 186.178C288.455 185.76 288.381 185.281 288.381 184.742C288.381 184.027 288.504 183.422 288.75 182.926C289 182.426 289.355 182.045 289.816 181.783C290.277 181.521 290.826 181.391 291.463 181.391C292.061 181.391 292.588 181.521 293.045 181.783C293.502 182.045 293.859 182.426 294.117 182.926C294.375 183.426 294.504 184.031 294.504 184.742ZM289.799 184.742C289.799 185.215 289.855 185.619 289.969 185.955C290.086 186.291 290.266 186.549 290.508 186.729C290.75 186.904 291.062 186.992 291.445 186.992C291.828 186.992 292.141 186.904 292.383 186.729C292.625 186.549 292.803 186.291 292.916 185.955C293.029 185.619 293.086 185.215 293.086 184.742C293.086 184.27 293.029 183.869 292.916 183.541C292.803 183.209 292.625 182.957 292.383 182.785C292.141 182.609 291.826 182.521 291.439 182.521C290.869 182.521 290.453 182.713 290.191 183.096C289.93 183.479 289.799 184.027 289.799 184.742ZM298.699 188.117C298.086 188.117 297.555 187.998 297.105 187.76C296.656 187.521 296.311 187.156 296.068 186.664C295.826 186.172 295.705 185.547 295.705 184.789C295.705 184 295.838 183.355 296.104 182.855C296.369 182.355 296.736 181.986 297.205 181.748C297.678 181.51 298.219 181.391 298.828 181.391C299.215 181.391 299.564 181.43 299.877 181.508C300.193 181.582 300.461 181.674 300.68 181.783L300.27 182.885C300.031 182.787 299.787 182.705 299.537 182.639C299.287 182.572 299.047 182.539 298.816 182.539C298.438 182.539 298.121 182.623 297.867 182.791C297.617 182.959 297.43 183.209 297.305 183.541C297.184 183.873 297.123 184.285 297.123 184.777C297.123 185.254 297.186 185.656 297.311 185.984C297.436 186.309 297.621 186.555 297.867 186.723C298.113 186.887 298.416 186.969 298.775 186.969C299.131 186.969 299.449 186.926 299.73 186.84C300.012 186.754 300.277 186.643 300.527 186.506V187.701C300.281 187.842 300.018 187.945 299.736 188.012C299.455 188.082 299.109 188.117 298.699 188.117ZM306.41 186.148C306.41 186.574 306.307 186.934 306.1 187.227C305.893 187.52 305.59 187.742 305.191 187.895C304.797 188.043 304.312 188.117 303.738 188.117C303.285 188.117 302.895 188.084 302.566 188.018C302.242 187.955 301.936 187.857 301.646 187.725V186.535C301.955 186.68 302.301 186.805 302.684 186.91C303.07 187.016 303.436 187.068 303.779 187.068C304.232 187.068 304.559 186.998 304.758 186.857C304.957 186.713 305.057 186.521 305.057 186.283C305.057 186.143 305.016 186.018 304.934 185.908C304.855 185.795 304.707 185.68 304.488 185.562C304.273 185.441 303.957 185.297 303.539 185.129C303.129 184.965 302.783 184.801 302.502 184.637C302.221 184.473 302.008 184.275 301.863 184.045C301.719 183.811 301.646 183.512 301.646 183.148C301.646 182.574 301.873 182.139 302.326 181.842C302.783 181.541 303.387 181.391 304.137 181.391C304.535 181.391 304.91 181.432 305.262 181.514C305.617 181.592 305.965 181.707 306.305 181.859L305.871 182.896C305.578 182.768 305.283 182.662 304.986 182.58C304.693 182.494 304.395 182.451 304.09 182.451C303.734 182.451 303.463 182.506 303.275 182.615C303.092 182.725 303 182.881 303 183.084C303 183.236 303.045 183.365 303.135 183.471C303.225 183.576 303.379 183.682 303.598 183.787C303.82 183.893 304.129 184.023 304.523 184.18C304.91 184.328 305.244 184.484 305.525 184.648C305.811 184.809 306.029 185.006 306.182 185.24C306.334 185.475 306.41 185.777 306.41 186.148Z" fill="#333333"/>
</g>
<path d="M113.533 25H97.3971C96.2773 25 95.7201 25 95.293 25.214C94.9128 25.4037 94.6107 25.705 94.418 26.0754C94.1992 26.4958 94.1992 27.0469 94.1992 28.1505V63.8495C94.1992 64.9531 94.1992 65.5042 94.418 65.9247C94.6107 66.295 94.9128 66.5962 95.293 66.786C95.7201 67 96.2773 67 97.3971 67H123.001C124.121 67 124.678 67 125.105 66.786C125.486 66.5962 125.788 66.295 125.98 65.9247C126.199 65.5042 126.199 64.9531 126.199 63.8495V37.4688C126.199 36.9419 126.074 36.4447 125.85 36.0038C125.689 35.6871 125.475 35.4 125.225 35.1514L123.454 33.4057C120.928 30.9114 118.725 28.735 115.881 25.9549C115.277 25.3653 114.449 25 113.533 25Z" fill="#1E7AAA"/>
<path fill-rule="evenodd" clip-rule="evenodd" d="M97.3992 25H113.533C114.449 25 115.28 25.3648 115.883 25.955C118.723 28.7356 120.928 30.9115 123.455 33.4052L125.225 35.1515C125.827 35.745 126.199 36.5641 126.199 37.4688V63.85C126.199 64.9526 126.199 65.5039 125.981 65.9251C125.789 66.2955 125.484 66.5967 125.107 66.7854C124.679 67 124.119 67 122.999 67H97.3992C96.2791 67 95.7191 67 95.2912 66.7854C94.9149 66.5967 94.609 66.2955 94.4172 65.9251C94.1992 65.5039 94.1992 64.9526 94.1992 63.85V28.15C94.1992 27.0474 94.1992 26.4961 94.4172 26.075C94.609 25.7045 94.9149 25.4033 95.2912 25.2146C95.7191 25 96.2791 25 97.3992 25ZM124.866 37.4688C124.866 36.3818 123.97 35.5 122.866 35.5L118.733 35.5002C117.612 35.5002 117.052 35.5002 116.625 35.2857C116.248 35.0969 115.942 34.7957 115.751 34.4252C115.533 34.0041 115.533 33.4528 115.533 32.3502V28.2812C115.533 27.1943 114.637 26.3125 113.533 26.3125H97.3992C96.8172 26.3125 96.4608 26.3135 96.1942 26.335C96.07 26.345 95.9949 26.3575 95.9492 26.3681C95.9275 26.3731 95.9142 26.3773 95.9069 26.3799C95.9 26.3823 95.8966 26.384 95.8966 26.384C95.7711 26.4469 95.6691 26.5473 95.6052 26.6708C95.6052 26.6708 95.6035 26.6742 95.601 26.681C95.5984 26.6881 95.5941 26.7013 95.589 26.7227C95.5783 26.7676 95.5655 26.8415 95.5554 26.9638C95.5336 27.2263 95.5326 27.577 95.5326 28.15V63.85C95.5326 64.423 95.5336 64.7738 95.5554 65.0362C95.5655 65.1585 95.5783 65.2324 95.589 65.2773C95.5941 65.2987 95.5984 65.3119 95.601 65.3189C95.6035 65.3258 95.6052 65.3292 95.6052 65.3292C95.6691 65.4526 95.7711 65.553 95.8966 65.616C95.8966 65.616 95.9 65.6177 95.9069 65.6202C95.9142 65.6227 95.9275 65.6269 95.9492 65.6319C95.9949 65.6425 96.07 65.655 96.1942 65.665C96.4608 65.6865 96.8172 65.6875 97.3992 65.6875H122.999C123.581 65.6875 123.938 65.6865 124.204 65.665C124.328 65.655 124.404 65.6425 124.449 65.6319C124.471 65.6269 124.484 65.6227 124.491 65.6202L124.498 65.6176L124.502 65.616C124.627 65.553 124.729 65.4526 124.793 65.3292C124.793 65.3292 124.795 65.3258 124.797 65.3189C124.8 65.3119 124.804 65.2987 124.809 65.2773C124.82 65.2324 124.833 65.1585 124.843 65.0362C124.865 64.7738 124.866 64.423 124.866 63.85V37.4688Z" fill="black" fill-opacity="0.3"/>
<path d="M120.199 43H100.199V44H120.199V43Z" fill="white" fill-opacity="0.95"/>
<path d="M120.199 47H100.199V48H120.199V47Z" fill="white" fill-opacity="0.95"/>
<path d="M100.199 51H120.199V52H100.199V51Z" fill="white" fill-opacity="0.95"/>
<path d="M115.199 55H100.199V56H115.199V55Z" fill="white" fill-opacity="0.95"/>
<path d="M173.533 25H157.397C156.277 25 155.72 25 155.293 25.214C154.913 25.4037 154.611 25.705 154.418 26.0754C154.199 26.4958 154.199 27.0469 154.199 28.1505V63.8495C154.199 64.9531 154.199 65.5042 154.418 65.9247C154.611 66.295 154.913 66.5962 155.293 66.786C155.72 67 156.277 67 157.397 67H183.001C184.121 67 184.678 67 185.105 66.786C185.486 66.5962 185.788 66.295 185.98 65.9247C186.199 65.5042 186.199 64.9531 186.199 63.8495V37.4688C186.199 36.9419 186.074 36.4447 185.85 36.0038C185.689 35.6871 185.475 35.4 185.225 35.1514L183.454 33.4057C180.928 30.9114 178.725 28.735 175.881 25.9549C175.277 25.3653 174.449 25 173.533 25Z" fill="#B80B00"/>
<path fill-rule="evenodd" clip-rule="evenodd" d="M157.399 25H173.533C174.449 25 175.28 25.3648 175.883 25.955C178.723 28.7356 180.928 30.9115 183.455 33.4052L185.225 35.1515C185.827 35.745 186.199 36.5641 186.199 37.4688V63.85C186.199 64.9526 186.199 65.5039 185.981 65.9251C185.789 66.2955 185.484 66.5967 185.107 66.7854C184.679 67 184.119 67 182.999 67H157.399C156.279 67 155.719 67 155.291 66.7854C154.915 66.5967 154.609 66.2955 154.417 65.9251C154.199 65.5039 154.199 64.9526 154.199 63.85V28.15C154.199 27.0474 154.199 26.4961 154.417 26.075C154.609 25.7045 154.915 25.4033 155.291 25.2146C155.719 25 156.279 25 157.399 25ZM184.866 37.4688C184.866 36.3818 183.97 35.5 182.866 35.5L178.733 35.5002C177.612 35.5002 177.052 35.5002 176.625 35.2857C176.248 35.0969 175.942 34.7957 175.751 34.4252C175.533 34.0041 175.533 33.4528 175.533 32.3502V28.2812C175.533 27.1943 174.637 26.3125 173.533 26.3125H157.399C156.817 26.3125 156.461 26.3135 156.194 26.335C156.07 26.345 155.995 26.3575 155.949 26.3681C155.928 26.3731 155.914 26.3773 155.907 26.3799C155.9 26.3823 155.897 26.384 155.897 26.384C155.771 26.4469 155.669 26.5473 155.605 26.6708C155.605 26.6708 155.603 26.6742 155.601 26.681C155.598 26.6881 155.594 26.7013 155.589 26.7227C155.578 26.7676 155.566 26.8415 155.555 26.9638C155.534 27.2263 155.533 27.577 155.533 28.15V63.85C155.533 64.423 155.534 64.7738 155.555 65.0362C155.566 65.1585 155.578 65.2324 155.589 65.2773C155.594 65.2987 155.598 65.3119 155.601 65.3189C155.603 65.3258 155.605 65.3292 155.605 65.3292C155.669 65.4526 155.771 65.5531 155.897 65.616C155.897 65.616 155.9 65.6177 155.907 65.6202C155.914 65.6227 155.928 65.6269 155.949 65.6319C155.995 65.6425 156.07 65.655 156.194 65.665C156.461 65.6865 156.817 65.6875 157.399 65.6875H182.999C183.581 65.6875 183.938 65.6865 184.204 65.665C184.328 65.655 184.404 65.6425 184.449 65.6319C184.471 65.6269 184.484 65.6227 184.491 65.6202L184.498 65.6176L184.502 65.616C184.627 65.5531 184.729 65.4526 184.793 65.3292C184.793 65.3292 184.795 65.3258 184.797 65.3189C184.8 65.3119 184.804 65.2987 184.809 65.2773C184.82 65.2324 184.833 65.1585 184.843 65.0362C184.865 64.7738 184.866 64.423 184.866 63.85V37.4688Z" fill="black" fill-opacity="0.3"/>
<rect x="160.699" y="43.5" width="9" height="8" stroke="white"/>
<path d="M173.199 51H180.199V52H173.199V51Z" fill="white" fill-opacity="0.95"/>
<path d="M173.199 47H180.199V48H173.199V47Z" fill="white" fill-opacity="0.95"/>
<path d="M173.199 43H180.199V44H173.199V43Z" fill="white" fill-opacity="0.95"/>
<path d="M180.199 55H160.199V56H180.199V55Z" fill="white" fill-opacity="0.95"/>
<path d="M233.533 25H217.397C216.277 25 215.72 25 215.293 25.2141C214.913 25.4037 214.611 25.705 214.418 26.0754C214.199 26.4958 214.199 27.0469 214.199 28.1505V63.8495C214.199 64.9531 214.199 65.5042 214.418 65.9247C214.611 66.295 214.913 66.5962 215.293 66.786C215.72 67 216.277 67 217.397 67H243.001C244.121 67 244.678 67 245.105 66.786C245.486 66.5962 245.788 66.295 245.98 65.9247C246.199 65.5042 246.199 64.9531 246.199 63.8495V37.4688C246.199 36.9419 246.074 36.4447 245.85 36.0038C245.689 35.6871 245.475 35.4 245.225 35.1514L243.454 33.4057C240.928 30.9114 238.725 28.735 235.882 25.9549C235.277 25.3653 234.449 25 233.533 25Z" fill="#6AAA1E"/>
<path fill-rule="evenodd" clip-rule="evenodd" d="M217.399 25H233.533C234.449 25 235.28 25.3648 235.883 25.955C238.723 28.7356 240.928 30.9115 243.455 33.4052L245.225 35.1515C245.827 35.745 246.199 36.5641 246.199 37.4688V63.85C246.199 64.9526 246.199 65.5039 245.981 65.9251C245.789 66.2955 245.484 66.5967 245.107 66.7854C244.679 67 244.119 67 242.999 67H217.399C216.279 67 215.719 67 215.291 66.7854C214.915 66.5967 214.609 66.2955 214.417 65.9251C214.199 65.5039 214.199 64.9526 214.199 63.85V28.15C214.199 27.0474 214.199 26.4961 214.417 26.075C214.609 25.7045 214.915 25.4033 215.291 25.2146C215.719 25 216.279 25 217.399 25ZM244.866 37.4688C244.866 36.3818 243.97 35.5 242.866 35.5L238.733 35.5002C237.612 35.5002 237.052 35.5002 236.625 35.2857C236.248 35.0969 235.942 34.7957 235.751 34.4252C235.533 34.0041 235.533 33.4528 235.533 32.3502V28.2812C235.533 27.1943 234.637 26.3125 233.533 26.3125H217.399C216.817 26.3125 216.461 26.3135 216.194 26.335C216.07 26.345 215.995 26.3575 215.949 26.3681C215.928 26.3731 215.914 26.3773 215.907 26.3799C215.9 26.3823 215.897 26.384 215.897 26.384C215.771 26.4469 215.669 26.5473 215.605 26.6708C215.605 26.6708 215.603 26.6742 215.601 26.681C215.598 26.6881 215.594 26.7013 215.589 26.7227C215.578 26.7676 215.566 26.8415 215.555 26.9638C215.534 27.2263 215.533 27.577 215.533 28.15V63.85C215.533 64.423 215.534 64.7738 215.555 65.0362C215.566 65.1585 215.578 65.2324 215.589 65.2773C215.594 65.2987 215.598 65.3119 215.601 65.3189C215.603 65.3258 215.605 65.3292 215.605 65.3292C215.669 65.4526 215.771 65.5531 215.897 65.616C215.897 65.616 215.9 65.6177 215.907 65.6202C215.914 65.6227 215.928 65.6269 215.949 65.6319C215.995 65.6425 216.07 65.655 216.194 65.665C216.461 65.6865 216.817 65.6875 217.399 65.6875H242.999C243.581 65.6875 243.938 65.6865 244.204 65.665C244.328 65.655 244.404 65.6425 244.449 65.6319C244.471 65.6269 244.484 65.6227 244.491 65.6202L244.498 65.6176L244.502 65.616C244.627 65.5531 244.729 65.4526 244.793 65.3292C244.793 65.3292 244.795 65.3258 244.797 65.3189C244.8 65.3119 244.804 65.2987 244.809 65.2773C244.82 65.2324 244.833 65.1585 244.843 65.0362C244.865 64.7738 244.866 64.423 244.866 63.85V37.4688Z" fill="black" fill-opacity="0.3"/>
<path fill-rule="evenodd" clip-rule="evenodd" d="M240.199 41H221.199V57H240.199V41ZM227.199 42H222.199V46H227.199V42ZM222.199 47H227.199V51H222.199V47ZM227.199 52H222.199V56H227.199V52ZM228.199 42H233.199V46H228.199V42ZM233.199 47H228.199V51H233.199V47ZM228.199 52H233.199V56H228.199V52ZM239.199 42H234.199V46H239.199V42ZM234.199 47H239.199V51H234.199V47ZM239.199 52H234.199V56H239.199V52Z" fill="white"/>
<path d="M113.533 85H97.3971C96.2773 85 95.7201 85 95.293 85.2141C94.9128 85.4037 94.6107 85.705 94.418 86.0754C94.1992 86.4958 94.1992 87.0469 94.1992 88.1505V123.85C94.1992 124.953 94.1992 125.504 94.418 125.925C94.6107 126.295 94.9128 126.596 95.293 126.786C95.7201 127 96.2773 127 97.3971 127H123.001C124.121 127 124.678 127 125.105 126.786C125.486 126.596 125.788 126.295 125.98 125.925C126.199 125.504 126.199 124.953 126.199 123.85V97.4688C126.199 96.9419 126.074 96.4447 125.85 96.0038C125.689 95.6871 125.475 95.4 125.225 95.1514L123.454 93.4057C120.928 90.9114 118.725 88.735 115.882 85.9549C115.277 85.3653 114.449 85 113.533 85Z" fill="#F36700"/>
<path fill-rule="evenodd" clip-rule="evenodd" d="M97.3992 85H113.533C114.449 85 115.28 85.3648 115.883 85.955C118.723 88.7356 120.928 90.9115 123.455 93.4052L125.225 95.1515C125.827 95.745 126.199 96.5641 126.199 97.4688V123.85C126.199 124.953 126.199 125.504 125.981 125.925C125.789 126.296 125.484 126.597 125.107 126.785C124.679 127 124.119 127 122.999 127H97.3992C96.2791 127 95.7191 127 95.2912 126.785C94.9149 126.597 94.609 126.296 94.4172 125.925C94.1992 125.504 94.1992 124.953 94.1992 123.85V88.15C94.1992 87.0474 94.1992 86.4961 94.4172 86.075C94.609 85.7045 94.9149 85.4033 95.2912 85.2146C95.7191 85 96.2791 85 97.3992 85ZM124.866 97.4688C124.866 96.3818 123.97 95.5 122.866 95.5L118.733 95.5002C117.612 95.5002 117.052 95.5002 116.625 95.2857C116.248 95.0969 115.942 94.7957 115.751 94.4252C115.533 94.0041 115.533 93.4528 115.533 92.3502V88.2812C115.533 87.1943 114.637 86.3125 113.533 86.3125H97.3992C96.8172 86.3125 96.4608 86.3135 96.1942 86.335C96.07 86.345 95.9949 86.3575 95.9492 86.3681C95.9275 86.3731 95.9142 86.3773 95.9069 86.3799C95.9 86.3823 95.8966 86.384 95.8966 86.384C95.7711 86.4469 95.6691 86.5473 95.6052 86.6708C95.6052 86.6708 95.6035 86.6742 95.601 86.681C95.5984 86.6881 95.5941 86.7013 95.589 86.7227C95.5783 86.7676 95.5655 86.8415 95.5554 86.9638C95.5336 87.2263 95.5326 87.577 95.5326 88.15V123.85C95.5326 124.423 95.5336 124.774 95.5554 125.036C95.5655 125.158 95.5783 125.232 95.589 125.277C95.5941 125.299 95.5984 125.312 95.601 125.319C95.6035 125.326 95.6052 125.329 95.6052 125.329C95.6691 125.453 95.7711 125.553 95.8966 125.616C95.8966 125.616 95.9 125.618 95.9069 125.62C95.9142 125.623 95.9275 125.627 95.9492 125.632C95.9949 125.642 96.07 125.655 96.1942 125.665C96.4608 125.687 96.8172 125.688 97.3992 125.688H122.999C123.581 125.688 123.938 125.687 124.204 125.665C124.328 125.655 124.404 125.642 124.449 125.632C124.471 125.627 124.484 125.623 124.491 125.62L124.498 125.618L124.502 125.616C124.627 125.553 124.729 125.453 124.793 125.329C124.793 125.329 124.795 125.326 124.797 125.319C124.8 125.312 124.804 125.299 124.809 125.277C124.82 125.232 124.833 125.158 124.843 125.036C124.865 124.774 124.866 124.423 124.866 123.85V97.4688Z" fill="black" fill-opacity="0.3"/>
<path d="M119.699 100V99.5H119.199H101.199H100.699V100V117V117.5H101.199H119.199H119.699V117V100Z" stroke="white" stroke-opacity="0.95"/>
<path d="M173.533 85H157.397C156.277 85 155.72 85 155.293 85.2141C154.913 85.4037 154.611 85.705 154.418 86.0754C154.199 86.4958 154.199 87.0469 154.199 88.1505V123.85C154.199 124.953 154.199 125.504 154.418 125.925C154.611 126.295 154.913 126.596 155.293 126.786C155.72 127 156.277 127 157.397 127H183.001C184.121 127 184.678 127 185.105 126.786C185.486 126.596 185.788 126.295 185.98 125.925C186.199 125.504 186.199 124.953 186.199 123.85V97.4688C186.199 96.9419 186.074 96.4447 185.85 96.0038C185.689 95.6871 185.475 95.4 185.225 95.1514L183.454 93.4057C180.928 90.9114 178.725 88.735 175.882 85.9549C175.277 85.3653 174.449 85 173.533 85Z" fill="#25A29A"/>
<path fill-rule="evenodd" clip-rule="evenodd" d="M157.399 85H173.533C174.449 85 175.28 85.3648 175.883 85.955C178.723 88.7356 180.928 90.9115 183.455 93.4052L185.225 95.1515C185.827 95.745 186.199 96.5641 186.199 97.4688V123.85C186.199 124.953 186.199 125.504 185.981 125.925C185.789 126.296 185.484 126.597 185.107 126.785C184.679 127 184.119 127 182.999 127H157.399C156.279 127 155.719 127 155.291 126.785C154.915 126.597 154.609 126.296 154.417 125.925C154.199 125.504 154.199 124.953 154.199 123.85V88.15C154.199 87.0474 154.199 86.4961 154.417 86.075C154.609 85.7045 154.915 85.4033 155.291 85.2146C155.719 85 156.279 85 157.399 85ZM184.866 97.4688C184.866 96.3818 183.97 95.5 182.866 95.5L178.733 95.5002C177.612 95.5002 177.052 95.5002 176.625 95.2857C176.248 95.0969 175.942 94.7957 175.751 94.4252C175.533 94.0041 175.533 93.4528 175.533 92.3502V88.2812C175.533 87.1943 174.637 86.3125 173.533 86.3125H157.399C156.817 86.3125 156.461 86.3135 156.194 86.335C156.07 86.345 155.995 86.3575 155.949 86.3681C155.928 86.3731 155.914 86.3773 155.907 86.3799C155.9 86.3823 155.897 86.384 155.897 86.384C155.771 86.4469 155.669 86.5473 155.605 86.6708C155.605 86.6708 155.603 86.6742 155.601 86.681C155.598 86.6881 155.594 86.7013 155.589 86.7227C155.578 86.7676 155.566 86.8415 155.555 86.9638C155.534 87.2263 155.533 87.577 155.533 88.15V123.85C155.533 124.423 155.534 124.774 155.555 125.036C155.566 125.158 155.578 125.232 155.589 125.277C155.594 125.299 155.598 125.312 155.601 125.319C155.603 125.326 155.605 125.329 155.605 125.329C155.669 125.453 155.771 125.553 155.897 125.616C155.897 125.616 155.9 125.618 155.907 125.62C155.914 125.623 155.928 125.627 155.949 125.632C155.995 125.642 156.07 125.655 156.194 125.665C156.461 125.687 156.817 125.688 157.399 125.688H182.999C183.581 125.688 183.938 125.687 184.204 125.665C184.328 125.655 184.404 125.642 184.449 125.632C184.471 125.627 184.484 125.623 184.491 125.62L184.498 125.618L184.502 125.616C184.627 125.553 184.729 125.453 184.793 125.329C184.793 125.329 184.795 125.326 184.797 125.319C184.8 125.312 184.804 125.299 184.809 125.277C184.82 125.232 184.833 125.158 184.843 125.036C184.865 124.774 184.866 124.423 184.866 123.85V97.4688Z" fill="black" fill-opacity="0.3"/>
<path d="M179.699 101V100.5H179.199H161.199H160.699V101V108V108.5H161.199H179.199H179.699V108V101Z" stroke="white" stroke-opacity="0.95"/>
<path d="M179.699 112V111.5H179.199H161.199H160.699V112V118V118.5H161.199H179.199H179.699V118V112Z" stroke="white" stroke-opacity="0.95"/>
<path d="M233.533 85H217.397C216.277 85 215.72 85 215.293 85.214C214.913 85.4037 214.611 85.705 214.418 86.0754C214.199 86.4958 214.199 87.0469 214.199 88.1505V123.85C214.199 124.953 214.199 125.504 214.418 125.925C214.611 126.295 214.913 126.596 215.293 126.786C215.72 127 216.277 127 217.397 127H243.001C244.121 127 244.678 127 245.105 126.786C245.486 126.596 245.788 126.295 245.98 125.925C246.199 125.504 246.199 124.953 246.199 123.85V97.4688C246.199 96.9419 246.074 96.4447 245.85 96.0038C245.689 95.6871 245.475 95.4 245.225 95.1514L243.454 93.4057C240.928 90.9114 238.725 88.735 235.881 85.9549C235.277 85.3653 234.449 85 233.533 85Z" fill="#C8A428"/>
<path fill-rule="evenodd" clip-rule="evenodd" d="M217.399 85H233.533C234.449 85 235.28 85.3648 235.883 85.955C238.723 88.7356 240.928 90.9115 243.455 93.4052L245.225 95.1515C245.827 95.745 246.199 96.5641 246.199 97.4688V123.85C246.199 124.953 246.199 125.504 245.981 125.925C245.789 126.296 245.484 126.597 245.107 126.785C244.679 127 244.119 127 242.999 127H217.399C216.279 127 215.719 127 215.291 126.785C214.915 126.597 214.609 126.296 214.417 125.925C214.199 125.504 214.199 124.953 214.199 123.85V88.15C214.199 87.0474 214.199 86.4961 214.417 86.075C214.609 85.7045 214.915 85.4033 215.291 85.2146C215.719 85 216.279 85 217.399 85ZM244.866 97.4688C244.866 96.3818 243.97 95.5 242.866 95.5L238.733 95.5002C237.612 95.5002 237.052 95.5002 236.625 95.2857C236.248 95.0969 235.942 94.7957 235.751 94.4252C235.533 94.0041 235.533 93.4528 235.533 92.3502V88.2812C235.533 87.1943 234.637 86.3125 233.533 86.3125H217.399C216.817 86.3125 216.461 86.3135 216.194 86.335C216.07 86.345 215.995 86.3575 215.949 86.3681C215.928 86.3731 215.914 86.3773 215.907 86.3799C215.9 86.3823 215.897 86.384 215.897 86.384C215.771 86.4469 215.669 86.5473 215.605 86.6708C215.605 86.6708 215.603 86.6742 215.601 86.681C215.598 86.6881 215.594 86.7013 215.589 86.7227C215.578 86.7676 215.566 86.8415 215.555 86.9638C215.534 87.2263 215.533 87.577 215.533 88.15V123.85C215.533 124.423 215.534 124.774 215.555 125.036C215.566 125.158 215.578 125.232 215.589 125.277C215.594 125.299 215.598 125.312 215.601 125.319C215.603 125.326 215.605 125.329 215.605 125.329C215.669 125.453 215.771 125.553 215.897 125.616C215.897 125.616 215.9 125.618 215.907 125.62C215.914 125.623 215.928 125.627 215.949 125.632C215.995 125.642 216.07 125.655 216.194 125.665C216.461 125.687 216.817 125.688 217.399 125.688H242.999C243.581 125.688 243.938 125.687 244.204 125.665C244.328 125.655 244.404 125.642 244.449 125.632C244.471 125.627 244.484 125.623 244.491 125.62L244.498 125.618L244.502 125.616C244.627 125.553 244.729 125.453 244.793 125.329C244.793 125.329 244.795 125.326 244.797 125.319C244.8 125.312 244.804 125.299 244.809 125.277C244.82 125.232 244.833 125.158 244.843 125.036C244.865 124.774 244.866 124.423 244.866 123.85V97.4688Z" fill="black" fill-opacity="0.3"/>
<path d="M220.699 117V117.89L221.459 117.427L230.092 112.168L230.199 112.103L230.306 112.168L238.939 117.427L239.699 117.89V117V100V99.5H239.199H221.199H220.699V100V117Z" stroke="white" stroke-opacity="0.95"/>
</g>
<defs>
<filter id="filter0_d_7868_204479" x="63.1992" y="138" width="139" height="76" filterUnits="userSpaceOnUse" color-interpolation-filters="sRGB">
<feFlood flood-opacity="0" result="BackgroundImageFix"/>
<feColorMatrix in="SourceAlpha" type="matrix" values="0 0 0 0 0 0 0 0 0 0 0 0 0 0 0 0 0 0 127 0" result="hardAlpha"/>
<feOffset dy="7"/>
<feGaussianBlur stdDeviation="7.5"/>
<feColorMatrix type="matrix" values="0 0 0 0 0.333333 0 0 0 0 0.333333 0 0 0 0 0.333333 0 0 0 0.1 0"/>
<feBlend mode="normal" in2="BackgroundImageFix" result="effect1_dropShadow_7868_204479"/>
<feBlend mode="normal" in="SourceGraphic" in2="effect1_dropShadow_7868_204479" result="shape"/>
</filter>
<filter id="filter1_d_7868_204479" x="160.199" y="157" width="173" height="66" filterUnits="userSpaceOnUse" color-interpolation-filters="sRGB">
<feFlood flood-opacity="0" result="BackgroundImageFix"/>
<feColorMatrix in="SourceAlpha" type="matrix" values="0 0 0 0 0 0 0 0 0 0 0 0 0 0 0 0 0 0 127 0" result="hardAlpha"/>
<feOffset dy="7"/>
<feGaussianBlur stdDeviation="7.5"/>
<feColorMatrix type="matrix" values="0 0 0 0 0.333333 0 0 0 0 0.333333 0 0 0 0 0.333333 0 0 0 0.1 0"/>
<feBlend mode="normal" in2="BackgroundImageFix" result="effect1_dropShadow_7868_204479"/>
<feBlend mode="normal" in="SourceGraphic" in2="effect1_dropShadow_7868_204479" result="shape"/>
</filter>
<clipPath id="clip0_7868_204479">
<rect width="448" height="254" fill="white" transform="translate(0.199219)"/>
</clipPath>
<clipPath id="clip1_7868_204479">
<rect width="34" height="30" fill="white" transform="translate(12.1992 16)"/>
</clipPath>
<clipPath id="clip2_7868_204479">
<rect width="17" height="15" fill="white" transform="translate(186.199 175.5)"/>
</clipPath>
</defs>
</svg>
