<svg width="449" height="254" viewBox="0 0 449 254" fill="none" xmlns="http://www.w3.org/2000/svg">
<g clip-path="url(#clip0_7868_202659)">
<g clip-path="url(#clip1_7868_202659)">
<rect x="0.800781" width="288" height="254" rx="4" fill="white"/>
<path d="M5.80078 254C3.03936 254 0.800781 251.761 0.800781 249L0.800781 5C0.800781 2.23857 3.03936 0 5.80078 0H57.8008L57.8008 254H5.80078Z" fill="#1E1E1E"/>
<g clip-path="url(#clip2_7868_202659)">
<path d="M14.9292 30.9996C14.9292 36.093 17.8843 40.4947 22.1694 42.5806L16.0414 25.7627C15.3286 27.363 14.9292 29.1341 14.9292 30.9996Z" fill="white"/>
<path d="M36.4484 30.3502C36.4484 28.7599 35.8781 27.6585 35.389 26.8013C34.7378 25.7413 34.1274 24.8437 34.1274 23.7838C34.1274 22.6009 35.0231 21.4998 36.2847 21.4998C36.3416 21.4998 36.3956 21.5069 36.4511 21.5101C34.1656 19.4127 31.1205 18.1321 27.776 18.1321C23.288 18.1321 19.3395 20.4386 17.0425 23.9321C17.3439 23.9412 17.6279 23.9476 17.8692 23.9476C19.2129 23.9476 21.2929 23.7842 21.2929 23.7842C21.9854 23.7434 22.067 24.7622 21.3753 24.8442C21.3753 24.8442 20.6793 24.9262 19.9049 24.9669L24.5831 38.9051L27.3945 30.4594L25.3929 24.9664C24.7012 24.9257 24.0458 24.8437 24.0458 24.8437C23.3535 24.8031 23.4347 23.7429 24.127 23.7838C24.127 23.7838 26.2485 23.9471 27.5108 23.9471C28.8543 23.9471 30.9345 23.7838 30.9345 23.7838C31.6275 23.7429 31.7089 24.7617 31.0169 24.8437C31.0169 24.8437 30.3195 24.9257 29.5465 24.9664L34.189 38.7991L35.4704 34.51C36.0258 32.7302 36.4484 31.4518 36.4484 30.3502Z" fill="white"/>
<path d="M28.0014 32.1252L24.147 43.3441C25.2978 43.683 26.5149 43.8683 27.776 43.8683C29.272 43.8683 30.7066 43.6093 32.042 43.1389C32.0076 43.0838 31.9763 43.0253 31.9506 42.9617L28.0014 32.1252Z" fill="white"/>
<path d="M39.0482 24.8259C39.1035 25.2358 39.1348 25.6758 39.1348 26.1491C39.1348 27.4549 38.8913 28.9228 38.158 30.7582L34.2339 42.1225C38.0531 39.8917 40.622 35.7471 40.622 30.9999C40.6222 28.7627 40.0517 26.6589 39.0482 24.8259Z" fill="white"/>
<path d="M27.7759 16C19.5188 16 12.8008 22.7288 12.8008 30.9996C12.8008 39.2715 19.5188 46 27.7759 46C36.0328 46 42.7518 39.2715 42.7518 30.9996C42.7516 22.7288 36.0328 16 27.7759 16ZM27.7759 45.3125C19.8975 45.3125 13.4874 38.8917 13.4874 30.9996C13.4874 23.1081 19.8972 16.6878 27.7759 16.6878C35.6541 16.6878 42.0637 23.1081 42.0637 30.9996C42.0637 38.8917 35.6541 45.3125 27.7759 45.3125Z" fill="white"/>
</g>
<rect width="57" height="48" transform="translate(0.800781 60)" fill="#3858E9"/>
<path opacity="0.5" fill-rule="evenodd" clip-rule="evenodd" d="M27.4673 97.6569L15.0915 91.8924C14.0372 91.3891 14.0372 90.6114 15.0915 90.1539L19.4001 88.1409L27.4215 91.8924C28.4757 92.3956 30.1717 92.3956 31.1801 91.8924L39.2015 88.1409L43.5101 90.1539C44.5643 90.6571 44.5643 91.4349 43.5101 91.8924L31.1342 97.6569C30.1717 98.1144 28.4757 98.1144 27.4673 97.6569Z" fill="white"/>
<path opacity="0.75" fill-rule="evenodd" clip-rule="evenodd" d="M27.4272 90.5235L15.0891 84.7523C14.038 84.2485 14.038 83.4698 15.0891 83.0118L19.2932 81.0422L27.4272 84.8439C28.4782 85.3477 30.169 85.3477 31.1744 84.8439L39.3084 81.0422L43.5125 83.0118C44.5635 83.5156 44.5635 84.2943 43.5125 84.7523L31.1744 90.5235C30.1233 91.0273 28.4325 91.0273 27.4272 90.5235Z" fill="white"/>
<path fill-rule="evenodd" clip-rule="evenodd" d="M27.4272 83.4642L15.0891 77.7761C14.038 77.2795 14.038 76.512 15.0891 76.0606L27.4272 70.3724C28.4782 69.8759 30.169 69.8759 31.1744 70.3724L43.5125 76.0606C44.5635 76.5572 44.5635 77.3246 43.5125 77.7761L31.1744 83.4642C30.1233 83.9157 28.4325 83.9157 27.4272 83.4642Z" fill="white"/>
<path d="M103.705 33.1248H108.793V34.8208H103.705V33.1248ZM108.281 33.1248H108.585L108.905 33.0608L110.073 33.4608C109.369 38.9168 107.465 42.9648 104.585 45.3008C104.297 44.8528 103.721 44.1808 103.305 43.8608C105.849 42.0208 107.705 37.9888 108.281 33.5248V33.1248ZM103.657 36.5808L105.001 35.5248C106.713 37.7968 108.953 40.8368 109.881 42.7888L108.393 44.0848C107.497 42.0848 105.369 38.9168 103.657 36.5808ZM111.961 33.6688H116.969V35.3968H111.961V33.6688ZM111.401 31.4448L113.209 31.6688C112.873 34.4368 112.217 36.9968 111.081 38.6288C110.761 38.3248 109.977 37.7648 109.561 37.5248C110.617 36.1328 111.145 33.8448 111.401 31.4448ZM116.601 33.6688H116.889L117.177 33.6048L118.473 33.9408C118.137 35.4128 117.641 37.0288 117.161 38.0848L115.673 37.5888C116.009 36.6608 116.409 35.1568 116.601 33.9408V33.6688ZM114.473 37.4608C115.001 40.8528 116.185 43.6368 118.793 44.8208C118.377 45.1888 117.817 45.9408 117.545 46.4368C114.697 44.9008 113.545 41.7968 112.905 37.6688L114.473 37.4608ZM112.857 36.1488H114.665V37.3808C114.665 39.9408 114.249 43.8448 110.057 46.4528C109.769 46.0368 109.129 45.4128 108.697 45.1088C112.505 42.8368 112.857 39.5088 112.857 37.3488V36.1488ZM122.793 37.6528V43.5408H121.001V39.4288H119.337V37.6528H122.793ZM122.793 42.8048C123.417 43.8928 124.585 44.3568 126.233 44.4368C128.217 44.5168 132.153 44.4688 134.425 44.2928C134.217 44.7088 133.929 45.5568 133.849 46.0848C131.801 46.1808 128.249 46.2128 126.249 46.1328C124.297 46.0528 122.985 45.5728 122.025 44.3248C121.417 44.9648 120.777 45.5728 120.025 46.2928L119.113 44.4528C119.753 44.0048 120.521 43.3968 121.193 42.8048H122.793ZM119.241 32.7088L120.745 31.7648C121.593 32.5168 122.585 33.6048 123.017 34.4048L121.385 35.4768C121.017 34.6928 120.057 33.5248 119.241 32.7088ZM128.441 32.3888H132.857V34.0048H130.185V43.9568H128.441V32.3888ZM124.105 32.5328L125.865 32.9968V41.2528H124.105V32.5328ZM131.881 32.3888H133.657V40.5488C133.657 41.3328 133.513 41.7808 133.017 42.0688C132.521 42.3408 131.849 42.3568 130.921 42.3568C130.841 41.8928 130.617 41.1728 130.377 40.7568C130.921 40.7728 131.465 40.7728 131.641 40.7568C131.817 40.7568 131.881 40.6928 131.881 40.5168V32.3888ZM127.161 31.4128L128.489 32.8368C127.449 33.4448 126.217 33.9728 125.177 34.3408C125.081 33.9568 124.825 33.3488 124.601 32.9808C125.513 32.5648 126.537 31.9408 127.161 31.4128ZM123.177 40.7568C124.393 40.5008 126.169 40.0848 127.881 39.6368L128.089 41.2688C126.601 41.6848 124.969 42.1168 123.673 42.4528L123.177 40.7568ZM135.257 38.4048H149.641V40.2448H135.257V38.4048ZM136.009 33.1568H149.001V34.9808H136.009V33.1568ZM141.417 31.3968H143.465V46.4208H141.417V31.3968ZM146.185 34.9328L148.201 35.5248C147.609 36.6288 146.969 37.7648 146.457 38.4848L144.793 37.9408C145.289 37.1248 145.881 35.8768 146.185 34.9328ZM137.081 35.6208L138.793 34.9808C139.385 35.8448 139.961 37.0128 140.169 37.7968L138.329 38.5168C138.169 37.7488 137.625 36.5328 137.081 35.6208ZM141.097 39.1408L142.649 39.7648C141.145 42.2928 138.665 44.5968 136.169 45.8608C135.865 45.3968 135.241 44.6448 134.809 44.2608C137.273 43.2208 139.801 41.1888 141.097 39.1408ZM143.833 39.1728C145.113 41.2048 147.609 43.2528 150.057 44.2928C149.609 44.6768 149.001 45.4128 148.697 45.9088C146.201 44.6448 143.785 42.3088 142.281 39.7968L143.833 39.1728ZM150.777 32.4208H158.937V34.1328H150.777V32.4208ZM151.257 40.0368H158.441V41.7488H151.257V40.0368ZM153.913 38.4848H155.817V44.5168L153.913 44.8048V38.4848ZM150.601 44.1488C152.729 43.9568 155.977 43.5728 158.969 43.2208L159.017 45.0128C156.153 45.3968 153.081 45.7968 150.889 46.0688L150.601 44.1488ZM150.745 36.5488C152.585 36.5168 155.369 36.4368 158.041 36.3408L157.993 37.9888C155.449 38.1328 152.777 38.2448 150.857 38.3248L150.745 36.5488ZM155.657 35.1568L157.081 34.4048C157.977 35.4928 159.001 36.9648 159.401 37.9728L157.881 38.8368C157.513 37.8448 156.537 36.2928 155.657 35.1568ZM153.049 33.4608L155.129 33.8928C154.569 35.2528 153.945 36.7888 153.417 37.7808L151.801 37.3488C152.265 36.2928 152.793 34.6448 153.049 33.4608ZM159.529 33.3648H161.369V42.4208H159.529V33.3648ZM163.177 31.8608H165.049V44.1488C165.049 45.2368 164.841 45.7648 164.201 46.0688C163.561 46.3728 162.521 46.4368 161.161 46.4368C161.081 45.8928 160.809 45.0288 160.537 44.4848C161.497 44.5328 162.473 44.5168 162.793 44.5168C163.081 44.5008 163.177 44.4208 163.177 44.1328V31.8608ZM166.409 35.1888H171.337V36.9648H166.409V35.1888ZM167.961 31.4128H169.801V46.4368H167.961V31.4128ZM171.753 34.3728H178.265V36.2448H171.753V34.3728ZM177.497 34.3728H179.321C179.321 34.3728 179.305 35.0128 179.305 35.2368C179.177 42.1488 179.049 44.5808 178.505 45.3488C178.121 45.9088 177.737 46.0848 177.161 46.1808C176.633 46.2768 175.817 46.2768 174.985 46.2448C174.953 45.7168 174.745 44.9168 174.409 44.4048C175.209 44.4688 175.913 44.4688 176.265 44.4688C176.537 44.4688 176.697 44.4208 176.857 44.1968C177.257 43.7008 177.369 41.2688 177.497 34.7888V34.3728ZM171.577 37.3808L173.257 37.7168C172.937 39.3808 172.313 41.0288 171.593 42.1008C171.273 41.8288 170.553 41.3808 170.153 41.1568C170.841 40.2288 171.321 38.8048 171.577 37.3808ZM178.889 37.7168L180.441 37.3808C180.889 38.9008 181.401 40.8848 181.593 42.0688L179.913 42.5008C179.769 41.3008 179.321 39.2688 178.889 37.7168ZM174.185 31.4928H175.993V34.9168C175.993 38.4528 175.641 43.1408 171.705 46.4528C171.385 46.0368 170.697 45.4128 170.249 45.1248C173.865 42.1968 174.185 38.0208 174.185 34.9168V31.4928ZM189.353 34.0208H197.033V35.8448H188.457L189.353 34.0208ZM191.465 37.5408H196.617V39.2848H191.465V37.5408ZM191.449 41.0768H196.825V42.8688H191.449V41.0768ZM190.489 34.6288H192.457V46.4368H190.489V34.6288ZM189.721 31.5568L191.577 32.0528C190.681 34.6448 189.241 37.3008 187.769 38.9648C187.465 38.6128 186.729 37.9248 186.313 37.6208C187.721 36.1808 188.985 33.8768 189.721 31.5568ZM185.497 31.4768L187.353 32.0688C186.313 34.7888 184.633 37.7168 182.873 39.5408C182.697 39.0608 182.153 37.9728 181.817 37.4928C183.289 36.0368 184.681 33.7648 185.497 31.4768ZM183.881 35.8928L185.801 33.9568L185.817 33.9728V46.4208H183.881V35.8928ZM204.121 31.4128H206.105V34.0208H204.121V31.4128ZM204.121 40.9008H206.105V45.1728H204.121V40.9008ZM202.409 34.4208H204.393C204.105 37.1888 203.305 38.9488 199.097 39.8608C198.937 39.3808 198.473 38.6128 198.073 38.2288C201.689 37.6048 202.185 36.4368 202.409 34.4208ZM205.913 34.3888H207.817V37.1408C207.817 37.5728 207.913 37.6208 208.393 37.6208C208.617 37.6208 209.545 37.6208 209.833 37.6208C210.233 37.6208 210.313 37.4608 210.377 36.4688C210.745 36.7408 211.513 37.0128 212.025 37.1248C211.817 38.8048 211.321 39.2528 210.025 39.2528C209.641 39.2528 208.473 39.2528 208.121 39.2528C206.313 39.2528 205.913 38.7568 205.913 37.1408V34.3888ZM198.297 32.8528H212.057V36.1808H210.073V34.5808H200.185V36.4688H198.297V32.8528ZM199.817 40.1488H210.841V41.8608H199.817V40.1488ZM198.121 44.2768H212.185V46.0048H198.121V44.2768ZM213.977 35.2688H215.961V46.4208H213.977V35.2688ZM214.201 32.4368L215.705 31.5248C216.457 32.2128 217.321 33.2208 217.705 33.9408L216.089 34.9648C215.753 34.2768 214.921 33.2048 214.201 32.4368ZM218.265 32.2128H226.921V33.9888H218.265V32.2128ZM225.849 32.2128H227.849V44.3728C227.849 45.2688 227.689 45.7008 227.161 46.0048C226.617 46.3088 225.849 46.3248 224.841 46.3248C224.777 45.8448 224.537 45.0768 224.297 44.6128C224.809 44.6448 225.401 44.6288 225.593 44.6288C225.801 44.6288 225.849 44.5488 225.849 44.3568V32.2128ZM219.289 40.5008V42.0368H222.393V40.5008H219.289ZM219.289 37.4448V38.9648H222.393V37.4448H219.289ZM217.577 35.9088H224.185V43.5728H217.577V35.9088ZM235.689 40.8848L235.273 35.4128L235.193 33.0288H237.833L237.753 35.4128L237.337 40.8848H235.689ZM236.521 45.1568C235.689 45.1568 235.097 44.5648 235.097 43.7328C235.097 42.9008 235.705 42.3248 236.521 42.3248C237.321 42.3248 237.929 42.9008 237.929 43.7328C237.929 44.5648 237.321 45.1568 236.521 45.1568Z" fill="#333333"/>
<path d="M187.801 83.5H188.301V84V154V154.5H187.801H130.801H130.301V154V95.2654V95.0589L130.446 94.9126L141.665 83.6472L141.812 83.5H142.019H187.801Z" fill="white" stroke="#333333"/>
<path d="M141.447 83.6464C141.59 83.5034 141.805 83.4607 141.992 83.5381C142.179 83.6155 142.301 83.7978 142.301 84V95C142.301 95.2761 142.077 95.5 141.801 95.5H130.801C130.599 95.5 130.416 95.3782 130.339 95.1913C130.261 95.0045 130.304 94.7894 130.447 94.6464L141.447 83.6464Z" fill="#D9F4FF" stroke="#333333" stroke-linejoin="round"/>
<path d="M196.801 89.5H197.301V90V160V160.5H196.801H138.801H138.301V160V101.265V101.056L138.45 100.909L149.865 89.6441L150.011 89.5H150.216H196.801Z" fill="white" stroke="#333333"/>
<path d="M149.447 89.6464C149.59 89.5034 149.805 89.4607 149.992 89.5381C150.179 89.6155 150.301 89.7978 150.301 90V101C150.301 101.276 150.077 101.5 149.801 101.5H138.801C138.599 101.5 138.416 101.378 138.339 101.191C138.261 101.005 138.304 100.789 138.447 100.646L149.447 89.6464Z" fill="#D9F4FF" stroke="#333333" stroke-linejoin="round"/>
<path d="M204.801 95.5H205.301V96V166V166.5H204.801H146.801H146.301V166V107.169V106.959L146.451 106.812L157.866 95.6426L158.012 95.5H158.216H204.801Z" fill="white" stroke="#333333"/>
<path d="M157.647 95.6464C157.79 95.5034 158.005 95.4607 158.192 95.5381C158.379 95.6155 158.501 95.7978 158.501 96V106.8C158.501 107.076 158.277 107.3 158.001 107.3H147.201C146.999 107.3 146.816 107.178 146.739 106.991C146.662 106.805 146.704 106.589 146.847 106.446L157.647 95.6464Z" fill="url(#paint0_linear_7868_202659)" stroke="#333333" stroke-linejoin="round"/>
<path fill-rule="evenodd" clip-rule="evenodd" d="M195.301 114C195.577 114 195.801 114.224 195.801 114.5C195.801 114.776 195.577 115 195.301 115H165.301C165.025 115 164.801 114.776 164.801 114.5C164.801 114.224 165.025 114 165.301 114H195.301ZM176.801 127.5C176.801 127.224 176.577 127 176.301 127H157.301C157.025 127 156.801 127.224 156.801 127.5C156.801 127.776 157.025 128 157.301 128H176.301C176.577 128 176.801 127.776 176.801 127.5ZM170.801 148.5C170.801 148.224 170.577 148 170.301 148H157.301C157.025 148 156.801 148.224 156.801 148.5C156.801 148.776 157.025 149 157.301 149H170.301C170.577 149 170.801 148.776 170.801 148.5ZM178.801 134.5C178.801 134.776 178.577 135 178.301 135H157.301C157.025 135 156.801 134.776 156.801 134.5C156.801 134.224 157.025 134 157.301 134H178.301C178.577 134 178.801 134.224 178.801 134.5ZM195.301 121C195.577 121 195.801 121.224 195.801 121.5C195.801 121.776 195.577 122 195.301 122H157.301C157.025 122 156.801 121.776 156.801 121.5C156.801 121.224 157.025 121 157.301 121H195.301ZM173.801 141.5C173.801 141.224 173.577 141 173.301 141H157.301C157.025 141 156.801 141.224 156.801 141.5C156.801 141.776 157.025 142 157.301 142H173.301C173.577 142 173.801 141.776 173.801 141.5ZM170.301 154C170.577 154 170.801 154.224 170.801 154.5C170.801 154.776 170.577 155 170.301 155H157.301C157.025 155 156.801 154.776 156.801 154.5C156.801 154.224 157.025 154 157.301 154H170.301ZM195.801 127.5C195.801 127.224 195.577 127 195.301 127H180.301C180.025 127 179.801 127.224 179.801 127.5C179.801 127.776 180.025 128 180.301 128H195.301C195.577 128 195.801 127.776 195.801 127.5ZM195.253 147.435C195.529 147.435 195.753 147.658 195.753 147.935C195.753 148.211 195.529 148.435 195.253 148.435H179.977C179.701 148.435 179.477 148.211 179.477 147.935C179.477 147.658 179.701 147.435 179.977 147.435H195.253Z" fill="#333333"/>
<path d="M193.601 106H173.801" stroke="url(#paint1_linear_7868_202659)" stroke-width="2" stroke-linecap="round"/>
<path d="M194.301 171.5C205.314 171.5 214.301 162.519 214.301 151.5C214.301 140.481 205.32 131.5 194.301 131.5C183.282 131.5 174.301 140.481 174.301 151.5C174.301 162.519 183.282 171.5 194.301 171.5Z" fill="#D9F4FF" stroke="#333333"/>
<path d="M189.675 152.906L189.675 152.906L189.677 152.903L189.77 152.792C189.818 152.734 189.883 152.645 189.914 152.511C189.934 152.421 189.934 152.329 189.934 152.278C189.934 152.275 189.934 152.273 189.934 152.271V151.89V149.55V148.741L189.21 149.103C188.745 149.336 188.322 149.343 187.679 149.343C187.058 149.343 186.556 149.294 186.136 149.097L185.424 148.764V149.55V151.904V152.271C185.424 152.274 185.424 152.279 185.424 152.283C185.424 152.328 185.423 152.414 185.438 152.491C185.463 152.628 185.525 152.723 185.583 152.792L185.676 152.903L185.676 152.903L185.678 152.906C185.89 153.157 186.115 153.39 186.33 153.613C186.342 153.625 186.354 153.637 186.365 153.649C186.594 153.887 186.815 154.117 187.027 154.372L187.028 154.373C187.085 154.442 187.167 154.535 187.269 154.605C187.369 154.675 187.51 154.737 187.679 154.729C187.848 154.737 187.989 154.675 188.088 154.605C188.191 154.535 188.273 154.442 188.33 154.373L187.946 154.052L188.329 154.374C188.543 154.119 188.763 153.888 188.991 153.649C189 153.64 189.009 153.631 189.017 153.622C189.234 153.395 189.46 153.159 189.675 152.906Z" fill="white" stroke="#333333"/>
<circle cx="187.679" cy="145.455" r="4.68" fill="white" stroke="#333333"/>
<path fill-rule="evenodd" clip-rule="evenodd" d="M187.865 142.876C188.759 144.408 190.867 146.181 192.336 145.969C192.353 145.817 192.359 145.664 192.359 145.506C192.359 142.894 190.263 140.775 187.679 140.775C185.095 140.775 182.999 142.894 182.999 145.506C182.999 145.688 183.011 145.864 183.028 146.04C184.439 146.022 186.75 145.066 187.865 142.876Z" fill="#AAAAAA" stroke="#333333"/>
<path d="M187.619 154.216C187.326 153.839 186.975 153.486 186.653 153.164L186.632 153.143C186.331 152.842 186.059 152.569 185.839 152.302V151.598V151.001L185.252 151.105C183.258 151.458 181.631 152.276 180.338 153.313L179.943 153.63L180.265 154.021C182.012 156.142 184.656 157.493 187.619 157.493C190.563 157.493 193.194 156.155 194.941 154.058L195.266 153.669L194.872 153.35C193.597 152.316 192.115 151.473 190.109 151.106L189.519 150.998V151.598V152.271L187.619 154.216Z" fill="#D9F4FF" stroke="#333333"/>
<path d="M203.581 152.906L203.581 152.906L203.583 152.903L203.676 152.792C203.725 152.734 203.789 152.645 203.82 152.511C203.84 152.421 203.84 152.329 203.84 152.278C203.84 152.275 203.84 152.273 203.84 152.271V151.89V149.55V148.741L203.116 149.103C202.651 149.336 202.229 149.343 201.585 149.343C200.965 149.343 200.462 149.294 200.042 149.097L199.33 148.764V149.55V151.904V152.271C199.33 152.274 199.33 152.279 199.33 152.283C199.33 152.328 199.329 152.414 199.344 152.491C199.37 152.628 199.432 152.723 199.489 152.792L199.582 152.903L199.582 152.903L199.584 152.906C199.797 153.157 200.021 153.39 200.237 153.613C200.248 153.625 200.26 153.637 200.271 153.649C200.501 153.887 200.721 154.117 200.933 154.372L200.934 154.373C200.991 154.442 201.073 154.535 201.175 154.605C201.275 154.675 201.416 154.737 201.585 154.729C201.754 154.737 201.895 154.675 201.995 154.605C202.097 154.535 202.179 154.442 202.236 154.373L201.853 154.052L202.236 154.374C202.449 154.119 202.669 153.888 202.898 153.649C202.906 153.64 202.915 153.631 202.923 153.622C203.141 153.395 203.367 153.159 203.581 152.906Z" fill="white" stroke="#333333"/>
<circle cx="201.585" cy="145.455" r="4.68" fill="white" stroke="#333333"/>
<path fill-rule="evenodd" clip-rule="evenodd" d="M201.771 142.876C202.665 144.408 204.773 146.181 206.242 145.969C206.259 145.817 206.265 145.664 206.265 145.506C206.265 142.894 204.169 140.775 201.585 140.775C199.001 140.775 196.905 142.894 196.905 145.506C196.905 145.688 196.917 145.864 196.934 146.04C198.345 146.022 200.656 145.066 201.771 142.876Z" fill="#AAAAAA" stroke="#333333"/>
<path d="M201.525 154.216C201.232 153.839 200.881 153.486 200.559 153.164L200.539 153.143C200.238 152.842 199.965 152.569 199.745 152.302V151.598V151.001L199.158 151.105C197.164 151.458 195.537 152.276 194.244 153.313L193.849 153.63L194.171 154.021C195.918 156.142 198.562 157.493 201.525 157.493C204.469 157.493 207.101 156.155 208.848 154.058L209.172 153.669L208.778 153.35C207.503 152.316 206.022 151.473 204.015 151.106L203.425 150.998V151.598V152.271L201.525 154.216Z" fill="#D9F4FF" stroke="#333333"/>
<path d="M196.695 159.925L196.695 159.925L196.697 159.923L196.79 159.812C196.838 159.754 196.903 159.665 196.934 159.53C196.954 159.441 196.954 159.349 196.954 159.298C196.954 159.295 196.954 159.293 196.954 159.29V158.91V156.57V155.761L196.23 156.123C195.765 156.355 195.342 156.362 194.699 156.362C194.078 156.362 193.576 156.313 193.156 156.117L192.444 155.784V156.57V158.924V159.29C192.444 159.294 192.444 159.298 192.444 159.303C192.444 159.348 192.443 159.433 192.458 159.511C192.483 159.648 192.545 159.743 192.603 159.812L192.696 159.923L192.696 159.923L192.698 159.925C192.91 160.177 193.135 160.41 193.35 160.633C193.362 160.645 193.374 160.657 193.385 160.669C193.614 160.907 193.835 161.137 194.047 161.392L194.048 161.393C194.105 161.462 194.187 161.555 194.289 161.625C194.389 161.694 194.53 161.757 194.699 161.749C194.868 161.757 195.009 161.694 195.109 161.625C195.211 161.555 195.293 161.462 195.35 161.393L194.966 161.072L195.349 161.394C195.563 161.139 195.783 160.908 196.011 160.669C196.02 160.66 196.029 160.651 196.037 160.642C196.254 160.415 196.48 160.179 196.695 159.925Z" fill="white" stroke="#333333"/>
<circle cx="194.699" cy="152.475" r="4.68" fill="white" stroke="#333333"/>
<path fill-rule="evenodd" clip-rule="evenodd" d="M194.885 149.896C195.779 151.428 197.887 153.201 199.356 152.99C199.373 152.837 199.379 152.685 199.379 152.526C199.379 149.914 197.283 147.795 194.699 147.795C192.115 147.795 190.019 149.914 190.019 152.526C190.019 152.708 190.031 152.884 190.048 153.06C191.459 153.043 193.77 152.086 194.885 149.896Z" fill="#AAAAAA" stroke="#333333"/>
<path d="M194.639 161.235C194.346 160.858 193.995 160.505 193.673 160.183L193.652 160.163C193.352 159.862 193.079 159.589 192.859 159.321V158.617V158.021L192.272 158.125C190.278 158.478 188.651 159.296 187.358 160.333L186.963 160.65L187.285 161.041C189.032 163.162 191.676 164.512 194.639 164.512C197.583 164.512 200.214 163.174 201.961 161.078L202.286 160.689L201.892 160.37C200.617 159.336 199.135 158.493 197.129 158.126L196.539 158.018V158.617V159.291L194.639 161.235Z" fill="url(#paint2_linear_7868_202659)" stroke="#333333"/>
<path d="M149.908 203.5L204.868 203.5" stroke="#666666" stroke-dasharray="2 2"/>
<path d="M142.721 194.319H145.366V195.816H142.721V198.448H141.224V195.816H138.578V194.319H141.224V191.653H142.721V194.319ZM160.937 188.38H162.603V199.3C162.603 200.252 162.407 200.672 161.819 200.938C161.231 201.19 160.321 201.232 159.005 201.232C158.935 200.784 158.669 200.056 158.445 199.622C159.327 199.664 160.265 199.65 160.559 199.65C160.825 199.636 160.937 199.552 160.937 199.286V188.38ZM158.249 189.71H159.859V197.676H158.249V189.71ZM152.215 193.196H156.023V194.652H152.215V193.196ZM151.487 193.196H153.125V198.936C153.125 199.524 153.223 199.608 153.867 199.608C154.161 199.608 155.407 199.608 155.757 199.608C156.345 199.608 156.443 199.328 156.527 197.83C156.877 198.096 157.535 198.348 157.969 198.446C157.787 200.434 157.339 201.022 155.897 201.022C155.519 201.022 154.007 201.022 153.657 201.022C152.005 201.022 151.487 200.588 151.487 198.95V193.196ZM155.393 193.196H157.003C157.003 193.196 156.989 193.588 156.975 193.77C156.877 196.108 156.737 197.116 156.401 197.508C156.135 197.83 155.841 197.942 155.463 197.998C155.127 198.04 154.567 198.054 153.965 198.026C153.937 197.592 153.769 197.004 153.545 196.612C154.007 196.668 154.427 196.682 154.637 196.682C154.819 196.682 154.931 196.654 155.043 196.528C155.211 196.318 155.323 195.52 155.393 193.42V193.196ZM153.629 189.822L154.735 188.842C155.855 190.032 157.381 191.656 158.053 192.706L156.835 193.868C156.191 192.79 154.749 191.068 153.629 189.822ZM153.783 188.086L155.309 188.562C154.371 190.788 152.887 192.776 151.053 194.148C150.801 193.798 150.213 193.182 149.849 192.916C151.557 191.768 153.041 189.878 153.783 188.086ZM167.993 190.844H177.149V192.132H167.993V190.844ZM168.805 194.61H176.211V195.814H168.805V194.61ZM168.189 196.458H176.841V197.788H168.189V196.458ZM171.535 188.226H173.173V198.922H171.535V188.226ZM168.959 189.01H176.099V193.994H168.889V192.72H174.447V190.284H168.959V189.01ZM164.073 188.884H167.027V190.354H164.073V188.884ZM166.453 188.884H166.663L166.915 188.828L168.049 189.136C167.419 190.788 166.439 192.972 165.627 194.722L164.101 194.33C164.955 192.608 165.963 190.298 166.453 189.066V188.884ZM165.501 192.846H167.545V194.316H165.445L165.501 192.846ZM166.873 192.846H167.195L167.475 192.818L168.455 193.028C168.105 197.256 167.027 199.944 165.207 201.316C164.955 200.994 164.311 200.392 163.947 200.182C165.683 198.978 166.607 196.71 166.873 193.154V192.846ZM165.585 195.114C166.719 198.74 169.281 199.314 172.585 199.328C173.439 199.328 176.295 199.328 177.317 199.286C177.065 199.664 176.771 200.434 176.673 200.924H172.543C168.483 200.924 165.725 200.098 164.269 195.576L165.585 195.114ZM179.641 190.858H181.293V194.022C181.293 196.164 181.013 199.202 179.347 201.106C179.053 200.826 178.325 200.35 177.905 200.182C179.487 198.418 179.641 195.87 179.641 194.008V190.858ZM180.509 190.858H189.721V194.176H180.509V192.958H188.069V192.076H180.509V190.858ZM178.717 188.758H190.575V190.256H178.717V188.758ZM180.383 195.03H190.925V196.346H180.383V195.03ZM184.219 197.144H188.405V198.418H184.219V197.144ZM184.415 194.022H186.081V195.702H184.415V194.022ZM188.055 197.144H189.721C189.721 197.144 189.707 197.536 189.679 197.718C189.539 199.566 189.343 200.434 188.993 200.812C188.685 201.12 188.321 201.218 187.887 201.26C187.495 201.302 186.781 201.302 186.025 201.274C185.997 200.854 185.829 200.266 185.591 199.888C186.221 199.944 186.851 199.958 187.117 199.958C187.341 199.958 187.467 199.93 187.607 199.818C187.803 199.636 187.943 198.95 188.055 197.34V197.144ZM183.631 195.772H185.297C185.059 198.376 184.415 200.238 181.069 201.26C180.915 200.868 180.495 200.266 180.159 199.958C183.043 199.188 183.435 197.76 183.631 195.772ZM192.619 191.488H194.355V201.246H192.619V191.488ZM192.815 189.01L194.131 188.212C194.789 188.814 195.545 189.696 195.881 190.326L194.467 191.222C194.173 190.62 193.445 189.682 192.815 189.01ZM196.371 188.814H203.945V190.368H196.371V188.814ZM203.007 188.814H204.757V199.454C204.757 200.238 204.617 200.616 204.155 200.882C203.679 201.148 203.007 201.162 202.125 201.162C202.069 200.742 201.859 200.07 201.649 199.664C202.097 199.692 202.615 199.678 202.783 199.678C202.965 199.678 203.007 199.608 203.007 199.44V188.814ZM197.267 196.066V197.41H199.983V196.066H197.267ZM197.267 193.392V194.722H199.983V193.392H197.267ZM195.769 192.048H201.551V198.754H195.769V192.048Z" fill="#666666"/>
</g>
<rect x="1.30078" y="0.5" width="287" height="253" rx="3.5" stroke="#333333"/>
<path d="M391.195 19.6011H315.405V70.3988H391.195V19.6011Z" fill="white"/>
<path d="M391.301 70.5H315.301V19.5H391.301V70.5Z" stroke="#CCCCCC"/>
<path d="M380.801 30H364.801V31H380.801V30Z" fill="#CCCCCC"/>
<path d="M380.801 37H364.801V38H380.801V37Z" fill="#CCCCCC"/>
<path d="M380.801 44H364.801V45H380.801V44Z" fill="#CCCCCC"/>
<path d="M380.801 51H364.801V52H380.801V51Z" fill="#CCCCCC"/>
<path d="M380.801 58H364.801V59H380.801V58Z" fill="#CCCCCC"/>
<path d="M354.801 30H323.801V60H354.801V30Z" fill="white"/>
<path d="M355.301 60.5H324.301V29.5H355.301V60.5Z" stroke="#CCCCCC"/>
<path d="M324.229 53.5815L331.341 46.6413L336.122 51.3678L346.911 40.8379L355.371 49.0943" fill="white"/>
<path d="M324.659 54L323.801 53.1624L331.341 45.8034L336.123 50.4701L346.912 40L355.801 48.6752L354.943 49.5128L346.912 41.6752L336.123 52.2051L331.341 47.5385L324.659 54Z" fill="#CCCCCC"/>
<path d="M334.537 40.401C336.066 40.401 337.305 39.1629 337.305 37.6357C337.305 36.1084 336.066 34.8704 334.537 34.8704C333.008 34.8704 331.769 36.1084 331.769 37.6357C331.769 39.1629 333.008 40.401 334.537 40.401Z" fill="white"/>
<path d="M334.301 41C332.363 41 330.801 39.4375 330.801 37.5C330.801 35.5625 332.363 34 334.301 34C336.238 34 337.801 35.5625 337.801 37.5C337.801 39.4375 336.238 41 334.301 41ZM334.301 35.3125C333.051 35.3125 332.051 36.3125 332.051 37.5625C332.051 38.8125 333.051 39.8125 334.301 39.8125C335.551 39.8125 336.551 38.8125 336.551 37.5625C336.551 36.3125 335.551 35.3125 334.301 35.3125Z" fill="#CCCCCC"/>
<path d="M364.801 227H356.955L356.801 226H363.801V170H322.801V178L321.801 177.772V169H364.801V227Z" fill="#CCCCCC"/>
<path d="M356.873 235.597H314.564V177.849H344.829L356.873 189.834V235.597Z" fill="white"/>
<path d="M357.301 235.5H314.301V177.5H344.99L357.301 189.795V235.5Z" stroke="#CCCCCC"/>
<path d="M345.154 177.646C345.011 177.503 344.796 177.46 344.609 177.538C344.423 177.615 344.301 177.798 344.301 178V190C344.301 190.276 344.525 190.5 344.801 190.5H356.801C357.003 190.5 357.185 190.378 357.263 190.191C357.34 190.004 357.297 189.789 357.154 189.646L345.154 177.646Z" fill="white" stroke="#CCCCCC" stroke-linejoin="round"/>
<path d="M336.726 192H321.801V193H336.726V192Z" fill="#CCCCCC"/>
<path d="M348.801 199H321.801V200H348.801V199Z" fill="#CCCCCC"/>
<path d="M348.801 206H321.801V207H348.801V206Z" fill="#CCCCCC"/>
<path d="M348.801 213H321.801V214H348.801V213Z" fill="#CCCCCC"/>
<path d="M348.801 220H321.801V221H348.801V220Z" fill="#CCCCCC"/>
<path d="M441.776 100.888C441.776 100.173 441.3 99.5374 440.665 99.2196L412.714 85.2383C412.158 84.9206 411.522 84.9206 410.967 85.2383L382.936 99.2196C382.301 99.5374 381.904 100.173 381.824 100.888C381.824 101.285 381.348 110.977 384.683 122.257C386.668 128.93 389.527 134.729 393.259 139.575C397.944 145.612 403.979 150.14 411.125 152.841C411.364 152.921 411.602 153 411.84 153C412.078 153 412.316 152.921 412.555 152.841C419.701 150.14 425.736 145.612 430.421 139.575C434.153 134.729 437.012 128.93 438.997 122.257C442.253 110.977 441.776 101.285 441.776 100.888ZM432.645 120.986C428.992 133.299 422.004 141.561 411.761 145.692C401.517 141.561 394.529 133.299 390.877 120.986C388.653 113.439 388.415 106.528 388.415 103.986L411.681 92.3084L434.947 103.986C435.106 106.528 434.947 113.439 432.645 120.986Z" fill="white"/>
<path d="M411.801 154C411.481 154 411.16 153.92 410.84 153.84C403.476 151.039 397.313 146.478 392.431 140.236C388.589 135.275 385.707 129.353 383.706 122.551C380.344 111.108 380.824 101.185 380.824 100.785C380.905 99.7445 381.465 98.8642 382.345 98.3841L410.52 84.3001C411.321 83.9 412.281 83.9 413.001 84.3001L441.256 98.3841C442.137 98.8642 442.777 99.7445 442.777 100.785C442.777 101.185 443.257 111.108 439.896 122.551C437.894 129.353 434.933 135.275 431.171 140.236C426.368 146.478 420.205 151.039 412.761 153.84C412.441 153.92 412.121 154 411.801 154ZM411.801 85.5805C411.641 85.5805 411.401 85.6605 411.24 85.7405L383.066 99.8245C382.665 99.9846 382.425 100.385 382.425 100.865C382.425 101.265 381.945 110.948 385.227 122.151C387.148 128.793 390.029 134.554 393.711 139.276C398.354 145.278 404.277 149.679 411.401 152.4C411.641 152.48 411.961 152.48 412.281 152.4C419.405 149.679 425.328 145.278 429.97 139.276C433.652 134.474 436.534 128.713 438.455 122.151C441.737 110.948 441.256 101.345 441.256 100.865C441.256 100.465 441.016 100.065 440.616 99.8245L412.361 85.7405C412.121 85.6605 411.961 85.5805 411.801 85.5805ZM411.801 146.798L411.481 146.638C400.995 142.397 393.711 133.914 390.029 121.271C387.788 113.588 387.548 106.546 387.548 103.906V103.426L411.801 91.2621L436.054 103.426V103.906C436.054 106.546 435.813 113.588 433.572 121.271C429.81 133.914 422.606 142.397 412.121 146.638L411.801 146.798ZM389.149 104.386C389.149 107.267 389.469 113.748 391.55 120.791C395.072 132.794 401.876 140.956 411.801 145.037C421.646 140.956 428.45 132.794 432.051 120.791C434.133 113.668 434.453 107.267 434.453 104.386L411.801 93.0226L389.149 104.386Z" fill="#CCCCCC"/>
<path d="M409.909 125C409.666 125 409.503 124.922 409.341 124.767L402.044 117.777C401.72 117.466 401.72 117 402.044 116.689C402.368 116.379 402.855 116.379 403.179 116.689L409.909 123.136L424.422 109.233C424.747 108.922 425.233 108.922 425.558 109.233C425.882 109.544 425.882 110.01 425.558 110.32L410.476 124.767C410.314 124.922 410.071 125 409.909 125Z" fill="#CCCCCC"/>
</g>
<defs>
<linearGradient id="paint0_linear_7868_202659" x1="158.001" y1="95.5781" x2="147.201" y2="106.8" gradientUnits="userSpaceOnUse">
<stop stop-color="#FF8E3D"/>
<stop offset="1" stop-color="#FF6F3D"/>
</linearGradient>
<linearGradient id="paint1_linear_7868_202659" x1="193.601" y1="105.961" x2="193.503" y2="107.958" gradientUnits="userSpaceOnUse">
<stop stop-color="#FF8E3D"/>
<stop offset="1" stop-color="#FF6F3D"/>
</linearGradient>
<linearGradient id="paint2_linear_7868_202659" x1="187.671" y1="158.407" x2="191.209" y2="167.883" gradientUnits="userSpaceOnUse">
<stop stop-color="#FF8E3D"/>
<stop offset="1" stop-color="#FF6F3D"/>
</linearGradient>
<clipPath id="clip0_7868_202659">
<rect width="448" height="254" fill="white" transform="translate(0.800781)"/>
</clipPath>
<clipPath id="clip1_7868_202659">
<rect x="0.800781" width="288" height="254" rx="4" fill="white"/>
</clipPath>
<clipPath id="clip2_7868_202659">
<rect width="30" height="30" fill="white" transform="translate(12.8008 16)"/>
</clipPath>
</defs>
</svg>
