<svg width="171" height="65" viewBox="0 0 171 65" fill="none" xmlns="http://www.w3.org/2000/svg">
<path fill-rule="evenodd" clip-rule="evenodd" d="M62.3004 22.1618C62.2395 22.6482 62.0718 23.0203 61.8028 23.2922C61.3406 23.7555 60.7735 23.9842 60.0764 23.9854C59.4223 23.9846 58.8673 23.758 58.3887 23.2951C57.9148 22.8339 57.6791 22.2451 57.6779 21.5002C57.6791 20.7553 57.9148 20.1665 58.3887 19.7053C58.8673 19.2425 59.4223 19.0158 60.0764 19.015C60.8037 19.0167 61.3529 19.2585 61.7609 19.7468L61.8365 19.8372L62.4864 19.1824L62.5561 19.1123L62.4927 19.0365C62.2284 18.7195 61.8764 18.4679 61.4436 18.2812C61.01 18.0938 60.5525 18 60.0764 18C59.1202 17.9991 58.2951 18.3373 57.6257 19.0065C56.9539 19.6745 56.6154 20.514 56.6162 21.5002C56.6154 22.486 56.9539 23.326 57.6262 23.9943C58.2951 24.6631 59.1202 25.0009 60.0764 25C61.0722 25.0009 61.8982 24.6681 62.525 24.0057C63.081 23.4457 63.3569 22.6897 63.3561 21.7636C63.3561 21.5991 63.341 21.4301 63.3095 21.2542L63.2935 21.1654H59.9689V22.0535V22.1618H62.3004ZM68.3137 18.2537V19.0513V19.1596H65.3749V21.0019H68.0252V21.1101V21.9986H65.3749V23.8409H68.3137V23.9491V24.855H64.3312V18.1454H68.3137V18.2537ZM71.8106 19.1596V24.7468V24.855H71.7031H70.7657V19.1596H68.9633V19.0513V18.1454H73.6131V18.2537V19.1596H71.8106ZM77.5431 24.855H76.7141H76.6066V18.1454H76.7141H77.6506V24.855H77.5431ZM81.329 19.1596V24.7468V24.855H81.2214H80.284V19.1596H78.4817V19.0513V18.1454H83.1314V18.2537V19.1596H81.329ZM86.6904 21.5002C86.6913 22.2332 86.9194 22.8208 87.3757 23.288C87.8361 23.7551 88.3861 23.9842 89.0525 23.9854C89.7184 23.9842 90.2696 23.7551 90.7289 23.288C91.186 22.8208 91.4141 22.2332 91.415 21.5002C91.4141 20.7673 91.186 20.1796 90.7289 19.7125C90.2696 19.2454 89.7184 19.0163 89.0525 19.015C88.3861 19.0163 87.8361 19.2454 87.3757 19.7125C86.9194 20.1796 86.6913 20.7673 86.6904 21.5002ZM92.4771 21.5002C92.4778 22.4733 92.1481 23.3091 91.4961 23.9829C90.8435 24.6597 90.0201 25.0009 89.0525 25C88.0845 25.0009 87.261 24.6597 86.6098 23.9829L86.6127 23.9863L86.6098 23.9833C85.9565 23.3091 85.6279 22.4733 85.6287 21.5002C85.6279 20.5271 85.9565 19.6913 86.6098 19.0171V19.0176C87.261 18.3408 88.0845 17.9988 89.0525 18C90.0154 17.9988 90.8364 18.3424 91.4918 19.0218C92.1468 19.6986 92.4778 20.5326 92.4771 21.5002ZM97.5974 22.9693L94.6021 18.1454H93.5333H93.4257V24.855H93.5333H94.3618H94.4694V20.7008L94.4433 19.7871L97.5834 24.855H98.5087H98.6162V18.1454H97.6789H97.5713V22.0548L97.5974 22.9693Z" fill="black"/>
<path d="M128.125 43.6913H130.15V30.4772H128.125V43.6913ZM146.364 35.2372L144.043 40.9662H143.974L141.565 35.2372H139.383L142.996 43.2445L140.936 47.6985H143.049L148.616 35.2372H146.364ZM134.881 42.1905C134.217 42.1905 133.292 41.8676 133.292 41.0682C133.292 40.0483 134.444 39.6573 135.438 39.6573C136.329 39.6573 136.747 39.8443 137.289 40.0996C137.131 41.3234 136.049 42.1905 134.881 42.1905ZM135.125 34.9482C133.659 34.9482 132.141 35.5774 131.512 36.9714L133.309 37.7022C133.693 36.9714 134.409 36.7332 135.16 36.7332C136.207 36.7332 137.271 37.3455 137.289 38.4335V38.5693C136.922 38.3653 136.137 38.0594 135.177 38.0594C133.24 38.0594 131.267 39.0961 131.267 41.0343C131.267 42.8024 132.856 43.9415 134.635 43.9415C135.997 43.9415 136.747 43.3465 137.219 42.6496H137.289V43.6695H139.243V38.6031C139.243 36.2575 137.446 34.9482 135.125 34.9482ZM122.61 36.8458H119.73V32.3164H122.61C124.124 32.3164 124.984 33.5372 124.984 34.581C124.984 35.6051 124.124 36.8458 122.61 36.8458ZM122.558 30.4772H117.706V43.6913H119.73V38.685H122.558C124.802 38.685 127.009 37.1023 127.009 34.581C127.009 32.0599 124.802 30.4772 122.558 30.4772ZM96.0996 42.1929C94.7007 42.1929 93.5294 41.0521 93.5294 39.4851C93.5294 37.9017 94.7007 36.7435 96.0996 36.7435C97.4808 36.7435 98.5647 37.9017 98.5647 39.4851C98.5647 41.0521 97.4808 42.1929 96.0996 42.1929ZM98.4248 35.9772H98.3548C97.9004 35.4494 97.0259 34.9726 95.9246 34.9726C93.6168 34.9726 91.5015 36.9478 91.5015 39.4851C91.5015 42.0055 93.6168 43.9639 95.9246 43.9639C97.0259 43.9639 97.9004 43.4869 98.3548 42.9423H98.4248V43.5893C98.4248 45.3096 97.4808 46.2291 95.9597 46.2291C94.7185 46.2291 93.9492 45.3603 93.6341 44.6282L91.8686 45.3434C92.3756 46.5354 93.7219 48 95.9597 48C98.3374 48 100.348 46.6374 100.348 43.3168V35.2451H98.4248V35.9772ZM101.747 43.6913H103.775V30.4768H101.747V43.6913ZM106.764 39.332C106.712 37.5948 108.145 36.7096 109.177 36.7096C109.982 36.7096 110.663 37.101 110.89 37.6634L106.764 39.332ZM113.058 37.8335C112.674 36.8285 111.502 34.9726 109.107 34.9726C106.729 34.9726 104.754 36.7947 104.754 39.4682C104.754 41.9886 106.712 43.9639 109.334 43.9639C111.45 43.9639 112.674 42.7037 113.181 41.9716L111.607 40.9496C111.083 41.6991 110.366 42.1929 109.334 42.1929C108.303 42.1929 107.569 41.733 107.096 40.8307L113.268 38.3443L113.058 37.8335ZM63.8893 36.352V38.2592H68.5747C68.4348 39.332 68.0677 40.1152 67.5081 40.6602C66.8265 41.3246 65.76 42.0567 63.8893 42.0567C61.0045 42.0567 58.7493 39.7919 58.7493 36.9821C58.7493 34.1723 61.0045 31.9072 63.8893 31.9072C65.4454 31.9072 66.5815 32.5034 67.4208 33.2697L68.8019 31.9245C67.6307 30.8344 66.0745 30 63.8893 30C59.9379 30 56.6162 33.1335 56.6162 36.9821C56.6162 40.8307 59.9379 43.9639 63.8893 43.9639C66.0224 43.9639 67.6307 43.283 68.8893 42.0055C70.1831 40.7453 70.5854 38.9744 70.5854 37.5441C70.5854 37.101 70.5505 36.6927 70.4802 36.352H63.8893ZM75.9122 42.1929C74.5133 42.1929 73.3069 41.069 73.3069 39.4682C73.3069 37.8504 74.5133 36.7435 75.9122 36.7435C77.3106 36.7435 78.5171 37.8504 78.5171 39.4682C78.5171 41.069 77.3106 42.1929 75.9122 42.1929ZM75.9122 34.9726C73.3594 34.9726 71.2788 36.8627 71.2788 39.4682C71.2788 42.0567 73.3594 43.9639 75.9122 43.9639C78.4645 43.9639 80.5451 42.0567 80.5451 39.4682C80.5451 36.8627 78.4645 34.9726 75.9122 34.9726ZM86.019 42.1929C84.6206 42.1929 83.4141 41.069 83.4141 39.4682C83.4141 37.8504 84.6206 36.7435 86.019 36.7435C87.4175 36.7435 88.6239 37.8504 88.6239 39.4682C88.6239 41.069 87.4175 42.1929 86.019 42.1929ZM86.019 34.9726C83.4663 34.9726 81.3861 36.8627 81.3861 39.4682C81.3861 42.0567 83.4663 43.9639 86.019 43.9639C88.5714 43.9639 90.652 42.0567 90.652 39.4682C90.652 36.8627 88.5714 34.9726 86.019 34.9726Z" fill="black"/>
<path d="M20.6162 19V47L34.6162 33L20.6162 19Z" fill="url(#paint0_linear)"/>
<path d="M20.6162 19V47L34.6162 33L20.6162 19Z" fill="url(#paint1_linear)"/>
<path d="M45.1007 32.0452L39.8162 29L35.6162 33L39.8162 37L45.1007 33.7484C45.41 33.5935 45.6162 33.2323 45.6162 32.871C45.6162 32.5097 45.41 32.2 45.1007 32.0452Z" fill="url(#paint2_linear)"/>
<path d="M45.1007 32.0452L39.8162 29L35.6162 33L39.8162 37L45.1007 33.7484C45.41 33.5935 45.6162 33.2323 45.6162 32.871C45.6162 32.5097 45.41 32.2 45.1007 32.0452Z" fill="url(#paint3_linear)"/>
<path d="M21.6162 47L39.2162 37.45L35.1162 33.5L21.6162 47Z" fill="url(#paint4_linear)"/>
<path d="M21.6162 47L39.2162 37.45L35.1162 33.5L21.6162 47Z" fill="url(#paint5_linear)"/>
<path d="M39.2162 28.55L33.6662 25.3L21.6162 19L35.1162 32.5L39.2162 28.55Z" fill="url(#paint6_linear)"/>
<path d="M39.2162 28.55L33.6662 25.3L21.6162 19L35.1162 32.5L39.2162 28.55Z" fill="url(#paint7_linear)"/>
<defs>
<linearGradient id="paint0_linear" x1="27.6162" y1="28.5" x2="20.6162" y2="37" gradientUnits="userSpaceOnUse">
<stop stop-color="#00E2FF"/>
<stop offset="1" stop-color="#03C6F5"/>
</linearGradient>
<linearGradient id="paint1_linear" x1="33.4263" y1="45.7588" x2="14.4787" y2="27.5978" gradientUnits="userSpaceOnUse">
<stop stop-color="#00A0FF"/>
<stop offset="0.00657445" stop-color="#00A1FF"/>
<stop offset="0.2601" stop-color="#00BEFF"/>
<stop offset="0.5122" stop-color="#00D2FF"/>
<stop offset="0.7604" stop-color="#00DFFF"/>
<stop offset="1" stop-color="#00E3FF"/>
</linearGradient>
<linearGradient id="paint2_linear" x1="40.6162" y1="29" x2="30.1162" y2="29" gradientUnits="userSpaceOnUse">
<stop stop-color="#FFEA0D"/>
<stop offset="1" stop-color="#FFCF00"/>
</linearGradient>
<linearGradient id="paint3_linear" x1="46.3752" y1="33.0695" x2="22.5698" y2="33.0695" gradientUnits="userSpaceOnUse">
<stop stop-color="#FFE000"/>
<stop offset="0.4087" stop-color="#FFBD00"/>
<stop offset="0.7754" stop-color="#FFA500"/>
<stop offset="1" stop-color="#FF9C00"/>
</linearGradient>
<linearGradient id="paint4_linear" x1="30.6162" y1="33" x2="19.1162" y2="44.5" gradientUnits="userSpaceOnUse">
<stop stop-color="#F73547"/>
<stop offset="1" stop-color="#E22652"/>
</linearGradient>
<linearGradient id="paint5_linear" x1="36.8799" y1="44.5906" x2="12.9913" y2="20.4439" gradientUnits="userSpaceOnUse">
<stop stop-color="#FF3A44"/>
<stop offset="1" stop-color="#C31162"/>
</linearGradient>
<linearGradient id="paint6_linear" x1="36.6162" y1="28.5" x2="21.6162" y2="19" gradientUnits="userSpaceOnUse">
<stop stop-color="#2EF38F"/>
<stop offset="1" stop-color="#0EDE76"/>
</linearGradient>
<linearGradient id="paint7_linear" x1="18.2142" y1="39.8109" x2="28.8818" y2="29.0452" gradientUnits="userSpaceOnUse">
<stop stop-color="#32A071"/>
<stop offset="0.0685" stop-color="#2DA771"/>
<stop offset="0.4762" stop-color="#15CF74"/>
<stop offset="0.8009" stop-color="#06E775"/>
<stop offset="1" stop-color="#00F076"/>
</linearGradient>
</defs>
</svg>
