<svg width="448" height="254" viewBox="0 0 448 254" fill="none" xmlns="http://www.w3.org/2000/svg">
<path d="M222.431 253.553C332.682 253.553 422.058 251.414 422.058 248.776C422.058 246.138 332.682 244 222.431 244C112.179 244 22.8027 246.138 22.8027 248.776C22.8027 251.414 112.179 253.553 222.431 253.553Z" fill="#EFEFEF"/>
<path d="M307.495 16.4962V188.5H6.5V16.4962C6.5 12.5941 9.59981 9.5 13.5052 9.5H300.495C304.315 9.5 307.358 12.4541 307.495 16.23V16.4962Z" fill="#AAAAAA" stroke="#333333"/>
<path d="M12.5 182.5V15.5H301.5V182.5H12.5Z" fill="white" stroke="#333333"/>
<path d="M194 248.5H194.561L194.497 247.943L190.831 215.943L190.78 215.5H190.334H122.4H121.964L121.905 215.932L117.505 247.932L117.427 248.5H118H194Z" fill="#CCCCCC" stroke="#333333"/>
<path d="M6.5 208.442V188.5H307.5V208.442C307.5 212.382 304.396 215.5 300.495 215.5H13.5054C9.59909 215.5 6.5 212.383 6.5 208.442Z" fill="#E2E2E2" stroke="#333333"/>
<path d="M107.333 251.5L117.106 248.5H194.894L204.667 251.5H107.333Z" fill="#E2E2E2" stroke="#333333"/>
<path d="M207.281 252.5L206.909 253.5H104.986L104.677 252.5H207.281Z" fill="#AAAAAA" stroke="#333333"/>
<path d="M162.5 201.497C162.5 204.26 160.259 206.5 157.5 206.5C154.741 206.5 152.5 204.26 152.5 201.497C152.5 198.74 154.74 196.5 157.5 196.5C160.26 196.5 162.5 198.735 162.5 201.497Z" fill="#AAAAAA" stroke="#333333"/>
<path d="M60.973 43.5455C60.973 44.7351 60.7475 45.7472 60.2965 46.5817C59.8491 47.4162 59.2383 48.0536 58.4641 48.494C57.6935 48.9308 56.8271 49.1491 55.8647 49.1491C54.8952 49.1491 54.0252 48.929 53.2546 48.4886C52.484 48.0483 51.875 47.4109 51.4276 46.5763C50.9801 45.7418 50.7564 44.7315 50.7564 43.5455C50.7564 42.3558 50.9801 41.3438 51.4276 40.5092C51.875 39.6747 52.484 39.0391 53.2546 38.6023C54.0252 38.1619 54.8952 37.9418 55.8647 37.9418C56.8271 37.9418 57.6935 38.1619 58.4641 38.6023C59.2383 39.0391 59.8491 39.6747 60.2965 40.5092C60.7475 41.3438 60.973 42.3558 60.973 43.5455ZM58.6346 43.5455C58.6346 42.7749 58.5192 42.125 58.2884 41.5959C58.0611 41.0668 57.7397 40.6655 57.3242 40.392C56.9087 40.1186 56.4222 39.9819 55.8647 39.9819C55.3072 39.9819 54.8207 40.1186 54.4052 40.392C53.9897 40.6655 53.6665 41.0668 53.4357 41.5959C53.2085 42.125 53.0948 42.7749 53.0948 43.5455C53.0948 44.3161 53.2085 44.9659 53.4357 45.495C53.6665 46.0241 53.9897 46.4254 54.4052 46.6989C54.8207 46.9723 55.3072 47.109 55.8647 47.109C56.4222 47.109 56.9087 46.9723 57.3242 46.6989C57.7397 46.4254 58.0611 46.0241 58.2884 45.495C58.5192 44.9659 58.6346 44.3161 58.6346 43.5455ZM71.8062 38.0909V49H69.814L65.0679 42.1339H64.988V49H62.6816V38.0909H64.7057L69.4145 44.9517H69.5104V38.0909H71.8062ZM73.7118 49V38.0909H76.0183V47.0984H80.6951V49H73.7118ZM80.1918 38.0909H82.7752L85.2628 42.7891H85.3693L87.8569 38.0909H90.4403L86.4613 45.1435V49H84.1708V45.1435L80.1918 38.0909ZM101.066 43.5455C101.066 44.7351 100.84 45.7472 100.389 46.5817C99.9419 47.4162 99.3311 48.0536 98.5569 48.494C97.7863 48.9308 96.9198 49.1491 95.9575 49.1491C94.988 49.1491 94.118 48.929 93.3474 48.4886C92.5768 48.0483 91.9678 47.4109 91.5203 46.5763C91.0729 45.7418 90.8492 44.7315 90.8492 43.5455C90.8492 42.3558 91.0729 41.3438 91.5203 40.5092C91.9678 39.6747 92.5768 39.0391 93.3474 38.6023C94.118 38.1619 94.988 37.9418 95.9575 37.9418C96.9198 37.9418 97.7863 38.1619 98.5569 38.6023C99.3311 39.0391 99.9419 39.6747 100.389 40.5092C100.84 41.3438 101.066 42.3558 101.066 43.5455ZM98.7274 43.5455C98.7274 42.7749 98.6119 42.125 98.3811 41.5959C98.1539 41.0668 97.8325 40.6655 97.417 40.392C97.0015 40.1186 96.515 39.9819 95.9575 39.9819C95.3999 39.9819 94.9134 40.1186 94.498 40.392C94.0825 40.6655 93.7593 41.0668 93.5285 41.5959C93.3012 42.125 93.1876 42.7749 93.1876 43.5455C93.1876 44.3161 93.3012 44.9659 93.5285 45.495C93.7593 46.0241 94.0825 46.4254 94.498 46.6989C94.9134 46.9723 95.3999 47.109 95.9575 47.109C96.515 47.109 97.0015 46.9723 97.417 46.6989C97.8325 46.4254 98.1539 46.0241 98.3811 45.495C98.6119 44.9659 98.7274 44.3161 98.7274 43.5455ZM102.774 49V38.0909H109.997V39.9925H105.081V42.592H109.518V44.4936H105.081V49H102.774ZM111.549 49V38.0909H118.772V39.9925H113.855V42.592H118.292V44.4936H113.855V49H111.549ZM122.63 38.0909V49H120.323V38.0909H122.63ZM134.153 41.9102H131.82C131.777 41.6083 131.69 41.3402 131.559 41.1058C131.427 40.8679 131.258 40.6655 131.052 40.4986C130.847 40.3317 130.609 40.2038 130.339 40.1151C130.072 40.0263 129.783 39.9819 129.47 39.9819C128.906 39.9819 128.414 40.1222 127.995 40.4027C127.576 40.6797 127.251 41.0845 127.02 41.6172C126.789 42.1463 126.674 42.7891 126.674 43.5455C126.674 44.3232 126.789 44.9766 127.02 45.5057C127.255 46.0348 127.581 46.4343 128 46.7042C128.419 46.9741 128.904 47.109 129.454 47.109C129.763 47.109 130.049 47.0682 130.312 46.9865C130.578 46.9048 130.815 46.7859 131.021 46.6296C131.226 46.4698 131.397 46.2763 131.532 46.049C131.67 45.8217 131.766 45.5625 131.82 45.2713L134.153 45.282C134.092 45.7827 133.941 46.2656 133.7 46.7308C133.462 47.1925 133.141 47.6062 132.736 47.9719C132.334 48.3342 131.855 48.6218 131.297 48.8349C130.744 49.0444 130.117 49.1491 129.417 49.1491C128.444 49.1491 127.574 48.929 126.807 48.4886C126.044 48.0483 125.44 47.4109 124.996 46.5763C124.556 45.7418 124.335 44.7315 124.335 43.5455C124.335 42.3558 124.559 41.3438 125.007 40.5092C125.454 39.6747 126.061 39.0391 126.828 38.6023C127.595 38.1619 128.458 37.9418 129.417 37.9418C130.049 37.9418 130.635 38.0305 131.175 38.2081C131.718 38.3857 132.199 38.6449 132.619 38.9858C133.038 39.3232 133.378 39.7369 133.641 40.2269C133.908 40.717 134.078 41.2781 134.153 41.9102ZM135.807 49V38.0909H143.157V39.9925H138.113V42.592H142.779V44.4936H138.113V47.0984H143.179V49H135.807Z" fill="#192435"/>
<rect x="26" y="146" width="82" height="24" rx="2" fill="#15803D"/>
<path d="M42.4929 155.783C42.4588 155.439 42.3125 155.172 42.054 154.982C41.7955 154.791 41.4446 154.696 41.0014 154.696C40.7003 154.696 40.446 154.739 40.2386 154.824C40.0313 154.906 39.8722 155.021 39.7614 155.169C39.6534 155.317 39.5994 155.484 39.5994 155.672C39.5938 155.828 39.6264 155.964 39.6974 156.081C39.7713 156.197 39.8722 156.298 40 156.384C40.1278 156.466 40.2756 156.538 40.4432 156.601C40.6108 156.661 40.7898 156.712 40.9801 156.754L41.7642 156.942C42.1449 157.027 42.4943 157.141 42.8125 157.283C43.1307 157.425 43.4063 157.599 43.6392 157.807C43.8722 158.014 44.0526 158.259 44.1804 158.54C44.3111 158.821 44.3778 159.143 44.3807 159.507C44.3778 160.041 44.2415 160.504 43.9716 160.896C43.7045 161.286 43.3182 161.588 42.8125 161.804C42.3097 162.017 41.7031 162.124 40.9929 162.124C40.2884 162.124 39.6747 162.016 39.152 161.8C38.6321 161.584 38.2259 161.264 37.9332 160.841C37.6435 160.415 37.4915 159.888 37.4773 159.26H39.2628C39.2827 159.553 39.3665 159.797 39.5142 159.993C39.6648 160.186 39.8651 160.332 40.1151 160.432C40.3679 160.528 40.6534 160.577 40.9716 160.577C41.2841 160.577 41.5554 160.531 41.7855 160.44C42.0185 160.349 42.1989 160.223 42.3267 160.061C42.4545 159.899 42.5185 159.713 42.5185 159.503C42.5185 159.307 42.4602 159.142 42.3438 159.009C42.2301 158.875 42.0625 158.761 41.8409 158.668C41.6222 158.574 41.3537 158.489 41.0355 158.412L40.0852 158.173C39.3494 157.994 38.7685 157.714 38.3423 157.334C37.9162 156.953 37.7045 156.44 37.7074 155.795C37.7045 155.267 37.8452 154.805 38.1293 154.411C38.4162 154.016 38.8097 153.707 39.3097 153.486C39.8097 153.264 40.3778 153.153 41.0142 153.153C41.6619 153.153 42.2273 153.264 42.7102 153.486C43.196 153.707 43.5739 154.016 43.8438 154.411C44.1136 154.805 44.2528 155.263 44.2614 155.783H42.4929ZM45.5877 164.455V155.455H47.3775V156.554H47.4585C47.538 156.378 47.6531 156.199 47.8036 156.017C47.957 155.832 48.1559 155.679 48.4002 155.557C48.6474 155.432 48.9542 155.369 49.3207 155.369C49.7979 155.369 50.2383 155.494 50.6417 155.744C51.0451 155.991 51.3675 156.365 51.609 156.865C51.8505 157.362 51.9712 157.986 51.9712 158.736C51.9712 159.466 51.8533 160.082 51.6175 160.585C51.3846 161.085 51.0664 161.464 50.663 161.723C50.2624 161.979 49.8136 162.107 49.3164 162.107C48.9641 162.107 48.6644 162.048 48.4173 161.932C48.1729 161.815 47.9727 161.669 47.8164 161.493C47.6602 161.314 47.5408 161.134 47.4585 160.952H47.4031V164.455H45.5877ZM47.3647 158.727C47.3647 159.116 47.4187 159.456 47.5266 159.746C47.6346 160.036 47.7908 160.261 47.9954 160.423C48.1999 160.582 48.4485 160.662 48.7411 160.662C49.0366 160.662 49.2866 160.581 49.4911 160.419C49.6957 160.254 49.8505 160.027 49.9556 159.737C50.0636 159.445 50.1175 159.108 50.1175 158.727C50.1175 158.349 50.065 158.017 49.9599 157.73C49.8548 157.443 49.6999 157.219 49.4954 157.057C49.2908 156.895 49.0394 156.814 48.7411 156.814C48.4457 156.814 48.1957 156.892 47.9911 157.048C47.7894 157.205 47.6346 157.426 47.5266 157.713C47.4187 158 47.3647 158.338 47.3647 158.727ZM56.1644 162.128C55.4911 162.128 54.9116 161.991 54.4258 161.719C53.9428 161.443 53.5707 161.054 53.3093 160.551C53.0479 160.045 52.9173 159.447 52.9173 158.757C52.9173 158.084 53.0479 157.493 53.3093 156.984C53.5707 156.476 53.9386 156.08 54.413 155.795C54.8903 155.511 55.4499 155.369 56.092 155.369C56.5238 155.369 56.9258 155.439 57.2979 155.578C57.6729 155.714 57.9996 155.92 58.2781 156.196C58.5593 156.472 58.7781 156.818 58.9343 157.236C59.0906 157.651 59.1687 158.136 59.1687 158.693V159.192H53.6417V158.067H57.4599C57.4599 157.805 57.4031 157.574 57.2894 157.372C57.1758 157.17 57.0181 157.013 56.8164 156.899C56.6175 156.783 56.386 156.724 56.1218 156.724C55.8462 156.724 55.6019 156.788 55.3888 156.916C55.1786 157.041 55.0138 157.21 54.8945 157.423C54.7752 157.634 54.7141 157.868 54.7113 158.126V159.196C54.7113 159.52 54.771 159.8 54.8903 160.036C55.0124 160.271 55.1843 160.453 55.4059 160.581C55.6275 160.709 55.8903 160.773 56.1942 160.773C56.396 160.773 56.5806 160.744 56.7482 160.688C56.9158 160.631 57.0593 160.545 57.1786 160.432C57.2979 160.318 57.3888 160.179 57.4513 160.014L59.1303 160.125C59.0451 160.528 58.8704 160.881 58.6062 161.182C58.3448 161.48 58.0067 161.713 57.592 161.881C57.18 162.045 56.7042 162.128 56.1644 162.128ZM60.3533 162V155.455H62.1687V162H60.3533ZM61.2653 154.611C60.9954 154.611 60.7638 154.521 60.5707 154.342C60.3803 154.161 60.2852 153.943 60.2852 153.69C60.2852 153.44 60.3803 153.226 60.5707 153.047C60.7638 152.865 60.9954 152.774 61.2653 152.774C61.5352 152.774 61.7653 152.865 61.9556 153.047C62.1488 153.226 62.2454 153.44 62.2454 153.69C62.2454 153.943 62.1488 154.161 61.9556 154.342C61.7653 154.521 61.5352 154.611 61.2653 154.611ZM66.5803 162.128C65.9098 162.128 65.3331 161.986 64.8501 161.702C64.37 161.415 64.0007 161.017 63.7422 160.509C63.4865 160 63.3587 159.415 63.3587 158.753C63.3587 158.082 63.4879 157.494 63.7464 156.989C64.0078 156.48 64.3786 156.084 64.8587 155.8C65.3388 155.513 65.9098 155.369 66.5717 155.369C67.1428 155.369 67.6428 155.473 68.0717 155.68C68.5007 155.888 68.8402 156.179 69.0902 156.554C69.3402 156.929 69.478 157.369 69.5036 157.875H67.7905C67.7422 157.548 67.6143 157.286 67.407 157.087C67.2024 156.885 66.9339 156.784 66.6016 156.784C66.3203 156.784 66.0746 156.861 65.8643 157.014C65.657 157.165 65.495 157.385 65.3786 157.675C65.2621 157.964 65.2038 158.315 65.2038 158.727C65.2038 159.145 65.2607 159.5 65.3743 159.793C65.4908 160.085 65.6541 160.308 65.8643 160.462C66.0746 160.615 66.3203 160.692 66.6016 160.692C66.8089 160.692 66.995 160.649 67.1598 160.564C67.3274 160.479 67.4652 160.355 67.5732 160.193C67.6839 160.028 67.7564 159.831 67.7905 159.601H69.5036C69.4751 160.101 69.3388 160.541 69.0945 160.922C68.853 161.3 68.5192 161.595 68.093 161.808C67.6669 162.021 67.1626 162.128 66.5803 162.128ZM72.4812 158.216V162H70.6658V153.273H72.43V156.609H72.5067C72.6545 156.223 72.8931 155.92 73.2227 155.702C73.5522 155.48 73.9656 155.369 74.4627 155.369C74.9173 155.369 75.3136 155.469 75.6516 155.668C75.9925 155.864 76.2567 156.146 76.4442 156.516C76.6346 156.882 76.7283 157.321 76.7255 157.832V162H74.9102V158.156C74.913 157.753 74.8107 157.439 74.6033 157.214C74.3988 156.99 74.1119 156.878 73.7425 156.878C73.4954 156.878 73.2766 156.93 73.0863 157.036C72.8988 157.141 72.7511 157.294 72.6431 157.496C72.538 157.695 72.484 157.935 72.4812 158.216ZM81.1371 162.128C80.4638 162.128 79.8842 161.991 79.3984 161.719C78.9155 161.443 78.5433 161.054 78.282 160.551C78.0206 160.045 77.8899 159.447 77.8899 158.757C77.8899 158.084 78.0206 157.493 78.282 156.984C78.5433 156.476 78.9112 156.08 79.3857 155.795C79.8629 155.511 80.4226 155.369 81.0646 155.369C81.4964 155.369 81.8984 155.439 82.2706 155.578C82.6456 155.714 82.9723 155.92 83.2507 156.196C83.532 156.472 83.7507 156.818 83.907 157.236C84.0632 157.651 84.1413 158.136 84.1413 158.693V159.192H78.6143V158.067H82.4325C82.4325 157.805 82.3757 157.574 82.2621 157.372C82.1484 157.17 81.9908 157.013 81.7891 156.899C81.5902 156.783 81.3587 156.724 81.0945 156.724C80.8189 156.724 80.5746 156.788 80.3615 156.916C80.1513 157.041 79.9865 157.21 79.8672 157.423C79.7479 157.634 79.6868 157.868 79.6839 158.126V159.196C79.6839 159.52 79.7436 159.8 79.8629 160.036C79.9851 160.271 80.157 160.453 80.3786 160.581C80.6001 160.709 80.8629 160.773 81.1669 160.773C81.3686 160.773 81.5533 160.744 81.7209 160.688C81.8885 160.631 82.032 160.545 82.1513 160.432C82.2706 160.318 82.3615 160.179 82.424 160.014L84.103 160.125C84.0178 160.528 83.843 160.881 83.5788 161.182C83.3175 161.48 82.9794 161.713 82.5646 161.881C82.1527 162.045 81.6768 162.128 81.1371 162.128ZM85.326 162V155.455H87.0859V156.597H87.1541C87.2734 156.19 87.4737 155.884 87.755 155.676C88.0362 155.466 88.3601 155.361 88.7266 155.361C88.8175 155.361 88.9155 155.366 89.0206 155.378C89.1257 155.389 89.218 155.405 89.2976 155.425V157.036C89.2124 157.01 89.0945 156.987 88.9439 156.967C88.7933 156.947 88.6555 156.938 88.5305 156.938C88.2635 156.938 88.0249 156.996 87.8146 157.112C87.6072 157.226 87.4425 157.385 87.3203 157.589C87.201 157.794 87.1413 158.03 87.1413 158.297V162H85.326ZM92.0515 158.216V162H90.2362V155.455H91.9663V156.609H92.043C92.1879 156.229 92.4308 155.928 92.7717 155.706C93.1126 155.482 93.5259 155.369 94.0117 155.369C94.4663 155.369 94.8626 155.469 95.2006 155.668C95.5387 155.866 95.8015 156.151 95.989 156.52C96.1765 156.886 96.2702 157.324 96.2702 157.832V162H94.4549V158.156C94.4577 157.756 94.3555 157.443 94.1481 157.219C93.9407 156.991 93.6552 156.878 93.2915 156.878C93.0472 156.878 92.8313 156.93 92.6438 157.036C92.4592 157.141 92.3143 157.294 92.2092 157.496C92.1069 157.695 92.0543 157.935 92.0515 158.216Z" fill="white"/>
<path fill-rule="evenodd" clip-rule="evenodd" d="M358.579 47.113C358.238 48.9467 357.59 51.5149 356.442 52.1438C355.664 52.5758 354.472 51.8894 352.652 48.8747C354.477 48.7835 356.427 48.2459 358.161 47.3386C358.301 47.2666 358.44 47.1898 358.579 47.113ZM350.034 48.6683C349.16 49.7148 348.377 50.4252 347.695 50.8909C346.681 51.5773 345.985 51.6829 345.595 51.5485C345.264 51.4285 345.096 50.8669 345.033 50.1612C344.918 48.9179 345.154 47.3674 345.341 46.5033C345.701 46.4553 346.076 46.4073 346.455 46.3689L346.647 46.6377C347.454 47.689 348.646 48.3515 350.034 48.6683Z" fill="#CCCCCC"/>
<path fill-rule="evenodd" clip-rule="evenodd" d="M346.506 46.2551L346.734 46.5734C347.522 47.5995 348.688 48.2505 350.057 48.563L350.229 48.6022L350.116 48.7375C349.237 49.7896 348.447 50.5075 347.755 50.9801C346.734 51.6718 345.999 51.8022 345.56 51.6506L345.558 51.6501C345.347 51.5735 345.207 51.3647 345.112 51.1124C345.016 50.8558 344.957 50.5281 344.925 50.1709C344.809 48.9113 345.047 47.3482 345.235 46.4804L345.251 46.4063L345.326 46.3962C345.687 46.3482 346.063 46.3 346.444 46.2614L346.506 46.2551ZM345.43 46.6003C345.247 47.4727 345.03 48.9588 345.141 50.1512C345.171 50.4996 345.228 50.806 345.314 51.0366C345.402 51.2711 345.511 51.403 345.631 51.4467C345.97 51.5635 346.628 51.4821 347.633 50.8016C348.276 50.3628 349.014 49.7004 349.838 48.7325C348.504 48.3968 347.353 47.7352 346.561 46.7035L346.559 46.7005L346.403 46.4827C346.073 46.5171 345.747 46.5584 345.43 46.6003ZM358.727 46.908L358.685 47.1327C358.514 48.0517 358.265 49.1591 357.914 50.1174C357.738 50.5965 357.536 51.0416 357.303 51.4082C357.07 51.7739 356.803 52.069 356.493 52.2385C356.05 52.4844 355.509 52.3939 354.87 51.8863C354.232 51.3797 353.471 50.4412 352.559 48.9305L352.465 48.7758L352.646 48.7668C354.455 48.6764 356.39 48.1433 358.111 47.2429C358.249 47.1716 358.387 47.0953 358.527 47.0184L358.727 46.908ZM358.43 47.3178C358.357 47.3574 358.284 47.3965 358.211 47.4344C356.52 48.3187 354.626 48.8548 352.837 48.9721C353.703 50.3852 354.418 51.2515 355.004 51.7172C355.61 52.1983 356.054 52.2351 356.389 52.0493C356.654 51.9044 356.898 51.6424 357.121 51.2923C357.342 50.9433 357.539 50.5137 357.711 50.043C358.029 49.1775 358.262 48.1833 358.43 47.3178Z" fill="#CCCCCC"/>
<path fill-rule="evenodd" clip-rule="evenodd" d="M358.647 23.6391C358.685 21.8245 358.618 20.3076 358.469 19.0451C358.282 17.5042 357.96 16.3185 357.537 15.4208C357.225 14.7584 356.754 14.1199 356.183 13.6063C355.64 13.1118 354.996 12.7182 354.304 12.507C353.44 12.2429 352.599 12.2958 351.783 12.5454C351.019 12.7758 350.289 13.179 349.573 13.6495C349.218 13.8799 348.91 14.1007 348.617 14.3119C347.402 15.1808 346.432 15.8768 344.688 15.4064C344.568 15.3728 344.452 15.3152 344.356 15.2336C344.217 15.1136 344.107 14.9504 344.049 14.7584C343.987 14.5519 343.982 14.3119 344.054 14.0431C344.126 13.7647 344.289 13.4622 344.553 13.1502L344.587 13.1022C344.683 12.9678 344.803 12.8334 344.942 12.699C346.115 11.5565 348.454 10.6732 351.115 10.4908C353.795 10.3084 356.773 10.8604 359.175 12.5982C359.636 12.9294 360.073 13.3038 360.487 13.7311C361.462 14.7344 362.211 16.1313 362.6 18.0322C362.936 19.6788 363.004 21.6997 362.715 24.1671C362.581 23.9223 362.417 23.7063 362.225 23.5239C361.855 23.1782 361.385 22.967 360.828 22.9382C360.208 22.9046 359.473 23.111 358.647 23.6391Z" fill="#666666"/>
<path fill-rule="evenodd" clip-rule="evenodd" d="M359.111 12.6857C356.735 10.9664 353.784 10.4174 351.122 10.5986C348.474 10.7801 346.164 11.6587 345.017 12.7763C344.882 12.9074 344.766 13.0371 344.675 13.1646L344.636 13.2203C344.379 13.5234 344.225 13.8113 344.158 14.0702C344.09 14.3219 344.096 14.5422 344.152 14.7271C344.204 14.8987 344.302 15.0446 344.426 15.1516C344.509 15.2217 344.61 15.2724 344.716 15.3023C345.567 15.5319 346.223 15.4757 346.813 15.26C347.409 15.0422 347.943 14.6605 348.554 14.2242C348.847 14.0131 349.156 13.7909 349.514 13.559C350.233 13.0863 350.973 12.6768 351.751 12.442C352.584 12.1874 353.447 12.1323 354.336 12.4037C355.045 12.6203 355.702 13.0228 356.255 13.5262C356.837 14.0494 357.316 14.6994 357.634 15.3748C358.064 16.286 358.388 17.4837 358.576 19.0321C358.72 20.2543 358.788 21.7121 358.758 23.4432C359.53 22.9835 360.229 22.7976 360.833 22.8304C361.416 22.8606 361.91 23.0822 362.299 23.445C362.425 23.5651 362.54 23.6995 362.642 23.8454C362.889 21.5265 362.813 19.6175 362.494 18.0539C362.108 16.17 361.367 14.7927 360.409 13.8064C360 13.3839 359.567 13.0132 359.111 12.6857ZM359.238 12.5106C356.811 10.7545 353.806 10.1994 351.107 10.3831C348.433 10.5664 346.064 11.4542 344.867 12.6215C344.724 12.7591 344.6 12.8984 344.499 13.0394L344.467 13.0843C344.198 13.4038 344.026 13.7189 343.949 14.0156C343.872 14.3013 343.876 14.5618 343.945 14.7895C344.009 15.0018 344.131 15.1824 344.286 15.3154C344.395 15.4083 344.525 15.4731 344.658 15.5104L344.659 15.5107C345.552 15.7514 346.253 15.6947 346.887 15.4629C347.512 15.2346 348.067 14.8376 348.667 14.4084L348.68 14.3998C348.973 14.1886 349.278 13.9689 349.631 13.7401C350.343 13.2721 351.064 12.8749 351.813 12.6488C352.613 12.4042 353.432 12.3537 354.272 12.6103C354.947 12.8161 355.577 13.2007 356.109 13.6861C356.67 14.1902 357.133 14.8174 357.439 15.4668C357.855 16.351 358.175 17.5246 358.361 19.058C358.51 20.3144 358.577 21.8261 358.538 23.6368L358.534 23.839L358.705 23.7301C359.518 23.2104 360.23 23.014 360.821 23.0461C361.353 23.0736 361.8 23.2743 362.151 23.6025C362.334 23.7765 362.491 23.9833 362.62 24.2192L362.783 24.5153L362.822 24.1797C363.111 21.704 363.045 19.6711 362.705 18.0106C362.313 16.0928 361.555 14.6763 360.564 13.656C360.146 13.2241 359.704 12.8454 359.238 12.5106Z" fill="#666666"/>
<path fill-rule="evenodd" clip-rule="evenodd" d="M342.944 14.3839C342.079 15.3536 341.373 16.5969 340.84 18.0226C339.682 21.1333 339.341 25.1368 339.975 28.9627C340.614 32.8222 342.247 36.5281 345.019 39.0051C346.095 39.9652 347.344 40.7429 348.77 41.2757C348.982 41.3573 352.128 42.2406 355.865 39.0291C357.709 37.4402 359.741 34.8336 361.677 30.5949L360.351 29.99C358.516 34.0127 356.624 36.4561 354.919 37.9203C351.792 40.6085 349.433 39.9652 349.279 39.9076C348.03 39.4468 346.94 38.7651 345.999 37.9203C343.491 35.6785 342.012 32.2846 341.421 28.7275C340.825 25.1416 341.138 21.4069 342.209 18.5315C342.679 17.2737 343.289 16.1841 344.034 15.3536L342.944 14.3839Z" fill="#333333"/>
<path fill-rule="evenodd" clip-rule="evenodd" d="M358.613 24.6759C358.704 22.3909 358.646 20.538 358.464 19.045C358.276 17.5041 357.955 16.3184 357.532 15.4207C357.22 14.7583 356.749 14.1198 356.177 13.6062C355.635 13.1118 354.991 12.7181 354.299 12.5069C353.435 12.2429 352.594 12.2957 351.777 12.5453C351.014 12.7757 350.283 13.179 349.568 13.6494C349.212 13.8798 348.905 14.1006 348.612 14.3119C347.397 15.1807 346.426 15.8768 344.683 15.4063C344.562 15.3727 344.447 15.3151 344.351 15.2335C344.212 15.1135 344.101 14.9503 344.044 14.7583C343.981 14.5519 343.976 14.3119 344.049 14.043C344.121 13.7646 344.284 13.4622 344.548 13.1502L344.582 13.1022C344.678 12.9677 344.798 12.8333 344.937 12.6989C346.109 11.5564 348.449 10.6732 351.11 10.4907C353.79 10.3083 356.768 10.8604 359.17 12.5981C359.631 12.9293 360.068 13.3038 360.481 13.731C361.456 14.7343 362.206 16.1312 362.595 18.0322C362.955 19.8035 363.003 22.0021 362.643 24.7239L362.59 25.1367C362.407 26.5625 362.292 27.4505 361.413 28.6698C361.288 28.8427 361.144 29.0299 360.976 29.2315C360.832 29.4091 360.664 29.6011 360.472 29.8027L360.64 30.4076L361.538 30.7964C361.725 30.5948 361.913 30.3836 362.095 30.158C362.263 29.9563 362.427 29.7451 362.59 29.5195C363.68 28.0026 363.815 26.9753 364.031 25.324L364.084 24.9111C364.468 22.0213 364.41 19.6595 364.017 17.7393C363.57 15.5408 362.681 13.9038 361.519 12.7133C361.048 12.2285 360.544 11.8013 360.015 11.4172C357.306 9.45386 353.982 8.83461 350.999 9.03622C347.997 9.23784 345.307 10.2891 343.904 11.6524C343.722 11.8301 343.559 12.0173 343.414 12.2093C343.001 12.6941 342.747 13.1886 342.622 13.6638C342.478 14.2062 342.497 14.7247 342.636 15.1807C342.78 15.6512 343.049 16.0496 343.395 16.3424C343.659 16.5632 343.967 16.7265 344.293 16.8177C346.705 17.4657 347.92 16.592 349.452 15.4976C349.745 15.2911 350.048 15.0703 350.355 14.8687C350.966 14.4655 351.58 14.1246 352.19 13.9374C352.748 13.7694 353.305 13.731 353.862 13.899C354.333 14.043 354.784 14.3215 355.178 14.6815C355.606 15.0703 355.961 15.5504 356.197 16.04C356.557 16.7985 356.831 17.8353 356.999 19.2131C357.157 20.5332 357.22 22.1461 357.157 24.1095L357.527 24.6279L358.613 24.6759Z" fill="#333333"/>
<path fill-rule="evenodd" clip-rule="evenodd" d="M358.291 25.1272C359.314 24.2247 360.15 23.8743 360.784 23.9031C361.101 23.9175 361.36 24.0375 361.567 24.2247C361.788 24.4311 361.946 24.724 362.042 25.0744C362.297 25.9865 362.105 27.2394 361.384 28.3675C361.202 28.6555 360.894 28.9771 360.52 29.2363C360.337 29.3611 360.14 29.4667 359.939 29.5436C359.175 29.8268 359.554 30.6668 360.015 30.542C360.395 30.4364 360.755 30.2588 361.072 30.0428C361.557 29.7116 361.961 29.2795 362.206 28.8955C363.08 27.5274 363.301 25.9769 362.984 24.82C362.84 24.2967 362.585 23.8455 362.23 23.5191C361.86 23.1734 361.389 22.9622 360.832 22.9334C359.953 22.8902 358.848 23.3222 357.58 24.4551C357.129 24.8632 357.676 25.6696 358.291 25.1272Z" fill="#333333"/>
<path fill-rule="evenodd" clip-rule="evenodd" d="M360.044 25.6072C360.188 25.5784 360.313 25.5784 360.419 25.6024C360.539 25.6312 360.635 25.6984 360.693 25.7896C360.76 25.9 360.798 26.0488 360.798 26.2216C360.798 26.5817 360.649 27.0425 360.342 27.5177C360.236 27.681 360.063 27.8682 359.847 28.0122C359.766 28.0698 359.674 28.1226 359.578 28.161C359.064 28.3818 359.232 28.7994 359.646 28.6554C359.814 28.5978 359.977 28.5114 360.121 28.4154C360.39 28.233 360.616 27.993 360.75 27.7818C361.106 27.2249 361.284 26.6729 361.284 26.2216C361.284 25.9528 361.221 25.7128 361.101 25.5256C360.971 25.324 360.779 25.1848 360.525 25.1271C360.376 25.0935 360.203 25.0887 360.006 25.1175C359.367 25.2232 359.439 25.7272 360.044 25.6072Z" fill="#333333"/>
<path fill-rule="evenodd" clip-rule="evenodd" d="M359.544 46.0809L359.006 35.1696L357.546 35.2368L358.089 46.1481L359.544 46.0809Z" fill="#333333"/>
<path fill-rule="evenodd" clip-rule="evenodd" d="M347.766 46.0233L348.563 40.1716L347.118 39.9748L346.315 45.8265L347.766 46.0233Z" fill="#333333"/>
<path fill-rule="evenodd" clip-rule="evenodd" d="M358.843 45.4857L358.828 45.5673C358.631 46.9018 357.988 51.2941 356.441 52.1438C355.576 52.6238 354.203 51.7262 352.022 47.7802L350.739 48.4811C353.453 53.3967 355.557 54.2992 357.142 53.4207C359.328 52.2158 360.053 47.2714 360.274 45.7737L360.289 45.6921L358.843 45.4857Z" fill="#333333"/>
<path fill-rule="evenodd" clip-rule="evenodd" d="M344.044 45.6537C343.847 46.3641 343.415 48.5723 343.578 50.2957C343.693 51.5294 344.121 52.571 345.11 52.9215C345.86 53.1855 347.046 53.0943 348.516 52.0958C349.506 51.419 350.673 50.3101 351.965 48.5675L350.793 47.6987C349.606 49.2924 348.564 50.2957 347.69 50.8909C346.676 51.5774 345.98 51.683 345.591 51.5486C345.259 51.4286 345.091 50.8669 345.029 50.1613C344.885 48.6443 345.274 46.681 345.447 46.0473L344.044 45.6537Z" fill="#333333"/>
<path fill-rule="evenodd" clip-rule="evenodd" d="M349.274 28.9867C346.887 29.9324 346.046 28.8235 346.08 27.7914C346.118 26.3993 347.425 26.6777 347.161 24.4215C348.294 26.0104 345.739 27.7722 347.266 28.6026C347.593 28.7803 348.112 28.9627 349.274 28.9867Z" fill="#333333"/>
<path fill-rule="evenodd" clip-rule="evenodd" d="M347.997 32.3422C350.788 34.5936 351.801 30.5996 352.291 29.9852C352.152 34.944 348.348 34.5984 347.997 32.3422Z" fill="#333333"/>
<path fill-rule="evenodd" clip-rule="evenodd" d="M350.178 23.6006C351.662 20.0915 355.601 22.0933 355.615 23.9703C355.428 23.7639 354.602 23.2694 354.131 23.2118C353.968 25.3 351.47 25.7368 350.797 23.5094C350.533 23.495 350.375 23.4806 350.178 23.6006Z" fill="#333333"/>
<path fill-rule="evenodd" clip-rule="evenodd" d="M341.686 23.4518C343.035 19.8899 347.051 21.7429 347.138 23.6198C346.941 23.423 346.1 22.9574 345.624 22.919C345.543 25.012 343.059 25.54 342.305 23.3414C342.036 23.3318 341.878 23.327 341.686 23.4518Z" fill="#333333"/>
<path fill-rule="evenodd" clip-rule="evenodd" d="M308.555 46.4502C307.767 42.9508 307.969 40.9379 308.267 39.4594L308.31 39.2529C308.401 38.7921 308.541 38.2785 308.67 37.7888C308.935 36.7903 309.175 35.8879 309.06 35.2302C308.915 34.3997 308.435 33.9725 307.383 34.1549C305.678 34.4477 304.861 36.0271 304.174 37.3472C303.809 38.0528 303.502 38.6433 303.411 38.6289C303.315 38.5953 303.219 38.5521 303.122 38.4993C303.017 38.4417 302.911 38.3649 302.796 38.2833C302.594 38.1344 302.263 37.8416 301.854 37.4864C299.544 35.451 295.005 31.4523 291.849 34.1213C290.974 34.8606 290.513 36.3007 290.998 38.2929C291.354 39.7426 292.219 41.5331 293.818 43.5925C293.881 43.6693 294.15 43.9669 294.721 44.3942C295.029 44.6198 295.437 44.8982 295.98 45.2198C296.537 45.5511 297.2 45.7959 297.997 46.0935C299.193 46.5399 300.721 47.1064 302.508 48.2009L303.719 47.0936C301.807 45.9223 299.765 45.191 298.506 44.7254C297.767 44.4518 297.157 44.2213 296.724 43.9669C296.239 43.6789 295.869 43.4293 295.591 43.2229C295.168 42.9108 295.009 42.7476 294.976 42.7044C293.511 40.8131 292.728 39.2193 292.415 37.9568C292.074 36.5695 292.305 35.6526 292.79 35.2398C294.981 33.3869 298.895 36.8335 300.884 38.5857C301.312 38.9601 301.657 39.2673 301.922 39.4642C302.075 39.5746 302.234 39.6802 302.397 39.7762C302.575 39.877 302.757 39.9586 302.945 40.021C304.213 40.4338 304.78 39.3393 305.462 38.024C305.995 36.9968 306.634 35.7726 307.619 35.5998C307.628 35.5998 307.604 35.4126 307.614 35.4846C307.671 35.8303 307.47 36.5887 307.249 37.4288C307.119 37.9184 306.984 38.4321 306.874 38.9841L306.831 39.1905C306.494 40.8563 306.269 42.994 307.119 46.7815L308.555 46.4502Z" fill="#333333"/>
<path fill-rule="evenodd" clip-rule="evenodd" d="M305.125 47.3436C304.433 47.6173 304.43 47.0172 303.906 47.3436C302.177 46.3307 299.668 45.1429 298.506 44.7109C297.766 44.4372 297.156 44.2068 296.724 43.9524C296.239 43.6644 295.869 43.4148 295.59 43.2083C295.168 42.8963 295.009 42.7331 294.975 42.6899C294.841 42.5171 294.716 42.3491 294.591 42.1811C293.371 40.5105 292.694 39.0896 292.415 37.9375C292.074 36.5502 292.305 35.6333 292.79 35.2205C293.011 35.0333 293.251 34.8989 293.501 34.8124C295.749 34.0444 299.092 36.987 300.884 38.5664C301.311 38.9408 301.657 39.248 301.921 39.4448C302.075 39.5552 302.234 39.6608 302.397 39.7569C302.575 39.8577 302.757 39.9393 302.944 40.0017C304.213 40.4145 304.779 39.32 305.461 38.0047C305.995 36.9774 306.634 35.7533 307.623 35.5805C307.628 35.9597 307.45 36.651 307.248 37.4095C307.119 37.8991 306.984 38.4127 306.874 38.9648L306.83 39.1712C306.518 40.7313 306.363 43.4628 307.031 46.6982C306.349 46.8806 305.874 47.0508 305.125 47.3436Z" fill="#FEFEFE"/>
<path fill-rule="evenodd" clip-rule="evenodd" d="M351.196 88.2956C350.034 88.0844 348.914 87.6715 347.387 86.9083C346.316 86.3706 345.446 85.809 344.75 85.2425C344.154 84.7577 343.684 84.268 343.323 83.7832C343.487 85.3433 343.919 87.0619 344.495 88.7852C345.321 91.2526 346.436 93.7296 347.483 95.8034C347.987 94.4209 348.66 92.9568 349.414 91.4974C349.976 90.4126 350.581 89.3325 351.196 88.2956Z" fill="#FF6F3D"/>
<path fill-rule="evenodd" clip-rule="evenodd" d="M342.934 82.7835L343.551 83.6141C343.895 84.0775 344.349 84.5504 344.929 85.0226M342.934 82.7835L343.041 83.8127L342.934 82.7835ZM344.764 88.6952C344.307 87.328 343.943 85.9703 343.733 84.6984L344.764 88.6952ZM343.733 84.6984C343.982 84.9545 344.26 85.2095 344.571 85.4623L344.571 85.4624C345.286 86.0437 346.173 86.6161 347.26 87.1615L347.26 87.1618C348.631 87.8467 349.689 88.2586 350.75 88.4945C350.202 89.4295 349.665 90.3961 349.162 91.367L349.162 91.3673C348.514 92.622 347.924 93.8836 347.447 95.0971C346.492 93.1574 345.509 90.9208 344.764 88.6953M343.041 83.8127C343.208 85.4005 343.646 87.1403 344.226 88.8751L343.041 83.8127ZM344.929 85.0226C345.607 85.5742 346.458 86.125 347.514 86.6547C349.028 87.4113 350.12 87.812 351.247 88.0166L351.648 88.0895L351.44 88.4401C350.827 89.473 350.225 90.5483 349.666 91.6277C348.915 93.0801 348.248 94.5327 347.749 95.9005L347.525 96.5153L347.23 95.9311C346.179 93.8497 345.058 91.3596 344.226 88.8752L344.226 88.8751" fill="#FF6F3D"/>
<path fill-rule="evenodd" clip-rule="evenodd" d="M343.251 82.4103C343.237 84.2968 343.746 86.5338 344.495 88.7852C345.321 91.2526 346.436 93.7296 347.483 95.8034C347.987 94.4209 348.66 92.9567 349.414 91.4974C350.74 88.9388 352.315 86.3946 353.694 84.3592L354.823 85.1177C353.463 87.1243 351.912 89.6253 350.62 92.1215C349.611 94.0752 348.756 96.029 348.28 97.7379L347.829 99.3653L347.027 97.8772C345.768 95.5346 344.255 92.3759 343.203 89.222C342.411 86.8458 341.873 84.4648 341.887 82.4151L343.251 82.4103Z" fill="#333333"/>
<path fill-rule="evenodd" clip-rule="evenodd" d="M336.44 63.1799C334.149 66.3721 330.267 70.0156 326.136 72.5502C322.543 74.7536 318.787 76.1025 315.819 75.5313C315.492 75.4689 314.109 75.0177 311.928 71.5614C309.656 67.9563 306.711 61.2549 303.608 48.8171C304.074 48.6155 304.699 48.4283 305.352 48.2794C306.284 48.0634 307.264 47.9194 307.989 47.8666C308.45 48.9611 308.945 50.214 309.459 51.5149C311.544 56.8097 313.974 62.9879 317.961 67.1882L318.393 67.6442L318.907 67.2842C320.252 66.3481 323.84 62.1094 327.174 58.1635C329.907 54.9328 332.467 51.9037 333.342 51.2077C334.591 50.2092 336.137 49.1723 338.284 48.2938C340.355 47.4442 342.987 46.7433 346.455 46.3641L346.647 46.6329C347.786 48.1258 349.698 48.8315 351.84 48.8843C353.886 48.9323 356.168 48.3803 358.161 47.3386C358.718 47.0505 359.252 46.7241 359.751 46.3641C362.018 46.8009 365.208 48.2074 368.268 49.9932C371.356 51.7933 374.282 53.9631 375.977 55.9073C376.631 57.6834 377.404 59.6756 378.225 61.8022C382.443 72.6847 388.068 87.1963 386.021 94.7665C386.007 94.8145 385.743 95.1793 384.287 95.3761C383.346 95.5009 381.996 95.4865 380.07 95.1505C378 94.7905 375.233 93.9264 371.659 92.5487C368.042 91.1566 363.618 89.246 358.272 86.8074L357.667 88.1323C363.051 90.5901 367.504 92.5103 371.135 93.912C374.81 95.3281 377.668 96.2162 379.83 96.5906C381.914 96.9507 383.413 96.9651 384.489 96.821C386.804 96.509 387.395 95.3137 387.438 95.1505C389.61 87.1242 383.884 72.3534 379.59 61.2789C378.749 59.1091 377.961 57.0834 377.303 55.2832L377.255 55.1584L377.169 55.0576C375.382 52.9646 372.269 50.6364 369.003 48.7307C365.674 46.7865 362.148 45.2696 359.684 44.8712L359.377 44.8232L359.127 45.0152C358.613 45.404 358.065 45.7544 357.489 46.0521C355.707 46.9785 353.684 47.4778 351.874 47.4298C350.159 47.3866 348.66 46.8585 347.81 45.7496C347.69 45.5912 347.584 45.428 347.493 45.2552L347.262 44.8184L346.772 44.8664C342.92 45.2456 340.009 46.0089 337.732 46.9449C335.436 47.8858 333.774 48.9995 332.434 50.07C331.43 50.8717 328.831 53.9439 326.06 57.2226C323.158 60.6549 320.055 64.3224 318.561 65.6809C315.04 61.6966 312.773 55.9409 310.823 50.9821C310.256 49.5371 309.713 48.1594 309.137 46.8297L308.945 46.3881H308.464C307.643 46.3929 306.284 46.5657 305.035 46.8537C303.988 47.0985 302.989 47.4298 302.374 47.8234L301.937 48.1066L302.061 48.6107C305.261 61.5861 308.335 68.5755 310.703 72.339C313.201 76.3042 315.098 76.8802 315.554 76.9666C318.917 77.6147 323.029 76.1697 326.905 73.7935C331.233 71.1389 335.311 67.2986 337.698 63.9335C338.51 62.791 337.305 61.9798 336.44 63.1799Z" fill="#333333"/>
<path fill-rule="evenodd" clip-rule="evenodd" d="M377.381 55.3847L377.285 55.125L379.619 61.2553L379.385 60.6482L379.384 60.647C378.65 58.7468 377.966 56.9774 377.381 55.3847ZM379.635 61.2948L379.62 61.2569L377.017 58.6754C377.327 59.4842 377.651 60.3226 377.984 61.185L377.985 61.1881L378.221 61.7974L378.223 61.8039C382.44 72.6857 388.063 87.193 386.017 94.7617C386.002 94.8097 385.738 95.1745 384.283 95.3713C383.341 95.4961 381.991 95.4817 380.065 95.1457C377.995 94.7857 375.228 93.9216 371.654 92.5439C371.493 92.4819 371.331 92.4188 371.167 92.3547C370.897 92.2492 370.622 92.1409 370.343 92.0298C367.534 90.9115 364.278 89.5109 360.528 87.8239C360.028 87.599 359.52 87.369 359.002 87.1338L359.046 87.1008C359.464 86.7858 359.851 86.4262 360.206 86.0329C360.331 85.895 360.451 85.753 360.568 85.6073C360.905 85.1865 361.205 84.7384 361.474 84.2674L361.495 84.2296C361.582 84.2562 361.671 84.2829 361.761 84.3098L361.881 84.3453C363.677 84.8731 366.076 85.438 368.525 85.9201C368.961 86.0059 369.398 86.0891 369.834 86.169C370.037 86.2065 370.24 86.2433 370.442 86.2794C372.416 86.6315 374.332 86.9101 375.899 87.0542C376.128 87.0754 376.351 87.0936 376.565 87.1088C376.708 87.119 376.848 87.1278 376.984 87.1351L377.073 87.1397L377.094 87.1408L377.15 87.1434C378.286 87.1955 378.456 85.7819 377.217 85.6827C377.2 85.6814 377.182 85.6802 377.164 85.6793C377.131 85.6773 377.098 85.6754 377.066 85.6737L377.004 85.6705C376.903 85.6653 376.8 85.66 376.693 85.6505C376.683 85.6382 376.673 85.6253 376.663 85.612C376.062 84.8468 374.632 82.4469 373.216 79.8708C371.879 77.4334 370.57 74.8633 370.008 73.3805C370 73.3603 369.993 73.3404 369.985 73.3206C369.98 73.3053 369.974 73.2902 369.968 73.2751C370.016 71.0227 370.128 68.7425 370.301 66.4298L370.309 66.3145L370.311 66.2909L370.311 66.2883C370.373 65.1829 368.945 64.9608 368.854 66.1801L368.852 66.2028L368.852 66.2044L368.84 66.3679C368.668 68.6735 368.557 70.9638 368.51 73.2445C368.507 73.3748 368.505 73.5051 368.503 73.6354C368.491 74.2857 368.485 74.9352 368.484 75.5841C368.48 78.0646 368.554 80.5158 368.702 82.943C368.732 83.445 368.766 83.946 368.802 84.446L368.806 84.4936C368.291 84.3921 367.78 84.2855 367.279 84.1758C365.363 83.7563 363.581 83.2897 362.188 82.875C362.101 82.8621 362.013 82.8469 361.924 82.8291C361.558 82.757 361.166 82.6448 360.752 82.4956C357.663 81.3824 353.372 78.2087 350.047 74.208C348.604 72.4722 347.343 70.5808 346.441 68.6344C346.363 68.4672 346.288 68.2996 346.216 68.1317C346.052 67.7483 345.901 67.3632 345.767 66.9771C345.901 66.2245 346.077 65.239 346.271 64.1457C346.387 63.4878 346.51 62.7909 346.634 62.0822C346.876 60.7062 347.123 59.2859 347.338 58.021C347.651 56.1831 347.897 54.6733 347.963 54.104C347.978 53.9717 347.984 53.8902 347.978 53.8671C347.877 53.4447 347.781 53.0174 347.69 52.5806C347.648 52.6011 347.607 52.6209 347.566 52.6399L347.583 52.6029C347.602 52.5623 347.622 52.5219 347.641 52.4818C347.996 51.7471 348.383 51.0919 348.8 50.5597C349.091 50.188 349.397 49.8763 349.716 49.6395C349.74 49.6216 349.764 49.6041 349.789 49.5871C350.211 49.2903 350.658 49.125 351.125 49.125C352.438 52.9214 356.254 53.9199 357.148 53.4255C358.661 52.5901 359.405 49.7554 359.805 47.634C359.912 47.0668 359.995 46.5505 360.061 46.1371L360.063 46.125C360.543 46.3107 361.019 46.4984 361.491 46.6908C363.723 47.5992 365.893 48.6106 368.263 49.9932L376.023 56.0387C376.006 55.9932 375.989 55.9478 375.973 55.9025C374.277 53.9583 371.352 51.7885 368.263 49.9932L369.019 48.6975L369.018 48.6969C366.055 46.9687 363.399 45.8058 360.603 44.7258L358.874 44.0577L358.582 45.8883C358.424 46.8766 358.189 48.3342 357.776 49.6654C357.57 50.3295 357.335 50.9089 357.074 51.3566C356.861 51.7214 356.671 51.9305 356.527 52.0428C356.465 52.0419 356.376 52.0354 356.259 52.0161C355.931 51.9617 355.485 51.8224 355.005 51.5637C354.054 51.0516 353.058 50.1251 352.543 48.6349L352.194 47.625H351.125C349.324 47.625 348.028 48.965 347.181 50.2446C346.933 50.6198 346.698 51.0264 346.477 51.4557C345.995 51.6003 345.711 51.5447 345.61 51.5087L345.606 51.5075C345.529 51.48 345.44 51.4273 345.337 51.2341C345.219 51.0129 345.116 50.6586 345.066 50.1524C344.975 49.1825 345.111 47.9531 345.281 47.0014L345.657 44.8847L343.541 45.2618C341.234 45.6727 339.326 46.2431 337.714 46.8999L337.712 46.9008C335.405 47.8445 333.736 48.9635 332.401 50.0307C331.833 50.4832 330.876 51.5362 329.821 52.7431C328.74 53.98 327.435 55.5219 326.097 57.104L326.024 57.19L326.01 57.2062C324.344 59.1757 322.632 61.2005 321.168 62.8505C320.434 63.6779 319.773 64.399 319.22 64.9652C318.962 65.2297 318.741 65.4457 318.557 65.6166C315.095 61.6835 312.868 56.0855 310.85 50.9606L310.849 50.9589L310.671 50.5072C310.223 49.372 309.785 48.2611 309.364 47.2743L308.947 46.2948L307.885 46.3651C307.065 46.4194 306.009 46.5827 305.01 46.813L305.004 46.8145C304.319 46.9756 303.594 47.1819 303.008 47.4356L301.84 47.9411L302.148 49.1758C305.274 61.6886 308.261 68.5589 310.654 72.3563C312.92 75.9553 314.601 76.8232 315.533 77C319.08 77.6813 323.25 76.0696 326.915 73.8246L326.916 73.824C329.087 72.4923 331.192 70.8683 333.055 69.1519L333.039 69.5192L333.039 69.5332C332.888 74.0117 332.923 83.0185 333.391 91.527C333.708 97.2954 334.222 102.919 335.025 106.722L335.165 107.385L335.755 107.718C341.113 110.743 347.123 112.056 352.996 112.308C360.383 112.624 367.654 111.277 373.388 109.47L374.765 109.036L374.384 107.643C373.728 105.249 373.148 102.885 372.64 100.536C372.174 98.3773 371.77 96.2187 371.428 94.0637C374.881 95.3834 377.655 96.2491 379.808 96.6235C381.836 96.9772 383.345 97.0087 384.48 96.8583L384.484 96.8578C385.309 96.7462 385.908 96.5734 386.348 96.3589C386.57 96.2504 386.77 96.1224 386.941 95.9707C387.026 95.8951 387.111 95.8071 387.189 95.7053C387.241 95.6373 387.374 95.4561 387.453 95.1929L387.459 95.1731L387.465 95.1531C388.047 92.9996 388.061 90.4585 387.745 87.7723C387.427 85.0704 386.762 82.1237 385.911 79.1136C384.215 73.1134 381.735 66.7141 379.635 61.2948ZM347.566 52.6399C347.084 52.8633 346.644 52.9848 346.252 53.0297C346.076 53.0499 345.91 53.0547 345.755 53.0464C345.512 53.0336 345.295 52.989 345.106 52.9214C344.116 52.571 343.693 51.5293 343.573 50.2956C343.514 49.6628 343.534 48.9669 343.593 48.3033C343.643 47.7387 343.722 47.1975 343.804 46.7385C343.256 46.8362 342.732 46.943 342.232 47.0578C340.716 47.4058 339.414 47.8271 338.28 48.2891C336.133 49.1675 334.586 50.2044 333.337 51.2029C332.47 51.8932 329.944 54.8785 327.237 58.0793L327.148 58.1843C323.82 62.1181 320.245 66.3454 318.903 67.2794L318.389 67.6394L317.956 67.1834C313.974 62.9831 311.539 56.8049 309.454 51.5101L309.276 51.0577C308.826 49.9195 308.396 48.8288 307.984 47.8618C307.259 47.9098 306.284 48.0586 305.347 48.2746C304.694 48.4283 304.069 48.6107 303.604 48.8123C306.711 61.2549 309.651 67.9515 311.923 71.5566C314.099 75.0128 315.483 75.4641 315.814 75.5265C318.783 76.0977 322.534 74.7488 326.132 72.5454C328.674 70.9856 331.122 69.0076 333.163 66.9717C333.307 66.828 333.449 66.684 333.588 66.5398C334.687 65.4077 335.654 64.2657 336.435 63.1751C336.445 63.1621 336.454 63.1495 336.463 63.137C336.477 63.1192 336.49 63.1018 336.504 63.085L336.505 63.0836C337.362 62.0134 338.484 62.8118 337.689 63.9287L337.62 64.0251L337.611 64.037C336.789 65.1759 335.779 66.3712 334.634 67.553L334.586 68.4651L334.538 69.5836C334.389 74.0144 334.423 82.9767 334.889 91.4446C335.206 97.2051 335.715 102.73 336.493 106.412C341.594 109.292 347.358 110.565 353.06 110.809C360.237 111.117 367.331 109.806 372.937 108.04C372.274 105.62 371.688 103.23 371.174 100.853C370.64 98.3784 370.186 95.9034 369.812 93.4331L369.805 93.384C368.423 92.8349 366.902 92.1439 365.276 91.4052C363.14 90.4346 360.822 89.3815 358.4 88.4596L358.334 88.4347C357.794 88.2299 357.187 87.7605 356.538 87.0963C354.096 84.5968 351.061 79.3391 348.792 75.0443C346.872 71.4099 345.5 68.4651 345.5 68.4651C345.5 68.4651 345.603 67.8938 345.767 66.9771C345.458 66.0912 345.233 65.2 345.106 64.3125C345.027 63.7615 345.043 62.9074 345.147 61.879C345.27 60.6654 345.514 59.209 345.868 57.7211C346.129 56.6217 346.449 55.5052 346.824 54.4568C346.865 54.343 346.906 54.23 346.948 54.1179L346.95 54.1127C347.142 53.5991 347.348 53.1046 347.566 52.6399ZM357.622 86.0594C357.667 86.1055 357.712 86.1497 357.755 86.192L358.107 85.93C358.574 85.5829 359.007 85.1572 359.397 84.6699C359.612 84.4007 359.812 84.1156 359.998 83.8153C358.957 83.4157 357.861 82.8405 356.77 82.1547C355.469 81.337 354.116 80.3236 352.795 79.1651C353.77 80.8252 354.774 82.4159 355.736 83.7507C356.414 84.6918 357.05 85.476 357.622 86.0594ZM374.713 85.4169C373.385 85.2536 371.877 85.0174 370.328 84.7346L370.302 84.3834C370.121 81.9342 370.016 79.4617 369.99 76.9599C370.57 78.1218 371.238 79.3853 371.9 80.5921L371.901 80.5935C372.629 81.9171 373.362 83.1989 373.991 84.2455C374.243 84.666 374.487 85.0634 374.713 85.4169Z" fill="#333333"/>
<path fill-rule="evenodd" clip-rule="evenodd" d="M375.973 55.9025C376.626 57.6786 377.399 59.6708 378.221 61.7974C382.438 72.6799 388.063 87.1915 386.017 94.7617C386.002 94.8097 385.738 95.1745 384.283 95.3713C383.341 95.4961 381.991 95.4817 380.065 95.1457C377.995 94.7857 375.228 93.9216 371.654 92.5439C368.205 91.2142 364.022 89.414 359.002 87.1338C359.583 86.7018 360.107 86.1834 360.568 85.6073C360.914 85.1753 361.221 84.7144 361.495 84.2296C363.628 84.8825 366.769 85.6073 369.834 86.169C372.586 86.6778 375.286 87.057 377.15 87.1434C378.302 87.1963 378.461 85.7417 377.164 85.6793C377.01 85.6697 376.857 85.6649 376.693 85.6505C376.112 84.9305 374.657 82.4919 373.215 79.8708C371.847 77.3746 370.506 74.7392 369.968 73.2751C370.016 70.9853 370.132 68.6667 370.309 66.3145C370.396 65.1864 368.945 64.9512 368.854 66.1801C368.614 69.3388 368.489 72.4686 368.484 75.5841C368.479 78.5939 368.59 81.5606 368.806 84.4936C366.323 84.004 363.946 83.3982 362.188 82.875C357.148 82.125 346.354 73.0349 345.106 64.3125C344.673 61.2875 347.114 49.125 351.125 49.125C352.438 52.9214 356.254 53.9199 357.148 53.4255C359.069 52.3646 359.751 48.0788 360.063 46.125C362.813 47.1875 365.391 48.3179 368.263 49.9932C371.352 51.7885 374.277 53.9583 375.973 55.9025ZM345.5 68.4651C345.5 68.4651 348.065 54.2223 347.978 53.8671C347.877 53.4447 347.781 53.0174 347.69 52.5806C346.599 53.1182 345.711 53.1375 345.106 52.9214C344.116 52.571 343.693 51.5293 343.573 50.2956C343.463 49.1243 343.626 47.737 343.804 46.7385C341.594 47.1322 339.788 47.6746 338.28 48.2891C336.133 49.1675 334.586 50.2044 333.337 51.2029C332.463 51.8989 329.903 54.928 327.169 58.1587C323.836 62.0998 320.248 66.3433 318.903 67.2794L318.389 67.6394L317.956 67.1834C313.974 62.9831 311.539 56.805 309.454 51.5101C308.94 50.2092 308.45 48.9563 307.984 47.8618C307.259 47.9098 306.284 48.0586 305.347 48.2746C304.694 48.4283 304.069 48.6107 303.604 48.8123C306.711 61.2549 309.651 67.9515 311.923 71.5566C314.099 75.0128 315.483 75.4641 315.814 75.5265C318.782 76.0977 322.534 74.7488 326.132 72.5454C330.263 70.0108 334.144 66.3721 336.435 63.1751C337.3 61.9702 338.506 62.7814 337.689 63.9287C336.853 65.1 335.816 66.3337 334.634 67.553L334.586 68.4651L334.538 69.5836C334.389 74.0144 334.423 82.9767 334.889 91.4446C335.206 97.2051 335.715 102.73 336.493 106.412C341.594 109.292 347.358 110.565 353.06 110.809C360.236 111.117 367.331 109.806 372.937 108.04C372.274 105.62 371.688 103.23 371.174 100.853C370.636 98.362 370.18 95.8706 369.805 93.384C366.592 92.1071 362.625 90.0625 358.334 88.4347C354.043 86.807 345.5 68.4651 345.5 68.4651Z" fill="#EFEFEF"/>
<path fill-rule="evenodd" clip-rule="evenodd" d="M368.854 66.1801C368.614 69.3388 368.489 72.4686 368.484 75.5841C368.48 78.93 368.614 82.2182 368.883 85.4681L370.343 85.3481C370.074 82.0982 369.94 78.8484 369.945 75.5841C369.95 72.5502 370.07 69.4684 370.315 66.3193C370.396 65.1912 368.946 64.9512 368.854 66.1801ZM369.757 93.0431L371.203 92.8319C371.588 95.4049 372.053 97.9779 372.611 100.561C373.168 103.153 373.812 105.745 374.537 108.337L374.724 109.009L374.061 109.225C368.22 111.145 360.669 112.605 353.003 112.278C346.974 112.019 340.879 110.651 335.485 107.526L335.211 107.367L335.139 107.051C334.298 103.282 333.755 97.5219 333.429 91.5262C332.963 83.0247 332.924 74.0144 333.078 69.5452L333.126 68.4027L333.188 67.2026L334.649 67.2938L334.586 68.4699L334.538 69.5884C334.389 74.0192 334.423 82.9815 334.889 91.4494C335.206 97.2099 335.715 102.735 336.493 106.417C341.595 109.297 347.359 110.569 353.06 110.814C360.237 111.121 367.332 109.811 372.937 108.044C372.274 105.625 371.688 103.234 371.174 100.858C370.622 98.2515 370.146 95.6497 369.757 93.0431Z" fill="#333333"/>
<path fill-rule="evenodd" clip-rule="evenodd" d="M382.972 236.57C381.828 237.861 380.378 239.249 378.889 240.67C376.477 242.974 373.97 245.369 372.716 247.419C371.775 248.96 371.602 250.294 372.937 251.173C373.749 251.274 376.65 250.05 380.013 248.35C383.774 246.449 388.01 243.953 390.609 241.98C390.628 241.961 390.681 241.923 390.7 241.913C390.753 241.875 390.84 241.817 390.941 241.731C391.479 241.265 392.329 240.002 389.696 236.945L390.806 235.994C394.303 240.06 392.79 242.062 391.887 242.839C391.757 242.95 391.627 243.041 391.541 243.103L391.474 243.151C388.793 245.182 384.485 247.726 380.671 249.651C376.9 251.557 373.514 252.872 372.447 252.56L372.356 252.536L372.274 252.483C369.901 251.039 370.05 248.984 371.472 246.661C372.827 244.448 375.401 241.985 377.885 239.614C379.355 238.207 380.791 236.839 381.881 235.605L382.972 236.57Z" fill="#333333"/>
<path fill-rule="evenodd" clip-rule="evenodd" d="M342.027 235.615C340.552 236.22 338.755 236.839 336.92 237.468C333.231 238.73 329.384 240.05 327.174 241.663C325.214 243.099 324.455 244.74 325.906 246.713L325.964 246.79L326.041 246.853C326.92 247.558 331.276 247.673 336.19 247.371C340.946 247.078 346.306 246.435 349.477 245.595L349.554 245.576C350.288 245.412 353.252 244.736 351.835 239.522C351.782 239.33 351.398 238.486 351.043 237.689C350.75 237.041 350.471 236.421 350.437 236.325L349.049 236.781C349.097 236.93 349.395 237.593 349.712 238.289C350.048 239.038 350.409 239.83 350.428 239.902C351.446 243.656 349.674 244.054 349.237 244.15L349.131 244.174C346.052 244.99 340.792 245.619 336.109 245.907C331.656 246.181 327.799 246.176 327.025 245.749C326.31 244.678 326.833 243.718 328.048 242.83C330.071 241.351 333.813 240.07 337.406 238.836C339.231 238.212 341.023 237.597 342.593 236.949L342.027 235.615Z" fill="#333333"/>
<path fill-rule="evenodd" clip-rule="evenodd" d="M378.889 240.67C376.477 242.974 373.97 245.369 372.716 247.419C371.775 248.96 371.602 250.294 372.937 251.173C373.749 251.274 376.65 250.05 380.013 248.35C383.774 246.449 388.01 243.953 390.609 241.98C390.628 241.961 390.681 241.923 390.7 241.913C390.753 241.875 390.84 241.817 390.94 241.731C391.233 241.481 391.613 241.001 391.488 240.132C391.397 239.47 391.008 238.577 390.061 237.386C389.077 237.813 387.833 237.996 386.589 237.962C385.138 237.924 383.649 237.597 382.563 237.026C381.66 238.01 380.599 239.037 379.499 240.094C379.292 240.286 379.09 240.478 378.889 240.67Z" fill="#FEFEFE"/>
<path fill-rule="evenodd" clip-rule="evenodd" d="M350.419 239.906C350.443 239.993 350.467 240.079 350.486 240.166C351.355 243.679 349.655 244.063 349.227 244.159L349.122 244.183C346.043 245 340.783 245.628 336.099 245.916C331.647 246.19 327.789 246.185 327.016 245.758C326.3 244.688 326.824 243.727 328.039 242.839C329.269 241.937 331.142 241.111 333.227 240.324C334.567 239.82 335.989 239.33 337.396 238.85C339.03 238.289 340.634 237.741 342.08 237.165C342.978 237.756 344.366 238.365 345.961 238.471C347.066 238.543 348.271 238.375 349.477 237.794C349.549 237.953 349.626 238.125 349.703 238.293C350.039 239.042 350.395 239.834 350.419 239.906Z" fill="#FEFEFE"/>
<path fill-rule="evenodd" clip-rule="evenodd" d="M371.16 110.099C374.546 121.173 378.331 141.177 381.646 163.796C386.425 187.092 389.504 213.331 389.461 235.562C388.582 236.047 387.299 236.33 386.022 236.359C384.754 236.388 383.524 236.176 382.741 235.682C381.641 231.496 377.207 213.519 371.251 192.666C366.227 175.067 359.622 155.952 356.154 142.545L354.765 137.48C354.679 150.072 353.834 163.297 353.286 171.875C353.123 174.458 352.983 176.618 352.897 178.264C352.892 178.375 352.897 178.797 352.907 179.503C352.988 185.614 353.353 213.629 349.016 236.388C347.997 236.921 346.974 237.074 346.042 237.017C344.774 236.935 343.665 236.46 342.939 235.989C342.858 229.408 342.637 219.951 342.017 209.87C341.383 199.564 340.321 188.571 338.554 179.253C338.41 178.495 335.749 163.239 335.595 142.602C335.518 132.291 336.07 120.636 337.876 108.774C342.646 111.016 347.848 112.048 352.998 112.273C359.454 112.552 365.823 111.563 371.16 110.099Z" fill="#404040"/>
<path fill-rule="evenodd" clip-rule="evenodd" d="M337.791 108.615L337.922 108.676C342.676 110.911 347.864 111.94 353.002 112.166C359.444 112.443 365.803 111.457 371.131 109.995L371.232 109.967L371.263 110.067C374.652 121.15 378.437 141.159 381.752 163.777C386.532 187.079 389.612 213.324 389.569 235.562L389.568 235.626L389.513 235.657C388.614 236.152 387.313 236.438 386.024 236.467C384.747 236.496 383.492 236.284 382.683 235.773L382.647 235.751L382.636 235.709C382.432 234.931 382.112 233.677 381.689 232.017C379.836 224.743 375.996 209.673 371.147 192.695C368.882 184.764 366.297 176.525 363.822 168.637C363.551 167.776 363.282 166.918 363.015 166.066C360.303 157.412 357.784 149.279 356.049 142.573C356.049 142.572 356.049 142.573 356.049 142.573L354.867 138.26C354.752 150.597 353.933 163.436 353.396 171.838L353.393 171.882C353.393 171.882 353.393 171.882 353.393 171.882M353.004 178.27C353 178.376 353.004 178.794 353.014 179.501C353.096 185.612 353.461 213.637 349.121 236.408L349.112 236.459L349.065 236.483C348.027 237.026 346.984 237.183 346.035 237.124C344.745 237.041 343.618 236.558 342.88 236.08L342.832 236.048L342.831 235.991C342.749 229.41 342.528 219.955 341.909 209.877C341.275 199.572 340.214 188.585 338.447 179.274C338.302 178.51 335.64 163.248 335.486 142.603C335.41 132.288 335.962 120.626 337.769 108.758L337.791 108.615M353.004 178.27C353.081 176.82 353.198 174.973 353.336 172.788C353.355 172.492 353.374 172.19 353.393 171.882M337.961 108.933C336.173 120.739 335.626 132.336 335.702 142.602C335.856 163.231 338.516 178.48 338.659 179.233C340.428 188.557 341.49 199.555 342.124 209.864C342.742 219.917 342.964 229.35 343.046 235.93C343.759 236.382 344.83 236.83 346.049 236.909C346.95 236.964 347.936 236.819 348.919 236.316C353.244 213.579 352.88 185.612 352.798 179.504C352.789 178.802 352.784 178.374 352.789 178.26C352.865 176.809 352.982 174.959 353.12 172.775C353.139 172.479 353.158 172.176 353.178 171.868L353.18 171.826C353.728 163.247 354.571 150.047 354.657 137.48L354.662 136.697L356.258 142.518C357.991 149.218 360.508 157.346 363.221 166.001C363.489 166.854 363.758 167.711 364.028 168.573C366.503 176.46 369.089 184.702 371.354 192.636C376.205 209.617 380.046 224.693 381.899 231.966C382.314 233.595 382.629 234.833 382.834 235.613C383.592 236.075 384.779 236.279 386.019 236.251C387.258 236.223 388.495 235.953 389.353 235.498C389.39 213.289 386.313 187.086 381.54 163.818L381.538 163.812C378.234 141.261 374.463 121.317 371.087 110.231C365.762 111.682 359.421 112.659 352.993 112.381C347.88 112.157 342.711 111.14 337.961 108.933Z" fill="#404040"/>
<path fill-rule="evenodd" clip-rule="evenodd" d="M354.77 137.336C354.689 149.971 353.839 163.263 353.291 171.875C353.128 174.458 352.988 176.618 352.902 178.265C352.897 178.375 352.902 178.797 352.911 179.503C352.993 185.614 353.358 213.629 349.021 236.388C348.002 236.921 346.979 237.074 346.047 237.017C344.779 236.935 343.67 236.46 342.944 235.989C342.863 229.408 342.642 219.951 342.022 209.87C341.388 199.564 340.326 188.571 338.559 179.253C338.415 178.495 335.753 163.239 335.6 142.602C335.523 132.003 336.104 119.993 338.035 107.795L336.594 107.569C334.653 119.844 334.067 131.941 334.144 142.602C334.298 163.378 336.978 178.749 337.122 179.513C338.88 188.763 339.932 199.693 340.567 209.947C341.201 220.234 341.417 229.821 341.494 236.378L341.498 236.738L341.787 236.954C342.656 237.602 344.179 238.351 345.961 238.466C347.243 238.548 348.656 238.308 350.053 237.482L350.337 237.314L350.399 236.993C354.828 214.042 354.453 185.648 354.377 179.479C354.367 178.826 354.362 178.428 354.367 178.332C354.449 176.776 354.588 174.583 354.756 171.962C355.236 164.463 355.942 153.427 356.168 142.338L354.77 137.336Z" fill="#333333"/>
<path fill-rule="evenodd" clip-rule="evenodd" d="M346.364 123.367C347.296 124.202 348.348 124.947 349.515 125.494C350.721 126.055 352.056 126.415 353.507 126.459L354.098 126.478L354.165 127.059C356.057 143.284 361.183 159.365 367.235 178.341C372.404 194.552 378.245 212.875 383.332 235.212C384.235 235.62 385.215 235.72 386.17 235.653C387.083 235.586 387.981 235.36 388.769 235.087C388.601 228.467 388.222 218.453 387.367 207.816C386.761 200.265 385.921 192.421 384.749 185.302C384.585 184.318 384.427 183.382 384.263 182.489C384.1 181.586 383.927 180.698 383.754 179.829C383.615 179.148 383.432 178.289 383.25 177.453C382.77 175.231 382.328 173.195 382.078 170.661C381.91 168.947 381.722 167.18 381.521 165.38C381.314 163.532 381.098 161.761 380.882 160.057C379.681 150.71 378.144 141.638 376.41 133.299C374.608 124.649 372.591 116.805 370.511 110.296L371.803 109.888C373.898 116.455 375.929 124.342 377.736 133.026C379.479 141.378 381.021 150.489 382.227 159.889C382.462 161.722 382.678 163.508 382.875 165.231C383.067 166.945 383.255 168.712 383.432 170.531C383.668 172.951 384.105 174.967 384.58 177.16C384.729 177.852 384.883 178.567 385.085 179.561C385.263 180.439 385.436 181.337 385.599 182.244C385.772 183.209 385.94 184.15 386.089 185.076C387.266 192.258 388.116 200.135 388.721 207.705C389.595 218.583 390.633 229.326 390.796 235.984L390.806 236.465L390.354 236.637C388.173 237.463 383.586 237.977 381.939 235.908L381.871 235.6C376.775 213.159 371.121 195.004 365.938 178.745C359.934 159.908 354.837 143.918 352.878 127.774C351.451 127.659 350.14 127.275 348.934 126.713C347.608 126.094 346.422 125.254 345.389 124.313C344.471 123.478 345.447 122.542 346.364 123.367Z" fill="#333333"/>
<path fill-rule="evenodd" clip-rule="evenodd" d="M351.868 47.425C353.674 47.4682 355.702 46.9738 357.484 46.0473C357.681 45.9465 357.873 45.8361 358.065 45.7209L357.642 37.2242C357.037 37.9394 356.441 38.5347 355.865 39.0291C352.123 42.2454 348.981 41.3573 348.77 41.2757C348.655 41.2325 348.54 41.1893 348.429 41.1413L347.8 45.7353C347.8 45.7353 347.8 45.7401 347.805 45.7401C348.655 46.8538 350.154 47.3866 351.868 47.425Z" fill="#FEFEFE"/>
<path fill-rule="evenodd" clip-rule="evenodd" d="M350.178 23.6007C351.663 20.0916 355.601 22.0934 355.616 23.9703C355.428 23.7639 354.602 23.2694 354.132 23.2118C353.968 25.3 351.47 25.7369 350.798 23.5095C350.529 23.4951 350.375 23.4807 350.178 23.6007ZM349.28 39.9076C349.434 39.9652 351.792 40.6085 354.919 37.9203C356.552 36.5185 358.354 34.224 360.107 30.5132C360.078 30.5228 360.045 30.5324 360.016 30.5421C359.555 30.6669 359.175 29.8316 359.939 29.5436C360.141 29.4668 360.342 29.3612 360.52 29.2363C360.9 28.9771 361.202 28.6555 361.385 28.3675C362.105 27.2394 362.293 25.9865 362.043 25.0744C361.947 24.724 361.784 24.4263 361.567 24.2247C361.366 24.0327 361.101 23.9175 360.784 23.9031C360.15 23.8743 359.31 24.2199 358.291 25.1272C357.725 25.6312 357.22 24.9832 357.494 24.5608L357.177 24.1143C357.239 22.151 357.177 20.538 357.018 19.2179C356.85 17.8402 356.577 16.8033 356.216 16.0449C355.986 15.5552 355.63 15.0752 355.198 14.6863C354.804 14.3263 354.353 14.0479 353.882 13.9039C353.325 13.7311 352.763 13.7743 352.21 13.9423C351.6 14.1295 350.985 14.4703 350.375 14.8736C350.068 15.0752 349.765 15.2912 349.472 15.5024C347.945 16.5969 346.729 17.4658 344.313 16.8225C343.987 16.7361 343.679 16.5729 343.415 16.3473C343.386 16.3233 343.357 16.2993 343.333 16.2753C342.896 16.9377 342.522 17.701 342.205 18.5411C341.133 21.4213 340.821 25.1512 341.417 28.7371C342.008 32.2942 343.487 35.6881 345.994 37.9299C346.941 38.7651 348.031 39.4468 349.28 39.9076ZM360.045 25.6072C359.439 25.7273 359.372 25.2232 360.006 25.1176C360.198 25.0888 360.371 25.0888 360.525 25.1272C360.78 25.1848 360.972 25.324 361.101 25.5256C361.222 25.7129 361.284 25.9529 361.284 26.2217C361.284 26.6681 361.111 27.225 360.751 27.7818C360.616 27.993 360.39 28.2331 360.121 28.4155C359.977 28.5163 359.819 28.5979 359.646 28.6555C359.233 28.7995 359.065 28.3819 359.579 28.1611C359.67 28.1226 359.761 28.0698 359.848 28.0122C360.064 27.8682 360.237 27.681 360.342 27.5178C360.65 27.0378 360.799 26.5817 360.799 26.2217C360.799 26.0441 360.765 25.8953 360.693 25.7897C360.631 25.6936 360.539 25.6312 360.419 25.6024C360.314 25.5784 360.189 25.5784 360.045 25.6072ZM341.686 23.4519C343.036 19.89 347.051 21.7429 347.138 23.6199C346.941 23.4231 346.1 22.9574 345.625 22.919C345.543 25.012 343.06 25.54 342.305 23.3415C342.036 23.3319 341.878 23.3271 341.686 23.4519ZM347.998 32.3422C350.788 34.5936 351.802 30.5997 352.292 29.9852C352.153 34.944 348.348 34.5984 347.998 32.3422ZM347.267 28.6027C347.594 28.7803 348.118 28.9627 349.275 28.9867C346.888 29.9324 346.047 28.8235 346.081 27.7914C346.119 26.3993 347.426 26.6777 347.162 24.4215C348.295 26.0057 345.735 27.7722 347.267 28.6027Z" fill="#FEFEFE"/>
<path fill-rule="evenodd" clip-rule="evenodd" d="M332.672 36.5015C338.228 36.4211 343.682 39.1904 346.801 44.2647C350.514 50.3112 349.807 57.8264 345.589 63.0405C350.257 70.6792 354.791 78.4009 359.597 85.9563C361.79 89.3956 361.24 92.1935 358.231 94.0406C356.647 95.0478 353.108 96.1635 350.589 92.0433C345.838 84.2716 341.082 76.5002 336.332 68.7285C329.769 70.1356 322.747 67.3689 319.034 61.3224C315.915 56.2422 315.917 50.1297 318.496 45.2064C319.819 47.3647 321.148 49.5228 322.471 51.6811C324.318 54.684 328.286 55.6347 331.288 53.7879C332.37 53.1232 333.452 52.4585 334.534 51.7939C337.537 49.947 338.488 45.9794 336.641 42.9706C335.324 40.8179 333.995 38.6599 332.672 36.5015Z" fill="#FF6F3D"/>
<path fill-rule="evenodd" clip-rule="evenodd" d="M345.589 63.0405C349.807 57.8264 350.514 50.3112 346.801 44.2647C344.021 39.7419 339.386 37.0502 334.477 36.5756C333.878 36.5177 333.276 36.4928 332.672 36.5015C332.981 37.0064 333.291 37.5113 333.601 38.0161C333.833 38.3943 334.066 38.7726 334.298 39.1507C335.081 40.4252 335.863 41.6988 336.641 42.9706C338.488 45.9794 337.537 49.947 334.534 51.7939L331.288 53.7879C328.286 55.6347 324.318 54.684 322.471 51.6811C321.809 50.602 321.146 49.5229 320.483 48.4438C320.131 47.8702 319.778 47.2966 319.426 46.723C319.116 46.2175 318.806 45.7119 318.496 45.2064C318.215 45.7422 317.965 46.2921 317.746 46.8532C315.954 51.4479 316.254 56.795 319.034 61.3224C322.747 67.3689 329.769 70.1356 336.332 68.7285C338.706 72.6137 341.083 76.4989 343.459 80.384C345.836 84.2704 348.213 88.1569 350.589 92.0433C353.108 96.1635 356.647 95.0478 358.231 94.0406C361.24 92.1935 361.79 89.3956 359.597 85.9563C356.376 80.8917 353.276 75.7525 350.177 70.6137C348.652 68.0862 347.128 65.5589 345.589 63.0405ZM351.869 91.261C352.905 92.9562 354.01 93.4009 354.878 93.4694C355.849 93.5459 356.807 93.1689 357.426 92.7748L357.436 92.7685L357.446 92.7623C358.695 91.9955 359.242 91.16 359.387 90.3354C359.539 89.4753 359.312 88.2991 358.333 86.7626L358.332 86.7614C355.101 81.6822 351.985 76.5159 348.88 71.3679C347.358 68.8442 345.838 66.325 344.309 63.8226L343.758 62.9198L344.423 62.0972C348.253 57.3617 348.893 50.5379 345.523 45.0501C343.22 41.3019 339.512 38.9378 335.491 38.2266C335.519 38.2722 335.547 38.3178 335.575 38.3634C336.358 39.6389 337.142 40.9149 337.92 42.1867C340.2 45.9015 339.028 50.7914 335.32 53.0715L332.074 55.0656C332.074 55.0657 332.074 55.0654 332.074 55.0656C328.364 57.3469 323.473 56.1735 321.193 52.4669L321.192 52.4651C320.531 51.3867 319.868 50.3083 319.205 49.2291L319.204 49.2274C319.057 48.9868 318.909 48.7462 318.761 48.5055C317.579 52.4152 318.009 56.7868 320.312 60.5374C323.682 66.025 330.057 68.5399 336.017 67.2618L337.057 67.0389L337.612 67.9462C339.987 71.8318 342.363 75.7174 344.74 79.6032L344.749 79.6182C347.123 83.499 349.496 87.3799 351.869 91.261Z" fill="#333333"/>
<path d="M361.76 84.3347C361.935 87.2393 355.87 91.1427 352.166 91.366C348.463 91.5894 346.685 86.8643 346.51 83.9597C346.335 81.0551 351.306 79.9332 355.01 79.7098C358.714 79.4864 361.646 82.444 361.76 84.3347Z" fill="white"/>
<path fill-rule="evenodd" clip-rule="evenodd" d="M359.669 85.7094C360.175 85.0562 360.275 84.6256 360.263 84.425C360.242 84.0863 359.85 83.2278 358.806 82.4104C357.831 81.6467 356.524 81.1212 355.1 81.2071C353.325 81.3142 351.335 81.6349 349.861 82.2226C348.253 82.8639 347.984 83.4885 348.007 83.8694C348.082 85.1172 348.513 86.7779 349.294 88.0521C350.072 89.3213 350.999 89.9337 352.076 89.8688C353.554 89.7796 355.731 88.9021 357.559 87.626C358.454 87.0005 359.187 86.3331 359.669 85.7094ZM352.166 91.366C355.87 91.1427 361.935 87.2393 361.76 84.3347C361.646 82.444 358.714 79.4864 355.01 79.7098C351.306 79.9332 346.335 81.0551 346.51 83.9597C346.685 86.8643 348.463 91.5894 352.166 91.366Z" fill="#333333"/>
<path d="M42 45C42.5523 45 43 44.5523 43 44C43 43.4477 42.5523 43 42 43V45ZM25.2929 43.2929C24.9024 43.6834 24.9024 44.3166 25.2929 44.7071L31.6569 51.0711C32.0474 51.4616 32.6805 51.4616 33.0711 51.0711C33.4616 50.6805 33.4616 50.0474 33.0711 49.6569L27.4142 44L33.0711 38.3431C33.4616 37.9526 33.4616 37.3195 33.0711 36.9289C32.6805 36.5384 32.0474 36.5384 31.6569 36.9289L25.2929 43.2929ZM42 43H26V45H42V43Z" fill="#192435"/>
<rect x="26" y="70" width="35" height="2" rx="1" fill="#E2E2E2"/>
<rect x="77" y="70" width="35" height="2" rx="1" fill="#2B74DA"/>
<rect x="26.5" y="96.5" width="195" height="34" rx="1.5" fill="white" stroke="#E2E2E2"/>
<rect x="13" y="82" width="288" height="1" fill="#E2E2E2"/>
<rect x="68" y="81" width="53" height="2" fill="#2B74DA"/>
<path d="M36.5213 116.227L36.6545 114.166L34.9286 115.322L34.2148 114.065L36.0739 113.159L34.2148 112.254L34.9286 110.996L36.6545 112.152L36.5213 110.091H37.9542L37.8157 112.152L39.5415 110.996L40.2553 112.254L38.4016 113.159L40.2553 114.065L39.5415 115.322L37.8157 114.166L37.9542 116.227H36.5213Z" fill="#192435"/>
<path d="M44.9881 116.227L45.1213 114.166L43.3954 115.322L42.6816 114.065L44.5407 113.159L42.6816 112.254L43.3954 110.996L45.1213 112.152L44.9881 110.091H46.421L46.2825 112.152L48.0083 110.996L48.7221 112.254L46.8684 113.159L48.7221 114.065L48.0083 115.322L46.2825 114.166L46.421 116.227H44.9881Z" fill="#192435"/>
<path d="M53.4549 116.227L53.5881 114.166L51.8622 115.322L51.1484 114.065L53.0075 113.159L51.1484 112.254L51.8622 110.996L53.5881 112.152L53.4549 110.091H54.8878L54.7493 112.152L56.4751 110.996L57.1889 112.254L55.3352 113.159L57.1889 114.065L56.4751 115.322L54.7493 114.166L54.8878 116.227H53.4549Z" fill="#192435"/>
<path d="M61.9217 116.227L62.0549 114.166L60.329 115.322L59.6152 114.065L61.4743 113.159L59.6152 112.254L60.329 110.996L62.0549 112.152L61.9217 110.091H63.3546L63.2161 112.152L64.9419 110.996L65.6557 112.254L63.802 113.159L65.6557 114.065L64.9419 115.322L63.2161 114.166L63.3546 116.227H61.9217Z" fill="#192435"/>
<path d="M70.3885 116.227L70.5217 114.166L68.7958 115.322L68.082 114.065L69.9411 113.159L68.082 112.254L68.7958 110.996L70.5217 112.152L70.3885 110.091H71.8214L71.6829 112.152L73.4087 110.996L74.1225 112.254L72.2688 113.159L74.1225 114.065L73.4087 115.322L71.6829 114.166L71.8214 116.227H70.3885Z" fill="#192435"/>
<path d="M78.8553 116.227L78.9885 114.166L77.2626 115.322L76.5488 114.065L78.4078 113.159L76.5488 112.254L77.2626 110.996L78.9885 112.152L78.8553 110.091H80.2882L80.1497 112.152L81.8755 110.996L82.5893 112.254L80.7356 113.159L82.5893 114.065L81.8755 115.322L80.1497 114.166L80.2882 116.227H78.8553Z" fill="#192435"/>
<path d="M87.3221 116.227L87.4553 114.166L85.7294 115.322L85.0156 114.065L86.8746 113.159L85.0156 112.254L85.7294 110.996L87.4553 112.152L87.3221 110.091H88.755L88.6165 112.152L90.3423 110.996L91.0561 112.254L89.2024 113.159L91.0561 114.065L90.3423 115.322L88.6165 114.166L88.755 116.227H87.3221Z" fill="#192435"/>
<path d="M95.7889 116.227L95.9221 114.166L94.1962 115.322L93.4824 114.065L95.3414 113.159L93.4824 112.254L94.1962 110.996L95.9221 112.152L95.7889 110.091H97.2218L97.0833 112.152L98.8091 110.996L99.5229 112.254L97.6692 113.159L99.5229 114.065L98.8091 115.322L97.0833 114.166L97.2218 116.227H95.7889Z" fill="#192435"/>
<path d="M104.256 116.227L104.389 114.166L102.663 115.322L101.949 114.065L103.808 113.159L101.949 112.254L102.663 110.996L104.389 112.152L104.256 110.091H105.689L105.55 112.152L107.276 110.996L107.99 112.254L106.136 113.159L107.99 114.065L107.276 115.322L105.55 114.166L105.689 116.227H104.256Z" fill="#192435"/>
<path d="M112.722 116.227L112.856 114.166L111.13 115.322L110.416 114.065L112.275 113.159L110.416 112.254L111.13 110.996L112.856 112.152L112.722 110.091H114.155L114.017 112.152L115.743 110.996L116.456 112.254L114.603 113.159L116.456 114.065L115.743 115.322L114.017 114.166L114.155 116.227H112.722Z" fill="#192435"/>
<path d="M121.189 116.227L121.322 114.166L119.597 115.322L118.883 114.065L120.742 113.159L118.883 112.254L119.597 110.996L121.322 112.152L121.189 110.091H122.622L122.484 112.152L124.21 110.996L124.923 112.254L123.07 113.159L124.923 114.065L124.21 115.322L122.484 114.166L122.622 116.227H121.189Z" fill="#192435"/>
<path d="M129.656 116.227L129.789 114.166L128.063 115.322L127.35 114.065L129.209 113.159L127.35 112.254L128.063 110.996L129.789 112.152L129.656 110.091H131.089L130.95 112.152L132.676 110.996L133.39 112.254L131.536 113.159L133.39 114.065L132.676 115.322L130.95 114.166L131.089 116.227H129.656Z" fill="#192435"/>
<path d="M138.123 116.227L138.256 114.166L136.53 115.322L135.816 114.065L137.675 113.159L135.816 112.254L136.53 110.996L138.256 112.152L138.123 110.091H139.556L139.417 112.152L141.143 110.996L141.857 112.254L140.003 113.159L141.857 114.065L141.143 115.322L139.417 114.166L139.556 116.227H138.123Z" fill="#192435"/>
<path d="M146.59 116.227L146.723 114.166L144.997 115.322L144.283 114.065L146.142 113.159L144.283 112.254L144.997 110.996L146.723 112.152L146.59 110.091H148.023L147.884 112.152L149.61 110.996L150.324 112.254L148.47 113.159L150.324 114.065L149.61 115.322L147.884 114.166L148.023 116.227H146.59Z" fill="#192435"/>
<path d="M155.056 116.227L155.19 114.166L153.464 115.322L152.75 114.065L154.609 113.159L152.75 112.254L153.464 110.996L155.19 112.152L155.056 110.091H156.489L156.351 112.152L158.077 110.996L158.79 112.254L156.937 113.159L158.79 114.065L158.077 115.322L156.351 114.166L156.489 116.227H155.056Z" fill="#192435"/>
<path d="M163.523 116.227L163.656 114.166L161.931 115.322L161.217 114.065L163.076 113.159L161.217 112.254L161.931 110.996L163.656 112.152L163.523 110.091H164.956L164.818 112.152L166.544 110.996L167.257 112.254L165.404 113.159L167.257 114.065L166.544 115.322L164.818 114.166L164.956 116.227H163.523Z" fill="#192435"/>
<path d="M171.99 116.227L172.123 114.166L170.397 115.322L169.684 114.065L171.543 113.159L169.684 112.254L170.397 110.996L172.123 112.152L171.99 110.091H173.423L173.284 112.152L175.01 110.996L175.724 112.254L173.87 113.159L175.724 114.065L175.01 115.322L173.284 114.166L173.423 116.227H171.99Z" fill="#192435"/>
<path d="M180.457 116.227L180.59 114.166L178.864 115.322L178.15 114.065L180.009 113.159L178.15 112.254L178.864 110.996L180.59 112.152L180.457 110.091H181.89L181.751 112.152L183.477 110.996L184.191 112.254L182.337 113.159L184.191 114.065L183.477 115.322L181.751 114.166L181.89 116.227H180.457Z" fill="#192435"/>
<path d="M188.924 116.227L189.057 114.166L187.331 115.322L186.617 114.065L188.476 113.159L186.617 112.254L187.331 110.996L189.057 112.152L188.924 110.091H190.357L190.218 112.152L191.944 110.996L192.658 112.254L190.804 113.159L192.658 114.065L191.944 115.322L190.218 114.166L190.357 116.227H188.924Z" fill="#192435"/>
</svg>
