<svg width="170" height="64" viewBox="0 0 170 64" fill="none" xmlns="http://www.w3.org/2000/svg">
<path d="M57.2674 16.6058C57.7607 16.5703 58.2557 16.6449 58.7167 16.8243C59.1777 17.0036 59.5933 17.2831 59.9333 17.6428C60.2734 18.0024 60.5295 18.4331 60.6832 18.9038C60.8369 19.3746 60.8844 19.8736 60.8222 20.3649C60.8222 22.7819 59.5178 24.1713 57.2674 24.1713H54.5386V16.6058H57.2674ZM55.712 23.1013H57.1363C57.4888 23.1224 57.8416 23.0646 58.1689 22.9319C58.4963 22.7993 58.79 22.5952 59.0286 22.3346C59.2673 22.0739 59.4449 21.7633 59.5485 21.4252C59.6522 21.0872 59.6793 20.7302 59.6278 20.3804C59.6755 20.0319 59.6457 19.6772 59.5405 19.3416C59.4352 19.006 59.2572 18.6979 59.0191 18.4393C58.781 18.1808 58.4887 17.9781 58.1632 17.846C57.8377 17.7138 57.487 17.6554 57.1363 17.6749H55.712V23.1013Z" fill="white"/>
<path d="M62.1477 21.3139C62.1118 20.9387 62.1547 20.5602 62.2735 20.2025C62.3923 19.8449 62.5845 19.516 62.8376 19.2371C63.0908 18.9582 63.3993 18.7353 63.7435 18.5828C64.0877 18.4303 64.4599 18.3516 64.8363 18.3516C65.2127 18.3516 65.5849 18.4303 65.9291 18.5828C66.2733 18.7353 66.5819 18.9582 66.835 19.2371C67.0882 19.516 67.2803 19.8449 67.3992 20.2025C67.518 20.5602 67.5608 20.9387 67.525 21.3139C67.5615 21.6895 67.5192 22.0686 67.4007 22.4268C67.2822 22.785 67.0901 23.1145 66.8369 23.3939C66.5837 23.6734 66.2749 23.8967 65.9304 24.0496C65.5858 24.2024 65.2132 24.2813 64.8363 24.2813C64.4595 24.2813 64.0868 24.2024 63.7423 24.0496C63.3978 23.8967 63.089 23.6734 62.8357 23.3939C62.5825 23.1145 62.3905 22.785 62.272 22.4268C62.1535 22.0686 62.1111 21.6895 62.1477 21.3139ZM66.3677 21.3139C66.3677 20.0763 65.8125 19.3526 64.8382 19.3526C63.8602 19.3526 63.31 20.0763 63.31 21.3139C63.31 22.5614 63.8602 23.2796 64.8382 23.2796C65.8125 23.2796 66.3677 22.5565 66.3677 21.3139H66.3677Z" fill="white"/>
<path d="M74.6729 24.171H73.5057L72.3274 19.9661H72.2384L71.065 24.171H69.9089L68.3373 18.4617H69.4786L70.4999 22.8183H70.584L71.7561 18.4617H72.8356L74.0077 22.8183H74.0967L75.1131 18.4617H76.2383L74.6729 24.171Z" fill="white"/>
<path d="M77.56 18.4615H78.6431V19.3685H78.7272C78.8698 19.0428 79.1104 18.7697 79.4154 18.5873C79.7204 18.405 80.0745 18.3225 80.4286 18.3513C80.706 18.3304 80.9845 18.3723 81.2436 18.4739C81.5026 18.5754 81.7355 18.7341 81.925 18.938C82.1146 19.1419 82.2558 19.386 82.3384 19.652C82.4209 19.918 82.4427 20.1993 82.4019 20.4748V24.1708H81.2768V20.7578C81.2768 19.8403 80.8786 19.384 80.0465 19.384C79.8582 19.3752 79.6701 19.4073 79.4953 19.4781C79.3205 19.5489 79.1631 19.6567 79.0338 19.7941C78.9045 19.9315 78.8064 20.0953 78.7462 20.2743C78.686 20.4532 78.6652 20.6431 78.6852 20.8308V24.1709H77.56L77.56 18.4615Z" fill="white"/>
<path d="M84.1948 16.2327H85.3199V24.1708H84.1948V16.2327Z" fill="white"/>
<path d="M86.8841 21.3138C86.8483 20.9385 86.8912 20.56 87.01 20.2023C87.1288 19.8447 87.321 19.5158 87.5742 19.2369C87.8274 18.958 88.136 18.7351 88.4802 18.5826C88.8244 18.4301 89.1967 18.3513 89.5731 18.3513C89.9495 18.3513 90.3217 18.4301 90.6659 18.5826C91.0102 18.7351 91.3187 18.958 91.5719 19.2369C91.8251 19.5158 92.0173 19.8447 92.1361 20.2023C92.255 20.56 92.2978 20.9385 92.262 21.3138C92.2985 21.6894 92.2561 22.0685 92.1376 22.4267C92.019 22.7849 91.827 23.1143 91.5737 23.3938C91.3205 23.6733 91.0117 23.8966 90.6671 24.0494C90.3226 24.2022 89.9499 24.2812 89.5731 24.2812C89.1962 24.2812 88.8235 24.2022 88.479 24.0494C88.1344 23.8966 87.8256 23.6733 87.5724 23.3938C87.3191 23.1143 87.1271 22.7849 87.0085 22.4267C86.89 22.0685 86.8476 21.6894 86.8841 21.3138ZM91.1041 21.3138C91.1041 20.0762 90.5489 19.3525 89.5746 19.3525C88.5966 19.3525 88.0464 20.0762 88.0464 21.3138C88.0464 22.5613 88.5966 23.2794 89.5746 23.2794C90.5489 23.2794 91.1041 22.5563 91.1041 21.3138H91.1041Z" fill="white"/>
<path d="M93.4465 22.5563C93.4465 21.5285 94.2107 20.9361 95.567 20.8519L97.1114 20.7627V20.2699C97.1114 19.6669 96.7132 19.3264 95.9442 19.3264C95.3161 19.3264 94.8808 19.5573 94.7559 19.961H93.6666C93.7816 18.9803 94.7028 18.3513 95.9961 18.3513C97.4254 18.3513 98.2316 19.0639 98.2316 20.2699V24.1709H97.1485V23.3685H97.0594C96.8787 23.6563 96.625 23.891 96.3241 24.0485C96.0233 24.206 95.6861 24.2807 95.347 24.265C95.1076 24.2899 94.8657 24.2643 94.6368 24.1899C94.408 24.1155 94.1972 23.9938 94.0182 23.8329C93.8391 23.6719 93.6958 23.4751 93.5973 23.2552C93.4988 23.0353 93.4475 22.7972 93.4465 22.5563ZM97.1114 22.0684V21.5911L95.7191 21.6802C94.934 21.7329 94.5779 22.0003 94.5779 22.5036C94.5779 23.0175 95.023 23.3165 95.6351 23.3165C95.8144 23.3347 95.9956 23.3166 96.1678 23.2632C96.34 23.2098 96.4997 23.1223 96.6374 23.0059C96.7752 22.8894 96.8881 22.7464 96.9695 22.5854C97.051 22.4243 97.0992 22.2485 97.1114 22.0684Z" fill="white"/>
<path d="M99.7104 21.3137C99.7104 19.5096 100.636 18.3667 102.077 18.3667C102.433 18.3503 102.787 18.4358 103.096 18.6131C103.406 18.7905 103.659 19.0525 103.825 19.3684H103.909V16.2327H105.035V24.1708H103.956V23.2688H103.867C103.688 23.5826 103.426 23.8413 103.111 24.0169C102.795 24.1924 102.438 24.2782 102.077 24.2649C100.627 24.265 99.7104 23.1221 99.7104 21.3137ZM100.873 21.3137C100.873 22.5246 101.443 23.2533 102.396 23.2533C103.344 23.2533 103.93 22.5141 103.93 21.3186C103.93 20.1287 103.338 19.379 102.396 19.379C101.449 19.379 100.873 20.1126 100.873 21.3137H100.873Z" fill="white"/>
<path d="M109.826 16.7734C109.817 16.6274 109.852 16.4822 109.927 16.3566C110.002 16.231 110.112 16.1307 110.245 16.0688C110.377 16.0068 110.525 15.9861 110.669 16.0092C110.813 16.0323 110.947 16.0983 111.053 16.1985C111.159 16.2987 111.233 16.4285 111.265 16.5712C111.297 16.7139 111.285 16.8629 111.231 16.9988C111.177 17.1347 111.084 17.2514 110.963 17.3336C110.843 17.4158 110.7 17.4598 110.554 17.4599C110.461 17.4647 110.367 17.4505 110.28 17.4183C110.192 17.386 110.112 17.3363 110.044 17.2722C109.976 17.208 109.921 17.1308 109.884 17.0451C109.846 16.9593 109.827 16.8669 109.826 16.7734ZM109.993 18.4617H111.114V24.171H109.993V18.4617Z" fill="white"/>
<path d="M112.929 18.4615H114.012V19.3685H114.096C114.239 19.0428 114.48 18.7697 114.785 18.5873C115.09 18.405 115.444 18.3225 115.798 18.3513C116.075 18.3304 116.354 18.3723 116.613 18.4739C116.872 18.5754 117.105 18.7341 117.294 18.938C117.484 19.1419 117.625 19.386 117.708 19.652C117.79 19.918 117.812 20.1993 117.771 20.4748V24.1708H116.646V20.7578C116.646 19.8403 116.248 19.384 115.416 19.384C115.227 19.3752 115.039 19.4073 114.865 19.4781C114.69 19.5489 114.532 19.6567 114.403 19.7941C114.274 19.9315 114.176 20.0953 114.115 20.2743C114.055 20.4532 114.034 20.6431 114.054 20.8308V24.1709H112.929V18.4615Z" fill="white"/>
<path d="M122.323 21.3137C122.323 19.5096 123.249 18.3667 124.689 18.3667C125.046 18.3503 125.399 18.4358 125.709 18.6131C126.018 18.7905 126.271 19.0525 126.438 19.3684H126.522V16.2327H127.647V24.1708H126.569V23.2688H126.48C126.3 23.5826 126.039 23.8413 125.723 24.0169C125.408 24.1924 125.05 24.2782 124.689 24.2649C123.239 24.265 122.323 23.1221 122.323 21.3137ZM123.485 21.3137C123.485 22.5246 124.055 23.2533 125.008 23.2533C125.957 23.2533 126.543 22.5141 126.543 21.3186C126.543 20.1287 125.95 19.379 125.008 19.379C124.061 19.379 123.485 20.1126 123.485 21.3137H123.485Z" fill="white"/>
<path d="M134.314 22.6294C134.161 23.1512 133.83 23.6026 133.378 23.9045C132.926 24.2065 132.383 24.3398 131.843 24.2812C131.468 24.2911 131.094 24.2191 130.749 24.07C130.404 23.921 130.096 23.6986 129.845 23.4182C129.595 23.1378 129.408 22.8062 129.298 22.4463C129.188 22.0865 129.158 21.707 129.21 21.3343C129.16 20.9604 129.19 20.5801 129.3 20.2191C129.409 19.8582 129.595 19.525 129.844 19.2422C130.094 18.9593 130.401 18.7334 130.745 18.5797C131.089 18.4261 131.462 18.3482 131.838 18.3514C133.425 18.3514 134.382 19.4368 134.382 21.2296V21.6228H130.356V21.6859C130.338 21.8954 130.364 22.1063 130.433 22.3051C130.502 22.5038 130.611 22.686 130.754 22.84C130.897 22.994 131.07 23.1164 131.263 23.1993C131.456 23.2823 131.664 23.3239 131.874 23.3215C132.143 23.3539 132.416 23.3054 132.658 23.1821C132.899 23.0589 133.099 22.8665 133.231 22.6294L134.314 22.6294ZM130.356 20.7894H133.235C133.25 20.5978 133.224 20.4054 133.159 20.2244C133.095 20.0434 132.993 19.878 132.861 19.7387C132.729 19.5994 132.569 19.4894 132.392 19.4156C132.215 19.3418 132.024 19.306 131.832 19.3104C131.637 19.308 131.444 19.3446 131.264 19.418C131.084 19.4915 130.92 19.6004 130.783 19.7382C130.645 19.876 130.536 20.0401 130.463 20.2206C130.39 20.4012 130.353 20.5946 130.356 20.7894H130.356Z" fill="white"/>
<path d="M40.7352 31.275C40.7489 30.2167 41.0296 29.179 41.5512 28.2586C42.0729 27.3381 42.8186 26.5648 43.7189 26.0105C43.147 25.1925 42.3924 24.5193 41.5152 24.0444C40.638 23.5695 39.6623 23.3059 38.6656 23.2747C36.5395 23.0512 34.4783 24.5487 33.3949 24.5487C32.2905 24.5487 30.6224 23.2969 28.8261 23.3339C27.6642 23.3715 26.5318 23.7098 25.5393 24.316C24.5469 24.9221 23.7281 25.7754 23.1628 26.7926C20.7141 31.0382 22.5406 37.2777 24.8862 40.7095C26.0598 42.3899 27.4314 44.267 29.2261 44.2005C30.9822 44.1275 31.6382 43.079 33.758 43.079C35.8582 43.079 36.4736 44.2005 38.3047 44.1581C40.1892 44.1275 41.3765 42.4702 42.5089 40.7739C43.3521 39.5765 44.0009 38.2531 44.4314 36.8528C43.3365 36.3891 42.4022 35.6129 41.745 34.621C41.0877 33.6291 40.7365 32.4654 40.7352 31.275Z" fill="white"/>
<path d="M37.2767 21.0179C38.3042 19.7827 38.8104 18.195 38.6878 16.592C37.118 16.7572 35.668 17.5085 34.6266 18.6963C34.1174 19.2766 33.7275 19.9517 33.479 20.683C33.2305 21.4143 33.1284 22.1875 33.1785 22.9583C33.9637 22.9664 34.7405 22.796 35.4503 22.4599C36.1602 22.1237 36.7847 21.6307 37.2767 21.0179Z" fill="white"/>
<path d="M62.9347 39.9466H56.9416L55.5024 44.2024H52.964L58.6405 28.4573H61.2779L66.9544 44.2024H64.3727L62.9347 39.9466ZM57.5623 37.9828H62.3128L59.971 31.0761H59.9055L57.5623 37.9828Z" fill="white"/>
<path d="M79.2139 38.4632C79.2139 42.0304 77.3072 44.3224 74.43 44.3224C73.7012 44.3605 72.9763 44.1924 72.3385 43.8372C71.7006 43.482 71.1755 42.9541 70.8233 42.314H70.7689V47.9998H68.4159V32.7228H70.6935V34.6321H70.7367C71.1051 33.995 71.6391 33.4699 72.2818 33.1125C72.9245 32.7552 73.652 32.579 74.3867 32.6027C77.2961 32.6027 79.2139 34.9058 79.2139 38.4632ZM76.7953 38.4632C76.7953 36.139 75.596 34.6111 73.766 34.6111C71.9682 34.6111 70.759 36.1712 70.759 38.4632C70.759 40.7761 71.9682 42.3251 73.766 42.3251C75.596 42.3251 76.7953 40.8083 76.7953 38.4632Z" fill="white"/>
<path d="M91.8305 38.4631C91.8305 42.0304 89.9239 44.3223 87.0467 44.3223C86.3179 44.3605 85.593 44.1924 84.9552 43.8372C84.3173 43.482 83.7922 42.9541 83.44 42.3139H83.3856V47.9998H81.0326V32.7228H83.3101V34.6321H83.3534C83.7218 33.995 84.2557 33.4699 84.8985 33.1125C85.5412 32.7552 86.2686 32.579 87.0034 32.6027C89.9128 32.6027 91.8305 34.9058 91.8305 38.4631ZM89.412 38.4631C89.412 36.139 88.2127 34.6111 86.3827 34.6111C84.5849 34.6111 83.3757 36.1712 83.3757 38.4631C83.3757 40.7761 84.5849 42.3251 86.3827 42.3251C88.2127 42.3251 89.4121 40.8083 89.4121 38.4631H89.412Z" fill="white"/>
<path d="M100.169 39.8155C100.344 41.3769 101.858 42.402 103.928 42.402C105.911 42.402 107.338 41.3768 107.338 39.969C107.338 38.7468 106.478 38.0151 104.44 37.5136L102.402 37.022C99.5151 36.3237 98.1748 34.9715 98.1748 32.7774C98.1748 30.0608 100.539 28.1948 103.896 28.1948C107.218 28.1948 109.496 30.0608 109.572 32.7774H107.197C107.055 31.2061 105.758 30.2577 103.862 30.2577C101.967 30.2577 100.67 31.2173 100.67 32.614C100.67 33.7271 101.498 34.3822 103.525 34.8836L105.257 35.3095C108.483 36.0735 109.823 37.3712 109.823 39.6742C109.823 42.6199 107.48 44.4648 103.754 44.4648C100.267 44.4648 97.9126 42.6632 97.7606 39.8154L100.169 39.8155Z" fill="white"/>
<path d="M114.901 30.0063V32.723H117.081V34.589H114.901V40.9174C114.901 41.9006 115.338 42.3587 116.296 42.3587C116.555 42.3542 116.813 42.336 117.07 42.3042V44.159C116.639 44.2396 116.201 44.2762 115.763 44.268C113.442 44.268 112.537 43.3951 112.537 41.1688V34.589H110.871V32.723H112.537V30.0063H114.901Z" fill="white"/>
<path d="M118.344 38.4633C118.344 34.8514 120.468 32.5818 123.78 32.5818C127.104 32.5818 129.218 34.8514 129.218 38.4633C129.218 42.085 127.115 44.3448 123.78 44.3448C120.447 44.3448 118.344 42.085 118.344 38.4633ZM126.821 38.4633C126.821 35.9856 125.687 34.5233 123.78 34.5233C121.874 34.5233 120.741 35.9968 120.741 38.4633C120.741 40.9508 121.874 42.402 123.78 42.402C125.687 42.402 126.821 40.9508 126.821 38.4633H126.821Z" fill="white"/>
<path d="M131.158 32.7232H133.402V34.6771H133.457C133.609 34.0668 133.966 33.5275 134.468 33.1498C134.97 32.7722 135.587 32.5791 136.214 32.6031C136.485 32.6021 136.756 32.6316 137.02 32.691V34.895C136.678 34.7902 136.321 34.7421 135.963 34.7526C135.621 34.7387 135.281 34.7991 134.964 34.9295C134.648 35.06 134.364 35.2574 134.131 35.5084C133.898 35.7593 133.722 36.0577 133.615 36.3831C133.508 36.7086 133.473 37.0533 133.511 37.3937V44.2026H131.158L131.158 32.7232Z" fill="white"/>
<path d="M147.869 40.8307C147.552 42.9146 145.526 44.3448 142.933 44.3448C139.598 44.3448 137.529 42.1073 137.529 38.5178C137.529 34.9171 139.609 32.5818 142.834 32.5818C146.006 32.5818 148 34.7635 148 38.2441V39.0514H139.904V39.1938C139.866 39.6163 139.919 40.0419 140.059 40.4423C140.198 40.8428 140.421 41.209 140.713 41.5165C141.004 41.824 141.358 42.0659 141.75 42.226C142.142 42.3862 142.564 42.4609 142.987 42.4453C143.543 42.4975 144.101 42.3686 144.578 42.0776C145.055 41.7867 145.426 41.3494 145.635 40.8307L147.869 40.8307ZM139.915 37.4046H145.646C145.667 37.0247 145.609 36.6446 145.477 36.2881C145.344 35.9315 145.14 35.6062 144.876 35.3327C144.612 35.0591 144.294 34.8431 143.943 34.6983C143.591 34.5535 143.214 34.4829 142.834 34.4911C142.451 34.4888 142.071 34.5625 141.717 34.708C141.362 34.8535 141.04 35.0679 140.768 35.3387C140.497 35.6096 140.282 35.9316 140.135 36.2862C139.989 36.6408 139.914 37.0209 139.915 37.4046V37.4046Z" fill="white"/>
</svg>
