<svg width="171" height="64" viewBox="0 0 171 64" fill="none" xmlns="http://www.w3.org/2000/svg">
<path d="M128.125 42.6913H130.15V29.4772H128.125V42.6913ZM146.364 34.2372L144.043 39.9662H143.974L141.565 34.2372H139.383L142.996 42.2445L140.936 46.6985H143.049L148.616 34.2372H146.364ZM134.881 41.1905C134.217 41.1905 133.292 40.8676 133.292 40.0682C133.292 39.0483 134.444 38.6573 135.438 38.6573C136.329 38.6573 136.747 38.8443 137.289 39.0996C137.131 40.3234 136.049 41.1905 134.881 41.1905ZM135.125 33.9482C133.659 33.9482 132.141 34.5774 131.512 35.9714L133.309 36.7022C133.693 35.9714 134.409 35.7332 135.16 35.7332C136.207 35.7332 137.271 36.3455 137.289 37.4335V37.5693C136.922 37.3653 136.137 37.0594 135.177 37.0594C133.24 37.0594 131.267 38.0961 131.267 40.0343C131.267 41.8024 132.856 42.9415 134.635 42.9415C135.997 42.9415 136.747 42.3465 137.219 41.6496H137.289V42.6695H139.243V37.6031C139.243 35.2575 137.446 33.9482 135.125 33.9482ZM122.61 35.8458H119.73V31.3164H122.61C124.124 31.3164 124.984 32.5372 124.984 33.581C124.984 34.6051 124.124 35.8458 122.61 35.8458ZM122.558 29.4772H117.706V42.6913H119.73V37.685H122.558C124.802 37.685 127.009 36.1023 127.009 33.581C127.009 31.0599 124.802 29.4772 122.558 29.4772ZM96.0996 41.1929C94.7007 41.1929 93.5294 40.0521 93.5294 38.4851C93.5294 36.9017 94.7007 35.7435 96.0996 35.7435C97.4808 35.7435 98.5647 36.9017 98.5647 38.4851C98.5647 40.0521 97.4808 41.1929 96.0996 41.1929ZM98.4248 34.9772H98.3548C97.9004 34.4494 97.0259 33.9726 95.9246 33.9726C93.6168 33.9726 91.5015 35.9478 91.5015 38.4851C91.5015 41.0055 93.6168 42.9639 95.9246 42.9639C97.0259 42.9639 97.9004 42.4869 98.3548 41.9423H98.4248V42.5893C98.4248 44.3096 97.4808 45.2291 95.9597 45.2291C94.7185 45.2291 93.9492 44.3603 93.6341 43.6282L91.8686 44.3434C92.3756 45.5354 93.7219 47 95.9597 47C98.3374 47 100.348 45.6374 100.348 42.3168V34.2451H98.4248V34.9772ZM101.747 42.6913H103.775V29.4768H101.747V42.6913ZM106.764 38.332C106.712 36.5948 108.145 35.7096 109.177 35.7096C109.982 35.7096 110.663 36.101 110.89 36.6634L106.764 38.332ZM113.058 36.8335C112.674 35.8285 111.502 33.9726 109.107 33.9726C106.729 33.9726 104.754 35.7947 104.754 38.4682C104.754 40.9886 106.712 42.9639 109.334 42.9639C111.45 42.9639 112.674 41.7037 113.181 40.9716L111.607 39.9496C111.083 40.6991 110.366 41.1929 109.334 41.1929C108.303 41.1929 107.569 40.733 107.096 39.8307L113.268 37.3443L113.058 36.8335ZM63.8893 35.352V37.2592H68.5747C68.4348 38.332 68.0677 39.1152 67.5081 39.6602C66.8265 40.3246 65.76 41.0567 63.8893 41.0567C61.0045 41.0567 58.7493 38.7919 58.7493 35.9821C58.7493 33.1723 61.0045 30.9072 63.8893 30.9072C65.4454 30.9072 66.5815 31.5034 67.4208 32.2697L68.8019 30.9245C67.6307 29.8344 66.0745 29 63.8893 29C59.9379 29 56.6162 32.1335 56.6162 35.9821C56.6162 39.8307 59.9379 42.9639 63.8893 42.9639C66.0224 42.9639 67.6307 42.283 68.8893 41.0055C70.1831 39.7453 70.5854 37.9744 70.5854 36.5441C70.5854 36.101 70.5505 35.6927 70.4802 35.352H63.8893ZM75.9122 41.1929C74.5133 41.1929 73.3069 40.069 73.3069 38.4682C73.3069 36.8504 74.5133 35.7435 75.9122 35.7435C77.3106 35.7435 78.5171 36.8504 78.5171 38.4682C78.5171 40.069 77.3106 41.1929 75.9122 41.1929ZM75.9122 33.9726C73.3594 33.9726 71.2788 35.8627 71.2788 38.4682C71.2788 41.0567 73.3594 42.9639 75.9122 42.9639C78.4645 42.9639 80.5451 41.0567 80.5451 38.4682C80.5451 35.8627 78.4645 33.9726 75.9122 33.9726ZM86.019 41.1929C84.6206 41.1929 83.4141 40.069 83.4141 38.4682C83.4141 36.8504 84.6206 35.7435 86.019 35.7435C87.4175 35.7435 88.6239 36.8504 88.6239 38.4682C88.6239 40.069 87.4175 41.1929 86.019 41.1929ZM86.019 33.9726C83.4663 33.9726 81.3861 35.8627 81.3861 38.4682C81.3861 41.0567 83.4663 42.9639 86.019 42.9639C88.5714 42.9639 90.652 41.0567 90.652 38.4682C90.652 35.8627 88.5714 33.9726 86.019 33.9726Z" fill="white"/>
<path fill-rule="evenodd" clip-rule="evenodd" d="M117.237 22.2587C116.776 21.7915 116.545 21.2036 116.545 20.4707C116.545 19.7377 116.776 19.1501 117.237 18.6829C117.702 18.2158 118.258 17.9867 118.931 17.9854C119.604 17.9867 120.161 18.2158 120.625 18.6829C121.088 19.1501 121.318 19.7377 121.319 20.4707C121.318 21.2036 121.088 21.7913 120.625 22.2584C120.161 22.7255 119.604 22.9546 118.931 22.9559C118.258 22.9546 117.702 22.7256 117.237 22.2587ZM122.392 20.4707C122.393 21.4438 122.06 22.2795 121.401 22.9533C120.741 23.6301 119.91 23.9713 118.931 23.9705C117.953 23.9713 117.121 23.6301 116.463 22.9533C115.802 22.2791 115.47 21.4438 115.472 20.4707C115.47 19.4976 115.802 18.6618 116.463 17.9876C117.121 17.3108 117.953 16.9693 118.931 16.9705C119.904 16.9693 120.734 17.3129 121.397 17.9923C122.059 18.6691 122.393 19.5031 122.392 20.4707ZM76.0777 18.0633H73.9227V23.9822H72.8909V18.0633H70.7267V17.1237H76.0777V18.0633ZM88.2933 23.9851V17.1623H89.316V20.6265L92.3659 17.1528H93.4982L90.9414 20.133L93.702 23.9851H92.5423L90.2931 20.8068L89.316 21.8603V23.9851H88.2933ZM101.573 23.9757V17.1237H100.542V19.9425H97.2726V17.1237H96.2498V23.9757H97.2726V20.8916H100.542V23.9757H101.573ZM124.256 18.1378V20.1884H125.55C125.879 20.1872 126.124 20.0837 126.317 19.8715C126.514 19.6504 126.607 19.4208 126.607 19.1638C126.607 18.9068 126.514 18.6764 126.317 18.4561C126.124 18.2435 125.879 18.1395 125.55 18.1378H124.256ZM124.256 23.8623V21.2034H125.532C126.108 21.2043 126.618 21.0094 127.04 20.626C127.466 20.243 127.682 19.7458 127.681 19.1638C127.682 18.5813 127.466 18.0837 127.04 17.7003C126.618 17.3173 126.108 17.1228 125.532 17.1237H123.201V23.9706H124.147H124.256V23.8623ZM110.658 18.1593V23.8651V23.9756H110.55H109.603V18.1593H107.782V18.0488V17.1237H112.48V17.2342V18.1593H110.658ZM107.026 18.0489V17.2343V17.1238H103.001V23.9757H107.026V23.0506V22.9401H104.056V21.0587H106.733V20.1513V20.0408H104.056V18.1594H107.026V18.0489ZM87.2927 17.2437V18.0583V18.1688H84.3231V20.0502H87.0005V20.1607V21.0681H84.3231V22.9495H87.2927V23.06V23.9851H83.2682V17.1332H87.2927V17.2437ZM58.3817 22.288L58.3815 22.2882C58.8468 22.7551 59.4031 22.9842 60.0759 22.9855C60.7489 22.9842 61.306 22.7551 61.7702 22.288C62.2326 21.8208 62.4631 21.2332 62.464 20.5002C62.4631 19.7673 62.2326 19.1796 61.7702 18.7125C61.306 18.2454 60.7489 18.0163 60.0759 18.015C59.403 18.0163 58.8466 18.2454 58.3813 18.7125H58.3817C57.9206 19.1796 57.6901 19.7673 57.6892 20.5002C57.6901 21.2332 57.9206 21.8208 58.3817 22.288ZM62.5455 22.9829C63.2049 22.3091 63.5379 21.4733 63.537 20.5002C63.5379 19.5326 63.2036 18.6986 62.5413 18.0218C61.8789 17.3424 61.0491 16.9988 60.0759 17C59.0976 16.9988 58.2659 17.3408 57.6072 18.0176V18.0171C56.947 18.6913 56.6149 19.5271 56.6162 20.5002C56.6149 21.4733 56.947 22.3091 57.6072 22.9833V22.9829C58.2659 23.6597 59.0976 24.0009 60.0759 24C61.0543 24.0009 61.886 23.6597 62.5455 22.9829ZM65.6847 17.1454L68.712 22.0627L68.6854 21.1307V17.1454H68.7941H69.7419V23.9852H69.6332H68.6977L65.5241 18.8188L65.5505 19.7504V23.9852H65.4418H64.6044H64.4957V17.1454H64.6044H65.6847ZM77.9415 18.1855V22.9524H78.99C79.7228 22.9511 80.2855 22.7419 80.7036 22.3278C81.1194 21.9146 81.3304 21.3369 81.3313 20.569C81.3304 19.8071 81.1198 19.2319 80.7033 18.8144C80.2855 18.3982 79.7224 18.1868 78.99 18.1855H77.9415ZM76.9951 23.9851H78.99C80.0133 23.986 80.8489 23.6696 81.4723 23.0337C82.0947 22.4006 82.4064 21.5698 82.4056 20.569C82.4064 19.5673 82.0947 18.7374 81.4727 18.1046C80.8489 17.4683 80.0133 17.152 78.99 17.1528H76.8864V23.9851H76.9951Z" fill="white"/>
<path d="M20.6162 18V46L34.6162 32L20.6162 18Z" fill="url(#paint0_linear)"/>
<path d="M20.6162 18V46L34.6162 32L20.6162 18Z" fill="url(#paint1_linear)"/>
<path d="M45.1007 31.0452L39.8162 28L35.6162 32L39.8162 36L45.1007 32.7484C45.41 32.5935 45.6162 32.2323 45.6162 31.871C45.6162 31.5097 45.41 31.2 45.1007 31.0452Z" fill="url(#paint2_linear)"/>
<path d="M45.1007 31.0452L39.8162 28L35.6162 32L39.8162 36L45.1007 32.7484C45.41 32.5935 45.6162 32.2323 45.6162 31.871C45.6162 31.5097 45.41 31.2 45.1007 31.0452Z" fill="url(#paint3_linear)"/>
<path d="M21.6162 46L39.2162 36.45L35.1162 32.5L21.6162 46Z" fill="url(#paint4_linear)"/>
<path d="M21.6162 46L39.2162 36.45L35.1162 32.5L21.6162 46Z" fill="url(#paint5_linear)"/>
<path d="M39.2162 27.55L33.6662 24.3L21.6162 18L35.1162 31.5L39.2162 27.55Z" fill="url(#paint6_linear)"/>
<path d="M39.2162 27.55L33.6662 24.3L21.6162 18L35.1162 31.5L39.2162 27.55Z" fill="url(#paint7_linear)"/>
<defs>
<linearGradient id="paint0_linear" x1="27.6162" y1="27.5" x2="20.6162" y2="36" gradientUnits="userSpaceOnUse">
<stop stop-color="#00E2FF"/>
<stop offset="1" stop-color="#03C6F5"/>
</linearGradient>
<linearGradient id="paint1_linear" x1="33.4263" y1="44.7588" x2="14.4787" y2="26.5978" gradientUnits="userSpaceOnUse">
<stop stop-color="#00A0FF"/>
<stop offset="0.00657445" stop-color="#00A1FF"/>
<stop offset="0.2601" stop-color="#00BEFF"/>
<stop offset="0.5122" stop-color="#00D2FF"/>
<stop offset="0.7604" stop-color="#00DFFF"/>
<stop offset="1" stop-color="#00E3FF"/>
</linearGradient>
<linearGradient id="paint2_linear" x1="40.6162" y1="28" x2="30.1162" y2="28" gradientUnits="userSpaceOnUse">
<stop stop-color="#FFEA0D"/>
<stop offset="1" stop-color="#FFCF00"/>
</linearGradient>
<linearGradient id="paint3_linear" x1="46.3752" y1="32.0695" x2="22.5698" y2="32.0695" gradientUnits="userSpaceOnUse">
<stop stop-color="#FFE000"/>
<stop offset="0.4087" stop-color="#FFBD00"/>
<stop offset="0.7754" stop-color="#FFA500"/>
<stop offset="1" stop-color="#FF9C00"/>
</linearGradient>
<linearGradient id="paint4_linear" x1="30.6162" y1="32" x2="19.1162" y2="43.5" gradientUnits="userSpaceOnUse">
<stop stop-color="#F73547"/>
<stop offset="1" stop-color="#E22652"/>
</linearGradient>
<linearGradient id="paint5_linear" x1="36.8799" y1="43.5906" x2="12.9913" y2="19.4439" gradientUnits="userSpaceOnUse">
<stop stop-color="#FF3A44"/>
<stop offset="1" stop-color="#C31162"/>
</linearGradient>
<linearGradient id="paint6_linear" x1="36.6162" y1="27.5" x2="21.6162" y2="18" gradientUnits="userSpaceOnUse">
<stop stop-color="#2EF38F"/>
<stop offset="1" stop-color="#0EDE76"/>
</linearGradient>
<linearGradient id="paint7_linear" x1="18.2142" y1="38.8109" x2="28.8818" y2="28.0452" gradientUnits="userSpaceOnUse">
<stop stop-color="#32A071"/>
<stop offset="0.0685" stop-color="#2DA771"/>
<stop offset="0.4762" stop-color="#15CF74"/>
<stop offset="0.8009" stop-color="#06E775"/>
<stop offset="1" stop-color="#00F076"/>
</linearGradient>
</defs>
</svg>
