<svg width="640" height="354" viewBox="0 0 640 354" fill="none" xmlns="http://www.w3.org/2000/svg">
<path opacity="0.5" d="M80 156V216C73.5694 196.661 75.9333 194.918 60 186C75.5556 183.081 75.5556 176.095 80 156ZM80 156V216C86.4306 196.661 84.0667 194.918 100 186C84.4444 183.081 84.4444 176.095 80 156Z" fill="#CCCCCC"/>
<path opacity="0.5" d="M557 39V99C550.569 79.6614 552.933 77.9183 537 69C552.556 66.0811 552.556 59.095 557 39ZM557 39V99C563.431 79.6614 561.067 77.9183 577 69C561.444 66.0811 561.444 59.095 557 39Z" fill="#CCCCCC"/>
<path opacity="0.5" d="M400 0V40C395.82 27.1085 397.355 25.9472 387 20.0014C397.111 18.0547 397.11 13.3955 400 0ZM400 0V40C404.18 27.1085 402.645 25.9472 413 20.0014C402.889 18.0547 402.89 13.3955 400 0Z" fill="#CCCCCC"/>
<path opacity="0.5" d="M112.5 0V40C108.159 27.1085 109.754 25.9472 99 20.0014C109.499 18.0547 109.499 13.3955 112.5 0ZM112.5 0V40C116.841 27.1085 115.246 25.9472 126 20.0014C115.501 18.0547 115.501 13.3955 112.5 0Z" fill="#CCCCCC"/>
<path opacity="0.5" d="M206 22V62C201.82 49.1085 203.355 47.9472 193 42.0014C203.111 40.0547 203.11 35.3955 206 22ZM206 22V62C210.18 49.1085 208.645 47.9472 219 42.0014C208.889 40.0547 208.89 35.3955 206 22Z" fill="#CCCCCC"/>
<path opacity="0.5" d="M25 79V119C20.8199 106.109 22.3554 104.947 12 99.0014C22.1132 97.0547 22.1133 92.3955 25 79ZM25 79V119C29.1801 106.109 27.6446 104.947 38 99.0014C27.8895 97.0547 27.8895 92.3955 25 79Z" fill="#CCCCCC"/>
<path opacity="0.5" d="M627 101V141C622.82 128.109 624.355 126.947 614 121.001C624.111 119.055 624.11 114.398 627 101ZM627 101V141C631.18 128.109 629.645 126.947 640 121.001C629.889 119.055 629.89 114.398 627 101Z" fill="#CCCCCC"/>
<path opacity="0.5" d="M567 182V211C563.785 201.653 564.965 200.81 557 196.5C564.776 195.089 564.776 191.713 567 182ZM567 182V211C570.215 201.653 569.035 200.81 577 196.5C569.221 195.089 569.221 191.713 567 182Z" fill="#CCCCCC"/>
<path opacity="0.5" d="M474.5 78V108C471.446 98.3305 472.567 97.4588 465 93C472.387 91.5407 472.387 88.0483 474.5 78ZM474.5 78V108C477.554 98.3305 476.433 97.4588 484 93C476.61 91.5407 476.61 88.0483 474.5 78Z" fill="#CCCCCC"/>
<path opacity="0.5" d="M10 225V255C6.78521 245.33 7.965 244.459 0 240C7.7759 238.541 7.7759 235.045 10 225ZM10 225V255C13.2148 245.33 12.035 244.459 20 240C12.2213 238.541 12.2213 235.045 10 225Z" fill="#CCCCCC"/>
<path opacity="0.5" d="M326.5 49V110C320.23 90.3391 322.535 88.567 307 79.5C322.167 76.5325 322.167 69.4299 326.5 49ZM326.5 49V110C332.77 90.3391 330.465 88.567 346 79.5C330.833 76.5325 330.833 69.4299 326.5 49Z" fill="#CCCCCC"/>
<path opacity="0.5" d="M526.563 274.797C529.637 302.699 439.276 335.549 324.734 348.173C210.195 360.796 114.85 348.409 111.776 320.508C111.043 313.858 124.564 300.057 124.564 300.057C126.089 275.569 173.065 262.995 181.421 273.699L291.243 251.627C294.152 234.831 348.599 234.831 351.626 243.796C386.179 241.777 418.989 244.311 451.953 244.622C460.749 231.067 509.069 244.908 508.1 256.929C508.1 256.929 525.797 267.821 526.563 274.797Z" fill="#CCCCCC"/>
<path d="M258.414 329.387C275.22 326.494 288.137 320.04 287.265 314.971C286.393 309.903 272.062 308.139 255.256 311.032C238.45 313.925 225.532 320.379 226.404 325.447C227.277 330.516 241.608 332.28 258.414 329.387Z" fill="#AAAAAA"/>
<path d="M439.957 295.055C455.958 293.398 468.634 289.201 468.27 285.68C467.905 282.16 454.638 280.65 438.637 282.307C422.636 283.964 409.961 288.161 410.325 291.682C410.689 295.202 423.956 296.712 439.957 295.055Z" fill="#AAAAAA"/>
<path d="M504.498 251.816C504.869 250.254 495.141 246.609 482.772 243.676C470.402 240.742 460.075 239.63 459.704 241.193C459.334 242.755 469.061 246.399 481.431 249.333C493.8 252.266 504.128 253.378 504.498 251.816Z" fill="#AAAAAA"/>
<path d="M150.572 283.793C160.444 278.66 167.662 272.988 166.693 271.124C165.724 269.259 156.935 271.909 147.063 277.041C137.191 282.174 129.973 287.846 130.942 289.71C131.911 291.575 140.7 288.926 150.572 283.793Z" fill="#CCCCCC"/>
<path fill-rule="evenodd" clip-rule="evenodd" d="M218.492 322.173C215.921 324.138 214.195 326.13 213.382 328.077C213.108 328.733 212.355 329.042 211.7 328.768C211.044 328.494 210.735 327.741 211.009 327.085C212.065 324.557 214.178 322.233 216.93 320.129C219.696 318.014 223.196 316.056 227.161 314.287C235.09 310.749 245.014 307.911 254.983 306.116C264.95 304.321 275.036 303.556 283.292 304.204C287.419 304.527 291.138 305.208 294.174 306.319C297.196 307.424 299.668 309.003 301.118 311.211C301.508 311.805 301.343 312.603 300.749 312.992C300.156 313.382 299.359 313.217 298.969 312.623C297.943 311.062 296.048 309.743 293.291 308.735C290.549 307.732 287.08 307.081 283.091 306.768C275.117 306.143 265.261 306.879 255.439 308.648C245.619 310.416 235.904 313.203 228.208 316.637C224.36 318.354 221.05 320.217 218.492 322.173Z" fill="#AAAAAA"/>
<path fill-rule="evenodd" clip-rule="evenodd" d="M415.719 284.777C407.668 288.599 401.704 294.337 399.553 302.404C399.37 303.09 398.665 303.498 397.979 303.315C397.293 303.132 396.885 302.427 397.068 301.741C399.472 292.726 406.118 286.487 414.617 282.453C423.103 278.425 433.539 276.538 443.813 276.238C454.093 275.938 464.308 277.224 472.391 279.62C476.431 280.818 479.981 282.305 482.751 284.04C485.5 285.762 487.609 287.809 488.554 290.182C488.817 290.842 488.495 291.59 487.835 291.853C487.176 292.116 486.428 291.794 486.165 291.134C485.509 289.487 483.92 287.808 481.386 286.221C478.873 284.647 475.556 283.242 471.66 282.087C463.87 279.777 453.931 278.517 443.888 278.81C433.839 279.103 423.783 280.95 415.719 284.777Z" fill="#AAAAAA"/>
<path fill-rule="evenodd" clip-rule="evenodd" d="M307.473 325.469C307.966 325.98 307.952 326.794 307.441 327.287C301.857 332.678 291.252 340.256 278.392 344.493C277.717 344.715 276.99 344.348 276.768 343.673C276.546 342.999 276.913 342.271 277.587 342.049C290.03 337.951 300.308 330.598 305.655 325.436C306.166 324.943 306.98 324.958 307.473 325.469Z" fill="#AAAAAA"/>
<path d="M405.052 190.569L391.659 189.675L386.627 265.091L400.02 265.985L405.052 190.569Z" fill="#BDECFF"/>
<path d="M386.629 265.077L394.846 265.625L398.418 190.113L391.659 189.662L386.629 265.077Z" fill="#9ADAF3"/>
<path d="M375.791 200.05L434.325 194.115C439.985 178.727 447.505 158.159 440.114 148.69C432.722 139.221 409.074 141.472 385.754 138.043C373.81 134.67 358.338 133.952 350.491 146.035C342.644 158.118 347.176 178.392 349.064 189.372L375.791 200.05Z" fill="#BDECFF"/>
<path d="M375.791 200.05C375.791 200.05 366.74 214.752 355.457 222.691C344.175 230.632 320.39 226.59 332.817 206.281L351.507 191.669L375.791 200.05Z" fill="#BDECFF"/>
<path d="M375.791 195.484L352.554 187.326C352.554 187.326 346.955 167.531 352.554 152.263C358.153 136.996 382.015 136.391 384.402 158.116C386.274 175.164 382.015 182.037 375.791 195.484Z" fill="#333333"/>
<path fill-rule="evenodd" clip-rule="evenodd" d="M388.113 144.5C388.769 144.228 389.521 144.539 389.794 145.195C397.041 162.638 390.718 184.067 379.996 200.436C379.607 201.03 378.81 201.196 378.216 200.807C377.622 200.418 377.456 199.62 377.845 199.026C388.368 182.961 394.188 162.474 387.419 146.182C387.147 145.526 387.457 144.773 388.113 144.5Z" fill="#333333"/>
<path fill-rule="evenodd" clip-rule="evenodd" d="M347.867 188.892C348.13 188.232 348.879 187.911 349.538 188.175L375.975 198.739L434.195 192.833C434.901 192.761 435.532 193.276 435.604 193.983C435.676 194.69 435.161 195.321 434.454 195.392L375.921 201.33C375.714 201.351 375.506 201.321 375.314 201.245L348.584 190.564C347.925 190.3 347.604 189.552 347.867 188.892Z" fill="#333333"/>
<path fill-rule="evenodd" clip-rule="evenodd" d="M376.351 198.892C376.99 199.202 377.258 199.971 376.949 200.61C367.973 219.176 353.53 227.483 342.733 227.67C337.343 227.763 332.681 225.806 330.341 221.818C328.001 217.828 328.248 212.254 331.677 205.685C332.006 205.056 332.783 204.812 333.412 205.141C334.042 205.469 334.286 206.246 333.957 206.876C330.748 213.024 330.843 217.589 332.56 220.516C334.277 223.444 337.881 225.181 342.689 225.097C352.288 224.932 365.971 217.408 374.633 199.49C374.942 198.851 375.711 198.583 376.351 198.892Z" fill="#333333"/>
<path d="M397.469 161.28C390.361 172.892 409.146 174.431 403.678 161.8L408.343 125.865L419.143 127.254L415.609 121.324L420.827 117.476L405.995 115.348L397.469 161.28Z" fill="#FF6F3D"/>
<path d="M364.117 275.416C384.844 253.931 424.366 249.758 424.366 253.619L395.152 274.382L364.117 275.416Z" fill="#E3E3E3"/>
<path fill-rule="evenodd" clip-rule="evenodd" d="M407.705 254.679C400.097 256.262 391.294 259.486 379.99 265.932C379.373 266.284 378.588 266.069 378.236 265.452C377.884 264.835 378.099 264.05 378.716 263.698C390.204 257.146 399.26 253.809 407.181 252.16C415.099 250.512 421.824 250.565 428.573 250.721C429.283 250.737 429.845 251.326 429.828 252.036C429.812 252.747 429.223 253.309 428.513 253.293C421.79 253.137 415.316 253.095 407.705 254.679Z" fill="#AAAAAA"/>
<path d="M176.235 271.887L166.153 277.33C162.098 278.514 159.693 277.011 158.373 273.749C153.245 276.139 150.349 274.742 148.531 271.511C155.964 267.766 163.764 260.331 171.848 250.031L176.235 271.887Z" fill="#1CAADA"/>
<path d="M171.85 272.99C165.174 274.223 161.305 273.762 161.285 270.976C155.524 271.393 154.045 269.515 157.808 264.831L148.533 271.2C150.023 274.457 152.962 275.679 158.376 273.438C158.911 275.648 160.626 277.037 163.798 277.415L171.85 272.99Z" fill="#075D7D"/>
<path fill-rule="evenodd" clip-rule="evenodd" d="M172.079 248.747C172.459 248.837 172.751 249.14 172.828 249.523L177.216 271.379C177.302 271.81 177.097 272.247 176.71 272.456L166.629 277.899C166.567 277.932 166.501 277.959 166.434 277.979C164.25 278.616 162.358 278.573 160.791 277.79C159.512 277.152 158.567 276.081 157.874 274.745C155.59 275.661 153.625 275.87 151.936 275.389C150.007 274.838 148.647 273.446 147.659 271.69C147.525 271.452 147.495 271.17 147.574 270.909C147.654 270.647 147.837 270.43 148.081 270.307C155.317 266.661 163.008 259.364 171.061 249.102C171.302 248.795 171.699 248.657 172.079 248.747ZM149.959 271.581C150.671 272.554 151.499 273.184 152.485 273.465C153.758 273.829 155.504 273.672 157.951 272.532C158.2 272.416 158.485 272.407 158.74 272.508C158.995 272.608 159.198 272.809 159.301 273.063C159.904 274.556 160.701 275.51 161.684 276.001C162.645 276.48 163.953 276.601 165.774 276.088L175.109 271.047L171.291 252.026C163.992 261.074 156.863 267.827 149.959 271.581Z" fill="#072F41"/>
<path d="M276.117 176.234C291.523 187.314 296.914 187.429 305.676 166.111C307.95 164.47 309.356 167.963 308.479 171.176C310.347 167.799 313.51 165.509 312.774 175.637C313.543 172.972 317.041 170.667 317.604 182.575C318.294 191.872 310.426 226.891 280.592 212.357C277.766 207.363 275.865 182.084 276.117 176.234Z" fill="#1CAADA"/>
<path d="M316.09 192.955C316.763 176.005 314.104 180.378 311.707 180.556C311.918 174.649 309.701 174.449 307.983 176.728C306.802 173.988 303.513 174.284 301.039 177.885C301.805 174.155 303.868 167.467 306.183 164.38C307.404 162.97 309.763 165.134 308.49 170.865C309.716 166.631 314.076 166.415 312.785 175.326C313.554 172.661 315.765 168.061 317.337 178.884C317.676 180.972 317.553 187.126 316.09 192.955Z" fill="#075D7D"/>
<path opacity="0.3" d="M279.07 190.632C306.918 215.611 314.734 189.42 316.254 174.533C317.648 179.413 317.399 183.313 317.396 183.653C317.288 196.284 308.754 225.605 281.364 213L279.07 190.632Z" fill="#072F41"/>
<path fill-rule="evenodd" clip-rule="evenodd" d="M304.644 169.202C303.83 171.124 303.035 173.437 302.38 175.796C302.369 175.836 302.356 175.874 302.34 175.912C300.961 179.266 299.15 181.655 296.904 183.103C294.644 184.561 292.052 184.996 289.254 184.636C283.742 183.928 277.267 180.109 270.31 174.61C269.864 174.257 269.788 173.61 270.141 173.164C270.493 172.719 271.14 172.643 271.586 172.995C278.514 178.472 284.607 181.964 289.517 182.595C291.931 182.906 294.013 182.519 295.789 181.374C297.568 180.227 299.126 177.735 300.396 174.67C301.068 172.259 301.903 170.398 302.749 168.399C303.588 166.418 304.5 164.699 305.384 163.718C305.792 163.265 306.4 162.733 307.168 162.709C308.106 162.679 308.664 163.374 308.953 164.008C309.243 164.645 309.422 165.524 309.525 166.611C309.609 166.502 309.693 166.399 309.778 166.304C310.17 165.862 310.653 165.475 311.232 165.331C311.878 165.169 312.495 165.349 312.971 165.772C313.401 166.156 313.683 166.703 313.875 167.283C314.071 167.878 314.201 168.597 314.269 169.421C314.307 169.884 314.326 170.388 314.324 170.932C314.486 170.825 314.658 170.737 314.841 170.676C315.719 170.38 316.475 170.771 316.974 171.312C317.443 171.822 317.795 172.555 318.065 173.369C319.146 176.63 319.442 182.832 318.192 189.679C318.19 189.69 318.188 189.7 318.186 189.71C318.185 189.717 318.183 189.725 318.181 189.732C314.794 204.022 309.229 212.242 301.776 215.509C294.338 218.77 285.409 216.925 275.725 212.064C275.217 211.809 275.012 211.191 275.267 210.683C275.522 210.175 276.14 209.97 276.648 210.225C286.164 215.001 294.371 216.509 300.95 213.625C307.509 210.749 312.839 203.333 316.173 189.283C317.384 182.631 317.043 176.823 316.112 174.017C315.878 173.314 315.64 172.902 315.461 172.707C315.449 172.694 315.438 172.682 315.428 172.673C315.404 172.692 315.373 172.719 315.337 172.756C315.224 172.871 315.08 173.057 314.915 173.342C314.583 173.915 314.219 174.79 313.851 176.036C313.697 176.556 313.167 176.868 312.638 176.748C312.11 176.629 311.764 176.12 311.848 175.585C312.25 173.025 312.336 171.025 312.218 169.59C312.159 168.872 312.051 168.323 311.921 167.928C311.819 167.618 311.718 167.449 311.654 167.366C311.642 167.373 311.63 167.381 311.617 167.39C311.54 167.444 311.439 167.532 311.317 167.669C310.807 168.244 310.915 170.039 310.296 171.928C310.137 172.415 309.644 172.71 309.14 172.622C308.636 172.533 308.274 172.087 308.29 171.575C308.346 169.85 308.149 167.631 308.055 166.611C307.964 165.617 307.597 164.509 307.168 164.894C307.116 164.941 306.986 165.014 306.912 165.096C306.275 165.803 305.472 167.246 304.644 169.202ZM306.978 164.681C306.979 164.681 306.982 164.684 306.988 164.692C306.982 164.686 306.978 164.682 306.978 164.681ZM315.369 172.622C315.369 172.622 315.37 172.622 315.373 172.624C315.37 172.623 315.369 172.622 315.369 172.622Z" fill="#072F41"/>
<path d="M359.011 145.995L307.217 154.538L313.125 190.376L364.919 181.833L359.011 145.995Z" fill="#FF6F3D"/>
<path fill-rule="evenodd" clip-rule="evenodd" d="M306.201 154.705C306.109 154.145 306.489 153.615 307.049 153.523L358.843 144.98C359.404 144.888 359.933 145.267 360.026 145.828L365.934 181.666C366.026 182.227 365.647 182.756 365.086 182.849L313.292 191.391C312.731 191.484 312.202 191.104 312.11 190.543L306.201 154.705ZM308.399 155.386L313.972 189.193L363.736 180.985L358.163 147.178L308.399 155.386Z" fill="#444444"/>
<path fill-rule="evenodd" clip-rule="evenodd" d="M359.744 145.272C360.139 145.68 360.128 146.332 359.72 146.727L336.778 168.917C336.471 169.215 336.011 169.291 335.623 169.108L306.772 155.46C306.258 155.218 306.039 154.604 306.282 154.09C306.525 153.577 307.138 153.357 307.652 153.6L335.86 166.943L358.289 145.247C358.698 144.852 359.349 144.863 359.744 145.272Z" fill="#444444"/>
<path d="M285.433 209.792C285.636 209.442 262.075 139.676 259.048 133.189C258.217 130.976 250.54 108.843 247.201 103.026C247.201 103.026 243.627 107.091 244.447 110.461C244.761 111.747 240.598 113.362 240.992 117.046C241.426 121.106 241.002 122.145 242.278 125.921C241.215 126.397 206.365 135.89 205.581 135.89C190.928 137.094 183.647 126.428 182.639 125.312C182.49 125.132 180.373 116.737 179.355 114.649C178.709 113.319 173.239 115.472 173.661 122.551C173.702 123.241 171.709 124.218 170.755 126.382C170.207 131.339 171.644 137.202 172.187 142.208C172.514 148.235 172.84 154.262 173.167 160.29C173.398 164.55 173.715 179.262 173.573 182.328C173.532 183.205 169.854 251.011 169.497 257.082C168.975 264.306 166.843 290.08 167.815 296.287C168.154 298.458 203.664 276.538 222.987 274.969C243.863 271.923 259.271 284.016 269.883 293.239C296.592 264.524 285.752 212.871 285.433 209.792Z" fill="#1CAADA"/>
<path d="M247.415 102.769C245.499 103.397 244.187 107.587 244.071 109.586C243.945 109.637 241.456 115.114 241.456 115.117C241.456 115.117 241.456 117.872 241.456 117.944C241.456 118.165 241.842 122.325 241.757 122.063C242.528 117.303 246.414 117.627 246.414 117.627C247.399 113.825 250.115 110.744 250.63 110.744C250.946 111.266 248.114 102.54 247.415 102.769Z" fill="#075D7D"/>
<path fill-rule="evenodd" clip-rule="evenodd" d="M248.228 104.956C251.284 111.398 256.219 125.22 258.225 130.835C258.629 131.969 258.915 132.768 259.041 133.105C262.068 139.592 285.629 209.358 285.426 209.708C285.449 209.927 285.525 210.392 285.637 211.076C287.097 220.018 294.686 266.483 269.877 293.155C259.265 283.932 243.857 271.839 222.981 274.885C210.439 275.903 191.077 285.496 178.939 291.509C174.966 293.478 171.766 295.063 169.834 295.838L169.833 295.838C169.766 295.866 169.699 295.892 169.635 295.917C169.634 295.917 169.633 295.917 169.633 295.918C168.499 296.359 167.853 296.487 167.809 296.203C166.947 290.701 168.524 269.827 169.257 260.123C169.351 258.879 169.431 257.819 169.491 256.998C169.848 250.927 173.526 183.122 173.567 182.244C174.181 168.929 172.901 155.42 172.181 142.124C172.022 140.659 171.787 139.121 171.547 137.554C170.967 133.764 170.256 129.814 170.644 126.307C171.184 125.083 172.161 124.229 172.81 123.601C173.307 123.12 173.664 122.767 173.654 122.467C173.473 116.66 178.486 113.144 179.131 114.474C180.727 117.746 180.693 122.808 182.979 125.647C184.809 127.92 192.053 136.917 205.574 135.806C206.359 135.806 241.678 126.774 242.741 126.298C241.346 122.168 240.469 115.647 243.489 112.126C244.09 111.425 244.562 110.875 244.441 110.377C243.62 107.007 247.195 102.942 247.195 102.942C247.505 103.482 247.853 104.163 248.228 104.956ZM242.332 110.303C241.857 107.109 243.617 103.924 245.642 101.592L245.647 101.587L245.649 101.585L245.65 101.584C245.65 101.583 245.65 101.583 247.195 102.942L245.65 101.583L247.549 99.4246L248.98 101.918C250.752 105.006 253.568 112.179 255.986 118.655C257.211 121.935 258.356 125.1 259.246 127.581C259.603 128.575 259.916 129.453 260.176 130.183C260.546 131.218 260.81 131.957 260.942 132.312C261.777 134.138 263.836 139.783 266.41 147.077C269.045 154.545 272.27 163.892 275.392 173.043C278.515 182.195 281.538 191.157 283.767 197.853C284.882 201.201 285.799 203.987 286.433 205.95C286.749 206.93 286.998 207.713 287.165 208.261C287.247 208.532 287.315 208.763 287.363 208.936C287.385 209.018 287.411 209.118 287.431 209.213C287.44 209.255 287.458 209.344 287.471 209.45C287.473 209.475 287.478 209.514 287.481 209.563C287.506 209.761 287.567 210.132 287.654 210.662C288.298 214.569 290.36 227.079 289.843 241.89C289.248 258.96 285.24 279.66 271.383 294.557L270.028 296.013L268.527 294.708C257.917 285.487 243.153 274.021 223.278 276.921L223.213 276.931L223.147 276.936C218.599 277.305 212.966 278.892 206.971 281.113C201.003 283.324 194.806 286.113 189.161 288.804C185.767 290.423 182.661 291.962 179.904 293.328C178.015 294.264 176.29 295.119 174.749 295.862C172.912 296.748 171.348 297.469 170.213 297.899C169.672 298.104 169.088 298.299 168.571 298.375C168.341 298.409 167.881 298.46 167.378 298.317C167.1 298.237 166.727 298.075 166.394 297.741C166.041 297.387 165.843 296.951 165.776 296.522M242.332 110.303C242.01 110.71 241.657 111.091 241.334 111.496C238.577 114.945 239.233 120.781 240.196 124.894C239.149 125.18 237.736 125.556 236.072 125.994C232.605 126.906 228.071 128.078 223.544 129.236C217.493 130.784 211.501 132.578 205.361 133.758C193.032 134.751 186.468 126.676 184.563 124.332C183.783 123.373 183.634 121.243 183.296 120.051C182.645 117.754 181.808 114.916 181.199 113.665C180.559 112.348 178.673 111.876 177.331 112.158C174.373 113.187 171.77 117.413 171.831 121.291C166.786 123.349 168.524 130.742 169.016 134.463C169.396 137.334 169.856 139.795 170.129 142.291C170.845 155.499 172.121 168.921 171.512 182.149C171.468 183.066 167.799 250.711 167.437 256.864C167.379 257.675 167.3 258.724 167.206 259.955C166.887 264.184 166.405 270.565 166.035 276.861C165.796 280.933 165.603 284.992 165.531 288.431C165.46 291.813 165.501 294.763 165.776 296.521" fill="#072F41"/>
<path d="M182.089 124.249C182.413 124.9 179.575 115.431 179.397 114.975C178.745 111.901 172.573 118.204 173.859 122.449C168.859 123.514 170.437 130.439 171.972 140.003C172.052 140.497 173.482 127.11 176.128 130.467C175.364 125.646 180.692 121.448 182.089 124.249Z" fill="#075D7D"/>
<path opacity="0.21" d="M171.753 124.121C179.933 163.35 177.937 224.74 170.805 243.741C168.957 214.088 173.849 201.767 173.525 175.316C172.587 150.883 169.666 123.952 171.753 124.121Z" fill="#072F41"/>
<path opacity="0.2" d="M170.32 241.783C167.092 277.775 187.423 285.212 217.807 275.774C197.17 282.166 179.237 289.822 168.586 298.664C165.312 293.292 168.095 265.27 170.32 241.783Z" fill="#072F41"/>
<path opacity="0.19" d="M241.355 276.101C269.929 287.183 275.204 271.244 287.593 233.011C288.647 228.913 287.778 276.018 269.888 293.239C265.549 289.575 255.189 281.989 241.355 276.101Z" fill="#072F41"/>
<path opacity="0.19" d="M244.447 110.461C242.091 117.041 244.447 125.15 249.087 124.764L241.628 126.307C240.851 121.561 238.67 115.117 244.447 110.461Z" fill="#072F41"/>
<path fill-rule="evenodd" clip-rule="evenodd" d="M173.47 121.541C174.028 121.434 174.567 121.8 174.674 122.358C175.871 128.615 176.825 131.203 178.998 134.265C179.327 134.729 179.218 135.371 178.754 135.7C178.291 136.029 177.649 135.92 177.32 135.456C174.9 132.046 173.873 129.124 172.653 122.745C172.546 122.187 172.912 121.648 173.47 121.541Z" fill="#072F41"/>
<path fill-rule="evenodd" clip-rule="evenodd" d="M244.007 109.733C244.565 109.626 245.104 109.992 245.21 110.55C245.487 111.994 245.683 113.093 245.841 113.977C246.036 115.064 246.172 115.827 246.327 116.505C246.591 117.661 246.898 118.507 247.697 120.307C247.927 120.827 247.693 121.435 247.174 121.665C246.655 121.896 246.047 121.662 245.816 121.142C244.995 119.292 244.628 118.307 244.321 116.964C244.158 116.25 244.008 115.412 243.802 114.263C243.642 113.37 243.449 112.291 243.19 110.937C243.083 110.379 243.449 109.84 244.007 109.733Z" fill="#072F41"/>
<path fill-rule="evenodd" clip-rule="evenodd" d="M249.666 124.007C249.769 124.566 249.399 125.102 248.84 125.205L241.942 126.473C241.383 126.575 240.847 126.205 240.744 125.646C240.641 125.088 241.011 124.551 241.57 124.448L248.468 123.181C249.027 123.078 249.563 123.448 249.666 124.007Z" fill="#072F41"/>
<path fill-rule="evenodd" clip-rule="evenodd" d="M260.494 196.012C261.06 195.965 261.558 196.385 261.605 196.952C262.057 202.335 259.472 205.809 255.976 206.389C253.556 206.791 251.045 205.739 249.289 203.405C248.557 206.632 246.531 208.975 243.668 209.454C239.758 210.109 235.257 207.096 231.767 199.995C231.517 199.485 231.727 198.868 232.237 198.617C232.747 198.367 233.363 198.577 233.614 199.087C236.994 205.967 240.831 207.843 243.328 207.425C245.774 207.015 247.89 204.205 247.485 199.54C247.439 199.011 247.803 198.534 248.325 198.439C248.848 198.343 249.357 198.661 249.5 199.172C250.658 203.282 253.478 204.718 255.639 204.359C257.758 204.008 259.947 201.796 259.555 197.124C259.507 196.558 259.928 196.06 260.494 196.012Z" fill="#072F41"/>
<path fill-rule="evenodd" clip-rule="evenodd" d="M234.265 204.777C234.819 204.901 235.169 205.451 235.045 206.005C234.526 208.331 232.522 210.983 229.68 211.877C228.226 212.334 226.581 212.319 224.872 211.592C223.178 210.872 221.476 209.476 219.826 207.26C219.487 206.805 219.581 206.16 220.037 205.821C220.493 205.481 221.137 205.575 221.477 206.031C222.976 208.045 224.41 209.159 225.677 209.698C226.929 210.231 228.069 210.226 229.063 209.914C231.117 209.267 232.658 207.258 233.037 205.557C233.16 205.003 233.71 204.653 234.265 204.777Z" fill="#072F41"/>
<path fill-rule="evenodd" clip-rule="evenodd" d="M253.392 210.886C253.96 210.864 254.438 211.306 254.461 211.873C254.631 216.171 252.285 219.466 248.954 220.546C245.605 221.632 241.578 220.386 238.54 216.308C238.2 215.852 238.294 215.208 238.75 214.868C239.206 214.529 239.85 214.623 240.19 215.078C242.812 218.599 245.974 219.349 248.32 218.588C250.685 217.821 252.543 215.427 252.405 211.955C252.382 211.387 252.824 210.909 253.392 210.886Z" fill="#072F41"/>
<path fill-rule="evenodd" clip-rule="evenodd" d="M219.264 275.384C229.149 272.947 239.665 272.367 250.62 273.116C251.187 273.155 251.615 273.646 251.577 274.213C251.538 274.78 251.047 275.208 250.48 275.169C239.682 274.431 229.387 275.008 219.756 277.382C219.205 277.518 218.647 277.181 218.511 276.629C218.375 276.077 218.712 275.52 219.264 275.384Z" fill="#072F41"/>
<path d="M274.651 292.583C276.593 295.15 279.805 295.677 280.939 295.134C282.03 294.612 282.138 290.954 280.196 288.387C278.254 285.819 275.438 284.677 273.908 285.835C272.378 286.995 272.709 290.015 274.651 292.583Z" fill="#075D7D"/>
<path fill-rule="evenodd" clip-rule="evenodd" d="M277.274 284.787C278.606 285.328 279.933 286.381 280.994 287.784C282.101 289.248 282.614 291.001 282.703 292.467C282.748 293.2 282.69 293.907 282.516 294.501C282.357 295.048 282.032 295.72 281.371 296.036L281.371 296.036C280.89 296.267 280.301 296.341 279.725 296.325C279.13 296.309 278.466 296.195 277.79 295.976C276.437 295.538 274.966 294.656 273.854 293.186C272.793 291.783 272.141 290.219 271.984 288.79C271.829 287.385 272.147 285.915 273.304 285.038L273.305 285.037L273.305 285.037C274.463 284.161 275.964 284.256 277.274 284.787ZM274.512 286.632C274.138 286.915 273.857 287.535 273.972 288.572C274.083 289.585 274.568 290.815 275.449 291.979C276.278 293.076 277.384 293.742 278.407 294.074C278.918 294.239 279.391 294.316 279.778 294.326C280.13 294.336 280.355 294.289 280.465 294.25C280.486 294.22 280.54 294.134 280.596 293.941C280.689 293.622 280.741 293.156 280.707 292.588C280.637 291.453 280.233 290.093 279.399 288.99C278.518 287.825 277.466 287.024 276.522 286.641C275.555 286.248 274.884 286.351 274.512 286.632Z" fill="#052F41"/>
<path d="M268.448 295.631C271.364 297.604 274.813 296.824 276.122 295.664C277.527 294.419 276.148 290.527 273.232 288.554C270.315 286.581 266.879 286.565 265.557 288.52C264.235 290.475 265.531 293.658 268.448 295.631Z" fill="#075D7D"/>
<path fill-rule="evenodd" clip-rule="evenodd" d="M268.801 286.064C270.413 286.071 272.192 286.643 273.792 287.726C275.43 288.833 276.627 290.468 277.229 292.02C277.531 292.797 277.702 293.601 277.672 294.345C277.643 295.087 277.406 295.863 276.786 296.412L276.786 296.413C275.925 297.175 274.506 297.716 272.955 297.82C271.374 297.926 269.555 297.587 267.887 296.459C266.288 295.377 265.094 293.939 264.487 292.446C263.882 290.959 263.823 289.299 264.729 287.96C265.634 286.621 267.196 286.057 268.801 286.064ZM268.792 288.064C267.619 288.059 266.802 288.464 266.385 289.081C265.969 289.697 265.897 290.605 266.339 291.692C266.778 292.771 267.691 293.911 269.008 294.802C270.257 295.648 271.621 295.905 272.821 295.825C274.051 295.742 275.01 295.314 275.459 294.916M268.792 288.064C269.957 288.069 271.354 288.491 272.671 289.382L268.792 288.064ZM272.671 289.382C273.95 290.247 274.9 291.546 275.365 292.744L272.671 289.382ZM275.365 292.744C275.597 293.342 275.69 293.868 275.674 294.266L275.365 292.744ZM275.674 294.266C275.658 294.665 275.541 294.843 275.459 294.916L275.674 294.266Z" fill="#052F41"/>
<path d="M174.53 297.938C172.588 300.506 169.376 301.033 168.242 300.49C167.151 299.968 167.043 296.31 168.985 293.743C170.927 291.175 173.743 290.033 175.273 291.191C176.806 292.351 176.472 295.371 174.53 297.938Z" fill="#075D7D"/>
<path fill-rule="evenodd" clip-rule="evenodd" d="M172.659 291.997C171.715 292.38 170.664 293.181 169.783 294.346C168.948 295.449 168.544 296.809 168.474 297.944C168.44 298.512 168.492 298.978 168.585 299.297C168.641 299.49 168.695 299.576 168.716 299.606C168.827 299.645 169.051 299.691 169.403 299.682C169.79 299.672 170.264 299.595 170.775 299.429C171.797 299.098 172.903 298.432 173.733 297.335C174.614 296.17 175.099 294.94 175.211 293.927C175.325 292.891 175.044 292.272 174.67 291.988M172.659 291.997C173.626 291.604 174.297 291.707 174.67 291.988L172.659 291.997ZM171.908 290.143C173.217 289.612 174.719 289.517 175.877 290.393L175.877 290.393C177.035 291.27 177.354 292.741 177.199 294.147C177.041 295.576 176.388 297.139 175.328 298.542C174.215 300.012 172.744 300.894 171.391 301.332C170.715 301.551 170.052 301.665 169.457 301.681C168.881 301.697 168.291 301.622 167.81 301.392L167.81 301.392C167.149 301.076 166.825 300.404 166.665 299.857C166.492 299.262 166.433 298.556 166.478 297.823C166.568 296.357 167.08 294.604 168.188 293.139C169.248 291.737 170.576 290.684 171.908 290.143Z" fill="#052F41"/>
<path d="M167.987 294.409C167.37 297.877 164.41 299.809 162.666 299.94C160.794 300.082 158.962 296.38 159.58 292.912C160.197 289.444 162.579 286.97 164.901 287.381C167.223 287.793 168.604 290.941 167.987 294.409Z" fill="#075D7D"/>
<path fill-rule="evenodd" clip-rule="evenodd" d="M162.321 289.385C161.514 290.225 160.843 291.521 160.564 293.087C160.294 294.608 160.563 296.194 161.098 297.363C161.366 297.946 161.678 298.379 161.975 298.645C162.272 298.912 162.481 298.951 162.591 298.943L162.591 298.943C163.188 298.898 164.164 298.508 165.08 297.683C165.973 296.878 166.738 295.72 167.003 294.234C167.281 292.668 167.099 291.218 166.631 290.151C166.159 289.076 165.457 288.495 164.726 288.366C163.994 288.236 163.135 288.54 162.321 289.385ZM160.88 287.998C161.993 286.842 163.485 286.115 165.075 286.396C166.667 286.678 167.817 287.877 168.462 289.347C169.11 290.824 169.31 292.682 168.972 294.584C168.619 296.566 167.596 298.108 166.418 299.169C165.264 300.209 163.887 300.851 162.741 300.937C161.915 301 161.192 300.629 160.639 300.134C160.085 299.637 159.627 298.954 159.28 298.196C158.586 296.682 158.249 294.684 158.595 292.737C158.934 290.835 159.762 289.16 160.88 287.998Z" fill="#052F41"/>
<path d="M243.243 168.656C243.197 168.679 237.112 168.329 232.853 165.828C230.973 169.553 228.218 172.206 223.9 172.815C222.717 172.982 233.203 180.065 236.598 178.825C240.34 177.461 244.529 167.969 243.243 168.656Z" fill="#034254"/>
<path fill-rule="evenodd" clip-rule="evenodd" d="M232.481 164.566L233.309 165.052C235.31 166.227 237.781 166.915 239.798 167.304C240.799 167.497 241.672 167.613 242.295 167.68C242.606 167.713 242.853 167.733 243.02 167.745C243.054 167.747 243.084 167.749 243.111 167.751C243.349 167.693 243.681 167.689 243.994 167.946C244.198 168.114 244.288 168.323 244.329 168.462C244.371 168.603 244.38 168.735 244.381 168.834C244.383 169.191 244.265 169.634 244.128 170.046C243.835 170.929 243.289 172.145 242.594 173.406C241.898 174.669 241.032 176.014 240.085 177.143C239.158 178.247 238.069 179.246 236.906 179.67C236.294 179.894 235.598 179.907 234.918 179.823C234.228 179.737 233.481 179.542 232.724 179.284C231.211 178.768 229.566 177.965 228.09 177.131C226.612 176.297 225.269 175.412 224.359 174.713C223.915 174.372 223.53 174.042 223.287 173.763C223.224 173.69 223.157 173.605 223.099 173.513C223.046 173.43 222.967 173.288 222.929 173.107C222.889 172.913 222.883 172.582 223.123 172.285C223.341 172.014 223.63 171.944 223.774 171.924L223.774 171.924C227.717 171.367 230.259 168.97 232.049 165.422L232.481 164.566ZM233.22 167.053C231.5 170.104 229.088 172.439 225.591 173.387C226.42 174.01 227.629 174.804 228.975 175.563C230.396 176.366 231.935 177.112 233.306 177.58C233.991 177.814 234.611 177.97 235.139 178.035C235.678 178.102 236.052 178.065 236.289 177.979L236.289 177.978C236.997 177.72 237.835 177.022 238.706 175.985C239.557 174.971 240.359 173.731 241.018 172.536C241.671 171.351 242.162 170.248 242.412 169.501C242.316 169.492 242.214 169.482 242.104 169.47C241.439 169.399 240.516 169.276 239.457 169.072C237.606 168.715 235.289 168.101 233.22 167.053Z" fill="#072F41"/>
<path d="M205.095 181.604C212.986 181.184 219.005 173.757 218.539 165.016C218.074 156.275 211.3 149.53 203.409 149.95C195.518 150.371 189.499 157.798 189.965 166.539C190.43 175.28 197.204 182.025 205.095 181.604Z" fill="#034254"/>
<path fill-rule="evenodd" clip-rule="evenodd" d="M203.462 150.949C196.217 151.335 190.522 158.197 190.963 166.485C191.405 174.774 197.796 180.992 205.042 180.606C212.287 180.22 217.982 173.357 217.541 165.069C217.099 156.781 210.708 150.563 203.462 150.949ZM188.966 166.592C188.476 157.398 194.82 149.407 203.356 148.952C211.892 148.497 219.048 155.769 219.538 164.963C220.028 174.157 213.684 182.148 205.148 182.603C196.612 183.058 189.456 175.786 188.966 166.592Z" fill="#072F41"/>
<path d="M202.407 180.715C208.586 180.715 213.595 175.705 213.595 169.525C213.595 163.345 208.586 158.334 202.407 158.334C196.228 158.334 191.219 163.345 191.219 169.525C191.219 175.705 196.228 180.715 202.407 180.715Z" fill="#135669"/>
<path d="M212.468 162.831C214.468 161.508 214.776 158.45 213.157 156.001C211.537 153.551 208.603 152.638 206.603 153.961C204.603 155.284 204.295 158.342 205.914 160.791C207.534 163.241 210.468 164.154 212.468 162.831Z" fill="white"/>
<path d="M214.495 171.783C215.764 170.105 215.501 167.767 213.907 166.561C212.313 165.355 209.992 165.738 208.723 167.416C207.454 169.094 207.717 171.432 209.311 172.638C210.905 173.844 213.226 173.461 214.495 171.783Z" fill="white"/>
<path d="M255.163 172.463C261.244 171.416 265.012 163.816 263.579 155.488C262.146 147.16 256.055 141.257 249.974 142.304C243.893 143.351 240.125 150.95 241.558 159.279C242.991 167.607 249.082 173.509 255.163 172.463Z" fill="#034254"/>
<path fill-rule="evenodd" clip-rule="evenodd" d="M243.844 148.505C242.425 151.368 241.859 155.132 242.544 159.109C243.228 163.087 245.019 166.445 247.313 168.668C249.608 170.892 252.344 171.933 254.993 171.477C257.642 171.021 259.873 169.125 261.292 166.262C262.712 163.399 263.277 159.635 262.593 155.658C261.909 151.68 260.118 148.322 257.823 146.099C255.528 143.875 252.793 142.834 250.143 143.29C247.494 143.746 245.264 145.642 243.844 148.505ZM242.052 147.617C243.679 144.337 246.373 141.909 249.804 141.319C253.236 140.728 256.586 142.115 259.215 144.662C261.845 147.211 263.816 150.968 264.564 155.319C265.313 159.669 264.711 163.869 263.084 167.15C261.458 170.43 258.764 172.858 255.332 173.448C251.901 174.039 248.551 172.652 245.922 170.104C243.292 167.556 241.321 163.799 240.573 159.448C239.824 155.098 240.426 150.898 242.052 147.617Z" fill="#072F41"/>
<path d="M253.53 171.506C258.151 170.744 261.11 165.355 260.14 159.469C259.169 153.584 254.637 149.431 250.017 150.193C245.396 150.955 242.437 156.344 243.407 162.229C244.377 168.115 248.91 172.268 253.53 171.506Z" fill="#135669"/>
<path d="M258.365 153.567C259.978 152.896 260.47 150.387 259.463 147.963C258.455 145.538 256.331 144.116 254.717 144.786C253.104 145.457 252.612 147.966 253.62 150.391C254.627 152.815 256.751 154.237 258.365 153.567Z" fill="white"/>
<path d="M259.786 162.679C261.213 162.562 262.243 160.921 262.087 159.013C261.931 157.106 260.647 155.654 259.22 155.771C257.793 155.888 256.763 157.529 256.919 159.437C257.075 161.344 258.358 162.796 259.786 162.679Z" fill="white"/>
<path fill-rule="evenodd" clip-rule="evenodd" d="M205.971 145.244C196.124 145.769 188.42 155.249 189.029 166.671C189.637 178.094 198.304 186.702 208.151 186.177C217.997 185.652 225.701 176.172 225.093 164.75C224.484 153.327 215.817 144.72 205.971 145.244ZM186.974 166.781C186.318 154.462 194.655 143.786 205.861 143.189C217.067 142.592 226.491 152.321 227.147 164.64C227.803 176.959 219.466 187.635 208.26 188.232C197.054 188.829 187.63 179.1 186.974 166.781Z" fill="#99D9E6"/>
<path fill-rule="evenodd" clip-rule="evenodd" d="M255.808 136.447C247.68 136.88 241.165 145.618 241.742 156.453C242.319 167.288 249.726 175.285 257.854 174.852C265.981 174.419 272.497 165.68 271.919 154.845C271.342 144.01 263.936 136.014 255.808 136.447ZM239.687 156.563C239.074 145.052 246.025 134.907 255.699 134.392C265.372 133.876 273.361 143.225 273.974 154.736C274.587 166.246 267.636 176.391 257.963 176.907C248.29 177.422 240.3 168.073 239.687 156.563Z" fill="#99D9E6"/>
<path fill-rule="evenodd" clip-rule="evenodd" d="M233.149 158.911C236.55 158.333 240.488 158.966 242.578 161.811C242.914 162.269 242.816 162.913 242.358 163.249C241.9 163.586 241.256 163.487 240.92 163.029C239.504 161.102 236.563 160.418 233.494 160.94C231.996 161.195 230.562 161.729 229.413 162.461C228.257 163.198 227.451 164.095 227.086 165.052C226.884 165.583 226.29 165.85 225.759 165.648C225.228 165.446 224.961 164.851 225.163 164.32C225.731 162.827 226.906 161.619 228.307 160.726C229.714 159.829 231.413 159.207 233.149 158.911Z" fill="#99D9E6"/>
<path d="M223.808 140.054C215.562 137.029 209.603 136.427 202.512 135.89C203.207 130.639 204.325 124.722 205.578 120.341C206.069 118.618 195.2 118.939 195.877 117.26L212.944 112.241H229.293C230.348 113.265 222.859 115.307 223.813 116.303C228.193 120.877 231.426 125.147 232.657 128.885C232.652 130.459 230.471 133.811 223.808 140.054Z" fill="#034254"/>
<path fill-rule="evenodd" clip-rule="evenodd" d="M212.654 111.253C212.749 111.226 212.846 111.212 212.945 111.212H229.294C229.562 111.212 229.819 111.316 230.011 111.502C230.224 111.71 230.406 112.013 230.423 112.397C230.44 112.756 230.306 113.044 230.183 113.232C229.956 113.579 229.596 113.843 229.31 114.03C228.698 114.428 227.817 114.842 227.03 115.213L227.02 115.218C226.268 115.572 225.59 115.891 225.11 116.174C229.232 120.552 232.381 124.759 233.635 128.563C233.67 128.668 233.687 128.777 233.687 128.888C233.685 129.501 233.477 130.167 233.135 130.868C232.786 131.581 232.263 132.401 231.549 133.341C230.121 135.221 227.863 137.665 224.512 140.805C224.228 141.071 223.819 141.154 223.454 141.02C215.342 138.044 209.495 137.451 202.435 136.916C202.153 136.894 201.892 136.758 201.714 136.538C201.536 136.318 201.456 136.035 201.493 135.755C202.167 130.657 203.241 124.918 204.457 120.528C204.326 120.479 204.15 120.424 203.922 120.366C203.053 120.146 201.829 119.979 200.522 119.804L200.454 119.795C199.212 119.628 197.893 119.451 196.923 119.205C196.447 119.083 195.934 118.917 195.547 118.658C195.349 118.525 195.101 118.313 194.949 117.989C194.777 117.622 194.782 117.227 194.923 116.875C195.041 116.583 195.285 116.361 195.587 116.272L212.654 111.253ZM204.738 120.662C204.738 120.662 204.736 120.661 204.733 120.658C204.736 120.661 204.738 120.662 204.738 120.662ZM224.557 115.591C224.557 115.591 224.556 115.591 224.556 115.591L224.556 115.591C224.556 115.591 224.557 115.591 224.557 115.591ZM213.093 113.27L198.784 117.477C199.396 117.576 200.081 117.668 200.795 117.764L200.825 117.768C202.081 117.937 203.426 118.117 204.428 118.372C204.92 118.496 205.435 118.664 205.83 118.917C206.031 119.045 206.273 119.241 206.439 119.535C206.624 119.862 206.676 120.246 206.568 120.624L206.568 120.624C205.418 124.647 204.375 130.012 203.68 134.948C210.173 135.459 215.916 136.137 223.564 138.871C226.618 135.981 228.644 133.764 229.911 132.096C230.576 131.221 231.016 130.518 231.286 129.964C231.502 129.523 231.59 129.216 231.618 129.02C230.417 125.557 227.36 121.494 223.071 117.015C222.852 116.786 222.689 116.461 222.701 116.072C222.712 115.72 222.863 115.449 222.986 115.279C223.221 114.957 223.576 114.705 223.867 114.521C224.459 114.148 225.296 113.755 226.056 113.397C226.089 113.382 226.121 113.366 226.153 113.351C226.211 113.324 226.269 113.297 226.326 113.27H213.093ZM196.686 116.944C196.686 116.944 196.688 116.945 196.691 116.947C196.687 116.945 196.686 116.944 196.686 116.944Z" fill="#072F41"/>
<path fill-rule="evenodd" clip-rule="evenodd" d="M221.832 116.818C222.074 117.332 221.854 117.945 221.34 118.188L214.808 121.272C214.641 121.351 214.456 121.383 214.272 121.366L204.16 120.414C203.594 120.361 203.179 119.859 203.232 119.293C203.285 118.727 203.787 118.312 204.352 118.365L214.184 119.291L220.462 116.326C220.976 116.084 221.589 116.304 221.832 116.818Z" fill="#072F41"/>
<path fill-rule="evenodd" clip-rule="evenodd" d="M213.926 114.965C214.085 115.511 213.772 116.082 213.227 116.241L201.554 119.645L198.932 126.569C198.888 126.687 198.822 126.796 198.738 126.89L196.611 129.272C196.232 129.696 195.582 129.732 195.158 129.354C194.734 128.975 194.698 128.325 195.076 127.901L197.076 125.661L199.812 118.436C199.926 118.134 200.176 117.903 200.486 117.813L212.651 114.265C213.196 114.106 213.767 114.42 213.926 114.965Z" fill="#99D9E6"/>
<path fill-rule="evenodd" clip-rule="evenodd" d="M197.661 125.223C198.203 125.052 198.78 125.353 198.951 125.895L200.294 130.15C200.465 130.691 200.164 131.269 199.622 131.441C199.081 131.612 198.503 131.311 198.332 130.769L196.989 126.514C196.818 125.972 197.119 125.394 197.661 125.223Z" fill="#99D9E6"/>
<path d="M176.801 191.985C168.136 215.032 156.884 228.821 130.394 226.248C125.695 225.394 127.997 230.464 132.323 231.65C128.9 233.433 134.581 239.918 139.524 239.754C136.137 239.201 135.527 243.008 141.582 245.156C152.126 247.471 192.94 253.972 181.482 204.475L176.801 191.985Z" fill="#1CAADA"/>
<path d="M157.437 247.106C148.999 244.608 142.857 240.893 143.428 238.01C139.91 236.924 136.353 235.031 139.138 233.065C136.291 231.511 138.429 228.8 142.796 225.991C137.678 226.961 130.651 223.547 127.781 227.143C127.552 227.684 129.368 230.05 131.937 231.65C128.208 233.708 133.724 239.232 138.753 239.882C136.708 240.798 135.538 243.45 140.81 245.027C143.066 245.542 152.332 247.672 157.437 247.106Z" fill="#075D7D"/>
<path opacity="0.3" d="M181.482 204.477C182.03 247.996 148.531 245.092 136.428 238.701C137.487 242.779 142.886 244.194 143.23 244.322C156.578 249.341 190.481 251.453 182.428 209.054L181.482 204.477Z" fill="#072F41"/>
<path fill-rule="evenodd" clip-rule="evenodd" d="M176.385 188.202C176.939 188.331 177.283 188.883 177.155 189.437C173.267 206.202 166.809 216.208 159.587 221.682C152.35 227.169 144.467 228.013 137.951 226.691C135.803 226.255 133.796 226.105 132.191 226.201C131.388 226.248 130.708 226.356 130.171 226.509C129.622 226.666 129.29 226.851 129.118 227.005C128.975 227.134 128.977 227.202 128.98 227.248C128.987 227.348 129.056 227.611 129.436 228.048C130.2 228.927 131.87 230.108 134.863 231.532C135.325 231.751 135.555 232.277 135.404 232.765C135.253 233.254 134.766 233.557 134.261 233.477C133.309 233.327 132.647 233.32 132.215 233.386C131.898 233.434 131.771 233.51 131.732 233.539C131.73 233.564 131.734 233.613 131.755 233.695C131.811 233.913 131.969 234.236 132.278 234.643C132.891 235.448 133.935 236.37 135.21 237.152C136.482 237.932 137.913 238.531 139.272 238.751C139.737 238.827 140.092 239.209 140.132 239.679C140.172 240.149 139.888 240.586 139.442 240.74C138.252 241.149 138.169 241.541 138.169 241.541C138.168 241.557 138.181 241.945 139.143 242.582C140.941 243.772 144.835 244.962 150.631 245.276C156.44 245.591 163.033 245.308 168.866 242.831C174.647 240.375 179.751 235.734 182.588 227.155C182.767 226.615 183.349 226.323 183.888 226.501C184.427 226.68 184.72 227.262 184.542 227.801C181.515 236.951 175.987 242.041 169.67 244.725C163.405 247.386 156.436 247.652 150.52 247.331C144.59 247.01 140.258 245.789 138.007 244.298C136.945 243.595 135.978 242.576 136.126 241.304C136.177 240.858 136.355 240.472 136.62 240.141C135.745 239.805 134.904 239.379 134.134 238.907C132.701 238.027 131.445 236.946 130.641 235.889C130.242 235.365 129.913 234.792 129.763 234.21C129.609 233.615 129.624 232.908 130.079 232.306C130.276 232.045 130.524 231.846 130.803 231.697C129.478 230.889 128.513 230.123 127.883 229.398C127.353 228.789 126.975 228.111 126.927 227.382C126.876 226.598 127.218 225.947 127.742 225.475C128.237 225.03 128.901 224.732 129.607 224.53C130.326 224.325 131.161 224.2 132.069 224.146C133.883 224.038 136.071 224.209 138.36 224.674C144.383 225.896 151.644 225.121 158.344 220.042C165.059 214.952 171.33 205.446 175.151 188.972C175.279 188.418 175.832 188.074 176.385 188.202ZM131.736 233.516C131.736 233.516 131.735 233.52 131.733 233.526C131.734 233.519 131.735 233.515 131.736 233.516Z" fill="#072F41"/>
<path fill-rule="evenodd" clip-rule="evenodd" d="M133.411 232.176C133.547 231.641 134.091 231.317 134.626 231.453L140.742 233.004C141.277 233.14 141.601 233.684 141.466 234.219C141.33 234.755 140.786 235.078 140.25 234.943L134.134 233.391C133.599 233.256 133.275 232.712 133.411 232.176Z" fill="#072F41"/>
<path fill-rule="evenodd" clip-rule="evenodd" d="M306.538 165.27C305.592 166.417 304.382 168.884 303.047 173.175C302.878 173.718 302.302 174.021 301.759 173.852C301.217 173.683 300.914 173.106 301.083 172.563C302.429 168.238 303.733 165.438 304.95 163.961C305.545 163.239 306.272 162.646 307.132 162.57C308.098 162.485 308.799 163.068 309.231 163.731C309.657 164.383 309.941 165.266 310.126 166.255C310.314 167.26 310.413 168.453 310.419 169.779C310.43 172.433 310.071 175.693 309.255 179.204C309.127 179.758 308.574 180.102 308.02 179.973C307.467 179.845 307.122 179.292 307.251 178.738C308.035 175.362 308.372 172.262 308.361 169.788C308.356 168.551 308.264 167.487 308.104 166.633C307.941 165.762 307.721 165.182 307.508 164.855C307.406 164.698 307.331 164.639 307.303 164.622C307.245 164.636 306.984 164.729 306.538 165.27Z" fill="#072F41"/>
</svg>
