<svg width="640" height="353" viewBox="0 0 640 353" fill="none" xmlns="http://www.w3.org/2000/svg">
<path opacity="0.5" d="M80 155.949V215.929C73.5694 196.597 75.9333 194.855 60 185.939C75.5556 183.021 75.5556 176.037 80 155.949ZM80 155.949V215.929C86.4306 196.597 84.0667 194.855 100 185.939C84.4444 183.021 84.4444 176.037 80 155.949Z" fill="#CCCCCC"/>
<path opacity="0.5" d="M557 38.9873V98.9676C550.569 79.6354 552.933 77.8929 537 68.9775C552.556 66.0596 552.556 59.0757 557 38.9873ZM557 38.9873V98.9676C563.431 79.6354 561.067 77.8929 577 68.9775C561.444 66.0596 561.444 59.0757 557 38.9873Z" fill="#CCCCCC"/>
<path opacity="0.5" d="M400 0V39.9869C395.82 27.0997 397.355 25.9387 387 19.9948C397.111 18.0488 397.11 13.3911 400 0ZM400 0V39.9869C404.18 27.0997 402.645 25.9387 413 19.9948C402.889 18.0488 402.89 13.3911 400 0Z" fill="#CCCCCC"/>
<path opacity="0.5" d="M112.5 0V39.9869C108.159 27.0997 109.754 25.9387 99 19.9948C109.499 18.0488 109.499 13.3911 112.5 0ZM112.5 0V39.9869C116.841 27.0997 115.246 25.9387 126 19.9948C115.501 18.0488 115.501 13.3911 112.5 0Z" fill="#CCCCCC"/>
<path opacity="0.5" d="M206 21.9927V61.9796C201.82 49.0923 203.355 47.9314 193 41.9875C203.111 40.0415 203.11 35.3838 206 21.9927ZM206 21.9927V61.9796C210.18 49.0923 208.645 47.9314 219 41.9875C208.889 40.0415 208.89 35.3838 206 21.9927Z" fill="#CCCCCC"/>
<path opacity="0.5" d="M25 78.9741V118.961C20.8199 106.074 22.3554 104.913 12 98.969C22.1132 97.0229 22.1133 92.3653 25 78.9741ZM25 78.9741V118.961C29.1801 106.074 27.6446 104.913 38 98.969C27.8895 97.0229 27.8895 92.3653 25 78.9741Z" fill="#CCCCCC"/>
<path opacity="0.5" d="M627 100.967V140.954C622.82 128.066 624.355 126.906 614 120.962C624.111 119.016 624.11 114.361 627 100.967ZM627 100.967V140.954C631.18 128.066 629.645 126.906 640 120.962C629.889 119.016 629.89 114.361 627 100.967Z" fill="#CCCCCC"/>
<path opacity="0.5" d="M567 181.94V210.931C563.785 201.587 564.965 200.744 557 196.436C564.776 195.025 564.776 191.651 567 181.94ZM567 181.94V210.931C570.215 201.587 569.035 200.744 577 196.436C569.221 195.025 569.221 191.651 567 181.94Z" fill="#CCCCCC"/>
<path opacity="0.5" d="M474.5 77.9744V107.965C471.446 98.2982 472.567 97.4268 465 92.9694C472.387 91.5106 472.387 88.0193 474.5 77.9744ZM474.5 77.9744V107.965C477.554 98.2982 476.433 97.4268 484 92.9694C476.61 91.5106 476.61 88.0193 474.5 77.9744Z" fill="#CCCCCC"/>
<path opacity="0.5" d="M10 224.926V254.916C6.78521 245.25 7.965 244.379 0 239.921C7.7759 238.462 7.7759 234.968 10 224.926ZM10 224.926V254.916C13.2148 245.25 12.035 244.379 20 239.921C12.2213 238.462 12.2213 234.968 10 224.926Z" fill="#CCCCCC"/>
<path opacity="0.5" d="M326.5 48.9839V109.964C320.23 90.3095 322.535 88.5379 307 79.4739C322.167 76.5073 322.167 69.4071 326.5 48.9839ZM326.5 48.9839V109.964C332.77 90.3095 330.465 88.5379 346 79.4739C330.833 76.5073 330.833 69.4071 326.5 48.9839Z" fill="#CCCCCC"/>
<path d="M526.563 274.707C529.637 302.599 439.276 335.439 324.734 348.058C210.195 360.678 114.85 348.295 111.776 320.403C111.043 313.755 124.564 299.958 124.564 299.958C126.089 275.479 173.065 262.909 181.421 273.609L291.243 251.544C294.152 234.754 348.599 234.754 351.626 243.716C386.179 241.698 418.989 244.231 451.953 244.542C460.749 230.992 509.069 244.827 508.1 256.845C508.1 256.845 525.797 267.733 526.563 274.707Z" fill="#E3E3E3"/>
<path d="M258.414 329.279C275.22 326.387 288.137 319.935 287.265 314.868C286.393 309.801 272.062 308.038 255.256 310.93C238.45 313.822 225.532 320.274 226.404 325.341C227.277 330.407 241.608 332.171 258.414 329.279Z" fill="#AAAAAA"/>
<path d="M439.957 294.958C455.958 293.302 468.634 289.106 468.27 285.587C467.905 282.067 454.638 280.558 438.637 282.214C422.636 283.871 409.961 288.067 410.325 291.586C410.689 295.105 423.956 296.615 439.957 294.958Z" fill="#AAAAAA"/>
<path d="M504.498 251.733C504.869 250.172 495.141 246.528 482.772 243.596C470.402 240.663 460.075 239.552 459.704 241.113C459.334 242.675 469.061 246.318 481.431 249.251C493.8 252.183 504.128 253.295 504.498 251.733Z" fill="#AAAAAA"/>
<path d="M150.572 283.7C160.444 278.569 167.662 272.899 166.693 271.035C165.724 269.171 156.935 271.82 147.063 276.95C137.191 282.081 129.973 287.752 130.942 289.616C131.911 291.479 140.7 288.831 150.572 283.7Z" fill="#CCCCCC"/>
<path fill-rule="evenodd" clip-rule="evenodd" d="M218.492 322.067C215.921 324.032 214.195 326.023 213.382 327.97C213.108 328.625 212.355 328.934 211.7 328.66C211.044 328.386 210.735 327.633 211.009 326.978C212.065 324.451 214.178 322.127 216.93 320.024C219.696 317.91 223.196 315.952 227.161 314.184C235.09 310.647 245.014 307.81 254.983 306.016C264.95 304.221 275.036 303.456 283.292 304.104C287.419 304.427 291.138 305.108 294.174 306.218C297.196 307.323 299.668 308.902 301.118 311.109C301.508 311.703 301.343 312.5 300.749 312.89C300.156 313.28 299.359 313.114 298.969 312.521C297.943 310.959 296.048 309.642 293.291 308.633C290.549 307.63 287.08 306.98 283.091 306.667C275.117 306.042 265.261 306.778 255.439 308.547C245.619 310.314 235.904 313.1 228.208 316.533C224.36 318.249 221.05 320.112 218.492 322.067Z" fill="#AAAAAA"/>
<path fill-rule="evenodd" clip-rule="evenodd" d="M415.719 284.684C407.668 288.504 401.704 294.241 399.553 302.305C399.37 302.991 398.665 303.399 397.979 303.216C397.293 303.033 396.885 302.328 397.068 301.642C399.472 292.63 406.118 286.393 414.617 282.361C423.103 278.334 433.539 276.448 443.813 276.148C454.093 275.848 464.308 277.134 472.391 279.529C476.431 280.726 479.981 282.213 482.751 283.948C485.5 285.669 487.609 287.715 488.554 290.087C488.817 290.747 488.495 291.495 487.835 291.758C487.176 292.02 486.428 291.699 486.165 291.039C485.509 289.392 483.92 287.714 481.386 286.127C478.873 284.554 475.556 283.149 471.66 281.994C463.87 279.686 453.931 278.425 443.888 278.719C433.839 279.012 423.783 280.858 415.719 284.684Z" fill="#AAAAAA"/>
<path fill-rule="evenodd" clip-rule="evenodd" d="M307.473 325.362C307.966 325.873 307.952 326.687 307.441 327.18C301.857 332.569 291.252 340.145 278.392 344.38C277.717 344.602 276.99 344.235 276.768 343.561C276.546 342.886 276.913 342.159 277.587 341.937C290.03 337.84 300.308 330.49 305.655 325.33C306.166 324.837 306.98 324.851 307.473 325.362Z" fill="#AAAAAA"/>
<path d="M408.052 193.507L394.659 192.613L389.627 268.004L403.02 268.898L408.052 193.507Z" fill="#BDECFF"/>
<path d="M389.629 267.991L397.846 268.538L401.418 193.05L394.659 192.6L389.629 267.991Z" fill="#9ADAF3"/>
<path d="M378.791 202.984L437.325 197.052C442.985 181.668 450.505 161.108 443.114 151.642C435.722 142.175 412.074 144.425 388.754 140.997C376.81 137.626 361.338 136.909 353.491 148.988C345.644 161.067 350.176 181.334 352.064 192.31L378.791 202.984Z" fill="#BDECFF"/>
<path d="M378.791 202.985C378.791 202.985 369.74 217.682 358.457 225.618C347.175 233.556 323.39 229.516 335.817 209.213L354.507 194.606L378.791 202.985Z" fill="#BDECFF"/>
<path d="M378.791 197.42L355.554 189.265C355.554 189.265 349.955 169.476 355.554 154.214C361.153 138.951 385.015 138.347 387.402 160.064C389.274 177.106 385.015 183.978 378.791 197.42Z" fill="#333333"/>
<path fill-rule="evenodd" clip-rule="evenodd" d="M391.113 147.453C391.769 147.181 392.521 147.491 392.794 148.147C400.041 165.585 393.718 187.007 382.996 203.37C382.607 203.965 381.81 204.131 381.216 203.741C380.622 203.352 380.456 202.555 380.845 201.961C391.368 185.901 397.188 165.421 390.419 149.134C390.147 148.478 390.457 147.726 391.113 147.453Z" fill="#333333"/>
<path fill-rule="evenodd" clip-rule="evenodd" d="M350.867 191.83C351.13 191.171 351.879 190.85 352.538 191.113L378.975 201.674L437.195 195.77C437.901 195.698 438.532 196.213 438.604 196.92C438.676 197.626 438.161 198.257 437.454 198.329L378.921 204.264C378.714 204.285 378.506 204.256 378.314 204.179L351.584 193.501C350.925 193.238 350.604 192.49 350.867 191.83Z" fill="#333333"/>
<path fill-rule="evenodd" clip-rule="evenodd" d="M379.351 201.827C379.99 202.136 380.258 202.905 379.949 203.545C370.973 222.104 356.53 230.409 345.733 230.595C340.343 230.688 335.681 228.732 333.341 224.745C331.001 220.757 331.248 215.184 334.677 208.618C335.006 207.989 335.783 207.745 336.412 208.074C337.042 208.402 337.286 209.179 336.957 209.809C333.748 215.954 333.843 220.518 335.56 223.444C337.277 226.371 340.881 228.107 345.689 228.024C355.288 227.858 368.971 220.337 377.633 202.425C377.942 201.786 378.711 201.518 379.351 201.827Z" fill="#333333"/>
<path d="M407.595 161.415C397.699 155.776 398.252 173.291 407.768 167.205L437.786 168.277L436.67 178.721L441.046 174.969L444.596 179.488L446.707 165.65L407.595 161.415Z" fill="#FF6F3D"/>
<path d="M364.117 275.326C384.844 253.847 424.366 249.676 424.366 253.536L395.152 274.292L364.117 275.326Z" fill="#E3E3E3"/>
<path fill-rule="evenodd" clip-rule="evenodd" d="M407.705 254.595C400.097 256.178 391.294 259.4 379.99 265.845C379.373 266.197 378.588 265.982 378.236 265.365C377.884 264.748 378.099 263.963 378.716 263.611C390.204 257.061 399.26 253.726 407.181 252.078C415.099 250.43 421.824 250.483 428.573 250.639C429.283 250.655 429.845 251.244 429.828 251.954C429.812 252.664 429.223 253.226 428.513 253.209C421.79 253.054 415.316 253.012 407.705 254.595Z" fill="#AAAAAA"/>
<path d="M190.704 263.375L180.623 268.817C176.567 270 174.162 268.498 172.843 265.237C167.714 267.626 164.818 266.23 163 263C170.433 259.255 178.233 251.823 186.317 241.526L190.704 263.375Z" fill="#1CAADA"/>
<path d="M186.319 264.478C179.643 265.71 175.775 265.249 175.754 262.464C169.993 262.881 168.514 261.003 172.277 256.321L163.003 262.688C164.492 265.944 167.431 267.165 172.845 264.925C173.38 267.134 175.096 268.523 178.267 268.901L186.319 264.478Z" fill="#075D7D"/>
<path fill-rule="evenodd" clip-rule="evenodd" d="M186.548 240.242C186.928 240.333 187.22 240.636 187.297 241.018L191.685 262.867C191.771 263.298 191.566 263.734 191.179 263.943L181.098 269.385C181.036 269.418 180.97 269.445 180.903 269.465C178.719 270.102 176.828 270.058 175.26 269.276C173.982 268.638 173.036 267.568 172.343 266.232C170.059 267.148 168.094 267.357 166.406 266.875C164.476 266.325 163.117 264.933 162.129 263.178C161.995 262.94 161.964 262.658 162.043 262.397C162.123 262.135 162.306 261.918 162.55 261.795C169.786 258.15 177.477 250.856 185.53 240.598C185.771 240.291 186.169 240.152 186.548 240.242ZM164.428 263.068C165.141 264.041 165.968 264.671 166.954 264.953C168.227 265.316 169.974 265.159 172.42 264.019C172.669 263.903 172.954 263.895 173.209 263.995C173.464 264.096 173.667 264.296 173.77 264.551C174.373 266.043 175.17 266.997 176.153 267.487C177.114 267.967 178.422 268.087 180.243 267.574L189.578 262.535L185.76 243.52C178.461 252.565 171.332 259.316 164.428 263.068Z" fill="#072F41"/>
<path d="M299.902 201.301C300.105 200.952 276.544 131.209 273.517 124.723C272.686 122.511 265.009 100.385 261.671 94.5703C261.671 94.5703 258.096 98.6335 258.916 102.002C259.23 103.288 255.067 104.903 255.461 108.586C255.895 112.644 255.471 113.683 256.747 117.458C255.685 117.934 220.834 127.423 220.05 127.423C205.398 128.627 198.117 117.965 197.108 116.848C196.959 116.668 194.843 108.277 193.824 106.189C193.179 104.859 187.708 107.012 188.13 114.089C188.171 114.778 186.178 115.756 185.224 117.918C184.676 122.874 186.114 128.735 186.656 133.739C186.983 139.764 187.31 145.79 187.636 151.815C187.868 156.074 188.184 170.781 188.043 173.846C188.001 174.723 184.324 242.507 183.966 248.576C183.444 255.797 182.028 283.295 183 289.5C183.339 291.67 218.134 268.025 237.456 266.457C258.332 263.412 271.388 276.781 282 286C309 257 300.221 204.38 299.902 201.301Z" fill="#1CAADA"/>
<path d="M261.884 94.313C259.968 94.9405 258.656 99.1297 258.541 101.128C258.415 101.179 255.925 106.654 255.925 106.657C255.925 106.657 255.925 109.411 255.925 109.483C255.925 109.704 256.311 113.863 256.226 113.6C256.997 108.843 260.884 109.167 260.884 109.167C261.869 105.366 264.584 102.285 265.099 102.285C265.415 102.807 262.584 94.0841 261.884 94.313Z" fill="#075D7D"/>
<path fill-rule="evenodd" clip-rule="evenodd" d="M262.698 96.4981C265.753 102.938 270.689 116.755 272.694 122.369C273.099 123.502 273.384 124.301 273.51 124.638C276.538 131.123 300.099 200.867 299.895 201.216C299.918 201.435 298.125 202.816 298.236 203.5C299.697 212.439 303.5 256 284.497 284C254.397 255.781 227.71 264.737 195.091 283.308C194.576 283.563 184.61 289.203 184.5 288.5C183.638 283 182.993 261.315 183.726 251.615C183.82 250.371 183.941 247.82 184 247C184.357 240.931 187.995 174.638 188.036 173.761C188.65 160.45 187.37 146.946 186.65 133.654C186.491 132.19 186.256 130.652 186.016 129.085C185.436 125.297 184.726 121.348 185.113 117.842C185.653 116.618 186.63 115.765 187.279 115.138C187.776 114.657 188.133 114.304 188.124 114.004C187.942 108.199 192.955 104.683 193.6 106.013C195.196 109.285 195.162 114.344 197.448 117.183C199.278 119.455 206.522 128.449 220.043 127.338C220.828 127.338 256.148 118.309 257.21 117.833C255.815 113.705 254.938 107.186 257.958 103.666C258.559 102.965 259.031 102.415 258.91 101.917C258.089 98.5484 261.664 94.4852 261.664 94.4852C261.974 95.0252 262.322 95.7058 262.698 96.4981ZM256.801 101.844C256.326 98.6504 258.087 95.4664 260.111 93.1357L260.116 93.1303L260.118 93.1281L260.119 93.1272C260.119 93.1272 260.119 93.1263 261.664 94.4852L260.119 93.1263L262.018 90.9688L263.449 93.461C265.221 96.5482 268.038 103.719 270.455 110.193C271.68 113.472 272.825 116.636 273.715 119.116C274.072 120.11 274.385 120.987 274.646 121.717C275.015 122.752 275.279 123.491 275.411 123.846C276.246 125.671 278.306 131.314 280.879 138.606C283.514 146.071 286.739 155.415 289.862 164.563C292.984 173.712 296.007 182.671 298.236 189.365C299.351 192.712 300.269 195.497 300.902 197.459C301.218 198.439 301.467 199.222 301.634 199.77C301.717 200.041 301.785 200.271 301.832 200.445C301.854 200.527 301.88 200.626 301.9 200.722C301.909 200.764 301.927 200.852 301.94 200.958C301.942 200.983 301.947 201.022 301.95 201.071C301.975 201.269 302.036 201.64 302.124 202.17C302.767 206.075 302.15 218.693 301.634 233.5C301.039 250.564 296 275.5 285.852 286.037L284 288L282.5 286.5C251 255.5 224.875 268.823 191.682 288C189.815 288.9 183.134 293.05 182.5 289M256.801 101.844C256.479 102.25 256.127 102.631 255.803 103.036C253.046 106.484 253.702 112.318 254.665 116.43C253.618 116.716 252.205 117.092 250.541 117.529C247.075 118.441 242.54 119.613 238.013 120.771C231.962 122.318 225.97 124.112 219.83 125.291C207.502 126.283 200.938 118.211 199.032 115.868C198.252 114.909 198.103 112.78 197.765 111.588C197.115 109.292 196.278 106.455 195.668 105.204C195.028 103.888 193.142 103.417 191.8 103.698C188.842 104.727 186.239 108.951 186.3 112.828C181.255 114.885 182.993 122.276 183.485 125.995C183.865 128.866 184.325 131.326 184.598 133.821C185.314 147.025 186.591 160.443 185.981 173.666C184.754 199.583 183.883 223.627 181.927 249.5C181.211 258.973 181.5 267.5 181.5 277C181.429 280.38 182.225 287.242 182.5 289" fill="#072F41"/>
<path d="M196.558 115.785C196.882 116.436 194.044 106.97 193.866 106.515C193.215 103.442 187.042 109.742 188.328 113.985C183.328 115.05 184.906 121.973 186.441 131.534C186.521 132.028 187.951 118.645 190.597 122.001C189.833 117.182 195.161 112.985 196.558 115.785Z" fill="#075D7D"/>
<path opacity="0.21" d="M186.223 115.657C194.402 154.873 192.406 216.243 185.274 235.238C183.426 205.594 188.318 193.277 187.994 166.835C187.056 142.41 184.135 115.489 186.223 115.657Z" fill="#072F41"/>
<path opacity="0.2" d="M184.789 233.281C181.561 269.261 201.892 276.696 232.276 267.26C211.639 273.651 195.439 282.661 184.789 291.5C181.515 286.13 182.564 256.76 184.789 233.281Z" fill="#072F41"/>
<path opacity="0.19" d="M255 266.326C283.574 277.405 288.849 261.471 301.237 223.251C302.292 219.155 301.423 266.244 283.533 283.459C279.194 279.797 268.834 272.213 255 266.326Z" fill="#072F41"/>
<path opacity="0.19" d="M258.916 102.001C256.56 108.58 258.916 116.686 263.556 116.3L256.097 117.843C255.321 113.098 253.14 106.656 258.916 102.001Z" fill="#072F41"/>
<path fill-rule="evenodd" clip-rule="evenodd" d="M187.939 113.078C188.497 112.971 189.036 113.337 189.143 113.895C190.34 120.149 191.294 122.737 193.467 125.798C193.796 126.261 193.687 126.903 193.223 127.232C192.76 127.561 192.118 127.452 191.789 126.989C189.369 123.58 188.342 120.659 187.122 114.282C187.015 113.724 187.381 113.185 187.939 113.078Z" fill="#072F41"/>
<path fill-rule="evenodd" clip-rule="evenodd" d="M258.476 101.274C259.034 101.167 259.573 101.533 259.68 102.091C259.956 103.534 260.152 104.633 260.31 105.517C260.505 106.604 260.641 107.366 260.796 108.044C261.06 109.199 261.367 110.045 262.166 111.845C262.396 112.364 262.162 112.972 261.643 113.202C261.124 113.433 260.516 113.199 260.285 112.68C259.464 110.83 259.097 109.845 258.79 108.502C258.627 107.789 258.477 106.951 258.271 105.802C258.111 104.91 257.918 103.831 257.659 102.478C257.552 101.92 257.918 101.381 258.476 101.274Z" fill="#072F41"/>
<path fill-rule="evenodd" clip-rule="evenodd" d="M264.135 115.543C264.238 116.102 263.868 116.639 263.309 116.741L256.411 118.009C255.852 118.112 255.316 117.742 255.213 117.183C255.111 116.624 255.48 116.088 256.039 115.985L262.938 114.717C263.496 114.615 264.033 114.985 264.135 115.543Z" fill="#072F41"/>
<path fill-rule="evenodd" clip-rule="evenodd" d="M274.963 187.525C275.529 187.478 276.027 187.898 276.074 188.464C276.526 193.846 273.942 197.319 270.445 197.899C268.025 198.3 265.514 197.249 263.758 194.916C263.026 198.142 261 200.483 258.137 200.963C254.227 201.617 249.726 198.606 246.236 191.506C245.986 190.996 246.196 190.38 246.706 190.129C247.216 189.879 247.832 190.089 248.083 190.599C251.463 197.476 255.3 199.352 257.797 198.934C260.243 198.524 262.359 195.715 261.954 191.051C261.909 190.523 262.272 190.046 262.795 189.95C263.317 189.855 263.826 190.173 263.97 190.683C265.127 194.792 267.947 196.228 270.108 195.869C272.227 195.518 274.416 193.307 274.024 188.636C273.977 188.07 274.397 187.573 274.963 187.525Z" fill="#072F41"/>
<path fill-rule="evenodd" clip-rule="evenodd" d="M248.734 196.287C249.288 196.41 249.638 196.96 249.514 197.515C248.996 199.839 246.991 202.491 244.149 203.384C242.695 203.842 241.05 203.827 239.341 203.1C237.648 202.379 235.945 200.984 234.296 198.769C233.956 198.314 234.05 197.669 234.506 197.33C234.962 196.991 235.606 197.085 235.946 197.54C237.445 199.554 238.879 200.667 240.146 201.207C241.398 201.739 242.539 201.734 243.532 201.422C245.586 200.776 247.127 198.767 247.506 197.067C247.63 196.512 248.179 196.163 248.734 196.287Z" fill="#072F41"/>
<path fill-rule="evenodd" clip-rule="evenodd" d="M267.861 202.394C268.429 202.371 268.907 202.813 268.93 203.381C269.101 207.677 266.754 210.971 263.424 212.05C260.074 213.136 256.047 211.891 253.009 207.814C252.669 207.359 252.763 206.714 253.219 206.375C253.675 206.035 254.319 206.129 254.659 206.585C257.281 210.105 260.443 210.854 262.789 210.093C265.155 209.326 267.012 206.933 266.874 203.463C266.851 202.895 267.293 202.416 267.861 202.394Z" fill="#072F41"/>
<path fill-rule="evenodd" clip-rule="evenodd" d="M233.783 266.573C243.668 264.137 254.184 263.557 265.139 264.305C265.706 264.344 266.134 264.835 266.096 265.402C266.057 265.969 265.566 266.397 264.999 266.358C254.201 265.62 243.906 266.197 234.275 268.57C233.723 268.706 233.166 268.369 233.03 267.818C232.894 267.266 233.231 266.709 233.783 266.573Z" fill="#072F41"/>
<path d="M283.957 283.325C284.534 286.491 287.165 288.409 288.422 288.435C289.63 288.461 291.375 285.245 290.797 282.078C290.22 278.912 288.221 276.624 286.333 276.968C284.444 277.314 283.38 280.158 283.957 283.325Z" fill="#075D7D"/>
<path fill-rule="evenodd" clip-rule="evenodd" d="M289.953 277.76C290.899 278.843 291.61 280.381 291.925 282.111C292.254 283.916 291.922 285.712 291.341 287.06C291.051 287.735 290.681 288.34 290.258 288.792C289.869 289.209 289.277 289.662 288.544 289.647L288.544 289.647C288.011 289.635 287.451 289.436 286.944 289.163C286.42 288.88 285.88 288.48 285.374 287.979C284.364 286.979 283.448 285.529 283.117 283.715C282.802 281.986 282.924 280.296 283.427 278.95C283.922 277.626 284.869 276.457 286.297 276.196L286.298 276.195L286.298 276.195C287.726 275.935 289.024 276.697 289.953 277.76ZM286.656 278.163C286.195 278.248 285.666 278.674 285.301 279.65C284.944 280.604 284.823 281.92 285.085 283.357C285.331 284.709 286.018 285.802 286.782 286.558C287.164 286.936 287.552 287.218 287.893 287.402C288.203 287.569 288.424 287.629 288.54 287.643C288.572 287.626 288.659 287.574 288.797 287.427C289.023 287.184 289.28 286.792 289.504 286.27C289.954 285.225 290.205 283.83 289.957 282.469C289.695 281.033 289.118 279.844 288.447 279.076C287.761 278.291 287.116 278.08 286.656 278.163Z" fill="#052F41"/>
<path d="M276.885 282.627C277.226 286.131 280.026 288.29 281.755 288.558C283.609 288.846 285.726 285.302 285.385 281.798C285.043 278.293 282.863 275.637 280.515 275.866C278.166 276.095 276.543 279.122 276.885 282.627Z" fill="#075D7D"/>
<path fill-rule="evenodd" clip-rule="evenodd" d="M284.075 277.714C285.098 278.96 285.792 280.695 285.98 282.617C286.171 284.585 285.677 286.549 284.866 288.003C284.461 288.731 283.951 289.376 283.359 289.827C282.769 290.278 282.02 290.59 281.201 290.463L281.201 290.463C280.065 290.287 278.743 289.539 277.674 288.41C276.584 287.261 275.685 285.643 275.489 283.64C275.302 281.718 275.647 279.882 276.41 278.462C277.168 277.048 278.409 275.944 280.018 275.787C281.626 275.631 283.057 276.474 284.075 277.714ZM282.529 278.983C281.785 278.077 280.952 277.706 280.211 277.778C279.472 277.85 278.726 278.374 278.172 279.407C277.621 280.434 277.326 281.864 277.48 283.446C277.626 284.947 278.298 286.162 279.125 287.034C279.973 287.929 280.915 288.394 281.508 288.487M282.529 278.983C283.268 279.883 283.835 281.229 283.989 282.811L282.529 278.983ZM283.989 282.811C284.139 284.348 283.745 285.907 283.12 287.029L283.989 282.811ZM283.12 287.029C282.807 287.59 282.461 287.996 282.145 288.238L283.12 287.029ZM282.145 288.238C281.828 288.48 281.617 288.503 281.508 288.487L282.145 288.238Z" fill="#052F41"/>
<path d="M277.327 283.602C277.678 286.241 280.188 288.358 281.474 288.608C282.853 288.876 284.309 285.729 283.959 283.091C283.608 280.452 282.85 277.729 280.353 277.849C278.241 277.651 276.977 280.964 277.327 283.602Z" fill="#075D7D"/>
<path d="M196.064 288.722C195.595 291.906 193.032 293.912 191.776 293.981C190.569 294.048 188.717 290.893 189.186 287.709C189.655 284.525 191.576 282.17 193.474 282.449C195.376 282.73 196.534 285.538 196.064 288.722Z" fill="#075D7D"/>
<path fill-rule="evenodd" clip-rule="evenodd" d="M191.569 284.412C190.925 285.202 190.388 286.41 190.175 287.855C189.974 289.223 190.272 290.609 190.757 291.638C190.999 292.152 191.269 292.535 191.503 292.77C191.646 292.912 191.734 292.962 191.767 292.978C191.883 292.959 192.102 292.892 192.406 292.714C192.74 292.519 193.119 292.224 193.488 291.834C194.225 291.051 194.875 289.936 195.075 288.576C195.288 287.132 195.123 285.82 194.734 284.878C194.336 283.915 193.793 283.507 193.329 283.439M191.569 284.412C192.229 283.604 192.866 283.371 193.328 283.439L191.569 284.412ZM190.019 283.149C190.912 282.054 192.184 281.249 193.62 281.46L193.62 281.46C195.058 281.672 196.044 282.809 196.583 284.115C197.131 285.444 197.31 287.129 197.054 288.868C196.785 290.691 195.918 292.171 194.943 293.206C194.455 293.723 193.928 294.142 193.414 294.442C192.916 294.732 192.363 294.95 191.831 294.98L191.831 294.98C191.099 295.02 190.492 294.587 190.089 294.184C189.651 293.746 189.261 293.155 188.948 292.49C188.322 291.162 187.929 289.379 188.197 287.563C188.453 285.824 189.111 284.262 190.019 283.149Z" fill="#052F41"/>
<path d="M188.631 288.772C189.756 292.109 188.088 295.225 186.622 296.178C185.048 297.202 181.664 294.837 180.539 291.501C179.414 288.164 180.314 284.85 182.548 284.095C184.782 283.339 187.506 285.436 188.631 288.772Z" fill="#075D7D"/>
<path fill-rule="evenodd" clip-rule="evenodd" d="M181.249 287.092C180.944 288.216 180.979 289.675 181.487 291.181C181.98 292.644 182.978 293.906 184.009 294.673C184.524 295.056 185.006 295.285 185.393 295.375C185.783 295.466 185.984 295.4 186.077 295.34L186.077 295.34C186.58 295.014 187.248 294.203 187.654 293.04C188.051 291.905 188.165 290.521 187.683 289.092C187.176 287.585 186.319 286.402 185.396 285.692C184.466 284.977 183.571 284.804 182.868 285.042C182.164 285.28 181.556 285.96 181.249 287.092ZM179.319 286.568C179.739 285.02 180.698 283.665 182.228 283.147C183.759 282.63 185.343 283.128 186.615 284.106C187.894 285.09 188.962 286.623 189.579 288.453C190.222 290.36 190.065 292.204 189.542 293.699C189.03 295.167 188.131 296.391 187.167 297.017C186.473 297.469 185.661 297.491 184.938 297.323C184.213 297.153 183.484 296.775 182.815 296.277C181.479 295.283 180.223 293.694 179.591 291.82C178.974 289.99 178.896 288.124 179.319 286.568Z" fill="#052F41"/>
<path fill-rule="evenodd" clip-rule="evenodd" d="M219.44 141.772C209.593 142.297 201.889 151.774 202.498 163.192C203.106 174.611 211.774 183.216 221.62 182.691C231.466 182.167 239.17 172.69 238.562 161.271C237.953 149.852 229.286 141.248 219.44 141.772ZM200.443 163.302C199.787 150.987 208.124 140.315 219.33 139.718C230.536 139.121 239.96 148.847 240.616 161.162C241.273 173.477 232.935 184.149 221.729 184.746C210.523 185.343 201.099 175.617 200.443 163.302Z" fill="#99D9E6"/>
<path fill-rule="evenodd" clip-rule="evenodd" d="M270.277 132.98C262.149 133.413 255.634 142.149 256.211 152.98C256.788 163.812 264.194 171.806 272.322 171.373C280.45 170.94 286.965 162.204 286.388 151.372C285.811 140.541 278.405 132.547 270.277 132.98ZM254.156 153.09C253.543 141.583 260.494 131.441 270.168 130.926C279.841 130.41 287.83 139.756 288.443 151.263C289.056 162.769 282.105 172.912 272.431 173.427C262.758 173.943 254.769 164.596 254.156 153.09Z" fill="#99D9E6"/>
<path fill-rule="evenodd" clip-rule="evenodd" d="M247.618 157.434C251.019 156.856 254.957 157.489 257.047 160.333C257.384 160.79 257.285 161.434 256.827 161.771C256.369 162.107 255.726 162.009 255.389 161.551C253.974 159.624 251.032 158.94 247.963 159.463C246.465 159.717 245.031 160.251 243.882 160.983C242.726 161.72 241.92 162.616 241.555 163.573C241.353 164.104 240.759 164.371 240.228 164.169C239.697 163.967 239.43 163.372 239.632 162.841C240.201 161.349 241.375 160.141 242.776 159.248C244.183 158.351 245.882 157.73 247.618 157.434Z" fill="#99D9E6"/>
<path d="M238.277 131.586C230.031 128.562 224.072 127.96 216.981 127.422C217.676 122.174 218.795 116.259 220.047 111.879C220.538 110.156 209.67 110.478 210.346 108.799L227.413 103.781H243.763C244.817 104.805 237.328 106.847 238.282 107.842C242.662 112.414 245.895 116.683 247.127 120.42C247.121 121.994 244.94 125.345 238.277 131.586Z" fill="#034254"/>
<path fill-rule="evenodd" clip-rule="evenodd" d="M227.124 102.794C227.218 102.766 227.316 102.752 227.414 102.752H243.763C244.031 102.752 244.288 102.856 244.48 103.043C244.693 103.25 244.875 103.553 244.893 103.937C244.909 104.296 244.775 104.584 244.652 104.772C244.425 105.119 244.065 105.383 243.779 105.569C243.168 105.967 242.286 106.382 241.499 106.752L241.489 106.757C240.737 107.111 240.059 107.43 239.579 107.713C243.702 112.09 246.851 116.295 248.104 120.097C248.139 120.202 248.156 120.312 248.156 120.423C248.154 121.035 247.946 121.701 247.604 122.402C247.255 123.115 246.733 123.935 246.018 124.874C244.59 126.754 242.333 129.197 238.981 132.336C238.697 132.602 238.288 132.685 237.923 132.551C229.812 129.576 223.965 128.983 216.904 128.448C216.622 128.426 216.362 128.29 216.183 128.07C216.005 127.851 215.925 127.567 215.962 127.287C216.637 122.191 217.71 116.454 218.926 112.066C218.795 112.017 218.619 111.962 218.391 111.904C217.522 111.683 216.298 111.517 214.991 111.342L214.923 111.333C213.681 111.166 212.362 110.989 211.393 110.743C210.916 110.621 210.403 110.455 210.016 110.196C209.819 110.064 209.57 109.852 209.418 109.527C209.246 109.161 209.251 108.765 209.392 108.414C209.51 108.122 209.755 107.9 210.056 107.811L227.124 102.794ZM219.207 112.199C219.207 112.199 219.205 112.198 219.203 112.196C219.206 112.198 219.207 112.199 219.207 112.199ZM239.026 107.13C239.026 107.13 239.025 107.13 239.025 107.13L239.025 107.13C239.026 107.13 239.026 107.13 239.026 107.13ZM227.562 104.81L213.253 109.016C213.866 109.115 214.55 109.207 215.265 109.303L215.294 109.307C216.55 109.475 217.895 109.656 218.897 109.91C219.389 110.035 219.905 110.202 220.299 110.455C220.5 110.583 220.742 110.779 220.908 111.072C221.093 111.4 221.145 111.783 221.037 112.161L221.037 112.162C219.887 116.183 218.844 121.547 218.149 126.48C224.642 126.992 230.385 127.669 238.033 130.403C241.087 127.513 243.113 125.297 244.38 123.63C245.045 122.755 245.485 122.052 245.755 121.499C245.971 121.057 246.059 120.751 246.087 120.555C244.886 117.093 241.829 113.031 237.54 108.553C237.321 108.325 237.158 108 237.17 107.611C237.181 107.259 237.332 106.988 237.456 106.818C237.69 106.496 238.045 106.244 238.336 106.061C238.929 105.688 239.765 105.294 240.525 104.937C240.558 104.921 240.59 104.906 240.622 104.891C240.681 104.864 240.738 104.836 240.795 104.81H227.562ZM211.155 108.482C211.155 108.482 211.157 108.483 211.16 108.486C211.156 108.483 211.155 108.482 211.155 108.482Z" fill="#072F41"/>
<path fill-rule="evenodd" clip-rule="evenodd" d="M236.301 108.356C236.543 108.87 236.323 109.483 235.81 109.726L229.277 112.809C229.11 112.888 228.925 112.92 228.741 112.903L218.629 111.952C218.063 111.898 217.648 111.397 217.701 110.831C217.754 110.265 218.256 109.85 218.822 109.903L228.654 110.828L234.931 107.865C235.445 107.623 236.058 107.843 236.301 108.356Z" fill="#072F41"/>
<path fill-rule="evenodd" clip-rule="evenodd" d="M228.396 106.505C228.555 107.051 228.241 107.622 227.696 107.781L216.023 111.184L213.402 118.105C213.357 118.223 213.291 118.332 213.207 118.426L211.08 120.807C210.701 121.231 210.051 121.268 209.627 120.889C209.203 120.511 209.167 119.861 209.545 119.437L211.545 117.198L214.281 109.975C214.395 109.673 214.645 109.442 214.955 109.352L227.12 105.806C227.665 105.647 228.236 105.96 228.396 106.505Z" fill="#99D9E6"/>
<path fill-rule="evenodd" clip-rule="evenodd" d="M212.13 116.759C212.672 116.588 213.25 116.889 213.421 117.43L214.763 121.684C214.934 122.226 214.633 122.803 214.092 122.974C213.55 123.145 212.972 122.845 212.801 122.303L211.458 118.049C211.287 117.508 211.588 116.93 212.13 116.759Z" fill="#99D9E6"/>
<path d="M184.969 186.513C195.162 221.154 210.514 220.62 237.948 212.934C242.739 211.151 243.918 217.661 239.582 219.723C243.525 220.958 238.756 228.857 233.516 229.612C236.981 228.393 238.339 232.29 232.363 235.69C221.685 240.11 175.248 249.103 181.469 199.009L184.969 186.513Z" fill="#1CAADA"/>
<path d="M216.526 239.36C224.949 235.143 229.739 231.01 228.595 228.079C232.099 226.274 235.492 223.611 232.187 222.064C234.895 219.892 232.133 217.437 227.003 215.298C232.579 215.359 239.342 210.442 243.043 213.692C243.386 214.218 241.917 217.052 239.51 219.221C243.827 220.688 239.051 227.543 233.874 229.173C236.201 229.754 237.933 232.328 232.673 234.98C230.393 235.946 222.012 238.997 216.526 239.36Z" fill="#075D7D"/>
<path opacity="0.3" d="M184.969 187.513C179.969 241.995 224.549 236.499 236.103 227.493C235.752 231.988 230.246 235.415 229.907 235.615C212.779 242.571 166.969 244.995 184.969 187.513Z" fill="#072F41"/>
<path fill-rule="evenodd" clip-rule="evenodd" d="M185.402 185.573C185.402 185.573 185.567 186.102 185.425 186.738L184.969 189.012C187.673 199.529 193.771 211.571 201.874 215.126C210.438 218.883 225.622 217.743 232.24 215.126C234.422 214.263 236.509 213.728 238.218 213.527C239.074 213.427 239.811 213.413 240.405 213.473C241.013 213.535 241.398 213.667 241.608 213.798C241.783 213.907 241.793 213.978 241.799 214.027C241.811 214.134 241.787 214.424 241.469 214.955C240.829 216.025 239.29 217.583 236.404 219.645C235.959 219.964 235.815 220.561 236.066 221.047C236.317 221.533 236.887 221.761 237.405 221.582C238.38 221.244 239.075 221.114 239.543 221.102C239.887 221.093 240.035 221.148 240.081 221.172C240.087 221.198 240.093 221.25 240.086 221.341C240.068 221.581 239.962 221.951 239.713 222.437C239.218 223.401 238.291 224.568 237.095 225.632C235.901 226.693 234.505 227.592 233.115 228.079C232.638 228.246 232.336 228.716 232.382 229.218C232.428 229.721 232.81 230.128 233.309 230.206C234.64 230.414 234.801 230.811 234.801 230.811C234.806 230.828 234.865 231.239 233.97 232.091C232.299 233.683 228.419 235.667 222.37 237.087C216.308 238.51 207.081 238.011 200.469 236.497C192.976 234.78 175.969 225.632 184.469 191.511L184.969 189.012L185.425 186.738C185.943 184.752 184.492 185.473 183.969 186.513C183.592 187.263 182.535 191.257 182.469 191.511C173.326 227.007 191.905 236.681 199.398 238.825C206.501 240.452 216.699 240.68 222.873 239.231C229.062 237.779 233.397 235.679 235.49 233.686C236.477 232.745 237.304 231.49 236.91 230.178C236.772 229.717 236.512 229.345 236.171 229.046C237.029 228.527 237.835 227.92 238.558 227.278C239.903 226.083 241.024 224.707 241.672 223.443C241.994 222.815 242.233 222.15 242.282 221.509C242.333 220.853 242.184 220.111 241.592 219.562C241.335 219.324 241.036 219.162 240.714 219.057C241.958 217.956 242.831 216.968 243.359 216.087C243.803 215.345 244.075 214.56 243.988 213.783C243.895 212.947 243.412 212.326 242.771 211.927C242.165 211.551 241.41 211.361 240.628 211.282C239.832 211.201 238.927 211.226 237.961 211.34C236.029 211.567 233.755 212.158 231.43 213.078C225.312 215.497 210.722 216.352 202.694 213.078C199.074 211.282 192.469 207.006 186.13 186.407C185.891 185.848 185.402 185.573 185.402 185.573ZM240.073 221.148C240.073 221.148 240.074 221.152 240.078 221.159C240.075 221.151 240.073 221.148 240.073 221.148Z" fill="#072F41"/>
<path fill-rule="evenodd" clip-rule="evenodd" d="M238.056 220.052C237.812 219.513 237.178 219.274 236.639 219.518L230.485 222.301C229.947 222.545 229.707 223.179 229.951 223.717C230.195 224.256 230.829 224.495 231.368 224.251L237.521 221.468C238.06 221.224 238.299 220.59 238.056 220.052Z" fill="#072F41"/>
<path d="M294.572 179.544C304.778 214.18 291.585 222.047 264.361 230.444C259.367 231.541 261.904 237.651 266.666 237.035C264.022 240.209 272.311 244.266 277.125 242.062C273.551 242.915 274.522 246.925 281.388 246.546C292.758 244.479 336.663 226.887 304.286 188.152L294.572 179.544Z" fill="#1CAADA"/>
<path d="M296.688 241.054C287.322 242.072 281.057 241.191 280.429 238.109C276.506 238.49 272.212 238.089 274.151 234.998C270.697 234.64 271.688 231.081 274.841 226.504C270.187 229.575 261.838 229.106 260.489 233.841C260.486 234.469 263.256 236.056 266.454 236.575C263.621 240.146 271.351 243.321 276.585 241.888C274.944 243.636 274.884 246.738 280.742 246.118C283.182 245.695 291.88 243.721 296.688 241.054Z" fill="#075D7D"/>
<path opacity="0.3" d="M295.114 180.384C328.843 223.47 288.394 242.994 273.802 241.683C276.533 245.271 283.018 245.169 283.412 245.153C301.577 241.724 341.395 218.95 295.114 180.384Z" fill="#072F41"/>
<path fill-rule="evenodd" clip-rule="evenodd" d="M293.698 178.988C293.698 178.988 293.846 179.522 294.31 179.98L295.926 181.644C299.352 191.948 300.753 205.372 295.869 212.749C290.707 220.545 277.327 227.811 270.346 229.195C268.045 229.652 266 230.332 264.454 231.09C263.681 231.468 263.054 231.856 262.587 232.229C262.109 232.61 261.858 232.929 261.752 233.153C261.664 233.339 261.694 233.405 261.716 233.449C261.764 233.545 261.941 233.777 262.496 234.051C263.614 234.603 265.751 235.079 269.295 235.25C269.842 235.276 270.287 235.7 270.339 236.244C270.391 236.789 270.035 237.289 269.504 237.419C268.501 237.664 267.846 237.93 267.446 238.174C267.152 238.352 267.058 238.479 267.031 238.524C267.041 238.55 267.064 238.597 267.119 238.669C267.265 238.861 267.554 239.114 268.028 239.388C268.965 239.93 270.377 240.409 271.959 240.655C273.537 240.9 275.198 240.9 276.631 240.557C277.122 240.439 277.63 240.67 277.864 241.118C278.098 241.565 277.997 242.114 277.62 242.45C276.614 243.346 276.694 243.766 276.694 243.766C276.699 243.783 276.873 244.161 278.086 244.392C280.353 244.825 284.69 244.392 290.544 242.309C296.411 240.221 303.895 234.805 308.632 229.951C314 224.45 323.337 207.55 297.7 183.474L295.926 181.644L294.31 179.98C292.798 178.591 294.409 178.411 295.412 179.002C296.135 179.428 299.189 182.213 299.382 182.391C326.303 207.274 315.93 225.468 310.794 231.328C305.706 236.542 297.258 242.257 291.283 244.384C285.294 246.514 280.512 247.097 277.673 246.555C276.334 246.3 274.958 245.692 274.578 244.376C274.445 243.914 274.461 243.46 274.586 243.024C273.584 243.054 272.577 242.98 271.621 242.831C269.843 242.555 268.155 242.006 266.925 241.294C266.315 240.941 265.753 240.512 265.364 239.999C264.967 239.475 264.689 238.772 264.89 237.989C264.977 237.65 265.14 237.351 265.354 237.089C263.712 236.838 262.442 236.48 261.521 236.025C260.746 235.642 260.092 235.129 259.744 234.429C259.369 233.676 259.438 232.892 259.761 232.21C260.066 231.566 260.598 230.998 261.213 230.507C261.838 230.008 262.612 229.54 263.485 229.112C265.233 228.256 267.465 227.522 269.917 227.035C276.37 225.755 289.097 218.572 294.07 211.472C296.139 208.002 299.374 200.831 293.538 180.084C293.436 179.484 293.698 178.988 293.698 178.988ZM267.026 238.499C267.026 238.499 267.028 238.504 267.027 238.511C267.025 238.503 267.026 238.499 267.026 238.499Z" fill="#072F41"/>
<path fill-rule="evenodd" clip-rule="evenodd" d="M268.127 236.485C268.04 235.901 268.444 235.356 269.029 235.269L275.709 234.276C276.294 234.189 276.839 234.592 276.926 235.177C277.013 235.761 276.609 236.306 276.024 236.393L269.344 237.386C268.759 237.473 268.214 237.07 268.127 236.485Z" fill="#072F41"/>
<path d="M259.688 171.8C259.636 171.803 254.541 175.147 252.103 179.441C248.612 177.156 244.901 176.236 240.856 177.867C239.748 178.313 245.288 166.941 248.848 166.318C252.77 165.628 261.145 171.752 259.688 171.8Z" fill="#034254"/>
<path fill-rule="evenodd" clip-rule="evenodd" d="M252.412 180.719L252.886 179.885C254.031 177.868 255.827 176.037 257.38 174.692C258.15 174.024 258.848 173.487 259.354 173.119C259.607 172.934 259.81 172.793 259.949 172.7C259.978 172.681 260.003 172.664 260.025 172.649C260.261 172.58 260.55 172.418 260.692 172.039C260.785 171.791 260.759 171.565 260.725 171.425C260.69 171.282 260.632 171.163 260.583 171.077C260.407 170.766 260.083 170.442 259.758 170.153C259.064 169.536 257.982 168.756 256.75 168.012C255.516 167.266 254.093 166.534 252.709 166.031C251.354 165.538 249.911 165.217 248.692 165.431C248.05 165.544 247.441 165.88 246.894 166.293C246.339 166.712 245.79 167.254 245.264 167.856C244.211 169.059 243.188 170.577 242.326 172.036C241.464 173.497 240.743 174.934 240.305 175.994C240.091 176.511 239.922 176.99 239.852 177.353C239.833 177.448 239.818 177.554 239.813 177.664C239.809 177.762 239.811 177.924 239.869 178.099C239.931 178.288 240.092 178.578 240.448 178.715C240.773 178.84 241.058 178.756 241.193 178.702L241.193 178.702C244.886 177.213 248.285 178.017 251.61 180.194L252.412 180.719ZM251.808 178.197C248.794 176.415 245.537 175.599 242.034 176.527C242.44 175.573 243.091 174.281 243.877 172.951C244.707 171.546 245.666 170.131 246.619 169.041C247.096 168.496 247.555 168.05 247.979 167.73C248.412 167.403 248.755 167.248 249.003 167.204L249.004 167.204C249.746 167.074 250.821 167.259 252.094 167.722C253.337 168.175 254.652 168.847 255.82 169.552C256.978 170.252 257.955 170.962 258.545 171.483C258.467 171.538 258.383 171.599 258.293 171.664C257.753 172.057 257.015 172.625 256.201 173.331C254.776 174.566 253.076 176.256 251.808 178.197Z" fill="#072F41"/>
<path d="M220.494 179.984C228.384 179.564 234.404 172.139 233.938 163.401C233.473 154.663 226.699 147.92 218.808 148.34C210.918 148.761 204.898 156.185 205.364 164.924C205.829 173.662 212.603 180.404 220.494 179.984Z" fill="#034254"/>
<path fill-rule="evenodd" clip-rule="evenodd" d="M218.861 149.338C211.616 149.725 205.921 156.585 206.362 164.87C206.804 173.155 213.195 179.372 220.441 178.985C227.686 178.599 233.381 171.739 232.94 163.454C232.499 155.169 226.107 148.952 218.861 149.338ZM204.365 164.977C203.876 155.786 210.219 147.797 218.755 147.342C227.291 146.887 234.447 154.157 234.937 163.347C235.427 172.538 229.083 180.527 220.547 180.982C212.011 181.437 204.855 174.167 204.365 164.977Z" fill="#072F41"/>
<path d="M218.806 178.095C224.985 178.095 229.994 173.087 229.994 166.908C229.994 160.73 224.985 155.722 218.806 155.722C212.627 155.722 207.618 160.73 207.618 166.908C207.618 173.087 212.627 178.095 218.806 178.095Z" fill="#135669"/>
<path d="M228.281 163.869C230.518 163.005 231.473 160.084 230.415 157.346C229.356 154.608 226.685 153.089 224.449 153.953C222.212 154.818 221.257 157.738 222.316 160.477C223.374 163.215 226.045 164.734 228.281 163.869Z" fill="white"/>
<path d="M227.998 173.358C229.597 171.991 229.839 169.652 228.54 168.133C227.241 166.615 224.892 166.493 223.294 167.86C221.695 169.227 221.452 171.567 222.751 173.085C224.051 174.604 226.4 174.726 227.998 173.358Z" fill="white"/>
<path d="M272.823 168.728C278.904 167.682 282.672 160.085 281.239 151.759C279.806 143.434 273.715 137.533 267.634 138.58C261.554 139.626 257.786 147.223 259.219 155.549C260.652 163.874 266.743 169.775 272.823 168.728Z" fill="#034254"/>
<path fill-rule="evenodd" clip-rule="evenodd" d="M261.505 144.779C260.086 147.64 259.52 151.403 260.204 155.379C260.888 159.356 262.68 162.713 264.974 164.935C267.269 167.158 270.005 168.199 272.654 167.743C275.303 167.288 277.533 165.392 278.953 162.53C280.372 159.668 280.938 155.905 280.254 151.929C279.569 147.953 277.778 144.596 275.484 142.373C273.189 140.15 270.453 139.109 267.804 139.565C265.155 140.021 262.924 141.916 261.505 144.779ZM259.713 143.891C261.339 140.612 264.033 138.185 267.465 137.595C270.897 137.004 274.247 138.391 276.876 140.937C279.505 143.485 281.476 147.241 282.225 151.59C282.973 155.939 282.372 160.138 280.745 163.418C279.119 166.697 276.425 169.123 272.993 169.714C269.561 170.304 266.211 168.918 263.582 166.371C260.952 163.824 258.982 160.068 258.233 155.718C257.485 151.369 258.086 147.171 259.713 143.891Z" fill="#072F41"/>
<path d="M271.191 167.772C275.811 167.01 278.77 161.623 277.8 155.739C276.83 149.856 272.298 145.704 267.677 146.466C263.057 147.228 260.097 152.615 261.068 158.498C262.038 164.382 266.57 168.534 271.191 167.772Z" fill="#135669"/>
<path d="M277.474 152.459C279.045 151.695 279.387 149.162 278.238 146.802C277.089 144.442 274.885 143.148 273.314 143.913C271.743 144.677 271.4 147.21 272.549 149.57C273.698 151.93 275.903 153.224 277.474 152.459Z" fill="white"/>
<path d="M276.722 161.496C278.142 161.676 279.489 160.283 279.729 158.385C279.97 156.487 279.013 154.803 277.593 154.623C276.172 154.443 274.826 155.836 274.585 157.734C274.345 159.632 275.302 161.316 276.722 161.496Z" fill="white"/>
</svg>
