<svg width="448" height="254" viewBox="0 0 448 254" fill="none" xmlns="http://www.w3.org/2000/svg">
<path d="M307.495 16.4962V188.5H6.5V16.4962C6.5 12.5941 9.59981 9.5 13.5052 9.5H300.495C304.315 9.5 307.358 12.4541 307.495 16.23V16.4962Z" fill="#AAAAAA" stroke="#333333"/>
<path d="M12.5 182.5V15.5H301.5V182.5H12.5Z" fill="white" stroke="#333333"/>
<mask id="path-3-inside-1_9083_121194" fill="white">
<path d="M13 16H301V88H13V16Z"/>
</mask>
<path d="M13 16H301V88H13V16Z" fill="#F5F5F5"/>
<path d="M301 87H13V89H301V87Z" fill="#DDDDDD" mask="url(#path-3-inside-1_9083_121194)"/>
<path d="M83.2627 49.292C84.6445 49.292 85.6528 49.563 86.2876 50.105C86.9272 50.6421 87.2471 51.4136 87.2471 52.4194C87.2471 52.8735 87.1714 53.3057 87.02 53.7158C86.8735 54.1211 86.6343 54.48 86.3022 54.7925C85.9702 55.1001 85.5332 55.3442 84.9912 55.5249C84.4541 55.7007 83.7949 55.7886 83.0137 55.7886H81.71V60H80.4648V49.292H83.2627ZM83.1455 50.354H81.71V54.7192H82.8745C83.5581 54.7192 84.127 54.646 84.5811 54.4995C85.04 54.353 85.3843 54.1162 85.6138 53.7891C85.8433 53.457 85.958 53.0176 85.958 52.4707C85.958 51.7578 85.731 51.228 85.2769 50.8813C84.8228 50.5298 84.1123 50.354 83.1455 50.354ZM90.8283 60H89.6052V48.6035H90.8283V60ZM96.7021 51.8408C97.6591 51.8408 98.3695 52.0557 98.8334 52.4854C99.2973 52.915 99.5292 53.6011 99.5292 54.5435V60H98.643L98.4086 58.8135H98.35C98.1254 59.1064 97.891 59.353 97.6469 59.5532C97.4027 59.7485 97.1195 59.8975 96.7973 60C96.4799 60.0977 96.0893 60.1465 95.6254 60.1465C95.1371 60.1465 94.7025 60.061 94.3217 59.8901C93.9457 59.7192 93.6479 59.4604 93.4281 59.1138C93.2133 58.7671 93.1059 58.3276 93.1059 57.7954C93.1059 56.9946 93.4232 56.3794 94.058 55.9497C94.6928 55.52 95.6596 55.2856 96.9584 55.2466L98.3427 55.188V54.6973C98.3427 54.0039 98.1938 53.5181 97.8959 53.2397C97.598 52.9614 97.1781 52.8223 96.6361 52.8223C96.2162 52.8223 95.8158 52.8833 95.435 53.0054C95.0541 53.1274 94.6928 53.2715 94.351 53.4375L93.9774 52.5146C94.3388 52.3291 94.7538 52.1704 95.2226 52.0386C95.6913 51.9067 96.1845 51.8408 96.7021 51.8408ZM98.328 56.0449L97.1049 56.0962C96.1039 56.1353 95.3983 56.2988 94.9882 56.5869C94.578 56.875 94.3729 57.2827 94.3729 57.8101C94.3729 58.269 94.5121 58.6084 94.7904 58.8281C95.0688 59.0479 95.4374 59.1577 95.8964 59.1577C96.6093 59.1577 97.1928 58.96 97.6469 58.5645C98.101 58.1689 98.328 57.5757 98.328 56.7847V56.0449ZM104.927 59.1504C105.127 59.1504 105.332 59.1333 105.542 59.0991C105.752 59.0649 105.923 59.0234 106.055 58.9746V59.9194C105.913 59.9829 105.715 60.0366 105.462 60.0806C105.212 60.1245 104.968 60.1465 104.729 60.1465C104.304 60.1465 103.919 60.0732 103.572 59.9268C103.225 59.7754 102.947 59.5215 102.737 59.165C102.532 58.8086 102.429 58.3154 102.429 57.6855V52.9248H101.287V52.3315L102.437 51.8555L102.92 50.1123H103.652V51.9727H106.004V52.9248H103.652V57.6489C103.652 58.1519 103.767 58.5278 103.997 58.7769C104.231 59.0259 104.541 59.1504 104.927 59.1504ZM111.072 51.8262C111.755 51.8262 112.341 51.9775 112.829 52.2803C113.318 52.583 113.691 53.0078 113.95 53.5547C114.209 54.0967 114.338 54.7314 114.338 55.459V56.2134H108.794C108.808 57.1558 109.043 57.8735 109.497 58.3667C109.951 58.8599 110.591 59.1064 111.416 59.1064C111.924 59.1064 112.373 59.0601 112.763 58.9673C113.154 58.8745 113.559 58.7378 113.979 58.5571V59.6265C113.574 59.8071 113.171 59.939 112.771 60.022C112.375 60.105 111.907 60.1465 111.365 60.1465C110.593 60.1465 109.919 59.9902 109.343 59.6777C108.772 59.3604 108.327 58.8965 108.01 58.2861C107.693 57.6758 107.534 56.9287 107.534 56.0449C107.534 55.1807 107.678 54.4336 107.966 53.8037C108.259 53.1689 108.669 52.6807 109.197 52.3389C109.729 51.9971 110.354 51.8262 111.072 51.8262ZM111.057 52.8223C110.408 52.8223 109.89 53.0347 109.504 53.4595C109.118 53.8843 108.889 54.4775 108.816 55.2393H113.064C113.059 54.7607 112.983 54.3408 112.837 53.9795C112.695 53.6133 112.478 53.3301 112.185 53.1299C111.892 52.9248 111.516 52.8223 111.057 52.8223ZM120.278 52.9248H118.278V60H117.062V52.9248H115.642V52.3389L117.062 51.936V51.4014C117.062 50.7275 117.163 50.1807 117.363 49.7607C117.563 49.3359 117.854 49.0234 118.234 48.8232C118.615 48.623 119.079 48.5229 119.626 48.5229C119.934 48.5229 120.214 48.5498 120.468 48.6035C120.727 48.6572 120.954 48.7183 121.149 48.7866L120.834 49.7461C120.668 49.6924 120.48 49.6436 120.271 49.5996C120.065 49.5508 119.855 49.5264 119.641 49.5264C119.177 49.5264 118.833 49.6777 118.608 49.9805C118.388 50.2783 118.278 50.7471 118.278 51.3867V51.9727H120.278V52.9248ZM128.979 55.9717C128.979 56.6309 128.893 57.2192 128.722 57.7368C128.551 58.2544 128.305 58.6914 127.983 59.0479C127.66 59.4043 127.27 59.6777 126.811 59.8682C126.357 60.0537 125.842 60.1465 125.265 60.1465C124.728 60.1465 124.235 60.0537 123.786 59.8682C123.342 59.6777 122.956 59.4043 122.629 59.0479C122.306 58.6914 122.055 58.2544 121.874 57.7368C121.698 57.2192 121.611 56.6309 121.611 55.9717C121.611 55.0928 121.759 54.3457 122.057 53.7305C122.355 53.1104 122.78 52.6392 123.332 52.3169C123.888 51.9897 124.55 51.8262 125.317 51.8262C126.049 51.8262 126.689 51.9897 127.236 52.3169C127.787 52.644 128.215 53.1177 128.517 53.7378C128.825 54.353 128.979 55.0977 128.979 55.9717ZM122.87 55.9717C122.87 56.6162 122.956 57.1753 123.127 57.6489C123.298 58.1226 123.561 58.4888 123.918 58.7476C124.274 59.0063 124.733 59.1357 125.295 59.1357C125.851 59.1357 126.308 59.0063 126.664 58.7476C127.026 58.4888 127.292 58.1226 127.463 57.6489C127.633 57.1753 127.719 56.6162 127.719 55.9717C127.719 55.332 127.633 54.7803 127.463 54.3164C127.292 53.8477 127.028 53.4863 126.672 53.2324C126.315 52.9785 125.854 52.8516 125.287 52.8516C124.452 52.8516 123.84 53.1274 123.449 53.6792C123.063 54.231 122.87 54.9951 122.87 55.9717ZM135.028 51.8262C135.189 51.8262 135.358 51.8359 135.534 51.8555C135.709 51.8701 135.866 51.8921 136.002 51.9214L135.849 53.0493C135.717 53.0151 135.57 52.9883 135.409 52.9688C135.248 52.9492 135.097 52.9395 134.955 52.9395C134.633 52.9395 134.328 53.0054 134.039 53.1372C133.756 53.2642 133.507 53.4497 133.292 53.6938C133.078 53.9331 132.909 54.2236 132.787 54.5654C132.665 54.9023 132.604 55.2783 132.604 55.6934V60H131.381V51.9727H132.392L132.523 53.4521H132.575C132.741 53.1543 132.941 52.8833 133.175 52.6392C133.41 52.3901 133.681 52.1924 133.988 52.0459C134.301 51.8994 134.647 51.8262 135.028 51.8262ZM146.534 51.8262C147.418 51.8262 148.085 52.0581 148.534 52.522C148.983 52.981 149.208 53.7207 149.208 54.7412V60H148.006V54.7998C148.006 54.1504 147.865 53.6646 147.582 53.3423C147.303 53.0151 146.888 52.8516 146.337 52.8516C145.56 52.8516 144.996 53.0762 144.645 53.5254C144.293 53.9746 144.117 54.6362 144.117 55.5103V60H142.909V54.7998C142.909 54.3652 142.845 54.0039 142.718 53.7158C142.596 53.4277 142.411 53.2129 142.162 53.0713C141.918 52.9248 141.608 52.8516 141.232 52.8516C140.699 52.8516 140.272 52.9614 139.95 53.1812C139.628 53.4009 139.393 53.728 139.247 54.1626C139.105 54.5923 139.034 55.1221 139.034 55.752V60H137.818V51.9727H138.8L138.983 53.1079H139.049C139.21 52.8296 139.413 52.5952 139.657 52.4048C139.901 52.2144 140.174 52.0703 140.477 51.9727C140.78 51.875 141.102 51.8262 141.444 51.8262C142.054 51.8262 142.565 51.9409 142.975 52.1704C143.39 52.395 143.69 52.7393 143.876 53.2031H143.942C144.205 52.7393 144.567 52.395 145.025 52.1704C145.484 51.9409 145.987 51.8262 146.534 51.8262ZM155.096 51.8262C155.78 51.8262 156.366 51.9775 156.854 52.2803C157.342 52.583 157.716 53.0078 157.974 53.5547C158.233 54.0967 158.363 54.7314 158.363 55.459V56.2134H152.818C152.833 57.1558 153.067 57.8735 153.521 58.3667C153.975 58.8599 154.615 59.1064 155.44 59.1064C155.948 59.1064 156.397 59.0601 156.788 58.9673C157.179 58.8745 157.584 58.7378 158.004 58.5571V59.6265C157.598 59.8071 157.196 59.939 156.795 60.022C156.4 60.105 155.931 60.1465 155.389 60.1465C154.617 60.1465 153.944 59.9902 153.367 59.6777C152.796 59.3604 152.352 58.8965 152.034 58.2861C151.717 57.6758 151.558 56.9287 151.558 56.0449C151.558 55.1807 151.702 54.4336 151.991 53.8037C152.283 53.1689 152.694 52.6807 153.221 52.3389C153.753 51.9971 154.378 51.8262 155.096 51.8262ZM155.081 52.8223C154.432 52.8223 153.914 53.0347 153.529 53.4595C153.143 53.8843 152.913 54.4775 152.84 55.2393H157.088C157.083 54.7607 157.008 54.3408 156.861 53.9795C156.72 53.6133 156.502 53.3301 156.209 53.1299C155.916 52.9248 155.54 52.8223 155.081 52.8223Z" fill="#403333"/>
<circle cx="29.5" cy="147.5" r="2.5" fill="#333333"/>
<path d="M45.2627 142.292C46.6445 142.292 47.6528 142.563 48.2876 143.105C48.9272 143.642 49.2471 144.414 49.2471 145.419C49.2471 145.874 49.1714 146.306 49.02 146.716C48.8735 147.121 48.6343 147.48 48.3022 147.792C47.9702 148.1 47.5332 148.344 46.9912 148.525C46.4541 148.701 45.7949 148.789 45.0137 148.789H43.71V153H42.4648V142.292H45.2627ZM45.1455 143.354H43.71V147.719H44.8745C45.5581 147.719 46.127 147.646 46.5811 147.5C47.04 147.353 47.3843 147.116 47.6138 146.789C47.8433 146.457 47.958 146.018 47.958 145.471C47.958 144.758 47.731 144.228 47.2769 143.881C46.8228 143.53 46.1123 143.354 45.1455 143.354ZM52.8283 153H51.6052V141.604H52.8283V153ZM62.3275 144.973V153H61.3314L61.1557 151.872H61.0897C60.9237 152.15 60.7089 152.385 60.4452 152.575C60.1815 152.766 59.8837 152.907 59.5517 153C59.2245 153.098 58.8754 153.146 58.5043 153.146C57.8695 153.146 57.3373 153.044 56.9076 152.839C56.4779 152.634 56.1532 152.316 55.9335 151.887C55.7187 151.457 55.6112 150.905 55.6112 150.231V144.973H56.8417V150.144C56.8417 150.812 56.9931 151.313 57.2958 151.645C57.5985 151.972 58.06 152.136 58.6801 152.136C59.2758 152.136 59.7494 152.023 60.101 151.799C60.4574 151.574 60.7138 151.245 60.87 150.81C61.0263 150.371 61.1044 149.833 61.1044 149.199V144.973H62.3275ZM67.4396 156.604C66.3849 156.604 65.5719 156.406 65.0006 156.01C64.4293 155.62 64.1437 155.07 64.1437 154.362C64.1437 153.859 64.3023 153.43 64.6197 153.073C64.942 152.717 65.3863 152.48 65.9527 152.363C65.7428 152.265 65.5621 152.119 65.4107 151.923C65.2643 151.728 65.191 151.503 65.191 151.25C65.191 150.957 65.2716 150.7 65.4327 150.48C65.5987 150.256 65.8502 150.041 66.1871 149.836C65.7672 149.665 65.4254 149.377 65.1617 148.972C64.9029 148.562 64.7735 148.085 64.7735 147.543C64.7735 146.967 64.8932 146.477 65.1324 146.071C65.3717 145.661 65.7184 145.349 66.1725 145.134C66.6266 144.919 67.1759 144.812 67.8204 144.812C67.962 144.812 68.1036 144.819 68.2452 144.833C68.3917 144.843 68.5309 144.86 68.6627 144.885C68.7945 144.904 68.9093 144.929 69.0069 144.958H71.7608V145.742L70.2813 145.925C70.4278 146.115 70.5499 146.345 70.6476 146.613C70.7452 146.882 70.794 147.18 70.794 147.507C70.794 148.308 70.523 148.945 69.9811 149.418C69.4391 149.887 68.6944 150.122 67.7472 150.122C67.5226 150.122 67.2931 150.102 67.0587 150.063C66.8194 150.195 66.6363 150.341 66.5094 150.502C66.3873 150.664 66.3263 150.849 66.3263 151.059C66.3263 151.215 66.3727 151.34 66.4654 151.433C66.5631 151.525 66.7022 151.594 66.8829 151.638C67.0636 151.677 67.2809 151.696 67.5348 151.696H68.9483C69.8224 151.696 70.4913 151.879 70.9552 152.246C71.4239 152.612 71.6583 153.146 71.6583 153.85C71.6583 154.738 71.297 155.419 70.5743 155.893C69.8517 156.367 68.8067 156.604 67.4396 156.604ZM67.4762 155.651C68.1402 155.651 68.6896 155.583 69.1241 155.446C69.5636 155.314 69.8907 155.122 70.1056 154.868C70.3253 154.619 70.4352 154.321 70.4352 153.974C70.4352 153.652 70.3619 153.408 70.2154 153.242C70.0689 153.081 69.8541 152.973 69.5709 152.919C69.2877 152.861 68.941 152.832 68.5309 152.832H67.1393C66.7779 152.832 66.463 152.888 66.1944 153C65.9259 153.112 65.7184 153.278 65.5719 153.498C65.4303 153.718 65.3595 153.991 65.3595 154.318C65.3595 154.753 65.5426 155.083 65.9088 155.307C66.275 155.537 66.7975 155.651 67.4762 155.651ZM67.7911 149.235C68.3722 149.235 68.8092 149.089 69.1021 148.796C69.3951 148.503 69.5416 148.076 69.5416 147.514C69.5416 146.914 69.3927 146.464 69.0948 146.167C68.797 145.864 68.3575 145.712 67.7765 145.712C67.2198 145.712 66.7901 145.869 66.4874 146.181C66.1896 146.489 66.0406 146.94 66.0406 147.536C66.0406 148.083 66.192 148.503 66.4947 148.796C66.7975 149.089 67.2296 149.235 67.7911 149.235ZM74.8587 144.973V153H73.6429V144.973H74.8587ZM74.2654 141.97C74.4656 141.97 74.6365 142.036 74.7781 142.167C74.9246 142.294 74.9979 142.495 74.9979 142.768C74.9979 143.037 74.9246 143.237 74.7781 143.369C74.6365 143.5 74.4656 143.566 74.2654 143.566C74.0555 143.566 73.8797 143.5 73.7381 143.369C73.6014 143.237 73.533 143.037 73.533 142.768C73.533 142.495 73.6014 142.294 73.7381 142.167C73.8797 142.036 74.0555 141.97 74.2654 141.97ZM81.5381 144.826C82.4902 144.826 83.2104 145.061 83.6987 145.529C84.187 145.993 84.4312 146.74 84.4312 147.771V153H83.23V147.851C83.23 147.182 83.0762 146.682 82.7686 146.35C82.4658 146.018 81.9995 145.852 81.3696 145.852C80.481 145.852 79.856 146.103 79.4946 146.606C79.1333 147.109 78.9526 147.839 78.9526 148.796V153H77.7368V144.973H78.7183L78.9014 146.13H78.9673C79.1382 145.847 79.3555 145.61 79.6191 145.419C79.8828 145.224 80.1782 145.078 80.5054 144.98C80.8325 144.877 81.1768 144.826 81.5381 144.826ZM92.4289 150.803C92.4289 151.315 92.2995 151.748 92.0407 152.099C91.7868 152.446 91.4206 152.707 90.9421 152.883C90.4685 153.059 89.9021 153.146 89.2429 153.146C88.6813 153.146 88.1955 153.103 87.7854 153.015C87.3752 152.927 87.0163 152.802 86.7087 152.641V151.521C87.0358 151.682 87.4265 151.828 87.8806 151.96C88.3347 152.092 88.7985 152.158 89.2722 152.158C89.9655 152.158 90.4685 152.045 90.781 151.821C91.0935 151.596 91.2497 151.291 91.2497 150.905C91.2497 150.686 91.1862 150.493 91.0593 150.327C90.9372 150.156 90.7297 149.992 90.4367 149.836C90.1437 149.675 89.7385 149.499 89.2209 149.309C88.7082 149.113 88.2639 148.92 87.8879 148.73C87.5168 148.535 87.2287 148.298 87.0236 148.02C86.8234 147.741 86.7233 147.38 86.7233 146.936C86.7233 146.257 86.9968 145.737 87.5437 145.375C88.0954 145.009 88.8181 144.826 89.7116 144.826C90.195 144.826 90.6467 144.875 91.0666 144.973C91.4914 145.065 91.8869 145.192 92.2531 145.354L91.843 146.328C91.5109 146.186 91.1569 146.066 90.781 145.969C90.405 145.871 90.0217 145.822 89.6311 145.822C89.0695 145.822 88.6374 145.915 88.3347 146.101C88.0368 146.286 87.8879 146.54 87.8879 146.862C87.8879 147.111 87.9562 147.316 88.093 147.478C88.2346 147.639 88.4592 147.79 88.7668 147.932C89.0744 148.073 89.4797 148.239 89.9826 148.43C90.4855 148.615 90.9201 148.808 91.2863 149.008C91.6525 149.204 91.9333 149.443 92.1286 149.726C92.3288 150.004 92.4289 150.363 92.4289 150.803Z" fill="#2E75AC"/>
<path d="M67.8823 56.9257C67.8823 56.9257 68.2131 56.7692 68.3126 56.2366C68.3126 56.2052 68.3127 56.1738 68.3127 56.1425L68.3127 56.0484C68.2798 55.5475 67.7507 54.9522 67.1557 54.3572C66.4615 53.6996 65.8664 53.3861 65.8664 53.3861C65.8664 53.3861 65.5693 52.0707 64.3131 50.2545C63.0903 48.4379 60.974 46.5277 59.8165 47.0915C58.6586 47.6553 59.6832 49.2214 59.7492 49.6914C59.8483 50.1923 60.3439 51.0068 60.1787 51.0068C59.9805 50.9754 57.4683 46.4968 51.1839 47.7506C49.5629 48.095 48.1736 48.7532 47.0487 49.5988L47.0444 60.0603C47.4415 59.6844 47.6067 59.4962 47.6067 59.4962C47.6067 59.4962 48.036 61.3756 48.8295 62.2214C49.623 63.0667 50.5819 63.568 50.8797 62.9412C51.1775 62.3461 50.2527 59.7781 50.2527 59.7781C50.2527 59.7781 51.9718 61.3438 52.4679 61.7196C52.964 62.0951 53.9229 62.5649 54.1877 61.7194C54.4194 60.8739 53.7254 59.5899 53.1634 59.3709C52.6345 59.1515 52.3034 59.1515 52.3034 59.1515C52.3034 59.1515 51.9729 58.7443 51.8074 58.6189C51.6091 58.4935 51.576 58.4939 51.576 58.4939C51.576 58.4939 51.8737 58.3371 52.8 58.3683C53.759 58.3995 54.5197 58.4308 54.5197 58.4308C54.5197 58.4308 55.3793 59.6207 55.9081 59.9965C56.4042 60.4037 57.6936 61.3745 58.1566 61.7813C58.5864 62.1885 58.8508 62.3766 59.0165 62.0316C59.1491 61.6871 58.9177 60.7789 58.3228 60.1213C57.6947 59.495 57.0335 59.1506 56.8018 58.8374C56.6037 58.4615 56.4714 58.1797 56.4714 58.1797C56.4714 58.1797 57.6949 59.025 57.9924 59.3072C58.323 59.5577 60.5054 60.8415 60.8691 61.0605C61.2329 61.3113 61.3985 61.1545 61.3985 61.1545C61.3985 61.1545 61.6629 61.3423 61.7623 61.2172C61.8617 61.0918 62.1265 60.2463 61.4322 59.7454C60.7047 59.2128 60.2748 58.9624 60.3411 58.8997C60.3742 58.8374 61.1017 59.0564 61.2007 58.8682C61.267 58.7118 61.1678 58.4614 61.0685 58.3987C61.0023 58.3042 61.2673 58.1165 61.2673 58.1165C61.2673 58.1165 61.5318 58.1164 62.6232 58.2104C63.7146 58.3043 66.4599 57.4272 67.0225 57.239C67.5847 57.0508 67.8823 56.9257 67.8823 56.9257ZM47.0402 70.396C49.323 68.9866 49.4234 65.4158 48.1671 64.7269C47.8034 64.5078 47.4396 64.3515 47.0427 64.257L47.0421 65.886C47.1414 65.9483 47.2407 66.0428 47.3064 66.1992C47.5045 66.575 47.4054 67.0446 47.4054 67.0446C47.4054 67.0446 47.3725 66.4496 47.1413 66.1365C47.1082 66.1051 47.0751 66.0738 47.042 66.0424L47.0402 70.396ZM47.0487 49.5988C46.5527 49.9438 46.1225 50.3507 45.7254 50.758L45.7212 61.125C46.0519 60.9372 46.3496 60.7491 46.6146 60.4986C46.7802 60.3422 46.9123 60.1853 47.0448 60.0603L47.0487 49.5988ZM45.7172 70.9284C46.2135 70.8347 46.6763 70.6465 47.0402 70.396L47.042 66.0424C46.8438 65.792 46.6783 65.6352 46.6783 65.6352C46.6783 65.6352 46.8439 65.6979 47.0421 65.886L47.0427 64.257C46.6127 64.1321 46.1496 64.0694 45.7199 64.1635L45.7188 66.8884C45.8182 66.8257 45.9833 66.7943 45.917 67.0138C45.8839 67.1393 45.7845 67.1389 45.7183 67.1393L45.7176 68.7365C45.7839 68.7365 45.8828 68.7365 45.949 68.7052C45.949 68.7052 45.8828 68.7679 45.7172 68.8302L45.7172 70.9284ZM45.7254 50.758C43.4091 53.0759 42.3827 55.8637 42.1511 56.4901C41.7869 57.461 39.4374 60.969 39.2379 63.0362C39.0715 65.1348 39.0367 70.2401 44.0636 70.9286C44.6588 71.0226 45.2213 71.0221 45.7172 70.928L45.718 68.8298C45.2548 68.9549 44.2295 69.0805 43.0724 67.8279C41.5184 66.1368 42.2803 63.3804 43.5046 62.4403C44.2987 61.8139 45.0596 61.4692 45.7212 61.1246L45.7254 50.758ZM45.7199 64.1631L45.7188 66.888C45.6195 66.9508 45.5532 66.9508 45.4875 66.8567C45.4212 67.0449 45.5536 67.1385 45.7187 67.1385L45.7181 68.7358C44.6597 68.8296 43.2048 67.9529 43.5691 66.5747C43.9998 65.0092 44.794 64.32 45.7199 64.1631Z" fill="#2E75A3"/>
<path d="M52.1653 33.0771L54.2676 33.0021C55.396 32.9618 56.945 33.7122 56.8557 35.0816L56.3001 43.5975C56.2306 44.6653 55.7444 45.2304 54.8513 45.2308L52.08 45.2314C50.9508 45.2315 50.4762 44.5543 50.3968 43.4872L49.7715 35.0833C49.6925 34.016 50.5638 33.1343 52.1653 33.0771Z" fill="#EDDF0E"/>
<path d="M35.4596 38.9972L37.1036 37.6226C37.986 36.8849 39.7664 36.5288 40.6617 37.7007L46.2282 44.9889C46.9261 45.9028 46.9328 46.6669 46.212 47.225L43.9753 48.957C43.0638 49.6625 42.2023 49.407 41.3847 48.5867L34.9442 42.1275C34.1263 41.3074 34.207 40.0441 35.4596 38.9972Z" fill="#FD6600"/>
<path d="M27.5984 54.2139L27.976 52.237C28.1786 51.176 29.277 49.8769 30.6524 50.2284L39.2042 52.4136C40.2763 52.6875 40.7467 53.2518 40.5543 54.0854L39.9564 56.6723C39.7129 57.7263 38.9207 58.0364 37.817 57.9018L29.1244 56.8404C28.0208 56.7056 27.3109 55.7196 27.5984 54.2139Z" fill="#A4DC2D"/>
<path d="M28.9363 68.2563L28.0971 66.8786C27.6467 66.1389 27.6135 64.836 28.6416 64.4067L35.0349 61.7356C35.8365 61.4009 36.4283 61.5235 36.7619 62.1202L37.7969 63.9715C38.2185 64.7257 37.9037 65.2847 37.1582 65.7188L31.2871 69.1386C30.5415 69.5727 29.5757 69.3056 28.9363 68.2563Z" fill="#EF3E3E"/>
<rect x="27.5" y="95.5" width="126" height="26" rx="1.5" stroke="#CCCCCC"/>
<rect x="153.5" y="95.5" width="77" height="26" rx="1.5" stroke="#CCCCCC"/>
<path fill-rule="evenodd" clip-rule="evenodd" d="M163.736 109.651C163.333 109.89 162.863 110.027 162.36 110.027C160.867 110.027 159.657 108.817 159.657 107.324C159.657 105.831 160.867 104.621 162.36 104.621C163.853 104.621 165.064 105.831 165.064 107.324C165.064 107.982 164.828 108.586 164.437 109.055L164.385 109.003L163.736 109.651ZM164.39 110.422C163.807 110.804 163.11 111.027 162.36 111.027C160.315 111.027 158.657 109.369 158.657 107.324C158.657 105.278 160.315 103.621 162.36 103.621C164.406 103.621 166.064 105.278 166.064 107.324C166.064 108.258 165.717 109.112 165.146 109.764L166.854 111.471C167.049 111.667 167.049 111.983 166.854 112.178C166.658 112.374 166.342 112.374 166.146 112.178L164.39 110.422Z" fill="#333333"/>
<path d="M173.905 104.686C174.491 104.686 174.975 104.759 175.355 104.906C175.74 105.049 176.026 105.269 176.215 105.565C176.404 105.861 176.498 106.239 176.498 106.698C176.498 107.076 176.43 107.391 176.293 107.645C176.156 107.896 175.977 108.099 175.756 108.256C175.535 108.412 175.299 108.532 175.048 108.617L177.006 111.825H176.039L174.291 108.846H172.807V111.825H171.977V104.686H173.905ZM173.856 105.404H172.807V108.143H173.939C174.522 108.143 174.95 108.024 175.224 107.787C175.5 107.549 175.639 107.199 175.639 106.737C175.639 106.252 175.492 105.909 175.199 105.707C174.91 105.505 174.462 105.404 173.856 105.404ZM180.287 106.376C180.743 106.376 181.133 106.477 181.459 106.678C181.784 106.88 182.033 107.163 182.206 107.528C182.378 107.889 182.465 108.313 182.465 108.798V109.3H178.768C178.778 109.929 178.934 110.407 179.237 110.736C179.54 111.065 179.966 111.229 180.516 111.229C180.855 111.229 181.154 111.198 181.415 111.136C181.675 111.075 181.945 110.983 182.225 110.863V111.576C181.955 111.696 181.687 111.784 181.42 111.84C181.156 111.895 180.844 111.923 180.482 111.923C179.968 111.923 179.519 111.818 179.135 111.61C178.754 111.398 178.457 111.089 178.246 110.682C178.034 110.275 177.929 109.777 177.929 109.188C177.929 108.612 178.025 108.114 178.217 107.694C178.412 107.271 178.685 106.945 179.037 106.717C179.392 106.49 179.808 106.376 180.287 106.376ZM180.277 107.04C179.844 107.04 179.499 107.181 179.242 107.465C178.985 107.748 178.832 108.143 178.783 108.651H181.615C181.612 108.332 181.561 108.052 181.464 107.811C181.369 107.567 181.224 107.378 181.029 107.245C180.834 107.108 180.583 107.04 180.277 107.04ZM186.185 111.923C185.703 111.923 185.279 111.823 184.911 111.625C184.543 111.426 184.256 111.123 184.051 110.716C183.846 110.31 183.744 109.797 183.744 109.178C183.744 108.531 183.851 108.002 184.066 107.591C184.284 107.178 184.584 106.872 184.964 106.674C185.345 106.475 185.778 106.376 186.263 106.376C186.53 106.376 186.787 106.403 187.035 106.459C187.285 106.511 187.49 106.577 187.65 106.659L187.406 107.338C187.243 107.272 187.054 107.214 186.839 107.162C186.628 107.11 186.429 107.084 186.244 107.084C185.873 107.084 185.563 107.163 185.316 107.323C185.072 107.482 184.888 107.717 184.764 108.026C184.644 108.335 184.584 108.716 184.584 109.169C184.584 109.602 184.642 109.971 184.759 110.277C184.88 110.583 185.057 110.817 185.292 110.98C185.529 111.14 185.825 111.219 186.18 111.219C186.463 111.219 186.719 111.19 186.947 111.132C187.175 111.07 187.381 110.998 187.567 110.917V111.639C187.388 111.73 187.188 111.8 186.966 111.849C186.748 111.898 186.488 111.923 186.185 111.923ZM189.847 104.227V106.498C189.847 106.628 189.844 106.76 189.837 106.893C189.831 107.023 189.819 107.144 189.803 107.255H189.857C189.968 107.066 190.107 106.908 190.277 106.781C190.449 106.651 190.645 106.553 190.863 106.488C191.081 106.42 191.312 106.385 191.556 106.385C191.986 106.385 192.344 106.454 192.63 106.591C192.92 106.727 193.136 106.939 193.28 107.225C193.426 107.512 193.499 107.883 193.499 108.339V111.825H192.699V108.392C192.699 107.946 192.596 107.613 192.391 107.391C192.189 107.17 191.878 107.059 191.458 107.059C191.061 107.059 190.744 107.136 190.506 107.289C190.272 107.438 190.103 107.66 189.998 107.953C189.898 108.246 189.847 108.604 189.847 109.027V111.825H189.037V104.227H189.847ZM197.43 106.376C197.886 106.376 198.276 106.477 198.602 106.678C198.927 106.88 199.176 107.163 199.349 107.528C199.521 107.889 199.608 108.313 199.608 108.798V109.3H195.911C195.921 109.929 196.077 110.407 196.38 110.736C196.683 111.065 197.109 111.229 197.659 111.229C197.998 111.229 198.297 111.198 198.558 111.136C198.818 111.075 199.088 110.983 199.368 110.863V111.576C199.098 111.696 198.83 111.784 198.563 111.84C198.299 111.895 197.987 111.923 197.625 111.923C197.111 111.923 196.662 111.818 196.278 111.61C195.897 111.398 195.6 111.089 195.389 110.682C195.177 110.275 195.071 109.777 195.071 109.188C195.071 108.612 195.168 108.114 195.36 107.694C195.555 107.271 195.828 106.945 196.18 106.717C196.535 106.49 196.951 106.376 197.43 106.376ZM197.42 107.04C196.987 107.04 196.642 107.181 196.385 107.465C196.128 107.748 195.975 108.143 195.926 108.651H198.758C198.755 108.332 198.704 108.052 198.607 107.811C198.512 107.567 198.367 107.378 198.172 107.245C197.977 107.108 197.726 107.04 197.42 107.04ZM203.616 106.376C203.724 106.376 203.836 106.382 203.953 106.395C204.07 106.405 204.174 106.42 204.266 106.439L204.163 107.191C204.075 107.168 203.978 107.15 203.87 107.137C203.763 107.124 203.662 107.118 203.567 107.118C203.353 107.118 203.149 107.162 202.957 107.25C202.768 107.334 202.602 107.458 202.459 107.621C202.316 107.78 202.203 107.974 202.122 108.202C202.041 108.426 202 108.677 202 108.954V111.825H201.185V106.473H201.858L201.946 107.46H201.98C202.091 107.261 202.225 107.08 202.381 106.918C202.537 106.752 202.718 106.62 202.923 106.522C203.131 106.424 203.362 106.376 203.616 106.376ZM207.62 111.923C207.138 111.923 206.713 111.823 206.346 111.625C205.978 111.426 205.691 111.123 205.486 110.716C205.281 110.31 205.179 109.797 205.179 109.178C205.179 108.531 205.286 108.002 205.501 107.591C205.719 107.178 206.018 106.872 206.399 106.674C206.78 106.475 207.213 106.376 207.698 106.376C207.965 106.376 208.222 106.403 208.47 106.459C208.72 106.511 208.925 106.577 209.085 106.659L208.841 107.338C208.678 107.272 208.489 107.214 208.274 107.162C208.063 107.11 207.864 107.084 207.679 107.084C207.307 107.084 206.998 107.163 206.751 107.323C206.507 107.482 206.323 107.717 206.199 108.026C206.079 108.335 206.018 108.716 206.018 109.169C206.018 109.602 206.077 109.971 206.194 110.277C206.315 110.583 206.492 110.817 206.726 110.98C206.964 111.14 207.26 111.219 207.615 111.219C207.898 111.219 208.154 111.19 208.382 111.132C208.61 111.07 208.816 110.998 209.002 110.917V111.639C208.823 111.73 208.623 111.8 208.401 111.849C208.183 111.898 207.923 111.923 207.62 111.923ZM211.282 104.227V106.498C211.282 106.628 211.279 106.76 211.272 106.893C211.266 107.023 211.254 107.144 211.238 107.255H211.292C211.402 107.066 211.542 106.908 211.712 106.781C211.884 106.651 212.079 106.553 212.297 106.488C212.516 106.42 212.747 106.385 212.991 106.385C213.421 106.385 213.779 106.454 214.065 106.591C214.355 106.727 214.571 106.939 214.714 107.225C214.861 107.512 214.934 107.883 214.934 108.339V111.825H214.133V108.392C214.133 107.946 214.031 107.613 213.826 107.391C213.624 107.17 213.313 107.059 212.893 107.059C212.496 107.059 212.179 107.136 211.941 107.289C211.707 107.438 211.537 107.66 211.433 107.953C211.332 108.246 211.282 108.604 211.282 109.027V111.825H210.471V104.227H211.282ZM218.865 106.376C219.32 106.376 219.711 106.477 220.037 106.678C220.362 106.88 220.611 107.163 220.784 107.528C220.956 107.889 221.042 108.313 221.042 108.798V109.3H217.346C217.356 109.929 217.512 110.407 217.815 110.736C218.118 111.065 218.544 111.229 219.094 111.229C219.433 111.229 219.732 111.198 219.993 111.136C220.253 111.075 220.523 110.983 220.803 110.863V111.576C220.533 111.696 220.264 111.784 219.997 111.84C219.734 111.895 219.421 111.923 219.06 111.923C218.546 111.923 218.096 111.818 217.712 111.61C217.331 111.398 217.035 111.089 216.824 110.682C216.612 110.275 216.506 109.777 216.506 109.188C216.506 108.612 216.602 108.114 216.794 107.694C216.99 107.271 217.263 106.945 217.615 106.717C217.969 106.49 218.386 106.376 218.865 106.376ZM218.855 107.04C218.422 107.04 218.077 107.181 217.82 107.465C217.563 107.748 217.41 108.143 217.361 108.651H220.193C220.19 108.332 220.139 108.052 220.041 107.811C219.947 107.567 219.802 107.378 219.607 107.245C219.412 107.108 219.161 107.04 218.855 107.04ZM225.051 106.376C225.158 106.376 225.271 106.382 225.388 106.395C225.505 106.405 225.609 106.42 225.7 106.439L225.598 107.191C225.51 107.168 225.412 107.15 225.305 107.137C225.197 107.124 225.097 107.118 225.002 107.118C224.787 107.118 224.584 107.162 224.392 107.25C224.203 107.334 224.037 107.458 223.894 107.621C223.751 107.78 223.638 107.974 223.557 108.202C223.475 108.426 223.435 108.677 223.435 108.954V111.825H222.619V106.473H223.293L223.381 107.46H223.415C223.526 107.261 223.659 107.08 223.816 106.918C223.972 106.752 224.153 106.62 224.358 106.522C224.566 106.424 224.797 106.376 225.051 106.376Z" fill="#403333"/>
<path d="M194 248.5H194.561L194.497 247.943L190.831 215.943L190.78 215.5H190.334H122.4H121.964L121.905 215.932L117.505 247.932L117.427 248.5H118H194Z" fill="#CCCCCC" stroke="#333333"/>
<path d="M6.5 208.442V188.5H307.5V208.442C307.5 212.382 304.396 215.5 300.495 215.5H13.5054C9.59909 215.5 6.5 212.383 6.5 208.442Z" fill="#E2E2E2" stroke="#333333"/>
<path d="M107.333 251.5L117.106 248.5H194.894L204.667 251.5H107.333Z" fill="#E2E2E2" stroke="#333333"/>
<path d="M207.281 252.5L206.909 253.5H104.986L104.677 252.5H207.281Z" fill="#AAAAAA" stroke="#333333"/>
<path d="M162.5 201.497C162.5 204.26 160.259 206.5 157.5 206.5C154.741 206.5 152.5 204.26 152.5 201.497C152.5 198.74 154.74 196.5 157.5 196.5C160.26 196.5 162.5 198.735 162.5 201.497Z" fill="#AAAAAA" stroke="#333333"/>
<path d="M372.5 253C414.197 253 448 250.761 448 248C448 245.239 414.197 243 372.5 243C330.803 243 297 245.239 297 248C297 250.761 330.803 253 372.5 253Z" fill="#EFEFEF"/>
<path fill-rule="evenodd" clip-rule="evenodd" d="M358.579 47.113C358.238 48.9467 357.59 51.5149 356.442 52.1438C355.664 52.5758 354.472 51.8894 352.652 48.8747C354.477 48.7835 356.427 48.2459 358.161 47.3386C358.301 47.2666 358.44 47.1898 358.579 47.113ZM350.034 48.6683C349.16 49.7148 348.377 50.4252 347.695 50.8909C346.681 51.5773 345.985 51.6829 345.595 51.5485C345.264 51.4285 345.096 50.8669 345.033 50.1612C344.918 48.9179 345.154 47.3674 345.341 46.5033C345.701 46.4553 346.076 46.4073 346.455 46.3689L346.647 46.6377C347.454 47.689 348.646 48.3515 350.034 48.6683Z" fill="#CCCCCC"/>
<path fill-rule="evenodd" clip-rule="evenodd" d="M346.506 46.2551L346.734 46.5734C347.522 47.5995 348.688 48.2505 350.057 48.563L350.229 48.6022L350.116 48.7375C349.237 49.7896 348.447 50.5075 347.755 50.9801C346.734 51.6718 345.999 51.8022 345.56 51.6506L345.558 51.6501C345.347 51.5735 345.207 51.3647 345.112 51.1124C345.016 50.8558 344.957 50.5281 344.925 50.1709C344.809 48.9113 345.047 47.3482 345.235 46.4804L345.251 46.4063L345.326 46.3962C345.687 46.3482 346.063 46.3 346.444 46.2614L346.506 46.2551ZM345.43 46.6003C345.247 47.4727 345.03 48.9588 345.141 50.1512C345.171 50.4996 345.228 50.806 345.314 51.0366C345.402 51.2711 345.511 51.403 345.631 51.4467C345.97 51.5635 346.628 51.4821 347.633 50.8016C348.276 50.3628 349.014 49.7004 349.838 48.7325C348.504 48.3968 347.353 47.7352 346.561 46.7035L346.559 46.7005L346.403 46.4827C346.073 46.5171 345.747 46.5584 345.43 46.6003ZM358.727 46.908L358.685 47.1327C358.514 48.0517 358.265 49.1591 357.914 50.1174C357.738 50.5965 357.536 51.0416 357.303 51.4082C357.07 51.7739 356.803 52.069 356.493 52.2385C356.05 52.4844 355.509 52.3939 354.87 51.8863C354.232 51.3797 353.471 50.4412 352.559 48.9305L352.465 48.7758L352.646 48.7668C354.455 48.6764 356.39 48.1433 358.111 47.2429C358.249 47.1716 358.387 47.0953 358.527 47.0184L358.727 46.908ZM358.43 47.3178C358.357 47.3574 358.284 47.3965 358.211 47.4344C356.52 48.3187 354.626 48.8548 352.837 48.9721C353.703 50.3852 354.418 51.2515 355.004 51.7172C355.61 52.1983 356.054 52.2351 356.389 52.0493C356.654 51.9044 356.898 51.6424 357.121 51.2923C357.342 50.9433 357.539 50.5137 357.711 50.043C358.029 49.1775 358.262 48.1833 358.43 47.3178Z" fill="#CCCCCC"/>
<path fill-rule="evenodd" clip-rule="evenodd" d="M358.646 23.6391C358.685 21.8245 358.617 20.3076 358.469 19.0451C358.281 17.5042 357.959 16.3185 357.537 15.4208C357.224 14.7584 356.754 14.1199 356.182 13.6063C355.639 13.1118 354.996 12.7182 354.304 12.507C353.439 12.2429 352.599 12.2958 351.782 12.5454C351.018 12.7758 350.288 13.179 349.573 13.6495C349.217 13.8799 348.91 14.1007 348.617 14.3119C347.401 15.1808 346.431 15.8768 344.687 15.4064C344.567 15.3728 344.452 15.3152 344.356 15.2336C344.217 15.1136 344.106 14.9504 344.049 14.7584C343.986 14.5519 343.981 14.3119 344.053 14.0431C344.125 13.7647 344.289 13.4622 344.553 13.1502L344.587 13.1022C344.683 12.9678 344.803 12.8334 344.942 12.699C346.114 11.5565 348.453 10.6732 351.114 10.4908C353.795 10.3084 356.773 10.8604 359.175 12.5982C359.636 12.9294 360.073 13.3038 360.486 13.7311C361.461 14.7344 362.21 16.1313 362.6 18.0322C362.936 19.6788 363.003 21.6997 362.715 24.1671C362.58 23.9223 362.417 23.7063 362.225 23.5239C361.855 23.1782 361.384 22.967 360.827 22.9382C360.207 22.9046 359.472 23.111 358.646 23.6391Z" fill="#666666"/>
<path fill-rule="evenodd" clip-rule="evenodd" d="M359.111 12.6857C356.735 10.9663 353.784 10.4174 351.122 10.5985C348.474 10.78 346.164 11.6587 345.017 12.7763C344.882 12.9073 344.766 13.037 344.675 13.1646L344.636 13.2203C344.379 13.5233 344.225 13.8113 344.158 14.0701C344.09 14.3219 344.096 14.5421 344.152 14.7271C344.204 14.8987 344.302 15.0446 344.426 15.1515C344.509 15.2217 344.61 15.2724 344.716 15.3023C345.567 15.5318 346.223 15.4757 346.813 15.26C347.409 15.0421 347.943 14.6605 348.554 14.2241C348.847 14.013 349.156 13.7909 349.514 13.559C350.233 13.0863 350.973 12.6768 351.751 12.442C352.584 12.1874 353.447 12.1323 354.336 12.4037C355.045 12.6202 355.702 13.0228 356.255 13.5262C356.837 14.0494 357.316 14.6994 357.634 15.3748C358.064 16.2859 358.388 17.4837 358.576 19.0321C358.72 20.2542 358.788 21.7121 358.758 23.4431C359.53 22.9835 360.229 22.7976 360.833 22.8304C361.416 22.8606 361.91 23.0822 362.299 23.445C362.425 23.5651 362.54 23.6994 362.642 23.8454C362.889 21.5264 362.813 19.6175 362.494 18.0539C362.108 16.1699 361.367 14.7926 360.409 13.8063C360 13.3839 359.567 13.0132 359.111 12.6857ZM359.238 12.5105C356.811 10.7545 353.806 10.1994 351.107 10.383C348.433 10.5664 346.064 11.4542 344.867 12.6214C344.724 12.7591 344.6 12.8984 344.499 13.0394L344.467 13.0842C344.198 13.4038 344.026 13.7189 343.949 14.0156C343.872 14.3013 343.876 14.5618 343.945 14.7895C344.009 15.0017 344.131 15.1824 344.286 15.3154C344.395 15.4082 344.525 15.4731 344.658 15.5104L344.659 15.5107C345.552 15.7514 346.253 15.6947 346.887 15.4628C347.512 15.2346 348.067 14.8375 348.667 14.4084L348.68 14.3998C348.973 14.1885 349.278 13.9689 349.631 13.7401C350.343 13.2721 351.064 12.8748 351.813 12.6488C352.613 12.4042 353.432 12.3536 354.272 12.6103C354.947 12.8161 355.577 13.2007 356.109 13.6861C356.67 14.1901 357.133 14.8174 357.439 15.4668C357.855 16.3509 358.175 17.5246 358.361 19.058C358.51 20.3144 358.577 21.8261 358.538 23.6368L358.534 23.839L358.705 23.7301C359.518 23.2103 360.23 23.014 360.821 23.0461C361.353 23.0735 361.8 23.2742 362.151 23.6025C362.334 23.7765 362.491 23.9833 362.62 24.2191L362.783 24.5153L362.822 24.1796C363.111 21.704 363.045 19.6711 362.705 18.0106C362.313 16.0927 361.555 14.6762 360.564 13.656C360.146 13.224 359.704 12.8454 359.238 12.5105Z" fill="#666666"/>
<path fill-rule="evenodd" clip-rule="evenodd" d="M342.944 14.3839C342.079 15.3536 341.373 16.5969 340.84 18.0226C339.682 21.1333 339.341 25.1368 339.975 28.9627C340.614 32.8222 342.247 36.5281 345.019 39.0051C346.095 39.9652 347.344 40.7429 348.77 41.2757C348.982 41.3573 352.128 42.2406 355.865 39.0291C357.709 37.4402 359.741 34.8336 361.677 30.5949L360.351 29.99C358.516 34.0127 356.624 36.4561 354.919 37.9203C351.792 40.6085 349.433 39.9652 349.279 39.9076C348.03 39.4468 346.94 38.7651 345.999 37.9203C343.491 35.6785 342.012 32.2846 341.421 28.7275C340.825 25.1416 341.138 21.4069 342.209 18.5315C342.679 17.2737 343.289 16.1841 344.034 15.3536L342.944 14.3839Z" fill="#333333"/>
<path fill-rule="evenodd" clip-rule="evenodd" d="M358.613 24.6759C358.704 22.3909 358.646 20.538 358.464 19.045C358.276 17.5041 357.955 16.3184 357.532 15.4207C357.22 14.7583 356.749 14.1198 356.177 13.6062C355.635 13.1118 354.991 12.7181 354.299 12.5069C353.435 12.2429 352.594 12.2957 351.777 12.5453C351.014 12.7757 350.283 13.179 349.568 13.6494C349.212 13.8798 348.905 14.1006 348.612 14.3119C347.397 15.1807 346.426 15.8768 344.683 15.4063C344.562 15.3727 344.447 15.3151 344.351 15.2335C344.212 15.1135 344.101 14.9503 344.044 14.7583C343.981 14.5519 343.976 14.3119 344.049 14.043C344.121 13.7646 344.284 13.4622 344.548 13.1502L344.582 13.1022C344.678 12.9677 344.798 12.8333 344.937 12.6989C346.109 11.5564 348.449 10.6732 351.11 10.4907C353.79 10.3083 356.768 10.8604 359.17 12.5981C359.631 12.9293 360.068 13.3038 360.481 13.731C361.456 14.7343 362.206 16.1312 362.595 18.0322C362.955 19.8035 363.003 22.0021 362.643 24.7239L362.59 25.1367C362.407 26.5625 362.292 27.4505 361.413 28.6698C361.288 28.8427 361.144 29.0299 360.976 29.2315C360.832 29.4091 360.664 29.6011 360.472 29.8027L360.64 30.4076L361.538 30.7964C361.725 30.5948 361.913 30.3836 362.095 30.158C362.263 29.9563 362.427 29.7451 362.59 29.5195C363.68 28.0026 363.815 26.9753 364.031 25.324L364.084 24.9111C364.468 22.0213 364.41 19.6595 364.017 17.7393C363.57 15.5408 362.681 13.9038 361.519 12.7133C361.048 12.2285 360.544 11.8013 360.015 11.4172C357.306 9.45386 353.982 8.83461 350.999 9.03622C347.997 9.23784 345.307 10.2891 343.904 11.6524C343.722 11.8301 343.559 12.0173 343.414 12.2093C343.001 12.6941 342.747 13.1886 342.622 13.6638C342.478 14.2062 342.497 14.7247 342.636 15.1807C342.78 15.6512 343.049 16.0496 343.395 16.3424C343.659 16.5632 343.967 16.7265 344.293 16.8177C346.705 17.4657 347.92 16.592 349.452 15.4976C349.745 15.2911 350.048 15.0703 350.355 14.8687C350.966 14.4655 351.58 14.1246 352.19 13.9374C352.748 13.7694 353.305 13.731 353.862 13.899C354.333 14.043 354.784 14.3215 355.178 14.6815C355.606 15.0703 355.961 15.5504 356.197 16.04C356.557 16.7985 356.831 17.8353 356.999 19.2131C357.157 20.5332 357.22 22.1461 357.157 24.1095L357.527 24.6279L358.613 24.6759Z" fill="#333333"/>
<path fill-rule="evenodd" clip-rule="evenodd" d="M358.29 25.1272C359.314 24.2247 360.149 23.8743 360.783 23.9031C361.101 23.9175 361.36 24.0375 361.566 24.2247C361.787 24.4311 361.946 24.724 362.042 25.0744C362.297 25.9865 362.104 27.2394 361.384 28.3675C361.201 28.6555 360.894 28.9771 360.519 29.2363C360.337 29.3611 360.14 29.4667 359.938 29.5436C359.174 29.8268 359.554 30.6668 360.015 30.542C360.394 30.4364 360.755 30.2588 361.072 30.0428C361.557 29.7116 361.96 29.2795 362.205 28.8955C363.08 27.5274 363.301 25.9769 362.983 24.82C362.839 24.2967 362.585 23.8455 362.229 23.5191C361.859 23.1734 361.389 22.9622 360.832 22.9334C359.952 22.8902 358.848 23.3222 357.58 24.4551C357.128 24.8632 357.676 25.6696 358.29 25.1272Z" fill="#333333"/>
<path fill-rule="evenodd" clip-rule="evenodd" d="M360.044 25.6072C360.188 25.5784 360.313 25.5784 360.418 25.6024C360.539 25.6312 360.635 25.6984 360.692 25.7896C360.759 25.9 360.798 26.0488 360.798 26.2216C360.798 26.5817 360.649 27.0425 360.342 27.5177C360.236 27.681 360.063 27.8682 359.847 28.0122C359.765 28.0698 359.674 28.1226 359.578 28.161C359.064 28.3818 359.232 28.7994 359.645 28.6554C359.813 28.5978 359.977 28.5114 360.121 28.4154C360.39 28.233 360.615 27.993 360.75 27.7818C361.105 27.2249 361.283 26.6729 361.283 26.2216C361.283 25.9528 361.221 25.7128 361.101 25.5256C360.971 25.324 360.779 25.1848 360.524 25.1271C360.375 25.0935 360.202 25.0887 360.005 25.1175C359.366 25.2232 359.439 25.7272 360.044 25.6072Z" fill="#333333"/>
<path fill-rule="evenodd" clip-rule="evenodd" d="M359.545 46.0809L359.007 35.1696L357.546 35.2368L358.089 46.1481L359.545 46.0809Z" fill="#333333"/>
<path fill-rule="evenodd" clip-rule="evenodd" d="M347.766 46.0233L348.563 40.1716L347.118 39.9748L346.315 45.8265L347.766 46.0233Z" fill="#333333"/>
<path fill-rule="evenodd" clip-rule="evenodd" d="M358.843 45.4857L358.829 45.5673C358.632 46.9018 357.988 51.2941 356.441 52.1438C355.577 52.6238 354.203 51.7262 352.022 47.7802L350.74 48.4811C353.454 53.3967 355.558 54.2992 357.143 53.4207C359.328 52.2158 360.054 47.2714 360.275 45.7737L360.289 45.6921L358.843 45.4857Z" fill="#333333"/>
<path fill-rule="evenodd" clip-rule="evenodd" d="M344.044 45.6537C343.847 46.3641 343.415 48.5723 343.578 50.2957C343.693 51.5294 344.121 52.571 345.11 52.9215C345.86 53.1855 347.046 53.0943 348.516 52.0958C349.506 51.419 350.673 50.3101 351.965 48.5675L350.793 47.6987C349.606 49.2924 348.564 50.2957 347.69 50.8909C346.676 51.5774 345.98 51.683 345.591 51.5486C345.259 51.4286 345.091 50.8669 345.029 50.1613C344.885 48.6443 345.274 46.681 345.447 46.0473L344.044 45.6537Z" fill="#333333"/>
<path fill-rule="evenodd" clip-rule="evenodd" d="M349.274 28.9867C346.887 29.9324 346.046 28.8235 346.08 27.7914C346.118 26.3993 347.425 26.6777 347.161 24.4215C348.294 26.0104 345.739 27.7722 347.266 28.6026C347.593 28.7803 348.112 28.9627 349.274 28.9867Z" fill="#333333"/>
<path fill-rule="evenodd" clip-rule="evenodd" d="M347.997 32.3422C350.788 34.5936 351.801 30.5996 352.291 29.9852C352.152 34.944 348.348 34.5984 347.997 32.3422Z" fill="#333333"/>
<path fill-rule="evenodd" clip-rule="evenodd" d="M350.178 23.6006C351.662 20.0915 355.601 22.0933 355.615 23.9703C355.428 23.7639 354.602 23.2694 354.131 23.2118C353.968 25.3 351.47 25.7368 350.797 23.5094C350.533 23.495 350.375 23.4806 350.178 23.6006Z" fill="#333333"/>
<path fill-rule="evenodd" clip-rule="evenodd" d="M341.685 23.4518C343.035 19.8899 347.051 21.7429 347.137 23.6198C346.94 23.423 346.099 22.9574 345.624 22.919C345.542 25.012 343.059 25.54 342.305 23.3414C342.036 23.3318 341.877 23.327 341.685 23.4518Z" fill="#333333"/>
<path fill-rule="evenodd" clip-rule="evenodd" d="M308.555 46.4502C307.767 42.9508 307.969 40.9379 308.267 39.4594L308.31 39.2529C308.401 38.7921 308.541 38.2785 308.67 37.7888C308.935 36.7903 309.175 35.8879 309.06 35.2302C308.915 34.3997 308.435 33.9725 307.383 34.1549C305.678 34.4477 304.861 36.0271 304.174 37.3472C303.809 38.0528 303.502 38.6433 303.411 38.6289C303.315 38.5953 303.219 38.5521 303.122 38.4993C303.017 38.4417 302.911 38.3649 302.796 38.2833C302.594 38.1344 302.263 37.8416 301.854 37.4864C299.544 35.451 295.005 31.4523 291.849 34.1213C290.974 34.8606 290.513 36.3007 290.998 38.2929C291.354 39.7426 292.219 41.5331 293.818 43.5925C293.881 43.6693 294.15 43.9669 294.721 44.3942C295.029 44.6198 295.437 44.8982 295.98 45.2198C296.537 45.5511 297.2 45.7959 297.997 46.0935C299.193 46.5399 300.721 47.1064 302.508 48.2009L303.719 47.0936C301.807 45.9223 299.765 45.191 298.506 44.7254C297.767 44.4518 297.157 44.2213 296.724 43.9669C296.239 43.6789 295.869 43.4293 295.591 43.2229C295.168 42.9108 295.009 42.7476 294.976 42.7044C293.511 40.8131 292.728 39.2193 292.415 37.9568C292.074 36.5695 292.305 35.6526 292.79 35.2398C294.981 33.3869 298.895 36.8335 300.884 38.5857C301.312 38.9601 301.657 39.2673 301.922 39.4642C302.075 39.5746 302.234 39.6802 302.397 39.7762C302.575 39.877 302.757 39.9586 302.945 40.021C304.213 40.4338 304.78 39.3393 305.462 38.024C305.995 36.9968 306.634 35.7726 307.619 35.5998C307.628 35.5998 307.604 35.4126 307.614 35.4846C307.671 35.8303 307.47 36.5887 307.249 37.4288C307.119 37.9184 306.984 38.4321 306.874 38.9841L306.831 39.1905C306.494 40.8563 306.269 42.994 307.119 46.7815L308.555 46.4502Z" fill="#333333"/>
<path fill-rule="evenodd" clip-rule="evenodd" d="M305.125 47.3436C304.433 47.6173 304.43 47.0172 303.906 47.3436C302.177 46.3307 299.668 45.1429 298.506 44.7109C297.766 44.4372 297.156 44.2068 296.724 43.9524C296.239 43.6644 295.869 43.4148 295.59 43.2083C295.168 42.8963 295.009 42.7331 294.975 42.6899C294.841 42.5171 294.716 42.3491 294.591 42.1811C293.371 40.5105 292.694 39.0896 292.415 37.9375C292.074 36.5502 292.305 35.6333 292.79 35.2205C293.011 35.0333 293.251 34.8989 293.501 34.8124C295.749 34.0444 299.092 36.987 300.884 38.5664C301.311 38.9408 301.657 39.248 301.921 39.4448C302.075 39.5552 302.234 39.6608 302.397 39.7569C302.575 39.8577 302.757 39.9393 302.944 40.0017C304.213 40.4145 304.779 39.32 305.461 38.0047C305.995 36.9774 306.634 35.7533 307.623 35.5805C307.628 35.9597 307.45 36.651 307.248 37.4095C307.119 37.8991 306.984 38.4127 306.874 38.9648L306.83 39.1712C306.518 40.7313 306.363 43.4628 307.031 46.6982C306.349 46.8806 305.874 47.0508 305.125 47.3436Z" fill="#FEFEFE"/>
<path fill-rule="evenodd" clip-rule="evenodd" d="M351.196 88.2955C350.034 88.0843 348.914 87.6715 347.387 86.9082C346.316 86.3706 345.446 85.8089 344.75 85.2425C344.154 84.7577 343.684 84.268 343.323 83.7832C343.487 85.3433 343.919 87.0618 344.495 88.7852C345.321 91.2526 346.436 93.7296 347.483 95.8034C347.987 94.4209 348.66 92.9567 349.414 91.4974C349.976 90.4125 350.581 89.3324 351.196 88.2955Z" fill="#FF6F3D"/>
<path fill-rule="evenodd" clip-rule="evenodd" d="M342.934 82.7835L343.551 83.6141C343.895 84.0775 344.349 84.5505 344.929 85.0226M342.934 82.7835L343.041 83.8127L342.934 82.7835ZM344.764 88.6952C344.307 87.3281 343.943 85.9704 343.733 84.6985L344.764 88.6952ZM343.733 84.6985C343.982 84.9546 344.26 85.2096 344.571 85.4623L344.571 85.4624C345.286 86.0437 346.173 86.6161 347.26 87.1616L347.26 87.1618C348.631 87.8467 349.689 88.2586 350.75 88.4946C350.202 89.4296 349.665 90.3961 349.162 91.367L349.162 91.3673C348.514 92.622 347.924 93.8836 347.447 95.0971C346.492 93.1574 345.509 90.9208 344.764 88.6953M343.041 83.8127C343.208 85.4005 343.646 87.1404 344.226 88.8751L343.041 83.8127ZM344.929 85.0227C345.607 85.5742 346.458 86.125 347.514 86.6548C349.028 87.4113 350.12 87.812 351.247 88.0167L351.648 88.0895L351.44 88.4401C350.827 89.473 350.225 90.5483 349.666 91.6277C348.915 93.0801 348.248 94.5328 347.749 95.9005L347.525 96.5154L347.23 95.9311C346.179 93.8497 345.058 91.3596 344.226 88.8752L344.226 88.8751" fill="#FF6F3D"/>
<path fill-rule="evenodd" clip-rule="evenodd" d="M343.251 82.4102C343.237 84.2968 343.746 86.5338 344.495 88.7852C345.321 91.2526 346.436 93.7296 347.483 95.8033C347.987 94.4208 348.66 92.9567 349.414 91.4974C350.74 88.9388 352.315 86.3946 353.694 84.3592L354.823 85.1177C353.463 87.1242 351.912 89.6252 350.62 92.1214C349.611 94.0752 348.756 96.029 348.28 97.7379L347.829 99.3652L347.027 97.8771C345.768 95.5345 344.255 92.3759 343.203 89.222C342.411 86.8458 341.873 84.4648 341.887 82.415L343.251 82.4102Z" fill="#333333"/>
<path fill-rule="evenodd" clip-rule="evenodd" d="M336.44 63.1799C334.149 66.3721 330.267 70.0156 326.136 72.5502C322.543 74.7536 318.787 76.1025 315.819 75.5313C315.492 75.4689 314.109 75.0177 311.928 71.5614C309.656 67.9563 306.711 61.2549 303.608 48.8171C304.074 48.6155 304.699 48.4283 305.352 48.2794C306.284 48.0634 307.264 47.9194 307.989 47.8666C308.45 48.9611 308.945 50.214 309.459 51.5149C311.544 56.8097 313.974 62.9879 317.961 67.1882L318.393 67.6442L318.907 67.2842C320.252 66.3481 323.84 62.1094 327.174 58.1635C329.907 54.9328 332.467 51.9037 333.342 51.2077C334.591 50.2092 336.137 49.1723 338.284 48.2938C340.355 47.4442 342.987 46.7433 346.455 46.3641L346.647 46.6329C347.786 48.1258 349.698 48.8315 351.84 48.8843C353.886 48.9323 356.168 48.3803 358.161 47.3386C358.718 47.0505 359.252 46.7241 359.751 46.3641C362.018 46.8009 365.208 48.2074 368.268 49.9932C371.356 51.7933 374.282 53.9631 375.977 55.9073C376.631 57.6834 377.404 59.6756 378.225 61.8022C382.443 72.6847 388.068 87.1963 386.021 94.7665C386.007 94.8145 385.743 95.1793 384.287 95.3761C383.346 95.5009 381.996 95.4865 380.07 95.1505C378 94.7905 375.233 93.9264 371.659 92.5487C368.042 91.1566 363.618 89.246 358.272 86.8074L357.667 88.1323C363.051 90.5901 367.504 92.5103 371.135 93.912C374.81 95.3281 377.668 96.2162 379.83 96.5906C381.914 96.9507 383.413 96.9651 384.489 96.821C386.804 96.509 387.395 95.3137 387.438 95.1505C389.61 87.1242 383.884 72.3534 379.59 61.2789C378.749 59.1091 377.961 57.0834 377.303 55.2832L377.255 55.1584L377.169 55.0576C375.382 52.9646 372.269 50.6364 369.003 48.7307C365.674 46.7865 362.148 45.2696 359.684 44.8712L359.377 44.8232L359.127 45.0152C358.613 45.404 358.065 45.7544 357.489 46.0521C355.707 46.9785 353.684 47.4778 351.874 47.4298C350.159 47.3866 348.66 46.8585 347.81 45.7496C347.69 45.5912 347.584 45.428 347.493 45.2552L347.262 44.8184L346.772 44.8664C342.92 45.2456 340.009 46.0089 337.732 46.9449C335.436 47.8858 333.774 48.9995 332.434 50.07C331.43 50.8717 328.831 53.9439 326.06 57.2226C323.158 60.6549 320.055 64.3224 318.561 65.6809C315.04 61.6966 312.773 55.9409 310.823 50.9821C310.256 49.5371 309.713 48.1594 309.137 46.8297L308.945 46.3881H308.464C307.643 46.3929 306.284 46.5657 305.035 46.8537C303.988 47.0985 302.989 47.4298 302.374 47.8234L301.937 48.1066L302.061 48.6107C305.261 61.5861 308.335 68.5755 310.703 72.339C313.201 76.3042 315.098 76.8802 315.554 76.9666C318.917 77.6147 323.029 76.1697 326.905 73.7935C331.233 71.1389 335.311 67.2986 337.698 63.9335C338.51 62.791 337.305 61.9798 336.44 63.1799Z" fill="#333333"/>
<path fill-rule="evenodd" clip-rule="evenodd" d="M377.38 55.3847L377.285 55.125L379.619 61.2553L379.384 60.6482L379.384 60.647C378.65 58.7468 377.966 56.9774 377.38 55.3847ZM379.634 61.2948L379.619 61.2569L377.017 58.6754C377.326 59.4842 377.65 60.3226 377.984 61.185L377.985 61.1881L378.22 61.7974L378.223 61.8039C382.44 72.6857 388.062 87.193 386.016 94.7617C386.002 94.8097 385.738 95.1745 384.282 95.3713C383.341 95.4961 381.991 95.4817 380.065 95.1457C377.994 94.7857 375.228 93.9216 371.654 92.5439C371.493 92.4819 371.331 92.4188 371.166 92.3547C370.896 92.2492 370.622 92.1409 370.343 92.0298C367.534 90.9115 364.278 89.5109 360.528 87.8239C360.028 87.599 359.519 87.369 359.002 87.1338L359.046 87.1008C359.463 86.7858 359.85 86.4262 360.206 86.0329C360.33 85.895 360.451 85.753 360.567 85.6073C360.904 85.1865 361.205 84.7384 361.473 84.2674L361.495 84.2296C361.581 84.2562 361.67 84.2829 361.76 84.3098L361.88 84.3453C363.676 84.8731 366.075 85.438 368.524 85.9201C368.96 86.0059 369.398 86.0891 369.833 86.169C370.036 86.2065 370.239 86.2433 370.441 86.2794C372.415 86.6315 374.332 86.9101 375.898 87.0542C376.128 87.0754 376.35 87.0936 376.564 87.1088C376.708 87.119 376.848 87.1278 376.984 87.1351L377.072 87.1397L377.093 87.1408L377.149 87.1434C378.286 87.1955 378.456 85.7819 377.217 85.6827C377.2 85.6814 377.181 85.6802 377.164 85.6793C377.131 85.6773 377.098 85.6754 377.065 85.6737L377.004 85.6705C376.902 85.6653 376.8 85.66 376.693 85.6505C376.683 85.6382 376.673 85.6253 376.662 85.612C376.062 84.8468 374.631 82.4469 373.215 79.8708C371.878 77.4334 370.569 74.8633 370.007 73.3805C370 73.3603 369.992 73.3404 369.985 73.3206C369.979 73.3053 369.973 73.2902 369.968 73.2751C370.015 71.0227 370.127 68.7425 370.3 66.4298L370.309 66.3145L370.311 66.2909L370.311 66.2883C370.373 65.1829 368.944 64.9608 368.853 66.1801L368.852 66.2028L368.852 66.2044L368.839 66.3679C368.667 68.6735 368.557 70.9638 368.51 73.2445C368.507 73.3748 368.504 73.5051 368.502 73.6354C368.491 74.2857 368.485 74.9352 368.484 75.5841C368.48 78.0646 368.554 80.5158 368.701 82.943C368.732 83.445 368.765 83.946 368.802 84.446L368.805 84.4936C368.29 84.3921 367.78 84.2855 367.279 84.1758C365.363 83.7563 363.581 83.2897 362.187 82.875C362.101 82.8621 362.013 82.8469 361.923 82.8291C361.558 82.757 361.165 82.6448 360.751 82.4956C357.662 81.3824 353.372 78.2087 350.046 74.208C348.603 72.4722 347.342 70.5808 346.44 68.6344C346.363 68.4672 346.288 68.2996 346.216 68.1317C346.051 67.7483 345.901 67.3632 345.766 66.9771C345.901 66.2245 346.077 65.239 346.27 64.1457C346.387 63.4878 346.51 62.7909 346.634 62.0822C346.875 60.7062 347.122 59.2859 347.338 58.021C347.651 56.1831 347.897 54.6733 347.962 54.104C347.978 53.9717 347.983 53.8902 347.978 53.8671C347.877 53.4447 347.781 53.0174 347.689 52.5806C347.648 52.6011 347.606 52.6209 347.565 52.6399L347.583 52.6029C347.602 52.5623 347.621 52.5219 347.641 52.4818C347.995 51.7471 348.383 51.0919 348.8 50.5597C349.091 50.188 349.396 49.8763 349.716 49.6395C349.74 49.6216 349.764 49.6041 349.788 49.5871C350.211 49.2903 350.657 49.125 351.125 49.125C352.437 52.9214 356.254 53.9199 357.147 53.4255C358.66 52.5901 359.404 49.7554 359.805 47.634C359.912 47.0668 359.994 46.5505 360.06 46.1371L360.062 46.125C360.543 46.3107 361.018 46.4984 361.491 46.6908C363.722 47.5992 365.892 48.6106 368.263 49.9932L376.022 56.0387C376.006 55.9932 375.989 55.9478 375.972 55.9025C374.277 53.9583 371.351 51.7885 368.263 49.9932L369.018 48.6975L369.017 48.6969C366.054 46.9687 363.398 45.8058 360.603 44.7258L358.874 44.0577L358.581 45.8883C358.423 46.8766 358.189 48.3342 357.776 49.6654C357.57 50.3295 357.335 50.9089 357.074 51.3566C356.861 51.7214 356.671 51.9305 356.526 52.0428C356.465 52.0419 356.376 52.0354 356.259 52.0161C355.93 51.9617 355.485 51.8224 355.004 51.5637C354.054 51.0516 353.058 50.1251 352.542 48.6349L352.193 47.625H351.125C349.324 47.625 348.028 48.965 347.18 50.2446C346.932 50.6198 346.697 51.0264 346.476 51.4557C345.995 51.6003 345.71 51.5447 345.609 51.5087L345.606 51.5075C345.528 51.48 345.44 51.4273 345.337 51.2341C345.219 51.0129 345.115 50.6586 345.066 50.1524C344.975 49.1825 345.111 47.9531 345.28 47.0014L345.657 44.8847L343.54 45.2618C341.234 45.6727 339.326 46.2431 337.713 46.8999L337.711 46.9008C335.405 47.8445 333.736 48.9635 332.401 50.0307C331.833 50.4832 330.875 51.5362 329.82 52.7431C328.739 53.98 327.435 55.5219 326.096 57.104L326.024 57.19L326.01 57.2062C324.344 59.1757 322.631 61.2005 321.168 62.8505C320.434 63.6779 319.773 64.399 319.22 64.9652C318.961 65.2297 318.74 65.4457 318.556 65.6166C315.094 61.6835 312.867 56.0855 310.849 50.9606L310.849 50.9589L310.67 50.5072C310.222 49.372 309.784 48.2611 309.364 47.2743L308.947 46.2948L307.885 46.3651C307.064 46.4194 306.008 46.5827 305.01 46.813L305.003 46.8145C304.318 46.9756 303.594 47.1819 303.007 47.4356L301.839 47.9411L302.148 49.1758C305.273 61.6886 308.26 68.5589 310.654 72.3563C312.92 75.9553 314.601 76.8232 315.533 77C319.079 77.6813 323.249 76.0696 326.915 73.8246L326.916 73.824C329.086 72.4923 331.191 70.8683 333.055 69.1519L333.039 69.5192L333.038 69.5332C332.888 74.0117 332.922 83.0185 333.39 91.527C333.708 97.2954 334.221 102.919 335.025 106.722L335.165 107.385L335.755 107.718C341.112 110.743 347.122 112.056 352.995 112.308C360.382 112.624 367.654 111.277 373.387 109.47L374.765 109.036L374.383 107.643C373.727 105.249 373.148 102.885 372.64 100.536C372.173 98.3773 371.769 96.2187 371.428 94.0637C374.881 95.3834 377.655 96.2491 379.808 96.6235C381.835 96.9772 383.345 97.0087 384.479 96.8583L384.483 96.8578C385.309 96.7462 385.907 96.5734 386.347 96.3589C386.57 96.2504 386.77 96.1224 386.94 95.9707C387.025 95.8951 387.111 95.8071 387.188 95.7053C387.241 95.6373 387.374 95.4561 387.453 95.1929L387.459 95.1731L387.464 95.1531C388.046 92.9996 388.06 90.4585 387.744 87.7723C387.426 85.0704 386.762 82.1237 385.911 79.1136C384.214 73.1134 381.734 66.7141 379.634 61.2948ZM347.565 52.6399C347.084 52.8633 346.643 52.9848 346.251 53.0297C346.075 53.0499 345.91 53.0547 345.754 53.0464C345.512 53.0336 345.295 52.989 345.105 52.9214C344.116 52.571 343.693 51.5293 343.573 50.2956C343.513 49.6628 343.533 48.9669 343.593 48.3033C343.643 47.7387 343.722 47.1975 343.803 46.7385C343.255 46.8362 342.732 46.943 342.232 47.0578C340.716 47.4058 339.413 47.8271 338.279 48.2891C336.132 49.1675 334.585 50.2044 333.337 51.2029C332.469 51.8932 329.944 54.8785 327.236 58.0793L327.147 58.1843C323.82 62.1181 320.244 66.3454 318.902 67.2794L318.388 67.6394L317.956 67.1834C313.974 62.9831 311.538 56.8049 309.454 51.5101L309.275 51.0577C308.826 49.9195 308.395 48.8288 307.984 47.8618C307.258 47.9098 306.283 48.0586 305.347 48.2746C304.693 48.4283 304.069 48.6107 303.603 48.8123C306.711 61.2549 309.651 67.9515 311.923 71.5566C314.099 75.0128 315.482 75.4641 315.813 75.5265C318.782 76.0977 322.534 74.7488 326.131 72.5454C328.674 70.9856 331.121 69.0076 333.162 66.9717C333.306 66.828 333.448 66.684 333.588 66.5398C334.687 65.4077 335.653 64.2657 336.435 63.1751C336.444 63.1621 336.453 63.1495 336.463 63.137C336.476 63.1192 336.49 63.1018 336.503 63.085L336.504 63.0836C337.362 62.0134 338.483 62.8118 337.689 63.9287L337.619 64.0251L337.611 64.037C336.789 65.1759 335.779 66.3712 334.634 67.553L334.585 68.4651L334.537 69.5836C334.389 74.0144 334.422 82.9767 334.888 91.4446C335.205 97.2051 335.714 102.73 336.492 106.412C341.594 109.292 347.358 110.565 353.06 110.809C360.236 111.117 367.331 109.806 372.936 108.04C372.274 105.62 371.688 103.23 371.174 100.853C370.639 98.3784 370.185 95.9034 369.812 93.4331L369.805 93.384C368.423 92.8349 366.902 92.1439 365.276 91.4052C363.139 90.4346 360.821 89.3815 358.399 88.4596L358.334 88.4347C357.794 88.2299 357.187 87.7605 356.538 87.0963C354.095 84.5968 351.06 79.3391 348.791 75.0443C346.871 71.4099 345.5 68.4651 345.5 68.4651C345.5 68.4651 345.603 67.8938 345.766 66.9771C345.458 66.0912 345.232 65.2 345.105 64.3125C345.026 63.7615 345.043 62.9074 345.147 61.879C345.269 60.6654 345.514 59.209 345.867 57.7211C346.128 56.6217 346.449 55.5052 346.823 54.4568C346.864 54.343 346.905 54.23 346.947 54.1179L346.949 54.1127C347.142 53.5991 347.347 53.1046 347.565 52.6399ZM357.622 86.0594C357.667 86.1055 357.711 86.1497 357.754 86.192L358.107 85.93C358.574 85.5829 359.006 85.1572 359.396 84.6699C359.612 84.4007 359.812 84.1156 359.997 83.8153C358.957 83.4157 357.86 82.8405 356.769 82.1547C355.468 81.337 354.115 80.3236 352.794 79.1651C353.769 80.8252 354.773 82.4159 355.735 83.7507C356.413 84.6918 357.05 85.476 357.622 86.0594ZM374.712 85.4169C373.385 85.2536 371.877 85.0174 370.327 84.7346L370.301 84.3834C370.121 81.9342 370.015 79.4617 369.99 76.9599C370.569 78.1218 371.238 79.3853 371.9 80.5921L371.901 80.5935C372.628 81.9171 373.362 83.1989 373.99 84.2455C374.243 84.666 374.487 85.0634 374.712 85.4169Z" fill="#333333"/>
<path fill-rule="evenodd" clip-rule="evenodd" d="M375.972 55.9025C376.625 57.6786 377.399 59.6708 378.22 61.7974C382.438 72.6799 388.063 87.1915 386.016 94.7617C386.002 94.8097 385.738 95.1745 384.282 95.3713C383.341 95.4961 381.991 95.4817 380.065 95.1457C377.994 94.7857 375.228 93.9216 371.654 92.5439C368.205 91.2142 364.021 89.414 359.002 87.1338C359.583 86.7018 360.106 86.1834 360.567 85.6073C360.913 85.1753 361.221 84.7144 361.495 84.2296C363.627 84.8825 366.769 85.6073 369.833 86.169C372.586 86.6778 375.285 87.057 377.149 87.1434C378.302 87.1963 378.46 85.7417 377.163 85.6793C377.01 85.6697 376.856 85.6649 376.693 85.6505C376.112 84.9305 374.656 82.4919 373.215 79.8708C371.846 77.3746 370.506 74.7392 369.968 73.2751C370.016 70.9853 370.131 68.6667 370.309 66.3145C370.395 65.1864 368.945 64.9512 368.853 66.1801C368.613 69.3388 368.488 72.4686 368.484 75.5841C368.479 78.5939 368.589 81.5606 368.805 84.4936C366.322 84.004 363.945 83.3982 362.187 82.875C357.147 82.125 346.353 73.0349 345.105 64.3125C344.672 61.2875 347.114 49.125 351.125 49.125C352.437 52.9214 356.254 53.9199 357.147 53.4255C359.069 52.3646 359.75 48.0788 360.062 46.125C362.812 47.1875 365.39 48.3179 368.263 49.9932C371.351 51.7885 374.277 53.9583 375.972 55.9025ZM345.5 68.4651C345.5 68.4651 348.064 54.2223 347.978 53.8671C347.877 53.4447 347.781 53.0174 347.689 52.5806C346.599 53.1182 345.71 53.1375 345.105 52.9214C344.116 52.571 343.693 51.5293 343.573 50.2956C343.462 49.1243 343.626 47.737 343.803 46.7385C341.594 47.1322 339.788 47.6746 338.279 48.2891C336.132 49.1675 334.585 50.2044 333.337 51.2029C332.462 51.8989 329.902 54.928 327.169 58.1587C323.835 62.0998 320.247 66.3433 318.902 67.2794L318.388 67.6394L317.956 67.1834C313.974 62.9831 311.538 56.805 309.454 51.5101C308.94 50.2092 308.45 48.9563 307.984 47.8618C307.258 47.9098 306.283 48.0586 305.347 48.2746C304.693 48.4283 304.069 48.6107 303.603 48.8123C306.711 61.2549 309.651 67.9515 311.923 71.5566C314.099 75.0128 315.482 75.4641 315.813 75.5265C318.782 76.0977 322.534 74.7488 326.131 72.5454C330.262 70.0108 334.144 66.3721 336.435 63.1751C337.299 61.9702 338.505 62.7814 337.688 63.9287C336.853 65.1 335.815 66.3337 334.633 67.553L334.585 68.4651L334.537 69.5836C334.388 74.0144 334.422 82.9767 334.888 91.4446C335.205 97.2051 335.714 102.73 336.492 106.412C341.594 109.292 347.358 110.565 353.06 110.809C360.236 111.117 367.331 109.806 372.936 108.04C372.274 105.62 371.688 103.23 371.174 100.853C370.636 98.362 370.179 95.8706 369.805 93.384C366.591 92.1071 362.625 90.0625 358.334 88.4347C354.043 86.807 345.5 68.4651 345.5 68.4651Z" fill="#EFEFEF"/>
<path fill-rule="evenodd" clip-rule="evenodd" d="M368.853 66.1801C368.613 69.3388 368.488 72.4686 368.483 75.5841C368.479 78.93 368.613 82.2182 368.882 85.4681L370.342 85.3481C370.073 82.0982 369.939 78.8484 369.944 75.5841C369.949 72.5502 370.069 69.4684 370.314 66.3193C370.395 65.1912 368.945 64.9512 368.853 66.1801ZM369.756 93.0431L371.202 92.8319C371.587 95.4049 372.052 97.9779 372.61 100.561C373.167 103.153 373.811 105.745 374.536 108.337L374.723 109.009L374.06 109.225C368.219 111.145 360.668 112.605 353.002 112.278C346.973 112.019 340.878 110.651 335.484 107.526L335.21 107.367L335.138 107.051C334.297 103.282 333.754 97.5219 333.428 91.5262C332.962 83.0247 332.923 74.0144 333.077 69.5452L333.125 68.4027L333.188 67.2026L334.648 67.2938L334.585 68.4699L334.537 69.5884C334.388 74.0192 334.422 82.9815 334.888 91.4494C335.205 97.2099 335.714 102.735 336.492 106.417C341.594 109.297 347.358 110.569 353.06 110.814C360.236 111.121 367.331 109.811 372.936 108.044C372.273 105.625 371.687 103.234 371.173 100.858C370.621 98.2515 370.145 95.6497 369.756 93.0431Z" fill="#333333"/>
<path fill-rule="evenodd" clip-rule="evenodd" d="M382.971 236.57C381.827 237.861 380.377 239.249 378.888 240.67C376.476 242.974 373.969 245.369 372.715 247.419C371.774 248.96 371.601 250.294 372.936 251.173C373.748 251.274 376.649 250.05 380.012 248.35C383.773 246.449 388.009 243.953 390.608 241.98C390.627 241.961 390.68 241.923 390.699 241.913C390.752 241.875 390.839 241.817 390.94 241.731C391.478 241.265 392.328 240.002 389.695 236.945L390.805 235.994C394.302 240.06 392.789 242.062 391.886 242.839C391.756 242.95 391.626 243.041 391.54 243.103L391.473 243.151C388.792 245.182 384.484 247.726 380.67 249.651C376.899 251.557 373.513 252.872 372.446 252.56L372.355 252.536L372.273 252.483C369.9 251.039 370.049 248.984 371.471 246.661C372.826 244.448 375.4 241.985 377.884 239.614C379.354 238.207 380.79 236.839 381.88 235.605L382.971 236.57Z" fill="#333333"/>
<path fill-rule="evenodd" clip-rule="evenodd" d="M342.026 235.615C340.551 236.22 338.755 236.839 336.92 237.468C333.231 238.73 329.383 240.05 327.174 241.663C325.214 243.099 324.455 244.74 325.906 246.713L325.963 246.79L326.04 246.853C326.919 247.558 331.276 247.673 336.19 247.371C340.945 247.078 346.306 246.435 349.476 245.595L349.553 245.576C350.288 245.412 353.252 244.736 351.835 239.522C351.782 239.33 351.398 238.486 351.042 237.689C350.749 237.041 350.471 236.421 350.437 236.325L349.049 236.781C349.097 236.93 349.395 237.593 349.712 238.289C350.048 239.038 350.408 239.83 350.427 239.902C351.446 243.656 349.673 244.054 349.236 244.15L349.13 244.174C346.051 244.99 340.792 245.619 336.108 245.907C331.655 246.181 327.798 246.176 327.025 245.749C326.309 244.678 326.833 243.718 328.048 242.83C330.07 241.351 333.812 240.07 337.405 238.836C339.23 238.212 341.022 237.597 342.593 236.949L342.026 235.615Z" fill="#333333"/>
<path fill-rule="evenodd" clip-rule="evenodd" d="M378.888 240.67C376.477 242.974 373.969 245.369 372.716 247.419C371.774 248.96 371.601 250.294 372.937 251.173C373.748 251.274 376.65 250.05 380.012 248.35C383.773 246.449 388.01 243.953 390.609 241.98C390.628 241.961 390.681 241.923 390.7 241.913C390.753 241.875 390.839 241.817 390.94 241.731C391.233 241.481 391.612 241.001 391.488 240.132C391.396 239.47 391.007 238.577 390.061 237.386C389.076 237.813 387.832 237.996 386.588 237.962C385.137 237.924 383.648 237.597 382.563 237.026C381.66 238.01 380.598 239.038 379.498 240.094C379.292 240.286 379.09 240.478 378.888 240.67Z" fill="#FEFEFE"/>
<path fill-rule="evenodd" clip-rule="evenodd" d="M350.418 239.906C350.442 239.993 350.466 240.079 350.485 240.166C351.354 243.68 349.654 244.064 349.226 244.16L349.121 244.184C346.042 245 340.782 245.628 336.098 245.917C331.646 246.19 327.788 246.185 327.015 245.758C326.299 244.688 326.823 243.728 328.038 242.839C329.268 241.937 331.141 241.111 333.226 240.324C334.566 239.82 335.988 239.33 337.395 238.85C339.029 238.289 340.633 237.741 342.079 237.165C342.977 237.756 344.365 238.366 345.96 238.471C347.065 238.543 348.271 238.375 349.476 237.794C349.548 237.953 349.625 238.125 349.702 238.294C350.038 239.042 350.394 239.834 350.418 239.906Z" fill="#FEFEFE"/>
<path fill-rule="evenodd" clip-rule="evenodd" d="M371.159 110.099C374.546 121.173 378.331 141.177 381.645 163.796C386.425 187.092 389.504 213.331 389.46 235.562C388.581 236.047 387.299 236.33 386.021 236.359C384.753 236.388 383.523 236.176 382.74 235.682C381.64 231.496 377.207 213.519 371.25 192.666C366.226 175.067 359.621 155.952 356.153 142.545L354.765 137.48C354.679 150.072 353.833 163.297 353.286 171.875C353.122 174.458 352.983 176.618 352.896 178.265C352.892 178.375 352.896 178.797 352.906 179.503C352.988 185.614 353.353 213.629 349.015 236.388C347.997 236.921 346.974 237.074 346.042 237.017C344.774 236.935 343.664 236.46 342.939 235.989C342.857 229.408 342.636 219.951 342.017 209.87C341.382 199.564 340.321 188.571 338.553 179.253C338.409 178.495 335.748 163.239 335.594 142.602C335.517 132.291 336.07 120.636 337.876 108.774C342.646 111.016 347.848 112.048 352.997 112.274C359.453 112.552 365.823 111.563 371.159 110.099Z" fill="#404040"/>
<path fill-rule="evenodd" clip-rule="evenodd" d="M337.791 108.615L337.922 108.676C342.676 110.911 347.864 111.94 353.002 112.166C359.444 112.443 365.803 111.457 371.131 109.995L371.232 109.967L371.263 110.067C374.652 121.15 378.437 141.159 381.752 163.777C386.532 187.079 389.612 213.324 389.569 235.562L389.568 235.626L389.513 235.657C388.614 236.152 387.313 236.438 386.024 236.467C384.747 236.496 383.492 236.284 382.683 235.773L382.647 235.751L382.636 235.709C382.432 234.931 382.112 233.677 381.689 232.018C379.836 224.743 375.996 209.673 371.147 192.695C368.882 184.764 366.297 176.525 363.822 168.637C363.551 167.776 363.282 166.918 363.015 166.066C360.303 157.412 357.784 149.279 356.049 142.573C356.049 142.572 356.049 142.573 356.049 142.573L354.867 138.26C354.752 150.598 353.933 163.436 353.396 171.838L353.393 171.882C353.393 171.882 353.393 171.882 353.393 171.882M353.004 178.27C353 178.377 353.004 178.794 353.014 179.502C353.096 185.612 353.461 213.637 349.121 236.408L349.112 236.459L349.065 236.483C348.027 237.026 346.984 237.183 346.035 237.124C344.745 237.041 343.618 236.558 342.88 236.08L342.832 236.048L342.831 235.991C342.749 229.41 342.528 219.955 341.909 209.877C341.275 199.572 340.214 188.585 338.447 179.274C338.302 178.51 335.64 163.248 335.486 142.603C335.41 132.288 335.962 120.626 337.769 108.758L337.791 108.615M353.004 178.27C353.081 176.82 353.198 174.973 353.336 172.788C353.355 172.492 353.374 172.19 353.393 171.882M337.961 108.933C336.173 120.739 335.626 132.336 335.702 142.602C335.856 163.231 338.516 178.48 338.659 179.233C340.428 188.557 341.49 199.555 342.124 209.864C342.742 219.917 342.964 229.35 343.046 235.93C343.759 236.382 344.83 236.83 346.049 236.909C346.95 236.964 347.936 236.819 348.919 236.316C353.244 213.579 352.88 185.612 352.798 179.504C352.789 178.802 352.784 178.374 352.789 178.26C352.865 176.809 352.982 174.959 353.12 172.775C353.139 172.479 353.158 172.177 353.178 171.868L353.18 171.826C353.728 163.247 354.571 150.047 354.657 137.48L354.662 136.697L356.258 142.518C357.991 149.218 360.508 157.346 363.221 166.001C363.489 166.854 363.758 167.711 364.028 168.573C366.503 176.46 369.089 184.702 371.354 192.636C376.205 209.617 380.046 224.693 381.899 231.966C382.314 233.595 382.629 234.833 382.834 235.613C383.592 236.075 384.779 236.279 386.019 236.251C387.258 236.223 388.495 235.953 389.353 235.498C389.39 213.289 386.313 187.086 381.54 163.818L381.538 163.812C378.234 141.261 374.463 121.317 371.087 110.231C365.762 111.682 359.421 112.659 352.993 112.381C347.88 112.157 342.711 111.14 337.961 108.933Z" fill="#404040"/>
<path fill-rule="evenodd" clip-rule="evenodd" d="M354.769 137.336C354.688 149.971 353.838 163.263 353.29 171.875C353.127 174.458 352.987 176.618 352.901 178.265C352.896 178.375 352.901 178.797 352.91 179.503C352.992 185.614 353.357 213.629 349.02 236.388C348.001 236.921 346.978 237.074 346.046 237.017C344.778 236.935 343.669 236.46 342.943 235.989C342.862 229.408 342.641 219.951 342.021 209.87C341.387 199.564 340.325 188.571 338.558 179.253C338.414 178.495 335.752 163.239 335.599 142.602C335.522 132.003 336.103 119.993 338.034 107.795L336.593 107.569C334.652 119.844 334.066 131.941 334.143 142.602C334.297 163.379 336.977 178.749 337.121 179.513C338.88 188.763 339.931 199.693 340.566 209.947C341.2 220.234 341.416 229.821 341.493 236.378L341.497 236.738L341.786 236.954C342.655 237.602 344.178 238.351 345.96 238.466C347.242 238.548 348.655 238.308 350.052 237.482L350.336 237.314L350.398 236.993C354.827 214.042 354.452 185.648 354.376 179.479C354.366 178.826 354.361 178.428 354.366 178.332C354.448 176.776 354.587 174.583 354.755 171.962C355.235 164.463 355.941 153.427 356.167 142.338L354.769 137.336Z" fill="#333333"/>
<path fill-rule="evenodd" clip-rule="evenodd" d="M346.364 123.367C347.295 124.203 348.347 124.947 349.515 125.494C350.72 126.055 352.056 126.415 353.506 126.459L354.097 126.478L354.164 127.059C356.057 143.284 361.182 159.365 367.235 178.341C372.403 194.552 378.244 212.875 383.331 235.212C384.234 235.62 385.214 235.721 386.17 235.653C387.083 235.586 387.981 235.36 388.769 235.087C388.601 228.467 388.221 218.453 387.366 207.816C386.761 200.265 385.92 192.421 384.748 185.302C384.585 184.318 384.426 183.382 384.263 182.489C384.1 181.586 383.927 180.698 383.754 179.829C383.614 179.148 383.432 178.289 383.249 177.453C382.769 175.231 382.327 173.195 382.077 170.661C381.909 168.947 381.722 167.18 381.52 165.38C381.314 163.532 381.097 161.761 380.881 160.057C379.68 150.71 378.143 141.638 376.409 133.299C374.608 124.649 372.591 116.805 370.511 110.296L371.803 109.888C373.897 116.455 375.929 124.342 377.735 133.026C379.479 141.378 381.021 150.489 382.226 159.889C382.462 161.722 382.678 163.508 382.875 165.231C383.067 166.945 383.254 168.712 383.432 170.531C383.667 172.951 384.104 174.967 384.58 177.16C384.729 177.852 384.883 178.567 385.084 179.561C385.262 180.439 385.435 181.337 385.598 182.244C385.771 183.209 385.939 184.15 386.088 185.076C387.265 192.258 388.115 200.135 388.721 207.705C389.595 218.583 390.632 229.326 390.796 235.985L390.805 236.465L390.354 236.637C388.173 237.463 383.586 237.977 381.938 235.908L381.871 235.601C376.774 213.159 371.121 195.004 365.938 178.745C359.933 159.908 354.837 143.918 352.877 127.774C351.45 127.659 350.139 127.275 348.933 126.713C347.608 126.094 346.421 125.254 345.388 124.313C344.471 123.478 345.446 122.542 346.364 123.367Z" fill="#333333"/>
<path fill-rule="evenodd" clip-rule="evenodd" d="M351.868 47.425C353.674 47.4682 355.702 46.9738 357.484 46.0473C357.681 45.9465 357.873 45.8361 358.065 45.7209L357.642 37.2242C357.037 37.9394 356.441 38.5347 355.865 39.0291C352.123 42.2454 348.981 41.3573 348.77 41.2757C348.655 41.2325 348.54 41.1893 348.429 41.1413L347.8 45.7353C347.8 45.7353 347.8 45.7401 347.805 45.7401C348.655 46.8538 350.154 47.3866 351.868 47.425Z" fill="#FEFEFE"/>
<path fill-rule="evenodd" clip-rule="evenodd" d="M350.178 23.6007C351.662 20.0916 355.601 22.0934 355.615 23.9703C355.428 23.7639 354.602 23.2694 354.131 23.2118C353.968 25.3 351.47 25.7369 350.797 23.5095C350.528 23.4951 350.375 23.4807 350.178 23.6007ZM349.28 39.9076C349.433 39.9652 351.792 40.6085 354.919 37.9203C356.552 36.5185 358.353 34.224 360.107 30.5132C360.078 30.5228 360.044 30.5324 360.015 30.5421C359.554 30.6669 359.175 29.8316 359.938 29.5436C360.14 29.4668 360.342 29.3612 360.52 29.2363C360.899 28.9771 361.202 28.6555 361.384 28.3675C362.105 27.2394 362.292 25.9865 362.042 25.0744C361.946 24.724 361.783 24.4263 361.567 24.2247C361.365 24.0327 361.101 23.9175 360.784 23.9031C360.15 23.8743 359.309 24.2199 358.291 25.1272C357.724 25.6312 357.22 24.9832 357.494 24.5608L357.176 24.1143C357.239 22.151 357.176 20.538 357.018 19.2179C356.85 17.8402 356.576 16.8033 356.216 16.0449C355.985 15.5552 355.63 15.0752 355.197 14.6863C354.804 14.3263 354.352 14.0479 353.881 13.9039C353.324 13.7311 352.762 13.7743 352.21 13.9423C351.6 14.1295 350.985 14.4703 350.375 14.8736C350.067 15.0752 349.765 15.2912 349.472 15.5024C347.944 16.5969 346.729 17.4658 344.313 16.8225C343.986 16.7361 343.679 16.5729 343.415 16.3473C343.386 16.3233 343.357 16.2993 343.333 16.2753C342.896 16.9377 342.521 17.701 342.204 18.5411C341.133 21.4213 340.821 25.1512 341.416 28.7371C342.007 32.2942 343.487 35.6881 345.994 37.9299C346.94 38.7651 348.031 39.4468 349.28 39.9076ZM360.044 25.6072C359.439 25.7273 359.372 25.2232 360.006 25.1176C360.198 25.0888 360.371 25.0888 360.525 25.1272C360.779 25.1848 360.971 25.324 361.101 25.5256C361.221 25.7129 361.283 25.9529 361.283 26.2217C361.283 26.6681 361.111 27.225 360.75 27.7818C360.616 27.993 360.39 28.2331 360.121 28.4155C359.977 28.5163 359.818 28.5979 359.645 28.6555C359.232 28.7995 359.064 28.3819 359.578 28.1611C359.669 28.1226 359.761 28.0698 359.847 28.0122C360.063 27.8682 360.236 27.681 360.342 27.5178C360.649 27.0378 360.798 26.5817 360.798 26.2217C360.798 26.0441 360.765 25.8953 360.693 25.7897C360.63 25.6936 360.539 25.6312 360.419 25.6024C360.313 25.5784 360.188 25.5784 360.044 25.6072ZM341.685 23.4519C343.035 19.89 347.051 21.7429 347.137 23.6199C346.94 23.4231 346.1 22.9574 345.624 22.919C345.542 25.012 343.059 25.54 342.305 23.3415C342.036 23.3319 341.877 23.3271 341.685 23.4519ZM347.997 32.3422C350.788 34.5936 351.801 30.5997 352.291 29.9852C352.152 34.944 348.348 34.5984 347.997 32.3422ZM347.267 28.6027C347.594 28.7803 348.117 28.9627 349.275 28.9867C346.887 29.9324 346.047 28.8235 346.08 27.7914C346.119 26.3993 347.425 26.6777 347.161 24.4215C348.295 26.0057 345.735 27.7722 347.267 28.6027Z" fill="#FEFEFE"/>
<path fill-rule="evenodd" clip-rule="evenodd" d="M332.672 36.5015C338.228 36.4211 343.682 39.1904 346.801 44.2647C350.514 50.3112 349.807 57.8264 345.589 63.0405C350.257 70.6792 354.791 78.4009 359.597 85.9563C361.79 89.3956 361.24 92.1935 358.231 94.0406C356.647 95.0478 353.108 96.1635 350.589 92.0433C345.838 84.2716 341.082 76.5002 336.332 68.7285C329.769 70.1356 322.747 67.3689 319.034 61.3224C315.915 56.2422 315.917 50.1297 318.496 45.2064C319.819 47.3647 321.148 49.5228 322.471 51.6811C324.318 54.684 328.286 55.6347 331.288 53.7879C332.37 53.1232 333.452 52.4585 334.534 51.7939C337.537 49.947 338.488 45.9794 336.641 42.9706C335.324 40.8179 333.995 38.6599 332.672 36.5015Z" fill="#FF6F3D"/>
<path fill-rule="evenodd" clip-rule="evenodd" d="M345.589 63.0405C349.807 57.8264 350.514 50.3112 346.801 44.2647C344.021 39.7419 339.386 37.0502 334.477 36.5756C333.878 36.5177 333.276 36.4928 332.672 36.5015C332.981 37.0064 333.291 37.5113 333.601 38.0161C333.833 38.3943 334.066 38.7726 334.298 39.1507C335.081 40.4252 335.863 41.6988 336.641 42.9706C338.488 45.9794 337.537 49.947 334.534 51.7939L331.288 53.7879C328.286 55.6347 324.318 54.684 322.471 51.6811C321.809 50.602 321.146 49.5229 320.483 48.4438C320.131 47.8702 319.778 47.2966 319.426 46.723C319.116 46.2175 318.806 45.7119 318.496 45.2064C318.215 45.7422 317.965 46.2921 317.746 46.8532C315.954 51.4479 316.254 56.795 319.034 61.3224C322.747 67.3689 329.769 70.1356 336.332 68.7285C338.706 72.6137 341.083 76.4989 343.459 80.384C345.836 84.2704 348.213 88.1569 350.589 92.0433C353.108 96.1635 356.647 95.0478 358.231 94.0406C361.24 92.1935 361.79 89.3956 359.597 85.9563C356.376 80.8917 353.276 75.7525 350.177 70.6137C348.652 68.0862 347.128 65.5589 345.589 63.0405ZM351.869 91.261C352.905 92.9562 354.01 93.4009 354.878 93.4694C355.849 93.5459 356.807 93.1689 357.426 92.7748L357.436 92.7685L357.446 92.7623C358.695 91.9955 359.242 91.16 359.387 90.3354C359.539 89.4753 359.312 88.2991 358.333 86.7626L358.332 86.7614C355.101 81.6822 351.985 76.5159 348.88 71.3679C347.358 68.8442 345.838 66.325 344.309 63.8226L343.758 62.9198L344.423 62.0972C348.253 57.3617 348.893 50.5379 345.523 45.0501C343.22 41.3019 339.512 38.9378 335.491 38.2266C335.519 38.2722 335.547 38.3178 335.575 38.3634C336.358 39.6389 337.142 40.9149 337.92 42.1867C340.2 45.9015 339.028 50.7914 335.32 53.0715L332.074 55.0656C332.074 55.0657 332.074 55.0654 332.074 55.0656C328.364 57.3469 323.473 56.1735 321.193 52.4669L321.192 52.4651C320.531 51.3867 319.868 50.3083 319.205 49.2291L319.204 49.2274C319.057 48.9868 318.909 48.7462 318.761 48.5055C317.579 52.4152 318.009 56.7868 320.312 60.5374C323.682 66.025 330.057 68.5399 336.017 67.2618L337.057 67.0389L337.612 67.9462C339.987 71.8318 342.363 75.7174 344.74 79.6032L344.749 79.6182C347.123 83.499 349.496 87.3799 351.869 91.261Z" fill="#333333"/>
<path d="M361.759 84.3347C361.934 87.2393 355.869 91.1426 352.166 91.366C348.462 91.5894 346.684 86.8643 346.509 83.9597C346.334 81.0551 351.306 79.9331 355.009 79.7098C358.713 79.4864 361.645 82.4439 361.759 84.3347Z" fill="white"/>
<path fill-rule="evenodd" clip-rule="evenodd" d="M359.669 85.7094C360.174 85.0562 360.274 84.6256 360.262 84.425C360.242 84.0862 359.849 83.2278 358.806 82.4104C357.83 81.6467 356.524 81.1212 355.1 81.207C353.324 81.3141 351.334 81.6349 349.86 82.2226C348.252 82.8639 347.984 83.4884 348.007 83.8694C348.082 85.1172 348.512 86.7779 349.293 88.0521C350.071 89.3213 350.998 89.9337 352.075 89.8687C353.553 89.7796 355.731 88.902 357.558 87.626C358.454 87.0005 359.186 86.3331 359.669 85.7094ZM352.166 91.366C355.869 91.1426 361.934 87.2393 361.759 84.3347C361.645 82.4439 358.713 79.4864 355.009 79.7098C351.306 79.9331 346.334 81.0551 346.509 83.9597C346.684 86.8643 348.462 91.5894 352.166 91.366Z" fill="#333333"/>
</svg>
