<svg width="171" height="64" viewBox="0 0 171 64" fill="none" xmlns="http://www.w3.org/2000/svg">
<path d="M128.125 42.6913H130.15V29.4772H128.125V42.6913ZM146.364 34.2372L144.043 39.9662H143.974L141.565 34.2372H139.383L142.996 42.2445L140.936 46.6985H143.049L148.616 34.2372H146.364ZM134.881 41.1905C134.217 41.1905 133.292 40.8676 133.292 40.0682C133.292 39.0483 134.444 38.6573 135.438 38.6573C136.329 38.6573 136.747 38.8443 137.289 39.0996C137.131 40.3234 136.049 41.1905 134.881 41.1905ZM135.125 33.9482C133.659 33.9482 132.141 34.5774 131.512 35.9714L133.309 36.7022C133.693 35.9714 134.409 35.7332 135.16 35.7332C136.207 35.7332 137.271 36.3455 137.289 37.4335V37.5693C136.922 37.3653 136.137 37.0594 135.177 37.0594C133.24 37.0594 131.267 38.0961 131.267 40.0343C131.267 41.8024 132.856 42.9415 134.635 42.9415C135.997 42.9415 136.747 42.3465 137.219 41.6496H137.289V42.6695H139.243V37.6031C139.243 35.2575 137.446 33.9482 135.125 33.9482ZM122.61 35.8458H119.73V31.3164H122.61C124.124 31.3164 124.984 32.5372 124.984 33.581C124.984 34.6051 124.124 35.8458 122.61 35.8458ZM122.558 29.4772H117.706V42.6913H119.73V37.685H122.558C124.802 37.685 127.009 36.1023 127.009 33.581C127.009 31.0599 124.802 29.4772 122.558 29.4772ZM96.0996 41.1929C94.7007 41.1929 93.5294 40.0521 93.5294 38.4851C93.5294 36.9017 94.7007 35.7435 96.0996 35.7435C97.4808 35.7435 98.5647 36.9017 98.5647 38.4851C98.5647 40.0521 97.4808 41.1929 96.0996 41.1929ZM98.4248 34.9772H98.3548C97.9004 34.4494 97.0259 33.9726 95.9246 33.9726C93.6168 33.9726 91.5015 35.9478 91.5015 38.4851C91.5015 41.0055 93.6168 42.9639 95.9246 42.9639C97.0259 42.9639 97.9004 42.4869 98.3548 41.9423H98.4248V42.5893C98.4248 44.3096 97.4808 45.2291 95.9597 45.2291C94.7185 45.2291 93.9492 44.3603 93.6341 43.6282L91.8686 44.3434C92.3756 45.5354 93.7219 47 95.9597 47C98.3374 47 100.348 45.6374 100.348 42.3168V34.2451H98.4248V34.9772ZM101.747 42.6913H103.775V29.4768H101.747V42.6913ZM106.764 38.332C106.712 36.5948 108.145 35.7096 109.177 35.7096C109.982 35.7096 110.663 36.101 110.89 36.6634L106.764 38.332ZM113.058 36.8335C112.674 35.8285 111.502 33.9726 109.107 33.9726C106.729 33.9726 104.754 35.7947 104.754 38.4682C104.754 40.9886 106.712 42.9639 109.334 42.9639C111.45 42.9639 112.674 41.7037 113.181 40.9716L111.607 39.9496C111.083 40.6991 110.366 41.1929 109.334 41.1929C108.303 41.1929 107.569 40.733 107.096 39.8307L113.268 37.3443L113.058 36.8335ZM63.8893 35.352V37.2592H68.5747C68.4348 38.332 68.0677 39.1152 67.5081 39.6602C66.8265 40.3246 65.76 41.0567 63.8893 41.0567C61.0045 41.0567 58.7493 38.7919 58.7493 35.9821C58.7493 33.1723 61.0045 30.9072 63.8893 30.9072C65.4454 30.9072 66.5815 31.5034 67.4208 32.2697L68.8019 30.9245C67.6307 29.8344 66.0745 29 63.8893 29C59.9379 29 56.6162 32.1335 56.6162 35.9821C56.6162 39.8307 59.9379 42.9639 63.8893 42.9639C66.0224 42.9639 67.6307 42.283 68.8893 41.0055C70.1831 39.7453 70.5854 37.9744 70.5854 36.5441C70.5854 36.101 70.5505 35.6927 70.4802 35.352H63.8893ZM75.9122 41.1929C74.5133 41.1929 73.3069 40.069 73.3069 38.4682C73.3069 36.8504 74.5133 35.7435 75.9122 35.7435C77.3106 35.7435 78.5171 36.8504 78.5171 38.4682C78.5171 40.069 77.3106 41.1929 75.9122 41.1929ZM75.9122 33.9726C73.3594 33.9726 71.2788 35.8627 71.2788 38.4682C71.2788 41.0567 73.3594 42.9639 75.9122 42.9639C78.4645 42.9639 80.5451 41.0567 80.5451 38.4682C80.5451 35.8627 78.4645 33.9726 75.9122 33.9726ZM86.019 41.1929C84.6206 41.1929 83.4141 40.069 83.4141 38.4682C83.4141 36.8504 84.6206 35.7435 86.019 35.7435C87.4175 35.7435 88.6239 36.8504 88.6239 38.4682C88.6239 40.069 87.4175 41.1929 86.019 41.1929ZM86.019 33.9726C83.4663 33.9726 81.3861 35.8627 81.3861 38.4682C81.3861 41.0567 83.4663 42.9639 86.019 42.9639C88.5714 42.9639 90.652 41.0567 90.652 38.4682C90.652 35.8627 88.5714 33.9726 86.019 33.9726Z" fill="black"/>
<path d="M20.6162 18V46L34.6162 32L20.6162 18Z" fill="url(#paint0_linear)"/>
<path d="M20.6162 18V46L34.6162 32L20.6162 18Z" fill="url(#paint1_linear)"/>
<path d="M45.1007 31.0452L39.8162 28L35.6162 32L39.8162 36L45.1007 32.7484C45.41 32.5935 45.6162 32.2323 45.6162 31.871C45.6162 31.5097 45.41 31.2 45.1007 31.0452Z" fill="url(#paint2_linear)"/>
<path d="M45.1007 31.0452L39.8162 28L35.6162 32L39.8162 36L45.1007 32.7484C45.41 32.5935 45.6162 32.2323 45.6162 31.871C45.6162 31.5097 45.41 31.2 45.1007 31.0452Z" fill="url(#paint3_linear)"/>
<path d="M21.6162 46L39.2162 36.45L35.1162 32.5L21.6162 46Z" fill="url(#paint4_linear)"/>
<path d="M21.6162 46L39.2162 36.45L35.1162 32.5L21.6162 46Z" fill="url(#paint5_linear)"/>
<path d="M39.2162 27.55L33.6662 24.3L21.6162 18L35.1162 31.5L39.2162 27.55Z" fill="url(#paint6_linear)"/>
<path d="M39.2162 27.55L33.6662 24.3L21.6162 18L35.1162 31.5L39.2162 27.55Z" fill="url(#paint7_linear)"/>
<path fill-rule="evenodd" clip-rule="evenodd" d="M68.0782 23.8754C67.8204 23.9585 67.5567 24 67.2876 24C66.7939 24 66.3116 23.8281 65.8491 23.4921C65.3782 23.1519 65.0664 22.6667 64.9241 22.0556L64.9013 21.9591L64.9881 21.9221L65.8617 21.5476L65.8924 21.6744C65.9779 22.0302 66.149 22.3243 66.4135 22.5689C66.6789 22.8117 66.9632 22.9278 67.2876 22.9287C67.6301 22.9283 67.9136 22.835 68.1498 22.6497C68.3803 22.4663 68.4877 22.2377 68.4893 21.9226C68.4877 21.5659 68.3768 21.3156 68.1485 21.1276C67.9105 20.9344 67.5146 20.7433 66.9674 20.5665H66.967H66.9666C66.3832 20.3719 65.9342 20.1179 65.6221 19.7974C65.3061 19.4742 65.1448 19.0498 65.146 18.5521C65.1448 18.0294 65.3466 17.5656 65.732 17.1857C66.1208 16.8001 66.6322 16.6076 67.2421 16.6085C67.8082 16.6081 68.2813 16.7598 68.6468 17.0692C69.0019 17.37 69.2408 17.7058 69.3512 18.0776L69.3806 18.1771L69.2896 18.2172L68.4177 18.6021L68.3857 18.4762C68.3381 18.2882 68.221 18.1066 68.0197 17.9316L68.021 17.9329L68.0197 17.932C67.8276 17.7664 67.5799 17.6807 67.2602 17.6803C66.9607 17.6807 66.7155 17.7664 66.5096 17.9378V17.9383C66.3045 18.1115 66.2134 18.3048 66.2113 18.5521C66.213 18.7735 66.2956 18.9485 66.4826 19.1091L66.4817 19.1087L66.4822 19.1091C66.6755 19.2716 66.9703 19.4264 67.3663 19.5636H67.3655C67.6873 19.6734 67.9573 19.7791 68.1772 19.8844C68.3988 19.9898 68.622 20.13 68.8461 20.3031V20.3027C69.0799 20.4822 69.2585 20.7098 69.3773 20.9789C69.4969 21.2491 69.555 21.5584 69.555 21.9034C69.555 22.2511 69.4872 22.5676 69.349 22.847C69.2122 23.1247 69.0268 23.3474 68.7981 23.5112L68.7977 23.5116C68.5752 23.6706 68.3356 23.7924 68.0782 23.8754ZM57.663 22.7762V17.8331H58.7029C59.4296 17.8345 59.9878 18.0536 60.4026 18.4852V18.4848C60.8154 18.9177 61.0248 19.5146 61.0257 20.3046C61.0248 21.101 60.8149 21.7 60.4026 22.1285C59.9881 22.5579 59.4296 22.7748 58.7029 22.7762H57.663ZM58.7029 23.847H56.724H56.6162V16.7623H58.7029C59.7177 16.7613 60.5471 17.0894 61.1654 17.7492C61.783 18.4053 62.0917 19.2659 62.0908 20.3046C62.0917 21.3424 61.783 22.2039 61.1654 22.8605C60.5471 23.5199 59.7177 23.8479 58.7029 23.847ZM63.9809 23.847H63.1499H63.042V16.7623H63.1499H64.0888V23.847H63.9809ZM71.5791 19.9984V17.8331H72.8634C73.1893 17.8349 73.432 17.9447 73.6233 18.1692C73.8191 18.4018 73.911 18.6451 73.9118 18.9165C73.911 19.1879 73.8195 19.4302 73.6233 19.6637C73.4324 19.8878 73.1893 19.9971 72.8634 19.9984H71.5791ZM71.5791 21.0701V23.7327V23.847H71.4712H70.5327V16.7623H72.8457C73.4169 16.7613 73.9227 16.9667 74.3406 17.3711C74.7631 17.7759 74.9787 18.3014 74.977 18.9165C74.9787 19.531 74.7631 20.056 74.3406 20.4604C73.9227 20.8652 73.4169 21.071 72.8457 21.0701H71.5791ZM81.208 22.8467L81.2853 22.926C81.9391 22.2145 82.2697 21.332 82.269 20.3045C82.2697 19.2828 81.9378 18.4021 81.2811 17.6875C80.6241 16.9701 79.801 16.6073 78.8355 16.6085C77.865 16.6073 77.0394 16.9684 76.3865 17.683V17.6826C75.7315 18.3945 75.4021 19.277 75.403 20.3045C75.4021 21.332 75.7315 22.2145 76.3865 22.9264V22.926C77.0394 23.6406 77.865 24.0009 78.8355 24C79.8056 24.0009 80.6312 23.6406 81.285 22.926L81.208 22.8467ZM76.4674 20.3045C76.4683 21.0785 76.697 21.6989 77.1544 22.1922C77.6161 22.6854 78.1674 22.9273 78.8355 22.9287C79.5031 22.9273 80.0558 22.6854 80.5162 22.1922C80.9745 21.6989 81.2033 21.0785 81.2041 20.3045C81.2033 19.5305 80.9745 18.9101 80.5162 18.4168C80.0558 17.9236 79.5031 17.6817 78.8355 17.6803C78.1674 17.6817 77.6161 17.9236 77.1544 18.4168C76.697 18.9101 76.4683 19.5305 76.4674 20.3045ZM87.4025 21.856L84.3994 16.7623H83.3279H83.2201V23.847H83.3279H84.1585H84.2664V19.4605L84.2403 18.4957L87.3885 23.847H88.3161H88.4239V16.7623H87.4842H87.3763V20.8903L87.4025 21.856ZM91.41 15L90.6686 16.3963L90.6379 16.4548H90.5751H89.691L90.2495 15H90.3219H91.41ZM90.6286 23.847H89.798H89.6901V16.7623H89.798H90.7364V23.847H90.6286ZM94.1454 22.144L92.4319 16.7623H91.4331H91.2811L93.6336 23.847H93.7098H94.5776H94.653L97.081 16.7623H96.0055H95.9289L94.1454 22.144ZM101.752 16.8765V17.7188V17.8331H98.8063V19.7784H101.463V19.8927V20.8309H98.8063V22.7762H101.752V22.8905V23.847H97.7596V16.7623H101.752V16.8765ZM106.686 23.847H102.946H102.838V16.7623H102.946H103.885V22.7762H106.686V22.8905V23.847ZM113.87 21.8551L110.868 16.7623H109.796H109.688V23.847H109.796H110.626H110.734V19.4605L110.708 18.4964L113.856 23.847H114.784H114.892V16.7623H113.952H113.844V20.8903L113.87 21.8551ZM116.815 20.3045C116.816 21.0785 117.044 21.6989 117.502 22.1922C117.963 22.6854 118.515 22.9273 119.183 22.9287C119.85 22.9273 120.403 22.6854 120.864 22.1922C121.322 21.6989 121.551 21.0785 121.552 20.3045C121.551 19.5305 121.322 18.9101 120.864 18.4168H120.863C120.403 17.9236 119.85 17.6817 119.183 17.6803C118.515 17.6817 117.963 17.9236 117.502 18.4168C117.044 18.9101 116.816 19.5305 116.815 20.3045ZM122.616 20.3045C122.617 21.332 122.286 22.2145 121.633 22.926C120.978 23.6406 120.153 24.0009 119.183 24C118.212 24.0009 117.386 23.6406 116.734 22.926V22.9264C116.078 22.2145 115.749 21.332 115.75 20.3045C115.749 19.277 116.078 18.3945 116.734 17.6826V17.683C117.386 16.9684 118.212 16.6073 119.183 16.6085C120.148 16.6073 120.972 16.9701 121.628 17.6875C122.285 18.4021 122.617 19.2828 122.616 20.3045Z" fill="black"/>
<defs>
<linearGradient id="paint0_linear" x1="27.6162" y1="27.5" x2="20.6162" y2="36" gradientUnits="userSpaceOnUse">
<stop stop-color="#00E2FF"/>
<stop offset="1" stop-color="#03C6F5"/>
</linearGradient>
<linearGradient id="paint1_linear" x1="33.4263" y1="44.7588" x2="14.4787" y2="26.5978" gradientUnits="userSpaceOnUse">
<stop stop-color="#00A0FF"/>
<stop offset="0.00657445" stop-color="#00A1FF"/>
<stop offset="0.2601" stop-color="#00BEFF"/>
<stop offset="0.5122" stop-color="#00D2FF"/>
<stop offset="0.7604" stop-color="#00DFFF"/>
<stop offset="1" stop-color="#00E3FF"/>
</linearGradient>
<linearGradient id="paint2_linear" x1="40.6162" y1="28" x2="30.1162" y2="28" gradientUnits="userSpaceOnUse">
<stop stop-color="#FFEA0D"/>
<stop offset="1" stop-color="#FFCF00"/>
</linearGradient>
<linearGradient id="paint3_linear" x1="46.3752" y1="32.0695" x2="22.5698" y2="32.0695" gradientUnits="userSpaceOnUse">
<stop stop-color="#FFE000"/>
<stop offset="0.4087" stop-color="#FFBD00"/>
<stop offset="0.7754" stop-color="#FFA500"/>
<stop offset="1" stop-color="#FF9C00"/>
</linearGradient>
<linearGradient id="paint4_linear" x1="30.6162" y1="32" x2="19.1162" y2="43.5" gradientUnits="userSpaceOnUse">
<stop stop-color="#F73547"/>
<stop offset="1" stop-color="#E22652"/>
</linearGradient>
<linearGradient id="paint5_linear" x1="36.8799" y1="43.5906" x2="12.9913" y2="19.4439" gradientUnits="userSpaceOnUse">
<stop stop-color="#FF3A44"/>
<stop offset="1" stop-color="#C31162"/>
</linearGradient>
<linearGradient id="paint6_linear" x1="36.6162" y1="27.5" x2="21.6162" y2="18" gradientUnits="userSpaceOnUse">
<stop stop-color="#2EF38F"/>
<stop offset="1" stop-color="#0EDE76"/>
</linearGradient>
<linearGradient id="paint7_linear" x1="18.2142" y1="38.8109" x2="28.8818" y2="28.0452" gradientUnits="userSpaceOnUse">
<stop stop-color="#32A071"/>
<stop offset="0.0685" stop-color="#2DA771"/>
<stop offset="0.4762" stop-color="#15CF74"/>
<stop offset="0.8009" stop-color="#06E775"/>
<stop offset="1" stop-color="#00F076"/>
</linearGradient>
</defs>
</svg>
