<svg width="18" height="14" viewBox="0 0 18 14" fill="none" xmlns="http://www.w3.org/2000/svg">
<g clip-path="url(#clip0_130_205)">
<g clip-path="url(#clip1_130_205)">
<mask id="mask0_130_205" style="mask-type:luminance" maskUnits="userSpaceOnUse" x="-3" y="-341" width="24" height="432">
<path d="M21 -341H-3V91H21V-341Z" fill="white"/>
</mask>
<g mask="url(#mask0_130_205)">
<path d="M16.7 13H1.3C1.1 13 1 13 1 13V1H17V13C17 13 16.9 13 16.7 13Z" fill="#FF4B55"/>
<path d="M13 8H5V6.14999C5 6.04999 5 6 5 6H13C13 6 13 6.4 13 6.5V8Z" fill="white"/>
<path d="M8 11V3H9.85C9.95 3 10 3 10 3V11C10 11 9.6 11 9.5 11H8Z" fill="white"/>
<path d="M17 1V13H1V1H17ZM17 0H1C0.4 0 0 0.4 0 1V13C0 13.6 0.4 14 1 14H17C17.6 14 18 13.6 18 13V1C18 0.4 17.6 0 17 0Z" fill="#B5B5B5"/>
</g>
</g>
</g>
<defs>
<clipPath id="clip0_130_205">
<rect width="18" height="14" fill="white"/>
</clipPath>
<clipPath id="clip1_130_205">
<rect width="24" height="432" fill="white" transform="translate(-3 -341)"/>
</clipPath>
</defs>
</svg>
