<svg width="18" height="14" viewBox="0 0 18 14" fill="none" xmlns="http://www.w3.org/2000/svg">
<g clip-path="url(#clip0_130_199)">
<mask id="mask0_130_199" style="mask-type:luminance" maskUnits="userSpaceOnUse" x="-3" y="-269" width="24" height="432">
<path d="M21 -269H-3V163H21V-269Z" fill="white"/>
</mask>
<g mask="url(#mask0_130_199)">
<path d="M1.1 12.8996L9 6.9996L1.1 1.09961C1 1.09961 1 1.19959 1 1.29959V12.6996C1 12.7996 1 12.8996 1.1 12.8996Z" fill="#41479B"/>
<path d="M1.10059 12.9C1.10059 12.9 1.20059 13 1.30059 13H16.7006C16.9006 13 17.0006 12.9 17.0006 12.7V7H9.00059L1.10059 12.9Z" fill="#FF4B55"/>
<path d="M1.10059 1.10001C1.10059 1.10001 1.20059 1 1.30059 1H16.7006C16.9006 1 17.0006 1.09999 17.0006 1.29999V7H9.00059L1.10059 1.10001Z" fill="#F5F5F5"/>
<path d="M17 1V13H1V1H17ZM17 0H1C0.4 0 0 0.4 0 1V13C0 13.6 0.4 14 1 14H17C17.6 14 18 13.6 18 13V1C18 0.4 17.6 0 17 0Z" fill="#B5B5B5"/>
</g>
</g>
<defs>
<clipPath id="clip0_130_199">
<rect width="18" height="14" fill="white"/>
</clipPath>
</defs>
</svg>
