<svg width="18" height="14" viewBox="0 0 18 14" fill="none" xmlns="http://www.w3.org/2000/svg">
<g clip-path="url(#clip0_130_178)">
<g clip-path="url(#clip1_130_178)">
<mask id="mask0_130_178" style="mask-type:luminance" maskUnits="userSpaceOnUse" x="-3" y="-5" width="24" height="432">
<path d="M21 -5H-3V427H21V-5Z" fill="white"/>
</mask>
<g mask="url(#mask0_130_178)">
<path d="M17 5H1V1.3C1 1.1 1.1 1 1.3 1H16.7C16.9 1 17 1.1 17 1.3V5Z" fill="#464655"/>
<path d="M16.7 13H1.3C1.1 13 1 12.9 1 12.7V9H17V12.7C17 12.9 16.9 13 16.7 13Z" fill="#FFE15A"/>
<path d="M17 5H1V9H17V5Z" fill="#FF4B55"/>
<path d="M17 1V13H1V1H17ZM17 0H1C0.4 0 0 0.4 0 1V13C0 13.6 0.4 14 1 14H17C17.6 14 18 13.6 18 13V1C18 0.4 17.6 0 17 0Z" fill="#B5B5B5"/>
</g>
</g>
</g>
<defs>
<clipPath id="clip0_130_178">
<rect width="18" height="14" fill="white"/>
</clipPath>
<clipPath id="clip1_130_178">
<rect width="24" height="432" fill="white" transform="translate(-3 -5)"/>
</clipPath>
</defs>
</svg>
