<svg width="18" height="14" viewBox="0 0 18 14" fill="none" xmlns="http://www.w3.org/2000/svg">
<g clip-path="url(#clip0_130_197)">
<g clip-path="url(#clip1_130_197)">
<mask id="mask0_130_197" style="mask-type:luminance" maskUnits="userSpaceOnUse" x="-3" y="-245" width="24" height="432">
<path d="M21 -245H-3V187H21V-245Z" fill="white"/>
</mask>
<g mask="url(#mask0_130_197)">
<path d="M17 7H1V1.3C1 1.1 1.1 1 1.3 1H16.7C16.9 1 17 1.1 17 1.3V7Z" fill="#FF4B55"/>
<path d="M1 7H17V12.7C17 12.9 16.9 13 16.7 13H1.3C1.1 13 1 12.9 1 12.7V7Z" fill="#F5F5F5"/>
<path d="M17 1V13H1V1H17ZM17 0H1C0.4 0 0 0.4 0 1V13C0 13.6 0.4 14 1 14H17C17.6 14 18 13.6 18 13V1C18 0.4 17.6 0 17 0Z" fill="#B5B5B5"/>
</g>
</g>
</g>
<defs>
<clipPath id="clip0_130_197">
<rect width="18" height="14" fill="white"/>
</clipPath>
<clipPath id="clip1_130_197">
<rect width="24" height="432" fill="white" transform="translate(-3 -245)"/>
</clipPath>
</defs>
</svg>
