<svg width="18" height="14" viewBox="0 0 18 14" fill="none" xmlns="http://www.w3.org/2000/svg">
<g clip-path="url(#clip0_130_185)">
<g clip-path="url(#clip1_130_185)">
<mask id="mask0_130_185" style="mask-type:luminance" maskUnits="userSpaceOnUse" x="-3" y="-101" width="24" height="432">
<path d="M21 -101H-3V331H21V-101Z" fill="white"/>
</mask>
<g mask="url(#mask0_130_185)">
<path d="M6 13H1.3C1.1 13 1 12.9 1 12.7V1.3C1 1.1 1.1 1 1.3 1H6V13Z" fill="#73AF00"/>
<path d="M12.0002 1H6.30029V13H12.0002V1Z" fill="#F5F5F5"/>
<path d="M17.1 13H12V1H17.1C17.3 1 17.4 1.1 17.4 1.3V12.7C17.3 12.9 17.2 13 17.1 13Z" fill="#FF4B55"/>
<path d="M17 1V13H1V1H17ZM17 0H1C0.4 0 0 0.4 0 1V13C0 13.6 0.4 14 1 14H17C17.6 14 18 13.6 18 13V1C18 0.4 17.6 0 17 0Z" fill="#B5B5B5"/>
</g>
</g>
</g>
<defs>
<clipPath id="clip0_130_185">
<rect width="18" height="14" fill="white"/>
</clipPath>
<clipPath id="clip1_130_185">
<rect width="24" height="432" fill="white" transform="translate(-3 -101)"/>
</clipPath>
</defs>
</svg>
