<svg width="18" height="14" viewBox="0 0 18 14" fill="none" xmlns="http://www.w3.org/2000/svg">
<g clip-path="url(#clip0_130_209)">
<g clip-path="url(#clip1_130_209)">
<mask id="mask0_130_209" style="mask-type:luminance" maskUnits="userSpaceOnUse" x="-3" y="-389" width="24" height="432">
<path d="M21 -389H-3V43H21V-389Z" fill="white"/>
</mask>
<g mask="url(#mask0_130_209)">
<path d="M17 9H1V4.89999C1 4.69999 1.1 4.5 1.3 4.5H16.7C16.9 4.5 17 4.69999 17 4.89999V9Z" fill="#F5F5F5"/>
<path d="M17 0.999023H1C1 0.999023 1.00002 1.26602 1.00002 1.44302V4.99902H17V1.44302C17 1.26602 17 0.999023 17 0.999023Z" fill="#FF4B55"/>
<path d="M17 13H1V9H17V13Z" fill="#41479B"/>
<path d="M17 1V13H1V1H17ZM17 0H1C0.4 0 0 0.4 0 1V13C0 13.6 0.4 14 1 14H17C17.6 14 18 13.6 18 13V1C18 0.4 17.6 0 17 0Z" fill="#B5B5B5"/>
</g>
</g>
</g>
<defs>
<clipPath id="clip0_130_209">
<rect width="18" height="14" fill="white"/>
</clipPath>
<clipPath id="clip1_130_209">
<rect width="24" height="432" fill="white" transform="translate(-3 -389)"/>
</clipPath>
</defs>
</svg>
