<svg width="18" height="14" viewBox="0 0 18 14" fill="none" xmlns="http://www.w3.org/2000/svg">
<g clip-path="url(#clip0_130_189)">
<g clip-path="url(#clip1_130_189)">
<mask id="mask0_130_189" style="mask-type:luminance" maskUnits="userSpaceOnUse" x="-3" y="-149" width="24" height="432">
<path d="M21 -149H-3V283H21V-149Z" fill="white"/>
</mask>
<g mask="url(#mask0_130_189)">
<path d="M17 5H1V0.899994C1 0.699994 1.1 0.5 1.3 0.5H16.7C16.9 0.5 17 0.699994 17 0.899994V5Z" fill="#F5F5F5"/>
<path d="M16.7 13.5H1.3C1.1 13.5 1 13.3 1 13.1V9H17V13.1C17 13.3 16.9 13.5 16.7 13.5Z" fill="#FF4B55"/>
<path d="M17 5H1V9H17V5Z" fill="#41479B"/>
<path d="M17 1V13H1V1H17ZM17 0H1C0.4 0 0 0.4 0 1V13C0 13.6 0.4 14 1 14H17C17.6 14 18 13.6 18 13V1C18 0.4 17.6 0 17 0Z" fill="#B5B5B5"/>
</g>
</g>
</g>
<defs>
<clipPath id="clip0_130_189">
<rect width="18" height="14" fill="white"/>
</clipPath>
<clipPath id="clip1_130_189">
<rect width="24" height="432" fill="white" transform="translate(-3 -149)"/>
</clipPath>
</defs>
</svg>
