<svg width="18" height="14" viewBox="0 0 18 14" fill="none" xmlns="http://www.w3.org/2000/svg">
<g clip-path="url(#clip0_130_201)">
<mask id="mask0_130_201" style="mask-type:luminance" maskUnits="userSpaceOnUse" x="-3" y="-293" width="24" height="432">
<path d="M21 -293H-3V139H21V-293Z" fill="white"/>
</mask>
<g mask="url(#mask0_130_201)">
<path d="M17 5H1V1.29901C1 1.09901 1.1 1 1.3 1H16.7C16.9 1 17 1.09901 17 1.29901V5Z" fill="#F5F5F5"/>
<path d="M16.7 13H1.3C1.1 13 1 12.9 1 12.7V9H17V12.7C17 12.9 16.9 13 16.7 13Z" fill="#FF4B55"/>
<path d="M17 5H1V9H17V5Z" fill="#41479B"/>
<path d="M4.9 10C4 9 3 8 3 7V4H7V7C7 8 5.1 9.9 5 10H4.9Z" fill="#FF4B55"/>
<path d="M6 6.5L5.36364 6.59299H5.18182V6.19901L5.36364 6.21799L5.81818 6.31201L5.72727 6.03101L5.81818 5.75L5.36364 5.84299H5.18182V5.65601L5.5 5H5H4.5L4.81818 5.65601V5.84299H4.72727L4.27273 5.75L4.36364 6.03101L4.27273 6.31201L4.72727 6.21799H4.81818V6.59299H4.63636L4 6.5L4.09091 6.78101L4 7.06201L4.63636 6.96799H4.81818L4.72727 8.203H5.26562L5.18182 6.96799H5.36364L6 7.06201L5.90909 6.78101L6 6.5Z" fill="#F5F5F5"/>
<path d="M5 8C4.5 8 4 8.5 4 9C4 9 4.14286 8.39999 4 8.39999C3.42857 8.39999 3 8.63999 3 8.95999C3.85714 9.59999 4.85714 10 4.85714 10H5.14286C5.14286 10 6.14286 9.59999 7 8.95999C7 8.63999 6.57143 8.39999 6 8.39999C6 8.39999 6.14286 9 6 9C6 8.5 5.42857 8 5 8Z" fill="#41479B"/>
<path d="M7 4V6.79999C7 7.99999 5 9 5 9C5 9 3 7.99999 3 6.79999V4H7ZM8 3H2V7C2 9.1 5 10 5 10.2C5 10 8 9.1 8 7V3Z" fill="#F5F5F5"/>
<path d="M17 1V13H1V1H17ZM17 0H1C0.4 0 0 0.4 0 1V13C0 13.6 0.4 14 1 14H17C17.6 14 18 13.6 18 13V1C18 0.4 17.6 0 17 0Z" fill="#B5B5B5"/>
</g>
</g>
<defs>
<clipPath id="clip0_130_201">
<rect width="18" height="14" fill="white"/>
</clipPath>
</defs>
</svg>
