<svg width="665" height="104" viewBox="0 0 665 104" fill="none" xmlns="http://www.w3.org/2000/svg">
<path fill-rule="evenodd" clip-rule="evenodd" d="M31 30.6053C31 29.1684 32.1605 28 33.5964 28H81.4036C82.8396 28 84 29.1684 84 30.6053V71.3947C84 72.8316 82.8396 74 81.4036 74H50.001V73H81.4036C82.2833 73 83 72.2833 83 71.3947V30.6053C83 29.7167 82.2833 29 81.4036 29H33.5964C32.7167 29 32 29.7167 32 30.6053V46.1043H31V30.6053Z" fill="#333333"/>
<path d="M66.085 51.7205H59.8773V51.0116C60.4235 50.9784 60.8751 50.9118 61.2322 50.812C61.5964 50.7121 61.7784 50.589 61.7784 50.4425C61.7784 50.3826 61.7714 50.3094 61.7574 50.2229C61.7434 50.1364 61.7224 50.0598 61.6944 49.9932L60.455 46.8183H55.2346C55.0385 47.2842 54.8775 47.6902 54.7514 48.0363C54.6324 48.3825 54.5239 48.702 54.4258 48.9948C54.3348 49.281 54.2718 49.514 54.2368 49.6937C54.2017 49.8734 54.1842 50.0199 54.1842 50.133C54.1842 50.3993 54.4048 50.6056 54.846 50.752C55.2871 50.8985 55.7843 50.985 56.3375 51.0116V51.7205H50.7285V51.0116C50.9106 50.9983 51.1382 50.9617 51.4113 50.9018C51.6844 50.8352 51.9084 50.7487 52.0835 50.6422C52.3636 50.4625 52.5807 50.2761 52.7347 50.0831C52.8888 49.8834 53.0393 49.6105 53.1864 49.2644C53.9357 47.4872 54.7619 45.4904 55.6653 43.2739C56.5686 41.0574 57.3739 39.0839 58.0811 37.3533H58.9214L63.8897 49.5739C63.9947 49.8335 64.1138 50.0432 64.2468 50.2029C64.3799 50.3627 64.5654 50.5191 64.8035 50.6722C64.9646 50.7654 65.1746 50.8452 65.4337 50.9118C65.6928 50.9717 65.9099 51.005 66.085 51.0116V51.7205ZM60.0768 45.9297L57.8185 40.4384L55.6022 45.9297H60.0768Z" fill="url(#paint0_linear_9083_124339)"/>
<path d="M72.9019 50.4026H72.8284C72.6743 50.5224 72.4887 50.6755 72.2717 50.8619C72.0616 51.0416 71.813 51.2146 71.5259 51.3811C71.2528 51.5475 70.9552 51.6906 70.6331 51.8104C70.311 51.9368 69.9608 52.0001 69.5827 52.0001C68.5673 52.0001 67.7691 51.654 67.1879 50.9617C66.6136 50.2695 66.3265 49.3243 66.3265 48.1262C66.3265 47.3008 66.4876 46.4988 66.8097 45.72C67.1318 44.9413 67.5765 44.2424 68.1437 43.6233C68.6829 43.0309 69.3236 42.555 70.0659 42.1956C70.8081 41.8295 71.5714 41.6465 72.3557 41.6465C72.8529 41.6465 73.3255 41.7097 73.7737 41.8362C74.2288 41.9626 74.586 42.1057 74.8451 42.2655L76.7673 41.7962L76.8933 41.946L75.2967 48.3858C75.2407 48.5921 75.1812 48.8451 75.1182 49.1446C75.0621 49.4375 75.0341 49.6538 75.0341 49.7936C75.0341 50.173 75.1182 50.4292 75.2862 50.5623C75.4543 50.6955 75.7379 50.762 76.137 50.762C76.2701 50.762 76.4591 50.7421 76.7042 50.7021C76.9493 50.6622 77.1384 50.6189 77.2714 50.5723L77.1139 51.2113C76.4837 51.4509 76.0145 51.624 75.7064 51.7305C75.3983 51.837 75.0236 51.8902 74.5825 51.8902C74.0783 51.8902 73.6792 51.7505 73.3851 51.4709C73.0909 51.1914 72.9299 50.8352 72.9019 50.4026ZM74.4039 44.0926C74.4039 43.8729 74.3794 43.6633 74.3304 43.4636C74.2814 43.2639 74.1798 43.0775 74.0258 42.9045C73.8857 42.7381 73.6932 42.605 73.4481 42.5051C73.203 42.4053 72.8949 42.3553 72.5237 42.3553C72.0126 42.3553 71.5154 42.5151 71.0322 42.8346C70.549 43.1541 70.1149 43.5834 69.7298 44.1225C69.3656 44.6284 69.068 45.2408 68.8369 45.9596C68.6059 46.6785 68.4903 47.4073 68.4903 48.1462C68.4903 48.5522 68.5148 48.9116 68.5638 49.2245C68.6129 49.5373 68.7074 49.8235 68.8474 50.0831C68.9805 50.336 69.1731 50.5324 69.4251 50.6722C69.6772 50.812 69.9958 50.8818 70.381 50.8818C70.7731 50.8818 71.1828 50.7787 71.6099 50.5723C72.0441 50.3593 72.5307 49.9899 73.0699 49.4641L74.4039 44.0926Z" fill="url(#paint1_linear_9083_124339)"/>
<path d="M50.9992 57.5017C50.9995 57.5017 50.9997 57.5017 51 57.5017L76.9935 57.5942C76.9929 57.5942 76.9931 57.5942 76.9941 57.5943L76.9944 57.5943C76.9965 57.5943 77.0014 57.5946 77.0087 57.5951C77.0241 57.5961 77.0489 57.5984 77.0798 57.6032C77.1442 57.6131 77.2217 57.6319 77.2926 57.6642C77.3628 57.6962 77.4108 57.7341 77.441 57.7752C77.467 57.8105 77.5 57.8746 77.5 58.0018V61.9814C77.4998 61.9829 77.4996 61.9846 77.4994 61.9865C77.4977 62.0013 77.4942 62.0257 77.4879 62.0562C77.4747 62.1195 77.4516 62.1972 77.4137 62.2694C77.3493 62.3922 77.2507 62.5017 77 62.5017H51C50.7493 62.5017 50.6507 62.3922 50.5863 62.2694C50.5484 62.1972 50.5253 62.1195 50.5121 62.0562C50.5058 62.0257 50.5023 62.0013 50.5006 61.9865C50.5004 61.9846 50.5002 61.983 50.5 61.9814L50.5009 58.022C50.5011 58.0204 50.5013 58.0187 50.5015 58.0167C50.5032 58.0019 50.5067 57.9775 50.513 57.9469C50.5261 57.8836 50.5492 57.8059 50.587 57.7338C50.6511 57.6113 50.7493 57.5019 50.9992 57.5017Z" fill="#D9F4FF" stroke="#333333"/>
<path fill-rule="evenodd" clip-rule="evenodd" d="M44 46V39L45 39V46H44Z" fill="#333333"/>
<path fill-rule="evenodd" clip-rule="evenodd" d="M47 39H42V38H47V39Z" fill="#333333"/>
<rect x="20.5" y="50.5" width="25" height="23" rx="2.5" fill="url(#paint2_linear_9083_124339)"/>
<rect x="20.5" y="50.5" width="25" height="23" rx="2.5" stroke="#333333"/>
<path d="M27 66.9688V64M34 66.9688V59.4375C34 57.625 32.8877 56 30.4907 56C28.0938 56 27 57.75 27 59.4375V64M27 64H34M38 56.1713V66.9688" stroke="white" stroke-width="2" stroke-linecap="round" stroke-linejoin="round"/>
<g clip-path="url(#clip0_9083_124339)">
<path d="M174.078 40.4701C175.798 40.8265 177.563 41.0557 179.335 41.1003C178.87 42.7061 178.491 44.2433 178.168 45.7165C177.904 46.9257 177.679 48.7884 177.479 50.5789C177.442 50.9164 177.405 51.2512 177.369 51.5793C177.211 53.0117 177.068 54.3143 176.93 55.1356C176.9 55.3115 176.87 55.4868 176.841 55.6614C175.957 60.9086 175.176 65.5411 172.501 69.6236C169.767 73.7963 165.007 77.4525 155.931 80.4748C147.053 77.6896 142.303 73.9475 139.56 69.7192C136.788 65.4448 136.022 60.6144 135.22 55.541C135.093 54.7349 134.962 53.5156 134.817 52.1628C134.77 51.7234 134.721 51.2699 134.671 50.8119C134.467 48.9641 134.232 47.0431 133.943 45.7739C133.608 44.3001 133.202 42.7666 132.689 41.1692C134.437 41.114 136.203 40.8626 137.938 40.4788C142.727 39.4193 147.32 37.342 150.705 35.5382C152.4 34.6351 153.797 33.7976 154.772 33.1854C155.259 32.8792 155.641 32.6292 155.902 32.4553C155.941 32.4289 155.978 32.4043 156.012 32.3815C156.044 32.4036 156.078 32.4273 156.114 32.4526C156.367 32.6285 156.739 32.8811 157.214 33.19C158.165 33.8079 159.534 34.6518 161.209 35.5591C164.555 37.3714 169.144 39.4474 174.078 40.4701Z" fill="url(#paint3_linear_9083_124339)" stroke="#333333"/>
<path fill-rule="evenodd" clip-rule="evenodd" d="M164.539 49.4147C165.277 50.1313 165.304 51.321 164.6 52.0717L154.984 63.2799C154.635 63.6514 154.153 63.8616 153.649 63.8616C153.145 63.8616 152.663 63.6514 152.314 63.2799L147.45 58.0894C146.747 57.3386 146.774 56.149 147.511 55.4323C148.248 54.7157 149.416 54.7433 150.12 55.4941L153.649 59.2605L161.931 49.4765C162.635 48.7257 163.802 48.698 164.539 49.4147Z" fill="white"/>
<path d="M165.999 22.7119C165.999 21.7522 166.768 21 167.711 21H193.286C194.247 21 194.999 21.7698 194.999 22.7119V48.2882C194.999 49.2468 194.229 50 193.286 50H167.711C166.751 50 165.999 49.2295 165.999 48.2882V22.7119Z" fill="white" stroke="#333333"/>
<path d="M189.294 36.7039C189.294 36.7039 189.442 36.6339 189.486 36.3956C189.486 36.3815 189.486 36.3675 189.486 36.3535L189.486 36.3114C189.471 36.0873 189.235 35.821 188.969 35.5548C188.658 35.2606 188.392 35.1204 188.392 35.1204C188.392 35.1204 188.259 34.5319 187.697 33.7194C187.15 32.9067 186.203 32.0522 185.685 32.3044C185.167 32.5566 185.626 33.2572 185.655 33.4675C185.699 33.6916 185.921 34.0559 185.847 34.0559C185.759 34.0419 184.635 32.0383 181.823 32.5992C181.098 32.7533 180.477 33.0478 179.973 33.4261L179.971 38.1062C180.149 37.938 180.223 37.8538 180.223 37.8538C180.223 37.8538 180.415 38.6946 180.77 39.073C181.125 39.4512 181.554 39.6754 181.687 39.395C181.82 39.1288 181.407 37.98 181.407 37.98C181.407 37.98 182.176 38.6804 182.398 38.8485C182.62 39.0165 183.049 39.2267 183.167 38.8484C183.271 38.4702 182.96 37.8958 182.709 37.7978C182.472 37.6996 182.324 37.6996 182.324 37.6996C182.324 37.6996 182.176 37.5175 182.102 37.4614C182.014 37.4053 181.999 37.4054 181.999 37.4054C181.999 37.4054 182.132 37.3353 182.546 37.3493C182.975 37.3632 183.316 37.3772 183.316 37.3772C183.316 37.3772 183.7 37.9095 183.937 38.0777C184.159 38.2598 184.735 38.6941 184.943 38.8761C185.135 39.0583 185.253 39.1424 185.327 38.9881C185.387 38.834 185.283 38.4277 185.017 38.1335C184.736 37.8533 184.44 37.6992 184.337 37.5591C184.248 37.391 184.189 37.2649 184.189 37.2649C184.189 37.2649 184.736 37.6431 184.869 37.7693C185.017 37.8813 185.993 38.4557 186.156 38.5537C186.319 38.6659 186.393 38.5957 186.393 38.5957C186.393 38.5957 186.511 38.6797 186.556 38.6238C186.6 38.5676 186.719 38.1894 186.408 37.9653C186.083 37.7271 185.89 37.615 185.92 37.587C185.935 37.5591 186.26 37.6571 186.304 37.5729C186.334 37.5029 186.29 37.3909 186.245 37.3628C186.216 37.3206 186.334 37.2366 186.334 37.2366C186.334 37.2366 186.453 37.2366 186.941 37.2786C187.429 37.3206 188.657 36.9282 188.909 36.844C189.16 36.7598 189.294 36.7039 189.294 36.7039ZM179.97 42.73C180.991 42.0995 181.036 40.5021 180.474 40.1939C180.311 40.0959 180.148 40.0259 179.971 39.9837L179.97 40.7124C180.015 40.7403 180.059 40.7826 180.089 40.8525C180.177 41.0207 180.133 41.2308 180.133 41.2308C180.133 41.2308 180.118 40.9646 180.015 40.8245C180 40.8105 179.985 40.7964 179.97 40.7824L179.97 42.73ZM179.973 33.4261C179.751 33.5804 179.559 33.7624 179.381 33.9446L179.379 38.5825C179.527 38.4985 179.661 38.4143 179.779 38.3023C179.853 38.2323 179.912 38.1621 179.972 38.1062L179.973 33.4261ZM179.378 42.9682C179.6 42.9263 179.807 42.8421 179.97 42.73L179.97 40.7824C179.882 40.6704 179.808 40.6002 179.808 40.6002C179.808 40.6002 179.882 40.6283 179.97 40.7124L179.971 39.9837C179.778 39.9278 179.571 39.8997 179.379 39.9418L179.378 41.1609C179.423 41.1328 179.497 41.1188 179.467 41.217C179.452 41.2731 179.408 41.2729 179.378 41.2731L179.378 41.9877C179.407 41.9877 179.452 41.9877 179.481 41.9736C179.481 41.9736 179.452 42.0017 179.378 42.0296L179.378 42.9682ZM179.381 33.9446C178.345 34.9816 177.886 36.2288 177.782 36.509C177.619 36.9434 176.568 38.5127 176.479 39.4375C176.405 40.3764 176.389 42.6603 178.638 42.9683C178.904 43.0104 179.156 43.0102 179.378 42.9681L179.378 42.0294C179.171 42.0854 178.712 42.1415 178.194 41.5812C177.499 40.8246 177.84 39.5915 178.388 39.1709C178.743 38.8907 179.083 38.7365 179.379 38.5823L179.381 33.9446ZM179.379 39.9417L179.378 41.1607C179.334 41.1888 179.304 41.1888 179.275 41.1467C179.245 41.2309 179.304 41.2728 179.378 41.2728L179.378 41.9873C178.905 42.0293 178.254 41.6371 178.417 41.0205C178.609 40.3202 178.965 40.0119 179.379 39.9417Z" fill="#2E75A3"/>
<path d="M182.262 26.0347L183.203 26.0012C183.707 25.9832 184.4 26.3188 184.36 26.9315L184.112 30.7412C184.081 31.2189 183.863 31.4717 183.464 31.4719L182.224 31.4722C181.719 31.4722 181.506 31.1692 181.471 30.6919L181.191 26.9322C181.156 26.4547 181.546 26.0603 182.262 26.0347Z" fill="#EDDF0E"/>
<path d="M174.788 28.6832L175.524 28.0683C175.918 27.7383 176.715 27.5789 177.115 28.1032L179.606 31.3637C179.918 31.7726 179.921 32.1144 179.598 32.3641L178.598 33.1389C178.19 33.4546 177.805 33.3402 177.439 32.9733L174.558 30.0836C174.192 29.7168 174.228 29.1516 174.788 28.6832Z" fill="#FD6600"/>
<path d="M171.271 35.4907L171.44 34.6063C171.531 34.1316 172.022 33.5505 172.638 33.7077L176.463 34.6853C176.943 34.8078 177.153 35.0603 177.067 35.4332L176.8 36.5905C176.691 37.0621 176.337 37.2008 175.843 37.1406L171.954 36.6657C171.46 36.6054 171.143 36.1643 171.271 35.4907Z" fill="#A4DC2D"/>
<path d="M171.871 41.7729L171.495 41.1565C171.294 40.8256 171.279 40.2428 171.739 40.0507L174.599 38.8557C174.958 38.706 175.222 38.7608 175.372 39.0278L175.835 39.856C176.023 40.1934 175.882 40.4435 175.549 40.6377L172.922 42.1676C172.589 42.3618 172.157 42.2423 171.871 41.7729Z" fill="#EF3E3E"/>
</g>
<path d="M278.505 28C278.505 26.6193 279.624 25.5 281.005 25.5H300.005C301.386 25.5 302.505 26.6193 302.505 28V47C302.505 48.3807 301.386 49.5 300.005 49.5H281.005C279.624 49.5 278.505 48.3807 278.505 47V28Z" stroke="#333333"/>
<path d="M286.005 31H296.005" stroke="#FF6F3D" stroke-width="2" stroke-linecap="round" stroke-linejoin="round"/>
<path d="M288.252 62.2442L295.173 65.993C295.519 66.1804 295.523 66.6758 295.179 66.8686L288.3 70.7325C287.967 70.9191 287.557 70.6803 287.555 70.2992L287.514 62.6865C287.512 62.3065 287.918 62.0632 288.252 62.2442Z" fill="url(#paint4_linear_9083_124339)" stroke="#333333" stroke-linecap="round" stroke-linejoin="round"/>
<rect x="278.505" y="54.5" width="24" height="24" rx="2.5" stroke="#333333"/>
<rect x="253.505" y="58.5" width="16" height="16" rx="0.5" stroke="#333333"/>
<rect x="253.505" y="58.5" width="16" height="4" rx="0.5" fill="#D9F4FF" stroke="#333333"/>
<rect x="249.505" y="54.5" width="24" height="24" rx="2.5" stroke="#333333"/>
<path d="M284.442 43.0901C284.445 43.083 284.449 43.0757 284.452 43.0684C284.524 42.8969 284.837 42.4893 285.425 42.5002C286.069 42.5122 286.394 42.84 286.463 42.9389L288.204 46.5H282.8L283.449 45.1535L284.442 43.0901Z" stroke="#333333" stroke-linecap="round" stroke-linejoin="round"/>
<path d="M290.784 39.3361C290.788 39.3272 290.791 39.3182 290.794 39.3091C290.869 39.0998 291.058 38.7565 291.365 38.4755C291.663 38.2024 292.059 37.9993 292.573 38.0107C293.686 38.0355 294.29 38.7427 294.435 39.0317L294.435 39.0328L298.193 46.5H287.759L290.784 39.3361Z" stroke="#333333" stroke-linecap="round" stroke-linejoin="round"/>
<circle cx="284.005" cy="38" r="1.5" fill="url(#paint5_linear_9083_124339)" stroke="#333333"/>
<rect x="249.505" y="25.5" width="24" height="24" rx="2.5" stroke="#333333"/>
<path fill-rule="evenodd" clip-rule="evenodd" d="M261.401 35.5C261.401 35.2239 261.625 35 261.901 35H269.505C269.781 35 270.005 35.2239 270.005 35.5C270.005 35.7761 269.781 36 269.505 36H261.901C261.625 36 261.401 35.7761 261.401 35.5ZM253.005 38.5186C253.005 38.2425 253.229 38.0186 253.505 38.0186H269.505C269.781 38.0186 270.005 38.2425 270.005 38.5186C270.005 38.7948 269.781 39.0186 269.505 39.0186H253.505C253.229 39.0186 253.005 38.7948 253.005 38.5186ZM253.005 41.5932C253.005 41.317 253.229 41.0932 253.505 41.0932H261.932C262.208 41.0932 262.432 41.317 262.432 41.5932C262.432 41.8693 262.208 42.0932 261.932 42.0932H253.505C253.229 42.0932 253.005 41.8693 253.005 41.5932ZM253.005 44.5C253.005 44.2239 253.229 44 253.505 44H260.224C260.5 44 260.724 44.2239 260.724 44.5C260.724 44.7761 260.5 45 260.224 45H253.505C253.229 45 253.005 44.7761 253.005 44.5ZM262.286 44.5C262.286 44.2239 262.51 44 262.786 44H269.505C269.781 44 270.005 44.2239 270.005 44.5C270.005 44.7761 269.781 45 269.505 45H262.786C262.51 45 262.286 44.7761 262.286 44.5Z" fill="#333333"/>
<path fill-rule="evenodd" clip-rule="evenodd" d="M253.505 35C253.229 35 253.005 35.2239 253.005 35.5C253.005 35.7761 253.229 36 253.505 36H259.505C259.781 36 260.005 35.7761 260.005 35.5C260.005 35.2239 259.781 35 259.505 35H253.505ZM264.505 41C264.229 41 264.005 41.2239 264.005 41.5C264.005 41.7761 264.229 42 264.505 42H269.505C269.781 42 270.005 41.7761 270.005 41.5C270.005 41.2239 269.781 41 269.505 41H264.505Z" fill="#FF6F3D"/>
<rect x="254.005" y="66" width="15" height="1" fill="#333333"/>
<rect x="254.005" y="70" width="15" height="1" fill="#333333"/>
<rect x="265.005" y="62" width="13" height="1" transform="rotate(90 265.005 62)" fill="#333333"/>
<rect x="260.005" y="62" width="13" height="1" transform="rotate(90 260.005 62)" fill="#333333"/>
<path d="M254.005 31H266.005" stroke="#333333" stroke-width="2" stroke-linecap="round" stroke-linejoin="round"/>
<path d="M414.507 32V61.5H361.507V32C361.507 31.1716 362.179 30.5 363.007 30.5H413.007C413.836 30.5 414.507 31.1716 414.507 32Z" fill="white" stroke="#333333" stroke-linecap="round" stroke-linejoin="round"/>
<path d="M381.507 75.5V68.5H394.507V75.5H381.507Z" fill="white" stroke="#333333" stroke-linecap="round" stroke-linejoin="round"/>
<path d="M361.507 67V61.5H414.507V67C414.507 68.3807 413.388 69.5 412.007 69.5H364.007C362.627 69.5 361.507 68.3807 361.507 67Z" fill="url(#paint6_linear_9083_124339)" stroke="#333333" stroke-miterlimit="10"/>
<path d="M387.507 67C388.336 67 389.007 66.3284 389.007 65.5C389.007 64.6716 388.336 64 387.507 64C386.679 64 386.007 64.6716 386.007 65.5C386.007 66.3284 386.679 67 387.507 67Z" fill="white"/>
<rect x="376.507" y="74.5" width="23" height="3" rx="1" fill="url(#paint7_linear_9083_124339)" stroke="#333333"/>
<rect x="369.007" y="30" width="40" height="1" fill="white"/>
<path d="M394.847 29.1273C395.24 29.0299 395.648 28.9819 396.066 28.9819C397.832 28.9819 399.39 29.868 400.388 31.221C400.827 31.1266 401.281 31.0762 401.744 31.0762C405.508 31.0762 408.507 34.337 408.507 38.2881C408.507 42.2388 405.514 45.5 401.744 45.5H391.919H391.919L376.196 45.4943C376.196 45.4943 376.196 45.4943 376.195 45.4943C372.471 45.4941 369.507 42.2675 369.507 38.3625C369.507 34.4573 372.471 31.2307 376.196 31.2307C376.662 31.2307 377.113 31.2814 377.553 31.3781C377.679 26.6141 381.599 23.9399 385.599 23.5505C389.457 23.1751 393.65 24.9009 394.847 29.1273Z" fill="#9ADAF3" stroke="#333333"/>
<g clip-path="url(#clip1_9083_124339)">
<path fill-rule="evenodd" clip-rule="evenodd" d="M484.351 24C483.055 24 482.003 25.0421 482.003 26.3276V69.6724C482.003 70.9579 483.055 72 484.351 72H515.656C516.952 72 518.003 70.9579 518.003 69.6724V35.5C518.003 34.8827 517.756 34.2907 517.316 33.8541L508.126 24.6817C507.686 24.2452 507.088 24 506.466 24H484.351Z" fill="white"/>
<path d="M507.361 24.6464C507.218 24.5034 507.003 24.4607 506.816 24.5381C506.629 24.6154 506.507 24.7978 506.507 25V33.182C506.507 33.8578 506.671 34.4574 507.081 34.8877C507.495 35.3225 508.079 35.5001 508.739 35.5001H517.007C517.21 35.5001 517.392 35.3783 517.469 35.1915C517.547 35.0046 517.504 34.7896 517.361 34.6466L507.361 24.6464Z" fill="url(#paint8_linear_9083_124339)" stroke="#333333" stroke-linecap="round" stroke-linejoin="round"/>
<path fill-rule="evenodd" clip-rule="evenodd" d="M516.612 34.5643L516.609 34.5619L507.422 25.3919L507.421 25.3906C507.368 25.3384 507.319 25.2887 507.276 25.2456L507.261 25.2295C507.212 25.1807 507.174 25.1426 507.14 25.1091C507.07 25.0411 507.039 25.018 507.026 25.0095C507.016 25.007 506.979 25 506.899 25H483.351C482.599 25 482.003 25.6025 482.003 26.3276V69.6724C482.003 70.3975 482.599 71 483.351 71H515.656C516.408 71 517.003 70.3975 517.003 69.6724V35.1093C517.003 35.0214 516.995 34.9827 516.992 34.9724C516.99 34.9666 516.99 34.9644 516.983 34.9542C516.972 34.9373 516.947 34.9031 516.883 34.8351C516.832 34.7819 516.779 34.7298 516.708 34.6592C516.679 34.631 516.647 34.5998 516.612 34.5643ZM508.126 24.6817L517.316 33.8541C517.344 33.8821 517.371 33.9091 517.398 33.9353C517.787 34.3182 518.003 34.5316 518.003 35.1093V69.6724C518.003 70.9579 516.952 72 515.656 72H483.351C482.055 72 481.003 70.9579 481.003 69.6724V26.3276C481.003 25.0421 482.055 24 483.351 24H506.899C507.452 24 507.643 24.1939 507.989 24.5436C508.032 24.5873 508.077 24.6333 508.126 24.6817Z" fill="#333333"/>
<path d="M497.007 43H513.007V44H497.007V43Z" fill="#333333"/>
<path d="M497.007 46H513.007V47H497.007V46Z" fill="#333333"/>
<path d="M497.007 49H513.007V50H497.007V49Z" fill="#333333"/>
<path d="M497.007 43H498.007V49H497.007V46V43Z" fill="#333333"/>
<path d="M512.007 43H513.007V49H512.007V43Z" fill="#333333"/>
<path d="M507.007 43H508.007V49H507.007V43Z" fill="#333333"/>
<path d="M497.007 43H498.007V49H497.007V46V43Z" fill="#333333"/>
<path d="M502.007 43H503.007V49H502.007V43Z" fill="#333333"/>
<path d="M487.007 35.9998H503.007V36.9998H488.007L487.007 35.9998Z" fill="#333333"/>
<path d="M487.007 29.9998H502.007V31.9998H487.007V29.9998Z" fill="#333333"/>
<path d="M490.007 38.9998H506.007V39.9998H491.007L490.007 38.9998Z" fill="#333333"/>
<path fill-rule="evenodd" clip-rule="evenodd" d="M468.35 36.0343C467.83 35.5144 467.854 34.6481 468.403 34.0995L472.074 30.4325C472.623 29.8839 473.49 29.8606 474.01 30.3806L490.364 46.7363C490.527 46.8995 490.839 47.1047 490.896 47.3318L491.918 52.2195C492.171 53.235 491.205 54.2 490.189 53.9464L485.3 52.849C485.073 52.7923 484.867 52.5532 484.704 52.39L468.35 36.0343Z" fill="url(#paint9_linear_9083_124339)"/>
<path fill-rule="evenodd" clip-rule="evenodd" d="M485.011 52.3901C485.011 52.3901 485.355 52.1483 485.904 51.5996L489.575 47.9328C490.124 47.3841 490.512 47 490.512 47C490.676 47.1632 490.841 47.105 490.897 47.332L491.92 52.2196C492.173 53.2351 491.207 54.2001 490.191 53.9465L485.301 52.8491C485.074 52.7924 485.175 52.5534 485.011 52.3901Z" fill="white"/>
<path fill-rule="evenodd" clip-rule="evenodd" d="M485.3 51.6108L469.084 35.5623C468.824 35.3024 468.809 34.9945 469.084 34.7202L472.708 31.1112C472.983 30.8368 473.155 30.8512 473.415 31.1112L489.733 47.3319C489.815 47.4135 489.907 47.8043 489.935 47.9179L491.027 52.3901C491.153 52.8979 490.698 53.091 490.19 52.9642L485.508 51.7762C485.394 51.7478 485.382 51.6924 485.3 51.6108ZM468.349 36.0344C467.829 35.5144 467.853 34.6482 468.402 34.0995L472.073 30.4326C472.623 29.884 473.489 29.8607 474.009 30.3806L490.365 46.7364C490.528 46.8996 490.84 47.1048 490.896 47.3319L491.919 52.2196C492.172 53.2351 491.206 54.2001 490.19 53.9465L485.3 52.8491C485.073 52.7924 484.868 52.5534 484.705 52.3901L468.349 36.0344Z" fill="#333333"/>
<path d="M474.008 36.7065L487.717 50.4155L488.424 49.7088L474.715 35.9998L474.008 36.7065Z" fill="white"/>
<path fill-rule="evenodd" clip-rule="evenodd" d="M489.896 47.5116L485.358 51.9744L486.041 52.67L490.58 48.2216L489.896 47.5116Z" fill="#333333"/>
<path fill-rule="evenodd" clip-rule="evenodd" d="M476.284 33.0086L471.016 38.2584L471.713 38.9721L476.975 33.7135L476.284 33.0086Z" fill="#333333"/>
<path fill-rule="evenodd" clip-rule="evenodd" d="M490.708 50.6843L488.713 52.8281L490.71 53.4998L491.512 52.4998L490.708 50.6843Z" fill="#333333"/>
<path d="M490.577 66.7863C490.577 72.4271 495.075 76.9999 500.624 76.9999C506.173 76.9999 510.671 72.4271 510.671 66.7863C510.671 61.1455 506.173 56.5728 500.624 56.5728C495.075 56.5728 490.577 61.1455 490.577 66.7863Z" fill="white"/>
<path d="M500.224 56C505.006 56.0015 510.886 59.5873 511.005 66.3871C511.06 69.5133 510.212 72.3581 507.943 74.2265C507.794 74.0999 507.056 73.9488 506.879 73.8546L503.831 72.2296C503.431 72.0163 503.182 71.6067 503.182 71.1614V69.9406C503.182 69.9406 504.077 68.8946 504.418 67.4414C504.701 67.2624 504.891 66.9531 504.891 66.6008V65.2647C504.891 64.9708 504.757 64.7082 504.549 64.5243V62.5929C504.549 62.5929 504.955 59.5873 500.791 59.5873C496.626 59.5873 497.032 62.5929 497.032 62.5929V64.5243C496.824 64.7082 496.69 64.9708 496.69 65.2647V66.6008C496.69 67.0499 496.999 67.4278 497.417 67.554C497.65 68.2628 497.987 68.9383 498.432 69.5525C498.544 69.7074 498.649 69.8385 498.741 69.9406V71.1923C498.741 71.6531 498.474 72.0747 498.053 72.2804L494.662 73.7073C494.466 73.803 493.576 74.1983 493.413 74.3328C491.369 72.2557 490.007 70.0972 490.007 66.8851C490.007 60.44 495.524 55.9985 500.224 56Z" fill="url(#paint10_linear_9083_124339)"/>
<path d="M500.624 77.4999C494.791 77.4999 490.077 72.6955 490.077 66.7863C490.077 60.8771 494.791 56.0728 500.624 56.0728C506.457 56.0728 511.171 60.8771 511.171 66.7863C511.171 72.6955 506.457 77.4999 500.624 77.4999Z" stroke="#333333"/>
<path d="M500.577 66.7863C500.577 72.4271 505.075 76.9999 510.624 76.9999C516.173 76.9999 520.671 72.4271 520.671 66.7863C520.671 61.1455 516.173 56.5728 510.624 56.5728C505.075 56.5728 500.577 61.1455 500.577 66.7863Z" fill="white"/>
<path d="M510.224 56C515.006 56.0015 520.886 59.5873 521.005 66.3871C521.06 69.5133 520.212 72.3581 517.943 74.2265C517.794 74.0999 517.056 73.9488 516.879 73.8546L513.831 72.2296C513.431 72.0163 513.182 71.6067 513.182 71.1614V69.9406C513.182 69.9406 514.077 68.8946 514.418 67.4414C514.701 67.2624 514.891 66.9531 514.891 66.6008V65.2647C514.891 64.9708 514.757 64.7082 514.549 64.5243V62.5929C514.549 62.5929 514.955 59.5873 510.791 59.5873C506.626 59.5873 507.032 62.5929 507.032 62.5929V64.5243C506.824 64.7082 506.69 64.9708 506.69 65.2647V66.6008C506.69 67.0499 506.999 67.4278 507.417 67.554C507.65 68.2628 507.987 68.9383 508.432 69.5525C508.544 69.7074 508.649 69.8385 508.741 69.9406V71.1923C508.741 71.6531 508.474 72.0747 508.053 72.2804L504.662 73.7073C504.466 73.803 503.576 74.1983 503.413 74.3328C501.369 72.2557 500.007 70.0972 500.007 66.8851C500.007 60.44 505.524 55.9985 510.224 56Z" fill="#9ADAF3"/>
<path d="M510.624 77.4999C504.791 77.4999 500.077 72.6955 500.077 66.7863C500.077 60.8771 504.791 56.0728 510.624 56.0728C516.457 56.0728 521.171 60.8771 521.171 66.7863C521.171 72.6955 516.457 77.4999 510.624 77.4999Z" stroke="#333333"/>
<path d="M510.577 66.7863C510.577 72.4271 515.075 76.9999 520.624 76.9999C526.173 76.9999 530.671 72.4271 530.671 66.7863C530.671 61.1455 526.173 56.5728 520.624 56.5728C515.075 56.5728 510.577 61.1455 510.577 66.7863Z" fill="white"/>
<path d="M520.224 56C525.006 56.0015 530.886 59.5873 531.005 66.3871C531.06 69.5133 530.212 72.3581 527.943 74.2265C527.794 74.0999 527.056 73.9488 526.879 73.8546L523.831 72.2296C523.431 72.0163 523.182 71.6067 523.182 71.1614V69.9406C523.182 69.9406 524.077 68.8946 524.418 67.4414C524.701 67.2624 524.891 66.9531 524.891 66.6008V65.2647C524.891 64.9708 524.757 64.7082 524.549 64.5243V62.5929C524.549 62.5929 524.955 59.5873 520.791 59.5873C516.626 59.5873 517.032 62.5929 517.032 62.5929V64.5243C516.824 64.7082 516.69 64.9708 516.69 65.2647V66.6008C516.69 67.0499 516.999 67.4278 517.417 67.554C517.65 68.2628 517.987 68.9383 518.432 69.5525C518.544 69.7074 518.649 69.8385 518.741 69.9406V71.1923C518.741 71.6531 518.474 72.0747 518.053 72.2804L514.662 73.7073C514.466 73.803 513.576 74.1983 513.413 74.3328C511.369 72.2557 510.007 70.0972 510.007 66.8851C510.007 60.44 515.524 55.9985 520.224 56Z" fill="url(#paint11_linear_9083_124339)"/>
<path d="M520.624 77.4999C514.791 77.4999 510.077 72.6955 510.077 66.7863C510.077 60.8771 514.791 56.0728 520.624 56.0728C526.457 56.0728 531.171 60.8771 531.171 66.7863C531.171 72.6955 526.457 77.4999 520.624 77.4999Z" stroke="#333333"/>
</g>
<g clip-path="url(#clip2_9083_124339)">
<path fill-rule="evenodd" clip-rule="evenodd" d="M595.415 28.5624C595.163 28.922 595.026 29.4423 595.026 30.0244V72.148C595.026 73.2821 595.742 74.0001 596.403 74.0001H598.526C598.803 74.0001 599.026 74.2239 599.026 74.5001C599.026 74.7762 598.803 75.0001 598.526 75.0001H596.403C594.991 75.0001 594.026 73.6119 594.026 72.148V30.0244C594.026 29.3074 594.191 28.5656 594.597 27.9877C595.018 27.3885 595.677 27 596.556 27H598.526C598.803 27 599.026 27.2239 599.026 27.5C599.026 27.7761 598.803 28 598.526 28H596.556C596.009 28 595.653 28.2242 595.415 28.5624Z" fill="#333333"/>
<path fill-rule="evenodd" clip-rule="evenodd" d="M589.399 28.5624C589.146 28.922 589.01 29.4423 589.01 30.0244V72.1479C589.01 73.282 589.726 74 590.386 74H592.51C592.786 74 593.01 74.2239 593.01 74.5C593.01 74.7761 592.786 75 592.51 75H590.386C588.974 75 588.01 73.6118 588.01 72.1479V30.0244C588.01 29.3074 588.175 28.5656 588.58 27.9877C589.001 27.3885 589.66 27 590.54 27H592.51C592.786 27 593.01 27.2239 593.01 27.5C593.01 27.7761 592.786 28 592.51 28H590.54C589.993 28 589.636 28.2242 589.399 28.5624Z" fill="#333333"/>
<path fill-rule="evenodd" clip-rule="evenodd" d="M602.355 27C601.058 27 600.007 28.0421 600.007 29.3276V72.6724C600.007 73.9579 601.058 75 602.355 75H633.659C634.956 75 636.007 73.9579 636.007 72.6724V38.5C636.007 37.8827 635.759 37.2907 635.319 36.8541L626.129 27.6817C625.689 27.2452 625.092 27 624.469 27H602.355Z" fill="white"/>
<path d="M625.363 27.6464C625.22 27.5034 625.005 27.4607 624.818 27.5381C624.632 27.6154 624.51 27.7978 624.51 28V36.182C624.51 36.8578 624.673 37.4574 625.083 37.8877C625.497 38.3225 626.082 38.5001 626.741 38.5001H635.01C635.212 38.5001 635.394 38.3783 635.472 38.1915C635.549 38.0046 635.506 37.7896 635.363 37.6466L625.363 27.6464Z" fill="url(#paint12_linear_9083_124339)" stroke="#333333" stroke-linecap="round" stroke-linejoin="round"/>
<path fill-rule="evenodd" clip-rule="evenodd" d="M634.615 37.5643L634.613 37.5619L625.425 28.3919L625.424 28.3906C625.371 28.3384 625.322 28.2887 625.28 28.2456L625.264 28.2295C625.216 28.1807 625.178 28.1426 625.143 28.1091C625.073 28.0411 625.042 28.018 625.03 28.0095C625.019 28.007 624.982 28 624.902 28H602.355C601.602 28 601.007 28.6025 601.007 29.3276V72.6724C601.007 73.3975 601.602 74 602.355 74H633.659C634.412 74 635.007 73.3975 635.007 72.6724V38.1093C635.007 38.0214 634.998 37.9827 634.995 37.9724C634.994 37.9666 634.993 37.9644 634.987 37.9542C634.976 37.9373 634.951 37.9031 634.886 37.8351C634.836 37.7819 634.783 37.7298 634.711 37.6592C634.683 37.631 634.651 37.5998 634.615 37.5643ZM626.129 27.6817L635.319 36.8541C635.347 36.8821 635.375 36.9091 635.401 36.9353C635.79 37.3182 636.007 37.5316 636.007 38.1093V72.6724C636.007 73.9579 634.956 75 633.659 75H602.355C601.058 75 600.007 73.9579 600.007 72.6724V29.3276C600.007 28.0421 601.058 27 602.355 27H624.902C625.456 27 625.647 27.1939 625.992 27.5436C626.035 27.5873 626.08 27.6333 626.129 27.6817Z" fill="#333333"/>
<rect x="580.51" y="57.5" width="37" height="18" rx="1.5" fill="url(#paint13_linear_9083_124339)" stroke="#333333"/>
<path d="M586.931 71H585.01V62H590.287V63.5636H586.931V65.8844H590.054V67.4419H586.931V71Z" fill="white"/>
<path d="M594.04 65.9952H594.67C595.287 65.9952 595.743 65.8947 596.037 65.6936C596.331 65.4925 596.478 65.1765 596.478 64.7456C596.478 64.3187 596.327 64.015 596.024 63.8345C595.726 63.6539 595.262 63.5636 594.632 63.5636H594.04V65.9952ZM594.04 67.5465V71H592.088V62H594.771C596.022 62 596.948 62.2237 597.548 62.671C598.149 63.1142 598.449 63.7893 598.449 64.6963C598.449 65.2257 598.3 65.6977 598.002 66.1122C597.704 66.5226 597.282 66.8447 596.736 67.0787C598.121 69.1019 599.024 70.409 599.444 71H597.277L595.08 67.5465H594.04Z" fill="white"/>
<path d="M605.905 71H600.603V62H605.905V63.5636H602.555V65.5397H605.672V67.1033H602.555V69.4241H605.905V71Z" fill="white"/>
<path d="M613.135 71H607.832V62H613.135V63.5636H609.784V65.5397H612.902V67.1033H609.784V69.4241H613.135V71Z" fill="white"/>
</g>
<defs>
<linearGradient id="paint0_linear_9083_124339" x1="50.7286" y1="36.7811" x2="62.8721" y2="59.6472" gradientUnits="userSpaceOnUse">
<stop stop-color="#FF8E3D"/>
<stop offset="1" stop-color="#FF6F3D"/>
</linearGradient>
<linearGradient id="paint1_linear_9083_124339" x1="50.7286" y1="36.7811" x2="62.8721" y2="59.6472" gradientUnits="userSpaceOnUse">
<stop stop-color="#FF8E3D"/>
<stop offset="1" stop-color="#FF6F3D"/>
</linearGradient>
<linearGradient id="paint2_linear_9083_124339" x1="20.0001" y1="49.0625" x2="43.8504" y2="75.9097" gradientUnits="userSpaceOnUse">
<stop stop-color="#FF8E3D"/>
<stop offset="1" stop-color="#FF6F3D"/>
</linearGradient>
<linearGradient id="paint3_linear_9083_124339" x1="169.335" y1="75.1141" x2="134.017" y2="39.3801" gradientUnits="userSpaceOnUse">
<stop stop-color="#FF6F3D"/>
<stop offset="1" stop-color="#FF8E3D"/>
</linearGradient>
<linearGradient id="paint4_linear_9083_124339" x1="287.005" y1="60.5703" x2="297.995" y2="70.9517" gradientUnits="userSpaceOnUse">
<stop stop-color="#FF8E3D"/>
<stop offset="1" stop-color="#FF6F3D"/>
</linearGradient>
<linearGradient id="paint5_linear_9083_124339" x1="282.005" y1="35.8437" x2="286.005" y2="40" gradientUnits="userSpaceOnUse">
<stop stop-color="#FF8E3D"/>
<stop offset="1" stop-color="#FF6F3D"/>
</linearGradient>
<linearGradient id="paint6_linear_9083_124339" x1="361.007" y1="60.6484" x2="363.824" y2="78.2098" gradientUnits="userSpaceOnUse">
<stop stop-color="#FFC671"/>
<stop offset="0.59375" stop-color="#FF7541"/>
<stop offset="1" stop-color="#FF6F3D"/>
</linearGradient>
<linearGradient id="paint7_linear_9083_124339" x1="376.007" y1="73.8437" x2="377.259" y2="81.6488" gradientUnits="userSpaceOnUse">
<stop stop-color="#FFC671"/>
<stop offset="0.59375" stop-color="#FF7541"/>
<stop offset="1" stop-color="#FF6F3D"/>
</linearGradient>
<linearGradient id="paint8_linear_9083_124339" x1="507.007" y1="24.6094" x2="517.007" y2="35" gradientUnits="userSpaceOnUse">
<stop stop-color="#FFC671"/>
<stop offset="0.59375" stop-color="#FF7541"/>
<stop offset="1" stop-color="#FF6F3D"/>
</linearGradient>
<linearGradient id="paint9_linear_9083_124339" x1="467.185" y1="35.3166" x2="480.576" y2="27.3928" gradientUnits="userSpaceOnUse">
<stop stop-color="#FF8E3D"/>
<stop offset="1" stop-color="#FF6F3D"/>
</linearGradient>
<linearGradient id="paint10_linear_9083_124339" x1="500.507" y1="56" x2="500.507" y2="74.3328" gradientUnits="userSpaceOnUse">
<stop stop-color="#FF8E3D"/>
<stop offset="1" stop-color="#FF6F3D"/>
</linearGradient>
<linearGradient id="paint11_linear_9083_124339" x1="520.507" y1="56" x2="520.507" y2="74.3328" gradientUnits="userSpaceOnUse">
<stop stop-color="#FF8E3D"/>
<stop offset="1" stop-color="#FF6F3D"/>
</linearGradient>
<linearGradient id="paint12_linear_9083_124339" x1="625.01" y1="27.6094" x2="635.01" y2="38" gradientUnits="userSpaceOnUse">
<stop stop-color="#FFC671"/>
<stop offset="0.59375" stop-color="#FF7541"/>
<stop offset="1" stop-color="#FF6F3D"/>
</linearGradient>
<linearGradient id="paint13_linear_9083_124339" x1="581.01" y1="57.3359" x2="593.826" y2="85.5363" gradientUnits="userSpaceOnUse">
<stop stop-color="#FF8E3D"/>
<stop offset="1" stop-color="#FF6F3D"/>
</linearGradient>
<clipPath id="clip0_9083_124339">
<rect width="64.0024" height="64" fill="white" transform="translate(132.002 20)"/>
</clipPath>
<clipPath id="clip1_9083_124339">
<rect width="64.0024" height="64" fill="white" transform="translate(468.007 20)"/>
</clipPath>
<clipPath id="clip2_9083_124339">
<rect width="64.0024" height="64" fill="white" transform="translate(580.01 20)"/>
</clipPath>
</defs>
</svg>
