<svg width="40" height="194" viewBox="0 0 40 194" fill="none" xmlns="http://www.w3.org/2000/svg">
<g opacity="0.5">
<path d="M24 2C24 2.55228 24.4477 3 25 3C25.5523 3 26 2.55228 26 2C26 1.44772 25.5523 1 25 1C24.4477 1 24 1.44772 24 2Z" fill="#CCCCCC"/>
<path d="M12 7C12 7.55228 12.4477 8 13 8C13.5523 8 14 7.55228 14 7C14 6.44772 13.5523 6 13 6C12.4477 6 12 6.44772 12 7Z" fill="#CCCCCC"/>
<path d="M20 4C20 4.55228 20.4477 5 21 5C21.5523 5 22 4.55228 22 4C22 3.44772 21.5523 3 21 3C20.4477 3 20 3.44772 20 4Z" fill="#CCCCCC"/>
<path d="M16 6C16 6.55228 16.4477 7 17 7C17.5523 7 18 6.55228 18 6C18 5.44772 17.5523 5 17 5C16.4477 5 16 5.44772 16 6Z" fill="#CCCCCC"/>
<path d="M8 7C8 7.55228 8.44772 8 9 8C9.55228 8 10 7.55228 10 7C10 6.44772 9.55228 6 9 6C8.44772 6 8 6.44772 8 7Z" fill="#CCCCCC"/>
<path d="M4 6C4 6.55228 4.44772 7 5 7C5.55228 7 6 6.55228 6 6C6 5.44772 5.55228 5 5 5C4.44772 5 4 5.44772 4 6Z" fill="#CCCCCC"/>
<path d="M28 1C28 0.447715 28.4477 0 29 0C29.5523 0 30 0.447715 30 1C30 1.55228 29.5523 2 29 2C28.4477 2 28 1.55228 28 1Z" fill="#CCCCCC"/>
<path d="M36 2C36 1.44772 36.4477 1 37 1C37.5523 1 38 1.44772 38 2C38 2.55228 37.5523 3 37 3C36.4477 3 36 2.55228 36 2Z" fill="#CCCCCC"/>
<path d="M32 1C32 0.447715 32.4477 0 33 0C33.5523 0 34 0.447715 34 1C34 1.55228 33.5523 2 33 2C32.4477 2 32 1.55228 32 1Z" fill="#CCCCCC"/>
<path d="M0 4C0 4.55228 0.447715 5 1 5C1.55228 5 2 4.55228 2 4C2 3.44772 1.55228 3 1 3C0.447715 3 0 3.44772 0 4Z" fill="#CCCCCC"/>
<path d="M24 14C24 14.5523 24.4477 15 25 15C25.5523 15 26 14.5523 26 14C26 13.4477 25.5523 13 25 13C24.4477 13 24 13.4477 24 14Z" fill="#CCCCCC"/>
<path d="M12 19C12 19.5523 12.4477 20 13 20C13.5523 20 14 19.5523 14 19C14 18.4477 13.5523 18 13 18C12.4477 18 12 18.4477 12 19Z" fill="#CCCCCC"/>
<path d="M20 16C20 16.5523 20.4477 17 21 17C21.5523 17 22 16.5523 22 16C22 15.4477 21.5523 15 21 15C20.4477 15 20 15.4477 20 16Z" fill="#CCCCCC"/>
<path d="M16 18C16 18.5523 16.4477 19 17 19C17.5523 19 18 18.5523 18 18C18 17.4477 17.5523 17 17 17C16.4477 17 16 17.4477 16 18Z" fill="#CCCCCC"/>
<path d="M8 19C8 19.5523 8.44772 20 9 20C9.55228 20 10 19.5523 10 19C10 18.4477 9.55228 18 9 18C8.44772 18 8 18.4477 8 19Z" fill="#CCCCCC"/>
<path d="M4 18C4 18.5523 4.44772 19 5 19C5.55228 19 6 18.5523 6 18C6 17.4477 5.55228 17 5 17C4.44772 17 4 17.4477 4 18Z" fill="#CCCCCC"/>
<path d="M28 13C28 12.4477 28.4477 12 29 12C29.5523 12 30 12.4477 30 13C30 13.5523 29.5523 14 29 14C28.4477 14 28 13.5523 28 13Z" fill="#CCCCCC"/>
<path d="M36 14C36 13.4477 36.4477 13 37 13C37.5523 13 38 13.4477 38 14C38 14.5523 37.5523 15 37 15C36.4477 15 36 14.5523 36 14Z" fill="#CCCCCC"/>
<path d="M32 13C32 12.4477 32.4477 12 33 12C33.5523 12 34 12.4477 34 13C34 13.5523 33.5523 14 33 14C32.4477 14 32 13.5523 32 13Z" fill="#CCCCCC"/>
<path d="M0 16C0 16.5523 0.447715 17 1 17C1.55228 17 2 16.5523 2 16C2 15.4477 1.55228 15 1 15C0.447715 15 0 15.4477 0 16Z" fill="#CCCCCC"/>
<path d="M24 26C24 26.5523 24.4477 27 25 27C25.5523 27 26 26.5523 26 26C26 25.4477 25.5523 25 25 25C24.4477 25 24 25.4477 24 26Z" fill="#CCCCCC"/>
<path d="M12 31C12 31.5523 12.4477 32 13 32C13.5523 32 14 31.5523 14 31C14 30.4477 13.5523 30 13 30C12.4477 30 12 30.4477 12 31Z" fill="#CCCCCC"/>
<path d="M20 28C20 28.5523 20.4477 29 21 29C21.5523 29 22 28.5523 22 28C22 27.4477 21.5523 27 21 27C20.4477 27 20 27.4477 20 28Z" fill="#CCCCCC"/>
<path d="M16 30C16 30.5523 16.4477 31 17 31C17.5523 31 18 30.5523 18 30C18 29.4477 17.5523 29 17 29C16.4477 29 16 29.4477 16 30Z" fill="#CCCCCC"/>
<path d="M8 31C8 31.5523 8.44772 32 9 32C9.55228 32 10 31.5523 10 31C10 30.4477 9.55228 30 9 30C8.44772 30 8 30.4477 8 31Z" fill="#CCCCCC"/>
<path d="M4 30C4 30.5523 4.44772 31 5 31C5.55228 31 6 30.5523 6 30C6 29.4477 5.55228 29 5 29C4.44772 29 4 29.4477 4 30Z" fill="#CCCCCC"/>
<path d="M28 25C28 24.4477 28.4477 24 29 24C29.5523 24 30 24.4477 30 25C30 25.5523 29.5523 26 29 26C28.4477 26 28 25.5523 28 25Z" fill="#CCCCCC"/>
<path d="M36 26C36 25.4477 36.4477 25 37 25C37.5523 25 38 25.4477 38 26C38 26.5523 37.5523 27 37 27C36.4477 27 36 26.5523 36 26Z" fill="#CCCCCC"/>
<path d="M32 25C32 24.4477 32.4477 24 33 24C33.5523 24 34 24.4477 34 25C34 25.5523 33.5523 26 33 26C32.4477 26 32 25.5523 32 25Z" fill="#CCCCCC"/>
<path d="M0 28C0 28.5523 0.447715 29 1 29C1.55228 29 2 28.5523 2 28C2 27.4477 1.55228 27 1 27C0.447715 27 0 27.4477 0 28Z" fill="#CCCCCC"/>
<path d="M24 38C24 38.5523 24.4477 39 25 39C25.5523 39 26 38.5523 26 38C26 37.4477 25.5523 37 25 37C24.4477 37 24 37.4477 24 38Z" fill="#CCCCCC"/>
<path d="M12 43C12 43.5523 12.4477 44 13 44C13.5523 44 14 43.5523 14 43C14 42.4477 13.5523 42 13 42C12.4477 42 12 42.4477 12 43Z" fill="#CCCCCC"/>
<path d="M20 40C20 40.5523 20.4477 41 21 41C21.5523 41 22 40.5523 22 40C22 39.4477 21.5523 39 21 39C20.4477 39 20 39.4477 20 40Z" fill="#CCCCCC"/>
<path d="M16 42C16 42.5523 16.4477 43 17 43C17.5523 43 18 42.5523 18 42C18 41.4477 17.5523 41 17 41C16.4477 41 16 41.4477 16 42Z" fill="#CCCCCC"/>
<path d="M8 43C8 43.5523 8.44772 44 9 44C9.55228 44 10 43.5523 10 43C10 42.4477 9.55228 42 9 42C8.44772 42 8 42.4477 8 43Z" fill="#CCCCCC"/>
<path d="M4 42C4 42.5523 4.44772 43 5 43C5.55228 43 6 42.5523 6 42C6 41.4477 5.55228 41 5 41C4.44772 41 4 41.4477 4 42Z" fill="#CCCCCC"/>
<path d="M28 37C28 36.4477 28.4477 36 29 36C29.5523 36 30 36.4477 30 37C30 37.5523 29.5523 38 29 38C28.4477 38 28 37.5523 28 37Z" fill="#CCCCCC"/>
<path d="M36 38C36 37.4477 36.4477 37 37 37C37.5523 37 38 37.4477 38 38C38 38.5523 37.5523 39 37 39C36.4477 39 36 38.5523 36 38Z" fill="#CCCCCC"/>
<path d="M32 37C32 36.4477 32.4477 36 33 36C33.5523 36 34 36.4477 34 37C34 37.5523 33.5523 38 33 38C32.4477 38 32 37.5523 32 37Z" fill="#CCCCCC"/>
<path d="M0 40C0 40.5523 0.447715 41 1 41C1.55228 41 2 40.5523 2 40C2 39.4477 1.55228 39 1 39C0.447715 39 0 39.4477 0 40Z" fill="#CCCCCC"/>
<path d="M24 50C24 50.5523 24.4477 51 25 51C25.5523 51 26 50.5523 26 50C26 49.4477 25.5523 49 25 49C24.4477 49 24 49.4477 24 50Z" fill="#CCCCCC"/>
<path d="M12 55C12 55.5523 12.4477 56 13 56C13.5523 56 14 55.5523 14 55C14 54.4477 13.5523 54 13 54C12.4477 54 12 54.4477 12 55Z" fill="#CCCCCC"/>
<path d="M20 52C20 52.5523 20.4477 53 21 53C21.5523 53 22 52.5523 22 52C22 51.4477 21.5523 51 21 51C20.4477 51 20 51.4477 20 52Z" fill="#CCCCCC"/>
<path d="M16 54C16 54.5523 16.4477 55 17 55C17.5523 55 18 54.5523 18 54C18 53.4477 17.5523 53 17 53C16.4477 53 16 53.4477 16 54Z" fill="#CCCCCC"/>
<path d="M8 55C8 55.5523 8.44772 56 9 56C9.55228 56 10 55.5523 10 55C10 54.4477 9.55228 54 9 54C8.44772 54 8 54.4477 8 55Z" fill="#CCCCCC"/>
<path d="M4 54C4 54.5523 4.44772 55 5 55C5.55228 55 6 54.5523 6 54C6 53.4477 5.55228 53 5 53C4.44772 53 4 53.4477 4 54Z" fill="#CCCCCC"/>
<path d="M28 49C28 48.4477 28.4477 48 29 48C29.5523 48 30 48.4477 30 49C30 49.5523 29.5523 50 29 50C28.4477 50 28 49.5523 28 49Z" fill="#CCCCCC"/>
<path d="M36 50C36 49.4477 36.4477 49 37 49C37.5523 49 38 49.4477 38 50C38 50.5523 37.5523 51 37 51C36.4477 51 36 50.5523 36 50Z" fill="#CCCCCC"/>
<path d="M32 49C32 48.4477 32.4477 48 33 48C33.5523 48 34 48.4477 34 49C34 49.5523 33.5523 50 33 50C32.4477 50 32 49.5523 32 49Z" fill="#CCCCCC"/>
<path d="M0 52C0 52.5523 0.447715 53 1 53C1.55228 53 2 52.5523 2 52C2 51.4477 1.55228 51 1 51C0.447715 51 0 51.4477 0 52Z" fill="#CCCCCC"/>
<path d="M24 62C24 62.5523 24.4477 63 25 63C25.5523 63 26 62.5523 26 62C26 61.4477 25.5523 61 25 61C24.4477 61 24 61.4477 24 62Z" fill="#CCCCCC"/>
<path d="M12 67C12 67.5523 12.4477 68 13 68C13.5523 68 14 67.5523 14 67C14 66.4477 13.5523 66 13 66C12.4477 66 12 66.4477 12 67Z" fill="#CCCCCC"/>
<path d="M20 64C20 64.5523 20.4477 65 21 65C21.5523 65 22 64.5523 22 64C22 63.4477 21.5523 63 21 63C20.4477 63 20 63.4477 20 64Z" fill="#CCCCCC"/>
<path d="M16 66C16 66.5523 16.4477 67 17 67C17.5523 67 18 66.5523 18 66C18 65.4477 17.5523 65 17 65C16.4477 65 16 65.4477 16 66Z" fill="#CCCCCC"/>
<path d="M8 67C8 67.5523 8.44772 68 9 68C9.55228 68 10 67.5523 10 67C10 66.4477 9.55228 66 9 66C8.44772 66 8 66.4477 8 67Z" fill="#CCCCCC"/>
<path d="M4 66C4 66.5523 4.44772 67 5 67C5.55228 67 6 66.5523 6 66C6 65.4477 5.55228 65 5 65C4.44772 65 4 65.4477 4 66Z" fill="#CCCCCC"/>
<path d="M28 61C28 60.4477 28.4477 60 29 60C29.5523 60 30 60.4477 30 61C30 61.5523 29.5523 62 29 62C28.4477 62 28 61.5523 28 61Z" fill="#CCCCCC"/>
<path d="M36 62C36 61.4477 36.4477 61 37 61C37.5523 61 38 61.4477 38 62C38 62.5523 37.5523 63 37 63C36.4477 63 36 62.5523 36 62Z" fill="#CCCCCC"/>
<path d="M32 61C32 60.4477 32.4477 60 33 60C33.5523 60 34 60.4477 34 61C34 61.5523 33.5523 62 33 62C32.4477 62 32 61.5523 32 61Z" fill="#CCCCCC"/>
<path d="M0 64C0 64.5523 0.447715 65 1 65C1.55228 65 2 64.5523 2 64C2 63.4477 1.55228 63 1 63C0.447715 63 0 63.4477 0 64Z" fill="#CCCCCC"/>
<path d="M24 74C24 74.5523 24.4477 75 25 75C25.5523 75 26 74.5523 26 74C26 73.4477 25.5523 73 25 73C24.4477 73 24 73.4477 24 74Z" fill="#CCCCCC"/>
<path d="M12 79C12 79.5523 12.4477 80 13 80C13.5523 80 14 79.5523 14 79C14 78.4477 13.5523 78 13 78C12.4477 78 12 78.4477 12 79Z" fill="#CCCCCC"/>
<path d="M20 76C20 76.5523 20.4477 77 21 77C21.5523 77 22 76.5523 22 76C22 75.4477 21.5523 75 21 75C20.4477 75 20 75.4477 20 76Z" fill="#CCCCCC"/>
<path d="M16 78C16 78.5523 16.4477 79 17 79C17.5523 79 18 78.5523 18 78C18 77.4477 17.5523 77 17 77C16.4477 77 16 77.4477 16 78Z" fill="#CCCCCC"/>
<path d="M8 79C8 79.5523 8.44772 80 9 80C9.55228 80 10 79.5523 10 79C10 78.4477 9.55228 78 9 78C8.44772 78 8 78.4477 8 79Z" fill="#CCCCCC"/>
<path d="M4 78C4 78.5523 4.44772 79 5 79C5.55228 79 6 78.5523 6 78C6 77.4477 5.55228 77 5 77C4.44772 77 4 77.4477 4 78Z" fill="#CCCCCC"/>
<path d="M28 73C28 72.4477 28.4477 72 29 72C29.5523 72 30 72.4477 30 73C30 73.5523 29.5523 74 29 74C28.4477 74 28 73.5523 28 73Z" fill="#CCCCCC"/>
<path d="M36 74C36 73.4477 36.4477 73 37 73C37.5523 73 38 73.4477 38 74C38 74.5523 37.5523 75 37 75C36.4477 75 36 74.5523 36 74Z" fill="#CCCCCC"/>
<path d="M32 73C32 72.4477 32.4477 72 33 72C33.5523 72 34 72.4477 34 73C34 73.5523 33.5523 74 33 74C32.4477 74 32 73.5523 32 73Z" fill="#CCCCCC"/>
<path d="M0 76C0 76.5523 0.447715 77 1 77C1.55228 77 2 76.5523 2 76C2 75.4477 1.55228 75 1 75C0.447715 75 0 75.4477 0 76Z" fill="#CCCCCC"/>
<path d="M24 86C24 86.5523 24.4477 87 25 87C25.5523 87 26 86.5523 26 86C26 85.4477 25.5523 85 25 85C24.4477 85 24 85.4477 24 86Z" fill="#CCCCCC"/>
<path d="M12 91C12 91.5523 12.4477 92 13 92C13.5523 92 14 91.5523 14 91C14 90.4477 13.5523 90 13 90C12.4477 90 12 90.4477 12 91Z" fill="#CCCCCC"/>
<path d="M20 88C20 88.5523 20.4477 89 21 89C21.5523 89 22 88.5523 22 88C22 87.4477 21.5523 87 21 87C20.4477 87 20 87.4477 20 88Z" fill="#CCCCCC"/>
<path d="M16 90C16 90.5523 16.4477 91 17 91C17.5523 91 18 90.5523 18 90C18 89.4477 17.5523 89 17 89C16.4477 89 16 89.4477 16 90Z" fill="#CCCCCC"/>
<path d="M8 91C8 91.5523 8.44772 92 9 92C9.55228 92 10 91.5523 10 91C10 90.4477 9.55228 90 9 90C8.44772 90 8 90.4477 8 91Z" fill="#CCCCCC"/>
<path d="M4 90C4 90.5523 4.44772 91 5 91C5.55228 91 6 90.5523 6 90C6 89.4477 5.55228 89 5 89C4.44772 89 4 89.4477 4 90Z" fill="#CCCCCC"/>
<path d="M28 85C28 84.4477 28.4477 84 29 84C29.5523 84 30 84.4477 30 85C30 85.5523 29.5523 86 29 86C28.4477 86 28 85.5523 28 85Z" fill="#CCCCCC"/>
<path d="M36 86C36 85.4477 36.4477 85 37 85C37.5523 85 38 85.4477 38 86C38 86.5523 37.5523 87 37 87C36.4477 87 36 86.5523 36 86Z" fill="#CCCCCC"/>
<path d="M32 85C32 84.4477 32.4477 84 33 84C33.5523 84 34 84.4477 34 85C34 85.5523 33.5523 86 33 86C32.4477 86 32 85.5523 32 85Z" fill="#CCCCCC"/>
<path d="M0 88C0 88.5523 0.447715 89 1 89C1.55228 89 2 88.5523 2 88C2 87.4477 1.55228 87 1 87C0.447715 87 0 87.4477 0 88Z" fill="#CCCCCC"/>
<path d="M24 98C24 98.5523 24.4477 99 25 99C25.5523 99 26 98.5523 26 98C26 97.4477 25.5523 97 25 97C24.4477 97 24 97.4477 24 98Z" fill="#CCCCCC"/>
<path d="M12 103C12 103.552 12.4477 104 13 104C13.5523 104 14 103.552 14 103C14 102.448 13.5523 102 13 102C12.4477 102 12 102.448 12 103Z" fill="#CCCCCC"/>
<path d="M20 100C20 100.552 20.4477 101 21 101C21.5523 101 22 100.552 22 100C22 99.4477 21.5523 99 21 99C20.4477 99 20 99.4477 20 100Z" fill="#CCCCCC"/>
<path d="M16 102C16 102.552 16.4477 103 17 103C17.5523 103 18 102.552 18 102C18 101.448 17.5523 101 17 101C16.4477 101 16 101.448 16 102Z" fill="#CCCCCC"/>
<path d="M8 103C8 103.552 8.44772 104 9 104C9.55228 104 10 103.552 10 103C10 102.448 9.55228 102 9 102C8.44772 102 8 102.448 8 103Z" fill="#CCCCCC"/>
<path d="M4 102C4 102.552 4.44772 103 5 103C5.55228 103 6 102.552 6 102C6 101.448 5.55228 101 5 101C4.44772 101 4 101.448 4 102Z" fill="#CCCCCC"/>
<path d="M28 97C28 96.4477 28.4477 96 29 96C29.5523 96 30 96.4477 30 97C30 97.5523 29.5523 98 29 98C28.4477 98 28 97.5523 28 97Z" fill="#CCCCCC"/>
<path d="M36 98C36 97.4477 36.4477 97 37 97C37.5523 97 38 97.4477 38 98C38 98.5523 37.5523 99 37 99C36.4477 99 36 98.5523 36 98Z" fill="#CCCCCC"/>
<path d="M32 97C32 96.4477 32.4477 96 33 96C33.5523 96 34 96.4477 34 97C34 97.5523 33.5523 98 33 98C32.4477 98 32 97.5523 32 97Z" fill="#CCCCCC"/>
<path d="M0 100C0 100.552 0.447715 101 1 101C1.55228 101 2 100.552 2 100C2 99.4477 1.55228 99 1 99C0.447715 99 0 99.4477 0 100Z" fill="#CCCCCC"/>
<path d="M24 110C24 110.552 24.4477 111 25 111C25.5523 111 26 110.552 26 110C26 109.448 25.5523 109 25 109C24.4477 109 24 109.448 24 110Z" fill="#CCCCCC"/>
<path d="M12 115C12 115.552 12.4477 116 13 116C13.5523 116 14 115.552 14 115C14 114.448 13.5523 114 13 114C12.4477 114 12 114.448 12 115Z" fill="#CCCCCC"/>
<path d="M20 112C20 112.552 20.4477 113 21 113C21.5523 113 22 112.552 22 112C22 111.448 21.5523 111 21 111C20.4477 111 20 111.448 20 112Z" fill="#CCCCCC"/>
<path d="M16 114C16 114.552 16.4477 115 17 115C17.5523 115 18 114.552 18 114C18 113.448 17.5523 113 17 113C16.4477 113 16 113.448 16 114Z" fill="#CCCCCC"/>
<path d="M8 115C8 115.552 8.44772 116 9 116C9.55228 116 10 115.552 10 115C10 114.448 9.55228 114 9 114C8.44772 114 8 114.448 8 115Z" fill="#CCCCCC"/>
<path d="M4 114C4 114.552 4.44772 115 5 115C5.55228 115 6 114.552 6 114C6 113.448 5.55228 113 5 113C4.44772 113 4 113.448 4 114Z" fill="#CCCCCC"/>
<path d="M28 109C28 108.448 28.4477 108 29 108C29.5523 108 30 108.448 30 109C30 109.552 29.5523 110 29 110C28.4477 110 28 109.552 28 109Z" fill="#CCCCCC"/>
<path d="M36 110C36 109.448 36.4477 109 37 109C37.5523 109 38 109.448 38 110C38 110.552 37.5523 111 37 111C36.4477 111 36 110.552 36 110Z" fill="#CCCCCC"/>
<path d="M32 109C32 108.448 32.4477 108 33 108C33.5523 108 34 108.448 34 109C34 109.552 33.5523 110 33 110C32.4477 110 32 109.552 32 109Z" fill="#CCCCCC"/>
<path d="M0 112C0 112.552 0.447715 113 1 113C1.55228 113 2 112.552 2 112C2 111.448 1.55228 111 1 111C0.447715 111 0 111.448 0 112Z" fill="#CCCCCC"/>
<path d="M24 122C24 122.552 24.4477 123 25 123C25.5523 123 26 122.552 26 122C26 121.448 25.5523 121 25 121C24.4477 121 24 121.448 24 122Z" fill="#CCCCCC"/>
<path d="M12 127C12 127.552 12.4477 128 13 128C13.5523 128 14 127.552 14 127C14 126.448 13.5523 126 13 126C12.4477 126 12 126.448 12 127Z" fill="#CCCCCC"/>
<path d="M20 124C20 124.552 20.4477 125 21 125C21.5523 125 22 124.552 22 124C22 123.448 21.5523 123 21 123C20.4477 123 20 123.448 20 124Z" fill="#CCCCCC"/>
<path d="M16 126C16 126.552 16.4477 127 17 127C17.5523 127 18 126.552 18 126C18 125.448 17.5523 125 17 125C16.4477 125 16 125.448 16 126Z" fill="#CCCCCC"/>
<path d="M8 127C8 127.552 8.44772 128 9 128C9.55228 128 10 127.552 10 127C10 126.448 9.55228 126 9 126C8.44772 126 8 126.448 8 127Z" fill="#CCCCCC"/>
<path d="M4 126C4 126.552 4.44772 127 5 127C5.55228 127 6 126.552 6 126C6 125.448 5.55228 125 5 125C4.44772 125 4 125.448 4 126Z" fill="#CCCCCC"/>
<path d="M28 121C28 120.448 28.4477 120 29 120C29.5523 120 30 120.448 30 121C30 121.552 29.5523 122 29 122C28.4477 122 28 121.552 28 121Z" fill="#CCCCCC"/>
<path d="M36 122C36 121.448 36.4477 121 37 121C37.5523 121 38 121.448 38 122C38 122.552 37.5523 123 37 123C36.4477 123 36 122.552 36 122Z" fill="#CCCCCC"/>
<path d="M32 121C32 120.448 32.4477 120 33 120C33.5523 120 34 120.448 34 121C34 121.552 33.5523 122 33 122C32.4477 122 32 121.552 32 121Z" fill="#CCCCCC"/>
<path d="M0 124C0 124.552 0.447715 125 1 125C1.55228 125 2 124.552 2 124C2 123.448 1.55228 123 1 123C0.447715 123 0 123.448 0 124Z" fill="#CCCCCC"/>
<path d="M24 134C24 134.552 24.4477 135 25 135C25.5523 135 26 134.552 26 134C26 133.448 25.5523 133 25 133C24.4477 133 24 133.448 24 134Z" fill="#CCCCCC"/>
<path d="M12 139C12 139.552 12.4477 140 13 140C13.5523 140 14 139.552 14 139C14 138.448 13.5523 138 13 138C12.4477 138 12 138.448 12 139Z" fill="#CCCCCC"/>
<path d="M20 136C20 136.552 20.4477 137 21 137C21.5523 137 22 136.552 22 136C22 135.448 21.5523 135 21 135C20.4477 135 20 135.448 20 136Z" fill="#CCCCCC"/>
<path d="M16 138C16 138.552 16.4477 139 17 139C17.5523 139 18 138.552 18 138C18 137.448 17.5523 137 17 137C16.4477 137 16 137.448 16 138Z" fill="#CCCCCC"/>
<path d="M8 139C8 139.552 8.44772 140 9 140C9.55228 140 10 139.552 10 139C10 138.448 9.55228 138 9 138C8.44772 138 8 138.448 8 139Z" fill="#CCCCCC"/>
<path d="M4 138C4 138.552 4.44772 139 5 139C5.55228 139 6 138.552 6 138C6 137.448 5.55228 137 5 137C4.44772 137 4 137.448 4 138Z" fill="#CCCCCC"/>
<path d="M28 133C28 132.448 28.4477 132 29 132C29.5523 132 30 132.448 30 133C30 133.552 29.5523 134 29 134C28.4477 134 28 133.552 28 133Z" fill="#CCCCCC"/>
<path d="M36 134C36 133.448 36.4477 133 37 133C37.5523 133 38 133.448 38 134C38 134.552 37.5523 135 37 135C36.4477 135 36 134.552 36 134Z" fill="#CCCCCC"/>
<path d="M32 133C32 132.448 32.4477 132 33 132C33.5523 132 34 132.448 34 133C34 133.552 33.5523 134 33 134C32.4477 134 32 133.552 32 133Z" fill="#CCCCCC"/>
<path d="M0 136C0 136.552 0.447715 137 1 137C1.55228 137 2 136.552 2 136C2 135.448 1.55228 135 1 135C0.447715 135 0 135.448 0 136Z" fill="#CCCCCC"/>
<path d="M24 146C24 146.552 24.4477 147 25 147C25.5523 147 26 146.552 26 146C26 145.448 25.5523 145 25 145C24.4477 145 24 145.448 24 146Z" fill="#CCCCCC"/>
<path d="M12 151C12 151.552 12.4477 152 13 152C13.5523 152 14 151.552 14 151C14 150.448 13.5523 150 13 150C12.4477 150 12 150.448 12 151Z" fill="#CCCCCC"/>
<path d="M20 148C20 148.552 20.4477 149 21 149C21.5523 149 22 148.552 22 148C22 147.448 21.5523 147 21 147C20.4477 147 20 147.448 20 148Z" fill="#CCCCCC"/>
<path d="M16 150C16 150.552 16.4477 151 17 151C17.5523 151 18 150.552 18 150C18 149.448 17.5523 149 17 149C16.4477 149 16 149.448 16 150Z" fill="#CCCCCC"/>
<path d="M8 151C8 151.552 8.44772 152 9 152C9.55228 152 10 151.552 10 151C10 150.448 9.55228 150 9 150C8.44772 150 8 150.448 8 151Z" fill="#CCCCCC"/>
<path d="M4 150C4 150.552 4.44772 151 5 151C5.55228 151 6 150.552 6 150C6 149.448 5.55228 149 5 149C4.44772 149 4 149.448 4 150Z" fill="#CCCCCC"/>
<path d="M28 145C28 144.448 28.4477 144 29 144C29.5523 144 30 144.448 30 145C30 145.552 29.5523 146 29 146C28.4477 146 28 145.552 28 145Z" fill="#CCCCCC"/>
<path d="M36 146C36 145.448 36.4477 145 37 145C37.5523 145 38 145.448 38 146C38 146.552 37.5523 147 37 147C36.4477 147 36 146.552 36 146Z" fill="#CCCCCC"/>
<path d="M32 145C32 144.448 32.4477 144 33 144C33.5523 144 34 144.448 34 145C34 145.552 33.5523 146 33 146C32.4477 146 32 145.552 32 145Z" fill="#CCCCCC"/>
<path d="M0 148C0 148.552 0.447715 149 1 149C1.55228 149 2 148.552 2 148C2 147.448 1.55228 147 1 147C0.447715 147 0 147.448 0 148Z" fill="#CCCCCC"/>
<path d="M24 158C24 158.552 24.4477 159 25 159C25.5523 159 26 158.552 26 158C26 157.448 25.5523 157 25 157C24.4477 157 24 157.448 24 158Z" fill="#CCCCCC"/>
<path d="M12 163C12 163.552 12.4477 164 13 164C13.5523 164 14 163.552 14 163C14 162.448 13.5523 162 13 162C12.4477 162 12 162.448 12 163Z" fill="#CCCCCC"/>
<path d="M20 160C20 160.552 20.4477 161 21 161C21.5523 161 22 160.552 22 160C22 159.448 21.5523 159 21 159C20.4477 159 20 159.448 20 160Z" fill="#CCCCCC"/>
<path d="M16 162C16 162.552 16.4477 163 17 163C17.5523 163 18 162.552 18 162C18 161.448 17.5523 161 17 161C16.4477 161 16 161.448 16 162Z" fill="#CCCCCC"/>
<path d="M8 163C8 163.552 8.44772 164 9 164C9.55228 164 10 163.552 10 163C10 162.448 9.55228 162 9 162C8.44772 162 8 162.448 8 163Z" fill="#CCCCCC"/>
<path d="M4 162C4 162.552 4.44772 163 5 163C5.55228 163 6 162.552 6 162C6 161.448 5.55228 161 5 161C4.44772 161 4 161.448 4 162Z" fill="#CCCCCC"/>
<path d="M28 157C28 156.448 28.4477 156 29 156C29.5523 156 30 156.448 30 157C30 157.552 29.5523 158 29 158C28.4477 158 28 157.552 28 157Z" fill="#CCCCCC"/>
<path d="M36 158C36 157.448 36.4477 157 37 157C37.5523 157 38 157.448 38 158C38 158.552 37.5523 159 37 159C36.4477 159 36 158.552 36 158Z" fill="#CCCCCC"/>
<path d="M32 157C32 156.448 32.4477 156 33 156C33.5523 156 34 156.448 34 157C34 157.552 33.5523 158 33 158C32.4477 158 32 157.552 32 157Z" fill="#CCCCCC"/>
<path d="M0 160C0 160.552 0.447715 161 1 161C1.55228 161 2 160.552 2 160C2 159.448 1.55228 159 1 159C0.447715 159 0 159.448 0 160Z" fill="#CCCCCC"/>
<path d="M24 170C24 170.552 24.4477 171 25 171C25.5523 171 26 170.552 26 170C26 169.448 25.5523 169 25 169C24.4477 169 24 169.448 24 170Z" fill="#CCCCCC"/>
<path d="M12 175C12 175.552 12.4477 176 13 176C13.5523 176 14 175.552 14 175C14 174.448 13.5523 174 13 174C12.4477 174 12 174.448 12 175Z" fill="#CCCCCC"/>
<path d="M20 172C20 172.552 20.4477 173 21 173C21.5523 173 22 172.552 22 172C22 171.448 21.5523 171 21 171C20.4477 171 20 171.448 20 172Z" fill="#CCCCCC"/>
<path d="M16 174C16 174.552 16.4477 175 17 175C17.5523 175 18 174.552 18 174C18 173.448 17.5523 173 17 173C16.4477 173 16 173.448 16 174Z" fill="#CCCCCC"/>
<path d="M8 175C8 175.552 8.44772 176 9 176C9.55228 176 10 175.552 10 175C10 174.448 9.55228 174 9 174C8.44772 174 8 174.448 8 175Z" fill="#CCCCCC"/>
<path d="M4 174C4 174.552 4.44772 175 5 175C5.55228 175 6 174.552 6 174C6 173.448 5.55228 173 5 173C4.44772 173 4 173.448 4 174Z" fill="#CCCCCC"/>
<path d="M28 169C28 168.448 28.4477 168 29 168C29.5523 168 30 168.448 30 169C30 169.552 29.5523 170 29 170C28.4477 170 28 169.552 28 169Z" fill="#CCCCCC"/>
<path d="M36 170C36 169.448 36.4477 169 37 169C37.5523 169 38 169.448 38 170C38 170.552 37.5523 171 37 171C36.4477 171 36 170.552 36 170Z" fill="#CCCCCC"/>
<path d="M32 169C32 168.448 32.4477 168 33 168C33.5523 168 34 168.448 34 169C34 169.552 33.5523 170 33 170C32.4477 170 32 169.552 32 169Z" fill="#CCCCCC"/>
<path d="M0 172C0 172.552 0.447715 173 1 173C1.55228 173 2 172.552 2 172C2 171.448 1.55228 171 1 171C0.447715 171 0 171.448 0 172Z" fill="#CCCCCC"/>
<path d="M24 182C24 182.552 24.4477 183 25 183C25.5523 183 26 182.552 26 182C26 181.448 25.5523 181 25 181C24.4477 181 24 181.448 24 182Z" fill="#CCCCCC"/>
<path d="M12 187C12 187.552 12.4477 188 13 188C13.5523 188 14 187.552 14 187C14 186.448 13.5523 186 13 186C12.4477 186 12 186.448 12 187Z" fill="#CCCCCC"/>
<path d="M20 184C20 184.552 20.4477 185 21 185C21.5523 185 22 184.552 22 184C22 183.448 21.5523 183 21 183C20.4477 183 20 183.448 20 184Z" fill="#CCCCCC"/>
<path d="M16 186C16 186.552 16.4477 187 17 187C17.5523 187 18 186.552 18 186C18 185.448 17.5523 185 17 185C16.4477 185 16 185.448 16 186Z" fill="#CCCCCC"/>
<path d="M8 187C8 187.552 8.44772 188 9 188C9.55228 188 10 187.552 10 187C10 186.448 9.55228 186 9 186C8.44772 186 8 186.448 8 187Z" fill="#CCCCCC"/>
<path d="M4 186C4 186.552 4.44772 187 5 187C5.55228 187 6 186.552 6 186C6 185.448 5.55228 185 5 185C4.44772 185 4 185.448 4 186Z" fill="#CCCCCC"/>
<path d="M28 181C28 180.448 28.4477 180 29 180C29.5523 180 30 180.448 30 181C30 181.552 29.5523 182 29 182C28.4477 182 28 181.552 28 181Z" fill="#CCCCCC"/>
<path d="M36 182C36 181.448 36.4477 181 37 181C37.5523 181 38 181.448 38 182C38 182.552 37.5523 183 37 183C36.4477 183 36 182.552 36 182Z" fill="#CCCCCC"/>
<path d="M32 181C32 180.448 32.4477 180 33 180C33.5523 180 34 180.448 34 181C34 181.552 33.5523 182 33 182C32.4477 182 32 181.552 32 181Z" fill="#CCCCCC"/>
<path d="M0 184C0 184.552 0.447715 185 1 185C1.55228 185 2 184.552 2 184C2 183.448 1.55228 183 1 183C0.447715 183 0 183.448 0 184Z" fill="#CCCCCC"/>
</g>
<path d="M24 8C24 8.55228 24.4477 9 25 9C25.5523 9 26 8.55228 26 8C26 7.44772 25.5523 7 25 7C24.4477 7 24 7.44772 24 8Z" fill="#CCCCCC"/>
<path d="M12 13C12 13.5523 12.4477 14 13 14C13.5523 14 14 13.5523 14 13C14 12.4477 13.5523 12 13 12C12.4477 12 12 12.4477 12 13Z" fill="#CCCCCC"/>
<path d="M20 10C20 10.5523 20.4477 11 21 11C21.5523 11 22 10.5523 22 10C22 9.44772 21.5523 9 21 9C20.4477 9 20 9.44772 20 10Z" fill="#CCCCCC"/>
<path d="M16 12C16 12.5523 16.4477 13 17 13C17.5523 13 18 12.5523 18 12C18 11.4477 17.5523 11 17 11C16.4477 11 16 11.4477 16 12Z" fill="#CCCCCC"/>
<path d="M8 13C8 13.5523 8.44772 14 9 14C9.55228 14 10 13.5523 10 13C10 12.4477 9.55228 12 9 12C8.44772 12 8 12.4477 8 13Z" fill="#CCCCCC"/>
<path d="M4 12C4 12.5523 4.44772 13 5 13C5.55228 13 6 12.5523 6 12C6 11.4477 5.55228 11 5 11C4.44772 11 4 11.4477 4 12Z" fill="#CCCCCC"/>
<path d="M28 7C28 6.44772 28.4477 6 29 6C29.5523 6 30 6.44772 30 7C30 7.55228 29.5523 8 29 8C28.4477 8 28 7.55228 28 7Z" fill="#CCCCCC"/>
<path d="M36 8C36 7.44772 36.4477 7 37 7C37.5523 7 38 7.44772 38 8C38 8.55228 37.5523 9 37 9C36.4477 9 36 8.55228 36 8Z" fill="#CCCCCC"/>
<path d="M32 7C32 6.44772 32.4477 6 33 6C33.5523 6 34 6.44772 34 7C34 7.55228 33.5523 8 33 8C32.4477 8 32 7.55228 32 7Z" fill="#CCCCCC"/>
<path d="M0 10C0 10.5523 0.447715 11 1 11C1.55228 11 2 10.5523 2 10C2 9.44772 1.55228 9 1 9C0.447715 9 0 9.44772 0 10Z" fill="#CCCCCC"/>
<path d="M24 20C24 20.5523 24.4477 21 25 21C25.5523 21 26 20.5523 26 20C26 19.4477 25.5523 19 25 19C24.4477 19 24 19.4477 24 20Z" fill="#CCCCCC"/>
<path d="M12 25C12 25.5523 12.4477 26 13 26C13.5523 26 14 25.5523 14 25C14 24.4477 13.5523 24 13 24C12.4477 24 12 24.4477 12 25Z" fill="#CCCCCC"/>
<path d="M20 22C20 22.5523 20.4477 23 21 23C21.5523 23 22 22.5523 22 22C22 21.4477 21.5523 21 21 21C20.4477 21 20 21.4477 20 22Z" fill="#CCCCCC"/>
<path d="M16 24C16 24.5523 16.4477 25 17 25C17.5523 25 18 24.5523 18 24C18 23.4477 17.5523 23 17 23C16.4477 23 16 23.4477 16 24Z" fill="#CCCCCC"/>
<path d="M8 25C8 25.5523 8.44772 26 9 26C9.55228 26 10 25.5523 10 25C10 24.4477 9.55228 24 9 24C8.44772 24 8 24.4477 8 25Z" fill="#CCCCCC"/>
<path d="M4 24C4 24.5523 4.44772 25 5 25C5.55228 25 6 24.5523 6 24C6 23.4477 5.55228 23 5 23C4.44772 23 4 23.4477 4 24Z" fill="#CCCCCC"/>
<path d="M28 19C28 18.4477 28.4477 18 29 18C29.5523 18 30 18.4477 30 19C30 19.5523 29.5523 20 29 20C28.4477 20 28 19.5523 28 19Z" fill="#CCCCCC"/>
<path d="M36 20C36 19.4477 36.4477 19 37 19C37.5523 19 38 19.4477 38 20C38 20.5523 37.5523 21 37 21C36.4477 21 36 20.5523 36 20Z" fill="#CCCCCC"/>
<path d="M32 19C32 18.4477 32.4477 18 33 18C33.5523 18 34 18.4477 34 19C34 19.5523 33.5523 20 33 20C32.4477 20 32 19.5523 32 19Z" fill="#CCCCCC"/>
<path d="M0 22C0 22.5523 0.447715 23 1 23C1.55228 23 2 22.5523 2 22C2 21.4477 1.55228 21 1 21C0.447715 21 0 21.4477 0 22Z" fill="#CCCCCC"/>
<path d="M24 32C24 32.5523 24.4477 33 25 33C25.5523 33 26 32.5523 26 32C26 31.4477 25.5523 31 25 31C24.4477 31 24 31.4477 24 32Z" fill="#CCCCCC"/>
<path d="M12 37C12 37.5523 12.4477 38 13 38C13.5523 38 14 37.5523 14 37C14 36.4477 13.5523 36 13 36C12.4477 36 12 36.4477 12 37Z" fill="#CCCCCC"/>
<path d="M20 34C20 34.5523 20.4477 35 21 35C21.5523 35 22 34.5523 22 34C22 33.4477 21.5523 33 21 33C20.4477 33 20 33.4477 20 34Z" fill="#CCCCCC"/>
<path d="M16 36C16 36.5523 16.4477 37 17 37C17.5523 37 18 36.5523 18 36C18 35.4477 17.5523 35 17 35C16.4477 35 16 35.4477 16 36Z" fill="#CCCCCC"/>
<path d="M8 37C8 37.5523 8.44772 38 9 38C9.55228 38 10 37.5523 10 37C10 36.4477 9.55228 36 9 36C8.44772 36 8 36.4477 8 37Z" fill="#CCCCCC"/>
<path d="M4 36C4 36.5523 4.44772 37 5 37C5.55228 37 6 36.5523 6 36C6 35.4477 5.55228 35 5 35C4.44772 35 4 35.4477 4 36Z" fill="#CCCCCC"/>
<path d="M28 31C28 30.4477 28.4477 30 29 30C29.5523 30 30 30.4477 30 31C30 31.5523 29.5523 32 29 32C28.4477 32 28 31.5523 28 31Z" fill="#CCCCCC"/>
<path d="M36 32C36 31.4477 36.4477 31 37 31C37.5523 31 38 31.4477 38 32C38 32.5523 37.5523 33 37 33C36.4477 33 36 32.5523 36 32Z" fill="#CCCCCC"/>
<path d="M32 31C32 30.4477 32.4477 30 33 30C33.5523 30 34 30.4477 34 31C34 31.5523 33.5523 32 33 32C32.4477 32 32 31.5523 32 31Z" fill="#CCCCCC"/>
<path d="M0 34C0 34.5523 0.447715 35 1 35C1.55228 35 2 34.5523 2 34C2 33.4477 1.55228 33 1 33C0.447715 33 0 33.4477 0 34Z" fill="#CCCCCC"/>
<path d="M24 44C24 44.5523 24.4477 45 25 45C25.5523 45 26 44.5523 26 44C26 43.4477 25.5523 43 25 43C24.4477 43 24 43.4477 24 44Z" fill="#CCCCCC"/>
<path d="M12 49C12 49.5523 12.4477 50 13 50C13.5523 50 14 49.5523 14 49C14 48.4477 13.5523 48 13 48C12.4477 48 12 48.4477 12 49Z" fill="#CCCCCC"/>
<path d="M20 46C20 46.5523 20.4477 47 21 47C21.5523 47 22 46.5523 22 46C22 45.4477 21.5523 45 21 45C20.4477 45 20 45.4477 20 46Z" fill="#CCCCCC"/>
<path d="M16 48C16 48.5523 16.4477 49 17 49C17.5523 49 18 48.5523 18 48C18 47.4477 17.5523 47 17 47C16.4477 47 16 47.4477 16 48Z" fill="#CCCCCC"/>
<path d="M8 49C8 49.5523 8.44772 50 9 50C9.55228 50 10 49.5523 10 49C10 48.4477 9.55228 48 9 48C8.44772 48 8 48.4477 8 49Z" fill="#CCCCCC"/>
<path d="M4 48C4 48.5523 4.44772 49 5 49C5.55228 49 6 48.5523 6 48C6 47.4477 5.55228 47 5 47C4.44772 47 4 47.4477 4 48Z" fill="#CCCCCC"/>
<path d="M28 43C28 42.4477 28.4477 42 29 42C29.5523 42 30 42.4477 30 43C30 43.5523 29.5523 44 29 44C28.4477 44 28 43.5523 28 43Z" fill="#CCCCCC"/>
<path d="M36 44C36 43.4477 36.4477 43 37 43C37.5523 43 38 43.4477 38 44C38 44.5523 37.5523 45 37 45C36.4477 45 36 44.5523 36 44Z" fill="#CCCCCC"/>
<path d="M32 43C32 42.4477 32.4477 42 33 42C33.5523 42 34 42.4477 34 43C34 43.5523 33.5523 44 33 44C32.4477 44 32 43.5523 32 43Z" fill="#CCCCCC"/>
<path d="M0 46C0 46.5523 0.447715 47 1 47C1.55228 47 2 46.5523 2 46C2 45.4477 1.55228 45 1 45C0.447715 45 0 45.4477 0 46Z" fill="#CCCCCC"/>
<path d="M24 56C24 56.5523 24.4477 57 25 57C25.5523 57 26 56.5523 26 56C26 55.4477 25.5523 55 25 55C24.4477 55 24 55.4477 24 56Z" fill="#CCCCCC"/>
<path d="M12 61C12 61.5523 12.4477 62 13 62C13.5523 62 14 61.5523 14 61C14 60.4477 13.5523 60 13 60C12.4477 60 12 60.4477 12 61Z" fill="#CCCCCC"/>
<path d="M20 58C20 58.5523 20.4477 59 21 59C21.5523 59 22 58.5523 22 58C22 57.4477 21.5523 57 21 57C20.4477 57 20 57.4477 20 58Z" fill="#CCCCCC"/>
<path d="M16 60C16 60.5523 16.4477 61 17 61C17.5523 61 18 60.5523 18 60C18 59.4477 17.5523 59 17 59C16.4477 59 16 59.4477 16 60Z" fill="#CCCCCC"/>
<path d="M8 61C8 61.5523 8.44772 62 9 62C9.55228 62 10 61.5523 10 61C10 60.4477 9.55228 60 9 60C8.44772 60 8 60.4477 8 61Z" fill="#CCCCCC"/>
<path d="M4 60C4 60.5523 4.44772 61 5 61C5.55228 61 6 60.5523 6 60C6 59.4477 5.55228 59 5 59C4.44772 59 4 59.4477 4 60Z" fill="#CCCCCC"/>
<path d="M28 55C28 54.4477 28.4477 54 29 54C29.5523 54 30 54.4477 30 55C30 55.5523 29.5523 56 29 56C28.4477 56 28 55.5523 28 55Z" fill="#CCCCCC"/>
<path d="M36 56C36 55.4477 36.4477 55 37 55C37.5523 55 38 55.4477 38 56C38 56.5523 37.5523 57 37 57C36.4477 57 36 56.5523 36 56Z" fill="#CCCCCC"/>
<path d="M32 55C32 54.4477 32.4477 54 33 54C33.5523 54 34 54.4477 34 55C34 55.5523 33.5523 56 33 56C32.4477 56 32 55.5523 32 55Z" fill="#CCCCCC"/>
<path d="M0 58C0 58.5523 0.447715 59 1 59C1.55228 59 2 58.5523 2 58C2 57.4477 1.55228 57 1 57C0.447715 57 0 57.4477 0 58Z" fill="#CCCCCC"/>
<path d="M24 68C24 68.5523 24.4477 69 25 69C25.5523 69 26 68.5523 26 68C26 67.4477 25.5523 67 25 67C24.4477 67 24 67.4477 24 68Z" fill="#CCCCCC"/>
<path d="M12 73C12 73.5523 12.4477 74 13 74C13.5523 74 14 73.5523 14 73C14 72.4477 13.5523 72 13 72C12.4477 72 12 72.4477 12 73Z" fill="#CCCCCC"/>
<path d="M20 70C20 70.5523 20.4477 71 21 71C21.5523 71 22 70.5523 22 70C22 69.4477 21.5523 69 21 69C20.4477 69 20 69.4477 20 70Z" fill="#CCCCCC"/>
<path d="M16 72C16 72.5523 16.4477 73 17 73C17.5523 73 18 72.5523 18 72C18 71.4477 17.5523 71 17 71C16.4477 71 16 71.4477 16 72Z" fill="#CCCCCC"/>
<path d="M8 73C8 73.5523 8.44772 74 9 74C9.55228 74 10 73.5523 10 73C10 72.4477 9.55228 72 9 72C8.44772 72 8 72.4477 8 73Z" fill="#CCCCCC"/>
<path d="M4 72C4 72.5523 4.44772 73 5 73C5.55228 73 6 72.5523 6 72C6 71.4477 5.55228 71 5 71C4.44772 71 4 71.4477 4 72Z" fill="#CCCCCC"/>
<path d="M28 67C28 66.4477 28.4477 66 29 66C29.5523 66 30 66.4477 30 67C30 67.5523 29.5523 68 29 68C28.4477 68 28 67.5523 28 67Z" fill="#CCCCCC"/>
<path d="M36 68C36 67.4477 36.4477 67 37 67C37.5523 67 38 67.4477 38 68C38 68.5523 37.5523 69 37 69C36.4477 69 36 68.5523 36 68Z" fill="#CCCCCC"/>
<path d="M32 67C32 66.4477 32.4477 66 33 66C33.5523 66 34 66.4477 34 67C34 67.5523 33.5523 68 33 68C32.4477 68 32 67.5523 32 67Z" fill="#CCCCCC"/>
<path d="M0 70C0 70.5523 0.447715 71 1 71C1.55228 71 2 70.5523 2 70C2 69.4477 1.55228 69 1 69C0.447715 69 0 69.4477 0 70Z" fill="#CCCCCC"/>
<path d="M24 80C24 80.5523 24.4477 81 25 81C25.5523 81 26 80.5523 26 80C26 79.4477 25.5523 79 25 79C24.4477 79 24 79.4477 24 80Z" fill="#CCCCCC"/>
<path d="M12 85C12 85.5523 12.4477 86 13 86C13.5523 86 14 85.5523 14 85C14 84.4477 13.5523 84 13 84C12.4477 84 12 84.4477 12 85Z" fill="#CCCCCC"/>
<path d="M20 82C20 82.5523 20.4477 83 21 83C21.5523 83 22 82.5523 22 82C22 81.4477 21.5523 81 21 81C20.4477 81 20 81.4477 20 82Z" fill="#CCCCCC"/>
<path d="M16 84C16 84.5523 16.4477 85 17 85C17.5523 85 18 84.5523 18 84C18 83.4477 17.5523 83 17 83C16.4477 83 16 83.4477 16 84Z" fill="#CCCCCC"/>
<path d="M8 85C8 85.5523 8.44772 86 9 86C9.55228 86 10 85.5523 10 85C10 84.4477 9.55228 84 9 84C8.44772 84 8 84.4477 8 85Z" fill="#CCCCCC"/>
<path d="M4 84C4 84.5523 4.44772 85 5 85C5.55228 85 6 84.5523 6 84C6 83.4477 5.55228 83 5 83C4.44772 83 4 83.4477 4 84Z" fill="#CCCCCC"/>
<path d="M28 79C28 78.4477 28.4477 78 29 78C29.5523 78 30 78.4477 30 79C30 79.5523 29.5523 80 29 80C28.4477 80 28 79.5523 28 79Z" fill="#CCCCCC"/>
<path d="M36 80C36 79.4477 36.4477 79 37 79C37.5523 79 38 79.4477 38 80C38 80.5523 37.5523 81 37 81C36.4477 81 36 80.5523 36 80Z" fill="#CCCCCC"/>
<path d="M32 79C32 78.4477 32.4477 78 33 78C33.5523 78 34 78.4477 34 79C34 79.5523 33.5523 80 33 80C32.4477 80 32 79.5523 32 79Z" fill="#CCCCCC"/>
<path d="M0 82C0 82.5523 0.447715 83 1 83C1.55228 83 2 82.5523 2 82C2 81.4477 1.55228 81 1 81C0.447715 81 0 81.4477 0 82Z" fill="#CCCCCC"/>
<path d="M24 92C24 92.5523 24.4477 93 25 93C25.5523 93 26 92.5523 26 92C26 91.4477 25.5523 91 25 91C24.4477 91 24 91.4477 24 92Z" fill="#CCCCCC"/>
<path d="M12 97C12 97.5523 12.4477 98 13 98C13.5523 98 14 97.5523 14 97C14 96.4477 13.5523 96 13 96C12.4477 96 12 96.4477 12 97Z" fill="#CCCCCC"/>
<path d="M20 94C20 94.5523 20.4477 95 21 95C21.5523 95 22 94.5523 22 94C22 93.4477 21.5523 93 21 93C20.4477 93 20 93.4477 20 94Z" fill="#CCCCCC"/>
<path d="M16 96C16 96.5523 16.4477 97 17 97C17.5523 97 18 96.5523 18 96C18 95.4477 17.5523 95 17 95C16.4477 95 16 95.4477 16 96Z" fill="#CCCCCC"/>
<path d="M8 97C8 97.5523 8.44772 98 9 98C9.55228 98 10 97.5523 10 97C10 96.4477 9.55228 96 9 96C8.44772 96 8 96.4477 8 97Z" fill="#CCCCCC"/>
<path d="M4 96C4 96.5523 4.44772 97 5 97C5.55228 97 6 96.5523 6 96C6 95.4477 5.55228 95 5 95C4.44772 95 4 95.4477 4 96Z" fill="#CCCCCC"/>
<path d="M28 91C28 90.4477 28.4477 90 29 90C29.5523 90 30 90.4477 30 91C30 91.5523 29.5523 92 29 92C28.4477 92 28 91.5523 28 91Z" fill="#CCCCCC"/>
<path d="M36 92C36 91.4477 36.4477 91 37 91C37.5523 91 38 91.4477 38 92C38 92.5523 37.5523 93 37 93C36.4477 93 36 92.5523 36 92Z" fill="#CCCCCC"/>
<path d="M32 91C32 90.4477 32.4477 90 33 90C33.5523 90 34 90.4477 34 91C34 91.5523 33.5523 92 33 92C32.4477 92 32 91.5523 32 91Z" fill="#CCCCCC"/>
<path d="M0 94C0 94.5523 0.447715 95 1 95C1.55228 95 2 94.5523 2 94C2 93.4477 1.55228 93 1 93C0.447715 93 0 93.4477 0 94Z" fill="#CCCCCC"/>
<path d="M24 104C24 104.552 24.4477 105 25 105C25.5523 105 26 104.552 26 104C26 103.448 25.5523 103 25 103C24.4477 103 24 103.448 24 104Z" fill="#CCCCCC"/>
<path d="M12 109C12 109.552 12.4477 110 13 110C13.5523 110 14 109.552 14 109C14 108.448 13.5523 108 13 108C12.4477 108 12 108.448 12 109Z" fill="#CCCCCC"/>
<path d="M20 106C20 106.552 20.4477 107 21 107C21.5523 107 22 106.552 22 106C22 105.448 21.5523 105 21 105C20.4477 105 20 105.448 20 106Z" fill="#CCCCCC"/>
<path d="M16 108C16 108.552 16.4477 109 17 109C17.5523 109 18 108.552 18 108C18 107.448 17.5523 107 17 107C16.4477 107 16 107.448 16 108Z" fill="#CCCCCC"/>
<path d="M8 109C8 109.552 8.44772 110 9 110C9.55228 110 10 109.552 10 109C10 108.448 9.55228 108 9 108C8.44772 108 8 108.448 8 109Z" fill="#CCCCCC"/>
<path d="M4 108C4 108.552 4.44772 109 5 109C5.55228 109 6 108.552 6 108C6 107.448 5.55228 107 5 107C4.44772 107 4 107.448 4 108Z" fill="#CCCCCC"/>
<path d="M28 103C28 102.448 28.4477 102 29 102C29.5523 102 30 102.448 30 103C30 103.552 29.5523 104 29 104C28.4477 104 28 103.552 28 103Z" fill="#CCCCCC"/>
<path d="M36 104C36 103.448 36.4477 103 37 103C37.5523 103 38 103.448 38 104C38 104.552 37.5523 105 37 105C36.4477 105 36 104.552 36 104Z" fill="#CCCCCC"/>
<path d="M32 103C32 102.448 32.4477 102 33 102C33.5523 102 34 102.448 34 103C34 103.552 33.5523 104 33 104C32.4477 104 32 103.552 32 103Z" fill="#CCCCCC"/>
<path d="M0 106C0 106.552 0.447715 107 1 107C1.55228 107 2 106.552 2 106C2 105.448 1.55228 105 1 105C0.447715 105 0 105.448 0 106Z" fill="#CCCCCC"/>
<path d="M24 116C24 116.552 24.4477 117 25 117C25.5523 117 26 116.552 26 116C26 115.448 25.5523 115 25 115C24.4477 115 24 115.448 24 116Z" fill="#CCCCCC"/>
<path d="M12 121C12 121.552 12.4477 122 13 122C13.5523 122 14 121.552 14 121C14 120.448 13.5523 120 13 120C12.4477 120 12 120.448 12 121Z" fill="#CCCCCC"/>
<path d="M20 118C20 118.552 20.4477 119 21 119C21.5523 119 22 118.552 22 118C22 117.448 21.5523 117 21 117C20.4477 117 20 117.448 20 118Z" fill="#CCCCCC"/>
<path d="M16 120C16 120.552 16.4477 121 17 121C17.5523 121 18 120.552 18 120C18 119.448 17.5523 119 17 119C16.4477 119 16 119.448 16 120Z" fill="#CCCCCC"/>
<path d="M8 121C8 121.552 8.44772 122 9 122C9.55228 122 10 121.552 10 121C10 120.448 9.55228 120 9 120C8.44772 120 8 120.448 8 121Z" fill="#CCCCCC"/>
<path d="M4 120C4 120.552 4.44772 121 5 121C5.55228 121 6 120.552 6 120C6 119.448 5.55228 119 5 119C4.44772 119 4 119.448 4 120Z" fill="#CCCCCC"/>
<path d="M28 115C28 114.448 28.4477 114 29 114C29.5523 114 30 114.448 30 115C30 115.552 29.5523 116 29 116C28.4477 116 28 115.552 28 115Z" fill="#CCCCCC"/>
<path d="M36 116C36 115.448 36.4477 115 37 115C37.5523 115 38 115.448 38 116C38 116.552 37.5523 117 37 117C36.4477 117 36 116.552 36 116Z" fill="#CCCCCC"/>
<path d="M32 115C32 114.448 32.4477 114 33 114C33.5523 114 34 114.448 34 115C34 115.552 33.5523 116 33 116C32.4477 116 32 115.552 32 115Z" fill="#CCCCCC"/>
<path d="M0 118C0 118.552 0.447715 119 1 119C1.55228 119 2 118.552 2 118C2 117.448 1.55228 117 1 117C0.447715 117 0 117.448 0 118Z" fill="#CCCCCC"/>
<path d="M24 128C24 128.552 24.4477 129 25 129C25.5523 129 26 128.552 26 128C26 127.448 25.5523 127 25 127C24.4477 127 24 127.448 24 128Z" fill="#CCCCCC"/>
<path d="M12 133C12 133.552 12.4477 134 13 134C13.5523 134 14 133.552 14 133C14 132.448 13.5523 132 13 132C12.4477 132 12 132.448 12 133Z" fill="#CCCCCC"/>
<path d="M20 130C20 130.552 20.4477 131 21 131C21.5523 131 22 130.552 22 130C22 129.448 21.5523 129 21 129C20.4477 129 20 129.448 20 130Z" fill="#CCCCCC"/>
<path d="M16 132C16 132.552 16.4477 133 17 133C17.5523 133 18 132.552 18 132C18 131.448 17.5523 131 17 131C16.4477 131 16 131.448 16 132Z" fill="#CCCCCC"/>
<path d="M8 133C8 133.552 8.44772 134 9 134C9.55228 134 10 133.552 10 133C10 132.448 9.55228 132 9 132C8.44772 132 8 132.448 8 133Z" fill="#CCCCCC"/>
<path d="M4 132C4 132.552 4.44772 133 5 133C5.55228 133 6 132.552 6 132C6 131.448 5.55228 131 5 131C4.44772 131 4 131.448 4 132Z" fill="#CCCCCC"/>
<path d="M28 127C28 126.448 28.4477 126 29 126C29.5523 126 30 126.448 30 127C30 127.552 29.5523 128 29 128C28.4477 128 28 127.552 28 127Z" fill="#CCCCCC"/>
<path d="M36 128C36 127.448 36.4477 127 37 127C37.5523 127 38 127.448 38 128C38 128.552 37.5523 129 37 129C36.4477 129 36 128.552 36 128Z" fill="#CCCCCC"/>
<path d="M32 127C32 126.448 32.4477 126 33 126C33.5523 126 34 126.448 34 127C34 127.552 33.5523 128 33 128C32.4477 128 32 127.552 32 127Z" fill="#CCCCCC"/>
<path d="M0 130C0 130.552 0.447715 131 1 131C1.55228 131 2 130.552 2 130C2 129.448 1.55228 129 1 129C0.447715 129 0 129.448 0 130Z" fill="#CCCCCC"/>
<path d="M24 140C24 140.552 24.4477 141 25 141C25.5523 141 26 140.552 26 140C26 139.448 25.5523 139 25 139C24.4477 139 24 139.448 24 140Z" fill="#CCCCCC"/>
<path d="M12 145C12 145.552 12.4477 146 13 146C13.5523 146 14 145.552 14 145C14 144.448 13.5523 144 13 144C12.4477 144 12 144.448 12 145Z" fill="#CCCCCC"/>
<path d="M20 142C20 142.552 20.4477 143 21 143C21.5523 143 22 142.552 22 142C22 141.448 21.5523 141 21 141C20.4477 141 20 141.448 20 142Z" fill="#CCCCCC"/>
<path d="M16 144C16 144.552 16.4477 145 17 145C17.5523 145 18 144.552 18 144C18 143.448 17.5523 143 17 143C16.4477 143 16 143.448 16 144Z" fill="#CCCCCC"/>
<path d="M8 145C8 145.552 8.44772 146 9 146C9.55228 146 10 145.552 10 145C10 144.448 9.55228 144 9 144C8.44772 144 8 144.448 8 145Z" fill="#CCCCCC"/>
<path d="M4 144C4 144.552 4.44772 145 5 145C5.55228 145 6 144.552 6 144C6 143.448 5.55228 143 5 143C4.44772 143 4 143.448 4 144Z" fill="#CCCCCC"/>
<path d="M28 139C28 138.448 28.4477 138 29 138C29.5523 138 30 138.448 30 139C30 139.552 29.5523 140 29 140C28.4477 140 28 139.552 28 139Z" fill="#CCCCCC"/>
<path d="M36 140C36 139.448 36.4477 139 37 139C37.5523 139 38 139.448 38 140C38 140.552 37.5523 141 37 141C36.4477 141 36 140.552 36 140Z" fill="#CCCCCC"/>
<path d="M32 139C32 138.448 32.4477 138 33 138C33.5523 138 34 138.448 34 139C34 139.552 33.5523 140 33 140C32.4477 140 32 139.552 32 139Z" fill="#CCCCCC"/>
<path d="M0 142C0 142.552 0.447715 143 1 143C1.55228 143 2 142.552 2 142C2 141.448 1.55228 141 1 141C0.447715 141 0 141.448 0 142Z" fill="#CCCCCC"/>
<path d="M24 152C24 152.552 24.4477 153 25 153C25.5523 153 26 152.552 26 152C26 151.448 25.5523 151 25 151C24.4477 151 24 151.448 24 152Z" fill="#CCCCCC"/>
<path d="M12 157C12 157.552 12.4477 158 13 158C13.5523 158 14 157.552 14 157C14 156.448 13.5523 156 13 156C12.4477 156 12 156.448 12 157Z" fill="#CCCCCC"/>
<path d="M20 154C20 154.552 20.4477 155 21 155C21.5523 155 22 154.552 22 154C22 153.448 21.5523 153 21 153C20.4477 153 20 153.448 20 154Z" fill="#CCCCCC"/>
<path d="M16 156C16 156.552 16.4477 157 17 157C17.5523 157 18 156.552 18 156C18 155.448 17.5523 155 17 155C16.4477 155 16 155.448 16 156Z" fill="#CCCCCC"/>
<path d="M8 157C8 157.552 8.44772 158 9 158C9.55228 158 10 157.552 10 157C10 156.448 9.55228 156 9 156C8.44772 156 8 156.448 8 157Z" fill="#CCCCCC"/>
<path d="M4 156C4 156.552 4.44772 157 5 157C5.55228 157 6 156.552 6 156C6 155.448 5.55228 155 5 155C4.44772 155 4 155.448 4 156Z" fill="#CCCCCC"/>
<path d="M28 151C28 150.448 28.4477 150 29 150C29.5523 150 30 150.448 30 151C30 151.552 29.5523 152 29 152C28.4477 152 28 151.552 28 151Z" fill="#CCCCCC"/>
<path d="M36 152C36 151.448 36.4477 151 37 151C37.5523 151 38 151.448 38 152C38 152.552 37.5523 153 37 153C36.4477 153 36 152.552 36 152Z" fill="#CCCCCC"/>
<path d="M32 151C32 150.448 32.4477 150 33 150C33.5523 150 34 150.448 34 151C34 151.552 33.5523 152 33 152C32.4477 152 32 151.552 32 151Z" fill="#CCCCCC"/>
<path d="M0 154C0 154.552 0.447715 155 1 155C1.55228 155 2 154.552 2 154C2 153.448 1.55228 153 1 153C0.447715 153 0 153.448 0 154Z" fill="#CCCCCC"/>
<path d="M24 164C24 164.552 24.4477 165 25 165C25.5523 165 26 164.552 26 164C26 163.448 25.5523 163 25 163C24.4477 163 24 163.448 24 164Z" fill="#CCCCCC"/>
<path d="M12 169C12 169.552 12.4477 170 13 170C13.5523 170 14 169.552 14 169C14 168.448 13.5523 168 13 168C12.4477 168 12 168.448 12 169Z" fill="#CCCCCC"/>
<path d="M20 166C20 166.552 20.4477 167 21 167C21.5523 167 22 166.552 22 166C22 165.448 21.5523 165 21 165C20.4477 165 20 165.448 20 166Z" fill="#CCCCCC"/>
<path d="M16 168C16 168.552 16.4477 169 17 169C17.5523 169 18 168.552 18 168C18 167.448 17.5523 167 17 167C16.4477 167 16 167.448 16 168Z" fill="#CCCCCC"/>
<path d="M8 169C8 169.552 8.44772 170 9 170C9.55228 170 10 169.552 10 169C10 168.448 9.55228 168 9 168C8.44772 168 8 168.448 8 169Z" fill="#CCCCCC"/>
<path d="M4 168C4 168.552 4.44772 169 5 169C5.55228 169 6 168.552 6 168C6 167.448 5.55228 167 5 167C4.44772 167 4 167.448 4 168Z" fill="#CCCCCC"/>
<path d="M28 163C28 162.448 28.4477 162 29 162C29.5523 162 30 162.448 30 163C30 163.552 29.5523 164 29 164C28.4477 164 28 163.552 28 163Z" fill="#CCCCCC"/>
<path d="M36 164C36 163.448 36.4477 163 37 163C37.5523 163 38 163.448 38 164C38 164.552 37.5523 165 37 165C36.4477 165 36 164.552 36 164Z" fill="#CCCCCC"/>
<path d="M32 163C32 162.448 32.4477 162 33 162C33.5523 162 34 162.448 34 163C34 163.552 33.5523 164 33 164C32.4477 164 32 163.552 32 163Z" fill="#CCCCCC"/>
<path d="M0 166C0 166.552 0.447715 167 1 167C1.55228 167 2 166.552 2 166C2 165.448 1.55228 165 1 165C0.447715 165 0 165.448 0 166Z" fill="#CCCCCC"/>
<path d="M24 176C24 176.552 24.4477 177 25 177C25.5523 177 26 176.552 26 176C26 175.448 25.5523 175 25 175C24.4477 175 24 175.448 24 176Z" fill="#CCCCCC"/>
<path d="M12 181C12 181.552 12.4477 182 13 182C13.5523 182 14 181.552 14 181C14 180.448 13.5523 180 13 180C12.4477 180 12 180.448 12 181Z" fill="#CCCCCC"/>
<path d="M20 178C20 178.552 20.4477 179 21 179C21.5523 179 22 178.552 22 178C22 177.448 21.5523 177 21 177C20.4477 177 20 177.448 20 178Z" fill="#CCCCCC"/>
<path d="M16 180C16 180.552 16.4477 181 17 181C17.5523 181 18 180.552 18 180C18 179.448 17.5523 179 17 179C16.4477 179 16 179.448 16 180Z" fill="#CCCCCC"/>
<path d="M8 181C8 181.552 8.44772 182 9 182C9.55228 182 10 181.552 10 181C10 180.448 9.55228 180 9 180C8.44772 180 8 180.448 8 181Z" fill="#CCCCCC"/>
<path d="M4 180C4 180.552 4.44772 181 5 181C5.55228 181 6 180.552 6 180C6 179.448 5.55228 179 5 179C4.44772 179 4 179.448 4 180Z" fill="#CCCCCC"/>
<path d="M28 175C28 174.448 28.4477 174 29 174C29.5523 174 30 174.448 30 175C30 175.552 29.5523 176 29 176C28.4477 176 28 175.552 28 175Z" fill="#CCCCCC"/>
<path d="M36 176C36 175.448 36.4477 175 37 175C37.5523 175 38 175.448 38 176C38 176.552 37.5523 177 37 177C36.4477 177 36 176.552 36 176Z" fill="#CCCCCC"/>
<path d="M32 175C32 174.448 32.4477 174 33 174C33.5523 174 34 174.448 34 175C34 175.552 33.5523 176 33 176C32.4477 176 32 175.552 32 175Z" fill="#CCCCCC"/>
<path d="M0 178C0 178.552 0.447715 179 1 179C1.55228 179 2 178.552 2 178C2 177.448 1.55228 177 1 177C0.447715 177 0 177.448 0 178Z" fill="#CCCCCC"/>
<path d="M24 188C24 188.552 24.4477 189 25 189C25.5523 189 26 188.552 26 188C26 187.448 25.5523 187 25 187C24.4477 187 24 187.448 24 188Z" fill="#CCCCCC"/>
<path d="M12 193C12 193.552 12.4477 194 13 194C13.5523 194 14 193.552 14 193C14 192.448 13.5523 192 13 192C12.4477 192 12 192.448 12 193Z" fill="#CCCCCC"/>
<path d="M20 190C20 190.552 20.4477 191 21 191C21.5523 191 22 190.552 22 190C22 189.448 21.5523 189 21 189C20.4477 189 20 189.448 20 190Z" fill="#CCCCCC"/>
<path d="M16 192C16 192.552 16.4477 193 17 193C17.5523 193 18 192.552 18 192C18 191.448 17.5523 191 17 191C16.4477 191 16 191.448 16 192Z" fill="#CCCCCC"/>
<path d="M8 193C8 193.552 8.44772 194 9 194C9.55228 194 10 193.552 10 193C10 192.448 9.55228 192 9 192C8.44772 192 8 192.448 8 193Z" fill="#CCCCCC"/>
<path d="M4 192C4 192.552 4.44772 193 5 193C5.55228 193 6 192.552 6 192C6 191.448 5.55228 191 5 191C4.44772 191 4 191.448 4 192Z" fill="#CCCCCC"/>
<path d="M28 187C28 186.448 28.4477 186 29 186C29.5523 186 30 186.448 30 187C30 187.552 29.5523 188 29 188C28.4477 188 28 187.552 28 187Z" fill="#CCCCCC"/>
<path d="M36 188C36 187.448 36.4477 187 37 187C37.5523 187 38 187.448 38 188C38 188.552 37.5523 189 37 189C36.4477 189 36 188.552 36 188Z" fill="#CCCCCC"/>
<path d="M32 187C32 186.448 32.4477 186 33 186C33.5523 186 34 186.448 34 187C34 187.552 33.5523 188 33 188C32.4477 188 32 187.552 32 187Z" fill="#CCCCCC"/>
<path d="M0 190C0 190.552 0.447715 191 1 191C1.55228 191 2 190.552 2 190C2 189.448 1.55228 189 1 189C0.447715 189 0 189.448 0 190Z" fill="#CCCCCC"/>
</svg>