<svg width="200" height="48" viewBox="0 0 200 48" fill="none" xmlns="http://www.w3.org/2000/svg">
  <path d="M35.4 14.2C35.4 6.4 29.1 0 21.4 0H0V28.3H21.4C29.1 28.3 35.4 22 35.4 14.2Z" fill="#FF6F3D"/>
  <path d="M21.4 33.8H5.5V48H21.4C25.6 48 29 44.5 29 40.9C29 37.2 25.6 33.8 21.4 33.8Z" fill="#FF6F3D"/>
  <path d="M53.8 12.1H46.5V36H53.8C62.6 36 69.4 29.1 69.4 24.1C69.4 19 62.6 12.1 53.8 12.1Z" fill="#333333"/>
  <path d="M85.1 12.1H77.9V36H85.1V12.1Z" fill="#333333"/>
  <path d="M106.6 12.1H92.2V36H99.4V29.1H106.6C112.3 29.1 116.8 25.8 116.8 20.6C116.8 15.4 112.3 12.1 106.6 12.1Z" fill="#333333"/>
  <path d="M133.3 12.1H118.9V36H126.1V29.1H133.3C139 29.1 143.5 25.8 143.5 20.6C143.5 15.4 139 12.1 133.3 12.1Z" fill="#333333"/>
  <path d="M164.1 12.1H145.8V17.6H151.9V36H158V17.6H164.1V12.1Z" fill="#333333"/>
  <path d="M182.9 12.1H165.7V36H182.9V30.5H172.8V26.8H181.7V21.3H172.8V17.6H182.9V12.1Z" fill="#333333"/>
  <path d="M200 12.1H192.8V36H200V12.1Z" fill="#333333"/>
</svg>
