<svg width="36" height="36" viewBox="0 0 36 36" fill="none" xmlns="http://www.w3.org/2000/svg">
<path d="M18.3111 33.6952L17.9953 33.9752L17.6663 33.7108C17.2544 33.38 16.5995 32.9427 15.7565 32.3947C15.5584 32.266 15.3507 32.1316 15.1346 31.9918C14.4407 31.5429 13.6603 31.038 12.8347 30.4842C10.6691 29.0313 8.16519 27.2239 5.98998 25.1296C3.81904 23.0394 1.94176 20.6319 1.07536 17.9707C0.200766 15.2844 0.368183 12.3721 2.23024 9.34046L2.23644 9.33036L2.24312 9.32056C4.11891 6.56819 7.64391 5.58191 10.8961 5.98588C13.7587 6.34146 16.5574 7.79261 17.9588 10.2441C19.2698 7.75135 21.9621 6.2469 24.7942 5.87415C28.0161 5.45011 31.5553 6.46925 33.6629 9.30381L33.6762 9.3217L33.6879 9.34071C35.5205 12.3283 35.6827 15.1944 34.8149 17.8421C33.9555 20.4642 32.0977 22.8403 29.9472 24.9163C27.7926 26.9963 25.3093 28.8078 23.1539 30.2911C22.5429 30.7116 21.9452 31.1146 21.391 31.4881C20.9784 31.7662 20.5899 32.0281 20.2382 32.2687C19.3939 32.8464 18.7336 33.3206 18.3111 33.6952Z" fill="url(#paint0_linear_98_63576)" stroke="#333333"/>
<path d="M17.9647 28.4336C20.0656 26.5709 30.9987 21.2568 26.897 14.5701C24.5883 11.4651 19.0871 12.2733 17.9647 15.6616C16.7403 12.3213 11.0381 11.592 9.00846 14.5701C4.8379 21.3602 15.9302 26.7992 17.9647 28.4336Z" fill="white"/>
<defs>
<linearGradient id="paint0_linear_98_63576" x1="17.9442" y1="33.321" x2="17.9442" y2="6.28161" gradientUnits="userSpaceOnUse">
<stop stop-color="#FF8E3D"/>
<stop offset="1" stop-color="#FF6F3D"/>
</linearGradient>
</defs>
</svg>
