<svg width="25" height="25" viewBox="0 0 25 25" fill="none" xmlns="http://www.w3.org/2000/svg">
<path d="M13.0195 4.55388C12.6269 4.15024 11.9786 4.15025 11.5859 4.55388L4.78223 11.5529C4.40512 11.941 4.40503 12.5594 4.78223 12.9474L11.5859 19.9455C11.9786 20.3495 12.6268 20.3495 13.0195 19.9455L13.0732 19.8908C13.4505 19.5027 13.4505 18.8844 13.0732 18.4963L8.02637 13.3039L8.01465 13.2892C8.0681 13.2981 8.12276 13.3039 8.17871 13.3039H19.5C20.0523 13.3039 20.5 12.8562 20.5 12.3039V12.1955C20.4999 11.6433 20.0522 11.1955 19.5 11.1955H8.17871C8.12283 11.1955 8.06803 11.2003 8.01465 11.2092L8.02637 11.1955L13.0732 6.0031C13.4505 5.61499 13.4505 4.99763 13.0732 4.60954L13.0195 4.55388Z" fill="#333333"/>
</svg>
