<svg xmlns="http://www.w3.org/2000/svg" width="16" height="16" viewBox="0 0 16 16" fill="none">
<path fill-rule="evenodd" clip-rule="evenodd" d="M0.302995 7.48022C-0.100999 7.87291 -0.100999 8.52166 0.302994 8.91435L7.30184 15.7174C7.68995 16.0946 8.30775 16.0946 8.69585 15.7174L15.6947 8.91435C16.0987 8.52166 16.0987 7.87291 15.6947 7.48022L15.6395 7.42654C15.2514 7.0493 14.6336 7.0493 14.2455 7.42654L9.05304 12.4737L9.03958 12.4845C9.04832 12.4314 9.05286 12.3768 9.05286 12.3211L9.05286 0.999999C9.05286 0.447715 8.60515 3.76143e-07 8.05286 3.52002e-07L7.94447 3.47264e-07C7.39219 3.23123e-07 6.94447 0.447716 6.94447 1L6.94447 12.3211C6.94447 12.3767 6.949 12.4311 6.9577 12.4842L6.94465 12.4737L1.75222 7.42654C1.36412 7.0493 0.746317 7.0493 0.358214 7.42654L0.302995 7.48022Z" fill="#FF6F3D"/>
</svg>