<svg xmlns="http://www.w3.org/2000/svg" width="18" height="18" viewBox="0 0 18 18" fill="none">
<g clip-path="url(#clip0_157_3422)">
<path fill-rule="evenodd" clip-rule="evenodd" d="M2.29425 2.2945C1.90373 2.68502 1.90005 3.32186 2.29057 3.71239L7.57822 9.00004L7.57826 9.00008L2.29066 14.2877C1.90013 14.6782 1.90381 15.3151 2.29434 15.7056C2.68486 16.0961 3.32171 16.0998 3.71223 15.7093L8.99983 10.4217L14.2874 15.7093C14.678 16.0998 15.3148 16.0961 15.7053 15.7056C16.0959 15.3151 16.0995 14.6782 15.709 14.2877L10.4214 9.00008L10.4215 9.00004L15.7091 3.71239C16.0996 3.32186 16.0959 2.68502 15.7054 2.2945C15.3149 1.90397 14.678 1.90029 14.2875 2.29082L8.99988 7.57846L8.99983 7.5785L8.99979 7.57846L3.71215 2.29082C3.32162 1.90029 2.68478 1.90397 2.29425 2.2945Z" fill="#444444"/>
</g>
<defs>
<clipPath id="clip0_157_3422">
<rect width="18" height="18" fill="white"/>
</clipPath>
</defs>
</svg>