<svg width="32" height="32" viewBox="0 0 32 32" fill="none" xmlns="http://www.w3.org/2000/svg">
<path d="M8.21922 29.5H3.79378C3.26016 29.5 2.93822 29.2022 2.79385 29.0246C2.5446 28.718 2.44803 28.319 2.5291 27.9297C3.82716 21.6946 9.32966 17.1412 15.6819 16.9934C15.7877 16.9974 15.8938 17 16.0005 17C16.1081 17 16.2151 16.9973 16.3218 16.9933C17.8752 17.0288 19.3924 17.3208 20.8366 17.8631C21.4828 18.1059 22.2035 17.7786 22.4462 17.1323C22.6889 16.4861 22.3617 15.7654 21.7154 15.5227C21.5085 15.4449 21.3001 15.3722 21.0907 15.3032C23.1595 13.7513 24.5005 11.2793 24.5005 8.5C24.5005 3.81313 20.6874 0 16.0005 0C11.3135 0 7.50047 3.81313 7.50047 8.5C7.50047 11.2818 8.84372 13.7557 10.9157 15.3074C9.01747 15.9322 7.23622 16.904 5.67735 18.1863C2.8191 20.5373 0.831784 23.8166 0.0815969 27.4202C-0.153528 28.5493 0.128097 29.7091 0.854284 30.6019C1.57678 31.4904 2.64822 32 3.79378 32H8.21922C8.9096 32 9.46922 31.4404 9.46922 30.75C9.46922 30.0596 8.9096 29.5 8.21922 29.5ZM10.0005 8.5C10.0005 5.19156 12.692 2.5 16.0005 2.5C19.3089 2.5 22.0005 5.19156 22.0005 8.5C22.0005 11.7104 19.4658 14.3399 16.2926 14.4928C16.1953 14.4911 16.098 14.4896 16.0005 14.4896C15.9027 14.4896 15.805 14.491 15.7074 14.4928C12.5346 14.3394 10.0005 11.7101 10.0005 8.5Z" fill="white"/>
<path d="M31.0431 21.5379C30.508 20.3411 29.3028 19.5656 27.9696 19.5625H24.0713C24.0685 19.5625 24.0659 19.5625 24.063 19.5625C22.6568 19.5625 21.4299 20.3913 20.9362 21.6754C20.8705 21.8463 20.7902 22.0616 20.7064 22.3125H12.5223C12.1843 22.3125 11.8608 22.4493 11.6254 22.6917L9.47815 24.9035C9.00522 25.3906 9.00759 26.1662 9.48347 26.6504L11.671 28.8761C11.906 29.1153 12.2272 29.2499 12.5625 29.2499H16.625C17.3153 29.2499 17.875 28.6903 17.875 27.9999C17.875 27.3096 17.3153 26.7499 16.625 26.7499H13.0866L12.1223 25.7688L13.0509 24.8125H21.6441C22.22 24.8125 22.7213 24.4191 22.8582 23.8598C22.9593 23.4468 23.0862 23.0498 23.2697 22.5725C23.3907 22.2578 23.6946 22.0625 24.066 22.0625C24.0668 22.0625 24.0677 22.0625 24.0685 22.0625H27.9667C28.3202 22.0633 28.6244 22.2533 28.7607 22.5583C29.0963 23.309 29.497 24.4712 29.5 25.7449C29.503 27.0279 29.1027 28.2168 28.7663 28.9883C28.6307 29.2994 28.3238 29.5 27.9813 29.5C27.9806 29.5 27.9799 29.5 27.9792 29.5H24.0339C23.6881 29.4992 23.3642 29.2767 23.2279 28.9464C23.0817 28.5919 22.955 28.1873 22.8406 27.7091C22.6799 27.0377 22.0052 26.6237 21.334 26.7843C20.6626 26.945 20.2486 27.6196 20.4093 28.2909C20.5543 28.8971 20.7204 29.4233 20.9168 29.8996C21.4418 31.1723 22.663 31.9967 24.031 31.9999H27.9763C27.979 31.9999 27.9815 31.9999 27.9842 31.9999C29.3187 31.9999 30.5247 31.2106 31.058 29.9874C31.49 28.9967 32.004 27.4554 32 25.7389C31.996 24.0271 31.4774 22.5096 31.0431 21.5379Z" fill="white"/>
<path d="M26.9375 27C27.6279 27 28.1875 26.4404 28.1875 25.75C28.1875 25.0596 27.6279 24.5 26.9375 24.5C26.2471 24.5 25.6875 25.0596 25.6875 25.75C25.6875 26.4404 26.2471 27 26.9375 27Z" fill="white"/>
</svg>
