<svg xmlns="http://www.w3.org/2000/svg" width="14" height="14" viewBox="0 0 14 14" fill="none">
<path fill-rule="evenodd" clip-rule="evenodd" d="M0.332994 0.3333C-0.0572868 0.723581 -0.0572871 1.35635 0.332994 1.74663L5.58633 6.99997L5.58637 7.00001L0.333078 12.2533C-0.0572027 12.6436 -0.0572024 13.2764 0.333079 13.6666C0.72336 14.0569 1.35613 14.0569 1.74641 13.6666L6.9997 8.41334L12.253 13.6666C12.6433 14.0569 13.276 14.0569 13.6663 13.6666C14.0566 13.2764 14.0566 12.6436 13.6663 12.2533L8.41304 7.00001L8.41308 6.99997L13.6664 1.74663C14.0567 1.35635 14.0567 0.723581 13.6664 0.3333C13.2761 -0.0569817 12.6434 -0.0569822 12.2531 0.333299L6.99974 5.58663L6.9997 5.58667L6.99966 5.58663L1.74633 0.333299C1.35605 -0.0569822 0.723275 -0.0569817 0.332994 0.3333Z" fill="#CB0000"/>
</svg>