<svg width="14" height="13" viewBox="0 0 14 13" fill="none" xmlns="http://www.w3.org/2000/svg">
<path fill-rule="evenodd" clip-rule="evenodd" d="M7 0C6.44771 0 6 0.447715 6 1V6.5599L3.73864 4.29854C3.34811 3.90801 2.7067 3.89954 2.306 4.27962C1.9053 4.6597 1.89705 5.28439 2.28758 5.67492L6.37974 9.76708C6.77027 10.1576 7.41168 10.1661 7.81238 9.786C7.86812 9.73313 7.91626 9.67553 7.95679 9.61448L11.8964 5.67491C12.2869 5.28439 12.2786 4.65969 11.8779 4.27961C11.4772 3.89954 10.8358 3.90801 10.4453 4.29853L8 6.74383V1C8 0.447715 7.55229 0 7 0ZM2 10C2 9.72386 1.75 9 1 9C0.25 9 0 9.72386 0 10V12.5C0 12.7761 0.223857 13 0.5 13H13.5C13.7761 13 14 12.7761 14 12.5V10C14 9.72386 13.7812 9 13 9C12.2188 9 12 9.72386 12 10V11H2V10Z" fill="white"/>
</svg>
