<svg xmlns="http://www.w3.org/2000/svg" width="86" height="81" viewBox="0 0 86 81" fill="none">
<path fill-rule="evenodd" clip-rule="evenodd" d="M37.7441 79.7917L2.26662 63.3216C-0.755539 61.8838 -0.755539 59.6616 2.26662 58.3545L14.618 52.603L37.6127 63.3216C40.6348 64.7595 45.4966 64.7595 48.3873 63.3216L71.382 52.603L83.7334 58.3545C86.7555 59.7923 86.7555 62.0145 83.7334 63.3216L48.2559 79.7917C45.4966 81.0988 40.6348 81.0988 37.7441 79.7917Z" fill="#FF6F3D"/>
<path fill-rule="evenodd" clip-rule="evenodd" d="M37.6291 59.4106L2.25971 42.9215C-0.753237 41.4819 -0.753237 39.2572 2.25971 37.9485L14.3115 32.3213L37.6291 43.1832C40.642 44.6227 45.489 44.6227 48.3709 43.1832L71.6885 32.3213L83.7403 37.9485C86.7532 39.3881 86.7532 41.6128 83.7403 42.9215L48.3709 59.4106C45.358 60.8502 40.511 60.8502 37.6291 59.4106Z" fill="#95C038"/>
<path fill-rule="evenodd" clip-rule="evenodd" d="M37.6291 39.2412L2.25971 22.9893C-0.753237 21.5705 -0.753237 19.3778 2.25971 18.088L37.6291 1.83608C40.642 0.417269 45.489 0.417269 48.3709 1.83608L83.7403 18.088C86.7532 19.5068 86.7532 21.6995 83.7403 22.9893L48.3709 39.2412C45.358 40.5311 40.511 40.5311 37.6291 39.2412Z" fill="#5DC0E8"/>
</svg>