<svg width="1282" height="454" viewBox="0 0 1282 454" fill="none" xmlns="http://www.w3.org/2000/svg">
<path d="M498.546 -206.688C374.942 -239.807 342.579 -248.479 218.916 -281.614C159.52 -297.53 143.962 -289.597 129.78 -236.669C89.3578 -85.8117 48.8169 65.0139 8.51363 215.903C-24.8514 340.898 47.4043 454.223 184.908 491.3C432.014 557.919 588.098 599.509 835.334 665.639C888.375 679.852 907.925 669.614 920.972 620.92C961.033 471.886 1001.09 322.852 1040.8 173.723C1076.36 40.0642 1004.54 -71.1065 857.492 -110.567C737.823 -142.69 618.229 -174.619 498.546 -206.688ZM1417.64 430.682C1446.19 324.121 1475.34 217.719 1502.57 110.863C1506.07 97.0809 1505.36 75.2476 1496.26 67.165C1487.72 59.5832 1463.71 61.2944 1449.48 65.919C1332.38 104.301 1215.69 143.726 1099.74 184.686C1086.58 189.364 1073.1 204.023 1069.29 216.847C1047.56 290.328 1029.49 364.904 1008.3 438.528C1002.4 459.115 1007.32 473.758 1021.94 490.009C1075.02 549.207 1126.82 609.4 1179.21 669.052C1209.35 703.37 1238.85 738.212 1270.37 771.444C1294.5 796.875 1317.71 791.981 1328.81 760.979C1331.63 753.066 1333.46 744.828 1335.64 736.685C1362.99 634.63 1390.32 532.629 1417.66 430.574L1417.64 430.682Z" fill="#F2F2F2"/>
</svg>
