<svg width="292" height="28" viewBox="0 0 292 28" fill="none" xmlns="http://www.w3.org/2000/svg">
<mask id="mask0_5991_64324" style="mask-type:luminance" maskUnits="userSpaceOnUse" x="0" y="0" width="291" height="28">
<path d="M290.421 0.492035H0V27.508H290.421V0.492035Z" fill="white"/>
</mask>
<g mask="url(#mask0_5991_64324)">
<path d="M98.7538 3.81076L105.259 21.1497H101.935L100.572 17.2994H93.5406L92.2013 21.1497H89.0918L95.5487 3.81076H98.7538ZM99.6631 14.7639L97.032 7.32578L94.4253 14.7639H99.6631ZM109.695 10.0044C110.46 8.73706 111.8 7.99544 113.522 7.99544C116.655 7.99544 119.046 10.6029 119.046 14.7164C119.046 18.8538 116.655 21.4604 113.522 21.4604C111.8 21.4604 110.46 20.7187 109.695 19.4515V25.3352H106.85V8.28243H109.695V10.0044ZM116.081 14.7164C116.081 12.0133 114.886 10.3159 112.9 10.3159C111.034 10.3159 109.576 11.7509 109.576 14.7164C109.576 17.6821 111.034 19.1407 112.9 19.1407C114.886 19.1407 116.081 17.4425 116.081 14.7164ZM124.028 10.0044C124.793 8.73706 126.132 7.99544 127.854 7.99544C130.987 7.99544 133.379 10.6029 133.379 14.7164C133.379 18.8538 130.987 21.4604 127.854 21.4604C126.132 21.4604 124.793 20.7187 124.028 19.4515V25.3352H121.182V8.28243H124.028V10.0044ZM130.413 14.7164C130.413 12.0133 129.218 10.3159 127.233 10.3159C125.367 10.3159 123.908 11.7509 123.908 14.7164C123.908 17.6821 125.367 19.1407 127.233 19.1407C129.218 19.1407 130.413 17.4425 130.413 14.7164ZM144.312 7.11075V21.1497H141.346V3.81076H146.058L150.267 17.6338L154.453 3.81076H159.164V21.1497H156.198V7.11075L151.798 21.1497H148.713L144.312 7.11075ZM170.123 13.1139V12.8743C170.123 10.674 168.855 10.0044 167.443 10.0044C166.009 10.0044 164.934 10.7697 164.861 12.3249H162.064C162.255 9.69368 164.431 7.89977 167.54 7.89977C170.625 7.89977 173.041 9.31103 172.968 13.4246C172.968 14.0705 172.921 15.5774 172.921 16.7491C172.921 18.3754 173.065 20.0737 173.304 21.1497H170.697C170.601 20.5993 170.506 20.2887 170.459 19.404C169.644 20.7908 168.114 21.4604 166.225 21.4604C163.427 21.4604 161.465 19.9534 161.465 17.6101C161.465 14.405 165.411 13.5922 170.123 13.1139ZM164.478 17.5382C164.478 18.6624 165.411 19.3321 166.847 19.3321C168.952 19.3321 170.195 18.256 170.195 16.0795V15.0991C166.129 15.4818 164.478 16.0558 164.478 17.5382ZM181.305 11.1049C179.511 11.1049 178.483 11.822 178.483 14.405V21.1497H175.637V8.28243H178.435V10.5784C179.128 9.14341 180.372 8.28243 181.927 8.25873C182.142 8.25873 182.453 8.28243 182.668 8.30698V11.1769C182.189 11.1287 181.736 11.1049 181.305 11.1049ZM187.15 13.4483L191.91 8.28243H195.33L190.403 13.5685L195.881 21.1497H192.557L188.515 15.5774L187.15 17.0361V21.1497H184.306V3.81076H187.15V13.4483ZM201.88 19.0924C203.362 19.0924 204.535 18.4948 205.037 17.2994H207.836C207.237 19.3558 205.324 21.4604 202.001 21.4604C197.862 21.4604 195.494 18.3035 195.494 14.6208C195.494 10.746 198.149 7.99543 201.808 7.99543C205.755 7.99543 208.218 11.2006 207.979 15.5292H198.389C198.579 17.9208 200.254 19.0924 201.88 19.0924ZM205.084 13.4483C205.013 11.4394 203.482 10.2203 201.808 10.2203C200.469 10.2203 198.628 11.0093 198.389 13.4483H205.084ZM213.229 4.88678V8.28243H215.811V10.3396H213.229V17.3468C213.229 18.6624 213.539 18.9731 214.758 18.9731H215.788V21.1497H213.683C210.933 21.1497 210.381 20.4081 210.381 17.7777V10.3396H208.469V8.28243H210.381V4.88678H213.229ZM220.529 10.0044C221.294 8.73704 222.633 7.99544 224.355 7.99544C227.488 7.99544 229.88 10.6029 229.88 14.7164C229.88 18.8537 227.488 21.4604 224.355 21.4604C222.633 21.4604 221.294 20.7187 220.529 19.4515V25.3352H217.683V8.28243H220.529V10.0044ZM226.914 14.7164C226.914 12.0133 225.719 10.3159 223.734 10.3159C221.868 10.3159 220.409 11.7509 220.409 14.7164C220.409 17.682 221.868 19.1407 223.734 19.1407C225.719 19.1407 226.914 17.4425 226.914 14.7164ZM232.042 21.1497V3.81076H234.888V21.1497H232.042ZM245.649 13.1139V12.8743C245.649 10.674 244.381 10.0044 242.97 10.0044C241.535 10.0044 240.459 10.7697 240.387 12.3249H237.589C237.78 9.69368 239.957 7.89977 243.065 7.89977C246.152 7.89977 248.566 9.31103 248.495 13.4246C248.495 14.0705 248.448 15.5774 248.448 16.7491C248.448 18.3754 248.59 20.0737 248.829 21.1497H246.223C246.126 20.5993 246.031 20.2887 245.984 19.404C245.17 20.7908 243.639 21.4604 241.75 21.4604C238.952 21.4604 236.992 19.9534 236.992 17.6101C236.992 14.405 240.937 13.5922 245.649 13.1139ZM240.004 17.5382C240.004 18.6624 240.937 19.3321 242.372 19.3321C244.477 19.3321 245.72 18.256 245.72 16.0795V15.0991C241.654 15.4818 240.004 16.0558 240.004 17.5382ZM259.593 12.683C259.354 11.32 258.158 10.3633 256.603 10.3633C254.834 10.3633 253.232 11.6789 253.232 14.7164C253.232 17.7777 254.857 19.0924 256.532 19.0924C257.919 19.0924 259.329 18.4711 259.688 16.7491H262.463C261.889 19.7621 259.234 21.4604 256.484 21.4604C252.753 21.4604 250.289 18.5668 250.289 14.7402C250.289 10.9136 252.776 7.99544 256.603 7.99544C259.402 7.99544 261.889 9.81306 262.367 12.683H259.593ZM270.061 19.0924C271.544 19.0924 272.716 18.4948 273.219 17.2994H276.016C275.418 19.3558 273.504 21.4604 270.181 21.4604C266.043 21.4604 263.676 18.3035 263.676 14.6208C263.676 10.746 266.331 7.99543 269.99 7.99543C273.935 7.99543 276.399 11.2006 276.159 15.5292H266.569C266.761 17.9208 268.434 19.0924 270.061 19.0924ZM273.266 13.4483C273.193 11.4394 271.663 10.2203 269.99 10.2203C268.65 10.2203 266.808 11.0093 266.569 13.4483H273.266Z" fill="#0D213F"/>
<path d="M16.5154 22.681H2.43505C1.44714 22.681 0.564507 22.0913 0.186462 21.1786C-0.191582 20.2659 0.015546 19.2247 0.714111 18.5262L10.467 8.77335H3.47693C1.55667 8.77335 8.11376e-06 7.21668 8.11376e-06 5.29643H12.9851C13.973 5.29643 14.8555 5.88604 15.2337 6.79873C15.6118 7.71141 15.4048 8.75245 14.7062 9.45125L4.95336 19.2041H13.0385C14.9588 19.2041 16.5154 20.7607 16.5154 22.681ZM78.7522 11.8156C78.7522 8.07711 75.7108 5.03564 71.9723 5.03564C69.9724 5.03564 68.1728 5.90641 66.9307 7.28809C65.6887 5.90641 63.8889 5.03564 61.8892 5.03564C58.1507 5.03564 55.1091 8.07711 55.1091 11.8156V22.681C57.0294 22.681 58.5861 21.1244 58.5861 19.2041V11.8156C58.5861 9.99433 60.0678 8.51257 61.8892 8.51257C63.7105 8.51257 65.1922 9.99433 65.1922 11.8156V19.2041C65.1922 21.1244 66.7489 22.681 68.6691 22.681V11.8156C68.6691 9.99433 70.1509 8.51257 71.9723 8.51257C73.7935 8.51257 75.2752 9.99433 75.2752 11.8156V19.2041C75.2752 21.1244 76.8319 22.681 78.7522 22.681V11.8156ZM53.3707 13.9887C53.3707 18.9334 49.3622 22.9418 44.4177 22.9418C39.473 22.9418 35.4646 18.9334 35.4646 13.9887C35.4646 9.04408 39.473 5.03566 44.4177 5.03566C49.3622 5.03566 53.3707 9.04408 53.3707 13.9887ZM49.8937 13.9887C49.8937 10.9643 47.4421 8.51257 44.4177 8.51257C41.3933 8.51257 38.9415 10.9643 38.9415 13.9887C38.9415 17.0131 41.3933 19.4648 44.4177 19.4648C47.4421 19.4648 49.8937 17.0131 49.8937 13.9887ZM34.0739 13.9887C34.0739 18.9334 30.0654 22.9418 25.1207 22.9418C20.1762 22.9418 16.1677 18.9334 16.1677 13.9887C16.1677 9.04408 20.1762 5.03566 25.1207 5.03566C30.0654 5.03566 34.0739 9.04408 34.0739 13.9887ZM30.5969 13.9887C30.5969 10.9643 28.1451 8.51257 25.1207 8.51257C22.0963 8.51257 19.6446 10.9643 19.6446 13.9887C19.6446 17.0131 22.0963 19.4648 25.1207 19.4648C28.1451 19.4648 30.5969 17.0131 30.5969 13.9887Z" fill="#0B5CFF"/>
</g>
</svg>
