<svg width="190" height="44" viewBox="0 0 190 44" fill="none" xmlns="http://www.w3.org/2000/svg">
<path d="M39.4962 42.8025H5.99115C3.7764 42.8025 1.67525 41.6216 0.653062 39.6054C-0.511093 37.301 -0.085182 34.5359 1.70363 32.7211L25.0152 9.07322H8.31945C3.71962 9.07322 0 5.29992 0 0.633685H30.8643C33.079 0.633685 35.1802 1.81464 36.2023 3.83091C37.3667 6.13522 36.9407 8.90039 35.1518 10.715L11.8403 34.363H31.1767C35.7765 34.363 39.4962 38.1363 39.4962 42.8025ZM172.097 0C167.298 0 162.981 2.10268 160.028 5.47274C157.048 2.10268 152.731 0 147.961 0C139.045 0 131.777 7.71944 131.777 16.735V42.8025C136.376 42.8025 140.096 39.0292 140.096 34.363V16.6486C140.096 12.2992 143.418 8.61236 147.677 8.43954C152.164 8.2667 155.883 11.9248 155.883 16.447V34.363C155.883 39.0292 159.603 42.8025 164.202 42.8025V16.6486C164.202 12.2992 167.525 8.61236 171.783 8.43954C176.27 8.2667 179.99 11.9248 179.99 16.447V34.363C179.99 39.0292 183.71 42.8025 188.308 42.8025V16.735C188.28 7.71944 181.012 0 172.097 0ZM81.4625 21.7181C81.4625 33.7006 71.8653 43.4363 60.0533 43.4363C48.2415 43.4363 38.6443 33.7006 38.6443 21.7181C38.6443 9.73568 48.2698 0 60.0533 0C71.837 0 81.4625 9.73568 81.4625 21.7181ZM73.143 21.7181C73.143 14.402 67.2655 8.43954 60.0533 8.43954C52.8413 8.43954 46.9637 14.402 46.9637 21.7181C46.9637 29.0344 52.8413 34.9968 60.0533 34.9968C67.2655 34.9968 73.143 29.0344 73.143 21.7181ZM127.603 21.7181C127.603 33.7006 118.006 43.4363 106.194 43.4363C94.3813 43.4363 84.7845 33.7006 84.7845 21.7181C84.7845 9.73568 94.4107 0 106.194 0C117.977 0 127.603 9.73568 127.603 21.7181ZM119.283 21.7181C119.283 14.402 113.406 8.43954 106.194 8.43954C98.982 8.43954 93.104 14.402 93.104 21.7181C93.104 29.0344 98.982 34.9968 106.194 34.9968C113.406 34.9968 119.283 29.0344 119.283 21.7181Z" fill="#0B5CFF"/>
</svg>
