<svg width="48" height="48" viewBox="0 0 48 48" fill="none" xmlns="http://www.w3.org/2000/svg">
<rect width="48" height="48" rx="6" fill="#FF8F40" fill-opacity="0.1"/>
<g clip-path="url(#clip0_1457_5290)">
<path fill-rule="evenodd" clip-rule="evenodd" d="M26.8661 15.6164C28.3898 14.0927 30.8602 14.0927 32.3839 15.6164C33.9076 17.1401 33.9076 19.6105 32.3839 21.1342L21.1339 32.3842C20.9737 32.5444 20.773 32.658 20.5532 32.713L15.5532 33.963C15.1272 34.0695 14.6766 33.9446 14.3661 33.6342C14.0557 33.3237 13.9309 32.8731 14.0373 32.4471L15.2873 27.4471C15.3423 27.2273 15.4559 27.0266 15.6161 26.8664L26.8661 15.6164ZM30.6161 17.3842C30.0688 16.8368 29.1813 16.8368 28.6339 17.3842L27.6428 18.3753L29.625 20.3575L30.6161 19.3664C31.1635 18.819 31.1635 17.9315 30.6161 17.3842ZM27.8573 22.1253L25.875 20.143L17.6287 28.3893L16.968 31.0323L19.611 30.3716L27.8573 22.1253Z" fill="#FF8F40"/>
</g>
<defs>
<clipPath id="clip0_1457_5290">
<rect width="20" height="20" fill="white" transform="translate(14 14)"/>
</clipPath>
</defs>
</svg>
