<svg width="448" height="254" viewBox="0 0 448 254" fill="none" xmlns="http://www.w3.org/2000/svg">
<g clip-path="url(#clip0_8088_166914)">
<path d="M356.5 254C392.675 254 422 251.761 422 249C422 246.239 392.675 244 356.5 244C320.325 244 291 246.239 291 249C291 251.761 320.325 254 356.5 254Z" fill="#EFEFEF"/>
<g clip-path="url(#clip1_8088_166914)">
<rect width="288" height="254" rx="4" fill="white"/>
<path d="M1 1H288V67H1V1Z" fill="#F5F5F5"/>
<path fill-rule="evenodd" clip-rule="evenodd" d="M1 66V67H288V66H1Z" fill="#CCCCCC"/>
<path d="M64.2864 25.3907C62.1648 23.2796 60.1405 21.2686 59.5374 19C58.9353 21.2686 56.91 23.2796 54.7894 25.3907C51.608 28.5542 48 32.14 48 37.5188C48 43.8595 53.1661 49 59.5385 49C65.9108 49 71.0769 43.8595 71.0769 37.5188C71.0759 32.1411 67.4689 28.5542 64.2864 25.3907ZM52.9041 40.1939C52.1962 40.1705 49.5859 35.6918 54.429 30.9238L57.635 34.4075C57.743 34.5129 57.7441 34.6863 57.6371 34.7927C57.6296 34.8002 57.6222 34.8076 57.6136 34.814C56.849 35.595 53.5885 38.8478 53.1832 39.9725C53.0998 40.2056 52.9779 40.196 52.9041 40.1939ZM59.5385 46.0962C57.3473 46.0962 55.57 44.3288 55.57 42.1475C55.57 41.1473 55.97 40.2567 56.5592 39.5395C57.2746 38.6691 59.5374 36.2207 59.5374 36.2207C59.5374 36.2207 61.766 38.7053 62.5102 39.532C63.1593 40.2492 63.5144 41.1834 63.5058 42.1485C63.5069 44.3277 61.7296 46.0962 59.5385 46.0962ZM67.1331 39.6927C67.0476 39.8789 66.854 40.1896 66.592 40.1992C66.1258 40.2162 66.0755 39.9779 65.7301 39.4703C64.973 38.3552 58.3622 31.4814 57.126 30.1513C56.0395 28.9819 56.9731 28.1573 57.4072 27.7253C57.9505 27.1837 59.5385 25.6046 59.5385 25.6046C59.5385 25.6046 64.2715 30.0726 66.2423 33.1253C68.2132 36.1781 67.5341 38.8212 67.1331 39.6927Z" fill="#009CDE"/>
<path d="M105.108 30.9697H102.71L102.714 35.4564C102.714 36.7676 102.152 37.8284 100.841 37.8284C99.529 37.8284 98.9617 36.7676 98.9617 35.4564V30.9741H96.57L96.5693 35.4564C96.5693 38.0474 98.2348 40.1474 100.826 40.1474C103.417 40.1474 105.107 38.0474 105.107 35.4564L105.108 30.9697Z" fill="#009CDE"/>
<path d="M129.117 28.2358H126.73V39.9158H129.117V28.2358Z" fill="#009CDE"/>
<path d="M130.879 28.457V28.2471H131.809V28.4569H131.469V29.3816H131.219V28.457H130.879Z" fill="#009CDE"/>
<path d="M132.29 28.2471L132.555 29.0272H132.559L132.809 28.2471H133.161V29.3816H132.927V28.5775H132.924L132.646 29.3816H132.454L132.176 28.5855H132.173V29.3816H131.939V28.2471H132.29Z" fill="#009CDE"/>
<path d="M94.6196 30.8722C92.5628 30.3975 91.2653 32.4409 91.2114 32.5504C91.1849 32.6042 91.1839 32.6355 91.0927 32.6331C91.0175 32.6316 91.0088 32.5504 91.0088 32.5504L90.7536 30.9873H88.6162V39.9081H91.0122V35.0795C91.0122 34.6849 92.0749 32.793 94.1336 33.28C95.1747 33.5263 95.6163 33.9681 95.6163 33.9681C95.6163 33.9681 95.6163 32.2462 95.6163 31.2506C95.231 31.0497 94.9667 30.9523 94.6196 30.8722Z" fill="#009CDE"/>
<path d="M108.36 42.8463V39.6365C108.36 39.6365 108.361 39.6368 108.361 39.637L108.361 38.435C108.361 38.435 108.365 38.3388 108.452 38.3376C108.529 38.3367 108.546 38.388 108.565 38.435C108.747 38.887 109.746 40.6093 111.963 40.0691C113.948 39.5099 115.404 37.6873 115.404 35.5227C115.404 32.9148 113.289 30.7998 110.681 30.7998C108.072 30.7998 105.958 32.9148 105.958 35.5227C105.958 35.5227 105.958 41.9791 105.958 42.8462L108.36 42.8463ZM110.683 33.1326C112.003 33.1326 113.074 34.2031 113.074 35.5228C113.074 36.8435 112.003 37.9142 110.683 37.9142C109.362 37.9142 108.292 36.8437 108.292 35.5228C108.292 34.2031 109.362 33.1326 110.683 33.1326Z" fill="#009CDE"/>
<path d="M123.359 39.912H125.762V35.5227C125.762 32.9148 123.647 30.7998 121.039 30.7998C118.43 30.7998 116.315 32.9148 116.315 35.5227C116.315 37.6872 117.771 39.5098 119.756 40.0691C121.974 40.6093 122.972 38.887 123.154 38.435C123.173 38.388 123.19 38.3368 123.268 38.3376C123.354 38.3388 123.358 38.435 123.358 38.435M123.427 35.5227C123.427 36.8434 122.357 37.9141 121.037 37.9141C119.716 37.9141 118.646 36.8435 118.646 35.5227C118.646 34.203 119.716 33.1325 121.037 33.1325C122.357 33.1325 123.427 34.203 123.427 35.5227Z" fill="#009CDE"/>
<path d="M81.1103 39.8935H78.3848V28.231H81.3092C84.8505 28.231 87.5363 28.8807 87.5363 34.0623C87.5363 39.1937 84.6913 39.8935 81.1103 39.8935ZM81.761 30.2525H80.7975V37.87L81.787 37.8953C83.8161 37.8953 85.1231 37.7106 85.1231 34.0622C85.1231 30.5634 83.9693 30.2525 81.761 30.2525Z" fill="#009CDE"/>
<rect x="0.5" y="0.5" width="287" height="253" rx="3.5" stroke="#333333"/>
</g>
<path d="M85.5215 93.5H44.5215C42.0362 93.5 40.0215 95.5147 40.0215 98V139C40.0215 141.485 42.0362 143.5 44.5215 143.5H85.5215C88.0068 143.5 90.0215 141.485 90.0215 139V98C90.0215 95.5147 88.0068 93.5 85.5215 93.5Z" fill="white" stroke="#CCCCCC"/>
<path fill-rule="evenodd" clip-rule="evenodd" d="M66.5954 117.453L80.0773 111.536C81.1982 111.03 81.2525 110.145 80.1589 109.604L66.9006 103.081C66.2465 102.755 65.3058 102.593 64.4134 102.624C63.8228 102.648 63.2548 102.758 62.8071 102.957L61.6093 103.485L49.3252 108.874C48.2043 109.379 48.15 110.265 49.238 110.807L55.1863 113.734L56.7498 114.504L62.4963 117.33C63.4281 117.899 65.3063 117.983 66.5954 117.453Z" fill="#5DC0E8"/>
<path fill-rule="evenodd" clip-rule="evenodd" d="M71.6103 116.688L69.2661 117.702L66.6082 118.848C65.4872 119.353 63.6091 119.27 62.5147 118.723L56.1192 115.523L54.5598 114.741L53.7893 114.355L49.1327 116.407C48.0118 116.913 47.9574 117.798 49.0454 118.34L51.5063 119.549L53.0754 120.318L62.3086 124.856C62.7179 125.058 63.2114 125.206 63.7511 125.272C64.5354 125.373 65.4022 125.322 66.2143 125.072C66.3353 125.037 66.45 124.998 66.5639 124.952L66.8984 124.805L68.5608 124.076L80.0458 119.035C81.1667 118.529 81.221 117.644 80.133 117.102L75.5993 114.942L71.6103 116.688Z" fill="#95C038"/>
<path fill-rule="evenodd" clip-rule="evenodd" d="M75.0815 122.545L68.6848 125.343L67.0329 126.065L66.2499 126.405C65.8406 126.592 65.3295 126.699 64.7908 126.728C64.0601 126.772 63.2829 126.681 62.6449 126.477C62.4716 126.419 62.3088 126.353 62.1564 126.28L53.6173 122.068L51.1084 123.176L48.9614 124.126C48.8804 124.161 48.8057 124.201 48.7311 124.241C48.6941 124.264 48.6572 124.287 48.6202 124.31C47.8377 124.827 47.9083 125.577 48.8742 126.06L48.9779 126.11L58.1138 130.603L59.8544 131.46L62.1381 132.581C63.2325 133.128 64.9425 133.235 66.0634 132.73L67.7531 131.991L69.3938 131.271L75.4006 128.633L79.5509 126.812C80.0524 126.588 80.3375 126.282 80.4051 125.972C80.4907 125.583 80.2372 125.177 79.6326 124.879L75.0815 122.545Z" fill="#FF6F3D"/>
<path fill-rule="evenodd" clip-rule="evenodd" d="M150.521 108C150.521 109.105 149.626 110 148.521 110H99.5215C98.4169 110 97.5215 109.105 97.5215 108C97.5215 106.895 98.4169 106 99.5215 106H148.521C149.626 106 150.521 106.895 150.521 108Z" fill="#E2E2E2"/>
<path fill-rule="evenodd" clip-rule="evenodd" d="M120.521 122C120.521 122.552 120.074 123 119.521 123H98.5215C97.9692 123 97.5215 122.552 97.5215 122C97.5215 121.448 97.9692 121 98.5215 121H119.521C120.074 121 120.521 121.448 120.521 122Z" fill="#E2E2E2"/>
<path fill-rule="evenodd" clip-rule="evenodd" d="M170.521 130C170.521 130.552 170.074 131 169.521 131H98.5215C97.9692 131 97.5215 130.552 97.5215 130C97.5215 129.448 97.9692 129 98.5215 129H169.521C170.074 129 170.521 129.448 170.521 130Z" fill="#E2E2E2"/>
<path fill-rule="evenodd" clip-rule="evenodd" d="M252.521 156.5C252.521 156.776 252.298 157 252.021 157H41.0215C40.7453 157 40.5215 156.776 40.5215 156.5C40.5215 156.224 40.7453 156 41.0215 156H252.021C252.298 156 252.521 156.224 252.521 156.5Z" fill="#CCCCCC"/>
<path fill-rule="evenodd" clip-rule="evenodd" d="M227.521 172C227.521 173.105 226.626 174 225.521 174H116.521C115.417 174 114.521 173.105 114.521 172C114.521 170.895 115.417 170 116.521 170H225.521C226.626 170 227.521 170.895 227.521 172Z" fill="#E2E2E2"/>
<path fill-rule="evenodd" clip-rule="evenodd" d="M164.521 183C164.521 183.552 164.074 184 163.521 184H115.521C114.969 184 114.521 183.552 114.521 183C114.521 182.448 114.969 182 115.521 182H163.521C164.074 182 164.521 182.448 164.521 183Z" fill="#EFEFEF"/>
<path fill-rule="evenodd" clip-rule="evenodd" d="M224.521 193C224.521 193.552 224.074 194 223.521 194H115.521C114.969 194 114.521 193.552 114.521 193C114.521 192.448 114.969 192 115.521 192H223.521C224.074 192 224.521 192.448 224.521 193Z" fill="#EFEFEF"/>
<path fill-rule="evenodd" clip-rule="evenodd" d="M201.521 203C201.521 203.552 201.074 204 200.521 204H115.521C114.969 204 114.521 203.552 114.521 203C114.521 202.448 114.969 202 115.521 202H200.521C201.074 202 201.521 202.448 201.521 203Z" fill="#EFEFEF"/>
<path fill-rule="evenodd" clip-rule="evenodd" d="M217.521 213C217.521 213.552 217.074 214 216.521 214H115.521C114.969 214 114.521 213.552 114.521 213C114.521 212.448 114.969 212 115.521 212H216.521C217.074 212 217.521 212.448 217.521 213Z" fill="#EFEFEF"/>
<path fill-rule="evenodd" clip-rule="evenodd" d="M84.5215 171C84.5215 171.552 84.0738 172 83.5215 172H46.5215C45.9692 172 45.5215 171.552 45.5215 171C45.5215 170.448 45.9692 170 46.5215 170H83.5215C84.0738 170 84.5215 170.448 84.5215 171Z" fill="#EFEFEF"/>
<path fill-rule="evenodd" clip-rule="evenodd" d="M84.5215 181C84.5215 181.552 84.0738 182 83.5215 182H46.5215C45.9692 182 45.5215 181.552 45.5215 181C45.5215 180.448 45.9692 180 46.5215 180H83.5215C84.0738 180 84.5215 180.448 84.5215 181Z" fill="#EFEFEF"/>
<path fill-rule="evenodd" clip-rule="evenodd" d="M84.5215 191C84.5215 191.552 84.0738 192 83.5215 192H46.5215C45.9692 192 45.5215 191.552 45.5215 191C45.5215 190.448 45.9692 190 46.5215 190H83.5215C84.0738 190 84.5215 190.448 84.5215 191Z" fill="#EFEFEF"/>
<path fill-rule="evenodd" clip-rule="evenodd" d="M84.5215 201C84.5215 201.552 84.0738 202 83.5215 202H46.5215C45.9692 202 45.5215 201.552 45.5215 201C45.5215 200.448 45.9692 200 46.5215 200H83.5215C84.0738 200 84.5215 200.448 84.5215 201Z" fill="#EFEFEF"/>
<path fill-rule="evenodd" clip-rule="evenodd" d="M84.5215 211C84.5215 211.552 84.0738 212 83.5215 212H46.5215C45.9692 212 45.5215 211.552 45.5215 211C45.5215 210.448 45.9692 210 46.5215 210H83.5215C84.0738 210 84.5215 210.448 84.5215 211Z" fill="#EFEFEF"/>
<rect x="186.5" y="94.5" width="65.5213" height="45.5213" rx="3.5" fill="#F9F9F9"/>
<rect x="186.5" y="94.5" width="65.5213" height="45.5213" rx="3.5" stroke="#CCCCCC"/>
<path fill-rule="evenodd" clip-rule="evenodd" d="M212.87 127.205C211.913 128.162 210.342 128.142 209.361 127.16C208.38 126.179 208.36 124.608 209.317 123.651L211.296 121.671C211.513 121.455 211.677 121.179 211.683 120.869L211.865 110.308C211.866 110.245 211.899 109.9 211.922 109.877L213.879 107.92C214.426 107.373 215.324 107.384 215.884 107.945L228.576 120.637C229.137 121.198 229.148 122.095 228.602 122.642L226.964 124.28C226.779 124.465 226.475 124.652 226.213 124.656L215.652 124.839C215.342 124.844 215.067 125.008 214.85 125.225L212.87 127.205ZM220.936 111.017L217.89 107.971L222.306 103.554C223.148 102.713 224.511 102.713 225.352 103.554C226.194 104.395 226.194 105.759 225.352 106.6L220.936 111.017ZM228.551 118.632L225.505 115.586L229.922 111.169C230.763 110.328 232.126 110.328 232.968 111.169C233.809 112.01 233.809 113.374 232.968 114.215L228.551 118.632Z" fill="#5399DF"/>
<path d="M446.237 2.5249H362.301V54.5948H446.237V2.5249Z" fill="white" stroke="#EBEBEB" stroke-width="0.75" stroke-miterlimit="22.9256"/>
<path d="M382.015 23.8579H379.113V45.6757H382.015V23.8579Z" fill="#EBEBEB"/>
<path d="M393.384 13.9741H390.483V45.6711H393.384V13.9741Z" fill="#EBEBEB"/>
<path d="M404.87 28.6826H401.968V45.676H404.87V28.6826Z" fill="#EBEBEB"/>
<path d="M416.364 21.3281H413.463V45.5557H416.364V21.3281Z" fill="#EBEBEB"/>
<path fill-rule="evenodd" clip-rule="evenodd" d="M427.854 26.2681H424.828V45.6761H427.734V26.2681H427.854Z" fill="#EBEBEB"/>
<path d="M376.207 12.6494H373.306V45.6761H376.207V12.6494Z" fill="#E0E0E0"/>
<path d="M387.577 16.7485H384.676V45.7957H387.577V16.7485Z" fill="#E0E0E0"/>
<path d="M399.067 24.583H396.166V45.6759H399.067V24.583Z" fill="#E0E0E0"/>
<path d="M410.557 16.0239H407.655V45.676H410.557V16.0239Z" fill="#E0E0E0"/>
<path d="M422.047 17.1089H419.146V45.676H422.047V17.1089Z" fill="#E0E0E0"/>
<path d="M433.536 22.5332H430.635V45.6759H433.536V22.5332Z" fill="#E0E0E0"/>
<path d="M447.567 0.235352H360V3.12999H447.567V0.235352Z" fill="#EBEBEB"/>
<path d="M429.844 62.7412H386.545V99.9827H429.844V62.7412Z" fill="#F5F5F5"/>
<path fill-rule="evenodd" clip-rule="evenodd" d="M389.207 97.3331V61.4165H431.295V97.4531H389.207V97.3331Z" stroke="#E0E0E0" stroke-width="0.75" stroke-miterlimit="22.9256"/>
<path fill-rule="evenodd" clip-rule="evenodd" d="M394.408 75.5151H392.473V77.4449H394.408V75.5151ZM399.366 75.5151H397.43V77.4449H399.366V75.5151ZM402.267 75.5151H404.203V77.4449H402.267V75.5151ZM409.16 75.5151H407.224V77.4449H409.16V75.5151ZM412.186 75.5151H414.122V77.4449H412.186V75.5151ZM418.959 75.5151H417.023V77.4449H418.959V75.5151ZM421.98 75.5151H423.916V77.4449H421.98V75.5151ZM394.408 79.3747H392.473V81.3044H394.408V79.3747ZM397.43 79.3747H399.366V81.3044H397.43V79.3747ZM404.323 79.3747H402.387V81.3044H404.323V79.3747ZM407.229 79.3747H409.165V81.3044H407.229V79.3747ZM414.122 79.3747H412.186V81.3044H414.122V79.3747ZM417.023 79.3747H418.959V81.3044H417.023V79.3747ZM423.916 79.3747H421.98V81.3044H423.916V79.3747ZM392.473 83.3494H394.408V85.2791H392.473V83.3494ZM399.366 83.3494H397.43V85.2791H399.366V83.3494ZM402.267 83.3494H404.203V85.2791H402.267V83.3494ZM409.16 83.3494H407.224V85.2791H409.16V83.3494ZM412.186 83.3494H414.122V85.2791H412.186V83.3494ZM418.959 83.3494H417.023V85.2791H418.959V83.3494ZM421.98 83.3494H423.916V85.2791H421.98V83.3494ZM394.408 87.2089H392.473V89.2587H394.408V87.2089ZM397.43 87.2089H399.366V89.2587H397.43V87.2089ZM404.323 87.2089H402.387V89.2587H404.323V87.2089ZM407.229 87.2089H409.165V89.2587H407.229V87.2089ZM414.122 87.2089H412.186V89.2587H414.122V87.2089ZM417.023 87.2089H418.959V89.2587H417.023V87.2089ZM423.916 87.2089H421.98V89.2587H423.916V87.2089ZM392.473 91.1836H394.408V93.1134H392.473V91.1836ZM399.366 91.1836H397.43V93.1134H399.366V91.1836ZM402.267 91.1836H404.203V93.1134H402.267V91.1836ZM409.16 91.1836H407.224V93.1134H409.16V91.1836ZM412.186 91.1836H414.122V93.1134H412.186V91.1836ZM418.959 91.1836H417.023V93.1134H418.959V91.1836ZM421.98 91.1836H423.916V93.1134H421.98V91.1836Z" fill="#E0E0E0"/>
<path d="M424.041 69.6108H392.593V70.5757H424.041V69.6108Z" fill="#E0E0E0"/>
<path fill-rule="evenodd" clip-rule="evenodd" d="M347.97 47.5048C347.629 49.3386 346.98 51.9068 345.832 52.5356C345.054 52.9677 343.863 52.2812 342.042 49.2665C343.868 49.1753 345.818 48.6377 347.552 47.7304C347.691 47.6584 347.831 47.5816 347.97 47.5048ZM339.424 49.0601C338.55 50.1066 337.767 50.8171 337.085 51.2827C336.072 51.9692 335.375 52.0748 334.986 51.9404C334.655 51.8204 334.487 51.2587 334.424 50.5531C334.309 49.3098 334.544 47.7592 334.731 46.8952C335.092 46.8471 335.466 46.7991 335.846 46.7607L336.038 47.0296C336.845 48.0809 338.036 48.7433 339.424 49.0601Z" fill="#CCCCCC"/>
<path fill-rule="evenodd" clip-rule="evenodd" d="M335.897 46.647L336.124 46.9652C336.913 47.9913 338.079 48.6424 339.448 48.9548L339.62 48.9941L339.507 49.1294C338.628 50.1814 337.838 50.8993 337.146 51.3719C336.124 52.0636 335.389 52.1941 334.95 52.0424L334.949 52.0419C334.737 51.9653 334.597 51.7565 334.503 51.5042C334.407 51.2476 334.348 50.92 334.316 50.5628C334.199 49.3031 334.437 47.74 334.626 46.8723L334.642 46.7981L334.717 46.7881C335.077 46.74 335.453 46.6919 335.835 46.6533L335.897 46.647ZM334.821 46.9922C334.637 47.8646 334.421 49.3507 334.531 50.5431C334.562 50.8915 334.619 51.1978 334.705 51.4284C334.793 51.6629 334.902 51.7948 335.022 51.8385C335.361 51.9553 336.019 51.874 337.024 51.1934C337.667 50.7546 338.405 50.0922 339.229 49.1243C337.895 48.7887 336.744 48.127 335.952 47.0953L335.95 47.0924L335.794 46.8746C335.464 46.9089 335.137 46.9502 334.821 46.9922ZM348.117 47.2999L348.076 47.5245C347.905 48.4435 347.656 49.5509 347.305 50.5092C347.129 50.9884 346.927 51.4334 346.693 51.8001C346.461 52.1657 346.193 52.4609 345.884 52.6303C345.44 52.8762 344.9 52.7857 344.261 52.2782C343.623 51.7716 342.862 50.833 341.95 49.3224L341.856 49.1677L342.037 49.1587C343.846 49.0683 345.781 48.5351 347.501 47.6347C347.639 47.5635 347.778 47.4871 347.917 47.4102L348.117 47.2999ZM347.821 47.7096C347.748 47.7493 347.675 47.7884 347.601 47.8262C345.911 48.7105 344.017 49.2467 342.228 49.364C343.094 50.777 343.809 51.6433 344.395 52.109C345.001 52.5901 345.445 52.627 345.779 52.4412C346.044 52.2962 346.289 52.0342 346.511 51.6842C346.733 51.3351 346.929 50.9056 347.102 50.4349C347.419 49.5693 347.653 48.5752 347.821 47.7096Z" fill="#CCCCCC"/>
<path fill-rule="evenodd" clip-rule="evenodd" d="M348.037 24.0306C348.075 22.216 348.008 20.6991 347.859 19.4366C347.672 17.8957 347.35 16.71 346.927 15.8123C346.615 15.1498 346.144 14.5114 345.573 13.9977C345.03 13.5033 344.386 13.1097 343.695 12.8984C342.83 12.6344 341.989 12.6872 341.173 12.9369C340.409 13.1673 339.679 13.5705 338.963 14.0409C338.608 14.2714 338.3 14.4922 338.007 14.7034C336.792 15.5723 335.822 16.2683 334.078 15.7979C333.958 15.7643 333.843 15.7067 333.747 15.6251C333.607 15.5051 333.497 15.3418 333.439 15.1498C333.377 14.9434 333.372 14.7034 333.444 14.4346C333.516 14.1562 333.679 13.8537 333.944 13.5417L333.977 13.4937C334.073 13.3593 334.193 13.2249 334.333 13.0905C335.505 11.948 337.844 11.0647 340.505 10.8823C343.185 10.6999 346.164 11.2519 348.565 12.9897C349.026 13.3209 349.464 13.6953 349.877 14.1225C350.852 15.1258 351.601 16.5227 351.99 18.4237C352.326 20.0702 352.394 22.0912 352.105 24.5586C351.971 24.3138 351.808 24.0978 351.615 23.9154C351.246 23.5697 350.775 23.3585 350.218 23.3297C349.598 23.2961 348.863 23.5025 348.037 24.0306Z" fill="#666666"/>
<path fill-rule="evenodd" clip-rule="evenodd" d="M348.502 13.0772C346.126 11.3579 343.175 10.8089 340.512 10.9901C337.865 11.1716 335.555 12.0502 334.408 13.1679C334.272 13.2989 334.157 13.4286 334.065 13.5562L334.026 13.6119C333.77 13.9149 333.616 14.2028 333.549 14.4617C333.481 14.7135 333.487 14.9337 333.543 15.1186C333.594 15.2903 333.693 15.4362 333.817 15.5431C333.9 15.6132 334 15.6639 334.107 15.6938C334.958 15.9234 335.613 15.8673 336.204 15.6515C336.8 15.4337 337.334 15.0521 337.944 14.6157C338.237 14.4046 338.546 14.1825 338.904 13.9506C339.623 13.4778 340.363 13.0683 341.141 12.8336C341.975 12.579 342.837 12.5238 343.726 12.7952C344.435 13.0118 345.093 13.4144 345.645 13.9177C346.227 14.4409 346.707 15.0909 347.025 15.7663C347.454 16.6775 347.778 17.8753 347.966 19.4236C348.111 20.6458 348.178 22.1037 348.149 23.8347C348.92 23.375 349.619 23.1892 350.224 23.2219C350.806 23.2521 351.301 23.4737 351.689 23.8365C351.816 23.9567 351.931 24.091 352.033 24.2369C352.279 21.918 352.204 20.0091 351.884 18.4454C351.499 16.5615 350.758 15.1842 349.799 14.1979C349.391 13.7754 348.958 13.4048 348.502 13.0772ZM348.629 12.9021C346.201 11.1461 343.196 10.591 340.498 10.7746C337.823 10.9579 335.455 11.8458 334.258 13.013C334.115 13.1506 333.99 13.2899 333.889 13.431L333.858 13.4758C333.588 13.7953 333.416 14.1105 333.34 14.4071C333.263 14.6928 333.267 14.9533 333.336 15.1811C333.4 15.3933 333.522 15.5739 333.676 15.707C333.785 15.7998 333.916 15.8647 334.049 15.902L334.05 15.9022C334.942 16.143 335.643 16.0863 336.278 15.8544C336.903 15.6261 337.458 15.2291 338.058 14.7999L338.07 14.7913C338.363 14.5801 338.669 14.3605 339.022 14.1316C339.734 13.6636 340.455 13.2664 341.204 13.0403C342.004 12.7958 342.823 12.7452 343.663 13.0018C344.337 13.2077 344.967 13.5922 345.5 14.0777C346.061 14.5817 346.524 15.209 346.83 15.8584C347.246 16.7425 347.566 17.9161 347.752 19.4495C347.9 20.706 347.967 22.2177 347.929 24.0284L347.925 24.2306L348.095 24.1216C348.908 23.6019 349.621 23.4056 350.212 23.4376C350.743 23.4651 351.19 23.6658 351.542 23.994C351.725 24.1681 351.881 24.3749 352.011 24.6107L352.174 24.9069L352.213 24.5712C352.502 22.0955 352.435 20.0626 352.096 18.4022C351.704 16.4843 350.946 15.0678 349.954 14.0476C349.537 13.6156 349.095 13.237 348.629 12.9021Z" fill="#666666"/>
<path fill-rule="evenodd" clip-rule="evenodd" d="M332.334 14.7754C331.47 15.7451 330.763 16.9884 330.23 18.4141C329.073 21.5247 328.732 25.5283 329.366 29.3542C330.005 33.2137 331.638 36.9196 334.409 39.3966C335.485 40.3567 336.734 41.1344 338.161 41.6672C338.372 41.7488 341.518 42.6321 345.256 39.4206C347.1 37.8317 349.132 35.2251 351.068 30.9863L349.742 30.3815C347.907 34.4042 346.015 36.8476 344.309 38.3117C341.182 41 338.824 40.3567 338.67 40.2991C337.421 39.8383 336.331 39.1566 335.389 38.3117C332.882 36.0699 331.402 32.6761 330.812 29.119C330.216 25.5331 330.528 21.7984 331.599 18.9229C332.07 17.6652 332.68 16.5755 333.425 15.7451L332.334 14.7754Z" fill="#333333"/>
<path fill-rule="evenodd" clip-rule="evenodd" d="M348.003 25.0675C348.095 22.7825 348.037 20.9296 347.854 19.4366C347.667 17.8957 347.345 16.71 346.922 15.8123C346.61 15.1499 346.14 14.5114 345.568 13.9978C345.025 13.5034 344.381 13.1097 343.69 12.8985C342.825 12.6345 341.985 12.6873 341.168 12.9369C340.404 13.1673 339.674 13.5706 338.958 14.041C338.603 14.2714 338.295 14.4922 338.002 14.7035C336.787 15.5723 335.817 16.2684 334.073 15.7979C333.953 15.7643 333.838 15.7067 333.742 15.6251C333.602 15.5051 333.492 15.3419 333.434 15.1499C333.372 14.9435 333.367 14.7035 333.439 14.4346C333.511 14.1562 333.675 13.8538 333.939 13.5418L333.972 13.4938C334.068 13.3593 334.189 13.2249 334.328 13.0905C335.5 11.948 337.839 11.0648 340.5 10.8823C343.181 10.6999 346.159 11.252 348.56 12.9897C349.022 13.3209 349.459 13.6954 349.872 14.1226C350.847 15.1259 351.596 16.5228 351.985 18.4238C352.346 20.1951 352.394 22.3937 352.033 25.1155L351.981 25.5283C351.798 26.9541 351.683 27.8421 350.804 29.0614C350.679 29.2343 350.535 29.4215 350.367 29.6231C350.223 29.8007 350.054 29.9927 349.862 30.1943L350.03 30.7992L350.929 31.188C351.116 30.9864 351.303 30.7752 351.486 30.5496C351.654 30.3479 351.817 30.1367 351.981 29.9111C353.071 28.3942 353.205 27.3669 353.422 25.7156L353.474 25.3027C353.859 22.4129 353.801 20.0511 353.407 18.1309C352.96 15.9324 352.072 14.2954 350.909 13.1049C350.439 12.6201 349.934 12.1929 349.406 11.8088C346.697 9.84546 343.373 9.22621 340.39 9.42783C337.388 9.62944 334.698 10.6807 333.295 12.044C333.113 12.2217 332.949 12.4089 332.805 12.6009C332.392 13.0857 332.137 13.5802 332.013 14.0554C331.868 14.5979 331.888 15.1163 332.027 15.5723C332.171 16.0428 332.44 16.4412 332.786 16.734C333.05 16.9548 333.357 17.1181 333.684 17.2093C336.095 17.8573 337.311 16.9836 338.843 15.8892C339.136 15.6827 339.439 15.4619 339.746 15.2603C340.356 14.8571 340.971 14.5162 341.581 14.329C342.138 14.161 342.695 14.1226 343.253 14.2906C343.723 14.4346 344.175 14.7131 344.569 15.0731C344.996 15.4619 345.352 15.942 345.587 16.4316C345.947 17.1901 346.221 18.2269 346.389 19.6047C346.548 20.9248 346.61 22.5377 346.548 24.5011L346.918 25.0195L348.003 25.0675Z" fill="#333333"/>
<path fill-rule="evenodd" clip-rule="evenodd" d="M347.682 25.519C348.705 24.6165 349.541 24.2661 350.175 24.2949C350.492 24.3093 350.751 24.4293 350.958 24.6165C351.179 24.8229 351.337 25.1157 351.433 25.4662C351.688 26.3782 351.496 27.6311 350.775 28.7592C350.592 29.0473 350.285 29.3689 349.91 29.6281C349.728 29.7529 349.531 29.8585 349.329 29.9353C348.565 30.2186 348.945 31.0586 349.406 30.9338C349.786 30.8282 350.146 30.6506 350.463 30.4346C350.948 30.1034 351.351 29.6713 351.596 29.2873C352.471 27.9192 352.692 26.3686 352.375 25.2117C352.23 24.6885 351.976 24.2373 351.62 23.9108C351.251 23.5652 350.78 23.354 350.223 23.3252C349.344 23.282 348.239 23.714 346.971 24.8469C346.519 25.2549 347.067 26.0614 347.682 25.519Z" fill="#333333"/>
<path fill-rule="evenodd" clip-rule="evenodd" d="M349.435 25.9988C349.579 25.97 349.704 25.97 349.81 25.994C349.93 26.0228 350.026 26.09 350.083 26.1812C350.151 26.2916 350.189 26.4404 350.189 26.6132C350.189 26.9733 350.04 27.4341 349.733 27.9093C349.627 28.0726 349.454 28.2598 349.238 28.4038C349.156 28.4614 349.065 28.5142 348.969 28.5526C348.455 28.7734 348.623 29.191 349.036 29.047C349.204 28.9894 349.368 28.903 349.512 28.807C349.781 28.6246 350.006 28.3846 350.141 28.1734C350.496 27.6165 350.674 27.0645 350.674 26.6132C350.674 26.3444 350.612 26.1044 350.492 25.9172C350.362 25.7156 350.17 25.5764 349.915 25.5187C349.766 25.4851 349.593 25.4803 349.396 25.5091C348.758 25.6148 348.83 26.1188 349.435 25.9988Z" fill="#333333"/>
<path fill-rule="evenodd" clip-rule="evenodd" d="M348.935 46.4723L348.397 35.561L346.937 35.6282L347.48 46.5395L348.935 46.4723Z" fill="#333333"/>
<path fill-rule="evenodd" clip-rule="evenodd" d="M337.157 46.4147L337.954 40.563L336.508 40.3662L335.706 46.2179L337.157 46.4147Z" fill="#333333"/>
<path fill-rule="evenodd" clip-rule="evenodd" d="M348.234 45.8774L348.219 45.959C348.022 47.2936 347.379 51.6859 345.832 52.5356C344.967 53.0156 343.594 52.1179 341.413 48.172L340.13 48.8729C342.844 53.7885 344.948 54.691 346.533 53.8125C348.719 52.6076 349.444 47.6632 349.665 46.1655L349.68 46.0839L348.234 45.8774Z" fill="#333333"/>
<path fill-rule="evenodd" clip-rule="evenodd" d="M333.435 46.0454C333.238 46.7559 332.805 48.964 332.969 50.6874C333.084 51.9211 333.512 52.9628 334.501 53.3132C335.25 53.5772 336.437 53.486 337.907 52.4875C338.896 51.8107 340.063 50.7018 341.356 48.9592L340.184 48.0904C338.997 49.6841 337.955 50.6874 337.08 51.2826C336.067 51.9691 335.37 52.0747 334.981 51.9403C334.65 51.8203 334.482 51.2586 334.419 50.553C334.275 49.0361 334.664 47.0727 334.837 46.439L333.435 46.0454Z" fill="#333333"/>
<path fill-rule="evenodd" clip-rule="evenodd" d="M338.665 29.3782C336.278 30.3238 335.437 29.2149 335.471 28.1829C335.509 26.7907 336.816 27.0692 336.551 24.813C337.685 26.4019 335.13 28.1637 336.657 28.9941C336.984 29.1717 337.503 29.3542 338.665 29.3782Z" fill="#333333"/>
<path fill-rule="evenodd" clip-rule="evenodd" d="M337.388 32.7339C340.179 34.9853 341.192 30.9914 341.682 30.377C341.543 35.3358 337.738 34.9901 337.388 32.7339Z" fill="#333333"/>
<path fill-rule="evenodd" clip-rule="evenodd" d="M339.568 23.9923C341.053 20.4832 344.991 22.485 345.006 24.3619C344.819 24.1555 343.992 23.6611 343.522 23.6035C343.358 25.6916 340.861 26.1285 340.188 23.9011C339.924 23.8867 339.765 23.8723 339.568 23.9923Z" fill="#333333"/>
<path fill-rule="evenodd" clip-rule="evenodd" d="M331.076 23.8434C332.425 20.2815 336.441 22.1345 336.528 24.0115C336.331 23.8146 335.49 23.349 335.015 23.3106C334.933 25.4036 332.45 25.9316 331.695 23.733C331.426 23.7234 331.268 23.7186 331.076 23.8434Z" fill="#333333"/>
<path fill-rule="evenodd" clip-rule="evenodd" d="M281.946 43.842C281.158 40.3425 281.36 39.3296 281.658 37.8511L281.701 37.6447C281.792 37.1838 281.931 36.6702 282.061 36.1805C282.325 35.1821 282.565 34.2796 282.45 33.6219C282.306 32.7915 281.826 32.3642 280.774 32.5466C279.069 32.8395 278.252 34.4188 277.565 35.7389C277.2 36.4446 276.893 37.035 276.801 37.0206C276.705 36.987 276.609 36.9438 276.513 36.891C276.407 36.8334 276.302 36.7566 276.186 36.675C275.985 36.5262 275.653 36.2333 275.245 35.8781C272.934 33.8427 268.395 29.844 265.239 32.513C264.365 33.2523 263.904 34.6924 264.389 36.6846C264.745 38.1343 265.609 39.9248 267.209 41.9842C267.271 42.061 267.54 42.3586 268.112 42.7859C268.419 43.0115 268.827 43.2899 269.37 43.6116C269.927 43.9428 270.59 44.1876 271.388 44.4852C272.584 44.9317 274.111 45.4981 275.898 46.5926L276.662 45.3493C274.75 44.178 273.155 43.5827 271.897 43.1171C271.157 42.8435 270.547 42.6131 270.115 42.3586C269.63 42.0706 269.26 41.821 268.981 41.6146C268.558 41.3026 268.4 41.1393 268.366 41.0961C266.901 39.2048 266.118 37.6111 265.806 36.3486C265.465 34.9612 265.696 34.0444 266.181 33.6315C268.371 31.7786 272.286 35.2253 274.275 36.9774C274.702 37.3518 275.048 37.6591 275.312 37.8559C275.466 37.9663 275.624 38.0719 275.788 38.1679C275.965 38.2687 276.148 38.3503 276.335 38.4127C277.603 38.8256 278.17 37.7311 278.852 36.4158C279.386 35.3885 280.024 34.1644 281.009 33.9916C281.019 33.9916 280.995 33.8043 281.004 33.8763C281.062 34.222 280.86 34.9804 280.639 35.8205C280.51 36.3102 280.375 36.8238 280.265 37.3758L280.221 37.5823C279.885 39.248 279.659 40.3857 280.51 44.1732L281.946 43.842Z" fill="#333333"/>
<path fill-rule="evenodd" clip-rule="evenodd" d="M278.132 44.1827C277.44 44.4563 276.777 44.7635 276.253 45.09C274.524 44.0771 273.059 43.5346 271.897 43.1026C271.157 42.829 270.547 42.5985 270.115 42.3441C269.629 42.0561 269.26 41.8065 268.981 41.6001C268.558 41.288 268.4 41.1248 268.366 41.0816C268.232 40.9088 268.107 40.7408 267.982 40.5728C266.762 38.9022 266.084 37.4813 265.806 36.3292C265.465 34.9419 265.695 34.025 266.181 33.6122C266.401 33.425 266.642 33.2906 266.891 33.2042C269.139 32.4361 272.483 35.3787 274.274 36.9581C274.702 37.3325 275.048 37.6397 275.312 37.8366C275.466 37.947 275.624 38.0526 275.787 38.1486C275.965 38.2494 276.148 38.331 276.335 38.3934C277.603 38.8062 278.17 37.7117 278.852 36.3964C279.385 35.3691 280.024 34.145 281.014 33.9722C281.018 34.3515 280.841 35.0427 280.639 35.8012C280.509 36.2908 280.375 36.8045 280.264 37.3565L280.221 37.5629C279.909 39.1231 279.688 40.2175 280.356 43.453C279.673 43.6354 278.881 43.8899 278.132 44.1827Z" fill="#FEFEFE"/>
<path fill-rule="evenodd" clip-rule="evenodd" d="M340.587 88.6872C339.424 88.476 338.305 88.0631 336.778 87.2999C335.706 86.7622 334.837 86.2006 334.14 85.6341C333.545 85.1493 333.074 84.6596 332.714 84.1748C332.877 85.7349 333.309 87.4535 333.886 89.1768C334.712 91.6442 335.826 94.1212 336.874 96.195C337.378 94.8125 338.05 93.3484 338.805 91.889C339.367 90.8042 339.972 89.7241 340.587 88.6872Z" fill="#FF6F3D"/>
<path fill-rule="evenodd" clip-rule="evenodd" d="M332.324 83.1753L332.941 84.0059C333.286 84.4693 333.739 84.9422 334.319 85.4143M332.324 83.1753L332.432 84.2044L332.324 83.1753ZM334.155 89.0869C333.697 87.7198 333.334 86.3621 333.124 85.0902L334.155 89.0869ZM333.124 85.0902C333.372 85.3463 333.651 85.6013 333.962 85.8541L333.962 85.8542C334.676 86.4355 335.564 87.0079 336.65 87.5533L336.651 87.5535C338.022 88.2384 339.08 88.6504 340.14 88.8863C339.593 89.8213 339.056 90.7879 338.553 91.7588L338.553 91.759C337.904 93.0138 337.314 94.2754 336.838 95.4889C335.882 93.5492 334.9 91.3125 334.155 89.087M332.432 84.2044C332.598 85.7922 333.037 87.5321 333.617 89.2669L332.432 84.2044ZM334.319 85.4144C334.998 85.9659 335.849 86.5167 336.904 87.0465C338.419 87.8031 339.511 88.2038 340.637 88.4084L341.038 88.4813L340.831 88.8319C340.218 89.8648 339.616 90.9401 339.056 92.0195C338.306 93.4719 337.639 94.9245 337.14 96.2923L336.916 96.9071L336.621 96.3229C335.57 94.2415 334.449 91.7514 333.617 89.2669L333.617 89.2669" fill="#FF6F3D"/>
<path fill-rule="evenodd" clip-rule="evenodd" d="M332.642 82.8018C332.627 84.6883 333.137 86.9253 333.886 89.1767C334.712 91.6441 335.827 94.1211 336.874 96.1949C337.378 94.8123 338.051 93.3482 338.805 91.8889C340.13 89.3303 341.706 86.7861 343.085 84.7507L344.213 85.5092C342.854 87.5157 341.302 90.0168 340.01 92.513C339.002 94.4667 338.147 96.4205 337.671 98.1294L337.22 99.7568L336.417 98.2686C335.159 95.926 333.646 92.7674 332.594 89.6135C331.801 87.2373 331.263 84.8563 331.278 82.8066L332.642 82.8018Z" fill="#333333"/>
<path fill-rule="evenodd" clip-rule="evenodd" d="M325.831 63.5715C323.539 66.7637 319.658 70.4072 315.527 72.9418C311.934 75.1452 308.178 76.4941 305.209 75.9229C304.883 75.8605 303.499 75.4093 301.318 71.953C299.046 68.3479 296.102 61.6465 292.999 49.2087C293.465 49.0071 294.089 48.8199 294.742 48.671C295.674 48.455 296.654 48.311 297.38 48.2582C297.841 49.3527 298.335 50.6056 298.849 51.9065C300.934 57.2013 303.365 63.3795 307.352 67.5798L307.784 68.0358L308.298 67.6758C309.643 66.7397 313.231 62.501 316.565 58.5551C319.298 55.3244 321.858 52.2953 322.732 51.5993C323.981 50.6008 325.528 49.5639 327.675 48.6854C329.745 47.8358 332.378 47.1349 335.846 46.7557L336.038 47.0245C337.176 48.5174 339.088 49.2231 341.231 49.2759C343.277 49.3239 345.558 48.7719 347.552 47.7302C348.109 47.4421 348.642 47.1157 349.142 46.7557C351.409 47.1925 354.599 48.599 357.658 50.3848C360.747 52.1849 363.672 54.3547 365.368 56.2989C366.021 58.075 366.795 60.0672 367.616 62.1938C371.833 73.0763 377.458 87.5879 375.412 95.1581C375.398 95.2061 375.133 95.5709 373.678 95.7677C372.737 95.8925 371.387 95.8781 369.461 95.5421C367.39 95.1821 364.623 94.318 361.05 92.9403C357.433 91.5482 353.009 89.6376 347.662 87.199L347.057 88.5239C352.442 90.9817 356.895 92.9019 360.526 94.3036C364.201 95.7197 367.059 96.6078 369.22 96.9822C371.305 97.3423 372.804 97.3567 373.88 97.2126C376.195 96.9006 376.786 95.7053 376.829 95.5421C379 87.5159 373.275 72.745 368.98 61.6705C368.14 59.5007 367.352 57.475 366.694 55.6748L366.646 55.55L366.559 55.4492C364.772 53.3562 361.66 51.028 358.393 49.1223C355.065 47.1781 351.539 45.6612 349.075 45.2628L348.767 45.2148L348.517 45.4068C348.003 45.7956 347.456 46.146 346.879 46.4437C345.097 47.3701 343.075 47.8694 341.264 47.8214C339.549 47.7782 338.051 47.2501 337.2 46.1412C337.08 45.9828 336.975 45.8196 336.883 45.6468L336.653 45.21L336.163 45.258C332.31 45.6372 329.4 46.4005 327.123 47.3365C324.827 48.2774 323.165 49.3911 321.824 50.4616C320.821 51.2633 318.222 54.3355 315.45 57.6142C312.549 61.0465 309.446 64.714 307.952 66.0725C304.431 62.0882 302.164 56.3325 300.214 51.3737C299.647 49.9287 299.104 48.551 298.528 47.2213L298.335 46.7797H297.855C297.034 46.7845 295.674 46.9573 294.425 47.2453C293.378 47.4901 292.379 47.8214 291.764 48.215L291.327 48.4982L291.452 49.0023C294.651 61.9777 297.725 68.9671 300.094 72.7306C302.591 76.6958 304.489 77.2718 304.945 77.3582C308.307 78.0063 312.419 76.5613 316.296 74.1851C320.624 71.5305 324.702 67.6902 327.089 64.3251C327.901 63.1826 326.695 62.3714 325.831 63.5715Z" fill="#333333"/>
<path fill-rule="evenodd" clip-rule="evenodd" d="M365.363 56.2943C366.016 58.0705 366.789 60.0627 367.611 62.1892C371.828 73.0717 377.453 87.5833 375.407 95.1535C375.393 95.2015 375.128 95.5664 373.673 95.7632C372.731 95.888 371.382 95.8736 369.455 95.5376C367.385 95.1775 364.618 94.3135 361.045 92.9358C357.596 91.6061 353.412 89.8059 348.392 87.5257C348.973 87.0937 349.497 86.5752 349.958 85.9992C350.304 85.5672 350.611 85.1063 350.885 84.6215C353.018 85.2743 356.159 85.9992 359.224 86.5608C361.976 87.0697 364.676 87.4489 366.54 87.5353C367.693 87.5881 367.851 86.1336 366.554 86.0712C366.4 86.0616 366.247 86.0568 366.083 86.0424C365.502 85.3223 364.047 82.8837 362.606 80.2627C361.237 77.7665 359.896 75.1311 359.358 73.667C359.407 71.3772 359.522 69.0586 359.7 66.7064C359.786 65.5783 358.335 65.3431 358.244 66.572C358.004 69.7306 357.879 72.8605 357.874 75.976C357.869 78.9858 357.98 81.9525 358.196 84.8855C355.713 84.3959 353.292 83.8246 351.534 83.3014C351.683 82.9461 351.812 82.5861 351.928 82.2309C352.345 80.906 352.542 79.5619 352.504 78.4338C352.461 77.1137 345.505 81.9765 344.818 81.4292C344.655 81.2996 344.492 81.2036 344.333 81.1316L344.535 80.1427C344.564 80.0227 344.578 79.9075 344.578 79.7971C344.578 79.437 344.444 79.101 344.223 78.8322C344.011 78.5682 343.709 78.3714 343.373 78.2898C343.252 78.261 343.132 78.2466 343.012 78.2466L344.117 72.3277C343.862 68.1177 343.545 64.3734 343.286 61.2436C343.065 58.5745 342.878 56.3376 342.796 54.7438C342.835 54.643 342.873 54.547 342.911 54.4414C343.06 54.043 343.204 53.6253 343.339 53.1981C344.583 54.2398 345.645 54.3118 346.538 53.8173C348.459 52.7565 349.252 48.8009 349.564 46.8472C351.793 47.3656 354.781 48.7097 357.653 50.3851C360.742 52.1804 363.667 54.3502 365.363 56.2943ZM337.642 55.2623C337.546 54.9502 337.455 54.6142 337.368 54.259C337.267 53.8365 337.171 53.4093 337.08 52.9725C335.99 53.5101 335.101 53.5293 334.496 53.3133C333.506 52.9629 333.083 51.9212 332.963 50.6875C332.853 49.5162 333.016 48.1289 333.194 47.1304C330.984 47.524 329.178 48.0665 327.67 48.6809C325.523 49.5594 323.976 50.5963 322.727 51.5948C321.853 52.2908 319.293 55.3199 316.56 58.5505C313.226 62.4917 309.638 66.7352 308.293 67.6713L307.779 68.0313L307.346 67.5753C303.364 63.3749 300.929 57.1968 298.844 51.902C298.33 50.6011 297.84 49.3482 297.374 48.2537C296.649 48.3017 295.674 48.4505 294.737 48.6665C294.084 48.8201 293.46 49.0025 292.994 49.2042C296.102 61.6468 299.041 68.3433 301.313 71.9484C303.489 75.4047 304.873 75.856 305.204 75.9184C308.173 76.4896 311.924 75.1407 315.522 72.9373C319.653 70.4027 323.534 66.764 325.825 63.5669C326.69 62.362 327.896 63.1733 327.079 64.3206C326.243 65.4919 325.206 66.7256 324.024 67.9449L323.976 68.857L323.928 69.9755C323.779 74.4062 323.813 83.3686 324.279 91.8365C324.596 97.5969 325.105 103.122 325.883 106.804C330.984 109.684 336.749 110.956 342.45 111.201C349.627 111.508 356.721 110.198 362.327 108.431C361.664 106.012 361.078 103.621 360.564 101.245C360.026 98.7538 359.57 96.2624 359.195 93.7758C355.982 92.4989 352.182 90.8476 347.724 88.8266C337.709 67.7433 337.834 80.7188 337.493 80.4163C337.157 80.1139 334.683 80.666 334.63 80.1907L329.202 74.123L329.188 73.931C329.188 73.5422 329.332 73.1821 329.572 72.9037C329.817 72.6253 330.158 72.4285 330.547 72.3853C330.619 72.3757 330.687 72.3709 330.735 72.3757L334.4 72.3613C334.635 69.9035 335.509 60.7107 337.642 55.2623Z" fill="#EFEFEF"/>
<path fill-rule="evenodd" clip-rule="evenodd" d="M366.675 55.5167L366.771 55.7764C367.357 57.3695 368.041 59.1394 368.775 61.0401C368.853 61.241 368.931 61.4433 369.01 61.647M369.01 61.6486L369.025 61.6865C371.125 67.1058 373.605 73.5051 375.301 79.5053C376.152 82.5154 376.817 85.4621 377.135 88.164C377.451 90.8502 377.437 93.3913 376.855 95.5448L376.85 95.5648L376.844 95.5847C376.765 95.8478 376.631 96.029 376.579 96.097C376.501 96.1988 376.416 96.2868 376.331 96.3624C376.16 96.5141 375.96 96.6421 375.738 96.7506C375.298 96.9652 374.699 97.1379 373.874 97.2495L373.87 97.25C372.735 97.4004 371.226 97.3689 369.198 97.0152C367.045 96.6408 364.271 95.7751 360.818 94.4554C361.16 96.6105 361.564 98.769 362.03 100.928C362.538 103.277 363.118 105.641 363.774 108.035L364.155 109.428L362.778 109.862C357.044 111.669 349.773 113.016 342.386 112.7C336.513 112.448 330.503 111.135 325.146 108.11L324.556 107.777L324.415 107.114C323.612 103.311 323.098 97.6871 322.781 91.9187C322.313 83.4102 322.278 74.4035 322.429 69.9249L322.429 69.9109L322.445 69.5436C320.582 71.26 318.477 72.884 316.306 74.2157L316.305 74.2163C312.64 76.4612 308.47 78.0729 304.924 77.3917C303.992 77.2151 302.31 76.3473 300.044 72.7474C297.651 68.9499 294.664 62.0796 291.538 49.5675L291.23 48.3328L292.398 47.8274C292.984 47.5737 293.709 47.3673 294.394 47.2062L294.4 47.2047C295.399 46.9744 296.455 46.8111 297.275 46.7568L298.338 46.6865L298.755 47.666C299.175 48.6528 299.613 49.7637 300.061 50.8988C300.12 51.0491 300.18 51.1998 300.239 51.3507L300.24 51.3523C302.258 56.4773 304.485 62.0752 307.947 66.0084C308.131 65.8375 308.352 65.6214 308.61 65.3569C309.164 64.7907 309.824 64.0696 310.558 63.2422C312.022 61.5922 313.735 59.5675 315.4 57.598L315.414 57.5817L315.487 57.4958C316.825 55.9138 318.13 54.3717 319.211 53.1348C320.266 51.9279 321.224 50.875 321.791 50.4224C323.126 49.3552 324.795 48.2362 327.102 47.2925L327.104 47.2916C328.716 46.6348 330.624 46.0644 332.931 45.6535L335.048 45.2764L334.671 47.3931C334.501 48.3448 334.365 49.5742 334.457 50.5441C334.506 51.0503 334.609 51.4046 334.727 51.6259C334.83 51.819 334.919 51.8717 334.996 51.8992L335 51.9004C335.135 51.9485 335.597 52.0313 336.417 51.627L338.152 50.7711L338.548 52.6656C338.636 53.0864 338.729 53.4986 338.826 53.9068C338.907 54.2372 338.99 54.5429 339.076 54.8207L339.23 55.3212L339.039 55.8089C336.998 61.0214 336.134 69.9813 335.893 72.5041L335.763 73.8558L330.993 73.8745L335.48 78.8901C335.585 78.8867 335.712 78.8802 335.864 78.871C335.917 78.8677 335.974 78.864 336.034 78.8602C336.12 78.8547 336.211 78.8488 336.304 78.8433C336.323 78.7504 336.343 78.6552 336.365 78.5593C336.472 78.09 336.634 77.5144 336.895 76.9862C337.143 76.4846 337.584 75.8134 338.363 75.4615C339.235 75.0676 340.139 75.2382 340.912 75.6728C341.221 75.8472 341.53 76.0734 341.841 76.3477L342.609 72.234C342.373 68.3744 342.085 64.9118 341.84 61.9497C341.823 61.7534 341.807 61.5592 341.791 61.3673L341.764 61.0332C341.555 58.5203 341.378 56.3753 341.298 54.8204L341.282 54.5047L341.395 54.2094C341.414 54.1583 341.429 54.1187 341.443 54.0838C341.464 54.0286 341.481 53.9855 341.502 53.9283L341.506 53.9161C341.646 53.5421 341.782 53.1494 341.908 52.7475L342.582 50.6076L344.302 52.0478C344.782 52.45 345.117 52.5716 345.31 52.603C345.479 52.6304 345.63 52.6055 345.812 52.5048L345.813 52.5041C345.994 52.4039 346.239 52.181 346.511 51.7516C346.778 51.3303 347.023 50.7901 347.239 50.172C347.671 48.9338 347.931 47.5613 348.083 46.6103L348.337 45.0215L349.904 45.386C352.342 45.9532 355.478 47.3801 358.408 49.0886C361.559 50.92 364.643 53.1866 366.493 55.3082L366.675 55.5167M357.653 50.3849C355.367 49.0515 353.008 47.9279 351.016 47.2634C350.506 47.093 350.019 46.9528 349.564 46.847C349.498 47.264 349.409 47.7722 349.292 48.324C348.862 50.3575 348.049 52.9827 346.538 53.8172C345.98 54.1262 345.356 54.214 344.662 53.982C344.246 53.8428 343.805 53.5886 343.339 53.1979C343.204 53.6252 343.06 54.0428 342.911 54.4412C342.886 54.5117 342.86 54.5779 342.834 54.6441C342.829 54.6592 342.823 54.6744 342.817 54.6896C342.81 54.7075 342.803 54.7255 342.796 54.7437C342.875 56.2741 343.05 58.3976 343.26 60.9272L343.286 61.2434C343.302 61.436 343.318 61.631 343.335 61.8283C343.584 64.8359 343.878 68.3767 344.117 72.3275L343.012 78.2464C343.132 78.2464 343.252 78.2608 343.373 78.2896C343.437 78.3053 343.5 78.3252 343.562 78.349C343.58 78.3557 343.597 78.3627 343.614 78.37C343.852 78.4721 344.063 78.633 344.223 78.832C344.441 79.0975 344.575 79.4285 344.578 79.7834C344.578 79.7879 344.578 79.7924 344.578 79.7969C344.578 79.9073 344.564 80.0225 344.535 80.1425L344.333 81.1314C344.492 81.2034 344.655 81.2994 344.818 81.4291C344.918 81.508 345.147 81.4743 345.468 81.3629C345.488 81.3558 345.508 81.3485 345.529 81.3409C345.628 81.3049 345.734 81.2622 345.847 81.2138C346.524 80.9243 347.442 80.4289 348.38 79.9227C349.308 79.4223 350.255 78.9113 351.007 78.5784C351.009 78.5777 351.01 78.5771 351.012 78.5764C351.092 78.541 351.17 78.5076 351.245 78.4765C351.247 78.4759 351.248 78.4753 351.25 78.4747C351.992 78.1688 352.492 78.0823 352.504 78.4336C352.539 79.4635 352.378 80.6734 352.032 81.8843C351.999 81.9998 351.964 82.1153 351.928 82.2307C351.817 82.5709 351.694 82.9154 351.552 83.256C351.546 83.2711 351.54 83.2861 351.534 83.3012C351.979 83.4339 352.468 83.5696 352.989 83.7063C354.098 83.9974 355.357 84.2929 356.67 84.5725C357.172 84.6795 357.683 84.7841 358.196 84.8853C358.195 84.8695 358.194 84.8536 358.193 84.8377C358.156 84.3378 358.122 83.837 358.092 83.3351C357.945 80.9078 357.87 78.4565 357.874 75.9758C357.875 75.3269 357.881 74.6774 357.893 74.0271C357.895 73.8968 357.898 73.7666 357.9 73.6362C357.947 71.3555 358.058 69.0652 358.23 66.7597C358.234 66.7052 358.238 66.6506 358.242 66.5961C358.242 66.5956 358.242 66.5951 358.242 66.5946C358.243 66.587 358.244 66.5794 358.244 66.5718C358.335 65.3525 359.764 65.5746 359.701 66.6801C359.701 66.6809 359.701 66.6818 359.701 66.6826C359.701 66.6905 359.7 66.6983 359.7 66.7062C359.697 66.7447 359.694 66.7831 359.691 66.8215C359.518 69.1342 359.406 71.4144 359.359 73.6668C359.371 73.7013 359.384 73.7364 359.398 73.7722C359.96 75.255 361.269 77.8251 362.606 80.2626C364.022 82.8386 365.452 85.2385 366.053 86.0037C366.063 86.0171 366.073 86.0299 366.083 86.0422C366.19 86.0517 366.293 86.057 366.394 86.0622C366.415 86.0633 366.435 86.0643 366.456 86.0654C366.489 86.0672 366.521 86.069 366.554 86.071C366.572 86.0719 366.589 86.073 366.607 86.0744C366.606 86.0744 366.607 86.0744 366.607 86.0744C367.846 86.1736 367.676 87.5872 366.54 87.5352C366.521 87.5343 366.503 87.5334 366.484 87.5325C366.477 87.5322 366.47 87.5318 366.463 87.5315C366.434 87.53 366.404 87.5285 366.374 87.5268C366.238 87.5195 366.099 87.5107 365.955 87.5005C365.741 87.4853 365.519 87.4671 365.289 87.4459C363.722 87.3018 361.806 87.0232 359.832 86.6711C359.63 86.635 359.427 86.5982 359.224 86.5607C358.788 86.4808 358.351 86.3976 357.915 86.3118C355.397 85.816 352.931 85.2327 351.12 84.6922C351.04 84.6685 350.962 84.6448 350.885 84.6213C350.877 84.6361 350.868 84.6509 350.86 84.6657C350.593 85.1343 350.293 85.5802 349.958 85.999C349.841 86.1447 349.721 86.2867 349.596 86.4246C349.306 86.7457 348.995 87.0442 348.663 87.3144C348.586 87.3773 348.508 87.4388 348.428 87.4986C348.416 87.5076 348.404 87.5166 348.392 87.5256C348.552 87.5981 348.711 87.6702 348.869 87.7419C349.223 87.9022 349.573 88.0601 349.918 88.2156C353.668 89.9027 356.924 91.3032 359.733 92.4216C360.012 92.5326 360.287 92.6409 360.557 92.7464C360.721 92.8105 360.884 92.8736 361.045 92.9356C364.618 94.3133 367.385 95.1774 369.455 95.5374C371.382 95.8734 372.731 95.8878 373.673 95.763C375.128 95.5662 375.393 95.2014 375.407 95.1534C377.453 87.5847 371.831 73.0774 367.613 62.1956L367.611 62.1891C367.532 61.9848 367.453 61.7817 367.376 61.58C366.642 59.6817 365.953 57.8997 365.363 56.2942C363.667 54.35 360.742 52.1803 357.653 50.3849ZM347.724 88.8265C347.746 88.8361 347.767 88.8457 347.788 88.8553C352.218 90.8631 355.997 92.5048 359.195 93.7757C359.198 93.792 359.2 93.8084 359.203 93.8248C359.576 96.2951 360.03 98.7701 360.564 101.245C361.078 103.621 361.664 106.012 362.327 108.431C356.721 110.198 349.627 111.508 342.45 111.201C336.749 110.956 330.984 109.684 325.883 106.804C325.105 103.122 324.596 97.5968 324.279 91.8363C323.813 83.3684 323.779 74.4061 323.928 69.9753L323.976 68.8568L324.024 67.9447C325.169 66.763 326.179 65.5677 327.001 64.4287C327.004 64.4248 327.007 64.4208 327.01 64.4168C327.01 64.4171 327.01 64.4166 327.01 64.4168C327.033 64.3849 327.056 64.3523 327.079 64.3205C327.874 63.2035 326.752 62.4051 325.895 63.4753C325.894 63.4758 325.894 63.4762 325.894 63.4767C325.88 63.4936 325.867 63.5109 325.853 63.5287C325.844 63.5412 325.835 63.5539 325.825 63.5668C325.044 64.6574 324.077 65.7995 322.979 66.9315C322.839 67.0757 322.697 67.2197 322.553 67.3634C320.512 69.3993 318.064 71.3773 315.522 72.9372C311.924 75.1405 308.173 76.4894 305.204 75.9182C304.873 75.8558 303.489 75.4046 301.313 71.9483C299.041 68.3432 296.102 61.6466 292.994 49.204C293.46 49.0024 294.084 48.82 294.737 48.6664C295.674 48.4503 296.649 48.3015 297.374 48.2535C297.786 49.2205 298.217 50.3112 298.666 51.4494C298.725 51.5994 298.784 51.7503 298.844 51.9018C300.929 57.1967 303.364 63.3748 307.346 67.5751L307.779 68.0312L308.293 67.6711C309.635 66.7371 313.21 62.51 316.538 58.5762L316.627 58.4712C319.334 55.2703 321.86 52.285 322.727 51.5946C323.976 50.5961 325.523 49.5592 327.67 48.6808C328.804 48.2188 330.106 47.7975 331.622 47.4496C332.122 47.3347 332.646 47.2279 333.194 47.1302C333.112 47.5892 333.034 48.1304 332.983 48.695C332.924 49.3586 332.904 50.0545 332.963 50.6873C333.083 51.921 333.506 52.9627 334.496 53.3131C334.807 53.4241 335.192 53.473 335.642 53.4214C336.067 53.3726 336.55 53.2338 337.08 52.9723C337.171 53.4092 337.267 53.8364 337.368 54.2588C337.385 54.329 337.403 54.3985 337.42 54.4672C337.491 54.7459 337.565 55.0118 337.642 55.2621C335.517 60.6903 334.642 69.8349 334.402 72.3334L334.4 72.3611L330.735 72.3755C330.687 72.3707 330.619 72.3755 330.547 72.3851C330.158 72.4283 329.817 72.6251 329.572 72.9035C329.332 73.182 329.188 73.542 329.188 73.9308L329.202 74.1229L334.63 80.1906C334.659 80.4513 335.417 80.4028 336.151 80.3559C336.754 80.3172 337.341 80.2797 337.493 80.4162C337.511 80.4324 337.528 80.4105 337.545 80.358C337.546 80.3575 337.546 80.3571 337.546 80.3566C337.575 80.266 337.606 80.0858 337.645 79.8522C337.687 79.5997 337.74 79.2848 337.814 78.9531C337.816 78.9443 337.818 78.9354 337.82 78.9266C338.18 77.3232 339.027 75.3569 341.507 78.136C341.883 78.5576 342.297 79.0885 342.752 79.7464C342.836 79.8676 342.921 79.9931 343.008 80.123C343.185 80.3876 343.367 80.6706 343.556 80.9729C343.714 81.2255 343.876 81.4917 344.042 81.7719C344.113 81.8904 344.184 82.0114 344.256 82.135C344.256 82.1355 344.257 82.136 344.257 82.1366C344.409 82.398 344.565 82.6708 344.725 82.9554C345.349 84.0687 346.03 85.3627 346.772 86.861C347.079 87.4807 347.396 88.1353 347.724 88.8265ZM347.981 85.9234C347.377 84.711 346.809 83.6269 346.277 82.6599C346.5 82.5695 346.728 82.4657 346.95 82.3595C347.594 82.0518 348.365 81.6354 349.108 81.2344C349.278 81.1427 349.447 81.0518 349.612 80.9632C350.059 80.7233 350.479 80.5013 350.858 80.3106C350.775 80.7845 350.655 81.2777 350.499 81.7738C350.394 82.0964 350.279 82.4142 350.15 82.7213L349.905 83.3067L349.579 83.8837C349.342 84.3042 349.079 84.6975 348.787 85.0616C348.535 85.3761 348.266 85.6649 347.981 85.9234ZM335.147 78.8857C335.148 78.8856 335.152 78.8861 335.16 78.8875C335.151 78.8865 335.147 78.8858 335.147 78.8857ZM359.718 85.1263C361.267 85.4091 362.775 85.6453 364.103 85.8086C363.877 85.4551 363.633 85.0577 363.381 84.6372C362.753 83.5906 362.019 82.3089 361.291 80.9852L361.29 80.9838C360.629 79.777 359.96 78.5135 359.38 77.3516C359.406 79.8534 359.512 82.3259 359.692 84.7751L359.718 85.1263Z" fill="#333333"/>
<path fill-rule="evenodd" clip-rule="evenodd" d="M358.244 66.5719C358.004 69.7306 357.879 72.8604 357.874 75.9759C357.869 79.3218 358.004 82.61 358.273 85.8599L359.733 85.7399C359.464 82.49 359.33 79.2401 359.334 75.9759C359.339 72.942 359.459 69.8602 359.704 66.7111C359.786 65.583 358.335 65.343 358.244 66.5719ZM359.147 93.4349L360.593 93.2237C360.977 95.7967 361.443 98.3697 362 100.952C362.557 103.545 363.201 106.137 363.926 108.729L364.114 109.401L363.451 109.617C357.61 111.537 350.059 112.997 342.392 112.67C336.364 112.411 330.269 111.043 324.874 107.918L324.6 107.759L324.528 107.442C323.688 103.674 323.145 97.9137 322.818 91.918C322.352 83.4165 322.314 74.4061 322.468 69.937L322.516 68.7945L322.578 67.5944L324.038 67.6856L323.976 68.8617L323.928 69.9802C323.779 74.4109 323.813 83.3733 324.279 91.8412C324.596 97.6017 325.105 103.127 325.883 106.809C330.984 109.689 336.748 110.961 342.45 111.206C349.627 111.513 356.721 110.203 362.327 108.436C361.664 106.017 361.078 103.626 360.564 101.25C360.012 98.6433 359.536 96.0415 359.147 93.4349Z" fill="#333333"/>
<path fill-rule="evenodd" clip-rule="evenodd" d="M372.361 236.962C371.218 238.253 369.767 239.641 368.278 241.061C365.867 243.366 363.36 245.761 362.106 247.811C361.164 249.352 360.991 250.686 362.327 251.565C363.139 251.666 366.04 250.441 369.402 248.742C373.163 246.841 377.4 244.345 379.999 242.372C380.018 242.353 380.071 242.314 380.09 242.305C380.143 242.266 380.229 242.209 380.33 242.122C380.868 241.657 381.718 240.394 379.086 237.336L380.196 236.386C383.693 240.452 382.18 242.454 381.276 243.231C381.147 243.342 381.017 243.433 380.931 243.495L380.863 243.543C378.183 245.574 373.874 248.118 370.06 250.043C366.29 251.949 362.903 253.264 361.837 252.952L361.746 252.928L361.664 252.875C359.291 251.43 359.44 249.376 360.862 247.052C362.216 244.839 364.791 242.377 367.274 240.005C368.744 238.599 370.18 237.231 371.271 235.997L372.361 236.962Z" fill="#333333"/>
<path fill-rule="evenodd" clip-rule="evenodd" d="M331.417 236.007C329.942 236.612 328.145 237.231 326.311 237.86C322.622 239.122 318.774 240.442 316.564 242.055C314.605 243.491 313.846 245.132 315.296 247.105L315.354 247.182L315.431 247.245C316.31 247.95 320.666 248.065 325.58 247.763C330.336 247.47 335.697 246.827 338.867 245.987L338.944 245.968C339.679 245.804 342.642 245.128 341.225 239.914C341.173 239.722 340.788 238.877 340.433 238.081C340.14 237.433 339.861 236.813 339.828 236.717L338.439 237.173C338.487 237.322 338.785 237.985 339.102 238.681C339.438 239.43 339.799 240.222 339.818 240.294C340.836 244.048 339.064 244.446 338.627 244.542L338.521 244.566C335.442 245.382 330.182 246.011 325.499 246.299C321.046 246.573 317.189 246.568 316.415 246.14C315.7 245.07 316.223 244.11 317.439 243.222C319.461 241.743 323.203 240.462 326.796 239.228C328.621 238.604 330.413 237.989 331.983 237.341L331.417 236.007Z" fill="#333333"/>
<path fill-rule="evenodd" clip-rule="evenodd" d="M368.279 241.061C365.867 243.366 363.36 245.761 362.106 247.811C361.165 249.352 360.992 250.686 362.327 251.565C363.139 251.666 366.04 250.441 369.403 248.742C373.164 246.841 377.4 244.345 379.999 242.372C380.018 242.353 380.071 242.314 380.09 242.305C380.143 242.266 380.23 242.209 380.331 242.122C380.624 241.873 381.003 241.393 380.878 240.524C380.787 239.861 380.398 238.968 379.452 237.778C378.467 238.205 377.223 238.388 375.979 238.354C374.528 238.316 373.039 237.989 371.953 237.418C371.05 238.402 369.989 239.429 368.889 240.485C368.682 240.677 368.48 240.869 368.279 241.061Z" fill="#FEFEFE"/>
<path fill-rule="evenodd" clip-rule="evenodd" d="M339.808 240.299C339.832 240.385 339.856 240.471 339.876 240.558C340.745 244.072 339.045 244.456 338.617 244.552L338.511 244.576C335.432 245.392 330.172 246.021 325.489 246.309C321.036 246.582 317.179 246.578 316.406 246.15C315.69 245.08 316.214 244.12 317.429 243.232C318.659 242.329 320.532 241.504 322.617 240.716C323.957 240.212 325.379 239.723 326.786 239.243C328.419 238.681 330.024 238.134 331.469 237.558C332.368 238.148 333.756 238.758 335.351 238.863C336.455 238.935 337.661 238.767 338.867 238.186C338.939 238.345 339.016 238.518 339.093 238.686C339.429 239.435 339.784 240.227 339.808 240.299Z" fill="#FEFEFE"/>
<path fill-rule="evenodd" clip-rule="evenodd" d="M360.55 110.491C363.936 121.565 367.721 141.569 371.036 164.188C375.815 187.484 378.894 213.723 378.851 235.954C377.972 236.439 376.69 236.722 375.412 236.751C374.144 236.78 372.914 236.568 372.131 236.074C371.031 231.888 366.597 213.911 360.641 193.058C355.617 175.459 349.012 156.344 345.544 142.937L344.156 137.872C344.069 150.464 343.224 163.689 342.676 172.267C342.513 174.85 342.374 177.01 342.287 178.657C342.282 178.767 342.287 179.189 342.297 179.895C342.378 186.006 342.743 214.021 338.406 236.78C337.388 237.313 336.364 237.466 335.432 237.409C334.164 237.327 333.055 236.852 332.329 236.381C332.248 229.8 332.027 220.343 331.407 210.262C330.773 199.956 329.712 188.963 327.944 179.645C327.8 178.887 325.139 163.631 324.985 142.994C324.908 132.683 325.46 121.028 327.267 109.166C332.036 111.408 337.239 112.44 342.388 112.665C348.844 112.944 355.213 111.955 360.55 110.491Z" fill="#404040"/>
<path fill-rule="evenodd" clip-rule="evenodd" d="M327.182 109.006L327.313 109.068C332.067 111.302 337.254 112.332 342.393 112.557C348.835 112.835 355.193 111.848 360.521 110.386L360.623 110.359L360.653 110.459C364.042 121.541 367.828 141.551 371.142 164.169C375.923 187.47 379.002 213.715 378.959 235.954L378.959 236.017L378.903 236.048C378.004 236.544 376.703 236.829 375.414 236.858C374.138 236.887 372.883 236.676 372.073 236.165L372.038 236.142L372.027 236.101C371.822 235.323 371.503 234.069 371.08 232.409C369.226 225.135 365.387 210.064 360.537 193.087C358.273 185.156 355.687 176.916 353.212 169.029C352.942 168.167 352.673 167.31 352.406 166.458C349.693 157.804 347.174 149.671 345.44 142.964C345.439 142.964 345.44 142.964 345.44 142.964L344.257 138.652C344.143 150.989 343.323 163.828 342.787 172.23L342.784 172.274C342.784 172.274 342.784 172.274 342.784 172.274M342.395 178.661C342.39 178.768 342.395 179.186 342.405 179.893C342.486 186.003 342.852 214.029 338.512 236.8L338.502 236.851L338.456 236.875C337.418 237.418 336.375 237.575 335.426 237.516C334.136 237.433 333.009 236.95 332.271 236.471L332.222 236.44L332.222 236.382C332.14 229.802 331.919 220.347 331.299 210.269C330.666 199.964 329.604 188.976 327.838 179.665C327.693 178.902 325.031 163.64 324.877 142.995C324.8 132.679 325.353 121.018 327.16 109.149L327.182 109.006M342.395 178.661C342.471 177.212 342.588 175.364 342.727 173.18C342.745 172.884 342.765 172.582 342.784 172.274M327.352 109.325C325.564 121.13 325.017 132.728 325.093 142.993C325.247 163.622 327.907 178.871 328.05 179.625C329.819 188.949 330.881 199.947 331.515 210.255C332.133 220.309 332.355 229.742 332.437 236.321C333.15 236.773 334.221 237.222 335.44 237.3C336.34 237.356 337.326 237.211 338.31 236.708C342.635 213.97 342.27 186.003 342.189 179.896C342.179 179.193 342.174 178.766 342.179 178.651C342.255 177.201 342.373 175.351 342.511 173.166C342.53 172.87 342.549 172.568 342.568 172.26L342.571 172.218C343.119 163.638 343.961 150.439 344.048 137.871L344.053 137.089L345.648 142.909C347.382 149.61 349.899 157.738 352.612 166.393C352.879 167.245 353.148 168.103 353.419 168.965C355.894 176.852 358.48 185.094 360.745 193.028C365.596 210.009 369.437 225.085 371.29 232.357C371.705 233.987 372.02 235.225 372.225 236.005C372.983 236.467 374.169 236.671 375.409 236.643C376.649 236.615 377.886 236.345 378.743 235.889C378.78 213.681 375.704 187.478 370.93 164.209L370.929 164.203C367.625 141.652 363.853 121.709 360.477 110.622C355.153 112.074 348.812 113.05 342.383 112.773C337.27 112.549 332.101 111.531 327.352 109.325Z" fill="#404040"/>
<path fill-rule="evenodd" clip-rule="evenodd" d="M344.16 137.728C344.078 150.363 343.228 163.655 342.681 172.267C342.517 174.85 342.378 177.01 342.292 178.656C342.287 178.767 342.291 179.189 342.301 179.895C342.383 186.006 342.748 214.021 338.41 236.78C337.392 237.312 336.369 237.466 335.437 237.408C334.169 237.327 333.059 236.852 332.334 236.381C332.252 229.8 332.031 220.343 331.412 210.262C330.778 199.956 329.716 188.963 327.948 179.645C327.804 178.887 325.143 163.631 324.989 142.994C324.913 132.395 325.494 120.384 327.425 108.187L325.984 107.961C324.043 120.236 323.457 132.333 323.534 142.994C323.688 163.77 326.368 179.141 326.512 179.904C328.27 189.155 329.322 200.085 329.956 210.339C330.59 220.626 330.806 230.213 330.883 236.77L330.888 237.13L331.176 237.346C332.046 237.994 333.568 238.743 335.35 238.858C336.633 238.94 338.045 238.7 339.443 237.874L339.726 237.706L339.789 237.384C344.218 214.434 343.843 186.039 343.766 179.871C343.757 179.218 343.752 178.82 343.757 178.724C343.838 177.168 343.978 174.974 344.146 172.353C344.626 164.855 345.332 153.819 345.558 142.73L344.16 137.728Z" fill="#333333"/>
<path fill-rule="evenodd" clip-rule="evenodd" d="M335.754 123.759C336.686 124.594 337.738 125.338 338.905 125.885C340.111 126.447 341.446 126.807 342.897 126.85L343.488 126.869L343.555 127.45C345.448 143.676 350.573 159.757 356.625 178.733C361.794 194.944 367.635 213.267 372.722 235.603C373.625 236.011 374.605 236.112 375.561 236.045C376.473 235.978 377.371 235.752 378.159 235.478C377.991 228.859 377.612 218.845 376.757 208.207C376.151 200.656 375.311 192.813 374.139 185.694C373.975 184.709 373.817 183.773 373.654 182.88C373.49 181.978 373.317 181.09 373.144 180.221C373.005 179.539 372.823 178.68 372.64 177.845C372.16 175.622 371.718 173.587 371.468 171.052C371.3 169.339 371.113 167.572 370.911 165.772C370.704 163.924 370.488 162.152 370.272 160.448C369.071 151.102 367.534 142.029 365.8 133.691C363.999 125.041 361.981 117.197 359.901 110.687L361.193 110.279C363.288 116.846 365.32 124.733 367.126 133.417C368.869 141.77 370.411 150.881 371.617 160.28C371.852 162.114 372.068 163.9 372.265 165.623C372.458 167.337 372.645 169.103 372.823 170.923C373.058 173.342 373.495 175.358 373.971 177.552C374.12 178.243 374.273 178.959 374.475 179.952C374.653 180.831 374.826 181.728 374.989 182.636C375.162 183.601 375.33 184.541 375.479 185.468C376.656 192.649 377.506 200.527 378.111 208.097C378.985 218.975 380.023 229.718 380.186 236.376L380.196 236.856L379.744 237.029C377.564 237.855 372.976 238.368 371.329 236.299L371.261 235.992C366.165 213.55 360.511 195.395 355.328 179.136C349.324 160.299 344.227 144.309 342.268 128.166C340.841 128.05 339.53 127.666 338.324 127.105C336.998 126.485 335.812 125.645 334.779 124.704C333.862 123.869 334.837 122.933 335.754 123.759Z" fill="#333333"/>
<path fill-rule="evenodd" clip-rule="evenodd" d="M341.259 47.8166C343.065 47.8598 345.092 47.3653 346.874 46.4388C347.071 46.338 347.263 46.2276 347.456 46.1124L347.033 37.6157C346.428 38.331 345.832 38.9262 345.255 39.4207C341.514 42.6369 338.372 41.7489 338.161 41.6673C338.045 41.6241 337.93 41.5808 337.82 41.5328L337.19 46.1268C337.19 46.1268 337.19 46.1316 337.195 46.1316C338.045 47.2453 339.544 47.7782 341.259 47.8166Z" fill="#FEFEFE"/>
<path fill-rule="evenodd" clip-rule="evenodd" d="M339.568 23.9923C341.053 20.4832 344.992 22.485 345.006 24.3619C344.819 24.1555 343.992 23.6611 343.522 23.6034C343.358 25.6916 340.861 26.1285 340.188 23.9011C339.919 23.8867 339.765 23.8723 339.568 23.9923ZM338.67 40.2992C338.824 40.3568 341.182 41.0001 344.309 38.3119C345.943 36.9101 347.744 34.6156 349.497 30.9048C349.468 30.9144 349.435 30.9241 349.406 30.9337C348.945 31.0585 348.565 30.2232 349.329 29.9352C349.531 29.8584 349.733 29.7528 349.91 29.6279C350.29 29.3687 350.592 29.0471 350.775 28.7591C351.495 27.631 351.683 26.3781 351.433 25.466C351.337 25.1156 351.174 24.8179 350.957 24.6163C350.756 24.4243 350.492 24.3091 350.175 24.2947C349.54 24.2659 348.7 24.6115 347.682 25.5188C347.115 26.0228 346.61 25.3748 346.884 24.9524L346.567 24.5059C346.63 22.5426 346.567 20.9296 346.409 19.6095C346.24 18.2318 345.967 17.1949 345.606 16.4365C345.376 15.9468 345.02 15.4668 344.588 15.0779C344.194 14.7179 343.743 14.4395 343.272 14.2955C342.715 14.1227 342.153 14.1659 341.6 14.3339C340.99 14.5211 340.375 14.8619 339.765 15.2652C339.458 15.4668 339.155 15.6828 338.862 15.894C337.335 16.9885 336.12 17.8574 333.703 17.2141C333.377 17.1277 333.069 16.9645 332.805 16.7389C332.776 16.7149 332.747 16.6909 332.723 16.6669C332.286 17.3293 331.912 18.0926 331.595 18.9327C330.523 21.8129 330.211 25.5428 330.807 29.1287C331.398 32.6858 332.877 36.0797 335.385 38.3215C336.331 39.1567 337.421 39.8384 338.67 40.2992ZM349.435 25.9988C348.83 26.1189 348.762 25.6148 349.396 25.5092C349.588 25.4804 349.761 25.4804 349.915 25.5188C350.17 25.5764 350.362 25.7156 350.492 25.9172C350.612 26.1045 350.674 26.3445 350.674 26.6133C350.674 27.0597 350.501 27.6166 350.141 28.1734C350.006 28.3846 349.781 28.6247 349.512 28.8071C349.368 28.9079 349.209 28.9895 349.036 29.0471C348.623 29.1911 348.455 28.7735 348.969 28.5527C349.06 28.5143 349.151 28.4614 349.238 28.4038C349.454 28.2598 349.627 28.0726 349.733 27.9094C350.04 27.4294 350.189 26.9733 350.189 26.6133C350.189 26.4357 350.155 26.2869 350.083 26.1813C350.021 26.0853 349.93 26.0228 349.809 25.994C349.704 25.97 349.579 25.97 349.435 25.9988ZM331.076 23.8435C332.426 20.2816 336.441 22.1345 336.528 24.0115C336.331 23.8147 335.49 23.349 335.015 23.3106C334.933 25.4036 332.45 25.9316 331.696 23.7331C331.427 23.7235 331.268 23.7187 331.076 23.8435ZM337.388 32.7338C340.178 34.9852 341.192 30.9913 341.682 30.3768C341.543 35.3356 337.738 34.99 337.388 32.7338ZM336.658 28.9943C336.984 29.1719 337.508 29.3543 338.665 29.3783C336.278 30.324 335.437 29.2151 335.471 28.183C335.509 26.7909 336.816 27.0693 336.552 24.8131C337.685 26.3973 335.125 28.1638 336.658 28.9943Z" fill="#FEFEFE"/>
<path fill-rule="evenodd" clip-rule="evenodd" d="M344.028 89.7369L251.83 73.9772C248.525 73.4107 246.306 70.2761 246.868 66.9734L251.898 39.4466C252.465 36.144 255.602 33.9262 258.907 34.4878L351.105 50.2475C354.409 50.814 356.629 53.9486 356.067 57.2513L351.041 84.778C350.47 88.0807 347.333 90.3033 344.028 89.7369Z" fill="#009CDE"/>
<path fill-rule="evenodd" clip-rule="evenodd" d="M324.318 66.2576L336.318 62.9837C337.317 62.7005 337.461 61.9852 336.601 61.4188L326.173 54.583C325.659 54.2422 324.885 54.0022 324.131 53.9253C323.632 53.8773 323.142 53.9013 322.743 54.0118L321.677 54.3046L310.744 57.2856C309.745 57.5688 309.601 58.2841 310.456 58.8506L315.134 61.918L316.364 62.7245L320.884 65.6863C321.605 66.2576 323.175 66.5408 324.318 66.2576Z" fill="white"/>
<path fill-rule="evenodd" clip-rule="evenodd" d="M328.623 66.2096L326.538 66.7665L324.175 67.3953C323.175 67.6785 321.605 67.3953 320.745 66.8241L315.72 63.483L314.495 62.6669L313.89 62.2637L309.745 63.4014C308.746 63.6846 308.602 64.3999 309.457 64.9663L311.392 66.2336L312.627 67.0401L319.89 71.7973C320.212 72.0085 320.61 72.1861 321.057 72.3013C321.706 72.4741 322.44 72.5317 323.151 72.4213C323.257 72.4069 323.358 72.3877 323.459 72.3637L323.757 72.2821L325.236 71.8789L335.458 69.0898C336.457 68.8066 336.601 68.0914 335.746 67.5249L332.172 65.2447L328.623 66.2096Z" fill="white" fill-opacity="0.75"/>
<path fill-rule="evenodd" clip-rule="evenodd" d="M330.89 71.3798L325.198 72.9255L323.728 73.3239L323.031 73.5111C322.666 73.6167 322.224 73.6455 321.768 73.6071C321.148 73.5591 320.505 73.3959 319.991 73.1559C319.851 73.0887 319.722 73.0167 319.602 72.9399L312.886 68.5283L310.653 69.1428L308.741 69.6708C308.669 69.69 308.602 69.714 308.534 69.738C308.501 69.7524 308.467 69.7668 308.434 69.7812C307.718 70.1125 307.694 70.7317 308.453 71.2357L308.534 71.2885L315.72 75.9977L317.089 76.8954L318.886 78.0715C319.746 78.6428 321.172 78.926 322.171 78.6427L323.675 78.2347L325.135 77.8363L330.482 76.377L334.175 75.3689C334.622 75.2441 334.896 75.0281 334.987 74.7832C335.102 74.476 334.934 74.116 334.459 73.804L330.89 71.3798Z" fill="white" fill-opacity="0.5"/>
<g clip-path="url(#clip2_8088_166914)">
<path d="M283.586 49.6858C281.987 47.3735 280.462 45.1689 280.284 42.9548C279.357 44.9736 277.169 46.5221 274.875 48.1468C271.435 50.5829 267.535 53.3437 266.648 58.3613C266.395 59.7699 266.418 61.2142 266.718 62.6114C267.017 64.0085 267.587 65.331 268.394 66.503C269.2 67.675 270.229 68.6735 271.419 69.4412C272.61 70.2089 273.94 70.7308 275.333 70.9768C276.725 71.2229 278.154 71.1884 279.535 70.8752C280.917 70.562 282.225 69.9763 283.385 69.1517C284.544 68.3272 285.533 67.2799 286.293 66.07C287.053 64.8601 287.57 63.5113 287.815 62.1011C288.701 57.0838 285.983 53.1535 283.586 49.6858ZM270.705 61.6518C270.06 61.5149 268.404 56.9141 273.633 53.251L275.998 57.0205C276.019 57.0502 276.033 57.084 276.04 57.1198C276.047 57.1555 276.047 57.1924 276.038 57.2279C276.03 57.2635 276.015 57.2969 275.993 57.326C275.971 57.3551 275.943 57.3792 275.912 57.3967C275.081 58.0008 271.555 60.5072 270.998 61.4909C270.883 61.6939 270.772 61.666 270.705 61.6518M275.818 68.2328C275.34 68.1484 274.883 67.9695 274.474 67.7064C274.065 67.4432 273.712 67.101 273.434 66.6992C273.157 66.2975 272.961 65.844 272.857 65.3648C272.753 64.8855 272.743 64.3899 272.829 63.9061C273 63.0153 273.473 62.2115 274.166 61.6333C274.966 60.9371 277.445 59.0195 277.445 59.0195C277.445 59.0195 279.079 61.6985 279.626 62.5902C280.103 63.3648 280.275 64.2932 280.108 65.1924C279.936 66.1693 279.387 67.0385 278.582 67.6087C277.777 68.1788 276.783 68.4034 275.818 68.2328ZM283.84 63.4902C283.731 63.65 283.501 63.9084 283.26 63.8748C282.829 63.815 282.822 63.5848 282.589 63.0549C282.079 61.8917 277.149 54.4076 276.234 52.9671C275.429 51.7001 276.422 51.0824 276.891 50.7496C277.479 50.3321 279.195 49.1168 279.195 49.1168C279.195 49.1168 282.799 54.0522 284.104 57.2198C285.409 60.3874 284.351 62.7418 283.84 63.4902Z" fill="white"/>
</g>
</g>
<defs>
<clipPath id="clip0_8088_166914">
<rect width="448" height="254" fill="white"/>
</clipPath>
<clipPath id="clip1_8088_166914">
<rect width="288" height="254" rx="4" fill="white"/>
</clipPath>
<clipPath id="clip2_8088_166914">
<rect width="22.9091" height="30" fill="white" transform="translate(269.22 41) rotate(10.02)"/>
</clipPath>
</defs>
</svg>
