<svg width="1954" height="670" viewBox="0 0 1954 670" fill="none" xmlns="http://www.w3.org/2000/svg">
<g clip-path="url(#clip0)">
<rect width="1954" height="670" fill="#333333"/>
<path opacity="0.4" fill-rule="evenodd" clip-rule="evenodd" d="M1193.92 -216.17L1907.74 354.828C1968.36 404.271 1956.16 455.438 1880.47 469.2L985.802 656.668C909.398 673.44 799.187 647.161 741.55 598.428L27.7277 27.4299C-32.888 -22.0133 -20.6879 -73.1796 54.9986 -86.9419L949.67 -274.41C1025.36 -288.172 1135.57 -261.893 1193.92 -216.17Z" fill="#444444"/>
<g style="mix-blend-mode:overlay" opacity="0.5">
<path fill-rule="evenodd" clip-rule="evenodd" d="M1696.33 -117.884L1923.06 305.72C1942.12 342.152 1925.63 364.349 1886.22 355.336L1415.15 260.77C1374.76 253.062 1326.95 217.558 1309.19 182.085L1082.46 -241.519C1063.4 -277.952 1079.89 -300.149 1119.3 -291.136L1590.37 -196.569C1629.79 -187.556 1677.6 -152.052 1696.33 -117.884Z" fill="#AAAAAA"/>
</g>
<g style="mix-blend-mode:overlay" opacity="0.5">
<path fill-rule="evenodd" clip-rule="evenodd" d="M1066.14 348.753L637.256 -148.517C600.963 -191.419 616.318 -225.969 671.58 -225.746L1328.08 -240.631C1384.25 -242.441 1458.62 -209.389 1492.9 -167.38L1921.78 329.89C1958.08 372.792 1942.72 407.342 1887.46 407.119L1230.96 422.004C1175.7 421.782 1101.33 388.729 1066.14 348.753Z" fill="#AAAAAA"/>
</g>
</g>
<defs>
<clipPath id="clip0">
<rect width="1954" height="670" fill="white"/>
</clipPath>
</defs>
</svg>
