<svg width="509" height="463" viewBox="0 0 509 463" fill="none" xmlns="http://www.w3.org/2000/svg">
<g clip-path="url(#clip0_532_92415)">
<g opacity="0.8">
<path d="M621.466 112.107C621.466 223.67 531.027 314.11 419.464 314.11C307.901 314.11 217.461 223.67 217.461 112.107C217.461 0.544563 307.901 -89.895 419.464 -89.895C531.027 -89.895 621.466 0.544563 621.466 112.107Z" fill="white"/>
<path d="M419.464 -135.395C556.156 -135.395 666.966 -24.5838 666.966 112.108C666.966 248.799 556.156 359.61 419.464 359.61C282.772 359.61 171.961 248.8 171.961 112.108C171.961 -24.5839 282.772 -135.395 419.464 -135.395Z" stroke="#F5F5F5" stroke-width="91"/>
<path fill-rule="evenodd" clip-rule="evenodd" d="M563.19 259.959C603.526 221.041 628.614 166.423 628.614 105.946C628.614 -12.2383 532.807 -108.045 414.624 -108.045V105.946C410.687 102.009 563.19 259.959 563.19 259.959Z" fill="#F5F5F5"/>
<path fill-rule="evenodd" clip-rule="evenodd" d="M419.464 -6.22534C425.316 -6.22534 430.06 -1.48097 430.06 4.37151L430.06 97.9863C435.823 101.544 439.664 107.917 439.664 115.187C439.664 119.086 438.559 122.726 436.647 125.813L517.967 207.133C519.777 208.944 519.777 211.879 517.967 213.69C516.156 215.5 513.221 215.5 511.41 213.69L430.09 132.37C427.003 134.283 423.362 135.387 419.464 135.387C408.307 135.387 399.263 126.344 399.263 115.187C399.263 107.917 403.104 101.544 408.867 97.9863L408.867 4.37151C408.867 -1.48097 413.611 -6.22534 419.464 -6.22534Z" fill="#ECEEF1"/>
</g>
<ellipse cx="414.5" cy="399.496" rx="54.5" ry="2.5" fill="#DFE1E4"/>
<rect x="54" y="222.996" width="260" height="174.717" rx="8" fill="#EFEFEF"/>
<rect x="62" y="229.996" width="245" height="150" rx="5" fill="white"/>
<path d="M36 393.996C36 398.414 39.5817 401.996 44 401.996H342C346.418 401.996 350 398.414 350 393.996V392.996H36V393.996Z" fill="#DFE1E4"/>
<path fill-rule="evenodd" clip-rule="evenodd" d="M438.872 262.189L426.408 265.856C423.769 266.632 422.213 269.245 422.933 271.692L425.035 278.839C425.68 281.032 427.934 282.347 430.294 282.038C430.17 281.761 430.062 281.469 429.972 281.164L427.87 274.017C427.15 271.57 427.879 269.2 429.499 268.724L437.147 266.474C438.767 265.998 440.663 267.595 441.383 270.042L443.485 277.189C443.581 277.516 443.652 277.842 443.697 278.162C446.266 277.344 447.766 274.772 447.056 272.361L444.954 265.214C444.234 262.767 441.511 261.413 438.872 262.189Z" fill="#CCCCCC"/>
<path d="M426.408 265.856L426.69 266.815L426.408 265.856ZM438.872 262.189L438.59 261.23L438.872 262.189ZM422.933 271.692L423.892 271.41L423.892 271.41L422.933 271.692ZM425.035 278.839L425.994 278.557L425.994 278.557L425.035 278.839ZM430.294 282.038L431.207 281.63C431.336 281.918 431.321 282.251 431.167 282.526C431.013 282.802 430.737 282.989 430.424 283.03L430.294 282.038ZM429.972 281.164L430.932 280.882L430.932 280.882L429.972 281.164ZM427.87 274.017L426.911 274.299L426.911 274.299L427.87 274.017ZM429.499 268.724L429.217 267.764L429.499 268.724ZM437.147 266.474L437.429 267.433L437.147 266.474ZM441.383 270.042L442.342 269.76L442.342 269.76L441.383 270.042ZM443.485 277.189L442.526 277.471L442.526 277.471L443.485 277.189ZM443.697 278.162L444.001 279.115C443.721 279.204 443.415 279.165 443.166 279.009C442.917 278.853 442.749 278.594 442.708 278.303L443.697 278.162ZM447.056 272.361L446.097 272.643L447.056 272.361ZM444.954 265.214L443.995 265.496L444.954 265.214ZM426.126 264.897L438.59 261.23L439.154 263.149L426.69 266.815L426.126 264.897ZM421.973 271.974C421.078 268.931 423.026 265.808 426.126 264.897L426.69 266.815C424.511 267.456 423.348 269.56 423.892 271.41L421.973 271.974ZM424.076 279.121L421.973 271.974L423.892 271.41L425.994 278.557L424.076 279.121ZM430.424 283.03C427.64 283.394 424.877 281.846 424.076 279.121L425.994 278.557C426.483 280.218 428.228 281.3 430.164 281.046L430.424 283.03ZM429.381 282.446C429.239 282.129 429.115 281.794 429.013 281.446L430.932 280.882C431.009 281.144 431.102 281.394 431.207 281.63L429.381 282.446ZM429.013 281.446L426.911 274.299L428.829 273.735L430.932 280.882L429.013 281.446ZM426.911 274.299C426.503 272.914 426.491 271.508 426.851 270.337C427.209 269.176 427.983 268.127 429.217 267.764L429.781 269.683C429.395 269.797 428.995 270.171 428.763 270.926C428.534 271.671 428.517 272.673 428.829 273.735L426.911 274.299ZM429.217 267.764L436.865 265.515L437.429 267.433L429.781 269.683L429.217 267.764ZM436.865 265.515C438.099 265.152 439.317 265.614 440.247 266.397C441.183 267.186 441.935 268.375 442.342 269.76L440.423 270.324C440.111 269.262 439.554 268.429 438.958 267.927C438.355 267.418 437.815 267.32 437.429 267.433L436.865 265.515ZM442.342 269.76L444.444 276.907L442.526 277.471L440.423 270.324L442.342 269.76ZM444.444 276.907C444.554 277.279 444.635 277.652 444.687 278.02L442.708 278.303C442.669 278.031 442.609 277.752 442.526 277.471L444.444 276.907ZM448.016 272.079C448.898 275.077 447.019 278.153 444.001 279.115L443.394 277.209C445.512 276.534 446.633 274.467 446.097 272.643L448.016 272.079ZM445.913 264.932L448.016 272.079L446.097 272.643L443.995 265.496L445.913 264.932ZM438.59 261.23C441.689 260.318 445.018 261.888 445.913 264.932L443.995 265.496C443.45 263.646 441.333 262.508 439.154 263.149L438.59 261.23Z" fill="#333333"/>
<path d="M407.834 262.834L406.38 307.179C406.295 309.757 407.139 312.279 408.757 314.286L431.833 342.927L443.827 360.974C445.348 363.262 444.901 366.329 442.79 368.088L438.165 371.942C436.073 373.685 433.01 373.592 431.028 371.725L401.797 344.19L407.218 378.079C407.732 381.294 405.296 384.226 402.041 384.31L394.007 384.516C391.514 384.58 389.303 382.923 388.665 380.513L376.685 335.253L362.192 299.683C362.104 299.467 362.026 299.261 361.953 299.04C361.082 296.414 355.166 278.142 354.427 264.097C353.628 248.931 353.955 226.601 353.955 226.601L402.112 239.363L407.834 262.81V262.834Z" fill="#AAAAAA" stroke="#333333" stroke-width="2" stroke-linecap="round" stroke-linejoin="round"/>
<path d="M302.99 150.896L297.74 141.644L290.589 126.543C290.069 125.445 289.383 124.434 288.556 123.545L284.869 119.582C283.795 118.428 282.177 117.953 280.65 118.343L276.298 119.455C275.22 119.73 274.541 120.795 274.745 121.889C275.137 123.978 275.876 125.986 276.932 127.831L281.373 135.584L288.979 148.434C289.623 149.522 290.541 150.422 291.642 151.043C292.198 151.356 292.626 151.854 292.852 152.45L295.042 158.23L302.99 150.896Z" fill="white" stroke="#333333" stroke-width="2" stroke-linecap="round" stroke-linejoin="round"/>
<path d="M385.116 135.519C385.116 135.519 380.516 130.239 381 124.496C381.484 118.753 364.5 123.496 364.5 123.496C364.5 123.496 364.351 130.629 361.443 139.83C359.374 146.374 350.955 162.002 350.955 162.002L375.112 172.372L391.164 149.871L385.128 135.519H385.116Z" fill="white" stroke="#333333" stroke-width="2" stroke-linecap="round" stroke-linejoin="round"/>
<path d="M385.116 135.519L377.86 141.086C372.84 144.938 365.679 144.172 361.588 139.344L347.919 169.336L355.74 202.218L353.011 231.883L353.387 232.069C358.693 234.695 364.74 235.42 370.516 234.122L381.935 231.555L385.116 135.519Z" fill="url(#paint0_linear_532_92415)" stroke="#333333" stroke-width="2" stroke-linecap="round" stroke-linejoin="round"/>
<path d="M438.511 248.47L438.592 250.534C438.642 251.809 438.943 253.061 439.479 254.218L441.851 259.35C442.379 260.492 442.719 261.711 442.858 262.961C443.232 266.321 442.132 269.678 439.842 272.166L439.201 272.862C437.227 275.006 433.906 275.19 431.707 273.277L428.494 270.481C426.929 269.119 425.715 267.4 424.954 265.469L424.283 263.763C423.506 261.79 423.227 259.656 423.47 257.55L424.37 249.745L438.511 248.47Z" fill="white" stroke="#333333" stroke-width="2" stroke-linecap="round" stroke-linejoin="round"/>
<path d="M385.116 135.519L408.075 143.123C412.446 144.571 415.915 147.937 417.494 152.263L434.328 198.379C436.259 203.671 437.412 209.215 437.748 214.839L439.654 246.676C439.724 247.852 438.836 248.866 437.661 248.952L424.394 249.92C423.229 250.005 422.21 249.146 422.095 247.985L418.271 209.353C418.201 208.647 417.958 207.969 417.563 207.38L406.406 190.731C406.406 190.731 398.773 205.412 406.092 230.292C411.039 247.109 411.332 255.916 411.002 259.857C410.864 261.51 409.491 262.597 407.837 262.72L387.626 264.221C380.585 264.744 373.799 261.393 370.648 255.075C365.5 244.751 358.611 227.719 358.407 210.184C358.407 210.184 358.119 248.701 347.802 259.047C347.205 259.646 346.281 259.19 346.249 258.345L346.008 251.991C346.008 251.991 353.641 204.453 350.774 197.434C347.907 190.416 346.637 177.97 346.637 177.97L320.799 186.618C318.409 187.418 315.801 187.255 313.529 186.164L311.974 185.417C310.525 184.721 309.271 183.675 308.327 182.374L291.789 159.583C291.39 159.032 291.587 158.249 292.191 157.937C294.763 156.608 300.918 153.101 304.114 148.488C304.565 147.837 305.55 147.762 306.025 148.395L320.58 167.77L344.5 150.552C344.5 150.552 346.162 145.959 348.976 142.997C350.55 141.339 352.87 140.787 355.126 140.423L361.588 139.38L361.875 144.38C362.102 148.335 360.684 152.191 358.775 155.662C356.424 159.936 354.043 166.412 355.866 173.21C359.036 185.024 360.318 191.399 360.318 191.399L370.806 162.366C370.806 162.366 379.709 138.433 385.104 135.568L385.116 135.519Z" fill="#AAAAAA"/>
<path d="M358.407 210.184C358.611 227.719 365.5 244.751 370.648 255.075C373.799 261.393 380.585 264.744 387.626 264.221L407.837 262.72C409.491 262.597 410.864 261.51 411.002 259.857C411.332 255.916 411.039 247.109 406.092 230.292C398.773 205.412 406.406 190.731 406.406 190.731L417.563 207.38C417.958 207.969 418.201 208.647 418.271 209.353L422.095 247.985C422.21 249.146 423.229 250.005 424.394 249.92L437.661 248.952C438.836 248.866 439.724 247.852 439.654 246.676L437.748 214.839C437.412 209.215 436.259 203.671 434.328 198.379L417.494 152.263C415.915 147.937 412.446 144.571 408.075 143.123L385.116 135.519L385.104 135.568C379.709 138.433 370.806 162.366 370.806 162.366L360.318 191.399M358.407 210.184C358.407 210.184 358.119 248.701 347.802 259.047C347.205 259.646 346.281 259.19 346.249 258.345L346.008 251.991C346.008 251.991 353.641 204.453 350.774 197.434C347.907 190.416 346.637 177.97 346.637 177.97L320.799 186.618C318.409 187.418 315.801 187.255 313.529 186.164L311.974 185.417C310.525 184.721 309.271 183.675 308.327 182.374L291.789 159.583C291.39 159.032 291.587 158.249 292.191 157.937C294.763 156.608 300.918 153.101 304.114 148.488C304.565 147.837 305.55 147.762 306.025 148.395L320.58 167.77L344.5 150.552C344.5 150.552 346.162 145.959 348.976 142.997C350.55 141.339 352.87 140.787 355.126 140.423L361.588 139.38L361.875 144.38C362.102 148.335 360.684 152.191 358.775 155.662C356.424 159.936 354.043 166.412 355.866 173.21C359.036 185.024 360.318 191.399 360.318 191.399M358.407 210.184C358.407 201.055 359.681 193.857 360.318 191.399" stroke="#333333" stroke-width="2" stroke-linecap="round" stroke-linejoin="round"/>
<path d="M346.649 177.957C346.649 177.957 344.5 153.496 345 149.496" stroke="#333333" stroke-width="2" stroke-linecap="round" stroke-linejoin="round"/>
<path d="M320.58 167.746C320.58 167.746 321.221 172.845 320.58 176.039" stroke="#333333" stroke-width="2" stroke-linecap="round" stroke-linejoin="round"/>
<path d="M406.406 190.719V190.719C402.21 184.41 398.656 177.394 398.809 169.819C398.898 165.446 399.659 160.3 401.955 155.312" stroke="#333333" stroke-width="2" stroke-linecap="round" stroke-linejoin="round"/>
<path d="M390.68 137.626L392.334 142.03C392.598 142.734 392.078 143.485 391.326 143.485H389.587C388.54 143.485 388.109 144.828 388.961 145.437L391.528 147.272C391.987 147.599 392.132 148.197 391.838 148.678C388.013 154.926 363.608 194.621 359.508 196.835" stroke="#333333" stroke-width="2" stroke-linecap="round" stroke-linejoin="round"/>
<path d="M359.508 194.682C359.508 194.682 350.855 177.05 350.897 161.666C350.904 159.128 351.431 156.63 352.088 154.179L353.584 148.605C353.71 148.134 354.136 147.807 354.624 147.807H356.453C357.469 147.807 357.92 146.529 357.128 145.892L356.54 145.419C356.018 144.999 356.003 144.21 356.507 143.769L361.576 139.344" stroke="#333333" stroke-width="2" stroke-linecap="round" stroke-linejoin="round"/>
<path d="M403.645 219.443C403.645 219.443 386.543 219.922 380.338 217.846" stroke="#333333" stroke-width="2" stroke-linecap="round" stroke-linejoin="round"/>
<path d="M401.797 344.19L393.585 338.007C390.195 335.455 387.382 332.216 385.33 328.501L384.323 326.678C382.73 323.794 381.521 320.713 380.729 317.514L374.773 293.458L370.757 273.616C370.572 272.704 370.303 271.811 369.954 270.948L359.362 244.802" stroke="#333333" stroke-width="2" stroke-linecap="round" stroke-linejoin="round"/>
<mask id="path-25-inside-1_532_92415" fill="white">
<path fill-rule="evenodd" clip-rule="evenodd" d="M355.202 108.004C355.202 120.739 362.737 131.063 370.721 131.063C378.521 131.063 385.149 124.569 387.558 115.528C387.715 115.547 387.875 115.557 388.036 115.557C391.008 115.557 393.418 112.183 393.418 108.022C393.418 103.86 391.008 100.486 388.036 100.486C387.807 100.486 387.581 100.506 387.359 100.545C384.8 93.4642 378.316 90.7971 370.721 90.7971C360.887 90.7971 355.202 95.2689 355.202 108.004Z"/>
</mask>
<path fill-rule="evenodd" clip-rule="evenodd" d="M355.202 108.004C355.202 120.739 362.737 131.063 370.721 131.063C378.521 131.063 385.149 124.569 387.558 115.528C387.715 115.547 387.875 115.557 388.036 115.557C391.008 115.557 393.418 112.183 393.418 108.022C393.418 103.86 391.008 100.486 388.036 100.486C387.807 100.486 387.581 100.506 387.359 100.545C384.8 93.4642 378.316 90.7971 370.721 90.7971C360.887 90.7971 355.202 95.2689 355.202 108.004Z" fill="white"/>
<path d="M387.558 115.528L385.625 115.013C385.882 114.048 386.811 113.421 387.802 113.543L387.558 115.528ZM387.359 100.545L387.705 102.515C386.748 102.683 385.809 102.138 385.478 101.225L387.359 100.545ZM370.721 133.063C365.838 133.063 361.421 129.933 358.322 125.445C355.194 120.917 353.202 114.75 353.202 108.004H357.202C357.202 113.992 358.977 119.355 361.613 123.172C364.278 127.031 367.62 129.063 370.721 129.063V133.063ZM389.49 116.043C386.939 125.619 379.737 133.063 370.721 133.063V129.063C377.305 129.063 383.359 123.519 385.625 115.013L389.49 116.043ZM387.802 113.543C387.879 113.552 387.957 113.557 388.036 113.557V117.557C387.793 117.557 387.551 117.542 387.313 117.513L387.802 113.543ZM388.036 113.557C388.709 113.557 389.506 113.179 390.214 112.188C390.92 111.2 391.418 109.734 391.418 108.022H395.418C395.418 110.471 394.712 112.773 393.469 114.513C392.229 116.249 390.336 117.557 388.036 117.557V113.557ZM391.418 108.022C391.418 106.309 390.92 104.843 390.214 103.856C389.506 102.864 388.709 102.486 388.036 102.486V98.4859C390.336 98.4859 392.229 99.7944 393.469 101.531C394.712 103.271 395.418 105.572 395.418 108.022H391.418ZM388.036 102.486C387.924 102.486 387.814 102.496 387.705 102.515L387.014 98.5749C387.348 98.5162 387.69 98.4859 388.036 98.4859V102.486ZM370.721 88.7971C378.738 88.7971 386.274 91.6586 389.24 99.865L385.478 101.225C383.326 95.2698 377.894 92.7971 370.721 92.7971V88.7971ZM353.202 108.004C353.202 101.387 354.673 96.468 357.844 93.2264C361.027 89.9722 365.54 88.7971 370.721 88.7971V92.7971C366.068 92.7971 362.821 93.8579 360.703 96.0234C358.573 98.2014 357.202 101.886 357.202 108.004H353.202Z" fill="#333333" mask="url(#path-25-inside-1_532_92415)"/>
<path d="M368.12 81.6465C352.187 84.6607 350.895 94.5648 356.278 103.177C362.737 102.639 368.838 98.6915 369.735 96.7179C375.763 103.177 389.65 101.562 387.497 100.486C393.526 100.486 393.598 105.151 392.88 107.483C394.603 113.942 390.009 115.557 387.497 115.557L386.421 118.248C403.645 117.172 400.416 75.7255 374.579 82.1847C373.718 78.7398 369.914 77.5198 368.12 77.3403C371.134 79.4934 369.376 81.1082 368.12 81.6465Z" fill="#333333" stroke="#333333" stroke-width="2" stroke-linejoin="round"/>
<path d="M388.574 104.254C390.364 106.342 390.117 109.467 388.036 111.251" stroke="#333333" stroke-width="2" stroke-linecap="round" stroke-linejoin="round"/>
<rect x="-0.7213" y="1.21644" width="74.9417" height="51.7665" rx="4.38265" transform="matrix(-0.96887 0.24757 0.24757 0.96887 470.968 266.488)" fill="#D9F4FF" stroke="#333333" stroke-width="2"/>
<path d="M471.352 268.527L473.098 285.873C473.525 290.112 470.789 294.026 466.662 295.08L417.251 307.706C413.124 308.76 408.846 306.639 407.187 302.715L400.398 286.657" stroke="#333333" stroke-width="2"/>
<path d="M483.859 317.476L476.695 300.148C475.057 296.188 470.756 294.034 466.604 295.095L417.309 307.691C413.156 308.752 410.416 312.705 410.879 316.966L412.905 335.607" stroke="#333333" stroke-width="2"/>
<rect x="-0.7213" y="1.21644" width="10.9781" height="10.9781" rx="2.22959" transform="matrix(-0.96887 0.24757 0.24757 0.96887 461.646 289.919)" fill="white" stroke="#333333" stroke-width="2"/>
<rect x="-0.7213" y="1.21644" width="10.9781" height="10.9781" rx="2.22959" transform="matrix(-0.96887 0.24757 0.24757 0.96887 428.415 298.411)" fill="white" stroke="#333333" stroke-width="2"/>
<g filter="url(#filter0_d_532_92415)">
<rect width="64" height="64" rx="6.45918" transform="matrix(-1 0 0 1 286 102.996)" fill="url(#paint1_linear_532_92415)"/>
</g>
<path fill-rule="evenodd" clip-rule="evenodd" d="M254 158.996C267.807 158.996 279 147.803 279 133.996C279 120.189 267.807 108.996 254 108.996C240.193 108.996 229 120.189 229 133.996C229 147.803 240.193 158.996 254 158.996ZM254 155.565C265.912 155.565 275.569 145.908 275.569 133.996C275.569 122.084 265.912 112.427 254 112.427C242.088 112.427 232.431 122.084 232.431 133.996C232.431 145.908 242.088 155.565 254 155.565Z" fill="white"/>
<path d="M252.869 147.15V143.975C251.469 143.944 250.215 143.812 249.11 143.58C248.014 143.338 247.014 143.017 246.108 142.617V138.446C247.003 138.878 248.072 139.273 249.315 139.631C250.558 139.978 251.742 140.189 252.869 140.263V135.366C251.205 134.713 249.873 134.081 248.873 133.47C247.883 132.849 247.166 132.164 246.724 131.416C246.292 130.658 246.076 129.752 246.076 128.699C246.076 127.625 246.361 126.698 246.93 125.919C247.509 125.129 248.309 124.497 249.331 124.023C250.352 123.549 251.532 123.254 252.869 123.138V120.721H255.034V123.075C256.255 123.117 257.393 123.26 258.446 123.502C259.509 123.733 260.552 124.076 261.574 124.529L260.089 128.225C259.225 127.867 258.356 127.588 257.482 127.388C256.619 127.188 255.802 127.056 255.034 126.993V131.653C256.203 132.085 257.314 132.554 258.367 133.059C259.42 133.565 260.278 134.207 260.942 134.986C261.605 135.766 261.937 136.787 261.937 138.051C261.937 139.62 261.363 140.937 260.215 142C259.078 143.064 257.35 143.701 255.034 143.912V147.15H252.869ZM255.034 140.152C255.771 140.026 256.313 139.81 256.661 139.504C257.008 139.189 257.182 138.783 257.182 138.288C257.182 137.993 257.103 137.73 256.945 137.498C256.787 137.267 256.545 137.051 256.218 136.851C255.902 136.64 255.507 136.429 255.034 136.219V140.152ZM252.869 130.769V127.056C252.438 127.119 252.069 127.225 251.763 127.372C251.458 127.509 251.226 127.688 251.068 127.909C250.91 128.13 250.831 128.394 250.831 128.699C250.831 129.005 250.9 129.273 251.037 129.505C251.184 129.736 251.405 129.952 251.7 130.152C252.006 130.353 252.395 130.558 252.869 130.769Z" fill="white"/>
<path d="M289.478 141.328L279.583 136.584C278.833 136.224 278.23 135.616 277.877 134.863C277.524 134.111 278.022 133.236 278.849 133.156L279.396 133.102C280.538 132.992 281.69 133.157 282.755 133.585L290.905 136.859" fill="white"/>
<path d="M289.478 141.328L279.583 136.584C278.833 136.224 278.23 135.616 277.877 134.863V134.863C277.524 134.111 278.022 133.236 278.849 133.156L279.396 133.102C280.538 132.992 281.69 133.157 282.755 133.585L290.905 136.859" stroke="#333333" stroke-width="2" stroke-linecap="round" stroke-linejoin="round"/>
<path d="M406.971 383.109C407.681 383.479 408.39 383.886 409.031 384.476L409.302 384.74L409.324 384.764L409.346 384.789C410.135 385.727 410.712 386.809 410.943 388.324C411.098 389.029 410.903 389.67 410.697 390.205L410.67 390.278L410.631 390.346C410.284 390.947 409.834 391.525 409.203 392.182L409.182 392.204L409.158 392.225C407.29 393.94 404.196 395.119 401.008 396.006C397.781 396.904 394.256 397.554 391.416 398.114L391.396 398.118L391.377 398.121L389.43 398.424L389.431 398.425C386.078 399.041 382.378 399.665 379.059 399.875L379.06 399.876C377.521 399.979 376.066 400.033 374.833 399.966C373.667 399.902 372.539 399.723 371.726 399.252L371.465 399.107C370.97 398.814 370.632 398.497 370.38 398.154L370.261 397.98C369.981 397.543 369.971 397.059 370.027 396.688C370.085 396.31 370.227 395.928 370.398 395.571L370.408 395.552L370.418 395.533L370.534 395.326C371.147 394.288 372.203 393.235 373.437 392.247L373.443 392.242L373.449 392.237C377.246 389.299 380.777 386.042 387.484 384.027C387.818 383.912 388.146 383.828 388.432 383.754C388.73 383.676 388.986 383.61 389.235 383.523C389.813 383.289 390.378 383.173 390.847 383.075L391.186 383.005L391.495 383.158C392.361 383.587 394.094 383.944 396.009 384.188C397.871 384.424 399.738 384.533 400.776 384.534C402.829 384.433 404.701 383.946 405.979 383.147L406.464 382.846L406.971 383.109Z" fill="white" stroke="#333333" stroke-width="2"/>
<path d="M444.808 363.028C445.601 362.918 446.415 362.838 447.279 362.948L447.653 363.007L447.685 363.013L447.717 363.022C448.903 363.329 450 363.877 451.067 364.978C451.602 365.463 451.813 366.098 451.956 366.653L451.976 366.729L451.983 366.807C452.049 367.498 452.017 368.229 451.883 369.13L451.878 369.161L451.871 369.191C451.342 371.671 449.502 374.425 447.418 376.995C445.307 379.596 442.81 382.167 440.82 384.269L440.806 384.284L440.792 384.298L439.38 385.672L439.382 385.672C437.005 388.117 434.351 390.769 431.767 392.863L431.768 392.863C430.574 393.839 429.419 394.725 428.375 395.384C427.387 396.008 426.365 396.515 425.428 396.602L425.132 396.636C424.559 396.683 424.1 396.621 423.696 396.487L423.498 396.414C423.016 396.22 422.728 395.831 422.559 395.497C422.387 395.155 422.281 394.76 422.215 394.371L422.211 394.349L422.208 394.329L422.183 394.092C422.082 392.891 422.332 391.421 422.766 389.901L422.768 389.893L422.77 389.886C424.163 385.291 425.155 380.592 429.455 375.064C429.661 374.777 429.879 374.518 430.069 374.292C430.267 374.056 430.437 373.854 430.591 373.639C430.926 373.114 431.319 372.691 431.645 372.34L431.88 372.086L432.221 372.032C433.175 371.88 434.795 371.168 436.497 370.257C438.152 369.371 439.737 368.378 440.584 367.778C442.198 366.506 443.442 365.025 444.022 363.633L444.242 363.107L444.808 363.028Z" fill="white" stroke="#333333" stroke-width="2"/>
<path fill-rule="evenodd" clip-rule="evenodd" d="M372.047 109.966C371.545 111.059 371.417 111.388 370.222 112.566C370.103 112.673 370.099 112.784 370.09 113.006C370.086 113.118 370.077 113.34 370.188 113.455C370.294 113.682 370.404 113.798 370.514 113.914C371.402 114.727 372.086 114.865 371.945 115.528C371.936 115.75 371.12 116.052 370.216 115.683C369.876 115.558 369.655 115.327 369.434 115.096C369.099 114.86 368.882 114.518 368.781 114.18C368.564 113.837 368.467 113.388 368.48 113.055C368.501 112.499 368.748 112.063 369.11 111.632C370.066 110.668 370.194 110.339 370.688 109.467C371.084 108.147 372.668 108.765 372.047 109.966Z" fill="#333333"/>
<path fill-rule="evenodd" clip-rule="evenodd" d="M373.083 121.653C372.79 122.782 372.497 123.91 370.634 123.837C369.275 123.577 369.432 122.754 369.208 122.124C368.839 122.006 367.729 121.756 367.128 121.214C366.767 120.889 366.659 120.471 367.044 120.175C367.429 119.879 368.286 120.223 368.647 120.548C368.887 120.765 369.256 120.883 369.625 121.001C370.117 121.123 370.739 121.148 371.24 121.064C371.741 120.98 372.245 120.792 372.626 120.6C373.772 119.919 374.29 119.421 374.534 119.535C374.778 119.648 375.011 120.071 374.742 120.579C374.478 120.983 373.84 121.372 373.083 121.653Z" fill="#333333"/>
<path fill-rule="evenodd" clip-rule="evenodd" d="M366.332 107.441C366.208 107.793 366.089 108.025 365.859 108.254C365.624 108.6 365.28 108.943 364.944 109.048C364.494 109.268 364.053 109.251 363.616 109.115C363.069 108.975 362.647 108.484 362.128 107.633L362.022 107.511L362.031 107.274C362.04 107.037 362.05 106.8 362.165 106.686C362.293 106.216 362.753 105.759 363.208 105.421C363.663 105.083 364.224 104.868 364.89 104.775C365.221 104.788 365.662 104.805 365.988 104.936C366.972 105.212 368.662 107.176 368.203 107.633C367.858 107.976 367.196 107.95 366.332 107.441Z" fill="#333333"/>
<path fill-rule="evenodd" clip-rule="evenodd" d="M379.545 107.442C379.42 107.793 379.301 108.026 379.071 108.254C378.837 108.601 378.492 108.944 378.156 109.049C377.706 109.269 377.265 109.252 376.828 109.116C376.282 108.976 375.859 108.485 375.34 107.634L375.234 107.511L375.243 107.275C375.253 107.038 375.262 106.801 375.377 106.686C375.506 106.217 375.965 105.76 376.42 105.422C376.875 105.084 377.436 104.868 378.102 104.776C378.433 104.789 378.874 104.806 379.2 104.937C380.184 105.213 381.874 107.177 381.415 107.634C381.07 107.976 380.408 107.95 379.545 107.442Z" fill="#333333"/>
<g filter="url(#filter1_d_532_92415)">
<g filter="url(#filter2_d_532_92415)">
<rect x="32" y="203" width="240" height="149" rx="2" fill="white"/>
<rect x="32.5" y="203.5" width="239" height="148" rx="1.5" stroke="#333333"/>
</g>
<line x1="33" y1="289.5" x2="271" y2="289.5" stroke="#CCCCCC"/>
<rect x="52" y="223" width="40" height="40" rx="1.23032" fill="url(#paint2_linear_532_92415)"/>
<path fill-rule="evenodd" clip-rule="evenodd" d="M72.0001 232C72.5853 232 73.117 232.34 73.3621 232.872L75.9729 238.532L82.1628 239.266C82.7439 239.335 83.2319 239.735 83.4127 240.292C83.5936 240.848 83.4342 241.459 83.0046 241.857L78.4283 246.089L79.643 252.202C79.7571 252.776 79.5269 253.364 79.0535 253.708C78.58 254.052 77.9498 254.089 77.4391 253.804L72.0001 250.759L66.561 253.804C66.0503 254.089 65.4201 254.052 64.9466 253.708C64.4732 253.364 64.243 252.776 64.3571 252.202L65.5719 246.089L60.9955 241.857C60.5659 241.459 60.4065 240.848 60.5874 240.292C60.7682 239.735 61.2562 239.335 61.8374 239.266L68.0272 238.532L70.638 232.872C70.8831 232.34 71.4149 232 72.0001 232Z" fill="white"/>
<rect x="49" y="308" width="74" height="29" rx="3" fill="#9ADAF3"/>
<rect x="128" y="308" width="43" height="29" rx="3" fill="#CCCCCC"/>
<rect x="108" y="241" width="101" height="5" rx="2" fill="#CCCCCC"/>
<rect x="59" y="320" width="53" height="5" rx="2" fill="white"/>
<rect x="137" y="320" width="25" height="5" rx="2" fill="white"/>
</g>
<path d="M131.684 100.187L103.351 123.813" stroke="#333333"/>
<path d="M156 223C171.464 223 184 210.464 184 195C184 179.536 171.464 167 156 167C140.536 167 128 179.536 128 195C128 210.464 140.536 223 156 223Z" fill="#F5F5F5" stroke="#333333" stroke-miterlimit="10" stroke-linecap="round" stroke-linejoin="round"/>
<path d="M170.667 214.333H141.333V191.667C141.333 183.533 147.867 177 156 177C164.133 177 170.667 183.533 170.667 191.667V214.333Z" fill="#AAAAAA" stroke="#333333" stroke-linecap="round" stroke-linejoin="round"/>
<path d="M158.667 206.333H153.333C146.533 206.333 140.933 211.4 140.133 218.067C144.667 221.133 150.133 223 156 223C161.867 223 167.333 221.133 171.867 218.067C171.067 211.4 165.467 206.333 158.667 206.333Z" fill="#BDECFF" stroke="#333333" stroke-miterlimit="10" stroke-linecap="round" stroke-linejoin="round"/>
<path d="M150.667 207.667C153.6 210.6 158.4 210.6 161.333 207.667V199.667H150.667V207.667Z" fill="white" stroke="#333333" stroke-miterlimit="10" stroke-linecap="round" stroke-linejoin="round"/>
<path d="M156 203.667C162.627 203.667 168 198.294 168 191.667C168 185.039 162.627 179.667 156 179.667C149.373 179.667 144 185.039 144 191.667C144 198.294 149.373 203.667 156 203.667Z" fill="white" stroke="#333333" stroke-miterlimit="10" stroke-linecap="round" stroke-linejoin="round"/>
<path d="M168 191.533C167.867 185 162.533 179.667 156 179.667C149.333 179.667 144 185 144 191.667C144 191.933 144 192.067 144 192.333C145.733 193.533 147.733 194.333 150 194.333C153.867 194.333 157.333 192.067 158.933 188.733C160.8 190.467 163.2 191.667 166 191.667C166.667 191.667 167.333 191.533 168 191.533Z" fill="#AAAAAA" stroke="#333333" stroke-linecap="round" stroke-linejoin="round"/>
<path d="M156 114C171.464 114 184 101.464 184 86C184 70.536 171.464 58 156 58C140.536 58 128 70.536 128 86C128 101.464 140.536 114 156 114Z" fill="#F5F5F5" stroke="#333333" stroke-miterlimit="10" stroke-linecap="round" stroke-linejoin="round"/>
<path d="M158.667 95.3333H153.333C146 95.3333 140 101.333 140 108.667V108.933C144.533 112.133 150 114 156 114C162 114 167.467 112.133 172 108.933V108.667C172 101.333 166 95.3333 158.667 95.3333Z" fill="url(#paint3_linear_532_92415)" stroke="#333333" stroke-miterlimit="10" stroke-linecap="round" stroke-linejoin="round"/>
<path d="M150.667 96.6667L156 102L161.333 96.6667V88.6667H150.667V96.6667Z" fill="white" stroke="#333333" stroke-miterlimit="10" stroke-linecap="round" stroke-linejoin="round"/>
<path d="M156 92.6667C162.627 92.6667 168 87.2942 168 80.6667C168 74.0393 162.627 68.6667 156 68.6667C149.373 68.6667 144 74.0393 144 80.6667C144 87.2942 149.373 92.6667 156 92.6667Z" fill="white" stroke="#333333" stroke-miterlimit="10" stroke-linecap="round" stroke-linejoin="round"/>
<path d="M168 80.5334C167.867 74.0001 162.533 68.6667 156 68.6667C149.333 68.6667 144 74.0001 144 80.6667C144 80.9334 144 81.0667 144 81.3334C145.733 82.5334 147.733 83.3334 150 83.3334C153.867 83.3334 157.333 81.0667 158.933 77.7334C160.8 79.4667 163.2 80.6667 166 80.6667C166.667 80.6667 167.333 80.5334 168 80.5334Z" fill="#AAAAAA" stroke="#333333" stroke-linecap="round" stroke-linejoin="round"/>
<path d="M80 169C95.464 169 108 156.464 108 141C108 125.536 95.464 113 80 113C64.536 113 52 125.536 52 141C52 156.464 64.536 169 80 169Z" fill="#F5F5F5" stroke="#333333" stroke-miterlimit="10" stroke-linecap="round" stroke-linejoin="round"/>
<path d="M82.6667 150.333H77.3333C70 150.333 64 156.333 64 163.667V163.933C68.5333 167.133 74 169 80 169C86 169 91.4667 167.133 96 163.933V163.667C96 156.333 90 150.333 82.6667 150.333Z" fill="#8BB825" stroke="#333333" stroke-miterlimit="10" stroke-linecap="round" stroke-linejoin="round"/>
<path d="M74.6667 151.667L80 157L85.3334 151.667V143.667H74.6667V151.667Z" fill="white" stroke="#333333" stroke-miterlimit="10" stroke-linecap="round" stroke-linejoin="round"/>
<path d="M80 147.667C86.6274 147.667 92 142.294 92 135.667C92 129.039 86.6274 123.667 80 123.667C73.3726 123.667 68 129.039 68 135.667C68 142.294 73.3726 147.667 80 147.667Z" fill="white" stroke="#333333" stroke-miterlimit="10" stroke-linecap="round" stroke-linejoin="round"/>
<path d="M92 135.533C91.8667 129 86.5333 123.667 80 123.667C73.3333 123.667 68 129 68 135.667C68 135.933 68 136.067 68 136.333C69.7333 137.533 71.7333 138.333 74 138.333C77.8667 138.333 81.3333 136.067 82.9333 132.733C84.8 134.467 87.2 135.667 90 135.667C90.6667 135.667 91.3333 135.533 92 135.533Z" fill="#AAAAAA" stroke="#333333" stroke-linecap="round" stroke-linejoin="round"/>
<path d="M131.016 180.813L102.683 157.187" stroke="#333333"/>
<path d="M212.161 310.859V310.86L212.163 310.861C212.164 310.862 212.165 310.863 212.167 310.865C212.172 310.869 212.179 310.875 212.189 310.882C212.209 310.898 212.239 310.923 212.279 310.955C212.358 311.018 212.477 311.112 212.632 311.233C212.944 311.475 213.404 311.826 213.996 312.255C215.179 313.115 216.885 314.291 218.974 315.557C223.157 318.092 228.853 320.968 234.943 322.38L235.839 322.578C237.937 323.011 240.072 323.26 242.198 323.256L242.851 323.255L242.681 323.886C242.164 325.812 241.727 327.67 241.348 329.464L240.987 331.237C240.499 333.731 240.114 336.098 239.766 338.354L239.429 340.573C238.27 348.247 237.309 354.67 233.653 360.241C229.985 365.83 223.655 370.499 211.913 374.84L211.745 374.902L211.575 374.843C200.054 370.838 193.737 366.038 190.062 360.372C186.857 355.43 185.699 349.877 184.783 343.781L184.399 341.135C184.019 338.45 183.62 335.622 183.051 332.624L182.796 331.328C182.321 328.992 181.734 326.554 180.968 324.002L180.775 323.36L181.446 323.359C183.836 323.355 186.283 322.996 188.702 322.397L188.711 322.395L188.72 322.393C195.928 320.894 201.627 318.013 205.523 315.507C207.471 314.255 208.967 313.097 209.973 312.254C210.476 311.833 210.857 311.491 211.111 311.255C211.238 311.137 211.333 311.046 211.396 310.985C211.427 310.955 211.45 310.932 211.465 310.917L211.487 310.895L211.807 310.569L212.161 310.859Z" fill="url(#paint4_linear_532_92415)" stroke="#333333"/>
<path fill-rule="evenodd" clip-rule="evenodd" d="M221.812 335.535C222.618 336.401 222.596 337.78 221.763 338.617L210.19 350.24C209.377 351.056 208.086 351.056 207.273 350.24L200.66 343.598C199.827 342.761 199.805 341.382 200.61 340.517C201.416 339.651 202.744 339.628 203.577 340.465L208.731 345.641L218.845 335.484C219.678 334.647 221.007 334.67 221.812 335.535Z" fill="white"/>
<rect x="271" y="218" width="1" height="50" fill="white"/>
<path d="M256.66 240.757C258.84 238.577 262.302 238.465 264.615 240.419L260.47 244.565L254.743 250.292C252.346 252.69 252.271 256.531 254.519 259.02L254.743 259.257C257.141 261.655 260.983 261.729 263.472 259.481L263.708 259.256L268.944 254.019L268.949 254.027L269.442 253.548L269.459 253.531L273.593 249.396C275.476 251.626 275.434 254.928 273.464 257.108L273.256 257.327L267.518 263.065C263.01 267.573 255.745 267.643 251.151 263.276L250.935 263.065C246.427 258.558 246.357 251.293 250.724 246.699L250.935 246.482L256.66 240.757ZM277.418 232.773C278.404 231.787 279.965 231.725 281.022 232.588L281.227 232.773C282.213 233.76 282.275 235.32 281.412 236.378L281.227 236.582L266.582 251.227C265.596 252.213 264.035 252.275 262.978 251.412L262.773 251.227C261.787 250.24 261.725 248.68 262.588 247.622L262.773 247.418L277.418 232.773ZM276.482 220.935C280.99 216.427 288.255 216.357 292.849 220.724L293.065 220.935C297.573 225.442 297.643 232.707 293.276 237.301L293.065 237.518L287.34 243.243C285.16 245.423 281.697 245.535 279.384 243.58L283.53 239.435L289.256 233.708C291.654 231.31 291.729 227.469 289.481 224.98L289.257 224.743C286.859 222.345 283.017 222.27 280.528 224.519L280.292 224.743L275.055 229.98L275.051 229.973L274.558 230.452L274.541 230.469L270.406 234.603C268.524 232.373 268.566 229.072 270.536 226.892L270.744 226.673L276.482 220.935Z" fill="#9ADAF3" stroke="#333333"/>
</g>
<defs>
<filter id="filter0_d_532_92415" x="172" y="72.9961" width="164" height="164" filterUnits="userSpaceOnUse" color-interpolation-filters="sRGB">
<feFlood flood-opacity="0" result="BackgroundImageFix"/>
<feColorMatrix in="SourceAlpha" type="matrix" values="0 0 0 0 0 0 0 0 0 0 0 0 0 0 0 0 0 0 127 0" result="hardAlpha"/>
<feOffset dy="20"/>
<feGaussianBlur stdDeviation="25"/>
<feColorMatrix type="matrix" values="0 0 0 0 0.333333 0 0 0 0 0.333333 0 0 0 0 0.333333 0 0 0 0.15 0"/>
<feBlend mode="normal" in2="BackgroundImageFix" result="effect1_dropShadow_532_92415"/>
<feBlend mode="normal" in="SourceGraphic" in2="effect1_dropShadow_532_92415" result="shape"/>
</filter>
<filter id="filter1_d_532_92415" x="17" y="195" width="270" height="179" filterUnits="userSpaceOnUse" color-interpolation-filters="sRGB">
<feFlood flood-opacity="0" result="BackgroundImageFix"/>
<feColorMatrix in="SourceAlpha" type="matrix" values="0 0 0 0 0 0 0 0 0 0 0 0 0 0 0 0 0 0 127 0" result="hardAlpha"/>
<feOffset dy="7"/>
<feGaussianBlur stdDeviation="7.5"/>
<feColorMatrix type="matrix" values="0 0 0 0 0.333333 0 0 0 0 0.333333 0 0 0 0 0.333333 0 0 0 0.1 0"/>
<feBlend mode="normal" in2="BackgroundImageFix" result="effect1_dropShadow_532_92415"/>
<feBlend mode="normal" in="SourceGraphic" in2="effect1_dropShadow_532_92415" result="shape"/>
</filter>
<filter id="filter2_d_532_92415" x="-18" y="173" width="340" height="249" filterUnits="userSpaceOnUse" color-interpolation-filters="sRGB">
<feFlood flood-opacity="0" result="BackgroundImageFix"/>
<feColorMatrix in="SourceAlpha" type="matrix" values="0 0 0 0 0 0 0 0 0 0 0 0 0 0 0 0 0 0 127 0" result="hardAlpha"/>
<feOffset dy="20"/>
<feGaussianBlur stdDeviation="25"/>
<feColorMatrix type="matrix" values="0 0 0 0 0.333333 0 0 0 0 0.333333 0 0 0 0 0.333333 0 0 0 0.15 0"/>
<feBlend mode="normal" in2="BackgroundImageFix" result="effect1_dropShadow_532_92415"/>
<feBlend mode="normal" in="SourceGraphic" in2="effect1_dropShadow_532_92415" result="shape"/>
</filter>
<linearGradient id="paint0_linear_532_92415" x1="385.116" y1="131.589" x2="317.707" y2="157.485" gradientUnits="userSpaceOnUse">
<stop stop-color="#FFC671"/>
<stop offset="0.59375" stop-color="#FF7541"/>
<stop offset="1" stop-color="#FF6F3D"/>
</linearGradient>
<linearGradient id="paint1_linear_532_92415" x1="0.00012322" y1="-2.5" x2="64.0001" y2="64" gradientUnits="userSpaceOnUse">
<stop stop-color="#FFC671"/>
<stop offset="0.59375" stop-color="#FF7541"/>
<stop offset="1" stop-color="#FF6F3D"/>
</linearGradient>
<linearGradient id="paint2_linear_532_92415" x1="52.0001" y1="221.437" x2="92.0001" y2="263" gradientUnits="userSpaceOnUse">
<stop stop-color="#FFC671"/>
<stop offset="0.59375" stop-color="#FF7541"/>
<stop offset="1" stop-color="#FF6F3D"/>
</linearGradient>
<linearGradient id="paint3_linear_532_92415" x1="140" y1="104.667" x2="172" y2="104.667" gradientUnits="userSpaceOnUse">
<stop stop-color="#FF8E3D"/>
<stop offset="0.3649" stop-color="#FF873D"/>
<stop offset="0.8939" stop-color="#FF743D"/>
<stop offset="1" stop-color="#FF6F3D"/>
</linearGradient>
<linearGradient id="paint4_linear_532_92415" x1="181.447" y1="308.78" x2="244.619" y2="371.951" gradientUnits="userSpaceOnUse">
<stop stop-color="#FFC671"/>
<stop offset="0.59375" stop-color="#FF7541"/>
<stop offset="1" stop-color="#FF6F3D"/>
</linearGradient>
<clipPath id="clip0_532_92415">
<rect width="509" height="463" fill="white" transform="translate(0 -0.00390625)"/>
</clipPath>
</defs>
</svg>
