<svg width="544" height="510" viewBox="0 0 544 510" fill="none" xmlns="http://www.w3.org/2000/svg">
<g clip-path="url(#clip0)">
<g filter="url(#filter0_d)">
<rect x="92" y="16" width="360" height="448" rx="8" fill="white"/>
</g>
<rect x="92" y="72" width="360" height="8" fill="white"/>
<rect width="360" height="48" transform="translate(92 80)" fill="white"/>
<path d="M115.989 106.704C115.989 106.142 115.79 105.708 115.392 105.403C114.999 105.099 114.287 104.791 113.256 104.48C112.225 104.17 111.404 103.824 110.795 103.443C109.629 102.711 109.046 101.756 109.046 100.578C109.046 99.5469 109.465 98.6973 110.303 98.0293C111.146 97.3613 112.239 97.0273 113.581 97.0273C114.472 97.0273 115.266 97.1914 115.963 97.5195C116.66 97.8477 117.208 98.3164 117.606 98.9258C118.005 99.5293 118.204 100.2 118.204 100.938H115.989C115.989 100.271 115.778 99.749 115.356 99.374C114.94 98.9932 114.343 98.8027 113.563 98.8027C112.837 98.8027 112.271 98.958 111.867 99.2686C111.469 99.5791 111.27 100.013 111.27 100.569C111.27 101.038 111.486 101.431 111.92 101.747C112.354 102.058 113.068 102.362 114.064 102.661C115.061 102.954 115.86 103.291 116.464 103.672C117.067 104.047 117.51 104.48 117.791 104.973C118.072 105.459 118.213 106.03 118.213 106.687C118.213 107.753 117.803 108.603 116.982 109.235C116.168 109.862 115.061 110.176 113.66 110.176C112.734 110.176 111.882 110.006 111.103 109.666C110.329 109.32 109.726 108.846 109.292 108.242C108.864 107.639 108.65 106.936 108.65 106.133H110.874C110.874 106.859 111.114 107.422 111.595 107.82C112.075 108.219 112.764 108.418 113.66 108.418C114.434 108.418 115.014 108.263 115.4 107.952C115.793 107.636 115.989 107.22 115.989 106.704ZM122.784 98.1787V100.49H124.462V102.072H122.784V107.381C122.784 107.744 122.854 108.008 122.995 108.172C123.141 108.33 123.399 108.409 123.768 108.409C124.014 108.409 124.263 108.38 124.515 108.321V109.974C124.029 110.108 123.56 110.176 123.109 110.176C121.468 110.176 120.648 109.271 120.648 107.46V102.072H119.084V100.49H120.648V98.1787H122.784ZM131.934 110C131.84 109.818 131.758 109.522 131.688 109.112C131.008 109.821 130.176 110.176 129.192 110.176C128.237 110.176 127.457 109.903 126.854 109.358C126.25 108.813 125.948 108.14 125.948 107.337C125.948 106.323 126.323 105.547 127.073 105.008C127.829 104.463 128.907 104.19 130.308 104.19H131.617V103.566C131.617 103.074 131.48 102.682 131.204 102.389C130.929 102.09 130.51 101.94 129.947 101.94C129.461 101.94 129.063 102.063 128.752 102.31C128.442 102.55 128.286 102.857 128.286 103.232H126.151C126.151 102.711 126.323 102.225 126.669 101.773C127.015 101.316 127.484 100.959 128.075 100.701C128.673 100.443 129.338 100.314 130.071 100.314C131.184 100.314 132.071 100.596 132.734 101.158C133.396 101.715 133.736 102.5 133.753 103.514V107.803C133.753 108.658 133.873 109.341 134.113 109.851V110H131.934ZM129.587 108.462C130.009 108.462 130.404 108.359 130.774 108.154C131.149 107.949 131.43 107.674 131.617 107.328V105.535H130.466C129.675 105.535 129.08 105.673 128.682 105.948C128.283 106.224 128.084 106.613 128.084 107.117C128.084 107.527 128.219 107.855 128.488 108.102C128.764 108.342 129.13 108.462 129.587 108.462ZM138.816 98.1787V100.49H140.495V102.072H138.816V107.381C138.816 107.744 138.887 108.008 139.027 108.172C139.174 108.33 139.431 108.409 139.801 108.409C140.047 108.409 140.296 108.38 140.548 108.321V109.974C140.061 110.108 139.593 110.176 139.141 110.176C137.501 110.176 136.68 109.271 136.68 107.46V102.072H135.116V100.49H136.68V98.1787H138.816ZM148.045 109.068C147.418 109.807 146.528 110.176 145.373 110.176C144.342 110.176 143.56 109.874 143.027 109.271C142.499 108.667 142.236 107.794 142.236 106.651V100.49H144.371V106.625C144.371 107.832 144.872 108.436 145.874 108.436C146.912 108.436 147.612 108.063 147.975 107.319V100.49H150.111V110H148.098L148.045 109.068ZM157.767 107.416C157.767 107.035 157.608 106.745 157.292 106.546C156.981 106.347 156.463 106.171 155.736 106.019C155.01 105.866 154.403 105.673 153.917 105.438C152.851 104.923 152.317 104.176 152.317 103.197C152.317 102.377 152.663 101.691 153.354 101.141C154.046 100.59 154.925 100.314 155.991 100.314C157.128 100.314 158.045 100.596 158.742 101.158C159.445 101.721 159.797 102.45 159.797 103.347H157.661C157.661 102.937 157.509 102.597 157.204 102.327C156.899 102.052 156.495 101.914 155.991 101.914C155.522 101.914 155.139 102.022 154.84 102.239C154.547 102.456 154.4 102.746 154.4 103.109C154.4 103.438 154.538 103.692 154.813 103.874C155.089 104.056 155.646 104.24 156.483 104.428C157.321 104.609 157.978 104.829 158.452 105.087C158.933 105.339 159.287 105.644 159.516 106.001C159.75 106.358 159.867 106.792 159.867 107.302C159.867 108.157 159.513 108.852 158.804 109.385C158.095 109.912 157.166 110.176 156.018 110.176C155.238 110.176 154.544 110.035 153.935 109.754C153.325 109.473 152.851 109.086 152.511 108.594C152.171 108.102 152.001 107.571 152.001 107.003H154.075C154.104 107.507 154.295 107.896 154.646 108.172C154.998 108.441 155.464 108.576 156.044 108.576C156.606 108.576 157.034 108.471 157.327 108.26C157.62 108.043 157.767 107.762 157.767 107.416Z" fill="black"/>
<rect x="112" y="136" width="56" height="32" rx="16" fill="#1A73E9"/>
<path d="M130.651 154.402H126.481L125.545 157H124.191L127.992 147.047H129.141L132.948 157H131.602L130.651 154.402ZM126.878 153.322H130.262L128.566 148.667L126.878 153.322ZM136.404 153.575L135.611 154.402V157H134.347V146.5H135.611V152.851L136.288 152.037L138.592 149.604H140.13L137.252 152.693L140.465 157H138.981L136.404 153.575ZM143.401 147.812V149.604H144.782V150.581H143.401V155.168C143.401 155.464 143.463 155.688 143.586 155.838C143.709 155.984 143.919 156.057 144.215 156.057C144.361 156.057 144.561 156.029 144.816 155.975V157C144.484 157.091 144.16 157.137 143.846 157.137C143.281 157.137 142.854 156.966 142.567 156.624C142.28 156.282 142.137 155.797 142.137 155.168V150.581H140.79V149.604H142.137V147.812H143.401ZM147.89 157H146.625V149.604H147.89V157ZM146.522 147.642C146.522 147.437 146.584 147.263 146.707 147.122C146.835 146.981 147.021 146.91 147.268 146.91C147.514 146.91 147.701 146.981 147.828 147.122C147.956 147.263 148.02 147.437 148.02 147.642C148.02 147.847 147.956 148.018 147.828 148.154C147.701 148.291 147.514 148.359 147.268 148.359C147.021 148.359 146.835 148.291 146.707 148.154C146.584 148.018 146.522 147.847 146.522 147.642ZM152.61 155.284L154.442 149.604H155.734L153.082 157H152.118L149.438 149.604H150.73L152.61 155.284Z" fill="white"/>
<rect x="178.25" y="136.25" width="77.5" height="31.5" rx="15.75" fill="#F1F3F8"/>
<path d="M192.468 153.104V157H191.155V147.047H194.826C195.915 147.047 196.768 147.325 197.383 147.881C198.003 148.437 198.312 149.173 198.312 150.089C198.312 151.055 198.009 151.8 197.403 152.324C196.802 152.844 195.938 153.104 194.812 153.104H192.468ZM192.468 152.03H194.826C195.528 152.03 196.066 151.866 196.439 151.538C196.813 151.205 197 150.727 197 150.103C197 149.51 196.813 149.036 196.439 148.681C196.066 148.325 195.553 148.141 194.901 148.127H192.468V152.03ZM204.523 157C204.451 156.854 204.391 156.594 204.346 156.221C203.758 156.831 203.056 157.137 202.24 157.137C201.511 157.137 200.912 156.932 200.442 156.521C199.978 156.107 199.745 155.583 199.745 154.949C199.745 154.179 200.037 153.582 200.62 153.158C201.208 152.73 202.033 152.516 203.095 152.516H204.325V151.935C204.325 151.493 204.193 151.142 203.929 150.882C203.664 150.618 203.275 150.485 202.76 150.485C202.309 150.485 201.93 150.599 201.625 150.827C201.32 151.055 201.167 151.331 201.167 151.654H199.896C199.896 151.285 200.025 150.93 200.285 150.588C200.549 150.242 200.905 149.968 201.352 149.768C201.803 149.567 202.297 149.467 202.835 149.467C203.687 149.467 204.355 149.681 204.838 150.109C205.321 150.533 205.572 151.119 205.59 151.866V155.271C205.59 155.95 205.676 156.49 205.85 156.891V157H204.523ZM202.425 156.036C202.821 156.036 203.197 155.934 203.553 155.729C203.908 155.523 204.166 155.257 204.325 154.929V153.411H203.334C201.785 153.411 201.01 153.865 201.01 154.771C201.01 155.168 201.142 155.478 201.406 155.701C201.671 155.924 202.01 156.036 202.425 156.036ZM212.389 156.269C211.896 156.847 211.174 157.137 210.222 157.137C209.433 157.137 208.832 156.909 208.417 156.453C208.007 155.993 207.799 155.314 207.795 154.416V149.604H209.06V154.382C209.06 155.503 209.515 156.063 210.427 156.063C211.393 156.063 212.035 155.703 212.354 154.983V149.604H213.619V157H212.416L212.389 156.269ZM220.104 155.038C220.104 154.696 219.974 154.432 219.714 154.245C219.459 154.054 219.01 153.89 218.367 153.753C217.729 153.616 217.221 153.452 216.843 153.261C216.469 153.069 216.191 152.841 216.009 152.577C215.831 152.313 215.742 151.998 215.742 151.634C215.742 151.028 215.997 150.515 216.508 150.096C217.023 149.676 217.679 149.467 218.477 149.467C219.315 149.467 219.994 149.683 220.514 150.116C221.038 150.549 221.3 151.103 221.3 151.777H220.028C220.028 151.431 219.88 151.132 219.584 150.882C219.292 150.631 218.923 150.506 218.477 150.506C218.016 150.506 217.656 150.606 217.396 150.807C217.137 151.007 217.007 151.269 217.007 151.593C217.007 151.898 217.128 152.128 217.369 152.283C217.611 152.438 218.046 152.586 218.675 152.728C219.308 152.869 219.821 153.037 220.213 153.233C220.605 153.429 220.894 153.666 221.081 153.944C221.272 154.218 221.368 154.553 221.368 154.949C221.368 155.61 221.104 156.141 220.575 156.542C220.047 156.938 219.361 157.137 218.518 157.137C217.925 157.137 217.401 157.032 216.945 156.822C216.49 156.613 216.132 156.321 215.872 155.947C215.617 155.569 215.489 155.161 215.489 154.724H216.754C216.777 155.147 216.945 155.485 217.26 155.735C217.579 155.981 217.998 156.104 218.518 156.104C218.996 156.104 219.379 156.009 219.666 155.817C219.958 155.621 220.104 155.362 220.104 155.038ZM224.64 157H223.375V149.604H224.64V157ZM223.272 147.642C223.272 147.437 223.334 147.263 223.457 147.122C223.585 146.981 223.771 146.91 224.018 146.91C224.264 146.91 224.451 146.981 224.578 147.122C224.706 147.263 224.77 147.437 224.77 147.642C224.77 147.847 224.706 148.018 224.578 148.154C224.451 148.291 224.264 148.359 224.018 148.359C223.771 148.359 223.585 148.291 223.457 148.154C223.334 148.018 223.272 147.847 223.272 147.642ZM229.989 157.137C228.987 157.137 228.171 156.809 227.542 156.152C226.913 155.492 226.599 154.61 226.599 153.507V153.274C226.599 152.541 226.738 151.887 227.016 151.312C227.298 150.734 227.69 150.283 228.191 149.959C228.697 149.631 229.244 149.467 229.832 149.467C230.794 149.467 231.541 149.784 232.074 150.417C232.607 151.05 232.874 151.957 232.874 153.138V153.664H227.863C227.882 154.393 228.093 154.983 228.499 155.435C228.909 155.881 229.429 156.104 230.058 156.104C230.504 156.104 230.882 156.013 231.192 155.831C231.502 155.649 231.773 155.407 232.006 155.106L232.778 155.708C232.159 156.66 231.229 157.137 229.989 157.137ZM229.832 150.506C229.322 150.506 228.893 150.693 228.547 151.066C228.201 151.436 227.986 151.955 227.904 152.625H231.609V152.529C231.573 151.887 231.4 151.39 231.09 151.039C230.78 150.684 230.361 150.506 229.832 150.506ZM238.169 150.738C237.978 150.706 237.77 150.69 237.547 150.69C236.717 150.69 236.155 151.044 235.858 151.75V157H234.594V149.604H235.824L235.845 150.458C236.259 149.797 236.847 149.467 237.608 149.467C237.854 149.467 238.041 149.499 238.169 149.562V150.738ZM241.646 147.812V149.604H243.026V150.581H241.646V155.168C241.646 155.464 241.707 155.688 241.83 155.838C241.953 155.984 242.163 156.057 242.459 156.057C242.605 156.057 242.805 156.029 243.061 155.975V157C242.728 157.091 242.404 157.137 242.09 157.137C241.525 157.137 241.099 156.966 240.812 156.624C240.524 156.282 240.381 155.797 240.381 155.168V150.581H239.034V149.604H240.381V147.812H241.646Z" fill="black"/>
<rect x="178.25" y="136.25" width="77.5" height="31.5" rx="15.75" stroke="#D8D8D8" stroke-width="0.5"/>
<rect x="266.25" y="136.25" width="122.5" height="31.5" rx="15.75" fill="#F1F3F8"/>
<path d="M284.651 154.402H280.481L279.545 157H278.191L281.992 147.047H283.141L286.948 157H285.602L284.651 154.402ZM280.878 153.322H284.262L282.566 148.667L280.878 153.322ZM294.602 153.384C294.602 154.514 294.342 155.423 293.822 156.111C293.303 156.795 292.605 157.137 291.73 157.137C290.796 157.137 290.074 156.806 289.563 156.146L289.502 157H288.34V146.5H289.604V150.417C290.115 149.784 290.819 149.467 291.717 149.467C292.615 149.467 293.319 149.806 293.829 150.485C294.344 151.164 294.602 152.094 294.602 153.274V153.384ZM293.337 153.24C293.337 152.379 293.171 151.714 292.838 151.244C292.505 150.775 292.027 150.54 291.402 150.54C290.568 150.54 289.969 150.927 289.604 151.702V154.901C289.992 155.676 290.596 156.063 291.416 156.063C292.022 156.063 292.494 155.829 292.831 155.359C293.168 154.89 293.337 154.184 293.337 153.24ZM296.15 153.24C296.15 152.087 296.417 151.171 296.95 150.492C297.483 149.809 298.19 149.467 299.069 149.467C299.972 149.467 300.676 149.786 301.182 150.424L301.243 149.604H302.398V156.822C302.398 157.779 302.114 158.534 301.544 159.085C300.979 159.636 300.218 159.912 299.261 159.912C298.728 159.912 298.206 159.798 297.695 159.57C297.185 159.342 296.795 159.03 296.526 158.634L297.183 157.875C297.725 158.545 298.388 158.88 299.172 158.88C299.787 158.88 300.266 158.707 300.607 158.36C300.954 158.014 301.127 157.526 301.127 156.897V156.262C300.621 156.845 299.931 157.137 299.056 157.137C298.19 157.137 297.488 156.788 296.95 156.091C296.417 155.394 296.15 154.443 296.15 153.24ZM297.422 153.384C297.422 154.218 297.593 154.874 297.935 155.353C298.276 155.826 298.755 156.063 299.37 156.063C300.168 156.063 300.753 155.701 301.127 154.977V151.6C300.74 150.893 300.159 150.54 299.384 150.54C298.769 150.54 298.288 150.779 297.941 151.258C297.595 151.736 297.422 152.445 297.422 153.384ZM307.632 157.137C306.629 157.137 305.813 156.809 305.185 156.152C304.556 155.492 304.241 154.61 304.241 153.507V153.274C304.241 152.541 304.38 151.887 304.658 151.312C304.941 150.734 305.333 150.283 305.834 149.959C306.34 149.631 306.887 149.467 307.475 149.467C308.436 149.467 309.184 149.784 309.717 150.417C310.25 151.05 310.517 151.957 310.517 153.138V153.664H305.506C305.524 154.393 305.736 154.983 306.142 155.435C306.552 155.881 307.071 156.104 307.7 156.104C308.147 156.104 308.525 156.013 308.835 155.831C309.145 155.649 309.416 155.407 309.648 155.106L310.421 155.708C309.801 156.66 308.871 157.137 307.632 157.137ZM307.475 150.506C306.964 150.506 306.536 150.693 306.189 151.066C305.843 151.436 305.629 151.955 305.547 152.625H309.252V152.529C309.215 151.887 309.042 151.39 308.732 151.039C308.423 150.684 308.003 150.506 307.475 150.506ZM316.543 155.038C316.543 154.696 316.413 154.432 316.153 154.245C315.898 154.054 315.449 153.89 314.807 153.753C314.169 153.616 313.66 153.452 313.282 153.261C312.909 153.069 312.631 152.841 312.448 152.577C312.271 152.313 312.182 151.998 312.182 151.634C312.182 151.028 312.437 150.515 312.947 150.096C313.462 149.676 314.118 149.467 314.916 149.467C315.755 149.467 316.434 149.683 316.953 150.116C317.477 150.549 317.739 151.103 317.739 151.777H316.468C316.468 151.431 316.32 151.132 316.023 150.882C315.732 150.631 315.363 150.506 314.916 150.506C314.456 150.506 314.096 150.606 313.836 150.807C313.576 151.007 313.446 151.269 313.446 151.593C313.446 151.898 313.567 152.128 313.809 152.283C314.05 152.438 314.485 152.586 315.114 152.728C315.748 152.869 316.26 153.037 316.652 153.233C317.044 153.429 317.334 153.666 317.521 153.944C317.712 154.218 317.808 154.553 317.808 154.949C317.808 155.61 317.543 156.141 317.015 156.542C316.486 156.938 315.8 157.137 314.957 157.137C314.365 157.137 313.84 157.032 313.385 156.822C312.929 156.613 312.571 156.321 312.312 155.947C312.056 155.569 311.929 155.161 311.929 154.724H313.193C313.216 155.147 313.385 155.485 313.699 155.735C314.018 155.981 314.438 156.104 314.957 156.104C315.436 156.104 315.818 156.009 316.105 155.817C316.397 155.621 316.543 155.362 316.543 155.038ZM322.672 156.104C323.123 156.104 323.517 155.968 323.854 155.694C324.192 155.421 324.379 155.079 324.415 154.669H325.611C325.589 155.093 325.443 155.496 325.174 155.879C324.905 156.262 324.545 156.567 324.094 156.795C323.647 157.023 323.173 157.137 322.672 157.137C321.665 157.137 320.863 156.802 320.266 156.132C319.673 155.457 319.377 154.537 319.377 153.37V153.158C319.377 152.438 319.509 151.798 319.773 151.237C320.038 150.677 320.416 150.242 320.908 149.932C321.405 149.622 321.991 149.467 322.665 149.467C323.494 149.467 324.183 149.715 324.729 150.212C325.281 150.709 325.575 151.354 325.611 152.146H324.415C324.379 151.668 324.196 151.276 323.868 150.971C323.545 150.661 323.144 150.506 322.665 150.506C322.022 150.506 321.523 150.738 321.168 151.203C320.817 151.663 320.642 152.331 320.642 153.206V153.445C320.642 154.298 320.817 154.954 321.168 155.414C321.519 155.874 322.02 156.104 322.672 156.104ZM328.548 150.499C329.108 149.811 329.838 149.467 330.735 149.467C332.299 149.467 333.087 150.349 333.101 152.112V157H331.836V152.105C331.831 151.572 331.708 151.178 331.467 150.923C331.23 150.668 330.858 150.54 330.353 150.54C329.942 150.54 329.582 150.649 329.272 150.868C328.963 151.087 328.721 151.374 328.548 151.729V157H327.283V146.5H328.548V150.499ZM336.618 157H335.354V146.5H336.618V157ZM338.563 153.233C338.563 152.509 338.705 151.857 338.987 151.278C339.274 150.7 339.671 150.253 340.177 149.938C340.687 149.624 341.268 149.467 341.92 149.467C342.927 149.467 343.741 149.815 344.36 150.513C344.985 151.21 345.297 152.137 345.297 153.295V153.384C345.297 154.104 345.158 154.751 344.88 155.325C344.606 155.895 344.212 156.339 343.697 156.658C343.187 156.977 342.599 157.137 341.934 157.137C340.931 157.137 340.118 156.788 339.493 156.091C338.873 155.394 338.563 154.471 338.563 153.322V153.233ZM339.835 153.384C339.835 154.204 340.024 154.863 340.402 155.359C340.785 155.856 341.296 156.104 341.934 156.104C342.576 156.104 343.087 155.854 343.465 155.353C343.843 154.847 344.032 154.14 344.032 153.233C344.032 152.422 343.839 151.766 343.451 151.265C343.068 150.759 342.558 150.506 341.92 150.506C341.296 150.506 340.792 150.754 340.409 151.251C340.026 151.748 339.835 152.459 339.835 153.384ZM351.439 155.038C351.439 154.696 351.31 154.432 351.05 154.245C350.795 154.054 350.346 153.89 349.703 153.753C349.065 153.616 348.557 153.452 348.179 153.261C347.805 153.069 347.527 152.841 347.345 152.577C347.167 152.313 347.078 151.998 347.078 151.634C347.078 151.028 347.333 150.515 347.844 150.096C348.359 149.676 349.015 149.467 349.812 149.467C350.651 149.467 351.33 149.683 351.85 150.116C352.374 150.549 352.636 151.103 352.636 151.777H351.364C351.364 151.431 351.216 151.132 350.92 150.882C350.628 150.631 350.259 150.506 349.812 150.506C349.352 150.506 348.992 150.606 348.732 150.807C348.473 151.007 348.343 151.269 348.343 151.593C348.343 151.898 348.464 152.128 348.705 152.283C348.947 152.438 349.382 152.586 350.011 152.728C350.644 152.869 351.157 153.037 351.549 153.233C351.941 153.429 352.23 153.666 352.417 153.944C352.608 154.218 352.704 154.553 352.704 154.949C352.704 155.61 352.44 156.141 351.911 156.542C351.382 156.938 350.697 157.137 349.854 157.137C349.261 157.137 348.737 157.032 348.281 156.822C347.826 156.613 347.468 156.321 347.208 155.947C346.953 155.569 346.825 155.161 346.825 154.724H348.09C348.113 155.147 348.281 155.485 348.596 155.735C348.915 155.981 349.334 156.104 349.854 156.104C350.332 156.104 350.715 156.009 351.002 155.817C351.294 155.621 351.439 155.362 351.439 155.038ZM358.908 155.038C358.908 154.696 358.778 154.432 358.519 154.245C358.263 154.054 357.814 153.89 357.172 153.753C356.534 153.616 356.026 153.452 355.647 153.261C355.274 153.069 354.996 152.841 354.813 152.577C354.636 152.313 354.547 151.998 354.547 151.634C354.547 151.028 354.802 150.515 355.312 150.096C355.827 149.676 356.484 149.467 357.281 149.467C358.12 149.467 358.799 149.683 359.318 150.116C359.842 150.549 360.104 151.103 360.104 151.777H358.833C358.833 151.431 358.685 151.132 358.389 150.882C358.097 150.631 357.728 150.506 357.281 150.506C356.821 150.506 356.461 150.606 356.201 150.807C355.941 151.007 355.812 151.269 355.812 151.593C355.812 151.898 355.932 152.128 356.174 152.283C356.415 152.438 356.851 152.586 357.479 152.728C358.113 152.869 358.626 153.037 359.018 153.233C359.41 153.429 359.699 153.666 359.886 153.944C360.077 154.218 360.173 154.553 360.173 154.949C360.173 155.61 359.909 156.141 359.38 156.542C358.851 156.938 358.165 157.137 357.322 157.137C356.73 157.137 356.206 157.032 355.75 156.822C355.294 156.613 354.937 156.321 354.677 155.947C354.422 155.569 354.294 155.161 354.294 154.724H355.559C355.581 155.147 355.75 155.485 356.064 155.735C356.383 155.981 356.803 156.104 357.322 156.104C357.801 156.104 358.184 156.009 358.471 155.817C358.762 155.621 358.908 155.362 358.908 155.038ZM365.14 157.137C364.137 157.137 363.321 156.809 362.692 156.152C362.063 155.492 361.749 154.61 361.749 153.507V153.274C361.749 152.541 361.888 151.887 362.166 151.312C362.449 150.734 362.84 150.283 363.342 149.959C363.848 149.631 364.395 149.467 364.982 149.467C365.944 149.467 366.691 149.784 367.225 150.417C367.758 151.05 368.024 151.957 368.024 153.138V153.664H363.014C363.032 154.393 363.244 154.983 363.649 155.435C364.06 155.881 364.579 156.104 365.208 156.104C365.655 156.104 366.033 156.013 366.343 155.831C366.653 155.649 366.924 155.407 367.156 155.106L367.929 155.708C367.309 156.66 366.379 157.137 365.14 157.137ZM364.982 150.506C364.472 150.506 364.044 150.693 363.697 151.066C363.351 151.436 363.137 151.955 363.055 152.625H366.76V152.529C366.723 151.887 366.55 151.39 366.24 151.039C365.93 150.684 365.511 150.506 364.982 150.506ZM370.94 149.604L370.981 150.533C371.547 149.822 372.285 149.467 373.196 149.467C374.759 149.467 375.548 150.349 375.562 152.112V157H374.297V152.105C374.292 151.572 374.169 151.178 373.928 150.923C373.691 150.668 373.319 150.54 372.813 150.54C372.403 150.54 372.043 150.649 371.733 150.868C371.424 151.087 371.182 151.374 371.009 151.729V157H369.744V149.604H370.94Z" fill="black"/>
<rect x="266.25" y="136.25" width="122.5" height="31.5" rx="15.75" stroke="#D8D8D8" stroke-width="0.5"/>
<path d="M111.524 217.245V222H109.301V209.203H114.196C115.626 209.203 116.76 209.575 117.598 210.319C118.441 211.063 118.863 212.048 118.863 213.272C118.863 214.526 118.45 215.502 117.624 216.199C116.804 216.896 115.652 217.245 114.17 217.245H111.524ZM111.524 215.461H114.196C114.987 215.461 115.591 215.276 116.007 214.907C116.423 214.532 116.631 213.993 116.631 213.29C116.631 212.599 116.42 212.048 115.998 211.638C115.576 211.222 114.996 211.008 114.258 210.996H111.524V215.461ZM125.737 214.441C125.456 214.395 125.166 214.371 124.867 214.371C123.888 214.371 123.229 214.746 122.889 215.496V222H120.754V212.49H122.793L122.845 213.554C123.361 212.728 124.076 212.314 124.99 212.314C125.295 212.314 125.546 212.355 125.746 212.438L125.737 214.441ZM126.52 217.157C126.52 216.226 126.704 215.388 127.073 214.644C127.443 213.894 127.961 213.319 128.629 212.921C129.297 212.517 130.065 212.314 130.932 212.314C132.215 212.314 133.255 212.728 134.052 213.554C134.855 214.38 135.288 215.476 135.353 216.841L135.362 217.342C135.362 218.279 135.18 219.117 134.817 219.855C134.459 220.594 133.944 221.165 133.27 221.569C132.602 221.974 131.828 222.176 130.949 222.176C129.608 222.176 128.532 221.73 127.724 220.84C126.921 219.943 126.52 218.751 126.52 217.263V217.157ZM128.655 217.342C128.655 218.32 128.858 219.088 129.262 219.645C129.666 220.195 130.229 220.471 130.949 220.471C131.67 220.471 132.23 220.189 132.628 219.627C133.032 219.064 133.235 218.241 133.235 217.157C133.235 216.196 133.027 215.435 132.611 214.872C132.2 214.31 131.641 214.028 130.932 214.028C130.235 214.028 129.681 214.307 129.271 214.863C128.861 215.414 128.655 216.24 128.655 217.342ZM139.546 212.49V222.844C139.546 223.816 139.303 224.558 138.816 225.067C138.336 225.583 137.63 225.841 136.698 225.841C136.305 225.841 135.928 225.791 135.564 225.691V224.004C135.787 224.057 136.039 224.083 136.32 224.083C137.029 224.083 137.392 223.696 137.41 222.923V212.49H139.546ZM137.225 210.021C137.225 209.692 137.328 209.42 137.533 209.203C137.744 208.986 138.043 208.878 138.429 208.878C138.816 208.878 139.115 208.986 139.326 209.203C139.537 209.42 139.642 209.692 139.642 210.021C139.642 210.343 139.537 210.612 139.326 210.829C139.115 211.04 138.816 211.146 138.429 211.146C138.043 211.146 137.744 211.04 137.533 210.829C137.328 210.612 137.225 210.343 137.225 210.021ZM146.173 222.176C144.82 222.176 143.721 221.751 142.877 220.901C142.039 220.046 141.621 218.909 141.621 217.491V217.228C141.621 216.278 141.802 215.432 142.165 214.688C142.535 213.938 143.05 213.354 143.712 212.938C144.374 212.522 145.113 212.314 145.927 212.314C147.222 212.314 148.221 212.728 148.924 213.554C149.633 214.38 149.988 215.549 149.988 217.061V217.922H143.774C143.838 218.707 144.099 219.328 144.556 219.785C145.019 220.242 145.599 220.471 146.296 220.471C147.275 220.471 148.072 220.075 148.687 219.284L149.838 220.383C149.457 220.951 148.948 221.394 148.309 221.71C147.676 222.021 146.964 222.176 146.173 222.176ZM145.918 214.028C145.332 214.028 144.858 214.233 144.495 214.644C144.137 215.054 143.909 215.625 143.809 216.357H147.878V216.199C147.831 215.484 147.641 214.945 147.307 214.582C146.973 214.213 146.51 214.028 145.918 214.028ZM154.893 217.922L153.943 218.897V222H151.808V208.5H153.943V216.287L154.611 215.452L157.239 212.49H159.806L156.272 216.454L160.184 222H157.714L154.893 217.922ZM164.034 210.179V212.49H165.713V214.072H164.034V219.381C164.034 219.744 164.104 220.008 164.245 220.172C164.391 220.33 164.649 220.409 165.018 220.409C165.264 220.409 165.513 220.38 165.765 220.321V221.974C165.279 222.108 164.81 222.176 164.359 222.176C162.718 222.176 161.898 221.271 161.898 219.46V214.072H160.334V212.49H161.898V210.179H164.034ZM169.51 212.49L169.571 213.483C170.239 212.704 171.154 212.314 172.314 212.314C173.585 212.314 174.455 212.801 174.924 213.773C175.615 212.801 176.588 212.314 177.842 212.314C178.891 212.314 179.67 212.604 180.18 213.185C180.696 213.765 180.959 214.62 180.971 215.751V222H178.835V215.812C178.835 215.209 178.703 214.767 178.44 214.485C178.176 214.204 177.739 214.063 177.13 214.063C176.644 214.063 176.245 214.195 175.935 214.459C175.63 214.717 175.416 215.057 175.293 215.479L175.302 222H173.166V215.742C173.137 214.623 172.566 214.063 171.452 214.063C170.597 214.063 169.99 214.412 169.633 215.109V222H167.497V212.49H169.51ZM188.996 222C188.902 221.818 188.82 221.522 188.75 221.112C188.07 221.821 187.238 222.176 186.254 222.176C185.299 222.176 184.519 221.903 183.916 221.358C183.312 220.813 183.011 220.14 183.011 219.337C183.011 218.323 183.386 217.547 184.136 217.008C184.891 216.463 185.97 216.19 187.37 216.19H188.679V215.566C188.679 215.074 188.542 214.682 188.266 214.389C187.991 214.09 187.572 213.94 187.01 213.94C186.523 213.94 186.125 214.063 185.814 214.31C185.504 214.55 185.348 214.857 185.348 215.232H183.213C183.213 214.711 183.386 214.225 183.731 213.773C184.077 213.316 184.546 212.959 185.137 212.701C185.735 212.443 186.4 212.314 187.133 212.314C188.246 212.314 189.134 212.596 189.796 213.158C190.458 213.715 190.798 214.5 190.815 215.514V219.803C190.815 220.658 190.935 221.341 191.176 221.851V222H188.996ZM186.649 220.462C187.071 220.462 187.467 220.359 187.836 220.154C188.211 219.949 188.492 219.674 188.679 219.328V217.535H187.528C186.737 217.535 186.142 217.673 185.744 217.948C185.346 218.224 185.146 218.613 185.146 219.117C185.146 219.527 185.281 219.855 185.551 220.102C185.826 220.342 186.192 220.462 186.649 220.462ZM195.184 212.49L195.246 213.589C195.949 212.739 196.871 212.314 198.014 212.314C199.995 212.314 201.002 213.448 201.037 215.716V222H198.902V215.839C198.902 215.235 198.77 214.79 198.506 214.503C198.248 214.21 197.824 214.063 197.232 214.063C196.371 214.063 195.729 214.453 195.307 215.232V222H193.171V212.49H195.184ZM209.054 222C208.96 221.818 208.878 221.522 208.808 221.112C208.128 221.821 207.296 222.176 206.312 222.176C205.356 222.176 204.577 221.903 203.974 221.358C203.37 220.813 203.068 220.14 203.068 219.337C203.068 218.323 203.443 217.547 204.193 217.008C204.949 216.463 206.027 216.19 207.428 216.19H208.737V215.566C208.737 215.074 208.6 214.682 208.324 214.389C208.049 214.09 207.63 213.94 207.067 213.94C206.581 213.94 206.183 214.063 205.872 214.31C205.562 214.55 205.406 214.857 205.406 215.232H203.271C203.271 214.711 203.443 214.225 203.789 213.773C204.135 213.316 204.604 212.959 205.195 212.701C205.793 212.443 206.458 212.314 207.19 212.314C208.304 212.314 209.191 212.596 209.854 213.158C210.516 213.715 210.855 214.5 210.873 215.514V219.803C210.873 220.658 210.993 221.341 211.233 221.851V222H209.054ZM206.707 220.462C207.129 220.462 207.524 220.359 207.894 220.154C208.269 219.949 208.55 219.674 208.737 219.328V217.535H207.586C206.795 217.535 206.2 217.673 205.802 217.948C205.403 218.224 205.204 218.613 205.204 219.117C205.204 219.527 205.339 219.855 205.608 220.102C205.884 220.342 206.25 220.462 206.707 220.462ZM212.886 217.175C212.886 215.698 213.232 214.521 213.923 213.642C214.621 212.757 215.544 212.314 216.692 212.314C217.776 212.314 218.629 212.692 219.25 213.448L219.346 212.49H221.271V221.71C221.271 222.958 220.881 223.942 220.102 224.663C219.329 225.384 218.283 225.744 216.964 225.744C216.267 225.744 215.585 225.598 214.917 225.305C214.254 225.018 213.751 224.64 213.405 224.171L214.416 222.888C215.072 223.667 215.88 224.057 216.841 224.057C217.55 224.057 218.11 223.863 218.52 223.477C218.93 223.096 219.135 222.533 219.135 221.789V221.147C218.52 221.833 217.7 222.176 216.674 222.176C215.561 222.176 214.65 221.733 213.941 220.849C213.238 219.964 212.886 218.739 212.886 217.175ZM215.013 217.359C215.013 218.314 215.207 219.067 215.593 219.618C215.986 220.163 216.528 220.436 217.219 220.436C218.081 220.436 218.719 220.066 219.135 219.328V215.145C218.731 214.424 218.098 214.063 217.237 214.063C216.534 214.063 215.986 214.342 215.593 214.898C215.207 215.455 215.013 216.275 215.013 217.359ZM227.811 222.176C226.457 222.176 225.359 221.751 224.515 220.901C223.677 220.046 223.258 218.909 223.258 217.491V217.228C223.258 216.278 223.44 215.432 223.803 214.688C224.172 213.938 224.688 213.354 225.35 212.938C226.012 212.522 226.75 212.314 227.565 212.314C228.86 212.314 229.859 212.728 230.562 213.554C231.271 214.38 231.625 215.549 231.625 217.061V217.922H225.411C225.476 218.707 225.737 219.328 226.194 219.785C226.656 220.242 227.237 220.471 227.934 220.471C228.912 220.471 229.709 220.075 230.324 219.284L231.476 220.383C231.095 220.951 230.585 221.394 229.946 221.71C229.314 222.021 228.602 222.176 227.811 222.176ZM227.556 214.028C226.97 214.028 226.495 214.233 226.132 214.644C225.775 215.054 225.546 215.625 225.446 216.357H229.516V216.199C229.469 215.484 229.279 214.945 228.945 214.582C228.611 214.213 228.148 214.028 227.556 214.028ZM238.42 214.441C238.138 214.395 237.848 214.371 237.55 214.371C236.571 214.371 235.912 214.746 235.572 215.496V222H233.436V212.49H235.475L235.528 213.554C236.044 212.728 236.759 212.314 237.673 212.314C237.977 212.314 238.229 212.355 238.429 212.438L238.42 214.441Z" fill="black"/>
<rect x="108.25" y="248.25" width="43.5" height="31.5" rx="15.75" fill="#F1F3F8"/>
<path d="M122.563 269H121.251V259.047H122.563V269ZM127.988 268.104C128.439 268.104 128.834 267.968 129.171 267.694C129.508 267.421 129.695 267.079 129.731 266.669H130.928C130.905 267.093 130.759 267.496 130.49 267.879C130.221 268.262 129.861 268.567 129.41 268.795C128.964 269.023 128.49 269.137 127.988 269.137C126.981 269.137 126.179 268.802 125.582 268.132C124.99 267.457 124.693 266.537 124.693 265.37V265.158C124.693 264.438 124.826 263.798 125.09 263.237C125.354 262.677 125.732 262.242 126.225 261.932C126.721 261.622 127.307 261.467 127.981 261.467C128.811 261.467 129.499 261.715 130.046 262.212C130.597 262.709 130.891 263.354 130.928 264.146H129.731C129.695 263.668 129.513 263.276 129.185 262.971C128.861 262.661 128.46 262.506 127.981 262.506C127.339 262.506 126.84 262.738 126.484 263.203C126.133 263.663 125.958 264.331 125.958 265.206V265.445C125.958 266.298 126.133 266.954 126.484 267.414C126.835 267.874 127.337 268.104 127.988 268.104ZM133.864 262.499C134.425 261.811 135.154 261.467 136.052 261.467C137.615 261.467 138.403 262.349 138.417 264.112V269H137.152V264.105C137.148 263.572 137.025 263.178 136.783 262.923C136.546 262.668 136.175 262.54 135.669 262.54C135.259 262.54 134.899 262.649 134.589 262.868C134.279 263.087 134.037 263.374 133.864 263.729V269H132.6V258.5H133.864V262.499Z" fill="black"/>
<rect x="108.25" y="248.25" width="43.5" height="31.5" rx="15.75" stroke="#D8D8D8" stroke-width="0.5"/>
<rect x="162.25" y="248.25" width="135.5" height="31.5" rx="15.75" fill="#F1F3F8"/>
<path d="M180.651 266.402H176.481L175.545 269H174.191L177.992 259.047H179.141L182.948 269H181.602L180.651 266.402ZM176.878 265.322H180.262L178.566 260.667L176.878 265.322ZM185.536 261.604L185.577 262.533C186.142 261.822 186.881 261.467 187.792 261.467C189.355 261.467 190.144 262.349 190.157 264.112V269H188.893V264.105C188.888 263.572 188.765 263.178 188.523 262.923C188.286 262.668 187.915 262.54 187.409 262.54C186.999 262.54 186.639 262.649 186.329 262.868C186.019 263.087 185.778 263.374 185.604 263.729V269H184.34V261.604H185.536ZM192.007 265.24C192.007 264.105 192.276 263.194 192.813 262.506C193.351 261.813 194.055 261.467 194.926 261.467C195.792 261.467 196.478 261.763 196.983 262.355V258.5H198.248V269H197.086L197.024 268.207C196.519 268.827 195.814 269.137 194.912 269.137C194.055 269.137 193.356 268.786 192.813 268.084C192.276 267.382 192.007 266.466 192.007 265.336V265.24ZM193.271 265.384C193.271 266.222 193.445 266.879 193.791 267.353C194.137 267.826 194.616 268.063 195.227 268.063C196.029 268.063 196.614 267.703 196.983 266.983V263.586C196.605 262.889 196.024 262.54 195.24 262.54C194.62 262.54 194.137 262.779 193.791 263.258C193.445 263.736 193.271 264.445 193.271 265.384ZM203.536 269.137C202.534 269.137 201.718 268.809 201.089 268.152C200.46 267.492 200.146 266.61 200.146 265.507V265.274C200.146 264.541 200.285 263.887 200.562 263.312C200.845 262.734 201.237 262.283 201.738 261.959C202.244 261.631 202.791 261.467 203.379 261.467C204.34 261.467 205.088 261.784 205.621 262.417C206.154 263.05 206.421 263.957 206.421 265.138V265.664H201.41C201.428 266.393 201.64 266.983 202.046 267.435C202.456 267.881 202.976 268.104 203.604 268.104C204.051 268.104 204.429 268.013 204.739 267.831C205.049 267.649 205.32 267.407 205.553 267.106L206.325 267.708C205.705 268.66 204.776 269.137 203.536 269.137ZM203.379 262.506C202.868 262.506 202.44 262.693 202.094 263.066C201.747 263.436 201.533 263.955 201.451 264.625H205.156V264.529C205.12 263.887 204.947 263.39 204.637 263.039C204.327 262.684 203.908 262.506 203.379 262.506ZM211.716 262.738C211.524 262.706 211.317 262.69 211.094 262.69C210.264 262.69 209.701 263.044 209.405 263.75V269H208.141V261.604H209.371L209.392 262.458C209.806 261.797 210.394 261.467 211.155 261.467C211.401 261.467 211.588 261.499 211.716 261.562V262.738ZM216.067 269.137C215.065 269.137 214.249 268.809 213.62 268.152C212.991 267.492 212.677 266.61 212.677 265.507V265.274C212.677 264.541 212.816 263.887 213.094 263.312C213.376 262.734 213.768 262.283 214.27 261.959C214.775 261.631 215.322 261.467 215.91 261.467C216.872 261.467 217.619 261.784 218.152 262.417C218.686 263.05 218.952 263.957 218.952 265.138V265.664H213.941C213.96 266.393 214.172 266.983 214.577 267.435C214.987 267.881 215.507 268.104 216.136 268.104C216.582 268.104 216.961 268.013 217.271 267.831C217.58 267.649 217.852 267.407 218.084 267.106L218.856 267.708C218.237 268.66 217.307 269.137 216.067 269.137ZM215.91 262.506C215.4 262.506 214.971 262.693 214.625 263.066C214.279 263.436 214.064 263.955 213.982 264.625H217.688V264.529C217.651 263.887 217.478 263.39 217.168 263.039C216.858 262.684 216.439 262.506 215.91 262.506ZM224.247 262.738C224.056 262.706 223.848 262.69 223.625 262.69C222.796 262.69 222.233 263.044 221.937 263.75V269H220.672V261.604H221.902L221.923 262.458C222.338 261.797 222.925 261.467 223.687 261.467C223.933 261.467 224.119 261.499 224.247 261.562V262.738ZM229.587 269V259.047H232.841C233.921 259.047 234.732 259.27 235.274 259.717C235.821 260.163 236.095 260.824 236.095 261.699C236.095 262.164 235.963 262.576 235.698 262.937C235.434 263.292 235.074 263.568 234.618 263.764C235.156 263.914 235.58 264.201 235.89 264.625C236.204 265.044 236.361 265.546 236.361 266.129C236.361 267.022 236.072 267.724 235.493 268.234C234.914 268.745 234.096 269 233.039 269H229.587ZM230.899 264.345V267.927H233.066C233.677 267.927 234.158 267.77 234.509 267.455C234.864 267.136 235.042 266.699 235.042 266.143C235.042 264.944 234.39 264.345 233.087 264.345H230.899ZM230.899 263.292H232.882C233.456 263.292 233.914 263.148 234.256 262.861C234.602 262.574 234.775 262.185 234.775 261.692C234.775 261.146 234.616 260.749 234.297 260.503C233.978 260.252 233.493 260.127 232.841 260.127H230.899V263.292ZM241.431 269.137C240.428 269.137 239.612 268.809 238.983 268.152C238.354 267.492 238.04 266.61 238.04 265.507V265.274C238.04 264.541 238.179 263.887 238.457 263.312C238.74 262.734 239.132 262.283 239.633 261.959C240.139 261.631 240.686 261.467 241.273 261.467C242.235 261.467 242.982 261.784 243.516 262.417C244.049 263.05 244.315 263.957 244.315 265.138V265.664H239.305C239.323 266.393 239.535 266.983 239.94 267.435C240.351 267.881 240.87 268.104 241.499 268.104C241.946 268.104 242.324 268.013 242.634 267.831C242.944 267.649 243.215 267.407 243.447 267.106L244.22 267.708C243.6 268.66 242.67 269.137 241.431 269.137ZM241.273 262.506C240.763 262.506 240.335 262.693 239.988 263.066C239.642 263.436 239.428 263.955 239.346 264.625H243.051V264.529C243.014 263.887 242.841 263.39 242.531 263.039C242.221 262.684 241.802 262.506 241.273 262.506ZM247.231 261.604L247.272 262.533C247.838 261.822 248.576 261.467 249.487 261.467C251.05 261.467 251.839 262.349 251.853 264.112V269H250.588V264.105C250.583 263.572 250.46 263.178 250.219 262.923C249.982 262.668 249.61 262.54 249.104 262.54C248.694 262.54 248.334 262.649 248.024 262.868C247.715 263.087 247.473 263.374 247.3 263.729V269H246.035V261.604H247.231ZM258.576 268.269C258.084 268.847 257.362 269.137 256.409 269.137C255.621 269.137 255.019 268.909 254.604 268.453C254.194 267.993 253.987 267.314 253.982 266.416V261.604H255.247V266.382C255.247 267.503 255.703 268.063 256.614 268.063C257.58 268.063 258.223 267.703 258.542 266.983V261.604H259.807V269H258.604L258.576 268.269ZM263.7 259.812V261.604H265.081V262.581H263.7V267.168C263.7 267.464 263.762 267.688 263.885 267.838C264.008 267.984 264.217 268.057 264.514 268.057C264.66 268.057 264.86 268.029 265.115 267.975V269C264.783 269.091 264.459 269.137 264.145 269.137C263.579 269.137 263.153 268.966 262.866 268.624C262.579 268.282 262.436 267.797 262.436 267.168V262.581H261.089V261.604H262.436V259.812H263.7ZM268.004 267.968H272.331V269H266.459V268.07L270.54 262.649H266.521V261.604H272.126V262.499L268.004 267.968ZM276.97 269.137C275.967 269.137 275.151 268.809 274.522 268.152C273.894 267.492 273.579 266.61 273.579 265.507V265.274C273.579 264.541 273.718 263.887 273.996 263.312C274.279 262.734 274.671 262.283 275.172 261.959C275.678 261.631 276.225 261.467 276.812 261.467C277.774 261.467 278.521 261.784 279.055 262.417C279.588 263.05 279.854 263.957 279.854 265.138V265.664H274.844C274.862 266.393 275.074 266.983 275.479 267.435C275.89 267.881 276.409 268.104 277.038 268.104C277.485 268.104 277.863 268.013 278.173 267.831C278.483 267.649 278.754 267.407 278.986 267.106L279.759 267.708C279.139 268.66 278.209 269.137 276.97 269.137ZM276.812 262.506C276.302 262.506 275.874 262.693 275.527 263.066C275.181 263.436 274.967 263.955 274.885 264.625H278.59V264.529C278.553 263.887 278.38 263.39 278.07 263.039C277.76 262.684 277.341 262.506 276.812 262.506ZM285.149 262.738C284.958 262.706 284.751 262.69 284.527 262.69C283.698 262.69 283.135 263.044 282.839 263.75V269H281.574V261.604H282.805L282.825 262.458C283.24 261.797 283.828 261.467 284.589 261.467C284.835 261.467 285.022 261.499 285.149 261.562V262.738Z" fill="#1A73E9"/>
<rect x="162.25" y="248.25" width="135.5" height="31.5" rx="15.75" stroke="#D8D8D8" stroke-width="0.5"/>
<path d="M118.547 322.996H114.557V334H112.351V322.996H108.396V321.203H118.547V322.996ZM123.575 334.176C122.221 334.176 121.123 333.751 120.279 332.901C119.441 332.046 119.022 330.909 119.022 329.491V329.228C119.022 328.278 119.204 327.432 119.567 326.688C119.936 325.938 120.452 325.354 121.114 324.938C121.776 324.522 122.514 324.314 123.329 324.314C124.624 324.314 125.623 324.728 126.326 325.554C127.035 326.38 127.389 327.549 127.389 329.061V329.922H121.175C121.24 330.707 121.501 331.328 121.958 331.785C122.421 332.242 123.001 332.471 123.698 332.471C124.676 332.471 125.473 332.075 126.088 331.284L127.24 332.383C126.859 332.951 126.349 333.394 125.711 333.71C125.078 334.021 124.366 334.176 123.575 334.176ZM123.32 326.028C122.734 326.028 122.259 326.233 121.896 326.644C121.539 327.054 121.31 327.625 121.211 328.357H125.28V328.199C125.233 327.484 125.043 326.945 124.709 326.582C124.375 326.213 123.912 326.028 123.32 326.028ZM134.887 334C134.793 333.818 134.711 333.522 134.641 333.112C133.961 333.821 133.129 334.176 132.145 334.176C131.19 334.176 130.41 333.903 129.807 333.358C129.203 332.813 128.902 332.14 128.902 331.337C128.902 330.323 129.277 329.547 130.027 329.008C130.782 328.463 131.861 328.19 133.261 328.19H134.571V327.566C134.571 327.074 134.433 326.682 134.157 326.389C133.882 326.09 133.463 325.94 132.901 325.94C132.414 325.94 132.016 326.063 131.705 326.31C131.395 326.55 131.239 326.857 131.239 327.232H129.104C129.104 326.711 129.277 326.225 129.622 325.773C129.968 325.316 130.437 324.959 131.029 324.701C131.626 324.443 132.291 324.314 133.024 324.314C134.137 324.314 135.025 324.596 135.687 325.158C136.349 325.715 136.689 326.5 136.706 327.514V331.803C136.706 332.658 136.826 333.341 137.067 333.851V334H134.887ZM132.54 332.462C132.962 332.462 133.358 332.359 133.727 332.154C134.102 331.949 134.383 331.674 134.571 331.328V329.535H133.419C132.628 329.535 132.033 329.673 131.635 329.948C131.237 330.224 131.037 330.613 131.037 331.117C131.037 331.527 131.172 331.855 131.442 332.102C131.717 332.342 132.083 332.462 132.54 332.462ZM141.101 324.49L141.163 325.483C141.831 324.704 142.745 324.314 143.905 324.314C145.177 324.314 146.047 324.801 146.515 325.773C147.207 324.801 148.179 324.314 149.433 324.314C150.482 324.314 151.262 324.604 151.771 325.185C152.287 325.765 152.551 326.62 152.562 327.751V334H150.427V327.812C150.427 327.209 150.295 326.767 150.031 326.485C149.767 326.204 149.331 326.063 148.721 326.063C148.235 326.063 147.837 326.195 147.526 326.459C147.221 326.717 147.008 327.057 146.885 327.479L146.893 334H144.758V327.742C144.728 326.623 144.157 326.063 143.044 326.063C142.188 326.063 141.582 326.412 141.224 327.109V334H139.089V324.49H141.101ZM156.913 324.49L156.975 325.483C157.643 324.704 158.557 324.314 159.717 324.314C160.989 324.314 161.859 324.801 162.328 325.773C163.019 324.801 163.992 324.314 165.246 324.314C166.294 324.314 167.074 324.604 167.583 325.185C168.099 325.765 168.363 326.62 168.374 327.751V334H166.239V327.812C166.239 327.209 166.107 326.767 165.843 326.485C165.579 326.204 165.143 326.063 164.534 326.063C164.047 326.063 163.649 326.195 163.338 326.459C163.034 326.717 162.82 327.057 162.697 327.479L162.705 334H160.57V327.742C160.54 326.623 159.969 326.063 158.856 326.063C158 326.063 157.394 326.412 157.037 327.109V334H154.901V324.49H156.913ZM172.989 334H170.854V324.49H172.989V334ZM170.722 322.021C170.722 321.692 170.824 321.42 171.029 321.203C171.24 320.986 171.539 320.878 171.926 320.878C172.312 320.878 172.611 320.986 172.822 321.203C173.033 321.42 173.139 321.692 173.139 322.021C173.139 322.343 173.033 322.612 172.822 322.829C172.611 323.04 172.312 323.146 171.926 323.146C171.539 323.146 171.24 323.04 171.029 322.829C170.824 322.612 170.722 322.343 170.722 322.021ZM178.149 322.179V324.49H179.828V326.072H178.149V331.381C178.149 331.744 178.219 332.008 178.36 332.172C178.506 332.33 178.764 332.409 179.133 332.409C179.379 332.409 179.629 332.38 179.88 332.321V333.974C179.394 334.108 178.925 334.176 178.474 334.176C176.834 334.176 176.013 333.271 176.013 331.46V326.072H174.449V324.49H176.013V322.179H178.149ZM181.243 329.175C181.243 327.698 181.589 326.521 182.28 325.642C182.978 324.757 183.901 324.314 185.049 324.314C186.133 324.314 186.986 324.692 187.607 325.448L187.703 324.49H189.628V333.71C189.628 334.958 189.238 335.942 188.459 336.663C187.686 337.384 186.64 337.744 185.321 337.744C184.624 337.744 183.942 337.598 183.274 337.305C182.612 337.018 182.108 336.64 181.762 336.171L182.773 334.888C183.429 335.667 184.238 336.057 185.198 336.057C185.907 336.057 186.467 335.863 186.877 335.477C187.287 335.096 187.492 334.533 187.492 333.789V333.147C186.877 333.833 186.057 334.176 185.031 334.176C183.918 334.176 183.007 333.733 182.298 332.849C181.595 331.964 181.243 330.739 181.243 329.175ZM183.37 329.359C183.37 330.314 183.564 331.067 183.95 331.618C184.343 332.163 184.885 332.436 185.576 332.436C186.438 332.436 187.076 332.066 187.492 331.328V327.145C187.088 326.424 186.455 326.063 185.594 326.063C184.891 326.063 184.343 326.342 183.95 326.898C183.564 327.455 183.37 328.275 183.37 329.359ZM194.252 334H192.116V320.5H194.252V334ZM199.007 334H196.871V324.49H199.007V334ZM196.74 322.021C196.74 321.692 196.842 321.42 197.047 321.203C197.258 320.986 197.557 320.878 197.944 320.878C198.33 320.878 198.629 320.986 198.84 321.203C199.051 321.42 199.157 321.692 199.157 322.021C199.157 322.343 199.051 322.612 198.84 322.829C198.629 323.04 198.33 323.146 197.944 323.146C197.557 323.146 197.258 323.04 197.047 322.829C196.842 322.612 196.74 322.343 196.74 322.021ZM205.679 334.176C204.325 334.176 203.227 333.751 202.383 332.901C201.545 332.046 201.126 330.909 201.126 329.491V329.228C201.126 328.278 201.308 327.432 201.671 326.688C202.04 325.938 202.556 325.354 203.218 324.938C203.88 324.522 204.618 324.314 205.433 324.314C206.728 324.314 207.727 324.728 208.43 325.554C209.139 326.38 209.493 327.549 209.493 329.061V329.922H203.279C203.344 330.707 203.604 331.328 204.062 331.785C204.524 332.242 205.104 332.471 205.802 332.471C206.78 332.471 207.577 332.075 208.192 331.284L209.344 332.383C208.963 332.951 208.453 333.394 207.814 333.71C207.182 334.021 206.47 334.176 205.679 334.176ZM205.424 326.028C204.838 326.028 204.363 326.233 204 326.644C203.643 327.054 203.414 327.625 203.314 328.357H207.384V328.199C207.337 327.484 207.146 326.945 206.812 326.582C206.479 326.213 206.016 326.028 205.424 326.028ZM210.909 329.175C210.909 327.71 211.249 326.535 211.928 325.65C212.608 324.76 213.519 324.314 214.662 324.314C215.67 324.314 216.484 324.666 217.105 325.369V320.5H219.241V334H217.307L217.202 333.016C216.563 333.789 215.711 334.176 214.644 334.176C213.531 334.176 212.629 333.728 211.937 332.831C211.252 331.935 210.909 330.716 210.909 329.175ZM213.045 329.359C213.045 330.326 213.229 331.082 213.598 331.627C213.973 332.166 214.504 332.436 215.189 332.436C216.062 332.436 216.701 332.046 217.105 331.267V327.206C216.713 326.444 216.08 326.063 215.207 326.063C214.515 326.063 213.982 326.339 213.607 326.89C213.232 327.435 213.045 328.258 213.045 329.359Z" fill="black"/>
<g filter="url(#filter1_d)">
<rect x="327" y="360" width="156" height="32" rx="16" fill="#1A73E9"/>
<path d="M347.504 379.694C347.167 380.177 346.695 380.54 346.089 380.781C345.487 381.018 344.785 381.137 343.983 381.137C343.172 381.137 342.452 380.948 341.823 380.569C341.194 380.187 340.707 379.644 340.36 378.942C340.019 378.241 339.843 377.427 339.834 376.502V375.634C339.834 374.134 340.183 372.972 340.88 372.147C341.582 371.323 342.566 370.91 343.833 370.91C344.872 370.91 345.708 371.177 346.342 371.71C346.975 372.239 347.363 372.991 347.504 373.966H346.191C345.945 372.649 345.161 371.99 343.84 371.99C342.96 371.99 342.293 372.3 341.837 372.92C341.386 373.535 341.158 374.428 341.153 375.6V376.413C341.153 377.53 341.409 378.418 341.919 379.079C342.429 379.735 343.12 380.063 343.99 380.063C344.482 380.063 344.913 380.009 345.282 379.899C345.651 379.79 345.957 379.605 346.198 379.346V377.11H343.895V376.044H347.504V379.694ZM352.819 381.137C351.817 381.137 351.001 380.809 350.372 380.152C349.743 379.492 349.429 378.61 349.429 377.507V377.274C349.429 376.541 349.568 375.887 349.846 375.312C350.128 374.734 350.52 374.283 351.021 373.959C351.527 373.631 352.074 373.467 352.662 373.467C353.624 373.467 354.371 373.784 354.904 374.417C355.438 375.05 355.704 375.957 355.704 377.138V377.664H350.693C350.712 378.393 350.924 378.983 351.329 379.435C351.739 379.881 352.259 380.104 352.888 380.104C353.334 380.104 353.713 380.013 354.022 379.831C354.332 379.649 354.604 379.407 354.836 379.106L355.608 379.708C354.989 380.66 354.059 381.137 352.819 381.137ZM352.662 374.506C352.152 374.506 351.723 374.693 351.377 375.066C351.031 375.436 350.816 375.955 350.734 376.625H354.439V376.529C354.403 375.887 354.23 375.39 353.92 375.039C353.61 374.684 353.191 374.506 352.662 374.506ZM358.046 381V374.581H356.877V373.604H358.046V372.845C358.046 372.052 358.258 371.439 358.682 371.006C359.105 370.573 359.705 370.356 360.479 370.356C360.771 370.356 361.061 370.395 361.348 370.473L361.279 371.498C361.065 371.457 360.837 371.437 360.596 371.437C360.186 371.437 359.869 371.557 359.646 371.799C359.422 372.036 359.311 372.378 359.311 372.824V373.604H360.89V374.581H359.311V381H358.046ZM362.206 377.233C362.206 376.509 362.347 375.857 362.63 375.278C362.917 374.7 363.313 374.253 363.819 373.938C364.33 373.624 364.911 373.467 365.562 373.467C366.57 373.467 367.383 373.815 368.003 374.513C368.627 375.21 368.939 376.137 368.939 377.295V377.384C368.939 378.104 368.8 378.751 368.522 379.325C368.249 379.895 367.855 380.339 367.34 380.658C366.829 380.977 366.242 381.137 365.576 381.137C364.574 381.137 363.76 380.788 363.136 380.091C362.516 379.394 362.206 378.471 362.206 377.322V377.233ZM363.478 377.384C363.478 378.204 363.667 378.863 364.045 379.359C364.428 379.856 364.938 380.104 365.576 380.104C366.219 380.104 366.729 379.854 367.107 379.353C367.486 378.847 367.675 378.14 367.675 377.233C367.675 376.422 367.481 375.766 367.094 375.265C366.711 374.759 366.201 374.506 365.562 374.506C364.938 374.506 364.435 374.754 364.052 375.251C363.669 375.748 363.478 376.459 363.478 377.384ZM372.149 381H370.885V370.5H372.149V381ZM374.129 377.24C374.129 376.087 374.396 375.171 374.929 374.492C375.462 373.809 376.168 373.467 377.048 373.467C377.95 373.467 378.654 373.786 379.16 374.424L379.222 373.604H380.377V380.822C380.377 381.779 380.092 382.534 379.522 383.085C378.957 383.636 378.196 383.912 377.239 383.912C376.706 383.912 376.184 383.798 375.674 383.57C375.163 383.342 374.774 383.03 374.505 382.634L375.161 381.875C375.703 382.545 376.367 382.88 377.15 382.88C377.766 382.88 378.244 382.707 378.586 382.36C378.932 382.014 379.105 381.526 379.105 380.897V380.262C378.6 380.845 377.909 381.137 377.034 381.137C376.168 381.137 375.466 380.788 374.929 380.091C374.396 379.394 374.129 378.443 374.129 377.24ZM375.4 377.384C375.4 378.218 375.571 378.874 375.913 379.353C376.255 379.826 376.733 380.063 377.349 380.063C378.146 380.063 378.732 379.701 379.105 378.977V375.6C378.718 374.893 378.137 374.54 377.362 374.54C376.747 374.54 376.266 374.779 375.92 375.258C375.574 375.736 375.4 376.445 375.4 377.384ZM384.257 371.812V373.604H385.638V374.581H384.257V379.168C384.257 379.464 384.318 379.688 384.441 379.838C384.564 379.984 384.774 380.057 385.07 380.057C385.216 380.057 385.417 380.029 385.672 379.975V381C385.339 381.091 385.016 381.137 384.701 381.137C384.136 381.137 383.71 380.966 383.423 380.624C383.136 380.282 382.992 379.797 382.992 379.168V374.581H381.646V373.604H382.992V371.812H384.257ZM390.44 381.137C389.438 381.137 388.622 380.809 387.993 380.152C387.364 379.492 387.05 378.61 387.05 377.507V377.274C387.05 376.541 387.189 375.887 387.467 375.312C387.749 374.734 388.141 374.283 388.643 373.959C389.148 373.631 389.695 373.467 390.283 373.467C391.245 373.467 391.992 373.784 392.525 374.417C393.059 375.05 393.325 375.957 393.325 377.138V377.664H388.314C388.333 378.393 388.545 378.983 388.95 379.435C389.36 379.881 389.88 380.104 390.509 380.104C390.955 380.104 391.334 380.013 391.644 379.831C391.953 379.649 392.225 379.407 392.457 379.106L393.229 379.708C392.61 380.66 391.68 381.137 390.44 381.137ZM390.283 374.506C389.773 374.506 389.344 374.693 388.998 375.066C388.652 375.436 388.438 375.955 388.355 376.625H392.061V376.529C392.024 375.887 391.851 375.39 391.541 375.039C391.231 374.684 390.812 374.506 390.283 374.506ZM400.278 377.104V381H398.966V371.047H402.637C403.726 371.047 404.578 371.325 405.193 371.881C405.813 372.437 406.123 373.173 406.123 374.089C406.123 375.055 405.82 375.8 405.214 376.324C404.612 376.844 403.749 377.104 402.623 377.104H400.278ZM400.278 376.03H402.637C403.339 376.03 403.876 375.866 404.25 375.538C404.624 375.205 404.811 374.727 404.811 374.103C404.811 373.51 404.624 373.036 404.25 372.681C403.876 372.325 403.364 372.141 402.712 372.127H400.278V376.03ZM411.425 374.738C411.233 374.706 411.026 374.69 410.803 374.69C409.973 374.69 409.41 375.044 409.114 375.75V381H407.85V373.604H409.08L409.101 374.458C409.515 373.797 410.103 373.467 410.864 373.467C411.11 373.467 411.297 373.499 411.425 373.562V374.738ZM412.372 377.233C412.372 376.509 412.513 375.857 412.796 375.278C413.083 374.7 413.479 374.253 413.985 373.938C414.496 373.624 415.077 373.467 415.729 373.467C416.736 373.467 417.549 373.815 418.169 374.513C418.793 375.21 419.105 376.137 419.105 377.295V377.384C419.105 378.104 418.966 378.751 418.688 379.325C418.415 379.895 418.021 380.339 417.506 380.658C416.995 380.977 416.408 381.137 415.742 381.137C414.74 381.137 413.926 380.788 413.302 380.091C412.682 379.394 412.372 378.471 412.372 377.322V377.233ZM413.644 377.384C413.644 378.204 413.833 378.863 414.211 379.359C414.594 379.856 415.104 380.104 415.742 380.104C416.385 380.104 416.895 379.854 417.273 379.353C417.652 378.847 417.841 378.14 417.841 377.233C417.841 376.422 417.647 375.766 417.26 375.265C416.877 374.759 416.367 374.506 415.729 374.506C415.104 374.506 414.601 374.754 414.218 375.251C413.835 375.748 413.644 376.459 413.644 377.384ZM422.247 373.604V381.854C422.247 383.276 421.602 383.987 420.312 383.987C420.035 383.987 419.777 383.946 419.54 383.864V382.853C419.686 382.889 419.877 382.907 420.114 382.907C420.397 382.907 420.611 382.83 420.757 382.675C420.907 382.524 420.982 382.26 420.982 381.882V373.604H422.247ZM420.853 371.642C420.853 371.441 420.914 371.27 421.037 371.129C421.165 370.983 421.349 370.91 421.591 370.91C421.837 370.91 422.024 370.981 422.151 371.122C422.279 371.263 422.343 371.437 422.343 371.642C422.343 371.847 422.279 372.018 422.151 372.154C422.024 372.291 421.837 372.359 421.591 372.359C421.345 372.359 421.16 372.291 421.037 372.154C420.914 372.018 420.853 371.847 420.853 371.642ZM427.61 381.137C426.608 381.137 425.792 380.809 425.163 380.152C424.534 379.492 424.22 378.61 424.22 377.507V377.274C424.22 376.541 424.359 375.887 424.637 375.312C424.919 374.734 425.311 374.283 425.812 373.959C426.318 373.631 426.865 373.467 427.453 373.467C428.415 373.467 429.162 373.784 429.695 374.417C430.229 375.05 430.495 375.957 430.495 377.138V377.664H425.484C425.503 378.393 425.715 378.983 426.12 379.435C426.53 379.881 427.05 380.104 427.679 380.104C428.125 380.104 428.504 380.013 428.813 379.831C429.123 379.649 429.395 379.407 429.627 379.106L430.399 379.708C429.78 380.66 428.85 381.137 427.61 381.137ZM427.453 374.506C426.943 374.506 426.514 374.693 426.168 375.066C425.822 375.436 425.607 375.955 425.525 376.625H429.23V376.529C429.194 375.887 429.021 375.39 428.711 375.039C428.401 374.684 427.982 374.506 427.453 374.506ZM434.279 377.575L433.486 378.402V381H432.222V370.5H433.486V376.851L434.163 376.037L436.467 373.604H438.005L435.127 376.693L438.34 381H436.856L434.279 377.575ZM441.276 371.812V373.604H442.657V374.581H441.276V379.168C441.276 379.464 441.338 379.688 441.461 379.838C441.584 379.984 441.794 380.057 442.09 380.057C442.236 380.057 442.436 380.029 442.691 379.975V381C442.359 381.091 442.035 381.137 441.721 381.137C441.156 381.137 440.729 380.966 440.442 380.624C440.155 380.282 440.012 379.797 440.012 379.168V374.581H438.665V373.604H440.012V371.812H441.276ZM447.46 381.137C446.457 381.137 445.642 380.809 445.013 380.152C444.384 379.492 444.069 378.61 444.069 377.507V377.274C444.069 376.541 444.208 375.887 444.486 375.312C444.769 374.734 445.161 374.283 445.662 373.959C446.168 373.631 446.715 373.467 447.303 373.467C448.264 373.467 449.012 373.784 449.545 374.417C450.078 375.05 450.345 375.957 450.345 377.138V377.664H445.334C445.352 378.393 445.564 378.983 445.97 379.435C446.38 379.881 446.899 380.104 447.528 380.104C447.975 380.104 448.353 380.013 448.663 379.831C448.973 379.649 449.244 379.407 449.477 379.106L450.249 379.708C449.629 380.66 448.7 381.137 447.46 381.137ZM447.303 374.506C446.792 374.506 446.364 374.693 446.018 375.066C445.671 375.436 445.457 375.955 445.375 376.625H449.08V376.529C449.044 375.887 448.87 375.39 448.561 375.039C448.251 374.684 447.831 374.506 447.303 374.506Z" fill="white"/>
<path d="M467 383C470.866 383 474 379.866 474 376C474 372.134 470.866 369 467 369C463.134 369 460 372.134 460 376C460 379.866 463.134 383 467 383Z" fill="white"/>
<path d="M470 373L464 379M464 373L470 379L464 373Z" stroke="#1A73E9" stroke-width="1.33333" stroke-linecap="round" stroke-linejoin="round"/>
</g>
<rect x="123.75" y="360.25" width="135.5" height="31.5" rx="15.75" fill="#F1F3F8"/>
<path d="M142.151 378.402H137.981L137.045 381H135.691L139.492 371.047H140.641L144.448 381H143.102L142.151 378.402ZM138.378 377.322H141.762L140.066 372.667L138.378 377.322ZM147.036 373.604L147.077 374.533C147.642 373.822 148.381 373.467 149.292 373.467C150.855 373.467 151.644 374.349 151.657 376.112V381H150.393V376.105C150.388 375.572 150.265 375.178 150.023 374.923C149.786 374.668 149.415 374.54 148.909 374.54C148.499 374.54 148.139 374.649 147.829 374.868C147.519 375.087 147.278 375.374 147.104 375.729V381H145.84V373.604H147.036ZM153.507 377.24C153.507 376.105 153.776 375.194 154.313 374.506C154.851 373.813 155.555 373.467 156.426 373.467C157.292 373.467 157.978 373.763 158.483 374.355V370.5H159.748V381H158.586L158.524 380.207C158.019 380.827 157.314 381.137 156.412 381.137C155.555 381.137 154.856 380.786 154.313 380.084C153.776 379.382 153.507 378.466 153.507 377.336V377.24ZM154.771 377.384C154.771 378.222 154.945 378.879 155.291 379.353C155.637 379.826 156.116 380.063 156.727 380.063C157.529 380.063 158.114 379.703 158.483 378.983V375.586C158.105 374.889 157.524 374.54 156.74 374.54C156.12 374.54 155.637 374.779 155.291 375.258C154.945 375.736 154.771 376.445 154.771 377.384ZM165.036 381.137C164.034 381.137 163.218 380.809 162.589 380.152C161.96 379.492 161.646 378.61 161.646 377.507V377.274C161.646 376.541 161.785 375.887 162.062 375.312C162.345 374.734 162.737 374.283 163.238 373.959C163.744 373.631 164.291 373.467 164.879 373.467C165.84 373.467 166.588 373.784 167.121 374.417C167.654 375.05 167.921 375.957 167.921 377.138V377.664H162.91C162.928 378.393 163.14 378.983 163.546 379.435C163.956 379.881 164.476 380.104 165.104 380.104C165.551 380.104 165.929 380.013 166.239 379.831C166.549 379.649 166.82 379.407 167.053 379.106L167.825 379.708C167.205 380.66 166.276 381.137 165.036 381.137ZM164.879 374.506C164.368 374.506 163.94 374.693 163.594 375.066C163.247 375.436 163.033 375.955 162.951 376.625H166.656V376.529C166.62 375.887 166.447 375.39 166.137 375.039C165.827 374.684 165.408 374.506 164.879 374.506ZM173.216 374.738C173.024 374.706 172.817 374.69 172.594 374.69C171.764 374.69 171.201 375.044 170.905 375.75V381H169.641V373.604H170.871L170.892 374.458C171.306 373.797 171.894 373.467 172.655 373.467C172.901 373.467 173.088 373.499 173.216 373.562V374.738ZM177.567 381.137C176.565 381.137 175.749 380.809 175.12 380.152C174.491 379.492 174.177 378.61 174.177 377.507V377.274C174.177 376.541 174.316 375.887 174.594 375.312C174.876 374.734 175.268 374.283 175.77 373.959C176.275 373.631 176.822 373.467 177.41 373.467C178.372 373.467 179.119 373.784 179.652 374.417C180.186 375.05 180.452 375.957 180.452 377.138V377.664H175.441C175.46 378.393 175.672 378.983 176.077 379.435C176.487 379.881 177.007 380.104 177.636 380.104C178.082 380.104 178.461 380.013 178.771 379.831C179.08 379.649 179.352 379.407 179.584 379.106L180.356 379.708C179.737 380.66 178.807 381.137 177.567 381.137ZM177.41 374.506C176.9 374.506 176.471 374.693 176.125 375.066C175.779 375.436 175.564 375.955 175.482 376.625H179.188V376.529C179.151 375.887 178.978 375.39 178.668 375.039C178.358 374.684 177.939 374.506 177.41 374.506ZM185.747 374.738C185.556 374.706 185.348 374.69 185.125 374.69C184.296 374.69 183.733 375.044 183.437 375.75V381H182.172V373.604H183.402L183.423 374.458C183.838 373.797 184.425 373.467 185.187 373.467C185.433 373.467 185.619 373.499 185.747 373.562V374.738ZM191.087 381V371.047H194.341C195.421 371.047 196.232 371.27 196.774 371.717C197.321 372.163 197.595 372.824 197.595 373.699C197.595 374.164 197.463 374.576 197.198 374.937C196.934 375.292 196.574 375.568 196.118 375.764C196.656 375.914 197.08 376.201 197.39 376.625C197.704 377.044 197.861 377.546 197.861 378.129C197.861 379.022 197.572 379.724 196.993 380.234C196.414 380.745 195.596 381 194.539 381H191.087ZM192.399 376.345V379.927H194.566C195.177 379.927 195.658 379.77 196.009 379.455C196.364 379.136 196.542 378.699 196.542 378.143C196.542 376.944 195.89 376.345 194.587 376.345H192.399ZM192.399 375.292H194.382C194.956 375.292 195.414 375.148 195.756 374.861C196.102 374.574 196.275 374.185 196.275 373.692C196.275 373.146 196.116 372.749 195.797 372.503C195.478 372.252 194.993 372.127 194.341 372.127H192.399V375.292ZM202.931 381.137C201.928 381.137 201.112 380.809 200.483 380.152C199.854 379.492 199.54 378.61 199.54 377.507V377.274C199.54 376.541 199.679 375.887 199.957 375.312C200.24 374.734 200.632 374.283 201.133 373.959C201.639 373.631 202.186 373.467 202.773 373.467C203.735 373.467 204.482 373.784 205.016 374.417C205.549 375.05 205.815 375.957 205.815 377.138V377.664H200.805C200.823 378.393 201.035 378.983 201.44 379.435C201.851 379.881 202.37 380.104 202.999 380.104C203.446 380.104 203.824 380.013 204.134 379.831C204.444 379.649 204.715 379.407 204.947 379.106L205.72 379.708C205.1 380.66 204.17 381.137 202.931 381.137ZM202.773 374.506C202.263 374.506 201.835 374.693 201.488 375.066C201.142 375.436 200.928 375.955 200.846 376.625H204.551V376.529C204.514 375.887 204.341 375.39 204.031 375.039C203.721 374.684 203.302 374.506 202.773 374.506ZM208.731 373.604L208.772 374.533C209.338 373.822 210.076 373.467 210.987 373.467C212.55 373.467 213.339 374.349 213.353 376.112V381H212.088V376.105C212.083 375.572 211.96 375.178 211.719 374.923C211.482 374.668 211.11 374.54 210.604 374.54C210.194 374.54 209.834 374.649 209.524 374.868C209.215 375.087 208.973 375.374 208.8 375.729V381H207.535V373.604H208.731ZM220.076 380.269C219.584 380.847 218.862 381.137 217.909 381.137C217.121 381.137 216.519 380.909 216.104 380.453C215.694 379.993 215.487 379.314 215.482 378.416V373.604H216.747V378.382C216.747 379.503 217.203 380.063 218.114 380.063C219.08 380.063 219.723 379.703 220.042 378.983V373.604H221.307V381H220.104L220.076 380.269ZM225.2 371.812V373.604H226.581V374.581H225.2V379.168C225.2 379.464 225.262 379.688 225.385 379.838C225.508 379.984 225.717 380.057 226.014 380.057C226.16 380.057 226.36 380.029 226.615 379.975V381C226.283 381.091 225.959 381.137 225.645 381.137C225.079 381.137 224.653 380.966 224.366 380.624C224.079 380.282 223.936 379.797 223.936 379.168V374.581H222.589V373.604H223.936V371.812H225.2ZM229.504 379.968H233.831V381H227.959V380.07L232.04 374.649H228.021V373.604H233.626V374.499L229.504 379.968ZM238.47 381.137C237.467 381.137 236.651 380.809 236.022 380.152C235.394 379.492 235.079 378.61 235.079 377.507V377.274C235.079 376.541 235.218 375.887 235.496 375.312C235.779 374.734 236.171 374.283 236.672 373.959C237.178 373.631 237.725 373.467 238.312 373.467C239.274 373.467 240.021 373.784 240.555 374.417C241.088 375.05 241.354 375.957 241.354 377.138V377.664H236.344C236.362 378.393 236.574 378.983 236.979 379.435C237.39 379.881 237.909 380.104 238.538 380.104C238.985 380.104 239.363 380.013 239.673 379.831C239.983 379.649 240.254 379.407 240.486 379.106L241.259 379.708C240.639 380.66 239.709 381.137 238.47 381.137ZM238.312 374.506C237.802 374.506 237.374 374.693 237.027 375.066C236.681 375.436 236.467 375.955 236.385 376.625H240.09V376.529C240.053 375.887 239.88 375.39 239.57 375.039C239.26 374.684 238.841 374.506 238.312 374.506ZM246.649 374.738C246.458 374.706 246.251 374.69 246.027 374.69C245.198 374.69 244.635 375.044 244.339 375.75V381H243.074V373.604H244.305L244.325 374.458C244.74 373.797 245.328 373.467 246.089 373.467C246.335 373.467 246.522 373.499 246.649 373.562V374.738Z" fill="#1A73E9"/>
<rect x="123.75" y="360.25" width="135.5" height="31.5" rx="15.75" stroke="#D8D8D8" stroke-width="0.5"/>
<rect width="360" height="56" transform="translate(92 16)" fill="white"/>
<path d="M113 44H127M113 44L119 50M113 44L119 38" stroke="#1A73E9" stroke-width="2" stroke-linecap="round" stroke-linejoin="round"/>
<path d="M173.639 44.9746H167.916V51H165.445V36.7812H174.479V38.7734H167.916V43.002H173.639V44.9746ZM178.886 51H176.513V40.4336H178.886V51ZM176.367 37.6895C176.367 37.3249 176.481 37.0221 176.709 36.7812C176.943 36.5404 177.275 36.4199 177.705 36.4199C178.134 36.4199 178.466 36.5404 178.701 36.7812C178.935 37.0221 179.052 37.3249 179.052 37.6895C179.052 38.0475 178.935 38.347 178.701 38.5879C178.466 38.8223 178.134 38.9395 177.705 38.9395C177.275 38.9395 176.943 38.8223 176.709 38.5879C176.481 38.347 176.367 38.0475 176.367 37.6895ZM184.154 51H181.78V36H184.154V51ZM189.87 37.8652V40.4336H191.735V42.1914H189.87V48.0898C189.87 48.4935 189.948 48.7865 190.104 48.9688C190.267 49.1445 190.554 49.2324 190.964 49.2324C191.237 49.2324 191.514 49.1999 191.794 49.1348V50.9707C191.253 51.1204 190.733 51.1953 190.231 51.1953C188.408 51.1953 187.497 50.1895 187.497 48.1777V42.1914H185.759V40.4336H187.497V37.8652H189.87ZM198.36 51.1953C196.856 51.1953 195.635 50.7233 194.698 49.7793C193.767 48.8288 193.301 47.5658 193.301 45.9902V45.6973C193.301 44.6426 193.503 43.7018 193.907 42.875C194.317 42.0417 194.89 41.3939 195.625 40.9316C196.361 40.4694 197.181 40.2383 198.086 40.2383C199.525 40.2383 200.635 40.6973 201.416 41.6152C202.204 42.5332 202.598 43.832 202.598 45.5117V46.4688H195.694C195.765 47.3411 196.055 48.0312 196.563 48.5391C197.077 49.0469 197.722 49.3008 198.496 49.3008C199.584 49.3008 200.469 48.8613 201.153 47.9824L202.432 49.2031C202.009 49.8346 201.442 50.3262 200.733 50.6777C200.03 51.0228 199.239 51.1953 198.36 51.1953ZM198.077 42.1426C197.426 42.1426 196.898 42.3704 196.495 42.8262C196.097 43.2819 195.843 43.9167 195.733 44.7305H200.254V44.5547C200.202 43.7604 199.991 43.1615 199.62 42.7578C199.248 42.3477 198.734 42.1426 198.077 42.1426ZM210.131 42.6016C209.818 42.5495 209.496 42.5234 209.164 42.5234C208.077 42.5234 207.344 42.9401 206.967 43.7734V51H204.594V40.4336H206.859L206.918 41.6152C207.491 40.6973 208.285 40.2383 209.301 40.2383C209.639 40.2383 209.919 40.2839 210.141 40.375L210.131 42.6016Z" fill="black"/>
<path d="M316.639 47.6191H321.957V49H314.547V47.8789L319.694 40.4414H314.581V39.0469H321.793V40.1406L316.639 47.6191ZM332.228 39.0469V45.6982C332.228 46.7555 331.888 47.5941 331.209 48.2139C330.535 48.8291 329.634 49.1367 328.509 49.1367C327.369 49.1367 326.465 48.8337 325.795 48.2275C325.125 47.6169 324.79 46.7715 324.79 45.6914V39.0469H326.513V45.7051C326.513 46.3704 326.681 46.8786 327.019 47.2295C327.356 47.5804 327.853 47.7559 328.509 47.7559C329.84 47.7559 330.505 47.054 330.505 45.6504V39.0469H332.228ZM339.237 45.165H337.31V49H335.58V39.0469H339.08C340.229 39.0469 341.115 39.3044 341.739 39.8193C342.364 40.3343 342.676 41.0794 342.676 42.0547C342.676 42.7201 342.514 43.2783 342.19 43.7295C341.871 44.1761 341.425 44.5202 340.851 44.7617L343.086 48.9111V49H341.233L339.237 45.165ZM337.31 43.7773H339.087C339.67 43.7773 340.126 43.6315 340.454 43.3398C340.782 43.0436 340.946 42.6403 340.946 42.1299C340.946 41.5967 340.794 41.1842 340.488 40.8926C340.188 40.6009 339.736 40.4505 339.135 40.4414H337.31V43.7773ZM353.097 39.0469V45.6982C353.097 46.7555 352.757 47.5941 352.078 48.2139C351.404 48.8291 350.504 49.1367 349.378 49.1367C348.239 49.1367 347.334 48.8337 346.664 48.2275C345.994 47.6169 345.659 46.7715 345.659 45.6914V39.0469H347.382V45.7051C347.382 46.3704 347.55 46.8786 347.888 47.2295C348.225 47.5804 348.722 47.7559 349.378 47.7559C350.709 47.7559 351.374 47.054 351.374 45.6504V39.0469H353.097ZM346.944 37.543C346.944 37.3151 347.02 37.1237 347.17 36.9688C347.325 36.8138 347.537 36.7363 347.806 36.7363C348.075 36.7363 348.286 36.8138 348.441 36.9688C348.596 37.1237 348.674 37.3151 348.674 37.543C348.674 37.7708 348.596 37.9622 348.441 38.1172C348.286 38.2721 348.075 38.3496 347.806 38.3496C347.537 38.3496 347.325 38.2721 347.17 38.1172C347.02 37.9622 346.944 37.7708 346.944 37.543ZM350.068 37.5498C350.068 37.3219 350.144 37.1305 350.294 36.9756C350.449 36.8206 350.661 36.7432 350.93 36.7432C351.199 36.7432 351.41 36.8206 351.565 36.9756C351.72 37.1305 351.798 37.3219 351.798 37.5498C351.798 37.7777 351.72 37.9691 351.565 38.124C351.41 38.279 351.199 38.3564 350.93 38.3564C350.661 38.3564 350.449 38.279 350.294 38.124C350.144 37.9691 350.068 37.7777 350.068 37.5498ZM364.044 45.7598C363.944 46.8216 363.552 47.651 362.868 48.248C362.185 48.8405 361.275 49.1367 360.141 49.1367C359.348 49.1367 358.648 48.9499 358.042 48.5762C357.44 48.1979 356.976 47.6624 356.647 46.9697C356.319 46.277 356.148 45.4727 356.135 44.5566V43.627C356.135 42.6882 356.301 41.861 356.634 41.1455C356.966 40.43 357.443 39.8786 358.062 39.4912C358.687 39.1038 359.407 38.9102 360.223 38.9102C361.321 38.9102 362.205 39.2087 362.875 39.8057C363.545 40.4027 363.935 41.2458 364.044 42.335H362.321C362.239 41.6195 362.03 41.1045 361.692 40.79C361.36 40.471 360.87 40.3115 360.223 40.3115C359.471 40.3115 358.892 40.5872 358.486 41.1387C358.085 41.6855 357.88 42.4899 357.871 43.5518V44.4336C357.871 45.5091 358.062 46.3294 358.445 46.8945C358.833 47.4596 359.398 47.7422 360.141 47.7422C360.82 47.7422 361.33 47.5895 361.672 47.2842C362.014 46.9788 362.23 46.4707 362.321 45.7598H364.044ZM369.953 44.7002L368.825 45.8965V49H367.096V39.0469H368.825V43.7158L369.782 42.5332L372.694 39.0469H374.786L371.088 43.4561L374.998 49H372.947L369.953 44.7002ZM382.63 46.4365C382.63 45.999 382.475 45.6618 382.165 45.4248C381.86 45.1878 381.306 44.9486 380.504 44.707C379.702 44.4655 379.064 44.1966 378.59 43.9004C377.683 43.3307 377.229 42.5879 377.229 41.6719C377.229 40.8698 377.555 40.209 378.207 39.6895C378.863 39.1699 379.713 38.9102 380.757 38.9102C381.45 38.9102 382.067 39.0378 382.609 39.293C383.152 39.5482 383.578 39.9128 383.888 40.3867C384.198 40.8561 384.353 41.3779 384.353 41.9521H382.63C382.63 41.4326 382.466 41.027 382.138 40.7354C381.814 40.4391 381.349 40.291 380.743 40.291C380.178 40.291 379.738 40.4118 379.424 40.6533C379.114 40.8949 378.959 41.2321 378.959 41.665C378.959 42.0296 379.128 42.335 379.465 42.5811C379.802 42.8226 380.358 43.0596 381.133 43.292C381.908 43.5199 382.53 43.7819 382.999 44.0781C383.468 44.3698 383.812 44.707 384.031 45.0898C384.25 45.4681 384.359 45.9124 384.359 46.4229C384.359 47.2523 384.04 47.9131 383.402 48.4053C382.769 48.8929 381.908 49.1367 380.818 49.1367C380.098 49.1367 379.435 49.0046 378.829 48.7402C378.228 48.4714 377.758 48.1022 377.421 47.6328C377.088 47.1634 376.922 46.6165 376.922 45.9922H378.651C378.651 46.5573 378.838 46.9948 379.212 47.3047C379.586 47.6146 380.121 47.7695 380.818 47.7695C381.42 47.7695 381.871 47.6488 382.172 47.4072C382.477 47.1611 382.63 46.8376 382.63 46.4365ZM393.194 44.5566H389.106V47.6191H393.885V49H387.377V39.0469H393.837V40.4414H389.106V43.1895H393.194V44.5566ZM404.121 40.4414H401.018V49H399.302V40.4414H396.226V39.0469H404.121V40.4414ZM408.561 47.6191H413.879V49H406.469V47.8789L411.616 40.4414H406.503V39.0469H413.715V40.1406L408.561 47.6191ZM422.687 44.5566H418.599V47.6191H423.377V49H416.869V39.0469H423.329V40.4414H418.599V43.1895H422.687V44.5566ZM434.181 49H432.451L428.015 41.9385V49H426.285V39.0469H428.015L432.465 46.1357V39.0469H434.181V49Z" fill="#1A73E9"/>
<g filter="url(#filter2_d)">
<rect x="143" y="427" width="280" height="48" rx="6" fill="#1A73E9"/>
<path d="M196.666 450.265H197.678C198.188 450.26 198.591 450.128 198.888 449.868C199.188 449.608 199.339 449.232 199.339 448.74C199.339 448.266 199.214 447.899 198.963 447.64C198.717 447.375 198.339 447.243 197.828 447.243C197.382 447.243 197.015 447.373 196.728 447.633C196.44 447.888 196.297 448.223 196.297 448.638H194.636C194.636 448.127 194.77 447.662 195.039 447.243C195.312 446.824 195.691 446.498 196.174 446.266C196.661 446.029 197.206 445.91 197.808 445.91C198.801 445.91 199.58 446.161 200.146 446.662C200.715 447.159 201 447.852 201 448.74C201 449.187 200.856 449.608 200.569 450.005C200.287 450.397 199.92 450.693 199.469 450.894C200.016 451.08 200.43 451.374 200.713 451.775C201 452.176 201.144 452.655 201.144 453.211C201.144 454.104 200.836 454.815 200.221 455.344C199.61 455.872 198.806 456.137 197.808 456.137C196.851 456.137 196.067 455.882 195.456 455.371C194.845 454.861 194.54 454.182 194.54 453.334H196.201C196.201 453.771 196.347 454.127 196.639 454.4C196.935 454.674 197.331 454.811 197.828 454.811C198.343 454.811 198.749 454.674 199.045 454.4C199.341 454.127 199.489 453.73 199.489 453.211C199.489 452.687 199.334 452.284 199.024 452.001C198.715 451.718 198.254 451.577 197.644 451.577H196.666V450.265ZM211.185 452.302V456H209.455V446.047H213.263C214.375 446.047 215.257 446.336 215.908 446.915C216.564 447.494 216.893 448.259 216.893 449.212C216.893 450.187 216.571 450.946 215.929 451.488C215.291 452.031 214.395 452.302 213.242 452.302H211.185ZM211.185 450.914H213.263C213.878 450.914 214.347 450.771 214.671 450.483C214.994 450.192 215.156 449.772 215.156 449.226C215.156 448.688 214.992 448.259 214.664 447.94C214.336 447.617 213.885 447.451 213.311 447.441H211.185V450.914ZM223.567 452.165H221.64V456H219.91V446.047H223.41C224.559 446.047 225.445 446.304 226.069 446.819C226.694 447.334 227.006 448.079 227.006 449.055C227.006 449.72 226.844 450.278 226.521 450.729C226.201 451.176 225.755 451.52 225.181 451.762L227.416 455.911V456H225.563L223.567 452.165ZM221.64 450.777H223.417C224 450.777 224.456 450.632 224.784 450.34C225.112 450.044 225.276 449.64 225.276 449.13C225.276 448.597 225.124 448.184 224.818 447.893C224.518 447.601 224.066 447.451 223.465 447.441H221.64V450.777ZM238.09 451.283C238.09 452.258 237.921 453.115 237.584 453.854C237.247 454.587 236.764 455.152 236.135 455.549C235.51 455.941 234.79 456.137 233.975 456.137C233.168 456.137 232.448 455.941 231.814 455.549C231.186 455.152 230.698 454.59 230.352 453.86C230.01 453.131 229.837 452.29 229.832 451.338V450.777C229.832 449.807 230.003 448.95 230.345 448.207C230.691 447.464 231.176 446.897 231.801 446.505C232.43 446.108 233.15 445.91 233.961 445.91C234.772 445.91 235.49 446.106 236.114 446.498C236.743 446.885 237.229 447.446 237.57 448.18C237.912 448.909 238.085 449.759 238.09 450.729V451.283ZM236.36 450.764C236.36 449.661 236.151 448.815 235.731 448.228C235.317 447.64 234.727 447.346 233.961 447.346C233.214 447.346 232.628 447.64 232.204 448.228C231.785 448.811 231.571 449.638 231.562 450.709V451.283C231.562 452.377 231.773 453.222 232.197 453.819C232.626 454.416 233.218 454.715 233.975 454.715C234.74 454.715 235.328 454.423 235.738 453.84C236.153 453.257 236.36 452.404 236.36 451.283V450.764ZM245.387 446.047H247.109V453.026C247.109 453.979 246.811 454.735 246.214 455.296C245.621 455.856 244.838 456.137 243.862 456.137C242.823 456.137 242.021 455.875 241.456 455.351C240.891 454.826 240.608 454.097 240.608 453.163H242.331C242.331 453.692 242.461 454.09 242.721 454.359C242.985 454.624 243.366 454.756 243.862 454.756C244.327 454.756 244.696 454.603 244.97 454.298C245.248 453.988 245.387 453.562 245.387 453.02V446.047ZM256.409 451.557H252.321V454.619H257.1V456H250.592V446.047H257.052V447.441H252.321V450.189H256.409V451.557ZM262.865 451.7L261.737 452.896V456H260.008V446.047H261.737V450.716L262.694 449.533L265.606 446.047H267.698L264 450.456L267.91 456H265.859L262.865 451.7ZM277.531 447.441H274.428V456H272.712V447.441H269.636V446.047H277.531V447.441ZM286.161 451.557H282.073V454.619H286.852V456H280.344V446.047H286.804V447.441H282.073V450.189H286.161V451.557ZM300.317 453.683H296.462L295.655 456H293.857L297.617 446.047H299.169L302.936 456H301.131L300.317 453.683ZM296.947 452.288H299.832L298.39 448.159L296.947 452.288ZM313.466 456H311.736L307.3 448.938V456H305.57V446.047H307.3L311.75 453.136V446.047H313.466V456ZM318.637 454.619H323.955V456H316.545V454.879L321.692 447.441H316.579V446.047H323.791V447.141L318.637 454.619ZM332.763 451.557H328.675V454.619H333.453V456H326.945V446.047H333.405V447.441H328.675V450.189H332.763V451.557ZM338.187 456H336.464V446.047H338.187V456ZM349.441 454.708C349.081 455.177 348.582 455.533 347.944 455.774C347.306 456.016 346.582 456.137 345.771 456.137C344.937 456.137 344.198 455.948 343.556 455.569C342.913 455.191 342.416 454.651 342.065 453.949C341.719 453.243 341.539 452.42 341.525 451.481V450.702C341.525 449.198 341.885 448.025 342.605 447.182C343.326 446.334 344.33 445.91 345.62 445.91C346.728 445.91 347.607 446.184 348.259 446.73C348.91 447.277 349.302 448.066 349.435 449.096H347.739C347.548 447.897 346.853 447.298 345.654 447.298C344.88 447.298 344.289 447.578 343.884 448.139C343.483 448.695 343.275 449.513 343.262 450.593V451.358C343.262 452.434 343.487 453.27 343.938 453.867C344.394 454.46 345.025 454.756 345.832 454.756C346.716 454.756 347.345 454.555 347.719 454.154V452.206H345.668V450.894H349.441V454.708ZM358.659 451.557H354.571V454.619H359.35V456H352.842V446.047H359.302V447.441H354.571V450.189H358.659V451.557ZM370.153 456H368.424L363.987 448.938V456H362.258V446.047H363.987L368.438 453.136V446.047H370.153V456Z" fill="white"/>
</g>
<g filter="url(#filter3_d)">
<rect x="70" y="360" width="44" height="32" rx="16" fill="#1A73E9"/>
<path d="M84.5635 381H83.251V371.047H84.5635V381ZM89.9883 380.104C90.4395 380.104 90.8337 379.968 91.1709 379.694C91.5081 379.421 91.695 379.079 91.7314 378.669H92.9277C92.9049 379.093 92.7591 379.496 92.4902 379.879C92.2214 380.262 91.8613 380.567 91.4102 380.795C90.9635 381.023 90.4896 381.137 89.9883 381.137C88.9811 381.137 88.179 380.802 87.582 380.132C86.9896 379.457 86.6934 378.537 86.6934 377.37V377.158C86.6934 376.438 86.8255 375.798 87.0898 375.237C87.3542 374.677 87.7324 374.242 88.2246 373.932C88.7214 373.622 89.307 373.467 89.9814 373.467C90.8109 373.467 91.499 373.715 92.0459 374.212C92.5973 374.709 92.8913 375.354 92.9277 376.146H91.7314C91.695 375.668 91.5127 375.276 91.1846 374.971C90.861 374.661 90.46 374.506 89.9814 374.506C89.3389 374.506 88.8398 374.738 88.4844 375.203C88.1335 375.663 87.958 376.331 87.958 377.206V377.445C87.958 378.298 88.1335 378.954 88.4844 379.414C88.8353 379.874 89.3366 380.104 89.9883 380.104ZM95.8643 374.499C96.4248 373.811 97.154 373.467 98.0518 373.467C99.6149 373.467 100.403 374.349 100.417 376.112V381H99.1523V376.105C99.1478 375.572 99.0247 375.178 98.7832 374.923C98.5462 374.668 98.1748 374.54 97.6689 374.54C97.2588 374.54 96.8988 374.649 96.5889 374.868C96.279 375.087 96.0374 375.374 95.8643 375.729V381H94.5996V370.5H95.8643V374.499Z" fill="white"/>
</g>
</g>
<defs>
<filter id="filter0_d" x="67" y="-2" width="410" height="498" filterUnits="userSpaceOnUse" color-interpolation-filters="sRGB">
<feFlood flood-opacity="0" result="BackgroundImageFix"/>
<feColorMatrix in="SourceAlpha" type="matrix" values="0 0 0 0 0 0 0 0 0 0 0 0 0 0 0 0 0 0 127 0" result="hardAlpha"/>
<feOffset dy="7"/>
<feGaussianBlur stdDeviation="12.5"/>
<feColorMatrix type="matrix" values="0 0 0 0 0.333333 0 0 0 0 0.333333 0 0 0 0 0.333333 0 0 0 0.15 0"/>
<feBlend mode="normal" in2="BackgroundImageFix" result="effect1_dropShadow"/>
<feBlend mode="normal" in="SourceGraphic" in2="effect1_dropShadow" result="shape"/>
</filter>
<filter id="filter1_d" x="302" y="334" width="206" height="98" filterUnits="userSpaceOnUse" color-interpolation-filters="sRGB">
<feFlood flood-opacity="0" result="BackgroundImageFix"/>
<feColorMatrix in="SourceAlpha" type="matrix" values="0 0 0 0 0 0 0 0 0 0 0 0 0 0 0 0 0 0 127 0" result="hardAlpha"/>
<feOffset dy="7"/>
<feGaussianBlur stdDeviation="12.5"/>
<feColorMatrix type="matrix" values="0 0 0 0 0.333333 0 0 0 0 0.333333 0 0 0 0 0.333333 0 0 0 0.15 0"/>
<feBlend mode="normal" in2="BackgroundImageFix" result="effect1_dropShadow"/>
<feBlend mode="normal" in="SourceGraphic" in2="effect1_dropShadow" result="shape"/>
</filter>
<filter id="filter2_d" x="118" y="409" width="330" height="98" filterUnits="userSpaceOnUse" color-interpolation-filters="sRGB">
<feFlood flood-opacity="0" result="BackgroundImageFix"/>
<feColorMatrix in="SourceAlpha" type="matrix" values="0 0 0 0 0 0 0 0 0 0 0 0 0 0 0 0 0 0 127 0" result="hardAlpha"/>
<feOffset dy="7"/>
<feGaussianBlur stdDeviation="12.5"/>
<feColorMatrix type="matrix" values="0 0 0 0 0.333333 0 0 0 0 0.333333 0 0 0 0 0.333333 0 0 0 0.15 0"/>
<feBlend mode="normal" in2="BackgroundImageFix" result="effect1_dropShadow"/>
<feBlend mode="normal" in="SourceGraphic" in2="effect1_dropShadow" result="shape"/>
</filter>
<filter id="filter3_d" x="45" y="334" width="94" height="98" filterUnits="userSpaceOnUse" color-interpolation-filters="sRGB">
<feFlood flood-opacity="0" result="BackgroundImageFix"/>
<feColorMatrix in="SourceAlpha" type="matrix" values="0 0 0 0 0 0 0 0 0 0 0 0 0 0 0 0 0 0 127 0" result="hardAlpha"/>
<feOffset dy="7"/>
<feGaussianBlur stdDeviation="12.5"/>
<feColorMatrix type="matrix" values="0 0 0 0 0.333333 0 0 0 0 0.333333 0 0 0 0 0.333333 0 0 0 0.15 0"/>
<feBlend mode="normal" in2="BackgroundImageFix" result="effect1_dropShadow"/>
<feBlend mode="normal" in="SourceGraphic" in2="effect1_dropShadow" result="shape"/>
</filter>
<clipPath id="clip0">
<rect width="544" height="510" fill="white"/>
</clipPath>
</defs>
</svg>
