<svg width="64" height="64" viewBox="0 0 64 64" fill="none" xmlns="http://www.w3.org/2000/svg">
<path d="M24.951 39.7757L20 27.2355H23.7074L26.2178 34.3805C26.4967 35.2853 26.6711 36.1415 26.7408 36.9491H26.8105C26.8493 36.2312 27.0236 35.375 27.3335 34.3805L29.8323 27.2355H33.5397L28.5887 39.7757H24.951Z" fill="#333333"/>
<path d="M44 36.0518C44 37.3379 43.5351 38.3175 42.6054 38.9905C41.6833 39.6635 40.3003 40 38.4563 40C37.511 40 36.7052 39.9364 36.0389 39.8093C35.3726 39.6897 34.7488 39.5102 34.1677 39.2709V36.4443C34.8263 36.7435 35.5663 36.994 36.3876 37.1959C37.2166 37.3978 37.9449 37.4987 38.5725 37.4987C39.8587 37.4987 40.5018 37.1398 40.5018 36.4219C40.5018 36.1527 40.4165 35.9359 40.2461 35.7714C40.0756 35.5994 39.7812 35.4087 39.3628 35.1993C38.9444 34.9825 38.3865 34.732 37.6892 34.4478C36.6897 34.044 35.9537 33.6701 35.481 33.3261C35.0162 32.9822 34.6752 32.5896 34.4583 32.1484C34.2491 31.6997 34.1445 31.1501 34.1445 30.4996C34.1445 29.3854 34.59 28.5255 35.481 27.9198C36.3798 27.3066 37.6505 27 39.2931 27C40.8582 27 42.3807 27.329 43.8605 27.9871L42.7913 30.4547C42.1405 30.1855 41.5323 29.9649 40.9666 29.7929C40.401 29.6209 39.8238 29.5349 39.235 29.5349C38.189 29.5349 37.666 29.8079 37.666 30.3538C37.666 30.6603 37.8326 30.9258 38.1657 31.1501C38.5066 31.3745 39.2466 31.7072 40.3855 32.1484C41.4005 32.5447 42.1443 32.9149 42.617 33.2588C43.0896 33.6028 43.4383 33.9991 43.663 34.4478C43.8877 34.8965 44 35.4311 44 36.0518Z" fill="#333333"/>
<path fill-rule="evenodd" clip-rule="evenodd" d="M32 4V0C14.3269 0 0 14.3269 0 32C0 49.6731 14.3269 64 32 64V60C16.536 60 4 47.464 4 32C4 16.536 16.536 4 32 4Z" fill="#FF6F3D"/>
<path fill-rule="evenodd" clip-rule="evenodd" d="M32 4V0C49.6731 0 64 14.3269 64 32C64 49.6731 49.6731 64 32 64V60C47.464 60 60 47.464 60 32C60 16.536 47.464 4 32 4Z" fill="url(#paint0_linear_47_509)"/>
<defs>
<linearGradient id="paint0_linear_47_509" x1="48.0021" y1="64" x2="48.0021" y2="0" gradientUnits="userSpaceOnUse">
<stop stop-color="#FC3358"/>
<stop offset="1" stop-color="#FF6441"/>
</linearGradient>
</defs>
</svg>
