<svg width="48" height="48" viewBox="0 0 48 48" fill="none" xmlns="http://www.w3.org/2000/svg">
<path fill-rule="evenodd" clip-rule="evenodd" d="M42.3018 0H5.70593C2.55769 0 0.00433562 2.55155 4.59978e-05 5.70183V42.2674C-0.00604189 43.7856 0.592398 45.2438 1.66312 46.3196C2.73384 47.3953 4.18865 48 5.70593 48H42.3018C43.8177 47.998 45.2705 47.3924 46.3396 46.3168C47.4087 45.2413 48.006 43.7843 48 42.2674V5.70183C47.9957 2.55455 45.447 0.00423876 42.3018 0ZM20.7011 34.5726C20.699 35.0801 20.4951 35.5658 20.1344 35.9225C19.7736 36.2791 19.2857 36.4773 18.7786 36.4733H10.7812C9.73521 36.469 8.88952 35.6193 8.88952 34.5726V10.7573C8.88952 9.71061 9.73521 8.86092 10.7812 8.85668H18.7786C19.8259 8.8609 20.6738 9.70937 20.678 10.7573L20.7011 34.5726ZM39.1566 23.6383C39.1566 24.1464 38.9534 24.6334 38.5922 24.9905C38.231 25.3476 37.7419 25.5451 37.2342 25.5391H29.2368C28.1895 25.5347 27.3416 24.6863 27.3374 23.6383V10.7573C27.3416 9.70937 28.1895 8.8609 29.2368 8.85668H37.2342C38.2802 8.86092 39.1259 9.71061 39.1259 10.7573L39.1566 23.6383Z" fill="white"/>
</svg>
