<svg width="2623" height="1402" viewBox="0 0 2623 1402" fill="none" xmlns="http://www.w3.org/2000/svg">
<g clip-path="url(#clip0)">
<path fill-rule="evenodd" clip-rule="evenodd" d="M947.293 -386.1L1799.43 -231.944C1872.22 -218.057 1885.12 -169.908 1828.27 -124.318L1167.37 435.252C1111.28 483.675 1007.61 511.453 937.618 496.815L85.4841 342.659C12.6924 328.772 -0.208881 280.623 56.6458 235.033L717.537 -324.537C774.392 -370.128 878.062 -397.906 947.293 -386.1Z" fill="#F0F0F0"/>
<path opacity="0.3" fill-rule="evenodd" clip-rule="evenodd" d="M1223.87 693.666L660.874 1358.61C612.155 1415.05 563.711 1402.06 552.589 1329.59L397.488 472.238C383.516 399 411.464 294.695 459.428 241.075L1022.43 -423.865C1071.14 -480.304 1119.59 -467.324 1130.71 -394.85L1285.81 462.503C1296.93 534.977 1268.99 639.282 1223.87 693.666Z" fill="white"/>
<path opacity="0.4" fill-rule="evenodd" clip-rule="evenodd" d="M2053.36 -82.4249L2397.38 413.559C2426.42 456.281 2409.04 486.371 2358.55 480.819L1757 430.88C1705.49 427.098 1640.7 389.692 1613.42 347.981L1269.4 -148.003C1240.36 -190.725 1257.74 -220.816 1308.23 -215.264L1909.78 -165.324C1960.27 -159.772 2025.06 -122.366 2053.36 -82.4249Z" fill="white"/>
</g>
<defs>
<clipPath id="clip0">
<rect width="2623" height="1402" fill="white"/>
</clipPath>
</defs>
</svg>
