<svg width="448" height="254" viewBox="0 0 448 254" fill="none" xmlns="http://www.w3.org/2000/svg">
<path d="M307.495 16.4962V188.5H6.5V16.4962C6.5 12.5941 9.59981 9.5 13.5052 9.5H300.495C304.315 9.5 307.358 12.4541 307.495 16.23V16.4962Z" fill="#AAAAAA" stroke="#333333"/>
<path d="M12.5 182.5V15.5H301.5V182.5H12.5Z" fill="white" stroke="#333333"/>
<rect x="13" y="16" width="288" height="28" fill="#041E42"/>
<g clip-path="url(#clip0_16_16979)">
<path d="M26 26.2336V26.87H35V26.2336H26ZM26 29.4155V30.0518H35V29.4155H26ZM26 32.5973V33.2336H35V32.5973H26Z" fill="#CDD2D9"/>
</g>
<path d="M45.5576 26.3088C46.3867 26.3088 46.9917 26.4714 47.3726 26.7966C47.7563 27.1189 47.9482 27.5818 47.9482 28.1853C47.9482 28.4578 47.9028 28.717 47.812 28.9631C47.7241 29.2063 47.5806 29.4216 47.3813 29.6091C47.1821 29.7937 46.9199 29.9402 46.5947 30.0486C46.2725 30.1541 45.877 30.2068 45.4082 30.2068H44.626V32.7336H43.8789V26.3088H45.5576ZM45.4873 26.946H44.626V29.5652H45.3247C45.7349 29.5652 46.0762 29.5212 46.3486 29.4333C46.624 29.3455 46.8306 29.2034 46.9683 29.0071C47.106 28.8079 47.1748 28.5442 47.1748 28.2161C47.1748 27.7883 47.0386 27.4705 46.7661 27.2625C46.4937 27.0515 46.0674 26.946 45.4873 26.946ZM50.8049 27.8381C51.3791 27.8381 51.8054 27.967 52.0837 28.2249C52.362 28.4827 52.5012 28.8943 52.5012 29.4597V32.7336H51.9694L51.8288 32.0217H51.7936C51.6589 32.1975 51.5182 32.3455 51.3718 32.4656C51.2253 32.5828 51.0554 32.6721 50.862 32.7336C50.6716 32.7922 50.4372 32.8215 50.1589 32.8215C49.8659 32.8215 49.6052 32.7703 49.3766 32.6677C49.1511 32.5652 48.9723 32.4099 48.8405 32.2019C48.7116 31.9939 48.6471 31.7302 48.6471 31.4109C48.6471 30.9304 48.8376 30.5613 49.2184 30.3035C49.5993 30.0457 50.1794 29.905 50.9587 29.8816L51.7892 29.8464V29.552C51.7892 29.136 51.6999 28.8445 51.5212 28.6775C51.3425 28.5105 51.0905 28.427 50.7653 28.427C50.5134 28.427 50.2731 28.4636 50.0446 28.5369C49.8161 28.6101 49.5993 28.6965 49.3942 28.7961L49.1701 28.2424C49.3869 28.1311 49.6359 28.0359 49.9172 27.9568C50.1984 27.8777 50.4943 27.8381 50.8049 27.8381ZM51.7804 30.3606L51.0466 30.3914C50.446 30.4148 50.0226 30.5129 49.7765 30.6858C49.5304 30.8586 49.4074 31.1033 49.4074 31.4197C49.4074 31.6951 49.4909 31.8987 49.6579 32.0305C49.8249 32.1624 50.0461 32.2283 50.3215 32.2283C50.7492 32.2283 51.0993 32.1096 51.3718 31.8723C51.6442 31.635 51.7804 31.2791 51.7804 30.8044V30.3606ZM56.0126 27.8293C56.1092 27.8293 56.2103 27.8352 56.3158 27.8469C56.4213 27.8557 56.515 27.8689 56.597 27.8865L56.5047 28.5632C56.4256 28.5427 56.3378 28.5266 56.2411 28.5149C56.1444 28.5032 56.0536 28.4973 55.9686 28.4973C55.7753 28.4973 55.5921 28.5369 55.4193 28.616C55.2494 28.6921 55.1 28.8035 54.9711 28.95C54.8421 29.0935 54.7411 29.2678 54.6678 29.4729C54.5946 29.675 54.558 29.9006 54.558 30.1497V32.7336H53.8241V27.9172H54.4305L54.5096 28.8049H54.5404C54.64 28.6262 54.7601 28.4636 54.9007 28.3171C55.0414 28.1677 55.204 28.0491 55.3885 27.9612C55.576 27.8733 55.784 27.8293 56.0126 27.8293ZM59.1285 27.8381C59.7027 27.8381 60.1289 27.967 60.4073 28.2249C60.6856 28.4827 60.8247 28.8943 60.8247 29.4597V32.7336H60.293L60.1524 32.0217H60.1172C59.9825 32.1975 59.8418 32.3455 59.6954 32.4656C59.5489 32.5828 59.3789 32.6721 59.1856 32.7336C58.9952 32.7922 58.7608 32.8215 58.4825 32.8215C58.1895 32.8215 57.9288 32.7703 57.7002 32.6677C57.4746 32.5652 57.2959 32.4099 57.1641 32.2019C57.0352 31.9939 56.9707 31.7302 56.9707 31.4109C56.9707 30.9304 57.1612 30.5613 57.542 30.3035C57.9229 30.0457 58.503 29.905 59.2823 29.8816L60.1128 29.8464V29.552C60.1128 29.136 60.0235 28.8445 59.8448 28.6775C59.6661 28.5105 59.4141 28.427 59.0889 28.427C58.837 28.427 58.5967 28.4636 58.3682 28.5369C58.1397 28.6101 57.9229 28.6965 57.7178 28.7961L57.4937 28.2424C57.7105 28.1311 57.9595 28.0359 58.2408 27.9568C58.522 27.8777 58.8179 27.8381 59.1285 27.8381ZM60.104 30.3606L59.3702 30.3914C58.7696 30.4148 58.3462 30.5129 58.1001 30.6858C57.854 30.8586 57.731 31.1033 57.731 31.4197C57.731 31.6951 57.8145 31.8987 57.9815 32.0305C58.1485 32.1624 58.3697 32.2283 58.6451 32.2283C59.0728 32.2283 59.4229 32.1096 59.6954 31.8723C59.9678 31.635 60.104 31.2791 60.104 30.8044V30.3606ZM67.3772 27.8293C67.9074 27.8293 68.3073 27.9685 68.5769 28.2468C68.8464 28.5222 68.9812 28.9661 68.9812 29.5784V32.7336H68.2605V29.6135C68.2605 29.2239 68.1755 28.9324 68.0056 28.739C67.8386 28.5427 67.5896 28.4446 67.2585 28.4446C66.7927 28.4446 66.4543 28.5793 66.2434 28.8489C66.0324 29.1184 65.927 29.5154 65.927 30.0398V32.7336H65.2019V29.6135C65.2019 29.3528 65.1638 29.136 65.0876 28.9631C65.0144 28.7903 64.903 28.6614 64.7536 28.5764C64.6071 28.4885 64.4211 28.4446 64.1955 28.4446C63.8762 28.4446 63.6198 28.5105 63.4265 28.6423C63.2331 28.7742 63.0925 28.9705 63.0046 29.2312C62.9196 29.489 62.8772 29.8069 62.8772 30.1848V32.7336H62.1477V27.9172H62.7365L62.8464 28.5984H62.886C62.9826 28.4314 63.1042 28.2908 63.2507 28.1765C63.3972 28.0623 63.5613 27.9758 63.7429 27.9172C63.9245 27.8586 64.1179 27.8293 64.323 27.8293C64.6892 27.8293 64.9953 27.8982 65.2414 28.0359C65.4904 28.1707 65.6706 28.3772 65.782 28.6555H65.8215C65.9797 28.3772 66.1965 28.1707 66.4719 28.0359C66.7473 27.8982 67.049 27.8293 67.3772 27.8293ZM72.1542 27.8293C72.5644 27.8293 72.9159 27.9202 73.2089 28.1018C73.5019 28.2834 73.726 28.5383 73.8813 28.8665C74.0365 29.1917 74.1142 29.5725 74.1142 30.009V30.4617H70.7875C70.7963 31.0271 70.9369 31.4578 71.2094 31.7537C71.4818 32.0496 71.8656 32.1975 72.3607 32.1975C72.6654 32.1975 72.935 32.1697 73.1693 32.114C73.4037 32.0583 73.6469 31.9763 73.8988 31.8679V32.5095C73.6557 32.6179 73.414 32.697 73.1737 32.7468C72.9364 32.7966 72.6552 32.8215 72.33 32.8215C71.8671 32.8215 71.4628 32.7278 71.1171 32.5403C70.7743 32.3499 70.5077 32.0715 70.3173 31.7053C70.1269 31.3391 70.0316 30.8909 70.0316 30.3606C70.0316 29.842 70.1181 29.3938 70.2909 29.0159C70.4667 28.635 70.7128 28.342 71.0292 28.137C71.3485 27.9319 71.7235 27.8293 72.1542 27.8293ZM72.1454 28.427C71.7558 28.427 71.4452 28.5544 71.2138 28.8093C70.9823 29.0642 70.8446 29.4202 70.8007 29.8772H73.3495C73.3466 29.5901 73.3012 29.3381 73.2133 29.1213C73.1283 28.9016 72.9979 28.7317 72.8222 28.6116C72.6464 28.4885 72.4208 28.427 72.1454 28.427ZM71.7895 25.8386C71.8598 25.9734 71.9462 26.1243 72.0487 26.2913C72.1542 26.4553 72.2641 26.6165 72.3783 26.7747C72.4955 26.9299 72.6024 27.0632 72.6991 27.1746V27.28H72.2025C72.0971 27.1951 71.9813 27.094 71.8554 26.9768C71.7323 26.8596 71.6093 26.7366 71.4862 26.6077C71.3632 26.4758 71.2519 26.3513 71.1522 26.2341C71.0526 26.114 70.975 26.0115 70.9193 25.9265V25.8386H71.7895ZM76.7291 32.2239C76.8492 32.2239 76.9722 32.2136 77.0982 32.1931C77.2242 32.1726 77.3267 32.1477 77.4058 32.1184V32.6853C77.3209 32.7234 77.2022 32.7556 77.0499 32.782C76.9005 32.8083 76.754 32.8215 76.6104 32.8215C76.3555 32.8215 76.1241 32.7776 75.9161 32.6897C75.7081 32.5989 75.5411 32.4465 75.4151 32.2327C75.2921 32.0188 75.2305 31.7229 75.2305 31.345V28.4885H74.545V28.1326L75.2349 27.8469L75.525 26.801H75.9644V27.9172H77.3751V28.4885H75.9644V31.323C75.9644 31.6248 76.0333 31.8503 76.171 31.9998C76.3116 32.1492 76.4976 32.2239 76.7291 32.2239ZM80.3899 27.8293C80.4866 27.8293 80.5877 27.8352 80.6931 27.8469C80.7986 27.8557 80.8923 27.8689 80.9744 27.8865L80.8821 28.5632C80.803 28.5427 80.7151 28.5266 80.6184 28.5149C80.5217 28.5032 80.4309 28.4973 80.346 28.4973C80.1526 28.4973 79.9695 28.5369 79.7966 28.616C79.6267 28.6921 79.4773 28.8035 79.3484 28.95C79.2195 29.0935 79.1184 29.2678 79.0452 29.4729C78.9719 29.675 78.9353 29.9006 78.9353 30.1497V32.7336H78.2014V27.9172H78.8079L78.887 28.8049H78.9177C79.0173 28.6262 79.1375 28.4636 79.2781 28.3171C79.4187 28.1677 79.5813 28.0491 79.7659 27.9612C79.9534 27.8733 80.1614 27.8293 80.3899 27.8293ZM83.5585 27.8293C83.9687 27.8293 84.3203 27.9202 84.6132 28.1018C84.9062 28.2834 85.1303 28.5383 85.2856 28.8665C85.4409 29.1917 85.5185 29.5725 85.5185 30.009V30.4617H82.1918C82.2006 31.0271 82.3413 31.4578 82.6137 31.7537C82.8862 32.0496 83.27 32.1975 83.7651 32.1975C84.0698 32.1975 84.3393 32.1697 84.5737 32.114C84.808 32.0583 85.0512 31.9763 85.3032 31.8679V32.5095C85.06 32.6179 84.8183 32.697 84.5781 32.7468C84.3408 32.7966 84.0595 32.8215 83.7343 32.8215C83.2714 32.8215 82.8671 32.7278 82.5214 32.5403C82.1787 32.3499 81.9121 32.0715 81.7216 31.7053C81.5312 31.3391 81.436 30.8909 81.436 30.3606C81.436 29.842 81.5224 29.3938 81.6953 29.0159C81.871 28.635 82.1171 28.342 82.4335 28.137C82.7529 27.9319 83.1279 27.8293 83.5585 27.8293ZM83.5497 28.427C83.1601 28.427 82.8496 28.5544 82.6181 28.8093C82.3867 29.0642 82.249 29.4202 82.205 29.8772H84.7538C84.7509 29.5901 84.7055 29.3381 84.6176 29.1213C84.5327 28.9016 84.4023 28.7317 84.2265 28.6116C84.0507 28.4885 83.8251 28.427 83.5497 28.427ZM89.6935 31.4153C89.6935 31.7229 89.6158 31.9822 89.4606 32.1931C89.3082 32.4011 89.0885 32.5579 88.8014 32.6633C88.5172 32.7688 88.1774 32.8215 87.7819 32.8215C87.4449 32.8215 87.1534 32.7952 86.9073 32.7424C86.6613 32.6897 86.4459 32.615 86.2613 32.5183V31.8459C86.4576 31.9426 86.692 32.0305 86.9645 32.1096C87.2369 32.1887 87.5153 32.2283 87.7994 32.2283C88.2155 32.2283 88.5172 32.1609 88.7047 32.0261C88.8922 31.8914 88.986 31.7083 88.986 31.4768C88.986 31.345 88.9479 31.2292 88.8717 31.1296C88.7985 31.0271 88.6739 30.929 88.4982 30.8352C88.3224 30.7385 88.0792 30.6331 87.7687 30.5188C87.4611 30.4016 87.1945 30.2859 86.9689 30.1716C86.7462 30.0544 86.5734 29.9124 86.4503 29.7454C86.3302 29.5784 86.2701 29.3616 86.2701 29.095C86.2701 28.6877 86.4342 28.3757 86.7623 28.1589C87.0934 27.9392 87.527 27.8293 88.0631 27.8293C88.3531 27.8293 88.6241 27.8586 88.8761 27.9172C89.131 27.9729 89.3683 28.0491 89.588 28.1458L89.3419 28.7302C89.1427 28.6453 88.9303 28.5735 88.7047 28.5149C88.4791 28.4563 88.2491 28.427 88.0148 28.427C87.6779 28.427 87.4186 28.4827 87.2369 28.594C87.0582 28.7053 86.9689 28.8577 86.9689 29.051C86.9689 29.2004 87.0099 29.3235 87.0919 29.4202C87.1769 29.5168 87.3116 29.6077 87.4962 29.6926C87.6808 29.7776 87.9239 29.8772 88.2257 29.9915C88.5275 30.1028 88.7882 30.2185 89.0079 30.3386C89.2277 30.4558 89.3961 30.5994 89.5133 30.7693C89.6334 30.9363 89.6935 31.1516 89.6935 31.4153Z" fill="#CDD2D9"/>
<path d="M37.2188 70.2734C37.2188 71.1432 37.112 71.9375 36.8984 72.6562C36.6849 73.375 36.3646 73.9948 35.9375 74.5156C35.5104 75.0365 34.9766 75.4401 34.3359 75.7266C33.7005 76.013 32.9583 76.1562 32.1094 76.1562C31.2552 76.1562 30.5078 76.013 29.8672 75.7266C29.2266 75.4401 28.6927 75.0365 28.2656 74.5156C27.8438 73.9896 27.526 73.3672 27.3125 72.6484C27.099 71.9245 26.9922 71.1276 26.9922 70.2578C26.9922 69.1016 27.1875 68.0833 27.5781 67.2031C27.974 66.3229 28.5547 65.6354 29.3203 65.1406C30.0911 64.6458 31.0417 64.3984 32.1719 64.3984C33.2552 64.3984 34.1719 64.6354 34.9219 65.1094C35.6771 65.5781 36.2474 66.2526 36.6328 67.1328C37.0234 68.0078 37.2188 69.0547 37.2188 70.2734ZM27.8359 70.2656C27.8359 71.2865 27.9896 72.1875 28.2969 72.9688C28.6042 73.7448 29.0755 74.3516 29.7109 74.7891C30.3464 75.2266 31.1484 75.4453 32.1172 75.4453C33.0964 75.4453 33.901 75.2292 34.5312 74.7969C35.1615 74.3646 35.6276 73.7604 35.9297 72.9844C36.2318 72.2083 36.3828 71.3047 36.3828 70.2734C36.3828 68.6432 36.026 67.3776 35.3125 66.4766C34.6042 65.5755 33.5573 65.125 32.1719 65.125C31.1979 65.125 30.388 65.3411 29.7422 65.7734C29.1016 66.2057 28.6224 66.8073 28.3047 67.5781C27.9922 68.349 27.8359 69.2448 27.8359 70.2656ZM48.4762 76H47.6559L40.9059 65.8984H40.8669C40.8773 66.1797 40.8851 66.4661 40.8903 66.7578C40.9007 67.0443 40.9085 67.3411 40.9137 67.6484C40.9242 67.9505 40.9294 68.263 40.9294 68.5859V76H40.1637V64.5781H40.9919L47.7184 74.6484H47.7575C47.7523 74.4193 47.7445 74.1536 47.7341 73.8516C47.7289 73.5495 47.721 73.2396 47.7106 72.9219C47.7054 72.6042 47.7028 72.3047 47.7028 72.0234V64.5781H48.4762V76ZM52.0306 76V64.5781H52.8353V75.2656H58.2728V76H52.0306ZM63.1709 70.8125L66.5069 64.5781H67.3897L63.585 71.5859V76H62.7803V71.6484L58.9444 64.5781H59.835L63.1709 70.8125ZM78.9362 70.2734C78.9362 71.1432 78.8295 71.9375 78.6159 72.6562C78.4024 73.375 78.0821 73.9948 77.655 74.5156C77.2279 75.0365 76.6941 75.4401 76.0534 75.7266C75.418 76.013 74.6758 76.1562 73.8269 76.1562C72.9727 76.1562 72.2253 76.013 71.5847 75.7266C70.9441 75.4401 70.4102 75.0365 69.9831 74.5156C69.5612 73.9896 69.2435 73.3672 69.03 72.6484C68.8165 71.9245 68.7097 71.1276 68.7097 70.2578C68.7097 69.1016 68.905 68.0833 69.2956 67.2031C69.6915 66.3229 70.2722 65.6354 71.0378 65.1406C71.8086 64.6458 72.7592 64.3984 73.8894 64.3984C74.9727 64.3984 75.8894 64.6354 76.6394 65.1094C77.3946 65.5781 77.9649 66.2526 78.3503 67.1328C78.7409 68.0078 78.9362 69.0547 78.9362 70.2734ZM69.5534 70.2656C69.5534 71.2865 69.7071 72.1875 70.0144 72.9688C70.3217 73.7448 70.793 74.3516 71.4284 74.7891C72.0639 75.2266 72.8659 75.4453 73.8347 75.4453C74.8139 75.4453 75.6185 75.2292 76.2487 74.7969C76.879 74.3646 77.3451 73.7604 77.6472 72.9844C77.9493 72.2083 78.1003 71.3047 78.1003 70.2734C78.1003 68.6432 77.7435 67.3776 77.03 66.4766C76.3217 65.5755 75.2748 65.125 73.8894 65.125C72.9154 65.125 72.1055 65.3411 71.4597 65.7734C70.8191 66.2057 70.3399 66.8073 70.0222 67.5781C69.7097 68.349 69.5534 69.2448 69.5534 70.2656ZM82.6859 76H81.8812V64.5781H88.1312V65.3047H82.6859V70.1719H87.8344V70.8906H82.6859V76ZM91.0528 76H90.2481V64.5781H96.4981V65.3047H91.0528V70.1719H96.2012V70.8906H91.0528V76ZM98.615 76V64.5781H99.4197V76H98.615ZM107.818 65.1406C107.089 65.1406 106.438 65.2656 105.865 65.5156C105.292 65.7604 104.807 66.1094 104.412 66.5625C104.016 67.0156 103.714 67.5573 103.505 68.1875C103.297 68.8125 103.193 69.5026 103.193 70.2578C103.193 71.2995 103.357 72.2109 103.685 72.9922C104.013 73.7682 104.505 74.3698 105.162 74.7969C105.823 75.224 106.646 75.4375 107.63 75.4375C108.203 75.4375 108.724 75.3958 109.193 75.3125C109.662 75.224 110.096 75.112 110.497 74.9766V75.6797C110.117 75.8203 109.688 75.9349 109.208 76.0234C108.734 76.112 108.182 76.1562 107.552 76.1562C106.412 76.1562 105.453 75.9115 104.677 75.4219C103.906 74.9323 103.326 74.2448 102.935 73.3594C102.544 72.474 102.349 71.4401 102.349 70.2578C102.349 69.4089 102.471 68.6302 102.716 67.9219C102.961 67.2083 103.318 66.5911 103.787 66.0703C104.261 65.5443 104.836 65.138 105.513 64.8516C106.19 64.5599 106.961 64.4141 107.826 64.4141C108.372 64.4141 108.893 64.4688 109.388 64.5781C109.888 64.6823 110.357 64.8359 110.794 65.0391L110.482 65.7422C110.06 65.5339 109.628 65.3828 109.185 65.2891C108.742 65.1901 108.287 65.1406 107.818 65.1406ZM119.466 76H113.224V64.5781H119.466V65.3047H114.028V69.6328H119.161V70.3594H114.028V75.2734H119.466V76Z" fill="#403333"/>
<rect x="26.5" y="87.5" width="195" height="34" rx="1.5" fill="white" stroke="#E2E2E2"/>
<path d="M36.5208 107.227L36.654 105.166L34.9281 106.322L34.2144 105.065L36.0734 104.159L34.2144 103.253L34.9281 101.996L36.654 103.152L36.5208 101.091H37.9537L37.8152 103.152L39.5411 101.996L40.2548 103.253L38.4011 104.159L40.2548 105.065L39.5411 106.322L37.8152 105.166L37.9537 107.227H36.5208Z" fill="#192435"/>
<path d="M44.9876 107.227L45.1208 105.166L43.3949 106.322L42.6812 105.065L44.5402 104.159L42.6812 103.253L43.3949 101.996L45.1208 103.152L44.9876 101.091H46.4205L46.282 103.152L48.0079 101.996L48.7216 103.253L46.8679 104.159L48.7216 105.065L48.0079 106.322L46.282 105.166L46.4205 107.227H44.9876Z" fill="#192435"/>
<path d="M53.4544 107.227L53.5876 105.166L51.8617 106.322L51.1479 105.065L53.007 104.159L51.1479 103.253L51.8617 101.996L53.5876 103.152L53.4544 101.091H54.8873L54.7488 103.152L56.4747 101.996L57.1884 103.253L55.3347 104.159L57.1884 105.065L56.4747 106.322L54.7488 105.166L54.8873 107.227H53.4544Z" fill="#192435"/>
<path d="M61.9212 107.227L62.0544 105.166L60.3285 106.322L59.6147 105.065L61.4738 104.159L59.6147 103.253L60.3285 101.996L62.0544 103.152L61.9212 101.091H63.3541L63.2156 103.152L64.9415 101.996L65.6552 103.253L63.8015 104.159L65.6552 105.065L64.9415 106.322L63.2156 105.166L63.3541 107.227H61.9212Z" fill="#192435"/>
<path d="M70.388 107.227L70.5212 105.166L68.7953 106.322L68.0815 105.065L69.9406 104.159L68.0815 103.253L68.7953 101.996L70.5212 103.152L70.388 101.091H71.8209L71.6824 103.152L73.4082 101.996L74.122 103.253L72.2683 104.159L74.122 105.065L73.4082 106.322L71.6824 105.166L71.8209 107.227H70.388Z" fill="#192435"/>
<path d="M78.8548 107.227L78.988 105.166L77.2621 106.322L76.5483 105.065L78.4074 104.159L76.5483 103.253L77.2621 101.996L78.988 103.152L78.8548 101.091H80.2877L80.1492 103.152L81.875 101.996L82.5888 103.253L80.7351 104.159L82.5888 105.065L81.875 106.322L80.1492 105.166L80.2877 107.227H78.8548Z" fill="#192435"/>
<path d="M87.3216 107.227L87.4548 105.166L85.7289 106.322L85.0151 105.065L86.8742 104.159L85.0151 103.253L85.7289 101.996L87.4548 103.152L87.3216 101.091H88.7545L88.616 103.152L90.3418 101.996L91.0556 103.253L89.2019 104.159L91.0556 105.065L90.3418 106.322L88.616 105.166L88.7545 107.227H87.3216Z" fill="#192435"/>
<path d="M95.7884 107.227L95.9216 105.166L94.1957 106.322L93.4819 105.065L95.341 104.159L93.4819 103.253L94.1957 101.996L95.9216 103.152L95.7884 101.091H97.2213L97.0828 103.152L98.8086 101.996L99.5224 103.253L97.6687 104.159L99.5224 105.065L98.8086 106.322L97.0828 105.166L97.2213 107.227H95.7884Z" fill="#192435"/>
<path d="M104.255 107.227L104.388 105.166L102.663 106.322L101.949 105.065L103.808 104.159L101.949 103.253L102.663 101.996L104.388 103.152L104.255 101.091H105.688L105.55 103.152L107.275 101.996L107.989 103.253L106.136 104.159L107.989 105.065L107.275 106.322L105.55 105.166L105.688 107.227H104.255Z" fill="#192435"/>
<path d="M112.722 107.227L112.855 105.166L111.129 106.322L110.416 105.065L112.275 104.159L110.416 103.253L111.129 101.996L112.855 103.152L112.722 101.091H114.155L114.016 103.152L115.742 101.996L116.456 103.253L114.602 104.159L116.456 105.065L115.742 106.322L114.016 105.166L114.155 107.227H112.722Z" fill="#192435"/>
<path d="M121.189 107.227L121.322 105.166L119.596 106.322L118.882 105.065L120.741 104.159L118.882 103.253L119.596 101.996L121.322 103.152L121.189 101.091H122.622L122.483 103.152L124.209 101.996L124.923 103.253L123.069 104.159L124.923 105.065L124.209 106.322L122.483 105.166L122.622 107.227H121.189Z" fill="#192435"/>
<path d="M129.656 107.227L129.789 105.166L128.063 106.322L127.349 105.065L129.208 104.159L127.349 103.253L128.063 101.996L129.789 103.152L129.656 101.091H131.088L130.95 103.152L132.676 101.996L133.39 103.253L131.536 104.159L133.39 105.065L132.676 106.322L130.95 105.166L131.088 107.227H129.656Z" fill="#192435"/>
<path d="M138.122 107.227L138.256 105.166L136.53 106.322L135.816 105.065L137.675 104.159L135.816 103.253L136.53 101.996L138.256 103.152L138.122 101.091H139.555L139.417 103.152L141.143 101.996L141.856 103.253L140.003 104.159L141.856 105.065L141.143 106.322L139.417 105.166L139.555 107.227H138.122Z" fill="#192435"/>
<path d="M146.589 107.227L146.722 105.166L144.996 106.322L144.283 105.065L146.142 104.159L144.283 103.253L144.996 101.996L146.722 103.152L146.589 101.091H148.022L147.884 103.152L149.609 101.996L150.323 103.253L148.47 104.159L150.323 105.065L149.609 106.322L147.884 105.166L148.022 107.227H146.589Z" fill="#192435"/>
<path d="M155.056 107.227L155.189 105.166L153.463 106.322L152.75 105.065L154.609 104.159L152.75 103.253L153.463 101.996L155.189 103.152L155.056 101.091H156.489L156.35 103.152L158.076 101.996L158.79 103.253L156.936 104.159L158.79 105.065L158.076 106.322L156.35 105.166L156.489 107.227H155.056Z" fill="#192435"/>
<path d="M163.523 107.227L163.656 105.166L161.93 106.322L161.216 105.065L163.075 104.159L161.216 103.253L161.93 101.996L163.656 103.152L163.523 101.091H164.956L164.817 103.152L166.543 101.996L167.257 103.253L165.403 104.159L167.257 105.065L166.543 106.322L164.817 105.166L164.956 107.227H163.523Z" fill="#192435"/>
<path d="M171.99 107.227L172.123 105.166L170.397 106.322L169.683 105.065L171.542 104.159L169.683 103.253L170.397 101.996L172.123 103.152L171.99 101.091H173.422L173.284 103.152L175.01 101.996L175.724 103.253L173.87 104.159L175.724 105.065L175.01 106.322L173.284 105.166L173.422 107.227H171.99Z" fill="#192435"/>
<path d="M180.456 107.227L180.59 105.166L178.864 106.322L178.15 105.065L180.009 104.159L178.15 103.253L178.864 101.996L180.59 103.152L180.456 101.091H181.889L181.751 103.152L183.477 101.996L184.19 103.253L182.337 104.159L184.19 105.065L183.477 106.322L181.751 105.166L181.889 107.227H180.456Z" fill="#192435"/>
<path d="M188.923 107.227L189.056 105.166L187.33 106.322L186.617 105.065L188.476 104.159L186.617 103.253L187.33 101.996L189.056 103.152L188.923 101.091H190.356L190.218 103.152L191.943 101.996L192.657 103.253L190.803 104.159L192.657 105.065L191.943 106.322L190.218 105.166L190.356 107.227H188.923Z" fill="#192435"/>
<rect x="26.5" y="137.5" width="92" height="31" rx="1.5" stroke="#E0E0E0"/>
<path d="M42.5127 158H37.168V148.72H42.5127V150.332H39.1357V152.37H42.2778V153.982H39.1357V156.375H42.5127V158ZM48.3335 150.77C49.091 150.77 49.7004 150.977 50.1616 151.392C50.6229 151.803 50.8535 152.463 50.8535 153.373V158H48.9175V153.855C48.9175 153.347 48.8244 152.964 48.6382 152.706C48.4562 152.448 48.1685 152.319 47.7749 152.319C47.1825 152.319 46.7783 152.52 46.5625 152.922C46.3467 153.324 46.2388 153.904 46.2388 154.661V158H44.3027V150.903H45.7817L46.042 151.811H46.1499C46.3022 151.566 46.4906 151.367 46.7148 151.214C46.9434 151.062 47.1951 150.95 47.4702 150.878C47.7495 150.806 48.0373 150.77 48.3335 150.77ZM56.8076 150.77C56.9049 150.77 57.0171 150.776 57.144 150.789C57.2752 150.798 57.381 150.81 57.4614 150.827L57.3154 152.643C57.252 152.621 57.161 152.607 57.0425 152.598C56.9282 152.585 56.8288 152.579 56.7441 152.579C56.4945 152.579 56.2511 152.611 56.0142 152.674C55.7814 152.738 55.5719 152.841 55.3857 152.985C55.1995 153.125 55.0514 153.311 54.9414 153.544C54.8356 153.772 54.7827 154.054 54.7827 154.388V158H52.8467V150.903H54.313L54.5986 152.097H54.6938C54.8335 151.855 55.007 151.635 55.2144 151.437C55.4259 151.233 55.665 151.073 55.9316 150.954C56.2025 150.831 56.4945 150.77 56.8076 150.77ZM61.6763 150.77C62.3322 150.77 62.8971 150.897 63.3711 151.151C63.8451 151.401 64.2111 151.764 64.4692 152.243C64.7274 152.721 64.8564 153.305 64.8564 153.995V154.934H60.2798C60.3009 155.48 60.4639 155.91 60.7686 156.223C61.0775 156.532 61.5049 156.686 62.0508 156.686C62.5036 156.686 62.9183 156.639 63.2949 156.546C63.6715 156.453 64.0588 156.314 64.4565 156.127V157.625C64.1053 157.799 63.7371 157.926 63.3521 158.006C62.9712 158.087 62.5078 158.127 61.9619 158.127C61.251 158.127 60.6204 157.996 60.0703 157.733C59.5244 157.471 59.0949 157.071 58.7817 156.534C58.4728 155.996 58.3184 155.319 58.3184 154.502C58.3184 153.673 58.458 152.983 58.7373 152.433C59.0208 151.879 59.4144 151.464 59.918 151.189C60.4215 150.91 61.0076 150.77 61.6763 150.77ZM61.689 152.147C61.3123 152.147 60.9992 152.268 60.7495 152.509C60.5041 152.75 60.3623 153.129 60.3242 153.646H63.041C63.0368 153.358 62.9839 153.102 62.8823 152.877C62.785 152.653 62.6369 152.475 62.438 152.344C62.2433 152.213 61.9937 152.147 61.689 152.147ZM68.5063 161.123C67.5161 161.123 66.7586 160.95 66.2339 160.603C65.7134 160.26 65.4531 159.777 65.4531 159.155C65.4531 158.728 65.5864 158.37 65.853 158.083C66.1196 157.795 66.5111 157.59 67.0273 157.467C66.8285 157.382 66.6549 157.245 66.5068 157.054C66.3587 156.86 66.2847 156.654 66.2847 156.438C66.2847 156.168 66.363 155.943 66.5195 155.766C66.6761 155.584 66.9025 155.406 67.1987 155.232C66.8263 155.072 66.5301 154.813 66.3101 154.458C66.0942 154.103 65.9863 153.684 65.9863 153.201C65.9863 152.685 66.0985 152.247 66.3228 151.887C66.5513 151.523 66.8813 151.246 67.313 151.056C67.7489 150.865 68.2778 150.77 68.8999 150.77C69.0311 150.77 69.1834 150.778 69.3569 150.795C69.5304 150.812 69.6891 150.831 69.833 150.853C69.9811 150.874 70.0806 150.891 70.1313 150.903H72.6069V151.887L71.4961 152.173C71.5977 152.329 71.6738 152.497 71.7246 152.674C71.7754 152.852 71.8008 153.04 71.8008 153.239C71.8008 154.001 71.5342 154.596 71.001 155.023C70.472 155.446 69.7357 155.658 68.792 155.658C68.5677 155.645 68.3561 155.628 68.1572 155.607C68.0599 155.683 67.9858 155.764 67.9351 155.848C67.8843 155.933 67.8589 156.022 67.8589 156.115C67.8589 156.208 67.897 156.286 67.9731 156.35C68.0535 156.409 68.172 156.455 68.3286 156.489C68.4894 156.519 68.6883 156.534 68.9253 156.534H70.1313C70.91 156.534 71.5024 156.701 71.9087 157.035C72.3192 157.369 72.5244 157.86 72.5244 158.508C72.5244 159.337 72.1774 159.98 71.4834 160.438C70.7936 160.895 69.8013 161.123 68.5063 161.123ZM68.5889 159.86C69.0501 159.86 69.4458 159.815 69.7759 159.727C70.1102 159.642 70.3662 159.519 70.5439 159.358C70.7217 159.202 70.8105 159.014 70.8105 158.793C70.8105 158.616 70.7576 158.474 70.6519 158.368C70.5503 158.267 70.3937 158.195 70.1821 158.152C69.9748 158.11 69.7082 158.089 69.3823 158.089H68.3794C68.1424 158.089 67.9287 158.127 67.7383 158.203C67.5521 158.279 67.404 158.385 67.2939 158.521C67.1839 158.66 67.1289 158.821 67.1289 159.003C67.1289 159.27 67.2559 159.479 67.5098 159.631C67.7679 159.784 68.1276 159.86 68.5889 159.86ZM68.8999 154.477C69.2638 154.477 69.5304 154.365 69.6997 154.141C69.869 153.916 69.9536 153.612 69.9536 153.227C69.9536 152.799 69.8647 152.48 69.687 152.268C69.5135 152.052 69.2511 151.944 68.8999 151.944C68.5444 151.944 68.2778 152.052 68.1001 152.268C67.9224 152.48 67.8335 152.799 67.8335 153.227C67.8335 153.612 67.9202 153.916 68.0938 154.141C68.2715 154.365 68.5402 154.477 68.8999 154.477ZM75.7173 150.903V158H73.7812V150.903H75.7173ZM74.7524 148.123C75.0402 148.123 75.2878 148.191 75.4951 148.326C75.7025 148.457 75.8062 148.705 75.8062 149.069C75.8062 149.429 75.7025 149.678 75.4951 149.818C75.2878 149.953 75.0402 150.021 74.7524 150.021C74.4604 150.021 74.2108 149.953 74.0034 149.818C73.8003 149.678 73.6987 149.429 73.6987 149.069C73.6987 148.705 73.8003 148.457 74.0034 148.326C74.2108 148.191 74.4604 148.123 74.7524 148.123ZM82.7061 155.893C82.7061 156.375 82.5918 156.783 82.3633 157.118C82.139 157.448 81.8026 157.7 81.354 157.873C80.9054 158.042 80.3468 158.127 79.6782 158.127C79.1831 158.127 78.7578 158.095 78.4023 158.032C78.0511 157.968 77.6956 157.862 77.3359 157.714V156.115C77.721 156.288 78.1336 156.432 78.5737 156.546C79.0181 156.656 79.4074 156.711 79.7417 156.711C80.1183 156.711 80.387 156.656 80.5479 156.546C80.7129 156.432 80.7954 156.284 80.7954 156.102C80.7954 155.984 80.7616 155.878 80.6938 155.785C80.6304 155.687 80.4907 155.579 80.2749 155.461C80.0591 155.338 79.7205 155.18 79.2593 154.985C78.8149 154.799 78.4489 154.61 78.1611 154.42C77.8776 154.229 77.666 154.005 77.5264 153.747C77.391 153.485 77.3232 153.153 77.3232 152.75C77.3232 152.095 77.5771 151.602 78.085 151.271C78.597 150.937 79.2804 150.77 80.1353 150.77C80.5754 150.77 80.9943 150.814 81.3921 150.903C81.7941 150.992 82.2067 151.134 82.6299 151.329L82.0459 152.725C81.6947 152.573 81.3625 152.448 81.0493 152.351C80.7404 152.253 80.4251 152.205 80.1035 152.205C79.82 152.205 79.6063 152.243 79.4624 152.319C79.3185 152.395 79.2466 152.511 79.2466 152.668C79.2466 152.782 79.2826 152.884 79.3545 152.973C79.4307 153.062 79.5745 153.161 79.7861 153.271C80.002 153.377 80.3172 153.514 80.7319 153.684C81.134 153.849 81.4831 154.022 81.7793 154.204C82.0755 154.382 82.304 154.604 82.4648 154.871C82.6257 155.133 82.7061 155.474 82.7061 155.893ZM87.2065 156.584C87.4181 156.584 87.6234 156.563 87.8223 156.521C88.0254 156.479 88.2264 156.426 88.4253 156.362V157.803C88.2179 157.896 87.9598 157.972 87.6509 158.032C87.3462 158.095 87.0119 158.127 86.6479 158.127C86.2248 158.127 85.8439 158.059 85.5054 157.924C85.1711 157.784 84.9066 157.545 84.7119 157.207C84.5215 156.864 84.4263 156.388 84.4263 155.778V152.357H83.4995V151.538L84.5659 150.891L85.1245 149.393H86.3623V150.903H88.3491V152.357H86.3623V155.778C86.3623 156.049 86.4385 156.252 86.5908 156.388C86.7474 156.519 86.9526 156.584 87.2065 156.584ZM93.8271 150.77C93.9245 150.77 94.0366 150.776 94.1636 150.789C94.2948 150.798 94.4006 150.81 94.481 150.827L94.335 152.643C94.2715 152.621 94.1805 152.607 94.062 152.598C93.9478 152.585 93.8483 152.579 93.7637 152.579C93.514 152.579 93.2707 152.611 93.0337 152.674C92.8009 152.738 92.5915 152.841 92.4053 152.985C92.2191 153.125 92.071 153.311 91.9609 153.544C91.8551 153.772 91.8022 154.054 91.8022 154.388V158H89.8662V150.903H91.3325L91.6182 152.097H91.7134C91.853 151.855 92.0265 151.635 92.2339 151.437C92.4455 151.233 92.6846 151.073 92.9512 150.954C93.222 150.831 93.514 150.77 93.8271 150.77ZM98.6958 150.77C99.3517 150.77 99.9167 150.897 100.391 151.151C100.865 151.401 101.231 151.764 101.489 152.243C101.747 152.721 101.876 153.305 101.876 153.995V154.934H97.2993C97.3205 155.48 97.4834 155.91 97.7881 156.223C98.097 156.532 98.5244 156.686 99.0703 156.686C99.5231 156.686 99.9378 156.639 100.314 156.546C100.691 156.453 101.078 156.314 101.476 156.127V157.625C101.125 157.799 100.757 157.926 100.372 158.006C99.9907 158.087 99.5273 158.127 98.9814 158.127C98.2705 158.127 97.64 157.996 97.0898 157.733C96.5439 157.471 96.1144 157.071 95.8013 156.534C95.4924 155.996 95.3379 155.319 95.3379 154.502C95.3379 153.673 95.4775 152.983 95.7568 152.433C96.0404 151.879 96.4339 151.464 96.9375 151.189C97.4411 150.91 98.0272 150.77 98.6958 150.77ZM98.7085 152.147C98.3319 152.147 98.0187 152.268 97.769 152.509C97.5236 152.75 97.3818 153.129 97.3438 153.646H100.061C100.056 153.358 100.003 153.102 99.9019 152.877C99.8045 152.653 99.6564 152.475 99.4575 152.344C99.2629 152.213 99.0132 152.147 98.7085 152.147ZM107.411 150.77C107.508 150.77 107.621 150.776 107.748 150.789C107.879 150.798 107.985 150.81 108.065 150.827L107.919 152.643C107.855 152.621 107.764 152.607 107.646 152.598C107.532 152.585 107.432 152.579 107.348 152.579C107.098 152.579 106.855 152.611 106.618 152.674C106.385 152.738 106.175 152.841 105.989 152.985C105.803 153.125 105.655 153.311 105.545 153.544C105.439 153.772 105.386 154.054 105.386 154.388V158H103.45V150.903H104.917L105.202 152.097H105.297C105.437 151.855 105.611 151.635 105.818 151.437C106.029 151.233 106.269 151.073 106.535 150.954C106.806 150.831 107.098 150.77 107.411 150.77Z" fill="#333333"/>
<path d="M194 248.5H194.561L194.497 247.943L190.831 215.943L190.78 215.5H190.334H122.4H121.964L121.905 215.932L117.505 247.932L117.427 248.5H118H194Z" fill="#CCCCCC" stroke="#333333"/>
<path d="M6.5 208.442V188.5H307.5V208.442C307.5 212.382 304.396 215.5 300.495 215.5H13.5054C9.59909 215.5 6.5 212.383 6.5 208.442Z" fill="#E2E2E2" stroke="#333333"/>
<path d="M107.333 251.5L117.106 248.5H194.894L204.667 251.5H107.333Z" fill="#E2E2E2" stroke="#333333"/>
<path d="M207.281 252.5L206.909 253.5H104.986L104.677 252.5H207.281Z" fill="#AAAAAA" stroke="#333333"/>
<path d="M162.5 201.497C162.5 204.26 160.259 206.5 157.5 206.5C154.741 206.5 152.5 204.26 152.5 201.497C152.5 198.74 154.74 196.5 157.5 196.5C160.26 196.5 162.5 198.735 162.5 201.497Z" fill="#AAAAAA" stroke="#333333"/>
<path d="M372.5 253C414.197 253 448 250.761 448 248C448 245.239 414.197 243 372.5 243C330.803 243 297 245.239 297 248C297 250.761 330.803 253 372.5 253Z" fill="#EFEFEF"/>
<path fill-rule="evenodd" clip-rule="evenodd" d="M358.579 47.113C358.238 48.9467 357.59 51.5149 356.442 52.1438C355.664 52.5758 354.472 51.8894 352.652 48.8747C354.477 48.7835 356.427 48.2459 358.161 47.3386C358.301 47.2666 358.44 47.1898 358.579 47.113ZM350.034 48.6683C349.16 49.7148 348.377 50.4252 347.695 50.8909C346.681 51.5773 345.985 51.6829 345.595 51.5485C345.264 51.4285 345.096 50.8669 345.033 50.1612C344.918 48.9179 345.154 47.3674 345.341 46.5033C345.701 46.4553 346.076 46.4073 346.455 46.3689L346.647 46.6377C347.454 47.689 348.646 48.3515 350.034 48.6683Z" fill="#CCCCCC"/>
<path fill-rule="evenodd" clip-rule="evenodd" d="M346.506 46.2551L346.734 46.5734C347.522 47.5995 348.688 48.2505 350.057 48.563L350.229 48.6022L350.116 48.7375C349.237 49.7896 348.447 50.5075 347.755 50.9801C346.734 51.6718 345.999 51.8022 345.56 51.6506L345.558 51.6501C345.347 51.5735 345.207 51.3647 345.112 51.1124C345.016 50.8558 344.957 50.5281 344.925 50.1709C344.809 48.9113 345.047 47.3482 345.235 46.4804L345.251 46.4063L345.326 46.3962C345.687 46.3482 346.063 46.3 346.444 46.2614L346.506 46.2551ZM345.43 46.6003C345.247 47.4727 345.03 48.9588 345.141 50.1512C345.171 50.4996 345.228 50.806 345.314 51.0366C345.402 51.2711 345.511 51.403 345.631 51.4467C345.97 51.5635 346.628 51.4821 347.633 50.8016C348.276 50.3628 349.014 49.7004 349.838 48.7325C348.504 48.3968 347.353 47.7352 346.561 46.7035L346.559 46.7005L346.403 46.4827C346.073 46.5171 345.747 46.5584 345.43 46.6003ZM358.727 46.908L358.685 47.1327C358.514 48.0517 358.265 49.1591 357.914 50.1174C357.738 50.5965 357.536 51.0416 357.303 51.4082C357.07 51.7739 356.803 52.069 356.493 52.2385C356.05 52.4844 355.509 52.3939 354.87 51.8863C354.232 51.3797 353.471 50.4412 352.559 48.9305L352.465 48.7758L352.646 48.7668C354.455 48.6764 356.39 48.1433 358.111 47.2429C358.249 47.1716 358.387 47.0953 358.527 47.0184L358.727 46.908ZM358.43 47.3178C358.357 47.3574 358.284 47.3965 358.211 47.4344C356.52 48.3187 354.626 48.8548 352.837 48.9721C353.703 50.3852 354.418 51.2515 355.004 51.7172C355.61 52.1983 356.054 52.2351 356.389 52.0493C356.654 51.9044 356.898 51.6424 357.121 51.2923C357.342 50.9433 357.539 50.5137 357.711 50.043C358.029 49.1775 358.262 48.1833 358.43 47.3178Z" fill="#CCCCCC"/>
<path fill-rule="evenodd" clip-rule="evenodd" d="M358.646 23.639C358.685 21.8244 358.617 20.3075 358.469 19.045C358.281 17.5041 357.959 16.3184 357.537 15.4207C357.224 14.7582 356.754 14.1198 356.182 13.6061C355.639 13.1117 354.996 12.7181 354.304 12.5068C353.439 12.2428 352.599 12.2956 351.782 12.5452C351.018 12.7757 350.288 13.1789 349.573 13.6493C349.217 13.8798 348.91 14.1006 348.617 14.3118C347.401 15.1807 346.431 15.8767 344.687 15.4063C344.567 15.3727 344.452 15.3151 344.356 15.2335C344.217 15.1135 344.106 14.9502 344.049 14.7582C343.986 14.5518 343.981 14.3118 344.053 14.043C344.125 13.7645 344.289 13.4621 344.553 13.1501L344.587 13.1021C344.683 12.9677 344.803 12.8333 344.942 12.6989C346.114 11.5564 348.453 10.6731 351.114 10.4907C353.795 10.3083 356.773 10.8603 359.175 12.5981C359.636 12.9293 360.073 13.3037 360.486 13.7309C361.461 14.7342 362.21 16.1311 362.6 18.0321C362.936 19.6786 363.003 21.6996 362.715 24.167C362.58 23.9222 362.417 23.7062 362.225 23.5238C361.855 23.1781 361.384 22.9669 360.827 22.9381C360.207 22.9045 359.472 23.1109 358.646 23.639Z" fill="#666666"/>
<path fill-rule="evenodd" clip-rule="evenodd" d="M359.111 12.6856C356.735 10.9663 353.784 10.4173 351.122 10.5985C348.474 10.78 346.164 11.6586 345.017 12.7763C344.882 12.9073 344.766 13.037 344.675 13.1646L344.636 13.2203C344.379 13.5233 344.225 13.8112 344.158 14.0701C344.09 14.3219 344.096 14.5421 344.152 14.727C344.204 14.8987 344.302 15.0446 344.426 15.1515C344.509 15.2216 344.61 15.2723 344.716 15.3022C345.567 15.5318 346.223 15.4757 346.813 15.2599C347.409 15.0421 347.943 14.6605 348.554 14.2241C348.847 14.013 349.156 13.7909 349.514 13.559C350.233 13.0862 350.973 12.6767 351.751 12.442C352.584 12.1874 353.447 12.1322 354.336 12.4036C355.045 12.6202 355.702 13.0228 356.255 13.5261C356.837 14.0493 357.316 14.6993 357.634 15.3747C358.064 16.2859 358.388 17.4837 358.576 19.032C358.72 20.2542 358.788 21.7121 358.758 23.4431C359.53 22.9834 360.229 22.7976 360.833 22.8303C361.416 22.8605 361.91 23.0821 362.299 23.4449C362.425 23.5651 362.54 23.6994 362.642 23.8453C362.889 21.5264 362.813 19.6175 362.494 18.0538C362.108 16.1699 361.367 14.7926 360.409 13.8063C360 13.3838 359.567 13.0132 359.111 12.6856ZM359.238 12.5105C356.811 10.7545 353.806 10.1994 351.107 10.383C348.433 10.5663 346.064 11.4542 344.867 12.6214C344.724 12.759 344.6 12.8983 344.499 13.0394L344.467 13.0842C344.198 13.4037 344.026 13.7189 343.949 14.0155C343.872 14.3012 343.876 14.5617 343.945 14.7895C344.009 15.0017 344.131 15.1823 344.286 15.3154C344.395 15.4082 344.525 15.4731 344.658 15.5104L344.659 15.5106C345.552 15.7514 346.253 15.6947 346.887 15.4628C347.512 15.2345 348.067 14.8375 348.667 14.4083L348.68 14.3997C348.973 14.1885 349.278 13.9689 349.631 13.74C350.343 13.272 351.064 12.8748 351.813 12.6487C352.613 12.4042 353.432 12.3536 354.272 12.6102C354.947 12.8161 355.577 13.2006 356.109 13.6861C356.67 14.1901 357.133 14.8174 357.439 15.4668C357.855 16.3509 358.175 17.5245 358.361 19.0579C358.51 20.3144 358.577 21.8261 358.538 23.6368L358.534 23.839L358.705 23.73C359.518 23.2103 360.23 23.014 360.821 23.046C361.353 23.0735 361.8 23.2742 362.151 23.6024C362.334 23.7765 362.491 23.9833 362.62 24.2191L362.783 24.5153L362.822 24.1796C363.111 21.7039 363.045 19.671 362.705 18.0106C362.313 16.0927 361.555 14.6762 360.564 13.656C360.146 13.224 359.704 12.8454 359.238 12.5105Z" fill="#666666"/>
<path fill-rule="evenodd" clip-rule="evenodd" d="M342.944 14.384C342.079 15.3537 341.373 16.597 340.84 18.0227C339.682 21.1334 339.341 25.1369 339.975 28.9628C340.614 32.8224 342.247 36.5283 345.019 39.0053C346.095 39.9653 347.344 40.743 348.77 41.2759C348.982 41.3575 352.128 42.2407 355.865 39.0293C357.709 37.4403 359.741 34.8337 361.677 30.595L360.351 29.9901C358.516 34.0129 356.624 36.4563 354.919 37.9204C351.792 40.6086 349.433 39.9653 349.279 39.9077C348.03 39.4469 346.94 38.7652 345.999 37.9204C343.491 35.6786 342.012 32.2847 341.421 28.7276C340.825 25.1417 341.138 21.407 342.209 18.5316C342.679 17.2739 343.289 16.1842 344.034 15.3537L342.944 14.384Z" fill="#333333"/>
<path fill-rule="evenodd" clip-rule="evenodd" d="M358.613 24.6759C358.704 22.3909 358.646 20.538 358.464 19.045C358.276 17.5041 357.955 16.3184 357.532 15.4207C357.22 14.7583 356.749 14.1198 356.177 13.6062C355.635 13.1118 354.991 12.7181 354.299 12.5069C353.435 12.2429 352.594 12.2957 351.777 12.5453C351.014 12.7757 350.283 13.179 349.568 13.6494C349.212 13.8798 348.905 14.1006 348.612 14.3119C347.397 15.1807 346.426 15.8768 344.683 15.4063C344.562 15.3727 344.447 15.3151 344.351 15.2335C344.212 15.1135 344.101 14.9503 344.044 14.7583C343.981 14.5519 343.976 14.3119 344.049 14.043C344.121 13.7646 344.284 13.4622 344.548 13.1502L344.582 13.1022C344.678 12.9677 344.798 12.8333 344.937 12.6989C346.109 11.5564 348.449 10.6732 351.11 10.4907C353.79 10.3083 356.768 10.8604 359.17 12.5981C359.631 12.9293 360.068 13.3038 360.481 13.731C361.456 14.7343 362.206 16.1312 362.595 18.0322C362.955 19.8035 363.003 22.0021 362.643 24.7239L362.59 25.1367C362.407 26.5625 362.292 27.4505 361.413 28.6698C361.288 28.8427 361.144 29.0299 360.976 29.2315C360.832 29.4091 360.664 29.6011 360.472 29.8027L360.64 30.4076L361.538 30.7964C361.725 30.5948 361.913 30.3836 362.095 30.158C362.263 29.9563 362.427 29.7451 362.59 29.5195C363.68 28.0026 363.815 26.9753 364.031 25.324L364.084 24.9111C364.468 22.0213 364.41 19.6595 364.017 17.7393C363.57 15.5408 362.681 13.9038 361.519 12.7133C361.048 12.2285 360.544 11.8013 360.015 11.4172C357.306 9.45386 353.982 8.83461 350.999 9.03622C347.997 9.23784 345.307 10.2891 343.904 11.6524C343.722 11.8301 343.559 12.0173 343.414 12.2093C343.001 12.6941 342.747 13.1886 342.622 13.6638C342.478 14.2062 342.497 14.7247 342.636 15.1807C342.78 15.6512 343.049 16.0496 343.395 16.3424C343.659 16.5632 343.967 16.7265 344.293 16.8177C346.705 17.4657 347.92 16.592 349.452 15.4976C349.745 15.2911 350.048 15.0703 350.355 14.8687C350.966 14.4655 351.58 14.1246 352.19 13.9374C352.748 13.7694 353.305 13.731 353.862 13.899C354.333 14.043 354.784 14.3215 355.178 14.6815C355.606 15.0703 355.961 15.5504 356.197 16.04C356.557 16.7985 356.831 17.8353 356.999 19.2131C357.157 20.5332 357.22 22.1461 357.157 24.1095L357.527 24.6279L358.613 24.6759Z" fill="#333333"/>
<path fill-rule="evenodd" clip-rule="evenodd" d="M358.29 25.1271C359.314 24.2247 360.149 23.8742 360.783 23.903C361.101 23.9174 361.36 24.0374 361.566 24.2247C361.787 24.4311 361.946 24.7239 362.042 25.0743C362.297 25.9864 362.104 27.2393 361.384 28.3674C361.201 28.6554 360.894 28.977 360.519 29.2363C360.337 29.3611 360.14 29.4667 359.938 29.5435C359.174 29.8267 359.554 30.6668 360.015 30.542C360.394 30.4364 360.755 30.2588 361.072 30.0427C361.557 29.7115 361.96 29.2795 362.205 28.8954C363.08 27.5273 363.301 25.9768 362.983 24.8199C362.839 24.2967 362.585 23.8454 362.229 23.519C361.859 23.1734 361.389 22.9621 360.832 22.9333C359.952 22.8901 358.848 23.3222 357.58 24.4551C357.128 24.8631 357.676 25.6696 358.29 25.1271Z" fill="#333333"/>
<path fill-rule="evenodd" clip-rule="evenodd" d="M360.044 25.6072C360.188 25.5784 360.313 25.5784 360.418 25.6024C360.539 25.6312 360.635 25.6984 360.692 25.7896C360.759 25.9 360.798 26.0488 360.798 26.2216C360.798 26.5817 360.649 27.0425 360.342 27.5177C360.236 27.681 360.063 27.8682 359.847 28.0122C359.765 28.0698 359.674 28.1226 359.578 28.161C359.064 28.3818 359.232 28.7994 359.645 28.6554C359.813 28.5978 359.977 28.5114 360.121 28.4154C360.39 28.233 360.615 27.993 360.75 27.7818C361.105 27.2249 361.283 26.6729 361.283 26.2216C361.283 25.9528 361.221 25.7128 361.101 25.5256C360.971 25.324 360.779 25.1848 360.524 25.1271C360.375 25.0935 360.202 25.0887 360.005 25.1175C359.366 25.2232 359.439 25.7272 360.044 25.6072Z" fill="#333333"/>
<path fill-rule="evenodd" clip-rule="evenodd" d="M359.545 46.081L359.007 35.1697L357.546 35.2369L358.089 46.1482L359.545 46.081Z" fill="#333333"/>
<path fill-rule="evenodd" clip-rule="evenodd" d="M347.766 46.0233L348.563 40.1717L347.118 39.9749L346.315 45.8265L347.766 46.0233Z" fill="#333333"/>
<path fill-rule="evenodd" clip-rule="evenodd" d="M358.843 45.4856L358.829 45.5672C358.632 46.9017 357.988 51.2941 356.441 52.1437C355.577 52.6238 354.203 51.7261 352.022 47.7802L350.74 48.481C353.454 53.3966 355.558 54.2991 357.143 53.4206C359.328 52.2157 360.054 47.2713 360.275 45.7736L360.289 45.692L358.843 45.4856Z" fill="#333333"/>
<path fill-rule="evenodd" clip-rule="evenodd" d="M344.044 45.6538C343.847 46.3643 343.415 48.5724 343.578 50.2958C343.693 51.5295 344.121 52.5712 345.11 52.9216C345.86 53.1856 347.046 53.0944 348.516 52.0959C349.506 51.4191 350.673 50.3102 351.965 48.5676L350.793 47.6988C349.606 49.2925 348.564 50.2958 347.69 50.891C346.676 51.5775 345.98 51.6831 345.591 51.5487C345.259 51.4287 345.091 50.867 345.029 50.1614C344.885 48.6445 345.274 46.6811 345.447 46.0474L344.044 45.6538Z" fill="#333333"/>
<path fill-rule="evenodd" clip-rule="evenodd" d="M349.274 28.9868C346.887 29.9325 346.046 28.8236 346.08 27.7915C346.118 26.3994 347.425 26.6778 347.161 24.4216C348.294 26.0106 345.739 27.7723 347.266 28.6028C347.593 28.7804 348.112 28.9628 349.274 28.9868Z" fill="#333333"/>
<path fill-rule="evenodd" clip-rule="evenodd" d="M347.997 32.3421C350.788 34.5935 351.801 30.5996 352.291 29.9851C352.152 34.9439 348.348 34.5983 347.997 32.3421Z" fill="#333333"/>
<path fill-rule="evenodd" clip-rule="evenodd" d="M350.178 23.6007C351.662 20.0916 355.601 22.0934 355.615 23.9703C355.428 23.7639 354.602 23.2695 354.131 23.2119C353.968 25.3 351.47 25.7369 350.797 23.5095C350.533 23.4951 350.375 23.4807 350.178 23.6007Z" fill="#333333"/>
<path fill-rule="evenodd" clip-rule="evenodd" d="M341.685 23.4518C343.035 19.8899 347.051 21.7429 347.137 23.6198C346.94 23.423 346.099 22.9574 345.624 22.919C345.542 25.012 343.059 25.54 342.305 23.3414C342.036 23.3318 341.877 23.327 341.685 23.4518Z" fill="#333333"/>
<path fill-rule="evenodd" clip-rule="evenodd" d="M308.555 46.4504C307.767 42.9509 307.969 40.938 308.267 39.4595L308.31 39.2531C308.401 38.7922 308.541 38.2786 308.67 37.7889C308.935 36.7905 309.175 35.888 309.06 35.2303C308.915 34.3999 308.435 33.9726 307.383 34.155C305.678 34.4479 304.861 36.0272 304.174 37.3473C303.809 38.053 303.502 38.6434 303.411 38.629C303.315 38.5954 303.219 38.5522 303.122 38.4994C303.017 38.4418 302.911 38.365 302.796 38.2834C302.594 38.1346 302.263 37.8417 301.854 37.4865C299.544 35.4511 295.005 31.4524 291.849 34.1214C290.974 34.8607 290.513 36.3008 290.998 38.293C291.354 39.7427 292.219 41.5332 293.818 43.5926C293.881 43.6694 294.15 43.967 294.721 44.3943C295.029 44.6199 295.437 44.8983 295.98 45.2199C296.537 45.5512 297.2 45.796 297.997 46.0936C299.193 46.5401 300.721 47.1065 302.508 48.201L303.719 47.0938C301.807 45.9225 299.765 45.1911 298.506 44.7255C297.767 44.4519 297.157 44.2215 296.724 43.967C296.239 43.679 295.869 43.4294 295.591 43.223C295.168 42.911 295.009 42.7477 294.976 42.7045C293.511 40.8132 292.728 39.2195 292.415 37.957C292.074 36.5696 292.305 35.6528 292.79 35.2399C294.981 33.387 298.895 36.8337 300.884 38.5858C301.312 38.9602 301.657 39.2675 301.922 39.4643C302.075 39.5747 302.234 39.6803 302.397 39.7763C302.575 39.8771 302.757 39.9587 302.945 40.0211C304.213 40.434 304.78 39.3395 305.462 38.0242C305.995 36.9969 306.634 35.7728 307.619 35.6C307.628 35.6 307.604 35.4127 307.614 35.4847C307.671 35.8304 307.47 36.5888 307.249 37.4289C307.119 37.9186 306.984 38.4322 306.874 38.9842L306.831 39.1907C306.494 40.8564 306.269 42.9941 307.119 46.7816L308.555 46.4504Z" fill="#333333"/>
<path fill-rule="evenodd" clip-rule="evenodd" d="M305.125 47.3438C304.433 47.6174 304.43 47.0173 303.906 47.3438C302.177 46.3309 299.668 45.143 298.506 44.711C297.766 44.4374 297.156 44.2069 296.724 43.9525C296.239 43.6645 295.869 43.4149 295.59 43.2085C295.168 42.8964 295.009 42.7332 294.975 42.69C294.841 42.5172 294.716 42.3492 294.591 42.1812C293.371 40.5106 292.694 39.0897 292.415 37.9376C292.074 36.5503 292.305 35.6334 292.79 35.2206C293.011 35.0334 293.251 34.899 293.501 34.8126C295.749 34.0445 299.092 36.9871 300.884 38.5665C301.311 38.9409 301.657 39.2481 301.921 39.445C302.075 39.5554 302.234 39.661 302.397 39.757C302.575 39.8578 302.757 39.9394 302.944 40.0018C304.213 40.4146 304.779 39.3201 305.461 38.0048C305.995 36.9775 306.634 35.7534 307.623 35.5806C307.628 35.9599 307.45 36.6511 307.248 37.4096C307.119 37.8992 306.984 38.4129 306.874 38.9649L306.83 39.1713C306.518 40.7315 306.363 43.4629 307.031 46.6984C306.349 46.8808 305.874 47.0509 305.125 47.3438Z" fill="#FEFEFE"/>
<path fill-rule="evenodd" clip-rule="evenodd" d="M351.196 88.2958C350.034 88.0846 348.914 87.6718 347.387 86.9085C346.316 86.3709 345.446 85.8092 344.75 85.2428C344.154 84.7579 343.684 84.2683 343.323 83.7834C343.487 85.3436 343.919 87.0621 344.495 88.7855C345.321 91.2529 346.436 93.7299 347.483 95.8036C347.987 94.4211 348.66 92.957 349.414 91.4977C349.976 90.4128 350.581 89.3327 351.196 88.2958Z" fill="#FF6F3D"/>
<path fill-rule="evenodd" clip-rule="evenodd" d="M342.934 82.7837L343.551 83.6143C343.895 84.0777 344.349 84.5506 344.929 85.0227M342.934 82.7837L343.041 83.8128L342.934 82.7837ZM344.764 88.6953C344.307 87.3282 343.943 85.9705 343.733 84.6986L344.764 88.6953ZM343.733 84.6986C343.982 84.9547 344.26 85.2097 344.571 85.4625L344.571 85.4626C345.286 86.0439 346.173 86.6163 347.26 87.1617L347.26 87.1619C348.631 87.8468 349.689 88.2588 350.75 88.4947C350.202 89.4297 349.665 90.3963 349.162 91.3672L349.162 91.3674C348.514 92.6222 347.924 93.8838 347.447 95.0973C346.492 93.1576 345.509 90.9209 344.764 88.6954M343.041 83.8128C343.208 85.4006 343.646 87.1405 344.226 88.8753L343.041 83.8128ZM344.929 85.0228C345.607 85.5743 346.458 86.1251 347.514 86.6549C349.028 87.4115 350.12 87.8122 351.247 88.0168L351.648 88.0897L351.44 88.4403C350.827 89.4731 350.225 90.5484 349.666 91.6279C348.915 93.0803 348.248 94.5329 347.749 95.9007L347.525 96.5155L347.23 95.9313C346.179 93.8499 345.058 91.3598 344.226 88.8753L344.226 88.8753" fill="#FF6F3D"/>
<path fill-rule="evenodd" clip-rule="evenodd" d="M343.251 82.4104C343.237 84.297 343.746 86.5339 344.495 88.7853C345.321 91.2527 346.436 93.7297 347.483 95.8035C347.987 94.421 348.66 92.9569 349.414 91.4975C350.74 88.9389 352.315 86.3947 353.694 84.3594L354.823 85.1178C353.463 87.1244 351.912 89.6254 350.62 92.1216C349.611 94.0754 348.756 96.0291 348.28 97.7381L347.829 99.3654L347.027 97.8773C345.768 95.5347 344.255 92.376 343.203 89.2222C342.411 86.846 341.873 84.465 341.887 82.4152L343.251 82.4104Z" fill="#333333"/>
<path fill-rule="evenodd" clip-rule="evenodd" d="M336.44 63.1801C334.149 66.3724 330.267 70.0159 326.136 72.5505C322.543 74.7539 318.787 76.1028 315.819 75.5315C315.492 75.4691 314.109 75.0179 311.928 71.5616C309.656 67.9565 306.711 61.2552 303.608 48.8173C304.074 48.6157 304.699 48.4285 305.352 48.2797C306.284 48.0637 307.264 47.9197 307.989 47.8669C308.45 48.9613 308.945 50.2142 309.459 51.5152C311.544 56.81 313.974 62.9881 317.961 67.1884L318.393 67.6445L318.907 67.2845C320.252 66.3484 323.84 62.1096 327.174 58.1637C329.907 54.933 332.467 51.904 333.342 51.2079C334.591 50.2094 336.137 49.1726 338.284 48.2941C340.355 47.4444 342.987 46.7436 346.455 46.3643L346.647 46.6332C347.786 48.1261 349.698 48.8317 351.84 48.8845C353.886 48.9325 356.168 48.3805 358.161 47.3388C358.718 47.0508 359.252 46.7244 359.751 46.3643C362.018 46.8012 365.208 48.2077 368.268 49.9934C371.356 51.7936 374.282 53.9634 375.977 55.9075C376.631 57.6837 377.404 59.6758 378.225 61.8024C382.443 72.6849 388.068 87.1965 386.021 94.7667C386.007 94.8147 385.743 95.1796 384.287 95.3764C383.346 95.5012 381.996 95.4868 380.07 95.1508C378 94.7907 375.233 93.9267 371.659 92.5489C368.042 91.1568 363.618 89.2463 358.272 86.8077L357.667 88.1326C363.051 90.5904 367.504 92.5105 371.135 93.9123C374.81 95.3284 377.668 96.2164 379.83 96.5909C381.914 96.9509 383.413 96.9653 384.489 96.8213C386.804 96.5093 387.395 95.314 387.438 95.1508C389.61 87.1245 383.884 72.3537 379.59 61.2792C378.749 59.1094 377.961 57.0836 377.303 55.2835L377.255 55.1587L377.169 55.0578C375.382 52.9649 372.269 50.6367 369.003 48.7309C365.674 46.7868 362.148 45.2698 359.684 44.8714L359.377 44.8234L359.127 45.0154C358.613 45.4042 358.065 45.7547 357.489 46.0523C355.707 46.9788 353.684 47.478 351.874 47.43C350.159 47.3868 348.66 46.8588 347.81 45.7499C347.69 45.5915 347.584 45.4283 347.493 45.2554L347.262 44.8186L346.772 44.8666C342.92 45.2458 340.009 46.0091 337.732 46.9452C335.436 47.8861 333.774 48.9997 332.434 50.0702C331.43 50.8719 328.831 53.9442 326.06 57.2228C323.158 60.6551 320.055 64.3226 318.561 65.6811C315.04 61.6968 312.773 55.9411 310.823 50.9823C310.256 49.5374 309.713 48.1597 309.137 46.83L308.945 46.3883H308.464C307.643 46.3931 306.284 46.5659 305.035 46.854C303.988 47.0988 302.989 47.43 302.374 47.8237L301.937 48.1069L302.061 48.6109C305.261 61.5864 308.335 68.5758 310.703 72.3393C313.201 76.3044 315.098 76.8804 315.554 76.9669C318.917 77.6149 323.029 76.17 326.905 73.7938C331.233 71.1392 335.311 67.2989 337.698 63.9338C338.51 62.7913 337.305 61.98 336.44 63.1801Z" fill="#333333"/>
<path fill-rule="evenodd" clip-rule="evenodd" d="M377.38 55.3849L377.285 55.1252L379.619 61.2555L379.384 60.6484L379.384 60.6471C378.65 58.747 377.966 56.9776 377.38 55.3849ZM379.634 61.295L379.619 61.2571L377.017 58.6756C377.326 59.4844 377.65 60.3228 377.984 61.1852L377.985 61.1883L378.22 61.7975L378.223 61.8041C382.44 72.6859 388.062 87.1932 386.016 94.7619C386.002 94.8099 385.738 95.1747 384.282 95.3715C383.341 95.4963 381.991 95.4819 380.065 95.1459C377.994 94.7859 375.228 93.9218 371.654 92.5441C371.493 92.4821 371.331 92.419 371.166 92.3549C370.896 92.2494 370.622 92.1411 370.343 92.03C367.534 90.9116 364.278 89.5111 360.528 87.8241C360.028 87.5991 359.519 87.3691 359.002 87.134L359.046 87.101C359.463 86.786 359.85 86.4264 360.206 86.033C360.33 85.8952 360.451 85.7532 360.567 85.6075C360.904 85.1867 361.205 84.7386 361.473 84.2676L361.495 84.2298C361.581 84.2564 361.67 84.2831 361.76 84.31L361.88 84.3455C363.676 84.8732 366.075 85.4382 368.524 85.9203C368.96 86.0061 369.398 86.0893 369.833 86.1692C370.036 86.2067 370.239 86.2435 370.441 86.2795C372.415 86.6317 374.332 86.9103 375.898 87.0544C376.128 87.0756 376.35 87.0938 376.564 87.109C376.708 87.1192 376.848 87.128 376.984 87.1353L377.072 87.1399L377.093 87.141L377.149 87.1436C378.286 87.1957 378.456 85.7821 377.217 85.6829C377.2 85.6815 377.181 85.6804 377.164 85.6795C377.131 85.6775 377.098 85.6756 377.065 85.6739L377.004 85.6707C376.902 85.6654 376.8 85.6601 376.693 85.6507C376.683 85.6384 376.673 85.6255 376.662 85.6122C376.062 84.847 374.631 82.4471 373.215 79.871C371.878 77.4336 370.569 74.8635 370.007 73.3807C370 73.3605 369.992 73.3406 369.985 73.3208C369.979 73.3055 369.973 73.2903 369.968 73.2753C370.015 71.0229 370.127 68.7427 370.3 66.43L370.309 66.3147L370.311 66.2911L370.311 66.2885C370.373 65.183 368.944 64.961 368.853 66.1803L368.852 66.203L368.852 66.2046L368.839 66.3681C368.667 68.6736 368.557 70.964 368.51 73.2447C368.507 73.375 368.504 73.5053 368.502 73.6356C368.491 74.2858 368.485 74.9354 368.484 75.5843C368.48 78.0648 368.554 80.516 368.701 82.9432C368.732 83.4452 368.765 83.9462 368.802 84.4462L368.805 84.4938C368.29 84.3923 367.78 84.2857 367.279 84.176C365.363 83.7565 363.581 83.2899 362.187 82.8752C362.101 82.8623 362.013 82.847 361.923 82.8293C361.558 82.7571 361.165 82.6449 360.751 82.4957C357.662 81.3826 353.372 78.2089 350.046 74.2082C348.603 72.4724 347.342 70.581 346.44 68.6346C346.363 68.4674 346.288 68.2998 346.216 68.1318C346.051 67.7485 345.901 67.3634 345.766 66.9773C345.901 66.2246 346.077 65.2391 346.27 64.1459C346.387 63.488 346.51 62.7911 346.634 62.0824C346.875 60.7064 347.122 59.2861 347.338 58.0212C347.651 56.1833 347.897 54.6735 347.962 54.1042C347.978 53.9719 347.983 53.8903 347.978 53.8673C347.877 53.4449 347.781 53.0176 347.689 52.5808C347.648 52.6013 347.606 52.6211 347.565 52.6401L347.583 52.603C347.602 52.5625 347.621 52.5221 347.641 52.482C347.995 51.7473 348.383 51.0921 348.8 50.5599C349.091 50.1882 349.396 49.8765 349.716 49.6396C349.74 49.6218 349.764 49.6043 349.788 49.5873C350.211 49.2905 350.657 49.1252 351.125 49.1252C352.437 52.9216 356.254 53.9201 357.147 53.4257C358.66 52.5903 359.404 49.7556 359.805 47.6342C359.912 47.067 359.994 46.5507 360.06 46.1373L360.062 46.1252C360.543 46.3109 361.018 46.4986 361.491 46.691C363.722 47.5994 365.892 48.6108 368.263 49.9934L376.022 56.0389C376.006 55.9934 375.989 55.9479 375.972 55.9027C374.277 53.9585 371.351 51.7887 368.263 49.9934L369.018 48.6976L369.017 48.6971C366.054 46.9689 363.398 45.806 360.603 44.726L358.874 44.0579L358.581 45.8885C358.423 46.8767 358.189 48.3344 357.776 49.6656C357.57 50.3297 357.335 50.9091 357.074 51.3568C356.861 51.7216 356.671 51.9307 356.526 52.043C356.465 52.0421 356.376 52.0356 356.259 52.0163C355.93 51.9619 355.485 51.8226 355.004 51.5638C354.054 51.0518 353.058 50.1253 352.542 48.6351L352.193 47.6252H351.125C349.324 47.6252 348.028 48.9652 347.18 50.2448C346.932 50.62 346.697 51.0265 346.476 51.4559C345.995 51.6004 345.71 51.5449 345.609 51.5089L345.606 51.5077C345.528 51.4802 345.44 51.4275 345.337 51.2343C345.219 51.0131 345.115 50.6587 345.066 50.1526C344.975 49.1827 345.111 47.9533 345.28 47.0016L345.657 44.8849L343.54 45.262C341.234 45.6728 339.326 46.2433 337.713 46.9001L337.711 46.9009C335.405 47.8447 333.736 48.9637 332.401 50.0309C331.833 50.4834 330.875 51.5364 329.82 52.7433C328.739 53.9802 327.435 55.5221 326.096 57.1041L326.024 57.1901L326.01 57.2064C324.344 59.1759 322.631 61.2007 321.168 62.8507C320.434 63.6781 319.773 64.3992 319.22 64.9654C318.961 65.2299 318.74 65.4459 318.556 65.6168C315.094 61.6837 312.867 56.0857 310.849 50.9608L310.849 50.9591L310.67 50.5073C310.222 49.3722 309.784 48.2613 309.364 47.2745L308.947 46.295L307.885 46.3653C307.064 46.4196 306.008 46.5828 305.01 46.8132L305.003 46.8147C304.318 46.9758 303.594 47.1821 303.007 47.4358L301.839 47.9412L302.148 49.176C305.273 61.6888 308.26 68.5591 310.654 72.3565C312.92 75.9555 314.601 76.8234 315.533 77.0002C319.079 77.6815 323.249 76.0698 326.915 73.8248L326.916 73.8242C329.086 72.4925 331.191 70.8685 333.055 69.1521L333.039 69.5194L333.038 69.5334C332.888 74.0119 332.922 83.0187 333.39 91.5272C333.708 97.2956 334.221 102.92 335.025 106.723L335.165 107.385L335.755 107.719C341.112 110.743 347.122 112.056 352.995 112.308C360.382 112.624 367.654 111.277 373.387 109.47L374.765 109.036L374.383 107.643C373.727 105.25 373.148 102.885 372.64 100.536C372.173 98.3775 371.769 96.2189 371.428 94.0639C374.881 95.3835 377.655 96.2493 379.808 96.6237C381.835 96.9774 383.345 97.0089 384.479 96.8585L384.483 96.858C385.309 96.7463 385.907 96.5736 386.347 96.3591C386.57 96.2506 386.77 96.1226 386.94 95.9708C387.025 95.8953 387.111 95.8073 387.188 95.7055C387.241 95.6375 387.374 95.4563 387.453 95.1931L387.459 95.1733L387.464 95.1533C388.046 92.9998 388.06 90.4587 387.744 87.7725C387.426 85.0706 386.762 82.1239 385.911 79.1138C384.214 73.1136 381.734 66.7143 379.634 61.295ZM347.565 52.6401C347.084 52.8635 346.643 52.9849 346.251 53.0299C346.075 53.0501 345.91 53.0549 345.754 53.0466C345.512 53.0338 345.295 52.9892 345.105 52.9216C344.116 52.5712 343.693 51.5295 343.573 50.2958C343.513 49.6629 343.533 48.967 343.593 48.3035C343.643 47.7389 343.722 47.1977 343.803 46.7387C343.255 46.8364 342.732 46.9432 342.232 47.058C340.716 47.406 339.413 47.8272 338.279 48.2892C336.132 49.1677 334.585 50.2046 333.337 51.2031C332.469 51.8934 329.944 54.8787 327.236 58.0795L327.147 58.1844C323.82 62.1183 320.244 66.3455 318.902 67.2796L318.388 67.6396L317.956 67.1836C313.974 62.9832 311.538 56.8051 309.454 51.5103L309.275 51.0579C308.826 49.9197 308.395 48.829 307.984 47.862C307.258 47.91 306.283 48.0588 305.347 48.2748C304.693 48.4284 304.069 48.6109 303.603 48.8125C306.711 61.2551 309.651 67.9516 311.923 71.5567C314.099 75.013 315.482 75.4643 315.813 75.5267C318.782 76.0979 322.534 74.749 326.131 72.5456C328.674 70.9858 331.121 69.0078 333.162 66.9719C333.306 66.8282 333.448 66.6842 333.588 66.54C334.687 65.4079 335.653 64.2659 336.435 63.1753C336.444 63.1623 336.453 63.1496 336.463 63.1372C336.476 63.1194 336.49 63.102 336.503 63.0852L336.504 63.0838C337.362 62.0135 338.483 62.812 337.689 63.9289L337.619 64.0253L337.611 64.0372C336.789 65.1761 335.779 66.3714 334.634 67.5532L334.585 68.4653L334.537 69.5838C334.389 74.0145 334.422 82.9769 334.888 91.4448C335.205 97.2053 335.714 102.731 336.492 106.412C341.594 109.293 347.358 110.565 353.06 110.81C360.236 111.117 367.331 109.806 372.936 108.04C372.274 105.62 371.688 103.23 371.174 100.854C370.639 98.3786 370.185 95.9036 369.812 93.4333L369.805 93.3842C368.423 92.8351 366.902 92.1441 365.276 91.4053C363.139 90.4348 360.821 89.3817 358.399 88.4598L358.334 88.4349C357.794 88.2301 357.187 87.7607 356.538 87.0965C354.095 84.597 351.06 79.3393 348.791 75.0445C346.871 71.4101 345.5 68.4653 345.5 68.4653C345.5 68.4653 345.603 67.894 345.766 66.9773C345.458 66.0914 345.232 65.2001 345.105 64.3127C345.026 63.7617 345.043 62.9076 345.147 61.8791C345.269 60.6655 345.514 59.2091 345.867 57.7213C346.128 56.6219 346.449 55.5054 346.823 54.457C346.864 54.3432 346.905 54.2302 346.947 54.1181L346.949 54.1129C347.142 53.5992 347.347 53.1048 347.565 52.6401ZM357.622 86.0595C357.667 86.1057 357.711 86.1499 357.754 86.1922L358.107 85.9302C358.574 85.5831 359.006 85.1574 359.396 84.6701C359.612 84.4009 359.812 84.1158 359.997 83.8155C358.957 83.4159 357.86 82.8407 356.769 82.1549C355.468 81.3372 354.115 80.3238 352.794 79.1653C353.769 80.8254 354.773 82.4161 355.735 83.7509C356.413 84.692 357.05 85.4762 357.622 86.0595ZM374.712 85.4171C373.385 85.2538 371.877 85.0176 370.327 84.7348L370.301 84.3836C370.121 81.9344 370.015 79.4619 369.99 76.9601C370.569 78.122 371.238 79.3854 371.9 80.5923L371.901 80.5937C372.628 81.9173 373.362 83.1991 373.99 84.2457C374.243 84.6662 374.487 85.0636 374.712 85.4171Z" fill="#333333"/>
<path fill-rule="evenodd" clip-rule="evenodd" d="M375.972 55.9027C376.625 57.6789 377.399 59.671 378.22 61.7976C382.438 72.6801 388.063 87.1917 386.016 94.7619C386.002 94.8099 385.738 95.1748 384.282 95.3716C383.341 95.4964 381.991 95.482 380.065 95.146C377.994 94.7859 375.228 93.9219 371.654 92.5441C368.205 91.2144 364.021 89.4143 359.002 87.1341C359.583 86.702 360.106 86.1836 360.567 85.6076C360.913 85.1755 361.221 84.7147 361.495 84.2299C363.627 84.8827 366.769 85.6076 369.833 86.1692C372.586 86.6781 375.285 87.0573 377.149 87.1437C378.302 87.1965 378.46 85.742 377.163 85.6796C377.01 85.67 376.856 85.6652 376.693 85.6508C376.112 84.9307 374.656 82.4921 373.215 79.8711C371.846 77.3749 370.506 74.7395 369.968 73.2754C370.016 70.9856 370.131 68.667 370.309 66.3148C370.395 65.1867 368.945 64.9515 368.853 66.1804C368.613 69.339 368.488 72.4689 368.484 75.5843C368.479 78.5942 368.589 81.5608 368.805 84.4939C366.322 84.0042 363.945 83.3985 362.187 82.8752C357.147 82.1252 346.353 73.0351 345.105 64.3127C344.672 61.2877 347.114 49.1252 351.125 49.1252C352.437 52.9217 356.254 53.9202 357.147 53.4257C359.069 52.3648 359.75 48.079 360.062 46.1252C362.812 47.1877 365.39 48.3181 368.263 49.9934C371.351 51.7888 374.277 53.9586 375.972 55.9027ZM345.5 68.4654C345.5 68.4654 348.064 54.2226 347.978 53.8674C347.877 53.4449 347.781 53.0177 347.689 52.5808C346.599 53.1185 345.71 53.1377 345.105 52.9217C344.116 52.5712 343.693 51.5296 343.573 50.2959C343.462 49.1246 343.626 47.7373 343.803 46.7388C341.594 47.1324 339.788 47.6748 338.279 48.2893C336.132 49.1678 334.585 50.2047 333.337 51.2031C332.462 51.8992 329.902 54.9282 327.169 58.1589C323.835 62.1 320.247 66.3436 318.902 67.2797L318.388 67.6397L317.956 67.1836C313.974 62.9833 311.538 56.8052 309.454 51.5104C308.94 50.2095 308.45 48.9565 307.984 47.8621C307.258 47.9101 306.283 48.0589 305.347 48.2749C304.693 48.4285 304.069 48.6109 303.603 48.8125C306.711 61.2552 309.651 67.9517 311.923 71.5568C314.099 75.0131 315.482 75.4643 315.813 75.5267C318.782 76.098 322.534 74.7491 326.131 72.5457C330.262 70.0111 334.144 66.3724 336.435 63.1753C337.299 61.9704 338.505 62.7817 337.688 63.929C336.853 65.1003 335.815 66.334 334.633 67.5533L334.585 68.4654L334.537 69.5838C334.388 74.0146 334.422 82.977 334.888 91.4448C335.205 97.2053 335.714 102.731 336.492 106.412C341.594 109.293 347.358 110.565 353.06 110.81C360.236 111.117 367.331 109.806 372.936 108.04C372.274 105.62 371.688 103.23 371.174 100.854C370.636 98.3622 370.179 95.8708 369.805 93.3842C366.591 92.1073 362.625 90.0627 358.334 88.435C354.043 86.8072 345.5 68.4654 345.5 68.4654Z" fill="#EFEFEF"/>
<path fill-rule="evenodd" clip-rule="evenodd" d="M368.853 66.1803C368.613 69.339 368.488 72.4688 368.483 75.5843C368.479 78.9301 368.613 82.2184 368.882 85.4683L370.342 85.3483C370.073 82.0984 369.939 78.8485 369.944 75.5843C369.949 72.5504 370.069 69.4686 370.314 66.3195C370.395 65.1914 368.945 64.9514 368.853 66.1803ZM369.756 93.0433L371.202 92.8321C371.587 95.4051 372.052 97.9781 372.61 100.561C373.167 103.153 373.811 105.745 374.536 108.337L374.723 109.009L374.06 109.225C368.219 111.146 360.668 112.605 353.002 112.278C346.973 112.019 340.878 110.651 335.484 107.526L335.21 107.368L335.138 107.051C334.297 103.283 333.754 97.5221 333.428 91.5264C332.962 83.0249 332.923 74.0145 333.077 69.5454L333.125 68.4029L333.188 67.2028L334.648 67.294L334.585 68.4701L334.537 69.5886C334.388 74.0193 334.422 82.9817 334.888 91.4496C335.205 97.21 335.714 102.735 336.492 106.417C341.594 109.297 347.358 110.57 353.06 110.814C360.236 111.122 367.331 109.811 372.936 108.045C372.273 105.625 371.687 103.235 371.173 100.858C370.621 98.2517 370.145 95.6499 369.756 93.0433Z" fill="#333333"/>
<path fill-rule="evenodd" clip-rule="evenodd" d="M382.971 236.57C381.827 237.862 380.377 239.249 378.888 240.67C376.476 242.974 373.969 245.369 372.715 247.419C371.774 248.96 371.601 250.295 372.936 251.173C373.748 251.274 376.649 250.05 380.012 248.351C383.773 246.45 388.009 243.953 390.608 241.98C390.627 241.961 390.68 241.923 390.699 241.913C390.752 241.875 390.839 241.817 390.94 241.731C391.478 241.265 392.328 240.003 389.695 236.945L390.805 235.994C394.302 240.06 392.789 242.062 391.886 242.84C391.756 242.95 391.626 243.041 391.54 243.104L391.473 243.152C388.792 245.182 384.484 247.726 380.67 249.651C376.899 251.557 373.513 252.873 372.446 252.56L372.355 252.536L372.273 252.484C369.9 251.039 370.049 248.984 371.471 246.661C372.826 244.448 375.4 241.985 377.884 239.614C379.354 238.207 380.79 236.839 381.88 235.605L382.971 236.57Z" fill="#333333"/>
<path fill-rule="evenodd" clip-rule="evenodd" d="M342.026 235.615C340.551 236.22 338.755 236.839 336.92 237.468C333.231 238.731 329.383 240.051 327.174 241.664C325.214 243.099 324.455 244.741 325.906 246.714L325.963 246.791L326.04 246.853C326.919 247.559 331.276 247.674 336.19 247.371C340.945 247.079 346.306 246.435 349.476 245.595L349.553 245.576C350.288 245.413 353.252 244.736 351.835 239.523C351.782 239.331 351.398 238.486 351.042 237.689C350.749 237.041 350.471 236.422 350.437 236.326L349.049 236.782C349.097 236.931 349.395 237.593 349.712 238.289C350.048 239.038 350.408 239.83 350.427 239.902C351.446 243.656 349.673 244.054 349.236 244.15L349.13 244.174C346.051 244.99 340.792 245.619 336.108 245.907C331.655 246.181 327.798 246.176 327.025 245.749C326.309 244.678 326.833 243.718 328.048 242.83C330.07 241.352 333.812 240.07 337.405 238.836C339.23 238.212 341.022 237.598 342.593 236.95L342.026 235.615Z" fill="#333333"/>
<path fill-rule="evenodd" clip-rule="evenodd" d="M378.888 240.67C376.477 242.974 373.969 245.369 372.716 247.419C371.774 248.96 371.601 250.295 372.937 251.173C373.748 251.274 376.65 250.05 380.012 248.35C383.773 246.45 388.01 243.953 390.609 241.98C390.628 241.961 390.681 241.923 390.7 241.913C390.753 241.875 390.839 241.817 390.94 241.731C391.233 241.481 391.612 241.001 391.488 240.132C391.396 239.47 391.007 238.577 390.061 237.386C389.076 237.814 387.832 237.996 386.588 237.962C385.137 237.924 383.648 237.598 382.563 237.026C381.66 238.01 380.598 239.038 379.498 240.094C379.292 240.286 379.09 240.478 378.888 240.67Z" fill="#FEFEFE"/>
<path fill-rule="evenodd" clip-rule="evenodd" d="M350.418 239.907C350.442 239.993 350.466 240.079 350.485 240.166C351.354 243.68 349.654 244.064 349.226 244.16L349.121 244.184C346.042 245 340.782 245.629 336.098 245.917C331.646 246.19 327.788 246.185 327.015 245.758C326.299 244.688 326.823 243.728 328.038 242.84C329.268 241.937 331.141 241.111 333.226 240.324C334.566 239.82 335.988 239.331 337.395 238.85C339.029 238.289 340.633 237.742 342.079 237.166C342.977 237.756 344.365 238.366 345.96 238.471C347.065 238.543 348.271 238.375 349.476 237.794C349.548 237.953 349.625 238.126 349.702 238.294C350.038 239.042 350.394 239.835 350.418 239.907Z" fill="#FEFEFE"/>
<path fill-rule="evenodd" clip-rule="evenodd" d="M371.159 110.099C374.546 121.174 378.331 141.177 381.645 163.796C386.425 187.093 389.504 213.332 389.46 235.562C388.581 236.047 387.299 236.33 386.021 236.359C384.753 236.388 383.523 236.177 382.74 235.682C381.64 231.496 377.207 213.519 371.25 192.666C366.226 175.068 359.621 155.952 356.153 142.545L354.765 137.481C354.679 150.072 353.833 163.297 353.286 171.875C353.122 174.458 352.983 176.618 352.896 178.265C352.892 178.375 352.896 178.798 352.906 179.503C352.988 185.614 353.353 213.629 349.015 236.388C347.997 236.921 346.974 237.074 346.042 237.017C344.774 236.935 343.664 236.46 342.939 235.989C342.857 229.408 342.636 219.951 342.017 209.87C341.382 199.564 340.321 188.571 338.553 179.254C338.409 178.495 335.748 163.239 335.594 142.603C335.517 132.291 336.07 120.636 337.876 108.774C342.646 111.016 347.848 112.048 352.997 112.274C359.453 112.552 365.823 111.563 371.159 110.099Z" fill="#404040"/>
<path fill-rule="evenodd" clip-rule="evenodd" d="M337.791 108.615L337.922 108.677C342.676 110.911 347.864 111.941 353.002 112.166C359.444 112.444 365.803 111.457 371.131 109.995L371.232 109.967L371.263 110.068C374.652 121.15 378.437 141.159 381.752 163.778C386.532 187.079 389.612 213.324 389.569 235.562L389.568 235.626L389.513 235.657C388.614 236.153 387.313 236.438 386.024 236.467C384.747 236.496 383.492 236.285 382.683 235.774L382.647 235.751L382.636 235.71C382.432 234.932 382.112 233.678 381.689 232.018C379.836 224.743 375.996 209.673 371.147 192.696C368.882 184.764 366.297 176.525 363.822 168.637C363.551 167.776 363.282 166.919 363.015 166.066C360.303 157.413 357.784 149.28 356.049 142.573C356.049 142.573 356.049 142.573 356.049 142.573L354.867 138.26C354.752 150.598 353.933 163.437 353.396 171.839L353.393 171.882C353.393 171.882 353.393 171.882 353.393 171.882M353.004 178.27C353 178.377 353.004 178.794 353.014 179.502C353.096 185.612 353.461 213.637 349.121 236.408L349.112 236.459L349.065 236.484C348.027 237.027 346.984 237.183 346.035 237.125C344.745 237.042 343.618 236.559 342.88 236.08L342.832 236.049L342.831 235.991C342.749 229.411 342.528 219.956 341.909 209.877C341.275 199.573 340.214 188.585 338.447 179.274C338.302 178.511 335.64 163.248 335.486 142.603C335.41 132.288 335.962 120.627 337.769 108.758L337.791 108.615M353.004 178.27C353.081 176.82 353.198 174.973 353.336 172.789C353.355 172.493 353.374 172.19 353.393 171.882M337.961 108.933C336.173 120.739 335.626 132.336 335.702 142.602C335.856 163.231 338.516 178.48 338.659 179.233C340.428 188.558 341.49 199.556 342.124 209.864C342.742 219.917 342.964 229.35 343.046 235.93C343.759 236.382 344.83 236.831 346.049 236.909C346.95 236.965 347.936 236.819 348.919 236.316C353.244 213.579 352.88 185.612 352.798 179.505C352.789 178.802 352.784 178.375 352.789 178.26C352.865 176.809 352.982 174.959 353.12 172.775C353.139 172.479 353.158 172.177 353.178 171.869L353.18 171.827C353.728 163.247 354.571 150.047 354.657 137.48L354.662 136.698L356.258 142.518C357.991 149.219 360.508 157.347 363.221 166.002C363.489 166.854 363.758 167.712 364.028 168.573C366.503 176.46 369.089 184.702 371.354 192.636C376.205 209.618 380.046 224.693 381.899 231.966C382.314 233.596 382.629 234.833 382.834 235.613C383.592 236.075 384.779 236.279 386.019 236.251C387.258 236.223 388.495 235.954 389.353 235.498C389.39 213.29 386.313 187.086 381.54 163.818L381.538 163.812C378.234 141.261 374.463 121.317 371.087 110.231C365.762 111.682 359.421 112.659 352.993 112.382C347.88 112.158 342.711 111.14 337.961 108.933Z" fill="#404040"/>
<path fill-rule="evenodd" clip-rule="evenodd" d="M354.769 137.337C354.688 149.971 353.838 163.264 353.29 171.875C353.127 174.458 352.987 176.618 352.901 178.265C352.896 178.375 352.901 178.798 352.91 179.503C352.992 185.614 353.357 213.629 349.02 236.388C348.001 236.921 346.978 237.074 346.046 237.017C344.778 236.935 343.669 236.46 342.943 235.989C342.862 229.408 342.641 219.951 342.021 209.871C341.387 199.564 340.325 188.571 338.558 179.254C338.414 178.495 335.752 163.24 335.599 142.603C335.522 132.003 336.103 119.993 338.034 107.795L336.593 107.569C334.652 119.844 334.066 131.941 334.143 142.603C334.297 163.379 336.977 178.75 337.121 179.513C338.88 188.763 339.931 199.694 340.566 209.947C341.2 220.235 341.416 229.821 341.493 236.378L341.497 236.738L341.786 236.954C342.655 237.602 344.178 238.351 345.96 238.466C347.242 238.548 348.655 238.308 350.052 237.482L350.336 237.314L350.398 236.993C354.827 214.042 354.452 185.648 354.376 179.479C354.366 178.826 354.361 178.428 354.366 178.332C354.448 176.777 354.587 174.583 354.755 171.962C355.235 164.464 355.941 153.427 356.167 142.339L354.769 137.337Z" fill="#333333"/>
<path fill-rule="evenodd" clip-rule="evenodd" d="M346.364 123.367C347.295 124.203 348.347 124.947 349.515 125.494C350.72 126.056 352.056 126.416 353.506 126.459L354.097 126.478L354.164 127.059C356.057 143.284 361.182 159.366 367.235 178.342C372.403 194.553 378.244 212.876 383.331 235.212C384.234 235.62 385.214 235.721 386.17 235.654C387.083 235.586 387.981 235.361 388.769 235.087C388.601 228.467 388.221 218.454 387.366 207.816C386.761 200.265 385.92 192.421 384.748 185.302C384.585 184.318 384.426 183.382 384.263 182.489C384.1 181.587 383.927 180.699 383.754 179.83C383.614 179.148 383.432 178.289 383.249 177.454C382.769 175.231 382.327 173.196 382.077 170.661C381.909 168.947 381.722 167.181 381.52 165.381C381.314 163.532 381.097 161.761 380.881 160.057C379.68 150.711 378.143 141.638 376.409 133.299C374.608 124.649 372.591 116.805 370.511 110.296L371.803 109.888C373.897 116.455 375.929 124.342 377.735 133.026C379.479 141.379 381.021 150.49 382.226 159.889C382.462 161.723 382.678 163.508 382.875 165.232C383.067 166.945 383.254 168.712 383.432 170.531C383.667 172.951 384.104 174.967 384.58 177.161C384.729 177.852 384.883 178.567 385.084 179.561C385.262 180.439 385.435 181.337 385.598 182.244C385.771 183.209 385.939 184.15 386.088 185.077C387.265 192.258 388.115 200.135 388.721 207.706C389.595 218.583 390.632 229.327 390.796 235.985L390.805 236.465L390.354 236.638C388.173 237.463 383.586 237.977 381.938 235.908L381.871 235.601C376.774 213.159 371.121 195.004 365.938 178.745C359.933 159.908 354.837 143.918 352.877 127.774C351.45 127.659 350.139 127.275 348.933 126.713C347.608 126.094 346.421 125.254 345.388 124.313C344.471 123.478 345.446 122.542 346.364 123.367Z" fill="#333333"/>
<path fill-rule="evenodd" clip-rule="evenodd" d="M351.868 47.425C353.674 47.4682 355.702 46.9737 357.484 46.0472C357.681 45.9464 357.873 45.836 358.065 45.7208L357.642 37.2241C357.037 37.9394 356.441 38.5346 355.865 39.0291C352.123 42.2453 348.981 41.3573 348.77 41.2757C348.655 41.2324 348.54 41.1892 348.429 41.1412L347.8 45.7352C347.8 45.7352 347.8 45.74 347.805 45.74C348.655 46.8537 350.154 47.3865 351.868 47.425Z" fill="#FEFEFE"/>
<path fill-rule="evenodd" clip-rule="evenodd" d="M350.178 23.6007C351.662 20.0916 355.601 22.0934 355.615 23.9703C355.428 23.7639 354.602 23.2694 354.131 23.2118C353.968 25.3 351.47 25.7369 350.797 23.5095C350.528 23.4951 350.375 23.4807 350.178 23.6007ZM349.28 39.9076C349.433 39.9652 351.792 40.6085 354.919 37.9203C356.552 36.5185 358.353 34.224 360.107 30.5132C360.078 30.5228 360.044 30.5324 360.015 30.5421C359.554 30.6669 359.175 29.8316 359.938 29.5436C360.14 29.4668 360.342 29.3612 360.52 29.2363C360.899 28.9771 361.202 28.6555 361.384 28.3675C362.105 27.2394 362.292 25.9865 362.042 25.0744C361.946 24.724 361.783 24.4263 361.567 24.2247C361.365 24.0327 361.101 23.9175 360.784 23.9031C360.15 23.8743 359.309 24.2199 358.291 25.1272C357.724 25.6312 357.22 24.9832 357.494 24.5608L357.176 24.1143C357.239 22.151 357.176 20.538 357.018 19.2179C356.85 17.8402 356.576 16.8033 356.216 16.0449C355.985 15.5552 355.63 15.0752 355.197 14.6863C354.804 14.3263 354.352 14.0479 353.881 13.9039C353.324 13.7311 352.762 13.7743 352.21 13.9423C351.6 14.1295 350.985 14.4703 350.375 14.8736C350.067 15.0752 349.765 15.2912 349.472 15.5024C347.944 16.5969 346.729 17.4658 344.313 16.8225C343.986 16.7361 343.679 16.5729 343.415 16.3473C343.386 16.3233 343.357 16.2993 343.333 16.2753C342.896 16.9377 342.521 17.701 342.204 18.5411C341.133 21.4213 340.821 25.1512 341.416 28.7371C342.007 32.2942 343.487 35.6881 345.994 37.9299C346.94 38.7651 348.031 39.4468 349.28 39.9076ZM360.044 25.6072C359.439 25.7273 359.372 25.2232 360.006 25.1176C360.198 25.0888 360.371 25.0888 360.525 25.1272C360.779 25.1848 360.971 25.324 361.101 25.5256C361.221 25.7129 361.283 25.9529 361.283 26.2217C361.283 26.6681 361.111 27.225 360.75 27.7818C360.616 27.993 360.39 28.2331 360.121 28.4155C359.977 28.5163 359.818 28.5979 359.645 28.6555C359.232 28.7995 359.064 28.3819 359.578 28.1611C359.669 28.1226 359.761 28.0698 359.847 28.0122C360.063 27.8682 360.236 27.681 360.342 27.5178C360.649 27.0378 360.798 26.5817 360.798 26.2217C360.798 26.0441 360.765 25.8953 360.693 25.7897C360.63 25.6936 360.539 25.6312 360.419 25.6024C360.313 25.5784 360.188 25.5784 360.044 25.6072ZM341.685 23.4519C343.035 19.89 347.051 21.7429 347.137 23.6199C346.94 23.4231 346.1 22.9574 345.624 22.919C345.542 25.012 343.059 25.54 342.305 23.3415C342.036 23.3319 341.877 23.3271 341.685 23.4519ZM347.997 32.3422C350.788 34.5936 351.801 30.5997 352.291 29.9852C352.152 34.944 348.348 34.5984 347.997 32.3422ZM347.267 28.6027C347.594 28.7803 348.117 28.9627 349.275 28.9867C346.887 29.9324 346.047 28.8235 346.08 27.7914C346.119 26.3993 347.425 26.6777 347.161 24.4215C348.295 26.0057 345.735 27.7722 347.267 28.6027Z" fill="#FEFEFE"/>
<path fill-rule="evenodd" clip-rule="evenodd" d="M332.672 36.5015C338.228 36.4211 343.682 39.1904 346.801 44.2647C350.514 50.3112 349.807 57.8264 345.589 63.0405C350.257 70.6792 354.791 78.4009 359.597 85.9563C361.79 89.3956 361.24 92.1935 358.231 94.0406C356.647 95.0478 353.108 96.1635 350.589 92.0433C345.838 84.2716 341.082 76.5002 336.332 68.7285C329.769 70.1356 322.747 67.3689 319.034 61.3224C315.915 56.2422 315.917 50.1297 318.496 45.2064C319.819 47.3647 321.148 49.5228 322.471 51.6811C324.318 54.684 328.286 55.6347 331.288 53.7879C332.37 53.1232 333.452 52.4585 334.534 51.7939C337.537 49.947 338.488 45.9794 336.641 42.9706C335.324 40.8179 333.995 38.6599 332.672 36.5015Z" fill="#FF6F3D"/>
<path fill-rule="evenodd" clip-rule="evenodd" d="M345.589 63.0405C349.807 57.8264 350.514 50.3112 346.801 44.2647C344.021 39.7419 339.386 37.0502 334.477 36.5756C333.878 36.5177 333.276 36.4928 332.672 36.5015C332.981 37.0064 333.291 37.5113 333.601 38.0161C333.833 38.3943 334.066 38.7726 334.298 39.1507C335.081 40.4252 335.863 41.6988 336.641 42.9706C338.488 45.9794 337.537 49.947 334.534 51.7939L331.288 53.7879C328.286 55.6347 324.318 54.684 322.471 51.6811C321.809 50.602 321.146 49.5229 320.483 48.4438C320.131 47.8702 319.778 47.2966 319.426 46.723C319.116 46.2175 318.806 45.7119 318.496 45.2064C318.215 45.7422 317.965 46.2921 317.746 46.8532C315.954 51.4479 316.254 56.795 319.034 61.3224C322.747 67.3689 329.769 70.1356 336.332 68.7285C338.706 72.6137 341.083 76.4989 343.459 80.384C345.836 84.2704 348.213 88.1569 350.589 92.0433C353.108 96.1635 356.647 95.0478 358.231 94.0406C361.24 92.1935 361.79 89.3956 359.597 85.9563C356.376 80.8917 353.276 75.7525 350.177 70.6137C348.652 68.0862 347.128 65.5589 345.589 63.0405ZM351.869 91.261C352.905 92.9562 354.01 93.4009 354.878 93.4694C355.849 93.5459 356.807 93.1689 357.426 92.7748L357.436 92.7685L357.446 92.7623C358.695 91.9955 359.242 91.16 359.387 90.3354C359.539 89.4753 359.312 88.2991 358.333 86.7626L358.332 86.7614C355.101 81.6822 351.985 76.5159 348.88 71.3679C347.358 68.8442 345.838 66.325 344.309 63.8226L343.758 62.9198L344.423 62.0972C348.253 57.3617 348.893 50.5379 345.523 45.0501C343.22 41.3019 339.512 38.9378 335.491 38.2266C335.519 38.2722 335.547 38.3178 335.575 38.3634C336.358 39.6389 337.142 40.9149 337.92 42.1867C340.2 45.9015 339.028 50.7914 335.32 53.0715L332.074 55.0656C332.074 55.0657 332.074 55.0654 332.074 55.0656C328.364 57.3469 323.473 56.1735 321.193 52.4669L321.192 52.4651C320.531 51.3867 319.868 50.3083 319.205 49.2291L319.204 49.2274C319.057 48.9868 318.909 48.7462 318.761 48.5055C317.579 52.4152 318.009 56.7868 320.312 60.5374C323.682 66.025 330.057 68.5399 336.017 67.2618L337.057 67.0389L337.612 67.9462C339.987 71.8318 342.363 75.7174 344.74 79.6032L344.749 79.6182C347.123 83.499 349.496 87.3799 351.869 91.261Z" fill="#333333"/>
<path d="M361.759 84.3348C361.934 87.2394 355.869 91.1427 352.166 91.3661C348.462 91.5895 346.684 86.8644 346.509 83.9598C346.334 81.0552 351.306 79.9332 355.009 79.7099C358.713 79.4865 361.645 82.444 361.759 84.3348Z" fill="white"/>
<path fill-rule="evenodd" clip-rule="evenodd" d="M359.669 85.7095C360.174 85.0563 360.274 84.6257 360.262 84.4251C360.242 84.0863 359.849 83.2279 358.806 82.4105C357.83 81.6468 356.524 81.1213 355.1 81.2071C353.324 81.3142 351.334 81.635 349.86 82.2227C348.252 82.864 347.984 83.4885 348.007 83.8695C348.082 85.1173 348.512 86.778 349.293 88.0522C350.071 89.3214 350.998 89.9338 352.075 89.8688C353.553 89.7797 355.731 88.9021 357.558 87.6261C358.454 87.0006 359.186 86.3332 359.669 85.7095ZM352.166 91.3661C355.869 91.1427 361.934 87.2394 361.759 84.3348C361.645 82.444 358.713 79.4865 355.009 79.7099C351.306 79.9332 346.334 81.0552 346.509 83.9598C346.684 86.8644 348.462 91.5895 352.166 91.3661Z" fill="#333333"/>
<defs>
<clipPath id="clip0_16_16979">
<rect width="9" height="7" fill="white" transform="translate(26 26.2336)"/>
</clipPath>
</defs>
</svg>
