<svg width="224" height="120" viewBox="0 0 224 120" fill="none" xmlns="http://www.w3.org/2000/svg">
<path d="M39.7089 42C29.3747 42 21 50.4153 21 60.7934C21 61.0419 21.0087 61.2918 21.0205 61.5418C22.8251 57.9982 26.398 53.9221 31.4731 51.4623C31.4644 51.3489 31.454 51.2313 31.454 51.1121C31.454 48.7228 33.3815 46.7863 35.7621 46.7863C38.1395 46.7863 40.0669 48.7228 40.0669 51.1121C40.0669 53.5016 38.1395 55.4367 35.7619 55.4367C34.362 55.4367 33.12 54.7618 32.3337 53.7206C27.0658 56.8453 24.3346 63.2535 23.9547 70.9216C24.9464 72.4748 26.1607 73.8721 27.5582 75.0682C30.6167 67.7589 35.7242 62.5372 45.6038 59.2876C45.6023 59.229 45.595 59.1745 45.595 59.1156C45.595 56.7278 47.5225 54.791 49.9 54.791C52.279 54.791 54.2065 56.7292 54.2065 59.1156C54.2065 61.505 52.279 63.4401 49.9 63.4401C48.4752 63.4401 47.2156 62.7448 46.4324 61.6698C38.8 65.2002 33.9355 73.1096 33.7176 78.5914C35.6485 79.2491 37.6734 79.5839 39.7119 79.5824C50.0461 79.5824 58.4208 71.173 58.4208 60.7905C58.4179 50.4153 50.0447 42 39.7089 42Z" fill="#FFC200"/>
<path d="M82.2737 53.3073H76.2954V72.2818H71.8296V53.3073H65.8545V49.305H82.2735L82.2737 53.3073ZM101.393 64.4059C101.393 66.7983 100.591 68.7421 98.9852 70.2508C97.3763 71.7359 95.3773 72.477 92.9763 72.477C90.5753 72.477 88.5765 71.733 86.9676 70.251C85.3614 68.7436 84.5593 66.7983 84.5593 64.4059V49.305H89.0235V64.2457C89.0235 65.5619 89.3771 66.5928 90.083 67.3441C90.7886 68.0969 91.7546 68.4734 92.9763 68.4734C94.1951 68.4734 95.1623 68.0969 95.8683 67.3441C96.5958 66.5882 96.9584 65.5604 96.9584 64.2459V49.3052H101.392L101.393 64.4059ZM121.94 72.2816H116.771L112.302 63.1208H109.09V72.2816H104.626V49.305H113.589C115.86 49.305 117.679 49.9947 119.049 51.3722C120.358 52.684 121.013 54.3412 121.013 56.3395C121.013 57.8702 120.595 59.1788 119.759 60.2786C119.009 61.2463 118.035 61.9448 116.832 62.3756L121.94 72.2816ZM116.547 56.3393C116.547 55.4379 116.246 54.707 115.648 54.1468C115.046 53.5897 114.266 53.3103 113.303 53.3103H109.091V59.3772H113.303C114.267 59.3772 115.048 59.0978 115.648 58.5375C116.244 57.9758 116.547 57.2435 116.547 56.3393ZM142.859 72.2816H137.654L131.773 61.827L128.817 65.3781V72.2816H124.35V49.3052H128.817V59.3099L136.879 49.305H142.312L134.731 58.4392L142.859 72.2816ZM177.98 72.2816H162.91V49.3052H177.979V53.3078H167.379V58.6969H176.405V62.6978H167.379V68.2838H177.979L177.98 72.2816ZM194.688 72.282H180.836V49.305H185.299V68.2807H194.688V72.282ZM211 72.2816H196.688V49.3052H201.151V68.2809H211L211 72.2816ZM160.32 65.2593C159.93 67.6252 158.946 69.453 157.365 70.7336C155.873 71.9775 154.026 72.5952 151.819 72.5952C149.353 72.5952 147.275 71.7512 145.585 70.0529C145.41 69.8738 145.243 69.6869 145.084 69.4926C143.876 68.1942 143.005 66.5091 142.514 64.5784C142.274 63.5418 142.09 62.1419 142.09 60.6906C142.09 59.2172 142.239 57.6941 142.607 56.4352C143.613 53.096 145.508 50.2889 149.302 49.3271C150.088 49.1068 150.925 48.9978 151.819 48.9978C154.046 48.9978 155.917 49.6257 157.429 50.8859C158.967 52.1461 159.931 53.9605 160.321 56.3279H155.744C155.204 54.134 153.908 53.0386 151.852 53.0386C150.488 53.0386 149.373 53.3754 148.491 54.2694C147.324 55.456 146.522 57.297 146.522 60.623C146.522 62.7978 146.822 64.5063 147.219 65.3871C147.569 66.1915 148.002 66.8031 148.457 67.3061C149.606 68.3882 150.637 68.55 151.852 68.55C153.9 68.55 155.204 67.4531 155.745 65.2591L160.32 65.2593Z" fill="#137AC9"/>
</svg>
