
<svg width="170" height="64" viewBox="0 0 170 64" fill="none" xmlns="http://www.w3.org/2000/svg">
<path d="M40.6721 31.2752C40.6857 30.217 40.9668 29.1793 41.4892 28.2588C42.0116 27.3384 42.7584 26.565 43.66 26.0107C43.0872 25.1927 42.3316 24.5195 41.4532 24.0446C40.5747 23.5697 39.5976 23.3062 38.5995 23.2749C36.4703 23.0515 34.4062 24.549 33.3212 24.549C32.2153 24.549 30.5448 23.2971 28.7459 23.3341C27.5824 23.3717 26.4484 23.7101 25.4545 24.3162C24.4606 24.9224 23.6406 25.7756 23.0746 26.7929C20.6224 31.0384 22.4515 37.278 24.8005 40.7098C25.9757 42.3902 27.3492 44.2674 29.1465 44.2008C30.9052 44.1278 31.562 43.0793 33.6849 43.0793C35.7881 43.0793 36.4043 44.2008 38.238 44.1585C40.1252 44.1278 41.3142 42.4705 42.4482 40.7742C43.2926 39.5768 43.9424 38.2534 44.3735 36.8531C43.2771 36.3894 42.3414 35.6132 41.6832 34.6213C41.025 33.6294 40.6733 32.4657 40.6721 31.2752Z" fill="white"/>
<path d="M37.2086 21.0179C38.2375 19.7827 38.7445 18.195 38.6217 16.592C37.0497 16.7572 35.5976 17.5085 34.5547 18.6963C34.0448 19.2766 33.6543 19.9517 33.4055 20.683C33.1567 21.4143 33.0544 22.1875 33.1046 22.9583C33.8909 22.9664 34.6687 22.796 35.3796 22.4599C36.0905 22.1238 36.7159 21.6307 37.2086 21.0179Z" fill="white"/>
<path d="M62.9032 39.9467H56.9015L55.4603 44.2024H52.9182L58.6029 28.4573H61.244L66.9286 44.2024H64.3432L62.9032 39.9467ZM57.5231 37.9829H62.2804L59.9352 31.0761H59.8696L57.5231 37.9829Z" fill="white"/>
<path d="M79.2055 38.4634C79.2055 42.0307 77.2962 44.3226 74.4149 44.3226C73.685 44.3608 72.9591 44.1927 72.3203 43.8375C71.6815 43.4823 71.1557 42.9544 70.803 42.3142H70.7485V48.0001H68.3922V32.7231H70.673V34.6324H70.7163C71.0852 33.9953 71.6199 33.4701 72.2636 33.1128C72.9072 32.7554 73.6357 32.5792 74.3715 32.6029C77.285 32.603 79.2055 34.906 79.2055 38.4634ZM76.7836 38.4634C76.7836 36.1393 75.5825 34.6113 73.7499 34.6113C71.9496 34.6113 70.7386 36.1715 70.7386 38.4634C70.7386 40.7764 71.9496 42.3254 73.7499 42.3254C75.5825 42.3254 76.7836 40.8086 76.7836 38.4634Z" fill="white"/>
<path d="M91.8402 38.4634C91.8402 42.0307 89.9309 44.3226 87.0496 44.3226C86.3197 44.3608 85.5938 44.1927 84.955 43.8375C84.3162 43.4823 83.7904 42.9544 83.4377 42.3142H83.3832V48.0001H81.0269V32.723H83.3076V34.6324H83.351C83.7199 33.9953 84.2546 33.4701 84.8983 33.1128C85.5419 32.7554 86.2704 32.5792 87.0062 32.6029C89.9197 32.6029 91.8402 34.906 91.8402 38.4634ZM89.4183 38.4634C89.4183 36.1393 88.2172 34.6113 86.3846 34.6113C84.5843 34.6113 83.3733 36.1715 83.3733 38.4634C83.3733 40.7764 84.5843 42.3254 86.3846 42.3254C88.2172 42.3254 89.4183 40.8086 89.4183 38.4634H89.4183Z" fill="white"/>
<path d="M100.191 39.8155C100.365 41.3769 101.882 42.4021 103.955 42.4021C105.941 42.4021 107.37 41.3769 107.37 39.969C107.37 38.7469 106.508 38.0151 104.468 37.5136L102.427 37.0221C99.5358 36.3237 98.1935 34.9716 98.1935 32.7775C98.1935 30.0608 100.561 28.1948 103.923 28.1948C107.25 28.1948 109.531 30.0608 109.607 32.7775H107.229C107.086 31.2062 105.787 30.2577 103.889 30.2577C101.991 30.2577 100.692 31.2173 100.692 32.614C100.692 33.7272 101.522 34.3822 103.551 34.8836L105.286 35.3096C108.516 36.0735 109.859 37.3712 109.859 39.6743C109.859 42.62 107.512 44.4649 103.78 44.4649C100.289 44.4649 97.931 42.6633 97.7787 39.8154L100.191 39.8155Z" fill="white"/>
<path d="M114.944 30.0063V32.723H117.127V34.589H114.944V40.9175C114.944 41.9006 115.381 42.3588 116.341 42.3588C116.6 42.3542 116.859 42.3361 117.116 42.3042V44.1591C116.684 44.2397 116.246 44.2762 115.807 44.2681C113.483 44.2681 112.577 43.3951 112.577 41.1688V34.589H110.907V32.723H112.577V30.0063H114.944Z" fill="white"/>
<path d="M118.391 38.4633C118.391 34.8514 120.519 32.5818 123.836 32.5818C127.164 32.5818 129.281 34.8514 129.281 38.4633C129.281 42.0851 127.175 44.3448 123.836 44.3448C120.497 44.3448 118.391 42.0851 118.391 38.4633ZM126.88 38.4633C126.88 35.9856 125.745 34.5233 123.836 34.5233C121.926 34.5233 120.792 35.9968 120.792 38.4633C120.792 40.9509 121.926 42.4021 123.836 42.4021C125.745 42.4021 126.88 40.9509 126.88 38.4633H126.88Z" fill="white"/>
<path d="M131.224 32.7232H133.471V34.6771H133.526C133.678 34.0668 134.036 33.5275 134.538 33.1498C135.041 32.7722 135.659 32.5791 136.287 32.6031C136.559 32.6021 136.83 32.6316 137.095 32.691V34.895C136.752 34.7903 136.394 34.7422 136.036 34.7526C135.694 34.7387 135.352 34.7991 135.035 34.9295C134.719 35.06 134.434 35.2575 134.201 35.5084C133.967 35.7593 133.791 36.0577 133.684 36.3831C133.577 36.7086 133.542 37.0533 133.58 37.3937V44.2027H131.224L131.224 32.7232Z" fill="white"/>
<path d="M147.959 40.8308C147.642 42.9147 145.612 44.3448 143.016 44.3448C139.676 44.3448 137.603 42.1074 137.603 38.5178C137.603 34.9171 139.687 32.5818 142.917 32.5818C146.093 32.5818 148.09 34.7635 148.09 38.2441V39.0515H139.982V39.1938C139.945 39.6163 139.997 40.0419 140.137 40.4424C140.277 40.8428 140.5 41.209 140.792 41.5165C141.084 41.8241 141.438 42.0659 141.831 42.2261C142.224 42.3862 142.646 42.461 143.07 42.4454C143.627 42.4976 144.186 42.3686 144.663 42.0777C145.141 41.7868 145.512 41.3494 145.721 40.8308L147.959 40.8308ZM139.993 37.4046H145.732C145.753 37.0248 145.696 36.6446 145.563 36.2881C145.43 35.9315 145.225 35.6062 144.961 35.3327C144.697 35.0591 144.379 34.8431 144.027 34.6983C143.675 34.5535 143.297 34.4829 142.917 34.4911C142.533 34.4888 142.152 34.5625 141.797 34.708C141.442 34.8535 141.12 35.0679 140.848 35.3388C140.576 35.6096 140.361 35.9316 140.214 36.2862C140.067 36.6408 139.992 37.0209 139.993 37.4046V37.4046Z" fill="white"/>
<path d="M59.2139 24.1709H54.4951V16.6055H55.6702V23.0906H59.2139V24.1709Z" fill="white"/>
<path d="M60.4014 22.5563C60.4014 21.5286 61.1666 20.9361 62.5249 20.8519L64.0714 20.7627V20.2699C64.0714 19.6669 63.6727 19.3264 62.9026 19.3264C62.2736 19.3264 61.8377 19.5573 61.7126 19.961H60.6218C60.7369 18.9803 61.6594 18.3513 62.9546 18.3513C64.3859 18.3513 65.1933 19.0639 65.1933 20.2699V24.1709H64.1086V23.3686H64.0194C63.8385 23.6564 63.5844 23.891 63.2831 24.0485C62.9818 24.206 62.6441 24.2807 62.3045 24.265C62.0648 24.2899 61.8226 24.2643 61.5934 24.1899C61.3642 24.1155 61.1531 23.9939 60.9738 23.8329C60.7945 23.6719 60.6509 23.4751 60.5523 23.2552C60.4537 23.0354 60.4023 22.7973 60.4014 22.5563ZM64.0714 22.0684V21.5911L62.6772 21.6802C61.8909 21.7329 61.5343 22.0003 61.5343 22.5037C61.5343 23.0175 61.98 23.3165 62.593 23.3165C62.7726 23.3347 62.954 23.3166 63.1265 23.2632C63.2989 23.2099 63.4589 23.1224 63.5968 23.0059C63.7348 22.8895 63.8479 22.7465 63.9294 22.5854C64.0109 22.4243 64.0592 22.2485 64.0714 22.0684Z" fill="white"/>
<path d="M66.6742 21.3137C66.6742 19.5096 67.6016 18.3667 69.0441 18.3667C69.401 18.3503 69.7551 18.4358 70.0651 18.6131C70.3752 18.7905 70.6283 19.0525 70.795 19.3684H70.8792V16.2327H72.0059V24.1708H70.9262V23.2688H70.8371C70.6575 23.5826 70.3955 23.8413 70.0795 24.0169C69.7635 24.1925 69.4054 24.2783 69.0441 24.2649C67.5917 24.265 66.6742 23.1221 66.6742 21.3137ZM67.8382 21.3137C67.8382 22.5247 68.409 23.2534 69.3636 23.2534C70.3133 23.2534 70.9003 22.5142 70.9003 21.3187C70.9003 20.1287 70.3072 19.379 69.3636 19.379C68.4151 19.379 67.8381 20.1126 67.8381 21.3137H67.8382Z" fill="white"/>
<path d="M78.6824 22.6294C78.5293 23.1512 78.1976 23.6026 77.7454 23.9046C77.2931 24.2065 76.7491 24.3398 76.2084 24.2812C75.8323 24.2911 75.4585 24.2191 75.113 24.0701C74.7675 23.9211 74.4585 23.6986 74.2076 23.4182C73.9566 23.1379 73.7697 22.8062 73.6598 22.4464C73.5499 22.0865 73.5196 21.707 73.571 21.3343C73.521 20.9604 73.5518 20.5801 73.6614 20.2191C73.7711 19.8582 73.957 19.525 74.2066 19.2422C74.4563 18.9593 74.7637 18.7334 75.1082 18.5798C75.4527 18.4261 75.8263 18.3482 76.2035 18.3514C77.7921 18.3514 78.7505 19.4368 78.7505 21.2296V21.6228H74.7189V21.6859C74.7012 21.8955 74.7276 22.1063 74.7962 22.3051C74.8648 22.5038 74.9742 22.6861 75.1174 22.8401C75.2605 22.9941 75.4343 23.1164 75.6275 23.1994C75.8207 23.2823 76.0291 23.3239 76.2394 23.3216C76.5089 23.3539 76.782 23.3054 77.0239 23.1821C77.2657 23.0589 77.4655 22.8665 77.5977 22.6294L78.6824 22.6294ZM74.7188 20.7895H77.6026C77.6168 20.5978 77.5908 20.4054 77.5262 20.2244C77.4616 20.0435 77.3598 19.878 77.2275 19.7387C77.0951 19.5994 76.9351 19.4894 76.7577 19.4156C76.5802 19.3418 76.3894 19.306 76.1973 19.3104C76.0024 19.308 75.809 19.3446 75.6285 19.418C75.4479 19.4915 75.284 19.6004 75.1462 19.7382C75.0084 19.876 74.8996 20.0401 74.8262 20.2206C74.7528 20.4012 74.7163 20.5946 74.7189 20.7895H74.7188Z" fill="white"/>
<path d="M80.2636 18.4615H81.3483V19.3685H81.4324C81.5753 19.0428 81.8162 18.7697 82.1216 18.5874C82.427 18.405 82.7817 18.3225 83.1362 18.3513C83.414 18.3304 83.693 18.3723 83.9524 18.4739C84.2118 18.5754 84.445 18.7341 84.6348 18.938C84.8246 19.1419 84.9661 19.386 85.0487 19.652C85.1314 19.918 85.1532 20.1993 85.1124 20.4749V24.1709H83.9856V20.7578C83.9856 19.8403 83.5869 19.384 82.7536 19.384C82.565 19.3752 82.3767 19.4073 82.2017 19.4781C82.0266 19.5489 81.8689 19.6567 81.7395 19.7941C81.61 19.9315 81.5117 20.0953 81.4515 20.2743C81.3912 20.4532 81.3703 20.6431 81.3903 20.8309V24.1709H80.2635L80.2636 18.4615Z" fill="white"/>
<path d="M89.8052 16.7734C89.7966 16.6274 89.8319 16.4822 89.9067 16.3566C89.9814 16.231 90.0922 16.1307 90.2246 16.0688C90.3571 16.0068 90.505 15.9861 90.6494 16.0092C90.7938 16.0323 90.9278 16.0983 91.0343 16.1985C91.1407 16.2987 91.2146 16.4285 91.2464 16.5712C91.2782 16.7139 91.2664 16.8629 91.2126 16.9988C91.1587 17.1347 91.0653 17.2514 90.9444 17.3336C90.8235 17.4158 90.6808 17.4598 90.5346 17.4599C90.4411 17.4647 90.3477 17.4505 90.2598 17.4183C90.172 17.386 90.0916 17.3363 90.0235 17.2722C89.9554 17.208 89.9009 17.1308 89.8634 17.0451C89.8259 16.9593 89.8061 16.8669 89.8052 16.7734ZM89.9736 18.4617H91.0955V24.1711H89.9736V18.4617Z" fill="white"/>
<path d="M92.9138 18.4616H93.9985V19.3791H94.0827C94.2185 19.0732 94.4401 18.8133 94.7206 18.6309C95.0012 18.4484 95.3286 18.3513 95.6633 18.3513C95.9979 18.3513 96.3254 18.4484 96.6059 18.6309C96.8865 18.8133 97.1081 19.0732 97.2439 19.3791H97.333C97.4924 19.0586 97.7411 18.791 98.0491 18.6087C98.3571 18.4263 98.7113 18.3369 99.069 18.3514C99.3192 18.3309 99.5708 18.3662 99.8057 18.4547C100.041 18.5432 100.253 18.6827 100.427 18.8633C100.602 19.0438 100.734 19.2607 100.815 19.4985C100.895 19.7363 100.922 19.989 100.893 20.2384V24.171H99.7661V20.5325C99.7661 19.7617 99.3984 19.3841 98.6592 19.3841C98.4999 19.3772 98.341 19.4034 98.1924 19.4609C98.0437 19.5185 97.9086 19.6061 97.7954 19.7184C97.6823 19.8307 97.5936 19.9651 97.5349 20.1133C97.4762 20.2615 97.4488 20.4203 97.4544 20.5796V24.171H96.3475V20.4223C96.3546 20.2786 96.3305 20.1352 96.2768 20.0017C96.2231 19.8683 96.1411 19.7481 96.0365 19.6494C95.9318 19.5507 95.807 19.4759 95.6707 19.4301C95.5344 19.3843 95.3897 19.3686 95.2467 19.384C95.0815 19.3868 94.9186 19.4228 94.7676 19.49C94.6166 19.5572 94.4808 19.6541 94.3682 19.775C94.2556 19.896 94.1685 20.0384 94.1123 20.1937C94.056 20.3491 94.0317 20.5142 94.0407 20.6792V24.171H92.914L92.9138 18.4616Z" fill="white"/>
</svg>
