<svg width="640" height="500" viewBox="0 0 640 500" fill="none" xmlns="http://www.w3.org/2000/svg">
<g clip-path="url(#clip0_490_93885)">
<path d="M46.7238 424.875C50.5499 428.679 50.6829 434.792 47.1099 438.756L39.974 431.665L30.4669 422.213C26.6094 418.378 20.4483 418.276 16.4679 421.893L16.0891 422.255C12.2541 426.112 12.1518 432.274 15.7695 436.255L16.1309 436.632L25.1512 445.599L25.1317 445.609L25.6126 446.1L25.6332 446.121L25.6381 446.126L32.7524 453.198C28.9471 456.669 23.1148 456.69 19.2847 453.249L18.9087 452.894L9.3811 443.422C1.77036 435.855 1.61618 423.625 8.94545 415.87L9.29986 415.505C16.8664 407.894 29.0963 407.739 36.8514 415.068L37.2177 415.424L46.7238 424.875ZM56.6863 469.364L25.5825 438.441L32.3323 431.652L63.4361 462.575L56.6863 469.364ZM79.6355 457.595C87.2462 465.162 87.4009 477.392 80.0722 485.147L79.7168 485.513C72.15 493.124 59.9203 493.278 52.1652 485.949L51.7999 485.594L42.2929 476.142C38.4662 472.338 38.3342 466.224 41.9087 462.26L49.0427 469.353L58.5497 478.805C62.4073 482.64 68.5693 482.742 72.5497 479.125L72.9276 478.763C76.7627 474.906 76.8649 468.744 73.2472 464.763L72.8857 464.385L63.8664 455.417L63.885 455.409L63.404 454.917L63.3845 454.896L63.3796 454.892L56.2662 447.818C60.0717 444.349 65.9033 444.328 69.7329 447.769L70.1079 448.123L79.6355 457.595Z" fill="#F2F2F2" stroke="#AAAAAA"/>
<path d="M349.769 208.217C350.448 208.748 351.446 209.514 352.727 210.45C355.287 212.323 358.974 214.884 363.488 217.638C372.23 222.97 384.092 229.039 396.878 232.227L398.118 232.526C403.106 233.691 408.227 234.401 413.353 234.449C412.126 239.101 411.112 243.567 410.246 247.858L409.867 249.768C408.817 255.17 407.989 260.295 407.244 265.164L406.521 269.949C404.03 286.56 402.002 300.032 394.4 311.693C386.829 323.31 373.678 333.19 348.814 342.467C324.468 333.918 311.345 323.766 303.754 311.981C296.609 300.89 294.323 288.298 292.279 274.047L291.872 271.175C291.002 264.979 290.078 258.392 288.706 251.363L288.426 249.951C287.44 245.074 286.227 239.986 284.664 234.667C289.718 234.596 294.853 233.814 299.903 232.556L299.902 232.555C315.549 229.276 327.915 222.983 336.371 217.508C340.601 214.769 343.854 212.234 346.052 210.382C347.151 209.456 347.986 208.7 348.548 208.175C348.766 207.971 348.942 207.8 349.077 207.669C349.248 207.806 349.479 207.99 349.769 208.217Z" fill="url(#paint0_linear_490_93885)" stroke="#E2E2E2"/>
<path d="M349.487 252.156C351.018 252.221 352.508 252.653 353.835 253.412L354.099 253.569C355.403 254.372 356.495 255.475 357.283 256.785L357.437 257.05C358.184 258.388 358.599 259.884 358.648 261.412L358.653 261.719V262.006C358.633 263.315 358.337 264.606 357.783 265.792L357.66 266.045C356.986 267.384 355.998 268.539 354.781 269.413L354.521 269.601L354.582 269.916L359.601 295.471C357.163 298.014 353.104 299.479 348.986 299.638C344.867 299.797 340.828 298.646 338.399 296.133L343.581 269.916L343.643 269.606L343.388 269.417C342.157 268.506 341.163 267.313 340.489 265.941L340.359 265.663C339.729 264.267 339.442 262.741 339.523 261.214L339.545 260.908C339.675 259.382 340.169 257.91 340.984 256.616L341.152 256.36C342.01 255.09 343.159 254.046 344.501 253.315L344.772 253.173C346.14 252.483 347.652 252.133 349.181 252.149L349.487 252.156Z" fill="white" stroke="#E2E2E2"/>
<g filter="url(#filter0_d_490_93885)">
<g clip-path="url(#clip1_490_93885)">
<rect x="50" y="56" width="540" height="388" rx="5" fill="white"/>
<rect width="383" height="48" transform="translate(205 56)" fill="white"/>
<rect width="40" height="48" transform="translate(225 56)" fill="white"/>
<path d="M232.157 82.2246C232.157 82.8171 232.014 83.332 231.727 83.7695C231.439 84.207 231.02 84.5443 230.469 84.7812C229.922 85.0182 229.257 85.1367 228.473 85.1367C228.126 85.1367 227.787 85.1139 227.454 85.0684C227.126 85.0228 226.809 84.9567 226.504 84.8701C226.203 84.779 225.916 84.6673 225.643 84.5352V82.5664C226.117 82.776 226.609 82.9652 227.119 83.1338C227.63 83.3024 228.135 83.3867 228.637 83.3867C228.983 83.3867 229.261 83.3411 229.471 83.25C229.685 83.1589 229.84 83.0335 229.936 82.874C230.031 82.7145 230.079 82.5322 230.079 82.3271C230.079 82.0765 229.995 81.8623 229.826 81.6846C229.658 81.5068 229.425 81.3405 229.129 81.1855C228.837 81.0306 228.507 80.8643 228.138 80.6865C227.905 80.5771 227.652 80.445 227.379 80.29C227.105 80.1305 226.846 79.9368 226.6 79.709C226.354 79.4811 226.151 79.2054 225.991 78.8818C225.836 78.5537 225.759 78.1618 225.759 77.7061C225.759 77.109 225.896 76.5986 226.169 76.1748C226.442 75.751 226.832 75.4274 227.338 75.2041C227.848 74.9762 228.45 74.8623 229.143 74.8623C229.662 74.8623 230.157 74.9238 230.626 75.0469C231.1 75.1654 231.594 75.3385 232.109 75.5664L231.426 77.2139C230.965 77.027 230.553 76.8835 230.188 76.7832C229.824 76.6784 229.452 76.626 229.074 76.626C228.81 76.626 228.584 76.6693 228.397 76.7559C228.211 76.8379 228.069 76.9564 227.974 77.1113C227.878 77.2617 227.83 77.4372 227.83 77.6377C227.83 77.8747 227.898 78.0752 228.035 78.2393C228.176 78.3988 228.386 78.5537 228.664 78.7041C228.947 78.8545 229.298 79.0299 229.717 79.2305C230.227 79.472 230.662 79.7249 231.022 79.9893C231.387 80.249 231.667 80.5566 231.863 80.9121C232.059 81.263 232.157 81.7005 232.157 82.2246ZM236.936 77.2002C237.961 77.2002 238.747 77.4235 239.294 77.8701C239.841 78.3167 240.114 78.9958 240.114 79.9072V85H238.658L238.255 83.9609H238.2C237.981 84.2344 237.758 84.4577 237.53 84.6309C237.302 84.804 237.04 84.9316 236.744 85.0137C236.448 85.0957 236.088 85.1367 235.664 85.1367C235.213 85.1367 234.807 85.0501 234.447 84.877C234.092 84.7038 233.812 84.4395 233.606 84.084C233.401 83.724 233.299 83.2682 233.299 82.7168C233.299 81.9056 233.584 81.3086 234.153 80.9258C234.723 80.5384 235.577 80.3242 236.717 80.2832L238.043 80.2422V79.9072C238.043 79.5062 237.938 79.2122 237.729 79.0254C237.519 78.8385 237.227 78.7451 236.854 78.7451C236.484 78.7451 236.122 78.7975 235.767 78.9023C235.411 79.0072 235.056 79.1393 234.7 79.2988L234.01 77.8906C234.415 77.6764 234.869 77.5078 235.37 77.3848C235.876 77.2617 236.398 77.2002 236.936 77.2002ZM238.043 81.459L237.236 81.4863C236.562 81.5046 236.092 81.6253 235.828 81.8486C235.568 82.0719 235.438 82.3659 235.438 82.7305C235.438 83.0495 235.532 83.2773 235.719 83.4141C235.906 83.5462 236.149 83.6123 236.45 83.6123C236.897 83.6123 237.273 83.4801 237.578 83.2158C237.888 82.9515 238.043 82.5755 238.043 82.0879V81.459ZM244.353 85H242.268V74.3633H244.353V85ZM248.632 85H246.547V74.3633H248.632V85ZM253.978 77.2139C254.684 77.2139 255.292 77.3506 255.803 77.624C256.313 77.8929 256.707 78.2848 256.985 78.7998C257.263 79.3148 257.402 79.9437 257.402 80.6865V81.6982H252.474C252.496 82.2861 252.672 82.7487 253 83.0859C253.333 83.4186 253.793 83.585 254.381 83.585C254.868 83.585 255.315 83.5348 255.721 83.4346C256.126 83.3343 256.543 83.1839 256.972 82.9834V84.5967C256.593 84.7835 256.197 84.9202 255.782 85.0068C255.372 85.0934 254.873 85.1367 254.285 85.1367C253.52 85.1367 252.84 84.9954 252.248 84.7129C251.66 84.4303 251.198 83.9997 250.86 83.4209C250.528 82.8421 250.361 82.113 250.361 81.2334C250.361 80.3402 250.512 79.5973 250.812 79.0049C251.118 78.4079 251.542 77.9613 252.084 77.665C252.626 77.3643 253.257 77.2139 253.978 77.2139ZM253.991 78.6973C253.586 78.6973 253.248 78.8271 252.979 79.0869C252.715 79.3467 252.562 79.7546 252.521 80.3105H255.447C255.443 80.0007 255.386 79.7249 255.276 79.4834C255.172 79.2419 255.012 79.0505 254.798 78.9092C254.588 78.7679 254.319 78.6973 253.991 78.6973ZM264.43 82.7305C264.43 83.25 264.307 83.6898 264.061 84.0498C263.819 84.4053 263.457 84.6764 262.974 84.8633C262.491 85.0456 261.889 85.1367 261.169 85.1367C260.636 85.1367 260.178 85.1025 259.795 85.0342C259.417 84.9658 259.034 84.8519 258.646 84.6924V82.9697C259.061 83.1566 259.506 83.3115 259.979 83.4346C260.458 83.5531 260.877 83.6123 261.237 83.6123C261.643 83.6123 261.932 83.5531 262.105 83.4346C262.283 83.3115 262.372 83.152 262.372 82.9561C262.372 82.8285 262.336 82.7145 262.263 82.6143C262.194 82.5094 262.044 82.3932 261.812 82.2656C261.579 82.1335 261.215 81.9626 260.718 81.7529C260.239 81.5524 259.845 81.3496 259.535 81.1445C259.23 80.9395 259.002 80.6979 258.852 80.4199C258.706 80.1374 258.633 79.7796 258.633 79.3467C258.633 78.6403 258.906 78.1094 259.453 77.7539C260.005 77.3939 260.741 77.2139 261.661 77.2139C262.135 77.2139 262.586 77.2617 263.015 77.3574C263.448 77.4531 263.892 77.6058 264.348 77.8154L263.719 79.3193C263.34 79.1553 262.983 79.0208 262.646 78.916C262.313 78.8112 261.973 78.7588 261.627 78.7588C261.322 78.7588 261.091 78.7998 260.937 78.8818C260.782 78.9639 260.704 79.0892 260.704 79.2578C260.704 79.3809 260.743 79.4902 260.82 79.5859C260.902 79.6816 261.057 79.7887 261.285 79.9072C261.518 80.0212 261.857 80.1693 262.304 80.3516C262.737 80.5293 263.113 80.7161 263.432 80.9121C263.751 81.1035 263.997 81.3428 264.17 81.6299C264.343 81.9124 264.43 82.2793 264.43 82.7305Z" fill="#333333"/>
<rect width="259" height="48" transform="translate(265 56)" fill="white"/>
<path fill-rule="evenodd" clip-rule="evenodd" d="M281.5 72.5C280.672 72.5 280 73.1716 280 74V78.5H275.5C274.672 78.5 274 79.1716 274 80C274 80.8284 274.672 81.5 275.5 81.5H280V86C280 86.8284 280.672 87.5 281.5 87.5C282.328 87.5 283 86.8284 283 86V81.5H287.5C288.328 81.5 289 80.8284 289 80C289 79.1716 288.328 78.5 287.5 78.5H283V74C283 73.1716 282.328 72.5 281.5 72.5Z" fill="#A3A9AE"/>
<rect width="44" height="48" transform="translate(524 56)" fill="white"/>
<path fill-rule="evenodd" clip-rule="evenodd" d="M544 75.5C544 74.6716 544.672 74 545.5 74H558.5C559.328 74 560 74.6716 560 75.5V84.5C560 85.3284 559.328 86 558.5 86H545.5C544.672 86 544 85.3284 544 84.5V75.5ZM546 77C546 76.4477 546.448 76 547 76H553V84H547C546.448 84 546 83.5523 546 83V77ZM555 84H557C557.552 84 558 83.5523 558 83V77C558 76.4477 557.552 76 557 76H555V84Z" fill="#A3A9AE"/>
<g clip-path="url(#clip2_490_93885)">
<rect x="225" y="153" width="165" height="82" rx="9" fill="white"/>
<path fill-rule="evenodd" clip-rule="evenodd" d="M239 164.25H251C252.657 164.25 254 165.593 254 167.25V179.25C254 180.907 252.657 182.25 251 182.25H239C237.343 182.25 236 180.907 236 179.25V167.25C236 165.593 237.343 164.25 239 164.25ZM235 167.25C235 165.041 236.791 163.25 239 163.25H251C253.209 163.25 255 165.041 255 167.25V179.25C255 181.459 253.209 183.25 251 183.25H239C236.791 183.25 235 181.459 235 179.25V167.25Z" fill="#9ADAF3"/>
<rect x="263" y="170.75" width="93" height="5" rx="2.5" fill="#EFEFEF"/>
<g clip-path="url(#clip3_490_93885)">
<path fill-rule="evenodd" clip-rule="evenodd" d="M370 167.25C370 166.145 370.895 165.25 372 165.25C373.105 165.25 374 166.145 374 167.25C374 168.355 373.105 169.25 372 169.25C370.895 169.25 370 168.355 370 167.25ZM370 173.25C370 172.145 370.895 171.25 372 171.25C373.105 171.25 374 172.145 374 173.25C374 174.355 373.105 175.25 372 175.25C370.895 175.25 370 174.355 370 173.25ZM372 177.25C370.895 177.25 370 178.145 370 179.25C370 180.355 370.895 181.25 372 181.25C373.105 181.25 374 180.355 374 179.25C374 178.145 373.105 177.25 372 177.25Z" fill="#A3A9AE"/>
</g>
<rect x="225" y="193.5" width="165" height="1" fill="#D0D5DA"/>
<rect x="235" y="204.5" width="24" height="20" rx="3" fill="#F3F4F4"/>
<rect x="263" y="204.5" width="54" height="20" rx="3" fill="#F3F4F4"/>
</g>
<rect x="225.5" y="153.5" width="164" height="81" rx="8.5" stroke="#D0D5DA"/>
<g clip-path="url(#clip4_490_93885)">
<rect x="402" y="153" width="165" height="82" rx="9" fill="white"/>
<path fill-rule="evenodd" clip-rule="evenodd" d="M416 164.25H428C429.657 164.25 431 165.593 431 167.25V179.25C431 180.907 429.657 182.25 428 182.25H416C414.343 182.25 413 180.907 413 179.25V167.25C413 165.593 414.343 164.25 416 164.25ZM412 167.25C412 165.041 413.791 163.25 416 163.25H428C430.209 163.25 432 165.041 432 167.25V179.25C432 181.459 430.209 183.25 428 183.25H416C413.791 183.25 412 181.459 412 179.25V167.25Z" fill="#27ABA3"/>
<rect x="440" y="170.75" width="68" height="5" rx="2.5" fill="#EFEFEF"/>
<rect x="516" y="167.25" width="17" height="12" rx="6" fill="#2DB382"/>
<g clip-path="url(#clip5_490_93885)">
<path fill-rule="evenodd" clip-rule="evenodd" d="M547 167.25C547 166.145 547.895 165.25 549 165.25C550.105 165.25 551 166.145 551 167.25C551 168.355 550.105 169.25 549 169.25C547.895 169.25 547 168.355 547 167.25ZM547 173.25C547 172.145 547.895 171.25 549 171.25C550.105 171.25 551 172.145 551 173.25C551 174.355 550.105 175.25 549 175.25C547.895 175.25 547 174.355 547 173.25ZM549 177.25C547.895 177.25 547 178.145 547 179.25C547 180.355 547.895 181.25 549 181.25C550.105 181.25 551 180.355 551 179.25C551 178.145 550.105 177.25 549 177.25Z" fill="#A3A9AE"/>
</g>
<rect x="402" y="193.5" width="165" height="1" fill="#D0D5DA"/>
<rect x="412" y="204.5" width="36" height="20.5" rx="3" fill="#F3F4F4"/>
</g>
<rect x="402.5" y="153.5" width="164" height="81" rx="8.5" stroke="#D0D5DA"/>
<g clip-path="url(#clip6_490_93885)">
<rect x="225" y="247" width="165" height="82" rx="9" fill="white"/>
<path fill-rule="evenodd" clip-rule="evenodd" d="M237.66 276.235L237.469 276.696C237.94 276.892 238.458 277 239 277H242V276.5V276H239C238.591 276 238.204 275.919 237.852 275.773L237.66 276.235ZM248 276.5V277H251C251.542 277 252.06 276.892 252.531 276.696L252.34 276.235L252.148 275.773C251.796 275.919 251.409 276 251 276H248V276.5ZM254.5 264H255V261C255 260.458 254.892 259.94 254.696 259.469L254.235 259.66L253.773 259.852C253.919 260.204 254 260.591 254 261V264H254.5ZM239 257H242V257.5V258H239C238.591 258 238.204 258.081 237.852 258.227L237.66 257.765L237.469 257.304C237.94 257.108 238.458 257 239 257ZM235.5 270H235V273C235 273.542 235.108 274.06 235.304 274.531L235.765 274.34L236.227 274.148C236.081 273.796 236 273.409 236 273V270H235.5ZM235.5 264H235V261C235 260.458 235.108 259.94 235.304 259.469L235.765 259.66L236.227 259.852C236.081 260.204 236 260.591 236 261V264H235.5ZM248 257.5V257H251C251.542 257 252.06 257.108 252.531 257.304L252.34 257.765L252.148 258.227C251.796 258.081 251.409 258 251 258H248V257.5ZM254.5 270H255V273C255 273.542 254.892 274.06 254.696 274.531L254.235 274.34L253.773 274.148C253.919 273.796 254 273.409 254 273V270H254.5Z" fill="#F2557C"/>
<path fill-rule="evenodd" clip-rule="evenodd" d="M251 258H239C237.343 258 236 259.343 236 261V273C236 274.657 237.343 276 239 276H251C252.657 276 254 274.657 254 273V261C254 259.343 252.657 258 251 258ZM239 257C236.791 257 235 258.791 235 261V273C235 275.209 236.791 277 239 277H251C253.209 277 255 275.209 255 273V261C255 258.791 253.209 257 251 257H239Z" fill="#F2557C"/>
<rect x="263" y="264" width="68" height="6" rx="3" fill="#EFEFEF"/>
<rect x="339" y="261" width="17" height="12" rx="6" fill="#2DB382"/>
<path fill-rule="evenodd" clip-rule="evenodd" d="M370 261C370 259.895 370.895 259 372 259C373.105 259 374 259.895 374 261C374 262.105 373.105 263 372 263C370.895 263 370 262.105 370 261ZM370 267C370 265.895 370.895 265 372 265C373.105 265 374 265.895 374 267C374 268.105 373.105 269 372 269C370.895 269 370 268.105 370 267ZM372 271C370.895 271 370 271.895 370 273C370 274.105 370.895 275 372 275C373.105 275 374 274.105 374 273C374 271.895 373.105 271 372 271Z" fill="#A3A9AE"/>
<rect x="225" y="287" width="165" height="1" fill="#D0D5DA"/>
<rect x="235" y="298" width="54" height="20" rx="3" fill="#F3F4F4"/>
<rect x="293" y="298" width="54" height="20" rx="3" fill="#F3F4F4"/>
</g>
<rect x="225.5" y="247.5" width="164" height="81" rx="8.5" stroke="#D0D5DA"/>
<g clip-path="url(#clip7_490_93885)">
<rect x="402" y="247" width="165" height="82" rx="9" fill="white"/>
<path fill-rule="evenodd" clip-rule="evenodd" d="M414.469 276.946L414.852 276.023C415.204 276.169 415.591 276.25 416 276.25H417.5V277.25H416C415.458 277.25 414.94 277.142 414.469 276.946ZM426.5 277.25V276.25H428C428.409 276.25 428.796 276.169 429.148 276.023L429.531 276.946C429.06 277.142 428.542 277.25 428 277.25H426.5ZM432 262.75H431V261.25C431 260.841 430.919 260.454 430.773 260.102L431.696 259.719C431.892 260.19 432 260.708 432 261.25V262.75ZM417.5 257.25H416C415.458 257.25 414.94 257.358 414.469 257.554L414.852 258.477C415.204 258.331 415.591 258.25 416 258.25H417.5V257.25ZM412 271.75H413V273.25C413 273.659 413.081 274.046 413.227 274.398L412.304 274.781C412.108 274.31 412 273.792 412 273.25V271.75ZM412 268.75H413V265.75H412V268.75ZM412 262.75H413V261.25C413 260.841 413.081 260.454 413.227 260.102L412.304 259.719C412.108 260.19 412 260.708 412 261.25V262.75ZM420.5 257.25V258.25H423.5V257.25H420.5ZM426.5 257.25V258.25H428C428.409 258.25 428.796 258.331 429.148 258.477L429.531 257.554C429.06 257.358 428.542 257.25 428 257.25H426.5ZM432 265.75H431V268.75H432V265.75ZM432 271.75H431V273.25C431 273.659 430.919 274.046 430.773 274.398L431.696 274.781C431.892 274.31 432 273.792 432 273.25V271.75ZM423.5 277.25V276.25H420.5V277.25H423.5Z" fill="#FBC90A"/>
<rect x="440" y="264.75" width="68" height="5" rx="2.5" fill="#EFEFEF"/>
<rect x="516" y="261.25" width="17" height="12" rx="6" fill="#2DB382"/>
<g clip-path="url(#clip8_490_93885)">
<path fill-rule="evenodd" clip-rule="evenodd" d="M547 261.25C547 260.145 547.895 259.25 549 259.25C550.105 259.25 551 260.145 551 261.25C551 262.355 550.105 263.25 549 263.25C547.895 263.25 547 262.355 547 261.25ZM547 267.25C547 266.145 547.895 265.25 549 265.25C550.105 265.25 551 266.145 551 267.25C551 268.355 550.105 269.25 549 269.25C547.895 269.25 547 268.355 547 267.25ZM549 271.25C547.895 271.25 547 272.145 547 273.25C547 274.355 547.895 275.25 549 275.25C550.105 275.25 551 274.355 551 273.25C551 272.145 550.105 271.25 549 271.25Z" fill="#A3A9AE"/>
</g>
<rect x="402" y="287.5" width="165" height="1" fill="#D0D5DA"/>
<rect x="412" y="298.5" width="54" height="20" rx="3" fill="#F3F4F4"/>
</g>
<rect x="402.5" y="247.5" width="164" height="81" rx="8.5" stroke="#D0D5DA"/>
<g clip-path="url(#clip9_490_93885)">
<rect x="225" y="341" width="165" height="82" rx="9" fill="white"/>
<path fill-rule="evenodd" clip-rule="evenodd" d="M239 352.25H251C252.657 352.25 254 353.593 254 355.25V367.25C254 368.907 252.657 370.25 251 370.25H239C237.343 370.25 236 368.907 236 367.25V355.25C236 353.593 237.343 352.25 239 352.25ZM235 355.25C235 353.041 236.791 351.25 239 351.25H251C253.209 351.25 255 353.041 255 355.25V367.25C255 369.459 253.209 371.25 251 371.25H239C236.791 371.25 235 369.459 235 367.25V355.25Z" fill="#8BB825"/>
<rect x="263" y="358.75" width="73" height="5" rx="2.5" fill="#EFEFEF"/>
<rect x="344" y="355.25" width="12" height="12" rx="6" fill="#2DB382"/>
<g clip-path="url(#clip10_490_93885)">
<path fill-rule="evenodd" clip-rule="evenodd" d="M370 355.25C370 354.145 370.895 353.25 372 353.25C373.105 353.25 374 354.145 374 355.25C374 356.355 373.105 357.25 372 357.25C370.895 357.25 370 356.355 370 355.25ZM370 361.25C370 360.145 370.895 359.25 372 359.25C373.105 359.25 374 360.145 374 361.25C374 362.355 373.105 363.25 372 363.25C370.895 363.25 370 362.355 370 361.25ZM372 365.25C370.895 365.25 370 366.145 370 367.25C370 368.355 370.895 369.25 372 369.25C373.105 369.25 374 368.355 374 367.25C374 366.145 373.105 365.25 372 365.25Z" fill="#A3A9AE"/>
</g>
<rect x="225" y="381.5" width="165" height="1" fill="#D0D5DA"/>
<rect x="235" y="392.5" width="54" height="20" rx="3" fill="#F3F4F4"/>
<rect x="293" y="392.5" width="24" height="20" rx="3" fill="#F3F4F4"/>
</g>
<rect x="225.5" y="341.5" width="164" height="81" rx="8.5" stroke="#D0D5DA"/>
<g clip-path="url(#clip11_490_93885)">
<rect x="402" y="341" width="165" height="82" rx="9" fill="white"/>
<rect width="165" height="40.5" transform="translate(402 341)" fill="#F9F9F9"/>
<path fill-rule="evenodd" clip-rule="evenodd" d="M416 352.25H428C429.657 352.25 431 353.593 431 355.25V367.25C431 368.907 429.657 370.25 428 370.25H416C414.343 370.25 413 368.907 413 367.25V355.25C413 353.593 414.343 352.25 416 352.25ZM412 355.25C412 353.041 413.791 351.25 416 351.25H428C430.209 351.25 432 353.041 432 355.25V367.25C432 369.459 430.209 371.25 428 371.25H416C413.791 371.25 412 369.459 412 367.25V355.25Z" fill="#F2557C"/>
<rect x="440" y="358.75" width="93" height="5" rx="2.5" fill="#EFEFEF"/>
<g clip-path="url(#clip12_490_93885)">
<path fill-rule="evenodd" clip-rule="evenodd" d="M547 355.25C547 354.145 547.895 353.25 549 353.25C550.105 353.25 551 354.145 551 355.25C551 356.355 550.105 357.25 549 357.25C547.895 357.25 547 356.355 547 355.25ZM547 361.25C547 360.145 547.895 359.25 549 359.25C550.105 359.25 551 360.145 551 361.25C551 362.355 550.105 363.25 549 363.25C547.895 363.25 547 362.355 547 361.25ZM549 365.25C547.895 365.25 547 366.145 547 367.25C547 368.355 547.895 369.25 549 369.25C550.105 369.25 551 368.355 551 367.25C551 366.145 550.105 365.25 549 365.25Z" fill="#A3A9AE"/>
</g>
<rect x="402" y="381.5" width="165" height="1" fill="#D0D5DA"/>
<rect x="412" y="392.5" width="54" height="20" rx="3" fill="#F3F4F4"/>
</g>
<rect x="402.5" y="341.5" width="164" height="81" rx="8.5" stroke="#D0D5DA"/>
<rect width="383" height="32" transform="translate(205 104)" fill="white"/>
<g clip-path="url(#clip13_490_93885)">
<rect x="225" y="104" width="223" height="32" rx="3" fill="white"/>
</g>
<rect x="225.5" y="104.5" width="222" height="31" rx="2.5" stroke="#D0D5DA"/>
<rect x="456.5" y="104.5" width="31" height="31" rx="2.5" fill="white"/>
<rect x="456.5" y="104.5" width="31" height="31" rx="2.5" stroke="#D0D5DA"/>
<g clip-path="url(#clip14_490_93885)">
<path fill-rule="evenodd" clip-rule="evenodd" d="M464.094 114.576C464.259 114.224 464.612 114 465 114H479C479.388 114 479.741 114.224 479.906 114.576C480.07 114.927 480.017 115.342 479.768 115.64L475 121.362V125C475 125.379 474.786 125.725 474.447 125.894L470.447 127.894C470.137 128.049 469.769 128.033 469.474 127.851C469.179 127.668 469 127.347 469 127V121.362L464.232 115.64C463.983 115.342 463.93 114.927 464.094 114.576ZM467.135 116L470.768 120.36C470.918 120.54 471 120.766 471 121V125.382L473 124.382V121C473 120.766 473.082 120.54 473.232 120.36L476.865 116H467.135Z" fill="#A3A9AE"/>
</g>
<rect x="496.5" y="104.5" width="31" height="31" rx="2.5" fill="white"/>
<rect x="496.5" y="104.5" width="31" height="31" rx="2.5" stroke="#D0D5DA"/>
<g clip-path="url(#clip15_490_93885)">
<path fill-rule="evenodd" clip-rule="evenodd" d="M512 114.414L507.707 118.707L506.293 117.293L511.293 112.293C511.683 111.902 512.317 111.902 512.707 112.293L517.707 117.293L516.293 118.707L512 114.414ZM512 125.586L507.707 121.293L506.293 122.707L511.293 127.707C511.683 128.098 512.317 128.098 512.707 127.707L517.707 122.707L516.293 121.293L512 125.586ZM512 122.757L513 121.757L513 118.243L512 117.243L511 118.243V121.757L512 122.757Z" fill="#A3A9AE"/>
</g>
<rect x="536.5" y="104.5" width="31" height="31" rx="2.5" fill="white"/>
<rect x="536.5" y="104.5" width="31" height="31" rx="2.5" stroke="#D0D5DA"/>
<path fill-rule="evenodd" clip-rule="evenodd" d="M546 113C545.448 113 545 113.448 545 114V118C545 118.552 545.448 119 546 119H550C550.552 119 551 118.552 551 118V114C551 113.448 550.552 113 550 113H546ZM547.5 117C547.224 117 547 116.776 547 116.5V115.5C547 115.224 547.224 115 547.5 115H548.5C548.776 115 549 115.224 549 115.5V116.5C549 116.776 548.776 117 548.5 117H547.5ZM546 121C545.448 121 545 121.448 545 122V126C545 126.552 545.448 127 546 127H550C550.552 127 551 126.552 551 126V122C551 121.448 550.552 121 550 121H546ZM547.5 125C547.224 125 547 124.776 547 124.5V123.5C547 123.224 547.224 123 547.5 123H548.5C548.776 123 549 123.224 549 123.5V124.5C549 124.776 548.776 125 548.5 125H547.5ZM553 114C553 113.448 553.448 113 554 113H558C558.552 113 559 113.448 559 114V118C559 118.552 558.552 119 558 119H554C553.448 119 553 118.552 553 118V114ZM555.5 115C555.224 115 555 115.224 555 115.5V116.5C555 116.776 555.224 117 555.5 117H556.5C556.776 117 557 116.776 557 116.5V115.5C557 115.224 556.776 115 556.5 115H555.5ZM554 121C553.448 121 553 121.448 553 122V126C553 126.552 553.448 127 554 127H558C558.552 127 559 126.552 559 126V122C559 121.448 558.552 121 558 121H554ZM555.5 125C555.224 125 555 124.776 555 124.5V123.5C555 123.224 555.224 123 555.5 123H556.5C556.776 123 557 123.224 557 123.5V124.5C557 124.776 556.776 125 556.5 125H555.5Z" fill="#A3A9AE"/>
<rect width="155" height="388" transform="translate(50 56)" fill="#F8F9F9"/>
<rect width="154" height="388" transform="translate(50 56)" fill="#F8F9F9"/>
<rect width="154" height="59" transform="translate(50 56)" fill="#F8F9F9"/>
<g filter="url(#filter10_d_490_93885)">
<rect x="67.5" y="72.5" width="119" height="26" rx="4.5" stroke="#AAAAAA" stroke-dasharray="7 7"/>
<path fill-rule="evenodd" clip-rule="evenodd" d="M80.0981 92.8161L73.4263 89.728C72.8579 89.4584 72.8579 89.0417 73.4263 88.7967L75.749 87.7183L80.0734 89.728C80.6417 89.9976 81.556 89.9976 82.0996 89.728L86.4239 87.7183L88.7467 88.7967C89.3151 89.0663 89.3151 89.4829 88.7467 89.728L82.0749 92.8161C81.556 93.0612 80.6417 93.0612 80.0981 92.8161Z" fill="#FF6F3D"/>
<path fill-rule="evenodd" clip-rule="evenodd" d="M80.0764 88.9948L73.425 85.9031C72.8583 85.6331 72.8583 85.216 73.425 84.9706L75.6914 83.9155L80.0764 85.9521C80.6431 86.222 81.5546 86.222 82.0965 85.9521L86.4816 83.9155L88.748 84.9706C89.3146 85.2405 89.3146 85.6577 88.748 85.9031L82.0965 88.9948C81.5299 89.2647 80.6184 89.2647 80.0764 88.9948Z" fill="#95C038"/>
<path fill-rule="evenodd" clip-rule="evenodd" d="M80.0764 85.213L73.425 82.1658C72.8583 81.8997 72.8583 81.4886 73.425 81.2467L80.0764 78.1995C80.6431 77.9335 81.5546 77.9335 82.0965 78.1995L88.748 81.2467C89.3146 81.5128 89.3146 81.9239 88.748 82.1658L82.0965 85.213C81.5299 85.4548 80.6184 85.4548 80.0764 85.213Z" fill="#5DC0E8"/>
<path fill-rule="evenodd" clip-rule="evenodd" d="M94.1729 85.5C94.1729 81.9525 96.5799 80.5 99.0294 80.5C101.479 80.5 103.886 81.9525 103.886 85.5C103.886 89.0475 101.479 90.5 99.0294 90.5C96.5799 90.5 94.1729 89.0475 94.1729 85.5ZM101.762 85.5C101.762 82.1899 99.7798 81.8966 99.0294 81.8966C98.279 81.8966 96.2967 82.1899 96.2967 85.5C96.2967 88.8101 98.279 89.1034 99.0294 89.1034C99.7798 89.1034 101.762 88.8101 101.762 85.5ZM107.53 90.3883H105.519V80.6117H108.125L111.551 86.771L112.075 88.0978H112.118L112.075 86.3659V80.6117H114.086V90.3883H111.48L108.026 83.9916L107.53 82.9022H107.488L107.53 84.6341V90.3883ZM116.07 90.3883H122.016V88.7402H118.08V80.6117H116.07V90.3883ZM123.97 86.3939L120.317 80.6117H122.639L124.678 84.0475L124.99 84.7179H125.032L125.372 84.0475L127.425 80.6117H129.549L125.981 86.4218V90.3883H123.97V86.3939ZM134.233 80.5C131.784 80.5 129.377 81.9525 129.377 85.5C129.377 89.0475 131.784 90.5 134.233 90.5C136.683 90.5 139.09 89.0475 139.09 85.5C139.09 81.9525 136.683 80.5 134.233 80.5ZM134.233 81.8966C134.984 81.8966 136.966 82.1899 136.966 85.5C136.966 88.8101 134.984 89.1034 134.233 89.1034C133.483 89.1034 131.501 88.8101 131.501 85.5C131.501 82.1899 133.483 81.8966 134.233 81.8966ZM142.734 90.3883H140.723V80.6117H146.274V82.2598H142.734V84.6341H146.104V86.2402H142.734V90.3883ZM147.692 90.3883H149.703V86.2402H153.073V84.6341H149.703V82.2598H153.243V80.6117H147.692V90.3883ZM156.672 90.3883H154.661V80.6117H156.672V90.3883ZM165.893 88.419C165.397 88.6425 164.703 88.852 163.825 88.852C162.041 88.852 160.427 87.8883 160.427 85.5279C160.427 83.5307 161.744 82.148 163.967 82.148C164.717 82.148 165.355 82.2877 165.935 82.5112L166.02 80.8352C165.27 80.5978 164.604 80.5 163.825 80.5C160.71 80.5 158.303 82.1899 158.303 85.5559C158.303 89.1173 160.994 90.5 163.457 90.5C164.25 90.5 165.142 90.3743 166.02 90.081L165.893 88.419ZM173.494 90.3883H167.576V80.6117H173.494V82.3436H169.586V84.5503H173.14V86.1564H169.586V88.6564H173.494V90.3883Z" fill="#333333"/>
</g>
<rect width="154" height="37" transform="translate(50 115)" fill="#F8F9F9"/>
<rect x="66" y="115" width="122" height="25" rx="3" fill="#2DB382"/>
<rect width="154" height="32" transform="translate(50 152)" fill="#F8F9F9"/>
<path fill-rule="evenodd" clip-rule="evenodd" d="M81 160C79.8954 160 79 160.895 79 162V174C79 175.105 79.8954 176 81 176H91C92.1046 176 93 175.105 93 174V164.111C93 163.852 92.8996 163.603 92.7198 163.417L89.7198 160.306C89.5314 160.11 89.2715 160 89 160H81ZM81 162L88.5751 162L91 164.515V174H81V162ZM82 166H88V164H82V166ZM82 169H90V167H82V169ZM82 172H90V170H82V172Z" fill="#657077"/>
<rect x="102" y="165.5" width="74" height="5" rx="2.5" fill="#DFE2E3"/>
<rect width="154" height="32" transform="translate(50 184)" fill="#F8F9F9"/>
<rect x="66" y="188" width="122" height="24" rx="3" fill="#DFE2E3"/>
<path fill-rule="evenodd" clip-rule="evenodd" d="M78 196C78 194.343 79.3431 193 81 193H90C91.6569 193 93 194.343 93 196V205C93 206.657 91.6569 208 90 208H81C79.3431 208 78 206.657 78 205V196ZM81 195C80.4477 195 80 195.448 80 196V205C80 205.552 80.4477 206 81 206H90C90.5523 206 91 205.552 91 205V196C91 195.448 90.5523 195 90 195H81ZM82 198C82 197.448 82.4477 197 83 197H84C84.5523 197 85 197.448 85 198V199C85 199.552 84.5523 200 84 200H83C82.4477 200 82 199.552 82 199V198ZM83 201C82.4477 201 82 201.448 82 202V203C82 203.552 82.4477 204 83 204H84C84.5523 204 85 203.552 85 203V202C85 201.448 84.5523 201 84 201H83ZM86 198C86 197.448 86.4477 197 87 197H88C88.5523 197 89 197.448 89 198V199C89 199.552 88.5523 200 88 200H87C86.4477 200 86 199.552 86 199V198ZM87 201C86.4477 201 86 201.448 86 202V203C86 203.552 86.4477 204 87 204H88C88.5523 204 89 203.552 89 203V202C89 201.448 88.5523 201 88 201H87Z" fill="#657077"/>
<rect x="102" y="197.5" width="64" height="5" rx="2.5" fill="white"/>
<rect width="154" height="32" transform="translate(50 216)" fill="#F8F9F9"/>
<path fill-rule="evenodd" clip-rule="evenodd" d="M79 229C78.4477 229 78 228.552 78 228V226C78 225.448 78.4477 225 79 225H93C93.5523 225 94 225.448 94 226V228C94 228.552 93.5523 229 93 229V238C93 238.552 92.5523 239 92 239H80C79.4477 239 79 238.552 79 238V229ZM81 230V237H91V230H81ZM83 233C83 232.448 83.4477 232 84 232H88C88.5523 232 89 232.448 89 233C89 233.552 88.5523 234 88 234H84C83.4477 234 83 233.552 83 233ZM81.5 227C81.2239 227 81 227.224 81 227.5C81 227.776 81.2239 228 81.5 228H90.5C90.7761 228 91 227.776 91 227.5C91 227.224 90.7761 227 90.5 227H81.5Z" fill="#657077"/>
<rect x="102" y="229.5" width="50" height="5" rx="2.5" fill="#DFE2E3"/>
<rect width="154" height="8" transform="translate(50 248)" fill="#F8F9F9"/>
<rect x="50" y="256" width="154" height="32" rx="3" fill="#F8F9F9"/>
<path fill-rule="evenodd" clip-rule="evenodd" d="M86.0005 267C85.4482 267 85.0005 267.448 85.0005 268V268.5C85.0005 269.14 85.1942 269.69 85.4475 270.056C85.719 270.448 85.9516 270.5 86 270.5C86.0486 270.5 86.2815 270.448 86.5532 270.055C86.8067 269.689 87.0004 269.14 87.0005 268.5V268.5V268.5L87.0004 268C87.0003 267.448 86.5526 267 86.0005 267ZM83.0005 268C83.0005 266.343 84.3437 265 86.0005 265C87.6571 265 89 266.343 89.0004 267.999L89.0005 268.5V268.5C89.0005 269.527 88.694 270.477 88.1973 271.194C87.7188 271.885 86.9514 272.5 86 272.5C85.0484 272.5 84.2812 271.885 83.803 271.194C83.3066 270.477 83.0005 269.526 83.0005 268.5V268ZM83.9102 275.075C83.8518 275.137 83.7708 275.244 83.6784 275.425C83.5266 275.723 83.3943 276.119 83.2877 276.575C83.0744 277.487 83 278.476 83 279H81C81 278.349 81.0867 277.204 81.3403 276.119C81.4671 275.577 81.6447 275.01 81.8973 274.516C82.1412 274.038 82.514 273.512 83.0921 273.218C83.8407 272.837 84.5765 273.17 84.8695 273.316L85.5528 273.658C85.8343 273.799 86.1657 273.799 86.4472 273.658L87.1305 273.316C87.4235 273.17 88.1593 272.837 88.9079 273.218C89.486 273.512 89.8588 274.038 90.1027 274.516C90.3553 275.01 90.5329 275.577 90.6597 276.119C90.9133 277.204 91 278.349 91 279H89C89 278.476 88.9256 277.487 88.7123 276.575C88.6057 276.119 88.4734 275.723 88.3216 275.425C88.2292 275.244 88.1482 275.137 88.0898 275.075C88.0703 275.083 88.0488 275.093 88.0249 275.105L87.3416 275.447C86.4971 275.869 85.5029 275.869 84.6584 275.447L83.9751 275.105C83.9512 275.093 83.9297 275.083 83.9102 275.075ZM82.0005 268C82.0005 267.656 82.0439 267.322 82.1256 267.004C82.084 267.001 82.0421 267 81.9999 267C80.8954 267 80 267.895 79.9999 268.999L79.9998 269.599V269.6C79.9998 270.561 80.3504 271.257 80.7317 271.715C80.9175 271.938 81.1052 272.098 81.2524 272.206C81.3264 272.26 81.3913 272.302 81.4426 272.333C81.4682 272.348 81.4906 272.361 81.5091 272.371L81.534 272.384L81.5442 272.39L81.5487 272.392L81.5508 272.393L81.5518 272.394C81.5523 272.394 81.5528 272.394 82 271.5L81.5528 272.394C81.8344 272.535 82.1658 272.535 82.4473 272.394L82 271.5C82.4473 272.394 82.4478 272.394 82.4483 272.394L82.4493 272.393L82.4514 272.392L82.4559 272.39L82.4661 272.384L82.491 272.371C82.5095 272.361 82.5319 272.348 82.5575 272.333C82.6088 272.302 82.6737 272.26 82.7477 272.206C82.8471 272.133 82.9651 272.036 83.0884 271.912C83.051 271.862 83.0151 271.813 82.9808 271.763C82.3628 270.87 82.0005 269.719 82.0005 268.5V268ZM89.0194 271.764C88.9851 271.813 88.9492 271.863 88.9118 271.913C89.0351 272.036 89.153 272.133 89.2524 272.206C89.3264 272.26 89.3913 272.302 89.4426 272.333C89.4682 272.348 89.4906 272.361 89.5091 272.371L89.534 272.384L89.5442 272.39L89.5487 272.392L89.5508 272.393L89.5518 272.394C89.5523 272.394 89.5528 272.394 90 271.5L89.5528 272.394C89.8344 272.535 90.1658 272.535 90.4473 272.394L90 271.5C90.4473 272.394 90.4478 272.394 90.4483 272.394L90.4493 272.393L90.4514 272.392L90.4559 272.39L90.4661 272.384L90.491 272.371C90.5095 272.361 90.5319 272.348 90.5575 272.333C90.6088 272.302 90.6737 272.26 90.7477 272.206C90.8949 272.098 91.0825 271.938 91.2683 271.715C91.6495 271.257 92 270.561 92 269.6V269C92 267.895 91.1045 267 89.9999 267C89.9581 267 89.9165 267.001 89.8753 267.003C89.9569 267.322 90.0003 267.655 90.0004 267.999L90.0005 268.5V268.5C90.0005 269.72 89.6377 270.871 89.0194 271.764ZM91.6286 275.946C91.7137 276.299 91.7815 276.655 91.8347 277H93.5C93.5 276.484 93.433 275.735 93.2243 275.039C93.0365 274.413 92.6307 273.482 91.7089 273.129C91.1679 272.922 90.6681 273.072 90.3727 273.2C90.638 273.516 90.8388 273.849 90.9913 274.149C91.2886 274.735 91.4894 275.369 91.6286 275.946ZM81.0087 274.149C81.1612 273.849 81.362 273.516 81.6273 273.2C81.3319 273.072 80.8321 272.922 80.2911 273.129C79.3693 273.482 78.9635 274.413 78.7757 275.039C78.567 275.735 78.5 276.484 78.5 277H80.1653C80.2185 276.655 80.2863 276.299 80.3714 275.946C80.5106 275.369 80.7114 274.735 81.0087 274.149ZM81.9999 269L82 269V269.6L81.9999 269.62L81.9998 269.6V269.6V269.6L81.9999 269L81.9999 269ZM89.9999 269L90 269V269.6L89.9999 269.62L89.9998 269.6V269.6V269.6L89.9999 269L89.9999 269Z" fill="#657077"/>
<rect x="102" y="269.5" width="54" height="5" rx="2.5" fill="#DFE2E3"/>
<rect x="50" y="288" width="154" height="32" rx="3" fill="#F8F9F9"/>
<g clip-path="url(#clip16_490_93885)">
<path fill-rule="evenodd" clip-rule="evenodd" d="M81.8437 297.946C81.4934 297.711 81.0295 297.717 80.7132 297.996C80.4592 298.22 80.2195 298.459 79.9957 298.713C79.717 299.029 79.7112 299.493 79.9457 299.844L80.6387 300.879C80.6853 300.948 80.7218 301.021 80.7489 301.095C80.5322 301.486 80.358 301.903 80.2322 302.341C80.1609 302.374 80.0839 302.4 80.0019 302.416L78.7798 302.658C78.3661 302.74 78.0421 303.072 78.0158 303.493C78.0053 303.661 78 303.83 78 304C78 304.17 78.0053 304.339 78.0158 304.507C78.0421 304.928 78.3661 305.26 78.7798 305.342L80.0019 305.584C80.0839 305.6 80.1609 305.626 80.2322 305.659C80.358 306.097 80.5322 306.514 80.7489 306.905C80.7218 306.979 80.6853 307.052 80.6387 307.121L79.9457 308.156C79.7112 308.507 79.717 308.971 79.9957 309.287C80.2195 309.541 80.4592 309.78 80.7132 310.004C81.0295 310.283 81.4934 310.289 81.8437 310.054L82.8787 309.361C82.9484 309.315 83.0209 309.278 83.095 309.251C83.4858 309.468 83.9033 309.642 84.3413 309.768C84.3744 309.839 84.3998 309.916 84.416 309.998L84.658 311.22C84.7399 311.634 85.0723 311.958 85.4932 311.984C85.6608 311.995 85.8298 312 86 312C86.1702 312 86.3392 311.995 86.5068 311.984C86.9277 311.958 87.2601 311.634 87.342 311.22L87.584 309.998C87.6002 309.916 87.6256 309.839 87.6587 309.768C88.0967 309.642 88.5142 309.468 88.905 309.251C88.9791 309.278 89.0516 309.315 89.1213 309.361L90.1563 310.054C90.5066 310.289 90.9705 310.283 91.2868 310.004C91.5408 309.78 91.7805 309.541 92.0043 309.287C92.283 308.971 92.2888 308.507 92.0543 308.156L91.3613 307.121C91.3147 307.052 91.2782 306.979 91.2511 306.905C91.4678 306.514 91.642 306.097 91.7678 305.659C91.8391 305.626 91.9161 305.6 91.9981 305.584L93.2202 305.342C93.6339 305.26 93.9579 304.928 93.9842 304.507C93.9947 304.339 94 304.17 94 304C94 303.83 93.9947 303.661 93.9842 303.493C93.9579 303.072 93.6339 302.74 93.2202 302.658L91.9981 302.416C91.9161 302.4 91.8391 302.374 91.7678 302.341C91.642 301.903 91.4678 301.486 91.2511 301.095C91.2782 301.021 91.3147 300.948 91.3613 300.879L92.0543 299.844C92.2888 299.493 92.283 299.029 92.0043 298.713C91.7805 298.459 91.5408 298.22 91.2868 297.996C90.9705 297.717 90.5066 297.711 90.1563 297.946L89.1213 298.639C89.0516 298.685 88.9791 298.722 88.905 298.749C88.5142 298.532 88.0967 298.358 87.6587 298.232C87.6256 298.161 87.6002 298.084 87.584 298.002L87.342 296.78C87.2601 296.366 86.9277 296.042 86.5068 296.016C86.3392 296.005 86.1702 296 86 296C85.8298 296 85.6608 296.005 85.4932 296.016C85.0723 296.042 84.7399 296.366 84.658 296.78L84.416 298.002C84.3998 298.084 84.3744 298.161 84.3413 298.232C83.9033 298.358 83.4858 298.532 83.095 298.749C83.0209 298.722 82.9484 298.685 82.8787 298.639L81.8437 297.946ZM90.5 304C90.5 306.485 88.4853 308.5 86 308.5C83.5147 308.5 81.5 306.485 81.5 304C81.5 301.515 83.5147 299.5 86 299.5C88.4853 299.5 90.5 301.515 90.5 304ZM86 306C87.1046 306 88 305.105 88 304C88 302.895 87.1046 302 86 302C84.8954 302 84 302.895 84 304C84 305.105 84.8954 306 86 306Z" fill="#657077"/>
</g>
<rect x="102" y="301.5" width="74" height="5" rx="2.5" fill="#DFE2E3"/>
<rect x="50" y="320" width="154" height="32" rx="3" fill="#F8F9F9"/>
<g clip-path="url(#clip17_490_93885)">
<path fill-rule="evenodd" clip-rule="evenodd" d="M85.4995 328H86.4995C87.3279 328 87.9995 328.672 87.9995 329.5V330H88.0005H91.0005C92.1053 330 93.0005 330.896 93.0005 332H91.0005V332H88.0005H86.4995H85.4995H84.0005H81.0005V332H79.0005C79.0005 330.896 79.8956 330 81.0005 330H83.9995V329.5C83.9995 328.672 84.671 328 85.4995 328ZM81.0005 333V341C81.0005 342.657 82.3436 344 84.0005 344H88.0005C89.6573 344 91.0005 342.657 91.0005 341V333H89.0005V341C89.0005 341.553 88.5528 342 88.0005 342H84.0005C83.4482 342 83.0005 341.553 83.0005 341V333H81.0005ZM85.0005 334V342H87.0005V334H85.0005Z" fill="#657077"/>
</g>
<rect x="102" y="333.5" width="54" height="5" rx="2.5" fill="#DFE2E3"/>
<rect width="154" height="56" transform="translate(50 388)" fill="#F3F4F4"/>
<rect x="50" y="388" width="154" height="1" fill="#ECEEF1"/>
<rect x="66" y="400.5" width="32" height="32" rx="16" fill="#DFE2E3"/>
<rect x="110" y="414" width="50" height="5" rx="2.5" fill="#DFE2E3"/>
<g clip-path="url(#clip18_490_93885)">
<path fill-rule="evenodd" clip-rule="evenodd" d="M178 410.5C178 409.395 178.895 408.5 180 408.5C181.105 408.5 182 409.395 182 410.5C182 411.605 181.105 412.5 180 412.5C178.895 412.5 178 411.605 178 410.5ZM178 416.5C178 415.395 178.895 414.5 180 414.5C181.105 414.5 182 415.395 182 416.5C182 417.605 181.105 418.5 180 418.5C178.895 418.5 178 417.605 178 416.5ZM180 420.5C178.895 420.5 178 421.395 178 422.5C178 423.605 178.895 424.5 180 424.5C181.105 424.5 182 423.605 182 422.5C182 421.395 181.105 420.5 180 420.5Z" fill="#657077"/>
</g>
<rect x="204" y="56" width="1" height="388" fill="#ECEEF1"/>
</g>
<rect x="50.5" y="56.5" width="539" height="387" rx="4.5" stroke="#E2E2E2"/>
</g>
<g style="mix-blend-mode:multiply">
<path d="M431.97 260.092C446.181 271.284 466.397 278.014 499 280.5L435.5 349C430.831 306.468 422.542 287.404 415.909 277.3L427.97 277.3C430.179 277.3 431.97 275.509 431.97 273.3L431.97 260.092Z" fill="#E2E2E2"/>
</g>
<g style="mix-blend-mode:multiply">
<path d="M187 75C196 87 228.397 97.0136 261 99.5L197.5 168C192.831 125.468 179.5 107 166 99L182 99C184.761 99 187 96.7614 187 94L187 75Z" fill="#E2E2E2"/>
</g>
<g filter="url(#filter11_d_490_93885)">
<rect x="434" y="280" width="113" height="113" rx="4" fill="white"/>
<rect x="434.5" y="280.5" width="112" height="112" rx="3.5" stroke="#FBC90A" stroke-dasharray="6 6"/>
<path d="M455.185 371.209C454.096 371.209 453.551 370.116 454.096 369.206L479.697 333.163C480.241 332.435 481.331 332.435 481.694 333.163L497.309 355.736C497.854 356.464 498.761 356.464 499.306 355.918L509.292 344.996C509.837 344.449 510.927 344.449 511.29 345.178L526.905 369.57C527.449 370.481 526.905 371.573 525.815 371.573H455.185V371.209Z" fill="#2DB382"/>
<path d="M524.252 307.75C524.252 311.183 521.362 313.893 517.929 313.893C514.497 313.893 511.787 311.002 511.787 307.57C511.787 304.137 514.677 301.427 518.11 301.427C521.542 301.427 524.252 304.318 524.252 307.75Z" fill="#2DB382"/>
</g>
<g filter="url(#filter12_d_490_93885)">
<rect x="197" y="98" width="151.111" height="80" rx="4" fill="white"/>
<rect x="197.5" y="98.5" width="150.111" height="79" rx="3.5" stroke="#2DB382" stroke-dasharray="6 6"/>
<path d="M224.44 123.006L221.043 133H218.732L215.342 123.006H217.481L219.361 128.953C219.393 129.053 219.445 129.243 219.518 129.521C219.591 129.794 219.664 130.086 219.737 130.396C219.815 130.701 219.867 130.954 219.894 131.154C219.922 130.954 219.97 130.701 220.038 130.396C220.111 130.09 220.181 129.801 220.25 129.527C220.323 129.249 220.375 129.058 220.407 128.953L222.301 123.006H224.44ZM237.276 127.989C237.276 128.759 237.181 129.461 236.989 130.095C236.798 130.724 236.506 131.266 236.114 131.722C235.727 132.177 235.235 132.528 234.638 132.774C234.041 133.016 233.334 133.137 232.518 133.137C231.703 133.137 230.996 133.016 230.399 132.774C229.802 132.528 229.308 132.177 228.916 131.722C228.528 131.266 228.239 130.721 228.048 130.088C227.856 129.454 227.761 128.75 227.761 127.976C227.761 126.941 227.929 126.041 228.266 125.275C228.608 124.505 229.132 123.908 229.839 123.484C230.545 123.061 231.443 122.849 232.532 122.849C233.617 122.849 234.508 123.061 235.205 123.484C235.907 123.908 236.426 124.505 236.764 125.275C237.105 126.046 237.276 126.95 237.276 127.989ZM229.982 127.989C229.982 128.687 230.069 129.288 230.242 129.794C230.42 130.295 230.695 130.683 231.069 130.956C231.443 131.225 231.926 131.359 232.518 131.359C233.12 131.359 233.608 131.225 233.981 130.956C234.355 130.683 234.626 130.295 234.795 129.794C234.968 129.288 235.055 128.687 235.055 127.989C235.055 126.941 234.859 126.116 234.467 125.515C234.075 124.913 233.43 124.612 232.532 124.612C231.935 124.612 231.447 124.749 231.069 125.022C230.695 125.291 230.42 125.679 230.242 126.185C230.069 126.686 229.982 127.287 229.982 127.989ZM245.703 133H243.584V124.77H240.87V123.006H248.417V124.77H245.703V133ZM255.367 123.006C256.274 123.006 257.021 123.115 257.609 123.334C258.202 123.553 258.641 123.883 258.929 124.325C259.216 124.767 259.359 125.326 259.359 126C259.359 126.456 259.273 126.854 259.099 127.196C258.926 127.538 258.698 127.827 258.416 128.064C258.133 128.301 257.828 128.495 257.5 128.646L260.439 133H258.088L255.702 129.165H254.574V133H252.455V123.006H255.367ZM255.217 124.742H254.574V127.442H255.258C255.959 127.442 256.461 127.326 256.762 127.094C257.067 126.857 257.22 126.51 257.22 126.055C257.22 125.581 257.056 125.243 256.727 125.043C256.404 124.842 255.9 124.742 255.217 124.742ZM269.953 133H264.197V123.006H269.953V124.742H266.316V126.937H269.7V128.673H266.316V131.25H269.953V133ZM280.681 133V123.006H282.801V131.25H286.854V133H280.681ZM300.169 127.989C300.169 128.759 300.073 129.461 299.882 130.095C299.69 130.724 299.399 131.266 299.007 131.722C298.619 132.177 298.127 132.528 297.53 132.774C296.933 133.016 296.227 133.137 295.411 133.137C294.595 133.137 293.889 133.016 293.292 132.774C292.695 132.528 292.2 132.177 291.808 131.722C291.421 131.266 291.132 130.721 290.94 130.088C290.749 129.454 290.653 128.75 290.653 127.976C290.653 126.941 290.822 126.041 291.159 125.275C291.501 124.505 292.025 123.908 292.731 123.484C293.438 123.061 294.335 122.849 295.425 122.849C296.509 122.849 297.4 123.061 298.098 123.484C298.799 123.908 299.319 124.505 299.656 125.275C299.998 126.046 300.169 126.95 300.169 127.989ZM292.875 127.989C292.875 128.687 292.961 129.288 293.135 129.794C293.312 130.295 293.588 130.683 293.962 130.956C294.335 131.225 294.819 131.359 295.411 131.359C296.013 131.359 296.5 131.225 296.874 130.956C297.248 130.683 297.519 130.295 297.687 129.794C297.861 129.288 297.947 128.687 297.947 127.989C297.947 126.941 297.751 126.116 297.359 125.515C296.967 124.913 296.322 124.612 295.425 124.612C294.828 124.612 294.34 124.749 293.962 125.022C293.588 125.291 293.312 125.679 293.135 126.185C292.961 126.686 292.875 127.287 292.875 127.989ZM308.534 127.388H312.499V132.569C311.975 132.743 311.43 132.882 310.865 132.986C310.3 133.087 309.66 133.137 308.944 133.137C307.951 133.137 307.108 132.941 306.415 132.549C305.722 132.157 305.196 131.578 304.836 130.812C304.476 130.047 304.296 129.106 304.296 127.989C304.296 126.941 304.496 126.034 304.897 125.269C305.303 124.503 305.893 123.91 306.668 123.491C307.447 123.072 308.397 122.862 309.518 122.862C310.047 122.862 310.569 122.919 311.084 123.033C311.599 123.147 312.066 123.295 312.485 123.478L311.781 125.173C311.476 125.018 311.127 124.888 310.735 124.783C310.343 124.678 309.933 124.626 309.505 124.626C308.889 124.626 308.354 124.767 307.898 125.05C307.447 125.332 307.096 125.729 306.846 126.239C306.599 126.745 306.476 127.342 306.476 128.03C306.476 128.682 306.565 129.261 306.743 129.767C306.921 130.268 307.201 130.662 307.584 130.949C307.967 131.232 308.466 131.373 309.081 131.373C309.382 131.373 309.635 131.359 309.84 131.332C310.049 131.3 310.245 131.268 310.428 131.236V129.151H308.534V127.388ZM326.456 127.989C326.456 128.759 326.36 129.461 326.169 130.095C325.977 130.724 325.686 131.266 325.294 131.722C324.906 132.177 324.414 132.528 323.817 132.774C323.22 133.016 322.514 133.137 321.698 133.137C320.882 133.137 320.176 133.016 319.579 132.774C318.982 132.528 318.487 132.177 318.096 131.722C317.708 131.266 317.419 130.721 317.227 130.088C317.036 129.454 316.94 128.75 316.94 127.976C316.94 126.941 317.109 126.041 317.446 125.275C317.788 124.505 318.312 123.908 319.018 123.484C319.725 123.061 320.623 122.849 321.712 122.849C322.796 122.849 323.687 123.061 324.385 123.484C325.086 123.908 325.606 124.505 325.943 125.275C326.285 126.046 326.456 126.95 326.456 127.989ZM319.162 127.989C319.162 128.687 319.249 129.288 319.422 129.794C319.599 130.295 319.875 130.683 320.249 130.956C320.623 131.225 321.106 131.359 321.698 131.359C322.3 131.359 322.787 131.225 323.161 130.956C323.535 130.683 323.806 130.295 323.974 129.794C324.148 129.288 324.234 128.687 324.234 127.989C324.234 126.941 324.038 126.116 323.646 125.515C323.254 124.913 322.61 124.612 321.712 124.612C321.115 124.612 320.627 124.749 320.249 125.022C319.875 125.291 319.599 125.679 319.422 126.185C319.249 126.686 319.162 127.287 319.162 127.989ZM226.989 154H221.233V144.006H226.989V145.742H223.352V147.937H226.736V149.673H223.352V152.25H226.989V154ZM240.447 154H237.754L233.406 146.439H233.345C233.363 146.754 233.379 147.071 233.392 147.39C233.406 147.709 233.42 148.028 233.433 148.347C233.447 148.661 233.461 148.978 233.474 149.297V154H231.581V144.006H234.254L238.595 151.491H238.642C238.633 151.181 238.622 150.874 238.608 150.568C238.595 150.263 238.581 149.958 238.567 149.652C238.558 149.347 238.549 149.042 238.54 148.736V144.006H240.447V154ZM249.325 154H247.206V145.77H244.492V144.006H252.039V145.77H249.325V154ZM258.989 144.006C259.896 144.006 260.643 144.115 261.231 144.334C261.824 144.553 262.264 144.883 262.551 145.325C262.838 145.767 262.981 146.326 262.981 147C262.981 147.456 262.895 147.854 262.722 148.196C262.548 148.538 262.32 148.827 262.038 149.064C261.755 149.301 261.45 149.495 261.122 149.646L264.061 154H261.71L259.324 150.165H258.196V154H256.077V144.006H258.989ZM258.839 145.742H258.196V148.442H258.88C259.582 148.442 260.083 148.326 260.384 148.094C260.689 147.857 260.842 147.51 260.842 147.055C260.842 146.581 260.678 146.243 260.349 146.043C260.026 145.842 259.522 145.742 258.839 145.742ZM273.575 154H267.819V144.006H273.575V145.742H269.938V147.937H273.322V149.673H269.938V152.25H273.575V154ZM281.359 144.006C282.649 144.006 283.59 144.284 284.182 144.84C284.775 145.391 285.071 146.152 285.071 147.123C285.071 147.561 285.005 147.98 284.873 148.381C284.741 148.777 284.524 149.131 284.223 149.44C283.927 149.75 283.531 149.996 283.034 150.179C282.537 150.356 281.924 150.445 281.195 150.445H280.286V154H278.167V144.006H281.359ZM281.25 145.742H280.286V148.709H280.983C281.38 148.709 281.724 148.657 282.015 148.552C282.307 148.447 282.533 148.283 282.692 148.06C282.852 147.836 282.931 147.549 282.931 147.198C282.931 146.706 282.795 146.341 282.521 146.104C282.248 145.863 281.824 145.742 281.25 145.742ZM292.37 144.006C293.277 144.006 294.024 144.115 294.612 144.334C295.205 144.553 295.644 144.883 295.931 145.325C296.219 145.767 296.362 146.326 296.362 147C296.362 147.456 296.276 147.854 296.102 148.196C295.929 148.538 295.701 148.827 295.419 149.064C295.136 149.301 294.831 149.495 294.503 149.646L297.442 154H295.091L292.705 150.165H291.577V154H289.458V144.006H292.37ZM292.22 145.742H291.577V148.442H292.261C292.962 148.442 293.464 148.326 293.764 148.094C294.07 147.857 294.223 147.51 294.223 147.055C294.223 146.581 294.058 146.243 293.73 146.043C293.407 145.842 292.903 145.742 292.22 145.742ZM301.2 154V144.006H303.319V154H301.2ZM314.234 151.225C314.234 151.817 314.091 152.332 313.804 152.77C313.516 153.207 313.097 153.544 312.546 153.781C311.999 154.018 311.334 154.137 310.55 154.137C310.203 154.137 309.864 154.114 309.531 154.068C309.203 154.023 308.886 153.957 308.581 153.87C308.28 153.779 307.993 153.667 307.72 153.535V151.566C308.194 151.776 308.686 151.965 309.196 152.134C309.707 152.302 310.212 152.387 310.714 152.387C311.06 152.387 311.338 152.341 311.548 152.25C311.762 152.159 311.917 152.034 312.013 151.874C312.108 151.715 312.156 151.532 312.156 151.327C312.156 151.076 312.072 150.862 311.903 150.685C311.735 150.507 311.502 150.34 311.206 150.186C310.914 150.031 310.584 149.864 310.215 149.687C309.982 149.577 309.729 149.445 309.456 149.29C309.182 149.131 308.923 148.937 308.677 148.709C308.431 148.481 308.228 148.205 308.068 147.882C307.913 147.554 307.836 147.162 307.836 146.706C307.836 146.109 307.973 145.599 308.246 145.175C308.519 144.751 308.909 144.427 309.415 144.204C309.925 143.976 310.527 143.862 311.22 143.862C311.739 143.862 312.234 143.924 312.703 144.047C313.177 144.165 313.671 144.339 314.186 144.566L313.503 146.214C313.042 146.027 312.63 145.883 312.265 145.783C311.901 145.678 311.529 145.626 311.151 145.626C310.887 145.626 310.661 145.669 310.474 145.756C310.288 145.838 310.146 145.956 310.051 146.111C309.955 146.262 309.907 146.437 309.907 146.638C309.907 146.875 309.975 147.075 310.112 147.239C310.253 147.399 310.463 147.554 310.741 147.704C311.024 147.854 311.375 148.03 311.794 148.23C312.304 148.472 312.739 148.725 313.099 148.989C313.464 149.249 313.744 149.557 313.94 149.912C314.136 150.263 314.234 150.701 314.234 151.225ZM324.302 154H318.546V144.006H324.302V145.742H320.665V147.937H324.049V149.673H320.665V152.25H324.302V154Z" fill="#444444"/>
</g>
<g filter="url(#filter13_d_490_93885)">
<rect x="435" y="19" width="172" height="124" rx="6" fill="white"/>
<rect x="435.5" y="19.5" width="171" height="123" rx="5.5" stroke="#CCCCCC"/>
</g>
<rect x="455" y="39" width="36" height="36" rx="8" fill="#4781D1"/>
<rect x="503" y="39" width="36" height="36" rx="8" fill="#F97A0B"/>
<rect x="551" y="39" width="36" height="36" rx="8" fill="#2DB482"/>
<path fill-rule="evenodd" clip-rule="evenodd" d="M567.207 63.2069L576.707 53.7069L575.293 52.2927L566.5 61.0856L562.707 57.2927L561.293 58.7069L565.793 63.2069C566.183 63.5975 566.817 63.5975 567.207 63.2069Z" fill="white"/>
<rect x="455" y="87" width="36" height="36" rx="8" fill="#F2675A"/>
<rect x="503" y="87" width="36" height="36" rx="8" fill="#6D4EC2"/>
<rect x="551" y="87" width="36" height="36" rx="8" fill="#11A4D4"/>
</g>
<defs>
<filter id="filter0_d_490_93885" x="0" y="26" width="640" height="488" filterUnits="userSpaceOnUse" color-interpolation-filters="sRGB">
<feFlood flood-opacity="0" result="BackgroundImageFix"/>
<feColorMatrix in="SourceAlpha" type="matrix" values="0 0 0 0 0 0 0 0 0 0 0 0 0 0 0 0 0 0 127 0" result="hardAlpha"/>
<feOffset dy="20"/>
<feGaussianBlur stdDeviation="25"/>
<feColorMatrix type="matrix" values="0 0 0 0 0.333333 0 0 0 0 0.333333 0 0 0 0 0.333333 0 0 0 0.15 0"/>
<feBlend mode="normal" in2="BackgroundImageFix" result="effect1_dropShadow_490_93885"/>
<feBlend mode="normal" in="SourceGraphic" in2="effect1_dropShadow_490_93885" result="shape"/>
</filter>
<filter id="filter10_d_490_93885" x="42" y="54" width="170" height="77" filterUnits="userSpaceOnUse" color-interpolation-filters="sRGB">
<feFlood flood-opacity="0" result="BackgroundImageFix"/>
<feColorMatrix in="SourceAlpha" type="matrix" values="0 0 0 0 0 0 0 0 0 0 0 0 0 0 0 0 0 0 127 0" result="hardAlpha"/>
<feOffset dy="7"/>
<feGaussianBlur stdDeviation="12.5"/>
<feColorMatrix type="matrix" values="0 0 0 0 0.333333 0 0 0 0 0.333333 0 0 0 0 0.333333 0 0 0 0.15 0"/>
<feBlend mode="normal" in2="BackgroundImageFix" result="effect1_dropShadow_490_93885"/>
<feBlend mode="normal" in="SourceGraphic" in2="effect1_dropShadow_490_93885" result="shape"/>
</filter>
<filter id="filter11_d_490_93885" x="409" y="262" width="163" height="163" filterUnits="userSpaceOnUse" color-interpolation-filters="sRGB">
<feFlood flood-opacity="0" result="BackgroundImageFix"/>
<feColorMatrix in="SourceAlpha" type="matrix" values="0 0 0 0 0 0 0 0 0 0 0 0 0 0 0 0 0 0 127 0" result="hardAlpha"/>
<feOffset dy="7"/>
<feGaussianBlur stdDeviation="12.5"/>
<feColorMatrix type="matrix" values="0 0 0 0 0.333333 0 0 0 0 0.333333 0 0 0 0 0.333333 0 0 0 0.15 0"/>
<feBlend mode="normal" in2="BackgroundImageFix" result="effect1_dropShadow_490_93885"/>
<feBlend mode="normal" in="SourceGraphic" in2="effect1_dropShadow_490_93885" result="shape"/>
</filter>
<filter id="filter12_d_490_93885" x="172" y="80" width="201.111" height="130" filterUnits="userSpaceOnUse" color-interpolation-filters="sRGB">
<feFlood flood-opacity="0" result="BackgroundImageFix"/>
<feColorMatrix in="SourceAlpha" type="matrix" values="0 0 0 0 0 0 0 0 0 0 0 0 0 0 0 0 0 0 127 0" result="hardAlpha"/>
<feOffset dy="7"/>
<feGaussianBlur stdDeviation="12.5"/>
<feColorMatrix type="matrix" values="0 0 0 0 0.333333 0 0 0 0 0.333333 0 0 0 0 0.333333 0 0 0 0.15 0"/>
<feBlend mode="normal" in2="BackgroundImageFix" result="effect1_dropShadow_490_93885"/>
<feBlend mode="normal" in="SourceGraphic" in2="effect1_dropShadow_490_93885" result="shape"/>
</filter>
<filter id="filter13_d_490_93885" x="385" y="-11" width="272" height="224" filterUnits="userSpaceOnUse" color-interpolation-filters="sRGB">
<feFlood flood-opacity="0" result="BackgroundImageFix"/>
<feColorMatrix in="SourceAlpha" type="matrix" values="0 0 0 0 0 0 0 0 0 0 0 0 0 0 0 0 0 0 127 0" result="hardAlpha"/>
<feOffset dy="20"/>
<feGaussianBlur stdDeviation="25"/>
<feColorMatrix type="matrix" values="0 0 0 0 0.333333 0 0 0 0 0.333333 0 0 0 0 0.333333 0 0 0 0.15 0"/>
<feBlend mode="normal" in2="BackgroundImageFix" result="effect1_dropShadow_490_93885"/>
<feBlend mode="normal" in="SourceGraphic" in2="effect1_dropShadow_490_93885" result="shape"/>
</filter>
<linearGradient id="paint0_linear_490_93885" x1="349" y1="207" x2="349" y2="343" gradientUnits="userSpaceOnUse">
<stop stop-color="#FF6F3D"/>
<stop offset="1" stop-color="#FF8E3D"/>
</linearGradient>
<clipPath id="clip0_490_93885">
<rect width="640" height="500" fill="white"/>
</clipPath>
<clipPath id="clip1_490_93885">
<rect x="50" y="56" width="540" height="388" rx="5" fill="white"/>
</clipPath>
<clipPath id="clip2_490_93885">
<rect x="225" y="153" width="165" height="82" rx="9" fill="white"/>
</clipPath>
<clipPath id="clip3_490_93885">
<rect width="16" height="16" fill="white" transform="translate(364 165.25)"/>
</clipPath>
<clipPath id="clip4_490_93885">
<rect x="402" y="153" width="165" height="82" rx="9" fill="white"/>
</clipPath>
<clipPath id="clip5_490_93885">
<rect width="16" height="16" fill="white" transform="translate(541 165.25)"/>
</clipPath>
<clipPath id="clip6_490_93885">
<rect x="225" y="247" width="165" height="82" rx="9" fill="white"/>
</clipPath>
<clipPath id="clip7_490_93885">
<rect x="402" y="247" width="165" height="82" rx="9" fill="white"/>
</clipPath>
<clipPath id="clip8_490_93885">
<rect width="16" height="16" fill="white" transform="translate(541 259.25)"/>
</clipPath>
<clipPath id="clip9_490_93885">
<rect x="225" y="341" width="165" height="82" rx="9" fill="white"/>
</clipPath>
<clipPath id="clip10_490_93885">
<rect width="16" height="16" fill="white" transform="translate(364 353.25)"/>
</clipPath>
<clipPath id="clip11_490_93885">
<rect x="402" y="341" width="165" height="82" rx="9" fill="white"/>
</clipPath>
<clipPath id="clip12_490_93885">
<rect width="16" height="16" fill="white" transform="translate(541 353.25)"/>
</clipPath>
<clipPath id="clip13_490_93885">
<rect x="225" y="104" width="223" height="32" rx="3" fill="white"/>
</clipPath>
<clipPath id="clip14_490_93885">
<rect width="16" height="16" fill="white" transform="translate(464 112)"/>
</clipPath>
<clipPath id="clip15_490_93885">
<rect width="16" height="16" fill="white" transform="translate(504 112)"/>
</clipPath>
<clipPath id="clip16_490_93885">
<rect width="16" height="16" fill="white" transform="translate(78 296)"/>
</clipPath>
<clipPath id="clip17_490_93885">
<rect width="16" height="16" fill="white" transform="translate(78 328)"/>
</clipPath>
<clipPath id="clip18_490_93885">
<rect width="16" height="16" fill="white" transform="translate(172 408.5)"/>
</clipPath>
</defs>
</svg>
