<svg width="168" height="51" viewBox="0 0 168 51" fill="none" xmlns="http://www.w3.org/2000/svg">
<g clip-path="url(#clip0_1808_5616)">
<path d="M9.52998 51C9.15559 51 8.7812 51 8.40681 51C7.69206 50.9645 6.8752 50.9289 6.05835 50.7868C5.27553 50.6446 4.59481 50.3958 3.98217 50.076C3.33549 49.7206 2.72285 49.2941 2.21232 48.7254C1.70178 48.1923 1.25932 47.5882 0.918963 46.8774C0.578606 46.2021 0.374392 45.4913 0.23825 44.7094C0.0680713 43.8209 0.0340357 42.9324 0.0340357 42.2571C0.0340357 41.9728 0 41.0488 0 41.0488V9.95122C0 9.95122 4.84288e-08 9.02718 0.0340357 8.7784C0.0340357 8.10314 0.102107 7.17909 0.23825 6.32613C0.374392 5.50871 0.612642 4.79791 0.918963 4.12265C1.25932 3.44739 1.66775 2.80767 2.21232 2.27456C2.72285 1.74146 3.33549 1.27944 3.98217 0.924042C4.62885 0.568641 5.30956 0.355401 6.05835 0.21324C6.90924 0.0710802 7.76013 0 8.40681 0H9.52998H158.436H159.593C160.24 0 161.091 0.0710802 161.942 0.21324C162.69 0.355401 163.371 0.604181 164.052 0.924042C164.699 1.27944 165.277 1.70592 165.822 2.27456C166.332 2.80767 166.775 3.41185 167.115 4.12265C167.455 4.79791 167.66 5.50871 167.796 6.29059C167.932 7.10801 168 7.96098 168 8.7784C168 9.1338 168 9.56028 168 9.95122C168 10.4488 168 10.9108 168 11.3728V39.5916C168 40.0537 168 40.5512 168 41.0132C168 41.4397 168 41.8307 168 42.2216C167.966 43.0035 167.932 43.8564 167.796 44.6739C167.66 45.4913 167.455 46.2021 167.115 46.8774C166.775 47.5526 166.332 48.1923 165.822 48.6899C165.311 49.223 164.699 49.685 164.052 50.0404C163.405 50.3958 162.724 50.6091 161.942 50.7512C161.125 50.8934 160.308 50.9289 159.593 50.9645C159.219 50.9645 158.844 50.9645 158.47 50.9645H157.109L9.52998 51Z" fill="#B6B6B6"/>
<path d="M10.4061 50C10.0362 50 9.66617 50 9.29618 50C8.58984 49.9659 7.7826 49.9317 6.97535 49.7951C6.20174 49.6585 5.52904 49.4195 4.9236 49.1122C4.28453 48.7707 3.6791 48.361 3.17457 47.8146C2.67004 47.3024 2.23279 46.7219 1.89643 46.039C1.56008 45.3902 1.35827 44.7073 1.22373 43.9561C1.05555 43.1024 1.02192 42.2488 1.02192 41.6C1.02192 41.3268 0.988281 40.439 0.988281 40.439V10.561C0.988281 10.561 0.988281 9.67317 1.02192 9.43415C1.02192 8.78537 1.08919 7.89756 1.22373 7.07805C1.35827 6.29268 1.59372 5.60976 1.89643 4.96098C2.23279 4.31219 2.63641 3.69756 3.17457 3.18537C3.6791 2.67317 4.28453 2.22927 4.9236 1.8878C5.56267 1.54634 6.23538 1.34146 6.97535 1.20488C7.81623 1.06829 8.65712 1 9.29618 1H10.4061H157.56H158.704C159.343 1 160.184 1.06829 161.025 1.20488C161.765 1.34146 162.437 1.58049 163.11 1.8878C163.749 2.22927 164.321 2.63902 164.859 3.18537C165.364 3.69756 165.801 4.27805 166.137 4.96098C166.474 5.60976 166.675 6.29268 166.81 7.0439C166.945 7.82927 167.012 8.64878 167.012 9.43415C167.012 9.77561 167.012 10.1854 167.012 10.561C167.012 11.039 167.012 11.4829 167.012 11.9268V39.039C167.012 39.4829 167.012 39.961 167.012 40.4049C167.012 40.8146 167.012 41.1902 167.012 41.5659C166.978 42.3171 166.945 43.1366 166.81 43.9219C166.675 44.7073 166.474 45.3902 166.137 46.039C165.801 46.6878 165.364 47.3024 164.859 47.7805C164.355 48.2927 163.749 48.7366 163.11 49.078C162.471 49.4195 161.798 49.6244 161.025 49.761C160.217 49.8976 159.41 49.9317 158.704 49.9658C158.334 49.9658 157.964 49.9658 157.594 49.9658H156.249L10.4061 50Z" fill="black"/>
<g clip-path="url(#clip1_1808_5616)">
<path fill-rule="evenodd" clip-rule="evenodd" d="M33.9919 9.0677C34.2641 9.22169 34.3534 9.58836 34.1914 9.88669L32.8585 12.3C35.3233 13.6957 36.9724 16.2393 36.9724 19.1458V19.1459H20.0276V19.1458C20.0276 16.2059 21.7148 13.6373 24.2268 12.2524L22.9278 9.92799C22.7658 9.62965 22.8714 9.25375 23.1637 9.08838C23.456 8.92302 23.8244 9.0308 23.9864 9.32914L25.3338 11.7403C26.312 11.3688 27.3806 11.1643 28.5 11.1643C29.6849 11.1643 30.8129 11.3934 31.837 11.8072L33.2057 9.32906C33.3677 9.03073 33.7197 8.91371 33.9919 9.0677ZM34 34.4438H34.9241C36.0554 34.4438 36.9724 33.5079 36.9724 32.3534V19.811H20.0276V32.3534C20.0276 33.5079 20.9446 34.4438 22.0759 34.4438H24V38.8347C24 40.0306 24.8954 41.0001 26 41.0001C27.1046 41.0001 28 40.0306 28 38.8347V34.4438H30V38.8347C30 40.0306 30.8954 41.0001 32 41.0001C33.1046 41.0001 34 40.0306 34 38.8347V34.4438ZM19 21.1655C19 19.9696 18.1046 19.0001 17 19.0001C15.8954 19.0001 15 19.9696 15 21.1655V28.8347C15 30.0306 15.8954 31.0001 17 31.0001C18.1046 31.0001 19 30.0306 19 28.8347V21.1655ZM40 19.0001C41.1046 19.0001 42 19.9696 42 21.1655V28.8347C42 30.0306 41.1046 31.0001 40 31.0001C38.8954 31.0001 38 30.0306 38 28.8347V21.1655C38 19.9696 38.8954 19.0001 40 19.0001ZM26.3587 15.5352C26.3587 15.9026 26.067 16.2004 25.707 16.2004C25.3471 16.2004 25.0553 15.9026 25.0553 15.5352C25.0553 15.1679 25.3471 14.8701 25.707 14.8701C26.067 14.8701 26.3587 15.1679 26.3587 15.5352ZM31.7587 16.2004C32.1186 16.2004 32.4104 15.9026 32.4104 15.5352C32.4104 15.1679 32.1186 14.8701 31.7587 14.8701C31.3987 14.8701 31.1069 15.1679 31.1069 15.5352C31.1069 15.9026 31.3987 16.2004 31.7587 16.2004Z" fill="#A4C639"/>
</g>
<path d="M52.843 19.912V21.485H64.517V19.912H52.843ZM57.562 21.329V31.144H59.239V21.329H57.562ZM58.446 24.475C59.915 25.268 61.891 26.49 62.814 27.309L63.971 25.879C62.97 25.073 60.929 23.942 59.512 23.24L58.446 24.475ZM75.268 19.795C75.801 20.367 76.451 21.147 76.724 21.654L77.933 20.861C77.621 20.354 76.945 19.613 76.399 19.093L75.268 19.795ZM66.285 21.784V22.993H78.128V21.784H66.285ZM66.935 19.847V21.03H72.746V19.847H66.935ZM69.132 18.963V22.46H70.614V18.963H69.132ZM73.396 18.976C73.396 25.164 73.929 31.053 76.581 31.053C77.66 31.053 78.115 30.507 78.336 28.492C77.972 28.336 77.465 28.011 77.166 27.66C77.088 29.025 76.971 29.558 76.724 29.558C75.528 29.558 74.787 24.527 74.93 18.976H73.396ZM76.347 23.565C75.606 26.386 74.189 28.791 72.174 30.182C72.538 30.468 72.993 30.923 73.227 31.261C75.398 29.571 76.854 27.036 77.738 23.955L76.347 23.565ZM66.467 23.981V25.203H73.11V23.981H66.467ZM69.691 25.476V31.118H71.134V25.476H69.691ZM67.065 27.738C67.065 27.465 67.897 27.023 67.897 27.023V26.984C68.664 26.074 69.535 24.644 70.133 23.266L68.625 22.863C68.222 24.111 67.507 25.385 67.26 25.736C67.039 26.074 66.818 26.308 66.584 26.373C66.766 26.75 66.987 27.439 67.065 27.738ZM67.065 27.738C67.182 27.608 67.637 27.53 68.144 27.53H72.928L72.941 26.243H67.741L67.065 26.646V27.738ZM66.402 28.583L66.545 29.974C68.3 29.818 70.796 29.597 73.149 29.363L73.162 28.115C70.692 28.297 68.079 28.492 66.402 28.583ZM84.849 18.95V21.316H86.513V18.95H84.849ZM80.182 20.12V23.201H81.768V21.563H89.633V23.201H91.297V20.12H80.182ZM84.381 21.875C83.484 23.877 82.106 26.503 81.131 28.089L82.769 28.531C83.705 26.906 85.031 24.319 86.019 22.226L84.381 21.875ZM87.657 24.852C86.955 28.18 84.472 29.337 80.208 29.753C80.494 30.104 80.949 30.806 81.092 31.183C85.551 30.533 88.281 29.077 89.425 25.086L87.657 24.852ZM79.922 23.812V25.281H91.531V23.812H79.922ZM82.106 27.816C84.732 28.596 88.112 30.052 89.75 31.144L91.011 29.87C89.191 28.752 85.746 27.426 83.237 26.737L82.106 27.816ZM98.265 18.963V22.408H99.877V18.963H98.265ZM98.382 26.516V31.17H99.994V26.516H98.382ZM96.185 25.047H102.321V25.827H96.185V25.047ZM96.185 23.136H102.321V23.89H96.185V23.136ZM94.625 21.888V27.062H103.946V21.888H94.625ZM99.058 19.847V21.147H104.583V19.847H99.058ZM93.338 27.816V29.233H105.155V27.816H93.338ZM111.889 18.95V21.316H113.553V18.95H111.889ZM107.222 20.12V23.201H108.808V21.563H116.673V23.201H118.337V20.12H107.222ZM111.421 21.875C110.524 23.877 109.146 26.503 108.171 28.089L109.809 28.531C110.745 26.906 112.071 24.319 113.059 22.226L111.421 21.875ZM114.697 24.852C113.995 28.18 111.512 29.337 107.248 29.753C107.534 30.104 107.989 30.806 108.132 31.183C112.591 30.533 115.321 29.077 116.465 25.086L114.697 24.852ZM106.962 23.812V25.281H118.571V23.812H106.962ZM109.146 27.816C111.772 28.596 115.152 30.052 116.79 31.144L118.051 29.87C116.231 28.752 112.786 27.426 110.277 26.737L109.146 27.816ZM125.448 24.982V26.659H127.034V24.982H125.448ZM125.292 26.243C124.252 27.192 122.172 27.894 120.118 28.206C120.391 28.479 120.768 28.986 120.95 29.324C123.108 28.921 125.24 28.011 126.501 26.763L125.292 26.243ZM127.294 26.269L125.981 26.542C126.956 29.064 128.62 30.585 131.571 31.209C131.74 30.819 132.13 30.247 132.442 29.948C129.751 29.506 128.061 28.245 127.294 26.269ZM130.57 26.919C129.959 27.413 128.919 28.063 128.152 28.427L129.075 29.181C129.855 28.843 130.882 28.297 131.675 27.738L130.57 26.919ZM121.678 29.779L121.925 31.105C123.381 30.897 125.396 30.624 127.268 30.338L127.19 29.064C125.214 29.337 123.082 29.623 121.678 29.779ZM120.352 25.879V27.049H132.208V25.879H120.352ZM124.941 20.471V21.81H132.182V20.471H124.941ZM125.266 23.344V24.683H131.844V23.344H125.266ZM122.978 18.963V25.255H124.421V18.963H122.978ZM127.71 18.963V24.267H129.27V18.963H127.71ZM120.391 20.432C120.963 20.835 121.665 21.446 121.99 21.849L122.939 20.861C122.588 20.471 121.847 19.925 121.288 19.548L120.391 20.432ZM120.144 23.435L120.651 24.709C121.392 24.384 122.237 24.007 123.03 23.643L122.718 22.408C121.756 22.811 120.82 23.201 120.144 23.435ZM123.147 28.31V30.26H124.642V27.66L124.005 27.452L123.147 28.31ZM136.732 18.898C136.056 20.653 134.873 22.382 133.547 23.422C133.95 23.669 134.626 24.241 134.925 24.553C136.251 23.318 137.564 21.368 138.383 19.366L136.732 18.898ZM136.992 20.406L136.251 21.875H143.908V20.406H136.992ZM143.44 20.406V20.705C143.349 24.605 143.232 25.996 142.985 26.321C142.881 26.464 142.751 26.516 142.556 26.516C142.322 26.516 141.88 26.516 141.386 26.451C141.62 26.867 141.789 27.491 141.802 27.946C142.452 27.946 143.037 27.959 143.401 27.881C143.817 27.816 144.116 27.686 144.389 27.296C144.766 26.789 144.883 25.216 145 21.069C145.013 20.861 145.013 20.406 145.013 20.406H143.44ZM136.277 25.801V27.179H141.373V22.863H136.03V24.228H139.839V25.801H136.277ZM135.575 25.801V28.999C135.575 30.637 136.277 31.066 138.708 31.066C139.254 31.066 142.322 31.066 142.881 31.066C144.961 31.066 145.481 30.585 145.741 28.596C145.299 28.518 144.623 28.271 144.246 28.05C144.116 29.389 143.934 29.61 142.829 29.61C142.036 29.61 139.345 29.61 138.734 29.61C137.356 29.61 137.122 29.519 137.122 28.973V25.801H135.575Z" fill="white"/>
</g>
<defs>
<clipPath id="clip0_1808_5616">
<rect width="168" height="51" rx="3" fill="white"/>
</clipPath>
<clipPath id="clip1_1808_5616">
<rect width="32" height="32" fill="white" transform="translate(13 9)"/>
</clipPath>
</defs>
</svg>
