<svg width="170" height="52" viewBox="0 0 170 52" fill="none" xmlns="http://www.w3.org/2000/svg">
<g clip-path="url(#clip0)">
<path d="M158.023 0H10.6131C10.2288 0 9.84458 0 9.45691 0C8.61145 0.0122936 7.76805 0.0873116 6.93369 0.224436C6.10473 0.364833 5.30204 0.630869 4.55331 1.01336C3.8002 1.39839 3.1118 1.89863 2.51299 2.496C1.91428 3.09368 1.41389 3.78229 1.03035 4.53633C0.648387 5.29097 0.383512 6.09935 0.244829 6.93371C0.103894 7.76644 0.028859 8.60899 0.0204024 9.45351C0.0204024 9.83778 0.0204033 10.2254 0 10.6131V40.3645C0 40.7555 -8.29755e-07 41.1364 0.0204024 41.5275C0.0291541 42.372 0.104188 43.2145 0.244829 44.0473C0.383842 44.8761 0.648743 45.6788 1.03035 46.4276C1.79619 47.9554 3.0258 49.2017 4.54312 49.988C5.29217 50.3712 6.09462 50.6394 6.9235 50.7837C7.75794 50.9197 8.60132 50.9936 9.4467 51.0048C9.83436 51.0048 10.2186 51.0048 10.6029 51.0048H159.377C159.761 51.0048 160.152 51.0048 160.536 51.0048C161.379 50.9944 162.221 50.9205 163.053 50.7837C163.889 50.6389 164.699 50.3707 165.457 49.988C166.212 49.607 166.901 49.1063 167.497 48.5054C168.099 47.9087 168.602 47.22 168.987 46.465C169.365 45.7153 169.627 44.9128 169.765 44.0847C169.906 43.2517 169.984 42.4095 170 41.5649C170 41.1738 170 40.7929 170 40.4019C170 39.9462 170 39.4905 170 39.0417V12.0039C170 11.5414 170 11.0858 170 10.6437C170 10.256 170 9.86838 170 9.48412C169.985 8.63951 169.906 7.79722 169.765 6.96432C169.626 6.13649 169.363 5.33417 168.987 4.58393C168.216 3.05647 166.985 1.80982 165.467 1.02016C164.71 0.638064 163.899 0.37211 163.063 0.231237C162.231 0.0933671 161.39 0.018343 160.547 0.00680109C160.162 0.00680109 159.771 0.00680109 159.387 0.00680109L158.023 0Z" fill="#B6B6B6"/>
<path d="M10.6199 49.9065C10.2357 49.9065 9.86158 49.9065 9.48072 49.9065C8.69239 49.8963 7.90588 49.8281 7.12755 49.7024C6.40307 49.5794 5.70069 49.3502 5.04302 49.0223C3.73007 48.3555 2.65958 47.2933 1.98252 45.9856C1.65152 45.3281 1.4222 44.6241 1.30242 43.8977C1.17239 43.1176 1.10304 42.3286 1.09499 41.5377C1.09499 41.2725 1.07458 40.3884 1.07458 40.3884V10.6302C1.07458 10.6302 1.07458 9.75965 1.09499 9.50461C1.10649 8.71223 1.1804 7.92199 1.31603 7.14123C1.43427 6.41231 1.66364 5.70584 1.99614 5.04649C2.32502 4.39551 2.75675 3.80186 3.27473 3.28841C3.79267 2.76993 4.38807 2.33513 5.03961 1.9996C5.69582 1.6711 6.39718 1.44189 7.12074 1.31949C7.90129 1.19286 8.69005 1.12353 9.48072 1.11206H10.6165H159.377H160.526C161.31 1.12047 162.092 1.18868 162.866 1.31609C163.596 1.43597 164.305 1.66525 164.967 1.9962C166.277 2.67175 167.341 3.74255 168.007 5.05669C168.337 5.71103 168.567 6.41153 168.687 7.13443C168.818 7.9215 168.891 8.71709 168.905 9.51481C168.905 9.87186 168.905 10.2561 168.905 10.637C168.905 11.1097 168.905 11.5585 168.905 11.9972V38.9975C168.905 39.4566 168.905 39.9021 168.905 40.3577C168.905 40.8134 168.905 41.1433 168.905 41.5309C168.893 42.3128 168.821 43.0926 168.691 43.8637C168.574 44.5953 168.345 45.3042 168.011 45.9652C167.335 47.2654 166.273 48.3241 164.971 48.9951C164.31 49.3265 163.602 49.5558 162.872 49.6752C162.094 49.8016 161.308 49.8698 160.519 49.8793C160.152 49.8793 159.764 49.8793 159.39 49.8793H10.6199V49.9065Z" fill="black"/>
<path fill-rule="evenodd" clip-rule="evenodd" d="M117.417 21.2076V34.562C117.417 36.4995 118.301 37.4682 120.071 37.572C120.377 37.572 120.717 37.5374 121.058 37.4682C121.398 37.399 121.704 37.3298 121.942 37.226L121.636 35.3578C121.33 35.427 121.126 35.4616 120.956 35.4616C120.581 35.4616 120.343 35.3578 120.173 35.1502C120.003 34.9426 119.935 34.5966 119.935 34.1123V21L117.417 21.2076ZM92.2013 33.8699C92.7798 35.0462 93.6305 35.9112 94.7194 36.5339C95.8424 37.1567 97.1355 37.468 98.7008 37.468C99.6196 37.468 100.538 37.3642 101.491 37.1566C102.444 36.9491 103.329 36.6377 104.179 36.2225V29.8221H98.2584V31.8287H101.695V34.9078C101.253 35.0808 100.811 35.2192 100.3 35.2884C99.7897 35.3922 99.3133 35.4268 98.8029 35.4268C97.714 35.4268 96.7952 35.1846 96.0806 34.7003C95.366 34.1813 94.8555 33.524 94.5152 32.6936C94.175 31.8633 94.0048 30.8946 94.0048 29.8221C94.0048 28.6112 94.209 27.5387 94.6514 26.6737C95.0597 25.8088 95.6722 25.1515 96.4549 24.7017C97.2376 24.2519 98.1563 24.0098 99.1772 24.0098C100.402 24.0098 101.695 24.3211 103.057 24.9785L103.703 22.9718C103.022 22.6259 102.308 22.3837 101.525 22.1761C100.743 22.0031 99.9258 21.8993 99.0751 21.8993C97.6119 21.8993 96.2847 22.2107 95.1278 22.7989C93.9368 23.387 93.018 24.2865 92.3374 25.4628C91.6568 26.6391 91.3165 28.0922 91.3165 29.7875C91.3165 31.3443 91.6228 32.7282 92.2013 33.8699ZM57.0835 33.2125H63.0726L64.5698 37.2603H67.3262L61.3371 22.0722H58.853L53 37.2603H55.6202L57.0835 33.2125ZM62.2899 31.1367H57.8321L59.4315 26.7428L60.044 24.7708C60.2482 25.4973 60.4864 26.1893 60.6905 26.7774L62.2899 31.1367ZM68.3202 26.1618V26.1619V26.1619V26.1619V26.162V26.162V26.162V26.162V26.162C68.3516 27.0839 68.3809 27.944 68.3809 28.7147H68.3469V41.9654L70.8991 41.7578V37.018C71.6477 37.2602 72.3963 37.3985 73.145 37.3985C74.1999 37.3985 75.1186 37.1564 75.9013 36.672C76.718 36.2222 77.3305 35.4957 77.7729 34.5616C78.2153 33.6275 78.4535 32.4858 78.4535 31.1711C78.4535 29.9256 78.2493 28.8877 77.875 28.0573C77.5007 27.227 76.9902 26.6388 76.3437 26.2583C75.6971 25.8777 75.0166 25.7047 74.2679 25.7047C72.9748 25.7047 71.8519 26.2583 70.865 27.3654C70.831 26.881 70.797 26.4313 70.6949 25.9469H68.3129L68.3202 26.1618ZM75.8673 31.3786C75.8673 32.7625 75.595 33.8004 75.0846 34.4924C74.5402 35.2189 73.7915 35.5649 72.8387 35.5649C72.5324 35.5649 72.1922 35.5303 71.8519 35.4611C71.5116 35.3919 71.2053 35.2881 70.9671 35.1497V29.0952C71.3414 28.6801 71.7498 28.3687 72.1581 28.1265C72.5665 27.8843 73.0089 27.7805 73.5193 27.7805C74.2339 27.7805 74.7784 28.0919 75.2207 28.6455C75.6631 29.199 75.8673 30.0986 75.8673 31.3786ZM79.9849 28.7147C79.9849 27.9439 79.9556 27.0837 79.9242 26.1618L79.9169 25.9469H82.2989C82.401 26.4313 82.435 26.881 82.469 27.3654C83.4559 26.2583 84.5788 25.7047 85.8719 25.7047C86.6206 25.7047 87.3012 25.8777 87.9477 26.2583C88.5943 26.6388 89.1047 27.227 89.479 28.0573C89.8533 28.8877 90.0575 29.9256 90.0575 31.1711C90.0575 32.4858 89.8193 33.6275 89.3769 34.5616C88.9345 35.4957 88.322 36.2222 87.5053 36.672C86.7227 37.1564 85.8039 37.3985 84.749 37.3985C84.0003 37.3985 83.2517 37.2602 82.5031 37.018V41.7578L79.9509 41.9654V28.7147H79.9849ZM86.6886 34.4924C87.1991 33.8004 87.4713 32.7625 87.4713 31.3786C87.4713 30.0986 87.2671 29.199 86.8247 28.6455C86.3824 28.0919 85.8379 27.7805 85.1233 27.7805C84.6129 27.7805 84.1705 27.8843 83.7621 28.1265C83.3538 28.3687 82.9454 28.6801 82.5711 29.0952V35.1497C82.8093 35.2881 83.1156 35.3919 83.4559 35.4611C83.7962 35.5303 84.1365 35.5649 84.4427 35.5649C85.3955 35.5649 86.1782 35.2189 86.6886 34.4924ZM113.129 37.2601C113.027 36.8103 112.993 36.3259 112.959 35.7724C112.551 36.2567 112.074 36.6373 111.428 36.9833C110.815 37.3293 110.101 37.4676 109.284 37.4676C108.637 37.4676 108.059 37.3293 107.548 37.0871C107.038 36.8449 106.596 36.4643 106.289 35.9454C105.983 35.4264 105.813 34.8037 105.813 34.0771C105.813 32.97 106.187 32.1051 106.97 31.4477C107.753 30.7904 109.046 30.479 110.849 30.479C111.53 30.479 112.21 30.5136 112.857 30.6174V30.4098C112.857 29.4065 112.653 28.7146 112.244 28.2994C111.836 27.8842 111.224 27.6767 110.441 27.6767C109.896 27.6767 109.318 27.7459 108.705 27.9188C108.093 28.0918 107.548 28.2648 107.072 28.507L106.664 26.6388C107.106 26.4312 107.719 26.2236 108.467 26.0506C109.216 25.8776 109.999 25.7738 110.815 25.7738C111.768 25.7738 112.585 25.9122 113.265 26.2236C113.946 26.535 114.456 27.0193 114.831 27.7459C115.205 28.4724 115.409 29.4411 115.409 30.652V35.1496C115.409 35.5042 115.427 35.97 115.45 36.5607C115.459 36.7769 115.468 37.0098 115.477 37.2601H113.129ZM111.632 35.1496C112.176 34.9075 112.585 34.5615 112.925 34.1809V32.0705C112.244 32.0013 111.666 31.9667 111.224 31.9667C110.169 31.9667 109.454 32.1397 109.046 32.4857C108.637 32.8316 108.433 33.2814 108.433 33.8695C108.433 34.4231 108.569 34.8383 108.876 35.115C109.182 35.3918 109.556 35.5302 110.067 35.5302C110.577 35.5648 111.087 35.4264 111.632 35.1496ZM123.746 34.562V21.2076L126.264 21V34.1123C126.264 34.5966 126.332 34.9426 126.502 35.1502C126.672 35.3578 126.911 35.4616 127.285 35.4616C127.455 35.4616 127.659 35.427 127.965 35.3578L128.272 37.226C128.034 37.3298 127.727 37.399 127.387 37.4682C127.047 37.5374 126.706 37.572 126.4 37.572C124.631 37.4682 123.746 36.4995 123.746 34.562ZM131.403 31.9322H138.651V31.2403C138.651 30.2369 138.481 29.3028 138.14 28.4725C137.8 27.6422 137.29 26.9502 136.575 26.4659C135.894 25.9469 135.01 25.7047 133.955 25.7047C132.934 25.7047 132.049 25.9469 131.266 26.4313C130.484 26.9156 129.905 27.6076 129.463 28.5071C129.021 29.4066 128.816 30.4791 128.816 31.7246C128.816 32.9355 129.021 33.9388 129.429 34.8038C129.837 35.6687 130.45 36.326 131.266 36.7758C132.083 37.2256 133.07 37.4677 134.261 37.4677C135.792 37.4677 137.188 37.1564 138.447 36.5336L137.902 34.7692C137.392 34.9767 136.881 35.1497 136.337 35.2881C135.792 35.4265 135.248 35.4957 134.737 35.4957C132.628 35.4957 131.505 34.2848 131.403 31.9322ZM136.199 30.2715C136.161 29.3889 135.923 28.7089 135.52 28.2649C135.112 27.8151 134.601 27.573 133.921 27.573C133.274 27.573 132.73 27.8151 132.321 28.2649C131.879 28.7147 131.607 29.4066 131.471 30.2715H136.199ZM140.591 28.7838C140.591 28.3382 140.573 27.7331 140.551 26.956L140.551 26.9529C140.542 26.6448 140.532 26.3097 140.523 25.9468H142.905C142.939 26.2582 142.973 26.6387 143.007 27.0885C143.014 27.1898 143.022 27.2859 143.029 27.3771C143.054 27.6906 143.075 27.9466 143.075 28.161C143.381 27.6767 143.653 27.2615 143.959 26.9155C144.232 26.5696 144.572 26.2928 144.946 26.0852C145.321 25.8776 145.763 25.7738 146.239 25.7738C146.648 25.7738 146.954 25.8084 147.26 25.9122L146.954 28.161C146.716 28.0918 146.444 28.0572 146.137 28.0572C145.525 28.0572 145.014 28.1956 144.572 28.507C144.13 28.8184 143.653 29.3373 143.143 30.0293V37.2947H140.625V28.7838H140.591ZM147.77 41.654C148.009 41.7578 148.315 41.827 148.689 41.8962C149.063 41.9654 149.472 42 149.88 42C150.765 42 151.48 41.827 152.092 41.5156C152.671 41.1697 153.215 40.6853 153.657 40.028C154.1 39.3706 154.542 38.4711 154.916 37.3986L159 25.947H156.448L154.372 32.382C154.1 33.2123 153.896 34.0081 153.691 34.8384C153.589 34.2849 153.385 33.4199 153.045 32.3474L150.969 25.9815H148.247L152.33 37.364L152.16 37.7792C151.616 39.2668 150.765 39.9934 149.642 39.9934C149.431 39.9934 149.219 39.9661 148.984 39.9358C148.954 39.932 148.924 39.9281 148.893 39.9242C148.712 39.9011 148.561 39.8627 148.43 39.8294C148.364 39.8127 148.303 39.7973 148.247 39.7858L147.77 41.654Z" fill="white"/>
<path d="M57.8971 12.2873H54.2191V14.9793H58.4916V15.7984H53.1V8.20224H58.4334V9.02656H54.2191V11.4682H57.8971V12.2873Z" fill="white"/>
<path d="M66.4072 15.7984H65.2822L61.0097 9.94478V15.7984H59.8847V8.20224H61.0097L65.2939 14.082V8.20224H66.4072V15.7984Z" fill="white"/>
<path d="M74.0838 9.02656H71.3559V15.7984H70.2426V9.02656H67.5205V8.20224H74.0838V9.02656Z" fill="white"/>
<path d="M75.3428 15.7984V8.20224H77.7385C78.4768 8.20224 79.1296 8.34832 79.697 8.64049C80.2643 8.93265 80.7015 9.34828 81.0084 9.88739C81.3193 10.4265 81.4767 11.0456 81.4806 11.7447V12.2299C81.4806 12.9464 81.3251 13.5742 81.0143 14.1133C80.7073 14.6524 80.2662 15.0663 79.6911 15.355C79.1199 15.6437 78.4535 15.7915 77.6918 15.7984H75.3428ZM76.462 9.02656V14.9793H77.6394C78.502 14.9793 79.1724 14.7393 79.6503 14.2594C80.1322 13.7794 80.3731 13.0959 80.3731 12.209V11.7656C80.3731 10.903 80.1458 10.2335 79.6911 9.75696C79.2404 9.27698 78.5992 9.03351 77.7676 9.02656H76.462Z" fill="white"/>
<path d="M87.9739 12.2873H84.2959V14.9793H88.5684V15.7984H83.1768V8.20224H88.5102V9.02656H84.2959V11.4682H87.9739V12.2873Z" fill="white"/>
<path d="M96.2042 13.3881C96.0993 14.1915 95.7671 14.8124 95.2075 15.2506C94.6518 15.6854 93.9115 15.9028 92.9867 15.9028C91.9841 15.9028 91.1798 15.5811 90.5736 14.9376C89.9713 14.2942 89.6701 13.4333 89.6701 12.3551V11.6247C89.6701 10.9186 89.81 10.2978 90.0898 9.76218C90.3734 9.22655 90.7737 8.81613 91.2905 8.53092C91.8073 8.24224 92.4058 8.0979 93.0858 8.0979C93.9873 8.0979 94.7101 8.32398 95.2541 8.77613C95.7981 9.22481 96.1148 9.84739 96.2042 10.6439H95.0793C94.9821 10.0387 94.7703 9.60044 94.4439 9.32915C94.1214 9.05786 93.6687 8.92221 93.0858 8.92221C92.3708 8.92221 91.8093 9.15872 91.4013 9.63175C90.9971 10.1048 90.7951 10.7778 90.7951 11.6508V12.3864C90.7951 13.2107 90.9874 13.8663 91.3721 14.3533C91.7568 14.8402 92.295 15.0837 92.9867 15.0837C93.6084 15.0837 94.0845 14.9585 94.4148 14.708C94.749 14.4541 94.9705 14.0142 95.0793 13.3881H96.2042Z" fill="white"/>
<path d="M99.8939 12.2664L98.8563 13.2316V15.7984H97.7372V8.20224H98.8563V11.9586L102.628 8.20224H103.98L100.64 11.5569L104.242 15.7984H102.902L99.8939 12.2664Z" fill="white"/>
<path d="M110.019 12.2873H106.341V14.9793H110.613V15.7984H105.221V8.20224H110.555V9.02656H106.341V11.4682H110.019V12.2873Z" fill="white"/>
<path d="M118.529 15.7984H117.404L113.131 9.94478V15.7984H112.006V8.20224H113.131L117.415 14.082V8.20224H118.529V15.7984Z" fill="white"/>
<path d="M123.477 15.7984V8.20224H126.252C127.173 8.20224 127.865 8.37267 128.327 8.71353C128.793 9.05438 129.026 9.55871 129.026 10.2265C129.026 10.5813 128.914 10.896 128.688 11.1708C128.463 11.4421 128.156 11.6525 127.767 11.8021C128.226 11.9169 128.587 12.136 128.852 12.4594C129.12 12.7794 129.254 13.162 129.254 13.6072C129.254 14.2889 129.007 14.8246 128.513 15.2141C128.02 15.6037 127.322 15.7984 126.421 15.7984H123.477ZM124.596 12.2455V14.9793H126.444C126.965 14.9793 127.375 14.8593 127.674 14.6194C127.977 14.3759 128.129 14.042 128.129 13.6177C128.129 12.7029 127.573 12.2455 126.462 12.2455H124.596ZM124.596 11.4421H126.287C126.776 11.4421 127.167 11.3325 127.458 11.1134C127.754 10.8943 127.901 10.5969 127.901 10.2213C127.901 9.80391 127.765 9.50132 127.493 9.3135C127.221 9.1222 126.808 9.02656 126.252 9.02656H124.596V11.4421Z" fill="white"/>
<path d="M135.712 12.2873H132.034V14.9793H136.307V15.7984H130.915V8.20224H136.248V9.02656H132.034V11.4682H135.712V12.2873Z" fill="white"/>
<path d="M138.9 15.7984H137.781V8.20224H138.9V15.7984Z" fill="white"/>
<path fill-rule="evenodd" clip-rule="evenodd" d="M57.9967 12.3845H54.3187V14.8814H58.5912V15.8957H53V8.10434H58.5329V9.12378H54.3187V11.3703H57.9967V12.3845ZM54.2189 11.4678V9.02622H58.4332V8.2019H53.0998V15.7981H58.4914V14.979H54.2189V12.2869H57.8969V11.4678H54.2189ZM66.5068 15.8957H65.2307L61.1093 10.2491V15.8957H59.7848V8.10434H61.0609L65.1939 13.7766V8.10434H66.5068V15.8957ZM65.2937 14.0816L61.0095 8.2019H59.8845V15.7981H61.0095V9.94444L65.282 15.7981H66.407V8.2019H65.2937V14.0816ZM74.1833 9.12378H71.4555V15.8957H70.1426V9.12378H67.4205V8.10434H74.1833V9.12378ZM70.2424 9.02622V15.7981H71.3557V9.02622H74.0836V8.2019H67.5203V9.02622H70.2424ZM75.2428 15.8957V8.10434H77.7383C78.4903 8.10434 79.1595 8.25323 79.7432 8.55382C80.3273 8.85461 80.7787 9.28354 81.0953 9.83936C81.4154 10.3947 81.5762 11.0304 81.5801 11.7438L81.5801 12.2296C81.5801 12.9602 81.4215 13.605 81.101 14.1609C80.7842 14.717 80.3285 15.1443 79.7365 15.4414C79.149 15.7383 78.4669 15.8886 77.6926 15.8957L75.2428 15.8957ZM76.4617 14.979V9.02622H77.7674C78.599 9.03317 79.2402 9.27664 79.6909 9.75662C80.1456 10.2331 80.3729 10.9027 80.3729 11.7652V12.2087C80.3729 13.0956 80.132 13.7791 79.6501 14.259C79.1722 14.739 78.5018 14.979 77.6392 14.979H76.4617ZM88.0735 12.3845H84.3955V14.8814H88.668V15.8957H83.0768V8.10434H88.6097V9.12378H84.3955V11.3703H88.0735V12.3845ZM84.2957 11.4678V9.02622H88.5099V8.2019H83.1766V15.7981H88.5682V14.979H84.2957V12.2869H87.9737V11.4678H84.2957ZM96.3173 13.2902L96.303 13.4001C96.1953 14.2245 95.8526 14.8699 95.2696 15.3264C94.6916 15.7787 93.9271 16 92.9865 16C91.9598 16 91.1274 15.6694 90.5 15.0034C89.8771 14.3379 89.5701 13.4513 89.5701 12.3548V11.6244C89.5701 10.9056 89.7126 10.269 90.0007 9.71746C90.2929 9.16577 90.7067 8.74065 91.241 8.44575C91.7749 8.14759 92.3908 8 93.0856 8C94.0043 8 94.7519 8.23064 95.3183 8.70126C95.8848 9.16853 96.2115 9.81559 96.3032 10.6329L96.3153 10.7411H94.9937L94.9805 10.6587C94.8854 10.0661 94.6805 9.65366 94.3791 9.40315C94.0804 9.1519 93.6534 9.01943 93.0856 9.01943C92.3957 9.01943 91.8638 9.24628 91.4773 9.69431C91.0935 10.1437 90.8946 10.7912 90.8946 11.6504V12.3861C90.8946 13.1961 91.0836 13.8284 91.4509 14.2933C91.8146 14.7537 92.3222 14.9858 92.9865 14.9858C93.5964 14.9858 94.0472 14.8627 94.3533 14.6307C94.6596 14.398 94.8739 13.9858 94.9807 13.3714L94.9948 13.2902H96.3173ZM91.401 9.63141C91.8091 9.15838 92.3706 8.92187 93.0856 8.92187C93.6685 8.92187 94.1212 9.05752 94.4437 9.32881C94.7701 9.6001 94.9819 10.0383 95.079 10.6435H96.204C96.2003 10.6107 96.1963 10.5782 96.1918 10.546C96.0882 9.79604 95.7755 9.20598 95.2539 8.77579C94.7099 8.32364 93.9871 8.09756 93.0856 8.09756C92.4056 8.09756 91.8071 8.2419 91.2903 8.53059C90.7735 8.81579 90.3732 9.22621 90.0896 9.76184C89.8098 10.2975 89.6699 10.9183 89.6699 11.6244V12.3548C89.6699 13.433 89.971 14.2938 90.5734 14.9373C91.1796 15.5807 91.9839 15.9024 92.9865 15.9024C93.9113 15.9024 94.6516 15.6851 95.2073 15.2503C95.744 14.83 96.0716 14.2416 96.19 13.4853C96.1951 13.4531 96.1997 13.4206 96.204 13.3878H95.079C94.9702 14.0138 94.7487 14.4538 94.4146 14.7077C94.0843 14.9581 93.6082 15.0833 92.9865 15.0833C92.2948 15.0833 91.7566 14.8399 91.3719 14.3529C90.9872 13.866 90.7948 13.2104 90.7948 12.3861V11.6504C90.7948 10.7774 90.9969 10.1044 91.401 9.63141ZM102.901 15.7981L99.8937 12.2661L98.8561 13.2313V15.7981H97.737V8.2019H98.8561V11.9583L102.627 8.2019H103.98L100.64 11.5565L104.242 15.7981H102.901ZM100.774 11.5617L104.455 15.8957H102.855L99.8852 12.4086L98.9559 13.2731V15.8957H97.6372V8.10434H98.9559V11.7196L102.586 8.10434H104.216L100.774 11.5617ZM110.118 12.3845H106.44V14.8814H110.713V15.8957H105.121V8.10434H110.654V9.12378H106.44V11.3703H110.118V12.3845ZM106.34 11.4678V9.02622H110.555V8.2019H105.221V15.7981H110.613V14.979H106.34V12.2869H110.018V11.4678H106.34ZM118.628 15.8957H117.352L113.231 10.2491V15.8957H111.906V8.10434H113.182L117.315 13.7766V8.10434H118.628V15.8957ZM117.415 14.0816L113.131 8.2019H112.006V15.7981H113.131V9.94444L117.403 15.7981H118.528V8.2019H117.415V14.0816ZM123.377 15.8957V8.10434H126.252C127.182 8.10434 127.899 8.27607 128.387 8.63516C128.883 8.99777 129.126 9.53371 129.126 10.2262C129.126 10.603 129.006 10.9393 128.766 11.2315C128.578 11.4572 128.338 11.6418 128.048 11.7854C128.407 11.916 128.702 12.1198 128.929 12.398C129.213 12.7366 129.353 13.1413 129.353 13.6069C129.353 14.3148 129.095 14.8796 128.576 15.2897C128.059 15.6981 127.336 15.8957 126.421 15.8957H123.377ZM128.851 12.4591C128.617 12.1725 128.307 11.9678 127.92 11.845C127.87 11.8292 127.819 11.8148 127.767 11.8017C127.817 11.7824 127.866 11.7621 127.914 11.7407C128.234 11.5968 128.492 11.4067 128.688 11.1705C128.913 10.8957 129.026 10.5809 129.026 10.2262C129.026 9.55837 128.793 9.05404 128.327 8.71319C127.864 8.37233 127.173 8.2019 126.252 8.2019H123.477V15.7981H126.421C127.322 15.7981 128.02 15.6033 128.513 15.2138C129.007 14.8242 129.254 14.2886 129.254 13.6069C129.254 13.1617 129.119 12.7791 128.851 12.4591ZM127.398 11.0354C127.667 10.8355 127.801 10.5674 127.801 10.2209C127.801 9.82534 127.674 9.55733 127.436 9.39286C127.189 9.21906 126.799 9.12378 126.252 9.12378H124.696V11.3442H126.287C126.762 11.3442 127.129 11.2376 127.398 11.0354ZM124.596 11.4418V9.02622H126.252C126.807 9.02622 127.221 9.12186 127.493 9.31316C127.765 9.50098 127.901 9.80357 127.901 10.2209C127.901 10.5966 127.754 10.894 127.458 11.1131C127.167 11.3322 126.776 11.4418 126.287 11.4418H124.596ZM135.812 12.3845H132.134V14.8814H136.406V15.8957H130.815V8.10434H136.348V9.12378H132.134V11.3703H135.812V12.3845ZM132.034 11.4678V9.02622H136.248V8.2019H130.915V15.7981H136.306V14.979H132.034V12.2869H135.712V11.4678H132.034ZM139 15.8957H137.681V8.10434H139V15.8957ZM124.596 14.979V12.2452H126.462C127.573 12.2452 128.129 12.7026 128.129 13.6173C128.129 14.0416 127.977 14.3755 127.674 14.619C127.375 14.859 126.965 14.979 126.444 14.979H124.596ZM127.611 14.5436C127.888 14.3208 128.029 14.0159 128.029 13.6173C128.029 13.1798 127.897 12.868 127.648 12.6629C127.395 12.4551 127.006 12.3428 126.462 12.3428H124.696V14.8814H126.444C126.95 14.8814 127.335 14.765 127.611 14.5436ZM138.9 15.7981V8.2019H137.781V15.7981H138.9Z" fill="white"/>
<path d="M34.3455 9.35156H20.2197C15.1996 9.35156 11.13 13.4211 11.13 18.4412V32.5671C11.13 37.5872 15.1996 41.6567 20.2197 41.6567H34.3455C39.3656 41.6567 43.4352 37.5872 43.4352 32.5671V18.4412C43.4352 13.4211 39.3656 9.35156 34.3455 9.35156Z" fill="#C8102E"/>
<path d="M17.5264 25.5042H18.3833V29.731H17.5264V28.0138H15.5914V29.731H14.7345V25.5042H15.5914V27.2044H17.5264V25.5042ZM22.3551 27.9219C22.3551 28.602 22.0151 28.9761 21.3962 28.9761C20.7773 28.9761 20.4304 28.5986 20.4304 27.8913V25.5042H19.5735V27.9185C19.5735 29.1053 20.2332 29.7854 21.3826 29.7854C22.5319 29.7854 23.2121 29.1053 23.2121 27.8811V25.5042H22.3551V27.9219ZM32.2575 28.4082L31.2986 25.5042H30.5946L29.6357 28.4082L28.7073 25.5042H27.796L29.2684 29.7276H29.9791L30.9347 26.9562L31.8937 29.731H32.6112L34.0836 25.5042H33.1927L32.2575 28.4082ZM35.6173 27.9083H37.1781V27.1432H35.6173V26.2795H37.882V25.5042H34.7739V29.7208H37.9636V28.9591H35.6173V27.9083ZM38.9838 29.7208H39.8305V25.5042H38.9838V29.7208ZM24.9055 28.8469L24.5213 29.7242H23.6473L25.4938 25.5042H26.2487L28.102 29.7242H27.2043L26.854 28.8503L24.9055 28.8469ZM25.2252 28.0852H26.514L25.8611 26.5719L25.2252 28.0852Z" fill="white"/>
<path d="M27.2825 20.1277C25.8569 20.1268 24.49 19.5601 23.4819 18.5521C22.4739 17.544 21.9072 16.1771 21.9062 14.7515H22.6646C22.6646 15.9762 23.1511 17.1508 24.0171 18.0168C24.8832 18.8829 26.0578 19.3694 27.2825 19.3694C28.5073 19.3694 29.6818 18.8829 30.5479 18.0168C31.4139 17.1508 31.9005 15.9762 31.9005 14.7515H32.6588C32.6579 16.1771 32.0912 17.544 31.0831 18.5521C30.0751 19.5601 28.7081 20.1268 27.2825 20.1277Z" fill="white"/>
</g>
<defs>
<clipPath id="clip0">
<rect width="170" height="51.0048" fill="white"/>
</clipPath>
</defs>
</svg>
