<svg width="170" height="51" viewBox="0 0 170 51" fill="none" xmlns="http://www.w3.org/2000/svg">
<path d="M158.008 0H10.6216C10.2374 0 9.8532 0 9.4656 0C8.62027 0.0122917 7.77702 0.0872976 6.9428 0.2244C6.11397 0.364774 5.31141 0.630768 4.5628 1.0132C3.8098 1.39817 3.12152 1.89832 2.5228 2.4956C1.92419 3.09318 1.42388 3.78169 1.0404 4.5356C0.653325 5.29485 0.385004 6.10899 0.2448 6.9496C0.103888 7.7822 0.0288552 8.62461 0.0204 9.469C0 9.86 0 10.2408 0 10.6284V40.375C0 40.766 0 41.1468 0.0204 41.5378C0.0291503 42.3822 0.104181 43.2246 0.2448 44.0572C0.383791 44.8859 0.64865 45.6885 1.0302 46.4372C1.80147 47.96 3.03433 49.2 4.5526 49.98C5.30153 50.3631 6.10385 50.6313 6.9326 50.7756C7.76691 50.9116 8.61016 50.9855 9.4554 50.9966C9.843 50.9966 10.2272 50.9966 10.6114 50.9966H159.361C159.746 50.9966 160.137 50.9966 160.521 50.9966C161.364 50.9862 162.205 50.9123 163.037 50.7756C163.873 50.6308 164.683 50.3626 165.441 49.98C166.196 49.5991 166.885 49.0985 167.481 48.4976C168.082 47.901 168.585 47.2124 168.97 46.4576C169.348 45.708 169.61 44.9056 169.748 44.0776C169.889 43.2448 169.967 42.4027 169.983 41.5582C169.983 41.1672 169.983 40.7864 169.983 40.3954C169.983 39.9398 169.983 39.4842 169.983 39.0354V12.002C169.983 11.5396 169.983 11.084 169.983 10.642C169.983 10.2544 169.983 9.8668 169.983 9.4826C169.968 8.63812 169.889 7.79597 169.748 6.9632C169.609 6.13551 169.346 5.33332 168.97 4.5832C168.199 3.05598 166.968 1.80953 165.451 1.02C164.693 0.641491 163.883 0.379026 163.047 0.2414C162.215 0.103552 161.374 0.0285401 160.531 0.017C160.147 0.017 159.756 0.017 159.372 0.017L158.008 0Z" fill="#B6B6B6"/>
<path d="M10.6284 49.8985C10.2442 49.8985 9.87016 49.8985 9.48936 49.8985C8.70116 49.8882 7.91477 49.82 7.13656 49.6945C6.4122 49.5714 5.70993 49.3423 5.05236 49.0145C3.74594 48.3449 2.68187 47.2832 2.00936 45.9783C1.67841 45.3208 1.44913 44.6169 1.32936 43.8907C1.19936 43.1107 1.13002 42.3218 1.12196 41.5311C1.12196 41.2659 1.10156 40.3819 1.10156 40.3819V10.6285C1.10156 10.6285 1.10156 9.75805 1.12196 9.50305C1.12784 8.71125 1.19605 7.92114 1.32596 7.14005C1.44418 6.41125 1.67351 5.7049 2.00596 5.04565C2.33644 4.39695 2.76925 3.80571 3.28776 3.29465C3.80562 2.77625 4.40093 2.34153 5.05236 2.00605C5.70846 1.6776 6.40972 1.44843 7.13316 1.32605C7.91358 1.19944 8.70222 1.13012 9.49276 1.11865H10.6284H159.365H160.514C161.298 1.12706 162.08 1.19525 162.853 1.32265C163.584 1.44251 164.292 1.67175 164.954 2.00265C166.264 2.67809 167.327 3.74872 167.994 5.06265C168.324 5.71689 168.553 6.41727 168.674 7.14005C168.805 7.927 168.877 8.72247 168.892 9.52005C168.892 9.87705 168.892 10.2613 168.892 10.6421C168.892 11.1147 168.892 11.5635 168.892 12.0021V38.9981C168.892 39.4571 168.892 39.9025 168.892 40.3581C168.892 40.8137 168.892 41.1435 168.892 41.5311C168.879 42.3128 168.808 43.0925 168.677 43.8634C168.561 44.5949 168.332 45.3038 167.997 45.9647C167.322 47.2646 166.26 48.3231 164.958 48.9941C164.297 49.3254 163.59 49.5546 162.86 49.6741C162.082 49.8004 161.295 49.8686 160.507 49.8781C160.14 49.8781 159.752 49.8781 159.378 49.8781H10.6284V49.8985Z" fill="black"/>
<path fill-rule="evenodd" clip-rule="evenodd" d="M117.417 21.2076V34.562C117.417 36.4995 118.301 37.4682 120.071 37.572C120.377 37.572 120.717 37.5374 121.058 37.4682C121.398 37.399 121.704 37.3298 121.942 37.226L121.636 35.3578C121.33 35.427 121.126 35.4616 120.956 35.4616C120.581 35.4616 120.343 35.3578 120.173 35.1502C120.003 34.9426 119.935 34.5966 119.935 34.1123V21L117.417 21.2076ZM92.2013 33.8699C92.7798 35.0462 93.6305 35.9112 94.7194 36.5339C95.8424 37.1567 97.1355 37.468 98.7008 37.468C99.6196 37.468 100.538 37.3642 101.491 37.1566C102.444 36.9491 103.329 36.6377 104.179 36.2225V29.8221H98.2584V31.8287H101.695V34.9078C101.253 35.0808 100.811 35.2192 100.3 35.2884C99.7897 35.3922 99.3133 35.4268 98.8029 35.4268C97.714 35.4268 96.7952 35.1846 96.0806 34.7003C95.366 34.1813 94.8555 33.524 94.5152 32.6936C94.175 31.8633 94.0048 30.8946 94.0048 29.8221C94.0048 28.6112 94.209 27.5387 94.6514 26.6737C95.0597 25.8088 95.6722 25.1515 96.4549 24.7017C97.2376 24.2519 98.1563 24.0098 99.1772 24.0098C100.402 24.0098 101.695 24.3211 103.057 24.9785L103.703 22.9718C103.022 22.6259 102.308 22.3837 101.525 22.1761C100.743 22.0031 99.9258 21.8993 99.0751 21.8993C97.6119 21.8993 96.2847 22.2107 95.1278 22.7989C93.9368 23.387 93.018 24.2865 92.3374 25.4628C91.6568 26.6391 91.3165 28.0922 91.3165 29.7875C91.3165 31.3443 91.6228 32.7282 92.2013 33.8699ZM57.0835 33.2125H63.0726L64.5698 37.2603H67.3262L61.3371 22.0722H58.853L53 37.2603H55.6202L57.0835 33.2125ZM62.2899 31.1367H57.8321L59.4315 26.7428L60.044 24.7708C60.2482 25.4973 60.4864 26.1893 60.6905 26.7774L62.2899 31.1367ZM68.3202 26.1618V26.1619V26.1619V26.1619V26.162V26.162V26.162V26.162V26.162C68.3516 27.0839 68.3809 27.944 68.3809 28.7147H68.3469V41.9654L70.8991 41.7578V37.018C71.6477 37.2602 72.3963 37.3985 73.145 37.3985C74.1999 37.3985 75.1186 37.1564 75.9013 36.672C76.718 36.2222 77.3305 35.4957 77.7729 34.5616C78.2153 33.6275 78.4535 32.4858 78.4535 31.1711C78.4535 29.9256 78.2493 28.8877 77.875 28.0573C77.5007 27.227 76.9902 26.6388 76.3437 26.2583C75.6971 25.8777 75.0166 25.7047 74.2679 25.7047C72.9748 25.7047 71.8519 26.2583 70.865 27.3654C70.831 26.881 70.797 26.4313 70.6949 25.9469H68.3129L68.3202 26.1618ZM75.8673 31.3786C75.8673 32.7625 75.595 33.8004 75.0846 34.4924C74.5402 35.2189 73.7915 35.5649 72.8387 35.5649C72.5324 35.5649 72.1922 35.5303 71.8519 35.4611C71.5116 35.3919 71.2053 35.2881 70.9671 35.1497V29.0952C71.3414 28.6801 71.7498 28.3687 72.1581 28.1265C72.5665 27.8843 73.0089 27.7805 73.5193 27.7805C74.2339 27.7805 74.7784 28.0919 75.2207 28.6455C75.6631 29.199 75.8673 30.0986 75.8673 31.3786ZM79.9849 28.7147C79.9849 27.9439 79.9556 27.0837 79.9242 26.1618L79.9169 25.9469H82.2989C82.401 26.4313 82.435 26.881 82.469 27.3654C83.4559 26.2583 84.5788 25.7047 85.8719 25.7047C86.6206 25.7047 87.3012 25.8777 87.9477 26.2583C88.5943 26.6388 89.1047 27.227 89.479 28.0573C89.8533 28.8877 90.0575 29.9256 90.0575 31.1711C90.0575 32.4858 89.8193 33.6275 89.3769 34.5616C88.9345 35.4957 88.322 36.2222 87.5053 36.672C86.7227 37.1564 85.8039 37.3985 84.749 37.3985C84.0003 37.3985 83.2517 37.2602 82.5031 37.018V41.7578L79.9509 41.9654V28.7147H79.9849ZM86.6886 34.4924C87.1991 33.8004 87.4713 32.7625 87.4713 31.3786C87.4713 30.0986 87.2671 29.199 86.8247 28.6455C86.3824 28.0919 85.8379 27.7805 85.1233 27.7805C84.6129 27.7805 84.1705 27.8843 83.7621 28.1265C83.3538 28.3687 82.9454 28.6801 82.5711 29.0952V35.1497C82.8093 35.2881 83.1156 35.3919 83.4559 35.4611C83.7962 35.5303 84.1365 35.5649 84.4427 35.5649C85.3955 35.5649 86.1782 35.2189 86.6886 34.4924ZM113.129 37.2601C113.027 36.8103 112.993 36.3259 112.959 35.7724C112.551 36.2567 112.074 36.6373 111.428 36.9833C110.815 37.3293 110.101 37.4676 109.284 37.4676C108.637 37.4676 108.059 37.3293 107.548 37.0871C107.038 36.8449 106.596 36.4643 106.289 35.9454C105.983 35.4264 105.813 34.8037 105.813 34.0771C105.813 32.97 106.187 32.1051 106.97 31.4477C107.753 30.7904 109.046 30.479 110.849 30.479C111.53 30.479 112.21 30.5136 112.857 30.6174V30.4098C112.857 29.4065 112.653 28.7146 112.244 28.2994C111.836 27.8842 111.224 27.6767 110.441 27.6767C109.896 27.6767 109.318 27.7459 108.705 27.9188C108.093 28.0918 107.548 28.2648 107.072 28.507L106.664 26.6388C107.106 26.4312 107.719 26.2236 108.467 26.0506C109.216 25.8776 109.999 25.7738 110.815 25.7738C111.768 25.7738 112.585 25.9122 113.265 26.2236C113.946 26.535 114.456 27.0193 114.831 27.7459C115.205 28.4724 115.409 29.4411 115.409 30.652V35.1496C115.409 35.5042 115.427 35.97 115.45 36.5607C115.459 36.7769 115.468 37.0098 115.477 37.2601H113.129ZM111.632 35.1496C112.176 34.9075 112.585 34.5615 112.925 34.1809V32.0705C112.244 32.0013 111.666 31.9667 111.224 31.9667C110.169 31.9667 109.454 32.1397 109.046 32.4857C108.637 32.8316 108.433 33.2814 108.433 33.8695C108.433 34.4231 108.569 34.8383 108.876 35.115C109.182 35.3918 109.556 35.5302 110.067 35.5302C110.577 35.5648 111.087 35.4264 111.632 35.1496ZM123.746 34.562V21.2076L126.264 21V34.1123C126.264 34.5966 126.332 34.9426 126.502 35.1502C126.672 35.3578 126.911 35.4616 127.285 35.4616C127.455 35.4616 127.659 35.427 127.965 35.3578L128.272 37.226C128.034 37.3298 127.727 37.399 127.387 37.4682C127.047 37.5374 126.706 37.572 126.4 37.572C124.631 37.4682 123.746 36.4995 123.746 34.562ZM131.403 31.9322H138.651V31.2403C138.651 30.2369 138.481 29.3028 138.14 28.4725C137.8 27.6422 137.29 26.9502 136.575 26.4659C135.894 25.9469 135.01 25.7047 133.955 25.7047C132.934 25.7047 132.049 25.9469 131.266 26.4313C130.484 26.9156 129.905 27.6076 129.463 28.5071C129.021 29.4066 128.816 30.4791 128.816 31.7246C128.816 32.9355 129.021 33.9388 129.429 34.8038C129.837 35.6687 130.45 36.326 131.266 36.7758C132.083 37.2256 133.07 37.4677 134.261 37.4677C135.792 37.4677 137.188 37.1564 138.447 36.5336L137.902 34.7692C137.392 34.9767 136.881 35.1497 136.337 35.2881C135.792 35.4265 135.248 35.4957 134.737 35.4957C132.628 35.4957 131.505 34.2848 131.403 31.9322ZM136.199 30.2715C136.161 29.3889 135.923 28.7089 135.52 28.2649C135.112 27.8151 134.601 27.573 133.921 27.573C133.274 27.573 132.73 27.8151 132.321 28.2649C131.879 28.7147 131.607 29.4066 131.471 30.2715H136.199ZM140.591 28.7838C140.591 28.3382 140.573 27.7331 140.551 26.956L140.551 26.9529C140.542 26.6448 140.532 26.3097 140.523 25.9468H142.905C142.939 26.2582 142.973 26.6387 143.007 27.0885C143.014 27.1898 143.022 27.2859 143.029 27.3771C143.054 27.6906 143.075 27.9466 143.075 28.161C143.381 27.6767 143.653 27.2615 143.959 26.9155C144.232 26.5696 144.572 26.2928 144.946 26.0852C145.321 25.8776 145.763 25.7738 146.239 25.7738C146.648 25.7738 146.954 25.8084 147.26 25.9122L146.954 28.161C146.716 28.0918 146.444 28.0572 146.137 28.0572C145.525 28.0572 145.014 28.1956 144.572 28.507C144.13 28.8184 143.653 29.3373 143.143 30.0293V37.2947H140.625V28.7838H140.591ZM147.77 41.654C148.009 41.7578 148.315 41.827 148.689 41.8962C149.063 41.9654 149.472 42 149.88 42C150.765 42 151.48 41.827 152.092 41.5156C152.671 41.1697 153.215 40.6853 153.657 40.028C154.1 39.3706 154.542 38.4711 154.916 37.3986L159 25.947H156.448L154.372 32.382C154.1 33.2123 153.896 34.0081 153.691 34.8384C153.589 34.2849 153.385 33.4199 153.045 32.3474L150.969 25.9815H148.247L152.33 37.364L152.16 37.7792C151.616 39.2668 150.765 39.9934 149.642 39.9934C149.431 39.9934 149.219 39.9661 148.984 39.9358C148.954 39.932 148.924 39.9281 148.893 39.9242C148.712 39.9011 148.561 39.8627 148.43 39.8294C148.364 39.8127 148.303 39.7973 148.247 39.7858L147.77 41.654Z" fill="white"/>
<path d="M71.1733 14.8931H75.368V15.7139H70V8.10171H71.1733V14.8931Z" fill="white"/>
<path d="M83.107 12.1535C83.107 12.8994 82.9611 13.5512 82.6693 14.1088C82.3775 14.663 81.9641 15.0865 81.4291 15.3793C80.8942 15.6721 80.27 15.8184 79.5567 15.8184C78.8596 15.8184 78.2415 15.6721 77.7025 15.3793C77.1635 15.083 76.744 14.663 76.4441 14.1193C76.1482 13.5721 75.9962 12.9395 75.9881 12.2215V11.6725C75.9881 10.9406 76.1361 10.294 76.4319 9.73289C76.7278 9.17174 77.1452 8.74303 77.6843 8.44677C78.2274 8.14702 78.8475 7.99715 79.5445 7.99715C80.2538 7.99715 80.8779 8.14528 81.417 8.44154C81.9601 8.73432 82.3775 9.16128 82.6693 9.72243C82.9611 10.2801 83.107 10.9301 83.107 11.6725V12.1535ZM81.9459 11.6621C81.9459 10.7593 81.7351 10.0675 81.3136 9.5865C80.8921 9.10203 80.3024 8.85979 79.5445 8.85979C78.8069 8.85979 78.2253 9.10203 77.7998 9.5865C77.3783 10.0675 77.1615 10.7367 77.1493 11.5941V12.1535C77.1493 13.0284 77.3621 13.7167 77.7876 14.2186C78.2172 14.717 78.8069 14.9663 79.5567 14.9663C80.3105 14.9663 80.8942 14.731 81.3076 14.2605C81.7209 13.7864 81.9337 13.1085 81.9459 12.2267V11.6621Z" fill="white"/>
<path d="M88.1042 12.6345H86.0251V15.7139H84.8518V8.10171H87.782C88.779 8.10171 89.545 8.29689 90.08 8.68726C90.6191 9.07763 90.8886 9.64575 90.8886 10.3916C90.8886 10.8657 90.7386 11.2787 90.4387 11.6307C90.1428 11.9827 89.7295 12.2459 89.1985 12.4202L91.2777 15.6511V15.7139H90.0253L88.1042 12.6345ZM86.0251 11.8137H87.8185C88.3981 11.8137 88.8581 11.6847 89.1985 11.4268C89.543 11.1689 89.7153 10.8238 89.7153 10.3916C89.7153 9.9211 89.5511 9.56036 89.2228 9.30941C88.8986 9.05846 88.4285 8.93124 87.8124 8.92776H86.0251V11.8137Z" fill="white"/>
<path d="M97.4178 13.7272H93.7094L92.8765 15.7139H91.6728L95.0529 8.10171H96.0742L99.4604 15.7139H98.2628L97.4178 13.7272ZM94.062 12.9011H97.0713L95.5636 9.34078L94.062 12.9011Z" fill="white"/>
<path d="M108.628 13.7272H104.92L104.087 15.7139H102.883L106.263 8.10171H107.285L110.671 15.7139H109.473L108.628 13.7272ZM105.272 12.9011H108.282L106.774 9.34078L105.272 12.9011Z" fill="white"/>
<path d="M118.55 12.1535C118.55 12.8889 118.414 13.5233 118.142 14.0566C117.871 14.5863 117.49 15.0011 116.999 15.3009L118.58 16.3674L117.784 17L115.917 15.7243C115.625 15.7871 115.317 15.8184 114.993 15.8184C114.296 15.8184 113.678 15.6721 113.139 15.3793C112.6 15.083 112.18 14.663 111.881 14.1193C111.585 13.5721 111.433 12.9395 111.425 12.2215V11.6725C111.425 10.9406 111.572 10.294 111.868 9.73289C112.164 9.17174 112.582 8.74303 113.121 8.44677C113.664 8.14702 114.284 7.99715 114.981 7.99715C115.694 7.99715 116.32 8.14528 116.859 8.44154C117.403 8.7378 117.82 9.16477 118.112 9.72243C118.404 10.2766 118.55 10.9249 118.55 11.6673V12.1535ZM117.382 11.6621C117.382 10.7663 117.174 10.0762 116.756 9.59173C116.343 9.10377 115.751 8.85979 114.981 8.85979C114.247 8.85979 113.668 9.10203 113.242 9.5865C112.821 10.0675 112.604 10.7367 112.592 11.5941V12.1535C112.592 13.0249 112.803 13.7115 113.224 14.2134C113.65 14.7153 114.239 14.9663 114.993 14.9663C115.747 14.9663 116.331 14.731 116.744 14.2605C117.157 13.7864 117.37 13.1085 117.382 12.2267V11.6621Z" fill="white"/>
<path d="M126.58 8.10171V13.2776C126.576 13.9956 126.313 14.5829 125.79 15.0394C125.271 15.496 124.566 15.7522 123.674 15.808L123.364 15.8184C122.396 15.8184 121.624 15.5936 121.048 15.144C120.473 14.6944 120.181 14.0757 120.173 13.288V8.10171H121.328V13.2567C121.328 13.8074 121.504 14.2361 121.857 14.5428C122.209 14.846 122.712 14.9976 123.364 14.9976C124.025 14.9976 124.53 14.846 124.878 14.5428C125.231 14.2395 125.407 13.8126 125.407 13.2619V8.10171H126.58Z" fill="white"/>
<path d="M129.675 15.7139H128.507V8.10171H129.675V15.7139ZM129.638 6H131L129.371 7.53707H128.465L129.638 6Z" fill="white"/>
<path fill-rule="evenodd" clip-rule="evenodd" d="M75.4681 14.793V15.8138H69.9V8.00161H71.2733V14.793H75.4681ZM71.1733 14.893V8.10161H70V15.7138H75.3681V14.893H71.1733ZM82.7578 14.1553C82.4571 14.7264 82.0299 15.1644 81.4772 15.4669C80.9252 15.769 80.284 15.9183 79.5567 15.9183C78.8453 15.9183 78.2104 15.7688 77.6548 15.4671C77.099 15.1616 76.6655 14.7276 76.3566 14.1675C76.0519 13.604 75.8964 12.9542 75.8882 12.2225L75.8882 12.2214L75.8882 11.6724C75.8882 10.9268 76.039 10.2638 76.3435 9.68615C76.6482 9.10831 77.0793 8.66511 77.636 8.35912C78.1956 8.05024 78.8327 7.89705 79.5446 7.89705C80.2679 7.89705 80.909 8.0482 81.4648 8.35361C82.0258 8.65613 82.4573 9.09782 82.758 9.67612C83.0585 10.2504 83.2071 10.9168 83.2071 11.6724V12.1534C83.2071 12.9125 83.0584 13.5809 82.7578 14.1553ZM82.6693 9.72234C82.3775 9.16118 81.9601 8.73422 81.417 8.44144C80.878 8.14518 80.2538 7.99705 79.5446 7.99705C78.8475 7.99705 78.2274 8.14692 77.6843 8.44667C77.1453 8.74293 76.7278 9.17164 76.432 9.73279C76.1361 10.2939 75.9882 10.9405 75.9882 11.6724V12.2214C75.9963 12.9394 76.1483 13.572 76.4441 14.1192C76.744 14.6629 77.1635 15.0829 77.7025 15.3792C78.2416 15.672 78.8596 15.8183 79.5567 15.8183C80.27 15.8183 80.8942 15.672 81.4292 15.3792C81.9641 15.0864 82.3775 14.6629 82.6693 14.1087C82.9612 13.5511 83.1071 12.8993 83.1071 12.1534V11.6724C83.1071 10.93 82.9612 10.28 82.6693 9.72234ZM91.2777 15.651V15.7138H90.0253L88.1043 12.6344H86.0251V15.7138H84.8518V8.10161H87.7821C88.7791 8.10161 89.5451 8.2968 90.0801 8.68716C90.6191 9.07753 90.8886 9.64566 90.8886 10.3915C90.8886 10.8656 90.7386 11.2786 90.4387 11.6306C90.1612 11.9608 89.7803 12.2128 89.2959 12.3866C89.2639 12.3981 89.2315 12.4092 89.1985 12.4201L91.2777 15.651ZM89.3514 12.4729L91.3777 15.6216V15.8138H89.9699L88.0488 12.7344H86.1251V15.8138H84.7518V8.00161H87.7821C88.79 8.00161 89.5801 8.19861 90.1389 8.60628C90.7072 9.01793 90.9886 9.61813 90.9886 10.3915C90.9886 10.8886 90.8307 11.3247 90.515 11.6952C90.2284 12.0362 89.8389 12.2945 89.3514 12.4729ZM98.2628 15.7138L97.4178 13.7271H93.7094L92.8765 15.7138H91.6728L95.0529 8.10161H96.0743L99.4605 15.7138H98.2628ZM93.7759 13.8271L92.9431 15.8138H91.519L94.9879 8.00161H96.1392L99.6144 15.8138H98.1967L97.3517 13.8271H93.7759ZM109.473 15.7138L108.628 13.7271H104.92L104.087 15.7138H102.883L106.263 8.10161H107.285L110.671 15.7138H109.473ZM104.986 13.8271L104.153 15.8138H102.729L106.198 8.00161H107.35L110.825 15.8138H109.407L108.562 13.8271H104.986ZM118.231 14.1021C117.976 14.6002 117.626 15.001 117.181 15.3027L118.749 16.3607L117.788 17.1241L115.896 15.8308C115.609 15.8893 115.308 15.9183 114.993 15.9183C114.282 15.9183 113.647 15.7688 113.091 15.4671C112.535 15.1616 112.102 14.7276 111.793 14.1675C111.488 13.604 111.333 12.9542 111.325 12.2225L111.325 12.2214L111.325 11.6724C111.325 10.9268 111.475 10.2638 111.78 9.68615C112.085 9.10831 112.516 8.66511 113.072 8.35912C113.632 8.05024 114.269 7.89705 114.981 7.89705C115.708 7.89705 116.351 8.04817 116.907 8.35365C117.468 8.65957 117.9 9.1011 118.2 9.67597C118.501 10.2469 118.65 10.9117 118.65 11.6672V12.1534C118.65 12.9011 118.511 13.5519 118.231 14.1021ZM118.142 14.0565C117.888 14.5526 117.538 14.9479 117.091 15.2423C117.061 15.2622 117.03 15.2817 116.999 15.3008L118.58 16.3673L117.784 16.9999L115.917 15.7242C115.625 15.787 115.317 15.8183 114.993 15.8183C114.296 15.8183 113.678 15.672 113.139 15.3792C112.6 15.0829 112.18 14.6629 111.881 14.1192C111.585 13.572 111.433 12.9394 111.425 12.2214V11.6724C111.425 10.9405 111.573 10.2939 111.868 9.73279C112.164 9.17164 112.582 8.74293 113.121 8.44667C113.664 8.14692 114.284 7.99705 114.981 7.99705C115.694 7.99705 116.32 8.14518 116.86 8.44144M116.68 9.65627C116.289 9.19532 115.728 8.95969 114.981 8.95969C114.272 8.95969 113.721 9.19264 113.317 9.6524C112.916 10.1101 112.704 10.7534 112.692 11.5949V12.1534C112.692 13.0089 112.899 13.67 113.3 14.1486M112.592 11.594C112.604 10.7366 112.821 10.0674 113.242 9.5864C113.668 9.10193 114.247 8.85969 114.981 8.85969C115.751 8.85969 116.343 9.10367 116.756 9.59163C117.174 10.0761 117.382 10.7662 117.382 11.662V12.2266C117.37 13.1084 117.157 13.7863 116.744 14.2604C116.331 14.7309 115.747 14.9662 114.993 14.9662C114.239 14.9662 113.65 14.7152 113.224 14.2133C112.803 13.7114 112.592 13.0248 112.592 12.1534V11.594ZM113.3 14.1486C113.704 14.6245 114.264 14.8662 114.993 14.8662C115.724 14.8662 116.278 14.639 116.669 14.1946C117.061 13.7446 117.27 13.0931 117.282 12.2258V11.662C117.282 10.7806 117.076 10.1165 116.68 9.65627M126.68 8.00161V13.2775C126.676 14.0229 126.401 14.6383 125.856 15.1144C125.316 15.5895 124.588 15.8509 123.681 15.9077L123.678 15.9079L123.364 15.9184C122.381 15.9183 121.585 15.69 120.987 15.2227C120.385 14.7527 120.081 14.1043 120.073 13.289L120.073 13.2879L120.073 8.00161H121.428V13.2566C121.428 13.7839 121.595 14.1827 121.922 14.467C122.25 14.7493 122.726 14.8975 123.364 14.8975C124.011 14.8975 124.489 14.749 124.812 14.4672C125.139 14.1865 125.307 13.7893 125.307 13.2618V8.00161H126.68ZM121.857 14.5427C121.504 14.236 121.328 13.8073 121.328 13.2566V8.10161H120.173V13.2879C120.181 14.0756 120.473 14.6943 121.048 15.1439C121.624 15.5935 122.396 15.8183 123.364 15.8183L123.674 15.8079C124.566 15.7521 125.271 15.4959 125.79 15.0394C126.313 14.5828 126.576 13.9955 126.58 13.2775V8.10161H125.407V13.2618C125.407 13.8125 125.231 14.2394 124.878 14.5427C124.53 14.8459 124.025 14.9975 123.364 14.9975C122.712 14.9975 122.209 14.8459 121.857 14.5427ZM129.775 15.8138H128.407V8.00161H129.775V15.8138ZM129.589 5.8999H131.252L129.41 7.63697H128.263L129.589 5.8999ZM96.9203 12.801L95.5638 9.59757L94.2127 12.801H96.9203ZM95.5636 9.34068L94.062 12.901H97.0713L95.5636 9.34068ZM108.282 12.901L106.774 9.34068L105.272 12.901H108.282ZM105.423 12.801L106.774 9.59757L108.131 12.801H105.423ZM129.638 5.9999H131L129.371 7.53697H128.465L129.638 5.9999ZM129.675 15.7138V8.10161H128.507V15.7138H129.675Z" fill="white"/>
<path d="M34.3502 9.3501H20.2266C15.2074 9.3501 11.1384 13.419 11.1384 18.4383V32.5619C11.1384 37.5812 15.2074 41.6501 20.2266 41.6501H34.3502C39.3695 41.6501 43.4384 37.5812 43.4384 32.5619V18.4383C43.4384 13.419 39.3695 9.3501 34.3502 9.3501Z" fill="#C8102E"/>
<path d="M17.5338 25.5H18.3906V29.7262H17.5338V28.0092H15.5992V29.7262H14.7424V25.5H15.5992V27.2H17.5338V25.5ZM22.3618 27.9174C22.3618 28.5974 22.0218 28.9714 21.403 28.9714C20.7842 28.9714 20.4374 28.5974 20.4374 27.88V25.5H19.5806V27.914C19.5806 29.1006 20.2402 29.7806 21.3894 29.7806C22.5386 29.7806 23.2186 29.1006 23.2186 27.8766V25.5H22.3618V27.9174ZM32.2626 28.4036L31.3038 25.5H30.6L29.648 28.407L28.713 25.5H27.8018L29.274 29.7262H29.9846L30.94 26.9518L31.8988 29.7262H32.6162L34.0884 25.5H33.1976L32.2626 28.4036ZM35.6218 27.9038H37.1824V27.1388H35.6218V26.2752H37.8862V25.5H34.7786V29.716H37.9678V28.9544H35.6218V27.9038ZM38.9878 29.716H39.8344V25.5H38.9878V29.716ZM24.9118 28.8422L24.5276 29.7194H23.6538L25.5 25.5H26.2548L28.1078 29.7194H27.2238L26.86 28.8456L24.9118 28.8422ZM25.2314 28.0806H26.52L25.874 26.571L25.2314 28.0806Z" fill="white"/>
<path d="M27.2885 20.1247C25.8631 20.1238 24.4964 19.5571 23.4885 18.5493C22.4806 17.5414 21.914 16.1746 21.9131 14.7493H22.6713C22.6713 15.9738 23.1577 17.1482 24.0236 18.0141C24.8895 18.88 26.0639 19.3665 27.2885 19.3665C28.513 19.3665 29.6874 18.88 30.5533 18.0141C31.4192 17.1482 31.9057 15.9738 31.9057 14.7493H32.6639C32.663 16.1746 32.0964 17.5414 31.0885 18.5493C30.0806 19.5571 28.7139 20.1238 27.2885 20.1247Z" fill="white"/>
</svg>
