<svg width="170" height="52" viewBox="0 0 170 52" fill="none" xmlns="http://www.w3.org/2000/svg">
<g clip-path="url(#clip0)">
<path d="M158.008 0.5H10.6216C10.2374 0.5 9.8532 0.5 9.4656 0.5C8.62027 0.512292 7.77702 0.587298 6.9428 0.7244C6.11397 0.864774 5.3114 1.13077 4.5628 1.5132C3.8098 1.89817 3.12152 2.39832 2.5228 2.9956C1.92419 3.59318 1.42388 4.28169 1.0404 5.0356C0.653325 5.79485 0.385004 6.60899 0.2448 7.4496C0.103888 8.2822 0.0288552 9.12461 0.0204 9.969C0 10.36 0 10.7408 0 11.1284V40.875C0 41.266 0 41.6468 0.0204 42.0378C0.0291503 42.8822 0.104181 43.7246 0.2448 44.5572C0.383791 45.3859 0.64865 46.1885 1.0302 46.9372C1.80147 48.46 3.03433 49.7 4.5526 50.48C5.30153 50.8631 6.10385 51.1313 6.9326 51.2756C7.76691 51.4116 8.61016 51.4855 9.4554 51.4966C9.843 51.4966 10.2272 51.4966 10.6114 51.4966H159.361C159.746 51.4966 160.137 51.4966 160.521 51.4966C161.364 51.4862 162.205 51.4123 163.037 51.2756C163.873 51.1308 164.683 50.8626 165.441 50.48C166.196 50.0991 166.885 49.5985 167.481 48.9976C168.082 48.401 168.585 47.7124 168.97 46.9576C169.348 46.208 169.61 45.4056 169.748 44.5776C169.889 43.7448 169.967 42.9027 169.983 42.0582C169.983 41.6672 169.983 41.2864 169.983 40.8954C169.983 40.4398 169.983 39.9842 169.983 39.5354V12.502C169.983 12.0396 169.983 11.584 169.983 11.142C169.983 10.7544 169.983 10.3668 169.983 9.9826C169.968 9.13813 169.889 8.29598 169.748 7.4632C169.609 6.63551 169.346 5.83332 168.97 5.0832C168.199 3.55598 166.968 2.30953 165.451 1.52C164.693 1.14149 163.883 0.879026 163.047 0.7414C162.215 0.603552 161.374 0.52854 160.531 0.517C160.147 0.517 159.756 0.517 159.372 0.517L158.008 0.5Z" fill="#B6B6B6"/>
<path d="M10.6284 50.3985C10.2442 50.3985 9.87016 50.3985 9.48936 50.3985C8.70116 50.3882 7.91477 50.3201 7.13656 50.1945C6.4122 50.0714 5.70993 49.8423 5.05236 49.5145C3.74594 48.8449 2.68187 47.7832 2.00936 46.4783C1.67841 45.8208 1.44913 45.1169 1.32936 44.3907C1.19936 43.6107 1.13002 42.8218 1.12196 42.0311C1.12196 41.7659 1.10156 40.8819 1.10156 40.8819V11.1285C1.10156 11.1285 1.10156 10.2581 1.12196 10.0031C1.12784 9.21125 1.19605 8.42114 1.32596 7.64005C1.44418 6.91125 1.67351 6.2049 2.00596 5.54565C2.33644 4.89695 2.76925 4.30571 3.28776 3.79465C3.80562 3.27625 4.40093 2.84153 5.05236 2.50605C5.70846 2.1776 6.40972 1.94843 7.13316 1.82605C7.91358 1.69944 8.70222 1.63012 9.49276 1.61865H10.6284H159.365H160.514C161.298 1.62706 162.08 1.69525 162.853 1.82265C163.584 1.94251 164.292 2.17175 164.954 2.50265C166.264 3.17809 167.327 4.24872 167.994 5.56265C168.324 6.21689 168.553 6.91727 168.674 7.64005C168.805 8.427 168.877 9.22247 168.892 10.0201C168.892 10.3771 168.892 10.7613 168.892 11.1421C168.892 11.6147 168.892 12.0635 168.892 12.5021V39.4981C168.892 39.9571 168.892 40.4025 168.892 40.8581C168.892 41.3137 168.892 41.6435 168.892 42.0311C168.879 42.8128 168.808 43.5925 168.677 44.3634C168.561 45.0949 168.332 45.8038 167.997 46.4647C167.322 47.7646 166.26 48.8231 164.958 49.4941C164.297 49.8254 163.59 50.0546 162.86 50.1741C162.082 50.3004 161.295 50.3686 160.507 50.3781C160.14 50.3781 159.752 50.3781 159.378 50.3781H10.6284V50.3985Z" fill="black"/>
<path fill-rule="evenodd" clip-rule="evenodd" d="M117.417 21.7076V35.062C117.417 36.9995 118.301 37.9682 120.071 38.072C120.377 38.072 120.717 38.0374 121.058 37.9682C121.398 37.899 121.704 37.8298 121.942 37.726L121.636 35.8578C121.33 35.927 121.126 35.9616 120.956 35.9616C120.581 35.9616 120.343 35.8578 120.173 35.6502C120.003 35.4426 119.935 35.0966 119.935 34.6123V21.5L117.417 21.7076ZM92.2013 34.3699C92.7798 35.5462 93.6305 36.4112 94.7194 37.0339C95.8424 37.6567 97.1355 37.968 98.7008 37.968C99.6196 37.968 100.538 37.8642 101.491 37.6566C102.444 37.4491 103.329 37.1377 104.179 36.7225V30.3221H98.2584V32.3287H101.695V35.4078C101.253 35.5808 100.811 35.7192 100.3 35.7884C99.7897 35.8922 99.3133 35.9268 98.8029 35.9268C97.714 35.9268 96.7952 35.6846 96.0806 35.2003C95.366 34.6813 94.8555 34.024 94.5152 33.1936C94.175 32.3633 94.0048 31.3946 94.0048 30.3221C94.0048 29.1112 94.209 28.0387 94.6514 27.1737C95.0597 26.3088 95.6722 25.6515 96.4549 25.2017C97.2376 24.7519 98.1563 24.5098 99.1772 24.5098C100.402 24.5098 101.695 24.8211 103.057 25.4785L103.703 23.4718C103.022 23.1259 102.308 22.8837 101.525 22.6761C100.743 22.5031 99.9258 22.3993 99.0751 22.3993C97.6119 22.3993 96.2847 22.7107 95.1278 23.2989C93.9368 23.887 93.018 24.7865 92.3374 25.9628C91.6568 27.1391 91.3165 28.5922 91.3165 30.2875C91.3165 31.8443 91.6228 33.2282 92.2013 34.3699ZM57.0835 33.7125H63.0726L64.5698 37.7603H67.3262L61.3371 22.5722H58.853L53 37.7603H55.6202L57.0835 33.7125ZM62.2899 31.6367H57.8321L59.4315 27.2428L60.044 25.2708C60.2482 25.9973 60.4864 26.6893 60.6905 27.2774L62.2899 31.6367ZM68.3202 26.6618V26.6619V26.6619V26.6619V26.662V26.662V26.662V26.662V26.662C68.3516 27.5839 68.3809 28.444 68.3809 29.2147H68.3469V42.4654L70.8991 42.2578V37.518C71.6477 37.7602 72.3963 37.8985 73.145 37.8985C74.1999 37.8985 75.1186 37.6564 75.9013 37.172C76.718 36.7222 77.3305 35.9957 77.7729 35.0616C78.2153 34.1275 78.4535 32.9858 78.4535 31.6711C78.4535 30.4256 78.2493 29.3877 77.875 28.5573C77.5007 27.727 76.9902 27.1388 76.3437 26.7583C75.6971 26.3777 75.0166 26.2047 74.2679 26.2047C72.9748 26.2047 71.8519 26.7583 70.865 27.8654C70.831 27.381 70.797 26.9313 70.6949 26.4469H68.3129L68.3202 26.6618ZM75.8673 31.8786C75.8673 33.2625 75.595 34.3004 75.0846 34.9924C74.5402 35.7189 73.7915 36.0649 72.8387 36.0649C72.5324 36.0649 72.1922 36.0303 71.8519 35.9611C71.5116 35.8919 71.2053 35.7881 70.9671 35.6497V29.5952C71.3414 29.1801 71.7498 28.8687 72.1581 28.6265C72.5665 28.3843 73.0089 28.2805 73.5193 28.2805C74.2339 28.2805 74.7784 28.5919 75.2207 29.1455C75.6631 29.699 75.8673 30.5986 75.8673 31.8786ZM79.9849 29.2147C79.9849 28.4439 79.9556 27.5837 79.9242 26.6618L79.9169 26.4469H82.2989C82.401 26.9313 82.435 27.381 82.469 27.8654C83.4559 26.7583 84.5788 26.2047 85.8719 26.2047C86.6206 26.2047 87.3012 26.3777 87.9477 26.7583C88.5943 27.1388 89.1047 27.727 89.479 28.5573C89.8533 29.3877 90.0575 30.4256 90.0575 31.6711C90.0575 32.9858 89.8193 34.1275 89.3769 35.0616C88.9345 35.9957 88.322 36.7222 87.5053 37.172C86.7227 37.6564 85.8039 37.8985 84.749 37.8985C84.0003 37.8985 83.2517 37.7602 82.5031 37.518V42.2578L79.9509 42.4654V29.2147H79.9849ZM86.6886 34.9924C87.1991 34.3004 87.4713 33.2625 87.4713 31.8786C87.4713 30.5986 87.2671 29.699 86.8247 29.1455C86.3824 28.5919 85.8379 28.2805 85.1233 28.2805C84.6129 28.2805 84.1705 28.3843 83.7621 28.6265C83.3538 28.8687 82.9454 29.1801 82.5711 29.5952V35.6497C82.8093 35.7881 83.1156 35.8919 83.4559 35.9611C83.7962 36.0303 84.1365 36.0649 84.4427 36.0649C85.3955 36.0649 86.1782 35.7189 86.6886 34.9924ZM113.129 37.7601C113.027 37.3103 112.993 36.8259 112.959 36.2724C112.551 36.7567 112.074 37.1373 111.428 37.4833C110.815 37.8293 110.101 37.9676 109.284 37.9676C108.637 37.9676 108.059 37.8293 107.548 37.5871C107.038 37.3449 106.596 36.9643 106.289 36.4454C105.983 35.9264 105.813 35.3037 105.813 34.5771C105.813 33.47 106.187 32.6051 106.97 31.9477C107.753 31.2904 109.046 30.979 110.849 30.979C111.53 30.979 112.21 31.0136 112.857 31.1174V30.9098C112.857 29.9065 112.653 29.2146 112.244 28.7994C111.836 28.3842 111.224 28.1767 110.441 28.1767C109.896 28.1767 109.318 28.2459 108.705 28.4188C108.093 28.5918 107.548 28.7648 107.072 29.007L106.664 27.1388C107.106 26.9312 107.719 26.7236 108.467 26.5506C109.216 26.3776 109.999 26.2738 110.815 26.2738C111.768 26.2738 112.585 26.4122 113.265 26.7236C113.946 27.035 114.456 27.5193 114.831 28.2459C115.205 28.9724 115.409 29.9411 115.409 31.152V35.6496C115.409 36.0042 115.427 36.47 115.45 37.0607C115.459 37.2769 115.468 37.5098 115.477 37.7601H113.129ZM111.632 35.6496C112.176 35.4075 112.585 35.0615 112.925 34.6809V32.5705C112.244 32.5013 111.666 32.4667 111.224 32.4667C110.169 32.4667 109.454 32.6397 109.046 32.9857C108.637 33.3316 108.433 33.7814 108.433 34.3695C108.433 34.9231 108.569 35.3383 108.876 35.615C109.182 35.8918 109.556 36.0302 110.067 36.0302C110.577 36.0648 111.087 35.9264 111.632 35.6496ZM123.746 35.062V21.7076L126.264 21.5V34.6123C126.264 35.0966 126.332 35.4426 126.502 35.6502C126.672 35.8578 126.911 35.9616 127.285 35.9616C127.455 35.9616 127.659 35.927 127.965 35.8578L128.272 37.726C128.034 37.8298 127.727 37.899 127.387 37.9682C127.047 38.0374 126.706 38.072 126.4 38.072C124.631 37.9682 123.746 36.9995 123.746 35.062ZM131.403 32.4322H138.651V31.7403C138.651 30.7369 138.481 29.8028 138.14 28.9725C137.8 28.1422 137.29 27.4502 136.575 26.9659C135.894 26.4469 135.01 26.2047 133.955 26.2047C132.934 26.2047 132.049 26.4469 131.266 26.9313C130.484 27.4156 129.905 28.1076 129.463 29.0071C129.021 29.9066 128.816 30.9791 128.816 32.2246C128.816 33.4355 129.021 34.4388 129.429 35.3038C129.837 36.1687 130.45 36.826 131.266 37.2758C132.083 37.7256 133.07 37.9677 134.261 37.9677C135.792 37.9677 137.188 37.6564 138.447 37.0336L137.902 35.2692C137.392 35.4767 136.881 35.6497 136.337 35.7881C135.792 35.9265 135.248 35.9957 134.737 35.9957C132.628 35.9957 131.505 34.7848 131.403 32.4322ZM136.199 30.7715C136.161 29.8889 135.923 29.2089 135.52 28.7649C135.112 28.3151 134.601 28.073 133.921 28.073C133.274 28.073 132.73 28.3151 132.321 28.7649C131.879 29.2147 131.607 29.9066 131.471 30.7715H136.199ZM140.591 29.2838C140.591 28.8382 140.573 28.2331 140.551 27.456L140.551 27.4529C140.542 27.1448 140.532 26.8097 140.523 26.4468H142.905C142.939 26.7582 142.973 27.1387 143.007 27.5885C143.014 27.6898 143.022 27.7859 143.029 27.8771C143.054 28.1906 143.075 28.4466 143.075 28.661C143.381 28.1767 143.653 27.7615 143.959 27.4155C144.232 27.0696 144.572 26.7928 144.946 26.5852C145.321 26.3776 145.763 26.2738 146.239 26.2738C146.648 26.2738 146.954 26.3084 147.26 26.4122L146.954 28.661C146.716 28.5918 146.444 28.5572 146.137 28.5572C145.525 28.5572 145.014 28.6956 144.572 29.007C144.13 29.3184 143.653 29.8373 143.143 30.5293V37.7947H140.625V29.2838H140.591ZM147.77 42.154C148.009 42.2578 148.315 42.327 148.689 42.3962C149.063 42.4654 149.472 42.5 149.88 42.5C150.765 42.5 151.48 42.327 152.092 42.0156C152.671 41.6697 153.215 41.1853 153.657 40.528C154.1 39.8706 154.542 38.9711 154.916 37.8986L159 26.447H156.448L154.372 32.882C154.1 33.7123 153.896 34.5081 153.691 35.3384C153.589 34.7849 153.385 33.9199 153.045 32.8474L150.969 26.4815H148.247L152.33 37.864L152.16 38.2792C151.616 39.7668 150.765 40.4934 149.642 40.4934C149.431 40.4934 149.219 40.4661 148.984 40.4358C148.954 40.432 148.924 40.4281 148.893 40.4242C148.712 40.4011 148.561 40.3627 148.43 40.3294C148.364 40.3127 148.303 40.2973 148.247 40.2858L147.77 42.154Z" fill="white"/>
<path d="M53.77 10.1741H55.981C56.6264 10.1741 57.2094 10.2658 57.73 10.4491C58.258 10.6324 58.7054 10.8891 59.072 11.2191C59.446 11.5418 59.732 11.9268 59.93 12.3741C60.1354 12.8214 60.238 13.3091 60.238 13.8371C60.238 14.3651 60.1354 14.8528 59.93 15.3001C59.732 15.7474 59.446 16.1361 59.072 16.4661C58.7054 16.7888 58.258 17.0418 57.73 17.2251C57.2094 17.4084 56.6264 17.5001 55.981 17.5001H53.77V10.1741ZM56.014 16.2681C56.4027 16.2681 56.762 16.2131 57.092 16.1031C57.422 15.9931 57.7044 15.8354 57.939 15.6301C58.181 15.4174 58.368 15.1608 58.5 14.8601C58.632 14.5594 58.698 14.2184 58.698 13.8371C58.698 13.4558 58.632 13.1148 58.5 12.8141C58.368 12.5134 58.181 12.2604 57.939 12.0551C57.7044 11.8424 57.422 11.6811 57.092 11.5711C56.762 11.4611 56.4027 11.4061 56.014 11.4061H55.31V16.2681H56.014Z" fill="white"/>
<path d="M61.5847 10.1741H65.9847V11.3951H63.1247V13.1661H65.8527V14.3871H63.1247V16.2791H66.0177V17.5001H61.5847V10.1741Z" fill="white"/>
<path d="M72.248 15.4101C72.248 15.7328 72.182 16.0298 72.05 16.3011C71.918 16.5724 71.731 16.8071 71.489 17.0051C71.2544 17.2031 70.9684 17.3571 70.631 17.4671C70.2937 17.5771 69.9197 17.6321 69.509 17.6321C69.1204 17.6321 68.728 17.5881 68.332 17.5001C67.9434 17.4194 67.584 17.2984 67.254 17.1371L67.573 15.9601C67.837 16.0848 68.1304 16.1911 68.453 16.2791C68.783 16.3671 69.1204 16.4111 69.465 16.4111C69.8317 16.4111 70.1287 16.3378 70.356 16.1911C70.5907 16.0371 70.708 15.8171 70.708 15.5311C70.708 15.2671 70.598 15.0508 70.378 14.8821C70.158 14.7134 69.8207 14.5374 69.366 14.3541C69.0434 14.2221 68.7574 14.0864 68.508 13.9471C68.2587 13.8004 68.0497 13.6391 67.881 13.4631C67.7124 13.2871 67.5804 13.0928 67.485 12.8801C67.397 12.6601 67.353 12.4144 67.353 12.1431C67.353 11.4684 67.5804 10.9514 68.035 10.5921C68.497 10.2254 69.113 10.0421 69.883 10.0421C70.279 10.0421 70.642 10.0788 70.972 10.1521C71.302 10.2254 71.621 10.3428 71.929 10.5041L71.643 11.6811C71.3864 11.5564 71.115 11.4574 70.829 11.3841C70.5504 11.3034 70.2644 11.2631 69.971 11.2631C69.6484 11.2631 69.388 11.3254 69.19 11.4501C68.992 11.5674 68.893 11.7544 68.893 12.0111C68.893 12.1284 68.9077 12.2311 68.937 12.3191C68.9737 12.4071 69.036 12.4914 69.124 12.5721C69.212 12.6454 69.3257 12.7224 69.465 12.8031C69.6117 12.8764 69.795 12.9608 70.015 13.0561C70.3084 13.1808 70.587 13.3128 70.851 13.4521C71.1224 13.5914 71.3607 13.7528 71.566 13.9361C71.7714 14.1194 71.9364 14.3321 72.061 14.5741C72.1857 14.8161 72.248 15.0948 72.248 15.4101Z" fill="white"/>
<path d="M77.1468 10.0421C77.3302 10.0421 77.5172 10.0531 77.7078 10.0751C77.8985 10.0898 78.0818 10.1154 78.2578 10.1521C78.4412 10.1814 78.6135 10.2218 78.7748 10.2731C78.9435 10.3171 79.0938 10.3721 79.2258 10.4381L79.0058 11.5711C78.7712 11.4831 78.5108 11.4134 78.2248 11.3621C77.9388 11.3034 77.6565 11.2741 77.3778 11.2741C76.5418 11.2741 75.9002 11.4904 75.4528 11.9231C75.0128 12.3558 74.7928 12.9938 74.7928 13.8371C74.7928 14.6804 75.0128 15.3184 75.4528 15.7511C75.9002 16.1838 76.5418 16.4001 77.3778 16.4001C77.6565 16.4001 77.9388 16.3744 78.2248 16.3231C78.5108 16.2644 78.7712 16.1911 79.0058 16.1031L79.2258 17.2361C79.0938 17.3021 78.9435 17.3608 78.7748 17.4121C78.6135 17.4561 78.4412 17.4928 78.2578 17.5221C78.0818 17.5588 77.8985 17.5844 77.7078 17.5991C77.5172 17.6211 77.3302 17.6321 77.1468 17.6321C76.5162 17.6321 75.9588 17.5368 75.4748 17.3461C74.9908 17.1554 74.5838 16.8914 74.2538 16.5541C73.9238 16.2168 73.6745 15.8171 73.5058 15.3551C73.3372 14.8931 73.2528 14.3871 73.2528 13.8371C73.2528 13.2871 73.3372 12.7811 73.5058 12.3191C73.6745 11.8571 73.9238 11.4574 74.2538 11.1201C74.5838 10.7828 74.9908 10.5188 75.4748 10.3281C75.9588 10.1374 76.5162 10.0421 77.1468 10.0421Z" fill="white"/>
<path d="M85.1449 10.1741H86.6849V14.8601C86.6849 15.2781 86.6152 15.6594 86.4759 16.0041C86.3365 16.3414 86.1385 16.6311 85.8819 16.8731C85.6252 17.1151 85.3062 17.3021 84.9249 17.4341C84.5509 17.5661 84.1292 17.6321 83.6599 17.6321C83.1832 17.6321 82.7579 17.5661 82.3839 17.4341C82.0099 17.3021 81.6945 17.1151 81.4379 16.8731C81.1812 16.6311 80.9832 16.3414 80.8439 16.0041C80.7045 15.6594 80.6349 15.2781 80.6349 14.8601V10.1741H82.1749V14.9261C82.1749 15.3881 82.2995 15.7511 82.5489 16.0151C82.7982 16.2718 83.1685 16.4001 83.6599 16.4001C84.1512 16.4001 84.5215 16.2718 84.7709 16.0151C85.0202 15.7511 85.1449 15.3881 85.1449 14.9261V10.1741ZM82.8239 9.51409L83.6489 8.19409H85.4199L84.0669 9.51409H82.8239Z" fill="white"/>
<path d="M93.6649 15.4431C93.6649 15.7658 93.5915 16.0554 93.4449 16.3121C93.2982 16.5614 93.0929 16.7741 92.8289 16.9501C92.5649 17.1261 92.2459 17.2618 91.8719 17.3571C91.4979 17.4524 91.0835 17.5001 90.6289 17.5001H88.4179V10.1741H90.9259C91.2999 10.1741 91.6372 10.2181 91.9379 10.3061C92.2459 10.3868 92.5062 10.5041 92.7189 10.6581C92.9315 10.8048 93.0965 10.9844 93.2139 11.1971C93.3312 11.4098 93.3899 11.6444 93.3899 11.9011C93.3899 12.3631 93.2542 12.7371 92.9829 13.0231C92.7189 13.3091 92.3559 13.5254 91.8939 13.6721C92.4219 13.7528 92.8472 13.9434 93.1699 14.2441C93.4999 14.5374 93.6649 14.9371 93.6649 15.4431ZM92.1469 15.3331C92.1469 15.0031 92.0075 14.7538 91.7289 14.5851C91.4502 14.4164 91.0909 14.3321 90.6509 14.3321H89.9139V16.3341H90.7279C91.2119 16.3341 91.5675 16.2424 91.7949 16.0591C92.0295 15.8758 92.1469 15.6338 92.1469 15.3331ZM90.5739 13.1661C90.9552 13.1661 91.2669 13.0818 91.5089 12.9131C91.7509 12.7444 91.8719 12.5061 91.8719 12.1981C91.8719 11.9048 91.7692 11.6884 91.5639 11.5491C91.3585 11.4098 91.0799 11.3401 90.7279 11.3401H89.9139V13.1661H90.5739Z" fill="white"/>
<path d="M100.342 12.4071C100.342 12.9278 100.196 13.3678 99.9022 13.7271C99.6089 14.0791 99.1872 14.3504 98.6372 14.5411L101.112 17.5001H99.1982L97.0752 14.8271H96.5802V17.5001H95.0402V10.1741H97.2292C97.6839 10.1741 98.1019 10.2218 98.4832 10.3171C98.8645 10.4051 99.1909 10.5444 99.4622 10.7351C99.7409 10.9184 99.9572 11.1494 100.111 11.4281C100.265 11.7068 100.342 12.0331 100.342 12.4071ZM98.8022 12.4401C98.8022 12.0661 98.6555 11.7948 98.3622 11.6261C98.0689 11.4574 97.6875 11.3731 97.2182 11.3731H96.5802V13.6611H97.0422C97.5702 13.6611 97.9955 13.5584 98.3182 13.3531C98.6409 13.1478 98.8022 12.8434 98.8022 12.4401Z" fill="white"/>
<path d="M102.103 10.1741H106.503V11.3951H103.643V13.1661H106.371V14.3871H103.643V16.2791H106.536V17.5001H102.103V10.1741Z" fill="white"/>
<path d="M109.642 10.1741V16.2681H112.37V17.5001H108.102V10.1741H109.642Z" fill="white"/>
<path d="M120.454 13.8371C120.454 14.3578 120.369 14.8491 120.201 15.3111C120.039 15.7658 119.801 16.1654 119.486 16.5101C119.178 16.8548 118.793 17.1298 118.331 17.3351C117.876 17.5331 117.355 17.6321 116.769 17.6321C116.182 17.6321 115.658 17.5331 115.196 17.3351C114.741 17.1298 114.356 16.8548 114.041 16.5101C113.725 16.1654 113.487 15.7658 113.326 15.3111C113.164 14.8491 113.084 14.3578 113.084 13.8371C113.084 13.3238 113.164 12.8361 113.326 12.3741C113.487 11.9121 113.725 11.5088 114.041 11.1641C114.356 10.8194 114.741 10.5481 115.196 10.3501C115.658 10.1448 116.182 10.0421 116.769 10.0421C117.355 10.0421 117.876 10.1448 118.331 10.3501C118.793 10.5481 119.178 10.8194 119.486 11.1641C119.801 11.5088 120.039 11.9121 120.201 12.3741C120.369 12.8361 120.454 13.3238 120.454 13.8371ZM116.769 16.4221C117.128 16.4221 117.44 16.3561 117.704 16.2241C117.975 16.0921 118.199 15.9124 118.375 15.6851C118.558 15.4504 118.694 15.1754 118.782 14.8601C118.87 14.5448 118.914 14.2038 118.914 13.8371C118.914 13.4704 118.87 13.1294 118.782 12.8141C118.694 12.4988 118.558 12.2274 118.375 12.0001C118.199 11.7654 117.975 11.5821 117.704 11.4501C117.44 11.3181 117.128 11.2521 116.769 11.2521C116.409 11.2521 116.094 11.3181 115.823 11.4501C115.559 11.5821 115.335 11.7654 115.152 12.0001C114.976 12.2274 114.844 12.4988 114.756 12.8141C114.668 13.1294 114.624 13.4704 114.624 13.8371C114.624 14.2038 114.668 14.5448 114.756 14.8601C114.844 15.1754 114.976 15.4504 115.152 15.6851C115.335 15.9124 115.559 16.0921 115.823 16.2241C116.094 16.3561 116.409 16.4221 116.769 16.4221Z" fill="white"/>
<path d="M124.446 10.1741H128.846V11.3951H125.986V13.1661H128.714V14.3871H125.986V16.2791H128.879V17.5001H124.446V10.1741Z" fill="white"/>
<path d="M135.34 17.5001L131.919 12.7041V17.5001H130.445V10.1741H131.919L135.34 14.9701V10.1741H136.814V17.5001H135.34Z" fill="white"/>
<path d="M34.3502 9.8501H20.2266C15.2074 9.8501 11.1384 13.919 11.1384 18.9383V33.0619C11.1384 38.0812 15.2074 42.1501 20.2266 42.1501H34.3502C39.3695 42.1501 43.4384 38.0812 43.4384 33.0619V18.9383C43.4384 13.919 39.3695 9.8501 34.3502 9.8501Z" fill="#C8102E"/>
<path d="M17.5338 26H18.3906V30.2262H17.5338V28.5092H15.5992V30.2262H14.7424V26H15.5992V27.7H17.5338V26ZM22.3618 28.4174C22.3618 29.0974 22.0218 29.4714 21.403 29.4714C20.7842 29.4714 20.4374 29.0974 20.4374 28.38V26H19.5806V28.414C19.5806 29.6006 20.2402 30.2806 21.3894 30.2806C22.5386 30.2806 23.2186 29.6006 23.2186 28.3766V26H22.3618V28.4174ZM32.2626 28.9036L31.3038 26H30.6L29.648 28.907L28.713 26H27.8018L29.274 30.2262H29.9846L30.94 27.4518L31.8988 30.2262H32.6162L34.0884 26H33.1976L32.2626 28.9036ZM35.6218 28.4038H37.1824V27.6388H35.6218V26.7752H37.8862V26H34.7786V30.216H37.9678V29.4544H35.6218V28.4038ZM38.9878 30.216H39.8344V26H38.9878V30.216ZM24.9118 29.3422L24.5276 30.2194H23.6538L25.5 26H26.2548L28.1078 30.2194H27.2238L26.86 29.3456L24.9118 29.3422ZM25.2314 28.5806H26.52L25.874 27.071L25.2314 28.5806Z" fill="white"/>
<path d="M27.2885 20.6247C25.8631 20.6238 24.4964 20.0571 23.4885 19.0493C22.4806 18.0414 21.914 16.6746 21.9131 15.2493H22.6713C22.6713 16.4738 23.1577 17.6482 24.0236 18.5141C24.8895 19.38 26.0639 19.8665 27.2885 19.8665C28.513 19.8665 29.6874 19.38 30.5533 18.5141C31.4192 17.6482 31.9057 16.4738 31.9057 15.2493H32.6639C32.663 16.6746 32.0964 18.0414 31.0885 19.0493C30.0806 20.0571 28.7139 20.6238 27.2885 20.6247V20.6247Z" fill="white"/>
</g>
<defs>
<clipPath id="clip0">
<rect width="170" height="51" fill="white" transform="translate(0 0.5)"/>
</clipPath>
</defs>
</svg>
