<svg width="43" height="41" viewBox="0 0 43 41" fill="none" xmlns="http://www.w3.org/2000/svg">
<g filter="url(#filter0_d_5984_63467)">
<path d="M14.2073 12.8795C11.4979 12.8795 10.7885 12.8795 8.07784 12.8795C6.77587 12.8795 6.50116 13.127 6.50116 14.2871C6.50116 17.5939 6.49855 20.9007 6.50116 24.2075C6.50376 26.9467 8.60254 28.8685 11.6179 28.8732C17.0367 28.8815 20.4568 28.8768 25.8756 28.8744C27.0382 28.8744 27.382 28.5579 27.382 27.4905C27.3846 24.223 27.3872 20.9555 27.382 17.6879C27.3768 14.7595 25.2988 12.8795 22.0751 12.8783C19.4517 12.8771 16.8308 12.8795 14.2073 12.8795ZM36.497 20.8781C36.497 18.5423 36.5101 16.2065 36.4814 13.8719C36.4775 13.5708 36.3434 13.1281 36.113 13.0127C35.8968 12.9044 35.4151 13.071 35.1495 13.2436C32.9648 14.6703 30.7944 16.116 28.6475 17.5892C28.404 17.7569 28.2087 18.1306 28.2009 18.4138C28.1592 20.0357 28.1983 21.6599 28.1684 23.2818C28.1605 23.7351 28.3415 24.0076 28.7295 24.2599C30.1395 25.1797 31.5287 26.1269 32.927 27.0598C33.7317 27.5964 34.5259 28.1474 35.3526 28.6543C35.9854 29.0422 36.4333 28.8149 36.4905 28.12C36.5049 27.9427 36.497 27.7642 36.497 27.5857C36.497 25.3487 36.497 23.1128 36.497 20.8757V20.8781Z" fill="white"/>
</g>
<defs>
<filter id="filter0_d_5984_63467" x="-4.5" y="0.87793" width="52" height="52" filterUnits="userSpaceOnUse" color-interpolation-filters="sRGB">
<feFlood flood-opacity="0" result="BackgroundImageFix"/>
<feColorMatrix in="SourceAlpha" type="matrix" values="0 0 0 0 0 0 0 0 0 0 0 0 0 0 0 0 0 0 127 0" result="hardAlpha"/>
<feOffset dy="6"/>
<feGaussianBlur stdDeviation="3"/>
<feColorMatrix type="matrix" values="0 0 0 0 0 0 0 0 0 0 0 0 0 0 0 0 0 0 0.2 0"/>
<feBlend mode="normal" in2="BackgroundImageFix" result="effect1_dropShadow_5984_63467"/>
<feBlend mode="normal" in="SourceGraphic" in2="effect1_dropShadow_5984_63467" result="shape"/>
</filter>
</defs>
</svg>
