<svg width="41" height="10" viewBox="0 0 41 10" fill="none" xmlns="http://www.w3.org/2000/svg">
<path fill-rule="evenodd" clip-rule="evenodd" d="M33.0674 3.07755C33.2203 3.34155 33.2703 3.64192 33.2869 3.9796L33.3086 4.42968V7.57695L33.3307 8.02751C33.3751 8.76332 33.9173 9.30739 34.6582 9.35367L35.1061 9.37587V4.42968L35.1283 3.9796C35.1467 3.6457 35.1962 3.33966 35.3515 3.07377C35.5097 2.80104 35.7368 2.57477 36.01 2.41767C36.2832 2.26057 36.5929 2.17817 36.908 2.17874C37.2231 2.17932 37.5326 2.26285 37.8052 2.42094C38.0779 2.57904 38.3041 2.80613 38.4613 3.07943C38.6142 3.34344 38.6619 3.64948 38.6803 3.9796L38.7025 4.42827V7.57695L38.7247 8.02751C38.7709 8.7671 39.3089 9.31117 40.0522 9.35367L40.5 9.37587V3.9796C40.5 3.02539 40.1213 2.11024 39.4473 1.43539C38.7732 0.760525 37.8589 0.381204 36.9055 0.380829C36.3951 0.38029 35.8906 0.488747 35.4255 0.698953C34.9604 0.90916 34.5455 1.21628 34.2085 1.59978C33.8713 1.21643 33.4564 0.909385 32.9914 0.699116C32.5263 0.488848 32.0218 0.380181 31.5115 0.380356C30.765 0.380356 30.0722 0.607051 29.4984 0.99857C29.1482 0.607523 28.3648 0.380356 27.9151 0.380356V9.37587L28.3648 9.35367C29.1171 9.30408 29.6607 8.77466 29.69 8.02751L29.714 7.57695V4.42968L29.7362 3.9796C29.7551 3.64003 29.8023 3.34155 29.9557 3.07566C30.114 2.8031 30.341 2.57688 30.614 2.41959C30.887 2.2623 31.1965 2.17943 31.5115 2.17927C31.8268 2.17934 32.1365 2.26237 32.4096 2.42003C32.6827 2.57769 32.9095 2.80445 33.0674 3.07755ZM2.2975 9.35414L2.74723 9.37587H9.48846L9.46628 8.9272C9.40541 8.18761 8.88206 7.64732 8.14069 7.59915L7.69096 7.57695H3.64669L9.03873 2.1788L9.01655 1.7306C8.98163 0.983457 8.4361 0.443642 7.69096 0.402553L7.24123 0.382245L0.5 0.380356L0.52218 0.830439C0.581168 1.56294 1.11207 2.11457 1.8473 2.15707L2.2975 2.17927H6.34177L0.94973 7.57743L0.97191 8.02751C1.01627 8.76899 1.55094 9.30597 2.2975 9.35367V9.35414ZM26.1506 1.69707C26.5681 2.11472 26.8992 2.61056 27.1251 3.15629C27.351 3.70202 27.4672 4.28694 27.4672 4.87764C27.4672 5.46834 27.351 6.05326 27.1251 6.59899C26.8992 7.14472 26.5681 7.64056 26.1506 8.05821C25.3073 8.90149 24.164 9.37518 22.9719 9.37518C21.7797 9.37518 20.6364 8.90149 19.7931 8.05821C18.038 6.3018 18.038 3.45348 19.7931 1.69707C20.2101 1.27957 20.7052 0.948355 21.2502 0.722351C21.7951 0.496347 22.3792 0.379976 22.969 0.379884C23.5599 0.379473 24.145 0.495639 24.6909 0.721736C25.2368 0.947832 25.7329 1.27942 26.1506 1.69754V1.69707ZM24.8788 2.97081C25.3844 3.4771 25.6683 4.16356 25.6683 4.87929C25.6683 5.59503 25.3844 6.28148 24.8788 6.78778C24.373 7.29369 23.687 7.57787 22.9719 7.57787C22.2567 7.57787 21.5708 7.29369 21.0649 6.78778C20.5594 6.28148 20.2754 5.59503 20.2754 4.87929C20.2754 4.16356 20.5594 3.4771 21.0649 2.97081C21.5708 2.4649 22.2567 2.18071 22.9719 2.18071C23.687 2.18071 24.373 2.4649 24.8788 2.97081ZM13.5365 0.379884C14.1264 0.380038 14.7105 0.496483 15.2554 0.722569C15.8004 0.948655 16.2955 1.27995 16.7125 1.69754C18.468 3.45348 18.468 6.30227 16.7125 8.05821C15.8692 8.90149 14.7258 9.37518 13.5337 9.37518C12.3415 9.37518 11.1982 8.90149 10.3549 8.05821C8.59986 6.3018 8.59986 3.45348 10.3549 1.69707C10.7719 1.27957 11.267 0.948355 11.812 0.722351C12.3569 0.496347 12.941 0.379976 13.5308 0.379884H13.5365ZM15.4407 2.96987C15.9463 3.47618 16.2304 4.16273 16.2304 4.87858C16.2304 5.59444 15.9463 6.28099 15.4407 6.7873C14.9348 7.29321 14.2488 7.5774 13.5337 7.5774C12.8185 7.5774 12.1326 7.29321 11.6267 6.7873C11.1212 6.28101 10.8372 5.59456 10.8372 4.87882C10.8372 4.16308 11.1212 3.47663 11.6267 2.97034C12.1326 2.46443 12.8185 2.18024 13.5337 2.18024C14.2488 2.18024 14.9348 2.46443 15.4407 2.97034V2.96987Z" fill="white"/>
</svg>
