<svg xmlns="http://www.w3.org/2000/svg" width="2192" height="924" viewBox="0 0 2192 924" fill="none">
<g opacity="0.2">
<g style="mix-blend-mode:overlay" opacity="0.4">
<path fill-rule="evenodd" clip-rule="evenodd" d="M594.484 401.891L720.97 754.102C731.506 784.344 716.279 799.572 686.933 788.14L334.721 661.653C304.479 651.117 271.68 618.318 262.03 588.962L135.544 236.751C125.008 206.509 140.235 191.282 169.581 202.714L521.793 329.2C551.139 340.632 583.938 373.432 594.484 401.891Z" fill="white"/>
</g>
<g style="mix-blend-mode:overlay" opacity="0.3">
<path fill-rule="evenodd" clip-rule="evenodd" d="M1513.96 261.358L1866.17 134.872C1896.42 124.336 1911.64 139.563 1900.21 168.909L1773.72 521.12C1763.19 551.362 1730.39 584.162 1701.03 593.811L1348.82 720.298C1318.58 730.834 1303.35 715.607 1314.78 686.26L1441.27 334.05C1452.7 304.703 1485.5 271.904 1513.96 261.358Z" fill="white"/>
</g>
</g>
<g style="mix-blend-mode:soft-light" opacity="0.2">
<path fill-rule="evenodd" clip-rule="evenodd" d="M1728.18 837.817L1389.69 678.206C1360.86 664.271 1360.86 642.736 1389.69 630.069L1728.18 470.458C1757.02 456.524 1803.41 456.524 1830.99 470.458L2169.48 630.069C2198.31 644.003 2198.31 665.538 2169.48 678.206L1830.99 837.817C1802.15 850.484 1755.77 850.484 1728.18 837.817Z" fill="white"/>
</g>
<g style="mix-blend-mode:soft-light" opacity="0.2">
<path fill-rule="evenodd" clip-rule="evenodd" d="M671.432 472.199L132.794 218.21C114.234 208.089 118.43 184.703 145.402 184.703L672.297 184.703L836.72 184.702L1388.71 181.5C1388.71 181.5 1410.06 200.718 1373.66 218.21L835.019 472.199C789.135 492.357 715.321 492.357 671.432 472.199Z" fill="white"/>
</g>
</svg>