<svg width="584" height="64" viewBox="0 0 584 64" fill="none" xmlns="http://www.w3.org/2000/svg">
<path d="M34.5 8C34.5 6.61929 35.6193 5.5 37 5.5H56C57.3807 5.5 58.5 6.61929 58.5 8V27C58.5 28.3807 57.3807 29.5 56 29.5H37C35.6193 29.5 34.5 28.3807 34.5 27V8Z" stroke="#333333"/>
<path d="M42 11H52" stroke="#FF6F3D" stroke-width="2" stroke-linecap="round" stroke-linejoin="round"/>
<path d="M44.2472 42.2442L51.1678 45.993C51.5139 46.1804 51.5177 46.6758 51.1745 46.8686L44.2947 50.7325C43.9624 50.9191 43.5519 50.6803 43.5498 50.2992L43.509 42.6865C43.507 42.3065 43.913 42.0632 44.2472 42.2442Z" fill="url(#paint0_linear_1043_16799)" stroke="#333333" stroke-linecap="round" stroke-linejoin="round"/>
<rect x="34.5" y="34.5" width="24" height="24" rx="2.5" stroke="#333333"/>
<rect x="9.5" y="38.5" width="16" height="16" rx="0.5" stroke="#333333"/>
<rect x="9.5" y="38.5" width="16" height="4" rx="0.5" fill="#D9F4FF" stroke="#333333"/>
<rect x="5.5" y="34.5" width="24" height="24" rx="2.5" stroke="#333333"/>
<path d="M40.437 23.0901C40.4405 23.083 40.4437 23.0757 40.4469 23.0684C40.5195 22.8969 40.8323 22.4893 41.4197 22.5002C42.0644 22.5122 42.3893 22.84 42.4581 22.9389L44.199 26.5H38.7956L39.4438 25.1535L40.437 23.0901Z" stroke="#333333" stroke-linecap="round" stroke-linejoin="round"/>
<path d="M46.779 19.3361C46.7828 19.3272 46.7863 19.3182 46.7895 19.3091C46.8639 19.0998 47.0529 18.7565 47.3601 18.4755C47.6586 18.2024 48.0543 17.9993 48.5681 18.0107C49.6812 18.0355 50.2854 18.7427 50.4299 19.0317L50.4305 19.0328L54.1886 26.5H43.7539L46.779 19.3361Z" stroke="#333333" stroke-linecap="round" stroke-linejoin="round"/>
<circle cx="40" cy="18" r="1.5" fill="url(#paint1_linear_1043_16799)" stroke="#333333"/>
<rect x="5.5" y="5.5" width="24" height="24" rx="2.5" stroke="#333333"/>
<path fill-rule="evenodd" clip-rule="evenodd" d="M17.3958 15.5C17.3958 15.2239 17.6197 15 17.8958 15H25.5C25.7761 15 26 15.2239 26 15.5C26 15.7761 25.7761 16 25.5 16H17.8958C17.6197 16 17.3958 15.7761 17.3958 15.5ZM9 18.5186C9 18.2425 9.22386 18.0186 9.5 18.0186H25.5C25.7761 18.0186 26 18.2425 26 18.5186C26 18.7948 25.7761 19.0186 25.5 19.0186H9.5C9.22386 19.0186 9 18.7948 9 18.5186ZM9 21.5932C9 21.317 9.22386 21.0932 9.5 21.0932H17.9272C18.2034 21.0932 18.4272 21.317 18.4272 21.5932C18.4272 21.8693 18.2034 22.0932 17.9272 22.0932H9.5C9.22386 22.0932 9 21.8693 9 21.5932ZM9 24.5C9 24.2239 9.22386 24 9.5 24H16.2189C16.495 24 16.7189 24.2239 16.7189 24.5C16.7189 24.7761 16.495 25 16.2189 25H9.5C9.22386 25 9 24.7761 9 24.5ZM18.2814 24.5C18.2814 24.2239 18.5053 24 18.7814 24H25.5C25.7761 24 26 24.2239 26 24.5C26 24.7761 25.7761 25 25.5 25H18.7814C18.5053 25 18.2814 24.7761 18.2814 24.5Z" fill="#333333"/>
<path fill-rule="evenodd" clip-rule="evenodd" d="M9.5 15C9.22386 15 9 15.2239 9 15.5C9 15.7761 9.22386 16 9.5 16H15.5C15.7761 16 16 15.7761 16 15.5C16 15.2239 15.7761 15 15.5 15H9.5ZM20.5 21C20.2239 21 20 21.2239 20 21.5C20 21.7761 20.2239 22 20.5 22H25.5C25.7761 22 26 21.7761 26 21.5C26 21.2239 25.7761 21 25.5 21H20.5Z" fill="#FF6F3D"/>
<rect x="10" y="46" width="15" height="1" fill="#333333"/>
<rect x="10" y="50" width="15" height="1" fill="#333333"/>
<rect x="21" y="42" width="13" height="1" transform="rotate(90 21 42)" fill="#333333"/>
<rect x="16" y="42" width="13" height="1" transform="rotate(90 16 42)" fill="#333333"/>
<path d="M10 11H22" stroke="#333333" stroke-width="2" stroke-linecap="round" stroke-linejoin="round"/>
<path fill-rule="evenodd" clip-rule="evenodd" d="M115 10.6053C115 9.16841 116.16 8 117.596 8H165.404C166.84 8 168 9.16841 168 10.6053V51.3947C168 52.8316 166.84 54 165.404 54H134.001V53H165.404C166.283 53 167 52.2833 167 51.3947V10.6053C167 9.71671 166.283 9 165.404 9H117.596C116.717 9 116 9.71671 116 10.6053V26.1043H115V10.6053Z" fill="#333333"/>
<path d="M150.085 31.7204H143.877V31.0115C144.423 30.9782 144.875 30.9117 145.232 30.8118C145.596 30.712 145.778 30.5888 145.778 30.4424C145.778 30.3825 145.771 30.3093 145.757 30.2228C145.743 30.1362 145.722 30.0597 145.694 29.9931L144.455 26.8182H139.235C139.039 27.2841 138.877 27.6901 138.751 28.0362C138.632 28.3823 138.524 28.7018 138.426 28.9947C138.335 29.2809 138.272 29.5139 138.237 29.6936C138.202 29.8733 138.184 30.0198 138.184 30.1329C138.184 30.3991 138.405 30.6055 138.846 30.7519C139.287 30.8984 139.784 30.9849 140.338 31.0115V31.7204H134.729V31.0115C134.911 30.9982 135.138 30.9616 135.411 30.9017C135.684 30.8351 135.908 30.7486 136.083 30.6421C136.364 30.4624 136.581 30.276 136.735 30.083C136.889 29.8833 137.039 29.6104 137.186 29.2643C137.936 27.4871 138.762 25.4903 139.665 23.2738C140.569 21.0573 141.374 19.0837 142.081 17.3531H142.921L147.89 29.5738C147.995 29.8334 148.114 30.043 148.247 30.2028C148.38 30.3625 148.565 30.519 148.804 30.6721C148.965 30.7652 149.175 30.8451 149.434 30.9117C149.693 30.9716 149.91 31.0049 150.085 31.0115V31.7204ZM144.077 25.9296L141.819 20.4383L139.602 25.9296H144.077Z" fill="url(#paint2_linear_1043_16799)"/>
<path d="M156.902 30.4025H156.828C156.674 30.5223 156.489 30.6754 156.272 30.8618C156.062 31.0415 155.813 31.2145 155.526 31.3809C155.253 31.5473 154.955 31.6904 154.633 31.8102C154.311 31.9367 153.961 31.9999 153.583 31.9999C152.567 31.9999 151.769 31.6538 151.188 30.9616C150.614 30.2694 150.327 29.3242 150.327 28.1261C150.327 27.3007 150.488 26.4987 150.81 25.7199C151.132 24.9411 151.576 24.2422 152.144 23.6232C152.683 23.0308 153.324 22.5549 154.066 22.1955C154.808 21.8294 155.571 21.6463 156.356 21.6463C156.853 21.6463 157.326 21.7096 157.774 21.836C158.229 21.9625 158.586 22.1056 158.845 22.2654L160.767 21.7961L160.893 21.9459L159.297 28.3857C159.241 28.592 159.181 28.8449 159.118 29.1445C159.062 29.4373 159.034 29.6537 159.034 29.7934C159.034 30.1728 159.118 30.4291 159.286 30.5622C159.454 30.6953 159.738 30.7619 160.137 30.7619C160.27 30.7619 160.459 30.7419 160.704 30.702C160.949 30.6621 161.138 30.6188 161.271 30.5722L161.114 31.2112C160.484 31.4508 160.014 31.6239 159.706 31.7304C159.398 31.8369 159.024 31.8901 158.582 31.8901C158.078 31.8901 157.679 31.7503 157.385 31.4708C157.091 31.1912 156.93 30.8351 156.902 30.4025ZM158.404 24.0925C158.404 23.8728 158.379 23.6632 158.33 23.4635C158.281 23.2638 158.18 23.0774 158.026 22.9044C157.886 22.738 157.693 22.6048 157.448 22.505C157.203 22.4051 156.895 22.3552 156.524 22.3552C156.013 22.3552 155.515 22.515 155.032 22.8345C154.549 23.154 154.115 23.5833 153.73 24.1224C153.366 24.6283 153.068 25.2407 152.837 25.9595C152.606 26.6784 152.49 27.4072 152.49 28.1461C152.49 28.5521 152.515 28.9115 152.564 29.2243C152.613 29.5372 152.707 29.8234 152.847 30.083C152.98 30.3359 153.173 30.5323 153.425 30.6721C153.677 30.8118 153.996 30.8817 154.381 30.8817C154.773 30.8817 155.183 30.7785 155.61 30.5722C156.044 30.3592 156.531 29.9898 157.07 29.464L158.404 24.0925Z" fill="url(#paint3_linear_1043_16799)"/>
<path d="M134.999 37.5016C134.999 37.5016 135 37.5016 135 37.5016L160.994 37.5941C160.993 37.5941 160.993 37.5941 160.994 37.5941L160.994 37.5941C160.997 37.5942 161.001 37.5944 161.009 37.5949C161.024 37.596 161.049 37.5983 161.08 37.603C161.144 37.613 161.222 37.6318 161.293 37.6641C161.363 37.6961 161.411 37.734 161.441 37.7751C161.467 37.8104 161.5 37.8745 161.5 38.0017V41.9813C161.5 41.9828 161.5 41.9845 161.499 41.9863C161.498 42.0012 161.494 42.0256 161.488 42.0561C161.475 42.1194 161.452 42.1971 161.414 42.2693C161.349 42.392 161.251 42.5016 161 42.5016H135C134.749 42.5016 134.651 42.392 134.586 42.2693C134.548 42.1971 134.525 42.1194 134.512 42.0561C134.506 42.0256 134.502 42.0012 134.501 41.9863C134.5 41.9845 134.5 41.9828 134.5 41.9813L134.501 38.0219C134.501 38.0203 134.501 38.0186 134.501 38.0166C134.503 38.0017 134.507 37.9774 134.513 37.9468C134.526 37.8835 134.549 37.8058 134.587 37.7337C134.651 37.6112 134.749 37.5018 134.999 37.5016Z" fill="#D9F4FF" stroke="#333333"/>
<path fill-rule="evenodd" clip-rule="evenodd" d="M128 26V19L129 19V26H128Z" fill="#333333"/>
<path fill-rule="evenodd" clip-rule="evenodd" d="M131 19H126V18H131V19Z" fill="#333333"/>
<rect x="104.5" y="30.5" width="25" height="23" rx="2.5" fill="url(#paint4_linear_1043_16799)"/>
<rect x="104.5" y="30.5" width="25" height="23" rx="2.5" stroke="#333333"/>
<path d="M111 46.9688V44M118 46.9688V39.4375C118 37.625 116.888 36 114.491 36C112.094 36 111 37.75 111 39.4375V44M111 44H118M122 36.1713V46.9688" stroke="white" stroke-width="2" stroke-linecap="round" stroke-linejoin="round"/>
<g clip-path="url(#clip0_1043_16799)">
<path fill-rule="evenodd" clip-rule="evenodd" d="M224.344 3.99976C223.047 3.99976 221.996 5.04185 221.996 6.32734V49.6722C221.996 50.9577 223.047 51.9998 224.344 51.9998H255.648C256.945 51.9998 257.996 50.9577 257.996 49.6722V15.4998C257.996 14.8824 257.749 14.2904 257.308 13.8539L248.119 4.68149C247.678 4.24498 247.081 3.99976 246.458 3.99976H224.344Z" fill="white"/>
<path d="M247.354 4.6462C247.211 4.5032 246.995 4.46043 246.809 4.53782C246.622 4.61521 246.5 4.79752 246.5 4.99976V13.1817C246.5 13.8575 246.664 14.4572 247.073 14.8875C247.487 15.3222 248.072 15.4999 248.732 15.4999H257C257.202 15.4999 257.385 15.3781 257.462 15.1912C257.539 15.0044 257.497 14.7893 257.354 14.6463L247.354 4.6462Z" fill="url(#paint5_linear_1043_16799)" stroke="#333333" stroke-linecap="round" stroke-linejoin="round"/>
<path fill-rule="evenodd" clip-rule="evenodd" d="M256.604 14.5641L256.602 14.5617L247.415 5.39165L247.413 5.39039C247.361 5.33816 247.311 5.28841 247.269 5.24537L247.253 5.2293C247.205 5.18044 247.167 5.14237 247.133 5.10886C247.062 5.04089 247.032 5.01773 247.019 5.00926C247.008 5.0068 246.971 4.99976 246.891 4.99976H223.344C222.591 4.99976 221.996 5.60228 221.996 6.32734V49.6722C221.996 50.3972 222.591 50.9998 223.344 50.9998H255.648C256.401 50.9998 256.996 50.3972 256.996 49.6722V15.1091C256.996 15.0212 256.987 14.9825 256.984 14.9721C256.983 14.9664 256.982 14.9641 256.976 14.9539C256.965 14.9371 256.94 14.9029 256.875 14.8348C256.825 14.7816 256.772 14.7295 256.701 14.659C256.672 14.6307 256.64 14.5995 256.604 14.5641ZM248.119 4.68149L257.308 13.8539C257.337 13.8819 257.364 13.9089 257.391 13.9351C257.779 14.3179 257.996 14.5313 257.996 15.1091V49.6722C257.996 50.9577 256.945 51.9998 255.648 51.9998H223.344C222.047 51.9998 220.996 50.9577 220.996 49.6722V6.32734C220.996 5.04185 222.047 3.99976 223.344 3.99976H246.891C247.445 3.99976 247.636 4.19361 247.981 4.54339C248.024 4.58702 248.07 4.63308 248.119 4.68149Z" fill="#333333"/>
<path d="M237 22.9999H253V23.9999H237V22.9999Z" fill="#333333"/>
<path d="M237 25.9999H253V26.9999H237V25.9999Z" fill="#333333"/>
<path d="M237 28.9999H253V29.9999H237V28.9999Z" fill="#333333"/>
<path d="M237 22.9999H238V28.9999H237V25.9999V22.9999Z" fill="#333333"/>
<path d="M252 22.9999H253V28.9999H252V22.9999Z" fill="#333333"/>
<path d="M247 22.9999H248V28.9999H247V22.9999Z" fill="#333333"/>
<path d="M237 22.9999H238V28.9999H237V25.9999V22.9999Z" fill="#333333"/>
<path d="M242 22.9999H243V28.9999H242V22.9999Z" fill="#333333"/>
<path d="M227 15.9998H243V16.9998H228L227 15.9998Z" fill="#333333"/>
<path d="M227 9.99976H242V11.9998H227V9.99976Z" fill="#333333"/>
<path d="M230 18.9998H246V19.9998H231L230 18.9998Z" fill="#333333"/>
<path fill-rule="evenodd" clip-rule="evenodd" d="M208.342 16.0343C207.823 15.5144 207.846 14.6481 208.396 14.0995L212.067 10.4325C212.616 9.8839 213.483 9.86063 214.002 10.3806L230.357 26.7363C230.52 26.8995 230.832 27.1047 230.888 27.3318L231.911 32.2195C232.164 33.235 231.198 34.2 230.182 33.9464L225.292 32.849C225.065 32.7923 224.86 32.5532 224.697 32.39L208.342 16.0343Z" fill="url(#paint6_linear_1043_16799)"/>
<path fill-rule="evenodd" clip-rule="evenodd" d="M225.004 32.3901C225.004 32.3901 225.347 32.1482 225.896 31.5996L229.567 27.9327C230.116 27.384 230.504 26.9999 230.504 26.9999C230.668 27.1631 230.833 27.1048 230.889 27.3319L231.912 32.2196C232.165 33.2351 231.199 34.2001 230.183 33.9465L225.293 32.8491C225.066 32.7924 225.167 32.5534 225.004 32.3901Z" fill="white"/>
<path fill-rule="evenodd" clip-rule="evenodd" d="M225.293 31.6108L209.077 15.5623C208.817 15.3024 208.802 14.9945 209.077 14.7202L212.701 11.1112C212.975 10.8368 213.147 10.8512 213.407 11.1112L229.726 27.3319C229.808 27.4135 229.9 27.8043 229.928 27.9179L231.019 32.3901C231.146 32.8979 230.691 33.091 230.183 32.9642L225.5 31.7762C225.387 31.7478 225.375 31.6924 225.293 31.6108ZM208.342 16.0344C207.822 15.5144 207.846 14.6482 208.395 14.0995L212.066 10.4326C212.615 9.88396 213.482 9.8607 214.002 10.3806L230.357 26.7364C230.52 26.8996 230.832 27.1048 230.889 27.3319L231.911 32.2196C232.165 33.2351 231.199 34.2001 230.183 33.9465L225.293 32.8491C225.066 32.7924 224.861 32.5534 224.697 32.3901L208.342 16.0344Z" fill="#333333"/>
<path d="M214 16.7065L227.709 30.4155L228.417 29.7088L214.708 15.9998L214 16.7065Z" fill="white"/>
<path fill-rule="evenodd" clip-rule="evenodd" d="M229.888 27.5115L225.35 31.9744L226.033 32.67L230.572 28.2215L229.888 27.5115Z" fill="#333333"/>
<path fill-rule="evenodd" clip-rule="evenodd" d="M216.276 13.0086L211.009 18.2584L211.706 18.9721L216.968 13.7135L216.276 13.0086Z" fill="#333333"/>
<path fill-rule="evenodd" clip-rule="evenodd" d="M230.701 30.6844L228.705 32.8282L230.702 33.4999L231.504 32.4999L230.701 30.6844Z" fill="#333333"/>
<path d="M230.569 46.7863C230.569 52.4271 235.068 56.9999 240.617 56.9999C246.166 56.9999 250.664 52.4271 250.664 46.7863C250.664 41.1455 246.166 36.5728 240.617 36.5728C235.068 36.5728 230.569 41.1455 230.569 46.7863Z" fill="white"/>
<path d="M240.216 35.9999C244.999 36.0014 250.878 39.5872 250.998 46.387C251.052 49.5132 250.205 52.3579 247.935 54.2264C247.787 54.0998 247.049 53.9487 246.872 53.8545L243.824 52.2294C243.424 52.0162 243.175 51.6066 243.175 51.1613V49.9405C243.175 49.9405 244.07 48.8945 244.411 47.4413C244.694 47.2623 244.884 46.9529 244.884 46.6007V45.2646C244.884 44.9707 244.75 44.7081 244.542 44.5242V42.5928C244.542 42.5928 244.948 39.5872 240.783 39.5872C236.618 39.5872 237.024 42.5928 237.024 42.5928V44.5242C236.816 44.7081 236.683 44.9707 236.683 45.2646V46.6007C236.683 47.0498 236.991 47.4277 237.41 47.5539C237.643 48.2627 237.98 48.9382 238.425 49.5524C238.537 49.7072 238.642 49.8384 238.733 49.9405V51.1922C238.733 51.653 238.467 52.0746 238.045 52.2803L234.654 53.7071C234.459 53.8028 233.568 54.1981 233.405 54.3326C231.361 52.2556 230 50.0971 230 46.885C230 40.4398 235.517 35.9984 240.216 35.9999Z" fill="url(#paint7_linear_1043_16799)"/>
<path d="M240.617 57.4999C234.784 57.4999 230.069 52.6955 230.069 46.7863C230.069 40.8771 234.784 36.0728 240.617 36.0728C246.45 36.0728 251.164 40.8771 251.164 46.7863C251.164 52.6955 246.45 57.4999 240.617 57.4999Z" stroke="#333333"/>
<path d="M240.569 46.7863C240.569 52.4271 245.068 56.9999 250.617 56.9999C256.166 56.9999 260.664 52.4271 260.664 46.7863C260.664 41.1455 256.166 36.5728 250.617 36.5728C245.068 36.5728 240.569 41.1455 240.569 46.7863Z" fill="white"/>
<path d="M250.216 35.9999C254.999 36.0014 260.878 39.5872 260.998 46.387C261.052 49.5132 260.205 52.3579 257.935 54.2264C257.787 54.0998 257.049 53.9487 256.872 53.8545L253.824 52.2294C253.424 52.0162 253.175 51.6066 253.175 51.1613V49.9405C253.175 49.9405 254.07 48.8945 254.411 47.4413C254.694 47.2623 254.884 46.9529 254.884 46.6007V45.2646C254.884 44.9707 254.75 44.7081 254.542 44.5242V42.5928C254.542 42.5928 254.948 39.5872 250.783 39.5872C246.618 39.5872 247.024 42.5928 247.024 42.5928V44.5242C246.816 44.7081 246.683 44.9707 246.683 45.2646V46.6007C246.683 47.0498 246.991 47.4277 247.41 47.5539C247.643 48.2627 247.98 48.9382 248.425 49.5524C248.537 49.7072 248.642 49.8384 248.733 49.9405V51.1922C248.733 51.653 248.467 52.0746 248.045 52.2803L244.654 53.7071C244.459 53.8028 243.568 54.1981 243.405 54.3326C241.361 52.2556 240 50.0971 240 46.885C240 40.4398 245.517 35.9984 250.216 35.9999Z" fill="#9ADAF3"/>
<path d="M250.617 57.4999C244.784 57.4999 240.069 52.6955 240.069 46.7863C240.069 40.8771 244.784 36.0728 250.617 36.0728C256.45 36.0728 261.164 40.8771 261.164 46.7863C261.164 52.6955 256.45 57.4999 250.617 57.4999Z" stroke="#333333"/>
<path d="M250.569 46.7863C250.569 52.4271 255.068 56.9999 260.617 56.9999C266.166 56.9999 270.664 52.4271 270.664 46.7863C270.664 41.1455 266.166 36.5728 260.617 36.5728C255.068 36.5728 250.569 41.1455 250.569 46.7863Z" fill="white"/>
<path d="M260.216 35.9999C264.999 36.0014 270.878 39.5872 270.998 46.387C271.052 49.5132 270.205 52.3579 267.935 54.2264C267.787 54.0998 267.049 53.9487 266.872 53.8545L263.824 52.2294C263.424 52.0162 263.175 51.6066 263.175 51.1613V49.9405C263.175 49.9405 264.07 48.8945 264.411 47.4413C264.694 47.2623 264.884 46.9529 264.884 46.6007V45.2646C264.884 44.9707 264.75 44.7081 264.542 44.5242V42.5928C264.542 42.5928 264.948 39.5872 260.783 39.5872C256.618 39.5872 257.024 42.5928 257.024 42.5928V44.5242C256.816 44.7081 256.683 44.9707 256.683 45.2646V46.6007C256.683 47.0498 256.991 47.4277 257.41 47.5539C257.643 48.2627 257.98 48.9382 258.425 49.5524C258.537 49.7072 258.642 49.8384 258.733 49.9405V51.1922C258.733 51.653 258.467 52.0746 258.045 52.2803L254.654 53.7071C254.459 53.8028 253.568 54.1981 253.405 54.3326C251.361 52.2556 250 50.0971 250 46.885C250 40.4398 255.517 35.9984 260.216 35.9999Z" fill="url(#paint8_linear_1043_16799)"/>
<path d="M260.617 57.4999C254.784 57.4999 250.069 52.6955 250.069 46.7863C250.069 40.8771 254.784 36.0728 260.617 36.0728C266.45 36.0728 271.164 40.8771 271.164 46.7863C271.164 52.6955 266.45 57.4999 260.617 57.4999Z" stroke="#333333"/>
</g>
<path d="M354.075 20.4701C355.795 20.8265 357.56 21.0557 359.332 21.1003C358.867 22.7061 358.488 24.2433 358.166 25.7165C357.901 26.9257 357.677 28.7884 357.477 30.5789C357.439 30.9164 357.402 31.2512 357.366 31.5793C357.209 33.0117 357.066 34.3143 356.927 35.1356C356.897 35.3115 356.868 35.4868 356.838 35.6614C355.954 40.9086 355.174 45.5411 352.499 49.6236C349.764 53.7963 345.004 57.4525 335.929 60.4748C327.05 57.6896 322.3 53.9475 319.558 49.7192C316.786 45.4448 316.02 40.6144 315.218 35.541C315.09 34.7349 314.96 33.5156 314.814 32.1628C314.767 31.7234 314.719 31.2699 314.668 30.8119C314.464 28.9641 314.23 27.0431 313.941 25.7739C313.605 24.3001 313.199 22.7666 312.687 21.1692C314.434 21.114 316.2 20.8626 317.935 20.4788C322.725 19.4193 327.317 17.342 330.702 15.5382C332.397 14.6351 333.795 13.7976 334.769 13.1854C335.257 12.8792 335.639 12.6292 335.9 12.4553C335.939 12.4289 335.976 12.4043 336.01 12.3815C336.041 12.4036 336.075 12.4273 336.112 12.4526C336.365 12.6285 336.736 12.8811 337.212 13.19C338.163 13.8079 339.532 14.6518 341.207 15.5591C344.553 17.3714 349.141 19.4474 354.075 20.4701Z" fill="url(#paint9_linear_1043_16799)" stroke="#333333"/>
<path fill-rule="evenodd" clip-rule="evenodd" d="M344.537 29.4147C345.274 30.1313 345.301 31.321 344.598 32.0717L334.981 43.2799C334.633 43.6514 334.151 43.8616 333.647 43.8616C333.142 43.8616 332.66 43.6514 332.312 43.2799L327.448 38.0894C326.744 37.3386 326.772 36.149 327.509 35.4323C328.246 34.7157 329.414 34.7433 330.117 35.4941L333.647 39.2605L341.929 29.4765C342.632 28.7257 343.8 28.698 344.537 29.4147Z" fill="white"/>
<path d="M346.5 2.21194C346.5 1.25224 347.269 0.5 348.213 0.5H373.787C374.748 0.5 375.5 1.26977 375.5 2.21194V27.7882C375.5 28.7468 374.73 29.5 373.787 29.5H348.213C347.252 29.5 346.5 28.7295 346.5 27.7882V2.21194Z" fill="#5EC0CF" stroke="white"/>
<path d="M352.73 12.9189C351.758 14.1394 351.758 15.8573 352.73 17.0778L357.218 22.7129C358.119 23.8438 359.648 24.2856 361.025 23.8123L367.711 21.5145C369.088 21.0411 370.008 19.7569 370.001 18.3183L369.992 17.6921C369.992 16.9409 369.601 16.8357 369.387 16.7305C368.854 16.6253 368.268 16.8502 367.937 17.3605C367.514 17.8818 366.934 18.2034 366.294 18.2034C364.998 18.2034 363.947 16.8846 363.947 15.2577C363.947 13.6309 364.998 12.3121 366.294 12.3121C366.952 12.3121 367.546 12.6519 367.973 13.1994L367.99 13.1971C368.427 13.6797 368.91 13.8324 369.387 13.6797C369.864 13.527 369.978 13.1537 369.978 12.3441L369.966 11.6483C369.959 10.2244 369.044 8.95916 367.682 8.48841L361.028 6.18951C359.65 5.71336 358.117 6.15458 357.215 7.28715L352.73 12.9189Z" fill="white"/>
<circle cx="447.502" cy="30" r="28.5" fill="white" stroke="#333333"/>
<path d="M447.981 2.0041C432.52 1.74418 419.772 13.867 419.507 29.0809C419.357 37.7073 422.616 45.557 428.837 50.7129C429.244 50.3635 430.329 49.9466 430.814 49.6867L439.168 45.2025C440.264 44.614 440.947 43.4838 440.947 42.2549V38.8863C440.947 38.8863 438.494 36.0001 437.559 31.99C436.784 31.4961 436.264 30.6426 436.264 29.6704V25.9837C436.264 25.1727 436.63 24.448 437.2 23.9407V18.6112C437.2 18.6112 436.087 10.3175 447.502 10.3175C458.916 10.3175 457.803 18.6112 457.803 18.6112V23.9407C458.374 24.448 458.74 25.1727 458.74 25.9837V29.6704C458.74 30.9098 457.894 31.9526 456.747 32.3009C456.108 34.2565 455.185 36.1207 453.966 37.8154C453.658 38.2427 453.371 38.6046 453.12 38.8863V42.3402C453.12 43.6117 453.85 44.7752 455.006 45.3428L463.952 49.7439C464.489 50.0079 465.556 50.6288 466.002 51C472.036 46.049 475.351 38.3592 475.496 30.0229C475.762 14.809 463.444 2.26403 447.981 2.0041Z" fill="url(#paint10_linear_1043_16799)"/>
<path fill-rule="evenodd" clip-rule="evenodd" d="M474.546 41.3885C474.738 40.533 474.571 39.6028 474.016 38.8478L474.015 38.8469C472.12 36.2725 468.975 34.6498 466.128 34.0654C465.06 33.8437 464.065 34.2035 463.376 34.8745C462.687 34.204 461.692 33.845 460.626 34.0648C457.608 34.6839 454.884 36.306 452.879 38.6674C452.214 39.4433 451.996 40.4591 452.206 41.3914C452.057 41.4302 451.907 41.4821 451.757 41.5486C450.9 41.9289 450.417 42.6303 450.15 43.1886C449.642 44.2529 449.522 45.6264 449.505 46.7386C449.486 47.932 449.586 49.1778 449.712 50.1873C449.828 51.1088 449.991 52.0458 450.169 52.556C450.503 53.5377 451.288 54.2571 452.225 54.5348C452.003 55.412 452.163 56.377 452.736 57.1556L452.736 57.1565C454.631 59.7309 457.776 61.3537 460.623 61.938C461.693 62.16 462.689 61.7992 463.378 61.1268C464.076 61.8031 465.083 62.1586 466.145 61.9352C469.161 61.3155 471.883 59.694 473.886 57.3338C474.567 56.5382 474.775 55.4855 474.536 54.5335C475.406 54.2769 476.154 53.6387 476.524 52.7439L476.526 52.7405C477.755 49.7607 477.606 46.2663 476.588 43.4241L476.537 43.2817L476.465 43.1485C476.459 43.1376 476.453 43.1259 476.446 43.1135C476.28 42.8052 475.876 42.0515 475.103 41.6214C474.916 41.5174 474.73 41.4415 474.546 41.3885Z" fill="white"/>
<path fill-rule="evenodd" clip-rule="evenodd" d="M465.463 37C468.251 37.55 470.481 38.65 472.154 40.85C470.121 42.5 472.154 45.25 474.384 44.15C474.942 46.9 474.942 49.65 474.384 51.85C472.154 50.75 470.121 53.5803 472.154 55.15C470.481 57.35 468.251 59 465.463 59C465.463 56.8 461.56 56.8 461.56 59C458.772 59 456.542 57.35 454.869 55.15C456.518 53.4198 454.869 50.75 452.639 51.85C451.523 49.65 451.523 46.9 452.639 44.15C454.869 45.25 457.099 41.95 454.869 40.85C456.542 38.65 458.772 37.55 461.56 37C461.56 39.2 465.463 39.2 465.463 37ZM463.233 42.5C466.578 42.5 468.808 45.25 468.808 48C468.808 51.3 466.578 53.5 463.233 53.5C460.445 53.5 457.657 51.3 457.657 48C457.657 45.25 460.445 42.5 463.233 42.5Z" fill="#D9F4FF" stroke="#333333" stroke-miterlimit="22.9256" stroke-linecap="round" stroke-linejoin="round"/>
<g clip-path="url(#clip1_1043_16799)">
<path fill-rule="evenodd" clip-rule="evenodd" d="M535.408 8.56238C535.156 8.922 535.019 9.44231 535.019 10.0244V52.148C535.019 53.2821 535.735 54.0001 536.396 54.0001H538.519C538.795 54.0001 539.019 54.2239 539.019 54.5001C539.019 54.7762 538.795 55.0001 538.519 55.0001H536.396C534.984 55.0001 534.019 53.6119 534.019 52.148V10.0244C534.019 9.30744 534.184 8.56556 534.59 7.98774C535.01 7.38852 535.669 7 536.549 7H538.519C538.795 7 539.019 7.22386 539.019 7.5C539.019 7.77614 538.795 8 538.519 8H536.549C536.002 8 535.646 8.22416 535.408 8.56238Z" fill="#333333"/>
<path fill-rule="evenodd" clip-rule="evenodd" d="M529.391 8.56238C529.139 8.922 529.002 9.44231 529.002 10.0244V52.1479C529.002 53.282 529.718 54 530.379 54H532.502C532.779 54 533.002 54.2239 533.002 54.5C533.002 54.7761 532.779 55 532.502 55H530.379C528.967 55 528.002 53.6118 528.002 52.1479V10.0244C528.002 9.30744 528.167 8.56556 528.573 7.98774C528.994 7.38852 529.653 7 530.532 7H532.502C532.779 7 533.002 7.22386 533.002 7.5C533.002 7.77614 532.779 8 532.502 8H530.532C529.985 8 529.629 8.22416 529.391 8.56238Z" fill="#333333"/>
<path fill-rule="evenodd" clip-rule="evenodd" d="M542.347 7C541.051 7 540 8.0421 540 9.32759V52.6724C540 53.9579 541.051 55 542.347 55H573.652C574.948 55 576 53.9579 576 52.6724V18.5C576 17.8827 575.752 17.2907 575.312 16.8541L566.122 7.68173C565.682 7.24523 565.084 7 564.462 7H542.347Z" fill="white"/>
<path d="M565.356 7.64645C565.213 7.50345 564.998 7.46067 564.811 7.53806C564.624 7.61545 564.502 7.79777 564.502 8V16.182C564.502 16.8578 564.666 17.4574 565.076 17.8877C565.49 18.3225 566.074 18.5001 566.734 18.5001H575.002C575.205 18.5001 575.387 18.3783 575.464 18.1915C575.542 18.0046 575.499 17.7896 575.356 17.6466L565.356 7.64645Z" fill="url(#paint11_linear_1043_16799)" stroke="#333333" stroke-linecap="round" stroke-linejoin="round"/>
<path fill-rule="evenodd" clip-rule="evenodd" d="M574.608 17.5643L574.605 17.5619L565.418 8.3919L565.417 8.39064C565.364 8.33841 565.315 8.28865 565.272 8.24561L565.257 8.22955C565.208 8.18068 565.171 8.14261 565.136 8.1091C565.066 8.04113 565.035 8.01797 565.022 8.00951C565.012 8.00704 564.975 8 564.895 8H542.347C541.595 8 541 8.60253 541 9.32759V52.6724C541 53.3975 541.595 54 542.347 54H573.652C574.404 54 575 53.3975 575 52.6724V18.1093C575 18.0214 574.991 17.9827 574.988 17.9724C574.986 17.9666 574.986 17.9644 574.979 17.9542C574.968 17.9373 574.943 17.9031 574.879 17.8351C574.828 17.7819 574.776 17.7298 574.704 17.6592C574.675 17.631 574.644 17.5998 574.608 17.5643ZM566.122 7.68173L575.312 16.8541C575.34 16.8821 575.367 16.9091 575.394 16.9353C575.783 17.3182 576 17.5316 576 18.1093V52.6724C576 53.9579 574.948 55 573.652 55H542.347C541.051 55 540 53.9579 540 52.6724V9.32759C540 8.0421 541.051 7 542.347 7H564.895C565.448 7 565.64 7.19385 565.985 7.54364C566.028 7.58727 566.073 7.63333 566.122 7.68173Z" fill="#333333"/>
<rect x="520.502" y="37.4999" width="37" height="18" rx="1.5" fill="url(#paint12_linear_1043_16799)" stroke="#333333"/>
<path d="M526.923 50.9999H525.002V41.9999H530.28V43.5635H526.923V45.8843H530.047V47.4417H526.923V50.9999Z" fill="white"/>
<path d="M534.033 45.9951H534.663C535.28 45.9951 535.736 45.8945 536.03 45.6934C536.323 45.4924 536.47 45.1763 536.47 44.7454C536.47 44.3186 536.319 44.0149 536.017 43.8344C535.719 43.6538 535.255 43.5635 534.625 43.5635H534.033V45.9951ZM534.033 47.5464V50.9999H532.081V41.9999H534.764C536.015 41.9999 536.941 42.2235 537.541 42.6709C538.141 43.1141 538.441 43.7892 538.441 44.6962C538.441 45.2256 538.292 45.6976 537.994 46.1121C537.696 46.5224 537.274 46.8446 536.729 47.0785C538.114 49.1018 539.017 50.4089 539.436 50.9999H537.27L535.072 47.5464H534.033Z" fill="white"/>
<path d="M545.898 50.9999H540.595V41.9999H545.898V43.5635H542.548V45.5395H545.665V47.1032H542.548V49.424H545.898V50.9999Z" fill="white"/>
<path d="M553.127 50.9999H547.825V41.9999H553.127V43.5635H549.777V45.5395H552.894V47.1032H549.777V49.424H553.127V50.9999Z" fill="white"/>
</g>
<defs>
<linearGradient id="paint0_linear_1043_16799" x1="43" y1="40.5703" x2="53.9902" y2="50.9517" gradientUnits="userSpaceOnUse">
<stop stop-color="#FF8E3D"/>
<stop offset="1" stop-color="#FF6F3D"/>
</linearGradient>
<linearGradient id="paint1_linear_1043_16799" x1="38" y1="15.8437" x2="42" y2="20" gradientUnits="userSpaceOnUse">
<stop stop-color="#FF8E3D"/>
<stop offset="1" stop-color="#FF6F3D"/>
</linearGradient>
<linearGradient id="paint2_linear_1043_16799" x1="134.729" y1="16.781" x2="146.872" y2="39.6471" gradientUnits="userSpaceOnUse">
<stop stop-color="#FF8E3D"/>
<stop offset="1" stop-color="#FF6F3D"/>
</linearGradient>
<linearGradient id="paint3_linear_1043_16799" x1="134.729" y1="16.781" x2="146.872" y2="39.6471" gradientUnits="userSpaceOnUse">
<stop stop-color="#FF8E3D"/>
<stop offset="1" stop-color="#FF6F3D"/>
</linearGradient>
<linearGradient id="paint4_linear_1043_16799" x1="104" y1="29.0625" x2="127.85" y2="55.9097" gradientUnits="userSpaceOnUse">
<stop stop-color="#FF8E3D"/>
<stop offset="1" stop-color="#FF6F3D"/>
</linearGradient>
<linearGradient id="paint5_linear_1043_16799" x1="247" y1="4.60913" x2="257" y2="14.9998" gradientUnits="userSpaceOnUse">
<stop stop-color="#FFC671"/>
<stop offset="0.59375" stop-color="#FF7541"/>
<stop offset="1" stop-color="#FF6F3D"/>
</linearGradient>
<linearGradient id="paint6_linear_1043_16799" x1="207.177" y1="15.3166" x2="220.569" y2="7.39278" gradientUnits="userSpaceOnUse">
<stop stop-color="#FF8E3D"/>
<stop offset="1" stop-color="#FF6F3D"/>
</linearGradient>
<linearGradient id="paint7_linear_1043_16799" x1="240.5" y1="35.9999" x2="240.5" y2="54.3326" gradientUnits="userSpaceOnUse">
<stop stop-color="#FF8E3D"/>
<stop offset="1" stop-color="#FF6F3D"/>
</linearGradient>
<linearGradient id="paint8_linear_1043_16799" x1="260.5" y1="35.9999" x2="260.5" y2="54.3326" gradientUnits="userSpaceOnUse">
<stop stop-color="#FF8E3D"/>
<stop offset="1" stop-color="#FF6F3D"/>
</linearGradient>
<linearGradient id="paint9_linear_1043_16799" x1="349.332" y1="55.1141" x2="314.015" y2="19.3801" gradientUnits="userSpaceOnUse">
<stop stop-color="#FF6F3D"/>
<stop offset="1" stop-color="#FF8E3D"/>
</linearGradient>
<linearGradient id="paint10_linear_1043_16799" x1="447.502" y1="2" x2="447.502" y2="51" gradientUnits="userSpaceOnUse">
<stop stop-color="#FF8E3D"/>
<stop offset="1" stop-color="#FF6F3D"/>
</linearGradient>
<linearGradient id="paint11_linear_1043_16799" x1="565.002" y1="7.60937" x2="575.003" y2="18" gradientUnits="userSpaceOnUse">
<stop stop-color="#FFC671"/>
<stop offset="0.59375" stop-color="#FF7541"/>
<stop offset="1" stop-color="#FF6F3D"/>
</linearGradient>
<linearGradient id="paint12_linear_1043_16799" x1="521.003" y1="37.3358" x2="533.819" y2="65.5362" gradientUnits="userSpaceOnUse">
<stop stop-color="#FF8E3D"/>
<stop offset="1" stop-color="#FF6F3D"/>
</linearGradient>
<clipPath id="clip0_1043_16799">
<rect width="64" height="64" fill="white" transform="translate(208)"/>
</clipPath>
<clipPath id="clip1_1043_16799">
<rect width="64" height="64" fill="white" transform="translate(520.002)"/>
</clipPath>
</defs>
</svg>
