<svg width="713" height="64" viewBox="0 0 713 64" fill="none" xmlns="http://www.w3.org/2000/svg">
<path d="M46.6746 56.8683C46.6746 56.7586 46.6746 56.6489 46.6746 56.5391C46.5639 53.5768 44.1291 51.163 41.141 50.8338L38.7062 50.6144L35.6627 53.4754L32.6192 56.3364L26.5323 50.6144L24.2082 50.8338C21.22 51.0533 18.7852 53.467 18.6746 56.5391C18.6746 56.6489 18.6746 56.7586 18.6746 56.8683V60.489C18.6746 62.4639 20.224 64 22.2161 64H25.6469H39.7022H43.1331C45.1252 64 46.6746 62.4639 46.6746 60.489V56.8683Z" fill="#D9F4FF"/>
<path fill-rule="evenodd" clip-rule="evenodd" d="M32.6192 56.3364L26.5323 50.6144L24.2082 50.8338C21.22 51.0533 18.7852 53.467 18.6746 56.5391V60.489C18.6746 62.4639 20.224 64 22.2161 64H43.1331C45.1252 64 46.6746 62.4639 46.6746 60.489V56.5391C46.5639 53.5768 44.1291 51.163 41.141 50.8338L38.7062 50.6144L32.6192 56.3364ZM39.0638 51.6507L33.3042 57.065C32.9192 57.4269 32.3192 57.4269 31.9343 57.065L26.1765 51.6524L24.3022 51.8294L24.2814 51.8311C21.7909 52.014 19.7747 54.0202 19.6746 56.558V60.489C19.6746 61.9035 20.7681 63 22.2161 63H43.1331C44.581 63 45.6746 61.9035 45.6746 60.489V56.5597C45.5751 54.1499 43.5733 52.1123 41.0409 51.8289L39.0638 51.6507Z" fill="#333333"/>
<path fill-rule="evenodd" clip-rule="evenodd" d="M25.9786 39.4541C26.0059 39.7515 25.8989 40.0454 25.6868 40.2556C25.6298 40.3122 25.5397 40.4762 25.4828 40.7925C25.4307 41.0814 25.4294 41.3604 25.4294 41.5204C25.4294 42.5583 25.7395 43.096 26.0245 43.3947C26.3318 43.7168 26.7165 43.8718 27.0261 43.9595C27.37 44.0569 27.6358 44.3305 27.7232 44.6771C27.8108 45.0246 28.0006 45.5028 28.1998 45.8976C28.3677 46.2305 28.9311 47.093 29.7675 47.8603C30.6099 48.6331 31.5949 49.1881 32.6192 49.1881C33.8258 49.1881 34.808 48.616 35.5787 47.8759C36.3537 47.1316 36.8464 46.2786 37.0385 45.8976C37.2645 45.4496 37.424 45.1229 37.5045 44.7239C37.5883 44.3084 37.9249 43.9909 38.3446 43.9315C38.5314 43.905 38.894 43.7799 39.2047 43.4455C39.4958 43.1322 39.8089 42.5627 39.8089 41.5204C39.8089 41.2988 39.807 41.0267 39.7567 40.7577C39.7043 40.4768 39.6206 40.3242 39.5515 40.2556C39.3395 40.0454 39.2324 39.7515 39.2597 39.4541C39.3141 38.8614 39.4197 37.5701 39.367 36.2386C39.3406 35.5727 39.2755 34.9215 39.1535 34.3562C39.0288 33.778 38.8606 33.3673 38.6779 33.1196C37.9613 32.1599 36.6079 31.5951 35.2153 31.2927C33.8675 31 32.7065 31 32.6195 31C32.5326 31 31.3708 31 30.0231 31.2927C28.6297 31.5953 27.2755 32.1605 26.5592 33.1212C26.5533 33.1291 26.5473 33.1369 26.5412 33.1446C26.3758 33.3534 26.2099 33.7349 26.0845 34.3115C25.963 34.87 25.8978 35.5234 25.8714 36.1971C25.8186 37.5432 25.9244 38.8628 25.9786 39.4541ZM39.4808 32.5235C40.6982 34.1693 40.3662 38.3386 40.2555 39.5455C40.8089 40.094 40.8089 41.0815 40.8089 41.5204C40.8089 44.0439 39.2595 44.8119 38.4848 44.9216C38.3741 45.4702 38.1528 45.9091 37.9314 46.348C37.4887 47.2257 35.718 50.1881 32.6192 50.1881C29.8524 50.1881 27.7496 47.2257 27.3069 46.348C27.0856 45.9091 26.8642 45.3605 26.7536 44.9216C25.9788 44.7022 24.4294 44.0439 24.4294 41.5204C24.4294 41.1912 24.4294 40.094 24.9828 39.5455C24.8721 38.3386 24.5401 34.0596 25.7575 32.5235C27.6389 30 32.3978 30 32.6192 30C32.8405 30 37.5994 30 39.4808 32.5235Z" fill="#333333"/>
<path d="M44.7833 5.5C44.7833 3.54412 43.1335 2 41.1744 2H24.2639C22.3048 2 20.7581 3.54412 20.7581 5.5V14.3529C20.7581 16.3088 22.3048 18 24.2639 18H29.0071L31.1064 20.8125C31.1064 20.8125 31.7783 21.6875 32.7626 21.6875C33.747 21.6875 34.2939 21.0625 34.2939 21.0625L36.9468 18H41.2775C43.2367 18 44.7833 16.3088 44.7833 14.3529V5.5Z" fill="url(#paint0_linear_4321_22282)"/>
<path fill-rule="evenodd" clip-rule="evenodd" d="M29.5085 17L31.8968 20.1996L31.8998 20.2032C31.9087 20.2137 31.9256 20.2331 31.9498 20.2584C31.9992 20.3102 32.0734 20.3809 32.1662 20.4506C32.3634 20.5988 32.569 20.6875 32.7626 20.6875C33.0354 20.6875 33.2419 20.6023 33.382 20.5181C33.4527 20.4755 33.5037 20.4347 33.5328 20.4091C33.5419 20.4012 33.5484 20.395 33.5525 20.3911L36.49 17H41.2775C42.6333 17 43.7833 15.8091 43.7833 14.3529V5.5C43.7833 4.13527 42.6209 3 41.1744 3H24.2639C22.8555 3 21.7581 4.09797 21.7581 5.5V14.3529C21.7581 15.8091 22.9082 17 24.2639 17H29.5085ZM31.1064 20.8125L29.0071 18H24.2639C22.3048 18 20.7581 16.3088 20.7581 14.3529V5.5C20.7581 3.54412 22.3048 2 24.2639 2H41.1744C43.1335 2 44.7833 3.54412 44.7833 5.5V14.3529C44.7833 16.3088 43.2367 18 41.2775 18H36.9468L34.2939 21.0625C34.2939 21.0625 33.747 21.6875 32.7626 21.6875C31.7783 21.6875 31.1064 20.8125 31.1064 20.8125Z" fill="#333333"/>
<path fill-rule="evenodd" clip-rule="evenodd" d="M10.6738 46.6007C10.9721 46.7198 11.195 46.9749 11.273 47.2865C11.3622 47.6428 11.4425 47.8804 11.6095 48.214C11.6183 48.2315 11.6266 48.2493 11.6343 48.2673C11.7264 48.4817 12.1001 49.0873 12.7015 49.632C13.2969 50.1714 13.9955 50.5441 14.7368 50.5441C14.8767 50.5441 14.9943 50.5256 15.1321 50.4889C15.855 49.4464 16.8141 48.4987 17.9468 47.7793C17.9782 47.7035 18.0094 47.631 18.0374 47.5657L18.0455 47.5467C18.1279 47.3549 18.1865 47.2165 18.2221 47.1098C18.3394 46.7585 18.6412 46.5008 19.0065 46.44C19.1149 46.422 19.3355 46.3426 19.5271 46.124C19.7045 45.9215 19.9236 45.5238 19.9236 44.75V44.6276C19.2858 43.5644 18.8925 42.2241 18.8925 40.6324L18.8925 40.6167C18.8924 40.2463 18.8923 39.3972 19.1298 38.4709C18.6153 37.8395 17.69 37.4423 16.6868 37.221C15.6847 37 14.8164 37 14.7372 37C14.7098 37 13.8396 36.9999 12.8231 37.2215C11.7584 37.4537 10.7792 37.8769 10.2826 38.5497L10.2776 38.5565C10.1738 38.6948 10.0581 38.9597 9.97126 39.3849C9.88743 39.7953 9.84541 40.2782 9.83332 40.7849C9.80916 41.7983 9.90616 42.7994 9.95752 43.3121C9.98723 43.6087 9.88304 43.903 9.67358 44.1149C9.67081 44.1189 9.6604 44.1347 9.64626 44.1684C9.62383 44.2219 9.6023 44.2961 9.58542 44.3887C9.55109 44.5773 9.55005 44.758 9.55005 44.8529C9.55005 45.5964 9.77562 45.9638 9.96288 46.1637C10.1755 46.3906 10.4333 46.5047 10.6738 46.6007ZM20.9236 44.3382V44.75C20.9236 46.7059 19.7893 47.3235 19.1707 47.4265C19.1191 47.5809 19.0418 47.761 18.9644 47.9412C18.8871 48.1213 18.8098 48.3015 18.7582 48.4559C17.5209 49.1765 16.4897 50.2059 15.7679 51.3382C15.4586 51.4412 15.1493 51.5441 14.7368 51.5441C12.5714 51.5441 11.0248 49.3823 10.7154 48.6618C10.5092 48.25 10.4061 47.9412 10.303 47.5294C9.7874 47.3235 8.55005 46.8088 8.55005 44.8529C8.55005 44.6471 8.55005 43.8235 8.9625 43.4118C8.85939 42.3824 8.55005 39.1912 9.47806 37.9559C10.9216 36 14.6337 36 14.7368 36C14.943 36 18.552 36 19.9956 37.9559C20.0593 38.0195 20.0836 38.0831 20.1173 38.171C20.1381 38.2254 20.1624 38.289 20.2018 38.3676C19.8925 39.2941 19.8925 40.2206 19.8925 40.6324C19.8925 42.1765 20.3049 43.4118 20.9236 44.3382Z" fill="#333333"/>
<path fill-rule="evenodd" clip-rule="evenodd" d="M55.0331 46.6007C54.7348 46.7198 54.5119 46.9749 54.4339 47.2865C54.3447 47.6428 54.2644 47.8804 54.0974 48.214C54.0886 48.2315 54.0803 48.2493 54.0726 48.2673C53.9805 48.4817 53.6068 49.0873 53.0054 49.632C52.41 50.1714 51.7114 50.5441 50.9701 50.5441C50.8303 50.5441 50.7126 50.5256 50.5748 50.4889C49.8519 49.4464 48.8928 48.4987 47.7601 47.7793C47.7287 47.7035 47.6976 47.631 47.6695 47.5657L47.6614 47.5467C47.5791 47.3549 47.5204 47.2165 47.4848 47.1098C47.3675 46.7585 47.0657 46.5008 46.7004 46.44C46.5921 46.422 46.3714 46.3426 46.1798 46.124C46.0024 45.9215 45.7833 45.5238 45.7833 44.75V44.6276C46.4211 43.5644 46.8144 42.2241 46.8144 40.6324L46.8144 40.6167C46.8145 40.2463 46.8146 39.3972 46.5771 38.4709C47.0916 37.8395 48.0169 37.4423 49.0201 37.221C50.0222 37 50.8905 37 50.9697 37C50.9971 37 51.8674 36.9999 52.8838 37.2215C53.9485 37.4537 54.9277 37.8769 55.4243 38.5497L55.4293 38.5565C55.5331 38.6948 55.6488 38.9597 55.7356 39.3849C55.8195 39.7953 55.8615 40.2782 55.8736 40.7849C55.8978 41.7983 55.8007 42.7994 55.7494 43.3121C55.7197 43.6087 55.8239 43.903 56.0333 44.1149C56.0361 44.1189 56.0465 44.1347 56.0606 44.1684C56.0831 44.2219 56.1046 44.2961 56.1215 44.3887C56.1558 44.5773 56.1569 44.758 56.1569 44.8529C56.1569 45.5964 55.9313 45.9638 55.744 46.1637C55.5314 46.3906 55.2736 46.5047 55.0331 46.6007ZM44.7833 44.3382V44.75C44.7833 46.7059 45.9176 47.3235 46.5362 47.4265C46.5878 47.5809 46.6651 47.761 46.7425 47.9412C46.8198 48.1213 46.8971 48.3015 46.9487 48.4559C48.186 49.1765 49.2172 50.2059 49.939 51.3382C50.2483 51.4412 50.5576 51.5441 50.9701 51.5441C53.1355 51.5441 54.6822 49.3823 54.9915 48.6618C55.1977 48.25 55.3008 47.9412 55.4039 47.5294C55.9195 47.3235 57.1569 46.8088 57.1569 44.8529C57.1569 44.6471 57.1569 43.8235 56.7444 43.4118C56.8475 42.3824 57.1569 39.1912 56.2288 37.9559C54.7853 36 51.0732 36 50.9701 36C50.7639 36 47.1549 36 45.7113 37.9559C45.6476 38.0195 45.6233 38.0831 45.5896 38.171C45.5688 38.2254 45.5445 38.289 45.5051 38.3676C45.8144 39.2941 45.8144 40.2206 45.8144 40.6324C45.8144 42.1765 45.402 43.4118 44.7833 44.3382Z" fill="#333333"/>
<path d="M61.2185 57.4118C61.2185 57.3089 61.2185 57.2059 61.2185 57.103C61.1154 54.8383 59.2594 52.9853 56.9909 52.7795L55.238 52.6765L50.5979 54.7353H50.4948C50.4948 55.0442 50.5979 55.353 50.5979 55.6618C50.5979 55.7647 50.5979 55.8677 50.5979 55.9706C50.5979 56.0736 50.5979 56.0736 50.5979 56.1765V59.4706C50.5979 60.7059 50.1854 61.9412 49.5668 62.9706H55.9598H58.5376C60.0843 62.9706 61.2185 61.7353 61.2185 60.2942V57.4118Z" fill="#D9F4FF"/>
<path fill-rule="evenodd" clip-rule="evenodd" d="M50.5979 55.6618C50.5979 55.5074 50.5721 55.353 50.5463 55.1986C50.5206 55.0442 50.4948 54.8897 50.4948 54.7353H50.5979L55.238 52.6765L56.9909 52.7795C59.2594 52.9853 61.1154 54.8383 61.2185 57.103V60.2942C61.2185 61.7353 60.0843 62.9706 58.5376 62.9706H49.5668C49.7566 62.6547 49.9271 62.3194 50.0722 61.9706C50.3998 61.183 50.5979 60.3268 50.5979 59.4706V55.6618ZM51.1443 61.9706C51.4279 61.1817 51.5979 60.3331 51.5979 59.4706V55.6618C51.5979 55.5684 51.5921 55.4771 51.5837 55.392L55.4217 53.689L56.9154 53.7767C58.6984 53.9459 60.1289 55.4022 60.2185 57.1272V60.2942C60.2185 61.2068 59.5086 61.9706 58.5376 61.9706H51.1443Z" fill="#333333"/>
<path d="M14.5298 59.4706V56.0736V55.9706C14.5298 55.7647 14.5298 55.6618 14.5298 55.5589C14.5298 55.25 14.6329 54.9412 14.6329 54.6324L10.1991 52.6765L8.44613 52.8824C6.17765 53.0883 4.32162 54.9412 4.21851 57.2059C4.21851 57.3089 4.21851 57.4118 4.21851 57.5147V60.2942C4.21851 61.8383 5.45586 62.9706 6.89944 62.9706H9.47726H15.5609C14.8391 61.9412 14.5298 60.7059 14.5298 59.4706Z" fill="#D9F4FF"/>
<path fill-rule="evenodd" clip-rule="evenodd" d="M8.56278 53.8756C8.55404 53.8766 8.54528 53.8775 8.53652 53.8783C6.74665 54.0407 5.30841 55.5003 5.21851 57.2302V60.2942C5.21851 61.2595 5.98125 61.9706 6.89944 61.9706H13.9389C13.6546 61.1574 13.5298 60.3051 13.5298 59.4706V55.5595C13.5298 55.4505 13.5377 55.3437 13.5485 55.247L10.0449 53.7015L8.56278 53.8756ZM10.1991 52.6765L14.6329 54.6324C14.6329 54.7868 14.6071 54.9412 14.5813 55.0956C14.5556 55.25 14.5298 55.4045 14.5298 55.5589V59.4706C14.5298 60.3268 14.6784 61.183 15.0099 61.9706C15.1567 62.3194 15.3394 62.6547 15.5609 62.9706H6.89944C5.45586 62.9706 4.21851 61.8383 4.21851 60.2942V57.2059C4.32162 54.9412 6.17765 53.0883 8.44613 52.8824L10.1991 52.6765Z" fill="#333333"/>
<path d="M9.26064 15.5872C9.5607 14.6657 10.8649 14.6671 11.163 15.5893L12.4647 19.616C12.5981 20.0288 12.9825 20.3084 13.4162 20.3084H17.6478C18.6154 20.3084 19.0189 21.5457 18.2374 22.1162L14.8149 24.6142C14.4648 24.8698 14.3192 25.3217 14.4542 25.7336L15.7431 29.6634C16.0449 30.5836 14.9933 31.3526 14.2079 30.786L10.8 28.3275C10.4507 28.0755 9.97921 28.0755 9.62988 28.3275L6.21292 30.7926C5.42843 31.3585 4.37751 30.5918 4.677 29.672L5.97762 25.6775C6.11157 25.2661 5.96577 24.8152 5.61631 24.5601L2.19251 22.0611C1.41095 21.4907 1.81446 20.2534 2.78207 20.2534H7.01525C7.44825 20.2534 7.83206 19.9747 7.96612 19.563L9.26064 15.5872Z" fill="url(#paint1_linear_4321_22282)"/>
<path fill-rule="evenodd" clip-rule="evenodd" d="M8.78519 15.4324C9.23528 14.0501 11.1916 14.0522 11.6388 15.4355L12.9405 19.4622C13.0072 19.6686 13.1993 19.8084 13.4162 19.8084H17.6478C19.0992 19.8084 19.7045 21.6643 18.5321 22.52L15.1096 25.0181C14.9346 25.1459 14.8618 25.3718 14.9293 25.5778L16.2182 29.5076C16.6709 30.8878 15.0934 32.0414 13.9153 31.1915L10.5074 28.733C10.3328 28.607 10.0971 28.607 9.92239 28.733L6.50544 31.1981C5.3287 32.047 3.75232 30.8968 4.20155 29.5172L5.50217 25.5227C5.56915 25.317 5.49625 25.0915 5.32152 24.964L1.89772 22.465C0.725374 21.6093 1.33065 19.7534 2.78206 19.7534H7.01524C7.23174 19.7534 7.42364 19.6141 7.49067 19.4082L8.78519 15.4324ZM10.6872 15.7431C10.5382 15.282 9.88608 15.2813 9.73605 15.742L8.44153 19.7178C8.24045 20.3354 7.66474 20.7534 7.01524 20.7534H2.78206C2.29825 20.7534 2.0965 21.372 2.48728 21.6573L5.91107 24.1563C6.43526 24.5389 6.65396 25.2152 6.45304 25.8323L5.15242 29.8268C5.00267 30.2867 5.52813 30.67 5.92038 30.3871L9.33733 27.922C9.86133 27.544 10.5685 27.544 11.0925 27.922L14.5004 30.3805C14.8931 30.6638 15.4189 30.2793 15.268 29.8192L13.9791 25.8894C13.7765 25.2716 13.9949 24.5937 14.5201 24.2104L17.9426 21.7123C18.3333 21.4271 18.1316 20.8084 17.6478 20.8084H13.4162C12.7656 20.8084 12.1891 20.389 11.9889 19.7698L10.6872 15.7431Z" fill="#333333"/>
<path fill-rule="evenodd" clip-rule="evenodd" d="M46.7583 29.8027L47.5178 25.0935L57.6428 14.9685L61.4244 18.8438L51.3462 28.9219L46.7583 29.8027Z" fill="url(#paint2_linear_4321_22282)"/>
<path fill-rule="evenodd" clip-rule="evenodd" d="M46.5821 24.6152L57.6516 13.5457L62.83 18.8525L51.8363 29.8462L45.5436 31.0543L46.5821 24.6152ZM46.7583 29.8028L51.3463 28.9221L61.4244 18.8439L57.6428 14.9686L47.5178 25.0936L46.7583 29.8028Z" fill="#333333"/>
<path fill-rule="evenodd" clip-rule="evenodd" d="M58.044 19.0156L50.2629 26.7969L49.5558 26.0898L57.3369 18.3085L58.044 19.0156Z" fill="white"/>
<g clip-path="url(#clip0_4321_22282)">
<path d="M135.716 0.5C121.046 0.5 109.216 12.425 109.216 27C109.216 41.5761 121.14 53.5 135.716 53.5C150.386 53.5 162.216 41.575 162.216 27C162.216 12.425 150.386 0.5 135.716 0.5ZM135.716 47.0957C124.015 47.0957 115.62 38.6111 115.62 27C115.62 15.2991 124.105 6.90429 135.716 6.90429C147.417 6.90429 155.812 15.3889 155.812 27C155.812 38.7024 147.418 47.0957 135.716 47.0957Z" fill="url(#paint3_linear_4321_22282)" stroke="#333333"/>
<path d="M136.216 31C137.597 31 138.716 29.8807 138.716 28.5C138.716 27.1193 137.597 26 136.216 26C134.835 26 133.716 27.1193 133.716 28.5C133.716 29.8807 134.835 31 136.216 31Z" fill="#333333"/>
<path d="M138.7 28.3431C138.421 28.6217 137.771 28.5288 137.4 28.0645C137.028 27.6002 136.935 27.0431 137.214 26.7645L144.978 20.7214C145.257 20.4428 145.907 20.5357 146.278 21C146.65 21.4643 146.743 22.0214 146.464 22.3L138.7 28.3431Z" fill="#333333"/>
<path d="M135.982 26.7642C136.353 27.2285 136.353 27.8785 135.889 28.25C135.425 28.6214 134.775 28.6214 134.403 28.25L122.153 16.4375C121.782 15.9732 121.782 15.3232 122.246 14.9518C122.71 14.5804 123.36 14.5804 123.732 14.9518L135.982 26.7642Z" fill="#333333"/>
<path d="M155.716 63.5C164.792 63.5 172.216 56.0761 172.216 47C172.216 37.9239 164.792 30.5 155.716 30.5C146.64 30.5 139.216 37.9239 139.216 47C139.216 56.0761 146.64 63.5 155.716 63.5Z" fill="white" stroke="#333333"/>
<path d="M155.716 36C149.647 36 144.716 40.931 144.716 47C144.716 53.069 149.647 58 155.716 58C161.785 58 166.716 53.069 166.716 47C166.716 40.931 161.785 36 155.716 36ZM156.569 52.6897V54.5862H155.716H154.673V52.7845C153.44 52.6897 152.207 52.4052 151.449 51.931L152.018 49.75C152.776 50.2241 153.914 50.6034 155.147 50.6034C155.337 50.6034 155.526 50.6034 155.621 50.6034C156.38 50.5086 156.949 50.1293 156.949 49.4655C156.949 48.8966 156.569 48.5172 155.621 48.1379C155.431 48.0431 155.147 47.9483 154.957 47.8534C152.966 47.1897 151.543 46.2414 151.543 44.4397C151.543 42.8276 152.681 41.5 154.673 41.1207V39.319H155.621H156.569V40.931C157.802 41.0259 158.655 41.2155 159.319 41.5948L158.75 43.681C158.276 43.4914 157.423 43.0172 156 43.0172C155.811 43.0172 155.716 43.0172 155.621 43.0172C154.673 43.1121 154.388 43.5862 154.388 44.0603C154.388 44.5345 154.768 44.819 155.621 45.2931C155.905 45.3879 156.285 45.5776 156.664 45.7672C158.94 46.5259 159.793 47.569 159.793 49.2759C159.888 50.8879 158.75 52.3103 156.569 52.6897Z" fill="url(#paint4_linear_4321_22282)"/>
</g>
<path d="M230.538 50.1777C240.301 59.9408 256.13 59.9408 265.893 50.1777C275.657 40.4146 275.657 24.5854 265.893 14.8223C256.13 5.05922 240.301 5.05922 230.538 14.8223C220.775 24.5854 220.775 40.4146 230.538 50.1777ZM257.408 41.6924C252.331 46.7692 244.1 46.7692 239.023 41.6924C233.947 36.6156 233.947 28.3844 239.023 23.3076C244.1 18.2308 252.331 18.2308 257.408 23.3076C262.485 28.3844 262.485 36.6156 257.408 41.6924Z" fill="url(#paint5_linear_4321_22282)" stroke="#333333"/>
<path fill-rule="evenodd" clip-rule="evenodd" d="M233.542 52.1236C232.618 51.4309 231.732 50.6644 230.892 49.8241C230.051 48.9839 229.285 48.0977 228.592 47.1738L236.519 39.2471C237.097 40.2477 237.814 41.19 238.67 42.046C239.526 42.9019 240.468 43.6189 241.469 44.1969L233.542 52.1236ZM265.54 49.8241C264.7 50.6644 263.814 51.4309 262.89 52.1236L254.963 44.1969C255.964 43.6189 256.906 42.9019 257.762 42.046C258.618 41.19 259.335 40.2477 259.913 39.2471L267.839 47.1738C267.147 48.0977 266.38 48.9839 265.54 49.8241ZM265.54 15.1759C266.38 16.0162 267.147 16.9023 267.839 17.8262L259.913 25.7529C259.335 24.7523 258.618 23.81 257.762 22.9541C256.906 22.0981 255.964 21.3812 254.963 20.8031L262.89 12.8765C263.814 13.5691 264.7 14.3356 265.54 15.1759ZM230.892 15.1759C231.732 14.3356 232.618 13.5691 233.542 12.8765L241.469 20.8031C240.468 21.3812 239.526 22.0981 238.67 22.9541C237.814 23.81 237.097 24.7523 236.519 25.7529L228.592 17.8262C229.285 16.9023 230.051 16.0162 230.892 15.1759Z" fill="white"/>
<path fill-rule="evenodd" clip-rule="evenodd" d="M233.636 53.4438L232.942 52.9236C231.98 52.2026 231.058 51.4051 230.185 50.5312C229.311 49.6573 228.513 48.7353 227.792 47.7736L227.272 47.0798L236.733 37.6187L237.385 38.7469C237.92 39.6726 238.583 40.5452 239.377 41.3388C240.171 42.1325 241.043 42.7962 241.969 43.3309L243.097 43.9827L233.636 53.4438ZM262.796 53.4438L253.335 43.9827L254.463 43.3309C255.388 42.7962 256.261 42.1325 257.055 41.3388C257.848 40.5452 258.512 39.6726 259.047 38.7469L259.698 37.6187L269.16 47.0798L268.639 47.7736C267.918 48.7353 267.121 49.6573 266.247 50.5312C265.373 51.4051 264.451 52.2026 263.489 52.9236L262.796 53.4438ZM269.16 17.9201L259.698 27.3812L259.047 26.2531C258.512 25.3274 257.848 24.4548 257.055 23.6611C256.261 22.8675 255.388 22.2037 254.463 21.669L253.335 21.0173L262.796 11.5562L263.489 12.0763C264.451 12.7973 265.373 13.5949 266.247 14.4687C267.121 15.3426 267.918 16.2646 268.639 17.2263L269.16 17.9201ZM233.636 11.5562L243.097 21.0173L241.969 21.669C241.043 22.2037 240.171 22.8675 239.377 23.6611C238.583 24.4548 237.92 25.3274 237.385 26.2531L236.733 27.3812L227.272 17.9201L227.792 17.2263C228.513 16.2646 229.311 15.3426 230.185 14.4687C231.058 13.5949 231.98 12.7973 232.942 12.0763L233.636 11.5562ZM233.542 52.1235C232.618 51.4308 231.732 50.6644 230.892 49.8241C230.051 48.9838 229.285 48.0977 228.592 47.1738L236.519 39.2471C236.689 39.5416 236.871 39.8311 237.065 40.1148C237.531 40.7949 238.066 41.4419 238.67 42.0459C239.274 42.6499 239.921 43.1847 240.601 43.6503C240.885 43.8445 241.174 44.0267 241.469 44.1968L233.542 52.1235ZM255.831 43.6503C256.511 43.1847 257.158 42.6499 257.762 42.0459C258.366 41.4419 258.901 40.7949 259.366 40.1148C259.56 39.8311 259.743 39.5416 259.913 39.2471L267.839 47.1738C267.147 48.0977 266.38 48.9838 265.54 49.8241C264.7 50.6644 263.814 51.4308 262.89 52.1235L254.963 44.1968C255.257 44.0267 255.547 43.8445 255.831 43.6503ZM262.89 12.8764C263.814 13.5691 264.7 14.3356 265.54 15.1759C266.38 16.0161 267.147 16.9022 267.839 17.8262L259.913 25.7528C259.743 25.4583 259.56 25.1689 259.366 24.8852C258.901 24.205 258.366 23.558 257.762 22.954C257.158 22.35 256.511 21.8152 255.831 21.3496C255.547 21.1554 255.257 20.9732 254.963 20.8031L262.89 12.8764ZM240.601 21.3496C239.921 21.8152 239.274 22.35 238.67 22.954C238.066 23.558 237.531 24.205 237.065 24.8852C236.871 25.1689 236.689 25.4583 236.519 25.7528L228.592 17.8262C229.285 16.9022 230.051 16.0161 230.892 15.1759C231.732 14.3356 232.618 13.5691 233.542 12.8764L241.469 20.8031C241.174 20.9732 240.885 21.1554 240.601 21.3496Z" fill="#333333"/>
<path fill-rule="evenodd" clip-rule="evenodd" d="M259.772 56.5803C269.825 59.083 276.414 49.8971 272.633 42.2481L273.529 41.8049C277.707 50.2565 270.368 60.2485 259.53 57.5507L259.772 56.5803ZM226.063 9.24539C229.001 6.3779 233.552 5.11924 238.476 6.66936L238.176 7.6232C233.586 6.17819 229.423 7.36345 226.761 9.96108C224.1 12.5583 222.901 16.6022 224.314 20.9699L223.362 21.2776C221.835 16.5557 223.124 12.1133 226.063 9.24539ZM226.187 53.9027C228.653 56.536 232.788 57.7308 237.595 55.9918L237.936 56.9322C232.795 58.7919 228.226 57.5428 225.457 54.5862C222.693 51.6337 221.792 47.049 223.833 42.3884L224.749 42.7895C222.855 47.1143 223.718 51.2655 226.187 53.9027ZM258.512 6.66751C268.824 3.56309 276.667 12.3182 274.056 20.7721L273.101 20.477C275.464 12.8271 268.385 4.73951 258.8 7.62505L258.512 6.66751Z" fill="#333333"/>
<g clip-path="url(#clip1_4321_22282)">
<mask id="path-27-inside-1_4321_22282" fill="white">
<path fill-rule="evenodd" clip-rule="evenodd" d="M368.716 1.48833C368.716 0.700388 369.176 0 369.834 0H377.597C378.19 0 378.716 0.61284 378.716 1.48833V48.5117C378.716 49.2996 378.255 50 377.597 50H369.834C369.242 50 368.716 49.3872 368.716 48.5117V1.48833ZM354.716 17.0914C354.716 16.5136 355.176 16 355.834 16H363.597C364.19 16 364.716 16.4494 364.716 17.0914V49.9086C364.716 50.4864 364.255 51 363.597 51H355.834C355.242 51 354.716 50.5506 354.716 49.9086V17.0914ZM340.716 27.952C340.716 27.448 341.176 27 341.834 27H349.597C350.19 27 350.716 27.392 350.716 27.952V50.048C350.716 50.552 350.255 51 349.597 51H341.834C341.242 51 340.716 50.608 340.716 50.048V27.952ZM335.597 35H327.834C327.176 35 326.716 35.4762 326.716 36.0119V43.0238V43.0833V49.9881C326.716 50.5833 327.242 51 327.834 51H335.597C336.255 51 336.716 50.5238 336.716 49.9881V43.0833V43.0238V36.0119C336.716 35.4762 336.19 35 335.597 35Z"/>
</mask>
<path fill-rule="evenodd" clip-rule="evenodd" d="M368.716 1.48833C368.716 0.700388 369.176 0 369.834 0H377.597C378.19 0 378.716 0.61284 378.716 1.48833V48.5117C378.716 49.2996 378.255 50 377.597 50H369.834C369.242 50 368.716 49.3872 368.716 48.5117V1.48833ZM354.716 17.0914C354.716 16.5136 355.176 16 355.834 16H363.597C364.19 16 364.716 16.4494 364.716 17.0914V49.9086C364.716 50.4864 364.255 51 363.597 51H355.834C355.242 51 354.716 50.5506 354.716 49.9086V17.0914ZM340.716 27.952C340.716 27.448 341.176 27 341.834 27H349.597C350.19 27 350.716 27.392 350.716 27.952V50.048C350.716 50.552 350.255 51 349.597 51H341.834C341.242 51 340.716 50.608 340.716 50.048V27.952ZM335.597 35H327.834C327.176 35 326.716 35.4762 326.716 36.0119V43.0238V43.0833V49.9881C326.716 50.5833 327.242 51 327.834 51H335.597C336.255 51 336.716 50.5238 336.716 49.9881V43.0833V43.0238V36.0119C336.716 35.4762 336.19 35 335.597 35Z" fill="#F3FFFE"/>
<path d="M369.834 -1C369.115 -1 368.558 -0.608666 368.217 -0.136368C367.882 0.327805 367.716 0.910762 367.716 1.48833H369.716C369.716 1.27795 369.779 1.11675 369.839 1.03374C369.893 0.95886 369.896 1 369.834 1V-1ZM377.597 -1H369.834V1H377.597V-1ZM379.716 1.48833C379.716 0.302472 378.956 -1 377.597 -1V1C377.53 1 377.538 0.964335 377.591 1.03224C377.644 1.09916 377.716 1.24753 377.716 1.48833H379.716ZM379.716 48.5117V1.48833H377.716V48.5117H379.716ZM377.597 51C378.317 51 378.874 50.6087 379.214 50.1364C379.549 49.6722 379.716 49.0892 379.716 48.5117H377.716C377.716 48.722 377.652 48.8833 377.592 48.9663C377.538 49.0411 377.536 49 377.597 49V51ZM369.834 51H377.597V49H369.834V51ZM367.716 48.5117C367.716 49.6975 368.476 51 369.834 51V49C369.901 49 369.894 49.0357 369.84 48.9678C369.788 48.9008 369.716 48.7525 369.716 48.5117H367.716ZM367.716 1.48833V48.5117H369.716V1.48833H367.716ZM355.834 15C354.609 15 353.716 15.9769 353.716 17.0914H355.716C355.716 17.0694 355.725 17.0471 355.741 17.0303C355.749 17.0225 355.758 17.0158 355.77 17.0108C355.782 17.0061 355.801 17 355.834 17V15ZM363.597 15H355.834V17H363.597V15ZM365.716 17.0914C365.716 15.8367 364.679 15 363.597 15V17C363.642 17 363.676 17.0173 363.695 17.0347C363.703 17.0425 363.707 17.0493 363.71 17.0547C363.712 17.0591 363.716 17.0697 363.716 17.0914H365.716ZM365.716 49.9086V17.0914H363.716V49.9086H365.716ZM363.597 52C364.823 52 365.716 51.0231 365.716 49.9086H363.716C363.716 49.9306 363.707 49.9529 363.69 49.9697C363.683 49.9775 363.673 49.9841 363.661 49.9892C363.65 49.9939 363.63 50 363.597 50V52ZM355.834 52H363.597V50H355.834V52ZM353.716 49.9086C353.716 51.1633 354.752 52 355.834 52V50C355.79 50 355.755 49.9827 355.737 49.9653C355.728 49.9575 355.724 49.9507 355.722 49.9453C355.72 49.9409 355.716 49.9303 355.716 49.9086H353.716ZM353.716 17.0914V49.9086H355.716V17.0914H353.716ZM341.834 26C340.741 26 339.716 26.786 339.716 27.952H341.716C341.716 28.0141 341.687 28.0399 341.692 28.0352C341.695 28.0322 341.735 28 341.834 28V26ZM349.597 26H341.834V28H349.597V26ZM351.716 27.952C351.716 26.6604 350.544 26 349.597 26V28C349.636 28 349.67 28.0064 349.697 28.0159C349.725 28.0254 349.741 28.0361 349.746 28.0403C349.751 28.0443 349.742 28.0389 349.733 28.0194C349.722 27.9977 349.716 27.9726 349.716 27.952H351.716ZM351.716 50.048V27.952H349.716V50.048H351.716ZM349.597 52C350.691 52 351.716 51.214 351.716 50.048H349.716C349.716 49.9859 349.745 49.9602 349.74 49.9648C349.736 49.9678 349.697 50 349.597 50V52ZM341.834 52H349.597V50H341.834V52ZM339.716 50.048C339.716 51.3396 340.888 52 341.834 52V50C341.796 50 341.762 49.9936 341.734 49.9841C341.706 49.9746 341.691 49.9639 341.686 49.9597C341.681 49.9557 341.689 49.9611 341.699 49.9806C341.71 50.0023 341.716 50.0274 341.716 50.048H339.716ZM339.716 27.952V50.048H341.716V27.952H339.716ZM327.834 36H335.597V34H327.834V36ZM327.716 36.0119C327.716 36.0362 327.705 36.0416 327.714 36.0328C327.719 36.0286 327.728 36.0211 327.746 36.0142C327.763 36.0076 327.791 36 327.834 36V34C326.681 34 325.716 34.8689 325.716 36.0119H327.716ZM327.716 43.0238V36.0119H325.716V43.0238H327.716ZM327.716 43.0833V43.0238H325.716V43.0833H327.716ZM327.716 49.9881V43.0833H325.716V49.9881H327.716ZM327.834 50C327.803 50 327.775 49.9945 327.752 49.9861C327.729 49.9777 327.715 49.9679 327.709 49.9623C327.703 49.9571 327.705 49.9576 327.71 49.9666C327.712 49.9709 327.714 49.9758 327.715 49.9807C327.716 49.9856 327.716 49.9884 327.716 49.9881H325.716C325.716 51.2633 326.827 52 327.834 52V50ZM335.597 50H327.834V52H335.597V50ZM335.716 49.9881C335.716 49.9638 335.727 49.9584 335.717 49.9672C335.713 49.9714 335.703 49.9789 335.686 49.9858C335.669 49.9924 335.64 50 335.597 50V52C336.751 52 337.716 51.1311 337.716 49.9881H335.716ZM335.716 43.0833V49.9881H337.716V43.0833H335.716ZM335.716 43.0238V43.0833H337.716V43.0238H335.716ZM335.716 36.0119V43.0238H337.716V36.0119H335.716ZM335.597 36C335.611 36 335.629 36.0028 335.651 36.0113C335.673 36.0201 335.693 36.0328 335.708 36.0466C335.723 36.0606 335.727 36.0694 335.726 36.0666C335.724 36.0627 335.716 36.0436 335.716 36.0119H337.716C337.716 34.8321 336.645 34 335.597 34V36Z" fill="#333333" mask="url(#path-27-inside-1_4321_22282)"/>
<mask id="path-29-inside-2_4321_22282" fill="white">
<path fill-rule="evenodd" clip-rule="evenodd" d="M368.716 16.0716C368.716 15.5043 369.176 15 369.834 15H377.597C378.19 15 378.716 15.4412 378.716 16.0716V49.9284C378.716 50.4957 378.255 51 377.597 51H369.834C369.242 51 368.716 50.5588 368.716 49.9284V16.0716ZM354.716 28.7172C354.716 28.3375 355.176 28 355.834 28H363.597C364.19 28 364.716 28.2953 364.716 28.7172V50.2828C364.716 50.6625 364.255 51 363.597 51H355.834C355.242 51 354.716 50.7047 354.716 50.2828V28.7172ZM340.716 36.595C340.716 36.28 341.176 36 341.834 36H349.597C350.19 36 350.716 36.245 350.716 36.595V50.405C350.716 50.72 350.255 51 349.597 51H341.834C341.242 51 340.716 50.755 340.716 50.405V36.595ZM335.597 42H327.834C327.176 42 326.716 42.2679 326.716 42.5692V46.5134V46.5469V50.4308C326.716 50.7656 327.242 51 327.834 51H335.597C336.255 51 336.716 50.7321 336.716 50.4308V46.5469V46.5134V42.5692C336.716 42.2679 336.19 42 335.597 42Z"/>
</mask>
<path fill-rule="evenodd" clip-rule="evenodd" d="M368.716 16.0716C368.716 15.5043 369.176 15 369.834 15H377.597C378.19 15 378.716 15.4412 378.716 16.0716V49.9284C378.716 50.4957 378.255 51 377.597 51H369.834C369.242 51 368.716 50.5588 368.716 49.9284V16.0716ZM354.716 28.7172C354.716 28.3375 355.176 28 355.834 28H363.597C364.19 28 364.716 28.2953 364.716 28.7172V50.2828C364.716 50.6625 364.255 51 363.597 51H355.834C355.242 51 354.716 50.7047 354.716 50.2828V28.7172ZM340.716 36.595C340.716 36.28 341.176 36 341.834 36H349.597C350.19 36 350.716 36.245 350.716 36.595V50.405C350.716 50.72 350.255 51 349.597 51H341.834C341.242 51 340.716 50.755 340.716 50.405V36.595ZM335.597 42H327.834C327.176 42 326.716 42.2679 326.716 42.5692V46.5134V46.5469V50.4308C326.716 50.7656 327.242 51 327.834 51H335.597C336.255 51 336.716 50.7321 336.716 50.4308V46.5469V46.5134V42.5692C336.716 42.2679 336.19 42 335.597 42Z" fill="#D9F4FF"/>
<path d="M369.834 14C368.626 14 367.716 14.9502 367.716 16.0716H369.716C369.716 16.0607 369.72 16.0454 369.735 16.0308C369.742 16.024 369.751 16.0172 369.764 16.0117C369.777 16.0065 369.799 16 369.834 16V14ZM377.597 14H369.834V16H377.597V14ZM379.716 16.0716C379.716 14.8119 378.661 14 377.597 14V16C377.647 16 377.684 16.0192 377.702 16.0354C377.709 16.0425 377.712 16.0474 377.713 16.0491C377.713 16.0498 377.716 16.0555 377.716 16.0716H379.716ZM379.716 49.9284V16.0716H377.716V49.9284H379.716ZM377.597 52C378.806 52 379.716 51.0498 379.716 49.9284H377.716C377.716 49.9393 377.712 49.9546 377.697 49.9692C377.69 49.976 377.681 49.9828 377.667 49.9883C377.655 49.9935 377.633 50 377.597 50V52ZM369.834 52H377.597V50H369.834V52ZM367.716 49.9284C367.716 51.1881 368.77 52 369.834 52V50C369.784 50 369.748 49.9808 369.73 49.9646C369.722 49.9575 369.72 49.9526 369.719 49.9509C369.719 49.9502 369.716 49.9445 369.716 49.9284H367.716ZM367.716 16.0716V49.9284H369.716V16.0716H367.716ZM355.834 27C355.343 27 354.862 27.1249 354.473 27.3847C354.092 27.6393 353.716 28.0942 353.716 28.7172H355.716C355.716 28.8309 355.68 28.9209 355.645 28.9771C355.628 29.004 355.612 29.022 355.601 29.0327C355.591 29.0433 355.584 29.0477 355.584 29.0478C355.584 29.0479 355.589 29.0446 355.6 29.0396C355.611 29.0346 355.627 29.0284 355.649 29.0224C355.693 29.0103 355.755 29 355.834 29V27ZM363.597 27H355.834V29H363.597V27ZM365.716 28.7172C365.716 28.0417 365.288 27.586 364.903 27.3488C364.514 27.1092 364.045 27 363.597 27V29C363.664 29 363.723 29.0084 363.772 29.0209C363.821 29.0337 363.848 29.0479 363.854 29.052C363.862 29.0568 363.832 29.0404 363.795 28.9857C363.754 28.9245 363.716 28.8301 363.716 28.7172H365.716ZM365.716 50.2828V28.7172H363.716V50.2828H365.716ZM363.597 52C364.089 52 364.57 51.8751 364.959 51.6153C365.34 51.3607 365.716 50.9058 365.716 50.2828H363.716C363.716 50.1691 363.752 50.0791 363.787 50.0229C363.804 49.996 363.82 49.978 363.83 49.9673C363.841 49.9567 363.848 49.9523 363.848 49.9522C363.848 49.9521 363.843 49.9554 363.832 49.9604C363.821 49.9654 363.805 49.9716 363.783 49.9776C363.739 49.9897 363.677 50 363.597 50V52ZM355.834 52H363.597V50H355.834V52ZM353.716 50.2828C353.716 50.9583 354.144 51.414 354.529 51.6512C354.918 51.8908 355.386 52 355.834 52V50C355.768 50 355.708 49.9916 355.66 49.9791C355.61 49.9663 355.584 49.9521 355.577 49.948C355.569 49.9432 355.6 49.9595 355.637 50.0143C355.678 50.0755 355.716 50.1699 355.716 50.2828H353.716ZM353.716 28.7172V50.2828H355.716V28.7172H353.716ZM341.834 35C341.375 35 340.92 35.0959 340.544 35.3047C340.2 35.4949 339.716 35.9125 339.716 36.595H341.716C341.716 36.7716 341.649 36.9021 341.595 36.9731C341.545 37.0387 341.505 37.0585 341.513 37.054C341.531 37.0441 341.635 37 341.834 37V35ZM349.597 35H341.834V37H349.597V35ZM351.716 36.595C351.716 35.8601 351.17 35.4474 350.833 35.2757C350.458 35.0841 350.016 35 349.597 35V37C349.678 37 349.751 37.0084 349.812 37.0215C349.875 37.035 349.911 37.0504 349.924 37.0568C349.94 37.0653 349.901 37.0494 349.848 36.9846C349.788 36.9107 349.716 36.7753 349.716 36.595H351.716ZM351.716 50.405V36.595H349.716V50.405H351.716ZM349.597 52C350.056 52 350.511 51.9041 350.888 51.6953C351.231 51.5051 351.716 51.0875 351.716 50.405H349.716C349.716 50.2284 349.783 50.0979 349.837 50.0269C349.886 49.9612 349.927 49.9415 349.919 49.9459C349.901 49.9559 349.796 50 349.597 50V52ZM341.834 52H349.597V50H341.834V52ZM339.716 50.405C339.716 51.1399 340.262 51.5526 340.598 51.7243C340.973 51.9159 341.416 52 341.834 52V50C341.754 50 341.68 49.9915 341.619 49.9785C341.557 49.965 341.52 49.9495 341.508 49.9432C341.491 49.9347 341.531 49.9506 341.584 50.0154C341.644 50.0892 341.716 50.2247 341.716 50.405H339.716ZM339.716 36.595V50.405H341.716V36.595H339.716ZM327.834 43H335.597V41H327.834V43ZM327.716 42.5692C327.716 42.7617 327.64 42.9012 327.582 42.974C327.529 43.0413 327.487 43.0605 327.497 43.0551C327.518 43.0436 327.629 43 327.834 43V41C327.382 41 326.933 41.0903 326.56 41.2881C326.23 41.463 325.716 41.8706 325.716 42.5692H327.716ZM327.716 46.5134V42.5692H325.716V46.5134H327.716ZM327.716 46.5469V46.5134H325.716V46.5469H327.716ZM327.716 50.4308V46.5469H325.716V50.4308H327.716ZM327.834 50C327.654 50 327.532 49.962 327.492 49.9424C327.473 49.9331 327.514 49.9482 327.57 50.014C327.633 50.089 327.716 50.2335 327.716 50.4308H325.716C325.716 51.1815 326.294 51.583 326.614 51.7394C326.985 51.9208 327.422 52 327.834 52V50ZM335.597 50H327.834V52H335.597V50ZM335.716 50.4308C335.716 50.2383 335.792 50.0988 335.85 50.026C335.903 49.9587 335.945 49.9395 335.935 49.9449C335.913 49.9563 335.803 50 335.597 50V52C336.05 52 336.499 51.9097 336.872 51.7119C337.202 51.537 337.716 51.1294 337.716 50.4308H335.716ZM335.716 46.5469V50.4308H337.716V46.5469H335.716ZM335.716 46.5134V46.5469H337.716V46.5134H335.716ZM335.716 42.5692V46.5134H337.716V42.5692H335.716ZM335.597 43C335.756 43 335.877 43.0383 335.925 43.0628C335.949 43.0752 335.918 43.0651 335.869 43.0087C335.818 42.9499 335.716 42.7994 335.716 42.5692H337.716C337.716 41.8201 337.113 41.4234 336.832 41.2804C336.469 41.0957 336.031 41 335.597 41V43Z" fill="#333333" mask="url(#path-29-inside-2_4321_22282)"/>
<path d="M353.424 4.40424L353.824 4.11981L353.547 3.7148L351.885 1.28208C351.658 0.95021 351.896 0.5 352.298 0.5H361.184C361.545 0.5 361.787 0.870766 361.642 1.2012L358.038 9.39865C357.875 9.7706 357.36 9.80259 357.151 9.45372L355.739 7.08748L355.46 6.62067L355.018 6.93732L328.844 25.6919C328.167 26.1772 327.227 26.0383 326.719 25.3779C326.185 24.6834 326.334 23.6843 327.048 23.1763L353.424 4.40424Z" fill="url(#paint6_linear_4321_22282)" stroke="#333333"/>
<path d="M373.716 63.5C381.692 63.5 388.216 56.9761 388.216 49C388.216 41.0239 381.692 34.5 373.716 34.5C365.74 34.5 359.216 41.0239 359.216 49C359.216 56.9761 365.74 63.5 373.716 63.5Z" fill="white" stroke="#333333"/>
<path d="M373.716 38C367.647 38 362.716 42.931 362.716 49C362.716 55.069 367.647 60 373.716 60C379.785 60 384.716 55.069 384.716 49C384.716 42.931 379.785 38 373.716 38Z" fill="url(#paint7_linear_4321_22282)"/>
<path d="M370.55 42.6353C371.375 42.6353 372.001 42.9429 372.426 43.5581C372.852 44.1682 373.064 45.0321 373.064 46.1498C373.064 47.2623 372.859 48.1314 372.449 48.7568C372.044 49.3823 371.411 49.6951 370.55 49.6951C369.745 49.6951 369.132 49.3823 368.712 48.7568C368.291 48.1314 368.081 47.2623 368.081 46.1498C368.081 45.0321 368.278 44.1682 368.673 43.5581C369.073 42.9429 369.699 42.6353 370.55 42.6353ZM370.557 43.8965C370.224 43.8965 369.978 44.0836 369.819 44.4579C369.665 44.8322 369.588 45.3987 369.588 46.1575C369.588 46.9111 369.665 47.4802 369.819 47.8647C369.978 48.2441 370.224 48.4338 370.557 48.4338C370.896 48.4338 371.147 48.2441 371.311 47.8647C371.48 47.4854 371.565 46.9163 371.565 46.1575C371.565 45.4038 371.483 44.8398 371.319 44.4656C371.155 44.0862 370.901 43.8965 370.557 43.8965ZM378.102 42.7968L371.865 54.0402H370.38L376.617 42.7968H378.102ZM377.894 47.1342C378.719 47.1342 379.345 47.4418 379.771 48.057C380.201 48.6671 380.417 49.531 380.417 50.6487C380.417 51.7561 380.211 52.6226 379.801 53.2481C379.396 53.8735 378.76 54.1863 377.894 54.1863C377.089 54.1863 376.476 53.8735 376.056 53.2481C375.636 52.6226 375.425 51.7561 375.425 50.6487C375.425 49.531 375.623 48.6671 376.018 48.057C376.417 47.4418 377.043 47.1342 377.894 47.1342ZM377.902 48.3954C377.568 48.3954 377.322 48.5825 377.163 48.9568C377.01 49.3311 376.933 49.8976 376.933 50.6564C376.933 51.41 377.01 51.9791 377.163 52.3637C377.322 52.743 377.568 52.9327 377.902 52.9327C378.245 52.9327 378.499 52.7456 378.663 52.3713C378.827 51.9919 378.909 51.4203 378.909 50.6564C378.909 49.9027 378.827 49.3387 378.663 48.9645C378.499 48.5851 378.245 48.3954 377.902 48.3954Z" fill="white"/>
<path d="M355.716 63.375C363.692 63.375 370.216 56.8511 370.216 48.875C370.216 40.8989 363.692 34.375 355.716 34.375C347.74 34.375 341.216 40.8989 341.216 48.875C341.216 56.8511 347.74 63.375 355.716 63.375Z" fill="white" stroke="#333333"/>
<path d="M355.716 38C349.647 38 344.716 42.931 344.716 49C344.716 55.069 349.647 60 355.716 60C361.785 60 366.716 55.069 366.716 49C366.716 42.931 361.785 38 355.716 38ZM356.569 54.6897V56.5862H355.716H354.673V54.7845C353.44 54.6897 352.207 54.4052 351.449 53.931L352.018 51.75C352.776 52.2241 353.914 52.6034 355.147 52.6034C355.337 52.6034 355.526 52.6034 355.621 52.6034C356.38 52.5086 356.949 52.1293 356.949 51.4655C356.949 50.8966 356.569 50.5172 355.621 50.1379C355.431 50.0431 355.147 49.9483 354.957 49.8534C352.966 49.1897 351.543 48.2414 351.543 46.4397C351.543 44.8276 352.681 43.5 354.673 43.1207V41.319H355.621H356.569V42.931C357.802 43.0259 358.655 43.2155 359.319 43.5948L358.75 45.681C358.276 45.4914 357.423 45.0172 356 45.0172C355.811 45.0172 355.716 45.0172 355.621 45.0172C354.673 45.1121 354.388 45.5862 354.388 46.0603C354.388 46.5345 354.768 46.819 355.621 47.2931C355.905 47.3879 356.285 47.5776 356.664 47.7672C358.94 48.5259 359.793 49.569 359.793 51.2759C359.888 52.8879 358.75 54.3103 356.569 54.6897Z" fill="url(#paint8_linear_4321_22282)"/>
</g>
<mask id="path-37-inside-3_4321_22282" fill="white">
<path fill-rule="evenodd" clip-rule="evenodd" d="M488.148 26.7407L451.102 23.4827H450.47L448.952 16.6046C448.952 16.5443 448.921 16.4839 448.889 16.4236C448.858 16.3633 448.826 16.3029 448.826 16.2426C448.573 15.6393 448.067 15.2773 447.435 15.0359L440.355 13.1052C439.217 12.7432 438.079 13.3466 437.826 14.4326C437.447 15.5186 438.079 16.6046 439.217 16.8459L445.159 18.5353L452.24 51.1156C452.366 52.081 453.251 53 454.263 53H484.734C485.872 53 486.716 52.086 486.716 51C486.716 49.914 485.872 49 484.734 49H455.906L454.895 45H485.24C486.883 45 488.148 43.8855 488.527 42.4375L490.929 30.2401C491.435 28.5507 490.044 26.982 488.148 26.7407ZM482.213 60C482.213 62.1818 480.394 64 478.213 64C476.031 64 474.213 62.1818 474.213 60C474.213 57.8182 476.031 56 478.213 56C480.394 56.1212 482.213 57.8182 482.213 60ZM461.758 64C463.94 64 465.758 62.1818 465.758 60C465.758 57.8182 464.061 56.1212 461.758 56C459.576 56 457.758 57.8182 457.758 60C457.758 62.1818 459.576 64 461.758 64Z"/>
</mask>
<path fill-rule="evenodd" clip-rule="evenodd" d="M488.148 26.7407L451.102 23.4827H450.47L448.952 16.6046C448.952 16.5443 448.921 16.4839 448.889 16.4236C448.858 16.3633 448.826 16.3029 448.826 16.2426C448.573 15.6393 448.067 15.2773 447.435 15.0359L440.355 13.1052C439.217 12.7432 438.079 13.3466 437.826 14.4326C437.447 15.5186 438.079 16.6046 439.217 16.8459L445.159 18.5353L452.24 51.1156C452.366 52.081 453.251 53 454.263 53H484.734C485.872 53 486.716 52.086 486.716 51C486.716 49.914 485.872 49 484.734 49H455.906L454.895 45H485.24C486.883 45 488.148 43.8855 488.527 42.4375L490.929 30.2401C491.435 28.5507 490.044 26.982 488.148 26.7407ZM482.213 60C482.213 62.1818 480.394 64 478.213 64C476.031 64 474.213 62.1818 474.213 60C474.213 57.8182 476.031 56 478.213 56C480.394 56.1212 482.213 57.8182 482.213 60ZM461.758 64C463.94 64 465.758 62.1818 465.758 60C465.758 57.8182 464.061 56.1212 461.758 56C459.576 56 457.758 57.8182 457.758 60C457.758 62.1818 459.576 64 461.758 64Z" fill="url(#paint9_linear_4321_22282)"/>
<path d="M451.102 23.4827L451.19 22.4865L451.146 22.4827H451.102V23.4827ZM488.148 26.7407L488.274 25.7487L488.255 25.7463L488.235 25.7446L488.148 26.7407ZM450.47 23.4827L449.493 23.6981L449.666 24.4827H450.47V23.4827ZM448.952 16.6046H447.952V16.7136L447.976 16.82L448.952 16.6046ZM448.889 16.4236L448.003 16.8877L448.003 16.8877L448.889 16.4236ZM448.826 16.2426H449.826V16.0415L449.748 15.8561L448.826 16.2426ZM447.435 15.0359L447.792 14.1017L447.746 14.0841L447.698 14.0712L447.435 15.0359ZM440.355 13.1052L440.052 14.0582L440.072 14.0645L440.092 14.07L440.355 13.1052ZM437.826 14.4326L438.77 14.7623L438.788 14.7116L438.8 14.6594L437.826 14.4326ZM439.217 16.8459L439.49 15.8841L439.458 15.8748L439.424 15.8677L439.217 16.8459ZM445.159 18.5353L446.137 18.3229L446.009 17.7373L445.433 17.5734L445.159 18.5353ZM452.24 51.1156L453.231 50.9857L453.226 50.9442L453.217 50.9032L452.24 51.1156ZM455.906 49L454.937 49.2452L455.128 50H455.906V49ZM454.895 45V44H453.611L453.926 45.2452L454.895 45ZM488.527 42.4375L489.494 42.6909L489.502 42.661L489.508 42.6307L488.527 42.4375ZM490.929 30.2401L489.971 29.9533L489.958 29.9995L489.948 30.0468L490.929 30.2401ZM478.213 56L478.268 55.0015L478.24 55H478.213V56ZM461.758 56L461.81 55.0014L461.784 55H461.758V56ZM451.014 24.4788L488.06 27.7369L488.235 25.7446L451.19 22.4865L451.014 24.4788ZM450.47 24.4827H451.102V22.4827H450.47V24.4827ZM447.976 16.82L449.493 23.6981L451.446 23.2673L449.929 16.3892L447.976 16.82ZM448.003 16.8877C448.008 16.8957 448.01 16.9004 448.012 16.9046C448.014 16.9085 448.015 16.9099 448.015 16.9097C448.015 16.9095 448.013 16.9067 448.011 16.902C448.009 16.8973 448.006 16.8897 448.002 16.8798C447.989 16.8465 447.952 16.7461 447.952 16.6046H449.952C449.952 16.4028 449.9 16.2421 449.863 16.1484C449.828 16.0588 449.786 15.9799 449.775 15.9595L448.003 16.8877ZM447.826 16.2426C447.826 16.4445 447.878 16.6051 447.915 16.6988C447.95 16.7884 447.993 16.8673 448.003 16.8877L449.775 15.9595C449.771 15.9515 449.768 15.9468 449.766 15.9426C449.764 15.9387 449.764 15.9373 449.764 15.9375C449.764 15.9377 449.765 15.9405 449.767 15.9452C449.769 15.9499 449.773 15.9575 449.777 15.9674C449.79 16.0007 449.826 16.1011 449.826 16.2426H447.826ZM447.079 15.9702C447.571 16.1581 447.796 16.373 447.904 16.6292L449.748 15.8561C449.35 14.9055 448.564 14.3964 447.792 14.1017L447.079 15.9702ZM440.092 14.07L447.172 16.0007L447.698 14.0712L440.618 12.1405L440.092 14.07ZM438.8 14.6594C438.906 14.2026 439.408 13.8535 440.052 14.0582L440.658 12.1523C439.025 11.633 437.252 12.4905 436.852 14.2058L438.8 14.6594ZM439.424 15.8677C438.854 15.7466 438.597 15.2581 438.77 14.7623L436.882 14.1029C436.297 15.7791 437.304 17.4626 439.009 17.8242L439.424 15.8677ZM445.433 17.5734L439.49 15.8841L438.943 17.8078L444.886 19.4972L445.433 17.5734ZM453.217 50.9032L446.137 18.3229L444.182 18.7477L451.263 51.328L453.217 50.9032ZM454.263 52C454.065 52 453.829 51.9078 453.613 51.6999C453.396 51.49 453.262 51.2209 453.231 50.9857L451.248 51.2455C451.344 51.9757 451.716 52.6488 452.225 53.1397C452.737 53.6327 453.449 54 454.263 54V52ZM484.734 52H454.263V54H484.734V52ZM485.716 51C485.716 51.5629 485.291 52 484.734 52V54C486.453 54 487.716 52.6091 487.716 51H485.716ZM484.734 50C485.291 50 485.716 50.4371 485.716 51H487.716C487.716 49.3909 486.453 48 484.734 48V50ZM455.906 50H484.734V48H455.906V50ZM453.926 45.2452L454.937 49.2452L456.876 48.7548L455.864 44.7548L453.926 45.2452ZM485.24 44H454.895V46H485.24V44ZM487.56 42.1841C487.286 43.2289 486.392 44 485.24 44V46C487.375 46 489.01 44.5421 489.494 42.6909L487.56 42.1841ZM489.948 30.0468L487.546 42.2443L489.508 42.6307L491.911 30.4333L489.948 30.0468ZM488.022 27.7327C488.738 27.8239 489.321 28.1622 489.667 28.583C490.003 28.9904 490.118 29.4647 489.971 29.9533L491.887 30.5269C492.247 29.3262 491.919 28.1714 491.211 27.3118C490.515 26.4656 489.454 25.8988 488.274 25.7487L488.022 27.7327ZM478.213 65C480.947 65 483.213 62.7341 483.213 60H481.213C481.213 61.6295 479.842 63 478.213 63V65ZM473.213 60C473.213 62.7341 475.479 65 478.213 65V63C476.583 63 475.213 61.6295 475.213 60H473.213ZM478.213 55C475.479 55 473.213 57.2659 473.213 60H475.213C475.213 58.3705 476.583 57 478.213 57V55ZM483.213 60C483.213 57.2186 480.908 55.1482 478.268 55.0015L478.157 56.9985C479.881 57.0942 481.213 58.4177 481.213 60H483.213ZM464.758 60C464.758 61.6295 463.387 63 461.758 63V65C464.492 65 466.758 62.7341 466.758 60H464.758ZM461.705 56.9986C463.526 57.0945 464.758 58.3977 464.758 60H466.758C466.758 57.2387 464.596 55.148 461.81 55.0014L461.705 56.9986ZM458.758 60C458.758 58.3705 460.128 57 461.758 57V55C459.024 55 456.758 57.2659 456.758 60H458.758ZM461.758 63C460.128 63 458.758 61.6295 458.758 60H456.758C456.758 62.7341 459.024 65 461.758 65V63Z" fill="#333333" mask="url(#path-37-inside-3_4321_22282)"/>
<path d="M469.716 30C477.16 30 483.216 23.9444 483.216 16.5C483.216 9.05563 477.16 3 469.716 3C462.271 3 456.216 9.05563 456.216 16.5C456.216 23.9444 462.271 30 469.716 30Z" fill="white" stroke="#333333"/>
<path d="M464.98 15.5625H467.321L467.321 21.7495C467.321 23.1309 468.355 24.4062 469.716 24.4062C471.077 24.4062 472.11 23.1309 472.11 21.7495L472.11 15.5625H474.452C474.708 15.5625 474.958 15.5007 475.164 15.3483C475.375 15.1925 475.498 14.9729 475.544 14.7399C475.631 14.2987 475.451 13.8275 475.167 13.4507L475.155 13.4356L475.143 13.4215L470.091 7.67004L469.716 7.24233L469.34 7.67004L464.289 13.4215C463.974 13.7792 463.803 14.2579 463.887 14.7022C463.93 14.9318 464.045 15.1567 464.25 15.3222C464.455 15.4878 464.71 15.5625 464.98 15.5625Z" fill="url(#paint10_linear_4321_22282)" stroke="#333333"/>
<g clip-path="url(#clip2_4321_22282)">
<path d="M596.716 8.50049C598.097 8.50049 599.216 9.61978 599.216 11.0005V41.0001C599.216 42.3808 598.097 43.5001 596.716 43.5001H544.716C543.335 43.5001 542.216 42.3808 542.216 41.0001V11.0005C542.216 9.61978 543.335 8.50049 544.716 8.50049H596.716Z" fill="#D9F4FF" stroke="#333333"/>
<rect x="542.716" y="32" width="56" height="5" fill="#333333"/>
<path d="M560.716 14H557.716V16H560.716V14Z" fill="#333333"/>
<path d="M556.716 14.0039H551.716V24H556.716V14.0039Z" fill="#333333"/>
<path d="M560.716 18H557.716V20H560.716V18Z" fill="#333333"/>
<path d="M560.716 22H557.716V24H560.716V22Z" fill="#333333"/>
<path d="M550.716 14H547.716V16H550.716V14Z" fill="#333333"/>
<path d="M550.716 18H547.716V20H550.716V18Z" fill="#333333"/>
<path d="M550.716 22H547.716V24H550.716V22Z" fill="#333333"/>
<path d="M573.216 43.0062H573.216V43.0005C573.216 34.4766 580.192 27.5005 588.716 27.5005C597.24 27.5005 604.216 34.4766 604.216 43.0005C604.216 51.5243 597.24 58.5005 588.716 58.5005C580.089 58.5005 573.119 51.5225 573.216 43.0062Z" fill="white" stroke="#333333"/>
<mask id="path-45-outside-4_4321_22282" maskUnits="userSpaceOnUse" x="579.716" y="32.4929" width="18" height="22" fill="black">
<rect fill="white" x="579.716" y="32.4929" width="18" height="22"/>
<path d="M588.825 34.4929C586.77 37.1184 584.373 38.1458 580.72 38.1458C580.606 46.0222 582.775 49.4468 588.825 52.7572C594.532 49.6751 596.929 45.6798 596.701 38.1458C593.162 38.1458 591.108 37.1184 588.825 34.4929Z"/>
</mask>
<path d="M588.825 34.4929C586.77 37.1184 584.373 38.1458 580.72 38.1458C580.606 46.0222 582.775 49.4468 588.825 52.7572C594.532 49.6751 596.929 45.6798 596.701 38.1458C593.162 38.1458 591.108 37.1184 588.825 34.4929Z" fill="url(#paint11_linear_4321_22282)"/>
<path d="M588.825 34.4929L589.579 33.8367L588.784 32.9222L588.037 33.8766L588.825 34.4929ZM580.72 38.1458V37.1458H579.734L579.72 38.1313L580.72 38.1458ZM588.825 52.7572L588.345 53.6344L588.822 53.8953L589.3 53.6371L588.825 52.7572ZM596.701 38.1458L597.701 38.1155L597.671 37.1458H596.701V38.1458ZM588.037 33.8766C587.092 35.0847 586.103 35.8833 584.965 36.3905C583.818 36.9014 582.455 37.1458 580.72 37.1458V39.1458C582.638 39.1458 584.3 38.8764 585.779 38.2173C587.266 37.5544 588.503 36.5267 589.612 35.1092L588.037 33.8766ZM579.72 38.1313C579.662 42.15 580.181 45.1818 581.592 47.6587C583.007 50.1425 585.244 51.9377 588.345 53.6344L589.305 51.8799C586.356 50.2663 584.483 48.6939 583.33 46.6688C582.172 44.6367 581.664 42.018 581.72 38.1603L579.72 38.1313ZM589.3 53.6371C592.262 52.0374 594.459 50.1491 595.864 47.6043C597.265 45.0673 597.818 41.9876 597.701 38.1155L595.701 38.1761C595.812 41.8379 595.281 44.5229 594.113 46.6376C592.95 48.7444 591.095 50.3949 588.35 51.8773L589.3 53.6371ZM596.701 37.1458C595.03 37.1458 593.788 36.9036 592.718 36.3993C591.645 35.8935 590.667 35.0874 589.579 33.8367L588.07 35.1491C589.266 36.5239 590.456 37.5442 591.866 38.2085C593.278 38.8743 594.833 39.1458 596.701 39.1458V37.1458Z" fill="#333333" mask="url(#path-45-outside-4_4321_22282)"/>
<path d="M592.889 40.2302C593.219 40.5604 593.219 41.0557 593.054 41.386L588.761 46.6698C588.596 46.8349 588.431 47 588.101 47C587.936 47 587.605 47 587.44 46.8349L584.963 44.193C584.633 43.8628 584.633 43.3674 584.963 43.0372C585.294 42.7069 585.789 42.7069 586.119 43.0372L587.936 45.0186L591.733 40.3953C592.063 39.8999 592.559 39.8999 592.889 40.2302Z" fill="white"/>
</g>
<g clip-path="url(#clip3_4321_22282)">
<path d="M680.716 4C665.216 4 652.716 16.6 652.716 32C652.716 47.4 665.316 60 680.716 60C696.216 60 708.716 47.4 708.716 32C708.716 16.6 696.216 4 680.716 4ZM680.716 54.18C667.816 54.18 658.536 44.8 658.536 32C658.536 19.1 667.916 9.82 680.716 9.82C693.616 9.82 702.896 19.2 702.896 32C702.896 44.9 693.616 54.18 680.716 54.18Z" fill="#D9F4FF"/>
<path fill-rule="evenodd" clip-rule="evenodd" d="M651.716 32C651.716 16.05 664.661 3 680.716 3C696.77 3 709.716 16.05 709.716 32C709.716 47.95 696.77 61 680.716 61C664.764 61 651.716 47.9523 651.716 32ZM659.536 32C659.536 44.2507 668.371 53.18 680.716 53.18C693.064 53.18 701.896 44.3477 701.896 32C701.896 19.7493 693.061 10.82 680.716 10.82C668.465 10.82 659.536 19.6553 659.536 32ZM652.716 32C652.716 16.6 665.216 4 680.716 4C696.216 4 708.716 16.6 708.716 32C708.716 47.4 696.216 60 680.716 60C665.316 60 652.716 47.4 652.716 32ZM658.536 32C658.536 44.8 667.816 54.18 680.716 54.18C693.616 54.18 702.896 44.9 702.896 32C702.896 19.2 693.616 9.82 680.716 9.82C667.916 9.82 658.536 19.1 658.536 32Z" fill="#333333"/>
<path d="M680.323 40.7973C680.516 40.9782 680.816 40.9782 681.008 40.7973L683.757 38.2131L686.343 35.7828L688.313 35.9604C690.784 36.2349 692.767 38.2264 692.861 40.6256V40.6259V40.6265V40.6271V40.6277V40.6282V40.6288V40.6294V40.63V40.6306V40.6311V40.6317V40.6323V40.6329V40.6335V40.6341V40.6346V40.6352V40.6358V40.6364V40.637V40.6375V40.6381V40.6387V40.6393V40.6399V40.6404V40.641V40.6416V40.6422V40.6428V40.6433V40.6439V40.6445V40.6451V40.6457V40.6462V40.6468V40.6474V40.648V40.6486V40.6491V40.6497V40.6503V40.6509V40.6515V40.6521V40.6526V40.6532V40.6538V40.6544V40.655V40.6555V40.6561V40.6567V40.6573V40.6579V40.6584V40.659V40.6596V40.6602V40.6608V40.6613V40.6619V40.6625V40.6631V40.6637V40.6642V40.6648V40.6654V40.666V40.6666V40.6671V40.6677V40.6683V40.6689V40.6695V40.6701V40.6706V40.6712V40.6718V40.6724V40.673V40.6735V40.6741V40.6747V40.6753V40.6759V40.6764V40.677V40.6776V40.6782V40.6788V40.6793V40.6799V40.6805V40.6811V40.6817V40.6822V40.6828V40.6834V40.684V40.6846V40.6851V40.6857V40.6863V40.6869V40.6875V40.6881V40.6886V40.6892V40.6898V40.6904V40.691V40.6915V40.6921V40.6927V40.6933V40.6939V40.6944V40.695V40.6956V40.6962V40.6968V40.6973V40.6979V40.6985V40.6991V40.6997V40.7002V40.7008V40.7014V40.702V40.7026V40.7032V40.7037V40.7043V40.7049V40.7055V40.7061V40.7066V40.7072V40.7078V40.7084V40.709V40.7095V40.7101V40.7107V40.7113V40.7119V40.7124V40.713V40.7136V40.7142V40.7148V40.7153V40.7159V40.7165V40.7171V40.7177V40.7182V40.7188V40.7194V40.72V40.7206V40.7212V40.7217V40.7223V40.7229V40.7235V40.7241V40.7246V40.7252V40.7258V40.7264V40.727V40.7275V40.7281V40.7287V40.7293V40.7299V40.7304V40.731V40.7316V40.7322V40.7328V40.7333V40.7339V40.7345V40.7351V40.7357V40.7362V40.7368V40.7374V40.738V40.7386V40.7392V40.7397V40.7403V40.7409V40.7415V40.7421V40.7426V40.7432V40.7438V40.7444V40.745V40.7455V40.7461V40.7467V40.7473V40.7479V40.7484V40.749V40.7496V40.7502V40.7508V40.7513V40.7519V40.7525V40.7531V40.7537V40.7542V40.7548V40.7554V40.756V40.7566V40.7572V40.7577V40.7583V40.7589V40.7595V40.7601V40.7606V40.7612V40.7618V40.7624V40.763V40.7635V40.7641V40.7647V40.7653V40.7659V40.7664V40.767V40.7676V40.7682V40.7688V40.7693V40.7699V40.7705V40.7711V40.7717V40.7722V40.7728V40.7734V40.774V40.7746V40.7752V40.7757V40.7763V40.7769V40.7775V40.7781V40.7786V40.7792V40.7798V40.7804V40.781V40.7815V40.7821V40.7827V40.7833V40.7839V40.7844V40.785V40.7856V40.7862V40.7868V40.7873V40.7879V40.7885V40.7891V40.7897V40.7902V40.7908V40.7914V40.792V40.7926V40.7932V40.7937V40.7943V40.7949V40.7955V40.7961V40.7966V40.7972V40.7978V40.7984V40.799V40.7995V40.8001V40.8007V40.8013V40.8019V40.8024V40.803V40.8036V40.8042V40.8048V40.8053V40.8059V40.8065V40.8071V40.8077V40.8082V40.8088V40.8094V40.81V40.8106V40.8112V40.8117V40.8123V40.8129V40.8135V40.8141V40.8146V40.8152V40.8158V40.8164V40.817V40.8175V40.8181V40.8187V40.8193V40.8199V40.8204V40.821V40.8216V40.8222V40.8228V40.8233V40.8239V40.8245V40.8251V40.8257V40.8263V40.8268V40.8274V40.828V40.8286V40.8292V40.8297V40.8303V40.8309V40.8315V40.8321V40.8326V40.8332V40.8338V40.8344V40.835V40.8355V40.8361V40.8367V40.8373V40.8379V40.8384V40.839V40.8396V40.8402V40.8408V40.8413V40.8419V40.8425V40.8431V40.8437V40.8443V40.8448V40.8454V40.846V40.8466V40.8472V40.8477V40.8483V40.8489V40.8495V40.8501V40.8506V40.8512V40.8518V40.8524V40.853V40.8535V40.8541V40.8547V40.8553V40.8559V40.8564V40.857V40.8576V40.8582V40.8588V40.8593V40.8599V40.8605V40.8611V40.8617V40.8623V40.8628V40.8634V40.864V40.8646V40.8652V40.8657V40.8663V40.8669V40.8675V40.8681V40.8686V40.8692V40.8698V40.8704V40.871V40.8715V40.8721V40.8727V40.8733V40.8739V40.8744V40.875V40.8756V40.8762V40.8768V40.8773V40.8779V40.8785V40.8791V40.8797V40.8803V40.8808V40.8814V40.882V40.8826V40.8832V40.8837V40.8843V40.8849V40.8855V40.8861V40.8866V40.8872V40.8878V40.8884V40.889V40.8895V40.8901V40.8907V40.8913V40.8919V40.8924V40.893V40.8936V40.8942V40.8948V40.8953V40.8959V40.8965V40.8971V40.8977V40.8983V40.8988V40.8994V40.9V40.9006V40.9012V40.9017V40.9023V40.9029V40.9035V40.9041V40.9046V40.9052V40.9058V40.9064V40.907V40.9075V40.9081V40.9087V40.9093V40.9099V40.9104V40.911V40.9116V40.9122V40.9128V40.9134V44.1836C692.861 44.7701 692.555 45.4188 691.909 46.086C691.268 46.7494 690.33 47.3884 689.174 47.9431C686.864 49.0521 683.767 49.7837 680.674 49.734C677.589 49.6844 674.511 48.9373 672.219 47.8451C671.072 47.2987 670.143 46.6761 669.508 46.0307C668.87 45.3817 668.571 44.7535 668.571 44.1836V40.9134V40.9128V40.9122V40.9116V40.911V40.9104V40.9099V40.9093V40.9087V40.9081V40.9075V40.907V40.9064V40.9058V40.9052V40.9046V40.9041V40.9035V40.9029V40.9023V40.9017V40.9012V40.9006V40.9V40.8994V40.8988V40.8983V40.8977V40.8971V40.8965V40.8959V40.8953V40.8948V40.8942V40.8936V40.893V40.8924V40.8919V40.8913V40.8907V40.8901V40.8895V40.889V40.8884V40.8878V40.8872V40.8866V40.8861V40.8855V40.8849V40.8843V40.8837V40.8832V40.8826V40.882V40.8814V40.8808V40.8803V40.8797V40.8791V40.8785V40.8779V40.8773V40.8768V40.8762V40.8756V40.875V40.8744V40.8739V40.8733V40.8727V40.8721V40.8715V40.871V40.8704V40.8698V40.8692V40.8686V40.8681V40.8675V40.8669V40.8663V40.8657V40.8652V40.8646V40.864V40.8634V40.8628V40.8623V40.8617V40.8611V40.8605V40.8599V40.8593V40.8588V40.8582V40.8576V40.857V40.8564V40.8559V40.8553V40.8547V40.8541V40.8535V40.853V40.8524V40.8518V40.8512V40.8506V40.8501V40.8495V40.8489V40.8483V40.8477V40.8472V40.8466V40.846V40.8454V40.8448V40.8443V40.8437V40.8431V40.8425V40.8419V40.8413V40.8408V40.8402V40.8396V40.839V40.8384V40.8379V40.8373V40.8367V40.8361V40.8355V40.835V40.8344V40.8338V40.8332V40.8326V40.8321V40.8315V40.8309V40.8303V40.8297V40.8292V40.8286V40.828V40.8274V40.8268V40.8263V40.8257V40.8251V40.8245V40.8239V40.8233V40.8228V40.8222V40.8216V40.821V40.8204V40.8199V40.8193V40.8187V40.8181V40.8175V40.817V40.8164V40.8158V40.8152V40.8146V40.8141V40.8135V40.8129V40.8123V40.8117V40.8112V40.8106V40.81V40.8094V40.8088V40.8082V40.8077V40.8071V40.8065V40.8059V40.8053V40.8048V40.8042V40.8036V40.803V40.8024V40.8019V40.8013V40.8007V40.8001V40.7995V40.799V40.7984V40.7978V40.7972V40.7966V40.7961V40.7955V40.7949V40.7943V40.7937V40.7932V40.7926V40.792V40.7914V40.7908V40.7902V40.7897V40.7891V40.7885V40.7879V40.7873V40.7868V40.7862V40.7856V40.785V40.7844V40.7839V40.7833V40.7827V40.7821V40.7815V40.781V40.7804V40.7798V40.7792V40.7786V40.7781V40.7775V40.7769V40.7763V40.7757V40.7752V40.7746V40.774V40.7734V40.7728V40.7722V40.7717V40.7711V40.7705V40.7699V40.7693V40.7688V40.7682V40.7676V40.767V40.7664V40.7659V40.7653V40.7647V40.7641V40.7635V40.763V40.7624V40.7618V40.7612V40.7606V40.7601V40.7595V40.7589V40.7583V40.7577V40.7572V40.7566V40.756V40.7554V40.7548V40.7542V40.7537V40.7531V40.7525V40.7519V40.7513V40.7508V40.7502V40.7496V40.749V40.7484V40.7479V40.7473V40.7467V40.7461V40.7455V40.745V40.7444V40.7438V40.7432V40.7426V40.7421V40.7415V40.7409V40.7403V40.7397V40.7392V40.7386V40.738V40.7374V40.7368V40.7362V40.7357V40.7351V40.7345V40.7339V40.7333V40.7328V40.7322V40.7316V40.731V40.7304V40.7299V40.7293V40.7287V40.7281V40.7275V40.727V40.7264V40.7258V40.7252V40.7246V40.7241V40.7235V40.7229V40.7223V40.7217V40.7212V40.7206V40.72V40.7194V40.7188V40.7182V40.7177V40.7171V40.7165V40.7159V40.7153V40.7148V40.7142V40.7136V40.713V40.7124V40.7119V40.7113V40.7107V40.7101V40.7095V40.709V40.7084V40.7078V40.7072V40.7066V40.7061V40.7055V40.7049V40.7043V40.7037V40.7032V40.7026V40.702V40.7014V40.7008V40.7002V40.6997V40.6991V40.6985V40.6979V40.6973V40.6968V40.6962V40.6956V40.695V40.6944V40.6939V40.6933V40.6927V40.6921V40.6915V40.691V40.6904V40.6898V40.6892V40.6886V40.6881V40.6875V40.6869V40.6863V40.6857V40.6851V40.6846V40.684V40.6834V40.6828V40.6822V40.6817V40.6811V40.6805V40.6799V40.6793V40.6788V40.6782V40.6776V40.677V40.6764V40.6759V40.6753V40.6747V40.6741V40.6735V40.673V40.6724V40.6718V40.6712V40.6706V40.6701V40.6695V40.6689V40.6683V40.6677V40.6671V40.6666V40.666V40.6654V40.6648V40.6642V40.6637V40.6631V40.6625V40.6619V40.6613V40.6608V40.6602V40.6596V40.659V40.6584V40.6579V40.6573V40.6567V40.6561V40.6555V40.655V40.6544V40.6538V40.6532V40.6526V40.6521V40.6515V40.6509V40.6503V40.6497V40.6491V40.6486V40.648V40.6474V40.6468V40.6462V40.6457V40.6451V40.6445V40.6439V40.6433V40.6428V40.6422V40.6416V40.641V40.6404V40.6399V40.6393V40.6387V40.6381V40.6375V40.637V40.6364V40.6358V40.6352V40.6346V40.6341V40.6335V40.6329V40.6323V40.6317V40.6311V40.6306V40.63V40.6294V40.6288V40.6282V40.6277V40.6271V40.6265V40.6259V40.6253V40.6253C668.665 38.1178 670.655 36.1414 673.105 35.9615L673.105 35.9616L673.116 35.9606L674.99 35.7837L680.323 40.7973Z" fill="url(#paint12_linear_4321_22282)" stroke="#333333" stroke-linejoin="round"/>
<path fill-rule="evenodd" clip-rule="evenodd" d="M678.426 17.7689C677.218 18.0425 675.952 18.5693 675.258 19.5407L675.249 19.5525C675.055 19.8076 674.897 20.2175 674.785 20.7568C674.674 21.2865 674.617 21.8951 674.594 22.5093C674.548 23.7369 674.64 24.9349 674.687 25.4671C674.7 25.6115 674.649 25.7542 674.548 25.8584C674.418 25.9935 674.321 26.2383 674.268 26.5498C674.216 26.8465 674.216 27.1272 674.216 27.2717C674.216 28.2908 674.512 28.8738 674.83 29.221C675.156 29.5781 675.554 29.7393 675.844 29.8248C676.015 29.8754 676.146 30.0134 676.188 30.1869C676.272 30.534 676.447 30.9888 676.625 31.3584C676.789 31.6977 677.299 32.5047 678.046 33.2203C678.799 33.9402 679.721 34.5 680.716 34.5C681.861 34.5 682.782 33.9313 683.484 33.2283C684.187 32.524 684.631 31.7217 684.806 31.3584C684.811 31.3477 684.817 31.3371 684.823 31.3268L685.256 31.5761L684.806 31.3584C684.997 30.963 685.158 30.6262 685.238 30.2094C685.279 30.001 685.446 29.8407 685.656 29.8097C685.882 29.7764 686.269 29.6319 686.598 29.2626C686.918 28.9025 687.216 28.2928 687.216 27.2717C687.216 27.075 687.215 26.7976 687.165 26.5161C687.113 26.2275 687.02 25.9994 686.883 25.8584C686.783 25.7542 686.732 25.6115 686.745 25.4671C686.792 24.9342 686.884 23.7611 686.838 22.5461C686.815 21.9385 686.757 21.3324 686.647 20.7973C686.535 20.2553 686.376 19.8255 686.173 19.54C685.479 18.569 684.213 18.0424 683.006 17.7689C681.819 17.5 680.798 17.5 680.716 17.5C680.634 17.5 679.613 17.5 678.426 17.7689ZM678.205 16.7936C679.5 16.5003 680.607 16.5 680.716 16.5C680.824 16.5 681.932 16.5003 683.227 16.7936C684.502 17.0825 686.074 17.6807 686.987 18.9593L686.989 18.9608C687.306 19.409 687.502 19.9939 687.626 20.5947C687.752 21.2029 687.813 21.8685 687.837 22.5082C687.88 23.6461 687.808 24.7398 687.758 25.3501C687.986 25.6649 688.094 26.0316 688.149 26.3399C688.216 26.7139 688.216 27.0681 688.216 27.2643V27.2717C688.216 28.5007 687.851 29.3583 687.344 29.9277C686.966 30.3525 686.525 30.5971 686.144 30.7186C686.029 31.127 685.863 31.4705 685.715 31.777L685.707 31.7937C685.701 31.8045 685.696 31.815 685.69 31.8254L685.256 31.5761L685.707 31.7937C685.504 32.2131 685.002 33.1228 684.191 33.9347C683.379 34.7481 682.219 35.5 680.716 35.5C679.346 35.5 678.187 34.7391 677.355 33.9428C676.518 33.1421 675.939 32.237 675.725 31.7937C675.566 31.4638 675.403 31.0634 675.291 30.6936C674.935 30.5594 674.485 30.3252 674.092 29.8959C673.582 29.3382 673.216 28.5027 673.216 27.2717L673.216 27.2679C673.216 27.1167 673.216 26.7643 673.282 26.3796C673.336 26.0689 673.442 25.6782 673.674 25.3517C673.623 24.7372 673.551 23.6218 673.595 22.4717C673.619 21.8263 673.68 21.1571 673.806 20.5527C673.929 19.9605 674.125 19.3825 674.448 18.9535C675.363 17.6789 676.932 17.082 678.205 16.7936Z" fill="#333333"/>
<path d="M696.716 64C705.516 64 712.716 56.8 712.716 48C712.716 39.2 705.516 32 696.716 32C687.916 32 680.716 39.2 680.716 48C680.616 56.8 687.816 64 696.716 64Z" fill="white"/>
<path fill-rule="evenodd" clip-rule="evenodd" d="M681.716 48.0114L681.716 48.0114C681.622 56.2439 688.362 63 696.716 63C704.964 63 711.716 56.2477 711.716 48C711.716 39.7523 704.964 33 696.716 33C688.468 33 681.716 39.7523 681.716 48V48.0114ZM712.716 48C712.716 56.8 705.516 64 696.716 64C687.816 64 680.616 56.8 680.716 48C680.716 39.2 687.916 32 696.716 32C705.516 32 712.716 39.2 712.716 48Z" fill="#333333"/>
<path fill-rule="evenodd" clip-rule="evenodd" d="M703.293 43.294C703.718 43.6473 703.775 44.2779 703.422 44.7023L695.352 54.3958L690.39 49.5262C689.996 49.1394 689.99 48.5062 690.377 48.1121C690.764 47.7179 691.397 47.712 691.791 48.0988L695.204 51.448L701.885 43.4227C702.238 42.9983 702.869 42.9406 703.293 43.294Z" fill="url(#paint13_linear_4321_22282)"/>
<path fill-rule="evenodd" clip-rule="evenodd" d="M695.426 55.8698L689.69 50.2399C688.902 49.4662 688.89 48.2 689.663 47.4116C690.437 46.6233 691.703 46.6115 692.492 47.3852L695.13 49.9741L701.116 42.7829C701.823 41.934 703.084 41.8188 703.933 42.5255L703.293 43.294C702.869 42.9407 702.238 42.9983 701.885 43.4227L695.204 51.448L691.791 48.0989C691.397 47.712 690.764 47.7179 690.377 48.1121C689.99 48.5063 689.996 49.1394 690.39 49.5262L695.352 54.3958L703.422 44.7024C703.775 44.2779 703.718 43.6474 703.293 43.294L703.933 42.5255C704.782 43.2322 704.897 44.4933 704.19 45.3422L695.426 55.8698Z" fill="#333333"/>
</g>
<defs>
<linearGradient id="paint0_linear_4321_22282" x1="8.92411" y1="12.8959" x2="56.549" y2="12.8959" gradientUnits="userSpaceOnUse">
<stop stop-color="#FF6F3D"/>
<stop offset="1" stop-color="#FF8E3D"/>
</linearGradient>
<linearGradient id="paint1_linear_4321_22282" x1="-1.35514" y1="12.3135" x2="20.7145" y2="35.2111" gradientUnits="userSpaceOnUse">
<stop stop-color="#FFC671"/>
<stop offset="0.5938" stop-color="#FF7541"/>
<stop offset="1" stop-color="#FF6F3D"/>
</linearGradient>
<linearGradient id="paint2_linear_4321_22282" x1="44.6339" y1="27.6783" x2="53.744" y2="32.7305" gradientUnits="userSpaceOnUse">
<stop stop-color="#FF8E3D"/>
<stop offset="1" stop-color="#FF6F3D"/>
</linearGradient>
<linearGradient id="paint3_linear_4321_22282" x1="109.716" y1="-1.03125" x2="161.716" y2="53" gradientUnits="userSpaceOnUse">
<stop stop-color="#FF8E3D"/>
<stop offset="1" stop-color="#FF6F3D"/>
</linearGradient>
<linearGradient id="paint4_linear_4321_22282" x1="148.109" y1="39.0694" x2="163.332" y2="54.833" gradientUnits="userSpaceOnUse">
<stop stop-color="#FF8E3D"/>
<stop offset="1" stop-color="#FF6F3D"/>
</linearGradient>
<linearGradient id="paint5_linear_4321_22282" x1="248.216" y1="8" x2="248.216" y2="57" gradientUnits="userSpaceOnUse">
<stop stop-color="#FF733F"/>
<stop offset="1" stop-color="#FF8C3D"/>
</linearGradient>
<linearGradient id="paint6_linear_4321_22282" x1="325.028" y1="-1.06445" x2="350.599" y2="35.6818" gradientUnits="userSpaceOnUse">
<stop stop-color="#FF8E3D"/>
<stop offset="1" stop-color="#FF6F3D"/>
</linearGradient>
<linearGradient id="paint7_linear_4321_22282" x1="366.109" y1="41.0694" x2="381.332" y2="56.833" gradientUnits="userSpaceOnUse">
<stop stop-color="#FF8E3D"/>
<stop offset="1" stop-color="#FF6F3D"/>
</linearGradient>
<linearGradient id="paint8_linear_4321_22282" x1="348.109" y1="41.0694" x2="363.332" y2="56.833" gradientUnits="userSpaceOnUse">
<stop stop-color="#FF8E3D"/>
<stop offset="1" stop-color="#FF6F3D"/>
</linearGradient>
<linearGradient id="paint9_linear_4321_22282" x1="437.716" y1="11.0078" x2="488.579" y2="66.2601" gradientUnits="userSpaceOnUse">
<stop stop-color="#FF8E3D"/>
<stop offset="1" stop-color="#FF6F3D"/>
</linearGradient>
<linearGradient id="paint10_linear_4321_22282" x1="466.038" y1="20.6891" x2="474.376" y2="13.1058" gradientUnits="userSpaceOnUse">
<stop stop-color="#FF8E3D"/>
<stop offset="1" stop-color="#FF6F3D"/>
</linearGradient>
<linearGradient id="paint11_linear_4321_22282" x1="580.716" y1="33.7795" x2="598.913" y2="50.3434" gradientUnits="userSpaceOnUse">
<stop stop-color="#FF8E3D"/>
<stop offset="1" stop-color="#FF6F3D"/>
</linearGradient>
<linearGradient id="paint12_linear_4321_22282" x1="668.071" y1="34.6798" x2="680.959" y2="57.302" gradientUnits="userSpaceOnUse">
<stop stop-color="#FF8E3D"/>
<stop offset="1" stop-color="#FF6F3D"/>
</linearGradient>
<linearGradient id="paint13_linear_4321_22282" x1="690.091" y1="42.6198" x2="701.169" y2="56.3942" gradientUnits="userSpaceOnUse">
<stop stop-color="#FF8E3D"/>
<stop offset="1" stop-color="#FF6F3D"/>
</linearGradient>
<clipPath id="clip0_4321_22282">
<rect width="64" height="64" fill="white" transform="translate(108.716)"/>
</clipPath>
<clipPath id="clip1_4321_22282">
<rect width="64" height="64" fill="white" transform="translate(324.716)"/>
</clipPath>
<clipPath id="clip2_4321_22282">
<rect width="64" height="64" fill="white" transform="translate(540.716)"/>
</clipPath>
<clipPath id="clip3_4321_22282">
<rect width="64" height="64" fill="white" transform="translate(648.716)"/>
</clipPath>
</defs>
</svg>
