<svg width="544" height="231" viewBox="0 0 544 231" fill="none" xmlns="http://www.w3.org/2000/svg">
<ellipse cx="272.5" cy="212.565" rx="189.5" ry="11" fill="white" fill-opacity="0.1"/>
<g style="mix-blend-mode:overlay">
<path fill-rule="evenodd" clip-rule="evenodd" d="M0 0.581055L219.818 204.565H331.531L544 0.581055H0Z" fill="url(#paint0_linear_4825_52861)"/>
</g>
<g style="mix-blend-mode:overlay">
<path fill-rule="evenodd" clip-rule="evenodd" d="M0 0.581055L219.818 204.565H331.531L544 0.581055H0Z" fill="url(#paint1_linear_4825_52861)"/>
</g>
<path d="M400.478 204.565H143.522C143.234 204.565 143 204.595 143 204.632V213.499C143 213.536 143.234 213.565 143.522 213.565H400.478C400.766 213.565 401 213.536 401 213.499V204.632C401 204.595 400.766 204.565 400.478 204.565Z" fill="#385362"/>
<path d="M428.39 125L428.822 125.01C433.267 125.21 437 128.472 437 132.706V196.294C437 200.665 433.022 204 428.39 204H120.61C115.978 204 112 200.665 112 196.294V132.706L112.012 132.299C112.25 128.13 116.123 125 120.61 125H428.39Z" fill="#2C2F31" stroke="white" stroke-width="2" stroke-miterlimit="22.9256" stroke-linecap="round" stroke-linejoin="round"/>
<g filter="url(#filter0_f_4825_52861)">
<path d="M415 175.565C415 171.147 411.418 167.565 407 167.565C402.582 167.565 399 171.147 399 175.565C399 179.984 402.582 183.565 407 183.565C411.418 183.565 415 179.984 415 175.565Z" fill="url(#paint2_linear_4825_52861)"/>
</g>
<g filter="url(#filter1_f_4825_52861)">
<path d="M334 176.565C334 172.147 330.418 168.565 326 168.565C321.582 168.565 318 172.147 318 176.565C318 180.984 321.582 184.565 326 184.565C330.418 184.565 334 180.984 334 176.565Z" fill="#9ADAF3"/>
</g>
<g filter="url(#filter2_f_4825_52861)">
<path d="M388 153.565C388 149.147 384.418 145.565 380 145.565C375.582 145.565 372 149.147 372 153.565C372 157.984 375.582 161.565 380 161.565C384.418 161.565 388 157.984 388 153.565Z" fill="url(#paint3_linear_4825_52861)"/>
</g>
<g filter="url(#filter3_f_4825_52861)">
<path d="M415 153.565C415 149.147 411.418 145.565 407 145.565C402.582 145.565 399 149.147 399 153.565C399 157.984 402.582 161.565 407 161.565C411.418 161.565 415 157.984 415 153.565Z" fill="#9ADAF3"/>
</g>
<path d="M413 153.565C413 150.252 410.314 147.565 407 147.565C403.686 147.565 401 150.252 401 153.565C401 156.879 403.686 159.565 407 159.565C410.314 159.565 413 156.879 413 153.565Z" fill="#9ADAF3"/>
<g filter="url(#filter4_f_4825_52861)">
<path d="M361 153.565C361 149.147 357.418 145.565 353 145.565C348.582 145.565 345 149.147 345 153.565C345 157.984 348.582 161.565 353 161.565C357.418 161.565 361 157.984 361 153.565Z" fill="url(#paint4_linear_4825_52861)"/>
</g>
<g filter="url(#filter5_f_4825_52861)">
<path d="M334 153.565C334 149.147 330.418 145.565 326 145.565C321.582 145.565 318 149.147 318 153.565C318 157.984 321.582 161.565 326 161.565C330.418 161.565 334 157.984 334 153.565Z" fill="url(#paint5_linear_4825_52861)"/>
</g>
<g filter="url(#filter6_f_4825_52861)">
<path d="M388 175.565C388 171.147 384.418 167.565 380 167.565C375.582 167.565 372 171.147 372 175.565C372 179.984 375.582 183.565 380 183.565C384.418 183.565 388 179.984 388 175.565Z" fill="url(#paint6_linear_4825_52861)"/>
</g>
<g filter="url(#filter7_f_4825_52861)">
<path d="M361 175.565C361 171.147 357.418 167.565 353 167.565C348.582 167.565 345 171.147 345 175.565C345 179.984 348.582 183.565 353 183.565C357.418 183.565 361 179.984 361 175.565Z" fill="url(#paint7_linear_4825_52861)"/>
</g>
<g style="mix-blend-mode:overlay">
<path d="M332 153.563C332 150.251 329.314 147.565 326 147.565C322.686 147.565 320 150.251 320 153.563C320 156.876 322.686 159.561 326 159.561C329.314 159.561 332 156.876 332 153.563Z" fill="white"/>
</g>
<g style="mix-blend-mode:overlay">
<path d="M359 153.563C359 150.251 356.314 147.565 353 147.565C349.686 147.565 347 150.251 347 153.563C347 156.876 349.686 159.561 353 159.561C356.314 159.561 359 156.876 359 153.563Z" fill="white"/>
</g>
<g style="mix-blend-mode:overlay">
<path d="M386 153.563C386 150.251 383.314 147.565 380 147.565C376.686 147.565 374 150.251 374 153.563C374 156.876 376.686 159.561 380 159.561C383.314 159.561 386 156.876 386 153.563Z" fill="white"/>
</g>
<g style="mix-blend-mode:overlay">
<path d="M359 175.563C359 172.251 356.314 169.565 353 169.565C349.686 169.565 347 172.251 347 175.563C347 178.876 349.686 181.561 353 181.561C356.314 181.561 359 178.876 359 175.563Z" fill="white"/>
</g>
<g style="mix-blend-mode:overlay">
<path d="M386 175.563C386 172.251 383.314 169.565 380 169.565C376.686 169.565 374 172.251 374 175.563C374 178.876 376.686 181.561 380 181.561C383.314 181.561 386 178.876 386 175.563Z" fill="white"/>
</g>
<g style="mix-blend-mode:overlay">
<path d="M413 175.563C413 172.251 410.314 169.565 407 169.565C403.686 169.565 401 172.251 401 175.563C401 178.876 403.686 181.561 407 181.561C410.314 181.561 413 178.876 413 175.563Z" fill="white"/>
</g>
<path d="M332 176.565C332 173.252 329.314 170.565 326 170.565C322.686 170.565 320 173.252 320 176.565C320 179.879 322.686 182.565 326 182.565C329.314 182.565 332 179.879 332 176.565Z" fill="#9ADAF3"/>
<path d="M278.837 137.565H269.163C269.073 137.565 269 138.947 269 140.65V188.48C269 190.184 269.073 191.565 269.163 191.565H278.837C278.927 191.565 279 190.184 279 188.48V140.65C279 138.947 278.927 137.565 278.837 137.565Z" fill="#385362" stroke="#385362" stroke-width="2" stroke-miterlimit="22.9256" stroke-linecap="round" stroke-linejoin="round"/>
<path d="M206.837 137.565H197.163C197.073 137.565 197 138.947 197 140.65V188.48C197 190.184 197.073 191.565 197.163 191.565H206.837C206.927 191.565 207 190.184 207 188.48V140.65C207 138.947 206.927 137.565 206.837 137.565Z" fill="#385362" stroke="#385362" stroke-width="2" stroke-miterlimit="22.9256" stroke-linecap="round" stroke-linejoin="round"/>
<path d="M134.837 137.565H125.163C125.073 137.565 125 138.947 125 140.65V188.48C125 190.184 125.073 191.565 125.163 191.565H134.837C134.927 191.565 135 190.184 135 188.48V140.65C135 138.947 134.927 137.565 134.837 137.565Z" fill="#385362" stroke="#385362" stroke-width="2" stroke-miterlimit="22.9256" stroke-linecap="round" stroke-linejoin="round"/>
<path d="M242.837 137.565H233.163C233.073 137.565 233 138.947 233 140.65V188.48C233 190.184 233.073 191.565 233.163 191.565H242.837C242.927 191.565 243 190.184 243 188.48V140.65C243 138.947 242.927 137.565 242.837 137.565Z" fill="#385362" stroke="#385362" stroke-width="2" stroke-miterlimit="22.9256" stroke-linecap="round" stroke-linejoin="round"/>
<path d="M170.837 137.565H161.163C161.073 137.565 161 138.947 161 140.65V188.48C161 190.184 161.073 191.565 161.163 191.565H170.837C170.927 191.565 171 190.184 171 188.48V140.65C171 138.947 170.927 137.565 170.837 137.565Z" fill="#385362" stroke="#385362" stroke-width="2" stroke-miterlimit="22.9256" stroke-linecap="round" stroke-linejoin="round"/>
<path d="M296.837 137.565H287.163C287.073 137.565 287 138.947 287 140.65V188.48C287 190.184 287.073 191.565 287.163 191.565H296.837C296.927 191.565 297 190.184 297 188.48V140.65C297 138.947 296.927 137.565 296.837 137.565Z" fill="#385362" stroke="#385362" stroke-width="2" stroke-miterlimit="22.9256" stroke-linecap="round" stroke-linejoin="round"/>
<path d="M224.837 137.565H215.163C215.073 137.565 215 138.947 215 140.65V188.48C215 190.184 215.073 191.565 215.163 191.565H224.837C224.927 191.565 225 190.184 225 188.48V140.65C225 138.947 224.927 137.565 224.837 137.565Z" fill="#385362" stroke="#385362" stroke-width="2" stroke-miterlimit="22.9256" stroke-linecap="round" stroke-linejoin="round"/>
<path d="M152.837 137.565H143.163C143.073 137.565 143 138.947 143 140.65V188.48C143 190.184 143.073 191.565 143.163 191.565H152.837C152.927 191.565 153 190.184 153 188.48V140.65C153 138.947 152.927 137.565 152.837 137.565Z" fill="url(#paint8_linear_4825_52861)" stroke="#385362" stroke-width="2" stroke-miterlimit="22.9256" stroke-linecap="round" stroke-linejoin="round"/>
<path d="M260.837 137.565H251.163C251.073 137.565 251 138.947 251 140.65V188.48C251 190.184 251.073 191.565 251.163 191.565H260.837C260.927 191.565 261 190.184 261 188.48V140.65C261 138.947 260.927 137.565 260.837 137.565Z" fill="#385362" stroke="#385362" stroke-width="2" stroke-miterlimit="22.9256" stroke-linecap="round" stroke-linejoin="round"/>
<path d="M188.837 137.565H179.163C179.073 137.565 179 138.947 179 140.65V188.48C179 190.184 179.073 191.565 179.163 191.565H188.837C188.927 191.565 189 190.184 189 188.48V140.65C189 138.947 188.927 137.565 188.837 137.565Z" fill="#385362" stroke="#385362" stroke-width="2" stroke-miterlimit="22.9256" stroke-linecap="round" stroke-linejoin="round"/>
<path d="M401 212.565V214.565H143V212.565H401Z" fill="#C3C3C3"/>
<path d="M211.397 17.8171V23.189H210.674V17.8171H208.711V17.1973H213.36V17.8171H211.397Z" fill="#6D6E71"/>
<path d="M221.004 23.189V20.6064H217.389V23.189H216.666V17.1973H217.389V19.8832H221.004V17.1973H221.728V23.189H221.004Z" fill="#6D6E71"/>
<path d="M226.479 17.8171V19.8832H229.579V20.5031H226.479V22.5692H229.992V23.2923H225.756V17.1973H229.889V17.9204H226.479V17.8171Z" fill="#6D6E71"/>
<path d="M203.442 64.6145L217.905 30.1104H220.694L235.054 64.6145H231.438L226.996 53.8707H211.397L207.058 64.6145H203.442ZM219.248 34.1393L212.223 51.1847H226.17L219.248 34.1393Z" fill="#D22128"/>
<path d="M238.773 64.6145V30.1104H253.132C259.021 30.1104 263.256 35.5856 263.256 40.9575C263.256 46.6393 259.331 51.9079 253.339 51.9079H242.182V64.6145H238.773ZM242.182 48.912H253.236C257.265 48.912 259.951 45.193 259.951 40.9575C259.951 36.6186 256.748 33.1062 252.926 33.1062H242.182V48.912Z" fill="#D22128"/>
<path d="M261.397 64.6145L275.86 30.1104H278.649L293.112 64.6145H289.393L284.951 53.8707H269.455L265.013 64.6145H261.397ZM277.306 34.1393L270.178 51.1847H284.228L277.306 34.1393Z" fill="#D22128"/>
<path d="M309.331 29.9038C315.529 29.9038 319.971 33.003 322.141 37.4451L319.455 39.098C317.182 34.5526 312.946 33.003 309.227 33.003C300.963 33.003 296.417 40.3377 296.417 47.2592C296.417 54.9038 301.996 61.8253 309.331 61.8253C313.256 61.8253 317.802 59.8625 319.971 55.4203L322.76 56.8666C320.591 62.0319 314.496 64.9245 309.124 64.9245C299.723 64.9245 293.008 55.8336 293.008 47.1559C293.008 38.8914 299 29.9038 309.331 29.9038Z" fill="#D22128"/>
<path d="M354.785 30.1104V64.6145H351.376V48.4988H330.922V64.6145H327.616V30.1104H330.922V45.5029H351.376V30.1104H354.785Z" fill="#D22128"/>
<path d="M385.777 61.6186V64.6145H362.533V30.1104H385.26V33.1062H365.942V45.6062H382.781V48.4988H365.942V61.6186H385.777Z" fill="#D22128"/>
<path d="M206.644 71.9493C207.058 72.0526 207.368 72.2592 207.677 72.4658L207.368 73.2923C207.058 73.0857 206.748 72.8791 206.335 72.7758C206.025 72.6725 205.715 72.6725 205.405 72.6725C204.888 72.6725 204.578 72.6725 204.268 72.8791C203.958 73.0857 203.855 73.2923 203.855 73.6022C203.855 73.8088 203.958 74.0154 204.062 74.222C204.268 74.4287 204.475 74.532 204.682 74.6353C204.888 74.7386 205.198 74.8419 205.611 74.9452C206.128 75.1518 206.541 75.2551 206.851 75.4617C207.161 75.565 207.368 75.7716 207.677 75.9782C207.884 76.2882 207.987 76.5981 207.987 77.1146C207.987 77.5278 207.884 77.8378 207.677 78.1477C207.471 78.4576 207.161 78.6642 206.748 78.8708C206.335 79.0774 205.818 79.1807 205.301 79.1807C204.785 79.1807 204.268 79.0774 203.752 78.8708C203.339 78.6642 202.925 78.3543 202.512 78.0444L202.925 77.3212C203.235 77.6311 203.649 77.8377 204.062 78.0444C204.475 78.251 204.888 78.3543 205.301 78.3543C205.818 78.3543 206.231 78.251 206.541 78.0444C206.851 77.8377 207.058 77.5278 207.058 77.2179C207.058 76.908 206.954 76.7014 206.851 76.4948C206.644 76.3915 206.438 76.1849 206.231 76.0816C206.025 75.9782 205.715 75.8749 205.301 75.7716C204.785 75.6683 204.372 75.4617 204.062 75.3584C203.752 75.2551 203.545 75.0485 203.235 74.7386C203.029 74.532 202.925 74.1187 202.925 73.7055C202.925 73.2923 203.029 72.9824 203.235 72.6725C203.442 72.4658 203.752 72.2592 204.165 72.0526C204.578 71.846 204.992 71.846 205.508 71.846C205.818 71.7427 206.231 71.846 206.644 71.9493Z" fill="#6D6E71"/>
<path d="M217.492 72.2592C218.008 72.5691 218.525 73.0857 218.835 73.6022C219.145 74.1187 219.351 74.7385 219.351 75.4617C219.351 76.0815 219.145 76.7014 218.835 77.3212C218.525 77.8377 218.008 78.2509 217.492 78.6642C216.872 78.9741 216.252 79.1807 215.529 79.1807C214.806 79.1807 214.186 78.9741 213.566 78.6642C213.05 78.3542 212.533 77.8377 212.223 77.3212C211.913 76.7014 211.707 76.0815 211.707 75.4617C211.707 74.7385 211.913 74.1187 212.223 73.6022C212.636 73.0857 213.05 72.5691 213.566 72.2592C214.186 71.9493 214.806 71.7427 215.529 71.7427C216.252 71.7427 216.872 71.9493 217.492 72.2592ZM214.083 72.9823C213.566 73.189 213.256 73.6022 212.946 74.0154C212.74 74.4286 212.533 74.9452 212.533 75.4617C212.533 75.9782 212.74 76.4947 212.946 76.908C213.256 77.3212 213.566 77.7344 214.083 77.941C214.496 78.2509 215.012 78.3542 215.529 78.3542C216.045 78.3542 216.562 78.2509 216.975 77.941C217.492 77.7344 217.802 77.3212 218.112 76.908C218.318 76.4947 218.525 75.9782 218.525 75.4617C218.525 74.9452 218.318 74.4286 218.112 74.0154C217.802 73.6022 217.492 73.189 216.975 72.9823C216.562 72.6724 216.045 72.5691 215.529 72.5691C215.012 72.5691 214.496 72.6724 214.083 72.9823Z" fill="#6D6E71"/>
<path d="M224.619 72.5691V75.1518H228.029V75.9782H224.619V79.0774H223.793V71.7427H228.338V72.5691H224.619Z" fill="#6D6E71"/>
<path d="M235.157 72.5693V79.0776H234.331V72.5693H231.955V71.8462H237.533V72.5693H235.157Z" fill="#6D6E71"/>
<path d="M248.277 79.0774L246.314 72.9823L244.351 79.0774H243.525L241.045 71.7427H241.975L243.938 78.1476L245.901 71.846H246.727L248.793 78.1476L250.756 71.846H251.583L249.103 79.0774H248.277Z" fill="#6D6E71"/>
<path d="M255.715 77.2181L254.888 79.0776H254.062L257.264 71.8462H258.194L261.397 79.0776H260.467L259.641 77.2181H255.715ZM257.781 72.7759L256.128 76.3916H259.434L257.781 72.7759Z" fill="#6D6E71"/>
<path d="M268.628 76.8049C268.421 76.8049 268.318 76.8049 268.215 76.8049H266.252V79.0776H265.425V71.8462H268.215C269.041 71.8462 269.764 72.0528 270.281 72.466C270.797 72.8792 271.004 73.4991 271.004 74.2222C271.004 74.8421 270.9 75.3586 270.591 75.7718C270.384 76.185 269.971 76.495 269.454 76.5983L271.107 79.0776H270.177L268.628 76.8049ZM269.764 75.5652C270.074 75.2553 270.281 74.8421 270.281 74.2222C270.281 73.7057 270.074 73.2925 269.764 73.0859C269.351 72.7759 268.834 72.6726 268.215 72.6726H266.252V75.9784H268.215C268.834 75.9784 269.351 75.8751 269.764 75.5652Z" fill="#6D6E71"/>
<path d="M276.582 72.5691V75.0485H280.198V75.7716H276.582V78.2509H280.818V79.0774H275.756V71.7427H280.715V72.5691H276.582Z" fill="#6D6E71"/>
<path d="M292.388 72.5691V75.1518H295.798V75.9782H292.388V79.0774H291.562V71.7427H296.211V72.5691H292.388Z" fill="#6D6E71"/>
<path d="M305.405 72.2592C306.025 72.5691 306.438 73.0857 306.851 73.6022C307.161 74.1187 307.264 74.7385 307.264 75.4617C307.264 76.0815 307.161 76.7014 306.851 77.3212C306.438 77.8377 306.025 78.2509 305.405 78.6642C304.888 78.9741 304.165 79.1807 303.545 79.1807C302.822 79.1807 302.202 78.9741 301.583 78.6642C300.963 78.3542 300.55 77.8377 300.24 77.3212C299.826 76.7014 299.723 76.0815 299.723 75.4617C299.723 74.7385 299.93 74.1187 300.24 73.6022C300.55 73.0857 300.963 72.5691 301.583 72.2592C302.202 71.9493 302.822 71.7427 303.545 71.7427C304.269 71.7427 304.888 71.9493 305.405 72.2592ZM302.099 72.9823C301.583 73.189 301.273 73.6022 300.963 74.0154C300.756 74.4286 300.55 74.9452 300.55 75.4617C300.55 75.9782 300.756 76.4947 300.963 76.908C301.273 77.3212 301.583 77.7344 302.099 77.941C302.512 78.2509 303.029 78.3542 303.545 78.3542C304.062 78.3542 304.579 78.2509 304.992 77.941C305.405 77.7344 305.818 77.3212 306.128 76.908C306.335 76.4947 306.541 75.9782 306.541 75.4617C306.541 74.9452 306.335 74.4286 306.128 74.0154C305.818 73.6022 305.508 73.189 304.992 72.9823C304.579 72.6724 304.062 72.5691 303.545 72.5691C303.029 72.5691 302.512 72.6724 302.099 72.9823Z" fill="#6D6E71"/>
<path d="M316.872 78.3545C316.355 78.871 315.632 79.0776 314.702 79.0776C313.669 79.0776 312.946 78.871 312.429 78.3545C311.913 77.8379 311.603 77.0115 311.603 76.0817V71.8462H312.429V76.0817C312.429 76.8049 312.636 77.3214 313.049 77.7346C313.463 78.1478 313.979 78.3545 314.702 78.3545C315.322 78.3545 315.839 78.1478 316.252 77.7346C316.665 77.3214 316.872 76.8049 316.872 76.0817V71.8462H317.698V76.0817C317.698 77.0115 317.491 77.8379 316.872 78.3545Z" fill="#6D6E71"/>
<path d="M327.822 79.0774L323.38 73.189V79.0774H322.554V71.7427H323.483L327.822 77.6311V71.7427H328.649V79.0774H327.822Z" fill="#6D6E71"/>
<path d="M338.463 72.2592C339.083 72.5691 339.496 73.0857 339.806 73.6022C340.116 74.1187 340.322 74.7385 340.322 75.4617C340.322 76.0815 340.116 76.7014 339.806 77.3212C339.496 77.8377 339.083 78.2509 338.463 78.5609C337.946 78.9741 337.223 79.0774 336.5 79.0774H333.607V71.7427H336.603C337.326 71.846 337.946 71.9493 338.463 72.2592ZM334.434 78.2509H336.603C337.12 78.2509 337.636 78.1476 338.05 77.941C338.463 77.6311 338.876 77.3212 339.083 76.908C339.393 76.3914 339.496 75.9782 339.496 75.4617C339.496 74.8419 339.393 74.4286 339.083 74.0154C338.876 73.4989 338.463 73.189 338.05 72.9823C337.636 72.6724 337.12 72.5691 336.603 72.5691H334.537V78.2509H334.434Z" fill="#6D6E71"/>
<path d="M345.074 77.2181L344.248 79.0776H343.318L346.624 71.8462H347.45L350.653 79.0776H349.826L349 77.2181H345.074ZM347.037 72.7759L345.384 76.3916H348.69L347.037 72.7759Z" fill="#6D6E71"/>
<path d="M356.231 72.5693V79.0776H355.405V72.5693H353.029V71.8462H358.607V72.5693H356.231Z" fill="#6D6E71"/>
<path d="M362.636 79.0774V71.7427H363.463V79.0774H362.636Z" fill="#6D6E71"/>
<path d="M373.587 72.2592C374.206 72.5691 374.62 73.0857 375.033 73.6022C375.343 74.1187 375.446 74.7385 375.446 75.4617C375.446 76.0815 375.343 76.7014 375.033 77.3212C374.62 77.8377 374.206 78.2509 373.587 78.6642C373.07 78.9741 372.347 79.1807 371.727 79.1807C371.004 79.1807 370.384 78.9741 369.764 78.6642C369.144 78.3542 368.731 77.8377 368.421 77.3212C368.008 76.7014 367.905 76.0815 367.905 75.4617C367.905 74.7385 368.111 74.1187 368.421 73.6022C368.731 73.0857 369.144 72.5691 369.764 72.2592C370.384 71.9493 371.004 71.7427 371.727 71.7427C372.347 71.7427 373.07 71.9493 373.587 72.2592ZM370.178 72.9823C369.764 73.189 369.351 73.6022 369.144 74.0154C368.835 74.4286 368.731 74.9452 368.731 75.4617C368.731 75.9782 368.835 76.4947 369.144 76.908C369.351 77.3212 369.764 77.7344 370.178 77.941C370.694 78.2509 371.107 78.3542 371.727 78.3542C372.244 78.3542 372.76 78.2509 373.173 77.941C373.587 77.7344 374 77.3212 374.31 76.908C374.516 76.4947 374.62 75.9782 374.62 75.4617C374.62 74.9452 374.516 74.4286 374.31 74.0154C374 73.6022 373.69 73.189 373.173 72.9823C372.76 72.6724 372.244 72.5691 371.727 72.5691C371.107 72.5691 370.694 72.6724 370.178 72.9823Z" fill="#6D6E71"/>
<path d="M385.053 79.0774L380.715 73.189V79.0774H379.888V71.7427H380.818L385.157 77.6311V71.7427H385.983V79.0774H385.053Z" fill="#6D6E71"/>
<path d="M390.219 30.7307V33.1067H389.599V30.7307H388.669V30.1108H391.149V30.7307H390.219Z" fill="#B0AFB0"/>
<path d="M394.351 31.2472L393.525 32.9001H393.112L392.285 31.2472V33.1067H391.562V30.1108H392.492L393.318 31.7637L394.041 30.1108H394.971V33.1067H394.351V31.2472Z" fill="#B0AFB0"/>
<path d="M211.397 17.8171V23.189H210.674V17.8171H208.711V17.1973H213.36V17.8171H211.397Z" fill="#808080"/>
<path d="M221.004 23.189V20.6064H217.389V23.189H216.666V17.1973H217.389V19.8832H221.004V17.1973H221.728V23.189H221.004Z" fill="#808080"/>
<path d="M226.479 17.8171V19.8832H229.579V20.5031H226.479V22.5692H229.992V23.2923H225.756V17.1973H229.889V17.9204H226.479V17.8171Z" fill="#808080"/>
<path d="M203.442 64.6145L217.905 30.1104H220.694L235.054 64.6145H231.438L226.996 53.8707H211.397L207.058 64.6145H203.442ZM219.248 34.1393L212.223 51.1847H226.17L219.248 34.1393Z" fill="#D22128"/>
<path d="M238.773 64.6145V30.1104H253.132C259.021 30.1104 263.256 35.5856 263.256 40.9575C263.256 46.6393 259.331 51.9079 253.339 51.9079H242.182V64.6145H238.773ZM242.182 48.912H253.236C257.265 48.912 259.951 45.193 259.951 40.9575C259.951 36.6186 256.748 33.1062 252.926 33.1062H242.182V48.912Z" fill="#D22128"/>
<path d="M261.397 64.6145L275.86 30.1104H278.649L293.112 64.6145H289.393L284.951 53.8707H269.455L265.013 64.6145H261.397ZM277.306 34.1393L270.178 51.1847H284.228L277.306 34.1393Z" fill="#D22128"/>
<path d="M309.331 29.9038C315.529 29.9038 319.971 33.003 322.141 37.4451L319.455 39.098C317.182 34.5526 312.946 33.003 309.227 33.003C300.963 33.003 296.417 40.3377 296.417 47.2592C296.417 54.9038 301.996 61.8253 309.331 61.8253C313.256 61.8253 317.802 59.8625 319.971 55.4203L322.76 56.8666C320.591 62.0319 314.496 64.9245 309.124 64.9245C299.723 64.9245 293.008 55.8336 293.008 47.1559C293.008 38.8914 299 29.9038 309.331 29.9038Z" fill="#D22128"/>
<path d="M354.785 30.1104V64.6145H351.376V48.4988H330.922V64.6145H327.616V30.1104H330.922V45.5029H351.376V30.1104H354.785Z" fill="#D22128"/>
<path d="M385.777 61.6186V64.6145H362.533V30.1104H385.26V33.1062H365.942V45.6062H382.781V48.4988H365.942V61.6186H385.777Z" fill="#D22128"/>
<path d="M206.644 71.9493C207.058 72.0526 207.368 72.2592 207.677 72.4658L207.368 73.2923C207.058 73.0857 206.748 72.8791 206.335 72.7758C206.025 72.6725 205.715 72.6725 205.405 72.6725C204.888 72.6725 204.578 72.6725 204.268 72.8791C203.958 73.0857 203.855 73.2923 203.855 73.6022C203.855 73.8088 203.958 74.0154 204.062 74.222C204.268 74.4287 204.475 74.532 204.682 74.6353C204.888 74.7386 205.198 74.8419 205.611 74.9452C206.128 75.1518 206.541 75.2551 206.851 75.4617C207.161 75.565 207.368 75.7716 207.677 75.9782C207.884 76.2882 207.987 76.5981 207.987 77.1146C207.987 77.5278 207.884 77.8378 207.677 78.1477C207.471 78.4576 207.161 78.6642 206.748 78.8708C206.335 79.0774 205.818 79.1807 205.301 79.1807C204.785 79.1807 204.268 79.0774 203.752 78.8708C203.339 78.6642 202.925 78.3543 202.512 78.0444L202.925 77.3212C203.235 77.6311 203.649 77.8377 204.062 78.0444C204.475 78.251 204.888 78.3543 205.301 78.3543C205.818 78.3543 206.231 78.251 206.541 78.0444C206.851 77.8377 207.058 77.5278 207.058 77.2179C207.058 76.908 206.954 76.7014 206.851 76.4948C206.644 76.3915 206.438 76.1849 206.231 76.0816C206.025 75.9782 205.715 75.8749 205.301 75.7716C204.785 75.6683 204.372 75.4617 204.062 75.3584C203.752 75.2551 203.545 75.0485 203.235 74.7386C203.029 74.532 202.925 74.1187 202.925 73.7055C202.925 73.2923 203.029 72.9824 203.235 72.6725C203.442 72.4658 203.752 72.2592 204.165 72.0526C204.578 71.846 204.992 71.846 205.508 71.846C205.818 71.7427 206.231 71.846 206.644 71.9493Z" fill="#808080"/>
<path d="M217.492 72.2592C218.008 72.5691 218.525 73.0857 218.835 73.6022C219.145 74.1187 219.351 74.7385 219.351 75.4617C219.351 76.0815 219.145 76.7014 218.835 77.3212C218.525 77.8377 218.008 78.2509 217.492 78.6642C216.872 78.9741 216.252 79.1807 215.529 79.1807C214.806 79.1807 214.186 78.9741 213.566 78.6642C213.05 78.3542 212.533 77.8377 212.223 77.3212C211.913 76.7014 211.707 76.0815 211.707 75.4617C211.707 74.7385 211.913 74.1187 212.223 73.6022C212.636 73.0857 213.05 72.5691 213.566 72.2592C214.186 71.9493 214.806 71.7427 215.529 71.7427C216.252 71.7427 216.872 71.9493 217.492 72.2592ZM214.083 72.9823C213.566 73.189 213.256 73.6022 212.946 74.0154C212.74 74.4286 212.533 74.9452 212.533 75.4617C212.533 75.9782 212.74 76.4947 212.946 76.908C213.256 77.3212 213.566 77.7344 214.083 77.941C214.496 78.2509 215.012 78.3542 215.529 78.3542C216.045 78.3542 216.562 78.2509 216.975 77.941C217.492 77.7344 217.802 77.3212 218.112 76.908C218.318 76.4947 218.525 75.9782 218.525 75.4617C218.525 74.9452 218.318 74.4286 218.112 74.0154C217.802 73.6022 217.492 73.189 216.975 72.9823C216.562 72.6724 216.045 72.5691 215.529 72.5691C215.012 72.5691 214.496 72.6724 214.083 72.9823Z" fill="#808080"/>
<path d="M224.619 72.5691V75.1518H228.029V75.9782H224.619V79.0774H223.793V71.7427H228.338V72.5691H224.619Z" fill="#808080"/>
<path d="M235.157 72.5693V79.0776H234.331V72.5693H231.955V71.8462H237.533V72.5693H235.157Z" fill="#808080"/>
<path d="M248.277 79.0774L246.314 72.9823L244.351 79.0774H243.525L241.045 71.7427H241.975L243.938 78.1476L245.901 71.846H246.727L248.793 78.1476L250.756 71.846H251.583L249.103 79.0774H248.277Z" fill="#808080"/>
<path d="M255.715 77.2181L254.888 79.0776H254.062L257.264 71.8462H258.194L261.397 79.0776H260.467L259.641 77.2181H255.715ZM257.781 72.7759L256.128 76.3916H259.434L257.781 72.7759Z" fill="#808080"/>
<path d="M268.628 76.8049C268.421 76.8049 268.318 76.8049 268.215 76.8049H266.252V79.0776H265.425V71.8462H268.215C269.041 71.8462 269.764 72.0528 270.281 72.466C270.797 72.8792 271.004 73.4991 271.004 74.2222C271.004 74.8421 270.9 75.3586 270.591 75.7718C270.384 76.185 269.971 76.495 269.454 76.5983L271.107 79.0776H270.177L268.628 76.8049ZM269.764 75.5652C270.074 75.2553 270.281 74.8421 270.281 74.2222C270.281 73.7057 270.074 73.2925 269.764 73.0859C269.351 72.7759 268.834 72.6726 268.215 72.6726H266.252V75.9784H268.215C268.834 75.9784 269.351 75.8751 269.764 75.5652Z" fill="#808080"/>
<path d="M276.582 72.5691V75.0485H280.198V75.7716H276.582V78.2509H280.818V79.0774H275.756V71.7427H280.715V72.5691H276.582Z" fill="#808080"/>
<path d="M292.388 72.5691V75.1518H295.798V75.9782H292.388V79.0774H291.562V71.7427H296.211V72.5691H292.388Z" fill="#808080"/>
<path d="M305.405 72.2592C306.025 72.5691 306.438 73.0857 306.851 73.6022C307.161 74.1187 307.264 74.7385 307.264 75.4617C307.264 76.0815 307.161 76.7014 306.851 77.3212C306.438 77.8377 306.025 78.2509 305.405 78.6642C304.888 78.9741 304.165 79.1807 303.545 79.1807C302.822 79.1807 302.202 78.9741 301.583 78.6642C300.963 78.3542 300.55 77.8377 300.24 77.3212C299.826 76.7014 299.723 76.0815 299.723 75.4617C299.723 74.7385 299.93 74.1187 300.24 73.6022C300.55 73.0857 300.963 72.5691 301.583 72.2592C302.202 71.9493 302.822 71.7427 303.545 71.7427C304.269 71.7427 304.888 71.9493 305.405 72.2592ZM302.099 72.9823C301.583 73.189 301.273 73.6022 300.963 74.0154C300.756 74.4286 300.55 74.9452 300.55 75.4617C300.55 75.9782 300.756 76.4947 300.963 76.908C301.273 77.3212 301.583 77.7344 302.099 77.941C302.512 78.2509 303.029 78.3542 303.545 78.3542C304.062 78.3542 304.579 78.2509 304.992 77.941C305.405 77.7344 305.818 77.3212 306.128 76.908C306.335 76.4947 306.541 75.9782 306.541 75.4617C306.541 74.9452 306.335 74.4286 306.128 74.0154C305.818 73.6022 305.508 73.189 304.992 72.9823C304.579 72.6724 304.062 72.5691 303.545 72.5691C303.029 72.5691 302.512 72.6724 302.099 72.9823Z" fill="#808080"/>
<path d="M316.872 78.3545C316.355 78.871 315.632 79.0776 314.702 79.0776C313.669 79.0776 312.946 78.871 312.429 78.3545C311.913 77.8379 311.603 77.0115 311.603 76.0817V71.8462H312.429V76.0817C312.429 76.8049 312.636 77.3214 313.049 77.7346C313.463 78.1478 313.979 78.3545 314.702 78.3545C315.322 78.3545 315.839 78.1478 316.252 77.7346C316.665 77.3214 316.872 76.8049 316.872 76.0817V71.8462H317.698V76.0817C317.698 77.0115 317.491 77.8379 316.872 78.3545Z" fill="#808080"/>
<path d="M327.822 79.0774L323.38 73.189V79.0774H322.554V71.7427H323.483L327.822 77.6311V71.7427H328.649V79.0774H327.822Z" fill="#808080"/>
<path d="M338.463 72.2592C339.083 72.5691 339.496 73.0857 339.806 73.6022C340.116 74.1187 340.322 74.7385 340.322 75.4617C340.322 76.0815 340.116 76.7014 339.806 77.3212C339.496 77.8377 339.083 78.2509 338.463 78.5609C337.946 78.9741 337.223 79.0774 336.5 79.0774H333.607V71.7427H336.603C337.326 71.846 337.946 71.9493 338.463 72.2592ZM334.434 78.2509H336.603C337.12 78.2509 337.636 78.1476 338.05 77.941C338.463 77.6311 338.876 77.3212 339.083 76.908C339.393 76.3914 339.496 75.9782 339.496 75.4617C339.496 74.8419 339.393 74.4286 339.083 74.0154C338.876 73.4989 338.463 73.189 338.05 72.9823C337.636 72.6724 337.12 72.5691 336.603 72.5691H334.537V78.2509H334.434Z" fill="#808080"/>
<path d="M345.074 77.2181L344.248 79.0776H343.318L346.624 71.8462H347.45L350.653 79.0776H349.826L349 77.2181H345.074ZM347.037 72.7759L345.384 76.3916H348.69L347.037 72.7759Z" fill="#808080"/>
<path d="M356.231 72.5693V79.0776H355.405V72.5693H353.029V71.8462H358.607V72.5693H356.231Z" fill="#808080"/>
<path d="M362.636 79.0774V71.7427H363.463V79.0774H362.636Z" fill="#808080"/>
<path d="M373.587 72.2592C374.206 72.5691 374.62 73.0857 375.033 73.6022C375.343 74.1187 375.446 74.7385 375.446 75.4617C375.446 76.0815 375.343 76.7014 375.033 77.3212C374.62 77.8377 374.206 78.2509 373.587 78.6642C373.07 78.9741 372.347 79.1807 371.727 79.1807C371.004 79.1807 370.384 78.9741 369.764 78.6642C369.144 78.3542 368.731 77.8377 368.421 77.3212C368.008 76.7014 367.905 76.0815 367.905 75.4617C367.905 74.7385 368.111 74.1187 368.421 73.6022C368.731 73.0857 369.144 72.5691 369.764 72.2592C370.384 71.9493 371.004 71.7427 371.727 71.7427C372.347 71.7427 373.07 71.9493 373.587 72.2592ZM370.178 72.9823C369.764 73.189 369.351 73.6022 369.144 74.0154C368.835 74.4286 368.731 74.9452 368.731 75.4617C368.731 75.9782 368.835 76.4947 369.144 76.908C369.351 77.3212 369.764 77.7344 370.178 77.941C370.694 78.2509 371.107 78.3542 371.727 78.3542C372.244 78.3542 372.76 78.2509 373.173 77.941C373.587 77.7344 374 77.3212 374.31 76.908C374.516 76.4947 374.62 75.9782 374.62 75.4617C374.62 74.9452 374.516 74.4286 374.31 74.0154C374 73.6022 373.69 73.189 373.173 72.9823C372.76 72.6724 372.244 72.5691 371.727 72.5691C371.107 72.5691 370.694 72.6724 370.178 72.9823Z" fill="#808080"/>
<path d="M385.053 79.0774L380.715 73.189V79.0774H379.888V71.7427H380.818L385.157 77.6311V71.7427H385.983V79.0774H385.053Z" fill="#808080"/>
<path d="M390.219 30.7307V33.1067H389.599V30.7307H388.669V30.1108H391.149V30.7307H390.219Z" fill="#808080"/>
<path d="M394.351 31.2472L393.525 32.9001H393.112L392.285 31.2472V33.1067H391.562V30.1108H392.492L393.318 31.7637L394.041 30.1108H394.971V33.1067H394.351V31.2472Z" fill="#808080"/>
<path fill-rule="evenodd" clip-rule="evenodd" d="M161.913 68.3338L165.012 68.0239C168.938 68.747 172.76 67.714 176.066 64.4082C175.653 65.1313 175.24 65.8545 174.93 66.4743C173.277 69.1602 171.314 70.8131 167.595 72.466C170.178 72.5693 171.521 71.9495 172.657 70.6065C172.45 71.0197 172.244 71.3297 172.037 71.7429C169.661 75.6685 165.012 77.0115 159.537 76.8049C160.777 77.9412 161.397 79.3875 161.5 80.9371C160.674 79.3875 159.744 78.1478 158.711 77.6313C159.331 75.6685 159.64 74.8421 159.95 73.809C160.054 73.7057 160.157 73.4991 160.157 73.2925C160.26 73.2925 160.26 73.2925 160.26 73.1892C160.674 71.8462 161.19 70.3999 161.707 69.0569C161.81 68.8503 161.913 68.5404 161.913 68.3338ZM157.471 60.0693L161.19 67.5073C161.087 67.9206 160.983 68.2305 160.88 68.5404C160.26 69.9867 159.744 71.433 159.331 72.7759C159.227 72.8792 159.227 72.9826 159.124 73.0859C159.021 73.4991 158.917 73.809 158.711 74.2222C154.062 87.4454 150.963 97.5693 150.55 99.1189C150.24 99.8421 149.826 100.359 149 100.565C151.583 92.0941 154.165 84.0363 156.645 76.8049C155.095 76.495 152.822 76.9082 150.033 78.0445C151.893 76.5983 153.855 75.4619 155.612 75.2553C154.992 75.152 153.545 74.6354 151.583 72.8793C153.442 73.4991 155.095 73.809 156.335 73.6024C156.025 70.5032 154.372 67.3007 152.099 63.995C152.099 63.995 155.198 65.7512 156.335 67.714C156.438 67.6107 156.438 67.5073 156.438 67.404C156.541 65.1313 156.955 62.7553 157.368 60.3793C157.368 60.2759 157.368 60.2759 157.471 60.0693Z" fill="url(#paint9_linear_4825_52861)"/>
<path fill-rule="evenodd" clip-rule="evenodd" d="M190.839 30.4207C191.046 30.3174 191.149 30.2141 191.252 30.1108C191.149 30.3174 191.149 30.6273 191.046 31.0406C190.942 31.3505 190.839 31.6604 190.736 31.9703C190.736 32.1769 190.632 32.2802 190.632 32.3835C190.529 32.6935 190.426 33.0034 190.219 33.4166C189.909 34.1397 189.599 34.9662 189.083 35.8959C188.979 36.1025 188.876 36.4125 188.773 36.6191C188.67 36.7224 188.566 36.929 188.463 37.0323C188.256 37.4455 187.843 37.8587 187.533 38.272C187.43 38.4786 187.223 38.6852 187.12 38.7885C186.913 39.0984 186.707 39.305 186.397 39.5116C186.19 39.6149 186.087 39.8216 185.88 39.9249C185.054 40.648 184.021 41.1645 182.884 41.5778C182.884 41.5778 182.988 41.5778 183.091 41.5778C183.298 41.5778 183.504 41.5778 183.711 41.4744C185.467 41.0612 186.913 40.3381 187.843 39.7183C186.294 42.8174 184.124 45.2968 180.818 46.5364C181.025 46.5364 181.232 46.5364 181.335 46.4331C181.541 46.4331 181.748 46.3298 181.955 46.3298C182.988 46.1232 183.917 45.8133 184.744 45.4001C184.124 47.3629 183.504 49.1191 182.781 50.8753C181.955 52.8381 181.128 54.491 180.198 56.1439C179.062 58.21 177.822 60.0695 176.376 61.5158C173.277 64.8216 168.525 67.6108 164.909 68.024H165.013L162.017 68.334L162.12 68.2307C162.636 66.4745 163.36 64.8216 163.979 63.1687C163.979 63.0654 163.979 63.0654 164.083 62.9621C164.703 61.3092 165.322 59.6563 165.942 58.1067C166.562 56.3505 167.285 54.5943 168.008 52.9414C168.628 51.1852 169.351 49.5323 170.074 47.8794C170.798 46.1232 171.521 44.5736 172.244 42.9207C172.76 41.6811 173.38 40.4414 173.897 39.2017C174.103 38.7885 174.31 38.3753 174.517 37.9621C174.827 37.2389 175.24 36.4125 175.55 35.6893C175.86 34.9662 176.17 34.3464 176.479 33.6232C176.583 33.4166 176.686 33.21 176.789 33.0034C176.789 32.9001 176.893 32.9001 176.893 32.7968L186.294 31.7637V31.867C186.397 31.867 186.5 31.7637 186.707 31.7637C188.153 31.5571 189.806 30.9373 190.839 30.4207ZM176.273 32.3835C176.273 32.3835 176.17 32.4868 176.17 32.5902C175.653 33.5199 175.136 34.553 174.62 35.586C174.413 36.1025 174.103 36.7224 173.794 37.3422C173.07 38.9951 172.244 40.648 171.521 42.3009C170.694 43.9538 169.971 45.6067 169.248 47.3629C168.525 49.0158 167.802 50.6687 167.182 52.3216C166.459 53.9745 165.736 55.6273 165.116 57.2802C164.393 59.0364 163.773 60.6893 163.153 62.3422C162.946 62.7554 162.843 63.1687 162.636 63.4786C162.12 64.8216 161.707 66.1645 161.19 67.5075L157.471 60.0695C157.884 58.1067 158.298 56.1439 158.917 54.2844C159.124 53.4579 159.331 52.6315 159.641 51.805C159.951 50.772 160.26 49.8422 160.674 48.7059C161.294 47.1563 161.913 45.5034 162.636 43.7472C163.256 42.1976 164.083 40.5447 164.806 38.8918C165.013 38.6852 165.116 38.3753 165.219 38.0654C165.839 36.8257 166.562 35.4827 167.285 34.1397C168.112 32.6935 168.938 31.1439 169.765 29.5943C170.591 28.148 171.521 26.7017 172.347 25.2554C172.451 25.2554 172.451 25.0488 172.554 25.0488L176.273 32.3835Z" fill="url(#paint10_linear_4825_52861)"/>
<path fill-rule="evenodd" clip-rule="evenodd" d="M187.43 13.8917C190.426 13.6851 194.868 13.1686 198.587 12.5487C198.483 13.0653 198.38 13.7884 198.174 14.4082C197.967 15.1314 197.657 15.9578 197.347 16.8876C196.831 18.3339 196.107 19.8834 195.281 21.5363C194.351 23.1892 193.421 24.8421 192.492 26.3917C192.182 26.8049 191.769 27.3215 191.459 27.838C190.322 29.4909 189.083 30.6272 186.293 31.8669L176.893 32.9C177.719 31.1438 178.545 29.5942 179.269 28.1479C180.198 26.3917 181.025 24.8421 181.851 23.2925C182.781 21.5363 183.711 19.9868 184.537 18.5405C184.537 18.4372 184.64 18.4372 184.744 18.3339C185.674 16.5777 186.603 15.1314 187.43 13.8917ZM184.331 18.0239C184.227 18.1272 184.124 18.2306 184.124 18.3339C183.091 19.7801 182.264 21.3297 181.335 22.9826C180.405 24.5322 179.579 26.0818 178.649 27.7347C177.822 29.181 176.996 30.8339 176.273 32.3834L172.554 25.0487C172.554 24.9454 172.554 24.9454 172.657 24.8421C173.483 23.4991 174.31 22.2595 175.033 21.0198C176.066 19.4702 176.996 18.1272 178.029 16.681C179.062 15.2347 179.992 13.7884 181.025 12.4454C181.955 11.3091 182.781 10.1727 183.607 9.13964C183.814 8.93303 184.021 8.62312 184.227 8.4165L187.12 13.7884C186.19 15.1314 185.26 16.5777 184.331 18.0239Z" fill="url(#paint11_linear_4825_52861)"/>
<path fill-rule="evenodd" clip-rule="evenodd" d="M184.227 8.41639C187.326 4.59408 189.909 2.01143 191.562 1.08168C194.764 -0.881127 197.45 3.56102 197.45 3.56102C197.45 3.56102 199.62 6.35028 198.587 12.5486C194.971 13.1685 190.425 13.7883 187.43 13.8916C190.529 9.24284 192.492 6.86681 193.215 6.14367C191.149 8.31309 189.082 10.8957 187.12 13.7883L184.227 8.41639Z" fill="url(#paint12_linear_4825_52861)"/>
<defs>
<filter id="filter0_f_4825_52861" x="393" y="161.565" width="28" height="28" filterUnits="userSpaceOnUse" color-interpolation-filters="sRGB">
<feFlood flood-opacity="0" result="BackgroundImageFix"/>
<feBlend mode="normal" in="SourceGraphic" in2="BackgroundImageFix" result="shape"/>
<feGaussianBlur stdDeviation="3" result="effect1_foregroundBlur_4825_52861"/>
</filter>
<filter id="filter1_f_4825_52861" x="309" y="159.565" width="34" height="34" filterUnits="userSpaceOnUse" color-interpolation-filters="sRGB">
<feFlood flood-opacity="0" result="BackgroundImageFix"/>
<feBlend mode="normal" in="SourceGraphic" in2="BackgroundImageFix" result="shape"/>
<feGaussianBlur stdDeviation="4.5" result="effect1_foregroundBlur_4825_52861"/>
</filter>
<filter id="filter2_f_4825_52861" x="363" y="136.565" width="34" height="34" filterUnits="userSpaceOnUse" color-interpolation-filters="sRGB">
<feFlood flood-opacity="0" result="BackgroundImageFix"/>
<feBlend mode="normal" in="SourceGraphic" in2="BackgroundImageFix" result="shape"/>
<feGaussianBlur stdDeviation="4.5" result="effect1_foregroundBlur_4825_52861"/>
</filter>
<filter id="filter3_f_4825_52861" x="390" y="136.565" width="34" height="34" filterUnits="userSpaceOnUse" color-interpolation-filters="sRGB">
<feFlood flood-opacity="0" result="BackgroundImageFix"/>
<feBlend mode="normal" in="SourceGraphic" in2="BackgroundImageFix" result="shape"/>
<feGaussianBlur stdDeviation="4.5" result="effect1_foregroundBlur_4825_52861"/>
</filter>
<filter id="filter4_f_4825_52861" x="336" y="136.565" width="34" height="34" filterUnits="userSpaceOnUse" color-interpolation-filters="sRGB">
<feFlood flood-opacity="0" result="BackgroundImageFix"/>
<feBlend mode="normal" in="SourceGraphic" in2="BackgroundImageFix" result="shape"/>
<feGaussianBlur stdDeviation="4.5" result="effect1_foregroundBlur_4825_52861"/>
</filter>
<filter id="filter5_f_4825_52861" x="309" y="136.565" width="34" height="34" filterUnits="userSpaceOnUse" color-interpolation-filters="sRGB">
<feFlood flood-opacity="0" result="BackgroundImageFix"/>
<feBlend mode="normal" in="SourceGraphic" in2="BackgroundImageFix" result="shape"/>
<feGaussianBlur stdDeviation="4.5" result="effect1_foregroundBlur_4825_52861"/>
</filter>
<filter id="filter6_f_4825_52861" x="366" y="161.565" width="28" height="28" filterUnits="userSpaceOnUse" color-interpolation-filters="sRGB">
<feFlood flood-opacity="0" result="BackgroundImageFix"/>
<feBlend mode="normal" in="SourceGraphic" in2="BackgroundImageFix" result="shape"/>
<feGaussianBlur stdDeviation="3" result="effect1_foregroundBlur_4825_52861"/>
</filter>
<filter id="filter7_f_4825_52861" x="339" y="161.565" width="28" height="28" filterUnits="userSpaceOnUse" color-interpolation-filters="sRGB">
<feFlood flood-opacity="0" result="BackgroundImageFix"/>
<feBlend mode="normal" in="SourceGraphic" in2="BackgroundImageFix" result="shape"/>
<feGaussianBlur stdDeviation="3" result="effect1_foregroundBlur_4825_52861"/>
</filter>
<linearGradient id="paint0_linear_4825_52861" x1="259.825" y1="67.7067" x2="258.753" y2="332.056" gradientUnits="userSpaceOnUse">
<stop stop-color="#A0A0A0" stop-opacity="0"/>
<stop offset="1" stop-color="#646464" stop-opacity="0.5"/>
</linearGradient>
<linearGradient id="paint1_linear_4825_52861" x1="258.245" y1="81.079" x2="258.55" y2="335.216" gradientUnits="userSpaceOnUse">
<stop offset="0.169555" stop-color="white" stop-opacity="0"/>
<stop offset="0.413814" stop-color="#AFAFAF"/>
</linearGradient>
<linearGradient id="paint2_linear_4825_52861" x1="399" y1="166.94" x2="415" y2="183.565" gradientUnits="userSpaceOnUse">
<stop stop-color="#FFC671"/>
<stop offset="0.59375" stop-color="#FF7541"/>
<stop offset="1" stop-color="#FF6F3D"/>
</linearGradient>
<linearGradient id="paint3_linear_4825_52861" x1="372" y1="144.94" x2="388" y2="161.565" gradientUnits="userSpaceOnUse">
<stop stop-color="#FFC671"/>
<stop offset="0.59375" stop-color="#FF7541"/>
<stop offset="1" stop-color="#FF6F3D"/>
</linearGradient>
<linearGradient id="paint4_linear_4825_52861" x1="345" y1="144.94" x2="361" y2="161.565" gradientUnits="userSpaceOnUse">
<stop stop-color="#FFC671"/>
<stop offset="0.59375" stop-color="#FF7541"/>
<stop offset="1" stop-color="#FF6F3D"/>
</linearGradient>
<linearGradient id="paint5_linear_4825_52861" x1="318" y1="144.94" x2="334" y2="161.565" gradientUnits="userSpaceOnUse">
<stop stop-color="#FFC671"/>
<stop offset="0.59375" stop-color="#FF7541"/>
<stop offset="1" stop-color="#FF6F3D"/>
</linearGradient>
<linearGradient id="paint6_linear_4825_52861" x1="372" y1="166.94" x2="388" y2="183.565" gradientUnits="userSpaceOnUse">
<stop stop-color="#FFC671"/>
<stop offset="0.59375" stop-color="#FF7541"/>
<stop offset="1" stop-color="#FF6F3D"/>
</linearGradient>
<linearGradient id="paint7_linear_4825_52861" x1="345" y1="166.94" x2="361" y2="183.565" gradientUnits="userSpaceOnUse">
<stop stop-color="#FFC671"/>
<stop offset="0.59375" stop-color="#FF7541"/>
<stop offset="1" stop-color="#FF6F3D"/>
</linearGradient>
<linearGradient id="paint8_linear_4825_52861" x1="143" y1="135.456" x2="163.054" y2="139.315" gradientUnits="userSpaceOnUse">
<stop stop-color="#FFC671"/>
<stop offset="0.59375" stop-color="#FF7541"/>
<stop offset="1" stop-color="#FF6F3D"/>
</linearGradient>
<linearGradient id="paint9_linear_4825_52861" x1="161.707" y1="100.565" x2="163.36" y2="60.1726" gradientUnits="userSpaceOnUse">
<stop stop-color="#282662"/>
<stop offset="0.270588" stop-color="#5B2568"/>
<stop offset="1" stop-color="#8F246F"/>
</linearGradient>
<linearGradient id="paint10_linear_4825_52861" x1="166.665" y1="66.3711" x2="182.058" y2="27.0116" gradientUnits="userSpaceOnUse">
<stop stop-color="#A22060"/>
<stop offset="1" stop-color="#D23432"/>
</linearGradient>
<linearGradient id="paint11_linear_4825_52861" x1="183.194" y1="32.6934" x2="187.946" y2="8.62312" gradientUnits="userSpaceOnUse">
<stop stop-color="#D23232"/>
<stop offset="1" stop-color="#E97826"/>
</linearGradient>
<linearGradient id="paint12_linear_4825_52861" x1="190.219" y1="0.668459" x2="192.905" y2="13.7883" gradientUnits="userSpaceOnUse">
<stop stop-color="#F69923"/>
<stop offset="0.858824" stop-color="#F49323"/>
<stop offset="1" stop-color="#F18C24"/>
</linearGradient>
</defs>
</svg>
