<svg width="448" height="254" viewBox="0 0 448 254" fill="none" xmlns="http://www.w3.org/2000/svg">
<path d="M222.431 253.553C332.682 253.553 422.058 251.414 422.058 248.776C422.058 246.138 332.682 244 222.431 244C112.179 244 22.8027 246.138 22.8027 248.776C22.8027 251.414 112.179 253.553 222.431 253.553Z" fill="#EFEFEF"/>
<path d="M307.495 16.4962V188.5H6.5V16.4962C6.5 12.5941 9.59981 9.5 13.5052 9.5H300.495C304.315 9.5 307.358 12.4541 307.495 16.23V16.4962Z" fill="#AAAAAA" stroke="#333333"/>
<path d="M12.5 182.5V15.5H301.5V182.5H12.5Z" fill="white" stroke="#333333"/>
<path d="M194 248.5H194.561L194.497 247.943L190.831 215.943L190.78 215.5H190.334H122.4H121.964L121.905 215.932L117.505 247.932L117.427 248.5H118H194Z" fill="#CCCCCC" stroke="#333333"/>
<path d="M6.5 208.442V188.5H307.5V208.442C307.5 212.382 304.396 215.5 300.495 215.5H13.5054C9.59909 215.5 6.5 212.383 6.5 208.442Z" fill="#E2E2E2" stroke="#333333"/>
<path d="M107.333 251.5L117.106 248.5H194.894L204.667 251.5H107.333Z" fill="#E2E2E2" stroke="#333333"/>
<path d="M207.281 252.5L206.909 253.5H104.986L104.677 252.5H207.281Z" fill="#AAAAAA" stroke="#333333"/>
<path d="M162.5 201.497C162.5 204.26 160.259 206.5 157.5 206.5C154.741 206.5 152.5 204.26 152.5 201.497C152.5 198.74 154.74 196.5 157.5 196.5C160.26 196.5 162.5 198.735 162.5 201.497Z" fill="#AAAAAA" stroke="#333333"/>
<path d="M58 46C58 54.8366 50.8366 62 42 62C33.1634 62 26 54.8366 26 46C26 37.1634 33.1634 30 42 30C50.8366 30 58 37.1634 58 46Z" fill="#077838"/>
<path d="M50.9842 43.4564C50.9842 47.8851 48.1247 50.914 44.036 50.914C42.0923 50.914 40.4903 50.1136 39.8906 49.1134L39.9189 50.142V56.4847H35.7451V40.0846C35.7451 39.8564 35.6884 39.7984 35.4304 39.7984H34V36.3132H37.4889C39.0896 36.3132 39.4907 37.6846 39.6042 38.2853C40.2337 37.2283 41.8911 36 44.2359 36C48.2679 35.9987 50.9842 38.998 50.9842 43.4564ZM46.724 43.4847C46.724 41.1131 45.1801 39.4852 43.2351 39.4852C41.6344 39.4852 39.8325 40.5421 39.8325 43.5144C39.8325 45.4568 40.9186 47.4855 43.1783 47.4855C44.837 47.4842 46.724 46.2843 46.724 43.4847Z" fill="white"/>
<path d="M67.1378 39.4091H70.5511L74.1562 48.2045H74.3097L77.9148 39.4091H81.3281V52.5H78.6435V43.9794H78.5348L75.147 52.4361H73.3189L69.9311 43.9474H69.8224V52.5H67.1378V39.4091ZM85.8649 52.5H82.899L87.4181 39.4091H90.9849L95.4977 52.5H92.5318L89.2527 42.4006H89.1504L85.8649 52.5ZM85.6795 47.3544H92.6852V49.5149H85.6795V47.3544ZM97.0733 52.5V39.4091H102.238C103.227 39.4091 104.07 39.5859 104.769 39.9396C105.472 40.2891 106.007 40.7855 106.374 41.429C106.744 42.0682 106.93 42.8203 106.93 43.6854C106.93 44.5547 106.742 45.3026 106.367 45.929C105.992 46.5511 105.449 47.0284 104.737 47.3608C104.03 47.6932 103.173 47.8594 102.168 47.8594H98.7097V45.6349H101.72C102.249 45.6349 102.688 45.5625 103.037 45.4176C103.387 45.2727 103.646 45.0554 103.817 44.7656C103.992 44.4759 104.079 44.1158 104.079 43.6854C104.079 43.2507 103.992 42.8842 103.817 42.5859C103.646 42.2876 103.384 42.0618 103.031 41.9084C102.681 41.7507 102.24 41.6719 101.708 41.6719H99.8411V52.5H97.0733ZM104.143 46.5426L107.396 52.5H104.341L101.158 46.5426H104.143ZM108.886 52.5V39.4091H111.654V45.1811H111.826L116.537 39.4091H119.855L114.997 45.2706L119.912 52.5H116.601L113.015 47.1179L111.654 48.7798V52.5H108.886ZM121.296 52.5V39.4091H130.117V41.6911H124.064V44.8104H129.663V47.0923H124.064V50.218H130.143V52.5H121.296ZM131.819 41.6911V39.4091H142.57V41.6911H138.562V52.5H135.827V41.6911H131.819ZM144.341 52.5V39.4091H149.506C150.499 39.4091 151.344 39.5987 152.043 39.978C152.742 40.353 153.275 40.875 153.641 41.544C154.012 42.2088 154.197 42.9759 154.197 43.8452C154.197 44.7145 154.01 45.4815 153.635 46.1463C153.26 46.8111 152.717 47.3288 152.005 47.6996C151.298 48.0703 150.441 48.2557 149.435 48.2557H146.143V46.0376H148.988C149.521 46.0376 149.96 45.946 150.305 45.7628C150.654 45.5753 150.914 45.3175 151.085 44.9893C151.259 44.657 151.347 44.2756 151.347 43.8452C151.347 43.4105 151.259 43.0312 151.085 42.7074C150.914 42.3793 150.654 42.1257 150.305 41.9467C149.955 41.7635 149.512 41.6719 148.975 41.6719H147.109V52.5H144.341ZM155.995 52.5V39.4091H158.763V50.218H164.375V52.5H155.995ZM168.798 52.5H165.833L170.352 39.4091H173.919L178.431 52.5H175.465L172.186 42.4006H172.084L168.798 52.5ZM168.613 47.3544H175.619V49.5149H168.613V47.3544ZM190.942 43.9922H188.142C188.091 43.63 187.987 43.3082 187.829 43.027C187.672 42.7415 187.469 42.4986 187.222 42.2983C186.975 42.098 186.689 41.9446 186.365 41.8381C186.046 41.7315 185.699 41.6783 185.324 41.6783C184.646 41.6783 184.056 41.8466 183.553 42.1832C183.05 42.5156 182.66 43.0014 182.383 43.6406C182.106 44.2756 181.968 45.0469 181.968 45.9545C181.968 46.8878 182.106 47.6719 182.383 48.3068C182.664 48.9418 183.056 49.4212 183.559 49.745C184.062 50.0689 184.644 50.2308 185.304 50.2308C185.675 50.2308 186.018 50.1818 186.333 50.0838C186.653 49.9858 186.936 49.843 187.184 49.6555C187.431 49.4638 187.635 49.2315 187.797 48.9588C187.963 48.6861 188.078 48.375 188.142 48.0256L190.942 48.0384C190.87 48.6392 190.689 49.2188 190.399 49.777C190.113 50.331 189.728 50.8274 189.242 51.2663C188.76 51.701 188.185 52.0462 187.516 52.3018C186.851 52.5533 186.099 52.679 185.26 52.679C184.092 52.679 183.048 52.4148 182.127 51.8864C181.211 51.358 180.487 50.593 179.954 49.5916C179.426 48.5902 179.162 47.3778 179.162 45.9545C179.162 44.527 179.43 43.3125 179.967 42.3111C180.504 41.3097 181.233 40.5469 182.153 40.0227C183.074 39.4943 184.109 39.2301 185.26 39.2301C186.018 39.2301 186.721 39.3366 187.369 39.5497C188.021 39.7628 188.598 40.0739 189.101 40.483C189.604 40.8878 190.013 41.3842 190.328 41.9723C190.648 42.5604 190.853 43.2337 190.942 43.9922ZM192.927 52.5V39.4091H201.748V41.6911H195.695V44.8104H201.294V47.0923H195.695V50.218H201.773V52.5H192.927Z" fill="#017737"/>
<path d="M80.973 102.545C80.973 103.735 80.7475 104.747 80.2965 105.582C79.8491 106.416 79.2383 107.054 78.4641 107.494C77.6935 107.931 76.8271 108.149 75.8647 108.149C74.8952 108.149 74.0252 107.929 73.2546 107.489C72.484 107.048 71.875 106.411 71.4276 105.576C70.9801 104.742 70.7564 103.732 70.7564 102.545C70.7564 101.356 70.9801 100.344 71.4276 99.5092C71.875 98.6747 72.484 98.0391 73.2546 97.6023C74.0252 97.1619 74.8952 96.9418 75.8647 96.9418C76.8271 96.9418 77.6935 97.1619 78.4641 97.6023C79.2383 98.0391 79.8491 98.6747 80.2965 99.5092C80.7475 100.344 80.973 101.356 80.973 102.545ZM78.6346 102.545C78.6346 101.775 78.5192 101.125 78.2884 100.596C78.0611 100.067 77.7397 99.6655 77.3242 99.392C76.9087 99.1186 76.4222 98.9819 75.8647 98.9819C75.3072 98.9819 74.8207 99.1186 74.4052 99.392C73.9897 99.6655 73.6665 100.067 73.4357 100.596C73.2085 101.125 73.0948 101.775 73.0948 102.545C73.0948 103.316 73.2085 103.966 73.4357 104.495C73.6665 105.024 73.9897 105.425 74.4052 105.699C74.8207 105.972 75.3072 106.109 75.8647 106.109C76.4222 106.109 76.9087 105.972 77.3242 105.699C77.7397 105.425 78.0611 105.024 78.2884 104.495C78.5192 103.966 78.6346 103.316 78.6346 102.545ZM91.8062 97.0909V108H89.814L85.0679 101.134H84.988V108H82.6816V97.0909H84.7057L89.4145 103.952H89.5104V97.0909H91.8062ZM93.7118 108V97.0909H96.0183V106.098H100.695V108H93.7118ZM100.192 97.0909H102.775L105.263 101.789H105.369L107.857 97.0909H110.44L106.461 104.143V108H104.171V104.143L100.192 97.0909ZM121.066 102.545C121.066 103.735 120.84 104.747 120.389 105.582C119.942 106.416 119.331 107.054 118.557 107.494C117.786 107.931 116.92 108.149 115.957 108.149C114.988 108.149 114.118 107.929 113.347 107.489C112.577 107.048 111.968 106.411 111.52 105.576C111.073 104.742 110.849 103.732 110.849 102.545C110.849 101.356 111.073 100.344 111.52 99.5092C111.968 98.6747 112.577 98.0391 113.347 97.6023C114.118 97.1619 114.988 96.9418 115.957 96.9418C116.92 96.9418 117.786 97.1619 118.557 97.6023C119.331 98.0391 119.942 98.6747 120.389 99.5092C120.84 100.344 121.066 101.356 121.066 102.545ZM118.727 102.545C118.727 101.775 118.612 101.125 118.381 100.596C118.154 100.067 117.832 99.6655 117.417 99.392C117.002 99.1186 116.515 98.9819 115.957 98.9819C115.4 98.9819 114.913 99.1186 114.498 99.392C114.082 99.6655 113.759 100.067 113.528 100.596C113.301 101.125 113.188 101.775 113.188 102.545C113.188 103.316 113.301 103.966 113.528 104.495C113.759 105.024 114.082 105.425 114.498 105.699C114.913 105.972 115.4 106.109 115.957 106.109C116.515 106.109 117.002 105.972 117.417 105.699C117.832 105.425 118.154 105.024 118.381 104.495C118.612 103.966 118.727 103.316 118.727 102.545ZM122.774 108V97.0909H129.997V98.9925H125.081V101.592H129.518V103.494H125.081V108H122.774ZM131.549 108V97.0909H138.772V98.9925H133.855V101.592H138.292V103.494H133.855V108H131.549ZM142.63 97.0909V108H140.323V97.0909H142.63ZM154.153 100.91H151.82C151.777 100.608 151.69 100.34 151.559 100.106C151.427 99.8679 151.258 99.6655 151.052 99.4986C150.847 99.3317 150.609 99.2038 150.339 99.1151C150.072 99.0263 149.783 98.9819 149.47 98.9819C148.906 98.9819 148.414 99.1222 147.995 99.4027C147.576 99.6797 147.251 100.085 147.02 100.617C146.789 101.146 146.674 101.789 146.674 102.545C146.674 103.323 146.789 103.977 147.02 104.506C147.255 105.035 147.581 105.434 148 105.704C148.419 105.974 148.904 106.109 149.454 106.109C149.763 106.109 150.049 106.068 150.312 105.987C150.578 105.905 150.815 105.786 151.021 105.63C151.226 105.47 151.397 105.276 151.532 105.049C151.67 104.822 151.766 104.562 151.82 104.271L154.153 104.282C154.092 104.783 153.941 105.266 153.7 105.731C153.462 106.192 153.141 106.606 152.736 106.972C152.334 107.334 151.855 107.622 151.297 107.835C150.744 108.044 150.117 108.149 149.417 108.149C148.444 108.149 147.574 107.929 146.807 107.489C146.044 107.048 145.44 106.411 144.996 105.576C144.556 104.742 144.335 103.732 144.335 102.545C144.335 101.356 144.559 100.344 145.007 99.5092C145.454 98.6747 146.061 98.0391 146.828 97.6023C147.595 97.1619 148.458 96.9418 149.417 96.9418C150.049 96.9418 150.635 97.0305 151.175 97.2081C151.718 97.3857 152.199 97.6449 152.619 97.9858C153.038 98.3232 153.378 98.7369 153.641 99.2269C153.908 99.717 154.078 100.278 154.153 100.91ZM155.807 108V97.0909H163.157V98.9925H158.113V101.592H162.779V103.494H158.113V106.098H163.179V108H155.807Z" fill="#192435"/>
<path fill-rule="evenodd" clip-rule="evenodd" d="M380.97 45.5046C380.629 47.3383 379.98 49.9065 378.832 50.5354C378.054 50.9674 376.863 50.281 375.042 47.2663C376.868 47.1751 378.818 46.6375 380.552 45.7302C380.691 45.6582 380.831 45.5814 380.97 45.5046ZM372.424 47.0599C371.55 48.1064 370.767 48.8168 370.085 49.2825C369.072 49.9689 368.375 50.0745 367.986 49.9401C367.655 49.8201 367.487 49.2585 367.424 48.5528C367.309 47.3095 367.544 45.759 367.731 44.8949C368.092 44.8469 368.466 44.7989 368.846 44.7605L369.038 45.0293C369.845 46.0806 371.036 46.7431 372.424 47.0599Z" fill="#CCCCCC"/>
<path fill-rule="evenodd" clip-rule="evenodd" d="M368.897 44.6467L369.124 44.965C369.913 45.9911 371.079 46.6421 372.448 46.9546L372.62 46.9938L372.507 47.1291C371.628 48.1812 370.838 48.8991 370.146 49.3717C369.124 50.0634 368.389 50.1938 367.95 50.0422L367.949 50.0417C367.737 49.9651 367.597 49.7563 367.503 49.504C367.407 49.2474 367.348 48.9197 367.316 48.5625C367.199 47.3029 367.437 45.7398 367.626 44.872L367.642 44.7979L367.717 44.7878C368.077 44.7398 368.453 44.6916 368.835 44.653L368.897 44.6467ZM367.821 44.9919C367.637 45.8643 367.421 47.3504 367.531 48.5428C367.562 48.8912 367.619 49.1976 367.705 49.4282C367.793 49.6627 367.902 49.7946 368.022 49.8383C368.361 49.9551 369.019 49.8737 370.024 49.1932C370.667 48.7544 371.405 48.092 372.229 47.1241C370.895 46.7885 369.744 46.1268 368.952 45.0951L368.95 45.0921L368.794 44.8743C368.464 44.9087 368.137 44.95 367.821 44.9919ZM381.117 45.2996L381.076 45.5243C380.905 46.4433 380.656 47.5507 380.305 48.509C380.129 48.9881 379.927 49.4332 379.693 49.7998C379.461 50.1655 379.193 50.4607 378.884 50.6301C378.44 50.876 377.9 50.7855 377.261 50.2779C376.623 49.7713 375.862 48.8328 374.95 47.3221L374.856 47.1674L375.037 47.1584C376.846 47.068 378.781 46.5349 380.501 45.6345C380.639 45.5632 380.778 45.4869 380.917 45.41L381.117 45.2996ZM380.821 45.7094C380.748 45.749 380.675 45.7881 380.601 45.826C378.911 46.7103 377.017 47.2464 375.228 47.3637C376.094 48.7768 376.809 49.6431 377.395 50.1088C378.001 50.5899 378.445 50.6267 378.779 50.4409C379.044 50.296 379.289 50.034 379.511 49.6839C379.733 49.3349 379.929 48.9053 380.102 48.4346C380.419 47.5691 380.653 46.5749 380.821 45.7094Z" fill="#CCCCCC"/>
<path fill-rule="evenodd" clip-rule="evenodd" d="M381.036 22.0307C381.075 20.2161 381.008 18.6992 380.859 17.4367C380.671 15.8958 380.35 14.7101 379.927 13.8124C379.615 13.15 379.144 12.5115 378.572 11.9979C378.029 11.5034 377.386 11.1098 376.694 10.8986C375.829 10.6345 374.989 10.6874 374.172 10.937C373.409 11.1674 372.678 11.5706 371.963 12.0411C371.607 12.2715 371.3 12.4923 371.007 12.7035C369.791 13.5724 368.821 14.2684 367.078 13.798C366.957 13.7644 366.842 13.7068 366.746 13.6252C366.607 13.5052 366.496 13.342 366.439 13.15C366.376 12.9435 366.371 12.7035 366.443 12.4347C366.516 12.1563 366.679 11.8538 366.943 11.5418L366.977 11.4938C367.073 11.3594 367.193 11.225 367.332 11.0906C368.504 9.94809 370.843 9.06482 373.505 8.8824C376.185 8.69999 379.163 9.25203 381.565 10.9898C382.026 11.321 382.463 11.6954 382.876 12.1227C383.851 13.126 384.601 14.5229 384.99 16.4238C385.326 18.0704 385.393 20.0913 385.105 22.5587C384.97 22.3139 384.807 22.0979 384.615 21.9155C384.245 21.5698 383.774 21.3586 383.217 21.3298C382.598 21.2962 381.863 21.5026 381.036 22.0307Z" fill="#666666"/>
<path fill-rule="evenodd" clip-rule="evenodd" d="M381.502 11.0773C379.126 9.35794 376.175 8.80897 373.512 8.99015C370.865 9.17164 368.555 10.0503 367.408 11.1679C367.272 11.2989 367.157 11.4286 367.065 11.5562L367.026 11.6119C366.77 11.9149 366.616 12.2029 366.549 12.4617C366.481 12.7135 366.487 12.9337 366.543 13.1187C366.594 13.2903 366.693 13.4362 366.817 13.5431C366.9 13.6133 367 13.664 367.107 13.6939C367.958 13.9234 368.613 13.8673 369.204 13.6516C369.8 13.4337 370.334 13.0521 370.944 12.6157C371.237 12.4046 371.546 12.1825 371.904 11.9506C372.623 11.4779 373.363 11.0684 374.141 10.8336C374.975 10.579 375.837 10.5239 376.726 10.7953C377.435 11.0118 378.093 11.4144 378.645 11.9178C379.227 12.441 379.707 13.091 380.025 13.7664C380.454 14.6775 380.778 15.8753 380.966 17.4237C381.111 18.6458 381.178 20.1037 381.149 21.8347C381.92 21.3751 382.619 21.1892 383.224 21.222C383.806 21.2522 384.301 21.4738 384.689 21.8366C384.816 21.9567 384.931 22.091 385.033 22.237C385.279 19.918 385.204 18.0091 384.884 16.4455C384.499 14.5615 383.758 13.1842 382.799 12.1979C382.391 11.7755 381.958 11.4048 381.502 11.0773ZM381.629 10.9021C379.201 9.14608 376.196 8.59099 373.498 8.77464C370.823 8.95797 368.455 9.84581 367.258 11.013C367.115 11.1507 366.99 11.29 366.889 11.431L366.858 11.4758C366.588 11.7954 366.416 12.1105 366.34 12.4072C366.263 12.6929 366.267 12.9534 366.336 13.1811C366.4 13.3933 366.522 13.574 366.676 13.707C366.785 13.7998 366.916 13.8647 367.049 13.902L367.05 13.9023C367.942 14.143 368.643 14.0863 369.278 13.8544C369.903 13.6262 370.458 13.2291 371.058 12.8L371.07 12.7914C371.363 12.5801 371.669 12.3605 372.022 12.1317C372.734 11.6637 373.455 11.2664 374.204 11.0404C375.004 10.7958 375.823 10.7452 376.663 11.0019C377.337 11.2077 377.967 11.5923 378.5 12.0777C379.061 12.5817 379.524 13.209 379.83 13.8584C380.246 14.7425 380.566 15.9162 380.752 17.4496C380.9 18.706 380.967 20.2177 380.929 22.0284L380.925 22.2306L381.095 22.1217C381.908 21.6019 382.621 21.4056 383.212 21.4377C383.743 21.4651 384.19 21.6658 384.542 21.9941C384.725 22.1681 384.881 22.3749 385.011 22.6107L385.174 22.9069L385.213 22.5712C385.502 20.0956 385.435 18.0627 385.096 16.4022C384.704 14.4843 383.946 13.0678 382.954 12.0476C382.537 11.6156 382.095 11.237 381.629 10.9021Z" fill="#666666"/>
<path fill-rule="evenodd" clip-rule="evenodd" d="M365.334 12.7755C364.47 13.7452 363.763 14.9885 363.23 16.4142C362.073 19.5249 361.732 23.5284 362.366 27.3543C363.005 31.2138 364.638 34.9197 367.409 37.3967C368.485 38.3568 369.734 39.1345 371.161 39.6673C371.372 39.7489 374.518 40.6322 378.256 37.4207C380.1 35.8318 382.132 33.2252 384.068 28.9865L382.742 28.3816C380.907 32.4043 379.015 34.8477 377.309 36.3119C374.182 39.0001 371.824 38.3568 371.67 38.2992C370.421 37.8384 369.331 37.1567 368.389 36.3119C365.882 34.0701 364.402 30.6762 363.812 27.1191C363.216 23.5332 363.528 19.7985 364.599 16.9231C365.07 15.6654 365.68 14.5757 366.425 13.7452L365.334 12.7755Z" fill="#333333"/>
<path fill-rule="evenodd" clip-rule="evenodd" d="M381.003 23.0675C381.095 20.7825 381.037 18.9296 380.854 17.4366C380.667 15.8957 380.345 14.71 379.922 13.8123C379.61 13.1499 379.14 12.5114 378.568 11.9978C378.025 11.5034 377.381 11.1097 376.69 10.8985C375.825 10.6345 374.985 10.6873 374.168 10.9369C373.404 11.1673 372.674 11.5706 371.958 12.041C371.603 12.2714 371.295 12.4922 371.002 12.7035C369.787 13.5723 368.817 14.2684 367.073 13.7979C366.953 13.7643 366.838 13.7067 366.742 13.6251C366.602 13.5051 366.492 13.3419 366.434 13.1499C366.372 12.9435 366.367 12.7035 366.439 12.4346C366.511 12.1562 366.675 11.8538 366.939 11.5418L366.972 11.4938C367.068 11.3593 367.189 11.2249 367.328 11.0905C368.5 9.94803 370.839 9.06476 373.5 8.88234C376.181 8.69993 379.159 9.25197 381.56 10.9897C382.022 11.3209 382.459 11.6954 382.872 12.1226C383.847 13.1259 384.596 14.5228 384.985 16.4238C385.346 18.1951 385.394 20.3937 385.033 23.1155L384.981 23.5283C384.798 24.9541 384.683 25.8421 383.804 27.0614C383.679 27.2343 383.535 27.4215 383.367 27.6231C383.223 27.8007 383.054 27.9927 382.862 28.1943L383.03 28.7992L383.929 29.188C384.116 28.9864 384.303 28.7752 384.486 28.5496C384.654 28.3479 384.817 28.1367 384.981 27.9111C386.071 26.3942 386.205 25.3669 386.422 23.7156L386.474 23.3027C386.859 20.4129 386.801 18.0511 386.407 16.1309C385.96 13.9324 385.072 12.2954 383.909 11.1049C383.439 10.6201 382.934 10.1929 382.406 9.80882C379.697 7.84546 376.373 7.22621 373.39 7.42783C370.388 7.62944 367.698 8.68073 366.295 10.044C366.113 10.2217 365.949 10.4089 365.805 10.6009C365.392 11.0857 365.137 11.5802 365.013 12.0554C364.868 12.5979 364.888 13.1163 365.027 13.5723C365.171 14.0428 365.44 14.4412 365.786 14.734C366.05 14.9548 366.357 15.1181 366.684 15.2093C369.095 15.8573 370.311 14.9836 371.843 13.8892C372.136 13.6827 372.439 13.4619 372.746 13.2603C373.356 12.8571 373.971 12.5162 374.581 12.329C375.138 12.161 375.695 12.1226 376.253 12.2906C376.723 12.4346 377.175 12.7131 377.569 13.0731C377.996 13.4619 378.352 13.942 378.587 14.4316C378.947 15.1901 379.221 16.2269 379.389 17.6047C379.548 18.9248 379.61 20.5377 379.548 22.5011L379.918 23.0195L381.003 23.0675Z" fill="#333333"/>
<path fill-rule="evenodd" clip-rule="evenodd" d="M380.682 23.5188C381.705 22.6163 382.541 22.2659 383.175 22.2947C383.492 22.3091 383.751 22.4291 383.958 22.6163C384.179 22.8227 384.337 23.1156 384.433 23.466C384.688 24.3781 384.496 25.631 383.775 26.7591C383.592 27.0471 383.285 27.3687 382.91 27.6279C382.728 27.7527 382.531 27.8583 382.329 27.9352C381.565 28.2184 381.945 29.0584 382.406 28.9336C382.786 28.828 383.146 28.6504 383.463 28.4344C383.948 28.1032 384.351 27.6711 384.596 27.2871C385.471 25.919 385.692 24.3685 385.375 23.2116C385.23 22.6883 384.976 22.2371 384.62 21.9107C384.251 21.565 383.78 21.3538 383.223 21.325C382.344 21.2818 381.239 21.7138 379.971 22.8467C379.519 23.2548 380.067 24.0612 380.682 23.5188Z" fill="#333333"/>
<path fill-rule="evenodd" clip-rule="evenodd" d="M382.435 23.9988C382.579 23.97 382.704 23.97 382.81 23.994C382.93 24.0228 383.026 24.09 383.083 24.1812C383.151 24.2916 383.189 24.4404 383.189 24.6132C383.189 24.9733 383.04 25.4341 382.733 25.9093C382.627 26.0726 382.454 26.2598 382.238 26.4038C382.156 26.4614 382.065 26.5142 381.969 26.5526C381.455 26.7734 381.623 27.191 382.036 27.047C382.204 26.9894 382.368 26.903 382.512 26.807C382.781 26.6246 383.006 26.3846 383.141 26.1734C383.496 25.6165 383.674 25.0645 383.674 24.6132C383.674 24.3444 383.612 24.1044 383.492 23.9172C383.362 23.7156 383.17 23.5764 382.915 23.5187C382.766 23.4851 382.593 23.4803 382.396 23.5091C381.758 23.6148 381.83 24.1188 382.435 23.9988Z" fill="#333333"/>
<path fill-rule="evenodd" clip-rule="evenodd" d="M381.936 44.4725L381.398 33.5612L379.938 33.6284L380.48 44.5397L381.936 44.4725Z" fill="#333333"/>
<path fill-rule="evenodd" clip-rule="evenodd" d="M370.157 44.4149L370.954 38.5632L369.508 38.3664L368.706 44.2181L370.157 44.4149Z" fill="#333333"/>
<path fill-rule="evenodd" clip-rule="evenodd" d="M381.234 43.8773L381.22 43.9589C381.023 45.2934 380.379 49.6857 378.833 50.5354C377.968 51.0154 376.594 50.1178 374.413 46.1718L373.131 46.8727C375.845 51.7883 377.949 52.6908 379.534 51.8123C381.719 50.6074 382.445 45.663 382.666 44.1653L382.68 44.0837L381.234 43.8773Z" fill="#333333"/>
<path fill-rule="evenodd" clip-rule="evenodd" d="M366.435 44.0453C366.238 44.7557 365.805 46.9639 365.969 48.6873C366.084 49.921 366.512 50.9626 367.501 51.3131C368.25 51.5771 369.437 51.4859 370.907 50.4874C371.896 49.8106 373.063 48.7017 374.356 46.9591L373.184 46.0903C371.997 47.684 370.955 48.6873 370.08 49.2825C369.067 49.969 368.37 50.0746 367.981 49.9402C367.65 49.8202 367.482 49.2585 367.419 48.5529C367.275 47.0359 367.664 45.0726 367.837 44.4389L366.435 44.0453Z" fill="#333333"/>
<path fill-rule="evenodd" clip-rule="evenodd" d="M371.665 27.3783C369.278 28.324 368.437 27.2151 368.471 26.183C368.509 24.7909 369.816 25.0693 369.551 22.8131C370.685 24.402 368.13 26.1638 369.657 26.9943C369.984 27.1719 370.503 27.3543 371.665 27.3783Z" fill="#333333"/>
<path fill-rule="evenodd" clip-rule="evenodd" d="M370.388 30.7338C373.179 32.9852 374.192 28.9912 374.682 28.3768C374.543 33.3356 370.738 32.99 370.388 30.7338Z" fill="#333333"/>
<path fill-rule="evenodd" clip-rule="evenodd" d="M372.568 21.9922C374.053 18.4831 377.991 20.4849 378.006 22.3619C377.819 22.1555 376.992 21.661 376.522 21.6034C376.358 23.6916 373.861 24.1284 373.188 21.901C372.924 21.8866 372.765 21.8722 372.568 21.9922Z" fill="#333333"/>
<path fill-rule="evenodd" clip-rule="evenodd" d="M364.076 21.8434C365.426 18.2815 369.442 20.1345 369.528 22.0115C369.331 21.8146 368.491 21.349 368.015 21.3106C367.933 23.4036 365.45 23.9316 364.696 21.733C364.427 21.7234 364.268 21.7186 364.076 21.8434Z" fill="#333333"/>
<path fill-rule="evenodd" clip-rule="evenodd" d="M314.946 41.8418C314.158 38.3424 314.36 37.3295 314.658 35.851L314.701 35.6445C314.792 35.1837 314.931 34.6701 315.061 34.1804C315.325 33.1819 315.565 32.2795 315.45 31.6218C315.306 30.7913 314.826 30.3641 313.774 30.5465C312.069 30.8393 311.252 32.4187 310.565 33.7388C310.2 34.4444 309.893 35.0349 309.801 35.0205C309.705 34.9869 309.609 34.9437 309.513 34.8909C309.407 34.8333 309.302 34.7565 309.186 34.6749C308.985 34.526 308.653 34.2332 308.245 33.878C305.934 31.8426 301.395 27.8439 298.239 30.5129C297.365 31.2522 296.904 32.6923 297.389 34.6845C297.745 36.1342 298.609 37.9247 300.209 39.9841C300.271 40.0609 300.54 40.3585 301.112 40.7858C301.419 41.0114 301.827 41.2898 302.37 41.6114C302.927 41.9427 303.59 42.1875 304.388 42.4851C305.584 42.9315 307.111 43.498 308.898 44.5925L309.662 43.3492C307.75 42.1779 306.155 41.5826 304.897 41.117C304.157 40.8434 303.547 40.6129 303.115 40.3585C302.63 40.0705 302.26 39.8209 301.981 39.6145C301.558 39.3024 301.4 39.1392 301.366 39.096C299.901 37.2047 299.118 35.6109 298.806 34.3484C298.465 32.9611 298.696 32.0442 299.181 31.6314C301.371 29.7785 305.286 33.2251 307.275 34.9773C307.702 35.3517 308.048 35.6589 308.312 35.8558C308.466 35.9662 308.624 36.0718 308.788 36.1678C308.965 36.2686 309.148 36.3502 309.335 36.4126C310.603 36.8254 311.17 35.7309 311.852 34.4156C312.386 33.3884 313.024 32.1643 314.009 31.9914C314.019 31.9914 313.995 31.8042 314.004 31.8762C314.062 32.2219 313.86 32.9803 313.639 33.8204C313.51 34.31 313.375 34.8237 313.265 35.3757L313.221 35.5821C312.885 37.2479 312.659 38.3856 313.51 42.1731L314.946 41.8418Z" fill="#333333"/>
<path fill-rule="evenodd" clip-rule="evenodd" d="M311.132 42.1827C310.44 42.4563 309.777 42.7635 309.253 43.09C307.524 42.0771 306.059 41.5346 304.897 41.1026C304.157 40.829 303.547 40.5985 303.115 40.3441C302.629 40.0561 302.26 39.8065 301.981 39.6001C301.558 39.288 301.4 39.1248 301.366 39.0816C301.232 38.9088 301.107 38.7408 300.982 38.5728C299.762 36.9022 299.084 35.4813 298.806 34.3292C298.465 32.9419 298.695 32.025 299.181 31.6122C299.401 31.425 299.642 31.2906 299.891 31.2042C302.139 30.4361 305.483 33.3787 307.274 34.9581C307.702 35.3325 308.048 35.6397 308.312 35.8366C308.466 35.947 308.624 36.0526 308.787 36.1486C308.965 36.2494 309.148 36.331 309.335 36.3934C310.603 36.8062 311.17 35.7117 311.852 34.3964C312.385 33.3691 313.024 32.145 314.014 31.9722C314.018 32.3515 313.841 33.0427 313.639 33.8012C313.509 34.2908 313.375 34.8045 313.264 35.3565L313.221 35.5629C312.909 37.1231 312.688 38.2175 313.356 41.453C312.673 41.6354 311.881 41.8899 311.132 42.1827Z" fill="#FEFEFE"/>
<path fill-rule="evenodd" clip-rule="evenodd" d="M373.587 86.6871C372.424 86.4759 371.305 86.0631 369.778 85.2998C368.706 84.7622 367.837 84.2005 367.14 83.6341C366.545 83.1493 366.074 82.6596 365.714 82.1748C365.877 83.7349 366.309 85.4534 366.886 87.1768C367.712 89.6442 368.826 92.1212 369.874 94.195C370.378 92.8125 371.05 91.3483 371.805 89.889C372.367 88.8041 372.972 87.724 373.587 86.6871Z" fill="#FF6F3D"/>
<path fill-rule="evenodd" clip-rule="evenodd" d="M365.324 81.1751L365.941 82.0057C366.286 82.4691 366.739 82.9421 367.319 83.4142M365.324 81.1751L365.432 82.2043L365.324 81.1751ZM367.155 87.0868C366.697 85.7197 366.334 84.362 366.124 83.0901L367.155 87.0868ZM366.124 83.0901C366.372 83.3462 366.651 83.6012 366.962 83.8539L366.962 83.854C367.676 84.4353 368.564 85.0077 369.65 85.5532L369.651 85.5534C371.022 86.2383 372.08 86.6502 373.14 86.8862C372.593 87.8212 372.056 88.7877 371.553 89.7586L371.553 89.7589C370.904 91.0136 370.314 92.2752 369.838 93.4887C368.882 91.5491 367.9 89.3124 367.155 87.0869M365.432 82.2043C365.598 83.7921 366.037 85.532 366.617 87.2667L365.432 82.2043ZM367.319 83.4143C367.998 83.9658 368.849 84.5166 369.904 85.0464C371.419 85.803 372.511 86.2036 373.637 86.4083L374.038 86.4811L373.831 86.8317C373.218 87.8646 372.616 88.9399 372.056 90.0193C371.306 91.4717 370.639 92.9244 370.14 94.2921L369.916 94.907L369.621 94.3227C368.57 92.2414 367.449 89.7512 366.617 87.2668L366.617 87.2667" fill="#FF6F3D"/>
<path fill-rule="evenodd" clip-rule="evenodd" d="M365.642 80.8018C365.627 82.6884 366.137 84.9254 366.886 87.1768C367.712 89.6442 368.827 92.1212 369.874 94.195C370.378 92.8124 371.051 91.3483 371.805 89.889C373.13 87.3304 374.706 84.7862 376.085 82.7508L377.213 83.5093C375.854 85.5158 374.302 88.0168 373.01 90.513C372.002 92.4668 371.147 94.4206 370.671 96.1295L370.22 97.7568L369.417 96.2687C368.159 93.9261 366.646 90.7675 365.594 87.6136C364.801 85.2374 364.263 82.8564 364.278 80.8066L365.642 80.8018Z" fill="#333333"/>
<path fill-rule="evenodd" clip-rule="evenodd" d="M358.831 61.5715C356.539 64.7637 352.658 68.4072 348.527 70.9418C344.934 73.1452 341.178 74.4941 338.209 73.9229C337.883 73.8605 336.499 73.4093 334.318 69.953C332.046 66.3479 329.102 59.6465 325.999 47.2087C326.465 47.0071 327.089 46.8199 327.742 46.671C328.674 46.455 329.654 46.311 330.38 46.2582C330.841 47.3527 331.335 48.6056 331.849 49.9065C333.934 55.2013 336.365 61.3795 340.352 65.5798L340.784 66.0358L341.298 65.6758C342.643 64.7397 346.231 60.501 349.565 56.5551C352.298 53.3244 354.858 50.2953 355.732 49.5993C356.981 48.6008 358.528 47.5639 360.675 46.6854C362.745 45.8358 365.378 45.1349 368.846 44.7557L369.038 45.0245C370.176 46.5174 372.088 47.2231 374.231 47.2759C376.277 47.3239 378.558 46.7719 380.552 45.7302C381.109 45.4421 381.642 45.1157 382.142 44.7557C384.409 45.1925 387.599 46.599 390.658 48.3848C393.747 50.1849 396.672 52.3547 398.368 54.2989C399.021 56.075 399.795 58.0672 400.616 60.1938C404.833 71.0763 410.458 85.5879 408.412 93.1581C408.398 93.2061 408.133 93.5709 406.678 93.7677C405.737 93.8925 404.387 93.8781 402.461 93.5421C400.39 93.1821 397.623 92.318 394.05 90.9403C390.433 89.5482 386.009 87.6376 380.662 85.199L380.057 86.5239C385.442 88.9817 389.895 90.9019 393.526 92.3036C397.201 93.7197 400.059 94.6078 402.22 94.9822C404.305 95.3423 405.804 95.3567 406.88 95.2126C409.195 94.9006 409.786 93.7053 409.829 93.5421C412 85.5159 406.275 70.745 401.98 59.6705C401.14 57.5007 400.352 55.475 399.694 53.6748L399.646 53.55L399.559 53.4492C397.772 51.3562 394.66 49.028 391.393 47.1223C388.065 45.1781 384.539 43.6612 382.075 43.2628L381.767 43.2148L381.517 43.4068C381.003 43.7956 380.456 44.146 379.879 44.4437C378.097 45.3701 376.075 45.8694 374.264 45.8214C372.549 45.7782 371.051 45.2501 370.2 44.1412C370.08 43.9828 369.975 43.8196 369.883 43.6468L369.653 43.21L369.163 43.258C365.31 43.6372 362.4 44.4005 360.123 45.3365C357.827 46.2774 356.165 47.3911 354.824 48.4616C353.821 49.2633 351.222 52.3355 348.45 55.6142C345.549 59.0465 342.446 62.714 340.952 64.0725C337.431 60.0882 335.164 54.3325 333.214 49.3737C332.647 47.9287 332.104 46.551 331.528 45.2213L331.335 44.7797H330.855C330.034 44.7845 328.674 44.9573 327.425 45.2453C326.378 45.4901 325.379 45.8214 324.764 46.215L324.327 46.4982L324.452 47.0023C327.651 59.9777 330.725 66.9671 333.094 70.7306C335.591 74.6958 337.489 75.2718 337.945 75.3582C341.307 76.0063 345.419 74.5613 349.296 72.1851C353.624 69.5305 357.702 65.6902 360.089 62.3251C360.901 61.1826 359.695 60.3714 358.831 61.5715Z" fill="#333333"/>
<path fill-rule="evenodd" clip-rule="evenodd" d="M398.363 54.2941C399.017 56.0702 399.79 58.0624 400.611 60.189C404.829 71.0715 410.454 85.583 408.407 93.1533C408.393 93.2013 408.129 93.5661 406.673 93.7629C405.732 93.8877 404.382 93.8733 402.456 93.5373C400.386 93.1773 397.619 92.3132 394.045 90.9355C390.596 89.6058 386.412 87.8056 381.393 85.5254C381.974 85.0934 382.497 84.575 382.959 83.9989C383.304 83.5669 383.612 83.106 383.886 82.6212C386.018 83.2741 389.16 83.9989 392.224 84.5606C394.977 85.0694 397.676 85.4486 399.54 85.535C400.693 85.5879 400.852 84.1333 399.555 84.0709C399.401 84.0613 399.247 84.0565 399.084 84.0421C398.503 83.3221 397.047 80.8835 395.606 78.2624C394.237 75.7662 392.897 73.1308 392.359 71.6667C392.407 69.3769 392.522 67.0583 392.7 64.7061C392.786 63.578 391.336 63.3428 391.245 64.5717C391.004 67.7304 390.88 70.8602 390.875 73.9757C390.87 76.9855 390.98 79.9522 391.197 82.8852C388.713 82.3956 386.292 81.8243 384.534 81.3011C384.683 80.9459 384.813 80.5858 384.928 80.2306C385.346 78.9057 385.543 77.5616 385.504 76.4335C385.461 75.1134 378.506 79.9762 377.819 79.4289C377.656 79.2993 377.492 79.2033 377.334 79.1313L377.535 78.1424C377.564 78.0224 377.579 77.9072 377.579 77.7968C377.579 77.4368 377.444 77.1007 377.223 76.8319C377.012 76.5679 376.709 76.3711 376.373 76.2895C376.253 76.2607 376.133 76.2463 376.013 76.2463L377.118 70.3274C376.863 66.1174 376.546 62.3731 376.287 59.2433C376.066 56.5743 375.878 54.3373 375.797 52.7435C375.835 52.6427 375.873 52.5467 375.912 52.4411C376.061 52.0427 376.205 51.6251 376.339 51.1978C377.583 52.2395 378.645 52.3115 379.538 51.8171C381.46 50.7562 382.252 46.8007 382.565 44.8469C384.793 45.3653 387.781 46.7094 390.654 48.3848C393.742 50.1801 396.668 52.3499 398.363 54.2941ZM370.642 53.262C370.546 52.95 370.455 52.6139 370.369 52.2587C370.268 51.8363 370.172 51.409 370.08 50.9722C368.99 51.5098 368.101 51.529 367.496 51.313C366.507 50.9626 366.084 49.9209 365.964 48.6872C365.853 47.5159 366.017 46.1286 366.194 45.1301C363.985 45.5238 362.179 46.0662 360.67 46.6806C358.523 47.5591 356.977 48.596 355.728 49.5945C354.853 50.2905 352.293 53.3196 349.56 56.5503C346.226 60.4914 342.638 64.7349 341.293 65.671L340.779 66.031L340.347 65.575C336.365 61.3747 333.929 55.1965 331.845 49.9017C331.331 48.6008 330.841 47.3479 330.375 46.2534C329.65 46.3014 328.674 46.4502 327.738 46.6662C327.085 46.8199 326.46 47.0023 325.994 47.2039C329.102 59.6465 332.042 66.3431 334.314 69.9482C336.49 73.4044 337.873 73.8557 338.205 73.9181C341.173 74.4893 344.925 73.1404 348.522 70.937C352.653 68.4024 356.535 64.7637 358.826 61.5667C359.691 60.3618 360.896 61.173 360.08 62.3203C359.244 63.4916 358.206 64.7253 357.025 65.9446L356.977 66.8567L356.929 67.9752C356.78 72.406 356.813 81.3683 357.279 89.8362C357.596 95.5967 358.105 101.122 358.884 104.804C363.985 107.684 369.749 108.956 375.451 109.201C382.627 109.508 389.722 108.198 395.328 106.431C394.665 104.012 394.079 101.621 393.565 99.245C393.027 96.7536 392.57 94.2622 392.196 91.7756C388.982 90.4987 385.183 88.8473 380.725 86.8263C370.71 65.743 370.835 78.7185 370.494 78.4161C370.157 78.1136 367.684 78.6657 367.631 78.1904L362.203 72.1227L362.188 71.9307C362.188 71.5419 362.332 71.1819 362.573 70.9034C362.818 70.625 363.159 70.4282 363.548 70.385C363.62 70.3754 363.687 70.3706 363.735 70.3754L367.4 70.361C367.635 67.9032 368.51 58.7104 370.642 53.262Z" fill="#EFEFEF"/>
<path fill-rule="evenodd" clip-rule="evenodd" d="M399.676 53.5166L399.771 53.7763C400.357 55.3694 401.041 57.1393 401.776 59.04C401.853 59.2409 401.931 59.4432 402.01 59.6469M402.011 59.6485L402.025 59.6864C404.126 65.1057 406.606 71.505 408.302 77.5052C409.153 80.5153 409.817 83.462 410.135 86.1639C410.452 88.8501 410.438 91.3912 409.855 93.5447L409.85 93.5647L409.844 93.5845C409.765 93.8477 409.632 94.0289 409.58 94.0969C409.502 94.1987 409.417 94.2867 409.332 94.3623C409.161 94.514 408.961 94.642 408.738 94.7505C408.298 94.965 407.7 95.1377 406.874 95.2494L406.87 95.2499C405.736 95.4003 404.227 95.3688 402.199 95.0151C400.046 94.6407 397.272 93.7749 393.819 92.4553C394.161 94.6103 394.565 96.7689 395.031 98.9278C395.539 101.277 396.118 103.641 396.774 106.035L397.156 107.428L395.778 107.862C390.045 109.669 382.774 111.016 375.387 110.7C369.514 110.447 363.504 109.135 358.146 106.11L357.556 105.777L357.416 105.114C356.612 101.311 356.099 95.687 355.781 89.9186C355.313 81.4101 355.279 72.4033 355.429 67.9248L355.43 67.9108L355.446 67.5435C353.582 69.2599 351.477 70.8839 349.307 72.2156L349.306 72.2162C345.64 74.4611 341.471 76.0728 337.924 75.3916C336.992 75.215 335.311 74.3472 333.044 70.7473C330.651 66.9497 327.664 60.0795 324.539 47.5674L324.23 46.3326L325.398 45.8272C325.985 45.5735 326.709 45.3672 327.394 45.2061L327.401 45.2046C328.4 44.9742 329.455 44.811 330.276 44.7567L331.338 44.6864L331.755 45.6659C332.175 46.6526 332.614 47.7636 333.061 48.8987C333.121 49.049 333.18 49.1996 333.24 49.3505L333.241 49.3522C335.258 54.4771 337.485 60.0751 340.947 64.0082C341.131 63.8373 341.352 63.6213 341.611 63.3568C342.164 62.7906 342.825 62.0695 343.559 61.2421C345.022 59.5921 346.735 57.5674 348.401 55.5979L348.415 55.5815L348.487 55.4957C349.826 53.9136 351.13 52.3716 352.212 51.1347C353.267 49.9278 354.224 48.8748 354.792 48.4223C356.127 47.3551 357.796 46.2361 360.102 45.2923L360.105 45.2915C361.717 44.6347 363.625 44.0642 365.931 43.6534L368.048 43.2763L367.671 45.393C367.502 46.3447 367.366 47.5741 367.457 48.544C367.506 49.0502 367.61 49.4045 367.728 49.6257C367.831 49.8189 367.919 49.8716 367.997 49.8991L368 49.9003C368.135 49.9484 368.597 50.0312 369.417 49.6268L371.153 48.7709L371.549 50.6654C371.637 51.0863 371.729 51.4984 371.827 51.9067C371.907 52.237 371.991 52.5427 372.076 52.8206L372.23 53.3211L372.039 53.8087C369.999 59.0213 369.135 67.9811 368.893 70.504L368.764 71.8556L363.993 71.8744L368.48 76.89C368.585 76.8865 368.713 76.8801 368.864 76.8708C368.918 76.8676 368.975 76.8639 369.034 76.8601C369.12 76.8546 369.211 76.8487 369.304 76.8432C369.323 76.7503 369.343 76.6551 369.365 76.5591C369.472 76.0898 369.634 75.5142 369.895 74.9861C370.143 74.4845 370.585 73.8133 371.364 73.4613C372.236 73.0675 373.14 73.2381 373.912 73.6727C374.222 73.8471 374.531 74.0733 374.841 74.3475L375.609 70.2339C375.373 66.3743 375.086 62.9116 374.84 59.9496C374.824 59.7533 374.808 59.5591 374.792 59.3672L374.764 59.0331C374.556 56.5202 374.378 54.3752 374.299 52.8203L374.282 52.5046L374.395 52.2092C374.414 52.1582 374.43 52.1186 374.443 52.0837C374.465 52.0285 374.481 51.9854 374.502 51.9282L374.507 51.916C374.647 51.5419 374.782 51.1492 374.909 50.7474L375.582 48.6075L377.302 50.0477C377.783 50.4499 378.117 50.5715 378.311 50.6028C378.48 50.6302 378.63 50.6053 378.812 50.5046L378.813 50.5039C378.995 50.4038 379.239 50.1809 379.512 49.7514C379.779 49.3302 380.023 48.79 380.239 48.1719C380.672 46.9337 380.932 45.5612 381.083 44.6102L381.337 43.0214L382.905 43.3859C385.343 43.9531 388.479 45.3799 391.408 47.0885C394.559 48.9199 397.643 51.1865 399.494 53.3081L399.676 53.5166M390.654 48.3848C388.368 47.0514 386.008 45.9278 384.017 45.2633C383.506 45.0929 383.02 44.9527 382.565 44.8469C382.498 45.2639 382.41 45.7721 382.293 46.3239C381.863 48.3573 381.05 50.9826 379.539 51.8171C378.98 52.1261 378.356 52.2139 377.663 51.9819C377.247 51.8427 376.806 51.5884 376.339 51.1978C376.205 51.625 376.061 52.0427 375.912 52.4411C375.886 52.5116 375.861 52.5777 375.835 52.6439C375.829 52.6591 375.823 52.6742 375.817 52.6895C375.81 52.7074 375.804 52.7254 375.797 52.7435C375.875 54.2739 376.051 56.3975 376.26 58.9271L376.287 59.2433C376.303 59.4359 376.319 59.6309 376.335 59.8281C376.585 62.8358 376.879 66.3766 377.118 70.3274L376.013 76.2463C376.133 76.2463 376.253 76.2607 376.373 76.2895C376.438 76.3051 376.501 76.3251 376.563 76.3489C376.58 76.3556 376.597 76.3626 376.614 76.3699C376.853 76.472 377.064 76.6329 377.223 76.8319C377.441 77.0974 377.575 77.4284 377.579 77.7833C377.579 77.7878 377.579 77.7923 377.579 77.7968C377.579 77.9072 377.564 78.0224 377.535 78.1424L377.334 79.1313C377.492 79.2033 377.656 79.2993 377.819 79.4289C377.918 79.5079 378.148 79.4742 378.468 79.3627C378.488 79.3557 378.509 79.3484 378.53 79.3408C378.628 79.3048 378.735 79.2621 378.848 79.2137C379.524 78.9242 380.443 78.4288 381.381 77.9226C382.309 77.4222 383.256 76.9112 384.008 76.5783C384.009 76.5776 384.011 76.577 384.012 76.5763C384.092 76.5409 384.17 76.5075 384.246 76.4764C384.247 76.4758 384.249 76.4752 384.25 76.4746C384.992 76.1687 385.493 76.0822 385.504 76.4335C385.54 77.4633 385.378 78.6732 385.032 79.8842C384.999 79.9997 384.964 80.1152 384.928 80.2306C384.818 80.5708 384.694 80.9153 384.553 81.2559C384.547 81.2709 384.54 81.286 384.534 81.3011C384.98 81.4337 385.468 81.5695 385.989 81.7062C387.099 81.9973 388.357 82.2928 389.67 82.5723C390.173 82.6793 390.683 82.784 391.197 82.8852C391.195 82.8693 391.194 82.8534 391.193 82.8376C391.156 82.3377 391.123 81.8369 391.092 81.335C390.945 78.9077 390.871 76.4563 390.875 73.9757C390.876 73.3268 390.882 72.6773 390.893 72.027C390.896 71.8967 390.898 71.7664 390.901 71.6361C390.948 69.3554 391.058 67.0651 391.23 64.7595C391.235 64.705 391.239 64.6505 391.243 64.596C391.243 64.5955 391.243 64.595 391.243 64.5944C391.243 64.5869 391.244 64.5793 391.245 64.5717C391.335 63.3524 392.764 63.5745 392.702 64.6799C392.702 64.6808 392.702 64.6816 392.702 64.6825C392.701 64.6903 392.701 64.6982 392.7 64.7061C392.697 64.7446 392.694 64.783 392.691 64.8214C392.519 67.1341 392.406 69.4143 392.359 71.6667C392.372 71.7012 392.385 71.7363 392.398 71.7721C392.96 73.2549 394.269 75.825 395.606 78.2624C397.022 80.8385 398.453 83.2384 399.053 84.0036C399.064 84.0169 399.074 84.0298 399.084 84.0421C399.191 84.0515 399.294 84.0569 399.395 84.0621C399.415 84.0631 399.436 84.0642 399.456 84.0653C399.489 84.067 399.522 84.0689 399.555 84.0709C399.572 84.0718 399.59 84.0729 399.607 84.0743C399.607 84.0742 399.607 84.0743 399.607 84.0743C400.846 84.1734 400.677 85.5871 399.54 85.535C399.522 85.5342 399.503 85.5333 399.484 85.5324C399.477 85.532 399.47 85.5317 399.463 85.5313C399.434 85.5299 399.404 85.5283 399.375 85.5267C399.239 85.5194 399.099 85.5106 398.955 85.5004C398.741 85.4852 398.519 85.467 398.289 85.4458C396.723 85.3017 394.806 85.0231 392.832 84.6709C392.63 84.6349 392.427 84.5981 392.225 84.5606C391.789 84.4807 391.351 84.3975 390.915 84.3117C388.397 83.8159 385.931 83.2325 384.12 82.6921C384.041 82.6684 383.963 82.6447 383.886 82.6212C383.877 82.636 383.869 82.6508 383.86 82.6656C383.593 83.1342 383.294 83.5801 382.959 83.9989C382.842 84.1446 382.721 84.2866 382.597 84.4245C382.307 84.7455 381.995 85.0441 381.664 85.3143C381.587 85.3772 381.508 85.4386 381.429 85.4984C381.417 85.5075 381.405 85.5165 381.393 85.5254C381.552 85.598 381.711 85.6701 381.87 85.7417C382.224 85.9021 382.573 86.06 382.919 86.2155C386.669 87.9025 389.925 89.303 392.734 90.4214C393.013 90.5325 393.287 90.6408 393.558 90.7463C393.722 90.8104 393.884 90.8735 394.045 90.9355C397.619 92.3132 400.386 93.1773 402.456 93.5373C404.382 93.8733 405.732 93.8877 406.673 93.7629C408.129 93.5661 408.393 93.2013 408.407 93.1533C410.453 85.5846 404.831 71.0773 400.614 60.1955L400.611 60.189C400.532 59.9847 400.454 59.7816 400.376 59.5799C399.642 57.6816 398.954 55.8996 398.363 54.2941C396.668 52.3499 393.742 50.1801 390.654 48.3848ZM380.725 86.8263C380.746 86.836 380.767 86.8456 380.789 86.8552C385.219 88.863 388.997 90.5047 392.196 91.7756C392.198 91.7919 392.201 91.8083 392.203 91.8247C392.576 94.295 393.03 96.77 393.565 99.245C394.079 101.621 394.665 104.012 395.328 106.431C389.722 108.198 382.627 109.508 375.451 109.201C369.749 108.956 363.985 107.684 358.884 104.804C358.105 101.122 357.596 95.5967 357.279 89.8362C356.813 81.3683 356.78 72.406 356.929 67.9752L356.977 66.8567L357.025 65.9446C358.17 64.7628 359.18 63.5675 360.002 62.4286C360.005 62.4247 360.008 62.4207 360.01 62.4167C360.01 62.4169 360.011 62.4165 360.01 62.4167C360.034 62.3848 360.057 62.3522 360.08 62.3203C360.875 61.2034 359.753 60.4049 358.895 61.4752C358.895 61.4757 358.895 61.4761 358.894 61.4766C358.881 61.4934 358.867 61.5108 358.854 61.5286C358.845 61.5411 358.835 61.5537 358.826 61.5667C358.044 62.6573 357.078 63.7993 355.979 64.9314C355.839 65.0756 355.697 65.2196 355.553 65.3633C353.512 67.3992 351.065 69.3772 348.522 70.937C344.925 73.1404 341.173 74.4893 338.205 73.9181C337.873 73.8557 336.49 73.4044 334.314 69.9482C332.042 66.3431 329.102 59.6465 325.994 47.2039C326.46 47.0023 327.085 46.8199 327.738 46.6662C328.675 46.4502 329.65 46.3014 330.375 46.2534C330.787 47.2204 331.217 48.3111 331.666 49.4492C331.725 49.5993 331.785 49.7502 331.845 49.9017C333.93 55.1965 336.365 61.3747 340.347 65.575L340.779 66.031L341.293 65.671C342.635 64.737 346.211 60.5099 349.538 56.5761L349.627 56.471C352.335 53.2702 354.861 50.2848 355.728 49.5945C356.977 48.596 358.523 47.5591 360.67 46.6806C361.805 46.2187 363.107 45.7974 364.623 45.4494C365.123 45.3346 365.646 45.2278 366.194 45.1301C366.113 45.5891 366.034 46.1303 365.984 46.6949C365.924 47.3584 365.904 48.0544 365.964 48.6872C366.084 49.9209 366.507 50.9626 367.496 51.313C367.807 51.424 368.193 51.4729 368.642 51.4213C369.068 51.3725 369.55 51.2337 370.08 50.9722C370.172 51.409 370.268 51.8363 370.369 52.2587C370.386 52.3289 370.403 52.3984 370.421 52.467C370.491 52.7458 370.565 53.0116 370.642 53.262C368.518 58.6901 367.642 67.8347 367.403 70.3332L367.4 70.361L363.735 70.3754C363.687 70.3706 363.62 70.3754 363.548 70.385C363.159 70.4282 362.818 70.625 362.573 70.9034C362.332 71.1819 362.188 71.5419 362.188 71.9307L362.203 72.1227L367.631 78.1904C367.66 78.4512 368.417 78.4027 369.151 78.3557C369.755 78.3171 370.342 78.2795 370.494 78.416C370.512 78.4322 370.529 78.4104 370.546 78.3578C370.546 78.3574 370.546 78.357 370.546 78.3565C370.576 78.2659 370.606 78.0857 370.645 77.8521C370.688 77.5996 370.741 77.2847 370.814 76.953C370.816 76.9441 370.818 76.9353 370.82 76.9265C371.18 75.3231 372.028 73.3568 374.507 76.1359C374.884 76.5575 375.297 77.0884 375.753 77.7463C375.837 77.8675 375.922 77.993 376.009 78.1229C376.185 78.3875 376.368 78.6705 376.556 78.9727C376.714 79.2254 376.876 79.4916 377.043 79.7718C377.113 79.8903 377.184 80.0113 377.256 80.1349C377.257 80.1354 377.257 80.1359 377.257 80.1364C377.41 80.3978 377.566 80.6707 377.725 80.9553C378.35 82.0686 379.03 83.3626 379.772 84.8609C380.079 85.4805 380.397 86.1351 380.725 86.8263ZM380.981 83.9233C380.377 82.7109 379.81 81.6268 379.277 80.6598C379.5 80.5694 379.728 80.4656 379.951 80.3594C380.594 80.0516 381.366 79.6352 382.109 79.2343C382.279 79.1426 382.447 79.0517 382.612 78.963C383.059 78.7231 383.48 78.5011 383.859 78.3105C383.775 78.7844 383.656 79.2776 383.499 79.7736C383.394 80.0963 383.279 80.4141 383.151 80.7212L382.905 81.3066L382.58 81.8836C382.342 82.3041 382.079 82.6973 381.788 83.0615C381.536 83.376 381.266 83.6647 380.981 83.9233ZM368.148 76.8856C368.148 76.8855 368.153 76.886 368.161 76.8873C368.152 76.8864 368.148 76.8857 368.148 76.8856ZM392.718 83.1262C394.268 83.409 395.776 83.6452 397.103 83.8085C396.878 83.455 396.634 83.0576 396.381 82.6371C395.753 81.5905 395.019 80.3087 394.292 78.9851L394.291 78.9837C393.629 77.7768 392.96 76.5134 392.381 75.3515C392.406 77.8533 392.512 80.3258 392.692 82.775L392.718 83.1262Z" fill="#333333"/>
<path fill-rule="evenodd" clip-rule="evenodd" d="M391.245 64.5717C391.005 67.7304 390.88 70.8602 390.875 73.9757C390.87 77.3216 391.005 80.6098 391.274 83.8597L392.734 83.7397C392.465 80.4898 392.331 77.24 392.335 73.9757C392.34 70.9418 392.46 67.86 392.705 64.7109C392.787 63.5828 391.336 63.3428 391.245 64.5717ZM392.148 91.4347L393.594 91.2235C393.978 93.7965 394.444 96.3695 395.001 98.9521C395.558 101.544 396.202 104.137 396.927 106.729L397.115 107.401L396.452 107.617C390.611 109.537 383.06 110.996 375.393 110.67C369.365 110.411 363.269 109.043 357.875 105.918L357.601 105.759L357.529 105.442C356.689 101.674 356.146 95.9135 355.819 89.9178C355.353 81.4163 355.315 72.406 355.469 67.9368L355.517 66.7943L355.579 65.5942L357.039 65.6854L356.977 66.8615L356.929 67.98C356.78 72.4108 356.814 81.3731 357.28 89.841C357.597 95.6015 358.106 101.127 358.884 104.809C363.985 107.689 369.749 108.961 375.451 109.206C382.627 109.513 389.722 108.202 395.328 106.436C394.665 104.017 394.079 101.626 393.565 99.2498C393.013 96.6431 392.537 94.0413 392.148 91.4347Z" fill="#333333"/>
<path fill-rule="evenodd" clip-rule="evenodd" d="M405.362 234.962C404.219 236.253 402.768 237.64 401.279 239.061C398.868 241.365 396.36 243.761 395.107 245.811C394.165 247.352 393.992 248.686 395.328 249.565C396.14 249.665 399.041 248.441 402.403 246.742C406.164 244.841 410.401 242.345 413 240.372C413.019 240.353 413.072 240.314 413.091 240.305C413.144 240.266 413.23 240.209 413.331 240.122C413.869 239.657 414.719 238.394 412.087 235.336L413.197 234.386C416.694 238.452 415.18 240.453 414.277 241.231C414.148 241.341 414.018 241.433 413.932 241.495L413.864 241.543C411.184 243.574 406.875 246.118 403.061 248.043C399.291 249.949 395.904 251.264 394.838 250.952L394.747 250.928L394.665 250.875C392.292 249.43 392.441 247.376 393.863 245.052C395.217 242.839 397.792 240.377 400.275 238.005C401.745 236.599 403.181 235.231 404.272 233.997L405.362 234.962Z" fill="#333333"/>
<path fill-rule="evenodd" clip-rule="evenodd" d="M364.417 234.007C362.942 234.611 361.146 235.231 359.311 235.859C355.622 237.122 351.774 238.442 349.565 240.055C347.605 241.49 346.846 243.132 348.297 245.105L348.354 245.182L348.431 245.244C349.31 245.95 353.667 246.065 358.581 245.763C363.336 245.47 368.697 244.827 371.867 243.987L371.944 243.967C372.679 243.804 375.643 243.127 374.226 237.914C374.173 237.722 373.789 236.877 373.433 236.08C373.14 235.432 372.862 234.813 372.828 234.717L371.44 235.173C371.488 235.322 371.786 235.984 372.103 236.68C372.439 237.429 372.799 238.221 372.818 238.293C373.837 242.047 372.064 242.446 371.627 242.542L371.521 242.566C368.442 243.382 363.183 244.011 358.499 244.299C354.046 244.572 350.189 244.567 349.416 244.14C348.7 243.07 349.224 242.11 350.439 241.222C352.461 239.743 356.203 238.461 359.796 237.228C361.622 236.604 363.413 235.989 364.984 235.341L364.417 234.007Z" fill="#333333"/>
<path fill-rule="evenodd" clip-rule="evenodd" d="M401.279 239.061C398.868 241.365 396.36 243.761 395.107 245.811C394.165 247.352 393.992 248.686 395.328 249.565C396.139 249.665 399.041 248.441 402.403 246.742C406.164 244.841 410.401 242.345 413 240.372C413.019 240.353 413.072 240.314 413.091 240.305C413.144 240.266 413.23 240.209 413.331 240.122C413.624 239.873 414.004 239.393 413.879 238.524C413.787 237.861 413.398 236.968 412.452 235.778C411.467 236.205 410.223 236.387 408.979 236.354C407.529 236.315 406.039 235.989 404.954 235.418C404.051 236.402 402.989 237.429 401.889 238.485C401.683 238.677 401.481 238.869 401.279 239.061Z" fill="#FEFEFE"/>
<path fill-rule="evenodd" clip-rule="evenodd" d="M372.809 238.298C372.833 238.384 372.857 238.471 372.877 238.557C373.746 242.071 372.046 242.455 371.618 242.551L371.512 242.575C368.433 243.391 363.173 244.02 358.49 244.308C354.037 244.582 350.18 244.577 349.407 244.15C348.691 243.079 349.215 242.119 350.43 241.231C351.66 240.329 353.533 239.503 355.618 238.716C356.958 238.212 358.38 237.722 359.787 237.242C361.42 236.68 363.025 236.133 364.47 235.557C365.369 236.147 366.757 236.757 368.352 236.863C369.456 236.935 370.662 236.767 371.868 236.186C371.94 236.344 372.017 236.517 372.094 236.685C372.43 237.434 372.785 238.226 372.809 238.298Z" fill="#FEFEFE"/>
<path fill-rule="evenodd" clip-rule="evenodd" d="M393.55 108.491C396.937 119.565 400.722 139.568 404.036 162.188C408.816 185.484 411.895 211.723 411.852 233.954C410.973 234.438 409.69 234.722 408.412 234.75C407.144 234.779 405.915 234.568 405.132 234.074C404.032 229.888 399.598 211.91 393.642 191.057C388.617 173.459 382.012 154.344 378.544 140.936L377.156 135.872C377.07 148.463 376.224 161.688 375.677 170.267C375.513 172.849 375.374 175.01 375.288 176.656C375.283 176.767 375.288 177.189 375.297 177.895C375.379 184.006 375.744 212.021 371.406 234.779C370.388 235.312 369.365 235.466 368.433 235.408C367.165 235.327 366.055 234.851 365.33 234.381C365.248 227.8 365.027 218.343 364.408 208.262C363.774 197.955 362.712 186.963 360.944 177.645C360.8 176.887 358.139 161.631 357.985 140.994C357.909 130.683 358.461 119.027 360.267 107.166C365.037 109.407 370.239 110.439 375.388 110.665C381.844 110.944 388.214 109.955 393.55 108.491Z" fill="#404040"/>
<path fill-rule="evenodd" clip-rule="evenodd" d="M360.182 107.006L360.313 107.068C365.067 109.302 370.254 110.332 375.393 110.557C381.835 110.835 388.193 109.848 393.521 108.386L393.623 108.359L393.653 108.459C397.042 119.541 400.828 139.551 404.142 162.169C408.923 185.47 412.002 211.715 411.959 233.954L411.959 234.017L411.903 234.048C411.004 234.544 409.703 234.829 408.414 234.858C407.138 234.887 405.883 234.676 405.073 234.165L405.038 234.142L405.027 234.101C404.822 233.323 404.503 232.069 404.08 230.409C402.226 223.135 398.387 208.064 393.537 191.087C391.273 183.156 388.687 174.916 386.212 167.029C385.942 166.167 385.673 165.31 385.406 164.458C382.693 155.804 380.174 147.671 378.44 140.964C378.439 140.964 378.44 140.964 378.44 140.964L377.257 136.652C377.143 148.989 376.323 161.828 375.787 170.23L375.784 170.274C375.784 170.274 375.784 170.274 375.784 170.274M375.395 176.661C375.39 176.768 375.395 177.186 375.405 177.893C375.486 184.003 375.852 212.029 371.512 234.8L371.502 234.851L371.456 234.875C370.418 235.418 369.375 235.575 368.426 235.516C367.136 235.433 366.009 234.95 365.271 234.471L365.222 234.44L365.222 234.382C365.14 227.802 364.919 218.347 364.299 208.269C363.666 197.964 362.604 186.976 360.838 177.665C360.693 176.902 358.031 161.64 357.877 140.995C357.8 130.679 358.353 119.018 360.16 107.149L360.182 107.006M375.395 176.661C375.471 175.212 375.588 173.364 375.727 171.18C375.745 170.884 375.765 170.582 375.784 170.274M360.352 107.325C358.564 119.13 358.017 130.728 358.093 140.993C358.247 161.622 360.907 176.871 361.05 177.625C362.819 186.949 363.881 197.947 364.515 208.255C365.133 218.309 365.355 227.742 365.437 234.321C366.15 234.773 367.221 235.222 368.44 235.3C369.34 235.356 370.326 235.211 371.31 234.708C375.635 211.97 375.27 184.003 375.189 177.896C375.179 177.193 375.174 176.766 375.179 176.651C375.255 175.201 375.373 173.351 375.511 171.166C375.53 170.87 375.549 170.568 375.568 170.26L375.571 170.218C376.119 161.638 376.961 148.439 377.048 135.871L377.053 135.089L378.648 140.909C380.382 147.61 382.899 155.738 385.612 164.393C385.879 165.245 386.148 166.103 386.419 166.965C388.894 174.852 391.48 183.094 393.745 191.028C398.596 208.009 402.437 223.085 404.29 230.357C404.705 231.987 405.02 233.225 405.225 234.005C405.983 234.467 407.169 234.671 408.409 234.643C409.649 234.615 410.886 234.345 411.743 233.889C411.78 211.681 408.704 185.478 403.93 162.209L403.929 162.203C400.625 139.652 396.853 119.709 393.477 108.622C388.153 110.074 381.812 111.05 375.383 110.773C370.27 110.549 365.101 109.531 360.352 107.325Z" fill="#404040"/>
<path fill-rule="evenodd" clip-rule="evenodd" d="M377.161 135.728C377.079 148.363 376.229 161.655 375.682 170.267C375.518 172.849 375.379 175.01 375.292 176.656C375.288 176.767 375.292 177.189 375.302 177.895C375.384 184.006 375.749 212.021 371.411 234.779C370.393 235.312 369.37 235.466 368.438 235.408C367.17 235.327 366.06 234.851 365.335 234.381C365.253 227.8 365.032 218.343 364.413 208.262C363.779 197.955 362.717 186.963 360.949 177.645C360.805 176.887 358.144 161.631 357.99 140.994C357.913 130.395 358.495 118.384 360.426 106.186L358.985 105.961C357.044 118.235 356.458 130.332 356.535 140.994C356.689 161.77 359.369 177.141 359.513 177.904C361.271 187.155 362.323 198.085 362.957 208.339C363.591 218.626 363.807 228.212 363.884 234.77L363.889 235.13L364.177 235.346C365.047 235.994 366.569 236.743 368.351 236.858C369.634 236.939 371.046 236.699 372.444 235.874L372.727 235.706L372.79 235.384C377.219 212.433 376.844 184.039 376.767 177.871C376.758 177.218 376.753 176.819 376.758 176.723C376.839 175.168 376.978 172.974 377.147 170.353C377.627 162.855 378.333 151.819 378.559 140.73L377.161 135.728Z" fill="#333333"/>
<path fill-rule="evenodd" clip-rule="evenodd" d="M368.755 121.759C369.687 122.594 370.738 123.338 371.906 123.885C373.111 124.447 374.447 124.807 375.897 124.85L376.488 124.87L376.556 125.45C378.448 141.676 383.573 157.757 389.626 176.733C394.794 192.944 400.635 211.267 405.722 233.603C406.625 234.011 407.605 234.112 408.561 234.045C409.474 233.978 410.372 233.752 411.16 233.478C410.992 226.859 410.612 216.845 409.757 206.207C409.152 198.656 408.311 190.813 407.139 183.694C406.976 182.709 406.817 181.773 406.654 180.881C406.491 179.978 406.318 179.09 406.145 178.221C406.006 177.539 405.823 176.68 405.641 175.845C405.16 173.622 404.718 171.587 404.469 169.052C404.3 167.339 404.113 165.572 403.911 163.772C403.705 161.924 403.489 160.152 403.272 158.448C402.072 149.102 400.534 140.029 398.8 131.691C396.999 123.041 394.982 115.197 392.902 108.687L394.194 108.279C396.288 114.846 398.32 122.733 400.126 131.417C401.87 139.77 403.412 148.881 404.617 158.28C404.853 160.114 405.069 161.9 405.266 163.623C405.458 165.337 405.645 167.103 405.823 168.923C406.058 171.342 406.496 173.358 406.971 175.552C407.12 176.243 407.274 176.959 407.475 177.952C407.653 178.831 407.826 179.728 407.989 180.636C408.162 181.601 408.33 182.541 408.479 183.468C409.656 190.649 410.506 198.527 411.112 206.097C411.986 216.975 413.023 227.718 413.187 234.376L413.196 234.856L412.745 235.029C410.564 235.855 405.977 236.368 404.329 234.299L404.262 233.992C399.165 211.55 393.512 193.395 388.329 177.136C382.324 158.299 377.228 142.309 375.268 126.166C373.842 126.05 372.53 125.666 371.325 125.105C369.999 124.485 368.812 123.645 367.78 122.705C366.862 121.869 367.837 120.933 368.755 121.759Z" fill="#333333"/>
<path fill-rule="evenodd" clip-rule="evenodd" d="M374.259 45.8166C376.065 45.8598 378.092 45.3654 379.874 44.4389C380.071 44.3381 380.263 44.2277 380.456 44.1125L380.033 35.6158C379.428 36.331 378.832 36.9263 378.255 37.4207C374.514 40.637 371.372 39.7489 371.161 39.6673C371.045 39.6241 370.93 39.5809 370.82 39.5329L370.19 44.1269C370.19 44.1269 370.19 44.1317 370.195 44.1317C371.045 45.2454 372.544 45.7782 374.259 45.8166Z" fill="#FEFEFE"/>
<path fill-rule="evenodd" clip-rule="evenodd" d="M372.568 21.9923C374.052 18.4832 377.991 20.485 378.005 22.3619C377.818 22.1555 376.992 21.6611 376.521 21.6034C376.358 23.6916 373.86 24.1285 373.188 21.9011C372.919 21.8867 372.765 21.8723 372.568 21.9923ZM371.67 38.2992C371.823 38.3568 374.182 39.0001 377.309 36.3119C378.942 34.9101 380.743 32.6156 382.497 28.9048C382.468 28.9144 382.434 28.9241 382.405 28.9337C381.944 29.0585 381.565 28.2232 382.329 27.9352C382.53 27.8584 382.732 27.7528 382.91 27.6279C383.289 27.3687 383.592 27.0471 383.774 26.7591C384.495 25.631 384.682 24.3781 384.433 23.466C384.336 23.1156 384.173 22.8179 383.957 22.6163C383.755 22.4243 383.491 22.3091 383.174 22.2947C382.54 22.2659 381.699 22.6115 380.681 23.5188C380.114 24.0228 379.61 23.3748 379.884 22.9524L379.567 22.5059C379.629 20.5426 379.567 18.9296 379.408 17.6095C379.24 16.2318 378.966 15.1949 378.606 14.4365C378.375 13.9468 378.02 13.4668 377.588 13.0779C377.194 12.7179 376.742 12.4395 376.271 12.2955C375.714 12.1227 375.152 12.1659 374.6 12.3339C373.99 12.5211 373.375 12.8619 372.765 13.2652C372.457 13.4668 372.155 13.6828 371.862 13.894C370.334 14.9885 369.119 15.8574 366.703 15.2141C366.376 15.1277 366.069 14.9645 365.805 14.7389C365.776 14.7149 365.747 14.6909 365.723 14.6669C365.286 15.3293 364.911 16.0926 364.594 16.9327C363.523 19.8129 363.211 23.5428 363.806 27.1287C364.397 30.6858 365.877 34.0797 368.384 36.3215C369.33 37.1567 370.421 37.8384 371.67 38.2992ZM382.434 23.9988C381.829 24.1189 381.762 23.6148 382.396 23.5092C382.588 23.4804 382.761 23.4804 382.915 23.5188C383.169 23.5764 383.361 23.7156 383.491 23.9172C383.611 24.1045 383.674 24.3445 383.674 24.6133C383.674 25.0597 383.501 25.6166 383.14 26.1734C383.006 26.3846 382.78 26.6247 382.511 26.8071C382.367 26.9079 382.209 26.9895 382.036 27.0471C381.623 27.1911 381.454 26.7735 381.968 26.5527C382.06 26.5143 382.151 26.4614 382.237 26.4038C382.453 26.2598 382.626 26.0726 382.732 25.9094C383.04 25.4294 383.188 24.9733 383.188 24.6133C383.188 24.4357 383.155 24.2869 383.083 24.1813C383.02 24.0853 382.929 24.0228 382.809 23.994C382.703 23.97 382.578 23.97 382.434 23.9988ZM364.075 21.8435C365.425 18.2816 369.441 20.1345 369.527 22.0115C369.33 21.8147 368.49 21.349 368.014 21.3106C367.933 23.4036 365.449 23.9316 364.695 21.7331C364.426 21.7235 364.268 21.7187 364.075 21.8435ZM370.387 30.7338C373.178 32.9852 374.192 28.9913 374.681 28.3768C374.542 33.3356 370.738 32.99 370.387 30.7338ZM369.657 26.9943C369.984 27.1719 370.507 27.3543 371.665 27.3783C369.278 28.324 368.437 27.2151 368.471 26.183C368.509 24.7909 369.816 25.0693 369.551 22.8131C370.685 24.3973 368.125 26.1638 369.657 26.9943Z" fill="#FEFEFE"/>
<path fill-rule="evenodd" clip-rule="evenodd" d="M377.028 87.7367L284.83 71.977C281.525 71.4106 279.306 68.2759 279.868 64.9733L284.898 37.4465C285.465 34.1438 288.602 31.9261 291.907 32.4877L384.105 48.2474C387.409 48.8139 389.629 51.9485 389.067 55.2512L384.041 82.7779C383.47 86.0806 380.333 88.3032 377.028 87.7367Z" fill="#077838"/>
<path fill-rule="evenodd" clip-rule="evenodd" d="M357.319 64.2573L369.318 60.9834C370.317 60.7002 370.461 59.985 369.601 59.4185L359.173 52.5828C358.659 52.2419 357.886 52.0019 357.132 51.9251C356.632 51.8771 356.142 51.9011 355.743 52.0115L354.677 52.3043L343.744 55.2854C342.745 55.5686 342.601 56.2839 343.456 56.8503L348.135 59.9178L349.364 60.7242L353.885 63.6861C354.605 64.2573 356.176 64.5405 357.319 64.2573Z" fill="white"/>
<path fill-rule="evenodd" clip-rule="evenodd" d="M361.623 64.2094L359.538 64.7662L357.175 65.3951C356.176 65.6783 354.605 65.3951 353.745 64.8238L348.721 61.4827L347.496 60.6667L346.891 60.2634L342.745 61.4011C341.746 61.6843 341.602 62.3996 342.457 62.9661L344.393 64.2334L345.627 65.0398L352.89 69.797C353.212 70.0082 353.611 70.1859 354.058 70.3011C354.706 70.4739 355.441 70.5315 356.152 70.4211C356.258 70.4067 356.358 70.3875 356.459 70.3635L356.757 70.2819L358.237 69.8786L368.458 67.0896C369.458 66.8064 369.602 66.0911 368.747 65.5247L365.173 63.2445L361.623 64.2094Z" fill="white" fill-opacity="0.75"/>
<path fill-rule="evenodd" clip-rule="evenodd" d="M363.89 69.3794L358.198 70.9251L356.728 71.3236L356.032 71.5108C355.667 71.6164 355.225 71.6452 354.768 71.6068C354.149 71.5588 353.505 71.3956 352.991 71.1555C352.852 71.0883 352.722 71.0163 352.602 70.9395L345.887 66.528L343.653 67.1424L341.741 67.6705C341.669 67.6897 341.602 67.7137 341.535 67.7377C341.501 67.7521 341.468 67.7665 341.434 67.7809C340.718 68.1121 340.694 68.7313 341.453 69.2354L341.535 69.2882L348.721 73.9974L350.09 74.895L351.886 76.0711C352.746 76.6424 354.173 76.9256 355.172 76.6424L356.675 76.2344L358.136 75.8359L363.482 74.3766L367.176 73.3685C367.623 73.2437 367.896 73.0277 367.988 72.7829C368.103 72.4756 367.935 72.1156 367.459 71.8036L363.89 69.3794Z" fill="white" fill-opacity="0.5"/>
<g clip-path="url(#clip0_8991_91546)">
<path fill-rule="evenodd" clip-rule="evenodd" d="M314.919 42.3394C322.232 43.6315 327.113 50.6069 325.821 57.9195C324.528 65.2321 317.553 70.1127 310.24 68.8207C302.928 67.5286 298.047 60.5532 299.339 53.2406C300.631 45.928 307.607 41.0474 314.919 42.3394ZM313.552 59.6986C316.857 60.2825 319.601 58.2409 320.234 54.6586C320.871 51.0524 319.104 48.2384 315.845 47.6636C313.95 47.3287 312.434 48.0855 311.775 48.8505C311.769 48.3485 311.64 47.1819 310.347 46.9533L307.526 46.455L307.028 49.2741L308.185 49.4784C308.393 49.5153 308.431 49.5703 308.398 49.7548L306.054 63.0205L309.428 63.6166L310.334 58.4861L310.458 57.6501C310.8 58.5447 311.981 59.421 313.552 59.6986ZM314.538 50.3397C316.11 50.6175 317.125 52.1548 316.786 54.0731C316.386 56.3376 314.69 57.0387 313.349 56.8028C311.522 56.4801 310.934 54.684 311.212 53.1128C311.637 50.7087 313.244 50.1111 314.538 50.3397Z" fill="white"/>
</g>
<rect x="26.4419" y="83.4419" width="37.1163" height="37.1163" rx="1.32558" stroke="#DEDEDF" stroke-width="0.883721"/>
<path fill-rule="evenodd" clip-rule="evenodd" d="M43.8656 110.405L36.2098 106.857C35.5577 106.548 35.5577 106.069 36.2098 105.787L38.8752 104.548L43.8372 106.857C44.4894 107.167 45.5385 107.167 46.1623 106.857L51.1244 104.548L53.7897 105.787C54.4419 106.097 54.4419 106.576 53.7897 106.857L46.134 110.405C45.5385 110.687 44.4894 110.687 43.8656 110.405Z" fill="#FF6F3D"/>
<path fill-rule="evenodd" clip-rule="evenodd" d="M43.8408 106.015L36.2083 102.463C35.5582 102.153 35.5582 101.674 36.2083 101.392L38.809 100.18L43.8408 102.519C44.4909 102.829 45.5369 102.829 46.1588 102.519L51.1905 100.18L53.7912 101.392C54.4414 101.702 54.4414 102.181 53.7912 102.463L46.1588 106.015C45.5086 106.325 44.4627 106.325 43.8408 106.015Z" fill="#95C038"/>
<path fill-rule="evenodd" clip-rule="evenodd" d="M43.8408 101.67L36.2083 98.1695C35.5582 97.8639 35.5582 97.3916 36.2083 97.1137L43.8408 93.6129C44.4909 93.3073 45.5369 93.3073 46.1588 93.6129L53.7912 97.1137C54.4414 97.4193 54.4414 97.8917 53.7912 98.1695L46.1588 101.67C45.5086 101.948 44.4627 101.948 43.8408 101.67Z" fill="#5DC0E8"/>
<rect x="183" y="86" width="105" height="31" rx="2" fill="#6861F2"/>
<path d="M201.994 96.9645V107H199.872V96.9645H201.994ZM205.788 102.649V107H203.7V99.4734H205.69V100.801H205.778C205.945 100.364 206.224 100.017 206.616 99.7625C207.008 99.5044 207.483 99.3754 208.042 99.3754C208.565 99.3754 209.02 99.4897 209.409 99.7184C209.798 99.9471 210.1 100.274 210.316 100.698C210.531 101.12 210.639 101.623 210.639 102.208V107H208.552V102.58C208.555 102.119 208.437 101.76 208.199 101.502C207.96 101.241 207.632 101.11 207.214 101.11C206.933 101.11 206.685 101.17 206.469 101.291C206.257 101.412 206.09 101.589 205.969 101.821C205.852 102.049 205.791 102.325 205.788 102.649ZM218.547 101.62L216.636 101.737C216.603 101.574 216.533 101.427 216.425 101.296C216.317 101.162 216.175 101.056 215.999 100.978C215.825 100.896 215.618 100.855 215.376 100.855C215.053 100.855 214.78 100.924 214.558 101.061C214.336 101.195 214.225 101.375 214.225 101.6C214.225 101.78 214.297 101.932 214.44 102.056C214.584 102.18 214.831 102.28 215.18 102.355L216.543 102.629C217.274 102.779 217.82 103.021 218.179 103.354C218.539 103.687 218.718 104.125 218.718 104.668C218.718 105.161 218.573 105.594 218.282 105.966C217.995 106.338 217.599 106.629 217.096 106.838C216.596 107.044 216.02 107.147 215.366 107.147C214.37 107.147 213.576 106.94 212.985 106.525C212.397 106.107 212.052 105.538 211.951 104.819L214.004 104.712C214.066 105.015 214.217 105.247 214.455 105.407C214.694 105.564 214.999 105.643 215.371 105.643C215.737 105.643 216.031 105.572 216.253 105.432C216.479 105.288 216.593 105.104 216.596 104.878C216.593 104.689 216.513 104.534 216.356 104.413C216.2 104.289 215.958 104.194 215.631 104.129L214.328 103.869C213.593 103.722 213.045 103.467 212.686 103.104C212.33 102.742 212.152 102.28 212.152 101.718C212.152 101.234 212.283 100.818 212.544 100.468C212.809 100.119 213.179 99.8491 213.656 99.6596C214.137 99.4701 214.698 99.3754 215.342 99.3754C216.293 99.3754 217.041 99.5763 217.586 99.9781C218.135 100.38 218.455 100.927 218.547 101.62ZM224.036 99.4734V101.041H219.503V99.4734H224.036ZM220.532 97.6701H222.62V104.687C222.62 104.88 222.649 105.03 222.708 105.138C222.767 105.242 222.849 105.316 222.953 105.358C223.061 105.401 223.185 105.422 223.326 105.422C223.424 105.422 223.522 105.414 223.62 105.398C223.718 105.378 223.793 105.363 223.845 105.354L224.173 106.907C224.069 106.94 223.922 106.977 223.732 107.02C223.543 107.065 223.312 107.093 223.041 107.103C222.538 107.123 222.097 107.056 221.718 106.902C221.343 106.748 221.05 106.51 220.841 106.187C220.632 105.863 220.529 105.455 220.532 104.962V97.6701ZM227.542 107.142C227.062 107.142 226.634 107.059 226.258 106.892C225.883 106.722 225.585 106.472 225.366 106.142C225.151 105.809 225.043 105.394 225.043 104.898C225.043 104.48 225.12 104.129 225.273 103.844C225.427 103.56 225.636 103.331 225.901 103.158C226.165 102.985 226.466 102.854 226.802 102.766C227.142 102.678 227.498 102.616 227.87 102.58C228.308 102.534 228.661 102.492 228.929 102.453C229.197 102.41 229.391 102.348 229.512 102.266C229.633 102.185 229.693 102.064 229.693 101.904V101.874C229.693 101.564 229.595 101.324 229.399 101.154C229.207 100.984 228.932 100.899 228.576 100.899C228.2 100.899 227.901 100.983 227.679 101.149C227.457 101.313 227.31 101.518 227.238 101.767L225.308 101.61C225.406 101.152 225.598 100.757 225.886 100.424C226.173 100.088 226.544 99.8294 226.998 99.6498C227.456 99.4668 227.985 99.3754 228.586 99.3754C229.004 99.3754 229.404 99.4244 229.786 99.5224C230.172 99.6204 230.513 99.7723 230.811 99.9781C231.111 100.184 231.348 100.449 231.521 100.772C231.694 101.092 231.781 101.476 231.781 101.923V107H229.801V105.956H229.742C229.621 106.191 229.46 106.399 229.257 106.579C229.055 106.755 228.811 106.894 228.527 106.995C228.243 107.093 227.915 107.142 227.542 107.142ZM228.14 105.701C228.447 105.701 228.718 105.641 228.953 105.52C229.189 105.396 229.373 105.229 229.507 105.02C229.641 104.811 229.708 104.574 229.708 104.31V103.511C229.643 103.554 229.553 103.593 229.438 103.629C229.327 103.661 229.202 103.692 229.061 103.722C228.921 103.748 228.78 103.772 228.64 103.795C228.499 103.815 228.372 103.833 228.258 103.849C228.013 103.885 227.799 103.942 227.616 104.021C227.433 104.099 227.291 104.205 227.189 104.339C227.088 104.47 227.037 104.633 227.037 104.829C227.037 105.113 227.14 105.331 227.346 105.481C227.555 105.628 227.82 105.701 228.14 105.701ZM235.488 96.9645V107H233.4V96.9645H235.488ZM239.247 96.9645V107H237.16V96.9645H239.247ZM246.201 102.649V107H244.113V99.4734H246.103V100.801H246.191C246.357 100.364 246.637 100.017 247.029 99.7625C247.421 99.5044 247.896 99.3754 248.455 99.3754C248.977 99.3754 249.433 99.4897 249.822 99.7184C250.211 99.9471 250.513 100.274 250.728 100.698C250.944 101.12 251.052 101.623 251.052 102.208V107H248.964V102.58C248.968 102.119 248.85 101.76 248.612 101.502C248.373 101.241 248.045 101.11 247.627 101.11C247.346 101.11 247.097 101.17 246.882 101.291C246.669 101.412 246.503 101.589 246.382 101.821C246.264 102.049 246.204 102.325 246.201 102.649ZM256.098 107.147C255.337 107.147 254.678 106.985 254.123 106.662C253.571 106.335 253.145 105.881 252.844 105.3C252.544 104.715 252.393 104.037 252.393 103.266C252.393 102.489 252.544 101.809 252.844 101.228C253.145 100.643 253.571 100.189 254.123 99.8654C254.678 99.5387 255.337 99.3754 256.098 99.3754C256.859 99.3754 257.516 99.5387 258.068 99.8654C258.623 100.189 259.051 100.643 259.351 101.228C259.652 101.809 259.802 102.489 259.802 103.266C259.802 104.037 259.652 104.715 259.351 105.3C259.051 105.881 258.623 106.335 258.068 106.662C257.516 106.985 256.859 107.147 256.098 107.147ZM256.108 105.53C256.454 105.53 256.743 105.432 256.975 105.236C257.207 105.037 257.382 104.766 257.499 104.423C257.62 104.08 257.68 103.689 257.68 103.251C257.68 102.814 257.62 102.423 257.499 102.08C257.382 101.737 257.207 101.466 256.975 101.267C256.743 101.068 256.454 100.968 256.108 100.968C255.758 100.968 255.464 101.068 255.226 101.267C254.99 101.466 254.812 101.737 254.691 102.08C254.574 102.423 254.515 102.814 254.515 103.251C254.515 103.689 254.574 104.08 254.691 104.423C254.812 104.766 254.99 105.037 255.226 105.236C255.464 105.432 255.758 105.53 256.108 105.53ZM262.456 107L260.407 99.4734H262.519L263.686 104.53H263.754L264.969 99.4734H267.042L268.277 104.501H268.341L269.487 99.4734H271.594L269.551 107H267.341L266.048 102.266H265.954L264.661 107H262.456Z" fill="white"/>
<mask id="path-59-inside-1_8991_91546" fill="white">
<path d="M13 156H301V182H13V156Z"/>
</mask>
<path d="M13 156H301V182H13V156Z" fill="#F4F5F6"/>
<path d="M13 157H301V155H13V157Z" fill="#E2E2E2" mask="url(#path-59-inside-1_8991_91546)"/>
<rect x="26" y="143" width="58" height="2" rx="1" fill="#E2E2E2"/>
<rect x="94" y="143" width="58" height="2" rx="1" fill="#E2E2E2"/>
<rect x="162" y="143" width="58" height="2" rx="1" fill="#E2E2E2"/>
<rect x="230" y="143" width="58" height="2" rx="1" fill="#E2E2E2"/>
<defs>
<clipPath id="clip0_8991_91546">
<rect width="26.8914" height="26.8914" fill="white" transform="translate(301.679 40) rotate(10.02)"/>
</clipPath>
</defs>
</svg>
