<svg width="659" height="452" viewBox="0 0 659 452" fill="none" xmlns="http://www.w3.org/2000/svg">
<path d="M57.0933 64.8605C60.8897 64.8605 64.6785 65.1933 68.3989 65.8566C71.2044 53.5169 80.2748 42.9907 93.0098 37.2932C105.742 31.5957 120.738 31.3567 133.698 36.6432C145.427 8.17134 181.126 -6.52916 213.433 3.8072C245.741 14.1436 262.422 45.606 250.693 74.0757C278.994 74.8641 301.349 95.5078 300.926 120.458C300.5 145.41 277.451 165.45 249.134 165.49H57.0933C25.5637 165.49 -7.67994e-05 142.964 -7.67994e-05 115.175C-7.67994e-05 87.387 25.5637 64.8605 57.0933 64.8605Z" fill="white"/>
<path d="M632.678 57.111C630.551 57.111 628.487 57.3548 626.52 57.8108C622.995 53.2577 617.115 50.2755 610.455 50.2755C608.291 50.2755 606.213 50.5943 604.268 51.1751C600.988 38.1961 588.024 28.5 572.52 28.5C554.539 28.5 539.963 41.5365 539.963 57.6176C539.963 57.9493 539.98 58.2777 539.991 58.6052C537.703 57.9638 535.268 57.6176 532.744 57.6176C519.376 57.6176 508.539 67.3081 508.539 79.2664C508.539 91.2214 519.377 100.913 532.744 100.913H632.679C646.204 100.913 657.169 91.107 657.169 79.0118C657.168 66.9159 646.203 57.111 632.678 57.111Z" fill="white"/>
<path d="M217.298 301.147C213.977 301.147 210.753 301.528 207.682 302.239C202.177 295.134 192.996 290.48 182.595 290.48C179.216 290.48 175.972 290.978 172.933 291.884C167.812 271.63 147.568 256.5 123.358 256.5C95.2811 256.5 72.5201 276.843 72.5201 301.938C72.5201 302.455 72.5454 302.968 72.5628 303.479C68.9896 302.478 65.1884 301.938 61.246 301.938C40.3723 301.938 23.4493 317.06 23.4493 335.721C23.4493 354.377 40.373 369.5 61.246 369.5H217.299C238.419 369.5 255.541 354.198 255.541 335.324C255.54 316.448 238.418 301.147 217.298 301.147Z" fill="white"/>
<path fill-rule="evenodd" clip-rule="evenodd" d="M426.063 448.41C549.238 448.41 649.816 443.625 649.816 437.645C649.816 431.764 549.339 426.879 426.063 426.879C302.788 426.879 202.311 431.664 202.311 437.645C202.412 443.625 302.889 448.41 426.063 448.41Z" fill="#E7E7E7"/>
<path d="M619.503 381.526H219.614C210.737 381.526 203.473 374.349 203.473 365.577V96.0476C203.473 87.2759 210.737 80.0991 219.614 80.0991H619.503C628.381 80.0991 635.644 87.2759 635.644 96.0476V365.577C635.644 374.349 628.381 381.526 619.503 381.526Z" fill="white"/>
<path d="M619.503 382.523H219.614C210.131 382.523 202.464 374.947 202.464 365.577V96.0478C202.464 86.6781 210.131 79.1025 219.614 79.1025H619.503C628.986 79.1025 636.653 86.6781 636.653 96.0478V365.577C636.653 374.947 628.986 382.523 619.503 382.523ZM219.614 81.0961C211.241 81.0961 204.482 87.7745 204.482 96.0478V365.577C204.482 373.851 211.241 380.529 219.614 380.529H619.503C627.876 380.529 634.635 373.851 634.635 365.577V96.0478C634.635 87.7745 627.876 81.0961 619.503 81.0961H219.614Z" fill="#666666"/>
<path d="M482.811 409.037V381.526H356.206V409.037C356.206 418.307 348.539 425.883 339.157 425.883V432.96H499.859V425.883C490.477 425.883 482.811 418.307 482.811 409.037Z" fill="white"/>
<path d="M500.868 433.957H338.148V424.886H339.157C348.035 424.886 355.197 417.809 355.197 409.037V380.529H483.819V409.037C483.819 417.809 490.982 424.886 499.859 424.886H500.868V433.957ZM340.166 431.963H498.851V426.78C489.368 426.282 481.802 418.507 481.802 408.938V382.423H357.215V408.938C357.215 418.407 349.649 426.282 340.166 426.78V431.963Z" fill="#666666"/>
<path d="M499.859 425.883H339.157V432.96H499.859V425.883Z" fill="white"/>
<path d="M500.364 433.458H338.653V425.384H500.364V433.458V433.458ZM339.662 432.461H499.355V426.381H339.662V432.461Z" fill="#AAAAAA"/>
<path d="M622.53 343.05H216.588V94.6523H622.53V343.05ZM217.596 342.053H621.521V95.6491H217.596V342.053Z" fill="#CCCCCC"/>
<path d="M419.559 366.973C415.322 366.973 411.892 363.584 411.892 359.397C411.892 355.211 415.322 351.822 419.559 351.822C423.796 351.822 427.226 355.211 427.226 359.397C427.226 363.584 423.796 366.973 419.559 366.973ZM419.559 352.918C415.927 352.918 412.901 355.909 412.901 359.497C412.901 363.085 415.927 366.076 419.559 366.076C423.19 366.076 426.217 363.085 426.217 359.497C426.217 355.909 423.19 352.918 419.559 352.918Z" fill="#CCCCCC"/>
<path d="M297.897 113.591H227.483V332.783H297.897V113.591Z" fill="#F5F5F5"/>
<path d="M286.397 313.944H237.974V321.619H286.397V313.944Z" fill="white"/>
<path d="M286.397 190.941H237.974V198.617H286.397V190.941Z" fill="white"/>
<path d="M286.397 178.88H237.974V186.556H286.397V178.88Z" fill="white"/>
<path d="M286.397 124.954H237.974V172.8H286.397V124.954Z" fill="white"/>
<path d="M453.454 113.791H313.937V215.163H453.454V113.791Z" fill="white"/>
<path d="M453.959 215.562H313.433V113.292H453.959V215.562ZM314.441 214.565H452.95V114.289H314.441V214.565Z" fill="#CCCCCC"/>
<path d="M603.867 113.791H464.349V126.649H603.867V113.791Z" fill="white"/>
<path d="M604.371 127.147H463.845V113.292H604.371V127.147ZM464.854 126.15H603.362V114.289H464.854V126.15Z" fill="#CCCCCC"/>
<path d="M603.867 135.919H464.349V148.777H603.867V135.919Z" fill="white"/>
<path d="M604.371 149.276H463.845V135.42H604.371V149.276ZM464.854 148.279H603.362V136.417H464.854V148.279Z" fill="#CCCCCC"/>
<path d="M603.867 157.948H464.349V170.807H603.867V157.948Z" fill="white"/>
<path d="M604.371 171.405H463.845V157.549H604.371V171.405ZM464.854 170.408H603.362V158.546H464.854V170.408Z" fill="#CCCCCC"/>
<path d="M603.867 180.077H464.349V192.935H603.867V180.077Z" fill="white"/>
<path d="M604.371 193.533H463.845V179.678H604.371V193.533ZM464.854 192.536H603.362V180.675H464.854V192.536Z" fill="#CCCCCC"/>
<path d="M603.867 202.205H464.349V215.064H603.867V202.205Z" fill="white"/>
<path d="M604.371 215.562H463.845V201.707H604.371V215.562ZM464.854 214.565H603.362V202.703H464.854V214.565Z" fill="#CCCCCC"/>
<path d="M453.455 226.726H313.937V239.584H453.455V226.726Z" fill="#F5F5F5"/>
<path d="M453.455 248.854H313.937V261.712H453.455V248.854Z" fill="#F5F5F5"/>
<path d="M453.455 270.983H313.937V283.841H453.455V270.983Z" fill="#F5F5F5"/>
<path d="M453.455 293.111H313.937V305.97H453.455V293.111Z" fill="#F5F5F5"/>
<path d="M453.455 315.14H313.937V327.999H453.455V315.14Z" fill="#F5F5F5"/>
<path d="M603.867 226.726H464.349V328.098H603.867V226.726Z" fill="#F5F5F5"/>
<path d="M212.351 154.459C196.008 154.459 182.692 141.302 182.692 125.154V113.591H242.01V125.154C242.01 141.302 228.693 154.459 212.351 154.459Z" fill="white"/>
<path d="M212.35 155.954C195.201 155.954 181.178 142.099 181.178 125.154V113.591C181.178 112.793 181.884 112.096 182.691 112.096H242.009C242.816 112.096 243.522 112.793 243.522 113.591V125.154C243.522 142.099 229.5 155.954 212.35 155.954ZM184.104 115.086V125.154C184.104 140.504 196.714 152.964 212.249 152.964C227.785 152.964 240.395 140.504 240.395 125.154V115.086H184.104Z" fill="#333333"/>
<path d="M271.668 154.459C255.326 154.459 242.01 141.302 242.01 125.154V113.591H301.327V125.154C301.327 141.302 288.011 154.459 271.668 154.459Z" fill="#9ADAF3"/>
<path d="M271.668 155.954C254.519 155.954 240.496 142.099 240.496 125.154V113.591C240.496 112.793 241.202 112.096 242.009 112.096H301.327C302.134 112.096 302.84 112.793 302.84 113.591V125.154C302.84 142.099 288.818 155.954 271.668 155.954ZM243.523 115.086V125.154C243.523 140.504 256.133 152.964 271.668 152.964C287.204 152.964 299.814 140.504 299.814 125.154V115.086H243.523Z" fill="#333333"/>
<path d="M330.986 154.459C314.643 154.459 301.327 141.302 301.327 125.154V113.591H360.645V125.154C360.645 141.302 347.429 154.459 330.986 154.459Z" fill="white"/>
<path d="M330.986 155.954C313.836 155.954 299.814 142.099 299.814 125.154V113.591C299.814 112.793 300.52 112.096 301.327 112.096H360.645C361.452 112.096 362.158 112.793 362.158 113.591V125.154C362.158 142.099 348.236 155.954 330.986 155.954ZM302.84 115.086V125.154C302.84 140.504 315.45 152.964 330.986 152.964C346.521 152.964 359.131 140.504 359.131 125.154V115.086H302.84Z" fill="#333333"/>
<path d="M390.404 154.459C374.062 154.459 360.745 141.302 360.745 125.154V113.591H420.063V125.154C420.063 141.302 406.747 154.459 390.404 154.459Z" fill="#9ADAF3"/>
<path d="M390.404 155.954C373.255 155.954 359.232 142.099 359.232 125.154V113.591C359.232 112.793 359.938 112.096 360.746 112.096H420.063C420.87 112.096 421.576 112.793 421.576 113.591V125.154C421.576 142.099 407.554 155.954 390.404 155.954ZM362.158 115.086V125.154C362.158 140.504 374.768 152.964 390.303 152.964C405.839 152.964 418.449 140.504 418.449 125.154V115.086H362.158Z" fill="#333333"/>
<path d="M449.722 154.459C433.379 154.459 420.063 141.302 420.063 125.154V113.591H479.381V125.154C479.381 141.302 466.065 154.459 449.722 154.459Z" fill="white"/>
<path d="M449.722 155.954C432.572 155.954 418.55 142.099 418.55 125.154V113.591C418.55 112.793 419.256 112.096 420.063 112.096H479.381C480.188 112.096 480.894 112.793 480.894 113.591V125.154C480.894 142.099 466.872 155.954 449.722 155.954ZM421.576 115.086V125.154C421.576 140.504 434.186 152.964 449.722 152.964C465.257 152.964 477.867 140.504 477.867 125.154V115.086H421.576Z" fill="#333333"/>
<path d="M509.04 154.459C492.697 154.459 479.381 141.302 479.381 125.154V113.591H538.698V125.154C538.698 141.302 525.483 154.459 509.04 154.459Z" fill="#9ADAF3"/>
<path d="M509.039 155.954C491.89 155.954 477.867 142.099 477.867 125.154V113.591C477.867 112.793 478.574 112.096 479.381 112.096H538.698C539.505 112.096 540.211 112.793 540.211 113.591V125.154C540.211 142.099 526.29 155.954 509.039 155.954ZM480.894 115.086V125.154C480.894 140.504 493.504 152.964 509.039 152.964C524.575 152.964 537.185 140.504 537.185 125.154V115.086H480.894Z" fill="#333333"/>
<path d="M568.458 154.459C552.115 154.459 538.799 141.302 538.799 125.154V113.591H598.117V125.154C598.117 141.302 584.801 154.459 568.458 154.459Z" fill="white"/>
<path d="M568.458 155.954C551.308 155.954 537.286 142.099 537.286 125.154V113.591C537.286 112.793 537.992 112.096 538.799 112.096H598.117C598.924 112.096 599.63 112.793 599.63 113.591V125.154C599.63 142.099 585.608 155.954 568.458 155.954ZM540.212 115.086V125.154C540.212 140.504 552.822 152.964 568.357 152.964C583.893 152.964 596.503 140.504 596.503 125.154V115.086H540.212Z" fill="#333333"/>
<path d="M627.776 154.459C611.433 154.459 598.117 141.302 598.117 125.154V113.591H657.434V125.154C657.434 141.302 644.118 154.459 627.776 154.459Z" fill="#9ADAF3"/>
<path d="M627.775 155.954C610.626 155.954 596.604 142.099 596.604 125.154V113.591C596.604 112.793 597.31 112.096 598.117 112.096H657.434C658.241 112.096 658.947 112.793 658.947 113.591V125.154C658.947 142.099 644.925 155.954 627.775 155.954ZM599.63 115.086V125.154C599.63 140.504 612.24 152.964 627.775 152.964C643.311 152.964 655.921 140.504 655.921 125.154V115.086H599.63Z" fill="#333333"/>
<path d="M269.953 96.1475H219.917L182.591 113.591H242.009L269.953 96.1475Z" fill="white"/>
<path d="M242.009 115.086H182.692C181.986 115.086 181.38 114.588 181.179 113.89C180.977 113.192 181.38 112.495 181.986 112.196L219.311 94.8516C219.513 94.7519 219.715 94.752 219.917 94.752H269.953C270.659 94.752 271.265 95.1507 271.366 95.8484C271.567 96.4465 271.265 97.1442 270.76 97.5429L242.816 114.887C242.514 114.987 242.312 115.086 242.009 115.086ZM189.35 112.096H241.505L264.708 97.7423H220.32L189.35 112.096Z" fill="#333333"/>
<path d="M319.99 96.1475H269.953L242.01 113.591H301.327L319.99 96.1475Z" fill="#9ADAF3"/>
<path d="M301.327 115.086H242.009C241.303 115.086 240.698 114.688 240.597 113.99C240.395 113.392 240.698 112.694 241.202 112.295L269.146 94.9513C269.348 94.752 269.651 94.752 269.953 94.752H319.99C320.595 94.752 321.2 95.1507 321.402 95.649C321.604 96.2471 321.503 96.8452 320.999 97.2439L302.336 114.588C302.134 114.887 301.731 115.086 301.327 115.086ZM247.255 112.096H300.722L316.156 97.7423H270.357L247.255 112.096Z" fill="#333333"/>
<path d="M370.026 96.1475H319.99L301.327 113.591H360.645L370.026 96.1475Z" fill="white"/>
<path d="M360.645 115.087H301.327C300.722 115.087 300.117 114.688 299.915 114.19C299.713 113.592 299.814 112.993 300.318 112.595L318.981 95.2508C319.284 94.9517 319.586 94.8521 319.99 94.8521H370.027C370.531 94.8521 371.035 95.1511 371.338 95.5498C371.641 95.9485 371.641 96.5466 371.338 97.045L362.057 114.389C361.754 114.788 361.25 115.087 360.645 115.087ZM305.161 112.096H359.737L367.505 97.7427H320.595L305.161 112.096Z" fill="#333333"/>
<path d="M420.063 96.1475H370.027L360.645 113.591H420.063V96.1475Z" fill="#9ADAF3"/>
<path d="M420.063 115.086H360.746C360.241 115.086 359.737 114.787 359.434 114.388C359.131 113.99 359.131 113.392 359.434 112.893L368.715 95.5494C369.018 95.051 369.522 94.752 370.027 94.752H420.063C420.87 94.752 421.576 95.4497 421.576 96.2471V113.591C421.576 114.388 420.87 115.086 420.063 115.086ZM363.167 112.096H418.449V97.7423H370.834L363.167 112.096Z" fill="#333333"/>
<path d="M470.1 96.1475H420.063V113.591H479.381L470.1 96.1475Z" fill="white"/>
<path d="M479.381 115.086H420.063C419.256 115.086 418.55 114.388 418.55 113.591V96.2471C418.55 95.4497 419.256 94.752 420.063 94.752H470.1C470.705 94.752 471.209 95.051 471.411 95.5494L480.692 112.893C480.894 113.392 480.894 113.89 480.692 114.388C480.49 114.887 479.885 115.086 479.381 115.086ZM421.576 112.096H476.859L469.091 97.7423H421.475V112.096H421.576Z" fill="#333333"/>
<path d="M520.136 96.1475H470.1L479.381 113.591H538.698L520.136 96.1475Z" fill="#9ADAF3"/>
<path d="M538.698 115.086H479.381C478.775 115.086 478.271 114.787 478.069 114.289L468.788 96.9449C468.586 96.4465 468.586 95.9481 468.788 95.4497C468.99 94.9513 469.595 94.752 470.1 94.752H520.136C520.54 94.752 520.943 94.8516 521.145 95.1507L539.808 112.495C540.212 112.893 540.413 113.591 540.212 114.089C539.909 114.688 539.405 115.086 538.698 115.086ZM480.289 112.096H534.966L519.531 97.7423H472.622L480.289 112.096Z" fill="#333333"/>
<path d="M570.072 96.1475H520.136L538.698 113.591H598.117L570.072 96.1475Z" fill="white"/>
<path d="M598.117 115.087H538.799C538.396 115.087 537.992 114.987 537.79 114.688L519.128 97.344C518.724 96.9453 518.522 96.2476 518.724 95.7492C518.926 95.1511 519.531 94.8521 520.136 94.8521H570.173C570.476 94.8521 570.778 94.9517 570.98 95.0514L598.924 112.395C599.529 112.794 599.731 113.392 599.529 114.09C599.327 114.588 598.722 115.087 598.117 115.087ZM539.304 112.096H592.77L569.568 97.7427H523.768L539.304 112.096Z" fill="#333333"/>
<path d="M620.109 96.1475H570.072L598.117 113.591H657.434L620.109 96.1475Z" fill="#9ADAF3"/>
<path d="M657.434 115.086H598.117C597.814 115.086 597.511 114.987 597.31 114.887L569.366 97.5429C568.761 97.1442 568.559 96.5461 568.761 95.8484C568.962 95.2503 569.568 94.752 570.173 94.752H620.21C620.411 94.752 620.613 94.7519 620.815 94.8516L658.14 112.196C658.746 112.495 659.149 113.192 658.947 113.89C658.746 114.588 658.14 115.086 657.434 115.086ZM598.52 112.096H650.675L619.806 97.7423H575.419L598.52 112.096Z" fill="#333333"/>
<path fill-rule="evenodd" clip-rule="evenodd" d="M550.299 177.785C547.172 175.99 540.01 178.482 535.47 185.26C526.593 198.518 522.759 208.485 515.597 214.466C508.434 220.447 497.943 222.739 497.943 222.739C497.943 222.739 502.684 231.511 503.289 231.611C503.895 231.71 516.303 226.328 521.549 222.44C523.062 221.344 524.979 218.952 522.759 222.54C519.531 227.823 506.719 234.302 506.719 234.302C506.719 234.302 517.816 259.022 541.523 259.421C565.23 259.82 586.011 250.25 586.011 250.25C586.011 250.25 586.011 196.723 571.585 182.37C559.379 170.309 550.299 177.785 550.299 177.785Z" fill="white"/>
<path d="M542.834 260.816C542.33 260.816 541.926 260.816 541.422 260.816C517.211 260.417 505.61 235.198 505.509 234.999C505.206 234.401 505.509 233.703 506.114 233.404C506.215 233.404 511.763 230.514 516.303 227.224C510.754 230.215 504.096 233.205 503.088 233.005C502.381 232.906 501.877 232.806 496.833 223.436C496.631 223.137 496.631 222.639 496.833 222.34C497.035 221.941 497.337 221.742 497.741 221.642C497.842 221.642 508.031 219.449 514.891 213.668C519.329 209.88 522.557 204.498 526.593 197.52C528.812 193.732 531.334 189.346 534.461 184.662C539.001 177.883 546.163 174.893 550.199 176.388C552.62 174.893 561.598 170.707 572.493 181.671C587.121 196.224 587.222 248.256 587.222 250.449C587.222 250.948 586.919 251.346 586.516 251.546C586.314 251.645 565.936 260.816 542.834 260.816ZM508.333 234.999C510.754 239.584 521.65 258.025 541.523 258.324C562.203 258.722 580.866 251.247 584.7 249.552C584.599 242.774 583.59 196.224 570.677 183.366C559.379 172.102 551.107 178.681 551.107 178.781C550.703 179.08 550.098 179.179 549.694 178.88C547.273 177.485 540.817 179.678 536.479 185.957C533.352 190.642 530.83 194.928 528.61 198.716C524.474 205.793 521.145 211.375 516.404 215.462C510.654 220.247 503.088 222.739 499.758 223.636C501.272 226.427 502.886 229.218 503.693 230.314C506.316 229.317 516.101 225.031 520.742 221.642C521.145 221.343 521.549 220.944 521.952 220.645C522.759 219.948 523.566 219.15 524.474 219.948C525.483 220.745 524.878 221.642 523.768 223.436C520.943 228.022 511.561 233.305 508.333 234.999Z" fill="#333333"/>
<path d="M499.658 216.359C497.539 216.359 495.824 216.06 494.815 215.462C494.21 215.163 494.008 214.366 494.311 213.767C494.614 213.169 495.421 212.97 496.026 213.269C497.842 214.266 506.316 214.266 514.184 209.481C522.356 204.497 529.014 192.835 529.115 192.735C529.417 192.137 530.224 191.938 530.83 192.237C531.435 192.536 531.637 193.333 531.334 193.932C531.031 194.43 524.272 206.292 515.597 211.575C510.048 214.964 503.995 216.359 499.658 216.359Z" fill="#333333"/>
<path d="M608.81 315.538C609.113 316.634 610.121 317.332 611.433 317.332C612.139 317.332 612.845 317.033 613.451 317.133C614.762 317.432 614.964 318.927 615.872 319.724C616.981 320.721 618.898 321.02 620.411 320.821C622.429 320.422 624.245 318.727 624.346 316.634C624.446 314.94 623.942 313.046 622.53 312.149C614.964 307.265 610.929 303.277 607.6 298.991C606.187 297.197 603.766 299.091 604.069 301.782C604.17 302.879 607.801 309.956 608.104 310.953C608.507 312.348 608.709 313.544 608.911 314.94C608.709 315.139 608.709 315.338 608.81 315.538Z" fill="white"/>
<path d="M619.402 321.918C617.889 321.918 616.275 321.42 615.266 320.523C614.762 320.124 614.459 319.626 614.258 319.127C613.854 318.43 613.652 318.23 613.35 318.131C613.148 318.131 612.845 318.131 612.442 318.23C612.139 318.33 611.836 318.33 611.534 318.33C609.92 318.43 608.407 317.433 607.902 315.838C607.801 315.539 607.801 315.34 607.7 315.041C607.6 313.844 607.398 312.648 606.994 311.253C606.893 310.854 606.086 309.16 605.38 307.764C603.766 304.375 603.06 302.681 602.959 301.983C602.656 299.79 603.867 298.195 605.178 297.597C606.288 297.098 607.499 297.497 608.306 298.494C611.13 302.082 614.762 306.07 623.034 311.353C624.85 312.549 625.455 314.941 625.354 316.735C625.253 319.127 623.236 321.32 620.613 321.819C620.109 321.819 619.806 321.918 619.402 321.918ZM613.047 316.137C613.249 316.137 613.451 316.137 613.652 316.237C614.964 316.536 615.468 317.533 615.872 318.23C616.073 318.529 616.275 318.928 616.477 319.028C617.284 319.725 618.898 320.124 620.109 319.825C621.723 319.526 623.135 318.131 623.135 316.635C623.236 315.34 622.832 313.645 621.723 313.047C614.863 308.661 610.525 304.774 606.49 299.69C606.187 299.291 605.985 299.391 605.784 299.491C605.279 299.69 604.573 300.587 604.775 301.783C604.876 302.282 606.187 305.272 606.994 306.967C608.003 309.06 608.507 310.356 608.709 310.854C609.113 312.449 609.415 313.645 609.516 315.041C609.516 315.14 609.516 315.34 609.617 315.439C609.819 316.037 610.323 316.635 611.231 316.536C611.433 316.536 611.635 316.536 611.836 316.436C612.24 316.137 612.643 316.137 613.047 316.137Z" fill="#333333"/>
<path d="M474.337 255.433C473.227 255.234 468.284 252.941 465.056 251.446C464.45 249.851 463.24 248.455 461.727 247.359C459.81 246.063 457.389 245.066 454.867 245.166C452.345 245.166 449.722 246.263 448.511 248.156C447.301 250.05 448.108 251.745 449.318 253.639C450.529 255.533 455.775 257.127 457.389 257.725C458.398 258.025 463.139 257.227 463.643 256.828C467.073 258.822 471.209 261.414 471.209 261.414C471.209 261.414 475.951 255.732 474.337 255.433Z" fill="white"/>
<path d="M471.209 262.411C471.008 262.411 470.806 262.411 470.705 262.311C470.705 262.311 466.771 259.919 463.542 258.025C461.928 258.523 458.196 259.121 457.086 258.722L456.884 258.623C453.656 257.526 449.722 256.131 448.511 254.237C447.2 252.243 446.09 250.05 447.704 247.658C449.016 245.565 451.84 244.269 454.867 244.169C457.389 244.169 460.012 244.967 462.332 246.562C464.047 247.758 465.257 249.253 465.964 250.748C472.924 254.038 474.337 254.436 474.639 254.536C475.144 254.636 475.547 254.935 475.749 255.433C476.153 256.53 474.942 258.822 472.117 262.112C471.815 262.211 471.512 262.411 471.209 262.411ZM463.542 255.832C463.744 255.832 463.946 255.931 464.047 256.031C466.569 257.526 469.494 259.321 470.907 260.118C472.117 258.623 473.126 257.028 473.429 256.23C472.016 255.732 469.091 254.436 464.45 252.343C464.249 252.243 464.047 252.044 463.946 251.845V251.745C463.442 250.449 462.433 249.253 460.92 248.256C459.003 246.96 456.784 246.163 454.665 246.163C452.345 246.163 450.125 247.259 449.117 248.755C448.209 250.05 448.713 251.247 449.924 253.24C450.327 253.938 451.941 255.134 457.187 256.829L457.389 256.928C458.095 257.128 462.231 256.43 462.836 256.131C463.24 255.832 463.442 255.832 463.542 255.832Z" fill="#333333"/>
<path d="M455.27 265.202L382.233 279.755C379.509 280.253 376.886 278.559 376.281 275.867L371.035 250.051C370.531 247.359 372.246 244.768 374.97 244.17L448.007 229.617C450.731 229.118 453.354 230.813 453.959 233.504L459.205 259.321C459.81 262.012 457.994 264.703 455.27 265.202Z" fill="white"/>
<path d="M381.224 281.05C378.299 281.05 375.676 278.957 375.07 276.066L369.825 250.25C369.522 248.655 369.825 246.96 370.733 245.565C371.641 244.169 373.053 243.272 374.768 242.874L447.805 228.321C449.419 228.022 451.134 228.321 452.547 229.218C453.959 230.115 454.867 231.51 455.27 233.205L460.516 259.021C461.222 262.411 459.003 265.7 455.573 266.398L382.536 280.951C382.031 281.05 381.628 281.05 381.224 281.05ZM449.016 230.813C448.814 230.813 448.511 230.813 448.31 230.912L375.272 245.465C374.263 245.665 373.456 246.263 372.851 247.06C372.246 247.858 372.044 248.854 372.246 249.851L377.492 275.668C377.895 277.661 379.913 278.957 381.93 278.558L454.968 264.005C456.985 263.607 458.297 261.613 457.893 259.62L452.647 233.803C452.446 232.009 450.832 230.813 449.016 230.813Z" fill="#333333"/>
<path d="M396.861 252.044C395.246 250.948 393.33 250.549 390.909 251.047C388.488 251.546 386.773 252.542 385.764 254.237C384.755 255.832 384.452 258.025 385.058 260.616C385.562 263.208 386.672 265.102 388.185 266.198C389.799 267.295 391.716 267.694 394.137 267.195C396.558 266.697 398.273 265.7 399.282 264.005C400.291 262.311 400.492 260.218 399.988 257.626C399.383 255.034 398.374 253.24 396.861 252.044ZM393.532 264.404C392.22 264.703 391.11 264.404 390.303 263.706C389.496 262.909 388.891 261.713 388.488 259.919C388.084 258.224 388.185 256.829 388.689 255.732C389.194 254.735 390.102 254.038 391.413 253.838C394.036 253.34 395.751 254.835 396.457 258.324C397.163 261.813 396.154 263.906 393.532 264.404ZM411.286 248.555C410.076 247.957 408.563 247.858 406.646 248.157L401.602 249.153L404.83 264.803L408.159 264.105L407.049 258.523L408.462 258.224C410.379 257.825 411.892 257.128 412.699 256.031C413.607 254.935 413.808 253.539 413.506 251.845C413.203 250.25 412.497 249.153 411.286 248.555ZM409.773 254.636C409.37 255.134 408.664 255.533 407.554 255.732L406.444 255.932L405.536 251.346L407.049 251.047C407.957 250.848 408.664 250.948 409.168 251.247C409.672 251.546 409.975 252.044 410.177 252.841C410.379 253.44 410.177 254.137 409.773 254.636ZM427.226 257.526L427.831 260.218L418.752 262.012L415.523 246.362L424.603 244.568L425.107 247.26L419.357 248.356L420.063 251.745L425.41 250.649L425.914 253.34L420.567 254.436L421.374 258.423L427.226 257.526ZM431.563 247.16C432.068 249.253 432.37 250.748 432.572 251.645L434.085 259.022L431.059 259.62L427.831 243.97L432.068 243.173L441.45 253.44H441.551C441.046 251.446 440.643 250.051 440.542 249.153L439.029 241.777L442.055 241.179L445.283 256.829L441.046 257.626L431.563 247.16Z" fill="url(#paint0_linear_1916_5465)"/>
<path d="M458.398 250.748C453.454 247.658 454.06 241.976 456.884 243.272C461.424 245.266 464.047 247.658 464.854 251.944" fill="white"/>
<path d="M464.854 252.941C464.349 252.941 463.946 252.642 463.845 252.144C463.139 248.555 461.02 246.263 456.38 244.269C455.976 244.07 455.876 244.169 455.775 244.369C455.27 245.266 455.876 248.156 458.801 250.05C459.305 250.349 459.406 250.947 459.104 251.446C458.801 251.944 458.196 252.044 457.691 251.745C454.06 249.452 452.849 245.565 453.959 243.472C454.564 242.275 455.876 241.976 457.086 242.574C462.231 244.867 464.854 247.658 465.661 251.944C465.762 252.443 465.459 253.041 464.854 253.14C464.955 252.841 464.955 252.941 464.854 252.941Z" fill="#333333"/>
<path fill-rule="evenodd" clip-rule="evenodd" d="M529.115 423.988L529.216 441.432L536.176 444.323L539.404 423.789L529.115 423.988Z" fill="white"/>
<path d="M536.176 445.32C536.075 445.32 535.874 445.32 535.773 445.22L528.812 442.329C528.408 442.13 528.207 441.831 528.207 441.432L528.106 423.989C528.106 423.49 528.509 422.992 529.115 422.992L539.404 422.792C539.707 422.792 540.01 422.892 540.211 423.092C540.413 423.291 540.514 423.59 540.413 423.889L537.185 444.323C537.185 444.622 536.983 444.921 536.681 445.021C536.479 445.22 536.378 445.32 536.176 445.32ZM530.224 440.735L535.369 442.828L538.295 424.786L530.224 424.886V440.735Z" fill="#333333"/>
<path fill-rule="evenodd" clip-rule="evenodd" d="M575.419 422.892L579.555 442.329L586.919 441.532L585.507 422.194L575.419 422.892Z" fill="white"/>
<path d="M579.555 443.326C579.05 443.326 578.647 443.027 578.546 442.529L574.41 423.191C574.309 422.892 574.41 422.593 574.612 422.394C574.813 422.195 575.015 421.995 575.318 421.995L585.305 421.297C585.809 421.198 586.314 421.696 586.415 422.195L587.827 441.432C587.827 441.931 587.423 442.429 586.919 442.529L579.555 443.326C579.555 443.326 579.656 443.326 579.555 443.326ZM576.629 423.889L580.362 441.233L585.809 440.635L584.498 423.291L576.629 423.889Z" fill="#333333"/>
<path d="M532.444 293.61C532.444 293.61 526.088 342.751 525.987 361.092C525.886 374.648 528.408 427.179 528.408 427.179C528.408 427.179 531.536 430.668 535.773 430.468C540.01 430.269 541.018 428.275 541.018 428.275C541.018 428.275 545.255 385.613 545.861 378.935C546.567 371.558 544.448 361.69 544.448 361.69C544.448 361.69 556.756 321.221 555.142 313.346C553.528 305.472 552.721 292.613 552.721 292.613L532.444 293.61Z" fill="white"/>
<path d="M535.268 431.963C530.628 431.963 527.299 428.275 527.198 428.175C526.996 427.876 526.794 427.577 526.794 427.278C526.794 426.78 524.373 374.548 524.373 361.092C524.474 342.851 530.729 293.909 530.83 293.41C530.93 292.713 531.536 292.115 532.242 292.115L552.519 291.218C553.326 291.118 554.032 291.816 554.133 292.613C554.133 292.713 555.041 305.472 556.554 313.147C558.168 320.922 547.576 356.208 545.962 361.889C546.365 363.783 547.979 372.455 547.273 379.233C546.668 385.912 542.431 428.574 542.431 428.574C542.431 428.773 542.33 428.973 542.229 429.172C542.128 429.471 540.615 431.863 535.672 432.162C535.571 431.963 535.47 431.963 535.268 431.963ZM529.821 426.58C530.628 427.378 532.948 429.172 535.571 428.973C537.992 428.873 539.102 428.076 539.404 427.677C539.808 423.191 543.641 385.114 544.247 378.835C544.953 371.757 542.935 362.089 542.834 361.989C542.733 361.79 542.834 361.491 542.834 361.291C546.264 350.127 554.738 319.825 553.528 313.645C552.216 307.266 551.409 297.796 551.207 294.208L533.755 295.005C532.746 302.78 527.601 344.645 527.5 361.092C527.4 373.751 529.619 420.799 529.821 426.58Z" fill="#333333"/>
<path d="M550.299 315.639C550.299 315.639 554.436 334.279 559.379 350.227C560.69 354.513 561.901 359.298 561.699 364.381C561.598 368.867 574.612 429.073 574.612 429.073C574.612 429.073 578.546 430.269 581.471 429.571C584.296 428.873 586.818 427.577 586.818 427.577C586.818 427.577 582.48 369.266 579.454 361.092C578.042 357.304 578.344 351.224 578.243 347.037C577.941 331.189 579.252 309.658 577.941 300.986C577.335 297.099 577.941 294.208 574.41 289.822C570.879 285.436 559.883 281.449 559.883 281.449L546.264 294.607" fill="white"/>
<path d="M579.555 431.265C576.932 431.265 574.41 430.568 574.309 430.468C573.805 430.269 573.401 429.87 573.3 429.372C571.989 423.191 560.186 368.867 560.287 364.381C560.387 359.298 559.177 354.613 557.966 350.725C553.023 334.877 548.887 316.137 548.887 315.938C548.685 315.14 549.19 314.343 549.997 314.144C550.804 313.944 551.611 314.443 551.813 315.24C551.813 315.439 555.949 333.98 560.892 349.729C562.203 353.915 563.515 358.899 563.313 364.381C563.212 367.471 570.778 403.655 576.024 427.777C577.335 428.076 579.656 428.375 581.27 428.076C582.884 427.677 584.397 427.079 585.305 426.68C583.792 406.246 580.463 367.77 578.142 361.59C576.932 358.301 576.932 353.616 576.831 349.43C576.831 348.632 576.831 347.735 576.831 347.037C576.73 340.857 576.831 333.98 576.932 327.201C577.134 316.536 577.335 306.369 576.528 301.185C576.427 300.288 576.327 299.491 576.226 298.694C575.923 296.002 575.822 293.909 573.3 290.819C570.879 287.829 563.817 284.639 560.387 283.243L547.475 295.703C546.87 296.301 545.962 296.301 545.356 295.703C544.751 295.105 544.751 294.208 545.356 293.61L558.975 280.452C559.379 280.054 559.984 279.954 560.589 280.153C561.094 280.353 571.989 284.34 575.721 288.925C578.748 292.713 579.05 295.604 579.252 298.394C579.353 299.192 579.353 299.89 579.555 300.787C580.463 306.269 580.261 316.536 580.059 327.301C579.958 333.98 579.756 340.957 579.958 347.037C579.958 347.835 579.958 348.632 579.958 349.529C579.958 353.217 579.958 357.803 581.068 360.594C584.195 368.867 588.331 425.085 588.533 427.478C588.533 428.076 588.23 428.574 587.726 428.873C587.625 428.973 585.002 430.269 582.077 430.966C581.169 431.166 580.362 431.265 579.555 431.265Z" fill="#333333"/>
<path d="M501.473 263.108C501.473 263.108 525.786 223.337 531.939 221.343C538.093 219.35 567.853 221.842 571.484 222.938C576.327 224.433 578.344 225.729 580.664 228.022C582.985 230.215 593.375 269.687 594.889 271.481C596.402 273.276 611.13 301.186 611.13 301.186C611.13 301.186 608.911 300.886 607.196 302.282C605.481 303.777 603.161 305.472 603.161 305.472L583.186 272.977L571.283 246.662C571.283 246.662 565.028 259.221 566.339 266.697C567.147 271.481 570.173 281.449 574.511 288.526C576.528 291.816 578.142 296.999 578.142 296.999C578.142 296.999 575.62 303.079 564.221 304.575C540.514 307.764 529.115 302.083 529.115 302.083L531.132 268.192L531.233 255.234C529.922 252.543 528.207 248.356 528.207 248.356C528.207 248.356 507.728 275.768 502.987 275.668C495.219 275.469 468.687 261.613 468.687 261.613C468.687 261.613 471.008 259.42 471.815 257.427C472.521 255.633 471.815 253.44 471.815 253.44L501.473 263.108Z" fill="url(#paint1_linear_1916_5465)"/>
<path d="M550.501 307.066C536.075 307.066 528.913 303.677 528.61 303.478C528.106 303.179 527.702 302.68 527.803 302.082L529.821 268.192L529.922 255.732C529.316 254.436 528.61 252.742 528.005 251.446C521.044 260.616 507.829 277.263 503.088 277.263C495.017 277.063 469.192 263.607 468.183 263.009C467.779 262.809 467.477 262.411 467.376 261.912C467.275 261.414 467.477 260.915 467.88 260.616C468.486 260.018 470.1 258.324 470.604 257.028C471.008 256.031 470.705 254.436 470.604 253.938C470.402 253.439 470.604 252.841 471.008 252.443C471.411 252.044 472.016 251.944 472.521 252.044L500.969 261.314C506.215 252.742 525.584 221.941 531.637 219.948C538.396 217.755 568.761 220.546 572.09 221.542C577.235 223.137 579.454 224.633 581.875 226.925C583.287 228.221 585.507 235.198 591.055 253.938C593.174 261.214 595.696 269.587 596.301 270.584C597.713 272.279 610.222 295.803 612.643 300.488C612.946 300.986 612.845 301.584 612.543 302.082C612.24 302.581 611.635 302.78 611.13 302.68C611.13 302.68 609.516 302.481 608.407 303.478C606.692 304.973 604.371 306.767 604.371 306.767C604.069 307.066 603.564 307.166 603.161 307.066C602.757 306.967 602.354 306.767 602.152 306.369L582.178 273.873C582.178 273.774 582.077 273.774 582.077 273.674L571.383 250.449C569.668 254.536 567.046 261.812 567.853 266.597C568.66 271.382 571.686 281.05 575.822 287.828C577.941 291.217 579.555 296.5 579.555 296.7C579.656 296.999 579.656 297.398 579.454 297.697C579.353 297.996 576.427 304.574 564.423 306.169C559.278 306.867 554.637 307.066 550.501 307.066ZM530.83 301.185C533.957 302.381 544.953 305.671 564.221 303.179C572.796 302.082 575.822 298.195 576.629 296.899C576.125 295.504 574.914 291.816 573.401 289.324C568.761 281.848 565.734 271.681 565.028 266.996C563.717 259.121 569.87 246.562 570.173 246.063C570.476 245.565 570.98 245.266 571.585 245.266C572.19 245.266 572.695 245.665 572.897 246.163L584.7 272.378L603.665 303.378C604.472 302.78 605.481 301.983 606.288 301.185C607.095 300.488 608.003 300.089 608.81 299.889C603.06 289.124 594.788 273.674 593.779 272.478C593.073 271.581 591.862 267.992 588.029 254.835C585.204 245.166 580.866 230.613 579.656 229.118C577.537 227.124 575.721 225.928 571.081 224.433C567.651 223.337 538.194 220.944 532.444 222.838C528.308 224.134 512.066 248.755 502.785 263.906C502.381 264.504 501.675 264.803 500.969 264.504L473.731 255.632C473.731 256.43 473.63 257.227 473.328 258.025C472.823 259.121 472.016 260.317 471.209 261.214C479.582 265.501 497.438 274.073 503.088 274.173C505.71 273.973 517.614 260.118 527.097 247.459C527.4 247.06 527.904 246.761 528.509 246.861C529.014 246.96 529.518 247.259 529.72 247.758C529.72 247.758 531.435 251.944 532.746 254.636C532.847 254.835 532.948 255.034 532.847 255.333L532.746 268.292L530.83 301.185Z" fill="#333333"/>
<path fill-rule="evenodd" clip-rule="evenodd" d="M508.838 447.314C509.04 450.304 517.11 450.404 524.172 450.105C531.233 449.706 538.497 448.809 538.295 445.818C538.093 442.828 536.882 437.944 529.72 438.343C522.557 438.741 508.636 444.323 508.838 447.314Z" fill="white"/>
<path d="M519.127 451.5C517.009 451.5 515.294 451.4 513.781 451.201C512.268 451.002 507.728 450.503 507.627 447.413C507.425 443.027 522.961 437.545 529.72 437.146C533.251 436.947 535.974 437.944 537.689 440.137C538.799 441.532 539.505 443.526 539.606 445.818C539.808 448.908 535.672 449.905 534.26 450.204C531.939 450.802 528.711 451.101 524.272 451.4C522.356 451.4 520.641 451.5 519.127 451.5ZM510.149 447.313C510.25 447.612 511.057 448.41 514.083 448.709C516.505 449.008 519.834 449.008 524.171 448.809C528.509 448.609 531.536 448.211 533.755 447.712C536.277 447.114 537.185 446.416 537.185 445.918C537.084 444.722 536.782 442.928 535.773 441.632C534.562 440.137 532.645 439.539 529.922 439.638C522.658 439.937 510.654 445.32 510.149 447.313Z" fill="#333333"/>
<path fill-rule="evenodd" clip-rule="evenodd" d="M596.2 446.516C596.704 449.507 594.283 450.005 589.138 450.205C583.186 450.504 578.142 449.407 577.739 446.516C577.234 443.526 580.564 439.24 586.415 438.343C592.266 437.446 595.696 443.526 596.2 446.516Z" fill="white"/>
<path d="M587.222 451.5C580.866 451.5 576.932 449.805 576.428 446.715C576.125 444.821 577.033 442.629 578.748 440.834C580.564 438.941 583.287 437.645 586.213 437.146C589.239 436.648 591.963 437.744 594.283 440.137C596.2 442.23 597.209 444.821 597.511 446.317C597.713 447.612 597.511 448.609 596.805 449.407C595.595 450.902 593.274 451.201 589.239 451.4C588.533 451.5 587.928 451.5 587.222 451.5ZM587.625 439.539C587.323 439.539 587.02 439.539 586.717 439.638C584.296 440.037 582.178 441.034 580.765 442.529C579.555 443.725 578.95 445.22 579.151 446.317C579.454 448.211 583.489 449.307 589.239 449.008C590.954 448.908 594.283 448.709 594.989 447.911C595.09 447.812 595.292 447.612 595.09 446.715C594.889 445.519 593.981 443.426 592.568 441.831C591.358 440.735 589.744 439.539 587.625 439.539Z" fill="#333333"/>
<path d="M548.988 206.79C548.988 207.189 547.273 220.645 547.273 220.645H541.624C541.624 220.645 540.413 232.308 545.76 233.404C555.747 235.398 567.147 222.24 567.147 222.24L559.076 220.645L559.681 208.186L548.988 206.79Z" fill="white"/>
<path d="M547.878 234.7C547.071 234.7 546.264 234.6 545.457 234.501C539.404 233.305 540.413 221.941 540.615 220.645C540.716 220.147 541.119 219.748 541.624 219.748H546.466C547.172 214.565 547.979 207.388 548.08 206.89C548.08 206.591 548.181 206.391 548.484 206.192C548.685 205.993 548.988 205.893 549.291 205.993L559.883 207.388C560.387 207.488 560.791 207.887 560.791 208.385L560.186 220.047L567.449 221.543C567.752 221.642 568.054 221.842 568.155 222.24C568.256 222.639 568.155 222.938 567.954 223.237C567.449 223.436 557.563 234.7 547.878 234.7ZM542.532 221.642C542.33 225.131 542.632 231.809 545.861 232.507C553.326 234.002 562.002 226.128 565.129 222.938L558.773 221.642C558.269 221.543 557.966 221.144 557.966 220.645L558.572 209.083L549.896 207.986C549.593 210.578 548.786 216.758 548.282 220.845C548.181 221.343 547.777 221.742 547.273 221.742H542.532V221.642Z" fill="#333333"/>
<path d="M568.861 199.414C567.651 208.285 557.26 215.362 549.492 214.366C543.44 213.568 538.9 203.202 540.111 194.231C541.321 185.26 549.291 180.475 557.058 181.472C564.826 182.469 569.971 190.542 568.861 199.414Z" fill="white"/>
<path d="M551.006 215.462C550.4 215.462 549.896 215.462 549.291 215.362C542.128 214.366 537.79 202.903 539.001 194.131C540.312 184.263 549.19 179.478 557.059 180.475C565.331 181.572 570.98 190.144 569.769 199.514C569.164 203.8 566.44 208.086 562.304 211.276C558.874 213.967 554.738 215.462 551.006 215.462ZM555.041 182.369C548.685 182.369 542.128 186.555 541.019 194.43C539.909 202.903 544.247 212.771 549.593 213.468C553.124 213.967 557.462 212.571 561.195 209.78C564.927 206.989 567.348 203.202 567.853 199.414C568.962 191.041 564.019 183.465 556.857 182.568C556.251 182.369 555.646 182.369 555.041 182.369Z" fill="#333333"/>
<path fill-rule="evenodd" clip-rule="evenodd" d="M570.475 218.552C570.475 218.552 565.331 208.584 564.322 202.404C563.313 196.224 561.699 191.838 558.572 188.449C555.343 184.96 552.519 183.465 552.519 183.465C552.519 183.465 549.997 186.057 548.181 186.854C543.54 188.948 542.027 187.951 540.716 186.456C541.523 184.163 543.54 182.369 545.76 181.272C547.878 180.176 550.299 179.677 552.62 179.079C554.94 178.581 557.361 178.083 559.58 178.481C562.405 179.079 564.725 181.073 566.238 183.366C567.752 185.758 568.76 188.449 569.568 191.041C571.282 196.124 572.997 201.308 574.006 206.69C574.41 208.783 574.612 210.877 574.006 212.97C573.3 215.063 571.989 216.857 570.475 218.552Z" fill="white"/>
<path d="M569.971 215.163C569.769 215.163 569.568 215.063 569.366 214.964C569.164 214.764 564.221 211.076 563.212 202.404C562.506 196.523 560.791 192.337 557.664 188.948C555.444 186.555 553.427 185.16 552.418 184.462C551.51 185.26 549.795 186.854 548.383 187.452C543.54 189.645 541.422 188.748 539.707 186.854C539.303 186.456 539.404 185.858 539.808 185.459C540.211 185.06 540.817 185.16 541.22 185.559C542.128 186.555 543.137 187.652 547.576 185.658C548.887 185.06 550.905 183.166 551.611 182.469C551.914 182.17 552.418 182.07 552.821 182.269C552.922 182.369 555.848 183.964 559.177 187.452C562.607 191.141 564.524 195.726 565.23 202.006C566.138 209.78 570.476 213.07 570.576 213.169C570.98 213.468 571.081 214.166 570.778 214.565C570.576 215.063 570.274 215.163 569.971 215.163Z" fill="#333333"/>
<path d="M546.668 196.024C547.172 194.928 545.962 193.732 544.953 193.433C543.641 193.034 542.027 193.832 542.632 195.327C542.834 195.925 543.44 196.622 544.045 196.722C544.852 196.921 545.558 196.423 545.76 195.626C545.962 194.928 545.76 194.43 545.155 194.031C544.751 193.832 544.045 193.633 543.641 193.732C543.339 193.732 543.137 193.932 543.036 194.33C542.935 194.829 543.44 195.128 543.843 195.327C544.146 195.526 544.247 195.626 544.146 195.127C544.146 194.529 543.944 194.928 543.944 195.127C543.944 195.227 543.944 195.227 543.843 195.327C544.247 195.227 544.347 195.127 544.146 195.028C544.045 194.828 543.742 194.729 544.045 194.629C544.247 194.529 544.751 194.828 544.953 194.928C545.155 195.127 545.356 195.227 545.558 195.426C545.76 195.526 546.062 195.626 546.163 195.925C546.264 196.124 546.567 196.224 546.668 196.024Z" fill="#333333"/>
<path d="M556.05 196.822C555.243 195.028 553.83 193.633 551.712 193.832C550.804 193.932 550.4 194.33 550.199 195.227C549.997 196.025 550.098 196.822 550.905 197.221C551.813 197.719 553.023 197.121 553.326 196.224C553.931 194.729 552.015 194.33 551.006 194.729C550.098 195.028 550.199 196.523 551.207 196.423C551.308 196.423 552.015 196.423 552.115 196.324C552.418 195.825 551.914 195.726 551.712 195.825C551.611 195.925 551.006 196.324 551.308 195.626C551.409 195.227 552.721 196.025 553.124 196.224C553.83 196.623 554.536 196.922 555.243 197.42C555.545 197.619 556.251 197.42 556.05 196.822Z" fill="#333333"/>
<path d="M546.97 198.318C546.264 199.115 545.659 200.411 545.356 201.507C544.953 203.002 546.668 203.501 547.777 203.002C547.979 202.903 548.08 202.604 547.878 202.504C547.475 202.305 546.87 202.404 546.567 202.205C546.063 201.806 546.264 201.308 546.365 200.81C546.567 200.012 546.769 199.115 547.172 198.417C547.172 198.318 547.071 198.218 546.97 198.318Z" fill="#333333"/>
<path fill-rule="evenodd" clip-rule="evenodd" d="M552.721 206.89C553.124 206.391 553.729 204.896 553.427 204.996C553.023 205.096 552.317 205.096 552.014 204.996C551.914 204.996 551.813 204.996 551.813 204.996C551.207 204.996 550.4 204.996 549.896 205.395C548.585 205.096 547.677 205.893 547.374 206.292C547.172 206.491 547.172 206.69 547.273 206.989C547.677 207.687 548.484 208.385 549.291 208.584C550.602 208.883 551.914 208.185 552.721 206.89Z" fill="#333333"/>
<path d="M293.458 273.774H290.129L286.497 289.324L267.229 273.774H190.661C187.13 273.774 184.306 270.983 184.306 267.494V220.645C184.306 217.157 187.13 214.366 190.661 214.366H293.458C296.989 214.366 299.814 217.157 299.814 220.645V267.494C299.814 270.983 296.888 273.774 293.458 273.774Z" fill="white"/>
<path d="M286.497 290.52C286.195 290.52 285.892 290.42 285.69 290.221L266.725 274.97H190.661C186.525 274.97 183.095 271.581 183.095 267.494V220.645C183.095 216.558 186.525 213.169 190.661 213.169H293.458C297.594 213.169 301.024 216.558 301.024 220.645V267.494C301.024 271.581 297.594 274.97 293.458 274.97H291.138L287.708 289.523C287.607 289.922 287.304 290.32 286.901 290.42C286.8 290.52 286.598 290.52 286.497 290.52ZM190.661 215.761C187.836 215.761 185.617 218.054 185.617 220.745V267.594C185.617 270.385 187.937 272.578 190.661 272.578H267.229C267.532 272.578 267.834 272.677 268.036 272.877L285.791 287.131L288.918 273.574C289.019 272.976 289.524 272.578 290.129 272.578H293.458C296.283 272.578 298.502 270.285 298.502 267.594V220.745C298.502 217.954 296.182 215.761 293.458 215.761H190.661Z" fill="#333333"/>
<path d="M212.855 231.211L216.587 238.687L224.859 239.883L218.807 245.665L220.219 253.838L212.855 250.051L205.39 253.838L206.802 245.665L200.749 239.883L209.122 238.687L212.855 231.211Z" fill="#9ADAF3"/>
<path d="M205.39 255.333C205.087 255.333 204.784 255.233 204.482 255.034C203.977 254.735 203.775 254.137 203.876 253.539L205.188 246.163L199.74 240.88C199.337 240.481 199.135 239.883 199.337 239.385C199.539 238.886 199.942 238.487 200.547 238.388L208.113 237.291L211.442 230.513C211.745 230.015 212.249 229.716 212.754 229.716C213.258 229.716 213.863 230.015 214.065 230.513L217.394 237.291L224.96 238.388C225.566 238.487 225.969 238.886 226.171 239.385C226.373 239.883 226.171 240.481 225.767 240.88L220.32 246.163L221.631 253.539C221.732 254.137 221.53 254.635 221.026 255.034C220.522 255.333 219.916 255.433 219.412 255.134L212.653 251.645L205.894 255.134C205.894 255.333 205.591 255.333 205.39 255.333ZM212.855 248.555C213.056 248.555 213.359 248.655 213.561 248.754L218.302 251.246L217.394 246.063C217.293 245.565 217.495 245.066 217.798 244.767L221.631 241.079L216.385 240.282C215.881 240.182 215.478 239.883 215.276 239.484L212.956 234.7L210.635 239.484C210.434 239.883 210.03 240.182 209.526 240.282L204.28 241.079L208.113 244.767C208.517 245.066 208.618 245.565 208.517 246.063L207.609 251.246L212.35 248.754C212.35 248.555 212.552 248.555 212.855 248.555Z" fill="#333333"/>
<path d="M282.26 234.799H242.413C240.799 234.799 239.487 233.504 239.487 231.909C239.487 230.314 240.799 229.018 242.413 229.018H282.26C283.874 229.018 285.186 230.314 285.186 231.909C285.186 233.504 283.874 234.799 282.26 234.799Z" fill="#CCCCCC"/>
<path d="M282.26 246.462H242.413C240.799 246.462 239.487 245.166 239.487 243.571C239.487 241.976 240.799 240.681 242.413 240.681H282.26C283.874 240.681 285.186 241.976 285.186 243.571C285.186 245.166 283.874 246.462 282.26 246.462Z" fill="#CCCCCC"/>
<path d="M282.26 258.024H242.413C240.799 258.024 239.487 256.729 239.487 255.134C239.487 253.539 240.799 252.243 242.413 252.243H282.26C283.874 252.243 285.186 253.539 285.186 255.134C285.186 256.729 283.874 258.024 282.26 258.024Z" fill="#CCCCCC"/>
<path d="M296.384 352.619H276.409C271.668 352.619 267.834 348.832 267.834 344.147V324.411C267.834 319.726 271.668 315.938 276.409 315.938H296.384C301.125 315.938 304.958 319.726 304.958 324.411V344.147C304.857 348.832 301.125 352.619 296.384 352.619Z" fill="#9ADAF3"/>
<path d="M296.384 354.114H276.409C270.861 354.114 266.321 349.629 266.321 344.146V324.41C266.321 318.928 270.861 314.442 276.409 314.442H296.384C301.932 314.442 306.472 318.928 306.472 324.41V344.146C306.371 349.728 301.932 354.114 296.384 354.114ZM276.409 317.532C272.576 317.532 269.348 320.622 269.348 324.51V344.246C269.348 348.034 272.475 351.224 276.409 351.224H296.384C300.217 351.224 303.445 348.134 303.445 344.246V324.51C303.445 320.722 300.318 317.532 296.384 317.532H276.409Z" fill="#333333"/>
<path fill-rule="evenodd" clip-rule="evenodd" d="M286.396 325.606L289.221 331.388L295.677 332.285L291.037 336.77L292.147 343.05L286.396 340.06L280.646 343.05L281.756 336.77L277.115 332.285L283.471 331.388L286.396 325.606Z" fill="white"/>
<path d="M342.486 352.619H322.512C317.77 352.619 313.937 348.832 313.937 344.147V324.411C313.937 319.726 317.77 315.938 322.512 315.938H342.486C347.227 315.938 351.061 319.726 351.061 324.411V344.147C350.96 348.832 347.127 352.619 342.486 352.619Z" fill="#9ADAF3"/>
<path d="M342.486 354.114H322.512C316.963 354.114 312.424 349.629 312.424 344.146V324.41C312.424 318.928 316.963 314.442 322.512 314.442H342.486C348.034 314.442 352.574 318.928 352.574 324.41V344.146C352.473 349.728 348.034 354.114 342.486 354.114ZM322.512 317.532C318.678 317.532 315.45 320.622 315.45 324.51V344.246C315.45 348.034 318.577 351.224 322.512 351.224H342.486C346.319 351.224 349.548 348.134 349.548 344.246V324.51C349.548 320.722 346.42 317.532 342.486 317.532H322.512Z" fill="#333333"/>
<path d="M331.087 342.053C330.582 342.053 330.078 341.854 329.674 341.455L322.512 334.378C321.705 333.581 321.705 332.384 322.512 331.587C323.319 330.79 324.529 330.79 325.336 331.587L331.087 337.269L341.376 327.101C342.183 326.304 343.394 326.304 344.201 327.101C345.008 327.899 345.008 329.095 344.201 329.892L332.499 341.555C332.095 341.854 331.591 342.053 331.087 342.053Z" fill="white"/>
<defs>
<linearGradient id="paint0_linear_1916_5465" x1="384.52" y1="257.462" x2="444.6" y2="251.487" gradientUnits="userSpaceOnUse">
<stop stop-color="#FFA363"/>
<stop offset="0.9127" stop-color="#FF7743"/>
</linearGradient>
<linearGradient id="paint1_linear_1916_5465" x1="468.826" y1="263.147" x2="611.276" y2="263.147" gradientUnits="userSpaceOnUse">
<stop stop-color="#FFA363"/>
<stop offset="0.9127" stop-color="#FF7743"/>
</linearGradient>
</defs>
</svg>
