<svg width="544" height="510" viewBox="0 0 544 510" fill="none" xmlns="http://www.w3.org/2000/svg">
<g filter="url(#filter0_d)">
<rect x="92" y="21" width="360" height="448" rx="8" fill="white"/>
</g>
<g clip-path="url(#clip0)">
<path d="M218.531 336.109H217.367V322.625H218.531V336.109Z" fill="#1A73E9"/>
<path d="M227.892 328.914H221.369V327.734H227.892V328.914ZM237.183 328.914H230.659V327.734H237.183V328.914ZM246.473 328.914H239.95V327.734H246.473V328.914ZM259.883 328.914H253.359V327.734H259.883V328.914ZM269.173 328.914H262.65V327.734H269.173V328.914ZM278.464 328.914H271.941V327.734H278.464V328.914ZM291.873 328.914H285.35V327.734H291.873V328.914ZM301.164 328.914H294.641V327.734H301.164V328.914ZM310.455 328.914H303.931V327.734H310.455V328.914ZM319.745 328.914H313.222V327.734H319.745V328.914Z" fill="black"/>
<path opacity="0.42" d="M204 357H412" stroke="black"/>
</g>
<g clip-path="url(#clip1)">
<path d="M146.82 265.547V270H145.32V258.625H149.516C150.76 258.625 151.734 258.943 152.438 259.578C153.146 260.214 153.5 261.055 153.5 262.102C153.5 263.206 153.154 264.057 152.461 264.656C151.773 265.25 150.786 265.547 149.5 265.547H146.82ZM146.82 264.32H149.516C150.318 264.32 150.932 264.133 151.359 263.758C151.786 263.378 152 262.831 152 262.117C152 261.44 151.786 260.898 151.359 260.492C150.932 260.086 150.346 259.875 149.602 259.859H146.82V264.32ZM154.845 265.695C154.845 264.867 155.007 264.122 155.33 263.461C155.658 262.799 156.111 262.289 156.689 261.93C157.272 261.57 157.936 261.391 158.681 261.391C159.832 261.391 160.762 261.789 161.47 262.586C162.184 263.383 162.541 264.443 162.541 265.766V265.867C162.541 266.69 162.382 267.43 162.064 268.086C161.752 268.737 161.301 269.245 160.712 269.609C160.129 269.974 159.457 270.156 158.697 270.156C157.551 270.156 156.621 269.758 155.908 268.961C155.199 268.164 154.845 267.109 154.845 265.797V265.695ZM156.298 265.867C156.298 266.805 156.515 267.557 156.947 268.125C157.384 268.693 157.968 268.977 158.697 268.977C159.431 268.977 160.015 268.69 160.447 268.117C160.879 267.539 161.095 266.732 161.095 265.695C161.095 264.768 160.874 264.018 160.431 263.445C159.994 262.867 159.41 262.578 158.681 262.578C157.968 262.578 157.392 262.862 156.955 263.43C156.517 263.997 156.298 264.81 156.298 265.867ZM167.894 268.977C168.409 268.977 168.86 268.82 169.245 268.508C169.631 268.195 169.844 267.805 169.886 267.336H171.253C171.227 267.82 171.06 268.281 170.753 268.719C170.446 269.156 170.034 269.505 169.519 269.766C169.008 270.026 168.467 270.156 167.894 270.156C166.743 270.156 165.826 269.773 165.144 269.008C164.467 268.237 164.128 267.185 164.128 265.852V265.609C164.128 264.786 164.279 264.055 164.581 263.414C164.883 262.773 165.316 262.276 165.878 261.922C166.446 261.568 167.115 261.391 167.886 261.391C168.834 261.391 169.62 261.674 170.245 262.242C170.876 262.81 171.211 263.547 171.253 264.453H169.886C169.844 263.906 169.636 263.458 169.261 263.109C168.891 262.755 168.433 262.578 167.886 262.578C167.152 262.578 166.581 262.844 166.175 263.375C165.774 263.901 165.573 264.664 165.573 265.664V265.938C165.573 266.911 165.774 267.661 166.175 268.188C166.576 268.714 167.149 268.977 167.894 268.977ZM176.419 268.977C176.934 268.977 177.385 268.82 177.77 268.508C178.156 268.195 178.369 267.805 178.411 267.336H179.778C179.752 267.82 179.585 268.281 179.278 268.719C178.971 269.156 178.559 269.505 178.044 269.766C177.533 270.026 176.992 270.156 176.419 270.156C175.268 270.156 174.351 269.773 173.669 269.008C172.992 268.237 172.653 267.185 172.653 265.852V265.609C172.653 264.786 172.804 264.055 173.106 263.414C173.408 262.773 173.841 262.276 174.403 261.922C174.971 261.568 175.64 261.391 176.411 261.391C177.359 261.391 178.145 261.674 178.77 262.242C179.401 262.81 179.736 263.547 179.778 264.453H178.411C178.369 263.906 178.161 263.458 177.786 263.109C177.416 262.755 176.958 262.578 176.411 262.578C175.677 262.578 175.106 262.844 174.7 263.375C174.299 263.901 174.098 264.664 174.098 265.664V265.938C174.098 266.911 174.299 267.661 174.7 268.188C175.101 268.714 175.674 268.977 176.419 268.977ZM187.022 261.547H188.467V270H187.022V263.836L183.123 270H181.678V261.547H183.123V267.719L187.022 261.547ZM197.398 261.547V270H195.945V266.711H193.766L191.773 270H190.211L192.336 266.492C191.794 266.294 191.378 265.99 191.086 265.578C190.799 265.161 190.656 264.677 190.656 264.125C190.656 263.354 190.945 262.734 191.523 262.266C192.102 261.792 192.875 261.552 193.844 261.547H197.398ZM192.109 264.141C192.109 264.552 192.25 264.885 192.531 265.141C192.812 265.391 193.185 265.518 193.648 265.523H195.945V262.719H193.867C193.331 262.719 192.904 262.852 192.586 263.117C192.268 263.378 192.109 263.719 192.109 264.141Z" fill="#1A73E9"/>
<path opacity="0.42" d="M132 293H412" stroke="black"/>
</g>
<g filter="url(#filter1_dd)">
<path d="M132 393.8C132 389.32 132 387.079 132.872 385.368C133.639 383.863 134.863 382.639 136.368 381.872C138.079 381 140.32 381 144.8 381H399.2C403.68 381 405.921 381 407.632 381.872C409.137 382.639 410.361 383.863 411.128 385.368C412 387.079 412 389.32 412 393.8V416.2C412 420.68 412 422.921 411.128 424.632C410.361 426.137 409.137 427.361 407.632 428.128C405.921 429 403.68 429 399.2 429H144.8C140.32 429 138.079 429 136.368 428.128C134.863 427.361 133.639 426.137 132.872 424.632C132 422.921 132 420.68 132 416.2V393.8Z" fill="#1A73E9"/>
<path d="M215.455 405.283C215.455 406.258 215.286 407.115 214.949 407.854C214.612 408.587 214.129 409.152 213.5 409.549C212.876 409.941 212.156 410.137 211.34 410.137C210.533 410.137 209.813 409.941 209.18 409.549C208.551 409.152 208.063 408.59 207.717 407.86C207.375 407.131 207.202 406.29 207.197 405.338V404.777C207.197 403.807 207.368 402.95 207.71 402.207C208.056 401.464 208.542 400.897 209.166 400.505C209.795 400.108 210.515 399.91 211.326 399.91C212.137 399.91 212.855 400.106 213.479 400.498C214.108 400.885 214.594 401.446 214.936 402.18C215.277 402.909 215.451 403.759 215.455 404.729V405.283ZM213.726 404.764C213.726 403.661 213.516 402.815 213.097 402.228C212.682 401.64 212.092 401.346 211.326 401.346C210.579 401.346 209.993 401.64 209.569 402.228C209.15 402.811 208.936 403.638 208.927 404.709V405.283C208.927 406.377 209.139 407.222 209.562 407.819C209.991 408.416 210.583 408.715 211.34 408.715C212.105 408.715 212.693 408.423 213.104 407.84C213.518 407.257 213.726 406.404 213.726 405.283V404.764ZM225.281 401.441H222.178V410H220.462V401.441H217.386V400.047H225.281V401.441ZM235.969 410H234.246V401.441H229.864V410H228.142V400.047H235.969V410ZM241.29 406.302V410H239.561V400.047H243.368C244.48 400.047 245.362 400.336 246.014 400.915C246.67 401.494 246.998 402.259 246.998 403.212C246.998 404.187 246.677 404.946 246.034 405.488C245.396 406.031 244.501 406.302 243.348 406.302H241.29ZM241.29 404.914H243.368C243.983 404.914 244.453 404.771 244.776 404.483C245.1 404.192 245.262 403.772 245.262 403.226C245.262 402.688 245.098 402.259 244.77 401.94C244.441 401.617 243.99 401.451 243.416 401.441H241.29V404.914ZM254.37 407.683H250.515L249.708 410H247.91L251.67 400.047H253.222L256.988 410H255.184L254.37 407.683ZM251 406.288H253.885L252.442 402.159L251 406.288ZM259.623 410V400.047H263.034C264.16 400.047 265.017 400.272 265.604 400.724C266.192 401.175 266.486 401.847 266.486 402.74C266.486 403.196 266.363 403.606 266.117 403.971C265.871 404.335 265.511 404.618 265.037 404.818C265.575 404.964 265.99 405.24 266.281 405.646C266.577 406.047 266.726 406.53 266.726 407.095C266.726 408.029 266.425 408.747 265.823 409.248C265.226 409.749 264.369 410 263.253 410H259.623ZM261.353 405.509V408.619H263.273C263.816 408.619 264.24 408.485 264.545 408.216C264.85 407.947 265.003 407.573 265.003 407.095C265.003 406.06 264.474 405.532 263.417 405.509H261.353ZM261.353 404.237H263.048C263.586 404.237 264.005 404.117 264.306 403.875C264.611 403.629 264.764 403.283 264.764 402.836C264.764 402.344 264.622 401.988 264.34 401.77C264.062 401.551 263.627 401.441 263.034 401.441H261.353V404.237ZM276.053 400.047H277.782V410H276.053V402.911L271.685 410H269.955V400.047H271.685V407.143L276.053 400.047ZM288.34 401.441H285.236V410H283.521V401.441H280.444V400.047H288.34V401.441ZM292.964 403.854H295.001C295.73 403.854 296.366 403.98 296.908 404.23C297.451 404.481 297.863 404.837 298.146 405.297C298.428 405.757 298.569 406.29 298.569 406.896C298.569 407.826 298.253 408.574 297.619 409.139C296.99 409.704 296.131 409.991 295.042 410H291.234V400.047H292.964V403.854ZM292.964 405.242V408.619H294.994C295.577 408.619 296.031 408.462 296.354 408.147C296.683 407.828 296.847 407.407 296.847 406.883C296.847 406.382 296.687 405.985 296.368 405.693C296.049 405.402 295.607 405.251 295.042 405.242H292.964ZM309.499 405.734H308.323V410H306.601V400.047H308.323V404.23H309.273L312.199 400.047H314.318L310.9 404.812L314.619 410H312.541L309.499 405.734ZM324.801 405.283C324.801 406.258 324.632 407.115 324.295 407.854C323.958 408.587 323.475 409.152 322.846 409.549C322.221 409.941 321.501 410.137 320.686 410.137C319.879 410.137 319.159 409.941 318.525 409.549C317.896 409.152 317.409 408.59 317.062 407.86C316.721 407.131 316.548 406.29 316.543 405.338V404.777C316.543 403.807 316.714 402.95 317.056 402.207C317.402 401.464 317.887 400.897 318.512 400.505C319.141 400.108 319.861 399.91 320.672 399.91C321.483 399.91 322.201 400.106 322.825 400.498C323.454 400.885 323.939 401.446 324.281 402.18C324.623 402.909 324.796 403.759 324.801 404.729V405.283ZM323.071 404.764C323.071 403.661 322.862 402.815 322.442 402.228C322.028 401.64 321.438 401.346 320.672 401.346C319.924 401.346 319.339 401.64 318.915 402.228C318.496 402.811 318.282 403.638 318.272 404.709V405.283C318.272 406.377 318.484 407.222 318.908 407.819C319.337 408.416 319.929 408.715 320.686 408.715C321.451 408.715 322.039 408.423 322.449 407.84C322.864 407.257 323.071 406.404 323.071 405.283V404.764ZM336.944 412.447H335.304V410H328.748V412.447H327.08L327.025 408.619H327.825C328.222 408.236 328.538 407.68 328.775 406.951C329.012 406.217 329.165 405.388 329.233 404.463L329.493 400.047H335.769V408.619H337.033L336.944 412.447ZM329.78 408.619H334.046V401.441H331.141L330.977 404.244C330.854 406.117 330.455 407.576 329.78 408.619Z" fill="white"/>
</g>
<g opacity="0.6">
<g clip-path="url(#clip2)">
<path d="M255.888 137.523C255.701 137.198 255.277 137.089 254.951 137.277L253.235 138.273V136.291C253.235 135.916 252.93 135.61 252.555 135.61C252.18 135.61 251.875 135.916 251.875 136.291V138.273L250.159 137.277C249.834 137.089 249.41 137.198 249.222 137.523C249.035 137.849 249.143 138.273 249.469 138.46L251.194 139.466L249.469 140.471C249.143 140.659 249.035 141.083 249.222 141.408C249.41 141.734 249.834 141.842 250.159 141.655L251.875 140.659V142.641C251.875 143.015 252.18 143.321 252.555 143.321C252.93 143.321 253.235 143.015 253.235 142.641V140.659L254.951 141.655C255.277 141.842 255.701 141.734 255.888 141.408C256.075 141.083 255.967 140.659 255.641 140.471L253.916 139.466L255.641 138.46C255.967 138.263 256.085 137.849 255.888 137.523Z" fill="black"/>
<path d="M262.189 141.4C262.376 141.725 262.8 141.834 263.125 141.646L264.841 140.651V142.632C264.841 143.007 265.147 143.313 265.521 143.313C265.896 143.313 266.202 143.007 266.202 142.632V140.651L267.917 141.646C268.243 141.834 268.667 141.725 268.854 141.4C269.042 141.075 268.933 140.651 268.608 140.463L266.882 139.457L268.608 138.452C268.933 138.264 269.042 137.84 268.854 137.515C268.667 137.19 268.243 137.081 267.917 137.268L266.202 138.264V136.282C266.202 135.908 265.896 135.602 265.521 135.602C265.147 135.602 264.841 135.908 264.841 136.282V138.264L263.125 137.278C262.8 137.091 262.376 137.199 262.189 137.525C262.001 137.85 262.11 138.274 262.435 138.462L264.161 139.467L262.435 140.463C262.11 140.651 262.001 141.075 262.189 141.4Z" fill="black"/>
<path d="M260.966 146.566V147.769C260.966 148.055 261.203 148.292 261.489 148.292H269.565C269.85 148.292 270.087 148.055 270.087 147.769V146.566C270.087 146.28 269.85 146.044 269.565 146.044H261.489C261.193 146.044 260.966 146.28 260.966 146.566Z" fill="black"/>
<path d="M280.648 112.942H280.589V110.26C280.589 105.596 276.773 101.632 272.119 101.711C267.593 101.79 263.925 105.498 263.925 110.043V110.3C263.925 110.684 264.24 111 264.625 111H266.863C267.248 111 267.563 110.684 267.563 110.3V110.221C267.563 107.716 269.446 105.517 271.951 105.36C274.672 105.192 276.94 107.351 276.94 110.033V112.932H270.038V112.942H263.658C262.475 112.982 261.519 113.938 261.519 115.131V127.259C261.519 128.472 262.505 129.458 263.718 129.458H280.638C281.851 129.458 282.837 128.472 282.837 127.259V115.141C282.847 113.928 281.861 112.942 280.648 112.942ZM273.489 121.748C273.322 121.866 273.272 121.994 273.272 122.191C273.282 123.079 273.282 123.966 273.272 124.863C273.292 125.238 273.105 125.593 272.769 125.761C271.99 126.155 271.211 125.603 271.211 124.863C271.211 124.863 271.211 124.863 271.211 124.854C271.211 123.966 271.211 123.069 271.211 122.181C271.211 122.004 271.172 121.876 271.014 121.757C270.206 121.166 269.94 120.15 270.344 119.253C270.738 118.385 271.695 117.872 272.592 118.06C273.598 118.257 274.298 119.075 274.308 120.071C274.337 120.771 274.051 121.343 273.489 121.748Z" fill="black"/>
<path d="M273.922 146.566V147.769C273.922 148.055 274.159 148.292 274.445 148.292H282.521C282.807 148.292 283.043 148.055 283.043 147.769V146.566C283.043 146.28 282.807 146.044 282.521 146.044H274.445C274.159 146.044 273.922 146.28 273.922 146.566Z" fill="black"/>
<path d="M275.146 141.4C275.333 141.725 275.757 141.834 276.082 141.646L277.798 140.651V142.632C277.798 143.007 278.104 143.313 278.478 143.313C278.853 143.313 279.159 143.007 279.159 142.632V140.651L280.874 141.646C281.2 141.834 281.624 141.725 281.811 141.4C281.999 141.075 281.89 140.651 281.565 140.463L279.839 139.457L281.565 138.452C281.89 138.264 281.999 137.84 281.811 137.515C281.624 137.19 281.2 137.081 280.874 137.268L279.159 138.264V136.282C279.159 135.908 278.853 135.602 278.478 135.602C278.104 135.602 277.798 135.908 277.798 136.282V138.264L276.082 137.268C275.757 137.081 275.333 137.19 275.146 137.515C274.958 137.84 275.067 138.264 275.392 138.452L277.118 139.457L275.392 140.463C275.067 140.651 274.958 141.075 275.146 141.4Z" fill="black"/>
<path d="M295.478 146.044H287.402C287.116 146.044 286.879 146.28 286.879 146.566V147.769C286.879 148.055 287.116 148.292 287.402 148.292H295.478C295.764 148.292 296 148.055 296 147.769V146.566C296 146.28 295.764 146.044 295.478 146.044Z" fill="black"/>
<path d="M248.523 148.292H256.598C256.884 148.292 257.121 148.055 257.121 147.769V146.566C257.121 146.28 256.884 146.044 256.598 146.044H248.523C248.237 146.044 248 146.28 248 146.566V147.769C248 148.055 248.237 148.292 248.523 148.292Z" fill="black"/>
<path d="M288.111 141.4C288.299 141.725 288.723 141.834 289.048 141.646L290.764 140.651V142.632C290.764 143.007 291.07 143.313 291.444 143.313C291.819 143.313 292.125 143.007 292.125 142.632V140.651L293.84 141.646C294.166 141.834 294.59 141.725 294.777 141.4C294.964 141.075 294.856 140.651 294.53 140.463L292.805 139.457L294.53 138.452C294.856 138.264 294.964 137.84 294.777 137.515C294.59 137.19 294.166 137.081 293.84 137.268L292.125 138.264V136.282C292.125 135.908 291.819 135.602 291.444 135.602C291.07 135.602 290.764 135.908 290.764 136.282V138.264L289.048 137.268C288.723 137.081 288.299 137.19 288.111 137.515C287.924 137.84 288.033 138.264 288.358 138.452L290.083 139.457L288.358 140.463C288.033 140.651 287.914 141.075 288.111 141.4Z" fill="black"/>
</g>
</g>
<path opacity="0.6" d="M145.17 212V202.047H148.424C149.504 202.047 150.315 202.27 150.857 202.717C151.404 203.163 151.678 203.824 151.678 204.699C151.678 205.164 151.546 205.576 151.281 205.937C151.017 206.292 150.657 206.568 150.201 206.764C150.739 206.914 151.163 207.201 151.473 207.625C151.787 208.044 151.944 208.546 151.944 209.129C151.944 210.022 151.655 210.724 151.076 211.234C150.497 211.745 149.679 212 148.622 212H145.17ZM146.482 207.345V210.927H148.649C149.26 210.927 149.741 210.77 150.092 210.455C150.447 210.136 150.625 209.699 150.625 209.143C150.625 207.944 149.973 207.345 148.67 207.345H146.482ZM146.482 206.292H148.465C149.039 206.292 149.497 206.148 149.839 205.861C150.185 205.574 150.358 205.185 150.358 204.692C150.358 204.146 150.199 203.749 149.88 203.503C149.561 203.252 149.076 203.127 148.424 203.127H146.482V206.292ZM155.325 207.153H157.246C158.085 207.162 158.748 207.381 159.235 207.81C159.723 208.238 159.967 208.819 159.967 209.553C159.967 210.291 159.716 210.883 159.215 211.33C158.714 211.777 158.039 212 157.191 212H154.061V204.604H155.325V207.153ZM162.605 212H161.334V204.604H162.605V212ZM155.325 208.186V210.968H157.205C157.679 210.968 158.046 210.847 158.306 210.605C158.565 210.359 158.695 210.024 158.695 209.601C158.695 209.19 158.568 208.855 158.312 208.596C158.062 208.331 157.709 208.195 157.253 208.186H155.325ZM174.836 212H173.571V205.649H170.167V212H168.896V204.604H174.836V212ZM176.781 208.233C176.781 207.509 176.923 206.857 177.205 206.278C177.492 205.7 177.889 205.253 178.395 204.938C178.905 204.624 179.486 204.467 180.138 204.467C181.145 204.467 181.958 204.815 182.578 205.513C183.202 206.21 183.515 207.137 183.515 208.295V208.384C183.515 209.104 183.376 209.751 183.098 210.325C182.824 210.895 182.43 211.339 181.915 211.658C181.405 211.977 180.817 212.137 180.151 212.137C179.149 212.137 178.335 211.788 177.711 211.091C177.091 210.394 176.781 209.471 176.781 208.322V208.233ZM178.053 208.384C178.053 209.204 178.242 209.863 178.62 210.359C179.003 210.856 179.513 211.104 180.151 211.104C180.794 211.104 181.304 210.854 181.683 210.353C182.061 209.847 182.25 209.14 182.25 208.233C182.25 207.422 182.056 206.766 181.669 206.265C181.286 205.759 180.776 205.506 180.138 205.506C179.513 205.506 179.01 205.754 178.627 206.251C178.244 206.748 178.053 207.459 178.053 208.384ZM191.305 204.604V212H190.033V205.649H187.518L187.367 208.418C187.285 209.689 187.071 210.599 186.725 211.146C186.383 211.692 185.838 211.977 185.091 212H184.585V210.886L184.947 210.858C185.357 210.813 185.651 210.576 185.829 210.147C186.007 209.719 186.121 208.926 186.171 207.769L186.308 204.604H191.305ZM196.005 210.147L197.728 204.604H199.081L196.107 213.142C195.647 214.372 194.916 214.987 193.913 214.987L193.674 214.967L193.202 214.878V213.853L193.544 213.88C193.972 213.88 194.305 213.793 194.542 213.62C194.784 213.447 194.982 213.13 195.137 212.67L195.417 211.918L192.778 204.604H194.159L196.005 210.147ZM206.051 212H204.779V209.32C204.223 209.466 203.654 209.539 203.07 209.539C202.145 209.539 201.439 209.302 200.951 208.828C200.468 208.354 200.222 207.68 200.213 206.805V204.597H201.478V206.846C201.5 207.949 202.031 208.5 203.07 208.5C203.654 208.5 204.223 208.427 204.779 208.281V204.604H206.051V212ZM213.116 204.604H214.381V212H213.116V206.606L209.705 212H208.44V204.604H209.705V210.004L213.116 204.604ZM222.157 205.629H219.676V212H218.411V205.629H215.978V204.604H222.157V205.629ZM226.16 212.137C225.158 212.137 224.342 211.809 223.713 211.152C223.084 210.492 222.77 209.61 222.77 208.507V208.274C222.77 207.541 222.909 206.887 223.187 206.312C223.469 205.734 223.861 205.283 224.362 204.959C224.868 204.631 225.415 204.467 226.003 204.467C226.965 204.467 227.712 204.784 228.245 205.417C228.778 206.05 229.045 206.957 229.045 208.138V208.664H224.034C224.052 209.393 224.264 209.983 224.67 210.435C225.08 210.881 225.6 211.104 226.229 211.104C226.675 211.104 227.053 211.013 227.363 210.831C227.673 210.649 227.944 210.407 228.177 210.106L228.949 210.708C228.329 211.66 227.4 212.137 226.16 212.137ZM226.003 205.506C225.493 205.506 225.064 205.693 224.718 206.066C224.371 206.436 224.157 206.955 224.075 207.625H227.78V207.529C227.744 206.887 227.571 206.39 227.261 206.039C226.951 205.684 226.532 205.506 226.003 205.506ZM237.618 207.563C236.493 207.24 235.672 206.843 235.157 206.374C234.647 205.9 234.392 205.317 234.392 204.624C234.392 203.84 234.704 203.193 235.328 202.683C235.957 202.168 236.773 201.91 237.775 201.91C238.459 201.91 239.067 202.042 239.601 202.307C240.138 202.571 240.553 202.936 240.845 203.4C241.141 203.865 241.289 204.373 241.289 204.925H239.97C239.97 204.323 239.778 203.852 239.396 203.51C239.013 203.163 238.473 202.99 237.775 202.99C237.128 202.99 236.622 203.134 236.258 203.421C235.898 203.703 235.718 204.098 235.718 204.604C235.718 205.009 235.889 205.353 236.23 205.636C236.577 205.914 237.162 206.169 237.987 206.401C238.817 206.634 239.464 206.891 239.929 207.174C240.398 207.452 240.744 207.778 240.968 208.151C241.196 208.525 241.31 208.965 241.31 209.471C241.31 210.277 240.995 210.924 240.366 211.412C239.737 211.895 238.896 212.137 237.844 212.137C237.16 212.137 236.522 212.007 235.93 211.747C235.337 211.483 234.879 211.123 234.556 210.667C234.237 210.211 234.077 209.694 234.077 209.115H235.396C235.396 209.717 235.618 210.193 236.06 210.544C236.506 210.89 237.101 211.063 237.844 211.063C238.536 211.063 239.067 210.922 239.437 210.64C239.806 210.357 239.99 209.972 239.99 209.484C239.99 208.997 239.819 208.621 239.478 208.356C239.136 208.088 238.516 207.823 237.618 207.563ZM244.943 202.047L248.197 210.168L251.451 202.047H253.153V212H251.841V208.124L251.964 203.94L248.696 212H247.691L244.431 203.961L244.561 208.124V212H243.248V202.047H244.943ZM258.653 207.563C257.528 207.24 256.707 206.843 256.192 206.374C255.682 205.9 255.427 205.317 255.427 204.624C255.427 203.84 255.739 203.193 256.363 202.683C256.992 202.168 257.808 201.91 258.811 201.91C259.494 201.91 260.103 202.042 260.636 202.307C261.174 202.571 261.588 202.936 261.88 203.4C262.176 203.865 262.324 204.373 262.324 204.925H261.005C261.005 204.323 260.813 203.852 260.431 203.51C260.048 203.163 259.508 202.99 258.811 202.99C258.163 202.99 257.658 203.134 257.293 203.421C256.933 203.703 256.753 204.098 256.753 204.604C256.753 205.009 256.924 205.353 257.266 205.636C257.612 205.914 258.198 206.169 259.022 206.401C259.852 206.634 260.499 206.891 260.964 207.174C261.433 207.452 261.78 207.778 262.003 208.151C262.231 208.525 262.345 208.965 262.345 209.471C262.345 210.277 262.03 210.924 261.401 211.412C260.772 211.895 259.932 212.137 258.879 212.137C258.195 212.137 257.557 212.007 256.965 211.747C256.372 211.483 255.914 211.123 255.591 210.667C255.272 210.211 255.112 209.694 255.112 209.115H256.432C256.432 209.717 256.653 210.193 257.095 210.544C257.541 210.89 258.136 211.063 258.879 211.063C259.572 211.063 260.103 210.922 260.472 210.64C260.841 210.357 261.025 209.972 261.025 209.484C261.025 208.997 260.854 208.621 260.513 208.356C260.171 208.088 259.551 207.823 258.653 207.563ZM266.717 208.288H263.381V207.256H266.717V208.288ZM270.508 208.849H269.585V212H268.313V204.604H269.585V207.734H270.412L272.9 204.604H274.432L271.506 208.158L274.678 212H273.071L270.508 208.849ZM275.529 208.233C275.529 207.509 275.671 206.857 275.953 206.278C276.24 205.7 276.637 205.253 277.143 204.938C277.653 204.624 278.234 204.467 278.886 204.467C279.893 204.467 280.706 204.815 281.326 205.513C281.951 206.21 282.263 207.137 282.263 208.295V208.384C282.263 209.104 282.124 209.751 281.846 210.325C281.572 210.895 281.178 211.339 280.663 211.658C280.153 211.977 279.565 212.137 278.899 212.137C277.897 212.137 277.083 211.788 276.459 211.091C275.839 210.394 275.529 209.471 275.529 208.322V208.233ZM276.801 208.384C276.801 209.204 276.99 209.863 277.368 210.359C277.751 210.856 278.261 211.104 278.899 211.104C279.542 211.104 280.052 210.854 280.431 210.353C280.809 209.847 280.998 209.14 280.998 208.233C280.998 207.422 280.804 206.766 280.417 206.265C280.034 205.759 279.524 205.506 278.886 205.506C278.261 205.506 277.758 205.754 277.375 206.251C276.992 206.748 276.801 207.459 276.801 208.384ZM283.545 210.968L283.982 210.428C284.475 209.79 284.755 208.833 284.823 207.557L284.939 204.604H289.704V210.968H290.654V214.174H289.39V212H284.229V214.174H282.964L282.971 210.968H283.545ZM285.042 210.968H288.439V205.772H286.163L286.088 207.536C286.01 209.008 285.662 210.152 285.042 210.968ZM295.967 210.968L296.404 210.428C296.896 209.79 297.177 208.833 297.245 207.557L297.361 204.604H302.126V210.968H303.076V214.174H301.812V212H296.65V214.174H295.386L295.393 210.968H295.967ZM297.464 210.968H300.861V205.772H298.585L298.51 207.536C298.432 209.008 298.084 210.152 297.464 210.968ZM310.791 204.604V212H309.52V205.649H307.004L306.854 208.418C306.771 209.689 306.557 210.599 306.211 211.146C305.869 211.692 305.325 211.977 304.577 212H304.071V210.886L304.434 210.858C304.844 210.813 305.138 210.576 305.315 210.147C305.493 209.719 305.607 208.926 305.657 207.769L305.794 204.604H310.791ZM318.725 204.604V212H317.453V209.122H315.546L313.803 212H312.436L314.295 208.931C313.821 208.757 313.456 208.491 313.201 208.131C312.951 207.766 312.825 207.342 312.825 206.859C312.825 206.185 313.078 205.643 313.584 205.232C314.09 204.818 314.767 204.608 315.614 204.604H318.725ZM314.097 206.873C314.097 207.233 314.22 207.525 314.466 207.748C314.712 207.967 315.038 208.078 315.443 208.083H317.453V205.629H315.635C315.165 205.629 314.792 205.745 314.514 205.978C314.236 206.205 314.097 206.504 314.097 206.873ZM324.844 212V204.604H327.729C328.713 204.604 329.467 204.777 329.991 205.123C330.52 205.465 330.784 205.968 330.784 206.634C330.784 206.976 330.682 207.285 330.477 207.563C330.271 207.837 329.968 208.047 329.567 208.192C330.014 208.297 330.372 208.502 330.641 208.808C330.914 209.113 331.051 209.478 331.051 209.901C331.051 210.58 330.8 211.1 330.299 211.46C329.802 211.82 329.098 212 328.187 212H324.844ZM326.108 208.753V210.981H328.2C328.729 210.981 329.123 210.883 329.383 210.688C329.647 210.492 329.779 210.216 329.779 209.86C329.779 209.122 329.237 208.753 328.152 208.753H326.108ZM326.108 207.741H327.742C328.927 207.741 329.52 207.395 329.52 206.702C329.52 206.009 328.959 205.652 327.838 205.629H326.108V207.741ZM335.279 208.849H334.356V212H333.085V204.604H334.356V207.734H335.184L337.672 204.604H339.203L336.277 208.158L339.449 212H337.843L335.279 208.849ZM346.85 204.604V212H345.578V205.649H343.062L342.912 208.418C342.83 209.689 342.616 210.599 342.27 211.146C341.928 211.692 341.383 211.977 340.636 212H340.13V210.886L340.492 210.858C340.902 210.813 341.196 210.576 341.374 210.147C341.552 209.719 341.666 208.926 341.716 207.769L341.853 204.604H346.85ZM350.511 207.741H352.288C352.384 206.757 352.732 205.966 353.334 205.369C353.94 204.768 354.703 204.467 355.624 204.467C356.59 204.467 357.381 204.793 357.996 205.444C358.611 206.096 358.944 206.944 358.994 207.987L359.001 208.384C359.001 209.104 358.86 209.753 358.577 210.332C358.295 210.911 357.898 211.357 357.388 211.672C356.877 211.982 356.294 212.137 355.638 212.137C354.685 212.137 353.906 211.827 353.3 211.207C352.694 210.583 352.354 209.774 352.281 208.78H350.511V212H349.246V204.604H350.511V207.741ZM353.532 208.384C353.532 209.204 353.721 209.863 354.1 210.359C354.482 210.856 354.995 211.104 355.638 211.104C356.28 211.104 356.788 210.852 357.162 210.346C357.54 209.84 357.729 209.136 357.729 208.233C357.729 207.427 357.538 206.771 357.155 206.265C356.772 205.759 356.262 205.506 355.624 205.506C354.995 205.506 354.489 205.754 354.106 206.251C353.724 206.748 353.532 207.459 353.532 208.384ZM366.395 212H365.123V209.32C364.567 209.466 363.997 209.539 363.414 209.539C362.489 209.539 361.783 209.302 361.295 208.828C360.812 208.354 360.566 207.68 360.557 206.805V204.597H361.821V206.846C361.844 207.949 362.375 208.5 363.414 208.5C363.997 208.5 364.567 208.427 365.123 208.281V204.604H366.395V212ZM371.744 212.137C370.742 212.137 369.926 211.809 369.297 211.152C368.668 210.492 368.354 209.61 368.354 208.507V208.274C368.354 207.541 368.493 206.887 368.771 206.312C369.053 205.734 369.445 205.283 369.946 204.959C370.452 204.631 370.999 204.467 371.587 204.467C372.549 204.467 373.296 204.784 373.829 205.417C374.362 206.05 374.629 206.957 374.629 208.138V208.664H369.618C369.636 209.393 369.848 209.983 370.254 210.435C370.664 210.881 371.184 211.104 371.812 211.104C372.259 211.104 372.637 211.013 372.947 210.831C373.257 210.649 373.528 210.407 373.761 210.106L374.533 210.708C373.913 211.66 372.984 212.137 371.744 212.137ZM371.587 205.506C371.076 205.506 370.648 205.693 370.302 206.066C369.955 206.436 369.741 206.955 369.659 207.625H373.364V207.529C373.328 206.887 373.155 206.39 372.845 206.039C372.535 205.684 372.116 205.506 371.587 205.506ZM382.392 212H381.127V208.842H377.729V212H376.458V204.604H377.729V207.81H381.127V204.604H382.392V212ZM389.464 204.604H390.729V212H389.464V206.606L386.053 212H384.788V204.604H386.053V210.004L389.464 204.604ZM398.662 204.604V212H397.391V209.122H395.483L393.74 212H392.373L394.232 208.931C393.758 208.757 393.394 208.491 393.139 208.131C392.888 207.766 392.763 207.342 392.763 206.859C392.763 206.185 393.016 205.643 393.521 205.232C394.027 204.818 394.704 204.608 395.552 204.604H398.662ZM394.034 206.873C394.034 207.233 394.157 207.525 394.403 207.748C394.649 207.967 394.975 208.078 395.381 208.083H397.391V205.629H395.572C395.103 205.629 394.729 205.745 394.451 205.978C394.173 206.205 394.034 206.504 394.034 206.873ZM160.779 230.968L161.217 230.428C161.709 229.79 161.989 228.833 162.058 227.557L162.174 224.604H166.938V230.968H167.889V234.174H166.624V232H161.463V234.174H160.198L160.205 230.968H160.779ZM162.276 230.968H165.674V225.772H163.397L163.322 227.536C163.245 229.008 162.896 230.152 162.276 230.968ZM169.656 232V224.604H172.541C173.525 224.604 174.28 224.777 174.804 225.123C175.332 225.465 175.597 225.968 175.597 226.634C175.597 226.976 175.494 227.285 175.289 227.563C175.084 227.837 174.781 228.047 174.38 228.192C174.826 228.297 175.184 228.502 175.453 228.808C175.727 229.113 175.863 229.478 175.863 229.901C175.863 230.58 175.613 231.1 175.111 231.46C174.615 231.82 173.91 232 172.999 232H169.656ZM170.921 228.753V230.981H173.013C173.541 230.981 173.936 230.883 174.195 230.688C174.46 230.492 174.592 230.216 174.592 229.86C174.592 229.122 174.049 228.753 172.965 228.753H170.921ZM170.921 227.741H172.555C173.74 227.741 174.332 227.395 174.332 226.702C174.332 226.009 173.771 225.652 172.65 225.629H170.921V227.741ZM180.126 230.147L181.849 224.604H183.202L180.229 233.142C179.768 234.372 179.037 234.987 178.034 234.987L177.795 234.967L177.323 234.878V233.853L177.665 233.88C178.093 233.88 178.426 233.793 178.663 233.62C178.905 233.447 179.103 233.13 179.258 232.67L179.538 231.918L176.899 224.604H178.28L180.126 230.147ZM187.068 227.304L188.709 224.604H190.186L187.766 228.261L190.261 232H188.798L187.089 229.231L185.38 232H183.91L186.405 228.261L183.985 224.604H185.448L187.068 227.304ZM191.372 228.438C191.372 227.203 191.611 226.233 192.09 225.526C192.568 224.82 193.225 224.467 194.059 224.467C194.446 224.467 194.785 224.533 195.077 224.665V221.5H196.342V224.706C196.661 224.547 197.035 224.467 197.463 224.467C198.301 224.467 198.96 224.82 199.438 225.526C199.917 226.233 200.156 227.251 200.156 228.582C200.156 229.671 199.917 230.537 199.438 231.18C198.965 231.822 198.311 232.144 197.477 232.144C197.035 232.144 196.656 232.071 196.342 231.925V234.844H195.077V231.945C194.776 232.077 194.432 232.144 194.045 232.144C193.215 232.144 192.562 231.822 192.083 231.18C191.609 230.537 191.372 229.658 191.372 228.541V228.438ZM198.892 228.438C198.892 227.509 198.732 226.789 198.413 226.278C198.094 225.763 197.654 225.506 197.094 225.506C196.807 225.506 196.556 225.551 196.342 225.643V230.995C196.547 231.073 196.802 231.111 197.107 231.111C197.673 231.111 198.11 230.893 198.42 230.455C198.734 230.018 198.892 229.345 198.892 228.438ZM192.637 228.582C192.637 229.411 192.785 230.04 193.081 230.469C193.377 230.897 193.803 231.111 194.359 231.111C194.624 231.111 194.863 231.07 195.077 230.988V225.622C194.886 225.545 194.651 225.506 194.373 225.506C193.817 225.506 193.389 225.754 193.088 226.251C192.787 226.748 192.637 227.525 192.637 228.582ZM206.62 232C206.547 231.854 206.488 231.594 206.442 231.221C205.854 231.831 205.153 232.137 204.337 232.137C203.608 232.137 203.008 231.932 202.539 231.521C202.074 231.107 201.842 230.583 201.842 229.949C201.842 229.179 202.133 228.582 202.717 228.158C203.305 227.73 204.13 227.516 205.191 227.516H206.422V226.935C206.422 226.493 206.29 226.142 206.025 225.882C205.761 225.618 205.371 225.485 204.856 225.485C204.405 225.485 204.027 225.599 203.722 225.827C203.416 226.055 203.264 226.331 203.264 226.654H201.992C201.992 226.285 202.122 225.93 202.382 225.588C202.646 225.242 203.002 224.968 203.448 224.768C203.899 224.567 204.394 224.467 204.932 224.467C205.784 224.467 206.451 224.681 206.935 225.109C207.418 225.533 207.668 226.119 207.687 226.866V230.271C207.687 230.95 207.773 231.49 207.946 231.891V232H206.62ZM204.521 231.036C204.918 231.036 205.294 230.934 205.649 230.729C206.005 230.523 206.262 230.257 206.422 229.929V228.411H205.431C203.881 228.411 203.106 228.865 203.106 229.771C203.106 230.168 203.239 230.478 203.503 230.701C203.767 230.924 204.107 231.036 204.521 231.036ZM212.223 228.849H211.3V232H210.028V224.604H211.3V227.734H212.127L214.615 224.604H216.146L213.221 228.158L216.393 232H214.786L212.223 228.849ZM223.226 225.629H220.744V232H219.479V225.629H217.046V224.604H223.226V225.629ZM224.084 228.233C224.084 227.509 224.225 226.857 224.508 226.278C224.795 225.7 225.191 225.253 225.697 224.938C226.208 224.624 226.789 224.467 227.44 224.467C228.448 224.467 229.261 224.815 229.881 225.513C230.505 226.21 230.817 227.137 230.817 228.295V228.384C230.817 229.104 230.678 229.751 230.4 230.325C230.127 230.895 229.733 231.339 229.218 231.658C228.707 231.977 228.119 232.137 227.454 232.137C226.451 232.137 225.638 231.788 225.014 231.091C224.394 230.394 224.084 229.471 224.084 228.322V228.233ZM225.355 228.384C225.355 229.204 225.545 229.863 225.923 230.359C226.306 230.856 226.816 231.104 227.454 231.104C228.097 231.104 228.607 230.854 228.985 230.353C229.364 229.847 229.553 229.14 229.553 228.233C229.553 227.422 229.359 226.766 228.972 226.265C228.589 225.759 228.078 225.506 227.44 225.506C226.816 225.506 226.312 225.754 225.93 226.251C225.547 226.748 225.355 227.459 225.355 228.384ZM238.901 228.384C238.901 229.509 238.644 230.416 238.129 231.104C237.614 231.793 236.917 232.137 236.037 232.137C235.139 232.137 234.433 231.852 233.918 231.282V234.844H232.653V224.604H233.809L233.87 225.424C234.385 224.786 235.101 224.467 236.017 224.467C236.905 224.467 237.607 224.802 238.122 225.472C238.642 226.142 238.901 227.074 238.901 228.268V228.384ZM237.637 228.24C237.637 227.406 237.459 226.748 237.104 226.265C236.748 225.782 236.26 225.54 235.641 225.54C234.875 225.54 234.301 225.88 233.918 226.559V230.093C234.296 230.767 234.875 231.104 235.654 231.104C236.26 231.104 236.741 230.865 237.097 230.387C237.457 229.904 237.637 229.188 237.637 228.24ZM246.808 232H245.543V228.842H242.146V232H240.874V224.604H242.146V227.81H245.543V224.604H246.808V232ZM248.76 228.233C248.76 227.509 248.901 226.857 249.184 226.278C249.471 225.7 249.867 225.253 250.373 224.938C250.883 224.624 251.465 224.467 252.116 224.467C253.123 224.467 253.937 224.815 254.557 225.513C255.181 226.21 255.493 227.137 255.493 228.295V228.384C255.493 229.104 255.354 229.751 255.076 230.325C254.803 230.895 254.409 231.339 253.894 231.658C253.383 231.977 252.795 232.137 252.13 232.137C251.127 232.137 250.314 231.788 249.689 231.091C249.07 230.394 248.76 229.471 248.76 228.322V228.233ZM250.031 228.384C250.031 229.204 250.22 229.863 250.599 230.359C250.981 230.856 251.492 231.104 252.13 231.104C252.772 231.104 253.283 230.854 253.661 230.353C254.039 229.847 254.229 229.14 254.229 228.233C254.229 227.422 254.035 226.766 253.647 226.265C253.265 225.759 252.754 225.506 252.116 225.506C251.492 225.506 250.988 225.754 250.605 226.251C250.223 226.748 250.031 227.459 250.031 228.384ZM262.114 224.604H263.379V232H262.114V226.606L258.703 232H257.438V224.604H258.703V230.004L262.114 224.604ZM262.456 221.91C262.456 222.462 262.267 222.906 261.889 223.243C261.515 223.576 261.023 223.742 260.412 223.742C259.801 223.742 259.307 223.574 258.929 223.236C258.55 222.899 258.361 222.457 258.361 221.91H259.394C259.394 222.229 259.48 222.48 259.653 222.662C259.826 222.84 260.079 222.929 260.412 222.929C260.731 222.929 260.979 222.84 261.157 222.662C261.34 222.484 261.431 222.234 261.431 221.91H262.456ZM273.948 232C273.875 231.854 273.816 231.594 273.771 231.221C273.183 231.831 272.481 232.137 271.665 232.137C270.936 232.137 270.337 231.932 269.867 231.521C269.402 231.107 269.17 230.583 269.17 229.949C269.17 229.179 269.462 228.582 270.045 228.158C270.633 227.73 271.458 227.516 272.52 227.516H273.75V226.935C273.75 226.493 273.618 226.142 273.354 225.882C273.089 225.618 272.7 225.485 272.185 225.485C271.733 225.485 271.355 225.599 271.05 225.827C270.744 226.055 270.592 226.331 270.592 226.654H269.32C269.32 226.285 269.45 225.93 269.71 225.588C269.974 225.242 270.33 224.968 270.776 224.768C271.228 224.567 271.722 224.467 272.26 224.467C273.112 224.467 273.78 224.681 274.263 225.109C274.746 225.533 274.996 226.119 275.015 226.866V230.271C275.015 230.95 275.101 231.49 275.274 231.891V232H273.948ZM271.85 231.036C272.246 231.036 272.622 230.934 272.978 230.729C273.333 230.523 273.59 230.257 273.75 229.929V228.411H272.759C271.209 228.411 270.435 228.865 270.435 229.771C270.435 230.168 270.567 230.478 270.831 230.701C271.095 230.924 271.435 231.036 271.85 231.036ZM279.558 230.147L281.28 224.604H282.634L279.66 233.142C279.2 234.372 278.468 234.987 277.466 234.987L277.227 234.967L276.755 234.878V233.853L277.097 233.88C277.525 233.88 277.858 233.793 278.095 233.62C278.336 233.447 278.535 233.13 278.689 232.67L278.97 231.918L276.331 224.604H277.712L279.558 230.147ZM289.515 225.629H287.033V232H285.769V225.629H283.335V224.604H289.515V225.629ZM293.518 232.137C292.515 232.137 291.699 231.809 291.07 231.152C290.441 230.492 290.127 229.61 290.127 228.507V228.274C290.127 227.541 290.266 226.887 290.544 226.312C290.826 225.734 291.218 225.283 291.72 224.959C292.226 224.631 292.772 224.467 293.36 224.467C294.322 224.467 295.069 224.784 295.603 225.417C296.136 226.05 296.402 226.957 296.402 228.138V228.664H291.392C291.41 229.393 291.622 229.983 292.027 230.435C292.438 230.881 292.957 231.104 293.586 231.104C294.033 231.104 294.411 231.013 294.721 230.831C295.031 230.649 295.302 230.407 295.534 230.106L296.307 230.708C295.687 231.66 294.757 232.137 293.518 232.137ZM293.36 225.506C292.85 225.506 292.422 225.693 292.075 226.066C291.729 226.436 291.515 226.955 291.433 227.625H295.138V227.529C295.101 226.887 294.928 226.39 294.618 226.039C294.308 225.684 293.889 225.506 293.36 225.506ZM304.165 232H302.9V228.842H299.503V232H298.231V224.604H299.503V227.81H302.9V224.604H304.165V232ZM311.948 225.629H309.467V232H308.202V225.629H305.769V224.604H311.948V225.629ZM318.214 224.604H319.479V232H318.214V226.606L314.803 232H313.538V224.604H314.803V230.004L318.214 224.604ZM321.485 228.438C321.485 227.203 321.725 226.233 322.203 225.526C322.682 224.82 323.338 224.467 324.172 224.467C324.559 224.467 324.899 224.533 325.19 224.665V221.5H326.455V224.706C326.774 224.547 327.148 224.467 327.576 224.467C328.415 224.467 329.073 224.82 329.552 225.526C330.03 226.233 330.27 227.251 330.27 228.582C330.27 229.671 330.03 230.537 329.552 231.18C329.078 231.822 328.424 232.144 327.59 232.144C327.148 232.144 326.77 232.071 326.455 231.925V234.844H325.19V231.945C324.89 232.077 324.546 232.144 324.158 232.144C323.329 232.144 322.675 231.822 322.196 231.18C321.722 230.537 321.485 229.658 321.485 228.541V228.438ZM329.005 228.438C329.005 227.509 328.845 226.789 328.526 226.278C328.207 225.763 327.768 225.506 327.207 225.506C326.92 225.506 326.669 225.551 326.455 225.643V230.995C326.66 231.073 326.915 231.111 327.221 231.111C327.786 231.111 328.223 230.893 328.533 230.455C328.848 230.018 329.005 229.345 329.005 228.438ZM322.75 228.582C322.75 229.411 322.898 230.04 323.194 230.469C323.491 230.897 323.917 231.111 324.473 231.111C324.737 231.111 324.976 231.07 325.19 230.988V225.622C324.999 225.545 324.764 225.506 324.486 225.506C323.93 225.506 323.502 225.754 323.201 226.251C322.9 226.748 322.75 227.525 322.75 228.582ZM336.952 224.604H338.217V232H336.952V226.606L333.541 232H332.276V224.604H333.541V230.004L336.952 224.604ZM342.801 228.849H341.878V232H340.606V224.604H341.878V227.734H342.705L345.193 224.604H346.725L343.799 228.158L346.971 232H345.364L342.801 228.849ZM352.874 232C352.801 231.854 352.742 231.594 352.696 231.221C352.108 231.831 351.407 232.137 350.591 232.137C349.862 232.137 349.262 231.932 348.793 231.521C348.328 231.107 348.096 230.583 348.096 229.949C348.096 229.179 348.387 228.582 348.971 228.158C349.559 227.73 350.383 227.516 351.445 227.516H352.676V226.935C352.676 226.493 352.544 226.142 352.279 225.882C352.015 225.618 351.625 225.485 351.11 225.485C350.659 225.485 350.281 225.599 349.976 225.827C349.67 226.055 349.518 226.331 349.518 226.654H348.246C348.246 226.285 348.376 225.93 348.636 225.588C348.9 225.242 349.256 224.968 349.702 224.768C350.153 224.567 350.648 224.467 351.186 224.467C352.038 224.467 352.705 224.681 353.188 225.109C353.672 225.533 353.922 226.119 353.94 226.866V230.271C353.94 230.95 354.027 231.49 354.2 231.891V232H352.874ZM350.775 231.036C351.172 231.036 351.548 230.934 351.903 230.729C352.259 230.523 352.516 230.257 352.676 229.929V228.411H351.685C350.135 228.411 349.36 228.865 349.36 229.771C349.36 230.168 349.493 230.478 349.757 230.701C350.021 230.924 350.361 231.036 350.775 231.036ZM356.282 224.604H357.554V230.968H360.958V224.604H362.223V230.968H363.104L362.981 234.194H361.847V232H356.282V224.604ZM369.507 224.604H370.771V232H369.507V226.606L366.096 232H364.831V224.604H366.096V230.004L369.507 224.604ZM377.837 224.604H379.102V232H377.837V226.606L374.426 232H373.161V224.604H374.426V230.004L377.837 224.604ZM381.409 231.337C381.409 231.118 381.473 230.936 381.601 230.79C381.733 230.644 381.929 230.571 382.188 230.571C382.448 230.571 382.644 230.644 382.776 230.79C382.913 230.936 382.981 231.118 382.981 231.337C382.981 231.547 382.913 231.722 382.776 231.863C382.644 232.005 382.448 232.075 382.188 232.075C381.929 232.075 381.733 232.005 381.601 231.863C381.473 231.722 381.409 231.547 381.409 231.337Z" fill="black"/>
<g clip-path="url(#clip3)">
<path d="M149.234 327.898H152.406V329.266H149.234V332.859H147.781V329.266H144.609V327.898H147.781V324.578H149.234V327.898ZM161.517 323.438L156.806 334H155.291L159.986 323.812H153.83V322.625H161.517V323.438Z" fill="black"/>
<path opacity="0.42" d="M132 357H188" stroke="black"/>
</g>
<path d="M159.258 178V166.625H162.977C164.211 166.625 165.138 166.88 165.758 167.391C166.383 167.901 166.695 168.656 166.695 169.656C166.695 170.188 166.544 170.659 166.242 171.07C165.94 171.477 165.529 171.792 165.008 172.016C165.622 172.188 166.107 172.516 166.461 173C166.82 173.479 167 174.052 167 174.719C167 175.74 166.669 176.542 166.008 177.125C165.346 177.708 164.411 178 163.203 178H159.258ZM160.758 172.68V176.773H163.234C163.932 176.773 164.482 176.594 164.883 176.234C165.289 175.87 165.492 175.37 165.492 174.734C165.492 173.365 164.747 172.68 163.258 172.68H160.758ZM160.758 171.477H163.023C163.68 171.477 164.203 171.312 164.594 170.984C164.99 170.656 165.188 170.211 165.188 169.648C165.188 169.023 165.005 168.57 164.641 168.289C164.276 168.003 163.721 167.859 162.977 167.859H160.758V171.477ZM169.283 178V169.547H172.58C173.705 169.547 174.567 169.745 175.166 170.141C175.77 170.531 176.072 171.107 176.072 171.867C176.072 172.258 175.955 172.612 175.72 172.93C175.486 173.242 175.14 173.482 174.681 173.648C175.192 173.768 175.601 174.003 175.908 174.352C176.22 174.701 176.377 175.117 176.377 175.602C176.377 176.378 176.09 176.971 175.517 177.383C174.949 177.794 174.145 178 173.103 178H169.283ZM170.728 174.289V176.836H173.119C173.723 176.836 174.173 176.724 174.47 176.5C174.772 176.276 174.923 175.961 174.923 175.555C174.923 174.711 174.304 174.289 173.064 174.289H170.728ZM170.728 173.133H172.595C173.949 173.133 174.627 172.737 174.627 171.945C174.627 171.154 173.986 170.745 172.705 170.719H170.728V173.133ZM181.948 178.156C180.803 178.156 179.87 177.781 179.152 177.031C178.433 176.276 178.073 175.268 178.073 174.008V173.742C178.073 172.904 178.232 172.156 178.55 171.5C178.873 170.839 179.321 170.323 179.894 169.953C180.472 169.578 181.097 169.391 181.769 169.391C182.868 169.391 183.722 169.753 184.331 170.477C184.941 171.201 185.245 172.237 185.245 173.586V174.188H179.519C179.54 175.021 179.782 175.695 180.245 176.211C180.714 176.721 181.308 176.977 182.027 176.977C182.537 176.977 182.969 176.872 183.323 176.664C183.678 176.456 183.988 176.18 184.253 175.836L185.136 176.523C184.428 177.612 183.365 178.156 181.948 178.156ZM181.769 170.578C181.185 170.578 180.696 170.792 180.3 171.219C179.904 171.641 179.659 172.234 179.566 173H183.8V172.891C183.758 172.156 183.56 171.589 183.206 171.188C182.852 170.781 182.373 170.578 181.769 170.578ZM187.005 176.82L187.505 176.203C188.067 175.474 188.387 174.38 188.466 172.922L188.598 169.547H194.044V176.82H195.13V180.484H193.684V178H187.786V180.484H186.341L186.348 176.82H187.005ZM188.716 176.82H192.598V170.883H189.997L189.911 172.898C189.822 174.581 189.424 175.888 188.716 176.82ZM202.35 169.547H203.795V178H202.35V171.836L198.452 178H197.006V169.547H198.452V175.719L202.35 169.547ZM212.547 170.719H209.711V178H208.266V170.719H205.484V169.547H212.547V170.719ZM216.986 178.156C215.84 178.156 214.908 177.781 214.189 177.031C213.47 176.276 213.111 175.268 213.111 174.008V173.742C213.111 172.904 213.27 172.156 213.588 171.5C213.91 170.839 214.358 170.323 214.931 169.953C215.509 169.578 216.134 169.391 216.806 169.391C217.905 169.391 218.759 169.753 219.369 170.477C219.978 171.201 220.283 172.237 220.283 173.586V174.188H214.556C214.577 175.021 214.819 175.695 215.283 176.211C215.752 176.721 216.345 176.977 217.064 176.977C217.574 176.977 218.007 176.872 218.361 176.664C218.715 176.456 219.025 176.18 219.291 175.836L220.173 176.523C219.465 177.612 218.403 178.156 216.986 178.156ZM216.806 170.578C216.223 170.578 215.733 170.792 215.338 171.219C214.942 171.641 214.697 172.234 214.603 173H218.838V172.891C218.796 172.156 218.598 171.589 218.244 171.188C217.89 170.781 217.41 170.578 216.806 170.578ZM226.364 178V169.547H229.661C230.786 169.547 231.648 169.745 232.247 170.141C232.851 170.531 233.153 171.107 233.153 171.867C233.153 172.258 233.036 172.612 232.802 172.93C232.567 173.242 232.221 173.482 231.762 173.648C232.273 173.768 232.682 174.003 232.989 174.352C233.302 174.701 233.458 175.117 233.458 175.602C233.458 176.378 233.171 176.971 232.598 177.383C232.031 177.794 231.226 178 230.184 178H226.364ZM227.809 174.289V176.836H230.2C230.804 176.836 231.255 176.724 231.552 176.5C231.854 176.276 232.005 175.961 232.005 175.555C232.005 174.711 231.385 174.289 230.145 174.289H227.809ZM227.809 173.133H229.677C231.031 173.133 231.708 172.737 231.708 171.945C231.708 171.154 231.067 170.745 229.786 170.719H227.809V173.133ZM240.741 178C240.657 177.833 240.59 177.536 240.538 177.109C239.866 177.807 239.064 178.156 238.131 178.156C237.298 178.156 236.613 177.922 236.077 177.453C235.545 176.979 235.28 176.38 235.28 175.656C235.28 174.776 235.613 174.094 236.28 173.609C236.952 173.12 237.894 172.875 239.108 172.875H240.514V172.211C240.514 171.706 240.363 171.305 240.061 171.008C239.759 170.706 239.314 170.555 238.725 170.555C238.209 170.555 237.777 170.685 237.428 170.945C237.079 171.206 236.905 171.521 236.905 171.891H235.452C235.452 171.469 235.6 171.062 235.897 170.672C236.199 170.276 236.605 169.964 237.116 169.734C237.631 169.505 238.196 169.391 238.811 169.391C239.785 169.391 240.548 169.635 241.1 170.125C241.652 170.609 241.939 171.279 241.959 172.133V176.023C241.959 176.799 242.058 177.417 242.256 177.875V178H240.741ZM238.342 176.898C238.795 176.898 239.225 176.781 239.631 176.547C240.038 176.312 240.332 176.008 240.514 175.633V173.898H239.381C237.61 173.898 236.725 174.417 236.725 175.453C236.725 175.906 236.876 176.26 237.178 176.516C237.48 176.771 237.868 176.898 238.342 176.898ZM245.953 169.547V176.82H249.047V169.547H250.492V176.82H253.578V169.547H255.031V178H244.5V169.547H245.953ZM268.488 178H267.042V174.391H263.159V178H261.706V169.547H263.159V173.211H267.042V169.547H268.488V178ZM270.583 173.695C270.583 172.867 270.744 172.122 271.067 171.461C271.395 170.799 271.848 170.289 272.427 169.93C273.01 169.57 273.674 169.391 274.419 169.391C275.57 169.391 276.499 169.789 277.208 170.586C277.921 171.383 278.278 172.443 278.278 173.766V173.867C278.278 174.69 278.119 175.43 277.802 176.086C277.489 176.737 277.039 177.245 276.45 177.609C275.867 177.974 275.195 178.156 274.434 178.156C273.289 178.156 272.359 177.758 271.645 176.961C270.937 176.164 270.583 175.109 270.583 173.797V173.695ZM272.036 173.867C272.036 174.805 272.252 175.557 272.684 176.125C273.122 176.693 273.705 176.977 274.434 176.977C275.169 176.977 275.752 176.69 276.184 176.117C276.617 175.539 276.833 174.732 276.833 173.695C276.833 172.768 276.611 172.018 276.169 171.445C275.731 170.867 275.148 170.578 274.419 170.578C273.705 170.578 273.13 170.862 272.692 171.43C272.255 171.997 272.036 172.81 272.036 173.867ZM285.108 176.086L287.983 169.547H289.788V178H288.342V171.852L285.608 178H284.608L281.819 171.719V178H280.373V169.547H282.248L285.108 176.086ZM295.773 178.156C294.628 178.156 293.695 177.781 292.977 177.031C292.258 176.276 291.898 175.268 291.898 174.008V173.742C291.898 172.904 292.057 172.156 292.375 171.5C292.698 170.839 293.146 170.323 293.719 169.953C294.297 169.578 294.922 169.391 295.594 169.391C296.693 169.391 297.547 169.753 298.156 170.477C298.766 171.201 299.07 172.237 299.07 173.586V174.188H293.344C293.365 175.021 293.607 175.695 294.07 176.211C294.539 176.721 295.133 176.977 295.852 176.977C296.362 176.977 296.794 176.872 297.148 176.664C297.503 176.456 297.812 176.18 298.078 175.836L298.961 176.523C298.253 177.612 297.19 178.156 295.773 178.156ZM295.594 170.578C295.01 170.578 294.521 170.792 294.125 171.219C293.729 171.641 293.484 172.234 293.391 173H297.625V172.891C297.583 172.156 297.385 171.589 297.031 171.188C296.677 170.781 296.198 170.578 295.594 170.578ZM308.041 173.867C308.041 175.154 307.746 176.19 307.158 176.977C306.569 177.763 305.772 178.156 304.767 178.156C303.741 178.156 302.934 177.831 302.345 177.18V181.25H300.9V169.547H302.22L302.291 170.484C302.879 169.755 303.697 169.391 304.744 169.391C305.759 169.391 306.561 169.773 307.15 170.539C307.744 171.305 308.041 172.37 308.041 173.734V173.867ZM306.595 173.703C306.595 172.75 306.392 171.997 305.986 171.445C305.58 170.893 305.022 170.617 304.314 170.617C303.439 170.617 302.783 171.005 302.345 171.781V175.82C302.778 176.591 303.439 176.977 304.33 176.977C305.022 176.977 305.572 176.703 305.978 176.156C306.39 175.604 306.595 174.786 306.595 173.703ZM320.434 170.719H317.598V178H316.153V170.719H313.372V169.547H320.434V170.719ZM324.873 178.156C323.728 178.156 322.795 177.781 322.077 177.031C321.358 176.276 320.998 175.268 320.998 174.008V173.742C320.998 172.904 321.157 172.156 321.475 171.5C321.798 170.839 322.246 170.323 322.819 169.953C323.397 169.578 324.022 169.391 324.694 169.391C325.793 169.391 326.647 169.753 327.256 170.477C327.866 171.201 328.17 172.237 328.17 173.586V174.188H322.444C322.465 175.021 322.707 175.695 323.17 176.211C323.639 176.721 324.233 176.977 324.952 176.977C325.462 176.977 325.894 176.872 326.248 176.664C326.603 176.456 326.913 176.18 327.178 175.836L328.061 176.523C327.353 177.612 326.29 178.156 324.873 178.156ZM324.694 170.578C324.11 170.578 323.621 170.792 323.225 171.219C322.829 171.641 322.584 172.234 322.491 173H326.725V172.891C326.683 172.156 326.485 171.589 326.131 171.188C325.777 170.781 325.298 170.578 324.694 170.578ZM336.93 169.547V178H335.477V170.742H332.602L332.43 173.906C332.336 175.359 332.091 176.398 331.695 177.023C331.305 177.648 330.682 177.974 329.828 178H329.25V176.727L329.664 176.695C330.133 176.643 330.469 176.372 330.672 175.883C330.875 175.393 331.005 174.487 331.062 173.164L331.219 169.547H336.93ZM342.908 178.156C341.762 178.156 340.83 177.781 340.111 177.031C339.392 176.276 339.033 175.268 339.033 174.008V173.742C339.033 172.904 339.192 172.156 339.509 171.5C339.832 170.839 340.28 170.323 340.853 169.953C341.431 169.578 342.056 169.391 342.728 169.391C343.827 169.391 344.681 169.753 345.291 170.477C345.9 171.201 346.205 172.237 346.205 173.586V174.188H340.478C340.499 175.021 340.741 175.695 341.205 176.211C341.673 176.721 342.267 176.977 342.986 176.977C343.496 176.977 343.929 176.872 344.283 176.664C344.637 176.456 344.947 176.18 345.212 175.836L346.095 176.523C345.387 177.612 344.324 178.156 342.908 178.156ZM342.728 170.578C342.145 170.578 341.655 170.792 341.259 171.219C340.864 171.641 340.619 172.234 340.525 173H344.759V172.891C344.718 172.156 344.52 171.589 344.166 171.188C343.811 170.781 343.332 170.578 342.728 170.578ZM347.722 173.93C347.722 172.518 347.995 171.409 348.542 170.602C349.089 169.794 349.839 169.391 350.792 169.391C351.235 169.391 351.623 169.466 351.956 169.617V166H353.402V169.664C353.766 169.482 354.193 169.391 354.683 169.391C355.641 169.391 356.394 169.794 356.941 170.602C357.488 171.409 357.761 172.573 357.761 174.094C357.761 175.339 357.488 176.328 356.941 177.062C356.399 177.797 355.652 178.164 354.698 178.164C354.193 178.164 353.761 178.081 353.402 177.914V181.25H351.956V177.938C351.613 178.089 351.219 178.164 350.777 178.164C349.829 178.164 349.081 177.797 348.534 177.062C347.993 176.328 347.722 175.323 347.722 174.047V173.93ZM356.316 173.93C356.316 172.867 356.133 172.044 355.769 171.461C355.404 170.872 354.902 170.578 354.261 170.578C353.933 170.578 353.646 170.63 353.402 170.734V176.852C353.636 176.94 353.928 176.984 354.277 176.984C354.922 176.984 355.422 176.734 355.777 176.234C356.136 175.734 356.316 174.966 356.316 173.93ZM349.167 174.094C349.167 175.042 349.336 175.76 349.675 176.25C350.014 176.74 350.501 176.984 351.136 176.984C351.438 176.984 351.711 176.938 351.956 176.844V170.711C351.738 170.622 351.469 170.578 351.152 170.578C350.516 170.578 350.027 170.862 349.683 171.43C349.339 171.997 349.167 172.885 349.167 174.094ZM359.411 173.695C359.411 172.867 359.572 172.122 359.895 171.461C360.223 170.799 360.677 170.289 361.255 169.93C361.838 169.57 362.502 169.391 363.247 169.391C364.398 169.391 365.328 169.789 366.036 170.586C366.749 171.383 367.106 172.443 367.106 173.766V173.867C367.106 174.69 366.947 175.43 366.63 176.086C366.317 176.737 365.867 177.245 365.278 177.609C364.695 177.974 364.023 178.156 363.263 178.156C362.117 178.156 361.187 177.758 360.473 176.961C359.765 176.164 359.411 175.109 359.411 173.797V173.695ZM360.864 173.867C360.864 174.805 361.08 175.557 361.513 176.125C361.95 176.693 362.533 176.977 363.263 176.977C363.997 176.977 364.58 176.69 365.013 176.117C365.445 175.539 365.661 174.732 365.661 173.695C365.661 172.768 365.44 172.018 364.997 171.445C364.559 170.867 363.976 170.578 363.247 170.578C362.533 170.578 361.958 170.862 361.52 171.43C361.083 171.997 360.864 172.81 360.864 173.867ZM375.975 178H374.53V174.391H370.647V178H369.194V169.547H370.647V173.211H374.53V169.547H375.975V178ZM383.672 178C383.589 177.833 383.521 177.536 383.469 177.109C382.797 177.807 381.995 178.156 381.062 178.156C380.229 178.156 379.544 177.922 379.008 177.453C378.477 176.979 378.211 176.38 378.211 175.656C378.211 174.776 378.544 174.094 379.211 173.609C379.883 173.12 380.826 172.875 382.039 172.875H383.445V172.211C383.445 171.706 383.294 171.305 382.992 171.008C382.69 170.706 382.245 170.555 381.656 170.555C381.141 170.555 380.708 170.685 380.359 170.945C380.01 171.206 379.836 171.521 379.836 171.891H378.383C378.383 171.469 378.531 171.062 378.828 170.672C379.13 170.276 379.536 169.964 380.047 169.734C380.562 169.505 381.128 169.391 381.742 169.391C382.716 169.391 383.479 169.635 384.031 170.125C384.583 170.609 384.87 171.279 384.891 172.133V176.023C384.891 176.799 384.99 177.417 385.188 177.875V178H383.672ZM381.273 176.898C381.727 176.898 382.156 176.781 382.562 176.547C382.969 176.312 383.263 176.008 383.445 175.633V173.898H382.312C380.542 173.898 379.656 174.417 379.656 175.453C379.656 175.906 379.807 176.26 380.109 176.516C380.411 176.771 380.799 176.898 381.273 176.898Z" fill="black"/>
<rect x="92" y="21" width="360" height="56" rx="8" fill="white"/>
<path d="M128 48H115.83L121.42 42.41L120 41L112 49L120 57L121.41 55.59L115.83 50H128V48Z" fill="#1A73E9"/>
<defs>
<filter id="filter0_d" x="67" y="3" width="410" height="498" filterUnits="userSpaceOnUse" color-interpolation-filters="sRGB">
<feFlood flood-opacity="0" result="BackgroundImageFix"/>
<feColorMatrix in="SourceAlpha" type="matrix" values="0 0 0 0 0 0 0 0 0 0 0 0 0 0 0 0 0 0 127 0" result="hardAlpha"/>
<feOffset dy="7"/>
<feGaussianBlur stdDeviation="12.5"/>
<feColorMatrix type="matrix" values="0 0 0 0 0.333333 0 0 0 0 0.333333 0 0 0 0 0.333333 0 0 0 0.15 0"/>
<feBlend mode="normal" in2="BackgroundImageFix" result="effect1_dropShadow"/>
<feBlend mode="normal" in="SourceGraphic" in2="effect1_dropShadow" result="shape"/>
</filter>
<filter id="filter1_dd" x="129" y="378.85" width="286" height="54" filterUnits="userSpaceOnUse" color-interpolation-filters="sRGB">
<feFlood flood-opacity="0" result="BackgroundImageFix"/>
<feColorMatrix in="SourceAlpha" type="matrix" values="0 0 0 0 0 0 0 0 0 0 0 0 0 0 0 0 0 0 127 0" result="hardAlpha"/>
<feOffset dy="0.85"/>
<feGaussianBlur stdDeviation="1.5"/>
<feColorMatrix type="matrix" values="0 0 0 0 0 0 0 0 0 0 0 0 0 0 0 0 0 0 0.19 0"/>
<feBlend mode="normal" in2="BackgroundImageFix" result="effect1_dropShadow"/>
<feColorMatrix in="SourceAlpha" type="matrix" values="0 0 0 0 0 0 0 0 0 0 0 0 0 0 0 0 0 0 127 0" result="hardAlpha"/>
<feOffset dy="0.25"/>
<feGaussianBlur stdDeviation="0.5"/>
<feColorMatrix type="matrix" values="0 0 0 0 0 0 0 0 0 0 0 0 0 0 0 0 0 0 0.039 0"/>
<feBlend mode="normal" in2="effect1_dropShadow" result="effect2_dropShadow"/>
<feBlend mode="normal" in="SourceGraphic" in2="effect2_dropShadow" result="shape"/>
</filter>
<clipPath id="clip0">
<path d="M204 309C204 304.582 207.582 301 212 301H404C408.418 301 412 304.582 412 309V349C412 353.418 408.418 357 404 357H212C207.582 357 204 353.418 204 349V309Z" fill="white"/>
</clipPath>
<clipPath id="clip1">
<path d="M132 245C132 240.582 135.582 237 140 237H404C408.418 237 412 240.582 412 245V285C412 289.418 408.418 293 404 293H140C135.582 293 132 289.418 132 285V245Z" fill="white"/>
</clipPath>
<clipPath id="clip2">
<rect x="248" y="101" width="48" height="48" rx="8" fill="white"/>
</clipPath>
<clipPath id="clip3">
<path d="M132 309C132 304.582 135.582 301 140 301H180C184.418 301 188 304.582 188 309V349C188 353.418 184.418 357 180 357H140C135.582 357 132 353.418 132 349V309Z" fill="white"/>
</clipPath>
</defs>
</svg>
