<svg width="217" height="42" viewBox="0 0 217 42" fill="none" xmlns="http://www.w3.org/2000/svg">
<g clip-path="url(#clip0_894_5521)">
<path fill-rule="evenodd" clip-rule="evenodd" d="M81.86 24.763C81.86 21.7283 79.7 19.7861 77.3 19.7861C74.78 19.7861 72.62 21.8497 72.62 24.763C72.62 27.6763 74.78 29.7399 77.3 29.7399C79.82 29.7399 81.86 27.6763 81.86 24.763ZM85.46 24.763C85.46 29.4971 81.74 33.0173 77.3 33.0173C72.86 33.0173 69.14 29.4971 69.14 24.763C69.14 19.9075 72.86 16.5087 77.3 16.5087C81.86 16.3873 85.46 19.9075 85.46 24.763Z" fill="#787879"/>
<path fill-rule="evenodd" clip-rule="evenodd" d="M99.62 24.763C99.62 21.7283 97.46 19.7861 94.94 19.7861C92.42 19.7861 90.26 21.8497 90.26 24.763C90.26 27.6763 92.42 29.7399 94.94 29.7399C97.46 29.7399 99.62 27.6763 99.62 24.763ZM103.22 24.763C103.22 29.4971 99.5 33.0173 95.06 33.0173C90.5 33.0173 86.9 29.4971 86.9 24.763C86.9 19.9075 90.62 16.5087 95.06 16.5087C99.5 16.3873 103.22 19.9075 103.22 24.763Z" fill="#787879"/>
<path fill-rule="evenodd" clip-rule="evenodd" d="M117.02 24.763C117.02 21.8497 115.1 19.6647 112.7 19.6647C110.18 19.6647 108.14 21.8497 108.14 24.763C108.14 27.6763 110.18 29.7399 112.7 29.7399C115.1 29.7399 117.02 27.6763 117.02 24.763ZM120.26 16.9942V31.9248C120.26 37.9942 116.66 40.5433 112.46 40.5433C108.5 40.5433 106.1 37.8728 105.14 35.6879L108.26 34.3526C108.86 35.6879 110.18 37.2659 112.34 37.2659C114.98 37.2659 116.66 35.5665 116.66 32.4104V31.1965H116.54C115.7 32.1676 114.14 33.1387 112.22 33.1387C108.14 33.1387 104.42 29.4971 104.42 24.8844C104.42 20.1503 108.14 16.5087 112.22 16.5087C114.14 16.5087 115.7 17.3584 116.54 18.3295H116.66V16.9942H120.26Z" fill="#787879"/>
<path fill-rule="evenodd" clip-rule="evenodd" d="M122.3 32.5317H125.9V8.25427H122.3V32.5317Z" fill="#787879"/>
<path fill-rule="evenodd" clip-rule="evenodd" d="M130.94 24.5202L138.26 21.4855C137.9 20.3931 136.7 19.7861 135.26 19.7861C133.34 19.6647 130.82 21.2428 130.94 24.5202ZM139.58 27.4335L142.34 29.3757C141.38 30.711 139.22 33.0173 135.5 33.0173C130.82 33.0173 127.34 29.3757 127.34 24.763C127.34 19.7861 130.82 16.5087 135.02 16.5087C139.22 16.5087 141.38 19.9075 141.98 21.7283L142.34 22.6994L131.42 27.3121C132.26 29.0116 133.58 29.8613 135.38 29.8613C137.3 29.7399 138.62 28.8902 139.58 27.4335Z" fill="#787879"/>
<path fill-rule="evenodd" clip-rule="evenodd" d="M55.82 22.578V19.0578H67.58C67.7 19.6647 67.7 20.393 67.7 21.1214C67.7 23.7919 66.98 27.0693 64.7 29.3757C62.42 31.682 59.66 33.0173 55.82 33.0173C48.86 33.0173 42.86 27.1907 42.86 20.1503C42.86 13.1098 48.74 7.2832 55.82 7.2832C59.66 7.2832 62.42 8.86124 64.58 10.8034L62.18 13.2312C60.74 11.7745 58.7 10.682 55.94 10.682C50.78 10.682 46.82 14.8092 46.82 20.0289C46.82 25.2485 50.78 29.3757 55.94 29.3757C59.3 29.3757 61.1 28.0404 62.42 26.8266C63.38 25.8555 64.1 24.3988 64.34 22.4566L55.82 22.578Z" fill="#787879"/>
<path fill-rule="evenodd" clip-rule="evenodd" d="M150.98 32.5317V10.0751H157.7C161.06 10.0751 163.82 11.1676 165.86 13.2311C167.9 15.2947 168.98 17.9653 168.98 21.3641C168.98 24.7629 167.9 27.4335 165.86 29.497C163.82 31.5606 161.06 32.5317 157.7 32.5317H150.98ZM153.86 12.867V29.7398H157.82C160.34 29.7398 162.38 29.0115 163.94 27.5549C165.38 26.0982 166.22 24.0346 166.22 21.3641C166.22 18.6936 165.5 16.63 163.94 15.1733C162.5 13.7167 160.46 12.867 157.82 12.867H153.86Z" fill="#787879"/>
<path fill-rule="evenodd" clip-rule="evenodd" d="M170.54 24.8844C170.54 22.5781 171.26 20.6359 172.7 19.0578C174.14 17.4798 176.06 16.7515 178.34 16.7515C180.62 16.7515 182.42 17.4798 183.86 19.0578C185.3 20.6359 186.14 22.5781 186.14 24.8844C186.14 27.3122 185.42 29.2544 183.86 30.711C182.42 32.289 180.5 33.0174 178.34 33.0174C176.06 33.0174 174.26 32.289 172.7 30.711C171.26 29.133 170.54 27.1908 170.54 24.8844ZM173.42 24.8844C173.42 26.5838 173.9 27.9191 174.86 28.8902C175.82 29.8613 177.02 30.4682 178.34 30.4682C179.78 30.4682 180.86 29.9827 181.82 28.8902C182.78 27.9191 183.26 26.5838 183.26 24.8844C183.26 23.3064 182.78 21.9711 181.82 20.8786C180.86 19.7861 179.66 19.3006 178.34 19.3006C176.9 19.3006 175.82 19.7861 174.86 20.8786C173.9 21.8497 173.42 23.185 173.42 24.8844Z" fill="#787879"/>
<path fill-rule="evenodd" clip-rule="evenodd" d="M195.74 33.0174C193.46 33.0174 191.66 32.289 190.1 30.711C188.66 29.133 187.94 27.1908 187.94 24.8844C187.94 22.5781 188.66 20.6359 190.1 19.0578C191.54 17.4798 193.46 16.7515 195.74 16.7515C197.3 16.7515 198.62 17.1156 199.82 17.9653C201.02 18.6937 201.86 19.7861 202.46 21.2428L199.82 22.3353C198.98 20.3931 197.66 19.422 195.62 19.422C194.3 19.422 193.22 19.9075 192.26 21C191.3 22.0925 190.82 23.4278 190.82 24.8844C190.82 26.4624 191.3 27.7977 192.26 28.7688C193.22 29.8613 194.3 30.3468 195.62 30.3468C197.66 30.3468 199.22 29.3757 200.06 27.4335L202.58 28.526C201.98 29.8613 201.14 30.9538 199.94 31.8035C198.62 32.6532 197.3 33.0174 195.74 33.0174Z" fill="#787879"/>
<path fill-rule="evenodd" clip-rule="evenodd" d="M216.5 28.2832C216.5 29.6185 215.9 30.7109 214.82 31.682C213.62 32.6531 212.18 33.0173 210.5 33.0173C208.94 33.0173 207.62 32.6531 206.42 31.8034C205.22 30.9537 204.5 29.9826 203.9 28.6474L206.42 27.5549C206.78 28.526 207.38 29.1329 208.1 29.7398C208.82 30.2254 209.54 30.4682 210.38 30.4682C211.34 30.4682 212.06 30.2254 212.66 29.8612C213.26 29.4971 213.62 29.0115 213.62 28.4046C213.62 27.4335 212.9 26.7052 211.34 26.2196L208.7 25.6127C205.7 24.8843 204.26 23.4277 204.26 21.2427C204.26 19.7861 204.86 18.6936 205.94 17.8439C207.02 16.9942 208.46 16.63 210.26 16.63C211.58 16.63 212.78 16.9942 213.86 17.6011C214.94 18.208 215.66 19.0578 216.14 20.1502L213.62 21.2427C213.38 20.6358 212.9 20.1502 212.18 19.6647C211.58 19.3005 210.86 19.0578 210.02 19.0578C209.3 19.0578 208.58 19.3005 207.98 19.6647C207.38 20.0289 207.14 20.5144 207.14 20.9999C207.14 21.8497 207.98 22.4566 209.54 22.8208L211.82 23.4277C214.94 24.3988 216.5 25.9768 216.5 28.2832Z" fill="#787879"/>
<path fill-rule="evenodd" clip-rule="evenodd" d="M27.4205 42H3.09759C1.68072 42 0.5 40.7861 0.5 39.3295V2.67052C0.5 1.21387 1.68072 0 3.09759 0H18.35L29.9 11.5318V39.3295C29.9 40.7861 28.8373 42 27.4205 42Z" fill="#5290F5"/>
<path fill-rule="evenodd" clip-rule="evenodd" d="M6.8 22.05H23.6V19.95H6.8V22.05Z" fill="#F1F1F1"/>
<path fill-rule="evenodd" clip-rule="evenodd" d="M6.8 26.25H23.6V24.15H6.8V26.25Z" fill="#F1F1F1"/>
<path fill-rule="evenodd" clip-rule="evenodd" d="M6.8 30.45H23.6V28.35H6.8V30.45Z" fill="#F1F1F1"/>
<path fill-rule="evenodd" clip-rule="evenodd" d="M6.8 34.65H19.4V32.55H6.8V34.65Z" fill="#F1F1F1"/>
<path fill-rule="evenodd" clip-rule="evenodd" d="M20.99 11.5318H29.87L18.35 0V8.86127C18.35 10.3179 19.55 11.5318 20.99 11.5318Z" fill="#A6C5FA"/>
</g>
<defs>
<clipPath id="clip0_894_5521">
<rect width="216" height="42" fill="white" transform="translate(0.5)"/>
</clipPath>
</defs>
</svg>
