<svg width="262" height="48" viewBox="0 0 262 48" fill="none" xmlns="http://www.w3.org/2000/svg">
<path fill-rule="evenodd" clip-rule="evenodd" d="M22.851 47.4117L1.84223 37.5297C0.052591 36.6669 0.052591 35.3337 1.84223 34.5494L9.15639 31.0985L22.7732 37.5297C24.5628 38.3924 27.4418 38.3924 29.1536 37.5297L42.7704 31.0985L50.0846 34.5494C51.8742 35.4121 51.8742 36.7454 50.0846 37.5297L29.0758 47.4117C27.4418 48.196 24.5628 48.196 22.851 47.4117Z" fill="#FF6F3D"/>
<path fill-rule="evenodd" clip-rule="evenodd" d="M22.7829 35.1832L1.83814 25.2897C0.0539539 24.4259 0.0539539 23.0911 1.83814 22.3059L8.97487 18.9296L22.7829 25.4467C24.5671 26.3104 27.4373 26.3104 29.1439 25.4467L42.952 18.9296L50.0887 22.3059C51.8729 23.1696 51.8729 24.5045 50.0887 25.2897L29.1439 35.1832C27.3597 36.0469 24.4895 36.0469 22.7829 35.1832Z" fill="#95C038"/>
<path fill-rule="evenodd" clip-rule="evenodd" d="M22.7829 23.0815L1.83814 13.3304C0.0539539 12.4791 0.0539539 11.1635 1.83814 10.3896L22.7829 0.638466C24.5671 -0.212822 27.4373 -0.212822 29.1439 0.638466L50.0887 10.3896C51.8729 11.2409 51.8729 12.5565 50.0887 13.3304L29.1439 23.0815C27.3597 23.8554 24.4895 23.8554 22.7829 23.0815Z" fill="#5DC0E8"/>
<path d="M77.237 11.7334C71.1757 11.7334 65.2195 15.2969 65.2195 24.0001C65.2195 32.7032 71.1757 36.2667 77.237 36.2667C83.2983 36.2667 89.2545 32.7032 89.2545 24.0001C89.2545 15.2969 83.2983 11.7334 77.237 11.7334ZM77.237 15.1598C79.0939 15.1598 83.9991 15.8794 83.9991 24.0001C83.9991 32.1207 79.0939 32.8403 77.237 32.8403C75.3801 32.8403 70.475 32.1207 70.475 24.0001C70.475 15.8794 75.3801 15.1598 77.237 15.1598Z" fill="#333333"/>
<path d="M93.2966 12.0075V35.9926H98.2717V21.8757L98.1666 17.6269H98.2717L99.498 20.2995L108.047 35.9926H114.494V12.0075H109.518V26.1244L109.624 30.3732H109.518L108.222 27.1181L99.7433 12.0075H93.2966Z" fill="#333333"/>
<path d="M119.403 12.0075V35.9926H134.118V31.9494H124.378V12.0075H119.403Z" fill="#333333"/>
<path d="M129.914 12.0075L138.953 26.193V35.9926H143.928V26.2615L152.758 12.0075H147.502L142.422 20.4366L141.581 22.0812H141.476L140.705 20.4366L135.66 12.0075H129.914Z" fill="#333333"/>
<path d="M164.349 11.7334C158.288 11.7334 152.332 15.2969 152.332 24.0001C152.332 32.7032 158.288 36.2667 164.349 36.2667C170.41 36.2667 176.367 32.7032 176.367 24.0001C176.367 15.2969 170.41 11.7334 164.349 11.7334ZM164.349 15.1598C166.206 15.1598 171.111 15.8794 171.111 24.0001C171.111 32.1207 166.206 32.8403 164.349 32.8403C162.492 32.8403 157.587 32.1207 157.587 24.0001C157.587 15.8794 162.492 15.1598 164.349 15.1598Z" fill="#333333"/>
<path d="M180.409 12.0075V35.9926H185.384V25.8161H193.723V21.8757H185.384V16.0507H194.143V12.0075H180.409Z" fill="#333333"/>
<path d="M197.653 12.0075V35.9926H202.628V25.8161H210.967V21.8757H202.628V16.0507H211.387V12.0075H197.653Z" fill="#333333"/>
<path d="M214.898 35.9926H219.873V12.0075H214.898V35.9926Z" fill="#333333"/>
<path d="M242.69 31.1613C241.463 31.7095 239.746 32.2235 237.574 32.2235C233.16 32.2235 229.165 29.8593 229.165 24.0686C229.165 19.1688 232.424 15.7766 237.925 15.7766C239.781 15.7766 241.358 16.1192 242.795 16.6675L243.005 12.5557C241.148 11.9732 239.501 11.7334 237.574 11.7334C229.866 11.7334 223.91 15.8794 223.91 24.1371C223.91 32.8745 230.567 36.2667 236.663 36.2667C238.625 36.2667 240.833 35.9583 243.005 35.2388L242.69 31.1613Z" fill="#333333"/>
<path d="M246.855 12.0075V35.9926H261.5V31.7438H251.83V25.6105H260.624V21.6701H251.83V16.2563H261.5V12.0075H246.855Z" fill="#333333"/>
</svg>
