<svg width="208" height="128" viewBox="0 0 208 128" fill="none" xmlns="http://www.w3.org/2000/svg">
<path d="M66.7695 64.21C66.7695 61.8248 67.4539 60.0247 68.8684 58.8547C70.2373 57.6396 71.88 57.0546 73.7508 57.0546C75.6216 57.0546 77.2187 57.6396 78.5876 58.8547C79.9565 60.0697 80.6409 61.8248 80.6409 64.255C80.6409 66.6401 79.9565 68.4402 78.5876 69.6103C77.2187 70.8254 75.576 71.4104 73.7508 71.4104C71.88 71.4104 70.283 70.8254 68.8684 69.6103C67.4539 68.3952 66.7695 66.5951 66.7695 64.21ZM69.781 64.21C69.781 65.8751 70.1004 67.0451 70.6936 67.8102C71.3324 68.5752 72.0169 69.0703 72.747 69.2503C72.9295 69.2953 73.0664 69.3403 73.2489 69.3403C73.3858 69.3403 73.5683 69.3853 73.7052 69.3853C73.8877 69.3853 74.0246 69.3853 74.2071 69.3403C74.3896 69.3403 74.5265 69.2953 74.709 69.2503C75.4391 69.0703 76.1236 68.5752 76.7167 67.8102C77.3099 67.0451 77.6293 65.8301 77.6293 64.255C77.6293 62.6349 77.3099 61.4648 76.7167 60.6998C76.1236 59.9347 75.4391 59.4397 74.709 59.2597C74.5265 59.2147 74.344 59.1697 74.2071 59.1697C74.0246 59.1697 73.8877 59.1247 73.7052 59.1247C73.5227 59.1247 73.3858 59.1247 73.2489 59.1697C73.112 59.1697 72.9295 59.2147 72.747 59.2597C72.0169 59.4397 71.3324 59.9347 70.6936 60.6998C70.1004 61.3748 69.781 62.5899 69.781 64.21Z" fill="#333333"/>
<path d="M82.1467 57.1896H85.8883L90.8163 66.0101L91.5464 67.9452H91.592L91.5464 65.4251V57.1896H94.4211V71.2304H90.6794L85.7514 62.0499L85.0213 60.4748H84.9757L85.0213 62.9499V71.2304H82.1467V57.1896Z" fill="#333333"/>
<path d="M97.387 57.1896H100.262V68.8453H105.92V71.2304H97.387V57.1896Z" fill="#333333"/>
<path d="M104.14 57.1896H107.471L110.391 62.0949L110.848 63.085H110.939L111.395 62.0949L114.361 57.1896H117.418L112.262 65.5151V71.2304H109.388V65.4701L104.14 57.1896Z" fill="#333333"/>
<path d="M117.053 64.21C117.053 61.8248 117.738 60.0247 119.152 58.8547C120.521 57.6396 122.164 57.0546 124.035 57.0546C125.906 57.0546 127.503 57.6396 128.872 58.8547C130.24 60.0697 130.925 61.8248 130.925 64.255C130.925 66.6401 130.24 68.4402 128.872 69.6103C127.503 70.8254 125.86 71.4104 124.035 71.4104C122.164 71.4104 120.567 70.8254 119.152 69.6103C117.784 68.3952 117.053 66.5951 117.053 64.21ZM120.065 64.21C120.065 65.8751 120.384 67.0451 120.978 67.8102C121.616 68.5752 122.255 69.0703 123.031 69.2503C123.213 69.2953 123.35 69.3403 123.533 69.3403C123.67 69.3403 123.852 69.3853 123.989 69.3853C124.172 69.3853 124.309 69.3853 124.491 69.3403C124.674 69.3403 124.811 69.2953 124.993 69.2503C125.723 69.0703 126.408 68.5752 127.001 67.8102C127.594 67.0451 127.913 65.8301 127.913 64.255C127.913 62.6349 127.594 61.4648 127.001 60.6998C126.408 59.9347 125.723 59.4397 124.993 59.2597C124.811 59.2147 124.628 59.1697 124.491 59.1697C124.309 59.1697 124.172 59.1247 123.989 59.1247C123.807 59.1247 123.67 59.1247 123.533 59.1697C123.396 59.1697 123.213 59.2147 123.031 59.2597C122.301 59.4397 121.616 59.9347 120.978 60.6998C120.384 61.3748 120.065 62.5899 120.065 64.21Z" fill="#333333"/>
<path d="M132.932 57.1896H140.872V59.5297H135.807V62.9499H140.644V65.3351H135.807V71.2304H132.932V57.1896Z" fill="#333333"/>
<path d="M143.017 57.1896H150.956V59.5297H145.891V62.9499H150.728V65.3351H145.891V71.2304H143.017V57.1896Z" fill="#333333"/>
<path d="M152.645 71.2304V57.1896H155.519V71.2304H152.645Z" fill="#333333"/>
<path d="M168.186 57.5036V59.9337C167.684 59.7537 167.182 59.6187 166.634 59.5287C166.087 59.4387 165.448 59.3937 164.809 59.3937C163.303 59.3937 162.163 59.8437 161.341 60.7888C160.52 61.6888 160.109 62.8589 160.109 64.254C160.109 65.604 160.474 66.7291 161.25 67.6292C162.026 68.5292 163.121 69.0243 164.535 69.0243C165.037 69.0243 165.539 68.9792 166.132 68.9342C166.726 68.8442 167.319 68.7092 167.958 68.4392L168.14 70.8244C168.049 70.8694 167.912 70.9144 167.775 70.9594C167.592 71.0044 167.41 71.0494 167.182 71.0944C166.817 71.1844 166.36 71.2294 165.813 71.3194C165.265 71.3644 164.718 71.4094 164.125 71.4094C164.033 71.4094 163.942 71.4094 163.896 71.4094C163.805 71.4094 163.714 71.4094 163.668 71.4094C162.026 71.3194 160.52 70.6893 159.151 69.6093C157.782 68.4842 157.098 66.7291 157.098 64.389C157.098 62.0938 157.782 60.2937 159.105 59.0337C160.429 57.7736 162.254 57.1436 164.49 57.1436C165.083 57.1436 165.63 57.1436 166.087 57.1886C166.589 57.2336 167.045 57.3236 167.547 57.4136C167.638 57.4586 167.775 57.4586 167.866 57.5036C167.958 57.4586 168.049 57.5036 168.186 57.5036Z" fill="#333333"/>
<path d="M170.467 57.1897H179V59.3948H173.388V62.905H178.452V65.0651H173.388V69.0254H179V71.2305H170.467V57.1897Z" fill="#333333"/>
<path fill-rule="evenodd" clip-rule="evenodd" d="M42.2065 77.9234L29.7935 72.1564C28.7361 71.653 28.7361 70.8749 29.7935 70.4172L34.1151 68.4033L42.1605 72.1564C43.2179 72.6599 44.919 72.6599 45.9304 72.1564L53.9758 68.4033L58.2974 70.4172C59.3548 70.9206 59.3548 71.6987 58.2974 72.1564L45.8844 77.9234C44.919 78.3811 43.2179 78.3811 42.2065 77.9234Z" fill="#333333" fill-opacity="0.5"/>
<path fill-rule="evenodd" clip-rule="evenodd" d="M42.2065 70.8292L29.7935 65.0623C28.7361 64.5588 28.7361 63.7807 29.7935 63.323L34.0231 61.3549L42.2065 65.1538C43.2639 65.6573 44.9649 65.6573 45.9763 65.1538L54.1597 61.3549L58.3893 63.323C59.4467 63.8265 59.4467 64.6046 58.3893 65.0623L45.9763 70.8292C44.9189 71.3327 43.2179 71.3327 42.2065 70.8292Z" fill="#333333" fill-opacity="0.75"/>
<path fill-rule="evenodd" clip-rule="evenodd" d="M42.206 63.9174L29.7931 58.1505C28.7356 57.647 28.7356 56.8689 29.7931 56.4112L42.206 50.6443C43.2634 50.1408 44.9644 50.1408 45.9759 50.6443L58.3888 56.4112C59.4462 56.9147 59.4462 57.6928 58.3888 58.1505L45.9759 63.9174C44.9185 64.3751 43.2174 64.3751 42.206 63.9174Z" fill="#333333"/>
</svg>
