<svg width="208" height="128" viewBox="0 0 208 128" fill="none" xmlns="http://www.w3.org/2000/svg">
<path opacity="0.5" fill-rule="evenodd" clip-rule="evenodd" d="M101.126 72.6134L81.7246 63.9398C80.0719 63.1827 80.0719 62.0124 81.7246 61.3241L88.4791 58.2952L101.054 63.9398C102.707 64.6971 105.365 64.6971 106.946 63.9398L119.521 58.2952L126.276 61.3241C127.928 62.0813 127.928 63.2515 126.276 63.9398L106.874 72.6134C105.365 73.3017 102.707 73.3017 101.126 72.6134Z" fill="white"/>
<path opacity="0.75" fill-rule="evenodd" clip-rule="evenodd" d="M101.063 61.8803L81.7208 53.1968C80.0731 52.4387 80.0731 51.2671 81.7208 50.5779L88.3115 47.6145L101.063 53.3346C102.711 54.0927 105.361 54.0927 106.937 53.3346L119.689 47.6145L126.279 50.5779C127.927 51.336 127.927 52.5076 126.279 53.1968L106.937 61.8803C105.29 62.6384 102.639 62.6384 101.063 61.8803Z" fill="white"/>
<path fill-rule="evenodd" clip-rule="evenodd" d="M101.063 51.2587L81.7208 42.7001C80.0731 41.953 80.0731 40.7982 81.7208 40.119L101.063 31.5604C102.711 30.8132 105.361 30.8132 106.937 31.5604L126.279 40.119C127.927 40.8662 127.927 42.0209 126.279 42.7001L106.937 51.2587C105.289 51.9379 102.639 51.9379 101.063 51.2587Z" fill="white"/>
<path d="M53 89.6608C53 87.5609 53.6329 85.9761 54.9408 84.9459C56.2066 83.8762 57.7255 83.3611 59.4554 83.3611C61.1853 83.3611 62.662 83.8762 63.9278 84.9459C65.1935 86.0157 65.8263 87.5609 65.8263 89.7004C65.8263 91.8003 65.1935 93.3851 63.9278 94.4152C62.662 95.485 61.1431 96 59.4554 96C57.7255 96 56.2488 95.485 54.9408 94.4152C53.6329 93.3455 53 91.7607 53 89.6608ZM55.7847 89.6608C55.7847 91.1267 56.08 92.1569 56.6285 92.8304C57.2192 93.5039 57.8521 93.9397 58.5272 94.0983C58.6959 94.1378 58.8225 94.1775 58.9913 94.1775C59.1178 94.1775 59.2866 94.2171 59.4132 94.2171C59.582 94.2171 59.7085 94.2171 59.8773 94.1775C60.0461 94.1775 60.1727 94.1378 60.3414 94.0983C61.0165 93.9397 61.6494 93.5039 62.1979 92.8304C62.7464 92.1569 63.0417 91.0871 63.0417 89.7004C63.0417 88.2741 62.7464 87.2439 62.1979 86.5704C61.6494 85.8968 61.0165 85.461 60.3414 85.3026C60.1727 85.2629 60.0039 85.2233 59.8773 85.2233C59.7085 85.2233 59.582 85.1836 59.4132 85.1836C59.2444 85.1836 59.1178 85.1836 58.9913 85.2233C58.8647 85.2233 58.6959 85.2629 58.5272 85.3026C57.8521 85.461 57.2192 85.8968 56.6285 86.5704C56.08 87.1647 55.7847 88.2344 55.7847 89.6608Z" fill="white"/>
<path d="M67.0479 83.3611H70.3992L74.8132 91.3008L75.4671 93.0428H75.508L75.4671 90.7743V83.3611H78.0419V96H74.6906L70.2767 87.736L69.6227 86.3182H69.5818L69.6227 88.5463V96H67.0479V83.3611Z" fill="white"/>
<path d="M81.0958 83.3611H83.5651V93.853H88.4252V96H81.0958V83.3611Z" fill="white"/>
<path d="M87.2036 83.3611H90.1148L92.667 87.7766L93.0658 88.6677H93.1456L93.5444 87.7766L96.1366 83.3611H98.8084L94.3021 90.8553V96H91.7897V90.8147L87.2036 83.3611Z" fill="white"/>
<path d="M98.8083 89.6608C98.8083 87.5609 99.4111 85.9761 100.657 84.9459C101.862 83.8762 103.309 83.3611 104.956 83.3611C106.604 83.3611 108.01 83.8762 109.216 84.9459C110.421 86.0156 111.024 87.5609 111.024 89.7004C111.024 91.8002 110.421 93.3851 109.216 94.4152C108.01 95.485 106.564 96 104.956 96C103.309 96 101.902 95.485 100.657 94.4152C99.4513 93.3455 98.8083 91.7607 98.8083 89.6608ZM101.46 89.6608C101.46 91.1267 101.742 92.1569 102.264 92.8304C102.827 93.5039 103.389 93.9397 104.072 94.0983C104.233 94.1378 104.354 94.1775 104.514 94.1775C104.635 94.1775 104.796 94.2171 104.916 94.2171C105.077 94.2171 105.197 94.2171 105.358 94.1775C105.519 94.1775 105.639 94.1378 105.8 94.0983C106.443 93.9397 107.046 93.5039 107.568 92.8304C108.091 92.1569 108.372 91.0871 108.372 89.7004C108.372 88.2741 108.091 87.2439 107.568 86.5704C107.046 85.8968 106.443 85.461 105.8 85.3025C105.639 85.2629 105.479 85.2233 105.358 85.2233C105.197 85.2233 105.077 85.1836 104.916 85.1836C104.755 85.1836 104.635 85.1836 104.514 85.2233C104.394 85.2233 104.233 85.2629 104.072 85.3025C103.429 85.461 102.827 85.8968 102.264 86.5704C101.742 87.1646 101.46 88.2344 101.46 89.6608Z" fill="white"/>
<path d="M112.856 83.3611H120.186V85.4676H115.51V88.5463H119.975V90.6933H115.51V96H112.856V83.3611Z" fill="white"/>
<path d="M122.018 83.3611H129.347V85.4676H124.672V88.5463H129.137V90.6933H124.672V96H122.018V83.3611Z" fill="white"/>
<path d="M131.18 96V83.3611H133.623V96H131.18Z" fill="white"/>
<path d="M145.228 83.6801V85.8331C144.758 85.6736 144.288 85.554 143.775 85.4742C143.262 85.3946 142.664 85.3547 142.066 85.3547C140.655 85.3547 139.587 85.7533 138.818 86.5906C138.049 87.388 137.664 88.4247 137.664 89.6606C137.664 90.8567 138.006 91.8535 138.733 92.6509C139.459 93.4483 140.485 93.8869 141.809 93.8869C142.279 93.8869 142.749 93.847 143.305 93.8071C143.86 93.7274 144.416 93.6078 145.014 93.3685L145.185 95.4817C145.099 95.5216 144.971 95.5614 144.843 95.6013C144.672 95.6412 144.501 95.681 144.288 95.7209C143.946 95.8007 143.518 95.8405 143.006 95.9202C142.493 95.9601 141.98 96 141.425 96C141.339 96 141.254 96 141.211 96C141.125 96 141.04 96 140.997 96C139.459 95.9202 138.049 95.3621 136.767 94.4052C135.485 93.4084 134.844 91.8535 134.844 89.7803C134.844 87.7468 135.485 86.152 136.724 85.0357C137.964 83.9193 139.673 83.3611 141.766 83.3611C142.322 83.3611 142.835 83.3611 143.262 83.401C143.732 83.4409 144.159 83.5207 144.629 83.6003C144.715 83.6402 144.843 83.6402 144.928 83.6801C145.014 83.6402 145.099 83.6801 145.228 83.6801Z" fill="white"/>
<path d="M147.06 83.3611H155V85.346H149.777V88.5058H154.491V90.4503H149.777V94.0151H155V96H147.06V83.3611Z" fill="white"/>
</svg>
