<svg width="208" height="128" viewBox="0 0 208 128" fill="none" xmlns="http://www.w3.org/2000/svg">
<path d="M66.7695 63.9433C66.7695 61.5582 67.4539 59.7581 68.8684 58.588C70.2373 57.3729 71.88 56.7879 73.7508 56.7879C75.6216 56.7879 77.2187 57.3729 78.5876 58.588C79.9565 59.8031 80.6409 61.5582 80.6409 63.9883C80.6409 66.3735 79.9565 68.1736 78.5876 69.3436C77.2187 70.5587 75.576 71.1438 73.7508 71.1438C71.88 71.1438 70.283 70.5587 68.8684 69.3436C67.4539 68.1286 66.7695 66.3285 66.7695 63.9433ZM69.781 63.9433C69.781 65.6084 70.1004 66.7785 70.6936 67.5435C71.3324 68.3086 72.0169 68.8036 72.747 68.9836C72.9295 69.0286 73.0664 69.0736 73.2489 69.0736C73.3858 69.0736 73.5683 69.1186 73.7052 69.1186C73.8877 69.1186 74.0246 69.1186 74.2071 69.0736C74.3896 69.0736 74.5265 69.0286 74.709 68.9836C75.4391 68.8036 76.1236 68.3086 76.7167 67.5435C77.3099 66.7785 77.6293 65.5634 77.6293 63.9883C77.6293 62.3682 77.3099 61.1982 76.7167 60.4331C76.1236 59.6681 75.4391 59.173 74.709 58.993C74.5265 58.948 74.344 58.903 74.2071 58.903C74.0246 58.903 73.8877 58.858 73.7052 58.858C73.5227 58.858 73.3858 58.858 73.2489 58.903C73.112 58.903 72.9295 58.948 72.747 58.993C72.0169 59.173 71.3324 59.6681 70.6936 60.4331C70.1004 61.1082 69.781 62.3232 69.781 63.9433Z" fill="white"/>
<path d="M82.1467 56.9229H85.8883L90.8163 65.7434L91.5464 67.6786H91.592L91.5464 65.1584V56.9229H94.4211V70.9638H90.6794L85.7514 61.7832L85.0213 60.2081H84.9757L85.0213 62.6833V70.9638H82.1467V56.9229Z" fill="white"/>
<path d="M97.387 56.9229H100.262V68.5786H105.92V70.9638H97.387V56.9229Z" fill="white"/>
<path d="M104.14 56.9229H107.471L110.391 61.8282L110.848 62.8183H110.939L111.395 61.8282L114.361 56.9229H117.418L112.262 65.2484V70.9638H109.388V65.2034L104.14 56.9229Z" fill="white"/>
<path d="M117.053 63.9433C117.053 61.5582 117.738 59.7581 119.152 58.588C120.521 57.3729 122.164 56.7879 124.035 56.7879C125.906 56.7879 127.503 57.3729 128.872 58.588C130.24 59.8031 130.925 61.5582 130.925 63.9883C130.925 66.3735 130.24 68.1736 128.872 69.3436C127.503 70.5587 125.86 71.1438 124.035 71.1438C122.164 71.1438 120.567 70.5587 119.152 69.3436C117.784 68.1286 117.053 66.3285 117.053 63.9433ZM120.065 63.9433C120.065 65.6084 120.384 66.7785 120.978 67.5435C121.616 68.3086 122.255 68.8036 123.031 68.9836C123.213 69.0286 123.35 69.0736 123.533 69.0736C123.67 69.0736 123.852 69.1186 123.989 69.1186C124.172 69.1186 124.309 69.1186 124.491 69.0736C124.674 69.0736 124.811 69.0286 124.993 68.9836C125.723 68.8036 126.408 68.3086 127.001 67.5435C127.594 66.7785 127.913 65.5634 127.913 63.9883C127.913 62.3682 127.594 61.1982 127.001 60.4331C126.408 59.6681 125.723 59.173 124.993 58.993C124.811 58.948 124.628 58.903 124.491 58.903C124.309 58.903 124.172 58.858 123.989 58.858C123.807 58.858 123.67 58.858 123.533 58.903C123.396 58.903 123.213 58.948 123.031 58.993C122.301 59.173 121.616 59.6681 120.978 60.4331C120.384 61.1082 120.065 62.3232 120.065 63.9433Z" fill="white"/>
<path d="M132.932 56.9229H140.872V59.2631H135.807V62.6833H140.644V65.0684H135.807V70.9638H132.932V56.9229Z" fill="white"/>
<path d="M143.017 56.9229H150.956V59.2631H145.891V62.6833H150.728V65.0684H145.891V70.9638H143.017V56.9229Z" fill="white"/>
<path d="M152.645 70.9638V56.9229H155.519V70.9638H152.645Z" fill="white"/>
<path d="M168.186 57.2369V59.6671C167.684 59.4871 167.182 59.3521 166.634 59.262C166.087 59.172 165.448 59.127 164.809 59.127C163.303 59.127 162.163 59.5771 161.341 60.5221C160.52 61.4222 160.109 62.5922 160.109 63.9873C160.109 65.3374 160.474 66.4625 161.25 67.3625C162.026 68.2626 163.121 68.7576 164.535 68.7576C165.037 68.7576 165.539 68.7126 166.132 68.6676C166.726 68.5776 167.319 68.4426 167.958 68.1726L168.14 70.5577C168.049 70.6027 167.912 70.6477 167.775 70.6927C167.592 70.7377 167.41 70.7827 167.182 70.8277C166.817 70.9177 166.36 70.9627 165.813 71.0527C165.265 71.0977 164.718 71.1428 164.125 71.1428C164.033 71.1428 163.942 71.1428 163.896 71.1428C163.805 71.1428 163.714 71.1428 163.668 71.1428C162.026 71.0527 160.52 70.4227 159.151 69.3426C157.782 68.2176 157.098 66.4625 157.098 64.1223C157.098 61.8272 157.782 60.0271 159.105 58.767C160.429 57.5069 162.254 56.8769 164.49 56.8769C165.083 56.8769 165.63 56.8769 166.087 56.9219C166.589 56.9669 167.045 57.0569 167.547 57.1469C167.638 57.1919 167.775 57.1919 167.866 57.2369C167.958 57.1919 168.049 57.2369 168.186 57.2369Z" fill="white"/>
<path d="M170.467 56.923H179V59.1281H173.388V62.6383H178.452V64.7984H173.388V68.7587H179V70.9638H170.467V56.923Z" fill="white"/>
<path fill-rule="evenodd" clip-rule="evenodd" d="M42.2065 77.6567L29.7935 71.8897C28.7361 71.3863 28.7361 70.6082 29.7935 70.1505L34.1151 68.1366L42.1605 71.8897C43.2179 72.3932 44.919 72.3932 45.9304 71.8897L53.9759 68.1366L58.2975 70.1505C59.3549 70.654 59.3549 71.432 58.2975 71.8897L45.8844 77.6567C44.919 78.1144 43.2179 78.1144 42.2065 77.6567Z" fill="white" fill-opacity="0.5"/>
<path fill-rule="evenodd" clip-rule="evenodd" d="M42.2065 70.5627L29.7935 64.7957C28.7361 64.2922 28.7361 63.5141 29.7935 63.0564L34.0231 61.0883L42.2065 64.8872C43.2639 65.3907 44.9649 65.3907 45.9764 64.8872L54.1598 61.0883L58.3894 63.0564C59.4468 63.5599 59.4468 64.338 58.3894 64.7957L45.9764 70.5627C44.919 71.0661 43.2179 71.0661 42.2065 70.5627Z" fill="white" fill-opacity="0.75"/>
<path fill-rule="evenodd" clip-rule="evenodd" d="M42.2061 63.6508L29.7931 57.8838C28.7356 57.3804 28.7356 56.6023 29.7931 56.1446L42.2061 50.3776C43.2635 49.8741 44.9645 49.8741 45.976 50.3776L58.389 56.1446C59.4464 56.648 59.4464 57.4261 58.389 57.8838L45.976 63.6508C44.9186 64.1085 43.2175 64.1085 42.2061 63.6508Z" fill="white"/>
</svg>
