<svg width="293" height="210" viewBox="0 0 293 210" fill="none" xmlns="http://www.w3.org/2000/svg">
<path fill-rule="evenodd" clip-rule="evenodd" d="M170.757 87.1333H122.217C103.111 87.1333 87.4683 100.589 87.4683 117.022V122.702C87.4683 126.074 87.8631 129.355 88.5921 132.544H88.501C96.8541 167.384 119.635 192.383 146.426 192.383C172.64 192.383 194.996 168.447 203.774 134.761C204.898 130.904 205.475 126.864 205.475 122.702V117.022C205.475 100.589 189.862 87.1333 170.757 87.1333Z" fill="#F5F5F5" stroke="#385362" stroke-width="2" stroke-miterlimit="22.9256" stroke-linecap="round" stroke-linejoin="round"/>
<path fill-rule="evenodd" clip-rule="evenodd" d="M87.469 119.969V122.702C87.469 123.037 87.469 123.371 87.4994 123.735L97.8269 125.224L98.3736 158.606C99.5886 160.823 100.864 162.949 102.231 164.985L101.563 122.004L87.469 119.969Z" fill="#385362"/>
<path fill-rule="evenodd" clip-rule="evenodd" d="M191.29 122.004L205.475 119.969V122.702C205.475 123.037 205.475 123.371 205.475 123.705L195.056 125.224L194.479 158.545C193.264 160.762 191.989 162.889 190.652 164.954L191.29 122.004Z" fill="#385362"/>
<path fill-rule="evenodd" clip-rule="evenodd" d="M181.843 114.532L180.628 177.317C179.382 178.532 178.107 179.686 176.77 180.78L178.107 112.132L178.167 111.95L190.105 92.2363C191.411 92.9957 192.656 93.8462 193.841 94.7271L181.843 114.532Z" fill="#385362"/>
<path fill-rule="evenodd" clip-rule="evenodd" d="M111.099 114.532L112.314 177.317C113.559 178.532 114.866 179.686 116.172 180.78L114.866 112.132L114.805 111.95L102.867 92.2363C101.561 92.9957 100.286 93.8462 99.1313 94.7271L111.099 114.532Z" fill="#385362"/>
<path fill-rule="evenodd" clip-rule="evenodd" d="M196.454 96.9748C189.377 100.255 181.388 102.108 172.913 102.078L118.481 101.865C110.523 101.835 103.02 100.134 96.3076 97.1571C102.686 91.0213 111.951 87.1333 122.218 87.1333H170.757C180.902 87.1333 190.075 90.9302 196.454 96.9748Z" fill="#385362" fill-opacity="0.2"/>
<path fill-rule="evenodd" clip-rule="evenodd" d="M60.5557 95.7596L56.3032 94.8787C53.7821 94.3623 51.3217 93.9674 48.8917 93.6637V93.6333C37.0758 92.2361 26.5661 91.9019 18.3952 92.5702C16.9068 92.7524 15.4185 92.9043 14.4768 93.3599C13.5048 93.8156 13.0492 94.5446 13.0188 95.3951C13.0188 96.2456 13.3833 97.2176 14.1731 97.8858C14.9325 98.5237 16.0867 98.7971 17.3928 98.7971C18.699 98.7971 20.1266 98.5237 20.8252 99.0097C21.4935 99.4653 21.4023 100.741 20.8252 101.379C20.2177 102.047 19.1546 102.108 17.8788 102.017C16.6031 101.895 15.1755 101.652 13.9605 101.227C12.7758 100.802 11.8342 100.255 10.9837 99.6172C10.1028 99.0097 9.31309 98.3111 8.37146 97.7643C7.42984 97.2479 6.30596 96.9138 5.30359 96.8227C4.30122 96.762 3.45072 96.9442 2.81284 97.3087C2.17497 97.6732 1.7801 98.22 1.38522 98.7667C1.23335 99.0401 1.14222 99.3438 1.08147 99.6476C-0.315779 106.482 16.3905 115.959 41.1157 123.37C43.9406 124.251 46.9173 125.011 50.0459 125.649L54.2984 126.529C86.1922 133.03 92.4798 102.26 60.5557 95.7596Z" fill="#F5F5F5" stroke="#385362" stroke-width="2" stroke-miterlimit="22.9256" stroke-linecap="round" stroke-linejoin="round"/>
<path fill-rule="evenodd" clip-rule="evenodd" d="M6.79199 108.335C8.88787 109.885 11.5001 111.464 14.5376 113.074L77.8087 122.308C78.8719 121.275 79.692 120.151 80.3299 118.936L6.79199 108.335Z" fill="#385362"/>
<path fill-rule="evenodd" clip-rule="evenodd" d="M232.448 95.7596L236.701 94.8787C239.222 94.3623 241.682 93.9674 244.112 93.6637V93.6333C255.928 92.2361 266.468 91.9019 274.609 92.5702C276.097 92.7524 277.586 92.9043 278.558 93.3599C279.499 93.8156 279.955 94.5446 279.985 95.3951C279.985 96.2456 279.621 97.2176 278.831 97.8858C278.072 98.5237 276.917 98.7971 275.611 98.7971C274.305 98.7971 272.877 98.5237 272.179 99.0097C271.511 99.4653 271.602 100.741 272.179 101.379C272.786 102.047 273.849 102.108 275.125 102.017C276.401 101.895 277.829 101.652 279.044 101.227C280.228 100.802 281.17 100.255 282.051 99.6172C282.901 99.0097 283.691 98.3111 284.633 97.7643C285.574 97.2479 286.698 96.9138 287.7 96.8227C288.703 96.762 289.553 96.9442 290.191 97.3087C290.829 97.6732 291.224 98.22 291.619 98.7667C291.771 99.0401 291.862 99.3438 291.923 99.6476C293.32 106.482 276.614 115.959 251.888 123.37C249.063 124.251 246.087 125.011 242.958 125.649L238.706 126.529C206.812 133.03 200.524 102.26 232.448 95.7596Z" fill="#F5F5F5" stroke="#385362" stroke-width="2" stroke-miterlimit="22.9256" stroke-linecap="round" stroke-linejoin="round"/>
<path fill-rule="evenodd" clip-rule="evenodd" d="M286.243 108.305C284.147 109.854 281.565 111.464 278.527 113.043L215.195 122.277C214.132 121.275 213.282 120.121 212.674 118.936L286.243 108.305Z" fill="#385362"/>
<path fill-rule="evenodd" clip-rule="evenodd" d="M102.508 188.95L107.52 191.41C110.466 192.838 113.413 194.144 116.329 195.298L116.298 195.329C148.162 207.904 173.403 212.065 177.2 204.289C180.936 196.696 163.045 179.898 134.645 162.858C131.395 160.853 127.901 158.939 124.256 157.147L119.245 154.717C81.6706 136.34 64.934 170.573 102.508 188.95Z" fill="#F5F5F5" stroke="#385362" stroke-width="2" stroke-miterlimit="22.9256" stroke-linecap="round" stroke-linejoin="round"/>
<path fill-rule="evenodd" clip-rule="evenodd" d="M175.83 205.96C176.437 205.505 176.893 204.928 177.196 204.29C177.409 203.895 177.531 203.47 177.622 203.014L81.3329 163.678C81.3025 164.984 81.4544 166.382 81.7885 167.779L175.83 205.96Z" fill="#385362"/>
<path fill-rule="evenodd" clip-rule="evenodd" d="M190.075 188.92L185.063 191.38C182.086 192.838 179.14 194.114 176.254 195.298V195.329C144.391 207.904 119.149 212.035 115.352 204.259C111.647 196.665 129.537 179.868 157.938 162.828C161.188 160.823 164.651 158.909 168.296 157.117L173.308 154.687C210.882 136.31 227.649 170.543 190.075 188.92Z" fill="#F5F5F5" stroke="#385362" stroke-width="2" stroke-miterlimit="22.9256" stroke-linecap="round" stroke-linejoin="round"/>
<path fill-rule="evenodd" clip-rule="evenodd" d="M116.719 205.93C116.112 205.474 115.656 204.897 115.352 204.259C115.17 203.865 115.018 203.439 114.958 202.984L211.216 163.648C211.246 164.984 211.094 166.351 210.791 167.749L116.719 205.93Z" fill="#385362"/>
<path fill-rule="evenodd" clip-rule="evenodd" d="M75.3792 41.6312C85.1904 41.6616 93.1486 49.2857 93.0879 58.6109C93.0575 67.9664 85.0385 75.5297 75.2274 75.469C65.3859 75.4386 57.458 67.8145 57.4884 58.459C57.5491 49.1339 65.5377 41.5705 75.3792 41.6312Z" fill="#F5F5F5" stroke="#385362" stroke-width="2" stroke-miterlimit="22.9256" stroke-linecap="round" stroke-linejoin="round"/>
<path fill-rule="evenodd" clip-rule="evenodd" d="M216.653 42.2696C226.495 42.3 234.423 49.9241 234.362 59.2796C234.332 68.6048 226.313 76.1682 216.501 76.1378C206.66 76.077 198.732 68.4833 198.793 59.1278C198.823 49.7723 206.812 42.2392 216.653 42.2696Z" fill="#F5F5F5" stroke="#385362" stroke-width="2" stroke-miterlimit="22.9256" stroke-linecap="round" stroke-linejoin="round"/>
<path fill-rule="evenodd" clip-rule="evenodd" d="M224.186 49.8328C224.065 75.1352 201.01 95.7598 172.913 95.6383L118.481 95.4257C90.4145 95.3346 67.5421 74.5277 67.6636 49.1949C67.9673 -15.4735 224.49 -14.866 224.186 49.8328Z" fill="#F5F5F5" stroke="#385362" stroke-width="2" stroke-miterlimit="22.9256" stroke-linecap="round" stroke-linejoin="round"/>
<path fill-rule="evenodd" clip-rule="evenodd" d="M146.456 80.3294L142.113 80.4206C93.2091 81.2103 84.0055 67.0859 84.0662 53.3564C84.1573 35.344 112.376 29.6031 144.3 29.5728C145.09 29.5728 145.91 29.5728 146.699 29.5728C147.52 29.5728 148.309 29.5728 149.129 29.5728C181.023 29.8765 209.211 35.8604 209.12 53.8424C209.029 67.5719 199.704 81.6356 150.83 80.4509L146.456 80.3294Z" fill="white" stroke="#385362" stroke-width="2" stroke-miterlimit="22.9256" stroke-linecap="round" stroke-linejoin="round"/>
<path d="M124.404 69.6982C127.746 70.8829 131.087 72.0979 136.554 72.7357C142.022 73.404 149.585 73.4951 155.296 72.9787C161.006 72.432 164.864 71.2474 168.721 70.0627" stroke="#385362" stroke-width="3" stroke-miterlimit="22.9256" stroke-linecap="round" stroke-linejoin="round"/>
<path fill-rule="evenodd" clip-rule="evenodd" d="M116.659 49.7721C123.463 49.8025 129.112 54.541 130.145 60.7679C126.925 57.0014 122.157 54.6321 116.811 54.6321C111.161 54.6321 106.149 57.3051 102.929 61.4665C103.658 54.8751 109.551 49.7417 116.659 49.7721Z" fill="#385362" stroke="#385362" stroke-width="1.50097" stroke-miterlimit="22.9256" stroke-linecap="round" stroke-linejoin="round"/>
<path fill-rule="evenodd" clip-rule="evenodd" d="M175.951 50.1061C182.785 50.1365 188.405 54.9053 189.468 61.1018C186.248 57.3657 181.449 54.9965 176.133 54.9965C170.484 54.9965 165.441 57.6695 162.252 61.8005C162.981 55.2091 168.843 50.0757 175.951 50.1061Z" fill="#385362" stroke="#385362" stroke-width="1.50097" stroke-miterlimit="22.9256" stroke-linecap="round" stroke-linejoin="round"/>
<path fill-rule="evenodd" clip-rule="evenodd" d="M84.2178 56.2117C84.1267 55.27 84.0659 54.298 84.0659 53.3564C84.157 35.344 112.375 29.6031 144.3 29.5728C145.089 29.5728 145.909 29.5728 146.699 29.5728C147.519 29.5728 148.309 29.5728 149.129 29.5728C181.023 29.8765 209.211 35.8604 209.12 53.8424C209.089 54.8144 209.059 55.756 208.938 56.728C206.842 40.3863 179.686 34.8884 149.099 34.615C148.309 34.615 147.489 34.5846 146.699 34.5846C145.879 34.5846 145.059 34.5846 144.269 34.5846C113.682 34.615 86.4655 39.9306 84.2178 56.2117Z" fill="#385362" stroke="#385362" stroke-width="1.50097" stroke-miterlimit="22.9256" stroke-linecap="round" stroke-linejoin="round"/>
<path fill-rule="evenodd" clip-rule="evenodd" d="M91.3862 13.4436C106.088 5.15119 125.862 0.98981 145.697 1.02018H146.243H146.578C166.868 1.14168 187.068 5.63719 201.799 14.4459C200.433 16.3292 199.521 18.2428 198.914 19.8223C198.215 21.6752 195.633 23.2547 191.685 23.2547L146.79 23.1332L101.896 23.0421C97.9472 23.0421 95.3957 21.4626 94.7275 19.6097C94.0896 17.7872 93.0265 15.6002 91.3862 13.4436Z" fill="#385362" stroke="#385362" stroke-width="1.50097" stroke-miterlimit="22.9256" stroke-linecap="round" stroke-linejoin="round"/>
<path fill-rule="evenodd" clip-rule="evenodd" d="M97.218 10.4972C111.099 4.14886 128.383 0.989861 145.697 1.02024H146.243H146.547C164.316 1.14174 182.025 4.60449 196.028 11.3477C194.661 13.1702 193.719 15.0231 193.142 16.5722C192.535 18.2125 190.257 19.6097 186.733 19.6097L146.79 19.5186L106.877 19.4275C103.354 19.4275 101.106 18.0302 100.499 16.3596C99.891 14.6586 98.8583 12.502 97.218 10.4972Z" fill="#F5F5F5" stroke="#385362" stroke-width="1.50097" stroke-miterlimit="22.9256" stroke-linecap="round" stroke-linejoin="round"/>
<path fill-rule="evenodd" clip-rule="evenodd" d="M131.573 125.345L134.489 116.324C134.641 115.898 135.036 115.595 135.491 115.595H140.746C141.323 115.595 141.809 116.081 141.809 116.658V133.82C141.809 134.397 141.323 134.852 140.746 134.852H136.767C136.19 134.852 135.734 134.397 135.734 133.82V128.838L133.912 134.154C133.76 134.579 133.365 134.852 132.909 134.852H130.236C129.781 134.852 129.416 134.579 129.264 134.154L127.503 129.02V133.82C127.503 134.397 127.047 134.852 126.47 134.852H122.491C121.914 134.852 121.428 134.397 121.428 133.82V116.658C121.428 116.081 121.914 115.595 122.491 115.595H127.715C128.171 115.595 128.566 115.898 128.687 116.324L131.573 125.345ZM157.635 127.684L157.665 127.775C157.695 127.866 157.726 127.957 157.726 128.079C157.756 130.053 157.24 131.967 155.721 133.334C154.202 134.67 152.198 135.095 150.193 135.095C147.975 135.095 145.94 134.457 144.361 132.848C142.781 131.268 142.113 129.233 142.113 127.016V123.431C142.113 121.244 142.751 119.24 144.27 117.63C145.788 116.05 147.732 115.352 149.919 115.352C151.955 115.352 154.05 115.777 155.66 117.144C157.209 118.48 157.787 120.333 157.756 122.368C157.756 122.52 157.726 122.672 157.665 122.824L157.604 122.885C157.422 123.249 157.088 123.462 156.663 123.462H152.805C152.228 123.462 151.742 123.006 151.742 122.429C151.742 122.004 151.712 121.214 151.377 120.88C151.074 120.576 150.345 120.515 149.919 120.515C149.403 120.515 149.039 120.698 148.735 121.123C148.31 121.791 148.188 122.642 148.188 123.431V127.016C148.188 127.775 148.31 128.656 148.796 129.294C149.13 129.78 149.616 129.932 150.193 129.932C150.557 129.932 151.134 129.901 151.377 129.597C151.681 129.294 151.742 128.443 151.742 128.018C151.742 127.441 152.198 126.985 152.775 126.985H156.663C157.118 126.985 157.513 127.259 157.635 127.684ZM163.922 128.99V133.82C163.922 134.397 163.436 134.852 162.859 134.852H158.88C158.303 134.852 157.817 134.397 157.817 133.82V116.658C157.817 116.081 158.303 115.595 158.88 115.595H165.441C167.446 115.595 169.42 116.081 170.969 117.417C172.427 118.693 173.096 120.363 173.096 122.307C173.096 124.221 172.427 125.892 170.969 127.167C169.42 128.504 167.446 128.99 165.441 128.99H163.922ZM163.922 123.826H165.441C165.866 123.826 166.352 123.735 166.656 123.431C166.929 123.128 167.051 122.733 167.051 122.338C167.051 121.882 166.96 121.487 166.656 121.153C166.352 120.849 165.866 120.758 165.441 120.758H163.922V123.826Z" fill="#385362"/>
<path d="M131.542 128.656H131.603L135.491 116.658H140.746V133.819H136.766V122.763L136.706 122.733L132.909 133.819H130.236L126.53 122.915H126.469V133.819H122.49V116.658H127.715L131.542 128.656ZM156.662 128.018V128.079C156.723 130.053 156.146 131.541 155.022 132.544C153.898 133.546 152.288 134.062 150.192 134.062C148.066 134.062 146.365 133.394 145.089 132.118C143.813 130.812 143.176 129.111 143.176 127.015V123.431C143.176 121.366 143.783 119.665 145.028 118.359C146.274 117.052 147.884 116.415 149.919 116.415C152.106 116.415 153.776 116.931 154.961 117.933C156.176 118.936 156.753 120.424 156.723 122.338L156.662 122.429H152.804C152.804 121.366 152.592 120.606 152.136 120.151C151.681 119.695 150.952 119.482 149.919 119.482C149.038 119.482 148.339 119.817 147.853 120.546C147.398 121.275 147.155 122.216 147.155 123.431V127.015C147.155 128.23 147.398 129.172 147.944 129.901C148.461 130.63 149.22 130.995 150.192 130.995C151.103 130.995 151.772 130.752 152.167 130.296C152.561 129.84 152.774 129.081 152.774 128.018H156.662ZM162.859 127.927V133.819H158.879V116.658H165.441C167.476 116.658 169.085 117.174 170.27 118.207C171.455 119.239 172.062 120.606 172.062 122.307C172.062 123.978 171.455 125.345 170.27 126.378C169.085 127.41 167.476 127.927 165.441 127.927H162.859ZM162.859 124.859H165.441C166.291 124.859 166.959 124.616 167.415 124.16C167.871 123.674 168.083 123.067 168.083 122.338C168.083 121.548 167.871 120.94 167.415 120.454C166.959 119.968 166.291 119.725 165.441 119.725H162.859V124.859Z" fill="url(#paint0_linear_5115_4204)"/>
<path fill-rule="evenodd" clip-rule="evenodd" d="M122.825 138.285H171.607C172.063 138.285 172.458 138.649 172.458 139.135V140.684C172.458 141.17 172.063 141.535 171.607 141.535H122.825C122.339 141.535 121.974 141.17 121.974 140.684V139.135C121.974 138.649 122.339 138.285 122.825 138.285Z" fill="#DCEEF8" stroke="#385362" stroke-width="2" stroke-miterlimit="22.9256"/>
<defs>
<linearGradient id="paint0_linear_5115_4204" x1="122.49" y1="115.725" x2="133.321" y2="147.336" gradientUnits="userSpaceOnUse">
<stop stop-color="#FFC671"/>
<stop offset="0.59375" stop-color="#FF7541"/>
<stop offset="1" stop-color="#FF6F3D"/>
</linearGradient>
</defs>
</svg>
