<svg width="658" height="400" viewBox="0 0 658 400" fill="none" xmlns="http://www.w3.org/2000/svg">
<rect x="111" y="73" width="440" height="278" fill="#F2F2F2"/>
<path d="M203 87H125V342H203V87Z" fill="#F5F5F5"/>
<path d="M190 320H137V329H190V320Z" fill="white"/>
<path d="M190 176H137V185H190V176Z" fill="white"/>
<path d="M190 162H137V171H190V162Z" fill="white"/>
<path d="M190 99H137V155H190V99Z" fill="white"/>
<path d="M537.517 86.4861H220.486V157.517H537.517V86.4861Z" fill="white"/>
<path d="M538 158H220V86H538V158ZM220.97 157.031H537.03V86.969H220.97V157.031Z" fill="#CCCCCC"/>
<path d="M258 125C265.18 125 271 119.18 271 112C271 104.82 265.18 99 258 99C250.82 99 245 104.82 245 112C245 119.18 250.82 125 258 125Z" fill="#F5F5F5"/>
<path d="M234 145H284C279.358 136.076 269.88 130 259.048 130C248.12 130 238.642 136.076 234 145Z" fill="#F5F5F5"/>
<path d="M393 100H294V106H393V100Z" fill="#F5F5F5"/>
<path d="M393 113H294V119H393V113Z" fill="#F5F5F5"/>
<path d="M393 126H294V132H393V126Z" fill="#F5F5F5"/>
<path d="M393 138H294V144H393V138Z" fill="#F5F5F5"/>
<path d="M526 101H401V145H526V101Z" fill="#F5F5F5"/>
<path d="M537.517 178.486H220.486V249.517H537.517V178.486Z" fill="white"/>
<path d="M538 250H220V178H538V250ZM220.97 249.031H537.03V178.969H220.97V249.031Z" fill="#CCCCCC"/>
<path d="M258 217C265.18 217 271 211.18 271 204C271 196.82 265.18 191 258 191C250.82 191 245 196.82 245 204C245 211.18 250.82 217 258 217Z" fill="#F5F5F5"/>
<path d="M234 237H284C279.358 228.076 269.88 222 259.048 222C248.12 222 238.642 228.076 234 237Z" fill="#F5F5F5"/>
<path d="M393 192H294V198H393V192Z" fill="#F5F5F5"/>
<path d="M393 205H294V211H393V205Z" fill="#F5F5F5"/>
<path d="M393 218H294V224H393V218Z" fill="#F5F5F5"/>
<path d="M393 230H294V236H393V230Z" fill="#F5F5F5"/>
<path d="M526 193H401V237H526V193Z" fill="#F5F5F5"/>
<path d="M537.517 270.486H220.486V341.517H537.517V270.486Z" fill="white"/>
<path d="M538 342H220V270H538V342ZM220.97 341.031H537.03V270.969H220.97V341.031Z" fill="#CCCCCC"/>
<path d="M258 309C265.18 309 271 303.18 271 296C271 288.82 265.18 283 258 283C250.82 283 245 288.82 245 296C245 303.18 250.82 309 258 309Z" fill="#F5F5F5"/>
<path d="M234 329H284C279.358 320.076 269.88 314 259.048 314C248.12 314 238.642 320.076 234 329Z" fill="#F5F5F5"/>
<path d="M393 284H294V290H393V284Z" fill="#F5F5F5"/>
<path d="M393 297H294V303H393V297Z" fill="#F5F5F5"/>
<path d="M393 310H294V316H393V310Z" fill="#F5F5F5"/>
<path d="M393 322H294V328H393V322Z" fill="#F5F5F5"/>
<path d="M526 285H401V329H526V285Z" fill="#F5F5F5"/>
<path d="M326.378 281.01C326.378 281.787 330.36 353.57 330.36 353.57H316.474L304.918 282.273L326.378 281.01Z" fill="#9ADAF3"/>
<path d="M330.36 355.027H316.473C315.793 355.027 315.114 354.541 315.017 353.764L303.461 282.467C303.364 282.079 303.461 281.69 303.752 281.302C304.043 281.01 304.432 280.816 304.82 280.719L326.184 279.456C326.572 279.456 326.961 279.553 327.252 279.845C327.543 280.136 327.738 280.525 327.738 280.913C327.738 282.176 330.36 328.8 331.719 353.375C331.719 353.764 331.622 354.152 331.331 354.444C331.136 354.832 330.748 355.027 330.36 355.027ZM317.736 352.113H328.806C328.029 338.611 325.407 291.695 324.921 282.564L306.665 283.633L317.736 352.113Z" fill="#333333"/>
<path d="M291.905 281.01C294.527 307.917 288.409 353.57 288.409 353.57H277.825L270.736 282.273L291.905 281.01Z" fill="#9ADAF3"/>
<path d="M288.409 355.027H277.824C277.047 355.027 276.465 354.444 276.368 353.667L269.279 282.37C269.279 281.982 269.376 281.593 269.667 281.302C269.959 281.01 270.25 280.816 270.735 280.816L291.905 279.553C292.682 279.553 293.362 280.136 293.459 280.913C296.081 307.722 290.06 353.376 289.963 353.764C289.769 354.444 289.186 355.027 288.409 355.027ZM279.087 352.113H287.147C288.118 344.731 292.682 306.654 290.642 282.564L272.386 283.633L279.087 352.113Z" fill="#333333"/>
<path d="M127.891 201.846C127.891 201.846 114.296 239.048 112.839 256.435C111.383 273.822 139.253 257.212 139.253 257.212C139.253 257.212 141.389 257.698 141.972 269.548C142.554 281.399 145.079 297.912 145.079 297.912C145.079 297.912 144.302 308.402 145.079 317.63C145.856 326.858 149.837 352.501 149.837 352.501H160.325C160.325 352.501 163.044 312.093 162.85 308.499C162.655 304.905 161.587 295.58 161.587 295.58C161.587 295.58 166.54 249.83 164.112 240.117C161.684 230.5 156.635 198.64 156.635 198.64L127.891 201.846Z" fill="#9ADAF3"/>
<path d="M160.324 354.055H149.837C149.157 354.055 148.477 353.57 148.38 352.793C148.186 351.724 144.399 326.955 143.622 317.824C142.942 309.179 143.525 299.466 143.622 298.106C143.331 296.358 141.194 280.913 140.514 269.743C140.126 263.138 139.349 260.321 138.864 259.252C134.591 261.681 120.899 268.771 114.49 264.789C112.062 263.235 110.994 260.418 111.285 256.435C112.742 238.951 125.851 202.914 126.434 201.457C126.628 200.971 127.114 200.583 127.599 200.486L156.343 197.183C157.12 197.086 157.8 197.669 157.897 198.446C157.994 198.737 163.043 230.306 165.374 239.825C167.802 249.442 163.335 292.181 162.946 295.58C163.043 296.843 164.014 305.003 164.209 308.402C164.5 312.093 161.781 350.947 161.684 352.598C161.684 353.376 161.101 354.055 160.324 354.055ZM151.099 351.141H158.965C159.742 339.097 161.587 311.511 161.393 308.694C161.198 305.1 160.13 295.872 160.13 295.775C160.13 295.678 160.13 295.58 160.13 295.483C160.227 294.998 164.986 249.83 162.655 240.602C160.519 232.054 156.343 206.605 155.372 200.389L128.959 203.303C126.919 208.936 115.558 241.088 114.295 256.727C114.101 259.641 114.684 261.486 116.14 262.36C120.996 265.372 134.008 258.864 138.572 256.144C138.864 255.95 139.252 255.852 139.64 255.95C141.777 256.435 143.039 261.001 143.525 269.646C144.205 281.302 146.535 297.717 146.632 297.912C146.632 298.009 146.632 298.106 146.632 298.203C146.632 298.3 145.952 308.694 146.632 317.63C147.215 325.498 150.322 345.896 151.099 351.141Z" fill="#333333"/>
<path fill-rule="evenodd" clip-rule="evenodd" d="M329 397.96C510.202 397.96 658 393.298 658 387.47C658 381.739 510.202 376.979 329 376.979C147.798 376.979 0 381.641 0 387.47C0 393.2 147.798 397.96 329 397.96Z" fill="#E7E7E7"/>
<path d="M545.552 56.9714H118.762C106.912 56.9714 97.3931 66.5834 97.3931 78.3313V361.835H566.92V78.3313C566.92 66.5834 557.305 56.9714 545.552 56.9714ZM551.185 351.155H111.186V73.0884H551.185V351.155Z" fill="white"/>
<path d="M613 372H45V373H613V372Z" fill="#AAAAAA"/>
<path d="M45 373C46.4572 376.411 51.3147 382 68.0242 382H329.354H590.684C607.685 382 612.64 376.411 614 373H45Z" fill="#D3D3D3"/>
<path d="M568 363H96V78.3449C96 66.0066 106.016 56 118.365 56H545.538C557.887 56 567.903 66.0066 567.903 78.3449L568 363ZM97.9448 361.057H566.055V78.3449C566.055 67.0753 556.915 57.943 545.635 57.943H118.365C107.085 57.943 97.9448 67.0753 97.9448 78.3449V361.057Z" fill="#666666"/>
<path d="M552 352H111V73H552V352ZM112.069 351.029H551.126L551 74H112L112.069 351.029Z" fill="#CCCCCC"/>
<path d="M590.134 383H67.5739C57.3753 383 50.0905 380.868 46.1082 376.797C43 373.599 43 370.401 43 370.207V361H615V370.207C615 370.304 615.097 373.502 612.086 376.604C608.103 380.868 600.721 383 590.134 383ZM45.0397 363V370.207C45.0397 370.304 45.0397 372.824 47.6622 375.441C50.1876 377.96 55.7241 381.062 67.6711 381.062H590.231C602.567 381.062 608.201 377.96 610.726 375.344C613.251 372.824 613 370.207 613 370.207V363H45.0397Z" fill="#666666"/>
<path d="M321.514 37.4744C317.827 37.3773 313.849 37.0857 312.685 36.0168C310.55 34.0732 308.997 29.8946 308.609 24.8414C308.221 19.691 308.027 1.7133 289.979 0.15847C271.932 -1.39636 261.549 8.80722 245.733 16.8729C229.82 24.9386 196.538 40.9728 176.162 45.3458C159.861 48.8442 186.156 49.2329 199.934 48.4554C208.57 44.4712 260.773 20.2741 270.573 16.2899C270.573 16.2899 224.386 39.6123 200.517 51.7595C197.412 53.8974 194.598 56.424 195.762 57.4929C197.509 59.0477 211.966 60.1167 223.61 58.7562C230.984 55.6465 258.444 43.7909 272.708 35.9196C272.708 35.9196 244.084 52.7312 227.297 59.8252C222.737 62.4489 217.885 65.8501 219.632 67.8908C222.058 70.8062 237.874 69.5429 247.383 66.6275C253.884 62.6433 270.185 52.7312 274.842 49.2329C275.231 48.9413 275.425 48.747 275.425 48.747C275.231 48.8442 275.036 49.0385 274.842 49.2329C272.029 51.4679 259.9 60.9913 249.614 67.6965C247.092 70.6118 244.666 74.4017 247.092 76.3452C250.876 79.2606 263.296 74.5961 271.349 70.3203C275.134 67.2106 281.635 61.6715 284.06 58.2703C284.06 58.2703 279.306 64.9755 272.417 71.292C269.991 74.7904 266.692 80.4267 269.021 82.5646C271.932 85.1884 281.344 82.0787 286.971 78.1916C289.106 75.7622 292.502 71.4864 294.152 68.1824C294.152 68.1824 292.211 74.4017 288.427 79.2606C287.845 81.4956 287.748 84.3138 290.464 85.4799C294.734 87.3262 299.488 84.7025 303.758 80.5239C305.116 78.5803 306.96 75.7622 308.221 73.3328C308.221 73.3328 306.378 78.1916 304.534 81.8843C304.243 83.5363 304.437 85.3827 306.183 86.0629C308.609 87.1319 316.954 84.2166 322.194 74.9848L321.514 37.4744Z" fill="#9ADAF3"/>
<path d="M322.388 40.7784C322.388 40.7784 320.932 40.7784 320.835 40.7784C318.991 40.7784 317.051 40.6812 315.207 40.3897C314.625 40.2925 314.043 40.1953 313.461 40.0981C311.617 39.7094 311.035 39.0292 310.453 38.4461C308.318 36.1139 306.96 32.0325 306.571 27.0764C306.571 26.7849 306.571 26.4934 306.474 26.2018C306.086 20.3712 305.116 4.92008 289.009 3.46242C287.844 3.36524 286.583 3.26807 285.419 3.26807C284.157 3.26807 282.896 3.36524 281.537 3.46242C272.514 4.43419 265.236 9.19586 257.377 13.1801C256.892 13.3745 256.406 13.666 256.018 13.8604C254.757 14.4434 253.496 15.1237 252.234 15.7067C250.294 16.6785 248.353 17.6503 246.412 18.622C243.113 20.1769 240.299 21.4402 240.299 21.4402C240.299 21.4402 243.016 20.3712 246.412 18.9136C248.353 18.1361 250.196 17.1644 252.137 16.2898C256.406 14.2491 260.579 12.014 264.848 9.8761C268.826 7.93256 272.902 6.28055 277.171 5.40596C279.888 4.8229 282.702 4.53137 285.419 4.53137C286.583 4.53137 287.747 4.62854 288.912 4.72572C303.952 6.0862 304.922 20.274 305.31 26.3962C305.31 26.7849 305.31 27.0764 305.407 27.368C305.698 30.9635 306.474 35.3365 308.609 38.349C310.841 41.4586 312.878 41.4586 316.469 41.9445C317.051 42.0417 322.388 42.236 322.388 42.236C322.485 41.5558 322.485 41.1671 322.388 40.7784Z" fill="#9ADAF3"/>
<path d="M480.839 45.3458C460.463 41.07 427.181 24.9386 411.268 16.8729C395.355 8.90442 384.972 -1.29916 366.925 0.25567C348.877 1.8105 348.683 19.8854 348.295 24.9386C347.907 30.089 346.354 34.1704 344.219 36.114C343.055 37.0858 338.98 37.4745 335.196 37.5716L334.322 74.2074C339.465 84.2166 348.392 87.2291 350.818 86.1601C352.564 85.3827 352.758 83.6335 352.467 81.9815C350.623 78.2888 348.78 73.4299 348.78 73.4299C350.041 75.8594 351.885 78.6775 353.243 80.621C357.513 84.8968 362.267 87.5206 366.537 85.5771C369.156 84.4109 369.156 81.69 368.574 79.3577C364.79 74.4989 362.849 68.2796 362.849 68.2796C364.499 71.5836 367.895 75.8594 370.03 78.2888C375.658 82.1759 384.972 85.2855 387.98 82.6618C390.309 80.5239 387.01 74.8876 384.584 71.3892C377.598 65.0727 372.941 58.3675 372.941 58.3675C375.463 61.7687 381.867 67.3078 385.652 70.4175C393.608 74.6932 406.125 79.3577 409.812 76.4424C412.238 74.4989 409.812 70.709 407.29 67.7937C397.004 60.9913 384.875 51.4679 382.062 49.3301C381.867 49.1357 381.576 49.0385 381.479 48.8442C381.479 48.8442 381.673 49.0385 382.062 49.3301C386.622 52.8284 402.923 62.8377 409.521 66.7247C419.03 69.64 434.846 70.9033 437.272 67.988C439.019 65.8501 434.167 62.4489 429.607 59.9223C412.82 52.8284 384.196 36.0168 384.196 36.0168C398.46 43.8881 425.823 55.7437 433.294 58.8534C444.938 60.2139 459.395 59.1449 461.142 57.5901C462.306 56.5211 459.492 54.0917 456.387 51.8567C432.518 39.7095 386.331 16.3871 386.331 16.3871C396.131 20.2741 448.334 44.4712 456.97 48.5526C470.845 49.3301 497.14 48.8442 480.839 45.3458Z" fill="#9ADAF3"/>
<path d="M334.614 40.8758C334.614 40.8758 336.069 40.8758 336.166 40.8758C338.01 40.8758 339.95 40.7786 341.794 40.4871C342.376 40.3899 342.958 40.2927 343.54 40.1956C345.384 39.8068 345.966 39.1266 346.548 38.5435C348.683 36.2113 350.041 32.1299 350.43 27.1738C350.43 26.8823 350.43 26.5908 350.527 26.2992C350.915 20.4686 351.885 5.01749 367.992 3.55983C369.157 3.46266 370.418 3.36548 371.582 3.36548C372.844 3.36548 374.105 3.46266 375.464 3.55983C384.487 4.5316 391.765 9.29327 399.624 13.2775C400.109 13.4719 400.595 13.7634 400.983 13.9578C402.244 14.5408 403.506 15.2211 404.767 15.8041C406.708 16.7759 408.648 17.7477 410.589 18.7194C413.888 20.2743 416.702 21.5376 416.702 21.5376C416.702 21.5376 413.985 20.4686 410.589 19.011C408.648 18.2336 406.805 17.2618 404.864 16.3872C400.595 14.3465 396.422 12.1114 392.153 9.97351C388.175 8.02997 384.099 6.37796 379.83 5.50337C377.113 4.92031 374.299 4.62878 371.582 4.62878C370.418 4.62878 369.254 4.72596 368.089 4.82313C353.049 6.18361 352.079 20.3714 351.691 26.4936C351.691 26.8823 351.691 27.1738 351.594 27.4654C351.303 31.0609 350.527 35.4339 348.392 38.4464C346.16 41.556 344.123 41.556 340.532 42.0419C339.95 42.1391 334.614 42.3334 334.614 42.3334C334.517 41.6532 334.517 41.2645 334.614 40.8758Z" fill="#9ADAF3"/>
<path d="M320.157 21.343C319.671 21.7317 319.38 22.3148 319.38 23.0922C319.38 24.2583 320.06 25.1329 320.933 25.1329H327.046C324.329 24.7442 321.903 23.3837 320.157 21.343Z" fill="#9ADAF3"/>
<path d="M336.651 21.343C335.002 23.3837 332.576 24.8414 329.762 25.2301H335.875C336.748 25.2301 337.428 24.3555 337.428 23.1894C337.428 22.3148 337.137 21.6345 336.651 21.343Z" fill="#9ADAF3"/>
<path d="M337.816 14.6378C337.816 19.8854 333.643 24.064 328.404 24.064C323.164 24.064 318.992 19.8854 318.992 14.6378C318.992 9.39028 323.164 5.21167 328.404 5.21167C333.643 5.21167 337.816 9.48746 337.816 14.6378Z" fill="#9ADAF3"/>
<path d="M324.814 164.096C326.463 162.93 328.21 161.667 329.957 160.501C330.345 160.209 330.83 159.917 331.218 159.626L331.703 139.122C329.665 138.247 327.143 137.372 324.426 136.303L324.814 164.096Z" fill="#9ADAF3"/>
<path d="M329.86 218.807C328.598 217.446 327.143 216.086 325.59 214.628L326.075 245.239C327.143 243.781 328.21 242.324 329.375 240.866L329.86 218.807Z" fill="#9ADAF3"/>
<path d="M330.151 206.174L330.927 173.425C328.695 174.883 326.755 176.243 325.008 177.506L325.396 201.412C326.949 202.967 328.501 204.619 330.151 206.174Z" fill="#9ADAF3"/>
<path d="M328.015 124.059C329.277 124.642 330.14 124.936 331.498 125.519L334.322 23.481C332.673 24.6471 330.635 25.2301 328.403 25.2301C326.269 25.2301 324.231 24.5499 322.485 23.481L324.504 122.518C325.862 123.101 326.657 123.379 328.015 124.059Z" fill="#9ADAF3"/>
<path d="M328.792 251.944C327.725 253.305 326.851 254.665 326.269 256.026L326.657 277.988L327.531 281L328.501 277.988L329.083 251.555C328.986 251.653 328.889 251.847 328.792 251.944Z" fill="#9ADAF3"/>
<path d="M326.075 245.239C326.366 244.85 326.657 244.461 326.948 244.073C326.075 242.907 325.202 241.838 324.328 240.769C323.358 239.505 322.388 238.339 321.417 237.076C316.372 230.176 318.506 227.358 319.574 224.249C320.059 222.694 323.261 219.292 326.754 215.794C325.299 214.434 323.746 212.976 322.291 211.713C320.835 213.17 319.477 214.531 318.312 215.891C309.774 225.22 312.102 229.788 313.849 234.355C315.207 237.853 320.447 242.421 324.813 247.085C325.299 246.502 325.687 245.919 326.075 245.239Z" fill="#9ADAF3"/>
<path d="M319.477 167.983C321.611 166.428 324.037 164.679 326.56 162.93C321.806 159.529 316.857 156.127 313.073 153.212C306.281 148.062 315.11 142.037 319.962 139.413C321.32 138.733 323.358 137.858 325.784 136.886C324.134 136.303 322.388 135.623 320.544 134.943C318.506 134.165 316.372 133.388 314.237 132.611C313.073 133.194 312.005 133.777 310.938 134.457C304.631 138.053 297.548 144.175 300.75 152.143C303.273 158.363 309.677 161.861 315.11 165.262C316.469 166.039 318.021 167.011 319.477 167.983Z" fill="#9ADAF3"/>
<path d="M331.315 250.875C331.121 250.486 330.927 250.098 330.635 249.709C329.956 250.389 329.374 251.167 328.889 251.847C330.247 253.79 331.509 255.928 331.994 258.261C332.576 261.079 331.509 264.188 330.538 266.715C330.733 266.618 331.121 266.326 331.218 266.132C331.509 265.84 331.703 265.549 331.8 265.257C333.546 262.05 334.032 258.941 333.158 255.442C332.77 253.888 332.091 252.333 331.315 250.875Z" fill="#9ADAF3"/>
<path d="M366.828 108.511C366.149 102.097 361.588 97.6268 360.424 96.8494C359.162 96.072 360.036 95.0031 358.095 92.8652C356.154 90.7273 351.109 88.395 344.802 88.4922C338.495 88.5894 336.651 94.3228 337.233 94.6143C337.913 94.9059 337.913 95.4889 337.913 95.4889C336.36 95.1974 336.845 97.1409 339.95 99.4732C343.055 101.805 348.683 104.624 350.333 104.041C351.497 103.652 352.758 104.332 353.535 105.304C353.826 105.79 354.117 106.276 354.214 106.761C354.311 107.247 354.311 107.733 354.214 108.122C353.826 110.357 351.691 111.912 350.041 113.078C347.713 114.73 345.287 116.188 342.958 117.84C340.144 119.783 335.196 122.115 329.568 124.836C333.546 126.683 337.718 128.626 341.697 130.764C344.317 129.792 347.033 128.723 349.459 127.752C360.715 123.184 367.507 114.827 366.828 108.511ZM345.093 93.351C344.123 93.351 343.249 92.8652 343.249 92.3793C343.249 91.7962 344.026 91.4075 345.093 91.4075C346.063 91.4075 346.936 91.8934 346.936 92.3793C346.936 92.8652 346.063 93.351 345.093 93.351Z" fill="#9ADAF3"/>
<path d="M336.457 170.024C336.36 169.927 336.36 169.927 336.263 169.829C335.487 170.315 334.711 170.801 333.935 171.287C332.285 172.356 330.733 173.425 329.277 174.397C336.554 179.45 340.63 183.434 340.824 188.584C341.018 192.666 335.39 198.788 329.083 205.105C329.665 205.688 330.247 206.271 330.83 206.854C331.8 207.728 332.673 208.7 333.643 209.575C334.711 208.7 335.584 207.923 336.263 207.242C340.63 203.647 348.295 195.29 348.974 188.682C349.459 182.074 342.958 174.98 336.457 170.024Z" fill="#9ADAF3"/>
<path d="M345.093 134.263C333.643 127.655 318.506 122.018 312.684 117.84C310.356 116.188 307.93 114.827 305.601 113.078C304.049 111.912 301.817 110.357 301.429 108.122C301.332 107.636 301.332 107.15 301.429 106.761C301.526 106.178 301.817 105.693 302.108 105.304C302.884 104.235 304.146 103.652 305.31 104.041C306.96 104.526 312.587 101.805 315.692 99.4732C318.797 97.141 319.283 95.1974 317.73 95.4889C317.73 95.4889 317.827 94.9059 318.409 94.6143C319.088 94.3228 317.245 88.5894 310.841 88.4922C304.534 88.395 299.488 90.7273 297.548 92.8652C295.607 95.0031 296.383 96.072 295.219 96.8494C293.957 97.6268 289.494 102.194 288.815 108.511C288.136 114.924 295.025 123.184 305.989 127.752C317.051 132.222 330.926 136.692 335.778 139.316C340.629 141.94 349.459 148.062 342.667 153.115C335.875 158.265 325.687 165.068 319.186 170.024C312.684 174.883 306.183 182.074 306.766 188.682C307.348 195.29 315.11 203.55 319.477 207.242C323.843 210.838 335.002 221.042 336.069 224.248C337.136 227.358 339.271 230.273 334.225 237.076C333.837 237.562 333.546 238.048 333.158 238.436C331.12 240.963 329.083 243.49 327.239 246.113C325.104 249.126 323.358 252.43 322.193 255.928C321.611 257.775 321.223 259.718 321.126 261.662C321.029 262.731 321.029 263.702 321.126 264.771C321.223 266.715 321.805 268.853 322.776 270.602C323.358 271.671 323.94 272.74 324.037 272.643C324.231 272.448 322.679 268.172 322.485 266.229C322.096 263.022 322.97 256.9 327.53 250.875C332.091 244.85 340.144 238.728 341.891 234.161C343.637 229.69 345.966 225.026 337.427 215.697C328.889 206.368 314.722 194.901 314.916 188.39C315.207 181.879 321.514 177.312 332.964 169.829C337.621 166.817 342.473 163.999 347.033 160.889C351.788 157.585 356.251 153.212 355.96 146.896C355.766 140.968 349.75 136.984 345.093 134.263ZM310.744 91.4075C311.714 91.4075 312.587 91.8934 312.587 92.3793C312.587 92.9623 311.811 93.351 310.744 93.351C309.774 93.351 308.9 92.8652 308.9 92.3793C308.9 91.7962 309.676 91.4075 310.744 91.4075Z" fill="#9ADAF3"/>
<path d="M127.891 201.846C127.891 201.846 114.296 239.048 112.839 256.435C111.383 273.822 111.285 295.386 111.285 295.386C111.285 295.386 109.44 298.883 106.042 308.111C102.643 317.339 95.3599 372.997 95.3599 372.997L102.06 375.231C102.06 375.231 123.521 315.687 124.492 311.025C125.463 306.362 127.114 295.483 128.182 293.735C142.069 269.451 139.35 257.115 139.35 257.115L156.635 198.543L127.891 201.846Z" fill="#9ADAF3"/>
<path d="M102.06 376.785C101.866 376.785 101.769 376.785 101.574 376.688L94.874 374.454C94.1943 374.259 93.8058 373.579 93.9029 372.9C94.1943 370.665 101.283 317.047 104.682 307.722C107.595 299.951 109.343 296.163 109.829 295.095C109.829 292.278 110.023 272.462 111.382 256.338C112.839 238.854 125.948 202.817 126.531 201.36C126.725 200.874 127.211 200.486 127.696 200.389L156.343 197.183C156.829 197.086 157.314 197.28 157.605 197.669C157.897 198.057 157.994 198.543 157.897 199.029L140.709 257.309C141.097 259.641 142.165 272.171 129.347 294.609C128.765 295.58 127.599 301.991 126.919 305.78C126.531 307.917 126.143 309.956 125.851 311.413C124.88 316.076 104.293 373.385 103.419 375.814C103.225 376.396 102.643 376.785 102.06 376.785ZM96.9133 372.025L101.186 373.482C108.663 352.598 122.355 314.327 123.035 310.831C123.327 309.471 123.715 307.431 124.103 305.294C125.269 298.786 126.143 294.512 126.822 293.152C140.223 269.84 137.796 257.698 137.796 257.601C137.698 257.407 137.796 257.115 137.796 256.921L154.401 200.486L128.862 203.303C126.822 208.936 115.461 241.088 114.198 256.727C112.742 273.919 112.645 295.386 112.645 295.58C112.645 295.775 112.548 296.066 112.45 296.26C112.45 296.26 110.605 299.854 107.304 308.888C104.391 316.95 97.9815 363.963 96.9133 372.025Z" fill="#333333"/>
<path d="M139.738 104.614C129.444 100.631 116.626 106.654 116.626 122.195C116.626 141.622 117.112 143.662 117.112 143.662C117.112 143.662 130.221 145.41 139.738 145.41C150.808 145.41 160.324 142.885 160.324 142.885C160.324 142.885 164.014 109.082 149.448 103.545C143.719 101.214 139.738 104.614 139.738 104.614Z" fill="#666666"/>
<path d="M139.737 146.867C130.221 146.867 117.111 145.216 117.014 145.119L116.043 145.022L115.849 144.051C115.752 143.662 115.363 140.942 115.363 122.195C115.363 114.716 118.179 108.694 123.326 105.1C127.987 101.894 134.008 101.117 139.64 102.963C141.194 101.991 144.981 100.146 150.031 102.088C165.568 108.014 162.072 141.525 161.878 142.982L161.781 143.953L160.81 144.245C160.324 144.342 150.905 146.77 139.737 146.867ZM118.471 142.399C121.869 142.788 131.969 143.953 139.64 143.953C139.64 143.953 139.64 143.953 139.737 143.953C148.477 143.953 156.343 142.302 158.965 141.719C159.45 136.183 160.907 109.471 148.865 104.905C144.01 103.06 140.805 105.682 140.611 105.877L139.931 106.459L139.155 106.168C134.202 104.322 128.861 104.905 124.783 107.722C120.413 110.733 118.082 115.979 118.082 122.39C118.179 135.406 118.374 140.457 118.471 142.399Z" fill="#333333"/>
<path d="M174.503 247.888C174.503 248.665 174.6 249.345 174.892 250.122C175.086 250.705 175.377 251.191 175.863 251.482C176.542 251.871 177.416 251.385 178.193 251.191C179.844 250.705 181.689 251.385 183.243 252.162C184.797 252.939 186.35 253.911 188.098 254.105C188.778 254.202 189.555 254.105 189.943 253.425C190.235 252.842 190.04 252.162 189.749 251.579C187.904 248.082 184.991 244.974 182.952 241.574C181.204 238.66 179.747 235.455 178.679 232.25C177.999 230.21 175.086 231.181 174.6 233.707C174.115 235.844 174.892 238.758 175.183 240.895C175.28 243.323 174.503 245.557 174.503 247.888Z" fill="white"/>
<path d="M188.388 255.075C188.194 255.075 188.097 255.075 187.903 255.075C186.252 254.881 184.892 254.201 183.533 253.424C183.242 253.327 183.047 253.133 182.756 253.035C181.494 252.453 179.843 251.773 178.386 252.161C178.192 252.161 178.095 252.258 177.901 252.258C177.221 252.453 176.25 252.744 175.376 252.355C174.502 251.967 174.113 251.093 173.919 250.413C173.628 249.636 173.531 248.762 173.531 247.887C173.531 246.819 173.628 245.653 173.822 244.585C174.016 243.322 174.113 242.156 174.016 240.894C173.919 240.311 173.822 239.631 173.725 238.854C173.434 237.105 173.142 235.066 173.434 233.317C173.919 231.277 175.473 230.112 176.832 230.015C177.998 229.917 178.969 230.597 179.357 231.763C180.425 234.968 181.882 238.077 183.533 240.894C184.407 242.351 185.475 243.808 186.543 245.265C187.903 247.11 189.359 248.956 190.427 250.996C191.01 252.064 191.01 253.035 190.622 253.715C190.33 254.687 189.456 255.075 188.388 255.075ZM179.357 250.121C180.911 250.121 182.465 250.704 183.63 251.384C183.921 251.481 184.115 251.676 184.407 251.773C185.669 252.453 186.835 253.035 188.097 253.133C188.582 253.23 188.971 253.035 188.971 252.938C188.971 252.841 188.971 252.55 188.777 252.064C187.806 250.121 186.446 248.373 185.087 246.527C184.018 245.07 182.853 243.613 181.979 242.059C180.134 239.048 178.677 235.843 177.609 232.54C177.512 232.152 177.221 232.054 177.027 232.054C176.444 232.054 175.667 232.637 175.376 233.803C175.084 235.163 175.376 236.911 175.667 238.562C175.764 239.339 175.861 240.019 175.958 240.699C176.056 242.156 175.958 243.516 175.764 244.779C175.667 245.847 175.473 246.722 175.473 247.693C175.473 248.373 175.57 249.053 175.764 249.636C175.958 250.219 176.153 250.413 176.25 250.413C176.444 250.51 176.93 250.413 177.318 250.219C177.512 250.121 177.706 250.121 177.901 250.024C178.386 250.121 178.872 250.121 179.357 250.121Z" fill="#333333"/>
<path d="M173.143 202.04C172.366 196.212 168.967 156.095 164.986 152.016C160.422 147.45 154.498 148.81 141.486 147.742C125.075 146.382 120.122 149.296 116.044 154.347C111.286 160.272 101.672 185.138 98.6617 201.263C98.3704 202.623 97.8849 206.897 100.215 207.965C104.974 210.296 106.625 207.091 107.498 205.731C108.081 204.857 120.899 180.282 123.327 173.774C125.172 179.408 126.92 192.521 127.211 195.629C128.668 210.782 109.538 220.495 104.585 269.354C102.837 286.644 101.672 294.318 101.672 294.318C101.672 294.318 132.649 308.985 141.972 276.931C146.244 262.263 146.147 261.68 146.147 261.68C146.147 261.68 147.118 280.719 149.158 285.187C155.275 298.98 171.104 295.58 171.104 295.58C171.104 295.58 160.034 199.514 159.451 195.823C158.674 190.967 160.325 189.412 160.616 187.178L163.238 208.742L173.434 238.854C173.434 238.854 175.182 239.825 177.027 240.117C178.775 240.408 181.397 237.883 181.397 237.883C181.397 237.883 173.92 207.868 173.143 202.04Z" fill="white"/>
<path d="M117.015 299.077C108.469 299.077 101.38 295.775 100.992 295.58C100.409 295.289 100.118 294.706 100.215 294.026C100.215 293.929 101.38 286.256 103.128 269.16C106.041 239.631 114.101 224.478 119.928 213.405C123.618 206.411 126.337 201.36 125.754 195.629C125.463 193.006 124.298 184.361 122.938 178.145C118.665 187.567 109.149 205.634 108.663 206.314L108.469 206.605C107.595 208.062 105.167 211.948 99.4381 209.131C96.1364 207.479 96.8162 202.331 97.1075 200.777C100.215 184.264 110.023 159.204 114.781 153.278C119.345 147.645 124.977 144.828 141.486 146.188C144.981 146.479 147.895 146.576 150.517 146.673C157.8 146.965 162.169 147.159 165.957 150.85C168.967 153.861 171.298 170.763 173.822 195.143C174.114 198.252 174.405 200.583 174.502 201.748C175.279 207.479 182.465 237.105 182.562 237.397C182.659 237.883 182.562 238.368 182.174 238.757C181.688 239.242 178.969 241.865 176.541 241.379C174.599 240.991 172.657 240.019 172.56 239.922C172.269 239.728 171.977 239.437 171.88 239.145L162.849 212.433C166.151 240.214 172.172 292.375 172.463 295.289C172.56 296.066 172.074 296.746 171.298 296.843C171.103 296.843 154.304 300.34 147.7 285.673C146.535 283.05 145.758 276.251 145.176 270.617C144.69 272.462 144.01 274.599 143.234 277.222C140.417 286.935 135.271 293.541 128.085 296.746C124.492 298.494 120.607 299.077 117.015 299.077ZM103.225 293.346C106.527 294.706 117.5 298.397 127.017 294.123C133.426 291.209 137.893 285.284 140.514 276.445C144.107 264.109 144.496 261.875 144.593 261.583C144.593 260.903 145.079 260.321 145.758 260.223C146.438 260.126 147.215 260.515 147.409 261.195C147.409 261.292 147.506 261.389 147.506 261.583C147.798 266.829 148.769 281.107 150.322 284.604C154.984 294.998 165.568 294.803 169.355 294.318C167.996 282.467 158.382 199.417 157.897 195.92C157.314 192.229 157.994 190.189 158.576 188.635C158.771 187.955 158.965 187.47 159.062 186.887C159.159 186.11 159.742 185.624 160.519 185.624C161.295 185.624 161.878 186.207 161.975 186.887L164.5 208.354L174.502 237.785C175.085 238.077 176.153 238.465 177.124 238.66C177.512 238.757 178.678 238.174 179.649 237.3C178.484 232.346 172.463 207.577 171.686 202.234C171.492 201.069 171.298 198.737 170.909 195.532C169.744 184.653 166.831 155.901 163.917 152.987C161.004 150.073 157.217 149.976 150.419 149.684C147.798 149.587 144.787 149.49 141.291 149.199C124.492 147.742 120.51 150.947 117.112 155.221C112.548 160.855 102.934 185.721 100.021 201.457C99.6323 203.594 99.7294 206.12 100.798 206.605C104.099 208.256 105.07 206.702 106.041 205.148L106.236 204.857C106.818 203.983 119.539 179.602 121.87 173.191C122.064 172.608 122.647 172.22 123.229 172.22C123.812 172.22 124.395 172.608 124.589 173.191C126.434 178.825 128.182 191.938 128.57 195.338C129.153 201.846 126.337 207.285 122.453 214.667C116.723 225.546 108.857 240.408 106.041 269.354C104.682 282.953 103.614 290.627 103.225 293.346Z" fill="#333333"/>
<path d="M103.42 173.871L116.627 207.577L141.389 204.177L130.416 168.723L103.42 173.871Z" fill="url(#paint0_linear)"/>
<path d="M116.626 209.034C116.043 209.034 115.461 208.645 115.267 208.062L102.06 174.357C101.866 173.968 101.963 173.482 102.157 173.094C102.351 172.705 102.74 172.414 103.128 172.414L130.124 167.266C130.901 167.169 131.581 167.557 131.775 168.237L142.748 203.691C142.845 204.08 142.845 204.565 142.554 204.954C142.36 205.342 141.971 205.537 141.486 205.634L116.723 209.034C116.723 209.034 116.723 209.034 116.626 209.034ZM105.362 175.037L117.5 206.022L139.446 203.011L129.347 170.471L105.362 175.037Z" fill="#333333"/>
<path d="M160.324 190.287C163.14 183.681 164.208 173.677 161.295 166.974C160.907 166.1 159.742 166.683 159.644 167.363C159.256 171.151 159.839 174.939 159.742 178.728C159.644 182.516 158.965 186.207 158.673 189.995C158.673 191.064 160.033 191.064 160.324 190.287Z" fill="#333333"/>
<path d="M137.019 182.128C138.088 181.739 139.35 181.642 140.321 182.322C141.195 183.002 141.486 184.168 141.389 185.236C141.292 186.305 140.612 187.276 139.835 188.053C137.99 190.093 130.125 196.309 129.251 190.481C128.959 188.15 131.484 187.373 132.552 185.819C133.815 184.071 134.883 182.808 137.019 182.128Z" fill="white"/>
<path d="M131.58 193.88C131.192 193.88 130.901 193.88 130.512 193.686C129.638 193.395 128.57 192.618 128.279 190.578C127.987 188.441 129.347 187.275 130.512 186.401C130.998 186.013 131.483 185.624 131.775 185.235C133.134 183.39 134.396 182.03 136.727 181.253C138.281 180.67 139.834 180.864 140.903 181.641C141.971 182.419 142.553 183.973 142.359 185.527C142.165 186.692 141.582 187.761 140.611 188.829C139.737 189.606 135.076 193.88 131.58 193.88ZM137.407 183.001C135.562 183.584 134.591 184.653 133.425 186.304C132.94 186.887 132.357 187.372 131.872 187.858C130.803 188.732 130.221 189.315 130.318 190.286C130.512 191.646 130.998 191.743 131.192 191.841C133.134 192.423 137.698 189.024 139.155 187.372C139.932 186.595 140.32 185.818 140.417 185.041C140.514 184.264 140.32 183.487 139.737 183.098C139.252 182.71 138.378 182.71 137.407 183.001Z" fill="#333333"/>
<path d="M99.5357 208.548C97.3022 206.12 98.2733 201.069 101.672 198.543C105.071 195.92 129.153 188.927 129.153 188.927C129.153 188.927 129.056 189.315 129.93 190.772C130.804 192.229 132.844 193.201 132.844 193.201C132.844 193.201 110.703 207.577 109.052 208.354C104.779 210.296 101.089 210.199 99.5357 208.548Z" fill="white"/>
<path d="M103.225 211.268C101.283 211.268 99.6323 210.685 98.5642 209.519C97.3989 208.257 96.8162 206.314 97.0104 204.274C97.2047 201.554 98.6613 198.932 100.895 197.28C104.391 194.561 126.434 188.15 128.862 187.373C129.347 187.178 129.93 187.373 130.318 187.761C130.61 188.053 130.804 188.441 130.707 188.83C130.707 188.927 130.901 189.315 131.192 189.898C131.678 190.772 133.037 191.549 133.523 191.841C134.008 192.035 134.3 192.521 134.3 193.104C134.3 193.686 134.105 194.075 133.62 194.366C131.386 195.823 111.285 208.839 109.634 209.616C107.304 210.685 105.07 211.268 103.225 211.268ZM128.279 190.578C118.665 193.395 104.876 197.863 102.643 199.612C101.089 200.777 100.118 202.623 99.9237 204.468C99.8266 205.731 100.118 206.8 100.701 207.479C101.672 208.548 104.682 208.645 108.469 206.897C109.537 206.411 121.676 198.64 130.221 193.104C129.639 192.618 129.056 192.035 128.667 191.452C128.473 191.161 128.376 190.869 128.279 190.578Z" fill="#333333"/>
<path d="M146.049 263.138C145.952 263.138 145.855 263.138 145.758 263.138C144.981 262.943 144.496 262.166 144.69 261.389C150.031 237.203 145.952 192.715 145.855 192.229C145.758 191.452 146.341 190.675 147.215 190.675C147.991 190.578 148.768 191.161 148.768 192.035C148.963 193.881 152.944 237.494 147.506 262.069C147.312 262.652 146.729 263.138 146.049 263.138Z" fill="#333333"/>
<path d="M160.13 170.471C158.577 170.471 157.12 170.665 155.566 170.665C153.721 170.665 151.876 170.665 150.031 170.568C148.963 170.568 148.574 171.443 148.672 172.317C148.963 174.259 148.963 176.591 150.614 177.853C151.099 178.242 151.779 178.145 151.973 177.465C152.653 175.619 151.682 173.482 151.391 171.54C150.905 172.122 150.517 172.705 150.031 173.288C152.459 173.288 154.789 173.288 157.217 173.094C158.674 172.997 160.13 172.9 160.907 171.637C161.198 171.248 160.713 170.471 160.13 170.471Z" fill="#333333"/>
<path d="M146.633 134.241C146.633 134.629 147.896 146.188 147.896 146.188L149.935 147.742L147.216 161.244L133.33 147.451L136.534 146.285L136.243 135.698L146.633 134.241Z" fill="white"/>
<path d="M147.312 162.118C147.021 162.118 146.826 162.02 146.632 161.826L132.746 148.033C132.552 147.839 132.455 147.45 132.455 147.159C132.455 146.867 132.746 146.576 133.037 146.479L135.659 145.508L135.465 135.6C135.465 135.114 135.853 134.726 136.339 134.628L146.535 133.269C146.826 133.269 147.118 133.269 147.312 133.463C147.506 133.657 147.603 133.851 147.603 134.143C147.603 134.628 148.38 141.039 148.866 145.605L150.614 146.867C150.905 147.062 151.099 147.45 151.002 147.839L148.283 161.34C148.186 161.729 147.992 162.02 147.603 162.118C147.506 162.118 147.409 162.118 147.312 162.118ZM135.174 147.742L146.632 159.203L148.866 148.13L147.312 146.965C147.118 146.77 146.924 146.576 146.924 146.285C146.535 142.885 145.953 137.64 145.758 135.308L137.407 136.377L137.601 146.09C137.601 146.479 137.31 146.867 136.922 147.062L135.174 147.742Z" fill="#333333"/>
<path d="M134.3 143.662L123.521 152.501L130.998 157.164L134.203 155.609L133.135 158.815L148.866 166.683L155.081 154.25L153.624 152.113L157.897 148.81L149.546 143.079L147.312 161.146L134.3 143.662Z" fill="white"/>
<path d="M148.866 168.14C148.671 168.14 148.38 168.043 148.186 167.946L132.454 160.078C131.775 159.786 131.483 159.009 131.678 158.329L131.58 158.426C131.095 158.621 130.609 158.621 130.221 158.329L122.744 153.667C122.355 153.375 122.064 152.987 122.064 152.501C122.064 152.016 122.258 151.53 122.55 151.238L133.328 142.399C133.62 142.108 134.008 142.011 134.397 142.108C134.785 142.108 135.173 142.399 135.368 142.691L146.244 157.164L148.089 142.691C148.186 142.205 148.477 141.719 148.963 141.525C149.448 141.331 149.934 141.331 150.419 141.622L158.771 147.353C159.159 147.645 159.353 148.033 159.353 148.519C159.353 149.004 159.159 149.393 158.771 149.684L155.566 152.113L156.246 153.181C156.537 153.57 156.537 154.153 156.343 154.638L150.128 167.071C149.934 167.849 149.351 168.14 148.866 168.14ZM134.882 158.135L148.186 164.74L153.333 154.444L152.361 152.987C151.973 152.307 152.07 151.53 152.653 151.044L155.275 149.004L150.516 145.702L148.574 161.341C148.477 161.923 148.089 162.409 147.506 162.603C146.923 162.798 146.341 162.506 145.952 162.02L134.008 145.799L126.045 152.404L131.095 155.512L133.62 154.347C134.105 154.055 134.785 154.153 135.173 154.541C135.659 154.93 135.756 155.512 135.562 156.095L134.882 158.135Z" fill="#333333"/>
<path d="M155.276 121.905C154.111 113.26 146.439 108.5 138.962 109.471C131.873 110.443 126.921 117.533 127.503 125.79C127.503 125.79 127.503 125.79 127.406 125.79C126.047 125.79 124.881 126.956 124.881 128.315C124.881 129.675 126.047 130.841 127.406 130.841C127.795 130.841 128.183 130.744 128.571 130.549C131.485 137.543 139.836 142.497 146.245 141.623C152.071 140.749 156.344 130.647 155.276 121.905Z" fill="white"/>
<path d="M144.69 142.594C138.378 142.594 131.095 137.834 127.988 131.714C127.793 131.714 127.599 131.812 127.405 131.812C125.463 131.812 123.909 130.257 123.909 128.315C123.909 126.761 124.977 125.401 126.434 125.012C126.24 116.659 131.581 109.568 138.767 108.596C142.748 108.111 146.827 109.082 149.934 111.413C153.333 113.842 155.566 117.63 156.149 121.904C157.314 130.549 153.139 141.622 146.244 142.594C145.758 142.594 145.273 142.594 144.69 142.594ZM128.57 129.578C128.667 129.578 128.765 129.578 128.862 129.675C129.153 129.772 129.347 129.966 129.444 130.257C132.163 136.668 139.932 141.525 146.05 140.748C151.099 140.068 155.372 130.549 154.304 122.195C153.818 118.407 151.876 115.104 148.866 112.968C146.05 110.928 142.457 110.053 139.058 110.539C132.552 111.413 127.891 118.116 128.376 125.789C128.376 126.081 128.279 126.275 128.085 126.469C127.891 126.663 127.599 126.761 127.405 126.761H127.308C126.434 126.761 125.851 127.441 125.851 128.315C125.851 129.383 127.017 130.257 128.085 129.675C128.182 129.578 128.376 129.578 128.57 129.578Z" fill="#333333"/>
<path d="M141.388 124.138C141.777 123.944 142.262 123.75 142.748 123.555C142.845 123.458 142.942 123.458 143.039 123.361C142.748 123.458 142.651 123.361 142.554 123.264C142.554 123.361 142.554 123.458 142.554 123.458C142.554 123.75 142.554 123.652 142.651 123.361C142.845 123.264 142.942 123.167 143.136 123.07H143.039C143.233 123.07 143.428 123.07 143.525 123.07H143.428C143.622 123.264 143.913 123.555 144.107 123.75C143.913 123.264 143.816 122.778 143.428 122.39C143.233 122.293 143.136 122.293 142.942 122.39C142.554 122.681 142.457 123.264 142.262 123.75C142.165 124.041 142.262 124.429 142.554 124.721C143.233 125.401 144.302 125.012 144.496 124.138C144.69 123.458 144.496 122.584 144.107 122.098C143.622 121.418 142.845 121.224 142.068 121.613C141.388 121.904 141 122.487 140.514 123.07C139.932 123.652 140.709 124.429 141.388 124.138Z" fill="#333333"/>
<path d="M149.254 123.652C149.739 123.458 150.225 123.361 150.71 123.167C150.808 123.167 151.002 123.069 151.099 122.972C151.293 122.875 151.196 122.875 150.905 122.875C150.71 122.778 150.613 122.778 150.613 122.875V123.069C150.613 123.167 150.613 123.167 150.613 123.264C150.613 123.361 150.613 123.361 150.613 123.167C150.71 123.069 150.808 122.972 151.002 122.778C151.196 122.778 151.39 122.778 151.487 122.778H151.39C151.584 122.972 151.876 123.264 152.07 123.458C151.973 122.972 151.876 122.487 151.487 122.098C151.39 122.001 151.196 122.001 151.099 122.001C150.71 122.292 150.516 122.681 150.322 123.167C150.128 123.652 150.225 123.944 150.516 124.332C151.099 125.109 152.264 124.624 152.555 123.846C152.75 123.264 152.653 122.389 152.361 121.807C151.876 121.127 151.099 120.835 150.322 121.224C149.642 121.515 149.157 122.098 148.671 122.487C147.991 122.875 148.574 123.944 149.254 123.652Z" fill="#333333"/>
<path d="M147.992 126.178C148.283 126.955 148.38 127.732 148.672 128.509C148.769 128.703 148.963 129.286 148.963 129.48C148.866 129.869 148.478 129.772 148.186 129.869C147.992 129.966 147.895 130.063 147.798 130.257C147.7 130.354 147.798 130.646 147.895 130.646C148.38 130.937 149.157 130.84 149.643 130.452C150.129 130.063 150.032 129.48 149.837 128.897C149.449 127.829 149.157 126.76 148.769 125.789C148.478 125.595 147.895 125.789 147.992 126.178Z" fill="#333333"/>
<path d="M125.851 124.818C125.851 124.818 131.192 124.915 135.076 122.389C138.961 119.864 145.952 111.802 145.952 111.802C145.952 111.802 149.642 116.27 151.585 117.436C153.527 118.601 156.731 119.378 156.731 119.378L153.332 110.539L144.301 105.391L127.211 108.791L125.851 124.818Z" fill="#666666"/>
<path d="M125.948 125.789C125.851 125.789 125.851 125.789 125.851 125.789C125.268 125.789 124.88 125.304 124.88 124.818C124.88 124.235 125.365 123.847 125.851 123.847C125.948 123.847 130.998 123.847 134.494 121.613C138.184 119.184 145.078 111.219 145.175 111.219C145.37 111.025 145.661 110.928 145.952 110.928C146.244 110.928 146.535 111.025 146.729 111.316C147.7 112.482 150.613 115.882 152.07 116.756C153.818 117.824 156.925 118.601 156.925 118.601C157.411 118.698 157.799 119.281 157.702 119.767C157.605 120.253 157.022 120.641 156.537 120.544C156.44 120.544 153.138 119.767 151.099 118.504C149.545 117.533 147.215 114.91 146.049 113.55C144.107 115.687 138.96 121.418 135.756 123.458C131.775 125.692 126.725 125.789 125.948 125.789Z" fill="#333333"/>
<path d="M141.777 134.24C142.36 135.405 143.816 135.891 145.079 136.085C146.147 136.28 148.186 135.988 147.798 134.337C147.701 134.046 147.409 133.851 147.118 133.754C146.438 133.754 145.758 134.046 145.079 134.046C144.302 134.046 143.331 134.046 142.845 133.366C142.263 132.88 141.389 133.657 141.777 134.24Z" fill="#333333"/>
<path d="M94.681 372.9C93.2244 375.329 89.4372 377.369 89.3401 383.488C89.243 389.607 91.3794 393.979 93.6128 394.561C96.7203 395.436 101.77 390.19 103.129 385.722C104.489 381.254 102.644 375.329 102.644 375.329L94.681 372.9Z" fill="white"/>
<path d="M94.3883 395.823C93.9999 395.823 93.7086 395.823 93.3202 395.726C90.3098 394.852 88.0764 389.607 88.1735 383.487C88.2706 378.533 90.6011 375.911 92.3491 374.065C92.9317 373.385 93.4173 372.9 93.7086 372.317C93.9999 371.831 94.5826 371.637 95.0681 371.831L102.934 374.259C103.322 374.357 103.614 374.648 103.711 375.036C103.808 375.328 105.653 381.35 104.196 386.11C103.031 390.287 98.2726 395.823 94.3883 395.823ZM95.1652 374.357C94.8739 374.745 94.4854 375.231 94.097 375.619C92.4462 377.465 90.6983 379.505 90.6011 383.487C90.504 389.218 92.5433 392.909 93.9999 393.298C96.0392 393.881 100.7 389.607 101.963 385.236C102.934 381.933 102.06 377.756 101.671 376.202L95.1652 374.357Z" fill="#333333"/>
<path d="M502.628 125.983C498.841 127.149 491.267 129.189 489.713 139.097C488.159 149.004 494.471 151.238 491.85 157.552C489.228 163.963 479.614 165.129 479.614 165.129C479.614 165.129 484.761 177.95 489.81 179.31C494.957 180.67 537.684 184.264 542.248 181.933C547.686 179.116 549.24 173.579 549.24 173.579C549.24 173.579 538.073 164.449 537.781 156.581C537.587 150.364 546.327 128.315 521.079 120.641C508.94 116.853 502.628 125.983 502.628 125.983Z" fill="white"/>
<path d="M533.217 184.167C518.651 184.167 493.111 181.836 489.421 180.767C483.789 179.213 478.837 167.071 478.254 165.711C478.06 165.323 478.157 164.837 478.351 164.449C478.545 164.06 478.934 163.769 479.419 163.769C479.516 163.769 488.159 162.603 490.49 157.067C491.558 154.444 490.878 152.793 489.907 150.364C488.839 147.644 487.479 144.342 488.256 138.902C489.907 128.509 497.773 125.983 501.754 124.721C503.308 122.875 510.105 115.687 521.564 119.184C543.704 125.886 541.083 143.759 539.82 152.404C539.529 154.152 539.335 155.61 539.335 156.484C539.529 163.575 550.113 172.317 550.211 172.414C550.696 172.802 550.89 173.385 550.696 173.968C550.599 174.259 548.851 180.185 542.928 183.196C541.665 183.876 538.072 184.167 533.217 184.167ZM481.653 166.294C483.692 170.957 487.382 177.173 490.198 177.95C496.219 179.602 537.878 182.516 541.568 180.67C545.161 178.825 546.909 175.619 547.492 174.065C544.87 171.734 536.518 163.866 536.324 156.678C536.324 155.512 536.518 153.958 536.81 152.016C538.169 143.079 540.403 128.023 520.593 122.001C509.523 118.601 503.89 126.469 503.696 126.761C503.502 127.052 503.211 127.246 502.919 127.343L502.628 127.44C498.841 128.606 492.432 130.549 491.072 139.291C490.392 143.856 491.461 146.576 492.529 149.199C493.597 151.724 494.665 154.444 493.111 158.135C490.975 163.477 484.857 165.517 481.653 166.294Z" fill="#333333"/>
<path d="M471.36 229.724C471.36 229.724 467.379 235.746 462.621 257.213C461.747 261.196 459.708 269.064 462.621 271.589C465.534 274.115 467.962 275.28 468.544 274.115C469.127 272.949 467.476 266.635 467.476 266.635C467.476 266.635 468.836 266.635 469.418 266.344C470.001 266.052 468.544 261.487 468.544 261.487C468.544 261.487 469.224 253.328 471.652 248.083C473.303 244.489 480.78 232.25 480.78 232.25L471.36 229.724Z" fill="white"/>
<path d="M467.766 275.571C466.116 275.571 463.785 273.822 462.037 272.365C458.93 269.645 460.483 262.555 461.552 257.892L461.746 257.018C466.504 235.551 470.485 229.432 470.583 229.14C470.777 228.752 471.262 228.655 471.651 228.752L481.07 231.277C481.361 231.374 481.653 231.569 481.75 231.86C481.847 232.152 481.847 232.443 481.653 232.734C481.556 232.831 474.176 244.973 472.622 248.47C470.485 253.035 469.709 260.126 469.612 261.389C471.262 266.44 470.583 266.829 470.097 267.12C469.806 267.314 469.32 267.509 468.835 267.509C469.417 270.034 470.097 273.434 469.612 274.502C469.32 274.988 468.932 275.376 468.349 275.474C468.058 275.571 467.864 275.571 467.766 275.571ZM471.845 230.889C470.777 232.831 467.475 240.117 463.591 257.504L463.397 258.378C462.523 262.069 460.969 268.966 463.3 270.908C465.824 273.045 467.378 273.628 467.766 273.628C467.961 272.851 467.281 269.548 466.601 266.829C466.504 266.537 466.601 266.246 466.795 265.954C466.99 265.76 467.281 265.566 467.572 265.566C467.961 265.566 468.349 265.566 468.64 265.469C468.543 264.692 468.155 263.04 467.669 261.583C467.669 261.486 467.572 261.292 467.669 261.195C467.669 260.806 468.446 252.744 470.874 247.499C472.233 244.488 477.477 235.843 479.322 232.734L471.845 230.889Z" fill="#333333"/>
<path d="M480.974 395.824C480.974 398.738 486.315 399.709 494.763 398.447C511.951 395.824 508.261 390.967 507.484 388.247C506.319 384.071 502.532 383.391 492.918 385.722C486.509 387.373 480.974 392.91 480.974 395.824Z" fill="white"/>
<path d="M488.353 400C485.44 400 482.721 399.611 481.167 398.252C480.39 397.572 480.002 396.795 480.002 395.823C480.002 392.326 485.926 386.498 492.723 384.847C501.56 382.71 506.901 382.516 508.454 388.052C508.552 388.344 508.649 388.538 508.746 388.83C509.231 390.189 509.911 392.035 508.746 393.978C507.192 396.503 502.822 398.252 494.957 399.417C493.111 399.709 490.684 400 488.353 400ZM501.56 385.333C499.618 385.333 496.899 385.721 493.111 386.693C486.799 388.247 481.944 393.686 481.944 395.823C481.944 396.212 482.138 396.503 482.43 396.795C483.983 398.154 488.547 398.446 494.568 397.572C501.657 396.503 505.833 394.949 506.998 393.006C507.678 391.841 507.289 390.675 506.804 389.509C506.707 389.218 506.609 388.83 506.512 388.538C506.027 386.498 504.861 385.333 501.56 385.333Z" fill="#333333"/>
<path d="M553.707 394.853C553.707 397.767 548.367 398.738 539.918 397.475C522.73 394.853 526.42 389.996 527.197 387.276C528.362 383.099 532.15 382.419 541.763 384.751C548.269 386.402 553.707 392.036 553.707 394.853Z" fill="white"/>
<path d="M546.326 399.029C543.996 399.029 541.568 398.737 539.82 398.446C531.954 397.28 527.585 395.532 526.031 393.006C524.866 391.064 525.545 389.218 526.031 387.858C526.128 387.567 526.225 387.275 526.322 387.081C527.876 381.544 533.217 381.739 542.054 383.876C548.754 385.527 554.775 391.452 554.775 394.852C554.775 395.823 554.386 396.6 553.609 397.28C551.959 398.64 549.142 399.029 546.326 399.029ZM533.12 384.458C529.818 384.458 528.653 385.624 528.167 387.664C528.07 387.955 527.973 388.247 527.876 388.635C527.487 389.801 527.002 390.966 527.682 392.132C528.847 394.075 533.023 395.629 540.111 396.697C546.132 397.571 550.696 397.28 552.25 395.92C552.541 395.629 552.735 395.337 552.735 394.949C552.735 392.812 547.88 387.372 541.568 385.818C537.781 384.847 535.062 384.458 533.12 384.458Z" fill="#333333"/>
<path d="M493.015 226.032C488.548 244.002 488.256 285.964 491.946 311.608L494.277 385.818C494.277 385.818 498.453 386.79 500.977 386.596C503.502 386.401 506.221 384.75 506.221 384.75C506.221 384.75 509.814 316.95 510.008 311.413C510.203 305.877 513.213 272.171 513.213 272.171L519.428 308.208C520.593 324.721 528.07 384.459 528.07 384.459C528.07 384.459 530.984 385.624 533.897 385.43C536.81 385.139 539.529 383.293 539.529 383.293C539.529 383.293 540.597 317.047 539.529 308.499C538.655 301.7 539.141 284.896 538.558 270.617C537.975 256.241 532.731 230.792 532.731 230.792L493.015 226.032Z" fill="#9ADAF3"/>
<path d="M500.492 388.053C497.773 388.053 494.18 387.178 494.082 387.178C493.403 386.984 493.014 386.498 492.917 385.818L490.587 311.705C486.702 285.187 487.188 243.419 491.655 225.644C491.849 224.964 492.529 224.478 493.208 224.575L533.023 229.238C533.605 229.335 534.188 229.82 534.285 230.403C534.479 231.472 539.529 256.144 540.111 270.423C540.306 276.542 540.403 283.244 540.5 289.072C540.597 297.232 540.597 304.323 541.082 308.208C542.151 316.756 541.18 380.476 541.082 383.196C541.082 383.681 540.888 384.07 540.5 384.361C540.403 384.459 537.392 386.498 534.188 386.79C530.983 387.081 527.779 385.818 527.682 385.721C527.196 385.527 526.808 385.041 526.808 384.556C526.711 383.973 519.233 324.721 518.165 308.305L513.892 283.439C513.018 293.735 511.756 308.014 511.659 311.413C511.465 316.95 507.872 384.167 507.872 384.847C507.872 385.333 507.58 385.721 507.192 386.013C507.095 386.11 504.182 387.858 501.268 388.053C500.977 388.053 500.686 388.053 500.492 388.053ZM495.733 384.653C497.093 384.944 499.423 385.333 500.977 385.236C502.434 385.139 503.987 384.459 504.861 383.973C505.25 376.299 508.454 316.562 508.649 311.413C508.843 305.877 511.756 273.434 511.853 272.074C511.95 271.297 512.533 270.811 513.213 270.714C513.892 270.714 514.572 271.2 514.669 271.88L520.884 307.917C520.884 308.014 520.884 308.014 520.884 308.111C521.952 323.264 528.459 375.814 529.43 383.39C530.401 383.682 532.149 384.07 533.799 383.973C535.547 383.779 537.198 382.904 538.072 382.419C538.169 374.939 539.043 316.464 538.072 308.597C537.587 304.614 537.489 297.426 537.489 289.17C537.392 283.342 537.392 276.639 537.101 270.617C536.616 258.184 532.537 237.008 531.566 232.152L494.082 227.781C490.004 245.848 489.616 285.867 493.403 311.511C493.403 311.608 493.403 311.608 493.403 311.705L495.733 384.653Z" fill="#333333"/>
<path d="M507.969 166.391C486.897 166.391 488.257 172.608 484.469 183.39C480.682 194.172 474.662 220.787 471.845 225.255C469.612 228.849 468.738 232.443 468.738 232.443L478.546 238.077C478.546 238.077 482.721 231.86 483.984 227.392C485.246 222.826 492.529 199.32 492.529 199.32C492.529 199.32 494.569 214.473 493.5 218.844C487.965 240.311 486.412 255.658 486.412 255.658C487.48 256.144 492.724 261.875 516.224 260.612C533.217 259.64 540.015 255.269 540.015 255.269C540.015 255.269 536.713 228.46 529.624 218.164C524.089 210.005 531.372 190.384 531.372 190.384C531.372 190.384 536.907 208.742 542.734 221.467C542.734 221.467 539.724 222.632 538.85 223.215C538.85 223.215 541.374 233.317 543.025 233.22C544.093 233.123 553.804 233.123 553.804 228.849C553.61 212.336 541.374 175.91 537.296 171.539C530.887 164.643 514.378 166.391 507.969 166.391Z" fill="#9ADAF3"/>
<path d="M509.62 262.166C498.744 262.166 490.878 260.515 486.12 257.115C486.023 257.018 485.926 256.921 485.828 256.921C485.246 256.629 484.954 256.047 485.052 255.464C485.052 255.269 486.702 239.825 492.14 218.455C492.723 216.318 492.432 211.073 491.946 206.314C489.713 213.599 486.314 224.672 485.44 227.683C484.081 232.346 479.905 238.562 479.808 238.854C479.419 239.534 478.545 239.728 477.866 239.339L468.058 233.706C467.475 233.414 467.184 232.734 467.378 232.054C467.378 231.86 468.349 228.169 470.68 224.478C472.233 222.049 475.05 211.656 477.477 202.428C479.419 195.046 481.556 187.47 483.207 182.904C483.692 181.544 484.081 180.184 484.469 178.922C487.285 169.791 489.616 164.934 507.969 164.934C508.066 164.934 508.066 164.934 508.163 164.934C509.134 164.934 510.299 164.934 511.562 164.837C519.428 164.546 532.634 164.157 538.461 170.471C542.733 175.133 555.163 211.656 555.357 228.752C555.357 232.346 551.473 234.288 543.607 234.58C543.413 234.58 543.316 234.58 543.219 234.58C542.248 234.677 540.403 234.774 537.587 223.506C537.392 222.924 537.684 222.244 538.169 221.952C538.752 221.564 539.917 221.078 540.888 220.592C537.004 211.947 533.411 201.068 531.469 195.143C529.527 201.845 527.585 212.433 530.983 217.29C538.169 227.78 541.471 253.91 541.568 254.978C541.665 255.561 541.374 256.046 540.888 256.338C540.597 256.532 533.605 261 516.417 261.875C513.99 262.166 511.756 262.166 509.62 262.166ZM487.965 254.881C493.209 258.378 502.628 259.835 516.126 259.058C529.333 258.281 536.227 255.464 538.461 254.395C537.781 249.538 534.479 227.78 528.459 218.941C522.535 210.296 529.721 190.675 530.012 189.801C530.206 189.218 530.789 188.829 531.469 188.829C532.052 188.829 532.634 189.218 532.828 189.898C532.926 190.092 538.461 208.353 544.093 220.787C544.287 221.175 544.287 221.564 544.093 221.952C543.899 222.341 543.607 222.632 543.316 222.729C542.539 223.021 541.471 223.506 540.597 223.895C541.471 227.198 542.733 230.694 543.413 231.666C551.959 231.374 552.347 229.237 552.347 228.752C552.153 211.753 539.723 176.202 536.227 172.414C531.275 167.071 518.942 167.46 511.562 167.751C510.202 167.751 509.037 167.848 507.969 167.848H507.872C490.781 167.848 489.616 171.831 487.188 179.699C486.8 180.962 486.411 182.321 485.828 183.778C484.275 188.247 482.235 195.823 480.196 203.108C477.38 213.404 474.758 223.118 473.01 225.935C471.651 228.169 470.777 230.403 470.388 231.666L477.963 236.037C479.225 234.094 481.653 230.014 482.527 226.906C483.789 222.341 490.878 199.806 491.169 198.834C491.364 198.154 492.043 197.766 492.723 197.863C493.403 197.96 493.985 198.446 494.083 199.126C494.277 200.68 496.122 214.667 494.957 219.233C490.198 237.494 488.353 251.384 487.965 254.881Z" fill="#333333"/>
<path d="M513.31 273.434C512.728 273.434 512.145 272.948 512.145 272.365L511.368 266.44C511.27 265.76 511.756 265.177 512.436 265.08C513.116 264.983 513.699 265.469 513.796 266.149L514.573 272.074C514.67 272.754 514.185 273.337 513.505 273.434C513.408 273.434 513.31 273.434 513.31 273.434Z" fill="#333333"/>
<path d="M507.29 152.308C507.29 152.696 505.736 164.935 505.736 164.935L501.27 166.392L505.639 176.591L522.342 165.615L516.904 164.547L517.389 153.57L507.29 152.308Z" fill="white"/>
<path d="M505.736 177.562C505.638 177.562 505.541 177.562 505.444 177.562C505.153 177.465 504.959 177.27 504.862 176.979L500.492 166.78C500.395 166.489 500.395 166.197 500.492 166.003C500.589 165.711 500.783 165.517 501.074 165.517L504.959 164.254C505.541 159.495 506.415 152.793 506.415 152.307C506.415 152.015 506.512 151.821 506.804 151.627C506.998 151.433 507.289 151.336 507.581 151.433L517.777 152.793C518.262 152.89 518.651 153.278 518.651 153.764L518.165 163.866L522.826 164.74C523.215 164.837 523.506 165.129 523.603 165.517C523.7 165.906 523.506 166.294 523.215 166.489L506.512 177.465C506.124 177.562 505.93 177.562 505.736 177.562ZM502.628 166.974L506.124 175.134L519.816 166.1L516.709 165.517C516.223 165.42 515.932 165.031 515.932 164.546L516.417 154.541L508.066 153.472C507.775 155.804 507.095 161.438 506.61 165.129C506.61 165.517 506.318 165.809 505.93 165.906L502.628 166.974Z" fill="#333333"/>
<path d="M537.783 242.74L510.69 247.888L503.018 208.16L530.111 203.012L537.783 242.74Z" fill="url(#paint1_linear)"/>
<path d="M510.688 249.344C510.008 249.344 509.426 248.859 509.231 248.179L501.657 208.451C501.56 208.062 501.657 207.674 501.851 207.382C502.045 207.091 502.434 206.799 502.822 206.799L529.915 201.651C530.692 201.457 531.469 202.04 531.663 202.817L539.238 242.545C539.335 242.933 539.238 243.322 539.043 243.613C538.849 243.905 538.461 244.196 538.072 244.196L510.979 249.344C510.882 249.344 510.785 249.344 510.688 249.344ZM504.764 209.325L511.853 246.139L536.033 241.476L528.944 204.662L504.764 209.325Z" fill="#333333"/>
<path d="M539.044 223.701C539.044 223.701 530.596 227.587 522.633 229.141C520.303 229.529 517.972 229.821 515.544 230.015C515.059 230.015 514.476 230.112 513.991 230.112C513.602 230.112 513.019 230.307 512.728 230.112C512.048 229.821 510.009 224.77 507.679 224.381C507.096 224.284 506.61 228.752 506.222 228.364C504.183 226.421 504.086 230.112 505.154 232.055C506.222 233.998 505.251 236.135 506.999 236.62C507.387 236.717 509.718 237.495 512.922 237.106C523.41 235.746 543.803 232.541 543.803 232.541C543.803 232.541 542.249 225.256 539.044 223.701Z" fill="white"/>
<path d="M511.076 238.174C509.62 238.174 508.26 237.98 506.901 237.591H506.804C505.153 237.105 504.959 235.648 504.862 234.58C504.764 233.9 504.667 233.22 504.376 232.54C503.502 230.986 503.114 228.169 504.376 227.198C504.57 227.003 505.153 226.712 505.833 227.003C505.833 226.809 505.93 226.615 505.93 226.421C506.415 224.575 506.707 223.215 507.872 223.409C509.814 223.798 511.368 226.226 512.436 228.072C512.727 228.46 513.019 228.946 513.213 229.237C513.31 229.237 513.504 229.237 513.601 229.237C513.698 229.237 513.893 229.237 513.99 229.237C514.475 229.237 515.058 229.14 515.543 229.14C518.165 228.946 520.399 228.655 522.535 228.266C530.401 226.809 538.655 223.021 538.752 222.924C539.043 222.827 539.335 222.827 539.529 222.924C543.122 224.575 544.676 231.569 544.773 232.346C544.87 232.637 544.773 232.831 544.579 233.123C544.384 233.414 544.19 233.511 543.899 233.511C543.705 233.511 523.409 236.717 513.019 238.077C512.436 238.077 511.756 238.174 511.076 238.174ZM505.444 229.043C505.347 229.626 505.541 230.792 506.027 231.569C506.609 232.54 506.707 233.511 506.804 234.288C506.901 235.454 506.998 235.551 507.386 235.648H507.581C509.328 236.134 511.174 236.328 513.019 236.037C522.05 234.871 538.461 232.346 542.831 231.666C542.248 229.529 540.986 225.935 539.238 224.769C537.393 225.643 530.109 228.752 523.021 230.015C520.884 230.403 518.554 230.694 515.835 230.889C515.349 230.889 514.766 230.986 514.281 230.986C514.184 230.986 514.087 230.986 513.99 230.986C513.601 231.083 513.019 231.083 512.63 230.889C512.048 230.694 511.756 230.112 510.979 228.946C510.3 227.878 509.328 226.129 508.357 225.449C508.26 225.838 508.163 226.323 508.066 226.712C507.678 228.266 507.581 228.946 506.804 229.237C506.221 229.432 505.735 229.335 505.444 229.043Z" fill="#333333"/>
<path d="M491.461 186.79C490.004 190.578 488.644 193.783 489.518 197.863C490.004 200.097 491.461 203.594 494.277 203.302C494.762 203.302 495.151 202.914 495.151 202.428C495.151 200.291 493.306 198.543 492.723 196.503C491.946 193.589 492.043 189.898 492.335 186.887C492.432 186.401 491.655 186.401 491.461 186.79Z" fill="#333333"/>
<path d="M511.853 189.024C512.436 187.858 512.533 186.887 512.824 185.527C512.436 185.818 511.95 186.013 511.562 186.304C514.184 186.693 516.806 186.887 519.428 186.887C521.661 186.887 524.38 187.178 526.225 185.818C526.711 185.527 526.614 184.847 526.031 184.653C523.992 183.973 521.564 184.653 519.428 184.653C516.903 184.653 514.378 184.556 511.853 184.167C511.465 184.07 510.882 184.556 510.785 184.944C510.591 186.207 510.397 187.275 510.591 188.635C510.591 189.218 511.465 189.704 511.853 189.024Z" fill="#333333"/>
<path d="M526.809 143.954C526.712 143.954 526.615 143.954 526.42 143.954C526.615 136.086 521.759 129.287 514.865 128.315C507.387 127.344 499.716 132.104 498.551 140.749C497.385 149.394 501.755 159.593 507.582 160.37C513.894 161.244 522.051 156.387 525.158 149.588C525.644 149.879 526.129 150.073 526.712 150.073C528.46 150.073 529.819 148.714 529.819 146.965C529.916 145.314 528.46 143.954 526.809 143.954Z" fill="white"/>
<path d="M509.231 161.535C508.649 161.535 508.066 161.535 507.581 161.438C500.686 160.466 496.51 149.296 497.676 140.748C498.258 136.377 500.395 132.686 503.891 130.257C507.095 128.023 511.174 126.955 515.058 127.538C522.05 128.412 527.293 135.114 527.39 143.176C529.333 143.468 530.789 145.119 530.789 147.159C530.789 149.393 528.944 151.239 526.711 151.239C526.322 151.239 525.934 151.141 525.545 151.044C522.535 157.067 515.446 161.535 509.231 161.535ZM513.019 129.286C510.105 129.286 507.289 130.16 504.959 131.812C501.948 133.949 500.103 137.154 499.521 141.039C498.453 149.296 502.628 158.912 507.775 159.592C513.796 160.369 521.467 155.61 524.283 149.393C524.38 149.102 524.574 148.907 524.866 148.907C525.157 148.81 525.448 148.907 525.643 149.004C526.031 149.199 526.322 149.296 526.711 149.296C527.876 149.296 528.847 148.324 528.847 147.159C528.847 145.993 527.876 145.022 526.711 145.022H526.614H526.517C526.225 145.022 525.934 144.925 525.74 144.73C525.545 144.536 525.448 144.245 525.448 143.953C525.643 136.474 521.079 130.16 514.767 129.383C514.184 129.286 513.601 129.286 513.019 129.286Z" fill="#333333"/>
<path d="M504.182 145.507C503.891 146.285 503.599 147.062 503.308 147.839C503.114 148.324 502.628 149.101 502.919 149.587C503.114 149.976 503.697 150.073 504.085 150.267C504.668 150.461 505.154 150.753 505.736 150.364C505.834 150.267 505.931 150.073 505.834 149.976C505.639 149.684 505.445 149.49 505.154 149.393C504.862 149.296 503.988 149.296 503.794 149.101C503.697 148.907 504.085 147.742 504.182 147.547C504.377 146.867 504.474 146.285 504.668 145.605C504.571 145.313 504.182 145.216 504.182 145.507Z" fill="#333333"/>
<path d="M506.706 153.861C508.843 155.124 511.465 154.347 512.242 151.918C512.533 151.044 511.076 150.656 510.882 151.53C510.397 153.181 508.357 153.861 506.804 153.57C506.707 153.57 506.609 153.764 506.706 153.861Z" fill="#333333"/>
<path d="M494.277 135.697C496.802 136.96 499.812 137.348 504.959 135.697C510.105 134.046 514.475 129.189 514.475 129.189C514.475 129.189 514.864 138.999 521.855 142.788C525.351 144.633 529.527 143.856 529.527 143.856L531.76 136.183C531.76 136.183 523.312 129.675 522.438 128.315C521.564 126.955 515.835 122.487 515.835 122.487L509.911 125.401L501.948 128.315L494.277 135.697Z" fill="white"/>
<path d="M494.278 135.698C496.803 136.96 499.813 137.349 504.96 135.698C510.106 134.046 514.476 129.19 514.476 129.19C514.476 129.19 514.865 139 521.856 142.789C525.352 144.634 529.528 143.857 529.528 143.857" fill="white"/>
<path d="M527.488 144.925C525.837 144.925 523.506 144.633 521.467 143.565C516.029 140.651 514.281 134.531 513.795 131.326C512.047 132.977 508.94 135.503 505.347 136.668C500.589 138.223 497.19 138.223 493.985 136.668C493.5 136.474 493.306 135.891 493.5 135.406C493.694 134.92 494.277 134.726 494.762 134.92C496.802 135.891 499.424 136.571 504.764 134.92C509.62 133.366 513.795 128.703 513.795 128.703C514.087 128.412 514.475 128.315 514.864 128.412C515.252 128.509 515.446 128.898 515.543 129.286C515.543 129.383 516.029 138.611 522.438 142.011C525.545 143.662 529.43 143.079 529.43 142.982C529.915 142.885 530.498 143.274 530.595 143.759C530.692 144.245 530.304 144.828 529.818 144.925C529.624 144.828 528.75 144.925 527.488 144.925Z" fill="#333333"/>
<path d="M502.24 142.885C502.143 142.496 502.628 142.496 502.823 142.496C503.211 142.593 503.405 142.885 503.6 143.273C503.891 143.953 504.862 143.468 504.668 142.788C504.377 141.816 503.503 140.748 502.337 141.039C501.366 141.331 500.88 142.399 501.366 143.273C501.56 143.856 502.337 143.468 502.24 142.885Z" fill="#333333"/>
<path d="M509.329 143.565C509.523 143.176 509.814 142.788 510.3 142.982C510.882 143.176 510.979 143.856 511.562 143.953C512.047 144.05 512.533 143.759 512.533 143.176C512.63 142.108 511.076 141.233 510.105 141.331C509.134 141.428 508.552 142.302 508.26 143.176C508.163 143.759 509.037 144.148 509.329 143.565Z" fill="#333333"/>
<path d="M313.076 122.876C320.844 121.516 324.243 118.796 323.563 110.831C321.427 85.5765 302.879 92.5702 302.879 92.5702C302.879 92.5702 291.324 88.2962 284.526 99.0782C277.243 110.637 285.109 113.454 285.109 113.454L313.076 122.876Z" fill="white"/>
<path d="M313.074 123.846C312.977 123.846 312.88 123.846 312.783 123.749L284.719 114.327C284.622 114.327 281.903 113.259 280.835 110.151C279.767 107.042 280.738 103.157 283.651 98.3973C290.06 88.1981 300.742 90.8208 302.781 91.4036C304.335 90.9179 310.55 89.1695 316.085 92.6663C320.843 95.6775 323.659 101.7 324.436 110.539C325.213 119.573 320.746 122.292 313.171 123.555C313.171 123.846 313.171 123.846 313.074 123.846ZM297.44 92.7635C293.75 92.7635 288.895 94.0262 285.302 99.66C282.777 103.74 281.806 107.237 282.68 109.665C283.457 111.899 285.302 112.579 285.399 112.676L313.171 122.001C320.843 120.544 323.174 117.921 322.591 111.025C321.911 102.768 319.386 97.2317 315.114 94.609C309.676 91.2093 303.267 93.6377 303.169 93.6377C302.975 93.7348 302.684 93.7348 302.49 93.6377C302.295 93.4434 300.256 92.7635 297.44 92.7635Z" fill="#333333"/>
<path d="M315.891 195.532C319.775 207.965 322.203 212.044 325.602 229.334C329.486 248.956 329.486 287.615 329.486 287.615C329.486 287.615 318.513 292.763 308.802 291.306C299.092 289.849 293.945 287.615 293.945 287.615C293.945 287.615 293.168 287.615 284.72 290.335C276.271 293.055 268.697 291.598 268.697 291.598C268.697 291.598 263.356 249.441 263.842 232.248C264.327 215.056 269.668 189.509 269.668 189.509L315.891 195.532Z" fill="white"/>
<path d="M273.94 293.346C270.736 293.346 268.696 292.958 268.502 292.958C267.92 292.861 267.434 292.375 267.337 291.695C267.143 289.946 261.996 249.247 262.482 232.151C262.967 215.056 268.308 189.412 268.308 189.121C268.502 188.344 269.182 187.858 269.959 187.955L316.085 194.075C316.668 194.172 317.153 194.56 317.25 195.046C318.318 198.543 319.289 201.263 320.26 203.982C322.591 210.685 324.533 216.513 327.058 228.946C330.942 248.47 330.942 287.13 330.942 287.518C330.942 288.101 330.651 288.587 330.068 288.878C329.583 289.072 318.61 294.123 308.608 292.666C300.256 291.403 295.304 289.655 293.847 289.072C293.168 289.267 291.031 289.752 285.205 291.598C281.029 292.958 276.951 293.346 273.94 293.346ZM270.153 290.141C272.484 290.432 278.213 290.724 284.428 288.781C290.157 286.935 293.459 286.061 294.041 286.061C294.236 286.061 294.43 286.061 294.624 286.158C294.721 286.158 299.674 288.295 309.093 289.752C316.765 290.918 325.407 287.712 328.029 286.547C328.029 280.427 327.641 247.11 324.145 229.529C321.717 217.29 319.872 211.85 317.444 204.954C316.57 202.525 315.696 199.903 314.725 196.794L270.833 190.966C269.765 196.406 265.686 217.484 265.298 232.151C265.006 247.499 269.279 283.438 270.153 290.141Z" fill="#333333"/>
<path d="M293.653 288.975C292.973 288.975 292.391 288.489 292.196 287.81C286.758 263.234 287.924 199.029 287.924 196.309C287.924 195.532 288.603 194.852 289.38 194.852C290.157 194.852 290.837 195.532 290.837 196.309C290.837 196.989 289.672 262.943 295.013 287.13C295.207 287.907 294.721 288.684 293.944 288.878C293.847 288.975 293.75 288.975 293.653 288.975Z" fill="#333333"/>
<path d="M330.457 151.53C327.544 139.582 300.645 136.183 295.887 135.794C291.129 135.503 270.251 138.514 265.589 143.662C260.928 148.81 250.441 189.509 252.48 193.006C255.296 197.669 271.901 197.669 284.234 193.783C284.234 193.783 323.66 210.588 329.486 203.982C332.496 200.486 333.467 163.769 330.457 151.53Z" fill="white"/>
<path d="M324.048 206.799C312.298 206.799 290.351 197.863 284.136 195.24C271.804 199.029 254.519 199.223 251.217 193.686C249.469 190.869 253.353 175.133 255.101 168.528C256.072 164.837 261.025 146.479 264.521 142.593C269.765 136.96 291.322 133.948 295.984 134.24C296.275 134.24 328.417 136.862 331.913 151.044C334.729 162.603 334.341 200.388 330.651 204.662C329.388 206.314 327.058 206.799 324.048 206.799ZM284.234 192.326C284.428 192.326 284.622 192.326 284.816 192.423C300.839 199.223 324.922 206.994 328.417 202.914C330.748 200.097 332.205 164.643 329.097 151.918C326.572 141.525 302.198 137.737 295.789 137.348C291.128 137.057 270.833 140.165 266.657 144.73C262.19 149.587 252.479 188.829 253.742 192.326C255.781 195.726 271.027 196.406 283.748 192.326C283.942 192.326 284.039 192.326 284.234 192.326Z" fill="#333333"/>
<path d="M321.231 188.83C308.219 184.459 293.07 183.487 279.475 182.419C278.99 182.419 278.893 183.196 279.378 183.293C293.167 186.013 307.345 186.304 321.134 189.315C321.426 189.51 321.523 189.024 321.231 188.83Z" fill="#333333"/>
<path d="M279.088 183.197C276.563 180.963 275.689 180.38 271.805 180.477C268.018 180.574 267.532 184.071 267.532 184.071L277.631 189.996L279.088 183.197Z" fill="white"/>
<path d="M277.727 190.869C277.533 190.869 277.436 190.869 277.242 190.772L267.143 184.847C266.851 184.653 266.657 184.264 266.657 183.876C266.851 182.321 268.211 179.505 271.901 179.407C276.077 179.31 277.242 180.087 279.767 182.419C280.058 182.613 280.155 183.001 280.058 183.293L278.699 190.092C278.601 190.384 278.407 190.675 278.116 190.772C278.019 190.869 277.922 190.869 277.727 190.869ZM268.794 183.584L277.145 188.441L278.116 183.584C276.077 181.836 275.3 181.35 271.998 181.447C269.862 181.447 268.988 182.807 268.794 183.584Z" fill="#333333"/>
<path d="M289.186 194.075C287.05 193.103 284.913 192.229 282.874 191.161C281.223 190.384 279.378 189.121 277.533 189.315C277.145 189.315 276.756 189.801 277.048 190.189C278.116 191.841 280.252 192.618 282 193.492C284.039 194.56 286.176 195.532 288.409 196.115C289.477 196.503 290.448 194.56 289.186 194.075Z" fill="#333333"/>
<path d="M267.337 183.39C266.56 182.904 265.88 182.516 265.006 182.127C264.326 181.836 263.647 181.447 263.064 181.933C262.967 182.03 262.87 182.224 262.967 182.419C263.258 183.099 263.841 183.099 264.521 183.293C265.298 183.487 266.074 183.876 266.851 184.264C267.434 184.556 267.919 183.779 267.337 183.39Z" fill="#333333"/>
<path d="M267.92 182.71C266.754 180.573 265.977 178.048 264.521 176.105C264.132 175.619 263.453 175.911 263.55 176.493C263.938 178.922 265.589 181.253 266.948 183.196C267.337 183.778 268.211 183.293 267.92 182.71Z" fill="#333333"/>
<path d="M271.61 180.088C271.707 173.191 272.484 166.197 271.902 159.301C271.804 158.621 270.93 158.427 270.736 159.106C268.793 165.712 269.182 173.191 269.182 179.99C269.279 181.642 271.61 181.642 271.61 180.088Z" fill="#333333"/>
<path d="M315.017 188.052C314.919 188.052 314.919 188.052 314.822 188.052C314.045 187.955 313.463 187.178 313.56 186.401L316.764 164.06C316.862 163.283 317.638 162.7 318.415 162.797C319.192 162.895 319.775 163.672 319.678 164.449L316.473 186.79C316.279 187.47 315.696 188.052 315.017 188.052Z" fill="#333333"/>
<path d="M292.197 124.139C292.197 124.527 291.517 135.601 291.517 135.601L288.119 136.28L294.139 151.045L308.9 137.543L304.724 135.989L305.015 125.401L292.197 124.139Z" fill="white"/>
<path d="M294.236 152.015C294.138 152.015 294.138 152.015 294.041 152.015C293.75 151.918 293.459 151.724 293.362 151.433L287.341 136.668C287.244 136.377 287.244 136.085 287.341 135.891C287.438 135.6 287.729 135.503 288.021 135.405L290.643 134.823C290.934 130.452 291.322 124.526 291.322 124.138C291.322 123.846 291.419 123.652 291.614 123.458C291.808 123.264 292.099 123.167 292.39 123.167L305.209 124.526C305.694 124.624 306.083 125.012 306.083 125.498L305.888 135.405L309.384 136.668C309.676 136.765 309.967 137.057 309.967 137.348C310.064 137.64 309.967 138.028 309.676 138.222L294.915 151.724C294.624 152.015 294.43 152.015 294.236 152.015ZM289.477 137.057L294.527 149.393L307.054 137.931L304.335 136.96C303.946 136.862 303.655 136.474 303.655 135.988L303.849 126.275L292.973 125.109C292.779 127.732 292.39 134.046 292.293 135.6C292.293 135.988 291.905 136.377 291.517 136.474L289.477 137.057Z" fill="#333333"/>
<path d="M270.736 162.992C272.192 164.352 274.231 164.254 276.174 164.352C279.378 164.546 282.68 164.449 285.884 164.449C285.399 163.866 285.01 163.283 284.525 162.603C284.136 164.546 283.262 166.294 283.457 168.334C283.554 169.014 284.331 169.403 284.816 168.917C286.467 167.46 286.758 165.42 287.244 163.38C287.438 162.506 286.855 161.535 285.884 161.535C281.029 161.632 276.271 161.438 271.415 161.438C270.638 161.438 270.153 162.409 270.736 162.992Z" fill="#333333"/>
<path d="M312.589 164.254C310.55 163.283 308.122 163.186 305.888 162.797C303.364 162.409 300.839 162.02 298.314 161.535C297.149 161.34 296.178 162.409 296.76 163.575C296.469 162.895 296.663 163.575 296.663 163.963C296.663 164.449 296.663 164.837 296.663 165.323C296.663 166.197 296.566 167.168 296.566 168.043C296.663 170.18 297.246 172.219 298.508 173.968C299.868 176.008 302.975 178.242 305.5 176.979C306.083 176.688 305.986 175.911 305.5 175.522C303.169 173.968 300.839 173.288 299.868 170.277C299.091 167.751 300.45 164.449 299.188 162.117C298.703 162.797 298.12 163.477 297.634 164.157C300.159 164.546 302.587 164.934 305.112 165.226C307.442 165.517 310.064 166.197 312.492 165.809C313.074 165.711 313.269 164.546 312.589 164.254Z" fill="#333333"/>
<path d="M285.303 111.317C286.565 101.895 294.917 96.7468 302.976 97.8153C311.036 98.8837 316.571 107.334 315.309 116.854C315.309 117.145 315.212 117.339 315.212 117.631C316.28 117.922 317.057 118.893 317.057 120.059C317.057 121.419 315.892 122.585 314.532 122.585C314.144 122.585 313.755 122.487 313.464 122.39C309.774 128.995 301.52 133.561 295.111 132.687C288.799 131.715 284.04 120.739 285.303 111.317Z" fill="white"/>
<path d="M296.663 133.657C296.081 133.657 295.498 133.657 294.915 133.56C287.535 132.589 283.068 120.447 284.234 111.219C284.816 106.557 287.244 102.477 290.934 99.8543C294.333 97.4259 298.8 96.2603 303.072 96.8431C307.248 97.4259 310.938 99.7571 313.463 103.643C315.89 107.431 316.959 112.19 316.279 116.95V117.047C317.347 117.63 318.027 118.795 318.027 120.058C318.027 122.001 316.473 123.555 314.531 123.555C314.337 123.555 314.143 123.555 313.948 123.458C310.258 129.383 302.975 133.657 296.663 133.657ZM300.936 98.6887C297.829 98.6887 294.721 99.66 292.196 101.506C288.895 103.837 286.855 107.431 286.273 111.51C285.107 120.544 289.672 130.937 295.304 131.714C301.422 132.589 309.19 128.12 312.686 121.904C312.977 121.418 313.463 121.321 313.948 121.515C315.017 122.001 316.182 121.224 316.182 120.155C316.182 119.475 315.696 118.893 315.017 118.698C314.531 118.601 314.24 118.116 314.337 117.63C314.337 117.436 314.434 117.144 314.434 116.853C315.017 112.482 314.143 108.305 311.909 104.905C309.773 101.603 306.568 99.4657 302.975 98.9801C302.198 98.6887 301.519 98.6887 300.936 98.6887Z" fill="#333333"/>
<path d="M298.897 95.7747C297.926 98.7859 299.479 100.631 295.886 101.7C286.273 104.517 284.136 111.802 284.136 111.802C284.136 111.802 282.874 105.1 286.758 98.3002C289.671 93.2492 298.897 95.7747 298.897 95.7747Z" fill="white"/>
<path d="M299.674 94.8032C297.926 97.0373 296.76 99.9514 298.897 101.991C301.13 104.031 305.986 105.197 308.316 107.431C310.647 109.665 314.434 116.173 314.434 116.173L317.347 117.533C317.347 117.533 323.659 102.283 310.355 96.1631C307.733 94.9004 299.674 94.8032 299.674 94.8032Z" fill="white"/>
<path d="M316.667 118.213C316.57 118.213 316.473 118.213 316.376 118.213C316.085 118.116 314.434 117.63 313.754 116.95C312.686 115.979 311.715 114.327 310.744 112.676C309.773 110.928 308.705 109.179 307.636 108.208C306.568 107.236 304.917 106.557 303.364 105.877C301.713 105.197 300.062 104.517 298.897 103.351C296.275 100.923 297.052 99.7571 298.702 97.6202L298.994 97.2316C299.285 96.8431 299.965 96.746 300.353 97.0374C300.742 97.3288 300.839 98.0087 300.548 98.3972L300.256 98.7858C298.897 100.631 298.897 100.631 300.256 101.894C301.227 102.768 302.684 103.351 304.141 104.031C305.888 104.808 307.636 105.488 308.899 106.751C310.258 108.014 311.326 109.859 312.395 111.705C313.366 113.259 314.24 114.813 315.017 115.493C315.308 115.687 316.182 116.076 316.862 116.367C317.347 116.561 317.638 117.047 317.541 117.533C317.541 117.921 317.153 118.213 316.667 118.213Z" fill="#333333"/>
<path d="M284.136 112.87C284.039 112.87 284.039 112.87 284.136 112.87C283.554 112.87 283.165 112.385 283.165 111.802C283.165 111.51 283.651 105.391 290.546 103.157C291.031 102.963 291.614 103.254 291.808 103.74C292.002 104.225 291.711 104.808 291.225 105.002C285.69 106.751 285.205 111.705 285.205 111.899C285.01 112.482 284.622 112.87 284.136 112.87Z" fill="#333333"/>
<path d="M292.974 114.424C292.682 115.299 292.391 116.27 292.099 117.144C291.905 117.727 291.419 118.504 291.711 119.087C292.002 119.961 293.751 120.447 294.431 120.058C294.722 119.864 294.722 119.573 294.528 119.378C294.236 119.087 294.139 118.99 293.751 118.893C293.556 118.893 293.265 118.796 293.071 118.698C292.682 118.504 292.779 118.407 292.876 117.921C293.071 116.756 293.265 115.59 293.556 114.522C293.459 114.23 293.071 114.133 292.974 114.424Z" fill="#333333"/>
<path d="M289.672 111.996C289.672 111.802 289.769 111.705 289.866 111.608C289.866 111.608 290.06 111.51 289.963 111.51C290.06 111.51 290.06 111.51 290.157 111.51C290.06 111.51 290.06 111.51 290.157 111.51C290.255 111.51 290.255 111.51 289.963 111.413C289.866 111.316 289.866 111.316 289.963 111.413C289.963 111.316 289.963 111.316 289.963 111.413C289.963 111.51 289.963 111.51 289.963 111.608C289.963 111.705 289.963 111.705 289.963 111.705C289.963 111.802 289.963 111.802 289.963 111.802C289.963 111.705 290.06 111.608 290.255 111.51C290.449 111.51 290.74 111.608 290.837 111.802C290.74 111.413 290.255 111.122 289.866 111.219C289.38 111.316 289.186 111.802 289.283 112.19C289.478 113.162 290.643 113.356 291.323 112.676C291.906 112.093 291.809 111.025 291.42 110.442C290.935 109.665 289.866 109.859 289.283 110.345C288.798 110.733 288.603 111.51 288.798 112.093C288.895 112.579 289.672 112.482 289.672 111.996Z" fill="#333333"/>
<path d="M301.616 113.064C301.519 111.996 300.839 111.025 299.965 110.539C298.897 110.053 297.343 110.442 297.052 111.607C296.76 112.967 298.314 113.842 299.479 113.939C300.936 114.036 301.519 111.996 300.159 111.316C299.577 111.025 298.8 111.316 298.8 112.093C298.8 112.287 298.8 112.579 298.897 112.676C298.994 112.87 299.091 112.87 299.091 112.385C299.382 112.093 299.285 111.996 298.994 111.996C298.8 111.899 298.606 111.996 298.508 111.802C298.606 111.996 298.606 111.899 298.8 111.802C299.674 111.705 300.451 112.19 300.839 113.064C301.13 113.453 301.616 113.453 301.616 113.064Z" fill="#333333"/>
<path d="M293.264 124.721C296.178 126.08 300.062 125.498 301.907 122.681C302.101 122.487 301.81 122.195 301.519 122.292C298.897 123.749 296.372 124.721 293.362 124.429C293.167 124.429 293.167 124.623 293.264 124.721Z" fill="#333333"/>
<path d="M293.07 153.278L313.074 136.862L307.345 131.714L292.196 150.17L289.769 132.686L282.68 136.862L293.07 153.278Z" fill="white"/>
<path d="M312.493 140.36L312.299 135.115L307.346 131.715L292.197 150.171L289.77 132.298L282.778 133.949L282.681 138.806" fill="white"/>
<path d="M292.196 151.141C292.099 151.141 292.002 151.141 291.905 151.141C291.517 151.044 291.225 150.753 291.225 150.364L288.895 133.56L283.651 134.726L283.554 138.902C283.554 139.388 283.068 139.874 282.583 139.874C282 139.874 281.612 139.388 281.612 138.902L281.709 133.948C281.709 133.463 282 133.074 282.486 132.977L289.477 131.423C289.769 131.326 290.06 131.423 290.254 131.617C290.448 131.812 290.643 132.006 290.643 132.297L292.876 147.936L306.568 131.229C306.86 130.84 307.442 130.743 307.831 131.034L312.88 134.434C313.172 134.628 313.269 134.92 313.269 135.211L313.463 140.359C313.463 140.942 313.074 141.331 312.492 141.331C312.006 141.428 311.521 140.942 311.521 140.359L311.326 135.697L307.442 133.074L292.876 150.85C292.779 151.044 292.488 151.141 292.196 151.141Z" fill="#333333"/>
<path d="M291.421 137.835C291.809 137.932 300.84 139 300.84 139L292.489 148.908L291.421 137.835Z" fill="url(#paint2_linear)"/>
<path d="M292.488 149.879C292.391 149.879 292.294 149.879 292.196 149.879C291.808 149.782 291.517 149.393 291.517 149.004L290.448 138.028C290.448 137.737 290.546 137.445 290.74 137.251C290.934 137.057 291.322 136.96 291.614 137.057C292.099 137.154 297.44 137.737 300.936 138.223C301.325 138.223 301.616 138.514 301.713 138.805C301.81 139.097 301.81 139.485 301.519 139.777L293.167 149.684C293.07 149.782 292.779 149.879 292.488 149.879ZM292.488 139L293.265 146.479L298.994 139.777C296.858 139.485 294.139 139.194 292.488 139Z" fill="#333333"/>
<path d="M274.911 152.793C274.426 152.793 274.037 152.501 273.94 152.015C271.61 141.234 282.097 135.988 282.194 135.988C282.68 135.794 283.262 135.988 283.457 136.474C283.651 136.96 283.457 137.542 282.971 137.737C282.583 137.931 273.746 142.302 275.785 151.627C275.882 152.113 275.591 152.695 275.008 152.793C275.105 152.793 275.008 152.793 274.911 152.793Z" fill="#333333"/>
<path d="M275.689 157.164C277.352 157.164 278.7 155.816 278.7 154.153C278.7 152.49 277.352 151.142 275.689 151.142C274.027 151.142 272.679 152.49 272.679 154.153C272.679 155.816 274.027 157.164 275.689 157.164Z" fill="white"/>
<path d="M275.688 158.135C273.455 158.135 271.707 156.387 271.707 154.152C271.707 151.918 273.552 150.17 275.688 150.17C277.825 150.17 279.67 152.015 279.67 154.152C279.67 156.289 277.922 158.135 275.688 158.135ZM275.688 152.015C274.523 152.015 273.649 152.987 273.649 154.055C273.649 155.221 274.62 156.095 275.688 156.095C276.854 156.095 277.727 155.124 277.727 154.055C277.825 152.987 276.854 152.015 275.688 152.015Z" fill="#333333"/>
<path d="M300.257 156.776C302.491 152.405 307.638 144.537 311.425 146.48C315.212 148.422 312.978 160.856 312.978 160.856" fill="white"/>
<path d="M313.075 161.826C312.977 161.826 312.977 161.826 312.88 161.826C312.395 161.729 312.006 161.243 312.103 160.661C312.977 155.804 313.269 148.422 311.035 147.353C308.51 146.09 304.141 151.336 301.13 157.261C300.839 157.747 300.256 157.941 299.868 157.649C299.382 157.358 299.188 156.775 299.479 156.387C300.645 154.153 306.763 142.982 312.006 145.605C316.279 147.742 314.434 158.815 314.046 160.952C313.949 161.438 313.463 161.826 313.075 161.826Z" fill="#333333"/>
<path d="M313.076 136.864C314.047 142.497 311.522 145.897 311.522 145.897L313.076 136.864Z" fill="white"/>
<path d="M311.521 146.867C311.326 146.867 311.132 146.77 310.938 146.673C310.55 146.382 310.453 145.702 310.744 145.313C310.841 145.216 312.977 142.108 312.103 136.96C312.006 136.474 312.395 135.891 312.88 135.794C313.366 135.697 313.948 136.085 314.045 136.571C315.114 142.593 312.395 146.187 312.298 146.382C312.103 146.77 311.812 146.867 311.521 146.867Z" fill="#333333"/>
<path d="M300.451 159.495C301.469 159.495 302.296 158.843 302.296 158.038C302.296 157.233 301.469 156.581 300.451 156.581C299.432 156.581 298.605 157.233 298.605 158.038C298.605 158.843 299.432 159.495 300.451 159.495Z" fill="#333333"/>
<path d="M313.807 161.713C314.172 160.996 313.732 160.039 312.824 159.576C311.916 159.113 310.884 159.319 310.519 160.036C310.153 160.753 310.593 161.71 311.502 162.173C312.41 162.636 313.442 162.43 313.807 161.713Z" fill="#333333"/>
<defs>
<linearGradient id="paint0_linear" x1="103.399" y1="188.168" x2="141.406" y2="188.168" gradientUnits="userSpaceOnUse">
<stop stop-color="#FFA363"/>
<stop offset="0.9127" stop-color="#FF7743"/>
</linearGradient>
<linearGradient id="paint1_linear" x1="503.059" y1="225.432" x2="537.743" y2="225.432" gradientUnits="userSpaceOnUse">
<stop stop-color="#FFA363"/>
<stop offset="0.9127" stop-color="#FF7743"/>
</linearGradient>
<linearGradient id="paint2_linear" x1="291.416" y1="143.386" x2="300.862" y2="143.386" gradientUnits="userSpaceOnUse">
<stop stop-color="#FFA363"/>
<stop offset="0.9127" stop-color="#FF7743"/>
</linearGradient>
</defs>
</svg>