<svg width="138" height="84" fill="none" xmlns="http://www.w3.org/2000/svg"><path d="M15.998 23.626c0-.898.689-1.626 1.528-1.626h28.95c.84 0 1.522.728 1.522 1.626v16.817c0 .895-.685 1.552-1.521 1.557h-12.48c-.772.005-.96 2.175-1 3-.067 1.41-1.086 1.417-1.94.338l-2.454-2.553c-.29-.368-.654-.787-1.105-.785h-9.972c-.843.005-1.528-.461-1.528-1.362V23.626Z" fill="url(#a)"/><path fill-rule="evenodd" clip-rule="evenodd" d="m27.848 43.21-.03-.037a.484.484 0 0 0-.38-.197l-9.906.055c-1.46.008-2.534-1.234-2.534-2.626v-15.78c0-1.392 1.081-2.625 2.528-2.625h28.95c1.455 0 2.522 1.24 2.522 2.626l.004 15.658c0 1.379-1.059 2.722-2.504 2.734h-.004L33.998 43c-.002.217-.019.684 0 .965.017.258.013.766 0 1.035-.04.83-.436 1.627-1.416 1.928-.944.29-1.769-.306-2.276-.93l-2.458-2.787Zm3.21 2.128c.853 1.079 1.94.662 1.94-.338.01-.213.019-.747 0-1.035-.05-.754-.073-1.961.5-1.965l12.99.018c.836-.006 1.514-.84 1.514-1.734l-.004-15.658c0-.898-.681-1.626-1.521-1.626h-28.95c-.84 0-1.53.728-1.53 1.626v15.78c0 .9.686 1.63 1.53 1.625l9.906-.055c.45-.002.88.209 1.17.576l2.455 2.786Z" fill="#333"/><path fill-rule="evenodd" clip-rule="evenodd" d="M21.998 30.5c0-.276.263-.5.588-.5h18.823c.325 0 .589.224.589.5s-.264.5-.589.5H22.586c-.325 0-.588-.224-.588-.5ZM21.998 33.5c0-.276.285-.5.636-.5h12.727c.352 0 .637.224.637.5s-.285.5-.637.5H22.634c-.351 0-.636-.224-.636-.5Z" fill="#fff"/><g filter="url(#b)"><path d="M80.213 36.98a.277.277 0 0 1 .01-.01l.021-.015.022-.022 17.519-17.55.007-.007a1.52 1.52 0 0 1 .532-.336c.218-.074.403-.064.585.115l.001.002 12.186 12.315.002.002c.293.293.448.71.455 1.134.008.43-.136.807-.36 1.031L94.419 50.413c-.436.436-1.312.447-1.966-.206l-.001-.001-12.278-12.458c-.126-.144-.161-.252-.17-.32a.378.378 0 0 1 .033-.208.727.727 0 0 1 .176-.24Z" stroke="#333"/></g><path d="M99.233 34.745a.507.507 0 0 0 .001-.054l-.284-15.33a.5.5 0 0 0-.853-.344L80.093 37.021a.5.5 0 0 0 .34.853l15.219.396.054-.001c1.892-.157 3.367-1.737 3.526-3.524Z" fill="url(#c)" stroke="#333" stroke-linejoin="round"/><defs><linearGradient id="a" x1="31.998" y1="22" x2="31.998" y2="46.107" gradientUnits="userSpaceOnUse"><stop stop-color="#FF8E3D"/><stop offset="1" stop-color="#FF6F3D"/></linearGradient><linearGradient id="c" x1="89.448" y1="28.372" x2="97.803" y2="36.727" gradientUnits="userSpaceOnUse"><stop stop-color="#FF8E3D"/><stop offset="1" stop-color="#FF6F3D"/></linearGradient><filter id="b" x="54.5" y=".497" width="82.553" height="82.726" filterUnits="userSpaceOnUse" color-interpolation-filters="sRGB"><feFlood flood-opacity="0" result="BackgroundImageFix"/><feColorMatrix in="SourceAlpha" values="0 0 0 0 0 0 0 0 0 0 0 0 0 0 0 0 0 0 127 0" result="hardAlpha"/><feOffset dy="7"/><feGaussianBlur stdDeviation="12.5"/><feColorMatrix values="0 0 0 0 0.333333 0 0 0 0 0.333333 0 0 0 0 0.333333 0 0 0 0.15 0"/><feBlend in2="BackgroundImageFix" result="effect1_dropShadow_1217_90"/><feBlend in="SourceGraphic" in2="effect1_dropShadow_1217_90" result="shape"/></filter></defs></svg>