<svg width="168" height="50" viewBox="0 0 168 50" fill="none" xmlns="http://www.w3.org/2000/svg">
<path d="M8.35495 13.5497C6.65427 13.8932 4.84368 15.2565 4.06967 16.7465C3.29566 18.2365 3.28345 18.6013 3.28345 24.8682L3.4239 31.4022C3.92311 33.9517 5.9169 35.947 8.46792 36.4462C9.2404 36.5867 19.301 36.6569 19.301 36.5027C19.301 36.3898 18.4461 33.0189 18.385 32.9915C18.3697 32.964 16.5866 32.5701 14.4234 32.106C9.37933 31.0099 9.53352 31.0374 9.11064 30.5458L8.74425 30.1107V19.9097L9.11064 19.4517C9.53199 18.9479 9.3778 18.9876 14.4234 17.8914L18.385 17.006C18.4277 16.9632 19.301 13.5924 19.301 13.4947C19.301 13.3619 9.02973 13.4245 8.35495 13.5649V13.5497ZM24.6396 13.571C24.6549 13.8245 25.4411 16.9297 25.5251 16.9999C25.5526 17.0426 27.4792 17.4777 29.7997 17.9693L34.3384 19.0654C34.5858 19.2092 34.7935 19.4122 34.9429 19.6562C35.1674 20.0501 35.1964 20.4715 35.1964 24.9949L34.9429 30.3336C34.7898 30.5746 34.5829 30.7768 34.3384 30.9244C34.1552 31.0221 32.1187 31.5152 29.7997 32.0205L25.5251 32.9899C25.1767 34.1185 24.8812 35.2627 24.6396 36.4188C24.6396 36.5714 25.6518 36.602 30.0897 36.5592C36.2162 36.5027 36.2879 36.489 37.8451 35.4356C38.9656 34.6647 39.8119 33.5575 40.2618 32.2739C40.5854 31.332 40.5854 31.248 40.5854 24.9964L40.2618 17.7144C39.8119 16.4308 38.9656 15.3236 37.8451 14.5527C36.2849 13.484 36.2146 13.484 30.0897 13.4291C25.6503 13.3863 24.6396 13.4077 24.6396 13.5695V13.571ZM50.7864 18.3494C49.817 20.3722 48.8476 22.8729 47.8507 25.9063L45.8554 32.7487C46.2294 32.7854 46.6187 32.7991 46.979 32.7915H48.0889L48.2415 32.1869L48.7911 30.2633L49.1697 28.9291H56.8838L57.2777 30.3336L57.812 32.2571L57.9525 32.7915H59.0624L60.186 32.7487C60.186 32.7212 59.9051 31.6801 59.5539 30.416C58.2761 25.7933 56.6457 21.2562 55.2687 18.3891L54.5359 16.9144H51.4734L50.7864 18.3494ZM54.1145 21.1585L56.1098 26.5536C56.1098 26.5811 54.7358 26.6101 53.0184 26.6101C51.3009 26.6101 49.9269 26.5536 49.9269 26.4971C49.9269 26.259 51.3467 22.479 52.0337 20.8485C52.568 19.5967 52.8352 19.1479 53.0168 19.1479C53.1985 19.1479 53.481 19.6669 54.113 21.1432L54.1145 21.1585ZM61.5889 24.8529V32.7915H63.8377V16.9144H61.5889V24.8529ZM66.6467 17.0976C66.3833 17.2742 66.1703 17.5162 66.0284 17.7998C65.804 18.2777 65.7903 18.3907 65.9719 18.8685C66.2162 19.5738 66.9734 19.9585 67.6863 19.7387C68.3886 19.5143 68.6833 19.1066 68.6833 18.3754C68.6833 17.8411 68.613 17.6884 68.2191 17.3373C67.7276 16.9022 67.2223 16.8182 66.6467 17.1129V17.0976ZM70.7228 24.8255V32.764L72.451 32.8907L75.7104 33.0174C77.1302 33.0174 77.3256 32.9899 78.0706 32.6098C78.9484 32.2129 79.6064 31.445 79.8689 30.5183C79.9529 30.1824 79.9957 28.6924 79.9667 26.6559C79.9239 23.5232 79.9102 23.2973 79.6155 22.7355C79.0659 21.7233 78.2385 21.2317 76.7073 21.0211C75.8921 20.9081 73.8677 21.0211 73.251 21.2195C72.9838 21.3035 72.9701 21.247 72.9701 19.128V16.9205H70.7213L70.7228 24.8255ZM77.1149 23.308C77.3895 23.4077 77.6156 23.6087 77.7469 23.8698C77.9301 24.3476 77.9301 29.5748 77.7469 30.0374C77.5362 30.6129 76.8309 30.8801 75.4982 30.8801C74.878 30.887 74.2581 30.8492 73.6433 30.7671L72.9685 30.6694V23.4057L73.7838 23.2652C75.0356 23.0545 76.5653 23.0668 77.1118 23.308H77.1149ZM93.0622 24.8392V32.7777L94.4392 32.848L97.3047 33.0312C99.2283 33.1441 100.437 32.8327 101.225 32.0052C102.237 30.9671 102.263 30.8389 102.294 27.2986C102.337 24.7277 102.309 23.94 102.141 23.3645C101.763 22.0439 100.666 21.2149 98.9932 21.018C98.1505 20.9203 95.9445 21.0333 95.4941 21.2165C95.3537 21.2592 95.3109 20.7814 95.3109 19.1097V16.9312H93.0622V24.8392ZM99.3703 23.2438C99.6084 23.3278 99.8741 23.511 99.9458 23.6515C100.098 23.9324 100.144 29.8038 100.002 30.1855C99.7641 30.8038 97.865 31.0709 95.9842 30.761L95.3094 30.6633V23.4087L96.1246 23.2683C97.2482 23.0851 98.836 23.0698 99.3703 23.2469V23.2438ZM121.696 17.0548C120.291 17.3083 119.559 17.6457 118.844 18.3754C117.72 19.499 117.65 19.9066 117.65 24.9934C117.65 30.0802 117.72 30.4862 118.872 31.6251C119.462 32.2297 119.788 32.4113 120.627 32.6938C121.543 32.9747 121.962 33.0174 123.845 33.0174C125.476 33.0174 126.319 32.9472 127.161 32.7502C127.61 32.661 128.051 32.5391 128.482 32.3854C128.595 32.3152 128.579 32.0617 128.412 31.3885C128.332 31.0475 128.224 30.714 128.088 30.3916C128.031 30.3351 127.68 30.3763 127.315 30.4893C126.064 30.8679 123.873 31.0236 122.51 30.8557C121.146 30.6878 120.641 30.4618 120.22 29.9137C119.939 29.5474 119.925 29.3947 119.925 25.0102C119.925 20.6257 119.94 20.4715 120.22 20.1066C120.655 19.557 121.146 19.3479 122.51 19.1647C123.873 18.9815 126.064 19.1494 127.315 19.5311L128.074 19.7417C128.187 19.7417 128.679 17.7876 128.593 17.7052C128.55 17.6624 128.031 17.5067 127.413 17.3388C126.192 17.0151 122.874 16.861 121.708 17.0716L121.696 17.0548ZM130.575 24.8529V32.7915H132.682V16.9144H130.575V24.8529ZM162.482 19.0212V21.1279L161.68 21.044L160.557 20.9035C160.079 20.8195 158.308 21.102 157.802 21.3539C157.148 21.7014 156.611 22.234 156.258 22.8851C155.977 23.4041 155.949 23.7003 155.906 26.549C155.85 30.384 155.963 30.9458 156.975 31.9442C157.888 32.8296 158.97 33.1243 160.81 33.0128L163.424 32.8602L164.717 32.7762V16.9297H162.469L162.482 19.0212ZM162.243 23.3064C162.468 23.4041 162.482 23.7141 162.482 27.0437V30.6679L161.963 30.7656C161.047 30.9488 159.349 30.9061 158.857 30.6954C158.604 30.5824 158.338 30.387 158.267 30.245C158.195 30.1031 158.126 28.6146 158.126 26.9292C158.126 23.5706 158.154 23.4728 158.899 23.2347C159.349 23.0942 161.821 23.1507 162.257 23.3049L162.243 23.3064ZM85.2091 20.9966C84.5805 21.0808 83.9568 21.198 83.3405 21.3478C82.5818 21.531 82.3986 21.6287 82.4551 21.8119C82.4978 21.9386 82.5955 22.3462 82.6932 22.7385C82.7909 23.1309 82.8917 23.4835 82.9467 23.5247C83.0016 23.566 83.6077 23.4973 84.2962 23.3721C86.6427 22.8805 88.2304 23.1049 88.4548 23.9476C88.5257 24.3227 88.5635 24.7033 88.5678 25.085L88.583 25.8712L87.2487 25.801C83.6795 25.6178 81.5299 26.9536 81.5025 29.355C81.4872 30.4923 81.8536 31.3778 82.6123 32.0801C83.4978 32.8953 84.4382 33.1487 86.2518 33.022L89.1876 32.8693L90.7051 32.7716L90.6211 23.3293L90.2272 22.6683C89.441 21.3401 87.5709 20.7218 85.2107 21.0241L85.2091 20.9966ZM88.4823 28.1062C88.6227 28.1902 88.609 30.6771 88.467 30.6771C88.3968 30.6771 87.6808 30.7473 86.864 30.8297C84.5176 31.0541 83.6611 30.703 83.6611 29.4954C83.6611 28.9764 83.7314 28.8207 84.0825 28.5123C84.3878 28.2757 84.7817 28.126 85.1786 28.0772L86.0488 27.9367C86.3022 27.8803 88.3388 28.0131 88.4792 28.1123L88.4823 28.1062ZM107.619 20.9768L105.75 21.3432C104.808 21.5676 104.724 21.6241 104.794 21.8928L105.048 22.9309C105.201 23.6331 105.231 23.6759 105.567 23.5919C107.449 23.1003 109.261 22.9599 109.994 23.2255C110.655 23.479 110.796 23.7599 110.796 24.8285V25.8407H109.052C106.846 25.8407 105.834 26.1216 104.865 26.9933C104.462 27.3329 104.152 27.7685 103.963 28.2598C103.774 28.7511 103.712 29.2821 103.782 29.8038C104.02 32.0938 105.651 33.2037 108.573 33.022L111.509 32.8693L113.026 32.7716L112.983 28.1215C112.941 23.653 112.927 23.4423 112.632 22.8942C111.831 21.3905 110.019 20.7157 107.602 20.9982L107.619 20.9768ZM110.4 27.9993H110.779V30.6557L109.977 30.7534C108.432 30.9519 106.929 30.9061 106.535 30.6404C105.749 30.1214 105.776 28.7581 106.578 28.3505C107.127 28.0696 108.432 27.8726 109.303 27.9566L110.399 28.0131L110.4 27.9993ZM137.629 20.9737C136.777 21.1593 136.01 21.624 135.451 22.2943C134.733 23.2362 134.665 23.6988 134.665 27.0727C134.665 30.529 134.762 30.9351 135.691 31.906C136.607 32.848 137.04 32.9747 139.161 32.9747C141.339 32.9747 141.832 32.822 142.73 31.7534C143.585 30.7412 143.686 30.2359 143.646 26.6818C143.603 23.7873 143.576 23.5064 143.295 22.9721C142.879 22.2055 142.236 21.5868 141.454 21.2012C140.736 20.8776 138.629 20.7371 137.646 20.9478L137.629 20.9737ZM140.721 23.3064C141.438 23.6728 141.55 24.1766 141.55 26.946C141.55 29.5718 141.452 30.0649 140.848 30.5992C140.413 30.9931 138.431 31.0908 137.715 30.7397C136.872 30.3458 136.773 29.9382 136.773 26.946C136.773 24.0804 136.857 23.7003 137.588 23.3064C138.123 23.0118 140.159 23.0118 140.721 23.3064ZM66.2406 26.946V32.7777H68.3474V21.1142H66.2406V26.946ZM145.397 21.2974C145.354 21.4104 145.34 23.5171 145.37 25.9765C145.412 30.0221 145.44 30.5 145.678 30.9503C146.507 32.5106 147.911 33.1563 150.201 33.0021L154.195 32.7625V21.1294H152.058V30.671L151.397 30.7687C150.175 30.9671 148.656 30.8954 148.165 30.642L147.673 30.3611C147.658 30.3458 147.603 28.2818 147.56 25.7811L147.49 21.2012L146.464 21.1585C145.692 21.131 145.426 21.1585 145.368 21.3111L145.397 21.2974ZM18.3697 24.6972C18.3239 24.8476 18.3145 25.0066 18.3422 25.1613C18.385 25.3995 18.6369 25.4147 21.939 25.456L25.4808 25.4834V24.5003H21.9695C19.0338 24.5003 18.4277 24.5278 18.3728 24.6987L18.3697 24.6972Z" fill="#FE6A00"/>
</svg>
