<svg width="171" height="50" viewBox="0 0 171 50" fill="none" xmlns="http://www.w3.org/2000/svg">
<g clip-path="url(#clip0_2001_20033)">
<path fill-rule="evenodd" clip-rule="evenodd" d="M14.5344 38.4844V33.0341C20.3528 33.0341 24.826 27.3165 22.6062 21.2309C21.799 18.9907 19.9829 17.1851 17.7295 16.3826C11.6084 14.1758 5.85715 18.6563 5.85715 24.4075H0.375C0.375 15.2123 9.32131 8.02342 19.0076 11.0327C23.2453 12.3368 26.6086 15.7139 27.9539 19.927C30.9808 29.5901 23.7834 38.4844 14.5344 38.4844Z" fill="#0069FF"/>
<path fill-rule="evenodd" clip-rule="evenodd" d="M14.5335 33.0674H9.08496V27.6506H14.5335V33.0674Z" fill="#0069FF"/>
<path fill-rule="evenodd" clip-rule="evenodd" d="M9.0852 37.2471H4.8811V33.0675H9.0852V37.2471Z" fill="#0069FF"/>
<path fill-rule="evenodd" clip-rule="evenodd" d="M4.88227 33.0676H1.35083V29.5902H4.84863V33.0676H4.88227Z" fill="#0069FF"/>
<path fill-rule="evenodd" clip-rule="evenodd" d="M50.7243 18.5226C49.1099 17.4191 47.092 16.8507 44.7377 16.8507H39.6255V33.0341H44.7377C47.092 33.0341 49.1099 32.4323 50.7243 31.262C51.5988 30.6267 52.3051 29.7573 52.7759 28.6539C53.2468 27.5505 53.5158 26.2799 53.5158 24.8421C53.5158 23.4043 53.2805 22.1337 52.7759 21.0638C52.3051 19.9603 51.6324 19.091 50.7243 18.5226ZM42.6203 19.5592H44.2347C46.0172 19.5592 47.4971 19.8936 48.607 20.5958C49.8514 21.3313 50.4904 22.7691 50.4904 24.8088C50.4904 26.9153 49.8514 28.3866 48.607 29.189C47.5307 29.8912 46.0845 30.259 44.2684 30.259H42.654V19.5592H42.6203Z" fill="#0069FF"/>
<path fill-rule="evenodd" clip-rule="evenodd" d="M57.1151 16.6166C56.6106 16.6166 56.207 16.7838 55.8706 17.1181C55.5344 17.4525 55.3325 17.8537 55.3325 18.3553C55.3325 18.8568 55.5007 19.2581 55.837 19.6259C56.1734 19.9603 56.6106 20.1274 57.1151 20.1274C57.6196 20.1274 58.0232 19.9603 58.3931 19.6259C58.7295 19.2915 58.8976 18.8568 58.8976 18.3553C58.8976 17.8537 58.7295 17.4525 58.3931 17.1181C58.0232 16.8172 57.5859 16.6166 57.1151 16.6166Z" fill="#0069FF"/>
<path d="M58.5272 21.5986H55.6348V33.0006H58.5272V21.5986Z" fill="#0069FF"/>
<path fill-rule="evenodd" clip-rule="evenodd" d="M68.9844 22.5682C68.1101 21.7992 67.1347 21.3645 66.092 21.3645C64.5113 21.3645 63.166 21.8995 62.157 23.0029C61.1144 24.0729 60.6099 25.4437 60.6099 27.0822C60.6099 28.6871 61.1144 30.058 62.1234 31.1615C63.1323 32.2315 64.4776 32.7664 66.0584 32.7664C67.1683 32.7664 68.1101 32.4655 68.9172 31.8636V32.1311C68.9172 33.0673 68.6482 33.803 68.1773 34.3045C67.6728 34.8061 66.9665 35.0736 66.1257 35.0736C64.7804 35.0736 63.9732 34.5386 62.9305 33.2011L60.9799 35.0736L61.0471 35.1404C61.4843 35.7423 62.1234 36.3108 62.9642 36.8457C63.805 37.3807 64.9149 37.6816 66.1593 37.6816C67.8746 37.6816 69.2535 37.1467 70.2625 36.1102C71.2715 35.0736 71.8097 33.6692 71.8097 31.964V21.5986H68.9844V22.5682ZM68.2116 29.2891C67.7071 29.8576 67.0681 30.125 66.2273 30.125C65.3864 30.125 64.7474 29.8576 64.2766 29.2891C63.772 28.7207 63.5367 27.9851 63.5367 27.0489C63.5367 26.1126 63.772 25.377 64.2766 24.8086C64.7811 24.2401 65.4201 23.9726 66.2273 23.9726C67.0681 23.9726 67.7071 24.2401 68.2116 24.8086C68.7161 25.377 68.9516 26.1461 68.9516 27.0489C68.9852 27.9851 68.7161 28.7207 68.2116 29.2891Z" fill="#0069FF"/>
<path d="M77.1583 21.5986H74.2659V33.0006H77.1583V21.5986Z" fill="#0069FF"/>
<path fill-rule="evenodd" clip-rule="evenodd" d="M75.7476 16.6166C75.2432 16.6166 74.8396 16.7838 74.5032 17.1181C74.167 17.4525 73.9651 17.8537 73.9651 18.3553C73.9651 18.8568 74.1333 19.2581 74.4696 19.6259C74.806 19.9603 75.2432 20.1274 75.7476 20.1274C76.2522 20.1274 76.6557 19.9603 77.0257 19.6259C77.362 19.2915 77.5302 18.8568 77.5302 18.3553C77.5302 17.8537 77.362 17.4525 77.0257 17.1181C76.6557 16.8172 76.2522 16.6166 75.7476 16.6166Z" fill="#0069FF"/>
<path fill-rule="evenodd" clip-rule="evenodd" d="M83.4822 18.5225H80.657V21.5986H79.009V24.2067H80.657V28.9213C80.657 30.3925 80.9598 31.4625 81.5315 32.0643C82.1369 32.6662 83.1795 33.0006 84.6257 33.0006C85.0966 33.0006 85.5675 33.0006 86.0383 32.9671H86.1729V30.3591L85.1975 30.4259C84.5248 30.4259 84.054 30.2922 83.8185 30.0582C83.5831 29.8241 83.4822 29.3226 83.4822 28.5535V24.2402H86.1729V21.6321H83.4822V18.5225Z" fill="#0069FF"/>
<path fill-rule="evenodd" clip-rule="evenodd" d="M99.6929 16.8171H102.585V33.0006H99.6929V16.8171Z" fill="#0069FF"/>
<path fill-rule="evenodd" clip-rule="evenodd" d="M131.678 28.9212C131.173 29.4896 130.635 29.9912 130.231 30.2586C129.828 30.5261 129.323 30.6265 128.752 30.6265C127.911 30.6265 127.204 30.3256 126.666 29.6903C126.128 29.0549 125.825 28.2525 125.825 27.2828C125.825 26.3131 126.094 25.5107 126.633 24.8754C127.171 24.24 127.877 23.9391 128.718 23.9391C129.659 23.9391 130.635 24.5075 131.476 25.5107L133.393 23.7051C132.148 22.1001 130.568 21.3645 128.684 21.3645C127.103 21.3645 125.725 21.9329 124.615 23.0697C123.505 24.2066 122.933 25.6109 122.933 27.3163C122.933 29.0215 123.505 30.4593 124.615 31.5627C125.725 32.6996 127.103 33.268 128.684 33.268C130.769 33.268 132.451 32.3652 133.594 30.7268L131.678 28.9212Z" fill="#0069FF"/>
<path fill-rule="evenodd" clip-rule="evenodd" d="M143.516 23.2036C143.113 22.6352 142.541 22.1671 141.868 21.8328C141.195 21.4984 140.388 21.3312 139.48 21.3312C137.866 21.3312 136.554 21.9331 135.579 23.0699C134.604 24.2402 134.132 25.678 134.132 27.3498C134.132 29.0886 134.67 30.4929 135.713 31.5963C136.756 32.6663 138.168 33.2347 139.884 33.2347C141.835 33.2347 143.415 32.4657 144.625 30.9276L144.693 30.8607L142.81 29.0551C142.641 29.2558 142.372 29.4898 142.171 29.7239C141.901 29.9914 141.632 30.192 141.33 30.3257C140.893 30.5263 140.422 30.6601 139.884 30.6601C139.076 30.6601 138.438 30.426 137.933 29.9579C137.462 29.5232 137.193 28.9548 137.125 28.2192H144.76L144.794 27.1827C144.794 26.4471 144.693 25.7448 144.491 25.0762C144.223 24.374 143.919 23.7721 143.516 23.2036ZM137.227 25.8787C137.362 25.3437 137.63 24.8756 137.967 24.5412C138.371 24.1735 138.875 23.9728 139.481 23.9728C140.187 23.9728 140.725 24.1735 141.095 24.5747C141.431 24.9425 141.633 25.3772 141.667 25.9121H137.227V25.8787Z" fill="#0069FF"/>
<path fill-rule="evenodd" clip-rule="evenodd" d="M154.582 22.4679C153.708 21.7323 152.498 21.3645 150.984 21.3645C150.008 21.3645 149.134 21.5651 148.327 21.9663C147.587 22.3342 146.847 22.9695 146.376 23.8053L146.41 23.8388L148.26 25.6109C149.033 24.4072 149.874 23.9725 150.984 23.9725C151.589 23.9725 152.094 24.1398 152.463 24.4407C152.834 24.7416 153.035 25.1428 153.035 25.6778V26.2463C152.329 26.0456 151.622 25.9118 150.916 25.9118C149.47 25.9118 148.327 26.2463 147.452 26.915C146.578 27.5838 146.141 28.5534 146.141 29.7571C146.141 30.8271 146.51 31.6965 147.251 32.3317C147.991 32.9671 148.932 33.268 150.042 33.268C151.152 33.268 152.161 32.8333 153.103 32.0643V33.0005H155.928V25.6778C155.894 24.2735 155.457 23.2035 154.582 22.4679ZM149.469 28.6536C149.806 28.4195 150.243 28.3193 150.848 28.3193C151.555 28.3193 152.294 28.453 153.034 28.7205V29.824C152.396 30.3923 151.555 30.6933 150.546 30.6933C150.041 30.6933 149.672 30.593 149.402 30.3589C149.133 30.1583 148.999 29.8908 148.999 29.523C148.999 29.1552 149.133 28.8542 149.469 28.6536Z" fill="#0069FF"/>
<path fill-rule="evenodd" clip-rule="evenodd" d="M166.992 22.6687C166.185 21.7659 165.075 21.3312 163.629 21.3312C162.485 21.3312 161.544 21.6656 160.871 22.3009V21.5987H158.046V33.0007H160.938V26.7146C160.938 25.8452 161.141 25.1764 161.544 24.6749C161.947 24.1734 162.519 23.9393 163.259 23.9393C163.898 23.9393 164.403 24.1399 164.772 24.5745C165.143 25.0092 165.311 25.6111 165.311 26.3801V32.9672H168.203V26.3801C168.203 24.8086 167.8 23.5715 166.992 22.6687Z" fill="#0069FF"/>
<path fill-rule="evenodd" clip-rule="evenodd" d="M96.063 22.4679C95.1887 21.7323 93.9775 21.3645 92.4646 21.3645C91.4891 21.3645 90.6148 21.5651 89.8074 21.9663C89.0677 22.3342 88.3274 22.9695 87.8566 23.8053L87.8902 23.8388L89.7397 25.6109C90.5137 24.4072 91.3546 23.9725 92.4646 23.9725C93.0697 23.9725 93.5737 24.1398 93.944 24.4407C94.3144 24.7416 94.5158 25.1428 94.5158 25.6778V26.2463C93.8095 26.0456 93.1032 25.9118 92.3969 25.9118C90.9508 25.9118 89.8074 26.2463 88.9331 26.915C88.0583 27.5838 87.6211 28.5534 87.6211 29.7571C87.6211 30.8271 87.991 31.6965 88.7308 32.3317C89.4705 32.9671 90.4125 33.268 91.5226 33.268C92.6326 33.268 93.6415 32.8333 94.5835 32.0643V33.0005H97.4078V25.6778C97.3744 24.2735 96.9373 23.2035 96.063 22.4679ZM90.95 28.6536C91.2868 28.4195 91.724 28.3193 92.3291 28.3193C93.0354 28.3193 93.7752 28.453 94.5149 28.7205V29.824C93.8763 30.3923 93.0354 30.6933 92.0266 30.6933C91.5217 30.6933 91.1523 30.593 90.8831 30.3589C90.614 30.1583 90.4794 29.8908 90.4794 29.523C90.4794 29.1552 90.614 28.8542 90.95 28.6536Z" fill="#0069FF"/>
<path fill-rule="evenodd" clip-rule="evenodd" d="M113.011 33.2347C108.404 33.2347 104.637 29.4897 104.637 24.9089C104.637 20.3281 108.404 16.5831 113.011 16.5831C117.62 16.5831 121.386 20.3281 121.386 24.9089C121.386 29.4897 117.653 33.2347 113.011 33.2347ZM113.011 19.4923C110.017 19.4923 107.596 21.8997 107.596 24.8756C107.596 27.8515 110.017 30.259 113.011 30.259C116.004 30.259 118.425 27.8515 118.425 24.8756C118.425 21.8997 116.004 19.4923 113.011 19.4923Z" fill="#0069FF"/>
</g>
<defs>
<clipPath id="clip0_2001_20033">
<rect width="168" height="28.1466" fill="white" transform="translate(0.375 10.3378)"/>
</clipPath>
</defs>
</svg>
