<svg width="171" height="50" viewBox="0 0 171 50" fill="none" xmlns="http://www.w3.org/2000/svg">
<g clip-path="url(#clip0_2001_20415)">
<path fill-rule="evenodd" clip-rule="evenodd" d="M41.6177 12.5383C46.0276 20.5376 45.2071 30.3828 39.4641 37.5616H27.3627L31.1572 30.9981H26.2346L31.9776 20.7427H37.0028L41.6177 12.5383ZM17.7225 37.5616H5.41601C-0.429588 30.3828 -1.25002 20.435 3.26237 12.4358L11.2616 26.3832L20.0813 11H33.1057L17.7225 37.5616Z" fill="#000E9C"/>
<path fill-rule="evenodd" clip-rule="evenodd" d="M123.559 14.3843V31.5109C123.559 32.639 123.969 33.1518 124.789 33.1518C125.302 33.1518 125.712 33.562 125.712 34.0747C125.712 34.5875 125.302 34.9977 124.789 34.9977C122.738 34.9977 121.61 33.7671 121.61 31.5109V14.3843C121.713 13.8715 122.123 13.4613 122.636 13.4613C123.149 13.4613 123.559 13.8715 123.559 14.3843ZM61.103 14.1791C55.3599 14.1791 51.7705 17.5634 51.7705 24.6396C51.7705 31.7159 55.2574 35.2027 61.103 35.2027C66.9486 35.2027 70.4354 31.7159 70.4354 24.6396C70.4354 17.5634 66.846 14.1791 61.103 14.1791ZM61.103 33.2542C56.5906 33.2542 53.9242 30.4852 53.9242 24.6396C53.9242 18.794 56.488 16.025 61.103 16.025C65.7179 16.025 68.3843 18.794 68.3843 24.6396C68.3843 30.4852 65.6154 33.2542 61.103 33.2542ZM86.6392 14.3841C86.229 14.3841 85.9213 14.6918 85.7162 14.9994L79.6655 31.1005L73.6148 14.9994C73.4097 14.5892 72.9995 14.3841 72.5892 14.3841C71.9739 14.3841 71.5637 14.7943 71.5637 15.4097C71.5637 15.4609 71.5893 15.5378 71.615 15.6148C71.6406 15.6917 71.6663 15.7686 71.6663 15.8199L78.7425 34.2797C78.7425 34.7924 79.1527 35.2027 79.6655 35.2027C80.1783 35.2027 80.5885 34.7924 80.5885 34.2797L87.5622 15.8199C87.6647 15.7173 87.6647 15.5122 87.6647 15.4097V15.2045C87.5622 14.6918 87.152 14.2816 86.6392 14.3841ZM91.9721 25.3574V33.972C91.9721 34.4848 91.4593 34.9976 90.9465 34.9976C90.3312 34.9976 89.921 34.5873 89.921 33.972V15.4097C89.8184 14.8969 90.2286 14.4867 90.7414 14.3841H90.9465C91.5618 14.3841 91.9721 14.7943 91.9721 15.4097V23.5115H102.33V15.4097C102.33 14.7943 102.74 14.3841 103.356 14.3841C103.868 14.2816 104.279 14.6918 104.381 15.2045V15.4097V33.972C104.381 34.5873 103.971 34.9976 103.356 34.9976C102.843 34.9976 102.33 34.4848 102.33 33.972V25.3574H91.9721ZM118.636 22.7938C117.508 21.4606 115.765 20.7427 114.021 20.7427C110.124 20.7427 107.868 22.9989 107.868 27.9215C107.868 32.8441 110.124 35.1003 114.021 35.1003C115.662 35.1003 117.201 34.5875 118.534 33.562C118.841 33.3569 118.944 33.0492 118.944 32.7416C118.841 32.2288 118.534 31.9211 118.021 31.9211C117.816 31.9211 117.611 32.0237 117.508 32.1262C116.483 32.9467 115.252 33.3569 114.021 33.3569C111.252 33.3569 109.817 31.6135 109.817 27.9215C109.817 24.2295 111.252 22.4861 114.021 22.4861C115.252 22.3836 116.483 22.8963 117.201 23.9219C117.406 24.127 117.611 24.2295 117.918 24.2295H118.021C118.431 24.2295 118.841 23.8193 118.841 23.4091C118.841 23.204 118.739 22.9989 118.636 22.7938ZM133.609 22.4861C136.276 22.4861 137.916 24.127 137.916 27.9215C137.916 31.716 136.378 33.3569 133.609 33.3569C130.84 33.3569 129.199 31.716 129.199 27.9215C129.199 24.127 130.943 22.4861 133.609 22.4861ZM133.609 35.1003C137.506 35.1003 139.865 32.8441 139.865 27.9215C139.865 22.9989 137.506 20.7427 133.609 20.7427C129.712 20.7427 127.251 22.9989 127.251 27.9215C127.251 32.8441 129.712 35.1003 133.609 35.1003ZM144.48 21.8708V29.6649C144.48 31.6135 145.095 33.2543 148.069 33.2543C151.043 33.2543 151.761 31.6135 151.761 29.6649V21.8708C151.761 21.358 152.171 20.9478 152.684 20.9478H152.787C153.3 20.9478 153.71 21.358 153.71 21.8708V29.6649C153.71 32.5365 152.787 35.1003 148.069 35.1003C143.352 35.1003 142.531 32.5365 142.531 29.6649V21.8708C142.531 21.358 142.942 20.9478 143.454 20.9478H143.557C144.07 20.9478 144.48 21.358 144.48 21.8708ZM166.427 14.3843V22.6912C165.504 21.4605 163.965 20.7427 162.427 20.7427C158.53 20.7427 156.376 22.9989 156.376 27.9215C156.376 32.8441 159.145 35.1003 162.53 35.1003C165.914 35.1003 168.375 33.1518 168.375 29.2547V14.3843C168.375 13.8715 167.965 13.4613 167.452 13.4613H167.35C166.837 13.4613 166.427 13.8715 166.427 14.3843ZM162.53 22.4861C164.273 22.5886 165.709 23.6142 166.427 25.1525V29.2547C166.427 32.1262 165.299 33.3569 162.53 33.3569C159.761 33.3569 158.325 31.6134 158.325 27.9215C158.325 24.2295 159.761 22.4861 162.53 22.4861Z" fill="#000E9C"/>
</g>
<defs>
<clipPath id="clip0_2001_20415">
<rect width="168" height="26.5616" fill="white" transform="translate(0.375 11)"/>
</clipPath>
</defs>
</svg>
