<svg width="64" height="64" viewBox="0 0 64 64" fill="none" xmlns="http://www.w3.org/2000/svg">
<mask id="path-1-inside-1_912_5282" fill="white">
<path fill-rule="evenodd" clip-rule="evenodd" d="M10.9898 6H60.9052C62.6023 6 63.9001 7.3 64 9V47C64 48.7 62.6023 50 61.005 50H42.0372V55H44.6C45.9254 55 47 56.0745 47 57.4C47 57.7314 46.7313 58 46.4 58H39.2419H32.7529H25.6C25.2686 58 25 57.7314 25 57.4C25 56.0745 26.0745 55 27.4 55H29.9576V50H11.5C11.5 50 7.99488 50 7.99487 46V17V9C7.99487 7.3 9.29267 6 10.9898 6Z"/>
</mask>
<path fill-rule="evenodd" clip-rule="evenodd" d="M10.9898 6H60.9052C62.6023 6 63.9001 7.3 64 9V47C64 48.7 62.6023 50 61.005 50H42.0372V55H44.6C45.9254 55 47 56.0745 47 57.4C47 57.7314 46.7313 58 46.4 58H39.2419H32.7529H25.6C25.2686 58 25 57.7314 25 57.4C25 56.0745 26.0745 55 27.4 55H29.9576V50H11.5C11.5 50 7.99488 50 7.99487 46V17V9C7.99487 7.3 9.29267 6 10.9898 6Z" fill="url(#paint0_linear_912_5282)"/>
<path d="M64 9H65V8.97066L64.9982 8.94138L64 9ZM42.0372 50V49H41.0372V50H42.0372ZM42.0372 55H41.0372V56H42.0372V55ZM29.9576 55V56H30.9576V55H29.9576ZM29.9576 50H30.9576V49H29.9576V50ZM7.99487 46H6.99487H7.99487ZM60.9052 5H10.9898V7H60.9052V5ZM64.9982 8.94138C64.8694 6.74729 63.1657 5 60.9052 5V7C62.0389 7 62.9309 7.85271 63.0017 9.05862L64.9982 8.94138ZM65 47V9H63V47H65ZM61.005 51C63.1344 51 65 49.2723 65 47H63C63 48.1277 62.0702 49 61.005 49V51ZM42.0372 51H61.005V49H42.0372V51ZM43.0372 55V50H41.0372V55H43.0372ZM42.0372 56H44.6V54H42.0372V56ZM44.6 56C45.3732 56 46 56.6268 46 57.4H48C48 55.5222 46.4777 54 44.6 54V56ZM46 57.4C46 57.1791 46.179 57 46.4 57V59C47.2836 59 48 58.2837 48 57.4H46ZM46.4 57H39.2419V59H46.4V57ZM39.2419 57H32.7529V59H39.2419V57ZM32.7529 57H25.6V59H32.7529V57ZM25.6 57C25.8209 57 26 57.1791 26 57.4H24C24 58.2837 24.7163 59 25.6 59V57ZM26 57.4C26 56.6268 26.6268 56 27.4 56V54C25.5222 54 24 55.5222 24 57.4H26ZM27.4 56H29.9576V54H27.4V56ZM28.9576 50V55H30.9576V50H28.9576ZM11.5 51H29.9576V49H11.5V51ZM6.99487 46C6.99488 48.363 8.06712 49.6926 9.25182 50.3686C9.81141 50.6879 10.3616 50.8431 10.7654 50.9199C10.9694 50.9587 11.142 50.9786 11.2681 50.9889C11.3314 50.994 11.3835 50.9968 11.4226 50.9983C11.4422 50.999 11.4585 50.9995 11.4715 50.9997C11.478 50.9998 11.4836 50.9999 11.4884 50.9999C11.4907 51 11.4929 51 11.4948 51C11.4958 51 11.4967 51 11.4976 51C11.498 51 11.4986 51 11.4988 51C11.4994 51 11.5 51 11.5 50C11.5 49 11.5005 49 11.501 49C11.5012 49 11.5017 49 11.502 49C11.5027 49 11.5033 49 11.5038 49C11.5049 49 11.5058 49 11.5065 49C11.5079 49 11.5085 49 11.5083 49C11.508 49 11.5047 49 11.4986 48.9997C11.4864 48.9993 11.4632 48.9981 11.4306 48.9955C11.3651 48.9902 11.2638 48.9788 11.1391 48.9551C10.8858 48.9069 10.5597 48.8121 10.243 48.6314C9.67518 48.3074 8.99488 47.637 8.99487 46H6.99487ZM6.99487 17V46H8.99487V17H6.99487ZM6.99487 9V17H8.99487V9H6.99487ZM10.9898 5C8.73879 5 6.99487 6.74931 6.99487 9H8.99487C8.99487 7.85069 9.84655 7 10.9898 7V5Z" fill="#333333" mask="url(#path-1-inside-1_912_5282)"/>
<rect x="11.5" y="9.5" width="49" height="35" fill="url(#paint1_linear_912_5282)" stroke="#333333"/>
<path d="M35 47C35 47.55 35.45 48 36 48C36.55 48 37 47.55 37 47C37 46.45 36.55 46 36 46C35.45 46 35 46.45 35 47Z" fill="white"/>
<path d="M3.75 20.5H20.25C21.0476 20.5 21.5912 20.7643 21.9404 21.1534C22.2969 21.5506 22.5 22.1332 22.5 22.85V55.15C22.5 56.5058 21.5155 57.5 20.25 57.5H3.75C2.48449 57.5 1.5 56.5058 1.5 55.15V22.85C1.5 21.4942 2.48449 20.5 3.75 20.5Z" fill="#9ADAF3" stroke="#333333"/>
<path d="M20.3875 55.4703V55.472C20.3875 55.4808 20.3868 55.4872 20.3861 55.4915C20.3859 55.4916 20.3857 55.4917 20.3855 55.4918C20.3766 55.495 20.3574 55.5 20.325 55.5H3.5625C3.53015 55.5 3.51086 55.495 3.502 55.4918C3.5018 55.4917 3.5016 55.4916 3.50141 55.4915C3.50068 55.4872 3.5 55.4808 3.5 55.472V22.528C3.5 22.5191 3.50068 22.5128 3.5014 22.5085C3.5016 22.5084 3.50179 22.5083 3.502 22.5082C3.51085 22.505 3.53014 22.5 3.5625 22.5H20.4067C20.4408 22.5 20.4631 22.5035 20.4761 22.5065C20.4833 22.5081 20.4881 22.5098 20.491 22.5109C20.4928 22.5145 20.4953 22.5206 20.4975 22.5294C20.4988 22.5345 20.4995 22.5387 20.5 22.5415L20.3875 55.4703Z" fill="#9ADAF3" stroke="#333333"/>
<path d="M11 53C11 53.55 11.45 54 12 54C12.55 54 13 53.55 13 53C13 52.45 12.55 52 12 52C11.45 52 11 52.45 11 53Z" fill="#333333"/>
<defs>
<linearGradient id="paint0_linear_912_5282" x1="7.99498" y1="3.96875" x2="59.7055" y2="61.8376" gradientUnits="userSpaceOnUse">
<stop stop-color="#FF8E3D"/>
<stop offset="1" stop-color="#FF6F3D"/>
</linearGradient>
<linearGradient id="paint1_linear_912_5282" x1="11.0001" y1="7.59375" x2="44.7315" y2="56.273" gradientUnits="userSpaceOnUse">
<stop stop-color="#FF8E3D"/>
<stop offset="1" stop-color="#FF6F3D"/>
</linearGradient>
</defs>
</svg>
