<svg width="64" height="64" viewBox="0 0 64 64" fill="none" xmlns="http://www.w3.org/2000/svg">
<path d="M61.1522 53.5C62.4488 53.5 63.5 52.4579 63.5 51.1724V17.6093C63.5 17.0316 63.2833 16.8182 62.8946 16.4353C62.868 16.4091 62.8405 16.3821 62.8123 16.3541L53.6224 7.18173C53.5736 7.13333 53.5282 7.08727 53.4851 7.04364C53.1401 6.69385 52.9488 6.5 52.3952 6.5H30.8478C29.5512 6.5 28.5 7.5421 28.5 8.82759V29.5" stroke="#333333" stroke-linecap="round" stroke-linejoin="round"/>
<path d="M33 12C33 11.4477 33.4477 11 34 11H47C47.5523 11 48 11.4477 48 12C48 12.5523 47.5523 13 47 13H34C33.4477 13 33 12.5523 33 12Z" fill="#333333"/>
<path d="M33.5 24C33.5 23.7239 33.7239 23.5 34 23.5H44C44.2761 23.5 44.5 23.7239 44.5 24V26C44.5 26.2761 44.2761 26.5 44 26.5H34C33.7239 26.5 33.5 26.2761 33.5 26V24Z" stroke="#333333"/>
<path d="M48.5 24C48.5 23.7239 48.7239 23.5 49 23.5H59C59.2761 23.5 59.5 23.7239 59.5 24V26C59.5 26.2761 59.2761 26.5 59 26.5H49C48.7239 26.5 48.5 26.2761 48.5 26V24Z" stroke="#333333"/>
<path d="M33 29.5C33 29.2239 33.2239 29 33.5 29H43.5C43.7761 29 44 29.2239 44 29.5C44 29.7761 43.7761 30 43.5 30H33.5C33.2239 30 33 29.7761 33 29.5Z" fill="#333333"/>
<path d="M33 15.5C33 15.2239 33.2239 15 33.5 15H44.5C44.7761 15 45 15.2239 45 15.5C45 15.7761 44.7761 16 44.5 16H33.5C33.2239 16 33 15.7761 33 15.5Z" fill="#333333"/>
<path d="M33 19.5C33 19.2239 33.2239 19 33.5 19H40.5C40.7761 19 41 19.2239 41 19.5C41 19.7761 40.7761 20 40.5 20H33.5C33.2239 20 33 19.7761 33 19.5Z" fill="#333333"/>
<path d="M48 29.5C48 29.2239 48.2239 29 48.5 29H58.5C58.7761 29 59 29.2239 59 29.5C59 29.7761 58.7761 30 58.5 30H48.5C48.2239 30 48 29.7761 48 29.5Z" fill="#333333"/>
<path d="M48 32.5C48 32.2239 48.2239 32 48.5 32H56.5C56.7761 32 57 32.2239 57 32.5C57 32.7761 56.7761 33 56.5 33H48.5C48.2239 33 48 32.7761 48 32.5Z" fill="#333333"/>
<path d="M26 6.47565H24.3111C23.3335 6.47565 22.6015 6.86417 22.1341 7.46338C21.6833 8.0412 21.5 8.78308 21.5 9.50003V28" stroke="#333333" stroke-linecap="round" stroke-linejoin="round"/>
<path d="M19 6.47565H17.3111C16.3335 6.47565 15.6015 6.86417 15.1341 7.46338C14.6833 8.0412 14.5 8.78308 14.5 9.50003V29.0618" stroke="#333333" stroke-linecap="round" stroke-linejoin="round"/>
<path d="M12 6.47565H10.3111C9.33348 6.47565 8.60154 6.86417 8.13405 7.46338C7.68325 8.0412 7.5 8.78308 7.5 9.50003V33.0618" stroke="#333333" stroke-linecap="round" stroke-linejoin="round"/>
<path d="M53.3536 6.64645C53.2106 6.50345 52.9955 6.46067 52.8087 6.53806C52.6218 6.61545 52.5 6.79777 52.5 7V15.182C52.5 15.8578 52.6636 16.4574 53.0734 16.8877C53.4874 17.3225 54.072 17.5001 54.7316 17.5001H63C63.2022 17.5001 63.3845 17.3783 63.4619 17.1915C63.5393 17.0046 63.4966 16.7896 63.3536 16.6466L53.3536 6.64645Z" fill="url(#paint0_linear_912_5330)" stroke="#333333" stroke-linecap="round" stroke-linejoin="round"/>
<path d="M23.1781 58.5H47.5507C52.4774 58.5 56.5 54.6333 56.5 49.8286C56.5 45.0736 52.5602 41.2372 47.7033 41.1584C46.006 37.7047 42.4061 35.5 38.4511 35.5C34.4911 35.5 30.887 37.7103 29.1924 41.1715C26.2916 41.3447 23.7069 43.0356 22.4622 45.594C19.0234 45.9499 16.3934 48.8188 16.5033 52.2306C16.6164 55.7406 19.5868 58.5019 23.1781 58.5ZM23.1781 58.5L23.1779 58M23.1781 58.5L23.1779 58M23.1781 58.5H23.1779V58M23.1781 58.5L23.1779 58" fill="#BDECFF" stroke="#333333"/>
<path d="M38.0298 58.5H10.5325C5.00415 58.5 0.5 54.1311 0.5 48.7143C0.5 43.341 4.93216 38.9988 10.3996 38.9294C12.2952 35.0086 16.3447 32.5 20.7988 32.5C25.2579 32.5 29.3115 35.0142 31.2043 38.9427C34.4837 39.1267 37.4045 41.0533 38.7964 43.9666C42.6645 44.3519 45.6193 47.594 45.4963 51.4415C45.3701 55.3882 42.0523 58.5021 38.0298 58.5ZM38.0298 58.5L38.0301 58M38.0298 58.5L38.0301 58M38.0298 58.5H38.0301V58M38.0298 58.5L38.0301 58" fill="url(#paint1_linear_912_5330)" stroke="#333333"/>
<defs>
<linearGradient id="paint0_linear_912_5330" x1="58" y1="7" x2="58" y2="17.0001" gradientUnits="userSpaceOnUse">
<stop stop-color="#FF8E3D"/>
<stop offset="1" stop-color="#FF6F3D"/>
</linearGradient>
<linearGradient id="paint1_linear_912_5330" x1="1.00008" y1="32.0234" x2="22.0631" y2="70.5424" gradientUnits="userSpaceOnUse">
<stop stop-color="#FFC671"/>
<stop offset="0.59375" stop-color="#FF7541"/>
<stop offset="1" stop-color="#FF6F3D"/>
</linearGradient>
</defs>
</svg>
