<svg width="536" height="410" viewBox="0 0 536 410" fill="none" xmlns="http://www.w3.org/2000/svg">
<path d="M391.5 31.5V31C391.367 31 391.24 31.053 391.146 31.1472C391.052 31.2414 390.999 31.3691 391 31.502L391.5 31.5ZM493.5 31.5H494C494 31.2239 493.776 31 493.5 31V31.5ZM493.5 166.5V167C493.776 167 494 166.776 494 166.5H493.5ZM391.028 38.5555C391.029 38.8316 391.254 39.0546 391.53 39.0535C391.806 39.0524 392.029 38.8276 392.028 38.5515L391.028 38.5555ZM391.5 166.5H391C391 166.776 391.224 167 391.5 167V166.5ZM391.5 32H493.5V31H391.5V32ZM493 31.5V166.5H494V31.5H493ZM392.028 38.5515L392 31.498L391 31.502L391.028 38.5555L392.028 38.5515ZM392 166.5V156.5H391V166.5H392ZM493.5 166H391.5V167H493.5V166Z" fill="#8BB825"/>
<path d="M413.5 15.5H511.5V183.5L375.5 183.55V165.5" stroke="#333333" stroke-linecap="round"/>
<path d="M358.5 301.5L358.5 182.5" stroke="#333333" stroke-linecap="round"/>
<circle cx="157.5" cy="238.5" r="2" stroke="#333333"/>
<path d="M91 250.5L131 250.5" stroke="#333333" stroke-linecap="round"/>
<path d="M57.5716 154.5L143 154.5" stroke="#333333" stroke-linecap="round"/>
<path d="M186.121 154.5L236 154.5" stroke="#333333" stroke-linecap="round"/>
<path d="M148.928 152.284L151.118 154.475L148.928 156.665" stroke="#333333" stroke-linecap="round"/>
<path d="M241.231 152.284L243.421 154.475L241.231 156.665" stroke="#333333" stroke-linecap="round"/>
<path d="M179.792 154.5L157 154.5" stroke="#333333" stroke-linecap="round"/>
<path d="M266.221 154.55L250 154.55" stroke="#333333" stroke-linecap="round"/>
<path d="M306.84 154.5L272 154.5" stroke="#333333" stroke-linecap="round"/>
<path d="M376 165.5L341 165.5" stroke="#333333"/>
<path fill-rule="evenodd" clip-rule="evenodd" d="M218.755 304.5C218.755 304.776 218.531 305 218.255 305L186 305C185.724 305 185.5 304.776 185.5 304.5C185.5 304.224 185.724 304 186 304L218.255 304C218.531 304 218.755 304.224 218.755 304.5ZM326 305L256.41 305V304L326 304V305ZM250.869 305C251.146 305 251.369 304.776 251.369 304.5C251.369 304.224 251.146 304 250.869 304L223.96 304C223.684 304 223.46 304.224 223.46 304.5C223.46 304.776 223.684 305 223.96 305L250.869 305Z" fill="#333333"/>
<path fill-rule="evenodd" clip-rule="evenodd" d="M75 171.5C75 171.224 74.7761 171 74.5 171C74.2239 171 74 171.224 74 171.5L74.0005 262.478C74.0002 262.485 74 262.493 74 262.5C74 262.776 74.2239 263 74.5 263H74.5005H113C113.276 263 113.5 262.776 113.5 262.5C113.5 262.224 113.276 262 113 262H75.0005L75 171.5Z" fill="#333333"/>
<path d="M390.5 329.034V216" stroke="#333333" stroke-linecap="round"/>
<path d="M505.871 229.182L479.264 216.501H390" stroke="#333333"/>
<path fill-rule="evenodd" clip-rule="evenodd" d="M325 31V304H326V32.0001L348.5 32.0001L374.5 32.0001C374.776 32.0001 375 31.7762 375 31.5001C375 31.224 374.776 31.0001 374.5 31.0001L348.5 31.0001L326 31.0001V31H325Z" fill="#333333"/>
<path d="M374.837 145.486L472.5 145.486L472.5 48.5007L342.5 48.5007L342.5 145.501L374.837 145.501" stroke="#FF6F3D"/>
<line x1="453.5" y1="86.4944" x2="414.5" y2="86.4944" stroke="#333333" stroke-linecap="round"/>
<line x1="399.5" y1="86.5193" x2="360.5" y2="86.5193" stroke="#333333" stroke-linecap="round"/>
<line x1="453.5" y1="104.492" x2="414.5" y2="104.492" stroke="#333333" stroke-linecap="round"/>
<line x1="399.5" y1="104.517" x2="360.5" y2="104.517" stroke="#333333" stroke-linecap="round"/>
<line x1="453.5" y1="95.4929" x2="414.5" y2="95.4929" stroke="#333333" stroke-linecap="round"/>
<line x1="399.5" y1="95.5178" x2="360.5" y2="95.5178" stroke="#333333" stroke-linecap="round"/>
<line x1="427" y1="74.4961" x2="388" y2="74.4961" stroke="#333333" stroke-linecap="round"/>
<line x1="453.5" y1="113.49" x2="414.5" y2="113.49" stroke="#333333" stroke-linecap="round"/>
<line x1="399.5" y1="113.515" x2="360.5" y2="113.515" stroke="#333333" stroke-linecap="round"/>
<path d="M275 119.5L201.438 119.5M86 119.5L119.612 119.5M130.254 119.5L180.5 119.5L190.796 119.5" stroke="#333333" stroke-linecap="round" stroke-linejoin="round"/>
<path d="M44.5473 121.249H45.7583C46.1489 121.249 46.3442 121.028 46.3442 120.585V117.421C46.3442 116.978 46.1489 116.757 45.7583 116.757H44.5473C44.1567 116.757 43.9614 116.978 43.9614 117.421V120.585C43.9614 121.028 44.1567 121.249 44.5473 121.249ZM44.5473 121.952C43.6359 121.952 43.1801 121.496 43.1801 120.585V117.421C43.1801 116.509 43.6359 116.054 44.5473 116.054H45.7583C46.6697 116.054 47.1255 116.509 47.1255 117.421V120.585C47.1255 121.496 46.6697 121.952 45.7583 121.952H44.5473ZM49.5779 122.108V116.983L48.6248 117.507V116.706L50.3201 115.897H50.3592V121.757L49.617 122.108H49.5779ZM54.1242 121.249H55.3351C55.7258 121.249 55.9211 121.028 55.9211 120.585V117.421C55.9211 116.978 55.7258 116.757 55.3351 116.757H54.1242C53.7336 116.757 53.5383 116.978 53.5383 117.421V120.585C53.5383 121.028 53.7336 121.249 54.1242 121.249ZM54.1242 121.952C53.2127 121.952 52.757 121.496 52.757 120.585V117.421C52.757 116.509 53.2127 116.054 54.1242 116.054H55.3351C56.2466 116.054 56.7023 116.509 56.7023 117.421V120.585C56.7023 121.496 56.2466 121.952 55.3351 121.952H54.1242ZM60.272 121.249H61.483C61.8736 121.249 62.0689 121.028 62.0689 120.585V117.421C62.0689 116.978 61.8736 116.757 61.483 116.757H60.272C59.8814 116.757 59.6861 116.978 59.6861 117.421V120.585C59.6861 121.028 59.8814 121.249 60.272 121.249ZM60.272 121.952C59.3606 121.952 58.9048 121.496 58.9048 120.585V117.421C58.9048 116.509 59.3606 116.054 60.272 116.054H61.483C62.3944 116.054 62.8501 116.509 62.8501 117.421V120.585C62.8501 121.496 62.3944 121.952 61.483 121.952H60.272ZM65.3026 122.108V116.983L64.3495 117.507V116.706L66.0448 115.897H66.0839V121.757L65.3417 122.108H65.3026ZM68.7317 122.108V116.983L67.7786 117.507V116.706L69.4739 115.897H69.513V121.757L68.7708 122.108H68.7317ZM73.278 121.249H74.4889C74.8795 121.249 75.0748 121.028 75.0748 120.585V117.421C75.0748 116.978 74.8795 116.757 74.4889 116.757H73.278C72.8873 116.757 72.692 116.978 72.692 117.421V120.585C72.692 121.028 72.8873 121.249 73.278 121.249ZM73.278 121.952C72.3665 121.952 71.9108 121.496 71.9108 120.585V117.421C71.9108 116.509 72.3665 116.054 73.278 116.054H74.4889C75.4003 116.054 75.8561 116.509 75.8561 117.421V120.585C75.8561 121.496 75.4003 121.952 74.4889 121.952H73.278Z" fill="#333333"/>
<path d="M91 172.5L195 172.5" stroke="#333333" stroke-linecap="round"/>
<path d="M208.864 174.621H209.924C210.266 174.621 210.436 174.427 210.436 174.04V171.271C210.436 170.884 210.266 170.69 209.924 170.69H208.864C208.522 170.69 208.352 170.884 208.352 171.271V174.04C208.352 174.427 208.522 174.621 208.864 174.621ZM208.864 175.236C208.067 175.236 207.668 174.838 207.668 174.04V171.271C207.668 170.474 208.067 170.075 208.864 170.075H209.924C210.721 170.075 211.12 170.474 211.12 171.271V174.04C211.12 174.838 210.721 175.236 209.924 175.236H208.864ZM214.244 174.621H215.303C215.645 174.621 215.816 174.427 215.816 174.04V171.271C215.816 170.884 215.645 170.69 215.303 170.69H214.244C213.902 170.69 213.731 170.884 213.731 171.271V174.04C213.731 174.427 213.902 174.621 214.244 174.621ZM214.244 175.236C213.446 175.236 213.047 174.838 213.047 174.04V171.271C213.047 170.474 213.446 170.075 214.244 170.075H215.303C216.101 170.075 216.499 170.474 216.499 171.271V174.04C216.499 174.838 216.101 175.236 215.303 175.236H214.244ZM219.623 174.621H220.682C221.024 174.621 221.195 174.427 221.195 174.04V171.271C221.195 170.884 221.024 170.69 220.682 170.69H219.623C219.281 170.69 219.11 170.884 219.11 171.271V174.04C219.11 174.427 219.281 174.621 219.623 174.621ZM219.623 175.236C218.825 175.236 218.427 174.838 218.427 174.04V171.271C218.427 170.474 218.825 170.075 219.623 170.075H220.682C221.48 170.075 221.879 170.474 221.879 171.271V174.04C221.879 174.838 221.48 175.236 220.682 175.236H219.623ZM224.025 175.373V170.889L223.191 171.347V170.646L224.674 169.938H224.708V175.065L224.059 175.373H224.025ZM227.025 175.373V170.889L226.191 171.347V170.646L227.675 169.938H227.709V175.065L227.059 175.373H227.025ZM231.003 174.621H232.063C232.404 174.621 232.575 174.427 232.575 174.04V171.271C232.575 170.884 232.404 170.69 232.063 170.69H231.003C230.661 170.69 230.49 170.884 230.49 171.271V174.04C230.49 174.427 230.661 174.621 231.003 174.621ZM231.003 175.236C230.206 175.236 229.807 174.838 229.807 174.04V171.271C229.807 170.474 230.206 170.075 231.003 170.075H232.063C232.86 170.075 233.259 170.474 233.259 171.271V174.04C233.259 174.838 232.86 175.236 232.063 175.236H231.003ZM236.382 174.621H237.442C237.784 174.621 237.955 174.427 237.955 174.04V171.271C237.955 170.884 237.784 170.69 237.442 170.69H236.382C236.041 170.69 235.87 170.884 235.87 171.271V174.04C235.87 174.427 236.041 174.621 236.382 174.621ZM236.382 175.236C235.585 175.236 235.186 174.838 235.186 174.04V171.271C235.186 170.474 235.585 170.075 236.382 170.075H237.442C238.239 170.075 238.638 170.474 238.638 171.271V174.04C238.638 174.838 238.239 175.236 237.442 175.236H236.382ZM240.784 175.373V170.889L239.95 171.347V170.646L241.434 169.938H241.468V175.065L240.818 175.373H240.784ZM243.785 175.373V170.889L242.951 171.347V170.646L244.434 169.938H244.468V175.065L243.819 175.373H243.785ZM247.763 174.621H248.822C249.164 174.621 249.335 174.427 249.335 174.04V171.271C249.335 170.884 249.164 170.69 248.822 170.69H247.763C247.421 170.69 247.25 170.884 247.25 171.271V174.04C247.25 174.427 247.421 174.621 247.763 174.621ZM247.763 175.236C246.965 175.236 246.566 174.838 246.566 174.04V171.271C246.566 170.474 246.965 170.075 247.763 170.075H248.822C249.62 170.075 250.018 170.474 250.018 171.271V174.04C250.018 174.838 249.62 175.236 248.822 175.236H247.763Z" fill="#FF6F3D"/>
<path d="M42.4067 260.407L42.4067 259.347C42.4067 259.006 42.2131 258.835 41.8257 258.835L39.0571 258.835C38.6698 258.835 38.4761 259.006 38.4761 259.347L38.4761 260.407C38.4761 260.749 38.6698 260.92 39.0571 260.92L41.8257 260.92C42.2131 260.92 42.4067 260.749 42.4067 260.407ZM43.022 260.407C43.022 261.204 42.6232 261.603 41.8257 261.603L39.0571 261.603C38.2596 261.603 37.8608 261.204 37.8608 260.407L37.8608 259.347C37.8608 258.55 38.2596 258.151 39.0571 258.151L41.8257 258.151C42.6232 258.151 43.022 258.55 43.022 259.347L43.022 260.407ZM42.4067 255.028L42.4067 253.968C42.4067 253.626 42.2131 253.455 41.8257 253.455L39.0571 253.455C38.6698 253.455 38.4761 253.626 38.4761 253.968L38.4761 255.028C38.4761 255.369 38.6698 255.54 39.0571 255.54L41.8257 255.54C42.2131 255.54 42.4067 255.369 42.4067 255.028ZM43.022 255.028C43.022 255.825 42.6232 256.224 41.8257 256.224L39.0571 256.224C38.2596 256.224 37.8608 255.825 37.8608 255.028L37.8608 253.968C37.8608 253.171 38.2596 252.772 39.0571 252.772L41.8257 252.772C42.6232 252.772 43.022 253.171 43.022 253.968L43.022 255.028ZM42.4067 249.648L42.4067 248.589C42.4067 248.247 42.2131 248.076 41.8257 248.076L39.0571 248.076C38.6698 248.076 38.4761 248.247 38.4761 248.589L38.4761 249.648C38.4761 249.99 38.6698 250.161 39.0571 250.161L41.8257 250.161C42.2131 250.161 42.4067 249.99 42.4067 249.648ZM43.022 249.648C43.022 250.446 42.6232 250.845 41.8257 250.845L39.0571 250.845C38.2596 250.845 37.8608 250.446 37.8608 249.648L37.8608 248.589C37.8608 247.791 38.2596 247.392 39.0571 247.392L41.8257 247.392C42.6232 247.392 43.022 247.791 43.022 248.589L43.022 249.648ZM43.1587 245.246L38.6743 245.246L39.1323 246.08L38.4316 246.08L37.7241 244.597L37.7241 244.563L42.8511 244.563L43.1587 245.212L43.1587 245.246ZM43.1587 242.246L38.6743 242.246L39.1323 243.08L38.4316 243.08L37.7241 241.597L37.7241 241.562L42.8511 241.562L43.1587 242.212L43.1587 242.246ZM42.4067 238.268L42.4067 237.209C42.4067 236.867 42.2131 236.696 41.8257 236.696L39.0571 236.696C38.6698 236.696 38.4761 236.867 38.4761 237.209L38.4761 238.268C38.4761 238.61 38.6698 238.781 39.0571 238.781L41.8257 238.781C42.2131 238.781 42.4067 238.61 42.4067 238.268ZM43.022 238.268C43.022 239.066 42.6232 239.464 41.8257 239.464L39.0571 239.464C38.2596 239.464 37.8608 239.066 37.8608 238.268L37.8608 237.209C37.8608 236.411 38.2596 236.012 39.0571 236.012L41.8257 236.012C42.6232 236.012 43.022 236.411 43.022 237.209L43.022 238.268ZM42.4067 232.889L42.4067 231.829C42.4067 231.487 42.2131 231.316 41.8257 231.316L39.0571 231.316C38.6698 231.316 38.4761 231.487 38.4761 231.829L38.4761 232.889C38.4761 233.231 38.6698 233.401 39.0571 233.401L41.8257 233.401C42.2131 233.401 42.4067 233.231 42.4067 232.889ZM43.022 232.889C43.022 233.686 42.6232 234.085 41.8257 234.085L39.0571 234.085C38.2596 234.085 37.8608 233.686 37.8608 232.889L37.8608 231.829C37.8608 231.032 38.2596 230.633 39.0571 230.633L41.8257 230.633C42.6232 230.633 43.022 231.032 43.022 231.829L43.022 232.889ZM43.1587 228.487L38.6743 228.487L39.1323 229.321L38.4316 229.321L37.7241 227.838L37.7241 227.803L42.8511 227.803L43.1587 228.453L43.1587 228.487ZM43.1587 225.487L38.6743 225.487L39.1323 226.321L38.4316 226.321L37.7241 224.837L37.7241 224.803L42.8511 224.803L43.1587 225.452L43.1587 225.487ZM42.4067 221.509L42.4067 220.449C42.4067 220.107 42.2131 219.936 41.8257 219.936L39.0571 219.936C38.6698 219.936 38.4761 220.107 38.4761 220.449L38.4761 221.509C38.4761 221.85 38.6698 222.021 39.0571 222.021L41.8257 222.021C42.2131 222.021 42.4067 221.85 42.4067 221.509ZM43.022 221.509C43.022 222.306 42.6232 222.705 41.8257 222.705L39.0571 222.705C38.2596 222.705 37.8608 222.306 37.8608 221.509L37.8608 220.449C37.8608 219.651 38.2596 219.253 39.0571 219.253L41.8257 219.253C42.6232 219.253 43.022 219.651 43.022 220.449L43.022 221.509Z" fill="#333333"/>
<path d="M225.959 230.449L252.698 243.762C254.53 244.601 256.517 244.601 258.266 243.762L281.436 231.981" stroke="#333333" stroke-linecap="round"/>
<path d="M281.5 198.34L261.263 188.59C259.773 187.872 258.141 187.5 256.488 187.5L180.868 187.5C179.863 187.5 178.869 187.717 177.954 188.135L158.084 197.233C157.728 197.396 157.5 197.751 157.5 198.142V234.5" stroke="#333333" stroke-linecap="round"/>
<path d="M214.018 197.5H191.437C190.489 197.5 189.551 197.693 188.679 198.066L169 206.5" stroke="#FF6F3D" stroke-linecap="round"/>
<path d="M188.294 213.148L171.522 220.941" stroke="#333333" stroke-linecap="round"/>
<path fill-rule="evenodd" clip-rule="evenodd" d="M282.872 274L246 274C245.724 274 245.5 274.224 245.5 274.5C245.5 274.777 245.724 275 246 275L283 275C283.094 275 283.181 274.975 283.256 274.93L294.239 268.939C294.482 268.807 294.571 268.503 294.439 268.261C294.307 268.018 294.003 267.929 293.761 268.061L282.872 274Z" fill="#333333"/>
<path fill-rule="evenodd" clip-rule="evenodd" d="M216.505 262.433C216.37 262.674 216.066 262.761 215.825 262.626L207.642 258.059L199.459 253.491C199.218 253.357 199.132 253.052 199.266 252.811C199.401 252.57 199.705 252.484 199.946 252.618L208.129 257.186L216.312 261.753C216.553 261.888 216.64 262.192 216.505 262.433Z" fill="#333333"/>
<path fill-rule="evenodd" clip-rule="evenodd" d="M183 227.496C183 227.22 182.776 226.996 182.5 226.996C182.224 226.996 182 227.22 182 227.496V253.5C182 253.573 182.016 253.643 182.044 253.705C182.084 253.812 182.16 253.906 182.267 253.967L200.754 264.435C200.994 264.571 201.299 264.487 201.435 264.246C201.571 264.006 201.487 263.701 201.246 263.565L183 253.233V227.496Z" fill="#333333"/>
<path d="M171.5 241.5L171.5 220.952" stroke="#333333" stroke-linecap="round"/>
<path fill-rule="evenodd" clip-rule="evenodd" d="M309 179.604L296.843 173.868C296.593 173.75 296.486 173.452 296.604 173.202C296.722 172.953 297.02 172.846 297.27 172.963L309.68 178.82C309.744 178.85 309.799 178.891 309.842 178.941C309.939 179.032 310 179.162 310 179.306V200.276V289.5C310 289.758 309.805 289.97 309.555 289.997C309.536 289.999 309.517 290 309.497 290H197C196.724 290 196.5 289.776 196.5 289.5C196.5 289.224 196.724 289 197 289H309V200.276V179.604Z" fill="#333333"/>
<path fill-rule="evenodd" clip-rule="evenodd" d="M259.92 172.568C259.669 172.453 259.372 172.563 259.257 172.814C259.142 173.065 259.253 173.362 259.504 173.477L295 189.736V205.457C295 205.733 295.224 205.957 295.5 205.957C295.776 205.957 296 205.733 296 205.457V189.457C296 189.451 296 189.445 296 189.438C296.009 189.241 295.899 189.048 295.708 188.961L259.92 172.568Z" fill="#333333"/>
<path d="M205.381 275.051H206.441C206.783 275.051 206.954 274.857 206.954 274.47V271.701C206.954 271.314 206.783 271.12 206.441 271.12H205.381C205.04 271.12 204.869 271.314 204.869 271.701V274.47C204.869 274.857 205.04 275.051 205.381 275.051ZM205.381 275.666C204.584 275.666 204.185 275.267 204.185 274.47V271.701C204.185 270.904 204.584 270.505 205.381 270.505H206.441C207.239 270.505 207.637 270.904 207.637 271.701V274.47C207.637 275.267 207.239 275.666 206.441 275.666H205.381ZM210.761 275.051H211.82C212.162 275.051 212.333 274.857 212.333 274.47V271.701C212.333 271.314 212.162 271.12 211.82 271.12H210.761C210.419 271.12 210.248 271.314 210.248 271.701V274.47C210.248 274.857 210.419 275.051 210.761 275.051ZM210.761 275.666C209.963 275.666 209.564 275.267 209.564 274.47V271.701C209.564 270.904 209.963 270.505 210.761 270.505H211.82C212.618 270.505 213.017 270.904 213.017 271.701V274.47C213.017 275.267 212.618 275.666 211.82 275.666H210.761ZM215.163 275.803V271.318L214.329 271.776V271.076L215.812 270.368H215.846V275.495L215.197 275.803H215.163ZM218.163 275.803V271.318L217.329 271.776V271.076L218.812 270.368H218.847V275.495L218.197 275.803H218.163ZM222.141 275.051H223.201C223.542 275.051 223.713 274.857 223.713 274.47V271.701C223.713 271.314 223.542 271.12 223.201 271.12H222.141C221.799 271.12 221.628 271.314 221.628 271.701V274.47C221.628 274.857 221.799 275.051 222.141 275.051ZM222.141 275.666C221.343 275.666 220.945 275.267 220.945 274.47V271.701C220.945 270.904 221.343 270.505 222.141 270.505H223.201C223.998 270.505 224.397 270.904 224.397 271.701V274.47C224.397 275.267 223.998 275.666 223.201 275.666H222.141ZM226.543 275.803V271.318L225.709 271.776V271.076L227.192 270.368H227.226V275.495L226.577 275.803H226.543ZM230.521 275.051H231.58C231.922 275.051 232.093 274.857 232.093 274.47V271.701C232.093 271.314 231.922 271.12 231.58 271.12H230.521C230.179 271.12 230.008 271.314 230.008 271.701V274.47C230.008 274.857 230.179 275.051 230.521 275.051ZM230.521 275.666C229.723 275.666 229.324 275.267 229.324 274.47V271.701C229.324 270.904 229.723 270.505 230.521 270.505H231.58C232.378 270.505 232.777 270.904 232.777 271.701V274.47C232.777 275.267 232.378 275.666 231.58 275.666H230.521ZM234.923 275.803V271.318L234.089 271.776V271.076L235.572 270.368H235.606V275.495L234.957 275.803H234.923ZM237.923 275.803V271.318L237.089 271.776V271.076L238.572 270.368H238.607V275.495L237.957 275.803H237.923Z" fill="#333333"/>
<path d="M278 264L293 256" stroke="#FF6F3D" stroke-linecap="round"/>
<path d="M204.55 238.665L204.185 239.095L204.657 239.406L204.932 238.988L204.657 239.406L204.657 239.406L204.658 239.406L204.661 239.408L204.672 239.415L204.716 239.445L204.89 239.559L205.546 239.991C206.111 240.363 206.914 240.893 207.871 241.525C209.783 242.789 212.307 244.461 214.753 246.091L215.134 246.345L215.421 245.987C216.142 245.085 216.962 244.417 217.829 244.139C218.669 243.87 219.609 243.948 220.649 244.64C221.691 245.377 221.805 246.915 220.881 247.839L221.582 248.552C221.649 248.487 221.717 248.422 221.785 248.356C222.657 247.513 223.567 246.633 224.555 246.12C225.076 245.85 225.595 245.696 226.119 245.699C226.636 245.702 227.192 245.858 227.794 246.264C228.347 246.652 228.772 247.119 228.968 247.607C229.154 248.071 229.151 248.588 228.788 249.168L229.57 249.782C230.748 248.573 232.844 248.393 234.161 249.373L234.161 249.373L234.165 249.376C234.937 249.938 235.308 250.471 235.453 250.953C235.597 251.431 235.541 251.928 235.323 252.459C234.893 253.507 233.906 254.543 232.942 255.554C232.89 255.609 232.837 255.664 232.785 255.718L233.442 256.467C234.453 255.732 235.992 255.683 236.974 256.367L236.974 256.367L236.983 256.373C238.421 257.332 238.685 259.065 237.636 260.114L237.146 260.605L237.766 260.915C238.183 261.123 238.599 261.348 239.022 261.577C240.706 262.488 242.496 263.456 244.841 263.652C245.708 263.725 246.602 263.468 247.284 262.88C247.8 262.435 248.177 261.815 248.334 261.044C250.472 262.233 252.472 262.572 254.03 262.054C255.559 261.546 256.533 260.26 256.775 258.452C258.041 259.195 259.594 259.457 260.978 259.108C262.697 258.675 264.107 257.312 264.383 254.915C264.429 254.521 264.493 254.17 264.55 253.902C264.713 253.942 264.884 253.97 265.056 253.991C265.486 254.044 265.979 254.054 266.476 254.02C266.972 253.986 267.484 253.906 267.949 253.773C268.407 253.641 268.854 253.448 269.191 253.164C269.856 252.604 270.157 251.803 270.212 250.995C270.266 250.189 270.08 249.341 269.733 248.613L269.722 248.589L269.708 248.567C267.945 245.69 265.612 242.011 264.345 240.514L257.713 212.511C258.236 211.361 258.279 209.946 257.974 208.656C257.653 207.302 256.927 206.001 255.843 205.238L255.744 205.168L255.624 205.152C249.957 204.359 243.399 203.452 237.26 203.452H237.245L237.229 203.453C236.099 203.522 234.443 204.14 232.591 205.006C230.716 205.884 228.566 207.054 226.417 208.295C223.254 210.12 220.069 212.113 217.751 213.563C216.922 214.081 216.204 214.531 215.637 214.878L215.398 215.025V215.305C215.398 220.535 212.719 226.357 209.986 230.919C208.626 233.19 207.265 235.129 206.244 236.5C205.734 237.185 205.309 237.728 205.012 238.099C204.864 238.284 204.748 238.426 204.669 238.522C204.63 238.57 204.6 238.606 204.58 238.63L204.557 238.656L204.552 238.663L204.55 238.664L204.55 238.665Z" stroke="#333333"/>
<path fill-rule="evenodd" clip-rule="evenodd" d="M204.932 238.988C204.932 238.988 210.138 242.413 215.03 245.675C216.539 243.787 218.611 242.68 220.932 244.228C222.244 245.149 222.369 247.058 221.235 248.192C223.06 246.434 225.367 244.023 228.078 245.852C229.28 246.694 230.108 248 229.212 249.433C230.559 248.05 232.935 247.838 234.459 248.972C237.78 251.387 235.113 253.998 233.148 256.063C234.318 255.212 236.09 255.141 237.26 255.957C238.895 257.047 239.315 259.143 237.99 260.468C240.142 261.544 242.075 262.919 244.883 263.154C246.371 263.278 247.916 262.269 247.916 260.214C252.575 263.165 256.334 261.798 256.334 257.534C258.828 259.618 263.38 259.247 263.887 254.858C263.993 253.936 263.887 253.144 263.887 253.144C263.887 253.144 264.453 253.56 265.916 253.56C268.955 253.56 269.933 252.236 269.72 250.067C269.614 248.365 264.705 242.368 261.833 239.07L257.186 212.454C258.249 210.362 257.469 206.994 255.555 205.647C249.882 204.853 243.358 203.952 237.26 203.952C233.165 204.205 220.226 212.651 215.898 215.305C215.898 226.051 204.932 238.988 204.932 238.988Z" fill="#FEFEFE"/>
<path d="M276.33 214.561L276.362 215.024C276.642 219.093 278.254 223.073 280.457 226.81C282.656 230.542 285.427 234.003 288.001 237.039L288.017 237.056L288.085 237.129C288.143 237.192 288.227 237.282 288.326 237.39C288.524 237.607 288.787 237.898 289.046 238.195C289.302 238.49 289.562 238.798 289.747 239.046C289.838 239.167 289.924 239.29 289.984 239.399C290.011 239.449 290.05 239.526 290.071 239.615C290.08 239.652 290.13 239.868 289.995 240.061C289.798 240.419 289.488 240.737 289.165 241.004C288.822 241.288 288.434 241.542 288.074 241.752C287.713 241.963 287.372 242.134 287.118 242.254C286.991 242.314 286.884 242.361 286.807 242.394C286.768 242.41 286.735 242.424 286.709 242.434C286.707 242.435 286.706 242.435 286.704 242.436C283.968 244.031 280.634 245.288 277.487 246.094C274.334 246.903 271.316 247.273 269.244 247.051C269.028 247.028 268.846 246.904 268.736 246.819C268.607 246.72 268.474 246.592 268.346 246.457C268.088 246.185 267.809 245.838 267.556 245.504C267.302 245.168 267.066 244.835 266.894 244.587C266.808 244.462 266.737 244.359 266.688 244.286C266.664 244.25 266.645 244.221 266.632 244.201L266.616 244.179L266.612 244.172L266.611 244.171L266.611 244.17L266.611 244.17C266.611 244.17 266.611 244.17 267.028 243.895L266.611 244.17L266.608 244.165L266.608 244.165C265.594 242.589 262.528 239.075 260.754 237.299C259.522 236.066 256.595 233.803 253.941 231.825C252.621 230.841 251.379 229.937 250.468 229.277C250.012 228.948 249.639 228.68 249.38 228.494C249.265 228.412 249.172 228.346 249.105 228.298C246.621 228.284 241.271 227.96 239.427 227.741C237.957 230.909 234.948 235.559 232.689 238.061L232.662 238.091L232.631 238.116L232.318 237.726C232.631 238.116 232.631 238.116 232.63 238.116L232.63 238.117L232.628 238.118L232.624 238.121L232.609 238.134C232.596 238.144 232.577 238.158 232.553 238.176C232.505 238.212 232.436 238.263 232.348 238.326C232.172 238.451 231.918 238.621 231.603 238.808C230.976 239.181 230.094 239.626 229.093 239.898C228.092 240.17 226.944 240.277 225.806 239.937C224.657 239.593 223.569 238.808 222.677 237.389L222.6 237.267V237.123C222.6 236.974 222.639 236.796 222.683 236.631C222.73 236.453 222.798 236.238 222.881 235.996C223.047 235.512 223.282 234.896 223.562 234.198C224.124 232.801 224.876 231.057 225.639 229.345C226.403 227.634 227.181 225.95 227.795 224.676C228.102 224.039 228.37 223.501 228.575 223.11C228.678 222.916 228.768 222.753 228.842 222.63C228.878 222.57 228.915 222.512 228.95 222.464L228.952 222.461C228.958 222.452 228.968 222.438 228.981 222.421C229.005 222.374 229.03 222.332 229.051 222.299C229.098 222.227 229.155 222.154 229.217 222.081C229.34 221.936 229.504 221.768 229.697 221.583C230.084 221.211 230.619 220.745 231.249 220.222C232.511 219.174 234.183 217.876 235.894 216.61C237.605 215.343 239.362 214.102 240.795 213.17C241.511 212.704 242.152 212.311 242.67 212.029C242.928 211.888 243.163 211.771 243.365 211.686C243.554 211.607 243.762 211.535 243.95 211.522L243.966 211.521H243.983C247.493 211.521 251.385 211.951 255.429 212.483L276.33 214.561ZM276.33 214.561L275.866 214.559M276.33 214.561L275.866 214.559M275.866 214.559C270.202 214.53 264.996 213.805 259.514 213.041M275.866 214.559L259.514 213.041M259.514 213.041C258.173 212.854 256.814 212.665 255.429 212.483L259.514 213.041Z" fill="#EFEFEF" stroke="#333333"/>
<path d="M298.686 228.843C300.707 231.147 301.583 235.561 299.81 236.448L293.854 239.497C291.833 240.525 291.19 240.268 289.382 238.601L287.232 236.145C282.623 230.31 278.011 223.917 276.815 218.455C276.567 217.533 276.375 215.636 276.304 214.572C276.269 214.431 276.269 214.324 276.269 214.218C276.269 213.012 276.907 212.587 278.431 211.913L295.4 205.573" stroke="#333333"/>
<path d="M197.906 241.03L197.626 241.444L197.65 241.461L197.676 241.475L197.906 241.03ZM203.111 240.181L203.461 240.538L203.461 240.538L203.111 240.181ZM214.77 219.896L214.288 219.763L214.288 219.766L214.77 219.896ZM213.329 213.447L213.114 213.899L213.126 213.904L213.329 213.447ZM207.656 210.752L207.87 210.301L207.85 210.291L207.829 210.283L207.656 210.752ZM191.174 235.869C190.945 235.714 190.634 235.774 190.479 236.002C190.325 236.231 190.384 236.542 190.613 236.697L191.174 235.869ZM197.676 241.475C198.747 242.028 199.665 242.381 200.612 242.258C201.564 242.135 202.432 241.548 203.461 240.538L202.76 239.824C201.768 240.799 201.098 241.187 200.484 241.267C199.866 241.347 199.192 241.132 198.135 240.586L197.676 241.475ZM203.461 240.538C205.346 238.685 207.772 235.472 209.982 231.782C212.192 228.089 214.209 223.881 215.253 220.027L214.288 219.766C213.276 223.5 211.307 227.621 209.124 231.268C206.939 234.917 204.563 238.053 202.76 239.824L203.461 240.538ZM215.252 220.029C215.399 219.5 215.582 218.706 215.729 217.915C215.874 217.133 215.991 216.315 215.991 215.751H214.991C214.991 216.216 214.89 216.956 214.746 217.733C214.603 218.5 214.426 219.265 214.288 219.763L215.252 220.029ZM215.991 215.751C215.991 215.041 215.795 214.494 215.331 214.042C214.907 213.628 214.283 213.322 213.531 212.989L213.126 213.904C213.899 214.245 214.356 214.488 214.633 214.758C214.869 214.988 214.991 215.257 214.991 215.751H215.991ZM213.543 212.995L207.87 210.301L207.441 211.204L213.114 213.898L213.543 212.995ZM207.829 210.283C206.027 209.618 204.881 209.049 203.801 208.611C202.739 208.182 201.815 207.915 200.643 207.969C199.492 208.021 198.141 208.38 196.209 209.117C194.274 209.855 191.716 210.989 188.142 212.62L188.558 213.53C192.135 211.897 194.665 210.776 196.566 210.051C198.47 209.325 199.701 209.013 200.689 208.968C201.656 208.924 202.427 209.134 203.426 209.538C204.406 209.935 205.684 210.557 207.483 211.221L207.829 210.283ZM190.613 236.697L197.626 241.444L198.186 240.616L191.174 235.869L190.613 236.697Z" fill="#333333"/>
<path d="M241.137 255.826L248.065 260.904" stroke="#333333" stroke-linecap="round"/>
<path d="M256.752 258.508L246.631 249.714" stroke="#333333" stroke-linecap="round"/>
<path d="M264.303 253.966L251.944 243.066" stroke="#333333" stroke-linecap="round"/>
<path fill-rule="evenodd" clip-rule="evenodd" d="M234.51 249.542L234.12 249.259C232.56 248.124 230.185 248.337 228.838 249.755L226.569 252.095C225.221 253.513 225.399 255.57 226.959 256.704L227.349 256.988C228.909 258.122 231.284 257.91 232.631 256.491L234.9 254.151C236.248 252.733 236.07 250.641 234.51 249.542Z" fill="#FEFEFE" stroke="#333333"/>
<path fill-rule="evenodd" clip-rule="evenodd" d="M228.096 246.235L227.742 245.987C226.324 245.029 224.125 245.242 222.849 246.448L220.934 248.362C219.658 249.568 219.8 251.34 221.218 252.298L221.573 252.546C222.991 253.503 225.189 253.29 226.465 252.049L228.415 250.17C229.656 248.965 229.514 247.192 228.096 246.235Z" fill="#FEFEFE" stroke="#333333"/>
<path fill-rule="evenodd" clip-rule="evenodd" d="M220.617 244.363L220.298 244.15C218.986 243.229 217.001 243.406 215.866 244.576L215.334 245.108C214.2 246.242 214.342 247.944 215.653 248.866L215.973 249.079C217.284 250 219.27 249.823 220.404 248.653L220.936 248.121C222.071 246.951 221.929 245.25 220.617 244.363Z" fill="#FEFEFE" stroke="#333333"/>
<path fill-rule="evenodd" clip-rule="evenodd" d="M237.126 256.68L236.807 256.468C235.495 255.546 233.474 255.759 232.304 256.893L231.772 257.425C230.638 258.595 230.744 260.261 232.091 261.183L232.41 261.396C233.722 262.318 235.743 262.105 236.913 260.97L237.445 260.439C238.579 259.304 238.438 257.602 237.126 256.68Z" fill="#FEFEFE" stroke="#333333"/>
<path fill-rule="evenodd" clip-rule="evenodd" d="M199.773 232.032C200.896 232.032 201.773 232.945 201.773 234.032C201.773 235.155 200.861 236.032 199.773 236.032C198.651 236.032 197.773 235.12 197.773 234.032C197.773 232.945 198.651 232.032 199.773 232.032Z" fill="#333333"/>
<path fill-rule="evenodd" clip-rule="evenodd" d="M292.66 230.36C293.795 230.36 294.681 231.282 294.681 232.381C294.681 233.515 293.759 234.402 292.66 234.402C291.526 234.402 290.639 233.48 290.639 232.381C290.639 231.282 291.526 230.36 292.66 230.36Z" fill="#333333"/>
<path d="M105 185.5L129 185.5" stroke="#FF6F3D" stroke-linecap="round"/>
<path fill-rule="evenodd" clip-rule="evenodd" d="M152.95 186.278C153.072 186.526 152.97 186.826 152.722 186.948L127.753 199.23C126.723 199.736 125.591 200 124.443 200H106.001V223H132C132.276 223 132.5 223.224 132.5 223.5C132.5 223.776 132.276 224 132 224H105.506C105.423 224 105.345 223.98 105.276 223.944C105.113 223.862 105.001 223.693 105.001 223.498V199.5C105.001 199.224 105.225 199 105.501 199H124.443C125.438 199 126.419 198.772 127.312 198.332L152.281 186.05C152.528 185.929 152.828 186.031 152.95 186.278Z" fill="#333333"/>
<path fill-rule="evenodd" clip-rule="evenodd" d="M145 211.518C145 211.512 145 211.506 145 211.5C145 211.224 144.776 211 144.5 211H115.5C115.224 211 115 211.224 115 211.5C115 211.776 115.224 212 115.5 212L144 212L144 237.495C144 237.771 144.224 237.995 144.5 237.995C144.776 237.995 145 237.771 145 237.495L145 211.518Z" fill="#333333"/>
<path fill-rule="evenodd" clip-rule="evenodd" d="M91.5 182.5C91.7761 182.5 92 182.724 92 183L92 237H128.5C128.776 237 129 237.224 129 237.5C129 237.776 128.776 238 128.5 238H91.5C91.2239 238 91 237.776 91 237.5V183C91 182.724 91.2239 182.5 91.5 182.5ZM134 237.5C134 238.328 133.328 239 132.5 239C131.672 239 131 238.328 131 237.5C131 236.672 131.672 236 132.5 236C133.328 236 134 236.672 134 237.5ZM135 237.5C135 238.881 133.881 240 132.5 240C131.119 240 130 238.881 130 237.5C130 236.119 131.119 235 132.5 235C133.881 235 135 236.119 135 237.5Z" fill="#333333"/>
<path d="M418.043 201.5L374.998 201.5" stroke="#333333"/>
<path d="M476.509 201.5H461.256" stroke="#333333"/>
<path d="M375.496 247.5L375.496 204.121L375.496 201.5" stroke="#333333"/>
<path d="M423.597 203.336H424.656C424.998 203.336 425.169 203.143 425.169 202.755V199.987C425.169 199.599 424.998 199.406 424.656 199.406H423.597C423.255 199.406 423.084 199.599 423.084 199.987V202.755C423.084 203.143 423.255 203.336 423.597 203.336ZM423.597 203.952C422.799 203.952 422.4 203.553 422.4 202.755V199.987C422.4 199.189 422.799 198.791 423.597 198.791H424.656C425.454 198.791 425.853 199.189 425.853 199.987V202.755C425.853 203.553 425.454 203.952 424.656 203.952H423.597ZM428.976 203.336H430.036C430.377 203.336 430.548 203.143 430.548 202.755V199.987C430.548 199.599 430.377 199.406 430.036 199.406H428.976C428.634 199.406 428.463 199.599 428.463 199.987V202.755C428.463 203.143 428.634 203.336 428.976 203.336ZM428.976 203.952C428.179 203.952 427.78 203.553 427.78 202.755V199.987C427.78 199.189 428.179 198.791 428.976 198.791H430.036C430.833 198.791 431.232 199.189 431.232 199.987V202.755C431.232 203.553 430.833 203.952 430.036 203.952H428.976ZM433.378 204.088V199.604L432.544 200.062V199.361L434.027 198.654H434.061V203.781L433.412 204.088H433.378ZM436.378 204.088V199.604L435.544 200.062V199.361L437.028 198.654H437.062V203.781L436.413 204.088H436.378ZM440.356 203.336H441.416C441.758 203.336 441.929 203.143 441.929 202.755V199.987C441.929 199.599 441.758 199.406 441.416 199.406H440.356C440.014 199.406 439.844 199.599 439.844 199.987V202.755C439.844 203.143 440.014 203.336 440.356 203.336ZM440.356 203.952C439.559 203.952 439.16 203.553 439.16 202.755V199.987C439.16 199.189 439.559 198.791 440.356 198.791H441.416C442.213 198.791 442.612 199.189 442.612 199.987V202.755C442.612 203.553 442.213 203.952 441.416 203.952H440.356ZM444.758 204.088V199.604L443.924 200.062V199.361L445.408 198.654H445.442V203.781L444.792 204.088H444.758ZM448.736 203.336H449.796C450.137 203.336 450.308 203.143 450.308 202.755V199.987C450.308 199.599 450.137 199.406 449.796 199.406H448.736C448.394 199.406 448.223 199.599 448.223 199.987V202.755C448.223 203.143 448.394 203.336 448.736 203.336ZM448.736 203.952C447.939 203.952 447.54 203.553 447.54 202.755V199.987C447.54 199.189 447.939 198.791 448.736 198.791H449.796C450.593 198.791 450.992 199.189 450.992 199.987V202.755C450.992 203.553 450.593 203.952 449.796 203.952H448.736ZM453.138 204.088V199.604L452.304 200.062V199.361L453.787 198.654H453.821V203.781L453.172 204.088H453.138ZM456.138 204.088V199.604L455.304 200.062V199.361L456.788 198.654H456.822V203.781L456.172 204.088H456.138Z" fill="#333333"/>
<path d="M57.5 240.5L57.5 252.497" stroke="#333333" stroke-linecap="round"/>
<path d="M57.4998 182.502L57.5 234.501" stroke="#333333" stroke-linecap="round"/>
<circle cx="57.5" cy="178.5" r="2" stroke="#333333"/>
<path d="M341.5 222V165.5" stroke="#333333"/>
<path d="M341.5 273.052L341.5 227.004" stroke="#333333" stroke-linecap="round"/>
<circle cx="341.5" cy="276.5" r="2" stroke="#333333"/>
<path d="M276.55 379.5L365.505 379.5" stroke="#333333" stroke-linecap="round"/>
<path d="M276.5 359L276.5 379.5" stroke="#333333" stroke-linecap="round"/>
<path d="M276.5 339L276.5 353" stroke="#333333" stroke-linecap="round"/>
<circle r="2" transform="matrix(1 0 0 -1 369.5 379.746)" stroke="#333333"/>
<path d="M317.529 361.297H318.74C319.131 361.297 319.326 361.076 319.326 360.633V357.469C319.326 357.026 319.131 356.805 318.74 356.805H317.529C317.139 356.805 316.943 357.026 316.943 357.469V360.633C316.943 361.076 317.139 361.297 317.529 361.297ZM317.529 362C316.618 362 316.162 361.544 316.162 360.633V357.469C316.162 356.557 316.618 356.102 317.529 356.102H318.74C319.652 356.102 320.107 356.557 320.107 357.469V360.633C320.107 361.544 319.652 362 318.74 362H317.529ZM322.56 362.156V357.031L321.607 357.555V356.754L323.302 355.945H323.341V361.805L322.599 362.156H322.56ZM327.106 361.297H328.317C328.708 361.297 328.903 361.076 328.903 360.633V357.469C328.903 357.026 328.708 356.805 328.317 356.805H327.106C326.715 356.805 326.52 357.026 326.52 357.469V360.633C326.52 361.076 326.715 361.297 327.106 361.297ZM327.106 362C326.195 362 325.739 361.544 325.739 360.633V357.469C325.739 356.557 326.195 356.102 327.106 356.102H328.317C329.228 356.102 329.684 356.557 329.684 357.469V360.633C329.684 361.544 329.228 362 328.317 362H327.106ZM333.254 361.297H334.465C334.855 361.297 335.051 361.076 335.051 360.633V357.469C335.051 357.026 334.855 356.805 334.465 356.805H333.254C332.863 356.805 332.668 357.026 332.668 357.469V360.633C332.668 361.076 332.863 361.297 333.254 361.297ZM333.254 362C332.342 362 331.887 361.544 331.887 360.633V357.469C331.887 356.557 332.342 356.102 333.254 356.102H334.465C335.376 356.102 335.832 356.557 335.832 357.469V360.633C335.832 361.544 335.376 362 334.465 362H333.254ZM338.285 362.156V357.031L337.331 357.555V356.754L339.027 355.945H339.066V361.805L338.324 362.156H338.285ZM341.714 362.156V357.031L340.76 357.555V356.754L342.456 355.945H342.495V361.805L341.753 362.156H341.714ZM346.26 361.297H347.471C347.861 361.297 348.057 361.076 348.057 360.633V357.469C348.057 357.026 347.861 356.805 347.471 356.805H346.26C345.869 356.805 345.674 357.026 345.674 357.469V360.633C345.674 361.076 345.869 361.297 346.26 361.297ZM346.26 362C345.348 362 344.893 361.544 344.893 360.633V357.469C344.893 356.557 345.348 356.102 346.26 356.102H347.471C348.382 356.102 348.838 356.557 348.838 357.469V360.633C348.838 361.544 348.382 362 347.471 362H346.26Z" fill="#333333"/>
<path d="M390.503 339.5L300.526 339.5" stroke="#333333" stroke-linecap="round"/>
<path d="M390.5 358.5L390.5 339.5" stroke="#333333" stroke-linecap="round"/>
<path d="M390.5 380L390.5 366" stroke="#333333" stroke-linecap="round"/>
<circle r="2" transform="matrix(-1 0 0 1 296.5 339.5)" stroke="#333333"/>
<path d="M374.5 321.5L333.857 321.5L257.5 321.5" stroke="#333333" stroke-linecap="round"/>
<path d="M257.5 386.582L257.5 321.344" stroke="#333333"/>
<path d="M374.5 321.5L374.5 295.5" stroke="#333333" stroke-linecap="round"/>
<path d="M376.385 287.6L376.385 286.54C376.385 286.198 376.191 286.028 375.804 286.028L373.035 286.028C372.648 286.028 372.454 286.198 372.454 286.54L372.454 287.6C372.454 287.942 372.648 288.113 373.035 288.113L375.804 288.113C376.191 288.113 376.385 287.942 376.385 287.6ZM377 287.6C377 288.397 376.601 288.796 375.804 288.796L373.035 288.796C372.238 288.796 371.839 288.397 371.839 287.6L371.839 286.54C371.839 285.743 372.238 285.344 373.035 285.344L375.804 285.344C376.601 285.344 377 285.743 377 286.54L377 287.6ZM376.385 282.221L376.385 281.161C376.385 280.819 376.191 280.648 375.804 280.648L373.035 280.648C372.648 280.648 372.454 280.819 372.454 281.161L372.454 282.221C372.454 282.562 372.648 282.733 373.035 282.733L375.804 282.733C376.191 282.733 376.385 282.562 376.385 282.221ZM377 282.221C377 283.018 376.601 283.417 375.804 283.417L373.035 283.417C372.238 283.417 371.839 283.018 371.839 282.221L371.839 281.161C371.839 280.363 372.238 279.965 373.035 279.965L375.804 279.965C376.601 279.965 377 280.363 377 281.161L377 282.221ZM377.137 277.819L372.652 277.819L373.11 278.653L372.41 278.653L371.702 277.169L371.702 277.135L376.829 277.135L377.137 277.785L377.137 277.819ZM377.137 274.818L372.652 274.818L373.11 275.652L372.41 275.652L371.702 274.169L371.702 274.135L376.829 274.135L377.137 274.784L377.137 274.818ZM376.385 270.84L376.385 269.781C376.385 269.439 376.191 269.268 375.804 269.268L373.035 269.268C372.648 269.268 372.454 269.439 372.454 269.781L372.454 270.84C372.454 271.182 372.648 271.353 373.035 271.353L375.804 271.353C376.191 271.353 376.385 271.182 376.385 270.84ZM377 270.84C377 271.638 376.601 272.037 375.804 272.037L373.035 272.037C372.238 272.037 371.839 271.638 371.839 270.84L371.839 269.781C371.839 268.983 372.238 268.584 373.035 268.584L375.804 268.584C376.601 268.584 377 268.983 377 269.781L377 270.84ZM377.137 266.439L372.652 266.439L373.11 267.273L372.41 267.273L371.702 265.789L371.702 265.755L376.829 265.755L377.137 266.404L377.137 266.439ZM376.385 262.461L376.385 261.401C376.385 261.059 376.191 260.888 375.804 260.888L373.035 260.888C372.648 260.888 372.454 261.059 372.454 261.401L372.454 262.461C372.454 262.802 372.648 262.973 373.035 262.973L375.804 262.973C376.191 262.973 376.385 262.802 376.385 262.461ZM377 262.461C377 263.258 376.601 263.657 375.804 263.657L373.035 263.657C372.238 263.657 371.839 263.258 371.839 262.461L371.839 261.401C371.839 260.603 372.238 260.205 373.035 260.205L375.804 260.205C376.601 260.205 377 260.603 377 261.401L377 262.461ZM377.137 258.059L372.652 258.059L373.11 258.893L372.41 258.893L371.702 257.409L371.702 257.375L376.829 257.375L377.137 258.025L377.137 258.059ZM377.137 255.058L372.652 255.058L373.11 255.892L372.41 255.892L371.702 254.409L371.702 254.375L376.829 254.375L377.137 255.024L377.137 255.058Z" fill="#FF6F3D"/>
<circle cx="257.5" cy="389" r="2" stroke="#333333"/>
<path d="M285.5 119.994L285.5 18" stroke="#333333" stroke-linecap="round"/>
<circle cx="285.5" cy="13.8536" r="2.23808" stroke="#333333"/>
<path d="M78.945 137.505L303.5 137.505" stroke="#333333" stroke-linecap="round"/>
<path d="M303.5 137.45V120" stroke="#333333" stroke-linecap="round"/>
<path d="M303.5 65.0001V9.49628" stroke="#333333" stroke-linecap="round"/>
<circle cx="370.5" cy="9.5" r="2" stroke="#333333"/>
<path d="M303.502 9.5L366 9.5" stroke="#333333" stroke-linecap="round"/>
<path d="M305.328 107.123L305.328 105.912C305.328 105.521 305.106 105.326 304.664 105.326L301.5 105.326C301.057 105.326 300.835 105.521 300.835 105.912L300.835 107.123C300.835 107.513 301.057 107.709 301.5 107.709L304.664 107.709C305.106 107.709 305.328 107.513 305.328 107.123ZM306.031 107.123C306.031 108.034 305.575 108.49 304.664 108.49L301.5 108.49C300.588 108.49 300.132 108.034 300.132 107.123L300.132 105.912C300.132 105 300.588 104.545 301.5 104.545L304.664 104.545C305.575 104.545 306.031 105 306.031 105.912L306.031 107.123ZM306.187 102.092L301.062 102.092L301.585 103.045L300.785 103.045L299.976 101.35L299.976 101.311L305.835 101.311L306.187 102.053L306.187 102.092ZM305.328 97.5459L305.328 96.3349C305.328 95.9443 305.106 95.749 304.664 95.749L301.5 95.749C301.057 95.749 300.835 95.9443 300.835 96.3349L300.835 97.5459C300.835 97.9365 301.057 98.1318 301.5 98.1318L304.664 98.1318C305.106 98.1318 305.328 97.9365 305.328 97.5459ZM306.031 97.5459C306.031 98.4573 305.575 98.9131 304.664 98.9131L301.5 98.9131C300.588 98.9131 300.132 98.4573 300.132 97.5459L300.132 96.3349C300.132 95.4235 300.588 94.9678 301.5 94.9678L304.664 94.9678C305.575 94.9678 306.031 95.4235 306.031 96.3349L306.031 97.5459ZM305.328 91.3981L305.328 90.1871C305.328 89.7965 305.106 89.6012 304.664 89.6012L301.5 89.6012C301.057 89.6012 300.835 89.7965 300.835 90.1871L300.835 91.3981C300.835 91.7887 301.057 91.984 301.5 91.984L304.664 91.984C305.106 91.984 305.328 91.7887 305.328 91.3981ZM306.031 91.3981C306.031 92.3095 305.575 92.7653 304.664 92.7653L301.5 92.7653C300.588 92.7653 300.132 92.3095 300.132 91.3981L300.132 90.1871C300.132 89.2757 300.588 88.8199 301.5 88.8199L304.664 88.8199C305.575 88.8199 306.031 89.2757 306.031 90.1871L306.031 91.3981ZM306.187 86.3674L301.062 86.3674L301.585 87.3206L300.785 87.3206L299.976 85.6253L299.976 85.5862L305.835 85.5862L306.187 86.3284L306.187 86.3674ZM306.187 82.9384L301.062 82.9384L301.585 83.8915L300.785 83.8915L299.976 82.1962L299.976 82.1571L305.835 82.1571L306.187 82.8993L306.187 82.9384ZM305.328 78.3921L305.328 77.1812C305.328 76.7906 305.106 76.5953 304.664 76.5953L301.5 76.5953C301.057 76.5953 300.835 76.7906 300.835 77.1812L300.835 78.3921C300.835 78.7828 301.057 78.9781 301.5 78.9781L304.664 78.9781C305.106 78.9781 305.328 78.7828 305.328 78.3921ZM306.031 78.3921C306.031 79.3036 305.575 79.7593 304.664 79.7593L301.5 79.7593C300.588 79.7593 300.132 79.3036 300.132 78.3921L300.132 77.1812C300.132 76.2697 300.588 75.814 301.5 75.814L304.664 75.814C305.575 75.814 306.031 76.2697 306.031 77.1812L306.031 78.3921Z" fill="#333333"/>
<circle cx="74.4448" cy="137.505" r="2" stroke="#333333"/>
<path d="M139.56 270V258.5C139.56 256.843 140.903 255.5 142.56 255.5H171.56C173.216 255.5 174.56 256.843 174.56 258.5V286.5C174.56 288.157 173.216 289.5 171.56 289.5H165.06" stroke="#FF6F3D"/>
<path d="M146.548 270.094V261.5H167.56L167.547 282.5H165.06" stroke="#9ADAF3"/>
<path fill-rule="evenodd" clip-rule="evenodd" d="M145.06 247V252H144.06V247H145.06Z" fill="#333333"/>
<path fill-rule="evenodd" clip-rule="evenodd" d="M149.06 247V252H148.06V247H149.06Z" fill="#333333"/>
<path fill-rule="evenodd" clip-rule="evenodd" d="M153.06 247V252H152.06V247H153.06Z" fill="#333333"/>
<path fill-rule="evenodd" clip-rule="evenodd" d="M157.06 247V252H156.06V247H157.06Z" fill="#333333"/>
<path fill-rule="evenodd" clip-rule="evenodd" d="M161.06 247V252H160.06V247H161.06Z" fill="#333333"/>
<path fill-rule="evenodd" clip-rule="evenodd" d="M165.06 247V252H164.06V247H165.06Z" fill="#333333"/>
<path fill-rule="evenodd" clip-rule="evenodd" d="M169.06 247V252H168.06V247H169.06Z" fill="#333333"/>
<path fill-rule="evenodd" clip-rule="evenodd" d="M162.06 293V298H161.06V293H162.06Z" fill="#333333"/>
<path fill-rule="evenodd" clip-rule="evenodd" d="M166.06 293V298H165.06V293H166.06Z" fill="#333333"/>
<path fill-rule="evenodd" clip-rule="evenodd" d="M170.06 293V298H169.06V293H170.06Z" fill="#333333"/>
<path fill-rule="evenodd" clip-rule="evenodd" d="M183.06 261L178.06 261L178.06 260L183.06 260L183.06 261Z" fill="#333333"/>
<path fill-rule="evenodd" clip-rule="evenodd" d="M183.06 265L178.06 265L178.06 264L183.06 264L183.06 265Z" fill="#333333"/>
<path fill-rule="evenodd" clip-rule="evenodd" d="M183.06 269L178.06 269L178.06 268L183.06 268L183.06 269Z" fill="#333333"/>
<path fill-rule="evenodd" clip-rule="evenodd" d="M183.06 273L178.06 273L178.06 272L183.06 272L183.06 273Z" fill="#333333"/>
<path fill-rule="evenodd" clip-rule="evenodd" d="M183.06 277L178.06 277L178.06 276L183.06 276L183.06 277Z" fill="#333333"/>
<path fill-rule="evenodd" clip-rule="evenodd" d="M183.06 281L178.06 281L178.06 280L183.06 280L183.06 281Z" fill="#333333"/>
<path fill-rule="evenodd" clip-rule="evenodd" d="M183.06 285L178.06 285L178.06 284L183.06 284L183.06 285Z" fill="#333333"/>
<path fill-rule="evenodd" clip-rule="evenodd" d="M136.06 261L130.06 261L130.06 260L136.06 260L136.06 261Z" fill="#333333"/>
<path fill-rule="evenodd" clip-rule="evenodd" d="M136.06 265L130.06 265L130.06 264L136.06 264L136.06 265Z" fill="#333333"/>
<path fill-rule="evenodd" clip-rule="evenodd" d="M136.06 269L130.06 269L130.06 268L136.06 268L136.06 269Z" fill="#333333"/>
<path d="M163 359.5L189.5 359.5C190.605 359.5 191.5 360.396 191.5 361.5L191.5 392.5C191.5 393.605 190.605 394.5 189.5 394.5L146.495 394.503C145.392 394.503 144.498 393.611 144.495 392.508L144.479 386.492" stroke="#333333" stroke-linecap="round"/>
<path d="M163.5 319.5L189.5 319.5C190.605 319.5 191.5 320.395 191.5 321.5L191.5 352.5C191.5 353.605 190.605 354.5 189.5 354.5L163.5 354.5" stroke="#333333" stroke-linecap="round"/>
<rect x="197.498" y="394.5" width="35" height="46" rx="1.5" transform="rotate(-90 197.498 394.5)" stroke="#FF6F3D"/>
<rect x="197.498" y="354.5" width="35" height="46" rx="1.5" transform="rotate(-90 197.498 354.5)" stroke="#333333"/>
<rect x="9.5" y="390.5" width="21" height="59" rx="2.5" transform="rotate(-90 9.5 390.5)" stroke="#333333"/>
<rect x="9.5" y="365.5" width="21" height="59" rx="2.5" transform="rotate(-90 9.5 365.5)" stroke="#FF6F3D"/>
<rect x="9.5" y="340.5" width="21" height="59" rx="2.5" transform="rotate(-90 9.5 340.5)" stroke="#333333"/>
<path d="M59 329.5H48" stroke="#333333" stroke-linecap="round"/>
<path d="M59 354.5H48" stroke="#333333" stroke-linecap="round"/>
<path d="M59 379.5H48" stroke="#333333" stroke-linecap="round"/>
<path d="M79 375.5L151.5 375.5C153.157 375.5 154.5 374.157 154.5 372.5L154.5 281.5C154.5 279.843 153.157 278.5 151.5 278.5L29.5 278.5C27.8431 278.5 26.5 279.843 26.5 281.5L26.5 310.052" stroke="#FF6F3D"/>
<path d="M123 312.5L88 312.5" stroke="#333333"/>
<path d="M88 346L123.047 346L123.047 345L88 345L88 346ZM88 360L123.047 360L123.047 359L88 359L88 360ZM88 353L134 353L134 352L88 352L88 353Z" fill="#333333"/>
<path d="M88.0002 305.5L134 305.5" stroke="#333333"/>
<path d="M37 291.5H143" stroke="#333333" stroke-linecap="round"/>
<rect x="88.5" y="321.5" width="48" height="15" fill="#D9F4FF" stroke="#9ADAF3"/>
<path d="M241 78.4998L233 78.4998" stroke="#333333"/>
<path d="M134 78.4989L110.5 78.4989L110.5 44.9998L132.815 31.1624" stroke="#333333" stroke-linecap="round"/>
<path d="M51.5 99.5L70.495 99.5L70.495 48.1717L138.639 5.31201" stroke="#333333" stroke-linecap="round"/>
<path d="M51.5 99.5L51.5 37L84.5 17" stroke="#333333" stroke-linecap="round"/>
<path d="M167.713 55.6348C167.713 47.4757 175.134 40.8613 184.29 40.8613C192.183 40.8613 198.785 45.7808 200.454 52.3661C201.445 52.0714 202.503 51.9096 203.605 51.9096C206.996 51.9096 209.99 53.4227 211.785 55.7329C212.786 55.5015 213.837 55.3778 214.92 55.3778C221.807 55.3778 227.223 60.829 227.224 66.9662C227.224 73.103 221.807 78.4669 214.92 78.4669M167.713 55.6348C167.713 55.8031 167.721 55.9697 167.727 56.1359C166.562 55.8105 165.322 55.6348 164.037 55.6348C157.231 55.6348 152.317 61.2031 152.317 67.2704C152.317 71.6673 155.576 76.6507 160.655 78.4669H202.955M167.713 55.6348C167.713 48.8562 172.837 43.1475 179.82 41.4085" stroke="#70C7EA" stroke-linecap="round"/>
<path d="M133.232 61.3321C132.341 50.1526 143.508 40.9713 155.157 43.1556C155.157 31.7158 167.221 22.4145 180.385 21.3409C192.476 20.3549 204.095 26.5669 208.119 36.631C214.046 34.7069 220.145 36.8501 224.01 42.2793C236.982 40.1868 247.982 48.1595 247.982 61.0213" stroke="#333333" stroke-linecap="round"/>
<path d="M225 99.4976H89.5036V66.4998" stroke="#333333" stroke-linecap="round"/>
<path d="M267.5 98.9998C267.776 98.9998 268 99.2236 268 99.4998C268 99.7759 267.776 99.9998 267.5 99.9998L267.5 98.9998ZM225 98.9998L267.5 98.9998L267.5 99.9998L225 99.9998L225 98.9998Z" fill="#333333"/>
<path d="M267.501 99.5V49.4998" stroke="#333333" stroke-linecap="round"/>
<circle cx="89.5034" cy="62.4734" r="2" stroke="#333333"/>
<circle cx="136" cy="29.3997" r="2" stroke="#333333"/>
<circle cx="87.2998" cy="14.8374" r="2" stroke="#333333"/>
<path d="M450.524 318.856L448.334 321.047L446.144 318.856" stroke="#333333" stroke-linecap="round"/>
<path d="M477.808 290.663L451.069 303.976C449.237 304.815 447.25 304.815 445.502 303.976L422.331 292.195" stroke="#333333" stroke-linecap="round"/>
<path d="M422.267 292.101V259.804C422.267 259.039 422.703 258.341 423.39 258.006L444.431 247.743" stroke="#333333" stroke-linecap="round"/>
<path d="M478.186 290.534V273.362V268.189" stroke="#333333" stroke-linecap="round"/>
<path d="M460.23 315.712L493.366 299.418V285.124V259.574L469.467 247.479" stroke="#333333" stroke-linecap="round"/>
<path fill-rule="evenodd" clip-rule="evenodd" d="M439.47 338.715C439.47 338.991 439.246 339.215 438.97 339.215L426.944 339.215C426.703 339.215 426.465 339.156 426.251 339.045L407.259 329.163C407.014 329.036 406.919 328.734 407.046 328.489C407.174 328.244 407.476 328.149 407.721 328.276L426.713 338.158C426.784 338.195 426.863 338.215 426.944 338.215L438.97 338.215C439.246 338.215 439.47 338.439 439.47 338.715Z" fill="#333333"/>
<path d="M461.624 281.327L466.797 283.766C468.063 284.32 468.063 285.262 466.797 285.872L451.937 292.856C450.726 293.41 448.69 293.41 447.534 292.856L432.674 285.872C431.408 285.318 431.408 284.375 432.674 283.766L437.848 281.327" stroke="#FF6F3D" stroke-linecap="round"/>
<path d="M461.752 272.444L466.8 274.831C468.062 275.386 468.062 276.329 466.8 276.939L451.985 283.932C450.778 284.542 448.748 284.542 447.486 283.932L432.671 276.939C431.409 276.384 431.409 275.441 432.671 274.831L437.719 272.444" stroke="#8BB825" stroke-linecap="round"/>
<path fill-rule="evenodd" clip-rule="evenodd" d="M451.985 275.241L466.8 268.349C468.062 267.747 468.062 266.817 466.8 266.27L451.985 259.379C450.723 258.777 448.693 258.777 447.486 259.379L432.671 266.27C431.409 266.872 431.409 267.802 432.671 268.349L447.486 275.241C448.748 275.787 450.778 275.787 451.985 275.241Z" stroke="#5DC0E8"/>
<path fill-rule="evenodd" clip-rule="evenodd" d="M505.767 272.519C505.767 272.243 505.991 272.019 506.267 272.019C506.543 272.019 506.767 272.243 506.767 272.519L506.767 309.121C506.767 309.127 506.767 309.132 506.767 309.137L506.767 309.143C506.767 309.376 506.607 309.572 506.391 309.627L478.777 323.602C478.53 323.727 478.229 323.628 478.105 323.382C477.98 323.136 478.079 322.835 478.325 322.71L505.767 308.822L505.767 272.519Z" fill="#333333"/>
<circle cx="472.336" cy="231.84" r="2" stroke="#333333"/>
<path fill-rule="evenodd" clip-rule="evenodd" d="M408 369.159V345.643C408 344.519 409.191 343.795 410.189 344.311L425.054 351.999C425.125 352.036 425.204 352.055 425.284 352.055H463.603C463.808 350.88 464.832 349.987 466.066 349.987C467.447 349.987 468.566 351.106 468.566 352.487C468.566 353.868 467.447 354.987 466.066 354.987C464.881 354.987 463.888 354.162 463.631 353.055H425.284C425.044 353.055 424.807 352.998 424.594 352.888L409.73 345.199C409.397 345.027 409 345.269 409 345.643V369.198C410.094 369.465 410.905 370.451 410.905 371.627C410.905 373.007 409.786 374.127 408.405 374.127C407.024 374.127 405.905 373.007 405.905 371.627C405.905 370.384 406.812 369.353 408 369.159ZM466.066 353.987C466.894 353.987 467.566 353.315 467.566 352.487C467.566 351.658 466.894 350.987 466.066 350.987C465.237 350.987 464.566 351.658 464.566 352.487C464.566 353.315 465.237 353.987 466.066 353.987ZM409.905 371.627C409.905 372.455 409.234 373.127 408.405 373.127C407.577 373.127 406.905 372.455 406.905 371.627C406.905 370.798 407.577 370.127 408.405 370.127C409.234 370.127 409.905 370.798 409.905 371.627Z" fill="#333333"/>
<path d="M408.552 300.118L438.852 316.543" stroke="#333333" stroke-linecap="round"/>
<path fill-rule="evenodd" clip-rule="evenodd" d="M469.336 231.481C469.613 231.481 469.836 231.705 469.836 231.981C469.836 232.258 469.613 232.481 469.336 232.481L443.844 232.482C443.764 232.482 443.685 232.501 443.614 232.537L409 250.397L409.032 300.041C409.033 300.317 408.809 300.541 408.533 300.541C408.257 300.541 408.033 300.317 408.032 300.041L408 250.226C408 250.21 408.001 250.194 408.002 250.179C407.967 249.97 408.068 249.753 408.266 249.651L443.156 231.648C443.369 231.539 443.604 231.482 443.844 231.482L469.336 231.481Z" fill="#333333"/>
<path d="M408.666 234.34L424.152 226.624" stroke="#FF6F3D" stroke-linecap="round"/>
<path d="M448.699 339.177H449.91C450.3 339.177 450.496 338.956 450.496 338.513V335.349C450.496 334.906 450.3 334.685 449.91 334.685H448.699C448.308 334.685 448.113 334.906 448.113 335.349V338.513C448.113 338.956 448.308 339.177 448.699 339.177ZM448.699 339.88C447.787 339.88 447.332 339.425 447.332 338.513V335.349C447.332 334.438 447.787 333.982 448.699 333.982H449.91C450.821 333.982 451.277 334.438 451.277 335.349V338.513C451.277 339.425 450.821 339.88 449.91 339.88H448.699ZM454.847 339.177H456.058C456.448 339.177 456.644 338.956 456.644 338.513V335.349C456.644 334.906 456.448 334.685 456.058 334.685H454.847C454.456 334.685 454.261 334.906 454.261 335.349V338.513C454.261 338.956 454.456 339.177 454.847 339.177ZM454.847 339.88C453.935 339.88 453.479 339.425 453.479 338.513V335.349C453.479 334.438 453.935 333.982 454.847 333.982H456.058C456.969 333.982 457.425 334.438 457.425 335.349V338.513C457.425 339.425 456.969 339.88 456.058 339.88H454.847ZM459.877 340.037V334.912L458.924 335.435V334.634L460.619 333.826H460.659V339.685L459.916 340.037H459.877ZM463.306 340.037V334.912L462.353 335.435V334.634L464.049 333.826H464.088V339.685L463.345 340.037H463.306ZM467.853 339.177H469.064C469.454 339.177 469.649 338.956 469.649 338.513V335.349C469.649 334.906 469.454 334.685 469.064 334.685H467.853C467.462 334.685 467.267 334.906 467.267 335.349V338.513C467.267 338.956 467.462 339.177 467.853 339.177ZM467.853 339.88C466.941 339.88 466.485 339.425 466.485 338.513V335.349C466.485 334.438 466.941 333.982 467.853 333.982H469.064C469.975 333.982 470.431 334.438 470.431 335.349V338.513C470.431 339.425 469.975 339.88 469.064 339.88H467.853ZM472.883 340.037V334.912L471.93 335.435V334.634L473.625 333.826H473.664V339.685L472.922 340.037H472.883ZM477.429 339.177H478.64C479.031 339.177 479.226 338.956 479.226 338.513V335.349C479.226 334.906 479.031 334.685 478.64 334.685H477.429C477.039 334.685 476.844 334.906 476.844 335.349V338.513C476.844 338.956 477.039 339.177 477.429 339.177ZM477.429 339.88C476.518 339.88 476.062 339.425 476.062 338.513V335.349C476.062 334.438 476.518 333.982 477.429 333.982H478.64C479.552 333.982 480.008 334.438 480.008 335.349V338.513C480.008 339.425 479.552 339.88 478.64 339.88H477.429ZM482.46 340.037V334.912L481.507 335.435V334.634L483.202 333.826H483.241V339.685L482.499 340.037H482.46ZM485.889 340.037V334.912L484.936 335.435V334.634L486.631 333.826H486.67V339.685L485.928 340.037H485.889Z" fill="#333333"/>
<path d="M428.697 325.93L408.497 315.174" stroke="#FF6F3D" stroke-linecap="round"/>
</svg>
