<svg width="171" height="64" viewBox="0 0 171 64" fill="none" xmlns="http://www.w3.org/2000/svg">
<path d="M128.125 42.6913H130.15V29.4772H128.125V42.6913ZM146.364 34.2372L144.043 39.9662H143.974L141.565 34.2372H139.383L142.996 42.2445L140.936 46.6985H143.049L148.616 34.2372H146.364ZM134.881 41.1905C134.217 41.1905 133.292 40.8676 133.292 40.0682C133.292 39.0483 134.444 38.6573 135.438 38.6573C136.329 38.6573 136.747 38.8443 137.289 39.0996C137.131 40.3234 136.049 41.1905 134.881 41.1905ZM135.125 33.9482C133.659 33.9482 132.141 34.5774 131.512 35.9714L133.309 36.7022C133.693 35.9714 134.409 35.7332 135.16 35.7332C136.207 35.7332 137.271 36.3455 137.289 37.4335V37.5693C136.922 37.3653 136.137 37.0594 135.177 37.0594C133.24 37.0594 131.267 38.0961 131.267 40.0343C131.267 41.8024 132.856 42.9415 134.635 42.9415C135.997 42.9415 136.747 42.3465 137.219 41.6496H137.289V42.6695H139.243V37.6031C139.243 35.2575 137.446 33.9482 135.125 33.9482ZM122.61 35.8458H119.73V31.3164H122.61C124.124 31.3164 124.984 32.5372 124.984 33.581C124.984 34.6051 124.124 35.8458 122.61 35.8458ZM122.558 29.4772H117.706V42.6913H119.73V37.685H122.558C124.802 37.685 127.009 36.1023 127.009 33.581C127.009 31.0599 124.802 29.4772 122.558 29.4772ZM96.0996 41.1929C94.7007 41.1929 93.5294 40.0521 93.5294 38.4851C93.5294 36.9017 94.7007 35.7435 96.0996 35.7435C97.4808 35.7435 98.5647 36.9017 98.5647 38.4851C98.5647 40.0521 97.4808 41.1929 96.0996 41.1929ZM98.4248 34.9772H98.3548C97.9004 34.4494 97.0259 33.9726 95.9246 33.9726C93.6168 33.9726 91.5015 35.9478 91.5015 38.4851C91.5015 41.0055 93.6168 42.9639 95.9246 42.9639C97.0259 42.9639 97.9004 42.4869 98.3548 41.9423H98.4248V42.5893C98.4248 44.3096 97.4808 45.2291 95.9597 45.2291C94.7185 45.2291 93.9492 44.3603 93.6341 43.6282L91.8686 44.3434C92.3756 45.5354 93.7219 47 95.9597 47C98.3374 47 100.348 45.6374 100.348 42.3168V34.2451H98.4248V34.9772ZM101.747 42.6913H103.775V29.4768H101.747V42.6913ZM106.764 38.332C106.712 36.5948 108.145 35.7096 109.177 35.7096C109.982 35.7096 110.663 36.101 110.89 36.6634L106.764 38.332ZM113.058 36.8335C112.674 35.8285 111.502 33.9726 109.107 33.9726C106.729 33.9726 104.754 35.7947 104.754 38.4682C104.754 40.9886 106.712 42.9639 109.334 42.9639C111.45 42.9639 112.674 41.7037 113.181 40.9716L111.607 39.9496C111.083 40.6991 110.366 41.1929 109.334 41.1929C108.303 41.1929 107.569 40.733 107.096 39.8307L113.268 37.3443L113.058 36.8335ZM63.8893 35.352V37.2592H68.5747C68.4348 38.332 68.0677 39.1152 67.5081 39.6602C66.8265 40.3246 65.76 41.0567 63.8893 41.0567C61.0045 41.0567 58.7493 38.7919 58.7493 35.9821C58.7493 33.1723 61.0045 30.9072 63.8893 30.9072C65.4454 30.9072 66.5815 31.5034 67.4208 32.2697L68.8019 30.9245C67.6307 29.8344 66.0745 29 63.8893 29C59.9379 29 56.6162 32.1335 56.6162 35.9821C56.6162 39.8307 59.9379 42.9639 63.8893 42.9639C66.0224 42.9639 67.6307 42.283 68.8893 41.0055C70.1831 39.7453 70.5854 37.9744 70.5854 36.5441C70.5854 36.101 70.5505 35.6927 70.4802 35.352H63.8893ZM75.9122 41.1929C74.5133 41.1929 73.3069 40.069 73.3069 38.4682C73.3069 36.8504 74.5133 35.7435 75.9122 35.7435C77.3106 35.7435 78.5171 36.8504 78.5171 38.4682C78.5171 40.069 77.3106 41.1929 75.9122 41.1929ZM75.9122 33.9726C73.3594 33.9726 71.2788 35.8627 71.2788 38.4682C71.2788 41.0567 73.3594 42.9639 75.9122 42.9639C78.4645 42.9639 80.5451 41.0567 80.5451 38.4682C80.5451 35.8627 78.4645 33.9726 75.9122 33.9726ZM86.019 41.1929C84.6206 41.1929 83.4141 40.069 83.4141 38.4682C83.4141 36.8504 84.6206 35.7435 86.019 35.7435C87.4175 35.7435 88.6239 36.8504 88.6239 38.4682C88.6239 40.069 87.4175 41.1929 86.019 41.1929ZM86.019 33.9726C83.4663 33.9726 81.3861 35.8627 81.3861 38.4682C81.3861 41.0567 83.4663 42.9639 86.019 42.9639C88.5714 42.9639 90.652 41.0567 90.652 38.4682C90.652 35.8627 88.5714 33.9726 86.019 33.9726Z" fill="black"/>
<path d="M20.6162 17.5V45.5L34.6162 31.5L20.6162 17.5Z" fill="url(#paint0_linear)"/>
<path d="M20.6162 17.5V45.5L34.6162 31.5L20.6162 17.5Z" fill="url(#paint1_linear)"/>
<path d="M45.1007 30.5452L39.8162 27.5L35.6162 31.5L39.8162 35.5L45.1007 32.2484C45.41 32.0935 45.6162 31.7323 45.6162 31.371C45.6162 31.0097 45.41 30.7 45.1007 30.5452Z" fill="url(#paint2_linear)"/>
<path d="M45.1007 30.5452L39.8162 27.5L35.6162 31.5L39.8162 35.5L45.1007 32.2484C45.41 32.0935 45.6162 31.7323 45.6162 31.371C45.6162 31.0097 45.41 30.7 45.1007 30.5452Z" fill="url(#paint3_linear)"/>
<path d="M21.6162 45.5L39.2162 35.95L35.1162 32L21.6162 45.5Z" fill="url(#paint4_linear)"/>
<path d="M21.6162 45.5L39.2162 35.95L35.1162 32L21.6162 45.5Z" fill="url(#paint5_linear)"/>
<path d="M39.2162 27.05L33.6662 23.8L21.6162 17.5L35.1162 31L39.2162 27.05Z" fill="url(#paint6_linear)"/>
<path d="M39.2162 27.05L33.6662 23.8L21.6162 17.5L35.1162 31L39.2162 27.05Z" fill="url(#paint7_linear)"/>
<path d="M57.5533 23.9489H58.6984C59.4431 23.9489 60.0337 23.7342 60.4699 23.3047C60.9061 22.8756 61.1233 22.2736 61.1233 21.5C61.1233 20.7323 60.9061 20.1325 60.4699 19.6996C60.0337 19.268 59.4431 19.0512 58.6984 19.0512H57.5533V23.9489ZM56.7245 24.7466V18.2535H58.6984C59.6903 18.2535 60.4833 18.554 61.0792 19.156C61.674 19.7572 61.971 20.5383 61.971 21.5C61.971 22.4613 61.674 23.2429 61.0792 23.844C60.4833 24.4461 59.6903 24.7466 58.6984 24.7466H56.7245Z" fill="black"/>
<path d="M57.5525 23.9491V24.0573H58.6977C59.4622 24.0582 60.0863 23.8345 60.5443 23.3822C61.005 22.9294 61.231 22.2932 61.2302 21.5002C61.231 20.7131 61.005 20.0785 60.5447 19.6228C60.0863 19.168 59.4626 18.9423 58.6977 18.9431H57.5525H57.445V24.0573H57.5525V23.9491H57.6601V19.1596H58.6977C59.4227 19.1609 59.9799 19.3684 60.3939 19.7772L60.3935 19.7767C60.8053 20.1868 61.0142 20.752 61.015 21.5002C61.0142 22.2544 60.8053 22.8217 60.3939 23.2275C59.9799 23.6342 59.4231 23.8396 58.6977 23.8409H57.5525V23.9491H57.6601H57.5525ZM56.7238 24.7468H56.8314V18.3619H58.6977C59.6685 18.3627 60.4275 18.6531 61.0024 19.2327C61.5756 19.8135 61.8619 20.5604 61.8627 21.5002C61.8619 22.4395 61.5756 23.1869 61.002 23.7677C60.4275 24.3473 59.6685 24.6377 58.6977 24.6385H56.7238V24.7468H56.8314H56.7238V24.855H58.6977C59.7105 24.8558 60.5381 24.5451 61.1545 23.9207C61.7707 23.2989 62.0791 22.483 62.0778 21.5002C62.0791 20.5165 61.7707 19.7015 61.1545 19.0801C60.5381 18.4553 59.7105 18.1446 58.6977 18.1454H56.6162V24.855H56.7238V24.7468Z" fill="black"/>
<path d="M63.1349 24.7466V18.2535H63.9636V24.7466H63.1349Z" fill="black"/>
<path d="M63.1349 24.7468H63.2425V18.3619H63.856V24.6385H63.1349V24.7468H63.2425H63.1349V24.855H63.9636H64.0712V18.1454H63.1349H63.0273V24.855H63.1349V24.7468Z" fill="black"/>
<path d="M67.2627 24.8918C66.794 24.8918 66.3359 24.738 65.8884 24.4298C65.4395 24.1212 65.1467 23.6892 65.0089 23.1324L65.7665 22.8242C65.8568 23.181 66.0405 23.482 66.3204 23.7263C66.6007 23.9711 66.9139 24.0937 67.2627 24.0937C67.6228 24.0937 67.9317 23.9986 68.1872 23.8084C68.4427 23.6181 68.5696 23.3595 68.5696 23.0327C68.5696 22.6703 68.4427 22.3906 68.1872 22.194C67.9317 21.9974 67.5275 21.8148 66.9748 21.6453C66.4032 21.4644 65.9704 21.2297 65.6762 20.9423C65.382 20.6552 65.2336 20.2883 65.2336 19.8406C65.2336 19.3748 65.4177 18.9702 65.7842 18.6257C66.1511 18.2812 66.6289 18.1083 67.2177 18.1083C67.7649 18.1083 68.2096 18.2466 68.5516 18.5214C68.8946 18.7966 69.1168 19.0971 69.2189 19.4238L68.4625 19.7404C68.4078 19.5359 68.2746 19.3448 68.0612 19.1694C67.8476 18.9948 67.5729 18.9068 67.2354 18.9068C66.9172 18.9068 66.6449 18.9956 66.4201 19.1745C66.1939 19.3528 66.0817 19.5748 66.0817 19.8406C66.0817 20.0824 66.186 20.2866 66.3927 20.4527C66.6007 20.6188 66.9054 20.7689 67.3081 20.9017C67.6262 21.0049 67.8917 21.1042 68.1065 21.201C68.3196 21.2974 68.5361 21.4263 68.7546 21.5865C68.9744 21.7463 69.1391 21.9462 69.2505 22.1851C69.3618 22.4239 69.4178 22.7004 69.4178 23.0145C69.4178 23.329 69.3534 23.6101 69.224 23.8578C69.095 24.1064 68.9226 24.3026 68.7096 24.4475C68.4962 24.5925 68.2671 24.7029 68.0204 24.7785C67.7733 24.8542 67.5211 24.8918 67.2627 24.8918Z" fill="black"/>
<path d="M67.2627 24.8918V24.7836C66.818 24.7831 66.3826 24.6386 65.9493 24.3405C65.5215 24.0455 65.2463 23.6405 65.1134 23.1066L65.0088 23.1324L65.0492 23.233L65.8068 22.9248L65.7664 22.8242L65.6623 22.8512C65.7573 23.2279 65.9544 23.5504 66.2494 23.8079L66.2498 23.8083C66.5461 24.0675 66.8881 24.2028 67.2627 24.2019C67.6413 24.2023 67.9763 24.1004 68.251 23.8954C68.5318 23.6887 68.6793 23.3872 68.6772 23.0326C68.6793 22.6454 68.5352 22.3237 68.2528 22.1081C67.9792 21.8985 67.5656 21.7137 67.0063 21.5417H67.0071C66.4456 21.3645 66.0279 21.1358 65.751 20.8644C65.4782 20.5968 65.3424 20.2641 65.3412 19.8406C65.3424 19.4044 65.5093 19.034 65.8577 18.7047C66.2036 18.3809 66.6495 18.2173 67.2177 18.2164C67.7477 18.2169 68.1645 18.3492 68.4847 18.6058C68.8154 18.8717 69.0222 19.1549 69.1164 19.4559L69.2189 19.4237L69.1778 19.3236L68.4208 19.6406L68.4625 19.7404L68.5663 19.7125C68.5045 19.4804 68.3549 19.2707 68.1292 19.0855C67.8939 18.8924 67.5905 18.7981 67.2353 18.7985C66.8974 18.7981 66.5978 18.8945 66.3532 19.0894L66.3537 19.089C66.1065 19.2822 65.9725 19.543 65.9741 19.8406C65.9725 20.1145 66.0981 20.3568 66.3255 20.5373L66.3259 20.5376C66.5495 20.7156 66.8643 20.8691 67.2744 21.0044L67.2748 21.0048C67.5905 21.1066 67.8531 21.2051 68.0619 21.2998H68.0623C68.2675 21.3924 68.4776 21.5175 68.6911 21.6739H68.6915C68.897 21.824 69.0491 22.0083 69.1529 22.2311C69.2568 22.4531 69.3101 22.713 69.3101 23.0144C69.3097 23.3146 69.2492 23.5766 69.129 23.8079C69.0067 24.0416 68.847 24.223 68.649 24.3578C68.4444 24.4969 68.2254 24.6026 67.9889 24.6749C67.7518 24.7476 67.5105 24.7836 67.2627 24.7836V24.8918V25C67.5316 25 67.7947 24.9607 68.0515 24.882C68.3086 24.8034 68.5478 24.688 68.7697 24.5375V24.537C68.9979 24.382 69.1828 24.171 69.3194 23.9081C69.4576 23.6435 69.5253 23.3437 69.5253 23.0144C69.5253 22.6877 69.4669 22.3948 69.348 22.1389C69.229 21.8841 69.0513 21.6685 68.8176 21.4985L68.818 21.4989C68.5945 21.335 68.3717 21.2022 68.1502 21.1024L68.1494 21.102L68.1507 21.1024C67.9309 21.0026 67.6619 20.9025 67.3408 20.7985H67.3412C66.9461 20.6687 66.652 20.522 66.4595 20.3681H66.4599C66.2733 20.216 66.191 20.0503 66.1893 19.8406C66.191 19.6064 66.2818 19.4234 66.4864 19.2593L66.4868 19.2589C66.6919 19.0966 66.9364 19.0154 67.2353 19.015C67.5547 19.0154 67.8018 19.0966 67.9931 19.2534L67.9943 19.2543L67.9931 19.253C68.1939 19.4187 68.3112 19.5907 68.3586 19.7687L68.3902 19.888L69.2601 19.5235L69.3509 19.4855L69.3214 19.3913C69.2118 19.0391 68.9731 18.7212 68.6188 18.4362C68.2541 18.1433 67.7821 17.9996 67.2177 18C66.6087 17.9991 66.0989 18.1814 65.711 18.5466C65.3261 18.9063 65.1252 19.3456 65.126 19.8406C65.1252 20.312 65.2862 20.7139 65.6013 21.0199C65.9128 21.3235 66.3607 21.5641 66.9424 21.7484H66.9432C67.4891 21.9158 67.8846 22.0967 68.1221 22.2797C68.3498 22.4577 68.46 22.6948 68.462 23.0326C68.46 23.3311 68.3532 23.5475 68.1233 23.7212C67.8875 23.8967 67.6043 23.985 67.2627 23.9855C66.9395 23.9846 66.6553 23.8746 66.3906 23.6447C66.1266 23.4131 65.9564 23.1345 65.8707 22.7975L65.8405 22.6775L64.9688 23.0322L64.8819 23.0672L64.9046 23.1586C65.047 23.7373 65.3576 24.1968 65.8279 24.519C66.2893 24.8372 66.7701 25 67.2627 25V24.8918Z" fill="black"/>
<path d="M71.4371 21.3182H72.8261C73.1749 21.3182 73.4544 21.2007 73.6645 20.9653C73.8746 20.729 73.9792 20.4698 73.9792 20.1854C73.9792 19.9013 73.8746 19.6408 73.6645 19.4055C73.4544 19.1691 73.1749 19.0512 72.8261 19.0512H71.4371V21.3182ZM71.4371 24.7466H70.6078V18.2535H72.808C73.3543 18.2535 73.8279 18.436 74.2272 18.8017C74.6277 19.1674 74.8273 19.629 74.8273 20.1854C74.8273 20.7412 74.6277 21.202 74.2272 21.5677C73.8279 21.9338 73.3543 22.1168 72.808 22.1168H71.4371V24.7466Z" fill="black"/>
<path d="M71.4371 21.3184V21.4266H72.8261C73.198 21.4279 73.5148 21.2969 73.7443 21.0378C73.9692 20.7862 74.0876 20.497 74.0867 20.1856C74.0876 19.874 73.9692 19.5844 73.7443 19.3334C73.5148 19.0733 73.1984 18.9418 72.8261 18.9431H71.4371H71.3291V21.4266H71.4371V21.3184H71.5447V19.1596H72.8261C73.1509 19.1613 73.3934 19.2653 73.5842 19.4778C73.7796 19.6982 73.8713 19.9286 73.8716 20.1856C73.8713 20.4426 73.7796 20.6721 73.5842 20.8932C73.3934 21.1054 73.1513 21.209 72.8261 21.2102H71.4371V21.3184H71.5447H71.4371ZM71.4371 24.7468V24.6385H70.7154V18.3619H72.808C73.3303 18.3627 73.7732 18.5339 74.1548 18.8823C74.534 19.2301 74.7185 19.655 74.7197 20.1856C74.7185 20.7152 74.534 21.1396 74.1548 21.488C73.7732 21.8367 73.3303 22.0079 72.808 22.0087H71.4371H71.3291V24.7468H71.4371V24.6385V24.7468H71.5447V22.2252H72.808C73.3782 22.226 73.883 22.0311 74.2999 21.6477C74.7214 21.2647 74.9361 20.7676 74.9349 20.1856C74.9361 19.603 74.7214 19.1054 74.2999 18.722C73.883 18.339 73.3782 18.1446 72.808 18.1454H70.5002V24.855H71.4371H71.5447V24.7468H71.4371Z" fill="black"/>
<path d="M77.0307 23.3641C77.5085 23.8507 78.0927 24.0937 78.7841 24.0937C79.4753 24.0937 80.0608 23.8507 80.5373 23.3641C81.0157 22.8776 81.2551 22.2556 81.2551 21.5003C81.2551 20.7449 81.0157 20.123 80.5373 19.6364C80.0608 19.1499 79.4753 18.9068 78.7841 18.9068C78.0927 18.9068 77.5085 19.1499 77.0307 19.6364C76.5533 20.123 76.3142 20.7449 76.3142 21.5003C76.3142 22.2556 76.5533 22.8776 77.0307 23.3641ZM81.1513 23.9077C80.5163 24.5642 79.7275 24.8918 78.7841 24.8918C77.8406 24.8918 77.0513 24.5642 76.4179 23.9077C75.7834 23.252 75.467 22.4494 75.467 21.5003C75.467 20.5512 75.7834 19.7484 76.4179 19.0929C77.0513 18.4363 77.8406 18.1083 78.7841 18.1083C79.722 18.1083 80.5092 18.438 81.1468 19.0971C81.7834 19.7561 82.102 20.5572 82.102 21.5003C82.102 22.4494 81.7847 23.252 81.1513 23.9077Z" fill="black"/>
<path d="M77.0308 23.3641L76.9538 23.4401C77.4497 23.9462 78.0675 24.2032 78.7841 24.2019C79.5006 24.2032 80.1197 23.9462 80.6143 23.4401C81.1127 22.9337 81.3636 22.2784 81.3627 21.5002C81.3636 20.722 81.1127 20.0668 80.6143 19.5603L80.6126 19.559L80.6143 19.5603C80.1197 19.0543 79.5006 18.7972 78.7841 18.7985C78.0675 18.7972 77.4497 19.0543 76.9538 19.5603L76.9505 19.5641L76.9538 19.5603C76.4563 20.0668 76.2054 20.722 76.2067 21.5002C76.2054 22.2784 76.4563 22.9337 76.9538 23.4401L77.0308 23.3641L77.1073 23.288C76.6508 22.8208 76.4226 22.2332 76.4218 21.5002C76.4226 20.7673 76.6508 20.1796 77.1073 19.7125C77.5674 19.2454 78.1179 19.0163 78.7841 19.015C79.4502 19.0163 80.0015 19.2454 80.4609 19.7125C80.9185 20.1796 81.1468 20.7673 81.1476 21.5002C81.1468 22.2332 80.9185 22.8208 80.4609 23.288C80.0015 23.7551 79.4502 23.9842 78.7841 23.9855C78.1179 23.9842 77.5674 23.7551 77.1073 23.288L77.0308 23.3641ZM81.1513 23.9076L81.0741 23.8324C80.4575 24.4682 79.7028 24.7823 78.7841 24.7836C77.8654 24.7823 77.1106 24.4682 76.4953 23.8324H76.4949C75.8796 23.1945 75.5758 22.4252 75.5746 21.5002C75.5758 20.5753 75.8796 19.806 76.4949 19.168H76.4953C77.1106 18.5322 77.8654 18.2177 78.7841 18.2164C79.6973 18.2177 80.45 18.5335 81.0699 19.1727C81.6877 19.8135 81.9936 20.5817 81.9944 21.5002C81.9936 22.4252 81.6885 23.1945 81.0741 23.8324L81.1513 23.9076L81.2283 23.9829C81.881 23.3091 82.2104 22.4733 82.2095 21.5002C82.2104 20.5326 81.8797 19.6986 81.2241 19.0218C80.5685 18.3424 79.7473 17.9988 78.7841 18C77.8158 17.9988 76.9925 18.3408 76.3407 19.0176L76.3411 19.0171C75.6871 19.6913 75.3585 20.5271 75.3594 21.5002C75.3585 22.4733 75.6871 23.3091 76.3411 23.9833L76.3436 23.9863L76.3407 23.9829C76.9925 24.6597 77.8158 25.0009 78.7841 25C79.7524 25.0009 80.5756 24.6597 81.2283 23.9829L81.1513 23.9076Z" fill="black"/>
<path d="M83.2661 24.7466V18.2535H84.2756L87.4133 23.3047H87.449L87.4133 22.0534V18.2535H88.2429V24.7466H87.3776L84.0953 19.4506H84.0596L84.0953 20.7024V24.7466H83.2661Z" fill="black"/>
<path d="M83.2662 24.7468H83.3737V18.3619H84.2164L87.3536 23.4131H87.449H87.5595L87.5205 22.0519L87.5209 18.3619H88.1353V24.6385H87.4367L84.1549 19.3426H84.0596H83.9486L83.9877 20.7038V24.6385H83.2662V24.7468H83.3737H83.2662V24.855H84.0953H84.2029V20.7008L84.1668 19.4479L84.0596 19.4508V19.559H84.0953V19.4508L84.0037 19.5083L87.3179 24.855H88.2429H88.3505V18.1454H87.4133H87.3057V22.0548L87.3414 23.3078L87.449 23.3049V23.1966H87.4133V23.3049L87.5044 23.2474L84.3352 18.1454H83.2662H83.1586V24.855H83.2662V24.7468Z" fill="black"/>
<path d="M89.7213 24.7466V18.2535H90.5505V24.7466H89.7213Z" fill="black"/>
<path d="M89.7214 24.7468H89.8289V18.3619H90.4429V24.6385H89.7214V24.7468H89.8289H89.7214V24.855H90.5505H90.6581V18.1454H89.7214H89.6138V24.855H89.7214V24.7468Z" fill="black"/>
<path d="M92.8573 23.9489H94.5262C94.8443 23.9489 95.1027 23.8369 95.3015 23.6125C95.4999 23.3896 95.5987 23.1444 95.5987 22.8781C95.5987 22.6122 95.4965 22.3691 95.2919 22.1485C95.0881 21.9278 94.8199 21.8171 94.4892 21.8171H92.8573V23.9489ZM92.8573 21.0372H94.3631C94.6761 21.0372 94.927 20.9336 95.1162 20.7243C95.3057 20.5159 95.4003 20.2881 95.4003 20.0399C95.4003 19.7922 95.3086 19.5648 95.1246 19.3602C94.9418 19.1543 94.7006 19.0512 94.3996 19.0512H92.8573V21.0372ZM92.0285 24.7466V18.2535H94.3631C94.8686 18.2535 95.3057 18.4218 95.6755 18.7565C96.0454 19.0926 96.2303 19.514 96.2303 20.0218C96.2303 20.3299 96.1505 20.6021 95.9903 20.8381C95.8319 21.0739 95.6197 21.2523 95.3549 21.3732V21.4091C95.6735 21.5178 95.9349 21.7054 96.14 21.9713C96.3434 22.2376 96.4464 22.5463 96.4464 22.8967C96.4464 23.4285 96.2522 23.8698 95.8642 24.2203C95.4768 24.5712 95.0187 24.7466 94.4892 24.7466H92.0285Z" fill="black"/>
<path d="M92.8573 23.9491V24.0573H94.5262C94.8691 24.0586 95.1645 23.9318 95.3818 23.6848H95.3814C95.5945 23.4468 95.707 23.1721 95.7063 22.8783C95.707 22.5841 95.5903 22.3105 95.3705 22.0747C95.1473 21.8316 94.8434 21.7078 94.4892 21.7091H92.7497V24.0573H92.8573V23.9491H92.9649V21.9255H94.4892C94.7969 21.9267 95.0288 22.0249 95.2133 22.2222C95.4032 22.4285 95.4903 22.6412 95.4911 22.8783C95.4903 23.1171 95.4054 23.3328 95.2213 23.5407H95.2209C95.041 23.742 94.8195 23.8391 94.5262 23.8409H92.8573V23.9491H92.9649H92.8573ZM92.8573 21.0374V21.1456H94.3631C94.6993 21.1468 94.9872 21.0301 95.196 20.7972L95.1957 20.7977C95.3995 20.5744 95.5083 20.3165 95.5079 20.0401C95.5083 19.7654 95.4036 19.5083 95.2048 19.2877V19.2881C95.0031 19.0589 94.7246 18.9418 94.3996 18.9431H92.7497V21.1456H92.8573V21.0374H92.9649V19.1596H94.3996C94.6761 19.1613 94.8809 19.25 95.0447 19.4323V19.4327C95.2138 19.6221 95.2919 19.8199 95.2927 20.0401C95.2919 20.2595 95.2116 20.4582 95.0372 20.6513L95.0368 20.6518C94.8674 20.8374 94.6531 20.9278 94.3631 20.9291H92.8573V21.0374H92.9649H92.8573ZM92.0285 24.7468H92.1361V18.3619H94.3631C94.8447 18.3627 95.2511 18.5191 95.6033 18.8371C95.9521 19.1558 96.121 19.5409 96.1228 20.0219C96.1223 20.3115 96.0487 20.5597 95.9017 20.7773H95.9012C95.7533 20.9972 95.5588 21.1612 95.3104 21.2749L95.2473 21.3037V21.4093V21.4867L95.3205 21.5116C95.6201 21.6148 95.8618 21.7881 96.0547 22.0379V22.0375C96.2442 22.2861 96.3384 22.5676 96.3388 22.8969C96.3375 23.4025 96.1593 23.807 95.7924 24.1402C95.4226 24.4737 94.9951 24.6377 94.4892 24.6385H92.0285V24.7468H92.1361H92.0285V24.855H94.4892C95.0423 24.8558 95.531 24.6689 95.9365 24.3008C96.345 23.9334 96.5556 23.4553 96.554 22.8969C96.5547 22.5254 96.4429 22.1897 96.2249 21.9056V21.9052C96.008 21.6237 95.7264 21.4215 95.3893 21.307L95.3549 21.4093H95.4625V21.3734H95.3549L95.3995 21.4719C95.6806 21.3438 95.9105 21.1514 96.0798 20.8986L96.0794 20.8991C96.2518 20.6451 96.3379 20.3487 96.3379 20.0219C96.3391 19.488 96.1383 19.0298 95.7474 18.6764L95.7449 18.6743L95.7474 18.6764C95.36 18.3242 94.8922 18.1446 94.3631 18.1454H91.921V24.855H92.0285V24.7468Z" fill="black"/>
<path d="M97.5642 24.7466V18.2535H98.3934V23.9489H101.188V24.7466H97.5642Z" fill="black"/>
<path d="M97.5642 24.7468H97.6718V18.3619H98.2858V24.0573H101.081V24.6385H97.5642V24.7468H97.6718H97.5642V24.855H101.296V23.9491V23.8409H98.5009V18.1454H97.5642H97.4566V24.855H97.5642V24.7468Z" fill="black"/>
<path d="M106.004 19.0512H103.063V21.1099H105.714V21.8902H103.063V23.9489H106.004V24.7466H102.235V18.2535H106.004V19.0512Z" fill="black"/>
<path d="M106.004 19.0513V18.9431H102.956V21.2183H105.607V21.7818L102.956 21.7821V24.0573H105.896V24.6385H102.342V18.3619H105.896V19.0513H106.004V18.9431V19.0513H106.111V18.2537V18.1454H102.127V24.855H106.111V23.9491V23.8409H103.171V21.9986H105.822V21.1101V21.0019H103.171V19.1596H106.111V19.0513H106.004Z" fill="black"/>
<path d="M113.234 19.0512H110.294V21.1099H112.945V21.8902H110.294V23.9489H113.234V24.7466H109.465V18.2535H113.234V19.0512Z" fill="black"/>
<path d="M113.234 19.0513V18.9431H110.186V21.2183H112.837V21.7818L110.186 21.7821V24.0573H113.127V24.6385H109.573V18.3619H113.127V19.0513H113.234V18.9431V19.0513H113.342V18.2537V18.1454H109.358V24.855H113.342V23.9491V23.8409H110.401V21.9986H113.052V21.1101V21.0019H110.401V19.1596H113.342V19.0513H113.234Z" fill="black"/>
<path d="M114.532 24.7466V18.2535H115.541L118.678 23.3047H118.714L118.678 22.0534V18.2535H119.509V24.7466H118.643L115.36 19.4506H115.325L115.36 20.7024V24.7466H114.532Z" fill="black"/>
<path d="M114.532 24.7468H114.639V18.3619H115.482L118.619 23.4131H118.714H118.824L118.786 22.0519V18.3619H119.401V24.6385H118.702L115.42 19.3426H115.325H115.214L115.252 20.7038V24.6385H114.532V24.7468H114.639H114.532V24.855H115.36H115.468V20.7008L115.432 19.4479L115.325 19.4508V19.559H115.36V19.4508L115.269 19.5083L118.583 24.855H119.509H119.616V18.1454H118.678H118.57V22.0548L118.606 23.3078L118.714 23.3049V23.1966H118.678V23.3049L118.769 23.2474L115.601 18.1454H114.532H114.424V24.855H114.532V24.7468Z" fill="black"/>
<defs>
<linearGradient id="paint0_linear" x1="27.6162" y1="27" x2="20.6162" y2="35.5" gradientUnits="userSpaceOnUse">
<stop stop-color="#00E2FF"/>
<stop offset="1" stop-color="#03C6F5"/>
</linearGradient>
<linearGradient id="paint1_linear" x1="33.4263" y1="44.2588" x2="14.4787" y2="26.0978" gradientUnits="userSpaceOnUse">
<stop stop-color="#00A0FF"/>
<stop offset="0.00657445" stop-color="#00A1FF"/>
<stop offset="0.2601" stop-color="#00BEFF"/>
<stop offset="0.5122" stop-color="#00D2FF"/>
<stop offset="0.7604" stop-color="#00DFFF"/>
<stop offset="1" stop-color="#00E3FF"/>
</linearGradient>
<linearGradient id="paint2_linear" x1="40.6162" y1="27.5" x2="30.1162" y2="27.5" gradientUnits="userSpaceOnUse">
<stop stop-color="#FFEA0D"/>
<stop offset="1" stop-color="#FFCF00"/>
</linearGradient>
<linearGradient id="paint3_linear" x1="46.3752" y1="31.5695" x2="22.5698" y2="31.5695" gradientUnits="userSpaceOnUse">
<stop stop-color="#FFE000"/>
<stop offset="0.4087" stop-color="#FFBD00"/>
<stop offset="0.7754" stop-color="#FFA500"/>
<stop offset="1" stop-color="#FF9C00"/>
</linearGradient>
<linearGradient id="paint4_linear" x1="30.6162" y1="31.5" x2="19.1162" y2="43" gradientUnits="userSpaceOnUse">
<stop stop-color="#F73547"/>
<stop offset="1" stop-color="#E22652"/>
</linearGradient>
<linearGradient id="paint5_linear" x1="36.8799" y1="43.0906" x2="12.9913" y2="18.9439" gradientUnits="userSpaceOnUse">
<stop stop-color="#FF3A44"/>
<stop offset="1" stop-color="#C31162"/>
</linearGradient>
<linearGradient id="paint6_linear" x1="36.6162" y1="27" x2="21.6162" y2="17.5" gradientUnits="userSpaceOnUse">
<stop stop-color="#2EF38F"/>
<stop offset="1" stop-color="#0EDE76"/>
</linearGradient>
<linearGradient id="paint7_linear" x1="18.2142" y1="38.3109" x2="28.8818" y2="27.5452" gradientUnits="userSpaceOnUse">
<stop stop-color="#32A071"/>
<stop offset="0.0685" stop-color="#2DA771"/>
<stop offset="0.4762" stop-color="#15CF74"/>
<stop offset="0.8009" stop-color="#06E775"/>
<stop offset="1" stop-color="#00F076"/>
</linearGradient>
</defs>
</svg>
