<svg width="689" height="538" viewBox="0 0 689 538" fill="none" xmlns="http://www.w3.org/2000/svg">
<path d="M335 424.976L335 491.972L336 491.972L336 424.976L335 424.976Z" fill="#666666"/>
<path d="M218 459.974H217V313.982H218V459.974Z" fill="#525252"/>
<path fill-rule="evenodd" clip-rule="evenodd" d="M217.5 463.974C218.078 463.974 218.639 463.773 219.086 463.406C219.533 463.04 219.839 462.529 219.952 461.962C220.065 461.394 219.977 460.806 219.705 460.295C219.432 459.785 218.991 459.386 218.457 459.164C217.922 458.943 217.328 458.914 216.774 459.082C216.221 459.249 215.743 459.604 215.421 460.085C215.1 460.566 214.955 461.143 215.012 461.719C215.069 462.294 215.323 462.833 215.732 463.242C215.964 463.474 216.24 463.658 216.543 463.784C216.846 463.91 217.172 463.974 217.5 463.974ZM218.623 462.596C218.363 462.855 218.021 463.015 217.657 463.049C217.292 463.084 216.927 462.991 216.623 462.787C216.319 462.583 216.095 462.28 215.99 461.929C215.884 461.578 215.903 461.202 216.044 460.863C216.185 460.525 216.439 460.247 216.762 460.075C217.086 459.902 217.458 459.848 217.818 459.92C218.177 459.992 218.5 460.186 218.732 460.469C218.964 460.753 219.091 461.108 219.09 461.474C219.09 461.683 219.049 461.889 218.969 462.082C218.888 462.275 218.771 462.449 218.623 462.596Z" fill="#525252"/>
<path fill-rule="evenodd" clip-rule="evenodd" d="M396.19 520.517C396.064 520.821 396 521.147 396 521.477L396 521.472C396.001 521.966 396.148 522.449 396.423 522.86C396.697 523.271 397.088 523.591 397.544 523.78C398 523.969 398.502 524.019 398.986 523.923C399.471 523.826 399.916 523.589 400.266 523.239C400.498 523.008 400.683 522.732 400.809 522.429C400.935 522.125 401 521.8 401 521.472C401 521.143 400.935 520.818 400.809 520.514C400.683 520.211 400.498 519.935 400.266 519.704C400.034 519.471 399.759 519.287 399.456 519.161C399.153 519.035 398.828 518.97 398.5 518.97L399 518.97L399 429.975L398 429.975L398 518.97L398.5 518.97C398.172 518.97 397.847 519.035 397.544 519.161C397.241 519.287 396.966 519.471 396.734 519.704C396.501 519.936 396.316 520.212 396.19 520.517ZM397.096 520.891C397.173 520.706 397.285 520.538 397.427 520.397C397.712 520.113 398.098 519.954 398.5 519.954C398.902 519.954 399.288 520.113 399.573 520.397C399.857 520.684 400.016 521.071 400.016 521.474C400.016 521.878 399.857 522.265 399.573 522.551C399.432 522.692 399.265 522.804 399.081 522.88C398.897 522.956 398.699 522.995 398.5 522.994C398.301 522.996 398.103 522.957 397.919 522.881C397.735 522.805 397.567 522.693 397.427 522.551C397.285 522.41 397.173 522.242 397.096 522.057C397.019 521.873 396.979 521.674 396.979 521.474C396.979 521.274 397.019 521.076 397.096 520.891Z" fill="#525252"/>
<path opacity="0.25" fill-rule="evenodd" clip-rule="evenodd" d="M188 340.046H228L226 338.981H187.5L132.473 384.587C131.911 384.203 131.232 383.978 130.5 383.978C128.567 383.978 127 385.545 127 387.478C127 389.411 128.567 390.978 130.5 390.978C132.433 390.978 134 389.411 134 387.478C134 386.787 133.8 386.142 133.453 385.6L188 340.046ZM133 387.478C133 388.859 131.881 389.978 130.5 389.978C129.119 389.978 128 388.859 128 387.478C128 386.098 129.119 384.978 130.5 384.978C131.881 384.978 133 386.098 133 387.478Z" fill="#666666"/>
<circle cx="38" cy="421.977" r="5" stroke="#666666" stroke-width="2"/>
<path fill-rule="evenodd" clip-rule="evenodd" d="M304.312 353.98H117.812L41.3115 418.477L41 417.255L117.312 352.98H303.812L304.312 353.98Z" fill="#666666"/>
<path d="M205 313.982H45V314.982H205V313.982Z" fill="#525252"/>
<path fill-rule="evenodd" clip-rule="evenodd" d="M178.5 256.986H146.024L105 290.984L106 291.484L146.5 257.986H178.5V256.986Z" fill="#525252"/>
<path fill-rule="evenodd" clip-rule="evenodd" d="M266 377.979V418.976L283.5 444.475L282.33 444.629L265 419.631V377.979H266Z" fill="#525252"/>
<path d="M258 4H257V111.994H258V4Z" fill="#525252"/>
<path d="M612 234.987H369V235.987H612V234.987Z" fill="#666666"/>
<path d="M304 79.9955V138.992H305V79.9955H304Z" fill="#525252"/>
<path fill-rule="evenodd" clip-rule="evenodd" d="M471.5 298.08L609 297.983L660 345.481L660.719 344.481L609.5 296.983H471.5V298.08Z" fill="#525252"/>
<path fill-rule="evenodd" clip-rule="evenodd" d="M465.5 371.979H483.371L555 424.476L555.722 423.677L483.596 370.979H465.5V371.979Z" fill="#808080"/>
<path fill-rule="evenodd" clip-rule="evenodd" d="M438 199.988V170.99V94.4949L437 94.4949V169.99V200.488L438 199.988Z" fill="#666666"/>
<path fill-rule="evenodd" clip-rule="evenodd" d="M455 201.489V189.489L549.5 111.494L548.5 110.994L454 188.989V200.989L455 201.489Z" fill="#525252"/>
<path fill-rule="evenodd" clip-rule="evenodd" d="M471 329.981H540L559 343.481L559.5 342.481L540.5 328.981H471V329.981Z" fill="#666666"/>
<path opacity="0.25" fill-rule="evenodd" clip-rule="evenodd" d="M5.73757 78.8043C5.11443 78.2862 4.3308 78.0004 3.52042 77.9957C2.59745 77.9903 1.70973 78.3497 1.05047 78.9957C0.471634 79.5628 0.107527 80.3133 0.0203253 81.119C-0.0668761 81.9247 0.128243 82.7357 0.572324 83.4135C1.0164 84.0914 1.68191 84.5942 2.45537 84.8361C3.22882 85.0779 4.06228 85.0439 4.81345 84.7398C5.14027 84.6075 5.44271 84.4276 5.71202 84.208L66.4812 144.992H194.5V143.992H67L6.21483 83.7046C6.35013 83.5383 6.47063 83.359 6.5743 83.1685C6.96164 82.4567 7.08998 81.6325 6.93739 80.8366C6.7848 80.0407 6.36072 79.3224 5.73757 78.8043ZM5.54705 83.0423C5.88901 82.5981 6.07521 82.0527 6.0754 81.4907C6.07551 81.1553 6.00935 80.8231 5.88064 80.5133C5.75193 80.2035 5.5632 79.9222 5.3254 79.6857C4.90823 79.2706 4.3601 79.0129 3.77433 78.9565C3.18856 78.9001 2.60136 79.0485 2.11266 79.3763C1.62395 79.7042 1.26399 80.1912 1.09399 80.7546C0.923987 81.318 0.954486 81.9229 1.18029 82.4663C1.4061 83.0098 1.81324 83.4582 2.33244 83.7352C2.85165 84.0122 3.4508 84.1008 4.02793 83.9857C4.39721 83.9121 4.74285 83.7581 5.04171 83.5375L5 83.4958L5.5 82.9956L5.54705 83.0423Z" fill="#666666"/>
<path fill-rule="evenodd" clip-rule="evenodd" d="M257.5 1.37942e-06C258.078 -1.01964e-05 258.639 0.200513 259.086 0.56743C259.533 0.934346 259.839 1.44495 259.952 2.01223C260.065 2.5795 259.977 3.16834 259.705 3.67844C259.432 4.18854 258.991 4.58833 258.457 4.80967C257.922 5.03102 257.328 5.06025 256.774 4.89237C256.221 4.72448 255.743 4.36986 255.421 3.88895C255.1 3.40805 254.955 2.83059 255.012 2.25499C255.069 1.67938 255.323 1.14125 255.732 0.732263C255.964 0.49983 256.24 0.3155 256.543 0.18984C256.846 0.0641791 257.172 -0.000344022 257.5 1.37942e-06ZM258.623 1.37742C258.363 1.11933 258.021 0.959277 257.657 0.924504C257.292 0.88973 256.927 0.982399 256.623 1.18672C256.319 1.39104 256.095 1.69436 255.99 2.04511C255.884 2.39585 255.903 2.7723 256.044 3.11038C256.185 3.44846 256.439 3.72727 256.762 3.89935C257.086 4.07143 257.458 4.12615 257.818 4.05418C258.177 3.98221 258.5 3.78804 258.732 3.50467C258.964 3.22129 259.091 2.86625 259.09 2.49999C259.09 2.29126 259.049 2.0846 258.969 1.89193C258.888 1.69925 258.771 1.52439 258.623 1.37742Z" fill="#525252"/>
<path d="M357 35.9983H356V143.992H357V35.9983Z" fill="#525252"/>
<path fill-rule="evenodd" clip-rule="evenodd" d="M356.5 31.9983C357.078 31.9983 357.639 32.1988 358.086 32.5657C358.533 32.9326 358.839 33.4432 358.952 34.0105C359.065 34.5778 358.977 35.1666 358.705 35.6767C358.432 36.1868 357.991 36.5866 357.457 36.808C356.922 37.0293 356.328 37.0585 355.774 36.8907C355.221 36.7228 354.743 36.3681 354.421 35.8872C354.1 35.4063 353.955 34.8289 354.012 34.2533C354.069 33.6777 354.323 33.1395 354.732 32.7306C354.964 32.4981 355.24 32.3138 355.543 32.1881C355.846 32.0625 356.172 31.9979 356.5 31.9983ZM357.623 33.3757C357.363 33.1176 357.021 32.9576 356.657 32.9228C356.292 32.888 355.927 32.9807 355.623 33.185C355.319 33.3893 355.095 33.6927 354.99 34.0434C354.884 34.3941 354.903 34.7706 355.044 35.1087C355.185 35.4468 355.439 35.7256 355.762 35.8976C356.086 36.0697 356.458 36.1244 356.818 36.0525C357.177 35.9805 357.5 35.7863 357.732 35.503C357.964 35.2196 358.091 34.8645 358.09 34.4983C358.09 34.2896 358.049 34.0829 357.969 33.8902C357.888 33.6975 357.771 33.5227 357.623 33.3757Z" fill="#525252"/>
<path d="M195 80.9956H194V141.992H195V80.9956Z" fill="#666666"/>
<path fill-rule="evenodd" clip-rule="evenodd" d="M194.5 76.9956C195.078 76.9956 195.639 77.1961 196.086 77.563C196.533 77.93 196.839 78.4406 196.952 79.0078C197.065 79.5751 196.977 80.1639 196.705 80.674C196.432 81.1841 195.991 81.5839 195.457 81.8053C194.922 82.0266 194.328 82.0559 193.774 81.888C193.221 81.7201 192.743 81.3655 192.421 80.8846C192.1 80.4037 191.955 79.8262 192.012 79.2506C192.069 78.675 192.323 78.1369 192.732 77.7279C192.964 77.4954 193.24 77.3111 193.543 77.1854C193.846 77.0598 194.172 76.9953 194.5 76.9956ZM195.623 78.373C195.363 78.1149 195.021 77.9549 194.657 77.9201C194.292 77.8853 193.927 77.978 193.623 78.1823C193.319 78.3866 193.095 78.69 192.99 79.0407C192.884 79.3915 192.903 79.7679 193.044 80.106C193.185 80.4441 193.439 80.7229 193.762 80.895C194.086 81.067 194.458 81.1218 194.818 81.0498C195.177 80.9778 195.5 80.7836 195.732 80.5003C195.964 80.2169 196.091 79.8619 196.09 79.4956C196.09 79.2869 196.049 79.0802 195.969 78.8875C195.888 78.6949 195.771 78.52 195.623 78.373Z" fill="#666666"/>
<path d="M86.2592 120.545L85.5521 121.252L120.949 156.647L121.656 155.94L86.2592 120.545Z" fill="#525252"/>
<path fill-rule="evenodd" clip-rule="evenodd" d="M82.7677 117.761C83.1767 117.352 83.7159 117.098 84.2935 117.044C84.8711 116.989 85.4513 117.136 85.9352 117.461C86.4192 117.785 86.777 118.266 86.9476 118.822C87.1182 119.379 87.0912 119.975 86.871 120.511C86.6509 121.046 86.2512 121.488 85.7402 121.759C85.2292 122.031 84.6385 122.117 84.0686 122.001C83.4988 121.886 82.9851 121.577 82.615 121.127C82.245 120.676 82.0416 120.113 82.0394 119.533C82.0378 119.203 82.1013 118.877 82.2263 118.573C82.3513 118.269 82.5353 117.993 82.7677 117.761ZM84.5429 117.948C84.1752 117.948 83.8199 118.076 83.5373 118.309C83.2547 118.542 83.0623 118.866 82.993 119.227C82.9236 119.587 82.9815 119.961 83.1568 120.286C83.3321 120.61 83.614 120.865 83.9545 121.006C84.2949 121.147 84.673 121.166 85.0242 121.06C85.3754 120.954 85.6781 120.73 85.8808 120.425C86.0835 120.119 86.1736 119.753 86.1358 119.387C86.098 119.021 85.9346 118.678 85.6734 118.417C85.5247 118.269 85.3483 118.151 85.1542 118.07C84.9602 117.99 84.7524 117.948 84.5429 117.948Z" fill="#525252"/>
<path opacity="0.25" fill-rule="evenodd" clip-rule="evenodd" d="M331.72 53.7915C331.094 53.2778 330.31 52.9971 329.5 52.9971C329.04 52.9966 328.585 53.0869 328.16 53.2628C327.736 53.4388 327.35 53.6968 327.025 54.0222C326.453 54.5948 326.096 55.3482 326.017 56.1541C325.937 56.9599 326.14 57.7683 326.59 58.4416C327.04 59.1149 327.709 59.6113 328.484 59.8464C328.798 59.9416 329.121 59.9915 329.444 59.9966H329V143.992H330V59.9966H329.555C329.993 59.9897 330.429 59.9006 330.839 59.7306C331.588 59.4207 332.205 58.861 332.587 58.1469C332.968 57.4328 333.091 56.6084 332.933 55.8142C332.775 55.02 332.346 54.3052 331.72 53.7915ZM329.72 54.2914C330.23 54.3401 330.708 54.5641 331.072 54.9255C331.279 55.1312 331.444 55.376 331.556 55.6458C331.669 55.9155 331.726 56.2048 331.726 56.4971C331.727 57.0098 331.549 57.5069 331.225 57.9036C330.9 58.3003 330.447 58.5722 329.945 58.6729C329.442 58.7737 328.92 58.6971 328.467 58.4562C328.015 58.2152 327.659 57.8249 327.462 57.3516C327.265 56.8783 327.238 56.3513 327.385 55.8602C327.533 55.3692 327.846 54.9445 328.272 54.6585C328.697 54.3724 329.209 54.2427 329.72 54.2914Z" fill="#666666"/>
<path fill-rule="evenodd" clip-rule="evenodd" d="M304.5 72.9959C305.31 72.9958 306.094 73.2766 306.72 73.7903C307.346 74.3039 307.775 75.0188 307.933 75.813C308.091 76.6071 307.968 77.4315 307.587 78.1457C307.205 78.8598 306.588 79.4195 305.839 79.7294C305.091 80.0393 304.259 80.0802 303.484 79.8452C302.709 79.6101 302.04 79.1137 301.59 78.4404C301.14 77.7671 300.937 76.9587 301.017 76.1528C301.096 75.347 301.453 74.5936 302.025 74.021C302.35 73.6956 302.736 73.4376 303.16 73.2616C303.585 73.0857 304.04 72.9954 304.5 72.9959ZM306.072 74.9242C305.708 74.5629 305.23 74.3388 304.72 74.2902C304.209 74.2415 303.697 74.3712 303.272 74.6573C302.846 74.9433 302.533 75.368 302.385 75.859C302.238 76.35 302.265 76.8771 302.462 77.3504C302.659 77.8237 303.015 78.214 303.467 78.4549C303.92 78.6959 304.442 78.7725 304.945 78.6717C305.447 78.5709 305.9 78.2991 306.225 77.9024C306.549 77.5057 306.727 77.0086 306.726 76.4958C306.726 76.2036 306.669 75.9143 306.556 75.6445C306.444 75.3748 306.279 75.13 306.072 74.9242Z" fill="#525252"/>
<path opacity="0.25" fill-rule="evenodd" clip-rule="evenodd" d="M234.72 36.7924C234.094 36.2788 233.31 35.998 232.5 35.998C232.04 35.9976 231.585 36.0879 231.16 36.2638C230.736 36.4397 230.35 36.6978 230.025 37.0232C229.453 37.5958 229.096 38.3492 229.017 39.155C228.937 39.9609 229.14 40.7693 229.59 41.4426C230.04 42.1158 230.709 42.6123 231.484 42.8474C231.797 42.9424 232.12 42.9923 232.443 42.9976H232V132.993H233V42.9976H232.557C232.994 42.9905 233.429 42.9014 233.839 42.7316C234.588 42.4217 235.205 41.862 235.587 41.1479C235.968 40.4337 236.091 39.6093 235.933 38.8152C235.775 38.021 235.346 37.3061 234.72 36.7924ZM232.72 37.2924C233.23 37.341 233.708 37.5651 234.072 37.9264C234.279 38.1322 234.444 38.377 234.556 38.6467C234.669 38.9165 234.726 39.2058 234.726 39.498C234.727 40.0108 234.549 40.5079 234.225 40.9046C233.9 41.3013 233.447 41.5731 232.945 41.6739C232.442 41.7747 231.92 41.6981 231.467 41.4571C231.015 41.2162 230.659 40.8259 230.462 40.3526C230.265 39.8793 230.238 39.3522 230.385 38.8612C230.533 38.3702 230.846 37.9455 231.272 37.6595C231.697 37.3734 232.209 37.2437 232.72 37.2924Z" fill="#666666"/>
<path opacity="0.25" fill-rule="evenodd" clip-rule="evenodd" d="M676.355 52.0184C675.55 51.358 674.541 50.9971 673.5 50.9971C672.909 50.9965 672.324 51.1126 671.777 51.3388C671.231 51.565 670.735 51.8968 670.318 52.3151C669.582 53.0513 669.124 54.02 669.022 55.056C668.92 56.0921 669.18 57.1316 669.758 57.9972C669.849 58.1331 669.947 58.2635 670.051 58.3878L492.5 212.988H469V213.988H493L671 59.2386C671.365 59.4828 671.767 59.6739 672.194 59.8033C673.19 60.1055 674.26 60.0529 675.222 59.6545C676.184 59.2561 676.978 58.5364 677.469 57.6183C677.959 56.7001 678.117 55.6402 677.914 54.6191C677.71 53.598 677.16 52.6789 676.355 52.0184ZM673.775 52.6408C674.435 52.7071 675.052 53.0003 675.521 53.4706C675.787 53.7363 675.998 54.0522 676.142 54.4001C676.285 54.7479 676.358 55.1208 676.357 55.4971C676.356 56.1608 676.125 56.8039 675.704 57.3166C675.282 57.8293 674.696 58.1799 674.045 58.3087C673.394 58.4375 672.718 58.3365 672.133 58.0229C671.548 57.7093 671.09 57.2025 670.837 56.5889C670.584 55.9753 670.551 55.2929 670.745 54.6581C670.938 54.0232 671.346 53.4751 671.899 53.1072C672.451 52.7394 673.114 52.5746 673.775 52.6408Z" fill="#666666"/>
<path fill-rule="evenodd" clip-rule="evenodd" d="M116.224 188.569C115.211 187.558 113.837 186.99 112.404 186.99L112.411 187.036C111.705 187.029 111.005 187.161 110.35 187.426C109.696 187.69 109.1 188.082 108.598 188.577C107.966 189.203 107.498 189.976 107.237 190.825C106.976 191.675 106.93 192.577 107.102 193.449C107.274 194.321 107.659 195.137 108.223 195.825C108.788 196.513 109.514 197.051 110.336 197.391C111.159 197.731 112.053 197.863 112.939 197.775C113.825 197.687 114.676 197.381 115.415 196.886C116.155 196.39 116.76 195.72 117.177 194.935C117.499 194.328 117.702 193.668 117.776 192.99H166V191.99H117.793C117.698 190.703 117.144 189.488 116.224 188.569ZM113.172 188.519C113.936 188.67 114.639 189.045 115.19 189.594C115.65 190.052 115.989 190.616 116.178 191.236C116.366 191.856 116.399 192.513 116.273 193.148C116.146 193.784 115.865 194.379 115.453 194.879C115.041 195.38 114.512 195.772 113.912 196.02C113.313 196.268 112.661 196.364 112.015 196.3C111.369 196.237 110.749 196.015 110.21 195.654C109.67 195.294 109.228 194.806 108.923 194.234C108.617 193.662 108.458 193.024 108.459 192.376C108.46 191.598 108.692 190.838 109.125 190.191C109.559 189.544 110.174 189.041 110.895 188.743C111.615 188.445 112.407 188.367 113.172 188.519Z" fill="#525252" fill-opacity="0.25"/>
<path fill-rule="evenodd" clip-rule="evenodd" d="M578.468 181.273C579.43 180.475 580.64 180.034 581.891 180.027C583.316 180.019 584.687 180.573 585.704 181.568C586.598 182.442 587.16 183.599 587.295 184.841C587.429 186.083 587.128 187.333 586.443 188.378C585.757 189.422 584.729 190.197 583.535 190.57C582.341 190.943 581.054 190.891 579.895 190.422C579.34 190.198 578.831 189.885 578.385 189.499L537.976 222.988H466V221.988H537.5L577.676 188.758C577.49 188.521 577.322 188.267 577.176 188C576.578 186.903 576.38 185.632 576.616 184.406C576.851 183.179 577.506 182.072 578.468 181.273ZM581.499 181.508C580.595 181.595 579.748 181.992 579.104 182.632H579.066C578.339 183.375 577.937 184.375 577.946 185.414C577.947 186.321 578.262 187.2 578.838 187.901C579.415 188.602 580.216 189.082 581.108 189.26C581.999 189.437 582.924 189.3 583.725 188.873C584.527 188.446 585.155 187.755 585.504 186.918C585.853 186.08 585.9 185.148 585.637 184.279C585.375 183.411 584.819 182.66 584.064 182.155C583.31 181.65 582.403 181.421 581.499 181.508Z" fill="#525252"/>
<path fill-rule="evenodd" clip-rule="evenodd" d="M103.023 297.983C103.949 297.978 104.845 297.651 105.557 297.059C106.269 296.467 106.754 295.646 106.928 294.736C107.103 293.827 106.956 292.885 106.513 292.071C106.071 291.258 105.36 290.623 104.501 290.275C103.643 289.928 102.69 289.889 101.806 290.165C100.922 290.442 100.162 291.017 99.6541 291.791C99.1466 292.566 98.9236 293.493 99.0232 294.414C99.1229 295.334 99.539 296.192 100.201 296.84C100.954 297.578 101.969 297.989 103.023 297.983ZM105.086 296.052C104.609 296.526 103.983 296.82 103.314 296.885C102.644 296.949 101.973 296.78 101.414 296.405C100.856 296.031 100.445 295.474 100.25 294.83C100.056 294.186 100.091 293.495 100.349 292.874C100.607 292.253 101.072 291.74 101.666 291.424C102.259 291.107 102.944 291.006 103.603 291.137C104.263 291.269 104.857 291.625 105.283 292.145C105.71 292.665 105.943 293.316 105.943 293.989C105.951 294.759 105.653 295.501 105.115 296.052H105.086Z" fill="#525252"/>
<g opacity="0.25">
<path fill-rule="evenodd" clip-rule="evenodd" d="M382 159.954H453.976L495 125.956L494 125.456L453.5 158.954H382V159.954Z" fill="#666666"/>
<path fill-rule="evenodd" clip-rule="evenodd" d="M497.891 116.994C496.64 117.001 495.43 117.441 494.468 118.24C493.506 119.038 492.851 120.145 492.615 121.372C492.38 122.599 492.578 123.869 493.176 124.966C493.774 126.064 494.735 126.92 495.895 127.388C497.054 127.857 498.341 127.91 499.535 127.537C500.729 127.164 501.757 126.389 502.442 125.344C503.128 124.299 503.429 123.049 503.295 121.807C503.16 120.566 502.598 119.409 501.704 118.535C500.686 117.539 499.316 116.985 497.891 116.994ZM495.104 119.598C495.748 118.958 496.595 118.561 497.499 118.475C498.403 118.388 499.31 118.616 500.064 119.121C500.819 119.627 501.375 120.377 501.637 121.246C501.9 122.114 501.852 123.047 501.504 123.884C501.155 124.722 500.527 125.413 499.725 125.84C498.923 126.267 497.998 126.403 497.107 126.226C496.216 126.049 495.414 125.569 494.838 124.867C494.262 124.166 493.947 123.287 493.946 122.38C493.937 121.342 494.339 120.342 495.066 119.598H495.104Z" fill="#666666"/>
</g>
<path fill-rule="evenodd" clip-rule="evenodd" d="M223.963 142.318L223.963 67.3462L189.963 29.3245L189.463 30.3244L222.963 67.8223L222.963 142.318L223.963 142.318Z" fill="#666666"/>
<path fill-rule="evenodd" clip-rule="evenodd" d="M182 26.525C182.006 27.567 182.374 28.5745 183.04 29.3757C183.706 30.1768 184.629 30.7221 185.653 30.9183C186.676 31.1145 187.736 30.9495 188.651 30.4514C189.566 29.9534 190.28 29.1533 190.671 28.1875C191.062 27.2217 191.106 26.1501 190.795 25.1557C190.484 24.1612 189.837 23.3056 188.966 22.7346C188.094 22.1637 187.052 21.9128 186.016 22.0249C184.98 22.137 184.015 22.6052 183.286 23.3494C182.455 24.197 181.993 25.3384 182 26.525ZM184.173 28.8457C183.639 28.3094 183.308 27.6046 183.235 26.8515C183.163 26.0984 183.354 25.3434 183.775 24.7151C184.197 24.0867 184.823 23.6239 185.547 23.4053C186.272 23.1868 187.049 23.226 187.748 23.5163C188.447 23.8066 189.023 24.3301 189.379 24.9976C189.736 25.6652 189.849 26.4355 189.702 27.1775C189.554 27.9196 189.153 28.5874 188.568 29.0673C187.983 29.5473 187.25 29.8098 186.494 29.81C185.627 29.8181 184.793 29.483 184.173 28.8779L184.173 28.8457Z" fill="#666666"/>
<path fill-rule="evenodd" clip-rule="evenodd" d="M42 310.982C42.9254 310.982 43.8221 311.303 44.5375 311.89C45.2529 312.477 45.7426 313.294 45.9231 314.202C46.1037 315.11 45.9639 316.052 45.5277 316.868C45.0915 317.684 44.3858 318.324 43.5308 318.678C42.6758 319.032 41.7245 319.079 40.8389 318.81C39.9534 318.542 39.1883 317.974 38.6742 317.205C38.16 316.435 37.9286 315.511 38.0193 314.59C38.11 313.669 38.5172 312.808 39.1715 312.154C39.5426 311.782 39.9835 311.487 40.4689 311.286C40.9543 311.085 41.4746 310.982 42 310.982ZM43.8012 313.181C43.3848 312.763 42.8364 312.502 42.2493 312.444C41.6623 312.385 41.0729 312.531 40.5818 312.858C40.0907 313.185 39.7282 313.672 39.556 314.237C39.3839 314.801 39.4128 315.408 39.6378 315.953C39.8629 316.498 40.2701 316.949 40.7901 317.228C41.3101 317.506 41.9107 317.596 42.4895 317.482C43.0683 317.367 43.5895 317.056 43.9642 316.6C44.3389 316.144 44.544 315.572 44.5444 314.982C44.5444 314.307 44.2772 313.66 43.8012 313.181Z" fill="#525252"/>
<path fill-rule="evenodd" clip-rule="evenodd" d="M284.495 443.975C285.305 443.974 286.09 444.254 286.717 444.767C287.344 445.28 287.773 445.995 287.932 446.789C288.091 447.583 287.969 448.408 287.588 449.122C287.207 449.837 286.59 450.397 285.841 450.708C285.093 451.018 284.261 451.06 283.486 450.825C282.71 450.59 282.041 450.094 281.59 449.42C281.14 448.747 280.938 447.939 281.017 447.133C281.096 446.326 281.453 445.573 282.025 445C282.349 444.674 282.733 444.416 283.157 444.24C283.581 444.064 284.036 443.974 284.495 443.975ZM286.3 445.665C285.883 445.25 285.335 444.992 284.749 444.936C284.163 444.88 283.576 445.028 283.087 445.356C282.599 445.684 282.239 446.171 282.069 446.734C281.899 447.297 281.929 447.902 282.155 448.446C282.381 448.989 282.788 449.438 283.307 449.715C283.826 449.992 284.426 450.08 285.003 449.965C285.58 449.85 286.099 449.539 286.473 449.084C286.846 448.629 287.05 448.059 287.05 447.47C287.048 446.8 286.78 446.158 286.305 445.685L286.3 445.665Z" fill="#525252"/>
<path opacity="0.3" fill-rule="evenodd" clip-rule="evenodd" d="M110.153 22.1185C109.255 21.3882 108.131 20.9925 106.973 20.9989C105.655 21.0032 104.393 21.53 103.464 22.4637C102.645 23.2826 102.136 24.3603 102.024 25.5127C101.911 26.6651 102.202 27.821 102.847 28.7828C103.492 29.7446 104.45 30.4528 105.559 30.7866C106.668 31.1203 107.858 31.0589 108.926 30.6128C109.295 30.4588 109.642 30.2622 109.96 30.0287L181 104.494V137.611L181.971 136.993V104.193L110.975 29.0314C111.141 28.8147 111.289 28.5838 111.418 28.3404C111.96 27.3174 112.13 26.1378 111.9 25.0031C111.669 23.8684 111.052 22.8488 110.153 22.1185ZM107.196 23.4882C107.774 23.544 108.316 23.7988 108.727 24.2093H108.745C109.206 24.6764 109.465 25.307 109.464 25.9637C109.469 26.5449 109.272 27.1099 108.907 27.562C108.542 28.0141 108.031 28.3253 107.461 28.4426C106.892 28.5599 106.3 28.4759 105.786 28.2049C105.271 27.9339 104.867 27.4929 104.642 26.957C104.417 26.4211 104.385 25.8237 104.552 25.2668C104.718 24.71 105.073 24.2281 105.555 23.9037C106.037 23.5793 106.617 23.4325 107.196 23.4882Z" fill="#666666"/>
<path fill-rule="evenodd" clip-rule="evenodd" d="M561.511 340.99C560.919 340.988 560.332 341.102 559.784 341.328C559.236 341.553 558.739 341.885 558.32 342.303C557.901 342.72 557.569 343.216 557.343 343.762C557.117 344.307 557 344.892 557 345.483C557 346.073 557.117 346.658 557.343 347.204C557.569 347.749 557.901 348.245 558.32 348.662C558.737 349.08 559.233 349.412 559.779 349.638C560.325 349.864 560.911 349.981 561.502 349.981C562.093 349.981 562.678 349.864 563.224 349.638C563.77 349.412 564.266 349.08 564.684 348.662C565.313 348.033 565.741 347.231 565.914 346.359C566.087 345.486 565.998 344.583 565.657 343.761C565.317 342.939 564.741 342.237 564.001 341.742C563.262 341.247 562.392 340.982 561.502 340.981L561.511 340.99ZM559.568 343.551C560.082 343.037 560.78 342.748 561.507 342.748C562.234 342.748 562.931 343.037 563.445 343.551C563.959 344.064 564.248 344.761 564.248 345.487C564.248 346.214 563.959 346.91 563.445 347.424C562.93 347.936 562.233 348.223 561.507 348.223C560.78 348.223 560.084 347.936 559.568 347.424C559.056 346.909 558.769 346.213 558.769 345.487C558.769 344.762 559.056 344.065 559.568 343.551Z" fill="#525252"/>
<path opacity="0.3" fill-rule="evenodd" clip-rule="evenodd" d="M589.852 310.838C590.642 310.196 591.632 309.848 592.651 309.854C593.81 309.858 594.92 310.321 595.738 311.141C596.459 311.86 596.907 312.807 597.006 313.82C597.105 314.832 596.849 315.847 596.282 316.692C595.714 317.537 594.871 318.16 593.895 318.453C592.919 318.746 591.872 318.692 590.931 318.3C589.991 317.908 589.216 317.203 588.739 316.304C588.518 315.887 588.367 315.441 588.289 314.983H527.5H466V313.983H588.234C588.247 313.778 588.273 313.574 588.315 313.372C588.518 312.375 589.061 311.479 589.852 310.838ZM591.826 312.195C591.557 312.306 591.312 312.469 591.107 312.674H591.084C590.678 313.1 590.456 313.667 590.466 314.254C590.468 314.69 590.6 315.115 590.844 315.476C591.088 315.837 591.434 316.118 591.838 316.283C592.242 316.448 592.686 316.49 593.113 316.403C593.541 316.316 593.933 316.105 594.241 315.796C594.447 315.591 594.61 315.348 594.721 315.08C594.832 314.812 594.89 314.525 594.89 314.235C594.89 313.945 594.832 313.658 594.721 313.39C594.61 313.122 594.447 312.879 594.241 312.674C594.035 312.469 593.791 312.306 593.522 312.195C593.253 312.083 592.965 312.026 592.674 312.026C592.383 312.026 592.095 312.083 591.826 312.195Z" fill="#666666"/>
<circle cx="56.5" cy="229.487" r="4" stroke="#666666"/>
<path opacity="0.25" fill-rule="evenodd" clip-rule="evenodd" d="M85 273.485C85 274.866 83.8807 275.985 82.5 275.985C81.1193 275.985 80 274.866 80 273.485C80 272.104 81.1193 270.985 82.5 270.985C83.8807 270.985 85 272.104 85 273.485ZM86 273.485C86 275.418 84.433 276.985 82.5 276.985C80.567 276.985 79 275.418 79 273.485C79 271.552 80.567 269.985 82.5 269.985C84.433 269.985 86 271.552 86 273.485ZM86 273.485V273.985H180V272.985H86V273.485Z" fill="#666666"/>
<path d="M164 155.991H121V156.991H164V155.991Z" fill="#525252"/>
<path opacity="0.25" fill-rule="evenodd" clip-rule="evenodd" d="M534 261.486C534 263.419 535.567 264.986 537.5 264.986C539.433 264.986 541 263.419 541 261.486C541 259.553 539.433 257.986 537.5 257.986C535.567 257.986 534 259.553 534 261.486ZM533.027 261.986C533.276 264.236 535.184 265.986 537.5 265.986C539.985 265.986 542 263.971 542 261.486C542 259 539.985 256.986 537.5 256.986C535.184 256.986 533.276 258.736 533.027 260.986H466V261.986H533.027Z" fill="#666666"/>
<path d="M166 228.987H60V229.987H166V228.987Z" fill="#525252"/>
<path opacity="0.7" d="M304.513 358.98C304.513 357.323 305.862 355.98 307.525 355.98H348.188H461.14C462.804 355.98 464.152 357.323 464.152 358.98V420.976C464.152 422.633 462.804 423.976 461.14 423.976H307.525C305.862 423.976 304.513 422.633 304.513 420.976V401.477V358.98Z" fill="#525252"/>
<path fill-rule="evenodd" clip-rule="evenodd" d="M466 358.98V420.976C466 423.737 463.761 425.976 461 425.976H308C305.239 425.976 303 423.737 303 420.976V358.98C303 356.218 305.239 353.98 308 353.98H461C463.761 353.98 466 356.218 466 358.98ZM308 355.98C306.343 355.98 305 357.323 305 358.98V420.976C305 422.633 306.343 423.976 308 423.976H461C462.657 423.976 464 422.633 464 420.976V358.98C464 357.323 462.657 355.98 461 355.98H308Z" fill="#AAAAAA"/>
<path opacity="0.7" d="M338.38 304.043C338.853 302.854 346.227 276.984 347.5 276.984L462.722 276.984C464.443 276.984 465.837 278.387 465.837 280.117V344.848C465.837 346.578 464.443 347.98 462.722 347.98H302.015C299.353 347.98 297.837 346.414 297.837 343.282C302.015 343.282 325.92 316.571 338.38 304.043Z" fill="#525252"/>
<path fill-rule="evenodd" clip-rule="evenodd" d="M466 281.984V343.981C466 346.742 463.761 348.98 461 348.98H309.523C305.251 348.98 302.946 343.97 305.726 340.727L334.477 321.186L334.481 321.18L354.159 298.061C354.229 297.978 354.285 297.885 354.325 297.784L361.389 280.127C362.148 278.229 363.987 276.984 366.031 276.984H461C463.761 276.984 466 279.223 466 281.984ZM336 322.482L307.245 342.028C305.577 343.974 306.96 346.98 309.523 346.98H461C462.657 346.98 464 345.637 464 343.981V281.984C464 280.327 462.657 278.984 461 278.984H366.031C364.804 278.984 363.701 279.731 363.246 280.87L356.182 298.527C356.062 298.829 355.892 299.109 355.682 299.357L336 322.482Z" fill="#AAAAAA"/>
<path opacity="0.7" d="M374.608 204.989C374.608 204.989 376.052 202.287 377.593 202.287L462.837 201.989C464.494 201.989 465.837 203.332 465.837 204.989V266.985C465.837 268.642 464.494 269.985 462.837 269.985H362.337C360.337 269.985 358.897 268.065 359.457 266.145C359.067 245.986 372.544 225.631 374.608 204.989Z" fill="#525252"/>
<path fill-rule="evenodd" clip-rule="evenodd" d="M466 204.988V266.985C466 269.746 463.761 271.985 461 271.985H370.5C367.167 271.985 364.767 268.785 365.7 265.585L371.504 245.686C371.588 245.398 371.698 245.118 371.832 244.85L383.464 221.587C383.519 221.478 383.553 221.36 383.565 221.239L385.24 204.491C385.495 201.935 387.646 199.989 390.215 199.989H461C463.761 199.989 466 202.227 466 204.988ZM385.555 221.438C385.519 221.801 385.416 222.155 385.253 222.481L373.621 245.744C373.541 245.905 373.475 246.073 373.424 246.246L367.62 266.145C367.06 268.065 368.5 269.985 370.5 269.985H461C462.657 269.985 464 268.642 464 266.985V204.988C464 203.332 462.657 201.989 461 201.989H390.215C388.674 201.989 387.383 203.156 387.23 204.69L385.555 221.438Z" fill="#AAAAAA"/>
<rect x="412" y="219.988" width="8" height="2" rx="1" fill="#FFA363"/>
<rect x="426" y="219.988" width="8" height="2" rx="1" fill="#FFA363"/>
<rect x="440" y="219.988" width="8" height="2" rx="1" fill="#9ADAF3"/>
<path d="M402 219.988H385.226C384.364 219.988 384 220.399 384 220.654V221.321C384 221.576 384.364 221.988 385.226 221.988H402C403 221.988 403 220.988 403 220.988C403 220.988 403 219.988 402 219.988Z" fill="#9ADAF3"/>
<rect x="412" y="297.983" width="8" height="2" rx="1" fill="#FFA363"/>
<rect x="426" y="297.983" width="8" height="2" rx="1" fill="#FFA363"/>
<rect x="440" y="297.983" width="8" height="2" rx="1" fill="#9ADAF3"/>
<path d="M401.684 297.983H357.5C356.366 297.983 355.887 298.395 355.887 298.65V299.316C355.887 299.571 356.366 299.983 357.5 299.983H401.684C403 299.983 403 298.983 403 298.983C403 298.983 403 297.983 401.684 297.983Z" fill="#9ADAF3"/>
<rect x="412" y="372.979" width="8" height="2" rx="1" fill="#FFA363"/>
<path d="M326 373.979C326 373.427 326.448 372.979 327 372.979L401 372.979C401.552 372.979 402 373.427 402 373.979C402 374.531 401.552 374.979 401 374.979H327C326.448 374.979 326 374.531 326 373.979Z" fill="#FFA363"/>
<path d="M326 383.979C326 383.427 326.448 382.979 327 382.979H401C401.552 382.979 402 383.427 402 383.979C402 384.531 401.552 384.979 401 384.979H327C326.448 384.979 326 384.531 326 383.979Z" fill="#9ADAF3"/>
<path d="M326 393.978C326 393.425 326.448 392.978 327 392.978H401C401.552 392.978 402 393.425 402 393.978C402 394.53 401.552 394.978 401 394.978H327C326.448 394.978 326 394.53 326 393.978Z" fill="#FFA363"/>
<path d="M326 403.977C326 403.425 326.448 402.977 327 402.977H401C401.552 402.977 402 403.425 402 403.977C402 404.53 401.552 404.977 401 404.977H327C326.448 404.977 326 404.53 326 403.977Z" fill="#FFA363"/>
<rect x="426" y="372.979" width="8" height="2" rx="1" fill="#FFA363"/>
<rect x="440" y="372.979" width="8" height="2" rx="1" fill="#9ADAF3"/>
<rect x="412" y="239.987" width="8" height="2" rx="1" fill="#9ADAF3"/>
<rect x="426" y="239.987" width="8" height="2" rx="1" fill="#FFA363"/>
<rect x="440" y="239.987" width="8" height="2" rx="1" fill="#FFA363"/>
<path d="M401.684 239.987H379.613C378.479 239.987 378 240.398 378 240.653V241.32C378 241.575 378.479 241.987 379.613 241.987H401.684C403 241.987 403 240.987 403 240.987C403 240.987 403 239.987 401.684 239.987Z" fill="#FFA363"/>
<rect x="412" y="317.982" width="8" height="2" rx="1" fill="#9ADAF3"/>
<rect x="426" y="317.982" width="8" height="2" rx="1" fill="#FFA363"/>
<rect x="440" y="317.982" width="8" height="2" rx="1" fill="#FFA363"/>
<path d="M401.316 317.982H348.5C347.049 317.982 346.435 318.394 346.435 318.649V319.316C346.435 319.57 347.049 319.982 348.5 319.982H401.316C403 319.982 403 318.982 403 318.982C403 318.982 403 317.982 401.316 317.982Z" fill="#9ADAF3"/>
<rect x="412" y="392.978" width="8" height="2" rx="1" fill="#9ADAF3"/>
<rect x="426" y="392.978" width="8" height="2" rx="1" fill="#FFA363"/>
<rect x="440" y="392.978" width="8" height="2" rx="1" fill="#FFA363"/>
<rect x="412" y="229.987" width="8" height="2" rx="1" fill="#FFA363"/>
<rect x="426" y="229.987" width="8" height="2" rx="1" fill="#9ADAF3"/>
<rect x="440" y="229.987" width="8" height="2" rx="1" fill="#9ADAF3"/>
<path d="M402 229.987H385.226C384.364 229.987 384 230.399 384 230.654V231.32C384 231.575 384.364 231.987 385.226 231.987H402C403 231.987 403 230.987 403 230.987C403 230.987 403 229.987 402 229.987Z" fill="#FFA363"/>
<rect x="412" y="307.983" width="8" height="2" rx="1" fill="#FFA363"/>
<rect x="426" y="307.983" width="8" height="2" rx="1" fill="#9ADAF3"/>
<rect x="440" y="307.983" width="8" height="2" rx="1" fill="#9ADAF3"/>
<path d="M401.474 307.983H352C350.685 307.983 350.129 308.395 350.129 308.649V309.316C350.129 309.571 350.685 309.983 352 309.983H401.474C403 309.983 403 308.983 403 308.983C403 308.983 403 307.983 401.474 307.983Z" fill="#FFA363"/>
<rect x="412" y="382.979" width="8" height="2" rx="1" fill="#FFA363"/>
<rect x="426" y="382.979" width="8" height="2" rx="1" fill="#9ADAF3"/>
<rect x="440" y="382.979" width="8" height="2" rx="1" fill="#9ADAF3"/>
<rect x="412" y="249.986" width="8" height="2" rx="1" fill="#FFA363"/>
<rect x="426" y="249.986" width="8" height="2" rx="1" fill="#FFA363"/>
<rect x="440" y="249.986" width="8" height="2" rx="1" fill="#9ADAF3"/>
<path d="M401.474 249.986H375.871C374.556 249.986 374 250.398 374 250.653V251.319C374 251.574 374.556 251.986 375.871 251.986H401.474C403 251.986 403 250.986 403 250.986C403 250.986 403 249.986 401.474 249.986Z" fill="#9ADAF3"/>
<rect x="412" y="327.981" width="8" height="2" rx="1" fill="#FFA363"/>
<rect x="426" y="327.981" width="8" height="2" rx="1" fill="#FFA363"/>
<rect x="440" y="327.981" width="8" height="2" rx="1" fill="#9ADAF3"/>
<path d="M402 327.981H340.5C338.823 327.981 338.113 328.393 338.113 328.648V329.315C338.113 329.57 338.823 329.981 340.5 329.981H402C403 329.981 403 328.981 403 328.981C403 328.981 403 327.981 402 327.981Z" fill="#9ADAF3"/>
<rect x="412" y="402.977" width="8" height="2" rx="1" fill="#FFA363"/>
<rect x="426" y="402.977" width="8" height="2" rx="1" fill="#FFA363"/>
<rect x="440" y="402.977" width="8" height="2" rx="1" fill="#9ADAF3"/>
<path fill-rule="evenodd" clip-rule="evenodd" d="M384.147 138.413C382.503 138.413 380.457 138.467 377.972 138.351C359.214 137.581 336.472 138.012 321.018 131.5C305.564 124.989 291.569 115.387 278.793 102.363C274.617 98.1096 271.846 94.8191 269.939 92.4764C267.777 89.8717 266.697 88.577 266.079 88.5848C265.454 88.5848 264.381 89.8717 262.22 92.4764C260.267 94.7883 257.534 98.1096 253.365 102.363C240.582 115.387 226.618 124.973 211.14 131.5C195.663 138.028 184.539 137.604 165.781 138.351C163.296 138.467 161.25 138.436 159.606 138.413C156.912 138.413 155.43 138.359 154.974 138.929C154.279 139.777 154.488 142.42 154.974 148.269C155.044 149.163 155.121 150.134 155.213 151.352C156.927 173.753 160.107 214.689 173.84 256.518C187.573 298.347 211.758 340.931 255.542 366.978L255.828 367.155C264.064 372.049 268.179 374.522 271.938 374.576C272.787 374.576 273.66 374.576 274.501 374.576C278.299 374.407 282.583 371.902 290.858 367.07L291.414 366.747C337.445 339.868 362.911 295.85 377.316 252.773C391.72 209.695 395.07 167.373 396.9 144.262C396.992 143.006 397.077 142.004 397.154 141.079C397.51 137.935 395.973 138.559 391.674 138.344C391.519 138.344 384.502 138.421 384.201 138.421L384.147 138.413ZM369.828 181.105C365.536 227.342 351.077 317.689 272.363 352.86L271.869 353.084L271.375 352.86C191.263 317.057 178.101 224.098 174.157 178.701C173.462 170.702 172.273 163.019 172.003 154.973H173.477C194.266 155.467 206.169 152.947 222.287 145.603C238.405 138.259 252.462 126.669 265.091 110.154L266.072 108.867L267.052 110.154C279.681 126.669 293.761 138.266 309.864 145.603C325.966 152.939 349.95 155.467 370.731 154.973H372.213C371.819 163.597 370.6 172.443 369.828 181.105Z" fill="url(#paint0_linear)"/>
<path fill-rule="evenodd" clip-rule="evenodd" d="M291 264.524L282.584 221.959C284.714 220.44 286.443 218.431 287.623 216.105C288.803 213.778 289.399 211.203 289.36 208.598C289.359 205.762 288.627 202.973 287.234 200.497C285.841 198.021 283.833 195.941 281.402 194.454C278.97 192.968 276.196 192.124 273.344 192.004C270.491 191.884 267.655 192.491 265.106 193.768C262.556 195.045 260.379 196.949 258.78 199.299C257.181 201.649 256.214 204.367 255.972 207.193C255.729 210.019 256.219 212.859 257.394 215.444C258.57 218.029 260.392 220.272 262.687 221.959L254 265.615C262.441 274.808 282.584 273.707 291 264.524Z" fill="url(#paint1_linear)"/>
<path fill-rule="evenodd" clip-rule="evenodd" d="M592.037 422.976H556.037V468.974H583.853L592.037 460.743V422.976Z" fill="#4A4A4A"/>
<path fill-rule="evenodd" clip-rule="evenodd" d="M592 422.976H556V468.974H583V459.974H592V422.976ZM584 468.474V460.974H591.5L584 468.474ZM555 421.976H593V460.974L584 469.974H555V421.976ZM585 452.975H562V453.975H585V452.975ZM562 447.975H585V448.975H562V447.975ZM585 442.975H562V443.975H585V442.975ZM562 437.976H585V438.976H562V437.976ZM585 432.976H562V433.976H585V432.976ZM562 457.974H578V458.974H562V457.974Z" fill="#808080"/>
<path fill-rule="evenodd" clip-rule="evenodd" d="M577 82.9956H552V114.994H571.317L577 109.268V82.9956Z" fill="#4A4A4A"/>
<path fill-rule="evenodd" clip-rule="evenodd" d="M574 79.9955H549V111.994H568V106.026L574 105.994V79.9955ZM569 110.994V106.994H573L569 110.994ZM548 78.9956H575V106.494L568.471 112.994L548 113.035V78.9956ZM569 100.994H553V101.994H569V100.994ZM553 96.9945H569V97.9945H553V96.9945ZM568 92.9956H564V89.9956H568V92.9956ZM559 92.9956H563V89.9956H559V92.9956ZM559 88.9956H563V85.9956H559V88.9956ZM568 88.9956H564V85.9956H568V88.9956ZM569 85.9956V84.9956H553V85.9956V88.9956V89.9956V92.9956V93.9956H569V92.9956V89.9956V88.9956V85.9956ZM558 89.9956V92.9956H554V89.9956H558ZM558 85.9956V88.9956H554V85.9956H558ZM553 104.994H564V105.994H553V104.994Z" fill="#808080"/>
<path fill-rule="evenodd" clip-rule="evenodd" d="M689 347.981H664V379.979H683.317L689 374.253V347.981Z" fill="#4A4A4A"/>
<path fill-rule="evenodd" clip-rule="evenodd" d="M686 344.981H661V376.979H680V371.011L686 370.979V344.981ZM681 375.979V371.979H685L681 375.979ZM660 343.981H687V371.479L680.471 377.979L660 378.02V343.981ZM680 365.979H676V362.98H680V365.979ZM680 366.979H676L676 369.979L676 369.98L676 370.979H671V370.98H670V370.979H666V370.98H665V370.979V369.979V366.979V365.979V362.98V361.98V358.981V357.981V354.981V353.981V350.981V349.981H681V350.981V353.981V354.981V357.981V358.981V361.98V362.98V365.979V366.979V366.981L680 366.981V366.979ZM666 369.979H670V366.979H666V369.979ZM671 369.979H675V366.979H671V369.979ZM675 362.98V365.979H671V362.98H675ZM680 361.98H676L676 358.981H680V361.98ZM675 361.98L675 358.981H671L671 361.98H675ZM680 357.981H676V354.981H680V357.981ZM675 357.981V354.981H671V357.981H675ZM680 353.981H676V350.981H680V353.981ZM675 353.981V350.981H671V353.981H675ZM670 362.98V365.979H666V362.98H670ZM670 358.981L670 361.98H666V358.981H670ZM670 354.981V357.981H666L666 354.981H670ZM670 350.981V353.981H666V350.981H670Z" fill="#808080"/>
<path fill-rule="evenodd" clip-rule="evenodd" d="M405 94.9947H463V21.9988H418.183L405 35.0569V94.9947Z" fill="#525252"/>
<path fill-rule="evenodd" clip-rule="evenodd" d="M428 57.9971V50.9971H421C421 52.8004 421.694 54.5343 422.939 55.8381C424.184 57.1419 425.882 57.9152 427.682 57.9971H428Z" fill="#656565"/>
<path fill-rule="evenodd" clip-rule="evenodd" d="M461 92.9947H405V35.9889H418V22.9987H461V92.9947ZM416 33.998V24.4986L406.5 33.998H416ZM403 94.9946H463V20.9988H416.781L403 34.4854V94.9946ZM438 38.9988H452V40.9988H438V38.9988ZM452 44.9975H438V46.9975H452V44.9975ZM452 50.9971H438V52.9971H452V50.9971ZM438 56.9968H452V58.9968H438V56.9968ZM452 62.9965H415V64.9965H452V62.9965ZM415 68.9961H452V70.9961H415V68.9961ZM452 74.9958H415V76.9958H452V74.9958ZM430.705 42.0365C429.094 40.7166 427.075 39.9961 424.993 39.9978C423.812 39.9966 422.642 40.2288 421.551 40.6811C420.461 41.1335 419.47 41.7969 418.636 42.6334C417.164 44.1058 416.247 46.0433 416.043 48.1157C415.839 50.1881 416.36 52.2671 417.518 53.9984C418.675 55.7296 420.397 57.006 422.39 57.61C424.383 58.2139 426.524 58.108 428.447 57.3103C430.371 56.5127 431.959 55.0726 432.939 53.2356C433.92 51.3986 434.233 49.2785 433.826 47.2363C433.419 45.1941 432.315 43.3565 430.705 42.0365ZM425.657 42.199C427.228 42.3527 428.697 43.0462 429.814 44.1613C430.449 44.7945 430.953 45.5471 431.296 46.3757C431.64 47.2043 431.816 48.0926 431.815 48.9895C431.815 50.5676 431.268 52.0969 430.267 53.3168C429.265 54.5367 427.872 55.3717 426.324 55.6797C426.217 55.7012 426.108 55.72 426 55.7362V47.9977H418.243C418.291 47.6655 418.365 47.3357 418.463 47.011C418.921 45.5006 419.888 44.1956 421.2 43.3182C422.511 42.4408 424.087 42.0453 425.657 42.199ZM418.246 50.0049C418.328 50.5494 418.477 51.0856 418.69 51.6013C419.295 53.0591 420.386 54.2624 421.778 55.006C422.476 55.379 423.228 55.6248 424 55.7383V50.0377L418.246 50.0049Z" fill="#AAAAAA"/>
<path fill-rule="evenodd" clip-rule="evenodd" d="M612 251.986H660V190.989H623.074L612 201.989V251.986Z" fill="#525252"/>
<path fill-rule="evenodd" clip-rule="evenodd" d="M658 249.986H614V203.989H625V192.989H658V249.986ZM623 201.989V193.989L615 201.989H623ZM612 251.986H660V190.989H623.058L612 201.989V251.986ZM632 207.989H650V209.989H632V207.989ZM650 212.988H622V214.988H650V212.988ZM632 202.989H650V204.989H632V202.989ZM622 221.988H651V241.986H622V221.988ZM649 223.987H624V239.601L634.607 232.321V235.787L645.804 228.888L643.118 228.882V227.987L648 228L645.993 232.461L645.182 232.089L646.289 229.638L633.714 237.521V234.054L625.025 239.986H649V223.987Z" fill="#AAAAAA"/>
<path fill-rule="evenodd" clip-rule="evenodd" d="M352 492.988H318V536.985H344.277L352 529.114V492.988Z" fill="#4A4A4A"/>
<path fill-rule="evenodd" clip-rule="evenodd" d="M352 492.972H318V536.97H344V528.97H352V492.972ZM345 536.47V529.97H351.5L345 536.47ZM317.813 491.972H353V529.97L345.002 538H317V491.972H317.813ZM347 518.971H324V519.971H347V518.971ZM324 515.971H347V516.971H324V515.971ZM347 521.971H324V522.971H347V521.971ZM324 524.97H341V525.97H324V524.97ZM324.725 500.972H336V512.972H324V500.972H324.725ZM335 501.972H325V511.972H335V501.972ZM339 502.972H347V503.972H339V502.972ZM347 505.972H339V506.972H347V505.972ZM339 508.971H347V509.971H339V508.971Z" fill="#AAAAAA"/>
<defs>
<linearGradient id="paint0_linear" x1="319" y1="354.981" x2="215.911" y2="112.819" gradientUnits="userSpaceOnUse">
<stop stop-color="#FF7743"/>
<stop offset="1" stop-color="#FF985B"/>
</linearGradient>
<linearGradient id="paint1_linear" x1="57524.4" y1="138263" x2="52129" y2="135781" gradientUnits="userSpaceOnUse">
<stop stop-color="#FF7743"/>
<stop offset="1" stop-color="#FFA363"/>
</linearGradient>
</defs>
</svg>
