<svg width="544" height="104" viewBox="0 0 544 104" fill="none" xmlns="http://www.w3.org/2000/svg">
<path d="M54.5 28C54.5 26.6193 55.6193 25.5 57 25.5H76C77.3807 25.5 78.5 26.6193 78.5 28V47C78.5 48.3807 77.3807 49.5 76 49.5H57C55.6193 49.5 54.5 48.3807 54.5 47V28Z" stroke="#333333"/>
<path d="M62 31H72" stroke="#FF6F3D" stroke-width="2" stroke-linecap="round" stroke-linejoin="round"/>
<path d="M64.2472 62.2442L71.1678 65.993C71.5139 66.1804 71.5177 66.6758 71.1745 66.8686L64.2947 70.7325C63.9624 70.9191 63.5519 70.6803 63.5498 70.2992L63.509 62.6865C63.507 62.3065 63.913 62.0632 64.2472 62.2442Z" fill="url(#paint0_linear_8999_66228)" stroke="#333333" stroke-linecap="round" stroke-linejoin="round"/>
<rect x="54.5" y="54.5" width="24" height="24" rx="2.5" stroke="#333333"/>
<rect x="29.5" y="58.5" width="16" height="16" rx="0.5" stroke="#333333"/>
<rect x="29.5" y="58.5" width="16" height="4" rx="0.5" fill="#D9F4FF" stroke="#333333"/>
<rect x="25.5" y="54.5" width="24" height="24" rx="2.5" stroke="#333333"/>
<path d="M60.437 43.0901C60.4405 43.083 60.4437 43.0757 60.4469 43.0684C60.5195 42.8969 60.8323 42.4893 61.4197 42.5002C62.0644 42.5122 62.3893 42.84 62.4581 42.9389L64.199 46.5H58.7956L59.4438 45.1535L60.437 43.0901Z" stroke="#333333" stroke-linecap="round" stroke-linejoin="round"/>
<path d="M66.779 39.3361C66.7828 39.3272 66.7863 39.3182 66.7895 39.3091C66.8639 39.0998 67.0529 38.7565 67.3601 38.4755C67.6586 38.2024 68.0543 37.9993 68.5681 38.0107C69.6812 38.0355 70.2854 38.7427 70.4299 39.0317L70.4305 39.0328L74.1886 46.5H63.7539L66.779 39.3361Z" stroke="#333333" stroke-linecap="round" stroke-linejoin="round"/>
<circle cx="60" cy="38" r="1.5" fill="url(#paint1_linear_8999_66228)" stroke="#333333"/>
<rect x="25.5" y="25.5" width="24" height="24" rx="2.5" stroke="#333333"/>
<path fill-rule="evenodd" clip-rule="evenodd" d="M37.3958 35.5C37.3958 35.2239 37.6197 35 37.8958 35H45.5C45.7761 35 46 35.2239 46 35.5C46 35.7761 45.7761 36 45.5 36H37.8958C37.6197 36 37.3958 35.7761 37.3958 35.5ZM29 38.5186C29 38.2425 29.2239 38.0186 29.5 38.0186H45.5C45.7761 38.0186 46 38.2425 46 38.5186C46 38.7948 45.7761 39.0186 45.5 39.0186H29.5C29.2239 39.0186 29 38.7948 29 38.5186ZM29 41.5932C29 41.317 29.2239 41.0932 29.5 41.0932H37.9272C38.2034 41.0932 38.4272 41.317 38.4272 41.5932C38.4272 41.8693 38.2034 42.0932 37.9272 42.0932H29.5C29.2239 42.0932 29 41.8693 29 41.5932ZM29 44.5C29 44.2239 29.2239 44 29.5 44H36.2189C36.495 44 36.7189 44.2239 36.7189 44.5C36.7189 44.7761 36.495 45 36.2189 45H29.5C29.2239 45 29 44.7761 29 44.5ZM38.2814 44.5C38.2814 44.2239 38.5053 44 38.7814 44H45.5C45.7761 44 46 44.2239 46 44.5C46 44.7761 45.7761 45 45.5 45H38.7814C38.5053 45 38.2814 44.7761 38.2814 44.5Z" fill="#333333"/>
<path fill-rule="evenodd" clip-rule="evenodd" d="M29.5 35C29.2239 35 29 35.2239 29 35.5C29 35.7761 29.2239 36 29.5 36H35.5C35.7761 36 36 35.7761 36 35.5C36 35.2239 35.7761 35 35.5 35H29.5ZM40.5 41C40.2239 41 40 41.2239 40 41.5C40 41.7761 40.2239 42 40.5 42H45.5C45.7761 42 46 41.7761 46 41.5C46 41.2239 45.7761 41 45.5 41H40.5Z" fill="#FF6F3D"/>
<rect x="30" y="66" width="15" height="1" fill="#333333"/>
<rect x="30" y="70" width="15" height="1" fill="#333333"/>
<rect x="41" y="62" width="13" height="1" transform="rotate(90 41 62)" fill="#333333"/>
<rect x="36" y="62" width="13" height="1" transform="rotate(90 36 62)" fill="#333333"/>
<path d="M30 31H42" stroke="#333333" stroke-width="2" stroke-linecap="round" stroke-linejoin="round"/>
<g clip-path="url(#clip0_8999_66228)">
<path fill-rule="evenodd" clip-rule="evenodd" d="M124.344 24C123.047 24 121.996 25.0421 121.996 26.3276V69.6724C121.996 70.9579 123.047 72 124.344 72H155.648C156.945 72 157.996 70.9579 157.996 69.6724V35.5C157.996 34.8827 157.749 34.2907 157.308 33.8541L148.119 24.6817C147.678 24.2452 147.081 24 146.458 24H124.344Z" fill="white"/>
<path d="M147.354 24.6464C147.211 24.5034 146.995 24.4607 146.809 24.5381C146.622 24.6154 146.5 24.7978 146.5 25V33.182C146.5 33.8578 146.664 34.4574 147.073 34.8877C147.487 35.3225 148.072 35.5001 148.732 35.5001H157C157.202 35.5001 157.385 35.3783 157.462 35.1915C157.539 35.0046 157.497 34.7896 157.354 34.6466L147.354 24.6464Z" fill="url(#paint2_linear_8999_66228)" stroke="#333333" stroke-linecap="round" stroke-linejoin="round"/>
<path fill-rule="evenodd" clip-rule="evenodd" d="M156.604 34.5643L156.602 34.5619L147.415 25.3919L147.413 25.3906C147.361 25.3384 147.311 25.2887 147.269 25.2456L147.253 25.2295C147.205 25.1807 147.167 25.1426 147.133 25.1091C147.062 25.0411 147.032 25.018 147.019 25.0095C147.008 25.007 146.971 25 146.891 25H123.344C122.591 25 121.996 25.6025 121.996 26.3276V69.6724C121.996 70.3975 122.591 71 123.344 71H155.648C156.401 71 156.996 70.3975 156.996 69.6724V35.1093C156.996 35.0214 156.987 34.9827 156.984 34.9724C156.983 34.9666 156.982 34.9644 156.976 34.9542C156.965 34.9373 156.94 34.9031 156.875 34.8351C156.825 34.7819 156.772 34.7298 156.701 34.6592C156.672 34.631 156.64 34.5998 156.604 34.5643ZM148.119 24.6817L157.308 33.8541C157.337 33.8821 157.364 33.9091 157.391 33.9353C157.779 34.3182 157.996 34.5316 157.996 35.1093V69.6724C157.996 70.9579 156.945 72 155.648 72H123.344C122.047 72 120.996 70.9579 120.996 69.6724V26.3276C120.996 25.0421 122.047 24 123.344 24H146.891C147.445 24 147.636 24.1939 147.981 24.5436C148.024 24.5873 148.07 24.6333 148.119 24.6817Z" fill="#333333"/>
<path d="M137 43H153V44H137V43Z" fill="#333333"/>
<path d="M137 46H153V47H137V46Z" fill="#333333"/>
<path d="M137 49H153V50H137V49Z" fill="#333333"/>
<path d="M137 43H138V49H137V46V43Z" fill="#333333"/>
<path d="M152 43H153V49H152V43Z" fill="#333333"/>
<path d="M147 43H148V49H147V43Z" fill="#333333"/>
<path d="M137 43H138V49H137V46V43Z" fill="#333333"/>
<path d="M142 43H143V49H142V43Z" fill="#333333"/>
<path d="M127 35.9998H143V36.9998H128L127 35.9998Z" fill="#333333"/>
<path d="M127 29.9998H142V31.9998H127V29.9998Z" fill="#333333"/>
<path d="M130 38.9998H146V39.9998H131L130 38.9998Z" fill="#333333"/>
<path fill-rule="evenodd" clip-rule="evenodd" d="M108.342 36.0343C107.823 35.5144 107.846 34.6481 108.396 34.0995L112.067 30.4325C112.616 29.8839 113.483 29.8606 114.002 30.3806L130.357 46.7363C130.52 46.8995 130.832 47.1047 130.888 47.3318L131.911 52.2195C132.164 53.235 131.198 54.2 130.182 53.9464L125.292 52.849C125.065 52.7923 124.86 52.5532 124.697 52.39L108.342 36.0343Z" fill="url(#paint3_linear_8999_66228)"/>
<path fill-rule="evenodd" clip-rule="evenodd" d="M125.004 52.3901C125.004 52.3901 125.347 52.1482 125.896 51.5996L129.567 47.9327C130.116 47.384 130.504 46.9999 130.504 46.9999C130.668 47.1631 130.833 47.1048 130.889 47.3319L131.912 52.2196C132.165 53.2351 131.199 54.2001 130.183 53.9465L125.293 52.8491C125.066 52.7924 125.167 52.5534 125.004 52.3901Z" fill="white"/>
<path fill-rule="evenodd" clip-rule="evenodd" d="M125.293 51.6108L109.077 35.5623C108.817 35.3024 108.802 34.9945 109.077 34.7202L112.701 31.1112C112.975 30.8368 113.147 30.8512 113.407 31.1112L129.726 47.3319C129.808 47.4135 129.9 47.8043 129.928 47.9179L131.019 52.3901C131.146 52.8979 130.691 53.091 130.183 52.9642L125.5 51.7762C125.387 51.7478 125.375 51.6924 125.293 51.6108ZM108.342 36.0344C107.822 35.5144 107.846 34.6482 108.395 34.0995L112.066 30.4326C112.615 29.884 113.482 29.8607 114.002 30.3806L130.357 46.7364C130.52 46.8996 130.832 47.1048 130.889 47.3319L131.911 52.2196C132.165 53.2351 131.199 54.2001 130.183 53.9465L125.293 52.8491C125.066 52.7924 124.861 52.5534 124.697 52.3901L108.342 36.0344Z" fill="#333333"/>
<path d="M114 36.7065L127.709 50.4155L128.417 49.7088L114.708 35.9998L114 36.7065Z" fill="white"/>
<path fill-rule="evenodd" clip-rule="evenodd" d="M129.888 47.5115L125.35 51.9744L126.033 52.67L130.572 48.2215L129.888 47.5115Z" fill="#333333"/>
<path fill-rule="evenodd" clip-rule="evenodd" d="M116.276 33.0086L111.009 38.2584L111.706 38.9721L116.968 33.7135L116.276 33.0086Z" fill="#333333"/>
<path fill-rule="evenodd" clip-rule="evenodd" d="M130.701 50.6843L128.705 52.8281L130.702 53.4997L131.504 52.4998L130.701 50.6843Z" fill="#333333"/>
<path d="M130.569 66.7863C130.569 72.4271 135.068 76.9999 140.617 76.9999C146.166 76.9999 150.664 72.4271 150.664 66.7863C150.664 61.1455 146.166 56.5728 140.617 56.5728C135.068 56.5728 130.569 61.1455 130.569 66.7863Z" fill="white"/>
<path d="M140.216 56C144.999 56.0015 150.878 59.5873 150.998 66.3871C151.052 69.5133 150.205 72.3581 147.935 74.2265C147.787 74.0999 147.049 73.9488 146.872 73.8546L143.824 72.2296C143.424 72.0163 143.175 71.6067 143.175 71.1614V69.9406C143.175 69.9406 144.07 68.8946 144.411 67.4414C144.694 67.2624 144.884 66.9531 144.884 66.6008V65.2647C144.884 64.9708 144.75 64.7082 144.542 64.5243V62.5929C144.542 62.5929 144.948 59.5873 140.783 59.5873C136.618 59.5873 137.024 62.5929 137.024 62.5929V64.5243C136.816 64.7082 136.683 64.9708 136.683 65.2647V66.6008C136.683 67.0499 136.991 67.4278 137.41 67.554C137.643 68.2628 137.98 68.9383 138.425 69.5525C138.537 69.7074 138.642 69.8385 138.733 69.9406V71.1923C138.733 71.6531 138.467 72.0747 138.045 72.2804L134.654 73.7073C134.459 73.803 133.568 74.1983 133.405 74.3328C131.361 72.2557 130 70.0972 130 66.8851C130 60.44 135.517 55.9985 140.216 56Z" fill="url(#paint4_linear_8999_66228)"/>
<path d="M140.617 77.4999C134.784 77.4999 130.069 72.6955 130.069 66.7863C130.069 60.8771 134.784 56.0728 140.617 56.0728C146.45 56.0728 151.164 60.8771 151.164 66.7863C151.164 72.6955 146.45 77.4999 140.617 77.4999Z" stroke="#333333"/>
<path d="M140.569 66.7863C140.569 72.4271 145.068 76.9999 150.617 76.9999C156.166 76.9999 160.664 72.4271 160.664 66.7863C160.664 61.1455 156.166 56.5728 150.617 56.5728C145.068 56.5728 140.569 61.1455 140.569 66.7863Z" fill="white"/>
<path d="M150.216 56C154.999 56.0015 160.878 59.5873 160.998 66.3871C161.052 69.5133 160.205 72.3581 157.935 74.2265C157.787 74.0999 157.049 73.9488 156.872 73.8546L153.824 72.2296C153.424 72.0163 153.175 71.6067 153.175 71.1614V69.9406C153.175 69.9406 154.07 68.8946 154.411 67.4414C154.694 67.2624 154.884 66.9531 154.884 66.6008V65.2647C154.884 64.9708 154.75 64.7082 154.542 64.5243V62.5929C154.542 62.5929 154.948 59.5873 150.783 59.5873C146.618 59.5873 147.024 62.5929 147.024 62.5929V64.5243C146.816 64.7082 146.683 64.9708 146.683 65.2647V66.6008C146.683 67.0499 146.991 67.4278 147.41 67.554C147.643 68.2628 147.98 68.9383 148.425 69.5525C148.537 69.7074 148.642 69.8385 148.733 69.9406V71.1923C148.733 71.6531 148.467 72.0747 148.045 72.2804L144.654 73.7073C144.459 73.803 143.568 74.1983 143.405 74.3328C141.361 72.2557 140 70.0972 140 66.8851C140 60.44 145.517 55.9985 150.216 56Z" fill="#9ADAF3"/>
<path d="M150.617 77.4999C144.784 77.4999 140.069 72.6955 140.069 66.7863C140.069 60.8771 144.784 56.0728 150.617 56.0728C156.45 56.0728 161.164 60.8771 161.164 66.7863C161.164 72.6955 156.45 77.4999 150.617 77.4999Z" stroke="#333333"/>
<path d="M150.569 66.7863C150.569 72.4271 155.068 76.9999 160.617 76.9999C166.166 76.9999 170.664 72.4271 170.664 66.7863C170.664 61.1455 166.166 56.5728 160.617 56.5728C155.068 56.5728 150.569 61.1455 150.569 66.7863Z" fill="white"/>
<path d="M160.216 56C164.999 56.0015 170.878 59.5873 170.998 66.3871C171.052 69.5133 170.205 72.3581 167.935 74.2265C167.787 74.0999 167.049 73.9488 166.872 73.8546L163.824 72.2296C163.424 72.0163 163.175 71.6067 163.175 71.1614V69.9406C163.175 69.9406 164.07 68.8946 164.411 67.4414C164.694 67.2624 164.884 66.9531 164.884 66.6008V65.2647C164.884 64.9708 164.75 64.7082 164.542 64.5243V62.5929C164.542 62.5929 164.948 59.5873 160.783 59.5873C156.618 59.5873 157.024 62.5929 157.024 62.5929V64.5243C156.816 64.7082 156.683 64.9708 156.683 65.2647V66.6008C156.683 67.0499 156.991 67.4278 157.41 67.554C157.643 68.2628 157.98 68.9383 158.425 69.5525C158.537 69.7074 158.642 69.8385 158.733 69.9406V71.1923C158.733 71.6531 158.467 72.0747 158.045 72.2804L154.654 73.7073C154.459 73.803 153.568 74.1983 153.405 74.3328C151.361 72.2557 150 70.0972 150 66.8851C150 60.44 155.517 55.9985 160.216 56Z" fill="url(#paint5_linear_8999_66228)"/>
<path d="M160.617 77.4999C154.784 77.4999 150.069 72.6955 150.069 66.7863C150.069 60.8771 154.784 56.0728 160.617 56.0728C166.45 56.0728 171.164 60.8771 171.164 66.7863C171.164 72.6955 166.45 77.4999 160.617 77.4999Z" stroke="#333333"/>
</g>
<path fill-rule="evenodd" clip-rule="evenodd" d="M211.406 28.5624C211.153 28.922 211.017 29.4423 211.017 30.0244V72.148C211.017 73.2821 211.732 74.0001 212.393 74.0001H214.517C214.793 74.0001 215.017 74.2239 215.017 74.5001C215.017 74.7762 214.793 75.0001 214.517 75.0001H212.393C210.981 75.0001 210.017 73.6119 210.017 72.148V30.0244C210.017 29.3074 210.182 28.5656 210.587 27.9877C211.008 27.3885 211.667 27 212.547 27H214.517C214.793 27 215.017 27.2239 215.017 27.5C215.017 27.7761 214.793 28 214.517 28H212.547C211.999 28 211.643 28.2242 211.406 28.5624Z" fill="#333333"/>
<path fill-rule="evenodd" clip-rule="evenodd" d="M205.389 28.5624C205.137 28.922 205 29.4423 205 30.0244V72.1479C205 73.282 205.716 74 206.377 74H208.5C208.776 74 209 74.2239 209 74.5C209 74.7761 208.776 75 208.5 75H206.377C204.965 75 204 73.6118 204 72.1479V30.0244C204 29.3074 204.165 28.5656 204.571 27.9877C204.991 27.3885 205.65 27 206.53 27H208.5C208.776 27 209 27.2239 209 27.5C209 27.7761 208.776 28 208.5 28H206.53C205.983 28 205.627 28.2242 205.389 28.5624Z" fill="#333333"/>
<path fill-rule="evenodd" clip-rule="evenodd" d="M218.345 27C217.048 27 215.997 28.0421 215.997 29.3276V72.6724C215.997 73.9579 217.048 75 218.345 75H249.649C250.946 75 251.997 73.9579 251.997 72.6724V38.5C251.997 37.8827 251.75 37.2907 251.309 36.8541L242.12 27.6817C241.679 27.2452 241.082 27 240.459 27H218.345Z" fill="white"/>
<path d="M241.354 27.6464C241.211 27.5034 240.995 27.4607 240.809 27.5381C240.622 27.6154 240.5 27.7978 240.5 28V36.182C240.5 36.8578 240.664 37.4574 241.073 37.8877C241.487 38.3225 242.072 38.5001 242.732 38.5001H251C251.202 38.5001 251.385 38.3783 251.462 38.1915C251.539 38.0046 251.497 37.7896 251.354 37.6466L241.354 27.6464Z" fill="url(#paint6_linear_8999_66228)" stroke="#333333" stroke-linecap="round" stroke-linejoin="round"/>
<path fill-rule="evenodd" clip-rule="evenodd" d="M250.605 37.5643L250.603 37.5619L241.415 28.3919L241.414 28.3906C241.362 28.3384 241.312 28.2887 241.27 28.2456L241.254 28.2295C241.206 28.1807 241.168 28.1426 241.134 28.1091C241.063 28.0411 241.033 28.018 241.02 28.0095C241.009 28.007 240.972 28 240.892 28H218.345C217.592 28 216.997 28.6025 216.997 29.3276V72.6724C216.997 73.3975 217.592 74 218.345 74H249.649C250.402 74 250.997 73.3975 250.997 72.6724V38.1093C250.997 38.0214 250.988 37.9827 250.985 37.9724C250.984 37.9666 250.983 37.9644 250.977 37.9542C250.966 37.9373 250.941 37.9031 250.876 37.8351C250.826 37.7819 250.773 37.7298 250.702 37.6592C250.673 37.631 250.641 37.5998 250.605 37.5643ZM242.12 27.6817L251.309 36.8541C251.338 36.8821 251.365 36.9091 251.392 36.9353C251.78 37.3182 251.997 37.5316 251.997 38.1093V72.6724C251.997 73.9579 250.946 75 249.649 75H218.345C217.048 75 215.997 73.9579 215.997 72.6724V29.3276C215.997 28.0421 217.048 27 218.345 27H240.892C241.446 27 241.637 27.1939 241.982 27.5436C242.025 27.5873 242.071 27.6333 242.12 27.6817Z" fill="#333333"/>
<rect x="196.5" y="57.5" width="37" height="18" rx="1.5" fill="url(#paint7_linear_8999_66228)" stroke="#333333"/>
<path d="M202.921 71H201V62H206.277V63.5636H202.921V65.8844H206.044V67.4419H202.921V71Z" fill="white"/>
<path d="M210.031 65.9952H210.66C211.278 65.9952 211.733 65.8947 212.027 65.6936C212.321 65.4925 212.468 65.1765 212.468 64.7456C212.468 64.3187 212.317 64.015 212.014 63.8345C211.716 63.6539 211.252 63.5636 210.623 63.5636H210.031V65.9952ZM210.031 67.5465V71H208.078V62H210.761C212.012 62 212.938 62.2237 213.538 62.671C214.139 63.1142 214.439 63.7893 214.439 64.6963C214.439 65.2257 214.29 65.6977 213.992 66.1122C213.694 66.5226 213.272 66.8447 212.726 67.0787C214.112 69.1019 215.014 70.409 215.434 71H213.268L211.07 67.5465H210.031Z" fill="white"/>
<path d="M221.895 71H216.593V62H221.895V63.5636H218.545V65.5397H221.662V67.1033H218.545V69.4241H221.895V71Z" fill="white"/>
<path d="M229.125 71H223.822V62H229.125V63.5636H225.775V65.5397H228.892V67.1033H225.775V69.4241H229.125V71Z" fill="white"/>
<path fill-rule="evenodd" clip-rule="evenodd" d="M295 30.6053C295 29.1684 296.16 28 297.596 28H345.404C346.84 28 348 29.1684 348 30.6053V71.3947C348 72.8316 346.84 74 345.404 74H314.001V73H345.404C346.283 73 347 72.2833 347 71.3947V30.6053C347 29.7167 346.283 29 345.404 29H297.596C296.717 29 296 29.7167 296 30.6053V46.1043H295V30.6053Z" fill="#333333"/>
<path d="M330.085 51.7205H323.877V51.0116C324.423 50.9784 324.875 50.9118 325.232 50.812C325.596 50.7121 325.778 50.589 325.778 50.4425C325.778 50.3826 325.771 50.3094 325.757 50.2229C325.743 50.1364 325.722 50.0598 325.694 49.9932L324.455 46.8183H319.235C319.039 47.2842 318.877 47.6902 318.751 48.0363C318.632 48.3825 318.524 48.702 318.426 48.9948C318.335 49.281 318.272 49.514 318.237 49.6937C318.202 49.8734 318.184 50.0199 318.184 50.133C318.184 50.3993 318.405 50.6056 318.846 50.752C319.287 50.8985 319.784 50.985 320.338 51.0116V51.7205H314.729V51.0116C314.911 50.9983 315.138 50.9617 315.411 50.9018C315.684 50.8352 315.908 50.7487 316.083 50.6422C316.364 50.4625 316.581 50.2761 316.735 50.0831C316.889 49.8834 317.039 49.6105 317.186 49.2644C317.936 47.4872 318.762 45.4904 319.665 43.2739C320.569 41.0574 321.374 39.0839 322.081 37.3533H322.921L327.89 49.5739C327.995 49.8335 328.114 50.0432 328.247 50.2029C328.38 50.3627 328.565 50.5191 328.804 50.6722C328.965 50.7654 329.175 50.8452 329.434 50.9118C329.693 50.9717 329.91 51.005 330.085 51.0116V51.7205ZM324.077 45.9297L321.819 40.4384L319.602 45.9297H324.077Z" fill="url(#paint8_linear_8999_66228)"/>
<path d="M336.902 50.4026H336.828C336.674 50.5224 336.489 50.6755 336.272 50.8619C336.062 51.0416 335.813 51.2146 335.526 51.3811C335.253 51.5475 334.955 51.6906 334.633 51.8104C334.311 51.9368 333.961 52.0001 333.583 52.0001C332.567 52.0001 331.769 51.654 331.188 50.9617C330.614 50.2695 330.327 49.3243 330.327 48.1262C330.327 47.3008 330.488 46.4988 330.81 45.72C331.132 44.9413 331.576 44.2424 332.144 43.6233C332.683 43.0309 333.324 42.555 334.066 42.1956C334.808 41.8295 335.571 41.6465 336.356 41.6465C336.853 41.6465 337.326 41.7097 337.774 41.8362C338.229 41.9626 338.586 42.1057 338.845 42.2655L340.767 41.7962L340.893 41.946L339.297 48.3858C339.241 48.5921 339.181 48.8451 339.118 49.1446C339.062 49.4375 339.034 49.6538 339.034 49.7936C339.034 50.173 339.118 50.4292 339.286 50.5623C339.454 50.6955 339.738 50.762 340.137 50.762C340.27 50.762 340.459 50.7421 340.704 50.7021C340.949 50.6622 341.138 50.6189 341.271 50.5723L341.114 51.2113C340.484 51.4509 340.014 51.624 339.706 51.7305C339.398 51.837 339.024 51.8902 338.582 51.8902C338.078 51.8902 337.679 51.7505 337.385 51.4709C337.091 51.1914 336.93 50.8352 336.902 50.4026ZM338.404 44.0926C338.404 43.8729 338.379 43.6633 338.33 43.4636C338.281 43.2639 338.18 43.0775 338.026 42.9045C337.886 42.7381 337.693 42.605 337.448 42.5051C337.203 42.4053 336.895 42.3553 336.524 42.3553C336.013 42.3553 335.515 42.5151 335.032 42.8346C334.549 43.1541 334.115 43.5834 333.73 44.1225C333.366 44.6284 333.068 45.2408 332.837 45.9596C332.606 46.6785 332.49 47.4073 332.49 48.1462C332.49 48.5522 332.515 48.9116 332.564 49.2245C332.613 49.5373 332.707 49.8235 332.847 50.0831C332.98 50.336 333.173 50.5324 333.425 50.6722C333.677 50.812 333.996 50.8818 334.381 50.8818C334.773 50.8818 335.183 50.7787 335.61 50.5723C336.044 50.3593 336.531 49.9899 337.07 49.4641L338.404 44.0926Z" fill="url(#paint9_linear_8999_66228)"/>
<path d="M314.999 57.5017C314.999 57.5017 315 57.5017 315 57.5017L340.994 57.5942C340.993 57.5942 340.993 57.5942 340.994 57.5943L340.994 57.5943C340.997 57.5943 341.001 57.5946 341.009 57.5951C341.024 57.5961 341.049 57.5984 341.08 57.6032C341.144 57.6131 341.222 57.6319 341.293 57.6642C341.363 57.6962 341.411 57.7341 341.441 57.7752C341.467 57.8105 341.5 57.8746 341.5 58.0018V61.9814C341.5 61.9829 341.5 61.9846 341.499 61.9865C341.498 62.0013 341.494 62.0257 341.488 62.0562C341.475 62.1195 341.452 62.1972 341.414 62.2694C341.349 62.3922 341.251 62.5017 341 62.5017H315C314.749 62.5017 314.651 62.3922 314.586 62.2694C314.548 62.1972 314.525 62.1195 314.512 62.0562C314.506 62.0257 314.502 62.0013 314.501 61.9865C314.5 61.9846 314.5 61.983 314.5 61.9814L314.501 58.022C314.501 58.0204 314.501 58.0187 314.501 58.0167C314.503 58.0019 314.507 57.9775 314.513 57.9469C314.526 57.8836 314.549 57.8059 314.587 57.7338C314.651 57.6113 314.749 57.5019 314.999 57.5017Z" fill="#D9F4FF" stroke="#333333"/>
<path fill-rule="evenodd" clip-rule="evenodd" d="M308 46V39L309 39V46H308Z" fill="#333333"/>
<path fill-rule="evenodd" clip-rule="evenodd" d="M311 39H306V38H311V39Z" fill="#333333"/>
<rect x="284.5" y="50.5" width="25" height="23" rx="2.5" fill="url(#paint10_linear_8999_66228)"/>
<rect x="284.5" y="50.5" width="25" height="23" rx="2.5" stroke="#333333"/>
<path d="M291 66.9688V64M298 66.9688V59.4375C298 57.625 296.888 56 294.491 56C292.094 56 291 57.75 291 59.4375V64M291 64H298M302 56.1713V66.9688" stroke="white" stroke-width="2" stroke-linecap="round" stroke-linejoin="round"/>
<circle cx="403.5" cy="50" r="28.5" fill="white" stroke="#333333"/>
<path d="M403.979 22.0041C388.518 21.7442 375.769 33.867 375.505 49.0809C375.355 57.7073 378.613 65.557 384.834 70.7129C385.241 70.3635 386.327 69.9466 386.812 69.6867L395.166 65.2025C396.262 64.614 396.944 63.4838 396.944 62.2549V58.8863C396.944 58.8863 394.492 56.0001 393.557 51.99C392.781 51.4961 392.261 50.6426 392.261 49.6704V45.9837C392.261 45.1727 392.628 44.448 393.198 43.9407V38.6112C393.198 38.6112 392.085 30.3175 403.499 30.3175C414.914 30.3175 413.801 38.6112 413.801 38.6112V43.9407C414.372 44.448 414.737 45.1727 414.737 45.9837V49.6704C414.737 50.9098 413.892 51.9526 412.744 52.3009C412.105 54.2565 411.183 56.1207 409.964 57.8154C409.656 58.2427 409.369 58.6046 409.117 58.8863V62.3402C409.117 63.6117 409.847 64.7752 411.003 65.3428L419.949 69.7439C420.486 70.0079 421.553 70.6288 422 71C428.033 66.049 431.349 58.3592 431.494 50.0229C431.76 34.809 419.441 22.264 403.979 22.0041Z" fill="url(#paint11_linear_8999_66228)"/>
<path d="M429.222 63.4344C428.729 63.6574 428.15 63.4729 427.869 63.0033C427.602 62.5193 427.738 61.9077 428.183 61.5879C428.665 61.2201 428.763 60.5238 428.402 60.0327C426.869 57.9495 424.211 56.5348 421.721 56.0241C421.092 55.8927 420.489 56.3697 420.426 56.9995C420.399 57.5917 419.907 58.0497 419.326 58.0229C418.781 57.9977 418.346 57.554 418.321 56.9995C418.258 56.3694 417.655 55.8933 417.026 56.0241C414.448 56.5527 412.117 57.9394 410.398 59.9659C410 60.427 410.045 61.129 410.498 61.5338C410.95 61.9389 411.229 62.494 410.846 63.0717C410.554 63.5135 409.987 63.6682 409.516 63.4344C406.479 62.1208 407.668 70.8196 408.057 71.9047C408.251 72.4858 408.87 72.7971 409.44 72.6C410.01 72.4026 410.621 72.449 410.915 73.0684C411.141 73.5444 410.992 74.117 410.563 74.4156C410.081 74.7835 409.983 75.4798 410.344 75.9709C411.878 78.0542 414.535 79.4691 417.026 79.9795C417.656 80.1111 418.259 79.6328 418.321 79.0019C418.367 78.4097 418.875 77.9676 419.456 78.0144C419.974 78.0559 420.385 78.4746 420.426 79.0019C420.49 79.6376 421.107 80.1115 421.734 79.9774C424.312 79.4491 426.643 78.0624 428.362 76.0356C428.775 75.5562 428.699 74.7976 428.197 74.4136C427.718 74.0802 427.596 73.4151 427.923 72.928C428.216 72.4917 428.778 72.3392 429.246 72.5694C429.8 72.8081 430.44 72.5433 430.674 71.9781C431.683 69.5328 431.584 66.5583 430.703 64.099C430.321 63.3932 430.045 63.0798 429.222 63.4344ZM419.364 73.5579C416.352 73.5579 413.911 71.0709 413.911 68.0029C413.911 64.935 416.352 62.448 419.364 62.448C422.375 62.448 424.816 64.935 424.816 68.0029C424.816 71.0709 422.375 73.5579 419.364 73.5579Z" fill="#D9F4FF"/>
<path fill-rule="evenodd" clip-rule="evenodd" d="M427.002 63.5015L426.994 63.4868C426.678 62.9148 426.678 62.3508 426.858 61.8591C426.993 61.4891 427.235 61.1654 427.375 60.977C427.389 60.9583 427.402 60.941 427.414 60.925C427.496 60.8145 427.548 60.7399 427.587 60.6746C427.595 60.661 427.602 60.6492 427.607 60.6392C427.604 60.6351 427.601 60.6305 427.597 60.6255C426.247 58.7911 423.839 57.4816 421.53 57.0058C421.494 57.0753 421.457 57.1639 421.404 57.2958C421.396 57.3161 421.387 57.3385 421.377 57.3628C421.286 57.5962 421.128 57.9985 420.869 58.3197C420.515 58.7604 419.983 59.0544 419.279 59.0218C418.593 58.99 418.115 58.6491 417.807 58.2296C417.584 57.9249 417.439 57.5511 417.353 57.3291C417.341 57.2998 417.331 57.2732 417.322 57.2497C417.274 57.1313 417.24 57.0547 417.215 57.006C414.864 57.4909 412.734 58.758 411.16 60.6128L411.155 60.6187C411.136 60.6413 411.125 60.6715 411.127 60.7072C411.129 60.7429 411.144 60.77 411.164 60.7884C411.972 61.5121 412.096 62.6215 411.74 63.4296C411.555 63.8497 411.211 64.2547 410.692 64.4532C410.168 64.6531 409.609 64.589 409.101 64.3446C409.036 64.3174 408.992 64.3063 408.966 64.3021C408.944 64.3266 408.904 64.3792 408.855 64.4823C408.645 64.9218 408.518 65.7322 408.502 66.7857C408.486 67.7986 408.572 68.8977 408.686 69.8143C408.806 70.7678 408.943 71.4126 408.999 71.5672L409.003 71.578L409.006 71.5888C409.007 71.5914 409.008 71.5938 409.009 71.5962C409.014 71.5963 409.02 71.5963 409.026 71.5964C409.105 71.5967 409.201 71.5892 409.344 71.5745C409.365 71.5724 409.388 71.5699 409.414 71.5671C409.657 71.5408 410.079 71.495 410.478 71.5749C411.027 71.6848 411.523 72.016 411.819 72.6395C412.094 73.2195 412.053 73.7694 411.865 74.2297C411.725 74.5719 411.493 74.877 411.356 75.0562C411.34 75.0778 411.325 75.0975 411.312 75.1153C411.233 75.2196 411.184 75.2894 411.149 75.3484C411.146 75.3542 411.143 75.3595 411.14 75.3645C411.143 75.3688 411.146 75.3734 411.15 75.3784C412.501 77.2127 414.908 78.5222 417.216 78.9976L417.218 78.9947C417.257 78.9218 417.297 78.8302 417.355 78.6921C417.362 78.6732 417.371 78.6525 417.38 78.6303C417.476 78.3963 417.642 77.9898 417.915 77.6689C418.289 77.2303 418.835 76.9611 419.537 77.0175C420.208 77.0714 420.664 77.4219 420.955 77.8243C421.166 78.1158 421.311 78.4726 421.398 78.6868C421.411 78.7183 421.422 78.7468 421.433 78.7715C421.478 78.8803 421.512 78.9515 421.536 78.9972C423.891 78.514 426.024 77.2461 427.6 75.3887L427.605 75.3827C427.609 75.3781 427.612 75.3737 427.616 75.3697C427.611 75.3611 427.606 75.3516 427.6 75.3409C427.559 75.27 427.503 75.189 427.417 75.07C427.405 75.0534 427.392 75.0353 427.377 75.0159C427.23 74.8144 426.976 74.4667 426.845 74.0718C426.667 73.5378 426.708 72.9429 427.093 72.3703C427.453 71.8347 427.951 71.5912 428.449 71.5259C428.814 71.478 429.194 71.5308 429.414 71.5612C429.441 71.565 429.465 71.5683 429.487 71.5712C429.619 71.5884 429.701 71.5946 429.75 71.5965M427.923 72.9279C427.527 73.5177 427.863 73.9816 428.196 74.4409C428.55 74.9291 428.899 75.412 428.362 76.0355C426.643 78.0623 424.312 79.449 421.734 79.9773C420.918 80.1516 420.695 79.6076 420.465 79.0479C420.265 78.5612 420.06 78.0627 419.456 78.0142C418.741 77.9567 418.518 78.4958 418.298 79.0281C418.064 79.592 417.834 80.1483 417.026 79.9793C414.535 79.469 411.878 78.0541 410.344 75.9708C409.885 75.3457 410.22 74.9018 410.56 74.4504C410.868 74.0423 411.181 73.6281 410.915 73.0683C410.621 72.4476 410.063 72.5054 409.508 72.563C408.911 72.6248 408.318 72.6863 408.057 71.9047C407.668 70.8195 406.479 62.1208 409.516 63.4344C410.79 64.0679 411.405 62.3465 410.498 61.5338C410.045 61.129 410 60.427 410.398 59.9659C412.117 57.9395 414.448 56.5527 417.026 56.0241C417.846 55.8535 418.064 56.4061 418.288 56.9733C418.486 57.4776 418.69 57.9934 419.326 58.0229C420.026 58.0553 420.24 57.5159 420.451 56.9851C420.678 56.4141 420.901 55.8529 421.721 56.0241C424.211 56.5348 426.869 57.9495 428.402 60.0327C428.859 60.6536 428.524 61.1058 428.186 61.5633C427.869 61.9911 427.549 62.4236 427.869 63.0033C428.227 63.6032 428.715 63.5418 429.212 63.4791C429.747 63.4116 430.294 63.3426 430.703 64.099C431.584 66.5583 431.683 69.5328 430.674 71.978C430.376 72.6991 429.83 72.6262 429.275 72.5518C428.775 72.4849 428.266 72.4168 427.923 72.9279ZM429.75 71.5965C430.637 69.4446 430.576 66.7686 429.79 64.5177C429.765 64.4775 429.746 64.4551 429.734 64.4436C429.723 64.442 429.701 64.4398 429.665 64.4402C429.6 64.4408 429.52 64.4484 429.393 64.4642C429.374 64.4665 429.354 64.4692 429.331 64.4722C429.114 64.5009 428.713 64.5539 428.321 64.4764C427.789 64.3711 427.334 64.0568 427.011 63.5159L427.002 63.5015M429.72 64.433C429.72 64.433 429.724 64.4341 429.731 64.4405C429.723 64.437 429.72 64.433 429.72 64.433ZM408.934 64.3005C408.934 64.3005 408.937 64.2996 408.944 64.2998C408.938 64.301 408.934 64.3005 408.934 64.3005ZM419.364 74.5578C415.782 74.5578 412.911 71.6054 412.911 68.0029C412.911 64.4004 415.782 61.448 419.364 61.448C422.945 61.448 425.816 64.4003 425.816 68.0029M419.364 74.5578C422.945 74.5578 425.816 71.6054 425.816 68.0029L419.364 74.5578ZM413.911 68.0029C413.911 71.0708 416.352 73.5578 419.364 73.5578C422.375 73.5578 424.816 71.0708 424.816 68.0029C424.816 64.935 422.375 62.448 419.364 62.448C416.352 62.448 413.911 64.935 413.911 68.0029Z" fill="#333333"/>
<path fill-rule="evenodd" clip-rule="evenodd" d="M430.543 61.3885C430.736 60.533 430.569 59.6028 430.014 58.8478L430.013 58.8469C428.118 56.2725 424.972 54.6498 422.126 54.0654C421.058 53.8437 420.063 54.2035 419.373 54.8745C418.684 54.204 417.69 53.845 416.624 54.0648C413.605 54.6839 410.881 56.306 408.876 58.6674C408.212 59.4433 407.993 60.4591 408.204 61.3914C408.054 61.4302 407.904 61.4821 407.754 61.5486C406.898 61.9289 406.415 62.6303 406.148 63.1886C405.639 64.2529 405.52 65.6264 405.502 66.7386C405.484 67.932 405.583 69.1778 405.71 70.1873C405.825 71.1088 405.989 72.0458 406.166 72.556C406.5 73.5377 407.286 74.2571 408.223 74.5348C408.001 75.412 408.161 76.377 408.733 77.1556L408.734 77.1565C410.629 79.7309 413.774 81.3537 416.621 81.938C417.69 82.16 418.686 81.7992 419.375 81.1268C420.074 81.8031 421.081 82.1586 422.142 81.9352C425.159 81.3155 427.88 79.694 429.884 77.3338C430.565 76.5382 430.772 75.4855 430.533 74.5335C431.404 74.2769 432.151 73.6387 432.522 72.7439L432.523 72.7405C433.752 69.7607 433.604 66.2663 432.585 63.4241L432.534 63.2817L432.462 63.1485C432.456 63.1376 432.45 63.1259 432.443 63.1135C432.278 62.8052 431.873 62.0515 431.1 61.6214C430.914 61.5174 430.727 61.4415 430.543 61.3885ZM427.869 63.0032C428.15 63.4728 428.729 63.6573 429.222 63.4343C430.045 63.0797 430.321 63.3932 430.703 64.099C431.584 66.5582 431.683 69.5328 430.674 71.978C430.44 72.5432 429.8 72.808 429.246 72.5693C428.778 72.3391 428.216 72.4916 427.923 72.9279C427.596 73.415 427.718 74.0801 428.197 74.4135C428.699 74.7975 428.775 75.5561 428.362 76.0355C426.643 78.0623 424.312 79.449 421.734 79.9773C421.107 80.1114 420.49 79.6375 420.426 79.0018C420.385 78.4745 419.974 78.0558 419.456 78.0143C418.875 77.9675 418.367 78.4096 418.321 79.0018C418.259 79.6327 417.656 80.111 417.026 79.9794C414.535 79.469 411.878 78.0541 410.344 75.9708C409.983 75.4797 410.081 74.7834 410.563 74.4156C410.992 74.1169 411.141 73.5443 410.915 73.0683C410.621 72.4489 410.01 72.4026 409.44 72.5999C408.87 72.797 408.251 72.4857 408.057 71.9047C407.668 70.8195 406.479 62.1207 409.516 63.4343C409.987 63.6681 410.554 63.5134 410.846 63.0716C411.229 62.494 410.95 61.9388 410.498 61.5337C410.045 61.1289 410 60.4269 410.398 59.9658C412.117 57.9394 414.448 56.5526 417.026 56.024C417.655 55.8932 418.258 56.3693 418.321 56.9995C418.346 57.5539 418.781 57.9976 419.326 58.0228C419.907 58.0497 420.399 57.5916 420.426 56.9995C420.489 56.3696 421.092 55.8926 421.721 56.024C424.211 56.5347 426.869 57.9494 428.402 60.0326C428.763 60.5237 428.665 61.22 428.183 61.5879C427.738 61.9076 427.602 62.5192 427.869 63.0032ZM424.816 68.0029C424.816 64.9349 422.375 62.4479 419.364 62.4479C416.352 62.4479 413.911 64.9349 413.911 68.0029C413.911 71.0708 416.352 73.5578 419.364 73.5578C422.375 73.5578 424.816 71.0708 424.816 68.0029Z" fill="white"/>
<path d="M502.075 40.4701C503.795 40.8265 505.56 41.0557 507.332 41.1003C506.867 42.7061 506.488 44.2433 506.166 45.7165C505.901 46.9257 505.677 48.7884 505.477 50.5789C505.439 50.9164 505.402 51.2512 505.366 51.5793C505.209 53.0117 505.066 54.3143 504.927 55.1356C504.897 55.3115 504.868 55.4868 504.838 55.6614C503.954 60.9086 503.174 65.5411 500.499 69.6236C497.764 73.7963 493.004 77.4525 483.929 80.4748C475.05 77.6896 470.3 73.9475 467.558 69.7192C464.786 65.4448 464.02 60.6144 463.218 55.541C463.09 54.7349 462.96 53.5156 462.814 52.1628C462.767 51.7234 462.719 51.2699 462.668 50.8119C462.464 48.9641 462.23 47.0431 461.941 45.7739C461.605 44.3001 461.199 42.7666 460.687 41.1692C462.434 41.114 464.2 40.8626 465.935 40.4788C470.725 39.4193 475.317 37.342 478.702 35.5382C480.397 34.6351 481.795 33.7976 482.769 33.1854C483.257 32.8792 483.639 32.6292 483.9 32.4553C483.939 32.4289 483.976 32.4043 484.01 32.3815C484.041 32.4036 484.075 32.4273 484.112 32.4526C484.365 32.6285 484.736 32.8811 485.212 33.19C486.163 33.8079 487.532 34.6518 489.207 35.5591C492.553 37.3714 497.141 39.4474 502.075 40.4701Z" fill="url(#paint12_linear_8999_66228)" stroke="#333333"/>
<path fill-rule="evenodd" clip-rule="evenodd" d="M492.537 49.4147C493.274 50.1313 493.301 51.321 492.598 52.0717L482.981 63.2799C482.633 63.6514 482.151 63.8616 481.647 63.8616C481.142 63.8616 480.66 63.6514 480.312 63.2799L475.448 58.0894C474.744 57.3386 474.772 56.149 475.509 55.4323C476.246 54.7157 477.414 54.7433 478.117 55.4941L481.647 59.2605L489.929 49.4765C490.632 48.7257 491.8 48.698 492.537 49.4147Z" fill="white"/>
<path d="M493.501 22.2119C493.501 21.2522 494.27 20.5 495.214 20.5H520.788C521.749 20.5 522.501 21.2698 522.501 22.2119V47.7882C522.501 48.7468 521.731 49.5 520.788 49.5H495.214C494.253 49.5 493.501 48.7295 493.501 47.7882V22.2119Z" fill="white" stroke="#333333"/>
<path d="M518.001 35C518.001 40.5229 513.524 45 508.001 45C502.478 45 498.001 40.5229 498.001 35C498.001 29.4771 502.478 25 508.001 25C513.524 25 518.001 29.4771 518.001 35Z" fill="#077838"/>
<path d="M513.616 33.4103C513.616 36.1782 511.829 38.0712 509.273 38.0712C508.059 38.0712 507.057 37.571 506.683 36.9459L506.7 37.5887V41.5529H504.092V31.3029C504.092 31.1603 504.056 31.124 503.895 31.124H503.001V28.9458H505.182C506.182 28.9458 506.433 29.8029 506.504 30.1783C506.897 29.5177 507.933 28.75 509.398 28.75C511.918 28.7492 513.616 30.6238 513.616 33.4103ZM510.953 33.4279C510.953 31.9457 509.989 30.9283 508.773 30.9283C507.772 30.9283 506.646 31.5888 506.646 33.4465C506.646 34.6605 507.325 35.9284 508.737 35.9284C509.774 35.9276 510.953 35.1777 510.953 33.4279Z" fill="white"/>
<defs>
<linearGradient id="paint0_linear_8999_66228" x1="63" y1="60.5703" x2="73.9902" y2="70.9517" gradientUnits="userSpaceOnUse">
<stop stop-color="#FF8E3D"/>
<stop offset="1" stop-color="#FF6F3D"/>
</linearGradient>
<linearGradient id="paint1_linear_8999_66228" x1="58" y1="35.8437" x2="62" y2="40" gradientUnits="userSpaceOnUse">
<stop stop-color="#FF8E3D"/>
<stop offset="1" stop-color="#FF6F3D"/>
</linearGradient>
<linearGradient id="paint2_linear_8999_66228" x1="147" y1="24.6094" x2="157" y2="35" gradientUnits="userSpaceOnUse">
<stop stop-color="#FFC671"/>
<stop offset="0.59375" stop-color="#FF7541"/>
<stop offset="1" stop-color="#FF6F3D"/>
</linearGradient>
<linearGradient id="paint3_linear_8999_66228" x1="107.177" y1="35.3166" x2="120.569" y2="27.3928" gradientUnits="userSpaceOnUse">
<stop stop-color="#FF8E3D"/>
<stop offset="1" stop-color="#FF6F3D"/>
</linearGradient>
<linearGradient id="paint4_linear_8999_66228" x1="140.5" y1="56" x2="140.5" y2="74.3328" gradientUnits="userSpaceOnUse">
<stop stop-color="#FF8E3D"/>
<stop offset="1" stop-color="#FF6F3D"/>
</linearGradient>
<linearGradient id="paint5_linear_8999_66228" x1="160.5" y1="56" x2="160.5" y2="74.3328" gradientUnits="userSpaceOnUse">
<stop stop-color="#FF8E3D"/>
<stop offset="1" stop-color="#FF6F3D"/>
</linearGradient>
<linearGradient id="paint6_linear_8999_66228" x1="241" y1="27.6094" x2="251" y2="38" gradientUnits="userSpaceOnUse">
<stop stop-color="#FFC671"/>
<stop offset="0.59375" stop-color="#FF7541"/>
<stop offset="1" stop-color="#FF6F3D"/>
</linearGradient>
<linearGradient id="paint7_linear_8999_66228" x1="197" y1="57.3359" x2="209.816" y2="85.5363" gradientUnits="userSpaceOnUse">
<stop stop-color="#FF8E3D"/>
<stop offset="1" stop-color="#FF6F3D"/>
</linearGradient>
<linearGradient id="paint8_linear_8999_66228" x1="314.729" y1="36.7811" x2="326.872" y2="59.6472" gradientUnits="userSpaceOnUse">
<stop stop-color="#FF8E3D"/>
<stop offset="1" stop-color="#FF6F3D"/>
</linearGradient>
<linearGradient id="paint9_linear_8999_66228" x1="314.729" y1="36.7811" x2="326.872" y2="59.6472" gradientUnits="userSpaceOnUse">
<stop stop-color="#FF8E3D"/>
<stop offset="1" stop-color="#FF6F3D"/>
</linearGradient>
<linearGradient id="paint10_linear_8999_66228" x1="284" y1="49.0625" x2="307.85" y2="75.9097" gradientUnits="userSpaceOnUse">
<stop stop-color="#FF8E3D"/>
<stop offset="1" stop-color="#FF6F3D"/>
</linearGradient>
<linearGradient id="paint11_linear_8999_66228" x1="403.5" y1="22" x2="403.5" y2="71" gradientUnits="userSpaceOnUse">
<stop stop-color="#FF8E3D"/>
<stop offset="1" stop-color="#FF6F3D"/>
</linearGradient>
<linearGradient id="paint12_linear_8999_66228" x1="497.332" y1="75.1141" x2="462.015" y2="39.3801" gradientUnits="userSpaceOnUse">
<stop stop-color="#FF6F3D"/>
<stop offset="1" stop-color="#FF8E3D"/>
</linearGradient>
<clipPath id="clip0_8999_66228">
<rect width="64" height="64" fill="white" transform="translate(108 20)"/>
</clipPath>
</defs>
</svg>
