<svg width="1427" height="822" viewBox="0 0 1427 822" fill="none" xmlns="http://www.w3.org/2000/svg">
<path fill-rule="evenodd" clip-rule="evenodd" d="M1075.71 739C1182.76 739 1269.5 641.943 1269.5 522.322C1269.5 402.547 1182.76 305.645 1075.71 305.645C1060.81 305.645 1046.37 307.499 1032.58 311.054C1030.04 311.672 1027.66 312.29 1025.12 313.063C1022.59 313.836 1020.21 314.609 1017.67 315.536C1017.67 314.763 1017.67 313.99 1017.67 313.218C1017.67 310.745 1017.83 308.427 1017.83 305.954V305.645C1017.83 302.554 1017.83 299.617 1017.67 296.526C1012.44 4.58338 560.479 -38.2267 503.073 241.043C498.474 239.343 493.716 237.798 488.8 236.561C477.382 233.625 465.647 232.079 453.437 232.079C400.153 232.079 353.054 261.907 324.826 307.499C309.127 302.863 292.476 300.545 275.507 300.545C167.354 300.39 79.5 398.683 79.5 519.695C79.5 640.707 167.354 739 275.507 739H583.157H1075.71Z" fill="url(#paint0_linear)"/>
<path fill-rule="evenodd" clip-rule="evenodd" d="M1143.38 311.153L1143.37 311.157C1140.34 311.893 1137.53 312.623 1134.54 313.534C1131.52 314.453 1128.7 315.367 1125.7 316.462L1123.02 317.443V311.806C1123.02 310.286 1123.07 308.818 1123.11 307.388C1123.16 305.948 1123.21 304.545 1123.21 303.102V302.732C1123.21 299.021 1123.21 295.553 1123.02 291.908L1123.02 291.875L1123.02 291.841C1119.9 118.219 983.909 18.5335 839.734 3.88291C695.544 -10.7692 544.043 59.7065 509.89 225.726L509.421 228.005L507.238 227.199C501.774 225.18 496.139 223.352 490.329 221.892L490.319 221.89C476.786 218.412 462.881 216.582 448.41 216.582C385.299 216.582 329.422 251.882 295.886 306.007L295.082 307.304L293.62 306.872C274.987 301.374 255.211 298.621 235.044 298.621H235.041C106.66 298.437 2 415.103 2 559.218C2 703.331 106.66 820 235.044 820H1194.62C1321.67 820 1425 704.812 1425 562.366C1425 419.736 1321.67 304.732 1194.62 304.732C1176.91 304.732 1159.77 306.933 1143.39 311.15L1143.38 311.153ZM506.032 224.632C501.109 222.867 496.037 221.265 490.816 219.953C477.125 216.434 463.052 214.582 448.41 214.582C384.514 214.582 328.035 250.323 294.186 304.954C275.359 299.398 255.392 296.621 235.044 296.621C105.352 296.435 0 414.215 0 559.218C0 704.22 105.352 822 235.044 822H1194.62C1322.98 822 1427 705.702 1427 562.366C1427 418.845 1322.98 302.732 1194.62 302.732C1176.74 302.732 1159.44 304.954 1142.89 309.213C1139.85 309.954 1137 310.695 1133.96 311.621C1131.59 312.341 1129.33 313.062 1127.02 313.87C1126.36 314.1 1125.69 314.337 1125.02 314.584V311.806C1125.02 310.324 1125.06 308.889 1125.11 307.454C1125.16 306.019 1125.21 304.584 1125.21 303.102V302.732C1125.21 299.028 1125.21 295.509 1125.02 291.806C1118.75 -57.3241 578.911 -109.109 508.345 223.344C508.205 224.002 508.067 224.662 507.931 225.323C507.301 225.09 506.667 224.859 506.032 224.632Z" fill="white"/>
<defs>
<linearGradient id="paint0_linear" x1="483.952" y1="332.072" x2="482.895" y2="732.85" gradientUnits="userSpaceOnUse">
<stop stop-color="white"/>
<stop offset="1" stop-color="white" stop-opacity="0"/>
</linearGradient>
</defs>
</svg>
