<svg width="170" height="64" viewBox="0 0 170 64" fill="none" xmlns="http://www.w3.org/2000/svg">
<path d="M66.2121 27.33H60.426L59.0365 31.4329H56.5858L62.0663 16.2532H64.6126L70.0931 31.4329H67.6005L66.2121 27.33ZM61.0252 25.4367H65.6117L63.3508 18.7779H63.2875L61.0252 25.4367Z" fill="white"/>
<path d="M81.929 25.8998C81.929 29.3389 80.0883 31.5486 77.3104 31.5486C76.6067 31.5854 75.9069 31.4233 75.2911 31.0809C74.6753 30.7384 74.1683 30.2295 73.8283 29.6123H73.7757V35.094H71.504V20.3655H73.7029V22.2064H73.7447C74.1004 21.5921 74.6159 21.0859 75.2364 20.7413C75.857 20.3968 76.5593 20.227 77.2687 20.2498C80.0775 20.2498 81.929 22.4701 81.929 25.8998ZM79.5941 25.8998C79.5941 23.6591 78.4361 22.186 76.6694 22.186C74.9337 22.186 73.7662 23.6901 73.7662 25.8998C73.7662 28.1297 74.9337 29.6231 76.6694 29.6231C78.4362 29.6231 79.5941 28.1607 79.5941 25.8998H79.5941Z" fill="white"/>
<path d="M94.1106 25.8998C94.1106 29.3389 92.2692 31.5486 89.4914 31.5486C88.7877 31.5854 88.0879 31.4233 87.472 31.0809C86.8562 30.7384 86.3492 30.2295 86.0092 29.6123H85.9567V35.094H83.685V20.3655H85.8839V22.2064H85.9257C86.2813 21.5921 86.7969 21.0859 87.4174 20.7413C88.0379 20.3968 88.7402 20.227 89.4496 20.2498C92.2585 20.2498 94.1106 22.4701 94.1106 25.8998ZM91.775 25.8998C91.775 23.6591 90.6171 22.186 88.8503 22.186C87.1146 22.186 85.9471 23.6901 85.9471 25.8998C85.9471 28.1297 87.1146 29.6231 88.8503 29.6231C90.6171 29.6231 91.775 28.1607 91.775 25.8998H91.775Z" fill="white"/>
<path d="M102.16 27.2033C102.328 28.7086 103.791 29.6971 105.789 29.6971C107.704 29.6971 109.081 28.7086 109.081 27.3513C109.081 26.1732 108.251 25.4677 106.283 24.9841L104.316 24.5102C101.529 23.837 100.235 22.5334 100.235 20.4181C100.235 17.7989 102.517 16 105.757 16C108.966 16 111.164 17.799 111.238 20.4181H108.945C108.808 18.9032 107.556 17.9888 105.726 17.9888C103.896 17.9888 102.643 18.914 102.643 20.2606C102.643 21.3337 103.443 21.9652 105.4 22.4487L107.072 22.8593C110.187 23.5959 111.48 24.8469 111.48 27.0673C111.48 29.9072 109.219 31.6859 105.621 31.6859C102.254 31.6859 99.9814 29.949 99.8346 27.2034L102.16 27.2033Z" fill="white"/>
<path d="M116.385 17.7464V20.3656H118.489V22.1646H116.385V28.2658C116.385 29.2136 116.806 29.6553 117.731 29.6553C117.981 29.651 118.231 29.6335 118.479 29.6028V31.3911C118.063 31.4688 117.64 31.504 117.217 31.4961C114.976 31.4961 114.102 30.6545 114.102 28.5082V22.1645H112.493V20.3655H114.102V17.7463L116.385 17.7464Z" fill="white"/>
<path d="M119.707 25.8998C119.707 22.4176 121.758 20.2295 124.956 20.2295C128.165 20.2295 130.206 22.4176 130.206 25.8998C130.206 29.3915 128.175 31.5701 124.956 31.5701C121.738 31.5701 119.707 29.3915 119.707 25.8998ZM127.891 25.8998C127.891 23.5111 126.797 22.1013 124.956 22.1013C123.115 22.1013 122.02 23.5218 122.02 25.8998C122.02 28.298 123.115 29.6971 124.956 29.6971C126.797 29.6971 127.891 28.298 127.891 25.8998Z" fill="white"/>
<path d="M132.079 20.3656H134.246V22.2492H134.298C134.445 21.6609 134.789 21.141 135.274 20.7769C135.759 20.4128 136.354 20.2266 136.96 20.2497C137.222 20.2488 137.483 20.2772 137.738 20.3345V22.4594C137.408 22.3584 137.063 22.312 136.718 22.3221C136.388 22.3087 136.059 22.3669 135.753 22.4926C135.448 22.6184 135.173 22.8088 134.948 23.0507C134.724 23.2926 134.554 23.5803 134.45 23.8941C134.347 24.2078 134.313 24.5402 134.351 24.8684V31.4328H132.079V20.3656Z" fill="white"/>
<path d="M148.212 28.1822C147.963 29.2281 147.342 30.1479 146.466 30.7709C145.589 31.3939 144.517 31.6779 143.447 31.5701C140.227 31.5701 138.229 29.413 138.229 25.9523C138.229 22.4809 140.238 20.2295 143.352 20.2295C146.413 20.2295 148.339 22.3329 148.339 25.6885V26.4668H140.522V26.6041C140.486 27.0114 140.537 27.4217 140.672 27.8078C140.807 28.1939 141.022 28.5469 141.303 28.8434C141.585 29.1399 141.927 29.3731 142.305 29.5275C142.684 29.6819 143.091 29.7539 143.5 29.7389C144.036 29.7892 144.575 29.6649 145.036 29.3844C145.496 29.1039 145.854 28.6823 146.055 28.1823L148.212 28.1822ZM140.533 24.8791H146.066C146.086 24.5129 146.031 24.1464 145.903 23.8027C145.775 23.4589 145.577 23.1453 145.323 22.8816C145.068 22.6178 144.761 22.4096 144.422 22.27C144.083 22.1304 143.718 22.0624 143.352 22.0702C142.982 22.068 142.615 22.1391 142.273 22.2794C141.93 22.4196 141.619 22.6263 141.357 22.8875C141.095 23.1486 140.887 23.459 140.746 23.8009C140.604 24.1427 140.532 24.5092 140.533 24.8791Z" fill="white"/>
<path d="M59.4559 47.6903L59.5501 46.5202C59.9888 46.6618 60.4467 46.7347 60.9077 46.7364C61.3247 46.7364 61.4858 46.696 61.688 46.4129C62.1797 45.3836 62.3927 44.2435 62.3059 43.1062C62.3059 41.8956 61.93 41.5456 60.9754 41.5456C60.7599 41.5456 60.5179 41.5595 60.2488 41.5735C59.735 43.6615 58.8813 45.6507 57.7217 47.4616L56.6053 46.8563C57.6944 45.2912 58.4915 43.5421 58.958 41.6933C58.2214 41.773 57.4899 41.8945 56.767 42.0573L56.5251 40.8733C57.3451 40.7254 58.3263 40.5916 59.2405 40.5107C59.4284 39.618 59.5676 38.7157 59.6575 37.8079L60.9754 37.9557C60.854 38.7757 60.7062 39.5972 60.518 40.4033H61.0423C62.7501 40.4033 63.5701 41.2498 63.5701 43.0517C63.6442 44.4266 63.3763 45.7985 62.7905 47.0446C62.6362 47.331 62.4007 47.5654 62.1137 47.7185C61.8266 47.8716 61.5007 47.9365 61.1769 47.9051C60.5968 47.9012 60.0192 47.8291 59.4559 47.6903ZM63.7849 40.4438L64.7667 39.7841C66.128 41.0972 66.9482 42.8725 67.0657 44.7602L65.775 44.961C65.7655 44.1127 65.5843 43.2751 65.2423 42.4987C64.9002 41.7224 64.4044 41.0233 63.7849 40.4438Z" fill="white"/>
<path d="M71.5237 47.8787L71.2553 46.6682C71.5914 46.6961 72.0349 46.7086 72.304 46.7086C74.9657 46.7086 75.974 45.9569 75.974 44.8398C75.974 43.9528 75.3959 43.4424 74.1052 43.4424C72.698 43.5714 71.387 44.2126 70.4213 45.2443L69.3857 44.7868C69.1896 43.0256 69.5923 41.2496 70.5287 39.7451L71.7253 40.1342C70.9797 41.1411 70.6175 42.3807 70.7038 43.6306C71.782 42.8702 73.0562 42.4359 74.3744 42.3796C76.1763 42.3796 77.2921 43.307 77.2921 44.8132C77.2921 46.7225 75.7858 47.8926 72.1696 47.8926C71.9944 47.8927 71.7392 47.8787 71.5237 47.8787ZM70.2734 38.9516L70.6096 37.7676C72.3982 38.0412 74.1644 38.4458 75.8938 38.9781L75.571 40.1482C73.8447 39.591 72.0717 39.1906 70.2734 38.9517V38.9516Z" fill="white"/>
<path d="M81.1858 46.9513C82.5723 46.4949 83.8177 45.6889 84.8021 44.6111C84.0223 43.9648 83.1802 43.3976 82.2882 42.918L83.0274 41.9905C83.9268 42.448 84.7818 42.9877 85.5817 43.6028C86.224 42.6659 86.6722 41.6098 86.8996 40.4969H83.4709C82.683 41.7731 81.6932 42.913 80.5401 43.8719L79.5582 43.0254C81.218 41.6563 82.504 39.8892 83.2966 37.8889L84.5873 38.1985C84.4395 38.5751 84.2917 38.9642 84.1166 39.3282H87.4512L88.4059 39.7717C88.1743 41.5966 87.4534 43.3248 86.3196 44.7734C85.1858 46.222 83.6813 47.3369 81.9654 48L81.1858 46.9513ZM86.8591 37.5667L87.6122 37.2027C87.9945 37.7146 88.3149 38.2698 88.5669 38.8568L87.7196 39.2473C87.5064 38.6524 87.2172 38.0875 86.8591 37.5667ZM88.5397 37.4315L89.306 37.0688C89.6935 37.5966 90.0226 38.1647 90.2879 38.7633L89.4406 39.1259C89.2153 38.5243 88.9125 37.9547 88.5397 37.4315H88.5397Z" fill="white"/>
<path d="M94.423 47.9455L93.7375 46.8563C95.1231 46.6352 96.3763 45.9048 97.2517 44.8082C98.1271 43.7117 98.5617 42.3278 98.4703 40.9277H92.8234V43.6305H91.465V39.7841H94.84V37.8079H96.1977V39.7841H98.7122L99.9493 40.1341C99.7875 43.9526 98.5107 46.8702 94.423 47.9455Z" fill="white"/>
<path d="M102.565 39.879L103.318 38.7759C104.494 39.3135 105.604 39.9861 106.625 40.78L105.764 41.9361C104.785 41.124 103.71 40.4333 102.565 39.879ZM102.82 46.5078C104.465 46.2602 106.027 45.6235 107.377 44.6505C108.726 43.6776 109.824 42.3965 110.578 40.9138L111.465 41.9096C110.646 43.4406 109.487 44.7636 108.077 45.7772C106.667 46.7909 105.044 47.4682 103.332 47.7573L102.82 46.5078Z" fill="white"/>
<path d="M122.484 47.1534H114.027V39.1523H122.485L122.484 47.1534ZM115.359 40.3894V45.9164H121.14V40.3894H115.359Z" fill="white"/>
<path d="M134.593 43.5624H125.087V42.1914H134.593V43.5624Z" fill="white"/>
<path d="M137.827 37.8483H139.157V41.2903C140.927 42.0268 142.643 42.8852 144.294 43.8592L143.541 45.0418C142.142 44.1466 140.677 43.36 139.157 42.6891V47.8785H137.827V37.8483ZM140.986 38.575L141.779 38.1984C142.168 38.7685 142.489 39.3821 142.735 40.0268L141.86 40.4173C141.65 39.7679 141.356 39.1486 140.986 38.575H140.986ZM142.519 37.9962L143.326 37.6196C143.734 38.1865 144.073 38.8003 144.334 39.4479L143.46 39.8384C143.22 39.1893 142.904 38.5709 142.518 37.9962H142.519Z" fill="white"/>
<path d="M42.7932 32.6797C42.8086 31.4877 43.1252 30.319 43.7136 29.2822C44.302 28.2455 45.1431 27.3744 46.1586 26.7501C45.5135 25.8287 44.6624 25.0705 43.673 24.5356C42.6836 24.0007 41.583 23.7039 40.4588 23.6687C38.0607 23.417 35.7358 25.1037 34.5137 25.1037C33.268 25.1037 31.3865 23.6937 29.3604 23.7354C28.0499 23.7777 26.7726 24.1588 25.6532 24.8415C24.5337 25.5242 23.6102 26.4853 22.9726 27.6311C20.2106 32.413 22.2708 39.4408 24.9165 43.3061C26.2402 45.1988 27.7873 47.3131 29.8116 47.2381C31.7924 47.156 32.5322 45.975 34.9233 45.975C37.2922 45.975 37.9863 47.2381 40.0517 47.1904C42.1772 47.1559 43.5165 45.2893 44.7937 43.3786C45.7448 42.03 46.4767 40.5394 46.9622 38.9622C45.7273 38.4399 44.6735 37.5656 43.9321 36.4484C43.1907 35.3312 42.7946 34.0205 42.7932 32.6797Z" fill="white"/>
<path d="M38.8921 21.1266C40.0511 19.7353 40.622 17.9471 40.4838 16.1416C38.7132 16.3276 37.0776 17.1738 35.903 18.5117C35.3287 19.1653 34.8888 19.9257 34.6086 20.7494C34.3283 21.5731 34.2132 22.4439 34.2697 23.3121C35.1553 23.3213 36.0314 23.1293 36.8321 22.7507C37.6328 22.3722 38.3372 21.8168 38.8921 21.1266Z" fill="white"/>
</svg>
