<svg width="128" height="32" viewBox="0 0 128 32" fill="none" xmlns="http://www.w3.org/2000/svg">
<path d="M45.2122 11.3299H39.4261L38.0365 15.4329H35.5858L41.0663 0.253128H43.6126L49.0931 15.4328H46.6005L45.2122 11.3299ZM40.0253 9.43662H44.6118L42.3508 2.7779H42.2876L40.0253 9.43662Z" fill="white"/>
<path d="M60.9291 9.89968C60.9291 13.3389 59.0884 15.5485 56.3105 15.5485C55.6069 15.5853 54.907 15.4232 54.2912 15.0808C53.6754 14.7383 53.1684 14.2294 52.8284 13.6122H52.7759V19.0939H50.5042V4.36545H52.703V6.20628H52.7448C53.1005 5.59207 53.616 5.08578 54.2365 4.74126C54.8571 4.39674 55.5594 4.22688 56.2688 4.24977C59.0777 4.24968 60.9291 6.47005 60.9291 9.89968ZM58.5942 9.89968C58.5942 7.65898 57.4363 6.18594 55.6695 6.18594C53.9338 6.18594 52.7663 7.69007 52.7663 9.89968C52.7663 12.1296 53.9338 13.623 55.6695 13.623C57.4363 13.623 58.5942 12.1606 58.5942 9.89968H58.5942Z" fill="white"/>
<path d="M73.1106 9.89968C73.1106 13.3389 71.2693 15.5485 68.4914 15.5485C67.7878 15.5853 67.0879 15.4232 66.4721 15.0808C65.8563 14.7383 65.3493 14.2294 65.0093 13.6122H64.9568V19.0939H62.6851V4.36545H64.8839V6.20628H64.9257C65.2814 5.59207 65.7969 5.08578 66.4175 4.74126C67.038 4.39674 67.7403 4.22688 68.4497 4.24977C71.2585 4.24968 73.1106 6.47005 73.1106 9.89968ZM70.7751 9.89968C70.7751 7.65898 69.6171 6.18594 67.8504 6.18594C66.1147 6.18594 64.9472 7.69007 64.9472 9.89968C64.9472 12.1296 66.1147 13.623 67.8504 13.623C69.6171 13.623 70.7751 12.1606 70.7751 9.89968H70.7751Z" fill="white"/>
<path d="M81.1601 11.2033C81.3285 12.7086 82.7908 13.6971 84.7891 13.6971C86.7039 13.6971 88.0815 12.7086 88.0815 11.3513C88.0815 10.1732 87.2506 9.46767 85.2834 8.98414L83.3161 8.51022C80.5287 7.83695 79.2346 6.53337 79.2346 4.41806C79.2346 1.7989 81.5171 0 84.7569 0C87.9657 0 90.1646 1.79898 90.2386 4.41806H87.9454C87.8081 2.90319 86.5559 1.98884 84.7259 1.98884C82.8959 1.98884 81.6436 2.914 81.6436 4.26055C81.6436 5.33373 82.4434 5.96523 84.4 6.44869L86.0724 6.85934C89.1869 7.59589 90.4797 8.84693 90.4797 11.0673C90.4797 13.9072 88.2188 15.6859 84.6208 15.6859C81.2545 15.6859 78.9816 13.949 78.8347 11.2034L81.1601 11.2033Z" fill="white"/>
<path d="M95.3848 1.74655V4.3657H97.4894V6.16467H95.3848V12.2659C95.3848 13.2137 95.8062 13.6555 96.7314 13.6555C96.9812 13.6511 97.2307 13.6336 97.4787 13.6029V15.3912C97.0627 15.4689 96.64 15.5041 96.2169 15.4962C93.9762 15.4962 93.1024 14.6546 93.1024 12.5083V6.1646H91.4932V4.3656H93.1024V1.74644L95.3848 1.74655Z" fill="white"/>
<path d="M98.707 9.89989C98.707 6.41773 100.758 4.2296 103.956 4.2296C107.165 4.2296 109.206 6.41773 109.206 9.89989C109.206 13.3916 107.175 15.5702 103.956 15.5702C100.738 15.5702 98.707 13.3916 98.707 9.89989ZM106.891 9.89989C106.891 7.51121 105.797 6.10139 103.956 6.10139C102.115 6.10139 101.021 7.52195 101.021 9.89989C101.021 12.2981 102.115 13.6972 103.956 13.6972C105.797 13.6972 106.891 12.2981 106.891 9.89989Z" fill="white"/>
<path d="M111.079 4.3655H113.246V6.24917H113.298C113.445 5.66086 113.789 5.14094 114.274 4.77681C114.759 4.41268 115.354 4.22653 115.96 4.24965C116.222 4.24873 116.483 4.27716 116.738 4.33441V6.45928C116.408 6.35829 116.063 6.31192 115.718 6.32199C115.388 6.3086 115.059 6.36679 114.753 6.49256C114.448 6.61833 114.173 6.80871 113.948 7.05062C113.724 7.29253 113.554 7.58024 113.45 7.894C113.347 8.20776 113.313 8.54014 113.351 8.86831V15.4327H111.079V4.3655Z" fill="white"/>
<path d="M127.212 12.1823C126.963 13.2282 126.342 14.148 125.466 14.771C124.59 15.394 123.517 15.678 122.447 15.5702C119.228 15.5702 117.229 13.4131 117.229 9.95242C117.229 6.481 119.238 4.2296 122.352 4.2296C125.414 4.2296 127.339 6.33298 127.339 9.68861V10.4669H119.522V10.6042C119.486 11.0115 119.537 11.4218 119.672 11.8079C119.807 12.194 120.022 12.547 120.304 12.8435C120.585 13.14 120.927 13.3732 121.305 13.5276C121.684 13.682 122.091 13.754 122.5 13.739C123.036 13.7893 123.575 13.665 124.036 13.3845C124.496 13.104 124.854 12.6824 125.055 12.1824L127.212 12.1823ZM119.533 8.87924H125.066C125.087 8.51301 125.031 8.14652 124.903 7.80277C124.775 7.45902 124.577 7.14543 124.323 6.88168C124.068 6.61793 123.761 6.40971 123.422 6.27009C123.083 6.13047 122.718 6.06247 122.352 6.07035C121.982 6.06814 121.615 6.13923 121.273 6.27949C120.93 6.41975 120.619 6.62642 120.357 6.88756C120.095 7.1487 119.887 7.45915 119.746 7.80099C119.605 8.14283 119.532 8.5093 119.533 8.87924Z" fill="white"/>
<path d="M38.456 31.6904L38.5501 30.5203C38.9888 30.6619 39.4468 30.7348 39.9078 30.7365C40.3248 30.7365 40.4859 30.696 40.6881 30.4129C41.1797 29.3837 41.3928 28.2435 41.3059 27.1062C41.3059 25.8957 40.9301 25.5456 39.9754 25.5456C39.76 25.5456 39.518 25.5596 39.2488 25.5735C38.7351 27.6615 37.8813 29.6508 36.7217 31.4616L35.6053 30.8563C36.6945 29.2913 37.4916 27.5422 37.9581 25.6934C37.2214 25.7731 36.4899 25.8946 35.7671 26.0574L35.5251 24.8733C36.3452 24.7255 37.3263 24.5916 38.2405 24.5107C38.4284 23.618 38.5676 22.7158 38.6575 21.8079L39.9754 21.9558C39.8541 22.7758 39.7063 23.5972 39.518 24.4034H40.0424C41.7501 24.4034 42.5702 25.2499 42.5702 27.0518C42.6442 28.4267 42.3764 29.7985 41.7905 31.0446C41.6362 31.331 41.4008 31.5655 41.1137 31.7186C40.8266 31.8717 40.5008 31.9366 40.177 31.9051C39.5969 31.9013 39.0192 31.8292 38.456 31.6904ZM42.7849 24.4439L43.7668 23.7842C45.128 25.0973 45.9483 26.8726 46.0658 28.7603L44.7751 28.9611C44.7656 28.1128 44.5844 27.2752 44.2423 26.4988C43.9003 25.7224 43.4045 25.0234 42.7849 24.4439Z" fill="white"/>
<path d="M50.5237 31.8786L50.2553 30.6681C50.5914 30.696 51.0349 30.7085 51.304 30.7085C53.9657 30.7085 54.974 29.9568 54.974 28.8397C54.974 27.9527 54.3959 27.4423 53.1052 27.4423C51.698 27.5713 50.387 28.2125 49.4213 29.2442L48.3857 28.7867C48.1896 27.0255 48.5923 25.2495 49.5287 23.745L50.7253 24.1342C49.9797 25.141 49.6175 26.3806 49.7038 27.6305C50.782 26.8701 52.0562 26.4358 53.3744 26.3795C55.1763 26.3795 56.2921 27.3069 56.2921 28.8131C56.2921 30.7224 54.7858 31.8925 51.1696 31.8925C50.9944 31.8926 50.7392 31.8786 50.5237 31.8786ZM49.2734 22.9515L49.6096 21.7675C51.3982 22.0411 53.1644 22.4457 54.8938 22.978L54.571 24.1481C52.8447 23.591 51.0717 23.1905 49.2734 22.9516V22.9515Z" fill="white"/>
<path d="M60.1859 30.9512C61.5724 30.4948 62.8179 29.6888 63.8022 28.611C63.0225 27.9647 62.1804 27.3975 61.2884 26.9179L62.0275 25.9905C62.9269 26.4479 63.782 26.9876 64.5818 27.6027C65.2242 26.6658 65.6723 25.6097 65.8997 24.4968H62.471C61.6832 25.773 60.6933 26.9129 59.5402 27.8718L58.5583 27.0253C60.2181 25.6562 61.5041 23.8891 62.2967 21.8888L63.5874 22.1984C63.4396 22.575 63.2918 22.9641 63.1167 23.3281H66.4514L67.406 23.7716C67.1744 25.5965 66.4535 27.3247 65.3197 28.7733C64.1859 30.2219 62.6814 31.3368 60.9656 32L60.1859 30.9512ZM65.8593 21.5667L66.6124 21.2027C66.9946 21.7145 67.3151 22.2697 67.567 22.8567L66.7198 23.2472C66.5065 22.6523 66.2173 22.0874 65.8593 21.5667ZM67.5398 21.4314L68.3062 21.0688C68.6936 21.5965 69.0228 22.1647 69.288 22.7632L68.4407 23.1258C68.2155 22.5242 67.9126 21.9546 67.5398 21.4314H67.5398Z" fill="white"/>
<path d="M73.4231 31.9455L72.7376 30.8563C74.1232 30.6352 75.3764 29.9049 76.2518 28.8083C77.1272 27.7117 77.5617 26.3279 77.4704 24.9277H71.8235V27.6305H70.4651V23.7841H73.8401V21.8079H75.1978V23.7841H77.7123L78.9493 24.1342C78.7876 27.9527 77.5108 30.8703 73.4231 31.9455Z" fill="white"/>
<path d="M81.5649 23.879L82.318 22.7758C83.4942 23.3134 84.6039 23.986 85.6247 24.7799L84.7642 25.9361C83.7846 25.1239 82.7104 24.4332 81.5649 23.879ZM81.8202 30.5077C83.4653 30.2601 85.0275 29.6234 86.3769 28.6505C87.7263 27.6775 88.824 26.3964 89.5785 24.9138L90.4655 25.9096C89.6462 27.4405 88.4871 28.7635 87.0773 29.7772C85.6674 30.7908 84.0442 31.4682 82.332 31.7573L81.8202 30.5077Z" fill="white"/>
<path d="M101.485 31.1534H93.0275V23.1523H101.485L101.485 31.1534ZM94.3593 24.3894V29.9164H100.14V24.3894H94.3593Z" fill="white"/>
<path d="M113.593 27.5623H104.087V26.1913H113.593V27.5623Z" fill="white"/>
<path d="M116.827 21.8484H118.158V25.2903C119.927 26.0268 121.643 26.8852 123.294 27.8593L122.541 29.0419C121.142 28.1466 119.677 27.3601 118.158 26.6891V31.8786H116.827V21.8484ZM119.986 22.575L120.779 22.1984C121.168 22.7685 121.489 23.3822 121.735 24.0268L120.86 24.4173C120.65 23.7679 120.356 23.1486 119.986 22.575H119.986ZM121.519 21.9962L122.326 21.6197C122.734 22.1865 123.073 22.8003 123.334 23.448L122.46 23.8385C122.22 23.1893 121.904 22.5709 121.519 21.9962H121.519Z" fill="white"/>
<path d="M21.7932 16.6795C21.8086 15.4875 22.1252 14.3188 22.7136 13.2821C23.302 12.2453 24.1431 11.3743 25.1586 10.7499C24.5135 9.82857 23.6624 9.07033 22.673 8.53542C21.6836 8.00052 20.583 7.7037 19.4588 7.66852C17.0607 7.41681 14.7358 9.10353 13.5137 9.10353C12.268 9.10353 10.3865 7.69352 8.3604 7.7352C7.04986 7.77754 5.77263 8.15864 4.65317 8.84136C3.53371 9.52408 2.61018 10.4851 1.97258 11.6309C-0.789388 16.4128 1.27079 23.4406 3.91652 27.3059C5.24023 29.1987 6.78728 31.3129 8.81155 31.238C10.7924 31.1558 11.5322 29.9748 13.9233 29.9748C16.2922 29.9748 16.9863 31.238 19.0517 31.1903C21.1772 31.1558 22.5165 29.2891 23.7937 27.3785C24.7448 26.0298 25.4767 24.5393 25.9622 22.962C24.7273 22.4397 23.6735 21.5655 22.9321 20.4483C22.1907 19.3311 21.7946 18.0203 21.7932 16.6795Z" fill="white"/>
<path d="M17.8922 5.1265C19.0511 3.73522 19.6221 1.94697 19.4838 0.14151C17.7132 0.327479 16.0777 1.17372 14.9031 2.51162C14.3288 3.16521 13.8889 3.92559 13.6086 4.74928C13.3284 5.57297 13.2132 6.44382 13.2697 7.31205C14.1553 7.32117 15.0315 7.12921 15.8322 6.75064C16.6329 6.37206 17.3372 5.81674 17.8922 5.1265Z" fill="white"/>
</svg>
