
<svg width="170" height="51" viewBox="0 0 170 51" fill="none" xmlns="http://www.w3.org/2000/svg">
<path fill-rule="evenodd" clip-rule="evenodd" d="M117.417 21.2076V34.562C117.417 36.4995 118.301 37.4682 120.071 37.572C120.377 37.572 120.717 37.5374 121.058 37.4682C121.398 37.399 121.704 37.3298 121.942 37.226L121.636 35.3578C121.33 35.427 121.126 35.4616 120.956 35.4616C120.581 35.4616 120.343 35.3578 120.173 35.1502C120.003 34.9426 119.935 34.5966 119.935 34.1123V21L117.417 21.2076ZM92.2013 33.8699C92.7798 35.0462 93.6305 35.9112 94.7194 36.5339C95.8424 37.1567 97.1355 37.468 98.7008 37.468C99.6196 37.468 100.538 37.3642 101.491 37.1566C102.444 36.9491 103.329 36.6377 104.179 36.2225V29.8221H98.2584V31.8287H101.695V34.9078C101.253 35.0808 100.811 35.2192 100.3 35.2884C99.7897 35.3922 99.3133 35.4268 98.8029 35.4268C97.714 35.4268 96.7952 35.1846 96.0806 34.7003C95.366 34.1813 94.8555 33.524 94.5152 32.6936C94.175 31.8633 94.0048 30.8946 94.0048 29.8221C94.0048 28.6112 94.209 27.5387 94.6514 26.6737C95.0597 25.8088 95.6722 25.1515 96.4549 24.7017C97.2376 24.2519 98.1563 24.0098 99.1772 24.0098C100.402 24.0098 101.695 24.3211 103.057 24.9785L103.703 22.9718C103.022 22.6259 102.308 22.3837 101.525 22.1761C100.743 22.0031 99.9258 21.8993 99.0751 21.8993C97.6119 21.8993 96.2847 22.2107 95.1278 22.7989C93.9368 23.387 93.018 24.2865 92.3374 25.4628C91.6568 26.6391 91.3165 28.0922 91.3165 29.7875C91.3165 31.3443 91.6228 32.7282 92.2013 33.8699ZM57.0835 33.2125H63.0726L64.5698 37.2603H67.3262L61.3371 22.0722H58.853L53 37.2603H55.6202L57.0835 33.2125ZM62.2899 31.1367H57.8321L59.4315 26.7428L60.044 24.7708C60.2482 25.4973 60.4864 26.1893 60.6905 26.7774L62.2899 31.1367ZM68.3202 26.1618V26.1619V26.1619V26.1619V26.162V26.162V26.162V26.162V26.162C68.3516 27.0839 68.3809 27.944 68.3809 28.7147H68.3469V41.9654L70.8991 41.7578V37.018C71.6477 37.2602 72.3963 37.3985 73.145 37.3985C74.1999 37.3985 75.1186 37.1564 75.9013 36.672C76.718 36.2222 77.3305 35.4957 77.7729 34.5616C78.2153 33.6275 78.4535 32.4858 78.4535 31.1711C78.4535 29.9256 78.2493 28.8877 77.875 28.0573C77.5007 27.227 76.9902 26.6388 76.3437 26.2583C75.6971 25.8777 75.0166 25.7047 74.2679 25.7047C72.9748 25.7047 71.8519 26.2583 70.865 27.3654C70.831 26.881 70.797 26.4313 70.6949 25.9469H68.3129L68.3202 26.1618ZM75.8673 31.3786C75.8673 32.7625 75.595 33.8004 75.0846 34.4924C74.5402 35.2189 73.7915 35.5649 72.8387 35.5649C72.5324 35.5649 72.1922 35.5303 71.8519 35.4611C71.5116 35.3919 71.2053 35.2881 70.9671 35.1497V29.0952C71.3414 28.6801 71.7498 28.3687 72.1581 28.1265C72.5665 27.8843 73.0089 27.7805 73.5193 27.7805C74.2339 27.7805 74.7784 28.0919 75.2207 28.6455C75.6631 29.199 75.8673 30.0986 75.8673 31.3786ZM79.9849 28.7147C79.9849 27.9439 79.9556 27.0837 79.9242 26.1618L79.9169 25.9469H82.2989C82.401 26.4313 82.435 26.881 82.469 27.3654C83.4559 26.2583 84.5788 25.7047 85.8719 25.7047C86.6206 25.7047 87.3012 25.8777 87.9477 26.2583C88.5943 26.6388 89.1047 27.227 89.479 28.0573C89.8533 28.8877 90.0575 29.9256 90.0575 31.1711C90.0575 32.4858 89.8193 33.6275 89.3769 34.5616C88.9345 35.4957 88.322 36.2222 87.5053 36.672C86.7227 37.1564 85.8039 37.3985 84.749 37.3985C84.0003 37.3985 83.2517 37.2602 82.5031 37.018V41.7578L79.9509 41.9654V28.7147H79.9849ZM86.6886 34.4924C87.1991 33.8004 87.4713 32.7625 87.4713 31.3786C87.4713 30.0986 87.2671 29.199 86.8247 28.6455C86.3824 28.0919 85.8379 27.7805 85.1233 27.7805C84.6129 27.7805 84.1705 27.8843 83.7621 28.1265C83.3538 28.3687 82.9454 28.6801 82.5711 29.0952V35.1497C82.8093 35.2881 83.1156 35.3919 83.4559 35.4611C83.7962 35.5303 84.1365 35.5649 84.4427 35.5649C85.3955 35.5649 86.1782 35.2189 86.6886 34.4924ZM113.129 37.2601C113.027 36.8103 112.993 36.3259 112.959 35.7724C112.551 36.2567 112.074 36.6373 111.428 36.9833C110.815 37.3293 110.101 37.4676 109.284 37.4676C108.637 37.4676 108.059 37.3293 107.548 37.0871C107.038 36.8449 106.596 36.4643 106.289 35.9454C105.983 35.4264 105.813 34.8037 105.813 34.0771C105.813 32.97 106.187 32.1051 106.97 31.4477C107.753 30.7904 109.046 30.479 110.849 30.479C111.53 30.479 112.21 30.5136 112.857 30.6174V30.4098C112.857 29.4065 112.653 28.7146 112.244 28.2994C111.836 27.8842 111.224 27.6767 110.441 27.6767C109.896 27.6767 109.318 27.7459 108.705 27.9188C108.093 28.0918 107.548 28.2648 107.072 28.507L106.664 26.6388C107.106 26.4312 107.719 26.2236 108.467 26.0506C109.216 25.8776 109.999 25.7738 110.815 25.7738C111.768 25.7738 112.585 25.9122 113.265 26.2236C113.946 26.535 114.456 27.0193 114.831 27.7459C115.205 28.4724 115.409 29.4411 115.409 30.652V35.1496C115.409 35.5042 115.427 35.97 115.45 36.5607C115.459 36.7769 115.468 37.0098 115.477 37.2601H113.129ZM111.632 35.1496C112.176 34.9075 112.585 34.5615 112.925 34.1809V32.0705C112.244 32.0013 111.666 31.9667 111.224 31.9667C110.169 31.9667 109.454 32.1397 109.046 32.4857C108.637 32.8316 108.433 33.2814 108.433 33.8695C108.433 34.4231 108.569 34.8383 108.876 35.115C109.182 35.3918 109.556 35.5302 110.067 35.5302C110.577 35.5648 111.087 35.4264 111.632 35.1496ZM123.746 34.562V21.2076L126.264 21V34.1123C126.264 34.5966 126.332 34.9426 126.502 35.1502C126.672 35.3578 126.911 35.4616 127.285 35.4616C127.455 35.4616 127.659 35.427 127.965 35.3578L128.272 37.226C128.034 37.3298 127.727 37.399 127.387 37.4682C127.047 37.5374 126.706 37.572 126.4 37.572C124.631 37.4682 123.746 36.4995 123.746 34.562ZM131.403 31.9322H138.651V31.2403C138.651 30.2369 138.481 29.3028 138.14 28.4725C137.8 27.6422 137.29 26.9502 136.575 26.4659C135.894 25.9469 135.01 25.7047 133.955 25.7047C132.934 25.7047 132.049 25.9469 131.266 26.4313C130.484 26.9156 129.905 27.6076 129.463 28.5071C129.021 29.4066 128.816 30.4791 128.816 31.7246C128.816 32.9355 129.021 33.9388 129.429 34.8038C129.837 35.6687 130.45 36.326 131.266 36.7758C132.083 37.2256 133.07 37.4677 134.261 37.4677C135.792 37.4677 137.188 37.1564 138.447 36.5336L137.902 34.7692C137.392 34.9767 136.881 35.1497 136.337 35.2881C135.792 35.4265 135.248 35.4957 134.737 35.4957C132.628 35.4957 131.505 34.2848 131.403 31.9322ZM136.199 30.2715C136.161 29.3889 135.923 28.7089 135.52 28.2649C135.112 27.8151 134.601 27.573 133.921 27.573C133.274 27.573 132.73 27.8151 132.321 28.2649C131.879 28.7147 131.607 29.4066 131.471 30.2715H136.199ZM140.591 28.7838C140.591 28.3382 140.573 27.7331 140.551 26.956L140.551 26.9529C140.542 26.6448 140.532 26.3097 140.523 25.9468H142.905C142.939 26.2582 142.973 26.6387 143.007 27.0885C143.014 27.1898 143.022 27.2859 143.029 27.3771C143.054 27.6906 143.075 27.9466 143.075 28.161C143.381 27.6767 143.653 27.2615 143.959 26.9155C144.232 26.5696 144.572 26.2928 144.946 26.0852C145.321 25.8776 145.763 25.7738 146.239 25.7738C146.648 25.7738 146.954 25.8084 147.26 25.9122L146.954 28.161C146.716 28.0918 146.444 28.0572 146.137 28.0572C145.525 28.0572 145.014 28.1956 144.572 28.507C144.13 28.8184 143.653 29.3373 143.143 30.0293V37.2947H140.625V28.7838H140.591ZM147.77 41.654C148.009 41.7578 148.315 41.827 148.689 41.8962C149.063 41.9654 149.472 42 149.88 42C150.765 42 151.48 41.827 152.092 41.5156C152.671 41.1697 153.215 40.6853 153.657 40.028C154.1 39.3706 154.542 38.4711 154.916 37.3986L159 25.947H156.448L154.372 32.382C154.1 33.2123 153.896 34.0081 153.691 34.8384C153.589 34.2849 153.385 33.4199 153.045 32.3474L150.969 25.9815H148.247L152.33 37.364L152.16 37.7792C151.616 39.2668 150.765 39.9934 149.642 39.9934C149.431 39.9934 149.219 39.9661 148.984 39.9358C148.954 39.932 148.924 39.9281 148.893 39.9242C148.712 39.9011 148.561 39.8627 148.43 39.8294C148.364 39.8127 148.303 39.7973 148.247 39.7858L147.77 41.654Z" fill="white"/>
<path fill-rule="evenodd" clip-rule="evenodd" d="M33.9966 9H20.0031C13.3941 9 11 11.4278 11 18.0031V31.9966C11 38.6056 13.4278 40.9997 20.0031 40.9997H33.9966C40.6056 40.9997 42.9997 38.5719 42.9997 31.9966V18.0031C43.0334 11.4278 40.6056 9 33.9966 9Z" fill="#C8102E"/>
<path d="M17.7778 25H18.6247V28.9365H17.7778V27.3492H15.8469V28.9365H15V25H15.8469V26.5873H17.7778V25ZM22.5881 27.254C22.5881 27.8889 22.2493 28.2381 21.6396 28.2381C21.0298 28.2381 20.6911 27.8889 20.6911 27.2222V25H19.8442V27.254C19.8442 28.3651 20.4878 29 21.6396 29C22.7913 29 23.4688 28.3651 23.4688 27.2222V25H22.622V27.254H22.5881ZM32.4458 27.6984L31.4973 25H30.7859L29.8374 27.6984L28.9228 25H28.0081L29.4648 28.9365H30.1762L31.1247 26.3333L32.0732 28.9365H32.7846L34.2412 25H33.3604L32.4458 27.6984ZM35.7995 27.254H37.3577V26.5238H35.7995V25.7302H38.0691V25H34.9865V28.9365H38.1707V28.2063H35.8333V27.254H35.7995ZM39.1531 28.9365H40V25H39.1531V28.9365ZM25.1287 28.1111L24.7561 28.9365H23.8753L25.7046 25H26.4499L28.2791 28.9365H27.3984L27.0596 28.1111H25.1287ZM25.4336 27.4127H26.7209L26.0772 26.0159L25.4336 27.4127Z" fill="white"/>
<path d="M27.5 20C24.4715 20 22 17.7532 22 15H22.7658C22.7658 17.3734 24.8892 19.3038 27.5 19.3038C30.1108 19.3038 32.2342 17.3734 32.2342 15H33C33 17.7532 30.5285 20 27.5 20Z" fill="white"/>
<path d="M55 8.33987L55.1118 9.47712C56.4529 9.17647 59.6195 8.86275 60.9483 8.70588C59.8058 9.42484 58.6261 11.085 58.6261 13.1242C58.6261 16.0392 61.2463 17.3333 63.5436 17.4248L63.9038 16.3399C61.8796 16.2614 59.6195 15.451 59.6195 12.902C59.6195 11.3464 60.6999 9.35948 62.4633 8.75817C63.0966 8.56209 64.1894 8.54902 64.8972 8.54902V7.50327C64.0652 7.54248 62.8979 7.62091 61.5443 7.73856C59.2594 7.93464 56.9124 8.18301 56.1052 8.27451C55.8693 8.30065 55.4719 8.3268 55 8.33987ZM63.109 10.1569L62.4757 10.4444C62.8482 10.9804 63.2083 11.6601 63.494 12.2876L64.1273 11.9739C63.8665 11.3987 63.3946 10.5882 63.109 10.1569ZM64.4626 9.60784L63.8541 9.9085C64.239 10.4575 64.5992 11.098 64.8972 11.7386L65.5429 11.4118C65.2573 10.8366 64.7606 10.0392 64.4626 9.60784Z" fill="white"/>
<path d="M72.8075 13.1634V11.8824H74.4095V12.9804C74.4095 13.2026 74.397 12.9412 74.3846 13.1634H72.8075ZM77.1787 11.8824V13.1634H75.2166C75.229 12.9412 75.2415 13.2288 75.2415 13.0065V11.8824H77.1787ZM72.8075 9.07189C73.6519 8.40523 74.3846 7.62091 74.8565 6.88889C75.3656 7.63399 76.1604 8.43137 76.9924 9.07189H72.8075ZM78.0231 13.9608V11H75.2415V9.89542H77.2284V9.24183C77.5885 9.50327 77.9486 9.73856 78.2963 9.93464C78.4205 9.66013 78.6192 9.32026 78.793 9.08497C77.4891 8.48366 76.1107 7.32026 75.229 6.02614H74.397C73.7885 7.13725 72.5964 8.30065 71.3174 9.01961V8.79739H69.9762V6H69V8.87582L67.3684 8.79739V9.69935L68.9255 9.77778C68.5529 11.5556 67.8775 13.5294 67.1076 14.6275C67.2566 14.8497 67.4802 15.2288 67.5919 15.4771C68.1507 14.6405 68.5902 13.3725 69 11.9608V18L69.9762 17.9216V11.8039C70.3487 12.4444 70.7834 13.268 70.9572 13.6863L71.4664 12.915C71.2677 12.5752 70.3239 11.1503 69.9762 10.6797V9.69935H71.3174V9.62091C71.3794 9.73856 71.4415 9.85621 71.4788 9.96078C71.8389 9.76471 72.1866 9.54248 72.5219 9.29412V9.89542H74.4095V11H71.9879V13.9608H74.2232C73.9003 15.0458 73.0435 16.549 70.8827 17.268C71.0442 17.4248 71.3049 17.7909 71.3794 18C73.5029 17.2549 74.484 16.183 74.931 15.0065C75.6637 16.6405 76.6944 17.3987 78.1721 18C78.2715 17.7255 78.495 17.3856 78.7061 17.1765C77.278 16.6667 76.2846 15.5294 75.5768 13.9608H78.0231Z" fill="white"/>
<path d="M82.9655 15.1111C82.2328 15.8824 81.0407 16.6275 79.9479 17.1242C80.1714 17.281 80.5067 17.6209 80.6682 17.7908C81.7361 17.2288 83.0028 16.3529 83.8472 15.451L82.9655 15.1111ZM89.5098 14.6013C89.7954 14.8497 90.0562 15.085 90.2425 15.2941L90.9007 14.7059C90.2052 14.0131 88.8517 13.0065 87.7465 12.3399L87.1504 12.8497C87.6099 13.1503 88.0281 13.5817 88.5 13.9477C87.0968 13.9739 85.8163 13.9869 84.5 14C86 13.5 87 12.0392 88 11L87.0938 10.6797C86.4108 11.3333 85.623 12.1438 84.6419 12.8627C84.3315 12.6013 83.9093 12.3137 83.4871 12.0392C84.1328 11.5556 84.8531 10.902 85.474 10.3007L85.089 10.1046H89.9569V11.6993L91.0124 11.7647V9.01961H85.9334L85.9831 8.01307H90.2301L90.1928 7.0625H85.9458L85.9831 6H85.0766L85.0393 7.0625H80.6682L80.7054 8.01307H85.0766L85.0269 9.01961L79.9479 9.08497L79.9976 11.7647L81 11.634V10.0392L84.4184 10.1046C83.9714 10.6013 83.3505 11.1895 82.8041 11.634C82.593 11.5163 82.3694 11.3987 82.1707 11.2941L81.5623 11.8431C82.357 12.2614 83.2884 12.8758 83.8969 13.3856C83.6112 13.5817 83.3256 13.7778 83.04 13.9477C81.9721 13.9608 81.0034 13.9608 80.2087 13.9608L80.2584 14.8627C81.5498 14.8366 83.189 15.0588 85.0269 15.0065L85.0393 18L86 18L85.9831 14.719L89.5098 14.6013ZM87.1752 15.634C88.268 16.2222 89.6092 17.3725 90.2425 18L91.0124 17.4118C90.3046 16.7712 88.9386 15.6732 87.8831 15.1373L87.1752 15.634Z" fill="white"/>
</svg>
