<svg width="141" height="40" viewBox="0 0 141 40" fill="none" xmlns="http://www.w3.org/2000/svg">
<g clip-path="url(#clip0_23060_2618)">
<path d="M37.2951 27.7091C36.3048 28.3619 34.7357 28.6499 33.0952 28.6499C27.8831 28.6499 24.9341 25.5122 24.9341 20.5176C24.9341 15.6903 27.8803 12.3112 33.0458 12.3112C34.5903 12.3112 36.1347 12.6019 37.2704 13.422V15.5203C36.1347 14.7962 34.8811 14.4231 33.0458 14.4231C29.3287 14.4231 27.1067 16.8916 27.1067 20.5286C27.1067 24.1655 29.4001 26.5873 33.1665 26.5873C34.5957 26.5996 36.0069 26.2685 37.2814 25.6219L37.2951 27.7091Z" fill="#253858"/>
<path d="M38.8286 22.3525C38.8286 18.732 40.9546 16.1017 44.5894 16.1017C48.2242 16.1017 50.2843 18.732 50.2843 22.3525C50.2843 25.973 48.1858 28.6609 44.5894 28.6609C40.993 28.6609 38.8286 25.973 38.8286 22.3525ZM40.8586 22.3525C40.8586 24.6455 41.9915 26.719 44.5757 26.719C47.1598 26.719 48.2434 24.6455 48.2434 22.3525C48.2434 20.0595 47.1323 18.0326 44.5757 18.0326C42.019 18.0326 40.8449 20.0568 40.8449 22.3525H40.8586Z" fill="#253858"/>
<path d="M62.9306 28.4085H60.8568V21.121C60.8568 18.9487 59.9872 17.9833 58.0065 17.9833C56.0863 17.9833 54.7476 19.2614 54.7476 21.6997V28.4085H52.6709V16.3403H54.7393V18.3179C55.1096 17.6328 55.6618 17.0632 56.3351 16.6717C57.0083 16.2802 57.7765 16.082 58.5552 16.099C61.3313 16.099 62.9224 18.0189 62.9224 21.3349L62.9306 28.4085Z" fill="#253858"/>
<path d="M68.7024 16.3431H71.816V18.263H68.7024V28.4113H66.6724V18.263H64.7192V16.3431H66.6724V15.0156C66.6724 12.7693 67.9288 11.2498 70.5129 11.2498C70.986 11.2475 71.457 11.3121 71.912 11.4417V13.348C71.4824 13.2668 71.0461 13.2264 70.609 13.2273C69.3279 13.2273 68.6887 13.9761 68.6887 15.0622L68.7024 16.3431Z" fill="#253858"/>
<path d="M77.2942 28.4826C75.3164 28.4826 74.06 27.5418 74.06 25.3202V11.2964H76.1366V25.0788C76.1366 26.1759 76.8608 26.5517 77.7524 26.5517C77.9547 26.5553 78.1572 26.5471 78.3586 26.527V28.3866C78.0088 28.4604 77.6516 28.4927 77.2942 28.4826Z" fill="#253858"/>
<path d="M80.1198 16.3431H82.1964V23.6224C82.1964 25.7947 83.0633 26.7601 85.0439 26.7601C86.9641 26.7601 88.3028 25.482 88.3028 23.0437V16.3431H90.3795V28.4113H88.3028V26.431C87.9327 27.1156 87.381 27.685 86.7083 28.0765C86.0356 28.4679 85.2679 28.6663 84.4897 28.6499C81.7136 28.6499 80.1198 26.73 80.1198 23.414V16.3431Z" fill="#253858"/>
<path d="M99.2868 28.6499C94.7714 28.6499 92.7935 26.0443 92.7935 22.3415C92.7935 18.6964 94.8208 16.0908 98.4912 16.0908C102.208 16.0908 103.703 18.6717 103.703 22.3415V23.2933H94.8921C95.1829 25.3449 96.5106 26.6724 99.3581 26.6724C100.608 26.6706 101.847 26.4497 103.02 26.0196V27.9395C102.038 28.4579 100.518 28.6499 99.2868 28.6499ZM94.8701 21.5187H101.605C101.484 19.2724 100.469 17.9942 98.3925 17.9942C96.1979 17.9833 95.0869 19.4068 94.8701 21.5077V21.5187Z" fill="#253858"/>
<path d="M116.426 28.4085H114.35V21.121C114.35 18.9487 113.48 17.9833 111.502 17.9833C109.582 17.9833 108.243 19.2614 108.243 21.6997V28.4085H106.167V16.3403H108.232V18.3179C108.602 17.6328 109.154 17.0632 109.827 16.6716C110.499 16.2801 111.267 16.0819 112.046 16.099C114.822 16.099 116.416 18.0189 116.416 21.3349L116.426 28.4085Z" fill="#253858"/>
<path d="M127.844 28.0959C127.12 28.4826 126.009 28.6444 124.9 28.6444C120.602 28.6444 118.591 26.0388 118.591 22.336C118.591 18.6909 120.593 16.0853 124.9 16.0853C125.89 16.0519 126.873 16.2501 127.773 16.664V18.5839C126.916 18.1804 125.976 17.9823 125.029 18.0052C121.894 18.0052 120.613 19.9827 120.613 22.3251C120.613 24.6674 121.916 26.6449 125.079 26.6449C126.012 26.6692 126.942 26.5214 127.822 26.2088L127.844 28.0959Z" fill="#253858"/>
<path d="M135.98 28.6499C131.465 28.6499 129.487 26.0443 129.487 22.3415C129.487 18.6964 131.514 16.0908 135.182 16.0908C138.899 16.0908 140.394 18.6717 140.394 22.3415V23.2933H131.586C131.876 25.3449 133.204 26.6724 136.052 26.6724C137.304 26.6712 138.546 26.4503 139.722 26.0196V27.9395C138.732 28.4579 137.212 28.6499 135.98 28.6499ZM131.55 21.5077H138.298C138.175 19.2614 137.163 17.9833 135.086 17.9833C132.889 17.9833 131.78 19.4068 131.55 21.5077Z" fill="#253858"/>
<path d="M1.01843 24.835C0.840125 25.1093 0.639871 25.4631 0.469792 25.7291C0.396855 25.8531 0.375535 26.0008 0.410426 26.1403C0.445316 26.2799 0.533623 26.4001 0.65633 26.4752L4.2225 28.6694C4.28447 28.7077 4.35344 28.7332 4.42538 28.7446C4.49732 28.7559 4.5708 28.7528 4.64153 28.7354C4.71226 28.7181 4.77883 28.6868 4.83734 28.6434C4.89586 28.6001 4.94516 28.5455 4.98237 28.4829C5.12502 28.2443 5.30881 27.9344 5.50907 27.6052C6.92182 25.2711 8.3428 25.5563 10.905 26.7824L14.4382 28.4637C14.5045 28.4953 14.5764 28.5132 14.6498 28.5164C14.7231 28.5197 14.7964 28.5082 14.8652 28.4826C14.934 28.457 14.997 28.4179 15.0504 28.3675C15.1038 28.3172 15.1466 28.2566 15.1761 28.1895L16.8742 24.3495C16.9349 24.2178 16.9411 24.0674 16.8912 23.9312C16.8413 23.7949 16.7395 23.684 16.6081 23.6227C15.8592 23.2716 14.3751 22.5722 13.0419 21.9276C8.22759 19.6017 4.14295 19.7553 1.01843 24.835Z" fill="url(#paint0_linear_23060_2618)"/>
<path d="M17.0057 16.121C17.184 15.8467 17.387 15.4929 17.5543 15.2241C17.6267 15.1007 17.6479 14.9539 17.6136 14.8151C17.5793 14.6762 17.492 14.5563 17.3705 14.4808L13.8043 12.2866C13.7424 12.2483 13.6734 12.2228 13.6015 12.2115C13.5295 12.2001 13.456 12.2032 13.3853 12.2206C13.3146 12.238 13.248 12.2692 13.1895 12.3126C13.131 12.3559 13.0817 12.4105 13.0445 12.4731C12.9046 12.7144 12.7208 13.0216 12.5178 13.3535C11.094 15.6684 9.67305 15.3941 7.11363 14.1763L3.57761 12.495C3.51132 12.4635 3.43938 12.4456 3.36604 12.4423C3.2927 12.4391 3.21945 12.4506 3.15064 12.4762C3.08183 12.5017 3.01885 12.5409 2.96544 12.5912C2.91203 12.6416 2.86926 12.7021 2.83968 12.7693L1.14163 16.6092C1.08776 16.7388 1.08561 16.884 1.13562 17.0152C1.18562 17.1463 1.28398 17.2532 1.41046 17.3141C2.15662 17.6651 3.6407 18.3673 4.97665 19.0091C9.79924 21.3542 13.8839 21.1978 17.0057 16.121Z" fill="url(#paint1_linear_23060_2618)"/>
</g>
<defs>
<linearGradient id="paint0_linear_23060_2618" x1="16.7782" y1="29.805" x2="5.98989" y2="23.6049" gradientUnits="userSpaceOnUse">
<stop stop-color="#0052CC"/>
<stop offset="0.92" stop-color="#2380FB"/>
<stop offset="1" stop-color="#2684FF"/>
</linearGradient>
<linearGradient id="paint1_linear_23060_2618" x1="-232089" y1="-95632.1" x2="-231716" y2="-95203.9" gradientUnits="userSpaceOnUse">
<stop stop-color="#0052CC"/>
<stop offset="0.92" stop-color="#2380FB"/>
<stop offset="1" stop-color="#2684FF"/>
</linearGradient>
<clipPath id="clip0_23060_2618">
<rect width="140" height="40" fill="white" transform="translate(0.394043 0.000488281)"/>
</clipPath>
</defs>
</svg>
