<svg width="141" height="40" viewBox="0 0 141 40" fill="none" xmlns="http://www.w3.org/2000/svg">
<g clip-path="url(#clip0_23060_2623)">
<path d="M26.6057 13.323H28.5055V22.69C28.5055 25.1716 27.3877 26.8842 24.7684 26.8842C23.9938 26.8955 23.223 26.7773 22.4897 26.5347V24.7405C23.1152 24.976 23.781 25.0945 24.4518 25.09C26.0565 25.09 26.6106 24.158 26.6106 22.8135L26.6057 13.323Z" fill="#253858"/>
<path d="M31.9668 12.6032C32.28 12.5813 32.5894 12.6813 32.8269 12.881C33.0643 13.0806 33.2105 13.3637 33.2332 13.668C33.2381 13.7231 33.2381 13.7784 33.2332 13.8335C33.2332 14.1597 33.0998 14.4727 32.8623 14.7034C32.6248 14.9341 32.3027 15.0638 31.9668 15.0638C31.6308 15.0638 31.3088 14.9341 31.0712 14.7034C30.8337 14.4727 30.7003 14.1597 30.7003 13.8335C30.6779 13.5291 30.7807 13.2286 30.9862 12.9979C31.1918 12.7672 31.4832 12.6252 31.7964 12.6032C31.8531 12.5985 31.9101 12.5985 31.9668 12.6032ZM31.0385 16.541H32.8543V26.7935H31.0385V16.541Z" fill="#253858"/>
<path d="M35.5947 16.5385H37.3673V18.342C37.9789 17.1327 39.0463 16.2705 41.1044 16.394V18.116C38.7825 17.8829 37.3673 18.568 37.3673 20.7397V26.7979H35.5947V16.5385Z" fill="#253858"/>
<path d="M49.6111 24.9456C48.9347 26.2994 47.6682 26.996 46.0444 26.996C43.238 26.996 41.8228 24.6799 41.8228 21.6648C41.8228 18.7731 43.3004 16.3336 46.2554 16.3336C47.7953 16.3336 48.9779 17.0092 49.6135 18.342V16.5386H51.4293V26.791H49.6135L49.6111 24.9456ZM46.5289 25.3556C48.1551 25.3556 49.6111 24.3514 49.6111 22.0749V21.2453C49.6111 18.9689 48.2822 17.9646 46.7328 17.9646C44.6843 17.9646 43.6289 19.2764 43.6289 21.6555C43.6289 24.1253 44.6508 25.3556 46.5313 25.3556H46.5289Z" fill="#253858"/>
<path d="M62.1695 26.9961C59.4879 26.9961 58.243 26.4835 57.166 25.9499V24.0648C58.4541 24.7219 60.4377 25.1926 62.2727 25.1926C64.3619 25.1926 65.1511 24.3933 65.1511 23.2027C65.1511 22.012 64.3907 21.3782 61.7521 20.7631C58.634 20.0244 57.2356 18.9782 57.2356 16.7646C57.2356 14.6675 58.881 13.1157 62.112 13.1157C64.1172 13.1157 65.4053 13.5817 66.3551 14.099V15.9444C65.0344 15.2383 63.5448 14.8846 62.0376 14.9192C60.2219 14.9192 59.1449 15.5343 59.1449 16.7646C59.1449 17.8714 60.0323 18.426 62.4789 19.0202C65.4125 19.7378 67.0603 20.6512 67.0603 23.0792C67.046 25.4163 65.6116 26.9961 62.1695 26.9961Z" fill="#253858"/>
<path d="M68.6514 21.6438C68.6514 18.5681 70.5078 16.3336 73.6744 16.3336C76.8402 16.3336 78.6564 18.5681 78.6564 21.6438C78.6564 24.7196 76.8183 27.003 73.6744 27.003C70.5296 27.003 68.6514 24.7196 68.6514 21.6438ZM70.4242 21.6438C70.4242 23.5918 71.417 25.3556 73.6744 25.3556C75.9309 25.3556 76.8838 23.5918 76.8838 21.6438C76.8838 19.6958 75.9121 17.9833 73.6744 17.9833C71.4359 17.9833 70.4333 19.6958 70.4333 21.6438H70.4242Z" fill="#253858"/>
<path d="M83.2778 16.5387H86.0003V18.1698H83.2778V26.7911H81.5052V18.1698H79.7876V16.5387H81.4985V15.4203C81.4985 13.5142 82.5966 12.221 84.8562 12.221C85.2702 12.2193 85.6819 12.2742 86.0793 12.3842V14.0152C85.7045 13.9451 85.3229 13.9107 84.9405 13.9127C83.8228 13.9127 83.2613 14.5488 83.2613 15.4715L83.2778 16.5387Z" fill="#253858"/>
<path d="M92.1436 25.0689C92.5274 25.057 92.909 25.0086 93.2824 24.9245V26.6254C92.885 26.7354 92.4732 26.7903 92.0593 26.7885C89.7997 26.7885 88.7015 25.4977 88.7015 23.5893V18.1789H86.9839V16.5477H88.694V14.3645H90.4666V16.5385H93.2734V18.1695H90.4666V23.552C90.4764 24.4538 91.0258 25.0689 92.1436 25.0689Z" fill="#253858"/>
<path d="M93.7915 16.5386H95.7967L98.836 25.2322L101.915 16.5386H103.647L106.729 25.2322L109.771 16.5386H111.776L107.893 26.7911H105.571L103.756 21.8303L102.796 18.673L101.836 21.8303L99.9967 26.7911H97.6746L93.7915 16.5386Z" fill="#253858"/>
<path d="M120.068 24.9456C119.391 26.2994 118.125 26.996 116.501 26.996C113.695 26.996 112.279 24.6799 112.279 21.6648C112.279 18.7731 113.757 16.3336 116.712 16.3336C118.251 16.3336 119.435 17.0092 120.07 18.342V16.5386H121.885V26.791H120.07L120.068 24.9456ZM116.985 25.3556C118.611 25.3556 120.068 24.3514 120.068 22.0749V21.2453C120.068 18.9689 118.738 17.9646 117.189 17.9646C115.15 17.9833 114.088 19.2858 114.088 21.6648C114.088 24.1253 115.107 25.3556 116.988 25.3556H116.985Z" fill="#253858"/>
<path d="M124.628 16.5385H126.401V18.342C127.012 17.1327 128.079 16.2705 130.138 16.394V18.116C127.816 17.8829 126.401 18.568 126.401 20.7397V26.7979H124.628V16.5385Z" fill="#253858"/>
<path d="M136.532 26.9962C132.584 26.9962 130.854 24.7826 130.854 21.6369C130.854 18.5402 132.627 16.3267 135.837 16.3267C139.087 16.3267 140.394 18.5216 140.394 21.6369V22.4361H132.692C132.946 24.1791 134.107 25.3068 136.597 25.3068C137.692 25.3062 138.778 25.1184 139.806 24.7522V26.3833C138.941 26.8377 137.609 26.9962 136.532 26.9962ZM132.671 20.9379H138.554C138.448 19.0319 137.561 17.9437 135.748 17.9437C133.829 17.9437 132.869 19.1484 132.671 20.9262V20.9379Z" fill="#253858"/>
<path d="M18.2422 19.5091L10.2053 11.9579L9.4263 11.226L3.37642 16.9102L0.610343 19.5091C0.471841 19.6394 0.394043 19.816 0.394043 20.0001C0.394043 20.1843 0.471841 20.3609 0.610343 20.4912L6.13758 25.6844L9.4263 28.7743L15.4762 23.0901L15.5699 23.0021L18.2422 20.4912C18.3807 20.3609 18.4586 20.1843 18.4586 20.0001C18.4586 19.816 18.3807 19.6394 18.2422 19.5091ZM9.4263 22.5944L6.66514 20.0001L9.4263 17.4059L12.1875 20.0001L9.4263 22.5944Z" fill="#2684FF"/>
<path d="M9.42648 17.4058C8.55803 16.5897 8.06856 15.484 8.06487 14.33C8.06118 13.176 8.54358 12.0676 9.40676 11.2466L3.36426 16.9216L6.65298 20.0115L9.42648 17.4058Z" fill="url(#paint0_linear_23060_2623)"/>
<path d="M12.1948 19.9933L9.42627 22.5946C10.2981 23.4138 10.7879 24.5249 10.7879 25.6834C10.7879 26.8419 10.2981 27.9529 9.42627 28.7722L15.4835 23.0833L12.1948 19.9933Z" fill="url(#paint1_linear_23060_2623)"/>
</g>
<defs>
<linearGradient id="paint0_linear_23060_2623" x1="8.93091" y1="14.7813" x2="5.31526" y2="18.6296" gradientUnits="userSpaceOnUse">
<stop offset="0.18" stop-color="#0052CC"/>
<stop offset="1" stop-color="#2684FF"/>
</linearGradient>
<linearGradient id="paint1_linear_23060_2623" x1="244.327" y1="157.031" x2="372.442" y2="245.429" gradientUnits="userSpaceOnUse">
<stop offset="0.18" stop-color="#0052CC"/>
<stop offset="1" stop-color="#2684FF"/>
</linearGradient>
<clipPath id="clip0_23060_2623">
<rect width="140" height="40" fill="white" transform="translate(0.394043 0.00012207)"/>
</clipPath>
</defs>
</svg>
