<svg width="141" height="40" viewBox="0 0 141 40" fill="none" xmlns="http://www.w3.org/2000/svg">
<path fill-rule="evenodd" clip-rule="evenodd" d="M13.9432 5.61578C12.9895 5.61578 12.2075 6.37878 12.2075 7.3516V27.4184C12.2075 28.3722 12.9704 29.1542 13.9432 29.1542H34.008C34.9616 29.1542 35.7436 28.3912 35.7436 27.4184V7.3516C35.7436 6.39785 34.9807 5.61578 34.008 5.61578H13.9432ZM15.6978 9.54523C15.6978 9.29725 15.8886 9.1065 16.1365 9.1065H18.7495C18.9975 9.1065 19.1882 9.29725 19.1882 9.54523V12.1585C19.1882 12.4065 18.9975 12.5972 18.7495 12.5972H16.1365C15.8886 12.5972 15.6978 12.4065 15.6978 12.1585V9.54523ZM20.4851 9.1065C20.2372 9.1065 20.0465 9.29725 20.0465 9.54523V12.1585C20.0465 12.4065 20.2372 12.5972 20.4851 12.5972H23.0981C23.3461 12.5972 23.5368 12.4065 23.5368 12.1585V9.54523C23.5368 9.29725 23.3461 9.1065 23.0981 9.1065H20.4851ZM24.4143 9.54523C24.4143 9.29725 24.605 9.1065 24.8529 9.1065H27.4659C27.7139 9.1065 27.9046 9.29725 27.9046 9.54523V12.1585C27.9046 12.4065 27.7139 12.5972 27.4659 12.5972H24.8529C24.605 12.5972 24.4143 12.4065 24.4143 12.1585V9.54523ZM16.1365 13.4746C15.8886 13.4746 15.6978 13.6654 15.6978 13.9134V16.5266C15.6978 16.7746 15.8886 16.9654 16.1365 16.9654H18.7495C18.9975 16.9654 19.1882 16.7746 19.1882 16.5266V13.9134C19.1882 13.6654 18.9975 13.4746 18.7495 13.4746H16.1365ZM20.0465 13.8943C20.0465 13.6463 20.2372 13.4556 20.4851 13.4556H23.0981C23.3461 13.4556 23.5368 13.6463 23.5368 13.8943V16.5266C23.5368 16.7746 23.3461 16.9653 23.0981 16.9653H20.4851C20.2372 16.9653 20.0465 16.7746 20.0465 16.5266V13.8943ZM29.2206 13.4746C28.9727 13.4746 28.782 13.6654 28.782 13.9134V16.5266C28.782 16.7746 28.9727 16.9654 29.2206 16.9654H31.8336C32.0816 16.9654 32.2723 16.7746 32.2723 16.5266V13.9134C32.2723 13.6654 32.0816 13.4746 31.8336 13.4746H29.2206ZM15.6978 18.2625C15.6978 18.0145 15.8886 17.8237 16.1365 17.8237H18.7495C18.9975 17.8237 19.1882 18.0145 19.1882 18.2625V20.8757C19.1882 21.1237 18.9975 21.3145 18.7495 21.3145H16.1365C15.8886 21.3145 15.6978 21.1237 15.6978 20.8757V18.2625ZM24.8529 17.8237C24.605 17.8237 24.4143 18.0145 24.4143 18.2625V20.8757C24.4143 21.1237 24.605 21.3145 24.8529 21.3145H27.4659C27.7139 21.3145 27.9046 21.1237 27.9046 20.8757V18.2625C27.9046 18.0145 27.7139 17.8237 27.4659 17.8237H24.8529ZM28.782 18.2625C28.782 18.0145 28.9727 17.8237 29.2206 17.8237H31.8336C32.0816 17.8237 32.2723 18.0145 32.2723 18.2625V20.8757C32.2723 21.1237 32.0816 21.3145 31.8336 21.3145H29.2206C28.9727 21.3145 28.782 21.1237 28.782 20.8757V18.2625ZM20.4851 22.1919C20.2372 22.1919 20.0465 22.3826 20.0465 22.6306V25.2439C20.0465 25.4918 20.2372 25.6826 20.4851 25.6826H23.0981C23.3461 25.6826 23.5368 25.4918 23.5368 25.2439V22.6306C23.5368 22.3826 23.3461 22.1919 23.0981 22.1919H20.4851ZM24.4143 22.6306C24.4143 22.3826 24.605 22.1919 24.8529 22.1919H27.4659C27.7139 22.1919 27.9046 22.3826 27.9046 22.6306V25.2439C27.9046 25.4918 27.7139 25.6826 27.4659 25.6826H24.8529C24.605 25.6826 24.4143 25.4918 24.4143 25.2439V22.6306ZM29.2206 22.1919C28.9727 22.1919 28.782 22.3826 28.782 22.6306V25.2439C28.782 25.4918 28.9727 25.6826 29.2206 25.6826H31.8336C32.0816 25.6826 32.2723 25.4918 32.2723 25.2439V22.6306C32.2723 22.3826 32.0816 22.1919 31.8336 22.1919H29.2206Z" fill="#0B63CE"/>
<path d="M56.1294 27.4991H45.6572V5.80641C45.6572 5.67095 45.5606 5.59355 45.4447 5.59355H43.8024C43.6671 5.59355 43.5898 5.6903 43.5898 5.80641V29.0859C43.5898 29.2213 43.6864 29.2987 43.8024 29.2987H56.1294C56.2647 29.2987 56.342 29.202 56.342 29.0859V27.6732C56.3613 27.5765 56.2647 27.4991 56.1294 27.4991ZM71.6446 11.902H67.9348V8.45752C67.9348 6.01927 68.727 4.8195 70.3693 4.8195C71.0263 4.8195 71.7025 4.99366 72.3208 5.26458C72.3594 5.30328 72.456 5.30328 72.4947 5.26458L72.6299 5.12912L73.0743 3.85194C73.113 3.75519 73.0743 3.63908 72.9391 3.58102C72.1083 3.2327 71.1808 3.00049 70.3693 3.00049C67.5484 3.00049 65.9447 4.8969 65.9447 8.30271V11.8827L63.8194 12.0181C63.6841 12.0181 63.6068 12.1149 63.6068 12.231V13.4308C63.6068 13.5662 63.7034 13.6436 63.8194 13.6436H65.9447V29.0472C65.9447 29.1826 66.0413 29.26 66.1573 29.26H67.703C67.8382 29.26 67.9155 29.1633 67.9155 29.0472V13.6436H71.6252C71.7605 13.6436 71.8378 13.5469 71.8378 13.4308V12.0568C71.8571 11.9988 71.7798 11.902 71.6446 11.902ZM79.6823 11.4763C76.0112 11.4763 72.0889 14.7079 72.0889 20.6294C72.0889 25.9897 75.4122 29.7438 80.1267 29.7438C82.6384 29.7438 84.1842 28.9117 85.6139 28.0602C85.7105 28.0215 85.7492 27.8861 85.7105 27.7506L85.0536 26.5509C85.015 26.5122 84.957 26.4541 84.9184 26.4541C84.8797 26.4541 84.7831 26.4541 84.7445 26.4928C83.334 27.5184 81.9235 27.9441 80.3199 27.9441C76.7454 27.9441 74.3109 25.1576 74.1757 21.0358H86.1549C86.2515 21.0358 86.3288 20.939 86.3675 20.8616C86.4641 20.4165 86.4641 19.9328 86.4641 19.5264C86.3675 14.4757 83.8943 11.4763 79.6823 11.4763ZM74.1177 19.2942C74.5234 15.7142 76.7647 13.2373 79.6823 13.2373C82.7351 13.2373 84.416 15.4046 84.4547 19.2942H74.1177ZM97.6705 11.8633C97.1488 11.5924 96.6078 11.515 95.9123 11.515C94.154 11.515 92.473 12.618 91.1785 14.7079L91.0433 12.1342C91.0433 11.9988 90.9467 11.9214 90.8307 11.9214H89.4975C89.3623 11.9214 89.285 12.0181 89.285 12.1342V29.1246C89.285 29.26 89.3816 29.3374 89.4975 29.3374H91.0433C91.1785 29.3374 91.2558 29.2407 91.2558 29.1246V17.6106C92.3185 14.9595 93.9608 13.4114 95.6804 13.4114C96.2987 13.4114 96.5692 13.5082 97.1295 13.6823H97.3034C97.342 13.6436 97.4 13.5856 97.4 13.5469L97.7478 12.1342C97.8058 11.9988 97.7671 11.902 97.6705 11.8633ZM111.64 11.902H110.268C110.133 11.902 110.056 11.9988 110.056 12.1149L109.959 13.3921C108.51 12.2503 107.08 11.4956 105.051 11.4956C100.549 11.4956 97.3227 15.3465 97.3227 20.6488C97.3227 26.3573 100.028 29.7632 104.568 29.7632C106.423 29.7632 108.278 28.9311 109.998 27.3249L110.133 29.1439C110.133 29.2794 110.229 29.3568 110.345 29.3568H111.679C111.814 29.3568 111.891 29.26 111.891 29.1439V12.0955C111.852 11.9988 111.775 11.902 111.64 11.902ZM109.862 15.3659V25.235C108.046 27.0927 106.462 27.8861 104.781 27.8861C101.419 27.8861 99.3901 25.1382 99.3901 20.5907C99.3901 16.4689 101.902 13.2373 105.129 13.2373C106.829 13.276 108.239 13.8952 109.862 15.3659ZM128.508 11.9988C128.469 11.9601 128.411 11.902 128.334 11.902H126.749C126.653 11.902 126.575 11.9407 126.537 12.0375L122.904 22.7C122.73 23.2805 122.499 23.8997 122.325 24.519C122.054 25.4091 121.745 26.2799 121.494 27.0927C121.146 26.2025 120.779 25.235 120.431 24.3061C120.219 23.7256 119.987 23.2031 119.813 22.6613L115.755 11.9988C115.717 11.902 115.62 11.8633 115.543 11.8633H113.862C113.765 11.8633 113.727 11.902 113.688 11.9601C113.649 11.9988 113.649 12.0955 113.688 12.1729L120.624 29.3955L120.18 30.8081C119.523 32.8013 118.286 35.1428 116.026 35.1428C115.581 35.1428 115.06 35.0073 114.693 34.8719H114.519L114.384 35.0073L114.036 36.3812C113.997 36.478 114.074 36.5941 114.171 36.6522C114.654 36.865 115.369 37.0005 115.987 37.0005C118.596 37.0005 120.624 35.0073 121.9 31.2532L128.565 12.1342C128.604 12.1342 128.565 12.0375 128.508 11.9988ZM60.5541 8.05114C60.8246 8.05114 61.0371 7.83828 61.0371 7.56736V5.98057C61.0371 5.70965 60.8246 5.49679 60.5541 5.49679H58.9697C58.6992 5.49679 58.4867 5.70965 58.4867 5.98057V7.56736C58.4867 7.83828 58.6992 8.05114 58.9697 8.05114H60.5541ZM58.9697 11.902H60.5154C60.6507 11.902 60.7279 11.9988 60.7279 12.1149V29.1052C60.7279 29.2407 60.6313 29.3181 60.5154 29.3181H58.9697C58.8344 29.3181 58.7572 29.2213 58.7572 29.1052V12.1149C58.7378 11.9988 58.8344 11.902 58.9697 11.902Z" fill="#101820"/>
</svg>
