<svg width="141" height="40" viewBox="0 0 141 40" fill="none" xmlns="http://www.w3.org/2000/svg">
<path d="M60.9538 22.1463H56.0939V30.546H52.8564V9.18909H60.9538C65.1205 9.18909 67.7901 11.9472 67.7901 15.664C67.7901 19.3808 65.1205 22.1463 60.9538 22.1463ZM60.7694 12.1021H56.0865V19.2112H60.7694C63.0187 19.2112 64.5452 17.9207 64.5452 15.6714C64.5526 13.4221 63.0187 12.1021 60.7694 12.1021Z" fill="#006C9D"/>
<path d="M74.7008 30.546C71.8247 30.546 70.5342 28.5991 70.5342 26.3499V9.18909H73.5947V26.1655C73.5947 27.3381 74.015 27.9354 75.2466 27.9354H76.5961V30.546H74.7008Z" fill="#006C9D"/>
<path d="M90.0324 28.9243C89.0442 29.942 87.5398 30.7237 85.4749 30.7237C83.4026 30.7237 81.9351 29.942 80.9469 28.9243C79.5088 27.4273 79.1475 25.5025 79.1475 22.9287C79.1475 20.3771 79.5088 18.4597 80.9469 16.9627C81.9351 15.945 83.41 15.1633 85.4749 15.1633C87.5472 15.1633 89.0442 15.945 90.0324 16.9627C91.4705 18.4597 91.8318 20.3845 91.8318 22.9287C91.8318 25.5099 91.4705 27.4273 90.0324 28.9243ZM87.7242 18.7621C87.1563 18.1942 86.3746 17.8919 85.4749 17.8919C84.5752 17.8919 83.823 18.1942 83.2551 18.7621C82.3259 19.6913 82.2079 21.2842 82.2079 22.9287C82.2079 24.5733 82.3259 26.1662 83.2551 27.0954C83.823 27.6633 84.5752 27.9951 85.4749 27.9951C86.3746 27.9951 87.1563 27.6633 87.7242 27.0954C88.6534 26.1662 88.7714 24.5733 88.7714 22.9287C88.7714 21.2842 88.6534 19.6913 87.7242 18.7621Z" fill="#006C9D"/>
<path d="M103.956 30.5462V21.2763C103.956 18.9091 102.606 17.884 100.895 17.884C99.1846 17.884 97.7465 18.9312 97.7465 21.2763V30.5462H94.686V15.3397H97.6875V16.8663C98.7421 15.7232 100.21 15.1554 101.736 15.1554C103.292 15.1554 104.583 15.6642 105.482 16.5344C106.655 17.6701 107.009 19.1156 107.009 20.8191V30.5389L103.956 30.5462Z" fill="#006C9D"/>
<path d="M112.902 23.8285C112.902 26.4391 114.281 28.0836 116.773 28.0836C118.484 28.0836 119.384 27.6043 120.461 26.5276L122.407 28.3565C120.844 29.9125 119.377 30.7237 116.707 30.7237C112.894 30.7237 109.871 28.7178 109.871 22.9287C109.871 18.0099 112.422 15.1633 116.316 15.1633C120.394 15.1633 122.761 18.1647 122.761 22.4789V23.8285C122.769 23.8285 112.902 23.8285 112.902 23.8285ZM119.325 19.6323C118.846 18.4892 117.769 17.7149 116.323 17.7149C114.885 17.7149 113.772 18.4966 113.292 19.6323C112.99 20.3255 112.931 20.7754 112.902 21.7046H119.738C119.708 20.768 119.62 20.3181 119.325 19.6323Z" fill="#006C9D"/>
<path d="M25.9177 16.7709C27.7098 16.7709 29.1625 15.3181 29.1625 13.526C29.1625 11.7339 27.7098 10.2812 25.9177 10.2812C24.1256 10.2812 22.6729 11.7339 22.6729 13.526C22.6729 15.3181 24.1256 16.7709 25.9177 16.7709Z" fill="#006C9D"/>
<path d="M35.7621 20.0152C35.7621 21.8073 34.3093 23.2601 32.5173 23.2601C30.7253 23.2601 29.2725 21.8073 29.2725 20.0152C29.2725 18.2232 30.7326 16.7704 32.5173 16.7704C34.3093 16.763 35.7621 18.2158 35.7621 20.0152Z" fill="#006C9D"/>
<path d="M25.903 29.765C27.6951 29.765 29.1479 28.3122 29.1479 26.5202C29.1479 24.7281 27.6951 23.2753 25.903 23.2753C24.111 23.2753 22.6582 24.7281 22.6582 26.5202C22.6582 28.3122 24.111 29.765 25.903 29.765Z" fill="#006C9D"/>
<path d="M27.8496 5.00049C19.5679 5.00049 12.8496 11.7188 12.8496 20.0005C12.8496 28.2822 19.5679 35.0005 27.8496 35.0005C36.1313 35.0005 42.8496 28.2822 42.8496 20.0005C42.8496 11.7188 36.1387 5.00049 27.8496 5.00049ZM36.2936 28.4444C34.1254 30.6052 31.1534 31.94 27.8496 31.94C24.5458 31.94 21.5738 30.6052 19.4057 28.4444C17.2449 26.2763 15.9101 23.3043 15.9101 20.0005C15.9101 16.6967 17.2449 13.7247 19.4057 11.5565C21.5738 9.39577 24.5458 8.06096 27.8496 8.06096C31.1534 8.06096 34.1254 9.39577 36.2936 11.5565C38.4543 13.7247 39.7891 16.6967 39.7891 20.0005C39.7891 23.3043 38.4617 26.2763 36.2936 28.4444Z" fill="#006C9D"/>
<path d="M126.338 12.3682C125.453 12.3682 124.745 13.0835 124.745 13.9685C124.745 14.8534 125.46 15.5687 126.338 15.5687C127.223 15.5687 127.938 14.8534 127.938 13.9685C127.938 13.0835 127.223 12.3682 126.338 12.3682ZM126.338 15.3328C125.586 15.3328 124.974 14.7207 124.974 13.9685C124.974 13.2162 125.578 12.6041 126.338 12.6041C127.09 12.6041 127.702 13.2162 127.702 13.9685C127.702 14.728 127.09 15.3328 126.338 15.3328Z" fill="#006C9D"/>
<path d="M126.722 14.9198L126.324 14.1234H125.962V14.9198H125.675V13.0319H126.405C126.759 13.0319 126.995 13.2605 126.995 13.585C126.995 13.8579 126.833 14.0275 126.619 14.0865L127.054 14.9272L126.722 14.9198ZM126.39 13.29H125.97V13.88H126.39C126.582 13.88 126.715 13.7694 126.715 13.585C126.715 13.4006 126.582 13.29 126.39 13.29Z" fill="#006C9D"/>
</svg>
