<svg width="141" height="40" viewBox="0 0 141 40" fill="none" xmlns="http://www.w3.org/2000/svg">
<g clip-path="url(#clip0_23060_2622)">
<path d="M15.0465 34C12.247 33.9995 9.50615 33.2329 7.14831 31.7911C4.79048 30.3493 2.91427 28.2925 1.74164 25.8641C0.569014 23.4357 0.149031 20.7372 0.531376 18.088C0.913722 15.4387 2.0824 12.9495 3.89915 10.9147C5.7159 8.88001 8.10472 7.38494 10.783 6.60639C13.4613 5.82784 16.317 5.79838 19.0122 6.5215C21.7075 7.24462 24.1295 8.69006 25.9918 10.6868C27.8542 12.6836 29.0789 15.1481 29.521 17.7889L29.5634 18.0443H26.6603C24.9048 18.0443 24.0523 18.5332 23.7019 19.7322C23.6611 19.8754 23.5763 20.137 23.4704 20.4702C23.2259 21.2363 22.7679 22.6611 22.7679 22.9227C22.7679 24.4798 23.4867 24.6106 27.521 24.6106H28.8918L28.7761 24.9096C27.7204 27.5747 25.8425 29.8708 23.3908 31.494C20.9392 33.1172 18.0294 33.9911 15.0465 34ZM15.0465 6.43911C12.4698 6.43984 9.94196 7.11058 7.734 8.37939C5.52604 9.6482 3.72127 11.4672 2.51324 13.6414C1.30521 15.8155 0.73949 18.2628 0.876744 20.7207C1.014 23.1787 1.84905 25.5545 3.29235 27.5936C4.73565 29.6326 6.73275 31.2579 9.06948 32.2951C11.4062 33.3324 13.9944 33.7424 16.5566 33.4813C19.1187 33.2201 21.5581 32.2977 23.6131 30.8129C25.6682 29.3281 27.2614 27.3369 28.2219 25.0528H27.521C23.8339 25.0528 22.3049 25.0528 22.3049 22.9227C22.3049 22.6206 22.6309 21.5742 23.027 20.341C23.1281 20.0296 23.2161 19.7524 23.2552 19.6154C23.6562 18.2233 24.7059 17.602 26.6587 17.602H29.0173C28.4434 14.465 26.7258 11.6233 24.1687 9.58015C21.6116 7.53699 18.3801 6.42428 15.0465 6.43911Z" fill="#1F3142"/>
<path d="M7.99633 24.2024L9.83009 17.8183C10.4821 15.9497 12.2507 15.794 13.5791 15.794H19.8954C22.285 15.794 23.3592 16.4169 23.3592 17.5069C23.3541 17.8754 23.2993 18.2417 23.1962 18.5968C22.8702 19.3754 22.3714 19.5311 18.9582 19.5311H12.2751L10.8081 24.2024H7.99633ZM17.9508 18.4411C20.0307 18.4411 21.2402 18.5968 21.5662 17.974C21.6226 17.8513 21.6517 17.7187 21.6517 17.5847C21.6517 17.4507 21.6226 17.3182 21.5662 17.1954C21.2402 16.7283 20.7935 16.7283 19.0592 16.7283H15.0722C14.0323 16.7283 13.0901 16.884 12.9271 17.3512L12.4381 18.4411H17.9508Z" fill="#1F3142"/>
<path d="M97.8214 19.9982C97.7595 20.3284 97.3226 22.0521 97.1792 22.4896C96.5467 24.3582 95.7317 24.2025 93.9713 24.2025H89.9452C86.6852 24.2025 85.9451 24.2881 85.9451 22.7294C85.9451 22.3946 86.6232 20.4389 86.7601 19.9982C87.0862 18.9083 87.8881 18.4411 89.492 18.4411H93.497C95.8067 18.4411 98.1425 18.2854 97.8214 19.9982ZM88.9541 22.2452C88.6167 23.2635 89.5768 23.0938 90.8026 23.0938H92.7586C93.7774 23.0938 94.0919 22.9038 94.3364 22.1066C94.3902 21.94 94.5076 21.4744 94.7554 20.7799C95.171 19.6152 94.3853 19.5342 93.1596 19.5342H90.9721C90.087 19.5342 89.7545 19.6557 89.5442 20.3455C89.4497 20.6304 89.0226 22.0349 88.9541 22.2452Z" fill="#1F3142"/>
<path d="M35.2289 19.9982C35.167 20.3284 34.7302 22.0521 34.5867 22.4896C33.9543 24.3582 33.1393 24.2025 31.3789 24.2025H27.3527C24.0927 24.2025 23.3527 24.2881 23.3527 22.7294C23.3527 22.3946 24.0308 20.4389 24.1677 19.9982C24.4937 18.9083 25.2957 18.4411 26.8996 18.4411H30.9045C33.2142 18.4411 35.5501 18.2854 35.2289 19.9982ZM26.3617 22.2452C26.0243 23.2635 26.9843 23.0938 28.2101 23.0938H30.1661C31.1849 23.0938 31.4995 22.9038 31.744 22.1066C31.7978 21.94 31.907 21.4744 32.1629 20.7799C32.5785 19.6152 31.7929 19.5342 30.5671 19.5342H28.3796C27.4945 19.5342 27.162 19.6557 26.9517 20.3455C26.8572 20.6304 26.4301 22.0349 26.3617 22.2452Z" fill="#1F3142"/>
<path d="M100.93 16.1055H103.805L101.437 24.2024H98.4163L100.93 16.1055Z" fill="#1F3142"/>
<path d="M117.085 16.1055H114.314L113.499 18.452C112.881 18.4287 112.104 18.4411 111.421 18.4411H107.09C105.486 18.4411 105.005 18.5968 104.684 19.6868C104.553 20.1275 103.869 22.3946 103.869 22.7294C103.869 24.2865 104.614 24.2024 107.869 24.2024H113.01C114.738 24.2024 114.803 23.4239 115.109 22.4896C115.21 22.186 117.085 16.1055 117.085 16.1055ZM112.265 22.1035C112.02 22.9007 111.706 23.0907 110.687 23.0907H108.731C107.505 23.0907 106.545 23.2604 106.883 22.242C106.951 22.0318 107.372 20.6273 107.473 20.3393C107.683 19.6495 108.015 19.528 108.901 19.528H111.086C112.682 19.528 113.008 19.6837 112.749 20.5541C112.751 20.5572 112.319 21.9384 112.265 22.1035Z" fill="#1F3142"/>
<path d="M45.7181 18.4489C45.7181 18.4489 44.5966 22.1984 44.5493 22.3417C44.3358 23.0004 43.8973 22.9645 43.0074 22.9521L44.3863 18.4411H41.7783L40.3944 22.9568C39.8223 22.9568 39.1703 22.9568 39.3333 22.4896C39.4001 22.2965 40.6373 18.4411 40.6373 18.4411H37.5403C37.5403 18.4411 36.2363 22.3946 36.2363 22.7294C36.2363 24.2865 37.5403 24.2024 38.3553 24.2024H43.7343C46.256 24.2024 46.9944 24.2102 47.6464 22.3339C47.7931 21.8964 48.6244 18.4411 48.6244 18.4411L45.7181 18.4489Z" fill="#1F3142"/>
<path d="M59.8715 18.4411H52.6994C51.0694 18.4411 50.5804 18.5968 50.2544 19.6868C50.1224 20.1275 49.4394 22.3946 49.4394 22.7294C49.4394 24.2865 50.1957 24.2024 53.5046 24.2024H59.8715C59.8715 24.2024 60.0345 23.5796 60.1746 22.9568H55.5438C55.1852 22.9568 52.5022 22.9568 52.0474 22.9568L52.3734 22.0225H58.5675C59.3825 22.0225 60.5235 22.1782 60.7973 21.0508C60.8967 20.6429 61.1478 19.8192 61.1755 19.6868C61.3385 18.9083 60.8495 18.4411 59.8715 18.4411ZM52.719 20.6211C52.745 20.5401 52.7679 20.4654 52.7825 20.4311C52.9863 19.7974 53.309 19.6868 54.1664 19.6868H57.5894C58.7777 19.6868 58.5674 19.5311 58.2414 20.6211H52.719Z" fill="#1F3142"/>
<path d="M127.517 18.4411H120.345C118.715 18.4411 118.226 18.5968 117.9 19.6868C117.768 20.1275 117.085 22.3946 117.085 22.7294C117.085 24.2865 117.841 24.2024 121.15 24.2024H127.843C127.843 24.2024 128.006 23.2682 128.146 22.9568H123.189C122.831 22.9568 120.148 22.9568 119.693 22.9568L120.019 22.0225H126.865C127.68 22.0225 128.495 22.0225 128.769 20.8951C128.871 20.3929 128.943 19.8855 128.984 19.3754C128.984 18.5968 128.332 18.4411 127.517 18.4411ZM120.364 20.6211C120.391 20.5401 120.413 20.4654 120.428 20.4311C120.632 19.7974 120.955 19.6868 121.812 19.6868H125.235C126.423 19.6868 126.213 19.5311 125.887 20.6211H120.364Z" fill="#1F3142"/>
<path d="M65.6596 20.7425C65.8634 20.1088 66.1861 19.6868 67.0435 19.6868H71.9335L72.2596 18.4411H65.4135C63.7835 18.4411 63.257 18.8989 62.9685 19.9982C62.8055 20.6211 61.8275 24.2024 61.8275 24.2024C61.8275 24.2024 62.5382 24.1931 64.7615 24.2024C64.7615 24.1308 65.5765 21.0073 65.6596 20.7425Z" fill="#1F3142"/>
<path d="M133.631 20.7425C133.835 20.1088 133.995 19.6868 134.852 19.6868H137.297C137.688 19.6868 138.031 19.6713 138.308 19.6868H139.905C140.231 18.9083 140.394 18.4411 140.394 18.4411H133.385C131.755 18.4411 131.266 18.9083 130.94 19.9982C130.808 20.4389 129.799 24.2024 129.799 24.2024C129.799 24.2024 130.51 24.1931 132.733 24.2024C132.733 24.1308 133.548 21.0073 133.631 20.7425Z" fill="#1F3142"/>
<path d="M85.8816 18.4411H77.7005L78.1276 17.5069C78.3216 17.0397 78.6851 16.884 79.9206 16.884H89.1563L89.6453 15.8049L86.3999 15.794H78.8937C77.3158 15.794 75.2131 15.9497 74.4389 17.8183L72.4226 24.2024H75.7722L77.3436 19.5311H85.4121L85.8816 18.4411Z" fill="#1F3142"/>
</g>
<defs>
<clipPath id="clip0_23060_2622">
<rect width="140" height="40" fill="white" transform="translate(0.394043)"/>
</clipPath>
</defs>
</svg>
