<svg width="141" height="40" viewBox="0 0 141 40" fill="none" xmlns="http://www.w3.org/2000/svg">
<g clip-path="url(#clip0_23060_2629)">
<path d="M36.5508 25.3734C37.1231 25.8618 37.7917 26.2237 38.5129 26.4354C39.2406 26.6921 40.0049 26.8292 40.7762 26.8413C43.0724 26.8413 44.2206 25.9728 44.2206 24.2359C44.2306 23.7701 44.1064 23.3112 43.863 22.9144C43.6183 22.5295 43.2981 22.1987 42.9219 21.9421C42.536 21.6715 41.7314 21.2089 40.508 20.5544C39.3687 20.0066 38.3312 19.2675 37.4401 18.3691C36.8504 17.6692 36.5417 16.774 36.5743 15.8582C36.5554 15.2385 36.6889 14.6237 36.963 14.0681C37.2371 13.5125 37.6433 13.0331 38.1459 12.6723C39.274 11.8628 40.637 11.4497 42.0231 11.497C43.5806 11.497 44.7005 11.6905 45.3687 12.0776V14.1685C44.3131 13.4665 43.0624 13.1194 41.7973 13.1773C40.9309 13.137 40.0737 13.3697 39.3458 13.8428C39.045 14.0477 38.8009 14.3257 38.6363 14.6509C38.4717 14.9762 38.392 15.3379 38.4047 15.7024C38.3922 16.0242 38.4454 16.3451 38.5611 16.6454C38.6768 16.9457 38.8526 17.2191 39.0776 17.4488C39.916 18.1623 40.8487 18.7563 41.849 19.214C43.4959 20.0683 44.6017 20.8754 45.1805 21.6353C45.7304 22.3422 46.0316 23.2118 46.0368 24.1085C46.0726 24.7334 45.9564 25.3576 45.6982 25.9274C45.44 26.4972 45.0475 26.9955 44.5546 27.3793C43.5665 28.1377 42.202 28.5168 40.461 28.5168C39.7599 28.4973 39.0628 28.4039 38.3812 28.2384C37.7339 28.1318 37.1128 27.9027 36.5508 27.5634V25.3734ZM58.2426 28.2053H56.5487V21.4512C56.5487 18.9339 55.6547 17.6848 53.8666 17.7036C53.4325 17.701 53.0035 17.7969 52.6116 17.9841C52.2196 18.1712 51.875 18.4449 51.6033 18.7845C50.9605 19.5678 50.6258 20.56 50.6622 21.5739V28.2242H48.9965V10.8362H50.6999V18.4447H50.7422C51.0888 17.7594 51.621 17.186 52.2777 16.7903C52.9343 16.3946 53.6889 16.1926 54.4548 16.2074C56.9894 16.2074 58.2583 17.8012 58.2614 20.9887V28.2242L58.2426 28.2053ZM61.9552 17.326C63.08 16.5802 64.4043 16.195 65.7524 16.2216C68.3686 16.2216 69.6814 17.6612 69.6814 20.5544V28.2242H67.9734V26.3835H67.9075C67.5957 27.0346 67.103 27.5815 66.4886 27.9583C65.8741 28.3352 65.1643 28.5258 64.4443 28.5074C63.484 28.5583 62.5424 28.2276 61.8234 27.587C61.4966 27.2678 61.2409 26.8828 61.073 26.4574C60.9052 26.0319 60.8289 25.5756 60.8494 25.1185C60.8494 22.9348 62.0869 21.6636 64.562 21.3049L67.964 20.7904C67.964 18.7483 67.1797 17.7272 65.6113 17.7272C64.2457 17.7227 62.931 18.2469 61.9411 19.1904V17.326H61.9552ZM65.2066 22.6595C64.5096 22.7134 63.8377 22.944 63.2539 23.3297C63.0307 23.5413 62.8593 23.8018 62.7532 24.0908C62.6471 24.3798 62.6091 24.6896 62.6422 24.9958C62.6344 25.2615 62.6842 25.5257 62.7882 25.7702C62.8922 26.0146 63.0479 26.2336 63.2445 26.4118C63.6849 26.7928 64.2539 26.9904 64.8349 26.964C65.2625 26.9741 65.6869 26.8888 66.0776 26.7141C66.4682 26.5394 66.8152 26.2797 67.0935 25.954C67.6825 25.2607 67.9928 24.3722 67.964 23.4619V22.263L65.2066 22.6453V22.6595ZM78.904 18.3078C78.5034 18.0337 78.0234 17.9009 77.5394 17.9302C77.1429 17.9403 76.7559 18.0535 76.416 18.2587C76.0762 18.4639 75.7953 18.754 75.6008 19.1007C75.0382 20.0419 74.7664 21.1292 74.8197 22.2253V28.2242H73.1117V16.4765H74.8197V18.9119H74.8762C75.0838 18.1694 75.4907 17.4984 76.0525 16.9721C76.5314 16.5236 77.1619 16.274 77.8171 16.2735C78.192 16.2587 78.5665 16.3115 78.9228 16.4293V18.2936L78.904 18.3078ZM89.5523 22.8058H81.5531C81.5908 24.1651 81.939 25.2035 82.5977 25.9209C82.9385 26.2834 83.3533 26.5676 83.8138 26.7542C84.2743 26.9407 84.7696 27.0252 85.2657 27.0018C86.5617 27 87.8127 26.5252 88.7853 25.666V27.3652C87.6453 28.1776 86.2674 28.5846 84.8704 28.5216C84.1662 28.5567 83.4633 28.428 82.8168 28.1455C82.1704 27.863 81.5978 27.4344 81.1438 26.8932C80.2403 25.8076 79.7933 24.3114 79.7933 22.3905C79.7348 20.7845 80.2618 19.2123 81.2755 17.9679C81.714 17.4165 82.272 16.9726 82.9071 16.67C83.5423 16.3674 84.2379 16.2141 84.941 16.2216C85.5841 16.1867 86.2263 16.3035 86.8163 16.5625C87.4063 16.8215 87.9276 17.2155 88.3383 17.7131C89.1414 18.7042 89.5429 20.0809 89.5429 21.843V22.7869L89.5523 22.8058ZM87.7972 21.2388C87.8507 20.3191 87.5828 19.4094 87.0396 18.6665C86.7855 18.3557 86.4627 18.1085 86.0968 17.9447C85.7309 17.7808 85.3319 17.7047 84.9316 17.7225C84.5199 17.7174 84.1118 17.7987 83.7333 17.9613C83.3549 18.1238 83.0145 18.3641 82.7342 18.6665C82.0874 19.3663 81.6831 20.2569 81.5814 21.2058L87.7972 21.2388ZM94.2953 21.9893V28.2242H92.5685V11.7613H96.8268C98.4878 11.7613 99.7818 12.1956 100.704 13.0499C101.626 13.9042 102.116 15.1124 102.116 16.6653C102.142 17.3947 102.011 18.1212 101.73 18.7944C101.448 19.4676 101.025 20.0714 100.488 20.5639C99.9424 21.0632 99.3018 21.4462 98.6045 21.6896C97.9073 21.933 97.168 22.0317 96.4316 21.9798L94.2953 21.9893ZM94.2953 13.4558V20.2996H96.281C97.575 20.2996 98.5631 19.9975 99.2454 19.3839C99.6026 19.0497 99.8812 18.64 100.061 18.1845C100.241 17.729 100.317 17.2391 100.285 16.7502C100.285 14.5476 99.0305 13.4463 96.521 13.4463L94.2953 13.4558ZM103.236 22.5132C103.236 20.5592 103.745 19.0221 104.765 17.9019C105.299 17.3356 105.949 16.8922 106.67 16.6021C107.392 16.3121 108.167 16.1822 108.943 16.2216C109.67 16.1855 110.397 16.3115 111.069 16.5906C111.742 16.8698 112.345 17.295 112.835 17.8358C113.776 18.9119 114.246 20.4128 114.246 22.3338C114.325 23.9725 113.775 25.5791 112.708 26.8224C112.199 27.385 111.573 27.8287 110.875 28.1223C110.176 28.4158 109.422 28.5522 108.666 28.5216C107.927 28.551 107.191 28.4179 106.509 28.1317C105.827 27.8455 105.216 27.4131 104.718 26.8649C103.685 25.6598 103.15 24.1051 103.221 22.5179L103.236 22.5132ZM104.962 22.4329C104.901 23.6334 105.272 24.816 106.007 25.7652C106.343 26.1647 106.765 26.4829 107.241 26.6962C107.716 26.9095 108.234 27.0123 108.755 26.997C109.278 27.0288 109.801 26.9364 110.282 26.7273C110.763 26.5181 111.187 26.1982 111.522 25.7935C112.162 24.9958 112.463 23.8536 112.463 22.3763C112.463 20.899 112.138 19.7473 111.522 18.9261C111.191 18.5155 110.768 18.1903 110.286 17.9776C109.805 17.765 109.28 17.671 108.755 17.7036C108.226 17.6844 107.699 17.7886 107.216 18.0081C106.734 18.2276 106.309 18.5564 105.974 18.9686C105.228 19.9577 104.858 21.1808 104.93 22.4188L104.962 22.4329ZM116.933 12.2569C116.926 11.9434 117.043 11.6397 117.258 11.4121C117.36 11.3032 117.483 11.2164 117.62 11.1571C117.756 11.0978 117.904 11.0672 118.053 11.0672C118.202 11.0672 118.349 11.0978 118.486 11.1571C118.623 11.2164 118.746 11.3032 118.848 11.4121C118.956 11.5224 119.04 11.6531 119.097 11.7965C119.153 11.94 119.181 12.0933 119.177 12.2475C119.182 12.4026 119.156 12.5571 119.099 12.7016C119.042 12.846 118.957 12.9774 118.848 13.0876C118.742 13.1968 118.616 13.2834 118.476 13.3423C118.336 13.4012 118.186 13.4311 118.034 13.4302C117.883 13.4293 117.733 13.3977 117.594 13.3372C117.455 13.2767 117.329 13.1886 117.225 13.0782C117.117 12.9656 117.032 12.8324 116.976 12.6865C116.921 12.5405 116.895 12.3848 116.9 12.2286L116.933 12.2569ZM117.173 28.2384V16.4765H118.867V28.2242L117.173 28.2384ZM131.835 28.2384H130.127V21.5173C130.127 18.9717 129.238 17.7005 127.459 17.7036C127.022 17.6964 126.589 17.7902 126.195 17.9776C125.8 18.165 125.453 18.4411 125.182 18.7845C124.56 19.5587 124.24 20.5335 124.283 21.5267V28.2242H122.579V16.4765H124.283V18.4447C124.623 17.7576 125.152 17.1823 125.807 16.786C126.462 16.3898 127.216 16.1891 127.981 16.2074C128.516 16.1772 129.05 16.2738 129.541 16.4895C130.031 16.7052 130.464 17.0338 130.804 17.4488C131.476 18.2763 131.811 19.4752 131.811 21.0453V28.2242L131.835 28.2384ZM140.394 28.1298C139.89 28.3939 139.325 28.5209 138.757 28.498C136.818 28.498 135.849 27.3605 135.849 25.0855V18.0057H133.882V16.4765H135.835V13.5879L137.528 13.0215V16.4765H140.38V18.0057H137.528V24.7504C137.473 25.3559 137.613 25.9632 137.928 26.4826C138.094 26.6537 138.296 26.785 138.519 26.8667C138.742 26.9484 138.981 26.9785 139.218 26.9546C139.64 26.9654 140.054 26.8267 140.385 26.5628L140.394 28.1298Z" fill="#006CC5"/>
<path d="M27.3517 17.0907C27.1571 17.0896 26.963 17.1102 26.7729 17.1521C26.0569 15.3078 24.6647 13.8083 22.8816 12.9608C22.9505 12.4036 22.8528 11.8384 22.6007 11.337C22.3487 10.8356 21.9537 10.4207 21.466 10.145C20.9783 9.86928 20.42 9.74522 19.8618 9.78859C19.3037 9.83195 18.771 10.0408 18.3315 10.3885V14.8299C18.6344 15.0694 18.9829 15.2441 19.3557 15.3432C19.7285 15.4424 20.1175 15.4639 20.4989 15.4064C20.8803 15.3489 21.2459 15.2136 21.5731 15.009C21.9004 14.8043 22.1823 14.5345 22.4016 14.2163C23.8665 14.9369 25 16.1938 25.5684 17.7279C25.2426 17.9951 24.9805 18.332 24.8012 18.714C24.622 19.0959 24.5301 19.5132 24.5324 19.9353C24.5346 20.3575 24.6309 20.7738 24.8143 21.1537C24.9976 21.5337 25.2633 21.8678 25.5919 22.1315C25.0289 23.6925 23.8857 24.9745 22.4016 25.7092C22.1823 25.391 21.9004 25.1212 21.5731 24.9165C21.2459 24.7118 20.8803 24.5766 20.4989 24.5191C20.1175 24.4616 19.7285 24.4831 19.3557 24.5822C18.9829 24.6814 18.6344 24.8561 18.3315 25.0956V29.537C18.7474 29.8666 19.2474 30.0722 19.7743 30.1301C20.3012 30.188 20.8337 30.096 21.3109 29.8645C21.7881 29.6331 22.1907 29.2716 22.4726 28.8213C22.7546 28.3711 22.9045 27.8503 22.9051 27.3186C22.9123 27.1992 22.9123 27.0794 22.9051 26.9599C24.709 26.1041 26.1133 24.5821 26.8247 22.7121C26.9985 22.7437 27.1751 22.7579 27.3517 22.7545C28.1005 22.7545 28.8186 22.4562 29.348 21.9251C29.8775 21.394 30.1749 20.6737 30.1749 19.9226C30.1749 19.1715 29.8775 18.4512 29.348 17.9202C28.8186 17.3891 28.1005 17.0907 27.3517 17.0907Z" fill="#006CC5"/>
<path d="M0.426981 8.98684L0.394043 31.0141L16.7829 34.0018V5.99921L0.426981 8.98684ZM9.66364 25.5061C8.32731 26.4784 6.57691 26.0678 5.17 25.5061C5.17 24.6849 5.13236 23.8636 5.10413 23.0377C6.00756 23.7079 7.34389 24.6943 8.42142 23.7787C9.25427 22.3627 7.6168 21.4849 6.67102 20.8052C4.63829 19.5733 4.56301 16.2034 6.53456 14.8866C7.68738 14.155 9.09429 14.3863 10.3647 14.5656L10.4118 16.8547C9.35308 16.5196 8.00264 15.8447 7.11803 16.9255C6.51104 18.5161 8.43083 19.1155 9.35779 19.9462C11.1929 21.1403 11.3529 24.161 9.66364 25.5061Z" fill="#006CC5"/>
</g>
<defs>
<clipPath id="clip0_23060_2629">
<rect width="140" height="40" fill="white" transform="translate(0.394043 0.000488281)"/>
</clipPath>
</defs>
</svg>
