<svg width="141" height="40" viewBox="0 0 141 40" fill="none" xmlns="http://www.w3.org/2000/svg">
<g opacity="0.975">
<path fill-rule="evenodd" clip-rule="evenodd" d="M27.8338 27.3293V18.5392C27.8339 18.4648 27.8192 18.3911 27.7908 18.3223C27.7623 18.2535 27.7205 18.191 27.6679 18.1384C27.6153 18.0858 27.5528 18.044 27.484 18.0155C27.4152 17.9871 27.3415 17.9724 27.2671 17.9725H18.5215V8.89886H36.2974C36.3719 8.89884 36.4456 8.91348 36.5144 8.94195C36.5831 8.97042 36.6456 9.01217 36.6983 9.06481C36.7509 9.11744 36.7926 9.17994 36.8211 9.24871C36.8496 9.31749 36.8642 9.39121 36.8642 9.46564V27.3293H27.8338Z" fill="#8E75FF"/>
<path opacity="0.405" fill-rule="evenodd" clip-rule="evenodd" d="M18.5215 8.89886V17.9722H10.1732C10.1172 17.9723 10.0624 17.9557 10.0158 17.9247C9.96918 17.8936 9.93284 17.8494 9.91134 17.7977C9.88985 17.746 9.88416 17.689 9.89502 17.6341C9.90587 17.5791 9.93277 17.5286 9.97231 17.489L18.5215 8.89886ZM27.8339 35.7162V27.3293H36.8642L28.3182 35.9162C28.2787 35.9561 28.2282 35.9833 28.1731 35.9944C28.1181 36.0055 28.0609 36 28.009 35.9785C27.9571 35.9571 27.9128 35.9207 27.8816 35.874C27.8504 35.8273 27.8338 35.7724 27.8339 35.7162Z" fill="#8E75FF"/>
<path opacity="0.405" fill-rule="evenodd" clip-rule="evenodd" d="M18.5215 17.9724H27.5506C27.5878 17.9723 27.6247 17.9796 27.6591 17.9939C27.6935 18.0081 27.7248 18.029 27.7511 18.0553C27.7774 18.0817 27.7983 18.1129 27.8125 18.1473C27.8268 18.1817 27.8341 18.2186 27.8341 18.2558V27.3294H19.0885C19.014 27.3295 18.9403 27.3148 18.8715 27.2864C18.8028 27.2579 18.7403 27.2161 18.6876 27.1635C18.635 27.1109 18.5933 27.0484 18.5648 26.9796C18.5363 26.9108 18.5217 26.8371 18.5217 26.7627L18.5215 17.9724Z" fill="#8E75FF"/>
</g>
<path d="M71.6522 15.1614H68.0805V21.9297C68.0805 22.4937 68.2211 22.9059 68.5024 23.1662C68.7838 23.4264 69.1949 23.573 69.7357 23.6054C70.2305 23.6352 70.8341 23.633 71.5461 23.5994L71.6471 23.5943C71.6597 23.5936 71.6723 23.5954 71.6841 23.5996C71.696 23.6038 71.7069 23.6103 71.7163 23.6188C71.7256 23.6272 71.7332 23.6374 71.7387 23.6488C71.7441 23.6601 71.7472 23.6724 71.7479 23.685L71.7481 23.6899V27.3104C71.748 27.334 71.7393 27.3568 71.7236 27.3743C71.7078 27.3919 71.6861 27.403 71.6627 27.4056L71.5966 27.4129C68.7989 27.7119 66.8211 27.4352 65.6626 26.5826C64.4834 25.7149 63.8936 24.1638 63.8936 21.9293V15.1614H61.1658C61.1404 15.1614 61.116 15.1513 61.098 15.1333C61.0801 15.1153 61.07 15.0909 61.07 15.0655V11.2222C61.07 11.1968 61.0801 11.1724 61.098 11.1545C61.116 11.1365 61.1404 11.1264 61.1658 11.1264H63.8936V8.43818C63.8937 8.40102 63.9045 8.36467 63.9248 8.33355C63.9451 8.30242 63.974 8.27787 64.008 8.26289L67.9459 6.52527C67.9605 6.51882 67.9765 6.51611 67.9924 6.51739C68.0083 6.51868 68.0236 6.52392 68.037 6.53264C68.0504 6.54135 68.0613 6.55327 68.0689 6.56731C68.0765 6.58135 68.0805 6.59706 68.0805 6.61303V11.1266H71.6522C71.6776 11.1266 71.702 11.1367 71.72 11.1547C71.738 11.1727 71.7481 11.197 71.7481 11.2225V15.0657C71.7481 15.0912 71.738 15.1155 71.72 15.1335C71.702 15.1515 71.6776 15.1614 71.6522 15.1614ZM79.3394 13.9249C79.729 12.8836 80.3727 12.1028 81.2704 11.582C82.0922 11.1055 83 10.8472 83.994 10.8067C84.0544 10.8045 84.1148 10.803 84.1753 10.8022C84.1879 10.802 84.2004 10.8043 84.2121 10.8089C84.2238 10.8136 84.2344 10.8205 84.2435 10.8292C84.2525 10.838 84.2597 10.8485 84.2647 10.86C84.2697 10.8716 84.2724 10.884 84.2726 10.8966V15.3115C84.2726 15.3335 84.2681 15.3552 84.2593 15.3753C84.2504 15.3953 84.2375 15.4134 84.2213 15.4282C84.2051 15.443 84.186 15.4542 84.1652 15.4612C84.1444 15.4682 84.1224 15.4707 84.1005 15.4687C82.8932 15.3592 81.8091 15.6255 80.8485 16.2677C79.8423 16.9401 79.3392 18.0575 79.3392 19.6194V27.3006C79.3392 27.326 79.3291 27.3504 79.3111 27.3684C79.2932 27.3864 79.2688 27.3965 79.2434 27.3965H75.2482C75.2228 27.3965 75.1984 27.3864 75.1804 27.3684C75.1625 27.3504 75.1524 27.326 75.1524 27.3006V11.2222C75.1524 11.1968 75.1625 11.1724 75.1804 11.1545C75.1984 11.1365 75.2228 11.1264 75.2482 11.1264H79.2434C79.2688 11.1264 79.2932 11.1365 79.3111 11.1545C79.3291 11.1724 79.3392 11.1968 79.3392 11.2222V13.9249H79.3394ZM99.1358 11.1264H103.131C103.156 11.1264 103.181 11.1365 103.199 11.1545C103.217 11.1724 103.227 11.1968 103.227 11.2222V27.3006C103.227 27.326 103.217 27.3504 103.199 27.3684C103.181 27.3864 103.156 27.3965 103.131 27.3965H99.1358C99.1104 27.3965 99.086 27.3864 99.0681 27.3684C99.0501 27.3504 99.04 27.326 99.04 27.3006V25.4765C97.785 27.0601 96.0216 27.8521 93.7498 27.8521C91.5862 27.8521 89.7308 27.0222 88.1836 25.3628C86.6364 23.7033 85.863 21.6694 85.863 19.2615C85.863 16.8536 86.6366 14.8197 88.1836 13.1603C89.7306 11.5008 91.586 10.671 93.7498 10.671C96.0216 10.671 97.785 11.4627 99.04 13.0465V11.2225C99.04 11.197 99.0501 11.1727 99.0681 11.1547C99.086 11.1367 99.1104 11.1264 99.1358 11.1264ZM91.3155 22.5806C92.1594 23.4267 93.2303 23.8497 94.5285 23.8497C95.8267 23.8497 96.9032 23.4211 97.7578 22.5642C98.6123 21.7074 99.0398 20.6064 99.0398 19.2613C99.0398 17.9163 98.6125 16.8153 97.7578 15.9584C96.903 15.1015 95.8267 14.673 94.5285 14.673C93.2303 14.673 92.1594 15.1015 91.3155 15.9584C90.4716 16.8153 90.0497 17.9163 90.0497 19.2613C90.0497 20.6064 90.4716 21.7129 91.3155 22.5806ZM115.813 10.6708C117.998 10.6708 119.864 11.5006 121.411 13.1601C122.958 14.8195 123.732 16.8534 123.732 19.2613C123.732 21.6692 122.958 23.7031 121.411 25.3626C119.864 27.022 117.998 27.8518 115.813 27.8518C113.541 27.8518 111.788 27.0601 110.555 25.4763V33.8085C110.555 33.8339 110.545 33.8583 110.527 33.8762C110.509 33.8942 110.484 33.9043 110.459 33.9043H106.464C106.438 33.9043 106.414 33.8942 106.396 33.8762C106.378 33.8583 106.368 33.8339 106.368 33.8085V11.2222C106.368 11.1968 106.378 11.1724 106.396 11.1545C106.414 11.1365 106.438 11.1264 106.464 11.1264H110.459C110.484 11.1264 110.509 11.1365 110.527 11.1545C110.545 11.1724 110.555 11.1968 110.555 11.2222V13.0463C111.788 11.4627 113.541 10.6708 115.813 10.6708ZM111.821 22.5806C112.664 23.4267 113.735 23.8497 115.034 23.8497C116.332 23.8497 117.408 23.4211 118.263 22.5642C119.117 21.7074 119.545 20.6064 119.545 19.2613C119.545 17.9163 119.118 16.8153 118.263 15.9584C117.408 15.1015 116.332 14.673 115.034 14.673C113.735 14.673 112.664 15.1015 111.821 15.9584C110.977 16.8153 110.555 17.9163 110.555 19.2613C110.555 20.6064 110.977 21.7129 111.821 22.5806ZM128.302 9.17408C127.61 9.17408 127.009 8.91912 126.501 8.40943C125.993 7.89973 125.738 7.29759 125.738 6.60344C125.738 5.90929 125.993 5.30183 126.501 4.78127C127.009 4.26071 127.61 4 128.302 4C129.016 4 129.628 4.26028 130.136 4.78105C130.644 5.30183 130.899 5.90908 130.899 6.60323C130.899 7.29738 130.644 7.89952 130.136 8.40921C129.628 8.91891 129.016 9.17408 128.302 9.17408ZM126.225 27.3008V11.2222C126.225 11.1968 126.235 11.1724 126.253 11.1545C126.271 11.1365 126.296 11.1264 126.321 11.1264H130.316C130.342 11.1264 130.366 11.1365 130.384 11.1545C130.402 11.1724 130.412 11.1968 130.412 11.2222V27.3006C130.412 27.326 130.402 27.3504 130.384 27.3684C130.366 27.3864 130.342 27.3965 130.316 27.3965H126.321C126.296 27.3965 126.271 27.3864 126.253 27.3684C126.235 27.3504 126.225 27.326 126.225 27.3006V27.3008ZM51.2362 15.7471C51.2362 16.181 51.5229 16.5335 52.0963 16.8046C52.6697 17.0758 53.3674 17.3143 54.1896 17.5205C55.0267 17.7313 55.8504 17.9921 56.6563 18.3016C57.4784 18.6162 58.1762 19.1423 58.7496 19.8799C59.323 20.6175 59.6097 21.5393 59.6097 22.6458C59.6097 24.3161 58.9875 25.6015 57.7434 26.5019C56.4993 27.4022 54.9468 27.8523 53.0861 27.8523C49.8287 27.8523 47.5846 26.6188 46.3535 24.1517L46.3132 24.0693C46.3078 24.0579 46.3046 24.0456 46.3039 24.033C46.3032 24.0205 46.3049 24.0079 46.3091 23.996C46.3132 23.9841 46.3197 23.9731 46.3281 23.9638C46.3365 23.9544 46.3466 23.9467 46.358 23.9413L49.8824 22.3755C49.927 22.3557 49.9775 22.3537 50.0236 22.3698C50.0697 22.386 50.1078 22.4191 50.1303 22.4624C50.6803 23.5185 51.6652 24.045 53.0863 24.045C54.5792 24.045 55.3257 23.5785 55.3257 22.6458C55.3257 22.2119 55.039 21.8594 54.4656 21.5883C53.8922 21.3172 53.1945 21.0731 52.3723 20.8562C51.5347 20.6342 50.711 20.3626 49.9056 20.0428C49.0835 19.7173 48.3857 19.2021 47.8123 18.4971C47.2389 17.7921 46.9522 16.9081 46.9522 15.8451C46.9522 14.2397 47.5418 12.976 48.7211 12.0542C49.9005 11.1324 51.3663 10.6712 53.1189 10.6712C54.4388 10.6712 55.6397 10.9694 56.7215 11.566C57.7036 12.1077 58.4868 12.8184 59.0923 13.7729C59.1232 13.8214 59.1647 13.89 59.2167 13.9782C59.2236 13.9898 59.2279 14.0028 59.2294 14.0162C59.2309 14.0297 59.2296 14.0433 59.2254 14.0561C59.2213 14.069 59.2145 14.0809 59.2055 14.0909C59.1964 14.101 59.1854 14.109 59.173 14.1145L55.6424 15.6807C55.58 15.7083 55.507 15.6866 55.4695 15.6295C54.9395 14.8187 54.1561 14.4133 53.1189 14.4133C52.5779 14.4133 52.1291 14.5326 51.7719 14.7714C51.4147 15.0101 51.2364 15.3354 51.2364 15.7475L51.2362 15.7471Z" fill="#2F2E8B"/>
</svg>
