<svg width="649" height="461" viewBox="0 0 649 461" fill="none" xmlns="http://www.w3.org/2000/svg">
<path d="M596.391 207.585L562.191 207.589L562.198 130.563C562.2 107.516 546.147 88.6592 523.114 88.6612L439.357 88.6682L439.36 52.3752C439.363 23.0426 416.331 -0.00245158 387.017 -1.14517e-05C357.702 0.00245919 334.667 23.0514 334.664 52.384L334.662 88.6763L250.906 88.6833C227.872 88.6853 209.026 107.544 209.024 130.591L209.016 205.343L240.425 205.34C271.834 205.338 296.959 230.478 296.956 261.906C296.953 293.333 271.824 318.478 240.415 318.48L209.007 318.483L209 398.1C208.998 421.147 227.842 440.002 250.875 440L334.276 439.993L334.278 408.566C334.281 377.138 355.578 351.994 386.987 351.991C418.396 351.988 441.605 377.128 441.602 408.556L441.6 439.984L523.084 439.977C546.118 439.975 562.414 421.117 562.416 398.07L562.432 316.422L596.391 316.419C625.706 316.417 648.998 291.475 649 262.142C649.002 232.81 625.706 207.582 596.391 207.585Z" fill="#3D3D3D"/>
<path fill-rule="evenodd" clip-rule="evenodd" d="M531.45 440.864C570.911 440.864 602.9 408.875 602.9 369.414C602.9 329.953 570.911 297.964 531.45 297.964C491.989 297.964 460 329.953 460 369.414C460 408.875 491.989 440.864 531.45 440.864ZM529.992 334.209C534.134 334.209 537.492 337.567 537.492 341.709V363.372H559.155C563.297 363.372 566.655 366.73 566.655 370.872C566.655 375.014 563.297 378.372 559.155 378.372H537.492V399.997C537.492 404.139 534.134 407.497 529.992 407.497C525.85 407.497 522.492 404.139 522.492 399.997V378.372H500.867C496.725 378.372 493.367 375.014 493.367 370.872C493.367 366.73 496.725 363.372 500.867 363.372H522.492V341.709C522.492 337.567 525.85 334.209 529.992 334.209Z" fill="#444444"/>
<path d="M461.2 70.298C461.2 70.698 461 71.098 460.7 71.398C460.4 71.698 460 71.898 459.6 71.798C458.7 71.798 458 71.098 458 70.298V66.798C458 66.398 458.2 65.998 458.5 65.698C458.8 65.398 459.2 65.198 459.6 65.298C460.5 65.298 461.2 65.998 461.2 66.798V70.298ZM460.2 66.698C460.2 66.498 460.1 66.398 460 66.298C459.9 66.198 459.8 66.098 459.6 66.098C459.5 66.098 459.3 66.198 459.2 66.298C459.1 66.398 459 66.598 459 66.698V70.198C459 70.298 459.1 70.498 459.2 70.598C459.3 70.698 459.4 70.798 459.6 70.798C459.9 70.798 460.2 70.498 460.2 70.198V66.698Z" fill="#808080"/>
<path d="M510 76.85C510 77.25 509.8 77.65 509.5 77.95C509.2 78.25 508.8 78.45 508.4 78.35C507.5 78.35 506.8 77.65 506.8 76.85V73.35C506.8 72.95 507 72.55 507.3 72.25C507.6 71.95 508 71.75 508.4 71.85C509.3 71.85 510 72.55 510 73.35V76.85ZM508.9 73.35C508.9 73.05 508.6 72.75 508.3 72.75C508.1 72.75 508 72.85 507.9 72.95C507.8 73.05 507.7 73.25 507.7 73.35V76.85C507.7 76.95 507.8 77.15 507.9 77.25C508 77.35 508.1 77.45 508.3 77.45C508.6 77.45 508.9 77.15 508.9 76.85V73.35Z" fill="#808080"/>
<path d="M483.7 45.15C483.7 45.55 483.5 45.95 483.2 46.25C482.6 46.85 481.6 46.85 481 46.25C480.7 45.95 480.6 45.55 480.6 45.15V41.55C480.6 41.15 480.8 40.75 481.1 40.45C481.7 39.85 482.7 39.85 483.3 40.45C483.6 40.75 483.8 41.15 483.8 41.55V45.15H483.7ZM482.7 41.55C482.7 41.25 482.5 40.95 482.1 40.95C481.9 40.95 481.8 41.05 481.7 41.15C481.6 41.25 481.5 41.35 481.5 41.55V45.15C481.5 45.45 481.7 45.75 482 45.75C482.3 45.75 482.6 45.45 482.6 45.15L482.7 41.55Z" fill="#808080"/>
<path d="M461.4 93.15C461.4 93.55 461.2 93.95 460.9 94.25C460.6 94.55 460.2 94.75 459.8 94.65C459.4 94.65 459 94.55 458.7 94.25C458.4 93.95 458.2 93.55 458.2 93.15V89.65C458.2 88.75 458.9 88.15 459.8 88.15C460.2 88.15 460.6 88.35 460.9 88.65C461.2 88.95 461.4 89.35 461.4 89.75V93.15ZM460.4 89.55C460.4 89.45 460.3 89.25 460.2 89.15C460 88.95 459.6 88.95 459.4 89.15C459.3 89.25 459.2 89.35 459.2 89.55V93.05C459.2 93.15 459.3 93.35 459.4 93.45C459.6 93.65 460 93.65 460.2 93.45C460.3 93.35 460.4 93.25 460.4 93.05V89.55Z" fill="#808080"/>
<path d="M467.6 93.15C467.6 93.55 467.4 93.95 467.1 94.25C466.8 94.55 466.4 94.75 466 94.65C465.1 94.65 464.4 93.95 464.4 93.15V89.65C464.4 88.75 465.1 88.15 466 88.15C466.9 88.15 467.6 88.85 467.6 89.65V93.15ZM466.5 89.55C466.5 89.45 466.4 89.25 466.3 89.15C466.2 89.05 466.1 88.95 465.9 88.95C465.7 88.95 465.6 89.05 465.5 89.15C465.4 89.25 465.3 89.35 465.3 89.55V93.05C465.3 93.15 465.4 93.35 465.5 93.45C465.6 93.55 465.7 93.65 465.9 93.65C466.2 93.65 466.5 93.35 466.5 93.05V89.55Z" fill="#808080"/>
<path d="M471.4 94.65V89.65H470.6V88.95C470.9 88.95 471.1 88.85 471.3 88.65C471.5 88.55 471.7 88.35 471.8 88.15H472.5V94.65H471.4Z" fill="#808080"/>
<path d="M476.3 94.65V89.65H475.5V88.95C475.8 88.95 476 88.85 476.2 88.65C476.4 88.55 476.6 88.35 476.7 88.15H477.4V94.65H476.3Z" fill="#808080"/>
<path d="M481.2 94.65V89.65H480.4V88.95C480.7 88.95 480.9 88.85 481.1 88.65C481.3 88.55 481.5 88.35 481.6 88.15H482.3V94.65H481.2Z" fill="#808080"/>
<path d="M476 71.698V66.698H475.2V65.998C475.5 65.998 475.7 65.898 475.9 65.698C476.1 65.598 476.3 65.398 476.4 65.198H477.1V71.698H476Z" fill="#808080"/>
<path d="M488 46.05V41.05H487.2V40.35C487.5 40.35 487.7 40.25 487.9 40.05C488.1 39.95 488.3 39.75 488.4 39.55H489.1V46.05H488Z" fill="#808080"/>
<path d="M471.2 70.298C471.2 70.698 471 71.098 470.7 71.398C470.4 71.698 470 71.898 469.6 71.798C468.7 71.798 468 71.098 468 70.298V66.798C468 66.398 468.2 65.998 468.5 65.698C468.8 65.398 469.2 65.198 469.6 65.298C470.5 65.298 471.2 65.998 471.2 66.798V70.298ZM470.2 66.698C470.2 66.498 470.1 66.398 470 66.298C469.9 66.198 469.8 66.098 469.6 66.098C469.5 66.098 469.3 66.198 469.2 66.298C469.1 66.398 469 66.598 469 66.698V70.198C469 70.298 469.1 70.498 469.2 70.598C469.3 70.698 469.4 70.798 469.6 70.798C469.9 70.798 470.2 70.498 470.2 70.198V66.698Z" fill="#808080"/>
<path d="M461.2 125.298C461.2 125.698 461 126.098 460.7 126.398C460.4 126.698 460 126.898 459.6 126.798C458.7 126.798 458 126.098 458 125.298V121.798C458 121.398 458.2 120.998 458.5 120.698C458.8 120.398 459.2 120.198 459.6 120.298C460.5 120.298 461.2 120.998 461.2 121.798V125.298ZM460.2 121.698C460.2 121.498 460.1 121.398 460 121.298C459.9 121.198 459.8 121.098 459.6 121.098C459.5 121.098 459.3 121.198 459.2 121.298C459.1 121.398 459 121.598 459 121.698V125.198C459 125.298 459.1 125.498 459.2 125.598C459.3 125.698 459.4 125.798 459.6 125.798C459.9 125.798 460.2 125.498 460.2 125.198V121.698Z" fill="#808080"/>
<path d="M466 126.698V121.698H465.2V120.998C465.5 120.998 465.7 120.898 465.9 120.698C466.1 120.598 466.3 120.398 466.4 120.198H467.1V126.698H466Z" fill="#808080"/>
<path d="M456.2 125.298C456.2 125.698 456 126.098 455.7 126.398C455.4 126.698 455 126.898 454.6 126.798C453.7 126.798 453 126.098 453 125.298V121.798C453 121.398 453.2 120.998 453.5 120.698C453.8 120.398 454.2 120.198 454.6 120.298C455.5 120.298 456.2 120.998 456.2 121.798V125.298ZM455.2 121.698C455.2 121.498 455.1 121.398 455 121.298C454.9 121.198 454.8 121.098 454.6 121.098C454.5 121.098 454.3 121.198 454.2 121.298C454.1 121.398 454 121.598 454 121.698V125.198C454 125.298 454.1 125.498 454.2 125.598C454.3 125.698 454.4 125.798 454.6 125.798C454.9 125.798 455.2 125.498 455.2 125.198V121.698Z" fill="#808080"/>
<path d="M461.2 217.298C461.2 217.698 461 218.098 460.7 218.398C460.4 218.698 460 218.898 459.6 218.798C458.7 218.798 458 218.098 458 217.298V213.798C458 213.398 458.2 212.998 458.5 212.698C458.8 212.398 459.2 212.198 459.6 212.298C460.5 212.298 461.2 212.998 461.2 213.798V217.298ZM460.2 213.698C460.2 213.498 460.1 213.398 460 213.298C459.9 213.198 459.8 213.098 459.6 213.098C459.5 213.098 459.3 213.198 459.2 213.298C459.1 213.398 459 213.598 459 213.698V217.198C459 217.298 459.1 217.498 459.2 217.598C459.3 217.698 459.4 217.798 459.6 217.798C459.9 217.798 460.2 217.498 460.2 217.198V213.698Z" fill="#808080"/>
<path d="M476 218.698V213.698H475.2V212.998C475.5 212.998 475.7 212.898 475.9 212.698C476.1 212.598 476.3 212.398 476.4 212.198H477.1V218.698H476Z" fill="#808080"/>
<path d="M471.2 217.298C471.2 217.698 471 218.098 470.7 218.398C470.4 218.698 470 218.898 469.6 218.798C468.7 218.798 468 218.098 468 217.298V213.798C468 213.398 468.2 212.998 468.5 212.698C468.8 212.398 469.2 212.198 469.6 212.298C470.5 212.298 471.2 212.998 471.2 213.798V217.298ZM470.2 213.698C470.2 213.498 470.1 213.398 470 213.298C469.9 213.198 469.8 213.098 469.6 213.098C469.5 213.098 469.3 213.198 469.2 213.298C469.1 213.398 469 213.598 469 213.698V217.198C469 217.298 469.1 217.498 469.2 217.598C469.3 217.698 469.4 217.798 469.6 217.798C469.9 217.798 470.2 217.498 470.2 217.198V213.698Z" fill="#808080"/>
<path d="M510 76.85C510 77.25 509.8 77.65 509.5 77.95C509.2 78.25 508.8 78.45 508.4 78.35C507.5 78.35 506.8 77.65 506.8 76.85V73.35C506.8 72.95 507 72.55 507.3 72.25C507.6 71.95 508 71.75 508.4 71.85C509.3 71.85 510 72.55 510 73.35V76.85ZM508.9 73.35C508.9 73.05 508.6 72.75 508.3 72.75C508.1 72.75 508 72.85 507.9 72.95C507.8 73.05 507.7 73.25 507.7 73.35V76.85C507.7 76.95 507.8 77.15 507.9 77.25C508 77.35 508.1 77.45 508.3 77.45C508.6 77.45 508.9 77.15 508.9 76.85V73.35Z" fill="#808080"/>
<path d="M453.4 93.15C453.4 93.55 453.2 93.95 452.9 94.25C452.6 94.55 452.2 94.75 451.8 94.65C451.4 94.65 451 94.55 450.7 94.25C450.4 93.95 450.2 93.55 450.2 93.15V89.65C450.2 88.75 450.9 88.15 451.8 88.15C452.2 88.15 452.6 88.35 452.9 88.65C453.2 88.95 453.4 89.35 453.4 89.75V93.15ZM452.4 89.55C452.4 89.45 452.3 89.25 452.2 89.15C452 88.95 451.6 88.95 451.4 89.15C451.3 89.25 451.2 89.35 451.2 89.55V93.05C451.2 93.15 451.3 93.35 451.4 93.45C451.6 93.65 452 93.65 452.2 93.45C452.3 93.35 452.4 93.25 452.4 93.05V89.55Z" fill="#808080"/>
<path d="M448.4 93.15C448.4 93.55 448.2 93.95 447.9 94.25C447.6 94.55 447.2 94.75 446.8 94.65C445.9 94.65 445.2 93.95 445.2 93.15V89.65C445.2 88.75 445.9 88.15 446.8 88.15C447.7 88.15 448.4 88.85 448.4 89.65V93.15ZM447.3 89.55C447.3 89.45 447.2 89.25 447.1 89.15C447 89.05 446.9 88.95 446.7 88.95C446.5 88.95 446.4 89.05 446.3 89.15C446.2 89.25 446.1 89.35 446.1 89.55V93.05C446.1 93.15 446.2 93.35 446.3 93.45C446.4 93.55 446.5 93.65 446.7 93.65C447 93.65 447.3 93.35 447.3 93.05V89.55Z" fill="#808080"/>
<path d="M495.9 94.65V89.65H495.1V88.95C495.4 88.95 495.6 88.85 495.8 88.65C496 88.55 496.2 88.35 496.3 88.15H497V94.65H495.9Z" fill="#808080"/>
<path d="M491 94.65V89.65H490.2V88.95C490.5 88.95 490.7 88.85 490.9 88.65C491.1 88.55 491.3 88.35 491.4 88.15H492.1V94.65H491Z" fill="#808080"/>
<path d="M486.1 94.65V89.65H485.3V88.95C485.6 88.95 485.8 88.85 486 88.65C486.2 88.55 486.4 88.35 486.5 88.15H487.2V94.65H486.1Z" fill="#808080"/>
<path d="M85.2 121.65C85.2 122.05 85 122.45 84.7 122.75C84.4 123.05 84 123.25 83.6 123.15C82.7 123.15 82 122.45 82 121.65V118.15C82 117.75 82.2 117.35 82.5 117.05C82.8 116.75 83.2 116.55 83.6 116.65C84.5 116.65 85.2 117.35 85.2 118.15V121.65ZM84.2 118.05C84.2 117.85 84.1 117.75 84 117.65C83.9 117.55 83.8 117.45 83.6 117.45C83.5 117.45 83.3 117.55 83.2 117.65C83.1 117.75 83 117.95 83 118.05V121.55C83 121.65 83.1 121.85 83.2 121.95C83.3 122.05 83.4 122.15 83.6 122.15C83.9 122.15 84.2 121.85 84.2 121.55V118.05Z" fill="#808080"/>
<path d="M134 128.85C134 129.25 133.8 129.65 133.5 129.95C133.2 130.25 132.8 130.45 132.4 130.35C131.5 130.35 130.8 129.65 130.8 128.85V125.35C130.8 124.95 131 124.55 131.3 124.25C131.6 123.95 132 123.75 132.4 123.85C133.3 123.85 134 124.55 134 125.35V128.85ZM132.9 125.35C132.9 125.05 132.6 124.75 132.3 124.75C132.1 124.75 132 124.85 131.9 124.95C131.8 125.05 131.7 125.25 131.7 125.35V128.85C131.7 128.95 131.8 129.15 131.9 129.25C132 129.35 132.1 129.45 132.3 129.45C132.6 129.45 132.9 129.15 132.9 128.85V125.35Z" fill="#808080"/>
<path d="M107.7 97.15C107.7 97.55 107.5 97.95 107.2 98.25C106.6 98.85 105.6 98.85 105 98.25C104.7 97.95 104.6 97.55 104.6 97.15V93.55C104.6 93.15 104.8 92.75 105.1 92.45C105.7 91.85 106.7 91.85 107.3 92.45C107.6 92.75 107.8 93.15 107.8 93.55V97.15H107.7ZM106.7 93.55C106.7 93.25 106.5 92.95 106.1 92.95C105.9 92.95 105.8 93.05 105.7 93.15C105.6 93.25 105.5 93.35 105.5 93.55V97.15C105.5 97.45 105.7 97.75 106 97.75C106.3 97.75 106.6 97.45 106.6 97.15L106.7 93.55Z" fill="#808080"/>
<path d="M85.4 145.15C85.4 145.55 85.2 145.95 84.9 146.25C84.6 146.55 84.2 146.75 83.8 146.65C83.4 146.65 83 146.55 82.7 146.25C82.4 145.95 82.2 145.55 82.2 145.15V141.65C82.2 140.75 82.9 140.15 83.8 140.15C84.2 140.15 84.6 140.35 84.9 140.65C85.2 140.95 85.4 141.35 85.4 141.75V145.15ZM84.4 141.55C84.4 141.45 84.3 141.25 84.2 141.15C84 140.95 83.6 140.95 83.4 141.15C83.3 141.25 83.2 141.35 83.2 141.55V145.05C83.2 145.15 83.3 145.35 83.4 145.45C83.6 145.65 84 145.65 84.2 145.45C84.3 145.35 84.4 145.25 84.4 145.05V141.55Z" fill="#808080"/>
<path d="M93.4 145.15C93.4 145.55 93.2 145.95 92.9 146.25C92.6 146.55 92.2 146.75 91.8 146.65C90.9 146.65 90.2 145.95 90.2 145.15V141.65C90.2 140.75 90.9 140.15 91.8 140.15C92.7 140.15 93.4 140.85 93.4 141.65V145.15ZM92.3 141.55C92.3 141.45 92.2 141.25 92.1 141.15C92 141.05 91.9 140.95 91.7 140.95C91.5 140.95 91.4 141.05 91.3 141.15C91.2 141.25 91.1 141.35 91.1 141.55V145.05C91.1 145.15 91.2 145.35 91.3 145.45C91.4 145.55 91.5 145.65 91.7 145.65C92 145.65 92.3 145.35 92.3 145.05V141.55Z" fill="#808080"/>
<path d="M95 146.65V141.65H94.2V140.95C94.5 140.95 94.7 140.85 94.9 140.65C95.1 140.55 95.3 140.35 95.4 140.15H96.1V146.65H95Z" fill="#808080"/>
<path d="M97.6 146.65V141.65H96.8V140.95C97.1 140.95 97.3 140.85 97.5 140.65C97.7 140.55 97.9 140.35 98 140.15H98.7V146.65H97.6Z" fill="#808080"/>
<path d="M100.2 146.65V141.65H99.4V140.95C99.7 140.95 99.9 140.85 100.1 140.65C100.3 140.55 100.5 140.35 100.6 140.15H101.3V146.65H100.2Z" fill="#808080"/>
<path d="M114 123.05V118.05H113.2V117.35C113.5 117.35 113.7 117.25 113.9 117.05C114.1 116.95 114.3 116.75 114.4 116.55H115.1V123.05H114Z" fill="#808080"/>
<path d="M85.2 121.65C85.2 122.05 85 122.45 84.7 122.75C84.4 123.05 84 123.25 83.6 123.15C82.7 123.15 82 122.45 82 121.65V118.15C82 117.75 82.2 117.35 82.5 117.05C82.8 116.75 83.2 116.55 83.6 116.65C84.5 116.65 85.2 117.35 85.2 118.15V121.65ZM84.2 118.05C84.2 117.85 84.1 117.75 84 117.65C83.9 117.55 83.8 117.45 83.6 117.45C83.5 117.45 83.3 117.55 83.2 117.65C83.1 117.75 83 117.95 83 118.05V121.55C83 121.65 83.1 121.85 83.2 121.95C83.3 122.05 83.4 122.15 83.6 122.15C83.9 122.15 84.2 121.85 84.2 121.55V118.05Z" fill="#808080"/>
<path d="M134 128.85C134 129.25 133.8 129.65 133.5 129.95C133.2 130.25 132.8 130.45 132.4 130.35C131.5 130.35 130.8 129.65 130.8 128.85V125.35C130.8 124.95 131 124.55 131.3 124.25C131.6 123.95 132 123.75 132.4 123.85C133.3 123.85 134 124.55 134 125.35V128.85ZM132.9 125.35C132.9 125.05 132.6 124.75 132.3 124.75C132.1 124.75 132 124.85 131.9 124.95C131.8 125.05 131.7 125.25 131.7 125.35V128.85C131.7 128.95 131.8 129.15 131.9 129.25C132 129.35 132.1 129.45 132.3 129.45C132.6 129.45 132.9 129.15 132.9 128.85V125.35Z" fill="#808080"/>
<path d="M85.4 145.15C85.4 145.55 85.2 145.95 84.9 146.25C84.6 146.55 84.2 146.75 83.8 146.65C83.4 146.65 83 146.55 82.7 146.25C82.4 145.95 82.2 145.55 82.2 145.15V141.65C82.2 140.75 82.9 140.15 83.8 140.15C84.2 140.15 84.6 140.35 84.9 140.65C85.2 140.95 85.4 141.35 85.4 141.75V145.15ZM84.4 141.55C84.4 141.45 84.3 141.25 84.2 141.15C84 140.95 83.6 140.95 83.4 141.15C83.3 141.25 83.2 141.35 83.2 141.55V145.05C83.2 145.15 83.3 145.35 83.4 145.45C83.6 145.65 84 145.65 84.2 145.45C84.3 145.35 84.4 145.25 84.4 145.05V141.55Z" fill="#808080"/>
<path d="M93.4 145.15C93.4 145.55 93.2 145.95 92.9 146.25C92.6 146.55 92.2 146.75 91.8 146.65C90.9 146.65 90.2 145.95 90.2 145.15V141.65C90.2 140.75 90.9 140.15 91.8 140.15C92.7 140.15 93.4 140.85 93.4 141.65V145.15ZM92.3 141.55C92.3 141.45 92.2 141.25 92.1 141.15C92 141.05 91.9 140.95 91.7 140.95C91.5 140.95 91.4 141.05 91.3 141.15C91.2 141.25 91.1 141.35 91.1 141.55V145.05C91.1 145.15 91.2 145.35 91.3 145.45C91.4 145.55 91.5 145.65 91.7 145.65C92 145.65 92.3 145.35 92.3 145.05V141.55Z" fill="#808080"/>
<path d="M95 146.65V141.65H94.2V140.95C94.5 140.95 94.7 140.85 94.9 140.65C95.1 140.55 95.3 140.35 95.4 140.15H96.1V146.65H95Z" fill="#808080"/>
<path d="M97.6 146.65V141.65H96.8V140.95C97.1 140.95 97.3 140.85 97.5 140.65C97.7 140.55 97.9 140.35 98 140.15H98.7V146.65H97.6Z" fill="#808080"/>
<path d="M100.2 146.65V141.65H99.4V140.95C99.7 140.95 99.9 140.85 100.1 140.65C100.3 140.55 100.5 140.35 100.6 140.15H101.3V146.65H100.2Z" fill="#808080"/>
<path d="M114 123.05V118.05H113.2V117.35C113.5 117.35 113.7 117.25 113.9 117.05C114.1 116.95 114.3 116.75 114.4 116.55H115.1V123.05H114Z" fill="#808080"/>
<g filter="url(#filter0_d_3401_126869)">
<rect x="-1" y="1" width="324" height="227" rx="6" transform="matrix(1 0 0 -1 52 391)" fill="#3A3A3A" stroke="#808080" stroke-width="2"/>
<path d="M374 187H375V186V169C375 165.686 372.314 163 369 163H57C53.6863 163 51 165.686 51 169V186V187H52H374Z" fill="#414141" stroke="#808080" stroke-width="2"/>
<path fill-rule="evenodd" clip-rule="evenodd" d="M64.5833 181.827L58.3953 178.919C57.8682 178.665 57.8682 178.272 58.3953 178.041L60.5497 177.026L64.5604 178.919C65.0875 179.172 65.9354 179.172 66.4396 178.919L70.4503 177.026L72.6047 178.041C73.1318 178.295 73.1318 178.688 72.6047 178.919L66.4167 181.827C65.9354 182.058 65.0875 182.058 64.5833 181.827Z" fill="#FF6F3D"/>
<path fill-rule="evenodd" clip-rule="evenodd" d="M64.5632 178.228L58.3941 175.316C57.8686 175.062 57.8686 174.669 58.3941 174.438L60.4962 173.444L64.5632 175.362C65.0887 175.617 65.9341 175.617 66.4368 175.362L70.5038 173.444L72.6059 174.438C73.1314 174.692 73.1314 175.085 72.6059 175.316L66.4368 178.228C65.9113 178.482 65.0659 178.482 64.5632 178.228Z" fill="#95C038"/>
<path fill-rule="evenodd" clip-rule="evenodd" d="M64.5632 174.666L58.3941 171.797C57.8686 171.546 57.8686 171.159 58.3941 170.931L64.5632 168.061C65.0887 167.811 65.9341 167.811 66.4368 168.061L72.6059 170.931C73.1314 171.182 73.1314 171.569 72.6059 171.797L66.4368 174.666C65.9113 174.894 65.0659 174.894 64.5632 174.666Z" fill="#5DC0E8"/>
<mask id="path-48-outside-1_3401_126869" maskUnits="userSpaceOnUse" x="52" y="383" width="322" height="6" fill="black">
<rect fill="white" x="52" y="383" width="322" height="6"/>
<path d="M52 384C52 386.761 54.2386 389 57 389H369C371.761 389 374 386.761 374 384H52Z"/>
</mask>
<path d="M52 384C52 386.761 54.2386 389 57 389H369C371.761 389 374 386.761 374 384H52Z" fill="#414141"/>
<path d="M52 389H374H52ZM374 383H52V384C52 384.336 52.0338 384.671 52.101 385L57 385H373.9C373.966 384.671 374 384.336 374 384V383ZM52 384V389V384ZM374 389V384V389Z" fill="#666666" mask="url(#path-48-outside-1_3401_126869)"/>
<mask id="path-50-inside-2_3401_126869" fill="white">
<path d="M52 383H67L67 188H52L52 383Z"/>
</mask>
<path d="M52 383H67L67 188H52L52 383Z" fill="#424242"/>
<path d="M66 383L66 188H68L68 383H66Z" fill="#666666" mask="url(#path-50-inside-2_3401_126869)"/>
<mask id="path-52-inside-3_3401_126869" fill="white">
<path d="M374 383H359V187H374V383Z"/>
</mask>
<path d="M374 383H359V187H374V383Z" fill="#424242"/>
<path d="M360 383V187H358V383H360Z" fill="#666666" mask="url(#path-52-inside-3_3401_126869)"/>
<rect x="120.25" y="228.5" width="191.5" height="155" fill="#666666" fill-opacity="0.4" stroke="#666666"/>
<path fill-rule="evenodd" clip-rule="evenodd" d="M184.658 264.62C184.106 264.62 183.658 265.068 183.658 265.62C183.658 266.173 184.106 266.62 184.658 266.62H210.902C211.454 266.62 211.902 266.173 211.902 265.62C211.902 265.068 211.454 264.62 210.902 264.62H184.658ZM184.658 278.62C184.106 278.62 183.658 279.068 183.658 279.62C183.658 280.173 184.106 280.62 184.658 280.62H210.902C211.454 280.62 211.902 280.173 211.902 279.62C211.902 279.068 211.454 278.62 210.902 278.62H184.658ZM183.658 293.62C183.658 293.068 184.106 292.62 184.658 292.62H210.902C211.454 292.62 211.902 293.068 211.902 293.62C211.902 294.173 211.454 294.62 210.902 294.62H184.658C184.106 294.62 183.658 294.173 183.658 293.62ZM147 306.62C146.448 306.62 146 307.068 146 307.62C146 308.173 146.448 308.62 147 308.62H210.902C211.454 308.62 211.902 308.173 211.902 307.62C211.902 307.068 211.454 306.62 210.902 306.62H147ZM146 321.62C146 321.068 146.448 320.62 147 320.62H210.902C211.454 320.62 211.902 321.068 211.902 321.62C211.902 322.173 211.454 322.62 210.902 322.62H147C146.448 322.62 146 322.173 146 321.62ZM147 334.62C146.448 334.62 146 335.068 146 335.62C146 336.173 146.448 336.62 147 336.62H210.902C211.454 336.62 211.902 336.173 211.902 335.62C211.902 335.068 211.454 334.62 210.902 334.62H147ZM146 349.62C146 349.068 146.448 348.62 147 348.62H210.902C211.454 348.62 211.902 349.068 211.902 349.62C211.902 350.173 211.454 350.62 210.902 350.62H147C146.448 350.62 146 350.173 146 349.62ZM147 362.62C146.448 362.62 146 363.068 146 363.62C146 364.173 146.448 364.62 147 364.62H192.073C192.625 364.62 193.073 364.173 193.073 363.62C193.073 363.068 192.625 362.62 192.073 362.62H147ZM226.814 265.62C226.814 265.068 227.262 264.62 227.814 264.62H284.5C285.052 264.62 285.5 265.068 285.5 265.62C285.5 266.173 285.052 266.62 284.5 266.62H227.814C227.262 266.62 226.814 266.173 226.814 265.62ZM227.814 278.62C227.262 278.62 226.814 279.068 226.814 279.62C226.814 280.173 227.262 280.62 227.814 280.62H284.5C285.052 280.62 285.5 280.173 285.5 279.62C285.5 279.068 285.052 278.62 284.5 278.62H227.814ZM226.814 293.62C226.814 293.068 227.262 292.62 227.814 292.62H284.5C285.052 292.62 285.5 293.068 285.5 293.62C285.5 294.173 285.052 294.62 284.5 294.62H227.814C227.262 294.62 226.814 294.173 226.814 293.62ZM227.814 306.62C227.262 306.62 226.814 307.068 226.814 307.62C226.814 308.173 227.262 308.62 227.814 308.62H284.5C285.052 308.62 285.5 308.173 285.5 307.62C285.5 307.068 285.052 306.62 284.5 306.62H227.814ZM226.814 321.62C226.814 321.068 227.262 320.62 227.814 320.62H284.5C285.052 320.62 285.5 321.068 285.5 321.62C285.5 322.173 285.052 322.62 284.5 322.62H227.814C227.262 322.62 226.814 322.173 226.814 321.62ZM227.814 334.62C227.262 334.62 226.814 335.068 226.814 335.62C226.814 336.173 227.262 336.62 227.814 336.62H284.5C285.052 336.62 285.5 336.173 285.5 335.62C285.5 335.068 285.052 334.62 284.5 334.62H227.814ZM226.814 349.62C226.814 349.068 227.262 348.62 227.814 348.62H284.5C285.052 348.62 285.5 349.068 285.5 349.62C285.5 350.173 285.052 350.62 284.5 350.62H227.814C227.262 350.62 226.814 350.173 226.814 349.62ZM227.814 362.62C227.262 362.62 226.814 363.068 226.814 363.62C226.814 364.173 227.262 364.62 227.814 364.62H267.733C268.285 364.62 268.733 364.173 268.733 363.62C268.733 363.068 268.285 362.62 267.733 362.62H227.814Z" fill="#D9D9D9" fill-opacity="0.3"/>
<path d="M146 265.624C146 265.072 146.448 264.624 147 264.624H172C172.552 264.624 173 265.072 173 265.624V292.624C173 293.177 172.552 293.624 172 293.624H147C146.448 293.624 146 293.177 146 292.624V265.624Z" fill="#9ADAF3" fill-opacity="0.4" stroke="#9ADAF3" stroke-width="2"/>
</g>
<g filter="url(#filter1_d_3401_126869)">
<g clip-path="url(#clip0_3401_126869)">
<rect x="117" y="40" width="316" height="213" rx="4" fill="#3A3A3A"/>
<path d="M116.5 254.5V62.5H174.5V254.5H116.5Z" fill="#414141" stroke="#666666"/>
<mask id="path-60-inside-4_3401_126869" fill="white">
<path d="M117 233H174V253H120C118.343 253 117 251.657 117 250V233Z"/>
</mask>
<path d="M117 233H174V253H120C118.343 253 117 251.657 117 250V233Z" fill="#414141"/>
<path d="M117 232H174V234H117V232ZM174 253H117H174ZM117 253V233V253ZM174 233V253V233Z" fill="#666666" mask="url(#path-60-inside-4_3401_126869)"/>
<rect x="134" y="240" width="19.2371" height="2" rx="1" fill="#6D6D6D"/>
<rect x="134" y="245" width="23" height="2" rx="1" fill="#6D6D6D"/>
<circle cx="127.5" cy="243.5" r="4.5" fill="#6D6D6D"/>
<rect x="121" y="84" width="49" height="14" rx="2" fill="#DFE2E3"/>
<rect x="125" y="90" width="26" height="2" rx="1" fill="#6D6D6D"/>
<rect x="125" y="76" width="37" height="2" rx="1" fill="#6D6D6D"/>
<rect x="125" y="107" width="26" height="2" rx="1" fill="#6D6D6D"/>
<rect x="125" y="124" width="33" height="2" rx="1" fill="#6D6D6D"/>
<rect x="125" y="137" width="30" height="2" rx="1" fill="#6D6D6D"/>
<rect x="125" y="151" width="24" height="2" rx="1" fill="#6D6D6D"/>
<rect opacity="0.3" x="187" y="75" width="38" height="2" rx="1" fill="#555F65"/>
<rect opacity="0.3" x="187.5" y="85.5" width="189" height="7" rx="1.5" stroke="#D0D5DA"/>
<rect opacity="0.8" x="383" y="85" width="8" height="8" rx="2" fill="#666666"/>
<rect opacity="0.8" x="397" y="85" width="8" height="8" rx="2" fill="#666666"/>
<rect x="187.5" y="101.5" width="67.9999" height="41" rx="3.5" fill="#4C4C4C" stroke="#666666"/>
<line x1="187" y1="125.5" x2="254.954" y2="125.5" stroke="#666666"/>
<rect x="193.727" y="108.5" width="10" height="10" rx="1.5" fill="#585858" stroke="#FF6F3D"/>
<rect x="192.227" y="131" width="24.0454" height="8" rx="2" fill="#363636"/>
<rect x="220.454" y="131" width="19.8636" height="8" rx="2" fill="#363636"/>
<rect x="207.909" y="113" width="26.1363" height="2" rx="1" fill="#767676"/>
<rect x="196.409" y="134" width="15.6818" height="2" rx="1" fill="#666666" fill-opacity="0.7"/>
<rect x="223.591" y="134" width="13.5909" height="2" rx="1" fill="#666666" fill-opacity="0.7"/>
<rect x="266.5" y="101.5" width="67.9999" height="41" rx="3.5" fill="#4C4C4C" stroke="#666666"/>
<line x1="266" y1="125.5" x2="333.954" y2="125.5" stroke="#666666"/>
<rect x="272.727" y="108.5" width="10" height="10" rx="1.5" fill="#585858" stroke="#56A8F4"/>
<rect x="271.227" y="131" width="24.0454" height="8" rx="2" fill="#363636"/>
<rect x="299.454" y="131" width="19.8636" height="8" rx="2" fill="#363636"/>
<rect x="286.909" y="113" width="26.1363" height="2" rx="1" fill="#767676"/>
<rect x="275.409" y="134" width="15.6818" height="2" rx="1" fill="#666666" fill-opacity="0.7"/>
<rect x="302.591" y="134" width="13.5909" height="2" rx="1" fill="#666666" fill-opacity="0.7"/>
<rect x="345.5" y="101.5" width="67.9999" height="41" rx="3.5" fill="#4C4C4C" stroke="#666666"/>
<line x1="345" y1="125.5" x2="412.954" y2="125.5" stroke="#666666"/>
<rect x="350.5" y="108.5" width="10" height="10" rx="1.5" fill="#585858" stroke="#FF6F3D"/>
<rect x="350.227" y="131" width="24.0454" height="8" rx="2" fill="#363636"/>
<rect x="378.454" y="131" width="19.8636" height="8" rx="2" fill="#363636"/>
<rect x="365.909" y="113" width="26.1363" height="2" rx="1" fill="#767676"/>
<rect x="354.409" y="134" width="15.6818" height="2" rx="1" fill="#666666" fill-opacity="0.7"/>
<rect x="381.591" y="134" width="13.5909" height="2" rx="1" fill="#666666" fill-opacity="0.7"/>
<rect x="187.5" y="151.5" width="67.9999" height="41" rx="3.5" fill="#4C4C4C" stroke="#666666"/>
<line x1="187" y1="175.5" x2="254.954" y2="175.5" stroke="#666666"/>
<rect x="193.727" y="158.5" width="10" height="10" rx="1.5" fill="#585858" stroke="#56A8F4"/>
<rect x="192.227" y="181" width="24.0454" height="8" rx="2" fill="#363636"/>
<rect x="220.454" y="181" width="19.8636" height="8" rx="2" fill="#363636"/>
<rect x="207.909" y="163" width="26.1363" height="2" rx="1" fill="#767676"/>
<rect x="196.409" y="184" width="15.6818" height="2" rx="1" fill="#666666" fill-opacity="0.7"/>
<rect x="223.591" y="184" width="13.5909" height="2" rx="1" fill="#666666" fill-opacity="0.7"/>
<rect x="266.5" y="151.5" width="67.9999" height="41" rx="3.5" fill="#4C4C4C" stroke="#666666"/>
<line x1="266" y1="175.5" x2="333.954" y2="175.5" stroke="#666666"/>
<rect x="272.727" y="158.5" width="10" height="10" rx="1.5" fill="#585858" stroke="#FF6F3D"/>
<rect x="271.227" y="181" width="24.0454" height="8" rx="2" fill="#363636"/>
<rect x="299.454" y="181" width="19.8636" height="8" rx="2" fill="#363636"/>
<rect x="286.909" y="163" width="26.1363" height="2" rx="1" fill="#767676"/>
<rect x="275.409" y="184" width="15.6818" height="2" rx="1" fill="#666666" fill-opacity="0.7"/>
<rect x="302.591" y="184" width="13.5909" height="2" rx="1" fill="#666666" fill-opacity="0.7"/>
<rect x="345.5" y="151.5" width="67.9999" height="41" rx="3.5" fill="#4C4C4C" stroke="#666666"/>
<line x1="345" y1="175.5" x2="412.954" y2="175.5" stroke="#666666"/>
<rect x="350.5" y="158.5" width="10" height="10" rx="1.5" fill="#585858" stroke="#22C386"/>
<rect x="350.227" y="181" width="24.0454" height="8" rx="2" fill="#363636"/>
<rect x="378.454" y="181" width="19.8636" height="8" rx="2" fill="#363636"/>
<rect x="365.909" y="163" width="26.1363" height="2" rx="1" fill="#767676"/>
<rect x="354.409" y="184" width="15.6818" height="2" rx="1" fill="#666666" fill-opacity="0.7"/>
<rect x="381.591" y="184" width="13.5909" height="2" rx="1" fill="#666666" fill-opacity="0.7"/>
<rect x="187.5" y="201.5" width="67.9999" height="41" rx="3.5" fill="#4C4C4C" stroke="#666666"/>
<line x1="187" y1="225.5" x2="254.954" y2="225.5" stroke="#666666"/>
<rect x="193.727" y="208.5" width="10" height="10" rx="1.5" fill="#585858" stroke="#F2557C"/>
<rect x="192.227" y="231" width="24.0454" height="8" rx="2" fill="#363636"/>
<rect x="220.454" y="231" width="19.8636" height="8" rx="2" fill="#363636"/>
<rect x="207.909" y="213" width="26.1363" height="2" rx="1" fill="#767676"/>
<rect x="196.409" y="234" width="15.6818" height="2" rx="1" fill="#666666" fill-opacity="0.7"/>
<rect x="223.591" y="234" width="13.5909" height="2" rx="1" fill="#666666" fill-opacity="0.7"/>
<rect x="266.5" y="201.5" width="67.9999" height="41" rx="3.5" fill="#4C4C4C" stroke="#666666"/>
<line x1="266" y1="225.5" x2="333.954" y2="225.5" stroke="#666666"/>
<rect x="272.727" y="208.5" width="10" height="10" rx="1.5" fill="#585858" stroke="#22C386"/>
<rect x="271.227" y="231" width="24.0454" height="8" rx="2" fill="#363636"/>
<rect x="299.454" y="231" width="19.8636" height="8" rx="2" fill="#363636"/>
<rect x="286.909" y="213" width="26.1363" height="2" rx="1" fill="#767676"/>
<rect x="275.409" y="234" width="15.6818" height="2" rx="1" fill="#666666" fill-opacity="0.7"/>
<rect x="302.591" y="234" width="13.5909" height="2" rx="1" fill="#666666" fill-opacity="0.7"/>
<rect x="345.5" y="201.5" width="67.9999" height="41" rx="3.5" fill="#4C4C4C" stroke="#666666"/>
<line x1="345" y1="225.5" x2="412.954" y2="225.5" stroke="#666666"/>
<rect x="350.5" y="208.5" width="10" height="10" rx="1.5" fill="#585858" stroke="#FF6F3D"/>
<rect x="350.227" y="231" width="24.0454" height="8" rx="2" fill="#363636"/>
<rect x="378.454" y="231" width="19.8636" height="8" rx="2" fill="#363636"/>
<rect x="365.909" y="213" width="26.1363" height="2" rx="1" fill="#767676"/>
<rect x="354.409" y="234" width="15.6818" height="2" rx="1" fill="#666666" fill-opacity="0.7"/>
<rect x="381.591" y="234" width="13.5909" height="2" rx="1" fill="#666666" fill-opacity="0.7"/>
<path d="M434 65H435V64V43.5C435 40.1863 432.314 37.5 429 37.5H121C117.686 37.5 115 40.1863 115 43.5V64V65H116H434Z" fill="#414141" stroke="#808080" stroke-width="2"/>
<path fill-rule="evenodd" clip-rule="evenodd" d="M129.583 57.8269L123.395 54.9185C122.868 54.6646 122.868 54.2722 123.395 54.0414L125.55 53.0258L129.56 54.9185C130.087 55.1724 130.935 55.1724 131.44 54.9185L135.45 53.0258L137.605 54.0414C138.132 54.2953 138.132 54.6877 137.605 54.9185L131.417 57.8269C130.935 58.0577 130.087 58.0577 129.583 57.8269Z" fill="#FF6F3D"/>
<path fill-rule="evenodd" clip-rule="evenodd" d="M129.563 54.2279L123.394 51.3162C122.869 51.062 122.869 50.6692 123.394 50.4381L125.496 49.4444L129.563 51.3624C130.089 51.6166 130.934 51.6166 131.437 51.3624L135.504 49.4444L137.606 50.4381C138.131 50.6923 138.131 51.0851 137.606 51.3162L131.437 54.2279C130.911 54.4821 130.066 54.4821 129.563 54.2279Z" fill="#95C038"/>
<path fill-rule="evenodd" clip-rule="evenodd" d="M129.563 50.6664L123.394 47.7966C122.869 47.546 122.869 47.1588 123.394 46.9311L129.563 44.0613C130.089 43.8107 130.934 43.8107 131.437 44.0613L137.606 46.9311C138.131 47.1816 138.131 47.5688 137.606 47.7966L131.437 50.6664C130.911 50.8941 130.066 50.8941 129.563 50.6664Z" fill="#5DC0E8"/>
</g>
<rect x="116" y="39" width="318" height="215" rx="5" stroke="#808080" stroke-width="2"/>
</g>
<ellipse cx="453.203" cy="434" rx="56.141" ry="11" fill="black" fill-opacity="0.27"/>
<path fill-rule="evenodd" clip-rule="evenodd" d="M449.636 161.644C449.683 159.406 449.601 157.536 449.417 155.979C449.186 154.078 448.789 152.616 448.268 151.509C447.883 150.692 447.302 149.905 446.597 149.272C445.928 148.662 445.134 148.176 444.281 147.916C443.215 147.59 442.178 147.656 441.171 147.963C440.23 148.247 439.329 148.745 438.447 149.325C438.008 149.609 437.629 149.881 437.268 150.142C435.769 151.213 434.573 152.072 432.422 151.491C432.274 151.45 432.132 151.379 432.014 151.278C431.842 151.13 431.706 150.929 431.635 150.692C431.558 150.438 431.552 150.142 431.64 149.81C431.729 149.467 431.931 149.094 432.256 148.709L432.298 148.65C432.416 148.484 432.564 148.319 432.736 148.153C434.182 146.744 437.066 145.655 440.348 145.43C443.653 145.205 447.326 145.886 450.288 148.028C450.856 148.437 451.395 148.899 451.905 149.425C453.107 150.663 454.031 152.385 454.511 154.73C454.926 156.76 455.009 159.252 454.653 162.295C454.487 161.993 454.286 161.727 454.049 161.502C453.593 161.076 453.012 160.815 452.325 160.78C451.561 160.738 450.655 160.993 449.636 161.644Z" fill="#666666" stroke="#666666" stroke-width="0.216" stroke-miterlimit="22.9256"/>
<path fill-rule="evenodd" clip-rule="evenodd" d="M430.272 150.231C429.206 151.426 428.335 152.96 427.677 154.718C426.25 158.554 425.829 163.491 426.611 168.209C427.399 172.968 429.413 177.538 432.831 180.593C434.158 181.777 435.698 182.736 437.457 183.393C437.718 183.494 441.598 184.583 446.206 180.622C448.481 178.663 450.986 175.449 453.374 170.221L451.739 169.476C449.476 174.436 447.142 177.449 445.039 179.255C441.183 182.57 438.275 181.777 438.085 181.706C436.545 181.137 435.2 180.297 434.039 179.255C430.947 176.49 429.123 172.305 428.394 167.919C427.66 163.497 428.045 158.891 429.366 155.345C429.946 153.794 430.698 152.45 431.617 151.426L430.272 150.231Z" fill="#333333"/>
<path fill-rule="evenodd" clip-rule="evenodd" d="M449.595 162.923C449.707 160.105 449.636 157.82 449.411 155.979C449.18 154.078 448.783 152.616 448.262 151.509C447.877 150.692 447.296 149.905 446.591 149.272C445.922 148.662 445.128 148.177 444.275 147.916C443.209 147.59 442.172 147.656 441.165 147.963C440.224 148.248 439.323 148.745 438.441 149.325C438.002 149.609 437.623 149.881 437.262 150.142C435.763 151.213 434.567 152.072 432.416 151.492C432.268 151.45 432.126 151.379 432.008 151.278C431.836 151.13 431.7 150.929 431.629 150.692C431.552 150.438 431.546 150.142 431.635 149.81C431.723 149.467 431.925 149.094 432.251 148.709L432.292 148.65C432.41 148.484 432.559 148.319 432.73 148.153C434.176 146.744 437.06 145.655 440.342 145.43C443.647 145.205 447.32 145.886 450.282 148.029C450.85 148.437 451.389 148.899 451.899 149.426C453.101 150.663 454.025 152.385 454.505 154.73C454.949 156.914 455.009 159.625 454.564 162.982L454.499 163.491C454.274 165.249 454.132 166.344 453.048 167.848C452.894 168.061 452.716 168.292 452.509 168.54C452.331 168.759 452.124 168.996 451.887 169.245L452.094 169.991L453.202 170.47C453.433 170.222 453.664 169.961 453.889 169.683C454.096 169.434 454.298 169.174 454.499 168.896C455.844 167.025 456.01 165.758 456.276 163.722L456.341 163.213C456.815 159.649 456.744 156.736 456.259 154.369C455.708 151.657 454.612 149.639 453.178 148.171C452.598 147.573 451.976 147.046 451.324 146.572C447.983 144.151 443.884 143.387 440.206 143.636C436.504 143.885 433.186 145.181 431.457 146.862C431.232 147.081 431.03 147.312 430.853 147.549C430.343 148.147 430.029 148.757 429.875 149.343C429.698 150.012 429.721 150.651 429.893 151.213C430.071 151.793 430.402 152.285 430.829 152.646C431.155 152.918 431.534 153.119 431.937 153.232C434.91 154.031 436.409 152.954 438.298 151.604C438.66 151.349 439.033 151.077 439.412 150.829C440.164 150.331 440.923 149.911 441.675 149.68C442.362 149.473 443.049 149.426 443.736 149.633C444.317 149.81 444.874 150.154 445.359 150.598C445.886 151.077 446.325 151.669 446.615 152.273C447.059 153.208 447.397 154.487 447.604 156.186C447.8 157.814 447.877 159.803 447.8 162.224L448.256 162.863L449.595 162.923Z" fill="#333333"/>
<path fill-rule="evenodd" clip-rule="evenodd" d="M449.198 163.479C450.459 162.366 451.49 161.934 452.272 161.969C452.663 161.987 452.983 162.135 453.238 162.366C453.51 162.621 453.706 162.982 453.824 163.414C454.138 164.539 453.901 166.084 453.012 167.475C452.787 167.83 452.408 168.227 451.946 168.546C451.721 168.7 451.478 168.83 451.23 168.925C450.288 169.274 450.756 170.31 451.324 170.156C451.792 170.026 452.237 169.807 452.627 169.541C453.226 169.132 453.723 168.6 454.025 168.126C455.104 166.439 455.376 164.527 454.985 163.1C454.807 162.455 454.493 161.898 454.055 161.496C453.599 161.07 453.018 160.809 452.331 160.774C451.247 160.72 449.885 161.253 448.321 162.65C447.764 163.153 448.44 164.148 449.198 163.479Z" fill="#333333"/>
<path fill-rule="evenodd" clip-rule="evenodd" d="M451.36 164.071C451.538 164.035 451.692 164.035 451.822 164.065C451.97 164.101 452.088 164.183 452.16 164.296C452.242 164.432 452.29 164.616 452.29 164.829C452.29 165.273 452.106 165.841 451.727 166.427C451.597 166.628 451.384 166.859 451.117 167.037C451.016 167.108 450.904 167.173 450.785 167.22C450.151 167.493 450.359 168.008 450.868 167.83C451.076 167.759 451.277 167.652 451.455 167.534C451.786 167.309 452.065 167.013 452.231 166.753C452.669 166.066 452.888 165.385 452.888 164.829C452.888 164.497 452.811 164.201 452.663 163.97C452.503 163.722 452.266 163.55 451.952 163.479C451.769 163.438 451.555 163.432 451.312 163.467C450.525 163.597 450.613 164.219 451.36 164.071Z" fill="#333333"/>
<path fill-rule="evenodd" clip-rule="evenodd" d="M450.744 189.319L450.081 175.863L448.28 175.946L448.949 189.402L450.744 189.319Z" fill="#333333"/>
<path fill-rule="evenodd" clip-rule="evenodd" d="M436.219 189.248L437.203 182.032L435.42 181.789L434.43 189.005L436.219 189.248Z" fill="#333333"/>
<path fill-rule="evenodd" clip-rule="evenodd" d="M431.629 188.792C431.386 189.668 430.853 192.391 431.054 194.516C431.196 196.038 431.723 197.322 432.944 197.754C433.868 198.08 435.331 197.967 437.143 196.736C438.364 195.902 439.803 194.534 441.397 192.385L439.951 191.314C438.488 193.279 437.203 194.516 436.125 195.25C434.875 196.097 434.016 196.227 433.536 196.061C433.127 195.913 432.92 195.221 432.843 194.351C432.665 192.48 433.145 190.059 433.358 189.277L431.629 188.792Z" fill="#333333"/>
<path fill-rule="evenodd" clip-rule="evenodd" d="M438.079 168.238C435.135 169.404 434.099 168.037 434.14 166.764C434.187 165.048 435.799 165.391 435.473 162.609C436.871 164.568 433.719 166.741 435.603 167.765C436.006 167.984 436.646 168.209 438.079 168.238Z" fill="#333333"/>
<path fill-rule="evenodd" clip-rule="evenodd" d="M436.504 172.376C439.945 175.153 441.195 170.227 441.799 169.47C441.628 175.585 436.936 175.159 436.504 172.376Z" fill="#333333"/>
<path fill-rule="evenodd" clip-rule="evenodd" d="M439.193 161.597C441.023 157.269 445.881 159.738 445.898 162.052C445.667 161.798 444.648 161.188 444.068 161.117C443.867 163.692 440.786 164.231 439.957 161.484C439.631 161.466 439.436 161.449 439.193 161.597Z" fill="#333333"/>
<path fill-rule="evenodd" clip-rule="evenodd" d="M428.72 161.413C430.384 157.021 435.337 159.306 435.443 161.62C435.2 161.378 434.164 160.803 433.577 160.756C433.477 163.337 430.414 163.988 429.484 161.277C429.152 161.265 428.957 161.259 428.72 161.413Z" fill="#333333"/>
<path fill-rule="evenodd" clip-rule="evenodd" d="M440.449 241.377C439.015 241.116 437.635 240.607 435.751 239.666C434.43 239.003 433.358 238.31 432.499 237.612C431.765 237.014 431.184 236.41 430.74 235.812C430.942 237.736 431.475 239.855 432.186 241.98C433.204 245.023 434.579 248.078 435.87 250.635C436.492 248.93 437.321 247.125 438.251 245.325C438.944 243.987 439.691 242.655 440.449 241.377Z" fill="#FF6F3D" stroke="#FF6F3D" stroke-width="0.5669" stroke-miterlimit="22.9256"/>
<path fill-rule="evenodd" clip-rule="evenodd" d="M430.651 234.119C430.634 236.446 431.261 239.204 432.186 241.98C433.204 245.023 434.579 248.078 435.87 250.635C436.492 248.93 437.321 247.125 438.251 245.325C439.886 242.17 441.829 239.032 443.529 236.522L444.921 237.458C443.245 239.932 441.331 243.016 439.738 246.095C438.494 248.504 437.44 250.913 436.853 253.021L436.296 255.028L435.307 253.192C433.755 250.304 431.889 246.408 430.592 242.519C429.615 239.589 428.951 236.653 428.969 234.125L430.651 234.119Z" fill="#333333"/>
<path d="M471.706 201.172L471.658 201.042L471.567 200.937C469.399 198.451 465.712 195.727 461.872 193.495C458.273 191.396 453.938 189.703 451.109 189.045L450.326 188.863L450.199 189.658C450.149 189.969 450.1 190.311 450.048 190.674C449.891 191.774 449.707 193.066 449.382 194.298C449.169 195.108 448.905 195.851 448.57 196.455C448.243 197.045 447.874 197.46 447.461 197.699C447.454 197.698 447.445 197.697 447.434 197.695C447.356 197.681 447.231 197.638 447.057 197.544C446.709 197.357 446.297 197.041 445.884 196.673C445.478 196.313 445.1 195.93 444.823 195.635C444.684 195.488 444.572 195.364 444.495 195.278C444.456 195.235 444.427 195.201 444.407 195.179L444.399 195.169L441.837 191.604L440.796 190.155L440.598 191.29C440.597 191.29 440.597 191.29 440.596 191.29C440.394 191.232 440.221 191.267 440.149 191.285C439.989 191.323 439.839 191.401 439.736 191.459C439.507 191.587 439.216 191.788 438.904 192.016C438.278 192.474 437.461 193.121 436.66 193.756L436.634 193.777C435.816 194.426 435.016 195.059 434.414 195.498C434.17 195.676 433.975 195.81 433.834 195.896C433.718 195.857 433.594 195.817 433.476 195.779C433.338 195.734 433.209 195.693 433.111 195.659C432.822 195.56 432.585 195.465 432.39 195.353C432.2 195.244 432.07 195.13 431.981 195.003C431.894 194.88 431.82 194.709 431.795 194.444C431.668 193.101 431.856 191.469 432.071 190.261L432.259 189.203L431.201 189.391C428.428 189.885 426.149 190.568 424.237 191.347L424.236 191.348C421.509 192.464 419.54 193.783 417.957 195.049C417.353 195.53 416.244 196.74 414.917 198.258C413.59 199.777 411.986 201.673 410.332 203.627L410.247 203.728L410.247 203.728C408.028 206.351 407.842 208.752 407.998 210.611C408.034 211.038 408.087 211.436 408.134 211.787C408.137 211.808 408.14 211.828 408.143 211.849C408.193 212.224 408.232 212.527 408.244 212.789C408.268 213.327 408.165 213.432 408.082 213.489L407.835 213.661L407.775 213.956L404.911 228.187L399.124 235.913L397.231 238.44L400.058 237.034L401.317 236.408C402.59 236.515 403.464 235.574 404.061 234.555C404.715 233.439 405.253 231.881 405.783 230.318C405.81 230.241 405.836 230.163 405.862 230.085C406.001 229.677 406.14 229.266 406.282 228.858L406.314 228.815L406.337 228.701C406.709 227.641 407.102 226.601 407.554 225.662C408.24 224.235 409.01 223.158 409.931 222.594L409.932 222.593C415.131 219.403 417.953 215.712 419.416 213.564C419.41 213.653 419.404 213.745 419.398 213.841C419.393 213.919 419.388 213.999 419.383 214.081C419.317 215.13 419.232 216.51 419.157 218.269L419.156 218.269L419.156 218.276C418.972 223.764 419.014 234.839 419.589 245.301C419.981 252.409 420.611 259.272 421.583 263.873L421.653 264.204L421.948 264.371C428.367 267.995 435.598 269.584 442.715 269.889C451.67 270.273 460.507 268.638 467.484 266.44L468.173 266.223L467.982 265.526C467.168 262.556 466.448 259.621 465.818 256.704C465.157 253.647 464.598 250.59 464.138 247.54L464.074 247.114L463.673 246.955C459.786 245.41 455.195 243.417 449.81 240.978C449.743 240.836 449.675 240.696 449.608 240.556L449.764 240.627C455.96 243.441 461.134 245.668 465.407 247.315L465.677 246.616L465.407 247.315C469.827 249.019 473.293 250.106 475.92 250.563C478.346 250.986 480.091 251.013 481.348 250.846L481.35 250.846C482.297 250.718 482.911 250.528 483.314 250.332C483.517 250.233 483.676 250.128 483.797 250.019C483.858 249.965 483.913 249.908 483.96 249.846C483.995 249.801 484.066 249.702 484.107 249.566L484.11 249.556L484.112 249.546C484.778 247.082 484.809 244.106 484.427 240.86C484.044 237.606 483.24 234.033 482.2 230.353C480.122 223.003 477.079 215.151 474.483 208.453L474.474 208.43C474.376 208.177 474.28 207.926 474.183 207.677C473.278 205.336 472.432 203.145 471.706 201.172ZM447.479 197.7C447.48 197.7 447.481 197.7 447.481 197.7L447.479 197.7ZM449.181 239.673C447.949 237.144 446.844 235.046 445.852 233.317C446.116 233.379 446.377 233.388 446.583 233.386C446.828 233.384 447.137 233.36 447.406 233.339C447.553 233.328 447.688 233.318 447.796 233.312C448.1 233.296 448.294 233.308 448.41 233.333C448.311 233.419 448.206 233.538 448.138 233.696C448.068 233.863 448.043 234.067 448.107 234.276C448.166 234.47 448.282 234.602 448.373 234.681C448.538 234.825 448.735 234.896 448.855 234.934C448.996 234.978 449.153 235.01 449.309 235.037C449.621 235.089 450.001 235.125 450.392 235.154C450.85 235.186 451.38 235.211 451.872 235.234C452.196 235.248 452.504 235.263 452.763 235.278C452.959 235.29 453.129 235.302 453.269 235.315L453.734 235.454C455.933 236.108 458.943 236.818 462.019 237.424L462.985 237.614L462.912 236.633C462.647 233.035 462.511 229.395 462.517 225.702C462.523 221.88 462.676 218.039 462.971 214.161L462.971 214.16C462.988 213.93 463.06 213.861 463.069 213.852C463.079 213.843 463.088 213.839 463.108 213.841C463.133 213.845 463.172 213.86 463.206 213.904C463.236 213.942 463.284 214.032 463.271 214.213L463.27 214.214C463.05 217.127 462.907 220 462.848 222.838L462.845 222.98L462.894 223.113C463.579 224.978 465.259 228.274 466.944 231.348L466.945 231.349C467.837 232.972 468.735 234.54 469.501 235.816C470.257 237.076 470.911 238.095 471.307 238.586L471.507 238.834L471.825 238.862C471.969 238.875 472.123 238.883 472.257 238.89C472.318 238.893 472.375 238.896 472.424 238.899V238.899L472.435 238.9C472.695 238.912 472.796 238.989 472.822 239.014C472.847 239.037 472.847 239.052 472.846 239.062C472.846 239.076 472.838 239.105 472.802 239.135C472.77 239.161 472.681 239.215 472.488 239.207C470.241 239.103 466.951 238.642 463.568 238.017L463.567 238.017C459.804 237.327 455.961 236.439 453.368 235.646L452.792 235.469L452.496 235.994C452.176 236.56 451.819 237.094 451.42 237.593C450.887 238.259 450.286 238.852 449.627 239.342L449.181 239.673ZM464.018 214.27C464.125 212.879 462.336 212.589 462.223 214.105L472.453 239.956C473.875 240.021 474.071 238.227 472.471 238.15C472.406 238.146 472.34 238.143 472.274 238.14C472.149 238.133 472.023 238.127 471.891 238.115C471.174 237.227 469.379 234.22 467.602 230.988C465.914 227.909 464.261 224.659 463.598 222.854C463.657 220.03 463.799 217.171 464.018 214.27ZM443.709 229.284C443.958 229.345 444.188 229.494 444.347 229.692L444.347 229.692L444.353 229.7C444.527 229.911 444.621 230.16 444.621 230.413C444.621 230.484 444.612 230.567 444.588 230.664L444.585 230.677L444.583 230.69L444.503 231.081C444.062 230.39 443.647 229.782 443.256 229.251H443.44C443.527 229.251 443.617 229.262 443.709 229.284ZM442.703 228.364L442.678 228.498C441.803 227.411 441.023 226.687 440.31 226.286C439.566 225.867 438.827 225.768 438.16 226.069C437.539 226.35 437.142 226.909 436.882 227.435C436.616 227.974 436.439 228.588 436.315 229.132C436.215 229.567 436.144 229.987 436.089 230.31C436.03 230.309 435.97 230.308 435.912 230.309C435.61 230.311 435.253 230.333 434.92 230.355C434.842 230.36 434.766 230.365 434.692 230.369C434.273 230.395 433.925 230.409 433.685 230.389C433.673 230.389 433.662 230.387 433.651 230.386L427.144 223.112C427.159 222.848 427.263 222.602 427.432 222.405C427.623 222.189 427.877 222.049 428.151 222.019L428.159 222.018L428.168 222.017C428.199 222.013 428.222 222.01 428.237 222.01C428.239 222.009 428.24 222.009 428.241 222.009L428.265 222.012L428.304 222.011L437.187 221.952L437.864 221.948L437.928 221.274C437.989 220.64 438.05 219.33 438.13 217.614C438.148 217.213 438.168 216.79 438.189 216.348C438.239 215.291 438.297 214.12 438.365 212.876C438.406 213.385 438.469 213.839 438.559 214.225C438.665 215.351 439.115 216.117 439.759 216.677C440.27 217.122 440.906 217.43 441.448 217.692C441.542 217.738 441.633 217.782 441.721 217.826C442.355 218.141 442.88 218.447 443.279 218.926C443.654 219.376 443.966 220.042 444.048 221.158L442.703 228.364ZM435.982 230.882C435.982 230.882 435.983 230.878 435.986 230.87C435.984 230.878 435.982 230.882 435.982 230.882ZM445.475 232.668C445.357 232.469 445.242 232.275 445.128 232.086L445.475 232.668ZM449.858 233.346L449.975 233.383C449.976 233.386 449.977 233.388 449.978 233.39L449.823 233.395C449.835 233.379 449.846 233.363 449.858 233.346Z" fill="#EFEFEF" stroke="#333333" stroke-width="1.5" stroke-miterlimit="22.9256"/>
<path fill-rule="evenodd" clip-rule="evenodd" d="M462.224 214.104C461.927 218 461.773 221.859 461.767 225.701C461.761 229.827 461.927 233.882 462.259 237.89L464.06 237.742C463.728 233.734 463.562 229.727 463.568 225.701C463.574 221.96 463.722 218.159 464.024 214.276C464.125 212.885 462.336 212.589 462.224 214.104ZM463.337 247.231L465.12 246.971C465.594 250.144 466.169 253.317 466.856 256.501C467.543 259.698 468.337 262.895 469.231 266.091L469.462 266.92L468.645 267.187C461.442 269.554 452.13 271.354 442.676 270.952C435.242 270.632 427.725 268.945 421.073 265.091L420.735 264.896L420.646 264.505C419.61 259.858 418.94 252.754 418.538 245.361C417.963 234.877 417.916 223.765 418.105 218.254L418.164 216.845L418.241 215.365L420.042 215.478L419.965 216.928L419.906 218.307C419.722 223.771 419.764 234.823 420.338 245.266C420.729 252.37 421.357 259.183 422.317 263.724C428.608 267.275 435.716 268.844 442.747 269.146C451.597 269.525 460.346 267.909 467.259 265.73C466.441 262.747 465.718 259.799 465.085 256.868C464.403 253.654 463.817 250.446 463.337 247.231Z" fill="#333333"/>
<mask id="path-169-outside-5_3401_126869" maskUnits="userSpaceOnUse" x="430.811" y="187.674" width="21" height="11" fill="black">
<rect fill="white" x="430.811" y="187.674" width="21" height="11"/>
<path fill-rule="evenodd" clip-rule="evenodd" d="M450.207 189.84C450.207 189.84 448.333 196.02 446.917 196.795C445.958 197.328 444.489 196.482 442.244 192.764C444.495 192.651 448.28 191.972 450.207 189.84ZM439.015 192.509C437.937 193.8 436.972 194.676 436.131 195.25C434.881 196.097 434.022 196.227 433.542 196.061C433.133 195.913 432.926 195.221 432.849 194.35C432.707 192.817 432.997 190.905 433.228 189.84C433.672 189.78 434.134 189.721 434.602 189.674L434.839 190.005C435.834 191.302 437.303 192.119 439.015 192.509Z"/>
</mask>
<path fill-rule="evenodd" clip-rule="evenodd" d="M450.207 189.84C450.207 189.84 448.333 196.02 446.917 196.795C445.958 197.328 444.489 196.482 442.244 192.764C444.495 192.651 448.28 191.972 450.207 189.84ZM439.015 192.509C437.937 193.8 436.972 194.676 436.131 195.25C434.881 196.097 434.022 196.227 433.542 196.061C433.133 195.913 432.926 195.221 432.849 194.35C432.707 192.817 432.997 190.905 433.228 189.84C433.672 189.78 434.134 189.721 434.602 189.674L434.839 190.005C435.834 191.302 437.303 192.119 439.015 192.509Z" fill="#CCCCCC"/>
<path d="M450.207 189.84L451.642 190.275C451.846 189.603 451.557 188.879 450.945 188.534C450.334 188.188 449.565 188.313 449.094 188.834L450.207 189.84ZM446.917 196.795L446.197 195.48L446.189 195.484L446.917 196.795ZM442.244 192.764L442.169 191.266L439.662 191.391L440.96 193.539L442.244 192.764ZM439.015 192.509L440.166 193.471L441.736 191.592L439.349 191.047L439.015 192.509ZM436.131 195.25L436.972 196.492L436.976 196.489L436.131 195.25ZM433.542 196.061L433.031 197.472L433.042 197.475L433.052 197.479L433.542 196.061ZM432.849 194.35L434.343 194.218L434.343 194.212L432.849 194.35ZM433.228 189.84L433.03 188.353L431.985 188.492L431.762 189.522L433.228 189.84ZM434.602 189.674L435.823 188.802L435.317 188.094L434.451 188.181L434.602 189.674ZM434.839 190.005L433.619 190.878L433.634 190.898L433.649 190.919L434.839 190.005ZM450.207 189.84C448.772 189.404 448.772 189.404 448.772 189.404C448.772 189.404 448.772 189.404 448.772 189.404C448.772 189.404 448.772 189.404 448.772 189.404C448.771 189.405 448.771 189.406 448.771 189.407C448.77 189.409 448.769 189.413 448.767 189.418C448.764 189.428 448.759 189.444 448.753 189.466C448.74 189.508 448.72 189.572 448.694 189.654C448.642 189.818 448.566 190.054 448.47 190.342C448.277 190.918 448.007 191.689 447.697 192.478C447.384 193.275 447.043 194.054 446.711 194.664C446.545 194.97 446.398 195.201 446.275 195.36C446.136 195.542 446.103 195.531 446.197 195.48L447.638 198.111C448.085 197.866 448.421 197.492 448.655 197.187C448.906 196.86 449.138 196.481 449.346 196.098C449.764 195.331 450.157 194.421 450.489 193.575C450.824 192.723 451.112 191.9 451.315 191.293C451.416 190.989 451.498 190.737 451.554 190.56C451.582 190.471 451.604 190.401 451.619 190.353C451.626 190.329 451.632 190.31 451.636 190.297C451.638 190.29 451.639 190.285 451.641 190.281C451.641 190.279 451.642 190.278 451.642 190.277C451.642 190.276 451.642 190.276 451.642 190.276C451.642 190.275 451.642 190.275 451.642 190.275C451.642 190.275 451.642 190.275 450.207 189.84ZM446.189 195.484C446.466 195.33 446.53 195.623 445.995 195.199C445.44 194.758 444.622 193.801 443.528 191.989L440.96 193.539C442.11 195.444 443.149 196.77 444.13 197.548C445.131 198.343 446.409 198.793 447.645 198.107L446.189 195.484ZM442.319 194.262C443.537 194.201 445.174 193.988 446.787 193.493C448.378 193.006 450.099 192.197 451.32 190.845L449.094 188.834C448.389 189.615 447.253 190.212 445.907 190.625C444.583 191.031 443.201 191.214 442.169 191.266L442.319 194.262ZM437.864 191.548C436.851 192.761 435.985 193.533 435.285 194.011L436.976 196.489C437.958 195.819 439.024 194.839 440.166 193.471L437.864 191.548ZM435.289 194.008C434.76 194.367 434.383 194.525 434.152 194.588C433.914 194.654 433.903 194.599 434.032 194.643L433.052 197.479C434.225 197.884 435.614 197.412 436.972 196.492L435.289 194.008ZM434.053 194.651C434.275 194.731 434.401 194.863 434.451 194.927C434.497 194.985 434.497 195.007 434.476 194.95C434.456 194.899 434.43 194.811 434.405 194.679C434.38 194.55 434.359 194.396 434.343 194.218L431.355 194.483C431.399 194.98 431.486 195.522 431.666 196.003C431.824 196.424 432.191 197.167 433.031 197.472L434.053 194.651ZM434.343 194.212C434.221 192.906 434.474 191.171 434.694 190.157L431.762 189.522C431.52 190.639 431.192 192.728 431.355 194.489L434.343 194.212ZM433.426 191.326C433.867 191.268 434.31 191.211 434.753 191.166L434.451 188.181C433.959 188.231 433.478 188.293 433.03 188.353L433.426 191.326ZM433.382 190.546L433.619 190.878L436.06 189.133L435.823 188.802L433.382 190.546ZM433.649 190.919C434.904 192.554 436.713 193.523 438.682 193.972L439.349 191.047C437.894 190.715 436.764 190.05 436.029 189.092L433.649 190.919Z" fill="#333333" mask="url(#path-169-outside-5_3401_126869)"/>
<path fill-rule="evenodd" clip-rule="evenodd" d="M479.633 424.225C478.223 425.817 476.434 427.528 474.598 429.28C471.624 432.122 468.532 435.076 466.986 437.603C465.825 439.504 465.612 441.149 467.259 442.233C468.26 442.357 471.838 440.847 475.984 438.752C480.622 436.408 485.847 433.329 489.051 430.896C489.075 430.873 489.14 430.825 489.164 430.814C489.229 430.766 489.336 430.695 489.46 430.589C490.123 430.014 491.172 428.458 487.926 424.687L489.294 423.515C493.606 428.529 491.741 430.997 490.627 431.956C490.467 432.092 490.307 432.205 490.2 432.282L490.117 432.341C486.812 434.845 481.499 437.982 476.795 440.356C472.146 442.706 467.969 444.328 466.654 443.944L466.542 443.914L466.441 443.849C463.515 442.067 463.699 439.533 465.452 436.668C467.122 433.939 470.297 430.902 473.36 427.978C475.172 426.244 476.944 424.556 478.288 423.035L479.633 424.225Z" fill="#333333"/>
<path fill-rule="evenodd" clip-rule="evenodd" d="M429.141 423.047C427.322 423.793 425.107 424.556 422.844 425.332C418.295 426.889 413.55 428.517 410.825 430.506C408.409 432.276 407.473 434.3 409.262 436.733L409.333 436.828L409.427 436.905C410.511 437.775 415.884 437.917 421.944 437.544C427.808 437.183 434.419 436.39 438.328 435.354L438.423 435.33C439.329 435.129 442.984 434.294 441.237 427.866C441.171 427.629 440.698 426.587 440.259 425.604C439.898 424.805 439.554 424.041 439.513 423.923L437.801 424.485C437.86 424.669 438.228 425.486 438.618 426.344C439.033 427.268 439.477 428.244 439.501 428.333C440.757 432.962 438.571 433.454 438.032 433.572L437.902 433.602C434.105 434.608 427.618 435.384 421.843 435.739C416.352 436.076 411.595 436.07 410.642 435.543C409.759 434.223 410.405 433.039 411.903 431.944C414.397 430.121 419.012 428.54 423.442 427.019C425.693 426.25 427.903 425.492 429.84 424.693L429.141 423.047Z" fill="#333333"/>
<path fill-rule="evenodd" clip-rule="evenodd" d="M474.598 429.28C471.624 432.122 468.532 435.076 466.986 437.603C465.825 439.504 465.612 441.149 467.259 442.233C468.26 442.357 471.838 440.847 475.984 438.752C480.622 436.408 485.847 433.329 489.051 430.896C489.075 430.873 489.14 430.825 489.164 430.814C489.229 430.766 489.336 430.695 489.46 430.589C489.821 430.281 490.289 429.689 490.135 428.617C490.023 427.8 489.543 426.699 488.376 425.231C487.162 425.758 485.628 425.983 484.093 425.942C482.304 425.894 480.468 425.492 479.129 424.787C478.016 426.001 476.707 427.268 475.35 428.57C475.096 428.807 474.847 429.044 474.598 429.28Z" fill="#FEFEFE"/>
<path fill-rule="evenodd" clip-rule="evenodd" d="M439.489 428.339C439.519 428.446 439.548 428.552 439.572 428.659C440.644 432.992 438.547 433.466 438.02 433.584L437.89 433.614C434.093 434.62 427.607 435.395 421.831 435.751C416.34 436.088 411.583 436.082 410.63 435.555C409.747 434.235 410.393 433.051 411.891 431.956C413.408 430.843 415.718 429.825 418.289 428.854C419.942 428.233 421.695 427.629 423.43 427.037C425.444 426.344 427.423 425.669 429.206 424.959C430.314 425.687 432.026 426.439 433.992 426.569C435.355 426.658 436.841 426.451 438.328 425.735C438.417 425.93 438.512 426.143 438.607 426.35C439.021 427.274 439.46 428.25 439.489 428.339Z" fill="#FEFEFE"/>
<path fill-rule="evenodd" clip-rule="evenodd" d="M465.067 268.264C469.243 281.921 473.911 306.588 477.998 334.482C483.892 363.21 487.689 395.568 487.636 422.982C486.552 423.58 484.97 423.929 483.394 423.964C481.83 424 480.314 423.74 479.349 423.13C477.992 417.968 472.525 395.798 465.179 370.083C458.983 348.382 450.839 324.809 446.562 308.275L444.85 302.03C444.743 317.558 443.701 333.866 443.026 344.445C442.824 347.63 442.652 350.294 442.546 352.324C442.54 352.46 442.546 352.981 442.558 353.851C442.658 361.387 443.108 395.935 437.76 424C436.504 424.657 435.242 424.846 434.093 424.775C432.529 424.675 431.161 424.089 430.266 423.509C430.166 415.393 429.893 403.731 429.129 391.299C428.347 378.59 427.038 365.034 424.858 353.543C424.68 352.608 421.399 333.795 421.209 308.346C421.114 295.631 421.796 281.258 424.023 266.63C429.905 269.395 436.32 270.667 442.67 270.946C450.631 271.289 458.486 270.07 465.067 268.264Z" fill="#666666" stroke="#404040" stroke-width="0.216" stroke-miterlimit="22.9256"/>
<path fill-rule="evenodd" clip-rule="evenodd" d="M444.856 301.853C444.755 317.433 443.707 333.825 443.031 344.445C442.83 347.63 442.658 350.294 442.552 352.324C442.546 352.46 442.552 352.981 442.564 353.851C442.664 361.387 443.114 395.935 437.765 424C436.51 424.657 435.248 424.846 434.099 424.775C432.535 424.675 431.167 424.089 430.272 423.509C430.172 415.393 429.899 403.731 429.135 391.299C428.353 378.59 427.044 365.034 424.864 353.544C424.686 352.608 421.405 333.795 421.215 308.346C421.12 295.276 421.837 280.465 424.218 265.423L422.441 265.144C420.048 280.281 419.326 295.199 419.42 308.346C419.61 333.967 422.915 352.922 423.093 353.863C425.261 365.27 426.558 378.75 427.34 391.394C428.122 404.08 428.389 415.902 428.483 423.988L428.489 424.432L428.845 424.699C429.917 425.498 431.795 426.421 433.992 426.563C435.574 426.664 437.315 426.368 439.039 425.35L439.389 425.142L439.466 424.746C444.927 396.444 444.465 361.429 444.37 353.822C444.358 353.017 444.352 352.525 444.358 352.407C444.459 350.489 444.631 347.784 444.838 344.551C445.431 335.305 446.301 321.695 446.58 308.021L444.856 301.853Z" fill="#333333"/>
<path fill-rule="evenodd" clip-rule="evenodd" d="M434.49 284.626C435.639 285.656 436.936 286.574 438.376 287.249C439.862 287.941 441.509 288.385 443.298 288.438L444.027 288.462L444.11 289.178C446.443 309.187 452.764 329.018 460.227 352.419C466.601 372.41 473.804 395.005 480.077 422.55C481.191 423.053 482.399 423.177 483.578 423.094C484.703 423.011 485.811 422.733 486.783 422.396C486.575 414.232 486.107 401.884 485.053 388.766C484.307 379.454 483.27 369.781 481.825 361.002C481.623 359.789 481.428 358.634 481.226 357.533C481.025 356.42 480.812 355.325 480.598 354.254C480.427 353.413 480.202 352.354 479.976 351.324C479.384 348.583 478.839 346.073 478.531 342.947C478.324 340.834 478.093 338.655 477.844 336.436C477.589 334.156 477.323 331.972 477.056 329.871C475.575 318.345 473.68 307.157 471.541 296.874C469.32 286.207 466.832 276.534 464.267 268.507L465.861 268.004C468.443 276.102 470.949 285.828 473.176 296.537C475.326 306.837 477.228 318.073 478.715 329.663C479.005 331.925 479.271 334.127 479.514 336.252C479.751 338.365 479.982 340.544 480.202 342.787C480.492 345.771 481.031 348.257 481.617 350.963C481.801 351.815 481.99 352.697 482.239 353.922C482.458 355.006 482.672 356.113 482.873 357.231C483.086 358.421 483.294 359.582 483.477 360.724C484.928 369.58 485.977 379.294 486.723 388.63C487.801 402.044 489.081 415.292 489.282 423.503L489.294 424.095L488.737 424.308C486.048 425.326 480.391 425.959 478.359 423.408L478.276 423.029C471.992 395.354 465.02 372.966 458.628 352.916C451.224 329.687 444.939 309.968 442.522 290.06C440.763 289.918 439.146 289.445 437.659 288.752C436.024 287.989 434.561 286.953 433.287 285.792C432.156 284.762 433.358 283.608 434.49 284.626Z" fill="#333333"/>
<path fill-rule="evenodd" clip-rule="evenodd" d="M441.278 190.976C443.505 191.029 446.005 190.42 448.203 189.277C448.445 189.153 448.682 189.017 448.919 188.875L448.398 178.397C447.652 179.279 446.917 180.013 446.206 180.622C441.592 184.589 437.718 183.494 437.457 183.393C437.315 183.34 437.173 183.286 437.037 183.227L436.261 188.892C436.261 188.892 436.261 188.898 436.267 188.898C437.315 190.272 439.163 190.929 441.278 190.976Z" fill="#FEFEFE"/>
<path fill-rule="evenodd" clip-rule="evenodd" d="M439.193 161.597C441.023 157.269 445.881 159.738 445.898 162.052C445.667 161.798 444.649 161.188 444.068 161.117C443.867 163.692 440.786 164.231 439.957 161.484C439.625 161.466 439.436 161.449 439.193 161.597ZM438.085 181.706C438.275 181.777 441.183 182.57 445.039 179.255C447.053 177.527 449.275 174.697 451.437 170.121C451.401 170.133 451.36 170.145 451.324 170.156C450.756 170.31 450.288 169.28 451.23 168.925C451.478 168.83 451.727 168.7 451.946 168.546C452.414 168.227 452.787 167.83 453.013 167.475C453.901 166.084 454.132 164.539 453.824 163.414C453.706 162.982 453.504 162.615 453.238 162.366C452.989 162.129 452.663 161.987 452.272 161.97C451.49 161.934 450.454 162.36 449.198 163.479C448.499 164.101 447.877 163.301 448.215 162.781L447.824 162.23C447.901 159.809 447.824 157.82 447.628 156.192C447.421 154.493 447.083 153.214 446.639 152.279C446.355 151.675 445.916 151.083 445.383 150.604C444.897 150.16 444.341 149.816 443.76 149.639C443.073 149.426 442.38 149.479 441.699 149.686C440.946 149.917 440.188 150.337 439.436 150.835C439.057 151.083 438.684 151.35 438.322 151.61C436.439 152.96 434.94 154.031 431.96 153.238C431.558 153.131 431.178 152.93 430.853 152.652C430.817 152.622 430.782 152.593 430.752 152.563C430.213 153.38 429.751 154.321 429.36 155.357C428.039 158.909 427.654 163.509 428.388 167.931C429.117 172.317 430.942 176.502 434.034 179.267C435.201 180.297 436.545 181.138 438.085 181.706ZM451.36 164.071C450.614 164.219 450.531 163.597 451.313 163.467C451.549 163.432 451.763 163.432 451.952 163.479C452.266 163.55 452.503 163.722 452.663 163.97C452.811 164.201 452.888 164.497 452.888 164.829C452.888 165.379 452.675 166.066 452.231 166.753C452.065 167.013 451.786 167.309 451.455 167.534C451.277 167.658 451.081 167.759 450.868 167.83C450.359 168.008 450.151 167.493 450.785 167.22C450.898 167.173 451.01 167.108 451.117 167.037C451.384 166.859 451.597 166.628 451.727 166.427C452.106 165.835 452.29 165.273 452.29 164.829C452.29 164.61 452.248 164.426 452.16 164.296C452.083 164.178 451.97 164.101 451.822 164.065C451.692 164.035 451.538 164.035 451.36 164.071ZM428.72 161.413C430.385 157.021 435.337 159.306 435.443 161.62C435.201 161.378 434.164 160.803 433.577 160.756C433.477 163.337 430.414 163.988 429.484 161.277C429.153 161.265 428.957 161.259 428.72 161.413ZM436.504 172.376C439.945 175.153 441.195 170.228 441.799 169.47C441.628 175.585 436.936 175.159 436.504 172.376ZM435.603 167.765C436.006 167.984 436.652 168.209 438.079 168.238C435.135 169.405 434.099 168.037 434.14 166.764C434.188 165.048 435.799 165.391 435.473 162.609C436.871 164.562 433.714 166.741 435.603 167.765Z" fill="#FEFEFE"/>
<path d="M393.808 226.928L394.523 227.155L394.297 227.87L389.713 242.329C388.478 246.223 390.19 250.14 393.951 251.332L409.293 256.193L410.008 256.42L409.782 257.135L407.674 263.782C406.096 268.761 408.759 273.897 413.733 275.473C418.708 277.049 423.844 274.384 425.422 269.405L427.53 262.758L427.756 262.043L428.471 262.269L443.813 267.13C447.637 268.342 451.763 266.201 452.976 262.374L457.091 249.397L452.052 247.8C445.904 245.852 442.543 239.367 444.493 233.216C446.443 227.065 452.927 223.699 459.075 225.647L464.114 227.243L468.51 213.375C469.723 209.548 467.585 205.422 463.761 204.21L449.9 199.819L448.302 204.861C446.352 211.011 439.868 214.378 433.72 212.429C427.571 210.481 424.21 203.996 426.16 197.845L427.758 192.803L413.898 188.412C410.132 187.219 406.435 189.429 405.202 193.317L400.336 208.667L400.109 209.382L399.394 209.156L393.174 207.185C388.189 205.606 383.027 208.22 381.451 213.189C379.873 218.167 382.569 223.367 387.543 224.943L393.808 226.928Z" fill="url(#paint0_linear_3401_126869)" stroke="#333333" stroke-width="1.5"/>
<path d="M436.388 231.548C436.855 230.739 437.682 230.179 438.821 229.849C439.963 229.518 441.361 229.438 442.848 229.553C445.83 229.784 448.979 230.784 450.778 231.823C451.585 232.289 452.011 232.861 452.216 233.48C452.428 234.119 452.426 234.876 452.25 235.724C451.894 237.439 450.88 239.289 450.01 240.797C449.401 241.851 448.033 242.204 445.998 241.851C444.022 241.509 441.753 240.54 439.89 239.464C438.162 238.466 437.04 236.874 436.482 235.297C435.908 233.678 435.983 232.25 436.388 231.548Z" fill="white" stroke="#333333" stroke-width="1.5"/>
<path d="M398.066 233.44C397.997 231.9 397.018 230.125 395.689 228.714C395.034 228.02 394.324 227.446 393.655 227.057C392.97 226.659 392.399 226.496 392.002 226.513C391.749 226.525 391.442 226.687 391.103 227.22C390.767 227.75 390.482 228.527 390.263 229.47C389.827 231.346 389.695 233.668 389.773 235.41C389.842 236.926 390.551 237.813 391.491 238.346C392.475 238.903 393.75 239.084 394.87 239.034C395.661 238.998 396.484 238.302 397.141 237.075C397.778 235.886 398.112 234.451 398.066 233.44Z" fill="white" stroke="#333333" stroke-width="1.5"/>
<defs>
<filter id="filter0_d_3401_126869" x="0" y="132" width="426" height="329" filterUnits="userSpaceOnUse" color-interpolation-filters="sRGB">
<feFlood flood-opacity="0" result="BackgroundImageFix"/>
<feColorMatrix in="SourceAlpha" type="matrix" values="0 0 0 0 0 0 0 0 0 0 0 0 0 0 0 0 0 0 127 0" result="hardAlpha"/>
<feOffset dy="20"/>
<feGaussianBlur stdDeviation="25"/>
<feColorMatrix type="matrix" values="0 0 0 0 0.333333 0 0 0 0 0.333333 0 0 0 0 0.333333 0 0 0 0.15 0"/>
<feBlend mode="normal" in2="BackgroundImageFix" result="effect1_dropShadow_3401_126869"/>
<feBlend mode="normal" in="SourceGraphic" in2="effect1_dropShadow_3401_126869" result="shape"/>
</filter>
<filter id="filter1_d_3401_126869" x="65" y="8" width="420" height="317" filterUnits="userSpaceOnUse" color-interpolation-filters="sRGB">
<feFlood flood-opacity="0" result="BackgroundImageFix"/>
<feColorMatrix in="SourceAlpha" type="matrix" values="0 0 0 0 0 0 0 0 0 0 0 0 0 0 0 0 0 0 127 0" result="hardAlpha"/>
<feOffset dy="20"/>
<feGaussianBlur stdDeviation="25"/>
<feColorMatrix type="matrix" values="0 0 0 0 0 0 0 0 0 0 0 0 0 0 0 0 0 0 0.35 0"/>
<feBlend mode="normal" in2="BackgroundImageFix" result="effect1_dropShadow_3401_126869"/>
<feBlend mode="normal" in="SourceGraphic" in2="effect1_dropShadow_3401_126869" result="shape"/>
</filter>
<linearGradient id="paint0_linear_3401_126869" x1="387.913" y1="179.385" x2="446.114" y2="286.522" gradientUnits="userSpaceOnUse">
<stop stop-color="#FF8E3D"/>
<stop offset="1" stop-color="#FF6F3D"/>
</linearGradient>
<clipPath id="clip0_3401_126869">
<rect x="117" y="40" width="316" height="213" rx="4" fill="white"/>
</clipPath>
</defs>
</svg>
