<svg width="449" height="290" viewBox="0 0 449 290" fill="none" xmlns="http://www.w3.org/2000/svg">
<path d="M28 34.1019C28 32.9411 28.9172 32 30.0487 32H137.951C139.083 32 140 32.9411 140 34.1019V113.898C140 115.059 139.083 116 137.951 116H30.0487C28.9172 116 28 115.059 28 113.898V34.1019Z" fill="white"/>
<path fill-rule="evenodd" clip-rule="evenodd" d="M137.951 34H30.0487C30.048 34 30.0474 34 30.047 34C30.0454 34.0008 30.0398 34.0039 30.0323 34.0116C30.016 34.0283 30 34.0566 30 34.1019V113.898C30 113.943 30.016 113.972 30.0323 113.988C30.0398 113.996 30.0454 113.999 30.047 114C30.0474 114 30.048 114 30.0487 114H137.951C137.952 114 137.953 114 137.953 114C137.955 113.999 137.96 113.996 137.968 113.988C137.984 113.972 138 113.943 138 113.898V34.1019C138 34.0566 137.984 34.0283 137.968 34.0116C137.96 34.0039 137.955 34.0008 137.953 34C137.953 34 137.952 34 137.951 34ZM30.0487 32C28.9172 32 28 32.9411 28 34.1019V113.898C28 115.059 28.9172 116 30.0487 116H137.951C139.083 116 140 115.059 140 113.898V34.1019C140 32.9411 139.083 32 137.951 32H30.0487Z" fill="#333333"/>
<path d="M55 47H56V107H55V47Z" fill="#AAAAAA"/>
<path d="M138 34L138 41L30 41L30 34L138 34Z" fill="#F2F2F2"/>
<path opacity="0.3" d="M132 60.8773L132 61.8773L62 61.8773L62 60.8773L132 60.8773Z" fill="#C4C4C4"/>
<path opacity="0.99" d="M48 61L48 62L35 62L35 61L48 61Z" fill="#C4C4C4"/>
<path opacity="0.99" d="M48 73L48 74L35 74L35 73L48 73Z" fill="#C4C4C4"/>
<path opacity="0.99" d="M48 67L48 68L35 68L35 67L48 67Z" fill="#C4C4C4"/>
<path opacity="0.99" d="M48 79L48 80L35 80L35 79L48 79Z" fill="#C4C4C4"/>
<path opacity="0.99" d="M48 85L48 86L35 86L35 85L48 85Z" fill="#C4C4C4"/>
<path fill-rule="evenodd" clip-rule="evenodd" d="M131 50L131 49C131 48.4477 130.552 48 130 48L64 48C63.4477 48 63 48.4477 63 49L63 50C63 50.5523 63.4477 51 64 51L130 51C130.552 51 131 50.5523 131 50ZM132 49C132 47.8954 131.105 47 130 47L64 47C62.8954 47 62 47.8954 62 49L62 50C62 51.1046 62.8954 52 64 52L130 52C131.105 52 132 51.1046 132 50L132 49Z" fill="#CCCCCC"/>
<path d="M48 47C49.1046 47 50 47.8954 50 49L50 50C50 51.1046 49.1046 52 48 52L36 52C34.8954 52 34 51.1046 34 50L34 49C34 47.8954 34.8954 47 36 47L48 47Z" fill="#FF6F3D"/>
<path opacity="0.3" d="M132 76.8773L132 77.8773L62 77.8773L62 76.8773L132 76.8773Z" fill="#C4C4C4"/>
<path opacity="0.3" d="M132 92.8773L132 93.8773L62 93.8773L62 92.8773L132 92.8773Z" fill="#C4C4C4"/>
<path opacity="0.3" d="M132 68.8773L132 69.8773L62 69.8773L62 68.8773L132 68.8773Z" fill="#C4C4C4"/>
<path opacity="0.3" d="M132 84.8773L132 85.8773L62 85.8773L62 84.8773L132 84.8773Z" fill="#C4C4C4"/>
<path opacity="0.3" d="M132 100.877L132 101.877L62 101.877L62 100.877L132 100.877Z" fill="#C4C4C4"/>
<path d="M169 34.1019C169 32.9411 169.917 32 171.049 32H278.951C280.083 32 281 32.9411 281 34.1019V113.898C281 115.059 280.083 116 278.951 116H171.049C169.917 116 169 115.059 169 113.898V34.1019Z" fill="white"/>
<path fill-rule="evenodd" clip-rule="evenodd" d="M278.951 34H171.049C171.048 34 171.047 34 171.047 34C171.045 34.0008 171.04 34.0039 171.032 34.0116C171.016 34.0283 171 34.0566 171 34.1019V113.898C171 113.943 171.016 113.972 171.032 113.988C171.04 113.996 171.045 113.999 171.047 114C171.047 114 171.048 114 171.049 114H278.951C278.952 114 278.953 114 278.953 114C278.955 113.999 278.96 113.996 278.968 113.988C278.984 113.972 279 113.943 279 113.898V34.1019C279 34.0566 278.984 34.0283 278.968 34.0116C278.96 34.0039 278.955 34.0008 278.953 34C278.953 34 278.952 34 278.951 34ZM171.049 32C169.917 32 169 32.9411 169 34.1019V113.898C169 115.059 169.917 116 171.049 116H278.951C280.083 116 281 115.059 281 113.898V34.1019C281 32.9411 280.083 32 278.951 32H171.049Z" fill="#333333"/>
<path d="M196 47H197V107H196V47Z" fill="#AAAAAA"/>
<path d="M279 34L279 41L171 41L171 34L279 34Z" fill="#F2F2F2"/>
<path opacity="0.3" d="M273 60.8773L273 61.8773L203 61.8773L203 60.8773L273 60.8773Z" fill="#C4C4C4"/>
<path opacity="0.99" d="M189 61L189 62L176 62L176 61L189 61Z" fill="#C4C4C4"/>
<path opacity="0.99" d="M189 73L189 74L176 74L176 73L189 73Z" fill="#C4C4C4"/>
<path opacity="0.99" d="M189 67L189 68L176 68L176 67L189 67Z" fill="#C4C4C4"/>
<path opacity="0.99" d="M189 79L189 80L176 80L176 79L189 79Z" fill="#C4C4C4"/>
<path opacity="0.99" d="M189 85L189 86L176 86L176 85L189 85Z" fill="#C4C4C4"/>
<path fill-rule="evenodd" clip-rule="evenodd" d="M272 50L272 49C272 48.4477 271.552 48 271 48L205 48C204.448 48 204 48.4477 204 49L204 50C204 50.5523 204.448 51 205 51L271 51C271.552 51 272 50.5523 272 50ZM273 49C273 47.8954 272.105 47 271 47L205 47C203.895 47 203 47.8954 203 49L203 50C203 51.1046 203.895 52 205 52L271 52C272.105 52 273 51.1046 273 50L273 49Z" fill="#CCCCCC"/>
<path d="M189 47C190.105 47 191 47.8954 191 49L191 50C191 51.1046 190.105 52 189 52L177 52C175.895 52 175 51.1046 175 50L175 49C175 47.8954 175.895 47 177 47L189 47Z" fill="#FF6F3D"/>
<path opacity="0.3" d="M273 76.8773L273 77.8773L203 77.8773L203 76.8773L273 76.8773Z" fill="#C4C4C4"/>
<path opacity="0.3" d="M273 92.8773L273 93.8773L203 93.8773L203 92.8773L273 92.8773Z" fill="#C4C4C4"/>
<path opacity="0.3" d="M273 68.8773L273 69.8773L203 69.8773L203 68.8773L273 68.8773Z" fill="#C4C4C4"/>
<path opacity="0.3" d="M273 84.8773L273 85.8773L203 85.8773L203 84.8773L273 84.8773Z" fill="#C4C4C4"/>
<path opacity="0.3" d="M273 100.877L273 101.877L203 101.877L203 100.877L273 100.877Z" fill="#C4C4C4"/>
<path d="M310 34.1019C310 32.9411 310.917 32 312.049 32H419.951C421.083 32 422 32.9411 422 34.1019V113.898C422 115.059 421.083 116 419.951 116H312.049C310.917 116 310 115.059 310 113.898V34.1019Z" fill="white"/>
<path fill-rule="evenodd" clip-rule="evenodd" d="M419.951 34H312.049C312.048 34 312.047 34 312.047 34C312.045 34.0008 312.04 34.0039 312.032 34.0116C312.016 34.0283 312 34.0566 312 34.1019V113.898C312 113.943 312.016 113.972 312.032 113.988C312.04 113.996 312.045 113.999 312.047 114C312.047 114 312.048 114 312.049 114H419.951C419.952 114 419.953 114 419.953 114C419.955 113.999 419.96 113.996 419.968 113.988C419.984 113.972 420 113.943 420 113.898V34.1019C420 34.0566 419.984 34.0283 419.968 34.0116C419.96 34.0039 419.955 34.0008 419.953 34C419.953 34 419.952 34 419.951 34ZM312.049 32C310.917 32 310 32.9411 310 34.1019V113.898C310 115.059 310.917 116 312.049 116H419.951C421.083 116 422 115.059 422 113.898V34.1019C422 32.9411 421.083 32 419.951 32H312.049Z" fill="#333333"/>
<path d="M337 47H338V107H337V47Z" fill="#AAAAAA"/>
<path d="M420 34L420 41L312 41L312 34L420 34Z" fill="#F2F2F2"/>
<path opacity="0.3" d="M414 60.8773L414 61.8773L344 61.8773L344 60.8773L414 60.8773Z" fill="#C4C4C4"/>
<path opacity="0.99" d="M330 61L330 62L317 62L317 61L330 61Z" fill="#C4C4C4"/>
<path opacity="0.99" d="M330 73L330 74L317 74L317 73L330 73Z" fill="#C4C4C4"/>
<path opacity="0.99" d="M330 67L330 68L317 68L317 67L330 67Z" fill="#C4C4C4"/>
<path opacity="0.99" d="M330 79L330 80L317 80L317 79L330 79Z" fill="#C4C4C4"/>
<path opacity="0.99" d="M330 85L330 86L317 86L317 85L330 85Z" fill="#C4C4C4"/>
<path fill-rule="evenodd" clip-rule="evenodd" d="M413 50L413 49C413 48.4477 412.552 48 412 48L346 48C345.448 48 345 48.4477 345 49L345 50C345 50.5523 345.448 51 346 51L412 51C412.552 51 413 50.5523 413 50ZM414 49C414 47.8954 413.105 47 412 47L346 47C344.895 47 344 47.8954 344 49L344 50C344 51.1046 344.895 52 346 52L412 52C413.105 52 414 51.1046 414 50L414 49Z" fill="#CCCCCC"/>
<path d="M330 47C331.105 47 332 47.8954 332 49L332 50C332 51.1046 331.105 52 330 52L318 52C316.895 52 316 51.1046 316 50L316 49C316 47.8954 316.895 47 318 47L330 47Z" fill="#FF6F3D"/>
<path opacity="0.3" d="M414 76.8773L414 77.8773L344 77.8773L344 76.8773L414 76.8773Z" fill="#C4C4C4"/>
<path opacity="0.3" d="M414 92.8773L414 93.8773L344 93.8773L344 92.8773L414 92.8773Z" fill="#C4C4C4"/>
<path opacity="0.3" d="M414 68.8773L414 69.8773L344 69.8773L344 68.8773L414 68.8773Z" fill="#C4C4C4"/>
<path opacity="0.3" d="M414 84.8773L414 85.8773L344 85.8773L344 84.8773L414 84.8773Z" fill="#C4C4C4"/>
<path opacity="0.3" d="M414 100.877L414 101.877L344 101.877L344 100.877L414 100.877Z" fill="#C4C4C4"/>
<path fill-rule="evenodd" clip-rule="evenodd" d="M86 129.929V128H88V129.929H86ZM86 137.643V133.786H88V137.643H86ZM86 145.357V141.5H88V145.357H86ZM86 153.071V149.214H88V153.071H86ZM86 160.786V156.929H88V160.786H86ZM86 168.5V164.643H88V168.5H86ZM86 176.214V172.357H88V176.214H86ZM86 183.929V180.071H88V183.929H86ZM86 191.643V187.786H88V191.643H86ZM86 199.357V195.5H88V199.357H86ZM86 207.071V203.214H88V207.071H86ZM86 214.786V210.929H88V214.786H86ZM86 222.5V218.643H88V222.5H86ZM86 230.214V226.357H88V230.214H86ZM86 236V234.071H88V235H89.0833V237H87C86.4477 237 86 236.552 86 236ZM97.4167 237H93.25V235H97.4167V237ZM105.75 237H101.583V235H105.75V237ZM114.083 237H109.917V235H114.083V237ZM122.417 237H118.25V235H122.417V237ZM130.75 237H126.583V235H130.75V237ZM139.083 237H134.917V235H139.083V237ZM147.417 237H143.25V235H147.417V237ZM155.75 237H151.583V235H155.75V237ZM162 237H159.917V235H162V237Z" fill="#CCCCCC"/>
<path fill-rule="evenodd" clip-rule="evenodd" d="M227 128L227 130.083L225 130.083L225 128L227 128ZM227 134.25L227 138.417L225 138.417L225 134.25L227 134.25ZM227 142.583L227 146.75L225 146.75L225 142.583L227 142.583ZM227 150.917L227 155.083L225 155.083L225 150.917L227 150.917ZM227 159.25L227 163.417L225 163.417L225 159.25L227 159.25ZM227 167.583L227 171.75L225 171.75L225 167.583L227 167.583ZM227 175.917L227 178L225 178L225 175.917L227 175.917Z" fill="#CCCCCC"/>
<path fill-rule="evenodd" clip-rule="evenodd" d="M369.288 129.929V128H367.288V129.929H369.288ZM369.288 137.643V133.786H367.288V137.643H369.288ZM369.288 145.357V141.5H367.288V145.357H369.288ZM369.288 153.071V149.214H367.288V153.071H369.288ZM369.288 160.786V156.929H367.288V160.786H369.288ZM369.288 168.5V164.643H367.288V168.5H369.288ZM369.288 176.214V172.357H367.288V176.214H369.288ZM369.288 183.929V180.071H367.288V183.929H369.288ZM369.288 191.643V187.786H367.288V191.643H369.288ZM369.288 199.357V195.5H367.288V199.357H369.288ZM369.288 207.071V203.214H367.288V207.071H369.288ZM369.288 214.786V210.929H367.288V214.786H369.288ZM369.288 222.5V218.643H367.288V222.5H369.288ZM369.288 230.214V226.357H367.288V230.214H369.288ZM369.288 236V234.071H367.288V235H366.204V237H368.288C368.84 237 369.288 236.552 369.288 236ZM357.871 237H362.038V235H357.871V237ZM349.538 237H353.704V235H349.538V237ZM341.204 237H345.371V235H341.204V237ZM332.871 237H337.038V235H332.871V237ZM324.538 237H328.704V235H324.538V237ZM316.204 237H320.371V235H316.204V237ZM307.871 237H312.038V235H307.871V237ZM299.538 237H303.704V235H299.538V237ZM293.288 237H295.371V235H293.288V237Z" fill="#CCCCCC"/>
<path d="M229 214H255V273H229V214Z" fill="#F5F5F5"/>
<path fill-rule="evenodd" clip-rule="evenodd" d="M253 216H231V271H253V216ZM229 214V273H255V214H229Z" fill="#808080"/>
<path fill-rule="evenodd" clip-rule="evenodd" d="M250 222V220H230V222L250 222ZM250 227V225L230 225V227L250 227ZM250 240V242H230V240H250ZM250 247V245H230V247H250ZM250 250V252H230V250H250ZM250 257V255H230V257H250ZM250 260V262H230V260H250ZM250 267V265H230V267H250ZM250 230V232L230 232V230L250 230ZM250 237V235L230 235V237H250Z" fill="#808080"/>
<path fill-rule="evenodd" clip-rule="evenodd" d="M250 240V242H230V240H250ZM250 250V252H230V250H250ZM250 260V262H230V260H250ZM250 230V232L230 232V230L250 230ZM250 222L230 222V220H250V222ZM250 227L230 227V225L250 225V227ZM250 247H230V245H250V247ZM250 257H230V255H250V257ZM250 267H230V265H250V267ZM250 237H230V235L250 235V237Z" fill="#808080"/>
<path d="M250 230L250 232L230 232L230 230L250 230Z" fill="#808080"/>
<path fill-rule="evenodd" clip-rule="evenodd" d="M250 230L230 230L230 232L250 232L250 230Z" fill="#808080"/>
<path d="M250 235L250 237L230 237L230 235L250 235Z" fill="#808080"/>
<path fill-rule="evenodd" clip-rule="evenodd" d="M250 235L230 235L230 237L250 237L250 235Z" fill="#808080"/>
<path fill-rule="evenodd" clip-rule="evenodd" d="M229 210H203V271H229V210ZM201 208V273H231V208H201Z" fill="#808080"/>
<path d="M253 236H272V273H253V236Z" fill="#F5F5F5"/>
<path fill-rule="evenodd" clip-rule="evenodd" d="M270 238H255V271H270V238ZM253 236V273H272V236H253Z" fill="#808080"/>
<path d="M259 244H261V266H259V244Z" fill="#808080"/>
<path fill-rule="evenodd" clip-rule="evenodd" d="M259 244V266H261V244H259Z" fill="#808080"/>
<path d="M264 244H266V266H264V244Z" fill="#808080"/>
<path fill-rule="evenodd" clip-rule="evenodd" d="M264 244V266H266V244H264Z" fill="#808080"/>
<path fill-rule="evenodd" clip-rule="evenodd" d="M207 214H209V218.035H207V214ZM207 219H209V223H207V219ZM209 224H207V227H209V224Z" fill="#808080"/>
<path fill-rule="evenodd" clip-rule="evenodd" d="M215 214H217V218H215V214ZM215 229H217V233H215V229ZM217 244H215V248H217V244ZM215 219H217V223H215V219ZM217 234H215V238H217V234ZM215 249H217V253H215V249ZM217 259H215V263H217V259ZM215 224H217V228H215V224ZM217 239H215V243H217V239ZM215 254H217V258H215V254ZM217 264H215V268H217V264Z" fill="#808080"/>
<path fill-rule="evenodd" clip-rule="evenodd" d="M223 214H225V218H223V214ZM223 229H225V233H223V229ZM225 244H223V248H225V244ZM223 219H225V223H223V219ZM225 234H223V238H225V234ZM223 249H225V253H223V249ZM225 259H223V263H225V259ZM223 224H225V228H223V224ZM225 239H223V243H225V239ZM223 254H225V258H223V254ZM225 264H223V268H225V264Z" fill="#808080"/>
<path fill-rule="evenodd" clip-rule="evenodd" d="M219 217H221V221H219V217ZM219 227H221V231H219V227ZM221 257H219V261H221V257ZM221 262H219V266H221V262ZM221 242H219V246H221V242ZM221 232H219V236H221V232ZM219 247H221V251H219V247ZM221 222H219V226H221V222ZM219 237H221V241H219V237ZM221 252H219V256H221V252Z" fill="#808080"/>
<path fill-rule="evenodd" clip-rule="evenodd" d="M211 217H213V221H211V217ZM211 227H213V231H211V227ZM211 257H213V259H211V257ZM213 242H211V246H213V242ZM213 232H211V236H213V232ZM211 247H213V251H211V247ZM213 222H211V226H213V222ZM211 237H213V241H211V237ZM213 252H211V256H213V252Z" fill="#808080"/>
<path d="M208 201H224V210H208V201Z" fill="white"/>
<path fill-rule="evenodd" clip-rule="evenodd" d="M222 203H210V208H222V203ZM208 201V210H224V201H208Z" fill="#808080"/>
<path d="M257 229H267V238H257V229Z" fill="white"/>
<path fill-rule="evenodd" clip-rule="evenodd" d="M265 231H259V236H265V231ZM257 229V238H267V229H257Z" fill="#808080"/>
<path d="M215 192H217V201H215V192Z" fill="#808080"/>
<path fill-rule="evenodd" clip-rule="evenodd" d="M215 192V201H217V192H215Z" fill="#808080"/>
<path d="M184 227H213V273H184V227Z" fill="#F5F5F5"/>
<path fill-rule="evenodd" clip-rule="evenodd" d="M211 229H186V271H211V229ZM184 227V273H213V227H184Z" fill="#808080"/>
<path d="M190 234H192V267H190V234Z" fill="#808080"/>
<path fill-rule="evenodd" clip-rule="evenodd" d="M190 234V267H192V234H190Z" fill="#808080"/>
<path d="M200 234H202V267H200V234Z" fill="#808080"/>
<path fill-rule="evenodd" clip-rule="evenodd" d="M200 234V267H202V234H200Z" fill="#808080"/>
<path d="M195 234H197V267H195V234Z" fill="#808080"/>
<path fill-rule="evenodd" clip-rule="evenodd" d="M195 234V267H197V234H195Z" fill="#808080"/>
<path d="M205 234H207V267H205V234Z" fill="#808080"/>
<path fill-rule="evenodd" clip-rule="evenodd" d="M205 234V267H207V234H205Z" fill="#808080"/>
</svg>
