<svg width="544" height="477" viewBox="0 0 544 477" fill="none" xmlns="http://www.w3.org/2000/svg">
<path d="M312.123 344.755H203.464V364.652C203.464 370.844 199.641 376.4 193.862 378.602H321.937C315.968 375.863 312.134 369.905 312.134 363.333V344.755H312.123Z" fill="white" stroke="#CCCCCC" stroke-width="2" stroke-miterlimit="10" stroke-linecap="round" stroke-linejoin="round"/>
<path d="M419.375 345.157H96.2126C89.0365 345.157 83.2128 339.345 83.2128 332.158V113.43C83.2128 106.254 89.0253 100.43 96.2126 100.43H419.363C426.54 100.43 432.363 106.243 432.363 113.43V332.169C432.363 339.345 426.551 345.157 419.375 345.157Z" fill="white" stroke="#CCCCCC" stroke-width="2" stroke-miterlimit="10" stroke-linecap="round" stroke-linejoin="round"/>
<path d="M323.055 378.2H192.532V384.728H323.055V378.2Z" fill="white" stroke="#CCCCCC" stroke-width="2" stroke-miterlimit="10" stroke-linecap="round" stroke-linejoin="round"/>
<path d="M421 110.004H94V312.004H421V110.004Z" stroke="#CCCCCC" stroke-width="2" stroke-miterlimit="10"/>
<path d="M257.9 333.331C261.505 333.331 264.427 330.408 264.427 326.803C264.427 323.198 261.505 320.276 257.9 320.276C254.295 320.276 251.372 323.198 251.372 326.803C251.372 330.408 254.295 333.331 257.9 333.331Z" stroke="#CCCCCC" stroke-miterlimit="10" stroke-linecap="round" stroke-linejoin="round"/>
<path d="M371.254 312.004H144.344V52.2272C144.344 48.5273 147.351 45.5205 151.051 45.5205H364.547C368.247 45.5205 371.254 48.5273 371.254 52.2272V312.004Z" fill="white" stroke="#CCCCCC" stroke-width="2" stroke-miterlimit="10"/>
<rect x="161" y="85.0583" width="191" height="5" rx="2.5" fill="#F1F1F1"/>
<rect x="209" y="65.0044" width="97" height="6" rx="3" fill="#E0E0E0"/>
<rect x="161" y="100.821" width="191" height="5" rx="2.5" fill="#F1F1F1"/>
<rect x="161" y="116.583" width="191" height="5" rx="2.5" fill="#F1F1F1"/>
<rect x="161" y="132.345" width="191" height="5" rx="2.5" fill="#F1F1F1"/>
<rect x="161" y="244.027" width="191" height="5" rx="2.5" fill="#F1F1F1"/>
<rect x="161" y="260.161" width="191" height="5" rx="2.5" fill="#F1F1F1"/>
<rect x="161" y="275.027" width="191" height="5" rx="2.5" fill="#F1F1F1"/>
<rect x="161" y="291.161" width="191" height="5" rx="2.5" fill="#F1F1F1"/>
<rect x="162" y="152.004" width="99" height="77" rx="3" fill="#F5F5F5"/>
<path d="M188.702 194.613C189.465 193.995 190.563 194.023 191.294 194.678L205.695 207.579C206.484 208.285 207.686 208.255 208.437 207.51L237.427 178.787C238.224 177.997 239.516 178.018 240.287 178.834L259.609 199.261C259.96 199.632 260.156 200.124 260.156 200.635V226.03C260.156 227.135 259.261 228.03 258.156 228.03H164.972C163.867 228.03 162.972 227.135 162.972 226.03V216.388C162.972 215.785 163.245 215.213 163.714 214.834L188.702 194.613Z" fill="#E0E0E0"/>
<ellipse cx="190.205" cy="170.551" rx="8.76753" ry="8.79999" fill="#E0E0E0"/>
<rect x="272" y="151.442" width="37" height="36" rx="3" fill="#EFEFEF"/>
<rect x="272" y="192.93" width="37" height="36" rx="3" fill="#E2E2E2"/>
<rect x="314.731" y="151.442" width="36.8782" height="35.7257" rx="3" fill="#E2E2E2"/>
<rect x="315.884" y="190.93" width="35.7257" height="35.7257" rx="3" fill="#EFEFEF"/>
<path d="M290.615 173.884C289.888 173.784 289.173 173.761 288.469 173.828C284.445 174.164 281.102 170.81 281.673 166.82L283.472 154.122C283.953 150.735 287.083 148.388 290.469 148.868L303.067 150.657C306.912 151.205 310.411 148.108 310.109 144.241C310.053 143.548 310.075 142.844 310.176 142.139C311.059 135.88 317.9 131.677 325.456 132.739C333.001 133.812 338.411 139.747 337.517 146.007C337.416 146.711 337.237 147.393 336.992 148.041C335.628 151.674 338.132 155.62 341.977 156.156L354.574 157.945C357.961 158.425 360.309 161.555 359.828 164.942L358.039 177.539C357.492 181.373 360.588 184.883 364.455 184.582C365.148 184.526 365.842 184.548 366.546 184.649C372.805 185.532 377.008 192.372 375.946 199.929C374.873 207.474 368.938 212.884 362.678 211.99C361.974 211.889 361.303 211.71 360.655 211.475C357.022 210.112 353.088 212.615 352.54 216.461L350.751 229.058C350.271 232.445 347.141 234.792 343.754 234.312L331 232.501C326.987 231.931 323.589 235.306 324.003 239.342C324.081 240.102 324.07 240.884 323.958 241.667C323.075 247.926 316.234 252.129 308.678 251.067C301.133 249.994 295.723 244.059 296.617 237.799C296.729 237.017 296.93 236.268 297.221 235.552C298.741 231.785 296.416 227.605 292.403 227.035L279.649 225.224C276.262 224.743 273.915 221.614 274.396 218.227L276.173 205.674C276.732 201.728 280.823 199.146 284.523 200.633C285.227 200.924 285.976 201.125 286.758 201.236C293.018 202.12 298.965 196.721 300.027 189.176C301.088 181.619 296.874 174.779 290.615 173.884Z" fill="#9ADAF3" stroke="#333333" stroke-width="2" stroke-miterlimit="10" stroke-linecap="round" stroke-linejoin="round"/>
<path fill-rule="evenodd" clip-rule="evenodd" d="M389.304 459.844C389.304 464.293 399.051 465.098 407.635 465.098C416.22 465.087 424.961 464.315 424.95 459.866C424.95 455.418 423.676 448.107 415.091 448.107C406.506 448.107 389.304 455.395 389.304 459.844Z" fill="white" stroke="#333333" stroke-width="1.5" stroke-miterlimit="10" stroke-linecap="round" stroke-linejoin="round"/>
<path fill-rule="evenodd" clip-rule="evenodd" d="M476.871 444.071C481.197 445.089 484.226 435.789 486.193 427.428C488.16 419.067 489.412 410.393 485.086 409.375C480.761 408.358 473.35 407.911 471.382 416.272C469.415 424.622 472.545 443.043 476.871 444.071Z" fill="white" stroke="#333333" stroke-width="1.5" stroke-miterlimit="10" stroke-linecap="round" stroke-linejoin="round"/>
<path d="M453.029 155.403C453.118 153.291 450.301 151.659 447.484 150.876C444.656 150.105 441.515 149.815 438.989 148.63C436.754 147.579 435.256 145.947 433.367 144.617C428.728 141.342 421.496 139.989 415.125 141.196C408.753 142.404 403.511 146.137 401.901 150.597C400.817 153.615 401.555 157.17 404.964 159.17C408.921 161.495 414.789 160.981 419.864 160.255C424.939 159.528 430.673 158.824 434.909 160.892C437.458 162.144 438.922 164.178 440.487 166.056C442.052 167.934 444.008 169.856 446.959 170.572C449.91 171.276 453.923 170.058 454.035 167.889" fill="#333333"/>
<path d="M452.827 156.567C452.492 158.344 454.336 159.931 456.169 161.183C458.003 162.435 460.07 163.765 460.395 165.532C460.775 167.599 458.606 169.645 459.232 171.69C459.635 172.987 461.076 173.982 461.96 175.167C463.189 176.821 463.256 178.822 462.496 180.599C461.736 182.388 460.54 186.367 458.751 187.764C453.822 191.598 445.975 194.918 438.766 196.069C431.556 197.221 424.078 197.232 416.701 196.908C410.664 196.651 403.712 196.841 398.682 191.05C396.077 188.055 394.781 184.064 393.395 180.7C392.199 177.794 391.17 174.697 392.411 171.802C393.138 170.114 394.591 168.617 395.306 166.929C396.2 164.827 395.876 162.569 396.234 160.39C397.005 155.661 401.219 151.28 407.188 148.966C413.157 146.663 420.736 146.496 426.895 148.53" fill="#333333"/>
<path d="M438.363 180.052H418.992V211.629H438.363V180.052Z" fill="white" stroke="#333333" stroke-width="1.5" stroke-miterlimit="10" stroke-linecap="round" stroke-linejoin="round"/>
<path d="M442.376 171.545C443.818 183.494 433.613 194.941 424.223 196.081C414.823 197.21 409.804 187.608 408.351 175.659C406.898 163.71 413.358 153.091 422.748 151.962C432.137 150.822 440.934 159.585 442.376 171.545Z" fill="white" stroke="#333333" stroke-width="1.5" stroke-miterlimit="10" stroke-linecap="round" stroke-linejoin="round"/>
<path d="M410.307 149.021C409.189 154.241 412.33 160.031 417.304 161.965C417.416 160.769 417.539 159.562 417.651 158.366C419.126 161.093 422.468 162.077 425.43 162.971C428.393 163.865 431.701 165.318 432.562 168.303C433.221 170.605 432.159 173.109 432.64 175.456C432.897 176.731 433.601 177.882 433.937 179.134C434.429 180.978 434.127 182.946 434.473 184.823C434.82 186.701 436.251 188.669 438.162 188.523C439.369 188.434 440.375 187.473 440.878 186.377C441.381 185.271 441.471 184.041 441.549 182.834C441.873 177.904 442.097 172.964 441.929 168.023C441.784 163.742 441.247 159.215 438.631 155.817C435.77 152.095 430.963 150.452 426.347 149.58C421.731 148.708 416.924 148.373 412.643 146.45" fill="#333333"/>
<path d="M364.88 198.897C364.88 198.897 363.595 192.469 363.494 190.401C363.405 188.345 359.381 184.421 359.381 184.421L359.269 187.853L359.638 188.848C359.638 188.848 359.325 190.513 358.33 190.2C357.346 189.887 347.074 183.069 347.074 183.069C344.872 181.616 344.168 183.002 344.168 183.002C344.168 183.002 342.692 181.951 341.899 182.89C341.384 183.493 342.379 185.103 342.379 185.103C342.379 185.103 340.982 183.717 339.831 184.544C338.668 185.371 341.139 188.043 341.139 188.043C340.367 189.854 345.04 195.085 346.247 196.527C347.454 197.969 360.051 208.085 360.051 208.085L367.116 201.847L364.88 198.897Z" fill="white" stroke="#333333" stroke-width="1.5" stroke-miterlimit="10" stroke-linecap="round" stroke-linejoin="round"/>
<path d="M433.59 301.442C433.59 301.442 437.86 317.024 437.022 322.299C436.742 324.077 435.423 329.543 434.507 333.757C432.92 341.078 432.439 346.768 432.014 348.601L435.435 364.999L479.386 406.133L469.963 423.47L425.43 395.212L423.866 407.463C423.866 407.463 424.268 435.956 423.15 449.827L401.409 449.067L397.676 377.183L391.662 302.604L433.59 301.442Z" fill="#CCCCCC" stroke="#333333" stroke-width="2" stroke-miterlimit="10" stroke-linecap="round" stroke-linejoin="round"/>
<path d="M441.482 209.068L441.627 204.026L416.991 203.669L416.723 208.665C416.723 208.665 403.198 225.723 398.827 240.41C398.38 241.897 397.911 244.289 397.419 247.296L391.036 306.024L439.582 323.931C439.582 323.931 445.092 314.53 445.774 309.411C446.747 302 439.917 284.999 437.704 279.734C437.715 279.734 437.681 279.656 437.625 279.499C437.547 279.298 437.469 279.085 437.368 278.851C437.279 278.616 437.167 278.325 437.044 278.012L446.724 230.171C449.519 218.166 441.482 209.068 441.482 209.068Z" fill="url(#paint0_linear_17_1497)" stroke="#333333" stroke-width="2"/>
<path d="M438.363 239.069L394.68 246.201C392.154 246.614 389.583 245.698 387.884 243.764L355.189 206.587L367.429 198.393L392.098 224.784L427.409 216.747" fill="url(#paint1_linear_17_1497)"/>
<path d="M438.363 239.069L394.68 246.201C392.154 246.614 389.583 245.698 387.884 243.764L355.189 206.587L367.429 198.393L392.098 224.784L427.409 216.747" stroke="#333333" stroke-width="2"/>
<path d="M424.961 398.912C427.521 380.402 430.595 358.907 433.165 340.396L424.961 398.912Z" fill="#9ADAF3"/>
<path d="M424.961 398.912C427.521 380.402 430.595 358.907 433.165 340.396" stroke="#333333" stroke-width="2" stroke-miterlimit="10" stroke-linecap="round" stroke-linejoin="round"/>
<path d="M416.384 184.636C418.225 184.972 420.164 184.72 421.851 183.924C422.409 185.112 422.158 186.635 421.238 187.571C420.317 188.508 418.811 188.801 417.612 188.27" stroke="#333333" stroke-width="1.5" stroke-miterlimit="10" stroke-linecap="round" stroke-linejoin="round"/>
<path d="M416.803 175.857C416.961 176.906 416.584 177.989 415.757 178.861C415.526 179.099 415.258 179.345 415.234 179.636C415.185 180.182 416.109 180.561 416.852 180.446C417.594 180.332 418.166 179.918 418.689 179.522" stroke="#333333" stroke-width="1.5" stroke-miterlimit="10" stroke-linecap="round" stroke-linejoin="round"/>
<path d="M412.235 172.614C411.9 172.357 411.721 171.91 411.788 171.497C411.867 171.061 412.224 170.692 412.649 170.625C413.085 170.558 413.554 170.826 413.677 171.251C413.789 171.609 413.621 172.022 413.308 172.212C412.995 172.402 412.537 172.312 412.314 172.011C412.101 171.709 412.157 171.24 412.459 171.016C412.649 170.983 412.85 170.938 413.04 170.905" stroke="#333333" stroke-width="1.5" stroke-miterlimit="10" stroke-linecap="round" stroke-linejoin="round"/>
<path d="M419.915 171.564C419.87 171.129 420.015 170.648 420.35 170.358C420.686 170.067 421.211 170 421.58 170.246C421.948 170.492 422.049 171.073 421.758 171.408C421.468 171.743 420.82 171.654 420.663 171.24C420.518 170.827 421.043 170.335 421.423 170.559" stroke="#333333" stroke-width="1.5" stroke-miterlimit="10" stroke-linecap="round" stroke-linejoin="round"/>
<path fill-rule="evenodd" clip-rule="evenodd" d="M117.499 456.793C115.666 461.007 106.109 457.754 97.9827 454.199C89.8565 450.645 81.909 446.319 83.7422 442.105C85.5753 437.891 89.7894 431.497 97.9157 435.041C106.053 438.595 119.344 452.59 117.499 456.793Z" fill="white" stroke="#333333" stroke-width="1.5" stroke-miterlimit="10" stroke-linecap="round" stroke-linejoin="round"/>
<path fill-rule="evenodd" clip-rule="evenodd" d="M108.859 454.456C109.026 459.05 99.0111 460.257 90.1471 460.581C81.2831 460.906 72.2403 460.447 72.0726 455.864C71.9049 451.27 72.9221 443.68 81.7861 443.356C90.6501 443.032 108.691 449.862 108.859 454.456Z" fill="white" stroke="#333333" stroke-width="1.5" stroke-miterlimit="10" stroke-linecap="round" stroke-linejoin="round"/>
<path d="M62.9069 150.487L109.954 151.582C110.223 170.953 116.057 186.613 122.954 202.754C124.709 206.856 126.933 210.746 128.275 215.016C129.616 219.297 129.974 224.182 128.018 228.172C124.027 227.2 115.476 229 111.475 228.016C111.441 226.708 111.407 225.389 111.374 224.081C111.117 225.792 109.865 227.345 108.356 228.117C106.411 229.111 104.175 229.089 102.029 229.022C89.5771 228.597 77.1698 226.798 65.0642 223.645C63.4546 223.221 53.8081 225.546 53.8081 225.546C48.4875 205.917 55.9319 171.948 62.9069 150.487Z" fill="#333333"/>
<path d="M129.393 282.059C129.393 282.059 140.861 332.035 143.264 350.937C144.941 364.104 141.632 372.767 141.241 375.394C141.107 376.277 140.816 377.138 140.38 377.92L106.512 438.258L87.0735 431.518C87.0735 431.518 103.404 382.213 106.97 374.276L110.983 367.134L79.2043 286.642L129.393 282.059Z" fill="#444444" stroke="#333333" stroke-width="2.5" stroke-miterlimit="10" stroke-linecap="round" stroke-linejoin="round"/>
<path d="M107.998 282.944C108.378 284.531 90.4937 377.564 90.4937 377.564L92.7963 444.218L73.9952 444.754C73.9952 444.754 64.3711 408.437 64.0023 387.021C63.6334 365.604 65.9248 361.938 64.2594 348.558C62.5044 334.451 51.7514 305.4 56.6249 285.705C60.7048 269.229 71.212 261.304 71.212 261.304L107.998 282.944Z" fill="#808080" stroke="#333333" stroke-width="2.5" stroke-miterlimit="10" stroke-linecap="round" stroke-linejoin="round"/>
<path d="M150.999 189.34H116.638L102.23 188.021L84.7146 186.735L67.6125 189.206C67.6125 189.206 66.9866 201.859 67.5008 214.065L68.1156 250.751L58.7485 279.478C60.8835 286.408 132.187 291.963 131.561 283.468C130.711 279.433 122.686 252.372 122.686 252.372L124.005 240.188C127.772 232.52 125.994 224.651 124.452 217.508L150.407 211.595L150.999 189.34Z" fill="#9ADAF3" stroke="#333333" stroke-width="2" stroke-miterlimit="10" stroke-linecap="round" stroke-linejoin="round"/>
<path d="M235.222 219.543C234.462 219.588 233.725 219.554 232.998 219.431C229.175 218.794 225.721 221.712 225.967 225.579L226.85 239.507C227.051 242.748 224.592 245.554 221.351 245.755L207.423 246.638C203.556 246.884 201.108 250.685 202.226 254.396C202.438 255.1 202.572 255.838 202.617 256.586C203.03 263.025 197.061 268.647 189.293 269.15C181.524 269.642 174.896 264.825 174.482 258.386C174.437 257.626 174.471 256.888 174.594 256.162C175.231 252.339 172.314 248.885 168.446 249.131L154.519 250.014C151.277 250.215 148.471 247.756 148.27 244.514L144.011 177.682C143.81 174.441 146.269 171.635 149.511 171.434L163.439 170.551C167.306 170.305 169.754 166.504 168.636 162.793C168.424 162.089 168.29 161.351 168.245 160.603C167.831 154.164 173.8 148.542 181.569 148.039C189.338 147.547 195.966 152.365 196.38 158.803C196.424 159.563 196.391 160.301 196.268 161.027C195.631 164.85 198.548 168.304 202.416 168.058L216.343 167.175C219.585 166.974 222.39 169.433 222.592 172.675L223.475 186.602C223.721 190.47 227.521 192.918 231.232 191.8C231.936 191.587 232.674 191.453 233.423 191.409C239.861 190.995 245.484 196.964 245.987 204.733C246.479 212.501 241.661 219.13 235.222 219.543Z" fill="url(#paint2_linear_17_1497)" stroke="#333333" stroke-width="2" stroke-miterlimit="10" stroke-linecap="round" stroke-linejoin="round"/>
<path d="M164.726 235.148C164.29 233.751 162.289 234.019 162.289 234.019C162.289 234.019 164.111 233.326 164.066 232.521C163.999 231.258 162.144 231.202 162.144 231.202C162.144 231.202 162.445 229.637 159.74 229.447C159.74 229.447 147.121 228.609 146.126 228.251C145.131 227.894 146.103 225.736 146.103 225.736C146.103 225.736 148.987 222.484 149.133 222.025C149.613 220.505 148.786 220.002 148.786 220.002C148.786 220.002 143.141 223.59 141.778 225.211C140.414 226.832 135.361 231.269 135.361 231.269L131.684 232.275L133.562 241.765C133.562 241.765 150.139 241.363 152.016 240.938C153.905 240.514 160.97 239.172 161.462 237.205C161.473 237.183 165.15 236.545 164.726 235.148Z" fill="white" stroke="#333333" stroke-width="1.5" stroke-miterlimit="10" stroke-linecap="round" stroke-linejoin="round"/>
<path d="M67.5792 188.58C67.5792 188.58 57.8321 194.336 56.8597 204.318C55.9095 213.853 57.9551 245.374 68.2722 254.763C70.6419 256.921 86.7827 256.507 102.096 253.4C118.93 249.991 134.937 243.742 134.937 243.742V229.267L86.1679 232.866L67.5792 188.58Z" fill="#9ADAF3" stroke="#333333" stroke-width="2" stroke-miterlimit="10" stroke-linecap="round" stroke-linejoin="round"/>
<path d="M98.3852 191.967C95.8255 196.617 90.203 198.629 85.2624 196.684L79.9641 194.583V162.212H98.3852V191.967Z" fill="white" stroke="#333333" stroke-width="1.5" stroke-miterlimit="10" stroke-linecap="round" stroke-linejoin="round"/>
<path d="M107.171 203.559C107.328 201.189 105.785 199.099 104.656 197.02C102.543 193.13 101.716 188.558 102.331 184.177L117.399 188.916C116.382 190.313 115.7 193.745 116.393 195.902C117.075 198.059 118.248 200.15 118.17 202.408C118.047 205.783 115.186 208.432 114.258 211.685C113.241 215.262 114.683 219.029 116.102 222.461C113.162 223.277 110.033 223.399 107.026 222.818C105.137 218.504 103.236 213.63 104.913 209.237C105.64 207.326 107.037 205.604 107.171 203.559Z" fill="#333333"/>
<path d="M63.0858 151.481C64.9748 144.573 66.9086 137.386 73.5482 133.194C79.4725 129.461 86.0897 128.555 93.4112 129.025C97.0216 129.259 101.034 130.802 104.131 132.423C108.367 134.647 110.033 138.962 111.966 142.885C115.845 150.754 114.917 161.25 111.989 164.09L73.6824 180.141C67.1322 176.966 62.7281 175.446 61.1967 169.108C60.1684 164.805 61.9121 155.762 63.0858 151.481Z" fill="#333333"/>
<path d="M107.942 157.954C107.328 169.154 103.091 179.907 94.2384 179.907C85.3855 179.907 75.8844 169.166 75.8844 157.954C75.8844 146.743 83.0717 137.655 91.9134 137.655C100.755 137.655 108.758 142.987 107.942 157.954Z" fill="white" stroke="#333333" stroke-width="1.5" stroke-miterlimit="10" stroke-linecap="round" stroke-linejoin="round"/>
<path d="M97.8039 136.424C98.2287 140.124 97.5915 143.947 96.0155 147.311C95.5683 148.25 95.043 149.178 94.2494 149.86C93.4669 150.542 92.3715 150.944 91.3655 150.698C92.9751 148.709 93.9476 146.205 94.0929 143.656C92.9304 146.227 91.7232 148.854 89.8229 150.933C87.9115 153.012 85.1394 154.51 82.3338 154.186L82.5797 152.308C82.1326 153.649 81.4172 154.968 80.2547 155.751C79.0811 156.544 77.382 156.656 76.3201 155.728C77.3932 151.157 74.7217 146.104 76.6108 141.801C77.9186 138.827 81.0931 137.117 84.2117 136.223C88.6046 134.971 93.3328 134.915 97.7592 136.055" fill="#333333"/>
<path d="M97.4127 136.491C97.4242 136.56 97.4356 136.629 97.447 136.697L97.4127 136.709C97.4242 136.64 97.4242 136.56 97.4127 136.491Z" fill="#333333"/>
<path d="M97.4576 136.693L98.0165 136.48C99.7714 135.631 100.934 134.647 103.561 137.106C104.98 138.437 106.232 140.404 107.115 142.405C107.898 144.182 108.747 146.127 108.993 148.061C109.317 150.587 109.351 152.431 108.993 155.103C107.462 154.03 106.724 152.163 106.266 150.352C105.819 148.541 105.573 146.641 104.712 144.987C104.936 146.529 105.159 148.105 104.857 149.637C104.779 150.05 104.645 150.497 104.321 150.777C103.997 151.056 103.438 151.09 103.181 150.743C103.795 148.988 103.74 147.043 103.326 145.221C102.912 143.399 102.152 141.689 101.392 139.979C101.728 143.086 101.515 146.261 100.789 149.301C100.688 149.737 100.554 150.196 100.23 150.509C99.7491 150.978 98.9778 150.967 98.3183 150.855C97.6588 150.732 96.977 150.542 96.3286 150.71C97.9606 146.25 98.3518 141.354 97.4576 136.693Z" fill="#333333"/>
<path d="M80.3106 171.6C81.3389 176.283 86.1118 180.419 86.0224 185.158C85.9218 189.965 80.7577 194.358 81.6407 199.119C82.1884 202.059 84.927 204.518 87.0396 207.078C91.8125 212.879 93.5563 219.888 91.8684 226.494C84.7593 226.483 77.6502 226.471 70.5411 226.46C71.1447 221.296 69.8369 216.031 66.7854 211.326C64.8293 208.307 62.1354 205.424 61.666 202.126C61.23 199.097 62.739 196.112 63.2532 193.094C64.3822 186.388 60.9841 179.323 59.7769 172.851C58.5697 166.357 59.6092 159.371 62.7614 153.659C64.1251 151.189 65.9023 148.909 68.205 147.444C70.5076 145.98 73.3915 145.399 75.9288 146.338C79.4051 147.623 82.3226 152.988 82.3226 156.845C82.3114 161.841 79.2151 166.547 80.3106 171.6Z" fill="#333333"/>
<path d="M97.1668 165.397C97.6361 165.542 98.1278 165.687 98.6194 165.665C99.1111 165.643 99.6251 165.408 99.8598 164.972C100.24 164.257 99.7368 163.419 99.2564 162.771" stroke="#333333" stroke-linecap="round" stroke-linejoin="round"/>
<path d="M90.639 158.321C90.7954 158.008 90.9631 157.684 91.1419 157.382C91.1866 157.315 91.2313 157.236 91.2761 157.169C91.3655 157.024 91.2425 157.214 91.2313 157.225C91.2537 157.192 91.2761 157.158 91.3096 157.125C91.4214 156.979 91.5443 156.845 91.6784 156.711C91.7343 156.655 91.8125 156.611 91.8573 156.555C91.8461 156.566 91.6561 156.689 91.7902 156.599C91.8237 156.577 91.8573 156.555 91.8908 156.532C91.9578 156.488 92.0249 156.454 92.092 156.421C92.1143 156.409 92.159 156.398 92.1814 156.387C92.1367 156.421 91.9355 156.454 92.1032 156.421C92.1702 156.409 92.2485 156.387 92.3155 156.376C92.3379 156.376 92.3938 156.353 92.4161 156.365C92.4161 156.365 92.1367 156.365 92.3043 156.376C92.3714 156.376 92.4385 156.376 92.5055 156.387C92.5391 156.387 92.5726 156.398 92.6061 156.398C92.7738 156.409 92.3938 156.342 92.5055 156.376C92.5726 156.398 92.6285 156.409 92.6955 156.432C92.7291 156.443 92.7514 156.454 92.785 156.465C92.9079 156.499 92.5502 156.342 92.6508 156.409C92.7067 156.443 92.7626 156.465 92.8073 156.499C92.852 156.521 92.9414 156.599 92.785 156.476C92.6173 156.342 92.7291 156.443 92.7738 156.476C92.9638 156.666 92.6396 156.253 92.7402 156.432C92.7514 156.454 92.7738 156.488 92.785 156.51C92.852 156.611 92.6844 156.253 92.7179 156.376C92.7291 156.409 92.7402 156.432 92.7514 156.465C92.7961 156.577 92.7179 156.219 92.7291 156.342C92.7291 156.376 92.7291 156.409 92.7402 156.443C92.7514 156.555 92.7738 156.208 92.7402 156.376C92.7402 156.387 92.7179 156.465 92.7179 156.488C92.6955 156.376 92.7961 156.286 92.7402 156.398C92.7291 156.432 92.7067 156.465 92.6955 156.499C92.6396 156.633 92.7402 156.443 92.7626 156.421C92.7067 156.465 92.662 156.532 92.6173 156.577C92.5055 156.689 92.6732 156.521 92.6955 156.521C92.6955 156.521 92.5614 156.588 92.5502 156.599C92.5614 156.577 92.7961 156.543 92.6397 156.566C92.6173 156.566 92.5614 156.577 92.5391 156.588C92.6732 156.532 92.7514 156.577 92.6397 156.566C92.9414 156.588 92.8408 156.611 92.7738 156.588C92.6396 156.543 93.0532 156.7 92.8297 156.599C93.0756 156.711 93.0308 156.767 92.9526 156.689C92.8185 156.543 93.1203 156.946 93.0197 156.778C93.0085 156.767 92.9638 156.7 92.975 156.7C92.9973 156.689 93.0756 157.002 93.0308 156.812C92.9861 156.611 93.0756 157.08 93.0308 156.834C93.0085 156.678 93.042 156.968 93.0197 156.957C93.0197 156.935 93.0308 156.912 93.0308 156.89C93.042 156.812 93.0308 156.856 92.9861 157.024C92.9973 157.013 93.0197 156.935 93.0197 156.946C93.0756 156.957 92.6844 157.225 92.8073 157.158C92.9191 157.102 92.5502 157.203 92.7291 157.181C92.7738 157.181 92.9303 157.147 92.7514 157.169C92.5949 157.192 92.6955 157.181 92.7514 157.181C92.8744 157.192 92.5055 157.102 92.662 157.169C92.8185 157.225 92.5391 157.113 92.5502 157.113C92.5726 157.125 92.5949 157.136 92.6173 157.147C92.6955 157.192 92.6508 157.158 92.4832 157.035C92.4943 157.046 92.5614 157.102 92.5614 157.102C92.5502 157.113 92.3714 156.812 92.4943 157.035C92.7514 157.494 93.4668 157.806 93.9474 157.516C94.4615 157.203 94.495 156.611 94.2268 156.119C93.8579 155.459 93.0756 155.046 92.3379 155.102C91.969 155.124 91.6002 155.225 91.3431 155.504C91.0972 155.761 90.9854 156.119 90.9743 156.465C90.9072 157.896 92.5167 159.181 93.8579 158.41C94.3944 158.097 94.7968 157.527 94.8527 156.901C94.9086 156.219 94.6515 155.56 94.1709 155.079C93.355 154.286 92.092 154.085 91.0525 154.509C89.9348 154.967 89.2865 156.141 88.7836 157.169C88.5265 157.672 88.8059 158.354 89.2977 158.611C89.7113 158.879 90.3707 158.857 90.639 158.321Z" fill="#333333"/>
<path d="M100.419 156.477C100.509 156.388 100.598 156.287 100.676 156.198C100.721 156.153 100.777 156.097 100.822 156.052C100.978 155.896 100.576 156.276 100.744 156.131C100.833 156.052 100.922 155.974 101.012 155.907C101.202 155.751 100.71 156.108 100.9 155.985C100.956 155.952 101.012 155.907 101.068 155.874C101.202 155.795 100.699 156.064 100.945 155.941C101.179 155.829 100.632 156.041 100.844 155.974C100.889 155.963 100.945 155.941 100.989 155.93C101.179 155.874 100.699 155.974 100.9 155.952C100.956 155.941 101.001 155.941 101.057 155.93C101.247 155.907 100.833 155.918 101.012 155.93C101.135 155.941 101.247 155.952 101.369 155.985C101.302 155.963 101.235 155.952 101.168 155.93C101.347 155.985 101.504 156.064 101.649 156.187C101.604 156.142 101.559 156.108 101.515 156.064C101.671 156.209 101.783 156.388 101.839 156.6C101.817 156.544 101.805 156.488 101.783 156.421C101.828 156.589 101.839 156.745 101.805 156.913C101.817 156.846 101.828 156.779 101.839 156.701C101.828 156.745 101.817 156.779 101.805 156.824C101.738 157.014 101.828 156.745 101.85 156.745C101.839 156.768 101.828 156.79 101.805 156.812C101.85 156.757 101.895 156.701 101.939 156.634C101.85 156.723 101.906 156.678 102.096 156.488C102.208 156.388 102.331 156.31 102.465 156.242C102.61 156.164 102.644 156.153 102.565 156.187C102.677 156.131 102.8 156.086 102.923 156.064C103.247 155.997 102.778 156.052 103.046 156.052C103.236 156.052 103.091 156.052 103.046 156.041C103.001 156.041 102.957 156.03 102.912 156.019C102.979 156.041 103.046 156.052 103.113 156.075C102.968 156.03 102.834 155.963 102.711 155.851C102.755 155.896 102.8 155.93 102.845 155.974C102.733 155.874 102.644 155.751 102.599 155.605C102.621 155.661 102.632 155.717 102.655 155.784C102.621 155.684 102.621 155.594 102.632 155.482C102.621 155.549 102.61 155.617 102.599 155.695C102.61 155.65 102.621 155.605 102.632 155.561C102.666 155.449 102.521 155.818 102.599 155.639C102.61 155.628 102.387 155.896 102.476 155.795C102.498 155.773 102.185 156.052 102.308 155.963C102.342 155.941 101.951 156.209 102.096 156.12C102.107 156.108 101.694 156.321 101.884 156.242C102.007 156.187 101.537 156.365 101.671 156.321C101.716 156.31 101.828 156.287 101.615 156.332C101.381 156.388 101.571 156.354 101.627 156.343C101.716 156.321 101.392 156.332 101.481 156.343C101.504 156.343 101.526 156.343 101.548 156.343C101.604 156.354 101.649 156.354 101.705 156.377C101.638 156.354 101.571 156.343 101.504 156.321C101.604 156.354 101.694 156.399 101.772 156.466C101.727 156.421 101.682 156.388 101.638 156.343C101.682 156.388 101.716 156.432 101.749 156.477C101.884 156.667 102.152 156.678 102.342 156.656C102.655 156.622 103.024 156.466 103.281 156.287C103.549 156.108 103.851 155.885 104.007 155.594C104.108 155.427 104.231 155.169 104.108 154.979C103.851 154.599 103.415 154.476 102.979 154.488C102.241 154.499 101.537 154.845 100.978 155.315C100.554 155.672 100.051 156.287 100.196 156.891C100.285 157.282 100.554 157.617 100.934 157.774C101.627 158.053 102.409 157.83 103.024 157.45C103.661 157.047 104.208 156.466 104.287 155.695C104.32 155.337 104.186 154.89 103.929 154.633C103.583 154.264 103.102 154.085 102.599 154.085C100.978 154.074 99.6706 155.147 98.6199 156.276C98.4746 156.432 98.2734 156.723 98.2846 156.958C98.2958 157.17 98.4746 157.293 98.6758 157.315C99.3129 157.36 100.006 156.913 100.419 156.477Z" fill="#333333"/>
<path d="M94.361 169.042C94.5957 168.83 94.8304 168.606 95.121 168.506C95.7805 168.271 95.9593 168.774 96.4288 169.042C96.9541 169.344 97.3788 168.908 97.8706 168.64C98.0718 168.528 98.2842 168.416 98.5189 168.416C99.2677 168.416 98.9101 169.601 99.2118 170.059C99.3348 170.249 100.195 170.763 100.419 170.596C99.0442 171.602 98.1277 172.909 96.2723 173.032C95.2775 173.099 93.8022 172.798 93.1092 171.993C92.5503 171.333 91.7608 169.266 91.6825 168.416C92.1743 168.819 93.4668 169.646 94.0033 169.31C94.1375 169.221 94.2492 169.132 94.361 169.042Z" fill="#333333"/>
<path d="M200.595 161.787C200.382 161.597 200.282 161.507 200.215 161.452C200.226 161.44 200.181 161.396 200.125 161.329C200.192 161.127 200.908 158.713 199.946 157.663C199.946 157.663 200.796 155.17 199.387 154.186C199.387 154.186 200.36 152.23 199.242 151.582C198.124 150.934 196.381 151.213 195.531 151.683C194.671 152.163 191.687 153.203 191.698 153.762C191.698 153.762 191.709 155.226 192.514 155.338C193.318 155.449 193.71 155.483 193.71 155.483C193.71 155.483 190.994 156.355 190.938 157.037C190.882 157.718 191.094 158.993 192.324 158.892C192.324 158.892 191.474 159.618 191.809 160.189C192.145 160.759 192.681 161.463 193.419 161.306C194.168 161.15 194.917 161.06 194.917 161.06C194.917 161.06 193.855 161.519 194.157 162.044C194.458 162.569 194.47 163.117 195.431 163.318C196.403 163.519 198.326 164.1 198.326 164.1L198.762 166.682C198.762 166.682 200.561 164.983 200.885 164.156C201.209 163.296 201.075 162.212 200.595 161.787Z" fill="white" stroke="#333333" stroke-width="1.5" stroke-miterlimit="10" stroke-linecap="round" stroke-linejoin="round"/>
<defs>
<linearGradient id="paint0_linear_17_1497" x1="391.036" y1="198.971" x2="485.695" y2="244.998" gradientUnits="userSpaceOnUse">
<stop stop-color="#FF8E3D"/>
<stop offset="1" stop-color="#FF6F3D"/>
</linearGradient>
<linearGradient id="paint1_linear_17_1497" x1="355.189" y1="196.522" x2="395.845" y2="269.867" gradientUnits="userSpaceOnUse">
<stop stop-color="#FF8E3D"/>
<stop offset="1" stop-color="#FF6F3D"/>
</linearGradient>
<linearGradient id="paint2_linear_17_1497" x1="144" y1="143.271" x2="264.193" y2="248.413" gradientUnits="userSpaceOnUse">
<stop stop-color="#FF8E3D"/>
<stop offset="1" stop-color="#FF6F3D"/>
</linearGradient>
</defs>
</svg>
