<svg width="22" height="22" viewBox="0 0 22 22" fill="none" xmlns="http://www.w3.org/2000/svg">
<circle cx="11" cy="11" r="10.5" stroke="#FF6F3D"/>
<path d="M9.06508 16.6596C9.64132 17.0269 12.8767 17.1926 13.6627 16.6596C12.8964 16.3043 13.171 15.3289 13.171 14.4033C13.171 13.7578 12.938 13.3355 12.6769 13.1218C14.2984 12.9503 16 12.3651 16 9.70639C16 8.95057 15.7188 8.33264 15.252 7.84829C15.3266 7.67334 15.576 6.97009 15.1792 6.01692C15.1792 6.01692 14.5687 5.83076 13.1792 6.7262C12.5977 6.57193 11.9744 6.49609 11.3566 6.49264C10.7369 6.49523 10.1145 6.57193 9.53394 6.72534C8.14354 5.8299 7.53206 6.01606 7.53206 6.01606C7.13623 6.96837 7.38556 7.67248 7.46108 7.84743C6.99519 8.33178 6.71129 8.9497 6.71129 9.70552C6.71129 12.3574 8.41106 12.9512 10.0271 13.1261C9.81875 13.2993 9.63039 13.6044 9.56487 14.0517C9.14994 14.2292 8.09531 14.5343 7.44561 13.4769C7.44561 13.4769 7.06162 12.8124 6.33093 12.7633C6.33093 12.7633 5.62026 12.7547 6.28179 13.1838C6.28179 13.1838 6.75951 13.3967 7.08982 14.1965C7.08982 14.1965 7.5175 15.5427 9.54212 15.1247C9.54576 15.7021 9.56487 15.9953 9.56487 16.1599C9.56487 16.6207 9.06508 16.6596 9.06508 16.6596Z" fill="url(#paint0_linear_3_1146)"/>
<defs>
<linearGradient id="paint0_linear_3_1146" x1="11" y1="6" x2="11" y2="17" gradientUnits="userSpaceOnUse">
<stop stop-color="#FF8E3D"/>
<stop offset="1" stop-color="#FF6F3D"/>
</linearGradient>
</defs>
</svg>
