<svg width="1612" height="677" viewBox="0 0 1612 677" fill="none" xmlns="http://www.w3.org/2000/svg">
<path opacity="0.45" fill-rule="evenodd" clip-rule="evenodd" d="M1140.52 314.302L1350.35 -270.364C1367.83 -320.565 1342.54 -345.851 1293.83 -326.885L709.165 -117.049C658.964 -99.5711 604.526 -45.133 588.519 3.59718L378.683 588.262C361.204 638.464 386.491 663.75 435.205 644.784L1019.87 434.948C1068.58 415.983 1123.02 361.545 1140.52 314.302Z" fill="#D9F4FF"/>
<path opacity="0.65" fill-rule="evenodd" clip-rule="evenodd" d="M1328.73 -389.926L486.73 -431.58C414.653 -434.462 392.289 -392.013 436.74 -336.694L947.228 334.202C990.364 392.018 1083.03 440.841 1152.61 442.403L1994.61 484.057C2066.68 486.94 2089.05 444.491 2044.6 389.171L1534.11 -281.724C1489.66 -337.043 1396.99 -385.866 1328.73 -389.926Z" fill="#D9F4FF"/>
<path opacity="0.35" fill-rule="evenodd" clip-rule="evenodd" d="M1153.04 -93.7774L1761.43 413.576C1813.07 457.478 1801.5 501.053 1735.56 510.978L955.593 649.554C888.97 662.042 793.842 636.774 744.769 593.554L136.377 86.2012C84.7323 42.2988 96.3066 -1.27587 162.249 -11.2008L942.213 -149.777C1008.16 -159.702 1103.28 -134.434 1153.04 -93.7774Z" fill="#D9F4FF"/>
<path d="M28.7293 171.774L32.7732 158.515L42.2317 168.644L28.7293 171.774Z" fill="#FF6F3D"/>
<path d="M1405.48 152.694C1402.48 153.389 1399.85 150.575 1400.75 147.628C1401.65 144.682 1405.4 143.813 1407.5 146.064C1409.6 148.315 1408.48 151.998 1405.48 152.694Z" fill="#FF6F3D"/>
<path d="M1046.96 103.017L1044.77 116.705L1034.01 107.969L1046.96 103.017Z" fill="#9ADAF3"/>
<path d="M98.4718 348.844C101.349 347.744 104.338 350.171 103.852 353.213C103.366 356.255 99.7701 357.63 97.3792 355.688C94.9883 353.747 95.5953 349.945 98.4718 348.844Z" fill="#9ADAF3"/>
<path d="M13.9457 540.368L11.7584 554.056L1.00003 545.32L13.9457 540.368Z" fill="#9ADAF3"/>
<path d="M313.946 103.017L311.758 116.705L301 107.969L313.946 103.017Z" fill="#9ADAF3"/>
<path d="M1510.57 362.638L1500 353.675L1513.05 349L1510.57 362.638Z" fill="#FF6F3D"/>
<path d="M1035.33 485.793L1030.99 472.628L1044.55 475.452L1035.33 485.793Z" fill="#9ADAF3"/>
<path d="M715.729 186.259L719.773 173L729.232 183.129L715.729 186.259Z" fill="#FF6F3D"/>
</svg>
