<svg width="328" height="460" viewBox="0 0 328 460" fill="none" xmlns="http://www.w3.org/2000/svg">
<g clip-path="url(#clip0_574_102565)">
<rect width="328" height="460" fill="#333333"/>
<g filter="url(#filter0_d_574_102565)">
<rect x="45.5479" y="82" width="236.904" height="296" rx="16" fill="#444444"/>
<rect x="46.0479" y="82.5" width="235.904" height="295" rx="15.5" stroke="url(#paint0_linear_574_102565)"/>
</g>
<rect x="98" y="139" width="155" height="14" rx="4" fill="#333333"/>
<rect x="78" y="155" width="175" height="14" rx="4" fill="#333333"/>
<rect x="78" y="211" width="175" height="14" rx="4" fill="#333333"/>
<rect x="78" y="226" width="155" height="14" rx="4" fill="#333333"/>
<path d="M110 125H221.206" stroke="white" stroke-opacity="0.2" stroke-width="4" stroke-linecap="round"/>
<path d="M105 146H245" stroke="white" stroke-opacity="0.2" stroke-width="2" stroke-linecap="round"/>
<rect x="98" y="298" width="155" height="14" rx="4" fill="#333333"/>
<rect x="78" y="314" width="175" height="14" rx="4" fill="#333333"/>
<rect x="78" y="330" width="155" height="14" rx="4" fill="#333333"/>
<path d="M85 162H245" stroke="white" stroke-opacity="0.2" stroke-width="2" stroke-linecap="round"/>
<path d="M85 178H225" stroke="white" stroke-opacity="0.2" stroke-width="2" stroke-linecap="round"/>
<path d="M105 202H245" stroke="white" stroke-opacity="0.2" stroke-width="2" stroke-linecap="round"/>
<path d="M85 218H245" stroke="white" stroke-opacity="0.2" stroke-width="2" stroke-linecap="round"/>
<path d="M85 233H225" stroke="white" stroke-opacity="0.2" stroke-width="2" stroke-linecap="round"/>
<path d="M105 259H245" stroke="white" stroke-opacity="0.2" stroke-width="2" stroke-linecap="round"/>
<path d="M85 273H245" stroke="white" stroke-opacity="0.2" stroke-width="2" stroke-linecap="round"/>
<path d="M85 288H245" stroke="white" stroke-opacity="0.2" stroke-width="2" stroke-linecap="round"/>
<path d="M105 305H245" stroke="white" stroke-opacity="0.2" stroke-width="2" stroke-linecap="round"/>
<path d="M85 321H245" stroke="white" stroke-opacity="0.2" stroke-width="2" stroke-linecap="round"/>
<path d="M85 337H225" stroke="white" stroke-opacity="0.2" stroke-width="2" stroke-linecap="round"/>
<rect x="110.5" y="179" width="108" height="108" stroke="white" stroke-width="2" stroke-dasharray="90 90"/>
<path d="M185.276 247.197C184.073 247.197 183.098 246.222 183.098 245.019L183.098 221.003C183.098 219.898 183.993 219.003 185.098 219.003L195.117 219.003C196.73 219.003 198.209 219.406 199.553 220.211C200.924 220.99 202.013 222.064 202.82 223.433C203.627 224.776 204.03 226.293 204.03 227.985C204.03 229.515 203.627 230.939 202.82 232.254C202.013 233.57 200.938 234.631 199.593 235.436C198.249 236.215 196.757 236.604 195.117 236.604L187.454 236.604L187.454 245.019C187.454 246.222 186.479 247.197 185.276 247.197ZM201.189 247.207C200.376 247.201 199.63 246.761 199.231 246.054L192.697 234.47L197.174 233.463L203.168 243.802C204.048 245.321 202.944 247.221 201.189 247.207ZM187.454 232.415L195.52 232.415C196.3 232.415 196.999 232.227 197.617 231.852C198.236 231.449 198.72 230.912 199.069 230.24C199.419 229.542 199.593 228.777 199.593 227.945C199.593 227.005 199.365 226.186 198.908 225.488C198.478 224.763 197.859 224.199 197.053 223.796C196.273 223.393 195.385 223.192 194.391 223.192L187.454 223.192L187.454 232.415Z" fill="white"/>
<path d="M167.178 247.6C165.215 247.6 163.414 247.251 161.774 246.553C160.134 245.855 158.709 244.861 157.499 243.572C156.289 242.257 155.348 240.713 154.675 238.94C154.03 237.168 153.707 235.221 153.707 233.1C153.707 231.086 154.057 229.22 154.756 227.502C155.482 225.756 156.477 224.226 157.741 222.91C159.004 221.594 160.47 220.574 162.137 219.849C163.804 219.124 165.605 218.761 167.541 218.761C168.912 218.761 170.243 218.976 171.534 219.406C172.851 219.808 174.035 220.386 175.083 221.138C175.59 221.479 176.053 221.845 176.47 222.235C177.262 222.974 177.16 224.201 176.409 224.983C175.529 225.898 174.08 225.882 173.065 225.119C172.467 224.67 171.863 224.296 171.252 223.997C170.042 223.407 168.805 223.111 167.541 223.111C166.224 223.111 164.987 223.366 163.831 223.877C162.701 224.36 161.707 225.045 160.846 225.931C160.013 226.817 159.354 227.877 158.87 229.113C158.386 230.321 158.144 231.65 158.144 233.1C158.144 234.631 158.372 236.027 158.83 237.289C159.313 238.524 159.986 239.585 160.846 240.471C161.707 241.357 162.728 242.042 163.911 242.525C165.121 242.982 166.452 243.21 167.904 243.21C168.791 243.21 169.665 243.089 170.526 242.847C171.386 242.606 172.193 242.257 172.946 241.8C174.088 241.107 175.682 241.295 176.381 242.433C176.855 243.204 176.793 244.218 176.078 244.773C175.656 245.101 175.176 245.412 174.64 245.707C173.591 246.298 172.408 246.768 171.09 247.117C169.8 247.439 168.496 247.6 167.178 247.6Z" fill="white"/>
<path d="M135.993 247.6C134.003 247.6 132.161 247.238 130.467 246.513C128.8 245.788 127.335 244.781 126.071 243.492C124.834 242.176 123.866 240.645 123.167 238.9C122.495 237.128 122.159 235.195 122.159 233.1C122.159 231.006 122.495 229.086 123.167 227.34C123.866 225.568 124.834 224.038 126.071 222.749C127.335 221.433 128.8 220.413 130.467 219.688C132.161 218.963 134.003 218.6 135.993 218.6C137.982 218.6 139.811 218.963 141.478 219.688C143.172 220.413 144.637 221.433 145.874 222.749C147.138 224.064 148.106 225.608 148.778 227.381C149.477 229.126 149.826 231.033 149.826 233.1C149.826 235.168 149.477 237.088 148.778 238.86C148.106 240.605 147.138 242.136 145.874 243.451C144.637 244.767 143.172 245.788 141.478 246.513C139.811 247.238 137.982 247.6 135.993 247.6ZM135.993 243.371C137.364 243.371 138.614 243.116 139.744 242.606C140.9 242.095 141.895 241.384 142.728 240.471C143.562 239.531 144.207 238.444 144.664 237.208C145.148 235.946 145.39 234.577 145.39 233.1C145.39 231.623 145.148 230.267 144.664 229.032C144.207 227.77 143.562 226.683 142.728 225.77C141.895 224.83 140.9 224.105 139.744 223.595C138.614 223.084 137.364 222.829 135.993 222.829C134.621 222.829 133.358 223.084 132.202 223.595C131.072 224.105 130.077 224.816 129.217 225.729C128.383 226.642 127.738 227.73 127.281 228.992C126.824 230.227 126.595 231.596 126.595 233.1C126.595 235.087 126.999 236.859 127.805 238.417C128.612 239.947 129.714 241.156 131.113 242.042C132.538 242.928 134.164 243.371 135.993 243.371Z" fill="white"/>
<path fill-rule="evenodd" clip-rule="evenodd" d="M181.996 374.645C181.996 376.877 183.792 378.686 186.009 378.686C188.224 378.686 190.021 376.877 190.021 374.645C190.021 372.413 188.224 370.604 186.009 370.604C185.001 370.604 184.08 370.979 183.376 371.598L173.813 366.054C173.859 365.81 173.885 365.558 173.885 365.301C173.885 363.07 172.088 361.26 169.871 361.26C167.654 361.26 165.857 363.07 165.857 365.301C165.857 367.533 167.654 369.342 169.871 369.342C170.857 369.342 171.759 368.984 172.458 368.39L182.055 373.954C182.015 374.179 181.996 374.41 181.996 374.645ZM169.823 388.093C172.04 388.093 173.836 386.284 173.836 384.052C173.836 383.805 173.813 383.563 173.772 383.328L180.781 379.271C180.191 378.594 179.726 377.802 179.427 376.933L172.431 380.982C171.729 380.377 170.819 380.011 169.823 380.011C167.607 380.011 165.81 381.82 165.81 384.052C165.81 386.284 167.607 388.093 169.823 388.093ZM178.911 348.426L197.967 359.391C199.283 360.148 200.094 361.557 200.094 363.082V385.384C200.094 386.904 199.289 388.308 197.981 389.067L188.461 394.591L188.456 408.133L155.65 389.067C154.344 388.308 153.54 386.904 153.54 385.386V363.082C153.54 361.557 154.351 360.148 155.667 359.391L174.722 348.426C176.02 347.68 177.613 347.68 178.911 348.426ZM213.396 362.935C213.396 362.01 214.14 361.261 215.058 361.261H220.661C224.292 361.261 227.16 361.261 229.089 362.251C231.19 363.33 232.699 364.782 233.841 366.823C235.099 369.068 235.71 371.581 235.71 374.503C235.71 376.596 235.368 378.484 234.666 380.275C233.986 382.004 233.015 383.477 231.779 384.651C230.32 386.041 229.055 386.87 227.798 387.262C226.053 387.809 223.335 388.123 220.339 388.123H215.058C214.14 388.123 213.396 387.373 213.396 386.45V362.935ZM313.989 361.935C313.989 361.562 314.289 361.261 314.659 361.261H318.386C318.754 361.261 319.056 361.562 319.056 361.935V383.772H327.328C327.696 383.772 328 384.073 328 384.448V387.448C328 387.821 327.696 388.123 327.328 388.123H314.659C314.289 388.123 313.989 387.821 313.989 387.448V361.935ZM221.016 365.612H218.463V383.772L227.798 387.262C230.08 387.262 225.589 383.09 226.889 382.423C227.835 381.937 228.757 380.876 229.557 379.356C230.221 378.088 230.588 376.322 230.588 374.387C230.588 371.507 229.784 369.308 228.127 367.665C226.734 366.283 224.409 365.612 221.016 365.612ZM242.237 369.996C244.233 367.936 246.669 366.934 249.679 366.934C252.881 366.934 255.409 367.936 257.411 369.996C259.304 371.944 260.389 375.054 260.389 378.532L260.386 379.198C260.384 379.57 260.083 379.869 259.715 379.869H244.103C244.363 381.058 244.931 381.95 245.953 382.805C246.914 383.607 248.212 383.998 249.921 383.998C251.631 383.998 253.178 383.406 254.516 382.242C254.715 382.068 254.998 382.029 255.235 382.139L258.232 383.527C258.421 383.616 258.559 383.787 258.604 383.992C258.651 384.197 258.601 384.412 258.468 384.573C257.545 385.691 256.458 386.562 255.235 387.162C253.782 387.876 252.007 388.238 249.959 388.238C246.771 388.238 244.248 387.255 242.246 385.232C240.241 383.209 239.268 380.744 239.268 377.699C239.268 374.578 240.238 372.058 242.237 369.996ZM266.916 369.996C268.912 367.936 271.346 366.934 274.358 366.934C277.558 366.934 280.085 367.936 282.09 369.996C283.983 371.942 285.068 375.053 285.068 378.532L285.063 379.198C285.061 379.57 284.763 379.869 284.393 379.869H268.782C269.042 381.057 269.607 381.95 270.63 382.806C271.593 383.607 272.891 383.998 274.599 383.998C276.308 383.998 277.854 383.406 279.194 382.242C279.393 382.068 279.676 382.029 279.913 382.139L282.911 383.527C283.101 383.616 283.238 383.788 283.283 383.993C283.331 384.197 283.279 384.412 283.147 384.574C282.224 385.691 281.136 386.562 279.913 387.162C278.461 387.876 276.686 388.238 274.638 388.238C271.45 388.238 268.927 387.255 266.925 385.232C264.921 383.207 263.947 380.744 263.947 377.699C263.947 374.578 264.918 372.058 266.916 369.996ZM297.288 367.622C298.313 367.178 299.546 366.934 300.764 366.934C303.402 366.934 305.665 367.941 307.489 369.93C309.335 371.933 310.267 374.522 310.267 377.624C310.267 380.678 309.338 383.155 307.429 385.196C305.516 387.242 303.313 388.239 300.692 388.239C299.539 388.239 298.452 388.028 297.462 387.616C296.53 387.228 295.212 386.566 294.192 385.605L293.718 385.242V394.952C293.718 395.325 293.417 395.628 293.047 395.628H289.32C288.95 395.628 288.65 395.326 288.65 394.953V368.686C288.65 368.315 288.949 368.014 289.318 368.014H291.571L293.718 370.044L294.194 369.66C294.994 368.862 296.092 368.138 297.288 367.622ZM253.417 372.302C252.328 371.516 251.155 371.117 249.932 371.117C248.505 371.117 247.235 371.526 246.157 372.331C245.561 372.774 244.942 373.715 244.265 375.208L244.148 375.517H255.503L255.425 375.187C255.072 374.002 254.375 372.992 253.417 372.302ZM278.094 372.302C277.007 371.515 275.833 371.117 274.61 371.117C273.183 371.117 271.914 371.526 270.833 372.331C270.235 372.777 269.617 373.719 268.945 375.208L268.828 375.517H280.182L280.102 375.188C279.751 374.002 279.053 372.992 278.094 372.302ZM303.785 373.212C302.734 372.082 301.388 371.51 299.782 371.51C298.167 371.51 296.809 372.073 295.744 373.183C294.681 374.293 294.14 375.761 294.14 377.55C294.14 379.374 294.681 380.871 295.743 382C296.809 383.127 298.167 383.701 299.782 383.701C301.35 383.701 302.689 383.118 303.759 381.971C304.828 380.825 305.371 379.344 305.371 377.568C305.371 375.805 304.836 374.339 303.785 373.212Z" fill="white"/>
<path d="M26.8199 53.1305C20.1674 53.1305 14.2571 57.3567 12.197 63.5944C10.0828 64.0243 8.08574 64.8936 6.33861 66.1443C4.59148 67.395 3.13438 68.9984 2.06429 70.8479C-1.27216 76.537 -0.510297 83.6891 3.95948 88.5653C2.5795 92.6497 3.05312 97.1192 5.25699 100.818C8.57301 106.527 15.2452 109.453 21.7743 108.091C23.2039 109.683 24.961 110.956 26.9284 111.825C28.8959 112.694 31.0285 113.139 33.1841 113.13C39.8366 113.13 45.7469 108.904 47.807 102.666C52.0907 101.792 55.7775 99.1509 57.9193 95.4129C61.2762 89.7238 60.5143 82.5717 56.0453 77.6954V77.6753C56.727 75.6565 56.9639 73.5173 56.7401 71.4008C56.5163 69.2844 55.8371 67.2395 54.7478 65.4029C51.431 59.7138 44.7581 56.7872 38.2501 58.1486C36.814 56.5611 35.0522 55.2927 33.0817 54.4276C31.1111 53.5625 28.9767 53.1204 26.8199 53.1305ZM26.8199 57.032L26.7995 57.0521C29.4769 57.0521 32.0515 57.9665 34.1109 59.6533C34.0285 59.6937 33.8635 59.7952 33.7402 59.8564L21.6306 66.7442C21.0125 67.0898 20.6418 67.7399 20.6418 68.4512V84.6243L15.4313 81.6581V68.2885C15.4301 65.3063 16.6289 62.4456 18.7643 60.3348C20.8997 58.224 23.7971 57.0366 26.8199 57.032ZM41.4078 61.7405C43.4145 61.7367 45.3868 62.2556 47.1251 63.2448C48.8634 64.2341 50.3062 65.6585 51.3077 67.3742C52.6256 69.6499 53.1197 72.3116 52.6665 74.8919C52.584 74.8307 52.4198 74.7501 52.3162 74.6889L40.2066 67.7802C39.9019 67.6102 39.5579 67.5209 39.2079 67.5209C38.8579 67.5209 38.5139 67.6102 38.2092 67.7802L24.0191 75.8668V69.9336L35.7375 63.2488C37.4605 62.2633 39.4162 61.7436 41.4078 61.7405ZM11.4563 67.8817V82.0843C11.4563 82.7956 11.827 83.4256 12.4451 83.7913L26.6141 91.8577L21.3825 94.8441L9.68443 88.1795C7.07019 86.6847 5.16391 84.2277 4.38404 81.3478C3.60418 78.4678 4.01445 75.4003 5.52481 72.8185C6.85717 70.54 8.95556 68.794 11.4563 67.8817ZM38.6004 71.3966L50.3189 78.0612C55.7767 81.17 57.6296 88.0376 54.4785 93.4222L54.4989 93.4423C53.1605 95.7181 51.0596 97.4655 48.5674 98.3596V84.1563C48.5674 83.445 48.1967 82.7949 47.5786 82.45L33.3892 74.3628L38.6004 71.3966ZM29.9914 76.2937L35.9645 79.707V86.5135L29.9914 89.9268L24.0191 86.5135V79.707L29.9914 76.2937ZM39.3827 81.6581L44.5932 84.6243V97.9737C44.5932 104.191 39.4856 109.23 33.2046 109.23V109.21C30.5475 109.21 27.9525 108.296 25.9135 106.61C25.996 106.569 26.1814 106.467 26.2843 106.406L38.3939 99.518C39.012 99.1725 39.4031 98.5223 39.382 97.811L39.3827 81.6581ZM35.9842 90.3948V96.3272L24.2657 102.992C18.8079 106.08 11.8467 104.252 8.69561 98.8874H8.71604C7.37767 96.6317 6.90332 93.9499 7.3565 91.3696C7.43897 91.4308 7.60389 91.5114 7.70679 91.5726L19.8164 98.4813C20.121 98.6513 20.4651 98.7406 20.8151 98.7406C21.1651 98.7406 21.5091 98.6513 21.8138 98.4813L35.9842 90.3948Z" fill="white"/>
<path d="M95.0831 81.2424C95.0831 83.2344 94.8311 85.0464 94.3271 86.6784C93.8471 88.2864 93.1031 89.6784 92.0951 90.8544C91.1111 92.0304 89.8391 92.9304 88.2791 93.5544C86.7431 94.1784 84.9311 94.4904 82.8431 94.4904C80.7551 94.4904 78.9311 94.1784 77.3711 93.5544C75.8351 92.9064 74.5631 92.0064 73.5551 90.8544C72.5711 89.6784 71.8271 88.2744 71.3231 86.6424C70.8431 85.0104 70.6031 83.1984 70.6031 81.2064C70.6031 78.5424 71.0351 76.2264 71.8991 74.2584C72.7871 72.2904 74.1311 70.7664 75.9311 69.6864C77.7551 68.5824 80.0711 68.0304 82.8791 68.0304C85.6631 68.0304 87.9551 68.5824 89.7551 69.6864C91.5551 70.7664 92.8871 72.3024 93.7511 74.2944C94.6391 76.2624 95.0831 78.5784 95.0831 81.2424ZM76.3271 81.2424C76.3271 83.0424 76.5551 84.5904 77.0111 85.8864C77.4671 87.1824 78.1751 88.1784 79.1351 88.8744C80.0951 89.5704 81.3311 89.9184 82.8431 89.9184C84.4031 89.9184 85.6511 89.5704 86.5871 88.8744C87.5471 88.1784 88.2431 87.1824 88.6751 85.8864C89.1311 84.5904 89.3591 83.0424 89.3591 81.2424C89.3591 78.5304 88.8551 76.4064 87.8471 74.8704C86.8391 73.3344 85.1831 72.5664 82.8791 72.5664C81.3431 72.5664 80.0951 72.9144 79.1351 73.6104C78.1751 74.3064 77.4671 75.3024 77.0111 76.5984C76.5551 77.8944 76.3271 79.4424 76.3271 81.2424ZM110.919 74.1144C113.127 74.1144 114.915 74.9784 116.283 76.7064C117.651 78.4104 118.335 80.9304 118.335 84.2664C118.335 86.4984 118.011 88.3824 117.363 89.9184C116.715 91.4304 115.827 92.5704 114.699 93.3384C113.571 94.1064 112.263 94.4904 110.775 94.4904C109.839 94.4904 109.023 94.3704 108.327 94.1304C107.655 93.8904 107.079 93.5784 106.599 93.1944C106.119 92.8104 105.699 92.4024 105.339 91.9704H105.051C105.147 92.4264 105.219 92.9064 105.267 93.4104C105.315 93.8904 105.339 94.3704 105.339 94.8504V102.77H99.9755V74.4744H104.331L105.087 77.0304H105.339C105.699 76.5024 106.131 76.0224 106.635 75.5904C107.139 75.1344 107.739 74.7744 108.435 74.5104C109.155 74.2464 109.983 74.1144 110.919 74.1144ZM109.191 78.3984C108.255 78.3984 107.511 78.5904 106.959 78.9744C106.407 79.3584 105.999 79.9464 105.735 80.7384C105.495 81.5064 105.363 82.4784 105.339 83.6544V84.2304C105.339 85.5024 105.459 86.5824 105.699 87.4704C105.939 88.3344 106.347 88.9944 106.923 89.4504C107.499 89.9064 108.279 90.1344 109.263 90.1344C110.079 90.1344 110.751 89.9064 111.279 89.4504C111.807 88.9944 112.203 88.3224 112.467 87.4344C112.731 86.5464 112.863 85.4664 112.863 84.1944C112.863 82.2744 112.563 80.8344 111.963 79.8744C111.387 78.8904 110.463 78.3984 109.191 78.3984ZM130.857 74.1144C132.681 74.1144 134.241 74.4624 135.537 75.1584C136.857 75.8544 137.877 76.8624 138.597 78.1824C139.317 79.5024 139.677 81.1224 139.677 83.0424V85.6344H127.005C127.053 87.1464 127.497 88.3344 128.337 89.1984C129.201 90.0624 130.389 90.4944 131.901 90.4944C133.173 90.4944 134.325 90.3744 135.357 90.1344C136.389 89.8704 137.457 89.4744 138.561 88.9464V93.0864C137.601 93.5664 136.581 93.9144 135.501 94.1304C134.445 94.3704 133.161 94.4904 131.649 94.4904C129.681 94.4904 127.941 94.1304 126.429 93.4104C124.917 92.6664 123.729 91.5504 122.865 90.0624C122.001 88.5744 121.569 86.7024 121.569 84.4464C121.569 82.1424 121.953 80.2344 122.721 78.7224C123.513 77.1864 124.605 76.0344 125.997 75.2664C127.389 74.4984 129.009 74.1144 130.857 74.1144ZM130.893 77.9304C129.861 77.9304 128.997 78.2664 128.301 78.9384C127.629 79.6104 127.233 80.6544 127.113 82.0704H134.637C134.637 81.2784 134.493 80.5704 134.205 79.9464C133.941 79.3224 133.533 78.8304 132.981 78.4704C132.429 78.1104 131.733 77.9304 130.893 77.9304ZM155.186 74.1144C157.298 74.1144 158.99 74.6904 160.262 75.8424C161.534 76.9704 162.17 78.7944 162.17 81.3144V94.1304H156.806V82.6464C156.806 81.2304 156.554 80.1744 156.05 79.4784C155.546 78.7584 154.742 78.3984 153.638 78.3984C152.006 78.3984 150.89 78.9624 150.29 80.0904C149.69 81.1944 149.39 82.7904 149.39 84.8784V94.1304H144.026V74.4744H148.13L148.85 76.9944H149.138C149.57 76.3224 150.098 75.7824 150.722 75.3744C151.346 74.9424 152.042 74.6304 152.81 74.4384C153.578 74.2224 154.37 74.1144 155.186 74.1144ZM183.85 94.1304L181.978 88.0104H172.618L170.746 94.1304H164.878L173.95 68.3184H180.61L189.718 94.1304H183.85ZM178.81 77.4624C178.69 77.0544 178.534 76.5384 178.342 75.9144C178.15 75.2904 177.958 74.6544 177.766 74.0064C177.574 73.3584 177.418 72.7944 177.298 72.3144C177.178 72.7944 177.01 73.3944 176.794 74.1144C176.602 74.8104 176.41 75.4824 176.218 76.1304C176.05 76.7544 175.918 77.1984 175.822 77.4624L173.986 83.4384H180.682L178.81 77.4624ZM202.586 94.1304H190.886V91.0344L194.018 89.5944V72.9624L190.886 71.5224V68.4264H202.586V71.5224L199.454 72.9624V89.5944L202.586 91.0344V94.1304Z" fill="white"/>
</g>
<defs>
<filter id="filter0_d_574_102565" x="-19.4521" y="17" width="366.904" height="426" filterUnits="userSpaceOnUse" color-interpolation-filters="sRGB">
<feFlood flood-opacity="0" result="BackgroundImageFix"/>
<feColorMatrix in="SourceAlpha" type="matrix" values="0 0 0 0 0 0 0 0 0 0 0 0 0 0 0 0 0 0 127 0" result="hardAlpha"/>
<feOffset/>
<feGaussianBlur stdDeviation="32.5"/>
<feColorMatrix type="matrix" values="0 0 0 0 1 0 0 0 0 0.435294 0 0 0 0 0.239216 0 0 0 0.2 0"/>
<feBlend mode="normal" in2="BackgroundImageFix" result="effect1_dropShadow_574_102565"/>
<feBlend mode="normal" in="SourceGraphic" in2="effect1_dropShadow_574_102565" result="shape"/>
</filter>
<linearGradient id="paint0_linear_574_102565" x1="45.5483" y1="70.4375" x2="336.801" y2="312.648" gradientUnits="userSpaceOnUse">
<stop stop-color="#71F6FF"/>
<stop offset="0.33" stop-color="#4157FF"/>
<stop offset="0.67" stop-color="#FF3D40"/>
<stop offset="1" stop-color="#FFBE3D"/>
</linearGradient>
<clipPath id="clip0_574_102565">
<rect width="328" height="460" fill="white"/>
</clipPath>
</defs>
</svg>
