<svg width="126" height="32" viewBox="0 0 126 32" fill="none" xmlns="http://www.w3.org/2000/svg">
<path d="M44.4727 11.1607H38.773L37.4042 15.2024H34.9901L40.3887 0.24939H42.897L48.2957 15.2023H45.8403L44.4727 11.1607ZM39.3633 9.2957H43.8813L41.6541 2.73645H41.5918L39.3633 9.2957Z" fill="white"/>
<path d="M59.9548 9.75185C59.9548 13.1397 58.1416 15.3163 55.4052 15.3163C54.712 15.3526 54.0227 15.1929 53.416 14.8556C52.8094 14.5182 52.31 14.0169 51.9751 13.409H51.9233V18.8088H49.6855V4.30028H51.8516V6.11361H51.8928C52.2431 5.50858 52.7509 5.00985 53.3622 4.67048C53.9735 4.3311 54.6653 4.16379 55.3641 4.18633C58.131 4.18624 59.9548 6.37345 59.9548 9.75185ZM57.6547 9.75185C57.6547 7.54462 56.5141 6.09358 54.7738 6.09358C53.064 6.09358 51.9139 7.57524 51.9139 9.75185C51.9139 11.9485 53.064 13.4195 54.7738 13.4195C56.5141 13.4195 57.6547 11.979 57.6547 9.75185H57.6547Z" fill="white"/>
<path d="M71.9544 9.75185C71.9544 13.1397 70.1406 15.3163 67.4042 15.3163C66.7111 15.3526 66.0217 15.1929 65.415 14.8556C64.8084 14.5182 64.309 14.0169 63.9741 13.409H63.9223V18.8088H61.6846V4.30028H63.8506V6.11361H63.8918C64.2421 5.50858 64.75 5.00985 65.3612 4.67048C65.9725 4.3311 66.6643 4.16379 67.3631 4.18633C70.13 4.18624 71.9544 6.37345 71.9544 9.75185ZM69.6537 9.75185C69.6537 7.54462 68.5131 6.09358 66.7727 6.09358C65.063 6.09358 63.9129 7.57524 63.9129 9.75185C63.9129 11.9485 65.063 13.4195 66.7727 13.4195C68.5131 13.4195 69.6538 11.979 69.6538 9.75185H69.6537Z" fill="white"/>
<path d="M79.8837 11.036C80.0495 12.5189 81.49 13.4925 83.4585 13.4925C85.3447 13.4925 86.7017 12.5189 86.7017 11.1818C86.7017 10.0212 85.8832 9.3263 83.9453 8.84999L82.0074 8.38315C79.2617 7.71994 77.987 6.43583 77.987 4.35211C77.987 1.77208 80.2353 4.57764e-05 83.4267 4.57764e-05C86.5876 4.57764e-05 88.7536 1.77215 88.8265 4.35211H86.5676C86.4324 2.85987 85.1988 1.95918 83.3962 1.95918C81.5935 1.95918 80.36 2.87052 80.36 4.19696C80.36 5.25411 81.1478 5.87617 83.0752 6.35241L84.7226 6.75693C87.7906 7.48247 89.0641 8.71483 89.0641 10.902C89.0641 13.6995 86.8369 15.4516 83.2927 15.4516C79.9766 15.4516 77.7377 13.7407 77.593 11.0361L79.8837 11.036Z" fill="white"/>
<path d="M93.8959 1.72049V4.30052H95.9691V6.07263H93.8959V12.0827C93.8959 13.0164 94.311 13.4515 95.2224 13.4515C95.4685 13.4472 95.7142 13.43 95.9585 13.3998V15.1613C95.5488 15.2379 95.1323 15.2725 94.7155 15.2648C92.5083 15.2648 91.6476 14.4358 91.6476 12.3215V6.07256H90.0624V4.30043H91.6476V1.72039L93.8959 1.72049Z" fill="white"/>
<path d="M97.1685 9.75206C97.1685 6.32191 99.1887 4.16646 102.339 4.16646C105.5 4.16646 107.511 6.32191 107.511 9.75206C107.511 13.1916 105.51 15.3377 102.339 15.3377C99.1687 15.3377 97.1685 13.1916 97.1685 9.75206ZM105.231 9.75206C105.231 7.39905 104.152 6.01029 102.339 6.01029C100.526 6.01029 99.4474 7.40963 99.4474 9.75206C99.4474 12.1145 100.526 13.4927 102.339 13.4927C104.152 13.4927 105.231 12.1145 105.231 9.75206Z" fill="white"/>
<path d="M109.356 4.30033H111.49V6.15587H111.542C111.686 5.57634 112.026 5.06419 112.503 4.7055C112.981 4.3468 113.567 4.16343 114.164 4.18621C114.422 4.18531 114.679 4.21331 114.931 4.2697V6.36283C114.605 6.26335 114.265 6.21767 113.925 6.2276C113.6 6.21441 113.276 6.27173 112.975 6.39562C112.674 6.51951 112.404 6.70705 112.182 6.94534C111.961 7.18364 111.793 7.46705 111.692 7.77612C111.59 8.0852 111.556 8.41261 111.593 8.73588V15.2023H109.356V4.30033Z" fill="white"/>
<path d="M125.248 12.0004C125.002 13.0307 124.391 13.9367 123.528 14.5504C122.664 15.1641 121.608 15.4439 120.554 15.3377C117.382 15.3377 115.414 13.2128 115.414 9.8038C115.414 6.38423 117.393 4.16646 120.46 4.16646C123.476 4.16646 125.373 6.23842 125.373 9.54392V10.3106H117.673V10.4459C117.637 10.8471 117.688 11.2513 117.82 11.6316C117.953 12.0119 118.165 12.3596 118.442 12.6517C118.72 12.9437 119.056 13.1734 119.429 13.3255C119.802 13.4776 120.203 13.5486 120.606 13.5338C121.135 13.5834 121.665 13.4609 122.119 13.1846C122.572 12.9083 122.925 12.493 123.123 12.0004L125.248 12.0004ZM117.684 8.74665H123.134C123.154 8.38589 123.099 8.02488 122.973 7.68626C122.847 7.34764 122.653 7.03874 122.401 6.77892C122.15 6.51911 121.848 6.314 121.514 6.17647C121.18 6.03894 120.821 5.97195 120.46 5.97971C120.095 5.97754 119.734 6.04756 119.397 6.18573C119.06 6.32389 118.753 6.52747 118.495 6.78472C118.237 7.04196 118.032 7.34777 117.893 7.68451C117.754 8.02124 117.683 8.38223 117.684 8.74665Z" fill="white"/>
<path d="M34.9929 21.691H45.4895V22.7887H40.4998V24.3411C41.2149 24.6722 41.9345 25.0372 42.6588 25.436C43.3828 25.8344 44.1152 26.2622 44.8561 26.7192L44.2098 27.7276C43.4473 27.2412 42.7622 26.8126 42.1546 26.4417C41.5467 26.0707 40.9951 25.7626 40.4998 25.5171V32.0001H39.3877V22.7888H34.9929L34.9929 21.691Z" fill="white"/>
<path d="M48.3958 22.0208H50.5932V21.1347H51.6792V22.0208H53.7152V23.0291H51.6792V23.8878H54.2455C54.2283 23.466 54.2112 23.0255 54.194 22.5662C54.1762 22.1073 54.1675 21.626 54.1679 21.1223H55.247C55.247 21.6347 55.2546 22.1183 55.2697 22.573C55.2848 23.0278 55.301 23.466 55.3185 23.8878H58.1753V24.9099H55.37C55.4043 25.3838 55.4485 25.8166 55.5025 26.2081C55.5561 26.601 55.6049 26.9513 55.6482 27.2618C55.6813 27.3647 55.7072 27.4698 55.7258 27.5764C55.743 27.6767 55.7601 27.7797 55.7773 27.8827C55.9596 27.4892 56.1192 27.0856 56.2554 26.6738C56.3976 26.2479 56.5269 25.7914 56.6435 25.3041L57.6326 25.7561C57.3358 27.0263 56.8591 28.2476 56.2169 29.383C56.2513 29.4681 56.2891 29.556 56.3303 29.644C56.3708 29.7319 56.4127 29.8171 56.456 29.8995C56.7273 30.438 56.9428 30.7073 57.1024 30.7073C57.2102 30.7073 57.3352 30.1409 57.4774 29.0079L58.4274 29.5121C58.1561 31.0851 57.7554 31.8714 57.2253 31.8709C56.8242 31.8709 56.3694 31.5174 55.8611 30.8104C55.7572 30.6511 55.6686 30.4822 55.5966 30.3062C55.0475 30.9857 54.3792 31.5597 53.6245 32.0001L53.0112 31.1153C53.8612 30.6407 54.5805 29.9629 55.1049 29.1426C55.0272 28.8884 54.9487 28.6269 54.8693 28.3581C54.7895 28.0888 54.7215 27.8077 54.6653 27.5146C54.4782 26.6567 54.3552 25.786 54.2971 24.9099H47.7817V23.8877H50.5932V23.0291H48.3959L48.3958 22.0208ZM53.7152 29.4599V30.4299C53.4308 30.4642 53.1432 30.4963 52.8525 30.5261C52.5619 30.5563 52.2672 30.5893 51.9704 30.6236V31.9617H50.8844V30.7596C50.475 30.794 50.0589 30.826 49.6363 30.8558C49.2145 30.886 48.7852 30.9258 48.3504 30.9725L48.2082 29.9257C48.6863 29.9079 49.1451 29.8832 49.5848 29.8515C50.0244 29.8186 50.4576 29.7892 50.8844 29.7636V28.8912H48.7255L48.4989 28.0051C48.8009 27.6166 49.063 27.1986 49.2812 26.7576H48.1437V25.7685H49.714C49.7696 25.6465 49.8151 25.5202 49.85 25.3907C49.8844 25.2643 49.9274 25.1297 49.9792 24.9868L51.0391 25.175C50.9965 25.2946 50.9621 25.4017 50.936 25.4951C50.9091 25.5899 50.8723 25.6815 50.8261 25.7685H53.7667V26.7577H50.4318C50.3157 26.9912 50.1983 27.2069 50.0794 27.4048C49.9606 27.6027 49.8495 27.7946 49.7463 27.9804H50.8845V27.1973H51.9705V27.9803H53.6507V28.8912H51.9705V29.6468C52.2672 29.622 52.5619 29.5918 52.8525 29.5602C53.143 29.5272 53.4306 29.4938 53.7152 29.4599ZM55.609 21.7803L56.4299 21.2253C56.9249 21.7756 57.3849 22.3565 57.8071 22.9645L56.9732 23.558C56.8049 23.2915 56.6078 23.0085 56.3818 22.709C56.1551 22.4095 55.8975 22.1 55.609 21.7803L55.609 21.7803Z" fill="white"/>
<path d="M21.7767 16.2435C21.792 15.1112 22.1089 14.0009 22.6978 13.0161C23.2867 12.0312 24.1285 11.2037 25.1449 10.6106C24.4992 9.73538 23.6474 9.01508 22.6572 8.50694C21.6669 7.99881 20.5655 7.71684 19.4403 7.68342C17.0402 7.4443 14.7134 9.04663 13.4904 9.04663C12.2437 9.04663 10.3606 7.70716 8.3328 7.74677C7.02118 7.78699 5.7429 8.14901 4.62252 8.79757C3.50213 9.44613 2.57785 10.3591 1.93972 11.4475C-0.824517 15.9902 1.23735 22.6663 3.88526 26.3382C5.21007 28.1362 6.75838 30.1447 8.78432 30.0735C10.7668 29.9954 11.5073 28.8735 13.9003 28.8735C16.2711 28.8735 16.9658 30.0735 19.0329 30.0282C21.1602 29.9954 22.5005 28.2222 23.7788 26.4071C24.7307 25.1259 25.4632 23.71 25.9491 22.2117C24.7132 21.7155 23.6585 20.885 22.9165 19.8237C22.1745 18.7624 21.7781 17.5172 21.7767 16.2435Z" fill="white"/>
<path d="M17.8724 5.2687C19.0323 3.94705 19.6038 2.24828 19.4654 0.533159C17.6933 0.709823 16.0564 1.51372 14.8809 2.78467C14.3061 3.40556 13.8659 4.12789 13.5854 4.91036C13.3049 5.69283 13.1896 6.52011 13.2462 7.34489C14.1325 7.35355 15.0094 7.1712 15.8107 6.81157C16.6121 6.45194 17.317 5.92441 17.8724 5.2687Z" fill="white"/>
</svg>
