<svg width="171" height="64" viewBox="0 0 171 64" fill="none" xmlns="http://www.w3.org/2000/svg">
<path d="M66.1388 33H68.7428L70.2968 29.682H76.5338L78.0878 33H80.7128L73.4258 17.922L66.1388 33ZM73.4258 23.046L75.4838 27.456H71.3468L73.4258 23.046ZM81.9701 33H84.2801V26.385C84.7001 25.125 85.6031 24.537 86.7791 24.537C88.3331 24.537 89.1731 25.776 89.1731 26.889V33H91.4831V26.847C91.4831 24.138 89.8241 22.332 87.2201 22.332C86.1281 22.332 85.0151 22.668 84.2801 23.487V22.5H81.9701V33ZM101.374 33H103.684V18.09H101.374V23.277C100.639 22.689 99.6732 22.332 98.5602 22.332C95.4522 22.332 93.1632 24.684 93.1632 27.75C93.1632 30.816 95.4522 33.168 98.5602 33.168C99.6732 33.168 100.639 32.832 101.374 32.244V33ZM98.5812 30.963C96.7962 30.963 95.5362 29.598 95.5362 27.75C95.5362 25.902 96.7962 24.537 98.5812 24.537C99.7572 24.537 100.807 25.104 101.374 25.965V29.535C100.807 30.396 99.7572 30.963 98.5812 30.963ZM106.211 33H108.521V25.944C109.004 25.041 109.844 24.684 110.831 24.684C111.314 24.684 111.692 24.726 111.986 24.831V22.416C111.755 22.374 111.503 22.353 111.23 22.353C110.075 22.353 109.172 22.752 108.521 23.529V22.5H106.211V33ZM118.003 30.963C116.197 30.963 114.937 29.598 114.937 27.75C114.937 25.902 116.197 24.537 118.003 24.537C119.767 24.537 121.069 25.902 121.069 27.75C121.069 29.598 119.767 30.963 118.003 30.963ZM118.003 33.168C121.111 33.168 123.442 30.816 123.442 27.75C123.442 24.684 121.111 22.332 118.003 22.332C114.874 22.332 112.564 24.684 112.564 27.75C112.564 30.816 114.874 33.168 118.003 33.168ZM127.635 20.463C127.887 20.169 128.013 19.833 128.013 19.455C128.013 18.615 127.32 17.922 126.48 17.922C125.64 17.922 124.947 18.615 124.947 19.455C124.947 19.833 125.073 20.169 125.325 20.463H127.635ZM125.325 33H127.635V22.5H125.325V33ZM137.736 33H140.046V18.09H137.736V23.277C137.001 22.689 136.035 22.332 134.922 22.332C131.814 22.332 129.525 24.684 129.525 27.75C129.525 30.816 131.814 33.168 134.922 33.168C136.035 33.168 137.001 32.832 137.736 32.244V33ZM134.943 30.963C133.158 30.963 131.898 29.598 131.898 27.75C131.898 25.902 133.158 24.537 134.943 24.537C136.119 24.537 137.169 25.104 137.736 25.965V29.535C137.169 30.396 136.119 30.963 134.943 30.963Z" fill="white"/>
<path d="M65.8639 36.7046H76.3605V37.8023H71.3708V39.3547C72.0859 39.6857 72.8055 40.0507 73.5297 40.4496C74.2538 40.848 74.9862 41.2757 75.7271 41.7327L75.0808 42.7411C74.3183 42.2548 73.6332 41.8262 73.0255 41.4552C72.4176 41.0843 71.866 40.7761 71.3708 40.5306V47.0136H70.2587V37.8023H65.8639L65.8639 36.7046Z" fill="white"/>
<path d="M78.9746 37.0342H81.1719V36.1481H82.258V37.0342H84.294V38.0426H82.258V38.9012H84.8242C84.8071 38.4795 84.7899 38.0389 84.7727 37.5796C84.7549 37.1208 84.7462 36.6395 84.7466 36.1357H85.8258C85.8258 36.6482 85.8333 37.1318 85.8484 37.5865C85.8635 38.0412 85.8798 38.4795 85.8972 38.9012H88.754V39.9233H85.9487C85.983 40.3973 86.0272 40.83 86.0813 41.2216C86.1349 41.6145 86.1836 41.9648 86.2269 42.2752C86.26 42.3782 86.286 42.4833 86.3045 42.5898C86.3217 42.6901 86.3389 42.7932 86.356 42.8962C86.5384 42.5027 86.698 42.099 86.8341 41.6873C86.9763 41.2614 87.1057 40.8048 87.2222 40.3176L88.2114 40.7696C87.9145 42.0397 87.4378 43.261 86.7957 44.3964C86.83 44.4816 86.8678 44.5694 86.909 44.6574C86.9495 44.7454 86.9914 44.8305 87.0347 44.913C87.3061 45.4515 87.5215 45.7208 87.6811 45.7208C87.789 45.7208 87.914 45.1543 88.0561 44.0214L89.0061 44.5256C88.7348 46.0986 88.3341 46.8849 87.804 46.8844C87.4029 46.8844 86.9482 46.5309 86.4399 45.8238C86.3359 45.6645 86.2474 45.4957 86.1754 45.3196C85.6262 45.9992 84.9579 46.5732 84.2033 47.0135L83.5899 46.1288C84.44 45.6541 85.1593 44.9764 85.6836 44.156C85.606 43.9019 85.5274 43.6404 85.448 43.3716C85.3683 43.1023 85.3003 42.8211 85.244 42.528C85.057 41.6701 84.9339 40.7995 84.8758 39.9233H78.3605V38.9012H81.172V38.0426H78.9746L78.9746 37.0342ZM84.2939 44.4734V45.4434C84.0096 45.4777 83.722 45.5098 83.4312 45.5395C83.1406 45.5697 82.846 45.6027 82.5491 45.6371V46.9751H81.4631V45.7731C81.0537 45.8074 80.6377 45.8395 80.215 45.8692C79.7932 45.8995 79.3639 45.9393 78.9291 45.986L78.7869 44.9392C79.265 44.9213 79.7239 44.8966 80.1635 44.865C80.6031 44.832 81.0363 44.8027 81.4631 44.7771V43.9046H79.3043L79.0776 43.0185C79.3796 42.63 79.6417 42.2121 79.86 41.7711H78.7225V40.782H80.2927C80.3484 40.66 80.3939 40.5336 80.4287 40.4042C80.4631 40.2778 80.5061 40.1431 80.5579 40.0003L81.6178 40.1885C81.5752 40.3081 81.5408 40.4152 81.5147 40.5086C81.4879 40.6033 81.451 40.695 81.4049 40.782H84.3455V41.7711H81.0105C80.8945 42.0047 80.777 42.2204 80.6582 42.4182C80.5393 42.6161 80.4283 42.808 80.325 42.9939H81.4632V42.2107H82.5492V42.9938H84.2294V43.9046H82.5492V44.6602C82.846 44.6355 83.1406 44.6053 83.4313 44.5737C83.7218 44.5407 84.0093 44.5073 84.2939 44.4734ZM86.1877 36.7938L87.0086 36.2388C87.5037 36.7891 87.9636 37.37 88.3858 37.978L87.5519 38.5715C87.3836 38.305 87.1865 38.022 86.9605 37.7225C86.7338 37.423 86.4762 37.1134 86.1877 36.7938L86.1877 36.7938Z" fill="white"/>
<path d="M46.3638 36.7585C46.1001 36.7585 45.8424 36.676 45.6232 36.5214C45.404 36.3669 45.2331 36.1472 45.1322 35.8902C45.0313 35.6332 45.0049 35.3504 45.0563 35.0776C45.1078 34.8047 45.2347 34.5541 45.4212 34.3574C45.6076 34.1607 45.8451 34.0267 46.1037 33.9724C46.3623 33.9182 46.6303 33.946 46.8739 34.0525C47.1175 34.1589 47.3257 34.3392 47.4722 34.5705C47.6186 34.8018 47.6968 35.0738 47.6968 35.352C47.6965 35.7249 47.5559 36.0824 47.306 36.3461C47.0561 36.6098 46.7172 36.7581 46.3638 36.7585ZM31.6362 36.7585C31.3725 36.7588 31.1146 36.6765 30.8952 36.5222C30.6758 36.3678 30.5048 36.1482 30.4037 35.8912C30.3025 35.6342 30.276 35.3514 30.3272 35.0785C30.3785 34.8055 30.5054 34.5548 30.6917 34.3579C30.8781 34.1611 31.1156 34.0269 31.3743 33.9726C31.6329 33.9182 31.901 33.9459 32.1446 34.0523C32.3883 34.1588 32.5966 34.339 32.7431 34.5704C32.8897 34.8017 32.9679 35.0737 32.9679 35.352C32.9675 35.7246 32.8271 36.0819 32.5775 36.3456C32.3279 36.6092 31.9894 36.7577 31.6362 36.7585ZM46.8416 28.2914L49.5049 23.4236C49.5634 23.2906 49.5728 23.1393 49.5311 22.9994C49.4893 22.8595 49.3995 22.7411 49.2793 22.6674C49.1591 22.5938 49.0171 22.5702 48.8813 22.6013C48.7454 22.6325 48.6255 22.7161 48.5451 22.8357L45.8484 27.7681C43.6945 26.7489 41.3606 26.222 39 26.222C36.6394 26.222 34.3055 26.7489 32.1516 27.7681L29.4549 22.8401C29.4222 22.766 29.3753 22.6999 29.3171 22.646C29.2589 22.5921 29.1907 22.5516 29.1169 22.5271C29.043 22.5026 28.9651 22.4946 28.8881 22.5036C28.8112 22.5126 28.7368 22.5384 28.6699 22.5795C28.6029 22.6205 28.5448 22.6758 28.4992 22.7418C28.4536 22.8079 28.4216 22.8832 28.4051 22.9631C28.3887 23.0429 28.3882 23.1255 28.4037 23.2056C28.4192 23.2856 28.4503 23.3614 28.4951 23.428L31.1584 28.2958C28.858 29.6171 26.9069 31.5239 25.4821 33.8429C24.0574 36.1618 23.2042 38.8196 23 41.5748H55C54.7965 38.8188 53.9436 36.1602 52.5188 33.8404C51.0941 31.5206 49.1425 29.6131 46.8416 28.2914Z" fill="#3DDC84"/>
</svg>
