<svg width="208" height="166" viewBox="0 0 208 166" fill="none" xmlns="http://www.w3.org/2000/svg">
<path fill-rule="evenodd" clip-rule="evenodd" d="M94.9712 108.956L112.029 108.956L112.029 115.044L94.9712 115.044L94.9712 108.956ZM114 107L114 117L93 117L93 107L114 107Z" fill="white"/>
<path fill-rule="evenodd" clip-rule="evenodd" d="M119 118C119.552 118 120 117.552 120 117L120 116.443C120 115.891 119.552 115.443 119 115.443L87.7614 115.443C87.2091 115.443 86.7614 115.891 86.7614 116.443L86.7614 117C86.7614 117.552 87.2091 118 87.7614 118L119 118Z" fill="white"/>
<path fill-rule="evenodd" clip-rule="evenodd" d="M189 63H115L115 117H189V63ZM115 60C113.343 60 112 61.3431 112 63V118H192V63C192 61.3431 190.657 60 189 60H115Z" fill="white"/>
<path fill-rule="evenodd" clip-rule="evenodd" d="M150.655 98.7681L141.58 94.8702C140.807 94.5299 140.807 94.004 141.58 93.6946L144.739 92.3335L150.622 94.8702C151.395 95.2105 152.639 95.2105 153.378 94.8702L159.261 92.3335L162.42 93.6946C163.193 94.0349 163.193 94.5608 162.42 94.8702L153.345 98.7681C152.639 99.0774 151.395 99.0774 150.655 98.7681Z" fill="white" fill-opacity="0.5"/>
<path fill-rule="evenodd" clip-rule="evenodd" d="M150.626 93.7441L141.578 89.8417C140.807 89.501 140.807 88.9745 141.578 88.6648L144.661 87.333L150.626 89.9036C151.397 90.2443 152.637 90.2443 153.374 89.9036L159.339 87.333L162.422 88.6648C163.193 89.0055 163.193 89.532 162.422 89.8417L153.374 93.7441C152.603 94.0848 151.363 94.0848 150.626 93.7441Z" fill="white" fill-opacity="0.7"/>
<path fill-rule="evenodd" clip-rule="evenodd" d="M150.626 88.7546L141.578 84.6336C140.807 84.2739 140.807 83.7179 141.578 83.3908L150.626 79.2698C151.397 78.9101 152.637 78.9101 153.374 79.2698L162.422 83.3908C163.193 83.7506 163.193 84.3066 162.422 84.6336L153.374 88.7546C152.603 89.0817 151.363 89.0817 150.626 88.7546Z" fill="white"/>
<path fill-rule="evenodd" clip-rule="evenodd" d="M203.643 117.002C204.475 116.269 205 115.196 205 114L101 114C101 115.196 101.525 116.269 102.357 117.002C103.062 117.623 103.987 118 105 118L201 118C202.013 118 202.938 117.623 203.643 117.002ZM158.989 115.999C160.092 115.999 160.987 115.104 160.987 114L145 114C145 115.104 145.894 115.999 146.998 115.999L158.989 115.999Z" fill="white"/>
<g filter="url(#filter0_d)">
<path fill-rule="evenodd" clip-rule="evenodd" d="M52.0114 45.0114H155.989V62.1086H158V45.0114C158 43.9005 157.099 43 155.989 43H52.0114C50.9005 43 50 43.9006 50 45.0114V106.989C50 108.099 50.9005 109 52.0114 109H114.366V106.989L52.0114 106.989V45.0114Z" fill="white"/>
</g>
<path fill-rule="evenodd" clip-rule="evenodd" d="M99.6555 87.7681L90.5798 83.8702C89.8067 83.5299 89.8067 83.004 90.5798 82.6946L93.7395 81.3335L99.6218 83.8702C100.395 84.2105 101.639 84.2105 102.378 83.8702L108.261 81.3335L111.42 82.6946C112.193 83.0349 112.193 83.5608 111.42 83.8702L102.345 87.7681C101.639 88.0774 100.395 88.0774 99.6555 87.7681Z" fill="white" fill-opacity="0.5"/>
<path fill-rule="evenodd" clip-rule="evenodd" d="M99.626 82.7441L90.5781 78.8417C89.8073 78.501 89.8073 77.9745 90.5781 77.6648L93.6611 76.333L99.626 78.9036C100.397 79.2443 101.637 79.2443 102.374 78.9036L108.339 76.333L111.422 77.6648C112.193 78.0055 112.193 78.532 111.422 78.8417L102.374 82.7441C101.603 83.0848 100.363 83.0848 99.626 82.7441Z" fill="white" fill-opacity="0.7"/>
<path fill-rule="evenodd" clip-rule="evenodd" d="M99.626 77.7546L90.5781 73.6336C89.8073 73.2739 89.8073 72.7179 90.5781 72.3908L99.626 68.2698C100.397 67.9101 101.637 67.9101 102.374 68.2698L111.422 72.3908C112.193 72.7506 112.193 73.3066 111.422 73.6336L102.374 77.7546C101.603 78.0817 100.363 78.0817 99.626 77.7546Z" fill="white"/>
<circle cx="152" cy="54" r="12" fill="white"/>
<path fill-rule="evenodd" clip-rule="evenodd" d="M150 56.0002V60.6668H154V56.0002H158.667V52.0002H154V47.3335H150V52.0002H145.333V56.0002H150Z" fill="url(#paint0_linear)"/>
<defs>
<filter id="filter0_d" x="0" y="0" width="208" height="166" filterUnits="userSpaceOnUse" color-interpolation-filters="sRGB">
<feFlood flood-opacity="0" result="BackgroundImageFix"/>
<feColorMatrix in="SourceAlpha" type="matrix" values="0 0 0 0 0 0 0 0 0 0 0 0 0 0 0 0 0 0 127 0"/>
<feOffset dy="7"/>
<feGaussianBlur stdDeviation="25"/>
<feColorMatrix type="matrix" values="0 0 0 0 0.2 0 0 0 0 0.262745 0 0 0 0 0.32549 0 0 0 1 0"/>
<feBlend mode="normal" in2="BackgroundImageFix" result="effect1_dropShadow"/>
<feBlend mode="normal" in="SourceGraphic" in2="effect1_dropShadow" result="shape"/>
</filter>
<linearGradient id="paint0_linear" x1="145.334" y1="46.8127" x2="158.667" y2="60.6668" gradientUnits="userSpaceOnUse">
<stop stop-color="#FF8E3D"/>
<stop offset="1" stop-color="#FF6F3D"/>
</linearGradient>
</defs>
</svg>
