<svg width="2039" height="1735" viewBox="0 0 2039 1735" fill="none" xmlns="http://www.w3.org/2000/svg">
<path opacity="0.5" fill-rule="evenodd" clip-rule="evenodd" d="M1292.01 431.413L1763.67 943.29C1804.27 987.92 1786.21 1025.02 1723.29 1026.22L975.577 1059.09C911.599 1062.47 854.066 1057.04 789.151 985.563L309.189 468.476C268.586 423.846 286.649 386.746 349.565 385.546L1097.28 352.674C1196.12 348.008 1252.62 389.862 1292.01 431.413Z" fill="white"/>
<path opacity="0.5" fill-rule="evenodd" clip-rule="evenodd" d="M1315.64 773.345L1982.6 757.768C2040.43 755.735 2056.27 715.441 2018 667.699L1576.76 86.8395C1519.16 8.14713 1472.08 -2.82474 1407.11 1.13205L731.14 17.5763C673.308 19.6092 657.473 59.9035 695.743 107.646L1136.98 688.505C1195.5 765.515 1249.94 778.848 1315.64 773.345Z" fill="white"/>
<path opacity="0.5" fill-rule="evenodd" clip-rule="evenodd" d="M622.038 1332.08L1275.25 1345.2C1333.28 1345.82 1351.95 1310.09 1316.99 1265.33L916.021 721.774C882.157 674.911 808.244 636.718 752.214 637.131L74.4596 623.273C16.432 622.653 -2.24009 658.386 32.7219 703.147L433.69 1246.7C472.265 1302.55 533.874 1330.65 622.038 1332.08Z" fill="white"/>
</svg>
