<svg width="64" height="64" viewBox="0 0 64 64" fill="none" xmlns="http://www.w3.org/2000/svg">
<g clip-path="url(#clip0_8936_272410)">
<path fill-rule="evenodd" clip-rule="evenodd" d="M12.8943 54.9266L12.9012 54.9287C13.5083 55.3458 12.9761 55.9997 12.6032 55.8833C11.2841 55.4924 10.0697 54.7997 9.0573 53.8608C6.84105 51.6445 5.31535 46.4658 8.05515 43.726C9.10241 42.7069 10.491 42.1101 11.9616 42.0469C12.8039 42.0317 13.6139 41.7429 14.2694 41.2239C13.8209 40.3918 11.4919 38.1176 4.98272 34.1765C3.38642 33.2056 2.85867 31.1368 3.80397 29.5559C3.94389 29.322 4.11218 29.1065 4.30518 28.9144L12.4917 20.7279C13.2145 20.0039 14.3124 19.7999 15.2642 20.2126C16.2326 20.6291 16.8574 21.5914 16.8395 22.6391C16.7244 23.9674 17.1605 25.2934 18.0455 26.3073C19.5806 27.8424 21.887 26.178 23.5547 24.5104C25.2224 22.8427 26.8867 20.5361 25.3517 19.0011C24.3346 18.1156 23.0049 17.6814 21.6743 17.8005C20.6266 17.8184 19.6643 17.1937 19.2478 16.2253C18.8351 15.2735 19.0392 14.1757 19.7631 13.4528L27.9497 5.26628C29.2481 3.96208 31.375 3.97453 32.7002 5.29412C32.8963 5.48937 33.0681 5.70756 33.2118 5.94373C37.1509 12.4399 39.4196 14.7744 40.2593 15.2305C40.7782 14.5749 41.0671 13.7649 41.0822 12.9227C41.1454 11.4521 41.7423 10.0634 42.7613 9.01617C45.5011 6.27636 50.6798 7.80207 52.8961 10.0183C55.1123 12.2346 56.638 17.4133 53.8982 20.1531C52.851 21.1721 51.4623 21.769 49.9917 21.8322C49.1495 21.8473 48.3395 22.1362 47.6839 22.6551C48.1325 23.4873 50.4615 25.7615 56.9707 29.7026C57.3931 29.96 57.7405 30.2943 58.0056 30.676C58.3705 31.1806 58.5677 31.7622 58.6064 32.354C58.66 33.0238 58.5144 33.7129 58.1457 34.3279C58.0062 34.5608 57.8385 34.7752 57.6463 34.9665L57.6457 34.9659C57.6252 34.9873 57.6045 35.0085 57.5834 35.0295L49.3969 43.216C48.674 43.9399 47.5762 44.144 46.6244 43.7313C45.656 43.3148 45.0312 42.3525 45.0491 41.3048C45.1682 39.9742 44.7341 38.6445 43.8485 37.6274C42.5618 36.3407 40.8039 37.4328 39.5247 38.2275C39.4703 38.2613 39.4167 38.2946 39.3641 38.3271C39.3641 38.3271 38.4332 39.0945 38.3111 38.0604C38.6537 37.4969 39.7061 36.8679 40.7387 36.4106C41.3207 36.1529 41.9737 35.9791 42.6482 36.0288C43.3481 36.0804 44.0042 36.3689 44.5556 36.9203L44.58 36.9447L44.6027 36.9708C45.6559 38.1803 46.1796 39.7614 46.0487 41.3519C46.0501 41.9792 46.4302 42.5592 47.0195 42.8127L47.0222 42.8139C47.6041 43.0662 48.2619 42.9374 48.6892 42.5094L56.8778 34.3208C57.3546 33.8462 57.6152 33.2071 57.6161 32.5705C57.6057 32.0824 57.4447 31.5996 57.1483 31.1957C57.0931 31.1251 57.0329 31.0568 56.9675 30.9911C56.9276 30.9511 56.8938 30.9122 56.8656 30.8745C56.7419 30.7568 56.6037 30.6501 56.4514 30.5572C53.1727 28.572 50.9247 26.9934 49.4287 25.7929C47.9735 24.6251 47.1328 23.7401 46.8037 23.1296L46.4058 22.3915L47.0633 21.8711C47.8885 21.2178 48.9054 20.8546 49.96 20.8326C51.1807 20.7775 52.3293 20.2821 53.1959 19.4412C54.251 18.3822 54.5547 16.7825 54.269 15.0522C53.9827 13.3178 53.1315 11.6679 52.189 10.7254C51.2465 9.78293 49.5966 8.93168 47.8622 8.64537C46.1319 8.35974 44.5322 8.6634 43.4732 9.71854C42.6323 10.5851 42.1369 11.7337 42.0818 12.9544C42.0598 14.009 41.6966 15.0259 41.0433 15.8511L40.5212 16.5107L39.782 16.1092C39.1695 15.7765 38.2849 14.9338 37.1176 13.4776C35.918 11.9812 34.3414 9.73515 32.3571 6.46288C32.2553 6.29561 32.1335 6.14103 31.9946 6.00274C31.05 5.06212 29.5564 5.06972 28.6583 5.97182L20.4697 14.1604C20.0418 14.5877 19.9129 15.2455 20.1653 15.8274L20.1664 15.8301C20.4199 16.4195 21 16.7996 21.6272 16.8009C23.2177 16.6701 24.7988 17.1938 26.0084 18.247L26.0344 18.2696L26.0588 18.294C26.6102 18.8455 26.8987 19.5016 26.9503 20.2015C27 20.8759 26.8263 21.529 26.5686 22.1109C26.0598 23.2598 25.1206 24.3587 24.2618 25.2175C23.4031 26.0762 22.3042 27.0154 21.1553 27.5242C20.5734 27.7819 19.9203 27.9557 19.2459 27.906C18.5459 27.8544 17.8898 27.5659 17.3384 27.0144L17.3144 26.9905L17.2921 26.9649C16.2393 25.7588 15.7133 24.1814 15.8398 22.5931C15.839 21.9656 15.4588 21.3849 14.869 21.1312L14.8663 21.13C14.2843 20.8777 13.6259 21.0071 13.1988 21.435L5.01229 29.6215L5.01069 29.6231C4.87663 29.7566 4.75958 29.9064 4.66213 30.0693C4.0059 31.167 4.36389 32.6288 5.50125 33.3214C8.78037 35.3069 11.0286 36.8855 12.5247 38.0862C13.9799 39.254 14.8206 40.1389 15.1497 40.7494L15.5476 41.4875L14.8901 42.008C14.0649 42.6613 13.048 43.0245 11.9933 43.0465C10.7727 43.1016 9.62406 43.597 8.75753 44.4378C7.70238 45.4968 7.39873 47.0966 7.68436 48.8268C7.96935 50.5533 8.81409 52.196 9.7514 53.1406C10.6486 53.9687 11.7225 54.5793 12.8874 54.9245L12.8943 54.9266Z" fill="#FF6F3D"/>
<path fill-rule="evenodd" clip-rule="evenodd" d="M7.98779 50.0201L7.98564 50.0133C7.56863 49.4062 6.91466 49.9383 7.03107 50.3112C7.42203 51.6303 8.11466 52.8447 9.05363 53.8571C11.2699 56.0734 16.4486 57.5991 19.1884 54.8593C20.2075 53.812 20.8043 52.4234 20.8675 50.9528C20.8827 50.1105 21.1715 49.3005 21.6904 48.645C22.5226 49.0936 24.7968 51.4226 28.7379 57.9317C29.7088 59.528 31.7775 60.0558 33.3585 59.1104C33.5924 58.9705 33.8079 58.8022 34 58.6092L42.1865 50.4227C42.9105 49.6999 43.1145 48.602 42.7018 47.6503C42.2853 46.6818 41.3229 46.057 40.2753 46.075C38.947 46.19 37.621 45.754 36.607 44.8689C35.072 43.3339 36.7363 41.0274 38.404 39.3597C40.0717 37.692 42.3783 36.0278 43.9132 37.5627C44.7988 38.5798 45.2329 39.9095 45.1138 41.2401C45.0959 42.2878 45.7207 43.2501 46.6891 43.6666C47.6409 44.0793 48.7387 43.8752 49.4616 43.1513L57.6481 34.9648C58.9523 33.6663 58.9399 31.5394 57.6203 30.2142C57.425 30.0181 57.2068 29.8463 56.9707 29.7026C50.4745 25.7635 48.14 23.4948 47.6839 22.6551C48.3395 22.1362 49.1495 21.8474 49.9917 21.8322C51.4623 21.769 52.851 21.1722 53.8982 20.1531C56.638 17.4133 55.1123 12.2346 52.8961 10.0183C50.6798 7.80209 45.5011 6.27638 42.7613 9.01619C41.7422 10.0634 41.1454 11.4521 41.0822 12.9227C41.0671 13.7649 40.7782 14.5749 40.2593 15.2305C39.4271 14.7819 37.1529 12.4529 33.2118 5.94375C32.9544 5.52137 32.6201 5.1739 32.2384 4.90882C31.7338 4.54387 31.1522 4.3467 30.5604 4.30798C29.8906 4.2544 29.2015 4.40006 28.5865 4.76868C28.3536 4.90826 28.1392 5.07587 27.9478 5.26809L27.9485 5.26874C27.9271 5.2892 27.9059 5.30996 27.8849 5.33104L19.6984 13.5176C18.9745 14.2404 18.7704 15.3383 19.1831 16.29C19.5996 17.2585 20.5619 17.8832 21.6096 17.8653C22.9402 17.7462 24.2699 18.1803 25.2869 19.0659C26.5737 20.3527 25.4816 22.1105 24.6869 23.3897C24.6531 23.4441 24.6198 23.4977 24.5873 23.5503C24.5873 23.5503 23.8199 24.4812 24.854 24.6033C25.4175 24.2608 26.0465 23.2083 26.5038 22.1757C26.7615 21.5938 26.9353 20.9407 26.8855 20.2663C26.8339 19.5663 26.5455 18.9102 25.9941 18.3588L25.9696 18.3344L25.9436 18.3117C24.7341 17.2586 23.153 16.7348 21.5625 16.8657C20.9352 16.8643 20.3552 16.4843 20.1017 15.8949L20.1005 15.8922C19.8482 15.3103 19.977 14.6525 20.405 14.2252L28.5936 6.03658C29.0682 5.55985 29.7073 5.29926 30.3439 5.29834C30.832 5.30875 31.3148 5.46973 31.7187 5.76612C31.7893 5.82129 31.8576 5.88154 31.9233 5.94694C31.9633 5.98683 32.0022 6.02061 32.0399 6.04879C32.1576 6.1725 32.2643 6.31075 32.3572 6.46298C34.3424 9.74172 35.9209 11.9897 37.1215 13.4857C38.2893 14.9409 39.1743 15.7816 39.7848 16.1107L40.5229 16.5086L41.0433 15.8512C41.6966 15.026 42.0598 14.0091 42.0818 12.9544C42.1369 11.7338 42.6323 10.5851 43.4732 9.71856C44.5322 8.66342 46.1319 8.35976 47.8622 8.64539C49.5966 8.9317 51.2465 9.78295 52.189 10.7254C53.1315 11.6679 53.9827 13.3178 54.269 15.0522C54.5546 16.7825 54.251 18.3822 53.1959 19.4412C52.3293 20.2821 51.1807 20.7775 49.96 20.8326C48.9053 20.8546 47.8885 21.2178 47.0632 21.8711L46.4037 22.3932L46.8052 23.1324C47.1379 23.7449 47.9806 24.6295 49.4368 25.7968C50.9332 26.9965 53.1792 28.573 56.4515 30.5573C56.6188 30.6591 56.7734 30.7809 56.9116 30.9198C57.8523 31.8644 57.8447 33.358 56.9426 34.2561L48.754 42.4447C48.3266 42.8726 47.6689 43.0015 47.087 42.7491L47.0842 42.748C46.4949 42.4945 46.1148 41.9144 46.1135 41.2872C46.2443 39.6967 45.7206 38.1156 44.6674 36.9061L44.6448 36.88L44.6204 36.8556C44.0689 36.3042 43.4128 36.0157 42.7129 35.9641C42.0384 35.9144 41.3854 36.0882 40.8035 36.3459C39.6546 36.8547 38.5557 37.7939 37.6969 38.6526C36.8382 39.5113 35.899 40.6102 35.3902 41.7591C35.1325 42.341 34.9587 42.9941 35.0084 43.6685C35.06 44.3685 35.3485 45.0246 35.8999 45.576L35.9239 45.6L35.9495 45.6223C37.1556 46.6751 38.7329 47.2011 40.3213 47.0746C40.9488 47.0754 41.5295 47.4556 41.7832 48.0454L41.7844 48.0481C42.0367 48.6301 41.9073 49.2885 41.4794 49.7156L33.2929 57.9021L33.2913 57.9037C33.1578 58.0378 33.008 58.1548 32.8451 58.2523C31.7474 58.9085 30.2856 58.5505 29.593 57.4132C27.6075 54.1341 26.0288 51.8858 24.8282 50.3897C23.6604 48.9345 22.7754 48.0938 22.1649 47.7647L21.4268 47.3668L20.9064 48.0243C20.2531 48.8495 19.8899 49.8664 19.8679 50.9211C19.8128 52.1417 19.3174 53.2904 18.4765 54.1569C17.4175 55.212 15.8178 55.5157 14.0875 55.2301C12.3611 54.9451 10.7184 54.1003 9.77379 53.163C8.94573 52.2659 8.3351 51.192 7.98984 50.0271L7.98779 50.0201Z" fill="#FF6F3D"/>
<path fill-rule="evenodd" clip-rule="evenodd" d="M11.8943 52.9266L11.9012 52.9287C12.5083 53.3458 11.9761 53.9997 11.6032 53.8833C10.2841 53.4924 9.06974 52.7997 8.05731 51.8608C5.84107 49.6445 4.31537 44.4658 7.05517 41.726C8.10243 40.7069 9.49106 40.1101 10.9617 40.0469C11.8039 40.0317 12.6139 39.7429 13.2695 39.2239C12.8209 38.3918 10.4919 36.1176 3.98273 32.1765C2.38644 31.2056 1.85869 29.1368 2.80399 27.5559C2.94391 27.322 3.1122 27.1065 3.30519 26.9144L11.4917 18.7279C12.2145 18.0039 13.3124 17.7999 14.2642 18.2126C15.2326 18.6291 15.8575 19.5914 15.8395 20.6391C15.7244 21.9674 16.1605 23.2934 17.0455 24.3073C18.5806 25.8424 20.887 24.178 22.5547 22.5104C24.2224 20.8427 25.8867 18.5361 24.3517 17.0011C23.3346 16.1156 22.0049 15.6814 20.6743 15.8005C19.6266 15.8184 18.6644 15.1937 18.2478 14.2253C17.8351 13.2735 18.0392 12.1757 18.7631 11.4528L26.9497 3.26628C28.2481 1.96208 30.375 1.97453 31.7003 3.29412C31.8964 3.48937 32.0681 3.70756 32.2118 3.94373C36.1509 10.4399 38.4197 12.7744 39.2593 13.2305C39.7783 12.5749 40.0671 11.7649 40.0822 10.9227C40.1454 9.45206 40.7423 8.06342 41.7613 7.01617C44.5011 4.27636 49.6799 5.80207 51.8961 8.01831C54.1124 10.2346 55.6381 15.4133 52.8982 18.1531C51.851 19.1721 50.4624 19.769 48.9918 19.8322C48.1495 19.8473 47.3395 20.1362 46.684 20.6551C47.1325 21.4873 49.4615 23.7615 55.9707 27.7026C56.3931 27.96 56.7405 28.2943 57.0056 28.676C57.3706 29.1806 57.5677 29.7622 57.6065 30.354C57.66 31.0238 57.5144 31.7129 57.1458 32.3279C57.0062 32.5608 56.8386 32.7752 56.6463 32.9665L56.6457 32.9659C56.6252 32.9873 56.6045 33.0085 56.5834 33.0295L48.3969 41.216C47.674 41.9399 46.5762 42.144 45.6244 41.7313C44.656 41.3148 44.0312 40.3525 44.0491 39.3048C44.1682 37.9742 43.7341 36.6445 42.8485 35.6274C41.5618 34.3407 39.8039 35.4328 38.5247 36.2275C38.4703 36.2613 38.4168 36.2946 38.3641 36.3271C38.3641 36.3271 37.4332 37.0945 37.3112 36.0604C37.6537 35.4969 38.7061 34.8679 39.7388 34.4106C40.3207 34.1529 40.9737 33.9791 41.6482 34.0288C42.3481 34.0804 43.0042 34.3689 43.5556 34.9203L43.5801 34.9447L43.6027 34.9708C44.6559 36.1803 45.1796 37.7614 45.0488 39.3519C45.0501 39.9792 45.4302 40.5592 46.0195 40.8127L46.0222 40.8139C46.6042 41.0662 47.2619 40.9374 47.6893 40.5094L55.8779 32.3208C56.3546 31.8462 56.6152 31.2071 56.6161 30.5705C56.6057 30.0824 56.4447 29.5996 56.1483 29.1957C56.0931 29.1251 56.0329 29.0568 55.9675 28.9911C55.9276 28.9511 55.8938 28.9122 55.8656 28.8745C55.7419 28.7568 55.6037 28.6501 55.4515 28.5572C52.1727 26.572 49.9247 24.9934 48.4287 23.7929C46.9735 22.6251 46.1328 21.7401 45.8037 21.1296L45.4058 20.3915L46.0633 19.8711C46.8885 19.2178 47.9054 18.8546 48.96 18.8326C50.1807 18.7775 51.3293 18.2821 52.1959 17.4412C53.251 16.3822 53.5547 14.7825 53.269 13.0522C52.9827 11.3178 52.1315 9.6679 51.189 8.72542C50.2465 7.78293 48.5967 6.93168 46.8622 6.64537C45.1319 6.35974 43.5322 6.6634 42.4732 7.71854C41.6323 8.58509 41.137 9.73374 41.0818 10.9544C41.0599 12.009 40.6966 13.0259 40.0434 13.8511L39.5212 14.5107L38.782 14.1092C38.1695 13.7765 37.285 12.9338 36.1176 11.4776C34.918 9.98117 33.3414 7.73515 31.3572 4.46288C31.2553 4.29561 31.1336 4.14103 30.9947 4.00274C30.05 3.06212 28.5565 3.06972 27.6583 3.97182L19.4697 12.1604C19.0418 12.5877 18.913 13.2455 19.1653 13.8274L19.1665 13.8301C19.4199 14.4195 20 14.7996 20.6272 14.8009C22.2177 14.6701 23.7988 15.1938 25.0084 16.247L25.0344 16.2696L25.0588 16.294C25.6103 16.8455 25.8987 17.5016 25.9503 18.2015C26 18.8759 25.8263 19.529 25.5686 20.1109C25.0598 21.2598 24.1206 22.3587 23.2618 23.2175C22.4031 24.0762 21.3042 25.0154 20.1553 25.5242C19.5734 25.7819 18.9204 25.9557 18.2459 25.906C17.5459 25.8544 16.8899 25.5659 16.3384 25.0144L16.3144 24.9905L16.2921 24.9649C15.2393 23.7588 14.7133 22.1814 14.8398 20.5931C14.839 19.9656 14.4588 19.3849 13.8691 19.1312L13.8663 19.13C13.2843 18.8777 12.626 19.0071 12.1988 19.435L4.0123 27.6215L4.0107 27.6231C3.87665 27.7566 3.75959 27.9064 3.66215 28.0693C3.00591 29.167 3.3639 30.6288 4.50127 31.3214C7.78039 33.3069 10.0286 34.8855 11.5247 36.0862C12.9799 37.254 13.8206 38.1389 14.1497 38.7494L14.5476 39.4875L13.8901 40.008C13.0649 40.6613 12.048 41.0245 10.9933 41.0465C9.77271 41.1016 8.62408 41.597 7.75754 42.4378C6.7024 43.4968 6.39875 45.0966 6.68437 46.8268C6.96937 48.5533 7.81411 50.196 8.75141 51.1406C9.64858 51.9687 10.7225 52.5793 11.8874 52.9245L11.8943 52.9266Z" fill="#333333"/>
<path fill-rule="evenodd" clip-rule="evenodd" d="M6.98783 48.0201L6.98568 48.0132C6.56866 47.4061 5.91469 47.9383 6.0311 48.3112C6.42206 49.6303 7.1147 50.8447 8.05366 51.8571C10.2699 54.0733 15.4486 55.5991 18.1884 52.8592C19.2075 51.812 19.8044 50.4234 19.8675 48.9528C19.8827 48.1105 20.1715 47.3005 20.6905 46.645C21.5226 47.0935 23.7968 49.4225 27.7379 55.9317C28.7089 57.528 30.7776 58.0557 32.3586 57.1104C32.5924 56.9705 32.8079 56.8022 33 56.6092L41.1865 48.4227C41.9106 47.6999 42.1146 46.602 41.7019 45.6502C41.2853 44.6818 40.323 44.057 39.2754 44.0749C37.9471 44.19 36.6211 43.7539 35.6071 42.8689C34.072 41.3338 35.7364 39.0274 37.4041 37.3597C39.0717 35.692 41.3783 34.0277 42.9133 35.5627C43.7989 36.5798 44.233 37.9095 44.1139 39.2401C44.096 40.2878 44.7207 41.2501 45.6892 41.6666C46.6409 42.0793 47.7387 41.8752 48.4616 41.1513L56.6481 32.9647C57.9523 31.6663 57.9399 29.5394 56.6203 28.2142C56.425 28.0181 56.2069 27.8463 55.9707 27.7026C49.4745 23.7635 47.14 21.4948 46.684 20.6551C47.3395 20.1362 48.1495 19.8473 48.9918 19.8322C50.4624 19.769 51.851 19.1721 52.8983 18.1531C55.6381 15.4133 54.1124 10.2346 51.8961 8.01831C49.6799 5.80207 44.5012 4.27637 41.7613 7.01617C40.7423 8.06343 40.1454 9.45206 40.0822 10.9227C40.0671 11.7649 39.7783 12.5749 39.2593 13.2305C38.4271 12.7819 36.1529 10.4529 32.2118 3.94373C31.9544 3.52135 31.6201 3.17388 31.2385 2.9088C30.7338 2.54385 30.1522 2.34668 29.5604 2.30796C28.8907 2.25438 28.2016 2.40004 27.5865 2.76866C27.3536 2.90824 27.1392 3.07585 26.9479 3.26808L26.9485 3.26873C26.9271 3.28918 26.9059 3.30994 26.8849 3.33102L18.6984 11.5175C17.9745 12.2404 17.7704 13.3382 18.1831 14.29C18.5996 15.2584 19.5619 15.8832 20.6096 15.8653C21.9402 15.7462 23.2699 16.1803 24.287 17.0659C25.5737 18.3526 24.4816 20.1105 23.6869 21.3897C23.6531 21.4441 23.6198 21.4977 23.5873 21.5503C23.5873 21.5503 22.82 22.4812 23.854 22.6033C24.4175 22.2607 25.0465 21.2083 25.5038 20.1757C25.7615 19.5937 25.9353 18.9407 25.8856 18.2662C25.834 17.5663 25.5455 16.9102 24.9941 16.3588L24.9697 16.3344L24.9436 16.3117C23.7341 15.2585 22.153 14.7348 20.5625 14.8657C19.9353 14.8643 19.3552 14.4842 19.1017 13.8949L19.1006 13.8922C18.8482 13.3103 18.9771 12.6525 19.405 12.2252L27.5936 4.03656C28.0682 3.55983 28.7073 3.29924 29.3439 3.29832C29.832 3.30873 30.3148 3.46971 30.7187 3.7661C30.7893 3.82127 30.8576 3.88152 30.9233 3.94692C30.9634 3.98681 31.0022 4.02059 31.0399 4.04877C31.1576 4.17248 31.2643 4.31073 31.3572 4.46296C33.3424 7.7417 34.921 9.98971 36.1215 11.4857C37.2893 12.9409 38.1743 13.7816 38.7848 14.1107L39.5229 14.5086L40.0434 13.8511C40.6966 13.0259 41.0599 12.009 41.0818 10.9544C41.137 9.73373 41.6324 8.58509 42.4732 7.71854C43.5322 6.6634 45.1319 6.35975 46.8622 6.64537C48.5967 6.93168 50.2465 7.78293 51.189 8.72542C52.1315 9.66791 52.9827 11.3178 53.2691 13.0522C53.5547 14.7825 53.251 16.3822 52.1959 17.4412C51.3293 18.2821 50.1807 18.7775 48.96 18.8326C47.9054 18.8546 46.8885 19.2178 46.0633 19.8711L45.4037 20.3932L45.8052 21.1324C46.1379 21.7449 46.9806 22.6295 48.4368 23.7968C49.9333 24.9964 52.1793 26.573 55.4515 28.5573C55.6188 28.6591 55.7734 28.7809 55.9117 28.9198C56.8523 29.8644 56.8447 31.358 55.9426 32.2561L47.754 40.4447C47.3267 40.8726 46.6689 41.0015 46.087 40.7491L46.0843 40.748C45.4949 40.4945 45.1149 39.9144 45.1135 39.2872C45.2443 37.6967 44.7206 36.1156 43.6675 34.906L43.6448 34.88L43.6204 34.8556C43.0689 34.3042 42.4129 34.0157 41.7129 33.9641C41.0385 33.9144 40.3854 34.0881 39.8035 34.3458C38.6546 34.8546 37.5557 35.7938 36.697 36.6526C35.8382 37.5113 34.899 38.6102 34.3902 39.7591C34.1325 40.341 33.9587 40.9941 34.0084 41.6685C34.06 42.3685 34.3485 43.0246 34.9 43.576L34.924 43.6L34.9495 43.6223C36.1557 44.6751 37.733 45.2011 39.3213 45.0746C39.9488 45.0754 40.5296 45.4556 40.7832 46.0454L40.7844 46.0481C41.0368 46.6301 40.9073 47.2885 40.4794 47.7156L32.2929 55.9021L32.2913 55.9037C32.1579 56.0378 32.0081 56.1548 31.8452 56.2523C30.7474 56.9085 29.2856 56.5505 28.593 55.4131C26.6076 52.134 25.0289 49.8858 23.8283 48.3897C22.6605 46.9345 21.7755 46.0938 21.165 45.7647L20.4269 45.3668L19.9064 46.0243C19.2532 46.8495 18.8899 47.8664 18.868 48.9211C18.8128 50.1417 18.3174 51.2903 17.4766 52.1569C16.4176 53.212 14.8179 53.5157 13.0876 53.23C11.3611 52.945 9.71845 52.1003 8.77383 51.163C7.94576 50.2658 7.33514 49.1919 6.98988 48.027L6.98783 48.0201Z" fill="#333333"/>
</g>
<defs>
<clipPath id="clip0_8936_272410">
<rect width="64" height="64" fill="white"/>
</clipPath>
</defs>
</svg>
