<svg width="64" height="64" viewBox="0 0 64 64" fill="none" xmlns="http://www.w3.org/2000/svg">
<path fill-rule="evenodd" clip-rule="evenodd" d="M18.4057 10.5624C18.1531 10.922 18.0166 11.4423 18.0166 12.0244V54.148C18.0166 55.2821 18.7324 56.0001 19.3932 56.0001H21.5166C21.7927 56.0001 22.0166 56.2239 22.0166 56.5001C22.0166 56.7762 21.7927 57.0001 21.5166 57.0001H19.3932C17.9812 57.0001 17.0166 55.6119 17.0166 54.148V12.0244C17.0166 11.3074 17.1815 10.5656 17.5873 9.98774C18.008 9.38852 18.6667 9 19.5466 9H21.5166C21.7927 9 22.0166 9.22386 22.0166 9.5C22.0166 9.77614 21.7927 10 21.5166 10H19.5466C18.9994 10 18.6431 10.2242 18.4057 10.5624Z" fill="#333333"/>
<path fill-rule="evenodd" clip-rule="evenodd" d="M12.3891 10.5624C12.1365 10.922 12 11.4423 12 12.0244V54.1479C12 55.282 12.7158 56 13.3766 56H15.5C15.7761 56 16 56.2239 16 56.5C16 56.7761 15.7761 57 15.5 57H13.3766C11.9646 57 11 55.6118 11 54.1479V12.0244C11 11.3074 11.1649 10.5656 11.5706 9.98774C11.9914 9.38852 12.6501 9 13.53 9H15.5C15.7761 9 16 9.22386 16 9.5C16 9.77614 15.7761 10 15.5 10H13.53C12.9828 10 12.6265 10.2242 12.3891 10.5624Z" fill="#333333"/>
<path fill-rule="evenodd" clip-rule="evenodd" d="M6.38905 10.5624C6.13655 10.922 6 11.4423 6 12.0244V54.1479C6 55.282 6.71578 56 7.37663 56H9.5C9.77614 56 10 56.2239 10 56.5C10 56.7761 9.77614 57 9.5 57H7.37663C5.96462 57 5 55.6118 5 54.1479V12.0244C5 11.3074 5.16493 10.5656 5.57065 9.98774C5.99139 9.38852 6.65013 9 7.52997 9H9.5C9.77614 9 10 9.22386 10 9.5C10 9.77614 9.77614 10 9.5 10H7.52997C6.98278 10 6.62654 10.2242 6.38905 10.5624Z" fill="#333333"/>
<path d="M48.3536 9.64645C48.2106 9.50345 47.9955 9.46067 47.8087 9.53806C47.6218 9.61545 47.5 9.79777 47.5 10V18.182C47.5 18.8578 47.6636 19.4574 48.0734 19.8877C48.4874 20.3225 49.072 20.5001 49.7316 20.5001H58C58.2022 20.5001 58.3845 20.3783 58.4619 20.1915C58.5393 20.0046 58.4966 19.7896 58.3536 19.6466L48.3536 9.64645Z" fill="url(#paint0_linear_912_5307)" stroke="#333333" stroke-linecap="round" stroke-linejoin="round"/>
<path fill-rule="evenodd" clip-rule="evenodd" d="M57.6051 19.5643L57.6027 19.5619L48.4152 10.3919L48.414 10.3906C48.3613 10.3384 48.3122 10.2887 48.2698 10.2456L48.2539 10.2295C48.2057 10.1807 48.1679 10.1426 48.1333 10.1091C48.0632 10.0411 48.0324 10.018 48.0198 10.0095C48.0092 10.007 47.9722 10 47.892 10H25.3447C24.5921 10 23.9968 10.6025 23.9968 11.3276V54.6724C23.9968 55.3975 24.5921 56 25.3447 56H56.649C57.4016 56 57.9968 55.3975 57.9968 54.6724V20.1093C57.9968 20.0214 57.988 19.9827 57.9852 19.9724C57.9837 19.9666 57.9832 19.9644 57.9766 19.9542C57.9658 19.9373 57.9406 19.9031 57.8761 19.8351C57.8258 19.7819 57.7729 19.7298 57.7013 19.6592C57.6726 19.631 57.6409 19.5998 57.6051 19.5643ZM49.1193 9.68173L58.3092 18.8541C58.3374 18.8821 58.3648 18.9091 58.3914 18.9353C58.7801 19.3182 58.9968 19.5316 58.9968 20.1093V54.6724C58.9968 55.9579 57.9457 57 56.649 57H25.3447C24.048 57 22.9968 55.9579 22.9968 54.6724V11.3276C22.9968 10.0421 24.048 9 25.3447 9H47.892C48.4457 9 48.6369 9.19385 48.982 9.54364C49.025 9.58727 49.0704 9.63333 49.1193 9.68173Z" fill="#333333"/>
<path fill-rule="evenodd" clip-rule="evenodd" d="M48.9971 33H52.9971H53.9971V34V36V37V39V40H48.9971H32.9971H27.9971V39V37V36V34V33H28.9971H32.9971H33.9971H37.9971H38.9971H42.9971H43.9971H47.9971H48.9971ZM32.9971 39V37H28.9971V39H32.9971ZM32.9971 36V34H28.9971V36H32.9971ZM48.9971 39H52.9971V37H48.9971V39ZM48.9971 36H52.9971V34H48.9971V36ZM42.9971 34H38.9971V36H42.9971V34ZM42.9971 37H38.9971V39H42.9971V37ZM43.9971 39H47.9971V37H43.9971V39ZM43.9971 36V34H47.9971V36H43.9971ZM33.9971 34H37.9971V36H33.9971V34ZM33.9971 37H37.9971V39H33.9971V37Z" fill="#333333"/>
<path d="M57 54H25C29.8738 54 30.7109 48.5 34.1429 48.5C37.5714 48.5 37.5714 51.8 41 51.8C44.4286 51.8 43.8571 43 49 43C53.5714 43 55.2857 52.35 57 54Z" fill="url(#paint1_linear_912_5307)"/>
<path d="M28 20.5C28 20.2239 28.2239 20 28.5 20H34.5C34.7761 20 35 20.2239 35 20.5C35 20.7761 34.7761 21 34.5 21H28.5C28.2239 21 28 20.7761 28 20.5Z" fill="#333333"/>
<path d="M28 15C28 14.4477 28.4477 14 29 14H42C42.5523 14 43 14.4477 43 15C43 15.5523 42.5523 16 42 16H29C28.4477 16 28 15.5523 28 15Z" fill="#333333"/>
<path d="M42 20.5C42 20.2239 42.2239 20 42.5 20H45.5C45.7761 20 46 20.2239 46 20.5C46 20.7761 45.7761 21 45.5 21H42.5C42.2239 21 42 20.7761 42 20.5Z" fill="#333333"/>
<path fill-rule="evenodd" clip-rule="evenodd" d="M39 29.5024C39 29.2249 38.7429 29 38.4258 29H31.5742C31.2571 29 31 29.2249 31 29.5024C31 29.7799 31.2571 30.0048 31.5742 30.0048H38.4258C38.7429 30.0048 39 29.7799 39 29.5024Z" fill="#333333"/>
<path fill-rule="evenodd" clip-rule="evenodd" d="M53.0381 29.5024C53.0381 29.2249 52.8132 29 52.5357 29H45.5405C45.263 29 45.0381 29.2249 45.0381 29.5024C45.0381 29.7799 45.263 30.0048 45.5405 30.0048H52.5357C52.8132 30.0048 53.0381 29.7799 53.0381 29.5024Z" fill="#333333"/>
<rect x="28.5" y="23.5" width="11" height="3" rx="0.5" stroke="#333333"/>
<rect x="42.5" y="23.5" width="11" height="3" rx="0.5" stroke="#333333"/>
<circle cx="29.5" cy="29.5" r="0.5" fill="#333333"/>
<circle cx="43.5381" cy="29.5" r="0.5" fill="#333333"/>
<defs>
<linearGradient id="paint0_linear_912_5307" x1="48" y1="9.60937" x2="58.0002" y2="20" gradientUnits="userSpaceOnUse">
<stop stop-color="#FFC671"/>
<stop offset="0.59375" stop-color="#FF7541"/>
<stop offset="1" stop-color="#FF6F3D"/>
</linearGradient>
<linearGradient id="paint1_linear_912_5307" x1="25.0001" y1="42.5703" x2="31.5651" y2="62.4146" gradientUnits="userSpaceOnUse">
<stop stop-color="#FFC671"/>
<stop offset="0.59375" stop-color="#FF7541"/>
<stop offset="1" stop-color="#FF6F3D"/>
</linearGradient>
</defs>
</svg>
