<svg width="170" height="64" viewBox="0 0 170 64" fill="none" xmlns="http://www.w3.org/2000/svg">
<path d="M40.2433 31.5748C40.2573 30.5445 40.5456 29.5343 41.0814 28.6382C41.6173 27.742 42.3832 26.9891 43.308 26.4495C42.7205 25.6531 41.9455 24.9977 41.0445 24.5354C40.1435 24.073 39.1413 23.8165 38.1175 23.7861C35.9337 23.5685 33.8166 25.0264 32.7037 25.0264C31.5694 25.0264 29.856 23.8077 28.0109 23.8437C26.8175 23.8803 25.6544 24.2097 24.635 24.7998C23.6156 25.3899 22.7746 26.2206 22.194 27.211C19.6788 31.3442 21.5549 37.4188 23.9642 40.7598C25.1696 42.3958 26.5784 44.2233 28.4218 44.1585C30.2256 44.0874 30.8993 43.0667 33.0767 43.0667C35.2339 43.0667 35.866 44.1585 37.7468 44.1172C39.6824 44.0874 40.9019 42.474 42.0651 40.8225C42.9312 39.6568 43.5976 38.3684 44.0397 37.0051C42.9152 36.5536 41.9555 35.798 41.2804 34.8323C40.6053 33.8666 40.2446 32.7337 40.2433 31.5748Z" fill="black"/>
<path d="M36.6909 21.5888C37.7462 20.3863 38.2662 18.8406 38.1403 17.28C36.5279 17.4408 35.0385 18.1722 33.9689 19.3286C33.4459 19.8936 33.0453 20.5508 32.7901 21.2628C32.5349 21.9747 32.43 22.7275 32.4815 23.4779C33.288 23.4858 34.0858 23.3199 34.8149 22.9927C35.5441 22.6655 36.1855 22.1855 36.6909 21.5888Z" fill="black"/>
<path d="M62.5843 40.0208H56.4961L55.034 44.2375H52.4553L58.2219 28.6367H60.9012L66.6678 44.2375H64.0451L62.5843 40.0208ZM57.1266 38.075H61.9526L59.5735 31.2316H59.507L57.1266 38.075Z" fill="black"/>
<path d="M79.1219 38.5508C79.1219 42.0854 77.185 44.3563 74.2621 44.3563C73.5217 44.3941 72.7853 44.2275 72.1373 43.8756C71.4894 43.5236 70.9559 43.0006 70.5981 42.3663H70.5428V48H68.1525V32.8631H70.4662V34.7549H70.5102C70.8844 34.1236 71.4269 33.6033 72.0798 33.2492C72.7327 32.8951 73.4717 32.7205 74.2182 32.744C77.1737 32.7441 79.1219 35.026 79.1219 38.5508ZM76.665 38.5508C76.665 36.248 75.4466 34.734 73.5876 34.734C71.7613 34.734 70.5328 36.2799 70.5328 38.5508C70.5328 40.8425 71.7613 42.3773 73.5876 42.3773C75.4466 42.3773 76.665 40.8744 76.665 38.5508Z" fill="black"/>
<path d="M91.939 38.5508C91.939 42.0853 90.0021 44.3563 87.0792 44.3563C86.3388 44.3941 85.6024 44.2275 84.9545 43.8756C84.3065 43.5236 83.773 43.0006 83.4152 42.3663H83.3599V48H80.9696V32.863H83.2833V34.7549H83.3273C83.7015 34.1236 84.2439 33.6033 84.8969 33.2492C85.5498 32.8951 86.2888 32.7205 87.0352 32.744C89.9908 32.744 91.939 35.026 91.939 38.5508ZM89.4821 38.5508C89.4821 36.248 88.2637 34.734 86.4047 34.734C84.5784 34.734 83.3499 36.2798 83.3499 38.5508C83.3499 40.8425 84.5784 42.3773 86.4047 42.3773C88.2637 42.3773 89.4821 40.8744 89.4821 38.5508H89.4821Z" fill="black"/>
<path d="M100.41 39.8908C100.587 41.4379 102.126 42.4537 104.229 42.4537C106.243 42.4537 107.693 41.4379 107.693 40.0429C107.693 38.832 106.819 38.107 104.749 37.6101L102.679 37.123C99.7456 36.431 98.384 35.0913 98.384 32.9173C98.384 30.2256 100.786 28.3767 104.196 28.3767C107.571 28.3767 109.885 30.2256 109.963 32.9173H107.55C107.405 31.3604 106.087 30.4207 104.162 30.4207C102.236 30.4207 100.919 31.3715 100.919 32.7554C100.919 33.8583 101.76 34.5073 103.819 35.0042L105.579 35.4262C108.856 36.1832 110.218 37.469 110.218 39.7509C110.218 42.6696 107.837 44.4976 104.051 44.4976C100.509 44.4976 98.1176 42.7125 97.9631 39.8907L100.41 39.8908Z" fill="black"/>
<path d="M115.376 30.1714V32.8631H117.591V34.712H115.376V40.9825C115.376 41.9566 115.82 42.4105 116.793 42.4105C117.056 42.4061 117.318 42.388 117.579 42.3565V44.1943C117.142 44.2742 116.697 44.3104 116.252 44.3023C113.894 44.3023 112.975 43.4374 112.975 41.2315V34.712H111.281V32.8631H112.975V30.1714H115.376Z" fill="black"/>
<path d="M118.873 38.5507C118.873 34.972 121.031 32.7231 124.396 32.7231C127.773 32.7231 129.921 34.9719 129.921 38.5507C129.921 42.1393 127.784 44.3783 124.396 44.3783C121.01 44.3783 118.873 42.1393 118.873 38.5507ZM127.485 38.5507C127.485 36.0958 126.333 34.6469 124.396 34.6469C122.459 34.6469 121.309 36.1068 121.309 38.5507C121.309 41.0155 122.459 42.4534 124.396 42.4534C126.333 42.4534 127.485 41.0155 127.485 38.5507H127.485Z" fill="black"/>
<path d="M131.891 32.8632H134.171V34.7991H134.226C134.381 34.1945 134.743 33.6602 135.253 33.2859C135.763 32.9117 136.39 32.7204 137.027 32.7442C137.303 32.7432 137.578 32.7724 137.846 32.8313V35.0151C137.499 34.9113 137.136 34.8636 136.772 34.874C136.425 34.8602 136.079 34.92 135.758 35.0493C135.436 35.1786 135.147 35.3742 134.911 35.6228C134.674 35.8714 134.495 36.1671 134.387 36.4896C134.278 36.812 134.242 37.1536 134.282 37.4909V44.2374H131.891L131.891 32.8632Z" fill="black"/>
<path d="M148.867 40.8965C148.546 42.9613 146.487 44.3783 143.853 44.3783C140.465 44.3783 138.363 42.1614 138.363 38.6047C138.363 35.037 140.477 32.7231 143.752 32.7231C146.974 32.7231 149 34.8849 149 38.3336V39.1335H140.776V39.2746C140.738 39.6932 140.791 40.1149 140.933 40.5117C141.075 40.9084 141.301 41.2712 141.597 41.576C141.894 41.8807 142.253 42.1203 142.651 42.279C143.05 42.4377 143.478 42.5117 143.908 42.4963C144.473 42.548 145.04 42.4202 145.524 42.132C146.009 41.8437 146.385 41.4104 146.598 40.8965L148.867 40.8965ZM140.787 37.5018H146.609C146.63 37.1254 146.572 36.7487 146.437 36.3954C146.303 36.0422 146.095 35.7199 145.826 35.4488C145.558 35.1777 145.236 34.9637 144.879 34.8202C144.522 34.6768 144.138 34.6069 143.752 34.615C143.363 34.6127 142.977 34.6857 142.617 34.8299C142.257 34.974 141.93 35.1864 141.654 35.4548C141.378 35.7232 141.16 36.0423 141.011 36.3936C140.862 36.7449 140.786 37.1216 140.787 37.5018V37.5018Z" fill="black"/>
<path d="M54.8751 22.3741C54.9756 23.0857 55.6878 23.5378 56.7152 23.5378C57.6724 23.5378 58.3745 23.055 58.3745 22.3901C58.3745 21.8183 57.9273 21.4755 56.9111 21.2417L55.9226 21.0081C54.5346 20.6909 53.9016 20.0364 53.9016 18.9353C53.9016 17.5998 55.0182 16.7116 56.6938 16.7116C57.3524 16.6399 58.0132 16.8259 58.5316 17.229C59.05 17.6321 59.3837 18.2194 59.4597 18.8623H58.2991C58.2228 18.5104 58.0135 18.1995 57.713 17.9916C57.4125 17.7837 57.0428 17.6939 56.6776 17.7403C55.7355 17.7403 55.1087 18.1819 55.1087 18.8573C55.1087 19.3922 55.5132 19.6989 56.513 19.9271L57.3584 20.1302C58.9323 20.4884 59.5817 21.1117 59.5817 22.2392C59.5817 23.6727 58.4437 24.5714 56.6249 24.5714C54.9229 24.5714 53.7786 23.7145 53.6931 22.3741L54.8751 22.3741Z" fill="black"/>
<path d="M62.7219 17.3245V18.7587H63.9767V19.6991H62.7219V22.6079C62.7219 23.2005 62.9718 23.46 63.5408 23.46C63.6865 23.4595 63.832 23.4509 63.9767 23.4342V24.3642C63.7714 24.4 63.5634 24.4191 63.3549 24.4212C62.0838 24.4212 61.5776 23.9845 61.5776 22.8938V19.699H60.6581V18.7586H61.5776V17.3245H62.7219Z" fill="black"/>
<path d="M65.1549 22.7901C65.1549 21.7718 65.9311 21.1847 67.3091 21.1013L68.8779 21.013V20.5247C68.8779 19.9272 68.4735 19.5898 67.6922 19.5898C67.0541 19.5898 66.6119 19.8186 66.4851 20.2186H65.3785C65.4953 19.2469 66.4311 18.6237 67.7449 18.6237C69.197 18.6237 70.0159 19.3297 70.0159 20.5247V24.3899H68.9156V23.5949H68.8252C68.6416 23.8801 68.3838 24.1125 68.0782 24.2686C67.7726 24.4246 67.43 24.4986 67.0855 24.4831C66.8423 24.5078 66.5966 24.4825 66.3641 24.4087C66.1316 24.335 65.9175 24.2145 65.7356 24.0549C65.5537 23.8954 65.4081 23.7005 65.308 23.4826C65.208 23.2647 65.1558 23.0288 65.1549 22.7901ZM68.8779 22.3067V21.8337L67.4636 21.922C66.6659 21.9742 66.3042 22.2392 66.3042 22.7379C66.3042 23.247 66.7564 23.5433 67.3782 23.5433C67.5604 23.5613 67.7444 23.5434 67.9193 23.4905C68.0943 23.4376 68.2565 23.3509 68.3965 23.2355C68.5364 23.1202 68.6511 22.9785 68.7338 22.8189C68.8165 22.6593 68.8655 22.4851 68.8779 22.3067ZM67.0591 17.7869L68.3943 16H69.7346L68.2398 17.7869H67.0591Z" fill="black"/>
<path d="M71.8586 16.5244H72.9916V19.6419H73.082C73.234 19.3161 73.4851 19.044 73.8011 18.8626C74.1171 18.6813 74.4827 18.5995 74.848 18.6285C75.1284 18.6136 75.4086 18.6593 75.6688 18.7624C75.929 18.8654 76.1627 19.0233 76.3532 19.2248C76.5437 19.4262 76.6864 19.6662 76.771 19.9277C76.8556 20.1892 76.8801 20.4657 76.8427 20.7375V24.3898H75.6984V21.0129C75.6984 20.1093 75.2675 19.6517 74.4599 19.6517C74.2634 19.6359 74.0658 19.6623 73.8809 19.729C73.696 19.7956 73.5282 19.9009 73.3893 20.0375C73.2504 20.1741 73.1437 20.3387 73.0767 20.5198C73.0098 20.7009 72.9841 20.8941 73.0016 21.0859V24.3898H71.8586L71.8586 16.5244Z" fill="black"/>
<path d="M78.6101 18.7329H79.7104V19.6316H79.7958C79.9407 19.3088 80.1851 19.0383 80.4949 18.8576C80.8047 18.6769 81.1646 18.5952 81.5242 18.6237C81.806 18.603 82.089 18.6445 82.3521 18.7452C82.6153 18.8458 82.8519 19.003 83.0444 19.205C83.237 19.4071 83.3805 19.6489 83.4643 19.9125C83.5482 20.1761 83.5703 20.4547 83.5289 20.7278V24.3899H82.3859V21.0081C82.3859 20.099 81.9814 19.6469 81.1361 19.6469C80.9447 19.6382 80.7537 19.67 80.5762 19.7402C80.3986 19.8103 80.2386 19.9171 80.1073 20.0533C79.9759 20.1895 79.8763 20.3518 79.8151 20.5291C79.754 20.7064 79.7328 20.8945 79.7531 21.0805V24.39H78.6101V18.7329Z" fill="black"/>
<path d="M85.0098 21.559C84.9734 21.1872 85.0169 20.8121 85.1376 20.4578C85.2583 20.1034 85.4535 19.7776 85.7107 19.5012C85.9679 19.2249 86.2813 19.004 86.631 18.8529C86.9807 18.7018 87.3588 18.6238 87.7412 18.6238C88.1235 18.6238 88.5017 18.7018 88.8513 18.8529C89.201 19.004 89.5145 19.2249 89.7716 19.5012C90.0288 19.7776 90.224 20.1034 90.3447 20.4578C90.4654 20.8121 90.5089 21.1872 90.4725 21.559C90.5096 21.9311 90.4666 22.3067 90.3462 22.6617C90.2258 23.0166 90.0308 23.343 89.7735 23.6199C89.5163 23.8968 89.2026 24.1181 88.8526 24.2695C88.5026 24.421 88.124 24.4992 87.7412 24.4992C87.3584 24.4992 86.9798 24.421 86.6298 24.2695C86.2797 24.1181 85.966 23.8968 85.7088 23.6199C85.4516 23.343 85.2565 23.0166 85.1361 22.6617C85.0157 22.3067 84.9727 21.9311 85.0098 21.559ZM89.2968 21.559C89.2968 20.3327 88.7328 19.6156 87.743 19.6156C86.7495 19.6156 86.1906 20.3327 86.1906 21.559C86.1906 22.7951 86.7495 23.5066 87.743 23.5066C88.7329 23.5066 89.2968 22.7901 89.2968 21.559H89.2968Z" fill="black"/>
<path d="M96.8892 24.39H95.7876V23.4913H95.6972C95.5508 23.8174 95.303 24.0902 94.9889 24.2711C94.6749 24.452 94.3105 24.5318 93.9475 24.4992C93.6674 24.5186 93.3863 24.4764 93.1251 24.3759C92.8638 24.2754 92.6289 24.119 92.4376 23.9182C92.2463 23.7174 92.1035 23.4773 92.0196 23.2156C91.9357 22.9538 91.9129 22.677 91.9528 22.4055V18.7329H93.0971V22.1147C93.0971 23.0288 93.474 23.4655 94.3142 23.4655C94.5091 23.4836 94.7056 23.4589 94.8894 23.3934C95.0733 23.3278 95.2398 23.223 95.3769 23.0866C95.514 22.9501 95.6182 22.7855 95.6818 22.6048C95.7455 22.424 95.7671 22.2317 95.7449 22.0417V18.7329H96.8892V24.39Z" fill="black"/>
<path d="M100.258 17.3245V18.7587H101.513V19.6991H100.258V22.6079C100.258 23.2005 100.508 23.46 101.077 23.46C101.223 23.4595 101.368 23.4509 101.513 23.4342V24.3642C101.308 24.4001 101.1 24.4192 100.891 24.4212C99.62 24.4212 99.1138 23.9845 99.1138 22.8938V19.699H98.1943V18.7586H99.1138V17.3245H100.258Z" fill="black"/>
<path d="M108.982 24.39H107.753L105.663 18.7329H106.885L108.327 23.195H108.418L109.853 18.7329H111.067L108.982 24.39Z" fill="black"/>
</svg>
