<svg width="448" height="254" viewBox="0 0 448 254" fill="none" xmlns="http://www.w3.org/2000/svg">
<path d="M307.495 16.4962V188.5H6.5V16.4962C6.5 12.5941 9.59981 9.5 13.5052 9.5H300.495C304.315 9.5 307.358 12.4541 307.495 16.23V16.4962Z" fill="#AAAAAA" stroke="#333333"/>
<path d="M12.5 182.5V15.5H301.5V182.5H12.5Z" fill="white" stroke="#333333"/>
<path d="M33.4688 74.2734C33.4688 75.1536 33.3568 75.9557 33.1328 76.6797C32.9089 77.3984 32.5755 78.0182 32.1328 78.5391C31.6953 79.0547 31.151 79.4531 30.5 79.7344C29.849 80.0156 29.0938 80.1562 28.2344 80.1562C27.349 80.1562 26.5755 80.0156 25.9141 79.7344C25.2578 79.4531 24.7109 79.0521 24.2734 78.5312C23.8411 78.0104 23.5156 77.388 23.2969 76.6641C23.0833 75.9401 22.9766 75.138 22.9766 74.2578C22.9766 73.0911 23.1693 72.0677 23.5547 71.1875C23.9401 70.3073 24.5234 69.6224 25.3047 69.1328C26.0911 68.6432 27.0755 68.3984 28.2578 68.3984C29.388 68.3984 30.3385 68.6406 31.1094 69.125C31.8854 69.6094 32.4714 70.2917 32.8672 71.1719C33.2682 72.0469 33.4688 73.0807 33.4688 74.2734ZM24.375 74.2734C24.375 75.2422 24.513 76.0807 24.7891 76.7891C25.0651 77.4974 25.487 78.0443 26.0547 78.4297C26.6276 78.8151 27.3542 79.0078 28.2344 79.0078C29.1198 79.0078 29.8438 78.8151 30.4062 78.4297C30.974 78.0443 31.3932 77.4974 31.6641 76.7891C31.9349 76.0807 32.0703 75.2422 32.0703 74.2734C32.0703 72.7995 31.7604 71.6484 31.1406 70.8203C30.526 69.987 29.5651 69.5703 28.2578 69.5703C27.3724 69.5703 26.6432 69.7604 26.0703 70.1406C25.4974 70.5208 25.0703 71.0625 24.7891 71.7656C24.513 72.4635 24.375 73.2995 24.375 74.2734ZM45.2653 80H43.7341L37.5075 70.4062H37.445C37.4606 70.6615 37.4789 70.9531 37.4997 71.2812C37.5205 71.6042 37.5361 71.9505 37.5466 72.3203C37.5622 72.6849 37.57 73.0573 37.57 73.4375V80H36.3356V68.5781H37.8591L44.0622 78.1406H44.1169C44.1065 77.9583 44.0934 77.7005 44.0778 77.3672C44.0622 77.0286 44.0466 76.6667 44.0309 76.2812C44.0205 75.8906 44.0153 75.5286 44.0153 75.1953V68.5781H45.2653V80ZM48.7025 80V68.5781H50.0306V78.8125H55.1009V80H48.7025ZM60.2959 74.3047L63.335 68.5781H64.7647L60.96 75.5703V80H59.6319V75.6328L55.8194 68.5781H57.2725L60.2959 74.3047ZM76.5612 74.2734C76.5612 75.1536 76.4493 75.9557 76.2253 76.6797C76.0014 77.3984 75.668 78.0182 75.2253 78.5391C74.7878 79.0547 74.2435 79.4531 73.5925 79.7344C72.9415 80.0156 72.1862 80.1562 71.3269 80.1562C70.4415 80.1562 69.668 80.0156 69.0066 79.7344C68.3503 79.4531 67.8034 79.0521 67.3659 78.5312C66.9336 78.0104 66.6081 77.388 66.3894 76.6641C66.1758 75.9401 66.0691 75.138 66.0691 74.2578C66.0691 73.0911 66.2618 72.0677 66.6472 71.1875C67.0326 70.3073 67.6159 69.6224 68.3972 69.1328C69.1836 68.6432 70.168 68.3984 71.3503 68.3984C72.4805 68.3984 73.431 68.6406 74.2019 69.125C74.9779 69.6094 75.5639 70.2917 75.9597 71.1719C76.3607 72.0469 76.5612 73.0807 76.5612 74.2734ZM67.4675 74.2734C67.4675 75.2422 67.6055 76.0807 67.8816 76.7891C68.1576 77.4974 68.5795 78.0443 69.1472 78.4297C69.7201 78.8151 70.4467 79.0078 71.3269 79.0078C72.2123 79.0078 72.9362 78.8151 73.4987 78.4297C74.0665 78.0443 74.4857 77.4974 74.7566 76.7891C75.0274 76.0807 75.1628 75.2422 75.1628 74.2734C75.1628 72.7995 74.8529 71.6484 74.2331 70.8203C73.6185 69.987 72.6576 69.5703 71.3503 69.5703C70.4649 69.5703 69.7357 69.7604 69.1628 70.1406C68.5899 70.5208 68.1628 71.0625 67.8816 71.7656C67.6055 72.4635 67.4675 73.2995 67.4675 74.2734ZM80.7562 80H79.4281V68.5781H85.7875V69.75H80.7562V73.9375H85.4828V75.1016H80.7562V80ZM89.3419 80H88.0137V68.5781H94.3731V69.75H89.3419V73.9375H94.0684V75.1016H89.3419V80ZM96.5994 80V68.5781H97.9275V80H96.5994ZM106.271 69.5859C105.641 69.5859 105.073 69.6953 104.568 69.9141C104.068 70.1276 103.641 70.4401 103.287 70.8516C102.938 71.2578 102.669 71.75 102.482 72.3281C102.294 72.9062 102.201 73.5573 102.201 74.2812C102.201 75.2396 102.349 76.0729 102.646 76.7812C102.948 77.4844 103.396 78.0286 103.99 78.4141C104.589 78.7995 105.336 78.9922 106.232 78.9922C106.742 78.9922 107.221 78.9505 107.669 78.8672C108.122 78.7786 108.563 78.6693 108.99 78.5391V79.6953C108.573 79.8516 108.136 79.9661 107.677 80.0391C107.219 80.1172 106.675 80.1562 106.044 80.1562C104.883 80.1562 103.912 79.9167 103.13 79.4375C102.354 78.9531 101.771 78.2708 101.38 77.3906C100.995 76.5104 100.802 75.4714 100.802 74.2734C100.802 73.4089 100.922 72.6198 101.162 71.9062C101.406 71.1875 101.761 70.5677 102.224 70.0469C102.693 69.526 103.266 69.125 103.943 68.8438C104.625 68.5573 105.406 68.4141 106.287 68.4141C106.865 68.4141 107.422 68.4714 107.958 68.5859C108.495 68.7005 108.979 68.8646 109.412 69.0781L108.88 70.2031C108.516 70.0365 108.115 69.8932 107.677 69.7734C107.245 69.6484 106.776 69.5859 106.271 69.5859ZM118.146 80H111.786V68.5781H118.146V69.75H113.114V73.4453H117.857V74.6016H113.114V78.8281H118.146V80Z" fill="#403333"/>
<rect width="270" height="22" transform="translate(22 29)" fill="#ECF0F1"/>
<path d="M37.3193 39.6372C38.0693 40.2407 38.8369 40.9028 39.6221 41.6235C39.4287 41.811 39.25 41.9897 39.0859 42.1597C38.8428 41.9194 38.5967 41.6821 38.3477 41.4478C37.5654 41.48 36.7656 41.5181 35.9482 41.562V43.5396C35.9482 44.2075 35.5967 44.5415 34.8936 44.5415C34.6064 44.5415 34.2285 44.5356 33.7598 44.5239C33.7305 44.3071 33.6924 44.0669 33.6455 43.8032C34.1377 43.856 34.5156 43.8823 34.7793 43.8823C35.1016 43.8823 35.2627 43.7241 35.2627 43.4077V41.5972C34.5508 41.6353 33.8271 41.6763 33.0918 41.7202C32.7578 41.7378 32.4268 41.7759 32.0986 41.8345L31.8086 41.0786C32.1953 41.0083 32.5615 40.894 32.9072 40.7358C33.8037 40.2964 34.6357 39.854 35.4033 39.4087C34.3838 39.4878 33.5283 39.5581 32.8369 39.6196C32.5322 39.6489 32.3008 39.6812 32.1426 39.7163L31.8613 38.978C32.1426 38.9077 32.4062 38.8052 32.6523 38.6704C33.3877 38.2603 34.1245 37.7754 34.8628 37.2158C33.8579 37.2773 32.8398 37.3315 31.8086 37.3784C31.7676 37.1733 31.7148 36.9683 31.6504 36.7632C34.4453 36.6577 36.9268 36.4966 39.0947 36.2798L39.2266 36.9038C37.9551 37.0093 36.6646 37.1045 35.355 37.1895L35.7109 37.4399C34.791 38.0552 33.9414 38.5737 33.1621 38.9956C34.4746 38.9224 35.5615 38.8521 36.4229 38.7847C37.0088 38.4097 37.5508 38.0317 38.0488 37.6509L38.6201 38.1167C37.1494 39.1655 35.4414 40.147 33.4961 41.061C34.6621 41.02 36.0757 40.9585 37.7368 40.8765C37.4438 40.6069 37.1494 40.3433 36.8535 40.0854L37.3193 39.6372ZM36.8008 42.52L37.249 42.0454C37.9873 42.5376 38.7988 43.1265 39.6836 43.812L39.165 44.3833C38.3447 43.7036 37.5566 43.0825 36.8008 42.52ZM33.3643 42.0542L33.9355 42.5024C33.1855 43.1763 32.3975 43.8267 31.5713 44.4536C31.4307 44.2837 31.2695 44.105 31.0879 43.9175C31.8496 43.396 32.6084 42.7749 33.3643 42.0542ZM47.3519 38.3804C47.8441 39.0425 48.348 39.7896 48.8636 40.6216C48.6585 40.7388 48.4417 40.8706 48.2132 41.0171C48.0667 40.7681 47.9261 40.5293 47.7913 40.3008C47.5189 40.3184 47.2376 40.3345 46.9476 40.3491V43.3286C46.9476 43.686 47.0794 43.8647 47.3431 43.8647H47.7738C48.0609 43.8647 48.2249 43.7183 48.2659 43.4253C48.3128 43.0737 48.3421 42.6929 48.3538 42.2827C48.5472 42.3647 48.7816 42.4497 49.057 42.5376C49.0101 43.0474 48.9603 43.4429 48.9075 43.7241C48.8255 44.2339 48.5179 44.4888 47.9847 44.4888H47.2288C46.5902 44.4888 46.2708 44.1226 46.2708 43.3901V40.3887C45.9427 40.4062 45.6029 40.4268 45.2513 40.4502C45.2044 41.7246 45.0404 42.6138 44.7591 43.1177C44.4251 43.7622 43.8011 44.2954 42.887 44.7173C42.7581 44.5356 42.6087 44.3394 42.4388 44.1284C43.2884 43.7827 43.8568 43.3286 44.1439 42.7661C44.4075 42.3179 44.5496 41.5605 44.5701 40.4941C44.45 40.5029 44.3284 40.5103 44.2054 40.5161C43.9534 40.5396 43.7191 40.5776 43.5023 40.6304L43.2034 39.9448C43.4554 39.8394 43.6575 39.6987 43.8099 39.5229C44.2493 38.9985 44.6624 38.4272 45.0491 37.8091H43.1331V37.1851H45.9368C45.7171 36.8481 45.5091 36.5493 45.3128 36.2886L45.8929 35.9282C46.1155 36.2036 46.3646 36.5317 46.64 36.9126L46.2225 37.1851H48.8988V37.8091H45.3304L45.8138 38.02C45.3275 38.6763 44.8499 39.2798 44.3812 39.8306C45.4857 39.7925 46.5008 39.7529 47.4266 39.7119C47.2039 39.3545 46.9915 39.0278 46.7894 38.7319L47.3519 38.3804ZM41.4368 41.3423C41.9056 41.2778 42.5062 41.1899 43.2386 41.0786C43.2034 41.313 43.1741 41.5298 43.1507 41.729C42.4183 41.8286 41.5804 41.9546 40.637 42.1069L40.4964 41.4741C40.8626 41.0991 41.2977 40.4883 41.8016 39.6416C41.1922 39.6826 40.7542 39.7134 40.4876 39.7339L40.3206 39.1362C40.8363 38.4565 41.3929 37.4194 41.9905 36.0249L42.6585 36.2886C42.0902 37.4019 41.5716 38.3335 41.1029 39.0835C41.4866 39.0776 41.8323 39.0688 42.14 39.0571C42.3157 38.7437 42.5003 38.4038 42.6937 38.0376L43.3529 38.3276C42.6849 39.4937 42.0462 40.4985 41.4368 41.3423ZM40.2943 43.188C41.2669 43.0005 42.2718 42.7896 43.3089 42.5552C43.2855 42.8599 43.2738 43.0708 43.2738 43.188C42.2132 43.4224 41.2874 43.645 40.4964 43.856L40.2943 43.188ZM50.8541 39.7954H56.2682V41.9136H55.6002V41.6938H51.5309V42.3618H57.0065V44.6558H56.3385V44.3218H51.5309V44.6646H50.8541V39.7954ZM49.861 38.5737H53.6183C53.5158 38.3892 53.3913 38.1841 53.2448 37.9585L53.8512 37.6948C54.0446 37.9761 54.2204 38.269 54.3786 38.5737H57.8502V39.936H57.1735V39.145H50.5377V39.9448H49.861V38.5737ZM56.3385 42.8892H51.5309V43.7505H56.3385V42.8892ZM52.1549 38.5298C51.9323 38.2368 51.6891 37.938 51.4254 37.6333L51.8209 37.3521H51.0651C50.7282 37.7798 50.3532 38.1577 49.9401 38.4858C49.8229 38.3452 49.6764 38.1812 49.5006 37.9937C50.1862 37.4604 50.7457 36.7896 51.1793 35.981H51.9352C51.7887 36.271 51.629 36.5464 51.4562 36.8071H54.0358V37.3521H51.9264C52.1901 37.6069 52.4391 37.8677 52.6735 38.1343L52.1549 38.5298ZM55.6002 40.3228H51.5309V41.1665H55.6002V40.3228ZM56.1715 38.521C55.9782 38.2456 55.7409 37.9468 55.4596 37.6245L55.8419 37.3521H55.0993C54.9293 37.6245 54.7506 37.8765 54.5631 38.1079C54.4342 37.979 54.2555 37.8354 54.027 37.6772C54.4371 37.2202 54.7799 36.6548 55.0553 35.981H55.8112C55.6852 36.271 55.5519 36.5464 55.4113 36.8071H58.2194V37.3521H55.9694C56.236 37.6099 56.4762 37.8677 56.6901 38.1255L56.1715 38.521ZM61.3964 43.7329H64.1474V42.4673H61.9062V41.8521H64.1474V40.6919H62.7412V41.0171H62.0908V36.4819H66.8545V41.0171H66.2041V40.6919H64.7978V41.8521H67.039V42.4673H64.7978V43.7329H67.4257V44.3481H61.3964V43.7329ZM58.6015 43.2144C59.0527 43.106 59.4892 42.9976 59.9111 42.8892V40.2261H58.8125V39.6108H59.9111V37.4136H58.7246V36.7983H61.748V37.4136H60.5615V39.6108H61.6777V40.2261H60.5615V42.7134C60.9482 42.605 61.3232 42.4966 61.6865 42.3882C61.7158 42.6519 61.748 42.8804 61.7832 43.0737C60.7812 43.3433 59.7998 43.6274 58.8388 43.9263L58.6015 43.2144ZM64.7978 40.0942H66.2041V38.8726H64.7978V40.0942ZM62.7412 40.0942H64.1474V38.8726H62.7412V40.0942ZM66.2041 37.0796H64.7978V38.2925H66.2041V37.0796ZM62.7412 38.2925H64.1474V37.0796H62.7412V38.2925Z" fill="#337AB7"/>
<path d="M77.2036 36.5752L74.813 43H74.0923L76.4873 36.5752H77.2036Z" fill="#A0A5A6"/>
<path d="M86.5576 36.5752C87.3867 36.5752 87.9917 36.7378 88.3726 37.063C88.7563 37.3853 88.9482 37.8481 88.9482 38.4517C88.9482 38.7241 88.9028 38.9834 88.812 39.2295C88.7241 39.4727 88.5806 39.688 88.3813 39.8755C88.1821 40.0601 87.9199 40.2065 87.5947 40.3149C87.2725 40.4204 86.877 40.4731 86.4082 40.4731H85.626V43H84.8789V36.5752H86.5576ZM86.4873 37.2124H85.626V39.8315H86.3247C86.7349 39.8315 87.0762 39.7876 87.3486 39.6997C87.624 39.6118 87.8306 39.4697 87.9683 39.2734C88.106 39.0742 88.1748 38.8105 88.1748 38.4824C88.1748 38.0547 88.0386 37.7368 87.7661 37.5288C87.4937 37.3179 87.0674 37.2124 86.4873 37.2124ZM91.097 43H90.3631V36.1621H91.097V43ZM96.7965 38.1836V43H96.1989L96.0934 42.3232H96.0538C95.9542 42.4902 95.8253 42.6309 95.6671 42.7451C95.5089 42.8594 95.3302 42.9443 95.131 43C94.9347 43.0586 94.7252 43.0879 94.5026 43.0879C94.1217 43.0879 93.8024 43.0264 93.5446 42.9033C93.2868 42.7803 93.0919 42.5898 92.9601 42.332C92.8312 42.0742 92.7667 41.7432 92.7667 41.3389V38.1836H93.505V41.2861C93.505 41.6875 93.5958 41.9878 93.7775 42.187C93.9591 42.3833 94.236 42.4814 94.608 42.4814C94.9655 42.4814 95.2496 42.4141 95.4606 42.2793C95.6745 42.1445 95.8283 41.9468 95.922 41.686C96.0158 41.4224 96.0626 41.1001 96.0626 40.7192V38.1836H96.7965ZM99.8637 45.1621C99.2309 45.1621 98.7431 45.0435 98.4004 44.8062C98.0576 44.5718 97.8862 44.2422 97.8862 43.8174C97.8862 43.5156 97.9814 43.2578 98.1718 43.0439C98.3652 42.8301 98.6318 42.688 98.9716 42.6177C98.8457 42.5591 98.7373 42.4712 98.6464 42.354C98.5586 42.2368 98.5146 42.1021 98.5146 41.9497C98.5146 41.7739 98.5629 41.6201 98.6596 41.4883C98.7592 41.3535 98.9101 41.2246 99.1123 41.1016C98.8603 40.999 98.6552 40.8262 98.497 40.583C98.3418 40.3369 98.2641 40.0513 98.2641 39.7261C98.2641 39.3804 98.3359 39.0859 98.4795 38.8428C98.623 38.5967 98.831 38.4092 99.1035 38.2803C99.3759 38.1514 99.7055 38.0869 100.092 38.0869C100.177 38.0869 100.262 38.0913 100.347 38.1001C100.435 38.106 100.519 38.1162 100.598 38.1309C100.677 38.1426 100.746 38.1572 100.804 38.1748H102.457V38.645L101.569 38.7549C101.657 38.8691 101.73 39.0068 101.789 39.168C101.847 39.3291 101.876 39.5078 101.876 39.7041C101.876 40.1846 101.714 40.5669 101.389 40.8511C101.063 41.1323 100.617 41.2729 100.048 41.2729C99.9135 41.2729 99.7758 41.2612 99.6352 41.2378C99.4917 41.3169 99.3818 41.4048 99.3056 41.5015C99.2324 41.5981 99.1958 41.7095 99.1958 41.8354C99.1958 41.9292 99.2236 42.0039 99.2793 42.0596C99.3379 42.1152 99.4213 42.1562 99.5297 42.1826C99.6381 42.2061 99.7685 42.2178 99.9209 42.2178H100.769C101.293 42.2178 101.695 42.3276 101.973 42.5474C102.254 42.7671 102.395 43.0879 102.395 43.5098C102.395 44.043 102.178 44.4517 101.745 44.7358C101.311 45.02 100.684 45.1621 99.8637 45.1621ZM99.8857 44.5908C100.284 44.5908 100.614 44.5498 100.874 44.4678C101.138 44.3887 101.334 44.2729 101.463 44.1206C101.595 43.9712 101.661 43.7925 101.661 43.5845C101.661 43.3911 101.617 43.2446 101.529 43.145C101.441 43.0483 101.312 42.9839 101.143 42.9517C100.973 42.9165 100.765 42.8989 100.519 42.8989H99.6836C99.4668 42.8989 99.2778 42.9326 99.1167 43C98.9555 43.0674 98.831 43.167 98.7431 43.2988C98.6582 43.4307 98.6157 43.5947 98.6157 43.791C98.6157 44.0518 98.7255 44.2495 98.9453 44.3843C99.165 44.522 99.4785 44.5908 99.8857 44.5908ZM100.075 40.7412C100.423 40.7412 100.686 40.6533 100.861 40.4775C101.037 40.3018 101.125 40.0454 101.125 39.7085C101.125 39.3481 101.036 39.0786 100.857 38.8999C100.678 38.7183 100.415 38.6274 100.066 38.6274C99.7319 38.6274 99.4741 38.7212 99.2924 38.9087C99.1137 39.0933 99.0244 39.3643 99.0244 39.7217C99.0244 40.0498 99.1152 40.3018 99.2968 40.4775C99.4785 40.6533 99.7378 40.7412 100.075 40.7412ZM104.315 38.1836V43H103.586V38.1836H104.315ZM103.959 36.3818C104.079 36.3818 104.182 36.4214 104.267 36.5005C104.355 36.5767 104.399 36.6968 104.399 36.8608C104.399 37.022 104.355 37.1421 104.267 37.2212C104.182 37.3003 104.079 37.3398 103.959 37.3398C103.833 37.3398 103.728 37.3003 103.643 37.2212C103.561 37.1421 103.52 37.022 103.52 36.8608C103.52 36.6968 103.561 36.5767 103.643 36.5005C103.728 36.4214 103.833 36.3818 103.959 36.3818ZM108.323 38.0957C108.894 38.0957 109.326 38.2363 109.619 38.5176C109.912 38.7959 110.059 39.2441 110.059 39.8623V43H109.338V39.9106C109.338 39.5093 109.246 39.209 109.061 39.0098C108.879 38.8105 108.6 38.7109 108.222 38.7109C107.689 38.7109 107.314 38.8618 107.097 39.1636C106.88 39.4653 106.772 39.9033 106.772 40.4775V43H106.042V38.1836H106.631L106.741 38.8779H106.78C106.883 38.708 107.013 38.5659 107.171 38.4517C107.33 38.3345 107.507 38.2466 107.703 38.188C107.9 38.1265 108.106 38.0957 108.323 38.0957ZM114.857 41.6816C114.857 41.9893 114.78 42.2485 114.624 42.4595C114.472 42.6675 114.252 42.8242 113.965 42.9297C113.681 43.0352 113.341 43.0879 112.946 43.0879C112.609 43.0879 112.317 43.0615 112.071 43.0088C111.825 42.9561 111.61 42.8813 111.425 42.7847V42.1123C111.622 42.209 111.856 42.2969 112.128 42.376C112.401 42.4551 112.679 42.4946 112.963 42.4946C113.379 42.4946 113.681 42.4272 113.869 42.2925C114.056 42.1577 114.15 41.9746 114.15 41.7432C114.15 41.6113 114.112 41.4956 114.036 41.396C113.962 41.2935 113.838 41.1953 113.662 41.1016C113.486 41.0049 113.243 40.8994 112.933 40.7852C112.625 40.668 112.358 40.5522 112.133 40.438C111.91 40.3208 111.737 40.1787 111.614 40.0117C111.494 39.8447 111.434 39.6279 111.434 39.3613C111.434 38.9541 111.598 38.6421 111.926 38.4253C112.257 38.2056 112.691 38.0957 113.227 38.0957C113.517 38.0957 113.788 38.125 114.04 38.1836C114.295 38.2393 114.532 38.3154 114.752 38.4121L114.506 38.9966C114.307 38.9116 114.094 38.8398 113.869 38.7812C113.643 38.7227 113.413 38.6934 113.179 38.6934C112.842 38.6934 112.582 38.749 112.401 38.8604C112.222 38.9717 112.133 39.124 112.133 39.3174C112.133 39.4668 112.174 39.5898 112.256 39.6865C112.341 39.7832 112.476 39.874 112.66 39.959C112.845 40.0439 113.088 40.1436 113.39 40.2578C113.691 40.3691 113.952 40.4849 114.172 40.605C114.392 40.7222 114.56 40.8657 114.677 41.0356C114.797 41.2026 114.857 41.418 114.857 41.6816Z" fill="#337AB7"/>
<path d="M125.204 36.5752L122.813 43H122.092L124.487 36.5752H125.204Z" fill="#A0A5A6"/>
<path d="M136.922 40.583C136.922 40.9785 136.871 41.3315 136.768 41.6421C136.666 41.9526 136.518 42.2148 136.324 42.4287C136.131 42.6426 135.896 42.8066 135.621 42.9209C135.349 43.0322 135.04 43.0879 134.694 43.0879C134.372 43.0879 134.076 43.0322 133.806 42.9209C133.54 42.8066 133.308 42.6426 133.112 42.4287C132.918 42.2148 132.768 41.9526 132.659 41.6421C132.554 41.3315 132.501 40.9785 132.501 40.583C132.501 40.0557 132.59 39.6074 132.769 39.2383C132.948 38.8662 133.203 38.5835 133.534 38.3901C133.868 38.1938 134.265 38.0957 134.725 38.0957C135.164 38.0957 135.548 38.1938 135.876 38.3901C136.207 38.5864 136.463 38.8706 136.645 39.2427C136.83 39.6118 136.922 40.0586 136.922 40.583ZM133.257 40.583C133.257 40.9697 133.308 41.3052 133.411 41.5894C133.513 41.8735 133.671 42.0933 133.885 42.2485C134.099 42.4038 134.375 42.4814 134.711 42.4814C135.045 42.4814 135.319 42.4038 135.533 42.2485C135.75 42.0933 135.91 41.8735 136.012 41.5894C136.115 41.3052 136.166 40.9697 136.166 40.583C136.166 40.1992 136.115 39.8682 136.012 39.5898C135.91 39.3086 135.751 39.0918 135.538 38.9395C135.324 38.7871 135.047 38.7109 134.707 38.7109C134.206 38.7109 133.838 38.8765 133.604 39.2075C133.373 39.5386 133.257 39.9971 133.257 40.583ZM140.644 38.0957C141.215 38.0957 141.647 38.2363 141.94 38.5176C142.233 38.7959 142.38 39.2441 142.38 39.8623V43H141.659V39.9106C141.659 39.5093 141.567 39.209 141.382 39.0098C141.201 38.8105 140.921 38.7109 140.543 38.7109C140.01 38.7109 139.635 38.8618 139.418 39.1636C139.201 39.4653 139.093 39.9033 139.093 40.4775V43H138.363V38.1836H138.952L139.062 38.8779H139.101C139.204 38.708 139.334 38.5659 139.492 38.4517C139.651 38.3345 139.828 38.2466 140.024 38.188C140.221 38.1265 140.427 38.0957 140.644 38.0957ZM144.797 43H144.063V36.1621H144.797V43ZM145.759 38.1836H146.541L147.604 40.9785C147.666 41.1426 147.723 41.3008 147.776 41.4531C147.829 41.6025 147.875 41.7461 147.916 41.8838C147.957 42.0215 147.99 42.1548 148.013 42.2837H148.044C148.085 42.1372 148.144 41.9453 148.22 41.708C148.296 41.4678 148.378 41.2231 148.466 40.9741L149.472 38.1836H150.259L148.163 43.7075C148.051 44.0034 147.921 44.2612 147.771 44.481C147.625 44.7007 147.446 44.8691 147.235 44.9863C147.024 45.1064 146.769 45.1665 146.471 45.1665C146.333 45.1665 146.211 45.1577 146.106 45.1401C146 45.1255 145.91 45.1079 145.833 45.0874V44.5029C145.898 44.5176 145.976 44.5308 146.066 44.5425C146.16 44.5542 146.257 44.5601 146.356 44.5601C146.538 44.5601 146.695 44.5249 146.827 44.4546C146.961 44.3872 147.077 44.2876 147.174 44.1558C147.27 44.0239 147.354 43.8672 147.424 43.6855L147.688 43.0088L145.759 38.1836ZM155.361 40.583C155.361 40.9785 155.309 41.3315 155.207 41.6421C155.104 41.9526 154.956 42.2148 154.763 42.4287C154.57 42.6426 154.335 42.8066 154.06 42.9209C153.787 43.0322 153.478 43.0879 153.133 43.0879C152.81 43.0879 152.514 43.0322 152.245 42.9209C151.978 42.8066 151.747 42.6426 151.551 42.4287C151.357 42.2148 151.206 41.9526 151.098 41.6421C150.992 41.3315 150.94 40.9785 150.94 40.583C150.94 40.0557 151.029 39.6074 151.208 39.2383C151.387 38.8662 151.641 38.5835 151.972 38.3901C152.306 38.1938 152.703 38.0957 153.163 38.0957C153.603 38.0957 153.987 38.1938 154.315 38.3901C154.646 38.5864 154.902 38.8706 155.084 39.2427C155.268 39.6118 155.361 40.0586 155.361 40.583ZM151.696 40.583C151.696 40.9697 151.747 41.3052 151.849 41.5894C151.952 41.8735 152.11 42.0933 152.324 42.2485C152.538 42.4038 152.813 42.4814 153.15 42.4814C153.484 42.4814 153.758 42.4038 153.972 42.2485C154.189 42.0933 154.348 41.8735 154.451 41.5894C154.553 41.3052 154.605 40.9697 154.605 40.583C154.605 40.1992 154.553 39.8682 154.451 39.5898C154.348 39.3086 154.19 39.0918 153.976 38.9395C153.762 38.7871 153.486 38.7109 153.146 38.7109C152.645 38.7109 152.277 38.8765 152.043 39.2075C151.811 39.5386 151.696 39.9971 151.696 40.583ZM158.946 38.7549H157.747V43H157.017V38.7549H156.165V38.4033L157.017 38.1616V37.8408C157.017 37.4365 157.077 37.1084 157.197 36.8564C157.317 36.6016 157.492 36.4141 157.72 36.2939C157.949 36.1738 158.227 36.1138 158.555 36.1138C158.74 36.1138 158.908 36.1299 159.061 36.1621C159.216 36.1943 159.352 36.231 159.469 36.272L159.28 36.8477C159.181 36.8154 159.068 36.7861 158.942 36.7598C158.819 36.7305 158.693 36.7158 158.564 36.7158C158.286 36.7158 158.079 36.8066 157.944 36.9883C157.813 37.167 157.747 37.4482 157.747 37.832V38.1836H158.946V38.7549ZM161.974 38.7549H160.775V43H160.045V38.7549H159.192V38.4033L160.045 38.1616V37.8408C160.045 37.4365 160.105 37.1084 160.225 36.8564C160.345 36.6016 160.52 36.4141 160.748 36.2939C160.977 36.1738 161.255 36.1138 161.583 36.1138C161.768 36.1138 161.936 36.1299 162.088 36.1621C162.244 36.1943 162.38 36.231 162.497 36.272L162.308 36.8477C162.209 36.8154 162.096 36.7861 161.97 36.7598C161.847 36.7305 161.721 36.7158 161.592 36.7158C161.314 36.7158 161.107 36.8066 160.972 36.9883C160.84 37.167 160.775 37.4482 160.775 37.832V38.1836H161.974V38.7549ZM163.587 38.1836V43H162.858V38.1836H163.587ZM163.231 36.3818C163.351 36.3818 163.454 36.4214 163.539 36.5005C163.627 36.5767 163.671 36.6968 163.671 36.8608C163.671 37.022 163.627 37.1421 163.539 37.2212C163.454 37.3003 163.351 37.3398 163.231 37.3398C163.105 37.3398 163 37.3003 162.915 37.2212C162.833 37.1421 162.792 37.022 162.792 36.8608C162.792 36.6968 162.833 36.5767 162.915 36.5005C163 36.4214 163.105 36.3818 163.231 36.3818ZM167.234 43.0879C166.801 43.0879 166.418 42.9985 166.087 42.8198C165.756 42.6411 165.498 42.3687 165.314 42.0024C165.129 41.6362 165.037 41.1748 165.037 40.6182C165.037 40.0352 165.134 39.5591 165.327 39.1899C165.523 38.8179 165.793 38.5425 166.136 38.3638C166.478 38.1851 166.868 38.0957 167.305 38.0957C167.545 38.0957 167.776 38.1206 167.999 38.1704C168.225 38.2173 168.409 38.2773 168.553 38.3506L168.333 38.9614C168.186 38.9028 168.017 38.8501 167.823 38.8032C167.633 38.7563 167.454 38.7329 167.287 38.7329C166.953 38.7329 166.675 38.8047 166.452 38.9482C166.232 39.0918 166.067 39.3027 165.955 39.5811C165.847 39.8594 165.793 40.2021 165.793 40.6094C165.793 40.999 165.846 41.3315 165.951 41.6069C166.059 41.8823 166.219 42.0933 166.43 42.2397C166.644 42.3833 166.911 42.4551 167.23 42.4551C167.485 42.4551 167.715 42.4287 167.92 42.376C168.125 42.3203 168.311 42.2559 168.478 42.1826V42.833C168.317 42.915 168.137 42.978 167.937 43.022C167.741 43.0659 167.507 43.0879 167.234 43.0879ZM171.655 38.0957C172.065 38.0957 172.417 38.1865 172.71 38.3682C173.003 38.5498 173.227 38.8047 173.382 39.1328C173.537 39.458 173.615 39.8389 173.615 40.2754V40.728H170.288C170.297 41.2935 170.438 41.7241 170.71 42.02C170.983 42.3159 171.366 42.4639 171.862 42.4639C172.166 42.4639 172.436 42.436 172.67 42.3804C172.905 42.3247 173.148 42.2427 173.4 42.1343V42.7759C173.156 42.8843 172.915 42.9634 172.675 43.0132C172.437 43.063 172.156 43.0879 171.831 43.0879C171.368 43.0879 170.964 42.9941 170.618 42.8066C170.275 42.6162 170.009 42.3379 169.818 41.9717C169.628 41.6055 169.532 41.1572 169.532 40.627C169.532 40.1084 169.619 39.6602 169.792 39.2822C169.968 38.9014 170.214 38.6084 170.53 38.4033C170.849 38.1982 171.224 38.0957 171.655 38.0957ZM171.646 38.6934C171.257 38.6934 170.946 38.8208 170.715 39.0757C170.483 39.3306 170.345 39.6865 170.302 40.1436H172.85C172.847 39.8564 172.802 39.6045 172.714 39.3877C172.629 39.168 172.499 38.998 172.323 38.8779C172.147 38.7549 171.922 38.6934 171.646 38.6934Z" fill="#A0A5A6"/>
<rect x="22.5" y="91.5" width="195" height="34" rx="1.5" fill="white" stroke="#E2E2E2"/>
<path d="M32.5208 111.227L32.654 109.166L30.9281 110.322L30.2144 109.065L32.0734 108.159L30.2144 107.254L30.9281 105.996L32.654 107.152L32.5208 105.091H33.9537L33.8152 107.152L35.5411 105.996L36.2548 107.254L34.4011 108.159L36.2548 109.065L35.5411 110.322L33.8152 109.166L33.9537 111.227H32.5208Z" fill="#192435"/>
<path d="M40.9876 111.227L41.1208 109.166L39.3949 110.322L38.6812 109.065L40.5402 108.159L38.6812 107.254L39.3949 105.996L41.1208 107.152L40.9876 105.091H42.4205L42.282 107.152L44.0079 105.996L44.7216 107.254L42.8679 108.159L44.7216 109.065L44.0079 110.322L42.282 109.166L42.4205 111.227H40.9876Z" fill="#192435"/>
<path d="M49.4544 111.227L49.5876 109.166L47.8617 110.322L47.1479 109.065L49.007 108.159L47.1479 107.254L47.8617 105.996L49.5876 107.152L49.4544 105.091H50.8873L50.7488 107.152L52.4747 105.996L53.1884 107.254L51.3347 108.159L53.1884 109.065L52.4747 110.322L50.7488 109.166L50.8873 111.227H49.4544Z" fill="#192435"/>
<path d="M57.9212 111.227L58.0544 109.166L56.3285 110.322L55.6147 109.065L57.4738 108.159L55.6147 107.254L56.3285 105.996L58.0544 107.152L57.9212 105.091H59.3541L59.2156 107.152L60.9415 105.996L61.6552 107.254L59.8015 108.159L61.6552 109.065L60.9415 110.322L59.2156 109.166L59.3541 111.227H57.9212Z" fill="#192435"/>
<path d="M66.388 111.227L66.5212 109.166L64.7953 110.322L64.0815 109.065L65.9406 108.159L64.0815 107.254L64.7953 105.996L66.5212 107.152L66.388 105.091H67.8209L67.6824 107.152L69.4082 105.996L70.122 107.254L68.2683 108.159L70.122 109.065L69.4082 110.322L67.6824 109.166L67.8209 111.227H66.388Z" fill="#192435"/>
<path d="M74.8548 111.227L74.988 109.166L73.2621 110.322L72.5483 109.065L74.4074 108.159L72.5483 107.254L73.2621 105.996L74.988 107.152L74.8548 105.091H76.2877L76.1492 107.152L77.875 105.996L78.5888 107.254L76.7351 108.159L78.5888 109.065L77.875 110.322L76.1492 109.166L76.2877 111.227H74.8548Z" fill="#192435"/>
<path d="M83.3216 111.227L83.4548 109.166L81.7289 110.322L81.0151 109.065L82.8742 108.159L81.0151 107.254L81.7289 105.996L83.4548 107.152L83.3216 105.091H84.7545L84.616 107.152L86.3418 105.996L87.0556 107.254L85.2019 108.159L87.0556 109.065L86.3418 110.322L84.616 109.166L84.7545 111.227H83.3216Z" fill="#192435"/>
<path d="M91.7884 111.227L91.9216 109.166L90.1957 110.322L89.4819 109.065L91.341 108.159L89.4819 107.254L90.1957 105.996L91.9216 107.152L91.7884 105.091H93.2213L93.0828 107.152L94.8086 105.996L95.5224 107.254L93.6687 108.159L95.5224 109.065L94.8086 110.322L93.0828 109.166L93.2213 111.227H91.7884Z" fill="#192435"/>
<path d="M100.255 111.227L100.388 109.166L98.6625 110.322L97.9487 109.065L99.8077 108.159L97.9487 107.254L98.6625 105.996L100.388 107.152L100.255 105.091H101.688L101.55 107.152L103.275 105.996L103.989 107.254L102.136 108.159L103.989 109.065L103.275 110.322L101.55 109.166L101.688 111.227H100.255Z" fill="#192435"/>
<path d="M108.722 111.227L108.855 109.166L107.129 110.322L106.416 109.065L108.275 108.159L106.416 107.254L107.129 105.996L108.855 107.152L108.722 105.091H110.155L110.016 107.152L111.742 105.996L112.456 107.254L110.602 108.159L112.456 109.065L111.742 110.322L110.016 109.166L110.155 111.227H108.722Z" fill="#192435"/>
<path d="M117.189 111.227L117.322 109.166L115.596 110.322L114.882 109.065L116.741 108.159L114.882 107.254L115.596 105.996L117.322 107.152L117.189 105.091H118.622L118.483 107.152L120.209 105.996L120.923 107.254L119.069 108.159L120.923 109.065L120.209 110.322L118.483 109.166L118.622 111.227H117.189Z" fill="#192435"/>
<path d="M125.656 111.227L125.789 109.166L124.063 110.322L123.349 109.065L125.208 108.159L123.349 107.254L124.063 105.996L125.789 107.152L125.656 105.091H127.088L126.95 107.152L128.676 105.996L129.39 107.254L127.536 108.159L129.39 109.065L128.676 110.322L126.95 109.166L127.088 111.227H125.656Z" fill="#192435"/>
<path d="M134.122 111.227L134.256 109.166L132.53 110.322L131.816 109.065L133.675 108.159L131.816 107.254L132.53 105.996L134.256 107.152L134.122 105.091H135.555L135.417 107.152L137.143 105.996L137.856 107.254L136.003 108.159L137.856 109.065L137.143 110.322L135.417 109.166L135.555 111.227H134.122Z" fill="#192435"/>
<path d="M142.589 111.227L142.722 109.166L140.996 110.322L140.283 109.065L142.142 108.159L140.283 107.254L140.996 105.996L142.722 107.152L142.589 105.091H144.022L143.884 107.152L145.609 105.996L146.323 107.254L144.47 108.159L146.323 109.065L145.609 110.322L143.884 109.166L144.022 111.227H142.589Z" fill="#192435"/>
<path d="M151.056 111.227L151.189 109.166L149.463 110.322L148.75 109.065L150.609 108.159L148.75 107.254L149.463 105.996L151.189 107.152L151.056 105.091H152.489L152.35 107.152L154.076 105.996L154.79 107.254L152.936 108.159L154.79 109.065L154.076 110.322L152.35 109.166L152.489 111.227H151.056Z" fill="#192435"/>
<path d="M159.523 111.227L159.656 109.166L157.93 110.322L157.216 109.065L159.075 108.159L157.216 107.254L157.93 105.996L159.656 107.152L159.523 105.091H160.956L160.817 107.152L162.543 105.996L163.257 107.254L161.403 108.159L163.257 109.065L162.543 110.322L160.817 109.166L160.956 111.227H159.523Z" fill="#192435"/>
<path d="M167.99 111.227L168.123 109.166L166.397 110.322L165.683 109.065L167.542 108.159L165.683 107.254L166.397 105.996L168.123 107.152L167.99 105.091H169.422L169.284 107.152L171.01 105.996L171.724 107.254L169.87 108.159L171.724 109.065L171.01 110.322L169.284 109.166L169.422 111.227H167.99Z" fill="#192435"/>
<path d="M176.456 111.227L176.59 109.166L174.864 110.322L174.15 109.065L176.009 108.159L174.15 107.254L174.864 105.996L176.59 107.152L176.456 105.091H177.889L177.751 107.152L179.477 105.996L180.19 107.254L178.337 108.159L180.19 109.065L179.477 110.322L177.751 109.166L177.889 111.227H176.456Z" fill="#192435"/>
<path d="M184.923 111.227L185.056 109.166L183.33 110.322L182.617 109.065L184.476 108.159L182.617 107.254L183.33 105.996L185.056 107.152L184.923 105.091H186.356L186.218 107.152L187.943 105.996L188.657 107.254L186.803 108.159L188.657 109.065L187.943 110.322L186.218 109.166L186.356 111.227H184.923Z" fill="#192435"/>
<rect x="22" y="137" width="63" height="32" rx="3" fill="#337AB7"/>
<path d="M32 153.25L35.5 157.25L43 148.75" stroke="white" stroke-width="3" stroke-linecap="round" stroke-linejoin="round"/>
<path d="M51.614 147.158L52.524 147.431C52.147 148.367 51.705 149.29 51.198 150.135V158.962H50.275V151.552C49.833 152.176 49.352 152.735 48.884 153.216C48.78 153.008 48.507 152.501 48.338 152.28C49.625 151.045 50.873 149.121 51.614 147.158ZM53.863 148.601V150.98H58.686V148.601H53.863ZM60.363 154.334H57.282C58.14 155.699 59.453 157.012 60.701 157.688C60.493 157.857 60.181 158.208 60.012 158.455C58.855 157.701 57.607 156.349 56.723 154.932V159.001H55.761V154.971C54.851 156.401 53.551 157.701 52.29 158.429C52.121 158.195 51.835 157.844 51.614 157.662C52.953 156.999 54.331 155.712 55.202 154.334H51.991V153.45H55.761V151.838H52.953V147.73H59.648V151.838H56.723V153.45H60.363V154.334ZM73.415 149.745H66.408C65.953 150.798 65.381 151.799 64.705 152.722V158.962H63.743V153.866C63.288 154.36 62.781 154.802 62.235 155.192C62.131 154.945 61.884 154.516 61.715 154.308C63.288 153.19 64.484 151.526 65.316 149.745H62.118V148.809H65.719C65.94 148.25 66.122 147.678 66.278 147.119L67.292 147.379C67.149 147.86 66.98 148.341 66.798 148.809H73.415V149.745ZM73.662 154.529V155.439H70.217V157.857C70.217 158.416 70.1 158.689 69.671 158.845C69.242 158.975 68.527 158.988 67.422 158.988C67.37 158.715 67.24 158.338 67.11 158.078C67.981 158.104 68.735 158.091 68.969 158.091C69.203 158.078 69.255 158.026 69.255 157.844V155.439H65.628V154.529H69.255V153.333H69.632C70.165 152.995 70.724 152.527 71.179 152.072H66.733V151.201H72.024L72.219 151.136L72.843 151.617C72.154 152.41 71.14 153.268 70.217 153.866V154.529H73.662Z" fill="white"/>
<path d="M194 248.5H194.561L194.497 247.943L190.831 215.943L190.78 215.5H190.334H122.4H121.964L121.905 215.932L117.505 247.932L117.427 248.5H118H194Z" fill="#CCCCCC" stroke="#333333"/>
<path d="M6.5 208.442V188.5H307.5V208.442C307.5 212.382 304.396 215.5 300.495 215.5H13.5054C9.59909 215.5 6.5 212.383 6.5 208.442Z" fill="#E2E2E2" stroke="#333333"/>
<path d="M107.333 251.5L117.106 248.5H194.894L204.667 251.5H107.333Z" fill="#E2E2E2" stroke="#333333"/>
<path d="M207.281 252.5L206.909 253.5H104.986L104.677 252.5H207.281Z" fill="#AAAAAA" stroke="#333333"/>
<path d="M162.5 201.497C162.5 204.26 160.259 206.5 157.5 206.5C154.741 206.5 152.5 204.26 152.5 201.497C152.5 198.74 154.74 196.5 157.5 196.5C160.26 196.5 162.5 198.735 162.5 201.497Z" fill="#AAAAAA" stroke="#333333"/>
<path d="M372.5 253C414.197 253 448 250.761 448 248C448 245.239 414.197 243 372.5 243C330.803 243 297 245.239 297 248C297 250.761 330.803 253 372.5 253Z" fill="#EFEFEF"/>
<path fill-rule="evenodd" clip-rule="evenodd" d="M358.579 47.113C358.238 48.9467 357.59 51.5149 356.442 52.1438C355.664 52.5758 354.472 51.8894 352.652 48.8747C354.477 48.7835 356.427 48.2459 358.161 47.3386C358.301 47.2666 358.44 47.1898 358.579 47.113ZM350.034 48.6683C349.16 49.7148 348.377 50.4252 347.695 50.8909C346.681 51.5773 345.985 51.6829 345.595 51.5485C345.264 51.4285 345.096 50.8669 345.033 50.1612C344.918 48.9179 345.154 47.3674 345.341 46.5033C345.701 46.4553 346.076 46.4073 346.455 46.3689L346.647 46.6377C347.454 47.689 348.646 48.3515 350.034 48.6683Z" fill="#CCCCCC"/>
<path fill-rule="evenodd" clip-rule="evenodd" d="M346.506 46.2551L346.734 46.5734C347.522 47.5995 348.688 48.2505 350.057 48.563L350.229 48.6022L350.116 48.7375C349.237 49.7896 348.447 50.5075 347.755 50.9801C346.734 51.6718 345.999 51.8022 345.56 51.6506L345.558 51.6501C345.347 51.5735 345.207 51.3647 345.112 51.1124C345.016 50.8558 344.957 50.5281 344.925 50.1709C344.809 48.9113 345.047 47.3482 345.235 46.4804L345.251 46.4063L345.326 46.3962C345.687 46.3482 346.063 46.3 346.444 46.2614L346.506 46.2551ZM345.43 46.6003C345.247 47.4727 345.03 48.9588 345.141 50.1512C345.171 50.4996 345.228 50.806 345.314 51.0366C345.402 51.2711 345.511 51.403 345.631 51.4467C345.97 51.5635 346.628 51.4821 347.633 50.8016C348.276 50.3628 349.014 49.7004 349.838 48.7325C348.504 48.3968 347.353 47.7352 346.561 46.7035L346.559 46.7005L346.403 46.4827C346.073 46.5171 345.747 46.5584 345.43 46.6003ZM358.727 46.908L358.685 47.1327C358.514 48.0517 358.265 49.1591 357.914 50.1174C357.738 50.5965 357.536 51.0416 357.303 51.4082C357.07 51.7739 356.803 52.069 356.493 52.2385C356.05 52.4844 355.509 52.3939 354.87 51.8863C354.232 51.3797 353.471 50.4412 352.559 48.9305L352.465 48.7758L352.646 48.7668C354.455 48.6764 356.39 48.1433 358.111 47.2429C358.249 47.1716 358.387 47.0953 358.527 47.0184L358.727 46.908ZM358.43 47.3178C358.357 47.3574 358.284 47.3965 358.211 47.4344C356.52 48.3187 354.626 48.8548 352.837 48.9721C353.703 50.3852 354.418 51.2515 355.004 51.7172C355.61 52.1983 356.054 52.2351 356.389 52.0493C356.654 51.9044 356.898 51.6424 357.121 51.2923C357.342 50.9433 357.539 50.5137 357.711 50.043C358.029 49.1775 358.262 48.1833 358.43 47.3178Z" fill="#CCCCCC"/>
<path fill-rule="evenodd" clip-rule="evenodd" d="M358.646 23.6391C358.685 21.8245 358.617 20.3076 358.469 19.0451C358.281 17.5042 357.959 16.3185 357.537 15.4208C357.224 14.7584 356.754 14.1199 356.182 13.6063C355.639 13.1118 354.996 12.7182 354.304 12.507C353.439 12.2429 352.599 12.2958 351.782 12.5454C351.018 12.7758 350.288 13.179 349.573 13.6495C349.217 13.8799 348.91 14.1007 348.617 14.3119C347.401 15.1808 346.431 15.8768 344.687 15.4064C344.567 15.3728 344.452 15.3152 344.356 15.2336C344.217 15.1136 344.106 14.9504 344.049 14.7584C343.986 14.5519 343.981 14.3119 344.053 14.0431C344.125 13.7647 344.289 13.4622 344.553 13.1502L344.587 13.1022C344.683 12.9678 344.803 12.8334 344.942 12.699C346.114 11.5565 348.453 10.6732 351.114 10.4908C353.795 10.3084 356.773 10.8604 359.175 12.5982C359.636 12.9294 360.073 13.3038 360.486 13.7311C361.461 14.7344 362.21 16.1313 362.6 18.0322C362.936 19.6788 363.003 21.6997 362.715 24.1671C362.58 23.9223 362.417 23.7063 362.225 23.5239C361.855 23.1782 361.384 22.967 360.827 22.9382C360.207 22.9046 359.472 23.111 358.646 23.6391Z" fill="#666666"/>
<path fill-rule="evenodd" clip-rule="evenodd" d="M359.111 12.6857C356.735 10.9664 353.784 10.4174 351.122 10.5986C348.474 10.7801 346.164 11.6587 345.017 12.7763C344.882 12.9074 344.766 13.0371 344.675 13.1646L344.636 13.2203C344.379 13.5234 344.225 13.8113 344.158 14.0702C344.09 14.3219 344.096 14.5422 344.152 14.7271C344.204 14.8987 344.302 15.0446 344.426 15.1516C344.509 15.2217 344.61 15.2724 344.716 15.3023C345.567 15.5319 346.223 15.4757 346.813 15.26C347.409 15.0422 347.943 14.6605 348.554 14.2242C348.847 14.0131 349.156 13.7909 349.514 13.559C350.233 13.0863 350.973 12.6768 351.751 12.442C352.584 12.1874 353.447 12.1323 354.336 12.4037C355.045 12.6203 355.702 13.0228 356.255 13.5262C356.837 14.0494 357.316 14.6994 357.634 15.3748C358.064 16.286 358.388 17.4837 358.576 19.0321C358.72 20.2543 358.788 21.7121 358.758 23.4432C359.53 22.9835 360.229 22.7976 360.833 22.8304C361.416 22.8606 361.91 23.0822 362.299 23.445C362.425 23.5651 362.54 23.6995 362.642 23.8454C362.889 21.5265 362.813 19.6175 362.494 18.0539C362.108 16.17 361.367 14.7927 360.409 13.8064C360 13.3839 359.567 13.0132 359.111 12.6857ZM359.238 12.5106C356.811 10.7545 353.806 10.1994 351.107 10.3831C348.433 10.5664 346.064 11.4542 344.867 12.6215C344.724 12.7591 344.6 12.8984 344.499 13.0394L344.467 13.0843C344.198 13.4038 344.026 13.7189 343.949 14.0156C343.872 14.3013 343.876 14.5618 343.945 14.7895C344.009 15.0018 344.131 15.1824 344.286 15.3154C344.395 15.4083 344.525 15.4731 344.658 15.5104L344.659 15.5107C345.552 15.7514 346.253 15.6947 346.887 15.4629C347.512 15.2346 348.067 14.8376 348.667 14.4084L348.68 14.3998C348.973 14.1886 349.278 13.9689 349.631 13.7401C350.343 13.2721 351.064 12.8749 351.813 12.6488C352.613 12.4042 353.432 12.3537 354.272 12.6103C354.947 12.8161 355.577 13.2007 356.109 13.6861C356.67 14.1902 357.133 14.8174 357.439 15.4668C357.855 16.351 358.175 17.5246 358.361 19.058C358.51 20.3144 358.577 21.8261 358.538 23.6368L358.534 23.839L358.705 23.7301C359.518 23.2104 360.23 23.014 360.821 23.0461C361.353 23.0736 361.8 23.2743 362.151 23.6025C362.334 23.7765 362.491 23.9833 362.62 24.2192L362.783 24.5153L362.822 24.1797C363.111 21.704 363.045 19.6711 362.705 18.0106C362.313 16.0928 361.555 14.6763 360.564 13.656C360.146 13.2241 359.704 12.8454 359.238 12.5106Z" fill="#666666"/>
<path fill-rule="evenodd" clip-rule="evenodd" d="M342.944 14.3839C342.079 15.3536 341.373 16.5969 340.84 18.0226C339.682 21.1333 339.341 25.1368 339.975 28.9627C340.614 32.8222 342.247 36.5281 345.019 39.0051C346.095 39.9652 347.344 40.7429 348.77 41.2757C348.982 41.3573 352.128 42.2406 355.865 39.0291C357.709 37.4402 359.741 34.8336 361.677 30.5949L360.351 29.99C358.516 34.0127 356.624 36.4561 354.919 37.9203C351.792 40.6085 349.433 39.9652 349.279 39.9076C348.03 39.4468 346.94 38.7651 345.999 37.9203C343.491 35.6785 342.012 32.2846 341.421 28.7275C340.825 25.1416 341.138 21.4069 342.209 18.5315C342.679 17.2737 343.289 16.1841 344.034 15.3536L342.944 14.3839Z" fill="#333333"/>
<path fill-rule="evenodd" clip-rule="evenodd" d="M358.613 24.6759C358.704 22.3909 358.646 20.538 358.464 19.045C358.276 17.5041 357.955 16.3184 357.532 15.4207C357.22 14.7583 356.749 14.1198 356.177 13.6062C355.635 13.1118 354.991 12.7181 354.299 12.5069C353.435 12.2429 352.594 12.2957 351.777 12.5453C351.014 12.7757 350.283 13.179 349.568 13.6494C349.212 13.8798 348.905 14.1006 348.612 14.3119C347.397 15.1807 346.426 15.8768 344.683 15.4063C344.562 15.3727 344.447 15.3151 344.351 15.2335C344.212 15.1135 344.101 14.9503 344.044 14.7583C343.981 14.5519 343.976 14.3119 344.049 14.043C344.121 13.7646 344.284 13.4622 344.548 13.1502L344.582 13.1022C344.678 12.9677 344.798 12.8333 344.937 12.6989C346.109 11.5564 348.449 10.6732 351.11 10.4907C353.79 10.3083 356.768 10.8604 359.17 12.5981C359.631 12.9293 360.068 13.3038 360.481 13.731C361.456 14.7343 362.206 16.1312 362.595 18.0322C362.955 19.8035 363.003 22.0021 362.643 24.7239L362.59 25.1367C362.407 26.5625 362.292 27.4505 361.413 28.6698C361.288 28.8427 361.144 29.0299 360.976 29.2315C360.832 29.4091 360.664 29.6011 360.472 29.8027L360.64 30.4076L361.538 30.7964C361.725 30.5948 361.913 30.3836 362.095 30.158C362.263 29.9563 362.427 29.7451 362.59 29.5195C363.68 28.0026 363.815 26.9753 364.031 25.324L364.084 24.9111C364.468 22.0213 364.41 19.6595 364.017 17.7393C363.57 15.5408 362.681 13.9038 361.519 12.7133C361.048 12.2285 360.544 11.8013 360.015 11.4172C357.306 9.45386 353.982 8.83461 350.999 9.03622C347.997 9.23784 345.307 10.2891 343.904 11.6524C343.722 11.8301 343.559 12.0173 343.414 12.2093C343.001 12.6941 342.747 13.1886 342.622 13.6638C342.478 14.2062 342.497 14.7247 342.636 15.1807C342.78 15.6512 343.049 16.0496 343.395 16.3424C343.659 16.5632 343.967 16.7265 344.293 16.8177C346.705 17.4657 347.92 16.592 349.452 15.4976C349.745 15.2911 350.048 15.0703 350.355 14.8687C350.966 14.4655 351.58 14.1246 352.19 13.9374C352.748 13.7694 353.305 13.731 353.862 13.899C354.333 14.043 354.784 14.3215 355.178 14.6815C355.606 15.0703 355.961 15.5504 356.197 16.04C356.557 16.7985 356.831 17.8353 356.999 19.2131C357.157 20.5332 357.22 22.1461 357.157 24.1095L357.527 24.6279L358.613 24.6759Z" fill="#333333"/>
<path fill-rule="evenodd" clip-rule="evenodd" d="M358.29 25.1272C359.314 24.2247 360.149 23.8743 360.783 23.9031C361.101 23.9175 361.36 24.0375 361.566 24.2247C361.787 24.4311 361.946 24.724 362.042 25.0744C362.297 25.9865 362.104 27.2394 361.384 28.3675C361.201 28.6555 360.894 28.9771 360.519 29.2363C360.337 29.3611 360.14 29.4667 359.938 29.5436C359.174 29.8268 359.554 30.6668 360.015 30.542C360.394 30.4364 360.755 30.2588 361.072 30.0428C361.557 29.7116 361.96 29.2795 362.205 28.8955C363.08 27.5274 363.301 25.9769 362.983 24.82C362.839 24.2967 362.585 23.8455 362.229 23.5191C361.859 23.1734 361.389 22.9622 360.832 22.9334C359.952 22.8902 358.848 23.3222 357.58 24.4551C357.128 24.8632 357.676 25.6696 358.29 25.1272Z" fill="#333333"/>
<path fill-rule="evenodd" clip-rule="evenodd" d="M360.044 25.6072C360.188 25.5784 360.313 25.5784 360.418 25.6024C360.539 25.6312 360.635 25.6984 360.692 25.7896C360.759 25.9 360.798 26.0488 360.798 26.2216C360.798 26.5817 360.649 27.0425 360.342 27.5177C360.236 27.681 360.063 27.8682 359.847 28.0122C359.765 28.0698 359.674 28.1226 359.578 28.161C359.064 28.3818 359.232 28.7994 359.645 28.6554C359.813 28.5978 359.977 28.5114 360.121 28.4154C360.39 28.233 360.615 27.993 360.75 27.7818C361.105 27.2249 361.283 26.6729 361.283 26.2216C361.283 25.9528 361.221 25.7128 361.101 25.5256C360.971 25.324 360.779 25.1848 360.524 25.1271C360.375 25.0935 360.202 25.0887 360.005 25.1175C359.366 25.2232 359.439 25.7272 360.044 25.6072Z" fill="#333333"/>
<path fill-rule="evenodd" clip-rule="evenodd" d="M359.545 46.0809L359.007 35.1696L357.546 35.2368L358.089 46.1481L359.545 46.0809Z" fill="#333333"/>
<path fill-rule="evenodd" clip-rule="evenodd" d="M347.766 46.0233L348.563 40.1716L347.118 39.9748L346.315 45.8265L347.766 46.0233Z" fill="#333333"/>
<path fill-rule="evenodd" clip-rule="evenodd" d="M358.843 45.4857L358.829 45.5673C358.632 46.9018 357.988 51.2941 356.441 52.1438C355.577 52.6238 354.203 51.7262 352.022 47.7802L350.74 48.4811C353.454 53.3967 355.558 54.2992 357.143 53.4207C359.328 52.2158 360.054 47.2714 360.275 45.7737L360.289 45.6921L358.843 45.4857Z" fill="#333333"/>
<path fill-rule="evenodd" clip-rule="evenodd" d="M344.044 45.6537C343.847 46.3641 343.415 48.5723 343.578 50.2957C343.693 51.5294 344.121 52.571 345.11 52.9215C345.86 53.1855 347.046 53.0943 348.516 52.0958C349.506 51.419 350.673 50.3101 351.965 48.5675L350.793 47.6987C349.606 49.2924 348.564 50.2957 347.69 50.8909C346.676 51.5774 345.98 51.683 345.591 51.5486C345.259 51.4286 345.091 50.8669 345.029 50.1613C344.885 48.6443 345.274 46.681 345.447 46.0473L344.044 45.6537Z" fill="#333333"/>
<path fill-rule="evenodd" clip-rule="evenodd" d="M349.274 28.9867C346.887 29.9324 346.046 28.8235 346.08 27.7914C346.118 26.3993 347.425 26.6777 347.161 24.4215C348.294 26.0104 345.739 27.7722 347.266 28.6026C347.593 28.7803 348.112 28.9627 349.274 28.9867Z" fill="#333333"/>
<path fill-rule="evenodd" clip-rule="evenodd" d="M347.997 32.3422C350.788 34.5936 351.801 30.5996 352.291 29.9852C352.152 34.944 348.348 34.5984 347.997 32.3422Z" fill="#333333"/>
<path fill-rule="evenodd" clip-rule="evenodd" d="M350.178 23.6006C351.662 20.0915 355.601 22.0933 355.615 23.9703C355.428 23.7639 354.602 23.2694 354.131 23.2118C353.968 25.3 351.47 25.7368 350.797 23.5094C350.533 23.495 350.375 23.4806 350.178 23.6006Z" fill="#333333"/>
<path fill-rule="evenodd" clip-rule="evenodd" d="M341.685 23.4518C343.035 19.8899 347.051 21.7429 347.137 23.6198C346.94 23.423 346.099 22.9574 345.624 22.919C345.542 25.012 343.059 25.54 342.305 23.3414C342.036 23.3318 341.877 23.327 341.685 23.4518Z" fill="#333333"/>
<path fill-rule="evenodd" clip-rule="evenodd" d="M308.555 46.4502C307.767 42.9508 307.969 40.9379 308.267 39.4594L308.31 39.2529C308.401 38.7921 308.541 38.2785 308.67 37.7888C308.935 36.7903 309.175 35.8879 309.06 35.2302C308.915 34.3997 308.435 33.9725 307.383 34.1549C305.678 34.4477 304.861 36.0271 304.174 37.3472C303.809 38.0528 303.502 38.6433 303.411 38.6289C303.315 38.5953 303.219 38.5521 303.122 38.4993C303.017 38.4417 302.911 38.3649 302.796 38.2833C302.594 38.1344 302.263 37.8416 301.854 37.4864C299.544 35.451 295.005 31.4523 291.849 34.1213C290.974 34.8606 290.513 36.3007 290.998 38.2929C291.354 39.7426 292.219 41.5331 293.818 43.5925C293.881 43.6693 294.15 43.9669 294.721 44.3942C295.029 44.6198 295.437 44.8982 295.98 45.2198C296.537 45.5511 297.2 45.7959 297.997 46.0935C299.193 46.5399 300.721 47.1064 302.508 48.2009L303.719 47.0936C301.807 45.9223 299.765 45.191 298.506 44.7254C297.767 44.4518 297.157 44.2213 296.724 43.9669C296.239 43.6789 295.869 43.4293 295.591 43.2229C295.168 42.9108 295.009 42.7476 294.976 42.7044C293.511 40.8131 292.728 39.2193 292.415 37.9568C292.074 36.5695 292.305 35.6526 292.79 35.2398C294.981 33.3869 298.895 36.8335 300.884 38.5857C301.312 38.9601 301.657 39.2673 301.922 39.4642C302.075 39.5746 302.234 39.6802 302.397 39.7762C302.575 39.877 302.757 39.9586 302.945 40.021C304.213 40.4338 304.78 39.3393 305.462 38.024C305.995 36.9968 306.634 35.7726 307.619 35.5998C307.628 35.5998 307.604 35.4126 307.614 35.4846C307.671 35.8303 307.47 36.5887 307.249 37.4288C307.119 37.9184 306.984 38.4321 306.874 38.9841L306.831 39.1905C306.494 40.8563 306.269 42.994 307.119 46.7815L308.555 46.4502Z" fill="#333333"/>
<path fill-rule="evenodd" clip-rule="evenodd" d="M305.125 47.3436C304.433 47.6173 304.43 47.0172 303.906 47.3436C302.177 46.3307 299.668 45.1429 298.506 44.7109C297.766 44.4372 297.156 44.2068 296.724 43.9524C296.239 43.6644 295.869 43.4148 295.59 43.2083C295.168 42.8963 295.009 42.7331 294.975 42.6899C294.841 42.5171 294.716 42.3491 294.591 42.1811C293.371 40.5105 292.694 39.0896 292.415 37.9375C292.074 36.5502 292.305 35.6333 292.79 35.2205C293.011 35.0333 293.251 34.8989 293.501 34.8124C295.749 34.0444 299.092 36.987 300.884 38.5664C301.311 38.9408 301.657 39.248 301.921 39.4448C302.075 39.5552 302.234 39.6608 302.397 39.7569C302.575 39.8577 302.757 39.9393 302.944 40.0017C304.213 40.4145 304.779 39.32 305.461 38.0047C305.995 36.9774 306.634 35.7533 307.623 35.5805C307.628 35.9597 307.45 36.651 307.248 37.4095C307.119 37.8991 306.984 38.4127 306.874 38.9648L306.83 39.1712C306.518 40.7313 306.363 43.4628 307.031 46.6982C306.349 46.8806 305.874 47.0508 305.125 47.3436Z" fill="#FEFEFE"/>
<path fill-rule="evenodd" clip-rule="evenodd" d="M351.196 88.2956C350.034 88.0844 348.914 87.6715 347.387 86.9083C346.316 86.3706 345.446 85.809 344.75 85.2425C344.154 84.7577 343.684 84.268 343.323 83.7832C343.487 85.3433 343.919 87.0619 344.495 88.7852C345.321 91.2526 346.436 93.7296 347.483 95.8034C347.987 94.4209 348.66 92.9568 349.414 91.4974C349.976 90.4126 350.581 89.3325 351.196 88.2956Z" fill="#FF6F3D"/>
<path fill-rule="evenodd" clip-rule="evenodd" d="M342.934 82.7835L343.551 83.6141C343.895 84.0775 344.349 84.5504 344.929 85.0226M342.934 82.7835L343.041 83.8127L342.934 82.7835ZM344.764 88.6952C344.307 87.328 343.943 85.9703 343.733 84.6984L344.764 88.6952ZM343.733 84.6984C343.982 84.9545 344.26 85.2095 344.571 85.4623L344.571 85.4624C345.286 86.0437 346.173 86.6161 347.26 87.1615L347.26 87.1618C348.631 87.8467 349.689 88.2586 350.75 88.4945C350.202 89.4295 349.665 90.3961 349.162 91.367L349.162 91.3673C348.514 92.622 347.924 93.8836 347.447 95.0971C346.492 93.1574 345.509 90.9208 344.764 88.6953M343.041 83.8127C343.208 85.4005 343.646 87.1403 344.226 88.8751L343.041 83.8127ZM344.929 85.0226C345.607 85.5742 346.458 86.125 347.514 86.6547C349.028 87.4113 350.12 87.812 351.247 88.0166L351.648 88.0895L351.44 88.4401C350.827 89.473 350.225 90.5483 349.666 91.6277C348.915 93.0801 348.248 94.5327 347.749 95.9005L347.525 96.5153L347.23 95.9311C346.179 93.8497 345.058 91.3596 344.226 88.8752L344.226 88.8751" fill="#FF6F3D"/>
<path fill-rule="evenodd" clip-rule="evenodd" d="M343.251 82.4103C343.237 84.2968 343.746 86.5338 344.495 88.7852C345.321 91.2526 346.436 93.7296 347.483 95.8034C347.987 94.4209 348.66 92.9567 349.414 91.4974C350.74 88.9388 352.315 86.3946 353.694 84.3592L354.823 85.1177C353.463 87.1243 351.912 89.6253 350.62 92.1215C349.611 94.0752 348.756 96.029 348.28 97.7379L347.829 99.3653L347.027 97.8772C345.768 95.5346 344.255 92.3759 343.203 89.222C342.411 86.8458 341.873 84.4648 341.887 82.4151L343.251 82.4103Z" fill="#333333"/>
<path fill-rule="evenodd" clip-rule="evenodd" d="M336.44 63.1799C334.149 66.3721 330.267 70.0156 326.136 72.5502C322.543 74.7536 318.787 76.1025 315.819 75.5313C315.492 75.4689 314.109 75.0177 311.928 71.5614C309.656 67.9563 306.711 61.2549 303.608 48.8171C304.074 48.6155 304.699 48.4283 305.352 48.2794C306.284 48.0634 307.264 47.9194 307.989 47.8666C308.45 48.9611 308.945 50.214 309.459 51.5149C311.544 56.8097 313.974 62.9879 317.961 67.1882L318.393 67.6442L318.907 67.2842C320.252 66.3481 323.84 62.1094 327.174 58.1635C329.907 54.9328 332.467 51.9037 333.342 51.2077C334.591 50.2092 336.137 49.1723 338.284 48.2938C340.355 47.4442 342.987 46.7433 346.455 46.3641L346.647 46.6329C347.786 48.1258 349.698 48.8315 351.84 48.8843C353.886 48.9323 356.168 48.3803 358.161 47.3386C358.718 47.0505 359.252 46.7241 359.751 46.3641C362.018 46.8009 365.208 48.2074 368.268 49.9932C371.356 51.7933 374.282 53.9631 375.977 55.9073C376.631 57.6834 377.404 59.6756 378.225 61.8022C382.443 72.6847 388.068 87.1963 386.021 94.7665C386.007 94.8145 385.743 95.1793 384.287 95.3761C383.346 95.5009 381.996 95.4865 380.07 95.1505C378 94.7905 375.233 93.9264 371.659 92.5487C368.042 91.1566 363.618 89.246 358.272 86.8074L357.667 88.1323C363.051 90.5901 367.504 92.5103 371.135 93.912C374.81 95.3281 377.668 96.2162 379.83 96.5906C381.914 96.9507 383.413 96.9651 384.489 96.821C386.804 96.509 387.395 95.3137 387.438 95.1505C389.61 87.1242 383.884 72.3534 379.59 61.2789C378.749 59.1091 377.961 57.0834 377.303 55.2832L377.255 55.1584L377.169 55.0576C375.382 52.9646 372.269 50.6364 369.003 48.7307C365.674 46.7865 362.148 45.2696 359.684 44.8712L359.377 44.8232L359.127 45.0152C358.613 45.404 358.065 45.7544 357.489 46.0521C355.707 46.9785 353.684 47.4778 351.874 47.4298C350.159 47.3866 348.66 46.8585 347.81 45.7496C347.69 45.5912 347.584 45.428 347.493 45.2552L347.262 44.8184L346.772 44.8664C342.92 45.2456 340.009 46.0089 337.732 46.9449C335.436 47.8858 333.774 48.9995 332.434 50.07C331.43 50.8717 328.831 53.9439 326.06 57.2226C323.158 60.6549 320.055 64.3224 318.561 65.6809C315.04 61.6966 312.773 55.9409 310.823 50.9821C310.256 49.5371 309.713 48.1594 309.137 46.8297L308.945 46.3881H308.464C307.643 46.3929 306.284 46.5657 305.035 46.8537C303.988 47.0985 302.989 47.4298 302.374 47.8234L301.937 48.1066L302.061 48.6107C305.261 61.5861 308.335 68.5755 310.703 72.339C313.201 76.3042 315.098 76.8802 315.554 76.9666C318.917 77.6147 323.029 76.1697 326.905 73.7935C331.233 71.1389 335.311 67.2986 337.698 63.9335C338.51 62.791 337.305 61.9798 336.44 63.1799Z" fill="#333333"/>
<path fill-rule="evenodd" clip-rule="evenodd" d="M377.38 55.3847L377.285 55.125L379.619 61.2553L379.384 60.6482L379.384 60.647C378.65 58.7468 377.966 56.9774 377.38 55.3847ZM379.634 61.2948L379.619 61.2569L377.017 58.6754C377.326 59.4842 377.65 60.3226 377.984 61.185L377.985 61.1881L378.22 61.7974L378.223 61.8039C382.44 72.6857 388.062 87.193 386.016 94.7617C386.002 94.8097 385.738 95.1745 384.282 95.3713C383.341 95.4961 381.991 95.4817 380.065 95.1457C377.994 94.7857 375.228 93.9216 371.654 92.5439C371.493 92.4819 371.331 92.4188 371.166 92.3547C370.896 92.2492 370.622 92.1409 370.343 92.0298C367.534 90.9115 364.278 89.5109 360.528 87.8239C360.028 87.599 359.519 87.369 359.002 87.1338L359.046 87.1008C359.463 86.7858 359.85 86.4262 360.206 86.0329C360.33 85.895 360.451 85.753 360.567 85.6073C360.904 85.1865 361.205 84.7384 361.473 84.2674L361.495 84.2296C361.581 84.2562 361.67 84.2829 361.76 84.3098L361.88 84.3453C363.676 84.8731 366.075 85.438 368.524 85.9201C368.96 86.0059 369.398 86.0891 369.833 86.169C370.036 86.2065 370.239 86.2433 370.441 86.2794C372.415 86.6315 374.332 86.9101 375.898 87.0542C376.128 87.0754 376.35 87.0936 376.564 87.1088C376.708 87.119 376.848 87.1278 376.984 87.1351L377.072 87.1397L377.093 87.1408L377.149 87.1434C378.286 87.1955 378.456 85.7819 377.217 85.6827C377.2 85.6814 377.181 85.6802 377.164 85.6793C377.131 85.6773 377.098 85.6754 377.065 85.6737L377.004 85.6705C376.902 85.6653 376.8 85.66 376.693 85.6505C376.683 85.6382 376.673 85.6253 376.662 85.612C376.062 84.8468 374.631 82.4469 373.215 79.8708C371.878 77.4334 370.569 74.8633 370.007 73.3805C370 73.3603 369.992 73.3404 369.985 73.3206C369.979 73.3053 369.973 73.2902 369.968 73.2751C370.015 71.0227 370.127 68.7425 370.3 66.4298L370.309 66.3145L370.311 66.2909L370.311 66.2883C370.373 65.1829 368.944 64.9608 368.853 66.1801L368.852 66.2028L368.852 66.2044L368.839 66.3679C368.667 68.6735 368.557 70.9638 368.51 73.2445C368.507 73.3748 368.504 73.5051 368.502 73.6354C368.491 74.2857 368.485 74.9352 368.484 75.5841C368.48 78.0646 368.554 80.5158 368.701 82.943C368.732 83.445 368.765 83.946 368.802 84.446L368.805 84.4936C368.29 84.3921 367.78 84.2855 367.279 84.1758C365.363 83.7563 363.581 83.2897 362.187 82.875C362.101 82.8621 362.013 82.8469 361.923 82.8291C361.558 82.757 361.165 82.6448 360.751 82.4956C357.662 81.3824 353.372 78.2087 350.046 74.208C348.603 72.4722 347.342 70.5808 346.44 68.6344C346.363 68.4672 346.288 68.2996 346.216 68.1317C346.051 67.7483 345.901 67.3632 345.766 66.9771C345.901 66.2245 346.077 65.239 346.27 64.1457C346.387 63.4878 346.51 62.7909 346.634 62.0822C346.875 60.7062 347.122 59.2859 347.338 58.021C347.651 56.1831 347.897 54.6733 347.962 54.104C347.978 53.9717 347.983 53.8902 347.978 53.8671C347.877 53.4447 347.781 53.0174 347.689 52.5806C347.648 52.6011 347.606 52.6209 347.565 52.6399L347.583 52.6029C347.602 52.5623 347.621 52.5219 347.641 52.4818C347.995 51.7471 348.383 51.0919 348.8 50.5597C349.091 50.188 349.396 49.8763 349.716 49.6395C349.74 49.6216 349.764 49.6041 349.788 49.5871C350.211 49.2903 350.657 49.125 351.125 49.125C352.437 52.9214 356.254 53.9199 357.147 53.4255C358.66 52.5901 359.404 49.7554 359.805 47.634C359.912 47.0668 359.994 46.5505 360.06 46.1371L360.062 46.125C360.543 46.3107 361.018 46.4984 361.491 46.6908C363.722 47.5992 365.892 48.6106 368.263 49.9932L376.022 56.0387C376.006 55.9932 375.989 55.9478 375.972 55.9025C374.277 53.9583 371.351 51.7885 368.263 49.9932L369.018 48.6975L369.017 48.6969C366.054 46.9687 363.398 45.8058 360.603 44.7258L358.874 44.0577L358.581 45.8883C358.423 46.8766 358.189 48.3342 357.776 49.6654C357.57 50.3295 357.335 50.9089 357.074 51.3566C356.861 51.7214 356.671 51.9305 356.526 52.0428C356.465 52.0419 356.376 52.0354 356.259 52.0161C355.93 51.9617 355.485 51.8224 355.004 51.5637C354.054 51.0516 353.058 50.1251 352.542 48.6349L352.193 47.625H351.125C349.324 47.625 348.028 48.965 347.18 50.2446C346.932 50.6198 346.697 51.0264 346.476 51.4557C345.995 51.6003 345.71 51.5447 345.609 51.5087L345.606 51.5075C345.528 51.48 345.44 51.4273 345.337 51.2341C345.219 51.0129 345.115 50.6586 345.066 50.1524C344.975 49.1825 345.111 47.9531 345.28 47.0014L345.657 44.8847L343.54 45.2618C341.234 45.6727 339.326 46.2431 337.713 46.8999L337.711 46.9008C335.405 47.8445 333.736 48.9635 332.401 50.0307C331.833 50.4832 330.875 51.5362 329.82 52.7431C328.739 53.98 327.435 55.5219 326.096 57.104L326.024 57.19L326.01 57.2062C324.344 59.1757 322.631 61.2005 321.168 62.8505C320.434 63.6779 319.773 64.399 319.22 64.9652C318.961 65.2297 318.74 65.4457 318.556 65.6166C315.094 61.6835 312.867 56.0855 310.849 50.9606L310.849 50.9589L310.67 50.5072C310.222 49.372 309.784 48.2611 309.364 47.2743L308.947 46.2948L307.885 46.3651C307.064 46.4194 306.008 46.5827 305.01 46.813L305.003 46.8145C304.318 46.9756 303.594 47.1819 303.007 47.4356L301.839 47.9411L302.148 49.1758C305.273 61.6886 308.26 68.5589 310.654 72.3563C312.92 75.9553 314.601 76.8232 315.533 77C319.079 77.6813 323.249 76.0696 326.915 73.8246L326.916 73.824C329.086 72.4923 331.191 70.8683 333.055 69.1519L333.039 69.5192L333.038 69.5332C332.888 74.0117 332.922 83.0185 333.39 91.527C333.708 97.2954 334.221 102.919 335.025 106.722L335.165 107.385L335.755 107.718C341.112 110.743 347.122 112.056 352.995 112.308C360.382 112.624 367.654 111.277 373.387 109.47L374.765 109.036L374.383 107.643C373.727 105.249 373.148 102.885 372.64 100.536C372.173 98.3773 371.769 96.2187 371.428 94.0637C374.881 95.3834 377.655 96.2491 379.808 96.6235C381.835 96.9772 383.345 97.0087 384.479 96.8583L384.483 96.8578C385.309 96.7462 385.907 96.5734 386.347 96.3589C386.57 96.2504 386.77 96.1224 386.94 95.9707C387.025 95.8951 387.111 95.8071 387.188 95.7053C387.241 95.6373 387.374 95.4561 387.453 95.1929L387.459 95.1731L387.464 95.1531C388.046 92.9996 388.06 90.4585 387.744 87.7723C387.426 85.0704 386.762 82.1237 385.911 79.1136C384.214 73.1134 381.734 66.7141 379.634 61.2948ZM347.565 52.6399C347.084 52.8633 346.643 52.9848 346.251 53.0297C346.075 53.0499 345.91 53.0547 345.754 53.0464C345.512 53.0336 345.295 52.989 345.105 52.9214C344.116 52.571 343.693 51.5293 343.573 50.2956C343.513 49.6628 343.533 48.9669 343.593 48.3033C343.643 47.7387 343.722 47.1975 343.803 46.7385C343.255 46.8362 342.732 46.943 342.232 47.0578C340.716 47.4058 339.413 47.8271 338.279 48.2891C336.132 49.1675 334.585 50.2044 333.337 51.2029C332.469 51.8932 329.944 54.8785 327.236 58.0793L327.147 58.1843C323.82 62.1181 320.244 66.3454 318.902 67.2794L318.388 67.6394L317.956 67.1834C313.974 62.9831 311.538 56.8049 309.454 51.5101L309.275 51.0577C308.826 49.9195 308.395 48.8288 307.984 47.8618C307.258 47.9098 306.283 48.0586 305.347 48.2746C304.693 48.4283 304.069 48.6107 303.603 48.8123C306.711 61.2549 309.651 67.9515 311.923 71.5566C314.099 75.0128 315.482 75.4641 315.813 75.5265C318.782 76.0977 322.534 74.7488 326.131 72.5454C328.674 70.9856 331.121 69.0076 333.162 66.9717C333.306 66.828 333.448 66.684 333.588 66.5398C334.687 65.4077 335.653 64.2657 336.435 63.1751C336.444 63.1621 336.453 63.1495 336.463 63.137C336.476 63.1192 336.49 63.1018 336.503 63.085L336.504 63.0836C337.362 62.0134 338.483 62.8118 337.689 63.9287L337.619 64.0251L337.611 64.037C336.789 65.1759 335.779 66.3712 334.634 67.553L334.585 68.4651L334.537 69.5836C334.389 74.0144 334.422 82.9767 334.888 91.4446C335.205 97.2051 335.714 102.73 336.492 106.412C341.594 109.292 347.358 110.565 353.06 110.809C360.236 111.117 367.331 109.806 372.936 108.04C372.274 105.62 371.688 103.23 371.174 100.853C370.639 98.3784 370.185 95.9034 369.812 93.4331L369.805 93.384C368.423 92.8349 366.902 92.1439 365.276 91.4052C363.139 90.4346 360.821 89.3815 358.399 88.4596L358.334 88.4347C357.794 88.2299 357.187 87.7605 356.538 87.0963C354.095 84.5968 351.06 79.3391 348.791 75.0443C346.871 71.4099 345.5 68.4651 345.5 68.4651C345.5 68.4651 345.603 67.8938 345.766 66.9771C345.458 66.0912 345.232 65.2 345.105 64.3125C345.026 63.7615 345.043 62.9074 345.147 61.879C345.269 60.6654 345.514 59.209 345.867 57.7211C346.128 56.6217 346.449 55.5052 346.823 54.4568C346.864 54.343 346.905 54.23 346.947 54.1179L346.949 54.1127C347.142 53.5991 347.347 53.1046 347.565 52.6399ZM357.622 86.0594C357.667 86.1055 357.711 86.1497 357.754 86.192L358.107 85.93C358.574 85.5829 359.006 85.1572 359.396 84.6699C359.612 84.4007 359.812 84.1156 359.997 83.8153C358.957 83.4157 357.86 82.8405 356.769 82.1547C355.468 81.337 354.115 80.3236 352.794 79.1651C353.769 80.8252 354.773 82.4159 355.735 83.7507C356.413 84.6918 357.05 85.476 357.622 86.0594ZM374.712 85.4169C373.385 85.2536 371.877 85.0174 370.327 84.7346L370.301 84.3834C370.121 81.9342 370.015 79.4617 369.99 76.9599C370.569 78.1218 371.238 79.3853 371.9 80.5921L371.901 80.5935C372.628 81.9171 373.362 83.1989 373.99 84.2455C374.243 84.666 374.487 85.0634 374.712 85.4169Z" fill="#333333"/>
<path fill-rule="evenodd" clip-rule="evenodd" d="M375.972 55.9025C376.625 57.6786 377.399 59.6708 378.22 61.7974C382.438 72.6799 388.063 87.1915 386.016 94.7617C386.002 94.8097 385.738 95.1745 384.282 95.3713C383.341 95.4961 381.991 95.4817 380.065 95.1457C377.994 94.7857 375.228 93.9216 371.654 92.5439C368.205 91.2142 364.021 89.414 359.002 87.1338C359.583 86.7018 360.106 86.1834 360.567 85.6073C360.913 85.1753 361.221 84.7144 361.495 84.2296C363.627 84.8825 366.769 85.6073 369.833 86.169C372.586 86.6778 375.285 87.057 377.149 87.1434C378.302 87.1963 378.46 85.7417 377.163 85.6793C377.01 85.6697 376.856 85.6649 376.693 85.6505C376.112 84.9305 374.656 82.4919 373.215 79.8708C371.846 77.3746 370.506 74.7392 369.968 73.2751C370.016 70.9853 370.131 68.6667 370.309 66.3145C370.395 65.1864 368.945 64.9512 368.853 66.1801C368.613 69.3388 368.488 72.4686 368.484 75.5841C368.479 78.5939 368.589 81.5606 368.805 84.4936C366.322 84.004 363.945 83.3982 362.187 82.875C357.147 82.125 346.353 73.0349 345.105 64.3125C344.672 61.2875 347.114 49.125 351.125 49.125C352.437 52.9214 356.254 53.9199 357.147 53.4255C359.069 52.3646 359.75 48.0788 360.062 46.125C362.812 47.1875 365.39 48.3179 368.263 49.9932C371.351 51.7885 374.277 53.9583 375.972 55.9025ZM345.5 68.4651C345.5 68.4651 348.064 54.2223 347.978 53.8671C347.877 53.4447 347.781 53.0174 347.689 52.5806C346.599 53.1182 345.71 53.1375 345.105 52.9214C344.116 52.571 343.693 51.5293 343.573 50.2956C343.462 49.1243 343.626 47.737 343.803 46.7385C341.594 47.1322 339.788 47.6746 338.279 48.2891C336.132 49.1675 334.585 50.2044 333.337 51.2029C332.462 51.8989 329.902 54.928 327.169 58.1587C323.835 62.0998 320.247 66.3433 318.902 67.2794L318.388 67.6394L317.956 67.1834C313.974 62.9831 311.538 56.805 309.454 51.5101C308.94 50.2092 308.45 48.9563 307.984 47.8618C307.258 47.9098 306.283 48.0586 305.347 48.2746C304.693 48.4283 304.069 48.6107 303.603 48.8123C306.711 61.2549 309.651 67.9515 311.923 71.5566C314.099 75.0128 315.482 75.4641 315.813 75.5265C318.782 76.0977 322.534 74.7488 326.131 72.5454C330.262 70.0108 334.144 66.3721 336.435 63.1751C337.299 61.9702 338.505 62.7814 337.688 63.9287C336.853 65.1 335.815 66.3337 334.633 67.553L334.585 68.4651L334.537 69.5836C334.388 74.0144 334.422 82.9767 334.888 91.4446C335.205 97.2051 335.714 102.73 336.492 106.412C341.594 109.292 347.358 110.565 353.06 110.809C360.236 111.117 367.331 109.806 372.936 108.04C372.274 105.62 371.688 103.23 371.174 100.853C370.636 98.362 370.179 95.8706 369.805 93.384C366.591 92.1071 362.625 90.0625 358.334 88.4347C354.043 86.807 345.5 68.4651 345.5 68.4651Z" fill="#EFEFEF"/>
<path fill-rule="evenodd" clip-rule="evenodd" d="M368.853 66.1801C368.613 69.3388 368.488 72.4686 368.483 75.5841C368.479 78.93 368.613 82.2182 368.882 85.4681L370.342 85.3481C370.073 82.0982 369.939 78.8484 369.944 75.5841C369.949 72.5502 370.069 69.4684 370.314 66.3193C370.395 65.1912 368.945 64.9512 368.853 66.1801ZM369.756 93.0431L371.202 92.8319C371.587 95.4049 372.052 97.9779 372.61 100.561C373.167 103.153 373.811 105.745 374.536 108.337L374.723 109.009L374.06 109.225C368.219 111.145 360.668 112.605 353.002 112.278C346.973 112.019 340.878 110.651 335.484 107.526L335.21 107.367L335.138 107.051C334.297 103.282 333.754 97.5219 333.428 91.5262C332.962 83.0247 332.923 74.0144 333.077 69.5452L333.125 68.4027L333.188 67.2026L334.648 67.2938L334.585 68.4699L334.537 69.5884C334.388 74.0192 334.422 82.9815 334.888 91.4494C335.205 97.2099 335.714 102.735 336.492 106.417C341.594 109.297 347.358 110.569 353.06 110.814C360.236 111.121 367.331 109.811 372.936 108.044C372.273 105.625 371.687 103.234 371.173 100.858C370.621 98.2515 370.145 95.6497 369.756 93.0431Z" fill="#333333"/>
<path fill-rule="evenodd" clip-rule="evenodd" d="M382.971 236.57C381.827 237.861 380.377 239.249 378.888 240.67C376.476 242.974 373.969 245.369 372.715 247.419C371.774 248.96 371.601 250.294 372.936 251.173C373.748 251.274 376.649 250.05 380.012 248.35C383.773 246.449 388.009 243.953 390.608 241.98C390.627 241.961 390.68 241.923 390.699 241.913C390.752 241.875 390.839 241.817 390.94 241.731C391.478 241.265 392.328 240.002 389.695 236.945L390.805 235.994C394.302 240.06 392.789 242.062 391.886 242.839C391.756 242.95 391.626 243.041 391.54 243.103L391.473 243.151C388.792 245.182 384.484 247.726 380.67 249.651C376.899 251.557 373.513 252.872 372.446 252.56L372.355 252.536L372.273 252.483C369.9 251.039 370.049 248.984 371.471 246.661C372.826 244.448 375.4 241.985 377.884 239.614C379.354 238.207 380.79 236.839 381.88 235.605L382.971 236.57Z" fill="#333333"/>
<path fill-rule="evenodd" clip-rule="evenodd" d="M342.026 235.615C340.551 236.22 338.755 236.839 336.92 237.468C333.231 238.73 329.383 240.05 327.174 241.663C325.214 243.099 324.455 244.74 325.906 246.713L325.963 246.79L326.04 246.853C326.919 247.558 331.276 247.673 336.19 247.371C340.945 247.078 346.306 246.435 349.476 245.595L349.553 245.576C350.288 245.412 353.252 244.736 351.835 239.522C351.782 239.33 351.398 238.486 351.042 237.689C350.749 237.041 350.471 236.421 350.437 236.325L349.049 236.781C349.097 236.93 349.395 237.593 349.712 238.289C350.048 239.038 350.408 239.83 350.427 239.902C351.446 243.656 349.673 244.054 349.236 244.15L349.13 244.174C346.051 244.99 340.792 245.619 336.108 245.907C331.655 246.181 327.798 246.176 327.025 245.749C326.309 244.678 326.833 243.718 328.048 242.83C330.07 241.351 333.812 240.07 337.405 238.836C339.23 238.212 341.022 237.597 342.593 236.949L342.026 235.615Z" fill="#333333"/>
<path fill-rule="evenodd" clip-rule="evenodd" d="M378.888 240.67C376.477 242.974 373.969 245.369 372.716 247.419C371.774 248.96 371.601 250.294 372.937 251.173C373.748 251.274 376.65 250.05 380.012 248.35C383.773 246.449 388.01 243.953 390.609 241.98C390.628 241.961 390.681 241.923 390.7 241.913C390.753 241.875 390.839 241.817 390.94 241.731C391.233 241.481 391.612 241.001 391.488 240.132C391.396 239.47 391.007 238.577 390.061 237.386C389.076 237.813 387.832 237.996 386.588 237.962C385.137 237.924 383.648 237.597 382.563 237.026C381.66 238.01 380.598 239.037 379.498 240.094C379.292 240.286 379.09 240.478 378.888 240.67Z" fill="#FEFEFE"/>
<path fill-rule="evenodd" clip-rule="evenodd" d="M350.418 239.906C350.442 239.993 350.466 240.079 350.485 240.166C351.354 243.679 349.654 244.064 349.226 244.16L349.121 244.184C346.042 245 340.782 245.628 336.098 245.916C331.646 246.19 327.788 246.185 327.015 245.758C326.299 244.688 326.823 243.727 328.038 242.839C329.268 241.937 331.141 241.111 333.226 240.324C334.566 239.82 335.988 239.33 337.395 238.85C339.029 238.289 340.633 237.741 342.079 237.165C342.977 237.756 344.365 238.365 345.96 238.471C347.065 238.543 348.271 238.375 349.476 237.794C349.548 237.953 349.625 238.125 349.702 238.293C350.038 239.042 350.394 239.834 350.418 239.906Z" fill="#FEFEFE"/>
<path fill-rule="evenodd" clip-rule="evenodd" d="M371.159 110.099C374.546 121.173 378.331 141.177 381.645 163.796C386.425 187.092 389.504 213.331 389.46 235.562C388.581 236.047 387.299 236.33 386.021 236.359C384.753 236.388 383.523 236.176 382.74 235.682C381.64 231.496 377.207 213.519 371.25 192.666C366.226 175.067 359.621 155.952 356.153 142.545L354.765 137.48C354.679 150.072 353.833 163.297 353.286 171.875C353.122 174.458 352.983 176.618 352.896 178.264C352.892 178.375 352.896 178.797 352.906 179.503C352.988 185.614 353.353 213.629 349.015 236.388C347.997 236.921 346.974 237.074 346.042 237.017C344.774 236.935 343.664 236.46 342.939 235.989C342.857 229.408 342.636 219.951 342.017 209.87C341.382 199.564 340.321 188.571 338.553 179.253C338.409 178.495 335.748 163.239 335.594 142.602C335.517 132.291 336.07 120.636 337.876 108.774C342.646 111.016 347.848 112.048 352.997 112.273C359.453 112.552 365.823 111.563 371.159 110.099Z" fill="#404040"/>
<path fill-rule="evenodd" clip-rule="evenodd" d="M337.791 108.615L337.922 108.676C342.676 110.911 347.864 111.94 353.002 112.166C359.444 112.443 365.803 111.457 371.131 109.995L371.232 109.967L371.263 110.067C374.652 121.15 378.437 141.159 381.752 163.777C386.532 187.079 389.612 213.324 389.569 235.562L389.568 235.626L389.513 235.657C388.614 236.152 387.313 236.438 386.024 236.467C384.747 236.496 383.492 236.284 382.683 235.773L382.647 235.751L382.636 235.709C382.432 234.931 382.112 233.677 381.689 232.017C379.836 224.743 375.996 209.673 371.147 192.695C368.882 184.764 366.297 176.525 363.822 168.637C363.551 167.776 363.282 166.918 363.015 166.066C360.303 157.412 357.784 149.279 356.049 142.573C356.049 142.572 356.049 142.573 356.049 142.573L354.867 138.26C354.752 150.597 353.933 163.436 353.396 171.838L353.393 171.882C353.393 171.882 353.393 171.882 353.393 171.882M353.004 178.27C353 178.376 353.004 178.794 353.014 179.501C353.096 185.612 353.461 213.637 349.121 236.408L349.112 236.459L349.065 236.483C348.027 237.026 346.984 237.183 346.035 237.124C344.745 237.041 343.618 236.558 342.88 236.08L342.832 236.048L342.831 235.991C342.749 229.41 342.528 219.955 341.909 209.877C341.275 199.572 340.214 188.585 338.447 179.274C338.302 178.51 335.64 163.248 335.486 142.603C335.41 132.288 335.962 120.626 337.769 108.758L337.791 108.615M353.004 178.27C353.081 176.82 353.198 174.973 353.336 172.788C353.355 172.492 353.374 172.19 353.393 171.882M337.961 108.933C336.173 120.739 335.626 132.336 335.702 142.602C335.856 163.231 338.516 178.48 338.659 179.233C340.428 188.557 341.49 199.555 342.124 209.864C342.742 219.917 342.964 229.35 343.046 235.93C343.759 236.382 344.83 236.83 346.049 236.909C346.95 236.964 347.936 236.819 348.919 236.316C353.244 213.579 352.88 185.612 352.798 179.504C352.789 178.802 352.784 178.374 352.789 178.26C352.865 176.809 352.982 174.959 353.12 172.775C353.139 172.479 353.158 172.176 353.178 171.868L353.18 171.826C353.728 163.247 354.571 150.047 354.657 137.48L354.662 136.697L356.258 142.518C357.991 149.218 360.508 157.346 363.221 166.001C363.489 166.854 363.758 167.711 364.028 168.573C366.503 176.46 369.089 184.702 371.354 192.636C376.205 209.617 380.046 224.693 381.899 231.966C382.314 233.595 382.629 234.833 382.834 235.613C383.592 236.075 384.779 236.279 386.019 236.251C387.258 236.223 388.495 235.953 389.353 235.498C389.39 213.289 386.313 187.086 381.54 163.818L381.538 163.812C378.234 141.261 374.463 121.317 371.087 110.231C365.762 111.682 359.421 112.659 352.993 112.381C347.88 112.157 342.711 111.14 337.961 108.933Z" fill="#404040"/>
<path fill-rule="evenodd" clip-rule="evenodd" d="M354.769 137.336C354.688 149.971 353.838 163.263 353.29 171.875C353.127 174.458 352.987 176.618 352.901 178.265C352.896 178.375 352.901 178.797 352.91 179.503C352.992 185.614 353.357 213.629 349.02 236.388C348.001 236.921 346.978 237.074 346.046 237.017C344.778 236.935 343.669 236.46 342.943 235.989C342.862 229.408 342.641 219.951 342.021 209.87C341.387 199.564 340.325 188.571 338.558 179.253C338.414 178.495 335.752 163.239 335.599 142.602C335.522 132.003 336.103 119.993 338.034 107.795L336.593 107.569C334.652 119.844 334.066 131.941 334.143 142.602C334.297 163.378 336.977 178.749 337.121 179.513C338.88 188.763 339.931 199.693 340.566 209.947C341.2 220.234 341.416 229.821 341.493 236.378L341.497 236.738L341.786 236.954C342.655 237.602 344.178 238.351 345.96 238.466C347.242 238.548 348.655 238.308 350.052 237.482L350.336 237.314L350.398 236.993C354.827 214.042 354.452 185.648 354.376 179.479C354.366 178.826 354.361 178.428 354.366 178.332C354.448 176.776 354.587 174.583 354.755 171.962C355.235 164.463 355.941 153.427 356.167 142.338L354.769 137.336Z" fill="#333333"/>
<path fill-rule="evenodd" clip-rule="evenodd" d="M346.364 123.367C347.295 124.202 348.347 124.947 349.515 125.494C350.72 126.055 352.056 126.415 353.506 126.459L354.097 126.478L354.164 127.059C356.057 143.284 361.182 159.365 367.235 178.341C372.403 194.552 378.244 212.875 383.331 235.212C384.234 235.62 385.214 235.72 386.17 235.653C387.083 235.586 387.981 235.36 388.769 235.087C388.601 228.467 388.221 218.453 387.366 207.816C386.761 200.265 385.92 192.421 384.748 185.302C384.585 184.318 384.426 183.382 384.263 182.489C384.1 181.586 383.927 180.698 383.754 179.829C383.614 179.148 383.432 178.289 383.249 177.453C382.769 175.231 382.327 173.195 382.077 170.661C381.909 168.947 381.722 167.18 381.52 165.38C381.314 163.532 381.097 161.761 380.881 160.057C379.68 150.71 378.143 141.638 376.409 133.299C374.608 124.649 372.591 116.805 370.511 110.296L371.803 109.888C373.897 116.455 375.929 124.342 377.735 133.026C379.479 141.378 381.021 150.489 382.226 159.889C382.462 161.722 382.678 163.508 382.875 165.231C383.067 166.945 383.254 168.712 383.432 170.531C383.667 172.951 384.104 174.967 384.58 177.16C384.729 177.852 384.883 178.567 385.084 179.561C385.262 180.439 385.435 181.337 385.598 182.244C385.771 183.209 385.939 184.15 386.088 185.076C387.265 192.258 388.115 200.135 388.721 207.705C389.595 218.583 390.632 229.326 390.796 235.984L390.805 236.465L390.354 236.637C388.173 237.463 383.586 237.977 381.938 235.908L381.871 235.6C376.774 213.159 371.121 195.004 365.938 178.745C359.933 159.908 354.837 143.918 352.877 127.774C351.45 127.659 350.139 127.275 348.933 126.713C347.608 126.094 346.421 125.254 345.388 124.313C344.471 123.478 345.446 122.542 346.364 123.367Z" fill="#333333"/>
<path fill-rule="evenodd" clip-rule="evenodd" d="M351.868 47.425C353.674 47.4682 355.702 46.9738 357.484 46.0473C357.681 45.9465 357.873 45.8361 358.065 45.7209L357.642 37.2242C357.037 37.9394 356.441 38.5347 355.865 39.0291C352.123 42.2454 348.981 41.3573 348.77 41.2757C348.655 41.2325 348.54 41.1893 348.429 41.1413L347.8 45.7353C347.8 45.7353 347.8 45.7401 347.805 45.7401C348.655 46.8538 350.154 47.3866 351.868 47.425Z" fill="#FEFEFE"/>
<path fill-rule="evenodd" clip-rule="evenodd" d="M350.178 23.6007C351.662 20.0916 355.601 22.0934 355.615 23.9703C355.428 23.7639 354.602 23.2694 354.131 23.2118C353.968 25.3 351.47 25.7369 350.797 23.5095C350.528 23.4951 350.375 23.4807 350.178 23.6007ZM349.28 39.9076C349.433 39.9652 351.792 40.6085 354.919 37.9203C356.552 36.5185 358.353 34.224 360.107 30.5132C360.078 30.5228 360.044 30.5324 360.015 30.5421C359.554 30.6669 359.175 29.8316 359.938 29.5436C360.14 29.4668 360.342 29.3612 360.52 29.2363C360.899 28.9771 361.202 28.6555 361.384 28.3675C362.105 27.2394 362.292 25.9865 362.042 25.0744C361.946 24.724 361.783 24.4263 361.567 24.2247C361.365 24.0327 361.101 23.9175 360.784 23.9031C360.15 23.8743 359.309 24.2199 358.291 25.1272C357.724 25.6312 357.22 24.9832 357.494 24.5608L357.176 24.1143C357.239 22.151 357.176 20.538 357.018 19.2179C356.85 17.8402 356.576 16.8033 356.216 16.0449C355.985 15.5552 355.63 15.0752 355.197 14.6863C354.804 14.3263 354.352 14.0479 353.881 13.9039C353.324 13.7311 352.762 13.7743 352.21 13.9423C351.6 14.1295 350.985 14.4703 350.375 14.8736C350.067 15.0752 349.765 15.2912 349.472 15.5024C347.944 16.5969 346.729 17.4658 344.313 16.8225C343.986 16.7361 343.679 16.5729 343.415 16.3473C343.386 16.3233 343.357 16.2993 343.333 16.2753C342.896 16.9377 342.521 17.701 342.204 18.5411C341.133 21.4213 340.821 25.1512 341.416 28.7371C342.007 32.2942 343.487 35.6881 345.994 37.9299C346.94 38.7651 348.031 39.4468 349.28 39.9076ZM360.044 25.6072C359.439 25.7273 359.372 25.2232 360.006 25.1176C360.198 25.0888 360.371 25.0888 360.525 25.1272C360.779 25.1848 360.971 25.324 361.101 25.5256C361.221 25.7129 361.283 25.9529 361.283 26.2217C361.283 26.6681 361.111 27.225 360.75 27.7818C360.616 27.993 360.39 28.2331 360.121 28.4155C359.977 28.5163 359.818 28.5979 359.645 28.6555C359.232 28.7995 359.064 28.3819 359.578 28.1611C359.669 28.1226 359.761 28.0698 359.847 28.0122C360.063 27.8682 360.236 27.681 360.342 27.5178C360.649 27.0378 360.798 26.5817 360.798 26.2217C360.798 26.0441 360.765 25.8953 360.693 25.7897C360.63 25.6936 360.539 25.6312 360.419 25.6024C360.313 25.5784 360.188 25.5784 360.044 25.6072ZM341.685 23.4519C343.035 19.89 347.051 21.7429 347.137 23.6199C346.94 23.4231 346.1 22.9574 345.624 22.919C345.542 25.012 343.059 25.54 342.305 23.3415C342.036 23.3319 341.877 23.3271 341.685 23.4519ZM347.997 32.3422C350.788 34.5936 351.801 30.5997 352.291 29.9852C352.152 34.944 348.348 34.5984 347.997 32.3422ZM347.267 28.6027C347.594 28.7803 348.117 28.9627 349.275 28.9867C346.887 29.9324 346.047 28.8235 346.08 27.7914C346.119 26.3993 347.425 26.6777 347.161 24.4215C348.295 26.0057 345.735 27.7722 347.267 28.6027Z" fill="#FEFEFE"/>
<path fill-rule="evenodd" clip-rule="evenodd" d="M332.672 36.5015C338.228 36.4211 343.682 39.1904 346.801 44.2647C350.514 50.3112 349.807 57.8264 345.589 63.0405C350.257 70.6792 354.791 78.4009 359.597 85.9563C361.79 89.3956 361.24 92.1935 358.231 94.0406C356.647 95.0478 353.108 96.1635 350.589 92.0433C345.838 84.2716 341.082 76.5002 336.332 68.7285C329.769 70.1356 322.747 67.3689 319.034 61.3224C315.915 56.2422 315.917 50.1297 318.496 45.2064C319.819 47.3647 321.148 49.5228 322.471 51.6811C324.318 54.684 328.286 55.6347 331.288 53.7879C332.37 53.1232 333.452 52.4585 334.534 51.7939C337.537 49.947 338.488 45.9794 336.641 42.9706C335.324 40.8179 333.995 38.6599 332.672 36.5015Z" fill="#FF6F3D"/>
<path fill-rule="evenodd" clip-rule="evenodd" d="M345.589 63.0405C349.807 57.8264 350.514 50.3112 346.801 44.2647C344.021 39.7419 339.386 37.0502 334.477 36.5756C333.878 36.5177 333.276 36.4928 332.672 36.5015C332.981 37.0064 333.291 37.5113 333.601 38.0161C333.833 38.3943 334.066 38.7726 334.298 39.1507C335.081 40.4252 335.863 41.6988 336.641 42.9706C338.488 45.9794 337.537 49.947 334.534 51.7939L331.288 53.7879C328.286 55.6347 324.318 54.684 322.471 51.6811C321.809 50.602 321.146 49.5229 320.483 48.4438C320.131 47.8702 319.778 47.2966 319.426 46.723C319.116 46.2175 318.806 45.7119 318.496 45.2064C318.215 45.7422 317.965 46.2921 317.746 46.8532C315.954 51.4479 316.254 56.795 319.034 61.3224C322.747 67.3689 329.769 70.1356 336.332 68.7285C338.706 72.6137 341.083 76.4989 343.459 80.384C345.836 84.2704 348.213 88.1569 350.589 92.0433C353.108 96.1635 356.647 95.0478 358.231 94.0406C361.24 92.1935 361.79 89.3956 359.597 85.9563C356.376 80.8917 353.276 75.7525 350.177 70.6137C348.652 68.0862 347.128 65.5589 345.589 63.0405ZM351.869 91.261C352.905 92.9562 354.01 93.4009 354.878 93.4694C355.849 93.5459 356.807 93.1689 357.426 92.7748L357.436 92.7685L357.446 92.7623C358.695 91.9955 359.242 91.16 359.387 90.3354C359.539 89.4753 359.312 88.2991 358.333 86.7626L358.332 86.7614C355.101 81.6822 351.985 76.5159 348.88 71.3679C347.358 68.8442 345.838 66.325 344.309 63.8226L343.758 62.9198L344.423 62.0972C348.253 57.3617 348.893 50.5379 345.523 45.0501C343.22 41.3019 339.512 38.9378 335.491 38.2266C335.519 38.2722 335.547 38.3178 335.575 38.3634C336.358 39.6389 337.142 40.9149 337.92 42.1867C340.2 45.9015 339.028 50.7914 335.32 53.0715L332.074 55.0656C332.074 55.0657 332.074 55.0654 332.074 55.0656C328.364 57.3469 323.473 56.1735 321.193 52.4669L321.192 52.4651C320.531 51.3867 319.868 50.3083 319.205 49.2291L319.204 49.2274C319.057 48.9868 318.909 48.7462 318.761 48.5055C317.579 52.4152 318.009 56.7868 320.312 60.5374C323.682 66.025 330.057 68.5399 336.017 67.2618L337.057 67.0389L337.612 67.9462C339.987 71.8318 342.363 75.7174 344.74 79.6032L344.749 79.6182C347.123 83.499 349.496 87.3799 351.869 91.261Z" fill="#333333"/>
<path d="M361.759 84.3347C361.934 87.2393 355.869 91.1427 352.166 91.366C348.462 91.5894 346.684 86.8643 346.509 83.9597C346.334 81.0551 351.306 79.9332 355.009 79.7098C358.713 79.4864 361.645 82.444 361.759 84.3347Z" fill="white"/>
<path fill-rule="evenodd" clip-rule="evenodd" d="M359.669 85.7094C360.174 85.0562 360.274 84.6256 360.262 84.425C360.242 84.0863 359.849 83.2278 358.806 82.4104C357.83 81.6467 356.524 81.1212 355.1 81.2071C353.324 81.3142 351.334 81.6349 349.86 82.2226C348.252 82.8639 347.984 83.4885 348.007 83.8694C348.082 85.1172 348.512 86.7779 349.293 88.0521C350.071 89.3213 350.998 89.9337 352.075 89.8688C353.553 89.7796 355.731 88.9021 357.558 87.626C358.454 87.0005 359.186 86.3331 359.669 85.7094ZM352.166 91.366C355.869 91.1427 361.934 87.2393 361.759 84.3347C361.645 82.444 358.713 79.4864 355.009 79.7098C351.306 79.9332 346.334 81.0551 346.509 83.9597C346.684 86.8643 348.462 91.5894 352.166 91.366Z" fill="#333333"/>
</svg>
