<svg width="280" height="32" viewBox="0 0 280 32" fill="none" xmlns="http://www.w3.org/2000/svg">
<path d="M279.987 8.80491C280.058 7.26986 279.844 5.73124 279.355 4.27116C278.57 2.40768 276.992 0.99401 275.058 0.415689C273.795 0.10154 272.496 -0.0376858 271.193 0.00872261H256.807C255.508 -0.0376858 254.205 0.10154 252.942 0.415689C251.008 0.99401 249.43 2.40768 248.645 4.27116C248.16 5.73124 247.942 7.26629 248.013 8.80491V23.1951C247.945 24.7337 248.16 26.2688 248.645 27.7288C249.43 29.5923 251.008 31.006 252.942 31.5843C254.205 31.8985 255.504 32.0377 256.807 31.9913H271.193C272.492 32.0377 273.795 31.8985 275.058 31.5843C276.992 31.006 278.57 29.5923 279.355 27.7288C279.84 26.2688 280.058 24.7337 279.987 23.1951V8.80491ZM254.355 21.9992H253.167V14.8951H254.355V21.9992ZM253.759 13.6956C253.352 13.6921 253.024 13.3601 253.027 12.9495C253.031 12.5426 253.363 12.2141 253.773 12.2177C254.177 12.2213 254.505 12.5497 254.505 12.9567C254.501 13.3672 254.17 13.6992 253.759 13.6956ZM260.9 22.1777C257.763 22.1777 255.786 19.9358 255.786 16.3695C255.786 12.8032 257.76 10.5541 260.9 10.5541C264.041 10.5541 266.022 12.8032 266.022 16.3695C266.022 19.9358 264.048 22.1777 260.9 22.1777ZM271.257 22.1777C268.902 22.1777 267.246 20.8782 267.128 18.9362H268.199C268.316 20.2892 269.587 21.2067 271.354 21.2067C273.042 21.2067 274.251 20.2856 274.251 19.0219C274.251 17.9688 273.523 17.3441 271.853 16.9228L270.454 16.5623C268.37 16.0303 267.442 15.1486 267.442 13.6635C267.442 11.8429 269.08 10.547 271.296 10.547C273.495 10.547 275.094 11.8464 275.162 13.6314H274.091C273.991 12.3605 272.863 11.5144 271.264 11.5144C269.705 11.5144 268.548 12.3819 268.548 13.6207C268.548 14.5881 269.248 15.1593 270.904 15.5805L272.124 15.8947C274.387 16.4659 275.34 17.3334 275.34 18.9005C275.344 20.8818 273.748 22.1777 271.257 22.1777V22.1777ZM260.9 11.543C258.434 11.543 256.882 13.4101 256.882 16.3695C256.882 19.3289 258.434 21.1853 260.9 21.1853C263.366 21.1853 264.93 19.3182 264.93 16.3695C264.93 13.4208 263.37 11.543 260.9 11.543V11.543Z" fill="white"/>
<g style="mix-blend-mode:luminosity">
<path d="M201 2V30L215 16L201 2Z" fill="white"/>
</g>
<g style="mix-blend-mode:luminosity">
<path d="M225.485 15.0452L220.2 12L216 16L220.2 20L225.485 16.7484C225.794 16.5935 226 16.2323 226 15.871C226 15.5097 225.794 15.2 225.485 15.0452Z" fill="white"/>
</g>
<g style="mix-blend-mode:luminosity">
<path d="M202 30L219.6 20.45L215.5 16.5L202 30Z" fill="white"/>
</g>
<g style="mix-blend-mode:luminosity">
<path d="M219.6 11.55L214.05 8.3L202 2L215.5 15.5L219.6 11.55Z" fill="white"/>
</g>
<path d="M177.3 26.9154C177.15 26.7648 177 26.6142 176.75 26.4635C176.7 26.4635 176.6 26.3631 176.45 26.3129C176.299 26.2124 176.149 26.1622 176.049 26.0618C175.949 26.0116 175.849 25.8609 175.699 25.7103C175.549 25.5596 175.449 25.3588 175.349 25.2081C175.249 25.0073 175.199 24.8064 175.099 24.5051C174.999 24.2038 174.949 23.8523 174.949 23.5008C174.799 23.6514 174.699 23.9527 174.699 24.3545C174.699 24.7562 174.749 25.2081 174.949 25.6601C175.149 26.112 175.449 26.4133 175.849 26.5137C176.249 26.6644 176.55 26.7648 176.75 26.9154C177 27.0661 177.15 27.2167 177.2 27.4176C177.25 27.6185 177.15 27.8193 176.85 28.0202C176.55 28.221 176.099 28.4721 175.499 28.673C174.649 28.9743 173.998 29.2254 173.648 29.4262C173.298 29.6271 172.748 30.0288 172.047 30.6314C171.597 31.0331 171.047 31.234 170.547 31.2842C169.996 31.3344 169.596 31.1335 169.246 30.6816C168.896 30.2799 168.796 29.6773 168.946 28.8738C169.146 27.3674 169.146 26.2124 168.946 25.3588C168.746 24.706 168.696 24.1034 168.846 23.6012C168.946 23.0991 169.096 22.7978 169.346 22.7476C169.546 22.6471 169.796 22.848 170.096 23.2999C170.096 23.3502 170.197 23.5008 170.247 23.6514C170.347 23.8021 170.397 23.9527 170.447 24.003C170.497 24.0532 170.597 24.1536 170.697 24.3042C170.797 24.4047 170.947 24.5051 171.097 24.5553C171.247 24.6055 171.447 24.6558 171.647 24.6558C172.047 24.6558 172.398 24.6055 172.748 24.4047C173.048 24.2038 173.298 24.003 173.448 23.8021C173.598 23.6012 173.748 23.3502 173.948 23.1493C174.098 22.9484 174.248 22.848 174.349 22.7978C174.499 22.7978 174.599 22.6471 174.699 22.3961C174.799 22.145 174.899 21.8437 174.899 21.3918C174.949 20.99 174.899 20.4377 174.799 19.8853C174.599 18.8308 174.248 17.726 173.748 16.4706C173.198 15.2153 172.648 14.2612 171.997 13.5582C170.847 12.3028 170.046 10.9972 169.646 9.64135C169.246 8.23532 169.046 6.92972 169.096 5.82499C169.146 5.02154 168.996 4.11766 168.596 3.16357C168.096 2.20948 167.545 1.50646 166.845 1.00431C166.395 0.703015 165.895 0.451939 165.244 0.251077C164.644 0.0502154 164.044 0 163.393 0C162.643 0 161.993 0.100431 161.542 0.401723C160.592 0.903877 159.992 1.55668 159.642 2.25969C159.341 3.01292 159.191 3.9168 159.191 4.97132C159.241 7.33145 159.341 9.18942 159.491 10.5452C159.341 11.1478 158.591 12.353 157.29 14.0603C157.04 14.3114 156.84 14.6127 156.59 15.0144C156.39 15.4161 156.19 15.7676 156.04 16.1191C155.89 16.4204 155.74 16.9226 155.54 17.5252C155.34 18.1278 155.139 18.5797 155.089 18.8308C154.989 19.0316 154.889 19.2827 154.689 19.584C154.489 19.8853 154.389 20.1364 154.239 20.4377C154.139 20.6887 154.089 21.0402 154.039 21.3918C154.039 21.6428 154.039 21.8939 154.089 22.0948C154.139 22.3961 154.239 22.4965 154.339 22.3458C154.889 21.9441 155.54 22.1952 156.34 23.0489C156.89 23.6514 157.891 25.1077 159.341 27.3674C159.441 27.5682 159.592 27.7691 159.692 28.0202C159.792 28.2713 159.942 28.5726 160.042 28.9743C160.142 29.376 160.192 29.7275 160.192 30.0288C160.192 30.3301 160.042 30.6314 159.792 30.8825C159.541 31.1335 159.141 31.3344 158.641 31.3846C158.391 31.4348 158.041 31.3846 157.641 31.3344C157.24 31.234 156.79 31.1335 156.19 30.9327C155.59 30.7318 155.139 30.6314 154.889 30.531C154.489 30.4305 153.889 30.3301 153.138 30.1794C152.388 30.0288 151.888 29.9284 151.638 29.8279C151.238 29.7275 151.037 29.5769 150.987 29.376C150.987 29.1249 151.037 28.8236 151.288 28.4219C151.488 28.0202 151.588 27.7189 151.588 27.5682C151.588 27.4176 151.588 27.3172 151.588 27.1665C151.588 27.0159 151.538 26.9154 151.488 26.8652C151.438 26.815 151.388 26.6644 151.338 26.5639C151.288 26.4133 151.238 26.3129 151.188 26.2626C150.987 25.7605 150.937 25.409 151.087 25.2583C151.188 25.1077 151.438 25.0575 151.838 25.0575C152.438 25.1077 152.938 25.0073 153.289 24.8064C153.939 24.4047 154.089 23.8021 153.839 22.8982C153.839 23.2999 153.789 23.6012 153.639 23.8021C153.489 24.003 153.239 24.2038 152.888 24.4549C152.688 24.5553 152.338 24.6558 151.838 24.6558C151.338 24.6558 150.987 24.7562 150.837 24.9068C150.737 25.0073 150.637 25.1579 150.637 25.409C150.637 25.6098 150.637 25.8609 150.737 26.0618C150.787 26.2626 150.837 26.5137 150.937 26.815C150.987 27.0159 150.987 27.267 150.987 27.4176C150.987 27.5682 150.887 27.8695 150.687 28.3717C150.487 28.8738 150.437 29.2756 150.587 29.5769C150.637 29.7275 150.737 29.8279 150.887 29.9284C150.987 30.079 151.188 30.1292 151.438 30.2297C151.688 30.2799 151.938 30.3803 152.138 30.3803C152.338 30.4305 152.638 30.4807 153.038 30.531C153.439 30.5812 153.739 30.6314 153.939 30.6816C154.689 30.8322 155.54 31.0833 156.54 31.4348C157.491 31.7863 158.191 31.9872 158.491 31.9872C158.841 31.9872 159.141 31.937 159.441 31.7863C159.742 31.6357 159.992 31.485 160.192 31.2842C160.392 31.0833 160.742 30.9327 161.142 30.7318C161.542 30.5812 162.043 30.4807 162.543 30.4807C162.793 30.4807 163.143 30.4305 163.593 30.4305C164.044 30.4305 164.394 30.3803 164.594 30.3803C165.594 30.3803 166.395 30.3803 166.895 30.3803C167.245 30.3803 167.545 30.4305 167.745 30.531C167.945 30.6314 168.096 30.7318 168.146 30.8825C168.196 31.0331 168.296 31.1838 168.446 31.3344C168.596 31.485 168.746 31.6357 168.946 31.7361C169.396 31.937 169.946 32.0374 170.547 31.9872C171.147 31.937 171.547 31.8366 171.747 31.6357C172.097 31.3344 172.548 30.9327 173.098 30.4807C173.648 30.0288 174.148 29.7275 174.599 29.4764C174.699 29.4262 174.849 29.3258 175.099 29.2254C175.299 29.1249 175.499 29.0245 175.649 28.9241C175.799 28.8236 175.999 28.7232 176.199 28.6228C176.399 28.5223 176.6 28.3717 176.75 28.2713C176.9 28.1708 177 28.0704 177.15 27.9198C177.3 27.7691 177.4 27.6687 177.45 27.518C177.5 27.6185 177.5 27.4678 177.5 27.3172C177.5 27.2167 177.4 27.0661 177.3 26.9154ZM167.745 9.59114C167.795 9.59114 167.795 9.54092 167.795 9.54092L167.845 9.59114C167.895 9.64135 167.895 9.69157 167.945 9.69157C167.996 9.74179 167.995 9.792 168.046 9.84222C168.096 9.89243 168.146 9.94265 168.196 9.99286C168.246 10.0431 168.346 10.0933 168.446 10.0933C168.546 10.0933 168.646 10.1435 168.696 10.1937C168.746 10.2439 168.796 10.2942 168.796 10.3946C168.796 10.5452 168.796 10.6457 168.746 10.7461C168.696 10.8465 168.596 10.8967 168.496 10.8967C168.296 10.8465 168.046 10.6457 167.795 10.3444C167.645 10.0431 167.595 9.792 167.745 9.59114ZM165.544 2.6112C165.594 2.51077 165.644 2.46055 165.644 2.41034C165.644 2.36012 165.694 2.25969 165.644 2.20948C165.594 2.15926 165.644 2.05883 165.644 1.9584C165.694 1.85797 165.744 1.85797 165.844 1.80775C165.945 1.80775 166.095 1.90818 166.295 2.05883C166.345 2.05883 166.395 2.10905 166.445 2.15926C166.545 2.20948 166.595 2.25969 166.595 2.25969C166.645 2.30991 166.645 2.30991 166.645 2.36012C166.645 2.41034 166.545 2.46055 166.495 2.51077C166.395 2.51077 166.345 2.56098 166.245 2.56098C166.145 2.56098 166.095 2.56098 166.095 2.56098C165.995 2.6112 165.895 2.66142 165.844 2.71163C165.744 2.76185 165.694 2.86228 165.644 2.86228C165.594 2.91249 165.544 2.91249 165.494 2.86228C165.444 2.81206 165.444 2.76185 165.444 2.71163C165.494 2.76185 165.494 2.71163 165.544 2.6112ZM156.99 16.0187C157.09 15.9183 157.14 15.8681 157.19 15.7676C157.24 15.7174 157.24 15.617 157.29 15.5166C157.34 15.4161 157.34 15.3157 157.39 15.3157C157.39 15.2655 157.441 15.2655 157.491 15.2655C157.491 15.2655 157.541 15.2655 157.541 15.3157C157.541 15.3659 157.541 15.3659 157.541 15.3659V15.4663C157.541 15.5166 157.541 15.5166 157.491 15.5668C157.491 15.5668 157.491 15.617 157.441 15.6672C157.441 15.7174 157.441 15.7676 157.39 15.7676C157.34 15.8681 157.29 16.0187 157.19 16.0689C157.09 16.1694 157.04 16.2196 156.99 16.1694C156.89 16.2196 156.89 16.1694 156.99 16.0187ZM168.446 25.7605C168.546 26.3631 168.596 26.815 168.546 27.0661C168.546 27.4678 168.446 27.97 168.296 28.673C168.146 29.376 168.096 29.8279 168.046 30.0288C167.795 30.0288 167.645 29.9284 167.595 29.7275C167.545 29.5769 167.595 29.3258 167.695 29.0747C167.945 28.2713 168.096 27.7189 168.096 27.4176C168.096 26.8652 168.046 26.5639 167.895 26.4635C167.745 26.3631 167.545 26.5639 167.295 27.0159C166.795 27.8695 165.744 28.3717 164.144 28.5726C162.743 28.7734 161.743 28.5726 161.192 27.9198C161.092 27.8193 160.942 27.8193 160.842 27.8695C160.742 27.9198 160.642 27.97 160.592 28.0202C160.592 28.0202 160.592 28.0704 160.642 28.1206C160.692 28.1708 160.742 28.221 160.792 28.3215C160.892 28.4219 160.942 28.5223 160.992 28.6228C161.442 29.4262 161.392 29.9786 160.892 30.2799C160.892 29.7275 160.842 29.3258 160.792 29.0245C160.692 28.7232 160.542 28.4219 160.292 28.0704C160.042 27.7189 159.892 27.4678 159.792 27.267C160.142 27.2167 160.392 27.1163 160.592 26.8652C160.792 26.6142 160.842 26.3631 160.842 26.112C160.842 25.8609 160.742 25.6098 160.542 25.409C160.442 25.3086 159.892 24.8566 158.891 24.0532C157.891 23.2497 157.29 22.6974 157.04 22.4463C156.99 22.3961 156.84 22.2956 156.59 22.0948C156.34 21.8939 156.19 21.7433 156.14 21.5926C155.59 20.3874 155.54 19.3831 155.94 18.6299L155.99 18.5295C156.04 18.5295 156.04 18.6299 155.99 18.8308C155.94 19.1823 155.89 19.4836 155.94 19.8351C155.99 20.5883 156.19 21.1407 156.59 21.5424C156.84 21.7935 156.99 21.7935 157.09 21.4922C157.14 21.3918 157.19 21.0402 157.19 20.4377C157.19 19.8351 157.19 19.4334 157.24 19.1823C157.34 18.4793 157.641 17.6758 158.091 16.6715C158.541 15.6672 158.941 15.1148 159.191 15.0646C158.991 14.7131 158.891 14.3616 158.991 13.9097C159.091 13.5079 159.191 13.1564 159.341 12.8551C159.491 12.5538 159.692 12.2526 159.842 11.8508C160.042 11.4491 160.092 11.1478 160.092 10.8465C160.092 10.7461 160.092 10.6959 160.092 10.6457C160.142 10.5452 160.292 10.6457 160.542 11.0474C161.042 11.8006 161.392 12.2023 161.642 12.353C161.893 12.5036 162.193 12.5036 162.493 12.353C162.793 12.2023 163.193 11.9513 163.693 11.5998C164.144 11.2482 164.544 10.9972 164.894 10.7963C164.944 10.7963 164.994 10.7461 165.044 10.6959C165.144 10.6457 165.194 10.6457 165.244 10.5954C165.294 10.5954 165.344 10.5452 165.394 10.495C165.444 10.4448 165.494 10.4448 165.544 10.3946C165.594 10.3946 165.594 10.3444 165.644 10.2942C165.694 10.2439 165.694 10.2439 165.694 10.1937C165.694 10.1435 165.694 10.1435 165.694 10.0933C165.694 9.99286 165.644 9.94265 165.544 9.89243C165.444 9.89243 165.344 9.89243 165.244 9.94265C165.094 9.99286 164.944 10.0933 164.794 10.1435C164.644 10.2439 164.444 10.3444 164.244 10.4448C164.044 10.5452 163.844 10.6457 163.643 10.7461C163.443 10.8465 163.243 10.947 162.993 10.9972C162.793 11.0474 162.543 11.0976 162.343 11.1478C161.843 11.1478 161.442 11.0474 161.142 10.7461C160.942 10.5452 160.842 10.4448 160.842 10.3946C160.842 10.3444 160.892 10.3444 160.992 10.3444C161.642 10.4448 162.093 10.4448 162.393 10.3946C162.693 10.3444 163.093 10.1937 163.643 9.99286C163.743 9.94265 164.044 9.84222 164.444 9.64135C164.894 9.44049 165.194 9.34006 165.444 9.23963C165.594 9.18942 165.694 9.1392 165.744 9.08899C165.794 8.98855 165.794 8.93834 165.794 8.88812C165.794 8.83791 165.744 8.78769 165.694 8.73748C165.544 8.68726 165.444 8.73748 165.344 8.88812C165.294 8.98855 165.144 9.08899 164.994 9.18942C164.794 9.28985 164.644 9.39028 164.494 9.44049C164.344 9.49071 164.144 9.54092 163.894 9.64135C163.643 9.69157 163.493 9.74179 163.493 9.792C162.843 9.99286 162.243 10.0933 161.693 10.0431C161.442 10.0431 161.242 9.99286 161.042 9.94265C160.892 9.89243 160.792 9.792 160.692 9.69157C160.642 9.59114 160.542 9.49071 160.392 9.34006C160.242 9.18942 160.092 9.08899 159.942 8.98855C159.842 8.93834 159.792 8.83791 159.792 8.68726C159.842 8.53662 159.892 8.38597 160.042 8.18511C160.042 8.18511 160.192 8.08468 160.392 7.98425C160.642 7.8336 160.792 7.68295 160.892 7.58252C160.992 7.43188 161.192 7.23102 161.442 7.08037C161.442 7.03015 161.442 6.87951 161.492 6.67865C161.492 6.47779 161.442 6.22671 161.342 5.97563C161.242 5.72455 161.042 5.62412 160.842 5.62412C160.542 5.62412 160.342 5.67434 160.242 5.8752C160.142 6.07606 160.092 6.27692 160.092 6.528C160.092 6.77908 160.142 6.97994 160.242 7.13059C160.342 7.28123 160.442 7.38166 160.542 7.38166C160.692 7.38166 160.692 7.43188 160.642 7.53231C160.592 7.68295 160.492 7.73317 160.342 7.78339C160.242 7.78339 160.192 7.73317 160.042 7.53231C159.942 7.33145 159.842 7.13059 159.792 6.87951C159.742 6.62843 159.742 6.37735 159.742 6.22671C159.742 5.8752 159.842 5.52369 160.042 5.17219C160.192 4.82068 160.442 4.67003 160.792 4.67003C161.142 4.67003 161.392 4.87089 161.592 5.27262C161.793 5.67434 161.893 6.22671 161.893 6.87951C161.943 6.97994 162.043 6.97994 162.193 6.97994C162.343 6.97994 162.543 6.92972 162.793 6.97994C163.043 6.97994 163.193 7.08037 163.293 7.1808C163.293 7.1808 163.293 7.08037 163.293 6.92972C163.093 5.42326 163.593 4.61982 164.894 4.51939C165.094 4.5696 165.244 4.61982 165.394 4.67003C165.544 4.72025 165.644 4.82068 165.794 4.92111C165.945 5.02154 166.045 5.2224 166.145 5.47348C166.245 5.72455 166.345 6.02585 166.395 6.37735V7.03015C166.395 7.43188 166.295 7.63274 166.145 7.68295C165.895 7.78339 165.694 7.78339 165.594 7.68295C165.494 7.58252 165.494 7.43188 165.644 7.23102C165.744 6.92972 165.744 6.57822 165.594 6.17649C165.444 5.77477 165.144 5.62412 164.694 5.62412C164.394 5.62412 164.194 5.77477 164.044 6.12628C163.894 6.42757 163.844 6.72886 163.894 7.03015C163.944 7.33145 163.994 7.48209 164.094 7.48209C164.144 7.48209 164.394 7.58252 164.744 7.78339C165.094 7.98425 165.344 8.08468 165.544 8.08468C165.995 8.18511 166.245 8.33575 166.345 8.53662C166.395 8.73748 166.395 9.03877 166.245 9.44049C166.145 9.84222 166.095 10.1435 166.145 10.3946C166.195 10.6457 166.295 10.8967 166.395 11.0976C166.545 11.2985 166.645 11.4993 166.795 11.7002C166.945 11.901 167.095 12.2023 167.295 12.7045C167.495 13.2066 167.695 13.8092 167.845 14.5625C167.845 14.5625 167.895 14.6127 167.996 14.7131C168.096 14.7633 168.146 14.8638 168.246 14.9642C168.346 15.0646 168.396 15.2153 168.546 15.4161C168.646 15.617 168.746 15.8681 168.896 16.2196C168.996 16.5711 169.146 16.9728 169.246 17.475C169.396 18.0273 169.446 18.6801 169.446 19.3831C169.446 20.1364 169.496 20.5883 169.596 20.8896C169.696 21.1407 169.896 21.2913 170.297 21.2411C170.747 21.2411 171.047 20.99 171.197 20.4879C171.597 19.0818 171.247 17.4247 170.247 15.5166C169.846 14.7633 169.496 14.2612 169.246 14.0101C169.646 14.2612 170.096 14.7131 170.547 15.3659C170.997 16.0187 171.247 16.6213 171.397 17.2239C171.397 17.2741 171.447 17.4247 171.497 17.6758C171.547 17.9269 171.597 18.0775 171.597 18.1278C171.597 18.178 171.647 18.2784 171.647 18.4793C171.697 18.6801 171.697 18.8308 171.697 18.881C171.697 18.9312 171.697 19.0818 171.697 19.2325C171.697 19.3831 171.697 19.5338 171.697 19.6342C171.697 19.7346 171.647 19.8351 171.647 20.0359C171.647 20.1866 171.597 20.3372 171.547 20.4879C171.497 20.6385 171.447 20.7892 171.397 20.99C172.047 21.2913 172.398 21.5424 172.398 21.7433C172.147 21.5424 171.797 21.3918 171.347 21.3415C170.897 21.2913 170.447 21.3415 170.046 21.5424C169.646 21.7433 169.446 22.0446 169.446 22.4965C168.996 22.4965 168.696 22.5969 168.546 22.7978C168.296 23.0991 168.146 23.551 168.146 24.0532C168.346 24.5553 168.346 25.1579 168.446 25.7605ZM161.142 6.32714C161.092 6.32714 161.092 6.27692 161.042 6.22671C161.042 6.12628 161.092 6.07606 161.192 6.12628C161.242 6.12628 161.342 6.22671 161.392 6.37735C161.492 6.528 161.492 6.67865 161.492 6.87951C161.492 6.92972 161.492 6.92972 161.442 6.92972C161.292 6.92972 161.242 6.82929 161.292 6.57822C161.292 6.42757 161.242 6.32714 161.142 6.32714ZM165.744 6.57822L165.694 6.62843C165.594 6.67865 165.544 6.67865 165.544 6.67865C165.494 6.37735 165.394 6.17649 165.244 6.12628L165.194 6.07606C165.094 6.02585 165.144 5.97563 165.294 5.92542C165.344 5.92542 165.394 5.92542 165.444 5.97563C165.494 6.02585 165.594 6.07606 165.644 6.17649C165.694 6.32714 165.744 6.47779 165.744 6.57822Z" fill="white"/>
<path d="M161.594 7.63262C161.594 7.68283 161.644 7.73305 161.694 7.73305C161.744 7.73305 161.794 7.68283 161.844 7.5824C161.894 7.48197 161.994 7.38154 162.094 7.38154H161.894C161.744 7.38154 161.594 7.48197 161.594 7.63262Z" fill="white"/>
<path d="M163.144 7.432C163.244 7.38179 163.344 7.432 163.444 7.53244C163.544 7.63287 163.594 7.68308 163.644 7.63287C163.695 7.58265 163.745 7.53244 163.695 7.48222C163.644 7.28136 163.444 7.28136 163.144 7.432Z" fill="white"/>
<path d="M125.102 10.75C123.605 8.89998 121.509 7.79998 119.514 7.79998C116.869 7.79998 115.772 9.04998 113.975 9.04998C112.079 9.04998 110.682 7.79998 108.387 7.79998C106.142 7.79998 103.797 9.14998 102.3 11.45C100.204 14.7 100.554 20.8 103.996 26C105.244 27.85 106.84 29.95 108.986 30C110.882 30 111.431 28.8 114.025 28.75C116.62 28.75 117.069 30 119.015 29.95C121.16 29.95 122.857 27.6 124.104 25.75C125.002 24.4 125.301 23.75 126 22.25C121.011 20.4 120.212 13.4 125.102 10.75Z" fill="white"/>
<path d="M117.518 5.7C118.466 4.5 119.214 2.75 118.965 1C117.418 1.1 115.572 2.1 114.524 3.4C113.576 4.55 112.778 6.30001 113.077 8.00001C114.774 8.05001 116.52 7.00001 117.518 5.7Z" fill="white"/>
<path d="M62 5.5L52 6.56481V15.0093H62V5.5Z" fill="white"/>
<path d="M62 16H52V24.4445L62 25.5093V16Z" fill="white"/>
<path d="M63 25.6158L76 27V16H63V25.6158Z" fill="white"/>
<path d="M63 5.38426L76 4V15H63V5.38426Z" fill="white"/>
<path opacity="0.5" fill-rule="evenodd" clip-rule="evenodd" d="M13.1665 29.6566L0.79068 23.8921C-0.26356 23.3889 -0.26356 22.6111 0.79068 22.1536L5.09931 20.1406L13.1207 23.8921C14.1749 24.3954 15.8709 24.3954 16.8793 23.8921L24.9007 20.1406L29.2093 22.1536C30.2636 22.6569 30.2636 23.4346 29.2093 23.8921L16.8335 29.6566C15.8709 30.1141 14.1749 30.1141 13.1665 29.6566Z" fill="white"/>
<path opacity="0.75" fill-rule="evenodd" clip-rule="evenodd" d="M13.1264 22.5237L0.788271 16.7525C-0.262757 16.2487 -0.262757 15.47 0.788271 15.012L4.99238 13.0425L13.1264 16.8441C14.1775 17.348 15.8682 17.348 16.8736 16.8441L25.0076 13.0425L29.2117 15.012C30.2628 15.5159 30.2628 16.2945 29.2117 16.7525L16.8736 22.5237C15.8225 23.0276 14.1318 23.0276 13.1264 22.5237Z" fill="white"/>
<path fill-rule="evenodd" clip-rule="evenodd" d="M13.1264 15.4642L0.788271 9.77607C-0.262757 9.27948 -0.262757 8.51203 0.788271 8.06059L13.1264 2.37244C14.1775 1.87585 15.8682 1.87585 16.8736 2.37244L29.2117 8.06059C30.2628 8.55718 30.2628 9.32463 29.2117 9.77607L16.8736 15.4642C15.8225 15.9157 14.1318 15.9157 13.1264 15.4642Z" fill="white"/>
</svg>
