<svg width="64" height="64" viewBox="0 0 64 64" fill="none" xmlns="http://www.w3.org/2000/svg">
<path d="M25 6.5H56C57.3807 6.5 58.5 7.61929 58.5 9V53C58.5 53.2761 58.2761 53.5 58 53.5H25C23.6193 53.5 22.5 52.3807 22.5 51V9C22.5 7.61929 23.6193 6.5 25 6.5Z" fill="white" stroke="#444444"/>
<path d="M29 13H51.8778" stroke="#8BB825" stroke-width="2" stroke-miterlimit="10" stroke-linecap="round" stroke-linejoin="round"/>
<path d="M29 18H47.8778" stroke="#CCCCCC" stroke-width="2" stroke-miterlimit="10" stroke-linecap="round" stroke-linejoin="round"/>
<path d="M29 23H51.8778" stroke="#CCCCCC" stroke-width="2" stroke-miterlimit="10" stroke-linecap="round" stroke-linejoin="round"/>
<path d="M29 28H47.2051" stroke="#CCCCCC" stroke-width="2" stroke-miterlimit="10" stroke-linecap="round" stroke-linejoin="round"/>
<path d="M29 33H51.2051" stroke="#FF6F3D" stroke-width="2" stroke-miterlimit="10" stroke-linecap="round" stroke-linejoin="round"/>
<path d="M29 38H47.3921" stroke="#CCCCCC" stroke-width="2" stroke-miterlimit="10" stroke-linecap="round" stroke-linejoin="round"/>
<path d="M29 43H34.9065" stroke="#CCCCCC" stroke-width="2" stroke-miterlimit="10" stroke-linecap="round" stroke-linejoin="round"/>
<path d="M29 48H35.0074" stroke="#6AC6EA" stroke-width="2" stroke-miterlimit="10" stroke-linecap="round" stroke-linejoin="round"/>
<path d="M2.14258 10.5H7.85742C8.88052 10.5001 9.49988 11.1342 9.5 11.7998V13.999C9.46902 14.0296 9.43348 14.0676 9.38867 14.1074C9.22319 14.2546 8.96197 14.4584 8.59473 14.6641C7.86332 15.0736 6.69715 15.5 5 15.5C3.30285 15.5 2.13668 15.0736 1.40527 14.6641C1.03803 14.4584 0.776805 14.2546 0.611328 14.1074C0.566518 14.0676 0.530982 14.0296 0.5 13.999V11.7998C0.500121 11.1342 1.11948 10.5001 2.14258 10.5Z" fill="#8BB825" stroke="#333333" stroke-miterlimit="10" stroke-linecap="round" stroke-linejoin="round"/>
<path d="M6.5 11.2L5 12L3.5 11.2V8H6.5V11.2Z" fill="white" stroke="#333333" stroke-miterlimit="10" stroke-linecap="round" stroke-linejoin="round"/>
<path d="M5 2.5C6.933 2.5 8.5 4.067 8.5 6C8.5 7.933 6.933 9.5 5 9.5C3.067 9.5 1.5 7.933 1.5 6C1.5 4.067 3.067 2.5 5 2.5Z" fill="white" stroke="#333333" stroke-miterlimit="10" stroke-linecap="round" stroke-linejoin="round"/>
<path d="M5 2.5C7.01352 2.5 8.5 4.28254 8.5 6.40332C8.49992 6.58107 8.40548 6.7454 8.25195 6.83496C8.11735 6.91336 7.95466 6.92465 7.8125 6.86719L7.75293 6.83789L5.66016 5.65039C5.57382 5.72421 5.47146 5.81335 5.35449 5.90918C5.01017 6.19127 4.54325 6.55341 4.07031 6.85742C3.621 7.14624 3.08388 7.4384 2.61914 7.49121C2.37349 7.51908 2.05917 7.48895 1.81152 7.25488C1.5703 7.02685 1.50003 6.70587 1.5 6.40332C1.5 4.28254 2.98648 2.5 5 2.5Z" fill="#AAAAAA" stroke="#333333" stroke-linecap="round" stroke-linejoin="round"/>
<path d="M2.14258 32.5H7.85742C8.88052 32.5001 9.49988 33.1342 9.5 33.7998V35.999C9.46902 36.0296 9.43348 36.0676 9.38867 36.1074C9.22319 36.2546 8.96197 36.4584 8.59473 36.6641C7.86332 37.0736 6.69715 37.5 5 37.5C3.30285 37.5 2.13668 37.0736 1.40527 36.6641C1.03803 36.4584 0.776805 36.2546 0.611328 36.1074C0.566518 36.0676 0.530982 36.0296 0.5 35.999V33.7998C0.500121 33.1342 1.11948 32.5001 2.14258 32.5Z" fill="#FF6F3D" stroke="#333333" stroke-miterlimit="10" stroke-linecap="round" stroke-linejoin="round"/>
<path d="M6.5 33.2L5 34L3.5 33.2V30H6.5V33.2Z" fill="white" stroke="#333333" stroke-miterlimit="10" stroke-linecap="round" stroke-linejoin="round"/>
<path d="M5 24.5C6.933 24.5 8.5 26.067 8.5 28C8.5 29.933 6.933 31.5 5 31.5C3.067 31.5 1.5 29.933 1.5 28C1.5 26.067 3.067 24.5 5 24.5Z" fill="white" stroke="#333333" stroke-miterlimit="10" stroke-linecap="round" stroke-linejoin="round"/>
<path d="M5 24.5C7.01352 24.5 8.5 26.2825 8.5 28.4033C8.49992 28.5811 8.40548 28.7454 8.25195 28.835C8.11735 28.9134 7.95466 28.9246 7.8125 28.8672L7.75293 28.8379L5.66016 27.6504C5.57382 27.7242 5.47146 27.8133 5.35449 27.9092C5.01017 28.1913 4.54325 28.5534 4.07031 28.8574C3.621 29.1462 3.08388 29.4384 2.61914 29.4912C2.37349 29.5191 2.05917 29.489 1.81152 29.2549C1.5703 29.0268 1.50003 28.7059 1.5 28.4033C1.5 26.2825 2.98648 24.5 5 24.5Z" fill="#AAAAAA" stroke="#333333" stroke-linecap="round" stroke-linejoin="round"/>
<path d="M2.14258 54.5H7.85742C8.88052 54.5001 9.49988 55.1342 9.5 55.7998V57.999C9.46902 58.0296 9.43348 58.0676 9.38867 58.1074C9.22319 58.2546 8.96197 58.4584 8.59473 58.6641C7.86332 59.0736 6.69715 59.5 5 59.5C3.30285 59.5 2.13668 59.0736 1.40527 58.6641C1.03803 58.4584 0.776805 58.2546 0.611328 58.1074C0.566518 58.0676 0.530982 58.0296 0.5 57.999V55.7998C0.500121 55.1342 1.11948 54.5001 2.14258 54.5Z" fill="#9ADAF3" stroke="#333333" stroke-miterlimit="10" stroke-linecap="round" stroke-linejoin="round"/>
<path d="M6.5 55.2L5 56L3.5 55.2V52H6.5V55.2Z" fill="white" stroke="#333333" stroke-miterlimit="10" stroke-linecap="round" stroke-linejoin="round"/>
<path d="M5 46.5C6.933 46.5 8.5 48.067 8.5 50C8.5 51.933 6.933 53.5 5 53.5C3.067 53.5 1.5 51.933 1.5 50C1.5 48.067 3.067 46.5 5 46.5Z" fill="white" stroke="#333333" stroke-miterlimit="10" stroke-linecap="round" stroke-linejoin="round"/>
<path d="M5 46.5C7.01352 46.5 8.5 48.2825 8.5 50.4033C8.49992 50.5811 8.40548 50.7454 8.25195 50.835C8.11735 50.9134 7.95466 50.9246 7.8125 50.8672L7.75293 50.8379L5.66016 49.6504C5.57382 49.7242 5.47146 49.8133 5.35449 49.9092C5.01017 50.1913 4.54325 50.5534 4.07031 50.8574C3.621 51.1462 3.08388 51.4384 2.61914 51.4912C2.37349 51.5191 2.05917 51.489 1.81152 51.2549C1.5703 51.0268 1.50003 50.7059 1.5 50.4033C1.5 48.2825 2.98648 46.5 5 46.5Z" fill="#AAAAAA" stroke="#333333" stroke-linecap="round" stroke-linejoin="round"/>
<path d="M41.6058 59.5C40.9865 59.5 40.5 59.229 40.5 58.8841V43.1159C40.5 42.771 40.9865 42.5 41.6058 42.5H62.3942C63.0135 42.5 63.5 42.771 63.5 43.1159V58.8841C63.5 59.229 63.0135 59.5 62.3942 59.5H41.6058Z" fill="white" stroke="#444444" stroke-miterlimit="14.0378" stroke-linecap="round" stroke-dasharray="3 3"/>
<circle cx="41" cy="43" r="1" fill="#444444"/>
<circle cx="63" cy="43" r="1" fill="#444444"/>
<circle cx="63" cy="59" r="1" fill="#444444"/>
<circle cx="41" cy="59" r="1" fill="#444444"/>
<path fill-rule="evenodd" clip-rule="evenodd" d="M49.84 49.9164C50.1638 49.1997 50.6615 48.0979 50.5955 47.3575C50.4997 46.3032 48.9474 46.6007 48.3229 46.9784C47.7617 47.3158 47.4505 47.9131 47.5074 48.5659C47.5696 49.2787 47.9991 49.8215 48.4368 50.3489C48.9645 50.9945 49.714 51.9008 50.1578 52.7775C50.6315 52.5169 50.9253 52.2029 51.1052 52.0074C51.3031 51.7883 51.423 51.658 51.6388 51.7646C51.9027 51.8949 51.9267 52.3984 51.9506 52.9137C51.9686 53.3106 51.9866 53.7253 52.0166 53.743C52.0586 53.7608 52.2385 53.4587 52.7002 52.5169C52.6573 52.2484 52.7825 51.9265 52.952 51.7231C53.2758 51.3144 53.5397 51.2907 53.5097 51.8475C53.4947 52.07 53.3659 52.2836 53.2698 52.4813C53.3538 52.4162 53.5516 52.1555 53.7615 51.8475C54.055 51.4293 54.3163 50.9824 54.547 50.5266C54.9128 47.938 55.4525 45.3376 56.232 44.9466C56.5558 44.7867 56.7716 44.8518 56.8976 45.0947C57.2693 45.8292 55.5244 49.6262 55.1766 50.3844L55.0267 50.6983C54.9308 51.3855 54.8528 52.0785 54.7749 52.7242C55.1566 52.322 55.6488 52.1151 56.142 51.883C57.2693 51.3618 57.6171 51.0241 58.4866 50.2422C58.1088 51.6165 57.6831 51.7172 56.3519 52.3332C55.6418 52.6583 55.017 53.0573 54.655 53.7726L54.589 54.3887C54.4631 55.5497 54.3791 56.3316 54.1153 56.3316C53.9174 56.3316 53.8215 55.9584 53.8155 55.0995C53.8095 54.6612 53.9414 54.1281 54.1753 53.6364C54.2352 53.0796 54.3072 52.4695 54.3851 51.8297C54.3192 51.9364 54.2472 52.0371 54.1813 52.1378C53.9848 52.4212 53.4824 53.1757 53.036 52.9552C52.4483 54.0392 52.0706 54.3176 51.8067 54.1932C51.5069 54.051 51.4829 53.4883 51.459 52.9434L51.435 52.3984C51.2251 52.6235 50.8953 52.967 50.3736 53.2395C50.6255 53.897 50.6435 54.5012 50.1997 54.9218C49.5941 55.4964 48.7846 55.526 48.185 55.3009C47.6601 55.1077 47.0719 54.5516 47.4235 53.9563C47.8636 53.1819 48.9772 53.2473 49.726 52.9848C49.3003 52.1851 48.5688 51.2907 48.0591 50.6687C47.5547 50.0546 47.1026 49.4352 47.0217 48.6133C46.9527 47.7717 47.3568 47.0062 48.0711 46.5637C49.0365 45.9756 50.9729 45.8307 51.1052 47.316C51.2191 48.6133 50.5415 49.9283 49.5581 50.7161L49.84 49.9164ZM49.84 54.5664C50.1098 54.3117 50.0978 53.903 49.9179 53.435C49.3076 53.6631 48.1968 53.5837 47.8432 54.1991C47.682 54.4999 48.1251 54.7516 48.3469 54.833C48.7906 55.0047 49.3962 54.987 49.84 54.5664ZM55.2966 48.8917C55.494 48.44 56.4861 45.3803 56.4538 45.3909C55.9861 45.6278 55.6024 47.1028 55.2966 48.8917Z" fill="#666666"/>
<line x1="15.5" y1="10" x2="15.5" y2="50" stroke="#333333"/>
<circle cx="15.5" cy="8.5" r="2" transform="rotate(-90 15.5 8.5)" fill="#8BB825" stroke="#333333"/>
<circle cx="15.5" cy="29.5" r="2" transform="rotate(-90 15.5 29.5)" fill="#FF6F3D" stroke="#333333"/>
<circle cx="15.5" cy="50.5" r="2" transform="rotate(-90 15.5 50.5)" fill="#9ADAF3" stroke="#333333"/>
</svg>
