<svg width="64" height="64" viewBox="0 0 64 64" fill="none" xmlns="http://www.w3.org/2000/svg">
<g clip-path="url(#clip0_1626_4072)">
<path fill-rule="evenodd" clip-rule="evenodd" d="M16.3439 2.99976C15.0473 2.99976 13.9961 4.04185 13.9961 5.32734V48.6722C13.9961 49.9577 15.0473 50.9998 16.3439 50.9998H47.6483C48.9449 50.9998 49.9961 49.9577 49.9961 48.6722V14.4998C49.9961 13.8824 49.7487 13.2904 49.3084 12.8539L40.1185 3.68149C39.6782 3.24498 39.0811 2.99976 38.4584 2.99976H16.3439Z" fill="white"/>
<path d="M38.8086 3.53784C38.9954 3.46045 39.2105 3.50324 39.3535 3.64624L49.3535 13.6462C49.4965 13.7892 49.5393 14.0043 49.4619 14.1912C49.3845 14.378 49.2022 14.4998 49 14.4998H40.7314C40.0719 14.4997 39.4873 14.3222 39.0732 13.8875C38.6635 13.4571 38.5 12.8571 38.5 12.1814V3.99976L38.5059 3.92456C38.5319 3.75336 38.6453 3.60551 38.8086 3.53784Z" fill="url(#paint0_linear_1626_4072)" stroke="#333333" stroke-linecap="round" stroke-linejoin="round"/>
<path fill-rule="evenodd" clip-rule="evenodd" d="M48.6044 13.5641L48.602 13.5617L39.4145 4.39165L39.4132 4.39039C39.3606 4.33816 39.3115 4.28841 39.269 4.24537L39.2532 4.2293C39.205 4.18044 39.1672 4.14237 39.1326 4.10886C39.0625 4.04089 39.0317 4.01773 39.019 4.00926C39.0085 4.0068 38.9714 3.99976 38.8913 3.99976H15.3439C14.5914 3.99976 13.9961 4.60228 13.9961 5.32734V48.6722C13.9961 49.3972 14.5914 49.9998 15.3439 49.9998H47.6483C48.4008 49.9998 48.9961 49.3972 48.9961 48.6722V14.1091C48.9961 14.0212 48.9872 13.9825 48.9845 13.9721C48.9829 13.9664 48.9824 13.9641 48.9759 13.9539C48.965 13.9371 48.9399 13.9029 48.8754 13.8348C48.825 13.7816 48.7722 13.7295 48.7005 13.659C48.6719 13.6307 48.6401 13.5995 48.6044 13.5641ZM40.1185 3.68149L49.3084 12.8539C49.3366 12.8819 49.364 12.9089 49.3907 12.9351C49.7794 13.3179 49.9961 13.5313 49.9961 14.1091V48.6722C49.9961 49.9577 48.9449 50.9998 47.6483 50.9998H15.3439C14.0473 50.9998 12.9961 49.9577 12.9961 48.6722V5.32734C12.9961 4.04185 14.0473 2.99976 15.3439 2.99976H38.8913C39.4449 2.99976 39.6362 3.19361 39.9812 3.54339C40.0243 3.58702 40.0697 3.63308 40.1185 3.68149Z" fill="#333333"/>
<path d="M19 10.9998C19 10.4475 19.4477 9.99976 20 9.99976H33C33.5523 9.99976 34 10.4475 34 10.9998C34 11.552 33.5523 11.9998 33 11.9998H20C19.4477 11.9998 19 11.552 19 10.9998Z" fill="#AAAAAA"/>
<path d="M19 15.9998C19 15.4475 19.4477 14.9998 20 14.9998H30C30.5523 14.9998 31 15.4475 31 15.9998C31 16.552 30.5523 16.9998 30 16.9998H20C19.4477 16.9998 19 16.552 19 15.9998Z" fill="#AAAAAA"/>
<path d="M26 21.4998C26 21.2236 26.2239 20.9998 26.5 20.9998H44.5C44.7761 20.9998 45 21.2236 45 21.4998C45 21.7759 44.7761 21.9998 44.5 21.9998H26.5C26.2239 21.9998 26 21.7759 26 21.4998Z" fill="#AAAAAA"/>
<path d="M26 25.4998C26 25.2236 26.2239 24.9998 26.5 24.9998H44.5C44.7761 24.9998 45 25.2236 45 25.4998C45 25.7759 44.7761 25.9998 44.5 25.9998H26.5C26.2239 25.9998 26 25.7759 26 25.4998Z" fill="#AAAAAA"/>
<path d="M26 29.4998C26 29.2236 26.2239 28.9998 26.5 28.9998H44.5C44.7761 28.9998 45 29.2236 45 29.4998C45 29.7759 44.7761 29.9998 44.5 29.9998H26.5C26.2239 29.9998 26 29.7759 26 29.4998Z" fill="#AAAAAA"/>
<path d="M44.5 20.9998C44.7761 20.9998 45 21.2236 45 21.4998L45 29.4998C45 29.7759 44.7761 29.9998 44.5 29.9998C44.2239 29.9998 44 29.7759 44 29.4998L44 21.4998C44 21.2236 44.2239 20.9998 44.5 20.9998Z" fill="#AAAAAA"/>
<path d="M35.5 20.9998C35.7761 20.9998 36 21.2236 36 21.4998L36 29.4998C36 29.7759 35.7761 29.9998 35.5 29.9998C35.2239 29.9998 35 29.7759 35 29.4998L35 21.4998C35 21.2236 35.2239 20.9998 35.5 20.9998Z" fill="#AAAAAA"/>
<path d="M26.5 20.9998C26.7761 20.9998 27 21.2236 27 21.4998L27 29.4998C27 29.7759 26.7761 29.9998 26.5 29.9998C26.2239 29.9998 26 29.7759 26 29.4998L26 21.4998C26 21.2236 26.2239 20.9998 26.5 20.9998Z" fill="#AAAAAA"/>
<path fill-rule="evenodd" clip-rule="evenodd" d="M0.342262 17.0344C-0.177678 16.5144 -0.153922 15.6482 0.39532 15.0995L4.06632 11.4326C4.61556 10.884 5.4823 10.8607 6.00224 11.3806L22.3565 27.7364C22.5197 27.8996 22.8314 28.1048 22.888 28.3318L23.9106 33.2196C24.1639 34.235 23.1977 35.2001 22.1818 34.9464L17.2922 33.8491C17.0651 33.7924 16.8597 33.5533 16.6965 33.3901L0.342262 17.0344Z" fill="url(#paint1_linear_1626_4072)"/>
<path fill-rule="evenodd" clip-rule="evenodd" d="M17.0033 33.3901C17.0033 33.3901 17.3467 33.1482 17.8959 32.5995L21.5669 28.9326C22.1162 28.384 22.5042 27.9998 22.5042 27.9998C22.6674 28.163 22.8325 28.1048 22.8891 28.3318L23.9117 33.2195C24.1649 34.235 23.1988 35.2001 22.1829 34.9464L17.2933 33.8491C17.0661 33.7923 17.1666 33.5533 17.0033 33.3901Z" fill="white"/>
<path fill-rule="evenodd" clip-rule="evenodd" d="M17.2927 32.6107L1.07633 16.5623C0.81636 16.3023 0.801707 15.9945 1.07633 15.7202L4.70042 12.1111C4.97505 11.8368 5.14723 11.8511 5.4072 12.1111L21.7259 28.3318C21.8075 28.4134 21.8996 28.8043 21.9279 28.9178L23.0191 33.3901C23.1458 33.8978 22.6904 34.0909 22.1824 33.9641L17.5003 32.7761C17.3867 32.7478 17.3743 32.6923 17.2927 32.6107ZM0.341716 17.0343C-0.178223 16.5144 -0.154468 15.6481 0.394774 15.0995L4.06577 11.4325C4.61502 10.8839 5.48176 10.8606 6.0017 11.3806L22.3571 27.7363C22.5203 27.8996 22.832 28.1048 22.8886 28.3318L23.9112 33.2195C24.1645 34.235 23.1983 35.2001 22.1824 34.9464L17.2928 33.849C17.0657 33.7923 16.8603 33.5533 16.6971 33.3901L0.341716 17.0343Z" fill="#333333"/>
<path d="M6.00029 17.7065L19.7093 31.4155L20.4168 30.7088L6.70779 16.9998L6.00029 17.7065Z" fill="white"/>
<path fill-rule="evenodd" clip-rule="evenodd" d="M21.8875 28.5115L17.3496 32.9744L18.0329 33.67L22.5718 29.2215L21.8875 28.5115Z" fill="#333333"/>
<path fill-rule="evenodd" clip-rule="evenodd" d="M8.27606 14.0085L3.00886 19.2583L3.70534 19.9721L8.96794 14.7134L8.27606 14.0085Z" fill="#333333"/>
<path fill-rule="evenodd" clip-rule="evenodd" d="M22.7004 31.6843L20.7051 33.8281L22.7016 34.4998L23.5041 33.4998L22.7004 31.6843Z" fill="#333333"/>
<path d="M22.5692 46.7863C22.5692 52.4271 27.0676 56.9999 32.6166 56.9999C38.1657 56.9999 42.6641 52.4271 42.6641 46.7863C42.6641 41.1455 38.1657 36.5728 32.6166 36.5728C27.0676 36.5728 22.5692 41.1455 22.5692 46.7863Z" fill="white"/>
<path d="M32.2162 35.9999C36.9991 36.0014 42.8784 39.5872 42.9975 46.387C43.0523 49.5132 42.2051 52.3579 39.9352 54.2264C39.7868 54.0998 39.049 53.9487 38.8721 53.8545L35.8238 52.2294C35.424 52.0162 35.175 51.6066 35.175 51.1613V49.9405C35.175 49.9405 36.0698 48.8945 36.4109 47.4413C36.6939 47.2623 36.8836 46.9529 36.8836 46.6007V45.2646C36.8836 44.9707 36.7498 44.7081 36.542 44.5242V42.5928C36.542 42.5928 36.948 39.5872 32.7832 39.5872C28.6185 39.5872 29.0244 42.5928 29.0244 42.5928V44.5242C28.8162 44.7081 28.6828 44.9707 28.6828 45.2646V46.6007C28.6828 47.0498 28.9913 47.4277 29.4099 47.5539C29.6432 48.2627 29.9797 48.9382 30.4246 49.5524C30.5368 49.7072 30.6417 49.8384 30.7334 49.9405V51.1922C30.7334 51.653 30.467 52.0746 30.0453 52.2803L26.6545 53.7071C26.4586 53.8028 25.5685 54.1981 25.4054 54.3326C23.3614 52.2556 22 50.0971 22 46.885C22 40.4398 27.517 35.9984 32.2162 35.9999Z" fill="url(#paint2_linear_1626_4072)"/>
<path d="M32.6162 36.0728C26.7835 36.073 22.0693 40.8776 22.0693 46.7866C22.0695 52.6955 26.7836 57.4993 32.6162 57.4995C38.449 57.4995 43.1639 52.6956 43.1641 46.7866C43.1641 40.8775 38.4491 36.0728 32.6162 36.0728Z" stroke="#333333"/>
<path d="M32.5692 46.7863C32.5692 52.4271 37.0676 56.9999 42.6166 56.9999C48.1657 56.9999 52.6641 52.4271 52.6641 46.7863C52.6641 41.1455 48.1657 36.5728 42.6166 36.5728C37.0676 36.5728 32.5692 41.1455 32.5692 46.7863Z" fill="white"/>
<path d="M42.2162 35.9999C46.9991 36.0014 52.8784 39.5872 52.9975 46.387C53.0523 49.5132 52.2051 52.3579 49.9352 54.2264C49.7868 54.0998 49.049 53.9487 48.8721 53.8545L45.8238 52.2294C45.424 52.0162 45.175 51.6066 45.175 51.1613V49.9405C45.175 49.9405 46.0698 48.8945 46.4109 47.4413C46.6939 47.2623 46.8836 46.9529 46.8836 46.6007V45.2646C46.8836 44.9707 46.7498 44.7081 46.542 44.5242V42.5928C46.542 42.5928 46.948 39.5872 42.7832 39.5872C38.6185 39.5872 39.0244 42.5928 39.0244 42.5928V44.5242C38.8162 44.7081 38.6828 44.9707 38.6828 45.2646V46.6007C38.6828 47.0498 38.9913 47.4277 39.4099 47.5539C39.6432 48.2627 39.9797 48.9382 40.4246 49.5524C40.5368 49.7072 40.6417 49.8384 40.7334 49.9405V51.1922C40.7334 51.653 40.467 52.0746 40.0453 52.2803L36.6545 53.7071C36.4586 53.8028 35.5685 54.1981 35.4054 54.3326C33.3614 52.2556 32 50.0971 32 46.885C32 40.4398 37.517 35.9984 42.2162 35.9999Z" fill="#9ADAF3"/>
<path d="M42.6162 36.0728C36.7835 36.073 32.0693 40.8776 32.0693 46.7866C32.0695 52.6955 36.7836 57.4993 42.6162 57.4995C48.449 57.4995 53.1639 52.6956 53.1641 46.7866C53.1641 40.8775 48.4491 36.0728 42.6162 36.0728Z" stroke="#333333"/>
<path d="M42.5692 46.7863C42.5692 52.4271 47.0676 56.9999 52.6166 56.9999C58.1657 56.9999 62.6641 52.4271 62.6641 46.7863C62.6641 41.1455 58.1657 36.5728 52.6166 36.5728C47.0676 36.5728 42.5692 41.1455 42.5692 46.7863Z" fill="white"/>
<path d="M52.2162 35.9999C56.9991 36.0014 62.8784 39.5872 62.9975 46.387C63.0523 49.5132 62.2051 52.3579 59.9352 54.2264C59.7868 54.0998 59.049 53.9487 58.8721 53.8545L55.8238 52.2294C55.424 52.0162 55.175 51.6066 55.175 51.1613V49.9405C55.175 49.9405 56.0698 48.8945 56.4109 47.4413C56.6939 47.2623 56.8836 46.9529 56.8836 46.6007V45.2646C56.8836 44.9707 56.7498 44.7081 56.542 44.5242V42.5928C56.542 42.5928 56.948 39.5872 52.7832 39.5872C48.6185 39.5872 49.0244 42.5928 49.0244 42.5928V44.5242C48.8162 44.7081 48.6828 44.9707 48.6828 45.2646V46.6007C48.6828 47.0498 48.9913 47.4277 49.4099 47.5539C49.6432 48.2627 49.9797 48.9382 50.4246 49.5524C50.5368 49.7072 50.6417 49.8384 50.7334 49.9405V51.1922C50.7334 51.653 50.467 52.0746 50.0453 52.2803L46.6545 53.7071C46.4586 53.8028 45.5685 54.1981 45.4054 54.3326C43.3614 52.2556 42 50.0971 42 46.885C42 40.4398 47.517 35.9984 52.2162 35.9999Z" fill="url(#paint3_linear_1626_4072)"/>
<path d="M52.6162 36.0728C46.7835 36.073 42.0693 40.8776 42.0693 46.7866C42.0695 52.6955 46.7836 57.4993 52.6162 57.4995C58.449 57.4995 63.1639 52.6956 63.1641 46.7866C63.1641 40.8775 58.4491 36.0728 52.6162 36.0728Z" stroke="#333333"/>
</g>
<defs>
<linearGradient id="paint0_linear_1626_4072" x1="39" y1="3.60913" x2="49.0002" y2="13.9998" gradientUnits="userSpaceOnUse">
<stop stop-color="#FFC671"/>
<stop offset="0.59375" stop-color="#FF7541"/>
<stop offset="1" stop-color="#FF6F3D"/>
</linearGradient>
<linearGradient id="paint1_linear_1626_4072" x1="-0.82302" y1="16.3166" x2="12.5689" y2="8.39284" gradientUnits="userSpaceOnUse">
<stop stop-color="#FF8E3D"/>
<stop offset="1" stop-color="#FF6F3D"/>
</linearGradient>
<linearGradient id="paint2_linear_1626_4072" x1="32.5" y1="35.9999" x2="32.5" y2="54.3326" gradientUnits="userSpaceOnUse">
<stop stop-color="#FF8E3D"/>
<stop offset="1" stop-color="#FF6F3D"/>
</linearGradient>
<linearGradient id="paint3_linear_1626_4072" x1="52.5" y1="35.9999" x2="52.5" y2="54.3326" gradientUnits="userSpaceOnUse">
<stop stop-color="#FF8E3D"/>
<stop offset="1" stop-color="#FF6F3D"/>
</linearGradient>
<clipPath id="clip0_1626_4072">
<rect width="64" height="64" fill="white"/>
</clipPath>
</defs>
</svg>
