<svg width="64" height="62" viewBox="0 0 64 62" fill="none" xmlns="http://www.w3.org/2000/svg">
<path d="M11 10.2572C11 8.45828 12.4551 7 14.25 7H46.75C48.5449 7 50 8.45828 50 10.2572V57.7428C50 59.5417 48.5449 61 46.75 61H14.25C12.4551 61 11 59.5417 11 57.7428V10.2572Z" fill="#EFEFEF"/>
<path fill-rule="evenodd" clip-rule="evenodd" d="M16 6.02832H14.25C11.9007 6.02832 10 7.93543 10 10.2833V57.745C10 60.0929 11.9007 62 14.25 62H46.75C49.0993 62 51 60.0929 51 57.745V10.2833C51 7.93542 49.0993 6.02832 46.75 6.02832H45V7.02781H46.75C48.5449 7.02781 50 8.48536 50 10.2833V57.745C50 59.543 48.5449 61.0005 46.75 61.0005H14.25C12.4551 61.0005 11 59.543 11 57.745V10.2833C11 8.48536 12.4551 7.02781 14.25 7.02781H16.0112L16 6.02832Z" fill="#333333"/>
<path fill-rule="evenodd" clip-rule="evenodd" d="M33.502 4C33.502 2.50585 32.0491 1 30.4447 1C28.8403 1 27.502 2.50585 27.502 4H19.4525C18.6503 4 18 4.56251 18 5.30959V7.6473C18 8.39438 18.6503 9 19.4525 9L41.5475 8.99997C42.3497 8.99997 43 8.39435 43 7.64727V5.29988C43 4.5528 42.3042 4 41.502 4H33.502Z" fill="url(#paint0_linear_1457_4110)"/>
<path fill-rule="evenodd" clip-rule="evenodd" d="M41 3.99999C41.5299 3.99999 42.002 4.49999 41.9994 4.99999V7.99998C41.9994 8.49998 41.5769 8.99998 41 8.99998L20 9C19.4667 9 19.0006 8.59039 19.0006 8V5C19.0006 4.45116 19.4086 3.99999 20.002 3.99999H28.002C28.002 1.86945 29.2684 1.02407 30.444 1.02407C31.8967 1.02407 33 2.11882 33 3.99999H41ZM34.002 2.99999H41C41.9994 2.99999 43 3.99999 43 4.99999V7.99998C43 8.99998 41.9994 10 41 10H20.002C19.0006 10 18 9 18 8V5C18 3.99999 19.0006 2.99999 20.002 2.99999H27.002C27.002 1.6557 28.5159 0 30.444 0C32.3433 0 34.002 1.53102 34.002 2.99999Z" fill="#333333"/>
<path d="M16.0117 14.8676C16.0117 14.1431 16.6114 13.5558 17.3512 13.5558H43.6932C44.433 13.5558 45.0327 14.1431 45.0327 14.8676V48.4664C45.0327 48.8148 44.8912 49.1489 44.6395 49.395L38.9758 54.9304C38.7247 55.1758 38.3844 55.3137 38.0296 55.3137H17.3512C16.6114 55.3137 16.0117 54.7263 16.0117 54.0019V14.8676Z" fill="white"/>
<path fill-rule="evenodd" clip-rule="evenodd" d="M17.3415 13.0849H43.6835C44.9612 13.0849 46.023 14.0766 46.023 15.3307V48.3217C46.023 48.9229 45.7721 49.4964 45.3307 49.9165L39.6671 55.3073C39.2273 55.7258 38.6346 55.9583 38.0198 55.9583H17.3415C16.0637 55.9583 15.002 54.9666 15.002 53.7125L15.002 15.3307C15.002 14.0766 16.0637 13.0849 17.3415 13.0849ZM17.3415 14.0532C16.6017 14.0532 16.002 14.6251 16.002 15.3307V53.7125C16.002 54.4181 16.6017 54.99 17.3415 54.99H38.0198C38.3746 54.99 38.7149 54.8558 38.966 54.6168L44.6297 49.226C44.8815 48.9863 45.023 48.661 45.023 48.3217V15.3307C45.023 14.6251 44.4232 14.0532 43.6835 14.0532H17.3415Z" fill="#333333"/>
<path fill-rule="evenodd" clip-rule="evenodd" d="M23 17.5C23 17.2239 23.1486 17 23.3319 17H37.6681C37.8514 17 38 17.2239 38 17.5C38 17.7761 37.8514 18 37.6681 18H23.3319C23.1486 18 23 17.7761 23 17.5Z" fill="#333333"/>
<path d="M20 23.6314C20 23.2827 20.279 23 20.6231 23H23H25.3769C25.721 23 26 23.2827 26 23.6314V26V28.3686C26 28.7173 25.721 29 25.3769 29H20.6231C20.279 29 20 28.7173 20 28.3686V23.6314Z" fill="url(#paint1_linear_1457_4110)"/>
<path d="M20 23.6314C20 23.2827 20.279 23 20.6231 23H23H25.3769C25.721 23 26 23.2827 26 23.6314V26V28.3686C26 28.7173 25.721 29 25.3769 29H20.6231C20.279 29 20 28.7173 20 28.3686V23.6314Z" fill="#BDECFF"/>
<path fill-rule="evenodd" clip-rule="evenodd" d="M26 27.2027V28.3654C26 28.7139 25.721 28.9965 25.3769 28.9965H20.6231C20.279 28.9965 20 28.7139 20 28.3654V23.6306C20 23.2821 20.279 22.9995 20.6231 22.9995H22.5989L23.5989 22H20.6231C19.7142 22 19 22.7426 19 23.6306V28.3654C19 29.2534 19.7142 29.996 20.6231 29.996H25.3769C26.2858 29.996 27 29.2534 27 28.3654V26.2032L26 27.2027Z" fill="#333333"/>
<path fill-rule="evenodd" clip-rule="evenodd" d="M30 24.5002C30 24.2239 30.1501 24 30.3352 24H40.6648C40.8499 24 41 24.2239 41 24.5002C41 24.7764 40.8499 25.0003 40.6648 25.0003H30.3352C30.1501 25.0003 30 24.7764 30 24.5002Z" fill="#333333"/>
<path fill-rule="evenodd" clip-rule="evenodd" d="M30 26.4999C30 26.2236 30.1462 25.9997 30.3266 25.9997H35.6734C35.8538 25.9997 36 26.2236 36 26.4999C36 26.7761 35.8538 27 35.6734 27H30.3266C30.1462 27 30 26.7761 30 26.4999Z" fill="#333333"/>
<path fill-rule="evenodd" clip-rule="evenodd" d="M26.7267 23.3536C26.9215 23.5494 26.9207 23.866 26.7249 24.0607L23.6617 27.1064C23.2684 27.4974 22.6322 27.4937 22.2434 27.0983L21.0869 25.9218C20.8933 25.7248 20.8961 25.4082 21.0932 25.2147C21.2901 25.0213 21.6064 25.0241 21.7999 25.2209L22.9566 26.3976L26.02 23.3518C26.2157 23.1572 26.532 23.158 26.7267 23.3536Z" fill="#333333"/>
<path d="M20 33.6314C20 33.2827 20.279 33 20.6231 33H23H25.3769C25.721 33 26 33.2827 26 33.6314V36V38.3686C26 38.7173 25.721 39 25.3769 39H20.6231C20.279 39 20 38.7173 20 38.3686V33.6314Z" fill="url(#paint2_linear_1457_4110)"/>
<path d="M20 33.6314C20 33.2827 20.279 33 20.6231 33H23H25.3769C25.721 33 26 33.2827 26 33.6314V36V38.3686C26 38.7173 25.721 39 25.3769 39H20.6231C20.279 39 20 38.7173 20 38.3686V33.6314Z" fill="#BDECFF"/>
<path fill-rule="evenodd" clip-rule="evenodd" d="M26 37.2027V38.3654C26 38.7139 25.721 38.9965 25.3769 38.9965H20.6231C20.279 38.9965 20 38.7139 20 38.3654V33.6306C20 33.2821 20.279 32.9995 20.6231 32.9995H22.5989L23.5989 32H20.6231C19.7142 32 19 32.7426 19 33.6306V38.3654C19 39.2534 19.7142 39.996 20.6231 39.996H25.3769C26.2858 39.996 27 39.2534 27 38.3654V36.2032L26 37.2027Z" fill="#333333"/>
<path fill-rule="evenodd" clip-rule="evenodd" d="M30 34.5002C30 34.2239 30.1501 34 30.3352 34H40.6648C40.8499 34 41 34.2239 41 34.5002C41 34.7764 40.8499 35.0003 40.6648 35.0003H30.3352C30.1501 35.0003 30 34.7764 30 34.5002Z" fill="#333333"/>
<path fill-rule="evenodd" clip-rule="evenodd" d="M30 36.4999C30 36.2236 30.1462 35.9997 30.3266 35.9997H35.6734C35.8538 35.9997 36 36.2236 36 36.4999C36 36.7761 35.8538 37 35.6734 37H30.3266C30.1462 37 30 36.7761 30 36.4999Z" fill="#333333"/>
<path fill-rule="evenodd" clip-rule="evenodd" d="M26.7267 33.3536C26.9215 33.5494 26.9207 33.866 26.7249 34.0607L23.6617 37.1064C23.2684 37.4974 22.6322 37.4937 22.2434 37.0983L21.0869 35.9218C20.8933 35.7248 20.8961 35.4082 21.0932 35.2147C21.2901 35.0213 21.6064 35.0241 21.7999 35.2209L22.9566 36.3976L26.02 33.3518C26.2157 33.1572 26.532 33.158 26.7267 33.3536Z" fill="#333333"/>
<path d="M20 43.6314C20 43.2827 20.279 43 20.6231 43H23H25.3769C25.721 43 26 43.2827 26 43.6314V46V48.3686C26 48.7173 25.721 49 25.3769 49H20.6231C20.279 49 20 48.7173 20 48.3686V43.6314Z" fill="url(#paint3_linear_1457_4110)"/>
<path d="M20 43.6314C20 43.2827 20.279 43 20.6231 43H23H25.3769C25.721 43 26 43.2827 26 43.6314V46V48.3686C26 48.7173 25.721 49 25.3769 49H20.6231C20.279 49 20 48.7173 20 48.3686V43.6314Z" fill="#BDECFF"/>
<path fill-rule="evenodd" clip-rule="evenodd" d="M26 47.2027V48.3654C26 48.7139 25.721 48.9965 25.3769 48.9965H20.6231C20.279 48.9965 20 48.7139 20 48.3654V43.6306C20 43.2821 20.279 42.9995 20.6231 42.9995H22.5989L23.5989 42H20.6231C19.7142 42 19 42.7426 19 43.6306V48.3654C19 49.2534 19.7142 49.996 20.6231 49.996H25.3769C26.2858 49.996 27 49.2534 27 48.3654V46.2032L26 47.2027Z" fill="#333333"/>
<path fill-rule="evenodd" clip-rule="evenodd" d="M30 44.5002C30 44.2239 30.1501 44 30.3352 44H40.6648C40.8499 44 41 44.2239 41 44.5002C41 44.7764 40.8499 45.0003 40.6648 45.0003H30.3352C30.1501 45.0003 30 44.7764 30 44.5002Z" fill="#333333"/>
<path fill-rule="evenodd" clip-rule="evenodd" d="M30 46.4998C30 46.2236 30.1462 45.9996 30.3266 45.9996H35.6734C35.8538 45.9996 36 46.2236 36 46.4998C36 46.776 35.8538 47 35.6734 47H30.3266C30.1462 47 30 46.776 30 46.4998Z" fill="#333333"/>
<path fill-rule="evenodd" clip-rule="evenodd" d="M26.7267 43.3536C26.9215 43.5494 26.9207 43.866 26.7249 44.0607L23.6617 47.1064C23.2684 47.4974 22.6322 47.4937 22.2434 47.0983L21.0869 45.9218C20.8933 45.7248 20.8961 45.4082 21.0932 45.2147C21.2901 45.0213 21.6064 45.0241 21.7999 45.2209L22.9566 46.3976L26.02 43.3518C26.2157 43.1572 26.532 43.158 26.7267 43.3536Z" fill="#333333"/>
<path fill-rule="evenodd" clip-rule="evenodd" d="M39.2405 48.9653C39.0551 48.9653 39.0298 48.8642 39.0298 49.0377V55.8256H38.0195V49.0377C38.0195 48.5172 38.6844 48.009 39.2405 48.009H45.5922L45.0325 48.9653H39.2405Z" fill="#333333"/>
<defs>
<linearGradient id="paint0_linear_1457_4110" x1="18" y1="0.6875" x2="22.504" y2="15.3122" gradientUnits="userSpaceOnUse">
<stop stop-color="#FFC671"/>
<stop offset="0.59375" stop-color="#FF7541"/>
<stop offset="1" stop-color="#FF6F3D"/>
</linearGradient>
<linearGradient id="paint1_linear_1457_4110" x1="20" y1="22.7656" x2="26" y2="29" gradientUnits="userSpaceOnUse">
<stop stop-color="#FFC671"/>
<stop offset="0.59375" stop-color="#FF7541"/>
<stop offset="1" stop-color="#FF6F3D"/>
</linearGradient>
<linearGradient id="paint2_linear_1457_4110" x1="20" y1="32.7656" x2="26" y2="39" gradientUnits="userSpaceOnUse">
<stop stop-color="#FFC671"/>
<stop offset="0.59375" stop-color="#FF7541"/>
<stop offset="1" stop-color="#FF6F3D"/>
</linearGradient>
<linearGradient id="paint3_linear_1457_4110" x1="20" y1="42.7656" x2="26" y2="49" gradientUnits="userSpaceOnUse">
<stop stop-color="#FFC671"/>
<stop offset="0.59375" stop-color="#FF7541"/>
<stop offset="1" stop-color="#FF6F3D"/>
</linearGradient>
</defs>
</svg>
