<svg width="448" height="254" viewBox="0 0 448 254" fill="none" xmlns="http://www.w3.org/2000/svg">
<path opacity="0.1" d="M367.5 253C408.645 253 442 250.761 442 248C442 245.239 408.645 243 367.5 243C326.355 243 293 245.239 293 248C293 250.761 326.355 253 367.5 253Z" fill="white"/>
<g clip-path="url(#clip0_4582_6419)">
<path d="M287 1V35H1V1H287Z" stroke="#F5F5F5" stroke-width="2"/>
<path d="M20.0002 8.83325C14.9356 8.83325 10.8335 12.9353 10.8335 17.9999C10.8335 22.0562 13.4575 25.4822 17.1012 26.6968C17.5595 26.777 17.7314 26.502 17.7314 26.2613C17.7314 26.0437 17.72 25.3218 17.72 24.5541C15.4168 24.978 14.821 23.9926 14.6377 23.477C14.5345 23.2134 14.0877 22.3999 13.6981 22.1822C13.3772 22.0103 12.9189 21.5863 13.6866 21.5749C14.4085 21.5634 14.9241 22.2395 15.096 22.5145C15.921 23.9009 17.2387 23.5113 17.7658 23.2708C17.846 22.6749 18.0866 22.2738 18.3502 22.0447C16.3106 21.8155 14.1793 21.0249 14.1793 17.5187C14.1793 16.5218 14.5345 15.6968 15.1189 15.0551C15.0272 14.826 14.7064 13.8864 15.2106 12.626C15.2106 12.626 15.9783 12.3853 17.7314 13.5655C18.4647 13.3593 19.2439 13.2562 20.0231 13.2562C20.8022 13.2562 21.5814 13.3593 22.3147 13.5655C24.0679 12.3739 24.8356 12.626 24.8356 12.626C25.3397 13.8864 25.0189 14.826 24.9272 15.0551C25.5117 15.6968 25.8668 16.5103 25.8668 17.5187C25.8668 21.0363 23.7242 21.8155 21.6846 22.0447C22.0168 22.3312 22.3033 22.8812 22.3033 23.7405C22.3033 24.9666 22.2918 25.952 22.2918 26.2613C22.2918 26.502 22.4637 26.7884 22.9221 26.6968C26.5429 25.4822 29.1668 22.0447 29.1668 17.9999C29.1668 12.9353 25.0647 8.83325 20.0002 8.83325Z" fill="#F5F5F5"/>
<mask id="path-6-inside-1_4582_6419" fill="white">
<path d="M1 36H287V76H1V36Z"/>
</mask>
<path d="M287 76V74H1V76V78H287V76Z" fill="#CCCCCC" mask="url(#path-6-inside-1_4582_6419)"/>
<line x1="14" y1="74.9995" x2="47" y2="74.9995" stroke="#FF6F3D" stroke-width="2"/>
<path d="M18 55.4995H111" stroke="#808080" stroke-width="7" stroke-linecap="round"/>
<path d="M258 55.4995H271" stroke="#808080" stroke-width="7" stroke-linecap="round"/>
<path d="M234 55.4995H247" stroke="#808080" stroke-width="7" stroke-linecap="round"/>
<path d="M210 55.4995H223" stroke="#808080" stroke-width="7" stroke-linecap="round"/>
<rect x="16.5" y="94.5" width="36" height="28" stroke="#F5F5F5"/>
<rect x="-0.5" y="0.5" width="64" height="28" transform="matrix(-1 0 0 1 116 94)" stroke="#F5F5F5"/>
<rect x="116.5" y="94.5" width="155" height="28" stroke="#F5F5F5"/>
<rect x="16.5" y="122.5" width="36" height="28" stroke="#F5F5F5"/>
<rect x="-0.5" y="0.5" width="64" height="28" transform="matrix(-1 0 0 1 116 122)" stroke="#F5F5F5"/>
<rect x="116.5" y="122.5" width="155" height="28" stroke="#F5F5F5"/>
<rect x="16.5" y="150.5" width="36" height="28" stroke="#F5F5F5"/>
<rect x="-0.5" y="0.5" width="64" height="28" transform="matrix(-1 0 0 1 116 150)" stroke="#F5F5F5"/>
<rect x="116.5" y="150.5" width="155" height="28" stroke="#F5F5F5"/>
<rect x="16.5" y="178.5" width="36" height="28" stroke="#F5F5F5"/>
<rect x="-0.5" y="0.5" width="64" height="28" transform="matrix(-1 0 0 1 116 178)" stroke="#F5F5F5"/>
<rect x="116.5" y="178.5" width="155" height="28" stroke="#F5F5F5"/>
<rect x="16.5" y="206.5" width="36" height="28" stroke="#F5F5F5"/>
<rect x="-0.5" y="0.5" width="64" height="28" transform="matrix(-1 0 0 1 116 206)" stroke="#F5F5F5"/>
<rect x="116.5" y="206.5" width="155" height="28" stroke="#F5F5F5"/>
<path d="M38.8622 107.005L37.9009 110.021H41.4954L41.2307 112.698H37.0929L35.4768 118H32.4118L34.0418 112.698H31.339L29.7368 118H26.7415L28.3158 112.698H25L25.2508 110.021H29.1099L30.0851 107.005H26.5743L26.8251 104.289H30.8514L32.5093 99H35.5325L33.9025 104.289H36.6749L38.291 99H41.2864L39.6703 104.289H43L42.7492 107.005H38.8622ZM32.1331 110.021H34.8777L35.839 107.005H33.1084L32.1331 110.021Z" fill="#F5F5F5"/>
<path d="M128.333 104.661H220C222.316 104.661 224.246 106.594 224.246 108.914C224.246 110.848 222.316 112.782 220 112.782H128.333C126.403 112.782 124.473 110.848 124.473 108.914C124.473 106.594 126.403 104.661 128.333 104.661Z" fill="#F5F5F5"/>
<path d="M63.8472 104.661H103.754C106.07 104.661 108 106.594 108 108.914C108 110.848 106.07 112.782 103.754 112.782H63.8472C61.917 112.782 59.9868 110.848 59.9868 108.914C59.9868 106.594 61.917 104.661 63.8472 104.661Z" fill="#F5F5F5"/>
<mask id="path-31-inside-2_4582_6419" fill="white">
<path d="M38.8622 135.005L37.9009 138.021H41.4954L41.2307 140.698H37.0929L35.4768 146H32.4118L34.0418 140.698H31.339L29.7368 146H26.7415L28.3158 140.698H25L25.2508 138.021H29.1099L30.0851 135.005H26.5743L26.8251 132.289H30.8514L32.5093 127H35.5325L33.9025 132.289H36.6749L38.291 127H41.2864L39.6703 132.289H43L42.7492 135.005H38.8622ZM32.1331 138.021H34.8777L35.839 135.005H33.1084L32.1331 138.021Z"/>
</mask>
<path d="M38.8622 135.005L37.9009 138.021H41.4954L41.2307 140.698H37.0929L35.4768 146H32.4118L34.0418 140.698H31.339L29.7368 146H26.7415L28.3158 140.698H25L25.2508 138.021H29.1099L30.0851 135.005H26.5743L26.8251 132.289H30.8514L32.5093 127H35.5325L33.9025 132.289H36.6749L38.291 127H41.2864L39.6703 132.289H43L42.7492 135.005H38.8622ZM32.1331 138.021H34.8777L35.839 135.005H33.1084L32.1331 138.021Z" fill="#F5F5F5"/>
<path d="M38.8622 135.005V113.841H23.3963L18.6983 128.577L38.8622 135.005ZM37.9009 138.021L17.737 131.592L8.93941 159.185H37.9009V138.021ZM41.4954 138.021L62.5567 140.103L64.8552 116.856H41.4954V138.021ZM41.2307 140.698V161.862H60.4053L62.292 142.78L41.2307 140.698ZM37.0929 140.698V119.534H21.4182L16.8483 134.527L37.0929 140.698ZM35.4768 146V167.164H51.1514L55.7213 152.17L35.4768 146ZM32.4118 146L12.1821 139.781L3.76405 167.164H32.4118V146ZM34.0418 140.698L54.2715 146.917L62.6895 119.534H34.0418V140.698ZM31.339 140.698V119.534H15.6249L11.0797 134.576L31.339 140.698ZM29.7368 146V167.164H45.4509L49.9962 152.122L29.7368 146ZM26.7415 146L6.45285 139.976L-1.61946 167.164H26.7415V146ZM28.3158 140.698L48.6044 146.722L56.6767 119.534H28.3158V140.698ZM25 140.698L3.92822 138.724L1.76086 161.862H25V140.698ZM25.2508 138.021V116.856H5.97658L4.179 136.047L25.2508 138.021ZM29.1099 138.021V159.185H44.5079L49.2467 144.534L29.1099 138.021ZM30.0851 135.005L50.222 141.519L59.1744 113.841H30.0851V135.005ZM26.5743 135.005L5.49991 133.06L3.36625 156.169H26.5743V135.005ZM26.8251 132.289V111.125H7.52506L5.75069 130.344L26.8251 132.289ZM30.8514 132.289V153.453H46.397L51.0466 138.619L30.8514 132.289ZM32.5093 127V105.836H16.9637L12.3141 120.67L32.5093 127ZM35.5325 127L55.7579 133.233L64.2009 105.836H35.5325V127ZM33.9025 132.289L13.6771 126.056L5.23407 153.453H33.9025V132.289ZM36.6749 132.289V153.453H52.3383L56.9153 138.474L36.6749 132.289ZM38.291 127V105.836H22.6276L18.0507 120.816L38.291 127ZM41.2864 127L61.5267 133.184L69.8827 105.836H41.2864V127ZM39.6703 132.289L19.4299 126.105L11.074 153.453H39.6703V132.289ZM43 132.289L64.0744 134.235L66.2081 111.125H43V132.289ZM42.7492 135.005V156.169H62.0492L63.8236 136.951L42.7492 135.005ZM32.1331 138.021L11.9963 131.507L3.04391 159.185H32.1331V138.021ZM34.8777 138.021V159.185H50.3436L55.0416 144.449L34.8777 138.021ZM35.839 135.005L56.0029 141.434L64.8005 113.841H35.839V135.005ZM33.1084 135.005V113.841H17.7104L12.9715 128.492L33.1084 135.005ZM38.8622 135.005L18.6983 128.577L17.737 131.592L37.9009 138.021L58.0649 144.449L59.0262 141.434L38.8622 135.005ZM37.9009 138.021V159.185H41.4954V138.021V116.856H37.9009V138.021ZM41.4954 138.021L20.434 135.938L20.1693 138.615L41.2307 140.698L62.292 142.78L62.5567 140.103L41.4954 138.021ZM41.2307 140.698V119.534H37.0929V140.698V161.862H41.2307V140.698ZM37.0929 140.698L16.8483 134.527L15.2322 139.83L35.4768 146L55.7213 152.17L57.3374 146.868L37.0929 140.698ZM35.4768 146V124.836H32.4118V146V167.164H35.4768V146ZM32.4118 146L52.6415 152.219L54.2715 146.917L34.0418 140.698L13.8121 134.479L12.1821 139.781L32.4118 146ZM34.0418 140.698V119.534H31.339V140.698V161.862H34.0418V140.698ZM31.339 140.698L11.0797 134.576L9.47749 139.878L29.7368 146L49.9962 152.122L51.5984 146.819L31.339 140.698ZM29.7368 146V124.836H26.7415V146V167.164H29.7368V146ZM26.7415 146L47.0301 152.024L48.6044 146.722L28.3158 140.698L8.02715 134.674L6.45285 139.976L26.7415 146ZM28.3158 140.698V119.534H25V140.698V161.862H28.3158V140.698ZM25 140.698L46.0718 142.672L46.3225 139.994L25.2508 138.021L4.179 136.047L3.92822 138.724L25 140.698ZM25.2508 138.021V159.185H29.1099V138.021V116.856H25.2508V138.021ZM29.1099 138.021L49.2467 144.534L50.222 141.519L30.0851 135.005L9.94831 128.492L8.97308 131.507L29.1099 138.021ZM30.0851 135.005V113.841H26.5743V135.005V156.169H30.0851V135.005ZM26.5743 135.005L47.6487 136.951L47.8995 134.235L26.8251 132.289L5.75069 130.344L5.49991 133.06L26.5743 135.005ZM26.8251 132.289V153.453H30.8514V132.289V111.125H26.8251V132.289ZM30.8514 132.289L51.0466 138.619L52.7045 133.33L32.5093 127L12.3141 120.67L10.6562 125.959L30.8514 132.289ZM32.5093 127V148.164H35.5325V127V105.836H32.5093V127ZM35.5325 127L15.3071 120.767L13.6771 126.056L33.9025 132.289L54.1279 138.522L55.7579 133.233L35.5325 127ZM33.9025 132.289V153.453H36.6749V132.289V111.125H33.9025V132.289ZM36.6749 132.289L56.9153 138.474L58.5314 133.184L38.291 127L18.0507 120.816L16.4346 126.105L36.6749 132.289ZM38.291 127V148.164H41.2864V127V105.836H38.291V127ZM41.2864 127L21.046 120.816L19.4299 126.105L39.6703 132.289L59.9106 138.474L61.5267 133.184L41.2864 127ZM39.6703 132.289V153.453H43V132.289V111.125H39.6703V132.289ZM43 132.289L21.9256 130.344L21.6748 133.06L42.7492 135.005L63.8236 136.951L64.0744 134.235L43 132.289ZM42.7492 135.005V113.841H38.8622V135.005V156.169H42.7492V135.005ZM32.1331 138.021V159.185H34.8777V138.021V116.856H32.1331V138.021ZM34.8777 138.021L55.0416 144.449L56.0029 141.434L35.839 135.005L15.6751 128.577L14.7138 131.592L34.8777 138.021ZM35.839 135.005V113.841H33.1084V135.005V156.169H35.839V135.005ZM33.1084 135.005L12.9715 128.492L11.9963 131.507L32.1331 138.021L52.27 144.534L53.2452 141.519L33.1084 135.005Z" fill="#F5F5F5" mask="url(#path-31-inside-2_4582_6419)"/>
<mask id="path-33-inside-3_4582_6419" fill="white">
<path d="M128.333 132.661H220C222.316 132.661 224.246 134.594 224.246 136.914C224.246 138.848 222.316 140.782 220 140.782H128.333C126.403 140.782 124.473 138.848 124.473 136.914C124.473 134.594 126.403 132.661 128.333 132.661Z"/>
</mask>
<path d="M128.333 132.661H220C222.316 132.661 224.246 134.594 224.246 136.914C224.246 138.848 222.316 140.782 220 140.782H128.333C126.403 140.782 124.473 138.848 124.473 136.914C124.473 134.594 126.403 132.661 128.333 132.661Z" fill="#F5F5F5"/>
<path d="M128.333 132.661V153.825H220V132.661V111.497H128.333V132.661ZM220 132.661V153.825C210.593 153.825 203.082 146.248 203.082 136.914H224.246H245.41C245.41 122.941 234.04 111.497 220 111.497V132.661ZM224.246 136.914H203.082C203.082 130.908 205.916 126.576 208.503 124.146C211.239 121.577 215.229 119.618 220 119.618V140.782V161.946C232.734 161.946 245.41 151.769 245.41 136.914H224.246ZM220 140.782V119.618H128.333V140.782V161.946H220V140.782ZM128.333 140.782V119.618C134.265 119.618 138.415 122.374 140.658 124.621C142.903 126.87 145.637 131.011 145.637 136.914H124.473H103.309C103.309 144.751 107.008 150.826 110.701 154.525C114.391 158.222 120.472 161.946 128.333 161.946V140.782ZM124.473 136.914H145.637C145.637 141.659 143.696 145.64 141.132 148.379C138.709 150.968 134.369 153.825 128.333 153.825V132.661V111.497C113.415 111.497 103.309 124.249 103.309 136.914H124.473Z" fill="#F5F5F5" mask="url(#path-33-inside-3_4582_6419)"/>
<mask id="path-35-inside-4_4582_6419" fill="white">
<path d="M63.8472 132.661H103.754C106.07 132.661 108 134.594 108 136.914C108 138.848 106.07 140.782 103.754 140.782H63.8472C61.917 140.782 59.9868 138.848 59.9868 136.914C59.9868 134.594 61.917 132.661 63.8472 132.661Z"/>
</mask>
<path d="M63.8472 132.661H103.754C106.07 132.661 108 134.594 108 136.914C108 138.848 106.07 140.782 103.754 140.782H63.8472C61.917 140.782 59.9868 138.848 59.9868 136.914C59.9868 134.594 61.917 132.661 63.8472 132.661Z" fill="#F5F5F5"/>
<path d="M63.8472 132.661V153.825H103.754V132.661V111.497H63.8472V132.661ZM103.754 132.661V153.825C94.3461 153.825 86.8359 146.248 86.8359 136.914H108H129.164C129.164 122.941 117.793 111.497 103.754 111.497V132.661ZM108 136.914H86.8359C86.8359 130.908 89.6692 126.576 92.2568 124.146C94.9923 121.577 98.9828 119.618 103.754 119.618V140.782V161.946C116.487 161.946 129.164 151.769 129.164 136.914H108ZM103.754 140.782V119.618H63.8472V140.782V161.946H103.754V140.782ZM63.8472 140.782V119.618C69.7785 119.618 73.9289 122.374 76.1716 124.621C78.4166 126.87 81.1508 131.011 81.1508 136.914H59.9868H38.8228C38.8228 144.751 42.5221 150.826 46.2148 154.525C49.9051 158.222 55.9857 161.946 63.8472 161.946V140.782ZM59.9868 136.914H81.1508C81.1508 141.659 79.2094 145.64 76.6458 148.379C74.223 150.968 69.8823 153.825 63.8472 153.825V132.661V111.497C48.9286 111.497 38.8228 124.249 38.8228 136.914H59.9868Z" fill="#F5F5F5" mask="url(#path-35-inside-4_4582_6419)"/>
<mask id="path-37-inside-5_4582_6419" fill="white">
<path d="M38.8622 163.005L37.9009 166.021H41.4954L41.2307 168.698H37.0929L35.4768 174H32.4118L34.0418 168.698H31.339L29.7368 174H26.7415L28.3158 168.698H25L25.2508 166.021H29.1099L30.0851 163.005H26.5743L26.8251 160.289H30.8514L32.5093 155H35.5325L33.9025 160.289H36.6749L38.291 155H41.2864L39.6703 160.289H43L42.7492 163.005H38.8622ZM32.1331 166.021H34.8777L35.839 163.005H33.1084L32.1331 166.021Z"/>
</mask>
<path d="M38.8622 163.005L37.9009 166.021H41.4954L41.2307 168.698H37.0929L35.4768 174H32.4118L34.0418 168.698H31.339L29.7368 174H26.7415L28.3158 168.698H25L25.2508 166.021H29.1099L30.0851 163.005H26.5743L26.8251 160.289H30.8514L32.5093 155H35.5325L33.9025 160.289H36.6749L38.291 155H41.2864L39.6703 160.289H43L42.7492 163.005H38.8622ZM32.1331 166.021H34.8777L35.839 163.005H33.1084L32.1331 166.021Z" fill="#F5F5F5"/>
<path d="M38.8622 163.005V141.841H23.3963L18.6983 156.577L38.8622 163.005ZM37.9009 166.021L17.737 159.592L8.93941 187.185H37.9009V166.021ZM41.4954 166.021L62.5567 168.103L64.8552 144.856H41.4954V166.021ZM41.2307 168.698V189.862H60.4053L62.292 170.78L41.2307 168.698ZM37.0929 168.698V147.534H21.4182L16.8483 162.527L37.0929 168.698ZM35.4768 174V195.164H51.1514L55.7213 180.17L35.4768 174ZM32.4118 174L12.1821 167.781L3.76405 195.164H32.4118V174ZM34.0418 168.698L54.2715 174.917L62.6895 147.534H34.0418V168.698ZM31.339 168.698V147.534H15.6249L11.0797 162.576L31.339 168.698ZM29.7368 174V195.164H45.4509L49.9962 180.122L29.7368 174ZM26.7415 174L6.45285 167.976L-1.61946 195.164H26.7415V174ZM28.3158 168.698L48.6044 174.722L56.6767 147.534H28.3158V168.698ZM25 168.698L3.92822 166.724L1.76086 189.862H25V168.698ZM25.2508 166.021V144.856H5.97658L4.179 164.047L25.2508 166.021ZM29.1099 166.021V187.185H44.5079L49.2467 172.534L29.1099 166.021ZM30.0851 163.005L50.222 169.519L59.1744 141.841H30.0851V163.005ZM26.5743 163.005L5.49991 161.06L3.36625 184.169H26.5743V163.005ZM26.8251 160.289V139.125H7.52506L5.75069 158.344L26.8251 160.289ZM30.8514 160.289V181.453H46.397L51.0466 166.619L30.8514 160.289ZM32.5093 155V133.836H16.9637L12.3141 148.67L32.5093 155ZM35.5325 155L55.7579 161.233L64.2009 133.836H35.5325V155ZM33.9025 160.289L13.6771 154.056L5.23407 181.453H33.9025V160.289ZM36.6749 160.289V181.453H52.3383L56.9153 166.474L36.6749 160.289ZM38.291 155V133.836H22.6276L18.0507 148.816L38.291 155ZM41.2864 155L61.5267 161.184L69.8827 133.836H41.2864V155ZM39.6703 160.289L19.4299 154.105L11.074 181.453H39.6703V160.289ZM43 160.289L64.0744 162.235L66.2081 139.125H43V160.289ZM42.7492 163.005V184.169H62.0492L63.8236 164.951L42.7492 163.005ZM32.1331 166.021L11.9963 159.507L3.04391 187.185H32.1331V166.021ZM34.8777 166.021V187.185H50.3436L55.0416 172.449L34.8777 166.021ZM35.839 163.005L56.0029 169.434L64.8005 141.841H35.839V163.005ZM33.1084 163.005V141.841H17.7104L12.9715 156.492L33.1084 163.005ZM38.8622 163.005L18.6983 156.577L17.737 159.592L37.9009 166.021L58.0649 172.449L59.0262 169.434L38.8622 163.005ZM37.9009 166.021V187.185H41.4954V166.021V144.856H37.9009V166.021ZM41.4954 166.021L20.434 163.938L20.1693 166.615L41.2307 168.698L62.292 170.78L62.5567 168.103L41.4954 166.021ZM41.2307 168.698V147.534H37.0929V168.698V189.862H41.2307V168.698ZM37.0929 168.698L16.8483 162.527L15.2322 167.83L35.4768 174L55.7213 180.17L57.3374 174.868L37.0929 168.698ZM35.4768 174V152.836H32.4118V174V195.164H35.4768V174ZM32.4118 174L52.6415 180.219L54.2715 174.917L34.0418 168.698L13.8121 162.479L12.1821 167.781L32.4118 174ZM34.0418 168.698V147.534H31.339V168.698V189.862H34.0418V168.698ZM31.339 168.698L11.0797 162.576L9.47749 167.878L29.7368 174L49.9962 180.122L51.5984 174.819L31.339 168.698ZM29.7368 174V152.836H26.7415V174V195.164H29.7368V174ZM26.7415 174L47.0301 180.024L48.6044 174.722L28.3158 168.698L8.02715 162.674L6.45285 167.976L26.7415 174ZM28.3158 168.698V147.534H25V168.698V189.862H28.3158V168.698ZM25 168.698L46.0718 170.672L46.3225 167.994L25.2508 166.021L4.179 164.047L3.92822 166.724L25 168.698ZM25.2508 166.021V187.185H29.1099V166.021V144.856H25.2508V166.021ZM29.1099 166.021L49.2467 172.534L50.222 169.519L30.0851 163.005L9.94831 156.492L8.97308 159.507L29.1099 166.021ZM30.0851 163.005V141.841H26.5743V163.005V184.169H30.0851V163.005ZM26.5743 163.005L47.6487 164.951L47.8995 162.235L26.8251 160.289L5.75069 158.344L5.49991 161.06L26.5743 163.005ZM26.8251 160.289V181.453H30.8514V160.289V139.125H26.8251V160.289ZM30.8514 160.289L51.0466 166.619L52.7045 161.33L32.5093 155L12.3141 148.67L10.6562 153.959L30.8514 160.289ZM32.5093 155V176.164H35.5325V155V133.836H32.5093V155ZM35.5325 155L15.3071 148.767L13.6771 154.056L33.9025 160.289L54.1279 166.522L55.7579 161.233L35.5325 155ZM33.9025 160.289V181.453H36.6749V160.289V139.125H33.9025V160.289ZM36.6749 160.289L56.9153 166.474L58.5314 161.184L38.291 155L18.0507 148.816L16.4346 154.105L36.6749 160.289ZM38.291 155V176.164H41.2864V155V133.836H38.291V155ZM41.2864 155L21.046 148.816L19.4299 154.105L39.6703 160.289L59.9106 166.474L61.5267 161.184L41.2864 155ZM39.6703 160.289V181.453H43V160.289V139.125H39.6703V160.289ZM43 160.289L21.9256 158.344L21.6748 161.06L42.7492 163.005L63.8236 164.951L64.0744 162.235L43 160.289ZM42.7492 163.005V141.841H38.8622V163.005V184.169H42.7492V163.005ZM32.1331 166.021V187.185H34.8777V166.021V144.856H32.1331V166.021ZM34.8777 166.021L55.0416 172.449L56.0029 169.434L35.839 163.005L15.6751 156.577L14.7138 159.592L34.8777 166.021ZM35.839 163.005V141.841H33.1084V163.005V184.169H35.839V163.005ZM33.1084 163.005L12.9715 156.492L11.9963 159.507L32.1331 166.021L52.27 172.534L53.2452 169.519L33.1084 163.005Z" fill="#F5F5F5" mask="url(#path-37-inside-5_4582_6419)"/>
<mask id="path-39-inside-6_4582_6419" fill="white">
<path d="M128.333 160.661H220C222.316 160.661 224.246 162.594 224.246 164.914C224.246 166.848 222.316 168.782 220 168.782H128.333C126.403 168.782 124.473 166.848 124.473 164.914C124.473 162.594 126.403 160.661 128.333 160.661Z"/>
</mask>
<path d="M128.333 160.661H220C222.316 160.661 224.246 162.594 224.246 164.914C224.246 166.848 222.316 168.782 220 168.782H128.333C126.403 168.782 124.473 166.848 124.473 164.914C124.473 162.594 126.403 160.661 128.333 160.661Z" fill="#F5F5F5"/>
<path d="M128.333 160.661V181.825H220V160.661V139.497H128.333V160.661ZM220 160.661V181.825C210.593 181.825 203.082 174.248 203.082 164.914H224.246H245.41C245.41 150.941 234.04 139.497 220 139.497V160.661ZM224.246 164.914H203.082C203.082 158.908 205.916 154.576 208.503 152.146C211.239 149.577 215.229 147.618 220 147.618V168.782V189.946C232.734 189.946 245.41 179.769 245.41 164.914H224.246ZM220 168.782V147.618H128.333V168.782V189.946H220V168.782ZM128.333 168.782V147.618C134.265 147.618 138.415 150.374 140.658 152.621C142.903 154.87 145.637 159.011 145.637 164.914H124.473H103.309C103.309 172.751 107.008 178.826 110.701 182.525C114.391 186.222 120.472 189.946 128.333 189.946V168.782ZM124.473 164.914H145.637C145.637 169.659 143.696 173.64 141.132 176.379C138.709 178.968 134.369 181.825 128.333 181.825V160.661V139.497C113.415 139.497 103.309 152.249 103.309 164.914H124.473Z" fill="#F5F5F5" mask="url(#path-39-inside-6_4582_6419)"/>
<mask id="path-41-inside-7_4582_6419" fill="white">
<path d="M63.8472 160.661H103.754C106.07 160.661 108 162.594 108 164.914C108 166.848 106.07 168.782 103.754 168.782H63.8472C61.917 168.782 59.9868 166.848 59.9868 164.914C59.9868 162.594 61.917 160.661 63.8472 160.661Z"/>
</mask>
<path d="M63.8472 160.661H103.754C106.07 160.661 108 162.594 108 164.914C108 166.848 106.07 168.782 103.754 168.782H63.8472C61.917 168.782 59.9868 166.848 59.9868 164.914C59.9868 162.594 61.917 160.661 63.8472 160.661Z" fill="#F5F5F5"/>
<path d="M63.8472 160.661V181.825H103.754V160.661V139.497H63.8472V160.661ZM103.754 160.661V181.825C94.3461 181.825 86.8359 174.248 86.8359 164.914H108H129.164C129.164 150.941 117.793 139.497 103.754 139.497V160.661ZM108 164.914H86.8359C86.8359 158.908 89.6692 154.576 92.2568 152.146C94.9923 149.577 98.9828 147.618 103.754 147.618V168.782V189.946C116.487 189.946 129.164 179.769 129.164 164.914H108ZM103.754 168.782V147.618H63.8472V168.782V189.946H103.754V168.782ZM63.8472 168.782V147.618C69.7785 147.618 73.9289 150.374 76.1716 152.621C78.4166 154.87 81.1508 159.011 81.1508 164.914H59.9868H38.8228C38.8228 172.751 42.5221 178.826 46.2148 182.525C49.9051 186.222 55.9857 189.946 63.8472 189.946V168.782ZM59.9868 164.914H81.1508C81.1508 169.659 79.2094 173.64 76.6458 176.379C74.223 178.968 69.8823 181.825 63.8472 181.825V160.661V139.497C48.9286 139.497 38.8228 152.249 38.8228 164.914H59.9868Z" fill="#F5F5F5" mask="url(#path-41-inside-7_4582_6419)"/>
<mask id="path-43-inside-8_4582_6419" fill="white">
<path d="M38.8622 191.005L37.9009 194.021H41.4954L41.2307 196.698H37.0929L35.4768 202H32.4118L34.0418 196.698H31.339L29.7368 202H26.7415L28.3158 196.698H25L25.2508 194.021H29.1099L30.0851 191.005H26.5743L26.8251 188.289H30.8514L32.5093 183H35.5325L33.9025 188.289H36.6749L38.291 183H41.2864L39.6703 188.289H43L42.7492 191.005H38.8622ZM32.1331 194.021H34.8777L35.839 191.005H33.1084L32.1331 194.021Z"/>
</mask>
<path d="M38.8622 191.005L37.9009 194.021H41.4954L41.2307 196.698H37.0929L35.4768 202H32.4118L34.0418 196.698H31.339L29.7368 202H26.7415L28.3158 196.698H25L25.2508 194.021H29.1099L30.0851 191.005H26.5743L26.8251 188.289H30.8514L32.5093 183H35.5325L33.9025 188.289H36.6749L38.291 183H41.2864L39.6703 188.289H43L42.7492 191.005H38.8622ZM32.1331 194.021H34.8777L35.839 191.005H33.1084L32.1331 194.021Z" fill="#F5F5F5"/>
<path d="M38.8622 191.005V169.841H23.3963L18.6983 184.577L38.8622 191.005ZM37.9009 194.021L17.737 187.592L8.93941 215.185H37.9009V194.021ZM41.4954 194.021L62.5567 196.103L64.8552 172.856H41.4954V194.021ZM41.2307 196.698V217.862H60.4053L62.292 198.78L41.2307 196.698ZM37.0929 196.698V175.534H21.4182L16.8483 190.527L37.0929 196.698ZM35.4768 202V223.164H51.1514L55.7213 208.17L35.4768 202ZM32.4118 202L12.1821 195.781L3.76405 223.164H32.4118V202ZM34.0418 196.698L54.2715 202.917L62.6895 175.534H34.0418V196.698ZM31.339 196.698V175.534H15.6249L11.0797 190.576L31.339 196.698ZM29.7368 202V223.164H45.4509L49.9962 208.122L29.7368 202ZM26.7415 202L6.45285 195.976L-1.61946 223.164H26.7415V202ZM28.3158 196.698L48.6044 202.722L56.6767 175.534H28.3158V196.698ZM25 196.698L3.92822 194.724L1.76086 217.862H25V196.698ZM25.2508 194.021V172.856H5.97658L4.179 192.047L25.2508 194.021ZM29.1099 194.021V215.185H44.5079L49.2467 200.534L29.1099 194.021ZM30.0851 191.005L50.222 197.519L59.1744 169.841H30.0851V191.005ZM26.5743 191.005L5.49991 189.06L3.36625 212.169H26.5743V191.005ZM26.8251 188.289V167.125H7.52506L5.75069 186.344L26.8251 188.289ZM30.8514 188.289V209.453H46.397L51.0466 194.619L30.8514 188.289ZM32.5093 183V161.836H16.9637L12.3141 176.67L32.5093 183ZM35.5325 183L55.7579 189.233L64.2009 161.836H35.5325V183ZM33.9025 188.289L13.6771 182.056L5.23407 209.453H33.9025V188.289ZM36.6749 188.289V209.453H52.3383L56.9153 194.474L36.6749 188.289ZM38.291 183V161.836H22.6276L18.0507 176.816L38.291 183ZM41.2864 183L61.5267 189.184L69.8827 161.836H41.2864V183ZM39.6703 188.289L19.4299 182.105L11.074 209.453H39.6703V188.289ZM43 188.289L64.0744 190.235L66.2081 167.125H43V188.289ZM42.7492 191.005V212.169H62.0492L63.8236 192.951L42.7492 191.005ZM32.1331 194.021L11.9963 187.507L3.04391 215.185H32.1331V194.021ZM34.8777 194.021V215.185H50.3436L55.0416 200.449L34.8777 194.021ZM35.839 191.005L56.0029 197.434L64.8005 169.841H35.839V191.005ZM33.1084 191.005V169.841H17.7104L12.9715 184.492L33.1084 191.005ZM38.8622 191.005L18.6983 184.577L17.737 187.592L37.9009 194.021L58.0649 200.449L59.0262 197.434L38.8622 191.005ZM37.9009 194.021V215.185H41.4954V194.021V172.856H37.9009V194.021ZM41.4954 194.021L20.434 191.938L20.1693 194.615L41.2307 196.698L62.292 198.78L62.5567 196.103L41.4954 194.021ZM41.2307 196.698V175.534H37.0929V196.698V217.862H41.2307V196.698ZM37.0929 196.698L16.8483 190.527L15.2322 195.83L35.4768 202L55.7213 208.17L57.3374 202.868L37.0929 196.698ZM35.4768 202V180.836H32.4118V202V223.164H35.4768V202ZM32.4118 202L52.6415 208.219L54.2715 202.917L34.0418 196.698L13.8121 190.479L12.1821 195.781L32.4118 202ZM34.0418 196.698V175.534H31.339V196.698V217.862H34.0418V196.698ZM31.339 196.698L11.0797 190.576L9.47749 195.878L29.7368 202L49.9962 208.122L51.5984 202.819L31.339 196.698ZM29.7368 202V180.836H26.7415V202V223.164H29.7368V202ZM26.7415 202L47.0301 208.024L48.6044 202.722L28.3158 196.698L8.02715 190.674L6.45285 195.976L26.7415 202ZM28.3158 196.698V175.534H25V196.698V217.862H28.3158V196.698ZM25 196.698L46.0718 198.672L46.3225 195.994L25.2508 194.021L4.179 192.047L3.92822 194.724L25 196.698ZM25.2508 194.021V215.185H29.1099V194.021V172.856H25.2508V194.021ZM29.1099 194.021L49.2467 200.534L50.222 197.519L30.0851 191.005L9.94831 184.492L8.97308 187.507L29.1099 194.021ZM30.0851 191.005V169.841H26.5743V191.005V212.169H30.0851V191.005ZM26.5743 191.005L47.6487 192.951L47.8995 190.235L26.8251 188.289L5.75069 186.344L5.49991 189.06L26.5743 191.005ZM26.8251 188.289V209.453H30.8514V188.289V167.125H26.8251V188.289ZM30.8514 188.289L51.0466 194.619L52.7045 189.33L32.5093 183L12.3141 176.67L10.6562 181.959L30.8514 188.289ZM32.5093 183V204.164H35.5325V183V161.836H32.5093V183ZM35.5325 183L15.3071 176.767L13.6771 182.056L33.9025 188.289L54.1279 194.522L55.7579 189.233L35.5325 183ZM33.9025 188.289V209.453H36.6749V188.289V167.125H33.9025V188.289ZM36.6749 188.289L56.9153 194.474L58.5314 189.184L38.291 183L18.0507 176.816L16.4346 182.105L36.6749 188.289ZM38.291 183V204.164H41.2864V183V161.836H38.291V183ZM41.2864 183L21.046 176.816L19.4299 182.105L39.6703 188.289L59.9106 194.474L61.5267 189.184L41.2864 183ZM39.6703 188.289V209.453H43V188.289V167.125H39.6703V188.289ZM43 188.289L21.9256 186.344L21.6748 189.06L42.7492 191.005L63.8236 192.951L64.0744 190.235L43 188.289ZM42.7492 191.005V169.841H38.8622V191.005V212.169H42.7492V191.005ZM32.1331 194.021V215.185H34.8777V194.021V172.856H32.1331V194.021ZM34.8777 194.021L55.0416 200.449L56.0029 197.434L35.839 191.005L15.6751 184.577L14.7138 187.592L34.8777 194.021ZM35.839 191.005V169.841H33.1084V191.005V212.169H35.839V191.005ZM33.1084 191.005L12.9715 184.492L11.9963 187.507L32.1331 194.021L52.27 200.534L53.2452 197.519L33.1084 191.005Z" fill="#F5F5F5" mask="url(#path-43-inside-8_4582_6419)"/>
<mask id="path-45-inside-9_4582_6419" fill="white">
<path d="M128.333 188.661H220C222.316 188.661 224.246 190.594 224.246 192.914C224.246 194.848 222.316 196.782 220 196.782H128.333C126.403 196.782 124.473 194.848 124.473 192.914C124.473 190.594 126.403 188.661 128.333 188.661Z"/>
</mask>
<path d="M128.333 188.661H220C222.316 188.661 224.246 190.594 224.246 192.914C224.246 194.848 222.316 196.782 220 196.782H128.333C126.403 196.782 124.473 194.848 124.473 192.914C124.473 190.594 126.403 188.661 128.333 188.661Z" fill="#F5F5F5"/>
<path d="M128.333 188.661V209.825H220V188.661V167.497H128.333V188.661ZM220 188.661V209.825C210.593 209.825 203.082 202.248 203.082 192.914H224.246H245.41C245.41 178.941 234.04 167.497 220 167.497V188.661ZM224.246 192.914H203.082C203.082 186.908 205.916 182.576 208.503 180.146C211.239 177.577 215.229 175.618 220 175.618V196.782V217.946C232.734 217.946 245.41 207.769 245.41 192.914H224.246ZM220 196.782V175.618H128.333V196.782V217.946H220V196.782ZM128.333 196.782V175.618C134.265 175.618 138.415 178.374 140.658 180.621C142.903 182.87 145.637 187.011 145.637 192.914H124.473H103.309C103.309 200.751 107.008 206.826 110.701 210.525C114.391 214.222 120.472 217.946 128.333 217.946V196.782ZM124.473 192.914H145.637C145.637 197.659 143.696 201.64 141.132 204.379C138.709 206.968 134.369 209.825 128.333 209.825V188.661V167.497C113.415 167.497 103.309 180.249 103.309 192.914H124.473Z" fill="#F5F5F5" mask="url(#path-45-inside-9_4582_6419)"/>
<mask id="path-47-inside-10_4582_6419" fill="white">
<path d="M63.8472 188.661H103.754C106.07 188.661 108 190.594 108 192.914C108 194.848 106.07 196.782 103.754 196.782H63.8472C61.917 196.782 59.9868 194.848 59.9868 192.914C59.9868 190.594 61.917 188.661 63.8472 188.661Z"/>
</mask>
<path d="M63.8472 188.661H103.754C106.07 188.661 108 190.594 108 192.914C108 194.848 106.07 196.782 103.754 196.782H63.8472C61.917 196.782 59.9868 194.848 59.9868 192.914C59.9868 190.594 61.917 188.661 63.8472 188.661Z" fill="#F5F5F5"/>
<path d="M63.8472 188.661V209.825H103.754V188.661V167.497H63.8472V188.661ZM103.754 188.661V209.825C94.3461 209.825 86.8359 202.248 86.8359 192.914H108H129.164C129.164 178.941 117.793 167.497 103.754 167.497V188.661ZM108 192.914H86.8359C86.8359 186.908 89.6692 182.576 92.2568 180.146C94.9923 177.577 98.9828 175.618 103.754 175.618V196.782V217.946C116.487 217.946 129.164 207.769 129.164 192.914H108ZM103.754 196.782V175.618H63.8472V196.782V217.946H103.754V196.782ZM63.8472 196.782V175.618C69.7785 175.618 73.9289 178.374 76.1716 180.621C78.4166 182.87 81.1508 187.011 81.1508 192.914H59.9868H38.8228C38.8228 200.751 42.5221 206.826 46.2148 210.525C49.9051 214.222 55.9857 217.946 63.8472 217.946V196.782ZM59.9868 192.914H81.1508C81.1508 197.659 79.2094 201.64 76.6458 204.379C74.223 206.968 69.8823 209.825 63.8472 209.825V188.661V167.497C48.9286 167.497 38.8228 180.249 38.8228 192.914H59.9868Z" fill="#F5F5F5" mask="url(#path-47-inside-10_4582_6419)"/>
<mask id="path-49-inside-11_4582_6419" fill="white">
<path d="M38.8622 219.005L37.9009 222.021H41.4954L41.2307 224.698H37.0929L35.4768 230H32.4118L34.0418 224.698H31.339L29.7368 230H26.7415L28.3158 224.698H25L25.2508 222.021H29.1099L30.0851 219.005H26.5743L26.8251 216.289H30.8514L32.5093 211H35.5325L33.9025 216.289H36.6749L38.291 211H41.2864L39.6703 216.289H43L42.7492 219.005H38.8622ZM32.1331 222.021H34.8777L35.839 219.005H33.1084L32.1331 222.021Z"/>
</mask>
<path d="M38.8622 219.005L37.9009 222.021H41.4954L41.2307 224.698H37.0929L35.4768 230H32.4118L34.0418 224.698H31.339L29.7368 230H26.7415L28.3158 224.698H25L25.2508 222.021H29.1099L30.0851 219.005H26.5743L26.8251 216.289H30.8514L32.5093 211H35.5325L33.9025 216.289H36.6749L38.291 211H41.2864L39.6703 216.289H43L42.7492 219.005H38.8622ZM32.1331 222.021H34.8777L35.839 219.005H33.1084L32.1331 222.021Z" fill="#F5F5F5"/>
<path d="M38.8622 219.005V197.841H23.3963L18.6983 212.577L38.8622 219.005ZM37.9009 222.021L17.737 215.592L8.93941 243.185H37.9009V222.021ZM41.4954 222.021L62.5567 224.103L64.8552 200.856H41.4954V222.021ZM41.2307 224.698V245.862H60.4053L62.292 226.78L41.2307 224.698ZM37.0929 224.698V203.534H21.4182L16.8483 218.527L37.0929 224.698ZM35.4768 230V251.164H51.1514L55.7213 236.17L35.4768 230ZM32.4118 230L12.1821 223.781L3.76405 251.164H32.4118V230ZM34.0418 224.698L54.2715 230.917L62.6895 203.534H34.0418V224.698ZM31.339 224.698V203.534H15.6249L11.0797 218.576L31.339 224.698ZM29.7368 230V251.164H45.4509L49.9962 236.122L29.7368 230ZM26.7415 230L6.45285 223.976L-1.61946 251.164H26.7415V230ZM28.3158 224.698L48.6044 230.722L56.6767 203.534H28.3158V224.698ZM25 224.698L3.92822 222.724L1.76086 245.862H25V224.698ZM25.2508 222.021V200.856H5.97658L4.179 220.047L25.2508 222.021ZM29.1099 222.021V243.185H44.5079L49.2467 228.534L29.1099 222.021ZM30.0851 219.005L50.222 225.519L59.1744 197.841H30.0851V219.005ZM26.5743 219.005L5.49991 217.06L3.36625 240.169H26.5743V219.005ZM26.8251 216.289V195.125H7.52506L5.75069 214.344L26.8251 216.289ZM30.8514 216.289V237.453H46.397L51.0466 222.619L30.8514 216.289ZM32.5093 211V189.836H16.9637L12.3141 204.67L32.5093 211ZM35.5325 211L55.7579 217.233L64.2009 189.836H35.5325V211ZM33.9025 216.289L13.6771 210.056L5.23407 237.453H33.9025V216.289ZM36.6749 216.289V237.453H52.3383L56.9153 222.474L36.6749 216.289ZM38.291 211V189.836H22.6276L18.0507 204.816L38.291 211ZM41.2864 211L61.5267 217.184L69.8827 189.836H41.2864V211ZM39.6703 216.289L19.4299 210.105L11.074 237.453H39.6703V216.289ZM43 216.289L64.0744 218.235L66.2081 195.125H43V216.289ZM42.7492 219.005V240.169H62.0492L63.8236 220.951L42.7492 219.005ZM32.1331 222.021L11.9963 215.507L3.04391 243.185H32.1331V222.021ZM34.8777 222.021V243.185H50.3436L55.0416 228.449L34.8777 222.021ZM35.839 219.005L56.0029 225.434L64.8005 197.841H35.839V219.005ZM33.1084 219.005V197.841H17.7104L12.9715 212.492L33.1084 219.005ZM38.8622 219.005L18.6983 212.577L17.737 215.592L37.9009 222.021L58.0649 228.449L59.0262 225.434L38.8622 219.005ZM37.9009 222.021V243.185H41.4954V222.021V200.856H37.9009V222.021ZM41.4954 222.021L20.434 219.938L20.1693 222.615L41.2307 224.698L62.292 226.78L62.5567 224.103L41.4954 222.021ZM41.2307 224.698V203.534H37.0929V224.698V245.862H41.2307V224.698ZM37.0929 224.698L16.8483 218.527L15.2322 223.83L35.4768 230L55.7213 236.17L57.3374 230.868L37.0929 224.698ZM35.4768 230V208.836H32.4118V230V251.164H35.4768V230ZM32.4118 230L52.6415 236.219L54.2715 230.917L34.0418 224.698L13.8121 218.479L12.1821 223.781L32.4118 230ZM34.0418 224.698V203.534H31.339V224.698V245.862H34.0418V224.698ZM31.339 224.698L11.0797 218.576L9.47749 223.878L29.7368 230L49.9962 236.122L51.5984 230.819L31.339 224.698ZM29.7368 230V208.836H26.7415V230V251.164H29.7368V230ZM26.7415 230L47.0301 236.024L48.6044 230.722L28.3158 224.698L8.02715 218.674L6.45285 223.976L26.7415 230ZM28.3158 224.698V203.534H25V224.698V245.862H28.3158V224.698ZM25 224.698L46.0718 226.672L46.3225 223.994L25.2508 222.021L4.179 220.047L3.92822 222.724L25 224.698ZM25.2508 222.021V243.185H29.1099V222.021V200.856H25.2508V222.021ZM29.1099 222.021L49.2467 228.534L50.222 225.519L30.0851 219.005L9.94831 212.492L8.97308 215.507L29.1099 222.021ZM30.0851 219.005V197.841H26.5743V219.005V240.169H30.0851V219.005ZM26.5743 219.005L47.6487 220.951L47.8995 218.235L26.8251 216.289L5.75069 214.344L5.49991 217.06L26.5743 219.005ZM26.8251 216.289V237.453H30.8514V216.289V195.125H26.8251V216.289ZM30.8514 216.289L51.0466 222.619L52.7045 217.33L32.5093 211L12.3141 204.67L10.6562 209.959L30.8514 216.289ZM32.5093 211V232.164H35.5325V211V189.836H32.5093V211ZM35.5325 211L15.3071 204.767L13.6771 210.056L33.9025 216.289L54.1279 222.522L55.7579 217.233L35.5325 211ZM33.9025 216.289V237.453H36.6749V216.289V195.125H33.9025V216.289ZM36.6749 216.289L56.9153 222.474L58.5314 217.184L38.291 211L18.0507 204.816L16.4346 210.105L36.6749 216.289ZM38.291 211V232.164H41.2864V211V189.836H38.291V211ZM41.2864 211L21.046 204.816L19.4299 210.105L39.6703 216.289L59.9106 222.474L61.5267 217.184L41.2864 211ZM39.6703 216.289V237.453H43V216.289V195.125H39.6703V216.289ZM43 216.289L21.9256 214.344L21.6748 217.06L42.7492 219.005L63.8236 220.951L64.0744 218.235L43 216.289ZM42.7492 219.005V197.841H38.8622V219.005V240.169H42.7492V219.005ZM32.1331 222.021V243.185H34.8777V222.021V200.856H32.1331V222.021ZM34.8777 222.021L55.0416 228.449L56.0029 225.434L35.839 219.005L15.6751 212.577L14.7138 215.592L34.8777 222.021ZM35.839 219.005V197.841H33.1084V219.005V240.169H35.839V219.005ZM33.1084 219.005L12.9715 212.492L11.9963 215.507L32.1331 222.021L52.27 228.534L53.2452 225.519L33.1084 219.005Z" fill="#F5F5F5" mask="url(#path-49-inside-11_4582_6419)"/>
<mask id="path-51-inside-12_4582_6419" fill="white">
<path d="M128.333 216.661H220C222.316 216.661 224.246 218.594 224.246 220.914C224.246 222.848 222.316 224.782 220 224.782H128.333C126.403 224.782 124.473 222.848 124.473 220.914C124.473 218.594 126.403 216.661 128.333 216.661Z"/>
</mask>
<path d="M128.333 216.661H220C222.316 216.661 224.246 218.594 224.246 220.914C224.246 222.848 222.316 224.782 220 224.782H128.333C126.403 224.782 124.473 222.848 124.473 220.914C124.473 218.594 126.403 216.661 128.333 216.661Z" fill="#F5F5F5"/>
<path d="M128.333 216.661V237.825H220V216.661V195.497H128.333V216.661ZM220 216.661V237.825C210.593 237.825 203.082 230.248 203.082 220.914H224.246H245.41C245.41 206.941 234.04 195.497 220 195.497V216.661ZM224.246 220.914H203.082C203.082 214.908 205.916 210.576 208.503 208.146C211.239 205.577 215.229 203.618 220 203.618V224.782V245.946C232.734 245.946 245.41 235.769 245.41 220.914H224.246ZM220 224.782V203.618H128.333V224.782V245.946H220V224.782ZM128.333 224.782V203.618C134.265 203.618 138.415 206.374 140.658 208.621C142.903 210.87 145.637 215.011 145.637 220.914H124.473H103.309C103.309 228.751 107.008 234.826 110.701 238.525C114.391 242.222 120.472 245.946 128.333 245.946V224.782ZM124.473 220.914H145.637C145.637 225.659 143.696 229.64 141.132 232.379C138.709 234.968 134.369 237.825 128.333 237.825V216.661V195.497C113.415 195.497 103.309 208.249 103.309 220.914H124.473Z" fill="#F5F5F5" mask="url(#path-51-inside-12_4582_6419)"/>
<mask id="path-53-inside-13_4582_6419" fill="white">
<path d="M63.8472 216.661H103.754C106.07 216.661 108 218.594 108 220.914C108 222.848 106.07 224.782 103.754 224.782H63.8472C61.917 224.782 59.9868 222.848 59.9868 220.914C59.9868 218.594 61.917 216.661 63.8472 216.661Z"/>
</mask>
<path d="M63.8472 216.661H103.754C106.07 216.661 108 218.594 108 220.914C108 222.848 106.07 224.782 103.754 224.782H63.8472C61.917 224.782 59.9868 222.848 59.9868 220.914C59.9868 218.594 61.917 216.661 63.8472 216.661Z" fill="#F5F5F5"/>
<path d="M63.8472 216.661V237.825H103.754V216.661V195.497H63.8472V216.661ZM103.754 216.661V237.825C94.3461 237.825 86.8359 230.248 86.8359 220.914H108H129.164C129.164 206.941 117.793 195.497 103.754 195.497V216.661ZM108 220.914H86.8359C86.8359 214.908 89.6692 210.576 92.2568 208.146C94.9923 205.577 98.9828 203.618 103.754 203.618V224.782V245.946C116.487 245.946 129.164 235.769 129.164 220.914H108ZM103.754 224.782V203.618H63.8472V224.782V245.946H103.754V224.782ZM63.8472 224.782V203.618C69.7785 203.618 73.9289 206.374 76.1716 208.621C78.4166 210.87 81.1508 215.011 81.1508 220.914H59.9868H38.8228C38.8228 228.751 42.5221 234.826 46.2148 238.525C49.9051 242.222 55.9857 245.946 63.8472 245.946V224.782ZM59.9868 220.914H81.1508C81.1508 225.659 79.2094 229.64 76.6458 232.379C74.223 234.968 69.8823 237.825 63.8472 237.825V216.661V195.497C48.9286 195.497 38.8228 208.249 38.8228 220.914H59.9868Z" fill="#F5F5F5" mask="url(#path-53-inside-13_4582_6419)"/>
</g>
<rect x="1" y="1" width="286" height="252" rx="3" stroke="#F5F5F5" stroke-width="2"/>
<g clip-path="url(#clip1_4582_6419)">
<path fill-rule="evenodd" clip-rule="evenodd" d="M319.781 81.7686L317.315 77.4581C315.849 74.8584 314.588 72.193 313.393 69.7323C307.69 57.16 303.605 45.6937 301.467 36.4927C301.146 34.7897 300.759 33.0179 300.976 31.8648C301.125 30.6429 301.746 29.9022 302.702 29.5053C303.656 29.2442 304.88 29.2581 305.824 29.9486C306.836 30.5719 307.571 31.7358 308.03 33.1685C308.423 34.5325 308.607 36.234 309.417 36.787C310.157 37.4072 311.523 36.8789 312.009 36.0007C312.562 35.1913 312.236 33.8961 311.708 32.5306C311.18 31.1651 310.381 29.6605 309.511 28.4951C308.64 27.3296 307.698 26.5032 306.687 25.7439C305.607 25.0519 304.595 24.4286 303.721 23.535C302.779 22.7086 302.045 21.5447 301.58 20.5198C301.185 19.4277 300.993 18.4058 301.274 17.5933C301.419 16.7793 301.835 16.1042 302.317 15.498C302.592 15.2292 302.934 15.0291 303.208 14.8963C310.254 10.9658 326.601 26.0383 343.383 50.6322C345.389 53.51 347.259 56.5221 349.057 59.7374L351.523 64.0479C369.91 97.0211 338.168 114.742 319.781 81.7686Z" fill="#F9F9F9" stroke="#385362" stroke-miterlimit="22.9256" stroke-linecap="round" stroke-linejoin="round"/>
<path fill-rule="evenodd" clip-rule="evenodd" d="M314.795 18.0869C317.154 19.8131 319.847 22.1549 322.671 24.906L355.086 91.4825C354.32 93.0373 353.422 94.3186 352.254 95.4609L314.795 18.0869Z" fill="#385362"/>
<path fill-rule="evenodd" clip-rule="evenodd" d="M407.421 177.39C408.478 178.063 409.055 178.928 409.632 180.466C410.208 182.004 410.881 184.215 411.362 187.291C411.746 190.271 411.939 194.02 411.746 197C411.554 199.98 410.977 202.191 410.305 203.825C409.632 205.363 408.767 206.42 407.613 207.189C406.363 208.054 404.922 208.631 403.095 208.727C401.173 208.823 398.962 208.343 396.462 207.189C393.867 206.132 391.176 204.305 388.676 202.094C386.177 199.787 383.966 197 382.62 194.693C381.371 192.386 380.986 190.655 380.89 189.214C380.89 187.676 381.179 186.618 381.755 185.465C382.428 184.407 383.293 183.35 385.024 182.1C386.85 180.851 389.349 179.505 391.656 178.448C393.867 177.39 395.886 176.717 397.712 176.333C399.635 175.948 401.269 175.852 402.999 176.044C404.633 176.237 406.267 176.717 407.421 177.39Z" fill="#F9F9F9" stroke="#385362" stroke-miterlimit="22.9256" stroke-linecap="round" stroke-linejoin="round"/>
<path fill-rule="evenodd" clip-rule="evenodd" d="M391.079 112.313C394.54 114.332 396.366 117.023 398.385 121.829C400.307 126.636 402.518 133.653 404.056 143.073C405.594 152.397 406.363 164.221 405.979 173.545C405.594 182.869 404.056 189.79 402.038 194.885C399.923 199.98 397.231 203.152 393.675 205.747C390.022 208.342 385.504 210.361 379.737 210.746C373.873 211.034 366.76 209.784 358.781 206.42C350.803 203.152 342.055 197.769 334.077 190.848C326.098 183.83 318.985 175.275 314.756 168.162C310.622 161.145 309.276 155.57 309.084 151.052C308.796 146.534 309.661 142.881 311.487 139.517C313.314 136.056 316.198 132.692 321.581 128.751C326.867 124.809 334.75 120.195 341.767 116.735C348.88 113.274 355.128 110.967 360.896 109.622C366.663 108.276 371.95 107.891 377.237 108.468C382.428 108.949 387.619 110.294 391.079 112.313Z" fill="#F9F9F9" stroke="#385362" stroke-miterlimit="22.9256" stroke-linecap="round" stroke-linejoin="round"/>
<path fill-rule="evenodd" clip-rule="evenodd" d="M402.518 135.095C402.807 136.441 403.095 137.786 403.383 139.228C402.711 138.94 401.942 138.652 401.269 138.363C397.616 137.114 393.675 136.345 389.253 136.248C384.831 136.248 379.929 136.825 374.257 137.979C368.586 139.228 362.049 141.151 357.435 142.977C352.918 144.9 350.226 146.822 348.304 148.937C346.285 151.148 345.131 153.551 344.459 156.819C343.786 160.184 343.786 164.413 345.516 170.277C347.246 176.141 350.899 183.638 355.321 190.079C359.839 196.519 365.222 201.902 370.412 205.747C373.296 207.958 376.18 209.592 378.871 210.746C375.988 210.842 372.816 210.553 369.451 209.881C369.163 209.688 368.971 209.496 368.682 209.304C363.011 205.074 357.147 199.115 352.149 192.001C347.246 184.984 343.305 176.717 341.382 170.277C339.46 163.836 339.46 159.222 340.229 155.474C340.902 151.821 342.248 149.225 344.459 146.822C346.573 144.419 349.457 142.304 354.552 140.286C359.55 138.171 366.76 136.152 373.008 134.807C379.256 133.461 384.639 132.788 389.541 132.884C394.252 132.98 398.481 133.749 402.518 135.095Z" fill="#385362" stroke="#385362" stroke-width="1.15351" stroke-miterlimit="22.9256" stroke-linecap="round" stroke-linejoin="round"/>
<path fill-rule="evenodd" clip-rule="evenodd" d="M391.079 112.313C394.54 114.332 396.366 117.023 398.385 121.829C399.25 124.04 400.211 126.636 401.076 129.808C392.041 136.633 380.698 139.805 369.259 137.69L324.849 129.52C323.791 129.327 322.638 129.039 321.581 128.751C326.867 124.809 334.75 120.195 341.767 116.735C348.88 113.274 355.128 110.967 360.896 109.622C366.663 108.276 371.95 107.891 377.237 108.468C382.428 108.949 387.619 110.294 391.079 112.313Z" fill="#385362" fill-opacity="0.15"/>
<path fill-rule="evenodd" clip-rule="evenodd" d="M308.604 62.2317C300.625 60.6937 292.743 66.9419 291.109 76.1699C289.379 85.3019 294.569 93.9532 302.548 95.3951C310.526 96.9331 318.409 90.6849 320.043 81.4568C321.773 72.3249 316.678 63.6736 308.604 62.2317Z" fill="#F9F9F9" stroke="#385362" stroke-miterlimit="22.9256" stroke-linecap="round" stroke-linejoin="round"/>
<path fill-rule="evenodd" clip-rule="evenodd" d="M296.3 68.4799C291.686 93.2803 306.681 117.119 329.559 121.349L373.873 129.52C396.751 133.749 419.148 116.927 423.762 92.0307C435.393 28.4917 307.931 4.94091 296.3 68.4799Z" fill="#F9F9F9" stroke="#385362" stroke-miterlimit="22.9256" stroke-linecap="round" stroke-linejoin="round"/>
<path fill-rule="evenodd" clip-rule="evenodd" d="M395.789 127.309C396.847 126.828 397.904 126.348 398.961 125.867C391.944 117.216 388.58 105.104 390.791 92.7036C393.675 77.1313 404.729 67.6148 418.859 63.2892C418.283 62.424 417.706 61.4628 417.129 60.5977C402.134 65.2117 390.31 75.3049 387.234 92.0307C384.735 105.2 388.292 118.081 395.789 127.309Z" fill="#385362" stroke="#385362" stroke-width="1.15351" stroke-miterlimit="22.9256" stroke-linecap="round" stroke-linejoin="round"/>
<path fill-rule="evenodd" clip-rule="evenodd" d="M404.152 47.4284C403.095 46.5633 401.845 45.7943 400.692 45.0253C397.808 46.2749 395.213 47.6207 393.098 48.7742C390.214 50.3122 386.465 51.2735 383.87 50.7928L353.494 45.1214L323.215 39.3539C321.292 38.9694 320.908 38.1043 321.388 37.0469C321.1 37.143 320.811 37.2391 320.619 37.4314L320.235 37.7198C318.216 39.45 317.928 41.2764 320.811 41.757L353.11 47.9091L385.312 53.965C388.195 54.5417 392.137 53.3882 395.213 51.8502C397.712 50.5045 400.788 48.8703 404.152 47.4284Z" fill="#385362" stroke="#385362" stroke-width="1.15351" stroke-miterlimit="22.9256" stroke-linecap="round" stroke-linejoin="round"/>
<path fill-rule="evenodd" clip-rule="evenodd" d="M416.168 80.3994C405.883 78.573 396.078 85.3018 394.155 95.5872C392.233 105.873 399.058 115.677 409.247 117.6C419.533 119.522 429.337 112.698 431.26 102.412C433.182 92.2228 426.358 82.3219 416.168 80.3994Z" fill="#F9F9F9" stroke="#385362" stroke-miterlimit="22.9256" stroke-linecap="round" stroke-linejoin="round"/>
<path fill-rule="evenodd" clip-rule="evenodd" d="M336.384 107.699L339.075 108.372C369.547 115.582 377.91 101.643 380.409 86.9361C383.774 67.711 367.144 57.9062 347.246 53.7728C346.669 53.6767 346.189 53.5805 345.708 53.4844C345.227 53.3883 344.651 53.2921 344.17 53.196C324.176 49.351 305.431 52.1386 302.163 71.3638C299.568 86.071 302.836 102.22 333.692 107.315L336.384 107.699Z" fill="white" stroke="#385362" stroke-width="1.15351" stroke-miterlimit="22.9256" stroke-linecap="round" stroke-linejoin="round"/>
<path fill-rule="evenodd" clip-rule="evenodd" d="M360.704 78.9576C356.474 78.0925 352.052 82.4181 350.226 88.9546C352.918 85.3019 356.378 83.3794 359.743 84.1484C363.299 84.8212 365.895 88.3779 367.144 93.1842C367.913 86.0709 365.222 79.8227 360.704 78.9576Z" fill="#385362" stroke="#385362" stroke-width="1.15351" stroke-miterlimit="22.9256" stroke-linecap="round" stroke-linejoin="round"/>
<path fill-rule="evenodd" clip-rule="evenodd" d="M379.833 90.0121C380.121 89.0509 380.313 87.9935 380.409 86.9361C383.774 67.711 367.144 57.9062 347.246 53.7728C346.669 53.6767 346.189 53.5805 345.708 53.4844C345.227 53.3883 344.651 53.2921 344.17 53.196C324.176 49.351 305.432 52.1386 302.163 71.3638C301.971 72.4211 301.779 73.3824 301.683 74.4398C306.008 57.3294 324.08 54.9263 343.305 58.5791C343.786 58.6752 344.266 58.7713 344.747 58.8674C345.324 58.9636 345.804 59.0597 346.285 59.1558C365.414 63.097 381.467 72.325 379.833 90.0121Z" fill="#385362" stroke="#385362" stroke-width="1.15351" stroke-miterlimit="22.9256" stroke-linecap="round" stroke-linejoin="round"/>
<path d="M352.148 99.24C349.841 100.105 347.534 100.874 343.978 100.874C340.421 100.874 335.711 100.009 332.25 98.7594C328.79 97.4136 326.579 95.6834 324.368 93.9531" stroke="#385362" stroke-width="2.30701" stroke-miterlimit="22.9256" stroke-linecap="round" stroke-linejoin="round"/>
<path fill-rule="evenodd" clip-rule="evenodd" d="M323.599 71.6522C319.274 70.787 314.852 75.1127 313.025 81.6492C315.813 78.0926 319.177 76.1701 322.542 76.8429C326.098 77.5158 328.694 81.0725 329.943 85.8787C330.712 78.7655 328.021 72.5173 323.599 71.6522Z" fill="#385362" stroke="#385362" stroke-width="1.15351" stroke-miterlimit="22.9256" stroke-linecap="round" stroke-linejoin="round"/>
<path fill-rule="evenodd" clip-rule="evenodd" d="M339.075 108.372C369.547 115.582 377.91 101.643 380.409 86.9361C383.774 67.711 367.144 57.9062 347.246 53.7728C346.669 53.6767 346.189 53.5805 345.708 53.4844C345.227 53.3883 344.651 53.2921 344.17 53.196C324.176 49.351 305.431 52.1386 302.163 71.3638C299.568 86.071 302.836 102.22 333.692 107.315L339.075 108.372Z" fill="white" stroke="#385362" stroke-miterlimit="22.9256" stroke-linecap="round" stroke-linejoin="round"/>
<path fill-rule="evenodd" clip-rule="evenodd" d="M357.532 77.804C353.206 76.9389 348.784 81.2645 346.958 87.8011C349.746 84.1483 353.11 82.2258 356.474 82.9948C360.031 83.6677 362.626 87.2243 363.876 92.0306C364.645 84.9173 361.954 78.6692 357.532 77.804Z" fill="#385362" stroke="#385362" stroke-width="1.15351" stroke-miterlimit="22.9256" stroke-linecap="round" stroke-linejoin="round"/>
<path fill-rule="evenodd" clip-rule="evenodd" d="M379.833 90.0121C380.121 89.0509 380.313 87.9935 380.409 86.9361C383.774 67.711 367.144 57.9062 347.246 53.7728C346.669 53.6767 346.189 53.5805 345.708 53.4844C345.227 53.3883 344.651 53.2921 344.17 53.196C324.176 49.351 305.432 52.1386 302.163 71.3638C301.971 72.4211 301.779 73.3824 301.683 74.4398C306.008 57.3294 324.08 54.9263 343.305 58.5791C343.786 58.6752 344.266 58.7713 344.747 58.8674C345.324 58.9636 345.804 59.0597 346.285 59.1558C365.414 63.097 381.467 72.325 379.833 90.0121Z" fill="#385362" stroke="#385362" stroke-width="1.15351" stroke-miterlimit="22.9256" stroke-linecap="round" stroke-linejoin="round"/>
<path d="M348.88 98.0866C346.573 98.9518 344.266 99.7208 340.806 99.7208C337.249 99.7208 332.443 98.8556 328.982 97.606C325.522 96.2603 323.311 94.53 321.1 92.7036" stroke="#385362" stroke-width="2" stroke-miterlimit="22.9256" stroke-linecap="round" stroke-linejoin="round"/>
<path fill-rule="evenodd" clip-rule="evenodd" d="M320.331 70.4986C316.006 69.6335 311.68 73.9591 309.854 80.4957C312.545 76.939 316.006 75.0165 319.274 75.6894C322.83 76.3623 325.522 79.9189 326.772 84.7252C327.541 77.6119 324.753 71.3637 320.331 70.4986Z" fill="#385362" stroke="#385362" stroke-width="1.15351" stroke-miterlimit="22.9256" stroke-linecap="round" stroke-linejoin="round"/>
<path fill-rule="evenodd" clip-rule="evenodd" d="M419.821 83.3793C411.746 81.9374 403.96 88.1855 402.23 97.3175C400.5 106.546 405.69 115.197 413.669 116.639C421.647 118.177 429.53 111.929 431.26 102.701C432.894 93.5686 427.799 84.9173 419.821 83.3793Z" fill="#F9F9F9" stroke="#385362" stroke-miterlimit="22.9256" stroke-linecap="round" stroke-linejoin="round"/>
<path fill-rule="evenodd" clip-rule="evenodd" d="M319.081 132.5L313.794 130.769C310.622 129.712 307.546 128.751 304.47 127.982C289.571 124.329 276.113 122.214 265.539 121.83C263.617 121.83 261.694 121.83 260.349 122.214C259.099 122.695 258.426 123.56 258.234 124.617C258.042 125.675 258.426 127.02 259.291 127.982C260.156 128.943 261.598 129.424 263.328 129.712C264.963 129.904 266.885 129.712 267.654 130.481C268.423 131.154 268.135 132.788 267.27 133.557C266.404 134.23 265.059 134.134 263.425 133.845C261.79 133.557 259.964 132.98 258.522 132.211C257.08 131.538 255.927 130.673 254.965 129.712C253.908 128.751 253.043 127.789 251.889 126.924C250.736 126.155 249.39 125.482 248.141 125.29C246.891 125.002 245.737 125.098 244.872 125.482C244.007 125.867 243.334 126.444 242.758 127.116C242.565 127.405 242.373 127.789 242.277 128.174C239.393 136.729 259.291 151.532 289.859 164.894C293.32 166.432 297.068 167.874 300.914 169.219L306.297 170.95C346.189 184.311 358.973 145.861 319.081 132.5Z" fill="#F9F9F9" stroke="#385362" stroke-miterlimit="22.9256" stroke-linecap="round" stroke-linejoin="round"/>
<path fill-rule="evenodd" clip-rule="evenodd" d="M248.141 140.189C250.64 142.496 253.716 144.996 257.369 147.495L337.057 169.219C338.595 168.066 339.844 166.816 340.806 165.278L248.141 140.189Z" fill="#385362"/>
<path fill-rule="evenodd" clip-rule="evenodd" d="M372.912 207.093C372.431 208.342 372.527 209.4 373.008 210.938C373.488 212.572 374.354 214.687 375.892 217.378C377.43 219.974 379.64 223.05 381.563 225.261C383.582 227.471 385.408 228.913 386.946 229.682C388.484 230.547 389.734 230.836 391.176 230.74C392.617 230.644 394.155 230.259 395.693 229.106C397.135 228.048 398.673 226.222 399.923 223.819C401.269 221.416 402.326 218.243 402.903 214.975C403.384 211.611 403.48 208.054 402.999 205.459C402.614 202.863 401.845 201.229 400.98 200.076C400.115 198.826 399.154 198.153 398 197.673C396.847 197.192 395.501 197 393.386 197.096C391.272 197.192 388.388 197.673 385.889 198.249C383.486 198.826 381.467 199.499 379.737 200.364C378.102 201.133 376.661 202.19 375.507 203.344C374.354 204.594 373.296 205.939 372.912 207.093Z" fill="#F9F9F9" stroke="#385362" stroke-miterlimit="22.9256" stroke-linecap="round" stroke-linejoin="round"/>
<path fill-rule="evenodd" clip-rule="evenodd" d="M389.734 230.644C390.214 230.74 390.695 230.74 391.176 230.74C391.752 230.644 392.425 230.547 393.002 230.451C391.656 228.433 390.407 226.126 389.157 223.53C386.369 217.571 384.159 210.073 383.293 201.325C383.197 200.556 383.101 199.787 383.101 199.018C382.14 199.307 381.179 199.691 380.41 200.076C380.41 200.46 380.506 200.941 380.506 201.421C381.467 210.746 383.87 218.82 386.85 225.261C387.715 227.279 388.676 229.009 389.734 230.644Z" fill="#385362" stroke="#385362" stroke-width="1.15351" stroke-miterlimit="22.9256" stroke-linecap="round" stroke-linejoin="round"/>
</g>
<defs>
<clipPath id="clip0_4582_6419">
<rect width="288" height="254" rx="4" fill="white"/>
</clipPath>
<clipPath id="clip1_4582_6419">
<rect width="192" height="222.079" fill="white" transform="translate(241 9.9209)"/>
</clipPath>
</defs>
</svg>
