<svg width="36" height="37" viewBox="0 0 36 37" fill="none" xmlns="http://www.w3.org/2000/svg">
<mask id="path-1-inside-1_525_4959" fill="white">
<path fill-rule="evenodd" clip-rule="evenodd" d="M23.8038 23.8944C26.344 22.081 28 19.1089 28 15.75C28 10.2272 23.5228 5.75 18 5.75C12.4772 5.75 8 10.2272 8 15.75C8 19.1089 9.65604 22.081 12.1962 23.8944L13.4294 31.0879C13.594 32.0481 14.4264 32.75 15.4006 32.75H20.5994C21.5736 32.75 22.406 32.0481 22.5706 31.0879L23.8038 23.8944Z"/>
</mask>
<path fill-rule="evenodd" clip-rule="evenodd" d="M23.8038 23.8944C26.344 22.081 28 19.1089 28 15.75C28 10.2272 23.5228 5.75 18 5.75C12.4772 5.75 8 10.2272 8 15.75C8 19.1089 9.65604 22.081 12.1962 23.8944L13.4294 31.0879C13.594 32.0481 14.4264 32.75 15.4006 32.75H20.5994C21.5736 32.75 22.406 32.0481 22.5706 31.0879L23.8038 23.8944Z" fill="url(#paint0_linear_525_4959)"/>
<path d="M23.8038 23.8944L23.2228 23.0805L22.8877 23.3197L22.8182 23.7254L23.8038 23.8944ZM12.1962 23.8944L13.1818 23.7254L13.1123 23.3197L12.7772 23.0805L12.1962 23.8944ZM13.4294 31.0879L14.415 30.919L13.4294 31.0879ZM22.5706 31.0879L23.5563 31.2569L22.5706 31.0879ZM27 15.75C27 18.7722 25.5113 21.4468 23.2228 23.0805L24.3848 24.7083C27.1766 22.7153 29 19.4456 29 15.75H27ZM18 6.75C22.9706 6.75 27 10.7794 27 15.75H29C29 9.67487 24.0751 4.75 18 4.75V6.75ZM9 15.75C9 10.7794 13.0294 6.75 18 6.75V4.75C11.9249 4.75 7 9.67487 7 15.75H9ZM12.7772 23.0805C10.4887 21.4468 9 18.7722 9 15.75H7C7 19.4456 8.82339 22.7153 11.6152 24.7083L12.7772 23.0805ZM14.415 30.919L13.1818 23.7254L11.2106 24.0634L12.4437 31.2569L14.415 30.919ZM15.4006 31.75C14.9135 31.75 14.4973 31.399 14.415 30.919L12.4437 31.2569C12.6906 32.6971 13.9393 33.75 15.4006 33.75V31.75ZM20.5994 31.75H15.4006V33.75H20.5994V31.75ZM21.585 30.919C21.5027 31.399 21.0865 31.75 20.5994 31.75V33.75C22.0607 33.75 23.3094 32.6971 23.5563 31.2569L21.585 30.919ZM22.8182 23.7254L21.585 30.919L23.5563 31.2569L24.7894 24.0634L22.8182 23.7254Z" fill="#444444" mask="url(#path-1-inside-1_525_4959)"/>
<rect x="12.25" y="23" width="11.5" height="0.5" fill="white" stroke="#444444" stroke-width="0.5"/>
<rect x="13.25" y="26" width="9.5" height="0.5" fill="white" stroke="#444444" stroke-width="0.5"/>
<rect x="14.25" y="29" width="7.5" height="0.5" fill="white" stroke="#444444" stroke-width="0.5"/>
<ellipse cx="14.3819" cy="12.5392" rx="1.95" ry="3.25" transform="rotate(32.1989 14.3819 12.5392)" fill="white"/>
<rect x="3.41418" y="2.75" width="5" height="1" transform="rotate(45 3.41418 2.75)" fill="white"/>
<rect y="15.75" width="5" height="1" fill="white"/>
<rect x="31" y="15.75" width="5" height="1" fill="white"/>
<rect x="2" y="27.2856" width="5" height="1" transform="rotate(-45 2 27.2856)" fill="white"/>
<rect x="29.4142" y="23.75" width="5" height="1" transform="rotate(45 29.4142 23.75)" fill="white"/>
<rect x="28" y="6.28564" width="5" height="1" transform="rotate(-45 28 6.28564)" fill="white"/>
<defs>
<linearGradient id="paint0_linear_525_4959" x1="8.00004" y1="4.69531" x2="34.1197" y2="24.799" gradientUnits="userSpaceOnUse">
<stop stop-color="#FF8E3D"/>
<stop offset="1" stop-color="#FF6F3D"/>
</linearGradient>
</defs>
</svg>
