<svg width="18" height="22" viewBox="0 0 18 22" fill="none" xmlns="http://www.w3.org/2000/svg">
<path d="M0 0V21H18V5.5L12.5 0H0Z" fill="white"/>
<rect x="2" y="2" width="8" height="1" fill="#C4C4C4"/>
<path fill-rule="evenodd" clip-rule="evenodd" d="M12 6L12 1H11V7H12H17V6L12 6Z" fill="#9E9E9E"/>
<path fill-rule="evenodd" clip-rule="evenodd" d="M0 0H12.5L17 4.5L18 5.5V20.9524V21V22H0V21V20.9524V1V0ZM17 6L12 1H1V20.9524H17V6Z" fill="#D9D9D9"/>
<rect x="2" y="4" width="8" height="1" fill="#C4C4C4"/>
<rect x="2" y="6" width="8" height="1" fill="#C4C4C4"/>
<rect x="2" y="8" width="14" height="1" fill="#C4C4C4"/>
<rect x="2" y="10" width="9" height="1" fill="#C4C4C4"/>
<rect y="12" width="18" height="10" fill="#1E7AAA"/>
<rect x="2" y="14" width="1" height="6" fill="white"/>
<rect x="4" y="15" width="1" height="4" fill="white"/>
<rect x="6" y="15" width="1" height="4" fill="white"/>
<rect x="10" y="15" width="1" height="4" fill="white"/>
<rect x="14" y="15" width="1" height="4" fill="white"/>
<rect x="8" y="15" width="1" height="4" fill="white"/>
<rect width="1" height="1" transform="matrix(1 0 0 -1 7 15)" fill="white"/>
<rect width="1" height="1" transform="matrix(1 0 0 -1 11 15)" fill="white"/>
<rect width="1" height="1" transform="matrix(1 0 0 -1 10 20)" fill="white" fill-opacity="0.5"/>
<rect width="1" height="1" transform="matrix(1 0 0 -1 10 15)" fill="white" fill-opacity="0.5"/>
<rect width="1" height="1" transform="matrix(1 0 0 -1 8 15)" fill="white" fill-opacity="0.5"/>
<rect width="1" height="1" transform="matrix(1 0 0 -1 8 20)" fill="white" fill-opacity="0.5"/>
<rect width="1" height="1" transform="matrix(1 0 0 -1 6 15)" fill="white" fill-opacity="0.5"/>
<rect width="1" height="1" transform="matrix(1 0 0 -1 6 20)" fill="white" fill-opacity="0.5"/>
<rect width="1" height="1" transform="matrix(1 0 0 -1 4 20)" fill="white" fill-opacity="0.5"/>
<rect width="1" height="1" transform="matrix(1 0 0 -1 4 15)" fill="white" fill-opacity="0.5"/>
<rect width="1" height="1" transform="matrix(1 0 0 -1 7 20)" fill="white"/>
<rect width="1" height="1" transform="matrix(1 0 0 -1 11 20)" fill="white"/>
<rect width="1" height="4" transform="matrix(-1 0 0 1 15 15)" fill="white"/>
<rect width="1" height="1" transform="matrix(1 0 0 -1 15 15)" fill="white"/>
<rect width="1" height="1" transform="matrix(1 0 0 -1 15 16)" fill="white" fill-opacity="0.5"/>
<rect width="1" height="1" transform="matrix(1 0 0 -1 15 19)" fill="white" fill-opacity="0.5"/>
<rect width="1" height="1" transform="matrix(1 0 0 -1 13 16)" fill="white" fill-opacity="0.5"/>
<rect width="1" height="1" transform="matrix(1 0 0 -1 13 19)" fill="white" fill-opacity="0.5"/>
<rect x="14" y="15" width="1" height="1" transform="rotate(180 14 15)" fill="white"/>
<rect width="1" height="1" transform="matrix(1 0 0 -1 15 20)" fill="white"/>
<rect x="14" y="20" width="1" height="1" transform="rotate(-180 14 20)" fill="white"/>
<rect x="3" y="14" width="1" height="1" fill="white"/>
<rect x="3" y="19" width="1" height="1" fill="white"/>
</svg>
