<svg width="224" height="121" viewBox="0 0 224 121" fill="none" xmlns="http://www.w3.org/2000/svg">
<path fill-rule="evenodd" clip-rule="evenodd" d="M59.5617 100.631C57.2251 100.631 56.3976 99.7803 56.0313 98.4503L56.0765 98.448V98.2585H47.0002C47.2286 103.523 51.7221 105.088 58.7828 105.088C58.9259 105.088 59.0828 105.089 59.2518 105.09C62.5455 105.109 70.4252 105.155 70.4252 99.0188C70.4252 97.0748 69.6904 93.5178 62.632 92.4253C61.7817 92.2916 61.0269 92.1757 60.357 92.0728C55.5721 91.3382 55.1145 91.2679 55.1145 90.1023C55.1145 89.3888 56.0324 89.0099 57.8208 89.0099C59.9291 89.0099 61.1206 89.9585 61.35 90.9562H69.6011C69.6011 86.2108 63.8257 84.5031 58.5081 84.5031C58.365 84.5031 58.2084 84.5022 58.0402 84.5013C54.7569 84.483 47.0002 84.4399 47.0002 90.3514C47.0002 90.3643 47.0001 90.3784 47.0001 90.3936C46.9977 91.2779 46.9843 96.094 53.923 97.0736C54.5312 97.1578 55.0956 97.235 55.6191 97.3065C61.2903 98.0814 62.1753 98.2023 62.1753 99.6329C62.1753 100.252 61.3489 100.631 59.5617 100.631ZM87.4729 84.5917V96.4043C87.4729 98.1132 87.0151 100.198 83.2564 100.198C79.4988 100.198 79.2693 98.1132 79.2693 96.4043V84.5917H72.2097V97.0195C72.2097 102.854 74.457 105.32 83.7617 105.32C93.0675 105.32 94.58 102.903 94.58 97.0195V84.5917H87.4729ZM118.095 88.482L107.275 99.201H118.095V104.088H95.7246V101.145V100.196L106.68 89.4295H95.7246V84.5917H118.095V88.0083V88.482ZM169.94 84.5917H177V104.088H169.94V84.5917ZM168.29 84.5917H158.755L151.099 91.5173V84.5917H144.041V104.088H151.099V96.4019L158.526 104.088H168.062L157.426 93.8415L168.29 84.5917ZM134.598 96.4043V84.5917H141.705V97.0195C141.705 102.903 139.458 105.32 130.153 105.32C120.847 105.32 119.335 102.854 119.335 97.0195V84.5917H126.394V96.4043C126.394 98.1132 126.623 100.198 130.381 100.198C134.14 100.198 134.598 98.1132 134.598 96.4043Z" fill="#014E9E"/>
<path d="M139.857 36.7004C136.317 39.6925 125.775 43.9306 119.419 39.6925L104.533 29.0582L102.039 30.5522L139.857 57.6451C130.362 61.4651 119.419 69.1975 111.535 76.0096L83.4536 55.317C87.5571 52.0769 97.2941 48.2548 103.731 52.5749L118.778 63.3772L120.87 61.8832L83.0508 34.5424C91.0971 31.5503 105.823 22.16 111.375 15.9258L139.857 36.7004Z" fill="#E3010F"/>
</svg>
