<svg width="367" height="360" viewBox="0 0 367 360" fill="none" xmlns="http://www.w3.org/2000/svg">
<g clip-path="url(#clip0_129_83763)">
<path fill-rule="evenodd" clip-rule="evenodd" d="M151.083 359.974L366.185 298.611L280.969 0L129.411 43.2481L83.4129 122.868L151.083 359.974Z" fill="#425E80" stroke="#253F5E" stroke-width="1.5" stroke-miterlimit="10" stroke-linecap="round" stroke-linejoin="round"/>
<path d="M127.467 43.7695L144.634 103.994L83.0337 121.54L127.467 43.7695Z" fill="#375477" stroke="#253F5E" stroke-width="1.5" stroke-miterlimit="10" stroke-linecap="round" stroke-linejoin="round"/>
<path d="M281.634 92.897L117.082 139.844" stroke="#253F5E" stroke-width="1.5" stroke-miterlimit="10" stroke-linecap="round" stroke-linejoin="round"/>
<path d="M290.122 122.679L125.57 169.626" stroke="#253F5E" stroke-width="1.5" stroke-miterlimit="10" stroke-linecap="round" stroke-linejoin="round"/>
<path d="M298.61 152.412L134.059 199.359" stroke="#253F5E" stroke-width="1.5" stroke-miterlimit="10" stroke-linecap="round" stroke-linejoin="round"/>
<path d="M307.099 182.192L142.547 229.139" stroke="#253F5E" stroke-width="1.5" stroke-miterlimit="10" stroke-linecap="round" stroke-linejoin="round"/>
<path d="M315.587 211.925L151.035 258.872" stroke="#253F5E" stroke-width="1.5" stroke-miterlimit="10" stroke-linecap="round" stroke-linejoin="round"/>
<path d="M324.075 241.707L159.524 288.654" stroke="#253F5E" stroke-width="1.5" stroke-miterlimit="10" stroke-linecap="round" stroke-linejoin="round"/>
<path d="M80.9098 276.372L80.1294 297.328L54.7121 320.886C53.7883 321.736 52.3535 321.687 51.4943 320.767L7.57832 273.377C6.72821 272.453 6.77803 271.018 7.69776 270.159L42.3186 238.071C43.2424 237.221 44.6772 237.271 45.5364 238.191L80.9098 276.372Z" fill="#425E80" stroke="#263F5E" stroke-miterlimit="10" stroke-linecap="round" stroke-linejoin="round"/>
<path d="M43.435 247.079L16.6016 271.954L31.8911 288.447L58.7246 263.572L43.435 247.079Z" fill="#425E80" stroke="#263F5E" stroke-miterlimit="10" stroke-linecap="round" stroke-linejoin="round"/>
<path d="M61.9745 267.08L35.1411 291.955L50.4307 308.448L77.2641 283.573L61.9745 267.08Z" fill="#425E80" stroke="#263F5E" stroke-miterlimit="10" stroke-linecap="round" stroke-linejoin="round"/>
<path d="M80.1343 297.314L70.0492 286.44L80.9239 276.354L80.1343 297.314Z" fill="#375477" stroke="#263F5E" stroke-miterlimit="10" stroke-linecap="round" stroke-linejoin="round"/>
<path d="M42.8013 254.398L23.9907 271.835L26.6217 274.674L45.4322 257.236L42.8013 254.398Z" fill="#425E80" stroke="#263F5E" stroke-miterlimit="10" stroke-linecap="round" stroke-linejoin="round"/>
<path d="M48.1401 260.15L29.3296 277.587L31.9606 280.425L50.7711 262.988L48.1401 260.15Z" fill="#425E80" stroke="#263F5E" stroke-miterlimit="10" stroke-linecap="round" stroke-linejoin="round"/>
<path d="M49.8642 301.182L50.5494 292.237L55.9186 291.484L57.1238 279.679L70.6655 281.905L49.8642 301.182Z" fill="#425E80" stroke="#263F5E" stroke-miterlimit="10" stroke-linecap="round" stroke-linejoin="round"/>
<path d="M50.9857 288.33C52.1458 287.813 52.6667 286.453 52.1492 285.293C51.6317 284.133 50.2718 283.612 49.1117 284.129C47.9516 284.647 47.4307 286.007 47.9482 287.167C48.4657 288.327 49.8257 288.848 50.9857 288.33Z" fill="#425E80" stroke="#263F5E" stroke-miterlimit="10" stroke-linecap="round" stroke-linejoin="round"/>
</g>
<defs>
<clipPath id="clip0_129_83763">
<rect width="366.135" height="359.974" fill="white" transform="translate(0.0498047)"/>
</clipPath>
</defs>
</svg>
