<svg width="380" height="368" viewBox="0 0 380 368" fill="none" xmlns="http://www.w3.org/2000/svg">
<g clip-path="url(#clip0_129_83762)">
<path d="M2.82599 226.949L42.4537 311.819L187.977 364.585C193.255 366.478 199.072 363.78 201.01 358.502L299.356 87.1923C301.249 81.9138 298.551 76.0969 293.273 74.1597L95.0579 2.29187C89.7795 0.399373 83.9625 3.0976 82.0253 8.37518L2.82599 226.949Z" fill="#425E80" stroke="#263F5E" stroke-miterlimit="10" stroke-linecap="round" stroke-linejoin="round"/>
<path d="M106.118 41.2939L259.756 97.0171L225.506 191.451L71.8675 135.728L106.118 41.2939Z" fill="#425E80" stroke="#263F5E" stroke-miterlimit="10" stroke-linecap="round" stroke-linejoin="round"/>
<path d="M64.5905 155.811L218.229 211.534L183.979 305.968L30.3403 250.245L64.5905 155.811Z" fill="#425E80" stroke="#263F5E" stroke-miterlimit="10" stroke-linecap="round" stroke-linejoin="round"/>
<path d="M42.41 311.773L65.0093 249.501L2.7377 226.902L42.41 311.773Z" fill="#375477" stroke="#263F5E" stroke-miterlimit="10" stroke-linecap="round" stroke-linejoin="round"/>
<path d="M121.444 70.3095L229.146 109.372L223.253 125.622L115.55 86.5594L121.444 70.3095Z" fill="#425E80" stroke="#263F5E" stroke-miterlimit="10" stroke-linecap="round" stroke-linejoin="round"/>
<path d="M109.471 103.253L217.174 142.315L211.28 158.565L103.578 119.503L109.471 103.253Z" fill="#425E80" stroke="#263F5E" stroke-miterlimit="10" stroke-linecap="round" stroke-linejoin="round"/>
<path d="M173.683 275.085L155.319 239.469L131.919 245.703L106.445 199.223L54.5943 231.916L173.683 275.085Z" fill="#425E80" stroke="#263F5E" stroke-miterlimit="10" stroke-linecap="round" stroke-linejoin="round"/>
<path d="M146.735 224.153C141.062 224.039 136.556 219.349 136.669 213.676C136.782 208.004 141.473 203.497 147.145 203.611C152.818 203.724 157.325 208.414 157.211 214.087C157.098 219.76 152.407 224.266 146.735 224.153Z" fill="#425E80" stroke="#263F5E" stroke-miterlimit="10" stroke-linecap="round" stroke-linejoin="round"/>
<path fill-rule="evenodd" clip-rule="evenodd" d="M337.221 338.425L300.458 308.87L341.493 257.837L367.394 278.664L369.805 297.904L337.221 338.425Z" fill="#425E80" stroke="#263F5E" stroke-miterlimit="10" stroke-linecap="round" stroke-linejoin="round"/>
<path d="M367.729 278.925L359.457 289.219L369.987 297.677L367.729 278.925Z" fill="#263F5E" stroke="#263F5E" stroke-miterlimit="10" stroke-linecap="round" stroke-linejoin="round"/>
<path d="M333.749 275.833L361.871 298.443" stroke="#263F5E" stroke-miterlimit="10" stroke-linecap="round" stroke-linejoin="round"/>
<path d="M329.658 280.923L357.781 303.533" stroke="#263F5E" stroke-miterlimit="10" stroke-linecap="round" stroke-linejoin="round"/>
<path d="M325.572 286.004L353.694 308.614" stroke="#263F5E" stroke-miterlimit="10" stroke-linecap="round" stroke-linejoin="round"/>
<path d="M321.481 291.094L349.604 313.704" stroke="#263F5E" stroke-miterlimit="10" stroke-linecap="round" stroke-linejoin="round"/>
<path d="M317.395 296.175L345.517 318.785" stroke="#263F5E" stroke-miterlimit="10" stroke-linecap="round" stroke-linejoin="round"/>
<path d="M313.304 301.265L341.427 323.875" stroke="#263F5E" stroke-miterlimit="10" stroke-linecap="round" stroke-linejoin="round"/>
</g>
<defs>
<clipPath id="clip0_129_83762">
<rect width="379.9" height="367.247" fill="white" transform="translate(0.0498047)"/>
</clipPath>
</defs>
</svg>
