<svg width="170" height="51" viewBox="0 0 170 51" fill="none" xmlns="http://www.w3.org/2000/svg">
<rect x="0.5" y="0.5" width="169" height="50" rx="7.5" fill="black"/>
<path d="M56.1388 26H58.7428L60.2968 22.682H66.5338L68.0878 26H70.7128L63.4258 10.922L56.1388 26ZM63.4258 16.046L65.4838 20.456H61.3468L63.4258 16.046ZM71.9701 26H74.2801V19.385C74.7001 18.125 75.6031 17.537 76.7791 17.537C78.3331 17.537 79.1731 18.776 79.1731 19.889V26H81.4831V19.847C81.4831 17.138 79.8241 15.332 77.2201 15.332C76.1281 15.332 75.0151 15.668 74.2801 16.487V15.5H71.9701V26ZM91.3742 26H93.6842V11.09H91.3742V16.277C90.6392 15.689 89.6732 15.332 88.5602 15.332C85.4522 15.332 83.1632 17.684 83.1632 20.75C83.1632 23.816 85.4522 26.168 88.5602 26.168C89.6732 26.168 90.6392 25.832 91.3742 25.244V26ZM88.5812 23.963C86.7962 23.963 85.5362 22.598 85.5362 20.75C85.5362 18.902 86.7962 17.537 88.5812 17.537C89.7572 17.537 90.8072 18.104 91.3742 18.965V22.535C90.8072 23.396 89.7572 23.963 88.5812 23.963ZM96.2111 26H98.5211V18.944C99.0041 18.041 99.8441 17.684 100.831 17.684C101.314 17.684 101.692 17.726 101.986 17.831V15.416C101.755 15.374 101.503 15.353 101.23 15.353C100.075 15.353 99.1721 15.752 98.5211 16.529V15.5H96.2111V26ZM108.003 23.963C106.197 23.963 104.937 22.598 104.937 20.75C104.937 18.902 106.197 17.537 108.003 17.537C109.767 17.537 111.069 18.902 111.069 20.75C111.069 22.598 109.767 23.963 108.003 23.963ZM108.003 26.168C111.111 26.168 113.442 23.816 113.442 20.75C113.442 17.684 111.111 15.332 108.003 15.332C104.874 15.332 102.564 17.684 102.564 20.75C102.564 23.816 104.874 26.168 108.003 26.168ZM117.635 13.463C117.887 13.169 118.013 12.833 118.013 12.455C118.013 11.615 117.32 10.922 116.48 10.922C115.64 10.922 114.947 11.615 114.947 12.455C114.947 12.833 115.073 13.169 115.325 13.463H117.635ZM115.325 26H117.635V15.5H115.325V26ZM127.736 26H130.046V11.09H127.736V16.277C127.001 15.689 126.035 15.332 124.922 15.332C121.814 15.332 119.525 17.684 119.525 20.75C119.525 23.816 121.814 26.168 124.922 26.168C126.035 26.168 127.001 25.832 127.736 25.244V26ZM124.943 23.963C123.158 23.963 121.898 22.598 121.898 20.75C121.898 18.902 123.158 17.537 124.943 17.537C126.119 17.537 127.169 18.104 127.736 18.965V22.535C127.169 23.396 126.119 23.963 124.943 23.963Z" fill="white"/>
<path d="M55.8639 29.7046H66.3605V30.8023H61.3708V32.3547C62.0859 32.6857 62.8055 33.0507 63.5297 33.4496C64.2538 33.848 64.9862 34.2757 65.7271 34.7327L65.0808 35.7411C64.3183 35.2548 63.6332 34.8262 63.0255 34.4552C62.4176 34.0843 61.866 33.7761 61.3708 33.5306V40.0136H60.2587V30.8023H55.8639L55.8639 29.7046Z" fill="white"/>
<path d="M68.9746 30.0342H71.1719V29.1481H72.258V30.0342H74.294V31.0426H72.258V31.9012H74.8242C74.8071 31.4795 74.7899 31.0389 74.7727 30.5796C74.7549 30.1208 74.7462 29.6395 74.7466 29.1357H75.8258C75.8258 29.6482 75.8333 30.1318 75.8484 30.5865C75.8635 31.0412 75.8798 31.4795 75.8972 31.9012H78.754V32.9233H75.9487C75.983 33.3973 76.0272 33.83 76.0813 34.2216C76.1349 34.6145 76.1836 34.9648 76.2269 35.2752C76.26 35.3782 76.286 35.4833 76.3045 35.5898C76.3217 35.6901 76.3389 35.7932 76.356 35.8962C76.5384 35.5027 76.698 35.099 76.8341 34.6873C76.9763 34.2614 77.1057 33.8048 77.2222 33.3176L78.2114 33.7696C77.9145 35.0397 77.4378 36.261 76.7957 37.3964C76.83 37.4816 76.8678 37.5694 76.909 37.6574C76.9495 37.7454 76.9914 37.8305 77.0347 37.913C77.3061 38.4515 77.5215 38.7208 77.6811 38.7208C77.789 38.7208 77.914 38.1543 78.0561 37.0214L79.0061 37.5256C78.7348 39.0986 78.3341 39.8849 77.804 39.8844C77.4029 39.8844 76.9482 39.5309 76.4399 38.8238C76.3359 38.6645 76.2474 38.4957 76.1754 38.3196C75.6262 38.9992 74.9579 39.5732 74.2033 40.0135L73.5899 39.1288C74.44 38.6541 75.1593 37.9764 75.6836 37.156C75.606 36.9019 75.5274 36.6404 75.448 36.3716C75.3683 36.1023 75.3003 35.8211 75.244 35.528C75.057 34.6701 74.9339 33.7995 74.8758 32.9233H68.3605V31.9012H71.172V31.0426H68.9746L68.9746 30.0342ZM74.2939 37.4734V38.4434C74.0096 38.4777 73.722 38.5098 73.4312 38.5395C73.1406 38.5697 72.846 38.6027 72.5491 38.6371V39.9752H71.4631V38.7731C71.0537 38.8074 70.6377 38.8395 70.215 38.8692C69.7932 38.8995 69.3639 38.9393 68.9291 38.986L68.7869 37.9392C69.265 37.9213 69.7239 37.8966 70.1635 37.865C70.6031 37.832 71.0363 37.8027 71.4631 37.7771V36.9046H69.3043L69.0776 36.0185C69.3796 35.63 69.6417 35.2121 69.86 34.7711H68.7225V33.782H70.2927C70.3484 33.66 70.3939 33.5336 70.4287 33.4042C70.4631 33.2778 70.5061 33.1431 70.5579 33.0003L71.6178 33.1885C71.5752 33.3081 71.5408 33.4152 71.5148 33.5086C71.4879 33.6033 71.451 33.695 71.4049 33.782H74.3455V34.7711H71.0105C70.8945 35.0047 70.777 35.2204 70.6582 35.4182C70.5393 35.6161 70.4283 35.808 70.325 35.9939H71.4632V35.2107H72.5492V35.9938H74.2294V36.9046H72.5492V37.6602C72.846 37.6355 73.1406 37.6053 73.4313 37.5737C73.7218 37.5407 74.0093 37.5073 74.2939 37.4734ZM76.1877 29.7938L77.0086 29.2388C77.5037 29.7891 77.9636 30.37 78.3858 30.978L77.5519 31.5715C77.3836 31.305 77.1865 31.022 76.9605 30.7225C76.7338 30.423 76.4762 30.1134 76.1877 29.7938L76.1877 29.7938Z" fill="white"/>
<path d="M36.3638 29.7585C36.1001 29.7585 35.8424 29.676 35.6232 29.5214C35.404 29.3669 35.2331 29.1472 35.1322 28.8902C35.0313 28.6332 35.0049 28.3504 35.0563 28.0776C35.1078 27.8047 35.2347 27.5541 35.4212 27.3574C35.6076 27.1607 35.8451 27.0267 36.1037 26.9724C36.3623 26.9182 36.6303 26.946 36.8739 27.0525C37.1175 27.1589 37.3257 27.3392 37.4722 27.5705C37.6186 27.8018 37.6968 28.0738 37.6968 28.352C37.6964 28.7249 37.5559 29.0824 37.306 29.3461C37.0561 29.6098 36.7172 29.7581 36.3638 29.7585ZM21.6362 29.7585C21.3725 29.7588 21.1146 29.6765 20.8952 29.5222C20.6758 29.3678 20.5048 29.1482 20.4037 28.8912C20.3025 28.6342 20.276 28.3514 20.3272 28.0785C20.3785 27.8055 20.5054 27.5548 20.6917 27.3579C20.8781 27.1611 21.1156 27.0269 21.3743 26.9726C21.6329 26.9182 21.901 26.9459 22.1446 27.0523C22.3883 27.1588 22.5966 27.339 22.7431 27.5704C22.8897 27.8017 22.9679 28.0737 22.9679 28.352C22.9675 28.7246 22.8271 29.0819 22.5775 29.3456C22.3279 29.6092 21.9894 29.7577 21.6362 29.7585ZM36.8416 21.2914L39.5049 16.4236C39.5634 16.2906 39.5728 16.1393 39.5311 15.9994C39.4893 15.8595 39.3995 15.7411 39.2793 15.6674C39.1591 15.5938 39.0171 15.5702 38.8813 15.6013C38.7454 15.6325 38.6255 15.7161 38.5451 15.8357L35.8484 20.7681C33.6945 19.7489 31.3606 19.222 29 19.222C26.6394 19.222 24.3055 19.7489 22.1516 20.7681L19.4549 15.8401C19.4222 15.766 19.3753 15.6999 19.3171 15.646C19.2589 15.5921 19.1907 15.5516 19.1169 15.5271C19.043 15.5026 18.9651 15.4946 18.8881 15.5036C18.8112 15.5126 18.7368 15.5384 18.6699 15.5795C18.6029 15.6205 18.5448 15.6758 18.4992 15.7418C18.4536 15.8079 18.4216 15.8832 18.4051 15.9631C18.3887 16.0429 18.3882 16.1255 18.4037 16.2056C18.4192 16.2856 18.4503 16.3614 18.4951 16.428L21.1584 21.2958C18.858 22.6171 16.9069 24.5239 15.4821 26.8429C14.0574 29.1618 13.2042 31.8196 13 34.5748H45C44.7965 31.8188 43.9436 29.1602 42.5188 26.8404C41.0941 24.5206 39.1425 22.6131 36.8416 21.2914Z" fill="#3DDC84"/>
<rect x="0.5" y="0.5" width="169" height="50" rx="7.5" stroke="#CCCCCC"/>
</svg>
