<svg width="128" height="32" viewBox="0 0 128 32" fill="none" xmlns="http://www.w3.org/2000/svg">
<path d="M19.6723 15.2752C19.6859 14.2169 19.967 13.1792 20.4894 12.2588C21.0119 11.3383 21.7586 10.565 22.6602 10.0107C22.0875 9.19264 21.3318 8.51944 20.4534 8.04454C19.5749 7.56963 18.5979 7.3061 17.5997 7.27487C15.4706 7.05139 13.4065 8.54892 12.3215 8.54892C11.2155 8.54892 9.54503 7.29706 7.74618 7.33407C6.58264 7.37167 5.44868 7.71002 4.45478 8.31616C3.46088 8.9223 2.64094 9.77556 2.07485 10.7928C-0.377314 15.0384 1.45178 21.2779 3.80075 24.7097C4.97599 26.3901 6.34951 28.2672 8.14673 28.2006C9.90542 28.1277 10.5623 27.0792 12.6851 27.0792C14.7883 27.0792 15.4046 28.2006 17.2383 28.1583C19.1254 28.1277 20.3144 26.4704 21.4484 24.774C22.2928 23.5767 22.9426 22.2533 23.3737 20.853C22.2773 20.3893 21.3417 19.6131 20.6834 18.6212C20.0252 17.6293 19.6736 16.4656 19.6723 15.2752Z" fill="white"/>
<path d="M16.2088 5.01798C17.2378 3.78275 17.7447 2.19508 17.6219 0.592133C16.0499 0.757242 14.5978 1.50856 13.555 2.69639C13.0451 3.27668 12.6546 3.95177 12.4057 4.68307C12.1569 5.41437 12.0547 6.18754 12.1048 6.95838C12.8911 6.96648 13.669 6.79606 14.3799 6.45994C15.0907 6.12383 15.7161 5.6308 16.2088 5.01798Z" fill="white"/>
<path d="M41.9034 23.9467H35.9018L34.4605 28.2024H31.9185L37.6031 12.4574H40.2442L45.9288 28.2024H43.3434L41.9034 23.9467ZM36.5233 21.9829H41.2806L38.9354 15.0762H38.8698L36.5233 21.9829Z" fill="white"/>
<path d="M58.2056 22.4633C58.2056 26.0306 56.2963 28.3225 53.415 28.3225C52.6851 28.3607 51.9592 28.1925 51.3205 27.8373C50.6817 27.4821 50.1559 26.9542 49.8032 26.3141H49.7486V31.9999H47.3923V16.7229H49.6732V18.6323H49.7165C50.0854 17.9952 50.6201 17.47 51.2638 17.1126C51.9074 16.7553 52.6359 16.5791 53.3717 16.6028C56.2851 16.6028 58.2056 18.9059 58.2056 22.4633ZM55.7837 22.4633C55.7837 20.1392 54.5826 18.6112 52.7501 18.6112C50.9497 18.6112 49.7388 20.1713 49.7388 22.4633C49.7388 24.7763 50.9497 26.3253 52.7501 26.3253C54.5826 26.3253 55.7837 24.8084 55.7837 22.4633Z" fill="white"/>
<path d="M70.8403 22.4633C70.8403 26.0305 68.931 28.3225 66.0497 28.3225C65.3198 28.3606 64.5939 28.1925 63.9551 27.8373C63.3163 27.4821 62.7905 26.9542 62.4378 26.3141H62.3833V31.9999H60.027V16.7229H62.3077V18.6322H62.3511C62.72 17.9952 63.2547 17.47 63.8984 17.1126C64.542 16.7553 65.2705 16.5791 66.0063 16.6028C68.9198 16.6028 70.8403 18.9059 70.8403 22.4633ZM68.4183 22.4633C68.4183 20.1392 67.2173 18.6112 65.3847 18.6112C63.5844 18.6112 62.3734 20.1713 62.3734 22.4633C62.3734 24.7762 63.5844 26.3252 65.3847 26.3252C67.2173 26.3252 68.4184 24.8084 68.4184 22.4633H68.4183Z" fill="white"/>
<path d="M79.1908 23.8155C79.3653 25.3769 80.8822 26.4021 82.9549 26.4021C84.941 26.4021 86.3699 25.3768 86.3699 23.969C86.3699 22.7469 85.5081 22.0151 83.4675 21.5136L81.427 21.022C78.5358 20.3237 77.1935 18.9716 77.1935 16.7775C77.1935 14.0608 79.561 12.1949 82.9227 12.1949C86.2498 12.1949 88.5306 14.0608 88.6073 16.7775H86.2287C86.0863 15.2062 84.7874 14.2577 82.8893 14.2577C80.9911 14.2577 79.6922 15.2173 79.6922 16.614C79.6922 17.7272 80.5218 18.3822 82.5512 18.8836L84.2859 19.3096C87.5164 20.0735 88.8587 21.3712 88.8587 23.6742C88.8587 26.6199 86.5122 28.4649 82.7803 28.4649C79.2885 28.4649 76.931 26.6633 76.7787 23.8154L79.1908 23.8155Z" fill="white"/>
<path d="M93.944 14.0063V16.723H96.127V18.589H93.944V24.9174C93.944 25.9006 94.3811 26.3587 95.3407 26.3587C95.5999 26.3542 95.8586 26.336 96.1158 26.3042V28.159C95.6844 28.2396 95.2459 28.2762 94.8071 28.268C92.4829 28.268 91.5766 27.3951 91.5766 25.1688V18.589H89.9075V16.723H91.5765V14.0063H93.944Z" fill="white"/>
<path d="M97.3912 22.4633C97.3912 18.8515 99.5185 16.5818 102.836 16.5818C106.164 16.5818 108.281 18.8514 108.281 22.4633C108.281 26.0851 106.175 28.3448 102.836 28.3448C99.4974 28.3448 97.3912 26.0851 97.3912 22.4633ZM105.88 22.4633C105.88 19.9857 104.745 18.5233 102.836 18.5233C100.926 18.5233 99.7921 19.9968 99.7921 22.4633C99.7921 24.9509 100.926 26.4021 102.836 26.4021C104.745 26.4021 105.88 24.9509 105.88 22.4633H105.88Z" fill="white"/>
<path d="M110.224 16.7231H112.471V18.677H112.526C112.678 18.0668 113.035 17.5275 113.538 17.1498C114.041 16.7721 114.659 16.579 115.287 16.603C115.559 16.6021 115.829 16.6316 116.094 16.6909V18.8949C115.752 18.7902 115.394 18.7421 115.036 18.7525C114.693 18.7387 114.352 18.799 114.035 18.9295C113.719 19.0599 113.434 19.2574 113.2 19.5083C112.967 19.7592 112.791 20.0576 112.684 20.3831C112.577 20.7085 112.542 21.0532 112.58 21.3936V28.2025H110.224L110.224 16.7231Z" fill="white"/>
<path d="M126.958 24.8308C126.641 26.9147 124.612 28.3448 122.015 28.3448C118.676 28.3448 116.603 26.1074 116.603 22.5178C116.603 18.9171 118.687 16.5818 121.916 16.5818C125.092 16.5818 127.09 18.7636 127.09 22.2442V23.0515H118.982V23.1939C118.944 23.6163 118.997 24.0419 119.137 24.4424C119.277 24.8429 119.5 25.209 119.792 25.5165C120.084 25.8241 120.438 26.066 120.831 26.2261C121.224 26.3862 121.646 26.461 122.07 26.4454C122.627 26.4976 123.186 26.3686 123.663 26.0777C124.141 25.7868 124.512 25.3495 124.721 24.8308L126.958 24.8308ZM118.993 21.4047H124.732C124.753 21.0248 124.696 20.6446 124.563 20.2881C124.43 19.9315 124.225 19.6063 123.961 19.3327C123.696 19.0591 123.378 18.8432 123.026 18.6983C122.675 18.5535 122.297 18.483 121.916 18.4912C121.533 18.4889 121.152 18.5626 120.797 18.7081C120.442 18.8536 120.119 19.0679 119.848 19.3388C119.576 19.6097 119.36 19.9317 119.214 20.2863C119.067 20.6408 118.992 21.0209 118.993 21.4047V21.4047Z" fill="white"/>
<path d="M33.4952 8.17095V0.60556H36.5363C37.9577 0.60556 38.8121 1.32867 38.8121 2.49259C38.8124 2.87494 38.6806 3.24564 38.4389 3.54193C38.1972 3.83821 37.8606 4.04185 37.486 4.11836V4.20751C37.9508 4.22949 38.3887 4.43176 38.7068 4.77137C39.0249 5.11098 39.1982 5.56119 39.1898 6.02643C39.1898 7.35812 38.2202 8.17102 36.6044 8.17102L33.4952 8.17095ZM34.6703 3.80875H36.0645C37.1034 3.80875 37.6432 3.42614 37.6432 2.70798C37.6432 2.01026 37.1343 1.60164 36.2639 1.60164H34.6703V3.80875ZM36.3691 7.17482C37.4278 7.17482 37.9887 6.74454 37.9887 5.9428C37.9887 5.15097 37.4067 4.73679 36.301 4.73679H34.6703V7.17482H36.3691Z" fill="white"/>
<path d="M40.397 6.55637C40.397 5.52866 41.1622 4.93618 42.5205 4.85198L44.067 4.76283V4.27003C44.067 3.66701 43.6683 3.32651 42.8982 3.32651C42.2692 3.32651 41.8333 3.55744 41.7082 3.96109H40.6174C40.7325 2.98043 41.655 2.35143 42.9502 2.35143C44.3815 2.35143 45.1888 3.064 45.1888 4.27003V8.171H44.1042V7.36864H44.015C43.8341 7.65645 43.58 7.89108 43.2787 8.04857C42.9774 8.20606 42.6397 8.28077 42.3001 8.26507C42.0604 8.29 41.8182 8.26443 41.589 8.19C41.3598 8.11558 41.1487 7.99395 40.9694 7.83296C40.7901 7.67197 40.6465 7.4752 40.5479 7.25532C40.4493 7.03544 40.3979 6.79734 40.397 6.55637ZM44.067 6.06851V5.59119L42.6728 5.68034C41.8865 5.73296 41.5299 6.00041 41.5299 6.50374C41.5299 7.01759 41.9757 7.31662 42.5886 7.31662C42.7682 7.3348 42.9497 7.31667 43.1221 7.2633C43.2945 7.20993 43.4545 7.12242 43.5924 7.00597C43.7304 6.88953 43.8435 6.74652 43.925 6.58547C44.0065 6.42442 44.0548 6.24861 44.067 6.06851Z" fill="white"/>
<path d="M46.806 0.773436C46.7973 0.627497 46.8326 0.482312 46.9074 0.356685C46.9822 0.231059 47.0929 0.13078 47.2254 0.068837C47.3578 0.00689427 47.5058 -0.0138588 47.6501 0.00926761C47.7945 0.0323941 47.9286 0.098334 48.035 0.198545C48.1415 0.298757 48.2154 0.428622 48.2472 0.571321C48.279 0.71402 48.2672 0.862977 48.2133 0.998897C48.1595 1.13482 48.0661 1.25144 47.9452 1.33365C47.8243 1.41587 47.6815 1.45989 47.5353 1.46002C47.4418 1.46478 47.3484 1.4506 47.2606 1.41833C47.1728 1.38606 47.0924 1.33636 47.0242 1.27223C46.9561 1.20809 46.9017 1.13085 46.8642 1.04513C46.8266 0.959412 46.8069 0.866996 46.806 0.773436ZM46.9731 2.46173H48.0962V8.17111H46.9731L46.9731 2.46173Z" fill="white"/>
<path d="M51.9631 6.14715L50.715 8.171H49.478L51.3712 5.32932L49.4619 2.46162H50.7781L52.0052 4.47495H52.0943L53.3103 2.46162H54.5633L52.6813 5.28226L54.5844 8.171H53.2904L52.0473 6.14715H51.9631Z" fill="white"/>
<path d="M55.5787 6.55637C55.5787 5.52866 56.344 4.93618 57.7023 4.85198L59.2488 4.76283V4.27003C59.2488 3.66701 58.8501 3.32651 58.0799 3.32651C57.4509 3.32651 57.0151 3.55744 56.89 3.96109H55.7991C55.9143 2.98043 56.8368 2.35143 58.1319 2.35143C59.5633 2.35143 60.3706 3.064 60.3706 4.27003V8.171H59.2859V7.36864H59.1968C59.0158 7.65645 58.7617 7.89108 58.4604 8.04857C58.1592 8.20606 57.8215 8.28077 57.4819 8.26507C57.2422 8.29 56.9999 8.26443 56.7707 8.19C56.5416 8.11558 56.3305 7.99395 56.1512 7.83296C55.9719 7.67197 55.8283 7.4752 55.7297 7.25532C55.6311 7.03544 55.5797 6.79734 55.5787 6.55637ZM59.2488 6.06851V5.59119L57.8546 5.68034C57.0683 5.73296 56.7117 6.00041 56.7117 6.50374C56.7117 7.01759 57.1574 7.31662 57.7704 7.31662C57.95 7.3348 58.1314 7.31667 58.3039 7.2633C58.4763 7.20993 58.6363 7.12242 58.7742 7.00597C58.9121 6.88953 59.0252 6.74652 59.1067 6.58547C59.1883 6.42442 59.2366 6.24861 59.2488 6.06851Z" fill="white"/>
<path d="M62.135 2.46172H63.2197V3.33714H63.3039C63.4253 3.03325 63.6399 2.77565 63.9169 2.60135C64.1939 2.42705 64.5189 2.345 64.8455 2.367C65.0142 2.36473 65.1828 2.3805 65.3482 2.41405V3.52602C65.1414 3.48183 64.9306 3.45901 64.7192 3.45792C64.5333 3.44123 64.346 3.4636 64.1694 3.5236C63.9927 3.5836 63.8305 3.67989 63.6932 3.8063C63.556 3.9327 63.4467 4.08642 63.3724 4.25758C63.2981 4.42874 63.2604 4.61355 63.2618 4.80013V8.17115H62.135L62.135 2.46172Z" fill="white"/>
<path d="M69.6906 2.46168H70.7759V3.36867H70.8601C71.0029 3.04291 71.2439 2.76984 71.5493 2.5875C71.8547 2.40517 72.2093 2.32266 72.5639 2.35148C72.8417 2.33059 73.1206 2.37248 73.38 2.47403C73.6395 2.57559 73.8727 2.73421 74.0625 2.93815C74.2523 3.14209 74.3937 3.38611 74.4764 3.65215C74.5591 3.91818 74.5808 4.19941 74.5401 4.475V8.171H73.4133V4.75795C73.4133 3.84044 73.0146 3.38415 72.1813 3.38415C71.9927 3.37537 71.8044 3.40747 71.6293 3.47826C71.4543 3.54904 71.2966 3.65685 71.1671 3.79427C71.0376 3.93169 70.9394 4.09549 70.8791 4.27443C70.8189 4.45338 70.798 4.64324 70.818 4.83099V8.17106H69.6906L69.6906 2.46168Z" fill="white"/>
<path d="M75.9578 6.55637C75.9578 5.52866 76.723 4.93618 78.0813 4.85198L79.6278 4.76283V4.27003C79.6278 3.66701 79.2291 3.32651 78.459 3.32651C77.8299 3.32651 77.3941 3.55744 77.269 3.96109H76.1782C76.2933 2.98043 77.2158 2.35143 78.5109 2.35143C79.9423 2.35143 80.7496 3.064 80.7496 4.27003V8.171H79.665V7.36864H79.5758C79.3949 7.65645 79.1408 7.89108 78.8395 8.04857C78.5382 8.20606 78.2005 8.28077 77.8609 8.26507C77.6212 8.29 77.379 8.26443 77.1498 8.19C76.9206 8.11558 76.7095 7.99395 76.5302 7.83296C76.3509 7.67197 76.2073 7.4752 76.1087 7.25532C76.0101 7.03544 75.9587 6.79734 75.9578 6.55637ZM79.6278 6.06851V5.59119L78.2336 5.68034C77.4473 5.73296 77.0907 6.00041 77.0907 6.50374C77.0907 7.01759 77.5365 7.31662 78.1494 7.31662C78.329 7.3348 78.5105 7.31667 78.6829 7.2633C78.8553 7.20994 79.0153 7.12243 79.1532 7.00598C79.2912 6.88953 79.4043 6.74653 79.4858 6.58547C79.5673 6.42442 79.6156 6.24862 79.6278 6.06851H79.6278Z" fill="white"/>
</svg>
