<svg width="170" height="64" viewBox="0 0 170 64" fill="none" xmlns="http://www.w3.org/2000/svg">
<path d="M40.6723 31.275C40.6859 30.2167 40.967 29.179 41.4894 28.2586C42.0119 27.3381 42.7586 26.5648 43.6602 26.0105C43.0875 25.1925 42.3318 24.5193 41.4534 24.0444C40.5749 23.5695 39.5979 23.3059 38.5997 23.2747C36.4706 23.0512 34.4065 24.5487 33.3215 24.5487C32.2155 24.5487 30.545 23.2969 28.7462 23.3339C27.5826 23.3715 26.4487 23.7098 25.4548 24.316C24.4609 24.9221 23.6409 25.7754 23.0749 26.7926C20.6227 31.0382 22.4518 37.2777 24.8008 40.7095C25.976 42.3899 27.3495 44.267 29.1467 44.2005C30.9054 44.1275 31.5623 43.079 33.6851 43.079C35.7883 43.079 36.4046 44.2005 38.2383 44.1581C40.1254 44.1275 41.3144 42.4702 42.4484 40.7739C43.2928 39.5765 43.9426 38.2531 44.3737 36.8528C43.2773 36.3891 42.3417 35.6129 41.6834 34.621C41.0252 33.6291 40.6736 32.4654 40.6723 31.275Z" fill="white"/>
<path d="M37.2088 21.0179C38.2378 19.7827 38.7447 18.195 38.6219 16.592C37.0499 16.7572 35.5978 17.5085 34.555 18.6963C34.0451 19.2766 33.6546 19.9517 33.4057 20.683C33.1569 21.4143 33.0547 22.1875 33.1048 22.9583C33.8911 22.9664 34.669 22.796 35.3799 22.4599C36.0907 22.1237 36.7161 21.6307 37.2088 21.0179Z" fill="white"/>
<path d="M62.9033 39.9466H56.9017L55.4604 44.2024H52.9184L58.603 28.4573H61.2441L66.9287 44.2024H64.3433L62.9033 39.9466ZM57.5233 37.9828H62.2805L59.9354 31.0761H59.8697L57.5233 37.9828Z" fill="white"/>
<path d="M79.2055 38.4632C79.2055 42.0304 77.2962 44.3224 74.4149 44.3224C73.685 44.3605 72.9591 44.1924 72.3204 43.8372C71.6816 43.482 71.1557 42.9541 70.803 42.314H70.7485V47.9998H68.3922V32.7228H70.673V34.6321H70.7164C71.0853 33.995 71.62 33.4699 72.2636 33.1125C72.9073 32.7552 73.6358 32.579 74.3716 32.6027C77.285 32.6027 79.2055 34.9058 79.2055 38.4632ZM76.7836 38.4632C76.7836 36.139 75.5825 34.6111 73.75 34.6111C71.9496 34.6111 70.7386 36.1712 70.7386 38.4632C70.7386 40.7761 71.9496 42.3251 73.75 42.3251C75.5825 42.3251 76.7836 40.8083 76.7836 38.4632Z" fill="white"/>
<path d="M91.8402 38.4631C91.8402 42.0304 89.9309 44.3223 87.0496 44.3223C86.3197 44.3605 85.5938 44.1924 84.9551 43.8372C84.3163 43.482 83.7904 42.9541 83.4378 42.3139H83.3832V47.9998H81.0269V32.7228H83.3077V34.6321H83.351C83.7199 33.995 84.2547 33.4699 84.8983 33.1125C85.5419 32.7552 86.2704 32.579 87.0062 32.6027C89.9198 32.6027 91.8402 34.9058 91.8402 38.4631ZM89.4183 38.4631C89.4183 36.139 88.2172 34.6111 86.3847 34.6111C84.5843 34.6111 83.3734 36.1712 83.3734 38.4631C83.3734 40.7761 84.5843 42.3251 86.3847 42.3251C88.2172 42.3251 89.4183 40.8083 89.4183 38.4631H89.4183Z" fill="white"/>
<path d="M100.191 39.8155C100.365 41.3769 101.882 42.402 103.955 42.402C105.941 42.402 107.37 41.3768 107.37 39.969C107.37 38.7468 106.508 38.0151 104.467 37.5136L102.427 37.022C99.5357 36.3237 98.1935 34.9715 98.1935 32.7774C98.1935 30.0608 100.561 28.1948 103.923 28.1948C107.25 28.1948 109.53 30.0608 109.607 32.7774H107.229C107.086 31.2061 105.787 30.2577 103.889 30.2577C101.991 30.2577 100.692 31.2173 100.692 32.614C100.692 33.7271 101.522 34.3822 103.551 34.8836L105.286 35.3095C108.516 36.0735 109.859 37.3712 109.859 39.6742C109.859 42.6199 107.512 44.4648 103.78 44.4648C100.288 44.4648 97.9309 42.6632 97.7786 39.8154L100.191 39.8155Z" fill="white"/>
<path d="M114.944 30.0063V32.723H117.127V34.589H114.944V40.9174C114.944 41.9006 115.381 42.3587 116.341 42.3587C116.6 42.3542 116.859 42.336 117.116 42.3042V44.159C116.684 44.2396 116.246 44.2762 115.807 44.268C113.483 44.268 112.577 43.3951 112.577 41.1688V34.589H110.907V32.723H112.576V30.0063H114.944Z" fill="white"/>
<path d="M118.391 38.4633C118.391 34.8514 120.518 32.5818 123.836 32.5818C127.164 32.5818 129.281 34.8514 129.281 38.4633C129.281 42.085 127.175 44.3448 123.836 44.3448C120.497 44.3448 118.391 42.085 118.391 38.4633ZM126.88 38.4633C126.88 35.9856 125.745 34.5233 123.836 34.5233C121.926 34.5233 120.792 35.9968 120.792 38.4633C120.792 40.9508 121.926 42.402 123.836 42.402C125.745 42.402 126.88 40.9508 126.88 38.4633H126.88Z" fill="white"/>
<path d="M131.224 32.7232H133.471V34.6771H133.526C133.678 34.0668 134.035 33.5275 134.538 33.1498C135.041 32.7722 135.659 32.5791 136.287 32.6031C136.559 32.6021 136.829 32.6316 137.094 32.691V34.895C136.752 34.7902 136.394 34.7421 136.036 34.7526C135.693 34.7387 135.352 34.7991 135.035 34.9295C134.718 35.06 134.434 35.2574 134.2 35.5084C133.967 35.7593 133.791 36.0577 133.684 36.3831C133.577 36.7086 133.541 37.0533 133.58 37.3937V44.2026H131.224L131.224 32.7232Z" fill="white"/>
<path d="M147.958 40.8307C147.641 42.9146 145.612 44.3448 143.015 44.3448C139.676 44.3448 137.603 42.1073 137.603 38.5178C137.603 34.9171 139.687 32.5818 142.916 32.5818C146.092 32.5818 148.09 34.7635 148.09 38.2441V39.0514H139.982V39.1938C139.944 39.6163 139.997 40.0419 140.137 40.4423C140.277 40.8428 140.5 41.209 140.792 41.5165C141.084 41.824 141.438 42.0659 141.831 42.226C142.224 42.3862 142.646 42.4609 143.07 42.4453C143.627 42.4975 144.185 42.3686 144.663 42.0776C145.141 41.7867 145.512 41.3494 145.721 40.8307L147.958 40.8307ZM139.993 37.4046H145.732C145.753 37.0247 145.696 36.6446 145.563 36.2881C145.43 35.9315 145.225 35.6062 144.961 35.3327C144.696 35.0591 144.378 34.8431 144.026 34.6983C143.675 34.5535 143.297 34.4829 142.916 34.4911C142.533 34.4888 142.152 34.5625 141.797 34.708C141.442 34.8535 141.119 35.0679 140.848 35.3387C140.576 35.6096 140.36 35.9316 140.214 36.2862C140.067 36.6408 139.992 37.0209 139.993 37.4046V37.4046Z" fill="white"/>
<path d="M54.4952 24.1709V16.6055H57.5363C58.9577 16.6055 59.8121 17.3286 59.8121 18.4925C59.8124 18.8748 59.6806 19.2456 59.4389 19.5418C59.1972 19.8381 58.8606 20.0418 58.486 20.1183V20.2074C58.9508 20.2294 59.3887 20.4317 59.7068 20.7713C60.0249 21.1109 60.1982 21.5611 60.1898 22.0263C60.1898 23.358 59.2202 24.1709 57.6044 24.1709L54.4952 24.1709ZM55.6703 19.8087H57.0645C58.1034 19.8087 58.6432 19.426 58.6432 18.7079C58.6432 18.0102 58.1343 17.6016 57.2639 17.6016H55.6703V19.8087ZM57.3691 23.1747C58.4278 23.1747 58.9887 22.7444 58.9887 21.9427C58.9887 21.1509 58.4067 20.7367 57.301 20.7367H55.6703V23.1747H57.3691Z" fill="white"/>
<path d="M61.397 22.5563C61.397 21.5285 62.1623 20.9361 63.5206 20.8519L65.0671 20.7627V20.2699C65.0671 19.6669 64.6684 19.3264 63.8982 19.3264C63.2692 19.3264 62.8334 19.5573 62.7083 19.961H61.6174C61.7326 18.9803 62.6551 18.3513 63.9502 18.3513C65.3816 18.3513 66.1889 19.0639 66.1889 20.2699V24.1709H65.1042V23.3685H65.0151C64.8341 23.6563 64.58 23.891 64.2787 24.0485C63.9775 24.206 63.6398 24.2807 63.3002 24.265C63.0605 24.2899 62.8182 24.2643 62.589 24.1899C62.3599 24.1155 62.1488 23.9938 61.9695 23.8329C61.7902 23.6719 61.6466 23.4751 61.548 23.2552C61.4494 23.0353 61.398 22.7972 61.397 22.5563ZM65.0671 22.0684V21.5911L63.6729 21.6802C62.8866 21.7329 62.53 22.0003 62.53 22.5036C62.53 23.0175 62.9757 23.3165 63.5887 23.3165C63.7683 23.3347 63.9497 23.3166 64.1222 23.2632C64.2946 23.2098 64.4546 23.1223 64.5925 23.0059C64.7304 22.8894 64.8435 22.7464 64.925 22.5854C65.0066 22.4243 65.0549 22.2485 65.0671 22.0684Z" fill="white"/>
<path d="M67.806 16.7734C67.7973 16.6274 67.8327 16.4822 67.9075 16.3566C67.9822 16.231 68.093 16.1307 68.2254 16.0688C68.3579 16.0068 68.5058 15.9861 68.6502 16.0092C68.7945 16.0323 68.9286 16.0983 69.0351 16.1985C69.1415 16.2987 69.2154 16.4285 69.2472 16.5712C69.279 16.7139 69.2672 16.8629 69.2134 16.9988C69.1595 17.1347 69.0661 17.2514 68.9452 17.3336C68.8243 17.4158 68.6816 17.4598 68.5354 17.4599C68.4419 17.4647 68.3485 17.4505 68.2606 17.4183C68.1728 17.386 68.0924 17.3363 68.0243 17.2722C67.9562 17.208 67.9017 17.1308 67.8642 17.0451C67.8267 16.9593 67.8069 16.8669 67.806 16.7734ZM67.9732 18.4617H69.0963V24.171H67.9732L67.9732 18.4617Z" fill="white"/>
<path d="M72.9631 22.1472L71.7151 24.171H70.4781L72.3713 21.3294L70.462 18.4617H71.7782L73.0053 20.475H73.0944L74.3103 18.4617H75.5634L73.6813 21.2823L75.5845 24.171H74.2905L73.0473 22.1472H72.9631Z" fill="white"/>
<path d="M76.5787 22.5563C76.5787 21.5285 77.3439 20.9361 78.7022 20.8519L80.2487 20.7627V20.2699C80.2487 19.6669 79.85 19.3264 79.0799 19.3264C78.4509 19.3264 78.015 19.5573 77.8899 19.961H76.7991C76.9142 18.9803 77.8367 18.3513 79.1319 18.3513C80.5632 18.3513 81.3705 19.0639 81.3705 20.2699V24.1709H80.2859V23.3685H80.1967C80.0158 23.6563 79.7617 23.891 79.4604 24.0485C79.1591 24.206 78.8214 24.2807 78.4818 24.265C78.2421 24.2899 77.9999 24.2643 77.7707 24.1899C77.5415 24.1155 77.3304 23.9938 77.1511 23.8329C76.9718 23.6719 76.8282 23.4751 76.7296 23.2552C76.631 23.0353 76.5796 22.7972 76.5787 22.5563ZM80.2487 22.0684V21.5911L78.8545 21.6802C78.0682 21.7329 77.7116 22.0003 77.7116 22.5036C77.7116 23.0175 78.1574 23.3165 78.7703 23.3165C78.9499 23.3347 79.1314 23.3166 79.3038 23.2632C79.4763 23.2098 79.6362 23.1223 79.7741 23.0059C79.9121 22.8894 80.0252 22.7464 80.1067 22.5854C80.1882 22.4243 80.2365 22.2485 80.2487 22.0684Z" fill="white"/>
<path d="M83.135 18.4618H84.2197V19.3372H84.3039C84.4253 19.0333 84.6399 18.7757 84.9169 18.6014C85.1939 18.4271 85.5189 18.345 85.8455 18.367C86.0142 18.3648 86.1828 18.3805 86.3482 18.4141V19.5261C86.1414 19.4819 85.9306 19.459 85.7192 19.4579C85.5333 19.4413 85.346 19.4636 85.1694 19.5236C84.9927 19.5836 84.8305 19.6799 84.6932 19.8063C84.556 19.9327 84.4467 20.0865 84.3724 20.2576C84.2981 20.4288 84.2604 20.6136 84.2618 20.8002V24.1712H83.135L83.135 18.4618Z" fill="white"/>
<path d="M90.6906 18.4615H91.7759V19.3685H91.8601C92.0029 19.0428 92.2439 18.7697 92.5493 18.5873C92.8547 18.405 93.2093 18.3225 93.5639 18.3513C93.8417 18.3304 94.1206 18.3723 94.38 18.4739C94.6395 18.5754 94.8727 18.7341 95.0625 18.938C95.2523 19.1419 95.3937 19.386 95.4764 19.652C95.5591 19.918 95.5808 20.1993 95.5401 20.4748V24.1708H94.4133V20.7578C94.4133 19.8403 94.0146 19.384 93.1813 19.384C92.9927 19.3752 92.8044 19.4073 92.6293 19.4781C92.4543 19.5489 92.2966 19.6567 92.1671 19.7941C92.0376 19.9315 91.9394 20.0953 91.8791 20.2743C91.8189 20.4532 91.798 20.6431 91.818 20.8308V24.1709H90.6906L90.6906 18.4615Z" fill="white"/>
<path d="M96.9578 22.5563C96.9578 21.5285 97.723 20.9361 99.0813 20.8519L100.628 20.7627V20.2699C100.628 19.6669 100.229 19.3264 99.459 19.3264C98.8299 19.3264 98.3941 19.5573 98.269 19.961H97.1782C97.2933 18.9803 98.2158 18.3513 99.5109 18.3513C100.942 18.3513 101.75 19.0639 101.75 20.2699V24.1709H100.665V23.3685H100.576C100.395 23.6563 100.141 23.891 99.8395 24.0485C99.5382 24.206 99.2005 24.2807 98.8609 24.265C98.6212 24.2899 98.379 24.2643 98.1498 24.1899C97.9206 24.1155 97.7095 23.9938 97.5302 23.8329C97.3509 23.6719 97.2073 23.4751 97.1087 23.2552C97.0101 23.0353 96.9587 22.7972 96.9578 22.5563ZM100.628 22.0684V21.5911L99.2336 21.6802C98.4473 21.7329 98.0907 22.0003 98.0907 22.5036C98.0907 23.0175 98.5365 23.3165 99.1494 23.3165C99.329 23.3347 99.5105 23.3166 99.6829 23.2632C99.8553 23.2098 100.015 23.1223 100.153 23.0059C100.291 22.8894 100.404 22.7464 100.486 22.5854C100.567 22.4243 100.616 22.2485 100.628 22.0684H100.628Z" fill="white"/>
</svg>
