<svg width="56" height="55" viewBox="0 0 56 55" fill="none" xmlns="http://www.w3.org/2000/svg">
<g clip-path="url(#clip0_6906_242994)">
<path d="M17.8068 29.5031C15.4745 22.5575 13.5669 16.7461 13.5677 16.5889C13.5685 16.4255 14.1715 16.2528 14.974 16.1861C16.6242 16.0488 17.3985 15.4955 16.8568 14.8407C16.5593 14.481 16.0187 14.4532 12.3865 14.6105C10.1139 14.7089 8.25456 14.708 8.25456 14.6084C8.25456 14.1719 9.87847 12.16 11.587 10.4796C15.9609 6.17785 21.7974 3.80276 27.9946 3.80276C30.7986 3.80276 32.8946 4.15758 35.8028 5.12455C38.1599 5.9083 41.84 7.98682 43.2488 9.33005L43.951 9.99962L42.8374 10.3254C41.4211 10.7397 40.267 11.9203 39.9177 13.312C39.5537 14.762 39.9992 16.2226 41.6624 19.033C44.6265 24.0414 44.6449 26.0265 41.8142 35.382C40.7625 38.8579 39.8449 41.7592 39.775 41.8293C39.7052 41.8994 39.5906 41.7975 39.5203 41.603C39.133 40.5302 31.0315 16.4158 31.0315 16.3357C31.0315 16.2831 31.5155 16.2287 32.1071 16.2147C33.8562 16.1736 34.448 15.9208 34.448 15.2148V14.5934L27.5586 14.5808C22.1517 14.571 20.6421 14.6389 20.5436 14.8964C20.2862 15.5693 20.7185 15.9642 21.8799 16.117C22.5287 16.2024 23.2197 16.2936 23.4154 16.3197C23.6329 16.3486 24.4951 18.3362 25.6329 21.4315L27.4944 26.496L24.9005 34.3169C23.4738 38.6185 22.2481 42.1364 22.1769 42.1347C22.1056 42.1328 20.139 36.4487 17.8068 29.5031ZM39.6361 47.9117C39.6361 47.8754 41.3621 42.8767 43.4717 36.8035C48.2106 23.1607 48.529 22.0147 48.5449 18.5406C48.5556 16.2256 48.6012 15.9506 48.9056 16.3682C49.5007 17.1847 50.7076 20.5896 51.1288 22.6403C51.5888 24.8801 51.6572 29.3951 51.2648 31.6179C50.3928 36.5567 47.7469 41.4607 44.1533 44.7986C42.2241 46.5905 39.6361 48.3741 39.6361 47.9117ZM15.3407 47.5174C9.736 43.9096 5.87307 38.1243 4.72439 31.6179C4.30684 29.2528 4.40654 25.0302 4.94131 22.4305C5.39863 20.2074 6.35719 17.5526 6.61071 17.8069C6.71901 17.9156 17.8715 48.4747 17.8715 48.6628C17.8715 48.9723 16.9601 48.5599 15.3407 47.5174ZM24.8404 50.9875C22.2222 50.6509 21.0932 50.2996 21.2566 49.8724C21.3322 49.6748 22.8912 45.1401 24.721 39.7954C26.5508 34.4506 28.1418 29.9062 28.2565 29.6968C28.4196 29.3991 28.5286 29.4823 28.7558 30.0776C29.8839 33.0345 35.84 49.5547 35.84 49.7269C35.84 50.2522 30.0491 51.3227 27.6216 51.2462C27.0612 51.2285 25.8096 51.1121 24.8404 50.9875ZM32.4214 53.1758C45.6132 50.8679 55.3031 38.1165 53.832 25.0006C53.0943 18.4228 50.7269 13.5643 45.9757 8.87693C41 3.96813 34.9432 1.47481 27.9946 1.47481C23.1946 1.47481 18.7122 2.72291 14.5343 5.22276C11.9339 6.7787 7.98631 10.6067 6.35661 13.1526C0.232871 22.7191 0.631 34.2037 7.39959 43.2389C13.1617 50.9304 22.9765 54.8282 32.4214 53.1758ZM23.0989 54.6978C17.4989 53.6364 12.6197 51.0688 8.63123 47.0845C-1.99853 36.4658 -2.23624 19.3464 8.09454 8.43296C12.042 4.26283 17.1623 1.43645 22.6675 0.388744C25.391 -0.129581 30.5982 -0.129581 33.3217 0.388744C43.3212 2.29179 51.5811 9.90803 54.4179 19.841C58.1734 32.9904 51.9028 46.75 39.4966 52.5826C36.0522 54.202 33.0745 54.8661 28.7538 54.9786C26.2081 55.0449 24.4761 54.9589 23.0989 54.6978Z" fill="#333333"/>
</g>
<defs>
<clipPath id="clip0_6906_242994">
<rect width="55" height="55" fill="white" transform="translate(0.5)"/>
</clipPath>
</defs>
</svg>
