<svg width="664" height="64" viewBox="0 0 664 64" fill="none" xmlns="http://www.w3.org/2000/svg">
<path d="M14 11.3428C14 9.98759 15.5 8 17.3636 8H43.8954L54 18.3435V52.6572C54 54.5093 52.5 56 50.6364 56H17.3636C15.5 56 14 54.5093 14 52.6572V11.3428Z" fill="white"/>
<path fill-rule="evenodd" clip-rule="evenodd" d="M50.5646 54H17.31C16.5115 54 15.9472 53.3872 15.9472 52.7064L16.0207 11.2949L16.0208 11.297C16.0208 11.297 16.0286 11.2102 16.1031 11.0471C16.1814 10.8758 16.3063 10.6827 16.4708 10.505C16.8221 10.1254 17.1663 10 17.3836 10H43.0679L43.0688 10.0009V17.5C43.0688 19 44.4181 19 44.4181 19H51.9866L52.0011 19.0147L51.9275 52.7064C51.9275 53.3872 51.3632 54 50.5646 54ZM17.3836 8H43.9009L54 18.1912L53.9264 52.7064C53.9264 54.5312 52.4273 56 50.5646 56H17.31C15.4474 56 13.9482 54.5312 13.9482 52.7064L14.0218 11.2936C14.0218 9.95833 15.521 8 17.3836 8Z" fill="url(#paint0_linear)"/>
<path d="M26.0006 23H41.0065V26H26.0006V23Z" fill="url(#paint1_linear)"/>
<path d="M26 29.9328H46L45.0083 30.949H26.0006L26 29.9328Z" fill="url(#paint2_linear)"/>
<path d="M42.9993 32.9815H26V33.9978H42.007L42.9993 32.9815Z" fill="url(#paint3_linear)"/>
<path d="M26 35.9838H38.9975L38.0052 37H26L26 35.9838Z" fill="url(#paint4_linear)"/>
<path d="M47.257 48.3433L58.775 34.1996C59.1178 33.7786 59.0629 33.1625 58.6511 32.8083L55.6703 30.244C55.24 29.8739 54.5878 29.9315 54.2297 30.3713L42.7555 44.4612C42.6391 44.6041 42.5644 44.7762 42.5396 44.9586L42.0095 48.8609C41.9075 49.6117 42.6457 50.1999 43.3587 49.9358L46.8258 48.6516C46.9946 48.5891 47.1435 48.4826 47.257 48.3433Z" fill="url(#paint5_linear)"/>
<path fill-rule="evenodd" clip-rule="evenodd" d="M0 32H23V39.4375V42.625V49H22V42.625H0V32Z" fill="url(#paint6_linear)"/>
<path fill-rule="evenodd" clip-rule="evenodd" d="M0 13H23V20V23V29H22V23H0V13Z" fill="url(#paint7_linear)"/>
<path fill-rule="evenodd" clip-rule="evenodd" d="M20 18H5V17H20V18Z" fill="white"/>
<path fill-rule="evenodd" clip-rule="evenodd" d="M20 37H5V36H20V37Z" fill="white"/>
<path fill-rule="evenodd" clip-rule="evenodd" d="M126.024 12H177.976C179.094 12 180 12.9426 180 14.1053V49.8947C180 51.0574 179.094 52 177.976 52H126.024C124.906 52 124 51.0574 124 49.8947V14.1053C124 12.9426 124.906 12 126.024 12Z" fill="url(#paint8_linear)"/>
<path fill-rule="evenodd" clip-rule="evenodd" d="M133.62 38L162.38 38.0926C163.275 38.0926 164 38.825 164 39.7284V42.3642C164 43.2676 163.275 44 162.38 44H133.62C132.725 44 132 43.2676 132 42.3642V39.7284C132 38.825 132.725 38 133.62 38ZM133.882 40V42H162.118V40H133.882Z" fill="white"/>
<path d="M149.519 33.3672H143.676V32.6584C144.19 32.6251 144.615 32.5585 144.952 32.4587C145.294 32.3588 145.466 32.2357 145.466 32.0893C145.466 32.0294 145.459 31.9561 145.446 31.8696C145.433 31.7831 145.413 31.7065 145.387 31.64L144.22 28.465H139.307C139.122 28.9309 138.971 29.337 138.852 29.6831C138.74 30.0292 138.638 30.3487 138.546 30.6416C138.46 30.9278 138.401 31.1607 138.368 31.3405C138.335 31.5202 138.318 31.6666 138.318 31.7798C138.318 32.046 138.526 32.2523 138.941 32.3988C139.356 32.5452 139.824 32.6317 140.345 32.6584V33.3672H135.066V32.6584C135.237 32.6451 135.451 32.6084 135.708 32.5485C135.965 32.482 136.176 32.3954 136.341 32.289C136.605 32.1092 136.809 31.9229 136.954 31.7298C137.099 31.5302 137.241 31.2573 137.379 30.9111C138.084 29.1339 138.862 27.1371 139.712 24.9206C140.562 22.7041 141.32 20.7306 141.986 19H142.777L147.453 31.2206C147.552 31.4802 147.664 31.6899 147.789 31.8496C147.914 32.0094 148.089 32.1658 148.313 32.3189C148.464 32.4121 148.662 32.492 148.906 32.5585C149.15 32.6184 149.354 32.6517 149.519 32.6584V33.3672ZM143.864 27.5764L141.739 22.0851L139.653 27.5764H143.864Z" fill="white"/>
<path d="M155.935 32.0493H155.866C155.721 32.1691 155.546 32.3222 155.342 32.5086C155.144 32.6883 154.91 32.8614 154.64 33.0278C154.383 33.1942 154.103 33.3373 153.799 33.4571C153.496 33.5836 153.167 33.6468 152.811 33.6468C151.855 33.6468 151.104 33.3007 150.557 32.6084C150.016 31.9162 149.746 30.971 149.746 29.7729C149.746 28.9476 149.898 28.1455 150.201 27.3667C150.504 26.588 150.923 25.8891 151.457 25.2701C151.964 24.6777 152.567 24.2018 153.266 23.8423C153.964 23.4762 154.683 23.2932 155.421 23.2932C155.889 23.2932 156.334 23.3564 156.755 23.4829C157.184 23.6094 157.52 23.7525 157.764 23.9122L159.573 23.443L159.691 23.5927L158.189 30.0325C158.136 30.2389 158.08 30.4918 158.021 30.7913C157.968 31.0842 157.942 31.3005 157.942 31.4403C157.942 31.8197 158.021 32.076 158.179 32.2091C158.337 32.3422 158.604 32.4088 158.98 32.4088C159.105 32.4088 159.283 32.3888 159.513 32.3489C159.744 32.3089 159.922 32.2657 160.047 32.2191L159.899 32.8581C159.306 33.0977 158.864 33.2707 158.574 33.3772C158.284 33.4837 157.932 33.537 157.517 33.537C157.042 33.537 156.666 33.3972 156.39 33.1176C156.113 32.8381 155.961 32.482 155.935 32.0493ZM157.348 25.7393C157.348 25.5197 157.325 25.31 157.279 25.1103C157.233 24.9106 157.138 24.7243 156.993 24.5512C156.861 24.3848 156.68 24.2517 156.449 24.1518C156.218 24.052 155.928 24.0021 155.579 24.0021C155.098 24.0021 154.63 24.1618 154.175 24.4813C153.72 24.8008 153.312 25.2301 152.949 25.7693C152.607 26.2751 152.326 26.8875 152.109 27.6064C151.891 28.3252 151.783 29.0541 151.783 29.7929C151.783 30.1989 151.806 30.5584 151.852 30.8712C151.898 31.184 151.987 31.4702 152.119 31.7298C152.244 31.9828 152.425 32.1791 152.663 32.3189C152.9 32.4587 153.2 32.5286 153.562 32.5286C153.931 32.5286 154.317 32.4254 154.719 32.2191C155.127 32.0061 155.586 31.6367 156.093 31.1108L157.348 25.7393Z" fill="white"/>
<path fill-rule="evenodd" clip-rule="evenodd" d="M171 37V21L172 21V37H171Z" fill="white"/>
<path fill-rule="evenodd" clip-rule="evenodd" d="M174 21H169V20H174V21Z" fill="white"/>
<path fill-rule="evenodd" clip-rule="evenodd" d="M174 38H169V37H174V38Z" fill="white"/>
<path fill-rule="evenodd" clip-rule="evenodd" d="M275 8H251.9C249.5 8 248 9.5 248 12V52.8C248 54.6 249.4 56 251.1 56H282.1C283.9 56 285.2 54.6 285.2 52.8V18.3L275 8Z" fill="url(#paint9_linear)"/>
<path fill-rule="evenodd" clip-rule="evenodd" d="M263 8C261.7 8 260.7 9 260.7 10.3V53.6C260.7 54.9 261.7 55.9 263 55.9H293.7C295 55.9 296 54.9 296 53.6V19.4C296 18.8 295.8 18.2 295.3 17.8L286.3 8.7C285.9 8.2 285.3 8 284.7 8H263V8Z" fill="url(#paint10_linear)"/>
<path d="M251.4 10C250 10 250 11.5 250 11.5V52.5C250 52.5 250 54 251.5 54H254.9C253.9 54 253.9 53 253.9 53V11C253.9 11 253.9 10 254.9 10H251.4Z" fill="white"/>
<path d="M257.3 10C255.9 10 255.9 11.5 255.9 11.5V52.5C255.9 52.5 255.9 54 257.4 54H260.8V10H257.3Z" fill="white"/>
<path d="M284.3 10L294.1 20H286.2C285.1 20 284.2 19.1 284.2 18V10H284.3Z" fill="white"/>
<path d="M286.8 40.2001L280.8 34.3L285.9 32.9L270 26.3L276.7 42.1L278 37.1L283.9 43L286.8 40.2001Z" fill="white"/>
<path fill-rule="evenodd" clip-rule="evenodd" d="M395.55 8H372C369.5 8 368 9.5 368 12V52.8466C368 54.5938 369.425 56 371.195 56H402.805C404.575 56 406 54.5938 406 52.8466V18.2771L395.55 8Z" fill="url(#paint11_linear)"/>
<path fill-rule="evenodd" clip-rule="evenodd" d="M383.344 8C382.049 8 381 9.0421 381 10.3276V53.6724C381 54.9579 382.049 56 383.344 56H414.594C415.888 56 416.938 54.9579 416.938 53.6724V19.4383C416.938 18.8209 416.691 18.2289 416.251 17.7924L407.077 8.68173C406.638 8.24523 406.041 8 405.42 8H383.344Z" fill="url(#paint12_linear)"/>
<path d="M371.5 10C370 10 370 11.5 370 11.5V52.5C370 52.5 370 54 371.5 54H375C374 54 374 53 374 53V11C374 11 374 10 375 10H371.5Z" fill="white"/>
<path d="M377.5 10C376 10 376 11.5 376 11.5V52.5C376 52.5 376 54 377.5 54H381V10H377.5Z" fill="white"/>
<path d="M405 10L415 20H407C405.895 20 405 19.1046 405 18V10Z" fill="white"/>
<path d="M387 20H398V21H387V20Z" fill="white"/>
<path d="M387 14H401V16H387V14Z" fill="white"/>
<path d="M387 23H408V24H387V23Z" fill="white"/>
<path d="M387 29H408V30H387V29Z" fill="white"/>
<path d="M387 32H408V33H387V32Z" fill="white"/>
<path d="M387 35H408V36H387V35Z" fill="white"/>
<path d="M387 29H388V35H387V29Z" fill="white"/>
<path d="M407 29H408V35H407V29Z" fill="white"/>
<path d="M402 29H403V35H402V29Z" fill="white"/>
<path d="M392 29H393V35H392V29Z" fill="white"/>
<path d="M397 29H398V35H397V29Z" fill="white"/>
<path d="M412 51H384C388.265 51 388.997 46 392 46C395 46 395 49 398 49C401 49 400.5 41 405 41C409 41 410.5 49.5 412 51Z" fill="white"/>
<path fill-rule="evenodd" clip-rule="evenodd" d="M614.364 6C612.5 6 611 7.96803 611 9.30986V49.9228C611 51.7566 612.5 53.2327 614.364 53.2327H621.11L626.5 38.5L651 38.8952V16.2457L640.77 6H614.364Z" fill="white"/>
<path d="M620 15.178H635V18H620V15.178Z" fill="url(#paint13_linear)"/>
<path d="M621.999 22H642.999L643 23H622L621.999 22Z" fill="url(#paint14_linear)"/>
<path d="M642.999 25.5H622.999V26.5H642.999V25.5Z" fill="url(#paint15_linear)"/>
<path d="M621.999 29H638.999V30H621.999L621.999 29Z" fill="url(#paint16_linear)"/>
<path fill-rule="evenodd" clip-rule="evenodd" d="M614.364 53.2327H621.11L626.5 38.5L651 38.8952V16.2457L640.77 6H614.364C612.5 6 611 7.96803 611 9.30986V49.9228C611 51.7566 612.5 53.2327 614.364 53.2327ZM649 36.8626L625.11 36.4773L619.712 51.2327H614.364C613.574 51.2327 613 50.6218 613 49.9228L613 9.30974C613.003 9.29388 613.015 9.20603 613.084 9.05466C613.163 8.8811 613.289 8.68614 613.454 8.50706C613.806 8.12425 614.15 8 614.364 8H639.94L640 8.05967V15.5C640 17 641.5 17 641.5 17H648.927L649 17.0732V36.8626Z" fill="url(#paint17_linear)"/>
<path d="M615.376 26.5434L602.654 13.1524C602.288 12.7665 602.288 12.1609 602.654 11.7749L605.346 8.94114C605.741 8.52614 606.402 8.52613 606.796 8.94114L619.457 22.2683C619.579 22.3963 619.664 22.5542 619.705 22.7259L620.615 26.5554C620.789 27.2901 620.118 27.9457 619.387 27.7536L615.846 26.8217C615.667 26.7744 615.504 26.6781 615.376 26.5434Z" fill="url(#paint18_linear)"/>
<circle cx="630" cy="47" r="11" fill="white" stroke="white" stroke-width="2"/>
<path fill-rule="evenodd" clip-rule="evenodd" d="M630.391 37.0073C630.285 37.0033 630.179 37.0009 630.073 37.0002C624.597 36.9597 620.097 41.0997 620.003 46.4999C619.956 49.2265 620.384 51.4348 622.563 53.6396C624.229 55.6247 626.957 56.9999 630.004 56.9999C632.035 56.9999 633.926 56.394 635.504 55.3529C635.219 55.1648 634.944 54.9625 634.68 54.747C633.315 55.5725 631.715 56.0476 630.004 56.0476C627.613 56.0476 625.684 55.2652 624.21 53.9419L627.027 52.4296C627.418 52.2194 627.662 51.8158 627.662 51.3769V50.1738C627.662 50.1738 626.786 49.143 626.452 47.7108C626.175 47.5344 625.99 47.2296 625.99 46.8824V45.5657C625.99 45.276 626.121 45.0172 626.324 44.836V42.9326C626.324 42.9326 625.927 39.9705 630.003 39.9705C631.596 39.9705 632.506 40.4225 633.023 40.9734C633.716 40.0577 634.562 39.265 635.524 38.6337C634.045 37.6681 632.287 37.0788 630.391 37.0073Z" fill="url(#paint19_linear)"/>
<circle cx="641" cy="47" r="11" fill="white" stroke="white" stroke-width="2"/>
<path fill-rule="evenodd" clip-rule="evenodd" d="M641.387 37.0073C641.282 37.0033 641.176 37.0009 641.07 37.0002C635.594 36.9597 631.094 41.0997 631 46.4999C630.953 49.2265 631.381 51.4348 633.559 53.6396C635.226 55.6247 637.954 56.9999 641 56.9999C643.032 56.9999 644.922 56.394 646.5 55.3529C646.215 55.1648 645.94 54.9625 645.676 54.747C644.312 55.5725 642.712 56.0476 641 56.0476C638.609 56.0476 636.68 55.2652 635.206 53.9419L638.024 52.4296C638.415 52.2194 638.659 51.8158 638.659 51.3769V50.1738C638.659 50.1738 637.783 49.143 637.449 47.7108C637.172 47.5344 636.986 47.2296 636.986 46.8824V45.5657C636.986 45.276 637.117 45.0172 637.321 44.836V42.9326C637.321 42.9326 636.923 39.9705 641 39.9705C642.592 39.9705 643.502 40.4225 644.02 40.9734C644.712 40.0577 645.559 39.265 646.521 38.6337C645.041 37.6681 643.284 37.0788 641.387 37.0073Z" fill="url(#paint20_linear)"/>
<circle cx="652" cy="47" r="11" fill="white" stroke="white" stroke-width="2"/>
<path d="M652.171 37.0015C646.649 36.9086 642.096 41.2383 642.001 46.6719C641.948 49.7528 643.343 52.5218 645.565 54.3632C645.711 54.2384 645.866 54.124 646.04 54.0312L649.023 52.4297C649.415 52.2195 649.658 51.8159 649.658 51.377V50.1739C649.658 50.1739 648.783 49.1431 648.449 47.7109C648.172 47.5345 647.986 47.2296 647.986 46.8824V45.5657C647.986 45.2761 648.117 45.0173 648.32 44.8361V42.9326C648.32 42.9326 647.923 39.9706 652 39.9706C656.076 39.9706 655.679 42.9326 655.679 42.9326V44.8361C655.883 45.0173 656.013 45.2761 656.013 45.5657V46.8824C656.013 47.3251 655.711 47.6975 655.302 47.8219C655.073 48.5204 654.744 49.1861 654.308 49.7914C654.198 49.944 654.096 50.0732 654.006 50.1739V51.4074C654.006 51.8615 654.267 52.2771 654.68 52.4798L657.875 54.0516C658.066 54.1459 658.24 54.2651 658.399 54.3977C660.554 52.6294 661.946 49.9856 661.998 47.0083C662.093 41.5747 657.693 37.0943 652.171 37.0015Z" fill="url(#paint21_linear)"/>
<path fill-rule="evenodd" clip-rule="evenodd" d="M652 56.0476C656.997 56.0476 661.048 51.9969 661.048 47C661.048 42.0031 656.497 38 651.5 38C646.503 38 642.952 42.0031 642.952 47C642.952 51.9969 647.003 56.0476 652 56.0476ZM652 57C657.523 57 662 52.5228 662 47C662 41.4772 657.523 37 652 37C646.477 37 642 41.4772 642 47C642 52.5228 646.477 57 652 57Z" fill="url(#paint22_linear)"/>
<path fill-rule="evenodd" clip-rule="evenodd" d="M486.028 7H537.972C539.131 7 540 7.86897 540 9.02759V43.5931C540 44.7517 539.131 45.6207 537.972 45.6207H486.028C484.869 45.6207 484 44.7517 484 43.5931V9.02759C484 7.86897 484.869 7 486.028 7Z" fill="url(#paint23_linear)"/>
<path d="M509.007 13.0828H490.179C489.407 13.0828 488.828 13.6621 488.828 14.4345V38.1862C488.828 38.9586 489.407 39.5379 490.179 39.5379H509.007C509.779 39.5379 510.359 38.9586 510.359 38.1862V14.4345C510.359 13.6621 509.779 13.0828 509.007 13.0828Z" fill="white"/>
<path d="M491.531 38.0896H507.655C508.621 38.0896 509.103 37.0275 508.428 36.3517L497.324 24.1862C496.841 23.7034 496.069 23.7034 495.683 24.2827L490.662 30.9448C490.566 31.1379 490.469 31.331 490.469 31.6206V37.1241C490.469 37.6068 490.952 38.0896 491.531 38.0896Z" fill="url(#paint24_linear)"/>
<path d="M515.186 19.8414H525.517V20.8069H515.186V19.8414Z" fill="white"/>
<path d="M515.186 13.8552H528.414V15.8828H515.186V13.8552Z" fill="white"/>
<path d="M515.186 22.8345H534.979V23.8H515.186V22.8345Z" fill="white"/>
<path d="M515.186 25.9242H534.979V26.8897H515.186V25.9242Z" fill="white"/>
<path d="M515.186 28.9172H534.979V29.8828H515.186V28.9172Z" fill="white"/>
<path d="M515.186 31.9104H534.979V32.8759H515.186V31.9104Z" fill="white"/>
<path d="M515.186 34.9034H534.979V35.869H515.186V34.9034Z" fill="white"/>
<path d="M515.186 37.8966H534.979V38.8621H515.186V37.8966Z" fill="white"/>
<path d="M504.565 22.5449C506.378 22.5449 507.848 21.0751 507.848 19.2621C507.848 17.4491 506.378 15.9794 504.565 15.9794C502.752 15.9794 501.283 17.4491 501.283 19.2621C501.283 21.0751 502.752 22.5449 504.565 22.5449Z" fill="url(#paint25_linear)"/>
<path d="M522.91 56.0483C522.524 56.0483 522.138 55.9517 521.848 55.6621L516.248 50.0621H507.559L502.152 55.469C501.572 56.0483 500.703 56.0483 500.124 55.469C499.545 54.8897 499.545 54.0207 500.124 53.4414L506.014 47.5517C506.303 47.2621 506.69 47.1655 507.076 47.1655H517.021C517.407 47.1655 517.793 47.3586 518.083 47.5517L524.069 53.5379C524.648 54.1173 524.648 54.9862 524.069 55.5655C523.586 55.9517 523.297 56.0483 522.91 56.0483Z" fill="url(#paint26_linear)"/>
<defs>
<linearGradient id="paint0_linear" x1="47.4722" y1="14.2205" x2="43.0219" y2="17.4334" gradientUnits="userSpaceOnUse">
<stop stop-color="#FF6F3D"/>
<stop offset="1" stop-color="#FF8E3D"/>
</linearGradient>
<linearGradient id="paint1_linear" x1="26" y1="22.4531" x2="38.9842" y2="41.7265" gradientUnits="userSpaceOnUse">
<stop stop-color="#FF8E3D"/>
<stop offset="1" stop-color="#FF6F3D"/>
</linearGradient>
<linearGradient id="paint2_linear" x1="26" y1="22.4531" x2="38.9842" y2="41.7265" gradientUnits="userSpaceOnUse">
<stop stop-color="#FF8E3D"/>
<stop offset="1" stop-color="#FF6F3D"/>
</linearGradient>
<linearGradient id="paint3_linear" x1="26" y1="22.4531" x2="38.9842" y2="41.7265" gradientUnits="userSpaceOnUse">
<stop stop-color="#FF8E3D"/>
<stop offset="1" stop-color="#FF6F3D"/>
</linearGradient>
<linearGradient id="paint4_linear" x1="26" y1="22.4531" x2="38.9842" y2="41.7265" gradientUnits="userSpaceOnUse">
<stop stop-color="#FF8E3D"/>
<stop offset="1" stop-color="#FF6F3D"/>
</linearGradient>
<linearGradient id="paint5_linear" x1="49.3215" y1="29.6119" x2="51.2204" y2="48.868" gradientUnits="userSpaceOnUse">
<stop stop-color="#FF8E3D"/>
<stop offset="1" stop-color="#FF6F3D"/>
</linearGradient>
<linearGradient id="paint6_linear" x1="7" y1="44.75" x2="22.2058" y2="32.9061" gradientUnits="userSpaceOnUse">
<stop stop-color="#FF6F3D"/>
<stop offset="1" stop-color="#FF8E3D"/>
</linearGradient>
<linearGradient id="paint7_linear" x1="23" y1="14" x2="-5.93263e-08" y2="21" gradientUnits="userSpaceOnUse">
<stop stop-color="#FF8C3D"/>
<stop offset="1" stop-color="#FF6F3D"/>
</linearGradient>
<linearGradient id="paint8_linear" x1="178.322" y1="51" x2="128.357" y2="13.9011" gradientUnits="userSpaceOnUse">
<stop stop-color="#FF6F3D"/>
<stop offset="1" stop-color="#FF8E3D"/>
</linearGradient>
<linearGradient id="paint9_linear" x1="248.545" y1="8.9469" x2="278.26" y2="53.4407" gradientUnits="userSpaceOnUse">
<stop stop-color="#FF8E3D"/>
<stop offset="1" stop-color="#FF6F3D"/>
</linearGradient>
<linearGradient id="paint10_linear" x1="278.381" y1="8" x2="278.381" y2="53" gradientUnits="userSpaceOnUse">
<stop stop-color="#FF8E3D"/>
<stop offset="1" stop-color="#FF6F3D"/>
</linearGradient>
<linearGradient id="paint11_linear" x1="370" y1="8" x2="399.5" y2="53" gradientUnits="userSpaceOnUse">
<stop stop-color="#FF8E3D"/>
<stop offset="1" stop-color="#FF6F3D"/>
</linearGradient>
<linearGradient id="paint12_linear" x1="391.938" y1="8" x2="391.938" y2="53" gradientUnits="userSpaceOnUse">
<stop stop-color="#FF8E3D"/>
<stop offset="1" stop-color="#FF6F3D"/>
</linearGradient>
<linearGradient id="paint13_linear" x1="611" y1="4.15497" x2="657.884" y2="45.4102" gradientUnits="userSpaceOnUse">
<stop stop-color="#FF8E3D"/>
<stop offset="1" stop-color="#FF6F3D"/>
</linearGradient>
<linearGradient id="paint14_linear" x1="611" y1="4.15497" x2="657.884" y2="45.4102" gradientUnits="userSpaceOnUse">
<stop stop-color="#FF8E3D"/>
<stop offset="1" stop-color="#FF6F3D"/>
</linearGradient>
<linearGradient id="paint15_linear" x1="611" y1="4.15497" x2="657.884" y2="45.4102" gradientUnits="userSpaceOnUse">
<stop stop-color="#FF8E3D"/>
<stop offset="1" stop-color="#FF6F3D"/>
</linearGradient>
<linearGradient id="paint16_linear" x1="611" y1="4.15497" x2="657.884" y2="45.4102" gradientUnits="userSpaceOnUse">
<stop stop-color="#FF8E3D"/>
<stop offset="1" stop-color="#FF6F3D"/>
</linearGradient>
<linearGradient id="paint17_linear" x1="611" y1="4.15497" x2="657.884" y2="45.4102" gradientUnits="userSpaceOnUse">
<stop stop-color="#FF8E3D"/>
<stop offset="1" stop-color="#FF6F3D"/>
</linearGradient>
<linearGradient id="paint18_linear" x1="611.5" y1="8.17798" x2="611.5" y2="27.4637" gradientUnits="userSpaceOnUse">
<stop stop-color="#FF8E3D"/>
<stop offset="1" stop-color="#FF6F3D"/>
</linearGradient>
<linearGradient id="paint19_linear" x1="640.005" y1="47.4761" x2="620" y2="47.4761" gradientUnits="userSpaceOnUse">
<stop stop-color="#FF6F3D"/>
<stop offset="1" stop-color="#FF8E3D"/>
</linearGradient>
<linearGradient id="paint20_linear" x1="651.001" y1="47.4761" x2="630.997" y2="47.4761" gradientUnits="userSpaceOnUse">
<stop stop-color="#FF6F3D"/>
<stop offset="1" stop-color="#FF8E3D"/>
</linearGradient>
<linearGradient id="paint21_linear" x1="662" y1="47.4762" x2="642" y2="47.4762" gradientUnits="userSpaceOnUse">
<stop stop-color="#FF6F3D"/>
<stop offset="1" stop-color="#FF8E3D"/>
</linearGradient>
<linearGradient id="paint22_linear" x1="662" y1="47.4762" x2="642" y2="47.4762" gradientUnits="userSpaceOnUse">
<stop stop-color="#FF6F3D"/>
<stop offset="1" stop-color="#FF8E3D"/>
</linearGradient>
<linearGradient id="paint23_linear" x1="537.405" y1="45.8473" x2="488.699" y2="8.39121" gradientUnits="userSpaceOnUse">
<stop stop-color="#FF6F3D"/>
<stop offset="1" stop-color="#FF8E3D"/>
</linearGradient>
<linearGradient id="paint24_linear" x1="490.475" y1="30.9506" x2="508.681" y2="30.9506" gradientUnits="userSpaceOnUse">
<stop stop-color="#FF6F3D"/>
<stop offset="1" stop-color="#FF8E3D"/>
</linearGradient>
<linearGradient id="paint25_linear" x1="501.261" y1="19.23" x2="507.859" y2="19.23" gradientUnits="userSpaceOnUse">
<stop stop-color="#FF6F3D"/>
<stop offset="1" stop-color="#FF8E3D"/>
</linearGradient>
<linearGradient id="paint26_linear" x1="499.661" y1="51.5927" x2="524.339" y2="51.5927" gradientUnits="userSpaceOnUse">
<stop stop-color="#FF6F3D"/>
<stop offset="1" stop-color="#FF8E3D"/>
</linearGradient>
</defs>
</svg>
