<svg width="253" height="242" viewBox="0 0 253 242" fill="none" xmlns="http://www.w3.org/2000/svg">
<g clip-path="url(#clip0_46_11533)">
<path fill-rule="evenodd" clip-rule="evenodd" d="M172.345 130.593C186.721 140.178 196.305 155.495 198.841 172.41C212.654 164.892 226.466 157.281 240.841 150.139L241.875 149.669L242.815 149.199L243.754 148.823L244.694 148.448L245.539 148.166L246.385 147.884L247.231 147.696L247.982 147.508L248.64 147.414L249.298 147.32L249.862 147.414L250.331 147.508L250.707 147.602L250.895 147.79L251.083 148.072V148.354L252.774 152.206C252.774 152.206 252.774 152.206 252.774 152.3C252.868 152.3 252.962 152.394 252.962 152.488C252.962 152.582 252.962 152.676 252.962 152.77C252.962 153.898 251.083 155.965 248.358 158.032L197.15 197.688C188.13 229.637 155.056 248.525 122.922 239.88C99.7139 233.584 83.271 214.696 79.0428 192.613C77.4455 184.156 77.6334 175.229 79.7945 166.302C79.8884 166.02 79.9824 165.738 80.0764 165.362C80.5462 163.765 81.016 162.073 81.5797 160.476C81.7676 160.006 81.9556 159.536 82.1435 159.066C82.8012 157.469 83.4589 155.965 84.1166 154.556L96.2374 108.605C97.0831 105.316 98.3985 102.872 99.8079 102.497L104.788 101.087H105.164L105.633 101.181L106.009 101.275L106.479 101.651L106.855 102.027L107.325 102.591L107.701 103.248L108.076 103.906L108.358 104.752L108.64 105.598L108.828 106.443L109.016 107.477L109.204 108.417L109.298 109.45L109.392 110.578L109.486 111.612C109.674 116.968 109.862 122.324 109.956 127.68C117.66 123.546 126.211 121.103 135.137 120.539L135.982 117.532V117.344L136.17 117.156L136.358 116.968L136.546 116.78L136.828 116.686L137.11 116.592L137.486 116.404L137.862 116.31L138.237 116.216H138.707L139.177 116.122H139.741L140.305 116.028H140.868H141.526L142.184 116.122H142.841L143.593 116.216H144.345L145.097 116.31L145.848 116.404L146.694 116.498L147.445 116.686L148.291 116.78L149.231 116.968L150.076 117.156L151.016 117.25L151.862 117.532L152.801 117.72L153.741 117.908L154.68 118.189L155.62 118.377L156.56 118.659L157.499 118.941L158.439 119.223L159.378 119.505L160.224 119.787L161.164 120.069L162.009 120.351L162.761 120.727L163.607 121.009L164.358 121.29L165.11 121.666L165.862 121.948L166.519 122.23L167.177 122.606L167.835 122.888L168.492 123.17L169.056 123.452L169.62 123.828L170.09 124.11L170.56 124.391L171.029 124.673L171.405 125.049L171.781 125.331L172.063 125.613L172.345 125.895L172.627 126.177L172.815 126.365L173.003 126.647L173.097 126.929V127.117L173.19 127.398L173.097 127.586L172.345 130.593Z" fill="#385362" fill-opacity="0.1"/>
<path fill-rule="evenodd" clip-rule="evenodd" d="M192.546 73.648C192.546 58.1431 179.956 45.5512 164.452 45.5512C148.949 45.5512 136.358 58.1431 136.358 73.648C136.358 89.1529 148.949 101.745 164.452 101.745C179.956 101.745 192.546 89.1529 192.546 73.648Z" fill="#385362" fill-opacity="0.1"/>
<path fill-rule="evenodd" clip-rule="evenodd" d="M89.9421 86.4278C127.338 96.5765 149.513 135.104 139.459 172.504C129.311 209.903 90.7878 232.08 53.3918 221.932C15.9958 211.877 -6.17868 173.349 3.87501 135.95C14.0227 98.4559 52.5462 76.3731 89.9421 86.4278Z" fill="#28A8E9" stroke="#385362" stroke-miterlimit="22.9256" stroke-linecap="round" stroke-linejoin="round"/>
<path d="M43.9958 89.9987C46.2508 96.9524 62.6938 105.973 83.177 111.518C103.942 117.062 122.922 117.532 128.09 112.457" stroke="#385362" stroke-miterlimit="22.9256" stroke-linecap="round" stroke-linejoin="round"/>
<path d="M5.66027 130.311C4.34483 146.944 30.3717 167.054 65.6066 176.544C100.841 186.129 133.539 181.807 140.774 166.772" stroke="#385362" stroke-miterlimit="22.9256" stroke-linecap="round" stroke-linejoin="round"/>
<path fill-rule="evenodd" clip-rule="evenodd" d="M38.4522 92.3479C38.2643 86.1459 38.0763 79.9439 37.8884 73.8359L37.7945 72.5204L37.7005 71.2988L37.6065 70.0772L37.4186 68.9495L37.1367 67.8219L36.8549 66.7882L36.573 65.8486L36.1971 64.9089L35.8213 64.0631L35.3515 63.3114L34.8817 62.7476L34.4119 62.1837L33.8482 61.9018L33.3784 61.6199H32.9086H32.4388L26.7072 63.2174L27.177 63.1234L27.6468 63.2174L28.1166 63.4053L28.6804 63.7812L29.1502 64.2511L29.62 64.9089L30.0898 65.6606L30.4656 66.4124L30.8414 67.3521L31.1233 68.2918L31.4052 69.3254L31.5931 70.453L31.781 71.6746L31.969 72.8023L32.0629 74.0239L32.1569 75.3395L32.2508 76.655V77.9706L32.1569 79.2862V80.6017L32.0629 81.9173L30.7475 97.1403C33.2844 95.3549 35.8213 93.7574 38.4522 92.3479Z" fill="#93D4F4" stroke="#385362" stroke-miterlimit="22.9256" stroke-linecap="round" stroke-linejoin="round"/>
<path fill-rule="evenodd" clip-rule="evenodd" d="M29.1502 64.2511C26.5193 61.2441 24.0764 64.7209 22.573 70.2651L8.573 123.452C13.7408 112.739 21.5394 103.812 30.7475 97.1403L32.0629 81.9173C32.6267 74.8696 31.875 67.3521 29.1502 64.2511Z" fill="#F9FDFF" stroke="#385362" stroke-miterlimit="22.9256" stroke-linecap="round" stroke-linejoin="round"/>
<path fill-rule="evenodd" clip-rule="evenodd" d="M89.9421 86.4278C101.781 89.6228 110.895 94.4152 110.143 97.0464C109.392 99.6775 99.2441 99.2077 87.4052 96.0127C75.4723 92.8178 66.4522 88.1193 67.2039 85.3942C67.8616 82.763 78.1032 83.2329 89.9421 86.4278Z" fill="white" stroke="#385362" stroke-width="2.98993" stroke-miterlimit="22.9256" stroke-linecap="round" stroke-linejoin="round"/>
<path fill-rule="evenodd" clip-rule="evenodd" d="M111.459 92.2539L110.143 97.0464L110.05 97.2343L109.862 97.5162L109.674 97.7042L109.486 97.8921L109.11 98.08L108.828 98.174L108.358 98.3619L107.982 98.4559L107.419 98.5499L106.949 98.6438H106.385L105.727 98.7378H105.07H104.412H103.66H102.909H102.157L101.311 98.6438L100.466 98.5499L99.62 98.4559L98.6804 98.3619L97.7408 98.268L96.8012 98.08L95.8616 97.8921L94.828 97.7042L93.7945 97.5162L92.7609 97.3283L91.7274 97.1403L90.6938 96.8584L89.5663 96.5765L88.4388 96.2946L87.4052 96.0127L86.2777 95.7308L85.1502 95.4489L84.1166 95.073L83.0831 94.7911L82.0495 94.4152L81.016 94.1333L80.0764 93.7574L79.1368 93.3816L78.1972 93.0057L77.2576 92.7238L76.4119 92.3479L75.5663 91.972L74.8146 91.5961L73.969 91.2203L73.2173 90.9384L72.5596 90.5625L71.9019 90.1866L71.2442 89.8107L70.6804 89.4349L70.1166 89.1529L69.6468 88.7771L69.177 88.4012L68.7072 88.1193L68.3314 87.7434L68.0495 87.4615L67.7676 87.0856L67.4858 86.8037L67.3918 86.5218L67.2039 86.2399V85.958L67.1099 85.6761L67.2039 85.3942L68.5193 80.6017L68.4254 80.8837V81.1656L68.5193 81.4475L68.6133 81.7294L68.8012 82.0113L69.0831 82.2932L69.365 82.6691L69.6468 82.951L70.0227 83.3268L70.4925 83.6088L70.8683 83.9846L71.4321 84.2665L71.9958 84.6424L72.5596 85.0183L73.2173 85.3942L73.875 85.7701L74.5327 86.052L75.2844 86.4278L76.0361 86.8037L76.8817 87.1796L77.7274 87.5555L78.573 87.9314L79.5126 88.2133L80.3582 88.5891L81.3918 88.965L82.3314 89.3409L83.365 89.6228L84.3985 89.9987L85.4321 90.2806L86.4656 90.6565L87.5932 90.9384L88.6267 91.2203L89.7542 91.5022L90.8817 91.7841L91.9153 92.066L93.0428 92.3479L94.0764 92.5358L95.1099 92.7238L96.1435 92.9117L97.0831 93.0997L98.1166 93.2876L99.0562 93.3816L99.9958 93.5695L100.935 93.6635L101.781 93.7574L102.627 93.8514H103.472L104.224 93.9454H104.976H105.727H106.385H107.043L107.701 93.8514H108.264L108.734 93.7574L109.204 93.6635L109.674 93.5695L110.05 93.3816L110.425 93.2876L110.707 93.0997L110.989 92.9117L111.177 92.7238L111.365 92.4419L111.459 92.2539Z" fill="#F9FDFF" stroke="#385362" stroke-miterlimit="22.9256" stroke-linecap="round" stroke-linejoin="round"/>
<path fill-rule="evenodd" clip-rule="evenodd" d="M91.2576 81.6354L92.3851 81.9173L93.4187 82.2932L94.5462 82.5751L95.5797 82.857L96.6133 83.2329L97.5529 83.6088L98.5864 83.8907L99.526 84.2665L100.466 84.6424L101.311 85.0183L102.251 85.3002L103.003 85.6761L103.848 86.052L104.6 86.4278L105.352 86.8037L106.103 87.1796L106.761 87.4615L107.325 87.8374L107.982 88.2133L108.452 88.5891L109.016 88.871L109.486 89.2469L109.862 89.6228L110.237 89.9047L110.613 90.1866L110.895 90.5625L111.083 90.8444L111.271 91.1263L111.365 91.4082L111.459 91.6901V91.972V92.2539L111.365 92.4419L111.177 92.7238L110.989 92.9117L110.707 93.0997L110.425 93.2876L110.05 93.3816L109.674 93.5695L109.204 93.6635L108.734 93.7575L108.264 93.8514H107.701L107.043 93.9454H106.385H105.727H104.976H104.224L103.472 93.8514H102.627L101.781 93.7575L100.935 93.6635L99.9958 93.5695L99.0562 93.3816L98.1166 93.2876L97.0831 93.0997L96.1435 92.9117L95.1099 92.7238L94.0764 92.5359L93.0428 92.3479L91.9153 92.066L90.8817 91.7841L89.7542 91.5022L88.6267 91.2203L87.5931 90.9384L86.4656 90.6565L85.4321 90.2806L84.3985 89.9987L83.365 89.6228L82.3314 89.3409L81.3918 88.965L80.3582 88.5891L79.5126 88.2133L78.573 87.9314L77.7274 87.5555L76.8817 87.1796L76.0361 86.8037L75.2844 86.4278L74.5327 86.052L73.875 85.7701L73.2173 85.3942L72.5596 85.0183L71.9958 84.6424L71.4321 84.2665L70.8683 83.9846L70.4925 83.6088L70.0227 83.3269L69.6468 82.951L69.365 82.6691L69.0831 82.2932L68.8012 82.0113L68.6133 81.7294L68.5193 81.4475L68.4254 81.1656V80.8837L68.5193 80.6017L68.6133 80.4138L68.7072 80.1319L68.8952 79.944L69.177 79.756L69.4589 79.6621L69.8348 79.4741L70.2106 79.3801L70.6804 79.1922L71.1502 79.0982L71.7139 79.0043H72.2777L72.8415 78.9103H73.4992H74.2509H74.9086H75.6603L76.5059 79.0043H77.2576L78.1032 79.0982L79.0428 79.1922L79.8884 79.2862L80.828 79.4741L81.7676 79.5681L82.8012 79.756L83.8348 79.944L84.7744 80.1319L85.8079 80.3198L86.9354 80.6017L87.969 80.7897L89.0965 81.0716L90.1301 81.3535L91.2576 81.6354Z" fill="#93D4F4" stroke="#385362" stroke-miterlimit="22.9256" stroke-linecap="round" stroke-linejoin="round"/>
<path fill-rule="evenodd" clip-rule="evenodd" d="M70.2106 105.128C86.3717 111.424 94.922 129.56 90.318 146.568C86.0898 162.167 71.714 172.786 56.1166 171.752C51.4186 171.376 48.9757 170.624 44.6535 168.933C34.0361 164.704 23.3247 158.784 14.8683 151.361C10.5462 147.508 6.13005 142.528 3.59314 136.983C3.6871 136.607 3.78106 136.326 3.87502 135.95C9.70052 114.337 25.016 97.7981 44.1837 89.6228C44.1837 89.7168 44.1837 89.7168 44.2777 89.8107C44.7475 91.7841 49.0697 94.8851 50.573 95.9187C54.4254 98.4559 58.8415 100.617 63.2576 102.403C65.6066 103.342 67.8616 104.282 70.2106 105.128Z" fill="#385362"/>
<path fill-rule="evenodd" clip-rule="evenodd" d="M47.8482 165.644C23.9824 156.435 7.25758 142.058 5.94214 129.654C12.2374 112.551 24.828 99.1137 40.3314 91.4082C42.0227 96.0127 50.4791 101.745 62.4119 106.631C64.0093 107.289 65.9824 108.135 67.6737 108.699C82.1435 113.773 90.4119 129.842 86.2777 145.347C82.2374 160.1 68.3314 169.309 54.1435 167.241C51.7005 166.866 50.1032 166.49 47.8482 165.644Z" fill="#F9FDFF"/>
<path d="M2.65356 167.335C11.1099 180.961 33.0026 194.023 59.0294 201.07C84.7744 208.024 110.143 207.742 124.331 200.413" stroke="#385362" stroke-miterlimit="22.9256" stroke-linecap="round" stroke-linejoin="round"/>
<path d="M53.3918 221.932C44.4657 219.582 38.1704 209.152 36.0093 193.271" stroke="#385362" stroke-miterlimit="22.9256" stroke-linecap="round" stroke-linejoin="round"/>
<path d="M115.781 105.786C133.915 122.324 141.244 147.602 134.855 171.282C127.15 199.849 101.217 219.676 71.62 219.676" stroke="white" stroke-width="2" stroke-miterlimit="22.9256" stroke-linecap="round" stroke-linejoin="round"/>
<path fill-rule="evenodd" clip-rule="evenodd" d="M28.6804 113.021C30.0898 114.525 30.6535 116.498 30.3717 119.129C30.1837 120.445 29.8079 121.76 29.2441 123.264C28.7743 124.673 28.0227 126.271 27.0831 127.962C26.1435 129.654 25.2039 130.969 24.3582 132.097C23.4186 133.225 22.479 134.07 21.5394 134.54C19.7542 135.574 17.969 135.104 16.2777 133.225C15.7139 132.567 15.2441 131.909 14.9623 131.251C14.5864 130.593 14.3045 129.936 14.1166 129.278C13.9287 128.62 13.8348 127.68 13.7408 126.459C13.6468 126.365 13.5529 126.177 13.4589 126.083C12.8952 126.459 12.3314 126.835 11.7676 127.211C10.7341 125.801 9.70052 124.485 8.76093 123.076C13.4589 113.491 20.224 105.316 28.3985 98.9258C29.3381 100.429 30.2777 101.933 31.3113 103.342C29.526 104.94 27.7408 106.631 26.0495 108.323C25.4858 108.98 24.4522 110.014 23.0428 111.518C23.0428 111.518 23.1368 111.612 23.1368 111.706C24.3582 111.236 25.3918 111.236 26.2374 111.424C27.177 111.706 27.9287 112.175 28.6804 113.021ZM23.2307 116.028C22.573 115.276 21.9153 115.088 21.1636 115.37C20.4119 115.558 19.5663 116.404 18.6267 117.72C18.4388 118.002 18.2509 118.283 18.0629 118.659C17.0294 120.163 16.5596 121.572 16.4656 122.606C16.3717 123.734 16.6535 124.673 17.3113 125.519C17.969 126.177 18.5327 126.271 19.3784 125.801C20.1301 125.237 20.8817 124.204 21.9153 122.606C23.8884 119.505 24.3582 117.344 23.2307 116.028ZM47.3784 140.178C46.6267 141.964 45.7811 143.467 44.8415 144.783C43.9019 146.098 42.8683 147.038 41.6468 147.696C39.1099 149.105 36.3851 149.105 33.3784 147.508C30.4656 145.91 28.6804 143.279 27.9287 140.084C27.6468 138.393 27.5529 136.795 27.8348 135.104C28.0227 133.413 28.5864 131.721 29.526 130.03C30.4656 128.338 31.4992 127.023 32.5327 125.989C33.6603 124.955 34.8817 124.297 36.1032 123.922C38.6401 123.076 41.177 123.452 43.7139 124.955C45.3113 125.895 46.5327 127.023 47.4723 128.526C48.318 130.03 48.6938 131.721 48.6938 133.694C48.6938 135.668 48.224 137.829 47.3784 140.178ZM35.4455 134.258C34.5999 136.138 34.1301 137.735 34.1301 138.957C34.1301 140.272 34.5999 141.118 35.6334 141.682C36.573 142.246 37.5126 142.152 38.3582 141.306C39.2039 140.554 39.9556 139.145 40.8012 137.265C41.6468 135.386 42.0227 133.882 42.1166 132.755C42.2106 131.627 41.7408 130.875 40.8012 130.312C39.8616 129.748 39.016 129.842 38.1703 130.499C37.2307 131.157 36.3851 132.473 35.4455 134.258ZM58.6535 149.575C59.5931 149.763 60.7207 149.763 62.1301 149.481C61.5663 151.455 61.0025 153.428 60.5327 155.307C59.4992 155.589 58.4656 155.777 57.62 155.777C56.7743 155.777 55.7408 155.589 54.6133 155.307C52.2643 154.744 50.8549 153.616 50.1972 152.018C49.6334 150.421 49.7274 148.26 50.667 145.629C51.2307 144.031 51.7005 142.528 52.2643 141.024C52.828 139.427 53.4858 137.923 54.0495 136.42C53.2978 136.138 52.5462 135.95 51.7945 135.668C52.1703 134.728 52.6401 133.694 53.016 132.661C54.2374 132.191 55.5529 131.627 56.7743 131.063C57.9019 129.748 58.9354 128.338 60.0629 126.929C61.3784 127.211 62.5998 127.492 63.9153 127.774C63.3515 129.278 62.8817 130.781 62.318 132.285C63.8213 132.567 65.2307 132.755 66.6401 133.037C66.0764 135.01 65.5126 136.983 64.9488 138.957C63.4455 138.675 61.9421 138.393 60.4388 138.111C59.969 139.614 59.4992 141.024 58.9354 142.528C58.4656 144.031 57.9958 145.441 57.526 146.944C57.0562 148.448 57.4321 149.293 58.6535 149.575Z" fill="#93D4F4" stroke="#385362" stroke-width="2" stroke-miterlimit="22.9256" stroke-linecap="round" stroke-linejoin="round"/>
<path fill-rule="evenodd" clip-rule="evenodd" d="M107.607 123.452C109.58 124.016 110.707 125.989 110.143 127.868C109.674 129.842 107.701 130.969 105.727 130.499C103.754 129.936 102.627 127.962 103.19 125.989C103.66 124.11 105.633 122.888 107.607 123.452Z" fill="#FF7C00" stroke="#385362" stroke-miterlimit="22.9256" stroke-linecap="round" stroke-linejoin="round"/>
<path fill-rule="evenodd" clip-rule="evenodd" d="M95.7676 181.807L96.3314 168.933L96.7072 168.181L97.6468 167.429L98.9623 166.49C129.969 150.703 158.721 133.788 189.727 118.283L190.855 117.72L191.982 117.25L193.11 116.78L194.143 116.31L195.177 116.028L196.117 115.652L197.056 115.464L197.996 115.276L198.747 115.182L199.499 115.089H200.157L200.721 115.182L201.096 115.37L201.378 115.558L201.566 115.84V116.216L203.727 121.384V121.009L203.539 120.727L203.258 120.539L202.882 120.351L202.318 120.257H201.66H200.909L200.157 120.445L199.217 120.633L198.372 120.821L197.338 121.103L196.305 121.478L195.271 121.948L194.143 122.418L193.11 122.888L191.982 123.452L190.761 124.016L189.633 124.579L188.506 125.237L187.378 125.895L186.157 126.553L98.3985 179.364L97.0831 180.303L96.2374 181.149L95.7676 181.807Z" fill="#93D4F4" stroke="#385362" stroke-miterlimit="22.9256" stroke-linecap="round" stroke-linejoin="round"/>
<path fill-rule="evenodd" clip-rule="evenodd" d="M202.318 120.257C205.607 120.633 202.976 123.828 198.372 127.398L136.64 175.229C133.821 177.39 127.714 179.645 124.425 180.115L99.3381 183.028C95.3918 183.498 94.1703 181.901 98.3985 179.364L186.157 126.553C192.264 122.888 199.029 119.881 202.318 120.257Z" fill="#F9FDFF" stroke="#385362" stroke-miterlimit="22.9256" stroke-linecap="round" stroke-linejoin="round"/>
<path fill-rule="evenodd" clip-rule="evenodd" d="M90.9757 82.6691L91.9153 82.951L92.7609 83.1389L93.7005 83.4208L94.5461 83.7027L95.3918 83.9846L96.2374 84.2666L97.083 84.5485L97.8347 84.8304L98.6804 85.1123L99.3381 85.3942L100.09 85.6761L100.841 85.958L101.499 86.2399L102.157 86.5218L102.721 86.8037L103.378 87.0856L103.942 87.3675L104.412 87.6494L104.882 87.9314L105.351 88.2133L105.821 88.4952L106.197 88.6831L106.573 88.965L106.855 89.2469L107.137 89.4349L107.419 89.7168L107.607 89.9047L107.7 90.1866L107.888 90.3746V90.5625L107.982 90.7504L107.888 90.9384V91.1263L107.7 91.3142L107.607 91.4082L107.419 91.5022L107.137 91.6901L106.855 91.7841L106.479 91.8781H106.197L105.727 91.972H105.351L104.882 92.066H104.318H103.848H103.284L102.627 91.972H102.063L101.405 91.8781H100.654L99.9958 91.7841L99.2441 91.6901L98.4924 91.5962L97.7408 91.4082L96.9891 91.3142L96.1434 91.1263L95.2978 91.0323L94.4522 90.8444L93.6065 90.6565L92.7609 90.4685L91.8213 90.2806L90.9757 89.9987L90.0361 89.8107L89.0965 89.5288L88.1569 89.3409L87.3112 89.059L86.3716 88.7771L85.526 88.4952L84.6804 88.2133L83.8347 87.9314L82.9891 87.7434L82.2374 87.4615L81.4857 87.1796L80.734 86.8037L79.9824 86.5218L79.2307 86.2399L78.573 85.958L77.9153 85.6761L77.3515 85.3942L76.7877 85.1123L76.224 84.8304L75.6602 84.5485L75.1904 84.3605L74.7206 84.0786L74.2508 83.7967L73.875 83.5148L73.4992 83.2329L73.2173 83.0449L72.9354 82.763L72.6535 82.5751L72.4656 82.2932L72.3716 82.1053L72.1837 81.9173V81.6354V81.4475V81.2595L72.2777 81.1656L72.3716 80.9776L72.4656 80.7897L72.7475 80.6957L72.9354 80.6017L73.2173 80.5078L73.5931 80.4138L73.969 80.3198H74.3448L74.7206 80.2259H75.1904H75.7542H76.3179H76.8817H77.4455H78.1032L78.6669 80.3198L79.4186 80.4138L80.0763 80.5078L80.828 80.6017L81.5797 80.6957L82.3314 80.7897L83.177 80.8837L83.9287 81.0716L84.7743 81.2595L85.62 81.3535L86.4656 81.5414L87.3112 81.7294L88.2508 82.0113L89.0965 82.1992L90.0361 82.3872L90.9757 82.6691Z" fill="#385362"/>
<path fill-rule="evenodd" clip-rule="evenodd" d="M138.05 32.5834C138.05 14.6353 123.486 0.0700378 105.539 0.0700378C87.5932 0.0700378 73.0294 14.6353 73.0294 32.5834C73.0294 50.5316 87.5932 65.0968 105.539 65.0968C123.486 65.0968 138.05 50.5316 138.05 32.5834Z" fill="#28A8E9"/>
<path fill-rule="evenodd" clip-rule="evenodd" d="M87.7811 32.2076C97.177 28.0729 103.566 25.3478 106.667 24.0322C115.687 20.2734 117.566 19.6157 118.788 19.6157C119.07 19.6157 119.727 19.7096 120.103 19.9915C120.385 20.2734 120.479 20.6493 120.573 20.9312C120.573 21.1192 120.667 21.683 120.573 22.1528C120.103 27.3211 118.036 39.8191 116.909 45.5512C116.439 47.9944 115.593 48.7462 114.748 48.8401C112.774 49.0281 111.365 47.6185 109.58 46.3969C106.667 44.5175 105.07 43.3899 102.345 41.5105C99.0562 39.4432 101.217 38.2216 103.003 36.3422C103.472 35.8724 111.835 28.2608 111.929 27.6031C112.023 27.5091 112.023 27.2272 111.835 27.0392C111.647 26.8513 111.365 26.9453 111.177 27.0392C110.801 27.0392 106.291 30.0463 97.4589 36.0603C96.1435 37 95.016 37.3759 93.8885 37.3759C92.7609 37.3759 90.5059 36.7181 88.8146 36.1543C86.8415 35.4965 85.2442 35.2146 85.3381 33.993C85.4321 33.4292 86.2777 32.8653 87.7811 32.2076Z" fill="white"/>
<path fill-rule="evenodd" clip-rule="evenodd" d="M108.264 135.762C110.143 136.326 111.365 138.299 110.801 140.272C110.331 142.152 108.264 143.373 106.385 142.809C104.412 142.34 103.284 140.272 103.754 138.393C104.318 136.42 106.291 135.292 108.264 135.762Z" fill="#93D4F4" stroke="#385362" stroke-miterlimit="22.9256" stroke-linecap="round" stroke-linejoin="round"/>
<path fill-rule="evenodd" clip-rule="evenodd" d="M106.949 90.4685V90.5625L106.855 90.6565L106.667 90.7504L106.479 90.9384L106.291 91.0323H106.009L105.727 91.1263L105.352 91.2203H104.976H104.6L104.13 91.3143H103.66H103.19L102.627 91.2203H102.063L101.499 91.1263H100.841L100.278 91.0323L99.62 90.9384L98.8683 90.8444L98.2106 90.7504L97.459 90.6565L96.7073 90.4685L95.9556 90.3746L95.2039 90.1866L94.3583 89.9987L93.6066 89.9047L92.761 89.7168L91.9153 89.4349L91.0697 89.2469L90.224 89.059L89.2844 88.7771L88.4388 88.5891L87.5932 88.3072L86.7475 88.1193L85.9019 87.8374L85.1502 87.5555L84.3046 87.3675L83.5529 87.0856L82.8012 86.8037L82.0496 86.5218L81.3918 86.2399L80.6402 86.052L79.9824 85.7701L79.3247 85.4882L78.761 85.2063L78.1972 85.0183L77.6334 84.7364L77.0697 84.4545L76.5999 84.1726L76.1301 83.9846L75.6603 83.7027L75.2845 83.5148L74.9086 83.2329L74.5328 83.045L74.2509 82.763L73.969 82.5751L73.7811 82.3872L73.5932 82.1992L73.4053 82.0113L73.3113 81.8233L73.2173 81.6354V81.4475V81.3535L73.0294 33.805C93.1368 39.0673 113.15 44.4236 133.164 49.6858L106.949 90.4685Z" fill="url(#paint0_linear_46_11533)"/>
<path d="M73.2173 78.1586C73.2173 69.7953 73.1234 61.338 73.1234 52.8808" stroke="white" stroke-width="1.90268" stroke-miterlimit="22.9256" stroke-linecap="round" stroke-linejoin="round"/>
<path d="M107.419 89.2469C113.056 80.6017 118.694 71.9566 124.425 63.3114" stroke="white" stroke-width="1.90268" stroke-miterlimit="22.9256" stroke-linecap="round" stroke-linejoin="round"/>
<path d="M97.8347 88.6831C101.969 78.4405 106.103 68.1978 110.237 57.8612" stroke="white" stroke-width="1.90268" stroke-miterlimit="22.9256" stroke-linecap="round" stroke-linejoin="round"/>
<path d="M93.6065 89.6228C95.2038 83.8906 96.8011 78.1585 98.3045 72.5204" stroke="white" stroke-width="1.90268" stroke-miterlimit="22.9256" stroke-linecap="round" stroke-linejoin="round"/>
</g>
<defs>
<linearGradient id="paint0_linear_46_11533" x1="102.938" y1="42.7042" x2="88.9349" y2="91.4492" gradientUnits="userSpaceOnUse">
<stop stop-color="white" stop-opacity="0"/>
<stop offset="1" stop-color="#89DCF4"/>
</linearGradient>
<clipPath id="clip0_46_11533">
<rect width="252" height="242" fill="white" transform="translate(0.96228 0.00854492)"/>
</clipPath>
</defs>
</svg>
