<svg width="423" height="592" viewBox="0 0 423 592" fill="none" xmlns="http://www.w3.org/2000/svg">
<path fill-rule="evenodd" clip-rule="evenodd" d="M198.504 230.83H279.328H301.426C308.99 230.636 312.49 229.447 314.989 226.112C322.547 232.041 328.02 232.488 336.205 230.83V229.967C330.76 227.649 327.04 223.443 326.555 216.702C326.555 216.541 326.555 216.379 326.555 216.271V115.362C326.555 107.327 319.978 100.803 311.998 100.803H15.021C7.04199 100.803 0.4646 107.327 0.4646 115.362V216.271C0.4646 224.252 7.04199 230.83 15.021 230.83H198.504Z" fill="#C5E4F5"/>
<path fill-rule="evenodd" clip-rule="evenodd" d="M302.426 247.077H68.2846C55.6152 247.077 45.2101 257.484 45.2101 270.156C45.2101 282.828 55.6152 293.181 68.2846 293.181H305.686C311.244 293.101 313.129 292.043 314.816 288.77C323.001 293.929 327.433 294.374 335.205 293.181V292.372C329.329 289.838 325.501 285.147 325.501 277.436V270.048H325.447C325.393 257.43 315.042 247.077 302.426 247.077Z" fill="#C5E4F5"/>
<path fill-rule="evenodd" clip-rule="evenodd" d="M262.426 545.355H28.2846C15.6152 545.355 5.21008 555.762 5.21008 568.434C5.21008 581.106 15.6152 591.459 28.2846 591.459H265.686C271.244 591.379 273.129 590.321 274.816 587.048C283.001 592.207 287.433 592.652 295.205 591.459V590.65C289.329 588.116 285.501 583.425 285.501 575.714V568.326H285.447C285.393 555.708 275.042 545.355 262.426 545.355Z" fill="#C5E4F5"/>
<path d="M322.189 132.025L327.565 148.612C327.936 149.817 329.419 150.188 330.346 149.446L346.568 136.01C346.568 136.01 329.327 129.337 329.327 129.708C329.327 130.079 322.189 132.025 322.189 132.025Z" fill="white"/>
<path d="M364.922 100.147C354.354 104.317 320.15 118.31 307.265 123.592C305.504 124.333 305.597 126.743 307.358 127.299L322.189 132.025L327.565 148.52C327.751 149.261 328.307 149.632 328.956 149.724C329.419 149.817 330.161 136.38 330.161 136.38C330.161 136.38 345.734 147.871 353.057 153.338C354.911 154.636 357.413 153.616 357.877 151.392C360.101 140.18 365.57 111.916 367.424 102.278C367.702 100.796 366.312 99.5911 364.922 100.147Z" fill="white"/>
<path d="M328.956 149.724C329.419 149.817 330.161 136.38 330.161 136.38L355.652 112.472C355.837 112.287 355.652 112.009 355.467 112.101L322.189 132.025L327.565 148.52C327.751 149.261 328.307 149.632 328.956 149.724Z" fill="#DCEEF8"/>
<path d="M317.842 50.826L321.775 62.9621C322.047 63.8435 323.132 64.1147 323.81 63.5723L335.678 53.7414C335.678 53.7414 323.064 48.8598 323.064 49.131C323.064 49.4022 317.842 50.826 317.842 50.826Z" fill="white"/>
<path d="M349.107 27.503C341.375 30.5539 316.35 40.7917 306.923 44.6563C305.634 45.1986 305.702 46.9614 306.991 47.3682L317.842 50.826L321.775 62.8943C321.911 63.4367 322.318 63.7079 322.793 63.7757C323.132 63.8435 323.674 54.0126 323.674 54.0126C323.674 54.0126 335.068 62.4197 340.426 66.4199C341.782 67.3691 343.613 66.6233 343.952 64.9961C345.58 56.7924 349.581 36.1135 350.938 29.0624C351.141 27.9776 350.124 27.0962 349.107 27.503Z" fill="white"/>
<path d="M322.793 63.7757C323.132 63.8435 323.674 54.0126 323.674 54.0126L342.325 36.5203C342.46 36.3847 342.325 36.1813 342.189 36.2491L317.842 50.826L321.775 62.8944C321.911 63.4367 322.318 63.7079 322.793 63.7757Z" fill="#DCEEF8"/>
<path d="M400.152 16.5519L402.86 24.7863C403.05 25.3582 403.775 25.5869 404.232 25.1676L412.279 18.5724C412.279 18.5724 403.737 15.2557 403.737 15.4082C403.737 15.5988 400.152 16.5519 400.152 16.5519Z" fill="white"/>
<path d="M421.355 0.769108C416.092 2.86585 399.199 9.76605 392.792 12.3965C391.953 12.7396 391.991 13.9595 392.869 14.2264L400.152 16.5519L402.86 24.7482C402.936 25.0913 403.241 25.2819 403.546 25.3582C403.775 25.3963 404.156 18.7249 404.156 18.7249C404.156 18.7249 411.821 24.4051 415.482 27.1118C416.359 27.7599 417.656 27.2643 417.846 26.1969C418.952 20.5929 421.66 6.60188 422.575 1.83655C422.727 1.11222 422.003 0.50225 421.355 0.769108Z" fill="white"/>
<path d="M403.546 25.3582C403.775 25.3963 404.156 18.7248 404.156 18.7248L416.778 6.86871C416.855 6.79246 416.74 6.63997 416.626 6.71621L400.152 16.5519L402.86 24.7482C402.936 25.0913 403.241 25.2819 403.546 25.3582Z" fill="#DCEEF8"/>
</svg>
