<svg width="171" height="64" viewBox="0 0 171 64" fill="none" xmlns="http://www.w3.org/2000/svg">
<path d="M20.6162 18V46L34.6162 32L20.6162 18Z" fill="url(#paint0_linear)"/>
<path d="M20.6162 18V46L34.6162 32L20.6162 18Z" fill="url(#paint1_linear)"/>
<path d="M45.1007 31.0452L39.8162 28L35.6162 32L39.8162 36L45.1007 32.7484C45.41 32.5935 45.6162 32.2323 45.6162 31.871C45.6162 31.5097 45.41 31.2 45.1007 31.0452Z" fill="url(#paint2_linear)"/>
<path d="M45.1007 31.0452L39.8162 28L35.6162 32L39.8162 36L45.1007 32.7484C45.41 32.5935 45.6162 32.2323 45.6162 31.871C45.6162 31.5097 45.41 31.2 45.1007 31.0452Z" fill="url(#paint3_linear)"/>
<path d="M21.6162 46L39.2162 36.45L35.1162 32.5L21.6162 46Z" fill="url(#paint4_linear)"/>
<path d="M21.6162 46L39.2162 36.45L35.1162 32.5L21.6162 46Z" fill="url(#paint5_linear)"/>
<path d="M39.2162 27.55L33.6662 24.3L21.6162 18L35.1162 31.5L39.2162 27.55Z" fill="url(#paint6_linear)"/>
<path d="M39.2162 27.55L33.6662 24.3L21.6162 18L35.1162 31.5L39.2162 27.55Z" fill="url(#paint7_linear)"/>
<path d="M128.125 42.6913H130.15V29.4772H128.125V42.6913ZM146.364 34.2372L144.043 39.9662H143.974L141.565 34.2372H139.383L142.996 42.2445L140.936 46.6985H143.049L148.616 34.2372H146.364ZM134.881 41.1905C134.217 41.1905 133.292 40.8676 133.292 40.0682C133.292 39.0483 134.444 38.6573 135.438 38.6573C136.329 38.6573 136.747 38.8443 137.289 39.0996C137.131 40.3234 136.049 41.1905 134.881 41.1905ZM135.125 33.9482C133.659 33.9482 132.141 34.5774 131.512 35.9714L133.309 36.7022C133.693 35.9714 134.409 35.7332 135.16 35.7332C136.207 35.7332 137.271 36.3455 137.289 37.4335V37.5693C136.922 37.3653 136.137 37.0594 135.177 37.0594C133.24 37.0594 131.267 38.0961 131.267 40.0343C131.267 41.8024 132.856 42.9415 134.635 42.9415C135.997 42.9415 136.747 42.3465 137.219 41.6496H137.289V42.6695H139.243V37.6031C139.243 35.2575 137.446 33.9482 135.125 33.9482ZM122.61 35.8458H119.73V31.3164H122.61C124.124 31.3164 124.984 32.5372 124.984 33.581C124.984 34.6051 124.124 35.8458 122.61 35.8458ZM122.558 29.4772H117.706V42.6913H119.73V37.685H122.558C124.802 37.685 127.009 36.1023 127.009 33.581C127.009 31.0599 124.802 29.4772 122.558 29.4772ZM96.0996 41.1929C94.7007 41.1929 93.5294 40.0521 93.5294 38.4851C93.5294 36.9017 94.7007 35.7435 96.0996 35.7435C97.4808 35.7435 98.5647 36.9017 98.5647 38.4851C98.5647 40.0521 97.4808 41.1929 96.0996 41.1929ZM98.4248 34.9772H98.3548C97.9004 34.4494 97.0259 33.9726 95.9246 33.9726C93.6168 33.9726 91.5015 35.9478 91.5015 38.4851C91.5015 41.0055 93.6168 42.9639 95.9246 42.9639C97.0259 42.9639 97.9004 42.4869 98.3548 41.9423H98.4248V42.5893C98.4248 44.3096 97.4808 45.2291 95.9597 45.2291C94.7185 45.2291 93.9492 44.3603 93.6341 43.6282L91.8686 44.3434C92.3756 45.5354 93.7219 47 95.9597 47C98.3374 47 100.348 45.6374 100.348 42.3168V34.2451H98.4248V34.9772ZM101.747 42.6913H103.775V29.4768H101.747V42.6913ZM106.764 38.332C106.712 36.5948 108.145 35.7096 109.177 35.7096C109.982 35.7096 110.663 36.101 110.89 36.6634L106.764 38.332ZM113.058 36.8335C112.674 35.8285 111.502 33.9726 109.107 33.9726C106.729 33.9726 104.754 35.7947 104.754 38.4682C104.754 40.9886 106.712 42.9639 109.334 42.9639C111.45 42.9639 112.674 41.7037 113.181 40.9716L111.607 39.9496C111.083 40.6991 110.366 41.1929 109.334 41.1929C108.303 41.1929 107.569 40.733 107.096 39.8307L113.268 37.3443L113.058 36.8335ZM63.8893 35.352V37.2592H68.5747C68.4348 38.332 68.0677 39.1152 67.5081 39.6602C66.8265 40.3246 65.76 41.0567 63.8893 41.0567C61.0045 41.0567 58.7493 38.7919 58.7493 35.9821C58.7493 33.1723 61.0045 30.9072 63.8893 30.9072C65.4454 30.9072 66.5815 31.5034 67.4208 32.2697L68.8019 30.9245C67.6307 29.8344 66.0745 29 63.8893 29C59.9379 29 56.6162 32.1335 56.6162 35.9821C56.6162 39.8307 59.9379 42.9639 63.8893 42.9639C66.0224 42.9639 67.6307 42.283 68.8893 41.0055C70.1831 39.7453 70.5854 37.9744 70.5854 36.5441C70.5854 36.101 70.5505 35.6927 70.4802 35.352H63.8893ZM75.9122 41.1929C74.5133 41.1929 73.3069 40.069 73.3069 38.4682C73.3069 36.8504 74.5133 35.7435 75.9122 35.7435C77.3106 35.7435 78.5171 36.8504 78.5171 38.4682C78.5171 40.069 77.3106 41.1929 75.9122 41.1929ZM75.9122 33.9726C73.3594 33.9726 71.2788 35.8627 71.2788 38.4682C71.2788 41.0567 73.3594 42.9639 75.9122 42.9639C78.4645 42.9639 80.5451 41.0567 80.5451 38.4682C80.5451 35.8627 78.4645 33.9726 75.9122 33.9726ZM86.019 41.1929C84.6206 41.1929 83.4141 40.069 83.4141 38.4682C83.4141 36.8504 84.6206 35.7435 86.019 35.7435C87.4175 35.7435 88.6239 36.8504 88.6239 38.4682C88.6239 40.069 87.4175 41.1929 86.019 41.1929ZM86.019 33.9726C83.4663 33.9726 81.3861 35.8627 81.3861 38.4682C81.3861 41.0567 83.4663 42.9639 86.019 42.9639C88.5714 42.9639 90.652 41.0567 90.652 38.4682C90.652 35.8627 88.5714 33.9726 86.019 33.9726Z" fill="black"/>
<path fill-rule="evenodd" clip-rule="evenodd" d="M77.3199 22.288L77.3197 22.2882C77.785 22.7551 78.3413 22.9842 79.0141 22.9855C79.6871 22.9842 80.2442 22.7551 80.7084 22.288C81.1708 21.8208 81.4013 21.2332 81.4022 20.5002C81.4013 19.7673 81.1708 19.1796 80.7084 18.7125C80.2442 18.2454 79.6871 18.0163 79.0141 18.015C78.3412 18.0163 77.7848 18.2454 77.3195 18.7125H77.3199C76.8588 19.1796 76.6283 19.7673 76.6274 20.5002C76.6283 21.2332 76.8588 21.8208 77.3199 22.288ZM81.4837 22.9829C82.1431 22.3091 82.4761 21.4733 82.4752 20.5002C82.4761 19.5326 82.1418 18.6986 81.4795 18.0218C80.8171 17.3424 79.9873 16.9988 79.0141 17C78.0358 16.9988 77.2041 17.3408 76.5454 18.0176V18.0171C75.8852 18.6913 75.5531 19.5271 75.5544 20.5002C75.5531 21.4733 75.8852 22.3091 76.5454 22.9833V22.9829C77.2041 23.6597 78.0358 24.0009 79.0141 24C79.9925 24.0009 80.8242 23.6597 81.4837 22.9829ZM68.1704 23.882C67.911 23.9607 67.6451 24 67.3734 24C66.8762 24 66.3899 23.8372 65.9233 23.519C65.4486 23.1968 65.1348 22.7373 64.9908 22.1586L64.9679 22.0672L65.0559 22.0322L65.9364 21.6775L65.9671 21.7975C66.0537 22.1345 66.2261 22.4131 66.4928 22.6447H66.4923C66.7599 22.8746 67.0464 22.9846 67.3734 22.9855C67.719 22.985 68.0048 22.8967 68.243 22.7212C68.4753 22.5475 68.5831 22.3311 68.5853 22.0326C68.5831 21.6948 68.4719 21.4577 68.2413 21.2797C68.0018 21.0967 67.6023 20.9158 67.0506 20.7484H67.0499C66.4621 20.5641 66.0095 20.3235 65.6949 20.0199C65.376 19.7139 65.2138 19.312 65.2151 18.8406C65.2138 18.3456 65.4167 17.9063 65.8057 17.5466C66.1976 17.1814 66.7127 16.9991 67.3275 17C67.8982 16.9996 68.375 17.1433 68.7436 17.4362C69.1016 17.7212 69.3427 18.0391 69.4536 18.3913L69.4832 18.4855L69.3916 18.5235L68.5127 18.888L68.4808 18.7687C68.4328 18.5907 68.3143 18.4187 68.1113 18.253L68.1126 18.2543L68.1113 18.2534C67.9182 18.0966 67.6685 18.0154 67.3457 18.015C67.0439 18.0154 66.7968 18.0966 66.5895 18.2589L66.5891 18.2593C66.3823 18.4234 66.2906 18.6064 66.289 18.8406C66.2906 19.0503 66.3739 19.216 66.5623 19.3681H66.5619C66.7564 19.522 67.0541 19.6687 67.4528 19.7985H67.4524C67.7763 19.9025 68.0485 20.0026 68.2706 20.1024H68.2701C68.494 20.2022 68.7185 20.335 68.9448 20.4989L68.9444 20.4985C69.1801 20.6685 69.3602 20.8841 69.4803 21.1389C69.6004 21.3948 69.6595 21.6877 69.6591 22.0144C69.6595 22.3437 69.5912 22.6435 69.4514 22.9081C69.3139 23.171 69.127 23.382 68.896 23.537V23.5375C68.6719 23.688 68.4303 23.8034 68.1704 23.882ZM57.6714 22.8409V18.1596H58.7198C59.4522 18.1609 60.0153 18.3684 60.4331 18.7772V18.7767C60.8497 19.1868 61.0602 19.752 61.0611 20.5002C61.0602 21.2544 60.8492 21.8217 60.4335 22.2275C60.0153 22.6342 59.4527 22.8396 58.7198 22.8409H57.6714ZM58.7198 23.855H56.7249H56.6162V17.1454H58.7198C59.7431 17.1446 60.5787 17.4553 61.2025 18.0801C61.8245 18.7015 62.1363 19.5165 62.1354 20.5002C62.1363 21.483 61.8245 22.2989 61.2021 22.9207C60.5787 23.5452 59.7431 23.8558 58.7198 23.855ZM64.0401 23.855H63.2024H63.0937V17.1454H63.2024H64.1488V23.855H64.0401ZM71.6998 20.2102V18.1596H72.9939C73.3227 18.1613 73.5677 18.2653 73.7604 18.4778C73.9578 18.6982 74.0504 18.9286 74.0513 19.1856C74.0504 19.4426 73.9578 19.6721 73.7604 19.8932C73.5677 20.1054 73.3231 20.209 72.9939 20.2102H71.6998ZM71.6998 21.2252V23.7468V23.855H71.5911H70.6446V17.1454H72.9761C73.5523 17.1446 74.0623 17.339 74.4835 17.722C74.9094 18.1054 75.1263 18.603 75.1251 19.1856C75.1263 19.7676 74.9094 20.2647 74.4835 20.6477C74.0623 21.0311 73.5523 21.226 72.9761 21.2252H71.6998ZM84.6229 17.1454L87.6502 21.9691L87.6236 21.0548V17.1454H87.7323H88.6801V23.855H88.5714H87.6359L84.4623 18.7869L84.4887 19.7008V23.855H84.38H83.5426H83.4339V17.1454H83.5426H84.6229ZM90.902 23.855H90.0647H89.956V17.1454H90.0647H91.0107V23.855H90.902ZM93.3424 22.8409V20.9255H94.882C95.1928 20.9267 95.4271 21.0249 95.6131 21.2222H95.6135C95.8055 21.4285 95.8933 21.6412 95.8942 21.8783C95.8933 22.1171 95.8071 22.3328 95.6216 22.5407H95.6212C95.4395 22.742 95.2157 22.8391 94.9188 22.8409H93.3424ZM93.3424 19.9291V18.1596H94.7919C95.0709 18.1613 95.2777 18.25 95.4433 18.4323L95.4441 18.433L95.4433 18.4327C95.614 18.6221 95.693 18.8199 95.6933 19.0401C95.693 19.2595 95.6118 19.4582 95.4352 19.6513V19.6518C95.2641 19.8374 95.0475 19.9278 94.7546 19.9291H93.3424ZM95.9772 20.3806C96.1826 20.2585 96.3547 20.0972 96.4891 19.8986L96.4887 19.8991C96.6627 19.6451 96.7498 19.3487 96.7494 19.0219C96.7511 18.488 96.5482 18.0298 96.1532 17.6764C95.7617 17.3242 95.2892 17.1446 94.7546 17.1454H92.2872V23.855H92.3959H94.882C95.4407 23.8558 95.9345 23.6689 96.3443 23.3008C96.7571 22.9334 96.9698 22.4553 96.9685 21.8969C96.9689 21.5254 96.856 21.1897 96.6355 20.9056V20.9052C96.4576 20.6765 96.2367 20.5001 95.9772 20.3806ZM101.759 23.855H97.9893H97.8806V17.1454H97.9893H98.9353V22.8409H101.759V22.9491V23.855ZM106.624 17.2537V18.0513V18.1596H103.654V20.0019H106.332V20.1101V20.9986H103.654V22.8409H106.624V22.9491V23.855H102.599V17.1454H106.624V17.2537ZM112.376 23.882C112.118 23.9607 111.851 24 111.58 24C111.083 24 110.596 23.8372 110.13 23.519C109.655 23.1968 109.341 22.7373 109.197 22.1586L109.174 22.0672L109.262 22.0322L110.143 21.6775L110.173 21.7975C110.26 22.1345 110.433 22.4131 110.699 22.6447C110.967 22.8746 111.254 22.9846 111.58 22.9855C111.925 22.985 112.211 22.8967 112.449 22.7212C112.682 22.5475 112.789 22.3311 112.792 22.0326C112.789 21.6948 112.679 21.4577 112.448 21.2797C112.208 21.0967 111.809 20.9158 111.257 20.7484C110.669 20.5641 110.215 20.3235 109.901 20.0199C109.583 19.7139 109.42 19.312 109.421 18.8406C109.42 18.3456 109.623 17.9063 110.012 17.5466C110.404 17.1814 110.919 16.9991 111.534 17C112.105 16.9996 112.582 17.1433 112.95 17.4362C113.308 17.7212 113.549 18.0391 113.66 18.3913L113.69 18.4855L113.598 18.5235L112.719 18.888L112.687 18.7687C112.639 18.5907 112.521 18.4187 112.318 18.253V18.2534C112.124 18.0966 111.875 18.0154 111.552 18.015C111.25 18.0154 111.004 18.0966 110.796 18.2589V18.2593C110.589 18.4234 110.497 18.6064 110.496 18.8406C110.497 19.0503 110.581 19.216 110.769 19.3681C110.963 19.522 111.26 19.6687 111.659 19.7985C111.983 19.9025 112.255 20.0026 112.476 20.1024C112.7 20.2022 112.925 20.335 113.151 20.4989L113.149 20.4973L113.151 20.4985C113.387 20.6685 113.567 20.8841 113.686 21.1389C113.807 21.3948 113.866 21.6877 113.866 22.0144C113.866 22.3437 113.797 22.6435 113.658 22.9081C113.52 23.171 113.333 23.382 113.103 23.537V23.5375C112.879 23.688 112.636 23.8034 112.376 23.882ZM119.069 23.2619C118.614 23.7552 117.99 24.0009 117.228 24C116.486 24.0009 115.869 23.7523 115.403 23.2585C114.936 22.766 114.704 22.1163 114.705 21.3347V17.1454H114.814H115.759V21.371C115.76 21.8665 115.889 22.2524 116.14 22.5484C116.386 22.8375 116.738 22.9842 117.228 22.9855C117.716 22.9842 118.067 22.8375 118.314 22.5484C118.565 22.2524 118.693 21.8665 118.694 21.371V17.1454H118.803H119.75V21.3347C119.751 22.1218 119.525 22.7719 119.069 23.2619ZM121.936 20.2288V18.1596H123.23C123.558 18.1613 123.803 18.2653 123.997 18.4778C124.193 18.6982 124.287 18.9286 124.287 19.1856C124.286 19.492 124.181 19.7309 123.963 19.9303C123.741 20.1303 123.486 20.2279 123.175 20.2288H121.936ZM123.842 21.1209C124.253 21.0118 124.605 20.7886 124.888 20.4571V20.4575C125.202 20.0922 125.362 19.6624 125.361 19.1856C125.363 18.603 125.146 18.1054 124.719 17.722C124.298 17.339 123.788 17.1446 123.212 17.1454H120.88V23.855H120.989H121.827H121.936V21.2252H122.699L124.456 23.855H125.508H125.616V23.7108V23.677L123.842 21.1209Z" fill="black"/>
<defs>
<linearGradient id="paint0_linear" x1="27.6162" y1="27.5" x2="20.6162" y2="36" gradientUnits="userSpaceOnUse">
<stop stop-color="#00E2FF"/>
<stop offset="1" stop-color="#03C6F5"/>
</linearGradient>
<linearGradient id="paint1_linear" x1="33.4263" y1="44.7588" x2="14.4787" y2="26.5978" gradientUnits="userSpaceOnUse">
<stop stop-color="#00A0FF"/>
<stop offset="0.00657445" stop-color="#00A1FF"/>
<stop offset="0.2601" stop-color="#00BEFF"/>
<stop offset="0.5122" stop-color="#00D2FF"/>
<stop offset="0.7604" stop-color="#00DFFF"/>
<stop offset="1" stop-color="#00E3FF"/>
</linearGradient>
<linearGradient id="paint2_linear" x1="40.6162" y1="28" x2="30.1162" y2="28" gradientUnits="userSpaceOnUse">
<stop stop-color="#FFEA0D"/>
<stop offset="1" stop-color="#FFCF00"/>
</linearGradient>
<linearGradient id="paint3_linear" x1="46.3752" y1="32.0695" x2="22.5698" y2="32.0695" gradientUnits="userSpaceOnUse">
<stop stop-color="#FFE000"/>
<stop offset="0.4087" stop-color="#FFBD00"/>
<stop offset="0.7754" stop-color="#FFA500"/>
<stop offset="1" stop-color="#FF9C00"/>
</linearGradient>
<linearGradient id="paint4_linear" x1="30.6162" y1="32" x2="19.1162" y2="43.5" gradientUnits="userSpaceOnUse">
<stop stop-color="#F73547"/>
<stop offset="1" stop-color="#E22652"/>
</linearGradient>
<linearGradient id="paint5_linear" x1="36.8799" y1="43.5906" x2="12.9913" y2="19.4439" gradientUnits="userSpaceOnUse">
<stop stop-color="#FF3A44"/>
<stop offset="1" stop-color="#C31162"/>
</linearGradient>
<linearGradient id="paint6_linear" x1="36.6162" y1="27.5" x2="21.6162" y2="18" gradientUnits="userSpaceOnUse">
<stop stop-color="#2EF38F"/>
<stop offset="1" stop-color="#0EDE76"/>
</linearGradient>
<linearGradient id="paint7_linear" x1="18.2142" y1="38.8109" x2="28.8818" y2="28.0452" gradientUnits="userSpaceOnUse">
<stop stop-color="#32A071"/>
<stop offset="0.0685" stop-color="#2DA771"/>
<stop offset="0.4762" stop-color="#15CF74"/>
<stop offset="0.8009" stop-color="#06E775"/>
<stop offset="1" stop-color="#00F076"/>
</linearGradient>
</defs>
</svg>
