<svg width="484" height="321" viewBox="0 0 484 321" fill="none" xmlns="http://www.w3.org/2000/svg">
<rect x="0.5" y="0.763672" width="483" height="319" rx="7.5" fill="#ECEFF8"/>
<rect x="0.5" y="0.763672" width="483" height="319" rx="7.5" stroke="#D3D9E9"/>
<g filter="url(#filter0_d_39_13839)">
<rect x="102.5" y="94.2637" width="279" height="190" rx="8" fill="white"/>
<rect x="103" y="94.7637" width="278" height="189" rx="7.5" stroke="#CCCCCC"/>
<g clip-path="url(#clip0_39_13839)">
<rect x="126.5" y="118.264" width="231" height="38" rx="3" fill="white"/>
<path d="M147.139 137.535C147.139 138.58 146.949 139.454 146.568 140.156C146.187 140.854 145.635 141.381 144.911 141.737C144.192 142.088 143.318 142.264 142.29 142.264H139.77V132.983H142.569C143.513 132.983 144.325 133.157 145.006 133.504C145.688 133.847 146.212 134.357 146.581 135.034C146.953 135.707 147.139 136.54 147.139 137.535ZM146.003 137.573C146.003 136.739 145.863 136.051 145.584 135.51C145.309 134.968 144.903 134.566 144.365 134.304C143.832 134.037 143.178 133.904 142.404 133.904H140.849V141.337H142.163C143.441 141.337 144.399 141.022 145.038 140.391C145.681 139.761 146.003 138.821 146.003 137.573ZM155.042 138.772C155.042 139.344 154.968 139.854 154.82 140.302C154.672 140.751 154.458 141.13 154.179 141.438C153.899 141.747 153.561 141.984 153.163 142.149C152.77 142.31 152.323 142.391 151.824 142.391C151.358 142.391 150.931 142.31 150.542 142.149C150.156 141.984 149.822 141.747 149.539 141.438C149.259 141.13 149.041 140.751 148.885 140.302C148.732 139.854 148.656 139.344 148.656 138.772C148.656 138.011 148.785 137.363 149.043 136.83C149.302 136.293 149.67 135.884 150.148 135.605C150.63 135.321 151.204 135.18 151.868 135.18C152.503 135.18 153.057 135.321 153.531 135.605C154.009 135.889 154.38 136.299 154.642 136.836C154.909 137.37 155.042 138.015 155.042 138.772ZM149.748 138.772C149.748 139.331 149.822 139.816 149.97 140.226C150.118 140.637 150.347 140.954 150.656 141.178C150.965 141.403 151.362 141.515 151.849 141.515C152.332 141.515 152.727 141.403 153.036 141.178C153.349 140.954 153.58 140.637 153.728 140.226C153.876 139.816 153.95 139.331 153.95 138.772C153.95 138.218 153.876 137.74 153.728 137.338C153.58 136.932 153.351 136.618 153.042 136.398C152.734 136.178 152.334 136.068 151.843 136.068C151.119 136.068 150.588 136.307 150.25 136.786C149.915 137.264 149.748 137.926 149.748 138.772ZM159.65 142.391C159.024 142.391 158.472 142.262 157.994 142.003C157.515 141.745 157.143 141.352 156.876 140.823C156.61 140.294 156.477 139.627 156.477 138.823C156.477 137.981 156.616 137.293 156.896 136.76C157.179 136.223 157.568 135.825 158.063 135.567C158.559 135.309 159.121 135.18 159.752 135.18C160.099 135.18 160.433 135.216 160.755 135.288C161.081 135.355 161.347 135.442 161.555 135.548L161.237 136.43C161.026 136.346 160.78 136.269 160.501 136.202C160.226 136.134 159.968 136.1 159.727 136.1C159.244 136.1 158.842 136.204 158.521 136.411C158.203 136.618 157.964 136.923 157.803 137.325C157.647 137.727 157.568 138.222 157.568 138.811C157.568 139.373 157.645 139.854 157.797 140.251C157.953 140.649 158.184 140.954 158.489 141.166C158.798 141.373 159.183 141.477 159.644 141.477C160.012 141.477 160.344 141.438 160.641 141.362C160.937 141.282 161.206 141.189 161.447 141.083V142.022C161.214 142.141 160.954 142.232 160.666 142.295C160.382 142.359 160.044 142.391 159.65 142.391ZM168.493 139.794C168.493 140.345 168.355 140.814 168.08 141.204C167.809 141.589 167.428 141.883 166.938 142.086C166.447 142.289 165.869 142.391 165.205 142.391C164.853 142.391 164.521 142.374 164.208 142.34C163.895 142.306 163.607 142.257 163.345 142.194C163.082 142.13 162.852 142.052 162.653 141.959V140.924C162.97 141.056 163.357 141.178 163.814 141.292C164.271 141.403 164.75 141.458 165.249 141.458C165.715 141.458 166.108 141.396 166.43 141.273C166.751 141.146 166.995 140.967 167.16 140.734C167.329 140.497 167.414 140.213 167.414 139.883C167.414 139.566 167.344 139.301 167.204 139.09C167.064 138.874 166.832 138.679 166.506 138.506C166.184 138.328 165.744 138.14 165.186 137.941C164.792 137.801 164.445 137.649 164.145 137.484C163.844 137.315 163.592 137.124 163.389 136.913C163.186 136.701 163.032 136.456 162.926 136.176C162.824 135.897 162.773 135.577 162.773 135.218C162.773 134.723 162.898 134.299 163.148 133.948C163.402 133.593 163.751 133.322 164.195 133.136C164.644 132.945 165.158 132.85 165.738 132.85C166.233 132.85 166.69 132.897 167.109 132.99C167.532 133.083 167.919 133.208 168.271 133.364L167.934 134.291C167.6 134.151 167.244 134.035 166.868 133.942C166.495 133.849 166.11 133.802 165.712 133.802C165.315 133.802 164.978 133.861 164.703 133.98C164.432 134.094 164.225 134.257 164.081 134.469C163.937 134.68 163.865 134.932 163.865 135.224C163.865 135.55 163.933 135.821 164.068 136.037C164.208 136.252 164.428 136.445 164.729 136.614C165.033 136.779 165.435 136.953 165.935 137.135C166.48 137.334 166.944 137.545 167.325 137.77C167.706 137.99 167.995 138.26 168.194 138.582C168.393 138.899 168.493 139.304 168.493 139.794ZM173.501 135.18C174.368 135.18 175.06 135.478 175.577 136.075C176.093 136.671 176.351 137.569 176.351 138.766C176.351 139.557 176.233 140.222 175.996 140.759C175.759 141.297 175.424 141.703 174.993 141.978C174.565 142.253 174.06 142.391 173.476 142.391C173.107 142.391 172.784 142.342 172.504 142.245C172.225 142.147 171.986 142.016 171.787 141.851C171.588 141.686 171.423 141.506 171.292 141.312H171.216C171.229 141.477 171.243 141.675 171.26 141.908C171.281 142.141 171.292 142.344 171.292 142.518V145.374H170.232V135.307H171.102L171.241 136.335H171.292C171.427 136.123 171.592 135.931 171.787 135.757C171.982 135.58 172.219 135.44 172.498 135.338C172.782 135.233 173.116 135.18 173.501 135.18ZM173.317 136.068C172.834 136.068 172.445 136.161 172.149 136.348C171.857 136.534 171.643 136.813 171.508 137.186C171.372 137.554 171.3 138.017 171.292 138.576V138.779C171.292 139.367 171.355 139.864 171.482 140.271C171.614 140.677 171.827 140.986 172.124 141.197C172.424 141.409 172.826 141.515 173.33 141.515C173.761 141.515 174.121 141.398 174.409 141.166C174.696 140.933 174.91 140.609 175.05 140.194C175.194 139.775 175.266 139.295 175.266 138.753C175.266 137.932 175.105 137.281 174.783 136.798C174.466 136.312 173.977 136.068 173.317 136.068ZM180.794 135.192C181.624 135.192 182.24 135.379 182.642 135.751C183.044 136.123 183.245 136.718 183.245 137.535V142.264H182.477L182.273 141.235H182.223C182.028 141.489 181.825 141.703 181.613 141.876C181.402 142.046 181.156 142.175 180.877 142.264C180.602 142.348 180.263 142.391 179.861 142.391C179.438 142.391 179.062 142.317 178.731 142.168C178.406 142.02 178.147 141.796 177.957 141.496C177.771 141.195 177.678 140.814 177.678 140.353C177.678 139.659 177.953 139.126 178.503 138.753C179.053 138.381 179.891 138.178 181.017 138.144L182.216 138.093V137.668C182.216 137.067 182.087 136.646 181.829 136.405C181.571 136.164 181.207 136.043 180.737 136.043C180.373 136.043 180.026 136.096 179.696 136.202C179.366 136.307 179.053 136.432 178.757 136.576L178.433 135.776C178.746 135.616 179.106 135.478 179.512 135.364C179.918 135.25 180.346 135.192 180.794 135.192ZM182.204 138.836L181.144 138.88C180.276 138.914 179.665 139.056 179.309 139.306C178.954 139.555 178.776 139.909 178.776 140.366C178.776 140.764 178.896 141.058 179.138 141.248C179.379 141.438 179.698 141.534 180.096 141.534C180.714 141.534 181.22 141.362 181.613 141.02C182.007 140.677 182.204 140.163 182.204 139.477V138.836ZM188.202 142.391C187.576 142.391 187.024 142.262 186.545 142.003C186.067 141.745 185.695 141.352 185.428 140.823C185.162 140.294 185.028 139.627 185.028 138.823C185.028 137.981 185.168 137.293 185.447 136.76C185.731 136.223 186.12 135.825 186.615 135.567C187.11 135.309 187.673 135.18 188.304 135.18C188.651 135.18 188.985 135.216 189.307 135.288C189.632 135.355 189.899 135.442 190.106 135.548L189.789 136.43C189.577 136.346 189.332 136.269 189.053 136.202C188.778 136.134 188.52 136.1 188.278 136.1C187.796 136.1 187.394 136.204 187.072 136.411C186.755 136.618 186.516 136.923 186.355 137.325C186.198 137.727 186.12 138.222 186.12 138.811C186.12 139.373 186.196 139.854 186.349 140.251C186.505 140.649 186.736 140.954 187.041 141.166C187.349 141.373 187.735 141.477 188.196 141.477C188.564 141.477 188.896 141.438 189.192 141.362C189.489 141.282 189.757 141.189 189.999 141.083V142.022C189.766 142.141 189.506 142.232 189.218 142.295C188.934 142.359 188.596 142.391 188.202 142.391ZM194.328 135.18C194.92 135.18 195.428 135.311 195.851 135.573C196.274 135.836 196.598 136.204 196.822 136.678C197.047 137.147 197.159 137.698 197.159 138.328V138.982H192.354C192.366 139.799 192.569 140.421 192.963 140.848C193.356 141.276 193.911 141.489 194.626 141.489C195.066 141.489 195.455 141.449 195.794 141.369C196.132 141.288 196.484 141.17 196.848 141.013V141.94C196.496 142.097 196.147 142.211 195.8 142.283C195.458 142.355 195.051 142.391 194.582 142.391C193.913 142.391 193.329 142.255 192.83 141.984C192.334 141.709 191.949 141.307 191.674 140.778C191.399 140.249 191.262 139.602 191.262 138.836C191.262 138.087 191.387 137.439 191.636 136.894C191.89 136.343 192.246 135.92 192.703 135.624C193.164 135.328 193.706 135.18 194.328 135.18ZM194.315 136.043C193.752 136.043 193.304 136.227 192.969 136.595C192.635 136.963 192.436 137.478 192.373 138.138H196.054C196.05 137.723 195.984 137.359 195.857 137.046C195.735 136.729 195.546 136.483 195.292 136.31C195.039 136.132 194.713 136.043 194.315 136.043ZM207.651 142.264H202.484V132.983H207.651V133.936H203.563V136.938H207.417V137.877H203.563V141.312H207.651V142.264ZM208.959 139.242V138.303H212.107V139.242H208.959ZM221.292 135.18C222.058 135.18 222.636 135.381 223.025 135.783C223.415 136.181 223.609 136.822 223.609 137.706V142.264H222.568V137.757C222.568 137.194 222.446 136.773 222.2 136.494C221.959 136.21 221.599 136.068 221.121 136.068C220.448 136.068 219.959 136.263 219.655 136.652C219.35 137.042 219.198 137.615 219.198 138.373V142.264H218.15V137.757C218.15 137.38 218.095 137.067 217.985 136.817C217.88 136.568 217.719 136.382 217.503 136.259C217.291 136.132 217.023 136.068 216.697 136.068C216.236 136.068 215.865 136.164 215.586 136.354C215.307 136.544 215.104 136.828 214.977 137.205C214.854 137.577 214.792 138.036 214.792 138.582V142.264H213.739V135.307H214.589L214.748 136.291H214.805C214.945 136.049 215.12 135.846 215.332 135.681C215.544 135.516 215.781 135.391 216.043 135.307C216.305 135.222 216.585 135.18 216.881 135.18C217.41 135.18 217.852 135.279 218.208 135.478C218.567 135.673 218.827 135.971 218.988 136.373H219.045C219.274 135.971 219.587 135.673 219.985 135.478C220.383 135.279 220.819 135.18 221.292 135.18ZM228.376 135.192C229.206 135.192 229.822 135.379 230.224 135.751C230.626 136.123 230.827 136.718 230.827 137.535V142.264H230.059L229.855 141.235H229.805C229.61 141.489 229.407 141.703 229.195 141.876C228.984 142.046 228.738 142.175 228.459 142.264C228.184 142.348 227.845 142.391 227.443 142.391C227.02 142.391 226.644 142.317 226.313 142.168C225.988 142.02 225.729 141.796 225.539 141.496C225.353 141.195 225.26 140.814 225.26 140.353C225.26 139.659 225.535 139.126 226.085 138.753C226.635 138.381 227.473 138.178 228.599 138.144L229.798 138.093V137.668C229.798 137.067 229.669 136.646 229.411 136.405C229.153 136.164 228.789 136.043 228.319 136.043C227.955 136.043 227.608 136.096 227.278 136.202C226.948 136.307 226.635 136.432 226.339 136.576L226.015 135.776C226.328 135.616 226.688 135.478 227.094 135.364C227.5 135.25 227.928 135.192 228.376 135.192ZM229.786 138.836L228.726 138.88C227.858 138.914 227.247 139.056 226.891 139.306C226.536 139.555 226.358 139.909 226.358 140.366C226.358 140.764 226.479 141.058 226.72 141.248C226.961 141.438 227.28 141.534 227.678 141.534C228.296 141.534 228.802 141.362 229.195 141.02C229.589 140.677 229.786 140.163 229.786 139.477V138.836ZM234.051 135.307V142.264H232.998V135.307H234.051ZM233.537 132.704C233.711 132.704 233.859 132.761 233.981 132.875C234.108 132.986 234.172 133.159 234.172 133.396C234.172 133.629 234.108 133.802 233.981 133.917C233.859 134.031 233.711 134.088 233.537 134.088C233.355 134.088 233.203 134.031 233.08 133.917C232.962 133.802 232.902 133.629 232.902 133.396C232.902 133.159 232.962 132.986 233.08 132.875C233.203 132.761 233.355 132.704 233.537 132.704ZM237.346 142.264H236.286V132.387H237.346V142.264Z" fill="#A3A9AE"/>
</g>
<rect x="127" y="118.764" width="230" height="37" rx="2.5" stroke="#D0D5DA"/>
<g clip-path="url(#clip1_39_13839)">
<rect x="126.5" y="168.264" width="231" height="38" rx="3" fill="white"/>
<path d="M147.139 187.535C147.139 188.58 146.949 189.454 146.568 190.156C146.187 190.854 145.635 191.381 144.911 191.737C144.192 192.088 143.318 192.264 142.29 192.264H139.77V182.983H142.569C143.513 182.983 144.325 183.157 145.006 183.504C145.688 183.847 146.212 184.357 146.581 185.034C146.953 185.707 147.139 186.54 147.139 187.535ZM146.003 187.573C146.003 186.739 145.863 186.051 145.584 185.51C145.309 184.968 144.903 184.566 144.365 184.304C143.832 184.037 143.178 183.904 142.404 183.904H140.849V191.337H142.163C143.441 191.337 144.399 191.022 145.038 190.391C145.681 189.761 146.003 188.821 146.003 187.573ZM155.042 188.772C155.042 189.344 154.968 189.854 154.82 190.302C154.672 190.751 154.458 191.13 154.179 191.438C153.899 191.747 153.561 191.984 153.163 192.149C152.77 192.31 152.323 192.391 151.824 192.391C151.358 192.391 150.931 192.31 150.542 192.149C150.156 191.984 149.822 191.747 149.539 191.438C149.259 191.13 149.041 190.751 148.885 190.302C148.732 189.854 148.656 189.344 148.656 188.772C148.656 188.011 148.785 187.363 149.043 186.83C149.302 186.293 149.67 185.884 150.148 185.605C150.63 185.321 151.204 185.18 151.868 185.18C152.503 185.18 153.057 185.321 153.531 185.605C154.009 185.889 154.38 186.299 154.642 186.836C154.909 187.37 155.042 188.015 155.042 188.772ZM149.748 188.772C149.748 189.331 149.822 189.816 149.97 190.226C150.118 190.637 150.347 190.954 150.656 191.178C150.965 191.403 151.362 191.515 151.849 191.515C152.332 191.515 152.727 191.403 153.036 191.178C153.349 190.954 153.58 190.637 153.728 190.226C153.876 189.816 153.95 189.331 153.95 188.772C153.95 188.218 153.876 187.74 153.728 187.338C153.58 186.932 153.351 186.618 153.042 186.398C152.734 186.178 152.334 186.068 151.843 186.068C151.119 186.068 150.588 186.307 150.25 186.786C149.915 187.264 149.748 187.926 149.748 188.772ZM159.65 192.391C159.024 192.391 158.472 192.262 157.994 192.003C157.515 191.745 157.143 191.352 156.876 190.823C156.61 190.294 156.477 189.627 156.477 188.823C156.477 187.981 156.616 187.293 156.896 186.76C157.179 186.223 157.568 185.825 158.063 185.567C158.559 185.309 159.121 185.18 159.752 185.18C160.099 185.18 160.433 185.216 160.755 185.288C161.081 185.355 161.347 185.442 161.555 185.548L161.237 186.43C161.026 186.346 160.78 186.269 160.501 186.202C160.226 186.134 159.968 186.1 159.727 186.1C159.244 186.1 158.842 186.204 158.521 186.411C158.203 186.618 157.964 186.923 157.803 187.325C157.647 187.727 157.568 188.222 157.568 188.811C157.568 189.373 157.645 189.854 157.797 190.251C157.953 190.649 158.184 190.954 158.489 191.166C158.798 191.373 159.183 191.477 159.644 191.477C160.012 191.477 160.344 191.438 160.641 191.362C160.937 191.282 161.206 191.189 161.447 191.083V192.022C161.214 192.141 160.954 192.232 160.666 192.295C160.382 192.359 160.044 192.391 159.65 192.391ZM168.493 189.794C168.493 190.345 168.355 190.814 168.08 191.204C167.809 191.589 167.428 191.883 166.938 192.086C166.447 192.289 165.869 192.391 165.205 192.391C164.853 192.391 164.521 192.374 164.208 192.34C163.895 192.306 163.607 192.257 163.345 192.194C163.082 192.13 162.852 192.052 162.653 191.959V190.924C162.97 191.056 163.357 191.178 163.814 191.292C164.271 191.403 164.75 191.458 165.249 191.458C165.715 191.458 166.108 191.396 166.43 191.273C166.751 191.146 166.995 190.967 167.16 190.734C167.329 190.497 167.414 190.213 167.414 189.883C167.414 189.566 167.344 189.301 167.204 189.09C167.064 188.874 166.832 188.679 166.506 188.506C166.184 188.328 165.744 188.14 165.186 187.941C164.792 187.801 164.445 187.649 164.145 187.484C163.844 187.315 163.592 187.124 163.389 186.913C163.186 186.701 163.032 186.456 162.926 186.176C162.824 185.897 162.773 185.577 162.773 185.218C162.773 184.723 162.898 184.299 163.148 183.948C163.402 183.593 163.751 183.322 164.195 183.136C164.644 182.945 165.158 182.85 165.738 182.85C166.233 182.85 166.69 182.897 167.109 182.99C167.532 183.083 167.919 183.208 168.271 183.364L167.934 184.291C167.6 184.151 167.244 184.035 166.868 183.942C166.495 183.849 166.11 183.802 165.712 183.802C165.315 183.802 164.978 183.861 164.703 183.98C164.432 184.094 164.225 184.257 164.081 184.469C163.937 184.68 163.865 184.932 163.865 185.224C163.865 185.55 163.933 185.821 164.068 186.037C164.208 186.252 164.428 186.445 164.729 186.614C165.033 186.779 165.435 186.953 165.935 187.135C166.48 187.334 166.944 187.545 167.325 187.77C167.706 187.99 167.995 188.26 168.194 188.582C168.393 188.899 168.493 189.304 168.493 189.794ZM173.501 185.18C174.368 185.18 175.06 185.478 175.577 186.075C176.093 186.671 176.351 187.569 176.351 188.766C176.351 189.557 176.233 190.222 175.996 190.759C175.759 191.297 175.424 191.703 174.993 191.978C174.565 192.253 174.06 192.391 173.476 192.391C173.107 192.391 172.784 192.342 172.504 192.245C172.225 192.147 171.986 192.016 171.787 191.851C171.588 191.686 171.423 191.506 171.292 191.312H171.216C171.229 191.477 171.243 191.675 171.26 191.908C171.281 192.141 171.292 192.344 171.292 192.518V195.374H170.232V185.307H171.102L171.241 186.335H171.292C171.427 186.123 171.592 185.931 171.787 185.757C171.982 185.58 172.219 185.44 172.498 185.338C172.782 185.233 173.116 185.18 173.501 185.18ZM173.317 186.068C172.834 186.068 172.445 186.161 172.149 186.348C171.857 186.534 171.643 186.813 171.508 187.186C171.372 187.554 171.3 188.017 171.292 188.576V188.779C171.292 189.367 171.355 189.864 171.482 190.271C171.614 190.677 171.827 190.986 172.124 191.197C172.424 191.409 172.826 191.515 173.33 191.515C173.761 191.515 174.121 191.398 174.409 191.166C174.696 190.933 174.91 190.609 175.05 190.194C175.194 189.775 175.266 189.295 175.266 188.753C175.266 187.932 175.105 187.281 174.783 186.798C174.466 186.312 173.977 186.068 173.317 186.068ZM180.794 185.192C181.624 185.192 182.24 185.379 182.642 185.751C183.044 186.123 183.245 186.718 183.245 187.535V192.264H182.477L182.273 191.235H182.223C182.028 191.489 181.825 191.703 181.613 191.876C181.402 192.046 181.156 192.175 180.877 192.264C180.602 192.348 180.263 192.391 179.861 192.391C179.438 192.391 179.062 192.317 178.731 192.168C178.406 192.02 178.147 191.796 177.957 191.496C177.771 191.195 177.678 190.814 177.678 190.353C177.678 189.659 177.953 189.126 178.503 188.753C179.053 188.381 179.891 188.178 181.017 188.144L182.216 188.093V187.668C182.216 187.067 182.087 186.646 181.829 186.405C181.571 186.164 181.207 186.043 180.737 186.043C180.373 186.043 180.026 186.096 179.696 186.202C179.366 186.307 179.053 186.432 178.757 186.576L178.433 185.776C178.746 185.616 179.106 185.478 179.512 185.364C179.918 185.25 180.346 185.192 180.794 185.192ZM182.204 188.836L181.144 188.88C180.276 188.914 179.665 189.056 179.309 189.306C178.954 189.555 178.776 189.909 178.776 190.366C178.776 190.764 178.896 191.058 179.138 191.248C179.379 191.438 179.698 191.534 180.096 191.534C180.714 191.534 181.22 191.362 181.613 191.02C182.007 190.677 182.204 190.163 182.204 189.477V188.836ZM188.202 192.391C187.576 192.391 187.024 192.262 186.545 192.003C186.067 191.745 185.695 191.352 185.428 190.823C185.162 190.294 185.028 189.627 185.028 188.823C185.028 187.981 185.168 187.293 185.447 186.76C185.731 186.223 186.12 185.825 186.615 185.567C187.11 185.309 187.673 185.18 188.304 185.18C188.651 185.18 188.985 185.216 189.307 185.288C189.632 185.355 189.899 185.442 190.106 185.548L189.789 186.43C189.577 186.346 189.332 186.269 189.053 186.202C188.778 186.134 188.52 186.1 188.278 186.1C187.796 186.1 187.394 186.204 187.072 186.411C186.755 186.618 186.516 186.923 186.355 187.325C186.198 187.727 186.12 188.222 186.12 188.811C186.12 189.373 186.196 189.854 186.349 190.251C186.505 190.649 186.736 190.954 187.041 191.166C187.349 191.373 187.735 191.477 188.196 191.477C188.564 191.477 188.896 191.438 189.192 191.362C189.489 191.282 189.757 191.189 189.999 191.083V192.022C189.766 192.141 189.506 192.232 189.218 192.295C188.934 192.359 188.596 192.391 188.202 192.391ZM194.328 185.18C194.92 185.18 195.428 185.311 195.851 185.573C196.274 185.836 196.598 186.204 196.822 186.678C197.047 187.147 197.159 187.698 197.159 188.328V188.982H192.354C192.366 189.799 192.569 190.421 192.963 190.848C193.356 191.276 193.911 191.489 194.626 191.489C195.066 191.489 195.455 191.449 195.794 191.369C196.132 191.288 196.484 191.17 196.848 191.013V191.94C196.496 192.097 196.147 192.211 195.8 192.283C195.458 192.355 195.051 192.391 194.582 192.391C193.913 192.391 193.329 192.255 192.83 191.984C192.334 191.709 191.949 191.307 191.674 190.778C191.399 190.249 191.262 189.602 191.262 188.836C191.262 188.087 191.387 187.439 191.636 186.894C191.89 186.343 192.246 185.92 192.703 185.624C193.164 185.328 193.706 185.18 194.328 185.18ZM194.315 186.043C193.752 186.043 193.304 186.227 192.969 186.595C192.635 186.963 192.436 187.478 192.373 188.138H196.054C196.05 187.723 195.984 187.359 195.857 187.046C195.735 186.729 195.546 186.483 195.292 186.31C195.039 186.132 194.713 186.043 194.315 186.043ZM204.909 182.983C206.107 182.983 206.981 183.218 207.531 183.688C208.085 184.153 208.362 184.822 208.362 185.694C208.362 186.087 208.297 186.462 208.166 186.817C208.039 187.169 207.831 187.48 207.543 187.75C207.256 188.017 206.877 188.229 206.407 188.385C205.942 188.538 205.37 188.614 204.693 188.614H203.563V192.264H202.484V182.983H204.909ZM204.808 183.904H203.563V187.687H204.573C205.165 187.687 205.658 187.624 206.052 187.497C206.45 187.37 206.748 187.164 206.947 186.881C207.146 186.593 207.245 186.212 207.245 185.738C207.245 185.12 207.048 184.661 206.655 184.361C206.261 184.056 205.646 183.904 204.808 183.904ZM212.749 185.192C213.578 185.192 214.194 185.379 214.596 185.751C214.998 186.123 215.199 186.718 215.199 187.535V192.264H214.431L214.228 191.235H214.177C213.982 191.489 213.779 191.703 213.567 191.876C213.356 192.046 213.11 192.175 212.831 192.264C212.556 192.348 212.217 192.391 211.815 192.391C211.392 192.391 211.016 192.317 210.686 192.168C210.36 192.02 210.102 191.796 209.911 191.496C209.725 191.195 209.632 190.814 209.632 190.353C209.632 189.659 209.907 189.126 210.457 188.753C211.007 188.381 211.845 188.178 212.971 188.144L214.17 188.093V187.668C214.17 187.067 214.041 186.646 213.783 186.405C213.525 186.164 213.161 186.043 212.691 186.043C212.327 186.043 211.98 186.096 211.65 186.202C211.32 186.307 211.007 186.432 210.711 186.576L210.387 185.776C210.7 185.616 211.06 185.478 211.466 185.364C211.873 185.25 212.3 185.192 212.749 185.192ZM214.158 188.836L213.098 188.88C212.23 188.914 211.619 189.056 211.263 189.306C210.908 189.555 210.73 189.909 210.73 190.366C210.73 190.764 210.851 191.058 211.092 191.248C211.333 191.438 211.653 191.534 212.05 191.534C212.668 191.534 213.174 191.362 213.567 191.02C213.961 190.677 214.158 190.163 214.158 189.477V188.836ZM221.87 190.359C221.87 190.804 221.758 191.178 221.534 191.483C221.314 191.783 220.996 192.01 220.582 192.162C220.171 192.314 219.68 192.391 219.109 192.391C218.622 192.391 218.201 192.353 217.846 192.276C217.49 192.2 217.179 192.092 216.913 191.953V190.981C217.196 191.121 217.535 191.248 217.928 191.362C218.322 191.477 218.724 191.534 219.134 191.534C219.735 191.534 220.171 191.436 220.442 191.242C220.713 191.047 220.848 190.783 220.848 190.448C220.848 190.258 220.793 190.091 220.683 189.947C220.577 189.799 220.397 189.657 220.144 189.521C219.89 189.382 219.538 189.229 219.09 189.064C218.646 188.895 218.26 188.728 217.935 188.563C217.613 188.394 217.363 188.188 217.186 187.947C217.012 187.706 216.925 187.393 216.925 187.008C216.925 186.42 217.162 185.969 217.636 185.656C218.114 185.338 218.741 185.18 219.515 185.18C219.934 185.18 220.326 185.222 220.689 185.307C221.058 185.387 221.4 185.497 221.718 185.637L221.362 186.481C221.075 186.358 220.768 186.255 220.442 186.17C220.116 186.085 219.784 186.043 219.445 186.043C218.959 186.043 218.584 186.123 218.322 186.284C218.064 186.445 217.935 186.665 217.935 186.944C217.935 187.16 217.994 187.338 218.112 187.478C218.235 187.617 218.43 187.748 218.696 187.871C218.963 187.994 219.314 188.138 219.75 188.303C220.186 188.464 220.562 188.631 220.88 188.804C221.197 188.973 221.441 189.181 221.61 189.426C221.783 189.667 221.87 189.979 221.87 190.359ZM228.065 190.359C228.065 190.804 227.953 191.178 227.729 191.483C227.509 191.783 227.192 192.01 226.777 192.162C226.366 192.314 225.875 192.391 225.304 192.391C224.818 192.391 224.396 192.353 224.041 192.276C223.686 192.2 223.375 192.092 223.108 191.953V190.981C223.391 191.121 223.73 191.248 224.124 191.362C224.517 191.477 224.919 191.534 225.33 191.534C225.931 191.534 226.366 191.436 226.637 191.242C226.908 191.047 227.043 190.783 227.043 190.448C227.043 190.258 226.988 190.091 226.878 189.947C226.773 189.799 226.593 189.657 226.339 189.521C226.085 189.382 225.734 189.229 225.285 189.064C224.841 188.895 224.456 188.728 224.13 188.563C223.808 188.394 223.559 188.188 223.381 187.947C223.207 187.706 223.121 187.393 223.121 187.008C223.121 186.42 223.358 185.969 223.832 185.656C224.31 185.338 224.936 185.18 225.71 185.18C226.129 185.18 226.521 185.222 226.885 185.307C227.253 185.387 227.596 185.497 227.913 185.637L227.558 186.481C227.27 186.358 226.963 186.255 226.637 186.17C226.311 186.085 225.979 186.043 225.641 186.043C225.154 186.043 224.779 186.123 224.517 186.284C224.259 186.445 224.13 186.665 224.13 186.944C224.13 187.16 224.189 187.338 224.308 187.478C224.43 187.617 224.625 187.748 224.892 187.871C225.158 187.994 225.509 188.138 225.945 188.303C226.381 188.464 226.758 188.631 227.075 188.804C227.393 188.973 227.636 189.181 227.805 189.426C227.979 189.667 228.065 189.979 228.065 190.359ZM235.422 192.251L234.185 188.201C234.13 188.028 234.077 187.858 234.026 187.693C233.979 187.524 233.935 187.363 233.893 187.211C233.854 187.054 233.819 186.91 233.785 186.779C233.755 186.644 233.73 186.528 233.708 186.43H233.664C233.647 186.528 233.624 186.644 233.594 186.779C233.565 186.91 233.529 187.054 233.486 187.211C233.448 187.368 233.406 187.533 233.359 187.706C233.313 187.875 233.26 188.047 233.201 188.22L231.906 192.251H230.719L228.802 185.294H229.894L230.896 189.134C230.964 189.388 231.028 189.64 231.087 189.89C231.15 190.135 231.203 190.368 231.246 190.588C231.292 190.804 231.326 190.992 231.347 191.153H231.398C231.423 191.047 231.451 190.92 231.48 190.772C231.514 190.624 231.55 190.467 231.588 190.302C231.631 190.133 231.675 189.966 231.722 189.801C231.768 189.632 231.815 189.473 231.861 189.325L233.144 185.294H234.28L235.518 189.318C235.581 189.521 235.642 189.733 235.702 189.953C235.765 190.173 235.822 190.387 235.873 190.594C235.924 190.797 235.96 190.979 235.981 191.14H236.032C236.049 190.996 236.08 190.819 236.127 190.607C236.174 190.395 236.226 190.163 236.286 189.909C236.349 189.655 236.415 189.397 236.482 189.134L237.498 185.294H238.571L236.647 192.251H235.422ZM245.839 188.772C245.839 189.344 245.765 189.854 245.617 190.302C245.469 190.751 245.255 191.13 244.976 191.438C244.696 191.747 244.358 191.984 243.96 192.149C243.566 192.31 243.12 192.391 242.621 192.391C242.155 192.391 241.728 192.31 241.338 192.149C240.953 191.984 240.619 191.747 240.335 191.438C240.056 191.13 239.838 190.751 239.682 190.302C239.529 189.854 239.453 189.344 239.453 188.772C239.453 188.011 239.582 187.363 239.84 186.83C240.098 186.293 240.467 185.884 240.945 185.605C241.427 185.321 242.001 185.18 242.665 185.18C243.3 185.18 243.854 185.321 244.328 185.605C244.806 185.889 245.177 186.299 245.439 186.836C245.706 187.37 245.839 188.015 245.839 188.772ZM240.545 188.772C240.545 189.331 240.619 189.816 240.767 190.226C240.915 190.637 241.144 190.954 241.453 191.178C241.762 191.403 242.159 191.515 242.646 191.515C243.128 191.515 243.524 191.403 243.833 191.178C244.146 190.954 244.377 190.637 244.525 190.226C244.673 189.816 244.747 189.331 244.747 188.772C244.747 188.218 244.673 187.74 244.525 187.338C244.377 186.932 244.148 186.618 243.839 186.398C243.53 186.178 243.131 186.068 242.64 186.068C241.916 186.068 241.385 186.307 241.046 186.786C240.712 187.264 240.545 187.926 240.545 188.772ZM250.822 185.18C250.961 185.18 251.107 185.188 251.26 185.205C251.412 185.218 251.548 185.237 251.666 185.262L251.533 186.24C251.418 186.21 251.292 186.187 251.152 186.17C251.012 186.153 250.881 186.145 250.758 186.145C250.479 186.145 250.215 186.202 249.965 186.316C249.719 186.426 249.504 186.587 249.317 186.798C249.131 187.006 248.985 187.257 248.879 187.554C248.774 187.846 248.721 188.172 248.721 188.531V192.264H247.661V185.307H248.537L248.651 186.589H248.695C248.839 186.331 249.013 186.096 249.216 185.884C249.419 185.668 249.654 185.497 249.92 185.37C250.191 185.243 250.492 185.18 250.822 185.18ZM255.456 192.391C254.575 192.391 253.877 192.09 253.361 191.489C252.849 190.888 252.593 189.995 252.593 188.811C252.593 187.613 252.855 186.709 253.38 186.1C253.905 185.486 254.603 185.18 255.475 185.18C255.843 185.18 256.164 185.228 256.439 185.326C256.715 185.423 256.951 185.554 257.15 185.719C257.349 185.88 257.516 186.064 257.652 186.271H257.728C257.711 186.14 257.694 185.96 257.677 185.732C257.66 185.503 257.652 185.317 257.652 185.173V182.387H258.706V192.264H257.855L257.696 191.273H257.652C257.521 191.481 257.354 191.669 257.15 191.838C256.951 192.008 256.712 192.143 256.433 192.245C256.158 192.342 255.832 192.391 255.456 192.391ZM255.621 191.515C256.365 191.515 256.892 191.303 257.201 190.88C257.51 190.457 257.665 189.828 257.665 188.995V188.804C257.665 187.92 257.516 187.241 257.22 186.767C256.928 186.293 256.395 186.056 255.621 186.056C254.973 186.056 254.489 186.305 254.167 186.805C253.845 187.3 253.685 187.977 253.685 188.836C253.685 189.691 253.843 190.351 254.161 190.816C254.482 191.282 254.969 191.515 255.621 191.515Z" fill="#A3A9AE"/>
<g clip-path="url(#clip2_39_13839)">
<path fill-rule="evenodd" clip-rule="evenodd" d="M334 189.73C332.972 188.877 332.164 187.877 331.715 187.264C332.164 186.651 332.972 185.65 334 184.797C335.084 183.898 336.291 183.264 337.5 183.264C338.709 183.264 339.917 183.898 341.001 184.797C342.028 185.65 342.836 186.651 343.285 187.264C342.836 187.877 342.028 188.877 341.001 189.73C339.917 190.629 338.709 191.264 337.5 191.264C336.291 191.264 335.084 190.629 334 189.73ZM337.5 181.264C335.612 181.264 333.957 182.234 332.723 183.258C331.472 184.295 330.528 185.491 330.043 186.163C329.565 186.824 329.565 187.704 330.043 188.364C330.528 189.036 331.472 190.232 332.723 191.269C333.957 192.294 335.612 193.264 337.5 193.264C339.388 193.264 341.043 192.294 342.278 191.269C343.528 190.232 344.472 189.036 344.958 188.364C345.435 187.704 345.435 186.824 344.958 186.163C344.472 185.491 343.528 184.295 342.278 183.258C341.043 182.234 339.388 181.264 337.5 181.264ZM337.5 185.264C336.395 185.264 335.5 186.159 335.5 187.264C335.5 188.368 336.395 189.264 337.5 189.264C338.605 189.264 339.5 188.368 339.5 187.264C339.5 186.159 338.605 185.264 337.5 185.264Z" fill="#A3A9AE"/>
</g>
</g>
<rect x="127" y="168.764" width="230" height="37" rx="2.5" stroke="#D0D5DA"/>
<rect x="126.5" y="222.264" width="231" height="38" rx="3" fill="#5299E0"/>
<path d="M226.163 246.264V236.983H227.686V244.969H231.628V246.264H226.163ZM239.302 242.734C239.302 243.318 239.226 243.837 239.074 244.29C238.921 244.742 238.699 245.125 238.407 245.438C238.115 245.747 237.764 245.984 237.354 246.149C236.943 246.31 236.48 246.391 235.963 246.391C235.481 246.391 235.039 246.31 234.637 246.149C234.235 245.984 233.886 245.747 233.589 245.438C233.297 245.125 233.071 244.742 232.91 244.29C232.749 243.837 232.669 243.318 232.669 242.734C232.669 241.96 232.802 241.304 233.069 240.767C233.34 240.225 233.725 239.812 234.224 239.529C234.723 239.245 235.318 239.104 236.008 239.104C236.655 239.104 237.227 239.245 237.722 239.529C238.217 239.812 238.604 240.225 238.883 240.767C239.163 241.308 239.302 241.964 239.302 242.734ZM234.205 242.734C234.205 243.246 234.266 243.684 234.389 244.048C234.516 244.412 234.711 244.692 234.973 244.886C235.236 245.077 235.574 245.172 235.989 245.172C236.403 245.172 236.742 245.077 237.004 244.886C237.267 244.692 237.459 244.412 237.582 244.048C237.705 243.684 237.766 243.246 237.766 242.734C237.766 242.222 237.705 241.789 237.582 241.433C237.459 241.073 237.267 240.8 237.004 240.614C236.742 240.424 236.401 240.329 235.982 240.329C235.365 240.329 234.914 240.536 234.63 240.951C234.347 241.365 234.205 241.96 234.205 242.734ZM243.022 249.387C242.07 249.387 241.34 249.215 240.832 248.873C240.324 248.53 240.07 248.049 240.07 247.432C240.07 247 240.206 246.634 240.477 246.333C240.747 246.037 241.135 245.832 241.638 245.718C241.448 245.633 241.283 245.502 241.143 245.324C241.008 245.142 240.94 244.941 240.94 244.721C240.94 244.459 241.014 244.235 241.162 244.048C241.31 243.862 241.532 243.682 241.829 243.509C241.46 243.352 241.164 243.098 240.94 242.747C240.72 242.392 240.61 241.975 240.61 241.497C240.61 240.989 240.718 240.557 240.934 240.202C241.149 239.842 241.465 239.569 241.879 239.383C242.294 239.192 242.796 239.097 243.384 239.097C243.511 239.097 243.648 239.106 243.796 239.123C243.949 239.135 244.088 239.152 244.215 239.173C244.347 239.19 244.446 239.209 244.514 239.23H246.945V240.062L245.751 240.284C245.866 240.445 245.957 240.629 246.024 240.836C246.092 241.04 246.126 241.262 246.126 241.503C246.126 242.231 245.874 242.804 245.371 243.223C244.871 243.638 244.181 243.845 243.301 243.845C243.09 243.837 242.884 243.82 242.686 243.794C242.533 243.888 242.417 243.991 242.336 244.105C242.256 244.215 242.216 244.34 242.216 244.48C242.216 244.594 242.256 244.687 242.336 244.759C242.417 244.827 242.535 244.878 242.692 244.912C242.853 244.945 243.047 244.962 243.276 244.962H244.488C245.258 244.962 245.847 245.125 246.253 245.451C246.659 245.777 246.862 246.255 246.862 246.886C246.862 247.686 246.532 248.301 245.872 248.733C245.212 249.169 244.262 249.387 243.022 249.387ZM243.079 248.339C243.6 248.339 244.038 248.289 244.393 248.187C244.749 248.085 245.017 247.939 245.199 247.749C245.381 247.563 245.472 247.341 245.472 247.083C245.472 246.854 245.415 246.678 245.301 246.556C245.187 246.433 245.015 246.348 244.787 246.302C244.558 246.255 244.275 246.232 243.936 246.232H242.832C242.556 246.232 242.313 246.274 242.102 246.359C241.89 246.448 241.725 246.575 241.606 246.74C241.492 246.905 241.435 247.104 241.435 247.336C241.435 247.658 241.577 247.906 241.86 248.079C242.148 248.253 242.554 248.339 243.079 248.339ZM243.371 242.868C243.807 242.868 244.131 242.749 244.342 242.512C244.554 242.271 244.66 241.932 244.66 241.497C244.66 241.023 244.55 240.667 244.33 240.43C244.114 240.193 243.792 240.075 243.365 240.075C242.946 240.075 242.626 240.195 242.406 240.437C242.19 240.678 242.083 241.035 242.083 241.509C242.083 241.937 242.19 242.271 242.406 242.512C242.626 242.749 242.948 242.868 243.371 242.868ZM249.719 239.237V246.264H248.227V239.237H249.719ZM248.982 236.545C249.211 236.545 249.408 236.607 249.573 236.729C249.742 236.852 249.827 237.064 249.827 237.364C249.827 237.66 249.742 237.872 249.573 237.999C249.408 238.122 249.211 238.183 248.982 238.183C248.745 238.183 248.544 238.122 248.379 237.999C248.219 237.872 248.138 237.66 248.138 237.364C248.138 237.064 248.219 236.852 248.379 236.729C248.544 236.607 248.745 236.545 248.982 236.545ZM255.521 239.104C256.312 239.104 256.928 239.309 257.368 239.719C257.812 240.125 258.034 240.779 258.034 241.681V246.264H256.542V241.96C256.542 241.414 256.43 241.006 256.206 240.735C255.982 240.46 255.635 240.322 255.165 240.322C254.484 240.322 254.01 240.532 253.743 240.951C253.481 241.37 253.35 241.977 253.35 242.772V246.264H251.858V239.237H253.02L253.229 240.189H253.312C253.464 239.944 253.652 239.743 253.876 239.586C254.105 239.425 254.359 239.305 254.638 239.224C254.922 239.144 255.216 239.104 255.521 239.104Z" fill="white"/>
</g>
<path d="M176.804 59.7636C175.346 59.7636 174.007 59.01 173.298 57.7408C172.589 56.5113 172.628 55.0041 173.416 53.8142L180.664 42.669C181.413 41.4395 182.791 40.7256 184.249 40.7652C185.706 40.8049 187.046 41.5982 187.715 42.8674C188.385 44.1366 188.306 45.6437 187.518 46.794L180.231 57.9391C179.482 59.0497 178.182 59.7636 176.804 59.7636Z" fill="#FB275D"/>
<path d="M189.134 59.7637C187.676 59.7637 186.337 59.0101 185.628 57.7805C184.919 56.551 184.958 55.0438 185.746 53.8539L192.994 42.7088C193.743 41.4792 195.082 40.7256 196.579 40.7653C198.076 40.8049 199.376 41.5982 200.045 42.8674C200.715 44.1366 200.636 45.6438 199.77 46.8337L192.522 57.9392C191.812 59.0497 190.512 59.7637 189.134 59.7637Z" fill="#FFCC00"/>
<path d="M201.188 59.7637C203.394 59.7637 205.206 57.9392 205.206 55.7181C205.206 53.497 203.394 51.6725 201.188 51.6725C198.982 51.6725 197.17 53.497 197.17 55.7181C197.17 57.9788 198.943 59.7637 201.188 59.7637Z" fill="#00CA72"/>
<g clip-path="url(#clip3_39_13839)">
<path d="M236 50.2638C236 53.5775 238.686 56.2638 242 56.2638C243.776 56.2638 245.373 55.4925 246.473 54.2638H245V52.2638H249C249.552 52.2638 250 52.7115 250 53.2638V57.2638H248V55.5538C246.535 57.2141 244.391 58.2638 242 58.2638C237.582 58.2638 234 54.6821 234 50.2638H236ZM242 42.2638C246.418 42.2638 250 45.8455 250 50.2638H248C248 46.9501 245.314 44.2638 242 44.2638C240.343 44.2638 238.845 44.9347 237.758 46.0216L237.75 46.0284L237.741 46.0372C237.739 46.0395 237.734 46.0432 237.729 46.049C237.716 46.0612 237.696 46.082 237.669 46.1095C237.632 46.1469 237.583 46.1991 237.522 46.2638H239V48.2638H235C234.448 48.2638 234 47.8161 234 47.2638V43.2638H236V44.962C236.1 44.8539 236.182 44.7683 236.242 44.7072L236.354 44.5958C236.354 44.5949 236.356 44.5945 236.356 44.5939L236.357 44.5929C237.803 43.1546 239.798 42.2638 242 42.2638Z" fill="#D0D5DA"/>
</g>
<path fill-rule="evenodd" clip-rule="evenodd" d="M293.088 64.2671L280.178 58.32C279.078 57.8009 279.078 56.9985 280.178 56.5265L284.672 54.4497L293.04 58.32C294.139 58.8392 295.909 58.8392 296.96 58.32L305.328 54.4497L309.822 56.5265C310.922 57.0457 310.922 57.8481 309.822 58.32L296.913 64.2671C295.909 64.7391 294.139 64.7391 293.088 64.2671Z" fill="#FF6F3D"/>
<path fill-rule="evenodd" clip-rule="evenodd" d="M293.046 56.9078L280.175 50.9538C279.079 50.434 279.079 49.6307 280.175 49.1581L284.561 47.1262L293.046 51.0483C294.142 51.5681 295.906 51.5681 296.954 51.0483L305.439 47.1262L309.825 49.1581C310.921 49.6779 310.921 50.4813 309.825 50.9538L296.954 56.9078C295.858 57.4276 294.094 57.4276 293.046 56.9078Z" fill="#95C038"/>
<path fill-rule="evenodd" clip-rule="evenodd" d="M293.046 49.625L280.175 43.7566C279.079 43.2443 279.079 42.4526 280.175 41.9868L293.046 36.1185C294.142 35.6062 295.906 35.6062 296.954 36.1185L309.825 41.9868C310.921 42.4991 310.921 43.2909 309.825 43.7566L296.954 49.625C295.858 50.0907 294.094 50.0907 293.046 49.625Z" fill="#5DC0E8"/>
<defs>
<filter id="filter0_d_39_13839" x="82.5" y="79.2637" width="319" height="230" filterUnits="userSpaceOnUse" color-interpolation-filters="sRGB">
<feFlood flood-opacity="0" result="BackgroundImageFix"/>
<feColorMatrix in="SourceAlpha" type="matrix" values="0 0 0 0 0 0 0 0 0 0 0 0 0 0 0 0 0 0 127 0" result="hardAlpha"/>
<feOffset dy="5"/>
<feGaussianBlur stdDeviation="10"/>
<feColorMatrix type="matrix" values="0 0 0 0 0.0169271 0 0 0 0 0.0597538 0 0 0 0 0.104167 0 0 0 0.07 0"/>
<feBlend mode="normal" in2="BackgroundImageFix" result="effect1_dropShadow_39_13839"/>
<feBlend mode="normal" in="SourceGraphic" in2="effect1_dropShadow_39_13839" result="shape"/>
</filter>
<clipPath id="clip0_39_13839">
<rect x="126.5" y="118.264" width="231" height="38" rx="3" fill="white"/>
</clipPath>
<clipPath id="clip1_39_13839">
<rect x="126.5" y="168.264" width="231" height="38" rx="3" fill="white"/>
</clipPath>
<clipPath id="clip2_39_13839">
<rect width="16" height="16" fill="white" transform="translate(329.5 179.264)"/>
</clipPath>
<clipPath id="clip3_39_13839">
<rect width="16.0001" height="15.9997" fill="white" transform="translate(234 42.2638)"/>
</clipPath>
</defs>
</svg>
